500 0 5 0           
7 Unknown 11 ACIS 5.0 NT 24 Fri Mar 26 14:49:23 1999 
-1 9.9999999999999995e-007 1e-010 
body $-1 $5 $-1 $6 #
body $-1 $7 $-1 $8 #
body $-1 $9 $-1 $10 #
body $-1 $11 $-1 $12 #
body $-1 $13 $-1 $14 #
lump $-1 $-1 $15 $0 #
transform $-1 1 0 0 0 1 0 0 0 1 60.546281319620348 36.742041574506629 12.1618658138144 1 rotate no_reflect no_shear #
lump $-1 $-1 $16 $1 #
transform $-1 1 0 0 0 1 0 0 0 1 60.546281319620348 36.742041574506629 12.1618658138144 1 rotate no_reflect no_shear #
lump $-1 $-1 $17 $2 #
transform $-1 1 0 0 0 1 0 0 0 1 60.546281319620348 36.742041574506629 12.1618658138144 1 rotate no_reflect no_shear #
lump $-1 $-1 $18 $3 #
transform $-1 1 0 0 0 1 0 0 0 1 60.546281319620348 36.742041574506629 12.1618658138144 1 rotate no_reflect no_shear #
lump $-1 $-1 $19 $4 #
transform $-1 1 0 0 0 1 0 0 0 1 60.546281319620348 36.742041574506629 12.1618658138144 1 rotate no_reflect no_shear #
shell $-1 $-1 $-1 $20 $-1 $5 #
shell $-1 $-1 $-1 $21 $-1 $7 #
shell $-1 $-1 $-1 $22 $-1 $9 #
shell $-1 $-1 $-1 $23 $-1 $11 #
shell $-1 $-1 $-1 $24 $-1 $13 #
face $-1 $25 $26 $15 $-1 $27 forward single #
face $-1 $28 $29 $16 $-1 $30 reversed single #
face $-1 $31 $32 $17 $-1 $33 forward single #
face $-1 $34 $35 $18 $-1 $36 reversed single #
face $-1 $37 $38 $19 $-1 $39 reversed single #
face $-1 $40 $41 $15 $-1 $42 reversed single #
loop $-1 $-1 $43 $20 #
plane-surface $-1 0 0 12.1618658138144 0 0 1 1 0 0 forward_v I I I I #
face $-1 $44 $45 $16 $-1 $46 forward single #
loop $-1 $-1 $47 $21 #
plane-surface $-1 0 -29.303130772451293 2.8251583719121491 0 0 1 1 0 0 forward_v I I I I #
face $-1 $48 $49 $17 $-1 $50 forward single #
loop $-1 $-1 $51 $22 #
plane-surface $-1 42.088045209686094 104.86923737609698 133.01226028694509 1 0 0 0 -0.86602541151947299 -0.49999998660252726 forward_v I I I I #
face $-1 $52 $53 $18 $-1 $54 reversed single #
loop $-1 $55 $56 $23 #
cone-surface $-1 47.361826955381602 35.346306401342872 10.244381533807768 0 -0.86602541151947299 -0.49999998660252726 0.25 0 0 1 I I 0 1 0.25 forward I I I I #
face $-1 $57 $58 $19 $-1 $59 reversed single #
loop $-1 $60 $61 $24 #
cone-surface $-1 55.272499573924847 35.346306401342872 10.244381533807768 0 -0.86602541151947299 -0.49999998660252726 0.25 0 0 1 I I 0 1 0.25 forward I I I I #
face $-1 $62 $63 $15 $-1 $64 reversed single #
loop $-1 $-1 $65 $25 #
plane-surface $-1 0 0 -12.1618658138144 0 0 1 1 0 0 forward_v I I I I #
coedge $-1 $66 $67 $68 $69 forward $26 $-1 #
face $-1 $70 $71 $16 $-1 $72 forward single #
loop $-1 $-1 $73 $28 #
plane-surface $-1 0 -29.303130772451293 -2.8314250008621116 0 0 1 1 0 0 forward_v I I I I #
coedge $-1 $74 $75 $76 $77 reversed $29 $-1 #
face $-1 $78 $79 $17 $-1 $80 reversed single #
loop $-1 $-1 $81 $31 #
plane-surface $-1 51.317163264653217 9.845009856235265e-007 72.465980589659054 0 0.86602541151947299 0.49999998660252726 1 0 0 forward_v I I I I #
coedge $-1 $82 $83 $84 $85 reversed $32 $-1 #
face $-1 $86 $87 $18 $-1 $88 forward single #
loop $-1 $89 $90 $34 #
cone-surface $-1 47.361826955381602 34.805040519143205 9.9318815421811895 0 -0.86602541151947299 -0.49999998660252726 0.125 0 0 1 I I -0.70710678118654746 0.70710678118654746 0.125 forward I I I I #
loop $-1 $-1 $91 $23 #
coedge $-1 $56 $56 $92 $93 reversed $35 $-1 #
face $-1 $94 $95 $19 $-1 $96 reversed single #
loop $-1 $97 $98 $37 #
cone-surface $-1 55.272499573924847 34.805040519143205 9.9318815421811895 0 -0.86602541151947299 -0.49999998660252726 0.125 0 0 1 I I -0.70710678118654746 0.70710678118654746 0.125 forward I I I I #
loop $-1 $-1 $99 $24 #
coedge $-1 $61 $61 $100 $101 reversed $38 $-1 #
face $-1 $102 $103 $15 $-1 $104 reversed single #
loop $-1 $-1 $105 $40 #
plane-surface $-1 0 -36.742041574506629 0 0 1 0 0 0 1 forward_v I I I I #
coedge $-1 $106 $107 $108 $109 forward $41 $-1 #
coedge $-1 $110 $43 $111 $112 forward $26 $-1 #
coedge $-1 $43 $110 $113 $114 forward $26 $-1 #
coedge $-1 $115 $116 $43 $69 reversed $117 $-1 #
edge $-1 $118 -36.742041574506629 $119 36.742041574506629 $68 $120 forward 7 unknown #
face $-1 $121 $122 $16 $-1 $123 reversed single #
loop $-1 $-1 $124 $44 #
plane-surface $-1 0 -21.864219970395958 -0.0031333144749812192 0 -1 0 0 0 -1 forward_v I I I I #
coedge $-1 $125 $126 $127 $128 reversed $45 $-1 #
coedge $-1 $129 $47 $130 $131 reversed $29 $-1 #
coedge $-1 $47 $129 $132 $133 reversed $29 $-1 #
coedge $-1 $134 $135 $47 $77 forward $122 $-1 #
edge $-1 $136 -22.090476188280981 $137 -7.2126545841703109 $76 $138 forward 7 unknown #
face $-1 $139 $140 $17 $-1 $141 reversed single #
loop $-1 $-1 $142 $48 #
plane-surface $-1 0 36.742041574506629 0 0 -1 0 0 0 -1 forward_v I I I I #
coedge $-1 $143 $144 $145 $146 reversed $49 $-1 #
coedge $-1 $83 $51 $144 $147 forward $32 $-1 #
coedge $-1 $51 $82 $142 $148 reversed $32 $-1 #
coedge $-1 $149 $145 $51 $85 forward $150 $-1 #
edge $-1 $151 -17.618022048349907 $152 -15.692577113541859 $84 $153 forward 7 unknown #
face $-1 $154 $155 $18 $-1 $156 forward single #
loop $-1 $-1 $157 $52 #
plane-surface $-1 42.088045209686094 104.86923737609698 133.01226028694509 1 0 0 0 -0.86602541151947299 -0.49999998660252726 forward_v I I I I #
loop $-1 $-1 $158 $34 #
coedge $-1 $90 $90 $91 $159 forward $53 $-1 #
coedge $-1 $91 $91 $90 $159 reversed $55 $-1 #
coedge $-1 $92 $92 $56 $93 forward $155 $-1 #
edge $-1 $160 -1.9038930316466688e-015 $160 6.2831853071795987 $92 $161 forward 7 unknown #
face $-1 $162 $163 $19 $-1 $164 reversed single #
loop $-1 $165 $166 $57 #
cone-surface $-1 47.361826955381602 35.346306401342872 10.244381533807768 0 -0.86602541151947299 -0.49999998660252726 0.25 0 0 1 I I 0 1 0.25 forward I I I I #
loop $-1 $-1 $167 $37 #
coedge $-1 $98 $98 $99 $168 forward $58 $-1 #
coedge $-1 $99 $99 $98 $168 reversed $60 $-1 #
coedge $-1 $100 $100 $61 $101 forward $169 $-1 #
edge $-1 $170 -1.9038930316466688e-015 $170 6.2831853071795987 $100 $171 forward 7 unknown #
face $-1 $172 $173 $15 $-1 $174 reversed single #
loop $-1 $-1 $175 $62 #
plane-surface $-1 -60.546281319620348 0 0 1 0 0 0 0 -1 forward_v I I I I #
coedge $-1 $176 $113 $177 $178 forward $63 $-1 #
coedge $-1 $179 $65 $176 $180 forward $41 $-1 #
coedge $-1 $65 $179 $181 $182 forward $41 $-1 #
coedge $-1 $116 $115 $65 $109 reversed $117 $-1 #
edge $-1 $183 -36.742041574506629 $184 36.742041574506629 $108 $185 forward 7 unknown #
coedge $-1 $67 $66 $186 $187 forward $26 $-1 #
coedge $-1 $188 $189 $66 $112 reversed $173 $-1 #
edge $-1 $119 -60.546281319620348 $190 60.546281319620348 $111 $191 forward 7 unknown #
coedge $-1 $105 $192 $67 $114 reversed $63 $-1 #
edge $-1 $193 -60.546281319620348 $118 60.546281319620348 $113 $194 forward 7 unknown #
coedge $-1 $108 $68 $192 $195 forward $117 $-1 #
coedge $-1 $68 $108 $188 $196 reversed $117 $-1 #
loop $-1 $-1 $115 $172 #
vertex $-1 $69 $197 #
vertex $-1 $69 $198 #
straight-curve $-1 60.546281319620348 0 12.1618658138144 0 1 0 I I #
face $-1 $199 $200 $16 $-1 $201 reversed single #
loop $-1 $-1 $76 $70 #
plane-surface $-1 60.546281319620348 0 0 -1 0 0 0 0 1 forward_v I I I I #
coedge $-1 $132 $202 $134 $203 reversed $71 $-1 #
coedge $-1 $204 $73 $202 $205 reversed $45 $-1 #
coedge $-1 $73 $204 $206 $207 reversed $45 $-1 #
coedge $-1 $208 $134 $73 $128 forward $122 $-1 #
edge $-1 $209 7.2126545841703109 $210 22.090476188280981 $127 $211 forward 7 unknown #
coedge $-1 $75 $74 $212 $213 reversed $29 $-1 #
coedge $-1 $214 $215 $74 $131 forward $216 $-1 #
edge $-1 $217 -60.546281319620348 $136 60.546281319620348 $130 $218 forward 7 unknown #
coedge $-1 $219 $124 $75 $133 forward $71 $-1 #
edge $-1 $137 -60.546281319620348 $220 60.546281319620348 $132 $221 forward 7 unknown #
coedge $-1 $127 $76 $124 $203 forward $122 $-1 #
coedge $-1 $76 $222 $214 $223 forward $122 $-1 #
vertex $-1 $131 $224 #
vertex $-1 $77 $225 #
straight-curve $-1 60.546281319620348 -14.651565386225647 2.8251583719121491 0 1 0 I I #
face $-1 $226 $227 $17 $-1 $228 forward single #
loop $-1 $-1 $229 $78 #
plane-surface $-1 0 -29.303130772451293 2.8251583719121491 0 0 1 1 0 0 forward_v I I I I #
coedge $-1 $230 $231 $83 $148 forward $79 $-1 #
coedge $-1 $232 $81 $233 $234 reversed $49 $-1 #
coedge $-1 $81 $232 $82 $147 reversed $49 $-1 #
coedge $-1 $84 $235 $81 $146 forward $150 $-1 #
edge $-1 $236 -34.88769968729374 $151 -16.429463577359485 $145 $237 forward 7 unknown #
edge $-1 $151 69.633193176212799 $238 73.484083149013287 $82 $239 forward 7 unknown #
edge $-1 $152 54.344264329658145 $238 57.679232903068893 $142 $240 forward 7 unknown #
coedge $-1 $241 $84 $231 $242 forward $150 $-1 #
loop $-1 $-1 $84 $243 #
vertex $-1 $146 $244 #
vertex $-1 $242 $245 #
straight-curve $-1 42.088045209686094 52.434618688048488 12.161865813814401 0 1 0 I I #
face $-1 $246 $247 $18 $-1 $248 reversed single #
loop $-1 $249 $92 $86 #
plane-surface $-1 51.317163264653217 9.845009856235265e-007 72.465980589659054 0 0.86602541151947299 0.49999998660252726 1 0 0 forward_v I I I I #
coedge $-1 $250 $251 $252 $253 reversed $87 $-1 #
coedge $-1 $158 $158 $-1 $254 forward $89 $-1 #
edge $-1 $255 0 $255 6.2831853071796004 $90 $256 forward 7 unknown #
vertex $-1 $93 $257 #
ellipse-curve $-1 47.361826955381602 35.779319107102602 10.494381527109029 0 -0.86602541151947299 -0.49999998660252726 0.25 0 0 1 I I #
face $-1 $258 $259 $19 $-1 $260 forward single #
loop $-1 $261 $262 $94 #
cone-surface $-1 47.361826955381602 34.805040519143205 9.9318815421811895 0 -0.86602541151947299 -0.49999998660252726 0.125 0 0 1 I I -0.70710678118654746 0.70710678118654746 0.125 forward I I I I #
loop $-1 $-1 $263 $57 #
coedge $-1 $166 $166 $264 $265 reversed $95 $-1 #
coedge $-1 $167 $167 $-1 $266 forward $97 $-1 #
edge $-1 $267 0 $267 6.2831853071796004 $98 $268 forward 7 unknown #
loop $-1 $269 $100 $258 #
vertex $-1 $101 $270 #
ellipse-curve $-1 55.272499573924847 35.779319107102602 10.494381527109029 0 -0.86602541151947299 -0.49999998660252726 0.25 0 0 1 I I #
face $-1 $-1 $117 $15 $-1 $271 reversed single #
loop $-1 $-1 $188 $102 #
plane-surface $-1 0 36.742041574506629 0 0 -1 0 0 0 -1 forward_v I I I I #
coedge $-1 $272 $186 $189 $273 forward $103 $-1 #
coedge $-1 $192 $105 $106 $180 reversed $63 $-1 #
coedge $-1 $186 $272 $105 $178 reversed $103 $-1 #
edge $-1 $193 -12.1618658138144 $274 12.1618658138144 $177 $275 forward 7 unknown #
coedge $-1 $107 $106 $272 $276 forward $41 $-1 #
edge $-1 $184 -60.546281319620348 $274 60.546281319620348 $176 $277 forward 7 unknown #
coedge $-1 $189 $188 $107 $182 reversed $173 $-1 #
edge $-1 $278 -60.546281319620348 $183 60.546281319620348 $181 $279 forward 7 unknown #
vertex $-1 $109 $280 #
vertex $-1 $195 $281 #
straight-curve $-1 60.546281319620348 0 -12.1618658138144 0 -1 0 I I #
coedge $-1 $175 $177 $110 $187 reversed $103 $-1 #
edge $-1 $190 -36.742041574506629 $193 36.742041574506629 $186 $282 forward 7 unknown #
coedge $-1 $181 $111 $116 $196 forward $173 $-1 #
coedge $-1 $111 $181 $175 $273 reversed $173 $-1 #
vertex $-1 $112 $283 #
straight-curve $-1 0 36.742041574506629 12.1618658138144 -1 0 0 I I #
coedge $-1 $113 $176 $115 $195 reversed $63 $-1 #
vertex $-1 $187 $284 #
straight-curve $-1 0 -36.742041574506629 12.1618658138144 1 0 0 I I #
edge $-1 $118 -12.1618658138144 $184 12.1618658138144 $115 $285 forward 7 unknown #
edge $-1 $119 -12.1618658138144 $183 12.1618658138144 $116 $286 forward 7 unknown #
point $-1 60.546281319620348 -36.742041574506629 12.1618658138144 #
point $-1 60.546281319620348 36.742041574506629 12.1618658138144 #
face $-1 $287 $288 $16 $-1 $289 forward single #
loop $-1 $-1 $206 $121 #
plane-surface $-1 0 -36.742041574506629 0 0 1 0 0 0 1 forward_v I I I I #
coedge $-1 $124 $219 $125 $205 forward $71 $-1 #
edge $-1 $137 -2.8267250291496397 $209 2.829858343624621 $134 $290 forward 7 unknown #
coedge $-1 $126 $125 $291 $292 reversed $45 $-1 #
edge $-1 $293 -60.546281319620348 $209 60.546281319620348 $202 $294 forward 7 unknown #
coedge $-1 $295 $296 $126 $207 forward $200 $-1 #
edge $-1 $210 -60.546281319620348 $297 60.546281319620348 $206 $298 forward 7 unknown #
coedge $-1 $299 $127 $296 $300 forward $122 $-1 #
vertex $-1 $128 $301 #
vertex $-1 $300 $302 #
straight-curve $-1 60.546281319620348 -14.651565386225647 -2.8314250008621116 0 -1 0 I I #
coedge $-1 $303 $304 $129 $213 forward $305 $-1 #
edge $-1 $220 7.2126545841703109 $217 22.090476188280981 $212 $306 forward 7 unknown #
coedge $-1 $307 $130 $135 $223 reversed $216 $-1 #
coedge $-1 $130 $307 $303 $308 forward $216 $-1 #
loop $-1 $-1 $130 $309 #
vertex $-1 $213 $310 #
straight-curve $-1 0 -36.742041574506629 2.8251583719121491 1 0 0 I I #
coedge $-1 $202 $132 $304 $311 reversed $71 $-1 #
vertex $-1 $213 $312 #
straight-curve $-1 0 -21.864219970395958 2.8251583719121491 -1 0 0 I I #
coedge $-1 $135 $313 $314 $315 reversed $122 $-1 #
edge $-1 $316 -12.1618658138144 $136 -2.8251583719121491 $135 $317 forward 7 unknown #
point $-1 60.546281319620348 -36.742041574506629 2.8251583719121491 #
point $-1 60.546281319620348 -21.864219970395958 2.8251583719121491 #
face $-1 $318 $319 $17 $-1 $320 forward single #
loop $-1 $-1 $321 $139 #
plane-surface $-1 0 -29.303130772451293 -2.8314250008621116 0 0 1 1 0 0 forward_v I I I I #
coedge $-1 $322 $323 $324 $325 reversed $140 $-1 #
coedge $-1 $326 $142 $232 $327 forward $79 $-1 #
coedge $-1 $142 $328 $149 $242 reversed $79 $-1 #
coedge $-1 $144 $143 $230 $327 reversed $49 $-1 #
coedge $-1 $329 $330 $143 $234 forward $331 $-1 #
edge $-1 $332 -42.105393064477717 $236 -38.254503091677229 $233 $333 forward 7 unknown #
coedge $-1 $145 $334 $329 $335 forward $150 $-1 #
vertex $-1 $234 $336 #
straight-curve $-1 25.658581632326609 34.816596639698581 12.161865813814401 -1 0 0 I I #
vertex $-1 $327 $337 #
straight-curve $-1 42.088045209686094 9.845009856235265e-007 72.465980589659054 0 0.49999998660252726 -0.86602541151947299 I I #
straight-curve $-1 42.088045209686094 36.742041574506629 66.506130143472546 0 0 -1 I I #
coedge $-1 $334 $149 $338 $339 forward $150 $-1 #
edge $-1 $152 -42.088045209686094 $340 60.546281319620348 $231 $341 forward 7 unknown #
face $-1 $342 $150 $17 $-1 $343 forward single #
point $-1 42.088045209686094 34.816596639698581 12.161865813814408 #
point $-1 42.088045209686094 36.742041574506629 12.1618658138144 #
face $-1 $344 $345 $18 $-1 $346 reversed single #
loop $-1 $-1 $347 $154 #
plane-surface $-1 0 36.742041574506629 0 0 -1 0 0 0 -1 forward_v I I I I #
loop $-1 $-1 $348 $86 #
coedge $-1 $251 $157 $349 $350 forward $87 $-1 #
coedge $-1 $157 $250 $347 $351 reversed $87 $-1 #
coedge $-1 $352 $353 $157 $253 forward $354 $-1 #
edge $-1 $355 -17.618022048349907 $356 -15.692577113541859 $252 $357 forward 7 unknown #
edge $-1 $358 1 $358 0 $158 $-1 forward 7 unknown #
vertex $-1 $159 $359 #
ellipse-curve $-1 47.361826955381602 34.913293695583135 9.994381540506506 0 0.86602541151947299 0.49999998660252726 0.25 0 0 1 I I #
point $-1 47.611826955381602 35.779319107102609 10.494381527109033 #
face $-1 $360 $169 $19 $-1 $361 forward single #
loop $-1 $-1 $362 $162 #
plane-surface $-1 42.088045209686094 104.86923737609698 133.01226028694509 1 0 0 0 -0.86602541151947299 -0.49999998660252726 forward_v I I I I #
loop $-1 $-1 $363 $94 #
coedge $-1 $262 $262 $263 $364 forward $163 $-1 #
coedge $-1 $263 $263 $262 $364 reversed $165 $-1 #
coedge $-1 $264 $264 $166 $265 forward $269 $-1 #
edge $-1 $365 -1.9038930316466688e-015 $365 6.2831853071795987 $264 $366 forward 7 unknown #
edge $-1 $367 1 $367 0 $167 $-1 forward 7 unknown #
vertex $-1 $168 $368 #
ellipse-curve $-1 55.272499573924847 34.913293695583135 9.994381540506506 0 0.86602541151947299 0.49999998660252726 0.25 0 0 1 I I #
loop $-1 $369 $264 $258 #
point $-1 55.522499573924847 35.779319107102609 10.494381527109033 #
plane-surface $-1 60.546281319620348 0 0 -1 0 0 0 0 1 forward_v I I I I #
coedge $-1 $177 $175 $179 $276 reversed $103 $-1 #
edge $-1 $190 -12.1618658138144 $278 12.1618658138144 $189 $370 forward 7 unknown #
vertex $-1 $276 $371 #
straight-curve $-1 -60.546281319620348 -36.742041574506629 0 0 0 -1 I I #
edge $-1 $274 -36.742041574506629 $278 36.742041574506629 $272 $372 forward 7 unknown #
straight-curve $-1 0 -36.742041574506629 -12.1618658138144 -1 0 0 I I #
vertex $-1 $182 $373 #
straight-curve $-1 0 36.742041574506629 -12.1618658138144 1 0 0 I I #
point $-1 60.546281319620348 36.742041574506629 -12.1618658138144 #
point $-1 60.546281319620348 -36.742041574506629 -12.1618658138144 #
straight-curve $-1 -60.546281319620348 0 12.1618658138144 0 -1 0 I I #
point $-1 -60.546281319620348 36.742041574506629 12.1618658138144 #
point $-1 -60.546281319620348 -36.742041574506629 12.1618658138144 #
straight-curve $-1 60.546281319620348 -36.742041574506629 0 0 0 -1 I I #
straight-curve $-1 60.546281319620348 36.742041574506629 0 0 0 -1 I I #
face $-1 $309 $374 $16 $-1 $375 reversed single #
loop $-1 $-1 $314 $199 #
plane-surface $-1 0 0 12.1618658138144 0 0 1 1 0 0 forward_v I I I I #
straight-curve $-1 60.546281319620348 -21.864219970395958 -0.0015666572374906096 0 0 -1 I I #
coedge $-1 $304 $376 $204 $292 forward $305 $-1 #
edge $-1 $297 -22.090476188280981 $293 -7.2126545841703109 $291 $377 forward 7 unknown #
vertex $-1 $292 $378 #
straight-curve $-1 0 -21.864219970395958 -2.8314250008621116 1 0 0 I I #
coedge $-1 $379 $206 $376 $380 forward $200 $-1 #
coedge $-1 $206 $379 $208 $300 reversed $200 $-1 #
vertex $-1 $380 $381 #
straight-curve $-1 0 -36.742041574506629 -2.8314250008621116 -1 0 0 I I #
coedge $-1 $313 $208 $382 $383 reversed $122 $-1 #
edge $-1 $210 2.8314250008621116 $384 12.1618658138144 $208 $317 forward 7 unknown #
point $-1 60.546281319620348 -21.864219970395958 -2.8314250008621116 #
point $-1 60.546281319620348 -36.742041574506629 -2.8314250008621116 #
coedge $-1 $385 $212 $215 $308 reversed $305 $-1 #
coedge $-1 $212 $291 $219 $311 forward $305 $-1 #
loop $-1 $-1 $212 $386 #
straight-curve $-1 -60.546281319620348 -14.651565386225647 2.8251583719121491 0 -1 0 I I #
coedge $-1 $215 $214 $387 $388 reversed $216 $-1 #
edge $-1 $389 -12.1618658138144 $217 -2.8251583719121491 $303 $390 forward 7 unknown #
face $-1 $386 $216 $16 $-1 $201 reversed single #
point $-1 -60.546281319620348 -36.742041574506629 2.8251583719121491 #
edge $-1 $293 -2.829858343624621 $220 2.8267250291496397 $304 $391 forward 7 unknown #
point $-1 -60.546281319620348 -21.864219970395958 2.8251583719121491 #
coedge $-1 $222 $299 $392 $393 reversed $122 $-1 #
coedge $-1 $394 $387 $222 $315 forward $288 $-1 #
edge $-1 $316 -36.742041574506629 $395 36.742041574506629 $222 $396 forward 7 unknown #
vertex $-1 $315 $397 #
straight-curve $-1 60.546281319620348 -36.742041574506629 0 0 0 -1 I I #
face $-1 $398 $331 $17 $-1 $399 reversed single #
loop $-1 $-1 $400 $226 #
plane-surface $-1 0 -21.864219970395958 -0.0031333144749812192 0 -1 0 0 0 -1 forward_v I I I I #
coedge $-1 $401 $402 $403 $404 reversed $227 $-1 #
coedge $-1 $405 $229 $406 $407 reversed $140 $-1 #
coedge $-1 $229 $405 $408 $409 reversed $140 $-1 #
coedge $-1 $410 $411 $229 $325 forward $331 $-1 #
edge $-1 $412 -22.090476188280981 $413 -7.2126545841703109 $324 $414 forward 7 unknown #
coedge $-1 $415 $230 $330 $416 forward $79 $-1 #
edge $-1 $238 16.429463577359485 $332 34.88769968729374 $230 $417 forward 7 unknown #
coedge $-1 $231 $415 $418 $419 reversed $79 $-1 #
coedge $-1 $411 $233 $235 $335 reversed $331 $-1 #
coedge $-1 $233 $420 $326 $416 reversed $331 $-1 #
loop $-1 $-1 $233 $318 #
vertex $-1 $416 $421 #
straight-curve $-1 60.546281319620348 15.689345606373626 45.291237596257126 0 -0.49999998660252726 0.86602541151947299 I I #
coedge $-1 $235 $241 $422 $423 forward $150 $-1 #
edge $-1 $424 -36.742041574506629 $236 34.816596639698581 $329 $425 forward 7 unknown #
point $-1 60.546281319620348 34.816596639698581 12.1618658138144 #
point $-1 42.088045209686094 36.742041574506629 8.8268972404036532 #
coedge $-1 $418 $426 $241 $339 reversed $427 $-1 #
edge $-1 $340 -36.742041574506629 $428 36.742041574506629 $338 $429 forward 7 unknown #
vertex $-1 $242 $430 #
straight-curve $-1 0 36.742041574506629 12.1618658138144 -1 0 0 I I #
face $-1 $431 $432 $17 $-1 $433 reversed single #
plane-surface $-1 0 0 12.1618658138144 0 0 1 1 0 0 forward_v I I I I #
face $-1 $434 $435 $18 $-1 $436 forward single #
loop $-1 $-1 $437 $246 #
plane-surface $-1 0 -29.303130772451293 2.8251583719121491 0 0 1 1 0 0 forward_v I I I I #
coedge $-1 $438 $439 $251 $351 forward $247 $-1 #
coedge $-1 $440 $349 $353 $441 reversed $249 $-1 #
coedge $-1 $348 $442 $250 $350 reversed $249 $-1 #
edge $-1 $355 69.633193176212799 $443 73.484083149013287 $250 $444 forward 7 unknown #
edge $-1 $356 54.344264329658145 $443 57.679232903068893 $347 $445 forward 7 unknown #
coedge $-1 $446 $252 $439 $447 forward $354 $-1 #
coedge $-1 $252 $448 $348 $441 forward $354 $-1 #
loop $-1 $-1 $252 $449 #
vertex $-1 $441 $450 #
vertex $-1 $447 $451 #
straight-curve $-1 42.088045209686094 52.434618688048488 12.161865813814401 0 1 0 I I #
vertex $-1 $254 $452 #
point $-1 47.611826955381602 34.913293695583135 9.994381540506506 #
face $-1 $453 $454 $19 $-1 $455 reversed single #
plane-surface $-1 51.317163264653217 9.845009856235265e-007 72.465980589659054 0 0.86602541151947299 0.49999998660252726 1 0 0 forward_v I I I I #
coedge $-1 $456 $457 $458 $459 reversed $259 $-1 #
coedge $-1 $363 $363 $-1 $460 forward $261 $-1 #
edge $-1 $461 0 $461 6.2831853071796004 $262 $462 forward 7 unknown #
vertex $-1 $265 $463 #
ellipse-curve $-1 47.361826955381602 35.779319107102602 10.494381527109029 0 -0.86602541151947299 -0.49999998660252726 0.25 0 0 1 I I #
vertex $-1 $266 $464 #
point $-1 55.522499573924847 34.913293695583135 9.994381540506506 #
loop $-1 $-1 $465 $258 #
straight-curve $-1 -60.546281319620348 36.742041574506629 0 0 0 -1 I I #
point $-1 -60.546281319620348 -36.742041574506629 -12.1618658138144 #
straight-curve $-1 -60.546281319620348 0 -12.1618658138144 0 1 0 I I #
point $-1 -60.546281319620348 36.742041574506629 -12.1618658138144 #
loop $-1 $-1 $382 $287 #
plane-surface $-1 0 0 -12.1618658138144 0 0 1 1 0 0 forward_v I I I I #
coedge $-1 $291 $466 $295 $380 reversed $305 $-1 #
straight-curve $-1 -60.546281319620348 -14.651565386225647 -2.8314250008621116 0 1 0 I I #
point $-1 -60.546281319620348 -21.864219970395958 -2.8314250008621116 #
coedge $-1 $296 $295 $467 $468 reversed $200 $-1 #
edge $-1 $297 2.8314250008621116 $469 12.1618658138144 $376 $390 forward 7 unknown #
point $-1 -60.546281319620348 -36.742041574506629 -2.8314250008621116 #
coedge $-1 $467 $470 $299 $383 forward $374 $-1 #
edge $-1 $471 -36.742041574506629 $384 36.742041574506629 $299 $472 forward 7 unknown #
vertex $-1 $300 $473 #
coedge $-1 $474 $303 $475 $476 reversed $305 $-1 #
face $-1 $477 $305 $16 $-1 $478 reversed single #
coedge $-1 $314 $475 $307 $388 forward $288 $-1 #
edge $-1 $389 -60.546281319620348 $316 60.546281319620348 $307 $479 forward 7 unknown #
vertex $-1 $476 $480 #
straight-curve $-1 -60.546281319620348 -36.742041574506629 0 0 0 -1 I I #
straight-curve $-1 -60.546281319620348 -21.864219970395958 -0.0015666572374906096 0 0 1 I I #
coedge $-1 $481 $482 $313 $393 forward $483 $-1 #
edge $-1 $395 -12.1618658138144 $471 12.1618658138144 $313 $484 forward 7 unknown #
coedge $-1 $475 $314 $482 $485 forward $288 $-1 #
vertex $-1 $315 $486 #
straight-curve $-1 60.546281319620348 0 12.1618658138144 0 1 0 I I #
point $-1 60.546281319620348 -36.742041574506629 12.1618658138144 #
face $-1 $243 $487 $17 $-1 $488 reversed single #
plane-surface $-1 60.546281319620348 0 0 -1 0 0 0 0 1 forward_v I I I I #
coedge $-1 $408 $489 $410 $490 reversed $319 $-1 #
coedge $-1 $491 $321 $489 $492 reversed $227 $-1 #
coedge $-1 $321 $491 $493 $494 reversed $227 $-1 #
coedge $-1 $495 $410 $321 $404 forward $331 $-1 #
edge $-1 $496 7.2126545841703109 $497 22.090476188280981 $403 $498 forward 7 unknown #
coedge $-1 $323 $322 $499 $500 reversed $140 $-1 #
coedge $-1 $501 $502 $322 $407 forward $503 $-1 #
edge $-1 $504 -60.546281319620348 $412 60.546281319620348 $406 $505 forward 7 unknown #
coedge $-1 $506 $400 $323 $409 forward $319 $-1 #
edge $-1 $413 -60.546281319620348 $507 60.546281319620348 $408 $508 forward 7 unknown #
coedge $-1 $403 $324 $400 $490 forward $331 $-1 #
coedge $-1 $324 $329 $501 $509 forward $331 $-1 #
vertex $-1 $407 $510 #
vertex $-1 $325 $511 #
straight-curve $-1 60.546281319620348 -14.651565386225647 2.8251583719121491 0 1 0 I I #
coedge $-1 $328 $326 $512 $513 reversed $79 $-1 #
edge $-1 $332 -8.8268972404036479 $514 12.1618658138144 $330 $515 forward 7 unknown #
straight-curve $-1 25.658581632326609 36.742041574506629 8.8268972404036425 1 0 0 I I #
coedge $-1 $516 $338 $328 $419 forward $427 $-1 #
edge $-1 $340 -12.1618658138144 $517 12.1618658138144 $328 $518 forward 7 unknown #
coedge $-1 $330 $495 $519 $520 reversed $331 $-1 #
point $-1 60.546281319620348 36.742041574506629 8.8268972404036479 #
coedge $-1 $502 $501 $334 $423 reversed $503 $-1 #
edge $-1 $428 -60.546281319620348 $424 60.546281319620348 $422 $521 forward 7 unknown #
vertex $-1 $335 $522 #
straight-curve $-1 60.546281319620348 0 12.1618658138144 0 1 0 I I #
coedge $-1 $338 $499 $502 $523 reversed $427 $-1 #
loop $-1 $-1 $499 $524 #
vertex $-1 $339 $525 #
straight-curve $-1 -60.546281319620348 0 12.1618658138144 0 -1 0 I I #
point $-1 -60.546281319620348 36.742041574506629 12.1618658138144 #
face $-1 $524 $503 $17 $-1 $488 reversed single #
loop $-1 $-1 $519 $342 #
plane-surface $-1 0 0 -12.1618658138144 0 0 1 1 0 0 forward_v I I I I #
face $-1 $526 $527 $18 $-1 $528 forward single #
loop $-1 $-1 $529 $344 #
plane-surface $-1 0 -29.303130772451293 -2.8314250008621116 0 0 1 1 0 0 forward_v I I I I #
coedge $-1 $530 $531 $532 $533 reversed $345 $-1 #
coedge $-1 $534 $347 $442 $535 forward $247 $-1 #
coedge $-1 $347 $536 $352 $447 reversed $247 $-1 #
coedge $-1 $442 $348 $537 $538 reversed $249 $-1 #
edge $-1 $539 -34.88769968729374 $355 -16.429463577359485 $353 $540 forward 7 unknown #
coedge $-1 $349 $440 $438 $535 reversed $249 $-1 #
vertex $-1 $535 $541 #
straight-curve $-1 42.088045209686094 9.845009856235265e-007 72.465980589659054 0 0.49999998660252726 -0.86602541151947299 I I #
straight-curve $-1 42.088045209686094 36.742041574506629 66.506130143472546 0 0 -1 I I #
coedge $-1 $542 $352 $543 $544 forward $354 $-1 #
edge $-1 $356 -42.088045209686094 $545 60.546281319620348 $439 $546 forward 7 unknown #
coedge $-1 $353 $542 $547 $548 forward $354 $-1 #
face $-1 $549 $354 $18 $-1 $550 forward single #
point $-1 42.088045209686094 34.816596639698581 12.161865813814408 #
point $-1 42.088045209686094 36.742041574506629 12.1618658138144 #
point $-1 47.361826955381602 34.696787342703274 9.869381543855873 #
face $-1 $551 $552 $19 $-1 $553 reversed single #
loop $-1 $-1 $554 $360 #
plane-surface $-1 0 36.742041574506629 0 0 -1 0 0 0 -1 forward_v I I I I #
coedge $-1 $457 $362 $555 $556 forward $259 $-1 #
coedge $-1 $362 $456 $554 $557 reversed $259 $-1 #
coedge $-1 $558 $559 $362 $459 forward $560 $-1 #
edge $-1 $561 -17.618022048349907 $562 -15.692577113541859 $458 $563 forward 7 unknown #
edge $-1 $564 1 $564 0 $363 $-1 forward 7 unknown #
vertex $-1 $364 $565 #
ellipse-curve $-1 47.361826955381602 34.913293695583135 9.994381540506506 0 0.86602541151947299 0.49999998660252726 0.25 0 0 1 I I #
point $-1 47.611826955381602 35.779319107102609 10.494381527109033 #
point $-1 55.272499573924847 34.696787342703274 9.869381543855873 #
coedge $-1 $566 $555 $559 $567 reversed $369 $-1 #
coedge $-1 $376 $474 $568 $569 reversed $305 $-1 #
coedge $-1 $568 $382 $379 $468 forward $374 $-1 #
edge $-1 $384 -60.546281319620348 $469 60.546281319620348 $379 $570 forward 7 unknown #
vertex $-1 $569 $571 #
coedge $-1 $382 $568 $481 $572 forward $374 $-1 #
vertex $-1 $383 $573 #
straight-curve $-1 60.546281319620348 0 -12.1618658138144 0 -1 0 I I #
point $-1 60.546281319620348 -36.742041574506629 -12.1618658138144 #
coedge $-1 $466 $385 $574 $575 forward $305 $-1 #
coedge $-1 $387 $394 $385 $476 forward $288 $-1 #
edge $-1 $576 -36.742041574506629 $389 36.742041574506629 $385 $577 forward 7 unknown #
face $-1 $-1 $483 $16 $-1 $578 reversed single #
plane-surface $-1 -60.546281319620348 0 0 1 0 0 0 0 -1 forward_v I I I I #
straight-curve $-1 0 -36.742041574506629 12.1618658138144 1 0 0 I I #
point $-1 -60.546281319620348 -36.742041574506629 12.1618658138144 #
coedge $-1 $574 $392 $470 $572 reversed $483 $-1 #
coedge $-1 $392 $574 $394 $485 reversed $483 $-1 #
loop $-1 $-1 $392 $477 #
straight-curve $-1 60.546281319620348 36.742041574506629 0 0 0 -1 I I #
edge $-1 $395 -60.546281319620348 $576 60.546281319620348 $482 $579 forward 7 unknown #
point $-1 60.546281319620348 36.742041574506629 12.1618658138144 #
loop $-1 $-1 $493 $398 #
plane-surface $-1 0 -36.742041574506629 0 0 1 0 0 0 1 forward_v I I I I #
coedge $-1 $400 $506 $401 $492 forward $319 $-1 #
edge $-1 $413 -2.8267250291496397 $496 2.829858343624621 $410 $580 forward 7 unknown #
coedge $-1 $402 $401 $581 $582 reversed $227 $-1 #
edge $-1 $583 -60.546281319620348 $496 60.546281319620348 $489 $584 forward 7 unknown #
coedge $-1 $585 $586 $402 $494 forward $487 $-1 #
edge $-1 $497 -60.546281319620348 $587 60.546281319620348 $493 $588 forward 7 unknown #
coedge $-1 $420 $403 $586 $589 forward $331 $-1 #
vertex $-1 $404 $590 #
vertex $-1 $589 $591 #
straight-curve $-1 60.546281319620348 -14.651565386225647 -2.8314250008621116 0 -1 0 I I #
coedge $-1 $426 $592 $405 $500 forward $427 $-1 #
edge $-1 $507 7.2126545841703109 $504 22.090476188280981 $499 $593 forward 7 unknown #
coedge $-1 $422 $406 $411 $509 reversed $503 $-1 #
coedge $-1 $406 $422 $426 $523 forward $503 $-1 #
loop $-1 $-1 $406 $431 #
vertex $-1 $500 $594 #
straight-curve $-1 0 -36.742041574506629 2.8251583719121491 1 0 0 I I #
coedge $-1 $489 $408 $592 $595 reversed $319 $-1 #
vertex $-1 $500 $596 #
straight-curve $-1 0 -21.864219970395958 2.8251583719121491 -1 0 0 I I #
edge $-1 $424 -12.1618658138144 $412 -2.8251583719121491 $411 $597 forward 7 unknown #
point $-1 60.546281319620348 -36.742041574506629 2.8251583719121491 #
point $-1 60.546281319620348 -21.864219970395958 2.8251583719121491 #
coedge $-1 $519 $598 $415 $513 forward $432 $-1 #
edge $-1 $517 -60.546281319620348 $514 60.546281319620348 $415 $599 forward 7 unknown #
vertex $-1 $520 $600 #
straight-curve $-1 60.546281319620348 36.742041574506629 0 0 0 -1 I I #
coedge $-1 $601 $418 $598 $602 reversed $427 $-1 #
vertex $-1 $513 $603 #
straight-curve $-1 -60.546281319620348 36.742041574506629 0 0 0 -1 I I #
coedge $-1 $604 $512 $420 $520 forward $432 $-1 #
edge $-1 $514 -36.742041574506629 $605 36.742041574506629 $420 $606 forward 7 unknown #
straight-curve $-1 0 -36.742041574506629 12.1618658138144 1 0 0 I I #
point $-1 60.546281319620348 -36.742041574506629 12.1618658138144 #
edge $-1 $428 -12.1618658138144 $504 -2.8251583719121491 $426 $607 forward 7 unknown #
face $-1 $-1 $427 $17 $-1 $608 reversed single #
point $-1 -60.546281319620348 -36.742041574506629 12.1618658138144 #
face $-1 $609 $610 $18 $-1 $611 reversed single #
loop $-1 $-1 $612 $434 #
plane-surface $-1 0 -21.864219970395958 -0.0031333144749812192 0 -1 0 0 0 -1 forward_v I I I I #
coedge $-1 $613 $614 $615 $616 reversed $435 $-1 #
coedge $-1 $617 $437 $618 $619 reversed $345 $-1 #
coedge $-1 $437 $617 $620 $621 reversed $345 $-1 #
coedge $-1 $622 $623 $437 $533 forward $610 $-1 #
edge $-1 $624 -22.090476188280981 $625 -7.2126545841703109 $532 $626 forward 7 unknown #
coedge $-1 $627 $438 $628 $629 forward $247 $-1 #
edge $-1 $443 16.429463577359485 $630 34.88769968729374 $438 $631 forward 7 unknown #
coedge $-1 $439 $627 $632 $633 reversed $247 $-1 #
coedge $-1 $547 $628 $440 $538 forward $610 $-1 #
edge $-1 $630 -42.105393064477717 $539 -38.254503091677229 $537 $634 forward 7 unknown #
vertex $-1 $538 $635 #
straight-curve $-1 25.658581632326609 34.816596639698581 12.161865813814401 -1 0 0 I I #
point $-1 42.088045209686094 36.742041574506629 8.8268972404036532 #
coedge $-1 $448 $446 $636 $637 forward $354 $-1 #
coedge $-1 $632 $638 $446 $544 reversed $639 $-1 #
edge $-1 $545 -36.742041574506629 $640 36.742041574506629 $543 $641 forward 7 unknown #
vertex $-1 $447 $642 #
straight-curve $-1 0 36.742041574506629 12.1618658138144 -1 0 0 I I #
coedge $-1 $623 $537 $448 $548 reversed $610 $-1 #
edge $-1 $643 -36.742041574506629 $539 34.816596639698581 $547 $644 forward 7 unknown #
face $-1 $645 $646 $18 $-1 $647 reversed single #
plane-surface $-1 0 0 12.1618658138144 0 0 1 1 0 0 forward_v I I I I #
face $-1 $648 $649 $19 $-1 $650 forward single #
loop $-1 $-1 $651 $453 #
plane-surface $-1 0 -29.303130772451293 2.8251583719121491 0 0 1 1 0 0 forward_v I I I I #
coedge $-1 $652 $653 $457 $557 forward $454 $-1 #
coedge $-1 $465 $654 $456 $556 reversed $369 $-1 #
edge $-1 $561 69.633193176212799 $655 73.484083149013287 $456 $656 forward 7 unknown #
edge $-1 $562 54.344264329658145 $655 57.679232903068893 $554 $657 forward 7 unknown #
coedge $-1 $658 $458 $653 $659 forward $560 $-1 #
coedge $-1 $458 $660 $465 $567 forward $560 $-1 #
loop $-1 $-1 $458 $661 #
vertex $-1 $567 $662 #
vertex $-1 $659 $663 #
straight-curve $-1 42.088045209686094 52.434618688048488 12.161865813814401 0 1 0 I I #
vertex $-1 $460 $664 #
point $-1 47.611826955381602 34.913293695583135 9.994381540506506 #
coedge $-1 $654 $465 $665 $666 reversed $369 $-1 #
edge $-1 $667 -34.88769968729374 $561 -16.429463577359485 $559 $668 forward 7 unknown #
coedge $-1 $470 $467 $466 $569 forward $374 $-1 #
edge $-1 $469 -36.742041574506629 $669 36.742041574506629 $466 $670 forward 7 unknown #
straight-curve $-1 0 -36.742041574506629 -12.1618658138144 -1 0 0 I I #
point $-1 -60.546281319620348 -36.742041574506629 -12.1618658138144 #
edge $-1 $669 -60.546281319620348 $471 60.546281319620348 $481 $671 forward 7 unknown #
point $-1 60.546281319620348 36.742041574506629 -12.1618658138144 #
coedge $-1 $482 $481 $474 $575 reversed $483 $-1 #
edge $-1 $576 -12.1618658138144 $669 12.1618658138144 $574 $672 forward 7 unknown #
vertex $-1 $485 $673 #
straight-curve $-1 -60.546281319620348 0 12.1618658138144 0 -1 0 I I #
plane-surface $-1 0 36.742041574506629 0 0 -1 0 0 0 -1 forward_v I I I I #
straight-curve $-1 0 36.742041574506629 12.1618658138144 -1 0 0 I I #
straight-curve $-1 60.546281319620348 -21.864219970395958 -0.0015666572374906096 0 0 -1 I I #
coedge $-1 $592 $601 $491 $582 forward $427 $-1 #
edge $-1 $587 -22.090476188280981 $583 -7.2126545841703109 $581 $674 forward 7 unknown #
vertex $-1 $582 $675 #
straight-curve $-1 0 -21.864219970395958 -2.8314250008621116 1 0 0 I I #
coedge $-1 $676 $493 $601 $677 forward $487 $-1 #
coedge $-1 $493 $676 $495 $589 reversed $487 $-1 #
vertex $-1 $677 $678 #
straight-curve $-1 0 -36.742041574506629 -2.8314250008621116 -1 0 0 I I #
edge $-1 $497 2.8314250008621116 $605 12.1618658138144 $495 $597 forward 7 unknown #
point $-1 60.546281319620348 -21.864219970395958 -2.8314250008621116 #
point $-1 60.546281319620348 -36.742041574506629 -2.8314250008621116 #
coedge $-1 $499 $581 $506 $595 forward $427 $-1 #
straight-curve $-1 -60.546281319620348 -14.651565386225647 2.8251583719121491 0 -1 0 I I #
point $-1 -60.546281319620348 -36.742041574506629 2.8251583719121491 #
edge $-1 $583 -2.829858343624621 $507 2.8267250291496397 $592 $679 forward 7 unknown #
point $-1 -60.546281319620348 -21.864219970395958 2.8251583719121491 #
straight-curve $-1 60.546281319620348 -36.742041574506629 0 0 0 -1 I I #
coedge $-1 $512 $604 $516 $602 forward $432 $-1 #
straight-curve $-1 0 36.742041574506629 -12.1618658138144 1 0 0 I I #
point $-1 60.546281319620348 36.742041574506629 -12.1618658138144 #
coedge $-1 $581 $516 $585 $677 reversed $427 $-1 #
edge $-1 $680 -36.742041574506629 $517 36.742041574506629 $516 $681 forward 7 unknown #
point $-1 -60.546281319620348 36.742041574506629 -12.1618658138144 #
coedge $-1 $598 $519 $676 $682 forward $432 $-1 #
vertex $-1 $589 $683 #
straight-curve $-1 60.546281319620348 0 -12.1618658138144 0 -1 0 I I #
straight-curve $-1 -60.546281319620348 -36.742041574506629 0 0 0 -1 I I #
plane-surface $-1 -60.546281319620348 0 0 1 0 0 0 0 -1 forward_v I I I I #
face $-1 $449 $684 $18 $-1 $685 reversed single #
loop $-1 $-1 $537 $526 #
plane-surface $-1 60.546281319620348 0 0 -1 0 0 0 0 1 forward_v I I I I #
coedge $-1 $620 $686 $622 $687 reversed $527 $-1 #
coedge $-1 $688 $529 $686 $689 reversed $435 $-1 #
coedge $-1 $529 $688 $690 $691 reversed $435 $-1 #
coedge $-1 $692 $622 $529 $616 forward $610 $-1 #
edge $-1 $693 7.2126545841703109 $694 22.090476188280981 $615 $695 forward 7 unknown #
coedge $-1 $531 $530 $696 $697 reversed $345 $-1 #
coedge $-1 $698 $699 $530 $619 forward $700 $-1 #
edge $-1 $701 -60.546281319620348 $624 60.546281319620348 $618 $702 forward 7 unknown #
coedge $-1 $703 $612 $531 $621 forward $527 $-1 #
edge $-1 $625 -60.546281319620348 $704 60.546281319620348 $620 $705 forward 7 unknown #
coedge $-1 $615 $532 $612 $687 forward $610 $-1 #
coedge $-1 $532 $547 $698 $706 forward $610 $-1 #
vertex $-1 $619 $707 #
vertex $-1 $533 $708 #
straight-curve $-1 60.546281319620348 -14.651565386225647 2.8251583719121491 0 1 0 I I #
coedge $-1 $536 $534 $709 $710 reversed $247 $-1 #
coedge $-1 $537 $711 $534 $629 reversed $610 $-1 #
edge $-1 $630 -8.8268972404036479 $712 12.1618658138144 $628 $713 forward 7 unknown #
vertex $-1 $629 $714 #
straight-curve $-1 25.658581632326609 36.742041574506629 8.8268972404036425 1 0 0 I I #
coedge $-1 $715 $543 $536 $633 forward $639 $-1 #
edge $-1 $545 -12.1618658138144 $716 12.1618658138144 $536 $717 forward 7 unknown #
straight-curve $-1 60.546281319620348 15.689345606373626 45.291237596257126 0 -0.49999998660252726 0.86602541151947299 I I #
point $-1 60.546281319620348 34.816596639698581 12.1618658138144 #
coedge $-1 $699 $698 $542 $637 reversed $700 $-1 #
edge $-1 $640 -60.546281319620348 $643 60.546281319620348 $636 $718 forward 7 unknown #
coedge $-1 $543 $696 $699 $719 reversed $639 $-1 #
loop $-1 $-1 $696 $720 #
vertex $-1 $544 $721 #
straight-curve $-1 -60.546281319620348 0 12.1618658138144 0 -1 0 I I #
point $-1 -60.546281319620348 36.742041574506629 12.1618658138144 #
vertex $-1 $548 $722 #
straight-curve $-1 60.546281319620348 0 12.1618658138144 0 1 0 I I #
face $-1 $720 $700 $18 $-1 $685 reversed single #
loop $-1 $-1 $723 $549 #
plane-surface $-1 0 0 -12.1618658138144 0 0 1 1 0 0 forward_v I I I I #
face $-1 $724 $725 $19 $-1 $726 forward single #
loop $-1 $-1 $727 $551 #
plane-surface $-1 0 -29.303130772451293 -2.8314250008621116 0 0 1 1 0 0 forward_v I I I I #
coedge $-1 $728 $729 $730 $731 reversed $552 $-1 #
coedge $-1 $732 $554 $654 $733 forward $454 $-1 #
coedge $-1 $554 $734 $558 $659 reversed $454 $-1 #
coedge $-1 $555 $566 $652 $733 reversed $369 $-1 #
vertex $-1 $733 $735 #
straight-curve $-1 42.088045209686094 9.845009856235265e-007 72.465980589659054 0 0.49999998660252726 -0.86602541151947299 I I #
straight-curve $-1 42.088045209686094 36.742041574506629 66.506130143472546 0 0 -1 I I #
coedge $-1 $736 $558 $737 $738 forward $560 $-1 #
edge $-1 $562 -42.088045209686094 $739 60.546281319620348 $653 $740 forward 7 unknown #
coedge $-1 $559 $736 $741 $742 forward $560 $-1 #
face $-1 $743 $560 $19 $-1 $744 forward single #
point $-1 42.088045209686094 34.816596639698581 12.161865813814408 #
point $-1 42.088045209686094 36.742041574506629 12.1618658138144 #
point $-1 47.361826955381602 34.696787342703274 9.869381543855873 #
coedge $-1 $741 $745 $566 $666 forward $746 $-1 #
edge $-1 $747 -42.105393064477717 $667 -38.254503091677229 $665 $748 forward 7 unknown #
vertex $-1 $666 $749 #
straight-curve $-1 25.658581632326609 34.816596639698581 12.161865813814401 -1 0 0 I I #
vertex $-1 $572 $750 #
straight-curve $-1 -60.546281319620348 0 -12.1618658138144 0 1 0 I I #
straight-curve $-1 0 36.742041574506629 -12.1618658138144 1 0 0 I I #
straight-curve $-1 -60.546281319620348 36.742041574506629 0 0 0 -1 I I #
point $-1 -60.546281319620348 36.742041574506629 12.1618658138144 #
straight-curve $-1 -60.546281319620348 -14.651565386225647 -2.8314250008621116 0 1 0 I I #
point $-1 -60.546281319620348 -21.864219970395958 -2.8314250008621116 #
coedge $-1 $586 $585 $604 $682 reversed $487 $-1 #
edge $-1 $587 2.8314250008621116 $680 12.1618658138144 $601 $607 forward 7 unknown #
point $-1 -60.546281319620348 -36.742041574506629 -2.8314250008621116 #
straight-curve $-1 -60.546281319620348 -21.864219970395958 -0.0015666572374906096 0 0 1 I I #
vertex $-1 $602 $751 #
straight-curve $-1 -60.546281319620348 0 -12.1618658138144 0 1 0 I I #
edge $-1 $605 -60.546281319620348 $680 60.546281319620348 $676 $752 forward 7 unknown #
point $-1 60.546281319620348 -36.742041574506629 -12.1618658138144 #
loop $-1 $-1 $690 $609 #
plane-surface $-1 0 -36.742041574506629 0 0 1 0 0 0 1 forward_v I I I I #
coedge $-1 $612 $703 $613 $689 forward $527 $-1 #
edge $-1 $625 -2.8267250291496397 $693 2.829858343624621 $622 $753 forward 7 unknown #
coedge $-1 $614 $613 $754 $755 reversed $435 $-1 #
edge $-1 $756 -60.546281319620348 $693 60.546281319620348 $686 $757 forward 7 unknown #
coedge $-1 $758 $759 $614 $691 forward $684 $-1 #
edge $-1 $694 -60.546281319620348 $760 60.546281319620348 $690 $761 forward 7 unknown #
coedge $-1 $711 $615 $759 $762 forward $610 $-1 #
vertex $-1 $616 $763 #
vertex $-1 $762 $764 #
straight-curve $-1 60.546281319620348 -14.651565386225647 -2.8314250008621116 0 -1 0 I I #
coedge $-1 $638 $765 $617 $697 forward $639 $-1 #
edge $-1 $704 7.2126545841703109 $701 22.090476188280981 $696 $766 forward 7 unknown #
coedge $-1 $636 $618 $623 $706 reversed $700 $-1 #
coedge $-1 $618 $636 $638 $719 forward $700 $-1 #
loop $-1 $-1 $618 $645 #
vertex $-1 $697 $767 #
straight-curve $-1 0 -36.742041574506629 2.8251583719121491 1 0 0 I I #
coedge $-1 $686 $620 $765 $768 reversed $527 $-1 #
vertex $-1 $697 $769 #
straight-curve $-1 0 -21.864219970395958 2.8251583719121491 -1 0 0 I I #
edge $-1 $643 -12.1618658138144 $624 -2.8251583719121491 $623 $770 forward 7 unknown #
point $-1 60.546281319620348 -36.742041574506629 2.8251583719121491 #
point $-1 60.546281319620348 -21.864219970395958 2.8251583719121491 #
coedge $-1 $723 $771 $627 $710 forward $646 $-1 #
edge $-1 $716 -60.546281319620348 $712 60.546281319620348 $627 $772 forward 7 unknown #
coedge $-1 $628 $692 $723 $773 reversed $610 $-1 #
vertex $-1 $773 $774 #
straight-curve $-1 60.546281319620348 36.742041574506629 0 0 0 -1 I I #
point $-1 60.546281319620348 36.742041574506629 8.8268972404036479 #
coedge $-1 $775 $632 $771 $776 reversed $639 $-1 #
vertex $-1 $710 $777 #
straight-curve $-1 -60.546281319620348 36.742041574506629 0 0 0 -1 I I #
straight-curve $-1 0 -36.742041574506629 12.1618658138144 1 0 0 I I #
edge $-1 $640 -12.1618658138144 $701 -2.8251583719121491 $638 $778 forward 7 unknown #
face $-1 $-1 $639 $18 $-1 $779 reversed single #
point $-1 -60.546281319620348 -36.742041574506629 12.1618658138144 #
point $-1 60.546281319620348 -36.742041574506629 12.1618658138144 #
coedge $-1 $780 $709 $711 $773 forward $646 $-1 #
face $-1 $781 $746 $19 $-1 $782 reversed single #
loop $-1 $-1 $783 $648 #
plane-surface $-1 0 -21.864219970395958 -0.0031333144749812192 0 -1 0 0 0 -1 forward_v I I I I #
coedge $-1 $784 $785 $786 $787 reversed $649 $-1 #
coedge $-1 $788 $651 $789 $790 reversed $552 $-1 #
coedge $-1 $651 $788 $791 $792 reversed $552 $-1 #
coedge $-1 $793 $794 $651 $731 forward $746 $-1 #
edge $-1 $795 -22.090476188280981 $796 -7.2126545841703109 $730 $797 forward 7 unknown #
coedge $-1 $798 $652 $745 $799 forward $454 $-1 #
edge $-1 $655 16.429463577359485 $747 34.88769968729374 $652 $800 forward 7 unknown #
coedge $-1 $653 $798 $801 $802 reversed $454 $-1 #
point $-1 42.088045209686094 36.742041574506629 8.8268972404036532 #
coedge $-1 $660 $658 $803 $804 forward $560 $-1 #
coedge $-1 $801 $805 $658 $738 reversed $806 $-1 #
edge $-1 $739 -36.742041574506629 $807 36.742041574506629 $737 $808 forward 7 unknown #
vertex $-1 $659 $809 #
straight-curve $-1 0 36.742041574506629 12.1618658138144 -1 0 0 I I #
coedge $-1 $794 $665 $660 $742 reversed $746 $-1 #
edge $-1 $810 -36.742041574506629 $667 34.816596639698581 $741 $811 forward 7 unknown #
face $-1 $812 $813 $19 $-1 $814 reversed single #
plane-surface $-1 0 0 12.1618658138144 0 0 1 1 0 0 forward_v I I I I #
coedge $-1 $665 $815 $732 $799 reversed $746 $-1 #
loop $-1 $-1 $665 $724 #
vertex $-1 $799 $816 #
straight-curve $-1 60.546281319620348 15.689345606373626 45.291237596257126 0 -0.49999998660252726 0.86602541151947299 I I #
point $-1 60.546281319620348 34.816596639698581 12.1618658138144 #
point $-1 -60.546281319620348 36.742041574506629 -12.1618658138144 #
point $-1 -60.546281319620348 -36.742041574506629 -12.1618658138144 #
straight-curve $-1 0 -36.742041574506629 -12.1618658138144 -1 0 0 I I #
straight-curve $-1 60.546281319620348 -21.864219970395958 -0.0015666572374906096 0 0 -1 I I #
coedge $-1 $765 $775 $688 $755 forward $639 $-1 #
edge $-1 $760 -22.090476188280981 $756 -7.2126545841703109 $754 $817 forward 7 unknown #
vertex $-1 $755 $818 #
straight-curve $-1 0 -21.864219970395958 -2.8314250008621116 1 0 0 I I #
coedge $-1 $819 $690 $775 $820 forward $684 $-1 #
coedge $-1 $690 $819 $692 $762 reversed $684 $-1 #
vertex $-1 $820 $821 #
straight-curve $-1 0 -36.742041574506629 -2.8314250008621116 -1 0 0 I I #
edge $-1 $694 2.8314250008621116 $822 12.1618658138144 $692 $770 forward 7 unknown #
point $-1 60.546281319620348 -21.864219970395958 -2.8314250008621116 #
point $-1 60.546281319620348 -36.742041574506629 -2.8314250008621116 #
coedge $-1 $696 $754 $703 $768 forward $639 $-1 #
straight-curve $-1 -60.546281319620348 -14.651565386225647 2.8251583719121491 0 -1 0 I I #
point $-1 -60.546281319620348 -36.742041574506629 2.8251583719121491 #
edge $-1 $756 -2.829858343624621 $704 2.8267250291496397 $765 $823 forward 7 unknown #
point $-1 -60.546281319620348 -21.864219970395958 2.8251583719121491 #
straight-curve $-1 60.546281319620348 -36.742041574506629 0 0 0 -1 I I #
coedge $-1 $709 $780 $715 $776 forward $646 $-1 #
straight-curve $-1 0 36.742041574506629 -12.1618658138144 1 0 0 I I #
edge $-1 $712 -36.742041574506629 $822 36.742041574506629 $711 $824 forward 7 unknown #
point $-1 60.546281319620348 36.742041574506629 -12.1618658138144 #
coedge $-1 $754 $715 $758 $820 reversed $639 $-1 #
edge $-1 $825 -36.742041574506629 $716 36.742041574506629 $715 $826 forward 7 unknown #
point $-1 -60.546281319620348 36.742041574506629 -12.1618658138144 #
straight-curve $-1 -60.546281319620348 -36.742041574506629 0 0 0 -1 I I #
plane-surface $-1 -60.546281319620348 0 0 1 0 0 0 0 -1 forward_v I I I I #
coedge $-1 $771 $723 $819 $827 forward $646 $-1 #
face $-1 $661 $828 $19 $-1 $829 reversed single #
plane-surface $-1 60.546281319620348 0 0 -1 0 0 0 0 1 forward_v I I I I #
coedge $-1 $791 $830 $793 $831 reversed $725 $-1 #
coedge $-1 $832 $727 $830 $833 reversed $649 $-1 #
coedge $-1 $727 $832 $834 $835 reversed $649 $-1 #
coedge $-1 $836 $793 $727 $787 forward $746 $-1 #
edge $-1 $837 7.2126545841703109 $838 22.090476188280981 $786 $839 forward 7 unknown #
coedge $-1 $729 $728 $840 $841 reversed $552 $-1 #
coedge $-1 $842 $843 $728 $790 forward $844 $-1 #
edge $-1 $845 -60.546281319620348 $795 60.546281319620348 $789 $846 forward 7 unknown #
coedge $-1 $847 $783 $729 $792 forward $725 $-1 #
edge $-1 $796 -60.546281319620348 $848 60.546281319620348 $791 $849 forward 7 unknown #
coedge $-1 $786 $730 $783 $831 forward $746 $-1 #
coedge $-1 $730 $741 $842 $850 forward $746 $-1 #
vertex $-1 $790 $851 #
vertex $-1 $731 $852 #
straight-curve $-1 60.546281319620348 -14.651565386225647 2.8251583719121491 0 1 0 I I #
coedge $-1 $734 $732 $853 $854 reversed $454 $-1 #
edge $-1 $747 -8.8268972404036479 $855 12.1618658138144 $745 $856 forward 7 unknown #
straight-curve $-1 25.658581632326609 36.742041574506629 8.8268972404036425 1 0 0 I I #
coedge $-1 $857 $737 $734 $802 forward $806 $-1 #
edge $-1 $739 -12.1618658138144 $858 12.1618658138144 $734 $859 forward 7 unknown #
coedge $-1 $843 $842 $736 $804 reversed $844 $-1 #
edge $-1 $807 -60.546281319620348 $810 60.546281319620348 $803 $860 forward 7 unknown #
coedge $-1 $737 $840 $843 $861 reversed $806 $-1 #
loop $-1 $-1 $840 $862 #
vertex $-1 $738 $863 #
straight-curve $-1 -60.546281319620348 0 12.1618658138144 0 -1 0 I I #
point $-1 -60.546281319620348 36.742041574506629 12.1618658138144 #
vertex $-1 $742 $864 #
straight-curve $-1 60.546281319620348 0 12.1618658138144 0 1 0 I I #
face $-1 $862 $844 $19 $-1 $829 reversed single #
loop $-1 $-1 $865 $743 #
plane-surface $-1 0 0 -12.1618658138144 0 0 1 1 0 0 forward_v I I I I #
coedge $-1 $745 $836 $865 $866 reversed $746 $-1 #
point $-1 60.546281319620348 36.742041574506629 8.8268972404036479 #
straight-curve $-1 -60.546281319620348 -14.651565386225647 -2.8314250008621116 0 1 0 I I #
point $-1 -60.546281319620348 -21.864219970395958 -2.8314250008621116 #
coedge $-1 $759 $758 $780 $827 reversed $684 $-1 #
edge $-1 $760 2.8314250008621116 $825 12.1618658138144 $775 $778 forward 7 unknown #
point $-1 -60.546281319620348 -36.742041574506629 -2.8314250008621116 #
vertex $-1 $762 $867 #
straight-curve $-1 -60.546281319620348 -21.864219970395958 -0.0015666572374906096 0 0 1 I I #
straight-curve $-1 60.546281319620348 0 -12.1618658138144 0 -1 0 I I #
vertex $-1 $776 $868 #
straight-curve $-1 -60.546281319620348 0 -12.1618658138144 0 1 0 I I #
edge $-1 $822 -60.546281319620348 $825 60.546281319620348 $819 $869 forward 7 unknown #
loop $-1 $-1 $834 $781 #
plane-surface $-1 0 -36.742041574506629 0 0 1 0 0 0 1 forward_v I I I I #
coedge $-1 $783 $847 $784 $833 forward $725 $-1 #
edge $-1 $796 -2.8267250291496397 $837 2.829858343624621 $793 $870 forward 7 unknown #
coedge $-1 $785 $784 $871 $872 reversed $649 $-1 #
edge $-1 $873 -60.546281319620348 $837 60.546281319620348 $830 $874 forward 7 unknown #
coedge $-1 $875 $876 $785 $835 forward $828 $-1 #
edge $-1 $838 -60.546281319620348 $877 60.546281319620348 $834 $878 forward 7 unknown #
coedge $-1 $815 $786 $876 $879 forward $746 $-1 #
vertex $-1 $787 $880 #
vertex $-1 $879 $881 #
straight-curve $-1 60.546281319620348 -14.651565386225647 -2.8314250008621116 0 -1 0 I I #
coedge $-1 $805 $882 $788 $841 forward $806 $-1 #
edge $-1 $848 7.2126545841703109 $845 22.090476188280981 $840 $883 forward 7 unknown #
coedge $-1 $803 $789 $794 $850 reversed $844 $-1 #
coedge $-1 $789 $803 $805 $861 forward $844 $-1 #
loop $-1 $-1 $789 $812 #
vertex $-1 $841 $884 #
straight-curve $-1 0 -36.742041574506629 2.8251583719121491 1 0 0 I I #
coedge $-1 $830 $791 $882 $885 reversed $725 $-1 #
vertex $-1 $841 $886 #
straight-curve $-1 0 -21.864219970395958 2.8251583719121491 -1 0 0 I I #
edge $-1 $810 -12.1618658138144 $795 -2.8251583719121491 $794 $887 forward 7 unknown #
point $-1 60.546281319620348 -36.742041574506629 2.8251583719121491 #
point $-1 60.546281319620348 -21.864219970395958 2.8251583719121491 #
coedge $-1 $865 $888 $798 $854 forward $813 $-1 #
edge $-1 $858 -60.546281319620348 $855 60.546281319620348 $798 $889 forward 7 unknown #
vertex $-1 $866 $890 #
straight-curve $-1 60.546281319620348 36.742041574506629 0 0 0 -1 I I #
coedge $-1 $891 $801 $888 $892 reversed $806 $-1 #
vertex $-1 $854 $893 #
straight-curve $-1 -60.546281319620348 36.742041574506629 0 0 0 -1 I I #
straight-curve $-1 0 -36.742041574506629 12.1618658138144 1 0 0 I I #
edge $-1 $807 -12.1618658138144 $845 -2.8251583719121491 $805 $894 forward 7 unknown #
face $-1 $-1 $806 $19 $-1 $895 reversed single #
point $-1 -60.546281319620348 -36.742041574506629 12.1618658138144 #
point $-1 60.546281319620348 -36.742041574506629 12.1618658138144 #
coedge $-1 $896 $853 $815 $866 forward $813 $-1 #
edge $-1 $855 -36.742041574506629 $897 36.742041574506629 $815 $898 forward 7 unknown #
point $-1 60.546281319620348 -36.742041574506629 -12.1618658138144 #
point $-1 -60.546281319620348 -36.742041574506629 -12.1618658138144 #
straight-curve $-1 0 -36.742041574506629 -12.1618658138144 -1 0 0 I I #
straight-curve $-1 60.546281319620348 -21.864219970395958 -0.0015666572374906096 0 0 -1 I I #
coedge $-1 $882 $891 $832 $872 forward $806 $-1 #
edge $-1 $877 -22.090476188280981 $873 -7.2126545841703109 $871 $899 forward 7 unknown #
vertex $-1 $872 $900 #
straight-curve $-1 0 -21.864219970395958 -2.8314250008621116 1 0 0 I I #
coedge $-1 $901 $834 $891 $902 forward $828 $-1 #
coedge $-1 $834 $901 $836 $879 reversed $828 $-1 #
vertex $-1 $902 $903 #
straight-curve $-1 0 -36.742041574506629 -2.8314250008621116 -1 0 0 I I #
edge $-1 $838 2.8314250008621116 $897 12.1618658138144 $836 $887 forward 7 unknown #
point $-1 60.546281319620348 -21.864219970395958 -2.8314250008621116 #
point $-1 60.546281319620348 -36.742041574506629 -2.8314250008621116 #
coedge $-1 $840 $871 $847 $885 forward $806 $-1 #
straight-curve $-1 -60.546281319620348 -14.651565386225647 2.8251583719121491 0 -1 0 I I #
point $-1 -60.546281319620348 -36.742041574506629 2.8251583719121491 #
edge $-1 $873 -2.829858343624621 $848 2.8267250291496397 $882 $904 forward 7 unknown #
point $-1 -60.546281319620348 -21.864219970395958 2.8251583719121491 #
straight-curve $-1 60.546281319620348 -36.742041574506629 0 0 0 -1 I I #
coedge $-1 $853 $896 $857 $892 forward $813 $-1 #
straight-curve $-1 0 36.742041574506629 -12.1618658138144 1 0 0 I I #
point $-1 60.546281319620348 36.742041574506629 -12.1618658138144 #
coedge $-1 $871 $857 $875 $902 reversed $806 $-1 #
edge $-1 $905 -36.742041574506629 $858 36.742041574506629 $857 $906 forward 7 unknown #
point $-1 -60.546281319620348 36.742041574506629 -12.1618658138144 #
straight-curve $-1 -60.546281319620348 -36.742041574506629 0 0 0 -1 I I #
plane-surface $-1 -60.546281319620348 0 0 1 0 0 0 0 -1 forward_v I I I I #
coedge $-1 $888 $865 $901 $907 forward $813 $-1 #
vertex $-1 $879 $908 #
straight-curve $-1 60.546281319620348 0 -12.1618658138144 0 -1 0 I I #
straight-curve $-1 -60.546281319620348 -14.651565386225647 -2.8314250008621116 0 1 0 I I #
point $-1 -60.546281319620348 -21.864219970395958 -2.8314250008621116 #
coedge $-1 $876 $875 $896 $907 reversed $828 $-1 #
edge $-1 $877 2.8314250008621116 $905 12.1618658138144 $891 $894 forward 7 unknown #
point $-1 -60.546281319620348 -36.742041574506629 -2.8314250008621116 #
straight-curve $-1 -60.546281319620348 -21.864219970395958 -0.0015666572374906096 0 0 1 I I #
vertex $-1 $892 $909 #
straight-curve $-1 -60.546281319620348 0 -12.1618658138144 0 1 0 I I #
edge $-1 $897 -60.546281319620348 $905 60.546281319620348 $901 $910 forward 7 unknown #
point $-1 60.546281319620348 -36.742041574506629 -12.1618658138144 #
point $-1 -60.546281319620348 -36.742041574506629 -12.1618658138144 #
straight-curve $-1 0 -36.742041574506629 -12.1618658138144 -1 0 0 I I #
End-of-ACIS-data 