500 0 4 0           
7 Unknown 11 ACIS 5.0 NT 24 Thu Mar 25 17:26:46 1999 
-1 9.9999999999999995e-007 1e-010 
body $-1 $4 $-1 $5 #
body $-1 $6 $-1 $7 #
body $-1 $8 $-1 $9 #
body $-1 $10 $-1 $11 #
lump $-1 $-1 $12 $0 #
transform $-1 1 0 0 0 1 0 0 0 1 45.387127292703028 29.175084223174082 11.700573726162084 1 rotate no_reflect no_shear #
lump $-1 $-1 $13 $1 #
transform $-1 1 0 0 0 1 0 0 0 1 45.387127292703028 29.175084223174082 11.700573726162084 1 rotate no_reflect no_shear #
lump $-1 $-1 $14 $2 #
transform $-1 1 0 0 0 1 0 0 0 1 45.387127292703028 29.175084223174082 11.700573726162084 1 rotate no_reflect no_shear #
lump $-1 $-1 $15 $3 #
transform $-1 1 0 0 0 1 0 0 0 1 45.387127292703028 29.175084223174082 11.700573726162084 1 rotate no_reflect no_shear #
shell $-1 $-1 $-1 $16 $-1 $4 #
shell $-1 $-1 $-1 $17 $-1 $6 #
shell $-1 $-1 $-1 $18 $-1 $8 #
shell $-1 $-1 $-1 $19 $-1 $10 #
face $-1 $20 $21 $12 $-1 $22 forward single #
face $-1 $23 $24 $13 $-1 $25 reversed single #
face $-1 $26 $27 $14 $-1 $28 forward single #
face $-1 $29 $30 $15 $-1 $31 reversed single #
face $-1 $32 $33 $12 $-1 $34 reversed single #
loop $-1 $-1 $35 $16 #
plane-surface $-1 0 0 11.700573726162084 0 0 1 1 0 0 forward_v I I I I #
face $-1 $36 $37 $13 $-1 $38 forward single #
loop $-1 $-1 $39 $17 #
plane-surface $-1 -37.833727957106035 0 -7.5204761843304055 0 0 1 1 0 0 forward_v I I I I #
face $-1 $40 $41 $14 $-1 $42 forward single #
loop $-1 $-1 $43 $18 #
plane-surface $-1 36.320287723747342 48.408366480214227 113.47820276274129 1 0 0 0 -0.68199836817093118 -0.7313536940579346 forward_v I I I I #
face $-1 $44 $45 $15 $-1 $46 reversed single #
loop $-1 $47 $48 $19 #
cone-surface $-1 40.853707508225185 25.91140642274647 8.5310401816866666 0 -0.68199836817093118 -0.7313536940579346 1.5 0 0 1 I I 0 1 1.5 forward I I I I #
face $-1 $49 $50 $12 $-1 $51 reversed single #
loop $-1 $-1 $52 $20 #
plane-surface $-1 0 0 -11.700573726162084 0 0 1 1 0 0 forward_v I I I I #
coedge $-1 $53 $54 $55 $56 forward $21 $-1 #
face $-1 $57 $58 $13 $-1 $59 reversed single #
loop $-1 $-1 $60 $23 #
plane-surface $-1 -30.280328621509042 0 -9.6105249552462446 -1 0 0 0 0 1 forward_v I I I I #
coedge $-1 $61 $62 $63 $64 reversed $24 $-1 #
face $-1 $65 $66 $14 $-1 $67 forward single #
loop $-1 $-1 $68 $26 #
plane-surface $-1 40.853707508225185 -13.499527018965367 47.090116346349163 0 0.68199836817093118 0.7313536940579346 1 0 0 forward_v I I I I #
coedge $-1 $69 $70 $71 $72 reversed $27 $-1 #
face $-1 $73 $74 $15 $-1 $75 forward single #
loop $-1 $76 $77 $29 #
cone-surface $-1 40.853707508225185 24.498216805055321 7.015579888028455 0 -0.68199836817093118 -0.7313536940579346 0.75 0 0 1 I I -0.70710678118654757 0.70710678118654757 0.75 forward I I I I #
loop $-1 $-1 $78 $19 #
coedge $-1 $48 $48 $79 $80 reversed $30 $-1 #
face $-1 $81 $82 $12 $-1 $83 reversed single #
loop $-1 $-1 $84 $32 #
plane-surface $-1 0 -29.175084223174082 0 0 1 0 0 0 1 forward_v I I I I #
coedge $-1 $85 $86 $87 $88 forward $33 $-1 #
coedge $-1 $89 $35 $90 $91 forward $21 $-1 #
coedge $-1 $35 $89 $92 $93 forward $21 $-1 #
coedge $-1 $94 $95 $35 $56 reversed $96 $-1 #
edge $-1 $97 -29.175084223174082 $98 29.175084223174082 $55 $99 forward 7 unknown #
face $-1 $100 $101 $13 $-1 $102 reversed single #
loop $-1 $-1 $103 $36 #
plane-surface $-1 -45.387127292703028 0 0 1 0 0 0 0 -1 forward_v I I I I #
coedge $-1 $63 $104 $105 $106 reversed $37 $-1 #
coedge $-1 $107 $39 $108 $109 reversed $24 $-1 #
coedge $-1 $39 $107 $110 $111 reversed $24 $-1 #
coedge $-1 $112 $60 $39 $64 forward $37 $-1 #
edge $-1 $113 -29.175084223174082 $114 29.175084223174082 $63 $115 forward 7 unknown #
face $-1 $116 $117 $14 $-1 $118 reversed single #
loop $-1 $-1 $119 $40 #
plane-surface $-1 0 0 11.700573726162084 0 0 1 1 0 0 forward_v I I I I #
coedge $-1 $120 $121 $119 $122 reversed $41 $-1 #
coedge $-1 $70 $43 $121 $123 forward $27 $-1 #
coedge $-1 $43 $69 $124 $125 reversed $27 $-1 #
coedge $-1 $126 $119 $43 $72 forward $66 $-1 #
edge $-1 $127 0.24692706533764408 $128 4.9709009830669686 $71 $129 forward 7 unknown #
face $-1 $130 $131 $15 $-1 $132 forward single #
loop $-1 $-1 $133 $44 #
plane-surface $-1 36.320287723747342 48.408366480214227 113.47820276274129 1 0 0 0 -0.68199836817093118 -0.7313536940579346 forward_v I I I I #
loop $-1 $-1 $134 $29 #
coedge $-1 $77 $77 $78 $135 forward $45 $-1 #
coedge $-1 $78 $78 $77 $135 reversed $47 $-1 #
coedge $-1 $79 $79 $48 $80 forward $131 $-1 #
edge $-1 $136 1.8490904095475431e-015 $136 6.2831853071796022 $79 $137 forward 7 unknown #
face $-1 $138 $139 $12 $-1 $140 reversed single #
loop $-1 $-1 $141 $49 #
plane-surface $-1 -45.387127292703028 0 0 1 0 0 0 0 -1 forward_v I I I I #
coedge $-1 $142 $92 $143 $144 forward $50 $-1 #
coedge $-1 $145 $52 $142 $146 forward $33 $-1 #
coedge $-1 $52 $145 $147 $148 forward $33 $-1 #
coedge $-1 $95 $94 $52 $88 reversed $96 $-1 #
edge $-1 $149 -29.175084223174082 $150 29.175084223174082 $87 $151 forward 7 unknown #
coedge $-1 $54 $53 $152 $153 forward $21 $-1 #
coedge $-1 $154 $155 $53 $91 reversed $139 $-1 #
edge $-1 $98 -45.387127292703028 $156 45.387127292703028 $90 $157 forward 7 unknown #
coedge $-1 $84 $158 $54 $93 reversed $50 $-1 #
edge $-1 $159 -45.387127292703028 $97 45.387127292703028 $92 $160 forward 7 unknown #
coedge $-1 $87 $55 $158 $161 forward $96 $-1 #
coedge $-1 $55 $87 $154 $162 reversed $96 $-1 #
loop $-1 $-1 $94 $138 #
vertex $-1 $56 $163 #
vertex $-1 $56 $164 #
straight-curve $-1 45.387127292703028 0 11.700573726162084 0 1 0 I I #
face $-1 $165 $166 $13 $-1 $167 forward single #
loop $-1 $-1 $108 $57 #
plane-surface $-1 0 -29.175084223174082 0 0 1 0 0 0 1 forward_v I I I I #
coedge $-1 $168 $169 $107 $170 forward $58 $-1 #
coedge $-1 $60 $112 $171 $172 reversed $37 $-1 #
coedge $-1 $173 $108 $60 $106 forward $101 $-1 #
edge $-1 $113 2.7152137067072832 $174 6.8953112485389614 $105 $175 forward 7 unknown #
coedge $-1 $62 $61 $103 $170 reversed $24 $-1 #
coedge $-1 $105 $176 $61 $109 forward $101 $-1 #
edge $-1 $177 -26.47026331415001 $113 -11.363464642956025 $108 $178 forward 7 unknown #
coedge $-1 $179 $180 $62 $111 forward $181 $-1 #
edge $-1 $114 11.363464642956025 $182 26.47026331415001 $110 $183 forward 7 unknown #
coedge $-1 $104 $63 $180 $184 reversed $37 $-1 #
vertex $-1 $109 $185 #
vertex $-1 $111 $186 #
straight-curve $-1 -30.280328621509042 0 -7.5204761843304055 0 1 0 I I #
face $-1 $187 $188 $14 $-1 $189 reversed single #
loop $-1 $-1 $124 $65 #
plane-surface $-1 0 29.175084223174082 0 0 -1 0 0 0 -1 forward_v I I I I #
coedge $-1 $71 $190 $68 $122 forward $66 $-1 #
coedge $-1 $191 $68 $192 $193 reversed $41 $-1 #
coedge $-1 $68 $191 $69 $123 reversed $41 $-1 #
edge $-1 $194 -24.960273538590435 $127 -15.893433969634749 $119 $195 forward 7 unknown #
edge $-1 $127 51.890949116343485 $196 58.350168446348142 $69 $197 forward 7 unknown #
coedge $-1 $198 $199 $70 $125 forward $117 $-1 #
edge $-1 $128 45.038527655208561 $196 49.443704697929874 $124 $200 forward 7 unknown #
coedge $-1 $201 $71 $199 $202 forward $66 $-1 #
vertex $-1 $122 $203 #
vertex $-1 $202 $204 #
straight-curve $-1 36.320287723747342 24.204183240107113 11.700573726162084 0 1 0 I I #
face $-1 $205 $206 $15 $-1 $207 forward single #
loop $-1 $208 $79 $73 #
plane-surface $-1 40.853707508225185 -13.499527018965367 47.090116346349163 0 0.68199836817093118 0.7313536940579346 1 0 0 forward_v I I I I #
coedge $-1 $209 $210 $211 $212 reversed $74 $-1 #
coedge $-1 $134 $134 $-1 $213 forward $76 $-1 #
edge $-1 $214 0 $214 6.2831853071796004 $77 $215 forward 7 unknown #
vertex $-1 $80 $216 #
ellipse-curve $-1 40.853707508225185 26.813097264309423 9.4979852048014308 0 -0.68199836817093118 -0.7313536940579346 1.5 0 0 1 I I #
face $-1 $-1 $96 $12 $-1 $217 reversed single #
loop $-1 $-1 $154 $81 #
plane-surface $-1 0 29.175084223174082 0 0 -1 0 0 0 -1 forward_v I I I I #
coedge $-1 $218 $152 $155 $219 forward $82 $-1 #
coedge $-1 $158 $84 $85 $146 reversed $50 $-1 #
coedge $-1 $152 $218 $84 $144 reversed $82 $-1 #
edge $-1 $159 -11.700573726162084 $220 11.700573726162084 $143 $221 forward 7 unknown #
coedge $-1 $86 $85 $218 $222 forward $33 $-1 #
edge $-1 $150 -45.387127292703028 $220 45.387127292703028 $142 $223 forward 7 unknown #
coedge $-1 $155 $154 $86 $148 reversed $139 $-1 #
edge $-1 $224 -45.387127292703028 $149 45.387127292703028 $147 $225 forward 7 unknown #
vertex $-1 $88 $226 #
vertex $-1 $161 $227 #
straight-curve $-1 45.387127292703028 0 -11.700573726162084 0 -1 0 I I #
coedge $-1 $141 $143 $89 $153 reversed $82 $-1 #
edge $-1 $156 -29.175084223174082 $159 29.175084223174082 $152 $228 forward 7 unknown #
coedge $-1 $147 $90 $95 $162 forward $139 $-1 #
coedge $-1 $90 $147 $141 $219 reversed $139 $-1 #
vertex $-1 $91 $229 #
straight-curve $-1 0 29.175084223174082 11.700573726162084 -1 0 0 I I #
coedge $-1 $92 $142 $94 $161 reversed $50 $-1 #
vertex $-1 $153 $230 #
straight-curve $-1 0 -29.175084223174082 11.700573726162084 1 0 0 I I #
edge $-1 $97 -11.700573726162084 $150 11.700573726162084 $94 $231 forward 7 unknown #
edge $-1 $98 -11.700573726162084 $149 11.700573726162084 $95 $232 forward 7 unknown #
point $-1 45.387127292703028 -29.175084223174082 11.700573726162084 #
point $-1 45.387127292703028 29.175084223174082 11.700573726162084 #
face $-1 $233 $234 $13 $-1 $235 reversed single #
loop $-1 $-1 $236 $100 #
plane-surface $-1 0 0 11.700573726162084 0 0 1 1 0 0 forward_v I I I I #
coedge $-1 $237 $103 $176 $238 reversed $58 $-1 #
coedge $-1 $103 $237 $179 $239 forward $58 $-1 #
edge $-1 $182 -29.175084223174082 $177 29.175084223174082 $103 $240 forward 7 unknown #
coedge $-1 $241 $242 $104 $172 forward $234 $-1 #
edge $-1 $174 -29.175084223174082 $243 29.175084223174082 $171 $244 forward 7 unknown #
coedge $-1 $245 $105 $242 $246 reversed $101 $-1 #
vertex $-1 $106 $247 #
straight-curve $-1 -30.280328621509042 -29.175084223174082 -4.8052624776231223 0 0 -1 I I #
coedge $-1 $108 $248 $168 $238 forward $101 $-1 #
vertex $-1 $109 $249 #
straight-curve $-1 -18.916863978553017 -29.175084223174082 -7.5204761843304055 1 0 0 I I #
coedge $-1 $250 $110 $169 $239 reversed $181 $-1 #
coedge $-1 $110 $251 $112 $184 forward $181 $-1 #
loop $-1 $-1 $110 $233 #
vertex $-1 $170 $252 #
straight-curve $-1 -18.916863978553017 29.175084223174082 -7.5204761843304055 -1 0 0 I I #
edge $-1 $243 -6.8953112485389614 $114 -2.7152137067072832 $180 $253 forward 7 unknown #
point $-1 -30.280328621509042 -29.175084223174082 -7.5204761843304055 #
point $-1 -30.280328621509042 29.175084223174082 -7.5204761843304055 #
face $-1 $254 $255 $14 $-1 $256 forward single #
loop $-1 $-1 $257 $116 #
plane-surface $-1 -37.833727957106035 0 -7.5204761843304055 0 0 1 1 0 0 forward_v I I I I #
coedge $-1 $119 $258 $259 $260 forward $66 $-1 #
coedge $-1 $121 $120 $198 $261 reversed $41 $-1 #
coedge $-1 $259 $262 $120 $193 forward $263 $-1 #
edge $-1 $264 -37.356012717075821 $194 -30.896793387071163 $192 $265 forward 7 unknown #
vertex $-1 $193 $266 #
straight-curve $-1 20.426853754112592 24.451110305444757 11.700573726162084 -1 0 0 I I #
vertex $-1 $261 $267 #
straight-curve $-1 36.320287723747342 -13.499527018965367 47.090116346349163 0 0.7313536940579346 -0.68199836817093118 I I #
coedge $-1 $268 $124 $191 $261 forward $117 $-1 #
coedge $-1 $124 $269 $126 $202 reversed $117 $-1 #
straight-curve $-1 36.320287723747342 29.175084223174082 56.739101381370645 0 0 -1 I I #
coedge $-1 $258 $126 $270 $271 forward $66 $-1 #
edge $-1 $128 -36.320287723747342 $272 45.387127292703028 $199 $273 forward 7 unknown #
point $-1 36.320287723747342 24.451110305444757 11.700573726162084 #
point $-1 36.320287723747342 29.175084223174082 11.700573726162084 #
face $-1 $274 $275 $15 $-1 $276 reversed single #
loop $-1 $-1 $277 $130 #
plane-surface $-1 0 0 11.700573726162084 0 0 1 1 0 0 forward_v I I I I #
loop $-1 $-1 $278 $73 #
coedge $-1 $210 $133 $279 $280 forward $74 $-1 #
coedge $-1 $133 $209 $281 $282 reversed $74 $-1 #
coedge $-1 $283 $277 $133 $212 forward $206 $-1 #
edge $-1 $284 0.24692706533764408 $285 4.9709009830669686 $211 $286 forward 7 unknown #
edge $-1 $287 1 $287 0 $134 $-1 forward 7 unknown #
vertex $-1 $135 $288 #
ellipse-curve $-1 40.853707508225185 25.009715581183521 7.5640951585719058 0 0.68199836817093118 0.7313536940579346 1.5 0 0 1 I I #
point $-1 42.353707508225185 26.813097264309416 9.4979852048014273 #
plane-surface $-1 45.387127292703028 0 0 -1 0 0 0 0 1 forward_v I I I I #
coedge $-1 $143 $141 $145 $222 reversed $82 $-1 #
edge $-1 $156 -11.700573726162084 $224 11.700573726162084 $155 $289 forward 7 unknown #
vertex $-1 $222 $290 #
straight-curve $-1 -45.387127292703028 -29.175084223174082 0 0 0 -1 I I #
edge $-1 $220 -29.175084223174082 $224 29.175084223174082 $218 $291 forward 7 unknown #
straight-curve $-1 0 -29.175084223174082 -11.700573726162084 -1 0 0 I I #
vertex $-1 $148 $292 #
straight-curve $-1 0 29.175084223174082 -11.700573726162084 1 0 0 I I #
point $-1 45.387127292703028 29.175084223174082 -11.700573726162084 #
point $-1 45.387127292703028 -29.175084223174082 -11.700573726162084 #
straight-curve $-1 -45.387127292703028 0 11.700573726162084 0 -1 0 I I #
point $-1 -45.387127292703028 29.175084223174082 11.700573726162084 #
point $-1 -45.387127292703028 -29.175084223174082 11.700573726162084 #
straight-curve $-1 45.387127292703028 -29.175084223174082 0 0 0 -1 I I #
straight-curve $-1 45.387127292703028 29.175084223174082 0 0 0 -1 I I #
face $-1 $293 $181 $13 $-1 $294 reversed single #
loop $-1 $-1 $171 $165 #
plane-surface $-1 0 0 -11.700573726162084 0 0 1 1 0 0 forward_v I I I I #
coedge $-1 $295 $296 $297 $298 forward $166 $-1 #
coedge $-1 $169 $168 $299 $300 reversed $58 $-1 #
edge $-1 $301 -11.700573726162084 $177 7.5204761843304055 $168 $302 forward 7 unknown #
edge $-1 $303 -11.700573726162084 $182 7.5204761843304055 $179 $304 forward 7 unknown #
straight-curve $-1 -45.387127292703028 0 -7.5204761843304055 0 -1 0 I I #
coedge $-1 $305 $171 $251 $306 forward $234 $-1 #
coedge $-1 $171 $305 $173 $246 forward $234 $-1 #
vertex $-1 $306 $307 #
straight-curve $-1 -30.280328621509042 0 -11.700573726162084 0 1 0 I I #
coedge $-1 $248 $173 $308 $309 reversed $101 $-1 #
edge $-1 $310 -45.387127292703028 $174 30.280328621509042 $173 $311 forward 7 unknown #
point $-1 -30.280328621509042 -29.175084223174082 -11.700573726162084 #
coedge $-1 $176 $245 $296 $312 reversed $101 $-1 #
point $-1 -45.387127292703028 -29.175084223174082 -7.5204761843304055 #
coedge $-1 $313 $179 $295 $314 reversed $181 $-1 #
coedge $-1 $180 $313 $241 $306 reversed $181 $-1 #
point $-1 -45.387127292703028 29.175084223174082 -7.5204761843304055 #
straight-curve $-1 -30.280328621509042 29.175084223174082 -4.8052624776231223 0 0 1 I I #
face $-1 $315 $316 $14 $-1 $317 reversed single #
loop $-1 $-1 $318 $187 #
plane-surface $-1 -30.280328621509042 0 -9.6105249552462446 -1 0 0 0 0 1 forward_v I I I I #
coedge $-1 $319 $320 $321 $322 reversed $188 $-1 #
coedge $-1 $190 $201 $323 $324 forward $66 $-1 #
coedge $-1 $325 $192 $190 $260 reversed $263 $-1 #
edge $-1 $326 -29.175084223174082 $194 24.451110305444757 $259 $327 forward 7 unknown #
edge $-1 $196 15.893433969634749 $264 24.960273538590435 $198 $328 forward 7 unknown #
coedge $-1 $192 $329 $268 $330 reversed $263 $-1 #
loop $-1 $-1 $192 $331 #
vertex $-1 $330 $332 #
straight-curve $-1 45.387127292703028 1.8546263272654979 32.772136397859036 0 -0.7313536940579346 0.68199836817093118 I I #
point $-1 45.387127292703028 24.451110305444757 11.700573726162084 #
point $-1 36.320287723747342 29.175084223174082 7.2953966834407709 #
coedge $-1 $333 $198 $262 $330 forward $117 $-1 #
coedge $-1 $199 $334 $335 $336 reversed $117 $-1 #
coedge $-1 $335 $337 $201 $271 reversed $316 $-1 #
edge $-1 $272 -29.175084223174082 $338 29.175084223174082 $270 $339 forward 7 unknown #
vertex $-1 $202 $340 #
straight-curve $-1 0 29.175084223174082 11.700573726162084 -1 0 0 I I #
face $-1 $341 $342 $15 $-1 $343 reversed single #
loop $-1 $-1 $281 $205 #
plane-surface $-1 0 29.175084223174082 0 0 -1 0 0 0 -1 forward_v I I I I #
coedge $-1 $211 $344 $278 $345 forward $206 $-1 #
coedge $-1 $346 $279 $277 $345 reversed $208 $-1 #
coedge $-1 $278 $347 $209 $280 reversed $208 $-1 #
edge $-1 $284 51.890949116343485 $348 58.350168446348142 $209 $349 forward 7 unknown #
coedge $-1 $350 $351 $210 $282 forward $275 $-1 #
edge $-1 $285 45.038527655208561 $348 49.443704697929874 $281 $352 forward 7 unknown #
coedge $-1 $353 $211 $351 $354 forward $206 $-1 #
vertex $-1 $345 $355 #
vertex $-1 $354 $356 #
straight-curve $-1 36.320287723747342 24.204183240107113 11.700573726162084 0 1 0 I I #
vertex $-1 $213 $357 #
point $-1 42.353707508225185 25.009715581183521 7.5640951585719058 #
straight-curve $-1 -45.387127292703028 29.175084223174082 0 0 0 -1 I I #
point $-1 -45.387127292703028 -29.175084223174082 -11.700573726162084 #
straight-curve $-1 -45.387127292703028 0 -11.700573726162084 0 1 0 I I #
point $-1 -45.387127292703028 29.175084223174082 -11.700573726162084 #
face $-1 $-1 $358 $13 $-1 $359 reversed single #
plane-surface $-1 0 29.175084223174082 0 0 -1 0 0 0 -1 forward_v I I I I #
coedge $-1 $299 $236 $250 $314 forward $166 $-1 #
coedge $-1 $236 $299 $248 $312 forward $166 $-1 #
coedge $-1 $308 $360 $236 $298 reversed $358 $-1 #
edge $-1 $361 -29.175084223174082 $362 29.175084223174082 $297 $363 forward 7 unknown #
coedge $-1 $296 $295 $237 $300 forward $166 $-1 #
edge $-1 $303 -29.175084223174082 $301 29.175084223174082 $237 $364 forward 7 unknown #
vertex $-1 $300 $365 #
straight-curve $-1 -45.387127292703028 -29.175084223174082 0 0 0 -1 I I #
vertex $-1 $314 $366 #
straight-curve $-1 -45.387127292703028 29.175084223174082 0 0 0 -1 I I #
coedge $-1 $242 $241 $367 $368 forward $234 $-1 #
edge $-1 $243 -30.280328621509042 $369 45.387127292703028 $251 $370 forward 7 unknown #
point $-1 -30.280328621509042 29.175084223174082 -11.700573726162084 #
coedge $-1 $367 $297 $245 $309 forward $358 $-1 #
edge $-1 $361 -11.700573726162084 $310 11.700573726162084 $308 $371 forward 7 unknown #
vertex $-1 $309 $372 #
straight-curve $-1 0 -29.175084223174082 -11.700573726162084 -1 0 0 I I #
edge $-1 $301 -45.387127292703028 $361 45.387127292703028 $248 $373 forward 7 unknown #
coedge $-1 $251 $250 $360 $374 forward $181 $-1 #
edge $-1 $362 -45.387127292703028 $303 45.387127292703028 $250 $375 forward 7 unknown #
face $-1 $376 $377 $14 $-1 $378 reversed single #
loop $-1 $-1 $379 $254 #
plane-surface $-1 -45.387127292703028 0 0 1 0 0 0 0 -1 forward_v I I I I #
coedge $-1 $321 $380 $381 $382 reversed $255 $-1 #
coedge $-1 $383 $257 $384 $385 reversed $188 $-1 #
coedge $-1 $257 $383 $334 $386 reversed $188 $-1 #
coedge $-1 $387 $318 $257 $322 forward $255 $-1 #
edge $-1 $388 -29.175084223174082 $389 29.175084223174082 $321 $390 forward 7 unknown #
coedge $-1 $391 $392 $258 $324 reversed $377 $-1 #
edge $-1 $338 -45.387127292703028 $326 45.387127292703028 $323 $393 forward 7 unknown #
coedge $-1 $329 $259 $392 $394 forward $263 $-1 #
vertex $-1 $260 $395 #
straight-curve $-1 45.387127292703028 0 11.700573726162084 0 1 0 I I #
straight-curve $-1 20.426853754112592 29.175084223174078 7.2953966834407709 1 0 0 I I #
coedge $-1 $262 $325 $396 $397 reversed $263 $-1 #
edge $-1 $264 -7.2953966834407709 $398 11.700573726162084 $262 $399 forward 7 unknown #
face $-1 $-1 $263 $14 $-1 $400 reversed single #
point $-1 45.387127292703028 29.175084223174082 7.2953966834407709 #
coedge $-1 $401 $268 $402 $403 reversed $117 $-1 #
coedge $-1 $269 $401 $320 $386 forward $117 $-1 #
coedge $-1 $379 $270 $269 $336 forward $316 $-1 #
edge $-1 $272 -11.700573726162084 $404 7.5204761843304055 $269 $405 forward 7 unknown #
coedge $-1 $270 $379 $391 $406 reversed $316 $-1 #
vertex $-1 $271 $407 #
straight-curve $-1 -45.387127292703028 0 11.700573726162084 0 -1 0 I I #
point $-1 -45.387127292703028 29.175084223174082 11.700573726162084 #
face $-1 $408 $409 $15 $-1 $410 forward single #
loop $-1 $-1 $411 $274 #
plane-surface $-1 -37.833727957106035 0 -7.5204761843304055 0 0 1 1 0 0 forward_v I I I I #
coedge $-1 $277 $412 $413 $414 forward $206 $-1 #
edge $-1 $415 -24.960273538590435 $284 -15.893433969634749 $277 $416 forward 7 unknown #
coedge $-1 $347 $278 $417 $418 reversed $208 $-1 #
coedge $-1 $279 $346 $350 $419 reversed $208 $-1 #
vertex $-1 $419 $420 #
straight-curve $-1 36.320287723747342 -13.499527018965367 47.090116346349163 0 0.7313536940579346 -0.68199836817093118 I I #
coedge $-1 $421 $281 $347 $419 forward $275 $-1 #
coedge $-1 $281 $422 $283 $354 reversed $275 $-1 #
straight-curve $-1 36.320287723747342 29.175084223174082 56.739101381370645 0 0 -1 I I #
coedge $-1 $412 $283 $423 $424 forward $206 $-1 #
edge $-1 $285 -36.320287723747342 $425 45.387127292703028 $351 $426 forward 7 unknown #
point $-1 36.320287723747342 24.451110305444757 11.700573726162084 #
point $-1 36.320287723747342 29.175084223174082 11.700573726162084 #
point $-1 40.853707508225185 23.986718028927122 6.4670646174850042 #
loop $-1 $-1 $308 $293 #
plane-surface $-1 45.387127292703028 0 0 -1 0 0 0 0 1 forward_v I I I I #
coedge $-1 $297 $367 $313 $374 reversed $358 $-1 #
vertex $-1 $298 $427 #
vertex $-1 $298 $428 #
straight-curve $-1 45.387127292703028 0 11.700573726162084 0 1 0 I I #
straight-curve $-1 -45.387127292703028 0 11.700573726162084 0 -1 0 I I #
point $-1 -45.387127292703028 -29.175084223174082 11.700573726162084 #
point $-1 -45.387127292703028 29.175084223174082 11.700573726162084 #
coedge $-1 $360 $308 $305 $368 reversed $358 $-1 #
edge $-1 $369 -29.175084223174082 $310 29.175084223174082 $367 $429 forward 7 unknown #
vertex $-1 $368 $430 #
straight-curve $-1 0 29.175084223174082 -11.700573726162084 1 0 0 I I #
straight-curve $-1 45.387127292703028 -29.175084223174082 0 0 0 -1 I I #
point $-1 45.387127292703028 -29.175084223174082 -11.700573726162084 #
straight-curve $-1 0 -29.175084223174082 11.700573726162084 1 0 0 I I #
edge $-1 $362 -11.700573726162084 $369 11.700573726162084 $360 $431 forward 7 unknown #
straight-curve $-1 0 29.175084223174082 11.700573726162084 -1 0 0 I I #
face $-1 $331 $432 $14 $-1 $433 reversed single #
loop $-1 $-1 $384 $315 #
plane-surface $-1 0 -29.175084223174082 0 0 1 0 0 0 1 forward_v I I I I #
coedge $-1 $337 $335 $383 $434 forward $316 $-1 #
coedge $-1 $318 $387 $435 $436 reversed $255 $-1 #
coedge $-1 $437 $384 $318 $382 forward $377 $-1 #
edge $-1 $388 2.7152137067072832 $438 6.8953112485389614 $381 $439 forward 7 unknown #
coedge $-1 $320 $319 $379 $434 reversed $188 $-1 #
coedge $-1 $381 $391 $319 $385 forward $377 $-1 #
edge $-1 $440 -26.47026331415001 $388 -11.363464642956025 $384 $441 forward 7 unknown #
edge $-1 $389 11.363464642956025 $404 26.47026331415001 $334 $442 forward 7 unknown #
coedge $-1 $380 $321 $401 $443 reversed $255 $-1 #
vertex $-1 $385 $444 #
vertex $-1 $386 $445 #
straight-curve $-1 -30.280328621509042 0 -7.5204761843304055 0 1 0 I I #
coedge $-1 $384 $323 $337 $406 forward $377 $-1 #
coedge $-1 $323 $437 $325 $394 reversed $377 $-1 #
straight-curve $-1 0 -29.175084223174082 11.700573726162084 1 0 0 I I #
edge $-1 $326 -11.700573726162084 $446 11.700573726162084 $325 $447 forward 7 unknown #
point $-1 45.387127292703028 -29.175084223174082 11.700573726162084 #
coedge $-1 $448 $402 $329 $397 forward $432 $-1 #
edge $-1 $398 -29.175084223174082 $446 29.175084223174082 $329 $449 forward 7 unknown #
vertex $-1 $397 $450 #
straight-curve $-1 45.387127292703028 29.175084223174082 0 0 0 -1 I I #
plane-surface $-1 45.387127292703028 0 0 -1 0 0 0 0 1 forward_v I I I I #
coedge $-1 $334 $333 $387 $443 forward $117 $-1 #
coedge $-1 $396 $435 $333 $403 forward $432 $-1 #
edge $-1 $451 -30.280328621509042 $398 45.387127292703028 $333 $452 forward 7 unknown #
vertex $-1 $434 $453 #
straight-curve $-1 -45.387127292703028 29.175084223174082 0 0 0 -1 I I #
edge $-1 $338 -11.700573726162084 $440 7.5204761843304055 $337 $454 forward 7 unknown #
point $-1 -45.387127292703028 -29.175084223174082 11.700573726162084 #
face $-1 $455 $456 $15 $-1 $457 reversed single #
loop $-1 $-1 $458 $341 #
plane-surface $-1 -30.280328621509042 0 -9.6105249552462446 -1 0 0 0 0 1 forward_v I I I I #
coedge $-1 $459 $460 $461 $462 reversed $342 $-1 #
coedge $-1 $344 $353 $463 $464 forward $206 $-1 #
coedge $-1 $465 $417 $344 $414 reversed $466 $-1 #
edge $-1 $467 -29.175084223174082 $415 24.451110305444757 $413 $468 forward 7 unknown #
vertex $-1 $418 $469 #
straight-curve $-1 20.426853754112592 24.451110305444757 11.700573726162084 -1 0 0 I I #
coedge $-1 $413 $470 $346 $418 forward $466 $-1 #
edge $-1 $471 -37.356012717075821 $415 -30.896793387071163 $417 $472 forward 7 unknown #
edge $-1 $348 15.893433969634749 $471 24.960273538590435 $350 $473 forward 7 unknown #
point $-1 36.320287723747342 29.175084223174082 7.2953966834407709 #
coedge $-1 $474 $350 $470 $475 forward $275 $-1 #
coedge $-1 $351 $476 $477 $478 reversed $275 $-1 #
coedge $-1 $477 $479 $353 $424 reversed $456 $-1 #
edge $-1 $425 -29.175084223174082 $480 29.175084223174082 $423 $481 forward 7 unknown #
vertex $-1 $354 $482 #
straight-curve $-1 0 29.175084223174082 11.700573726162084 -1 0 0 I I #
point $-1 45.387127292703028 -29.175084223174082 11.700573726162084 #
point $-1 45.387127292703028 29.175084223174082 11.700573726162084 #
straight-curve $-1 45.387127292703028 0 -11.700573726162084 0 -1 0 I I #
point $-1 45.387127292703028 29.175084223174082 -11.700573726162084 #
straight-curve $-1 45.387127292703028 29.175084223174082 0 0 0 -1 I I #
loop $-1 $-1 $435 $376 #
plane-surface $-1 0 0 -11.700573726162084 0 0 1 1 0 0 forward_v I I I I #
edge $-1 $404 -29.175084223174082 $440 29.175084223174082 $379 $483 forward 7 unknown #
coedge $-1 $402 $448 $380 $436 forward $432 $-1 #
edge $-1 $438 -29.175084223174082 $451 29.175084223174082 $435 $484 forward 7 unknown #
coedge $-1 $392 $381 $448 $485 reversed $377 $-1 #
vertex $-1 $382 $486 #
straight-curve $-1 -30.280328621509042 -29.175084223174082 -4.8052624776231223 0 0 -1 I I #
vertex $-1 $385 $487 #
straight-curve $-1 -18.916863978553017 -29.175084223174082 -7.5204761843304055 1 0 0 I I #
straight-curve $-1 -18.916863978553017 29.175084223174082 -7.5204761843304055 -1 0 0 I I #
edge $-1 $451 -6.8953112485389614 $389 -2.7152137067072832 $401 $488 forward 7 unknown #
point $-1 -30.280328621509042 -29.175084223174082 -7.5204761843304055 #
point $-1 -30.280328621509042 29.175084223174082 -7.5204761843304055 #
vertex $-1 $394 $489 #
straight-curve $-1 45.387127292703028 -29.175084223174082 0 0 0 -1 I I #
coedge $-1 $435 $396 $437 $485 forward $432 $-1 #
straight-curve $-1 45.387127292703028 0 -11.700573726162084 0 -1 0 I I #
point $-1 45.387127292703028 29.175084223174082 -11.700573726162084 #
vertex $-1 $403 $490 #
straight-curve $-1 0 29.175084223174082 -11.700573726162084 1 0 0 I I #
point $-1 -45.387127292703028 29.175084223174082 -7.5204761843304055 #
straight-curve $-1 -45.387127292703028 -29.175084223174082 0 0 0 -1 I I #
face $-1 $491 $492 $15 $-1 $493 reversed single #
loop $-1 $-1 $494 $408 #
plane-surface $-1 -45.387127292703028 0 0 1 0 0 0 0 -1 forward_v I I I I #
coedge $-1 $461 $495 $496 $497 reversed $409 $-1 #
coedge $-1 $498 $411 $499 $500 reversed $342 $-1 #
coedge $-1 $411 $498 $476 $501 reversed $342 $-1 #
coedge $-1 $502 $458 $411 $462 forward $409 $-1 #
edge $-1 $503 -29.175084223174082 $504 29.175084223174082 $461 $505 forward 7 unknown #
coedge $-1 $506 $507 $412 $464 reversed $492 $-1 #
edge $-1 $480 -45.387127292703028 $467 45.387127292703028 $463 $508 forward 7 unknown #
coedge $-1 $509 $413 $507 $510 forward $466 $-1 #
loop $-1 $-1 $417 $511 #
vertex $-1 $414 $512 #
straight-curve $-1 45.387127292703028 0 11.700573726162084 0 1 0 I I #
point $-1 45.387127292703028 24.451110305444757 11.700573726162084 #
coedge $-1 $417 $509 $421 $475 reversed $466 $-1 #
vertex $-1 $475 $513 #
straight-curve $-1 45.387127292703028 1.8546263272654979 32.772136397859036 0 -0.7313536940579346 0.68199836817093118 I I #
straight-curve $-1 20.426853754112592 29.175084223174078 7.2953966834407709 1 0 0 I I #
coedge $-1 $514 $421 $515 $516 reversed $275 $-1 #
edge $-1 $471 -7.2953966834407709 $517 11.700573726162084 $470 $518 forward 7 unknown #
coedge $-1 $422 $514 $460 $501 forward $275 $-1 #
coedge $-1 $494 $423 $422 $478 forward $456 $-1 #
edge $-1 $425 -11.700573726162084 $519 7.5204761843304055 $422 $520 forward 7 unknown #
coedge $-1 $423 $494 $506 $521 reversed $456 $-1 #
vertex $-1 $424 $522 #
straight-curve $-1 -45.387127292703028 0 11.700573726162084 0 -1 0 I I #
point $-1 -45.387127292703028 29.175084223174082 11.700573726162084 #
straight-curve $-1 -45.387127292703028 0 -7.5204761843304055 0 -1 0 I I #
straight-curve $-1 -30.280328621509042 0 -11.700573726162084 0 1 0 I I #
edge $-1 $446 -45.387127292703028 $438 30.280328621509042 $437 $523 forward 7 unknown #
point $-1 -30.280328621509042 -29.175084223174082 -11.700573726162084 #
point $-1 -45.387127292703028 -29.175084223174082 -7.5204761843304055 #
straight-curve $-1 -30.280328621509042 29.175084223174082 -4.8052624776231223 0 0 1 I I #
point $-1 45.387127292703028 -29.175084223174082 -11.700573726162084 #
point $-1 -30.280328621509042 29.175084223174082 -11.700573726162084 #
face $-1 $511 $524 $15 $-1 $525 reversed single #
loop $-1 $-1 $499 $455 #
plane-surface $-1 0 -29.175084223174082 0 0 1 0 0 0 1 forward_v I I I I #
coedge $-1 $479 $477 $498 $526 forward $456 $-1 #
coedge $-1 $458 $502 $527 $528 reversed $409 $-1 #
coedge $-1 $529 $499 $458 $497 forward $492 $-1 #
edge $-1 $503 2.7152137067072832 $530 6.8953112485389614 $496 $531 forward 7 unknown #
coedge $-1 $460 $459 $494 $526 reversed $342 $-1 #
coedge $-1 $496 $506 $459 $500 forward $492 $-1 #
edge $-1 $532 -26.47026331415001 $503 -11.363464642956025 $499 $533 forward 7 unknown #
edge $-1 $504 11.363464642956025 $519 26.47026331415001 $476 $534 forward 7 unknown #
coedge $-1 $495 $461 $514 $535 reversed $409 $-1 #
vertex $-1 $500 $536 #
vertex $-1 $501 $537 #
straight-curve $-1 -30.280328621509042 0 -7.5204761843304055 0 1 0 I I #
coedge $-1 $499 $463 $479 $521 forward $492 $-1 #
coedge $-1 $463 $529 $465 $510 reversed $492 $-1 #
straight-curve $-1 0 -29.175084223174082 11.700573726162084 1 0 0 I I #
coedge $-1 $470 $465 $538 $539 reversed $466 $-1 #
edge $-1 $467 -11.700573726162084 $540 11.700573726162084 $465 $541 forward 7 unknown #
face $-1 $-1 $466 $15 $-1 $542 reversed single #
point $-1 45.387127292703028 -29.175084223174082 11.700573726162084 #
point $-1 45.387127292703028 29.175084223174082 7.2953966834407709 #
coedge $-1 $476 $474 $502 $535 forward $275 $-1 #
coedge $-1 $538 $527 $474 $516 forward $524 $-1 #
edge $-1 $543 -30.280328621509042 $517 45.387127292703028 $474 $544 forward 7 unknown #
vertex $-1 $539 $545 #
straight-curve $-1 45.387127292703028 29.175084223174082 0 0 0 -1 I I #
vertex $-1 $526 $546 #
straight-curve $-1 -45.387127292703028 29.175084223174082 0 0 0 -1 I I #
edge $-1 $480 -11.700573726162084 $532 7.5204761843304055 $479 $547 forward 7 unknown #
point $-1 -45.387127292703028 -29.175084223174082 11.700573726162084 #
straight-curve $-1 0 -29.175084223174082 -11.700573726162084 -1 0 0 I I #
loop $-1 $-1 $527 $491 #
plane-surface $-1 0 0 -11.700573726162084 0 0 1 1 0 0 forward_v I I I I #
edge $-1 $519 -29.175084223174082 $532 29.175084223174082 $494 $548 forward 7 unknown #
coedge $-1 $515 $549 $495 $528 forward $524 $-1 #
edge $-1 $530 -29.175084223174082 $543 29.175084223174082 $527 $550 forward 7 unknown #
coedge $-1 $507 $496 $549 $551 reversed $492 $-1 #
vertex $-1 $497 $552 #
straight-curve $-1 -30.280328621509042 -29.175084223174082 -4.8052624776231223 0 0 -1 I I #
vertex $-1 $500 $553 #
straight-curve $-1 -18.916863978553017 -29.175084223174082 -7.5204761843304055 1 0 0 I I #
straight-curve $-1 -18.916863978553017 29.175084223174082 -7.5204761843304055 -1 0 0 I I #
edge $-1 $543 -6.8953112485389614 $504 -2.7152137067072832 $514 $554 forward 7 unknown #
point $-1 -30.280328621509042 -29.175084223174082 -7.5204761843304055 #
point $-1 -30.280328621509042 29.175084223174082 -7.5204761843304055 #
coedge $-1 $549 $515 $509 $539 forward $524 $-1 #
edge $-1 $517 -29.175084223174082 $540 29.175084223174082 $509 $555 forward 7 unknown #
vertex $-1 $510 $556 #
straight-curve $-1 45.387127292703028 -29.175084223174082 0 0 0 -1 I I #
plane-surface $-1 45.387127292703028 0 0 -1 0 0 0 0 1 forward_v I I I I #
vertex $-1 $516 $557 #
straight-curve $-1 0 29.175084223174082 -11.700573726162084 1 0 0 I I #
point $-1 45.387127292703028 29.175084223174082 -11.700573726162084 #
point $-1 -45.387127292703028 29.175084223174082 -7.5204761843304055 #
straight-curve $-1 -45.387127292703028 -29.175084223174082 0 0 0 -1 I I #
straight-curve $-1 -45.387127292703028 0 -7.5204761843304055 0 -1 0 I I #
coedge $-1 $527 $538 $529 $551 forward $524 $-1 #
straight-curve $-1 -30.280328621509042 0 -11.700573726162084 0 1 0 I I #
edge $-1 $540 -45.387127292703028 $530 30.280328621509042 $529 $558 forward 7 unknown #
point $-1 -30.280328621509042 -29.175084223174082 -11.700573726162084 #
point $-1 -45.387127292703028 -29.175084223174082 -7.5204761843304055 #
straight-curve $-1 -30.280328621509042 29.175084223174082 -4.8052624776231223 0 0 1 I I #
straight-curve $-1 45.387127292703028 0 -11.700573726162084 0 -1 0 I I #
point $-1 45.387127292703028 -29.175084223174082 -11.700573726162084 #
point $-1 -30.280328621509042 29.175084223174082 -11.700573726162084 #
straight-curve $-1 0 -29.175084223174082 -11.700573726162084 -1 0 0 I I #
End-of-ACIS-data 