500 0 8 0           
7 Unknown 11 ACIS 5.0 NT 24 Fri Mar 26 15:07:34 1999 
-1 9.9999999999999995e-007 1e-010 
body $-1 $8 $-1 $9 #
body $-1 $10 $-1 $11 #
body $-1 $12 $-1 $13 #
body $-1 $14 $-1 $15 #
body $-1 $16 $-1 $17 #
body $-1 $18 $-1 $19 #
body $-1 $20 $-1 $21 #
body $-1 $22 $-1 $23 #
lump $-1 $-1 $24 $0 #
transform $-1 1 0 0 0 1 0 0 0 1 49.509567552720725 30.330521750024413 14.156403315414087 1 rotate no_reflect no_shear #
lump $-1 $-1 $25 $1 #
transform $-1 1 0 0 0 1 0 0 0 1 49.509567552720725 30.330521750024413 14.156403315414087 1 rotate no_reflect no_shear #
lump $-1 $-1 $26 $2 #
transform $-1 1 0 0 0 1 0 0 0 1 49.509567552720725 30.330521750024413 14.156403315414087 1 rotate no_reflect no_shear #
lump $-1 $-1 $27 $3 #
transform $-1 1 0 0 0 1 0 0 0 1 49.509567552720725 30.330521750024413 14.156403315414087 1 rotate no_reflect no_shear #
lump $-1 $-1 $28 $4 #
transform $-1 1 0 0 0 1 0 0 0 1 49.509567552720725 30.330521750024413 14.156403315414087 1 rotate no_reflect no_shear #
lump $-1 $-1 $29 $5 #
transform $-1 1 0 0 0 1 0 0 0 1 49.509567552720725 30.330521750024413 14.156403315414087 1 rotate no_reflect no_shear #
lump $-1 $-1 $30 $6 #
transform $-1 1 0 0 0 1 0 0 0 1 49.509567552720725 30.330521750024413 14.156403315414087 1 rotate no_reflect no_shear #
lump $-1 $-1 $31 $7 #
transform $-1 1 0 0 0 1 0 0 0 1 49.509567552720725 30.330521750024413 14.156403315414087 1 rotate no_reflect no_shear #
shell $-1 $-1 $-1 $32 $-1 $8 #
shell $-1 $-1 $-1 $33 $-1 $10 #
shell $-1 $-1 $-1 $34 $-1 $12 #
shell $-1 $-1 $-1 $35 $-1 $14 #
shell $-1 $-1 $-1 $36 $-1 $16 #
shell $-1 $-1 $-1 $37 $-1 $18 #
shell $-1 $-1 $-1 $38 $-1 $20 #
shell $-1 $-1 $-1 $39 $-1 $22 #
face $-1 $40 $41 $24 $-1 $42 forward single #
face $-1 $43 $44 $25 $-1 $45 forward single #
face $-1 $46 $47 $26 $-1 $48 forward single #
face $-1 $49 $50 $27 $-1 $51 reversed single #
face $-1 $52 $53 $28 $-1 $54 forward single #
face $-1 $55 $56 $29 $-1 $57 reversed single #
face $-1 $58 $59 $30 $-1 $60 forward single #
face $-1 $61 $62 $31 $-1 $63 forward single #
face $-1 $64 $65 $24 $-1 $66 reversed single #
loop $-1 $-1 $67 $32 #
plane-surface $-1 0 0 14.156403315414087 0 0 1 1 0 0 forward_v I I I I #
face $-1 $68 $69 $25 $-1 $70 reversed single #
loop $-1 $-1 $71 $33 #
plane-surface $-1 -43.632376885966551 0 -11.036525056741299 0 0 1 1 0 0 forward_v I I I I #
face $-1 $72 $73 $26 $-1 $74 reversed single #
loop $-1 $-1 $75 $34 #
plane-surface $-1 40.66034873083089 0 2.9185907220639624 0 0 1 1 0 0 forward_v I I I I #
face $-1 $76 $77 $27 $-1 $78 reversed single #
loop $-1 $-1 $79 $35 #
plane-surface $-1 -33.50199512950558 -107.28284352359201 69.369779593090229 1 0 0 0 0.77714596973225614 -0.62932038083071107 forward_v I I I I #
face $-1 $80 $81 $28 $-1 $82 forward single #
loop $-1 $83 $84 $36 #
cone-surface $-1 -25.021112390123641 -26.032496453528857 9.4536060238209956 0 0.77714596973225614 -0.62932038083071107 1 0 0 1 I I 0 1 1 forward I I I I #
face $-1 $85 $86 $29 $-1 $87 reversed single #
loop $-1 $-1 $88 $37 #
plane-surface $-1 31.811129908941044 45.50279875983918 123.7766845765409 -1 0 0 0 0.62932039886446345 0.77714595512881146 forward_v I I I I #
face $-1 $89 $90 $30 $-1 $91 forward single #
loop $-1 $92 $93 $38 #
cone-surface $-1 17.728719438021457 25.789953614648827 9.9948473667862352 0 -0.62932039886446345 -0.77714595512881146 1.5 0 0 1 I I 0 1 1.5 forward I I I I #
face $-1 $94 $95 $31 $-1 $96 forward single #
loop $-1 $97 $98 $39 #
cone-surface $-1 26.178165720573219 25.789953614648827 9.9948473667862352 0 -0.62932039886446345 -0.77714595512881146 1.5 0 0 1 I I 0 1 1.5 forward I I I I #
face $-1 $99 $100 $24 $-1 $101 reversed single #
loop $-1 $-1 $102 $40 #
plane-surface $-1 0 0 -14.156403315414087 0 0 1 1 0 0 forward_v I I I I #
coedge $-1 $103 $104 $105 $106 forward $41 $-1 #
face $-1 $107 $108 $25 $-1 $109 reversed single #
loop $-1 $-1 $110 $43 #
plane-surface $-1 -37.755186219212376 0 -12.596464186077693 -1 0 0 0 0 1 forward_v I I I I #
coedge $-1 $111 $112 $113 $114 forward $44 $-1 #
face $-1 $115 $116 $26 $-1 $117 reversed single #
loop $-1 $-1 $118 $46 #
plane-surface $-1 40.66034873083089 0 -4.4053077209904128 0 0 1 1 0 0 forward_v I I I I #
coedge $-1 $119 $120 $121 $122 reversed $47 $-1 #
face $-1 $123 $124 $27 $-1 $125 reversed single #
loop $-1 $-1 $126 $49 #
plane-surface $-1 -25.021112390123641 -30.330521750024431 7.0550197790061873 0 -0.77714596973225614 0.62932038083071107 1 0 0 forward_v I I I I #
coedge $-1 $127 $128 $129 $130 reversed $50 $-1 #
face $-1 $-1 $131 $28 $-1 $132 forward single #
loop $-1 $133 $134 $52 #
cone-surface $-1 -25.021112390123641 -24.221191595548653 7.9868403100165022 0 0.77714596973225614 -0.62932038083071107 0.5 0 0 1 I I -0.70710678118654746 0.70710678118654746 0.5 forward I I I I #
loop $-1 $-1 $135 $36 #
coedge $-1 $84 $84 $136 $137 reversed $53 $-1 #
face $-1 $138 $139 $29 $-1 $140 reversed single #
loop $-1 $-1 $141 $55 #
plane-surface $-1 21.953442579297331 -16.811962839931425 46.824364248993774 0 0.62932039886446345 0.77714595512881146 1 0 0 forward_v I I I I #
coedge $-1 $142 $143 $144 $145 reversed $56 $-1 #
face $-1 $-1 $146 $30 $-1 $147 forward single #
loop $-1 $148 $149 $58 #
cone-surface $-1 17.728719438021457 24.177851856484036 8.0040675305145772 0 -0.62932039886446345 -0.77714595512881146 0.75 0 0 1 I I -0.70710678118654757 0.70710678118654757 0.75 forward I I I I #
loop $-1 $-1 $150 $38 #
coedge $-1 $93 $93 $151 $152 reversed $59 $-1 #
face $-1 $-1 $153 $31 $-1 $154 forward single #
loop $-1 $155 $156 $61 #
cone-surface $-1 26.178165720573219 24.177851856484036 8.0040675305145772 0 -0.62932039886446345 -0.77714595512881146 0.75 0 0 1 I I -0.70710678118654757 0.70710678118654757 0.75 forward I I I I #
loop $-1 $-1 $157 $39 #
coedge $-1 $98 $98 $158 $159 reversed $62 $-1 #
face $-1 $160 $161 $24 $-1 $162 reversed single #
loop $-1 $-1 $163 $64 #
plane-surface $-1 0 -30.330521750024413 0 0 1 0 0 0 1 forward_v I I I I #
coedge $-1 $164 $165 $166 $167 forward $65 $-1 #
coedge $-1 $168 $67 $169 $170 forward $41 $-1 #
coedge $-1 $67 $168 $171 $172 forward $41 $-1 #
coedge $-1 $173 $174 $67 $106 reversed $175 $-1 #
edge $-1 $176 -30.330521750024413 $177 30.330521750024413 $105 $178 forward 7 unknown #
face $-1 $179 $180 $25 $-1 $181 reversed single #
loop $-1 $-1 $182 $68 #
plane-surface $-1 0 0 -14.156403315414087 0 0 1 1 0 0 forward_v I I I I #
coedge $-1 $183 $113 $184 $185 reversed $69 $-1 #
coedge $-1 $186 $71 $187 $188 reversed $44 $-1 #
coedge $-1 $71 $186 $189 $190 reversed $44 $-1 #
coedge $-1 $110 $191 $71 $114 reversed $69 $-1 #
edge $-1 $192 -30.330521750024413 $193 30.330521750024413 $113 $194 forward 7 unknown #
face $-1 $195 $196 $26 $-1 $197 reversed single #
loop $-1 $-1 $198 $72 #
plane-surface $-1 31.811129908941055 0 -0.74335849946322519 1 0 0 0 0 -1 forward_v I I I I #
coedge $-1 $199 $200 $201 $202 reversed $73 $-1 #
coedge $-1 $203 $75 $204 $205 reversed $47 $-1 #
coedge $-1 $75 $203 $206 $207 reversed $47 $-1 #
coedge $-1 $208 $209 $75 $122 forward $210 $-1 #
edge $-1 $211 -30.330521750024413 $212 30.330521750024413 $121 $213 forward 7 unknown #
face $-1 $214 $215 $27 $-1 $216 forward single #
loop $-1 $-1 $217 $76 #
plane-surface $-1 -16.540229650741701 -107.28284352359201 69.369779593090229 -1 0 0 0 -0.77714596973225614 0.62932038083071107 forward_v I I I I #
coedge $-1 $218 $219 $220 $221 reversed $77 $-1 #
coedge $-1 $128 $79 $222 $223 reversed $50 $-1 #
coedge $-1 $79 $127 $218 $224 reversed $50 $-1 #
coedge $-1 $220 $225 $79 $130 forward $226 $-1 #
edge $-1 $227 20.528486481131026 $228 27.629870017538906 $129 $229 forward 7 unknown #
loop $-1 $-1 $136 $80 #
plane-surface $-1 -25.021112390123641 -30.330521750024431 7.0550197790061873 0 -0.77714596973225614 0.62932038083071107 1 0 0 forward_v I I I I #
loop $-1 $-1 $230 $52 #
coedge $-1 $134 $134 $135 $231 reversed $81 $-1 #
coedge $-1 $135 $135 $134 $231 forward $83 $-1 #
coedge $-1 $136 $136 $84 $137 forward $131 $-1 #
edge $-1 $232 2.8960442753486391e-015 $232 6.2831853071796031 $136 $233 forward 7 unknown #
face $-1 $234 $235 $29 $-1 $236 reversed single #
loop $-1 $-1 $237 $85 #
plane-surface $-1 12.095755249653617 45.50279875983918 123.7766845765409 1 0 0 0 -0.62932039886446345 -0.77714595512881146 forward_v I I I I #
coedge $-1 $238 $239 $240 $241 reversed $86 $-1 #
coedge $-1 $143 $88 $242 $243 reversed $56 $-1 #
coedge $-1 $88 $142 $238 $244 reversed $56 $-1 #
coedge $-1 $240 $245 $88 $145 forward $235 $-1 #
edge $-1 $246 47.731938972856362 $247 53.239210130261988 $144 $248 forward 7 unknown #
loop $-1 $-1 $151 $89 #
plane-surface $-1 21.953442579297331 -16.811962839931425 46.824364248993774 0 0.62932039886446345 0.77714595512881146 1 0 0 forward_v I I I I #
loop $-1 $-1 $249 $58 #
coedge $-1 $149 $149 $150 $250 reversed $90 $-1 #
coedge $-1 $150 $150 $149 $250 forward $92 $-1 #
coedge $-1 $151 $151 $93 $152 forward $146 $-1 #
edge $-1 $251 -2.2357951893939669e-015 $251 6.2831853071795978 $151 $252 forward 7 unknown #
loop $-1 $-1 $158 $94 #
plane-surface $-1 21.953442579297331 -16.811962839931425 46.824364248993774 0 0.62932039886446345 0.77714595512881146 1 0 0 forward_v I I I I #
loop $-1 $-1 $253 $61 #
coedge $-1 $156 $156 $157 $254 reversed $95 $-1 #
coedge $-1 $157 $157 $156 $254 forward $97 $-1 #
coedge $-1 $158 $158 $98 $159 forward $153 $-1 #
edge $-1 $255 -2.2357951893939669e-015 $255 6.2831853071795978 $158 $256 forward 7 unknown #
face $-1 $257 $258 $24 $-1 $259 reversed single #
loop $-1 $-1 $260 $99 #
plane-surface $-1 -49.509567552720725 0 0 1 0 0 0 0 -1 forward_v I I I I #
coedge $-1 $261 $171 $262 $263 forward $100 $-1 #
coedge $-1 $264 $102 $261 $265 forward $65 $-1 #
coedge $-1 $102 $264 $266 $267 forward $65 $-1 #
coedge $-1 $174 $173 $102 $167 reversed $175 $-1 #
edge $-1 $268 -30.330521750024413 $269 30.330521750024413 $166 $270 forward 7 unknown #
coedge $-1 $104 $103 $271 $272 forward $41 $-1 #
coedge $-1 $273 $274 $103 $170 reversed $258 $-1 #
edge $-1 $177 -49.509567552720725 $275 49.509567552720725 $169 $276 forward 7 unknown #
coedge $-1 $163 $277 $104 $172 reversed $100 $-1 #
edge $-1 $278 -49.509567552720725 $176 49.509567552720725 $171 $279 forward 7 unknown #
coedge $-1 $166 $105 $277 $280 forward $175 $-1 #
coedge $-1 $105 $166 $273 $281 reversed $175 $-1 #
loop $-1 $-1 $173 $257 #
vertex $-1 $106 $282 #
vertex $-1 $106 $283 #
straight-curve $-1 49.509567552720725 0 14.156403315414087 0 1 0 I I #
face $-1 $284 $285 $25 $-1 $286 reversed single #
loop $-1 $-1 $184 $107 #
plane-surface $-1 0 -30.330521750024413 0 0 1 0 0 0 1 forward_v I I I I #
coedge $-1 $287 $288 $183 $289 forward $108 $-1 #
coedge $-1 $191 $110 $182 $289 reversed $69 $-1 #
coedge $-1 $189 $290 $110 $185 forward $180 $-1 #
edge $-1 $291 -7.8581712223752405 $192 -4.7382929637024525 $184 $292 forward 7 unknown #
coedge $-1 $112 $111 $293 $294 reversed $44 $-1 #
coedge $-1 $295 $296 $111 $188 forward $297 $-1 #
edge $-1 $298 -27.69337910973745 $193 -15.938997776229101 $187 $299 forward 7 unknown #
coedge $-1 $300 $184 $112 $190 forward $180 $-1 #
edge $-1 $192 15.938997776229101 $301 27.69337910973745 $189 $302 forward 7 unknown #
coedge $-1 $113 $183 $295 $303 reversed $69 $-1 #
vertex $-1 $190 $304 #
vertex $-1 $188 $305 #
straight-curve $-1 -37.755186219212376 0 -11.036525056741299 0 1 0 I I #
face $-1 $306 $307 $26 $-1 $308 reversed single #
loop $-1 $-1 $206 $115 #
plane-surface $-1 0 -30.330521750024413 0 0 1 0 0 0 1 forward_v I I I I #
coedge $-1 $309 $310 $311 $312 reversed $116 $-1 #
coedge $-1 $313 $118 $314 $315 reversed $73 $-1 #
coedge $-1 $118 $313 $316 $317 reversed $73 $-1 #
coedge $-1 $209 $208 $118 $202 forward $210 $-1 #
edge $-1 $318 -30.330521750024413 $319 30.330521750024413 $201 $320 forward 7 unknown #
coedge $-1 $120 $119 $310 $321 forward $47 $-1 #
coedge $-1 $322 $311 $119 $205 forward $307 $-1 #
edge $-1 $323 11.48095554352561 $211 29.17939318730528 $204 $324 forward 7 unknown #
coedge $-1 $325 $326 $120 $207 forward $196 $-1 #
edge $-1 $212 -29.17939318730528 $327 -11.48095554352561 $206 $328 forward 7 unknown #
coedge $-1 $201 $121 $326 $329 forward $210 $-1 #
coedge $-1 $121 $201 $322 $330 reversed $210 $-1 #
loop $-1 $-1 $121 $306 #
vertex $-1 $330 $331 #
vertex $-1 $329 $332 #
straight-curve $-1 49.509567552720725 0 2.9185907220639624 0 -1 0 I I #
face $-1 $-1 $226 $27 $-1 $333 reversed single #
loop $-1 $-1 $334 $123 #
plane-surface $-1 0 0 14.156403315414087 0 0 1 1 0 0 forward_v I I I I #
coedge $-1 $335 $336 $337 $338 reversed $124 $-1 #
coedge $-1 $339 $126 $128 $224 forward $77 $-1 #
coedge $-1 $126 $339 $335 $340 forward $77 $-1 #
coedge $-1 $337 $129 $126 $221 forward $226 $-1 #
edge $-1 $228 -20.99143893444376 $341 -4.0296734556798803 $220 $342 forward 7 unknown #
coedge $-1 $343 $344 $127 $223 forward $215 $-1 #
edge $-1 $345 -29.061486858534536 $227 -23.31090001177159 $222 $346 forward 7 unknown #
edge $-1 $228 2.8435082608453949e-014 $345 9.137773099247342 $128 $347 forward 7 unknown #
coedge $-1 $129 $337 $343 $348 reversed $226 $-1 #
loop $-1 $-1 $337 $214 #
vertex $-1 $348 $349 #
vertex $-1 $130 $350 #
straight-curve $-1 -33.50199512950558 -30.330521750024417 34.684889796545114 0 0 -1 I I #
coedge $-1 $230 $230 $-1 $351 reversed $133 $-1 #
edge $-1 $352 0 $352 6.2831853071796004 $134 $353 forward 7 unknown #
vertex $-1 $137 $354 #
ellipse-curve $-1 -25.021112390123641 -27.455228326642946 10.605711547210143 0 -0.77714596973225614 0.62932038083071107 1 0 0 1 I I #
face $-1 $-1 $355 $29 $-1 $356 forward single #
loop $-1 $-1 $144 $138 #
plane-surface $-1 0 30.330521750024413 0 0 -1 0 0 0 -1 forward_v I I I I #
coedge $-1 $357 $358 $359 $360 reversed $139 $-1 #
coedge $-1 $361 $141 $143 $244 forward $86 $-1 #
coedge $-1 $141 $361 $357 $362 forward $86 $-1 #
coedge $-1 $359 $144 $141 $241 forward $235 $-1 #
edge $-1 $247 -20.834408619292379 $363 -1.1190339600049519 $240 $364 forward 7 unknown #
coedge $-1 $365 $366 $142 $243 forward $355 $-1 #
edge $-1 $367 0.77820901738650861 $246 7.5791223701048231 $242 $368 forward 7 unknown #
edge $-1 $247 -60.661043500048848 $367 -51.909903115369019 $143 $369 forward 7 unknown #
coedge $-1 $144 $359 $365 $370 reversed $235 $-1 #
vertex $-1 $370 $371 #
vertex $-1 $145 $372 #
straight-curve $-1 31.811129908941044 30.330521750024413 61.888342288270451 0 0 -1 I I #
coedge $-1 $249 $249 $-1 $373 reversed $148 $-1 #
edge $-1 $374 0 $374 6.2831853071796004 $149 $375 forward 7 unknown #
vertex $-1 $152 $376 #
ellipse-curve $-1 17.728719438021457 26.930065073665265 11.402767736711279 0 0.62932039886446345 0.77714595512881146 1.5 0 0 1 I I #
coedge $-1 $253 $253 $-1 $377 reversed $155 $-1 #
edge $-1 $378 0 $378 6.2831853071796004 $156 $379 forward 7 unknown #
vertex $-1 $159 $380 #
ellipse-curve $-1 26.178165720573219 26.930065073665265 11.402767736711279 0 0.62932039886446345 0.77714595512881146 1.5 0 0 1 I I #
face $-1 $-1 $175 $24 $-1 $381 reversed single #
loop $-1 $-1 $273 $160 #
plane-surface $-1 0 30.330521750024413 0 0 -1 0 0 0 -1 forward_v I I I I #
coedge $-1 $382 $271 $274 $383 forward $161 $-1 #
coedge $-1 $277 $163 $164 $265 reversed $100 $-1 #
coedge $-1 $271 $382 $163 $263 reversed $161 $-1 #
edge $-1 $278 -14.156403315414087 $384 14.156403315414087 $262 $385 forward 7 unknown #
coedge $-1 $165 $164 $382 $386 forward $65 $-1 #
edge $-1 $269 -49.509567552720725 $384 49.509567552720725 $261 $387 forward 7 unknown #
coedge $-1 $274 $273 $165 $267 reversed $258 $-1 #
edge $-1 $388 -49.509567552720725 $268 49.509567552720725 $266 $389 forward 7 unknown #
vertex $-1 $167 $390 #
vertex $-1 $280 $391 #
straight-curve $-1 49.509567552720725 0 -14.156403315414087 0 -1 0 I I #
coedge $-1 $260 $262 $168 $272 reversed $161 $-1 #
edge $-1 $275 -30.330521750024413 $278 30.330521750024413 $271 $392 forward 7 unknown #
coedge $-1 $266 $169 $174 $281 forward $258 $-1 #
coedge $-1 $169 $266 $260 $383 reversed $258 $-1 #
vertex $-1 $170 $393 #
straight-curve $-1 0 30.330521750024413 14.156403315414087 -1 0 0 I I #
coedge $-1 $171 $261 $173 $280 reversed $100 $-1 #
vertex $-1 $272 $394 #
straight-curve $-1 0 -30.330521750024413 14.156403315414087 1 0 0 I I #
edge $-1 $176 -14.156403315414087 $269 14.156403315414087 $173 $395 forward 7 unknown #
edge $-1 $177 -14.156403315414087 $268 14.156403315414087 $174 $396 forward 7 unknown #
point $-1 49.509567552720725 -30.330521750024413 14.156403315414087 #
point $-1 49.509567552720725 30.330521750024413 14.156403315414087 #
face $-1 $-1 $297 $25 $-1 $397 reversed single #
loop $-1 $-1 $293 $179 #
plane-surface $-1 -49.509567552720725 0 0 1 0 0 0 0 -1 forward_v I I I I #
coedge $-1 $398 $182 $290 $399 forward $108 $-1 #
coedge $-1 $182 $398 $400 $401 forward $108 $-1 #
edge $-1 $402 -30.330521750024413 $291 30.330521750024413 $182 $403 forward 7 unknown #
coedge $-1 $184 $300 $287 $399 reversed $180 $-1 #
vertex $-1 $399 $404 #
straight-curve $-1 -37.755186219212376 -30.330521750024413 -6.2982320930388465 0 0 1 I I #
coedge $-1 $405 $406 $186 $294 forward $285 $-1 #
edge $-1 $301 -30.330521750024413 $298 30.330521750024413 $293 $407 forward 7 unknown #
coedge $-1 $400 $187 $191 $303 forward $297 $-1 #
coedge $-1 $187 $400 $405 $408 reversed $297 $-1 #
loop $-1 $-1 $295 $284 #
vertex $-1 $408 $409 #
straight-curve $-1 -21.816188442983275 30.330521750024413 -11.036525056741299 1 0 0 I I #
coedge $-1 $290 $189 $406 $410 forward $180 $-1 #
vertex $-1 $410 $411 #
straight-curve $-1 -21.816188442983275 -30.330521750024413 -11.036525056741299 -1 0 0 I I #
edge $-1 $193 4.7382929637024525 $402 7.8581712223752405 $295 $412 forward 7 unknown #
point $-1 -37.755186219212376 -30.330521750024413 -11.036525056741299 #
point $-1 -37.755186219212376 30.330521750024413 -11.036525056741299 #
face $-1 $-1 $210 $26 $-1 $413 reversed single #
loop $-1 $-1 $204 $195 #
plane-surface $-1 0 30.330521750024413 0 0 -1 0 0 0 -1 forward_v I I I I #
coedge $-1 $414 $198 $313 $415 reversed $116 $-1 #
coedge $-1 $198 $414 $203 $321 reversed $116 $-1 #
coedge $-1 $204 $316 $198 $312 forward $307 $-1 #
edge $-1 $416 -4.0336284712588002 $323 3.290269971795575 $311 $417 forward 7 unknown #
coedge $-1 $200 $199 $309 $415 forward $73 $-1 #
coedge $-1 $326 $325 $199 $315 forward $196 $-1 #
edge $-1 $418 11.48095554352561 $318 29.17939318730528 $314 $419 forward 7 unknown #
coedge $-1 $311 $322 $200 $317 forward $307 $-1 #
edge $-1 $319 -29.17939318730528 $416 -11.48095554352561 $316 $420 forward 7 unknown #
vertex $-1 $202 $421 #
vertex $-1 $202 $422 #
straight-curve $-1 49.509567552720725 0 -4.4053077209904128 0 1 0 I I #
edge $-1 $323 -30.330521750024413 $327 30.330521750024413 $310 $423 forward 7 unknown #
coedge $-1 $316 $204 $209 $330 forward $307 $-1 #
vertex $-1 $205 $424 #
straight-curve $-1 20.330174365415445 30.330521750024413 2.9185907220639624 1 0 0 I I #
coedge $-1 $314 $206 $414 $425 forward $196 $-1 #
coedge $-1 $206 $314 $208 $329 reversed $196 $-1 #
vertex $-1 $207 $426 #
straight-curve $-1 20.330174365415445 -30.330521750024413 2.9185907220639624 -1 0 0 I I #
edge $-1 $212 -2.9185907220639624 $318 4.4053077209904128 $208 $427 forward 7 unknown #
edge $-1 $211 -2.9185907220639624 $319 4.4053077209904128 $209 $428 forward 7 unknown #
point $-1 49.509567552720725 30.330521750024413 2.9185907220639624 #
point $-1 49.509567552720725 -30.330521750024413 2.9185907220639624 #
plane-surface $-1 0 -30.330521750024413 0 0 1 0 0 0 1 forward_v I I I I #
coedge $-1 $344 $343 $336 $429 forward $215 $-1 #
coedge $-1 $336 $217 $219 $340 reversed $124 $-1 #
coedge $-1 $217 $335 $334 $429 reversed $124 $-1 #
coedge $-1 $225 $220 $217 $338 forward $226 $-1 #
edge $-1 $341 -27.629870017538906 $430 -20.528486481131026 $337 $431 forward 7 unknown #
coedge $-1 $219 $218 $344 $432 reversed $77 $-1 #
edge $-1 $433 -9.137773099247342 $341 -2.8435082608453949e-014 $335 $434 forward 7 unknown #
vertex $-1 $221 $435 #
straight-curve $-1 -12.51055619506182 -30.330521750024413 7.0550197790062068 1 0 0 I I #
coedge $-1 $334 $222 $225 $348 forward $215 $-1 #
coedge $-1 $222 $334 $339 $432 forward $215 $-1 #
vertex $-1 $223 $436 #
straight-curve $-1 -33.50199512950558 -53.641421761796003 14.156403315414089 0 -1 0 I I #
straight-curve $-1 -33.50199512950558 -30.330521750024431 7.0550197790061873 0 0.62932038083071107 0.77714596973225614 I I #
edge $-1 $227 -33.50199512950558 $430 -16.540229650741701 $225 $437 forward 7 unknown #
point $-1 -33.50199512950558 -30.330521750024413 14.156403315414087 #
point $-1 -33.50199512950558 -30.330521750024413 7.0550197790062095 #
edge $-1 $438 1 $438 0 $230 $-1 forward 7 unknown #
vertex $-1 $231 $439 #
ellipse-curve $-1 -25.021112390123641 -24.60976458041478 8.3015005004318585 0 -0.77714596973225614 0.62932038083071107 1 0 0 1 I I #
point $-1 -24.021112390123641 -27.455228326642928 10.605711547210133 #
loop $-1 $-1 $242 $234 #
plane-surface $-1 0 0 14.156403315414087 0 0 1 1 0 0 forward_v I I I I #
coedge $-1 $358 $237 $239 $362 reversed $139 $-1 #
coedge $-1 $237 $357 $440 $441 reversed $139 $-1 #
coedge $-1 $245 $240 $237 $360 forward $235 $-1 #
edge $-1 $363 -53.239210130261988 $442 -47.731938972856362 $359 $443 forward 7 unknown #
coedge $-1 $239 $238 $366 $444 reversed $86 $-1 #
edge $-1 $445 51.909903115369019 $363 60.661043500048848 $357 $446 forward 7 unknown #
vertex $-1 $241 $447 #
straight-curve $-1 10.976721289648665 30.33052175002441 8.6491321580084666 -1 0 0 I I #
coedge $-1 $440 $242 $245 $370 forward $355 $-1 #
coedge $-1 $242 $440 $361 $444 forward $355 $-1 #
vertex $-1 $243 $448 #
straight-curve $-1 31.811129908941044 22.75139937991959 14.156403315414089 0 1 0 I I #
straight-curve $-1 31.811129908941044 -16.811962839931425 46.824364248993774 0 -0.77714595512881146 0.62932039886446345 I I #
edge $-1 $246 -31.811129908941044 $442 -12.095755249653617 $245 $449 forward 7 unknown #
point $-1 31.811129908941044 30.330521750024413 14.156403315414087 #
point $-1 31.811129908941044 30.330521750024417 8.649132158008463 #
edge $-1 $450 1 $450 0 $249 $-1 forward 7 unknown #
vertex $-1 $250 $451 #
ellipse-curve $-1 17.728719438021457 24.649842155632385 8.5869269968611857 0 0.62932039886446345 0.77714595512881146 1.5 0 0 1 I I #
point $-1 19.228719438021457 26.930065073665265 11.402767736711285 #
edge $-1 $452 1 $452 0 $253 $-1 forward 7 unknown #
vertex $-1 $254 $453 #
ellipse-curve $-1 26.178165720573219 24.649842155632385 8.5869269968611857 0 0.62932039886446345 0.77714595512881146 1.5 0 0 1 I I #
point $-1 27.678165720573219 26.930065073665265 11.402767736711285 #
plane-surface $-1 49.509567552720725 0 0 -1 0 0 0 0 1 forward_v I I I I #
coedge $-1 $262 $260 $264 $386 reversed $161 $-1 #
edge $-1 $275 -14.156403315414087 $388 14.156403315414087 $274 $454 forward 7 unknown #
vertex $-1 $386 $455 #
straight-curve $-1 -49.509567552720725 -30.330521750024413 0 0 0 -1 I I #
edge $-1 $384 -30.330521750024413 $388 30.330521750024413 $382 $456 forward 7 unknown #
straight-curve $-1 0 -30.330521750024413 -14.156403315414087 -1 0 0 I I #
vertex $-1 $267 $457 #
straight-curve $-1 0 30.330521750024413 -14.156403315414087 1 0 0 I I #
point $-1 49.509567552720725 30.330521750024413 -14.156403315414087 #
point $-1 49.509567552720725 -30.330521750024413 -14.156403315414087 #
straight-curve $-1 -49.509567552720725 0 14.156403315414087 0 -1 0 I I #
point $-1 -49.509567552720725 30.330521750024413 14.156403315414087 #
point $-1 -49.509567552720725 -30.330521750024413 14.156403315414087 #
straight-curve $-1 49.509567552720725 -30.330521750024413 0 0 0 -1 I I #
straight-curve $-1 49.509567552720725 30.330521750024413 0 0 0 -1 I I #
plane-surface $-1 0 30.330521750024413 0 0 -1 0 0 0 -1 forward_v I I I I #
coedge $-1 $288 $287 $458 $459 forward $108 $-1 #
edge $-1 $291 37.755186219212376 $460 49.509567552720725 $290 $461 forward 7 unknown #
coedge $-1 $296 $295 $288 $401 reversed $297 $-1 #
edge $-1 $462 -49.509567552720725 $402 -37.755186219212376 $400 $463 forward 7 unknown #
vertex $-1 $303 $464 #
straight-curve $-1 -37.755186219212376 0 -14.156403315414087 0 -1 0 I I #
point $-1 -37.755186219212376 -30.330521750024413 -14.156403315414087 #
coedge $-1 $458 $293 $296 $408 forward $285 $-1 #
coedge $-1 $293 $458 $300 $410 reversed $285 $-1 #
straight-curve $-1 -49.509567552720725 0 -11.036525056741299 0 1 0 I I #
edge $-1 $298 11.036525056741299 $462 14.156403315414087 $296 $465 forward 7 unknown #
point $-1 -49.509567552720725 30.330521750024413 -11.036525056741299 #
edge $-1 $301 11.036525056741299 $460 14.156403315414087 $406 $466 forward 7 unknown #
point $-1 -49.509567552720725 -30.330521750024413 -11.036525056741299 #
straight-curve $-1 -37.755186219212376 30.330521750024413 -6.2982320930388465 0 0 -1 I I #
plane-surface $-1 49.509567552720725 0 0 -1 0 0 0 0 1 forward_v I I I I #
coedge $-1 $310 $309 $325 $425 reversed $116 $-1 #
edge $-1 $418 -30.330521750024413 $416 30.330521750024413 $309 $467 forward 7 unknown #
vertex $-1 $317 $468 #
straight-curve $-1 31.811129908941055 30.330521750024413 -0.37167924973161259 0 0 1 I I #
vertex $-1 $315 $469 #
straight-curve $-1 20.330174365415445 -30.330521750024413 -4.4053077209904128 1 0 0 I I #
straight-curve $-1 20.330174365415445 30.330521750024413 -4.4053077209904128 -1 0 0 I I #
point $-1 49.509567552720725 -30.330521750024413 -4.4053077209904128 #
point $-1 49.509567552720725 30.330521750024413 -4.4053077209904128 #
straight-curve $-1 31.811129908941055 0 2.9185907220639624 0 -1 0 I I #
point $-1 31.811129908941055 30.330521750024413 2.9185907220639624 #
edge $-1 $327 -3.290269971795575 $418 4.0336284712588002 $325 $470 forward 7 unknown #
point $-1 31.811129908941055 -30.330521750024413 2.9185907220639624 #
straight-curve $-1 49.509567552720725 -30.330521750024413 0 0 0 -1 I I #
straight-curve $-1 49.509567552720725 30.330521750024413 0 0 0 -1 I I #
edge $-1 $430 23.31090001177159 $433 29.061486858534536 $334 $471 forward 7 unknown #
vertex $-1 $429 $472 #
straight-curve $-1 -16.540229650741701 -30.330521750024417 34.684889796545114 0 0 1 I I #
edge $-1 $433 4.0296734556798803 $345 20.99143893444376 $344 $473 forward 7 unknown #
vertex $-1 $432 $474 #
straight-curve $-1 -16.540229650741701 -30.330521750024431 7.0550197790061873 0 -0.62932038083071107 -0.77714596973225614 I I #
point $-1 -16.540229650741701 -30.330521750024413 7.0550197790062095 #
point $-1 -33.50199512950558 -24.579934903261467 14.156403315414087 #
straight-curve $-1 0 -30.330521750024413 14.156403315414087 1 0 0 I I #
vertex $-1 $351 $475 #
point $-1 -24.021112390123641 -24.60976458041478 8.3015005004318585 #
coedge $-1 $366 $365 $358 $441 forward $355 $-1 #
edge $-1 $442 -7.5791223701048231 $445 -0.77820901738650861 $440 $476 forward 7 unknown #
vertex $-1 $441 $477 #
straight-curve $-1 12.095755249653617 30.330521750024413 61.888342288270451 0 0 1 I I #
edge $-1 $445 1.1190339600049519 $367 20.834408619292379 $366 $478 forward 7 unknown #
vertex $-1 $444 $479 #
straight-curve $-1 12.095755249653617 -16.811962839931425 46.824364248993774 0 0.77714595512881146 -0.62932039886446345 I I #
point $-1 12.095755249653617 30.330521750024417 8.649132158008463 #
point $-1 31.811129908941044 23.529608397306099 14.156403315414089 #
straight-curve $-1 0 30.330521750024413 14.156403315414087 -1 0 0 I I #
vertex $-1 $373 $480 #
point $-1 19.228719438021457 24.649842155632385 8.5869269968611857 #
vertex $-1 $377 $481 #
point $-1 27.678165720573219 24.649842155632385 8.5869269968611857 #
straight-curve $-1 -49.509567552720725 30.330521750024413 0 0 0 -1 I I #
point $-1 -49.509567552720725 -30.330521750024413 -14.156403315414087 #
straight-curve $-1 -49.509567552720725 0 -14.156403315414087 0 1 0 I I #
point $-1 -49.509567552720725 30.330521750024413 -14.156403315414087 #
coedge $-1 $406 $405 $398 $459 reversed $285 $-1 #
edge $-1 $460 -30.330521750024413 $462 30.330521750024413 $458 $482 forward 7 unknown #
vertex $-1 $459 $483 #
straight-curve $-1 0 -30.330521750024413 -14.156403315414087 -1 0 0 I I #
vertex $-1 $401 $484 #
straight-curve $-1 0 30.330521750024413 -14.156403315414087 1 0 0 I I #
point $-1 -37.755186219212376 30.330521750024413 -14.156403315414087 #
straight-curve $-1 -49.509567552720725 30.330521750024413 0 0 0 -1 I I #
straight-curve $-1 -49.509567552720725 -30.330521750024413 0 0 0 -1 I I #
straight-curve $-1 31.811129908941055 0 -4.4053077209904128 0 1 0 I I #
point $-1 31.811129908941055 30.330521750024413 -4.4053077209904128 #
point $-1 31.811129908941055 -30.330521750024413 -4.4053077209904128 #
straight-curve $-1 31.811129908941055 -30.330521750024413 -0.37167924973161259 0 0 -1 I I #
straight-curve $-1 -16.540229650741701 -53.641421761796003 14.156403315414089 0 1 0 I I #
point $-1 -16.540229650741701 -30.330521750024413 14.156403315414087 #
straight-curve $-1 -12.51055619506182 -24.579934903261464 14.156403315414087 -1 0 0 I I #
point $-1 -16.540229650741701 -24.579934903261467 14.156403315414087 #
point $-1 -25.021112390123641 -23.832618610682527 7.6721801196011468 #
straight-curve $-1 12.095755249653617 22.75139937991959 14.156403315414089 0 -1 0 I I #
point $-1 12.095755249653617 30.330521750024413 14.156403315414087 #
straight-curve $-1 10.976721289648665 23.529608397306095 14.156403315414085 1 0 0 I I #
point $-1 12.095755249653617 23.529608397306099 14.156403315414089 #
point $-1 17.728719438021457 23.705861557335687 7.4212080641679687 #
point $-1 26.178165720573219 23.705861557335687 7.4212080641679687 #
straight-curve $-1 -49.509567552720725 0 -14.156403315414087 0 1 0 I I #
point $-1 -49.509567552720725 -30.330521750024413 -14.156403315414087 #
point $-1 -49.509567552720725 30.330521750024413 -14.156403315414087 #
End-of-ACIS-data 