500 0 5 0           
7 Unknown 11 ACIS 5.0 NT 24 Fri Mar 26 15:00:44 1999 
-1 9.9999999999999995e-007 1e-010 
body $-1 $5 $-1 $6 #
body $-1 $7 $-1 $8 #
body $-1 $9 $-1 $10 #
body $-1 $11 $-1 $12 #
body $-1 $13 $-1 $14 #
lump $-1 $-1 $15 $0 #
transform $-1 1 0 0 0 1 0 0 0 1 47.099826044495984 24.598077124901469 6.6012509902591354 1 rotate no_reflect no_shear #
lump $-1 $-1 $16 $1 #
transform $-1 1 0 0 0 1 0 0 0 1 47.099826044495984 24.598077124901469 6.6012509902591354 1 rotate no_reflect no_shear #
lump $-1 $-1 $17 $2 #
transform $-1 1 0 0 0 1 0 0 0 1 47.099826044495984 24.598077124901469 6.6012509902591354 1 rotate no_reflect no_shear #
lump $-1 $-1 $18 $3 #
transform $-1 1 0 0 0 1 0 0 0 1 47.099826044495984 24.598077124901469 6.6012509902591354 1 rotate no_reflect no_shear #
lump $-1 $-1 $19 $4 #
transform $-1 1 0 0 0 1 0 0 0 1 47.099826044495984 24.598077124901469 6.6012509902591354 1 rotate no_reflect no_shear #
shell $-1 $-1 $-1 $20 $-1 $5 #
shell $-1 $-1 $-1 $21 $-1 $7 #
shell $-1 $-1 $-1 $22 $-1 $9 #
shell $-1 $-1 $-1 $23 $-1 $11 #
shell $-1 $-1 $-1 $24 $-1 $13 #
face $-1 $25 $26 $15 $-1 $27 forward single #
face $-1 $28 $29 $16 $-1 $30 reversed single #
face $-1 $31 $32 $17 $-1 $33 reversed single #
face $-1 $34 $35 $18 $-1 $36 forward single #
face $-1 $37 $38 $19 $-1 $39 forward single #
face $-1 $40 $41 $15 $-1 $42 reversed single #
loop $-1 $-1 $43 $20 #
plane-surface $-1 0 0 6.6012509902591354 0 0 1 1 0 0 forward_v I I I I #
face $-1 $44 $45 $16 $-1 $46 reversed single #
loop $-1 $-1 $47 $21 #
plane-surface $-1 -37.439037149061903 -21.53990915004464 0 1 0 0 0 0 -1 forward_v I I I I #
face $-1 $48 $49 $17 $-1 $50 reversed single #
loop $-1 $-1 $51 $22 #
plane-surface $-1 -22.382009840888067 51.070081096427572 103.1455232084257 1 0 0 0 -0.66913061440640931 -0.74314481823134659 forward_v I I I I #
face $-1 $52 $53 $18 $-1 $54 forward single #
loop $-1 $55 $56 $23 #
cone-surface $-1 -18.832412497719819 20.641593208383476 2.9516772996960854 0 -0.66913061440640931 -0.74314481823134659 0.5 0 0 1 I I 0 1 0.5 forward I I I I #
face $-1 $57 $58 $19 $-1 $59 forward single #
loop $-1 $60 $61 $24 #
cone-surface $-1 -13.508016482967449 20.641593208383476 2.9516772996960854 0 -0.66913061440640931 -0.74314481823134659 0.5 0 0 1 I I 0 1 0.5 forward I I I I #
face $-1 $62 $63 $15 $-1 $64 reversed single #
loop $-1 $-1 $65 $25 #
plane-surface $-1 0 0 -6.6012509902591354 0 0 1 1 0 0 forward_v I I I I #
coedge $-1 $66 $67 $68 $69 forward $26 $-1 #
face $-1 $70 $71 $16 $-1 $72 reversed single #
loop $-1 $-1 $73 $28 #
plane-surface $-1 -35.668180606519812 -18.48174117518781 0 0 -1 0 0 0 -1 forward_v I I I I #
coedge $-1 $74 $75 $76 $77 forward $29 $-1 #
face $-1 $78 $79 $17 $-1 $80 reversed single #
loop $-1 $-1 $81 $31 #
plane-surface $-1 -16.170214490343636 -11.961789982749622 33.141539879295678 0 0.66913061440640931 0.74314481823134659 1 0 0 forward_v I I I I #
coedge $-1 $82 $83 $84 $85 reversed $32 $-1 #
face $-1 $-1 $86 $18 $-1 $87 forward single #
loop $-1 $88 $89 $34 #
cone-surface $-1 -18.832412497719819 20.059772019371355 2.3054994198584922 0 -0.66913061440640931 -0.74314481823134659 0.25 0 0 1 I I -0.70710678118654746 0.70710678118654746 0.25 forward I I I I #
loop $-1 $-1 $90 $23 #
coedge $-1 $56 $56 $91 $92 reversed $35 $-1 #
face $-1 $-1 $93 $19 $-1 $94 forward single #
loop $-1 $95 $96 $37 #
cone-surface $-1 -13.508016482967449 20.059772019371355 2.3054994198584922 0 -0.66913061440640931 -0.74314481823134659 0.25 0 0 1 I I -0.70710678118654746 0.70710678118654746 0.25 forward I I I I #
loop $-1 $-1 $97 $24 #
coedge $-1 $61 $61 $98 $99 reversed $38 $-1 #
face $-1 $100 $101 $15 $-1 $102 reversed single #
loop $-1 $-1 $103 $40 #
plane-surface $-1 0 -24.598077124901469 0 0 1 0 0 0 1 forward_v I I I I #
coedge $-1 $104 $105 $106 $107 forward $41 $-1 #
coedge $-1 $108 $43 $109 $110 forward $26 $-1 #
coedge $-1 $43 $108 $111 $112 forward $26 $-1 #
coedge $-1 $113 $114 $43 $69 reversed $115 $-1 #
edge $-1 $116 -24.598077124901469 $117 24.598077124901469 $68 $118 forward 7 unknown #
face $-1 $119 $120 $16 $-1 $121 forward single #
loop $-1 $-1 $122 $44 #
plane-surface $-1 -33.89732406397772 -21.53990915004464 0 -1 0 0 0 0 1 forward_v I I I I #
coedge $-1 $123 $124 $125 $126 forward $45 $-1 #
coedge $-1 $127 $47 $128 $129 reversed $29 $-1 #
coedge $-1 $47 $127 $130 $131 reversed $29 $-1 #
coedge $-1 $124 $123 $47 $77 reversed $45 $-1 #
edge $-1 $132 -6.6012509902591354 $133 6.6012509902591354 $76 $134 forward 7 unknown #
face $-1 $135 $136 $17 $-1 $137 reversed single #
loop $-1 $-1 $138 $48 #
plane-surface $-1 -9.9584191397992043 51.070081096427572 103.1455232084257 -1 0 0 0 0.66913061440640931 0.74314481823134659 forward_v I I I I #
coedge $-1 $139 $140 $141 $142 reversed $49 $-1 #
coedge $-1 $83 $51 $143 $144 reversed $32 $-1 #
coedge $-1 $51 $82 $139 $145 reversed $32 $-1 #
coedge $-1 $141 $146 $51 $85 forward $147 $-1 #
edge $-1 $148 0.93696342331231719 $149 8.0208541855272415 $84 $150 forward 7 unknown #
loop $-1 $-1 $91 $52 #
plane-surface $-1 -16.170214490343636 -11.961789982749622 33.141539879295678 0 0.66913061440640931 0.74314481823134659 1 0 0 forward_v I I I I #
loop $-1 $-1 $151 $34 #
coedge $-1 $89 $89 $90 $152 reversed $53 $-1 #
coedge $-1 $90 $90 $89 $152 forward $55 $-1 #
coedge $-1 $91 $91 $56 $92 forward $86 $-1 #
edge $-1 $153 1.8513269379970678e-015 $153 6.2831853071796022 $91 $154 forward 7 unknown #
loop $-1 $-1 $98 $57 #
plane-surface $-1 -16.170214490343636 -11.961789982749622 33.141539879295678 0 0.66913061440640931 0.74314481823134659 1 0 0 forward_v I I I I #
loop $-1 $-1 $155 $37 #
coedge $-1 $96 $96 $97 $156 reversed $58 $-1 #
coedge $-1 $97 $97 $96 $156 forward $60 $-1 #
coedge $-1 $98 $98 $61 $99 forward $93 $-1 #
edge $-1 $157 1.8513269379970678e-015 $157 6.2831853071796022 $98 $158 forward 7 unknown #
face $-1 $159 $160 $15 $-1 $161 reversed single #
loop $-1 $-1 $162 $62 #
plane-surface $-1 -47.099826044495984 0 0 1 0 0 0 0 -1 forward_v I I I I #
coedge $-1 $163 $111 $164 $165 forward $63 $-1 #
coedge $-1 $166 $65 $163 $167 forward $41 $-1 #
coedge $-1 $65 $166 $168 $169 forward $41 $-1 #
coedge $-1 $114 $113 $65 $107 reversed $115 $-1 #
edge $-1 $170 -24.598077124901469 $171 24.598077124901469 $106 $172 forward 7 unknown #
coedge $-1 $67 $66 $173 $174 forward $26 $-1 #
coedge $-1 $175 $176 $66 $110 reversed $160 $-1 #
edge $-1 $117 -47.099826044495984 $177 47.099826044495984 $109 $178 forward 7 unknown #
coedge $-1 $103 $179 $67 $112 reversed $63 $-1 #
edge $-1 $180 -47.099826044495984 $116 47.099826044495984 $111 $181 forward 7 unknown #
coedge $-1 $106 $68 $179 $182 forward $115 $-1 #
coedge $-1 $68 $106 $175 $183 reversed $115 $-1 #
loop $-1 $-1 $113 $159 #
vertex $-1 $69 $184 #
vertex $-1 $69 $185 #
straight-curve $-1 47.099826044495984 0 6.6012509902591354 0 1 0 I I #
face $-1 $186 $187 $16 $-1 $188 reversed single #
loop $-1 $-1 $189 $70 #
plane-surface $-1 0 0 6.6012509902591354 0 0 1 1 0 0 forward_v I I I I #
coedge $-1 $190 $191 $192 $193 reversed $71 $-1 #
coedge $-1 $76 $73 $194 $195 reversed $45 $-1 #
coedge $-1 $73 $76 $196 $197 reversed $45 $-1 #
coedge $-1 $191 $190 $73 $126 reversed $71 $-1 #
edge $-1 $198 -6.6012509902591354 $199 6.6012509902591354 $125 $200 forward 7 unknown #
coedge $-1 $75 $74 $201 $202 reversed $29 $-1 #
coedge $-1 $194 $203 $74 $129 forward $187 $-1 #
edge $-1 $204 -13.828122549879149 $133 -7.7117866001654907 $128 $205 forward 7 unknown #
coedge $-1 $206 $196 $75 $131 forward $120 $-1 #
edge $-1 $132 7.7117866001654907 $207 13.828122549879149 $130 $208 forward 7 unknown #
vertex $-1 $131 $209 #
vertex $-1 $129 $210 #
straight-curve $-1 -37.439037149061903 -18.48174117518781 0 0 0 -1 I I #
face $-1 $-1 $147 $17 $-1 $211 forward single #
loop $-1 $-1 $212 $78 #
plane-surface $-1 0 24.598077124901469 0 0 -1 0 0 0 -1 forward_v I I I I #
coedge $-1 $213 $214 $215 $216 reversed $79 $-1 #
coedge $-1 $217 $81 $83 $145 forward $49 $-1 #
coedge $-1 $81 $217 $213 $218 forward $49 $-1 #
coedge $-1 $215 $84 $81 $142 forward $147 $-1 #
edge $-1 $149 -14.296902595716249 $219 -1.8733118946273866 $141 $220 forward 7 unknown #
coedge $-1 $221 $222 $82 $144 forward $136 $-1 #
edge $-1 $223 -51.349874644520291 $148 -44.971510613953711 $143 $224 forward 7 unknown #
edge $-1 $149 39.663838894265254 $223 49.19615424980293 $83 $225 forward 7 unknown #
coedge $-1 $84 $215 $221 $226 forward $147 $-1 #
loop $-1 $-1 $215 $135 #
vertex $-1 $144 $227 #
vertex $-1 $85 $228 #
straight-curve $-1 -22.382009840888067 25.535040548213786 6.601250990259139 0 -1 0 I I #
coedge $-1 $151 $151 $-1 $229 reversed $88 $-1 #
edge $-1 $230 0 $230 6.2831853071796004 $89 $231 forward 7 unknown #
vertex $-1 $92 $232 #
ellipse-curve $-1 -18.832412497719819 21.056131743794001 3.4120689749758473 0 0.66913061440640931 0.74314481823134659 0.5 0 0 1 I I #
coedge $-1 $155 $155 $-1 $233 reversed $95 $-1 #
edge $-1 $234 0 $234 6.2831853071796004 $96 $235 forward 7 unknown #
vertex $-1 $99 $236 #
ellipse-curve $-1 -13.508016482967449 21.056131743794001 3.4120689749758473 0 0.66913061440640931 0.74314481823134659 0.5 0 0 1 I I #
face $-1 $-1 $115 $15 $-1 $237 reversed single #
loop $-1 $-1 $175 $100 #
plane-surface $-1 0 24.598077124901469 0 0 -1 0 0 0 -1 forward_v I I I I #
coedge $-1 $238 $173 $176 $239 forward $101 $-1 #
coedge $-1 $179 $103 $104 $167 reversed $63 $-1 #
coedge $-1 $173 $238 $103 $165 reversed $101 $-1 #
edge $-1 $180 -6.6012509902591354 $240 6.6012509902591354 $164 $241 forward 7 unknown #
coedge $-1 $105 $104 $238 $242 forward $41 $-1 #
edge $-1 $171 -47.099826044495984 $240 47.099826044495984 $163 $243 forward 7 unknown #
coedge $-1 $176 $175 $105 $169 reversed $160 $-1 #
edge $-1 $244 -47.099826044495984 $170 47.099826044495984 $168 $245 forward 7 unknown #
vertex $-1 $107 $246 #
vertex $-1 $182 $247 #
straight-curve $-1 47.099826044495984 0 -6.6012509902591354 0 -1 0 I I #
coedge $-1 $162 $164 $108 $174 reversed $101 $-1 #
edge $-1 $177 -24.598077124901469 $180 24.598077124901469 $173 $248 forward 7 unknown #
coedge $-1 $168 $109 $114 $183 forward $160 $-1 #
coedge $-1 $109 $168 $162 $239 reversed $160 $-1 #
vertex $-1 $110 $249 #
straight-curve $-1 0 24.598077124901469 6.6012509902591354 -1 0 0 I I #
coedge $-1 $111 $163 $113 $182 reversed $63 $-1 #
vertex $-1 $174 $250 #
straight-curve $-1 0 -24.598077124901469 6.6012509902591354 1 0 0 I I #
edge $-1 $116 -6.6012509902591354 $171 6.6012509902591354 $113 $251 forward 7 unknown #
edge $-1 $117 -6.6012509902591354 $170 6.6012509902591354 $114 $252 forward 7 unknown #
point $-1 47.099826044495984 -24.598077124901469 6.6012509902591354 #
point $-1 47.099826044495984 24.598077124901469 6.6012509902591354 #
face $-1 $-1 $253 $16 $-1 $254 reversed single #
loop $-1 $-1 $255 $119 #
plane-surface $-1 0 0 -6.6012509902591354 0 0 1 1 0 0 forward_v I I I I #
coedge $-1 $196 $206 $191 $256 forward $120 $-1 #
coedge $-1 $125 $122 $255 $257 reversed $71 $-1 #
coedge $-1 $122 $125 $189 $256 reversed $71 $-1 #
coedge $-1 $258 $259 $122 $193 forward $253 $-1 #
edge $-1 $260 -6.6012509902591354 $261 6.6012509902591354 $192 $262 forward 7 unknown #
coedge $-1 $255 $128 $123 $195 forward $187 $-1 #
edge $-1 $133 -19.604946845801997 $199 -16.063233760717814 $194 $263 forward 7 unknown #
coedge $-1 $130 $189 $124 $197 forward $120 $-1 #
edge $-1 $198 16.063233760717814 $132 19.604946845801997 $196 $264 forward 7 unknown #
vertex $-1 $197 $265 #
vertex $-1 $195 $266 #
straight-curve $-1 -33.89732406397772 -18.48174117518781 0 0 0 -1 I I #
coedge $-1 $259 $258 $127 $202 forward $253 $-1 #
edge $-1 $207 -6.6012509902591354 $204 6.6012509902591354 $201 $267 forward 7 unknown #
coedge $-1 $128 $255 $259 $268 forward $187 $-1 #
vertex $-1 $129 $269 #
straight-curve $-1 -37.439037149061903 -10.76995457502232 -6.6012509902591354 0 1 0 I I #
coedge $-1 $189 $130 $258 $270 forward $120 $-1 #
vertex $-1 $270 $271 #
straight-curve $-1 -37.439037149061903 -10.76995457502232 6.6012509902591354 0 -1 0 I I #
point $-1 -37.439037149061903 -18.48174117518781 6.6012509902591354 #
point $-1 -37.439037149061903 -18.48174117518781 -6.6012509902591354 #
plane-surface $-1 0 0 6.6012509902591354 0 0 1 1 0 0 forward_v I I I I #
coedge $-1 $222 $221 $214 $272 forward $136 $-1 #
coedge $-1 $214 $138 $140 $218 reversed $79 $-1 #
coedge $-1 $138 $213 $212 $272 reversed $79 $-1 #
coedge $-1 $146 $141 $138 $216 forward $147 $-1 #
edge $-1 $219 -8.0208541855272415 $273 -0.93696342331231719 $215 $274 forward 7 unknown #
coedge $-1 $140 $139 $222 $275 reversed $49 $-1 #
edge $-1 $276 -49.19615424980293 $219 -39.663838894265254 $213 $277 forward 7 unknown #
vertex $-1 $142 $278 #
straight-curve $-1 -8.0851072451718178 17.514186362686544 6.6012509902591319 1 0 0 I I #
coedge $-1 $212 $143 $146 $226 reversed $136 $-1 #
coedge $-1 $143 $212 $217 $275 forward $136 $-1 #
vertex $-1 $144 $279 #
straight-curve $-1 -22.382009840888067 24.598077124901469 51.57276160421285 0 0 1 I I #
straight-curve $-1 -22.382009840888067 -11.961789982749622 33.141539879295678 0 0.74314481823134659 -0.66913061440640931 I I #
edge $-1 $273 9.9584191397992043 $148 22.382009840888067 $221 $280 forward 7 unknown #
point $-1 -22.382009840888067 24.598077124901469 6.6012509902591354 #
point $-1 -22.382009840888067 17.514186362686544 6.6012509902591354 #
edge $-1 $281 1 $281 0 $151 $-1 forward 7 unknown #
vertex $-1 $152 $282 #
ellipse-curve $-1 -18.832412497719819 20.227054672972958 2.4912856244163288 0 0.66913061440640931 0.74314481823134659 0.5 0 0 1 I I #
point $-1 -18.332412497719819 21.056131743793998 3.4120689749758419 #
edge $-1 $283 1 $283 0 $155 $-1 forward 7 unknown #
vertex $-1 $156 $284 #
ellipse-curve $-1 -13.508016482967449 20.227054672972958 2.4912856244163288 0 0.66913061440640931 0.74314481823134659 0.5 0 0 1 I I #
point $-1 -13.008016482967449 21.056131743793998 3.4120689749758419 #
plane-surface $-1 47.099826044495984 0 0 -1 0 0 0 0 1 forward_v I I I I #
coedge $-1 $164 $162 $166 $242 reversed $101 $-1 #
edge $-1 $177 -6.6012509902591354 $244 6.6012509902591354 $176 $285 forward 7 unknown #
vertex $-1 $242 $286 #
straight-curve $-1 -47.099826044495984 -24.598077124901469 0 0 0 -1 I I #
edge $-1 $240 -24.598077124901469 $244 24.598077124901469 $238 $287 forward 7 unknown #
straight-curve $-1 0 -24.598077124901469 -6.6012509902591354 -1 0 0 I I #
vertex $-1 $169 $288 #
straight-curve $-1 0 24.598077124901469 -6.6012509902591354 1 0 0 I I #
point $-1 47.099826044495984 24.598077124901469 -6.6012509902591354 #
point $-1 47.099826044495984 -24.598077124901469 -6.6012509902591354 #
straight-curve $-1 -47.099826044495984 0 6.6012509902591354 0 -1 0 I I #
point $-1 -47.099826044495984 24.598077124901469 6.6012509902591354 #
point $-1 -47.099826044495984 -24.598077124901469 6.6012509902591354 #
straight-curve $-1 47.099826044495984 -24.598077124901469 0 0 0 -1 I I #
straight-curve $-1 47.099826044495984 24.598077124901469 0 0 0 -1 I I #
loop $-1 $-1 $192 $186 #
plane-surface $-1 0 -24.598077124901469 0 0 1 0 0 0 1 forward_v I I I I #
coedge $-1 $203 $194 $190 $257 forward $187 $-1 #
edge $-1 $261 -13.828122549879149 $198 -7.7117866001654907 $189 $289 forward 7 unknown #
edge $-1 $199 7.7117866001654907 $260 13.828122549879149 $255 $290 forward 7 unknown #
coedge $-1 $201 $192 $206 $270 reversed $253 $-1 #
coedge $-1 $192 $201 $203 $268 reversed $253 $-1 #
vertex $-1 $268 $291 #
vertex $-1 $193 $292 #
straight-curve $-1 -33.89732406397772 -24.598077124901469 0 0 0 1 I I #
straight-curve $-1 -17.834090303259906 -18.48174117518781 -6.6012509902591354 1 0 0 I I #
straight-curve $-1 -17.834090303259906 -18.48174117518781 6.6012509902591354 -1 0 0 I I #
point $-1 -33.89732406397772 -18.48174117518781 6.6012509902591354 #
point $-1 -33.89732406397772 -18.48174117518781 -6.6012509902591354 #
straight-curve $-1 -37.439037149061903 -24.598077124901469 0 0 0 -1 I I #
edge $-1 $260 33.89732406397772 $204 37.439037149061903 $259 $293 forward 7 unknown #
point $-1 -37.439037149061903 -24.598077124901469 -6.6012509902591354 #
edge $-1 $207 -37.439037149061903 $261 -33.89732406397772 $258 $294 forward 7 unknown #
point $-1 -37.439037149061903 -24.598077124901469 6.6012509902591354 #
edge $-1 $273 44.971510613953711 $276 51.349874644520291 $212 $295 forward 7 unknown #
vertex $-1 $226 $296 #
straight-curve $-1 -9.9584191397992043 25.535040548213786 6.601250990259139 0 1 0 I I #
edge $-1 $276 1.8733118946273866 $223 14.296902595716249 $222 $297 forward 7 unknown #
vertex $-1 $275 $298 #
straight-curve $-1 -9.9584191397992043 -11.961789982749622 33.141539879295678 0 -0.74314481823134659 0.66913061440640931 I I #
point $-1 -9.9584191397992043 17.514186362686544 6.6012509902591354 #
point $-1 -22.382009840888067 24.598077124901465 0.22288695969255912 #
straight-curve $-1 0 24.598077124901469 6.6012509902591354 -1 0 0 I I #
vertex $-1 $229 $299 #
point $-1 -18.332412497719819 20.227054672972958 2.4912856244163288 #
vertex $-1 $233 $300 #
point $-1 -13.008016482967449 20.227054672972958 2.4912856244163288 #
straight-curve $-1 -47.099826044495984 24.598077124901469 0 0 0 -1 I I #
point $-1 -47.099826044495984 -24.598077124901469 -6.6012509902591354 #
straight-curve $-1 -47.099826044495984 0 -6.6012509902591354 0 1 0 I I #
point $-1 -47.099826044495984 24.598077124901469 -6.6012509902591354 #
straight-curve $-1 -33.89732406397772 -10.76995457502232 6.6012509902591354 0 1 0 I I #
straight-curve $-1 -33.89732406397772 -10.76995457502232 -6.6012509902591354 0 -1 0 I I #
point $-1 -33.89732406397772 -24.598077124901469 -6.6012509902591354 #
point $-1 -33.89732406397772 -24.598077124901469 6.6012509902591354 #
straight-curve $-1 0 -24.598077124901469 -6.6012509902591354 -1 0 0 I I #
straight-curve $-1 0 -24.598077124901469 6.6012509902591354 1 0 0 I I #
straight-curve $-1 -9.9584191397992043 24.598077124901469 51.57276160421285 0 0 -1 I I #
point $-1 -9.9584191397992043 24.598077124901469 6.6012509902591354 #
straight-curve $-1 -8.0851072451718178 24.598077124901465 0.22288695969256267 -1 0 0 I I #
point $-1 -9.9584191397992043 24.598077124901465 0.22288695969255912 #
point $-1 -18.832412497719819 19.892489365769752 2.1197132153006555 #
point $-1 -13.508016482967449 19.892489365769752 2.1197132153006555 #
End-of-ACIS-data 