500 0 19 0           
7 Unknown 11 ACIS 5.0 NT 24 Fri Mar 26 15:00:20 1999 
-1 9.9999999999999995e-007 1e-010 
body $-1 $19 $-1 $20 #
body $-1 $21 $-1 $22 #
body $-1 $23 $-1 $24 #
body $-1 $25 $-1 $26 #
body $-1 $27 $-1 $28 #
body $-1 $29 $-1 $30 #
body $-1 $31 $-1 $32 #
body $-1 $33 $-1 $34 #
body $-1 $35 $-1 $36 #
body $-1 $37 $-1 $38 #
body $-1 $39 $-1 $40 #
body $-1 $41 $-1 $42 #
body $-1 $43 $-1 $44 #
body $-1 $45 $-1 $46 #
body $-1 $47 $-1 $48 #
body $-1 $49 $-1 $50 #
body $-1 $51 $-1 $52 #
body $-1 $53 $-1 $54 #
body $-1 $55 $-1 $56 #
lump $-1 $-1 $57 $0 #
transform $-1 1 0 0 0 1 0 0 0 1 49.986877040925322 24.10588808672108 4.9240250905496854 1 rotate no_reflect no_shear #
lump $-1 $-1 $58 $1 #
transform $-1 1 0 0 0 1 0 0 0 1 49.986877040925322 24.10588808672108 4.9240250905496854 1 rotate no_reflect no_shear #
lump $-1 $-1 $59 $2 #
transform $-1 1 0 0 0 1 0 0 0 1 49.986877040925322 24.10588808672108 4.9240250905496854 1 rotate no_reflect no_shear #
lump $-1 $-1 $60 $3 #
transform $-1 1 0 0 0 1 0 0 0 1 49.986877040925322 24.10588808672108 4.9240250905496854 1 rotate no_reflect no_shear #
lump $-1 $-1 $61 $4 #
transform $-1 1 0 0 0 1 0 0 0 1 49.986877040925322 24.10588808672108 4.9240250905496854 1 rotate no_reflect no_shear #
lump $-1 $-1 $62 $5 #
transform $-1 1 0 0 0 1 0 0 0 1 49.986877040925322 24.10588808672108 4.9240250905496854 1 rotate no_reflect no_shear #
lump $-1 $-1 $63 $6 #
transform $-1 1 0 0 0 1 0 0 0 1 49.986877040925322 24.10588808672108 4.9240250905496854 1 rotate no_reflect no_shear #
lump $-1 $-1 $64 $7 #
transform $-1 1 0 0 0 1 0 0 0 1 49.986877040925322 24.10588808672108 4.9240250905496854 1 rotate no_reflect no_shear #
lump $-1 $-1 $65 $8 #
transform $-1 1 0 0 0 1 0 0 0 1 49.986877040925322 24.10588808672108 4.9240250905496854 1 rotate no_reflect no_shear #
lump $-1 $-1 $66 $9 #
transform $-1 1 0 0 0 1 0 0 0 1 49.986877040925322 24.10588808672108 4.9240250905496854 1 rotate no_reflect no_shear #
lump $-1 $-1 $67 $10 #
transform $-1 1 0 0 0 1 0 0 0 1 49.986877040925322 24.10588808672108 4.9240250905496854 1 rotate no_reflect no_shear #
lump $-1 $-1 $68 $11 #
transform $-1 1 0 0 0 1 0 0 0 1 49.986877040925322 24.10588808672108 4.9240250905496854 1 rotate no_reflect no_shear #
lump $-1 $-1 $69 $12 #
transform $-1 1 0 0 0 1 0 0 0 1 49.986877040925322 24.10588808672108 4.9240250905496854 1 rotate no_reflect no_shear #
lump $-1 $-1 $70 $13 #
transform $-1 1 0 0 0 1 0 0 0 1 49.986877040925322 24.10588808672108 4.9240250905496854 1 rotate no_reflect no_shear #
lump $-1 $-1 $71 $14 #
transform $-1 1 0 0 0 1 0 0 0 1 49.986877040925322 24.10588808672108 4.9240250905496854 1 rotate no_reflect no_shear #
lump $-1 $-1 $72 $15 #
transform $-1 1 0 0 0 1 0 0 0 1 49.986877040925322 24.10588808672108 4.9240250905496854 1 rotate no_reflect no_shear #
lump $-1 $-1 $73 $16 #
transform $-1 1 0 0 0 1 0 0 0 1 49.986877040925322 24.10588808672108 4.9240250905496854 1 rotate no_reflect no_shear #
lump $-1 $-1 $74 $17 #
transform $-1 1 0 0 0 1 0 0 0 1 49.986877040925322 24.10588808672108 4.9240250905496854 1 rotate no_reflect no_shear #
lump $-1 $-1 $75 $18 #
transform $-1 1 0 0 0 1 0 0 0 1 49.986877040925322 24.10588808672108 4.9240250905496854 1 rotate no_reflect no_shear #
shell $-1 $-1 $-1 $76 $-1 $19 #
shell $-1 $-1 $-1 $77 $-1 $21 #
shell $-1 $-1 $-1 $78 $-1 $23 #
shell $-1 $-1 $-1 $79 $-1 $25 #
shell $-1 $-1 $-1 $80 $-1 $27 #
shell $-1 $-1 $-1 $81 $-1 $29 #
shell $-1 $-1 $-1 $82 $-1 $31 #
shell $-1 $-1 $-1 $83 $-1 $33 #
shell $-1 $-1 $-1 $84 $-1 $35 #
shell $-1 $-1 $-1 $85 $-1 $37 #
shell $-1 $-1 $-1 $86 $-1 $39 #
shell $-1 $-1 $-1 $87 $-1 $41 #
shell $-1 $-1 $-1 $88 $-1 $43 #
shell $-1 $-1 $-1 $89 $-1 $45 #
shell $-1 $-1 $-1 $90 $-1 $47 #
shell $-1 $-1 $-1 $91 $-1 $49 #
shell $-1 $-1 $-1 $92 $-1 $51 #
shell $-1 $-1 $-1 $93 $-1 $53 #
shell $-1 $-1 $-1 $94 $-1 $55 #
face $-1 $95 $96 $57 $-1 $97 forward single #
face $-1 $98 $99 $58 $-1 $100 forward single #
face $-1 $101 $102 $59 $-1 $103 forward single #
face $-1 $104 $105 $60 $-1 $106 reversed single #
face $-1 $107 $108 $61 $-1 $109 forward single #
face $-1 $110 $111 $62 $-1 $112 forward single #
face $-1 $113 $114 $63 $-1 $115 forward single #
face $-1 $116 $117 $64 $-1 $118 reversed single #
face $-1 $119 $120 $65 $-1 $121 forward single #
face $-1 $122 $123 $66 $-1 $124 forward single #
face $-1 $125 $126 $67 $-1 $127 reversed single #
face $-1 $128 $129 $68 $-1 $130 forward single #
face $-1 $131 $132 $69 $-1 $133 forward single #
face $-1 $134 $135 $70 $-1 $136 reversed single #
face $-1 $137 $138 $71 $-1 $139 forward single #
face $-1 $140 $141 $72 $-1 $142 forward single #
face $-1 $143 $144 $73 $-1 $145 reversed single #
face $-1 $146 $147 $74 $-1 $148 forward single #
face $-1 $149 $150 $75 $-1 $151 forward single #
face $-1 $152 $153 $57 $-1 $154 reversed single #
loop $-1 $-1 $155 $76 #
plane-surface $-1 0 0 4.9240250905496854 0 0 1 1 0 0 forward_v I I I I #
face $-1 $156 $157 $58 $-1 $158 reversed single #
loop $-1 $-1 $159 $77 #
plane-surface $-1 -47.202922186826328 0 3.4414338254134531 0 0 1 1 0 0 forward_v I I I I #
face $-1 $160 $161 $59 $-1 $162 reversed single #
loop $-1 $-1 $163 $78 #
plane-surface $-1 47.202922186826328 0 3.4414338254134531 0 0 1 1 0 0 forward_v I I I I #
face $-1 $164 $165 $60 $-1 $166 reversed single #
loop $-1 $-1 $167 $79 #
plane-surface $-1 -21.848487206489242 66.140892362940789 104.31521563831805 -1 0 0 0 0.74314483375859142 0.66913059716165679 forward_v I I I I #
face $-1 $168 $169 $61 $-1 $170 forward single #
loop $-1 $171 $172 $80 #
cone-surface $-1 -39.904871307479716 22.233954615158208 2.9231399864028269 0 -0.74314483375859142 -0.66913059716165679 0.5 0 0 1 I I 0 1 0.5 forward I I I I #
face $-1 $173 $174 $62 $-1 $175 forward single #
loop $-1 $176 $177 $81 #
cone-surface $-1 -33.133727269608293 22.233954615158208 2.9231399864028269 0 -0.74314483375859142 -0.66913059716165679 0.5 0 0 1 I I 0 1 0.5 forward I I I I #
face $-1 $178 $179 $63 $-1 $180 forward single #
loop $-1 $181 $182 $82 #
cone-surface $-1 -26.362583231736867 22.233954615158208 2.9231399864028269 0 -0.74314483375859142 -0.66913059716165679 0.5 0 0 1 I I 0 1 0.5 forward I I I I #
face $-1 $183 $184 $64 $-1 $185 reversed single #
loop $-1 $-1 $186 $83 #
plane-surface $-1 -32.46724262190839 -78.555497750088577 85.636424926917854 -1 0 0 0 -0.54463904215088732 0.83867056331134215 forward_v I I I I #
face $-1 $187 $188 $65 $-1 $189 forward single #
loop $-1 $190 $191 $84 #
cone-surface $-1 -38.837355438814328 -21.121507891174744 2.4761989277792105 0 0.54463904215088732 -0.83867056331134215 1 0 0 1 I I 0 1 1 forward I I I I #
face $-1 $192 $193 $66 $-1 $194 forward single #
loop $-1 $195 $196 $85 #
cone-surface $-1 -35.015287748670765 -21.121507891174744 2.4761989277792105 0 0.54463904215088732 -0.83867056331134215 1 0 0 1 I I 0 1 1 forward I I I I #
face $-1 $197 $198 $67 $-1 $199 reversed single #
loop $-1 $-1 $200 $86 #
plane-surface $-1 -7.8496948927466885 -78.555497750088577 85.636424926917854 -1 0 0 0 -0.54463904215088732 0.83867056331134215 forward_v I I I I #
face $-1 $201 $202 $68 $-1 $203 forward single #
loop $-1 $204 $205 $87 #
cone-surface $-1 -14.219807709652628 -21.121507891174744 2.4761989277792105 0 0.54463904215088732 -0.83867056331134215 1 0 0 1 I I 0 1 1 forward I I I I #
face $-1 $206 $207 $69 $-1 $208 forward single #
loop $-1 $209 $210 $88 #
cone-surface $-1 -10.397740019509065 -21.121507891174744 2.4761989277792105 0 0.54463904215088732 -0.83867056331134215 1 0 0 1 I I 0 1 1 forward I I I I #
face $-1 $211 $212 $70 $-1 $213 reversed single #
loop $-1 $-1 $214 $89 #
plane-surface $-1 16.76785283641501 -78.555497750088577 85.636424926917854 -1 0 0 0 -0.54463904215088732 0.83867056331134215 forward_v I I I I #
face $-1 $215 $216 $71 $-1 $217 forward single #
loop $-1 $218 $219 $90 #
cone-surface $-1 10.397740019509072 -21.121507891174744 2.4761989277792105 0 0.54463904215088732 -0.83867056331134215 1 0 0 1 I I 0 1 1 forward I I I I #
face $-1 $220 $221 $72 $-1 $222 forward single #
loop $-1 $223 $224 $91 #
cone-surface $-1 14.219807709652628 -21.121507891174744 2.4761989277792105 0 0.54463904215088732 -0.83867056331134215 1 0 0 1 I I 0 1 1 forward I I I I #
face $-1 $225 $226 $73 $-1 $227 reversed single #
loop $-1 $-1 $228 $92 #
plane-surface $-1 41.385400565576717 -78.555497750088577 85.636424926917854 -1 0 0 0 -0.54463904215088732 0.83867056331134215 forward_v I I I I #
face $-1 $229 $230 $74 $-1 $231 forward single #
loop $-1 $232 $233 $93 #
cone-surface $-1 35.015287748670772 -21.121507891174744 2.4761989277792105 0 0.54463904215088732 -0.83867056331134215 1 0 0 1 I I 0 1 1 forward I I I I #
face $-1 $234 $235 $75 $-1 $236 forward single #
loop $-1 $237 $238 $94 #
cone-surface $-1 38.837355438814328 -21.121507891174744 2.4761989277792105 0 0.54463904215088732 -0.83867056331134215 1 0 0 1 I I 0 1 1 forward I I I I #
face $-1 $239 $240 $57 $-1 $241 reversed single #
loop $-1 $-1 $242 $95 #
plane-surface $-1 0 0 -4.9240250905496854 0 0 1 1 0 0 forward_v I I I I #
coedge $-1 $243 $244 $245 $246 forward $96 $-1 #
face $-1 $247 $248 $58 $-1 $249 reversed single #
loop $-1 $-1 $250 $98 #
plane-surface $-1 -47.202922186826328 0 0.44143382541345311 0 0 1 1 0 0 forward_v I I I I #
coedge $-1 $251 $252 $253 $254 forward $99 $-1 #
face $-1 $255 $256 $59 $-1 $257 reversed single #
loop $-1 $-1 $258 $101 #
plane-surface $-1 47.202922186826328 0 0.44143382541345311 0 0 1 1 0 0 forward_v I I I I #
coedge $-1 $259 $260 $261 $262 reversed $102 $-1 #
face $-1 $263 $264 $60 $-1 $265 forward single #
loop $-1 $-1 $266 $104 #
plane-surface $-1 -33.133727269608286 -8.1540864944384026 37.419717869036702 0 0.74314483375859142 0.66913059716165679 1 0 0 forward_v I I I I #
coedge $-1 $267 $268 $269 $270 reversed $105 $-1 #
face $-1 $-1 $271 $61 $-1 $272 forward single #
loop $-1 $273 $274 $107 #
cone-surface $-1 -39.904871307479716 21.676595989839264 2.4212920385315844 0 -0.74314483375859142 -0.66913059716165679 0.25 0 0 1 I I -0.70710678118654746 0.70710678118654746 0.25 forward I I I I #
loop $-1 $-1 $275 $80 #
coedge $-1 $172 $172 $276 $277 reversed $108 $-1 #
face $-1 $-1 $278 $62 $-1 $279 forward single #
loop $-1 $280 $281 $110 #
cone-surface $-1 -33.133727269608293 21.676595989839264 2.4212920385315844 0 -0.74314483375859142 -0.66913059716165679 0.25 0 0 1 I I -0.70710678118654746 0.70710678118654746 0.25 forward I I I I #
loop $-1 $-1 $282 $81 #
coedge $-1 $177 $177 $283 $284 reversed $111 $-1 #
face $-1 $-1 $285 $63 $-1 $286 forward single #
loop $-1 $287 $288 $113 #
cone-surface $-1 -26.362583231736867 21.676595989839264 2.4212920385315844 0 -0.74314483375859142 -0.66913059716165679 0.25 0 0 1 I I -0.70710678118654746 0.70710678118654746 0.25 forward I I I I #
loop $-1 $-1 $289 $82 #
coedge $-1 $182 $182 $290 $291 reversed $114 $-1 #
face $-1 $292 $293 $64 $-1 $294 reversed single #
loop $-1 $-1 $295 $116 #
plane-surface $-1 -36.92632159374255 -24.10588808672108 1.7913802747425791 0 -0.54463904215088732 0.83867056331134215 1 0 0 forward_v I I I I #
coedge $-1 $296 $297 $298 $299 reversed $117 $-1 #
face $-1 $-1 $300 $65 $-1 $301 forward single #
loop $-1 $302 $303 $119 #
cone-surface $-1 -38.837355438814328 -20.276733127593193 1.1753598912566225 0 0.54463904215088732 -0.83867056331134215 0.5 0 0 1 I I -0.70710678118654746 0.70710678118654746 0.5 forward I I I I #
loop $-1 $-1 $304 $84 #
coedge $-1 $191 $191 $305 $306 reversed $120 $-1 #
face $-1 $-1 $307 $66 $-1 $308 forward single #
loop $-1 $309 $310 $122 #
cone-surface $-1 -35.015287748670765 -20.276733127593193 1.1753598912566225 0 0.54463904215088732 -0.83867056331134215 0.5 0 0 1 I I -0.70710678118654746 0.70710678118654746 0.5 forward I I I I #
loop $-1 $-1 $311 $85 #
coedge $-1 $196 $196 $312 $313 reversed $123 $-1 #
face $-1 $314 $315 $67 $-1 $316 reversed single #
loop $-1 $-1 $317 $125 #
plane-surface $-1 -12.30877386458085 -24.10588808672108 1.7913802747425791 0 -0.54463904215088732 0.83867056331134215 1 0 0 forward_v I I I I #
coedge $-1 $318 $319 $320 $321 reversed $126 $-1 #
face $-1 $-1 $322 $68 $-1 $323 forward single #
loop $-1 $324 $325 $128 #
cone-surface $-1 -14.219807709652628 -20.276733127593193 1.1753598912566225 0 0.54463904215088732 -0.83867056331134215 0.5 0 0 1 I I -0.70710678118654746 0.70710678118654746 0.5 forward I I I I #
loop $-1 $-1 $326 $87 #
coedge $-1 $205 $205 $327 $328 reversed $129 $-1 #
face $-1 $-1 $329 $69 $-1 $330 forward single #
loop $-1 $331 $332 $131 #
cone-surface $-1 -10.397740019509065 -20.276733127593193 1.1753598912566225 0 0.54463904215088732 -0.83867056331134215 0.5 0 0 1 I I -0.70710678118654746 0.70710678118654746 0.5 forward I I I I #
loop $-1 $-1 $333 $88 #
coedge $-1 $210 $210 $334 $335 reversed $132 $-1 #
face $-1 $336 $337 $70 $-1 $338 reversed single #
loop $-1 $-1 $339 $134 #
plane-surface $-1 12.30877386458085 -24.10588808672108 1.7913802747425791 0 -0.54463904215088732 0.83867056331134215 1 0 0 forward_v I I I I #
coedge $-1 $340 $341 $342 $343 reversed $135 $-1 #
face $-1 $-1 $344 $71 $-1 $345 forward single #
loop $-1 $346 $347 $137 #
cone-surface $-1 10.397740019509072 -20.276733127593193 1.1753598912566225 0 0.54463904215088732 -0.83867056331134215 0.5 0 0 1 I I -0.70710678118654746 0.70710678118654746 0.5 forward I I I I #
loop $-1 $-1 $348 $90 #
coedge $-1 $219 $219 $349 $350 reversed $138 $-1 #
face $-1 $-1 $351 $72 $-1 $352 forward single #
loop $-1 $353 $354 $140 #
cone-surface $-1 14.219807709652628 -20.276733127593193 1.1753598912566225 0 0.54463904215088732 -0.83867056331134215 0.5 0 0 1 I I -0.70710678118654746 0.70710678118654746 0.5 forward I I I I #
loop $-1 $-1 $355 $91 #
coedge $-1 $224 $224 $356 $357 reversed $141 $-1 #
face $-1 $358 $359 $73 $-1 $360 reversed single #
loop $-1 $-1 $361 $143 #
plane-surface $-1 36.926321593742557 -24.10588808672108 1.7913802747425791 0 -0.54463904215088732 0.83867056331134215 1 0 0 forward_v I I I I #
coedge $-1 $362 $363 $364 $365 reversed $144 $-1 #
face $-1 $-1 $366 $74 $-1 $367 forward single #
loop $-1 $368 $369 $146 #
cone-surface $-1 35.015287748670772 -20.276733127593193 1.1753598912566225 0 0.54463904215088732 -0.83867056331134215 0.5 0 0 1 I I -0.70710678118654746 0.70710678118654746 0.5 forward I I I I #
loop $-1 $-1 $370 $93 #
coedge $-1 $233 $233 $371 $372 reversed $147 $-1 #
face $-1 $-1 $373 $75 $-1 $374 forward single #
loop $-1 $375 $376 $149 #
cone-surface $-1 38.837355438814328 -20.276733127593193 1.1753598912566225 0 0.54463904215088732 -0.83867056331134215 0.5 0 0 1 I I -0.70710678118654746 0.70710678118654746 0.5 forward I I I I #
loop $-1 $-1 $377 $94 #
coedge $-1 $238 $238 $378 $379 reversed $150 $-1 #
face $-1 $380 $381 $57 $-1 $382 reversed single #
loop $-1 $-1 $383 $152 #
plane-surface $-1 0 -24.10588808672108 0 0 1 0 0 0 1 forward_v I I I I #
coedge $-1 $384 $385 $386 $387 forward $153 $-1 #
coedge $-1 $388 $155 $389 $390 forward $96 $-1 #
coedge $-1 $155 $388 $391 $392 forward $96 $-1 #
coedge $-1 $393 $394 $155 $246 reversed $395 $-1 #
edge $-1 $396 -24.10588808672108 $397 24.10588808672108 $245 $398 forward 7 unknown #
face $-1 $399 $400 $58 $-1 $401 reversed single #
loop $-1 $-1 $253 $156 #
plane-surface $-1 -44.418967332727334 0 1.9414338254134531 -1 0 0 0 0 1 forward_v I I I I #
coedge $-1 $402 $403 $404 $405 forward $157 $-1 #
coedge $-1 $406 $159 $407 $408 reversed $99 $-1 #
coedge $-1 $159 $406 $409 $410 reversed $99 $-1 #
coedge $-1 $411 $412 $159 $254 reversed $248 $-1 #
edge $-1 $413 -24.10588808672108 $414 24.10588808672108 $253 $415 forward 7 unknown #
face $-1 $416 $417 $59 $-1 $418 reversed single #
loop $-1 $-1 $419 $160 #
plane-surface $-1 44.418967332727334 0 1.9414338254134531 1 0 0 0 0 -1 forward_v I I I I #
coedge $-1 $420 $421 $422 $423 reversed $161 $-1 #
coedge $-1 $424 $163 $425 $426 reversed $102 $-1 #
coedge $-1 $163 $424 $427 $428 reversed $102 $-1 #
coedge $-1 $429 $430 $163 $262 forward $431 $-1 #
edge $-1 $432 -24.10588808672108 $433 24.10588808672108 $261 $434 forward 7 unknown #
face $-1 $435 $436 $60 $-1 $437 reversed single #
loop $-1 $-1 $438 $164 #
plane-surface $-1 0 0 4.9240250905496854 0 0 1 1 0 0 forward_v I I I I #
coedge $-1 $439 $440 $441 $442 reversed $165 $-1 #
coedge $-1 $268 $167 $443 $444 reversed $105 $-1 #
coedge $-1 $167 $267 $439 $445 reversed $105 $-1 #
coedge $-1 $441 $446 $167 $270 forward $436 $-1 #
edge $-1 $447 47.233582728609342 $448 50.566222339741408 $269 $449 forward 7 unknown #
loop $-1 $-1 $276 $168 #
plane-surface $-1 -33.133727269608286 -8.1540864944384026 37.419717869036702 0 0.74314483375859142 0.66913059716165679 1 0 0 forward_v I I I I #
loop $-1 $-1 $450 $107 #
coedge $-1 $274 $274 $275 $451 reversed $169 $-1 #
coedge $-1 $275 $275 $274 $451 forward $171 $-1 #
coedge $-1 $276 $276 $172 $277 forward $271 $-1 #
edge $-1 $452 -1.0518055631356247e-015 $452 6.2831853071795996 $276 $453 forward 7 unknown #
loop $-1 $-1 $283 $173 #
plane-surface $-1 -33.133727269608286 -8.1540864944384026 37.419717869036702 0 0.74314483375859142 0.66913059716165679 1 0 0 forward_v I I I I #
loop $-1 $-1 $454 $110 #
coedge $-1 $281 $281 $282 $455 reversed $174 $-1 #
coedge $-1 $282 $282 $281 $455 forward $176 $-1 #
coedge $-1 $283 $283 $177 $284 forward $278 $-1 #
edge $-1 $456 -1.0518055631356247e-015 $456 6.2831853071795996 $283 $457 forward 7 unknown #
loop $-1 $-1 $290 $178 #
plane-surface $-1 -33.133727269608286 -8.1540864944384026 37.419717869036702 0 0.74314483375859142 0.66913059716165679 1 0 0 forward_v I I I I #
loop $-1 $-1 $458 $113 #
coedge $-1 $288 $288 $289 $459 reversed $179 $-1 #
coedge $-1 $289 $289 $288 $459 forward $181 $-1 #
coedge $-1 $290 $290 $182 $291 forward $285 $-1 #
edge $-1 $460 -1.0518055631356247e-015 $460 6.2831853071795996 $290 $461 forward 7 unknown #
face $-1 $462 $463 $64 $-1 $464 forward single #
loop $-1 $-1 $465 $183 #
plane-surface $-1 -41.38540056557671 -78.555497750088577 85.636424926917854 1 0 0 0 0.54463904215088732 -0.83867056331134215 forward_v I I I I #
coedge $-1 $466 $467 $468 $469 reversed $184 $-1 #
coedge $-1 $297 $186 $470 $471 reversed $117 $-1 #
coedge $-1 $186 $296 $466 $472 reversed $117 $-1 #
coedge $-1 $468 $473 $186 $299 forward $463 $-1 #
edge $-1 $474 15.171860788323208 $475 19.995710694403655 $298 $476 forward 7 unknown #
loop $-1 $-1 $305 $187 #
plane-surface $-1 -36.92632159374255 -24.10588808672108 1.7913802747425791 0 -0.54463904215088732 0.83867056331134215 1 0 0 forward_v I I I I #
loop $-1 $-1 $477 $119 #
coedge $-1 $303 $303 $304 $478 reversed $188 $-1 #
coedge $-1 $304 $304 $303 $478 forward $190 $-1 #
coedge $-1 $305 $305 $191 $306 forward $300 $-1 #
edge $-1 $479 -1.6473180218614519e-016 $479 6.2831853071796004 $305 $480 forward 7 unknown #
loop $-1 $-1 $312 $192 #
plane-surface $-1 -36.92632159374255 -24.10588808672108 1.7913802747425791 0 -0.54463904215088732 0.83867056331134215 1 0 0 forward_v I I I I #
loop $-1 $-1 $481 $122 #
coedge $-1 $310 $310 $311 $482 reversed $193 $-1 #
coedge $-1 $311 $311 $310 $482 forward $195 $-1 #
coedge $-1 $312 $312 $196 $313 forward $307 $-1 #
edge $-1 $483 -1.6473180218614519e-016 $483 6.2831853071796004 $312 $484 forward 7 unknown #
face $-1 $485 $486 $67 $-1 $487 reversed single #
loop $-1 $-1 $488 $197 #
plane-surface $-1 -16.76785283641501 -78.555497750088577 85.636424926917854 1 0 0 0 0.54463904215088732 -0.83867056331134215 forward_v I I I I #
coedge $-1 $489 $490 $491 $492 reversed $198 $-1 #
coedge $-1 $319 $200 $493 $494 reversed $126 $-1 #
coedge $-1 $200 $318 $489 $495 reversed $126 $-1 #
coedge $-1 $491 $496 $200 $321 forward $497 $-1 #
edge $-1 $498 15.171860788323208 $499 19.995710694403655 $320 $500 forward 7 unknown #
loop $-1 $-1 $327 $201 #
plane-surface $-1 -12.30877386458085 -24.10588808672108 1.7913802747425791 0 -0.54463904215088732 0.83867056331134215 1 0 0 forward_v I I I I #
loop $-1 $-1 $501 $128 #
coedge $-1 $325 $325 $326 $502 reversed $202 $-1 #
coedge $-1 $326 $326 $325 $502 forward $204 $-1 #
coedge $-1 $327 $327 $205 $328 forward $322 $-1 #
edge $-1 $503 -1.6473180218614519e-016 $503 6.2831853071796004 $327 $504 forward 7 unknown #
loop $-1 $-1 $334 $206 #
plane-surface $-1 -12.30877386458085 -24.10588808672108 1.7913802747425791 0 -0.54463904215088732 0.83867056331134215 1 0 0 forward_v I I I I #
loop $-1 $-1 $505 $131 #
coedge $-1 $332 $332 $333 $506 reversed $207 $-1 #
coedge $-1 $333 $333 $332 $506 forward $209 $-1 #
coedge $-1 $334 $334 $210 $335 forward $329 $-1 #
edge $-1 $507 -1.6473180218614519e-016 $507 6.2831853071796004 $334 $508 forward 7 unknown #
face $-1 $509 $510 $70 $-1 $511 reversed single #
loop $-1 $-1 $512 $211 #
plane-surface $-1 7.8496948927466885 -78.555497750088577 85.636424926917854 1 0 0 0 0.54463904215088732 -0.83867056331134215 forward_v I I I I #
coedge $-1 $513 $514 $515 $516 reversed $212 $-1 #
coedge $-1 $341 $214 $517 $518 reversed $135 $-1 #
coedge $-1 $214 $340 $513 $519 reversed $135 $-1 #
coedge $-1 $515 $520 $214 $343 forward $521 $-1 #
edge $-1 $522 15.171860788323208 $523 19.995710694403655 $342 $524 forward 7 unknown #
loop $-1 $-1 $349 $215 #
plane-surface $-1 12.30877386458085 -24.10588808672108 1.7913802747425791 0 -0.54463904215088732 0.83867056331134215 1 0 0 forward_v I I I I #
loop $-1 $-1 $525 $137 #
coedge $-1 $347 $347 $348 $526 reversed $216 $-1 #
coedge $-1 $348 $348 $347 $526 forward $218 $-1 #
coedge $-1 $349 $349 $219 $350 forward $344 $-1 #
edge $-1 $527 -1.6473180218614519e-016 $527 6.2831853071796004 $349 $528 forward 7 unknown #
loop $-1 $-1 $356 $220 #
plane-surface $-1 12.30877386458085 -24.10588808672108 1.7913802747425791 0 -0.54463904215088732 0.83867056331134215 1 0 0 forward_v I I I I #
loop $-1 $-1 $529 $140 #
coedge $-1 $354 $354 $355 $530 reversed $221 $-1 #
coedge $-1 $355 $355 $354 $530 forward $223 $-1 #
coedge $-1 $356 $356 $224 $357 forward $351 $-1 #
edge $-1 $531 -1.6473180218614519e-016 $531 6.2831853071796004 $356 $532 forward 7 unknown #
face $-1 $533 $534 $73 $-1 $535 reversed single #
loop $-1 $-1 $536 $225 #
plane-surface $-1 32.467242621908397 -78.555497750088577 85.636424926917854 1 0 0 0 0.54463904215088732 -0.83867056331134215 forward_v I I I I #
coedge $-1 $537 $538 $539 $540 reversed $226 $-1 #
coedge $-1 $363 $228 $541 $542 reversed $144 $-1 #
coedge $-1 $228 $362 $537 $543 reversed $144 $-1 #
coedge $-1 $539 $544 $228 $365 forward $545 $-1 #
edge $-1 $546 15.171860788323208 $547 19.995710694403655 $364 $548 forward 7 unknown #
loop $-1 $-1 $371 $229 #
plane-surface $-1 36.926321593742557 -24.10588808672108 1.7913802747425791 0 -0.54463904215088732 0.83867056331134215 1 0 0 forward_v I I I I #
loop $-1 $-1 $549 $146 #
coedge $-1 $369 $369 $370 $550 reversed $230 $-1 #
coedge $-1 $370 $370 $369 $550 forward $232 $-1 #
coedge $-1 $371 $371 $233 $372 forward $366 $-1 #
edge $-1 $551 -1.6473180218614519e-016 $551 6.2831853071796004 $371 $552 forward 7 unknown #
loop $-1 $-1 $378 $234 #
plane-surface $-1 36.926321593742557 -24.10588808672108 1.7913802747425791 0 -0.54463904215088732 0.83867056331134215 1 0 0 forward_v I I I I #
loop $-1 $-1 $553 $149 #
coedge $-1 $376 $376 $377 $554 reversed $235 $-1 #
coedge $-1 $377 $377 $376 $554 forward $237 $-1 #
coedge $-1 $378 $378 $238 $379 forward $373 $-1 #
edge $-1 $555 -1.6473180218614519e-016 $555 6.2831853071796004 $378 $556 forward 7 unknown #
face $-1 $557 $558 $57 $-1 $559 reversed single #
loop $-1 $-1 $560 $239 #
plane-surface $-1 -49.986877040925322 0 0 1 0 0 0 0 -1 forward_v I I I I #
coedge $-1 $561 $391 $562 $563 forward $240 $-1 #
coedge $-1 $564 $242 $561 $565 forward $153 $-1 #
coedge $-1 $242 $564 $566 $567 forward $153 $-1 #
coedge $-1 $394 $393 $242 $387 reversed $395 $-1 #
edge $-1 $568 -24.10588808672108 $569 24.10588808672108 $386 $570 forward 7 unknown #
coedge $-1 $244 $243 $571 $572 forward $96 $-1 #
coedge $-1 $573 $574 $243 $390 reversed $558 $-1 #
edge $-1 $397 -49.986877040925322 $575 49.986877040925322 $389 $576 forward 7 unknown #
coedge $-1 $383 $577 $244 $392 reversed $240 $-1 #
edge $-1 $578 -49.986877040925322 $396 49.986877040925322 $391 $579 forward 7 unknown #
coedge $-1 $386 $245 $577 $580 forward $395 $-1 #
coedge $-1 $245 $386 $573 $581 reversed $395 $-1 #
loop $-1 $-1 $393 $557 #
vertex $-1 $246 $582 #
vertex $-1 $246 $583 #
straight-curve $-1 49.986877040925322 0 4.9240250905496854 0 1 0 I I #
face $-1 $584 $585 $58 $-1 $586 reversed single #
loop $-1 $-1 $587 $247 #
plane-surface $-1 0 -24.10588808672108 0 0 1 0 0 0 1 forward_v I I I I #
coedge $-1 $588 $250 $587 $589 reversed $157 $-1 #
coedge $-1 $250 $588 $590 $591 reversed $157 $-1 #
coedge $-1 $412 $411 $250 $405 reversed $248 $-1 #
edge $-1 $592 -24.10588808672108 $593 24.10588808672108 $404 $594 forward 7 unknown #
coedge $-1 $252 $251 $595 $596 reversed $99 $-1 #
coedge $-1 $597 $598 $251 $408 forward $599 $-1 #
edge $-1 $600 -26.385415947512158 $414 -20.81750623931417 $407 $601 forward 7 unknown #
coedge $-1 $602 $603 $252 $410 forward $400 $-1 #
edge $-1 $413 20.81750623931417 $604 26.385415947512158 $409 $605 forward 7 unknown #
coedge $-1 $404 $253 $603 $606 reversed $248 $-1 #
coedge $-1 $253 $404 $597 $607 reversed $248 $-1 #
vertex $-1 $410 $608 #
vertex $-1 $408 $609 #
straight-curve $-1 -44.418967332727334 0 3.4414338254134531 0 1 0 I I #
face $-1 $610 $611 $59 $-1 $612 reversed single #
loop $-1 $-1 $427 $255 #
plane-surface $-1 0 -24.10588808672108 0 0 1 0 0 0 1 forward_v I I I I #
coedge $-1 $613 $614 $615 $616 reversed $256 $-1 #
coedge $-1 $617 $258 $618 $619 reversed $161 $-1 #
coedge $-1 $258 $617 $620 $621 reversed $161 $-1 #
coedge $-1 $430 $429 $258 $423 forward $431 $-1 #
edge $-1 $622 -24.10588808672108 $623 24.10588808672108 $422 $624 forward 7 unknown #
coedge $-1 $260 $259 $614 $625 forward $102 $-1 #
coedge $-1 $626 $615 $259 $426 forward $611 $-1 #
edge $-1 $627 20.81750623931417 $432 26.385415947512158 $425 $628 forward 7 unknown #
coedge $-1 $629 $630 $260 $428 forward $417 $-1 #
edge $-1 $433 -26.385415947512158 $631 -20.81750623931417 $427 $632 forward 7 unknown #
coedge $-1 $422 $261 $630 $633 forward $431 $-1 #
coedge $-1 $261 $422 $626 $634 reversed $431 $-1 #
loop $-1 $-1 $261 $610 #
vertex $-1 $634 $635 #
vertex $-1 $633 $636 #
straight-curve $-1 49.986877040925322 0 3.4414338254134531 0 -1 0 I I #
face $-1 $-1 $637 $60 $-1 $638 forward single #
loop $-1 $-1 $639 $263 #
plane-surface $-1 0 24.10588808672108 0 0 -1 0 0 0 -1 forward_v I I I I #
coedge $-1 $640 $641 $642 $643 forward $264 $-1 #
coedge $-1 $644 $266 $268 $445 forward $165 $-1 #
coedge $-1 $266 $644 $645 $646 forward $165 $-1 #
coedge $-1 $639 $269 $266 $442 forward $436 $-1 #
edge $-1 $448 5.281623571685099 $647 27.852103697923191 $441 $648 forward 7 unknown #
coedge $-1 $641 $640 $267 $444 forward $264 $-1 #
edge $-1 $649 -11.965280204116478 $447 -8.9645580947493144 $443 $650 forward 7 unknown #
edge $-1 $448 -48.211776173442146 $649 -43.727267286693078 $268 $651 forward 7 unknown #
coedge $-1 $269 $639 $641 $652 reversed $436 $-1 #
vertex $-1 $652 $653 #
vertex $-1 $270 $654 #
straight-curve $-1 -21.848487206489242 24.10588808672108 52.157607819159026 0 0 -1 I I #
coedge $-1 $450 $450 $-1 $655 reversed $273 $-1 #
edge $-1 $656 0 $656 6.2831853071796004 $274 $657 forward 7 unknown #
vertex $-1 $277 $658 #
ellipse-curve $-1 -39.904871307479716 22.605527032037497 3.2577052849836483 0 0.74314483375859142 0.66913059716165679 0.5 0 0 1 I I #
coedge $-1 $454 $454 $-1 $659 reversed $280 $-1 #
edge $-1 $660 0 $660 6.2831853071796004 $281 $661 forward 7 unknown #
vertex $-1 $284 $662 #
ellipse-curve $-1 -33.133727269608293 22.605527032037497 3.2577052849836483 0 0.74314483375859142 0.66913059716165679 0.5 0 0 1 I I #
coedge $-1 $458 $458 $-1 $663 reversed $287 $-1 #
edge $-1 $664 0 $664 6.2831853071796004 $288 $665 forward 7 unknown #
vertex $-1 $291 $666 #
ellipse-curve $-1 -26.362583231736867 22.605527032037497 3.2577052849836483 0 0.74314483375859142 0.66913059716165679 0.5 0 0 1 I I #
face $-1 $-1 $667 $64 $-1 $668 reversed single #
loop $-1 $-1 $298 $292 #
plane-surface $-1 0 0 4.9240250905496854 0 0 1 1 0 0 forward_v I I I I #
coedge $-1 $669 $670 $671 $672 reversed $293 $-1 #
coedge $-1 $673 $295 $297 $472 forward $184 $-1 #
coedge $-1 $295 $673 $669 $674 forward $184 $-1 #
coedge $-1 $671 $298 $295 $469 forward $463 $-1 #
edge $-1 $475 14.004081825037115 $675 22.922239768705435 $468 $676 forward 7 unknown #
coedge $-1 $677 $678 $296 $471 forward $667 $-1 #
edge $-1 $679 -41.026832188716348 $474 -37.894187372909244 $470 $680 forward 7 unknown #
edge $-1 $475 -5.7517815899419791 $679 0 $297 $681 forward 7 unknown #
coedge $-1 $298 $671 $677 $682 forward $463 $-1 #
vertex $-1 $471 $683 #
vertex $-1 $299 $684 #
straight-curve $-1 -32.46724262190839 -39.277748875044288 4.9240250905496836 0 1 0 I I #
coedge $-1 $477 $477 $-1 $685 reversed $302 $-1 #
edge $-1 $686 0 $686 6.2831853071796004 $303 $687 forward 7 unknown #
vertex $-1 $306 $688 #
ellipse-curve $-1 -38.837355438814328 -21.693963133680857 3.3577026826461336 0 -0.54463904215088732 0.83867056331134215 1 0 0 1 I I #
coedge $-1 $481 $481 $-1 $689 reversed $309 $-1 #
edge $-1 $690 0 $690 6.2831853071796004 $310 $691 forward 7 unknown #
vertex $-1 $313 $692 #
ellipse-curve $-1 -35.015287748670765 -21.693963133680857 3.3577026826461336 0 -0.54463904215088732 0.83867056331134215 1 0 0 1 I I #
face $-1 $-1 $497 $67 $-1 $693 forward single #
loop $-1 $-1 $694 $314 #
plane-surface $-1 0 -24.10588808672108 0 0 1 0 0 0 1 forward_v I I I I #
coedge $-1 $695 $696 $697 $698 reversed $315 $-1 #
coedge $-1 $699 $317 $319 $495 forward $198 $-1 #
coedge $-1 $317 $699 $695 $700 forward $198 $-1 #
coedge $-1 $697 $320 $317 $492 forward $497 $-1 #
edge $-1 $499 1.6953079604562635 $701 10.613465904124585 $491 $702 forward 7 unknown #
coedge $-1 $703 $704 $318 $494 forward $486 $-1 #
edge $-1 $705 -41.026832188716348 $498 -37.894187372909244 $493 $706 forward 7 unknown #
edge $-1 $499 -5.7517815899419791 $705 0 $319 $707 forward 7 unknown #
coedge $-1 $320 $697 $703 $708 forward $497 $-1 #
loop $-1 $-1 $697 $485 #
vertex $-1 $494 $709 #
vertex $-1 $321 $710 #
straight-curve $-1 -7.8496948927466885 -39.277748875044288 4.9240250905496836 0 1 0 I I #
coedge $-1 $501 $501 $-1 $711 reversed $324 $-1 #
edge $-1 $712 0 $712 6.2831853071796004 $325 $713 forward 7 unknown #
vertex $-1 $328 $714 #
ellipse-curve $-1 -14.219807709652628 -21.693963133680857 3.3577026826461336 0 -0.54463904215088732 0.83867056331134215 1 0 0 1 I I #
coedge $-1 $505 $505 $-1 $715 reversed $331 $-1 #
edge $-1 $716 0 $716 6.2831853071796004 $332 $717 forward 7 unknown #
vertex $-1 $335 $718 #
ellipse-curve $-1 -10.397740019509065 -21.693963133680857 3.3577026826461336 0 -0.54463904215088732 0.83867056331134215 1 0 0 1 I I #
face $-1 $-1 $521 $70 $-1 $719 forward single #
loop $-1 $-1 $720 $336 #
plane-surface $-1 0 -24.10588808672108 0 0 1 0 0 0 1 forward_v I I I I #
coedge $-1 $721 $722 $723 $724 reversed $337 $-1 #
coedge $-1 $725 $339 $341 $519 forward $212 $-1 #
coedge $-1 $339 $725 $721 $726 forward $212 $-1 #
coedge $-1 $723 $342 $339 $516 forward $521 $-1 #
edge $-1 $523 -10.613465904124585 $727 -1.6953079604562635 $515 $728 forward 7 unknown #
coedge $-1 $729 $730 $340 $518 forward $510 $-1 #
edge $-1 $731 -41.026832188716348 $522 -37.894187372909244 $517 $732 forward 7 unknown #
edge $-1 $523 -5.7517815899419791 $731 0 $341 $733 forward 7 unknown #
coedge $-1 $342 $723 $729 $734 forward $521 $-1 #
loop $-1 $-1 $723 $509 #
vertex $-1 $518 $735 #
vertex $-1 $343 $736 #
straight-curve $-1 16.76785283641501 -39.277748875044288 4.9240250905496836 0 1 0 I I #
coedge $-1 $525 $525 $-1 $737 reversed $346 $-1 #
edge $-1 $738 0 $738 6.2831853071796004 $347 $739 forward 7 unknown #
vertex $-1 $350 $740 #
ellipse-curve $-1 10.397740019509072 -21.693963133680857 3.3577026826461336 0 -0.54463904215088732 0.83867056331134215 1 0 0 1 I I #
coedge $-1 $529 $529 $-1 $741 reversed $353 $-1 #
edge $-1 $742 0 $742 6.2831853071796004 $354 $743 forward 7 unknown #
vertex $-1 $357 $744 #
ellipse-curve $-1 14.219807709652628 -21.693963133680857 3.3577026826461336 0 -0.54463904215088732 0.83867056331134215 1 0 0 1 I I #
face $-1 $-1 $545 $73 $-1 $745 forward single #
loop $-1 $-1 $746 $358 #
plane-surface $-1 0 -24.10588808672108 0 0 1 0 0 0 1 forward_v I I I I #
coedge $-1 $747 $748 $749 $750 reversed $359 $-1 #
coedge $-1 $751 $361 $363 $543 forward $226 $-1 #
coedge $-1 $361 $751 $747 $752 forward $226 $-1 #
coedge $-1 $749 $364 $361 $540 forward $545 $-1 #
edge $-1 $547 -22.922239768705438 $753 -14.004081825037119 $539 $754 forward 7 unknown #
coedge $-1 $755 $756 $362 $542 forward $534 $-1 #
edge $-1 $757 -41.026832188716348 $546 -37.894187372909244 $541 $758 forward 7 unknown #
edge $-1 $547 -5.7517815899419791 $757 0 $363 $759 forward 7 unknown #
coedge $-1 $364 $749 $755 $760 forward $545 $-1 #
loop $-1 $-1 $749 $533 #
vertex $-1 $542 $761 #
vertex $-1 $365 $762 #
straight-curve $-1 41.385400565576717 -39.277748875044288 4.9240250905496836 0 1 0 I I #
coedge $-1 $549 $549 $-1 $763 reversed $368 $-1 #
edge $-1 $764 0 $764 6.2831853071796004 $369 $765 forward 7 unknown #
vertex $-1 $372 $766 #
ellipse-curve $-1 35.015287748670772 -21.693963133680857 3.3577026826461336 0 -0.54463904215088732 0.83867056331134215 1 0 0 1 I I #
coedge $-1 $553 $553 $-1 $767 reversed $375 $-1 #
edge $-1 $768 0 $768 6.2831853071796004 $376 $769 forward 7 unknown #
vertex $-1 $379 $770 #
ellipse-curve $-1 38.837355438814328 -21.693963133680857 3.3577026826461336 0 -0.54463904215088732 0.83867056331134215 1 0 0 1 I I #
face $-1 $-1 $395 $57 $-1 $771 reversed single #
loop $-1 $-1 $573 $380 #
plane-surface $-1 0 24.10588808672108 0 0 -1 0 0 0 -1 forward_v I I I I #
coedge $-1 $772 $571 $574 $773 forward $381 $-1 #
coedge $-1 $577 $383 $384 $565 reversed $240 $-1 #
coedge $-1 $571 $772 $383 $563 reversed $381 $-1 #
edge $-1 $578 -4.9240250905496854 $774 4.9240250905496854 $562 $775 forward 7 unknown #
coedge $-1 $385 $384 $772 $776 forward $153 $-1 #
edge $-1 $569 -49.986877040925322 $774 49.986877040925322 $561 $777 forward 7 unknown #
coedge $-1 $574 $573 $385 $567 reversed $558 $-1 #
edge $-1 $778 -49.986877040925322 $568 49.986877040925322 $566 $779 forward 7 unknown #
vertex $-1 $387 $780 #
vertex $-1 $580 $781 #
straight-curve $-1 49.986877040925322 0 -4.9240250905496854 0 -1 0 I I #
coedge $-1 $560 $562 $388 $572 reversed $381 $-1 #
edge $-1 $575 -24.10588808672108 $578 24.10588808672108 $571 $782 forward 7 unknown #
coedge $-1 $566 $389 $394 $581 forward $558 $-1 #
coedge $-1 $389 $566 $560 $773 reversed $558 $-1 #
vertex $-1 $390 $783 #
straight-curve $-1 0 24.10588808672108 4.9240250905496854 -1 0 0 I I #
coedge $-1 $391 $561 $393 $580 reversed $240 $-1 #
vertex $-1 $572 $784 #
straight-curve $-1 0 -24.10588808672108 4.9240250905496854 1 0 0 I I #
edge $-1 $396 -4.9240250905496854 $569 4.9240250905496854 $393 $785 forward 7 unknown #
edge $-1 $397 -4.9240250905496854 $568 4.9240250905496854 $394 $786 forward 7 unknown #
point $-1 49.986877040925322 -24.10588808672108 4.9240250905496854 #
point $-1 49.986877040925322 24.10588808672108 4.9240250905496854 #
face $-1 $-1 $599 $58 $-1 $787 reversed single #
loop $-1 $-1 $788 $399 #
plane-surface $-1 -49.986877040925322 0 0 1 0 0 0 0 -1 forward_v I I I I #
coedge $-1 $603 $602 $402 $589 forward $400 $-1 #
coedge $-1 $403 $402 $788 $789 reversed $157 $-1 #
edge $-1 $790 -26.385415947512158 $593 -20.81750623931417 $587 $791 forward 7 unknown #
coedge $-1 $598 $597 $403 $591 forward $599 $-1 #
edge $-1 $592 20.81750623931417 $792 26.385415947512158 $590 $793 forward 7 unknown #
vertex $-1 $591 $794 #
vertex $-1 $589 $795 #
straight-curve $-1 -44.418967332727334 0 0.44143382541345311 0 -1 0 I I #
coedge $-1 $796 $797 $406 $596 forward $585 $-1 #
edge $-1 $604 -24.10588808672108 $600 24.10588808672108 $595 $798 forward 7 unknown #
coedge $-1 $590 $407 $412 $607 forward $599 $-1 #
coedge $-1 $407 $590 $796 $799 reversed $599 $-1 #
loop $-1 $-1 $590 $584 #
vertex $-1 $799 $800 #
straight-curve $-1 -23.601461093413164 24.10588808672108 3.4414338254134531 1 0 0 I I #
coedge $-1 $587 $409 $797 $801 forward $400 $-1 #
coedge $-1 $409 $587 $411 $606 forward $400 $-1 #
vertex $-1 $801 $802 #
straight-curve $-1 -23.601461093413164 -24.10588808672108 3.4414338254134531 -1 0 0 I I #
edge $-1 $593 -0.52928308729327345 $413 2.4707169127067266 $603 $803 forward 7 unknown #
edge $-1 $414 -2.4707169127067266 $592 0.52928308729327345 $597 $804 forward 7 unknown #
point $-1 -44.418967332727334 -24.10588808672108 3.4414338254134531 #
point $-1 -44.418967332727334 24.10588808672108 3.4414338254134531 #
face $-1 $-1 $431 $59 $-1 $805 reversed single #
loop $-1 $-1 $425 $416 #
plane-surface $-1 0 24.10588808672108 0 0 -1 0 0 0 -1 forward_v I I I I #
coedge $-1 $806 $419 $617 $807 reversed $256 $-1 #
coedge $-1 $419 $806 $424 $625 reversed $256 $-1 #
coedge $-1 $425 $620 $419 $616 forward $611 $-1 #
edge $-1 $808 -0.52928308729327345 $627 2.4707169127067266 $615 $809 forward 7 unknown #
coedge $-1 $421 $420 $613 $807 forward $161 $-1 #
coedge $-1 $630 $629 $420 $619 forward $417 $-1 #
edge $-1 $810 20.81750623931417 $622 26.385415947512158 $618 $811 forward 7 unknown #
coedge $-1 $615 $626 $421 $621 forward $611 $-1 #
edge $-1 $623 -26.385415947512158 $808 -20.81750623931417 $620 $812 forward 7 unknown #
vertex $-1 $423 $813 #
vertex $-1 $423 $814 #
straight-curve $-1 49.986877040925322 0 0.44143382541345311 0 1 0 I I #
edge $-1 $627 -24.10588808672108 $631 24.10588808672108 $614 $815 forward 7 unknown #
coedge $-1 $620 $425 $430 $634 forward $611 $-1 #
vertex $-1 $426 $816 #
straight-curve $-1 23.601461093413164 24.10588808672108 3.4414338254134531 1 0 0 I I #
coedge $-1 $618 $427 $806 $817 forward $417 $-1 #
coedge $-1 $427 $618 $429 $633 reversed $417 $-1 #
vertex $-1 $428 $818 #
straight-curve $-1 23.601461093413164 -24.10588808672108 3.4414338254134531 -1 0 0 I I #
edge $-1 $433 -3.4414338254134531 $622 -0.44143382541345311 $429 $819 forward 7 unknown #
edge $-1 $432 -3.4414338254134531 $623 -0.44143382541345311 $430 $820 forward 7 unknown #
point $-1 49.986877040925322 24.10588808672108 3.4414338254134531 #
point $-1 49.986877040925322 -24.10588808672108 3.4414338254134531 #
loop $-1 $-1 $645 $435 #
plane-surface $-1 -44.418967332727334 0 1.9414338254134531 -1 0 0 0 0 1 forward_v I I I I #
coedge $-1 $446 $441 $821 $822 forward $436 $-1 #
coedge $-1 $443 $438 $644 $823 forward $264 $-1 #
coedge $-1 $438 $443 $446 $652 forward $264 $-1 #
coedge $-1 $821 $645 $438 $643 reversed $637 $-1 #
edge $-1 $824 8.9645580947493144 $825 11.965280204116478 $438 $826 forward 7 unknown #
coedge $-1 $440 $439 $640 $823 reversed $165 $-1 #
coedge $-1 $642 $821 $440 $646 reversed $637 $-1 #
edge $-1 $825 43.727267286693078 $647 48.211776173442146 $645 $827 forward 7 unknown #
vertex $-1 $822 $828 #
straight-curve $-1 -16.566863634804143 24.10588808672108 1.5913854794176174 -1 0 0 I I #
vertex $-1 $444 $829 #
straight-curve $-1 -21.848487206489242 33.070446181470395 4.9240250905496836 0 1 0 I I #
straight-curve $-1 -21.848487206489242 -8.1540864944384026 37.419717869036702 0 -0.66913059716165679 0.74314483375859142 I I #
edge $-1 $447 21.848487206489242 $824 44.418967332727334 $446 $830 forward 7 unknown #
point $-1 -21.848487206489242 24.10588808672108 4.9240250905496854 #
point $-1 -21.848487206489242 24.10588808672108 1.5913854794176174 #
edge $-1 $831 1 $831 0 $450 $-1 forward 7 unknown #
vertex $-1 $451 $832 #
ellipse-curve $-1 -39.904871307479716 21.862382198278912 2.5885746878219984 0 0.74314483375859142 0.66913059716165679 0.5 0 0 1 I I #
point $-1 -39.404871307479716 22.605527032037504 3.2577052849836554 #
edge $-1 $833 1 $833 0 $454 $-1 forward 7 unknown #
vertex $-1 $455 $834 #
ellipse-curve $-1 -33.133727269608293 21.862382198278912 2.5885746878219984 0 0.74314483375859142 0.66913059716165679 0.5 0 0 1 I I #
point $-1 -32.633727269608293 22.605527032037504 3.2577052849836554 #
edge $-1 $835 1 $835 0 $458 $-1 forward 7 unknown #
vertex $-1 $459 $836 #
ellipse-curve $-1 -26.362583231736867 21.862382198278912 2.5885746878219984 0 0.74314483375859142 0.66913059716165679 0.5 0 0 1 I I #
point $-1 -25.862583231736867 22.605527032037504 3.2577052849836554 #
loop $-1 $-1 $470 $462 #
plane-surface $-1 0 -24.10588808672108 0 0 1 0 0 0 1 forward_v I I I I #
coedge $-1 $670 $465 $467 $674 reversed $293 $-1 #
coedge $-1 $465 $669 $837 $838 reversed $293 $-1 #
coedge $-1 $473 $468 $465 $672 forward $463 $-1 #
edge $-1 $675 -19.995710694403655 $839 -15.171860788323208 $671 $840 forward 7 unknown #
coedge $-1 $467 $466 $678 $841 reversed $184 $-1 #
edge $-1 $842 0 $675 5.7517815899419791 $669 $843 forward 7 unknown #
vertex $-1 $469 $844 #
straight-curve $-1 -18.463160796871275 -19.282038180640633 4.9240250905496854 -1 0 0 I I #
coedge $-1 $837 $470 $473 $682 reversed $667 $-1 #
coedge $-1 $470 $837 $673 $841 forward $667 $-1 #
vertex $-1 $471 $845 #
straight-curve $-1 -32.46724262190839 -24.10588808672108 42.818212463458927 0 0 1 I I #
straight-curve $-1 -32.46724262190839 -24.10588808672108 1.7913802747425791 0 -0.83867056331134215 -0.54463904215088732 I I #
edge $-1 $839 -41.38540056557671 $474 -32.46724262190839 $677 $846 forward 7 unknown #
point $-1 -32.46724262190839 -24.10588808672108 4.9240250905496854 #
point $-1 -32.46724262190839 -19.282038180640633 4.9240250905496854 #
edge $-1 $847 1 $847 0 $477 $-1 forward 7 unknown #
vertex $-1 $478 $848 #
ellipse-curve $-1 -38.837355438814328 -20.549052648668635 1.5946951729122936 0 -0.54463904215088732 0.83867056331134215 1 0 0 1 I I #
point $-1 -37.837355438814328 -21.693963133680853 3.3577026826461278 #
edge $-1 $849 1 $849 0 $481 $-1 forward 7 unknown #
vertex $-1 $482 $850 #
ellipse-curve $-1 -35.015287748670765 -20.549052648668635 1.5946951729122936 0 -0.54463904215088732 0.83867056331134215 1 0 0 1 I I #
point $-1 -34.015287748670765 -21.693963133680853 3.3577026826461278 #
plane-surface $-1 0 0 4.9240250905496854 0 0 1 1 0 0 forward_v I I I I #
coedge $-1 $704 $703 $696 $851 forward $486 $-1 #
coedge $-1 $696 $488 $490 $700 reversed $315 $-1 #
coedge $-1 $488 $695 $694 $851 reversed $315 $-1 #
coedge $-1 $496 $491 $488 $698 forward $497 $-1 #
edge $-1 $701 -19.995710694403655 $852 -15.171860788323208 $697 $853 forward 7 unknown #
coedge $-1 $490 $489 $704 $854 reversed $198 $-1 #
edge $-1 $855 0 $701 5.7517815899419791 $695 $856 forward 7 unknown #
vertex $-1 $492 $857 #
straight-curve $-1 -6.154386932290425 -19.282038180640633 4.9240250905496854 -1 0 0 I I #
coedge $-1 $694 $493 $496 $708 reversed $486 $-1 #
coedge $-1 $493 $694 $699 $854 forward $486 $-1 #
vertex $-1 $494 $858 #
straight-curve $-1 -7.8496948927466885 -24.10588808672108 42.818212463458927 0 0 1 I I #
straight-curve $-1 -7.8496948927466885 -24.10588808672108 1.7913802747425791 0 -0.83867056331134215 -0.54463904215088732 I I #
edge $-1 $852 -16.76785283641501 $498 -7.8496948927466885 $703 $859 forward 7 unknown #
point $-1 -7.8496948927466885 -24.10588808672108 4.9240250905496854 #
point $-1 -7.8496948927466885 -19.282038180640633 4.9240250905496854 #
edge $-1 $860 1 $860 0 $501 $-1 forward 7 unknown #
vertex $-1 $502 $861 #
ellipse-curve $-1 -14.219807709652628 -20.549052648668635 1.5946951729122936 0 -0.54463904215088732 0.83867056331134215 1 0 0 1 I I #
point $-1 -13.219807709652628 -21.693963133680853 3.3577026826461278 #
edge $-1 $862 1 $862 0 $505 $-1 forward 7 unknown #
vertex $-1 $506 $863 #
ellipse-curve $-1 -10.397740019509065 -20.549052648668635 1.5946951729122936 0 -0.54463904215088732 0.83867056331134215 1 0 0 1 I I #
point $-1 -9.3977400195090652 -21.693963133680853 3.3577026826461278 #
plane-surface $-1 0 0 4.9240250905496854 0 0 1 1 0 0 forward_v I I I I #
coedge $-1 $730 $729 $722 $864 forward $510 $-1 #
coedge $-1 $722 $512 $514 $726 reversed $337 $-1 #
coedge $-1 $512 $721 $720 $864 reversed $337 $-1 #
coedge $-1 $520 $515 $512 $724 forward $521 $-1 #
edge $-1 $727 -19.995710694403655 $865 -15.171860788323208 $723 $866 forward 7 unknown #
coedge $-1 $514 $513 $730 $867 reversed $212 $-1 #
edge $-1 $868 0 $727 5.7517815899419791 $721 $869 forward 7 unknown #
vertex $-1 $516 $870 #
straight-curve $-1 6.154386932290425 -19.282038180640633 4.9240250905496854 -1 0 0 I I #
coedge $-1 $720 $517 $520 $734 reversed $510 $-1 #
coedge $-1 $517 $720 $725 $867 forward $510 $-1 #
vertex $-1 $518 $871 #
straight-curve $-1 16.76785283641501 -24.10588808672108 42.818212463458927 0 0 1 I I #
straight-curve $-1 16.76785283641501 -24.10588808672108 1.7913802747425791 0 -0.83867056331134215 -0.54463904215088732 I I #
edge $-1 $865 7.8496948927466885 $522 16.76785283641501 $729 $872 forward 7 unknown #
point $-1 16.76785283641501 -24.10588808672108 4.9240250905496854 #
point $-1 16.76785283641501 -19.282038180640633 4.9240250905496854 #
edge $-1 $873 1 $873 0 $525 $-1 forward 7 unknown #
vertex $-1 $526 $874 #
ellipse-curve $-1 10.397740019509072 -20.549052648668635 1.5946951729122936 0 -0.54463904215088732 0.83867056331134215 1 0 0 1 I I #
point $-1 11.397740019509072 -21.693963133680853 3.3577026826461278 #
edge $-1 $875 1 $875 0 $529 $-1 forward 7 unknown #
vertex $-1 $530 $876 #
ellipse-curve $-1 14.219807709652628 -20.549052648668635 1.5946951729122936 0 -0.54463904215088732 0.83867056331134215 1 0 0 1 I I #
point $-1 15.219807709652628 -21.693963133680853 3.3577026826461278 #
plane-surface $-1 0 0 4.9240250905496854 0 0 1 1 0 0 forward_v I I I I #
coedge $-1 $756 $755 $748 $877 forward $534 $-1 #
coedge $-1 $748 $536 $538 $752 reversed $359 $-1 #
coedge $-1 $536 $747 $746 $877 reversed $359 $-1 #
coedge $-1 $544 $539 $536 $750 forward $545 $-1 #
edge $-1 $753 -19.995710694403655 $878 -15.171860788323208 $749 $879 forward 7 unknown #
coedge $-1 $538 $537 $756 $880 reversed $226 $-1 #
edge $-1 $881 0 $753 5.7517815899419791 $747 $882 forward 7 unknown #
vertex $-1 $540 $883 #
straight-curve $-1 18.463160796871279 -19.282038180640633 4.9240250905496854 -1 0 0 I I #
coedge $-1 $746 $541 $544 $760 reversed $534 $-1 #
coedge $-1 $541 $746 $751 $880 forward $534 $-1 #
vertex $-1 $542 $884 #
straight-curve $-1 41.385400565576717 -24.10588808672108 42.818212463458927 0 0 1 I I #
straight-curve $-1 41.385400565576717 -24.10588808672108 1.7913802747425791 0 -0.83867056331134215 -0.54463904215088732 I I #
edge $-1 $878 32.467242621908397 $546 41.385400565576717 $755 $885 forward 7 unknown #
point $-1 41.385400565576717 -24.10588808672108 4.9240250905496854 #
point $-1 41.385400565576717 -19.282038180640633 4.9240250905496854 #
edge $-1 $886 1 $886 0 $549 $-1 forward 7 unknown #
vertex $-1 $550 $887 #
ellipse-curve $-1 35.015287748670772 -20.549052648668635 1.5946951729122936 0 -0.54463904215088732 0.83867056331134215 1 0 0 1 I I #
point $-1 36.015287748670772 -21.693963133680853 3.3577026826461278 #
edge $-1 $888 1 $888 0 $553 $-1 forward 7 unknown #
vertex $-1 $554 $889 #
ellipse-curve $-1 38.837355438814328 -20.549052648668635 1.5946951729122936 0 -0.54463904215088732 0.83867056331134215 1 0 0 1 I I #
point $-1 39.837355438814328 -21.693963133680853 3.3577026826461278 #
plane-surface $-1 49.986877040925322 0 0 -1 0 0 0 0 1 forward_v I I I I #
coedge $-1 $562 $560 $564 $776 reversed $381 $-1 #
edge $-1 $575 -4.9240250905496854 $778 4.9240250905496854 $574 $890 forward 7 unknown #
vertex $-1 $776 $891 #
straight-curve $-1 -49.986877040925322 -24.10588808672108 0 0 0 -1 I I #
edge $-1 $774 -24.10588808672108 $778 24.10588808672108 $772 $892 forward 7 unknown #
straight-curve $-1 0 -24.10588808672108 -4.9240250905496854 -1 0 0 I I #
vertex $-1 $567 $893 #
straight-curve $-1 0 24.10588808672108 -4.9240250905496854 1 0 0 I I #
point $-1 49.986877040925322 24.10588808672108 -4.9240250905496854 #
point $-1 49.986877040925322 -24.10588808672108 -4.9240250905496854 #
straight-curve $-1 -49.986877040925322 0 4.9240250905496854 0 -1 0 I I #
point $-1 -49.986877040925322 24.10588808672108 4.9240250905496854 #
point $-1 -49.986877040925322 -24.10588808672108 4.9240250905496854 #
straight-curve $-1 49.986877040925322 -24.10588808672108 0 0 0 -1 I I #
straight-curve $-1 49.986877040925322 24.10588808672108 0 0 0 -1 I I #
plane-surface $-1 0 24.10588808672108 0 0 -1 0 0 0 -1 forward_v I I I I #
coedge $-1 $797 $796 $588 $789 forward $585 $-1 #
edge $-1 $792 -24.10588808672108 $790 24.10588808672108 $788 $894 forward 7 unknown #
vertex $-1 $589 $895 #
straight-curve $-1 -23.601461093413164 -24.10588808672108 0.44143382541345311 1 0 0 I I #
vertex $-1 $591 $896 #
straight-curve $-1 -23.601461093413164 24.10588808672108 0.44143382541345311 -1 0 0 I I #
point $-1 -44.418967332727334 24.10588808672108 0.44143382541345311 #
point $-1 -44.418967332727334 -24.10588808672108 0.44143382541345311 #
coedge $-1 $788 $595 $598 $799 forward $585 $-1 #
coedge $-1 $595 $788 $602 $801 reversed $585 $-1 #
straight-curve $-1 -49.986877040925322 0 3.4414338254134531 0 1 0 I I #
edge $-1 $600 -3.4414338254134531 $792 -0.44143382541345311 $598 $897 forward 7 unknown #
point $-1 -49.986877040925322 24.10588808672108 3.4414338254134531 #
edge $-1 $604 -3.4414338254134531 $790 -0.44143382541345311 $797 $898 forward 7 unknown #
point $-1 -49.986877040925322 -24.10588808672108 3.4414338254134531 #
straight-curve $-1 -44.418967332727334 -24.10588808672108 0.97071691270672655 0 0 1 I I #
straight-curve $-1 -44.418967332727334 24.10588808672108 0.97071691270672655 0 0 -1 I I #
plane-surface $-1 49.986877040925322 0 0 -1 0 0 0 0 1 forward_v I I I I #
coedge $-1 $614 $613 $629 $817 reversed $256 $-1 #
edge $-1 $810 -24.10588808672108 $808 24.10588808672108 $613 $899 forward 7 unknown #
vertex $-1 $621 $900 #
straight-curve $-1 44.418967332727334 24.10588808672108 0.97071691270672655 0 0 1 I I #
vertex $-1 $619 $901 #
straight-curve $-1 23.601461093413164 -24.10588808672108 0.44143382541345311 1 0 0 I I #
straight-curve $-1 23.601461093413164 24.10588808672108 0.44143382541345311 -1 0 0 I I #
point $-1 49.986877040925322 -24.10588808672108 0.44143382541345311 #
point $-1 49.986877040925322 24.10588808672108 0.44143382541345311 #
straight-curve $-1 44.418967332727334 0 3.4414338254134531 0 -1 0 I I #
point $-1 44.418967332727334 24.10588808672108 3.4414338254134531 #
edge $-1 $631 -2.4707169127067266 $810 0.52928308729327345 $629 $902 forward 7 unknown #
point $-1 44.418967332727334 -24.10588808672108 3.4414338254134531 #
straight-curve $-1 49.986877040925322 -24.10588808672108 0 0 0 -1 I I #
straight-curve $-1 49.986877040925322 24.10588808672108 0 0 0 -1 I I #
coedge $-1 $645 $642 $639 $822 reversed $637 $-1 #
edge $-1 $647 -50.566222339741408 $824 -47.233582728609342 $639 $903 forward 7 unknown #
edge $-1 $825 -27.852103697923191 $649 -5.281623571685099 $640 $904 forward 7 unknown #
vertex $-1 $822 $905 #
vertex $-1 $643 $906 #
straight-curve $-1 -44.418967332727334 33.070446181470395 4.9240250905496836 0 -1 0 I I #
straight-curve $-1 -44.418967332727334 -8.1540864944384026 37.419717869036702 0 0.66913059716165679 -0.74314483375859142 I I #
point $-1 -44.418967332727334 24.10588808672108 1.5913854794176174 #
point $-1 -21.848487206489242 21.105165977353916 4.9240250905496836 #
straight-curve $-1 0 24.10588808672108 4.9240250905496854 -1 0 0 I I #
vertex $-1 $655 $907 #
point $-1 -39.404871307479716 21.862382198278912 2.5885746878219984 #
vertex $-1 $659 $908 #
point $-1 -32.633727269608293 21.862382198278912 2.5885746878219984 #
vertex $-1 $663 $909 #
point $-1 -25.862583231736867 21.862382198278912 2.5885746878219984 #
coedge $-1 $678 $677 $670 $838 forward $667 $-1 #
edge $-1 $839 37.894187372909244 $842 41.026832188716348 $837 $910 forward 7 unknown #
vertex $-1 $682 $911 #
straight-curve $-1 -41.38540056557671 -39.277748875044288 4.9240250905496836 0 -1 0 I I #
edge $-1 $842 -22.922239768705435 $679 -14.004081825037115 $678 $912 forward 7 unknown #
vertex $-1 $841 $913 #
straight-curve $-1 -41.38540056557671 -24.10588808672108 1.7913802747425791 0 0.83867056331134215 0.54463904215088732 I I #
point $-1 -41.38540056557671 -19.282038180640633 4.9240250905496854 #
point $-1 -32.46724262190839 -24.10588808672108 1.7913802747425791 #
straight-curve $-1 0 -24.10588808672108 4.9240250905496854 1 0 0 I I #
vertex $-1 $685 $914 #
point $-1 -37.837355438814328 -20.549052648668635 1.5946951729122936 #
vertex $-1 $689 $915 #
point $-1 -34.015287748670765 -20.549052648668635 1.5946951729122936 #
edge $-1 $852 37.894187372909244 $855 41.026832188716348 $694 $916 forward 7 unknown #
vertex $-1 $708 $917 #
straight-curve $-1 -16.76785283641501 -39.277748875044288 4.9240250905496836 0 -1 0 I I #
edge $-1 $855 -10.613465904124585 $705 -1.6953079604562635 $704 $918 forward 7 unknown #
vertex $-1 $854 $919 #
straight-curve $-1 -16.76785283641501 -24.10588808672108 1.7913802747425791 0 0.83867056331134215 0.54463904215088732 I I #
point $-1 -16.76785283641501 -19.282038180640633 4.9240250905496854 #
point $-1 -7.8496948927466885 -24.10588808672108 1.7913802747425791 #
straight-curve $-1 0 -24.10588808672108 4.9240250905496854 1 0 0 I I #
vertex $-1 $711 $920 #
point $-1 -13.219807709652628 -20.549052648668635 1.5946951729122936 #
vertex $-1 $715 $921 #
point $-1 -9.3977400195090652 -20.549052648668635 1.5946951729122936 #
edge $-1 $865 37.894187372909244 $868 41.026832188716348 $720 $922 forward 7 unknown #
vertex $-1 $734 $923 #
straight-curve $-1 7.8496948927466885 -39.277748875044288 4.9240250905496836 0 -1 0 I I #
edge $-1 $868 1.6953079604562635 $731 10.613465904124585 $730 $924 forward 7 unknown #
vertex $-1 $867 $925 #
straight-curve $-1 7.8496948927466885 -24.10588808672108 1.7913802747425791 0 0.83867056331134215 0.54463904215088732 I I #
point $-1 7.8496948927466885 -19.282038180640633 4.9240250905496854 #
point $-1 16.76785283641501 -24.10588808672108 1.7913802747425791 #
straight-curve $-1 0 -24.10588808672108 4.9240250905496854 1 0 0 I I #
vertex $-1 $737 $926 #
point $-1 11.397740019509072 -20.549052648668635 1.5946951729122936 #
vertex $-1 $741 $927 #
point $-1 15.219807709652628 -20.549052648668635 1.5946951729122936 #
edge $-1 $878 37.894187372909244 $881 41.026832188716348 $746 $928 forward 7 unknown #
vertex $-1 $760 $929 #
straight-curve $-1 32.467242621908397 -39.277748875044288 4.9240250905496836 0 -1 0 I I #
edge $-1 $881 14.004081825037119 $757 22.922239768705438 $756 $930 forward 7 unknown #
vertex $-1 $880 $931 #
straight-curve $-1 32.467242621908397 -24.10588808672108 1.7913802747425791 0 0.83867056331134215 0.54463904215088732 I I #
point $-1 32.467242621908397 -19.282038180640633 4.9240250905496854 #
point $-1 41.385400565576717 -24.10588808672108 1.7913802747425791 #
straight-curve $-1 0 -24.10588808672108 4.9240250905496854 1 0 0 I I #
vertex $-1 $763 $932 #
point $-1 36.015287748670772 -20.549052648668635 1.5946951729122936 #
vertex $-1 $767 $933 #
point $-1 39.837355438814328 -20.549052648668635 1.5946951729122936 #
straight-curve $-1 -49.986877040925322 24.10588808672108 0 0 0 -1 I I #
point $-1 -49.986877040925322 -24.10588808672108 -4.9240250905496854 #
straight-curve $-1 -49.986877040925322 0 -4.9240250905496854 0 1 0 I I #
point $-1 -49.986877040925322 24.10588808672108 -4.9240250905496854 #
straight-curve $-1 -49.986877040925322 0 0.44143382541345311 0 -1 0 I I #
point $-1 -49.986877040925322 -24.10588808672108 0.44143382541345311 #
point $-1 -49.986877040925322 24.10588808672108 0.44143382541345311 #
straight-curve $-1 -49.986877040925322 24.10588808672108 0 0 0 -1 I I #
straight-curve $-1 -49.986877040925322 -24.10588808672108 0 0 0 -1 I I #
straight-curve $-1 44.418967332727334 0 0.44143382541345311 0 1 0 I I #
point $-1 44.418967332727334 24.10588808672108 0.44143382541345311 #
point $-1 44.418967332727334 -24.10588808672108 0.44143382541345311 #
straight-curve $-1 44.418967332727334 -24.10588808672108 0.97071691270672655 0 0 -1 I I #
straight-curve $-1 -44.418967332727334 24.10588808672108 52.157607819159026 0 0 1 I I #
straight-curve $-1 -16.566863634804143 21.105165977353913 4.9240250905496836 1 0 0 I I #
point $-1 -44.418967332727334 24.10588808672108 4.9240250905496854 #
point $-1 -44.418967332727334 21.105165977353916 4.9240250905496836 #
point $-1 -39.904871307479716 21.490809781399616 2.2540093892411703 #
point $-1 -33.133727269608293 21.490809781399616 2.2540093892411703 #
point $-1 -26.362583231736867 21.490809781399616 2.2540093892411703 #
straight-curve $-1 -41.38540056557671 -24.10588808672108 42.818212463458927 0 0 -1 I I #
point $-1 -41.38540056557671 -24.10588808672108 4.9240250905496854 #
straight-curve $-1 -18.463160796871275 -24.10588808672108 1.7913802747425782 1 0 0 I I #
point $-1 -41.38540056557671 -24.10588808672108 1.7913802747425791 #
point $-1 -38.837355438814328 -20.004413606517751 0.75602460960095152 #
point $-1 -35.015287748670765 -20.004413606517751 0.75602460960095152 #
straight-curve $-1 -16.76785283641501 -24.10588808672108 42.818212463458927 0 0 -1 I I #
point $-1 -16.76785283641501 -24.10588808672108 4.9240250905496854 #
straight-curve $-1 -6.154386932290425 -24.10588808672108 1.7913802747425782 1 0 0 I I #
point $-1 -16.76785283641501 -24.10588808672108 1.7913802747425791 #
point $-1 -14.219807709652628 -20.004413606517751 0.75602460960095152 #
point $-1 -10.397740019509065 -20.004413606517751 0.75602460960095152 #
straight-curve $-1 7.8496948927466885 -24.10588808672108 42.818212463458927 0 0 -1 I I #
point $-1 7.8496948927466885 -24.10588808672108 4.9240250905496854 #
straight-curve $-1 6.154386932290425 -24.10588808672108 1.7913802747425782 1 0 0 I I #
point $-1 7.8496948927466885 -24.10588808672108 1.7913802747425791 #
point $-1 10.397740019509072 -20.004413606517751 0.75602460960095152 #
point $-1 14.219807709652628 -20.004413606517751 0.75602460960095152 #
straight-curve $-1 32.467242621908397 -24.10588808672108 42.818212463458927 0 0 -1 I I #
point $-1 32.467242621908397 -24.10588808672108 4.9240250905496854 #
straight-curve $-1 18.463160796871279 -24.10588808672108 1.7913802747425782 1 0 0 I I #
point $-1 32.467242621908397 -24.10588808672108 1.7913802747425791 #
point $-1 35.015287748670772 -20.004413606517751 0.75602460960095152 #
point $-1 38.837355438814328 -20.004413606517751 0.75602460960095152 #
End-of-ACIS-data 