500 0 13 0           
7 Unknown 11 ACIS 5.0 NT 24 Thu Mar 25 15:13:54 1999 
-1 9.9999999999999995e-007 1e-010 
body $-1 $13 $-1 $14 #
body $-1 $15 $-1 $16 #
body $-1 $17 $-1 $18 #
body $-1 $19 $-1 $20 #
body $-1 $21 $-1 $22 #
body $-1 $23 $-1 $24 #
body $-1 $25 $-1 $26 #
body $-1 $27 $-1 $28 #
body $-1 $29 $-1 $30 #
body $-1 $31 $-1 $32 #
body $-1 $33 $-1 $34 #
body $-1 $35 $-1 $36 #
body $-1 $37 $-1 $38 #
lump $-1 $-1 $39 $0 #
transform $-1 1 0 0 0 1 0 0 0 1 77.490157780693991 47.313763502511314 14.077458251137838 1 rotate no_reflect no_shear #
lump $-1 $-1 $40 $1 #
transform $-1 1 0 0 0 1 0 0 0 1 77.490157780693991 47.313763502511314 14.077458251137838 1 rotate no_reflect no_shear #
lump $-1 $-1 $41 $2 #
transform $-1 1 0 0 0 1 0 0 0 1 77.490157780693991 47.313763502511314 14.077458251137838 1 rotate no_reflect no_shear #
lump $-1 $-1 $42 $3 #
transform $-1 1 0 0 0 1 0 0 0 1 77.490157780693991 47.313763502511314 14.077458251137838 1 rotate no_reflect no_shear #
lump $-1 $-1 $43 $4 #
transform $-1 1 0 0 0 1 0 0 0 1 77.490157780693991 47.313763502511314 14.077458251137838 1 rotate no_reflect no_shear #
lump $-1 $-1 $44 $5 #
transform $-1 1 0 0 0 1 0 0 0 1 77.490157780693991 47.313763502511314 14.077458251137838 1 rotate no_reflect no_shear #
lump $-1 $-1 $45 $6 #
transform $-1 1 0 0 0 1 0 0 0 1 77.490157780693991 47.313763502511314 14.077458251137838 1 rotate no_reflect no_shear #
lump $-1 $-1 $46 $7 #
transform $-1 1 0 0 0 1 0 0 0 1 77.490157780693991 47.313763502511314 14.077458251137838 1 rotate no_reflect no_shear #
lump $-1 $-1 $47 $8 #
transform $-1 1 0 0 0 1 0 0 0 1 77.490157780693991 47.313763502511314 14.077458251137838 1 rotate no_reflect no_shear #
lump $-1 $-1 $48 $9 #
transform $-1 1 0 0 0 1 0 0 0 1 77.490157780693991 47.313763502511314 14.077458251137838 1 rotate no_reflect no_shear #
lump $-1 $-1 $49 $10 #
transform $-1 1 0 0 0 1 0 0 0 1 77.490157780693991 47.313763502511314 14.077458251137838 1 rotate no_reflect no_shear #
lump $-1 $-1 $50 $11 #
transform $-1 1 0 0 0 1 0 0 0 1 77.490157780693991 47.313763502511314 14.077458251137838 1 rotate no_reflect no_shear #
lump $-1 $-1 $51 $12 #
transform $-1 1 0 0 0 1 0 0 0 1 77.490157780693991 47.313763502511314 14.077458251137838 1 rotate no_reflect no_shear #
shell $-1 $-1 $-1 $52 $-1 $13 #
shell $-1 $-1 $-1 $53 $-1 $15 #
shell $-1 $-1 $-1 $54 $-1 $17 #
shell $-1 $-1 $-1 $55 $-1 $19 #
shell $-1 $-1 $-1 $56 $-1 $21 #
shell $-1 $-1 $-1 $57 $-1 $23 #
shell $-1 $-1 $-1 $58 $-1 $25 #
shell $-1 $-1 $-1 $59 $-1 $27 #
shell $-1 $-1 $-1 $60 $-1 $29 #
shell $-1 $-1 $-1 $61 $-1 $31 #
shell $-1 $-1 $-1 $62 $-1 $33 #
shell $-1 $-1 $-1 $63 $-1 $35 #
shell $-1 $-1 $-1 $64 $-1 $37 #
face $-1 $65 $66 $39 $-1 $67 forward single #
face $-1 $68 $69 $40 $-1 $70 forward single #
face $-1 $71 $72 $41 $-1 $73 reversed single #
face $-1 $74 $75 $42 $-1 $76 forward single #
face $-1 $77 $78 $43 $-1 $79 forward single #
face $-1 $80 $81 $44 $-1 $82 forward single #
face $-1 $83 $84 $45 $-1 $85 reversed single #
face $-1 $86 $87 $46 $-1 $88 forward single #
face $-1 $89 $90 $47 $-1 $91 forward single #
face $-1 $92 $93 $48 $-1 $94 forward single #
face $-1 $95 $96 $49 $-1 $97 reversed single #
face $-1 $98 $99 $50 $-1 $100 forward single #
face $-1 $101 $102 $51 $-1 $103 forward single #
face $-1 $104 $105 $39 $-1 $106 reversed single #
loop $-1 $-1 $107 $52 #
plane-surface $-1 0 0 14.077458251137838 0 0 1 1 0 0 forward_v I I I I #
face $-1 $108 $109 $40 $-1 $110 reversed single #
loop $-1 $-1 $111 $53 #
plane-surface $-1 0 -47.313763502511314 0 0 1 0 0 0 1 forward_v I I I I #
face $-1 $112 $113 $41 $-1 $114 reversed single #
loop $-1 $-1 $115 $54 #
plane-surface $-1 111.77672599485207 -15.103915683641652 224.78317132190023 0 -1 0 -0.80901700255871778 0 -0.5877852410284794 forward_v I I I I #
face $-1 $116 $117 $42 $-1 $118 forward single #
loop $-1 $119 $120 $55 #
cone-surface $-1 74.847600154760158 -24.493542138775684 10.795146510114384 -0.80901700255871778 0 -0.5877852410284794 0.2938926205142397 0 -0.40450850127935889 1 I I 0 1 0.5 forward I I I I #
face $-1 $121 $122 $43 $-1 $123 forward single #
loop $-1 $124 $125 $56 #
cone-surface $-1 74.847600154760158 -20.972432218100423 10.795146510114384 -0.80901700255871778 0 -0.5877852410284794 0.2938926205142397 0 -0.40450850127935889 1 I I 0 1 0.5 forward I I I I #
face $-1 $126 $127 $44 $-1 $128 forward single #
loop $-1 $129 $130 $57 #
cone-surface $-1 74.847600154760158 -17.451322297425161 10.795146510114384 -0.80901700255871778 0 -0.5877852410284794 0.2938926205142397 0 -0.40450850127935889 1 I I 0 1 0.5 forward I I I I #
face $-1 $131 $132 $45 $-1 $133 reversed single #
loop $-1 $-1 $134 $58 #
plane-surface $-1 111.77672599485207 23.763707974160525 224.78317132190023 0 -1 0 -0.80901700255871778 0 -0.5877852410284794 forward_v I I I I #
face $-1 $135 $136 $46 $-1 $137 forward single #
loop $-1 $138 $139 $59 #
cone-surface $-1 74.847600154760158 14.374081519026497 10.795146510114384 -0.80901700255871778 0 -0.5877852410284794 0.2938926205142397 0 -0.40450850127935889 1 I I 0 1 0.5 forward I I I I #
face $-1 $140 $141 $47 $-1 $142 forward single #
loop $-1 $143 $144 $60 #
cone-surface $-1 74.847600154760158 17.895191439701755 10.795146510114384 -0.80901700255871778 0 -0.5877852410284794 0.2938926205142397 0 -0.40450850127935889 1 I I 0 1 0.5 forward I I I I #
face $-1 $145 $146 $48 $-1 $147 forward single #
loop $-1 $148 $149 $61 #
cone-surface $-1 74.847600154760158 21.416301360377012 10.795146510114384 -0.80901700255871778 0 -0.5877852410284794 0.2938926205142397 0 -0.40450850127935889 1 I I 0 1 0.5 forward I I I I #
face $-1 $150 $151 $49 $-1 $152 reversed single #
loop $-1 $-1 $153 $62 #
plane-surface $-1 -188.97366830991385 20.228947210106377 109.24830366005568 0 1 0 -0.71933980857756763 0 0.69465836192734942 forward_v I I I I #
face $-1 $154 $155 $50 $-1 $156 forward single #
loop $-1 $157 $158 $63 #
cone-surface $-1 -69.625230219094263 25.020241087655755 6.0612740863103491 0.71933980857756763 0 -0.69465836192734942 1.3893167238546988 0 1.4386796171551353 1 I I 0 1 2 forward I I I I #
face $-1 $159 $160 $51 $-1 $161 forward single #
loop $-1 $162 $163 $64 #
cone-surface $-1 -69.625230219094263 32.207181903979837 6.0612740863103491 0.71933980857756763 0 -0.69465836192734942 1.3893167238546988 0 1.4386796171551353 1 I I 0 1 2 forward I I I I #
face $-1 $164 $165 $39 $-1 $166 reversed single #
loop $-1 $-1 $167 $65 #
plane-surface $-1 0 0 -14.077458251137838 0 0 1 1 0 0 forward_v I I I I #
coedge $-1 $168 $169 $170 $171 forward $66 $-1 #
face $-1 $172 $173 $40 $-1 $174 forward single #
loop $-1 $-1 $175 $68 #
plane-surface $-1 -77.490157780693991 0 0 1 0 0 0 0 -1 forward_v I I I I #
coedge $-1 $176 $177 $178 $179 forward $69 $-1 #
face $-1 $180 $181 $41 $-1 $182 reversed single #
loop $-1 $-1 $183 $71 #
plane-surface $-1 -13.60498435622624 -20.972432218100423 133.68802918498 0.80901700255871778 0 0.5877852410284794 0.5877852410284794 0 -0.80901700255871778 forward_v I I I I #
coedge $-1 $184 $185 $186 $187 reversed $72 $-1 #
face $-1 $-1 $188 $42 $-1 $189 forward single #
loop $-1 $190 $191 $74 #
cone-surface $-1 74.099277327638319 -24.493542138775684 10.25145816745189 -0.80901700255871778 0 -0.5877852410284794 0.14694631025711985 0 -0.20225425063967944 1 I I -0.70710678118654746 0.70710678118654746 0.25 forward I I I I #
loop $-1 $-1 $192 $55 #
coedge $-1 $120 $120 $193 $194 reversed $75 $-1 #
face $-1 $-1 $195 $43 $-1 $196 forward single #
loop $-1 $197 $198 $77 #
cone-surface $-1 74.099277327638319 -20.972432218100423 10.25145816745189 -0.80901700255871778 0 -0.5877852410284794 0.14694631025711985 0 -0.20225425063967944 1 I I -0.70710678118654746 0.70710678118654746 0.25 forward I I I I #
loop $-1 $-1 $199 $56 #
coedge $-1 $125 $125 $200 $201 reversed $78 $-1 #
face $-1 $-1 $202 $44 $-1 $203 forward single #
loop $-1 $204 $205 $80 #
cone-surface $-1 74.099277327638319 -17.451322297425161 10.25145816745189 -0.80901700255871778 0 -0.5877852410284794 0.14694631025711985 0 -0.20225425063967944 1 I I -0.70710678118654746 0.70710678118654746 0.25 forward I I I I #
loop $-1 $-1 $206 $57 #
coedge $-1 $130 $130 $207 $208 reversed $81 $-1 #
face $-1 $209 $210 $45 $-1 $211 reversed single #
loop $-1 $-1 $212 $83 #
plane-surface $-1 -13.60498435622624 17.895191439701755 133.68802918498 0.80901700255871778 0 0.5877852410284794 0.5877852410284794 0 -0.80901700255871778 forward_v I I I I #
coedge $-1 $213 $214 $215 $216 reversed $84 $-1 #
face $-1 $-1 $217 $46 $-1 $218 forward single #
loop $-1 $219 $220 $86 #
cone-surface $-1 74.099277327638319 14.374081519026497 10.25145816745189 -0.80901700255871778 0 -0.5877852410284794 0.14694631025711985 0 -0.20225425063967944 1 I I -0.70710678118654746 0.70710678118654746 0.25 forward I I I I #
loop $-1 $-1 $221 $59 #
coedge $-1 $139 $139 $222 $223 reversed $87 $-1 #
face $-1 $-1 $224 $47 $-1 $225 forward single #
loop $-1 $226 $227 $89 #
cone-surface $-1 74.099277327638319 17.895191439701755 10.25145816745189 -0.80901700255871778 0 -0.5877852410284794 0.14694631025711985 0 -0.20225425063967944 1 I I -0.70710678118654746 0.70710678118654746 0.25 forward I I I I #
loop $-1 $-1 $228 $60 #
coedge $-1 $144 $144 $229 $230 reversed $90 $-1 #
face $-1 $-1 $231 $48 $-1 $232 forward single #
loop $-1 $233 $234 $92 #
cone-surface $-1 74.099277327638319 21.416301360377012 10.25145816745189 -0.80901700255871778 0 -0.5877852410284794 0.14694631025711985 0 -0.20225425063967944 1 I I -0.70710678118654746 0.70710678118654746 0.25 forward I I I I #
loop $-1 $-1 $235 $61 #
coedge $-1 $149 $149 $236 $237 reversed $93 $-1 #
face $-1 $238 $239 $49 $-1 $240 reversed single #
loop $-1 $-1 $241 $95 #
plane-surface $-1 -77.490157780693991 28.613711495817803 1.5899315211982099 -0.71933980857756763 0 0.69465836192734942 0.69465836192734942 0 0.71933980857756763 forward_v I I I I #
coedge $-1 $242 $243 $244 $245 reversed $96 $-1 #
face $-1 $-1 $246 $50 $-1 $247 forward single #
loop $-1 $248 $249 $98 #
cone-surface $-1 -67.070494899907615 25.020241087655755 3.5941949245253362 0.71933980857756763 0 -0.69465836192734942 0.69465836192734942 0 0.71933980857756763 1 I I -0.70710678118654746 0.70710678118654746 1 forward I I I I #
loop $-1 $-1 $250 $63 #
coedge $-1 $158 $158 $251 $252 reversed $99 $-1 #
face $-1 $-1 $253 $51 $-1 $254 forward single #
loop $-1 $255 $256 $101 #
cone-surface $-1 -67.070494899907615 32.207181903979837 3.5941949245253362 0.71933980857756763 0 -0.69465836192734942 0.69465836192734942 0 0.71933980857756763 1 I I -0.70710678118654746 0.70710678118654746 1 forward I I I I #
loop $-1 $-1 $257 $64 #
coedge $-1 $163 $163 $258 $259 reversed $102 $-1 #
face $-1 $260 $261 $39 $-1 $262 reversed single #
loop $-1 $-1 $263 $104 #
plane-surface $-1 0 -47.313763502511314 0 0 1 0 0 0 1 forward_v I I I I #
coedge $-1 $264 $265 $266 $267 forward $105 $-1 #
coedge $-1 $268 $107 $269 $270 forward $66 $-1 #
coedge $-1 $107 $268 $271 $272 forward $66 $-1 #
coedge $-1 $273 $274 $107 $171 reversed $275 $-1 #
edge $-1 $276 -47.313763502511314 $277 47.313763502511314 $170 $278 forward 7 unknown #
face $-1 $279 $280 $40 $-1 $281 reversed single #
loop $-1 $-1 $282 $108 #
plane-surface $-1 0 -55.759903347220451 -8.9320156295933231 0 0 1 1 0 0 forward_v I I I I #
coedge $-1 $283 $284 $177 $285 forward $109 $-1 #
coedge $-1 $286 $111 $287 $288 reversed $69 $-1 #
coedge $-1 $111 $286 $175 $285 reversed $69 $-1 #
coedge $-1 $289 $282 $111 $179 reversed $173 $-1 #
edge $-1 $290 -77.490157780693991 $291 77.490157780693991 $178 $292 forward 7 unknown #
face $-1 $293 $294 $41 $-1 $295 reversed single #
loop $-1 $-1 $296 $112 #
plane-surface $-1 111.77672599485207 -26.840948752559193 224.78317132190023 0 1 0 0.80901700255871778 0 0.5877852410284794 forward_v I I I I #
coedge $-1 $297 $298 $299 $300 reversed $113 $-1 #
coedge $-1 $185 $115 $301 $302 reversed $72 $-1 #
coedge $-1 $115 $184 $297 $303 reversed $72 $-1 #
coedge $-1 $299 $304 $115 $187 forward $305 $-1 #
edge $-1 $306 -21.601794783267955 $307 -17.408816684364645 $186 $308 forward 7 unknown #
loop $-1 $-1 $193 $116 #
plane-surface $-1 -13.60498435622624 -20.972432218100423 133.68802918498 0.80901700255871778 0 0.5877852410284794 0.5877852410284794 0 -0.80901700255871778 forward_v I I I I #
loop $-1 $-1 $309 $74 #
coedge $-1 $191 $191 $192 $310 reversed $117 $-1 #
coedge $-1 $192 $192 $191 $310 forward $119 $-1 #
coedge $-1 $193 $193 $120 $194 forward $188 $-1 #
edge $-1 $311 0 $311 6.2831853071796004 $193 $312 forward 7 unknown #
loop $-1 $-1 $200 $121 #
plane-surface $-1 -13.60498435622624 -20.972432218100423 133.68802918498 0.80901700255871778 0 0.5877852410284794 0.5877852410284794 0 -0.80901700255871778 forward_v I I I I #
loop $-1 $-1 $313 $77 #
coedge $-1 $198 $198 $199 $314 reversed $122 $-1 #
coedge $-1 $199 $199 $198 $314 forward $124 $-1 #
coedge $-1 $200 $200 $125 $201 forward $195 $-1 #
edge $-1 $315 0 $315 6.2831853071796004 $200 $316 forward 7 unknown #
loop $-1 $-1 $207 $126 #
plane-surface $-1 -13.60498435622624 -20.972432218100423 133.68802918498 0.80901700255871778 0 0.5877852410284794 0.5877852410284794 0 -0.80901700255871778 forward_v I I I I #
loop $-1 $-1 $317 $80 #
coedge $-1 $205 $205 $206 $318 reversed $127 $-1 #
coedge $-1 $206 $206 $205 $318 forward $129 $-1 #
coedge $-1 $207 $207 $130 $208 forward $202 $-1 #
edge $-1 $319 0 $319 6.2831853071796004 $207 $320 forward 7 unknown #
face $-1 $321 $322 $45 $-1 $323 reversed single #
loop $-1 $-1 $324 $131 #
plane-surface $-1 111.77672599485207 12.026674905242984 224.78317132190023 0 1 0 0.80901700255871778 0 0.5877852410284794 forward_v I I I I #
coedge $-1 $325 $326 $327 $328 reversed $132 $-1 #
coedge $-1 $214 $134 $329 $330 reversed $84 $-1 #
coedge $-1 $134 $213 $325 $331 reversed $84 $-1 #
coedge $-1 $327 $332 $134 $216 forward $333 $-1 #
edge $-1 $334 -21.601794783267955 $335 -17.408816684364645 $215 $336 forward 7 unknown #
loop $-1 $-1 $222 $135 #
plane-surface $-1 -13.60498435622624 17.895191439701755 133.68802918498 0.80901700255871778 0 0.5877852410284794 0.5877852410284794 0 -0.80901700255871778 forward_v I I I I #
loop $-1 $-1 $337 $86 #
coedge $-1 $220 $220 $221 $338 reversed $136 $-1 #
coedge $-1 $221 $221 $220 $338 forward $138 $-1 #
coedge $-1 $222 $222 $139 $223 forward $217 $-1 #
edge $-1 $339 0 $339 6.2831853071796004 $222 $340 forward 7 unknown #
loop $-1 $-1 $229 $140 #
plane-surface $-1 -13.60498435622624 17.895191439701755 133.68802918498 0.80901700255871778 0 0.5877852410284794 0.5877852410284794 0 -0.80901700255871778 forward_v I I I I #
loop $-1 $-1 $341 $89 #
coedge $-1 $227 $227 $228 $342 reversed $141 $-1 #
coedge $-1 $228 $228 $227 $342 forward $143 $-1 #
coedge $-1 $229 $229 $144 $230 forward $224 $-1 #
edge $-1 $343 0 $343 6.2831853071796004 $229 $344 forward 7 unknown #
loop $-1 $-1 $236 $145 #
plane-surface $-1 -13.60498435622624 17.895191439701755 133.68802918498 0.80901700255871778 0 0.5877852410284794 0.5877852410284794 0 -0.80901700255871778 forward_v I I I I #
loop $-1 $-1 $345 $92 #
coedge $-1 $234 $234 $235 $346 reversed $146 $-1 #
coedge $-1 $235 $235 $234 $346 forward $148 $-1 #
coedge $-1 $236 $236 $149 $237 forward $231 $-1 #
edge $-1 $347 0 $347 6.2831853071796004 $236 $348 forward 7 unknown #
face $-1 $349 $350 $49 $-1 $351 forward single #
loop $-1 $-1 $352 $150 #
plane-surface $-1 -188.97366830991385 36.99847578152923 109.24830366005568 0 -1 0 0.71933980857756763 0 -0.69465836192734942 forward_v I I I I #
coedge $-1 $353 $354 $355 $356 reversed $151 $-1 #
coedge $-1 $243 $153 $357 $358 reversed $96 $-1 #
coedge $-1 $153 $242 $353 $359 reversed $96 $-1 #
coedge $-1 $355 $360 $153 $245 forward $350 $-1 #
edge $-1 $361 16.996676374262933 $362 29.055740476244239 $244 $363 forward 7 unknown #
loop $-1 $-1 $251 $154 #
plane-surface $-1 -77.490157780693991 28.613711495817803 1.5899315211982099 -0.71933980857756763 0 0.69465836192734942 0.69465836192734942 0 0.71933980857756763 forward_v I I I I #
loop $-1 $-1 $364 $98 #
coedge $-1 $249 $249 $250 $365 reversed $155 $-1 #
coedge $-1 $250 $250 $249 $365 forward $157 $-1 #
coedge $-1 $251 $251 $158 $252 forward $246 $-1 #
edge $-1 $366 0 $366 6.2831853071796004 $251 $367 forward 7 unknown #
loop $-1 $-1 $258 $159 #
plane-surface $-1 -77.490157780693991 28.613711495817803 1.5899315211982099 -0.71933980857756763 0 0.69465836192734942 0.69465836192734942 0 0.71933980857756763 forward_v I I I I #
loop $-1 $-1 $368 $101 #
coedge $-1 $256 $256 $257 $369 reversed $160 $-1 #
coedge $-1 $257 $257 $256 $369 forward $162 $-1 #
coedge $-1 $258 $258 $163 $259 forward $253 $-1 #
edge $-1 $370 0 $370 6.2831853071796004 $258 $371 forward 7 unknown #
face $-1 $372 $373 $39 $-1 $374 reversed single #
loop $-1 $-1 $375 $164 #
plane-surface $-1 -77.490157780693991 0 0 1 0 0 0 0 -1 forward_v I I I I #
coedge $-1 $376 $271 $377 $378 forward $165 $-1 #
coedge $-1 $379 $167 $376 $380 forward $105 $-1 #
coedge $-1 $167 $379 $381 $382 forward $105 $-1 #
coedge $-1 $274 $273 $167 $267 reversed $275 $-1 #
edge $-1 $383 -47.313763502511314 $384 47.313763502511314 $266 $385 forward 7 unknown #
coedge $-1 $169 $168 $386 $387 forward $66 $-1 #
coedge $-1 $388 $389 $168 $270 reversed $373 $-1 #
edge $-1 $277 -77.490157780693991 $390 77.490157780693991 $269 $391 forward 7 unknown #
coedge $-1 $263 $392 $169 $272 reversed $165 $-1 #
edge $-1 $393 -77.490157780693991 $276 77.490157780693991 $271 $394 forward 7 unknown #
coedge $-1 $266 $170 $392 $395 forward $275 $-1 #
coedge $-1 $170 $266 $388 $396 reversed $275 $-1 #
loop $-1 $-1 $273 $372 #
vertex $-1 $171 $397 #
vertex $-1 $171 $398 #
straight-curve $-1 77.490157780693991 0 14.077458251137838 0 1 0 I I #
face $-1 $399 $400 $40 $-1 $401 reversed single #
loop $-1 $-1 $402 $172 #
plane-surface $-1 0 -55.759903347220451 -13.068855910980275 0 0 1 1 0 0 forward_v I I I I #
coedge $-1 $178 $403 $404 $405 forward $173 $-1 #
coedge $-1 $406 $175 $407 $408 reversed $109 $-1 #
coedge $-1 $175 $406 $289 $409 reversed $109 $-1 #
edge $-1 $290 8.9320156295933231 $410 13.068855910980275 $175 $411 forward 7 unknown #
coedge $-1 $177 $176 $412 $413 forward $69 $-1 #
coedge $-1 $404 $414 $176 $288 forward $415 $-1 #
edge $-1 $416 -13.068855910980275 $291 -8.9320156295933231 $287 $417 forward 7 unknown #
coedge $-1 $403 $178 $284 $409 forward $173 $-1 #
vertex $-1 $285 $418 #
vertex $-1 $405 $419 #
straight-curve $-1 0 -47.313763502511314 -8.9320156295933231 1 0 0 I I #
face $-1 $-1 $305 $41 $-1 $420 forward single #
loop $-1 $-1 $421 $180 #
plane-surface $-1 77.490157780693991 0 0 -1 0 0 0 0 1 forward_v I I I I #
coedge $-1 $422 $423 $424 $425 reversed $181 $-1 #
coedge $-1 $426 $183 $185 $303 forward $113 $-1 #
coedge $-1 $183 $426 $422 $427 forward $113 $-1 #
coedge $-1 $424 $186 $183 $300 forward $305 $-1 #
edge $-1 $307 4.6176995745914411 $428 16.354732643508981 $299 $429 forward 7 unknown #
coedge $-1 $430 $431 $184 $302 forward $294 $-1 #
edge $-1 $432 -104.08526682704843 $306 -98.314127409812272 $301 $433 forward 7 unknown #
edge $-1 $307 147.8467950062161 $432 154.98031556138798 $185 $434 forward 7 unknown #
coedge $-1 $186 $424 $430 $435 forward $305 $-1 #
loop $-1 $-1 $424 $293 #
vertex $-1 $302 $436 #
vertex $-1 $187 $437 #
straight-curve $-1 55.888362997426036 -15.103915683641652 14.077458251137841 -1 0 0 I I #
coedge $-1 $309 $309 $-1 $438 reversed $190 $-1 #
edge $-1 $439 0 $439 6.2831853071796004 $191 $440 forward 7 unknown #
vertex $-1 $194 $441 #
ellipse-curve $-1 75.393668731242343 -24.493542138775684 11.191888542519772 0.80901700255871778 0 0.5877852410284794 0.2938926205142397 0 -0.40450850127935889 1 I I #
coedge $-1 $313 $313 $-1 $442 reversed $197 $-1 #
edge $-1 $443 0 $443 6.2831853071796004 $198 $444 forward 7 unknown #
vertex $-1 $201 $445 #
ellipse-curve $-1 75.393668731242343 -20.972432218100423 11.191888542519772 0.80901700255871778 0 0.5877852410284794 0.2938926205142397 0 -0.40450850127935889 1 I I #
coedge $-1 $317 $317 $-1 $446 reversed $204 $-1 #
edge $-1 $447 0 $447 6.2831853071796004 $205 $448 forward 7 unknown #
vertex $-1 $208 $449 #
ellipse-curve $-1 75.393668731242343 -17.451322297425161 11.191888542519772 0.80901700255871778 0 0.5877852410284794 0.2938926205142397 0 -0.40450850127935889 1 I I #
face $-1 $-1 $333 $45 $-1 $450 forward single #
loop $-1 $-1 $451 $209 #
plane-surface $-1 77.490157780693991 0 0 -1 0 0 0 0 1 forward_v I I I I #
coedge $-1 $452 $453 $454 $455 reversed $210 $-1 #
coedge $-1 $456 $212 $214 $331 forward $132 $-1 #
coedge $-1 $212 $456 $452 $457 forward $132 $-1 #
coedge $-1 $454 $215 $212 $328 forward $333 $-1 #
edge $-1 $335 -14.816112254309648 $458 -3.0790791853921071 $327 $459 forward 7 unknown #
coedge $-1 $460 $461 $213 $330 forward $322 $-1 #
edge $-1 $462 -104.08526682704843 $334 -98.314127409812272 $329 $463 forward 7 unknown #
edge $-1 $335 147.8467950062161 $462 154.98031556138798 $214 $464 forward 7 unknown #
coedge $-1 $215 $454 $460 $465 forward $333 $-1 #
loop $-1 $-1 $454 $321 #
vertex $-1 $330 $466 #
vertex $-1 $216 $467 #
straight-curve $-1 55.888362997426036 23.763707974160525 14.077458251137841 -1 0 0 I I #
coedge $-1 $337 $337 $-1 $468 reversed $219 $-1 #
edge $-1 $469 0 $469 6.2831853071796004 $220 $470 forward 7 unknown #
vertex $-1 $223 $471 #
ellipse-curve $-1 75.393668731242343 14.374081519026497 11.191888542519772 0.80901700255871778 0 0.5877852410284794 0.2938926205142397 0 -0.40450850127935889 1 I I #
coedge $-1 $341 $341 $-1 $472 reversed $226 $-1 #
edge $-1 $473 0 $473 6.2831853071796004 $227 $474 forward 7 unknown #
vertex $-1 $230 $475 #
ellipse-curve $-1 75.393668731242343 17.895191439701755 11.191888542519772 0.80901700255871778 0 0.5877852410284794 0.2938926205142397 0 -0.40450850127935889 1 I I #
coedge $-1 $345 $345 $-1 $476 reversed $233 $-1 #
edge $-1 $477 0 $477 6.2831853071796004 $234 $478 forward 7 unknown #
vertex $-1 $237 $479 #
ellipse-curve $-1 75.393668731242343 21.416301360377012 11.191888542519772 0.80901700255871778 0 0.5877852410284794 0.2938926205142397 0 -0.40450850127935889 1 I I #
face $-1 $-1 $480 $49 $-1 $481 reversed single #
loop $-1 $-1 $244 $238 #
plane-surface $-1 0 0 14.077458251137838 0 0 1 1 0 0 forward_v I I I I #
coedge $-1 $482 $483 $484 $485 reversed $239 $-1 #
coedge $-1 $486 $241 $243 $359 forward $151 $-1 #
coedge $-1 $241 $486 $482 $487 forward $151 $-1 #
coedge $-1 $484 $244 $241 $356 forward $350 $-1 #
edge $-1 $362 5.922091462197475 $488 22.691620033620328 $355 $489 forward 7 unknown #
coedge $-1 $490 $491 $242 $358 forward $480 $-1 #
edge $-1 $492 -53.034220308829632 $361 -40.54669357889 $357 $493 forward 7 unknown #
edge $-1 $362 -17.35970480298127 $492 0 $243 $494 forward 7 unknown #
coedge $-1 $244 $484 $490 $495 forward $350 $-1 #
vertex $-1 $245 $496 #
vertex $-1 $245 $497 #
straight-curve $-1 -94.486834154956924 20.228947210106377 14.077458251137841 1 0 0 I I #
coedge $-1 $364 $364 $-1 $498 reversed $248 $-1 #
edge $-1 $499 0 $499 6.2831853071796004 $249 $500 forward 7 unknown #
vertex $-1 $252 $501 #
ellipse-curve $-1 -71.460625729703338 25.020241087655755 7.8336948861680176 -0.71933980857756763 0 0.69465836192734942 1.3893167238546988 0 1.4386796171551353 1 I I #
coedge $-1 $368 $368 $-1 $502 reversed $255 $-1 #
edge $-1 $503 0 $503 6.2831853071796004 $256 $504 forward 7 unknown #
vertex $-1 $259 $505 #
ellipse-curve $-1 -71.460625729703338 32.207181903979837 7.8336948861680176 -0.71933980857756763 0 0.69465836192734942 1.3893167238546988 0 1.4386796171551353 1 I I #
face $-1 $-1 $275 $39 $-1 $506 reversed single #
loop $-1 $-1 $388 $260 #
plane-surface $-1 0 47.313763502511314 0 0 -1 0 0 0 -1 forward_v I I I I #
coedge $-1 $507 $386 $389 $508 forward $261 $-1 #
coedge $-1 $392 $263 $264 $380 reversed $165 $-1 #
coedge $-1 $386 $507 $263 $378 reversed $261 $-1 #
edge $-1 $393 -14.077458251137838 $509 14.077458251137838 $377 $510 forward 7 unknown #
coedge $-1 $265 $264 $507 $511 forward $105 $-1 #
edge $-1 $384 -77.490157780693991 $509 77.490157780693991 $376 $512 forward 7 unknown #
coedge $-1 $389 $388 $265 $382 reversed $373 $-1 #
edge $-1 $513 -77.490157780693991 $383 77.490157780693991 $381 $514 forward 7 unknown #
vertex $-1 $267 $515 #
vertex $-1 $395 $516 #
straight-curve $-1 77.490157780693991 0 -14.077458251137838 0 -1 0 I I #
coedge $-1 $375 $377 $268 $387 reversed $261 $-1 #
edge $-1 $390 -47.313763502511314 $393 47.313763502511314 $386 $517 forward 7 unknown #
coedge $-1 $381 $269 $274 $396 forward $373 $-1 #
coedge $-1 $269 $381 $375 $508 reversed $373 $-1 #
vertex $-1 $270 $518 #
straight-curve $-1 0 47.313763502511314 14.077458251137838 -1 0 0 I I #
coedge $-1 $271 $376 $273 $395 reversed $165 $-1 #
vertex $-1 $387 $519 #
straight-curve $-1 0 -47.313763502511314 14.077458251137838 1 0 0 I I #
edge $-1 $276 -14.077458251137838 $384 14.077458251137838 $273 $520 forward 7 unknown #
edge $-1 $277 -14.077458251137838 $383 14.077458251137838 $274 $521 forward 7 unknown #
point $-1 77.490157780693991 -47.313763502511314 14.077458251137838 #
point $-1 77.490157780693991 47.313763502511314 14.077458251137838 #
face $-1 $-1 $415 $40 $-1 $522 reversed single #
loop $-1 $-1 $523 $279 #
plane-surface $-1 0 -64.206043191929581 -11.000435770286799 0 1 0 0 0 1 forward_v I I I I #
coedge $-1 $524 $412 $414 $525 forward $280 $-1 #
coedge $-1 $282 $289 $526 $527 forward $173 $-1 #
coedge $-1 $528 $287 $282 $405 reversed $415 $-1 #
edge $-1 $529 -8.4461398447091298 $291 8.4461398447091369 $404 $530 forward 7 unknown #
coedge $-1 $284 $283 $523 $531 reversed $109 $-1 #
coedge $-1 $412 $524 $283 $408 forward $280 $-1 #
edge $-1 $532 -8.4461398447091298 $410 8.4461398447091369 $283 $533 forward 7 unknown #
edge $-1 $290 -8.4461398447091369 $534 8.4461398447091298 $284 $535 forward 7 unknown #
vertex $-1 $285 $536 #
straight-curve $-1 -77.490157780693991 -47.313763502511314 0 0 0 -1 I I #
coedge $-1 $402 $407 $286 $413 reversed $280 $-1 #
edge $-1 $416 -77.490157780693991 $410 77.490157780693991 $412 $537 forward 7 unknown #
coedge $-1 $287 $528 $402 $525 reversed $415 $-1 #
loop $-1 $-1 $287 $399 #
vertex $-1 $288 $538 #
straight-curve $-1 77.490157780693991 -47.313763502511314 0 0 0 1 I I #
point $-1 -77.490157780693991 -47.313763502511314 -8.9320156295933231 #
point $-1 77.490157780693991 -47.313763502511314 -8.9320156295933231 #
plane-surface $-1 0 0 14.077458251137838 0 0 1 1 0 0 forward_v I I I I #
coedge $-1 $431 $430 $423 $539 forward $294 $-1 #
coedge $-1 $423 $296 $298 $427 reversed $181 $-1 #
coedge $-1 $296 $422 $421 $539 reversed $181 $-1 #
coedge $-1 $304 $299 $296 $425 forward $305 $-1 #
edge $-1 $428 17.408816684364645 $540 21.601794783267955 $424 $541 forward 7 unknown #
coedge $-1 $298 $297 $431 $542 reversed $113 $-1 #
edge $-1 $543 -154.98031556138798 $428 -147.8467950062161 $422 $544 forward 7 unknown #
vertex $-1 $300 $545 #
straight-curve $-1 73.297179681790681 -10.486216109050211 14.077458251137855 0 -1 0 I I #
coedge $-1 $421 $301 $304 $435 reversed $294 $-1 #
coedge $-1 $301 $421 $426 $542 forward $294 $-1 #
vertex $-1 $302 $546 #
straight-curve $-1 77.490157780693991 -15.103915683641652 112.39158566095011 0 0 1 I I #
straight-curve $-1 -13.60498435622624 -15.103915683641652 133.68802918498 0.5877852410284794 0 -0.80901700255871778 I I #
edge $-1 $540 -26.840948752559193 $306 -15.103915683641652 $430 $547 forward 7 unknown #
point $-1 77.490157780693991 -15.103915683641652 14.077458251137838 #
point $-1 73.297179681790681 -15.103915683641652 14.077458251137841 #
edge $-1 $548 1 $548 0 $309 $-1 forward 7 unknown #
vertex $-1 $310 $549 #
ellipse-curve $-1 74.301531578278002 -24.493542138775684 10.398404477709009 0.80901700255871778 0 0.5877852410284794 0.2938926205142397 0 -0.40450850127935889 1 I I #
point $-1 75.687561351756571 -24.493542138775684 10.787380041240398 #
edge $-1 $550 1 $550 0 $313 $-1 forward 7 unknown #
vertex $-1 $314 $551 #
ellipse-curve $-1 74.301531578278002 -20.972432218100423 10.398404477709009 0.80901700255871778 0 0.5877852410284794 0.2938926205142397 0 -0.40450850127935889 1 I I #
point $-1 75.687561351756571 -20.972432218100423 10.787380041240398 #
edge $-1 $552 1 $552 0 $317 $-1 forward 7 unknown #
vertex $-1 $318 $553 #
ellipse-curve $-1 74.301531578278002 -17.451322297425161 10.398404477709009 0.80901700255871778 0 0.5877852410284794 0.2938926205142397 0 -0.40450850127935889 1 I I #
point $-1 75.687561351756571 -17.451322297425161 10.787380041240398 #
plane-surface $-1 0 0 14.077458251137838 0 0 1 1 0 0 forward_v I I I I #
coedge $-1 $461 $460 $453 $554 forward $322 $-1 #
coedge $-1 $453 $324 $326 $457 reversed $210 $-1 #
coedge $-1 $324 $452 $451 $554 reversed $210 $-1 #
coedge $-1 $332 $327 $324 $455 forward $333 $-1 #
edge $-1 $458 17.408816684364645 $555 21.601794783267955 $454 $556 forward 7 unknown #
coedge $-1 $326 $325 $461 $557 reversed $132 $-1 #
edge $-1 $558 -154.98031556138798 $458 -147.8467950062161 $452 $559 forward 7 unknown #
vertex $-1 $328 $560 #
straight-curve $-1 73.297179681790681 8.9475957198508773 14.077458251137855 0 -1 0 I I #
coedge $-1 $451 $329 $332 $465 reversed $322 $-1 #
coedge $-1 $329 $451 $456 $557 forward $322 $-1 #
vertex $-1 $330 $561 #
straight-curve $-1 77.490157780693991 23.763707974160525 112.39158566095011 0 0 1 I I #
straight-curve $-1 -13.60498435622624 23.763707974160525 133.68802918498 0.5877852410284794 0 -0.80901700255871778 I I #
edge $-1 $555 12.026674905242984 $334 23.763707974160525 $460 $562 forward 7 unknown #
point $-1 77.490157780693991 23.763707974160525 14.077458251137838 #
point $-1 73.297179681790681 23.763707974160525 14.077458251137841 #
edge $-1 $563 1 $563 0 $337 $-1 forward 7 unknown #
vertex $-1 $338 $564 #
ellipse-curve $-1 74.301531578278002 14.374081519026497 10.398404477709009 0.80901700255871778 0 0.5877852410284794 0.2938926205142397 0 -0.40450850127935889 1 I I #
point $-1 75.687561351756571 14.374081519026497 10.787380041240398 #
edge $-1 $565 1 $565 0 $341 $-1 forward 7 unknown #
vertex $-1 $342 $566 #
ellipse-curve $-1 74.301531578278002 17.895191439701755 10.398404477709009 0.80901700255871778 0 0.5877852410284794 0.2938926205142397 0 -0.40450850127935889 1 I I #
point $-1 75.687561351756571 17.895191439701755 10.787380041240398 #
edge $-1 $567 1 $567 0 $345 $-1 forward 7 unknown #
vertex $-1 $346 $568 #
ellipse-curve $-1 74.301531578278002 21.416301360377012 10.398404477709009 0.80901700255871778 0 0.5877852410284794 0.2938926205142397 0 -0.40450850127935889 1 I I #
point $-1 75.687561351756571 21.416301360377012 10.787380041240398 #
loop $-1 $-1 $357 $349 #
plane-surface $-1 -77.490157780693991 0 0 1 0 0 0 0 -1 forward_v I I I I #
coedge $-1 $483 $352 $354 $487 reversed $239 $-1 #
coedge $-1 $352 $482 $569 $570 reversed $239 $-1 #
coedge $-1 $360 $355 $352 $485 forward $350 $-1 #
edge $-1 $488 -29.055740476244239 $571 -16.996676374262933 $484 $572 forward 7 unknown #
coedge $-1 $354 $353 $491 $573 reversed $151 $-1 #
edge $-1 $574 0 $488 17.35970480298127 $482 $575 forward 7 unknown #
vertex $-1 $356 $576 #
straight-curve $-1 -65.431093678712685 14.306855747908902 14.077458251137838 0 1 0 I I #
coedge $-1 $569 $357 $360 $495 reversed $480 $-1 #
coedge $-1 $357 $569 $486 $573 forward $480 $-1 #
vertex $-1 $358 $577 #
straight-curve $-1 -77.490157780693991 20.228947210106377 54.624151830027841 0 0 1 I I #
straight-curve $-1 -77.490157780693991 20.228947210106377 1.5899315211982099 -0.69465836192734942 0 -0.71933980857756763 I I #
edge $-1 $571 -36.99847578152923 $361 -20.228947210106377 $490 $578 forward 7 unknown #
point $-1 -77.490157780693991 20.228947210106377 14.077458251137838 #
point $-1 -65.431093678712685 20.228947210106377 14.077458251137838 #
edge $-1 $579 1 $579 0 $364 $-1 forward 7 unknown #
vertex $-1 $365 $580 #
ellipse-curve $-1 -67.789834708485188 25.020241087655755 4.2888532864526852 -0.71933980857756763 0 0.69465836192734942 1.3893167238546988 0 1.4386796171551353 1 I I #
point $-1 -70.071309005848633 25.020241087655755 9.2723745033231477 #
edge $-1 $581 1 $581 0 $368 $-1 forward 7 unknown #
vertex $-1 $369 $582 #
ellipse-curve $-1 -67.789834708485188 32.207181903979837 4.2888532864526852 -0.71933980857756763 0 0.69465836192734942 1.3893167238546988 0 1.4386796171551353 1 I I #
point $-1 -70.071309005848633 32.207181903979837 9.2723745033231477 #
plane-surface $-1 77.490157780693991 0 0 -1 0 0 0 0 1 forward_v I I I I #
coedge $-1 $377 $375 $379 $511 reversed $261 $-1 #
edge $-1 $390 -14.077458251137838 $513 14.077458251137838 $389 $583 forward 7 unknown #
vertex $-1 $511 $584 #
straight-curve $-1 -77.490157780693991 -47.313763502511314 0 0 0 -1 I I #
edge $-1 $509 -47.313763502511314 $513 47.313763502511314 $507 $585 forward 7 unknown #
straight-curve $-1 0 -47.313763502511314 -14.077458251137838 -1 0 0 I I #
vertex $-1 $382 $586 #
straight-curve $-1 0 47.313763502511314 -14.077458251137838 1 0 0 I I #
point $-1 77.490157780693991 47.313763502511314 -14.077458251137838 #
point $-1 77.490157780693991 -47.313763502511314 -14.077458251137838 #
straight-curve $-1 -77.490157780693991 0 14.077458251137838 0 -1 0 I I #
point $-1 -77.490157780693991 47.313763502511314 14.077458251137838 #
point $-1 -77.490157780693991 -47.313763502511314 14.077458251137838 #
straight-curve $-1 77.490157780693991 -47.313763502511314 0 0 0 -1 I I #
straight-curve $-1 77.490157780693991 47.313763502511314 0 0 0 -1 I I #
plane-surface $-1 77.490157780693991 0 0 -1 0 0 0 0 1 forward_v I I I I #
coedge $-1 $587 $526 $406 $531 forward $400 $-1 #
coedge $-1 $407 $402 $587 $588 forward $280 $-1 #
edge $-1 $416 -8.4461398447091369 $589 8.4461398447091298 $414 $590 forward 7 unknown #
coedge $-1 $523 $591 $403 $527 reversed $400 $-1 #
edge $-1 $534 -77.490157780693991 $529 77.490157780693991 $526 $592 forward 7 unknown #
coedge $-1 $414 $404 $591 $593 forward $415 $-1 #
vertex $-1 $405 $594 #
straight-curve $-1 77.490157780693991 -55.759903347220451 -8.9320156295933231 0 1 0 I I #
edge $-1 $534 -2.0684201406934761 $532 2.0684201406934761 $406 $595 forward 7 unknown #
vertex $-1 $408 $596 #
straight-curve $-1 -77.490157780693991 -55.759903347220451 -13.068855910980275 0 1 0 I I #
vertex $-1 $409 $597 #
straight-curve $-1 -77.490157780693991 -55.759903347220451 -8.9320156295933231 0 -1 0 I I #
point $-1 -77.490157780693991 -47.313763502511314 -13.068855910980275 #
straight-curve $-1 0 -47.313763502511314 -13.068855910980275 -1 0 0 I I #
point $-1 77.490157780693991 -47.313763502511314 -13.068855910980275 #
edge $-1 $540 98.314127409812272 $543 104.08526682704843 $421 $598 forward 7 unknown #
vertex $-1 $435 $599 #
straight-curve $-1 55.888362997426036 -26.840948752559193 14.077458251137841 1 0 0 I I #
edge $-1 $543 -16.354732643508981 $432 -4.6176995745914411 $431 $600 forward 7 unknown #
vertex $-1 $542 $601 #
straight-curve $-1 -13.60498435622624 -26.840948752559193 133.68802918498 -0.5877852410284794 0 0.80901700255871778 I I #
point $-1 73.297179681790681 -26.840948752559193 14.077458251137841 #
point $-1 77.490157780693991 -15.103915683641652 8.3063188339016847 #
straight-curve $-1 77.490157780693991 0 14.077458251137838 0 1 0 I I #
vertex $-1 $438 $602 #
point $-1 74.595424198792244 -24.493542138775684 9.9938959764296502 #
vertex $-1 $442 $603 #
point $-1 74.595424198792244 -20.972432218100423 9.9938959764296502 #
vertex $-1 $446 $604 #
point $-1 74.595424198792244 -17.451322297425161 9.9938959764296502 #
edge $-1 $555 98.314127409812272 $558 104.08526682704843 $451 $605 forward 7 unknown #
vertex $-1 $465 $606 #
straight-curve $-1 55.888362997426036 12.026674905242984 14.077458251137841 1 0 0 I I #
edge $-1 $558 3.0790791853921071 $462 14.816112254309648 $461 $607 forward 7 unknown #
vertex $-1 $557 $608 #
straight-curve $-1 -13.60498435622624 12.026674905242984 133.68802918498 -0.5877852410284794 0 0.80901700255871778 I I #
point $-1 73.297179681790681 12.026674905242984 14.077458251137841 #
point $-1 77.490157780693991 23.763707974160525 8.3063188339016847 #
straight-curve $-1 77.490157780693991 0 14.077458251137838 0 1 0 I I #
vertex $-1 $468 $609 #
point $-1 74.595424198792244 14.374081519026497 9.9938959764296502 #
vertex $-1 $472 $610 #
point $-1 74.595424198792244 17.895191439701755 9.9938959764296502 #
vertex $-1 $476 $611 #
point $-1 74.595424198792244 21.416301360377012 9.9938959764296502 #
coedge $-1 $491 $490 $483 $570 forward $480 $-1 #
edge $-1 $571 40.54669357889 $574 53.034220308829632 $569 $612 forward 7 unknown #
vertex $-1 $495 $613 #
straight-curve $-1 -94.486834154956924 36.99847578152923 14.077458251137841 -1 0 0 I I #
edge $-1 $574 -22.691620033620328 $492 -5.922091462197475 $491 $614 forward 7 unknown #
vertex $-1 $573 $615 #
straight-curve $-1 -77.490157780693991 36.99847578152923 1.5899315211982099 0.69465836192734942 0 0.71933980857756763 I I #
point $-1 -65.431093678712685 36.99847578152923 14.077458251137838 #
point $-1 -77.490157780693991 20.228947210106377 1.5899315211982099 #
straight-curve $-1 -77.490157780693991 0 14.077458251137838 0 -1 0 I I #
vertex $-1 $498 $616 #
point $-1 -66.400517984630483 25.020241087655755 5.7275329036078206 #
vertex $-1 $502 $617 #
point $-1 -66.400517984630483 32.207181903979837 5.7275329036078206 #
straight-curve $-1 -77.490157780693991 47.313763502511314 0 0 0 -1 I I #
point $-1 -77.490157780693991 -47.313763502511314 -14.077458251137838 #
straight-curve $-1 -77.490157780693991 0 -14.077458251137838 0 1 0 I I #
point $-1 -77.490157780693991 47.313763502511314 -14.077458251137838 #
coedge $-1 $591 $523 $524 $588 reversed $400 $-1 #
edge $-1 $589 -77.490157780693991 $532 77.490157780693991 $587 $618 forward 7 unknown #
vertex $-1 $593 $619 #
straight-curve $-1 77.490157780693991 -55.759903347220451 -13.068855910980275 0 -1 0 I I #
coedge $-1 $526 $587 $528 $593 reversed $400 $-1 #
straight-curve $-1 0 -64.206043191929581 -8.9320156295933231 1 0 0 I I #
edge $-1 $529 -2.0684201406934761 $589 2.0684201406934761 $528 $620 forward 7 unknown #
point $-1 77.490157780693991 -64.206043191929581 -8.9320156295933231 #
straight-curve $-1 -77.490157780693991 -64.206043191929581 -11.000435770286799 0 0 -1 I I #
point $-1 -77.490157780693991 -64.206043191929581 -13.068855910980275 #
point $-1 -77.490157780693991 -64.206043191929581 -8.9320156295933231 #
straight-curve $-1 77.490157780693991 -26.840948752559193 112.39158566095011 0 0 -1 I I #
point $-1 77.490157780693991 -26.840948752559193 14.077458251137838 #
straight-curve $-1 77.490157780693991 -10.486216109050211 8.3063188339016776 0 1 0 I I #
point $-1 77.490157780693991 -26.840948752559193 8.3063188339016847 #
point $-1 73.897023076998636 -24.493542138775684 10.104511857194771 #
point $-1 73.897023076998636 -20.972432218100423 10.104511857194771 #
point $-1 73.897023076998636 -17.451322297425161 10.104511857194771 #
straight-curve $-1 77.490157780693991 12.026674905242984 112.39158566095011 0 0 -1 I I #
point $-1 77.490157780693991 12.026674905242984 14.077458251137838 #
straight-curve $-1 77.490157780693991 8.9475957198508773 8.3063188339016776 0 1 0 I I #
point $-1 77.490157780693991 12.026674905242984 8.3063188339016847 #
point $-1 73.897023076998636 14.374081519026497 10.104511857194771 #
point $-1 73.897023076998636 17.895191439701755 10.104511857194771 #
point $-1 73.897023076998636 21.416301360377012 10.104511857194771 #
straight-curve $-1 -77.490157780693991 36.99847578152923 54.624151830027841 0 0 -1 I I #
point $-1 -77.490157780693991 36.99847578152923 14.077458251137838 #
straight-curve $-1 -77.490157780693991 14.306855747908902 1.5899315211982137 0 -1 0 I I #
point $-1 -77.490157780693991 36.99847578152923 1.5899315211982099 #
point $-1 -66.351155091330043 25.020241087655755 2.8995365625979868 #
point $-1 -66.351155091330043 32.207181903979837 2.8995365625979868 #
straight-curve $-1 0 -64.206043191929581 -13.068855910980275 -1 0 0 I I #
point $-1 77.490157780693991 -64.206043191929581 -13.068855910980275 #
straight-curve $-1 77.490157780693991 -64.206043191929581 -11.000435770286799 0 0 -1 I I #
End-of-ACIS-data 