500 0 17 0           
7 Unknown 11 ACIS 5.0 NT 24 Thu Mar 25 22:30:44 1999 
-1 9.9999999999999995e-007 1e-010 
body $-1 $17 $-1 $18 #
body $-1 $19 $-1 $20 #
body $-1 $21 $-1 $22 #
body $-1 $23 $-1 $24 #
body $-1 $25 $-1 $26 #
body $-1 $27 $-1 $28 #
body $-1 $29 $-1 $30 #
body $-1 $31 $-1 $32 #
body $-1 $33 $-1 $34 #
body $-1 $35 $-1 $36 #
body $-1 $37 $-1 $38 #
body $-1 $39 $-1 $40 #
body $-1 $41 $-1 $42 #
body $-1 $43 $-1 $44 #
body $-1 $45 $-1 $46 #
body $-1 $47 $-1 $48 #
body $-1 $49 $-1 $50 #
lump $-1 $-1 $51 $0 #
transform $-1 1 0 0 0 1 0 0 0 1 70.519730216376232 32.035933840017961 9.387475995718269 1 rotate no_reflect no_shear #
lump $-1 $-1 $52 $1 #
transform $-1 1 0 0 0 1 0 0 0 1 70.519730216376232 32.035933840017961 9.387475995718269 1 rotate no_reflect no_shear #
lump $-1 $-1 $53 $2 #
transform $-1 1 0 0 0 1 0 0 0 1 70.519730216376232 32.035933840017961 9.387475995718269 1 rotate no_reflect no_shear #
lump $-1 $-1 $54 $3 #
transform $-1 1 0 0 0 1 0 0 0 1 70.519730216376232 32.035933840017961 9.387475995718269 1 rotate no_reflect no_shear #
lump $-1 $-1 $55 $4 #
transform $-1 1 0 0 0 1 0 0 0 1 70.519730216376232 32.035933840017961 9.387475995718269 1 rotate no_reflect no_shear #
lump $-1 $-1 $56 $5 #
transform $-1 1 0 0 0 1 0 0 0 1 70.519730216376232 32.035933840017961 9.387475995718269 1 rotate no_reflect no_shear #
lump $-1 $-1 $57 $6 #
transform $-1 1 0 0 0 1 0 0 0 1 70.519730216376232 32.035933840017961 9.387475995718269 1 rotate no_reflect no_shear #
lump $-1 $-1 $58 $7 #
transform $-1 1 0 0 0 1 0 0 0 1 70.519730216376232 32.035933840017961 9.387475995718269 1 rotate no_reflect no_shear #
lump $-1 $-1 $59 $8 #
transform $-1 1 0 0 0 1 0 0 0 1 70.519730216376232 32.035933840017961 9.387475995718269 1 rotate no_reflect no_shear #
lump $-1 $-1 $60 $9 #
transform $-1 1 0 0 0 1 0 0 0 1 70.519730216376232 32.035933840017961 9.387475995718269 1 rotate no_reflect no_shear #
lump $-1 $-1 $61 $10 #
transform $-1 1 0 0 0 1 0 0 0 1 70.519730216376232 32.035933840017961 9.387475995718269 1 rotate no_reflect no_shear #
lump $-1 $-1 $62 $11 #
transform $-1 1 0 0 0 1 0 0 0 1 70.519730216376232 32.035933840017961 9.387475995718269 1 rotate no_reflect no_shear #
lump $-1 $-1 $63 $12 #
transform $-1 1 0 0 0 1 0 0 0 1 70.519730216376232 32.035933840017961 9.387475995718269 1 rotate no_reflect no_shear #
lump $-1 $-1 $64 $13 #
transform $-1 1 0 0 0 1 0 0 0 1 70.519730216376232 32.035933840017961 9.387475995718269 1 rotate no_reflect no_shear #
lump $-1 $-1 $65 $14 #
transform $-1 1 0 0 0 1 0 0 0 1 70.519730216376232 32.035933840017961 9.387475995718269 1 rotate no_reflect no_shear #
lump $-1 $-1 $66 $15 #
transform $-1 1 0 0 0 1 0 0 0 1 70.519730216376232 32.035933840017961 9.387475995718269 1 rotate no_reflect no_shear #
lump $-1 $-1 $67 $16 #
transform $-1 1 0 0 0 1 0 0 0 1 70.519730216376232 32.035933840017961 9.387475995718269 1 rotate no_reflect no_shear #
shell $-1 $-1 $-1 $68 $-1 $17 #
shell $-1 $-1 $-1 $69 $-1 $19 #
shell $-1 $-1 $-1 $70 $-1 $21 #
shell $-1 $-1 $-1 $71 $-1 $23 #
shell $-1 $-1 $-1 $72 $-1 $25 #
shell $-1 $-1 $-1 $73 $-1 $27 #
shell $-1 $-1 $-1 $74 $-1 $29 #
shell $-1 $-1 $-1 $75 $-1 $31 #
shell $-1 $-1 $-1 $76 $-1 $33 #
shell $-1 $-1 $-1 $77 $-1 $35 #
shell $-1 $-1 $-1 $78 $-1 $37 #
shell $-1 $-1 $-1 $79 $-1 $39 #
shell $-1 $-1 $-1 $80 $-1 $41 #
shell $-1 $-1 $-1 $81 $-1 $43 #
shell $-1 $-1 $-1 $82 $-1 $45 #
shell $-1 $-1 $-1 $83 $-1 $47 #
shell $-1 $-1 $-1 $84 $-1 $49 #
face $-1 $85 $86 $51 $-1 $87 forward single #
face $-1 $88 $89 $52 $-1 $90 forward single #
face $-1 $91 $92 $53 $-1 $93 reversed single #
face $-1 $94 $95 $54 $-1 $96 forward single #
face $-1 $97 $98 $55 $-1 $99 forward single #
face $-1 $100 $101 $56 $-1 $102 reversed single #
face $-1 $103 $104 $57 $-1 $105 forward single #
face $-1 $106 $107 $58 $-1 $108 forward single #
face $-1 $109 $110 $59 $-1 $111 reversed single #
face $-1 $112 $113 $60 $-1 $114 forward single #
face $-1 $115 $116 $61 $-1 $117 forward single #
face $-1 $118 $119 $62 $-1 $120 reversed single #
face $-1 $121 $122 $63 $-1 $123 forward single #
face $-1 $124 $125 $64 $-1 $126 forward single #
face $-1 $127 $128 $65 $-1 $129 reversed single #
face $-1 $130 $131 $66 $-1 $132 forward single #
face $-1 $133 $134 $67 $-1 $135 forward single #
face $-1 $136 $137 $51 $-1 $138 reversed single #
loop $-1 $-1 $139 $68 #
plane-surface $-1 0 0 9.387475995718269 0 0 1 1 0 0 forward_v I I I I #
face $-1 $140 $141 $52 $-1 $142 forward single #
loop $-1 $-1 $143 $69 #
plane-surface $-1 0 -32.035933840017961 0 0 1 0 0 0 1 forward_v I I I I #
face $-1 $144 $145 $53 $-1 $146 reversed single #
loop $-1 $-1 $147 $70 #
plane-surface $-1 -181.66034288447321 -20.394185852010224 90.612569558875805 0 1 0 -0.78801076186113728 0 0.61566146476048833 forward_v I I I I #
face $-1 $148 $149 $54 $-1 $150 forward single #
loop $-1 $151 $152 $71 #
cone-surface $-1 -67.612393536175091 -18.201026564318305 6.023701258204504 0.78801076186113728 0 -0.61566146476048833 0.30783073238024417 0 0.39400538093056864 1 I I 0 1 0.5 forward I I I I #
face $-1 $153 $154 $55 $-1 $155 forward single #
loop $-1 $156 $157 $72 #
cone-surface $-1 -67.612393536175091 -14.911287632780432 6.023701258204504 0.78801076186113728 0 -0.61566146476048833 0.30783073238024417 0 0.39400538093056864 1 I I 0 1 0.5 forward I I I I #
face $-1 $158 $159 $56 $-1 $160 reversed single #
loop $-1 $-1 $161 $73 #
plane-surface $-1 -181.66034288447321 -5.4761651236413966 90.612569558875805 0 1 0 -0.78801076186113728 0 0.61566146476048833 forward_v I I I I #
face $-1 $162 $163 $57 $-1 $164 forward single #
loop $-1 $165 $166 $74 #
cone-surface $-1 -67.612393536175091 -3.2830058359494814 6.023701258204504 0.78801076186113728 0 -0.61566146476048833 0.30783073238024417 0 0.39400538093056864 1 I I 0 1 0.5 forward I I I I #
face $-1 $167 $168 $58 $-1 $169 forward single #
loop $-1 $170 $171 $75 #
cone-surface $-1 -67.612393536175091 0.0067330955883946331 6.023701258204504 0.78801076186113728 0 -0.61566146476048833 0.30783073238024417 0 0.39400538093056864 1 I I 0 1 0.5 forward I I I I #
face $-1 $172 $173 $59 $-1 $174 reversed single #
loop $-1 $-1 $175 $76 #
plane-surface $-1 -181.66034288447321 9.4418556047274294 90.612569558875805 0 1 0 -0.78801076186113728 0 0.61566146476048833 forward_v I I I I #
face $-1 $176 $177 $60 $-1 $178 forward single #
loop $-1 $179 $180 $77 #
cone-surface $-1 -67.612393536175091 11.635014892419349 6.023701258204504 0.78801076186113728 0 -0.61566146476048833 0.30783073238024417 0 0.39400538093056864 1 I I 0 1 0.5 forward I I I I #
face $-1 $181 $182 $61 $-1 $183 forward single #
loop $-1 $184 $185 $78 #
cone-surface $-1 -67.612393536175091 14.924753823957218 6.023701258204504 0.78801076186113728 0 -0.61566146476048833 0.30783073238024417 0 0.39400538093056864 1 I I 0 1 0.5 forward I I I I #
face $-1 $186 $187 $62 $-1 $188 reversed single #
loop $-1 $-1 $189 $79 #
plane-surface $-1 -181.66034288447321 24.35987633309626 90.612569558875805 0 1 0 -0.78801076186113728 0 0.61566146476048833 forward_v I I I I #
face $-1 $190 $191 $63 $-1 $192 forward single #
loop $-1 $193 $194 $80 #
cone-surface $-1 -67.612393536175091 26.553035620788179 6.023701258204504 0.78801076186113728 0 -0.61566146476048833 0.30783073238024417 0 0.39400538093056864 1 I I 0 1 0.5 forward I I I I #
face $-1 $195 $196 $64 $-1 $197 forward single #
loop $-1 $198 $199 $81 #
cone-surface $-1 -67.612393536175091 29.842774552326048 6.023701258204504 0.78801076186113728 0 -0.61566146476048833 0.30783073238024417 0 0.39400538093056864 1 I I 0 1 0.5 forward I I I I #
face $-1 $200 $201 $65 $-1 $202 reversed single #
loop $-1 $-1 $203 $82 #
plane-surface $-1 115.38845192528346 17.082943215660038 197.058750715212 0 -1 0 -0.84804810408105047 0 -0.52991925155115449 forward_v I I I I #
face $-1 $204 $205 $66 $-1 $206 forward single #
loop $-1 $207 $208 $83 #
cone-surface $-1 67.829901596824087 11.963532132366112 5.671894019436829 -0.84804810408105047 0 -0.52991925155115449 0.26495962577557725 0 -0.42402405204052523 1 I I 0 1 0.5 forward I I I I #
face $-1 $209 $210 $67 $-1 $211 forward single #
loop $-1 $212 $213 $84 #
cone-surface $-1 67.829901596824087 15.03517878234247 5.671894019436829 -0.84804810408105047 0 -0.52991925155115449 0.26495962577557725 0 -0.42402405204052523 1 I I 0 1 0.5 forward I I I I #
face $-1 $214 $215 $51 $-1 $216 reversed single #
loop $-1 $-1 $217 $85 #
plane-surface $-1 0 0 -9.387475995718269 0 0 1 1 0 0 forward_v I I I I #
coedge $-1 $218 $219 $220 $221 forward $86 $-1 #
face $-1 $222 $223 $52 $-1 $224 reversed single #
loop $-1 $-1 $225 $88 #
plane-surface $-1 0 0 9.387475995718269 0 0 1 1 0 0 forward_v I I I I #
coedge $-1 $226 $227 $228 $229 forward $89 $-1 #
face $-1 $230 $231 $53 $-1 $232 reversed single #
loop $-1 $-1 $233 $91 #
plane-surface $-1 -70.519730216376217 -16.55615709854937 3.7800087598184859 -0.78801076186113728 0 0.61566146476048833 0.61566146476048833 0 0.78801076186113728 forward_v I I I I #
coedge $-1 $234 $235 $236 $237 reversed $92 $-1 #
face $-1 $-1 $238 $54 $-1 $239 forward single #
loop $-1 $240 $241 $94 #
cone-surface $-1 -66.698570881230168 -18.201026564318305 5.309744772450502 0.78801076186113728 0 -0.61566146476048833 0.15391536619012208 0 0.19700269046528432 1 I I -0.70710678118654746 0.70710678118654746 0.25 forward I I I I #
loop $-1 $-1 $242 $71 #
coedge $-1 $152 $152 $243 $244 reversed $95 $-1 #
face $-1 $-1 $245 $55 $-1 $246 forward single #
loop $-1 $247 $248 $97 #
cone-surface $-1 -66.698570881230168 -14.911287632780432 5.309744772450502 0.78801076186113728 0 -0.61566146476048833 0.15391536619012208 0 0.19700269046528432 1 I I -0.70710678118654746 0.70710678118654746 0.25 forward I I I I #
loop $-1 $-1 $249 $72 #
coedge $-1 $157 $157 $250 $251 reversed $98 $-1 #
face $-1 $252 $253 $56 $-1 $254 reversed single #
loop $-1 $-1 $255 $100 #
plane-surface $-1 -70.519730216376217 -1.6381363701805434 3.7800087598184859 -0.78801076186113728 0 0.61566146476048833 0.61566146476048833 0 0.78801076186113728 forward_v I I I I #
coedge $-1 $256 $257 $258 $259 reversed $101 $-1 #
face $-1 $-1 $260 $57 $-1 $261 forward single #
loop $-1 $262 $263 $103 #
cone-surface $-1 -66.698570881230168 -3.2830058359494814 5.309744772450502 0.78801076186113728 0 -0.61566146476048833 0.15391536619012208 0 0.19700269046528432 1 I I -0.70710678118654746 0.70710678118654746 0.25 forward I I I I #
loop $-1 $-1 $264 $74 #
coedge $-1 $166 $166 $265 $266 reversed $104 $-1 #
face $-1 $-1 $267 $58 $-1 $268 forward single #
loop $-1 $269 $270 $106 #
cone-surface $-1 -66.698570881230168 0.0067330955883946331 5.309744772450502 0.78801076186113728 0 -0.61566146476048833 0.15391536619012208 0 0.19700269046528432 1 I I -0.70710678118654746 0.70710678118654746 0.25 forward I I I I #
loop $-1 $-1 $271 $75 #
coedge $-1 $171 $171 $272 $273 reversed $107 $-1 #
face $-1 $274 $275 $59 $-1 $276 reversed single #
loop $-1 $-1 $277 $109 #
plane-surface $-1 -70.519730216376217 13.279884358188283 3.7800087598184859 -0.78801076186113728 0 0.61566146476048833 0.61566146476048833 0 0.78801076186113728 forward_v I I I I #
coedge $-1 $278 $279 $280 $281 reversed $110 $-1 #
face $-1 $-1 $282 $60 $-1 $283 forward single #
loop $-1 $284 $285 $112 #
cone-surface $-1 -66.698570881230168 11.635014892419349 5.309744772450502 0.78801076186113728 0 -0.61566146476048833 0.15391536619012208 0 0.19700269046528432 1 I I -0.70710678118654746 0.70710678118654746 0.25 forward I I I I #
loop $-1 $-1 $286 $77 #
coedge $-1 $180 $180 $287 $288 reversed $113 $-1 #
face $-1 $-1 $289 $61 $-1 $290 forward single #
loop $-1 $291 $292 $115 #
cone-surface $-1 -66.698570881230168 14.924753823957218 5.309744772450502 0.78801076186113728 0 -0.61566146476048833 0.15391536619012208 0 0.19700269046528432 1 I I -0.70710678118654746 0.70710678118654746 0.25 forward I I I I #
loop $-1 $-1 $293 $78 #
coedge $-1 $185 $185 $294 $295 reversed $116 $-1 #
face $-1 $296 $297 $62 $-1 $298 forward single #
loop $-1 $-1 $299 $118 #
plane-surface $-1 -70.519730216376217 28.197905086557114 3.7800087598184859 -0.78801076186113728 0 0.61566146476048833 0.61566146476048833 0 0.78801076186113728 forward_v I I I I #
coedge $-1 $300 $301 $302 $303 reversed $119 $-1 #
face $-1 $-1 $304 $63 $-1 $305 forward single #
loop $-1 $306 $307 $121 #
cone-surface $-1 -66.698570881230168 26.553035620788179 5.309744772450502 0.78801076186113728 0 -0.61566146476048833 0.15391536619012208 0 0.19700269046528432 1 I I -0.70710678118654746 0.70710678118654746 0.25 forward I I I I #
loop $-1 $-1 $308 $80 #
coedge $-1 $194 $194 $309 $310 reversed $122 $-1 #
face $-1 $-1 $311 $64 $-1 $312 forward single #
loop $-1 $313 $314 $124 #
cone-surface $-1 -66.698570881230168 29.842774552326048 5.309744772450502 0.78801076186113728 0 -0.61566146476048833 0.15391536619012208 0 0.19700269046528432 1 I I -0.70710678118654746 0.70710678118654746 0.25 forward I I I I #
loop $-1 $-1 $315 $81 #
coedge $-1 $199 $199 $316 $317 reversed $125 $-1 #
face $-1 $318 $319 $65 $-1 $320 reversed single #
loop $-1 $-1 $321 $127 #
plane-surface $-1 -4.219795095326603 13.499355457354291 122.31922540350915 0.84804810408105047 0 0.52991925155115449 0.52991925155115449 0 -0.84804810408105047 forward_v I I I I #
coedge $-1 $322 $323 $324 $325 reversed $128 $-1 #
face $-1 $-1 $326 $66 $-1 $327 forward single #
loop $-1 $328 $329 $130 #
cone-surface $-1 67.014030250010975 11.963532132366112 5.1620810366771721 -0.84804810408105047 0 -0.52991925155115449 0.13247981288778862 0 -0.21201202602026262 1 I I -0.70710678118654746 0.70710678118654746 0.25 forward I I I I #
loop $-1 $-1 $330 $83 #
coedge $-1 $208 $208 $331 $332 reversed $131 $-1 #
face $-1 $-1 $333 $67 $-1 $334 forward single #
loop $-1 $335 $336 $133 #
cone-surface $-1 67.014030250010975 15.03517878234247 5.1620810366771721 -0.84804810408105047 0 -0.52991925155115449 0.13247981288778862 0 -0.21201202602026262 1 I I -0.70710678118654746 0.70710678118654746 0.25 forward I I I I #
loop $-1 $-1 $337 $84 #
coedge $-1 $213 $213 $338 $339 reversed $134 $-1 #
face $-1 $340 $341 $51 $-1 $342 reversed single #
loop $-1 $-1 $343 $136 #
plane-surface $-1 0 -32.035933840017961 0 0 1 0 0 0 1 forward_v I I I I #
coedge $-1 $344 $345 $346 $347 forward $137 $-1 #
coedge $-1 $348 $139 $349 $350 forward $86 $-1 #
coedge $-1 $139 $348 $351 $352 forward $86 $-1 #
coedge $-1 $353 $354 $139 $221 reversed $355 $-1 #
edge $-1 $356 -32.035933840017961 $357 32.035933840017961 $220 $358 forward 7 unknown #
face $-1 $359 $360 $52 $-1 $361 reversed single #
loop $-1 $-1 $362 $140 #
plane-surface $-1 -70.519730216376232 0 0 1 0 0 0 0 -1 forward_v I I I I #
coedge $-1 $363 $364 $365 $366 forward $141 $-1 #
coedge $-1 $365 $143 $362 $367 reversed $89 $-1 #
coedge $-1 $143 $365 $368 $369 reversed $89 $-1 #
coedge $-1 $370 $371 $143 $229 reversed $360 $-1 #
edge $-1 $372 -70.519730216376232 $373 70.519730216376232 $228 $374 forward 7 unknown #
face $-1 $375 $376 $53 $-1 $377 forward single #
loop $-1 $-1 $378 $144 #
plane-surface $-1 -181.66034288447321 -12.718128345088516 90.612569558875805 0 -1 0 0.78801076186113728 0 -0.61566146476048833 forward_v I I I I #
coedge $-1 $379 $380 $381 $382 reversed $145 $-1 #
coedge $-1 $235 $147 $383 $384 reversed $92 $-1 #
coedge $-1 $147 $234 $379 $385 reversed $92 $-1 #
coedge $-1 $381 $386 $147 $237 forward $376 $-1 #
edge $-1 $387 20.310441225860373 $388 24.691474657303388 $236 $389 forward 7 unknown #
loop $-1 $-1 $243 $148 #
plane-surface $-1 -70.519730216376217 -16.55615709854937 3.7800087598184859 -0.78801076186113728 0 0.61566146476048833 0.61566146476048833 0 0.78801076186113728 forward_v I I I I #
loop $-1 $-1 $390 $94 #
coedge $-1 $241 $241 $242 $391 reversed $149 $-1 #
coedge $-1 $242 $242 $241 $391 forward $151 $-1 #
coedge $-1 $243 $243 $152 $244 forward $238 $-1 #
edge $-1 $392 0 $392 6.2831853071796004 $243 $393 forward 7 unknown #
loop $-1 $-1 $250 $153 #
plane-surface $-1 -70.519730216376217 -16.55615709854937 3.7800087598184859 -0.78801076186113728 0 0.61566146476048833 0.61566146476048833 0 0.78801076186113728 forward_v I I I I #
loop $-1 $-1 $394 $97 #
coedge $-1 $248 $248 $249 $395 reversed $154 $-1 #
coedge $-1 $249 $249 $248 $395 forward $156 $-1 #
coedge $-1 $250 $250 $157 $251 forward $245 $-1 #
edge $-1 $396 0 $396 6.2831853071796004 $250 $397 forward 7 unknown #
face $-1 $398 $399 $56 $-1 $400 forward single #
loop $-1 $-1 $401 $158 #
plane-surface $-1 -181.66034288447321 2.1998923832803099 90.612569558875805 0 -1 0 0.78801076186113728 0 -0.61566146476048833 forward_v I I I I #
coedge $-1 $402 $403 $404 $405 reversed $159 $-1 #
coedge $-1 $257 $161 $406 $407 reversed $101 $-1 #
coedge $-1 $161 $256 $402 $408 reversed $101 $-1 #
coedge $-1 $404 $409 $161 $259 forward $399 $-1 #
edge $-1 $410 20.310441225860373 $411 24.691474657303388 $258 $412 forward 7 unknown #
loop $-1 $-1 $265 $162 #
plane-surface $-1 -70.519730216376217 -1.6381363701805434 3.7800087598184859 -0.78801076186113728 0 0.61566146476048833 0.61566146476048833 0 0.78801076186113728 forward_v I I I I #
loop $-1 $-1 $413 $103 #
coedge $-1 $263 $263 $264 $414 reversed $163 $-1 #
coedge $-1 $264 $264 $263 $414 forward $165 $-1 #
coedge $-1 $265 $265 $166 $266 forward $260 $-1 #
edge $-1 $415 0 $415 6.2831853071796004 $265 $416 forward 7 unknown #
loop $-1 $-1 $272 $167 #
plane-surface $-1 -70.519730216376217 -1.6381363701805434 3.7800087598184859 -0.78801076186113728 0 0.61566146476048833 0.61566146476048833 0 0.78801076186113728 forward_v I I I I #
loop $-1 $-1 $417 $106 #
coedge $-1 $270 $270 $271 $418 reversed $168 $-1 #
coedge $-1 $271 $271 $270 $418 forward $170 $-1 #
coedge $-1 $272 $272 $171 $273 forward $267 $-1 #
edge $-1 $419 0 $419 6.2831853071796004 $272 $420 forward 7 unknown #
face $-1 $421 $422 $59 $-1 $423 forward single #
loop $-1 $-1 $424 $172 #
plane-surface $-1 -181.66034288447321 17.117913111649138 90.612569558875805 0 -1 0 0.78801076186113728 0 -0.61566146476048833 forward_v I I I I #
coedge $-1 $425 $426 $427 $428 reversed $173 $-1 #
coedge $-1 $279 $175 $429 $430 reversed $110 $-1 #
coedge $-1 $175 $278 $425 $431 reversed $110 $-1 #
coedge $-1 $427 $432 $175 $281 forward $422 $-1 #
edge $-1 $433 20.310441225860373 $434 24.691474657303388 $280 $435 forward 7 unknown #
loop $-1 $-1 $287 $176 #
plane-surface $-1 -70.519730216376217 13.279884358188283 3.7800087598184859 -0.78801076186113728 0 0.61566146476048833 0.61566146476048833 0 0.78801076186113728 forward_v I I I I #
loop $-1 $-1 $436 $112 #
coedge $-1 $285 $285 $286 $437 reversed $177 $-1 #
coedge $-1 $286 $286 $285 $437 forward $179 $-1 #
coedge $-1 $287 $287 $180 $288 forward $282 $-1 #
edge $-1 $438 0 $438 6.2831853071796004 $287 $439 forward 7 unknown #
loop $-1 $-1 $294 $181 #
plane-surface $-1 -70.519730216376217 13.279884358188283 3.7800087598184859 -0.78801076186113728 0 0.61566146476048833 0.61566146476048833 0 0.78801076186113728 forward_v I I I I #
loop $-1 $-1 $440 $115 #
coedge $-1 $292 $292 $293 $441 reversed $182 $-1 #
coedge $-1 $293 $293 $292 $441 forward $184 $-1 #
coedge $-1 $294 $294 $185 $295 forward $289 $-1 #
edge $-1 $442 0 $442 6.2831853071796004 $294 $443 forward 7 unknown #
face $-1 $444 $445 $62 $-1 $446 reversed single #
loop $-1 $-1 $302 $186 #
plane-surface $-1 0 0 9.387475995718269 0 0 1 1 0 0 forward_v I I I I #
coedge $-1 $447 $448 $449 $450 reversed $187 $-1 #
coedge $-1 $301 $189 $451 $452 reversed $119 $-1 #
coedge $-1 $189 $300 $447 $453 reversed $119 $-1 #
coedge $-1 $449 $454 $189 $303 forward $297 $-1 #
edge $-1 $455 20.310441225860373 $456 24.691474657303388 $302 $457 forward 7 unknown #
loop $-1 $-1 $309 $190 #
plane-surface $-1 -70.519730216376217 28.197905086557114 3.7800087598184859 -0.78801076186113728 0 0.61566146476048833 0.61566146476048833 0 0.78801076186113728 forward_v I I I I #
loop $-1 $-1 $458 $121 #
coedge $-1 $307 $307 $308 $459 reversed $191 $-1 #
coedge $-1 $308 $308 $307 $459 forward $193 $-1 #
coedge $-1 $309 $309 $194 $310 forward $304 $-1 #
edge $-1 $460 0 $460 6.2831853071796004 $309 $461 forward 7 unknown #
loop $-1 $-1 $316 $195 #
plane-surface $-1 -70.519730216376217 28.197905086557114 3.7800087598184859 -0.78801076186113728 0 0.61566146476048833 0.61566146476048833 0 0.78801076186113728 forward_v I I I I #
loop $-1 $-1 $462 $124 #
coedge $-1 $314 $314 $315 $463 reversed $196 $-1 #
coedge $-1 $315 $315 $314 $463 forward $198 $-1 #
coedge $-1 $316 $316 $199 $317 forward $311 $-1 #
edge $-1 $464 0 $464 6.2831853071796004 $316 $465 forward 7 unknown #
face $-1 $466 $467 $65 $-1 $468 reversed single #
loop $-1 $-1 $469 $200 #
plane-surface $-1 115.38845192528346 9.9157676990485442 197.058750715212 0 1 0 0.84804810408105047 0 0.52991925155115449 forward_v I I I I #
coedge $-1 $470 $471 $472 $473 reversed $201 $-1 #
coedge $-1 $323 $203 $474 $475 reversed $128 $-1 #
coedge $-1 $203 $322 $470 $476 reversed $128 $-1 #
coedge $-1 $472 $477 $203 $325 forward $478 $-1 #
edge $-1 $479 -12.825504253734501 $480 -8.6535656562159105 $324 $481 forward 7 unknown #
loop $-1 $-1 $331 $204 #
plane-surface $-1 -4.219795095326603 13.499355457354291 122.31922540350915 0.84804810408105047 0 0.52991925155115449 0.52991925155115449 0 -0.84804810408105047 forward_v I I I I #
loop $-1 $-1 $482 $130 #
coedge $-1 $329 $329 $330 $483 reversed $205 $-1 #
coedge $-1 $330 $330 $329 $483 forward $207 $-1 #
coedge $-1 $331 $331 $208 $332 forward $326 $-1 #
edge $-1 $484 0 $484 6.2831853071796004 $331 $485 forward 7 unknown #
loop $-1 $-1 $338 $209 #
plane-surface $-1 -4.219795095326603 13.499355457354291 122.31922540350915 0.84804810408105047 0 0.52991925155115449 0.52991925155115449 0 -0.84804810408105047 forward_v I I I I #
loop $-1 $-1 $486 $133 #
coedge $-1 $336 $336 $337 $487 reversed $210 $-1 #
coedge $-1 $337 $337 $336 $487 forward $212 $-1 #
coedge $-1 $338 $338 $213 $339 forward $333 $-1 #
edge $-1 $488 0 $488 6.2831853071796004 $338 $489 forward 7 unknown #
face $-1 $490 $491 $51 $-1 $492 reversed single #
loop $-1 $-1 $493 $214 #
plane-surface $-1 -70.519730216376232 0 0 1 0 0 0 0 -1 forward_v I I I I #
coedge $-1 $494 $351 $495 $496 forward $215 $-1 #
coedge $-1 $497 $217 $494 $498 forward $137 $-1 #
coedge $-1 $217 $497 $499 $500 forward $137 $-1 #
coedge $-1 $354 $353 $217 $347 reversed $355 $-1 #
edge $-1 $501 -32.035933840017961 $502 32.035933840017961 $346 $503 forward 7 unknown #
coedge $-1 $219 $218 $504 $505 forward $86 $-1 #
coedge $-1 $506 $507 $218 $350 reversed $491 $-1 #
edge $-1 $357 -70.519730216376232 $508 70.519730216376232 $349 $509 forward 7 unknown #
coedge $-1 $343 $510 $219 $352 reversed $215 $-1 #
edge $-1 $511 -70.519730216376232 $356 70.519730216376232 $351 $512 forward 7 unknown #
coedge $-1 $346 $220 $510 $513 forward $355 $-1 #
coedge $-1 $220 $346 $506 $514 reversed $355 $-1 #
loop $-1 $-1 $353 $490 #
vertex $-1 $221 $515 #
vertex $-1 $221 $516 #
straight-curve $-1 70.519730216376232 0 9.387475995718269 0 1 0 I I #
face $-1 $517 $518 $52 $-1 $519 reversed single #
loop $-1 $-1 $370 $222 #
plane-surface $-1 0 -37.856807834021829 5.0379005673240354 0 0 1 1 0 0 forward_v I I I I #
coedge $-1 $520 $521 $226 $367 forward $223 $-1 #
coedge $-1 $522 $225 $521 $523 forward $141 $-1 #
coedge $-1 $225 $522 $524 $525 forward $141 $-1 #
coedge $-1 $227 $226 $225 $366 reversed $89 $-1 #
edge $-1 $526 -70.519730216376232 $527 70.519730216376232 $225 $528 forward 7 unknown #
edge $-1 $527 -9.387475995718269 $373 -5.0379005673240354 $362 $529 forward 7 unknown #
coedge $-1 $524 $530 $227 $369 forward $531 $-1 #
edge $-1 $372 5.0379005673240354 $526 9.387475995718269 $368 $532 forward 7 unknown #
coedge $-1 $533 $228 $530 $534 forward $360 $-1 #
coedge $-1 $228 $533 $520 $535 forward $360 $-1 #
vertex $-1 $369 $536 #
vertex $-1 $367 $537 #
straight-curve $-1 0 -32.035933840017961 5.0379005673240354 -1 0 0 I I #
face $-1 $-1 $538 $53 $-1 $539 reversed single #
loop $-1 $-1 $236 $230 #
plane-surface $-1 0 0 9.387475995718269 0 0 1 1 0 0 forward_v I I I I #
coedge $-1 $540 $541 $542 $543 reversed $231 $-1 #
coedge $-1 $544 $233 $235 $385 forward $145 $-1 #
coedge $-1 $233 $544 $540 $545 forward $145 $-1 #
coedge $-1 $542 $236 $233 $382 forward $376 $-1 #
edge $-1 $388 -12.116107302735539 $546 -4.440049795813831 $381 $547 forward 7 unknown #
coedge $-1 $548 $549 $234 $384 forward $538 $-1 #
edge $-1 $550 -41.526276019619438 $387 -35.918808783719633 $383 $551 forward 7 unknown #
edge $-1 $388 -7.1159779882396199 $550 2.3096905769578348e-014 $235 $552 forward 7 unknown #
coedge $-1 $236 $542 $548 $553 forward $376 $-1 #
vertex $-1 $384 $554 #
vertex $-1 $237 $555 #
straight-curve $-1 -90.830171442236605 -20.394185852010224 9.387475995718269 1 0 0 I I #
coedge $-1 $390 $390 $-1 $556 reversed $240 $-1 #
edge $-1 $557 0 $557 6.2831853071796004 $241 $558 forward 7 unknown #
vertex $-1 $244 $559 #
ellipse-curve $-1 -68.329213500654717 -18.201026564318305 6.5837423777683757 -0.78801076186113728 0 0.61566146476048833 0.30783073238024417 0 0.39400538093056864 1 I I #
coedge $-1 $394 $394 $-1 $560 reversed $247 $-1 #
edge $-1 $561 0 $561 6.2831853071796004 $248 $562 forward 7 unknown #
vertex $-1 $251 $563 #
ellipse-curve $-1 -68.329213500654717 -14.911287632780432 6.5837423777683757 -0.78801076186113728 0 0.61566146476048833 0.30783073238024417 0 0.39400538093056864 1 I I #
face $-1 $-1 $564 $56 $-1 $565 reversed single #
loop $-1 $-1 $258 $252 #
plane-surface $-1 0 0 9.387475995718269 0 0 1 1 0 0 forward_v I I I I #
coedge $-1 $566 $567 $568 $569 reversed $253 $-1 #
coedge $-1 $570 $255 $257 $408 forward $159 $-1 #
coedge $-1 $255 $570 $566 $571 forward $159 $-1 #
coedge $-1 $568 $258 $255 $405 forward $399 $-1 #
edge $-1 $411 -4.6570969385511249 $572 3.0189605683705816 $404 $573 forward 7 unknown #
coedge $-1 $574 $575 $256 $407 forward $564 $-1 #
edge $-1 $576 -41.526276019619438 $410 -35.918808783719633 $406 $577 forward 7 unknown #
edge $-1 $411 -7.1159779882396199 $576 2.3096905769578348e-014 $257 $578 forward 7 unknown #
coedge $-1 $258 $568 $574 $579 forward $399 $-1 #
vertex $-1 $259 $580 #
vertex $-1 $259 $581 #
straight-curve $-1 -90.830171442236605 -5.4761651236413966 9.387475995718269 1 0 0 I I #
coedge $-1 $413 $413 $-1 $582 reversed $262 $-1 #
edge $-1 $583 0 $583 6.2831853071796004 $263 $584 forward 7 unknown #
vertex $-1 $266 $585 #
ellipse-curve $-1 -68.329213500654717 -3.2830058359494814 6.5837423777683757 -0.78801076186113728 0 0.61566146476048833 0.30783073238024417 0 0.39400538093056864 1 I I #
coedge $-1 $417 $417 $-1 $586 reversed $269 $-1 #
edge $-1 $587 0 $587 6.2831853071796004 $270 $588 forward 7 unknown #
vertex $-1 $273 $589 #
ellipse-curve $-1 -68.329213500654717 0.0067330955883946331 6.5837423777683757 -0.78801076186113728 0 0.61566146476048833 0.30783073238024417 0 0.39400538093056864 1 I I #
face $-1 $-1 $590 $59 $-1 $591 reversed single #
loop $-1 $-1 $280 $274 #
plane-surface $-1 0 0 9.387475995718269 0 0 1 1 0 0 forward_v I I I I #
coedge $-1 $592 $593 $594 $595 reversed $275 $-1 #
coedge $-1 $596 $277 $279 $431 forward $173 $-1 #
coedge $-1 $277 $596 $592 $597 forward $173 $-1 #
coedge $-1 $594 $280 $277 $428 forward $422 $-1 #
edge $-1 $434 2.8019134256332876 $598 10.477970932554996 $427 $599 forward 7 unknown #
coedge $-1 $600 $601 $278 $430 forward $590 $-1 #
edge $-1 $602 -41.526276019619438 $433 -35.918808783719633 $429 $603 forward 7 unknown #
edge $-1 $434 -7.1159779882396199 $602 2.3096905769578348e-014 $279 $604 forward 7 unknown #
coedge $-1 $280 $594 $600 $605 forward $422 $-1 #
vertex $-1 $281 $606 #
vertex $-1 $281 $607 #
straight-curve $-1 -90.830171442236605 9.4418556047274294 9.387475995718269 1 0 0 I I #
coedge $-1 $436 $436 $-1 $608 reversed $284 $-1 #
edge $-1 $609 0 $609 6.2831853071796004 $285 $610 forward 7 unknown #
vertex $-1 $288 $611 #
ellipse-curve $-1 -68.329213500654717 11.635014892419349 6.5837423777683757 -0.78801076186113728 0 0.61566146476048833 0.30783073238024417 0 0.39400538093056864 1 I I #
coedge $-1 $440 $440 $-1 $612 reversed $291 $-1 #
edge $-1 $613 0 $613 6.2831853071796004 $292 $614 forward 7 unknown #
vertex $-1 $295 $615 #
ellipse-curve $-1 -68.329213500654717 14.924753823957218 6.5837423777683757 -0.78801076186113728 0 0.61566146476048833 0.30783073238024417 0 0.39400538093056864 1 I I #
face $-1 $-1 $616 $62 $-1 $617 reversed single #
loop $-1 $-1 $618 $296 #
plane-surface $-1 0 32.035933840017961 0 0 -1 0 0 0 -1 forward_v I I I I #
coedge $-1 $619 $299 $301 $453 forward $187 $-1 #
coedge $-1 $299 $619 $618 $620 reversed $187 $-1 #
coedge $-1 $621 $302 $299 $450 forward $297 $-1 #
edge $-1 $456 10.260923789817703 $622 17.936981296739411 $449 $623 forward 7 unknown #
coedge $-1 $624 $625 $300 $452 forward $616 $-1 #
edge $-1 $626 -41.526276019619438 $455 -35.918808783719633 $451 $627 forward 7 unknown #
edge $-1 $456 -7.1159779882396199 $626 2.3096905769578348e-014 $301 $628 forward 7 unknown #
coedge $-1 $302 $621 $624 $629 forward $297 $-1 #
vertex $-1 $452 $630 #
vertex $-1 $303 $631 #
straight-curve $-1 -90.830171442236605 24.35987633309626 9.387475995718269 1 0 0 I I #
coedge $-1 $458 $458 $-1 $632 reversed $306 $-1 #
edge $-1 $633 0 $633 6.2831853071796004 $307 $634 forward 7 unknown #
vertex $-1 $310 $635 #
ellipse-curve $-1 -68.329213500654717 26.553035620788179 6.5837423777683757 -0.78801076186113728 0 0.61566146476048833 0.30783073238024417 0 0.39400538093056864 1 I I #
coedge $-1 $462 $462 $-1 $636 reversed $313 $-1 #
edge $-1 $637 0 $637 6.2831853071796004 $314 $638 forward 7 unknown #
vertex $-1 $317 $639 #
ellipse-curve $-1 -68.329213500654717 29.842774552326048 6.5837423777683757 -0.78801076186113728 0 0.61566146476048833 0.30783073238024417 0 0.39400538093056864 1 I I #
face $-1 $-1 $478 $65 $-1 $640 forward single #
loop $-1 $-1 $641 $318 #
plane-surface $-1 70.519730216376232 0 0 -1 0 0 0 0 1 forward_v I I I I #
coedge $-1 $642 $643 $644 $645 reversed $319 $-1 #
coedge $-1 $646 $321 $323 $476 forward $201 $-1 #
coedge $-1 $321 $646 $642 $647 forward $201 $-1 #
coedge $-1 $644 $324 $321 $473 forward $478 $-1 #
edge $-1 $480 -10.333265486982892 $648 -3.1660899703713987 $472 $649 forward 7 unknown #
coedge $-1 $650 $651 $322 $475 forward $467 $-1 #
edge $-1 $652 -95.818396974706886 $479 -89.141899361887738 $474 $653 forward 7 unknown #
edge $-1 $480 133.16667871118506 $652 141.03946043275243 $323 $654 forward 7 unknown #
coedge $-1 $324 $644 $650 $655 forward $478 $-1 #
loop $-1 $-1 $644 $466 #
vertex $-1 $475 $656 #
vertex $-1 $325 $657 #
straight-curve $-1 57.694225962641731 17.082943215660038 9.3874759957182619 -1 0 0 I I #
coedge $-1 $482 $482 $-1 $658 reversed $328 $-1 #
edge $-1 $659 0 $659 6.2831853071796004 $329 $660 forward 7 unknown #
vertex $-1 $332 $661 #
ellipse-curve $-1 68.433760917616937 11.963532132366112 6.0492271893087022 0.84804810408105047 0 0.52991925155115449 0.26495962577557725 0 -0.42402405204052523 1 I I #
coedge $-1 $486 $486 $-1 $662 reversed $335 $-1 #
edge $-1 $663 0 $663 6.2831853071796004 $336 $664 forward 7 unknown #
vertex $-1 $339 $665 #
ellipse-curve $-1 68.433760917616937 15.03517878234247 6.0492271893087022 0.84804810408105047 0 0.52991925155115449 0.26495962577557725 0 -0.42402405204052523 1 I I #
face $-1 $-1 $355 $51 $-1 $666 reversed single #
loop $-1 $-1 $506 $340 #
plane-surface $-1 0 32.035933840017961 0 0 -1 0 0 0 -1 forward_v I I I I #
coedge $-1 $667 $504 $507 $668 forward $341 $-1 #
coedge $-1 $510 $343 $344 $498 reversed $215 $-1 #
coedge $-1 $504 $667 $343 $496 reversed $341 $-1 #
edge $-1 $511 -9.387475995718269 $669 9.387475995718269 $495 $670 forward 7 unknown #
coedge $-1 $345 $344 $667 $671 forward $137 $-1 #
edge $-1 $502 -70.519730216376232 $669 70.519730216376232 $494 $672 forward 7 unknown #
coedge $-1 $507 $506 $345 $500 reversed $491 $-1 #
edge $-1 $673 -70.519730216376232 $501 70.519730216376232 $499 $674 forward 7 unknown #
vertex $-1 $347 $675 #
vertex $-1 $513 $676 #
straight-curve $-1 70.519730216376232 0 -9.387475995718269 0 -1 0 I I #
coedge $-1 $493 $495 $348 $505 reversed $341 $-1 #
edge $-1 $508 -32.035933840017961 $511 32.035933840017961 $504 $677 forward 7 unknown #
coedge $-1 $499 $349 $354 $514 forward $491 $-1 #
coedge $-1 $349 $499 $493 $668 reversed $491 $-1 #
vertex $-1 $350 $678 #
straight-curve $-1 0 32.035933840017961 9.387475995718269 -1 0 0 I I #
coedge $-1 $351 $494 $353 $513 reversed $215 $-1 #
vertex $-1 $505 $679 #
straight-curve $-1 0 -32.035933840017961 9.387475995718269 1 0 0 I I #
edge $-1 $356 -9.387475995718269 $502 9.387475995718269 $353 $680 forward 7 unknown #
edge $-1 $357 -9.387475995718269 $501 9.387475995718269 $354 $681 forward 7 unknown #
point $-1 70.519730216376232 -32.035933840017961 9.387475995718269 #
point $-1 70.519730216376232 32.035933840017961 9.387475995718269 #
face $-1 $-1 $531 $52 $-1 $682 reversed single #
loop $-1 $-1 $683 $359 #
plane-surface $-1 0 -43.677681828025698 7.212688281521153 0 1 0 0 0 1 forward_v I I I I #
coedge $-1 $684 $362 $371 $535 reversed $223 $-1 #
coedge $-1 $362 $684 $363 $523 reversed $223 $-1 #
coedge $-1 $364 $363 $685 $686 forward $141 $-1 #
edge $-1 $527 32.035933840017961 $687 43.677681828025698 $521 $688 forward 7 unknown #
coedge $-1 $689 $368 $364 $525 reversed $531 $-1 #
edge $-1 $690 -43.677681828025698 $526 -32.035933840017961 $524 $691 forward 7 unknown #
vertex $-1 $369 $692 #
vertex $-1 $523 $693 #
straight-curve $-1 0 -32.035933840017961 9.387475995718269 -1 0 0 I I #
straight-curve $-1 -70.519730216376232 -32.035933840017961 0 0 0 -1 I I #
coedge $-1 $368 $689 $370 $534 reversed $531 $-1 #
loop $-1 $-1 $368 $517 #
straight-curve $-1 70.519730216376232 -32.035933840017961 0 0 0 1 I I #
coedge $-1 $371 $370 $694 $695 forward $360 $-1 #
edge $-1 $372 -5.8208739940038683 $696 5.8208739940038683 $530 $697 forward 7 unknown #
edge $-1 $698 -5.8208739940038683 $373 5.8208739940038683 $520 $699 forward 7 unknown #
point $-1 70.519730216376232 -32.035933840017961 5.0379005673240354 #
point $-1 -70.519730216376232 -32.035933840017961 5.0379005673240354 #
loop $-1 $-1 $383 $375 #
plane-surface $-1 -70.519730216376232 0 0 1 0 0 0 0 -1 forward_v I I I I #
coedge $-1 $541 $378 $380 $545 reversed $231 $-1 #
coedge $-1 $378 $540 $700 $701 reversed $231 $-1 #
coedge $-1 $386 $381 $378 $543 forward $376 $-1 #
edge $-1 $546 -24.691474657303388 $702 -20.310441225860373 $542 $703 forward 7 unknown #
coedge $-1 $380 $379 $549 $704 reversed $145 $-1 #
edge $-1 $705 -2.3096905769578348e-014 $546 7.1159779882396199 $540 $706 forward 7 unknown #
vertex $-1 $382 $707 #
straight-curve $-1 -66.138696784933217 -8.2780785492746851 9.387475995718269 0 1 0 I I #
coedge $-1 $700 $383 $386 $553 reversed $538 $-1 #
coedge $-1 $383 $700 $544 $704 forward $538 $-1 #
vertex $-1 $384 $708 #
straight-curve $-1 -70.519730216376232 -20.394185852010224 45.306284779437902 0 0 1 I I #
straight-curve $-1 -70.519730216376217 -20.394185852010224 3.7800087598184859 -0.61566146476048833 0 -0.78801076186113728 I I #
edge $-1 $702 12.718128345088516 $387 20.394185852010224 $548 $709 forward 7 unknown #
point $-1 -70.519730216376232 -20.394185852010224 9.387475995718269 #
point $-1 -66.138696784933217 -20.394185852010224 9.387475995718269 #
edge $-1 $710 1 $710 0 $390 $-1 forward 7 unknown #
vertex $-1 $391 $711 #
ellipse-curve $-1 -66.895573571695451 -18.201026564318305 5.4636601386406243 -0.78801076186113728 0 0.61566146476048833 0.30783073238024417 0 0.39400538093056864 1 I I #
point $-1 -68.021382768274492 -18.201026564318305 6.9777477586989534 #
edge $-1 $712 1 $712 0 $394 $-1 forward 7 unknown #
vertex $-1 $395 $713 #
ellipse-curve $-1 -66.895573571695451 -14.911287632780432 5.4636601386406243 -0.78801076186113728 0 0.61566146476048833 0.30783073238024417 0 0.39400538093056864 1 I I #
point $-1 -68.021382768274492 -14.911287632780432 6.9777477586989534 #
loop $-1 $-1 $406 $398 #
plane-surface $-1 -70.519730216376232 0 0 1 0 0 0 0 -1 forward_v I I I I #
coedge $-1 $567 $401 $403 $571 reversed $253 $-1 #
coedge $-1 $401 $566 $714 $715 reversed $253 $-1 #
coedge $-1 $409 $404 $401 $569 forward $399 $-1 #
edge $-1 $572 -24.691474657303388 $716 -20.310441225860373 $568 $717 forward 7 unknown #
coedge $-1 $403 $402 $575 $718 reversed $159 $-1 #
edge $-1 $719 -2.3096905769578348e-014 $572 7.1159779882396199 $566 $720 forward 7 unknown #
vertex $-1 $405 $721 #
straight-curve $-1 -66.138696784933217 -0.81906818509027168 9.387475995718269 0 1 0 I I #
coedge $-1 $714 $406 $409 $579 reversed $564 $-1 #
coedge $-1 $406 $714 $570 $718 forward $564 $-1 #
vertex $-1 $407 $722 #
straight-curve $-1 -70.519730216376232 -5.4761651236413966 45.306284779437902 0 0 1 I I #
straight-curve $-1 -70.519730216376217 -5.4761651236413966 3.7800087598184859 -0.61566146476048833 0 -0.78801076186113728 I I #
edge $-1 $716 -2.1998923832803099 $410 5.4761651236413966 $574 $723 forward 7 unknown #
point $-1 -70.519730216376232 -5.4761651236413966 9.387475995718269 #
point $-1 -66.138696784933217 -5.4761651236413966 9.387475995718269 #
edge $-1 $724 1 $724 0 $413 $-1 forward 7 unknown #
vertex $-1 $414 $725 #
ellipse-curve $-1 -66.895573571695451 -3.2830058359494814 5.4636601386406243 -0.78801076186113728 0 0.61566146476048833 0.30783073238024417 0 0.39400538093056864 1 I I #
point $-1 -68.021382768274492 -3.2830058359494814 6.9777477586989534 #
edge $-1 $726 1 $726 0 $417 $-1 forward 7 unknown #
vertex $-1 $418 $727 #
ellipse-curve $-1 -66.895573571695451 0.0067330955883946331 5.4636601386406243 -0.78801076186113728 0 0.61566146476048833 0.30783073238024417 0 0.39400538093056864 1 I I #
point $-1 -68.021382768274492 0.0067330955883946331 6.9777477586989534 #
loop $-1 $-1 $429 $421 #
plane-surface $-1 -70.519730216376232 0 0 1 0 0 0 0 -1 forward_v I I I I #
coedge $-1 $593 $424 $426 $597 reversed $275 $-1 #
coedge $-1 $424 $592 $728 $729 reversed $275 $-1 #
coedge $-1 $432 $427 $424 $595 forward $422 $-1 #
edge $-1 $598 -24.691474657303388 $730 -20.310441225860373 $594 $731 forward 7 unknown #
coedge $-1 $426 $425 $601 $732 reversed $173 $-1 #
edge $-1 $733 -2.3096905769578348e-014 $598 7.1159779882396199 $592 $734 forward 7 unknown #
vertex $-1 $428 $735 #
straight-curve $-1 -66.138696784933217 6.6399421790941417 9.387475995718269 0 1 0 I I #
coedge $-1 $728 $429 $432 $605 reversed $590 $-1 #
coedge $-1 $429 $728 $596 $732 forward $590 $-1 #
vertex $-1 $430 $736 #
straight-curve $-1 -70.519730216376232 9.4418556047274294 45.306284779437902 0 0 1 I I #
straight-curve $-1 -70.519730216376217 9.4418556047274294 3.7800087598184859 -0.61566146476048833 0 -0.78801076186113728 I I #
edge $-1 $730 -17.117913111649138 $433 -9.4418556047274294 $600 $737 forward 7 unknown #
point $-1 -70.519730216376232 9.4418556047274294 9.387475995718269 #
point $-1 -66.138696784933217 9.4418556047274294 9.387475995718269 #
edge $-1 $738 1 $738 0 $436 $-1 forward 7 unknown #
vertex $-1 $437 $739 #
ellipse-curve $-1 -66.895573571695451 11.635014892419349 5.4636601386406243 -0.78801076186113728 0 0.61566146476048833 0.30783073238024417 0 0.39400538093056864 1 I I #
point $-1 -68.021382768274492 11.635014892419349 6.9777477586989534 #
edge $-1 $740 1 $740 0 $440 $-1 forward 7 unknown #
vertex $-1 $441 $741 #
ellipse-curve $-1 -66.895573571695451 14.924753823957218 5.4636601386406243 -0.78801076186113728 0 0.61566146476048833 0.30783073238024417 0 0.39400538093056864 1 I I #
point $-1 -68.021382768274492 14.924753823957218 6.9777477586989534 #
loop $-1 $-1 $451 $444 #
plane-surface $-1 -70.519730216376232 0 0 1 0 0 0 0 -1 forward_v I I I I #
coedge $-1 $742 $743 $448 $620 forward $445 $-1 #
coedge $-1 $448 $447 $625 $744 reversed $187 $-1 #
edge $-1 $622 13.102818420191536 $745 20.218796408431178 $618 $746 forward 7 unknown #
coedge $-1 $454 $449 $743 $747 forward $297 $-1 #
vertex $-1 $747 $748 #
straight-curve $-1 -66.138696784933217 14.098952543278557 9.387475995718269 0 1 0 I I #
coedge $-1 $749 $451 $454 $629 reversed $616 $-1 #
coedge $-1 $451 $749 $619 $744 forward $616 $-1 #
vertex $-1 $452 $750 #
straight-curve $-1 -70.519730216376232 24.35987633309626 45.306284779437902 0 0 1 I I #
straight-curve $-1 -70.519730216376217 24.35987633309626 3.7800087598184859 -0.61566146476048833 0 -0.78801076186113728 I I #
edge $-1 $751 -32.035933840017961 $455 -24.35987633309626 $624 $752 forward 7 unknown #
point $-1 -70.519730216376232 24.35987633309626 9.387475995718269 #
point $-1 -66.138696784933217 24.35987633309626 9.387475995718269 #
edge $-1 $753 1 $753 0 $458 $-1 forward 7 unknown #
vertex $-1 $459 $754 #
ellipse-curve $-1 -66.895573571695451 26.553035620788179 5.4636601386406243 -0.78801076186113728 0 0.61566146476048833 0.30783073238024417 0 0.39400538093056864 1 I I #
point $-1 -68.021382768274492 26.553035620788179 6.9777477586989534 #
edge $-1 $755 1 $755 0 $462 $-1 forward 7 unknown #
vertex $-1 $463 $756 #
ellipse-curve $-1 -66.895573571695451 29.842774552326048 5.4636601386406243 -0.78801076186113728 0 0.61566146476048833 0.30783073238024417 0 0.39400538093056864 1 I I #
point $-1 -68.021382768274492 29.842774552326048 6.9777477586989534 #
plane-surface $-1 0 0 9.387475995718269 0 0 1 1 0 0 forward_v I I I I #
coedge $-1 $651 $650 $643 $757 forward $467 $-1 #
coedge $-1 $643 $469 $471 $647 reversed $319 $-1 #
coedge $-1 $469 $642 $641 $757 reversed $319 $-1 #
coedge $-1 $477 $472 $469 $645 forward $478 $-1 #
edge $-1 $648 8.6535656562159105 $758 12.825504253734501 $644 $759 forward 7 unknown #
coedge $-1 $471 $470 $651 $760 reversed $201 $-1 #
edge $-1 $761 -141.03946043275243 $648 -133.16667871118506 $642 $762 forward 7 unknown #
vertex $-1 $473 $763 #
straight-curve $-1 66.347791618857627 6.7496777286771454 9.3874759957182903 0 -1 0 I I #
coedge $-1 $641 $474 $477 $655 reversed $467 $-1 #
coedge $-1 $474 $641 $646 $760 forward $467 $-1 #
vertex $-1 $475 $764 #
straight-curve $-1 70.519730216376232 17.082943215660038 98.529375357606 0 0 1 I I #
straight-curve $-1 -4.219795095326603 17.082943215660038 122.31922540350915 0.52991925155115449 0 -0.84804810408105047 I I #
edge $-1 $758 9.9157676990485442 $479 17.082943215660038 $650 $765 forward 7 unknown #
point $-1 70.519730216376232 17.082943215660038 9.387475995718269 #
point $-1 66.347791618857642 17.082943215660038 9.3874759957182761 #
edge $-1 $766 1 $766 0 $482 $-1 forward 7 unknown #
vertex $-1 $483 $767 #
ellipse-curve $-1 67.226042276031237 11.963532132366112 5.2945608495649603 0.84804810408105047 0 0.52991925155115449 0.26495962577557725 0 -0.42402405204052523 1 I I #
point $-1 68.698720543392497 11.963532132366112 5.6252031372681737 #
edge $-1 $768 1 $768 0 $486 $-1 forward 7 unknown #
vertex $-1 $487 $769 #
ellipse-curve $-1 67.226042276031237 15.03517878234247 5.2945608495649603 0.84804810408105047 0 0.52991925155115449 0.26495962577557725 0 -0.42402405204052523 1 I I #
point $-1 68.698720543392497 15.03517878234247 5.6252031372681737 #
plane-surface $-1 70.519730216376232 0 0 -1 0 0 0 0 1 forward_v I I I I #
coedge $-1 $495 $493 $497 $671 reversed $341 $-1 #
edge $-1 $508 -9.387475995718269 $673 9.387475995718269 $507 $770 forward 7 unknown #
vertex $-1 $671 $771 #
straight-curve $-1 -70.519730216376232 -32.035933840017961 0 0 0 -1 I I #
edge $-1 $669 -32.035933840017961 $673 32.035933840017961 $667 $772 forward 7 unknown #
straight-curve $-1 0 -32.035933840017961 -9.387475995718269 -1 0 0 I I #
vertex $-1 $500 $773 #
straight-curve $-1 0 32.035933840017961 -9.387475995718269 1 0 0 I I #
point $-1 70.519730216376232 32.035933840017961 -9.387475995718269 #
point $-1 70.519730216376232 -32.035933840017961 -9.387475995718269 #
straight-curve $-1 -70.519730216376232 0 9.387475995718269 0 -1 0 I I #
point $-1 -70.519730216376232 32.035933840017961 9.387475995718269 #
point $-1 -70.519730216376232 -32.035933840017961 9.387475995718269 #
straight-curve $-1 70.519730216376232 -32.035933840017961 0 0 0 -1 I I #
straight-curve $-1 70.519730216376232 32.035933840017961 0 0 0 -1 I I #
plane-surface $-1 70.519730216376232 0 0 -1 0 0 0 0 1 forward_v I I I I #
coedge $-1 $694 $685 $684 $774 forward $518 $-1 #
coedge $-1 $521 $520 $683 $774 reversed $223 $-1 #
coedge $-1 $683 $775 $522 $686 reversed $518 $-1 #
edge $-1 $687 -70.519730216376232 $690 70.519730216376232 $685 $776 forward 7 unknown #
vertex $-1 $523 $777 #
straight-curve $-1 -70.519730216376232 0 9.387475995718269 0 -1 0 I I #
coedge $-1 $530 $524 $775 $778 forward $531 $-1 #
vertex $-1 $525 $779 #
straight-curve $-1 70.519730216376232 0 9.387475995718269 0 1 0 I I #
point $-1 70.519730216376232 -32.035933840017961 9.387475995718269 #
point $-1 -70.519730216376232 -32.035933840017961 9.387475995718269 #
coedge $-1 $775 $683 $533 $695 reversed $518 $-1 #
edge $-1 $696 -70.519730216376232 $698 70.519730216376232 $694 $780 forward 7 unknown #
vertex $-1 $778 $781 #
straight-curve $-1 70.519730216376232 -37.856807834021829 5.0379005673240354 0 -1 0 I I #
vertex $-1 $535 $782 #
straight-curve $-1 -70.519730216376232 -37.856807834021829 5.0379005673240354 0 1 0 I I #
coedge $-1 $549 $548 $541 $701 forward $538 $-1 #
edge $-1 $702 35.918808783719633 $705 41.526276019619438 $700 $783 forward 7 unknown #
vertex $-1 $553 $784 #
straight-curve $-1 -90.830171442236605 -12.718128345088516 9.387475995718269 -1 0 0 I I #
edge $-1 $705 4.440049795813831 $550 12.116107302735539 $549 $785 forward 7 unknown #
vertex $-1 $704 $786 #
straight-curve $-1 -70.519730216376217 -12.718128345088516 3.7800087598184859 0.61566146476048833 0 0.78801076186113728 I I #
point $-1 -66.138696784933217 -12.718128345088516 9.387475995718269 #
point $-1 -70.519730216376232 -20.394185852010224 3.7800087598184677 #
straight-curve $-1 -70.519730216376232 0 9.387475995718269 0 -1 0 I I #
vertex $-1 $556 $787 #
point $-1 -66.587742839315212 -18.201026564318305 5.8576655195711931 #
vertex $-1 $560 $788 #
point $-1 -66.587742839315212 -14.911287632780432 5.8576655195711931 #
coedge $-1 $575 $574 $567 $715 forward $564 $-1 #
edge $-1 $716 35.918808783719633 $719 41.526276019619438 $714 $789 forward 7 unknown #
vertex $-1 $579 $790 #
straight-curve $-1 -90.830171442236605 2.1998923832803099 9.387475995718269 -1 0 0 I I #
edge $-1 $719 -3.0189605683705816 $576 4.6570969385511249 $575 $791 forward 7 unknown #
vertex $-1 $718 $792 #
straight-curve $-1 -70.519730216376217 2.1998923832803099 3.7800087598184859 0.61566146476048833 0 0.78801076186113728 I I #
point $-1 -66.138696784933217 2.1998923832803099 9.387475995718269 #
point $-1 -70.519730216376232 -5.4761651236413966 3.7800087598184677 #
straight-curve $-1 -70.519730216376232 0 9.387475995718269 0 -1 0 I I #
vertex $-1 $582 $793 #
point $-1 -66.587742839315212 -3.2830058359494814 5.8576655195711931 #
vertex $-1 $586 $794 #
point $-1 -66.587742839315212 0.0067330955883946331 5.8576655195711931 #
coedge $-1 $601 $600 $593 $729 forward $590 $-1 #
edge $-1 $730 35.918808783719633 $733 41.526276019619438 $728 $795 forward 7 unknown #
vertex $-1 $605 $796 #
straight-curve $-1 -90.830171442236605 17.117913111649138 9.387475995718269 -1 0 0 I I #
edge $-1 $733 -10.477970932554996 $602 -2.8019134256332876 $601 $797 forward 7 unknown #
vertex $-1 $732 $798 #
straight-curve $-1 -70.519730216376217 17.117913111649138 3.7800087598184859 0.61566146476048833 0 0.78801076186113728 I I #
point $-1 -66.138696784933217 17.117913111649138 9.387475995718269 #
point $-1 -70.519730216376232 9.4418556047274294 3.7800087598184677 #
straight-curve $-1 -70.519730216376232 0 9.387475995718269 0 -1 0 I I #
vertex $-1 $608 $799 #
point $-1 -66.587742839315212 11.635014892419349 5.8576655195711931 #
vertex $-1 $612 $800 #
point $-1 -66.587742839315212 14.924753823957218 5.8576655195711931 #
coedge $-1 $743 $618 $749 $801 reversed $445 $-1 #
coedge $-1 $618 $742 $621 $747 reversed $445 $-1 #
edge $-1 $745 -17.936981296739411 $626 -10.260923789817703 $625 $802 forward 7 unknown #
vertex $-1 $620 $803 #
straight-curve $-1 -58.071796403867395 32.035933840017961 19.71263792154155 -0.61566146476048833 0 -0.78801076186113728 I I #
edge $-1 $622 66.138696784933217 $751 70.519730216376232 $743 $804 forward 7 unknown #
point $-1 -66.138696784933217 32.035933840017968 9.387475995718269 #
coedge $-1 $625 $624 $742 $801 forward $616 $-1 #
point $-1 -70.519730216376232 24.35987633309626 3.7800087598184677 #
vertex $-1 $747 $805 #
straight-curve $-1 -70.519730216376232 0 9.387475995718269 0 -1 0 I I #
vertex $-1 $632 $806 #
point $-1 -66.587742839315212 26.553035620788179 5.8576655195711931 #
vertex $-1 $636 $807 #
point $-1 -66.587742839315212 29.842774552326048 5.8576655195711931 #
edge $-1 $758 89.141899361887738 $761 95.818396974706886 $641 $808 forward 7 unknown #
vertex $-1 $655 $809 #
straight-curve $-1 57.694225962641731 9.9157676990485442 9.3874759957182619 1 0 0 I I #
edge $-1 $761 3.1660899703713987 $652 10.333265486982892 $651 $810 forward 7 unknown #
vertex $-1 $760 $811 #
straight-curve $-1 -4.219795095326603 9.9157676990485442 122.31922540350915 -0.52991925155115449 0 0.84804810408105047 I I #
point $-1 66.347791618857642 9.9157676990485442 9.3874759957182761 #
point $-1 70.519730216376232 17.082943215660038 2.7109783828991141 #
straight-curve $-1 70.519730216376232 0 9.387475995718269 0 1 0 I I #
vertex $-1 $658 $812 #
point $-1 67.491001901806811 11.963532132366112 4.8705367975244354 #
vertex $-1 $662 $813 #
point $-1 67.491001901806811 15.03517878234247 4.8705367975244354 #
straight-curve $-1 -70.519730216376232 32.035933840017961 0 0 0 -1 I I #
point $-1 -70.519730216376232 -32.035933840017961 -9.387475995718269 #
straight-curve $-1 -70.519730216376232 0 -9.387475995718269 0 1 0 I I #
point $-1 -70.519730216376232 32.035933840017961 -9.387475995718269 #
edge $-1 $687 -2.1747877141971177 $698 2.1747877141971177 $684 $814 forward 7 unknown #
coedge $-1 $685 $694 $689 $778 reversed $518 $-1 #
straight-curve $-1 0 -43.677681828025698 9.3874759957182707 1 0 0 I I #
point $-1 -70.519730216376232 -43.677681828025698 9.3874759957182707 #
edge $-1 $690 -2.1747877141971177 $696 2.1747877141971177 $689 $815 forward 7 unknown #
point $-1 70.519730216376232 -43.677681828025698 9.3874759957182707 #
straight-curve $-1 0 -43.677681828025698 5.0379005673240354 -1 0 0 I I #
point $-1 70.519730216376232 -43.677681828025698 5.0379005673240354 #
point $-1 -70.519730216376232 -43.677681828025698 5.0379005673240354 #
straight-curve $-1 -70.519730216376232 -12.718128345088516 45.306284779437902 0 0 -1 I I #
point $-1 -70.519730216376232 -12.718128345088516 9.387475995718269 #
straight-curve $-1 -70.519730216376232 -8.2780785492746851 3.7800087598184664 0 -1 0 I I #
point $-1 -70.519730216376232 -12.718128345088516 3.7800087598184677 #
point $-1 -66.501568190764885 -18.201026564318305 5.1558294062603798 #
point $-1 -66.501568190764885 -14.911287632780432 5.1558294062603798 #
straight-curve $-1 -70.519730216376232 2.1998923832803099 45.306284779437902 0 0 -1 I I #
point $-1 -70.519730216376232 2.1998923832803099 9.387475995718269 #
straight-curve $-1 -70.519730216376232 -0.81906818509027168 3.7800087598184664 0 -1 0 I I #
point $-1 -70.519730216376232 2.1998923832803099 3.7800087598184677 #
point $-1 -66.501568190764885 -3.2830058359494814 5.1558294062603798 #
point $-1 -66.501568190764885 0.0067330955883946331 5.1558294062603798 #
straight-curve $-1 -70.519730216376232 17.117913111649138 45.306284779437902 0 0 -1 I I #
point $-1 -70.519730216376232 17.117913111649138 9.387475995718269 #
straight-curve $-1 -70.519730216376232 6.6399421790941417 3.7800087598184664 0 -1 0 I I #
point $-1 -70.519730216376232 17.117913111649138 3.7800087598184677 #
point $-1 -66.501568190764885 11.635014892419349 5.1558294062603798 #
point $-1 -66.501568190764885 14.924753823957218 5.1558294062603798 #
edge $-1 $751 -9.387475995718269 $745 -3.7800087598184677 $742 $816 forward 7 unknown #
straight-curve $-1 -70.519730216376232 14.098952543278557 3.7800087598184664 0 -1 0 I I #
point $-1 -70.519730216376232 32.035933840017968 3.7800087598184677 #
straight-curve $-1 0 32.035933840017961 9.387475995718269 -1 0 0 I I #
point $-1 -70.519730216376232 32.035933840017961 9.387475995718269 #
point $-1 -66.501568190764885 26.553035620788179 5.1558294062603798 #
point $-1 -66.501568190764885 29.842774552326048 5.1558294062603798 #
straight-curve $-1 70.519730216376232 9.9157676990485442 98.529375357606 0 0 -1 I I #
point $-1 70.519730216376232 9.9157676990485442 9.387475995718269 #
straight-curve $-1 70.519730216376232 6.7496777286771454 2.7109783828991283 0 1 0 I I #
point $-1 70.519730216376232 9.9157676990485442 2.7109783828991141 #
point $-1 66.802018223990714 11.963532132366112 5.0296012237893839 #
point $-1 66.802018223990714 15.03517878234247 5.0296012237893839 #
straight-curve $-1 -70.519730216376232 -43.677681828025698 7.212688281521153 0 0 -1 I I #
straight-curve $-1 70.519730216376232 -43.677681828025698 7.212688281521153 0 0 -1 I I #
straight-curve $-1 -70.519730216376232 32.035933840017961 0 0 0 -1 I I #
End-of-ACIS-data 