500 0 13 0           
7 Unknown 11 ACIS 5.0 NT 24 Fri Mar 26 16:40:59 1999 
-1 9.9999999999999995e-007 1e-010 
body $-1 $13 $-1 $14 #
body $-1 $15 $-1 $16 #
body $-1 $17 $-1 $18 #
body $-1 $19 $-1 $20 #
body $-1 $21 $-1 $22 #
body $-1 $23 $-1 $24 #
body $-1 $25 $-1 $26 #
body $-1 $27 $-1 $28 #
body $-1 $29 $-1 $30 #
body $-1 $31 $-1 $32 #
body $-1 $33 $-1 $34 #
body $-1 $35 $-1 $36 #
body $-1 $37 $-1 $38 #
lump $-1 $-1 $39 $0 #
transform $-1 1 0 0 0 1 0 0 0 1 53.690603350932342 26.272462082842925 9.3657835502086932 1 rotate no_reflect no_shear #
lump $-1 $-1 $40 $1 #
transform $-1 1 0 0 0 1 0 0 0 1 53.690603350932342 26.272462082842925 9.3657835502086932 1 rotate no_reflect no_shear #
lump $-1 $-1 $41 $2 #
transform $-1 1 0 0 0 1 0 0 0 1 53.690603350932342 26.272462082842925 9.3657835502086932 1 rotate no_reflect no_shear #
lump $-1 $-1 $42 $3 #
transform $-1 1 0 0 0 1 0 0 0 1 53.690603350932342 26.272462082842925 9.3657835502086932 1 rotate no_reflect no_shear #
lump $-1 $-1 $43 $4 #
transform $-1 1 0 0 0 1 0 0 0 1 53.690603350932342 26.272462082842925 9.3657835502086932 1 rotate no_reflect no_shear #
lump $-1 $-1 $44 $5 #
transform $-1 1 0 0 0 1 0 0 0 1 53.690603350932342 26.272462082842925 9.3657835502086932 1 rotate no_reflect no_shear #
lump $-1 $-1 $45 $6 #
transform $-1 1 0 0 0 1 0 0 0 1 53.690603350932342 26.272462082842925 9.3657835502086932 1 rotate no_reflect no_shear #
lump $-1 $-1 $46 $7 #
transform $-1 1 0 0 0 1 0 0 0 1 53.690603350932342 26.272462082842925 9.3657835502086932 1 rotate no_reflect no_shear #
lump $-1 $-1 $47 $8 #
transform $-1 1 0 0 0 1 0 0 0 1 53.690603350932342 26.272462082842925 9.3657835502086932 1 rotate no_reflect no_shear #
lump $-1 $-1 $48 $9 #
transform $-1 1 0 0 0 1 0 0 0 1 53.690603350932342 26.272462082842925 9.3657835502086932 1 rotate no_reflect no_shear #
lump $-1 $-1 $49 $10 #
transform $-1 1 0 0 0 1 0 0 0 1 53.690603350932342 26.272462082842925 9.3657835502086932 1 rotate no_reflect no_shear #
lump $-1 $-1 $50 $11 #
transform $-1 1 0 0 0 1 0 0 0 1 53.690603350932342 26.272462082842925 9.3657835502086932 1 rotate no_reflect no_shear #
lump $-1 $-1 $51 $12 #
transform $-1 1 0 0 0 1 0 0 0 1 53.690603350932342 26.272462082842925 9.3657835502086932 1 rotate no_reflect no_shear #
shell $-1 $-1 $-1 $52 $-1 $13 #
shell $-1 $-1 $-1 $53 $-1 $15 #
shell $-1 $-1 $-1 $54 $-1 $17 #
shell $-1 $-1 $-1 $55 $-1 $19 #
shell $-1 $-1 $-1 $56 $-1 $21 #
shell $-1 $-1 $-1 $57 $-1 $23 #
shell $-1 $-1 $-1 $58 $-1 $25 #
shell $-1 $-1 $-1 $59 $-1 $27 #
shell $-1 $-1 $-1 $60 $-1 $29 #
shell $-1 $-1 $-1 $61 $-1 $31 #
shell $-1 $-1 $-1 $62 $-1 $33 #
shell $-1 $-1 $-1 $63 $-1 $35 #
shell $-1 $-1 $-1 $64 $-1 $37 #
face $-1 $65 $66 $39 $-1 $67 forward single #
face $-1 $68 $69 $40 $-1 $70 reversed single #
face $-1 $71 $72 $41 $-1 $73 forward single #
face $-1 $74 $75 $42 $-1 $76 reversed single #
face $-1 $77 $78 $43 $-1 $79 forward single #
face $-1 $80 $81 $44 $-1 $82 forward single #
face $-1 $83 $84 $45 $-1 $85 reversed single #
face $-1 $86 $87 $46 $-1 $88 forward single #
face $-1 $89 $90 $47 $-1 $91 forward single #
face $-1 $92 $93 $48 $-1 $94 reversed single #
face $-1 $95 $96 $49 $-1 $97 forward single #
face $-1 $98 $99 $50 $-1 $100 reversed single #
face $-1 $101 $102 $51 $-1 $103 forward single #
face $-1 $104 $105 $39 $-1 $106 reversed single #
loop $-1 $-1 $107 $52 #
plane-surface $-1 0 0 9.3657835502086932 0 0 1 1 0 0 forward_v I I I I #
face $-1 $108 $109 $40 $-1 $110 reversed single #
loop $-1 $-1 $111 $53 #
plane-surface $-1 -49.135989111137853 -16.450197380733776 0 0 1 0 0 0 1 forward_v I I I I #
face $-1 $112 $113 $41 $-1 $114 reversed single #
loop $-1 $-1 $115 $54 #
plane-surface $-1 49.55535280965146 0 -1.9754277090999768 0 0 1 1 0 0 forward_v I I I I #
face $-1 $116 $117 $42 $-1 $118 reversed single #
loop $-1 $-1 $119 $55 #
plane-surface $-1 -17.233861542725982 -79.963066153093649 98.669214058845142 -1 0 0 0 -0.50000000669873634 0.8660253999169214 forward_v I I I I #
face $-1 $120 $121 $43 $-1 $122 forward single #
loop $-1 $123 $124 $56 #
cone-surface $-1 -27.363829560235494 -22.024951458236185 5.7003012452043871 0 0.50000000669873634 -0.8660253999169214 1.5 0 0 1 I I 0 1 1.5 forward I I I I #
face $-1 $125 $126 $44 $-1 $127 forward single #
loop $-1 $128 $129 $57 #
cone-surface $-1 -21.285848749729787 -22.024951458236185 5.7003012452043871 0 0.50000000669873634 -0.8660253999169214 1.5 0 0 1 I I 0 1 1.5 forward I I I I #
face $-1 $130 $131 $45 $-1 $132 reversed single #
loop $-1 $-1 $133 $58 #
plane-surface $-1 32.254544164266491 -79.963066153093649 98.669214058845142 -1 0 0 0 -0.50000000669873634 0.8660253999169214 forward_v I I I I #
face $-1 $134 $135 $46 $-1 $136 forward single #
loop $-1 $137 $138 $59 #
cone-surface $-1 22.124576146756986 -22.024951458236185 5.7003012452043871 0 0.50000000669873634 -0.8660253999169214 1.5 0 0 1 I I 0 1 1.5 forward I I I I #
face $-1 $139 $140 $47 $-1 $141 forward single #
loop $-1 $142 $143 $60 #
cone-surface $-1 28.202556957262694 -22.024951458236185 5.7003012452043871 0 0.50000000669873634 -0.8660253999169214 1.5 0 0 1 I I 0 1 1.5 forward I I I I #
face $-1 $144 $145 $48 $-1 $146 reversed single #
loop $-1 $-1 $147 $61 #
plane-surface $-1 -44.581374871343371 84.095468203402532 110.13642853857725 1 0 0 0 -0.81915205242281985 -0.57357642473473569 forward_v I I I I #
face $-1 $148 $149 $49 $-1 $150 forward single #
loop $-1 $151 $152 $62 #
cone-surface $-1 -35.140311384861448 23.474913611624007 6.4224239483766814 0 -0.81915205242281985 -0.57357642473473569 1 0 0 1 I I 0 1 1 forward I I I I #
face $-1 $153 $154 $50 $-1 $155 reversed single #
loop $-1 $-1 $156 $63 #
plane-surface $-1 26.537975295406717 84.095468203402532 110.13642853857725 1 0 0 0 -0.81915205242281985 -0.57357642473473569 forward_v I I I I #
face $-1 $157 $158 $51 $-1 $159 forward single #
loop $-1 $160 $161 $64 #
cone-surface $-1 35.97903878188864 23.474913611624007 6.4224239483766814 0 -0.81915205242281985 -0.57357642473473569 1 0 0 1 I I 0 1 1 forward I I I I #
face $-1 $162 $163 $39 $-1 $164 reversed single #
loop $-1 $-1 $165 $65 #
plane-surface $-1 0 0 -9.3657835502086932 0 0 1 1 0 0 forward_v I I I I #
coedge $-1 $166 $167 $168 $169 forward $66 $-1 #
face $-1 $170 $171 $40 $-1 $172 reversed single #
loop $-1 $-1 $173 $68 #
plane-surface $-1 -49.135989111137853 -12.369977641995746 0 0 -1 0 0 0 -1 forward_v I I I I #
coedge $-1 $174 $175 $176 $177 reversed $69 $-1 #
face $-1 $178 $179 $41 $-1 $180 reversed single #
loop $-1 $-1 $181 $71 #
plane-surface $-1 49.55535280965146 0 -5.2132499967690968 0 0 1 1 0 0 forward_v I I I I #
coedge $-1 $182 $183 $184 $185 reversed $72 $-1 #
face $-1 $186 $187 $42 $-1 $188 reversed single #
loop $-1 $-1 $189 $74 #
plane-surface $-1 -24.324839154982641 -26.272462082842914 5.6743615813011843 0 -0.50000000669873634 0.8660253999169214 1 0 0 forward_v I I I I #
coedge $-1 $190 $191 $192 $193 reversed $75 $-1 #
face $-1 $-1 $194 $43 $-1 $195 forward single #
loop $-1 $196 $197 $77 #
cone-surface $-1 -27.363829560235494 -20.599305972660719 3.2310108747161479 0 0.50000000669873634 -0.8660253999169214 0.75 0 0 1 I I -0.70710678118654757 0.70710678118654757 0.75 forward I I I I #
loop $-1 $-1 $198 $56 #
coedge $-1 $124 $124 $199 $200 reversed $78 $-1 #
face $-1 $-1 $201 $44 $-1 $202 forward single #
loop $-1 $203 $204 $80 #
cone-surface $-1 -21.285848749729787 -20.599305972660719 3.2310108747161479 0 0.50000000669873634 -0.8660253999169214 0.75 0 0 1 I I -0.70710678118654757 0.70710678118654757 0.75 forward I I I I #
loop $-1 $-1 $205 $57 #
coedge $-1 $129 $129 $206 $207 reversed $81 $-1 #
face $-1 $208 $209 $45 $-1 $210 reversed single #
loop $-1 $-1 $211 $83 #
plane-surface $-1 25.163566552009833 -26.272462082842914 5.6743615813011843 0 -0.50000000669873634 0.8660253999169214 1 0 0 forward_v I I I I #
coedge $-1 $212 $213 $214 $215 reversed $84 $-1 #
face $-1 $-1 $216 $46 $-1 $217 forward single #
loop $-1 $218 $219 $86 #
cone-surface $-1 22.124576146756986 -20.599305972660719 3.2310108747161479 0 0.50000000669873634 -0.8660253999169214 0.75 0 0 1 I I -0.70710678118654757 0.70710678118654757 0.75 forward I I I I #
loop $-1 $-1 $220 $59 #
coedge $-1 $138 $138 $221 $222 reversed $87 $-1 #
face $-1 $-1 $223 $47 $-1 $224 forward single #
loop $-1 $225 $226 $89 #
cone-surface $-1 28.202556957262694 -20.599305972660719 3.2310108747161479 0 0.50000000669873634 -0.8660253999169214 0.75 0 0 1 I I -0.70710678118654757 0.70710678118654757 0.75 forward I I I I #
loop $-1 $-1 $227 $60 #
coedge $-1 $143 $143 $228 $229 reversed $90 $-1 #
face $-1 $230 $231 $48 $-1 $232 reversed single #
loop $-1 $-1 $233 $92 #
plane-surface $-1 -35.140311384861448 -3.8660676580689994 48.545099914820057 0 0.81915205242281985 0.57357642473473569 1 0 0 forward_v I I I I #
coedge $-1 $234 $235 $236 $237 reversed $93 $-1 #
face $-1 $-1 $238 $49 $-1 $239 forward single #
loop $-1 $240 $241 $95 #
cone-surface $-1 -35.140311384861448 21.620228068448778 5.1237591892331018 0 -0.81915205242281985 -0.57357642473473569 0.5 0 0 1 I I -0.70710678118654746 0.70710678118654746 0.5 forward I I I I #
loop $-1 $-1 $242 $62 #
coedge $-1 $152 $152 $243 $244 reversed $96 $-1 #
face $-1 $245 $246 $50 $-1 $247 reversed single #
loop $-1 $-1 $248 $98 #
plane-surface $-1 35.97903878188864 -3.8660676580689994 48.545099914820057 0 0.81915205242281985 0.57357642473473569 1 0 0 forward_v I I I I #
coedge $-1 $249 $250 $251 $252 reversed $99 $-1 #
face $-1 $-1 $253 $51 $-1 $254 forward single #
loop $-1 $255 $256 $101 #
cone-surface $-1 35.97903878188864 21.620228068448778 5.1237591892331018 0 -0.81915205242281985 -0.57357642473473569 0.5 0 0 1 I I -0.70710678118654746 0.70710678118654746 0.5 forward I I I I #
loop $-1 $-1 $257 $64 #
coedge $-1 $161 $161 $258 $259 reversed $102 $-1 #
face $-1 $260 $261 $39 $-1 $262 reversed single #
loop $-1 $-1 $263 $104 #
plane-surface $-1 0 -26.272462082842925 0 0 1 0 0 0 1 forward_v I I I I #
coedge $-1 $264 $265 $266 $267 forward $105 $-1 #
coedge $-1 $268 $107 $269 $270 forward $66 $-1 #
coedge $-1 $107 $268 $271 $272 forward $66 $-1 #
coedge $-1 $273 $274 $107 $169 reversed $275 $-1 #
edge $-1 $276 -26.272462082842925 $277 26.272462082842925 $168 $278 forward 7 unknown #
face $-1 $279 $280 $40 $-1 $281 reversed single #
loop $-1 $-1 $282 $108 #
plane-surface $-1 -44.581374871343364 -14.410087511364761 0 -1 0 0 0 0 1 forward_v I I I I #
coedge $-1 $283 $284 $285 $286 forward $109 $-1 #
coedge $-1 $287 $111 $288 $289 reversed $69 $-1 #
coedge $-1 $111 $287 $290 $291 reversed $69 $-1 #
coedge $-1 $292 $293 $111 $177 forward $294 $-1 #
edge $-1 $295 -9.3657835502086932 $296 9.3657835502086932 $176 $297 forward 7 unknown #
face $-1 $298 $299 $41 $-1 $300 reversed single #
loop $-1 $-1 $301 $112 #
plane-surface $-1 45.42010226837057 0 -3.5943388529345368 1 0 0 0 0 -1 forward_v I I I I #
coedge $-1 $302 $303 $304 $305 reversed $113 $-1 #
coedge $-1 $306 $115 $307 $308 reversed $72 $-1 #
coedge $-1 $115 $306 $309 $310 reversed $72 $-1 #
coedge $-1 $311 $312 $115 $185 forward $299 $-1 #
edge $-1 $313 -26.272462082842925 $314 26.272462082842925 $184 $315 forward 7 unknown #
face $-1 $316 $317 $42 $-1 $318 forward single #
loop $-1 $-1 $319 $116 #
plane-surface $-1 -31.415816767239299 -79.963066153093649 98.669214058845142 1 0 0 0 0.50000000669873634 -0.8660253999169214 forward_v I I I I #
coedge $-1 $320 $321 $322 $323 reversed $117 $-1 #
coedge $-1 $191 $119 $324 $325 reversed $75 $-1 #
coedge $-1 $119 $190 $320 $326 reversed $75 $-1 #
coedge $-1 $322 $327 $119 $193 forward $317 $-1 #
edge $-1 $328 13.7090709937039 $329 20.102801281814553 $192 $330 forward 7 unknown #
loop $-1 $-1 $199 $120 #
plane-surface $-1 -24.324839154982641 -26.272462082842914 5.6743615813011843 0 -0.50000000669873634 0.8660253999169214 1 0 0 forward_v I I I I #
loop $-1 $-1 $331 $77 #
coedge $-1 $197 $197 $198 $332 reversed $121 $-1 #
coedge $-1 $198 $198 $197 $332 forward $123 $-1 #
coedge $-1 $199 $199 $124 $200 forward $194 $-1 #
edge $-1 $333 1.4590412352493665e-015 $333 6.2831853071796022 $199 $334 forward 7 unknown #
loop $-1 $-1 $206 $125 #
plane-surface $-1 -24.324839154982641 -26.272462082842914 5.6743615813011843 0 -0.50000000669873634 0.8660253999169214 1 0 0 forward_v I I I I #
loop $-1 $-1 $335 $80 #
coedge $-1 $204 $204 $205 $336 reversed $126 $-1 #
coedge $-1 $205 $205 $204 $336 forward $128 $-1 #
coedge $-1 $206 $206 $129 $207 forward $201 $-1 #
edge $-1 $337 1.4590412352493665e-015 $337 6.2831853071796022 $206 $338 forward 7 unknown #
face $-1 $339 $340 $45 $-1 $341 reversed single #
loop $-1 $-1 $342 $130 #
plane-surface $-1 18.072588939753174 -79.963066153093649 98.669214058845142 1 0 0 0 0.50000000669873634 -0.8660253999169214 forward_v I I I I #
coedge $-1 $343 $344 $345 $346 reversed $131 $-1 #
coedge $-1 $213 $133 $347 $348 reversed $84 $-1 #
coedge $-1 $133 $212 $343 $349 reversed $84 $-1 #
coedge $-1 $345 $350 $133 $215 forward $351 $-1 #
edge $-1 $352 13.7090709937039 $353 20.102801281814553 $214 $354 forward 7 unknown #
loop $-1 $-1 $221 $134 #
plane-surface $-1 25.163566552009833 -26.272462082842914 5.6743615813011843 0 -0.50000000669873634 0.8660253999169214 1 0 0 forward_v I I I I #
loop $-1 $-1 $355 $86 #
coedge $-1 $219 $219 $220 $356 reversed $135 $-1 #
coedge $-1 $220 $220 $219 $356 forward $137 $-1 #
coedge $-1 $221 $221 $138 $222 forward $216 $-1 #
edge $-1 $357 1.4590412352493665e-015 $357 6.2831853071796022 $221 $358 forward 7 unknown #
loop $-1 $-1 $228 $139 #
plane-surface $-1 25.163566552009833 -26.272462082842914 5.6743615813011843 0 -0.50000000669873634 0.8660253999169214 1 0 0 forward_v I I I I #
loop $-1 $-1 $359 $89 #
coedge $-1 $226 $226 $227 $360 reversed $140 $-1 #
coedge $-1 $227 $227 $226 $360 forward $142 $-1 #
coedge $-1 $228 $228 $143 $229 forward $223 $-1 #
edge $-1 $361 1.4590412352493665e-015 $361 6.2831853071796022 $228 $362 forward 7 unknown #
face $-1 $363 $364 $48 $-1 $365 reversed single #
loop $-1 $-1 $366 $144 #
plane-surface $-1 -25.699247898379525 84.095468203402532 110.13642853857725 -1 0 0 0 0.81915205242281985 0.57357642473473569 forward_v I I I I #
coedge $-1 $367 $368 $369 $370 reversed $145 $-1 #
coedge $-1 $235 $147 $371 $372 reversed $93 $-1 #
coedge $-1 $147 $234 $367 $373 reversed $93 $-1 #
coedge $-1 $369 $374 $147 $237 forward $375 $-1 #
edge $-1 $376 15.775272018858342 $377 18.480149927368558 $236 $378 forward 7 unknown #
loop $-1 $-1 $243 $148 #
plane-surface $-1 -35.140311384861448 -3.8660676580689994 48.545099914820057 0 0.81915205242281985 0.57357642473473569 1 0 0 forward_v I I I I #
loop $-1 $-1 $379 $95 #
coedge $-1 $241 $241 $242 $380 reversed $149 $-1 #
coedge $-1 $242 $242 $241 $380 forward $151 $-1 #
coedge $-1 $243 $243 $152 $244 forward $238 $-1 #
edge $-1 $381 4.4075933706279924e-016 $381 6.2831853071796004 $243 $382 forward 7 unknown #
face $-1 $383 $384 $50 $-1 $385 forward single #
loop $-1 $-1 $386 $153 #
plane-surface $-1 45.420102268370563 84.095468203402532 110.13642853857725 -1 0 0 0 0.81915205242281985 0.57357642473473569 forward_v I I I I #
coedge $-1 $387 $388 $389 $390 reversed $154 $-1 #
coedge $-1 $250 $156 $391 $392 reversed $99 $-1 #
coedge $-1 $156 $249 $387 $393 reversed $99 $-1 #
coedge $-1 $389 $394 $156 $252 forward $384 $-1 #
edge $-1 $395 15.775272018858342 $396 18.480149927368558 $251 $397 forward 7 unknown #
loop $-1 $-1 $258 $157 #
plane-surface $-1 35.97903878188864 -3.8660676580689994 48.545099914820057 0 0.81915205242281985 0.57357642473473569 1 0 0 forward_v I I I I #
loop $-1 $-1 $398 $101 #
coedge $-1 $256 $256 $257 $399 reversed $158 $-1 #
coedge $-1 $257 $257 $256 $399 forward $160 $-1 #
coedge $-1 $258 $258 $161 $259 forward $253 $-1 #
edge $-1 $400 4.4075933706279924e-016 $400 6.2831853071796004 $258 $401 forward 7 unknown #
face $-1 $402 $403 $39 $-1 $404 reversed single #
loop $-1 $-1 $405 $162 #
plane-surface $-1 -53.690603350932342 0 0 1 0 0 0 0 -1 forward_v I I I I #
coedge $-1 $406 $271 $407 $408 forward $163 $-1 #
coedge $-1 $409 $165 $406 $410 forward $105 $-1 #
coedge $-1 $165 $409 $411 $412 forward $105 $-1 #
coedge $-1 $274 $273 $165 $267 reversed $275 $-1 #
edge $-1 $413 -26.272462082842925 $414 26.272462082842925 $266 $415 forward 7 unknown #
coedge $-1 $167 $166 $416 $417 forward $66 $-1 #
coedge $-1 $418 $419 $166 $270 reversed $403 $-1 #
edge $-1 $277 -53.690603350932342 $420 53.690603350932342 $269 $421 forward 7 unknown #
coedge $-1 $263 $422 $167 $272 reversed $163 $-1 #
edge $-1 $423 -53.690603350932342 $276 53.690603350932342 $271 $424 forward 7 unknown #
coedge $-1 $266 $168 $422 $425 forward $275 $-1 #
coedge $-1 $168 $266 $418 $426 reversed $275 $-1 #
loop $-1 $-1 $273 $402 #
vertex $-1 $169 $427 #
vertex $-1 $169 $428 #
straight-curve $-1 53.690603350932342 0 9.3657835502086932 0 1 0 I I #
face $-1 $429 $430 $40 $-1 $431 forward single #
loop $-1 $-1 $432 $170 #
plane-surface $-1 0 0 -9.3657835502086932 0 0 1 1 0 0 forward_v I I I I #
coedge $-1 $433 $434 $287 $435 forward $171 $-1 #
coedge $-1 $436 $173 $432 $437 reversed $109 $-1 #
coedge $-1 $173 $436 $438 $439 reversed $109 $-1 #
coedge $-1 $434 $433 $173 $286 reversed $171 $-1 #
edge $-1 $440 -9.3657835502086932 $441 9.3657835502086932 $285 $442 forward 7 unknown #
coedge $-1 $175 $174 $282 $435 reversed $69 $-1 #
coedge $-1 $443 $444 $174 $289 forward $280 $-1 #
edge $-1 $445 20.013380315774437 $295 29.122608795363416 $288 $446 forward 7 unknown #
coedge $-1 $447 $448 $175 $291 forward $430 $-1 #
edge $-1 $296 -29.122608795363416 $449 -20.013380315774437 $290 $450 forward 7 unknown #
coedge $-1 $451 $176 $448 $452 reversed $294 $-1 #
coedge $-1 $176 $451 $443 $453 reversed $294 $-1 #
loop $-1 $-1 $451 $429 #
vertex $-1 $453 $454 #
vertex $-1 $177 $455 #
straight-curve $-1 -53.690603350932342 -16.450197380733776 0 0 0 1 I I #
face $-1 $456 $457 $41 $-1 $458 reversed single #
loop $-1 $-1 $304 $178 #
plane-surface $-1 53.690603350932342 0 0 -1 0 0 0 0 1 forward_v I I I I #
coedge $-1 $459 $460 $461 $462 reversed $179 $-1 #
coedge $-1 $463 $181 $464 $465 reversed $113 $-1 #
coedge $-1 $181 $463 $466 $467 reversed $113 $-1 #
coedge $-1 $312 $311 $181 $305 forward $299 $-1 #
edge $-1 $468 -26.272462082842925 $469 26.272462082842925 $304 $470 forward 7 unknown #
coedge $-1 $183 $182 $460 $471 forward $72 $-1 #
coedge $-1 $472 $461 $182 $308 forward $457 $-1 #
edge $-1 $473 20.64242586354484 $313 28.912926946106619 $307 $474 forward 7 unknown #
coedge $-1 $475 $476 $183 $310 forward $477 $-1 #
edge $-1 $314 -28.912926946106619 $478 -20.64242586354484 $309 $479 forward 7 unknown #
coedge $-1 $304 $184 $476 $480 forward $299 $-1 #
coedge $-1 $184 $304 $472 $481 reversed $299 $-1 #
vertex $-1 $481 $482 #
vertex $-1 $480 $483 #
straight-curve $-1 53.690603350932342 0 -1.9754277090999768 0 -1 0 I I #
face $-1 $-1 $484 $42 $-1 $485 reversed single #
loop $-1 $-1 $192 $186 #
plane-surface $-1 0 0 9.3657835502086932 0 0 1 1 0 0 forward_v I I I I #
coedge $-1 $486 $487 $488 $489 reversed $187 $-1 #
coedge $-1 $490 $189 $191 $326 forward $117 $-1 #
coedge $-1 $189 $490 $486 $491 forward $117 $-1 #
coedge $-1 $488 $192 $189 $323 forward $317 $-1 #
edge $-1 $329 5.0714419652346621 $492 19.253397189747979 $322 $493 forward 7 unknown #
coedge $-1 $494 $495 $190 $325 forward $484 $-1 #
edge $-1 $496 -43.660245448121394 $328 -39.968823479213881 $324 $497 forward 7 unknown #
edge $-1 $329 -7.3828438389035691 $496 1.2338845364018712e-014 $191 $498 forward 7 unknown #
coedge $-1 $192 $488 $494 $499 forward $317 $-1 #
vertex $-1 $325 $500 #
vertex $-1 $193 $501 #
straight-curve $-1 -17.233861542725982 -39.981533076546825 9.3657835502086968 0 1 0 I I #
coedge $-1 $331 $331 $-1 $502 reversed $196 $-1 #
edge $-1 $503 0 $503 6.2831853071796004 $197 $504 forward 7 unknown #
vertex $-1 $200 $505 #
ellipse-curve $-1 -27.363829560235494 -23.075596938787598 7.5200725657549361 0 -0.50000000669873634 0.8660253999169214 1.5 0 0 1 I I #
coedge $-1 $335 $335 $-1 $506 reversed $203 $-1 #
edge $-1 $507 0 $507 6.2831853071796004 $204 $508 forward 7 unknown #
vertex $-1 $207 $509 #
ellipse-curve $-1 -21.285848749729787 -23.075596938787598 7.5200725657549361 0 -0.50000000669873634 0.8660253999169214 1.5 0 0 1 I I #
face $-1 $-1 $351 $45 $-1 $510 forward single #
loop $-1 $-1 $511 $208 #
plane-surface $-1 0 -26.272462082842925 0 0 1 0 0 0 1 forward_v I I I I #
coedge $-1 $512 $513 $514 $515 reversed $209 $-1 #
coedge $-1 $516 $211 $213 $349 forward $131 $-1 #
coedge $-1 $211 $516 $512 $517 forward $131 $-1 #
coedge $-1 $514 $214 $211 $346 forward $351 $-1 #
edge $-1 $353 -19.672760888261575 $518 -5.4908056637482581 $345 $519 forward 7 unknown #
coedge $-1 $520 $521 $212 $348 forward $340 $-1 #
edge $-1 $522 -43.660245448121394 $352 -39.968823479213881 $347 $523 forward 7 unknown #
edge $-1 $353 -7.3828438389035691 $522 1.2338845364018712e-014 $213 $524 forward 7 unknown #
coedge $-1 $214 $514 $520 $525 forward $351 $-1 #
loop $-1 $-1 $514 $339 #
vertex $-1 $348 $526 #
vertex $-1 $215 $527 #
straight-curve $-1 32.254544164266491 -39.981533076546825 9.3657835502086968 0 1 0 I I #
coedge $-1 $355 $355 $-1 $528 reversed $218 $-1 #
edge $-1 $529 0 $529 6.2831853071796004 $219 $530 forward 7 unknown #
vertex $-1 $222 $531 #
ellipse-curve $-1 22.124576146756986 -23.075596938787598 7.5200725657549361 0 -0.50000000669873634 0.8660253999169214 1.5 0 0 1 I I #
coedge $-1 $359 $359 $-1 $532 reversed $225 $-1 #
edge $-1 $533 0 $533 6.2831853071796004 $226 $534 forward 7 unknown #
vertex $-1 $229 $535 #
ellipse-curve $-1 28.202556957262694 -23.075596938787598 7.5200725657549361 0 -0.50000000669873634 0.8660253999169214 1.5 0 0 1 I I #
face $-1 $-1 $375 $48 $-1 $536 forward single #
loop $-1 $-1 $537 $230 #
plane-surface $-1 0 26.272462082842925 0 0 -1 0 0 0 -1 forward_v I I I I #
coedge $-1 $538 $539 $540 $541 reversed $231 $-1 #
coedge $-1 $542 $233 $235 $373 forward $145 $-1 #
coedge $-1 $233 $542 $538 $543 forward $145 $-1 #
coedge $-1 $540 $236 $233 $370 forward $375 $-1 #
edge $-1 $377 -27.011219178912647 $544 -8.1290922059488011 $369 $545 forward 7 unknown #
coedge $-1 $546 $547 $234 $372 forward $364 $-1 #
edge $-1 $548 -49.565396829191585 $376 -45.702430719079928 $371 $549 forward 7 unknown #
edge $-1 $377 47.829113348040877 $548 52.544924165685892 $235 $550 forward 7 unknown #
coedge $-1 $236 $540 $546 $551 forward $375 $-1 #
loop $-1 $-1 $540 $363 #
vertex $-1 $372 $552 #
vertex $-1 $237 $553 #
straight-curve $-1 -44.581374871343371 42.047734101701266 9.3657835502086897 0 -1 0 I I #
coedge $-1 $379 $379 $-1 $554 reversed $240 $-1 #
edge $-1 $555 0 $555 6.2831853071796004 $241 $556 forward 7 unknown #
vertex $-1 $244 $557 #
ellipse-curve $-1 -35.140311384861448 24.920023128587804 7.4343004951528764 0 0.81915205242281985 0.57357642473473569 1 0 0 1 I I #
face $-1 $-1 $558 $50 $-1 $559 reversed single #
loop $-1 $-1 $251 $245 #
plane-surface $-1 0 0 9.3657835502086932 0 0 1 1 0 0 forward_v I I I I #
coedge $-1 $560 $561 $562 $563 reversed $246 $-1 #
coedge $-1 $564 $248 $250 $393 forward $154 $-1 #
coedge $-1 $248 $564 $560 $565 forward $154 $-1 #
coedge $-1 $562 $251 $248 $390 forward $384 $-1 #
edge $-1 $396 8.5484559044623971 $566 27.430582877426243 $389 $567 forward 7 unknown #
coedge $-1 $568 $569 $249 $392 forward $558 $-1 #
edge $-1 $570 -49.565396829191585 $395 -45.702430719079928 $391 $571 forward 7 unknown #
edge $-1 $396 47.829113348040877 $570 52.544924165685892 $250 $572 forward 7 unknown #
coedge $-1 $251 $562 $568 $573 forward $384 $-1 #
vertex $-1 $252 $574 #
vertex $-1 $252 $575 #
straight-curve $-1 26.537975295406717 42.047734101701266 9.3657835502086897 0 -1 0 I I #
coedge $-1 $398 $398 $-1 $576 reversed $255 $-1 #
edge $-1 $577 0 $577 6.2831853071796004 $256 $578 forward 7 unknown #
vertex $-1 $259 $579 #
ellipse-curve $-1 35.97903878188864 24.920023128587804 7.4343004951528764 0 0.81915205242281985 0.57357642473473569 1 0 0 1 I I #
face $-1 $-1 $275 $39 $-1 $580 reversed single #
loop $-1 $-1 $418 $260 #
plane-surface $-1 0 26.272462082842925 0 0 -1 0 0 0 -1 forward_v I I I I #
coedge $-1 $581 $416 $419 $582 forward $261 $-1 #
coedge $-1 $422 $263 $264 $410 reversed $163 $-1 #
coedge $-1 $416 $581 $263 $408 reversed $261 $-1 #
edge $-1 $423 -9.3657835502086932 $583 9.3657835502086932 $407 $584 forward 7 unknown #
coedge $-1 $265 $264 $581 $585 forward $105 $-1 #
edge $-1 $414 -53.690603350932342 $583 53.690603350932342 $406 $586 forward 7 unknown #
coedge $-1 $419 $418 $265 $412 reversed $403 $-1 #
edge $-1 $587 -53.690603350932342 $413 53.690603350932342 $411 $588 forward 7 unknown #
vertex $-1 $267 $589 #
vertex $-1 $425 $590 #
straight-curve $-1 53.690603350932342 0 -9.3657835502086932 0 -1 0 I I #
coedge $-1 $405 $407 $268 $417 reversed $261 $-1 #
edge $-1 $420 -26.272462082842925 $423 26.272462082842925 $416 $591 forward 7 unknown #
coedge $-1 $411 $269 $274 $426 forward $403 $-1 #
coedge $-1 $269 $411 $405 $582 reversed $403 $-1 #
vertex $-1 $270 $592 #
straight-curve $-1 0 26.272462082842925 9.3657835502086932 -1 0 0 I I #
coedge $-1 $271 $406 $273 $425 reversed $163 $-1 #
vertex $-1 $417 $593 #
straight-curve $-1 0 -26.272462082842925 9.3657835502086932 1 0 0 I I #
edge $-1 $276 -9.3657835502086932 $414 9.3657835502086932 $273 $594 forward 7 unknown #
edge $-1 $277 -9.3657835502086932 $413 9.3657835502086932 $274 $595 forward 7 unknown #
point $-1 53.690603350932342 -26.272462082842925 9.3657835502086932 #
point $-1 53.690603350932342 26.272462082842925 9.3657835502086932 #
face $-1 $-1 $294 $40 $-1 $596 reversed single #
loop $-1 $-1 $438 $279 #
plane-surface $-1 0 0 9.3657835502086932 0 0 1 1 0 0 forward_v I I I I #
coedge $-1 $444 $443 $283 $437 forward $280 $-1 #
coedge $-1 $285 $282 $444 $597 reversed $171 $-1 #
coedge $-1 $282 $285 $447 $598 reversed $171 $-1 #
edge $-1 $449 -9.3657835502086932 $445 9.3657835502086932 $282 $599 forward 7 unknown #
coedge $-1 $284 $283 $451 $600 reversed $109 $-1 #
edge $-1 $601 -29.122608795363416 $441 -20.013380315774437 $432 $602 forward 7 unknown #
coedge $-1 $448 $447 $284 $439 forward $430 $-1 #
edge $-1 $440 20.013380315774437 $603 29.122608795363416 $438 $604 forward 7 unknown #
vertex $-1 $439 $605 #
vertex $-1 $437 $606 #
straight-curve $-1 -44.581374871343364 -12.369977641995746 0 0 0 -1 I I #
coedge $-1 $432 $288 $293 $453 forward $280 $-1 #
coedge $-1 $288 $432 $433 $597 forward $280 $-1 #
vertex $-1 $289 $607 #
straight-curve $-1 -24.567994555568927 -16.450197380733776 -9.3657835502086932 -1 0 0 I I #
coedge $-1 $438 $290 $434 $598 forward $430 $-1 #
coedge $-1 $290 $438 $292 $452 forward $430 $-1 #
vertex $-1 $291 $608 #
straight-curve $-1 -24.567994555568927 -16.450197380733776 9.3657835502086932 1 0 0 I I #
coedge $-1 $293 $292 $436 $600 forward $294 $-1 #
edge $-1 $603 12.369977641995746 $296 16.450197380733776 $292 $609 forward 7 unknown #
edge $-1 $295 -16.450197380733776 $601 -12.369977641995746 $293 $610 forward 7 unknown #
point $-1 -53.690603350932342 -16.450197380733776 -9.3657835502086932 #
point $-1 -53.690603350932342 -16.450197380733776 9.3657835502086932 #
face $-1 $-1 $477 $41 $-1 $611 reversed single #
loop $-1 $-1 $466 $298 #
plane-surface $-1 0 26.272462082842925 0 0 -1 0 0 0 -1 forward_v I I I I #
coedge $-1 $612 $301 $463 $613 reversed $179 $-1 #
coedge $-1 $301 $612 $306 $471 reversed $179 $-1 #
coedge $-1 $307 $466 $301 $462 forward $457 $-1 #
edge $-1 $614 -3.4160805703018284 $473 -0.17825828263270838 $461 $615 forward 7 unknown #
coedge $-1 $303 $302 $459 $613 forward $113 $-1 #
coedge $-1 $476 $475 $302 $465 forward $477 $-1 #
edge $-1 $616 20.64242586354484 $468 28.912926946106619 $464 $617 forward 7 unknown #
coedge $-1 $461 $472 $303 $467 forward $457 $-1 #
edge $-1 $469 -28.912926946106619 $614 -20.64242586354484 $466 $618 forward 7 unknown #
vertex $-1 $305 $619 #
vertex $-1 $305 $620 #
straight-curve $-1 53.690603350932342 0 -5.2132499967690968 0 1 0 I I #
edge $-1 $473 -26.272462082842925 $478 26.272462082842925 $460 $621 forward 7 unknown #
coedge $-1 $466 $307 $312 $481 forward $457 $-1 #
vertex $-1 $308 $622 #
straight-curve $-1 24.77767640482573 26.272462082842925 -1.9754277090999768 1 0 0 I I #
coedge $-1 $464 $309 $612 $623 forward $477 $-1 #
coedge $-1 $309 $464 $311 $480 reversed $477 $-1 #
loop $-1 $-1 $464 $456 #
vertex $-1 $310 $624 #
straight-curve $-1 24.77767640482573 -26.272462082842925 -1.9754277090999768 -1 0 0 I I #
edge $-1 $314 1.9754277090999768 $468 5.2132499967690968 $311 $625 forward 7 unknown #
edge $-1 $313 1.9754277090999768 $469 5.2132499967690968 $312 $626 forward 7 unknown #
point $-1 53.690603350932349 26.272462082842925 -1.9754277090999768 #
point $-1 53.690603350932349 -26.272462082842925 -1.9754277090999768 #
loop $-1 $-1 $324 $316 #
plane-surface $-1 0 -26.272462082842925 0 0 1 0 0 0 1 forward_v I I I I #
coedge $-1 $487 $319 $321 $491 reversed $187 $-1 #
coedge $-1 $319 $486 $627 $628 reversed $187 $-1 #
coedge $-1 $327 $322 $319 $489 forward $317 $-1 #
edge $-1 $492 -20.102801281814553 $629 -13.7090709937039 $488 $630 forward 7 unknown #
coedge $-1 $321 $320 $495 $631 reversed $117 $-1 #
edge $-1 $632 -1.2338845364018712e-014 $492 7.3828438389035691 $486 $633 forward 7 unknown #
vertex $-1 $323 $634 #
straight-curve $-1 -12.16241957749132 -19.878731794732275 9.3657835502086932 -1 0 0 I I #
coedge $-1 $627 $324 $327 $499 reversed $484 $-1 #
coedge $-1 $324 $627 $490 $631 forward $484 $-1 #
vertex $-1 $325 $635 #
straight-curve $-1 -17.233861542725982 -26.272462082842925 49.334607029422571 0 0 1 I I #
straight-curve $-1 -17.233861542725982 -26.272462082842914 5.6743615813011843 0 -0.8660253999169214 -0.50000000669873634 I I #
edge $-1 $629 -31.415816767239299 $328 -17.233861542725982 $494 $636 forward 7 unknown #
point $-1 -17.233861542725982 -26.272462082842925 9.3657835502086932 #
point $-1 -17.233861542725982 -19.878731794732271 9.3657835502086932 #
edge $-1 $637 1 $637 0 $331 $-1 forward 7 unknown #
vertex $-1 $332 $638 #
ellipse-curve $-1 -27.363829560235494 -20.974305977684772 3.8805299246538389 0 -0.50000000669873634 0.8660253999169214 1.5 0 0 1 I I #
point $-1 -25.863829560235494 -23.075596938787594 7.5200725657549343 #
edge $-1 $639 1 $639 0 $335 $-1 forward 7 unknown #
vertex $-1 $336 $640 #
ellipse-curve $-1 -21.285848749729787 -20.974305977684772 3.8805299246538389 0 -0.50000000669873634 0.8660253999169214 1.5 0 0 1 I I #
point $-1 -19.785848749729787 -23.075596938787594 7.5200725657549343 #
plane-surface $-1 0 0 9.3657835502086932 0 0 1 1 0 0 forward_v I I I I #
coedge $-1 $521 $520 $513 $641 forward $340 $-1 #
coedge $-1 $513 $342 $344 $517 reversed $209 $-1 #
coedge $-1 $342 $512 $511 $641 reversed $209 $-1 #
coedge $-1 $350 $345 $342 $515 forward $351 $-1 #
edge $-1 $518 -20.102801281814553 $642 -13.7090709937039 $514 $643 forward 7 unknown #
coedge $-1 $344 $343 $521 $644 reversed $131 $-1 #
edge $-1 $645 -1.2338845364018712e-014 $518 7.3828438389035691 $512 $646 forward 7 unknown #
vertex $-1 $346 $647 #
straight-curve $-1 12.581783276004916 -19.878731794732275 9.3657835502086932 -1 0 0 I I #
coedge $-1 $511 $347 $350 $525 reversed $340 $-1 #
coedge $-1 $347 $511 $516 $644 forward $340 $-1 #
vertex $-1 $348 $648 #
straight-curve $-1 32.254544164266491 -26.272462082842925 49.334607029422571 0 0 1 I I #
straight-curve $-1 32.254544164266491 -26.272462082842914 5.6743615813011843 0 -0.8660253999169214 -0.50000000669873634 I I #
edge $-1 $642 18.072588939753174 $352 32.254544164266491 $520 $649 forward 7 unknown #
point $-1 32.254544164266491 -26.272462082842925 9.3657835502086932 #
point $-1 32.254544164266491 -19.878731794732271 9.3657835502086932 #
edge $-1 $650 1 $650 0 $355 $-1 forward 7 unknown #
vertex $-1 $356 $651 #
ellipse-curve $-1 22.124576146756986 -20.974305977684772 3.8805299246538389 0 -0.50000000669873634 0.8660253999169214 1.5 0 0 1 I I #
point $-1 23.624576146756986 -23.075596938787594 7.5200725657549343 #
edge $-1 $652 1 $652 0 $359 $-1 forward 7 unknown #
vertex $-1 $360 $653 #
ellipse-curve $-1 28.202556957262694 -20.974305977684772 3.8805299246538389 0 -0.50000000669873634 0.8660253999169214 1.5 0 0 1 I I #
point $-1 29.702556957262694 -23.075596938787594 7.5200725657549343 #
plane-surface $-1 0 0 9.3657835502086932 0 0 1 1 0 0 forward_v I I I I #
coedge $-1 $547 $546 $539 $654 forward $364 $-1 #
coedge $-1 $539 $366 $368 $543 reversed $231 $-1 #
coedge $-1 $366 $538 $537 $654 reversed $231 $-1 #
coedge $-1 $374 $369 $366 $541 forward $375 $-1 #
edge $-1 $544 -18.480149927368558 $655 -15.775272018858342 $540 $656 forward 7 unknown #
coedge $-1 $368 $367 $547 $657 reversed $145 $-1 #
edge $-1 $658 -52.544924165685892 $544 -47.829113348040877 $538 $659 forward 7 unknown #
vertex $-1 $370 $660 #
straight-curve $-1 -17.570155692430724 23.567584174332705 9.3657835502086897 1 0 0 I I #
coedge $-1 $537 $371 $374 $551 reversed $364 $-1 #
coedge $-1 $371 $537 $542 $657 forward $364 $-1 #
vertex $-1 $372 $661 #
straight-curve $-1 -44.581374871343371 26.272462082842925 55.068214269288625 0 0 1 I I #
straight-curve $-1 -44.581374871343371 -3.8660676580689994 48.545099914820057 0 0.57357642473473569 -0.81915205242281985 I I #
edge $-1 $655 25.699247898379525 $376 44.581374871343371 $546 $662 forward 7 unknown #
point $-1 -44.581374871343371 26.272462082842925 9.3657835502086932 #
point $-1 -44.581374871343371 23.567584174332708 9.3657835502086897 #
edge $-1 $663 1 $663 0 $379 $-1 forward 7 unknown #
vertex $-1 $380 $664 #
ellipse-curve $-1 -35.140311384861448 22.029804094660189 5.4105474016004695 0 0.81915205242281985 0.57357642473473569 1 0 0 1 I I #
point $-1 -34.140311384861448 24.920023128587829 7.4343004951528933 #
loop $-1 $-1 $391 $383 #
plane-surface $-1 0 26.272462082842925 0 0 -1 0 0 0 -1 forward_v I I I I #
coedge $-1 $561 $386 $388 $565 reversed $246 $-1 #
coedge $-1 $386 $560 $665 $666 reversed $246 $-1 #
coedge $-1 $394 $389 $386 $563 forward $384 $-1 #
edge $-1 $566 -18.480149927368558 $667 -15.775272018858342 $562 $668 forward 7 unknown #
coedge $-1 $388 $387 $569 $669 reversed $154 $-1 #
edge $-1 $670 -52.544924165685892 $566 -47.829113348040877 $560 $671 forward 7 unknown #
vertex $-1 $390 $672 #
straight-curve $-1 17.98951939094432 23.567584174332705 9.3657835502086897 1 0 0 I I #
coedge $-1 $665 $391 $394 $573 reversed $558 $-1 #
coedge $-1 $391 $665 $564 $669 forward $558 $-1 #
vertex $-1 $392 $673 #
straight-curve $-1 26.537975295406717 26.272462082842925 55.068214269288625 0 0 1 I I #
straight-curve $-1 26.537975295406717 -3.8660676580689994 48.545099914820057 0 0.57357642473473569 -0.81915205242281985 I I #
edge $-1 $667 -45.420102268370563 $395 -26.537975295406717 $568 $674 forward 7 unknown #
point $-1 26.537975295406717 26.272462082842925 9.3657835502086932 #
point $-1 26.537975295406717 23.567584174332708 9.3657835502086897 #
edge $-1 $675 1 $675 0 $398 $-1 forward 7 unknown #
vertex $-1 $399 $676 #
ellipse-curve $-1 35.97903878188864 22.029804094660189 5.4105474016004695 0 0.81915205242281985 0.57357642473473569 1 0 0 1 I I #
point $-1 36.97903878188864 24.920023128587829 7.4343004951528933 #
plane-surface $-1 53.690603350932342 0 0 -1 0 0 0 0 1 forward_v I I I I #
coedge $-1 $407 $405 $409 $585 reversed $261 $-1 #
edge $-1 $420 -9.3657835502086932 $587 9.3657835502086932 $419 $677 forward 7 unknown #
vertex $-1 $585 $678 #
straight-curve $-1 -53.690603350932342 -26.272462082842925 0 0 0 -1 I I #
edge $-1 $583 -26.272462082842925 $587 26.272462082842925 $581 $679 forward 7 unknown #
straight-curve $-1 0 -26.272462082842925 -9.3657835502086932 -1 0 0 I I #
vertex $-1 $412 $680 #
straight-curve $-1 0 26.272462082842925 -9.3657835502086932 1 0 0 I I #
point $-1 53.690603350932342 26.272462082842925 -9.3657835502086932 #
point $-1 53.690603350932342 -26.272462082842925 -9.3657835502086932 #
straight-curve $-1 -53.690603350932342 0 9.3657835502086932 0 -1 0 I I #
point $-1 -53.690603350932342 26.272462082842925 9.3657835502086932 #
point $-1 -53.690603350932342 -26.272462082842925 9.3657835502086932 #
straight-curve $-1 53.690603350932342 -26.272462082842925 0 0 0 -1 I I #
straight-curve $-1 53.690603350932342 26.272462082842925 0 0 0 -1 I I #
plane-surface $-1 -53.690603350932342 0 0 1 0 0 0 0 -1 forward_v I I I I #
edge $-1 $441 5.1649338863133654 $445 9.2451536250513957 $444 $681 forward 7 unknown #
edge $-1 $449 -9.2451536250513957 $440 -5.1649338863133654 $447 $682 forward 7 unknown #
straight-curve $-1 -44.581374871343364 -16.450197380733776 0 0 0 -1 I I #
edge $-1 $603 -9.3657835502086932 $601 9.3657835502086932 $451 $683 forward 7 unknown #
vertex $-1 $600 $684 #
straight-curve $-1 -24.567994555568927 -12.369977641995746 -9.3657835502086932 1 0 0 I I #
vertex $-1 $452 $685 #
straight-curve $-1 -24.567994555568927 -12.369977641995746 9.3657835502086932 -1 0 0 I I #
point $-1 -44.581374871343364 -12.369977641995746 9.3657835502086932 #
point $-1 -44.581374871343364 -12.369977641995746 -9.3657835502086932 #
point $-1 -44.581374871343364 -16.450197380733776 -9.3657835502086932 #
point $-1 -44.581374871343364 -16.450197380733776 9.3657835502086932 #
straight-curve $-1 -53.690603350932342 0 9.3657835502086932 0 -1 0 I I #
straight-curve $-1 -53.690603350932342 0 -9.3657835502086932 0 1 0 I I #
plane-surface $-1 0 -26.272462082842925 0 0 1 0 0 0 1 forward_v I I I I #
coedge $-1 $460 $459 $475 $623 reversed $179 $-1 #
edge $-1 $616 -26.272462082842925 $614 26.272462082842925 $459 $686 forward 7 unknown #
vertex $-1 $467 $687 #
straight-curve $-1 45.42010226837057 26.272462082842925 -1.7971694264672684 0 0 1 I I #
vertex $-1 $465 $688 #
straight-curve $-1 24.77767640482573 -26.272462082842925 -5.2132499967690968 1 0 0 I I #
straight-curve $-1 24.77767640482573 26.272462082842925 -5.2132499967690968 -1 0 0 I I #
point $-1 53.690603350932349 -26.272462082842925 -5.2132499967690968 #
point $-1 53.690603350932349 26.272462082842925 -5.2132499967690968 #
straight-curve $-1 45.42010226837057 0 -1.9754277090999768 0 -1 0 I I #
point $-1 45.42010226837057 26.272462082842925 -1.9754277090999768 #
edge $-1 $478 0.17825828263270838 $616 3.4160805703018284 $475 $689 forward 7 unknown #
point $-1 45.42010226837057 -26.272462082842925 -1.9754277090999768 #
straight-curve $-1 53.690603350932342 -26.272462082842925 0 0 0 -1 I I #
straight-curve $-1 53.690603350932342 26.272462082842925 0 0 0 -1 I I #
coedge $-1 $495 $494 $487 $628 forward $484 $-1 #
edge $-1 $629 39.968823479213881 $632 43.660245448121394 $627 $690 forward 7 unknown #
vertex $-1 $499 $691 #
straight-curve $-1 -31.415816767239299 -39.981533076546825 9.3657835502086968 0 -1 0 I I #
edge $-1 $632 -19.253397189747979 $496 -5.0714419652346621 $495 $692 forward 7 unknown #
vertex $-1 $631 $693 #
straight-curve $-1 -31.415816767239299 -26.272462082842914 5.6743615813011843 0 0.8660253999169214 0.50000000669873634 I I #
point $-1 -31.415816767239299 -19.878731794732271 9.3657835502086932 #
point $-1 -17.233861542725982 -26.272462082842925 5.6743615813011781 #
straight-curve $-1 0 -26.272462082842925 9.3657835502086932 1 0 0 I I #
vertex $-1 $502 $694 #
point $-1 -25.863829560235494 -20.974305977684772 3.8805299246538389 #
vertex $-1 $506 $695 #
point $-1 -19.785848749729787 -20.974305977684772 3.8805299246538389 #
edge $-1 $642 39.968823479213881 $645 43.660245448121394 $511 $696 forward 7 unknown #
vertex $-1 $525 $697 #
straight-curve $-1 18.072588939753174 -39.981533076546825 9.3657835502086968 0 -1 0 I I #
edge $-1 $645 5.4908056637482581 $522 19.672760888261575 $521 $698 forward 7 unknown #
vertex $-1 $644 $699 #
straight-curve $-1 18.072588939753174 -26.272462082842914 5.6743615813011843 0 0.8660253999169214 0.50000000669873634 I I #
point $-1 18.072588939753174 -19.878731794732271 9.3657835502086932 #
point $-1 32.254544164266491 -26.272462082842925 5.6743615813011781 #
straight-curve $-1 0 -26.272462082842925 9.3657835502086932 1 0 0 I I #
vertex $-1 $528 $700 #
point $-1 23.624576146756986 -20.974305977684772 3.8805299246538389 #
vertex $-1 $532 $701 #
point $-1 29.702556957262694 -20.974305977684772 3.8805299246538389 #
edge $-1 $655 45.702430719079928 $658 49.565396829191585 $537 $702 forward 7 unknown #
vertex $-1 $551 $703 #
straight-curve $-1 -25.699247898379525 42.047734101701266 9.3657835502086897 0 1 0 I I #
edge $-1 $658 8.1290922059488011 $548 27.011219178912647 $547 $704 forward 7 unknown #
vertex $-1 $657 $705 #
straight-curve $-1 -25.699247898379525 -3.8660676580689994 48.545099914820057 0 -0.57357642473473569 0.81915205242281985 I I #
point $-1 -25.699247898379525 23.567584174332708 9.3657835502086897 #
point $-1 -44.581374871343371 26.272462082842925 5.50281744009704 #
straight-curve $-1 0 26.272462082842925 9.3657835502086932 -1 0 0 I I #
vertex $-1 $554 $706 #
point $-1 -34.140311384861448 22.029804094660189 5.4105474016004695 #
coedge $-1 $569 $568 $561 $666 forward $558 $-1 #
edge $-1 $667 45.702430719079928 $670 49.565396829191585 $665 $707 forward 7 unknown #
vertex $-1 $573 $708 #
straight-curve $-1 45.420102268370563 42.047734101701266 9.3657835502086897 0 1 0 I I #
edge $-1 $670 -27.430582877426243 $570 -8.5484559044623971 $569 $709 forward 7 unknown #
vertex $-1 $669 $710 #
straight-curve $-1 45.420102268370563 -3.8660676580689994 48.545099914820057 0 -0.57357642473473569 0.81915205242281985 I I #
point $-1 45.420102268370563 23.567584174332708 9.3657835502086897 #
point $-1 26.537975295406717 26.272462082842925 5.50281744009704 #
straight-curve $-1 0 26.272462082842925 9.3657835502086932 -1 0 0 I I #
vertex $-1 $576 $711 #
point $-1 36.97903878188864 22.029804094660189 5.4105474016004695 #
straight-curve $-1 -53.690603350932342 26.272462082842925 0 0 0 -1 I I #
point $-1 -53.690603350932342 -26.272462082842925 -9.3657835502086932 #
straight-curve $-1 -53.690603350932342 0 -9.3657835502086932 0 1 0 I I #
point $-1 -53.690603350932342 26.272462082842925 -9.3657835502086932 #
straight-curve $-1 -44.581374871343364 -7.2050437556823805 -9.3657835502086932 0 -1 0 I I #
straight-curve $-1 -44.581374871343364 -7.2050437556823805 9.3657835502086932 0 1 0 I I #
straight-curve $-1 -53.690603350932342 -12.369977641995746 0 0 0 -1 I I #
point $-1 -53.690603350932342 -12.369977641995746 -9.3657835502086932 #
point $-1 -53.690603350932342 -12.369977641995746 9.3657835502086932 #
straight-curve $-1 45.42010226837057 0 -5.2132499967690968 0 1 0 I I #
point $-1 45.42010226837057 26.272462082842925 -5.2132499967690968 #
point $-1 45.42010226837057 -26.272462082842925 -5.2132499967690968 #
straight-curve $-1 45.42010226837057 -26.272462082842925 -1.7971694264672684 0 0 -1 I I #
straight-curve $-1 -31.415816767239299 -26.272462082842925 49.334607029422571 0 0 -1 I I #
point $-1 -31.415816767239299 -26.272462082842925 9.3657835502086932 #
straight-curve $-1 -12.16241957749132 -26.272462082842925 5.674361581301179 1 0 0 I I #
point $-1 -31.415816767239299 -26.272462082842925 5.6743615813011781 #
point $-1 -27.363829560235494 -20.224305967636667 2.5814918247784568 #
point $-1 -21.285848749729787 -20.224305967636667 2.5814918247784568 #
straight-curve $-1 18.072588939753174 -26.272462082842925 49.334607029422571 0 0 -1 I I #
point $-1 18.072588939753174 -26.272462082842925 9.3657835502086932 #
straight-curve $-1 12.581783276004916 -26.272462082842925 5.674361581301179 1 0 0 I I #
point $-1 18.072588939753174 -26.272462082842925 5.6743615813011781 #
point $-1 22.124576146756986 -20.224305967636667 2.5814918247784568 #
point $-1 28.202556957262694 -20.224305967636667 2.5814918247784568 #
straight-curve $-1 -25.699247898379525 26.272462082842925 55.068214269288625 0 0 -1 I I #
point $-1 -25.699247898379525 26.272462082842925 9.3657835502086932 #
straight-curve $-1 -17.570155692430724 26.272462082842925 5.50281744009704 -1 0 0 I I #
point $-1 -25.699247898379525 26.272462082842925 5.50281744009704 #
point $-1 -35.140311384861448 21.210652042237367 4.8369709768657341 #
straight-curve $-1 45.420102268370563 26.272462082842925 55.068214269288625 0 0 -1 I I #
point $-1 45.420102268370563 26.272462082842925 9.3657835502086932 #
straight-curve $-1 17.98951939094432 26.272462082842925 5.50281744009704 -1 0 0 I I #
point $-1 45.420102268370563 26.272462082842925 5.50281744009704 #
point $-1 35.97903878188864 21.210652042237367 4.8369709768657341 #
End-of-ACIS-data 