500 0 5 0           
7 Unknown 11 ACIS 5.0 NT 24 Fri Mar 26 03:13:12 1999 
-1 9.9999999999999995e-007 1e-010 
body $-1 $5 $-1 $6 #
body $-1 $7 $-1 $8 #
body $-1 $9 $-1 $10 #
body $-1 $11 $-1 $12 #
body $-1 $13 $-1 $14 #
lump $-1 $-1 $15 $0 #
transform $-1 1 0 0 0 1 0 0 0 1 70.492873928037355 30.825868790327732 15.04575593546768 1 rotate no_reflect no_shear #
lump $-1 $-1 $16 $1 #
transform $-1 1 0 0 0 1 0 0 0 1 70.492873928037355 30.825868790327732 15.04575593546768 1 rotate no_reflect no_shear #
lump $-1 $-1 $17 $2 #
transform $-1 1 0 0 0 1 0 0 0 1 70.492873928037355 30.825868790327732 15.04575593546768 1 rotate no_reflect no_shear #
lump $-1 $-1 $18 $3 #
transform $-1 1 0 0 0 1 0 0 0 1 70.492873928037355 30.825868790327732 15.04575593546768 1 rotate no_reflect no_shear #
lump $-1 $-1 $19 $4 #
transform $-1 1 0 0 0 1 0 0 0 1 70.492873928037355 30.825868790327732 15.04575593546768 1 rotate no_reflect no_shear #
shell $-1 $-1 $-1 $20 $-1 $5 #
shell $-1 $-1 $-1 $21 $-1 $7 #
shell $-1 $-1 $-1 $22 $-1 $9 #
shell $-1 $-1 $-1 $23 $-1 $11 #
shell $-1 $-1 $-1 $24 $-1 $13 #
face $-1 $25 $26 $15 $-1 $27 forward single #
face $-1 $28 $29 $16 $-1 $30 forward single #
face $-1 $31 $32 $17 $-1 $33 reversed single #
face $-1 $34 $35 $18 $-1 $36 forward single #
face $-1 $37 $38 $19 $-1 $39 forward single #
face $-1 $40 $41 $15 $-1 $42 reversed single #
loop $-1 $-1 $43 $20 #
plane-surface $-1 0 0 15.04575593546768 0 0 1 1 0 0 forward_v I I I I #
face $-1 $44 $45 $16 $-1 $46 reversed single #
loop $-1 $-1 $47 $21 #
plane-surface $-1 0 -25.516347472141756 -10.462556121805243 0 0 1 1 0 0 forward_v I I I I #
face $-1 $48 $49 $17 $-1 $50 reversed single #
loop $-1 $-1 $51 $22 #
plane-surface $-1 -193.80178850376791 23.24018681928327 75.252914970673359 0 1 0 -0.87461971476443456 0 0.48480960649040278 forward_v I I I I #
face $-1 $52 $53 $18 $-1 $54 forward single #
loop $-1 $55 $56 $23 #
cone-surface $-1 -67.624715131324308 25.407524525295976 10.635036476943357 0.87461971476443456 0 -0.48480960649040278 0.24240480324520139 0 0.43730985738221728 1 I I 0 1 0.5 forward I I I I #
face $-1 $57 $58 $19 $-1 $59 forward single #
loop $-1 $60 $61 $24 #
cone-surface $-1 -67.624715131324308 28.65853108431503 10.635036476943357 0.87461971476443456 0 -0.48480960649040278 0.24240480324520139 0 0.43730985738221728 1 I I 0 1 0.5 forward I I I I #
face $-1 $62 $63 $15 $-1 $64 reversed single #
loop $-1 $-1 $65 $25 #
plane-surface $-1 0 0 -15.04575593546768 0 0 1 1 0 0 forward_v I I I I #
coedge $-1 $66 $67 $68 $69 forward $26 $-1 #
face $-1 $70 $71 $16 $-1 $72 reversed single #
loop $-1 $-1 $73 $28 #
plane-surface $-1 0 -20.206826153955781 -12.754156028636462 0 -1 0 0 0 -1 forward_v I I I I #
coedge $-1 $74 $75 $76 $77 reversed $29 $-1 #
face $-1 $78 $79 $17 $-1 $80 reversed single #
loop $-1 $-1 $81 $31 #
plane-surface $-1 -70.492873928037355 27.033027804805499 6.901670031814632 -0.87461971476443456 0 0.48480960649040278 0.48480960649040278 0 0.87461971476443456 forward_v I I I I #
coedge $-1 $82 $83 $84 $85 reversed $32 $-1 #
face $-1 $-1 $86 $18 $-1 $87 forward single #
loop $-1 $88 $89 $34 #
cone-surface $-1 -66.795071588299066 25.407524525295976 10.175157568622952 0.87461971476443456 0 -0.48480960649040278 0.12120240162260069 0 0.21865492869110864 1 I I -0.70710678118654746 0.70710678118654746 0.25 forward I I I I #
loop $-1 $-1 $90 $23 #
coedge $-1 $56 $56 $91 $92 reversed $35 $-1 #
face $-1 $-1 $93 $19 $-1 $94 forward single #
loop $-1 $95 $96 $37 #
cone-surface $-1 -66.795071588299066 28.65853108431503 10.175157568622952 0.87461971476443456 0 -0.48480960649040278 0.12120240162260069 0 0.21865492869110864 1 I I -0.70710678118654746 0.70710678118654746 0.25 forward I I I I #
loop $-1 $-1 $97 $24 #
coedge $-1 $61 $61 $98 $99 reversed $38 $-1 #
face $-1 $100 $101 $15 $-1 $102 reversed single #
loop $-1 $-1 $103 $40 #
plane-surface $-1 0 -30.825868790327732 0 0 1 0 0 0 1 forward_v I I I I #
coedge $-1 $104 $105 $106 $107 forward $41 $-1 #
coedge $-1 $108 $43 $109 $110 forward $26 $-1 #
coedge $-1 $43 $108 $111 $112 forward $26 $-1 #
coedge $-1 $113 $114 $43 $69 reversed $115 $-1 #
edge $-1 $116 -30.825868790327732 $117 30.825868790327732 $68 $118 forward 7 unknown #
face $-1 $119 $120 $16 $-1 $121 reversed single #
loop $-1 $-1 $122 $44 #
plane-surface $-1 0 0 -15.04575593546768 0 0 1 1 0 0 forward_v I I I I #
coedge $-1 $123 $124 $125 $126 reversed $45 $-1 #
coedge $-1 $127 $47 $124 $128 forward $29 $-1 #
coedge $-1 $47 $127 $129 $130 reversed $29 $-1 #
coedge $-1 $131 $125 $47 $77 forward $120 $-1 #
edge $-1 $132 7.4486524178849027 $133 18.067695054256852 $76 $134 forward 7 unknown #
face $-1 $135 $136 $17 $-1 $137 reversed single #
loop $-1 $-1 $138 $48 #
plane-surface $-1 0 30.825868790327732 0 0 -1 0 0 0 -1 forward_v I I I I #
coedge $-1 $139 $140 $141 $142 reversed $49 $-1 #
coedge $-1 $83 $51 $143 $144 reversed $32 $-1 #
coedge $-1 $51 $82 $139 $145 reversed $32 $-1 #
coedge $-1 $141 $146 $51 $85 forward $147 $-1 #
edge $-1 $148 26.4080203238466 $149 30.922360688604428 $84 $150 forward 7 unknown #
loop $-1 $-1 $91 $52 #
plane-surface $-1 -70.492873928037355 27.033027804805499 6.901670031814632 -0.87461971476443456 0 0.48480960649040278 0.48480960649040278 0 0.87461971476443456 forward_v I I I I #
loop $-1 $-1 $151 $34 #
coedge $-1 $89 $89 $90 $152 reversed $53 $-1 #
coedge $-1 $90 $90 $89 $152 forward $55 $-1 #
coedge $-1 $91 $91 $56 $92 forward $86 $-1 #
edge $-1 $153 0 $153 6.2831853071796004 $91 $154 forward 7 unknown #
loop $-1 $-1 $98 $57 #
plane-surface $-1 -70.492873928037355 27.033027804805499 6.901670031814632 -0.87461971476443456 0 0.48480960649040278 0.48480960649040278 0 0.87461971476443456 forward_v I I I I #
loop $-1 $-1 $155 $37 #
coedge $-1 $96 $96 $97 $156 reversed $58 $-1 #
coedge $-1 $97 $97 $96 $156 forward $60 $-1 #
coedge $-1 $98 $98 $61 $99 forward $93 $-1 #
edge $-1 $157 0 $157 6.2831853071796004 $98 $158 forward 7 unknown #
face $-1 $159 $160 $15 $-1 $161 reversed single #
loop $-1 $-1 $162 $62 #
plane-surface $-1 -70.492873928037355 0 0 1 0 0 0 0 -1 forward_v I I I I #
coedge $-1 $163 $111 $164 $165 forward $63 $-1 #
coedge $-1 $166 $65 $163 $167 forward $41 $-1 #
coedge $-1 $65 $166 $168 $169 forward $41 $-1 #
coedge $-1 $114 $113 $65 $107 reversed $115 $-1 #
edge $-1 $170 -30.825868790327732 $171 30.825868790327732 $106 $172 forward 7 unknown #
coedge $-1 $67 $66 $173 $174 forward $26 $-1 #
coedge $-1 $175 $176 $66 $110 reversed $160 $-1 #
edge $-1 $117 -70.492873928037355 $177 70.492873928037355 $109 $178 forward 7 unknown #
coedge $-1 $103 $179 $67 $112 reversed $63 $-1 #
edge $-1 $180 -70.492873928037355 $116 70.492873928037355 $111 $181 forward 7 unknown #
coedge $-1 $106 $68 $179 $182 forward $115 $-1 #
coedge $-1 $68 $106 $175 $183 reversed $115 $-1 #
loop $-1 $-1 $113 $159 #
vertex $-1 $69 $184 #
vertex $-1 $69 $185 #
straight-curve $-1 70.492873928037355 0 15.04575593546768 0 1 0 I I #
face $-1 $186 $187 $16 $-1 $188 reversed single #
loop $-1 $-1 $125 $70 #
plane-surface $-1 70.492873928037355 0 0 -1 0 0 0 0 1 forward_v I I I I #
coedge $-1 $189 $190 $123 $191 forward $71 $-1 #
coedge $-1 $192 $73 $122 $191 reversed $45 $-1 #
coedge $-1 $73 $192 $74 $128 reversed $45 $-1 #
coedge $-1 $76 $193 $73 $126 forward $120 $-1 #
edge $-1 $194 -8.6686779211494507 $132 -4.0854781074870115 $125 $195 forward 7 unknown #
coedge $-1 $75 $74 $196 $197 reversed $29 $-1 #
edge $-1 $132 -70.492873928037355 $198 70.492873928037355 $124 $199 forward 7 unknown #
coedge $-1 $200 $201 $75 $130 forward $187 $-1 #
edge $-1 $133 -70.492873928037355 $202 70.492873928037355 $129 $203 forward 7 unknown #
coedge $-1 $193 $76 $201 $204 forward $120 $-1 #
vertex $-1 $77 $205 #
vertex $-1 $204 $206 #
straight-curve $-1 70.492873928037355 -12.758173736070878 -10.462556121805243 0 -1 0 I I #
face $-1 $-1 $147 $17 $-1 $207 forward single #
loop $-1 $-1 $208 $78 #
plane-surface $-1 -70.492873928037355 0 0 1 0 0 0 0 -1 forward_v I I I I #
coedge $-1 $209 $210 $140 $211 forward $79 $-1 #
coedge $-1 $212 $81 $83 $145 forward $49 $-1 #
coedge $-1 $81 $212 $138 $211 reversed $49 $-1 #
coedge $-1 $213 $84 $81 $142 forward $147 $-1 #
edge $-1 $149 9.7236729168805205 $214 17.309354887924979 $141 $215 forward 7 unknown #
coedge $-1 $216 $208 $82 $144 forward $136 $-1 #
edge $-1 $217 -30.724787453522048 $148 -22.580701549868998 $143 $218 forward 7 unknown #
edge $-1 $149 -9.3115736658720643 $217 0 $83 $219 forward 7 unknown #
coedge $-1 $84 $213 $216 $220 forward $147 $-1 #
loop $-1 $-1 $141 $135 #
vertex $-1 $144 $221 #
vertex $-1 $85 $222 #
straight-curve $-1 -96.900894251883955 23.24018681928327 15.045755935467682 1 0 0 I I #
coedge $-1 $151 $151 $-1 $223 reversed $88 $-1 #
edge $-1 $224 0 $224 6.2831853071796004 $89 $225 forward 7 unknown #
vertex $-1 $92 $226 #
ellipse-curve $-1 -68.235703745658441 25.407524525295976 10.973712983641157 -0.87461971476443456 0 0.48480960649040278 0.24240480324520139 0 0.43730985738221728 1 I I #
coedge $-1 $155 $155 $-1 $227 reversed $95 $-1 #
edge $-1 $228 0 $228 6.2831853071796004 $96 $229 forward 7 unknown #
vertex $-1 $99 $230 #
ellipse-curve $-1 -68.235703745658441 28.65853108431503 10.973712983641157 -0.87461971476443456 0 0.48480960649040278 0.24240480324520139 0 0.43730985738221728 1 I I #
face $-1 $-1 $115 $15 $-1 $231 reversed single #
loop $-1 $-1 $175 $100 #
plane-surface $-1 0 30.825868790327732 0 0 -1 0 0 0 -1 forward_v I I I I #
coedge $-1 $232 $173 $176 $233 forward $101 $-1 #
coedge $-1 $179 $103 $104 $167 reversed $63 $-1 #
coedge $-1 $173 $232 $103 $165 reversed $101 $-1 #
edge $-1 $180 -15.04575593546768 $234 15.04575593546768 $164 $235 forward 7 unknown #
coedge $-1 $105 $104 $232 $236 forward $41 $-1 #
edge $-1 $171 -70.492873928037355 $234 70.492873928037355 $163 $237 forward 7 unknown #
coedge $-1 $176 $175 $105 $169 reversed $160 $-1 #
edge $-1 $238 -70.492873928037355 $170 70.492873928037355 $168 $239 forward 7 unknown #
vertex $-1 $107 $240 #
vertex $-1 $182 $241 #
straight-curve $-1 70.492873928037355 0 -15.04575593546768 0 -1 0 I I #
coedge $-1 $162 $164 $108 $174 reversed $101 $-1 #
edge $-1 $177 -30.825868790327732 $180 30.825868790327732 $173 $242 forward 7 unknown #
coedge $-1 $168 $109 $114 $183 forward $160 $-1 #
coedge $-1 $109 $168 $162 $233 reversed $160 $-1 #
vertex $-1 $110 $243 #
straight-curve $-1 0 30.825868790327732 15.04575593546768 -1 0 0 I I #
coedge $-1 $111 $163 $113 $182 reversed $63 $-1 #
vertex $-1 $174 $244 #
straight-curve $-1 0 -30.825868790327732 15.04575593546768 1 0 0 I I #
edge $-1 $116 -15.04575593546768 $171 15.04575593546768 $113 $245 forward 7 unknown #
edge $-1 $117 -15.04575593546768 $170 15.04575593546768 $114 $246 forward 7 unknown #
point $-1 70.492873928037355 -30.825868790327732 15.04575593546768 #
point $-1 70.492873928037355 30.825868790327732 15.04575593546768 #
face $-1 $-1 $247 $16 $-1 $248 reversed single #
loop $-1 $-1 $129 $119 #
plane-surface $-1 0 -30.825868790327732 0 0 1 0 0 0 1 forward_v I I I I #
coedge $-1 $249 $122 $193 $250 forward $71 $-1 #
coedge $-1 $122 $249 $251 $252 forward $71 $-1 #
edge $-1 $253 -70.492873928037355 $194 70.492873928037355 $122 $254 forward 7 unknown #
coedge $-1 $124 $123 $255 $256 reversed $45 $-1 #
coedge $-1 $125 $131 $189 $250 reversed $120 $-1 #
vertex $-1 $250 $257 #
straight-curve $-1 70.492873928037355 -20.206826153955781 -6.3770780143182311 0 0 1 I I #
coedge $-1 $255 $258 $127 $197 forward $247 $-1 #
edge $-1 $202 -18.067695054256852 $198 -7.4486524178849027 $196 $259 forward 7 unknown #
vertex $-1 $197 $260 #
straight-curve $-1 0 -20.206826153955781 -10.462556121805243 -1 0 0 I I #
coedge $-1 $261 $129 $258 $262 forward $187 $-1 #
coedge $-1 $129 $261 $131 $204 reversed $187 $-1 #
vertex $-1 $262 $263 #
straight-curve $-1 0 -30.825868790327732 -10.462556121805243 -1 0 0 I I #
edge $-1 $133 10.462556121805243 $264 15.04575593546768 $131 $265 forward 7 unknown #
point $-1 70.492873928037355 -20.206826153955781 -10.462556121805243 #
point $-1 70.492873928037355 -30.825868790327732 -10.462556121805243 #
plane-surface $-1 0 0 15.04575593546768 0 0 1 1 0 0 forward_v I I I I #
coedge $-1 $143 $266 $212 $267 forward $136 $-1 #
coedge $-1 $210 $138 $266 $268 reversed $79 $-1 #
coedge $-1 $138 $209 $213 $269 reversed $79 $-1 #
edge $-1 $214 4.7580692315306372 $270 14.069642897402701 $138 $271 forward 7 unknown #
coedge $-1 $140 $139 $208 $267 reversed $49 $-1 #
coedge $-1 $146 $141 $210 $269 forward $147 $-1 #
vertex $-1 $269 $272 #
straight-curve $-1 -65.978533563279527 13.51651390240275 15.045755935467682 0 1 0 I I #
coedge $-1 $266 $143 $146 $220 reversed $136 $-1 #
vertex $-1 $144 $273 #
straight-curve $-1 -70.492873928037355 23.24018681928327 37.62645748533668 0 0 1 I I #
straight-curve $-1 -70.492873928037355 23.24018681928327 6.901670031814632 -0.48480960649040278 0 -0.87461971476443456 I I #
edge $-1 $274 -30.825868790327732 $148 -23.24018681928327 $216 $275 forward 7 unknown #
point $-1 -70.492873928037355 23.24018681928327 15.04575593546768 #
point $-1 -65.978533563279527 23.24018681928327 15.04575593546768 #
edge $-1 $276 1 $276 0 $151 $-1 forward 7 unknown #
vertex $-1 $152 $277 #
ellipse-curve $-1 -67.013726516990175 25.407524525295976 10.296359970245552 -0.87461971476443456 0 0.48480960649040278 0.24240480324520139 0 0.43730985738221728 1 I I #
point $-1 -67.993298942413247 25.407524525295976 11.411022841023378 #
edge $-1 $278 1 $278 0 $155 $-1 forward 7 unknown #
vertex $-1 $156 $279 #
ellipse-curve $-1 -67.013726516990175 28.65853108431503 10.296359970245552 -0.87461971476443456 0 0.48480960649040278 0.24240480324520139 0 0.43730985738221728 1 I I #
point $-1 -67.993298942413247 28.65853108431503 11.411022841023378 #
plane-surface $-1 70.492873928037355 0 0 -1 0 0 0 0 1 forward_v I I I I #
coedge $-1 $164 $162 $166 $236 reversed $101 $-1 #
edge $-1 $177 -15.04575593546768 $238 15.04575593546768 $176 $280 forward 7 unknown #
vertex $-1 $236 $281 #
straight-curve $-1 -70.492873928037355 -30.825868790327732 0 0 0 -1 I I #
edge $-1 $234 -30.825868790327732 $238 30.825868790327732 $232 $282 forward 7 unknown #
straight-curve $-1 0 -30.825868790327732 -15.04575593546768 -1 0 0 I I #
vertex $-1 $169 $283 #
straight-curve $-1 0 30.825868790327732 -15.04575593546768 1 0 0 I I #
point $-1 70.492873928037355 30.825868790327732 -15.04575593546768 #
point $-1 70.492873928037355 -30.825868790327732 -15.04575593546768 #
straight-curve $-1 -70.492873928037355 0 15.04575593546768 0 -1 0 I I #
point $-1 -70.492873928037355 30.825868790327732 15.04575593546768 #
point $-1 -70.492873928037355 -30.825868790327732 15.04575593546768 #
straight-curve $-1 70.492873928037355 -30.825868790327732 0 0 0 -1 I I #
straight-curve $-1 70.492873928037355 30.825868790327732 0 0 0 -1 I I #
loop $-1 $-1 $255 $186 #
plane-surface $-1 -70.492873928037355 0 0 1 0 0 0 0 -1 forward_v I I I I #
coedge $-1 $190 $189 $261 $284 forward $71 $-1 #
edge $-1 $194 20.206826153955781 $264 30.825868790327732 $193 $285 forward 7 unknown #
coedge $-1 $258 $255 $190 $252 reversed $247 $-1 #
edge $-1 $286 -30.825868790327732 $253 -20.206826153955781 $251 $287 forward 7 unknown #
vertex $-1 $256 $288 #
straight-curve $-1 0 -20.206826153955781 -15.04575593546768 1 0 0 I I #
coedge $-1 $251 $196 $192 $256 forward $247 $-1 #
edge $-1 $198 4.0854781074870115 $253 8.6686779211494507 $255 $289 forward 7 unknown #
point $-1 70.492873928037355 -20.206826153955781 -15.045755935467682 #
coedge $-1 $196 $251 $200 $262 reversed $247 $-1 #
straight-curve $-1 -70.492873928037355 -12.758173736070878 -10.462556121805243 0 1 0 I I #
point $-1 -70.492873928037355 -20.206826153955781 -10.462556121805243 #
coedge $-1 $201 $200 $249 $284 reversed $187 $-1 #
edge $-1 $202 10.462556121805243 $286 15.04575593546768 $258 $290 forward 7 unknown #
point $-1 -70.492873928037355 -30.825868790327732 -10.462556121805243 #
vertex $-1 $204 $291 #
straight-curve $-1 70.492873928037355 -30.825868790327732 0 0 0 -1 I I #
coedge $-1 $208 $216 $209 $268 forward $136 $-1 #
edge $-1 $270 -17.309354887924979 $217 -9.7236729168805205 $208 $292 forward 7 unknown #
edge $-1 $274 -15.04575593546768 $270 -6.901670031814632 $209 $293 forward 7 unknown #
edge $-1 $214 65.978533563279527 $274 70.492873928037355 $210 $294 forward 7 unknown #
vertex $-1 $211 $295 #
straight-curve $-1 -63.671775891487059 30.825868790327732 19.207257089578434 -0.48480960649040278 0 -0.87461971476443456 I I #
point $-1 -65.978533563279527 30.825868790327728 15.04575593546768 #
point $-1 -70.492873928037355 23.24018681928327 6.901670031814632 #
vertex $-1 $269 $296 #
straight-curve $-1 -70.492873928037355 0 15.04575593546768 0 -1 0 I I #
vertex $-1 $223 $297 #
point $-1 -66.771321713744967 25.407524525295976 10.73366982762777 #
vertex $-1 $227 $298 #
point $-1 -66.771321713744967 28.65853108431503 10.73366982762777 #
straight-curve $-1 -70.492873928037355 30.825868790327732 0 0 0 -1 I I #
point $-1 -70.492873928037355 -30.825868790327732 -15.04575593546768 #
straight-curve $-1 -70.492873928037355 0 -15.04575593546768 0 1 0 I I #
point $-1 -70.492873928037355 30.825868790327732 -15.04575593546768 #
edge $-1 $264 -70.492873928037355 $286 70.492873928037355 $261 $299 forward 7 unknown #
straight-curve $-1 70.492873928037355 0 -15.04575593546768 0 -1 0 I I #
vertex $-1 $252 $300 #
straight-curve $-1 -70.492873928037355 0 -15.04575593546768 0 1 0 I I #
point $-1 -70.492873928037355 -20.206826153955781 -15.045755935467682 #
straight-curve $-1 -70.492873928037355 -20.206826153955781 -6.3770780143182311 0 0 -1 I I #
straight-curve $-1 -70.492873928037355 -30.825868790327732 0 0 0 -1 I I #
point $-1 70.492873928037355 -30.825868790327732 -15.04575593546768 #
straight-curve $-1 -70.492873928037355 13.51651390240275 6.9016700318146276 0 -1 0 I I #
straight-curve $-1 -70.492873928037355 30.825868790327732 0 0 0 -1 I I #
straight-curve $-1 0 30.825868790327732 15.04575593546768 -1 0 0 I I #
point $-1 -70.492873928037355 30.825868790327728 6.901670031814632 #
point $-1 -70.492873928037355 30.825868790327732 15.04575593546768 #
point $-1 -66.576416659607958 25.407524525295976 10.053955167000352 #
point $-1 -66.576416659607958 28.65853108431503 10.053955167000352 #
straight-curve $-1 0 -30.825868790327732 -15.04575593546768 -1 0 0 I I #
point $-1 -70.492873928037355 -30.825868790327732 -15.04575593546768 #
End-of-ACIS-data 