500 0 9 0           
7 Unknown 11 ACIS 5.0 NT 24 Fri Mar 26 03:08:16 1999 
-1 9.9999999999999995e-007 1e-010 
body $-1 $9 $-1 $10 #
body $-1 $11 $-1 $12 #
body $-1 $13 $-1 $14 #
body $-1 $15 $-1 $16 #
body $-1 $17 $-1 $18 #
body $-1 $19 $-1 $20 #
body $-1 $21 $-1 $22 #
body $-1 $23 $-1 $24 #
body $-1 $25 $-1 $26 #
lump $-1 $-1 $27 $0 #
transform $-1 1 0 0 0 1 0 0 0 1 65.992004150517289 38.959188362964767 14.8368792939521 1 rotate no_reflect no_shear #
lump $-1 $-1 $28 $1 #
transform $-1 1 0 0 0 1 0 0 0 1 65.992004150517289 38.959188362964767 14.8368792939521 1 rotate no_reflect no_shear #
lump $-1 $-1 $29 $2 #
transform $-1 1 0 0 0 1 0 0 0 1 65.992004150517289 38.959188362964767 14.8368792939521 1 rotate no_reflect no_shear #
lump $-1 $-1 $30 $3 #
transform $-1 1 0 0 0 1 0 0 0 1 65.992004150517289 38.959188362964767 14.8368792939521 1 rotate no_reflect no_shear #
lump $-1 $-1 $31 $4 #
transform $-1 1 0 0 0 1 0 0 0 1 65.992004150517289 38.959188362964767 14.8368792939521 1 rotate no_reflect no_shear #
lump $-1 $-1 $32 $5 #
transform $-1 1 0 0 0 1 0 0 0 1 65.992004150517289 38.959188362964767 14.8368792939521 1 rotate no_reflect no_shear #
lump $-1 $-1 $33 $6 #
transform $-1 1 0 0 0 1 0 0 0 1 65.992004150517289 38.959188362964767 14.8368792939521 1 rotate no_reflect no_shear #
lump $-1 $-1 $34 $7 #
transform $-1 1 0 0 0 1 0 0 0 1 65.992004150517289 38.959188362964767 14.8368792939521 1 rotate no_reflect no_shear #
lump $-1 $-1 $35 $8 #
transform $-1 1 0 0 0 1 0 0 0 1 65.992004150517289 38.959188362964767 14.8368792939521 1 rotate no_reflect no_shear #
shell $-1 $-1 $-1 $36 $-1 $9 #
shell $-1 $-1 $-1 $37 $-1 $11 #
shell $-1 $-1 $-1 $38 $-1 $13 #
shell $-1 $-1 $-1 $39 $-1 $15 #
shell $-1 $-1 $-1 $40 $-1 $17 #
shell $-1 $-1 $-1 $41 $-1 $19 #
shell $-1 $-1 $-1 $42 $-1 $21 #
shell $-1 $-1 $-1 $43 $-1 $23 #
shell $-1 $-1 $-1 $44 $-1 $25 #
face $-1 $45 $46 $27 $-1 $47 forward single #
face $-1 $48 $49 $28 $-1 $50 forward single #
face $-1 $51 $52 $29 $-1 $53 reversed single #
face $-1 $54 $55 $30 $-1 $56 reversed single #
face $-1 $57 $58 $31 $-1 $59 forward single #
face $-1 $60 $61 $32 $-1 $62 forward single #
face $-1 $63 $64 $33 $-1 $65 reversed single #
face $-1 $66 $67 $34 $-1 $68 forward single #
face $-1 $69 $70 $35 $-1 $71 forward single #
face $-1 $72 $73 $27 $-1 $74 reversed single #
loop $-1 $-1 $75 $36 #
plane-surface $-1 0 0 14.8368792939521 0 0 1 1 0 0 forward_v I I I I #
face $-1 $76 $77 $28 $-1 $78 reversed single #
loop $-1 $-1 $79 $37 #
plane-surface $-1 -65.992004150517289 0 0 1 0 0 0 0 -1 forward_v I I I I #
face $-1 $80 $81 $29 $-1 $82 reversed single #
loop $-1 $-1 $83 $38 #
plane-surface $-1 55.916356262059601 -34.601039020139375 0 1 0 0 0 0 -1 forward_v I I I I #
face $-1 $84 $85 $30 $-1 $86 reversed single #
loop $-1 $-1 $87 $39 #
plane-surface $-1 -22.916269702109489 107.21290407139097 138.84336151687049 1 0 0 0 -0.83867057594974714 -0.54463902268945019 forward_v I I I I #
face $-1 $88 $89 $31 $-1 $90 forward single #
loop $-1 $91 $92 $40 #
cone-surface $-1 -16.186141785348482 32.374381108592125 6.7368439259224777 0 -0.83867057594974714 -0.54463902268945019 2 0 0 1 I I 0 1 2 forward I I I I #
face $-1 $93 $94 $32 $-1 $95 forward single #
loop $-1 $96 $97 $41 #
cone-surface $-1 -6.0909499102069731 32.374381108592125 6.7368439259224777 0 -0.83867057594974714 -0.54463902268945019 2 0 0 1 I I 0 1 2 forward I I I I #
face $-1 $98 $99 $33 $-1 $100 reversed single #
loop $-1 $-1 $101 $42 #
plane-surface $-1 45.427218544155011 -38.959188362964781 6.1610149344875254 0 -0.50000000669873634 0.8660253999169214 1 0 0 forward_v I I I I #
face $-1 $102 $103 $34 $-1 $104 forward single #
loop $-1 $105 $106 $43 #
cone-surface $-1 40.931873807910179 -30.160325296089411 8.272665580046656 0 0.50000000669873634 -0.8660253999169214 2.5 0 0 1 I I 0 1 2.5 forward I I I I #
face $-1 $107 $108 $35 $-1 $109 forward single #
loop $-1 $110 $111 $44 #
cone-surface $-1 49.922563280399828 -30.160325296089411 8.272665580046656 0 0.50000000669873634 -0.8660253999169214 2.5 0 0 1 I I 0 1 2.5 forward I I I I #
face $-1 $112 $113 $27 $-1 $114 reversed single #
loop $-1 $-1 $115 $45 #
plane-surface $-1 0 0 -14.8368792939521 0 0 1 1 0 0 forward_v I I I I #
coedge $-1 $116 $117 $118 $119 forward $46 $-1 #
face $-1 $120 $121 $28 $-1 $122 reversed single #
loop $-1 $-1 $123 $48 #
plane-surface $-1 0 38.959188362964767 0 0 -1 0 0 0 -1 forward_v I I I I #
coedge $-1 $124 $125 $126 $127 forward $49 $-1 #
face $-1 $128 $129 $29 $-1 $130 reversed single #
loop $-1 $-1 $131 $51 #
plane-surface $-1 60.954180206288441 -30.242889677313986 0 0 -1 0 0 0 -1 forward_v I I I I #
coedge $-1 $132 $133 $134 $135 forward $52 $-1 #
face $-1 $136 $137 $30 $-1 $138 reversed single #
loop $-1 $-1 $139 $54 #
plane-surface $-1 -11.138545847777728 -3.4782001865939094 66.959720225158733 0 0.83867057594974714 0.54463902268945019 1 0 0 forward_v I I I I #
coedge $-1 $140 $141 $142 $143 reversed $55 $-1 #
face $-1 $-1 $144 $31 $-1 $145 forward single #
loop $-1 $146 $147 $57 #
cone-surface $-1 -16.186141785348482 29.245113757714961 4.7046740125024247 0 -0.83867057594974714 -0.54463902268945019 1 0 0 1 I I -0.70710678118654746 0.70710678118654746 1 forward I I I I #
loop $-1 $-1 $148 $40 #
coedge $-1 $92 $92 $149 $150 reversed $58 $-1 #
face $-1 $-1 $151 $32 $-1 $152 forward single #
loop $-1 $153 $154 $60 #
cone-surface $-1 -6.0909499102069731 29.245113757714961 4.7046740125024247 0 -0.83867057594974714 -0.54463902268945019 1 0 0 1 I I -0.70710678118654746 0.70710678118654746 1 forward I I I I #
loop $-1 $-1 $155 $41 #
coedge $-1 $97 $97 $156 $157 reversed $61 $-1 #
face $-1 $158 $159 $33 $-1 $160 forward single #
loop $-1 $-1 $161 $63 #
plane-surface $-1 34.938080826250413 -104.95119339760814 120.46251850602927 1 0 0 0 0.50000000669873634 -0.8660253999169214 forward_v I I I I #
coedge $-1 $162 $163 $164 $165 reversed $64 $-1 #
face $-1 $-1 $166 $34 $-1 $167 forward single #
loop $-1 $168 $169 $66 #
cone-surface $-1 40.931873807910179 -28.249981021708734 4.9638522959773415 0 0.50000000669873634 -0.8660253999169214 1.25 0 0 1 I I -0.70710678118654746 0.70710678118654746 1.25 forward I I I I #
loop $-1 $-1 $170 $43 #
coedge $-1 $106 $106 $171 $172 reversed $67 $-1 #
face $-1 $-1 $173 $35 $-1 $174 forward single #
loop $-1 $175 $176 $69 #
cone-surface $-1 49.922563280399828 -28.249981021708734 4.9638522959773415 0 0.50000000669873634 -0.8660253999169214 1.25 0 0 1 I I -0.70710678118654746 0.70710678118654746 1.25 forward I I I I #
loop $-1 $-1 $177 $44 #
coedge $-1 $111 $111 $178 $179 reversed $70 $-1 #
face $-1 $180 $181 $27 $-1 $182 reversed single #
loop $-1 $-1 $183 $72 #
plane-surface $-1 0 -38.959188362964767 0 0 1 0 0 0 1 forward_v I I I I #
coedge $-1 $184 $185 $186 $187 forward $73 $-1 #
coedge $-1 $188 $75 $189 $190 forward $46 $-1 #
coedge $-1 $75 $188 $191 $192 forward $46 $-1 #
coedge $-1 $193 $194 $75 $119 reversed $195 $-1 #
edge $-1 $196 -38.959188362964767 $197 38.959188362964767 $118 $198 forward 7 unknown #
face $-1 $199 $200 $28 $-1 $201 reversed single #
loop $-1 $-1 $126 $76 #
plane-surface $-1 -72.450699157646085 0 5.9901743691992291 0 0 1 1 0 0 forward_v I I I I #
coedge $-1 $202 $203 $124 $204 forward $77 $-1 #
coedge $-1 $205 $79 $123 $204 reversed $49 $-1 #
coedge $-1 $79 $205 $206 $207 reversed $49 $-1 #
coedge $-1 $208 $209 $79 $127 reversed $121 $-1 #
edge $-1 $210 -38.959188362964767 $211 38.959188362964767 $126 $212 forward 7 unknown #
face $-1 $213 $214 $29 $-1 $215 forward single #
loop $-1 $-1 $216 $80 #
plane-surface $-1 65.992004150517289 0 0 -1 0 0 0 0 1 forward_v I I I I #
coedge $-1 $217 $218 $216 $219 reversed $81 $-1 #
coedge $-1 $220 $83 $221 $222 reversed $52 $-1 #
coedge $-1 $83 $220 $223 $224 reversed $52 $-1 #
coedge $-1 $218 $217 $83 $135 reversed $81 $-1 #
edge $-1 $225 -14.8368792939521 $226 14.8368792939521 $134 $227 forward 7 unknown #
face $-1 $228 $229 $30 $-1 $230 reversed single #
loop $-1 $-1 $231 $84 #
plane-surface $-1 0.63917800655403312 107.21290407139097 138.84336151687049 -1 0 0 0 0.83867057594974714 0.54463902268945019 forward_v I I I I #
coedge $-1 $232 $233 $234 $235 reversed $85 $-1 #
coedge $-1 $141 $87 $236 $237 reversed $55 $-1 #
coedge $-1 $87 $140 $232 $238 reversed $55 $-1 #
coedge $-1 $234 $239 $87 $143 forward $240 $-1 #
edge $-1 $241 14.647263672730716 $242 23.235684631621162 $142 $243 forward 7 unknown #
loop $-1 $-1 $149 $88 #
plane-surface $-1 -11.138545847777728 -3.4782001865939094 66.959720225158733 0 0.83867057594974714 0.54463902268945019 1 0 0 forward_v I I I I #
loop $-1 $-1 $244 $57 #
coedge $-1 $147 $147 $148 $245 reversed $89 $-1 #
coedge $-1 $148 $148 $147 $245 forward $91 $-1 #
coedge $-1 $149 $149 $92 $150 forward $144 $-1 #
edge $-1 $246 -2.9972081447077483e-016 $246 6.2831853071796004 $149 $247 forward 7 unknown #
loop $-1 $-1 $156 $93 #
plane-surface $-1 -11.138545847777728 -3.4782001865939094 66.959720225158733 0 0.83867057594974714 0.54463902268945019 1 0 0 forward_v I I I I #
loop $-1 $-1 $248 $60 #
coedge $-1 $154 $154 $155 $249 reversed $94 $-1 #
coedge $-1 $155 $155 $154 $249 forward $96 $-1 #
coedge $-1 $156 $156 $97 $157 forward $151 $-1 #
edge $-1 $250 -2.9972081447077483e-016 $250 6.2831853071796004 $156 $251 forward 7 unknown #
face $-1 $252 $253 $33 $-1 $254 forward single #
loop $-1 $-1 $255 $98 #
plane-surface $-1 0 0 14.8368792939521 0 0 1 1 0 0 forward_v I I I I #
coedge $-1 $256 $257 $258 $259 reversed $99 $-1 #
coedge $-1 $260 $101 $261 $262 reversed $64 $-1 #
coedge $-1 $101 $260 $256 $263 forward $64 $-1 #
coedge $-1 $258 $255 $101 $165 forward $159 $-1 #
edge $-1 $264 -33.202746989982103 $265 -12.224471554172908 $164 $266 forward 7 unknown #
loop $-1 $-1 $171 $102 #
plane-surface $-1 45.427218544155011 -38.959188362964781 6.1610149344875254 0 -0.50000000669873634 0.8660253999169214 1 0 0 forward_v I I I I #
loop $-1 $-1 $267 $66 #
coedge $-1 $169 $169 $170 $268 reversed $103 $-1 #
coedge $-1 $170 $170 $169 $268 forward $105 $-1 #
coedge $-1 $171 $171 $106 $172 forward $166 $-1 #
edge $-1 $269 1.2306961137894083e-015 $269 6.2831853071796013 $171 $270 forward 7 unknown #
loop $-1 $-1 $178 $107 #
plane-surface $-1 45.427218544155011 -38.959188362964781 6.1610149344875254 0 -0.50000000669873634 0.8660253999169214 1 0 0 forward_v I I I I #
loop $-1 $-1 $271 $69 #
coedge $-1 $176 $176 $177 $272 reversed $108 $-1 #
coedge $-1 $177 $177 $176 $272 forward $110 $-1 #
coedge $-1 $178 $178 $111 $179 forward $173 $-1 #
edge $-1 $273 1.2306961137894083e-015 $273 6.2831853071796013 $178 $274 forward 7 unknown #
face $-1 $275 $276 $27 $-1 $277 reversed single #
loop $-1 $-1 $278 $112 #
plane-surface $-1 -65.992004150517289 0 0 1 0 0 0 0 -1 forward_v I I I I #
coedge $-1 $279 $191 $280 $281 forward $113 $-1 #
coedge $-1 $282 $115 $279 $283 forward $73 $-1 #
coedge $-1 $115 $282 $284 $285 forward $73 $-1 #
coedge $-1 $194 $193 $115 $187 reversed $195 $-1 #
edge $-1 $286 -38.959188362964767 $287 38.959188362964767 $186 $288 forward 7 unknown #
coedge $-1 $117 $116 $289 $290 forward $46 $-1 #
coedge $-1 $291 $292 $116 $190 reversed $276 $-1 #
edge $-1 $197 -65.992004150517289 $293 65.992004150517289 $189 $294 forward 7 unknown #
coedge $-1 $183 $295 $117 $192 reversed $113 $-1 #
edge $-1 $296 -65.992004150517289 $196 65.992004150517289 $191 $297 forward 7 unknown #
coedge $-1 $186 $118 $295 $298 forward $195 $-1 #
coedge $-1 $118 $186 $291 $299 reversed $195 $-1 #
loop $-1 $-1 $193 $275 #
vertex $-1 $119 $300 #
vertex $-1 $119 $301 #
straight-curve $-1 65.992004150517289 0 14.8368792939521 0 1 0 I I #
face $-1 $302 $303 $28 $-1 $304 forward single #
loop $-1 $-1 $305 $120 #
plane-surface $-1 -78.909394164774881 0 10.413526831575664 1 0 0 0 0 -1 forward_v I I I I #
coedge $-1 $306 $123 $209 $307 reversed $77 $-1 #
coedge $-1 $123 $306 $308 $309 reversed $77 $-1 #
edge $-1 $310 -14.8368792939521 $211 -5.9901743691992291 $123 $311 forward 7 unknown #
coedge $-1 $125 $124 $312 $313 reversed $49 $-1 #
coedge $-1 $314 $315 $125 $207 forward $316 $-1 #
edge $-1 $210 5.9901743691992291 $317 14.8368792939521 $206 $318 forward 7 unknown #
coedge $-1 $319 $126 $315 $320 forward $121 $-1 #
coedge $-1 $126 $319 $202 $307 forward $121 $-1 #
vertex $-1 $207 $321 #
vertex $-1 $204 $322 #
straight-curve $-1 -65.992004150517289 0 5.9901743691992291 0 1 0 I I #
face $-1 $323 $324 $29 $-1 $325 reversed single #
loop $-1 $-1 $326 $128 #
plane-surface $-1 0 0 14.8368792939521 0 0 1 1 0 0 forward_v I I I I #
coedge $-1 $327 $328 $131 $219 forward $129 $-1 #
coedge $-1 $134 $131 $329 $330 reversed $81 $-1 #
coedge $-1 $131 $134 $326 $331 reversed $81 $-1 #
edge $-1 $332 -14.8368792939521 $333 14.8368792939521 $216 $334 forward 7 unknown #
coedge $-1 $133 $132 $335 $336 reversed $52 $-1 #
coedge $-1 $329 $337 $132 $222 forward $324 $-1 #
edge $-1 $338 -21.658668852895079 $226 -12.942370167244299 $221 $339 forward 7 unknown #
coedge $-1 $340 $326 $133 $224 forward $214 $-1 #
edge $-1 $225 12.942370167244299 $341 21.658668852895079 $223 $342 forward 7 unknown #
vertex $-1 $224 $343 #
vertex $-1 $222 $344 #
straight-curve $-1 55.916356262059601 -30.242889677313986 0 0 0 -1 I I #
face $-1 $-1 $240 $30 $-1 $345 forward single #
loop $-1 $-1 $346 $136 #
plane-surface $-1 0 38.959188362964767 0 0 -1 0 0 0 -1 forward_v I I I I #
coedge $-1 $347 $348 $349 $350 reversed $137 $-1 #
coedge $-1 $351 $139 $141 $238 forward $85 $-1 #
coedge $-1 $139 $351 $347 $352 forward $85 $-1 #
coedge $-1 $349 $142 $139 $235 forward $240 $-1 #
edge $-1 $242 -17.346996778220625 $353 6.208450930442897 $234 $354 forward 7 unknown #
coedge $-1 $355 $356 $140 $237 forward $229 $-1 #
edge $-1 $357 -67.809810419081231 $241 -54.584801464483142 $236 $358 forward 7 unknown #
edge $-1 $242 62.149361651540538 $357 77.918376725929562 $141 $359 forward 7 unknown #
coedge $-1 $142 $349 $355 $360 forward $240 $-1 #
loop $-1 $-1 $349 $228 #
vertex $-1 $237 $361 #
vertex $-1 $143 $362 #
straight-curve $-1 -22.916269702109489 53.606452035695483 14.836879293952101 0 -1 0 I I #
coedge $-1 $244 $244 $-1 $363 reversed $146 $-1 #
edge $-1 $364 0 $364 6.2831853071796004 $147 $365 forward 7 unknown #
vertex $-1 $150 $366 #
ellipse-curve $-1 -16.186141785348482 34.664977883519533 8.224374816653075 0 0.83867057594974714 0.54463902268945019 2 0 0 1 I I #
coedge $-1 $248 $248 $-1 $367 reversed $153 $-1 #
edge $-1 $368 0 $368 6.2831853071796004 $154 $369 forward 7 unknown #
vertex $-1 $157 $370 #
ellipse-curve $-1 -6.0909499102069731 34.664977883519533 8.224374816653075 0 0.83867057594974714 0.54463902268945019 2 0 0 1 I I #
face $-1 $-1 $371 $33 $-1 $372 reversed single #
loop $-1 $-1 $261 $158 #
plane-surface $-1 55.916356262059601 -34.601039020139375 0 1 0 0 0 0 -1 forward_v I I I I #
coedge $-1 $164 $373 $374 $375 forward $159 $-1 #
coedge $-1 $257 $161 $163 $263 reversed $99 $-1 #
coedge $-1 $161 $256 $376 $377 reversed $99 $-1 #
coedge $-1 $373 $164 $161 $259 forward $159 $-1 #
edge $-1 $265 -28.543445937575509 $378 -13.516408335839301 $258 $379 forward 7 unknown #
coedge $-1 $163 $162 $380 $381 reversed $64 $-1 #
coedge $-1 $374 $382 $162 $262 forward $253 $-1 #
edge $-1 $383 -0.34688025950162071 $264 17.004848226958206 $261 $384 forward 7 unknown #
edge $-1 $385 1.6303764080091705e-014 $265 17.351728486459841 $256 $386 forward 7 unknown #
vertex $-1 $165 $387 #
vertex $-1 $165 $388 #
straight-curve $-1 22.713609272077505 -23.932150761228563 14.8368792939521 -1 0 0 I I #
coedge $-1 $267 $267 $-1 $389 reversed $168 $-1 #
edge $-1 $390 0 $390 6.2831853071796004 $169 $391 forward 7 unknown #
vertex $-1 $172 $392 #
ellipse-curve $-1 40.931873807910179 -31.445669562096665 10.498947114219817 0 -0.50000000669873634 0.8660253999169214 2.5 0 0 1 I I #
coedge $-1 $271 $271 $-1 $393 reversed $175 $-1 #
edge $-1 $394 0 $394 6.2831853071796004 $176 $395 forward 7 unknown #
vertex $-1 $179 $396 #
ellipse-curve $-1 49.922563280399828 -31.445669562096665 10.498947114219817 0 -0.50000000669873634 0.8660253999169214 2.5 0 0 1 I I #
face $-1 $-1 $195 $27 $-1 $397 reversed single #
loop $-1 $-1 $291 $180 #
plane-surface $-1 0 38.959188362964767 0 0 -1 0 0 0 -1 forward_v I I I I #
coedge $-1 $398 $289 $292 $399 forward $181 $-1 #
coedge $-1 $295 $183 $184 $283 reversed $113 $-1 #
coedge $-1 $289 $398 $183 $281 reversed $181 $-1 #
edge $-1 $296 -14.8368792939521 $400 14.8368792939521 $280 $401 forward 7 unknown #
coedge $-1 $185 $184 $398 $402 forward $73 $-1 #
edge $-1 $287 -65.992004150517289 $400 65.992004150517289 $279 $403 forward 7 unknown #
coedge $-1 $292 $291 $185 $285 reversed $276 $-1 #
edge $-1 $404 -65.992004150517289 $286 65.992004150517289 $284 $405 forward 7 unknown #
vertex $-1 $187 $406 #
vertex $-1 $298 $407 #
straight-curve $-1 65.992004150517289 0 -14.8368792939521 0 -1 0 I I #
coedge $-1 $278 $280 $188 $290 reversed $181 $-1 #
edge $-1 $293 -38.959188362964767 $296 38.959188362964767 $289 $408 forward 7 unknown #
coedge $-1 $284 $189 $194 $299 forward $276 $-1 #
coedge $-1 $189 $284 $278 $399 reversed $276 $-1 #
vertex $-1 $190 $409 #
straight-curve $-1 0 38.959188362964767 14.8368792939521 -1 0 0 I I #
coedge $-1 $191 $279 $193 $298 reversed $113 $-1 #
vertex $-1 $290 $410 #
straight-curve $-1 0 -38.959188362964767 14.8368792939521 1 0 0 I I #
edge $-1 $196 -14.8368792939521 $287 14.8368792939521 $193 $411 forward 7 unknown #
edge $-1 $197 -14.8368792939521 $286 14.8368792939521 $194 $412 forward 7 unknown #
point $-1 65.992004150517289 -38.959188362964767 14.8368792939521 #
point $-1 65.992004150517289 38.959188362964767 14.8368792939521 #
face $-1 $-1 $316 $28 $-1 $413 reversed single #
loop $-1 $-1 $312 $199 #
plane-surface $-1 0 0 14.8368792939521 0 0 1 1 0 0 forward_v I I I I #
coedge $-1 $414 $415 $306 $416 forward $200 $-1 #
coedge $-1 $203 $202 $305 $416 reversed $77 $-1 #
edge $-1 $417 -6.4586950071287959 $211 6.4586950071287959 $202 $418 forward 7 unknown #
coedge $-1 $419 $312 $203 $309 forward $303 $-1 #
edge $-1 $310 65.992004150517289 $420 78.909394164774881 $203 $421 forward 7 unknown #
vertex $-1 $309 $422 #
straight-curve $-1 -65.992004150517289 38.959188362964767 0 0 0 -1 I I #
coedge $-1 $308 $423 $205 $313 forward $303 $-1 #
edge $-1 $317 -38.959188362964767 $310 38.959188362964767 $312 $424 forward 7 unknown #
coedge $-1 $425 $206 $423 $426 reversed $316 $-1 #
coedge $-1 $206 $425 $208 $320 reversed $316 $-1 #
loop $-1 $-1 $206 $302 #
vertex $-1 $207 $427 #
straight-curve $-1 -65.992004150517289 -38.959188362964767 0 0 0 1 I I #
coedge $-1 $209 $208 $414 $428 forward $121 $-1 #
edge $-1 $210 -6.4586950071287959 $429 6.4586950071287959 $315 $430 forward 7 unknown #
point $-1 -65.992004150517289 -38.959188362964767 5.9901743691992291 #
point $-1 -65.992004150517289 38.959188362964767 5.9901743691992291 #
face $-1 $-1 $431 $29 $-1 $432 reversed single #
loop $-1 $-1 $329 $213 #
plane-surface $-1 0 0 -14.8368792939521 0 0 1 1 0 0 forward_v I I I I #
coedge $-1 $223 $433 $218 $331 forward $214 $-1 #
coedge $-1 $434 $216 $433 $435 reversed $129 $-1 #
coedge $-1 $216 $434 $436 $437 reversed $129 $-1 #
coedge $-1 $436 $221 $217 $330 forward $324 $-1 #
edge $-1 $226 25.43926615891538 $332 35.514914047373068 $329 $438 forward 7 unknown #
edge $-1 $333 -35.514914047373068 $225 -25.43926615891538 $326 $439 forward 7 unknown #
vertex $-1 $437 $440 #
vertex $-1 $219 $441 #
straight-curve $-1 65.992004150517289 -30.242889677313986 0 0 0 1 I I #
coedge $-1 $442 $443 $220 $336 forward $431 $-1 #
edge $-1 $341 -14.8368792939521 $338 14.8368792939521 $335 $444 forward 7 unknown #
coedge $-1 $221 $436 $442 $445 forward $324 $-1 #
vertex $-1 $336 $446 #
straight-curve $-1 55.916356262059601 -17.300519510069687 -14.8368792939521 0 1 0 I I #
coedge $-1 $433 $223 $443 $447 forward $214 $-1 #
vertex $-1 $447 $448 #
straight-curve $-1 55.916356262059601 -17.300519510069687 14.8368792939521 0 -1 0 I I #
point $-1 55.916356262059601 -30.242889677313986 14.8368792939521 #
point $-1 55.916356262059601 -30.242889677313986 -14.8368792939521 #
plane-surface $-1 0 0 14.8368792939521 0 0 1 1 0 0 forward_v I I I I #
coedge $-1 $356 $355 $348 $449 forward $229 $-1 #
coedge $-1 $348 $231 $233 $352 reversed $137 $-1 #
coedge $-1 $231 $347 $346 $449 reversed $137 $-1 #
coedge $-1 $239 $234 $231 $350 forward $240 $-1 #
edge $-1 $353 -23.235684631621162 $450 -14.647263672730716 $349 $451 forward 7 unknown #
coedge $-1 $233 $232 $356 $452 reversed $85 $-1 #
edge $-1 $453 -77.918376725929562 $353 -62.149361651540538 $347 $454 forward 7 unknown #
vertex $-1 $235 $455 #
straight-curve $-1 -5.5692729238888639 30.370767404074321 14.836879293952101 1 0 0 I I #
coedge $-1 $346 $236 $239 $360 reversed $229 $-1 #
coedge $-1 $236 $346 $351 $452 forward $229 $-1 #
vertex $-1 $237 $456 #
straight-curve $-1 -22.916269702109489 38.959188362964767 69.421680758435244 0 0 1 I I #
straight-curve $-1 -22.916269702109489 -3.4782001865939094 66.959720225158733 0 0.54463902268945019 -0.83867057594974714 I I #
edge $-1 $450 -0.63917800655403312 $241 22.916269702109489 $355 $457 forward 7 unknown #
point $-1 -22.916269702109489 38.959188362964767 14.8368792939521 #
point $-1 -22.916269702109489 30.370767404074321 14.836879293952101 #
edge $-1 $458 1 $458 0 $244 $-1 forward 7 unknown #
vertex $-1 $245 $459 #
ellipse-curve $-1 -16.186141785348482 30.08378433366471 5.2493130351918751 0 0.83867057594974714 0.54463902268945019 2 0 0 1 I I #
point $-1 -14.186141785348482 34.664977883519541 8.2243748166530803 #
edge $-1 $460 1 $460 0 $248 $-1 forward 7 unknown #
vertex $-1 $249 $461 #
ellipse-curve $-1 -6.0909499102069731 30.08378433366471 5.2493130351918751 0 0.83867057594974714 0.54463902268945019 2 0 0 1 I I #
point $-1 -4.0909499102069731 34.664977883519541 8.2243748166530803 #
loop $-1 $-1 $380 $252 #
plane-surface $-1 0 -38.959188362964767 0 0 1 0 0 0 1 forward_v I I I I #
coedge $-1 $255 $258 $462 $463 forward $159 $-1 #
coedge $-1 $382 $261 $255 $375 reversed $253 $-1 #
edge $-1 $464 -21.658668852895079 $264 -6.631631251158872 $255 $465 forward 7 unknown #
coedge $-1 $380 $462 $257 $377 forward $371 $-1 #
edge $-1 $378 45.394379959062533 $385 54.070244318527102 $376 $466 forward 7 unknown #
vertex $-1 $463 $467 #
straight-curve $-1 34.938080826250413 -52.475596698804068 14.836879293952101 0 -1 0 I I #
coedge $-1 $468 $376 $260 $381 forward $371 $-1 #
edge $-1 $385 12.224471554172908 $383 33.202746989982096 $380 $469 forward 7 unknown #
coedge $-1 $261 $374 $468 $470 reversed $253 $-1 #
vertex $-1 $470 $471 #
straight-curve $-1 55.916356262059601 -38.658781247506589 6.3344550665620005 0 0.8660253999169214 0.50000000669873634 I I #
vertex $-1 $381 $472 #
straight-curve $-1 34.938080826250413 -38.959188362964781 6.1610149344875254 0 0.8660253999169214 0.50000000669873634 I I #
point $-1 55.916356262059608 -23.932150761228559 14.8368792939521 #
point $-1 34.938080826250413 -23.932150761228559 14.8368792939521 #
edge $-1 $473 1 $473 0 $267 $-1 forward 7 unknown #
vertex $-1 $268 $474 #
ellipse-curve $-1 40.931873807910179 -28.874981030082154 6.0463840458734932 0 -0.50000000669873634 0.8660253999169214 2.5 0 0 1 I I #
point $-1 43.431873807910179 -31.445669562096661 10.498947114219817 #
edge $-1 $475 1 $475 0 $271 $-1 forward 7 unknown #
vertex $-1 $272 $476 #
ellipse-curve $-1 49.922563280399828 -28.874981030082154 6.0463840458734932 0 -0.50000000669873634 0.8660253999169214 2.5 0 0 1 I I #
point $-1 52.422563280399828 -31.445669562096661 10.498947114219817 #
plane-surface $-1 65.992004150517289 0 0 -1 0 0 0 0 1 forward_v I I I I #
coedge $-1 $280 $278 $282 $402 reversed $181 $-1 #
edge $-1 $293 -14.8368792939521 $404 14.8368792939521 $292 $477 forward 7 unknown #
vertex $-1 $402 $478 #
straight-curve $-1 -65.992004150517289 -38.959188362964767 0 0 0 -1 I I #
edge $-1 $400 -38.959188362964767 $404 38.959188362964767 $398 $479 forward 7 unknown #
straight-curve $-1 0 -38.959188362964767 -14.8368792939521 -1 0 0 I I #
vertex $-1 $285 $480 #
straight-curve $-1 0 38.959188362964767 -14.8368792939521 1 0 0 I I #
point $-1 65.992004150517289 38.959188362964767 -14.8368792939521 #
point $-1 65.992004150517289 -38.959188362964767 -14.8368792939521 #
straight-curve $-1 -65.992004150517289 0 14.8368792939521 0 -1 0 I I #
point $-1 -65.992004150517289 38.959188362964767 14.8368792939521 #
point $-1 -65.992004150517289 -38.959188362964767 14.8368792939521 #
straight-curve $-1 65.992004150517289 -38.959188362964767 0 0 0 -1 I I #
straight-curve $-1 65.992004150517289 38.959188362964767 0 0 0 -1 I I #
plane-surface $-1 0 -38.959188362964767 0 0 1 0 0 0 1 forward_v I I I I #
coedge $-1 $481 $305 $319 $428 reversed $200 $-1 #
coedge $-1 $305 $481 $419 $482 reversed $200 $-1 #
edge $-1 $420 -4.4233524623764353 $417 4.4233524623764353 $306 $483 forward 7 unknown #
vertex $-1 $307 $484 #
straight-curve $-1 -72.450699157646085 38.959188362964767 5.9901743691992291 1 0 0 I I #
coedge $-1 $423 $308 $415 $482 forward $303 $-1 #
vertex $-1 $309 $485 #
straight-curve $-1 0 38.959188362964767 14.8368792939521 -1 0 0 I I #
point $-1 -65.992004150517289 38.959188362964767 14.8368792939521 #
coedge $-1 $312 $419 $314 $426 forward $303 $-1 #
straight-curve $-1 -65.992004150517289 0 14.8368792939521 0 1 0 I I #
coedge $-1 $315 $314 $481 $486 forward $316 $-1 #
edge $-1 $487 -78.909394164774881 $317 -65.992004150517289 $314 $488 forward 7 unknown #
point $-1 -65.992004150517289 -38.959188362964767 14.8368792939521 #
edge $-1 $429 -38.959188362964767 $417 38.959188362964767 $414 $489 forward 7 unknown #
vertex $-1 $428 $490 #
straight-curve $-1 -72.450699157646085 -38.959188362964767 5.9901743691992291 -1 0 0 I I #
loop $-1 $-1 $335 $323 #
plane-surface $-1 0 -38.959188362964767 0 0 1 0 0 0 1 forward_v I I I I #
coedge $-1 $326 $340 $327 $435 forward $214 $-1 #
coedge $-1 $328 $327 $491 $492 forward $129 $-1 #
edge $-1 $493 -38.959188362964767 $333 -30.242889677313986 $327 $494 forward 7 unknown #
coedge $-1 $337 $329 $328 $437 forward $324 $-1 #
edge $-1 $332 30.242889677313986 $495 38.959188362964767 $328 $496 forward 7 unknown #
straight-curve $-1 30.477090103144221 -30.242889677313986 -14.8368792939521 1 0 0 I I #
straight-curve $-1 30.477090103144221 -30.242889677313986 14.8368792939521 -1 0 0 I I #
point $-1 65.992004150517289 -30.242889677313986 -14.8368792939521 #
point $-1 65.992004150517289 -30.242889677313986 14.8368792939521 #
coedge $-1 $491 $335 $337 $445 reversed $431 $-1 #
coedge $-1 $335 $491 $340 $447 reversed $431 $-1 #
straight-curve $-1 55.916356262059601 -38.959188362964767 0 0 0 -1 I I #
edge $-1 $495 -65.992004150517289 $338 -55.916356262059601 $442 $497 forward 7 unknown #
point $-1 55.916356262059601 -38.959188362964767 -14.8368792939521 #
edge $-1 $341 55.916356262059601 $493 65.992004150517289 $443 $498 forward 7 unknown #
point $-1 55.916356262059601 -38.959188362964767 14.8368792939521 #
edge $-1 $450 54.584801464483142 $453 67.809810419081231 $346 $499 forward 7 unknown #
vertex $-1 $360 $500 #
straight-curve $-1 0.63917800655403312 53.606452035695483 14.836879293952101 0 1 0 I I #
edge $-1 $453 -6.208450930442897 $357 17.346996778220625 $356 $501 forward 7 unknown #
vertex $-1 $452 $502 #
straight-curve $-1 0.63917800655403312 -3.4782001865939094 66.959720225158733 0 -0.54463902268945019 0.83867057594974714 I I #
point $-1 0.63917800655403312 30.370767404074321 14.836879293952101 #
point $-1 -22.916269702109489 38.959188362964767 1.611870339354013 #
straight-curve $-1 0 38.959188362964767 14.8368792939521 -1 0 0 I I #
vertex $-1 $363 $503 #
point $-1 -14.186141785348482 30.08378433366471 5.2493130351918751 #
vertex $-1 $367 $504 #
point $-1 -4.0909499102069731 30.08378433366471 5.2493130351918751 #
coedge $-1 $376 $468 $373 $463 reversed $371 $-1 #
edge $-1 $378 34.938080826250413 $464 55.916356262059601 $462 $505 forward 7 unknown #
vertex $-1 $470 $506 #
straight-curve $-1 55.916356262059601 -17.300519510069687 14.8368792939521 0 1 0 I I #
straight-curve $-1 34.938080826250413 -38.959188362964767 60.231259253014635 0 0 -1 I I #
point $-1 34.938080826250413 -38.959188362964767 14.8368792939521 #
coedge $-1 $462 $380 $382 $470 forward $371 $-1 #
straight-curve $-1 22.713609272077505 -38.959188362964767 6.1610149344875342 1 0 0 I I #
edge $-1 $383 6.1610149344875333 $464 14.8368792939521 $468 $507 forward 7 unknown #
point $-1 55.916356262059601 -38.959188362964767 6.1610149344875333 #
point $-1 34.938080826250413 -38.959188362964767 6.1610149344875333 #
vertex $-1 $389 $508 #
point $-1 43.431873807910179 -28.874981030082154 6.0463840458734932 #
vertex $-1 $393 $509 #
point $-1 52.422563280399828 -28.874981030082154 6.0463840458734932 #
straight-curve $-1 -65.992004150517289 38.959188362964767 0 0 0 -1 I I #
point $-1 -65.992004150517289 -38.959188362964767 -14.8368792939521 #
straight-curve $-1 -65.992004150517289 0 -14.8368792939521 0 1 0 I I #
point $-1 -65.992004150517289 38.959188362964767 -14.8368792939521 #
coedge $-1 $415 $414 $425 $486 reversed $200 $-1 #
edge $-1 $420 -38.959188362964767 $487 38.959188362964767 $415 $510 forward 7 unknown #
straight-curve $-1 -78.909394164774881 38.959188362964767 10.413526831575664 0 0 -1 I I #
point $-1 -78.909394164774881 38.959188362964767 5.9901743691992291 #
point $-1 -78.909394164774881 38.959188362964767 14.8368792939521 #
edge $-1 $487 -4.4233524623764353 $429 4.4233524623764353 $481 $511 forward 7 unknown #
vertex $-1 $482 $512 #
straight-curve $-1 0 -38.959188362964767 14.8368792939521 1 0 0 I I #
straight-curve $-1 -78.909394164774881 0 5.9901743691992291 0 1 0 I I #
point $-1 -78.909394164774881 -38.959188362964767 5.9901743691992291 #
coedge $-1 $443 $442 $434 $492 reversed $431 $-1 #
edge $-1 $493 -14.8368792939521 $495 14.8368792939521 $434 $513 forward 7 unknown #
vertex $-1 $435 $514 #
straight-curve $-1 65.992004150517289 0 14.8368792939521 0 1 0 I I #
vertex $-1 $492 $515 #
straight-curve $-1 65.992004150517289 0 -14.8368792939521 0 -1 0 I I #
straight-curve $-1 0 -38.959188362964767 -14.8368792939521 -1 0 0 I I #
straight-curve $-1 0 -38.959188362964767 14.8368792939521 1 0 0 I I #
straight-curve $-1 0.63917800655403312 38.959188362964767 69.421680758435244 0 0 -1 I I #
point $-1 0.63917800655403312 38.959188362964767 14.8368792939521 #
straight-curve $-1 -5.5692729238888639 38.959188362964767 1.6118703393540201 -1 0 0 I I #
point $-1 0.63917800655403312 38.959188362964767 1.611870339354013 #
point $-1 -16.186141785348482 28.406443181765212 4.1600349898129743 #
point $-1 -6.0909499102069731 28.406443181765212 4.1600349898129743 #
straight-curve $-1 0 -38.959188362964767 14.8368792939521 1 0 0 I I #
point $-1 55.916356262059601 -38.959188362964767 14.8368792939521 #
straight-curve $-1 55.916356262059601 -38.959188362964767 0 0 0 1 I I #
point $-1 40.931873807910179 -27.624981013335315 3.8813205460811897 #
point $-1 49.922563280399828 -27.624981013335315 3.8813205460811897 #
straight-curve $-1 -78.909394164774881 0 14.8368792939521 0 -1 0 I I #
straight-curve $-1 -78.909394164774881 -38.959188362964767 10.413526831575664 0 0 -1 I I #
point $-1 -78.909394164774881 -38.959188362964767 14.8368792939521 #
straight-curve $-1 65.992004150517289 -38.959188362964767 0 0 0 -1 I I #
point $-1 65.992004150517289 -38.959188362964767 14.8368792939521 #
point $-1 65.992004150517289 -38.959188362964767 -14.8368792939521 #
End-of-ACIS-data 