500 0 10 0           
7 Unknown 11 ACIS 5.0 NT 24 Thu Mar 25 18:11:55 1999 
-1 9.9999999999999995e-007 1e-010 
body $-1 $10 $-1 $11 #
body $-1 $12 $-1 $13 #
body $-1 $14 $-1 $15 #
body $-1 $16 $-1 $17 #
body $-1 $18 $-1 $19 #
body $-1 $20 $-1 $21 #
body $-1 $22 $-1 $23 #
body $-1 $24 $-1 $25 #
body $-1 $26 $-1 $27 #
body $-1 $28 $-1 $29 #
lump $-1 $-1 $30 $0 #
transform $-1 1 0 0 0 1 0 0 0 1 42.41584521011994 24.186364886744741 5.6964583995167049 1 rotate no_reflect no_shear #
lump $-1 $-1 $31 $1 #
transform $-1 1 0 0 0 1 0 0 0 1 42.41584521011994 24.186364886744741 5.6964583995167049 1 rotate no_reflect no_shear #
lump $-1 $-1 $32 $2 #
transform $-1 1 0 0 0 1 0 0 0 1 42.41584521011994 24.186364886744741 5.6964583995167049 1 rotate no_reflect no_shear #
lump $-1 $-1 $33 $3 #
transform $-1 1 0 0 0 1 0 0 0 1 42.41584521011994 24.186364886744741 5.6964583995167049 1 rotate no_reflect no_shear #
lump $-1 $-1 $34 $4 #
transform $-1 1 0 0 0 1 0 0 0 1 42.41584521011994 24.186364886744741 5.6964583995167049 1 rotate no_reflect no_shear #
lump $-1 $-1 $35 $5 #
transform $-1 1 0 0 0 1 0 0 0 1 42.41584521011994 24.186364886744741 5.6964583995167049 1 rotate no_reflect no_shear #
lump $-1 $-1 $36 $6 #
transform $-1 1 0 0 0 1 0 0 0 1 42.41584521011994 24.186364886744741 5.6964583995167049 1 rotate no_reflect no_shear #
lump $-1 $-1 $37 $7 #
transform $-1 1 0 0 0 1 0 0 0 1 42.41584521011994 24.186364886744741 5.6964583995167049 1 rotate no_reflect no_shear #
lump $-1 $-1 $38 $8 #
transform $-1 1 0 0 0 1 0 0 0 1 42.41584521011994 24.186364886744741 5.6964583995167049 1 rotate no_reflect no_shear #
lump $-1 $-1 $39 $9 #
transform $-1 1 0 0 0 1 0 0 0 1 42.41584521011994 24.186364886744741 5.6964583995167049 1 rotate no_reflect no_shear #
shell $-1 $-1 $-1 $40 $-1 $10 #
shell $-1 $-1 $-1 $41 $-1 $12 #
shell $-1 $-1 $-1 $42 $-1 $14 #
shell $-1 $-1 $-1 $43 $-1 $16 #
shell $-1 $-1 $-1 $44 $-1 $18 #
shell $-1 $-1 $-1 $45 $-1 $20 #
shell $-1 $-1 $-1 $46 $-1 $22 #
shell $-1 $-1 $-1 $47 $-1 $24 #
shell $-1 $-1 $-1 $48 $-1 $26 #
shell $-1 $-1 $-1 $49 $-1 $28 #
face $-1 $50 $51 $30 $-1 $52 forward single #
face $-1 $53 $54 $31 $-1 $55 forward single #
face $-1 $56 $57 $32 $-1 $58 reversed single #
face $-1 $59 $60 $33 $-1 $61 forward single #
face $-1 $62 $63 $34 $-1 $64 forward single #
face $-1 $65 $66 $35 $-1 $67 reversed single #
face $-1 $68 $69 $36 $-1 $70 forward single #
face $-1 $71 $72 $37 $-1 $73 forward single #
face $-1 $74 $75 $38 $-1 $76 reversed single #
face $-1 $77 $78 $39 $-1 $79 forward single #
face $-1 $80 $81 $30 $-1 $82 reversed single #
loop $-1 $-1 $83 $40 #
plane-surface $-1 0 0 5.6964583995167049 0 0 1 1 0 0 forward_v I I I I #
face $-1 $84 $85 $31 $-1 $86 reversed single #
loop $-1 $-1 $87 $41 #
plane-surface $-1 -40.048027708283534 0 -2.6964583995167049 0 0 1 1 0 0 forward_v I I I I #
face $-1 $88 $89 $32 $-1 $90 reversed single #
loop $-1 $-1 $91 $42 #
plane-surface $-1 -26.176363332861911 -86.228336391299237 60.168544933886317 1 0 0 0 0.73135370988377701 -0.68199835119979291 forward_v I I I I #
face $-1 $92 $93 $33 $-1 $94 forward single #
loop $-1 $95 $96 $43 #
cone-surface $-1 -22.130442056371063 -21.929160095868653 3.3709837306968247 0 0.73135370988377701 -0.68199835119979291 0.5 0 0 1 I I 0 1 0.5 forward I I I I #
face $-1 $97 $98 $34 $-1 $99 forward single #
loop $-1 $100 $101 $44 #
cone-surface $-1 -16.061560141634793 -21.929160095868653 3.3709837306968247 0 0.73135370988377701 -0.68199835119979291 0.5 0 0 1 I I 0 1 0.5 forward I I I I #
face $-1 $102 $103 $35 $-1 $104 reversed single #
loop $-1 $-1 $105 $45 #
plane-surface $-1 13.871664375421624 -86.228336391299237 60.168544933886317 1 0 0 0 0.73135370988377701 -0.68199835119979291 forward_v I I I I #
face $-1 $106 $107 $36 $-1 $108 forward single #
loop $-1 $109 $110 $46 #
cone-surface $-1 17.917585651912475 -21.929160095868653 3.3709837306968247 0 0.73135370988377701 -0.68199835119979291 0.5 0 0 1 I I 0 1 0.5 forward I I I I #
face $-1 $111 $112 $37 $-1 $113 forward single #
loop $-1 $114 $115 $47 #
cone-surface $-1 23.986467566648741 -21.929160095868653 3.3709837306968247 0 0.73135370988377701 -0.68199835119979291 0.5 0 0 1 I I 0 1 0.5 forward I I I I #
face $-1 $116 $117 $38 $-1 $118 reversed single #
loop $-1 $-1 $119 $48 #
plane-surface $-1 23.819475559188838 65.930960806843913 89.154784077052767 1 0 0 0 -0.81915205242281985 -0.57357642473473569 forward_v I I I I #
face $-1 $120 $121 $39 $-1 $122 forward single #
loop $-1 $123 $124 $49 #
cone-surface $-1 28.072630612201195 21.521478212114197 2.6011285416600889 0 -0.81915205242281985 -0.57357642473473569 1 0 0 1 I I 0 1 1 forward I I I I #
face $-1 $125 $126 $30 $-1 $127 reversed single #
loop $-1 $-1 $128 $50 #
plane-surface $-1 0 0 -5.6964583995167049 0 0 1 1 0 0 forward_v I I I I #
coedge $-1 $129 $130 $131 $132 forward $51 $-1 #
face $-1 $133 $134 $31 $-1 $135 reversed single #
loop $-1 $-1 $136 $53 #
plane-surface $-1 -37.680210206447128 0 -4.1964583995167049 -1 0 0 0 0 1 forward_v I I I I #
coedge $-1 $137 $138 $139 $140 forward $54 $-1 #
face $-1 $141 $142 $32 $-1 $143 reversed single #
loop $-1 $-1 $144 $56 #
plane-surface $-1 -19.096001099002926 -24.186364886744734 2.3134719377914479 0 -0.73135370988377701 0.68199835119979291 1 0 0 forward_v I I I I #
coedge $-1 $145 $146 $147 $148 reversed $57 $-1 #
face $-1 $-1 $149 $33 $-1 $150 forward single #
loop $-1 $151 $152 $59 #
cone-surface $-1 -22.130442056371063 -21.066459795078217 2.5665027049396114 0 0.73135370988377701 -0.68199835119979291 0.25 0 0 1 I I -0.70710678118654746 0.70710678118654746 0.25 forward I I I I #
loop $-1 $-1 $153 $43 #
coedge $-1 $96 $96 $154 $155 reversed $60 $-1 #
face $-1 $-1 $156 $34 $-1 $157 forward single #
loop $-1 $158 $159 $62 #
cone-surface $-1 -16.061560141634793 -21.066459795078217 2.5665027049396114 0 0.73135370988377701 -0.68199835119979291 0.25 0 0 1 I I -0.70710678118654746 0.70710678118654746 0.25 forward I I I I #
loop $-1 $-1 $160 $44 #
coedge $-1 $101 $101 $161 $162 reversed $63 $-1 #
face $-1 $163 $164 $35 $-1 $165 reversed single #
loop $-1 $-1 $166 $65 #
plane-surface $-1 20.952026609280608 -24.186364886744734 2.3134719377914479 0 -0.73135370988377701 0.68199835119979291 1 0 0 forward_v I I I I #
coedge $-1 $167 $168 $169 $170 reversed $66 $-1 #
face $-1 $-1 $171 $36 $-1 $172 forward single #
loop $-1 $173 $174 $68 #
cone-surface $-1 17.917585651912475 -21.066459795078217 2.5665027049396114 0 0.73135370988377701 -0.68199835119979291 0.25 0 0 1 I I -0.70710678118654746 0.70710678118654746 0.25 forward I I I I #
loop $-1 $-1 $175 $46 #
coedge $-1 $110 $110 $176 $177 reversed $69 $-1 #
face $-1 $-1 $178 $37 $-1 $179 forward single #
loop $-1 $180 $181 $71 #
cone-surface $-1 23.986467566648741 -21.066459795078217 2.5665027049396114 0 0.73135370988377701 -0.68199835119979291 0.25 0 0 1 I I -0.70710678118654746 0.70710678118654746 0.25 forward I I I I #
loop $-1 $-1 $182 $47 #
coedge $-1 $115 $115 $183 $184 reversed $72 $-1 #
face $-1 $185 $186 $38 $-1 $187 reversed single #
loop $-1 $-1 $188 $74 #
plane-surface $-1 28.072630612201195 -3.5590925113928478 40.49732638160765 0 0.81915205242281985 0.57357642473473569 1 0 0 forward_v I I I I #
coedge $-1 $189 $190 $191 $192 reversed $75 $-1 #
face $-1 $-1 $193 $39 $-1 $194 forward single #
loop $-1 $195 $196 $77 #
cone-surface $-1 28.072630612201195 20.135829529425337 1.6308869180148191 0 -0.81915205242281985 -0.57357642473473569 0.5 0 0 1 I I -0.70710678118654746 0.70710678118654746 0.5 forward I I I I #
loop $-1 $-1 $197 $49 #
coedge $-1 $124 $124 $198 $199 reversed $78 $-1 #
face $-1 $200 $201 $30 $-1 $202 reversed single #
loop $-1 $-1 $203 $80 #
plane-surface $-1 0 -24.186364886744741 0 0 1 0 0 0 1 forward_v I I I I #
coedge $-1 $204 $205 $206 $207 forward $81 $-1 #
coedge $-1 $208 $83 $209 $210 forward $51 $-1 #
coedge $-1 $83 $208 $211 $212 forward $51 $-1 #
coedge $-1 $213 $214 $83 $132 reversed $215 $-1 #
edge $-1 $216 -24.186364886744741 $217 24.186364886744741 $131 $218 forward 7 unknown #
face $-1 $219 $220 $31 $-1 $221 reversed single #
loop $-1 $-1 $222 $84 #
plane-surface $-1 0 0 -5.6964583995167049 0 0 1 1 0 0 forward_v I I I I #
coedge $-1 $223 $139 $224 $225 reversed $85 $-1 #
coedge $-1 $226 $87 $227 $228 reversed $54 $-1 #
coedge $-1 $87 $226 $229 $230 reversed $54 $-1 #
coedge $-1 $136 $231 $87 $140 reversed $85 $-1 #
edge $-1 $232 -24.186364886744741 $233 24.186364886744741 $139 $234 forward 7 unknown #
face $-1 $235 $236 $32 $-1 $237 forward single #
loop $-1 $-1 $238 $88 #
plane-surface $-1 -12.015638865143941 -86.228336391299237 60.168544933886317 -1 0 0 0 -0.73135370988377701 0.68199835119979291 forward_v I I I I #
coedge $-1 $239 $240 $241 $242 reversed $89 $-1 #
coedge $-1 $146 $91 $243 $244 reversed $57 $-1 #
coedge $-1 $91 $145 $239 $245 reversed $57 $-1 #
coedge $-1 $241 $246 $91 $148 forward $247 $-1 #
edge $-1 $248 24.387814067426454 $249 27.770800529151717 $147 $250 forward 7 unknown #
loop $-1 $-1 $154 $92 #
plane-surface $-1 -19.096001099002926 -24.186364886744734 2.3134719377914479 0 -0.73135370988377701 0.68199835119979291 1 0 0 forward_v I I I I #
loop $-1 $-1 $251 $59 #
coedge $-1 $152 $152 $153 $252 reversed $93 $-1 #
coedge $-1 $153 $153 $152 $252 forward $95 $-1 #
coedge $-1 $154 $154 $96 $155 forward $149 $-1 #
edge $-1 $253 -3.4431260791042196e-015 $253 6.2831853071795969 $154 $254 forward 7 unknown #
loop $-1 $-1 $161 $97 #
plane-surface $-1 -19.096001099002926 -24.186364886744734 2.3134719377914479 0 -0.73135370988377701 0.68199835119979291 1 0 0 forward_v I I I I #
loop $-1 $-1 $255 $62 #
coedge $-1 $159 $159 $160 $256 reversed $98 $-1 #
coedge $-1 $160 $160 $159 $256 forward $100 $-1 #
coedge $-1 $161 $161 $101 $162 forward $156 $-1 #
edge $-1 $257 -3.4431260791042196e-015 $257 6.2831853071795969 $161 $258 forward 7 unknown #
face $-1 $259 $260 $35 $-1 $261 reversed single #
loop $-1 $-1 $262 $102 #
plane-surface $-1 28.032388843139593 -86.228336391299237 60.168544933886317 -1 0 0 0 -0.73135370988377701 0.68199835119979291 forward_v I I I I #
coedge $-1 $263 $264 $265 $266 reversed $103 $-1 #
coedge $-1 $168 $105 $267 $268 reversed $66 $-1 #
coedge $-1 $105 $167 $263 $269 reversed $66 $-1 #
coedge $-1 $265 $270 $105 $170 forward $260 $-1 #
edge $-1 $271 24.387814067426454 $272 27.770800529151717 $169 $273 forward 7 unknown #
loop $-1 $-1 $176 $106 #
plane-surface $-1 20.952026609280608 -24.186364886744734 2.3134719377914479 0 -0.73135370988377701 0.68199835119979291 1 0 0 forward_v I I I I #
loop $-1 $-1 $274 $68 #
coedge $-1 $174 $174 $175 $275 reversed $107 $-1 #
coedge $-1 $175 $175 $174 $275 forward $109 $-1 #
coedge $-1 $176 $176 $110 $177 forward $171 $-1 #
edge $-1 $276 -3.4431260791042196e-015 $276 6.2831853071795969 $176 $277 forward 7 unknown #
loop $-1 $-1 $183 $111 #
plane-surface $-1 20.952026609280608 -24.186364886744734 2.3134719377914479 0 -0.73135370988377701 0.68199835119979291 1 0 0 forward_v I I I I #
loop $-1 $-1 $278 $71 #
coedge $-1 $181 $181 $182 $279 reversed $112 $-1 #
coedge $-1 $182 $182 $181 $279 forward $114 $-1 #
coedge $-1 $183 $183 $115 $184 forward $178 $-1 #
edge $-1 $280 -3.4431260791042196e-015 $280 6.2831853071795969 $183 $281 forward 7 unknown #
face $-1 $282 $283 $38 $-1 $284 reversed single #
loop $-1 $-1 $285 $116 #
plane-surface $-1 32.325785665213552 65.930960806843913 89.154784077052767 -1 0 0 0 0.81915205242281985 0.57357642473473569 forward_v I I I I #
coedge $-1 $286 $287 $288 $289 reversed $117 $-1 #
coedge $-1 $190 $119 $290 $291 reversed $75 $-1 #
coedge $-1 $119 $189 $286 $292 reversed $75 $-1 #
coedge $-1 $288 $293 $119 $192 forward $294 $-1 #
edge $-1 $295 8.7791155166772157 $296 12.156743552983386 $191 $297 forward 7 unknown #
loop $-1 $-1 $198 $120 #
plane-surface $-1 28.072630612201195 -3.5590925113928478 40.49732638160765 0 0.81915205242281985 0.57357642473473569 1 0 0 forward_v I I I I #
loop $-1 $-1 $298 $77 #
coedge $-1 $196 $196 $197 $299 reversed $121 $-1 #
coedge $-1 $197 $197 $196 $299 forward $123 $-1 #
coedge $-1 $198 $198 $124 $199 forward $193 $-1 #
edge $-1 $300 -1.0943493572752287e-015 $300 6.2831853071795996 $198 $301 forward 7 unknown #
face $-1 $302 $303 $30 $-1 $304 reversed single #
loop $-1 $-1 $305 $125 #
plane-surface $-1 -42.41584521011994 0 0 1 0 0 0 0 -1 forward_v I I I I #
coedge $-1 $306 $211 $307 $308 forward $126 $-1 #
coedge $-1 $309 $128 $306 $310 forward $81 $-1 #
coedge $-1 $128 $309 $311 $312 forward $81 $-1 #
coedge $-1 $214 $213 $128 $207 reversed $215 $-1 #
edge $-1 $313 -24.186364886744741 $314 24.186364886744741 $206 $315 forward 7 unknown #
coedge $-1 $130 $129 $316 $317 forward $51 $-1 #
coedge $-1 $318 $319 $129 $210 reversed $303 $-1 #
edge $-1 $217 -42.41584521011994 $320 42.41584521011994 $209 $321 forward 7 unknown #
coedge $-1 $203 $322 $130 $212 reversed $126 $-1 #
edge $-1 $323 -42.41584521011994 $216 42.41584521011994 $211 $324 forward 7 unknown #
coedge $-1 $206 $131 $322 $325 forward $215 $-1 #
coedge $-1 $131 $206 $318 $326 reversed $215 $-1 #
loop $-1 $-1 $213 $302 #
vertex $-1 $132 $327 #
vertex $-1 $132 $328 #
straight-curve $-1 42.41584521011994 0 5.6964583995167049 0 1 0 I I #
face $-1 $329 $330 $31 $-1 $331 reversed single #
loop $-1 $-1 $224 $133 #
plane-surface $-1 0 -24.186364886744741 0 0 1 0 0 0 1 forward_v I I I I #
coedge $-1 $332 $333 $223 $334 forward $134 $-1 #
coedge $-1 $231 $136 $222 $334 reversed $85 $-1 #
coedge $-1 $229 $335 $136 $225 forward $220 $-1 #
edge $-1 $336 -3.5982291997583524 $232 -0.59822919975835243 $224 $337 forward 7 unknown #
coedge $-1 $138 $137 $338 $339 reversed $54 $-1 #
coedge $-1 $340 $341 $137 $228 forward $342 $-1 #
edge $-1 $343 -22.391831355978173 $233 -17.656196352305361 $227 $344 forward 7 unknown #
coedge $-1 $345 $224 $138 $230 forward $220 $-1 #
edge $-1 $232 17.656196352305361 $346 22.391831355978173 $229 $347 forward 7 unknown #
coedge $-1 $139 $223 $340 $348 reversed $85 $-1 #
vertex $-1 $230 $349 #
vertex $-1 $228 $350 #
straight-curve $-1 -37.680210206447128 0 -2.6964583995167049 0 1 0 I I #
face $-1 $-1 $247 $32 $-1 $351 reversed single #
loop $-1 $-1 $352 $141 #
plane-surface $-1 0 0 5.6964583995167049 0 0 1 1 0 0 forward_v I I I I #
coedge $-1 $353 $354 $355 $356 reversed $142 $-1 #
coedge $-1 $357 $144 $146 $245 forward $89 $-1 #
coedge $-1 $144 $357 $353 $358 forward $89 $-1 #
coedge $-1 $355 $147 $144 $242 forward $247 $-1 #
edge $-1 $249 -16.628362783360448 $359 -2.4676383156424784 $241 $360 forward 7 unknown #
coedge $-1 $361 $362 $145 $244 forward $236 $-1 #
edge $-1 $363 -22.082489144018094 $248 -18.927803308904878 $243 $364 forward 7 unknown #
edge $-1 $249 -1.0367256691888158e-014 $363 4.6256502373699107 $146 $365 forward 7 unknown #
coedge $-1 $147 $355 $361 $366 reversed $247 $-1 #
loop $-1 $-1 $355 $235 #
vertex $-1 $366 $367 #
vertex $-1 $148 $368 #
straight-curve $-1 -26.176363332861911 -24.186364886744741 30.084272466943158 0 0 -1 I I #
coedge $-1 $251 $251 $-1 $369 reversed $151 $-1 #
edge $-1 $370 0 $370 6.2831853071796004 $152 $371 forward 7 unknown #
vertex $-1 $155 $372 #
ellipse-curve $-1 -22.130442056371063 -22.609021969188131 4.004965168654075 0 -0.73135370988377701 0.68199835119979291 0.5 0 0 1 I I #
coedge $-1 $255 $255 $-1 $373 reversed $158 $-1 #
edge $-1 $374 0 $374 6.2831853071796004 $159 $375 forward 7 unknown #
vertex $-1 $162 $376 #
ellipse-curve $-1 -16.061560141634793 -22.609021969188131 4.004965168654075 0 -0.73135370988377701 0.68199835119979291 0.5 0 0 1 I I #
face $-1 $-1 $377 $35 $-1 $378 forward single #
loop $-1 $-1 $169 $163 #
plane-surface $-1 0 -24.186364886744741 0 0 1 0 0 0 1 forward_v I I I I #
coedge $-1 $379 $380 $381 $382 reversed $164 $-1 #
coedge $-1 $383 $166 $168 $269 forward $103 $-1 #
coedge $-1 $166 $383 $379 $384 forward $103 $-1 #
coedge $-1 $381 $169 $166 $266 forward $260 $-1 #
edge $-1 $272 3.3956510707813194 $385 17.556375538499289 $265 $386 forward 7 unknown #
coedge $-1 $387 $388 $167 $268 forward $377 $-1 #
edge $-1 $389 -22.082489144018094 $271 -18.927803308904878 $267 $390 forward 7 unknown #
edge $-1 $272 -1.0367256691888158e-014 $389 4.6256502373699107 $168 $391 forward 7 unknown #
coedge $-1 $169 $381 $387 $392 reversed $260 $-1 #
vertex $-1 $392 $393 #
vertex $-1 $170 $394 #
straight-curve $-1 13.871664375421624 -24.186364886744741 30.084272466943158 0 0 -1 I I #
coedge $-1 $274 $274 $-1 $395 reversed $173 $-1 #
edge $-1 $396 0 $396 6.2831853071796004 $174 $397 forward 7 unknown #
vertex $-1 $177 $398 #
ellipse-curve $-1 17.917585651912475 -22.609021969188131 4.004965168654075 0 -0.73135370988377701 0.68199835119979291 0.5 0 0 1 I I #
coedge $-1 $278 $278 $-1 $399 reversed $180 $-1 #
edge $-1 $400 0 $400 6.2831853071796004 $181 $401 forward 7 unknown #
vertex $-1 $184 $402 #
ellipse-curve $-1 23.986467566648741 -22.609021969188131 4.004965168654075 0 -0.73135370988377701 0.68199835119979291 0.5 0 0 1 I I #
face $-1 $-1 $294 $38 $-1 $403 forward single #
loop $-1 $-1 $404 $185 #
plane-surface $-1 0 24.186364886744741 0 0 -1 0 0 0 -1 forward_v I I I I #
coedge $-1 $405 $406 $407 $408 reversed $186 $-1 #
coedge $-1 $409 $188 $190 $292 forward $117 $-1 #
coedge $-1 $188 $409 $405 $410 forward $117 $-1 #
coedge $-1 $407 $191 $188 $289 forward $294 $-1 #
edge $-1 $296 9.7831602530882407 $411 18.289470359112954 $288 $412 forward 7 unknown #
coedge $-1 $413 $414 $189 $291 forward $283 $-1 #
edge $-1 $415 -43.704686532167074 $295 -38.880933639009676 $290 $416 forward 7 unknown #
edge $-1 $296 42.484014877530768 $415 48.372729773489468 $190 $417 forward 7 unknown #
coedge $-1 $191 $407 $413 $418 forward $294 $-1 #
loop $-1 $-1 $407 $282 #
vertex $-1 $291 $419 #
vertex $-1 $192 $420 #
straight-curve $-1 23.819475559188838 32.965480403421957 5.6964583995167075 0 -1 0 I I #
coedge $-1 $298 $298 $-1 $421 reversed $195 $-1 #
edge $-1 $422 0 $422 6.2831853071796004 $196 $423 forward 7 unknown #
vertex $-1 $199 $424 #
ellipse-curve $-1 28.072630612201195 22.497550868591663 3.284581952938002 0 0.81915205242281985 0.57357642473473569 1 0 0 1 I I #
face $-1 $-1 $215 $30 $-1 $425 reversed single #
loop $-1 $-1 $318 $200 #
plane-surface $-1 0 24.186364886744741 0 0 -1 0 0 0 -1 forward_v I I I I #
coedge $-1 $426 $316 $319 $427 forward $201 $-1 #
coedge $-1 $322 $203 $204 $310 reversed $126 $-1 #
coedge $-1 $316 $426 $203 $308 reversed $201 $-1 #
edge $-1 $323 -5.6964583995167049 $428 5.6964583995167049 $307 $429 forward 7 unknown #
coedge $-1 $205 $204 $426 $430 forward $81 $-1 #
edge $-1 $314 -42.41584521011994 $428 42.41584521011994 $306 $431 forward 7 unknown #
coedge $-1 $319 $318 $205 $312 reversed $303 $-1 #
edge $-1 $432 -42.41584521011994 $313 42.41584521011994 $311 $433 forward 7 unknown #
vertex $-1 $207 $434 #
vertex $-1 $325 $435 #
straight-curve $-1 42.41584521011994 0 -5.6964583995167049 0 -1 0 I I #
coedge $-1 $305 $307 $208 $317 reversed $201 $-1 #
edge $-1 $320 -24.186364886744741 $323 24.186364886744741 $316 $436 forward 7 unknown #
coedge $-1 $311 $209 $214 $326 forward $303 $-1 #
coedge $-1 $209 $311 $305 $427 reversed $303 $-1 #
vertex $-1 $210 $437 #
straight-curve $-1 0 24.186364886744741 5.6964583995167049 -1 0 0 I I #
coedge $-1 $211 $306 $213 $325 reversed $126 $-1 #
vertex $-1 $317 $438 #
straight-curve $-1 0 -24.186364886744741 5.6964583995167049 1 0 0 I I #
edge $-1 $216 -5.6964583995167049 $314 5.6964583995167049 $213 $439 forward 7 unknown #
edge $-1 $217 -5.6964583995167049 $313 5.6964583995167049 $214 $440 forward 7 unknown #
point $-1 42.41584521011994 -24.186364886744741 5.6964583995167049 #
point $-1 42.41584521011994 24.186364886744741 5.6964583995167049 #
face $-1 $-1 $342 $31 $-1 $441 reversed single #
loop $-1 $-1 $338 $219 #
plane-surface $-1 -42.41584521011994 0 0 1 0 0 0 0 -1 forward_v I I I I #
coedge $-1 $442 $222 $335 $443 forward $134 $-1 #
coedge $-1 $222 $442 $444 $445 forward $134 $-1 #
edge $-1 $446 -24.186364886744741 $336 24.186364886744741 $222 $447 forward 7 unknown #
coedge $-1 $224 $345 $332 $443 reversed $220 $-1 #
vertex $-1 $443 $448 #
straight-curve $-1 -37.680210206447128 -24.186364886744741 -2.0982291997583524 0 0 1 I I #
coedge $-1 $449 $450 $226 $339 forward $330 $-1 #
edge $-1 $346 -24.186364886744741 $343 24.186364886744741 $338 $451 forward 7 unknown #
coedge $-1 $444 $227 $231 $348 forward $342 $-1 #
coedge $-1 $227 $444 $449 $452 reversed $342 $-1 #
loop $-1 $-1 $340 $329 #
vertex $-1 $452 $453 #
straight-curve $-1 -20.024013854141767 24.186364886744741 -2.6964583995167049 1 0 0 I I #
coedge $-1 $335 $229 $450 $454 forward $220 $-1 #
vertex $-1 $454 $455 #
straight-curve $-1 -20.024013854141767 -24.186364886744741 -2.6964583995167049 -1 0 0 I I #
edge $-1 $233 0.59822919975835243 $446 3.5982291997583524 $340 $456 forward 7 unknown #
point $-1 -37.680210206447128 -24.186364886744741 -2.6964583995167049 #
point $-1 -37.680210206447128 24.186364886744741 -2.6964583995167049 #
plane-surface $-1 0 -24.186364886744741 0 0 1 0 0 0 1 forward_v I I I I #
coedge $-1 $362 $361 $354 $457 forward $236 $-1 #
coedge $-1 $354 $238 $240 $358 reversed $142 $-1 #
coedge $-1 $238 $353 $352 $457 reversed $142 $-1 #
coedge $-1 $246 $241 $238 $356 forward $247 $-1 #
edge $-1 $359 -27.770800529151717 $458 -24.387814067426454 $355 $459 forward 7 unknown #
coedge $-1 $240 $239 $362 $460 reversed $89 $-1 #
edge $-1 $461 -4.6256502373699107 $359 1.0367256691888158e-014 $353 $462 forward 7 unknown #
vertex $-1 $242 $463 #
straight-curve $-1 -9.548000549501463 -24.186364886744741 2.3134719377914408 1 0 0 I I #
coedge $-1 $352 $243 $246 $366 forward $236 $-1 #
coedge $-1 $243 $352 $357 $460 forward $236 $-1 #
vertex $-1 $244 $464 #
straight-curve $-1 -26.176363332861911 -43.114168195649619 5.696458399516704 0 -1 0 I I #
straight-curve $-1 -26.176363332861911 -24.186364886744734 2.3134719377914479 0 0.68199835119979291 0.73135370988377701 I I #
edge $-1 $248 -26.176363332861911 $458 -12.015638865143941 $246 $465 forward 7 unknown #
point $-1 -26.176363332861911 -24.186364886744741 5.6964583995167049 #
point $-1 -26.176363332861911 -24.186364886744741 2.3134719377914403 #
edge $-1 $466 1 $466 0 $251 $-1 forward 7 unknown #
vertex $-1 $252 $467 #
ellipse-curve $-1 -22.130442056371063 -21.249298222549161 2.7370022927395596 0 -0.73135370988377701 0.68199835119979291 0.5 0 0 1 I I #
point $-1 -21.630442056371063 -22.609021969188149 4.0049651686540892 #
edge $-1 $468 1 $468 0 $255 $-1 forward 7 unknown #
vertex $-1 $256 $469 #
ellipse-curve $-1 -16.061560141634793 -21.249298222549161 2.7370022927395596 0 -0.73135370988377701 0.68199835119979291 0.5 0 0 1 I I #
point $-1 -15.561560141634793 -22.609021969188149 4.0049651686540892 #
loop $-1 $-1 $267 $259 #
plane-surface $-1 0 0 5.6964583995167049 0 0 1 1 0 0 forward_v I I I I #
coedge $-1 $380 $262 $264 $384 reversed $164 $-1 #
coedge $-1 $262 $379 $470 $471 reversed $164 $-1 #
coedge $-1 $270 $265 $262 $382 forward $260 $-1 #
edge $-1 $385 -27.770800529151717 $472 -24.387814067426454 $381 $473 forward 7 unknown #
coedge $-1 $264 $263 $388 $474 reversed $103 $-1 #
edge $-1 $475 -4.6256502373699107 $385 1.0367256691888158e-014 $379 $476 forward 7 unknown #
vertex $-1 $266 $477 #
straight-curve $-1 10.476013304640304 -24.186364886744741 2.3134719377914408 1 0 0 I I #
coedge $-1 $470 $267 $270 $392 forward $377 $-1 #
coedge $-1 $267 $470 $383 $474 forward $377 $-1 #
vertex $-1 $268 $478 #
straight-curve $-1 13.871664375421624 -43.114168195649619 5.696458399516704 0 -1 0 I I #
straight-curve $-1 13.871664375421624 -24.186364886744734 2.3134719377914479 0 0.68199835119979291 0.73135370988377701 I I #
edge $-1 $271 13.871664375421624 $472 28.032388843139593 $270 $479 forward 7 unknown #
point $-1 13.871664375421624 -24.186364886744741 5.6964583995167049 #
point $-1 13.871664375421624 -24.186364886744741 2.3134719377914403 #
edge $-1 $480 1 $480 0 $274 $-1 forward 7 unknown #
vertex $-1 $275 $481 #
ellipse-curve $-1 17.917585651912475 -21.249298222549161 2.7370022927395596 0 -0.73135370988377701 0.68199835119979291 0.5 0 0 1 I I #
point $-1 18.417585651912475 -22.609021969188149 4.0049651686540892 #
edge $-1 $482 1 $482 0 $278 $-1 forward 7 unknown #
vertex $-1 $279 $483 #
ellipse-curve $-1 23.986467566648741 -21.249298222549161 2.7370022927395596 0 -0.73135370988377701 0.68199835119979291 0.5 0 0 1 I I #
point $-1 24.486467566648741 -22.609021969188149 4.0049651686540892 #
plane-surface $-1 0 0 5.6964583995167049 0 0 1 1 0 0 forward_v I I I I #
coedge $-1 $414 $413 $406 $484 forward $283 $-1 #
coedge $-1 $406 $285 $287 $410 reversed $186 $-1 #
coedge $-1 $285 $405 $404 $484 reversed $186 $-1 #
coedge $-1 $293 $288 $285 $408 forward $294 $-1 #
edge $-1 $411 -12.156743552983386 $485 -8.7791155166772157 $407 $486 forward 7 unknown #
coedge $-1 $287 $286 $414 $487 reversed $117 $-1 #
edge $-1 $488 -48.372729773489468 $411 -42.484014877530768 $405 $489 forward 7 unknown #
vertex $-1 $289 $490 #
straight-curve $-1 14.036315306100597 20.808736850438574 5.6964583995167004 1 0 0 I I #
coedge $-1 $404 $290 $293 $418 reversed $283 $-1 #
coedge $-1 $290 $404 $409 $487 forward $283 $-1 #
vertex $-1 $291 $491 #
straight-curve $-1 23.819475559188838 24.186364886744741 44.577392038526384 0 0 1 I I #
straight-curve $-1 23.819475559188838 -3.5590925113928478 40.49732638160765 0 0.57357642473473569 -0.81915205242281985 I I #
edge $-1 $485 -32.325785665213552 $295 -23.819475559188838 $413 $492 forward 7 unknown #
point $-1 23.819475559188838 24.186364886744741 5.6964583995167049 #
point $-1 23.819475559188838 20.808736850438571 5.6964583995167075 #
edge $-1 $493 1 $493 0 $298 $-1 forward 7 unknown #
vertex $-1 $299 $494 #
ellipse-curve $-1 28.072630612201195 20.545405555636748 1.9176751303821868 0 0.81915205242281985 0.57357642473473569 1 0 0 1 I I #
point $-1 29.072630612201195 22.497550868591645 3.2845819529379909 #
plane-surface $-1 42.41584521011994 0 0 -1 0 0 0 0 1 forward_v I I I I #
coedge $-1 $307 $305 $309 $430 reversed $201 $-1 #
edge $-1 $320 -5.6964583995167049 $432 5.6964583995167049 $319 $495 forward 7 unknown #
vertex $-1 $430 $496 #
straight-curve $-1 -42.41584521011994 -24.186364886744741 0 0 0 -1 I I #
edge $-1 $428 -24.186364886744741 $432 24.186364886744741 $426 $497 forward 7 unknown #
straight-curve $-1 0 -24.186364886744741 -5.6964583995167049 -1 0 0 I I #
vertex $-1 $312 $498 #
straight-curve $-1 0 24.186364886744741 -5.6964583995167049 1 0 0 I I #
point $-1 42.41584521011994 24.186364886744741 -5.6964583995167049 #
point $-1 42.41584521011994 -24.186364886744741 -5.6964583995167049 #
straight-curve $-1 -42.41584521011994 0 5.6964583995167049 0 -1 0 I I #
point $-1 -42.41584521011994 24.186364886744741 5.6964583995167049 #
point $-1 -42.41584521011994 -24.186364886744741 5.6964583995167049 #
straight-curve $-1 42.41584521011994 -24.186364886744741 0 0 0 -1 I I #
straight-curve $-1 42.41584521011994 24.186364886744741 0 0 0 -1 I I #
plane-surface $-1 0 24.186364886744741 0 0 -1 0 0 0 -1 forward_v I I I I #
coedge $-1 $333 $332 $499 $500 forward $134 $-1 #
edge $-1 $336 37.680210206447128 $501 42.41584521011994 $335 $502 forward 7 unknown #
coedge $-1 $341 $340 $333 $445 reversed $342 $-1 #
edge $-1 $503 -42.41584521011994 $446 -37.680210206447128 $444 $504 forward 7 unknown #
vertex $-1 $348 $505 #
straight-curve $-1 -37.680210206447128 0 -5.6964583995167049 0 -1 0 I I #
point $-1 -37.680210206447128 -24.186364886744741 -5.6964583995167049 #
coedge $-1 $499 $338 $341 $452 forward $330 $-1 #
coedge $-1 $338 $499 $345 $454 reversed $330 $-1 #
straight-curve $-1 -42.41584521011994 0 -2.6964583995167049 0 1 0 I I #
edge $-1 $343 2.6964583995167049 $503 5.6964583995167049 $341 $506 forward 7 unknown #
point $-1 -42.41584521011994 24.186364886744741 -2.6964583995167049 #
edge $-1 $346 2.6964583995167049 $501 5.6964583995167049 $450 $507 forward 7 unknown #
point $-1 -42.41584521011994 -24.186364886744741 -2.6964583995167049 #
straight-curve $-1 -37.680210206447128 24.186364886744741 -2.0982291997583524 0 0 -1 I I #
edge $-1 $458 18.927803308904878 $461 22.082489144018094 $352 $508 forward 7 unknown #
vertex $-1 $356 $509 #
straight-curve $-1 -12.015638865143941 -24.186364886744741 30.084272466943158 0 0 1 I I #
edge $-1 $461 2.4676383156424784 $363 16.628362783360448 $362 $510 forward 7 unknown #
vertex $-1 $460 $511 #
straight-curve $-1 -12.015638865143941 -24.186364886744734 2.3134719377914479 0 -0.68199835119979291 -0.73135370988377701 I I #
point $-1 -12.015638865143941 -24.186364886744741 2.3134719377914403 #
point $-1 -26.176363332861911 -21.031679051631524 5.6964583995167057 #
straight-curve $-1 0 -24.186364886744741 5.6964583995167049 1 0 0 I I #
vertex $-1 $369 $512 #
point $-1 -21.630442056371063 -21.249298222549161 2.7370022927395596 #
vertex $-1 $373 $513 #
point $-1 -15.561560141634793 -21.249298222549161 2.7370022927395596 #
coedge $-1 $388 $387 $380 $471 forward $377 $-1 #
edge $-1 $472 18.927803308904878 $475 22.082489144018094 $470 $514 forward 7 unknown #
vertex $-1 $471 $515 #
straight-curve $-1 28.032388843139593 -24.186364886744741 30.084272466943158 0 0 1 I I #
edge $-1 $475 -17.556375538499289 $389 -3.3956510707813194 $388 $516 forward 7 unknown #
vertex $-1 $474 $517 #
straight-curve $-1 28.032388843139593 -24.186364886744734 2.3134719377914479 0 -0.68199835119979291 -0.73135370988377701 I I #
point $-1 28.032388843139593 -24.186364886744741 2.3134719377914403 #
point $-1 13.871664375421624 -21.031679051631524 5.6964583995167057 #
straight-curve $-1 0 -24.186364886744741 5.6964583995167049 1 0 0 I I #
vertex $-1 $395 $518 #
point $-1 18.417585651912475 -21.249298222549161 2.7370022927395596 #
vertex $-1 $399 $519 #
point $-1 24.486467566648741 -21.249298222549161 2.7370022927395596 #
edge $-1 $485 38.880933639009676 $488 43.704686532167074 $404 $520 forward 7 unknown #
vertex $-1 $418 $521 #
straight-curve $-1 32.325785665213552 32.965480403421957 5.6964583995167075 0 1 0 I I #
edge $-1 $488 -18.289470359112954 $415 -9.7831602530882407 $414 $522 forward 7 unknown #
vertex $-1 $487 $523 #
straight-curve $-1 32.325785665213552 -3.5590925113928478 40.49732638160765 0 -0.57357642473473569 0.81915205242281985 I I #
point $-1 32.325785665213552 20.808736850438571 5.6964583995167075 #
point $-1 23.819475559188838 24.186364886744741 0.87270550635930988 #
straight-curve $-1 0 24.186364886744741 5.6964583995167049 -1 0 0 I I #
vertex $-1 $421 $524 #
point $-1 29.072630612201195 20.545405555636748 1.9176751303821868 #
straight-curve $-1 -42.41584521011994 24.186364886744741 0 0 0 -1 I I #
point $-1 -42.41584521011994 -24.186364886744741 -5.6964583995167049 #
straight-curve $-1 -42.41584521011994 0 -5.6964583995167049 0 1 0 I I #
point $-1 -42.41584521011994 24.186364886744741 -5.6964583995167049 #
coedge $-1 $450 $449 $442 $500 reversed $330 $-1 #
edge $-1 $501 -24.186364886744741 $503 24.186364886744741 $499 $525 forward 7 unknown #
vertex $-1 $500 $526 #
straight-curve $-1 0 -24.186364886744741 -5.6964583995167049 -1 0 0 I I #
vertex $-1 $445 $527 #
straight-curve $-1 0 24.186364886744741 -5.6964583995167049 1 0 0 I I #
point $-1 -37.680210206447128 24.186364886744741 -5.6964583995167049 #
straight-curve $-1 -42.41584521011994 24.186364886744741 0 0 0 -1 I I #
straight-curve $-1 -42.41584521011994 -24.186364886744741 0 0 0 -1 I I #
straight-curve $-1 -12.015638865143941 -43.114168195649619 5.696458399516704 0 1 0 I I #
point $-1 -12.015638865143941 -24.186364886744741 5.6964583995167049 #
straight-curve $-1 -9.548000549501463 -21.031679051631521 5.6964583995167049 -1 0 0 I I #
point $-1 -12.015638865143941 -21.031679051631524 5.6964583995167057 #
point $-1 -22.130442056371063 -20.883621367607272 2.3960031171396632 #
point $-1 -16.061560141634793 -20.883621367607272 2.3960031171396632 #
straight-curve $-1 28.032388843139593 -43.114168195649619 5.696458399516704 0 1 0 I I #
point $-1 28.032388843139593 -24.186364886744741 5.6964583995167049 #
straight-curve $-1 10.476013304640304 -21.031679051631521 5.6964583995167049 -1 0 0 I I #
point $-1 28.032388843139593 -21.031679051631524 5.6964583995167057 #
point $-1 17.917585651912475 -20.883621367607272 2.3960031171396632 #
point $-1 23.986467566648741 -20.883621367607272 2.3960031171396632 #
straight-curve $-1 32.325785665213552 24.186364886744741 44.577392038526384 0 0 -1 I I #
point $-1 32.325785665213552 24.186364886744741 5.6964583995167049 #
straight-curve $-1 14.036315306100597 24.186364886744741 0.87270550635930277 -1 0 0 I I #
point $-1 32.325785665213552 24.186364886744741 0.87270550635930988 #
point $-1 28.072630612201195 19.726253503213925 1.3440987056474514 #
straight-curve $-1 -42.41584521011994 0 -5.6964583995167049 0 1 0 I I #
point $-1 -42.41584521011994 -24.186364886744741 -5.6964583995167049 #
point $-1 -42.41584521011994 24.186364886744741 -5.6964583995167049 #
End-of-ACIS-data 