500 0 5 0           
7 Unknown 11 ACIS 5.0 NT 24 Fri Mar 26 18:29:44 1999 
-1 9.9999999999999995e-007 1e-010 
body $-1 $5 $-1 $6 #
body $-1 $7 $-1 $8 #
body $-1 $9 $-1 $10 #
body $-1 $11 $-1 $12 #
body $-1 $13 $-1 $14 #
lump $-1 $-1 $15 $0 #
transform $-1 1 0 0 0 1 0 0 0 1 67.411725211340681 41.134175121939386 16.574309540618717 1 rotate no_reflect no_shear #
lump $-1 $-1 $16 $1 #
transform $-1 1 0 0 0 1 0 0 0 1 67.411725211340681 41.134175121939386 16.574309540618717 1 rotate no_reflect no_shear #
lump $-1 $-1 $17 $2 #
transform $-1 1 0 0 0 1 0 0 0 1 67.411725211340681 41.134175121939386 16.574309540618717 1 rotate no_reflect no_shear #
lump $-1 $-1 $18 $3 #
transform $-1 1 0 0 0 1 0 0 0 1 67.411725211340681 41.134175121939386 16.574309540618717 1 rotate no_reflect no_shear #
lump $-1 $-1 $19 $4 #
transform $-1 1 0 0 0 1 0 0 0 1 67.411725211340681 41.134175121939386 16.574309540618717 1 rotate no_reflect no_shear #
shell $-1 $-1 $-1 $20 $-1 $5 #
shell $-1 $-1 $-1 $21 $-1 $7 #
shell $-1 $-1 $-1 $22 $-1 $9 #
shell $-1 $-1 $-1 $23 $-1 $11 #
shell $-1 $-1 $-1 $24 $-1 $13 #
face $-1 $25 $26 $15 $-1 $27 forward single #
face $-1 $28 $29 $16 $-1 $30 reversed single #
face $-1 $31 $32 $17 $-1 $33 forward single #
face $-1 $34 $35 $18 $-1 $36 reversed single #
face $-1 $37 $38 $19 $-1 $39 reversed single #
face $-1 $40 $41 $15 $-1 $42 reversed single #
loop $-1 $-1 $43 $20 #
plane-surface $-1 0 0 16.574309540618717 0 0 1 1 0 0 forward_v I I I I #
face $-1 $44 $45 $16 $-1 $46 reversed single #
loop $-1 $-1 $47 $21 #
plane-surface $-1 -60.036518933320103 -59.009816067787447 0 0 1 0 0 0 1 forward_v I I I I #
face $-1 $48 $49 $17 $-1 $50 forward single #
loop $-1 $-1 $51 $22 #
plane-surface $-1 10.74290317086944 78.296244625382883 155.87586663641562 1 0 0 0 -0.70710678939079041 -0.70710677298230451 forward_v I I I I #
face $-1 $52 $53 $18 $-1 $54 reversed single #
loop $-1 $55 $56 $23 #
cone-surface $-1 18.202457338756474 33.175619931403176 8.6157542051208971 0 -0.70710678939079041 -0.70710677298230451 1.5 0 0 1 I I 0 1 1.5 forward I I I I #
face $-1 $57 $58 $19 $-1 $59 reversed single #
loop $-1 $60 $61 $24 #
cone-surface $-1 29.391788590587012 33.175619931403176 8.6157542051208971 0 -0.70710678939079041 -0.70710677298230451 1.5 0 0 1 I I 0 1 1.5 forward I I I I #
face $-1 $62 $63 $15 $-1 $64 reversed single #
loop $-1 $-1 $65 $25 #
plane-surface $-1 0 0 -16.574309540618717 0 0 1 1 0 0 forward_v I I I I #
coedge $-1 $66 $67 $68 $69 forward $26 $-1 #
face $-1 $70 $71 $16 $-1 $72 reversed single #
loop $-1 $-1 $73 $28 #
plane-surface $-1 -62.566798440599896 -50.071995594863417 0 1 0 0 0 0 -1 forward_v I I I I #
coedge $-1 $74 $75 $76 $77 forward $29 $-1 #
face $-1 $78 $79 $17 $-1 $80 forward single #
loop $-1 $-1 $81 $31 #
plane-surface $-1 23.797122964671743 -17.038332537587735 60.541291685693693 0 0.70710678939079041 0.70710677298230451 1 0 0 forward_v I I I I #
coedge $-1 $82 $83 $84 $85 reversed $32 $-1 #
face $-1 $86 $87 $18 $-1 $88 forward single #
loop $-1 $89 $90 $34 #
cone-surface $-1 18.202457338756474 31.789497916179123 7.229632222061948 0 -0.70710678939079041 -0.70710677298230451 0.75 0 0 1 I I -0.70710678118654757 0.70710678118654757 0.75 forward I I I I #
loop $-1 $-1 $91 $23 #
coedge $-1 $56 $56 $92 $93 reversed $35 $-1 #
face $-1 $94 $95 $19 $-1 $96 reversed single #
loop $-1 $97 $98 $37 #
cone-surface $-1 29.391788590587012 31.789497916179123 7.229632222061948 0 -0.70710678939079041 -0.70710677298230451 0.75 0 0 1 I I -0.70710678118654757 0.70710678118654757 0.75 forward I I I I #
loop $-1 $-1 $99 $24 #
coedge $-1 $61 $61 $100 $101 reversed $38 $-1 #
face $-1 $102 $103 $15 $-1 $104 reversed single #
loop $-1 $-1 $105 $40 #
plane-surface $-1 0 -41.134175121939386 0 0 1 0 0 0 1 forward_v I I I I #
coedge $-1 $106 $107 $108 $109 forward $41 $-1 #
coedge $-1 $110 $43 $111 $112 forward $26 $-1 #
coedge $-1 $43 $110 $113 $114 forward $26 $-1 #
coedge $-1 $115 $116 $43 $69 reversed $117 $-1 #
edge $-1 $118 -41.134175121939386 $119 41.134175121939386 $68 $120 forward 7 unknown #
face $-1 $121 $122 $16 $-1 $123 reversed single #
loop $-1 $-1 $124 $44 #
plane-surface $-1 -57.50623942604031 -50.071995594863417 0 -1 0 0 0 0 1 forward_v I I I I #
coedge $-1 $125 $126 $127 $128 reversed $45 $-1 #
coedge $-1 $129 $47 $130 $131 reversed $29 $-1 #
coedge $-1 $47 $129 $132 $133 reversed $29 $-1 #
coedge $-1 $126 $125 $47 $77 reversed $45 $-1 #
edge $-1 $134 -16.574309540618717 $135 16.574309540618717 $76 $136 forward 7 unknown #
face $-1 $137 $138 $17 $-1 $139 forward single #
loop $-1 $-1 $140 $48 #
plane-surface $-1 36.851342758474047 78.296244625382883 155.87586663641562 -1 0 0 0 0.70710678939079041 0.70710677298230451 forward_v I I I I #
coedge $-1 $141 $142 $143 $144 reversed $49 $-1 #
coedge $-1 $83 $51 $142 $145 forward $32 $-1 #
coedge $-1 $51 $82 $146 $147 reversed $32 $-1 #
coedge $-1 $148 $143 $51 $85 forward $138 $-1 #
edge $-1 $149 -12.219473725462549 $150 1.9860528092479441 $84 $151 forward 7 unknown #
face $-1 $152 $153 $18 $-1 $154 forward single #
loop $-1 $-1 $155 $52 #
plane-surface $-1 10.74290317086944 78.296244625382883 155.87586663641562 1 0 0 0 -0.70710678939079041 -0.70710677298230451 forward_v I I I I #
loop $-1 $-1 $156 $34 #
coedge $-1 $90 $90 $91 $157 forward $53 $-1 #
coedge $-1 $91 $91 $90 $157 reversed $55 $-1 #
coedge $-1 $92 $92 $56 $93 forward $153 $-1 #
edge $-1 $158 1.674765308694244e-015 $158 6.2831853071796022 $92 $159 forward 7 unknown #
face $-1 $160 $161 $19 $-1 $162 reversed single #
loop $-1 $163 $164 $57 #
cone-surface $-1 18.202457338756474 33.175619931403176 8.6157542051208971 0 -0.70710678939079041 -0.70710677298230451 1.5 0 0 1 I I 0 1 1.5 forward I I I I #
loop $-1 $-1 $165 $37 #
coedge $-1 $98 $98 $99 $166 forward $58 $-1 #
coedge $-1 $99 $99 $98 $166 reversed $60 $-1 #
coedge $-1 $100 $100 $61 $101 forward $167 $-1 #
edge $-1 $168 1.674765308694244e-015 $168 6.2831853071796022 $100 $169 forward 7 unknown #
face $-1 $170 $171 $15 $-1 $172 reversed single #
loop $-1 $-1 $173 $62 #
plane-surface $-1 -67.411725211340681 0 0 1 0 0 0 0 -1 forward_v I I I I #
coedge $-1 $174 $113 $175 $176 forward $63 $-1 #
coedge $-1 $177 $65 $174 $178 forward $41 $-1 #
coedge $-1 $65 $177 $179 $180 forward $41 $-1 #
coedge $-1 $116 $115 $65 $109 reversed $117 $-1 #
edge $-1 $181 -41.134175121939386 $182 41.134175121939386 $108 $183 forward 7 unknown #
coedge $-1 $67 $66 $184 $185 forward $26 $-1 #
coedge $-1 $186 $187 $66 $112 reversed $171 $-1 #
edge $-1 $119 -67.411725211340681 $188 67.411725211340681 $111 $189 forward 7 unknown #
coedge $-1 $105 $190 $67 $114 reversed $63 $-1 #
edge $-1 $191 -67.411725211340681 $118 67.411725211340681 $113 $192 forward 7 unknown #
coedge $-1 $108 $68 $190 $193 forward $117 $-1 #
coedge $-1 $68 $108 $186 $194 reversed $117 $-1 #
loop $-1 $-1 $115 $170 #
vertex $-1 $69 $195 #
vertex $-1 $69 $196 #
straight-curve $-1 67.411725211340681 0 16.574309540618717 0 1 0 I I #
face $-1 $197 $198 $16 $-1 $123 reversed single #
loop $-1 $-1 $127 $70 #
plane-surface $-1 0 -41.134175121939386 0 0 1 0 0 0 1 forward_v I I I I #
coedge $-1 $199 $200 $129 $201 forward $71 $-1 #
coedge $-1 $76 $73 $202 $203 reversed $45 $-1 #
coedge $-1 $73 $76 $204 $205 reversed $45 $-1 #
coedge $-1 $206 $207 $73 $128 forward $122 $-1 #
edge $-1 $208 -16.574309540618717 $209 16.574309540618717 $127 $210 forward 7 unknown #
coedge $-1 $75 $74 $124 $201 reversed $29 $-1 #
coedge $-1 $202 $211 $74 $131 forward $212 $-1 #
edge $-1 $213 -2.5302795072797934 $135 2.5302795072797934 $74 $214 forward 7 unknown #
coedge $-1 $215 $204 $75 $133 forward $216 $-1 #
edge $-1 $134 -2.5302795072797934 $217 2.5302795072797934 $75 $218 forward 7 unknown #
vertex $-1 $205 $219 #
vertex $-1 $203 $220 #
straight-curve $-1 -62.566798440599896 -59.009816067787447 0 0 0 -1 I I #
face $-1 $221 $222 $17 $-1 $223 reversed single #
loop $-1 $-1 $224 $78 #
plane-surface $-1 0 0 16.574309540618717 0 0 1 1 0 0 forward_v I I I I #
coedge $-1 $225 $226 $224 $227 reversed $79 $-1 #
coedge $-1 $228 $81 $226 $229 reversed $49 $-1 #
coedge $-1 $81 $228 $82 $145 reversed $49 $-1 #
coedge $-1 $84 $224 $81 $144 forward $138 $-1 #
edge $-1 $230 -24.952781276138175 $149 1.1556583114664321 $143 $231 forward 7 unknown #
edge $-1 $149 62.178701724749168 $232 82.268350243878828 $82 $233 forward 7 unknown #
coedge $-1 $234 $235 $83 $147 forward $236 $-1 #
edge $-1 $150 61.363623777589098 $232 75.569150641940297 $146 $237 forward 7 unknown #
coedge $-1 $238 $84 $235 $239 forward $138 $-1 #
vertex $-1 $144 $240 #
vertex $-1 $239 $241 #
straight-curve $-1 10.74290317086944 39.148122312691441 16.574309540618714 0 1 0 I I #
face $-1 $242 $243 $18 $-1 $244 forward single #
loop $-1 $245 $92 $86 #
plane-surface $-1 23.797122964671743 -17.038332537587735 60.541291685693693 0 0.70710678939079041 0.70710677298230451 1 0 0 forward_v I I I I #
coedge $-1 $246 $247 $248 $249 reversed $87 $-1 #
coedge $-1 $156 $156 $-1 $250 forward $89 $-1 #
edge $-1 $251 0 $251 6.2831853071796004 $90 $252 forward 7 unknown #
vertex $-1 $93 $253 #
ellipse-curve $-1 18.202457338756474 34.031411854584135 9.4715461084431141 0 -0.70710678939079041 -0.70710677298230451 1.5 0 0 1 I I #
face $-1 $254 $255 $19 $-1 $256 forward single #
loop $-1 $257 $258 $94 #
cone-surface $-1 18.202457338756474 31.789497916179123 7.229632222061948 0 -0.70710678939079041 -0.70710677298230451 0.75 0 0 1 I I -0.70710678118654757 0.70710678118654757 0.75 forward I I I I #
loop $-1 $-1 $259 $57 #
coedge $-1 $164 $164 $260 $261 reversed $95 $-1 #
coedge $-1 $165 $165 $-1 $262 forward $97 $-1 #
edge $-1 $263 0 $263 6.2831853071796004 $98 $264 forward 7 unknown #
loop $-1 $265 $100 $254 #
vertex $-1 $101 $266 #
ellipse-curve $-1 29.391788590587012 34.031411854584135 9.4715461084431141 0 -0.70710678939079041 -0.70710677298230451 1.5 0 0 1 I I #
face $-1 $-1 $117 $15 $-1 $267 reversed single #
loop $-1 $-1 $186 $102 #
plane-surface $-1 0 41.134175121939386 0 0 -1 0 0 0 -1 forward_v I I I I #
coedge $-1 $268 $184 $187 $269 forward $103 $-1 #
coedge $-1 $190 $105 $106 $178 reversed $63 $-1 #
coedge $-1 $184 $268 $105 $176 reversed $103 $-1 #
edge $-1 $191 -16.574309540618717 $270 16.574309540618717 $175 $271 forward 7 unknown #
coedge $-1 $107 $106 $268 $272 forward $41 $-1 #
edge $-1 $182 -67.411725211340681 $270 67.411725211340681 $174 $273 forward 7 unknown #
coedge $-1 $187 $186 $107 $180 reversed $171 $-1 #
edge $-1 $274 -67.411725211340681 $181 67.411725211340681 $179 $275 forward 7 unknown #
vertex $-1 $109 $276 #
vertex $-1 $193 $277 #
straight-curve $-1 67.411725211340681 0 -16.574309540618717 0 -1 0 I I #
coedge $-1 $173 $175 $110 $185 reversed $103 $-1 #
edge $-1 $188 -41.134175121939386 $191 41.134175121939386 $184 $278 forward 7 unknown #
coedge $-1 $179 $111 $116 $194 forward $171 $-1 #
coedge $-1 $111 $179 $173 $269 reversed $171 $-1 #
vertex $-1 $112 $279 #
straight-curve $-1 0 41.134175121939386 16.574309540618717 -1 0 0 I I #
coedge $-1 $113 $174 $115 $193 reversed $63 $-1 #
vertex $-1 $185 $280 #
straight-curve $-1 0 -41.134175121939386 16.574309540618717 1 0 0 I I #
edge $-1 $118 -16.574309540618717 $182 16.574309540618717 $115 $281 forward 7 unknown #
edge $-1 $119 -16.574309540618717 $181 16.574309540618717 $116 $282 forward 7 unknown #
point $-1 67.411725211340681 -41.134175121939386 16.574309540618717 #
point $-1 67.411725211340681 41.134175121939386 16.574309540618717 #
face $-1 $283 $216 $16 $-1 $284 forward single #
loop $-1 $-1 $285 $121 #
coedge $-1 $286 $124 $211 $287 reversed $71 $-1 #
coedge $-1 $124 $286 $215 $288 reversed $71 $-1 #
edge $-1 $217 -16.574309540618717 $213 16.574309540618717 $124 $289 forward 7 unknown #
coedge $-1 $290 $130 $125 $203 forward $212 $-1 #
edge $-1 $135 -8.9378204729240309 $208 8.9378204729240309 $125 $291 forward 7 unknown #
coedge $-1 $132 $292 $126 $205 forward $216 $-1 #
edge $-1 $209 -8.9378204729240309 $134 8.9378204729240309 $126 $293 forward 7 unknown #
coedge $-1 $294 $127 $292 $295 reversed $122 $-1 #
coedge $-1 $127 $294 $290 $296 reversed $122 $-1 #
vertex $-1 $296 $297 #
vertex $-1 $205 $298 #
straight-curve $-1 -62.566798440599896 -41.134175121939386 0 0 0 1 I I #
coedge $-1 $130 $299 $199 $287 forward $212 $-1 #
loop $-1 $-1 $300 $283 #
vertex $-1 $201 $301 #
straight-curve $-1 -60.036518933320103 -59.009816067787447 -16.574309540618717 -1 0 0 I I #
coedge $-1 $302 $132 $200 $288 forward $216 $-1 #
loop $-1 $-1 $303 $197 #
vertex $-1 $288 $304 #
straight-curve $-1 -60.036518933320103 -59.009816067787447 16.574309540618717 1 0 0 I I #
point $-1 -62.566798440599896 -59.009816067787447 16.574309540618717 #
point $-1 -62.566798440599896 -59.009816067787447 -16.574309540618717 #
face $-1 $305 $306 $17 $-1 $307 reversed single #
loop $-1 $-1 $308 $137 #
plane-surface $-1 -60.036518933320103 -59.009816067787447 0 0 1 0 0 0 1 forward_v I I I I #
coedge $-1 $143 $309 $140 $227 forward $138 $-1 #
coedge $-1 $226 $140 $310 $311 reversed $79 $-1 #
coedge $-1 $140 $225 $141 $229 forward $79 $-1 #
edge $-1 $312 -1.9860528092479441 $230 12.219473725462549 $224 $313 forward 7 unknown #
coedge $-1 $142 $141 $234 $314 reversed $49 $-1 #
edge $-1 $315 -82.268350243878828 $230 -62.178701724749168 $226 $316 forward 7 unknown #
vertex $-1 $144 $317 #
straight-curve $-1 11.898561482335872 26.928648587228892 16.574309540618714 -1 0 0 I I #
vertex $-1 $314 $318 #
straight-curve $-1 10.74290317086944 -17.038332537587735 60.541291685693693 0 0.70710677298230451 -0.70710678939079041 I I #
coedge $-1 $310 $146 $228 $314 forward $236 $-1 #
coedge $-1 $146 $319 $148 $239 reversed $236 $-1 #
loop $-1 $-1 $310 $320 #
straight-curve $-1 10.74290317086944 41.134175121939386 77.937933318207811 0 0 -1 I I #
coedge $-1 $321 $148 $322 $323 forward $138 $-1 #
edge $-1 $150 -10.74290317086944 $324 67.411725211340681 $235 $325 forward 7 unknown #
point $-1 10.74290317086944 26.928648587228892 16.574309540618714 #
point $-1 10.74290317086944 41.134175121939386 16.574309540618717 #
face $-1 $326 $327 $18 $-1 $328 forward single #
loop $-1 $-1 $329 $152 #
plane-surface $-1 36.851342758474047 78.296244625382883 155.87586663641562 -1 0 0 0 0.70710678939079041 0.70710677298230451 forward_v I I I I #
loop $-1 $-1 $330 $86 #
coedge $-1 $247 $155 $331 $332 forward $87 $-1 #
coedge $-1 $155 $246 $333 $334 reversed $87 $-1 #
coedge $-1 $335 $336 $155 $249 forward $327 $-1 #
edge $-1 $337 -12.219473725462549 $338 1.9860528092479441 $248 $339 forward 7 unknown #
edge $-1 $340 1 $340 0 $156 $-1 forward 7 unknown #
vertex $-1 $157 $341 #
ellipse-curve $-1 18.202457338756474 32.319828008222217 7.7599623017986765 0 0.70710678939079041 0.70710677298230451 1.5 0 0 1 I I #
point $-1 19.702457338756474 34.031411854584135 9.4715461084431176 #
face $-1 $342 $167 $19 $-1 $343 forward single #
loop $-1 $-1 $344 $160 #
plane-surface $-1 10.74290317086944 78.296244625382883 155.87586663641562 1 0 0 0 -0.70710678939079041 -0.70710677298230451 forward_v I I I I #
loop $-1 $-1 $345 $94 #
coedge $-1 $258 $258 $259 $346 forward $161 $-1 #
coedge $-1 $259 $259 $258 $346 reversed $163 $-1 #
coedge $-1 $260 $260 $164 $261 forward $265 $-1 #
edge $-1 $347 1.674765308694244e-015 $347 6.2831853071796022 $260 $348 forward 7 unknown #
edge $-1 $349 1 $349 0 $165 $-1 forward 7 unknown #
vertex $-1 $166 $350 #
ellipse-curve $-1 29.391788590587012 32.319828008222217 7.7599623017986765 0 0.70710678939079041 0.70710677298230451 1.5 0 0 1 I I #
loop $-1 $351 $260 $254 #
point $-1 30.891788590587012 34.031411854584135 9.4715461084431176 #
plane-surface $-1 67.411725211340681 0 0 -1 0 0 0 0 1 forward_v I I I I #
coedge $-1 $175 $173 $177 $272 reversed $103 $-1 #
edge $-1 $188 -16.574309540618717 $274 16.574309540618717 $187 $352 forward 7 unknown #
vertex $-1 $272 $353 #
straight-curve $-1 -67.411725211340681 -41.134175121939386 0 0 0 -1 I I #
edge $-1 $270 -41.134175121939386 $274 41.134175121939386 $268 $354 forward 7 unknown #
straight-curve $-1 0 -41.134175121939386 -16.574309540618717 -1 0 0 I I #
vertex $-1 $180 $355 #
straight-curve $-1 0 41.134175121939386 -16.574309540618717 1 0 0 I I #
point $-1 67.411725211340681 41.134175121939386 -16.574309540618717 #
point $-1 67.411725211340681 -41.134175121939386 -16.574309540618717 #
straight-curve $-1 -67.411725211340681 0 16.574309540618717 0 -1 0 I I #
point $-1 -67.411725211340681 41.134175121939386 16.574309540618717 #
point $-1 -67.411725211340681 -41.134175121939386 16.574309540618717 #
straight-curve $-1 67.411725211340681 -41.134175121939386 0 0 0 -1 I I #
straight-curve $-1 67.411725211340681 41.134175121939386 0 0 0 -1 I I #
face $-1 $356 $212 $16 $-1 $357 reversed single #
plane-surface $-1 0 0 16.574309540618717 0 0 1 1 0 0 forward_v I I I I #
coedge $-1 $358 $359 $286 $360 forward $198 $-1 #
coedge $-1 $200 $199 $285 $360 reversed $71 $-1 #
edge $-1 $361 -8.9378204729240309 $213 8.9378204729240309 $199 $362 forward 7 unknown #
edge $-1 $217 -8.9378204729240309 $363 8.9378204729240309 $200 $364 forward 7 unknown #
straight-curve $-1 -57.50623942604031 -59.009816067787447 0 0 0 -1 I I #
coedge $-1 $365 $202 $207 $296 forward $212 $-1 #
straight-curve $-1 -62.566798440599896 -50.071995594863417 -16.574309540618717 0 1 0 I I #
coedge $-1 $204 $366 $206 $295 forward $216 $-1 #
straight-curve $-1 -62.566798440599896 -50.071995594863417 16.574309540618717 0 -1 0 I I #
coedge $-1 $207 $206 $367 $368 forward $122 $-1 #
edge $-1 $369 -67.411725211340681 $209 -62.566798440599896 $206 $370 forward 7 unknown #
edge $-1 $208 62.566798440599896 $371 67.411725211340681 $207 $372 forward 7 unknown #
point $-1 -62.566798440599896 -41.134175121939386 -16.574309540618717 #
point $-1 -62.566798440599896 -41.134175121939386 16.574309540618717 #
coedge $-1 $211 $300 $358 $373 forward $212 $-1 #
coedge $-1 $299 $374 $375 $376 forward $212 $-1 #
point $-1 -57.50623942604031 -59.009816067787447 -16.574309540618717 #
coedge $-1 $303 $215 $359 $377 forward $216 $-1 #
coedge $-1 $378 $302 $379 $380 forward $216 $-1 #
point $-1 -57.50623942604031 -59.009816067787447 16.574309540618717 #
face $-1 $381 $382 $17 $-1 $383 reversed single #
loop $-1 $-1 $384 $221 #
plane-surface $-1 -62.566798440599896 -50.071995594863417 0 1 0 0 0 0 -1 forward_v I I I I #
coedge $-1 $385 $386 $387 $388 forward $222 $-1 #
coedge $-1 $224 $389 $390 $391 forward $138 $-1 #
coedge $-1 $390 $234 $225 $311 forward $236 $-1 #
edge $-1 $315 -75.569150641940297 $312 -61.363623777589098 $310 $392 forward 7 unknown #
vertex $-1 $311 $393 #
straight-curve $-1 36.851342758474047 39.148122312691441 16.574309540618714 0 -1 0 I I #
edge $-1 $232 -1.1556583114664321 $315 24.952781276138175 $234 $394 forward 7 unknown #
vertex $-1 $314 $395 #
straight-curve $-1 36.851342758474047 -17.038332537587735 60.541291685693693 0 -0.70710677298230451 0.70710678939079041 I I #
point $-1 36.851342758474047 26.928648587228892 16.574309540618714 #
point $-1 10.74290317086944 41.134175121939386 2.3687826762675073 #
coedge $-1 $235 $396 $397 $398 reversed $236 $-1 #
face $-1 $399 $236 $17 $-1 $400 reversed single #
coedge $-1 $401 $238 $402 $403 forward $138 $-1 #
coedge $-1 $397 $404 $238 $323 reversed $405 $-1 #
edge $-1 $324 -41.134175121939386 $406 41.134175121939386 $322 $407 forward 7 unknown #
vertex $-1 $239 $408 #
straight-curve $-1 0 41.134175121939386 16.574309540618717 -1 0 0 I I #
face $-1 $409 $410 $18 $-1 $411 reversed single #
loop $-1 $-1 $412 $242 #
plane-surface $-1 0 0 16.574309540618717 0 0 1 1 0 0 forward_v I I I I #
coedge $-1 $413 $414 $412 $415 reversed $243 $-1 #
coedge $-1 $416 $331 $336 $417 reversed $245 $-1 #
coedge $-1 $330 $418 $246 $332 reversed $245 $-1 #
edge $-1 $337 62.178701724749168 $419 82.268350243878828 $246 $420 forward 7 unknown #
coedge $-1 $421 $422 $247 $334 forward $423 $-1 #
edge $-1 $338 61.363623777589098 $419 75.569150641940297 $333 $424 forward 7 unknown #
coedge $-1 $425 $248 $422 $426 forward $327 $-1 #
coedge $-1 $248 $412 $330 $417 forward $327 $-1 #
vertex $-1 $417 $427 #
vertex $-1 $426 $428 #
straight-curve $-1 10.74290317086944 39.148122312691441 16.574309540618714 0 1 0 I I #
vertex $-1 $250 $429 #
point $-1 19.702457338756474 32.319828008222217 7.7599623017986765 #
face $-1 $430 $431 $19 $-1 $432 forward single #
plane-surface $-1 23.797122964671743 -17.038332537587735 60.541291685693693 0 0.70710678939079041 0.70710677298230451 1 0 0 forward_v I I I I #
coedge $-1 $433 $434 $435 $436 reversed $255 $-1 #
coedge $-1 $345 $345 $-1 $437 forward $257 $-1 #
edge $-1 $438 0 $438 6.2831853071796004 $258 $439 forward 7 unknown #
vertex $-1 $261 $440 #
ellipse-curve $-1 18.202457338756474 34.031411854584135 9.4715461084431141 0 -0.70710678939079041 -0.70710677298230451 1.5 0 0 1 I I #
vertex $-1 $262 $441 #
point $-1 30.891788590587012 32.319828008222217 7.7599623017986765 #
loop $-1 $-1 $442 $254 #
straight-curve $-1 -67.411725211340681 41.134175121939386 0 0 0 -1 I I #
point $-1 -67.411725211340681 -41.134175121939386 -16.574309540618717 #
straight-curve $-1 -67.411725211340681 0 -16.574309540618717 0 1 0 I I #
point $-1 -67.411725211340681 41.134175121939386 -16.574309540618717 #
face $-1 $443 $444 $16 $-1 $445 reversed single #
plane-surface $-1 0 0 -16.574309540618717 0 0 1 1 0 0 forward_v I I I I #
coedge $-1 $446 $285 $299 $373 reversed $198 $-1 #
coedge $-1 $285 $446 $302 $377 reversed $198 $-1 #
edge $-1 $363 -16.574309540618717 $361 16.574309540618717 $285 $447 forward 7 unknown #
vertex $-1 $287 $448 #
straight-curve $-1 -57.50623942604031 -50.071995594863417 -16.574309540618717 0 -1 0 I I #
vertex $-1 $377 $449 #
straight-curve $-1 -57.50623942604031 -50.071995594863417 16.574309540618717 0 1 0 I I #
coedge $-1 $374 $290 $450 $451 forward $212 $-1 #
coedge $-1 $292 $378 $452 $453 forward $216 $-1 #
coedge $-1 $452 $450 $294 $368 reversed $444 $-1 #
edge $-1 $369 -16.574309540618717 $371 16.574309540618717 $367 $454 forward 7 unknown #
vertex $-1 $453 $455 #
straight-curve $-1 0 -41.134175121939386 16.574309540618717 1 0 0 I I #
vertex $-1 $451 $456 #
straight-curve $-1 0 -41.134175121939386 -16.574309540618717 -1 0 0 I I #
edge $-1 $457 -67.411725211340681 $361 57.50623942604031 $358 $372 forward 7 unknown #
coedge $-1 $300 $365 $458 $459 forward $212 $-1 #
coedge $-1 $460 $461 $300 $376 reversed $462 $-1 #
edge $-1 $463 -41.134175121939386 $457 41.134175121939386 $375 $464 forward 7 unknown #
edge $-1 $363 -57.50623942604031 $465 67.411725211340681 $359 $370 forward 7 unknown #
coedge $-1 $366 $303 $466 $467 forward $216 $-1 #
coedge $-1 $461 $460 $303 $380 reversed $462 $-1 #
edge $-1 $465 -41.134175121939386 $468 41.134175121939386 $379 $469 forward 7 unknown #
face $-1 $470 $471 $17 $-1 $472 reversed single #
loop $-1 $-1 $473 $305 #
plane-surface $-1 -57.50623942604031 -50.071995594863417 0 -1 0 0 0 0 1 forward_v I I I I #
coedge $-1 $474 $475 $476 $477 reversed $306 $-1 #
coedge $-1 $478 $308 $479 $480 reversed $222 $-1 #
coedge $-1 $308 $478 $481 $482 reversed $222 $-1 #
coedge $-1 $475 $474 $308 $388 reversed $306 $-1 #
edge $-1 $483 -16.574309540618717 $484 16.574309540618717 $387 $485 forward 7 unknown #
coedge $-1 $309 $486 $487 $488 forward $138 $-1 #
coedge $-1 $489 $310 $309 $391 reversed $236 $-1 #
edge $-1 $490 -67.411725211340681 $312 -36.851342758474047 $390 $325 forward 7 unknown #
straight-curve $-1 36.851342758474047 41.134175121939386 77.937933318207811 0 0 1 I I #
point $-1 36.851342758474047 41.134175121939386 16.574309540618717 #
straight-curve $-1 11.898561482335872 41.134175121939386 2.3687826762675073 1 0 0 I I #
point $-1 36.851342758474047 41.134175121939386 2.3687826762675073 #
coedge $-1 $319 $489 $491 $492 reversed $236 $-1 #
coedge $-1 $493 $322 $319 $398 forward $405 $-1 #
edge $-1 $324 -16.574309540618717 $494 16.574309540618717 $319 $495 forward 7 unknown #
face $-1 $-1 $496 $17 $-1 $497 reversed single #
plane-surface $-1 0 41.134175121939386 0 0 -1 0 0 0 -1 forward_v I I I I #
coedge $-1 $481 $321 $475 $498 forward $138 $-1 #
coedge $-1 $499 $476 $321 $403 reversed $471 $-1 #
edge $-1 $406 -67.411725211340681 $500 -62.566798440599896 $402 $501 forward 7 unknown #
coedge $-1 $322 $493 $499 $502 reversed $405 $-1 #
loop $-1 $-1 $397 $503 #
vertex $-1 $323 $504 #
straight-curve $-1 -67.411725211340681 0 16.574309540618717 0 -1 0 I I #
point $-1 -67.411725211340681 41.134175121939386 16.574309540618717 #
face $-1 $505 $506 $18 $-1 $507 reversed single #
loop $-1 $-1 $508 $326 #
plane-surface $-1 -60.036518933320103 -59.009816067787447 0 0 1 0 0 0 1 forward_v I I I I #
coedge $-1 $336 $509 $329 $415 forward $327 $-1 #
coedge $-1 $414 $329 $510 $511 reversed $243 $-1 #
coedge $-1 $329 $413 $416 $512 forward $243 $-1 #
edge $-1 $513 -1.9860528092479441 $514 12.219473725462549 $412 $515 forward 7 unknown #
coedge $-1 $418 $330 $414 $512 reversed $245 $-1 #
edge $-1 $514 -24.952781276138175 $337 1.1556583114664321 $336 $516 forward 7 unknown #
coedge $-1 $331 $416 $421 $517 reversed $245 $-1 #
vertex $-1 $517 $518 #
straight-curve $-1 10.74290317086944 -17.038332537587735 60.541291685693693 0 0.70710677298230451 -0.70710678939079041 I I #
coedge $-1 $510 $333 $418 $517 forward $423 $-1 #
coedge $-1 $333 $519 $335 $426 reversed $423 $-1 #
loop $-1 $-1 $510 $520 #
straight-curve $-1 10.74290317086944 41.134175121939386 77.937933318207811 0 0 -1 I I #
coedge $-1 $521 $335 $522 $523 forward $327 $-1 #
edge $-1 $338 -10.74290317086944 $524 67.411725211340681 $422 $525 forward 7 unknown #
point $-1 10.74290317086944 26.928648587228892 16.574309540618714 #
point $-1 10.74290317086944 41.134175121939386 16.574309540618717 #
point $-1 18.202457338756474 31.259167824136028 6.6993021423252195 #
face $-1 $526 $527 $19 $-1 $528 forward single #
loop $-1 $-1 $529 $342 #
plane-surface $-1 36.851342758474047 78.296244625382883 155.87586663641562 -1 0 0 0 0.70710678939079041 0.70710677298230451 forward_v I I I I #
coedge $-1 $434 $344 $530 $531 forward $255 $-1 #
coedge $-1 $344 $433 $532 $533 reversed $255 $-1 #
coedge $-1 $534 $535 $344 $436 forward $527 $-1 #
edge $-1 $536 -12.219473725462549 $537 1.9860528092479441 $435 $538 forward 7 unknown #
edge $-1 $539 1 $539 0 $345 $-1 forward 7 unknown #
vertex $-1 $346 $540 #
ellipse-curve $-1 18.202457338756474 32.319828008222217 7.7599623017986765 0 0.70710678939079041 0.70710677298230451 1.5 0 0 1 I I #
point $-1 19.702457338756474 34.031411854584135 9.4715461084431176 #
point $-1 29.391788590587012 31.259167824136028 6.6993021423252195 #
coedge $-1 $541 $530 $535 $542 reversed $351 $-1 #
face $-1 $543 $544 $16 $-1 $545 reversed single #
loop $-1 $-1 $546 $356 #
plane-surface $-1 -67.411725211340681 0 0 1 0 0 0 0 -1 forward_v I I I I #
coedge $-1 $359 $358 $461 $547 reversed $198 $-1 #
straight-curve $-1 -57.50623942604031 -41.134175121939386 0 0 0 -1 I I #
point $-1 -57.50623942604031 -41.134175121939386 -16.574309540618717 #
point $-1 -57.50623942604031 -41.134175121939386 16.574309540618717 #
coedge $-1 $367 $546 $365 $451 reversed $444 $-1 #
edge $-1 $371 -41.134175121939386 $548 41.134175121939386 $450 $549 forward 7 unknown #
coedge $-1 $546 $367 $366 $453 reversed $444 $-1 #
edge $-1 $550 -41.134175121939386 $369 41.134175121939386 $452 $551 forward 7 unknown #
straight-curve $-1 -67.411725211340681 -41.134175121939386 0 0 0 -1 I I #
point $-1 -67.411725211340681 -41.134175121939386 16.574309540618717 #
point $-1 -67.411725211340681 -41.134175121939386 -16.574309540618717 #
vertex $-1 $547 $552 #
coedge $-1 $553 $554 $374 $459 reversed $544 $-1 #
edge $-1 $548 -67.411725211340681 $463 67.411725211340681 $458 $555 forward 7 unknown #
coedge $-1 $379 $375 $554 $556 reversed $462 $-1 #
coedge $-1 $375 $379 $446 $547 forward $462 $-1 #
loop $-1 $-1 $461 $543 #
vertex $-1 $376 $557 #
straight-curve $-1 67.411725211340681 0 -16.574309540618717 0 -1 0 I I #
vertex $-1 $380 $558 #
coedge $-1 $554 $553 $378 $467 reversed $544 $-1 #
edge $-1 $468 -67.411725211340681 $550 67.411725211340681 $466 $559 forward 7 unknown #
vertex $-1 $380 $560 #
straight-curve $-1 67.411725211340681 0 16.574309540618717 0 1 0 I I #
face $-1 $561 $562 $17 $-1 $472 reversed single #
loop $-1 $-1 $476 $381 #
plane-surface $-1 0 -41.134175121939386 0 0 1 0 0 0 1 forward_v I I I I #
coedge $-1 $563 $564 $478 $565 forward $382 $-1 #
coedge $-1 $387 $384 $566 $567 reversed $306 $-1 #
coedge $-1 $384 $387 $401 $498 reversed $306 $-1 #
coedge $-1 $402 $568 $384 $477 forward $471 $-1 #
edge $-1 $569 -16.574309540618717 $500 16.574309540618717 $476 $570 forward 7 unknown #
coedge $-1 $386 $385 $473 $565 reversed $222 $-1 #
coedge $-1 $566 $571 $385 $480 forward $572 $-1 #
edge $-1 $573 -2.5302795072797934 $484 2.5302795072797934 $385 $574 forward 7 unknown #
coedge $-1 $575 $401 $386 $482 forward $138 $-1 #
edge $-1 $483 -2.5302795072797934 $576 2.5302795072797934 $386 $577 forward 7 unknown #
vertex $-1 $498 $578 #
vertex $-1 $567 $579 #
straight-curve $-1 -62.566798440599896 -59.009816067787447 0 0 0 -1 I I #
coedge $-1 $389 $575 $580 $581 forward $138 $-1 #
coedge $-1 $582 $583 $389 $488 reversed $496 $-1 #
edge $-1 $584 -41.134175121939386 $490 41.134175121939386 $487 $585 forward 7 unknown #
coedge $-1 $396 $390 $583 $586 forward $236 $-1 #
vertex $-1 $488 $587 #
coedge $-1 $588 $589 $396 $492 forward $572 $-1 #
edge $-1 $494 -67.411725211340681 $590 67.411725211340681 $396 $591 forward 7 unknown #
coedge $-1 $404 $397 $589 $592 reversed $405 $-1 #
vertex $-1 $492 $593 #
straight-curve $-1 -67.411725211340681 41.134175121939386 0 0 0 -1 I I #
loop $-1 $-1 $582 $399 #
plane-surface $-1 67.411725211340681 0 0 -1 0 0 0 0 1 forward_v I I I I #
edge $-1 $500 -8.9378204729240309 $483 8.9378204729240309 $475 $594 forward 7 unknown #
coedge $-1 $568 $402 $404 $502 forward $471 $-1 #
vertex $-1 $498 $595 #
straight-curve $-1 0 -41.134175121939386 16.574309540618717 1 0 0 I I #
edge $-1 $406 -16.574309540618717 $596 16.574309540618717 $404 $597 forward 7 unknown #
face $-1 $320 $405 $17 $-1 $598 reversed single #
point $-1 -67.411725211340681 -41.134175121939386 16.574309540618717 #
face $-1 $599 $600 $18 $-1 $601 reversed single #
loop $-1 $-1 $602 $409 #
plane-surface $-1 -62.566798440599896 -50.071995594863417 0 1 0 0 0 0 -1 forward_v I I I I #
coedge $-1 $603 $604 $605 $606 forward $410 $-1 #
coedge $-1 $412 $607 $608 $609 forward $327 $-1 #
coedge $-1 $608 $421 $413 $511 forward $423 $-1 #
edge $-1 $610 -75.569150641940297 $513 -61.363623777589098 $510 $611 forward 7 unknown #
edge $-1 $610 -82.268350243878828 $514 -62.178701724749168 $414 $612 forward 7 unknown #
vertex $-1 $511 $613 #
vertex $-1 $417 $614 #
straight-curve $-1 36.851342758474047 39.148122312691441 16.574309540618714 0 -1 0 I I #
straight-curve $-1 11.898561482335872 26.928648587228892 16.574309540618714 -1 0 0 I I #
edge $-1 $419 -1.1556583114664321 $610 24.952781276138175 $421 $615 forward 7 unknown #
point $-1 10.74290317086944 41.134175121939386 2.3687826762675073 #
coedge $-1 $422 $616 $617 $618 reversed $423 $-1 #
face $-1 $619 $423 $18 $-1 $620 reversed single #
coedge $-1 $621 $425 $622 $623 forward $327 $-1 #
coedge $-1 $617 $624 $425 $523 reversed $625 $-1 #
edge $-1 $524 -41.134175121939386 $626 41.134175121939386 $522 $627 forward 7 unknown #
vertex $-1 $426 $628 #
straight-curve $-1 0 41.134175121939386 16.574309540618717 -1 0 0 I I #
face $-1 $629 $630 $19 $-1 $631 reversed single #
loop $-1 $-1 $632 $430 #
plane-surface $-1 0 0 16.574309540618717 0 0 1 1 0 0 forward_v I I I I #
coedge $-1 $633 $634 $632 $635 reversed $431 $-1 #
coedge $-1 $442 $636 $433 $531 reversed $351 $-1 #
edge $-1 $536 62.178701724749168 $637 82.268350243878828 $433 $638 forward 7 unknown #
coedge $-1 $639 $640 $434 $533 forward $641 $-1 #
edge $-1 $537 61.363623777589098 $637 75.569150641940297 $532 $642 forward 7 unknown #
coedge $-1 $643 $435 $640 $644 forward $527 $-1 #
coedge $-1 $435 $632 $442 $542 forward $527 $-1 #
vertex $-1 $542 $645 #
vertex $-1 $644 $646 #
straight-curve $-1 10.74290317086944 39.148122312691441 16.574309540618714 0 1 0 I I #
vertex $-1 $437 $647 #
point $-1 19.702457338756474 32.319828008222217 7.7599623017986765 #
coedge $-1 $636 $442 $634 $648 reversed $351 $-1 #
edge $-1 $649 -24.952781276138175 $536 1.1556583114664321 $535 $650 forward 7 unknown #
face $-1 $-1 $462 $16 $-1 $651 reversed single #
loop $-1 $-1 $554 $443 #
plane-surface $-1 0 41.134175121939386 0 0 -1 0 0 0 -1 forward_v I I I I #
coedge $-1 $450 $452 $553 $652 forward $444 $-1 #
edge $-1 $465 -16.574309540618717 $457 16.574309540618717 $461 $653 forward 7 unknown #
vertex $-1 $459 $654 #
straight-curve $-1 -67.411725211340681 0 -16.574309540618717 0 1 0 I I #
vertex $-1 $467 $655 #
straight-curve $-1 -67.411725211340681 0 16.574309540618717 0 -1 0 I I #
point $-1 67.411725211340681 -41.134175121939386 -16.574309540618717 #
coedge $-1 $466 $458 $546 $652 reversed $544 $-1 #
coedge $-1 $458 $466 $460 $556 forward $544 $-1 #
straight-curve $-1 0 41.134175121939386 -16.574309540618717 1 0 0 I I #
edge $-1 $468 -16.574309540618717 $463 16.574309540618717 $460 $656 forward 7 unknown #
point $-1 67.411725211340681 41.134175121939386 -16.574309540618717 #
point $-1 67.411725211340681 -41.134175121939386 16.574309540618717 #
straight-curve $-1 0 41.134175121939386 16.574309540618717 -1 0 0 I I #
point $-1 67.411725211340681 41.134175121939386 16.574309540618717 #
face $-1 $503 $572 $17 $-1 $657 reversed single #
loop $-1 $-1 $658 $470 #
coedge $-1 $659 $473 $571 $660 reversed $382 $-1 #
coedge $-1 $473 $659 $575 $661 reversed $382 $-1 #
edge $-1 $576 -16.574309540618717 $573 16.574309540618717 $473 $662 forward 7 unknown #
coedge $-1 $663 $479 $474 $567 forward $572 $-1 #
edge $-1 $484 -8.9378204729240309 $569 8.9378204729240309 $474 $664 forward 7 unknown #
coedge $-1 $476 $499 $663 $665 reversed $471 $-1 #
vertex $-1 $665 $666 #
straight-curve $-1 -62.566798440599896 -41.134175121939386 0 0 0 1 I I #
coedge $-1 $479 $667 $563 $660 forward $572 $-1 #
loop $-1 $-1 $588 $561 #
vertex $-1 $565 $668 #
straight-curve $-1 -60.036518933320103 -59.009816067787447 -16.574309540618717 -1 0 0 I I #
coedge $-1 $486 $481 $564 $661 forward $138 $-1 #
vertex $-1 $661 $669 #
straight-curve $-1 -60.036518933320103 -59.009816067787447 16.574309540618717 1 0 0 I I #
point $-1 -62.566798440599896 -59.009816067787447 16.574309540618717 #
point $-1 -62.566798440599896 -59.009816067787447 -16.574309540618717 #
coedge $-1 $658 $670 $486 $581 reversed $562 $-1 #
edge $-1 $671 -57.50623942604031 $584 67.411725211340681 $580 $501 forward 7 unknown #
coedge $-1 $672 $487 $670 $673 forward $496 $-1 #
coedge $-1 $487 $672 $489 $586 reversed $496 $-1 #
vertex $-1 $488 $674 #
straight-curve $-1 67.411725211340681 0 16.574309540618717 0 1 0 I I #
edge $-1 $490 -16.574309540618717 $590 16.574309540618717 $583 $675 forward 7 unknown #
point $-1 67.411725211340681 41.134175121939386 16.574309540618717 #
coedge $-1 $667 $491 $672 $676 forward $572 $-1 #
coedge $-1 $491 $663 $493 $592 forward $572 $-1 #
vertex $-1 $676 $677 #
straight-curve $-1 0 41.134175121939386 -16.574309540618717 1 0 0 I I #
edge $-1 $596 -41.134175121939386 $494 41.134175121939386 $493 $678 forward 7 unknown #
point $-1 -67.411725211340681 41.134175121939386 -16.574309540618717 #
straight-curve $-1 -62.566798440599896 -50.071995594863417 16.574309540618717 0 -1 0 I I #
point $-1 -62.566798440599896 -41.134175121939386 16.574309540618717 #
vertex $-1 $592 $679 #
straight-curve $-1 -67.411725211340681 -41.134175121939386 0 0 0 -1 I I #
plane-surface $-1 -67.411725211340681 0 0 1 0 0 0 0 -1 forward_v I I I I #
face $-1 $680 $681 $18 $-1 $682 reversed single #
loop $-1 $-1 $683 $505 #
plane-surface $-1 -57.50623942604031 -50.071995594863417 0 -1 0 0 0 0 1 forward_v I I I I #
coedge $-1 $684 $685 $686 $687 reversed $506 $-1 #
coedge $-1 $688 $508 $689 $690 reversed $410 $-1 #
coedge $-1 $508 $688 $691 $692 reversed $410 $-1 #
coedge $-1 $685 $684 $508 $606 reversed $506 $-1 #
edge $-1 $693 -16.574309540618717 $694 16.574309540618717 $605 $695 forward 7 unknown #
coedge $-1 $509 $696 $697 $698 forward $327 $-1 #
coedge $-1 $699 $510 $509 $609 reversed $423 $-1 #
edge $-1 $700 -67.411725211340681 $513 -36.851342758474047 $608 $525 forward 7 unknown #
vertex $-1 $517 $701 #
straight-curve $-1 36.851342758474047 41.134175121939386 77.937933318207811 0 0 1 I I #
straight-curve $-1 36.851342758474047 -17.038332537587735 60.541291685693693 0 -0.70710677298230451 0.70710678939079041 I I #
point $-1 36.851342758474047 41.134175121939386 16.574309540618717 #
point $-1 36.851342758474047 26.928648587228892 16.574309540618714 #
straight-curve $-1 11.898561482335872 41.134175121939386 2.3687826762675073 1 0 0 I I #
coedge $-1 $519 $699 $702 $703 reversed $423 $-1 #
coedge $-1 $704 $522 $519 $618 forward $625 $-1 #
edge $-1 $524 -16.574309540618717 $705 16.574309540618717 $519 $706 forward 7 unknown #
face $-1 $-1 $707 $18 $-1 $708 reversed single #
plane-surface $-1 0 41.134175121939386 0 0 -1 0 0 0 -1 forward_v I I I I #
coedge $-1 $691 $521 $685 $709 forward $327 $-1 #
coedge $-1 $710 $686 $521 $623 reversed $681 $-1 #
edge $-1 $626 -67.411725211340681 $711 -62.566798440599896 $622 $712 forward 7 unknown #
coedge $-1 $522 $704 $710 $713 reversed $625 $-1 #
loop $-1 $-1 $617 $714 #
vertex $-1 $523 $715 #
straight-curve $-1 -67.411725211340681 0 16.574309540618717 0 -1 0 I I #
point $-1 -67.411725211340681 41.134175121939386 16.574309540618717 #
face $-1 $716 $717 $19 $-1 $718 reversed single #
loop $-1 $-1 $719 $526 #
plane-surface $-1 -60.036518933320103 -59.009816067787447 0 0 1 0 0 0 1 forward_v I I I I #
coedge $-1 $535 $720 $529 $635 forward $527 $-1 #
coedge $-1 $634 $529 $721 $722 reversed $431 $-1 #
coedge $-1 $529 $633 $541 $648 forward $431 $-1 #
edge $-1 $723 -1.9860528092479441 $649 12.219473725462549 $632 $724 forward 7 unknown #
coedge $-1 $530 $541 $639 $725 reversed $351 $-1 #
vertex $-1 $725 $726 #
straight-curve $-1 10.74290317086944 -17.038332537587735 60.541291685693693 0 0.70710677298230451 -0.70710678939079041 I I #
coedge $-1 $721 $532 $636 $725 forward $641 $-1 #
coedge $-1 $532 $727 $534 $644 reversed $641 $-1 #
loop $-1 $-1 $721 $728 #
straight-curve $-1 10.74290317086944 41.134175121939386 77.937933318207811 0 0 -1 I I #
coedge $-1 $729 $534 $730 $731 forward $527 $-1 #
edge $-1 $537 -10.74290317086944 $732 67.411725211340681 $640 $733 forward 7 unknown #
point $-1 10.74290317086944 26.928648587228892 16.574309540618714 #
point $-1 10.74290317086944 41.134175121939386 16.574309540618717 #
point $-1 18.202457338756474 31.259167824136028 6.6993021423252195 #
edge $-1 $734 -82.268350243878828 $649 -62.178701724749168 $634 $735 forward 7 unknown #
vertex $-1 $542 $736 #
straight-curve $-1 11.898561482335872 26.928648587228892 16.574309540618714 -1 0 0 I I #
plane-surface $-1 67.411725211340681 0 0 -1 0 0 0 0 1 forward_v I I I I #
edge $-1 $550 -16.574309540618717 $548 16.574309540618717 $553 $737 forward 7 unknown #
straight-curve $-1 67.411725211340681 -41.134175121939386 0 0 0 -1 I I #
point $-1 -67.411725211340681 41.134175121939386 -16.574309540618717 #
point $-1 -67.411725211340681 41.134175121939386 16.574309540618717 #
straight-curve $-1 67.411725211340681 41.134175121939386 0 0 0 -1 I I #
plane-surface $-1 0 0 -16.574309540618717 0 0 1 1 0 0 forward_v I I I I #
coedge $-1 $738 $580 $659 $739 forward $562 $-1 #
coedge $-1 $564 $563 $658 $739 reversed $382 $-1 #
edge $-1 $740 -8.9378204729240309 $573 8.9378204729240309 $563 $741 forward 7 unknown #
edge $-1 $576 -8.9378204729240309 $671 8.9378204729240309 $564 $742 forward 7 unknown #
straight-curve $-1 -57.50623942604031 -59.009816067787447 0 0 0 -1 I I #
coedge $-1 $589 $566 $568 $665 forward $572 $-1 #
straight-curve $-1 -62.566798440599896 -50.071995594863417 -16.574309540618717 0 1 0 I I #
edge $-1 $569 62.566798440599896 $596 67.411725211340681 $568 $743 forward 7 unknown #
point $-1 -62.566798440599896 -41.134175121939386 -16.574309540618717 #
coedge $-1 $571 $588 $738 $744 forward $572 $-1 #
point $-1 -57.50623942604031 -59.009816067787447 -16.574309540618717 #
point $-1 -57.50623942604031 -59.009816067787447 16.574309540618717 #
coedge $-1 $580 $738 $582 $673 reversed $562 $-1 #
vertex $-1 $581 $745 #
coedge $-1 $583 $582 $588 $676 reversed $496 $-1 #
edge $-1 $584 -16.574309540618717 $746 16.574309540618717 $582 $747 forward 7 unknown #
point $-1 67.411725211340681 -41.134175121939386 16.574309540618717 #
straight-curve $-1 67.411725211340681 41.134175121939386 0 0 0 -1 I I #
edge $-1 $590 -41.134175121939386 $746 41.134175121939386 $672 $748 forward 7 unknown #
point $-1 67.411725211340681 41.134175121939386 -16.574309540618717 #
straight-curve $-1 -67.411725211340681 0 -16.574309540618717 0 1 0 I I #
point $-1 -67.411725211340681 -41.134175121939386 -16.574309540618717 #
face $-1 $749 $750 $18 $-1 $682 reversed single #
loop $-1 $-1 $686 $599 #
plane-surface $-1 0 -41.134175121939386 0 0 1 0 0 0 1 forward_v I I I I #
coedge $-1 $751 $752 $688 $753 forward $600 $-1 #
coedge $-1 $605 $602 $754 $755 reversed $506 $-1 #
coedge $-1 $602 $605 $621 $709 reversed $506 $-1 #
coedge $-1 $622 $756 $602 $687 forward $681 $-1 #
edge $-1 $757 -16.574309540618717 $711 16.574309540618717 $686 $758 forward 7 unknown #
coedge $-1 $604 $603 $683 $753 reversed $410 $-1 #
coedge $-1 $754 $759 $603 $690 forward $760 $-1 #
edge $-1 $761 -2.5302795072797934 $694 2.5302795072797934 $603 $762 forward 7 unknown #
coedge $-1 $763 $621 $604 $692 forward $327 $-1 #
edge $-1 $693 -2.5302795072797934 $764 2.5302795072797934 $604 $765 forward 7 unknown #
vertex $-1 $709 $766 #
vertex $-1 $755 $767 #
straight-curve $-1 -62.566798440599896 -59.009816067787447 0 0 0 -1 I I #
coedge $-1 $607 $763 $768 $769 forward $327 $-1 #
coedge $-1 $770 $771 $607 $698 reversed $707 $-1 #
edge $-1 $772 -41.134175121939386 $700 41.134175121939386 $697 $773 forward 7 unknown #
coedge $-1 $616 $608 $771 $774 forward $423 $-1 #
vertex $-1 $698 $775 #
point $-1 36.851342758474047 41.134175121939386 2.3687826762675073 #
coedge $-1 $776 $777 $616 $703 forward $760 $-1 #
edge $-1 $705 -67.411725211340681 $778 67.411725211340681 $616 $779 forward 7 unknown #
coedge $-1 $624 $617 $777 $780 reversed $625 $-1 #
vertex $-1 $703 $781 #
straight-curve $-1 -67.411725211340681 41.134175121939386 0 0 0 -1 I I #
loop $-1 $-1 $770 $619 #
plane-surface $-1 67.411725211340681 0 0 -1 0 0 0 0 1 forward_v I I I I #
edge $-1 $711 -8.9378204729240309 $693 8.9378204729240309 $685 $782 forward 7 unknown #
coedge $-1 $756 $622 $624 $713 forward $681 $-1 #
vertex $-1 $709 $783 #
straight-curve $-1 0 -41.134175121939386 16.574309540618717 1 0 0 I I #
edge $-1 $626 -16.574309540618717 $784 16.574309540618717 $624 $785 forward 7 unknown #
face $-1 $520 $625 $18 $-1 $786 reversed single #
point $-1 -67.411725211340681 -41.134175121939386 16.574309540618717 #
face $-1 $787 $788 $19 $-1 $789 reversed single #
loop $-1 $-1 $790 $629 #
plane-surface $-1 -62.566798440599896 -50.071995594863417 0 1 0 0 0 0 -1 forward_v I I I I #
coedge $-1 $791 $792 $793 $794 forward $630 $-1 #
coedge $-1 $632 $795 $796 $797 forward $527 $-1 #
coedge $-1 $796 $639 $633 $722 forward $641 $-1 #
edge $-1 $734 -75.569150641940297 $723 -61.363623777589098 $721 $798 forward 7 unknown #
vertex $-1 $722 $799 #
straight-curve $-1 36.851342758474047 39.148122312691441 16.574309540618714 0 -1 0 I I #
edge $-1 $637 -1.1556583114664321 $734 24.952781276138175 $639 $800 forward 7 unknown #
point $-1 10.74290317086944 41.134175121939386 2.3687826762675073 #
coedge $-1 $640 $801 $802 $803 reversed $641 $-1 #
face $-1 $804 $641 $19 $-1 $805 reversed single #
coedge $-1 $806 $643 $807 $808 forward $527 $-1 #
coedge $-1 $802 $809 $643 $731 reversed $810 $-1 #
edge $-1 $732 -41.134175121939386 $811 41.134175121939386 $730 $812 forward 7 unknown #
vertex $-1 $644 $813 #
straight-curve $-1 0 41.134175121939386 16.574309540618717 -1 0 0 I I #
vertex $-1 $725 $814 #
straight-curve $-1 36.851342758474047 -17.038332537587735 60.541291685693693 0 -0.70710677298230451 0.70710678939079041 I I #
point $-1 36.851342758474047 26.928648587228892 16.574309540618714 #
straight-curve $-1 -67.411725211340681 41.134175121939386 0 0 0 -1 I I #
coedge $-1 $670 $658 $667 $744 reversed $562 $-1 #
edge $-1 $671 -16.574309540618717 $740 16.574309540618717 $658 $815 forward 7 unknown #
vertex $-1 $660 $816 #
straight-curve $-1 -57.50623942604031 -50.071995594863417 -16.574309540618717 0 -1 0 I I #
straight-curve $-1 -57.50623942604031 -50.071995594863417 16.574309540618717 0 1 0 I I #
straight-curve $-1 0 -41.134175121939386 -16.574309540618717 -1 0 0 I I #
edge $-1 $746 -67.411725211340681 $740 57.50623942604031 $738 $743 forward 7 unknown #
point $-1 -57.50623942604031 -41.134175121939386 16.574309540618717 #
vertex $-1 $673 $817 #
straight-curve $-1 67.411725211340681 -41.134175121939386 0 0 0 -1 I I #
straight-curve $-1 67.411725211340681 0 -16.574309540618717 0 -1 0 I I #
face $-1 $714 $760 $18 $-1 $818 reversed single #
loop $-1 $-1 $819 $680 #
coedge $-1 $820 $683 $759 $821 reversed $600 $-1 #
coedge $-1 $683 $820 $763 $822 reversed $600 $-1 #
edge $-1 $764 -16.574309540618717 $761 16.574309540618717 $683 $823 forward 7 unknown #
coedge $-1 $824 $689 $684 $755 forward $760 $-1 #
edge $-1 $694 -8.9378204729240309 $757 8.9378204729240309 $684 $825 forward 7 unknown #
coedge $-1 $686 $710 $824 $826 reversed $681 $-1 #
vertex $-1 $826 $827 #
straight-curve $-1 -62.566798440599896 -41.134175121939386 0 0 0 1 I I #
coedge $-1 $689 $828 $751 $821 forward $760 $-1 #
loop $-1 $-1 $776 $749 #
vertex $-1 $753 $829 #
straight-curve $-1 -60.036518933320103 -59.009816067787447 -16.574309540618717 -1 0 0 I I #
coedge $-1 $696 $691 $752 $822 forward $327 $-1 #
vertex $-1 $822 $830 #
straight-curve $-1 -60.036518933320103 -59.009816067787447 16.574309540618717 1 0 0 I I #
point $-1 -62.566798440599896 -59.009816067787447 16.574309540618717 #
point $-1 -62.566798440599896 -59.009816067787447 -16.574309540618717 #
coedge $-1 $819 $831 $696 $769 reversed $750 $-1 #
edge $-1 $832 -57.50623942604031 $772 67.411725211340681 $768 $712 forward 7 unknown #
coedge $-1 $833 $697 $831 $834 forward $707 $-1 #
coedge $-1 $697 $833 $699 $774 reversed $707 $-1 #
vertex $-1 $698 $835 #
straight-curve $-1 67.411725211340681 0 16.574309540618717 0 1 0 I I #
edge $-1 $700 -16.574309540618717 $778 16.574309540618717 $771 $836 forward 7 unknown #
point $-1 67.411725211340681 41.134175121939386 16.574309540618717 #
coedge $-1 $828 $702 $833 $837 forward $760 $-1 #
coedge $-1 $702 $824 $704 $780 forward $760 $-1 #
vertex $-1 $837 $838 #
straight-curve $-1 0 41.134175121939386 -16.574309540618717 1 0 0 I I #
edge $-1 $784 -41.134175121939386 $705 41.134175121939386 $704 $839 forward 7 unknown #
point $-1 -67.411725211340681 41.134175121939386 -16.574309540618717 #
straight-curve $-1 -62.566798440599896 -50.071995594863417 16.574309540618717 0 -1 0 I I #
point $-1 -62.566798440599896 -41.134175121939386 16.574309540618717 #
vertex $-1 $780 $840 #
straight-curve $-1 -67.411725211340681 -41.134175121939386 0 0 0 -1 I I #
plane-surface $-1 -67.411725211340681 0 0 1 0 0 0 0 -1 forward_v I I I I #
face $-1 $841 $842 $19 $-1 $843 reversed single #
loop $-1 $-1 $844 $716 #
plane-surface $-1 -57.50623942604031 -50.071995594863417 0 -1 0 0 0 0 1 forward_v I I I I #
coedge $-1 $845 $846 $847 $848 reversed $717 $-1 #
coedge $-1 $849 $719 $850 $851 reversed $630 $-1 #
coedge $-1 $719 $849 $852 $853 reversed $630 $-1 #
coedge $-1 $846 $845 $719 $794 reversed $717 $-1 #
edge $-1 $854 -16.574309540618717 $855 16.574309540618717 $793 $856 forward 7 unknown #
coedge $-1 $720 $857 $858 $859 forward $527 $-1 #
coedge $-1 $860 $721 $720 $797 reversed $641 $-1 #
edge $-1 $861 -67.411725211340681 $723 -36.851342758474047 $796 $733 forward 7 unknown #
straight-curve $-1 36.851342758474047 41.134175121939386 77.937933318207811 0 0 1 I I #
point $-1 36.851342758474047 41.134175121939386 16.574309540618717 #
straight-curve $-1 11.898561482335872 41.134175121939386 2.3687826762675073 1 0 0 I I #
coedge $-1 $727 $860 $862 $863 reversed $641 $-1 #
coedge $-1 $864 $730 $727 $803 forward $810 $-1 #
edge $-1 $732 -16.574309540618717 $865 16.574309540618717 $727 $866 forward 7 unknown #
face $-1 $-1 $867 $19 $-1 $868 reversed single #
plane-surface $-1 0 41.134175121939386 0 0 -1 0 0 0 -1 forward_v I I I I #
coedge $-1 $852 $729 $846 $869 forward $527 $-1 #
coedge $-1 $870 $847 $729 $808 reversed $842 $-1 #
edge $-1 $811 -67.411725211340681 $871 -62.566798440599896 $807 $872 forward 7 unknown #
coedge $-1 $730 $864 $870 $873 reversed $810 $-1 #
loop $-1 $-1 $802 $874 #
vertex $-1 $731 $875 #
straight-curve $-1 -67.411725211340681 0 16.574309540618717 0 -1 0 I I #
point $-1 -67.411725211340681 41.134175121939386 16.574309540618717 #
point $-1 36.851342758474047 41.134175121939386 2.3687826762675073 #
straight-curve $-1 -57.50623942604031 -41.134175121939386 0 0 0 -1 I I #
point $-1 -57.50623942604031 -41.134175121939386 -16.574309540618717 #
point $-1 67.411725211340681 -41.134175121939386 -16.574309540618717 #
plane-surface $-1 0 0 -16.574309540618717 0 0 1 1 0 0 forward_v I I I I #
coedge $-1 $876 $768 $820 $877 forward $750 $-1 #
coedge $-1 $752 $751 $819 $877 reversed $600 $-1 #
edge $-1 $878 -8.9378204729240309 $761 8.9378204729240309 $751 $879 forward 7 unknown #
edge $-1 $764 -8.9378204729240309 $832 8.9378204729240309 $752 $880 forward 7 unknown #
straight-curve $-1 -57.50623942604031 -59.009816067787447 0 0 0 -1 I I #
coedge $-1 $777 $754 $756 $826 forward $760 $-1 #
straight-curve $-1 -62.566798440599896 -50.071995594863417 -16.574309540618717 0 1 0 I I #
edge $-1 $757 62.566798440599896 $784 67.411725211340681 $756 $881 forward 7 unknown #
point $-1 -62.566798440599896 -41.134175121939386 -16.574309540618717 #
coedge $-1 $759 $776 $876 $882 forward $760 $-1 #
point $-1 -57.50623942604031 -59.009816067787447 -16.574309540618717 #
point $-1 -57.50623942604031 -59.009816067787447 16.574309540618717 #
coedge $-1 $768 $876 $770 $834 reversed $750 $-1 #
vertex $-1 $769 $883 #
coedge $-1 $771 $770 $776 $837 reversed $707 $-1 #
edge $-1 $772 -16.574309540618717 $884 16.574309540618717 $770 $885 forward 7 unknown #
point $-1 67.411725211340681 -41.134175121939386 16.574309540618717 #
straight-curve $-1 67.411725211340681 41.134175121939386 0 0 0 -1 I I #
edge $-1 $778 -41.134175121939386 $884 41.134175121939386 $833 $886 forward 7 unknown #
point $-1 67.411725211340681 41.134175121939386 -16.574309540618717 #
straight-curve $-1 -67.411725211340681 0 -16.574309540618717 0 1 0 I I #
point $-1 -67.411725211340681 -41.134175121939386 -16.574309540618717 #
face $-1 $887 $888 $19 $-1 $843 reversed single #
loop $-1 $-1 $847 $787 #
plane-surface $-1 0 -41.134175121939386 0 0 1 0 0 0 1 forward_v I I I I #
coedge $-1 $889 $890 $849 $891 forward $788 $-1 #
coedge $-1 $793 $790 $892 $893 reversed $717 $-1 #
coedge $-1 $790 $793 $806 $869 reversed $717 $-1 #
coedge $-1 $807 $894 $790 $848 forward $842 $-1 #
edge $-1 $895 -16.574309540618717 $871 16.574309540618717 $847 $896 forward 7 unknown #
coedge $-1 $792 $791 $844 $891 reversed $630 $-1 #
coedge $-1 $892 $897 $791 $851 forward $898 $-1 #
edge $-1 $899 -2.5302795072797934 $855 2.5302795072797934 $791 $900 forward 7 unknown #
coedge $-1 $901 $806 $792 $853 forward $527 $-1 #
edge $-1 $854 -2.5302795072797934 $902 2.5302795072797934 $792 $903 forward 7 unknown #
vertex $-1 $869 $904 #
vertex $-1 $893 $905 #
straight-curve $-1 -62.566798440599896 -59.009816067787447 0 0 0 -1 I I #
coedge $-1 $795 $901 $906 $907 forward $527 $-1 #
coedge $-1 $908 $909 $795 $859 reversed $867 $-1 #
edge $-1 $910 -41.134175121939386 $861 41.134175121939386 $858 $911 forward 7 unknown #
coedge $-1 $801 $796 $909 $912 forward $641 $-1 #
vertex $-1 $859 $913 #
coedge $-1 $914 $915 $801 $863 forward $898 $-1 #
edge $-1 $865 -67.411725211340681 $916 67.411725211340681 $801 $917 forward 7 unknown #
coedge $-1 $809 $802 $915 $918 reversed $810 $-1 #
vertex $-1 $863 $919 #
straight-curve $-1 -67.411725211340681 41.134175121939386 0 0 0 -1 I I #
loop $-1 $-1 $908 $804 #
plane-surface $-1 67.411725211340681 0 0 -1 0 0 0 0 1 forward_v I I I I #
edge $-1 $871 -8.9378204729240309 $854 8.9378204729240309 $846 $920 forward 7 unknown #
coedge $-1 $894 $807 $809 $873 forward $842 $-1 #
vertex $-1 $869 $921 #
straight-curve $-1 0 -41.134175121939386 16.574309540618717 1 0 0 I I #
edge $-1 $811 -16.574309540618717 $922 16.574309540618717 $809 $923 forward 7 unknown #
face $-1 $728 $810 $19 $-1 $924 reversed single #
point $-1 -67.411725211340681 -41.134175121939386 16.574309540618717 #
coedge $-1 $831 $819 $828 $882 reversed $750 $-1 #
edge $-1 $832 -16.574309540618717 $878 16.574309540618717 $819 $925 forward 7 unknown #
vertex $-1 $821 $926 #
straight-curve $-1 -57.50623942604031 -50.071995594863417 -16.574309540618717 0 -1 0 I I #
straight-curve $-1 -57.50623942604031 -50.071995594863417 16.574309540618717 0 1 0 I I #
straight-curve $-1 0 -41.134175121939386 -16.574309540618717 -1 0 0 I I #
edge $-1 $884 -67.411725211340681 $878 57.50623942604031 $876 $881 forward 7 unknown #
point $-1 -57.50623942604031 -41.134175121939386 16.574309540618717 #
vertex $-1 $834 $927 #
straight-curve $-1 67.411725211340681 -41.134175121939386 0 0 0 -1 I I #
straight-curve $-1 67.411725211340681 0 -16.574309540618717 0 -1 0 I I #
face $-1 $874 $898 $19 $-1 $928 reversed single #
loop $-1 $-1 $929 $841 #
coedge $-1 $930 $844 $897 $931 reversed $788 $-1 #
coedge $-1 $844 $930 $901 $932 reversed $788 $-1 #
edge $-1 $902 -16.574309540618717 $899 16.574309540618717 $844 $933 forward 7 unknown #
coedge $-1 $934 $850 $845 $893 forward $898 $-1 #
edge $-1 $855 -8.9378204729240309 $895 8.9378204729240309 $845 $935 forward 7 unknown #
coedge $-1 $847 $870 $934 $936 reversed $842 $-1 #
vertex $-1 $936 $937 #
straight-curve $-1 -62.566798440599896 -41.134175121939386 0 0 0 1 I I #
coedge $-1 $850 $938 $889 $931 forward $898 $-1 #
loop $-1 $-1 $914 $887 #
vertex $-1 $891 $939 #
straight-curve $-1 -60.036518933320103 -59.009816067787447 -16.574309540618717 -1 0 0 I I #
coedge $-1 $857 $852 $890 $932 forward $527 $-1 #
vertex $-1 $932 $940 #
straight-curve $-1 -60.036518933320103 -59.009816067787447 16.574309540618717 1 0 0 I I #
point $-1 -62.566798440599896 -59.009816067787447 16.574309540618717 #
point $-1 -62.566798440599896 -59.009816067787447 -16.574309540618717 #
coedge $-1 $929 $941 $857 $907 reversed $888 $-1 #
edge $-1 $942 -57.50623942604031 $910 67.411725211340681 $906 $872 forward 7 unknown #
coedge $-1 $943 $858 $941 $944 forward $867 $-1 #
coedge $-1 $858 $943 $860 $912 reversed $867 $-1 #
vertex $-1 $859 $945 #
straight-curve $-1 67.411725211340681 0 16.574309540618717 0 1 0 I I #
edge $-1 $861 -16.574309540618717 $916 16.574309540618717 $909 $946 forward 7 unknown #
point $-1 67.411725211340681 41.134175121939386 16.574309540618717 #
coedge $-1 $938 $862 $943 $947 forward $898 $-1 #
coedge $-1 $862 $934 $864 $918 forward $898 $-1 #
vertex $-1 $947 $948 #
straight-curve $-1 0 41.134175121939386 -16.574309540618717 1 0 0 I I #
edge $-1 $922 -41.134175121939386 $865 41.134175121939386 $864 $949 forward 7 unknown #
point $-1 -67.411725211340681 41.134175121939386 -16.574309540618717 #
straight-curve $-1 -62.566798440599896 -50.071995594863417 16.574309540618717 0 -1 0 I I #
point $-1 -62.566798440599896 -41.134175121939386 16.574309540618717 #
vertex $-1 $918 $950 #
straight-curve $-1 -67.411725211340681 -41.134175121939386 0 0 0 -1 I I #
plane-surface $-1 -67.411725211340681 0 0 1 0 0 0 0 -1 forward_v I I I I #
straight-curve $-1 -57.50623942604031 -41.134175121939386 0 0 0 -1 I I #
point $-1 -57.50623942604031 -41.134175121939386 -16.574309540618717 #
point $-1 67.411725211340681 -41.134175121939386 -16.574309540618717 #
plane-surface $-1 0 0 -16.574309540618717 0 0 1 1 0 0 forward_v I I I I #
coedge $-1 $951 $906 $930 $952 forward $888 $-1 #
coedge $-1 $890 $889 $929 $952 reversed $788 $-1 #
edge $-1 $953 -8.9378204729240309 $899 8.9378204729240309 $889 $954 forward 7 unknown #
edge $-1 $902 -8.9378204729240309 $942 8.9378204729240309 $890 $955 forward 7 unknown #
straight-curve $-1 -57.50623942604031 -59.009816067787447 0 0 0 -1 I I #
coedge $-1 $915 $892 $894 $936 forward $898 $-1 #
straight-curve $-1 -62.566798440599896 -50.071995594863417 -16.574309540618717 0 1 0 I I #
edge $-1 $895 62.566798440599896 $922 67.411725211340681 $894 $956 forward 7 unknown #
point $-1 -62.566798440599896 -41.134175121939386 -16.574309540618717 #
coedge $-1 $897 $914 $951 $957 forward $898 $-1 #
point $-1 -57.50623942604031 -59.009816067787447 -16.574309540618717 #
point $-1 -57.50623942604031 -59.009816067787447 16.574309540618717 #
coedge $-1 $906 $951 $908 $944 reversed $888 $-1 #
vertex $-1 $907 $958 #
coedge $-1 $909 $908 $914 $947 reversed $867 $-1 #
edge $-1 $910 -16.574309540618717 $959 16.574309540618717 $908 $960 forward 7 unknown #
point $-1 67.411725211340681 -41.134175121939386 16.574309540618717 #
straight-curve $-1 67.411725211340681 41.134175121939386 0 0 0 -1 I I #
edge $-1 $916 -41.134175121939386 $959 41.134175121939386 $943 $961 forward 7 unknown #
point $-1 67.411725211340681 41.134175121939386 -16.574309540618717 #
straight-curve $-1 -67.411725211340681 0 -16.574309540618717 0 1 0 I I #
point $-1 -67.411725211340681 -41.134175121939386 -16.574309540618717 #
coedge $-1 $941 $929 $938 $957 reversed $888 $-1 #
edge $-1 $942 -16.574309540618717 $953 16.574309540618717 $929 $962 forward 7 unknown #
vertex $-1 $931 $963 #
straight-curve $-1 -57.50623942604031 -50.071995594863417 -16.574309540618717 0 -1 0 I I #
straight-curve $-1 -57.50623942604031 -50.071995594863417 16.574309540618717 0 1 0 I I #
straight-curve $-1 0 -41.134175121939386 -16.574309540618717 -1 0 0 I I #
edge $-1 $959 -67.411725211340681 $953 57.50623942604031 $951 $956 forward 7 unknown #
point $-1 -57.50623942604031 -41.134175121939386 16.574309540618717 #
vertex $-1 $944 $964 #
straight-curve $-1 67.411725211340681 -41.134175121939386 0 0 0 -1 I I #
straight-curve $-1 67.411725211340681 0 -16.574309540618717 0 -1 0 I I #
straight-curve $-1 -57.50623942604031 -41.134175121939386 0 0 0 -1 I I #
point $-1 -57.50623942604031 -41.134175121939386 -16.574309540618717 #
point $-1 67.411725211340681 -41.134175121939386 -16.574309540618717 #
End-of-ACIS-data 