500 0 7 0           
7 Unknown 11 ACIS 5.0 NT 24 Fri Mar 26 00:29:08 1999 
-1 9.9999999999999995e-007 1e-010 
body $-1 $7 $-1 $8 #
body $-1 $9 $-1 $10 #
body $-1 $11 $-1 $12 #
body $-1 $13 $-1 $14 #
body $-1 $15 $-1 $16 #
body $-1 $17 $-1 $18 #
body $-1 $19 $-1 $20 #
lump $-1 $-1 $21 $0 #
transform $-1 1 0 0 0 1 0 0 0 1 55.006561479537339 32.924533513657579 9.1890667877971719 1 rotate no_reflect no_shear #
lump $-1 $-1 $22 $1 #
transform $-1 1 0 0 0 1 0 0 0 1 55.006561479537339 32.924533513657579 9.1890667877971719 1 rotate no_reflect no_shear #
lump $-1 $-1 $23 $2 #
transform $-1 1 0 0 0 1 0 0 0 1 55.006561479537339 32.924533513657579 9.1890667877971719 1 rotate no_reflect no_shear #
lump $-1 $-1 $24 $3 #
transform $-1 1 0 0 0 1 0 0 0 1 55.006561479537339 32.924533513657579 9.1890667877971719 1 rotate no_reflect no_shear #
lump $-1 $-1 $25 $4 #
transform $-1 1 0 0 0 1 0 0 0 1 55.006561479537339 32.924533513657579 9.1890667877971719 1 rotate no_reflect no_shear #
lump $-1 $-1 $26 $5 #
transform $-1 1 0 0 0 1 0 0 0 1 55.006561479537339 32.924533513657579 9.1890667877971719 1 rotate no_reflect no_shear #
lump $-1 $-1 $27 $6 #
transform $-1 1 0 0 0 1 0 0 0 1 55.006561479537339 32.924533513657579 9.1890667877971719 1 rotate no_reflect no_shear #
shell $-1 $-1 $-1 $28 $-1 $7 #
shell $-1 $-1 $-1 $29 $-1 $9 #
shell $-1 $-1 $-1 $30 $-1 $11 #
shell $-1 $-1 $-1 $31 $-1 $13 #
shell $-1 $-1 $-1 $32 $-1 $15 #
shell $-1 $-1 $-1 $33 $-1 $17 #
shell $-1 $-1 $-1 $34 $-1 $19 #
face $-1 $35 $36 $21 $-1 $37 forward single #
face $-1 $38 $39 $22 $-1 $40 reversed single #
face $-1 $41 $42 $23 $-1 $43 forward single #
face $-1 $44 $45 $24 $-1 $46 forward single #
face $-1 $47 $48 $25 $-1 $49 reversed single #
face $-1 $50 $51 $26 $-1 $52 forward single #
face $-1 $53 $54 $27 $-1 $55 forward single #
face $-1 $56 $57 $21 $-1 $58 reversed single #
loop $-1 $-1 $59 $28 #
plane-surface $-1 0 0 9.1890667877971719 0 0 1 1 0 0 forward_v I I I I #
face $-1 $60 $61 $22 $-1 $62 reversed single #
loop $-1 $-1 $63 $29 #
plane-surface $-1 -150.28072156271236 17.392015310562343 60.095772186504632 0 1 0 -0.86602541151947299 0 0.49999998660252726 forward_v I I I I #
face $-1 $64 $65 $23 $-1 $66 forward single #
loop $-1 $67 $68 $30 #
cone-surface $-1 -52.796581115127523 21.829877654303836 6.5465158239508074 0.86602541151947299 0 -0.49999998660252726 0.49999998660252726 0 0.86602541151947299 1 I I 0 1 1 forward I I I I #
face $-1 $69 $70 $24 $-1 $71 forward single #
loop $-1 $72 $73 $31 #
cone-surface $-1 -52.796581115127523 28.486671169916079 6.5465158239508074 0.86602541151947299 0 -0.49999998660252726 0.49999998660252726 0 0.86602541151947299 1 I I 0 1 1 forward I I I I #
face $-1 $74 $75 $25 $-1 $76 reversed single #
loop $-1 $-1 $77 $32 #
plane-surface $-1 95.274161557072858 17.392015310562343 155.36993226967968 0 1 0 0.86602541151947299 0 0.49999998660252726 forward_v I I I I #
face $-1 $78 $79 $26 $-1 $80 forward single #
loop $-1 $81 $82 $33 #
cone-surface $-1 52.796581115127516 21.829877654303836 6.546515823950811 -0.86602541151947299 0 -0.49999998660252726 0.49999998660252726 0 -0.86602541151947299 1 I I 0 1 1 forward I I I I #
face $-1 $83 $84 $27 $-1 $85 forward single #
loop $-1 $86 $87 $34 #
cone-surface $-1 52.796581115127516 28.486671169916079 6.546515823950811 -0.86602541151947299 0 -0.49999998660252726 0.49999998660252726 0 -0.86602541151947299 1 I I 0 1 1 forward I I I I #
face $-1 $88 $89 $21 $-1 $90 reversed single #
loop $-1 $-1 $91 $35 #
plane-surface $-1 0 0 -9.1890667877971719 0 0 1 1 0 0 forward_v I I I I #
coedge $-1 $92 $93 $94 $95 forward $36 $-1 #
face $-1 $96 $97 $22 $-1 $98 forward single #
loop $-1 $-1 $99 $38 #
plane-surface $-1 -55.006561479537325 25.158274412109961 5.0892121808651112 -0.86602541151947299 0 0.49999998660252726 0.49999998660252726 0 0.86602541151947299 forward_v I I I I #
coedge $-1 $100 $101 $102 $103 reversed $39 $-1 #
face $-1 $-1 $104 $23 $-1 $105 forward single #
loop $-1 $106 $107 $41 #
cone-surface $-1 -51.337114083149892 21.829877654303836 5.7038921702692118 0.86602541151947299 0 -0.49999998660252726 0.24999999330126363 0 0.43301270575973649 1 I I -0.70710678118654746 0.70710678118654746 0.5 forward I I I I #
loop $-1 $-1 $108 $30 #
coedge $-1 $68 $68 $109 $110 reversed $42 $-1 #
face $-1 $-1 $111 $24 $-1 $112 forward single #
loop $-1 $113 $114 $44 #
cone-surface $-1 -51.337114083149892 28.486671169916079 5.7038921702692118 0.86602541151947299 0 -0.49999998660252726 0.24999999330126363 0 0.43301270575973649 1 I I -0.70710678118654746 0.70710678118654746 0.5 forward I I I I #
loop $-1 $-1 $115 $31 #
coedge $-1 $73 $73 $116 $117 reversed $45 $-1 #
face $-1 $118 $119 $25 $-1 $120 reversed single #
loop $-1 $-1 $121 $47 #
plane-surface $-1 1.4738978251216395e-006 25.158274412109961 100.36337226404015 0.86602541151947299 0 0.49999998660252726 0.49999998660252726 0 -0.86602541151947299 forward_v I I I I #
coedge $-1 $122 $123 $124 $125 reversed $48 $-1 #
face $-1 $-1 $126 $26 $-1 $127 forward single #
loop $-1 $128 $129 $50 #
cone-surface $-1 51.337114083149885 21.829877654303836 5.7038921702692154 -0.86602541151947299 0 -0.49999998660252726 0.24999999330126363 0 -0.43301270575973649 1 I I -0.70710678118654746 0.70710678118654746 0.5 forward I I I I #
loop $-1 $-1 $130 $33 #
coedge $-1 $82 $82 $131 $132 reversed $51 $-1 #
face $-1 $-1 $133 $27 $-1 $134 forward single #
loop $-1 $135 $136 $53 #
cone-surface $-1 51.337114083149885 28.486671169916079 5.7038921702692154 -0.86602541151947299 0 -0.49999998660252726 0.24999999330126363 0 -0.43301270575973649 1 I I -0.70710678118654746 0.70710678118654746 0.5 forward I I I I #
loop $-1 $-1 $137 $34 #
coedge $-1 $87 $87 $138 $139 reversed $54 $-1 #
face $-1 $140 $141 $21 $-1 $142 reversed single #
loop $-1 $-1 $143 $56 #
plane-surface $-1 0 -32.924533513657579 0 0 1 0 0 0 1 forward_v I I I I #
coedge $-1 $144 $145 $146 $147 forward $57 $-1 #
coedge $-1 $148 $59 $149 $150 forward $36 $-1 #
coedge $-1 $59 $148 $151 $152 forward $36 $-1 #
coedge $-1 $153 $154 $59 $95 reversed $155 $-1 #
edge $-1 $156 -32.924533513657579 $157 32.924533513657579 $94 $158 forward 7 unknown #
face $-1 $159 $160 $22 $-1 $161 reversed single #
loop $-1 $-1 $102 $60 #
plane-surface $-1 0 0 9.1890667877971719 0 0 1 1 0 0 forward_v I I I I #
coedge $-1 $162 $163 $164 $165 reversed $61 $-1 #
coedge $-1 $101 $63 $166 $167 reversed $39 $-1 #
coedge $-1 $63 $100 $162 $168 reversed $39 $-1 #
coedge $-1 $164 $169 $63 $103 forward $97 $-1 #
edge $-1 $170 20.13379930181884 $171 22.500851378202697 $102 $172 forward 7 unknown #
loop $-1 $-1 $109 $64 #
plane-surface $-1 -55.006561479537325 25.158274412109961 5.0892121808651112 -0.86602541151947299 0 0.49999998660252726 0.49999998660252726 0 0.86602541151947299 forward_v I I I I #
loop $-1 $-1 $173 $41 #
coedge $-1 $107 $107 $108 $174 reversed $65 $-1 #
coedge $-1 $108 $108 $107 $174 forward $67 $-1 #
coedge $-1 $109 $109 $68 $110 forward $104 $-1 #
edge $-1 $175 0 $175 6.2831853071796004 $109 $176 forward 7 unknown #
loop $-1 $-1 $116 $69 #
plane-surface $-1 -55.006561479537325 25.158274412109961 5.0892121808651112 -0.86602541151947299 0 0.49999998660252726 0.49999998660252726 0 0.86602541151947299 forward_v I I I I #
loop $-1 $-1 $177 $44 #
coedge $-1 $114 $114 $115 $178 reversed $70 $-1 #
coedge $-1 $115 $115 $114 $178 forward $72 $-1 #
coedge $-1 $116 $116 $73 $117 forward $111 $-1 #
edge $-1 $179 0 $179 6.2831853071796004 $116 $180 forward 7 unknown #
face $-1 $181 $182 $25 $-1 $183 forward single #
loop $-1 $-1 $124 $74 #
plane-surface $-1 55.006561479537339 0 0 -1 0 0 0 0 1 forward_v I I I I #
coedge $-1 $184 $185 $186 $187 reversed $75 $-1 #
coedge $-1 $123 $77 $188 $189 reversed $48 $-1 #
coedge $-1 $77 $122 $184 $190 reversed $48 $-1 #
coedge $-1 $186 $191 $77 $125 forward $119 $-1 #
edge $-1 $192 68.495899347042666 $193 72.595753953974707 $124 $194 forward 7 unknown #
loop $-1 $-1 $131 $78 #
plane-surface $-1 1.4738978251216395e-006 25.158274412109961 100.36337226404015 0.86602541151947299 0 0.49999998660252726 0.49999998660252726 0 -0.86602541151947299 forward_v I I I I #
loop $-1 $-1 $195 $50 #
coedge $-1 $129 $129 $130 $196 reversed $79 $-1 #
coedge $-1 $130 $130 $129 $196 forward $81 $-1 #
coedge $-1 $131 $131 $82 $132 forward $126 $-1 #
edge $-1 $197 0 $197 6.2831853071796004 $131 $198 forward 7 unknown #
loop $-1 $-1 $138 $83 #
plane-surface $-1 1.4738978251216395e-006 25.158274412109961 100.36337226404015 0.86602541151947299 0 0.49999998660252726 0.49999998660252726 0 -0.86602541151947299 forward_v I I I I #
loop $-1 $-1 $199 $53 #
coedge $-1 $136 $136 $137 $200 reversed $84 $-1 #
coedge $-1 $137 $137 $136 $200 forward $86 $-1 #
coedge $-1 $138 $138 $87 $139 forward $133 $-1 #
edge $-1 $201 0 $201 6.2831853071796004 $138 $202 forward 7 unknown #
face $-1 $203 $204 $21 $-1 $205 reversed single #
loop $-1 $-1 $206 $88 #
plane-surface $-1 -55.006561479537339 0 0 1 0 0 0 0 -1 forward_v I I I I #
coedge $-1 $207 $151 $208 $209 forward $89 $-1 #
coedge $-1 $210 $91 $207 $211 forward $57 $-1 #
coedge $-1 $91 $210 $212 $213 forward $57 $-1 #
coedge $-1 $154 $153 $91 $147 reversed $155 $-1 #
edge $-1 $214 -32.924533513657579 $215 32.924533513657579 $146 $216 forward 7 unknown #
coedge $-1 $93 $92 $217 $218 forward $36 $-1 #
coedge $-1 $219 $220 $92 $150 reversed $204 $-1 #
edge $-1 $157 -55.006561479537339 $221 55.006561479537339 $149 $222 forward 7 unknown #
coedge $-1 $143 $223 $93 $152 reversed $89 $-1 #
edge $-1 $224 -55.006561479537339 $156 55.006561479537339 $151 $225 forward 7 unknown #
coedge $-1 $146 $94 $223 $226 forward $155 $-1 #
coedge $-1 $94 $146 $219 $227 reversed $155 $-1 #
loop $-1 $-1 $153 $203 #
vertex $-1 $95 $228 #
vertex $-1 $95 $229 #
straight-curve $-1 55.006561479537339 0 9.1890667877971719 0 1 0 I I #
face $-1 $-1 $230 $22 $-1 $231 reversed single #
loop $-1 $-1 $232 $96 #
plane-surface $-1 0 32.924533513657579 0 0 -1 0 0 0 -1 forward_v I I I I #
coedge $-1 $233 $99 $101 $168 forward $61 $-1 #
coedge $-1 $99 $233 $232 $234 reversed $61 $-1 #
coedge $-1 $235 $102 $99 $165 forward $97 $-1 #
edge $-1 $171 4.8128781045073623 $236 20.345396307602599 $164 $237 forward 7 unknown #
coedge $-1 $238 $239 $100 $167 forward $230 $-1 #
edge $-1 $240 -24.95867391238723 $170 -20.858819305455143 $166 $241 forward 7 unknown #
edge $-1 $171 -4.7341042796177506 $240 2.8642609447069912e-014 $101 $242 forward 7 unknown #
coedge $-1 $102 $235 $238 $243 forward $97 $-1 #
vertex $-1 $167 $244 #
vertex $-1 $103 $245 #
straight-curve $-1 -75.140360781356179 17.392015310562343 9.1890667877971737 1 0 0 I I #
coedge $-1 $173 $173 $-1 $246 reversed $106 $-1 #
edge $-1 $247 0 $247 6.2831853071796004 $107 $248 forward 7 unknown #
vertex $-1 $110 $249 #
ellipse-curve $-1 -53.823035441345411 21.829877654303836 7.1391394843311335 -0.86602541151947299 0 0.49999998660252726 0.49999998660252726 0 0.86602541151947299 1 I I #
coedge $-1 $177 $177 $-1 $250 reversed $113 $-1 #
edge $-1 $251 0 $251 6.2831853071796004 $114 $252 forward 7 unknown #
vertex $-1 $117 $253 #
ellipse-curve $-1 -53.823035441345411 28.486671169916079 7.1391394843311335 -0.86602541151947299 0 0.49999998660252726 0.49999998660252726 0 0.86602541151947299 1 I I #
face $-1 $-1 $254 $25 $-1 $255 reversed single #
loop $-1 $-1 $188 $118 #
plane-surface $-1 0 0 9.1890667877971719 0 0 1 1 0 0 forward_v I I I I #
coedge $-1 $256 $121 $123 $190 forward $75 $-1 #
coedge $-1 $121 $256 $257 $258 reversed $75 $-1 #
coedge $-1 $259 $124 $121 $187 forward $119 $-1 #
edge $-1 $193 4.8128781045073623 $260 20.345396307602599 $186 $261 forward 7 unknown #
coedge $-1 $262 $263 $122 $189 forward $182 $-1 #
edge $-1 $264 5.0024286246170817 $192 7.36948070100091 $188 $265 forward 7 unknown #
edge $-1 $193 -110.01312295907466 $264 -105.27901867945693 $123 $266 forward 7 unknown #
coedge $-1 $124 $259 $262 $267 reversed $119 $-1 #
vertex $-1 $267 $268 #
vertex $-1 $125 $269 #
straight-curve $-1 55.006561479537339 17.392015310562343 77.68496613483984 0 0 -1 I I #
coedge $-1 $195 $195 $-1 $270 reversed $128 $-1 #
edge $-1 $271 0 $271 6.2831853071796004 $129 $272 forward 7 unknown #
vertex $-1 $132 $273 #
ellipse-curve $-1 53.823035441345425 21.829877654303836 7.1391394843311513 0.86602541151947299 0 0.49999998660252726 0.49999998660252726 0 -0.86602541151947299 1 I I #
coedge $-1 $199 $199 $-1 $274 reversed $135 $-1 #
edge $-1 $275 0 $275 6.2831853071796004 $136 $276 forward 7 unknown #
vertex $-1 $139 $277 #
ellipse-curve $-1 53.823035441345425 28.486671169916079 7.1391394843311513 0.86602541151947299 0 0.49999998660252726 0.49999998660252726 0 -0.86602541151947299 1 I I #
face $-1 $-1 $155 $21 $-1 $278 reversed single #
loop $-1 $-1 $219 $140 #
plane-surface $-1 0 32.924533513657579 0 0 -1 0 0 0 -1 forward_v I I I I #
coedge $-1 $279 $217 $220 $280 forward $141 $-1 #
coedge $-1 $223 $143 $144 $211 reversed $89 $-1 #
coedge $-1 $217 $279 $143 $209 reversed $141 $-1 #
edge $-1 $224 -9.1890667877971719 $281 9.1890667877971719 $208 $282 forward 7 unknown #
coedge $-1 $145 $144 $279 $283 forward $57 $-1 #
edge $-1 $215 -55.006561479537339 $281 55.006561479537339 $207 $284 forward 7 unknown #
coedge $-1 $220 $219 $145 $213 reversed $204 $-1 #
edge $-1 $285 -55.006561479537339 $214 55.006561479537339 $212 $286 forward 7 unknown #
vertex $-1 $147 $287 #
vertex $-1 $226 $288 #
straight-curve $-1 55.006561479537339 0 -9.1890667877971719 0 -1 0 I I #
coedge $-1 $206 $208 $148 $218 reversed $141 $-1 #
edge $-1 $221 -32.924533513657579 $224 32.924533513657579 $217 $289 forward 7 unknown #
coedge $-1 $212 $149 $154 $227 forward $204 $-1 #
coedge $-1 $149 $212 $206 $280 reversed $204 $-1 #
vertex $-1 $150 $290 #
straight-curve $-1 0 32.924533513657579 9.1890667877971719 -1 0 0 I I #
coedge $-1 $151 $207 $153 $226 reversed $89 $-1 #
vertex $-1 $218 $291 #
straight-curve $-1 0 -32.924533513657579 9.1890667877971719 1 0 0 I I #
edge $-1 $156 -9.1890667877971719 $215 9.1890667877971719 $153 $292 forward 7 unknown #
edge $-1 $157 -9.1890667877971719 $214 9.1890667877971719 $154 $293 forward 7 unknown #
point $-1 55.006561479537339 -32.924533513657579 9.1890667877971719 #
point $-1 55.006561479537339 32.924533513657579 9.1890667877971719 #
loop $-1 $-1 $166 $159 #
plane-surface $-1 -55.006561479537339 0 0 1 0 0 0 0 -1 forward_v I I I I #
coedge $-1 $294 $295 $163 $234 forward $160 $-1 #
coedge $-1 $163 $162 $239 $296 reversed $61 $-1 #
edge $-1 $236 6.8138421851703157 $297 11.547946464788094 $232 $298 forward 7 unknown #
coedge $-1 $169 $164 $295 $299 forward $97 $-1 #
vertex $-1 $299 $300 #
straight-curve $-1 -52.639509403153482 12.57913720605498 9.1890667877971719 0 1 0 I I #
coedge $-1 $301 $166 $169 $243 reversed $230 $-1 #
coedge $-1 $166 $301 $233 $296 forward $230 $-1 #
vertex $-1 $167 $302 #
straight-curve $-1 -55.006561479537339 17.392015310562343 30.047886093252316 0 0 1 I I #
straight-curve $-1 -55.006561479537325 17.392015310562343 5.0892121808651112 -0.49999998660252726 0 -0.86602541151947299 I I #
edge $-1 $303 -32.924533513657579 $170 -17.392015310562343 $238 $304 forward 7 unknown #
point $-1 -55.006561479537339 17.392015310562343 9.1890667877971719 #
point $-1 -52.639509403153482 17.392015310562343 9.1890667877971719 #
edge $-1 $305 1 $305 0 $173 $-1 forward 7 unknown #
vertex $-1 $174 $306 #
ellipse-curve $-1 -51.770126788909629 21.829877654303836 5.9538921635704751 -0.86602541151947299 0 0.49999998660252726 0.49999998660252726 0 0.86602541151947299 1 I I #
point $-1 -53.323035454742893 21.829877654303836 8.0051648958506121 #
edge $-1 $307 1 $307 0 $177 $-1 forward 7 unknown #
vertex $-1 $178 $308 #
ellipse-curve $-1 -51.770126788909629 28.486671169916079 5.9538921635704751 -0.86602541151947299 0 0.49999998660252726 0.49999998660252726 0 0.86602541151947299 1 I I #
point $-1 -53.323035454742893 28.486671169916079 8.0051648958506121 #
loop $-1 $-1 $257 $181 #
plane-surface $-1 0 32.924533513657579 0 0 -1 0 0 0 -1 forward_v I I I I #
coedge $-1 $185 $184 $263 $309 reversed $75 $-1 #
coedge $-1 $310 $311 $185 $258 forward $254 $-1 #
edge $-1 $260 -66.554507944325366 $312 -61.820403664707662 $257 $313 forward 7 unknown #
coedge $-1 $191 $186 $311 $314 reversed $119 $-1 #
vertex $-1 $187 $315 #
straight-curve $-1 55.006561479537339 12.57913720605498 5.0892121808651396 0 1 0 I I #
coedge $-1 $316 $188 $191 $267 forward $182 $-1 #
coedge $-1 $188 $316 $256 $309 forward $182 $-1 #
vertex $-1 $189 $317 #
straight-curve $-1 47.637080778536429 17.392015310562343 9.1890667877971737 1 0 0 I I #
straight-curve $-1 1.4738978251216395e-006 17.392015310562343 100.36337226404015 -0.49999998660252726 0 0.86602541151947299 I I #
edge $-1 $192 17.392015310562343 $318 32.924533513657579 $191 $319 forward 7 unknown #
point $-1 55.006561479537339 17.392015310562343 9.1890667877971719 #
point $-1 55.006561479537339 17.392015310562343 5.0892121808651325 #
edge $-1 $320 1 $320 0 $195 $-1 forward 7 unknown #
vertex $-1 $196 $321 #
ellipse-curve $-1 51.770126788909621 21.829877654303836 5.9538921635704787 0.86602541151947299 0 0.49999998660252726 0.49999998660252726 0 -0.86602541151947299 1 I I #
point $-1 54.323035427947936 21.829877654303836 6.273114072811671 #
edge $-1 $322 1 $322 0 $199 $-1 forward 7 unknown #
vertex $-1 $200 $323 #
ellipse-curve $-1 51.770126788909621 28.486671169916079 5.9538921635704787 0.86602541151947299 0 0.49999998660252726 0.49999998660252726 0 -0.86602541151947299 1 I I #
point $-1 54.323035427947936 28.486671169916079 6.273114072811671 #
plane-surface $-1 55.006561479537339 0 0 -1 0 0 0 0 1 forward_v I I I I #
coedge $-1 $208 $206 $210 $283 reversed $141 $-1 #
edge $-1 $221 -9.1890667877971719 $285 9.1890667877971719 $220 $324 forward 7 unknown #
vertex $-1 $283 $325 #
straight-curve $-1 -55.006561479537339 -32.924533513657579 0 0 0 -1 I I #
edge $-1 $281 -32.924533513657579 $285 32.924533513657579 $279 $326 forward 7 unknown #
straight-curve $-1 0 -32.924533513657579 -9.1890667877971719 -1 0 0 I I #
vertex $-1 $213 $327 #
straight-curve $-1 0 32.924533513657579 -9.1890667877971719 1 0 0 I I #
point $-1 55.006561479537339 32.924533513657579 -9.1890667877971719 #
point $-1 55.006561479537339 -32.924533513657579 -9.1890667877971719 #
straight-curve $-1 -55.006561479537339 0 9.1890667877971719 0 -1 0 I I #
point $-1 -55.006561479537339 32.924533513657579 9.1890667877971719 #
point $-1 -55.006561479537339 -32.924533513657579 9.1890667877971719 #
straight-curve $-1 55.006561479537339 -32.924533513657579 0 0 0 -1 I I #
straight-curve $-1 55.006561479537339 32.924533513657579 0 0 0 -1 I I #
coedge $-1 $295 $232 $301 $328 reversed $160 $-1 #
coedge $-1 $232 $294 $235 $299 reversed $160 $-1 #
edge $-1 $297 -20.345396307602599 $240 -4.8128781045073623 $239 $329 forward 7 unknown #
vertex $-1 $234 $330 #
straight-curve $-1 -49.232588401856589 32.924533513657579 15.090027270238039 -0.49999998660252726 0 -0.86602541151947299 I I #
edge $-1 $236 52.639509403153482 $303 55.006561479537339 $295 $331 forward 7 unknown #
point $-1 -52.639509403153482 32.924533513657579 9.1890667877971719 #
coedge $-1 $239 $238 $294 $328 forward $230 $-1 #
point $-1 -55.006561479537339 17.392015310562343 5.0892121808650863 #
vertex $-1 $299 $332 #
straight-curve $-1 -55.006561479537339 0 9.1890667877971719 0 -1 0 I I #
vertex $-1 $246 $333 #
point $-1 -51.270126802307104 21.829877654303836 6.8199175750899483 #
vertex $-1 $250 $334 #
point $-1 -51.270126802307104 28.486671169916079 6.8199175750899483 #
edge $-1 $312 -20.345396307602599 $264 -4.8128781045073623 $263 $335 forward 7 unknown #
coedge $-1 $311 $257 $316 $336 reversed $254 $-1 #
coedge $-1 $257 $310 $259 $314 forward $254 $-1 #
vertex $-1 $258 $337 #
straight-curve $-1 21.729308399036849 32.924533513657579 62.727107311825563 -0.49999998660252726 0 0.86602541151947299 I I #
edge $-1 $318 -9.1890667877971719 $260 -5.0892121808651503 $259 $338 forward 7 unknown #
point $-1 55.006561479537339 32.924533513657579 5.0892121808651503 #
coedge $-1 $263 $262 $310 $336 forward $182 $-1 #
point $-1 52.639509403153511 17.392015310562343 9.1890667877971737 #
vertex $-1 $267 $339 #
straight-curve $-1 55.006561479537339 0 9.1890667877971719 0 1 0 I I #
vertex $-1 $270 $340 #
point $-1 52.270126775512146 21.829877654303836 5.0878667520510064 #
vertex $-1 $274 $341 #
point $-1 52.270126775512146 28.486671169916079 5.0878667520510064 #
straight-curve $-1 -55.006561479537339 32.924533513657579 0 0 0 -1 I I #
point $-1 -55.006561479537339 -32.924533513657579 -9.1890667877971719 #
straight-curve $-1 -55.006561479537339 0 -9.1890667877971719 0 1 0 I I #
point $-1 -55.006561479537339 32.924533513657579 -9.1890667877971719 #
edge $-1 $303 -9.1890667877971719 $297 -5.0892121808650863 $294 $342 forward 7 unknown #
straight-curve $-1 -55.006561479537339 12.57913720605498 5.0892121808650845 0 -1 0 I I #
point $-1 -55.006561479537339 32.924533513657579 5.0892121808650863 #
straight-curve $-1 0 32.924533513657579 9.1890667877971719 -1 0 0 I I #
point $-1 -55.006561479537339 32.924533513657579 9.1890667877971719 #
point $-1 -50.904101377390155 21.829877654303836 5.4538921769679485 #
point $-1 -50.904101377390155 28.486671169916079 5.4538921769679485 #
straight-curve $-1 52.639509403153511 12.57913720605498 9.1890667877971737 0 -1 0 I I #
edge $-1 $318 -55.006561479537339 $312 -52.639509403153511 $310 $343 forward 7 unknown #
point $-1 52.639509403153511 32.924533513657579 9.1890667877971737 #
straight-curve $-1 55.006561479537339 32.924533513657579 0 0 0 -1 I I #
point $-1 55.006561479537339 32.924533513657579 9.1890667877971719 #
point $-1 50.904101377390148 21.829877654303836 5.453892176967952 #
point $-1 50.904101377390148 28.486671169916079 5.453892176967952 #
straight-curve $-1 -55.006561479537339 32.924533513657579 0 0 0 -1 I I #
straight-curve $-1 0 32.924533513657579 9.1890667877971719 -1 0 0 I I #
End-of-ACIS-data 