500 0 9 0           
7 Unknown 11 ACIS 5.0 NT 24 Fri Mar 26 17:47:46 1999 
-1 9.9999999999999995e-007 1e-010 
body $-1 $9 $-1 $10 #
body $-1 $11 $-1 $12 #
body $-1 $13 $-1 $14 #
body $-1 $15 $-1 $16 #
body $-1 $17 $-1 $18 #
body $-1 $19 $-1 $20 #
body $-1 $21 $-1 $22 #
body $-1 $23 $-1 $24 #
body $-1 $25 $-1 $26 #
lump $-1 $-1 $27 $0 #
transform $-1 1 0 0 0 1 0 0 0 1 43.813592944120607 18.070984402636835 4.8142046615783487 1 rotate no_reflect no_shear #
lump $-1 $-1 $28 $1 #
transform $-1 1 0 0 0 1 0 0 0 1 43.813592944120607 18.070984402636835 4.8142046615783487 1 rotate no_reflect no_shear #
lump $-1 $-1 $29 $2 #
transform $-1 1 0 0 0 1 0 0 0 1 43.813592944120607 18.070984402636835 4.8142046615783487 1 rotate no_reflect no_shear #
lump $-1 $-1 $30 $3 #
transform $-1 1 0 0 0 1 0 0 0 1 43.813592944120607 18.070984402636835 4.8142046615783487 1 rotate no_reflect no_shear #
lump $-1 $-1 $31 $4 #
transform $-1 1 0 0 0 1 0 0 0 1 43.813592944120607 18.070984402636835 4.8142046615783487 1 rotate no_reflect no_shear #
lump $-1 $-1 $32 $5 #
transform $-1 1 0 0 0 1 0 0 0 1 43.813592944120607 18.070984402636835 4.8142046615783487 1 rotate no_reflect no_shear #
lump $-1 $-1 $33 $6 #
transform $-1 1 0 0 0 1 0 0 0 1 43.813592944120607 18.070984402636835 4.8142046615783487 1 rotate no_reflect no_shear #
lump $-1 $-1 $34 $7 #
transform $-1 1 0 0 0 1 0 0 0 1 43.813592944120607 18.070984402636835 4.8142046615783487 1 rotate no_reflect no_shear #
lump $-1 $-1 $35 $8 #
transform $-1 1 0 0 0 1 0 0 0 1 43.813592944120607 18.070984402636835 4.8142046615783487 1 rotate no_reflect no_shear #
shell $-1 $-1 $-1 $36 $-1 $9 #
shell $-1 $-1 $-1 $37 $-1 $11 #
shell $-1 $-1 $-1 $38 $-1 $13 #
shell $-1 $-1 $-1 $39 $-1 $15 #
shell $-1 $-1 $-1 $40 $-1 $17 #
shell $-1 $-1 $-1 $41 $-1 $19 #
shell $-1 $-1 $-1 $42 $-1 $21 #
shell $-1 $-1 $-1 $43 $-1 $23 #
shell $-1 $-1 $-1 $44 $-1 $25 #
face $-1 $45 $46 $27 $-1 $47 forward single #
face $-1 $48 $49 $28 $-1 $50 forward single #
face $-1 $51 $52 $29 $-1 $53 reversed single #
face $-1 $54 $55 $30 $-1 $56 forward single #
face $-1 $57 $58 $31 $-1 $59 forward single #
face $-1 $60 $61 $32 $-1 $62 reversed single #
face $-1 $63 $64 $33 $-1 $65 forward single #
face $-1 $66 $67 $34 $-1 $68 forward single #
face $-1 $69 $70 $35 $-1 $71 forward single #
face $-1 $72 $73 $27 $-1 $74 reversed single #
loop $-1 $-1 $75 $36 #
plane-surface $-1 0 0 4.8142046615783487 0 0 1 1 0 0 forward_v I I I I #
face $-1 $76 $77 $28 $-1 $78 reversed single #
loop $-1 $-1 $79 $37 #
plane-surface $-1 0 -18.070984402636835 0 0 1 0 0 0 1 forward_v I I I I #
face $-1 $80 $81 $29 $-1 $82 reversed single #
loop $-1 $-1 $83 $38 #
plane-surface $-1 67.459323679345459 10.958235624987475 122.52091639203661 0 1 0 0.82903758062907751 0 0.55919289150049634 forward_v I I I I #
face $-1 $84 $85 $30 $-1 $86 forward single #
loop $-1 $87 $88 $39 #
cone-surface $-1 42.070286377948172 12.990449561458721 2.5645992625476977 -0.82903758062907751 0 -0.55919289150049634 0.27959644575024817 0 -0.41451879031453875 1 I I 0 1 0.5 forward I I I I #
face $-1 $89 $90 $31 $-1 $91 forward single #
loop $-1 $92 $93 $40 #
cone-surface $-1 42.070286377948172 16.038770466165591 2.5645992625476977 -0.82903758062907751 0 -0.55919289150049634 0.27959644575024817 0 -0.41451879031453875 1 I I 0 1 0.5 forward I I I I #
face $-1 $94 $95 $32 $-1 $96 reversed single #
loop $-1 $-1 $97 $41 #
plane-surface $-1 -111.91270729614649 10.136960814256595 55.727423928346532 0 1 0 -0.77714596973225614 0 0.62932038083071107 forward_v I I I I #
face $-1 $98 $99 $33 $-1 $100 forward single #
loop $-1 $101 $102 $42 #
cone-surface $-1 -41.457953622723224 11.723765531932646 2.1781518521291616 0.77714596973225614 0 -0.62932038083071107 0.31466019041535553 0 0.38857298486612807 1 I I 0 1 0.5 forward I I I I #
face $-1 $103 $104 $34 $-1 $105 forward single #
loop $-1 $106 $107 $43 #
cone-surface $-1 -41.457953622723224 14.103972608446714 2.1781518521291616 0.77714596973225614 0 -0.62932038083071107 0.31466019041535553 0 0.38857298486612807 1 I I 0 1 0.5 forward I I I I #
face $-1 $108 $109 $35 $-1 $110 forward single #
loop $-1 $111 $112 $44 #
cone-surface $-1 -41.457953622723224 16.484179684960782 2.1781518521291616 0.77714596973225614 0 -0.62932038083071107 0.31466019041535553 0 0.38857298486612807 1 I I 0 1 0.5 forward I I I I #
face $-1 $113 $114 $27 $-1 $115 reversed single #
loop $-1 $-1 $116 $45 #
plane-surface $-1 0 0 -4.8142046615783487 0 0 1 1 0 0 forward_v I I I I #
coedge $-1 $117 $118 $119 $120 forward $46 $-1 #
face $-1 $121 $122 $28 $-1 $123 forward single #
loop $-1 $-1 $124 $48 #
plane-surface $-1 -43.813592944120607 0 0 1 0 0 0 0 -1 forward_v I I I I #
coedge $-1 $125 $126 $127 $128 forward $49 $-1 #
face $-1 $129 $130 $29 $-1 $131 forward single #
loop $-1 $-1 $132 $51 #
plane-surface $-1 -5.1869065067764808 14.514610013812156 73.520416941139516 0.82903758062907751 0 0.55919289150049634 0.55919289150049634 0 -0.82903758062907751 forward_v I I I I #
coedge $-1 $133 $134 $135 $136 reversed $52 $-1 #
face $-1 $-1 $137 $30 $-1 $138 forward single #
loop $-1 $139 $140 $54 #
cone-surface $-1 41.448508192476361 12.990449561458721 2.1452045939223252 -0.82903758062907751 0 -0.55919289150049634 0.13979822287512408 0 -0.20725939515726938 1 I I -0.70710678118654746 0.70710678118654746 0.25 forward I I I I #
loop $-1 $-1 $141 $39 #
coedge $-1 $88 $88 $142 $143 reversed $55 $-1 #
face $-1 $-1 $144 $31 $-1 $145 forward single #
loop $-1 $146 $147 $57 #
cone-surface $-1 41.448508192476361 16.038770466165591 2.1452045939223252 -0.82903758062907751 0 -0.55919289150049634 0.13979822287512408 0 -0.20725939515726938 1 I I -0.70710678118654746 0.70710678118654746 0.25 forward I I I I #
loop $-1 $-1 $148 $40 #
coedge $-1 $93 $93 $149 $150 reversed $58 $-1 #
face $-1 $151 $152 $32 $-1 $153 reversed single #
loop $-1 $-1 $154 $60 #
plane-surface $-1 -43.8135929441206 14.103972608446714 0.58184993403506269 -0.77714596973225614 0 0.62932038083071107 0.62932038083071107 0 0.77714596973225614 forward_v I I I I #
coedge $-1 $155 $156 $157 $158 reversed $61 $-1 #
face $-1 $-1 $159 $33 $-1 $160 forward single #
loop $-1 $161 $162 $63 #
cone-surface $-1 -40.621674403409529 11.723765531932646 1.500946311243939 0.77714596973225614 0 -0.62932038083071107 0.15733009520767777 0 0.19428649243306403 1 I I -0.70710678118654746 0.70710678118654746 0.25 forward I I I I #
loop $-1 $-1 $163 $42 #
coedge $-1 $102 $102 $164 $165 reversed $64 $-1 #
face $-1 $-1 $166 $34 $-1 $167 forward single #
loop $-1 $168 $169 $66 #
cone-surface $-1 -40.621674403409529 14.103972608446714 1.500946311243939 0.77714596973225614 0 -0.62932038083071107 0.15733009520767777 0 0.19428649243306403 1 I I -0.70710678118654746 0.70710678118654746 0.25 forward I I I I #
loop $-1 $-1 $170 $43 #
coedge $-1 $107 $107 $171 $172 reversed $67 $-1 #
face $-1 $-1 $173 $35 $-1 $174 forward single #
loop $-1 $175 $176 $69 #
cone-surface $-1 -40.621674403409529 16.484179684960782 1.500946311243939 0.77714596973225614 0 -0.62932038083071107 0.15733009520767777 0 0.19428649243306403 1 I I -0.70710678118654746 0.70710678118654746 0.25 forward I I I I #
loop $-1 $-1 $177 $44 #
coedge $-1 $112 $112 $178 $179 reversed $70 $-1 #
face $-1 $180 $181 $27 $-1 $182 reversed single #
loop $-1 $-1 $183 $72 #
plane-surface $-1 0 -18.070984402636835 0 0 1 0 0 0 1 forward_v I I I I #
coedge $-1 $184 $185 $186 $187 forward $73 $-1 #
coedge $-1 $188 $75 $189 $190 forward $46 $-1 #
coedge $-1 $75 $188 $191 $192 forward $46 $-1 #
coedge $-1 $193 $194 $75 $120 reversed $195 $-1 #
edge $-1 $196 -18.070984402636835 $197 18.070984402636835 $119 $198 forward 7 unknown #
face $-1 $199 $200 $28 $-1 $201 reversed single #
loop $-1 $-1 $202 $76 #
plane-surface $-1 0 -20.776994378794665 2.2582809640141877 0 0 1 1 0 0 forward_v I I I I #
coedge $-1 $203 $204 $126 $205 forward $77 $-1 #
coedge $-1 $206 $79 $207 $208 reversed $49 $-1 #
coedge $-1 $79 $206 $124 $205 reversed $49 $-1 #
coedge $-1 $209 $202 $79 $128 reversed $122 $-1 #
edge $-1 $210 -43.813592944120607 $211 43.813592944120607 $127 $212 forward 7 unknown #
face $-1 $213 $214 $29 $-1 $215 reversed single #
loop $-1 $-1 $216 $80 #
plane-surface $-1 0 0 4.8142046615783487 0 0 1 1 0 0 forward_v I I I I #
coedge $-1 $217 $218 $219 $220 reversed $81 $-1 #
coedge $-1 $134 $83 $221 $222 reversed $52 $-1 #
coedge $-1 $83 $133 $217 $223 reversed $52 $-1 #
coedge $-1 $219 $224 $83 $136 forward $214 $-1 #
edge $-1 $225 56.446253534439954 $226 60.386271441000716 $135 $227 forward 7 unknown #
loop $-1 $-1 $142 $84 #
plane-surface $-1 -5.1869065067764808 14.514610013812156 73.520416941139516 0.82903758062907751 0 0.55919289150049634 0.55919289150049634 0 -0.82903758062907751 forward_v I I I I #
loop $-1 $-1 $228 $54 #
coedge $-1 $140 $140 $141 $229 reversed $85 $-1 #
coedge $-1 $141 $141 $140 $229 forward $87 $-1 #
coedge $-1 $142 $142 $88 $143 forward $137 $-1 #
edge $-1 $230 0 $230 6.2831853071796004 $142 $231 forward 7 unknown #
loop $-1 $-1 $149 $89 #
plane-surface $-1 -5.1869065067764808 14.514610013812156 73.520416941139516 0.82903758062907751 0 0.55919289150049634 0.55919289150049634 0 -0.82903758062907751 forward_v I I I I #
loop $-1 $-1 $232 $57 #
coedge $-1 $147 $147 $148 $233 reversed $90 $-1 #
coedge $-1 $148 $148 $147 $233 forward $92 $-1 #
coedge $-1 $149 $149 $93 $150 forward $144 $-1 #
edge $-1 $234 0 $234 6.2831853071796004 $149 $235 forward 7 unknown #
face $-1 $236 $237 $32 $-1 $238 forward single #
loop $-1 $-1 $239 $94 #
plane-surface $-1 0 18.070984402636835 0 0 -1 0 0 0 -1 forward_v I I I I #
coedge $-1 $240 $241 $242 $243 reversed $95 $-1 #
coedge $-1 $156 $97 $244 $245 reversed $61 $-1 #
coedge $-1 $97 $155 $240 $246 reversed $61 $-1 #
coedge $-1 $242 $247 $97 $158 forward $237 $-1 #
edge $-1 $248 12.142760703952639 $249 15.570053892986152 $157 $250 forward 7 unknown #
loop $-1 $-1 $164 $98 #
plane-surface $-1 -43.8135929441206 14.103972608446714 0.58184993403506269 -0.77714596973225614 0 0.62932038083071107 0.62932038083071107 0 0.77714596973225614 forward_v I I I I #
loop $-1 $-1 $251 $63 #
coedge $-1 $162 $162 $163 $252 reversed $99 $-1 #
coedge $-1 $163 $163 $162 $252 forward $101 $-1 #
coedge $-1 $164 $164 $102 $165 forward $159 $-1 #
edge $-1 $253 0 $253 6.2831853071796004 $164 $254 forward 7 unknown #
loop $-1 $-1 $171 $103 #
plane-surface $-1 -43.8135929441206 14.103972608446714 0.58184993403506269 -0.77714596973225614 0 0.62932038083071107 0.62932038083071107 0 0.77714596973225614 forward_v I I I I #
loop $-1 $-1 $255 $66 #
coedge $-1 $169 $169 $170 $256 reversed $104 $-1 #
coedge $-1 $170 $170 $169 $256 forward $106 $-1 #
coedge $-1 $171 $171 $107 $172 forward $166 $-1 #
edge $-1 $257 0 $257 6.2831853071796004 $171 $258 forward 7 unknown #
loop $-1 $-1 $178 $108 #
plane-surface $-1 -43.8135929441206 14.103972608446714 0.58184993403506269 -0.77714596973225614 0 0.62932038083071107 0.62932038083071107 0 0.77714596973225614 forward_v I I I I #
loop $-1 $-1 $259 $69 #
coedge $-1 $176 $176 $177 $260 reversed $109 $-1 #
coedge $-1 $177 $177 $176 $260 forward $111 $-1 #
coedge $-1 $178 $178 $112 $179 forward $173 $-1 #
edge $-1 $261 0 $261 6.2831853071796004 $178 $262 forward 7 unknown #
face $-1 $263 $264 $27 $-1 $265 reversed single #
loop $-1 $-1 $266 $113 #
plane-surface $-1 -43.813592944120607 0 0 1 0 0 0 0 -1 forward_v I I I I #
coedge $-1 $267 $191 $268 $269 forward $114 $-1 #
coedge $-1 $270 $116 $267 $271 forward $73 $-1 #
coedge $-1 $116 $270 $272 $273 forward $73 $-1 #
coedge $-1 $194 $193 $116 $187 reversed $195 $-1 #
edge $-1 $274 -18.070984402636835 $275 18.070984402636835 $186 $276 forward 7 unknown #
coedge $-1 $118 $117 $277 $278 forward $46 $-1 #
coedge $-1 $279 $280 $117 $190 reversed $264 $-1 #
edge $-1 $197 -43.813592944120607 $281 43.813592944120607 $189 $282 forward 7 unknown #
coedge $-1 $183 $283 $118 $192 reversed $114 $-1 #
edge $-1 $284 -43.813592944120607 $196 43.813592944120607 $191 $285 forward 7 unknown #
coedge $-1 $186 $119 $283 $286 forward $195 $-1 #
coedge $-1 $119 $186 $279 $287 reversed $195 $-1 #
loop $-1 $-1 $193 $263 #
vertex $-1 $120 $288 #
vertex $-1 $120 $289 #
straight-curve $-1 43.813592944120607 0 4.8142046615783487 0 1 0 I I #
face $-1 $290 $291 $28 $-1 $292 reversed single #
loop $-1 $-1 $293 $121 #
plane-surface $-1 0 -20.776994378794665 -0.74171903598581235 0 0 1 1 0 0 forward_v I I I I #
coedge $-1 $127 $294 $295 $296 forward $122 $-1 #
coedge $-1 $297 $124 $298 $299 reversed $77 $-1 #
coedge $-1 $124 $297 $209 $300 reversed $77 $-1 #
edge $-1 $210 -2.2582809640141877 $301 0.74171903598581235 $124 $302 forward 7 unknown #
coedge $-1 $126 $125 $303 $304 forward $49 $-1 #
coedge $-1 $295 $305 $125 $208 forward $306 $-1 #
edge $-1 $307 -0.74171903598581235 $211 2.2582809640141877 $207 $308 forward 7 unknown #
coedge $-1 $294 $127 $204 $300 forward $122 $-1 #
vertex $-1 $205 $309 #
vertex $-1 $296 $310 #
straight-curve $-1 0 -18.070984402636835 2.2582809640141877 1 0 0 I I #
face $-1 $-1 $311 $29 $-1 $312 reversed single #
loop $-1 $-1 $135 $129 #
plane-surface $-1 43.813592944120607 0 0 -1 0 0 0 0 1 forward_v I I I I #
coedge $-1 $221 $313 $314 $315 forward $130 $-1 #
coedge $-1 $314 $132 $134 $223 forward $81 $-1 #
coedge $-1 $132 $314 $316 $317 reversed $81 $-1 #
coedge $-1 $318 $135 $132 $220 forward $214 $-1 #
edge $-1 $226 3.7009306180813972 $319 10.813679395730757 $219 $320 forward 7 unknown #
coedge $-1 $321 $216 $133 $222 forward $130 $-1 #
edge $-1 $322 7.4263555527320904 $225 10.083931104447878 $221 $323 forward 7 unknown #
edge $-1 $226 -87.6271858882412 $322 -82.874665618205853 $134 $324 forward 7 unknown #
coedge $-1 $135 $318 $321 $325 reversed $214 $-1 #
vertex $-1 $325 $326 #
vertex $-1 $136 $327 #
straight-curve $-1 43.813592944120607 10.958235624987475 61.260458196018305 0 0 -1 I I #
coedge $-1 $228 $228 $-1 $328 reversed $139 $-1 #
edge $-1 $329 0 $329 6.2831853071796004 $140 $330 forward 7 unknown #
vertex $-1 $143 $331 #
ellipse-curve $-1 42.484805168262717 12.990449561458721 2.8441957082979497 0.82903758062907751 0 0.55919289150049634 0.27959644575024817 0 -0.41451879031453875 1 I I #
coedge $-1 $232 $232 $-1 $332 reversed $146 $-1 #
edge $-1 $333 0 $333 6.2831853071796004 $147 $334 forward 7 unknown #
vertex $-1 $150 $335 #
ellipse-curve $-1 42.484805168262717 16.038770466165591 2.8441957082979497 0.82903758062907751 0 0.55919289150049634 0.27959644575024817 0 -0.41451879031453875 1 I I #
face $-1 $-1 $336 $32 $-1 $337 reversed single #
loop $-1 $-1 $242 $151 #
plane-surface $-1 0 0 4.8142046615783487 0 0 1 1 0 0 forward_v I I I I #
coedge $-1 $338 $339 $241 $340 forward $152 $-1 #
coedge $-1 $341 $154 $156 $246 forward $95 $-1 #
coedge $-1 $154 $341 $239 $340 reversed $95 $-1 #
coedge $-1 $342 $157 $154 $243 forward $237 $-1 #
edge $-1 $249 3.0849745100332377 $343 11.018998098413475 $242 $344 forward 7 unknown #
coedge $-1 $345 $346 $155 $245 forward $336 $-1 #
edge $-1 $347 -27.28186203013821 $248 -23.049507302594918 $244 $348 forward 7 unknown #
edge $-1 $249 -5.4460228739285945 $347 1.1287752508472441e-014 $156 $349 forward 7 unknown #
coedge $-1 $157 $342 $345 $350 forward $237 $-1 #
vertex $-1 $245 $351 #
vertex $-1 $158 $352 #
straight-curve $-1 -55.956353648073247 10.136960814256595 4.8142046615783478 1 0 0 I I #
coedge $-1 $251 $251 $-1 $353 reversed $161 $-1 #
edge $-1 $354 0 $354 6.2831853071796004 $162 $355 forward 7 unknown #
vertex $-1 $165 $356 #
ellipse-curve $-1 -42.099946349603847 11.723765531932646 2.698027297806703 -0.77714596973225614 0 0.62932038083071107 0.31466019041535553 0 0.38857298486612807 1 I I #
coedge $-1 $255 $255 $-1 $357 reversed $168 $-1 #
edge $-1 $358 0 $358 6.2831853071796004 $169 $359 forward 7 unknown #
vertex $-1 $172 $360 #
ellipse-curve $-1 -42.099946349603847 14.103972608446714 2.698027297806703 -0.77714596973225614 0 0.62932038083071107 0.31466019041535553 0 0.38857298486612807 1 I I #
coedge $-1 $259 $259 $-1 $361 reversed $175 $-1 #
edge $-1 $362 0 $362 6.2831853071796004 $176 $363 forward 7 unknown #
vertex $-1 $179 $364 #
ellipse-curve $-1 -42.099946349603847 16.484179684960782 2.698027297806703 -0.77714596973225614 0 0.62932038083071107 0.31466019041535553 0 0.38857298486612807 1 I I #
face $-1 $-1 $195 $27 $-1 $365 reversed single #
loop $-1 $-1 $279 $180 #
plane-surface $-1 0 18.070984402636835 0 0 -1 0 0 0 -1 forward_v I I I I #
coedge $-1 $366 $277 $280 $367 forward $181 $-1 #
coedge $-1 $283 $183 $184 $271 reversed $114 $-1 #
coedge $-1 $277 $366 $183 $269 reversed $181 $-1 #
edge $-1 $284 -4.8142046615783487 $368 4.8142046615783487 $268 $369 forward 7 unknown #
coedge $-1 $185 $184 $366 $370 forward $73 $-1 #
edge $-1 $275 -43.813592944120607 $368 43.813592944120607 $267 $371 forward 7 unknown #
coedge $-1 $280 $279 $185 $273 reversed $264 $-1 #
edge $-1 $372 -43.813592944120607 $274 43.813592944120607 $272 $373 forward 7 unknown #
vertex $-1 $187 $374 #
vertex $-1 $286 $375 #
straight-curve $-1 43.813592944120607 0 -4.8142046615783487 0 -1 0 I I #
coedge $-1 $266 $268 $188 $278 reversed $181 $-1 #
edge $-1 $281 -18.070984402636835 $284 18.070984402636835 $277 $376 forward 7 unknown #
coedge $-1 $272 $189 $194 $287 forward $264 $-1 #
coedge $-1 $189 $272 $266 $367 reversed $264 $-1 #
vertex $-1 $190 $377 #
straight-curve $-1 0 18.070984402636835 4.8142046615783487 -1 0 0 I I #
coedge $-1 $191 $267 $193 $286 reversed $114 $-1 #
vertex $-1 $278 $378 #
straight-curve $-1 0 -18.070984402636835 4.8142046615783487 1 0 0 I I #
edge $-1 $196 -4.8142046615783487 $275 4.8142046615783487 $193 $379 forward 7 unknown #
edge $-1 $197 -4.8142046615783487 $274 4.8142046615783487 $194 $380 forward 7 unknown #
point $-1 43.813592944120607 -18.070984402636835 4.8142046615783487 #
point $-1 43.813592944120607 18.070984402636835 4.8142046615783487 #
face $-1 $-1 $306 $28 $-1 $381 reversed single #
loop $-1 $-1 $382 $199 #
plane-surface $-1 0 -23.483004354952495 0.75828096401418765 0 1 0 0 0 1 forward_v I I I I #
coedge $-1 $383 $303 $305 $384 forward $200 $-1 #
coedge $-1 $202 $209 $385 $386 forward $122 $-1 #
coedge $-1 $387 $207 $202 $296 reversed $306 $-1 #
edge $-1 $388 -2.70600997615783 $211 2.70600997615783 $295 $389 forward 7 unknown #
coedge $-1 $204 $203 $382 $390 reversed $77 $-1 #
coedge $-1 $303 $383 $203 $299 forward $200 $-1 #
edge $-1 $391 -2.70600997615783 $301 2.70600997615783 $203 $392 forward 7 unknown #
edge $-1 $210 -2.70600997615783 $393 2.70600997615783 $204 $394 forward 7 unknown #
vertex $-1 $205 $395 #
straight-curve $-1 -43.813592944120607 -18.070984402636835 0 0 0 -1 I I #
coedge $-1 $293 $298 $206 $304 reversed $200 $-1 #
edge $-1 $307 -43.813592944120607 $301 43.813592944120607 $303 $396 forward 7 unknown #
coedge $-1 $207 $387 $293 $384 reversed $306 $-1 #
loop $-1 $-1 $207 $290 #
vertex $-1 $208 $397 #
straight-curve $-1 43.813592944120607 -18.070984402636835 0 0 0 1 I I #
point $-1 -43.813592944120607 -18.070984402636835 2.2582809640141877 #
point $-1 43.813592944120607 -18.070984402636835 2.2582809640141877 #
loop $-1 $-1 $316 $213 #
plane-surface $-1 0 18.070984402636835 0 0 -1 0 0 0 -1 forward_v I I I I #
coedge $-1 $216 $321 $398 $399 forward $130 $-1 #
coedge $-1 $218 $217 $216 $315 reversed $81 $-1 #
edge $-1 $400 -10.813679395730761 $322 -3.7009306180813972 $216 $401 forward 7 unknown #
coedge $-1 $398 $402 $218 $317 forward $311 $-1 #
edge $-1 $319 -55.701350970646004 $400 -50.948830700610642 $316 $403 forward 7 unknown #
coedge $-1 $224 $219 $402 $404 reversed $214 $-1 #
vertex $-1 $220 $405 #
straight-curve $-1 43.813592944120607 7.257305006906078 0.87418675501757548 0 1 0 I I #
coedge $-1 $313 $221 $224 $325 forward $130 $-1 #
vertex $-1 $222 $406 #
straight-curve $-1 33.72966183967273 10.958235624987475 4.8142046615783514 1 0 0 I I #
straight-curve $-1 -5.1869065067764808 10.958235624987475 73.520416941139516 -0.55919289150049634 0 0.82903758062907751 I I #
edge $-1 $225 10.958235624987475 $407 18.070984402636835 $224 $408 forward 7 unknown #
point $-1 43.813592944120607 10.958235624987475 4.8142046615783487 #
point $-1 43.813592944120607 10.958235624987475 0.87418675501758969 #
edge $-1 $409 1 $409 0 $228 $-1 forward 7 unknown #
vertex $-1 $229 $410 #
ellipse-curve $-1 41.655767587633633 12.990449561458721 2.2850028167974492 0.82903758062907751 0 0.55919289150049634 0.27959644575024817 0 -0.41451879031453875 1 I I #
point $-1 42.764401614012954 12.990449561458721 2.4296769179834068 #
edge $-1 $411 1 $411 0 $232 $-1 forward 7 unknown #
vertex $-1 $233 $412 #
ellipse-curve $-1 41.655767587633633 16.038770466165591 2.2850028167974492 0.82903758062907751 0 0.55919289150049634 0.27959644575024817 0 -0.41451879031453875 1 I I #
point $-1 42.764401614012954 16.038770466165591 2.4296769179834068 #
loop $-1 $-1 $244 $236 #
plane-surface $-1 -43.813592944120607 0 0 1 0 0 0 0 -1 forward_v I I I I #
coedge $-1 $339 $239 $413 $414 reversed $152 $-1 #
coedge $-1 $239 $338 $342 $415 reversed $152 $-1 #
edge $-1 $343 8.1142794590371086 $416 13.560302332965712 $239 $417 forward 7 unknown #
coedge $-1 $241 $240 $346 $418 reversed $95 $-1 #
coedge $-1 $247 $242 $339 $415 forward $237 $-1 #
vertex $-1 $415 $419 #
straight-curve $-1 -40.386299755087094 7.051986304223357 4.8142046615783487 0 1 0 I I #
coedge $-1 $413 $244 $247 $350 reversed $336 $-1 #
coedge $-1 $244 $413 $341 $418 forward $336 $-1 #
vertex $-1 $245 $420 #
straight-curve $-1 -43.813592944120607 10.136960814256595 27.863711964173266 0 0 1 I I #
straight-curve $-1 -43.8135929441206 10.136960814256595 0.58184993403506269 -0.62932038083071107 0 -0.77714596973225614 I I #
edge $-1 $421 -18.070984402636835 $248 -10.136960814256595 $345 $422 forward 7 unknown #
point $-1 -43.813592944120607 10.136960814256595 4.8142046615783487 #
point $-1 -40.386299755087094 10.136960814256595 4.8142046615783487 #
edge $-1 $423 1 $423 0 $251 $-1 forward 7 unknown #
vertex $-1 $252 $424 #
ellipse-curve $-1 -40.815960895842593 11.723765531932646 1.6582764064516167 -0.77714596973225614 0 0.62932038083071107 0.31466019041535553 0 0.38857298486612807 1 I I #
point $-1 -41.785286159188495 11.723765531932646 3.0866002826728343 #
edge $-1 $425 1 $425 0 $255 $-1 forward 7 unknown #
vertex $-1 $256 $426 #
ellipse-curve $-1 -40.815960895842593 14.103972608446714 1.6582764064516167 -0.77714596973225614 0 0.62932038083071107 0.31466019041535553 0 0.38857298486612807 1 I I #
point $-1 -41.785286159188495 14.103972608446714 3.0866002826728343 #
edge $-1 $427 1 $427 0 $259 $-1 forward 7 unknown #
vertex $-1 $260 $428 #
ellipse-curve $-1 -40.815960895842593 16.484179684960782 1.6582764064516167 -0.77714596973225614 0 0.62932038083071107 0.31466019041535553 0 0.38857298486612807 1 I I #
point $-1 -41.785286159188495 16.484179684960782 3.0866002826728343 #
plane-surface $-1 43.813592944120607 0 0 -1 0 0 0 0 1 forward_v I I I I #
coedge $-1 $268 $266 $270 $370 reversed $181 $-1 #
edge $-1 $281 -4.8142046615783487 $372 4.8142046615783487 $280 $429 forward 7 unknown #
vertex $-1 $370 $430 #
straight-curve $-1 -43.813592944120607 -18.070984402636835 0 0 0 -1 I I #
edge $-1 $368 -18.070984402636835 $372 18.070984402636835 $366 $431 forward 7 unknown #
straight-curve $-1 0 -18.070984402636835 -4.8142046615783487 -1 0 0 I I #
vertex $-1 $273 $432 #
straight-curve $-1 0 18.070984402636835 -4.8142046615783487 1 0 0 I I #
point $-1 43.813592944120607 18.070984402636835 -4.8142046615783487 #
point $-1 43.813592944120607 -18.070984402636835 -4.8142046615783487 #
straight-curve $-1 -43.813592944120607 0 4.8142046615783487 0 -1 0 I I #
point $-1 -43.813592944120607 18.070984402636835 4.8142046615783487 #
point $-1 -43.813592944120607 -18.070984402636835 4.8142046615783487 #
straight-curve $-1 43.813592944120607 -18.070984402636835 0 0 0 -1 I I #
straight-curve $-1 43.813592944120607 18.070984402636835 0 0 0 -1 I I #
plane-surface $-1 43.813592944120607 0 0 -1 0 0 0 0 1 forward_v I I I I #
coedge $-1 $433 $385 $297 $390 forward $291 $-1 #
coedge $-1 $298 $293 $433 $434 forward $200 $-1 #
edge $-1 $307 -2.70600997615783 $435 2.70600997615783 $305 $436 forward 7 unknown #
coedge $-1 $382 $437 $294 $386 reversed $291 $-1 #
edge $-1 $393 -43.813592944120607 $388 43.813592944120607 $385 $438 forward 7 unknown #
coedge $-1 $305 $295 $437 $439 forward $306 $-1 #
vertex $-1 $296 $440 #
straight-curve $-1 43.813592944120607 -20.776994378794665 2.2582809640141877 0 1 0 I I #
edge $-1 $393 -1.5 $391 1.5 $297 $441 forward 7 unknown #
vertex $-1 $299 $442 #
straight-curve $-1 -43.813592944120607 -20.776994378794665 -0.74171903598581235 0 1 0 I I #
vertex $-1 $300 $443 #
straight-curve $-1 -43.813592944120607 -20.776994378794665 2.2582809640141877 0 -1 0 I I #
point $-1 -43.813592944120607 -18.070984402636835 -0.74171903598581235 #
straight-curve $-1 0 -18.070984402636835 -0.74171903598581235 -1 0 0 I I #
point $-1 43.813592944120607 -18.070984402636835 -0.74171903598581235 #
coedge $-1 $402 $316 $313 $399 reversed $311 $-1 #
edge $-1 $407 -43.813592944120607 $400 -41.15601739240482 $398 $444 forward 7 unknown #
vertex $-1 $317 $445 #
straight-curve $-1 41.156017392404813 7.257305006906078 4.8142046615783514 0 -1 0 I I #
coedge $-1 $316 $398 $318 $404 forward $311 $-1 #
straight-curve $-1 12.665793434361095 18.070984402636835 47.052700001493058 -0.55919289150049634 0 0.82903758062907751 I I #
edge $-1 $407 -4.8142046615783487 $319 -0.8741867550175807 $318 $446 forward 7 unknown #
point $-1 43.813592944120607 18.070984402636835 0.8741867550175807 #
point $-1 41.15601739240482 10.958235624987475 4.8142046615783443 #
vertex $-1 $325 $447 #
straight-curve $-1 43.813592944120607 0 4.8142046615783487 0 1 0 I I #
vertex $-1 $328 $448 #
point $-1 41.935364033383877 12.990449561458721 1.8704840264829106 #
vertex $-1 $332 $449 #
point $-1 41.935364033383877 16.038770466165591 1.8704840264829106 #
coedge $-1 $346 $345 $338 $414 forward $336 $-1 #
edge $-1 $421 -4.8142046615783487 $416 -0.58184993403505392 $338 $450 forward 7 unknown #
edge $-1 $343 40.386299755087094 $421 43.813592944120607 $339 $451 forward 7 unknown #
vertex $-1 $340 $452 #
straight-curve $-1 -35.279818315759044 18.070984402636835 11.120184240450268 -0.62932038083071107 0 -0.77714596973225614 I I #
edge $-1 $416 -11.018998098413475 $347 -3.0849745100332377 $346 $453 forward 7 unknown #
point $-1 -40.386299755087094 18.070984402636832 4.8142046615783487 #
point $-1 -43.813592944120607 10.136960814256595 0.58184993403505392 #
vertex $-1 $415 $454 #
straight-curve $-1 -43.813592944120607 0 4.8142046615783487 0 -1 0 I I #
vertex $-1 $353 $455 #
point $-1 -40.501300705427234 11.723765531932646 2.0468493913177448 #
vertex $-1 $357 $456 #
point $-1 -40.501300705427234 14.103972608446714 2.0468493913177448 #
vertex $-1 $361 $457 #
point $-1 -40.501300705427234 16.484179684960782 2.0468493913177448 #
straight-curve $-1 -43.813592944120607 18.070984402636835 0 0 0 -1 I I #
point $-1 -43.813592944120607 -18.070984402636835 -4.8142046615783487 #
straight-curve $-1 -43.813592944120607 0 -4.8142046615783487 0 1 0 I I #
point $-1 -43.813592944120607 18.070984402636835 -4.8142046615783487 #
coedge $-1 $437 $382 $383 $434 reversed $291 $-1 #
edge $-1 $435 -43.813592944120607 $391 43.813592944120607 $433 $458 forward 7 unknown #
vertex $-1 $439 $459 #
straight-curve $-1 43.813592944120607 -20.776994378794665 -0.74171903598581235 0 -1 0 I I #
coedge $-1 $385 $433 $387 $439 reversed $291 $-1 #
straight-curve $-1 0 -23.483004354952495 2.2582809640141877 1 0 0 I I #
edge $-1 $388 -1.5 $435 1.5 $387 $460 forward 7 unknown #
point $-1 43.813592944120607 -23.483004354952495 2.2582809640141877 #
straight-curve $-1 -43.813592944120607 -23.483004354952495 0.75828096401418765 0 0 -1 I I #
point $-1 -43.813592944120607 -23.483004354952495 -0.74171903598581235 #
point $-1 -43.813592944120607 -23.483004354952495 2.2582809640141877 #
straight-curve $-1 0 18.070984402636835 4.8142046615783487 -1 0 0 I I #
point $-1 41.15601739240482 18.070984402636839 4.8142046615783443 #
straight-curve $-1 43.813592944120607 18.070984402636835 0 0 0 -1 I I #
point $-1 43.813592944120607 18.070984402636835 4.8142046615783487 #
point $-1 41.241248797319088 12.990449561458721 2.0054063710472012 #
point $-1 41.241248797319088 16.038770466165591 2.0054063710472012 #
straight-curve $-1 -43.813592944120607 18.070984402636835 0 0 0 -1 I I #
straight-curve $-1 0 18.070984402636835 4.8142046615783487 -1 0 0 I I #
point $-1 -43.813592944120607 18.070984402636832 0.58184993403505392 #
straight-curve $-1 -43.813592944120607 7.051986304223357 0.58184993403504748 0 -1 0 I I #
point $-1 -43.813592944120607 18.070984402636835 4.8142046615783487 #
point $-1 -40.427387910976464 11.723765531932646 1.3436162160362612 #
point $-1 -40.427387910976464 14.103972608446714 1.3436162160362612 #
point $-1 -40.427387910976464 16.484179684960782 1.3436162160362612 #
straight-curve $-1 0 -23.483004354952495 -0.74171903598581235 -1 0 0 I I #
point $-1 43.813592944120607 -23.483004354952495 -0.74171903598581235 #
straight-curve $-1 43.813592944120607 -23.483004354952495 0.75828096401418765 0 0 -1 I I #
End-of-ACIS-data 