500 0 7 0           
7 Unknown 11 ACIS 5.0 NT 24 Fri Mar 26 17:12:18 1999 
-1 9.9999999999999995e-007 1e-010 
body $-1 $7 $-1 $8 #
body $-1 $9 $-1 $10 #
body $-1 $11 $-1 $12 #
body $-1 $13 $-1 $14 #
body $-1 $15 $-1 $16 #
body $-1 $17 $-1 $18 #
body $-1 $19 $-1 $20 #
lump $-1 $-1 $21 $0 #
transform $-1 1 0 0 0 1 0 0 0 1 50.011291848506119 28.321009801120788 9.797615613347725 1 rotate no_reflect no_shear #
lump $-1 $-1 $22 $1 #
transform $-1 1 0 0 0 1 0 0 0 1 50.011291848506119 28.321009801120788 9.797615613347725 1 rotate no_reflect no_shear #
lump $-1 $-1 $23 $2 #
transform $-1 1 0 0 0 1 0 0 0 1 50.011291848506119 28.321009801120788 9.797615613347725 1 rotate no_reflect no_shear #
lump $-1 $-1 $24 $3 #
transform $-1 1 0 0 0 1 0 0 0 1 50.011291848506119 28.321009801120788 9.797615613347725 1 rotate no_reflect no_shear #
lump $-1 $-1 $25 $4 #
transform $-1 1 0 0 0 1 0 0 0 1 50.011291848506119 28.321009801120788 9.797615613347725 1 rotate no_reflect no_shear #
lump $-1 $-1 $26 $5 #
transform $-1 1 0 0 0 1 0 0 0 1 50.011291848506119 28.321009801120788 9.797615613347725 1 rotate no_reflect no_shear #
lump $-1 $-1 $27 $6 #
transform $-1 1 0 0 0 1 0 0 0 1 50.011291848506119 28.321009801120788 9.797615613347725 1 rotate no_reflect no_shear #
shell $-1 $-1 $-1 $28 $-1 $7 #
shell $-1 $-1 $-1 $29 $-1 $9 #
shell $-1 $-1 $-1 $30 $-1 $11 #
shell $-1 $-1 $-1 $31 $-1 $13 #
shell $-1 $-1 $-1 $32 $-1 $15 #
shell $-1 $-1 $-1 $33 $-1 $17 #
shell $-1 $-1 $-1 $34 $-1 $19 #
face $-1 $35 $36 $21 $-1 $37 forward single #
face $-1 $38 $39 $22 $-1 $40 forward single #
face $-1 $41 $42 $23 $-1 $43 reversed single #
face $-1 $44 $45 $24 $-1 $46 forward single #
face $-1 $47 $48 $25 $-1 $49 reversed single #
face $-1 $50 $51 $26 $-1 $52 forward single #
face $-1 $53 $54 $27 $-1 $55 forward single #
face $-1 $56 $57 $21 $-1 $58 reversed single #
loop $-1 $-1 $59 $28 #
plane-surface $-1 0 0 9.797615613347725 0 0 1 1 0 0 forward_v I I I I #
face $-1 $60 $61 $22 $-1 $62 reversed single #
loop $-1 $-1 $63 $29 #
plane-surface $-1 -46.343918172691204 0 7.107948124785624 0 0 1 1 0 0 forward_v I I I I #
face $-1 $64 $65 $23 $-1 $66 reversed single #
loop $-1 $-1 $67 $30 #
plane-surface $-1 -39.411400762333336 -88.516104086526326 84.839508126353493 1 0 0 0 0.6018150307709319 -0.79863550430605224 forward_v I I I I #
face $-1 $68 $69 $24 $-1 $70 forward single #
loop $-1 $71 $72 $31 #
cone-surface $-1 -26.283570503624802 -24.265075389695333 6.2568284357224488 0 0.6018150307709319 -0.79863550430605224 1.5 0 0 1 I I 0 1 1.5 forward I I I I #
face $-1 $73 $74 $25 $-1 $75 reversed single #
loop $-1 $-1 $76 $32 #
plane-surface $-1 -6.7585122416776962 79.569675875755934 107.79799859001017 1 0 0 0 -0.82903758062907751 -0.55919289150049634 forward_v I I I I #
face $-1 $77 $78 $26 $-1 $79 forward single #
loop $-1 $80 $81 $33 #
cone-surface $-1 -0.74365683895771895 25.299266949942247 6.4268336474798611 0 -0.82903758062907751 -0.55919289150049634 1 0 0 1 I I 0 1 1 forward I I I I #
face $-1 $82 $83 $27 $-1 $84 forward single #
loop $-1 $85 $86 $34 #
cone-surface $-1 8.2786262651222486 25.299266949942247 6.4268336474798611 0 -0.82903758062907751 -0.55919289150049634 1 0 0 1 I I 0 1 1 forward I I I I #
face $-1 $87 $88 $21 $-1 $89 reversed single #
loop $-1 $-1 $90 $35 #
plane-surface $-1 0 0 -9.797615613347725 0 0 1 1 0 0 forward_v I I I I #
coedge $-1 $91 $92 $93 $94 forward $36 $-1 #
face $-1 $95 $96 $22 $-1 $97 reversed single #
loop $-1 $-1 $98 $38 #
plane-surface $-1 -46.343918172691204 0 3.0618232138478287 0 0 1 1 0 0 forward_v I I I I #
coedge $-1 $99 $100 $101 $102 forward $39 $-1 #
face $-1 $103 $104 $23 $-1 $105 reversed single #
loop $-1 $-1 $106 $41 #
plane-surface $-1 -26.283570503624802 -28.321009801120795 4.9579215534958081 0 -0.6018150307709319 0.79863550430605224 1 0 0 forward_v I I I I #
coedge $-1 $107 $108 $109 $110 reversed $42 $-1 #
face $-1 $-1 $111 $24 $-1 $112 forward single #
loop $-1 $113 $114 $44 #
cone-surface $-1 -26.283570503624802 -22.969025111629549 4.5369116597935921 0 0.6018150307709319 -0.79863550430605224 0.75 0 0 1 I I -0.70710678118654757 0.70710678118654757 0.75 forward I I I I #
loop $-1 $-1 $115 $31 #
coedge $-1 $72 $72 $116 $117 reversed $45 $-1 #
face $-1 $118 $119 $25 $-1 $120 reversed single #
loop $-1 $-1 $121 $47 #
plane-surface $-1 3.7674847130822684 -3.3528049206845054 51.866080797127488 0 0.82903758062907751 0.55919289150049634 1 0 0 forward_v I I I I #
coedge $-1 $122 $123 $124 $125 reversed $48 $-1 #
face $-1 $-1 $126 $26 $-1 $127 forward single #
loop $-1 $128 $129 $50 #
cone-surface $-1 -0.74365683895771895 23.512144082760493 5.2214040904654322 0 -0.82903758062907751 -0.55919289150049634 0.5 0 0 1 I I -0.70710678118654746 0.70710678118654746 0.5 forward I I I I #
loop $-1 $-1 $130 $33 #
coedge $-1 $81 $81 $131 $132 reversed $51 $-1 #
face $-1 $-1 $133 $27 $-1 $134 forward single #
loop $-1 $135 $136 $53 #
cone-surface $-1 8.2786262651222486 23.512144082760493 5.2214040904654322 0 -0.82903758062907751 -0.55919289150049634 0.5 0 0 1 I I -0.70710678118654746 0.70710678118654746 0.5 forward I I I I #
loop $-1 $-1 $137 $34 #
coedge $-1 $86 $86 $138 $139 reversed $54 $-1 #
face $-1 $140 $141 $21 $-1 $142 reversed single #
loop $-1 $-1 $143 $56 #
plane-surface $-1 0 -28.321009801120788 0 0 1 0 0 0 1 forward_v I I I I #
coedge $-1 $144 $145 $146 $147 forward $57 $-1 #
coedge $-1 $148 $59 $149 $150 forward $36 $-1 #
coedge $-1 $59 $148 $151 $152 forward $36 $-1 #
coedge $-1 $153 $154 $59 $94 reversed $155 $-1 #
edge $-1 $156 -28.321009801120788 $157 28.321009801120788 $93 $158 forward 7 unknown #
face $-1 $159 $160 $22 $-1 $161 reversed single #
loop $-1 $-1 $162 $60 #
plane-surface $-1 -42.676544496876289 0 5.0848856693167264 -1 0 0 0 0 1 forward_v I I I I #
coedge $-1 $163 $164 $165 $166 forward $61 $-1 #
coedge $-1 $167 $63 $168 $169 reversed $39 $-1 #
coedge $-1 $63 $167 $170 $171 reversed $39 $-1 #
coedge $-1 $162 $172 $63 $102 reversed $96 $-1 #
edge $-1 $173 -28.321009801120788 $174 28.321009801120788 $101 $175 forward 7 unknown #
face $-1 $176 $177 $23 $-1 $178 forward single #
loop $-1 $-1 $179 $64 #
plane-surface $-1 -13.155740244916268 -88.516104086526326 84.839508126353493 -1 0 0 0 -0.6018150307709319 0.79863550430605224 forward_v I I I I #
coedge $-1 $180 $181 $182 $183 reversed $65 $-1 #
coedge $-1 $108 $67 $184 $185 reversed $42 $-1 #
coedge $-1 $67 $107 $180 $186 reversed $42 $-1 #
coedge $-1 $182 $187 $67 $110 forward $188 $-1 #
edge $-1 $189 32.622138449829023 $190 37.461832509680931 $109 $191 forward 7 unknown #
loop $-1 $-1 $116 $68 #
plane-surface $-1 -26.283570503624802 -28.321009801120795 4.9579215534958081 0 -0.6018150307709319 0.79863550430605224 1 0 0 forward_v I I I I #
loop $-1 $-1 $192 $44 #
coedge $-1 $114 $114 $115 $193 reversed $69 $-1 #
coedge $-1 $115 $115 $114 $193 forward $71 $-1 #
coedge $-1 $116 $116 $72 $117 forward $111 $-1 #
edge $-1 $194 -7.1269216397587805e-016 $194 6.2831853071795996 $116 $195 forward 7 unknown #
face $-1 $196 $197 $25 $-1 $198 reversed single #
loop $-1 $-1 $199 $73 #
plane-surface $-1 14.293481667842233 79.569675875755934 107.79799859001017 -1 0 0 0 0.82903758062907751 0.55919289150049634 forward_v I I I I #
coedge $-1 $200 $201 $202 $203 reversed $74 $-1 #
coedge $-1 $123 $76 $204 $205 reversed $48 $-1 #
coedge $-1 $76 $122 $200 $206 reversed $48 $-1 #
coedge $-1 $202 $207 $76 $125 forward $208 $-1 #
edge $-1 $209 11.463828136757179 $210 14.762105685379858 $124 $211 forward 7 unknown #
loop $-1 $-1 $131 $77 #
plane-surface $-1 3.7674847130822684 -3.3528049206845054 51.866080797127488 0 0.82903758062907751 0.55919289150049634 1 0 0 forward_v I I I I #
loop $-1 $-1 $212 $50 #
coedge $-1 $129 $129 $130 $213 reversed $78 $-1 #
coedge $-1 $130 $130 $129 $213 forward $80 $-1 #
coedge $-1 $131 $131 $81 $132 forward $126 $-1 #
edge $-1 $214 -8.3766833415112738e-017 $214 6.2831853071796004 $131 $215 forward 7 unknown #
loop $-1 $-1 $138 $82 #
plane-surface $-1 3.7674847130822684 -3.3528049206845054 51.866080797127488 0 0.82903758062907751 0.55919289150049634 1 0 0 forward_v I I I I #
loop $-1 $-1 $216 $53 #
coedge $-1 $136 $136 $137 $217 reversed $83 $-1 #
coedge $-1 $137 $137 $136 $217 forward $85 $-1 #
coedge $-1 $138 $138 $86 $139 forward $133 $-1 #
edge $-1 $218 -8.3766833415112738e-017 $218 6.2831853071796004 $138 $219 forward 7 unknown #
face $-1 $220 $221 $21 $-1 $222 reversed single #
loop $-1 $-1 $223 $87 #
plane-surface $-1 -50.011291848506119 0 0 1 0 0 0 0 -1 forward_v I I I I #
coedge $-1 $224 $151 $225 $226 forward $88 $-1 #
coedge $-1 $227 $90 $224 $228 forward $57 $-1 #
coedge $-1 $90 $227 $229 $230 forward $57 $-1 #
coedge $-1 $154 $153 $90 $147 reversed $155 $-1 #
edge $-1 $231 -28.321009801120788 $232 28.321009801120788 $146 $233 forward 7 unknown #
coedge $-1 $92 $91 $234 $235 forward $36 $-1 #
coedge $-1 $236 $237 $91 $150 reversed $221 $-1 #
edge $-1 $157 -50.011291848506119 $238 50.011291848506119 $149 $239 forward 7 unknown #
coedge $-1 $143 $240 $92 $152 reversed $88 $-1 #
edge $-1 $241 -50.011291848506119 $156 50.011291848506119 $151 $242 forward 7 unknown #
coedge $-1 $146 $93 $240 $243 forward $155 $-1 #
coedge $-1 $93 $146 $236 $244 reversed $155 $-1 #
loop $-1 $-1 $153 $220 #
vertex $-1 $94 $245 #
vertex $-1 $94 $246 #
straight-curve $-1 50.011291848506119 0 9.797615613347725 0 1 0 I I #
face $-1 $247 $248 $22 $-1 $249 reversed single #
loop $-1 $-1 $250 $95 #
plane-surface $-1 0 -28.321009801120788 0 0 1 0 0 0 1 forward_v I I I I #
coedge $-1 $165 $101 $251 $252 reversed $96 $-1 #
coedge $-1 $253 $98 $250 $254 reversed $61 $-1 #
coedge $-1 $98 $253 $255 $256 reversed $61 $-1 #
coedge $-1 $172 $162 $98 $166 reversed $96 $-1 #
edge $-1 $257 -28.321009801120788 $258 28.321009801120788 $165 $259 forward 7 unknown #
coedge $-1 $100 $99 $260 $261 reversed $39 $-1 #
coedge $-1 $262 $263 $99 $169 forward $264 $-1 #
edge $-1 $265 -26.839332762160517 $174 -19.504585410530687 $168 $266 forward 7 unknown #
coedge $-1 $267 $251 $100 $171 forward $160 $-1 #
edge $-1 $173 19.504585410530687 $268 26.839332762160517 $170 $269 forward 7 unknown #
coedge $-1 $101 $165 $262 $270 reversed $96 $-1 #
vertex $-1 $171 $271 #
vertex $-1 $169 $272 #
straight-curve $-1 -42.676544496876289 0 7.107948124785624 0 1 0 I I #
face $-1 $-1 $188 $23 $-1 $273 reversed single #
loop $-1 $-1 $274 $103 #
plane-surface $-1 0 0 9.797615613347725 0 0 1 1 0 0 forward_v I I I I #
coedge $-1 $275 $276 $277 $278 reversed $104 $-1 #
coedge $-1 $279 $106 $108 $186 forward $65 $-1 #
coedge $-1 $106 $279 $275 $280 forward $65 $-1 #
coedge $-1 $277 $109 $106 $183 forward $188 $-1 #
edge $-1 $190 -26.269615510520936 $281 -0.013954993103867608 $182 $282 forward 7 unknown #
coedge $-1 $283 $284 $107 $185 forward $177 $-1 #
edge $-1 $285 -22.359533055018108 $189 -15.937042242142375 $184 $286 forward 7 unknown #
edge $-1 $190 8.8817612989391469e-015 $285 8.0418298187936816 $108 $287 forward 7 unknown #
coedge $-1 $109 $277 $283 $288 reversed $188 $-1 #
loop $-1 $-1 $277 $176 #
vertex $-1 $288 $289 #
vertex $-1 $110 $290 #
straight-curve $-1 -39.411400762333336 -28.321009801120788 42.419754063176747 0 0 -1 I I #
coedge $-1 $192 $192 $-1 $291 reversed $113 $-1 #
edge $-1 $292 0 $292 6.2831853071796004 $114 $293 forward 7 unknown #
vertex $-1 $117 $294 #
ellipse-curve $-1 -26.283570503624802 -25.109764394682919 7.3777685834217692 0 -0.6018150307709319 0.79863550430605224 1.5 0 0 1 I I #
face $-1 $-1 $208 $25 $-1 $295 forward single #
loop $-1 $-1 $296 $118 #
plane-surface $-1 0 28.321009801120788 0 0 -1 0 0 0 -1 forward_v I I I I #
coedge $-1 $297 $298 $299 $300 reversed $119 $-1 #
coedge $-1 $301 $121 $123 $206 forward $74 $-1 #
coedge $-1 $121 $301 $297 $302 forward $74 $-1 #
coedge $-1 $299 $124 $121 $203 forward $208 $-1 #
edge $-1 $210 -8.6422545982188304 $303 12.409739311301099 $202 $304 forward 7 unknown #
coedge $-1 $305 $306 $122 $205 forward $197 $-1 #
edge $-1 $307 -48.991281390864785 $209 -44.10138368165736 $204 $308 forward 7 unknown #
edge $-1 $210 50.743737276491167 $307 56.642019602241632 $123 $309 forward 7 unknown #
coedge $-1 $124 $299 $305 $310 forward $208 $-1 #
loop $-1 $-1 $299 $196 #
vertex $-1 $205 $311 #
vertex $-1 $125 $312 #
straight-curve $-1 -6.7585122416776962 39.784837937877967 9.7976156133477232 0 -1 0 I I #
coedge $-1 $212 $212 $-1 $313 reversed $128 $-1 #
edge $-1 $314 0 $314 6.2831853071796004 $129 $315 forward 7 unknown #
vertex $-1 $132 $316 #
ellipse-curve $-1 -0.74365683895771895 26.671871026809438 7.352666758744026 0 0.82903758062907751 0.55919289150049634 1 0 0 1 I I #
coedge $-1 $216 $216 $-1 $317 reversed $135 $-1 #
edge $-1 $318 0 $318 6.2831853071796004 $136 $319 forward 7 unknown #
vertex $-1 $139 $320 #
ellipse-curve $-1 8.2786262651222486 26.671871026809438 7.352666758744026 0 0.82903758062907751 0.55919289150049634 1 0 0 1 I I #
face $-1 $-1 $155 $21 $-1 $321 reversed single #
loop $-1 $-1 $236 $140 #
plane-surface $-1 0 28.321009801120788 0 0 -1 0 0 0 -1 forward_v I I I I #
coedge $-1 $322 $234 $237 $323 forward $141 $-1 #
coedge $-1 $240 $143 $144 $228 reversed $88 $-1 #
coedge $-1 $234 $322 $143 $226 reversed $141 $-1 #
edge $-1 $241 -9.797615613347725 $324 9.797615613347725 $225 $325 forward 7 unknown #
coedge $-1 $145 $144 $322 $326 forward $57 $-1 #
edge $-1 $232 -50.011291848506119 $324 50.011291848506119 $224 $327 forward 7 unknown #
coedge $-1 $237 $236 $145 $230 reversed $221 $-1 #
edge $-1 $328 -50.011291848506119 $231 50.011291848506119 $229 $329 forward 7 unknown #
vertex $-1 $147 $330 #
vertex $-1 $243 $331 #
straight-curve $-1 50.011291848506119 0 -9.797615613347725 0 -1 0 I I #
coedge $-1 $223 $225 $148 $235 reversed $141 $-1 #
edge $-1 $238 -28.321009801120788 $241 28.321009801120788 $234 $332 forward 7 unknown #
coedge $-1 $229 $149 $154 $244 forward $221 $-1 #
coedge $-1 $149 $229 $223 $323 reversed $221 $-1 #
vertex $-1 $150 $333 #
straight-curve $-1 0 28.321009801120788 9.797615613347725 -1 0 0 I I #
coedge $-1 $151 $224 $153 $243 reversed $88 $-1 #
vertex $-1 $235 $334 #
straight-curve $-1 0 -28.321009801120788 9.797615613347725 1 0 0 I I #
edge $-1 $156 -9.797615613347725 $232 9.797615613347725 $153 $335 forward 7 unknown #
edge $-1 $157 -9.797615613347725 $231 9.797615613347725 $154 $336 forward 7 unknown #
point $-1 50.011291848506119 -28.321009801120788 9.797615613347725 #
point $-1 50.011291848506119 28.321009801120788 9.797615613347725 #
face $-1 $-1 $264 $22 $-1 $337 reversed single #
loop $-1 $-1 $338 $159 #
plane-surface $-1 -50.011291848506119 0 0 1 0 0 0 0 -1 forward_v I I I I #
coedge $-1 $251 $267 $163 $254 forward $160 $-1 #
coedge $-1 $170 $250 $162 $252 forward $160 $-1 #
edge $-1 $258 0.51938037918946556 $173 4.5655052901272608 $251 $339 forward 7 unknown #
coedge $-1 $164 $163 $338 $340 reversed $61 $-1 #
edge $-1 $341 -26.839332762160517 $258 -19.504585410530687 $250 $342 forward 7 unknown #
coedge $-1 $263 $262 $164 $256 forward $264 $-1 #
edge $-1 $257 19.504585410530687 $343 26.839332762160517 $255 $344 forward 7 unknown #
vertex $-1 $256 $345 #
vertex $-1 $254 $346 #
straight-curve $-1 -42.676544496876289 0 3.0618232138478287 0 -1 0 I I #
coedge $-1 $347 $348 $167 $261 forward $248 $-1 #
edge $-1 $268 -28.321009801120788 $265 28.321009801120788 $260 $349 forward 7 unknown #
coedge $-1 $255 $168 $172 $270 forward $264 $-1 #
coedge $-1 $168 $255 $347 $350 reversed $264 $-1 #
loop $-1 $-1 $255 $247 #
vertex $-1 $350 $351 #
straight-curve $-1 -23.171959086345602 28.321009801120788 7.107948124785624 1 0 0 I I #
coedge $-1 $250 $170 $348 $352 forward $160 $-1 #
vertex $-1 $352 $353 #
straight-curve $-1 -23.171959086345602 -28.321009801120788 7.107948124785624 -1 0 0 I I #
edge $-1 $174 -4.5655052901272608 $257 -0.51938037918946556 $262 $354 forward 7 unknown #
point $-1 -42.676544496876289 -28.321009801120788 7.107948124785624 #
point $-1 -42.676544496876289 28.321009801120788 7.107948124785624 #
plane-surface $-1 0 -28.321009801120788 0 0 1 0 0 0 1 forward_v I I I I #
coedge $-1 $284 $283 $276 $355 forward $177 $-1 #
coedge $-1 $276 $179 $181 $280 reversed $104 $-1 #
coedge $-1 $179 $275 $274 $355 reversed $104 $-1 #
coedge $-1 $187 $182 $179 $278 forward $188 $-1 #
edge $-1 $281 -37.461832509680931 $356 -32.622138449829023 $277 $357 forward 7 unknown #
coedge $-1 $181 $180 $284 $358 reversed $65 $-1 #
edge $-1 $359 -8.0418298187936816 $281 -8.8817612989391469e-015 $275 $360 forward 7 unknown #
vertex $-1 $183 $361 #
straight-curve $-1 -13.141785251812401 -28.321009801120788 4.9579215534958117 1 0 0 I I #
coedge $-1 $274 $184 $187 $288 forward $177 $-1 #
coedge $-1 $184 $274 $279 $358 forward $177 $-1 #
vertex $-1 $185 $362 #
straight-curve $-1 -39.411400762333336 -44.258052043263163 9.7976156133477232 0 -1 0 I I #
straight-curve $-1 -39.411400762333336 -28.321009801120795 4.9579215534958081 0 0.79863550430605224 0.6018150307709319 I I #
edge $-1 $189 -39.411400762333336 $356 -13.155740244916268 $187 $363 forward 7 unknown #
point $-1 -39.411400762333336 -28.321009801120788 9.797615613347725 #
point $-1 -39.411400762333336 -28.321009801120788 4.9579215534958134 #
edge $-1 $364 1 $364 0 $192 $-1 forward 7 unknown #
vertex $-1 $193 $365 #
ellipse-curve $-1 -26.283570503624802 -23.420386384707747 5.1358882880231311 0 -0.6018150307709319 0.79863550430605224 1.5 0 0 1 I I #
point $-1 -24.783570503624802 -25.109764394682919 7.3777685834217674 #
plane-surface $-1 0 0 9.797615613347725 0 0 1 1 0 0 forward_v I I I I #
coedge $-1 $306 $305 $298 $366 forward $197 $-1 #
coedge $-1 $298 $199 $201 $302 reversed $119 $-1 #
coedge $-1 $199 $297 $296 $366 reversed $119 $-1 #
coedge $-1 $207 $202 $199 $300 forward $208 $-1 #
edge $-1 $303 -14.762105685379858 $367 -11.463828136757179 $299 $368 forward 7 unknown #
coedge $-1 $201 $200 $306 $369 reversed $74 $-1 #
edge $-1 $370 -56.642019602241632 $303 -50.743737276491167 $297 $371 forward 7 unknown #
vertex $-1 $203 $372 #
straight-curve $-1 1.8837423565411342 25.022732252498109 9.7976156133477232 1 0 0 I I #
coedge $-1 $296 $204 $207 $310 reversed $197 $-1 #
coedge $-1 $204 $296 $301 $369 forward $197 $-1 #
vertex $-1 $205 $373 #
straight-curve $-1 -6.7585122416776962 28.321009801120788 53.898999295005083 0 0 1 I I #
straight-curve $-1 -6.7585122416776962 -3.3528049206845054 51.866080797127488 0 0.55919289150049634 -0.82903758062907751 I I #
edge $-1 $367 -14.293481667842233 $209 6.7585122416776962 $305 $374 forward 7 unknown #
point $-1 -6.7585122416776962 28.321009801120788 9.797615613347725 #
point $-1 -6.7585122416776962 25.022732252498109 9.7976156133477232 #
edge $-1 $375 1 $375 0 $212 $-1 forward 7 unknown #
vertex $-1 $213 $376 #
ellipse-curve $-1 -0.74365683895771895 23.926662873075031 5.5010005362156802 0 0.82903758062907751 0.55919289150049634 1 0 0 1 I I #
point $-1 0.25634316104228105 26.671871026809463 7.3526667587440429 #
edge $-1 $377 1 $377 0 $216 $-1 forward 7 unknown #
vertex $-1 $217 $378 #
ellipse-curve $-1 8.2786262651222486 23.926662873075031 5.5010005362156802 0 0.82903758062907751 0.55919289150049634 1 0 0 1 I I #
point $-1 9.2786262651222486 26.671871026809463 7.3526667587440429 #
plane-surface $-1 50.011291848506119 0 0 -1 0 0 0 0 1 forward_v I I I I #
coedge $-1 $225 $223 $227 $326 reversed $141 $-1 #
edge $-1 $238 -9.797615613347725 $328 9.797615613347725 $237 $379 forward 7 unknown #
vertex $-1 $326 $380 #
straight-curve $-1 -50.011291848506119 -28.321009801120788 0 0 0 -1 I I #
edge $-1 $324 -28.321009801120788 $328 28.321009801120788 $322 $381 forward 7 unknown #
straight-curve $-1 0 -28.321009801120788 -9.797615613347725 -1 0 0 I I #
vertex $-1 $230 $382 #
straight-curve $-1 0 28.321009801120788 -9.797615613347725 1 0 0 I I #
point $-1 50.011291848506119 28.321009801120788 -9.797615613347725 #
point $-1 50.011291848506119 -28.321009801120788 -9.797615613347725 #
straight-curve $-1 -50.011291848506119 0 9.797615613347725 0 -1 0 I I #
point $-1 -50.011291848506119 28.321009801120788 9.797615613347725 #
point $-1 -50.011291848506119 -28.321009801120788 9.797615613347725 #
straight-curve $-1 50.011291848506119 -28.321009801120788 0 0 0 -1 I I #
straight-curve $-1 50.011291848506119 28.321009801120788 0 0 0 -1 I I #
plane-surface $-1 0 28.321009801120788 0 0 -1 0 0 0 -1 forward_v I I I I #
coedge $-1 $348 $347 $253 $340 forward $248 $-1 #
straight-curve $-1 -42.676544496876289 -28.321009801120788 2.5424428346583632 0 0 1 I I #
edge $-1 $343 -28.321009801120788 $341 28.321009801120788 $338 $383 forward 7 unknown #
vertex $-1 $254 $384 #
straight-curve $-1 -23.171959086345602 -28.321009801120788 3.0618232138478287 1 0 0 I I #
vertex $-1 $256 $385 #
straight-curve $-1 -23.171959086345602 28.321009801120788 3.0618232138478287 -1 0 0 I I #
point $-1 -42.676544496876289 28.321009801120788 3.0618232138478287 #
point $-1 -42.676544496876289 -28.321009801120788 3.0618232138478287 #
coedge $-1 $338 $260 $263 $350 forward $248 $-1 #
coedge $-1 $260 $338 $267 $352 reversed $248 $-1 #
straight-curve $-1 -50.011291848506119 0 7.107948124785624 0 1 0 I I #
edge $-1 $265 -7.107948124785624 $343 -3.0618232138478287 $263 $386 forward 7 unknown #
point $-1 -50.011291848506119 28.321009801120788 7.107948124785624 #
edge $-1 $268 -7.107948124785624 $341 -3.0618232138478287 $348 $387 forward 7 unknown #
point $-1 -50.011291848506119 -28.321009801120788 7.107948124785624 #
straight-curve $-1 -42.676544496876289 28.321009801120788 2.5424428346583632 0 0 -1 I I #
edge $-1 $356 15.937042242142375 $359 22.359533055018108 $274 $388 forward 7 unknown #
vertex $-1 $355 $389 #
straight-curve $-1 -13.155740244916268 -28.321009801120788 42.419754063176747 0 0 1 I I #
edge $-1 $359 0.013954993103867608 $285 26.269615510520936 $284 $390 forward 7 unknown #
vertex $-1 $358 $391 #
straight-curve $-1 -13.155740244916268 -28.321009801120795 4.9579215534958081 0 -0.79863550430605224 -0.6018150307709319 I I #
point $-1 -13.155740244916268 -28.321009801120788 4.9579215534958134 #
point $-1 -39.411400762333336 -21.898518988245055 9.797615613347725 #
straight-curve $-1 0 -28.321009801120788 9.797615613347725 1 0 0 I I #
vertex $-1 $291 $392 #
point $-1 -24.783570503624802 -23.420386384707747 5.1358882880231311 #
edge $-1 $367 44.10138368165736 $370 48.991281390864785 $296 $393 forward 7 unknown #
vertex $-1 $310 $394 #
straight-curve $-1 14.293481667842233 39.784837937877967 9.7976156133477232 0 1 0 I I #
edge $-1 $370 -12.409739311301099 $307 8.6422545982188304 $306 $395 forward 7 unknown #
vertex $-1 $369 $396 #
straight-curve $-1 14.293481667842233 -3.3528049206845054 51.866080797127488 0 -0.55919289150049634 0.82903758062907751 I I #
point $-1 14.293481667842233 25.022732252498109 9.7976156133477232 #
point $-1 -6.7585122416776962 28.321009801120788 4.9077179041402985 #
straight-curve $-1 0 28.321009801120788 9.797615613347725 -1 0 0 I I #
vertex $-1 $313 $397 #
point $-1 0.25634316104228105 23.926662873075031 5.5010005362156802 #
vertex $-1 $317 $398 #
point $-1 9.2786262651222486 23.926662873075031 5.5010005362156802 #
straight-curve $-1 -50.011291848506119 28.321009801120788 0 0 0 -1 I I #
point $-1 -50.011291848506119 -28.321009801120788 -9.797615613347725 #
straight-curve $-1 -50.011291848506119 0 -9.797615613347725 0 1 0 I I #
point $-1 -50.011291848506119 28.321009801120788 -9.797615613347725 #
straight-curve $-1 -50.011291848506119 0 3.0618232138478287 0 -1 0 I I #
point $-1 -50.011291848506119 -28.321009801120788 3.0618232138478287 #
point $-1 -50.011291848506119 28.321009801120788 3.0618232138478287 #
straight-curve $-1 -50.011291848506119 28.321009801120788 0 0 0 -1 I I #
straight-curve $-1 -50.011291848506119 -28.321009801120788 0 0 0 -1 I I #
straight-curve $-1 -13.155740244916268 -44.258052043263163 9.7976156133477232 0 1 0 I I #
point $-1 -13.155740244916268 -28.321009801120788 9.797615613347725 #
straight-curve $-1 -13.141785251812401 -21.898518988245055 9.797615613347725 -1 0 0 I I #
point $-1 -13.155740244916268 -21.898518988245055 9.797615613347725 #
point $-1 -26.283570503624802 -22.51766383855135 3.9379350315640531 #
straight-curve $-1 14.293481667842233 28.321009801120788 53.898999295005083 0 0 -1 I I #
point $-1 14.293481667842233 28.321009801120788 9.797615613347725 #
straight-curve $-1 1.8837423565411342 28.321009801120788 4.9077179041403021 -1 0 0 I I #
point $-1 14.293481667842233 28.321009801120788 4.9077179041402985 #
point $-1 -0.74365683895771895 23.097625292445954 4.9418076447151842 #
point $-1 8.2786262651222486 23.097625292445954 4.9418076447151842 #
End-of-ACIS-data 