500 0 10 0           
7 Unknown 11 ACIS 5.0 NT 24 Fri Mar 26 16:38:01 1999 
-1 9.9999999999999995e-007 1e-010 
body $-1 $10 $-1 $11 #
body $-1 $12 $-1 $13 #
body $-1 $14 $-1 $15 #
body $-1 $16 $-1 $17 #
body $-1 $18 $-1 $19 #
body $-1 $20 $-1 $21 #
body $-1 $22 $-1 $23 #
body $-1 $24 $-1 $25 #
body $-1 $26 $-1 $27 #
body $-1 $28 $-1 $29 #
lump $-1 $-1 $30 $0 #
transform $-1 1 0 0 0 1 0 0 0 1 47.030243842890712 31.351677857533463 6.6426289720122709 1 rotate no_reflect no_shear #
lump $-1 $-1 $31 $1 #
transform $-1 1 0 0 0 1 0 0 0 1 47.030243842890712 31.351677857533463 6.6426289720122709 1 rotate no_reflect no_shear #
lump $-1 $-1 $32 $2 #
transform $-1 1 0 0 0 1 0 0 0 1 47.030243842890712 31.351677857533463 6.6426289720122709 1 rotate no_reflect no_shear #
lump $-1 $-1 $33 $3 #
transform $-1 1 0 0 0 1 0 0 0 1 47.030243842890712 31.351677857533463 6.6426289720122709 1 rotate no_reflect no_shear #
lump $-1 $-1 $34 $4 #
transform $-1 1 0 0 0 1 0 0 0 1 47.030243842890712 31.351677857533463 6.6426289720122709 1 rotate no_reflect no_shear #
lump $-1 $-1 $35 $5 #
transform $-1 1 0 0 0 1 0 0 0 1 47.030243842890712 31.351677857533463 6.6426289720122709 1 rotate no_reflect no_shear #
lump $-1 $-1 $36 $6 #
transform $-1 1 0 0 0 1 0 0 0 1 47.030243842890712 31.351677857533463 6.6426289720122709 1 rotate no_reflect no_shear #
lump $-1 $-1 $37 $7 #
transform $-1 1 0 0 0 1 0 0 0 1 47.030243842890712 31.351677857533463 6.6426289720122709 1 rotate no_reflect no_shear #
lump $-1 $-1 $38 $8 #
transform $-1 1 0 0 0 1 0 0 0 1 47.030243842890712 31.351677857533463 6.6426289720122709 1 rotate no_reflect no_shear #
lump $-1 $-1 $39 $9 #
transform $-1 1 0 0 0 1 0 0 0 1 47.030243842890712 31.351677857533463 6.6426289720122709 1 rotate no_reflect no_shear #
shell $-1 $-1 $-1 $40 $-1 $10 #
shell $-1 $-1 $-1 $41 $-1 $12 #
shell $-1 $-1 $-1 $42 $-1 $14 #
shell $-1 $-1 $-1 $43 $-1 $16 #
shell $-1 $-1 $-1 $44 $-1 $18 #
shell $-1 $-1 $-1 $45 $-1 $20 #
shell $-1 $-1 $-1 $46 $-1 $22 #
shell $-1 $-1 $-1 $47 $-1 $24 #
shell $-1 $-1 $-1 $48 $-1 $26 #
shell $-1 $-1 $-1 $49 $-1 $28 #
face $-1 $50 $51 $30 $-1 $52 forward single #
face $-1 $53 $54 $31 $-1 $55 reversed single #
face $-1 $56 $57 $32 $-1 $58 reversed single #
face $-1 $59 $60 $33 $-1 $61 reversed single #
face $-1 $62 $63 $34 $-1 $64 forward single #
face $-1 $65 $66 $35 $-1 $67 forward single #
face $-1 $68 $69 $36 $-1 $70 reversed single #
face $-1 $71 $72 $37 $-1 $73 forward single #
face $-1 $74 $75 $38 $-1 $76 forward single #
face $-1 $77 $78 $39 $-1 $79 forward single #
face $-1 $80 $81 $30 $-1 $82 reversed single #
loop $-1 $-1 $83 $40 #
plane-surface $-1 0 0 6.6426289720122709 0 0 1 1 0 0 forward_v I I I I #
face $-1 $84 $85 $31 $-1 $86 reversed single #
loop $-1 $-1 $87 $41 #
plane-surface $-1 -44.470166893053417 -27.998191209966659 0 0 -1 0 0 0 -1 forward_v I I I I #
face $-1 $88 $89 $32 $-1 $90 reversed single #
loop $-1 $-1 $91 $42 #
plane-surface $-1 41.910089943216121 -29.674934533750061 0 1 0 0 0 0 -1 forward_v I I I I #
face $-1 $92 $93 $33 $-1 $94 reversed single #
loop $-1 $-1 $95 $43 #
plane-surface $-1 -10.913439029151398 66.868314594900184 108.49604534250957 1 0 0 0 -0.78801076186113728 -0.61566146476048833 forward_v I I I I #
face $-1 $96 $97 $34 $-1 $98 forward single #
loop $-1 $99 $100 $44 #
cone-surface $-1 -8.2760719994290639 28.50245533184129 3.3516360120779933 0 -0.78801076186113728 -0.61566146476048833 0.5 0 0 1 I I 0 1 0.5 forward I I I I #
face $-1 $101 $102 $35 $-1 $103 forward single #
loop $-1 $104 $105 $45 #
cone-surface $-1 -4.3200214548455662 28.50245533184129 3.3516360120779933 0 -0.78801076186113728 -0.61566146476048833 0.5 0 0 1 I I 0 1 0.5 forward I I I I #
face $-1 $106 $107 $36 $-1 $108 reversed single #
loop $-1 $-1 $109 $46 #
plane-surface $-1 -21.158918950050307 -102.34002981404639 64.676405913744404 -1 0 0 0 -0.75470958851134928 0.65605901945558964 forward_v I I I I #
face $-1 $110 $111 $37 $-1 $112 forward single #
loop $-1 $113 $114 $47 #
cone-surface $-1 -28.277916960754535 -29.003291366116994 4.1521764166750348 0 0.75470958851134928 -0.65605901945558964 0.5 0 0 1 I I 0 1 0.5 forward I I I I #
face $-1 $115 $116 $38 $-1 $117 forward single #
loop $-1 $118 $119 $48 #
cone-surface $-1 -25.60829270674045 -29.003291366116994 4.1521764166750348 0 0.75470958851134928 -0.65605901945558964 0.5 0 0 1 I I 0 1 0.5 forward I I I I #
face $-1 $120 $121 $39 $-1 $122 forward single #
loop $-1 $123 $124 $49 #
cone-surface $-1 -22.938668452726365 -29.003291366116994 4.1521764166750348 0 0.75470958851134928 -0.65605901945558964 0.5 0 0 1 I I 0 1 0.5 forward I I I I #
face $-1 $125 $126 $30 $-1 $127 reversed single #
loop $-1 $-1 $128 $50 #
plane-surface $-1 0 0 -6.6426289720122709 0 0 1 1 0 0 forward_v I I I I #
coedge $-1 $129 $130 $131 $132 forward $51 $-1 #
face $-1 $133 $134 $31 $-1 $135 forward single #
loop $-1 $-1 $136 $53 #
plane-surface $-1 -41.910089943216121 -29.674934533750061 0 -1 0 0 0 0 1 forward_v I I I I #
coedge $-1 $137 $138 $139 $140 forward $54 $-1 #
face $-1 $141 $142 $32 $-1 $143 forward single #
loop $-1 $-1 $144 $56 #
plane-surface $-1 44.470166893053417 -27.998191209966659 0 0 -1 0 0 0 -1 forward_v I I I I #
coedge $-1 $145 $146 $147 $148 forward $57 $-1 #
face $-1 $149 $150 $33 $-1 $151 reversed single #
loop $-1 $-1 $152 $59 #
plane-surface $-1 -6.2980467271373186 -7.2523619674025639 50.586627717795508 0 0.78801076186113728 0.61566146476048833 1 0 0 forward_v I I I I #
coedge $-1 $153 $154 $155 $156 reversed $60 $-1 #
face $-1 $-1 $157 $34 $-1 $158 forward single #
loop $-1 $159 $160 $62 #
cone-surface $-1 -8.2760719994290639 27.591843206902421 2.6401878672018713 0 -0.78801076186113728 -0.61566146476048833 0.25 0 0 1 I I -0.70710678118654746 0.70710678118654746 0.25 forward I I I I #
loop $-1 $-1 $161 $44 #
coedge $-1 $100 $100 $162 $163 reversed $63 $-1 #
face $-1 $-1 $164 $35 $-1 $165 forward single #
loop $-1 $166 $167 $65 #
cone-surface $-1 -4.3200214548455662 27.591843206902421 2.6401878672018713 0 -0.78801076186113728 -0.61566146476048833 0.25 0 0 1 I I -0.70710678118654746 0.70710678118654746 0.25 forward I I I I #
loop $-1 $-1 $168 $45 #
coedge $-1 $105 $105 $169 $170 reversed $66 $-1 #
face $-1 $171 $172 $36 $-1 $173 reversed single #
loop $-1 $-1 $174 $68 #
plane-surface $-1 -25.60829270674045 -31.35167785753346 2.9671745930960753 0 -0.75470958851134928 0.65605901945558964 1 0 0 forward_v I I I I #
coedge $-1 $175 $176 $177 $178 reversed $69 $-1 #
face $-1 $-1 $179 $37 $-1 $180 forward single #
loop $-1 $181 $182 $71 #
cone-surface $-1 -28.277916960754535 -28.063739310330622 3.3354362959319923 0 0.75470958851134928 -0.65605901945558964 0.25 0 0 1 I I -0.70710678118654746 0.70710678118654746 0.25 forward I I I I #
loop $-1 $-1 $183 $47 #
coedge $-1 $114 $114 $184 $185 reversed $72 $-1 #
face $-1 $-1 $186 $38 $-1 $187 forward single #
loop $-1 $188 $189 $74 #
cone-surface $-1 -25.60829270674045 -28.063739310330622 3.3354362959319923 0 0.75470958851134928 -0.65605901945558964 0.25 0 0 1 I I -0.70710678118654746 0.70710678118654746 0.25 forward I I I I #
loop $-1 $-1 $190 $48 #
coedge $-1 $119 $119 $191 $192 reversed $75 $-1 #
face $-1 $-1 $193 $39 $-1 $194 forward single #
loop $-1 $195 $196 $77 #
cone-surface $-1 -22.938668452726365 -28.063739310330622 3.3354362959319923 0 0.75470958851134928 -0.65605901945558964 0.25 0 0 1 I I -0.70710678118654746 0.70710678118654746 0.25 forward I I I I #
loop $-1 $-1 $197 $49 #
coedge $-1 $124 $124 $198 $199 reversed $78 $-1 #
face $-1 $200 $201 $30 $-1 $202 reversed single #
loop $-1 $-1 $203 $80 #
plane-surface $-1 0 -31.351677857533463 0 0 1 0 0 0 1 forward_v I I I I #
coedge $-1 $204 $205 $206 $207 forward $81 $-1 #
coedge $-1 $208 $83 $209 $210 forward $51 $-1 #
coedge $-1 $83 $208 $211 $212 forward $51 $-1 #
coedge $-1 $213 $214 $83 $132 reversed $215 $-1 #
edge $-1 $216 -31.351677857533463 $217 31.351677857533463 $131 $218 forward 7 unknown #
face $-1 $219 $220 $31 $-1 $221 reversed single #
loop $-1 $-1 $222 $84 #
plane-surface $-1 0 0 6.6426289720122709 0 0 1 1 0 0 forward_v I I I I #
coedge $-1 $223 $224 $225 $226 reversed $85 $-1 #
coedge $-1 $227 $87 $228 $229 reversed $54 $-1 #
coedge $-1 $87 $227 $230 $231 reversed $54 $-1 #
coedge $-1 $224 $223 $87 $140 reversed $85 $-1 #
edge $-1 $232 -6.6426289720122709 $233 6.6426289720122709 $139 $234 forward 7 unknown #
face $-1 $235 $236 $32 $-1 $237 reversed single #
loop $-1 $-1 $238 $88 #
plane-surface $-1 0 0 6.6426289720122709 0 0 1 1 0 0 forward_v I I I I #
coedge $-1 $239 $240 $241 $242 reversed $89 $-1 #
coedge $-1 $243 $91 $244 $245 reversed $57 $-1 #
coedge $-1 $91 $243 $246 $247 reversed $57 $-1 #
coedge $-1 $240 $239 $91 $148 reversed $89 $-1 #
edge $-1 $248 -6.6426289720122709 $249 6.6426289720122709 $147 $250 forward 7 unknown #
face $-1 $251 $252 $33 $-1 $253 reversed single #
loop $-1 $-1 $254 $92 #
plane-surface $-1 -1.6826544251232392 66.868314594900184 108.49604534250957 -1 0 0 0 0.78801076186113728 0.61566146476048833 forward_v I I I I #
coedge $-1 $255 $256 $257 $258 reversed $93 $-1 #
coedge $-1 $154 $95 $259 $260 reversed $60 $-1 #
coedge $-1 $95 $153 $255 $261 reversed $60 $-1 #
coedge $-1 $257 $262 $95 $156 forward $263 $-1 #
edge $-1 $264 2.0824794399166286 $265 6.3537056223538002 $155 $266 forward 7 unknown #
loop $-1 $-1 $162 $96 #
plane-surface $-1 -6.2980467271373186 -7.2523619674025639 50.586627717795508 0 0.78801076186113728 0.61566146476048833 1 0 0 forward_v I I I I #
loop $-1 $-1 $267 $62 #
coedge $-1 $160 $160 $161 $268 reversed $97 $-1 #
coedge $-1 $161 $161 $160 $268 forward $99 $-1 #
coedge $-1 $162 $162 $100 $163 forward $157 $-1 #
edge $-1 $269 6.2990473785886491e-015 $269 6.2831853071796067 $162 $270 forward 7 unknown #
loop $-1 $-1 $169 $101 #
plane-surface $-1 -6.2980467271373186 -7.2523619674025639 50.586627717795508 0 0.78801076186113728 0.61566146476048833 1 0 0 forward_v I I I I #
loop $-1 $-1 $271 $65 #
coedge $-1 $167 $167 $168 $272 reversed $102 $-1 #
coedge $-1 $168 $168 $167 $272 forward $104 $-1 #
coedge $-1 $169 $169 $105 $170 forward $164 $-1 #
edge $-1 $273 6.2990473785886491e-015 $273 6.2831853071796067 $169 $274 forward 7 unknown #
face $-1 $275 $276 $36 $-1 $277 forward single #
loop $-1 $-1 $278 $106 #
plane-surface $-1 -30.057666463430593 -102.34002981404639 64.676405913744404 1 0 0 0 0.75470958851134928 -0.65605901945558964 forward_v I I I I #
coedge $-1 $279 $280 $281 $282 reversed $107 $-1 #
coedge $-1 $176 $109 $283 $284 reversed $69 $-1 #
coedge $-1 $109 $175 $279 $285 reversed $69 $-1 #
coedge $-1 $281 $286 $109 $178 forward $276 $-1 #
edge $-1 $287 19.818337049489731 $288 23.013360715005614 $177 $289 forward 7 unknown #
loop $-1 $-1 $184 $110 #
plane-surface $-1 -25.60829270674045 -31.35167785753346 2.9671745930960753 0 -0.75470958851134928 0.65605901945558964 1 0 0 forward_v I I I I #
loop $-1 $-1 $290 $71 #
coedge $-1 $182 $182 $183 $291 reversed $111 $-1 #
coedge $-1 $183 $183 $182 $291 forward $113 $-1 #
coedge $-1 $184 $184 $114 $185 forward $179 $-1 #
edge $-1 $292 -1.9190372613041498e-015 $292 6.2831853071795987 $184 $293 forward 7 unknown #
loop $-1 $-1 $191 $115 #
plane-surface $-1 -25.60829270674045 -31.35167785753346 2.9671745930960753 0 -0.75470958851134928 0.65605901945558964 1 0 0 forward_v I I I I #
loop $-1 $-1 $294 $74 #
coedge $-1 $189 $189 $190 $295 reversed $116 $-1 #
coedge $-1 $190 $190 $189 $295 forward $118 $-1 #
coedge $-1 $191 $191 $119 $192 forward $186 $-1 #
edge $-1 $296 -1.9190372613041498e-015 $296 6.2831853071795987 $191 $297 forward 7 unknown #
loop $-1 $-1 $198 $120 #
plane-surface $-1 -25.60829270674045 -31.35167785753346 2.9671745930960753 0 -0.75470958851134928 0.65605901945558964 1 0 0 forward_v I I I I #
loop $-1 $-1 $298 $77 #
coedge $-1 $196 $196 $197 $299 reversed $121 $-1 #
coedge $-1 $197 $197 $196 $299 forward $123 $-1 #
coedge $-1 $198 $198 $124 $199 forward $193 $-1 #
edge $-1 $300 -1.9190372613041498e-015 $300 6.2831853071795987 $198 $301 forward 7 unknown #
face $-1 $302 $303 $30 $-1 $304 reversed single #
loop $-1 $-1 $305 $125 #
plane-surface $-1 -47.030243842890712 0 0 1 0 0 0 0 -1 forward_v I I I I #
coedge $-1 $306 $211 $307 $308 forward $126 $-1 #
coedge $-1 $309 $128 $306 $310 forward $81 $-1 #
coedge $-1 $128 $309 $311 $312 forward $81 $-1 #
coedge $-1 $214 $213 $128 $207 reversed $215 $-1 #
edge $-1 $313 -31.351677857533463 $314 31.351677857533463 $206 $315 forward 7 unknown #
coedge $-1 $130 $129 $316 $317 forward $51 $-1 #
coedge $-1 $318 $319 $129 $210 reversed $303 $-1 #
edge $-1 $217 -47.030243842890712 $320 47.030243842890712 $209 $321 forward 7 unknown #
coedge $-1 $203 $322 $130 $212 reversed $126 $-1 #
edge $-1 $323 -47.030243842890712 $216 47.030243842890712 $211 $324 forward 7 unknown #
coedge $-1 $206 $131 $322 $325 forward $215 $-1 #
coedge $-1 $131 $206 $318 $326 reversed $215 $-1 #
loop $-1 $-1 $213 $302 #
vertex $-1 $132 $327 #
vertex $-1 $132 $328 #
straight-curve $-1 47.030243842890712 0 6.6426289720122709 0 1 0 I I #
face $-1 $329 $330 $31 $-1 $331 reversed single #
loop $-1 $-1 $332 $133 #
plane-surface $-1 -47.030243842890712 0 0 1 0 0 0 0 -1 forward_v I I I I #
coedge $-1 $230 $333 $224 $334 forward $134 $-1 #
coedge $-1 $139 $136 $335 $336 reversed $85 $-1 #
coedge $-1 $136 $139 $222 $334 reversed $85 $-1 #
coedge $-1 $337 $338 $136 $226 forward $339 $-1 #
edge $-1 $340 -6.6426289720122709 $341 6.6426289720122709 $225 $342 forward 7 unknown #
coedge $-1 $138 $137 $332 $343 reversed $54 $-1 #
coedge $-1 $335 $344 $137 $229 forward $330 $-1 #
edge $-1 $345 -24.795160396364004 $233 -19.675006496689413 $228 $346 forward 7 unknown #
coedge $-1 $347 $222 $138 $231 forward $134 $-1 #
edge $-1 $232 19.675006496689413 $348 24.795160396364004 $230 $349 forward 7 unknown #
vertex $-1 $231 $350 #
vertex $-1 $229 $351 #
straight-curve $-1 -41.910089943216121 -27.998191209966659 0 0 0 -1 I I #
face $-1 $352 $353 $32 $-1 $354 reversed single #
loop $-1 $-1 $355 $141 #
plane-surface $-1 0 -31.351677857533463 0 0 1 0 0 0 1 forward_v I I I I #
coedge $-1 $246 $356 $240 $357 forward $142 $-1 #
coedge $-1 $147 $144 $358 $359 reversed $89 $-1 #
coedge $-1 $144 $147 $238 $357 reversed $89 $-1 #
coedge $-1 $360 $361 $144 $242 forward $362 $-1 #
edge $-1 $363 -6.6426289720122709 $364 6.6426289720122709 $241 $365 forward 7 unknown #
coedge $-1 $146 $145 $355 $366 reversed $57 $-1 #
coedge $-1 $358 $367 $145 $245 forward $353 $-1 #
edge $-1 $368 -16.514210590658433 $249 -13.160723943091629 $244 $369 forward 7 unknown #
coedge $-1 $370 $238 $146 $247 forward $142 $-1 #
edge $-1 $248 13.160723943091629 $371 16.514210590658433 $246 $372 forward 7 unknown #
vertex $-1 $247 $373 #
vertex $-1 $245 $374 #
straight-curve $-1 41.910089943216121 -27.998191209966659 0 0 0 -1 I I #
face $-1 $-1 $263 $33 $-1 $375 forward single #
loop $-1 $-1 $376 $149 #
plane-surface $-1 0 31.351677857533463 0 0 -1 0 0 0 -1 forward_v I I I I #
coedge $-1 $377 $378 $379 $380 reversed $150 $-1 #
coedge $-1 $381 $152 $154 $261 forward $93 $-1 #
coedge $-1 $152 $381 $377 $382 forward $93 $-1 #
coedge $-1 $379 $155 $152 $258 forward $263 $-1 #
edge $-1 $265 -7.7644156655827388 $383 1.4663689384454202 $257 $384 forward 7 unknown #
coedge $-1 $385 $386 $153 $260 forward $252 $-1 #
edge $-1 $387 -53.072314061739043 $264 -47.605393699242519 $259 $388 forward 7 unknown #
edge $-1 $265 55.765734267379237 $387 62.703355715066898 $154 $389 forward 7 unknown #
coedge $-1 $155 $379 $385 $390 forward $263 $-1 #
loop $-1 $-1 $379 $251 #
vertex $-1 $260 $391 #
vertex $-1 $156 $392 #
straight-curve $-1 -10.913439029151398 33.434157297450092 6.6426289720122682 0 -1 0 I I #
coedge $-1 $267 $267 $-1 $393 reversed $159 $-1 #
edge $-1 $394 0 $394 6.2831853071796004 $160 $395 forward 7 unknown #
vertex $-1 $163 $396 #
ellipse-curve $-1 -8.2760719994290639 29.216064766314879 3.9091687907639971 0 0.78801076186113728 0.61566146476048833 0.5 0 0 1 I I #
coedge $-1 $271 $271 $-1 $397 reversed $166 $-1 #
edge $-1 $398 0 $398 6.2831853071796004 $167 $399 forward 7 unknown #
vertex $-1 $170 $400 #
ellipse-curve $-1 -4.3200214548455662 29.216064766314879 3.9091687907639971 0 0.78801076186113728 0.61566146476048833 0.5 0 0 1 I I #
face $-1 $-1 $401 $36 $-1 $402 reversed single #
loop $-1 $-1 $177 $171 #
plane-surface $-1 0 0 6.6426289720122709 0 0 1 1 0 0 forward_v I I I I #
coedge $-1 $403 $404 $405 $406 reversed $172 $-1 #
coedge $-1 $407 $174 $176 $285 forward $107 $-1 #
coedge $-1 $174 $407 $403 $408 forward $107 $-1 #
coedge $-1 $405 $177 $174 $282 forward $276 $-1 #
edge $-1 $288 8.3547725966800819 $409 17.253520110060368 $281 $410 forward 7 unknown #
coedge $-1 $411 $412 $175 $284 forward $401 $-1 #
edge $-1 $413 -29.37102836377613 $287 -25.69557398485993 $283 $414 forward 7 unknown #
edge $-1 $288 -4.8700247550398323 $413 5.3472153159747578e-015 $176 $415 forward 7 unknown #
coedge $-1 $177 $405 $411 $416 forward $276 $-1 #
vertex $-1 $284 $417 #
vertex $-1 $178 $418 #
straight-curve $-1 -21.158918950050307 -51.170014907023194 6.6426289720122718 0 1 0 I I #
coedge $-1 $290 $290 $-1 $419 reversed $181 $-1 #
edge $-1 $420 0 $420 6.2831853071796004 $182 $421 forward 7 unknown #
vertex $-1 $185 $422 #
ellipse-curve $-1 -28.277916960754535 -29.754166024775522 4.8049017825541727 0 -0.75470958851134928 0.65605901945558964 0.5 0 0 1 I I #
coedge $-1 $294 $294 $-1 $423 reversed $188 $-1 #
edge $-1 $424 0 $424 6.2831853071796004 $189 $425 forward 7 unknown #
vertex $-1 $192 $426 #
ellipse-curve $-1 -25.60829270674045 -29.754166024775522 4.8049017825541727 0 -0.75470958851134928 0.65605901945558964 0.5 0 0 1 I I #
coedge $-1 $298 $298 $-1 $427 reversed $195 $-1 #
edge $-1 $428 0 $428 6.2831853071796004 $196 $429 forward 7 unknown #
vertex $-1 $199 $430 #
ellipse-curve $-1 -22.938668452726365 -29.754166024775522 4.8049017825541727 0 -0.75470958851134928 0.65605901945558964 0.5 0 0 1 I I #
face $-1 $-1 $215 $30 $-1 $431 reversed single #
loop $-1 $-1 $318 $200 #
plane-surface $-1 0 31.351677857533463 0 0 -1 0 0 0 -1 forward_v I I I I #
coedge $-1 $432 $316 $319 $433 forward $201 $-1 #
coedge $-1 $322 $203 $204 $310 reversed $126 $-1 #
coedge $-1 $316 $432 $203 $308 reversed $201 $-1 #
edge $-1 $323 -6.6426289720122709 $434 6.6426289720122709 $307 $435 forward 7 unknown #
coedge $-1 $205 $204 $432 $436 forward $81 $-1 #
edge $-1 $314 -47.030243842890712 $434 47.030243842890712 $306 $437 forward 7 unknown #
coedge $-1 $319 $318 $205 $312 reversed $303 $-1 #
edge $-1 $438 -47.030243842890712 $313 47.030243842890712 $311 $439 forward 7 unknown #
vertex $-1 $207 $440 #
vertex $-1 $325 $441 #
straight-curve $-1 47.030243842890712 0 -6.6426289720122709 0 -1 0 I I #
coedge $-1 $305 $307 $208 $317 reversed $201 $-1 #
edge $-1 $320 -31.351677857533463 $323 31.351677857533463 $316 $442 forward 7 unknown #
coedge $-1 $311 $209 $214 $326 forward $303 $-1 #
coedge $-1 $209 $311 $305 $433 reversed $303 $-1 #
vertex $-1 $210 $443 #
straight-curve $-1 0 31.351677857533463 6.6426289720122709 -1 0 0 I I #
coedge $-1 $211 $306 $213 $325 reversed $126 $-1 #
vertex $-1 $317 $444 #
straight-curve $-1 0 -31.351677857533463 6.6426289720122709 1 0 0 I I #
edge $-1 $216 -6.6426289720122709 $314 6.6426289720122709 $213 $445 forward 7 unknown #
edge $-1 $217 -6.6426289720122709 $313 6.6426289720122709 $214 $446 forward 7 unknown #
point $-1 47.030243842890712 -31.351677857533463 6.6426289720122709 #
point $-1 47.030243842890712 31.351677857533463 6.6426289720122709 #
face $-1 $-1 $339 $31 $-1 $447 reversed single #
loop $-1 $-1 $335 $219 #
plane-surface $-1 0 0 -6.6426289720122709 0 0 1 1 0 0 forward_v I I I I #
coedge $-1 $448 $449 $227 $343 forward $220 $-1 #
coedge $-1 $222 $347 $337 $450 forward $134 $-1 #
edge $-1 $341 -16.514210590658433 $232 -13.160723943091629 $222 $451 forward 7 unknown #
coedge $-1 $452 $228 $223 $336 forward $330 $-1 #
edge $-1 $233 13.160723943091629 $340 16.514210590658433 $335 $453 forward 7 unknown #
coedge $-1 $454 $225 $333 $450 reversed $339 $-1 #
coedge $-1 $225 $454 $452 $455 reversed $339 $-1 #
loop $-1 $-1 $225 $329 #
vertex $-1 $455 $456 #
vertex $-1 $226 $457 #
straight-curve $-1 -41.910089943216121 -31.351677857533463 0 0 0 1 I I #
edge $-1 $348 -6.6426289720122709 $345 6.6426289720122709 $332 $458 forward 7 unknown #
coedge $-1 $228 $452 $448 $459 forward $330 $-1 #
vertex $-1 $229 $460 #
straight-curve $-1 -22.235083446526708 -27.998191209966659 -6.6426289720122709 1 0 0 I I #
coedge $-1 $333 $230 $449 $461 forward $134 $-1 #
vertex $-1 $461 $462 #
straight-curve $-1 -22.235083446526708 -27.998191209966659 6.6426289720122709 -1 0 0 I I #
point $-1 -41.910089943216121 -27.998191209966659 6.6426289720122709 #
point $-1 -41.910089943216121 -27.998191209966659 -6.6426289720122709 #
face $-1 $-1 $362 $32 $-1 $463 reversed single #
loop $-1 $-1 $358 $235 #
plane-surface $-1 0 0 -6.6426289720122709 0 0 1 1 0 0 forward_v I I I I #
coedge $-1 $464 $465 $243 $366 forward $236 $-1 #
coedge $-1 $238 $370 $360 $466 forward $142 $-1 #
edge $-1 $364 -24.795160396364004 $248 -19.675006496689413 $238 $467 forward 7 unknown #
coedge $-1 $468 $244 $239 $359 forward $353 $-1 #
edge $-1 $249 19.675006496689413 $363 24.795160396364004 $358 $469 forward 7 unknown #
coedge $-1 $470 $241 $356 $466 reversed $362 $-1 #
coedge $-1 $241 $470 $468 $471 reversed $362 $-1 #
loop $-1 $-1 $241 $352 #
vertex $-1 $471 $472 #
vertex $-1 $242 $473 #
straight-curve $-1 47.030243842890712 -27.998191209966659 0 0 0 1 I I #
edge $-1 $371 -6.6426289720122709 $368 6.6426289720122709 $355 $474 forward 7 unknown #
coedge $-1 $244 $468 $464 $475 forward $353 $-1 #
vertex $-1 $245 $476 #
straight-curve $-1 41.910089943216121 -14.837467266875031 -6.6426289720122709 0 1 0 I I #
coedge $-1 $356 $246 $465 $477 forward $142 $-1 #
vertex $-1 $477 $478 #
straight-curve $-1 41.910089943216121 -14.837467266875031 6.6426289720122709 0 -1 0 I I #
point $-1 41.910089943216121 -27.998191209966659 6.6426289720122709 #
point $-1 41.910089943216121 -27.998191209966659 -6.6426289720122709 #
plane-surface $-1 0 0 6.6426289720122709 0 0 1 1 0 0 forward_v I I I I #
coedge $-1 $386 $385 $378 $479 forward $252 $-1 #
coedge $-1 $378 $254 $256 $382 reversed $150 $-1 #
coedge $-1 $254 $377 $376 $479 reversed $150 $-1 #
coedge $-1 $262 $257 $254 $380 forward $263 $-1 #
edge $-1 $383 -6.3537056223538002 $480 -2.0824794399166286 $379 $481 forward 7 unknown #
coedge $-1 $256 $255 $386 $482 reversed $93 $-1 #
edge $-1 $483 -62.703355715066898 $383 -55.765734267379237 $377 $484 forward 7 unknown #
vertex $-1 $258 $485 #
straight-curve $-1 -3.1490233635686593 27.080451675096292 6.6426289720122682 1 0 0 I I #
coedge $-1 $376 $259 $262 $390 reversed $252 $-1 #
coedge $-1 $259 $376 $381 $482 forward $252 $-1 #
vertex $-1 $260 $486 #
straight-curve $-1 -10.913439029151398 31.351677857533463 54.248022671254787 0 0 1 I I #
straight-curve $-1 -10.913439029151398 -7.2523619674025639 50.586627717795508 0 0.61566146476048833 -0.78801076186113728 I I #
edge $-1 $480 1.6826544251232392 $264 10.913439029151398 $385 $487 forward 7 unknown #
point $-1 -10.913439029151398 31.351677857533463 6.6426289720122709 #
point $-1 -10.913439029151398 27.080451675096292 6.6426289720122682 #
edge $-1 $488 1 $488 0 $267 $-1 forward 7 unknown #
vertex $-1 $268 $489 #
ellipse-curve $-1 -8.2760719994290639 27.788845897367704 2.7941032333919935 0 0.78801076186113728 0.61566146476048833 0.5 0 0 1 I I #
point $-1 -7.7760719994290639 29.216064766314879 3.9091687907639932 #
edge $-1 $490 1 $490 0 $271 $-1 forward 7 unknown #
vertex $-1 $272 $491 #
ellipse-curve $-1 -4.3200214548455662 27.788845897367704 2.7941032333919935 0 0.78801076186113728 0.61566146476048833 0.5 0 0 1 I I #
point $-1 -3.8200214548455662 29.216064766314879 3.9091687907639932 #
loop $-1 $-1 $283 $275 #
plane-surface $-1 0 -31.351677857533463 0 0 1 0 0 0 1 forward_v I I I I #
coedge $-1 $404 $278 $280 $408 reversed $172 $-1 #
coedge $-1 $278 $403 $492 $493 reversed $172 $-1 #
coedge $-1 $286 $281 $278 $406 forward $276 $-1 #
edge $-1 $409 -23.013360715005614 $494 -19.818337049489731 $405 $495 forward 7 unknown #
coedge $-1 $280 $279 $412 $496 reversed $107 $-1 #
edge $-1 $497 -5.3472153159747578e-015 $409 4.8700247550398323 $403 $498 forward 7 unknown #
vertex $-1 $282 $499 #
straight-curve $-1 -12.804146353370225 -28.15665419201758 6.64262897201227 -1 0 0 I I #
coedge $-1 $492 $283 $286 $416 reversed $401 $-1 #
coedge $-1 $283 $492 $407 $496 forward $401 $-1 #
vertex $-1 $284 $500 #
straight-curve $-1 -21.158918950050307 -31.35167785753346 32.338202956872202 0 0 1 I I #
straight-curve $-1 -21.158918950050307 -31.35167785753346 2.9671745930960753 0 -0.65605901945558964 -0.75470958851134928 I I #
edge $-1 $494 -30.057666463430593 $287 -21.158918950050307 $411 $501 forward 7 unknown #
point $-1 -21.158918950050307 -31.351677857533463 6.6426289720122709 #
point $-1 -21.158918950050307 -28.15665419201758 6.6426289720122709 #
edge $-1 $502 1 $502 0 $290 $-1 forward 7 unknown #
vertex $-1 $291 $503 #
ellipse-curve $-1 -28.277916960754535 -28.252416707458458 3.4994510507958898 0 -0.75470958851134928 0.65605901945558964 0.5 0 0 1 I I #
point $-1 -27.777916960754535 -29.754166024775532 4.8049017825541807 #
edge $-1 $504 1 $504 0 $294 $-1 forward 7 unknown #
vertex $-1 $295 $505 #
ellipse-curve $-1 -25.60829270674045 -28.252416707458458 3.4994510507958898 0 -0.75470958851134928 0.65605901945558964 0.5 0 0 1 I I #
point $-1 -25.10829270674045 -29.754166024775532 4.8049017825541807 #
edge $-1 $506 1 $506 0 $298 $-1 forward 7 unknown #
vertex $-1 $299 $507 #
ellipse-curve $-1 -22.938668452726365 -28.252416707458458 3.4994510507958898 0 -0.75470958851134928 0.65605901945558964 0.5 0 0 1 I I #
point $-1 -22.438668452726365 -29.754166024775532 4.8049017825541807 #
plane-surface $-1 47.030243842890712 0 0 -1 0 0 0 0 1 forward_v I I I I #
coedge $-1 $307 $305 $309 $436 reversed $201 $-1 #
edge $-1 $320 -6.6426289720122709 $438 6.6426289720122709 $319 $508 forward 7 unknown #
vertex $-1 $436 $509 #
straight-curve $-1 -47.030243842890712 -31.351677857533463 0 0 0 -1 I I #
edge $-1 $434 -31.351677857533463 $438 31.351677857533463 $432 $510 forward 7 unknown #
straight-curve $-1 0 -31.351677857533463 -6.6426289720122709 -1 0 0 I I #
vertex $-1 $312 $511 #
straight-curve $-1 0 31.351677857533463 -6.6426289720122709 1 0 0 I I #
point $-1 47.030243842890712 31.351677857533463 -6.6426289720122709 #
point $-1 47.030243842890712 -31.351677857533463 -6.6426289720122709 #
straight-curve $-1 -47.030243842890712 0 6.6426289720122709 0 -1 0 I I #
point $-1 -47.030243842890712 31.351677857533463 6.6426289720122709 #
point $-1 -47.030243842890712 -31.351677857533463 6.6426289720122709 #
straight-curve $-1 47.030243842890712 -31.351677857533463 0 0 0 -1 I I #
straight-curve $-1 47.030243842890712 31.351677857533463 0 0 0 -1 I I #
plane-surface $-1 0 -31.351677857533463 0 0 1 0 0 0 1 forward_v I I I I #
coedge $-1 $512 $332 $344 $459 reversed $220 $-1 #
coedge $-1 $332 $512 $347 $461 reversed $220 $-1 #
edge $-1 $513 -47.030243842890712 $341 -41.910089943216121 $337 $514 forward 7 unknown #
straight-curve $-1 -41.910089943216121 -14.837467266875031 6.6426289720122709 0 1 0 I I #
coedge $-1 $344 $335 $338 $455 forward $330 $-1 #
straight-curve $-1 -41.910089943216121 -14.837467266875031 -6.6426289720122709 0 -1 0 I I #
coedge $-1 $338 $337 $512 $515 forward $339 $-1 #
edge $-1 $340 41.910089943216121 $516 47.030243842890712 $338 $517 forward 7 unknown #
point $-1 -41.910089943216121 -31.351677857533463 -6.6426289720122709 #
point $-1 -41.910089943216121 -31.351677857533463 6.6426289720122709 #
straight-curve $-1 -47.030243842890712 -27.998191209966659 0 0 0 -1 I I #
edge $-1 $516 -31.351677857533463 $345 -27.998191209966659 $448 $518 forward 7 unknown #
point $-1 -47.030243842890712 -27.998191209966659 -6.6426289720122709 #
edge $-1 $348 27.998191209966659 $513 31.351677857533463 $449 $519 forward 7 unknown #
point $-1 -47.030243842890712 -27.998191209966659 6.6426289720122709 #
plane-surface $-1 47.030243842890712 0 0 -1 0 0 0 0 1 forward_v I I I I #
coedge $-1 $520 $355 $367 $475 reversed $236 $-1 #
coedge $-1 $355 $520 $370 $477 reversed $236 $-1 #
edge $-1 $521 -31.351677857533463 $364 -27.998191209966659 $360 $522 forward 7 unknown #
straight-curve $-1 22.235083446526708 -27.998191209966659 6.6426289720122709 -1 0 0 I I #
coedge $-1 $367 $358 $361 $471 forward $353 $-1 #
straight-curve $-1 22.235083446526708 -27.998191209966659 -6.6426289720122709 1 0 0 I I #
coedge $-1 $361 $360 $520 $523 forward $362 $-1 #
edge $-1 $363 27.998191209966659 $524 31.351677857533463 $361 $525 forward 7 unknown #
point $-1 47.030243842890712 -27.998191209966659 -6.6426289720122709 #
point $-1 47.030243842890712 -27.998191209966659 6.6426289720122709 #
straight-curve $-1 41.910089943216121 -31.351677857533463 0 0 0 -1 I I #
edge $-1 $524 -47.030243842890712 $368 -41.910089943216121 $464 $526 forward 7 unknown #
point $-1 41.910089943216121 -31.351677857533463 -6.6426289720122709 #
edge $-1 $371 41.910089943216121 $521 47.030243842890712 $465 $527 forward 7 unknown #
point $-1 41.910089943216121 -31.351677857533463 6.6426289720122709 #
edge $-1 $480 47.605393699242519 $483 53.072314061739043 $376 $528 forward 7 unknown #
vertex $-1 $390 $529 #
straight-curve $-1 -1.6826544251232392 33.434157297450092 6.6426289720122682 0 1 0 I I #
edge $-1 $483 -1.4663689384454202 $387 7.7644156655827388 $386 $530 forward 7 unknown #
vertex $-1 $482 $531 #
straight-curve $-1 -1.6826544251232392 -7.2523619674025639 50.586627717795508 0 -0.61566146476048833 0.78801076186113728 I I #
point $-1 -1.6826544251232392 27.080451675096292 6.6426289720122682 #
point $-1 -10.913439029151398 31.35167785753346 1.1757086095157447 #
straight-curve $-1 0 31.351677857533463 6.6426289720122709 -1 0 0 I I #
vertex $-1 $393 $532 #
point $-1 -7.7760719994290639 27.788845897367704 2.7941032333919935 #
vertex $-1 $397 $533 #
point $-1 -3.8200214548455662 27.788845897367704 2.7941032333919935 #
coedge $-1 $412 $411 $404 $493 forward $401 $-1 #
edge $-1 $494 25.69557398485993 $497 29.37102836377613 $492 $534 forward 7 unknown #
vertex $-1 $416 $535 #
straight-curve $-1 -30.057666463430593 -51.170014907023194 6.6426289720122718 0 -1 0 I I #
edge $-1 $497 -17.253520110060368 $413 -8.3547725966800819 $412 $536 forward 7 unknown #
vertex $-1 $496 $537 #
straight-curve $-1 -30.057666463430593 -31.35167785753346 2.9671745930960753 0 0.65605901945558964 0.75470958851134928 I I #
point $-1 -30.057666463430593 -28.15665419201758 6.6426289720122709 #
point $-1 -21.158918950050307 -31.351677857533463 2.9671745930960713 #
straight-curve $-1 0 -31.351677857533463 6.6426289720122709 1 0 0 I I #
vertex $-1 $419 $538 #
point $-1 -27.777916960754535 -28.252416707458458 3.4994510507958898 #
vertex $-1 $423 $539 #
point $-1 -25.10829270674045 -28.252416707458458 3.4994510507958898 #
vertex $-1 $427 $540 #
point $-1 -22.438668452726365 -28.252416707458458 3.4994510507958898 #
straight-curve $-1 -47.030243842890712 31.351677857533463 0 0 0 -1 I I #
point $-1 -47.030243842890712 -31.351677857533463 -6.6426289720122709 #
straight-curve $-1 -47.030243842890712 0 -6.6426289720122709 0 1 0 I I #
point $-1 -47.030243842890712 31.351677857533463 -6.6426289720122709 #
coedge $-1 $449 $448 $454 $515 reversed $220 $-1 #
vertex $-1 $461 $541 #
straight-curve $-1 0 -31.351677857533463 6.6426289720122709 1 0 0 I I #
edge $-1 $513 -6.6426289720122709 $516 6.6426289720122709 $512 $542 forward 7 unknown #
vertex $-1 $459 $543 #
straight-curve $-1 0 -31.351677857533463 -6.6426289720122709 -1 0 0 I I #
straight-curve $-1 -47.030243842890712 0 -6.6426289720122709 0 1 0 I I #
straight-curve $-1 -47.030243842890712 0 6.6426289720122709 0 -1 0 I I #
coedge $-1 $465 $464 $470 $523 reversed $236 $-1 #
vertex $-1 $466 $544 #
straight-curve $-1 47.030243842890712 0 6.6426289720122709 0 1 0 I I #
edge $-1 $521 -6.6426289720122709 $524 6.6426289720122709 $470 $545 forward 7 unknown #
vertex $-1 $523 $546 #
straight-curve $-1 47.030243842890712 0 -6.6426289720122709 0 -1 0 I I #
straight-curve $-1 0 -31.351677857533463 -6.6426289720122709 -1 0 0 I I #
straight-curve $-1 0 -31.351677857533463 6.6426289720122709 1 0 0 I I #
straight-curve $-1 -1.6826544251232392 31.351677857533463 54.248022671254787 0 0 -1 I I #
point $-1 -1.6826544251232392 31.351677857533463 6.6426289720122709 #
straight-curve $-1 -3.1490233635686593 31.351677857533467 1.1757086095157376 -1 0 0 I I #
point $-1 -1.6826544251232392 31.35167785753346 1.1757086095157447 #
point $-1 -8.2760719994290639 27.394840516437139 2.486272501011749 #
point $-1 -4.3200214548455662 27.394840516437139 2.486272501011749 #
straight-curve $-1 -30.057666463430593 -31.35167785753346 32.338202956872202 0 0 -1 I I #
point $-1 -30.057666463430593 -31.351677857533463 6.6426289720122709 #
straight-curve $-1 -12.804146353370225 -31.351677857533463 2.9671745930960709 1 0 0 I I #
point $-1 -30.057666463430593 -31.351677857533463 2.9671745930960713 #
point $-1 -28.277916960754535 -27.875061913202785 3.1714215410680948 #
point $-1 -25.60829270674045 -27.875061913202785 3.1714215410680948 #
point $-1 -22.938668452726365 -27.875061913202785 3.1714215410680948 #
point $-1 -47.030243842890712 -31.351677857533463 6.6426289720122709 #
straight-curve $-1 -47.030243842890712 -31.351677857533463 0 0 0 -1 I I #
point $-1 -47.030243842890712 -31.351677857533463 -6.6426289720122709 #
point $-1 47.030243842890712 -31.351677857533463 6.6426289720122709 #
straight-curve $-1 47.030243842890712 -31.351677857533463 0 0 0 -1 I I #
point $-1 47.030243842890712 -31.351677857533463 -6.6426289720122709 #
End-of-ACIS-data 