500 0 7 0           
7 Unknown 11 ACIS 5.0 NT 24 Fri Mar 26 18:16:10 1999 
-1 9.9999999999999995e-007 1e-010 
body $-1 $7 $-1 $8 #
body $-1 $9 $-1 $10 #
body $-1 $11 $-1 $12 #
body $-1 $13 $-1 $14 #
body $-1 $15 $-1 $16 #
body $-1 $17 $-1 $18 #
body $-1 $19 $-1 $20 #
lump $-1 $-1 $21 $0 #
transform $-1 1 0 0 0 1 0 0 0 1 65.541550950651569 40.981321400867778 11.668426653081944 1 rotate no_reflect no_shear #
lump $-1 $-1 $22 $1 #
transform $-1 1 0 0 0 1 0 0 0 1 65.541550950651569 40.981321400867778 11.668426653081944 1 rotate no_reflect no_shear #
lump $-1 $-1 $23 $2 #
transform $-1 1 0 0 0 1 0 0 0 1 65.541550950651569 40.981321400867778 11.668426653081944 1 rotate no_reflect no_shear #
lump $-1 $-1 $24 $3 #
transform $-1 1 0 0 0 1 0 0 0 1 65.541550950651569 40.981321400867778 11.668426653081944 1 rotate no_reflect no_shear #
lump $-1 $-1 $25 $4 #
transform $-1 1 0 0 0 1 0 0 0 1 65.541550950651569 40.981321400867778 11.668426653081944 1 rotate no_reflect no_shear #
lump $-1 $-1 $26 $5 #
transform $-1 1 0 0 0 1 0 0 0 1 65.541550950651569 40.981321400867778 11.668426653081944 1 rotate no_reflect no_shear #
lump $-1 $-1 $27 $6 #
transform $-1 1 0 0 0 1 0 0 0 1 65.541550950651569 40.981321400867778 11.668426653081944 1 rotate no_reflect no_shear #
shell $-1 $-1 $-1 $28 $-1 $7 #
shell $-1 $-1 $-1 $29 $-1 $9 #
shell $-1 $-1 $-1 $30 $-1 $11 #
shell $-1 $-1 $-1 $31 $-1 $13 #
shell $-1 $-1 $-1 $32 $-1 $15 #
shell $-1 $-1 $-1 $33 $-1 $17 #
shell $-1 $-1 $-1 $34 $-1 $19 #
face $-1 $35 $36 $21 $-1 $37 forward single #
face $-1 $38 $39 $22 $-1 $40 reversed single #
face $-1 $41 $42 $23 $-1 $43 reversed single #
face $-1 $44 $45 $24 $-1 $46 forward single #
face $-1 $47 $48 $25 $-1 $49 reversed single #
face $-1 $50 $51 $26 $-1 $52 forward single #
face $-1 $53 $54 $27 $-1 $55 forward single #
face $-1 $56 $57 $21 $-1 $58 reversed single #
loop $-1 $-1 $59 $28 #
plane-surface $-1 0 0 11.668426653081944 0 0 1 1 0 0 forward_v I I I I #
face $-1 $60 $61 $22 $-1 $62 reversed single #
loop $-1 $-1 $63 $29 #
plane-surface $-1 -58.031232073687121 0 5.4204572631779584 0 0 1 1 0 0 forward_v I I I I #
face $-1 $64 $65 $23 $-1 $66 reversed single #
loop $-1 $-1 $67 $30 #
plane-surface $-1 -0.74714115812473381 -108.49411075543335 120.59392325951347 -1 0 0 0 -0.51503808176128008 0.85716729658548041 forward_v I I I I #
face $-1 $68 $69 $24 $-1 $70 forward single #
loop $-1 $71 $72 $31 #
cone-surface $-1 -10.685257518532929 -37.586238638098528 9.0574280793611841 0 0.51503808176128008 -0.85716729658548041 1.5 0 0 1 I I 0 1 1.5 forward I I I I #
face $-1 $73 $74 $25 $-1 $75 reversed single #
loop $-1 $-1 $76 $32 #
plane-surface $-1 5.3043896697696766 67.782924627728136 154.99683043012271 1 0 0 0 -0.66913061440640931 -0.74314481823134659 forward_v I I I I #
face $-1 $77 $78 $26 $-1 $79 forward single #
loop $-1 $80 $81 $33 #
cone-surface $-1 11.450054742449595 33.48551466441765 4.3857771002322217 0 -0.66913061440640931 -0.74314481823134659 2 0 0 1 I I 0 1 2 forward I I I I #
face $-1 $82 $83 $27 $-1 $84 forward single #
loop $-1 $85 $86 $34 #
cone-surface $-1 20.668552351469472 33.48551466441765 4.3857771002322217 0 -0.66913061440640931 -0.74314481823134659 2 0 0 1 I I 0 1 2 forward I I I I #
face $-1 $87 $88 $21 $-1 $89 reversed single #
loop $-1 $-1 $90 $35 #
plane-surface $-1 0 0 -11.668426653081944 0 0 1 1 0 0 forward_v I I I I #
coedge $-1 $91 $92 $93 $94 forward $36 $-1 #
face $-1 $95 $96 $22 $-1 $97 reversed single #
loop $-1 $-1 $98 $38 #
plane-surface $-1 -50.520913196722674 0 8.5444419581299513 -1 0 0 0 0 1 forward_v I I I I #
coedge $-1 $99 $100 $101 $102 forward $39 $-1 #
face $-1 $103 $104 $23 $-1 $105 reversed single #
loop $-1 $-1 $106 $41 #
plane-surface $-1 -10.685257518532929 -40.981321400867799 8.233775174734447 0 -0.51503808176128008 0.85716729658548041 1 0 0 forward_v I I I I #
coedge $-1 $107 $108 $109 $110 reversed $42 $-1 #
face $-1 $-1 $111 $24 $-1 $112 forward single #
loop $-1 $113 $114 $44 #
cone-surface $-1 -10.685257518532929 -36.662987254481671 7.5208797723750749 0 0.51503808176128008 -0.85716729658548041 0.75 0 0 1 I I -0.70710678118654757 0.70710678118654757 0.75 forward I I I I #
loop $-1 $-1 $115 $31 #
coedge $-1 $72 $72 $116 $117 reversed $45 $-1 #
face $-1 $118 $119 $25 $-1 $120 reversed single #
loop $-1 $-1 $121 $47 #
plane-surface $-1 16.059303546959526 -19.928791885788797 57.583102494477714 0 0.66913061440640931 0.74314481823134659 1 0 0 forward_v I I I I #
coedge $-1 $122 $123 $124 $125 reversed $48 $-1 #
face $-1 $-1 $126 $26 $-1 $127 forward single #
loop $-1 $128 $129 $50 #
cone-surface $-1 11.450054742449595 30.278927710251374 0.82450157660243661 0 -0.66913061440640931 -0.74314481823134659 1 0 0 1 I I -0.70710678118654746 0.70710678118654746 1 forward I I I I #
loop $-1 $-1 $130 $33 #
coedge $-1 $81 $81 $131 $132 reversed $51 $-1 #
face $-1 $-1 $133 $27 $-1 $134 forward single #
loop $-1 $135 $136 $53 #
cone-surface $-1 20.668552351469472 30.278927710251374 0.82450157660243661 0 -0.66913061440640931 -0.74314481823134659 1 0 0 1 I I -0.70710678118654746 0.70710678118654746 1 forward I I I I #
loop $-1 $-1 $137 $34 #
coedge $-1 $86 $86 $138 $139 reversed $54 $-1 #
face $-1 $140 $141 $21 $-1 $142 reversed single #
loop $-1 $-1 $143 $56 #
plane-surface $-1 0 -40.981321400867778 0 0 1 0 0 0 1 forward_v I I I I #
coedge $-1 $144 $145 $146 $147 forward $57 $-1 #
coedge $-1 $148 $59 $149 $150 forward $36 $-1 #
coedge $-1 $59 $148 $151 $152 forward $36 $-1 #
coedge $-1 $153 $154 $59 $94 reversed $155 $-1 #
edge $-1 $156 -40.981321400867778 $157 40.981321400867778 $93 $158 forward 7 unknown #
face $-1 $159 $160 $22 $-1 $161 reversed single #
loop $-1 $-1 $162 $60 #
plane-surface $-1 0 40.981321400867778 0 0 -1 0 0 0 -1 forward_v I I I I #
coedge $-1 $101 $163 $164 $165 reversed $61 $-1 #
coedge $-1 $166 $63 $167 $168 reversed $39 $-1 #
coedge $-1 $63 $166 $169 $170 reversed $39 $-1 #
coedge $-1 $171 $98 $63 $102 reversed $61 $-1 #
edge $-1 $172 -40.981321400867778 $173 40.981321400867778 $101 $174 forward 7 unknown #
face $-1 $175 $176 $23 $-1 $177 reversed single #
loop $-1 $-1 $178 $64 #
plane-surface $-1 -20.623373878941123 -108.49411075543335 120.59392325951347 1 0 0 0 0.51503808176128008 -0.85716729658548041 forward_v I I I I #
coedge $-1 $179 $180 $181 $182 reversed $65 $-1 #
coedge $-1 $108 $67 $183 $184 reversed $42 $-1 #
coedge $-1 $67 $107 $179 $185 reversed $42 $-1 #
coedge $-1 $181 $186 $67 $110 forward $187 $-1 #
edge $-1 $188 13.2657339768489 $189 18.981953857795517 $109 $190 forward 7 unknown #
loop $-1 $-1 $116 $68 #
plane-surface $-1 -10.685257518532929 -40.981321400867799 8.233775174734447 0 -0.51503808176128008 0.85716729658548041 1 0 0 forward_v I I I I #
loop $-1 $-1 $191 $44 #
coedge $-1 $114 $114 $115 $192 reversed $69 $-1 #
coedge $-1 $115 $115 $114 $192 forward $71 $-1 #
coedge $-1 $116 $116 $72 $117 forward $111 $-1 #
edge $-1 $193 1.2023828893399057e-015 $193 6.2831853071796013 $116 $194 forward 7 unknown #
face $-1 $195 $196 $25 $-1 $197 forward single #
loop $-1 $-1 $198 $73 #
plane-surface $-1 26.814217424149376 67.782924627728136 154.99683043012271 -1 0 0 0 0.66913061440640931 0.74314481823134659 forward_v I I I I #
coedge $-1 $199 $200 $201 $202 reversed $74 $-1 #
coedge $-1 $123 $76 $203 $204 reversed $48 $-1 #
coedge $-1 $76 $122 $199 $205 reversed $48 $-1 #
coedge $-1 $201 $206 $76 $125 forward $196 $-1 #
edge $-1 $207 -7.0898590870037097 $208 2.8268417063768396 $124 $209 forward 7 unknown #
loop $-1 $-1 $131 $77 #
plane-surface $-1 16.059303546959526 -19.928791885788797 57.583102494477714 0 0.66913061440640931 0.74314481823134659 1 0 0 forward_v I I I I #
loop $-1 $-1 $210 $50 #
coedge $-1 $129 $129 $130 $211 reversed $78 $-1 #
coedge $-1 $130 $130 $129 $211 forward $80 $-1 #
coedge $-1 $131 $131 $81 $132 forward $126 $-1 #
edge $-1 $212 7.8885382306314906e-016 $212 6.2831853071796013 $131 $213 forward 7 unknown #
loop $-1 $-1 $138 $82 #
plane-surface $-1 16.059303546959526 -19.928791885788797 57.583102494477714 0 0.66913061440640931 0.74314481823134659 1 0 0 forward_v I I I I #
loop $-1 $-1 $214 $53 #
coedge $-1 $136 $136 $137 $215 reversed $83 $-1 #
coedge $-1 $137 $137 $136 $215 forward $85 $-1 #
coedge $-1 $138 $138 $86 $139 forward $133 $-1 #
edge $-1 $216 7.8885382306314906e-016 $216 6.2831853071796013 $138 $217 forward 7 unknown #
face $-1 $218 $219 $21 $-1 $220 reversed single #
loop $-1 $-1 $221 $87 #
plane-surface $-1 -65.541550950651569 0 0 1 0 0 0 0 -1 forward_v I I I I #
coedge $-1 $222 $151 $223 $224 forward $88 $-1 #
coedge $-1 $225 $90 $222 $226 forward $57 $-1 #
coedge $-1 $90 $225 $227 $228 forward $57 $-1 #
coedge $-1 $154 $153 $90 $147 reversed $155 $-1 #
edge $-1 $229 -40.981321400867778 $230 40.981321400867778 $146 $231 forward 7 unknown #
coedge $-1 $92 $91 $232 $233 forward $36 $-1 #
coedge $-1 $234 $235 $91 $150 reversed $219 $-1 #
edge $-1 $157 -65.541550950651569 $236 65.541550950651569 $149 $237 forward 7 unknown #
coedge $-1 $143 $238 $92 $152 reversed $88 $-1 #
edge $-1 $239 -65.541550950651569 $156 65.541550950651569 $151 $240 forward 7 unknown #
coedge $-1 $146 $93 $238 $241 forward $155 $-1 #
coedge $-1 $93 $146 $234 $242 reversed $155 $-1 #
loop $-1 $-1 $153 $218 #
vertex $-1 $94 $243 #
vertex $-1 $94 $244 #
straight-curve $-1 65.541550950651569 0 11.668426653081944 0 1 0 I I #
face $-1 $245 $246 $22 $-1 $247 forward single #
loop $-1 $-1 $248 $95 #
plane-surface $-1 -65.541550950651569 0 0 1 0 0 0 0 -1 forward_v I I I I #
coedge $-1 $169 $249 $171 $250 forward $96 $-1 #
coedge $-1 $98 $171 $251 $252 reversed $61 $-1 #
coedge $-1 $253 $167 $98 $165 forward $254 $-1 #
edge $-1 $173 1.1482362841129827 $255 7.3962056740169686 $164 $256 forward 7 unknown #
coedge $-1 $100 $99 $248 $257 reversed $39 $-1 #
coedge $-1 $164 $258 $99 $168 forward $254 $-1 #
edge $-1 $259 -36.525934913808008 $173 -21.505297159879113 $167 $260 forward 7 unknown #
coedge $-1 $261 $162 $100 $170 forward $96 $-1 #
edge $-1 $172 21.505297159879113 $262 36.525934913808008 $169 $263 forward 7 unknown #
coedge $-1 $163 $101 $162 $250 reversed $61 $-1 #
vertex $-1 $170 $264 #
vertex $-1 $168 $265 #
straight-curve $-1 -50.520913196722674 0 5.4204572631779584 0 -1 0 I I #
face $-1 $-1 $187 $23 $-1 $266 forward single #
loop $-1 $-1 $267 $103 #
plane-surface $-1 0 -40.981321400867778 0 0 1 0 0 0 1 forward_v I I I I #
coedge $-1 $268 $269 $270 $271 reversed $104 $-1 #
coedge $-1 $272 $106 $108 $185 forward $65 $-1 #
coedge $-1 $106 $272 $268 $273 forward $65 $-1 #
coedge $-1 $270 $109 $106 $182 forward $187 $-1 #
edge $-1 $189 -4.5954876011417305 $274 15.280745119674659 $181 $275 forward 7 unknown #
coedge $-1 $276 $277 $107 $184 forward $176 $-1 #
edge $-1 $278 -52.063186455022276 $188 -48.628534976674793 $183 $279 forward 7 unknown #
edge $-1 $189 -6.6687330509658462 $278 -2.4675859811215743e-014 $108 $280 forward 7 unknown #
coedge $-1 $109 $270 $276 $281 forward $187 $-1 #
loop $-1 $-1 $270 $175 #
vertex $-1 $184 $282 #
vertex $-1 $110 $283 #
straight-curve $-1 -0.74714115812473381 -54.247055377716677 11.668426653081944 0 1 0 I I #
coedge $-1 $191 $191 $-1 $284 reversed $113 $-1 #
edge $-1 $285 0 $285 6.2831853071796004 $114 $286 forward 7 unknown #
vertex $-1 $117 $287 #
ellipse-curve $-1 -10.685257518532929 -38.123211460394451 9.9511009139082152 0 -0.51503808176128008 0.85716729658548041 1.5 0 0 1 I I #
face $-1 $-1 $288 $25 $-1 $289 reversed single #
loop $-1 $-1 $124 $118 #
plane-surface $-1 0 0 11.668426653081944 0 0 1 1 0 0 forward_v I I I I #
coedge $-1 $290 $291 $292 $293 reversed $119 $-1 #
coedge $-1 $294 $121 $123 $205 forward $74 $-1 #
coedge $-1 $121 $294 $290 $295 forward $74 $-1 #
coedge $-1 $292 $124 $121 $202 forward $196 $-1 #
edge $-1 $208 -2.7252621037100866 $296 18.784565650669613 $201 $297 forward 7 unknown #
coedge $-1 $298 $299 $122 $204 forward $288 $-1 #
edge $-1 $300 -74.759026256882038 $207 -65.829988561979405 $203 $301 forward 7 unknown #
edge $-1 $208 68.618405514335961 $300 81.962642801735583 $123 $302 forward 7 unknown #
coedge $-1 $124 $292 $298 $303 forward $196 $-1 #
vertex $-1 $204 $304 #
vertex $-1 $125 $305 #
straight-curve $-1 5.3043896697696766 33.891462313864068 11.668426653081951 0 -1 0 I I #
coedge $-1 $210 $210 $-1 $306 reversed $128 $-1 #
edge $-1 $307 0 $307 6.2831853071796004 $129 $308 forward 7 unknown #
vertex $-1 $132 $309 #
ellipse-curve $-1 11.450054742449595 36.022971004177499 7.2039078056306387 0 0.66913061440640931 0.74314481823134659 2 0 0 1 I I #
coedge $-1 $214 $214 $-1 $310 reversed $135 $-1 #
edge $-1 $311 0 $311 6.2831853071796004 $136 $312 forward 7 unknown #
vertex $-1 $139 $313 #
ellipse-curve $-1 20.668552351469472 36.022971004177499 7.2039078056306387 0 0.66913061440640931 0.74314481823134659 2 0 0 1 I I #
face $-1 $-1 $155 $21 $-1 $314 reversed single #
loop $-1 $-1 $234 $140 #
plane-surface $-1 0 40.981321400867778 0 0 -1 0 0 0 -1 forward_v I I I I #
coedge $-1 $315 $232 $235 $316 forward $141 $-1 #
coedge $-1 $238 $143 $144 $226 reversed $88 $-1 #
coedge $-1 $232 $315 $143 $224 reversed $141 $-1 #
edge $-1 $239 -11.668426653081944 $317 11.668426653081944 $223 $318 forward 7 unknown #
coedge $-1 $145 $144 $315 $319 forward $57 $-1 #
edge $-1 $230 -65.541550950651569 $317 65.541550950651569 $222 $320 forward 7 unknown #
coedge $-1 $235 $234 $145 $228 reversed $219 $-1 #
edge $-1 $321 -65.541550950651569 $229 65.541550950651569 $227 $322 forward 7 unknown #
vertex $-1 $147 $323 #
vertex $-1 $241 $324 #
straight-curve $-1 65.541550950651569 0 -11.668426653081944 0 -1 0 I I #
coedge $-1 $221 $223 $148 $233 reversed $141 $-1 #
edge $-1 $236 -40.981321400867778 $239 40.981321400867778 $232 $325 forward 7 unknown #
coedge $-1 $227 $149 $154 $242 forward $219 $-1 #
coedge $-1 $149 $227 $221 $316 reversed $219 $-1 #
vertex $-1 $150 $326 #
straight-curve $-1 0 40.981321400867778 11.668426653081944 -1 0 0 I I #
coedge $-1 $151 $222 $153 $241 reversed $88 $-1 #
vertex $-1 $233 $327 #
straight-curve $-1 0 -40.981321400867778 11.668426653081944 1 0 0 I I #
edge $-1 $156 -11.668426653081944 $230 11.668426653081944 $153 $328 forward 7 unknown #
edge $-1 $157 -11.668426653081944 $229 11.668426653081944 $154 $329 forward 7 unknown #
point $-1 65.541550950651569 -40.981321400867778 11.668426653081944 #
point $-1 65.541550950651569 40.981321400867778 11.668426653081944 #
face $-1 $-1 $254 $22 $-1 $330 reversed single #
loop $-1 $-1 $251 $159 #
plane-surface $-1 0 0 11.668426653081944 0 0 1 1 0 0 forward_v I I I I #
coedge $-1 $331 $332 $166 $257 forward $160 $-1 #
coedge $-1 $162 $261 $333 $334 reversed $96 $-1 #
edge $-1 $335 -7.3962056740169686 $172 -1.1482362841129827 $162 $336 forward 7 unknown #
coedge $-1 $333 $337 $163 $252 forward $246 $-1 #
edge $-1 $255 -40.981321400867778 $335 40.981321400867778 $251 $338 forward 7 unknown #
coedge $-1 $258 $164 $337 $339 reversed $254 $-1 #
loop $-1 $-1 $164 $245 #
vertex $-1 $165 $340 #
straight-curve $-1 -50.520913196722674 -40.981321400867778 4.2722209790649757 0 0 1 I I #
edge $-1 $262 -40.981321400867778 $259 40.981321400867778 $248 $341 forward 7 unknown #
coedge $-1 $167 $253 $331 $342 forward $254 $-1 #
vertex $-1 $257 $343 #
straight-curve $-1 -29.015616036843561 -40.981321400867778 5.4204572631779584 1 0 0 I I #
coedge $-1 $249 $169 $332 $344 reversed $96 $-1 #
vertex $-1 $257 $345 #
straight-curve $-1 -29.015616036843561 40.981321400867778 5.4204572631779584 -1 0 0 I I #
point $-1 -50.520913196722674 40.981321400867778 5.4204572631779584 #
point $-1 -50.520913196722674 -40.981321400867778 5.4204572631779584 #
plane-surface $-1 0 0 11.668426653081944 0 0 1 1 0 0 forward_v I I I I #
coedge $-1 $277 $276 $269 $346 forward $176 $-1 #
coedge $-1 $269 $178 $180 $273 reversed $104 $-1 #
coedge $-1 $178 $268 $267 $346 reversed $104 $-1 #
coedge $-1 $186 $181 $178 $271 forward $187 $-1 #
edge $-1 $274 -18.981953857795517 $347 -13.2657339768489 $270 $348 forward 7 unknown #
coedge $-1 $180 $179 $277 $349 reversed $65 $-1 #
edge $-1 $350 2.4675859811215743e-014 $274 6.6687330509658462 $268 $351 forward 7 unknown #
vertex $-1 $182 $352 #
straight-curve $-1 -5.3426287592664643 -35.265101519921167 11.668426653081944 -1 0 0 I I #
coedge $-1 $267 $183 $186 $281 reversed $176 $-1 #
coedge $-1 $183 $267 $272 $349 forward $176 $-1 #
vertex $-1 $184 $353 #
straight-curve $-1 -0.74714115812473381 -40.981321400867778 60.296961629756737 0 0 1 I I #
straight-curve $-1 -0.74714115812473381 -40.981321400867799 8.233775174734447 0 -0.85716729658548041 -0.51503808176128008 I I #
edge $-1 $347 -20.623373878941123 $188 -0.74714115812473381 $276 $354 forward 7 unknown #
point $-1 -0.74714115812473381 -40.981321400867778 11.668426653081944 #
point $-1 -0.74714115812473381 -35.26510151992116 11.668426653081944 #
edge $-1 $355 1 $355 0 $191 $-1 forward 7 unknown #
vertex $-1 $192 $356 #
ellipse-curve $-1 -10.685257518532929 -37.049265815802627 8.163755244814185 0 -0.51503808176128008 0.85716729658548041 1.5 0 0 1 I I #
point $-1 -9.1852575185329286 -38.12321146039443 9.9511009139081832 #
loop $-1 $-1 $203 $195 #
plane-surface $-1 0 40.981321400867778 0 0 -1 0 0 0 -1 forward_v I I I I #
coedge $-1 $291 $198 $200 $295 reversed $119 $-1 #
coedge $-1 $198 $290 $357 $358 reversed $119 $-1 #
coedge $-1 $206 $201 $198 $293 forward $196 $-1 #
edge $-1 $296 -2.8268417063768396 $359 7.0898590870037097 $292 $360 forward 7 unknown #
coedge $-1 $200 $199 $299 $361 reversed $74 $-1 #
edge $-1 $362 -81.962642801735583 $296 -68.618405514335961 $290 $363 forward 7 unknown #
vertex $-1 $202 $364 #
straight-curve $-1 8.0296517734797632 31.06462060748725 11.668426653081941 1 0 0 I I #
coedge $-1 $357 $203 $206 $303 reversed $288 $-1 #
coedge $-1 $203 $357 $294 $361 forward $288 $-1 #
vertex $-1 $204 $365 #
straight-curve $-1 5.3043896697696766 40.981321400867778 77.498415215061357 0 0 1 I I #
straight-curve $-1 5.3043896697696766 -19.928791885788797 57.583102494477714 0 0.74314481823134659 -0.66913061440640931 I I #
edge $-1 $359 -26.814217424149376 $207 -5.3043896697696766 $298 $366 forward 7 unknown #
point $-1 5.3043896697696766 40.981321400867778 11.668426653081944 #
point $-1 5.3043896697696766 31.064620607487228 11.668426653081944 #
edge $-1 $367 1 $367 0 $210 $-1 forward 7 unknown #
vertex $-1 $211 $368 #
ellipse-curve $-1 11.450054742449595 30.948058324657783 1.5676463948337833 0 0.66913061440640931 0.74314481823134659 2 0 0 1 I I #
point $-1 13.450054742449595 36.022971004177521 7.20390780563066 #
edge $-1 $369 1 $369 0 $214 $-1 forward 7 unknown #
vertex $-1 $215 $370 #
ellipse-curve $-1 20.668552351469472 30.948058324657783 1.5676463948337833 0 0.66913061440640931 0.74314481823134659 2 0 0 1 I I #
point $-1 22.668552351469472 36.022971004177521 7.20390780563066 #
plane-surface $-1 65.541550950651569 0 0 -1 0 0 0 0 1 forward_v I I I I #
coedge $-1 $223 $221 $225 $319 reversed $141 $-1 #
edge $-1 $236 -11.668426653081944 $321 11.668426653081944 $235 $371 forward 7 unknown #
vertex $-1 $319 $372 #
straight-curve $-1 -65.541550950651569 -40.981321400867778 0 0 0 -1 I I #
edge $-1 $317 -40.981321400867778 $321 40.981321400867778 $315 $373 forward 7 unknown #
straight-curve $-1 0 -40.981321400867778 -11.668426653081944 -1 0 0 I I #
vertex $-1 $228 $374 #
straight-curve $-1 0 40.981321400867778 -11.668426653081944 1 0 0 I I #
point $-1 65.541550950651569 40.981321400867778 -11.668426653081944 #
point $-1 65.541550950651569 -40.981321400867778 -11.668426653081944 #
straight-curve $-1 -65.541550950651569 0 11.668426653081944 0 -1 0 I I #
point $-1 -65.541550950651569 40.981321400867778 11.668426653081944 #
point $-1 -65.541550950651569 -40.981321400867778 11.668426653081944 #
straight-curve $-1 65.541550950651569 -40.981321400867778 0 0 0 -1 I I #
straight-curve $-1 65.541550950651569 40.981321400867778 0 0 0 -1 I I #
plane-surface $-1 0 -40.981321400867778 0 0 1 0 0 0 1 forward_v I I I I #
coedge $-1 $375 $248 $258 $342 reversed $160 $-1 #
coedge $-1 $248 $375 $261 $344 forward $160 $-1 #
coedge $-1 $376 $251 $249 $334 forward $246 $-1 #
edge $-1 $335 50.520913196722674 $377 65.541550950651569 $249 $378 forward 7 unknown #
vertex $-1 $334 $379 #
straight-curve $-1 -50.520913196722674 40.981321400867778 4.2722209790649757 0 0 -1 I I #
coedge $-1 $251 $376 $253 $339 forward $246 $-1 #
straight-curve $-1 -50.520913196722674 0 11.668426653081944 0 1 0 I I #
edge $-1 $380 -65.541550950651569 $255 -50.520913196722674 $253 $381 forward 7 unknown #
point $-1 -50.520913196722674 -40.981321400867778 11.668426653081944 #
straight-curve $-1 -65.541550950651569 0 5.4204572631779584 0 -1 0 I I #
edge $-1 $380 -11.668426653081944 $259 -5.4204572631779584 $331 $382 forward 7 unknown #
point $-1 -65.541550950651569 -40.981321400867778 5.4204572631779584 #
edge $-1 $377 -11.668426653081944 $262 -5.4204572631779584 $261 $383 forward 7 unknown #
point $-1 -65.541550950651569 40.981321400867778 5.4204572631779584 #
edge $-1 $347 48.628534976674793 $350 52.063186455022276 $267 $384 forward 7 unknown #
vertex $-1 $281 $385 #
straight-curve $-1 -20.623373878941123 -54.247055377716677 11.668426653081944 0 -1 0 I I #
edge $-1 $350 -15.280745119674659 $278 4.5954876011417305 $277 $386 forward 7 unknown #
vertex $-1 $349 $387 #
straight-curve $-1 -20.623373878941123 -40.981321400867799 8.233775174734447 0 0.85716729658548041 0.51503808176128008 I I #
point $-1 -20.623373878941123 -35.26510151992116 11.668426653081944 #
point $-1 -0.74714115812473381 -40.981321400867778 8.2337751747344594 #
straight-curve $-1 0 -40.981321400867778 11.668426653081944 1 0 0 I I #
vertex $-1 $284 $388 #
point $-1 -9.1852575185329286 -37.049265815802627 8.163755244814185 #
coedge $-1 $299 $298 $291 $358 forward $288 $-1 #
edge $-1 $359 65.829988561979405 $362 74.759026256882038 $357 $389 forward 7 unknown #
vertex $-1 $303 $390 #
straight-curve $-1 26.814217424149376 33.891462313864068 11.668426653081951 0 1 0 I I #
edge $-1 $362 -18.784565650669613 $300 2.7252621037100866 $299 $391 forward 7 unknown #
vertex $-1 $361 $392 #
straight-curve $-1 26.814217424149376 -19.928791885788797 57.583102494477714 0 -0.74314481823134659 0.66913061440640931 I I #
point $-1 26.814217424149376 31.064620607487228 11.668426653081944 #
point $-1 5.3043896697696766 40.981321400867785 2.7393889581793189 #
straight-curve $-1 0 40.981321400867778 11.668426653081944 -1 0 0 I I #
vertex $-1 $306 $393 #
point $-1 13.450054742449595 30.948058324657783 1.5676463948337833 #
vertex $-1 $310 $394 #
point $-1 22.668552351469472 30.948058324657783 1.5676463948337833 #
straight-curve $-1 -65.541550950651569 40.981321400867778 0 0 0 -1 I I #
point $-1 -65.541550950651569 -40.981321400867778 -11.668426653081944 #
straight-curve $-1 -65.541550950651569 0 -11.668426653081944 0 1 0 I I #
point $-1 -65.541550950651569 40.981321400867778 -11.668426653081944 #
coedge $-1 $332 $331 $376 $395 reversed $160 $-1 #
coedge $-1 $337 $333 $375 $395 forward $246 $-1 #
vertex $-1 $334 $396 #
straight-curve $-1 0 40.981321400867778 11.668426653081944 -1 0 0 I I #
point $-1 -50.520913196722674 40.981321400867778 11.668426653081944 #
vertex $-1 $395 $397 #
straight-curve $-1 0 -40.981321400867778 11.668426653081944 1 0 0 I I #
straight-curve $-1 -65.541550950651569 -40.981321400867778 0 0 0 -1 I I #
straight-curve $-1 -65.541550950651569 40.981321400867778 0 0 0 -1 I I #
straight-curve $-1 -20.623373878941123 -40.981321400867778 60.296961629756737 0 0 -1 I I #
point $-1 -20.623373878941123 -40.981321400867778 11.668426653081944 #
straight-curve $-1 -5.3426287592664643 -40.981321400867778 8.2337751747344594 1 0 0 I I #
point $-1 -20.623373878941123 -40.981321400867778 8.2337751747344594 #
point $-1 -10.685257518532929 -36.276708693160714 6.8780042999359647 #
straight-curve $-1 26.814217424149376 40.981321400867778 77.498415215061357 0 0 -1 I I #
point $-1 26.814217424149376 40.981321400867778 11.668426653081944 #
straight-curve $-1 8.0296517734797632 40.98132140086777 2.739388958179326 -1 0 0 I I #
point $-1 26.814217424149376 40.981321400867785 2.7393889581793189 #
point $-1 11.450054742449595 29.609797095844964 0.081356758371090021 #
point $-1 20.668552351469472 29.609797095844964 0.081356758371090021 #
edge $-1 $377 -40.981321400867778 $380 40.981321400867778 $375 $398 forward 7 unknown #
point $-1 -65.541550950651569 40.981321400867778 11.668426653081944 #
point $-1 -65.541550950651569 -40.981321400867778 11.668426653081944 #
straight-curve $-1 -65.541550950651569 0 11.668426653081944 0 -1 0 I I #
End-of-ACIS-data 