500 0 8 0           
7 Unknown 11 ACIS 5.0 NT 24 Thu Mar 25 22:45:34 1999 
-1 9.9999999999999995e-007 1e-010 
body $-1 $8 $-1 $9 #
body $-1 $10 $-1 $11 #
body $-1 $12 $-1 $13 #
body $-1 $14 $-1 $15 #
body $-1 $16 $-1 $17 #
body $-1 $18 $-1 $19 #
body $-1 $20 $-1 $21 #
body $-1 $22 $-1 $23 #
lump $-1 $-1 $24 $0 #
transform $-1 1 0 0 0 1 0 0 0 1 43.294778283028656 24.645136660925179 7.0784725529739987 1 rotate no_reflect no_shear #
lump $-1 $-1 $25 $1 #
transform $-1 1 0 0 0 1 0 0 0 1 43.294778283028656 24.645136660925179 7.0784725529739987 1 rotate no_reflect no_shear #
lump $-1 $-1 $26 $2 #
transform $-1 1 0 0 0 1 0 0 0 1 43.294778283028656 24.645136660925179 7.0784725529739987 1 rotate no_reflect no_shear #
lump $-1 $-1 $27 $3 #
transform $-1 1 0 0 0 1 0 0 0 1 43.294778283028656 24.645136660925179 7.0784725529739987 1 rotate no_reflect no_shear #
lump $-1 $-1 $28 $4 #
transform $-1 1 0 0 0 1 0 0 0 1 43.294778283028656 24.645136660925179 7.0784725529739987 1 rotate no_reflect no_shear #
lump $-1 $-1 $29 $5 #
transform $-1 1 0 0 0 1 0 0 0 1 43.294778283028656 24.645136660925179 7.0784725529739987 1 rotate no_reflect no_shear #
lump $-1 $-1 $30 $6 #
transform $-1 1 0 0 0 1 0 0 0 1 43.294778283028656 24.645136660925179 7.0784725529739987 1 rotate no_reflect no_shear #
lump $-1 $-1 $31 $7 #
transform $-1 1 0 0 0 1 0 0 0 1 43.294778283028656 24.645136660925179 7.0784725529739987 1 rotate no_reflect no_shear #
shell $-1 $-1 $-1 $32 $-1 $8 #
shell $-1 $-1 $-1 $33 $-1 $10 #
shell $-1 $-1 $-1 $34 $-1 $12 #
shell $-1 $-1 $-1 $35 $-1 $14 #
shell $-1 $-1 $-1 $36 $-1 $16 #
shell $-1 $-1 $-1 $37 $-1 $18 #
shell $-1 $-1 $-1 $38 $-1 $20 #
shell $-1 $-1 $-1 $39 $-1 $22 #
face $-1 $40 $41 $24 $-1 $42 forward single #
face $-1 $43 $44 $25 $-1 $45 forward single #
face $-1 $46 $47 $26 $-1 $48 reversed single #
face $-1 $49 $50 $27 $-1 $51 forward single #
face $-1 $52 $53 $28 $-1 $54 forward single #
face $-1 $55 $56 $29 $-1 $57 reversed single #
face $-1 $58 $59 $30 $-1 $60 forward single #
face $-1 $61 $62 $31 $-1 $63 forward single #
face $-1 $64 $65 $24 $-1 $66 reversed single #
loop $-1 $-1 $67 $32 #
plane-surface $-1 0 0 7.0784725529739987 0 0 1 1 0 0 forward_v I I I I #
face $-1 $68 $69 $25 $-1 $70 reversed single #
loop $-1 $-1 $71 $33 #
plane-surface $-1 -43.294778283028656 0 0 1 0 0 0 0 -1 forward_v I I I I #
face $-1 $72 $73 $26 $-1 $74 reversed single #
loop $-1 $-1 $75 $34 #
plane-surface $-1 11.089681442130054 -99.633893019333641 47.138376855478249 -1 0 0 0 -0.86602541151947299 0.49999998660252726 forward_v I I I I #
face $-1 $76 $77 $27 $-1 $78 forward single #
loop $-1 $79 $80 $35 #
cone-surface $-1 -5.1457275652671797 -22.93940047056573 5.0153743608159029 0 0.86602541151947299 -0.49999998660252726 0.5 0 0 1 I I 0 1 0.5 forward I I I I #
face $-1 $81 $82 $28 $-1 $83 forward single #
loop $-1 $84 $85 $36 #
cone-surface $-1 4.5955178391711584 -22.93940047056573 5.0153743608159029 0 0.86602541151947299 -0.49999998660252726 0.5 0 0 1 I I 0 1 0.5 forward I I I I #
face $-1 $86 $87 $29 $-1 $88 reversed single #
loop $-1 $-1 $89 $37 #
plane-surface $-1 -34.008652691442158 42.545291782681474 99.481864855878115 1 0 0 0 -0.64278761758704617 -0.76604443648966558 forward_v I I I I #
face $-1 $90 $91 $30 $-1 $92 forward single #
loop $-1 $93 $94 $38 #
cone-surface $-1 -27.711986616706522 20.450668827292194 3.2588354414678031 0 -0.64278761758704617 -0.76604443648966558 1.5 0 0 1 I I 0 1 1.5 forward I I I I #
face $-1 $95 $96 $31 $-1 $97 forward single #
loop $-1 $98 $99 $39 #
cone-surface $-1 -18.266987504603065 20.450668827292194 3.2588354414678031 0 -0.64278761758704617 -0.76604443648966558 1.5 0 0 1 I I 0 1 1.5 forward I I I I #
face $-1 $100 $101 $24 $-1 $102 reversed single #
loop $-1 $-1 $103 $40 #
plane-surface $-1 0 0 -7.0784725529739987 0 0 1 1 0 0 forward_v I I I I #
coedge $-1 $104 $105 $106 $107 forward $41 $-1 #
face $-1 $108 $109 $25 $-1 $110 forward single #
loop $-1 $-1 $111 $43 #
plane-surface $-1 0 24.645136660925179 0 0 -1 0 0 0 -1 forward_v I I I I #
coedge $-1 $112 $113 $114 $115 forward $44 $-1 #
face $-1 $116 $117 $26 $-1 $118 reversed single #
loop $-1 $-1 $119 $46 #
plane-surface $-1 -0.27510486304800708 -24.645136660925175 3.8435997325308193 0 -0.86602541151947299 0.49999998660252726 1 0 0 forward_v I I I I #
coedge $-1 $120 $121 $122 $123 reversed $47 $-1 #
face $-1 $-1 $124 $27 $-1 $125 forward single #
loop $-1 $126 $127 $49 #
cone-surface $-1 -5.1457275652671797 -21.950985240802481 4.4447125822287674 0 0.86602541151947299 -0.49999998660252726 0.25 0 0 1 I I -0.70710678118654746 0.70710678118654746 0.25 forward I I I I #
loop $-1 $-1 $128 $35 #
coedge $-1 $80 $80 $129 $130 reversed $50 $-1 #
face $-1 $-1 $131 $28 $-1 $132 forward single #
loop $-1 $133 $134 $52 #
cone-surface $-1 4.5955178391711584 -21.950985240802481 4.4447125822287674 0 0.86602541151947299 -0.49999998660252726 0.25 0 0 1 I I -0.70710678118654746 0.70710678118654746 0.25 forward I I I I #
loop $-1 $-1 $135 $36 #
coedge $-1 $85 $85 $136 $137 reversed $53 $-1 #
face $-1 $138 $139 $29 $-1 $140 reversed single #
loop $-1 $-1 $141 $55 #
plane-surface $-1 -22.989487060654795 -13.113402990333277 33.150416790342717 0 0.64278761758704617 0.76604443648966558 1 0 0 forward_v I I I I #
coedge $-1 $142 $143 $144 $145 reversed $56 $-1 #
face $-1 $-1 $146 $30 $-1 $147 forward single #
loop $-1 $148 $149 $58 #
cone-surface $-1 -27.711986616706522 19.117713826092004 1.6702815632932548 0 -0.64278761758704617 -0.76604443648966558 0.75 0 0 1 I I -0.70710678118654757 0.70710678118654757 0.75 forward I I I I #
loop $-1 $-1 $150 $38 #
coedge $-1 $94 $94 $151 $152 reversed $59 $-1 #
face $-1 $-1 $153 $31 $-1 $154 forward single #
loop $-1 $155 $156 $61 #
cone-surface $-1 -18.266987504603065 19.117713826092004 1.6702815632932548 0 -0.64278761758704617 -0.76604443648966558 0.75 0 0 1 I I -0.70710678118654757 0.70710678118654757 0.75 forward I I I I #
loop $-1 $-1 $157 $39 #
coedge $-1 $99 $99 $158 $159 reversed $62 $-1 #
face $-1 $160 $161 $24 $-1 $162 reversed single #
loop $-1 $-1 $163 $64 #
plane-surface $-1 0 -24.645136660925179 0 0 1 0 0 0 1 forward_v I I I I #
coedge $-1 $164 $165 $166 $167 forward $65 $-1 #
coedge $-1 $168 $67 $169 $170 forward $41 $-1 #
coedge $-1 $67 $168 $171 $172 forward $41 $-1 #
coedge $-1 $173 $174 $67 $107 reversed $175 $-1 #
edge $-1 $176 -24.645136660925179 $177 24.645136660925179 $106 $178 forward 7 unknown #
face $-1 $179 $180 $25 $-1 $181 reversed single #
loop $-1 $-1 $114 $68 #
plane-surface $-1 -47.937841078821904 0 -4.0784725529739987 0 0 1 1 0 0 forward_v I I I I #
coedge $-1 $182 $183 $113 $184 forward $69 $-1 #
coedge $-1 $185 $71 $186 $187 reversed $44 $-1 #
coedge $-1 $71 $185 $111 $184 reversed $44 $-1 #
coedge $-1 $188 $189 $71 $115 reversed $109 $-1 #
edge $-1 $190 -24.645136660925179 $191 24.645136660925179 $114 $192 forward 7 unknown #
face $-1 $193 $194 $26 $-1 $195 reversed single #
loop $-1 $-1 $196 $72 #
plane-surface $-1 -11.639891168226068 -99.633893019333641 47.138376855478249 1 0 0 0 0.86602541151947299 -0.49999998660252726 forward_v I I I I #
coedge $-1 $197 $198 $199 $200 reversed $73 $-1 #
coedge $-1 $121 $75 $201 $202 reversed $47 $-1 #
coedge $-1 $75 $120 $197 $203 reversed $47 $-1 #
coedge $-1 $199 $204 $75 $123 forward $205 $-1 #
edge $-1 $206 25.171809848741642 $207 27.03946447569378 $122 $208 forward 7 unknown #
loop $-1 $-1 $129 $76 #
plane-surface $-1 -0.27510486304800708 -24.645136660925175 3.8435997325308193 0 -0.86602541151947299 0.49999998660252726 1 0 0 forward_v I I I I #
loop $-1 $-1 $209 $49 #
coedge $-1 $127 $127 $128 $210 reversed $77 $-1 #
coedge $-1 $128 $128 $127 $210 forward $79 $-1 #
coedge $-1 $129 $129 $80 $130 forward $124 $-1 #
edge $-1 $211 -1.5383701628470323e-015 $211 6.2831853071795987 $129 $212 forward 7 unknown #
loop $-1 $-1 $136 $81 #
plane-surface $-1 -0.27510486304800708 -24.645136660925175 3.8435997325308193 0 -0.86602541151947299 0.49999998660252726 1 0 0 forward_v I I I I #
loop $-1 $-1 $213 $52 #
coedge $-1 $134 $134 $135 $214 reversed $82 $-1 #
coedge $-1 $135 $135 $134 $214 forward $84 $-1 #
coedge $-1 $136 $136 $85 $137 forward $131 $-1 #
edge $-1 $215 -1.5383701628470323e-015 $215 6.2831853071795987 $136 $216 forward 7 unknown #
face $-1 $217 $218 $29 $-1 $219 forward single #
loop $-1 $-1 $220 $86 #
plane-surface $-1 -11.970321429867433 42.545291782681474 99.481864855878115 -1 0 0 0 0.64278761758704617 0.76604443648966558 forward_v I I I I #
coedge $-1 $221 $222 $223 $224 reversed $87 $-1 #
coedge $-1 $143 $89 $225 $226 reversed $56 $-1 #
coedge $-1 $89 $142 $221 $227 reversed $56 $-1 #
coedge $-1 $223 $228 $89 $145 forward $218 $-1 #
edge $-1 $229 -3.3724907695844415 $230 3.3147163216617415 $144 $231 forward 7 unknown #
loop $-1 $-1 $151 $90 #
plane-surface $-1 -22.989487060654795 -13.113402990333277 33.150416790342717 0 0.64278761758704617 0.76604443648966558 1 0 0 forward_v I I I I #
loop $-1 $-1 $232 $58 #
coedge $-1 $149 $149 $150 $233 reversed $91 $-1 #
coedge $-1 $150 $150 $149 $233 forward $93 $-1 #
coedge $-1 $151 $151 $94 $152 forward $146 $-1 #
edge $-1 $234 1.1457891918651628e-016 $234 6.2831853071796004 $151 $235 forward 7 unknown #
loop $-1 $-1 $158 $95 #
plane-surface $-1 -22.989487060654795 -13.113402990333277 33.150416790342717 0 0.64278761758704617 0.76604443648966558 1 0 0 forward_v I I I I #
loop $-1 $-1 $236 $61 #
coedge $-1 $156 $156 $157 $237 reversed $96 $-1 #
coedge $-1 $157 $157 $156 $237 forward $98 $-1 #
coedge $-1 $158 $158 $99 $159 forward $153 $-1 #
edge $-1 $238 1.1457891918651628e-016 $238 6.2831853071796004 $158 $239 forward 7 unknown #
face $-1 $240 $241 $24 $-1 $242 reversed single #
loop $-1 $-1 $243 $100 #
plane-surface $-1 -43.294778283028656 0 0 1 0 0 0 0 -1 forward_v I I I I #
coedge $-1 $244 $171 $243 $245 forward $101 $-1 #
coedge $-1 $246 $103 $244 $247 forward $65 $-1 #
coedge $-1 $103 $246 $248 $249 forward $65 $-1 #
coedge $-1 $174 $173 $103 $167 reversed $175 $-1 #
edge $-1 $250 -24.645136660925179 $251 24.645136660925179 $166 $252 forward 7 unknown #
coedge $-1 $105 $104 $253 $254 forward $41 $-1 #
coedge $-1 $255 $256 $104 $170 reversed $241 $-1 #
edge $-1 $177 -43.294778283028656 $257 43.294778283028656 $169 $258 forward 7 unknown #
coedge $-1 $163 $259 $105 $172 reversed $101 $-1 #
edge $-1 $260 -43.294778283028656 $176 43.294778283028656 $171 $261 forward 7 unknown #
coedge $-1 $166 $106 $259 $262 forward $175 $-1 #
coedge $-1 $106 $166 $255 $263 reversed $175 $-1 #
loop $-1 $-1 $173 $240 #
vertex $-1 $107 $264 #
vertex $-1 $107 $265 #
straight-curve $-1 43.294778283028656 0 7.0784725529739987 0 1 0 I I #
face $-1 $266 $267 $25 $-1 $268 reversed single #
loop $-1 $-1 $269 $108 #
plane-surface $-1 -52.580903874615153 0 -5.5784725529739987 1 0 0 0 0 -1 forward_v I I I I #
coedge $-1 $270 $111 $271 $272 reversed $69 $-1 #
coedge $-1 $111 $270 $188 $273 reversed $69 $-1 #
edge $-1 $190 4.0784725529739987 $274 7.0784725529739987 $111 $275 forward 7 unknown #
coedge $-1 $113 $112 $276 $277 reversed $44 $-1 #
coedge $-1 $278 $279 $112 $187 forward $280 $-1 #
edge $-1 $281 -7.0784725529739987 $191 -4.0784725529739987 $186 $282 forward 7 unknown #
coedge $-1 $283 $114 $183 $273 forward $109 $-1 #
coedge $-1 $114 $283 $278 $284 forward $109 $-1 #
vertex $-1 $184 $285 #
vertex $-1 $284 $286 #
straight-curve $-1 -43.294778283028656 0 -4.0784725529739987 0 -1 0 I I #
face $-1 $-1 $205 $26 $-1 $287 forward single #
loop $-1 $-1 $288 $116 #
plane-surface $-1 0 -24.645136660925179 0 0 1 0 0 0 1 forward_v I I I I #
coedge $-1 $289 $290 $291 $292 reversed $117 $-1 #
coedge $-1 $293 $119 $121 $203 forward $73 $-1 #
coedge $-1 $119 $293 $289 $294 forward $73 $-1 #
coedge $-1 $291 $122 $119 $200 forward $205 $-1 #
edge $-1 $207 -11.227233873654058 $295 11.502338736702065 $199 $296 forward 7 unknown #
coedge $-1 $297 $298 $120 $202 forward $194 $-1 #
edge $-1 $299 -19.725588695208312 $206 -16.490715874765126 $201 $300 forward 7 unknown #
edge $-1 $207 -3.7353093539916777 $299 7.160652361767478e-015 $121 $301 forward 7 unknown #
coedge $-1 $122 $291 $297 $302 forward $205 $-1 #
loop $-1 $-1 $291 $193 #
vertex $-1 $202 $303 #
vertex $-1 $123 $304 #
straight-curve $-1 11.089681442130054 -49.81694650966682 7.0784725529739987 0 1 0 I I #
coedge $-1 $209 $209 $-1 $305 reversed $126 $-1 #
edge $-1 $306 0 $306 6.2831853071796004 $127 $307 forward 7 unknown #
vertex $-1 $130 $308 #
ellipse-curve $-1 -5.1457275652671797 -23.711309347449109 5.4610361427524063 0 -0.86602541151947299 0.49999998660252726 0.5 0 0 1 I I #
coedge $-1 $213 $213 $-1 $309 reversed $133 $-1 #
edge $-1 $310 0 $310 6.2831853071796004 $134 $311 forward 7 unknown #
vertex $-1 $137 $312 #
ellipse-curve $-1 4.5955178391711584 -23.711309347449109 5.4610361427524063 0 -0.86602541151947299 0.49999998660252726 0.5 0 0 1 I I #
face $-1 $-1 $313 $29 $-1 $314 reversed single #
loop $-1 $-1 $144 $138 #
plane-surface $-1 0 0 7.0784725529739987 0 0 1 1 0 0 forward_v I I I I #
coedge $-1 $315 $316 $317 $318 reversed $139 $-1 #
coedge $-1 $319 $141 $143 $227 forward $87 $-1 #
coedge $-1 $141 $319 $315 $320 forward $87 $-1 #
coedge $-1 $317 $144 $141 $224 forward $218 $-1 #
edge $-1 $230 -22.513909161114761 $321 -0.47557789954003482 $223 $322 forward 7 unknown #
coedge $-1 $323 $324 $142 $226 forward $313 $-1 #
edge $-1 $325 -48.273692996362875 $229 -42.662459874965059 $225 $326 forward 7 unknown #
edge $-1 $230 40.56074436411815 $325 49.290273321850364 $143 $327 forward 7 unknown #
coedge $-1 $144 $317 $323 $328 forward $218 $-1 #
vertex $-1 $226 $329 #
vertex $-1 $145 $330 #
straight-curve $-1 -34.008652691442158 21.272645891340737 7.0784725529739987 0 -1 0 I I #
coedge $-1 $232 $232 $-1 $331 reversed $148 $-1 #
edge $-1 $332 0 $332 6.2831853071796004 $149 $333 forward 7 unknown #
vertex $-1 $152 $334 #
ellipse-curve $-1 -27.711986616706522 21.301533115302089 4.2728559922750895 0 0.64278761758704617 0.76604443648966558 1.5 0 0 1 I I #
coedge $-1 $236 $236 $-1 $335 reversed $155 $-1 #
edge $-1 $336 0 $336 6.2831853071796004 $156 $337 forward 7 unknown #
vertex $-1 $159 $338 #
ellipse-curve $-1 -18.266987504603065 21.301533115302089 4.2728559922750895 0 0.64278761758704617 0.76604443648966558 1.5 0 0 1 I I #
face $-1 $-1 $175 $24 $-1 $339 reversed single #
loop $-1 $-1 $255 $160 #
plane-surface $-1 0 24.645136660925179 0 0 -1 0 0 0 -1 forward_v I I I I #
coedge $-1 $253 $340 $163 $245 reversed $161 $-1 #
coedge $-1 $259 $163 $164 $247 reversed $101 $-1 #
edge $-1 $260 -7.0784725529739987 $341 7.0784725529739987 $243 $342 forward 7 unknown #
coedge $-1 $165 $164 $340 $343 forward $65 $-1 #
edge $-1 $251 -43.294778283028656 $341 43.294778283028656 $244 $344 forward 7 unknown #
coedge $-1 $256 $255 $165 $249 reversed $241 $-1 #
edge $-1 $345 -43.294778283028656 $250 43.294778283028656 $248 $346 forward 7 unknown #
vertex $-1 $167 $347 #
vertex $-1 $262 $348 #
straight-curve $-1 43.294778283028656 0 -7.0784725529739987 0 -1 0 I I #
coedge $-1 $349 $243 $168 $254 reversed $161 $-1 #
edge $-1 $257 -24.645136660925179 $260 24.645136660925179 $253 $350 forward 7 unknown #
coedge $-1 $248 $169 $174 $263 forward $241 $-1 #
coedge $-1 $169 $248 $349 $351 reversed $241 $-1 #
vertex $-1 $170 $352 #
straight-curve $-1 0 24.645136660925179 7.0784725529739987 -1 0 0 I I #
coedge $-1 $171 $244 $173 $262 reversed $101 $-1 #
vertex $-1 $254 $353 #
straight-curve $-1 0 -24.645136660925179 7.0784725529739987 1 0 0 I I #
edge $-1 $176 -7.0784725529739987 $251 7.0784725529739987 $173 $354 forward 7 unknown #
edge $-1 $177 -7.0784725529739987 $250 7.0784725529739987 $174 $355 forward 7 unknown #
point $-1 43.294778283028656 -24.645136660925179 7.0784725529739987 #
point $-1 43.294778283028656 24.645136660925179 7.0784725529739987 #
face $-1 $-1 $280 $25 $-1 $356 reversed single #
loop $-1 $-1 $276 $179 #
plane-surface $-1 0 0 -7.0784725529739987 0 0 1 1 0 0 forward_v I I I I #
coedge $-1 $357 $358 $270 $359 forward $180 $-1 #
coedge $-1 $183 $182 $269 $359 reversed $69 $-1 #
coedge $-1 $276 $360 $182 $272 forward $267 $-1 #
edge $-1 $361 -52.580903874615153 $274 -43.294778283028656 $182 $362 forward 7 unknown #
edge $-1 $190 -4.6430627957932487 $363 4.6430627957932487 $183 $364 forward 7 unknown #
vertex $-1 $184 $365 #
straight-curve $-1 -43.294778283028656 24.645136660925179 0 0 0 -1 I I #
coedge $-1 $366 $271 $185 $277 forward $267 $-1 #
edge $-1 $274 -24.645136660925179 $281 24.645136660925179 $276 $367 forward 7 unknown #
coedge $-1 $368 $186 $189 $284 reversed $280 $-1 #
coedge $-1 $186 $368 $366 $369 reversed $280 $-1 #
loop $-1 $-1 $186 $266 #
vertex $-1 $369 $370 #
straight-curve $-1 -43.294778283028656 -24.645136660925179 0 0 0 1 I I #
coedge $-1 $189 $188 $358 $371 forward $109 $-1 #
edge $-1 $372 -4.6430627957932487 $191 4.6430627957932487 $278 $373 forward 7 unknown #
point $-1 -43.294778283028656 24.645136660925179 -4.0784725529739987 #
point $-1 -43.294778283028656 -24.645136660925179 -4.0784725529739987 #
plane-surface $-1 0 0 7.0784725529739987 0 0 1 1 0 0 forward_v I I I I #
coedge $-1 $298 $297 $290 $374 forward $194 $-1 #
coedge $-1 $290 $196 $198 $294 reversed $117 $-1 #
coedge $-1 $196 $289 $288 $374 reversed $117 $-1 #
coedge $-1 $204 $199 $196 $292 forward $205 $-1 #
edge $-1 $295 -27.03946447569378 $375 -25.171809848741642 $291 $376 forward 7 unknown #
coedge $-1 $198 $197 $298 $377 reversed $73 $-1 #
edge $-1 $378 -7.160652361767478e-015 $295 3.7353093539916777 $289 $379 forward 7 unknown #
vertex $-1 $200 $380 #
straight-curve $-1 -0.13755243152400354 -22.777482033973044 7.0784725529739987 -1 0 0 I I #
coedge $-1 $288 $201 $204 $302 reversed $194 $-1 #
coedge $-1 $201 $288 $293 $377 forward $194 $-1 #
vertex $-1 $202 $381 #
straight-curve $-1 11.089681442130054 -24.645136660925175 23.569188427739125 0 0 1 I I #
straight-curve $-1 11.089681442130054 -24.645136660925175 3.8435997325308193 0 -0.49999998660252726 -0.86602541151947299 I I #
edge $-1 $375 -11.639891168226068 $206 11.089681442130054 $297 $382 forward 7 unknown #
point $-1 11.089681442130054 -24.645136660925179 7.0784725529739987 #
point $-1 11.089681442130054 -22.77748203397304 7.0784725529739987 #
edge $-1 $383 1 $383 0 $209 $-1 forward 7 unknown #
vertex $-1 $210 $384 #
ellipse-curve $-1 -5.1457275652671797 -22.16749159368235 4.5697125788793995 0 -0.86602541151947299 0.49999998660252726 0.5 0 0 1 I I #
point $-1 -4.6457275652671797 -23.711309347449109 5.4610361427524055 #
edge $-1 $385 1 $385 0 $213 $-1 forward 7 unknown #
vertex $-1 $214 $386 #
ellipse-curve $-1 4.5955178391711584 -22.16749159368235 4.5697125788793995 0 -0.86602541151947299 0.49999998660252726 0.5 0 0 1 I I #
point $-1 5.0955178391711584 -23.711309347449109 5.4610361427524055 #
loop $-1 $-1 $225 $217 #
plane-surface $-1 0 24.645136660925179 0 0 -1 0 0 0 -1 forward_v I I I I #
coedge $-1 $316 $220 $222 $320 reversed $139 $-1 #
coedge $-1 $220 $315 $387 $388 reversed $139 $-1 #
coedge $-1 $228 $223 $220 $318 forward $218 $-1 #
edge $-1 $321 -3.3147163216617415 $389 3.3724907695844415 $317 $390 forward 7 unknown #
coedge $-1 $222 $221 $324 $391 reversed $87 $-1 #
edge $-1 $392 -49.290273321850364 $321 -40.56074436411815 $315 $393 forward 7 unknown #
vertex $-1 $224 $394 #
straight-curve $-1 -11.494743530327398 17.957929569678988 7.0784725529739987 1 0 0 I I #
coedge $-1 $387 $225 $228 $328 reversed $313 $-1 #
coedge $-1 $225 $387 $319 $391 forward $313 $-1 #
vertex $-1 $226 $395 #
straight-curve $-1 -34.008652691442158 24.645136660925179 49.740932427939057 0 0 1 I I #
straight-curve $-1 -34.008652691442158 -13.113402990333277 33.150416790342717 0 0.76604443648966558 -0.64278761758704617 I I #
edge $-1 $389 11.970321429867433 $229 34.008652691442158 $323 $396 forward 7 unknown #
point $-1 -34.008652691442158 24.645136660925179 7.0784725529739987 #
point $-1 -34.008652691442158 17.957929569678996 7.0784725529739987 #
edge $-1 $397 1 $397 0 $232 $-1 forward 7 unknown #
vertex $-1 $233 $398 #
ellipse-curve $-1 -27.711986616706522 19.599804539282289 2.2448148906605039 0 0.64278761758704617 0.76604443648966558 1.5 0 0 1 I I #
point $-1 -26.211986616706522 21.301533115302099 4.2728559922751019 #
edge $-1 $399 1 $399 0 $236 $-1 forward 7 unknown #
vertex $-1 $237 $400 #
ellipse-curve $-1 -18.266987504603065 19.599804539282289 2.2448148906605039 0 0.64278761758704617 0.76604443648966558 1.5 0 0 1 I I #
point $-1 -16.766987504603065 21.301533115302099 4.2728559922751019 #
plane-surface $-1 43.294778283028656 0 0 -1 0 0 0 0 1 forward_v I I I I #
coedge $-1 $243 $349 $246 $343 reversed $161 $-1 #
vertex $-1 $343 $401 #
straight-curve $-1 -43.294778283028656 -24.645136660925179 0 0 0 -1 I I #
edge $-1 $341 -24.645136660925179 $345 24.645136660925179 $340 $402 forward 7 unknown #
straight-curve $-1 0 -24.645136660925179 -7.0784725529739987 -1 0 0 I I #
vertex $-1 $249 $403 #
straight-curve $-1 0 24.645136660925179 -7.0784725529739987 1 0 0 I I #
point $-1 43.294778283028656 24.645136660925179 -7.0784725529739987 #
point $-1 43.294778283028656 -24.645136660925179 -7.0784725529739987 #
coedge $-1 $340 $253 $256 $351 forward $161 $-1 #
straight-curve $-1 -43.294778283028656 0 7.0784725529739987 0 -1 0 I I #
edge $-1 $257 -7.0784725529739987 $345 7.0784725529739987 $256 $404 forward 7 unknown #
point $-1 -43.294778283028656 24.645136660925179 7.0784725529739987 #
point $-1 -43.294778283028656 -24.645136660925179 7.0784725529739987 #
straight-curve $-1 43.294778283028656 -24.645136660925179 0 0 0 -1 I I #
straight-curve $-1 43.294778283028656 24.645136660925179 0 0 0 -1 I I #
plane-surface $-1 0 -24.645136660925179 0 0 1 0 0 0 1 forward_v I I I I #
coedge $-1 $405 $269 $360 $406 reversed $180 $-1 #
coedge $-1 $269 $405 $283 $371 reversed $180 $-1 #
edge $-1 $363 -1.5 $361 1.5 $270 $407 forward 7 unknown #
coedge $-1 $271 $366 $357 $406 forward $267 $-1 #
vertex $-1 $272 $408 #
straight-curve $-1 0 24.645136660925179 -7.0784725529739987 1 0 0 I I #
vertex $-1 $273 $409 #
straight-curve $-1 -47.937841078821904 24.645136660925179 -4.0784725529739987 -1 0 0 I I #
point $-1 -43.294778283028656 24.645136660925179 -7.0784725529739987 #
coedge $-1 $360 $276 $279 $369 forward $267 $-1 #
straight-curve $-1 -43.294778283028656 0 -7.0784725529739987 0 -1 0 I I #
coedge $-1 $279 $278 $405 $410 forward $280 $-1 #
edge $-1 $281 -4.6430627957932487 $411 4.6430627957932487 $279 $412 forward 7 unknown #
point $-1 -43.294778283028656 -24.645136660925179 -7.0784725529739987 #
edge $-1 $363 -24.645136660925179 $372 24.645136660925179 $358 $413 forward 7 unknown #
vertex $-1 $371 $414 #
straight-curve $-1 -47.937841078821904 -24.645136660925179 -4.0784725529739987 1 0 0 I I #
edge $-1 $375 16.490715874765126 $378 19.725588695208312 $288 $415 forward 7 unknown #
vertex $-1 $302 $416 #
straight-curve $-1 -11.639891168226068 -49.81694650966682 7.0784725529739987 0 -1 0 I I #
edge $-1 $378 -11.502338736702065 $299 11.227233873654058 $298 $417 forward 7 unknown #
vertex $-1 $377 $418 #
straight-curve $-1 -11.639891168226068 -24.645136660925175 3.8435997325308193 0 0.49999998660252726 0.86602541151947299 I I #
point $-1 -11.639891168226068 -22.77748203397304 7.0784725529739987 #
point $-1 11.089681442130054 -24.645136660925179 3.8435997325308131 #
straight-curve $-1 0 -24.645136660925179 7.0784725529739987 1 0 0 I I #
vertex $-1 $305 $419 #
point $-1 -4.6457275652671797 -22.16749159368235 4.5697125788793995 #
vertex $-1 $309 $420 #
point $-1 5.0955178391711584 -22.16749159368235 4.5697125788793995 #
coedge $-1 $324 $323 $316 $388 forward $313 $-1 #
edge $-1 $389 42.662459874965059 $392 48.273692996362875 $387 $421 forward 7 unknown #
vertex $-1 $328 $422 #
straight-curve $-1 -11.970321429867433 21.272645891340737 7.0784725529739987 0 1 0 I I #
edge $-1 $392 0.47557789954003482 $325 22.513909161114761 $324 $423 forward 7 unknown #
vertex $-1 $391 $424 #
straight-curve $-1 -11.970321429867433 -13.113402990333277 33.150416790342717 0 -0.76604443648966558 0.64278761758704617 I I #
point $-1 -11.970321429867433 17.957929569678996 7.0784725529739987 #
point $-1 -34.008652691442158 24.645136660925182 1.4672394315761821 #
straight-curve $-1 0 24.645136660925179 7.0784725529739987 -1 0 0 I I #
vertex $-1 $331 $425 #
point $-1 -26.211986616706522 19.599804539282289 2.2448148906605039 #
vertex $-1 $335 $426 #
point $-1 -16.766987504603065 19.599804539282289 2.2448148906605039 #
point $-1 -43.294778283028656 -24.645136660925179 -7.0784725529739987 #
straight-curve $-1 -43.294778283028656 0 -7.0784725529739987 0 1 0 I I #
point $-1 -43.294778283028656 24.645136660925179 -7.0784725529739987 #
straight-curve $-1 -43.294778283028656 24.645136660925179 0 0 0 -1 I I #
coedge $-1 $358 $357 $368 $410 reversed $180 $-1 #
edge $-1 $411 -24.645136660925179 $361 24.645136660925179 $357 $427 forward 7 unknown #
straight-curve $-1 -52.580903874615153 24.645136660925179 -5.5784725529739987 0 0 -1 I I #
point $-1 -52.580903874615153 24.645136660925179 -7.0784725529739987 #
point $-1 -52.580903874615153 24.645136660925179 -4.0784725529739987 #
edge $-1 $372 -1.5 $411 1.5 $405 $428 forward 7 unknown #
vertex $-1 $406 $429 #
straight-curve $-1 -47.937841078821904 -24.645136660925179 -7.0784725529739987 -1 0 0 I I #
straight-curve $-1 -52.580903874615153 0 -4.0784725529739987 0 -1 0 I I #
point $-1 -52.580903874615153 -24.645136660925179 -4.0784725529739987 #
straight-curve $-1 -11.639891168226068 -24.645136660925175 23.569188427739125 0 0 -1 I I #
point $-1 -11.639891168226068 -24.645136660925179 7.0784725529739987 #
straight-curve $-1 -0.13755243152400354 -24.645136660925179 3.8435997325308078 1 0 0 I I #
point $-1 -11.639891168226068 -24.645136660925179 3.8435997325308131 #
point $-1 -5.1457275652671797 -21.734478887922613 4.3197125855781353 #
point $-1 4.5955178391711584 -21.734478887922613 4.3197125855781353 #
straight-curve $-1 -11.970321429867433 24.645136660925179 49.740932427939057 0 0 -1 I I #
point $-1 -11.970321429867433 24.645136660925179 7.0784725529739987 #
straight-curve $-1 -11.494743530327398 24.645136660925175 1.4672394315761821 -1 0 0 I I #
point $-1 -11.970321429867433 24.645136660925182 1.4672394315761821 #
point $-1 -27.711986616706522 18.635623112901719 1.0957482359260058 #
point $-1 -18.266987504603065 18.635623112901719 1.0957482359260058 #
straight-curve $-1 -52.580903874615153 0 -7.0784725529739987 0 1 0 I I #
straight-curve $-1 -52.580903874615153 -24.645136660925179 -5.5784725529739987 0 0 -1 I I #
point $-1 -52.580903874615153 -24.645136660925179 -7.0784725529739987 #
End-of-ACIS-data 