500 0 6 0           
7 Unknown 11 ACIS 5.0 NT 24 Fri Mar 26 02:39:32 1999 
-1 9.9999999999999995e-007 1e-010 
body $-1 $6 $-1 $7 #
body $-1 $8 $-1 $9 #
body $-1 $10 $-1 $11 #
body $-1 $12 $-1 $13 #
body $-1 $14 $-1 $15 #
body $-1 $16 $-1 $17 #
lump $-1 $-1 $18 $0 #
transform $-1 1 0 0 0 1 0 0 0 1 78.6474196600238 45.302133026800966 21.541567268611281 1 rotate no_reflect no_shear #
lump $-1 $-1 $19 $1 #
transform $-1 1 0 0 0 1 0 0 0 1 78.6474196600238 45.302133026800966 21.541567268611281 1 rotate no_reflect no_shear #
lump $-1 $-1 $20 $2 #
transform $-1 1 0 0 0 1 0 0 0 1 78.6474196600238 45.302133026800966 21.541567268611281 1 rotate no_reflect no_shear #
lump $-1 $-1 $21 $3 #
transform $-1 1 0 0 0 1 0 0 0 1 78.6474196600238 45.302133026800966 21.541567268611281 1 rotate no_reflect no_shear #
lump $-1 $-1 $22 $4 #
transform $-1 1 0 0 0 1 0 0 0 1 78.6474196600238 45.302133026800966 21.541567268611281 1 rotate no_reflect no_shear #
lump $-1 $-1 $23 $5 #
transform $-1 1 0 0 0 1 0 0 0 1 78.6474196600238 45.302133026800966 21.541567268611281 1 rotate no_reflect no_shear #
shell $-1 $-1 $-1 $24 $-1 $6 #
shell $-1 $-1 $-1 $25 $-1 $8 #
shell $-1 $-1 $-1 $26 $-1 $10 #
shell $-1 $-1 $-1 $27 $-1 $12 #
shell $-1 $-1 $-1 $28 $-1 $14 #
shell $-1 $-1 $-1 $29 $-1 $16 #
face $-1 $30 $31 $18 $-1 $32 forward single #
face $-1 $33 $34 $19 $-1 $35 reversed single #
face $-1 $36 $37 $20 $-1 $38 forward single #
face $-1 $39 $40 $21 $-1 $41 reversed single #
face $-1 $42 $43 $22 $-1 $44 forward single #
face $-1 $45 $46 $23 $-1 $47 forward single #
face $-1 $48 $49 $18 $-1 $50 reversed single #
loop $-1 $-1 $51 $24 #
plane-surface $-1 0 0 21.541567268611281 0 0 1 1 0 0 forward_v I I I I #
face $-1 $52 $53 $19 $-1 $54 reversed single #
loop $-1 $-1 $55 $25 #
plane-surface $-1 0 -33.962940490975072 15.976536386052778 0 0 1 1 0 0 forward_v I I I I #
face $-1 $56 $57 $20 $-1 $58 reversed single #
loop $-1 $-1 $59 $26 #
plane-surface $-1 0 34.958729301112264 15.300950306634483 0 0 1 1 0 0 forward_v I I I I #
face $-1 $60 $61 $21 $-1 $62 reversed single #
loop $-1 $-1 $63 $27 #
plane-surface $-1 -195.54026687760492 13.492935589539176 117.4852703675526 0 -1 0 0.74314483375859142 0 -0.66913059716165679 forward_v I I I I #
face $-1 $64 $65 $22 $-1 $66 forward single #
loop $-1 $67 $68 $28 #
cone-surface $-1 -73.906937551512158 4.0790755073258254 16.392429878844542 0.74314483375859142 0 -0.66913059716165679 0.66913059716165679 0 0.74314483375859142 1 I I 0 1 1 forward I I I I #
face $-1 $69 $70 $23 $-1 $71 forward single #
loop $-1 $72 $73 $29 #
cone-surface $-1 -73.906937551512158 9.7273915566538349 16.392429878844542 0.74314483375859142 0 -0.66913059716165679 0.66913059716165679 0 0.74314483375859142 1 I I 0 1 1 forward I I I I #
face $-1 $74 $75 $18 $-1 $76 reversed single #
loop $-1 $-1 $77 $30 #
plane-surface $-1 0 0 -21.541567268611281 0 0 1 1 0 0 forward_v I I I I #
coedge $-1 $78 $79 $80 $81 forward $31 $-1 #
face $-1 $82 $83 $19 $-1 $84 reversed single #
loop $-1 $-1 $85 $33 #
plane-surface $-1 0 -22.623747955149181 18.75905182733203 0 -1 0 0 0 -1 forward_v I I I I #
coedge $-1 $86 $87 $88 $89 reversed $34 $-1 #
face $-1 $90 $91 $20 $-1 $92 reversed single #
loop $-1 $-1 $93 $36 #
plane-surface $-1 0 34.958729301112264 6.5045857213055669 0 0 1 1 0 0 forward_v I I I I #
coedge $-1 $94 $95 $96 $97 reversed $37 $-1 #
face $-1 $98 $99 $21 $-1 $100 reversed single #
loop $-1 $-1 $101 $39 #
plane-surface $-1 -78.6474196600238 6.9032335319898337 12.2344806028823 -0.74314483375859142 0 0.66913059716165679 0.66913059716165679 0 0.74314483375859142 forward_v I I I I #
coedge $-1 $102 $103 $104 $105 reversed $40 $-1 #
face $-1 $-1 $106 $22 $-1 $107 forward single #
loop $-1 $108 $109 $42 #
cone-surface $-1 -72.984952159063312 4.0790755073258254 15.562270523361455 0.74314483375859142 0 -0.66913059716165679 0.3345652985808284 0 0.37157241687929571 1 I I -0.70710678118654746 0.70710678118654746 0.5 forward I I I I #
loop $-1 $-1 $110 $28 #
coedge $-1 $68 $68 $111 $112 reversed $43 $-1 #
face $-1 $-1 $113 $23 $-1 $114 forward single #
loop $-1 $115 $116 $45 #
cone-surface $-1 -72.984952159063312 9.7273915566538349 15.562270523361455 0.74314483375859142 0 -0.66913059716165679 0.3345652985808284 0 0.37157241687929571 1 I I -0.70710678118654746 0.70710678118654746 0.5 forward I I I I #
loop $-1 $-1 $117 $29 #
coedge $-1 $73 $73 $118 $119 reversed $46 $-1 #
face $-1 $120 $121 $18 $-1 $122 reversed single #
loop $-1 $-1 $123 $48 #
plane-surface $-1 0 -45.302133026800966 0 0 1 0 0 0 1 forward_v I I I I #
coedge $-1 $124 $125 $126 $127 forward $49 $-1 #
coedge $-1 $128 $51 $129 $130 forward $31 $-1 #
coedge $-1 $51 $128 $131 $132 forward $31 $-1 #
coedge $-1 $133 $134 $51 $81 reversed $135 $-1 #
edge $-1 $136 -45.302133026800966 $137 45.302133026800966 $80 $138 forward 7 unknown #
face $-1 $139 $140 $19 $-1 $141 reversed single #
loop $-1 $-1 $142 $52 #
plane-surface $-1 -78.6474196600238 0 0 1 0 0 0 0 -1 forward_v I I I I #
coedge $-1 $143 $144 $145 $146 reversed $53 $-1 #
coedge $-1 $147 $55 $148 $149 reversed $34 $-1 #
coedge $-1 $55 $147 $143 $150 forward $34 $-1 #
coedge $-1 $145 $151 $55 $89 forward $152 $-1 #
edge $-1 $153 -28.320662781313423 $154 -5.642277709661645 $88 $155 forward 7 unknown #
face $-1 $156 $157 $20 $-1 $158 reversed single #
loop $-1 $-1 $159 $56 #
plane-surface $-1 0 24.615325575423569 10.902768013970025 0 1 0 0 0 1 forward_v I I I I #
coedge $-1 $160 $161 $162 $163 reversed $57 $-1 #
coedge $-1 $164 $59 $165 $166 reversed $37 $-1 #
coedge $-1 $59 $164 $167 $168 forward $37 $-1 #
coedge $-1 $169 $170 $59 $97 forward $157 $-1 #
edge $-1 $171 -27.822768376244827 $172 -7.1359609248674367 $96 $173 forward 7 unknown #
face $-1 $174 $175 $21 $-1 $176 reversed single #
loop $-1 $-1 $177 $60 #
plane-surface $-1 -195.54026687760492 0.31353147444049156 117.4852703675526 0 1 0 -0.74314483375859142 0 0.66913059716165679 forward_v I I I I #
coedge $-1 $178 $179 $180 $181 reversed $61 $-1 #
coedge $-1 $103 $63 $182 $183 reversed $40 $-1 #
coedge $-1 $63 $102 $178 $184 reversed $40 $-1 #
coedge $-1 $180 $185 $63 $105 forward $175 $-1 #
edge $-1 $186 37.201067915165019 $187 46.508154580894001 $104 $188 forward 7 unknown #
loop $-1 $-1 $111 $64 #
plane-surface $-1 -78.6474196600238 6.9032335319898337 12.2344806028823 -0.74314483375859142 0 0.66913059716165679 0.66913059716165679 0 0.74314483375859142 forward_v I I I I #
loop $-1 $-1 $189 $42 #
coedge $-1 $109 $109 $110 $190 reversed $65 $-1 #
coedge $-1 $110 $110 $109 $190 forward $67 $-1 #
coedge $-1 $111 $111 $68 $112 forward $106 $-1 #
edge $-1 $191 0 $191 6.2831853071796004 $111 $192 forward 7 unknown #
loop $-1 $-1 $118 $69 #
plane-surface $-1 -78.6474196600238 6.9032335319898337 12.2344806028823 -0.74314483375859142 0 0.66913059716165679 0.66913059716165679 0 0.74314483375859142 forward_v I I I I #
loop $-1 $-1 $193 $45 #
coedge $-1 $116 $116 $117 $194 reversed $70 $-1 #
coedge $-1 $117 $117 $116 $194 forward $72 $-1 #
coedge $-1 $118 $118 $73 $119 forward $113 $-1 #
edge $-1 $195 0 $195 6.2831853071796004 $118 $196 forward 7 unknown #
face $-1 $197 $198 $18 $-1 $199 reversed single #
loop $-1 $-1 $200 $74 #
plane-surface $-1 -78.6474196600238 0 0 1 0 0 0 0 -1 forward_v I I I I #
coedge $-1 $201 $131 $202 $203 forward $75 $-1 #
coedge $-1 $204 $77 $201 $205 forward $49 $-1 #
coedge $-1 $77 $204 $206 $207 forward $49 $-1 #
coedge $-1 $134 $133 $77 $127 reversed $135 $-1 #
edge $-1 $208 -45.302133026800966 $209 45.302133026800966 $126 $210 forward 7 unknown #
coedge $-1 $79 $78 $211 $212 forward $31 $-1 #
coedge $-1 $213 $214 $78 $130 reversed $198 $-1 #
edge $-1 $137 -78.6474196600238 $215 78.6474196600238 $129 $216 forward 7 unknown #
coedge $-1 $123 $217 $79 $132 reversed $75 $-1 #
edge $-1 $218 -78.6474196600238 $136 78.6474196600238 $131 $219 forward 7 unknown #
coedge $-1 $126 $80 $217 $220 forward $135 $-1 #
coedge $-1 $80 $126 $213 $221 reversed $135 $-1 #
loop $-1 $-1 $133 $197 #
vertex $-1 $81 $222 #
vertex $-1 $81 $223 #
straight-curve $-1 78.6474196600238 0 21.541567268611281 0 1 0 I I #
face $-1 $224 $225 $19 $-1 $226 forward single #
loop $-1 $-1 $148 $82 #
plane-surface $-1 0 -45.302133026800966 0 0 1 0 0 0 1 forward_v I I I I #
coedge $-1 $227 $228 $229 $230 forward $83 $-1 #
coedge $-1 $229 $85 $87 $150 reversed $53 $-1 #
coedge $-1 $85 $229 $231 $232 reversed $53 $-1 #
coedge $-1 $233 $88 $85 $146 forward $152 $-1 #
edge $-1 $154 6.5970104723867635 $234 12.162041354945266 $145 $235 forward 7 unknown #
coedge $-1 $87 $86 $227 $236 reversed $34 $-1 #
coedge $-1 $237 $238 $86 $149 forward $140 $-1 #
edge $-1 $239 -78.6474196600238 $153 78.6474196600238 $148 $240 forward 7 unknown #
edge $-1 $241 -78.6474196600238 $154 78.6474196600238 $143 $242 forward 7 unknown #
coedge $-1 $88 $233 $237 $243 forward $152 $-1 #
loop $-1 $-1 $145 $224 #
vertex $-1 $149 $244 #
vertex $-1 $89 $245 #
straight-curve $-1 78.6474196600238 -16.981470245487536 15.976536386052778 0 1 0 I I #
face $-1 $246 $247 $20 $-1 $248 reversed single #
loop $-1 $-1 $96 $90 #
plane-surface $-1 78.6474196600238 0 0 -1 0 0 0 0 1 forward_v I I I I #
coedge $-1 $249 $167 $250 $251 reversed $91 $-1 #
coedge $-1 $252 $93 $249 $253 forward $57 $-1 #
coedge $-1 $93 $252 $254 $255 reversed $57 $-1 #
coedge $-1 $170 $169 $93 $163 forward $157 $-1 #
edge $-1 $256 7.1359609248674367 $257 27.822768376244827 $162 $258 forward 7 unknown #
coedge $-1 $95 $94 $259 $260 reversed $37 $-1 #
coedge $-1 $261 $262 $94 $166 forward $263 $-1 #
edge $-1 $264 -78.6474196600238 $171 78.6474196600238 $165 $265 forward 7 unknown #
coedge $-1 $159 $266 $95 $168 reversed $91 $-1 #
edge $-1 $267 -78.6474196600238 $172 78.6474196600238 $167 $268 forward 7 unknown #
coedge $-1 $162 $96 $266 $269 forward $157 $-1 #
coedge $-1 $96 $162 $261 $270 reversed $157 $-1 #
vertex $-1 $270 $271 #
vertex $-1 $97 $272 #
straight-curve $-1 78.6474196600238 17.479364650556132 15.300950306634483 0 -1 0 I I #
face $-1 $-1 $273 $21 $-1 $274 forward single #
loop $-1 $-1 $104 $98 #
plane-surface $-1 -78.6474196600238 0 0 1 0 0 0 0 -1 forward_v I I I I #
coedge $-1 $275 $276 $277 $278 reversed $99 $-1 #
coedge $-1 $279 $101 $103 $184 forward $61 $-1 #
coedge $-1 $101 $279 $275 $280 forward $61 $-1 #
coedge $-1 $277 $104 $101 $181 forward $175 $-1 #
edge $-1 $187 -10.041318823544259 $281 3.1380852915544253 $180 $282 forward 7 unknown #
coedge $-1 $283 $284 $102 $183 forward $273 $-1 #
edge $-1 $285 -27.502852044662859 $186 -19.12271377877866 $182 $286 forward 7 unknown #
edge $-1 $187 0 $285 12.523920295128313 $103 $287 forward 7 unknown #
coedge $-1 $104 $277 $283 $288 reversed $175 $-1 #
vertex $-1 $288 $289 #
vertex $-1 $105 $290 #
straight-curve $-1 -78.6474196600238 13.492935589539176 58.742635183776301 0 0 -1 I I #
coedge $-1 $189 $189 $-1 $291 reversed $108 $-1 #
edge $-1 $292 0 $292 6.2831853071796004 $109 $293 forward 7 unknown #
vertex $-1 $112 $294 #
ellipse-curve $-1 -74.457350527081701 4.0790755073258254 16.888023935746794 -0.74314483375859142 0 0.66913059716165679 0.66913059716165679 0 0.74314483375859142 1 I I #
coedge $-1 $193 $193 $-1 $295 reversed $115 $-1 #
edge $-1 $296 0 $296 6.2831853071796004 $116 $297 forward 7 unknown #
vertex $-1 $119 $298 #
ellipse-curve $-1 -74.457350527081701 9.7273915566538349 16.888023935746794 -0.74314483375859142 0 0.66913059716165679 0.66913059716165679 0 0.74314483375859142 1 I I #
face $-1 $-1 $135 $18 $-1 $299 reversed single #
loop $-1 $-1 $213 $120 #
plane-surface $-1 0 45.302133026800966 0 0 -1 0 0 0 -1 forward_v I I I I #
coedge $-1 $300 $211 $214 $301 forward $121 $-1 #
coedge $-1 $217 $123 $124 $205 reversed $75 $-1 #
coedge $-1 $211 $300 $123 $203 reversed $121 $-1 #
edge $-1 $218 -21.541567268611281 $302 21.541567268611281 $202 $303 forward 7 unknown #
coedge $-1 $125 $124 $300 $304 forward $49 $-1 #
edge $-1 $209 -78.6474196600238 $302 78.6474196600238 $201 $305 forward 7 unknown #
coedge $-1 $214 $213 $125 $207 reversed $198 $-1 #
edge $-1 $306 -78.6474196600238 $208 78.6474196600238 $206 $307 forward 7 unknown #
vertex $-1 $127 $308 #
vertex $-1 $220 $309 #
straight-curve $-1 78.6474196600238 0 -21.541567268611281 0 -1 0 I I #
coedge $-1 $200 $202 $128 $212 reversed $121 $-1 #
edge $-1 $215 -45.302133026800966 $218 45.302133026800966 $211 $310 forward 7 unknown #
coedge $-1 $206 $129 $134 $221 forward $198 $-1 #
coedge $-1 $129 $206 $200 $301 reversed $198 $-1 #
vertex $-1 $130 $311 #
straight-curve $-1 0 45.302133026800966 21.541567268611281 -1 0 0 I I #
coedge $-1 $131 $201 $133 $220 reversed $75 $-1 #
vertex $-1 $212 $312 #
straight-curve $-1 0 -45.302133026800966 21.541567268611281 1 0 0 I I #
edge $-1 $136 -21.541567268611281 $209 21.541567268611281 $133 $313 forward 7 unknown #
edge $-1 $137 -21.541567268611281 $208 21.541567268611281 $134 $314 forward 7 unknown #
point $-1 78.6474196600238 -45.302133026800966 21.541567268611281 #
point $-1 78.6474196600238 45.302133026800966 21.541567268611281 #
face $-1 $-1 $152 $19 $-1 $315 reversed single #
loop $-1 $-1 $231 $139 #
plane-surface $-1 0 0 21.541567268611281 0 0 1 1 0 0 forward_v I I I I #
coedge $-1 $316 $142 $147 $236 forward $83 $-1 #
coedge $-1 $142 $316 $317 $318 reversed $83 $-1 #
coedge $-1 $144 $143 $142 $230 reversed $53 $-1 #
edge $-1 $319 -12.162041354945266 $241 -6.5970104723867635 $142 $320 forward 7 unknown #
coedge $-1 $317 $321 $144 $232 forward $225 $-1 #
edge $-1 $234 -78.6474196600238 $319 78.6474196600238 $231 $322 forward 7 unknown #
coedge $-1 $151 $145 $321 $323 reversed $152 $-1 #
vertex $-1 $146 $324 #
straight-curve $-1 78.6474196600238 -22.623747955149181 9.379525913666015 0 0 1 I I #
edge $-1 $241 5.642277709661645 $239 28.320662781313423 $227 $325 forward 7 unknown #
coedge $-1 $326 $148 $151 $243 reversed $140 $-1 #
coedge $-1 $148 $326 $316 $327 forward $140 $-1 #
vertex $-1 $149 $328 #
straight-curve $-1 0 -45.302133026800966 15.976536386052778 1 0 0 I I #
vertex $-1 $236 $329 #
straight-curve $-1 0 -22.623747955149181 15.976536386052778 1 0 0 I I #
edge $-1 $330 -21.541567268611281 $153 -15.976536386052778 $151 $331 forward 7 unknown #
point $-1 78.6474196600238 -45.302133026800959 15.976536386052778 #
point $-1 78.6474196600238 -22.623747955149181 15.976536386052778 #
face $-1 $-1 $263 $20 $-1 $332 reversed single #
loop $-1 $-1 $259 $156 #
plane-surface $-1 -78.6474196600238 0 0 1 0 0 0 0 -1 forward_v I I I I #
coedge $-1 $266 $159 $160 $253 reversed $91 $-1 #
coedge $-1 $259 $333 $159 $251 forward $247 $-1 #
edge $-1 $334 1.0532017143205543 $267 9.8495662996494708 $250 $335 forward 7 unknown #
coedge $-1 $161 $160 $333 $336 reversed $57 $-1 #
edge $-1 $256 -78.6474196600238 $334 78.6474196600238 $249 $337 forward 7 unknown #
coedge $-1 $262 $261 $161 $255 forward $263 $-1 #
edge $-1 $257 -78.6474196600238 $338 78.6474196600238 $254 $339 forward 7 unknown #
vertex $-1 $163 $340 #
vertex $-1 $255 $341 #
straight-curve $-1 78.6474196600238 17.479364650556132 6.5045857213055669 0 1 0 I I #
coedge $-1 $342 $250 $164 $260 forward $247 $-1 #
edge $-1 $267 7.1359609248674367 $264 27.822768376244827 $259 $343 forward 7 unknown #
coedge $-1 $254 $165 $170 $270 forward $263 $-1 #
coedge $-1 $165 $254 $342 $344 reversed $263 $-1 #
loop $-1 $-1 $165 $246 #
vertex $-1 $344 $345 #
straight-curve $-1 0 45.302133026800966 15.300950306634483 1 0 0 I I #
coedge $-1 $167 $249 $169 $269 reversed $91 $-1 #
vertex $-1 $260 $346 #
straight-curve $-1 0 24.615325575423569 15.300950306634483 1 0 0 I I #
edge $-1 $172 -9.8495662996494708 $256 -1.0532017143205543 $169 $347 forward 7 unknown #
edge $-1 $171 -15.300950306634483 $257 -6.5045857213055669 $170 $348 forward 7 unknown #
point $-1 78.6474196600238 45.302133026800959 15.300950306634483 #
point $-1 78.6474196600238 24.615325575423569 15.300950306634483 #
loop $-1 $-1 $182 $174 #
plane-surface $-1 0 0 21.541567268611281 0 0 1 1 0 0 forward_v I I I I #
coedge $-1 $276 $177 $179 $280 reversed $99 $-1 #
coedge $-1 $177 $275 $349 $350 reversed $99 $-1 #
coedge $-1 $185 $180 $177 $278 forward $175 $-1 #
edge $-1 $281 -46.508154580894001 $351 -37.201067915165019 $277 $352 forward 7 unknown #
coedge $-1 $179 $178 $284 $353 reversed $61 $-1 #
edge $-1 $354 -12.523920295128313 $281 0 $275 $355 forward 7 unknown #
vertex $-1 $181 $356 #
straight-curve $-1 -78.6474196600238 3.4516167659949168 12.234480602882291 0 -1 0 I I #
coedge $-1 $349 $182 $185 $288 forward $273 $-1 #
coedge $-1 $182 $349 $279 $353 forward $273 $-1 #
vertex $-1 $183 $357 #
straight-curve $-1 -97.770133438802461 13.492935589539176 21.541567268611281 -1 0 0 I I #
straight-curve $-1 -78.6474196600238 13.492935589539176 12.2344806028823 0.66913059716165679 0 0.74314483375859142 I I #
edge $-1 $186 -13.492935589539176 $351 -0.31353147444049156 $185 $358 forward 7 unknown #
point $-1 -78.6474196600238 13.492935589539176 21.541567268611281 #
point $-1 -78.6474196600238 13.492935589539176 12.2344806028823 #
edge $-1 $359 1 $359 0 $189 $-1 forward 7 unknown #
vertex $-1 $190 $360 #
ellipse-curve $-1 -73.356524575942601 4.0790755073258254 15.896835821942284 -0.74314483375859142 0 0.66913059716165679 0.66913059716165679 0 0.74314483375859142 1 I I #
point $-1 -73.788219929920047 4.0790755073258254 17.63116876950539 #
edge $-1 $361 1 $361 0 $193 $-1 forward 7 unknown #
vertex $-1 $194 $362 #
ellipse-curve $-1 -73.356524575942601 9.7273915566538349 15.896835821942284 -0.74314483375859142 0 0.66913059716165679 0.66913059716165679 0 0.74314483375859142 1 I I #
point $-1 -73.788219929920047 9.7273915566538349 17.63116876950539 #
plane-surface $-1 78.6474196600238 0 0 -1 0 0 0 0 1 forward_v I I I I #
coedge $-1 $202 $200 $204 $304 reversed $121 $-1 #
edge $-1 $215 -21.541567268611281 $306 21.541567268611281 $214 $363 forward 7 unknown #
vertex $-1 $304 $364 #
straight-curve $-1 -78.6474196600238 -45.302133026800966 0 0 0 -1 I I #
edge $-1 $302 -45.302133026800966 $306 45.302133026800966 $300 $365 forward 7 unknown #
straight-curve $-1 0 -45.302133026800966 -21.541567268611281 -1 0 0 I I #
vertex $-1 $207 $366 #
straight-curve $-1 0 45.302133026800966 -21.541567268611281 1 0 0 I I #
point $-1 78.6474196600238 45.302133026800966 -21.541567268611281 #
point $-1 78.6474196600238 -45.302133026800966 -21.541567268611281 #
straight-curve $-1 -78.6474196600238 0 21.541567268611281 0 -1 0 I I #
point $-1 -78.6474196600238 45.302133026800966 21.541567268611281 #
point $-1 -78.6474196600238 -45.302133026800966 21.541567268611281 #
straight-curve $-1 78.6474196600238 -45.302133026800966 0 0 0 -1 I I #
straight-curve $-1 78.6474196600238 45.302133026800966 0 0 0 -1 I I #
plane-surface $-1 78.6474196600238 0 0 -1 0 0 0 0 1 forward_v I I I I #
coedge $-1 $228 $227 $238 $327 reversed $83 $-1 #
coedge $-1 $367 $231 $228 $318 forward $225 $-1 #
edge $-1 $319 22.623747955149181 $368 45.302133026800966 $228 $369 forward 7 unknown #
vertex $-1 $318 $370 #
straight-curve $-1 -78.6474196600238 -22.623747955149181 9.379525913666015 0 0 -1 I I #
coedge $-1 $231 $367 $233 $323 forward $225 $-1 #
straight-curve $-1 0 -22.623747955149181 21.541567268611281 -1 0 0 I I #
edge $-1 $330 -45.302133026800966 $234 -22.623747955149181 $233 $371 forward 7 unknown #
point $-1 78.6474196600238 -22.623747955149181 21.541567268611281 #
straight-curve $-1 -78.6474196600238 -16.981470245487536 15.976536386052778 0 -1 0 I I #
coedge $-1 $238 $237 $367 $372 reversed $140 $-1 #
edge $-1 $368 -21.541567268611281 $239 -15.976536386052778 $316 $373 forward 7 unknown #
point $-1 -78.6474196600238 -45.302133026800959 15.976536386052778 #
point $-1 -78.6474196600238 -22.623747955149181 15.976536386052778 #
vertex $-1 $323 $374 #
straight-curve $-1 78.6474196600238 -45.302133026800966 0 0 0 -1 I I #
plane-surface $-1 0 45.302133026800966 0 0 -1 0 0 0 -1 forward_v I I I I #
coedge $-1 $250 $342 $252 $336 forward $247 $-1 #
vertex $-1 $336 $375 #
straight-curve $-1 -78.6474196600238 24.615325575423569 5.4513840069850126 0 0 1 I I #
edge $-1 $338 -27.822768376244827 $334 -7.1359609248674367 $333 $376 forward 7 unknown #
straight-curve $-1 0 24.615325575423569 6.5045857213055669 -1 0 0 I I #
vertex $-1 $255 $377 #
straight-curve $-1 0 45.302133026800966 6.5045857213055669 -1 0 0 I I #
point $-1 78.6474196600238 24.615325575423569 6.5045857213055669 #
point $-1 78.6474196600238 45.302133026800959 6.5045857213055669 #
coedge $-1 $333 $259 $262 $344 forward $247 $-1 #
straight-curve $-1 -78.6474196600238 17.479364650556132 15.300950306634483 0 1 0 I I #
edge $-1 $264 -15.300950306634483 $338 -6.5045857213055669 $262 $378 forward 7 unknown #
point $-1 -78.6474196600238 45.302133026800959 15.300950306634483 #
point $-1 -78.6474196600238 24.615325575423569 15.300950306634483 #
straight-curve $-1 78.6474196600238 24.615325575423569 5.4513840069850126 0 0 -1 I I #
straight-curve $-1 78.6474196600238 45.302133026800966 0 0 0 -1 I I #
coedge $-1 $284 $283 $276 $350 forward $273 $-1 #
edge $-1 $351 19.12271377877866 $354 27.502852044662859 $349 $379 forward 7 unknown #
vertex $-1 $350 $380 #
straight-curve $-1 -78.6474196600238 0.31353147444049156 58.742635183776301 0 0 1 I I #
edge $-1 $354 -3.1380852915544253 $285 10.041318823544259 $284 $381 forward 7 unknown #
vertex $-1 $353 $382 #
straight-curve $-1 -78.6474196600238 0.31353147444049156 12.2344806028823 -0.66913059716165679 0 -0.74314483375859142 I I #
point $-1 -78.6474196600238 0.31353147444049156 12.2344806028823 #
point $-1 -70.267281394139602 13.492935589539176 21.541567268611281 #
straight-curve $-1 -78.6474196600238 0 21.541567268611281 0 -1 0 I I #
vertex $-1 $291 $383 #
point $-1 -72.687393978780946 4.0790755073258254 16.639980655700874 #
vertex $-1 $295 $384 #
point $-1 -72.687393978780946 9.7273915566538349 16.639980655700874 #
straight-curve $-1 -78.6474196600238 45.302133026800966 0 0 0 -1 I I #
point $-1 -78.6474196600238 -45.302133026800966 -21.541567268611281 #
straight-curve $-1 -78.6474196600238 0 -21.541567268611281 0 1 0 I I #
point $-1 -78.6474196600238 45.302133026800966 -21.541567268611281 #
coedge $-1 $321 $317 $326 $372 forward $225 $-1 #
vertex $-1 $318 $385 #
straight-curve $-1 -78.6474196600238 0 21.541567268611281 0 -1 0 I I #
point $-1 -78.6474196600238 -22.623747955149181 21.541567268611281 #
straight-curve $-1 78.6474196600238 0 21.541567268611281 0 1 0 I I #
edge $-1 $368 -78.6474196600238 $330 78.6474196600238 $326 $386 forward 7 unknown #
straight-curve $-1 -78.6474196600238 -45.302133026800966 0 0 0 -1 I I #
point $-1 78.6474196600238 -45.302133026800966 21.541567268611281 #
point $-1 -78.6474196600238 24.615325575423569 6.5045857213055669 #
straight-curve $-1 -78.6474196600238 17.479364650556132 6.5045857213055669 0 -1 0 I I #
point $-1 -78.6474196600238 45.302133026800959 6.5045857213055669 #
straight-curve $-1 -78.6474196600238 45.302133026800966 0 0 0 -1 I I #
straight-curve $-1 -97.770133438802461 0.31353147444049156 21.541567268611281 1 0 0 I I #
point $-1 -78.6474196600238 0.31353147444049156 21.541567268611281 #
straight-curve $-1 -70.267281394139587 3.4516167659949168 21.541567268611281 0 1 0 I I #
point $-1 -70.267281394139602 0.31353147444049156 21.541567268611281 #
point $-1 -72.613379742184023 4.0790755073258254 15.227705224780626 #
point $-1 -72.613379742184023 9.7273915566538349 15.227705224780626 #
point $-1 -78.6474196600238 -45.302133026800966 21.541567268611281 #
straight-curve $-1 0 -45.302133026800966 21.541567268611281 1 0 0 I I #
End-of-ACIS-data 