500 0 17 0           
7 Unknown 11 ACIS 5.0 NT 24 Fri Mar 26 00:44:18 1999 
-1 9.9999999999999995e-007 1e-010 
body $-1 $17 $-1 $18 #
body $-1 $19 $-1 $20 #
body $-1 $21 $-1 $22 #
body $-1 $23 $-1 $24 #
body $-1 $25 $-1 $26 #
body $-1 $27 $-1 $28 #
body $-1 $29 $-1 $30 #
body $-1 $31 $-1 $32 #
body $-1 $33 $-1 $34 #
body $-1 $35 $-1 $36 #
body $-1 $37 $-1 $38 #
body $-1 $39 $-1 $40 #
body $-1 $41 $-1 $42 #
body $-1 $43 $-1 $44 #
body $-1 $45 $-1 $46 #
body $-1 $47 $-1 $48 #
body $-1 $49 $-1 $50 #
lump $-1 $-1 $51 $0 #
transform $-1 1 0 0 0 1 0 0 0 1 61.974547563097019 31.33036844776592 8.3548924068904267 1 rotate no_reflect no_shear #
lump $-1 $-1 $52 $1 #
transform $-1 1 0 0 0 1 0 0 0 1 61.974547563097019 31.33036844776592 8.3548924068904267 1 rotate no_reflect no_shear #
lump $-1 $-1 $53 $2 #
transform $-1 1 0 0 0 1 0 0 0 1 61.974547563097019 31.33036844776592 8.3548924068904267 1 rotate no_reflect no_shear #
lump $-1 $-1 $54 $3 #
transform $-1 1 0 0 0 1 0 0 0 1 61.974547563097019 31.33036844776592 8.3548924068904267 1 rotate no_reflect no_shear #
lump $-1 $-1 $55 $4 #
transform $-1 1 0 0 0 1 0 0 0 1 61.974547563097019 31.33036844776592 8.3548924068904267 1 rotate no_reflect no_shear #
lump $-1 $-1 $56 $5 #
transform $-1 1 0 0 0 1 0 0 0 1 61.974547563097019 31.33036844776592 8.3548924068904267 1 rotate no_reflect no_shear #
lump $-1 $-1 $57 $6 #
transform $-1 1 0 0 0 1 0 0 0 1 61.974547563097019 31.33036844776592 8.3548924068904267 1 rotate no_reflect no_shear #
lump $-1 $-1 $58 $7 #
transform $-1 1 0 0 0 1 0 0 0 1 61.974547563097019 31.33036844776592 8.3548924068904267 1 rotate no_reflect no_shear #
lump $-1 $-1 $59 $8 #
transform $-1 1 0 0 0 1 0 0 0 1 61.974547563097019 31.33036844776592 8.3548924068904267 1 rotate no_reflect no_shear #
lump $-1 $-1 $60 $9 #
transform $-1 1 0 0 0 1 0 0 0 1 61.974547563097019 31.33036844776592 8.3548924068904267 1 rotate no_reflect no_shear #
lump $-1 $-1 $61 $10 #
transform $-1 1 0 0 0 1 0 0 0 1 61.974547563097019 31.33036844776592 8.3548924068904267 1 rotate no_reflect no_shear #
lump $-1 $-1 $62 $11 #
transform $-1 1 0 0 0 1 0 0 0 1 61.974547563097019 31.33036844776592 8.3548924068904267 1 rotate no_reflect no_shear #
lump $-1 $-1 $63 $12 #
transform $-1 1 0 0 0 1 0 0 0 1 61.974547563097019 31.33036844776592 8.3548924068904267 1 rotate no_reflect no_shear #
lump $-1 $-1 $64 $13 #
transform $-1 1 0 0 0 1 0 0 0 1 61.974547563097019 31.33036844776592 8.3548924068904267 1 rotate no_reflect no_shear #
lump $-1 $-1 $65 $14 #
transform $-1 1 0 0 0 1 0 0 0 1 61.974547563097019 31.33036844776592 8.3548924068904267 1 rotate no_reflect no_shear #
lump $-1 $-1 $66 $15 #
transform $-1 1 0 0 0 1 0 0 0 1 61.974547563097019 31.33036844776592 8.3548924068904267 1 rotate no_reflect no_shear #
lump $-1 $-1 $67 $16 #
transform $-1 1 0 0 0 1 0 0 0 1 61.974547563097019 31.33036844776592 8.3548924068904267 1 rotate no_reflect no_shear #
shell $-1 $-1 $-1 $68 $-1 $17 #
shell $-1 $-1 $-1 $69 $-1 $19 #
shell $-1 $-1 $-1 $70 $-1 $21 #
shell $-1 $-1 $-1 $71 $-1 $23 #
shell $-1 $-1 $-1 $72 $-1 $25 #
shell $-1 $-1 $-1 $73 $-1 $27 #
shell $-1 $-1 $-1 $74 $-1 $29 #
shell $-1 $-1 $-1 $75 $-1 $31 #
shell $-1 $-1 $-1 $76 $-1 $33 #
shell $-1 $-1 $-1 $77 $-1 $35 #
shell $-1 $-1 $-1 $78 $-1 $37 #
shell $-1 $-1 $-1 $79 $-1 $39 #
shell $-1 $-1 $-1 $80 $-1 $41 #
shell $-1 $-1 $-1 $81 $-1 $43 #
shell $-1 $-1 $-1 $82 $-1 $45 #
shell $-1 $-1 $-1 $83 $-1 $47 #
shell $-1 $-1 $-1 $84 $-1 $49 #
face $-1 $85 $86 $51 $-1 $87 forward single #
face $-1 $88 $89 $52 $-1 $90 reversed single #
face $-1 $91 $92 $53 $-1 $93 forward single #
face $-1 $94 $95 $54 $-1 $96 reversed single #
face $-1 $97 $98 $55 $-1 $99 forward single #
face $-1 $100 $101 $56 $-1 $102 reversed single #
face $-1 $103 $104 $57 $-1 $105 forward single #
face $-1 $106 $107 $58 $-1 $108 reversed single #
face $-1 $109 $110 $59 $-1 $111 forward single #
face $-1 $112 $113 $60 $-1 $114 reversed single #
face $-1 $115 $116 $61 $-1 $117 forward single #
face $-1 $118 $119 $62 $-1 $120 reversed single #
face $-1 $121 $122 $63 $-1 $123 forward single #
face $-1 $124 $125 $64 $-1 $126 reversed single #
face $-1 $127 $128 $65 $-1 $129 forward single #
face $-1 $130 $131 $66 $-1 $132 reversed single #
face $-1 $133 $134 $67 $-1 $135 forward single #
face $-1 $136 $137 $51 $-1 $138 reversed single #
loop $-1 $-1 $139 $68 #
plane-surface $-1 0 0 8.3548924068904267 0 0 1 1 0 0 forward_v I I I I #
face $-1 $140 $141 $52 $-1 $142 reversed single #
loop $-1 $-1 $143 $69 #
plane-surface $-1 -141.64749112133342 -28.296578262582564 97.851115496276293 0 1 0 -0.64278761758704617 0 0.76604443648966558 forward_v I I I I #
face $-1 $144 $145 $53 $-1 $146 forward single #
loop $-1 $147 $148 $70 #
cone-surface $-1 -57.204640925803673 -23.202082699163832 3.8164946347301125 0.64278761758704617 0 -0.76604443648966558 1.1490666547344983 0 0.96418142638056925 1 I I 0 1 1.5 forward I I I I #
face $-1 $149 $150 $54 $-1 $151 reversed single #
loop $-1 $-1 $152 $71 #
plane-surface $-1 -141.64749112133342 -12.828523129806676 97.851115496276293 0 1 0 -0.64278761758704617 0 0.76604443648966558 forward_v I I I I #
face $-1 $153 $154 $55 $-1 $155 forward single #
loop $-1 $156 $157 $72 #
cone-surface $-1 -57.204640925803673 -7.7340275663879439 3.8164946347301125 0.64278761758704617 0 -0.76604443648966558 1.1490666547344983 0 0.96418142638056925 1 I I 0 1 1.5 forward I I I I #
face $-1 $158 $159 $56 $-1 $160 reversed single #
loop $-1 $-1 $161 $73 #
plane-surface $-1 -141.64749112133342 2.6395320029692115 97.851115496276293 0 1 0 -0.64278761758704617 0 0.76604443648966558 forward_v I I I I #
face $-1 $162 $163 $57 $-1 $164 forward single #
loop $-1 $165 $166 $74 #
cone-surface $-1 -57.204640925803673 7.7340275663879439 3.8164946347301125 0.64278761758704617 0 -0.76604443648966558 1.1490666547344983 0 0.96418142638056925 1 I I 0 1 1.5 forward I I I I #
face $-1 $167 $168 $58 $-1 $169 reversed single #
loop $-1 $-1 $170 $75 #
plane-surface $-1 -141.64749112133342 18.107587135745099 97.851115496276293 0 1 0 -0.64278761758704617 0 0.76604443648966558 forward_v I I I I #
face $-1 $171 $172 $59 $-1 $173 forward single #
loop $-1 $174 $175 $76 #
cone-surface $-1 -57.204640925803673 23.202082699163832 3.8164946347301125 0.64278761758704617 0 -0.76604443648966558 1.1490666547344983 0 0.96418142638056925 1 I I 0 1 1.5 forward I I I I #
face $-1 $176 $177 $60 $-1 $178 reversed single #
loop $-1 $-1 $179 $77 #
plane-surface $-1 46.696976391984165 -18.107587135745099 177.52405905451272 0 -1 0 -0.64278761758704617 0 -0.76604443648966558 forward_v I I I I #
face $-1 $180 $181 $61 $-1 $182 forward single #
loop $-1 $183 $184 $78 #
cone-surface $-1 57.204640925803659 -23.202082699163832 3.8164946347301054 -0.64278761758704617 0 -0.76604443648966558 1.1490666547344983 0 -0.96418142638056925 1 I I 0 1 1.5 forward I I I I #
face $-1 $185 $186 $62 $-1 $187 reversed single #
loop $-1 $-1 $188 $79 #
plane-surface $-1 46.696976391984165 -2.6395320029692115 177.52405905451272 0 -1 0 -0.64278761758704617 0 -0.76604443648966558 forward_v I I I I #
face $-1 $189 $190 $63 $-1 $191 forward single #
loop $-1 $192 $193 $80 #
cone-surface $-1 57.204640925803659 -7.7340275663879439 3.8164946347301054 -0.64278761758704617 0 -0.76604443648966558 1.1490666547344983 0 -0.96418142638056925 1 I I 0 1 1.5 forward I I I I #
face $-1 $194 $195 $64 $-1 $196 reversed single #
loop $-1 $-1 $197 $81 #
plane-surface $-1 46.696976391984165 12.828523129806676 177.52405905451272 0 -1 0 -0.64278761758704617 0 -0.76604443648966558 forward_v I I I I #
face $-1 $198 $199 $65 $-1 $200 forward single #
loop $-1 $201 $202 $82 #
cone-surface $-1 57.204640925803659 7.7340275663879439 3.8164946347301054 -0.64278761758704617 0 -0.76604443648966558 1.1490666547344983 0 -0.96418142638056925 1 I I 0 1 1.5 forward I I I I #
face $-1 $203 $204 $66 $-1 $205 reversed single #
loop $-1 $-1 $206 $83 #
plane-surface $-1 46.696976391984165 28.296578262582564 177.52405905451272 0 -1 0 -0.64278761758704617 0 -0.76604443648966558 forward_v I I I I #
face $-1 $207 $208 $67 $-1 $209 forward single #
loop $-1 $210 $211 $84 #
cone-surface $-1 57.204640925803659 23.202082699163832 3.8164946347301054 -0.64278761758704617 0 -0.76604443648966558 1.1490666547344983 0 -0.96418142638056925 1 I I 0 1 1.5 forward I I I I #
face $-1 $212 $213 $51 $-1 $214 reversed single #
loop $-1 $-1 $215 $85 #
plane-surface $-1 0 0 -8.3548924068904267 0 0 1 1 0 0 forward_v I I I I #
coedge $-1 $216 $217 $218 $219 forward $86 $-1 #
face $-1 $220 $221 $52 $-1 $222 reversed single #
loop $-1 $-1 $223 $88 #
plane-surface $-1 -61.974547563096991 -23.202082699163832 2.9006007669270275 -0.64278761758704617 0 0.76604443648966558 0.76604443648966558 0 0.64278761758704617 forward_v I I I I #
coedge $-1 $224 $225 $226 $227 reversed $89 $-1 #
face $-1 $-1 $228 $53 $-1 $229 forward single #
loop $-1 $230 $231 $91 #
cone-surface $-1 -55.202729335738596 -23.202082699163832 1.4307093551842431 0.64278761758704617 0 -0.76604443648966558 0.57453332736724916 0 0.48209071319028463 1 I I -0.70710678118654757 0.70710678118654757 0.75 forward I I I I #
loop $-1 $-1 $232 $70 #
coedge $-1 $148 $148 $233 $234 reversed $92 $-1 #
face $-1 $235 $236 $54 $-1 $237 reversed single #
loop $-1 $-1 $238 $94 #
plane-surface $-1 -61.974547563096991 -7.7340275663879439 2.9006007669270275 -0.64278761758704617 0 0.76604443648966558 0.76604443648966558 0 0.64278761758704617 forward_v I I I I #
coedge $-1 $239 $240 $241 $242 reversed $95 $-1 #
face $-1 $-1 $243 $55 $-1 $244 forward single #
loop $-1 $245 $246 $97 #
cone-surface $-1 -55.202729335738596 -7.7340275663879439 1.4307093551842431 0.64278761758704617 0 -0.76604443648966558 0.57453332736724916 0 0.48209071319028463 1 I I -0.70710678118654757 0.70710678118654757 0.75 forward I I I I #
loop $-1 $-1 $247 $72 #
coedge $-1 $157 $157 $248 $249 reversed $98 $-1 #
face $-1 $250 $251 $56 $-1 $252 reversed single #
loop $-1 $-1 $253 $100 #
plane-surface $-1 -61.974547563096991 7.7340275663879439 2.9006007669270275 -0.64278761758704617 0 0.76604443648966558 0.76604443648966558 0 0.64278761758704617 forward_v I I I I #
coedge $-1 $254 $255 $256 $257 reversed $101 $-1 #
face $-1 $-1 $258 $57 $-1 $259 forward single #
loop $-1 $260 $261 $103 #
cone-surface $-1 -55.202729335738596 7.7340275663879439 1.4307093551842431 0.64278761758704617 0 -0.76604443648966558 0.57453332736724916 0 0.48209071319028463 1 I I -0.70710678118654757 0.70710678118654757 0.75 forward I I I I #
loop $-1 $-1 $262 $74 #
coedge $-1 $166 $166 $263 $264 reversed $104 $-1 #
face $-1 $265 $266 $58 $-1 $267 reversed single #
loop $-1 $-1 $268 $106 #
plane-surface $-1 -61.974547563096991 23.202082699163832 2.9006007669270275 -0.64278761758704617 0 0.76604443648966558 0.76604443648966558 0 0.64278761758704617 forward_v I I I I #
coedge $-1 $269 $270 $271 $272 reversed $107 $-1 #
face $-1 $-1 $273 $59 $-1 $274 forward single #
loop $-1 $275 $276 $109 #
cone-surface $-1 -55.202729335738596 23.202082699163832 1.4307093551842431 0.64278761758704617 0 -0.76604443648966558 0.57453332736724916 0 0.48209071319028463 1 I I -0.70710678118654757 0.70710678118654757 0.75 forward I I I I #
loop $-1 $-1 $277 $76 #
coedge $-1 $175 $175 $278 $279 reversed $110 $-1 #
face $-1 $280 $281 $60 $-1 $282 reversed single #
loop $-1 $-1 $283 $112 #
plane-surface $-1 -32.975967166252261 -23.202082699163832 82.573544325163454 0.64278761758704617 0 0.76604443648966558 0.76604443648966558 0 -0.64278761758704617 forward_v I I I I #
coedge $-1 $284 $285 $286 $287 reversed $113 $-1 #
face $-1 $-1 $288 $61 $-1 $289 forward single #
loop $-1 $290 $291 $115 #
cone-surface $-1 55.202729335738582 -23.202082699163832 1.430709355184236 -0.64278761758704617 0 -0.76604443648966558 0.57453332736724916 0 -0.48209071319028463 1 I I -0.70710678118654757 0.70710678118654757 0.75 forward I I I I #
loop $-1 $-1 $292 $78 #
coedge $-1 $184 $184 $293 $294 reversed $116 $-1 #
face $-1 $295 $296 $62 $-1 $297 reversed single #
loop $-1 $-1 $298 $118 #
plane-surface $-1 -32.975967166252261 -7.7340275663879439 82.573544325163454 0.64278761758704617 0 0.76604443648966558 0.76604443648966558 0 -0.64278761758704617 forward_v I I I I #
coedge $-1 $299 $300 $301 $302 reversed $119 $-1 #
face $-1 $-1 $303 $63 $-1 $304 forward single #
loop $-1 $305 $306 $121 #
cone-surface $-1 55.202729335738582 -7.7340275663879439 1.430709355184236 -0.64278761758704617 0 -0.76604443648966558 0.57453332736724916 0 -0.48209071319028463 1 I I -0.70710678118654757 0.70710678118654757 0.75 forward I I I I #
loop $-1 $-1 $307 $80 #
coedge $-1 $193 $193 $308 $309 reversed $122 $-1 #
face $-1 $310 $311 $64 $-1 $312 reversed single #
loop $-1 $-1 $313 $124 #
plane-surface $-1 -32.975967166252261 7.7340275663879439 82.573544325163454 0.64278761758704617 0 0.76604443648966558 0.76604443648966558 0 -0.64278761758704617 forward_v I I I I #
coedge $-1 $314 $315 $316 $317 reversed $125 $-1 #
face $-1 $-1 $318 $65 $-1 $319 forward single #
loop $-1 $320 $321 $127 #
cone-surface $-1 55.202729335738582 7.7340275663879439 1.430709355184236 -0.64278761758704617 0 -0.76604443648966558 0.57453332736724916 0 -0.48209071319028463 1 I I -0.70710678118654757 0.70710678118654757 0.75 forward I I I I #
loop $-1 $-1 $322 $82 #
coedge $-1 $202 $202 $323 $324 reversed $128 $-1 #
face $-1 $325 $326 $66 $-1 $327 reversed single #
loop $-1 $-1 $328 $130 #
plane-surface $-1 -32.975967166252261 23.202082699163832 82.573544325163454 0.64278761758704617 0 0.76604443648966558 0.76604443648966558 0 -0.64278761758704617 forward_v I I I I #
coedge $-1 $329 $330 $331 $332 reversed $131 $-1 #
face $-1 $-1 $333 $67 $-1 $334 forward single #
loop $-1 $335 $336 $133 #
cone-surface $-1 55.202729335738582 23.202082699163832 1.430709355184236 -0.64278761758704617 0 -0.76604443648966558 0.57453332736724916 0 -0.48209071319028463 1 I I -0.70710678118654757 0.70710678118654757 0.75 forward I I I I #
loop $-1 $-1 $337 $84 #
coedge $-1 $211 $211 $338 $339 reversed $134 $-1 #
face $-1 $340 $341 $51 $-1 $342 reversed single #
loop $-1 $-1 $343 $136 #
plane-surface $-1 0 -31.33036844776592 0 0 1 0 0 0 1 forward_v I I I I #
coedge $-1 $344 $345 $346 $347 forward $137 $-1 #
coedge $-1 $348 $139 $349 $350 forward $86 $-1 #
coedge $-1 $139 $348 $351 $352 forward $86 $-1 #
coedge $-1 $353 $354 $139 $219 reversed $355 $-1 #
edge $-1 $356 -31.33036844776592 $357 31.33036844776592 $218 $358 forward 7 unknown #
face $-1 $359 $360 $52 $-1 $361 reversed single #
loop $-1 $-1 $362 $140 #
plane-surface $-1 -141.64749112133342 -18.107587135745099 97.851115496276293 0 -1 0 0.64278761758704617 0 -0.76604443648966558 forward_v I I I I #
coedge $-1 $363 $364 $365 $366 reversed $141 $-1 #
coedge $-1 $225 $143 $367 $368 reversed $89 $-1 #
coedge $-1 $143 $224 $363 $369 reversed $89 $-1 #
coedge $-1 $365 $370 $143 $227 forward $371 $-1 #
edge $-1 $372 8.8491979975696893 $373 15.349369518406832 $226 $374 forward 7 unknown #
loop $-1 $-1 $233 $144 #
plane-surface $-1 -61.974547563096991 -23.202082699163832 2.9006007669270275 -0.64278761758704617 0 0.76604443648966558 0.76604443648966558 0 0.64278761758704617 forward_v I I I I #
loop $-1 $-1 $375 $91 #
coedge $-1 $231 $231 $232 $376 reversed $145 $-1 #
coedge $-1 $232 $232 $231 $376 forward $147 $-1 #
coedge $-1 $233 $233 $148 $234 forward $228 $-1 #
edge $-1 $377 0 $377 6.2831853071796004 $233 $378 forward 7 unknown #
face $-1 $379 $380 $54 $-1 $381 forward single #
loop $-1 $-1 $382 $149 #
plane-surface $-1 -141.64749112133342 -2.6395320029692115 97.851115496276293 0 -1 0 0.64278761758704617 0 -0.76604443648966558 forward_v I I I I #
coedge $-1 $383 $384 $385 $386 reversed $150 $-1 #
coedge $-1 $240 $152 $387 $388 reversed $95 $-1 #
coedge $-1 $152 $239 $383 $389 reversed $95 $-1 #
coedge $-1 $385 $390 $152 $242 forward $380 $-1 #
edge $-1 $391 8.8491979975696893 $392 15.349369518406832 $241 $393 forward 7 unknown #
loop $-1 $-1 $248 $153 #
plane-surface $-1 -61.974547563096991 -7.7340275663879439 2.9006007669270275 -0.64278761758704617 0 0.76604443648966558 0.76604443648966558 0 0.64278761758704617 forward_v I I I I #
loop $-1 $-1 $394 $97 #
coedge $-1 $246 $246 $247 $395 reversed $154 $-1 #
coedge $-1 $247 $247 $246 $395 forward $156 $-1 #
coedge $-1 $248 $248 $157 $249 forward $243 $-1 #
edge $-1 $396 0 $396 6.2831853071796004 $248 $397 forward 7 unknown #
face $-1 $398 $399 $56 $-1 $400 forward single #
loop $-1 $-1 $401 $158 #
plane-surface $-1 -141.64749112133342 12.828523129806676 97.851115496276293 0 -1 0 0.64278761758704617 0 -0.76604443648966558 forward_v I I I I #
coedge $-1 $402 $403 $404 $405 reversed $159 $-1 #
coedge $-1 $255 $161 $406 $407 reversed $101 $-1 #
coedge $-1 $161 $254 $402 $408 reversed $101 $-1 #
coedge $-1 $404 $409 $161 $257 forward $399 $-1 #
edge $-1 $410 8.8491979975696893 $411 15.349369518406832 $256 $412 forward 7 unknown #
loop $-1 $-1 $263 $162 #
plane-surface $-1 -61.974547563096991 7.7340275663879439 2.9006007669270275 -0.64278761758704617 0 0.76604443648966558 0.76604443648966558 0 0.64278761758704617 forward_v I I I I #
loop $-1 $-1 $413 $103 #
coedge $-1 $261 $261 $262 $414 reversed $163 $-1 #
coedge $-1 $262 $262 $261 $414 forward $165 $-1 #
coedge $-1 $263 $263 $166 $264 forward $258 $-1 #
edge $-1 $415 0 $415 6.2831853071796004 $263 $416 forward 7 unknown #
face $-1 $417 $418 $58 $-1 $419 forward single #
loop $-1 $-1 $420 $167 #
plane-surface $-1 -141.64749112133342 28.296578262582564 97.851115496276293 0 -1 0 0.64278761758704617 0 -0.76604443648966558 forward_v I I I I #
coedge $-1 $421 $422 $423 $424 reversed $168 $-1 #
coedge $-1 $270 $170 $425 $426 reversed $107 $-1 #
coedge $-1 $170 $269 $421 $427 reversed $107 $-1 #
coedge $-1 $423 $428 $170 $272 forward $418 $-1 #
edge $-1 $429 8.8491979975696893 $430 15.349369518406832 $271 $431 forward 7 unknown #
loop $-1 $-1 $278 $171 #
plane-surface $-1 -61.974547563096991 23.202082699163832 2.9006007669270275 -0.64278761758704617 0 0.76604443648966558 0.76604443648966558 0 0.64278761758704617 forward_v I I I I #
loop $-1 $-1 $432 $109 #
coedge $-1 $276 $276 $277 $433 reversed $172 $-1 #
coedge $-1 $277 $277 $276 $433 forward $174 $-1 #
coedge $-1 $278 $278 $175 $279 forward $273 $-1 #
edge $-1 $434 0 $434 6.2831853071796004 $278 $435 forward 7 unknown #
face $-1 $436 $437 $60 $-1 $438 forward single #
loop $-1 $-1 $439 $176 #
plane-surface $-1 46.696976391984165 -28.296578262582564 177.52405905451272 0 1 0 0.64278761758704617 0 0.76604443648966558 forward_v I I I I #
coedge $-1 $440 $441 $442 $443 reversed $177 $-1 #
coedge $-1 $285 $179 $444 $445 reversed $113 $-1 #
coedge $-1 $179 $284 $440 $446 reversed $113 $-1 #
coedge $-1 $442 $447 $179 $287 forward $437 $-1 #
edge $-1 $448 -38.626059367104936 $449 -32.125887846267808 $286 $450 forward 7 unknown #
loop $-1 $-1 $293 $180 #
plane-surface $-1 -32.975967166252261 -23.202082699163832 82.573544325163454 0.64278761758704617 0 0.76604443648966558 0.76604443648966558 0 -0.64278761758704617 forward_v I I I I #
loop $-1 $-1 $451 $115 #
coedge $-1 $291 $291 $292 $452 reversed $181 $-1 #
coedge $-1 $292 $292 $291 $452 forward $183 $-1 #
coedge $-1 $293 $293 $184 $294 forward $288 $-1 #
edge $-1 $453 0 $453 6.2831853071796004 $293 $454 forward 7 unknown #
face $-1 $455 $456 $62 $-1 $457 reversed single #
loop $-1 $-1 $458 $185 #
plane-surface $-1 46.696976391984165 -12.828523129806676 177.52405905451272 0 1 0 0.64278761758704617 0 0.76604443648966558 forward_v I I I I #
coedge $-1 $459 $460 $461 $462 reversed $186 $-1 #
coedge $-1 $300 $188 $463 $464 reversed $119 $-1 #
coedge $-1 $188 $299 $459 $465 reversed $119 $-1 #
coedge $-1 $461 $466 $188 $302 forward $467 $-1 #
edge $-1 $468 -38.626059367104936 $469 -32.125887846267808 $301 $470 forward 7 unknown #
loop $-1 $-1 $308 $189 #
plane-surface $-1 -32.975967166252261 -7.7340275663879439 82.573544325163454 0.64278761758704617 0 0.76604443648966558 0.76604443648966558 0 -0.64278761758704617 forward_v I I I I #
loop $-1 $-1 $471 $121 #
coedge $-1 $306 $306 $307 $472 reversed $190 $-1 #
coedge $-1 $307 $307 $306 $472 forward $192 $-1 #
coedge $-1 $308 $308 $193 $309 forward $303 $-1 #
edge $-1 $473 0 $473 6.2831853071796004 $308 $474 forward 7 unknown #
face $-1 $475 $476 $64 $-1 $477 reversed single #
loop $-1 $-1 $478 $194 #
plane-surface $-1 46.696976391984165 2.6395320029692115 177.52405905451272 0 1 0 0.64278761758704617 0 0.76604443648966558 forward_v I I I I #
coedge $-1 $479 $480 $481 $482 reversed $195 $-1 #
coedge $-1 $315 $197 $483 $484 reversed $125 $-1 #
coedge $-1 $197 $314 $479 $485 reversed $125 $-1 #
coedge $-1 $481 $486 $197 $317 forward $487 $-1 #
edge $-1 $488 -38.626059367104936 $489 -32.125887846267808 $316 $490 forward 7 unknown #
loop $-1 $-1 $323 $198 #
plane-surface $-1 -32.975967166252261 7.7340275663879439 82.573544325163454 0.64278761758704617 0 0.76604443648966558 0.76604443648966558 0 -0.64278761758704617 forward_v I I I I #
loop $-1 $-1 $491 $127 #
coedge $-1 $321 $321 $322 $492 reversed $199 $-1 #
coedge $-1 $322 $322 $321 $492 forward $201 $-1 #
coedge $-1 $323 $323 $202 $324 forward $318 $-1 #
edge $-1 $493 0 $493 6.2831853071796004 $323 $494 forward 7 unknown #
face $-1 $495 $496 $66 $-1 $497 reversed single #
loop $-1 $-1 $498 $203 #
plane-surface $-1 46.696976391984165 18.107587135745099 177.52405905451272 0 1 0 0.64278761758704617 0 0.76604443648966558 forward_v I I I I #
coedge $-1 $499 $500 $501 $502 reversed $204 $-1 #
coedge $-1 $330 $206 $503 $504 reversed $131 $-1 #
coedge $-1 $206 $329 $499 $505 reversed $131 $-1 #
coedge $-1 $501 $506 $206 $332 forward $507 $-1 #
edge $-1 $508 -38.626059367104936 $509 -32.125887846267808 $331 $510 forward 7 unknown #
loop $-1 $-1 $338 $207 #
plane-surface $-1 -32.975967166252261 23.202082699163832 82.573544325163454 0.64278761758704617 0 0.76604443648966558 0.76604443648966558 0 -0.64278761758704617 forward_v I I I I #
loop $-1 $-1 $511 $133 #
coedge $-1 $336 $336 $337 $512 reversed $208 $-1 #
coedge $-1 $337 $337 $336 $512 forward $210 $-1 #
coedge $-1 $338 $338 $211 $339 forward $333 $-1 #
edge $-1 $513 0 $513 6.2831853071796004 $338 $514 forward 7 unknown #
face $-1 $515 $516 $51 $-1 $517 reversed single #
loop $-1 $-1 $518 $212 #
plane-surface $-1 -61.974547563097019 0 0 1 0 0 0 0 -1 forward_v I I I I #
coedge $-1 $519 $351 $520 $521 forward $213 $-1 #
coedge $-1 $522 $215 $519 $523 forward $137 $-1 #
coedge $-1 $215 $522 $524 $525 forward $137 $-1 #
coedge $-1 $354 $353 $215 $347 reversed $355 $-1 #
edge $-1 $526 -31.33036844776592 $527 31.33036844776592 $346 $528 forward 7 unknown #
coedge $-1 $217 $216 $529 $530 forward $86 $-1 #
coedge $-1 $531 $532 $216 $350 reversed $516 $-1 #
edge $-1 $357 -61.974547563097019 $533 61.974547563097019 $349 $534 forward 7 unknown #
coedge $-1 $343 $535 $217 $352 reversed $213 $-1 #
edge $-1 $536 -61.974547563097019 $356 61.974547563097019 $351 $537 forward 7 unknown #
coedge $-1 $346 $218 $535 $538 forward $355 $-1 #
coedge $-1 $218 $346 $531 $539 reversed $355 $-1 #
loop $-1 $-1 $353 $515 #
vertex $-1 $219 $540 #
vertex $-1 $219 $541 #
straight-curve $-1 61.974547563097019 0 8.3548924068904267 0 1 0 I I #
face $-1 $-1 $371 $52 $-1 $542 forward single #
loop $-1 $-1 $543 $220 #
plane-surface $-1 -61.974547563097019 0 0 1 0 0 0 0 -1 forward_v I I I I #
coedge $-1 $544 $545 $546 $547 reversed $221 $-1 #
coedge $-1 $548 $223 $225 $369 forward $141 $-1 #
coedge $-1 $223 $548 $544 $549 forward $141 $-1 #
coedge $-1 $546 $226 $223 $366 forward $371 $-1 #
edge $-1 $373 -16.695536913000648 $550 -6.5065457861631835 $365 $551 forward 7 unknown #
coedge $-1 $552 $553 $224 $368 forward $360 $-1 #
edge $-1 $554 -46.02495698121114 $372 -40.570665341247718 $367 $555 forward 7 unknown #
edge $-1 $373 -8.4853713586428547 $554 3.7186864825251173e-014 $225 $556 forward 7 unknown #
coedge $-1 $226 $546 $552 $557 forward $371 $-1 #
loop $-1 $-1 $546 $359 #
vertex $-1 $368 $558 #
vertex $-1 $227 $559 #
straight-curve $-1 -70.823745560666708 -28.296578262582564 8.3548924068904284 1 0 0 I I #
coedge $-1 $375 $375 $-1 $560 reversed $230 $-1 #
edge $-1 $561 0 $561 6.2831853071796004 $231 $562 forward 7 unknown #
vertex $-1 $234 $563 #
ellipse-curve $-1 -58.724461802678448 -23.202082699163832 5.627746586908712 -0.64278761758704617 0 0.76604443648966558 1.1490666547344983 0 0.96418142638056925 1 I I #
face $-1 $-1 $564 $54 $-1 $565 reversed single #
loop $-1 $-1 $241 $235 #
plane-surface $-1 0 0 8.3548924068904267 0 0 1 1 0 0 forward_v I I I I #
coedge $-1 $566 $567 $568 $569 reversed $236 $-1 #
coedge $-1 $570 $238 $240 $389 forward $150 $-1 #
coedge $-1 $238 $570 $566 $571 forward $150 $-1 #
coedge $-1 $568 $241 $238 $386 forward $380 $-1 #
edge $-1 $392 -8.9615093466127043 $572 1.2274817802247604 $385 $573 forward 7 unknown #
coedge $-1 $574 $575 $239 $388 forward $564 $-1 #
edge $-1 $576 -46.02495698121114 $391 -40.570665341247718 $387 $577 forward 7 unknown #
edge $-1 $392 -8.4853713586428547 $576 3.7186864825251173e-014 $240 $578 forward 7 unknown #
coedge $-1 $241 $568 $574 $579 forward $380 $-1 #
vertex $-1 $242 $580 #
vertex $-1 $242 $581 #
straight-curve $-1 -70.823745560666708 -12.828523129806676 8.3548924068904284 1 0 0 I I #
coedge $-1 $394 $394 $-1 $582 reversed $245 $-1 #
edge $-1 $583 0 $583 6.2831853071796004 $246 $584 forward 7 unknown #
vertex $-1 $249 $585 #
ellipse-curve $-1 -58.724461802678448 -7.7340275663879439 5.627746586908712 -0.64278761758704617 0 0.76604443648966558 1.1490666547344983 0 0.96418142638056925 1 I I #
face $-1 $-1 $586 $56 $-1 $587 reversed single #
loop $-1 $-1 $256 $250 #
plane-surface $-1 0 0 8.3548924068904267 0 0 1 1 0 0 forward_v I I I I #
coedge $-1 $588 $589 $590 $591 reversed $251 $-1 #
coedge $-1 $592 $253 $255 $408 forward $159 $-1 #
coedge $-1 $253 $592 $588 $593 forward $159 $-1 #
coedge $-1 $590 $256 $253 $405 forward $399 $-1 #
edge $-1 $411 -1.2274817802247604 $594 8.9615093466127043 $404 $595 forward 7 unknown #
coedge $-1 $596 $597 $254 $407 forward $586 $-1 #
edge $-1 $598 -46.02495698121114 $410 -40.570665341247718 $406 $599 forward 7 unknown #
edge $-1 $411 -8.4853713586428547 $598 3.7186864825251173e-014 $255 $600 forward 7 unknown #
coedge $-1 $256 $590 $596 $601 forward $399 $-1 #
vertex $-1 $257 $602 #
vertex $-1 $257 $603 #
straight-curve $-1 -70.823745560666708 2.6395320029692115 8.3548924068904284 1 0 0 I I #
coedge $-1 $413 $413 $-1 $604 reversed $260 $-1 #
edge $-1 $605 0 $605 6.2831853071796004 $261 $606 forward 7 unknown #
vertex $-1 $264 $607 #
ellipse-curve $-1 -58.724461802678448 7.7340275663879439 5.627746586908712 -0.64278761758704617 0 0.76604443648966558 1.1490666547344983 0 0.96418142638056925 1 I I #
face $-1 $-1 $608 $58 $-1 $609 reversed single #
loop $-1 $-1 $271 $265 #
plane-surface $-1 0 0 8.3548924068904267 0 0 1 1 0 0 forward_v I I I I #
coedge $-1 $610 $611 $612 $613 reversed $266 $-1 #
coedge $-1 $614 $268 $270 $427 forward $168 $-1 #
coedge $-1 $268 $614 $610 $615 forward $168 $-1 #
coedge $-1 $612 $271 $268 $424 forward $418 $-1 #
edge $-1 $430 6.5065457861631835 $616 16.695536913000648 $423 $617 forward 7 unknown #
coedge $-1 $618 $619 $269 $426 forward $608 $-1 #
edge $-1 $620 -46.02495698121114 $429 -40.570665341247718 $425 $621 forward 7 unknown #
edge $-1 $430 -8.4853713586428547 $620 3.7186864825251173e-014 $270 $622 forward 7 unknown #
coedge $-1 $271 $612 $618 $623 forward $418 $-1 #
vertex $-1 $272 $624 #
vertex $-1 $272 $625 #
straight-curve $-1 -70.823745560666708 18.107587135745099 8.3548924068904284 1 0 0 I I #
coedge $-1 $432 $432 $-1 $626 reversed $275 $-1 #
edge $-1 $627 0 $627 6.2831853071796004 $276 $628 forward 7 unknown #
vertex $-1 $279 $629 #
ellipse-curve $-1 -58.724461802678448 23.202082699163832 5.627746586908712 -0.64278761758704617 0 0.76604443648966558 1.1490666547344983 0 0.96418142638056925 1 I I #
face $-1 $-1 $630 $60 $-1 $631 reversed single #
loop $-1 $-1 $286 $280 #
plane-surface $-1 0 0 8.3548924068904267 0 0 1 1 0 0 forward_v I I I I #
coedge $-1 $632 $633 $634 $635 reversed $281 $-1 #
coedge $-1 $636 $283 $285 $446 forward $177 $-1 #
coedge $-1 $283 $636 $632 $637 forward $177 $-1 #
coedge $-1 $634 $286 $283 $443 forward $437 $-1 #
edge $-1 $449 6.5065457861631835 $638 16.695536913000648 $442 $639 forward 7 unknown #
coedge $-1 $640 $641 $284 $445 forward $630 $-1 #
edge $-1 $642 -85.861428760329332 $448 -80.407137120365931 $444 $643 forward 7 unknown #
edge $-1 $449 115.46372376755119 $642 123.94909512619404 $285 $644 forward 7 unknown #
coedge $-1 $286 $634 $640 $645 forward $437 $-1 #
vertex $-1 $445 $646 #
vertex $-1 $287 $647 #
straight-curve $-1 23.348488195992083 -18.107587135745099 8.3548924068904284 -1 0 0 I I #
coedge $-1 $451 $451 $-1 $648 reversed $290 $-1 #
edge $-1 $649 0 $649 6.2831853071796004 $291 $650 forward 7 unknown #
vertex $-1 $294 $651 #
ellipse-curve $-1 58.724461802678455 -23.202082699163832 5.627746586908728 0.64278761758704617 0 0.76604443648966558 1.1490666547344983 0 -0.96418142638056925 1 I I #
face $-1 $-1 $467 $62 $-1 $652 forward single #
loop $-1 $-1 $653 $295 #
plane-surface $-1 61.974547563097019 0 0 -1 0 0 0 0 1 forward_v I I I I #
coedge $-1 $654 $655 $656 $657 reversed $296 $-1 #
coedge $-1 $658 $298 $300 $465 forward $186 $-1 #
coedge $-1 $298 $658 $654 $659 forward $186 $-1 #
coedge $-1 $656 $301 $298 $462 forward $467 $-1 #
edge $-1 $469 -1.2274817802247604 $660 8.9615093466127043 $461 $661 forward 7 unknown #
coedge $-1 $662 $663 $299 $464 forward $456 $-1 #
edge $-1 $664 -85.861428760329332 $468 -80.407137120365931 $463 $665 forward 7 unknown #
edge $-1 $469 115.46372376755119 $664 123.94909512619404 $300 $666 forward 7 unknown #
coedge $-1 $301 $656 $662 $667 forward $467 $-1 #
loop $-1 $-1 $656 $455 #
vertex $-1 $464 $668 #
vertex $-1 $302 $669 #
straight-curve $-1 23.348488195992083 -2.6395320029692115 8.3548924068904284 -1 0 0 I I #
coedge $-1 $471 $471 $-1 $670 reversed $305 $-1 #
edge $-1 $671 0 $671 6.2831853071796004 $306 $672 forward 7 unknown #
vertex $-1 $309 $673 #
ellipse-curve $-1 58.724461802678455 -7.7340275663879439 5.627746586908728 0.64278761758704617 0 0.76604443648966558 1.1490666547344983 0 -0.96418142638056925 1 I I #
face $-1 $-1 $487 $64 $-1 $674 forward single #
loop $-1 $-1 $675 $310 #
plane-surface $-1 61.974547563097019 0 0 -1 0 0 0 0 1 forward_v I I I I #
coedge $-1 $676 $677 $678 $679 reversed $311 $-1 #
coedge $-1 $680 $313 $315 $485 forward $195 $-1 #
coedge $-1 $313 $680 $676 $681 forward $195 $-1 #
coedge $-1 $678 $316 $313 $482 forward $487 $-1 #
edge $-1 $489 -8.9615093466127043 $682 1.2274817802247604 $481 $683 forward 7 unknown #
coedge $-1 $684 $685 $314 $484 forward $476 $-1 #
edge $-1 $686 -85.861428760329332 $488 -80.407137120365931 $483 $687 forward 7 unknown #
edge $-1 $489 115.46372376755119 $686 123.94909512619404 $315 $688 forward 7 unknown #
coedge $-1 $316 $678 $684 $689 forward $487 $-1 #
loop $-1 $-1 $678 $475 #
vertex $-1 $484 $690 #
vertex $-1 $317 $691 #
straight-curve $-1 23.348488195992083 12.828523129806676 8.3548924068904284 -1 0 0 I I #
coedge $-1 $491 $491 $-1 $692 reversed $320 $-1 #
edge $-1 $693 0 $693 6.2831853071796004 $321 $694 forward 7 unknown #
vertex $-1 $324 $695 #
ellipse-curve $-1 58.724461802678455 7.7340275663879439 5.627746586908728 0.64278761758704617 0 0.76604443648966558 1.1490666547344983 0 -0.96418142638056925 1 I I #
face $-1 $-1 $507 $66 $-1 $696 forward single #
loop $-1 $-1 $697 $325 #
plane-surface $-1 61.974547563097019 0 0 -1 0 0 0 0 1 forward_v I I I I #
coedge $-1 $698 $699 $700 $701 reversed $326 $-1 #
coedge $-1 $702 $328 $330 $505 forward $204 $-1 #
coedge $-1 $328 $702 $698 $703 forward $204 $-1 #
coedge $-1 $700 $331 $328 $502 forward $507 $-1 #
edge $-1 $509 -16.695536913000648 $704 -6.5065457861631835 $501 $705 forward 7 unknown #
coedge $-1 $706 $707 $329 $504 forward $496 $-1 #
edge $-1 $708 -85.861428760329332 $508 -80.407137120365931 $503 $709 forward 7 unknown #
edge $-1 $509 115.46372376755119 $708 123.94909512619404 $330 $710 forward 7 unknown #
coedge $-1 $331 $700 $706 $711 forward $507 $-1 #
loop $-1 $-1 $700 $495 #
vertex $-1 $504 $712 #
vertex $-1 $332 $713 #
straight-curve $-1 23.348488195992083 28.296578262582564 8.3548924068904284 -1 0 0 I I #
coedge $-1 $511 $511 $-1 $714 reversed $335 $-1 #
edge $-1 $715 0 $715 6.2831853071796004 $336 $716 forward 7 unknown #
vertex $-1 $339 $717 #
ellipse-curve $-1 58.724461802678455 23.202082699163832 5.627746586908728 0.64278761758704617 0 0.76604443648966558 1.1490666547344983 0 -0.96418142638056925 1 I I #
face $-1 $-1 $355 $51 $-1 $718 reversed single #
loop $-1 $-1 $531 $340 #
plane-surface $-1 0 31.33036844776592 0 0 -1 0 0 0 -1 forward_v I I I I #
coedge $-1 $719 $529 $532 $720 forward $341 $-1 #
coedge $-1 $535 $343 $344 $523 reversed $213 $-1 #
coedge $-1 $529 $719 $343 $521 reversed $341 $-1 #
edge $-1 $536 -8.3548924068904267 $721 8.3548924068904267 $520 $722 forward 7 unknown #
coedge $-1 $345 $344 $719 $723 forward $137 $-1 #
edge $-1 $527 -61.974547563097019 $721 61.974547563097019 $519 $724 forward 7 unknown #
coedge $-1 $532 $531 $345 $525 reversed $516 $-1 #
edge $-1 $725 -61.974547563097019 $526 61.974547563097019 $524 $726 forward 7 unknown #
vertex $-1 $347 $727 #
vertex $-1 $538 $728 #
straight-curve $-1 61.974547563097019 0 -8.3548924068904267 0 -1 0 I I #
coedge $-1 $518 $520 $348 $530 reversed $341 $-1 #
edge $-1 $533 -31.33036844776592 $536 31.33036844776592 $529 $729 forward 7 unknown #
coedge $-1 $524 $349 $354 $539 forward $516 $-1 #
coedge $-1 $349 $524 $518 $720 reversed $516 $-1 #
vertex $-1 $350 $730 #
straight-curve $-1 0 31.33036844776592 8.3548924068904267 -1 0 0 I I #
coedge $-1 $351 $519 $353 $538 reversed $213 $-1 #
vertex $-1 $530 $731 #
straight-curve $-1 0 -31.33036844776592 8.3548924068904267 1 0 0 I I #
edge $-1 $356 -8.3548924068904267 $527 8.3548924068904267 $353 $732 forward 7 unknown #
edge $-1 $357 -8.3548924068904267 $526 8.3548924068904267 $354 $733 forward 7 unknown #
point $-1 61.974547563097019 -31.33036844776592 8.3548924068904267 #
point $-1 61.974547563097019 31.33036844776592 8.3548924068904267 #
plane-surface $-1 0 0 8.3548924068904267 0 0 1 1 0 0 forward_v I I I I #
coedge $-1 $553 $552 $545 $734 forward $360 $-1 #
coedge $-1 $545 $362 $364 $549 reversed $221 $-1 #
coedge $-1 $362 $544 $543 $734 reversed $221 $-1 #
coedge $-1 $370 $365 $362 $547 forward $371 $-1 #
edge $-1 $550 -15.349369518406832 $735 -8.8491979975696893 $546 $736 forward 7 unknown #
coedge $-1 $364 $363 $553 $737 reversed $141 $-1 #
edge $-1 $738 -3.7186864825251173e-014 $550 8.4853713586428547 $544 $739 forward 7 unknown #
vertex $-1 $366 $740 #
straight-curve $-1 -55.47437604225987 -11.601041349581916 8.3548924068904267 0 1 0 I I #
coedge $-1 $543 $367 $370 $557 reversed $360 $-1 #
coedge $-1 $367 $543 $548 $737 forward $360 $-1 #
vertex $-1 $368 $741 #
straight-curve $-1 -61.974547563097019 -28.296578262582564 48.925557748138147 0 0 1 I I #
straight-curve $-1 -61.974547563096991 -28.296578262582564 2.9006007669270275 -0.76604443648966558 0 -0.64278761758704617 I I #
edge $-1 $735 18.107587135745099 $372 28.296578262582564 $552 $742 forward 7 unknown #
point $-1 -61.974547563097019 -28.296578262582564 8.3548924068904267 #
point $-1 -55.474376042259877 -28.296578262582564 8.3548924068904267 #
edge $-1 $743 1 $743 0 $375 $-1 forward 7 unknown #
vertex $-1 $376 $744 #
ellipse-curve $-1 -55.684820048928877 -23.202082699163832 2.0052426825514922 -0.64278761758704617 0 0.76604443648966558 1.1490666547344983 0 0.96418142638056925 1 I I #
point $-1 -57.575395147943972 -23.202082699163832 6.5919280132893014 #
loop $-1 $-1 $387 $379 #
plane-surface $-1 -61.974547563097019 0 0 1 0 0 0 0 -1 forward_v I I I I #
coedge $-1 $567 $382 $384 $571 reversed $236 $-1 #
coedge $-1 $382 $566 $745 $746 reversed $236 $-1 #
coedge $-1 $390 $385 $382 $569 forward $380 $-1 #
edge $-1 $572 -15.349369518406832 $747 -8.8491979975696893 $568 $748 forward 7 unknown #
coedge $-1 $384 $383 $575 $749 reversed $150 $-1 #
edge $-1 $750 -3.7186864825251173e-014 $572 8.4853713586428547 $566 $751 forward 7 unknown #
vertex $-1 $386 $752 #
straight-curve $-1 -55.47437604225987 -3.8670137831939719 8.3548924068904267 0 1 0 I I #
coedge $-1 $745 $387 $390 $579 reversed $564 $-1 #
coedge $-1 $387 $745 $570 $749 forward $564 $-1 #
vertex $-1 $388 $753 #
straight-curve $-1 -61.974547563097019 -12.828523129806676 48.925557748138147 0 0 1 I I #
straight-curve $-1 -61.974547563096991 -12.828523129806676 2.9006007669270275 -0.76604443648966558 0 -0.64278761758704617 I I #
edge $-1 $747 2.6395320029692115 $391 12.828523129806676 $574 $754 forward 7 unknown #
point $-1 -61.974547563097019 -12.828523129806676 8.3548924068904267 #
point $-1 -55.474376042259877 -12.828523129806676 8.3548924068904267 #
edge $-1 $755 1 $755 0 $394 $-1 forward 7 unknown #
vertex $-1 $395 $756 #
ellipse-curve $-1 -55.684820048928877 -7.7340275663879439 2.0052426825514922 -0.64278761758704617 0 0.76604443648966558 1.1490666547344983 0 0.96418142638056925 1 I I #
point $-1 -57.575395147943972 -7.7340275663879439 6.5919280132893014 #
loop $-1 $-1 $406 $398 #
plane-surface $-1 -61.974547563097019 0 0 1 0 0 0 0 -1 forward_v I I I I #
coedge $-1 $589 $401 $403 $593 reversed $251 $-1 #
coedge $-1 $401 $588 $757 $758 reversed $251 $-1 #
coedge $-1 $409 $404 $401 $591 forward $399 $-1 #
edge $-1 $594 -15.349369518406832 $759 -8.8491979975696893 $590 $760 forward 7 unknown #
coedge $-1 $403 $402 $597 $761 reversed $159 $-1 #
edge $-1 $762 -3.7186864825251173e-014 $594 8.4853713586428547 $588 $763 forward 7 unknown #
vertex $-1 $405 $764 #
straight-curve $-1 -55.47437604225987 3.8670137831939719 8.3548924068904267 0 1 0 I I #
coedge $-1 $757 $406 $409 $601 reversed $586 $-1 #
coedge $-1 $406 $757 $592 $761 forward $586 $-1 #
vertex $-1 $407 $765 #
straight-curve $-1 -61.974547563097019 2.6395320029692115 48.925557748138147 0 0 1 I I #
straight-curve $-1 -61.974547563096991 2.6395320029692115 2.9006007669270275 -0.76604443648966558 0 -0.64278761758704617 I I #
edge $-1 $759 -12.828523129806676 $410 -2.6395320029692115 $596 $766 forward 7 unknown #
point $-1 -61.974547563097019 2.6395320029692115 8.3548924068904267 #
point $-1 -55.474376042259877 2.6395320029692115 8.3548924068904267 #
edge $-1 $767 1 $767 0 $413 $-1 forward 7 unknown #
vertex $-1 $414 $768 #
ellipse-curve $-1 -55.684820048928877 7.7340275663879439 2.0052426825514922 -0.64278761758704617 0 0.76604443648966558 1.1490666547344983 0 0.96418142638056925 1 I I #
point $-1 -57.575395147943972 7.7340275663879439 6.5919280132893014 #
loop $-1 $-1 $425 $417 #
plane-surface $-1 -61.974547563097019 0 0 1 0 0 0 0 -1 forward_v I I I I #
coedge $-1 $611 $420 $422 $615 reversed $266 $-1 #
coedge $-1 $420 $610 $769 $770 reversed $266 $-1 #
coedge $-1 $428 $423 $420 $613 forward $418 $-1 #
edge $-1 $616 -15.349369518406832 $771 -8.8491979975696893 $612 $772 forward 7 unknown #
coedge $-1 $422 $421 $619 $773 reversed $168 $-1 #
edge $-1 $774 -3.7186864825251173e-014 $616 8.4853713586428547 $610 $775 forward 7 unknown #
vertex $-1 $424 $776 #
straight-curve $-1 -55.47437604225987 11.601041349581916 8.3548924068904267 0 1 0 I I #
coedge $-1 $769 $425 $428 $623 reversed $608 $-1 #
coedge $-1 $425 $769 $614 $773 forward $608 $-1 #
vertex $-1 $426 $777 #
straight-curve $-1 -61.974547563097019 18.107587135745099 48.925557748138147 0 0 1 I I #
straight-curve $-1 -61.974547563096991 18.107587135745099 2.9006007669270275 -0.76604443648966558 0 -0.64278761758704617 I I #
edge $-1 $771 -28.296578262582564 $429 -18.107587135745099 $618 $778 forward 7 unknown #
point $-1 -61.974547563097019 18.107587135745099 8.3548924068904267 #
point $-1 -55.474376042259877 18.107587135745099 8.3548924068904267 #
edge $-1 $779 1 $779 0 $432 $-1 forward 7 unknown #
vertex $-1 $433 $780 #
ellipse-curve $-1 -55.684820048928877 23.202082699163832 2.0052426825514922 -0.64278761758704617 0 0.76604443648966558 1.1490666547344983 0 0.96418142638056925 1 I I #
point $-1 -57.575395147943972 23.202082699163832 6.5919280132893014 #
loop $-1 $-1 $444 $436 #
plane-surface $-1 61.974547563097019 0 0 -1 0 0 0 0 1 forward_v I I I I #
coedge $-1 $633 $439 $441 $637 reversed $281 $-1 #
coedge $-1 $439 $632 $781 $782 reversed $281 $-1 #
coedge $-1 $447 $442 $439 $635 forward $437 $-1 #
edge $-1 $638 32.125887846267808 $783 38.626059367104936 $634 $784 forward 7 unknown #
coedge $-1 $441 $440 $641 $785 reversed $177 $-1 #
edge $-1 $786 -123.94909512619404 $638 -115.46372376755119 $632 $787 forward 7 unknown #
vertex $-1 $443 $788 #
straight-curve $-1 55.474376042259891 -11.601041349581916 8.3548924068904356 0 -1 0 I I #
coedge $-1 $781 $444 $447 $645 reversed $630 $-1 #
coedge $-1 $444 $781 $636 $785 forward $630 $-1 #
vertex $-1 $445 $789 #
straight-curve $-1 61.974547563097019 -18.107587135745099 88.76202952725636 0 0 1 I I #
straight-curve $-1 -32.975967166252261 -18.107587135745099 82.573544325163454 0.76604443648966558 0 -0.64278761758704617 I I #
edge $-1 $783 -28.296578262582564 $448 -18.107587135745099 $640 $790 forward 7 unknown #
point $-1 61.974547563097019 -18.107587135745099 8.3548924068904267 #
point $-1 55.474376042259891 -18.107587135745099 8.3548924068904284 #
edge $-1 $791 1 $791 0 $451 $-1 forward 7 unknown #
vertex $-1 $452 $792 #
ellipse-curve $-1 55.684820048928863 -23.202082699163832 2.0052426825514851 0.64278761758704617 0 0.76604443648966558 1.1490666547344983 0 -0.96418142638056925 1 I I #
point $-1 59.873528457412952 -23.202082699163832 4.6635651605281563 #
plane-surface $-1 0 0 8.3548924068904267 0 0 1 1 0 0 forward_v I I I I #
coedge $-1 $663 $662 $655 $793 forward $456 $-1 #
coedge $-1 $655 $458 $460 $659 reversed $296 $-1 #
coedge $-1 $458 $654 $653 $793 reversed $296 $-1 #
coedge $-1 $466 $461 $458 $657 forward $467 $-1 #
edge $-1 $660 32.125887846267808 $794 38.626059367104936 $656 $795 forward 7 unknown #
coedge $-1 $460 $459 $663 $796 reversed $186 $-1 #
edge $-1 $797 -123.94909512619404 $660 -115.46372376755119 $654 $798 forward 7 unknown #
vertex $-1 $462 $799 #
straight-curve $-1 55.474376042259891 -3.8670137831939719 8.3548924068904356 0 -1 0 I I #
coedge $-1 $653 $463 $466 $667 reversed $456 $-1 #
coedge $-1 $463 $653 $658 $796 forward $456 $-1 #
vertex $-1 $464 $800 #
straight-curve $-1 61.974547563097019 -2.6395320029692115 88.76202952725636 0 0 1 I I #
straight-curve $-1 -32.975967166252261 -2.6395320029692115 82.573544325163454 0.76604443648966558 0 -0.64278761758704617 I I #
edge $-1 $794 -12.828523129806676 $468 -2.6395320029692115 $662 $801 forward 7 unknown #
point $-1 61.974547563097019 -2.6395320029692115 8.3548924068904267 #
point $-1 55.474376042259891 -2.6395320029692115 8.3548924068904284 #
edge $-1 $802 1 $802 0 $471 $-1 forward 7 unknown #
vertex $-1 $472 $803 #
ellipse-curve $-1 55.684820048928863 -7.7340275663879439 2.0052426825514851 0.64278761758704617 0 0.76604443648966558 1.1490666547344983 0 -0.96418142638056925 1 I I #
point $-1 59.873528457412952 -7.7340275663879439 4.6635651605281563 #
plane-surface $-1 0 0 8.3548924068904267 0 0 1 1 0 0 forward_v I I I I #
coedge $-1 $685 $684 $677 $804 forward $476 $-1 #
coedge $-1 $677 $478 $480 $681 reversed $311 $-1 #
coedge $-1 $478 $676 $675 $804 reversed $311 $-1 #
coedge $-1 $486 $481 $478 $679 forward $487 $-1 #
edge $-1 $682 32.125887846267808 $805 38.626059367104936 $678 $806 forward 7 unknown #
coedge $-1 $480 $479 $685 $807 reversed $195 $-1 #
edge $-1 $808 -123.94909512619404 $682 -115.46372376755119 $676 $809 forward 7 unknown #
vertex $-1 $482 $810 #
straight-curve $-1 55.474376042259891 3.8670137831939719 8.3548924068904356 0 -1 0 I I #
coedge $-1 $675 $483 $486 $689 reversed $476 $-1 #
coedge $-1 $483 $675 $680 $807 forward $476 $-1 #
vertex $-1 $484 $811 #
straight-curve $-1 61.974547563097019 12.828523129806676 88.76202952725636 0 0 1 I I #
straight-curve $-1 -32.975967166252261 12.828523129806676 82.573544325163454 0.76604443648966558 0 -0.64278761758704617 I I #
edge $-1 $805 2.6395320029692115 $488 12.828523129806676 $684 $812 forward 7 unknown #
point $-1 61.974547563097019 12.828523129806676 8.3548924068904267 #
point $-1 55.474376042259891 12.828523129806676 8.3548924068904284 #
edge $-1 $813 1 $813 0 $491 $-1 forward 7 unknown #
vertex $-1 $492 $814 #
ellipse-curve $-1 55.684820048928863 7.7340275663879439 2.0052426825514851 0.64278761758704617 0 0.76604443648966558 1.1490666547344983 0 -0.96418142638056925 1 I I #
point $-1 59.873528457412952 7.7340275663879439 4.6635651605281563 #
plane-surface $-1 0 0 8.3548924068904267 0 0 1 1 0 0 forward_v I I I I #
coedge $-1 $707 $706 $699 $815 forward $496 $-1 #
coedge $-1 $699 $498 $500 $703 reversed $326 $-1 #
coedge $-1 $498 $698 $697 $815 reversed $326 $-1 #
coedge $-1 $506 $501 $498 $701 forward $507 $-1 #
edge $-1 $704 32.125887846267808 $816 38.626059367104936 $700 $817 forward 7 unknown #
coedge $-1 $500 $499 $707 $818 reversed $204 $-1 #
edge $-1 $819 -123.94909512619404 $704 -115.46372376755119 $698 $820 forward 7 unknown #
vertex $-1 $502 $821 #
straight-curve $-1 55.474376042259891 11.601041349581916 8.3548924068904356 0 -1 0 I I #
coedge $-1 $697 $503 $506 $711 reversed $496 $-1 #
coedge $-1 $503 $697 $702 $818 forward $496 $-1 #
vertex $-1 $504 $822 #
straight-curve $-1 61.974547563097019 28.296578262582564 88.76202952725636 0 0 1 I I #
straight-curve $-1 -32.975967166252261 28.296578262582564 82.573544325163454 0.76604443648966558 0 -0.64278761758704617 I I #
edge $-1 $816 18.107587135745099 $508 28.296578262582564 $706 $823 forward 7 unknown #
point $-1 61.974547563097019 28.296578262582564 8.3548924068904267 #
point $-1 55.474376042259891 28.296578262582564 8.3548924068904284 #
edge $-1 $824 1 $824 0 $511 $-1 forward 7 unknown #
vertex $-1 $512 $825 #
ellipse-curve $-1 55.684820048928863 23.202082699163832 2.0052426825514851 0.64278761758704617 0 0.76604443648966558 1.1490666547344983 0 -0.96418142638056925 1 I I #
point $-1 59.873528457412952 23.202082699163832 4.6635651605281563 #
plane-surface $-1 61.974547563097019 0 0 -1 0 0 0 0 1 forward_v I I I I #
coedge $-1 $520 $518 $522 $723 reversed $341 $-1 #
edge $-1 $533 -8.3548924068904267 $725 8.3548924068904267 $532 $826 forward 7 unknown #
vertex $-1 $723 $827 #
straight-curve $-1 -61.974547563097019 -31.33036844776592 0 0 0 -1 I I #
edge $-1 $721 -31.33036844776592 $725 31.33036844776592 $719 $828 forward 7 unknown #
straight-curve $-1 0 -31.33036844776592 -8.3548924068904267 -1 0 0 I I #
vertex $-1 $525 $829 #
straight-curve $-1 0 31.33036844776592 -8.3548924068904267 1 0 0 I I #
point $-1 61.974547563097019 31.33036844776592 -8.3548924068904267 #
point $-1 61.974547563097019 -31.33036844776592 -8.3548924068904267 #
straight-curve $-1 -61.974547563097019 0 8.3548924068904267 0 -1 0 I I #
point $-1 -61.974547563097019 31.33036844776592 8.3548924068904267 #
point $-1 -61.974547563097019 -31.33036844776592 8.3548924068904267 #
straight-curve $-1 61.974547563097019 -31.33036844776592 0 0 0 -1 I I #
straight-curve $-1 61.974547563097019 31.33036844776592 0 0 0 -1 I I #
edge $-1 $735 40.570665341247718 $738 46.02495698121114 $543 $830 forward 7 unknown #
vertex $-1 $557 $831 #
straight-curve $-1 -70.823745560666708 -18.107587135745099 8.3548924068904284 -1 0 0 I I #
edge $-1 $738 6.5065457861631835 $554 16.695536913000648 $553 $832 forward 7 unknown #
vertex $-1 $737 $833 #
straight-curve $-1 -61.974547563096991 -18.107587135745099 2.9006007669270275 0.76604443648966558 0 0.64278761758704617 I I #
point $-1 -55.474376042259877 -18.107587135745099 8.3548924068904267 #
point $-1 -61.974547563097019 -28.296578262582564 2.9006007669270035 #
straight-curve $-1 -61.974547563097019 0 8.3548924068904267 0 -1 0 I I #
vertex $-1 $560 $834 #
point $-1 -54.53575339419438 -23.202082699163832 2.9694241089320617 #
coedge $-1 $575 $574 $567 $746 forward $564 $-1 #
edge $-1 $747 40.570665341247718 $750 46.02495698121114 $745 $835 forward 7 unknown #
vertex $-1 $579 $836 #
straight-curve $-1 -70.823745560666708 -2.6395320029692115 8.3548924068904284 -1 0 0 I I #
edge $-1 $750 -1.2274817802247604 $576 8.9615093466127043 $575 $837 forward 7 unknown #
vertex $-1 $749 $838 #
straight-curve $-1 -61.974547563096991 -2.6395320029692115 2.9006007669270275 0.76604443648966558 0 0.64278761758704617 I I #
point $-1 -55.474376042259877 -2.6395320029692115 8.3548924068904267 #
point $-1 -61.974547563097019 -12.828523129806676 2.9006007669270035 #
straight-curve $-1 -61.974547563097019 0 8.3548924068904267 0 -1 0 I I #
vertex $-1 $582 $839 #
point $-1 -54.53575339419438 -7.7340275663879439 2.9694241089320617 #
coedge $-1 $597 $596 $589 $758 forward $586 $-1 #
edge $-1 $759 40.570665341247718 $762 46.02495698121114 $757 $840 forward 7 unknown #
vertex $-1 $601 $841 #
straight-curve $-1 -70.823745560666708 12.828523129806676 8.3548924068904284 -1 0 0 I I #
edge $-1 $762 -8.9615093466127043 $598 1.2274817802247604 $597 $842 forward 7 unknown #
vertex $-1 $761 $843 #
straight-curve $-1 -61.974547563096991 12.828523129806676 2.9006007669270275 0.76604443648966558 0 0.64278761758704617 I I #
point $-1 -55.474376042259877 12.828523129806676 8.3548924068904267 #
point $-1 -61.974547563097019 2.6395320029692115 2.9006007669270035 #
straight-curve $-1 -61.974547563097019 0 8.3548924068904267 0 -1 0 I I #
vertex $-1 $604 $844 #
point $-1 -54.53575339419438 7.7340275663879439 2.9694241089320617 #
coedge $-1 $619 $618 $611 $770 forward $608 $-1 #
edge $-1 $771 40.570665341247718 $774 46.02495698121114 $769 $845 forward 7 unknown #
vertex $-1 $623 $846 #
straight-curve $-1 -70.823745560666708 28.296578262582564 8.3548924068904284 -1 0 0 I I #
edge $-1 $774 -16.695536913000648 $620 -6.5065457861631835 $619 $847 forward 7 unknown #
vertex $-1 $773 $848 #
straight-curve $-1 -61.974547563096991 28.296578262582564 2.9006007669270275 0.76604443648966558 0 0.64278761758704617 I I #
point $-1 -55.474376042259877 28.296578262582564 8.3548924068904267 #
point $-1 -61.974547563097019 18.107587135745099 2.9006007669270035 #
straight-curve $-1 -61.974547563097019 0 8.3548924068904267 0 -1 0 I I #
vertex $-1 $626 $849 #
point $-1 -54.53575339419438 23.202082699163832 2.9694241089320617 #
coedge $-1 $641 $640 $633 $782 forward $630 $-1 #
edge $-1 $783 80.407137120365931 $786 85.861428760329332 $781 $850 forward 7 unknown #
vertex $-1 $645 $851 #
straight-curve $-1 23.348488195992083 -28.296578262582564 8.3548924068904284 1 0 0 I I #
edge $-1 $786 -16.695536913000648 $642 -6.5065457861631835 $641 $852 forward 7 unknown #
vertex $-1 $785 $853 #
straight-curve $-1 -32.975967166252261 -28.296578262582564 82.573544325163454 -0.76604443648966558 0 0.64278761758704617 I I #
point $-1 55.474376042259891 -28.296578262582564 8.3548924068904284 #
point $-1 61.974547563097019 -18.107587135745099 2.9006007669270275 #
straight-curve $-1 61.974547563097019 0 8.3548924068904267 0 1 0 I I #
vertex $-1 $648 $854 #
point $-1 56.833886703663367 -23.202082699163832 1.041061256170916 #
edge $-1 $794 80.407137120365931 $797 85.861428760329332 $653 $855 forward 7 unknown #
vertex $-1 $667 $856 #
straight-curve $-1 23.348488195992083 -12.828523129806676 8.3548924068904284 1 0 0 I I #
edge $-1 $797 -8.9615093466127043 $664 1.2274817802247604 $663 $857 forward 7 unknown #
vertex $-1 $796 $858 #
straight-curve $-1 -32.975967166252261 -12.828523129806676 82.573544325163454 -0.76604443648966558 0 0.64278761758704617 I I #
point $-1 55.474376042259891 -12.828523129806676 8.3548924068904284 #
point $-1 61.974547563097019 -2.6395320029692115 2.9006007669270275 #
straight-curve $-1 61.974547563097019 0 8.3548924068904267 0 1 0 I I #
vertex $-1 $670 $859 #
point $-1 56.833886703663367 -7.7340275663879439 1.041061256170916 #
edge $-1 $805 80.407137120365931 $808 85.861428760329332 $675 $860 forward 7 unknown #
vertex $-1 $689 $861 #
straight-curve $-1 23.348488195992083 2.6395320029692115 8.3548924068904284 1 0 0 I I #
edge $-1 $808 -1.2274817802247604 $686 8.9615093466127043 $685 $862 forward 7 unknown #
vertex $-1 $807 $863 #
straight-curve $-1 -32.975967166252261 2.6395320029692115 82.573544325163454 -0.76604443648966558 0 0.64278761758704617 I I #
point $-1 55.474376042259891 2.6395320029692115 8.3548924068904284 #
point $-1 61.974547563097019 12.828523129806676 2.9006007669270275 #
straight-curve $-1 61.974547563097019 0 8.3548924068904267 0 1 0 I I #
vertex $-1 $692 $864 #
point $-1 56.833886703663367 7.7340275663879439 1.041061256170916 #
edge $-1 $816 80.407137120365931 $819 85.861428760329332 $697 $865 forward 7 unknown #
vertex $-1 $711 $866 #
straight-curve $-1 23.348488195992083 18.107587135745099 8.3548924068904284 1 0 0 I I #
edge $-1 $819 6.5065457861631835 $708 16.695536913000648 $707 $867 forward 7 unknown #
vertex $-1 $818 $868 #
straight-curve $-1 -32.975967166252261 18.107587135745099 82.573544325163454 -0.76604443648966558 0 0.64278761758704617 I I #
point $-1 55.474376042259891 18.107587135745099 8.3548924068904284 #
point $-1 61.974547563097019 28.296578262582564 2.9006007669270275 #
straight-curve $-1 61.974547563097019 0 8.3548924068904267 0 1 0 I I #
vertex $-1 $714 $869 #
point $-1 56.833886703663367 23.202082699163832 1.041061256170916 #
straight-curve $-1 -61.974547563097019 31.33036844776592 0 0 0 -1 I I #
point $-1 -61.974547563097019 -31.33036844776592 -8.3548924068904267 #
straight-curve $-1 -61.974547563097019 0 -8.3548924068904267 0 1 0 I I #
point $-1 -61.974547563097019 31.33036844776592 -8.3548924068904267 #
straight-curve $-1 -61.974547563097019 -18.107587135745099 48.925557748138147 0 0 -1 I I #
point $-1 -61.974547563097019 -18.107587135745099 8.3548924068904267 #
straight-curve $-1 -61.974547563097019 -11.601041349581916 2.9006007669270009 0 -1 0 I I #
point $-1 -61.974547563097019 -18.107587135745099 2.9006007669270035 #
point $-1 -54.720638622548314 -23.202082699163832 0.85617602781699398 #
straight-curve $-1 -61.974547563097019 -2.6395320029692115 48.925557748138147 0 0 -1 I I #
point $-1 -61.974547563097019 -2.6395320029692115 8.3548924068904267 #
straight-curve $-1 -61.974547563097019 -3.8670137831939719 2.9006007669270009 0 -1 0 I I #
point $-1 -61.974547563097019 -2.6395320029692115 2.9006007669270035 #
point $-1 -54.720638622548314 -7.7340275663879439 0.85617602781699398 #
straight-curve $-1 -61.974547563097019 12.828523129806676 48.925557748138147 0 0 -1 I I #
point $-1 -61.974547563097019 12.828523129806676 8.3548924068904267 #
straight-curve $-1 -61.974547563097019 3.8670137831939719 2.9006007669270009 0 -1 0 I I #
point $-1 -61.974547563097019 12.828523129806676 2.9006007669270035 #
point $-1 -54.720638622548314 7.7340275663879439 0.85617602781699398 #
straight-curve $-1 -61.974547563097019 28.296578262582564 48.925557748138147 0 0 -1 I I #
point $-1 -61.974547563097019 28.296578262582564 8.3548924068904267 #
straight-curve $-1 -61.974547563097019 11.601041349581916 2.9006007669270009 0 -1 0 I I #
point $-1 -61.974547563097019 28.296578262582564 2.9006007669270035 #
point $-1 -54.720638622548314 23.202082699163832 0.85617602781699398 #
straight-curve $-1 61.974547563097019 -28.296578262582564 88.76202952725636 0 0 -1 I I #
point $-1 61.974547563097019 -28.296578262582564 8.3548924068904267 #
straight-curve $-1 61.974547563097019 -11.601041349581916 2.9006007669270275 0 1 0 I I #
point $-1 61.974547563097019 -28.296578262582564 2.9006007669270275 #
point $-1 54.7206386225483 -23.202082699163832 0.85617602781698687 #
straight-curve $-1 61.974547563097019 -12.828523129806676 88.76202952725636 0 0 -1 I I #
point $-1 61.974547563097019 -12.828523129806676 8.3548924068904267 #
straight-curve $-1 61.974547563097019 -3.8670137831939719 2.9006007669270275 0 1 0 I I #
point $-1 61.974547563097019 -12.828523129806676 2.9006007669270275 #
point $-1 54.7206386225483 -7.7340275663879439 0.85617602781698687 #
straight-curve $-1 61.974547563097019 2.6395320029692115 88.76202952725636 0 0 -1 I I #
point $-1 61.974547563097019 2.6395320029692115 8.3548924068904267 #
straight-curve $-1 61.974547563097019 3.8670137831939719 2.9006007669270275 0 1 0 I I #
point $-1 61.974547563097019 2.6395320029692115 2.9006007669270275 #
point $-1 54.7206386225483 7.7340275663879439 0.85617602781698687 #
straight-curve $-1 61.974547563097019 18.107587135745099 88.76202952725636 0 0 -1 I I #
point $-1 61.974547563097019 18.107587135745099 8.3548924068904267 #
straight-curve $-1 61.974547563097019 11.601041349581916 2.9006007669270275 0 1 0 I I #
point $-1 61.974547563097019 18.107587135745099 2.9006007669270275 #
point $-1 54.7206386225483 23.202082699163832 0.85617602781698687 #
End-of-ACIS-data 