500 0 14 0           
7 Unknown 11 ACIS 5.0 NT 24 Fri Mar 26 02:21:22 1999 
-1 9.9999999999999995e-007 1e-010 
body $-1 $14 $-1 $15 #
body $-1 $16 $-1 $17 #
body $-1 $18 $-1 $19 #
body $-1 $20 $-1 $21 #
body $-1 $22 $-1 $23 #
body $-1 $24 $-1 $25 #
body $-1 $26 $-1 $27 #
body $-1 $28 $-1 $29 #
body $-1 $30 $-1 $31 #
body $-1 $32 $-1 $33 #
body $-1 $34 $-1 $35 #
body $-1 $36 $-1 $37 #
body $-1 $38 $-1 $39 #
body $-1 $40 $-1 $41 #
lump $-1 $-1 $42 $0 #
transform $-1 1 0 0 0 1 0 0 0 1 78.293404950102229 43.213696846387187 20.061062294660299 1 rotate no_reflect no_shear #
lump $-1 $-1 $43 $1 #
transform $-1 1 0 0 0 1 0 0 0 1 78.293404950102229 43.213696846387187 20.061062294660299 1 rotate no_reflect no_shear #
lump $-1 $-1 $44 $2 #
transform $-1 1 0 0 0 1 0 0 0 1 78.293404950102229 43.213696846387187 20.061062294660299 1 rotate no_reflect no_shear #
lump $-1 $-1 $45 $3 #
transform $-1 1 0 0 0 1 0 0 0 1 78.293404950102229 43.213696846387187 20.061062294660299 1 rotate no_reflect no_shear #
lump $-1 $-1 $46 $4 #
transform $-1 1 0 0 0 1 0 0 0 1 78.293404950102229 43.213696846387187 20.061062294660299 1 rotate no_reflect no_shear #
lump $-1 $-1 $47 $5 #
transform $-1 1 0 0 0 1 0 0 0 1 78.293404950102229 43.213696846387187 20.061062294660299 1 rotate no_reflect no_shear #
lump $-1 $-1 $48 $6 #
transform $-1 1 0 0 0 1 0 0 0 1 78.293404950102229 43.213696846387187 20.061062294660299 1 rotate no_reflect no_shear #
lump $-1 $-1 $49 $7 #
transform $-1 1 0 0 0 1 0 0 0 1 78.293404950102229 43.213696846387187 20.061062294660299 1 rotate no_reflect no_shear #
lump $-1 $-1 $50 $8 #
transform $-1 1 0 0 0 1 0 0 0 1 78.293404950102229 43.213696846387187 20.061062294660299 1 rotate no_reflect no_shear #
lump $-1 $-1 $51 $9 #
transform $-1 1 0 0 0 1 0 0 0 1 78.293404950102229 43.213696846387187 20.061062294660299 1 rotate no_reflect no_shear #
lump $-1 $-1 $52 $10 #
transform $-1 1 0 0 0 1 0 0 0 1 78.293404950102229 43.213696846387187 20.061062294660299 1 rotate no_reflect no_shear #
lump $-1 $-1 $53 $11 #
transform $-1 1 0 0 0 1 0 0 0 1 78.293404950102229 43.213696846387187 20.061062294660299 1 rotate no_reflect no_shear #
lump $-1 $-1 $54 $12 #
transform $-1 1 0 0 0 1 0 0 0 1 78.293404950102229 43.213696846387187 20.061062294660299 1 rotate no_reflect no_shear #
lump $-1 $-1 $55 $13 #
transform $-1 1 0 0 0 1 0 0 0 1 78.293404950102229 43.213696846387187 20.061062294660299 1 rotate no_reflect no_shear #
shell $-1 $-1 $-1 $56 $-1 $14 #
shell $-1 $-1 $-1 $57 $-1 $16 #
shell $-1 $-1 $-1 $58 $-1 $18 #
shell $-1 $-1 $-1 $59 $-1 $20 #
shell $-1 $-1 $-1 $60 $-1 $22 #
shell $-1 $-1 $-1 $61 $-1 $24 #
shell $-1 $-1 $-1 $62 $-1 $26 #
shell $-1 $-1 $-1 $63 $-1 $28 #
shell $-1 $-1 $-1 $64 $-1 $30 #
shell $-1 $-1 $-1 $65 $-1 $32 #
shell $-1 $-1 $-1 $66 $-1 $34 #
shell $-1 $-1 $-1 $67 $-1 $36 #
shell $-1 $-1 $-1 $68 $-1 $38 #
shell $-1 $-1 $-1 $69 $-1 $40 #
face $-1 $70 $71 $42 $-1 $72 forward single #
face $-1 $73 $74 $43 $-1 $75 reversed single #
face $-1 $76 $77 $44 $-1 $78 reversed single #
face $-1 $79 $80 $45 $-1 $81 forward single #
face $-1 $82 $83 $46 $-1 $84 forward single #
face $-1 $85 $86 $47 $-1 $87 reversed single #
face $-1 $88 $89 $48 $-1 $90 forward single #
face $-1 $91 $92 $49 $-1 $93 forward single #
face $-1 $94 $95 $50 $-1 $96 reversed single #
face $-1 $97 $98 $51 $-1 $99 forward single #
face $-1 $100 $101 $52 $-1 $102 forward single #
face $-1 $103 $104 $53 $-1 $105 reversed single #
face $-1 $106 $107 $54 $-1 $108 forward single #
face $-1 $109 $110 $55 $-1 $111 forward single #
face $-1 $112 $113 $42 $-1 $114 reversed single #
loop $-1 $-1 $115 $56 #
plane-surface $-1 0 0 20.061062294660299 0 0 1 1 0 0 forward_v I I I I #
face $-1 $116 $117 $43 $-1 $118 reversed single #
loop $-1 $-1 $119 $57 #
plane-surface $-1 -65.623656683724818 0 9.0382839577505152 0 0 1 1 0 0 forward_v I I I I #
face $-1 $120 $121 $44 $-1 $122 reversed single #
loop $-1 $-1 $123 $58 #
plane-surface $-1 -30.791028936189409 -173.030046884478 102.07873897266138 -1 0 0 0 -0.82903758062907751 0.55919289150049634 forward_v I I I I #
face $-1 $124 $125 $45 $-1 $126 forward single #
loop $-1 $127 $128 $59 #
cone-surface $-1 -46.621657137016555 -40.170597010339272 16.497468401268591 0 0.82903758062907751 -0.55919289150049634 1.5 0 0 1 I I 0 1 1.5 forward I I I I #
face $-1 $129 $130 $46 $-1 $131 forward single #
loop $-1 $132 $133 $60 #
cone-surface $-1 -37.123280216520271 -40.170597010339272 16.497468401268591 0 0.82903758062907751 -0.55919289150049634 1.5 0 0 1 I I 0 1 1.5 forward I I I I #
face $-1 $134 $135 $47 $-1 $136 reversed single #
loop $-1 $-1 $137 $61 #
plane-surface $-1 12.669748266377415 -173.030046884478 102.07873897266138 1 0 0 0 0.82903758062907751 -0.55919289150049634 forward_v I I I I #
face $-1 $138 $139 $48 $-1 $140 forward single #
loop $-1 $141 $142 $62 #
cone-surface $-1 19.001999546708262 -40.170597010339272 16.497468401268591 0 0.82903758062907751 -0.55919289150049634 1.5 0 0 1 I I 0 1 1.5 forward I I I I #
face $-1 $143 $144 $49 $-1 $145 forward single #
loop $-1 $146 $147 $63 #
cone-surface $-1 28.500376467204546 -40.170597010339272 16.497468401268591 0 0.82903758062907751 -0.55919289150049634 1.5 0 0 1 I I 0 1 1.5 forward I I I I #
face $-1 $148 $149 $50 $-1 $150 reversed single #
loop $-1 $-1 $151 $64 #
plane-surface $-1 -30.791028936189409 124.70046270056375 173.73029633979584 -1 0 0 0 0.82903758062907751 0.55919289150049634 forward_v I I I I #
face $-1 $152 $153 $51 $-1 $154 forward single #
loop $-1 $155 $156 $65 #
cone-surface $-1 -46.621657137016555 40.170597010339272 16.497468401268591 0 -0.82903758062907751 -0.55919289150049634 1.5 0 0 1 I I 0 1 1.5 forward I I I I #
face $-1 $157 $158 $52 $-1 $159 forward single #
loop $-1 $160 $161 $66 #
cone-surface $-1 -37.123280216520271 40.170597010339272 16.497468401268591 0 -0.82903758062907751 -0.55919289150049634 1.5 0 0 1 I I 0 1 1.5 forward I I I I #
face $-1 $162 $163 $53 $-1 $164 reversed single #
loop $-1 $-1 $165 $67 #
plane-surface $-1 12.669748266377415 124.70046270056375 173.73029633979584 1 0 0 0 -0.82903758062907751 -0.55919289150049634 forward_v I I I I #
face $-1 $166 $167 $54 $-1 $168 forward single #
loop $-1 $169 $170 $68 #
cone-surface $-1 19.001999546708262 40.170597010339272 16.497468401268591 0 -0.82903758062907751 -0.55919289150049634 1.5 0 0 1 I I 0 1 1.5 forward I I I I #
face $-1 $171 $172 $55 $-1 $173 forward single #
loop $-1 $174 $175 $69 #
cone-surface $-1 28.500376467204546 40.170597010339272 16.497468401268591 0 -0.82903758062907751 -0.55919289150049634 1.5 0 0 1 I I 0 1 1.5 forward I I I I #
face $-1 $176 $177 $42 $-1 $178 reversed single #
loop $-1 $-1 $179 $70 #
plane-surface $-1 0 0 -20.061062294660299 0 0 1 1 0 0 forward_v I I I I #
coedge $-1 $180 $181 $182 $183 forward $71 $-1 #
face $-1 $184 $185 $43 $-1 $186 reversed single #
loop $-1 $-1 $187 $73 #
plane-surface $-1 -52.953908417347407 0 14.549673126205409 -1 0 0 0 0 1 forward_v I I I I #
coedge $-1 $188 $189 $190 $191 forward $74 $-1 #
face $-1 $192 $193 $44 $-1 $194 forward single #
loop $-1 $-1 $195 $76 #
plane-surface $-1 -41.872468676768406 -43.213696846387222 14.516507973727514 0 -0.82903758062907751 0.55919289150049634 1 0 0 forward_v I I I I #
coedge $-1 $196 $197 $198 $199 reversed $77 $-1 #
face $-1 $-1 $200 $45 $-1 $201 forward single #
loop $-1 $202 $203 $79 #
cone-surface $-1 -46.621657137016555 -38.375643486362428 15.286756999717912 0 0.82903758062907751 -0.55919289150049634 0.75 0 0 1 I I -0.70710678118654835 0.70710678118654668 0.75 forward I I I I #
loop $-1 $-1 $204 $59 #
coedge $-1 $128 $128 $205 $206 reversed $80 $-1 #
face $-1 $-1 $207 $46 $-1 $208 forward single #
loop $-1 $209 $210 $82 #
cone-surface $-1 -37.123280216520271 -38.375643486362428 15.286756999717912 0 0.82903758062907751 -0.55919289150049634 0.75 0 0 1 I I -0.70710678118654835 0.70710678118654668 0.75 forward I I I I #
loop $-1 $-1 $211 $60 #
coedge $-1 $133 $133 $212 $213 reversed $83 $-1 #
face $-1 $214 $215 $47 $-1 $216 reversed single #
loop $-1 $-1 $217 $85 #
plane-surface $-1 23.751188006956411 -43.213696846387222 14.516507973727514 0 -0.82903758062907751 0.55919289150049634 1 0 0 forward_v I I I I #
coedge $-1 $218 $219 $220 $221 reversed $86 $-1 #
face $-1 $-1 $222 $48 $-1 $223 forward single #
loop $-1 $224 $225 $88 #
cone-surface $-1 19.001999546708262 -38.375643486362428 15.286756999717912 0 0.82903758062907751 -0.55919289150049634 0.75 0 0 1 I I -0.70710678118654835 0.70710678118654668 0.75 forward I I I I #
loop $-1 $-1 $226 $62 #
coedge $-1 $142 $142 $227 $228 reversed $89 $-1 #
face $-1 $-1 $229 $49 $-1 $230 forward single #
loop $-1 $231 $232 $91 #
cone-surface $-1 28.500376467204546 -38.375643486362428 15.286756999717912 0 0.82903758062907751 -0.55919289150049634 0.75 0 0 1 I I -0.70710678118654835 0.70710678118654668 0.75 forward I I I I #
loop $-1 $-1 $233 $63 #
coedge $-1 $147 $147 $234 $235 reversed $92 $-1 #
face $-1 $236 $237 $50 $-1 $238 forward single #
loop $-1 $-1 $239 $94 #
plane-surface $-1 -41.872468676768406 -5.1158873375270275 86.168065340861972 0 0.82903758062907751 0.55919289150049634 1 0 0 forward_v I I I I #
coedge $-1 $240 $241 $242 $243 reversed $95 $-1 #
face $-1 $-1 $244 $51 $-1 $245 forward single #
loop $-1 $246 $247 $97 #
cone-surface $-1 -46.621657137016555 38.375643486362428 15.286756999717912 0 -0.82903758062907751 -0.55919289150049634 0.75 0 0 1 I I -0.70710678118654835 0.70710678118654668 0.75 forward I I I I #
loop $-1 $-1 $248 $65 #
coedge $-1 $156 $156 $249 $250 reversed $98 $-1 #
face $-1 $-1 $251 $52 $-1 $252 forward single #
loop $-1 $253 $254 $100 #
cone-surface $-1 -37.123280216520271 38.375643486362428 15.286756999717912 0 -0.82903758062907751 -0.55919289150049634 0.75 0 0 1 I I -0.70710678118654835 0.70710678118654668 0.75 forward I I I I #
loop $-1 $-1 $255 $66 #
coedge $-1 $161 $161 $256 $257 reversed $101 $-1 #
face $-1 $258 $259 $53 $-1 $260 reversed single #
loop $-1 $-1 $261 $103 #
plane-surface $-1 23.751188006956411 -5.1158873375270275 86.168065340861972 0 0.82903758062907751 0.55919289150049634 1 0 0 forward_v I I I I #
coedge $-1 $262 $263 $264 $265 reversed $104 $-1 #
face $-1 $-1 $266 $54 $-1 $267 forward single #
loop $-1 $268 $269 $106 #
cone-surface $-1 19.001999546708262 38.375643486362428 15.286756999717912 0 -0.82903758062907751 -0.55919289150049634 0.75 0 0 1 I I -0.70710678118654835 0.70710678118654668 0.75 forward I I I I #
loop $-1 $-1 $270 $68 #
coedge $-1 $170 $170 $271 $272 reversed $107 $-1 #
face $-1 $-1 $273 $55 $-1 $274 forward single #
loop $-1 $275 $276 $109 #
cone-surface $-1 28.500376467204546 38.375643486362428 15.286756999717912 0 -0.82903758062907751 -0.55919289150049634 0.75 0 0 1 I I -0.70710678118654835 0.70710678118654668 0.75 forward I I I I #
loop $-1 $-1 $277 $69 #
coedge $-1 $175 $175 $278 $279 reversed $110 $-1 #
face $-1 $280 $281 $42 $-1 $282 reversed single #
loop $-1 $-1 $283 $112 #
plane-surface $-1 0 -43.213696846387187 0 0 1 0 0 0 1 forward_v I I I I #
coedge $-1 $284 $285 $286 $287 forward $113 $-1 #
coedge $-1 $288 $115 $289 $290 forward $71 $-1 #
coedge $-1 $115 $288 $291 $292 forward $71 $-1 #
coedge $-1 $293 $294 $115 $183 reversed $295 $-1 #
edge $-1 $296 -43.213696846387187 $297 43.213696846387187 $182 $298 forward 7 unknown #
face $-1 $299 $300 $43 $-1 $301 reversed single #
loop $-1 $-1 $302 $116 #
plane-surface $-1 0 43.213696846387187 0 0 -1 0 0 0 -1 forward_v I I I I #
coedge $-1 $190 $303 $304 $305 reversed $117 $-1 #
coedge $-1 $306 $119 $307 $308 reversed $74 $-1 #
coedge $-1 $119 $306 $309 $310 reversed $74 $-1 #
coedge $-1 $311 $187 $119 $191 reversed $117 $-1 #
edge $-1 $312 -43.213696846387187 $313 43.213696846387187 $190 $314 forward 7 unknown #
face $-1 $315 $316 $44 $-1 $317 reversed single #
loop $-1 $-1 $318 $120 #
plane-surface $-1 -52.953908417347407 0 14.549673126205409 -1 0 0 0 0 1 forward_v I I I I #
coedge $-1 $319 $320 $321 $322 reversed $121 $-1 #
coedge $-1 $197 $123 $323 $324 reversed $77 $-1 #
coedge $-1 $123 $196 $319 $325 reversed $77 $-1 #
coedge $-1 $321 $326 $123 $199 forward $327 $-1 #
edge $-1 $328 43.301326595851812 $329 47.041175590937527 $198 $330 forward 7 unknown #
loop $-1 $-1 $205 $124 #
plane-surface $-1 -41.872468676768406 -43.213696846387222 14.516507973727514 0 -0.82903758062907751 0.55919289150049634 1 0 0 forward_v I I I I #
loop $-1 $-1 $331 $79 #
coedge $-1 $203 $203 $204 $332 reversed $125 $-1 #
coedge $-1 $204 $204 $203 $332 forward $127 $-1 #
coedge $-1 $205 $205 $128 $206 forward $200 $-1 #
edge $-1 $333 1.4630156197163965e-015 $333 6.2831853071796022 $205 $334 forward 7 unknown #
loop $-1 $-1 $212 $129 #
plane-surface $-1 -41.872468676768406 -43.213696846387222 14.516507973727514 0 -0.82903758062907751 0.55919289150049634 1 0 0 forward_v I I I I #
loop $-1 $-1 $335 $82 #
coedge $-1 $210 $210 $211 $336 reversed $130 $-1 #
coedge $-1 $211 $211 $210 $336 forward $132 $-1 #
coedge $-1 $212 $212 $133 $213 forward $207 $-1 #
edge $-1 $337 1.4630156197163965e-015 $337 6.2831853071796022 $212 $338 forward 7 unknown #
face $-1 $339 $340 $47 $-1 $341 reversed single #
loop $-1 $-1 $342 $134 #
plane-surface $-1 34.832627747535412 -173.030046884478 102.07873897266138 -1 0 0 0 -0.82903758062907751 0.55919289150049634 forward_v I I I I #
coedge $-1 $343 $344 $345 $346 reversed $135 $-1 #
coedge $-1 $219 $137 $347 $348 reversed $86 $-1 #
coedge $-1 $137 $218 $343 $349 reversed $86 $-1 #
coedge $-1 $345 $350 $137 $221 forward $340 $-1 #
edge $-1 $351 30.978307191670392 $352 36.522861512603129 $220 $353 forward 7 unknown #
loop $-1 $-1 $227 $138 #
plane-surface $-1 23.751188006956411 -43.213696846387222 14.516507973727514 0 -0.82903758062907751 0.55919289150049634 1 0 0 forward_v I I I I #
loop $-1 $-1 $354 $88 #
coedge $-1 $225 $225 $226 $355 reversed $139 $-1 #
coedge $-1 $226 $226 $225 $355 forward $141 $-1 #
coedge $-1 $227 $227 $142 $228 forward $222 $-1 #
edge $-1 $356 1.4630156197163965e-015 $356 6.2831853071796022 $227 $357 forward 7 unknown #
loop $-1 $-1 $234 $143 #
plane-surface $-1 23.751188006956411 -43.213696846387222 14.516507973727514 0 -0.82903758062907751 0.55919289150049634 1 0 0 forward_v I I I I #
loop $-1 $-1 $358 $91 #
coedge $-1 $232 $232 $233 $359 reversed $144 $-1 #
coedge $-1 $233 $233 $232 $359 forward $146 $-1 #
coedge $-1 $234 $234 $147 $235 forward $229 $-1 #
edge $-1 $360 1.4630156197163965e-015 $360 6.2831853071796022 $234 $361 forward 7 unknown #
face $-1 $362 $363 $50 $-1 $364 forward single #
loop $-1 $-1 $365 $148 #
plane-surface $-1 0 0 20.061062294660299 0 0 1 1 0 0 forward_v I I I I #
coedge $-1 $366 $367 $368 $369 reversed $149 $-1 #
coedge $-1 $241 $151 $370 $371 reversed $95 $-1 #
coedge $-1 $151 $240 $366 $372 reversed $95 $-1 #
coedge $-1 $368 $373 $151 $243 forward $374 $-1 #
edge $-1 $375 66.804085875237618 $376 72.348640196170336 $242 $377 forward 7 unknown #
loop $-1 $-1 $249 $152 #
plane-surface $-1 -41.872468676768406 -5.1158873375270275 86.168065340861972 0 0.82903758062907751 0.55919289150049634 1 0 0 forward_v I I I I #
loop $-1 $-1 $378 $97 #
coedge $-1 $247 $247 $248 $379 reversed $153 $-1 #
coedge $-1 $248 $248 $247 $379 forward $155 $-1 #
coedge $-1 $249 $249 $156 $250 forward $244 $-1 #
edge $-1 $380 -2.1483298307184247e-015 $380 6.2831853071795987 $249 $381 forward 7 unknown #
loop $-1 $-1 $256 $157 #
plane-surface $-1 -41.872468676768406 -5.1158873375270275 86.168065340861972 0 0.82903758062907751 0.55919289150049634 1 0 0 forward_v I I I I #
loop $-1 $-1 $382 $100 #
coedge $-1 $254 $254 $255 $383 reversed $158 $-1 #
coedge $-1 $255 $255 $254 $383 forward $160 $-1 #
coedge $-1 $256 $256 $161 $257 forward $251 $-1 #
edge $-1 $384 -2.1483298307184247e-015 $384 6.2831853071795987 $256 $385 forward 7 unknown #
face $-1 $386 $387 $53 $-1 $388 forward single #
loop $-1 $-1 $389 $162 #
plane-surface $-1 34.832627747535412 124.70046270056375 173.73029633979584 -1 0 0 0 0.82903758062907751 0.55919289150049634 forward_v I I I I #
coedge $-1 $390 $391 $392 $393 reversed $163 $-1 #
coedge $-1 $263 $165 $394 $395 reversed $104 $-1 #
coedge $-1 $165 $262 $390 $396 reversed $104 $-1 #
coedge $-1 $392 $397 $165 $265 forward $387 $-1 #
edge $-1 $398 19.136534503894687 $399 22.876383498980395 $264 $400 forward 7 unknown #
loop $-1 $-1 $271 $166 #
plane-surface $-1 23.751188006956411 -5.1158873375270275 86.168065340861972 0 0.82903758062907751 0.55919289150049634 1 0 0 forward_v I I I I #
loop $-1 $-1 $401 $106 #
coedge $-1 $269 $269 $270 $402 reversed $167 $-1 #
coedge $-1 $270 $270 $269 $402 forward $169 $-1 #
coedge $-1 $271 $271 $170 $272 forward $266 $-1 #
edge $-1 $403 -2.1483298307184247e-015 $403 6.2831853071795987 $271 $404 forward 7 unknown #
loop $-1 $-1 $278 $171 #
plane-surface $-1 23.751188006956411 -5.1158873375270275 86.168065340861972 0 0.82903758062907751 0.55919289150049634 1 0 0 forward_v I I I I #
loop $-1 $-1 $405 $109 #
coedge $-1 $276 $276 $277 $406 reversed $172 $-1 #
coedge $-1 $277 $277 $276 $406 forward $174 $-1 #
coedge $-1 $278 $278 $175 $279 forward $273 $-1 #
edge $-1 $407 -2.1483298307184247e-015 $407 6.2831853071795987 $278 $408 forward 7 unknown #
face $-1 $409 $410 $42 $-1 $411 reversed single #
loop $-1 $-1 $412 $176 #
plane-surface $-1 -78.293404950102229 0 0 1 0 0 0 0 -1 forward_v I I I I #
coedge $-1 $413 $291 $414 $415 forward $177 $-1 #
coedge $-1 $416 $179 $413 $417 forward $113 $-1 #
coedge $-1 $179 $416 $418 $419 forward $113 $-1 #
coedge $-1 $294 $293 $179 $287 reversed $295 $-1 #
edge $-1 $420 -43.213696846387187 $421 43.213696846387187 $286 $422 forward 7 unknown #
coedge $-1 $181 $180 $423 $424 forward $71 $-1 #
coedge $-1 $425 $426 $180 $290 reversed $410 $-1 #
edge $-1 $297 -78.293404950102229 $427 78.293404950102229 $289 $428 forward 7 unknown #
coedge $-1 $283 $429 $181 $292 reversed $177 $-1 #
edge $-1 $430 -78.293404950102229 $296 78.293404950102229 $291 $431 forward 7 unknown #
coedge $-1 $286 $182 $429 $432 forward $295 $-1 #
coedge $-1 $182 $286 $425 $433 reversed $295 $-1 #
loop $-1 $-1 $293 $409 #
vertex $-1 $183 $434 #
vertex $-1 $183 $435 #
straight-curve $-1 78.293404950102229 0 20.061062294660299 0 1 0 I I #
face $-1 $436 $437 $43 $-1 $438 forward single #
loop $-1 $-1 $439 $184 #
plane-surface $-1 -78.293404950102229 0 0 1 0 0 0 0 -1 forward_v I I I I #
coedge $-1 $309 $440 $311 $441 forward $185 $-1 #
coedge $-1 $187 $311 $442 $443 reversed $117 $-1 #
coedge $-1 $444 $307 $187 $305 forward $445 $-1 #
edge $-1 $313 1.7634473946478106 $446 12.786225731557598 $304 $447 forward 7 unknown #
coedge $-1 $189 $188 $439 $448 reversed $74 $-1 #
coedge $-1 $304 $449 $188 $308 forward $445 $-1 #
edge $-1 $450 -45.48157660823982 $313 -20.142080075484998 $307 $451 forward 7 unknown #
coedge $-1 $452 $302 $189 $310 forward $185 $-1 #
edge $-1 $312 20.142080075484998 $453 45.48157660823982 $309 $454 forward 7 unknown #
coedge $-1 $303 $190 $302 $441 reversed $117 $-1 #
vertex $-1 $310 $455 #
vertex $-1 $308 $456 #
straight-curve $-1 -52.953908417347407 0 9.0382839577505152 0 -1 0 I I #
face $-1 $-1 $327 $44 $-1 $457 forward single #
loop $-1 $-1 $458 $192 #
plane-surface $-1 0 -43.213696846387187 0 0 1 0 0 0 1 forward_v I I I I #
coedge $-1 $459 $460 $320 $461 forward $193 $-1 #
coedge $-1 $462 $195 $197 $325 forward $121 $-1 #
coedge $-1 $195 $462 $318 $461 reversed $121 $-1 #
coedge $-1 $463 $198 $195 $322 forward $327 $-1 #
edge $-1 $329 9.8547945978052063 $464 32.017674078963203 $321 $465 forward 7 unknown #
coedge $-1 $466 $458 $196 $324 forward $316 $-1 #
edge $-1 $467 -36.522861512603129 $328 -30.978307191670392 $323 $468 forward 7 unknown #
edge $-1 $329 -6.6879408732298415 $467 -6.4046519641327133e-014 $197 $469 forward 7 unknown #
coedge $-1 $198 $463 $466 $470 forward $327 $-1 #
loop $-1 $-1 $321 $315 #
vertex $-1 $324 $471 #
vertex $-1 $199 $472 #
straight-curve $-1 -30.791028936189409 -86.515023442238999 20.061062294660296 0 1 0 I I #
coedge $-1 $331 $331 $-1 $473 reversed $202 $-1 #
edge $-1 $474 0 $474 6.2831853071796004 $203 $475 forward 7 unknown #
vertex $-1 $206 $476 #
ellipse-curve $-1 -46.621657137016555 -41.34377234884434 17.288785134193922 0 -0.82903758062907751 0.55919289150049634 1.5 0 0 1 I I #
coedge $-1 $335 $335 $-1 $477 reversed $209 $-1 #
edge $-1 $478 0 $478 6.2831853071796004 $210 $479 forward 7 unknown #
vertex $-1 $213 $480 #
ellipse-curve $-1 -37.123280216520271 -41.34377234884434 17.288785134193922 0 -0.82903758062907751 0.55919289150049634 1.5 0 0 1 I I #
face $-1 $-1 $481 $47 $-1 $482 forward single #
loop $-1 $-1 $220 $214 #
plane-surface $-1 0 -43.213696846387187 0 0 1 0 0 0 1 forward_v I I I I #
coedge $-1 $483 $484 $485 $486 reversed $215 $-1 #
coedge $-1 $487 $217 $219 $349 forward $135 $-1 #
coedge $-1 $217 $487 $483 $488 forward $135 $-1 #
coedge $-1 $485 $220 $217 $346 forward $340 $-1 #
edge $-1 $352 0.79415426289920887 $489 22.957033744057206 $345 $490 forward 7 unknown #
coedge $-1 $491 $492 $218 $348 forward $481 $-1 #
edge $-1 $493 -47.041175590937527 $351 -43.301326595851812 $347 $494 forward 7 unknown #
edge $-1 $352 6.4046519641327133e-014 $493 6.6879408732298415 $219 $495 forward 7 unknown #
coedge $-1 $220 $485 $491 $496 reversed $340 $-1 #
vertex $-1 $496 $497 #
vertex $-1 $221 $498 #
straight-curve $-1 12.669748266377415 -43.21369684638718 51.039369486330692 0 0 -1 I I #
coedge $-1 $354 $354 $-1 $499 reversed $224 $-1 #
edge $-1 $500 0 $500 6.2831853071796004 $225 $501 forward 7 unknown #
vertex $-1 $228 $502 #
ellipse-curve $-1 19.001999546708262 -41.34377234884434 17.288785134193922 0 -0.82903758062907751 0.55919289150049634 1.5 0 0 1 I I #
coedge $-1 $358 $358 $-1 $503 reversed $231 $-1 #
edge $-1 $504 0 $504 6.2831853071796004 $232 $505 forward 7 unknown #
vertex $-1 $235 $506 #
ellipse-curve $-1 28.500376467204546 -41.34377234884434 17.288785134193922 0 -0.82903758062907751 0.55919289150049634 1.5 0 0 1 I I #
face $-1 $-1 $374 $50 $-1 $507 reversed single #
loop $-1 $-1 $508 $236 #
plane-surface $-1 -52.953908417347407 0 14.549673126205409 -1 0 0 0 0 1 forward_v I I I I #
coedge $-1 $370 $509 $510 $511 forward $237 $-1 #
coedge $-1 $510 $239 $241 $372 forward $149 $-1 #
coedge $-1 $239 $510 $508 $512 reversed $149 $-1 #
coedge $-1 $513 $242 $239 $369 forward $374 $-1 #
edge $-1 $376 9.8547945978052063 $514 32.017674078963203 $368 $515 forward 7 unknown #
coedge $-1 $516 $365 $240 $371 forward $237 $-1 #
edge $-1 $517 -22.876383498980395 $375 -19.136534503894687 $370 $518 forward 7 unknown #
edge $-1 $376 -86.427393692774302 $517 -79.739452819544525 $241 $519 forward 7 unknown #
coedge $-1 $242 $513 $516 $520 reversed $374 $-1 #
loop $-1 $-1 $368 $362 #
vertex $-1 $520 $521 #
vertex $-1 $243 $522 #
straight-curve $-1 -30.791028936189409 43.213696846387187 86.865148169897921 0 0 -1 I I #
coedge $-1 $378 $378 $-1 $523 reversed $246 $-1 #
edge $-1 $524 0 $524 6.2831853071796004 $247 $525 forward 7 unknown #
vertex $-1 $250 $526 #
ellipse-curve $-1 -46.621657137016555 41.343772348844347 17.288785134193926 0 0.82903758062907751 0.55919289150049634 1.5 0 0 1 I I #
coedge $-1 $382 $382 $-1 $527 reversed $253 $-1 #
edge $-1 $528 0 $528 6.2831853071796004 $254 $529 forward 7 unknown #
vertex $-1 $257 $530 #
ellipse-curve $-1 -37.123280216520271 41.343772348844347 17.288785134193926 0 0.82903758062907751 0.55919289150049634 1.5 0 0 1 I I #
face $-1 $-1 $531 $53 $-1 $532 reversed single #
loop $-1 $-1 $264 $258 #
plane-surface $-1 0 0 20.061062294660299 0 0 1 1 0 0 forward_v I I I I #
coedge $-1 $533 $534 $535 $536 reversed $259 $-1 #
coedge $-1 $537 $261 $263 $396 forward $163 $-1 #
coedge $-1 $261 $537 $533 $538 forward $163 $-1 #
coedge $-1 $535 $264 $261 $393 forward $387 $-1 #
edge $-1 $399 0.79415426289920887 $539 22.957033744057206 $392 $540 forward 7 unknown #
coedge $-1 $541 $542 $262 $395 forward $531 $-1 #
edge $-1 $543 -72.348640196170336 $398 -66.804085875237618 $394 $544 forward 7 unknown #
edge $-1 $399 79.739452819544525 $543 86.427393692774302 $263 $545 forward 7 unknown #
coedge $-1 $264 $535 $541 $546 forward $387 $-1 #
vertex $-1 $265 $547 #
vertex $-1 $265 $548 #
straight-curve $-1 12.669748266377415 62.350231350281874 20.061062294660303 0 -1 0 I I #
coedge $-1 $401 $401 $-1 $549 reversed $268 $-1 #
edge $-1 $550 0 $550 6.2831853071796004 $269 $551 forward 7 unknown #
vertex $-1 $272 $552 #
ellipse-curve $-1 19.001999546708262 41.343772348844347 17.288785134193926 0 0.82903758062907751 0.55919289150049634 1.5 0 0 1 I I #
coedge $-1 $405 $405 $-1 $553 reversed $275 $-1 #
edge $-1 $554 0 $554 6.2831853071796004 $276 $555 forward 7 unknown #
vertex $-1 $279 $556 #
ellipse-curve $-1 28.500376467204546 41.343772348844347 17.288785134193926 0 0.82903758062907751 0.55919289150049634 1.5 0 0 1 I I #
face $-1 $-1 $295 $42 $-1 $557 reversed single #
loop $-1 $-1 $425 $280 #
plane-surface $-1 0 43.213696846387187 0 0 -1 0 0 0 -1 forward_v I I I I #
coedge $-1 $558 $423 $426 $559 forward $281 $-1 #
coedge $-1 $429 $283 $284 $417 reversed $177 $-1 #
coedge $-1 $423 $558 $283 $415 reversed $281 $-1 #
edge $-1 $430 -20.061062294660299 $560 20.061062294660299 $414 $561 forward 7 unknown #
coedge $-1 $285 $284 $558 $562 forward $113 $-1 #
edge $-1 $421 -78.293404950102229 $560 78.293404950102229 $413 $563 forward 7 unknown #
coedge $-1 $426 $425 $285 $419 reversed $410 $-1 #
edge $-1 $564 -78.293404950102229 $420 78.293404950102229 $418 $565 forward 7 unknown #
vertex $-1 $287 $566 #
vertex $-1 $432 $567 #
straight-curve $-1 78.293404950102229 0 -20.061062294660299 0 -1 0 I I #
coedge $-1 $412 $414 $288 $424 reversed $281 $-1 #
edge $-1 $427 -43.213696846387187 $430 43.213696846387187 $423 $568 forward 7 unknown #
coedge $-1 $418 $289 $294 $433 forward $410 $-1 #
coedge $-1 $289 $418 $412 $559 reversed $410 $-1 #
vertex $-1 $290 $569 #
straight-curve $-1 0 43.213696846387187 20.061062294660299 -1 0 0 I I #
coedge $-1 $291 $413 $293 $432 reversed $177 $-1 #
vertex $-1 $424 $570 #
straight-curve $-1 0 -43.213696846387187 20.061062294660299 1 0 0 I I #
edge $-1 $296 -20.061062294660299 $421 20.061062294660299 $293 $571 forward 7 unknown #
edge $-1 $297 -20.061062294660299 $420 20.061062294660299 $294 $572 forward 7 unknown #
point $-1 78.293404950102229 -43.213696846387187 20.061062294660299 #
point $-1 78.293404950102229 43.213696846387187 20.061062294660299 #
face $-1 $-1 $445 $43 $-1 $573 reversed single #
loop $-1 $-1 $442 $299 #
plane-surface $-1 0 0 20.061062294660299 0 0 1 1 0 0 forward_v I I I I #
coedge $-1 $574 $575 $306 $448 forward $300 $-1 #
coedge $-1 $302 $452 $576 $577 reversed $185 $-1 #
edge $-1 $578 -12.786225731557598 $312 -1.7634473946478106 $302 $579 forward 7 unknown #
coedge $-1 $576 $580 $303 $443 forward $437 $-1 #
edge $-1 $446 -43.213696846387187 $578 43.213696846387187 $442 $581 forward 7 unknown #
coedge $-1 $449 $304 $580 $582 reversed $445 $-1 #
loop $-1 $-1 $304 $436 #
vertex $-1 $305 $583 #
straight-curve $-1 -52.953908417347407 -43.213696846387187 7.2748365631027045 0 0 1 I I #
edge $-1 $453 -43.213696846387187 $450 43.213696846387187 $439 $584 forward 7 unknown #
coedge $-1 $307 $444 $574 $585 forward $445 $-1 #
vertex $-1 $448 $586 #
straight-curve $-1 -32.811828341862409 -43.213696846387187 9.0382839577505152 1 0 0 I I #
coedge $-1 $440 $309 $575 $587 reversed $185 $-1 #
vertex $-1 $448 $588 #
straight-curve $-1 -32.811828341862409 43.213696846387187 9.0382839577505152 -1 0 0 I I #
point $-1 -52.953908417347407 43.213696846387187 9.0382839577505152 #
point $-1 -52.953908417347407 -43.213696846387187 9.0382839577505152 #
plane-surface $-1 0 0 20.061062294660299 0 0 1 1 0 0 forward_v I I I I #
coedge $-1 $323 $589 $462 $590 forward $316 $-1 #
coedge $-1 $460 $318 $589 $591 reversed $193 $-1 #
coedge $-1 $318 $459 $463 $592 reversed $193 $-1 #
edge $-1 $464 5.408202751634466 $593 12.096143624864244 $318 $594 forward 7 unknown #
coedge $-1 $320 $319 $458 $590 reversed $121 $-1 #
coedge $-1 $326 $321 $460 $592 forward $327 $-1 #
vertex $-1 $592 $595 #
straight-curve $-1 -20.936234338384203 -39.473847851301471 20.061062294660299 -1 0 0 I I #
coedge $-1 $589 $323 $326 $470 reversed $316 $-1 #
vertex $-1 $324 $596 #
straight-curve $-1 -30.791028936189409 -43.21369684638718 51.039369486330692 0 0 1 I I #
straight-curve $-1 -30.791028936189409 -43.213696846387222 14.516507973727514 0 -0.55919289150049634 -0.82903758062907751 I I #
edge $-1 $597 -52.953908417347407 $328 -30.791028936189409 $466 $598 forward 7 unknown #
point $-1 -30.791028936189409 -43.213696846387187 20.061062294660299 #
point $-1 -30.791028936189409 -39.473847851301471 20.061062294660299 #
edge $-1 $599 1 $599 0 $331 $-1 forward 7 unknown #
vertex $-1 $332 $600 #
ellipse-curve $-1 -46.621657137016555 -38.997421671834232 15.706151668343283 0 -0.82903758062907751 0.55919289150049634 1.5 0 0 1 I I #
point $-1 -45.121657137016555 -41.343772348844304 17.288785134193901 #
edge $-1 $601 1 $601 0 $335 $-1 forward 7 unknown #
vertex $-1 $336 $602 #
ellipse-curve $-1 -37.123280216520271 -38.997421671834232 15.706151668343283 0 -0.82903758062907751 0.55919289150049634 1.5 0 0 1 I I #
point $-1 -35.623280216520271 -41.343772348844304 17.288785134193901 #
loop $-1 $-1 $347 $339 #
plane-surface $-1 0 0 20.061062294660299 0 0 1 1 0 0 forward_v I I I I #
coedge $-1 $484 $342 $344 $488 reversed $215 $-1 #
coedge $-1 $342 $483 $603 $604 reversed $215 $-1 #
coedge $-1 $350 $345 $342 $486 forward $340 $-1 #
edge $-1 $489 -36.522861512603129 $605 -30.978307191670392 $485 $606 forward 7 unknown #
coedge $-1 $344 $343 $492 $607 reversed $135 $-1 #
edge $-1 $608 -6.6879408732298415 $489 -6.4046519641327133e-014 $483 $609 forward 7 unknown #
vertex $-1 $346 $610 #
straight-curve $-1 11.875594003478206 -43.213696846387187 14.516507973727578 1 0 0 I I #
coedge $-1 $603 $347 $350 $496 forward $481 $-1 #
coedge $-1 $347 $603 $487 $607 forward $481 $-1 #
vertex $-1 $348 $611 #
straight-curve $-1 12.669748266377415 -86.515023442238999 20.061062294660296 0 -1 0 I I #
straight-curve $-1 12.669748266377415 -43.213696846387222 14.516507973727514 0 0.55919289150049634 0.82903758062907751 I I #
edge $-1 $351 12.669748266377415 $605 34.832627747535412 $350 $612 forward 7 unknown #
point $-1 12.669748266377415 -43.213696846387187 20.061062294660299 #
point $-1 12.669748266377415 -43.213696846387187 14.516507973727567 #
edge $-1 $613 1 $613 0 $354 $-1 forward 7 unknown #
vertex $-1 $355 $614 #
ellipse-curve $-1 19.001999546708262 -38.997421671834232 15.706151668343283 0 -0.82903758062907751 0.55919289150049634 1.5 0 0 1 I I #
point $-1 20.501999546708262 -41.343772348844304 17.288785134193901 #
edge $-1 $615 1 $615 0 $358 $-1 forward 7 unknown #
vertex $-1 $359 $616 #
ellipse-curve $-1 28.500376467204546 -38.997421671834232 15.706151668343283 0 -0.82903758062907751 0.55919289150049634 1.5 0 0 1 I I #
point $-1 30.000376467204546 -41.343772348844304 17.288785134193901 #
plane-surface $-1 0 43.213696846387187 0 0 -1 0 0 0 -1 forward_v I I I I #
coedge $-1 $617 $618 $367 $512 forward $363 $-1 #
coedge $-1 $365 $516 $617 $619 forward $237 $-1 #
coedge $-1 $367 $366 $365 $511 reversed $149 $-1 #
edge $-1 $620 -32.017674078963203 $517 -9.8547945978052063 $365 $621 forward 7 unknown #
edge $-1 $514 -55.30984047125142 $620 -48.621899598021656 $508 $622 forward 7 unknown #
coedge $-1 $373 $368 $618 $623 forward $374 $-1 #
vertex $-1 $623 $624 #
straight-curve $-1 -20.936234338384203 43.213696846387194 14.516507973727585 -1 0 0 I I #
coedge $-1 $509 $370 $373 $520 forward $237 $-1 #
vertex $-1 $371 $625 #
straight-curve $-1 -30.791028936189409 62.350231350281874 20.061062294660303 0 1 0 I I #
straight-curve $-1 -30.791028936189409 -5.1158873375270275 86.168065340861972 0 -0.55919289150049634 0.82903758062907751 I I #
edge $-1 $375 30.791028936189409 $626 52.953908417347407 $373 $627 forward 7 unknown #
point $-1 -30.791028936189409 43.213696846387187 20.061062294660299 #
point $-1 -30.791028936189409 43.213696846387187 14.516507973727585 #
edge $-1 $628 1 $628 0 $378 $-1 forward 7 unknown #
vertex $-1 $379 $629 #
ellipse-curve $-1 -46.621657137016555 38.997421671834232 15.706151668343283 0 0.82903758062907751 0.55919289150049634 1.5 0 0 1 I I #
point $-1 -45.121657137016555 41.343772348844304 17.288785134193901 #
edge $-1 $630 1 $630 0 $382 $-1 forward 7 unknown #
vertex $-1 $383 $631 #
ellipse-curve $-1 -37.123280216520271 38.997421671834232 15.706151668343283 0 0.82903758062907751 0.55919289150049634 1.5 0 0 1 I I #
point $-1 -35.623280216520271 41.343772348844304 17.288785134193901 #
loop $-1 $-1 $394 $386 #
plane-surface $-1 0 43.213696846387187 0 0 -1 0 0 0 -1 forward_v I I I I #
coedge $-1 $534 $389 $391 $538 reversed $259 $-1 #
coedge $-1 $389 $533 $632 $633 reversed $259 $-1 #
coedge $-1 $397 $392 $389 $536 forward $387 $-1 #
edge $-1 $539 -22.876383498980395 $634 -19.136534503894687 $535 $635 forward 7 unknown #
coedge $-1 $391 $390 $542 $636 reversed $163 $-1 #
edge $-1 $637 -86.427393692774302 $539 -79.739452819544525 $533 $638 forward 7 unknown #
vertex $-1 $393 $639 #
straight-curve $-1 11.875594003478206 39.473847851301485 20.061062294660296 1 0 0 I I #
coedge $-1 $632 $394 $397 $546 reversed $531 $-1 #
coedge $-1 $394 $632 $537 $636 forward $531 $-1 #
vertex $-1 $395 $640 #
straight-curve $-1 12.669748266377415 43.213696846387187 86.865148169897921 0 0 1 I I #
straight-curve $-1 12.669748266377415 -5.1158873375270275 86.168065340861972 0 0.55919289150049634 -0.82903758062907751 I I #
edge $-1 $634 -34.832627747535412 $398 -12.669748266377415 $541 $641 forward 7 unknown #
point $-1 12.669748266377415 43.213696846387187 20.061062294660299 #
point $-1 12.669748266377415 39.473847851301478 20.061062294660303 #
edge $-1 $642 1 $642 0 $401 $-1 forward 7 unknown #
vertex $-1 $402 $643 #
ellipse-curve $-1 19.001999546708262 38.997421671834232 15.706151668343283 0 0.82903758062907751 0.55919289150049634 1.5 0 0 1 I I #
point $-1 20.501999546708262 41.343772348844304 17.288785134193901 #
edge $-1 $644 1 $644 0 $405 $-1 forward 7 unknown #
vertex $-1 $406 $645 #
ellipse-curve $-1 28.500376467204546 38.997421671834232 15.706151668343283 0 0.82903758062907751 0.55919289150049634 1.5 0 0 1 I I #
point $-1 30.000376467204546 41.343772348844304 17.288785134193901 #
plane-surface $-1 78.293404950102229 0 0 -1 0 0 0 0 1 forward_v I I I I #
coedge $-1 $414 $412 $416 $562 reversed $281 $-1 #
edge $-1 $427 -20.061062294660299 $564 20.061062294660299 $426 $646 forward 7 unknown #
vertex $-1 $562 $647 #
straight-curve $-1 -78.293404950102229 -43.213696846387187 0 0 0 -1 I I #
edge $-1 $560 -43.213696846387187 $564 43.213696846387187 $558 $648 forward 7 unknown #
straight-curve $-1 0 -43.213696846387187 -20.061062294660299 -1 0 0 I I #
vertex $-1 $419 $649 #
straight-curve $-1 0 43.213696846387187 -20.061062294660299 1 0 0 I I #
point $-1 78.293404950102229 43.213696846387187 -20.061062294660299 #
point $-1 78.293404950102229 -43.213696846387187 -20.061062294660299 #
straight-curve $-1 -78.293404950102229 0 20.061062294660299 0 -1 0 I I #
point $-1 -78.293404950102229 43.213696846387187 20.061062294660299 #
point $-1 -78.293404950102229 -43.213696846387187 20.061062294660299 #
straight-curve $-1 78.293404950102229 -43.213696846387187 0 0 0 -1 I I #
straight-curve $-1 78.293404950102229 43.213696846387187 0 0 0 -1 I I #
plane-surface $-1 0 -43.213696846387187 0 0 1 0 0 0 1 forward_v I I I I #
coedge $-1 $650 $439 $449 $585 reversed $300 $-1 #
coedge $-1 $439 $650 $452 $587 forward $300 $-1 #
coedge $-1 $651 $442 $440 $577 forward $437 $-1 #
edge $-1 $578 52.953908417347407 $652 78.293404950102229 $440 $653 forward 7 unknown #
vertex $-1 $577 $654 #
straight-curve $-1 -52.953908417347407 43.213696846387187 7.2748365631027045 0 0 -1 I I #
coedge $-1 $442 $651 $444 $582 forward $437 $-1 #
straight-curve $-1 -52.953908417347407 0 20.061062294660299 0 1 0 I I #
edge $-1 $655 -78.293404950102229 $446 -52.953908417347407 $444 $656 forward 7 unknown #
point $-1 -52.953908417347407 -43.213696846387187 20.061062294660303 #
straight-curve $-1 -78.293404950102229 0 9.0382839577505152 0 -1 0 I I #
edge $-1 $655 -20.061062294660299 $450 -9.0382839577505152 $574 $657 forward 7 unknown #
point $-1 -78.293404950102229 -43.213696846387187 9.0382839577505152 #
edge $-1 $652 -20.061062294660299 $453 -9.0382839577505152 $452 $658 forward 7 unknown #
point $-1 -78.293404950102229 43.213696846387187 9.0382839577505152 #
coedge $-1 $458 $466 $459 $591 forward $316 $-1 #
edge $-1 $593 -32.017674078963203 $467 -9.8547945978052063 $458 $659 forward 7 unknown #
edge $-1 $597 -12.786225731557598 $593 -7.2416714106248623 $589 $660 forward 7 unknown #
edge $-1 $464 39.473847851301471 $597 43.213696846387187 $463 $661 forward 7 unknown #
vertex $-1 $461 $662 #
straight-curve $-1 -52.953908417347407 -36.449619316794056 24.544665619426858 0 -0.55919289150049634 -0.82903758062907751 I I #
point $-1 -52.953908417347407 -39.473847851301471 20.061062294660299 #
point $-1 -30.791028936189409 -43.213696846387187 14.516507973727567 #
vertex $-1 $470 $663 #
straight-curve $-1 0 -43.213696846387187 20.061062294660299 1 0 0 I I #
vertex $-1 $473 $664 #
point $-1 -45.121657137016555 -38.997421671834232 15.706151668343283 #
vertex $-1 $477 $665 #
point $-1 -35.623280216520271 -38.997421671834232 15.706151668343283 #
coedge $-1 $492 $491 $484 $604 forward $481 $-1 #
edge $-1 $605 43.301326595851812 $608 47.041175590937527 $603 $666 forward 7 unknown #
vertex $-1 $604 $667 #
straight-curve $-1 34.832627747535412 -43.21369684638718 51.039369486330692 0 0 1 I I #
edge $-1 $608 -22.957033744057206 $493 -0.79415426289920887 $492 $668 forward 7 unknown #
vertex $-1 $607 $669 #
straight-curve $-1 34.832627747535412 -43.213696846387222 14.516507973727514 0 -0.55919289150049634 -0.82903758062907751 I I #
point $-1 34.832627747535412 -43.213696846387187 14.516507973727567 #
point $-1 12.669748266377415 -39.473847851301471 20.061062294660299 #
straight-curve $-1 0 -43.213696846387187 20.061062294660299 1 0 0 I I #
vertex $-1 $499 $670 #
point $-1 20.501999546708262 -38.997421671834232 15.706151668343283 #
vertex $-1 $503 $671 #
point $-1 30.000376467204546 -38.997421671834232 15.706151668343283 #
coedge $-1 $618 $508 $509 $619 reversed $363 $-1 #
coedge $-1 $508 $617 $513 $623 reversed $363 $-1 #
edge $-1 $626 -43.213696846387187 $620 -39.473847851301478 $509 $672 forward 7 unknown #
vertex $-1 $512 $673 #
straight-curve $-1 -20.936234338384203 39.473847851301485 20.061062294660296 1 0 0 I I #
straight-curve $-1 -52.953908417347407 12.284827224836933 60.370444302994088 0 -0.55919289150049634 0.82903758062907751 I I #
edge $-1 $514 7.241671410624873 $626 12.786225731557598 $513 $674 forward 7 unknown #
point $-1 -52.953908417347407 43.213696846387187 14.516507973727578 #
point $-1 -30.791028936189409 39.473847851301478 20.061062294660303 #
vertex $-1 $619 $675 #
straight-curve $-1 0 43.213696846387187 20.061062294660299 -1 0 0 I I #
vertex $-1 $523 $676 #
point $-1 -45.121657137016555 38.997421671834232 15.706151668343283 #
vertex $-1 $527 $677 #
point $-1 -35.623280216520271 38.997421671834232 15.706151668343283 #
coedge $-1 $542 $541 $534 $633 forward $531 $-1 #
edge $-1 $634 66.804085875237618 $637 72.348640196170336 $632 $678 forward 7 unknown #
vertex $-1 $546 $679 #
straight-curve $-1 34.832627747535412 62.350231350281874 20.061062294660303 0 1 0 I I #
edge $-1 $637 -22.957033744057206 $543 -0.79415426289920887 $542 $680 forward 7 unknown #
vertex $-1 $636 $681 #
straight-curve $-1 34.832627747535412 -5.1158873375270275 86.168065340861972 0 -0.55919289150049634 0.82903758062907751 I I #
point $-1 34.832627747535412 39.473847851301478 20.061062294660303 #
point $-1 12.669748266377415 43.213696846387187 14.516507973727585 #
straight-curve $-1 0 43.213696846387187 20.061062294660299 -1 0 0 I I #
vertex $-1 $549 $682 #
point $-1 20.501999546708262 38.997421671834232 15.706151668343283 #
vertex $-1 $553 $683 #
point $-1 30.000376467204546 38.997421671834232 15.706151668343283 #
straight-curve $-1 -78.293404950102229 43.213696846387187 0 0 0 -1 I I #
point $-1 -78.293404950102229 -43.213696846387187 -20.061062294660299 #
straight-curve $-1 -78.293404950102229 0 -20.061062294660299 0 1 0 I I #
point $-1 -78.293404950102229 43.213696846387187 -20.061062294660299 #
coedge $-1 $575 $574 $651 $684 reversed $300 $-1 #
coedge $-1 $580 $576 $650 $684 forward $437 $-1 #
vertex $-1 $577 $685 #
straight-curve $-1 0 43.213696846387187 20.061062294660299 -1 0 0 I I #
point $-1 -52.953908417347407 43.213696846387187 20.061062294660303 #
vertex $-1 $684 $686 #
straight-curve $-1 0 -43.213696846387187 20.061062294660299 1 0 0 I I #
straight-curve $-1 -78.293404950102229 -43.213696846387187 0 0 0 -1 I I #
straight-curve $-1 -78.293404950102229 43.213696846387187 0 0 0 -1 I I #
straight-curve $-1 -20.936234338384203 -43.213696846387187 14.516507973727578 1 0 0 I I #
straight-curve $-1 -52.953908417347407 -43.213696846387187 7.2748365631027045 0 0 -1 I I #
straight-curve $-1 -52.953908417347407 0 20.061062294660299 0 -1 0 I I #
point $-1 -52.953908417347407 -43.213696846387187 14.516507973727567 #
point $-1 -52.953908417347407 -43.213696846387187 20.061062294660303 #
point $-1 -46.621657137016555 -37.753865300890624 14.867362331092542 #
point $-1 -37.123280216520271 -37.753865300890624 14.867362331092542 #
straight-curve $-1 34.832627747535412 -86.515023442238999 20.061062294660296 0 1 0 I I #
point $-1 34.832627747535412 -43.213696846387187 20.061062294660299 #
straight-curve $-1 11.875594003478206 -39.473847851301471 20.061062294660299 -1 0 0 I I #
point $-1 34.832627747535412 -39.473847851301471 20.061062294660299 #
point $-1 19.001999546708262 -37.753865300890624 14.867362331092542 #
point $-1 28.500376467204546 -37.753865300890624 14.867362331092542 #
straight-curve $-1 -52.953908417347407 0 20.061062294660299 0 -1 0 I I #
point $-1 -52.953908417347407 39.473847851301478 20.061062294660299 #
straight-curve $-1 -52.953908417347407 43.213696846387187 7.2748365631027045 0 0 1 I I #
point $-1 -52.953908417347407 43.213696846387187 20.061062294660303 #
point $-1 -46.621657137016555 37.753865300890624 14.867362331092542 #
point $-1 -37.123280216520271 37.753865300890624 14.867362331092542 #
straight-curve $-1 34.832627747535412 43.213696846387187 86.865148169897921 0 0 -1 I I #
point $-1 34.832627747535412 43.213696846387187 20.061062294660299 #
straight-curve $-1 11.875594003478206 43.213696846387194 14.516507973727585 -1 0 0 I I #
point $-1 34.832627747535412 43.213696846387187 14.516507973727585 #
point $-1 19.001999546708262 37.753865300890624 14.867362331092542 #
point $-1 28.500376467204546 37.753865300890624 14.867362331092542 #
edge $-1 $652 -43.213696846387187 $655 43.213696846387187 $650 $687 forward 7 unknown #
point $-1 -78.293404950102229 43.213696846387187 20.061062294660299 #
point $-1 -78.293404950102229 -43.213696846387187 20.061062294660299 #
straight-curve $-1 -78.293404950102229 0 20.061062294660299 0 -1 0 I I #
End-of-ACIS-data 