500 0 12 0           
7 Unknown 11 ACIS 5.0 NT 24 Thu Mar 25 21:52:36 1999 
-1 9.9999999999999995e-007 1e-010 
body $-1 $12 $-1 $13 #
body $-1 $14 $-1 $15 #
body $-1 $16 $-1 $17 #
body $-1 $18 $-1 $19 #
body $-1 $20 $-1 $21 #
body $-1 $22 $-1 $23 #
body $-1 $24 $-1 $25 #
body $-1 $26 $-1 $27 #
body $-1 $28 $-1 $29 #
body $-1 $30 $-1 $31 #
body $-1 $32 $-1 $33 #
body $-1 $34 $-1 $35 #
lump $-1 $-1 $36 $0 #
transform $-1 1 0 0 0 1 0 0 0 1 50.53010650959807 27.254212603739447 10.532966744207723 1 rotate no_reflect no_shear #
lump $-1 $-1 $37 $1 #
transform $-1 1 0 0 0 1 0 0 0 1 50.53010650959807 27.254212603739447 10.532966744207723 1 rotate no_reflect no_shear #
lump $-1 $-1 $38 $2 #
transform $-1 1 0 0 0 1 0 0 0 1 50.53010650959807 27.254212603739447 10.532966744207723 1 rotate no_reflect no_shear #
lump $-1 $-1 $39 $3 #
transform $-1 1 0 0 0 1 0 0 0 1 50.53010650959807 27.254212603739447 10.532966744207723 1 rotate no_reflect no_shear #
lump $-1 $-1 $40 $4 #
transform $-1 1 0 0 0 1 0 0 0 1 50.53010650959807 27.254212603739447 10.532966744207723 1 rotate no_reflect no_shear #
lump $-1 $-1 $41 $5 #
transform $-1 1 0 0 0 1 0 0 0 1 50.53010650959807 27.254212603739447 10.532966744207723 1 rotate no_reflect no_shear #
lump $-1 $-1 $42 $6 #
transform $-1 1 0 0 0 1 0 0 0 1 50.53010650959807 27.254212603739447 10.532966744207723 1 rotate no_reflect no_shear #
lump $-1 $-1 $43 $7 #
transform $-1 1 0 0 0 1 0 0 0 1 50.53010650959807 27.254212603739447 10.532966744207723 1 rotate no_reflect no_shear #
lump $-1 $-1 $44 $8 #
transform $-1 1 0 0 0 1 0 0 0 1 50.53010650959807 27.254212603739447 10.532966744207723 1 rotate no_reflect no_shear #
lump $-1 $-1 $45 $9 #
transform $-1 1 0 0 0 1 0 0 0 1 50.53010650959807 27.254212603739447 10.532966744207723 1 rotate no_reflect no_shear #
lump $-1 $-1 $46 $10 #
transform $-1 1 0 0 0 1 0 0 0 1 50.53010650959807 27.254212603739447 10.532966744207723 1 rotate no_reflect no_shear #
lump $-1 $-1 $47 $11 #
transform $-1 1 0 0 0 1 0 0 0 1 50.53010650959807 27.254212603739447 10.532966744207723 1 rotate no_reflect no_shear #
shell $-1 $-1 $-1 $48 $-1 $12 #
shell $-1 $-1 $-1 $49 $-1 $14 #
shell $-1 $-1 $-1 $50 $-1 $16 #
shell $-1 $-1 $-1 $51 $-1 $18 #
shell $-1 $-1 $-1 $52 $-1 $20 #
shell $-1 $-1 $-1 $53 $-1 $22 #
shell $-1 $-1 $-1 $54 $-1 $24 #
shell $-1 $-1 $-1 $55 $-1 $26 #
shell $-1 $-1 $-1 $56 $-1 $28 #
shell $-1 $-1 $-1 $57 $-1 $30 #
shell $-1 $-1 $-1 $58 $-1 $32 #
shell $-1 $-1 $-1 $59 $-1 $34 #
face $-1 $60 $61 $36 $-1 $62 reversed single #
face $-1 $63 $64 $37 $-1 $65 forward single #
face $-1 $66 $67 $38 $-1 $68 reversed single #
face $-1 $69 $70 $39 $-1 $71 forward single #
face $-1 $72 $73 $40 $-1 $74 forward single #
face $-1 $75 $76 $41 $-1 $77 forward single #
face $-1 $78 $79 $42 $-1 $80 reversed single #
face $-1 $81 $82 $43 $-1 $83 forward single #
face $-1 $84 $85 $44 $-1 $86 forward single #
face $-1 $87 $88 $45 $-1 $89 forward single #
face $-1 $90 $91 $46 $-1 $92 reversed single #
face $-1 $93 $94 $47 $-1 $95 forward single #
face $-1 $96 $97 $36 $-1 $98 forward single #
loop $-1 $-1 $99 $48 #
plane-surface $-1 -50.53010650959807 0 0 1 0 0 0 0 -1 forward_v I I I I #
face $-1 $100 $101 $37 $-1 $102 reversed single #
loop $-1 $-1 $103 $49 #
plane-surface $-1 -50.53010650959807 0 0 1 0 0 0 0 -1 forward_v I I I I #
face $-1 $104 $105 $38 $-1 $106 reversed single #
loop $-1 $-1 $107 $50 #
plane-surface $-1 5.3408477181411911 -99.950846891776209 75.06827784443503 -1 0 0 0 -0.71933980857756763 0.69465836192734942 forward_v I I I I #
face $-1 $108 $109 $39 $-1 $110 forward single #
loop $-1 $111 $112 $51 #
cone-surface $-1 -9.3614452895574161 -23.651578976777714 6.862837532937335 0 0.71933980857756763 -0.69465836192734942 1.5 0 0 1 I I 0 1 1.5 forward I I I I #
face $-1 $113 $114 $40 $-1 $115 forward single #
loop $-1 $116 $117 $52 #
cone-surface $-1 -3.8480854116704393 -23.651578976777714 6.862837532937335 0 0.71933980857756763 -0.69465836192734942 1.5 0 0 1 I I 0 1 1.5 forward I I I I #
face $-1 $118 $119 $41 $-1 $120 forward single #
loop $-1 $121 $122 $53 #
cone-surface $-1 1.6652744662165375 -23.651578976777714 6.862837532937335 0 0.71933980857756763 -0.69465836192734942 1.5 0 0 1 I I 0 1 1.5 forward I I I I #
face $-1 $123 $124 $42 $-1 $125 reversed single #
loop $-1 $-1 $126 $54 #
plane-surface $-1 41.34117337978644 -27.254212603739447 4.8659558124912508 0 -0.71933980857756763 0.69465836192734942 1 0 0 forward_v I I I I #
face $-1 $127 $128 $43 $-1 $129 forward single #
loop $-1 $130 $131 $55 #
cone-surface $-1 35.82781350189947 -23.651578976777714 6.862837532937335 0 0.71933980857756763 -0.69465836192734942 1.5 0 0 1 I I 0 1 1.5 forward I I I I #
face $-1 $132 $133 $44 $-1 $134 forward single #
loop $-1 $135 $136 $56 #
cone-surface $-1 41.34117337978644 -23.651578976777714 6.862837532937335 0 0.71933980857756763 -0.69465836192734942 1.5 0 0 1 I I 0 1 1.5 forward I I I I #
face $-1 $137 $138 $45 $-1 $139 forward single #
loop $-1 $140 $141 $57 #
cone-surface $-1 46.854533257673424 -23.651578976777714 6.862837532937335 0 0.71933980857756763 -0.69465836192734942 1.5 0 0 1 I I 0 1 1.5 forward I I I I #
face $-1 $142 $143 $46 $-1 $144 reversed single #
loop $-1 $-1 $145 $58 #
plane-surface $-1 22.045846126835173 75.160499621585316 108.53646502930334 1 0 0 0 -0.79863551827123203 -0.60181501223851219 forward_v I I I I #
face $-1 $146 $147 $47 $-1 $148 forward single #
loop $-1 $149 $150 $59 #
cone-surface $-1 28.997519969118471 23.953642456949268 6.6740539975130577 0 -0.79863551827123203 -0.60181501223851219 1 0 0 1 I I 0 1 1 forward I I I I #
face $-1 $151 $152 $36 $-1 $153 reversed single #
loop $-1 $-1 $154 $60 #
plane-surface $-1 0 0 10.532966744207723 0 0 1 1 0 0 forward_v I I I I #
coedge $-1 $155 $156 $157 $158 reversed $61 $-1 #
face $-1 $159 $160 $37 $-1 $161 reversed single #
loop $-1 $-1 $162 $63 #
plane-surface $-1 0 0 -10.532966744207723 0 0 1 1 0 0 forward_v I I I I #
coedge $-1 $163 $164 $165 $166 forward $64 $-1 #
face $-1 $167 $168 $38 $-1 $169 reversed single #
loop $-1 $-1 $170 $66 #
plane-surface $-1 -3.8480854116704393 -27.254212603739447 4.8659558124912508 0 -0.71933980857756763 0.69465836192734942 1 0 0 forward_v I I I I #
coedge $-1 $171 $172 $173 $174 reversed $67 $-1 #
face $-1 $-1 $175 $39 $-1 $176 forward single #
loop $-1 $177 $178 $69 #
cone-surface $-1 -9.3614452895574161 -22.245724850170252 5.5052200160796723 0 0.71933980857756763 -0.69465836192734942 0.75 0 0 1 I I -0.70710678118654757 0.70710678118654757 0.75 forward I I I I #
loop $-1 $-1 $179 $51 #
coedge $-1 $112 $112 $180 $181 reversed $70 $-1 #
face $-1 $-1 $182 $40 $-1 $183 forward single #
loop $-1 $184 $185 $72 #
cone-surface $-1 -3.8480854116704393 -22.245724850170252 5.5052200160796723 0 0.71933980857756763 -0.69465836192734942 0.75 0 0 1 I I -0.70710678118654757 0.70710678118654757 0.75 forward I I I I #
loop $-1 $-1 $186 $52 #
coedge $-1 $117 $117 $187 $188 reversed $73 $-1 #
face $-1 $-1 $189 $41 $-1 $190 forward single #
loop $-1 $191 $192 $75 #
cone-surface $-1 1.6652744662165375 -22.245724850170252 5.5052200160796723 0 0.71933980857756763 -0.69465836192734942 0.75 0 0 1 I I -0.70710678118654757 0.70710678118654757 0.75 forward I I I I #
loop $-1 $-1 $193 $53 #
coedge $-1 $122 $122 $194 $195 reversed $76 $-1 #
face $-1 $196 $197 $42 $-1 $198 reversed single #
loop $-1 $-1 $199 $78 #
plane-surface $-1 32.15224024997481 -99.950846891776209 75.06827784443503 1 0 0 0 0.71933980857756763 -0.69465836192734942 forward_v I I I I #
coedge $-1 $200 $201 $202 $203 reversed $79 $-1 #
face $-1 $-1 $204 $43 $-1 $205 forward single #
loop $-1 $206 $207 $81 #
cone-surface $-1 35.82781350189947 -22.245724850170252 5.5052200160796723 0 0.71933980857756763 -0.69465836192734942 0.75 0 0 1 I I -0.70710678118654757 0.70710678118654757 0.75 forward I I I I #
loop $-1 $-1 $208 $55 #
coedge $-1 $131 $131 $209 $210 reversed $82 $-1 #
face $-1 $-1 $211 $44 $-1 $212 forward single #
loop $-1 $213 $214 $84 #
cone-surface $-1 41.34117337978644 -22.245724850170252 5.5052200160796723 0 0.71933980857756763 -0.69465836192734942 0.75 0 0 1 I I -0.70710678118654757 0.70710678118654757 0.75 forward I I I I #
loop $-1 $-1 $215 $56 #
coedge $-1 $136 $136 $216 $217 reversed $85 $-1 #
face $-1 $-1 $218 $45 $-1 $219 forward single #
loop $-1 $220 $221 $87 #
cone-surface $-1 46.854533257673424 -22.245724850170252 5.5052200160796723 0 0.71933980857756763 -0.69465836192734942 0.75 0 0 1 I I -0.70710678118654757 0.70710678118654757 0.75 forward I I I I #
loop $-1 $-1 $222 $57 #
coedge $-1 $141 $141 $223 $224 reversed $88 $-1 #
face $-1 $225 $226 $46 $-1 $227 reversed single #
loop $-1 $-1 $228 $90 #
plane-surface $-1 28.997519969118471 -5.549775979601506 47.71691169432917 0 0.79863551827123203 0.60181501223851219 1 0 0 forward_v I I I I #
coedge $-1 $229 $230 $231 $232 reversed $91 $-1 #
face $-1 $-1 $233 $47 $-1 $234 forward single #
loop $-1 $235 $236 $93 #
cone-surface $-1 28.997519969118471 22.645693083044172 5.6884434775001971 0 -0.79863551827123203 -0.60181501223851219 0.5 0 0 1 I I -0.70710678118654746 0.70710678118654746 0.5 forward I I I I #
loop $-1 $-1 $237 $59 #
coedge $-1 $150 $150 $238 $239 reversed $94 $-1 #
face $-1 $240 $241 $36 $-1 $242 reversed single #
loop $-1 $-1 $243 $96 #
plane-surface $-1 0 0 -10.532966744207723 0 0 1 1 0 0 forward_v I I I I #
coedge $-1 $244 $245 $246 $247 forward $97 $-1 #
coedge $-1 $248 $99 $249 $250 reversed $61 $-1 #
coedge $-1 $99 $248 $251 $252 forward $61 $-1 #
coedge $-1 $253 $254 $99 $158 forward $152 $-1 #
edge $-1 $255 -27.254212603739447 $256 27.254212603739447 $99 $257 forward 7 unknown #
face $-1 $258 $259 $37 $-1 $260 reversed single #
loop $-1 $-1 $261 $100 #
plane-surface $-1 -55.870954227739254 -25.390548792902027 0 0 1 0 0 0 1 forward_v I I I I #
coedge $-1 $262 $263 $164 $264 forward $101 $-1 #
coedge $-1 $265 $103 $266 $267 reversed $64 $-1 #
coedge $-1 $103 $265 $162 $264 reversed $64 $-1 #
coedge $-1 $268 $269 $103 $166 reversed $270 $-1 #
edge $-1 $271 -10.532966744207723 $272 10.532966744207723 $165 $273 forward 7 unknown #
face $-1 $274 $275 $38 $-1 $276 forward single #
loop $-1 $-1 $277 $104 #
plane-surface $-1 -13.03701854148207 -99.950846891776209 75.06827784443503 1 0 0 0 0.71933980857756763 -0.69465836192734942 forward_v I I I I #
coedge $-1 $278 $279 $280 $281 reversed $105 $-1 #
coedge $-1 $172 $107 $282 $283 reversed $67 $-1 #
coedge $-1 $107 $171 $278 $284 reversed $67 $-1 #
coedge $-1 $280 $285 $107 $174 forward $275 $-1 #
edge $-1 $286 22.721210842148658 $287 28.193779555723548 $173 $288 forward 7 unknown #
loop $-1 $-1 $180 $108 #
plane-surface $-1 -3.8480854116704393 -27.254212603739447 4.8659558124912508 0 -0.71933980857756763 0.69465836192734942 1 0 0 forward_v I I I I #
loop $-1 $-1 $289 $69 #
coedge $-1 $178 $178 $179 $290 reversed $109 $-1 #
coedge $-1 $179 $179 $178 $290 forward $111 $-1 #
coedge $-1 $180 $180 $112 $181 forward $175 $-1 #
edge $-1 $291 3.6747732085533313e-016 $291 6.2831853071796004 $180 $292 forward 7 unknown #
loop $-1 $-1 $187 $113 #
plane-surface $-1 -3.8480854116704393 -27.254212603739447 4.8659558124912508 0 -0.71933980857756763 0.69465836192734942 1 0 0 forward_v I I I I #
loop $-1 $-1 $293 $72 #
coedge $-1 $185 $185 $186 $294 reversed $114 $-1 #
coedge $-1 $186 $186 $185 $294 forward $116 $-1 #
coedge $-1 $187 $187 $117 $188 forward $182 $-1 #
edge $-1 $295 3.6747732085533313e-016 $295 6.2831853071796004 $187 $296 forward 7 unknown #
loop $-1 $-1 $194 $118 #
plane-surface $-1 -3.8480854116704393 -27.254212603739447 4.8659558124912508 0 -0.71933980857756763 0.69465836192734942 1 0 0 forward_v I I I I #
loop $-1 $-1 $297 $75 #
coedge $-1 $192 $192 $193 $298 reversed $119 $-1 #
coedge $-1 $193 $193 $192 $298 forward $121 $-1 #
coedge $-1 $194 $194 $122 $195 forward $189 $-1 #
edge $-1 $299 3.6747732085533313e-016 $299 6.2831853071796004 $194 $300 forward 7 unknown #
face $-1 $301 $302 $42 $-1 $303 forward single #
loop $-1 $-1 $304 $123 #
plane-surface $-1 0 -27.254212603739447 0 0 1 0 0 0 1 forward_v I I I I #
coedge $-1 $305 $306 $307 $308 reversed $124 $-1 #
coedge $-1 $309 $126 $310 $311 reversed $79 $-1 #
coedge $-1 $126 $309 $305 $312 forward $79 $-1 #
coedge $-1 $307 $313 $126 $203 forward $302 $-1 #
edge $-1 $314 -29.85951981970485 $315 -11.48165356008159 $202 $316 forward 7 unknown #
loop $-1 $-1 $209 $127 #
plane-surface $-1 41.34117337978644 -27.254212603739447 4.8659558124912508 0 -0.71933980857756763 0.69465836192734942 1 0 0 forward_v I I I I #
loop $-1 $-1 $317 $81 #
coedge $-1 $207 $207 $208 $318 reversed $128 $-1 #
coedge $-1 $208 $208 $207 $318 forward $130 $-1 #
coedge $-1 $209 $209 $131 $210 forward $204 $-1 #
edge $-1 $319 3.6747732085533313e-016 $319 6.2831853071796004 $209 $320 forward 7 unknown #
loop $-1 $-1 $216 $132 #
plane-surface $-1 41.34117337978644 -27.254212603739447 4.8659558124912508 0 -0.71933980857756763 0.69465836192734942 1 0 0 forward_v I I I I #
loop $-1 $-1 $321 $84 #
coedge $-1 $214 $214 $215 $322 reversed $133 $-1 #
coedge $-1 $215 $215 $214 $322 forward $135 $-1 #
coedge $-1 $216 $216 $136 $217 forward $211 $-1 #
edge $-1 $323 3.6747732085533313e-016 $323 6.2831853071796004 $216 $324 forward 7 unknown #
loop $-1 $-1 $223 $137 #
plane-surface $-1 41.34117337978644 -27.254212603739447 4.8659558124912508 0 -0.71933980857756763 0.69465836192734942 1 0 0 forward_v I I I I #
loop $-1 $-1 $325 $87 #
coedge $-1 $221 $221 $222 $326 reversed $138 $-1 #
coedge $-1 $222 $222 $221 $326 forward $140 $-1 #
coedge $-1 $223 $223 $141 $224 forward $218 $-1 #
edge $-1 $327 3.6747732085533313e-016 $327 6.2831853071796004 $223 $328 forward 7 unknown #
face $-1 $329 $330 $46 $-1 $331 forward single #
loop $-1 $-1 $332 $142 #
plane-surface $-1 35.94919381140177 75.160499621585316 108.53646502930334 -1 0 0 0 0.79863551827123203 0.60181501223851219 forward_v I I I I #
coedge $-1 $333 $334 $335 $336 reversed $143 $-1 #
coedge $-1 $230 $145 $337 $338 reversed $91 $-1 #
coedge $-1 $145 $229 $333 $339 reversed $91 $-1 #
coedge $-1 $335 $340 $145 $232 forward $330 $-1 #
edge $-1 $341 10.326037207053211 $342 15.109914271094631 $231 $343 forward 7 unknown #
loop $-1 $-1 $238 $146 #
plane-surface $-1 28.997519969118471 -5.549775979601506 47.71691169432917 0 0.79863551827123203 0.60181501223851219 1 0 0 forward_v I I I I #
loop $-1 $-1 $344 $93 #
coedge $-1 $236 $236 $237 $345 reversed $147 $-1 #
coedge $-1 $237 $237 $236 $345 forward $149 $-1 #
coedge $-1 $238 $238 $150 $239 forward $233 $-1 #
edge $-1 $346 7.5975047495279938e-016 $346 6.2831853071796013 $238 $347 forward 7 unknown #
face $-1 $348 $349 $36 $-1 $350 reversed single #
loop $-1 $-1 $249 $151 #
plane-surface $-1 0 -27.254212603739447 0 0 1 0 0 0 1 forward_v I I I I #
coedge $-1 $254 $253 $351 $352 forward $152 $-1 #
coedge $-1 $353 $154 $354 $355 forward $97 $-1 #
coedge $-1 $154 $353 $356 $357 forward $97 $-1 #
coedge $-1 $358 $359 $154 $247 reversed $360 $-1 #
edge $-1 $361 -27.254212603739447 $362 27.254212603739447 $246 $363 forward 7 unknown #
coedge $-1 $156 $155 $353 $364 reversed $61 $-1 #
coedge $-1 $365 $356 $155 $250 forward $241 $-1 #
edge $-1 $366 -10.532966744207723 $255 10.532966744207723 $155 $367 forward 7 unknown #
coedge $-1 $354 $368 $156 $252 reversed $349 $-1 #
edge $-1 $369 -10.532966744207723 $256 10.532966744207723 $251 $370 forward 7 unknown #
coedge $-1 $243 $157 $368 $371 forward $152 $-1 #
coedge $-1 $157 $243 $365 $372 forward $152 $-1 #
vertex $-1 $158 $373 #
vertex $-1 $371 $374 #
straight-curve $-1 -50.53010650959807 0 -10.532966744207723 0 1 0 I I #
face $-1 $375 $270 $37 $-1 $376 reversed single #
loop $-1 $-1 $377 $159 #
plane-surface $-1 -61.211801945880438 -23.596373131938392 0 1 0 0 0 0 -1 forward_v I I I I #
coedge $-1 $378 $379 $380 $381 forward $160 $-1 #
coedge $-1 $382 $162 $378 $383 forward $101 $-1 #
coedge $-1 $162 $382 $268 $384 forward $101 $-1 #
edge $-1 $271 21.802197470974757 $385 25.390548792902027 $162 $386 forward 7 unknown #
coedge $-1 $164 $163 $387 $388 forward $64 $-1 #
coedge $-1 $389 $390 $163 $267 forward $391 $-1 #
edge $-1 $392 -25.390548792902027 $272 -21.802197470974757 $266 $393 forward 7 unknown #
coedge $-1 $394 $165 $263 $384 reversed $270 $-1 #
coedge $-1 $165 $394 $389 $395 reversed $270 $-1 #
loop $-1 $-1 $165 $258 #
vertex $-1 $264 $396 #
vertex $-1 $395 $397 #
straight-curve $-1 -50.53010650959807 -21.802197470974757 0 0 0 1 I I #
face $-1 $-1 $398 $38 $-1 $399 reversed single #
loop $-1 $-1 $173 $167 #
plane-surface $-1 0 0 10.532966744207723 0 0 1 1 0 0 forward_v I I I I #
coedge $-1 $400 $401 $402 $403 reversed $168 $-1 #
coedge $-1 $404 $170 $172 $284 forward $105 $-1 #
coedge $-1 $170 $404 $400 $405 forward $105 $-1 #
coedge $-1 $402 $173 $170 $281 forward $275 $-1 #
edge $-1 $287 -7.2648904239764107 $406 11.11297583564685 $280 $407 forward 7 unknown #
coedge $-1 $408 $409 $171 $283 forward $398 $-1 #
edge $-1 $410 -32.668183109726264 $286 -27.001172178009792 $282 $411 forward 7 unknown #
edge $-1 $287 -7.8780721769347064 $410 0 $172 $412 forward 7 unknown #
coedge $-1 $173 $402 $408 $413 forward $275 $-1 #
vertex $-1 $174 $414 #
vertex $-1 $174 $415 #
straight-curve $-1 5.3408477181411911 -49.975423445888104 10.53296674420772 0 1 0 I I #
coedge $-1 $289 $289 $-1 $416 reversed $177 $-1 #
edge $-1 $417 0 $417 6.2831853071796004 $178 $418 forward 7 unknown #
vertex $-1 $181 $419 #
ellipse-curve $-1 -9.3614452895574161 -24.517928246952003 7.6994612783494878 0 -0.71933980857756763 0.69465836192734942 1.5 0 0 1 I I #
coedge $-1 $293 $293 $-1 $420 reversed $184 $-1 #
edge $-1 $421 0 $421 6.2831853071796004 $185 $422 forward 7 unknown #
vertex $-1 $188 $423 #
ellipse-curve $-1 -3.8480854116704393 -24.517928246952003 7.6994612783494878 0 -0.71933980857756763 0.69465836192734942 1.5 0 0 1 I I #
coedge $-1 $297 $297 $-1 $424 reversed $191 $-1 #
edge $-1 $425 0 $425 6.2831853071796004 $192 $426 forward 7 unknown #
vertex $-1 $195 $427 #
ellipse-curve $-1 1.6652744662165375 -24.517928246952003 7.6994612783494878 0 -0.71933980857756763 0.69465836192734942 1.5 0 0 1 I I #
face $-1 $-1 $428 $42 $-1 $429 reversed single #
loop $-1 $-1 $307 $196 #
plane-surface $-1 0 0 10.532966744207723 0 0 1 1 0 0 forward_v I I I I #
coedge $-1 $430 $431 $306 $432 forward $197 $-1 #
coedge $-1 $306 $199 $201 $312 reversed $124 $-1 #
coedge $-1 $199 $305 $304 $432 reversed $124 $-1 #
coedge $-1 $433 $202 $199 $308 forward $302 $-1 #
edge $-1 $315 -28.193779555723548 $434 -22.721210842148658 $307 $435 forward 7 unknown #
coedge $-1 $201 $200 $430 $436 reversed $79 $-1 #
coedge $-1 $437 $438 $200 $311 forward $428 $-1 #
edge $-1 $439 -7.716045480114504 $314 0.16202669682020149 $310 $440 forward 7 unknown #
edge $-1 $441 0 $315 7.8780721769347064 $305 $442 forward 7 unknown #
coedge $-1 $202 $433 $437 $443 forward $302 $-1 #
vertex $-1 $311 $444 #
vertex $-1 $203 $445 #
straight-curve $-1 20.67058668989322 -21.781643890164556 10.532966744207723 -1 0 0 I I #
coedge $-1 $317 $317 $-1 $446 reversed $206 $-1 #
edge $-1 $447 0 $447 6.2831853071796004 $207 $448 forward 7 unknown #
vertex $-1 $210 $449 #
ellipse-curve $-1 35.82781350189947 -24.517928246952003 7.6994612783494878 0 -0.71933980857756763 0.69465836192734942 1.5 0 0 1 I I #
coedge $-1 $321 $321 $-1 $450 reversed $213 $-1 #
edge $-1 $451 0 $451 6.2831853071796004 $214 $452 forward 7 unknown #
vertex $-1 $217 $453 #
ellipse-curve $-1 41.34117337978644 -24.517928246952003 7.6994612783494878 0 -0.71933980857756763 0.69465836192734942 1.5 0 0 1 I I #
coedge $-1 $325 $325 $-1 $454 reversed $220 $-1 #
edge $-1 $455 0 $455 6.2831853071796004 $221 $456 forward 7 unknown #
vertex $-1 $224 $457 #
ellipse-curve $-1 46.854533257673424 -24.517928246952003 7.6994612783494878 0 -0.71933980857756763 0.69465836192734942 1.5 0 0 1 I I #
face $-1 $-1 $458 $46 $-1 $459 reversed single #
loop $-1 $-1 $231 $225 #
plane-surface $-1 0 0 10.532966744207723 0 0 1 1 0 0 forward_v I I I I #
coedge $-1 $460 $461 $462 $463 reversed $226 $-1 #
coedge $-1 $464 $228 $230 $339 forward $143 $-1 #
coedge $-1 $228 $464 $460 $465 forward $143 $-1 #
coedge $-1 $462 $231 $228 $336 forward $330 $-1 #
edge $-1 $342 7.547086142275937 $466 21.450433826842534 $335 $467 forward 7 unknown #
coedge $-1 $468 $469 $229 $338 forward $458 $-1 #
edge $-1 $470 -50.083685236046122 $341 -43.735265770443945 $337 $471 forward 7 unknown #
edge $-1 $342 46.559342903520928 $470 54.508425207478922 $230 $472 forward 7 unknown #
coedge $-1 $231 $462 $468 $473 forward $330 $-1 #
vertex $-1 $338 $474 #
vertex $-1 $232 $475 #
straight-curve $-1 22.045846126835173 37.580249810792658 10.532966744207727 0 -1 0 I I #
coedge $-1 $344 $344 $-1 $476 reversed $235 $-1 #
edge $-1 $477 0 $477 6.2831853071796004 $236 $478 forward 7 unknown #
vertex $-1 $239 $479 #
ellipse-curve $-1 28.997519969118471 24.86227407171873 7.3587570114066487 0 0.79863551827123203 0.60181501223851219 1 0 0 1 I I #
face $-1 $-1 $360 $36 $-1 $480 reversed single #
loop $-1 $-1 $481 $240 #
plane-surface $-1 0 27.254212603739447 0 0 -1 0 0 0 -1 forward_v I I I I #
coedge $-1 $359 $358 $243 $352 reversed $360 $-1 #
edge $-1 $482 -27.254212603739447 $483 27.254212603739447 $351 $484 forward 7 unknown #
coedge $-1 $245 $244 $248 $364 forward $97 $-1 #
coedge $-1 $481 $251 $244 $355 reversed $349 $-1 #
edge $-1 $362 -50.53010650959807 $369 50.53010650959807 $354 $485 forward 7 unknown #
coedge $-1 $249 $486 $245 $357 reversed $241 $-1 #
edge $-1 $366 -50.53010650959807 $361 50.53010650959807 $356 $487 forward 7 unknown #
coedge $-1 $351 $246 $486 $488 forward $360 $-1 #
coedge $-1 $246 $351 $481 $489 reversed $360 $-1 #
loop $-1 $-1 $358 $348 #
vertex $-1 $247 $490 #
vertex $-1 $247 $491 #
straight-curve $-1 50.53010650959807 0 10.532966744207723 0 1 0 I I #
edge $-1 $369 -27.254212603739447 $366 27.254212603739447 $248 $492 forward 7 unknown #
coedge $-1 $486 $249 $254 $372 reversed $241 $-1 #
vertex $-1 $364 $493 #
straight-curve $-1 -50.53010650959807 -27.254212603739447 0 0 0 -1 I I #
coedge $-1 $251 $481 $253 $371 reversed $349 $-1 #
vertex $-1 $355 $494 #
straight-curve $-1 -50.53010650959807 27.254212603739447 0 0 0 -1 I I #
edge $-1 $256 -50.53010650959807 $482 50.53010650959807 $368 $495 forward 7 unknown #
edge $-1 $483 -50.53010650959807 $255 50.53010650959807 $365 $496 forward 7 unknown #
point $-1 -50.53010650959807 -27.254212603739447 -10.532966744207723 #
point $-1 -50.53010650959807 27.254212603739447 -10.532966744207723 #
face $-1 $-1 $391 $37 $-1 $497 forward single #
plane-surface $-1 -55.870954227739254 -21.802197470974757 0 0 -1 0 0 0 -1 forward_v I I I I #
coedge $-1 $498 $499 $394 $500 forward $259 $-1 #
coedge $-1 $387 $261 $262 $383 reversed $160 $-1 #
coedge $-1 $261 $387 $390 $501 reversed $160 $-1 #
coedge $-1 $499 $498 $261 $381 reversed $259 $-1 #
edge $-1 $502 -10.532966744207723 $503 10.532966744207723 $380 $504 forward 7 unknown #
coedge $-1 $263 $262 $498 $505 forward $101 $-1 #
edge $-1 $385 -5.340847718141184 $503 5.340847718141184 $378 $506 forward 7 unknown #
edge $-1 $507 -5.340847718141184 $271 5.340847718141184 $268 $508 forward 7 unknown #
vertex $-1 $383 $509 #
straight-curve $-1 -50.53010650959807 0 -10.532966744207723 0 -1 0 I I #
coedge $-1 $379 $378 $265 $388 reversed $160 $-1 #
edge $-1 $392 -10.532966744207723 $385 10.532966744207723 $387 $510 forward 7 unknown #
coedge $-1 $511 $266 $269 $395 forward $391 $-1 #
coedge $-1 $266 $511 $379 $501 forward $391 $-1 #
loop $-1 $-1 $266 $375 #
vertex $-1 $267 $512 #
straight-curve $-1 -50.53010650959807 0 10.532966744207723 0 1 0 I I #
coedge $-1 $269 $268 $377 $500 reversed $270 $-1 #
edge $-1 $272 -5.340847718141184 $513 5.340847718141184 $269 $514 forward 7 unknown #
point $-1 -50.53010650959807 -21.802197470974757 -10.532966744207723 #
point $-1 -50.53010650959807 -21.802197470974757 10.532966744207723 #
loop $-1 $-1 $282 $274 #
plane-surface $-1 0 -27.254212603739447 0 0 1 0 0 0 1 forward_v I I I I #
coedge $-1 $401 $277 $279 $405 reversed $168 $-1 #
coedge $-1 $277 $400 $515 $516 reversed $168 $-1 #
coedge $-1 $285 $280 $277 $403 forward $275 $-1 #
edge $-1 $406 -28.193779555723548 $517 -22.721210842148658 $402 $518 forward 7 unknown #
coedge $-1 $279 $278 $409 $519 reversed $105 $-1 #
edge $-1 $520 0 $406 7.8780721769347064 $400 $521 forward 7 unknown #
vertex $-1 $281 $522 #
straight-curve $-1 -1.9240427058352196 -21.781643890164556 10.532966744207723 -1 0 0 I I #
coedge $-1 $515 $282 $285 $413 reversed $398 $-1 #
coedge $-1 $282 $515 $404 $519 forward $398 $-1 #
vertex $-1 $283 $523 #
straight-curve $-1 5.3408477181411911 -27.254212603739447 37.534138922217515 0 0 1 I I #
straight-curve $-1 5.3408477181411911 -27.254212603739447 4.8659558124912508 0 -0.69465836192734942 -0.71933980857756763 I I #
edge $-1 $517 -13.03701854148207 $286 5.3408477181411911 $408 $524 forward 7 unknown #
point $-1 5.3408477181411911 -27.254212603739447 10.532966744207723 #
point $-1 5.3408477181411911 -21.781643890164556 10.532966744207723 #
edge $-1 $525 1 $525 0 $289 $-1 forward 7 unknown #
vertex $-1 $290 $526 #
ellipse-curve $-1 -9.3614452895574161 -22.785229706603428 6.026213787525184 0 -0.71933980857756763 0.69465836192734942 1.5 0 0 1 I I #
point $-1 -7.8614452895574161 -24.517928246952 7.6994612783494851 #
edge $-1 $527 1 $527 0 $293 $-1 forward 7 unknown #
vertex $-1 $294 $528 #
ellipse-curve $-1 -3.8480854116704393 -22.785229706603428 6.026213787525184 0 -0.71933980857756763 0.69465836192734942 1.5 0 0 1 I I #
point $-1 -2.3480854116704393 -24.517928246952 7.6994612783494851 #
edge $-1 $529 1 $529 0 $297 $-1 forward 7 unknown #
vertex $-1 $298 $530 #
ellipse-curve $-1 1.6652744662165375 -22.785229706603428 6.026213787525184 0 -0.71933980857756763 0.69465836192734942 1.5 0 0 1 I I #
point $-1 3.1652744662165375 -24.517928246952 7.6994612783494851 #
loop $-1 $-1 $310 $301 #
plane-surface $-1 50.53010650959807 0 0 -1 0 0 0 0 1 forward_v I I I I #
coedge $-1 $531 $304 $309 $436 forward $197 $-1 #
coedge $-1 $304 $531 $433 $532 reversed $197 $-1 #
edge $-1 $434 27.001172178009792 $441 32.668183109726264 $304 $533 forward 7 unknown #
coedge $-1 $313 $307 $431 $532 forward $302 $-1 #
vertex $-1 $532 $534 #
straight-curve $-1 32.15224024997481 -49.975423445888104 10.53296674420772 0 -1 0 I I #
edge $-1 $441 11.48165356008159 $439 29.85951981970485 $430 $535 forward 7 unknown #
coedge $-1 $438 $310 $313 $443 reversed $428 $-1 #
coedge $-1 $310 $437 $531 $536 forward $428 $-1 #
vertex $-1 $436 $537 #
straight-curve $-1 50.53010650959807 -21.894197089966177 10.416414491132624 0 0.69465836192734942 0.71933980857756763 I I #
vertex $-1 $436 $538 #
straight-curve $-1 32.15224024997481 -27.254212603739447 4.8659558124912508 0 0.69465836192734942 0.71933980857756763 I I #
edge $-1 $539 -27.254212603739447 $314 -21.781643890164556 $437 $540 forward 7 unknown #
point $-1 50.53010650959807 -21.781643890164556 10.532966744207723 #
point $-1 32.15224024997481 -21.781643890164556 10.532966744207723 #
edge $-1 $541 1 $541 0 $317 $-1 forward 7 unknown #
vertex $-1 $318 $542 #
ellipse-curve $-1 35.82781350189947 -22.785229706603428 6.026213787525184 0 -0.71933980857756763 0.69465836192734942 1.5 0 0 1 I I #
point $-1 37.32781350189947 -24.517928246952 7.6994612783494851 #
edge $-1 $543 1 $543 0 $321 $-1 forward 7 unknown #
vertex $-1 $322 $544 #
ellipse-curve $-1 41.34117337978644 -22.785229706603428 6.026213787525184 0 -0.71933980857756763 0.69465836192734942 1.5 0 0 1 I I #
point $-1 42.84117337978644 -24.517928246952 7.6994612783494851 #
edge $-1 $545 1 $545 0 $325 $-1 forward 7 unknown #
vertex $-1 $326 $546 #
ellipse-curve $-1 46.854533257673424 -22.785229706603428 6.026213787525184 0 -0.71933980857756763 0.69465836192734942 1.5 0 0 1 I I #
point $-1 48.354533257673424 -24.517928246952 7.6994612783494851 #
loop $-1 $-1 $337 $329 #
plane-surface $-1 0 27.254212603739447 0 0 -1 0 0 0 -1 forward_v I I I I #
coedge $-1 $461 $332 $334 $465 reversed $226 $-1 #
coedge $-1 $332 $460 $547 $548 reversed $226 $-1 #
coedge $-1 $340 $335 $332 $463 forward $330 $-1 #
edge $-1 $466 -15.109914271094631 $549 -10.326037207053211 $462 $550 forward 7 unknown #
coedge $-1 $334 $333 $469 $551 reversed $143 $-1 #
edge $-1 $552 -54.508425207478922 $466 -46.559342903520928 $460 $553 forward 7 unknown #
vertex $-1 $336 $554 #
straight-curve $-1 14.498759984559236 22.470335539698027 10.532966744207723 1 0 0 I I #
coedge $-1 $547 $337 $340 $473 reversed $458 $-1 #
coedge $-1 $337 $547 $464 $551 forward $458 $-1 #
vertex $-1 $338 $555 #
straight-curve $-1 22.045846126835173 27.254212603739447 54.268232514651672 0 0 1 I I #
straight-curve $-1 22.045846126835173 -5.549775979601506 47.71691169432917 0 0.60181501223851219 -0.79863551827123203 I I #
edge $-1 $549 -35.94919381140177 $341 -22.045846126835173 $468 $556 forward 7 unknown #
point $-1 22.045846126835173 27.254212603739447 10.532966744207723 #
point $-1 22.045846126835173 22.470335539698027 10.532966744207727 #
edge $-1 $557 1 $557 0 $344 $-1 forward 7 unknown #
vertex $-1 $345 $558 #
ellipse-curve $-1 28.997519969118471 23.045010842179789 5.9893509836194534 0 0.79863551827123203 0.60181501223851219 1 0 0 1 I I #
point $-1 29.997519969118471 24.862274071718748 7.3587570114066612 #
plane-surface $-1 50.53010650959807 0 0 -1 0 0 0 0 1 forward_v I I I I #
coedge $-1 $368 $354 $359 $489 forward $349 $-1 #
vertex $-1 $352 $559 #
vertex $-1 $488 $560 #
straight-curve $-1 50.53010650959807 0 -10.532966744207723 0 -1 0 I I #
straight-curve $-1 0 27.254212603739447 10.532966744207723 -1 0 0 I I #
coedge $-1 $356 $365 $358 $488 reversed $241 $-1 #
straight-curve $-1 0 -27.254212603739447 10.532966744207723 1 0 0 I I #
edge $-1 $361 -10.532966744207723 $483 10.532966744207723 $358 $561 forward 7 unknown #
edge $-1 $362 -10.532966744207723 $482 10.532966744207723 $359 $562 forward 7 unknown #
point $-1 50.53010650959807 -27.254212603739447 10.532966744207723 #
point $-1 50.53010650959807 27.254212603739447 10.532966744207723 #
straight-curve $-1 -50.53010650959807 0 10.532966744207723 0 -1 0 I I #
point $-1 -50.53010650959807 -27.254212603739447 10.532966744207723 #
point $-1 -50.53010650959807 27.254212603739447 10.532966744207723 #
straight-curve $-1 0 27.254212603739447 -10.532966744207723 1 0 0 I I #
straight-curve $-1 0 -27.254212603739447 -10.532966744207723 -1 0 0 I I #
plane-surface $-1 0 0 10.532966744207723 0 0 1 1 0 0 forward_v I I I I #
coedge $-1 $380 $377 $382 $505 reversed $259 $-1 #
coedge $-1 $377 $380 $511 $563 reversed $259 $-1 #
edge $-1 $513 -10.532966744207723 $507 10.532966744207723 $394 $564 forward 7 unknown #
edge $-1 $502 -5.340847718141184 $392 5.340847718141184 $379 $565 forward 7 unknown #
vertex $-1 $563 $566 #
vertex $-1 $505 $567 #
straight-curve $-1 -61.211801945880438 -25.390548792902027 0 0 0 -1 I I #
edge $-1 $503 -1.794175660963635 $507 1.794175660963635 $498 $568 forward 7 unknown #
straight-curve $-1 -55.870954227739254 -25.390548792902027 -10.532966744207723 -1 0 0 I I #
vertex $-1 $384 $569 #
straight-curve $-1 -55.870954227739254 -21.802197470974757 -10.532966744207723 1 0 0 I I #
point $-1 -50.53010650959807 -25.390548792902027 -10.532966744207723 #
straight-curve $-1 -50.53010650959807 -25.390548792902027 0 0 0 -1 I I #
coedge $-1 $390 $389 $499 $563 forward $391 $-1 #
point $-1 -50.53010650959807 -25.390548792902027 10.532966744207723 #
vertex $-1 $395 $570 #
straight-curve $-1 -55.870954227739254 -21.802197470974757 10.532966744207723 -1 0 0 I I #
coedge $-1 $409 $408 $401 $516 forward $398 $-1 #
edge $-1 $517 27.001172178009792 $520 32.668183109726264 $515 $571 forward 7 unknown #
vertex $-1 $413 $572 #
straight-curve $-1 -13.03701854148207 -49.975423445888104 10.53296674420772 0 -1 0 I I #
edge $-1 $520 -11.11297583564685 $410 7.2648904239764107 $409 $573 forward 7 unknown #
vertex $-1 $519 $574 #
straight-curve $-1 -13.03701854148207 -27.254212603739447 4.8659558124912508 0 0.69465836192734942 0.71933980857756763 I I #
point $-1 -13.03701854148207 -21.781643890164556 10.532966744207723 #
point $-1 5.3408477181411911 -27.254212603739447 4.8659558124912508 #
straight-curve $-1 0 -27.254212603739447 10.532966744207723 1 0 0 I I #
vertex $-1 $416 $575 #
point $-1 -7.8614452895574161 -22.785229706603428 6.026213787525184 #
vertex $-1 $420 $576 #
point $-1 -2.3480854116704393 -22.785229706603428 6.026213787525184 #
vertex $-1 $424 $577 #
point $-1 3.1652744662165375 -22.785229706603428 6.026213787525184 #
coedge $-1 $431 $430 $438 $536 reversed $197 $-1 #
edge $-1 $434 32.15224024997481 $539 50.53010650959807 $431 $578 forward 7 unknown #
straight-curve $-1 32.15224024997481 -27.254212603739447 37.534138922217515 0 0 -1 I I #
point $-1 32.15224024997481 -27.254212603739447 10.532966744207723 #
straight-curve $-1 20.67058668989322 -27.254212603739447 4.8659558124912508 1 0 0 I I #
edge $-1 $539 -10.532966744207723 $439 -4.8659558124912508 $438 $579 forward 7 unknown #
point $-1 50.53010650959807 -27.254212603739447 4.8659558124912508 #
point $-1 32.15224024997481 -27.254212603739447 4.8659558124912508 #
vertex $-1 $443 $580 #
straight-curve $-1 50.53010650959807 0 10.532966744207723 0 1 0 I I #
vertex $-1 $446 $581 #
point $-1 37.32781350189947 -22.785229706603428 6.026213787525184 #
vertex $-1 $450 $582 #
point $-1 42.84117337978644 -22.785229706603428 6.026213787525184 #
vertex $-1 $454 $583 #
point $-1 48.354533257673424 -22.785229706603428 6.026213787525184 #
coedge $-1 $469 $468 $461 $548 forward $458 $-1 #
edge $-1 $549 43.735265770443945 $552 50.083685236046122 $547 $584 forward 7 unknown #
vertex $-1 $473 $585 #
straight-curve $-1 35.94919381140177 37.580249810792658 10.532966744207727 0 1 0 I I #
edge $-1 $552 -21.450433826842534 $470 -7.547086142275937 $469 $586 forward 7 unknown #
vertex $-1 $551 $587 #
straight-curve $-1 35.94919381140177 -5.549775979601506 47.71691169432917 0 -0.60181501223851219 0.79863551827123203 I I #
point $-1 35.94919381140177 22.470335539698027 10.532966744207727 #
point $-1 22.045846126835173 27.254212603739447 4.1845472786055495 #
straight-curve $-1 0 27.254212603739447 10.532966744207723 -1 0 0 I I #
vertex $-1 $476 $588 #
point $-1 29.997519969118471 23.045010842179789 5.9893509836194534 #
point $-1 50.53010650959807 27.254212603739447 -10.532966744207723 #
point $-1 50.53010650959807 -27.254212603739447 -10.532966744207723 #
straight-curve $-1 50.53010650959807 -27.254212603739447 0 0 0 -1 I I #
straight-curve $-1 50.53010650959807 27.254212603739447 0 0 0 -1 I I #
edge $-1 $513 -1.794175660963635 $502 1.794175660963635 $499 $589 forward 7 unknown #
straight-curve $-1 -61.211801945880438 -21.802197470974757 0 0 0 -1 I I #
straight-curve $-1 -55.870954227739254 -25.390548792902027 10.532966744207723 1 0 0 I I #
point $-1 -61.211801945880438 -25.390548792902027 10.532966744207723 #
point $-1 -61.211801945880438 -25.390548792902027 -10.532966744207723 #
straight-curve $-1 -61.211801945880438 -23.596373131938392 -10.532966744207723 0 1 0 I I #
point $-1 -61.211801945880438 -21.802197470974757 -10.532966744207723 #
point $-1 -61.211801945880438 -21.802197470974757 10.532966744207723 #
straight-curve $-1 -13.03701854148207 -27.254212603739447 37.534138922217515 0 0 -1 I I #
point $-1 -13.03701854148207 -27.254212603739447 10.532966744207723 #
straight-curve $-1 -1.9240427058352196 -27.254212603739447 4.8659558124912508 1 0 0 I I #
point $-1 -13.03701854148207 -27.254212603739447 4.8659558124912508 #
point $-1 -9.3614452895574161 -21.706219993737076 4.9842262446341605 #
point $-1 -3.8480854116704393 -21.706219993737076 4.9842262446341605 #
point $-1 1.6652744662165375 -21.706219993737076 4.9842262446341605 #
straight-curve $-1 0 -27.254212603739447 10.532966744207723 1 0 0 I I #
straight-curve $-1 50.53010650959807 -27.254212603739447 0 0 0 -1 I I #
point $-1 50.53010650959807 -27.254212603739447 10.532966744207723 #
point $-1 35.82781350189947 -21.706219993737076 4.9842262446341605 #
point $-1 41.34117337978644 -21.706219993737076 4.9842262446341605 #
point $-1 46.854533257673424 -21.706219993737076 4.9842262446341605 #
straight-curve $-1 35.94919381140177 27.254212603739447 54.268232514651672 0 0 -1 I I #
point $-1 35.94919381140177 27.254212603739447 10.532966744207723 #
straight-curve $-1 14.498759984559236 27.254212603739447 4.1845472786055566 -1 0 0 I I #
point $-1 35.94919381140177 27.254212603739447 4.1845472786055495 #
point $-1 28.997519969118471 22.246375323908556 5.3875359713809408 #
straight-curve $-1 -61.211801945880438 -23.596373131938392 10.532966744207723 0 -1 0 I I #
End-of-ACIS-data 