500 0 10 0           
7 Unknown 11 ACIS 5.0 NT 24 Fri Mar 26 02:00:40 1999 
-1 9.9999999999999995e-007 1e-010 
body $-1 $10 $-1 $11 #
body $-1 $12 $-1 $13 #
body $-1 $14 $-1 $15 #
body $-1 $16 $-1 $17 #
body $-1 $18 $-1 $19 #
body $-1 $20 $-1 $21 #
body $-1 $22 $-1 $23 #
body $-1 $24 $-1 $25 #
body $-1 $26 $-1 $27 #
body $-1 $28 $-1 $29 #
lump $-1 $-1 $30 $0 #
transform $-1 1 0 0 0 1 0 0 0 1 79.858394116031377 38.43594964217376 14.079496443374353 1 rotate no_reflect no_shear #
lump $-1 $-1 $31 $1 #
transform $-1 1 0 0 0 1 0 0 0 1 79.858394116031377 38.43594964217376 14.079496443374353 1 rotate no_reflect no_shear #
lump $-1 $-1 $32 $2 #
transform $-1 1 0 0 0 1 0 0 0 1 79.858394116031377 38.43594964217376 14.079496443374353 1 rotate no_reflect no_shear #
lump $-1 $-1 $33 $3 #
transform $-1 1 0 0 0 1 0 0 0 1 79.858394116031377 38.43594964217376 14.079496443374353 1 rotate no_reflect no_shear #
lump $-1 $-1 $34 $4 #
transform $-1 1 0 0 0 1 0 0 0 1 79.858394116031377 38.43594964217376 14.079496443374353 1 rotate no_reflect no_shear #
lump $-1 $-1 $35 $5 #
transform $-1 1 0 0 0 1 0 0 0 1 79.858394116031377 38.43594964217376 14.079496443374353 1 rotate no_reflect no_shear #
lump $-1 $-1 $36 $6 #
transform $-1 1 0 0 0 1 0 0 0 1 79.858394116031377 38.43594964217376 14.079496443374353 1 rotate no_reflect no_shear #
lump $-1 $-1 $37 $7 #
transform $-1 1 0 0 0 1 0 0 0 1 79.858394116031377 38.43594964217376 14.079496443374353 1 rotate no_reflect no_shear #
lump $-1 $-1 $38 $8 #
transform $-1 1 0 0 0 1 0 0 0 1 79.858394116031377 38.43594964217376 14.079496443374353 1 rotate no_reflect no_shear #
lump $-1 $-1 $39 $9 #
transform $-1 1 0 0 0 1 0 0 0 1 79.858394116031377 38.43594964217376 14.079496443374353 1 rotate no_reflect no_shear #
shell $-1 $-1 $-1 $40 $-1 $10 #
shell $-1 $-1 $-1 $41 $-1 $12 #
shell $-1 $-1 $-1 $42 $-1 $14 #
shell $-1 $-1 $-1 $43 $-1 $16 #
shell $-1 $-1 $-1 $44 $-1 $18 #
shell $-1 $-1 $-1 $45 $-1 $20 #
shell $-1 $-1 $-1 $46 $-1 $22 #
shell $-1 $-1 $-1 $47 $-1 $24 #
shell $-1 $-1 $-1 $48 $-1 $26 #
shell $-1 $-1 $-1 $49 $-1 $28 #
face $-1 $50 $51 $30 $-1 $52 forward single #
face $-1 $53 $54 $31 $-1 $55 forward single #
face $-1 $56 $57 $32 $-1 $58 reversed single #
face $-1 $59 $60 $33 $-1 $61 forward single #
face $-1 $62 $63 $34 $-1 $64 forward single #
face $-1 $65 $66 $35 $-1 $67 forward single #
face $-1 $68 $69 $36 $-1 $70 reversed single #
face $-1 $71 $72 $37 $-1 $73 forward single #
face $-1 $74 $75 $38 $-1 $76 forward single #
face $-1 $77 $78 $39 $-1 $79 forward single #
face $-1 $80 $81 $30 $-1 $82 reversed single #
loop $-1 $-1 $83 $40 #
plane-surface $-1 0 0 14.079496443374353 0 0 1 1 0 0 forward_v I I I I #
face $-1 $84 $85 $31 $-1 $86 reversed single #
loop $-1 $-1 $87 $41 #
plane-surface $-1 -70.877168971072336 0 -6.9497291627288655 0 0 1 1 0 0 forward_v I I I I #
face $-1 $88 $89 $32 $-1 $90 reversed single #
loop $-1 $-1 $91 $42 #
plane-surface $-1 43.077114056016839 -149.38455479380505 115.10129611271546 1 0 0 0 0.69465837861970381 -0.71933979245794832 forward_v I I I I #
face $-1 $92 $93 $33 $-1 $94 forward single #
loop $-1 $95 $96 $43 #
cone-surface $-1 49.219960658317007 -29.886457625652618 5.7277564861371868 0 0.69465837861970381 -0.71933979245794832 2 0 0 1 I I 0 1 2 forward I I I I #
face $-1 $97 $98 $34 $-1 $99 forward single #
loop $-1 $100 $101 $44 #
cone-surface $-1 58.434230561767237 -29.886457625652618 5.7277564861371868 0 0.69465837861970381 -0.71933979245794832 2 0 0 1 I I 0 1 2 forward I I I I #
face $-1 $102 $103 $35 $-1 $104 forward single #
loop $-1 $105 $106 $45 #
cone-surface $-1 67.648500465217467 -29.886457625652618 5.7277564861371868 0 0.69465837861970381 -0.71933979245794832 2 0 0 1 I I 0 1 2 forward I I I I #
face $-1 $107 $108 $36 $-1 $109 reversed single #
loop $-1 $-1 $110 $46 #
plane-surface $-1 -17.86850137988079 91.141991075085713 176.61294898678693 1 0 0 0 -0.68199836817093118 -0.7313536940579346 forward_v I I I I #
face $-1 $111 $112 $37 $-1 $113 forward single #
loop $-1 $114 $115 $47 #
cone-surface $-1 -13.206575977701334 34.133976095424678 9.9687986283098162 0 -0.68199836817093118 -0.7313536940579346 1.5 0 0 1 I I 0 1 1.5 forward I I I I #
face $-1 $116 $117 $38 $-1 $118 forward single #
loop $-1 $119 $120 $48 #
cone-surface $-1 -6.2136878744321677 34.133976095424678 9.9687986283098162 0 -0.68199836817093118 -0.7313536940579346 1.5 0 0 1 I I 0 1 1.5 forward I I I I #
face $-1 $121 $122 $39 $-1 $123 forward single #
loop $-1 $124 $125 $49 #
cone-surface $-1 0.77920022883699858 34.133976095424678 9.9687986283098162 0 -0.68199836817093118 -0.7313536940579346 1.5 0 0 1 I I 0 1 1.5 forward I I I I #
face $-1 $126 $127 $30 $-1 $128 reversed single #
loop $-1 $-1 $129 $50 #
plane-surface $-1 0 0 -14.079496443374353 0 0 1 1 0 0 forward_v I I I I #
coedge $-1 $130 $131 $132 $133 forward $51 $-1 #
face $-1 $134 $135 $31 $-1 $136 reversed single #
loop $-1 $-1 $137 $53 #
plane-surface $-1 -61.895943826113289 0 -10.514612803051609 -1 0 0 0 0 1 forward_v I I I I #
coedge $-1 $138 $139 $140 $141 forward $54 $-1 #
face $-1 $142 $143 $32 $-1 $144 reversed single #
loop $-1 $-1 $145 $56 #
plane-surface $-1 58.434230561767208 -38.435949642173753 0.21065481381334905 0 -0.69465837861970381 0.71933979245794832 1 0 0 forward_v I I I I #
coedge $-1 $146 $147 $148 $149 reversed $57 $-1 #
face $-1 $-1 $150 $33 $-1 $151 forward single #
loop $-1 $152 $153 $59 #
cone-surface $-1 49.219960658317007 -27.823110029769609 3.5910975512225711 0 0.69465837861970381 -0.71933979245794832 1 0 0 1 I I -0.70710678118654746 0.70710678118654746 1 forward I I I I #
loop $-1 $-1 $154 $43 #
coedge $-1 $96 $96 $155 $156 reversed $60 $-1 #
face $-1 $-1 $157 $34 $-1 $158 forward single #
loop $-1 $159 $160 $62 #
cone-surface $-1 58.434230561767237 -27.823110029769609 3.5910975512225711 0 0.69465837861970381 -0.71933979245794832 1 0 0 1 I I -0.70710678118654746 0.70710678118654746 1 forward I I I I #
loop $-1 $-1 $161 $44 #
coedge $-1 $101 $101 $162 $163 reversed $63 $-1 #
face $-1 $-1 $164 $35 $-1 $165 forward single #
loop $-1 $166 $167 $65 #
cone-surface $-1 67.648500465217467 -27.823110029769609 3.5910975512225711 0 0.69465837861970381 -0.71933979245794832 1 0 0 1 I I -0.70710678118654746 0.70710678118654746 1 forward I I I I #
loop $-1 $-1 $168 $45 #
coedge $-1 $106 $106 $169 $170 reversed $66 $-1 #
face $-1 $171 $172 $36 $-1 $173 reversed single #
loop $-1 $-1 $174 $68 #
plane-surface $-1 -6.2136878744321677 -17.784597868683264 59.803485910198987 0 0.68199836817093118 0.7313536940579346 1 0 0 forward_v I I I I #
coedge $-1 $175 $176 $177 $178 reversed $69 $-1 #
face $-1 $-1 $179 $37 $-1 $180 forward single #
loop $-1 $181 $182 $71 #
cone-surface $-1 -13.206575977701334 32.914290272065791 8.6608457443521161 0 -0.68199836817093118 -0.7313536940579346 0.75 0 0 1 I I -0.70710678118654757 0.70710678118654757 0.75 forward I I I I #
loop $-1 $-1 $183 $47 #
coedge $-1 $115 $115 $184 $185 reversed $72 $-1 #
face $-1 $-1 $186 $38 $-1 $187 forward single #
loop $-1 $188 $189 $74 #
cone-surface $-1 -6.2136878744321677 32.914290272065791 8.6608457443521161 0 -0.68199836817093118 -0.7313536940579346 0.75 0 0 1 I I -0.70710678118654757 0.70710678118654757 0.75 forward I I I I #
loop $-1 $-1 $190 $48 #
coedge $-1 $120 $120 $191 $192 reversed $75 $-1 #
face $-1 $-1 $193 $39 $-1 $194 forward single #
loop $-1 $195 $196 $77 #
cone-surface $-1 0.77920022883699858 32.914290272065791 8.6608457443521161 0 -0.68199836817093118 -0.7313536940579346 0.75 0 0 1 I I -0.70710678118654757 0.70710678118654757 0.75 forward I I I I #
loop $-1 $-1 $197 $49 #
coedge $-1 $125 $125 $198 $199 reversed $78 $-1 #
face $-1 $200 $201 $30 $-1 $202 reversed single #
loop $-1 $-1 $203 $80 #
plane-surface $-1 0 -38.43594964217376 0 0 1 0 0 0 1 forward_v I I I I #
coedge $-1 $204 $205 $206 $207 forward $81 $-1 #
coedge $-1 $208 $83 $209 $210 forward $51 $-1 #
coedge $-1 $83 $208 $211 $212 forward $51 $-1 #
coedge $-1 $213 $214 $83 $133 reversed $215 $-1 #
edge $-1 $216 -38.43594964217376 $217 38.43594964217376 $132 $218 forward 7 unknown #
face $-1 $219 $220 $31 $-1 $221 reversed single #
loop $-1 $-1 $222 $84 #
plane-surface $-1 0 0 -14.079496443374353 0 0 1 1 0 0 forward_v I I I I #
coedge $-1 $223 $140 $224 $225 reversed $85 $-1 #
coedge $-1 $226 $87 $227 $228 reversed $54 $-1 #
coedge $-1 $87 $226 $229 $230 reversed $54 $-1 #
coedge $-1 $137 $231 $87 $141 reversed $85 $-1 #
edge $-1 $232 -38.43594964217376 $233 38.43594964217376 $140 $234 forward 7 unknown #
face $-1 $235 $236 $32 $-1 $237 forward single #
loop $-1 $-1 $238 $88 #
plane-surface $-1 73.791347067517577 -149.38455479380505 115.10129611271546 -1 0 0 0 -0.69465837861970381 0.71933979245794832 forward_v I I I I #
coedge $-1 $239 $240 $241 $242 reversed $89 $-1 #
coedge $-1 $147 $91 $243 $244 reversed $57 $-1 #
coedge $-1 $91 $146 $239 $245 reversed $57 $-1 #
coedge $-1 $241 $246 $91 $149 forward $247 $-1 #
edge $-1 $248 43.471151612983377 $249 57.339993242544388 $148 $250 forward 7 unknown #
loop $-1 $-1 $155 $92 #
plane-surface $-1 58.434230561767208 -38.435949642173753 0.21065481381334905 0 -0.69465837861970381 0.71933979245794832 1 0 0 forward_v I I I I #
loop $-1 $-1 $251 $59 #
coedge $-1 $153 $153 $154 $252 reversed $93 $-1 #
coedge $-1 $154 $154 $153 $252 forward $95 $-1 #
coedge $-1 $155 $155 $96 $156 forward $150 $-1 #
edge $-1 $253 2.2080429392168286e-016 $253 6.2831853071796004 $155 $254 forward 7 unknown #
loop $-1 $-1 $162 $97 #
plane-surface $-1 58.434230561767208 -38.435949642173753 0.21065481381334905 0 -0.69465837861970381 0.71933979245794832 1 0 0 forward_v I I I I #
loop $-1 $-1 $255 $62 #
coedge $-1 $160 $160 $161 $256 reversed $98 $-1 #
coedge $-1 $161 $161 $160 $256 forward $100 $-1 #
coedge $-1 $162 $162 $101 $163 forward $157 $-1 #
edge $-1 $257 2.2080429392168286e-016 $257 6.2831853071796004 $162 $258 forward 7 unknown #
loop $-1 $-1 $169 $102 #
plane-surface $-1 58.434230561767208 -38.435949642173753 0.21065481381334905 0 -0.69465837861970381 0.71933979245794832 1 0 0 forward_v I I I I #
loop $-1 $-1 $259 $65 #
coedge $-1 $167 $167 $168 $260 reversed $103 $-1 #
coedge $-1 $168 $168 $167 $260 forward $105 $-1 #
coedge $-1 $169 $169 $106 $170 forward $164 $-1 #
edge $-1 $261 2.2080429392168286e-016 $261 6.2831853071796004 $169 $262 forward 7 unknown #
face $-1 $263 $264 $36 $-1 $265 reversed single #
loop $-1 $-1 $266 $107 #
plane-surface $-1 5.4411256310164546 91.141991075085713 176.61294898678693 -1 0 0 0 0.68199836817093118 0.7313536940579346 forward_v I I I I #
coedge $-1 $267 $268 $269 $270 reversed $108 $-1 #
coedge $-1 $176 $110 $271 $272 reversed $69 $-1 #
coedge $-1 $110 $175 $267 $273 reversed $69 $-1 #
coedge $-1 $269 $274 $110 $178 forward $275 $-1 #
edge $-1 $276 7.1350458953690961 $277 14.322618894405849 $177 $278 forward 7 unknown #
loop $-1 $-1 $184 $111 #
plane-surface $-1 -6.2136878744321677 -17.784597868683264 59.803485910198987 0 0.68199836817093118 0.7313536940579346 1 0 0 forward_v I I I I #
loop $-1 $-1 $279 $71 #
coedge $-1 $182 $182 $183 $280 reversed $112 $-1 #
coedge $-1 $183 $183 $182 $280 forward $114 $-1 #
coedge $-1 $184 $184 $115 $185 forward $179 $-1 #
edge $-1 $281 9.1391525541200384e-016 $281 6.2831853071796013 $184 $282 forward 7 unknown #
loop $-1 $-1 $191 $116 #
plane-surface $-1 -6.2136878744321677 -17.784597868683264 59.803485910198987 0 0.68199836817093118 0.7313536940579346 1 0 0 forward_v I I I I #
loop $-1 $-1 $283 $74 #
coedge $-1 $189 $189 $190 $284 reversed $117 $-1 #
coedge $-1 $190 $190 $189 $284 forward $119 $-1 #
coedge $-1 $191 $191 $120 $192 forward $186 $-1 #
edge $-1 $285 9.1391525541200384e-016 $285 6.2831853071796013 $191 $286 forward 7 unknown #
loop $-1 $-1 $198 $121 #
plane-surface $-1 -6.2136878744321677 -17.784597868683264 59.803485910198987 0 0.68199836817093118 0.7313536940579346 1 0 0 forward_v I I I I #
loop $-1 $-1 $287 $77 #
coedge $-1 $196 $196 $197 $288 reversed $122 $-1 #
coedge $-1 $197 $197 $196 $288 forward $124 $-1 #
coedge $-1 $198 $198 $125 $199 forward $193 $-1 #
edge $-1 $289 9.1391525541200384e-016 $289 6.2831853071796013 $198 $290 forward 7 unknown #
face $-1 $291 $292 $30 $-1 $293 reversed single #
loop $-1 $-1 $294 $126 #
plane-surface $-1 -79.858394116031377 0 0 1 0 0 0 0 -1 forward_v I I I I #
coedge $-1 $295 $211 $296 $297 forward $127 $-1 #
coedge $-1 $298 $129 $295 $299 forward $81 $-1 #
coedge $-1 $129 $298 $300 $301 forward $81 $-1 #
coedge $-1 $214 $213 $129 $207 reversed $215 $-1 #
edge $-1 $302 -38.43594964217376 $303 38.43594964217376 $206 $304 forward 7 unknown #
coedge $-1 $131 $130 $305 $306 forward $51 $-1 #
coedge $-1 $307 $308 $130 $210 reversed $292 $-1 #
edge $-1 $217 -79.858394116031377 $309 79.858394116031377 $209 $310 forward 7 unknown #
coedge $-1 $203 $311 $131 $212 reversed $127 $-1 #
edge $-1 $312 -79.858394116031377 $216 79.858394116031377 $211 $313 forward 7 unknown #
coedge $-1 $206 $132 $311 $314 forward $215 $-1 #
coedge $-1 $132 $206 $307 $315 reversed $215 $-1 #
loop $-1 $-1 $213 $291 #
vertex $-1 $133 $316 #
vertex $-1 $133 $317 #
straight-curve $-1 79.858394116031377 0 14.079496443374353 0 1 0 I I #
face $-1 $318 $319 $31 $-1 $320 reversed single #
loop $-1 $-1 $224 $134 #
plane-surface $-1 0 -38.43594964217376 0 0 1 0 0 0 1 forward_v I I I I #
coedge $-1 $321 $322 $223 $323 forward $135 $-1 #
coedge $-1 $231 $137 $222 $323 reversed $85 $-1 #
coedge $-1 $229 $324 $137 $225 forward $220 $-1 #
edge $-1 $325 -8.8221900418485486 $232 -1.6924227612030611 $224 $326 forward 7 unknown #
coedge $-1 $139 $138 $327 $328 reversed $54 $-1 #
coedge $-1 $329 $330 $138 $228 forward $331 $-1 #
edge $-1 $332 -44.419809630495209 $233 -26.457359340577121 $227 $333 forward 7 unknown #
coedge $-1 $334 $224 $139 $230 forward $220 $-1 #
edge $-1 $232 26.457359340577121 $335 44.419809630495209 $229 $336 forward 7 unknown #
coedge $-1 $140 $223 $329 $337 reversed $85 $-1 #
vertex $-1 $230 $338 #
vertex $-1 $228 $339 #
straight-curve $-1 -61.895943826113289 0 -6.9497291627288655 0 1 0 I I #
face $-1 $-1 $247 $32 $-1 $340 reversed single #
loop $-1 $-1 $341 $142 #
plane-surface $-1 0 0 14.079496443374353 0 0 1 1 0 0 forward_v I I I I #
coedge $-1 $342 $343 $344 $345 reversed $143 $-1 #
coedge $-1 $346 $145 $147 $245 forward $89 $-1 #
coedge $-1 $145 $346 $342 $347 forward $89 $-1 #
coedge $-1 $344 $148 $145 $242 forward $247 $-1 #
edge $-1 $249 13.859998775133235 $348 44.574231786633973 $241 $349 forward 7 unknown #
coedge $-1 $350 $351 $146 $244 forward $236 $-1 #
edge $-1 $352 -50.617933353244453 $248 -36.256327754728765 $243 $353 forward 7 unknown #
edge $-1 $249 -9.8735354999796465e-015 $352 19.96498143032348 $147 $354 forward 7 unknown #
coedge $-1 $148 $344 $350 $355 reversed $247 $-1 #
loop $-1 $-1 $344 $235 #
vertex $-1 $355 $356 #
vertex $-1 $149 $357 #
straight-curve $-1 43.077114056016839 -38.43594964217376 57.55064805635773 0 0 -1 I I #
coedge $-1 $251 $251 $-1 $358 reversed $152 $-1 #
edge $-1 $359 0 $359 6.2831853071796004 $153 $360 forward 7 unknown #
vertex $-1 $156 $361 #
ellipse-curve $-1 49.219960658317007 -31.255146842915916 7.1450756285938457 0 -0.69465837861970381 0.71933979245794832 2 0 0 1 I I #
coedge $-1 $255 $255 $-1 $362 reversed $159 $-1 #
edge $-1 $363 0 $363 6.2831853071796004 $160 $364 forward 7 unknown #
vertex $-1 $163 $365 #
ellipse-curve $-1 58.434230561767237 -31.255146842915916 7.1450756285938457 0 -0.69465837861970381 0.71933979245794832 2 0 0 1 I I #
coedge $-1 $259 $259 $-1 $366 reversed $166 $-1 #
edge $-1 $367 0 $367 6.2831853071796004 $167 $368 forward 7 unknown #
vertex $-1 $170 $369 #
ellipse-curve $-1 67.648500465217467 -31.255146842915916 7.1450756285938457 0 -0.69465837861970381 0.71933979245794832 2 0 0 1 I I #
face $-1 $-1 $275 $36 $-1 $370 forward single #
loop $-1 $-1 $371 $171 #
plane-surface $-1 0 38.43594964217376 0 0 -1 0 0 0 -1 forward_v I I I I #
coedge $-1 $372 $373 $374 $375 reversed $172 $-1 #
coedge $-1 $376 $174 $176 $273 forward $108 $-1 #
coedge $-1 $174 $376 $372 $377 forward $108 $-1 #
coedge $-1 $374 $177 $174 $270 forward $275 $-1 #
edge $-1 $277 -14.761657442664706 $378 8.5479695682325385 $269 $379 forward 7 unknown #
coedge $-1 $380 $381 $175 $272 forward $264 $-1 #
edge $-1 $382 -80.929498453319638 $276 -74.226978050019113 $271 $383 forward 7 unknown #
edge $-1 $277 67.044133242507556 $382 76.871899284347478 $176 $384 forward 7 unknown #
coedge $-1 $177 $374 $380 $385 forward $275 $-1 #
loop $-1 $-1 $374 $263 #
vertex $-1 $272 $386 #
vertex $-1 $178 $387 #
straight-curve $-1 -17.86850137988079 45.570995537542856 14.079496443374353 0 -1 0 I I #
coedge $-1 $279 $279 $-1 $388 reversed $181 $-1 #
edge $-1 $389 0 $389 6.2831853071796004 $182 $390 forward 7 unknown #
vertex $-1 $185 $391 #
ellipse-curve $-1 -13.206575977701334 34.842163142655387 10.728236241724092 0 0.68199836817093118 0.7313536940579346 1.5 0 0 1 I I #
coedge $-1 $283 $283 $-1 $392 reversed $188 $-1 #
edge $-1 $393 0 $393 6.2831853071796004 $189 $394 forward 7 unknown #
vertex $-1 $192 $395 #
ellipse-curve $-1 -6.2136878744321677 34.842163142655387 10.728236241724092 0 0.68199836817093118 0.7313536940579346 1.5 0 0 1 I I #
coedge $-1 $287 $287 $-1 $396 reversed $195 $-1 #
edge $-1 $397 0 $397 6.2831853071796004 $196 $398 forward 7 unknown #
vertex $-1 $199 $399 #
ellipse-curve $-1 0.77920022883699858 34.842163142655387 10.728236241724092 0 0.68199836817093118 0.7313536940579346 1.5 0 0 1 I I #
face $-1 $-1 $215 $30 $-1 $400 reversed single #
loop $-1 $-1 $307 $200 #
plane-surface $-1 0 38.43594964217376 0 0 -1 0 0 0 -1 forward_v I I I I #
coedge $-1 $401 $305 $308 $402 forward $201 $-1 #
coedge $-1 $311 $203 $204 $299 reversed $127 $-1 #
coedge $-1 $305 $401 $203 $297 reversed $201 $-1 #
edge $-1 $312 -14.079496443374353 $403 14.079496443374353 $296 $404 forward 7 unknown #
coedge $-1 $205 $204 $401 $405 forward $81 $-1 #
edge $-1 $303 -79.858394116031377 $403 79.858394116031377 $295 $406 forward 7 unknown #
coedge $-1 $308 $307 $205 $301 reversed $292 $-1 #
edge $-1 $407 -79.858394116031377 $302 79.858394116031377 $300 $408 forward 7 unknown #
vertex $-1 $207 $409 #
vertex $-1 $314 $410 #
straight-curve $-1 79.858394116031377 0 -14.079496443374353 0 -1 0 I I #
coedge $-1 $294 $296 $208 $306 reversed $201 $-1 #
edge $-1 $309 -38.43594964217376 $312 38.43594964217376 $305 $411 forward 7 unknown #
coedge $-1 $300 $209 $214 $315 forward $292 $-1 #
coedge $-1 $209 $300 $294 $402 reversed $292 $-1 #
vertex $-1 $210 $412 #
straight-curve $-1 0 38.43594964217376 14.079496443374353 -1 0 0 I I #
coedge $-1 $211 $295 $213 $314 reversed $127 $-1 #
vertex $-1 $306 $413 #
straight-curve $-1 0 -38.43594964217376 14.079496443374353 1 0 0 I I #
edge $-1 $216 -14.079496443374353 $303 14.079496443374353 $213 $414 forward 7 unknown #
edge $-1 $217 -14.079496443374353 $302 14.079496443374353 $214 $415 forward 7 unknown #
point $-1 79.858394116031377 -38.43594964217376 14.079496443374353 #
point $-1 79.858394116031377 38.43594964217376 14.079496443374353 #
face $-1 $-1 $331 $31 $-1 $416 reversed single #
loop $-1 $-1 $327 $219 #
plane-surface $-1 -79.858394116031377 0 0 1 0 0 0 0 -1 forward_v I I I I #
coedge $-1 $417 $222 $324 $418 forward $135 $-1 #
coedge $-1 $222 $417 $419 $420 forward $135 $-1 #
edge $-1 $421 -38.43594964217376 $325 38.43594964217376 $222 $422 forward 7 unknown #
coedge $-1 $224 $334 $321 $418 reversed $220 $-1 #
vertex $-1 $418 $423 #
straight-curve $-1 -61.895943826113289 -38.43594964217376 -5.2573064015258044 0 0 1 I I #
coedge $-1 $424 $425 $226 $328 forward $319 $-1 #
edge $-1 $335 -38.43594964217376 $332 38.43594964217376 $327 $426 forward 7 unknown #
coedge $-1 $419 $227 $231 $337 forward $331 $-1 #
coedge $-1 $227 $419 $424 $427 reversed $331 $-1 #
loop $-1 $-1 $329 $318 #
vertex $-1 $427 $428 #
straight-curve $-1 -35.438584485536168 38.43594964217376 -6.9497291627288655 1 0 0 I I #
coedge $-1 $324 $229 $425 $429 forward $220 $-1 #
vertex $-1 $429 $430 #
straight-curve $-1 -35.438584485536168 -38.43594964217376 -6.9497291627288655 -1 0 0 I I #
edge $-1 $233 1.6924227612030611 $421 8.8221900418485486 $329 $431 forward 7 unknown #
point $-1 -61.895943826113289 -38.43594964217376 -6.9497291627288655 #
point $-1 -61.895943826113289 38.43594964217376 -6.9497291627288655 #
plane-surface $-1 0 -38.43594964217376 0 0 1 0 0 0 1 forward_v I I I I #
coedge $-1 $351 $350 $343 $432 forward $236 $-1 #
coedge $-1 $343 $238 $240 $347 reversed $143 $-1 #
coedge $-1 $238 $342 $341 $432 reversed $143 $-1 #
coedge $-1 $246 $241 $238 $345 forward $247 $-1 #
edge $-1 $348 -57.339993242544388 $433 -43.471151612983377 $344 $434 forward 7 unknown #
coedge $-1 $240 $239 $351 $435 reversed $89 $-1 #
edge $-1 $436 -19.96498143032348 $348 9.8735354999796465e-015 $342 $437 forward 7 unknown #
vertex $-1 $242 $438 #
straight-curve $-1 29.217115280883604 -38.43594964217376 0.21065481381334086 1 0 0 I I #
coedge $-1 $341 $243 $246 $355 forward $236 $-1 #
coedge $-1 $243 $341 $346 $435 forward $236 $-1 #
vertex $-1 $244 $439 #
straight-curve $-1 43.077114056016839 -74.692277396902526 14.079496443374353 0 -1 0 I I #
straight-curve $-1 43.077114056016839 -38.435949642173753 0.21065481381334905 0 0.71933979245794832 0.69465837861970381 I I #
edge $-1 $248 43.077114056016839 $433 73.791347067517577 $246 $440 forward 7 unknown #
point $-1 43.077114056016839 -38.43594964217376 14.079496443374353 #
point $-1 43.077114056016839 -38.43594964217376 0.2106548138133422 #
edge $-1 $441 1 $441 0 $251 $-1 forward 7 unknown #
vertex $-1 $252 $442 #
ellipse-curve $-1 49.219960658317007 -28.517768408389312 4.310437343680519 0 -0.69465837861970381 0.71933979245794832 2 0 0 1 I I #
point $-1 51.219960658317007 -31.255146842915924 7.1450756285938537 #
edge $-1 $443 1 $443 0 $255 $-1 forward 7 unknown #
vertex $-1 $256 $444 #
ellipse-curve $-1 58.434230561767237 -28.517768408389312 4.310437343680519 0 -0.69465837861970381 0.71933979245794832 2 0 0 1 I I #
point $-1 60.434230561767237 -31.255146842915924 7.1450756285938537 #
edge $-1 $445 1 $445 0 $259 $-1 forward 7 unknown #
vertex $-1 $260 $446 #
ellipse-curve $-1 67.648500465217467 -28.517768408389312 4.310437343680519 0 -0.69465837861970381 0.71933979245794832 2 0 0 1 I I #
point $-1 69.648500465217467 -31.255146842915924 7.1450756285938537 #
plane-surface $-1 0 0 14.079496443374353 0 0 1 1 0 0 forward_v I I I I #
coedge $-1 $381 $380 $373 $447 forward $264 $-1 #
coedge $-1 $373 $266 $268 $377 reversed $172 $-1 #
coedge $-1 $266 $372 $371 $447 reversed $172 $-1 #
coedge $-1 $274 $269 $266 $375 forward $275 $-1 #
edge $-1 $378 -14.322618894405849 $448 -7.1350458953690961 $374 $449 forward 7 unknown #
coedge $-1 $268 $267 $381 $450 reversed $108 $-1 #
edge $-1 $451 -76.871899284347478 $378 -67.044133242507556 $372 $452 forward 7 unknown #
vertex $-1 $270 $453 #
straight-curve $-1 -3.1068439372160839 31.248376643137011 14.079496443374353 1 0 0 I I #
coedge $-1 $371 $271 $274 $385 reversed $264 $-1 #
coedge $-1 $271 $371 $376 $450 forward $264 $-1 #
vertex $-1 $272 $454 #
straight-curve $-1 -17.86850137988079 38.43594964217376 88.306474493393466 0 0 1 I I #
straight-curve $-1 -17.86850137988079 -17.784597868683264 59.803485910198987 0 0.7313536940579346 -0.68199836817093118 I I #
edge $-1 $448 -5.4411256310164546 $276 17.86850137988079 $380 $455 forward 7 unknown #
point $-1 -17.86850137988079 38.43594964217376 14.079496443374353 #
point $-1 -17.86850137988079 31.248376643137007 14.079496443374353 #
edge $-1 $456 1 $456 0 $279 $-1 forward 7 unknown #
vertex $-1 $280 $457 #
ellipse-curve $-1 -13.206575977701334 33.425789048193991 9.2093610148955669 0 0.68199836817093118 0.7313536940579346 1.5 0 0 1 I I #
point $-1 -11.706575977701334 34.842163142655366 10.728236241724067 #
edge $-1 $458 1 $458 0 $283 $-1 forward 7 unknown #
vertex $-1 $284 $459 #
ellipse-curve $-1 -6.2136878744321677 33.425789048193991 9.2093610148955669 0 0.68199836817093118 0.7313536940579346 1.5 0 0 1 I I #
point $-1 -4.7136878744321677 34.842163142655366 10.728236241724067 #
edge $-1 $460 1 $460 0 $287 $-1 forward 7 unknown #
vertex $-1 $288 $461 #
ellipse-curve $-1 0.77920022883699858 33.425789048193991 9.2093610148955669 0 0.68199836817093118 0.7313536940579346 1.5 0 0 1 I I #
point $-1 2.2792002288369986 34.842163142655366 10.728236241724067 #
plane-surface $-1 79.858394116031377 0 0 -1 0 0 0 0 1 forward_v I I I I #
coedge $-1 $296 $294 $298 $405 reversed $201 $-1 #
edge $-1 $309 -14.079496443374353 $407 14.079496443374353 $308 $462 forward 7 unknown #
vertex $-1 $405 $463 #
straight-curve $-1 -79.858394116031377 -38.43594964217376 0 0 0 -1 I I #
edge $-1 $403 -38.43594964217376 $407 38.43594964217376 $401 $464 forward 7 unknown #
straight-curve $-1 0 -38.43594964217376 -14.079496443374353 -1 0 0 I I #
vertex $-1 $301 $465 #
straight-curve $-1 0 38.43594964217376 -14.079496443374353 1 0 0 I I #
point $-1 79.858394116031377 38.43594964217376 -14.079496443374353 #
point $-1 79.858394116031377 -38.43594964217376 -14.079496443374353 #
straight-curve $-1 -79.858394116031377 0 14.079496443374353 0 -1 0 I I #
point $-1 -79.858394116031377 38.43594964217376 14.079496443374353 #
point $-1 -79.858394116031377 -38.43594964217376 14.079496443374353 #
straight-curve $-1 79.858394116031377 -38.43594964217376 0 0 0 -1 I I #
straight-curve $-1 79.858394116031377 38.43594964217376 0 0 0 -1 I I #
plane-surface $-1 0 38.43594964217376 0 0 -1 0 0 0 -1 forward_v I I I I #
coedge $-1 $322 $321 $466 $467 forward $135 $-1 #
edge $-1 $325 61.895943826113289 $468 79.858394116031377 $324 $469 forward 7 unknown #
coedge $-1 $330 $329 $322 $420 reversed $331 $-1 #
edge $-1 $470 -79.858394116031377 $421 -61.895943826113289 $419 $471 forward 7 unknown #
vertex $-1 $337 $472 #
straight-curve $-1 -61.895943826113289 0 -14.079496443374353 0 -1 0 I I #
point $-1 -61.895943826113289 -38.43594964217376 -14.079496443374353 #
coedge $-1 $466 $327 $330 $427 forward $319 $-1 #
coedge $-1 $327 $466 $334 $429 reversed $319 $-1 #
straight-curve $-1 -79.858394116031377 0 -6.9497291627288655 0 1 0 I I #
edge $-1 $332 6.9497291627288655 $470 14.079496443374353 $330 $473 forward 7 unknown #
point $-1 -79.858394116031377 38.43594964217376 -6.9497291627288655 #
edge $-1 $335 6.9497291627288655 $468 14.079496443374353 $425 $474 forward 7 unknown #
point $-1 -79.858394116031377 -38.43594964217376 -6.9497291627288655 #
straight-curve $-1 -61.895943826113289 38.43594964217376 -5.2573064015258044 0 0 -1 I I #
edge $-1 $433 36.256327754728765 $436 50.617933353244453 $341 $475 forward 7 unknown #
vertex $-1 $345 $476 #
straight-curve $-1 73.791347067517577 -38.43594964217376 57.55064805635773 0 0 1 I I #
edge $-1 $436 -44.574231786633973 $352 -13.859998775133235 $351 $477 forward 7 unknown #
vertex $-1 $435 $478 #
straight-curve $-1 73.791347067517577 -38.435949642173753 0.21065481381334905 0 -0.71933979245794832 -0.69465837861970381 I I #
point $-1 73.791347067517577 -38.43594964217376 0.2106548138133422 #
point $-1 43.077114056016839 -24.074344043658069 14.079496443374353 #
straight-curve $-1 0 -38.43594964217376 14.079496443374353 1 0 0 I I #
vertex $-1 $358 $479 #
point $-1 51.219960658317007 -28.517768408389312 4.310437343680519 #
vertex $-1 $362 $480 #
point $-1 60.434230561767237 -28.517768408389312 4.310437343680519 #
vertex $-1 $366 $481 #
point $-1 69.648500465217467 -28.517768408389312 4.310437343680519 #
edge $-1 $448 74.226978050019113 $451 80.929498453319638 $371 $482 forward 7 unknown #
vertex $-1 $385 $483 #
straight-curve $-1 5.4411256310164546 45.570995537542856 14.079496443374353 0 1 0 I I #
edge $-1 $451 -8.5479695682325385 $382 14.761657442664706 $381 $484 forward 7 unknown #
vertex $-1 $450 $485 #
straight-curve $-1 5.4411256310164546 -17.784597868683264 59.803485910198987 0 -0.7313536940579346 0.68199836817093118 I I #
point $-1 5.4411256310164546 31.248376643137007 14.079496443374353 #
point $-1 -17.86850137988079 38.43594964217376 7.3769760400738349 #
straight-curve $-1 0 38.43594964217376 14.079496443374353 -1 0 0 I I #
vertex $-1 $388 $486 #
point $-1 -11.706575977701334 33.425789048193991 9.2093610148955669 #
vertex $-1 $392 $487 #
point $-1 -4.7136878744321677 33.425789048193991 9.2093610148955669 #
vertex $-1 $396 $488 #
point $-1 2.2792002288369986 33.425789048193991 9.2093610148955669 #
straight-curve $-1 -79.858394116031377 38.43594964217376 0 0 0 -1 I I #
point $-1 -79.858394116031377 -38.43594964217376 -14.079496443374353 #
straight-curve $-1 -79.858394116031377 0 -14.079496443374353 0 1 0 I I #
point $-1 -79.858394116031377 38.43594964217376 -14.079496443374353 #
coedge $-1 $425 $424 $417 $467 reversed $319 $-1 #
edge $-1 $468 -38.43594964217376 $470 38.43594964217376 $466 $489 forward 7 unknown #
vertex $-1 $467 $490 #
straight-curve $-1 0 -38.43594964217376 -14.079496443374353 -1 0 0 I I #
vertex $-1 $420 $491 #
straight-curve $-1 0 38.43594964217376 -14.079496443374353 1 0 0 I I #
point $-1 -61.895943826113289 38.43594964217376 -14.079496443374353 #
straight-curve $-1 -79.858394116031377 38.43594964217376 0 0 0 -1 I I #
straight-curve $-1 -79.858394116031377 -38.43594964217376 0 0 0 -1 I I #
straight-curve $-1 73.791347067517577 -74.692277396902526 14.079496443374353 0 1 0 I I #
point $-1 73.791347067517577 -38.43594964217376 14.079496443374353 #
straight-curve $-1 29.217115280883604 -24.074344043658069 14.079496443374353 -1 0 0 I I #
point $-1 73.791347067517577 -24.074344043658069 14.079496443374353 #
point $-1 49.219960658317007 -27.128451651149906 2.8717577587646228 #
point $-1 58.434230561767237 -27.128451651149906 2.8717577587646228 #
point $-1 67.648500465217467 -27.128451651149906 2.8717577587646228 #
straight-curve $-1 5.4411256310164546 38.43594964217376 88.306474493393466 0 0 -1 I I #
point $-1 5.4411256310164546 38.43594964217376 14.079496443374353 #
straight-curve $-1 -3.1068439372160839 38.435949642173753 7.3769760400738384 -1 0 0 I I #
point $-1 5.4411256310164546 38.43594964217376 7.3769760400738349 #
point $-1 -13.206575977701334 32.402791495937592 8.1123304738086652 #
point $-1 -6.2136878744321677 32.402791495937592 8.1123304738086652 #
point $-1 0.77920022883699858 32.402791495937592 8.1123304738086652 #
straight-curve $-1 -79.858394116031377 0 -14.079496443374353 0 1 0 I I #
point $-1 -79.858394116031377 -38.43594964217376 -14.079496443374353 #
point $-1 -79.858394116031377 38.43594964217376 -14.079496443374353 #
End-of-ACIS-data 