500 0 8 0           
7 Unknown 11 ACIS 5.0 NT 24 Fri Mar 26 17:06:19 1999 
-1 9.9999999999999995e-007 1e-010 
body $-1 $8 $-1 $9 #
body $-1 $10 $-1 $11 #
body $-1 $12 $-1 $13 #
body $-1 $14 $-1 $15 #
body $-1 $16 $-1 $17 #
body $-1 $18 $-1 $19 #
body $-1 $20 $-1 $21 #
body $-1 $22 $-1 $23 #
lump $-1 $-1 $24 $0 #
transform $-1 1 0 0 0 1 0 0 0 1 62.659382915738391 26.809465335971485 5.9961500186529326 1 rotate no_reflect no_shear #
lump $-1 $-1 $25 $1 #
transform $-1 1 0 0 0 1 0 0 0 1 62.659382915738391 26.809465335971485 5.9961500186529326 1 rotate no_reflect no_shear #
lump $-1 $-1 $26 $2 #
transform $-1 1 0 0 0 1 0 0 0 1 62.659382915738391 26.809465335971485 5.9961500186529326 1 rotate no_reflect no_shear #
lump $-1 $-1 $27 $3 #
transform $-1 1 0 0 0 1 0 0 0 1 62.659382915738391 26.809465335971485 5.9961500186529326 1 rotate no_reflect no_shear #
lump $-1 $-1 $28 $4 #
transform $-1 1 0 0 0 1 0 0 0 1 62.659382915738391 26.809465335971485 5.9961500186529326 1 rotate no_reflect no_shear #
lump $-1 $-1 $29 $5 #
transform $-1 1 0 0 0 1 0 0 0 1 62.659382915738391 26.809465335971485 5.9961500186529326 1 rotate no_reflect no_shear #
lump $-1 $-1 $30 $6 #
transform $-1 1 0 0 0 1 0 0 0 1 62.659382915738391 26.809465335971485 5.9961500186529326 1 rotate no_reflect no_shear #
lump $-1 $-1 $31 $7 #
transform $-1 1 0 0 0 1 0 0 0 1 62.659382915738391 26.809465335971485 5.9961500186529326 1 rotate no_reflect no_shear #
shell $-1 $-1 $-1 $32 $-1 $8 #
shell $-1 $-1 $-1 $33 $-1 $10 #
shell $-1 $-1 $-1 $34 $-1 $12 #
shell $-1 $-1 $-1 $35 $-1 $14 #
shell $-1 $-1 $-1 $36 $-1 $16 #
shell $-1 $-1 $-1 $37 $-1 $18 #
shell $-1 $-1 $-1 $38 $-1 $20 #
shell $-1 $-1 $-1 $39 $-1 $22 #
face $-1 $40 $41 $24 $-1 $42 forward single #
face $-1 $43 $44 $25 $-1 $45 forward single #
face $-1 $46 $47 $26 $-1 $48 reversed single #
face $-1 $49 $50 $27 $-1 $51 forward single #
face $-1 $52 $53 $28 $-1 $54 forward single #
face $-1 $55 $56 $29 $-1 $57 reversed single #
face $-1 $58 $59 $30 $-1 $60 forward single #
face $-1 $61 $62 $31 $-1 $63 forward single #
face $-1 $64 $65 $24 $-1 $66 reversed single #
loop $-1 $-1 $67 $32 #
plane-surface $-1 0 0 5.9961500186529326 0 0 1 1 0 0 forward_v I I I I #
face $-1 $68 $69 $25 $-1 $70 reversed single #
loop $-1 $-1 $71 $33 #
plane-surface $-1 0 -26.809465335971485 0 0 1 0 0 0 1 forward_v I I I I #
face $-1 $72 $73 $26 $-1 $74 reversed single #
loop $-1 $-1 $75 $34 #
plane-surface $-1 65.752431348879199 20.516397004058994 178.50313182999605 0 1 0 0.71933980857756763 0 0.69465836192734942 forward_v I I I I #
face $-1 $76 $77 $27 $-1 $78 forward single #
loop $-1 $79 $80 $35 #
cone-surface $-1 60.005667738283336 22.314416527462566 3.2752092143146259 -0.71933980857756763 0 -0.69465836192734942 0.34732918096367471 0 -0.35966990428878381 1 I I 0 1 0.5 forward I I I I #
face $-1 $81 $82 $28 $-1 $83 forward single #
loop $-1 $84 $85 $36 #
cone-surface $-1 60.005667738283336 25.011445812567917 3.2752092143146259 -0.71933980857756763 0 -0.69465836192734942 0.34732918096367471 0 -0.35966990428878381 1 I I 0 1 0.5 forward I I I I #
face $-1 $86 $87 $29 $-1 $88 reversed single #
loop $-1 $-1 $89 $37 #
plane-surface $-1 -160.05035671349094 -0.55175476542784274 81.072236044279265 0 1 0 -0.77714596973225614 0 0.62932038083071107 forward_v I I I I #
face $-1 $90 $91 $30 $-1 $92 forward single #
loop $-1 $93 $94 $38 #
cone-surface $-1 -60.736444380376724 2.0552964990278149 3.7867061219008966 0.77714596973225614 0 -0.62932038083071107 0.31466019041535553 0 0.38857298486612807 1 I I 0 1 0.5 forward I I I I #
face $-1 $95 $96 $31 $-1 $97 forward single #
loop $-1 $98 $99 $39 #
cone-surface $-1 -60.736444380376724 5.9658733957113022 3.7867061219008966 0.77714596973225614 0 -0.62932038083071107 0.31466019041535553 0 0.38857298486612807 1 I I 0 1 0.5 forward I I I I #
face $-1 $100 $101 $24 $-1 $102 reversed single #
loop $-1 $-1 $103 $40 #
plane-surface $-1 0 0 -5.9961500186529326 0 0 1 1 0 0 forward_v I I I I #
coedge $-1 $104 $105 $106 $107 forward $41 $-1 #
face $-1 $108 $109 $25 $-1 $110 reversed single #
loop $-1 $-1 $111 $43 #
plane-surface $-1 0 0 -5.9961500186529326 0 0 1 1 0 0 forward_v I I I I #
coedge $-1 $112 $113 $114 $115 forward $44 $-1 #
face $-1 $116 $117 $26 $-1 $118 forward single #
loop $-1 $-1 $119 $46 #
plane-surface $-1 -24.394345675512341 23.662931170015238 91.44940323874529 0.71933980857756763 0 0.69465836192734942 0.69465836192734942 0 -0.71933980857756763 forward_v I I I I #
coedge $-1 $120 $121 $122 $123 reversed $47 $-1 #
face $-1 $-1 $124 $27 $-1 $125 forward single #
loop $-1 $126 $127 $49 #
cone-surface $-1 59.438359180944872 22.314416527462566 2.7273657216440705 -0.71933980857756763 0 -0.69465836192734942 0.17366459048183736 0 -0.17983495214439191 1 I I -0.70710678118654746 0.70710678118654746 0.25 forward I I I I #
loop $-1 $-1 $128 $35 #
coedge $-1 $80 $80 $129 $130 reversed $50 $-1 #
face $-1 $-1 $131 $28 $-1 $132 forward single #
loop $-1 $133 $134 $52 #
cone-surface $-1 59.438359180944872 25.011445812567917 2.7273657216440705 -0.71933980857756763 0 -0.69465836192734942 0.17366459048183736 0 -0.17983495214439191 1 I I -0.70710678118654746 0.70710678118654746 0.25 forward I I I I #
loop $-1 $-1 $135 $36 #
coedge $-1 $85 $85 $136 $137 reversed $53 $-1 #
face $-1 $138 $139 $29 $-1 $140 reversed single #
loop $-1 $-1 $141 $55 #
plane-surface $-1 -62.659382915738391 4.0105849473695621 2.206582605979591 -0.77714596973225614 0 0.62932038083071107 0.62932038083071107 0 0.77714596973225614 forward_v I I I I #
coedge $-1 $142 $143 $144 $145 reversed $56 $-1 #
face $-1 $-1 $146 $30 $-1 $147 forward single #
loop $-1 $148 $149 $58 #
cone-surface $-1 -60.15358490307753 2.0552964990278149 3.3147158362778635 0.77714596973225614 0 -0.62932038083071107 0.15733009520767777 0 0.19428649243306403 1 I I -0.70710678118654746 0.70710678118654746 0.25 forward I I I I #
loop $-1 $-1 $150 $38 #
coedge $-1 $94 $94 $151 $152 reversed $59 $-1 #
face $-1 $-1 $153 $31 $-1 $154 forward single #
loop $-1 $155 $156 $61 #
cone-surface $-1 -60.15358490307753 5.9658733957113022 3.3147158362778635 0.77714596973225614 0 -0.62932038083071107 0.15733009520767777 0 0.19428649243306403 1 I I -0.70710678118654746 0.70710678118654746 0.25 forward I I I I #
loop $-1 $-1 $157 $39 #
coedge $-1 $99 $99 $158 $159 reversed $62 $-1 #
face $-1 $160 $161 $24 $-1 $162 reversed single #
loop $-1 $-1 $163 $64 #
plane-surface $-1 0 -26.809465335971485 0 0 1 0 0 0 1 forward_v I I I I #
coedge $-1 $164 $165 $166 $167 forward $65 $-1 #
coedge $-1 $168 $67 $169 $170 forward $41 $-1 #
coedge $-1 $67 $168 $171 $172 forward $41 $-1 #
coedge $-1 $173 $174 $67 $107 reversed $175 $-1 #
edge $-1 $176 -26.809465335971485 $177 26.809465335971485 $106 $178 forward 7 unknown #
face $-1 $179 $180 $25 $-1 $181 forward single #
loop $-1 $-1 $182 $68 #
plane-surface $-1 62.659382915738391 0 0 -1 0 0 0 0 1 forward_v I I I I #
coedge $-1 $183 $184 $185 $186 forward $69 $-1 #
coedge $-1 $185 $71 $182 $187 reversed $44 $-1 #
coedge $-1 $71 $185 $188 $189 reversed $44 $-1 #
coedge $-1 $190 $191 $71 $115 reversed $180 $-1 #
edge $-1 $192 -62.659382915738391 $193 62.659382915738391 $114 $194 forward 7 unknown #
face $-1 $195 $196 $26 $-1 $197 reversed single #
loop $-1 $-1 $198 $72 #
plane-surface $-1 0 0 5.9961500186529326 0 0 1 1 0 0 forward_v I I I I #
coedge $-1 $199 $200 $201 $202 reversed $73 $-1 #
coedge $-1 $121 $75 $203 $204 reversed $47 $-1 #
coedge $-1 $75 $120 $199 $205 reversed $47 $-1 #
coedge $-1 $201 $206 $75 $123 forward $207 $-1 #
edge $-1 $208 83.255415896345099 $209 87.948939700644246 $122 $210 forward 7 unknown #
loop $-1 $-1 $129 $76 #
plane-surface $-1 -24.394345675512341 23.662931170015238 91.44940323874529 0.71933980857756763 0 0.69465836192734942 0.69465836192734942 0 -0.71933980857756763 forward_v I I I I #
loop $-1 $-1 $211 $49 #
coedge $-1 $127 $127 $128 $212 reversed $77 $-1 #
coedge $-1 $128 $128 $127 $212 forward $79 $-1 #
coedge $-1 $129 $129 $80 $130 forward $124 $-1 #
edge $-1 $213 0 $213 6.2831853071796004 $129 $214 forward 7 unknown #
loop $-1 $-1 $136 $81 #
plane-surface $-1 -24.394345675512341 23.662931170015238 91.44940323874529 0.71933980857756763 0 0.69465836192734942 0.69465836192734942 0 -0.71933980857756763 forward_v I I I I #
loop $-1 $-1 $215 $52 #
coedge $-1 $134 $134 $135 $216 reversed $82 $-1 #
coedge $-1 $135 $135 $134 $216 forward $84 $-1 #
coedge $-1 $136 $136 $85 $137 forward $131 $-1 #
edge $-1 $217 0 $217 6.2831853071796004 $136 $218 forward 7 unknown #
face $-1 $219 $220 $29 $-1 $221 reversed single #
loop $-1 $-1 $222 $86 #
plane-surface $-1 -160.05035671349094 8.5729246601669669 81.072236044279265 0 -1 0 0.77714596973225614 0 -0.62932038083071107 forward_v I I I I #
coedge $-1 $223 $224 $225 $226 reversed $87 $-1 #
coedge $-1 $143 $89 $227 $228 reversed $56 $-1 #
coedge $-1 $89 $142 $223 $229 reversed $56 $-1 #
coedge $-1 $225 $230 $89 $145 forward $231 $-1 #
edge $-1 $232 17.36579544100708 $233 20.434526541998153 $144 $234 forward 7 unknown #
loop $-1 $-1 $151 $90 #
plane-surface $-1 -62.659382915738391 4.0105849473695621 2.206582605979591 -0.77714596973225614 0 0.62932038083071107 0.62932038083071107 0 0.77714596973225614 forward_v I I I I #
loop $-1 $-1 $235 $58 #
coedge $-1 $149 $149 $150 $236 reversed $91 $-1 #
coedge $-1 $150 $150 $149 $236 forward $93 $-1 #
coedge $-1 $151 $151 $94 $152 forward $146 $-1 #
edge $-1 $237 0 $237 6.2831853071796004 $151 $238 forward 7 unknown #
loop $-1 $-1 $158 $95 #
plane-surface $-1 -62.659382915738391 4.0105849473695621 2.206582605979591 -0.77714596973225614 0 0.62932038083071107 0.62932038083071107 0 0.77714596973225614 forward_v I I I I #
loop $-1 $-1 $239 $61 #
coedge $-1 $156 $156 $157 $240 reversed $96 $-1 #
coedge $-1 $157 $157 $156 $240 forward $98 $-1 #
coedge $-1 $158 $158 $99 $159 forward $153 $-1 #
edge $-1 $241 0 $241 6.2831853071796004 $158 $242 forward 7 unknown #
face $-1 $243 $244 $24 $-1 $245 reversed single #
loop $-1 $-1 $246 $100 #
plane-surface $-1 -62.659382915738391 0 0 1 0 0 0 0 -1 forward_v I I I I #
coedge $-1 $171 $247 $173 $248 reversed $101 $-1 #
coedge $-1 $249 $103 $247 $250 forward $65 $-1 #
coedge $-1 $103 $249 $251 $252 forward $65 $-1 #
coedge $-1 $174 $173 $103 $167 reversed $175 $-1 #
edge $-1 $253 -26.809465335971485 $254 26.809465335971485 $166 $255 forward 7 unknown #
coedge $-1 $105 $104 $256 $257 forward $41 $-1 #
coedge $-1 $258 $259 $104 $170 reversed $244 $-1 #
edge $-1 $177 -62.659382915738391 $260 62.659382915738391 $169 $261 forward 7 unknown #
coedge $-1 $262 $163 $105 $172 reversed $101 $-1 #
edge $-1 $263 -62.659382915738391 $176 62.659382915738391 $171 $264 forward 7 unknown #
coedge $-1 $166 $106 $163 $248 forward $175 $-1 #
coedge $-1 $106 $166 $258 $265 reversed $175 $-1 #
loop $-1 $-1 $173 $243 #
vertex $-1 $107 $266 #
vertex $-1 $107 $267 #
straight-curve $-1 62.659382915738391 0 5.9961500186529326 0 1 0 I I #
face $-1 $268 $269 $25 $-1 $270 reversed single #
loop $-1 $-1 $191 $108 #
plane-surface $-1 0 -30.292577588711779 -2.4917135262302255 0 0 1 1 0 0 forward_v I I I I #
coedge $-1 $271 $272 $112 $187 forward $109 $-1 #
coedge $-1 $273 $111 $272 $274 forward $69 $-1 #
coedge $-1 $111 $273 $275 $276 forward $69 $-1 #
coedge $-1 $113 $112 $111 $186 reversed $44 $-1 #
edge $-1 $277 -62.659382915738391 $278 62.659382915738391 $111 $279 forward 7 unknown #
edge $-1 $278 -5.9961500186529326 $193 -2.4917135262302255 $182 $280 forward 7 unknown #
coedge $-1 $275 $281 $113 $189 forward $282 $-1 #
edge $-1 $192 2.4917135262302255 $277 5.9961500186529326 $188 $283 forward 7 unknown #
coedge $-1 $284 $114 $281 $285 forward $180 $-1 #
coedge $-1 $114 $284 $271 $286 forward $180 $-1 #
vertex $-1 $189 $287 #
vertex $-1 $286 $288 #
straight-curve $-1 0 -26.809465335971485 -2.4917135262302255 1 0 0 I I #
face $-1 $-1 $207 $26 $-1 $289 reversed single #
loop $-1 $-1 $290 $116 #
plane-surface $-1 0 26.809465335971485 0 0 -1 0 0 0 -1 forward_v I I I I #
coedge $-1 $203 $291 $292 $293 forward $117 $-1 #
coedge $-1 $292 $119 $121 $205 forward $73 $-1 #
coedge $-1 $119 $292 $290 $294 reversed $73 $-1 #
coedge $-1 $295 $122 $119 $202 forward $207 $-1 #
edge $-1 $209 8.6849314190513756 $296 14.977999750963866 $201 $297 forward 7 unknown #
coedge $-1 $298 $198 $120 $204 forward $117 $-1 #
edge $-1 $299 25.250684096776844 $208 29.783167241298791 $203 $300 forward 7 unknown #
edge $-1 $209 -125.31876583147677 $299 -118.79399999990102 $121 $301 forward 7 unknown #
coedge $-1 $122 $295 $298 $302 reversed $207 $-1 #
loop $-1 $-1 $201 $195 #
vertex $-1 $302 $303 #
vertex $-1 $123 $304 #
straight-curve $-1 62.659382915738391 20.516397004058994 89.251565914998025 0 0 -1 I I #
coedge $-1 $211 $211 $-1 $305 reversed $126 $-1 #
edge $-1 $306 0 $306 6.2831853071796004 $127 $307 forward 7 unknown #
vertex $-1 $130 $308 #
ellipse-curve $-1 60.393141343477417 22.314416527462566 3.6493881165033528 0.71933980857756763 0 0.69465836192734942 0.34732918096367471 0 -0.35966990428878381 1 I I #
coedge $-1 $215 $215 $-1 $309 reversed $133 $-1 #
edge $-1 $310 0 $310 6.2831853071796004 $134 $311 forward 7 unknown #
vertex $-1 $137 $312 #
ellipse-curve $-1 60.393141343477417 25.011445812567917 3.6493881165033528 0.71933980857756763 0 0.69465836192734942 0.34732918096367471 0 -0.35966990428878381 1 I I #
face $-1 $-1 $231 $29 $-1 $313 forward single #
loop $-1 $-1 $314 $138 #
plane-surface $-1 -62.659382915738391 0 0 1 0 0 0 0 -1 forward_v I I I I #
coedge $-1 $315 $316 $317 $318 reversed $139 $-1 #
coedge $-1 $319 $141 $143 $229 forward $87 $-1 #
coedge $-1 $141 $319 $315 $320 forward $87 $-1 #
coedge $-1 $317 $144 $141 $226 forward $231 $-1 #
edge $-1 $233 -2.5570472391126238 $321 6.5676321864821858 $225 $322 forward 7 unknown #
coedge $-1 $323 $324 $142 $228 forward $220 $-1 #
edge $-1 $325 -38.329535416160041 $232 -34.539968003486699 $227 $326 forward 7 unknown #
edge $-1 $233 -4.8762620669305301 $325 0 $143 $327 forward 7 unknown #
coedge $-1 $144 $317 $323 $328 forward $231 $-1 #
loop $-1 $-1 $317 $219 #
vertex $-1 $228 $329 #
vertex $-1 $145 $330 #
straight-curve $-1 -80.025178356745471 -0.55175476542784274 5.9961500186529335 1 0 0 I I #
coedge $-1 $235 $235 $-1 $331 reversed $148 $-1 #
edge $-1 $332 0 $332 6.2831853071796004 $149 $333 forward 7 unknown #
vertex $-1 $152 $334 #
ellipse-curve $-1 -61.125017365242861 2.0552964990278149 4.1013663123162569 -0.77714596973225614 0 0.62932038083071107 0.31466019041535553 0 0.38857298486612807 1 I I #
coedge $-1 $239 $239 $-1 $335 reversed $155 $-1 #
edge $-1 $336 0 $336 6.2831853071796004 $156 $337 forward 7 unknown #
vertex $-1 $159 $338 #
ellipse-curve $-1 -61.125017365242861 5.9658733957113022 4.1013663123162569 -0.77714596973225614 0 0.62932038083071107 0.31466019041535553 0 0.38857298486612807 1 I I #
face $-1 $-1 $175 $24 $-1 $339 reversed single #
loop $-1 $-1 $258 $160 #
plane-surface $-1 0 26.809465335971485 0 0 -1 0 0 0 -1 forward_v I I I I #
coedge $-1 $340 $256 $259 $341 forward $161 $-1 #
coedge $-1 $163 $262 $164 $250 reversed $101 $-1 #
edge $-1 $176 -5.9961500186529326 $254 5.9961500186529326 $173 $342 forward 7 unknown #
coedge $-1 $165 $164 $340 $343 forward $65 $-1 #
edge $-1 $254 -62.659382915738391 $344 62.659382915738391 $247 $345 forward 7 unknown #
coedge $-1 $259 $258 $165 $252 reversed $244 $-1 #
edge $-1 $346 -62.659382915738391 $253 62.659382915738391 $251 $347 forward 7 unknown #
vertex $-1 $167 $348 #
vertex $-1 $248 $349 #
straight-curve $-1 62.659382915738391 0 -5.9961500186529326 0 -1 0 I I #
coedge $-1 $246 $350 $168 $257 reversed $161 $-1 #
edge $-1 $260 -26.809465335971485 $263 26.809465335971485 $256 $351 forward 7 unknown #
coedge $-1 $251 $169 $174 $265 forward $244 $-1 #
coedge $-1 $169 $251 $246 $341 reversed $244 $-1 #
vertex $-1 $170 $352 #
straight-curve $-1 0 26.809465335971485 5.9961500186529326 -1 0 0 I I #
coedge $-1 $247 $171 $350 $353 forward $101 $-1 #
vertex $-1 $257 $354 #
straight-curve $-1 0 -26.809465335971485 5.9961500186529326 1 0 0 I I #
edge $-1 $177 -5.9961500186529326 $253 5.9961500186529326 $174 $355 forward 7 unknown #
point $-1 62.659382915738391 -26.809465335971485 5.9961500186529326 #
point $-1 62.659382915738391 26.809465335971485 5.9961500186529326 #
face $-1 $-1 $282 $25 $-1 $356 reversed single #
loop $-1 $-1 $357 $179 #
plane-surface $-1 0 -33.775689841452078 -4.243931772441579 0 1 0 0 0 1 forward_v I I I I #
coedge $-1 $358 $182 $191 $286 reversed $109 $-1 #
coedge $-1 $182 $358 $183 $274 reversed $109 $-1 #
coedge $-1 $184 $183 $359 $360 forward $69 $-1 #
edge $-1 $278 26.809465335971485 $361 33.775689841452078 $272 $362 forward 7 unknown #
coedge $-1 $363 $188 $184 $276 reversed $282 $-1 #
edge $-1 $364 -33.775689841452078 $277 -26.809465335971485 $275 $365 forward 7 unknown #
vertex $-1 $189 $366 #
vertex $-1 $274 $367 #
straight-curve $-1 0 -26.809465335971485 -5.9961500186529326 1 0 0 I I #
straight-curve $-1 62.659382915738391 -26.809465335971485 0 0 0 1 I I #
coedge $-1 $188 $363 $190 $285 reversed $282 $-1 #
loop $-1 $-1 $188 $268 #
straight-curve $-1 -62.659382915738391 -26.809465335971485 0 0 0 -1 I I #
coedge $-1 $191 $190 $368 $369 forward $180 $-1 #
edge $-1 $192 -3.4831122527402947 $370 3.4831122527402982 $281 $371 forward 7 unknown #
edge $-1 $372 -3.4831122527402982 $193 3.4831122527402947 $271 $373 forward 7 unknown #
point $-1 -62.659382915738391 -26.809465335971485 -2.4917135262302255 #
point $-1 62.659382915738391 -26.809465335971485 -2.4917135262302255 #
plane-surface $-1 62.659382915738391 0 0 -1 0 0 0 0 1 forward_v I I I I #
coedge $-1 $374 $375 $200 $294 forward $196 $-1 #
coedge $-1 $198 $298 $374 $376 forward $117 $-1 #
coedge $-1 $200 $199 $198 $293 reversed $73 $-1 #
edge $-1 $377 -14.977999750963862 $299 -8.6849314190513756 $198 $378 forward 7 unknown #
edge $-1 $296 -83.954299617710376 $377 -77.429533786134641 $290 $379 forward 7 unknown #
coedge $-1 $206 $201 $375 $380 reversed $207 $-1 #
vertex $-1 $202 $381 #
straight-curve $-1 62.659382915738391 11.831465585007619 1.3026262143537721 0 1 0 I I #
coedge $-1 $291 $203 $206 $302 forward $117 $-1 #
vertex $-1 $204 $382 #
straight-curve $-1 32.876215674439599 20.516397004058994 5.9961500186529264 1 0 0 I I #
straight-curve $-1 -24.394345675512341 20.516397004058994 91.44940323874529 -0.69465836192734942 0 0.71933980857756763 I I #
edge $-1 $208 20.516397004058994 $383 26.809465335971485 $206 $384 forward 7 unknown #
point $-1 62.659382915738391 20.516397004058994 5.9961500186529326 #
point $-1 62.659382915738391 20.516397004058994 1.3026262143537792 #
edge $-1 $385 1 $385 0 $211 $-1 forward 7 unknown #
vertex $-1 $212 $386 #
ellipse-curve $-1 59.618194133089261 22.314416527462566 2.9010303121259078 0.71933980857756763 0 0.69465836192734942 0.34732918096367471 0 -0.35966990428878381 1 I I #
point $-1 60.740470524441079 22.314416527462566 3.2897182122145594 #
edge $-1 $387 1 $387 0 $215 $-1 forward 7 unknown #
vertex $-1 $216 $388 #
ellipse-curve $-1 59.618194133089261 25.011445812567917 2.9010303121259078 0.71933980857756763 0 0.69465836192734942 0.34732918096367471 0 -0.35966990428878381 1 I I #
point $-1 60.740470524441079 25.011445812567917 3.2897182122145594 #
plane-surface $-1 0 0 5.9961500186529326 0 0 1 1 0 0 forward_v I I I I #
coedge $-1 $324 $323 $316 $389 forward $220 $-1 #
coedge $-1 $316 $222 $224 $320 reversed $139 $-1 #
coedge $-1 $222 $315 $314 $389 reversed $139 $-1 #
coedge $-1 $230 $225 $222 $318 forward $231 $-1 #
edge $-1 $321 -20.434526541998153 $390 -17.36579544100708 $317 $391 forward 7 unknown #
coedge $-1 $224 $223 $324 $392 reversed $87 $-1 #
edge $-1 $393 0 $321 4.8762620669305301 $315 $394 forward 7 unknown #
vertex $-1 $226 $395 #
straight-curve $-1 -59.590651814747318 2.005292473684781 5.9961500186529335 0 1 0 I I #
coedge $-1 $314 $227 $230 $328 reversed $220 $-1 #
coedge $-1 $227 $314 $319 $392 forward $220 $-1 #
vertex $-1 $228 $396 #
straight-curve $-1 -62.659382915738391 -0.55175476542784274 40.536118022139632 0 0 1 I I #
straight-curve $-1 -62.659382915738391 -0.55175476542784274 2.206582605979591 -0.62932038083071107 0 -0.77714596973225614 I I #
edge $-1 $390 -8.5729246601669669 $232 0.55175476542784274 $323 $397 forward 7 unknown #
point $-1 -62.659382915738391 -0.55175476542784274 5.9961500186529326 #
point $-1 -59.590651814747318 -0.55175476542784274 5.9961500186529326 #
edge $-1 $398 1 $398 0 $235 $-1 forward 7 unknown #
vertex $-1 $236 $399 #
ellipse-curve $-1 -60.347871395510595 2.0552964990278149 3.4720459314855412 -0.77714596973225614 0 0.62932038083071107 0.31466019041535553 0 0.38857298486612807 1 I I #
point $-1 -60.810357174827494 2.0552964990278149 4.4899392971823806 #
edge $-1 $400 1 $400 0 $239 $-1 forward 7 unknown #
vertex $-1 $240 $401 #
ellipse-curve $-1 -60.347871395510595 5.9658733957113022 3.4720459314855412 -0.77714596973225614 0 0.62932038083071107 0.31466019041535553 0 0.38857298486612807 1 I I #
point $-1 -60.810357174827494 5.9658733957113022 4.4899392971823806 #
plane-surface $-1 62.659382915738391 0 0 -1 0 0 0 0 1 forward_v I I I I #
coedge $-1 $350 $246 $249 $343 reversed $161 $-1 #
edge $-1 $260 -5.9961500186529326 $346 5.9961500186529326 $259 $402 forward 7 unknown #
straight-curve $-1 62.659382915738391 -26.809465335971485 0 0 0 -1 I I #
edge $-1 $344 -26.809465335971485 $346 26.809465335971485 $340 $403 forward 7 unknown #
vertex $-1 $343 $404 #
straight-curve $-1 0 -26.809465335971485 -5.9961500186529326 -1 0 0 I I #
vertex $-1 $252 $405 #
straight-curve $-1 0 26.809465335971485 -5.9961500186529326 1 0 0 I I #
point $-1 62.659382915738391 26.809465335971485 -5.9961500186529326 #
point $-1 62.659382915738391 -26.809465335971485 -5.9961500186529326 #
coedge $-1 $256 $340 $262 $353 reversed $161 $-1 #
straight-curve $-1 -62.659382915738391 0 5.9961500186529326 0 -1 0 I I #
point $-1 -62.659382915738391 26.809465335971485 5.9961500186529326 #
edge $-1 $263 -5.9961500186529326 $344 5.9961500186529326 $350 $406 forward 7 unknown #
point $-1 -62.659382915738391 -26.809465335971485 5.9961500186529326 #
straight-curve $-1 62.659382915738391 26.809465335971485 0 0 0 -1 I I #
plane-surface $-1 -62.659382915738391 0 0 1 0 0 0 0 -1 forward_v I I I I #
coedge $-1 $359 $368 $363 $407 forward $269 $-1 #
coedge $-1 $272 $271 $408 $409 forward $109 $-1 #
coedge $-1 $408 $357 $273 $360 reversed $269 $-1 #
edge $-1 $361 -62.659382915738391 $364 62.659382915738391 $359 $410 forward 7 unknown #
vertex $-1 $409 $411 #
straight-curve $-1 62.659382915738391 0 -5.9961500186529326 0 -1 0 I I #
coedge $-1 $281 $275 $357 $407 reversed $282 $-1 #
vertex $-1 $276 $412 #
straight-curve $-1 -62.659382915738391 0 -5.9961500186529326 0 1 0 I I #
point $-1 -62.659382915738391 -26.809465335971485 -5.9961500186529326 #
point $-1 62.659382915738391 -26.809465335971485 -5.9961500186529326 #
coedge $-1 $357 $408 $284 $369 reversed $269 $-1 #
edge $-1 $370 -62.659382915738391 $372 62.659382915738391 $368 $413 forward 7 unknown #
vertex $-1 $285 $414 #
straight-curve $-1 -62.659382915738391 -30.292577588711779 -2.4917135262302255 0 -1 0 I I #
vertex $-1 $286 $415 #
straight-curve $-1 62.659382915738391 -30.292577588711779 -2.4917135262302255 0 1 0 I I #
coedge $-1 $375 $290 $291 $376 reversed $196 $-1 #
coedge $-1 $290 $374 $295 $380 forward $196 $-1 #
edge $-1 $383 -62.659382915738391 $377 -58.126899771216443 $374 $416 forward 7 unknown #
vertex $-1 $293 $417 #
straight-curve $-1 58.126899771216429 11.831465585007619 5.9961500186529406 0 -1 0 I I #
straight-curve $-1 4.3398266665417964 26.809465335971485 61.694296030621317 -0.69465836192734942 0 0.71933980857756763 I I #
edge $-1 $383 -5.9961500186529326 $296 -1.3026262143537743 $295 $418 forward 7 unknown #
point $-1 62.659382915738391 26.809465335971485 1.3026262143537743 #
point $-1 58.126899771216443 20.516397004058994 5.9961500186529264 #
vertex $-1 $302 $419 #
straight-curve $-1 62.659382915738391 0 5.9961500186529326 0 1 0 I I #
vertex $-1 $305 $420 #
point $-1 59.965523314052938 22.314416527462566 2.5413604078371241 #
vertex $-1 $309 $421 #
point $-1 59.965523314052938 25.011445812567917 2.5413604078371241 #
edge $-1 $390 34.539968003486699 $393 38.329535416160041 $314 $422 forward 7 unknown #
vertex $-1 $328 $423 #
straight-curve $-1 -80.025178356745471 8.5729246601669669 5.9961500186529335 -1 0 0 I I #
edge $-1 $393 -6.5676321864821858 $325 2.5570472391126238 $324 $424 forward 7 unknown #
vertex $-1 $392 $425 #
straight-curve $-1 -62.659382915738391 8.5729246601669669 2.206582605979591 0.62932038083071107 0 0.77714596973225614 I I #
point $-1 -59.590651814747318 8.5729246601669669 5.9961500186529326 #
point $-1 -62.659382915738391 -0.55175476542784274 2.206582605979591 #
straight-curve $-1 -62.659382915738391 0 5.9961500186529326 0 -1 0 I I #
vertex $-1 $331 $426 #
point $-1 -60.033211205095235 2.0552964990278149 3.8606189163516693 #
vertex $-1 $335 $427 #
point $-1 -60.033211205095235 5.9658733957113022 3.8606189163516693 #
straight-curve $-1 -62.659382915738391 26.809465335971485 0 0 0 -1 I I #
straight-curve $-1 -62.659382915738391 0 -5.9961500186529326 0 1 0 I I #
point $-1 -62.659382915738391 -26.809465335971485 -5.9961500186529326 #
point $-1 -62.659382915738391 26.809465335971485 -5.9961500186529326 #
straight-curve $-1 -62.659382915738391 -26.809465335971485 0 0 0 -1 I I #
edge $-1 $370 -1.7522182462113536 $364 1.7522182462113536 $363 $428 forward 7 unknown #
coedge $-1 $368 $359 $358 $409 reversed $269 $-1 #
edge $-1 $372 -1.7522182462113536 $361 1.7522182462113536 $358 $429 forward 7 unknown #
straight-curve $-1 0 -33.775689841452078 -5.9961500186529326 -1 0 0 I I #
point $-1 62.659382915738391 -33.775689841452078 -5.9961500186529326 #
point $-1 -62.659382915738391 -33.775689841452078 -5.9961500186529326 #
straight-curve $-1 0 -33.775689841452078 -2.4917135262302255 1 0 0 I I #
point $-1 -62.659382915738391 -33.775689841452078 -2.4917135262302255 #
point $-1 62.659382915738391 -33.775689841452078 -2.4917135262302255 #
straight-curve $-1 0 26.809465335971485 5.9961500186529326 -1 0 0 I I #
point $-1 58.126899771216443 26.809465335971481 5.9961500186529264 #
straight-curve $-1 62.659382915738391 26.809465335971485 0 0 0 -1 I I #
point $-1 62.659382915738391 26.809465335971485 5.9961500186529326 #
point $-1 59.258524228800482 22.314416527462566 2.5537011311622333 #
point $-1 59.258524228800482 25.011445812567917 2.5537011311622333 #
straight-curve $-1 -62.659382915738391 8.5729246601669669 40.536118022139632 0 0 -1 I I #
point $-1 -62.659382915738391 8.5729246601669669 5.9961500186529326 #
straight-curve $-1 -62.659382915738391 2.005292473684781 2.2065826059795906 0 -1 0 I I #
point $-1 -62.659382915738391 8.5729246601669669 2.206582605979591 #
point $-1 -59.959298410644465 2.0552964990278149 3.1573857410701858 #
point $-1 -59.959298410644465 5.9658733957113022 3.1573857410701858 #
straight-curve $-1 -62.659382915738391 -33.775689841452078 -4.243931772441579 0 0 -1 I I #
straight-curve $-1 62.659382915738391 -33.775689841452078 -4.243931772441579 0 0 -1 I I #
End-of-ACIS-data 