500 0 3 0           
7 Unknown 11 ACIS 5.0 NT 24 Fri Mar 26 15:29:41 1999 
-1 9.9999999999999995e-007 1e-010 
body $-1 $3 $-1 $4 #
body $-1 $5 $-1 $6 #
body $-1 $7 $-1 $8 #
lump $-1 $-1 $9 $0 #
transform $-1 1 0 0 0 1 0 0 0 1 56.752220221564379 38.713338150284883 12.982029468530238 1 rotate no_reflect no_shear #
lump $-1 $-1 $10 $1 #
transform $-1 1 0 0 0 1 0 0 0 1 56.752220221564379 38.713338150284883 12.982029468530238 1 rotate no_reflect no_shear #
lump $-1 $-1 $11 $2 #
transform $-1 1 0 0 0 1 0 0 0 1 56.752220221564379 38.713338150284883 12.982029468530238 1 rotate no_reflect no_shear #
shell $-1 $-1 $-1 $12 $-1 $3 #
shell $-1 $-1 $-1 $13 $-1 $5 #
shell $-1 $-1 $-1 $14 $-1 $7 #
face $-1 $15 $16 $9 $-1 $17 forward single #
face $-1 $18 $19 $10 $-1 $20 forward single #
face $-1 $21 $22 $11 $-1 $23 forward single #
face $-1 $24 $25 $9 $-1 $26 reversed single #
loop $-1 $-1 $27 $12 #
plane-surface $-1 0 0 12.982029468530238 0 0 1 1 0 0 forward_v I I I I #
face $-1 $28 $29 $10 $-1 $30 reversed single #
loop $-1 $-1 $31 $13 #
plane-surface $-1 0 -38.713338150284883 0 0 1 0 0 0 1 forward_v I I I I #
face $-1 $32 $33 $11 $-1 $34 reversed single #
loop $-1 $-1 $35 $14 #
plane-surface $-1 0 38.713338150284883 0 0 -1 0 0 0 -1 forward_v I I I I #
face $-1 $36 $37 $9 $-1 $38 reversed single #
loop $-1 $-1 $39 $15 #
plane-surface $-1 0 0 -12.982029468530238 0 0 1 1 0 0 forward_v I I I I #
coedge $-1 $40 $41 $42 $43 forward $16 $-1 #
face $-1 $44 $45 $10 $-1 $46 reversed single #
loop $-1 $-1 $47 $18 #
plane-surface $-1 0 0 -12.982029468530238 0 0 1 1 0 0 forward_v I I I I #
coedge $-1 $48 $49 $50 $51 forward $19 $-1 #
face $-1 $52 $53 $11 $-1 $54 forward single #
loop $-1 $-1 $55 $21 #
plane-surface $-1 -56.752220221564379 0 0 1 0 0 0 0 -1 forward_v I I I I #
coedge $-1 $56 $57 $58 $59 forward $22 $-1 #
face $-1 $60 $61 $9 $-1 $62 reversed single #
loop $-1 $-1 $63 $24 #
plane-surface $-1 0 -38.713338150284883 0 0 1 0 0 0 1 forward_v I I I I #
coedge $-1 $64 $65 $66 $67 forward $25 $-1 #
coedge $-1 $68 $27 $69 $70 forward $16 $-1 #
coedge $-1 $27 $68 $71 $72 forward $16 $-1 #
coedge $-1 $73 $74 $27 $43 reversed $75 $-1 #
edge $-1 $76 -38.713338150284883 $77 38.713338150284883 $42 $78 forward 7 unknown #
face $-1 $79 $80 $10 $-1 $81 forward single #
loop $-1 $-1 $82 $28 #
plane-surface $-1 56.752220221564379 0 0 -1 0 0 0 0 1 forward_v I I I I #
coedge $-1 $83 $84 $85 $86 forward $29 $-1 #
coedge $-1 $85 $31 $82 $87 reversed $19 $-1 #
coedge $-1 $31 $85 $88 $89 reversed $19 $-1 #
coedge $-1 $90 $91 $31 $51 reversed $80 $-1 #
edge $-1 $92 -56.752220221564379 $93 56.752220221564379 $50 $94 forward 7 unknown #
face $-1 $95 $96 $11 $-1 $97 reversed single #
loop $-1 $-1 $98 $32 #
plane-surface $-1 0 45.602993541633211 -8.5531554606286253 0 0 1 1 0 0 forward_v I I I I #
coedge $-1 $99 $100 $56 $101 forward $33 $-1 #
coedge $-1 $102 $35 $55 $101 reversed $22 $-1 #
coedge $-1 $35 $102 $103 $104 reversed $22 $-1 #
coedge $-1 $98 $105 $35 $59 reversed $53 $-1 #
edge $-1 $106 -56.752220221564379 $107 56.752220221564379 $58 $108 forward 7 unknown #
face $-1 $109 $110 $9 $-1 $111 reversed single #
loop $-1 $-1 $112 $36 #
plane-surface $-1 -56.752220221564379 0 0 1 0 0 0 0 -1 forward_v I I I I #
coedge $-1 $113 $71 $114 $115 forward $37 $-1 #
coedge $-1 $116 $39 $113 $117 forward $25 $-1 #
coedge $-1 $39 $116 $118 $119 forward $25 $-1 #
coedge $-1 $74 $73 $39 $67 reversed $75 $-1 #
edge $-1 $120 -38.713338150284883 $121 38.713338150284883 $66 $122 forward 7 unknown #
coedge $-1 $41 $40 $123 $124 forward $16 $-1 #
coedge $-1 $125 $126 $40 $70 reversed $110 $-1 #
edge $-1 $77 -56.752220221564379 $127 56.752220221564379 $69 $128 forward 7 unknown #
coedge $-1 $63 $129 $41 $72 reversed $37 $-1 #
edge $-1 $130 -56.752220221564379 $76 56.752220221564379 $71 $131 forward 7 unknown #
coedge $-1 $66 $42 $129 $132 forward $75 $-1 #
coedge $-1 $42 $66 $125 $133 reversed $75 $-1 #
loop $-1 $-1 $73 $109 #
vertex $-1 $43 $134 #
vertex $-1 $43 $135 #
straight-curve $-1 56.752220221564379 0 12.982029468530238 0 1 0 I I #
face $-1 $136 $137 $10 $-1 $138 reversed single #
loop $-1 $-1 $91 $44 #
plane-surface $-1 0 -45.602993541633218 -8.5531554606286253 0 0 1 1 0 0 forward_v I I I I #
coedge $-1 $139 $140 $48 $87 forward $45 $-1 #
coedge $-1 $141 $47 $140 $142 forward $29 $-1 #
coedge $-1 $47 $141 $143 $144 forward $29 $-1 #
coedge $-1 $49 $48 $47 $86 reversed $19 $-1 #
edge $-1 $145 -56.752220221564379 $146 56.752220221564379 $47 $147 forward 7 unknown #
edge $-1 $146 -12.982029468530238 $93 -8.5531554606286253 $82 $148 forward 7 unknown #
coedge $-1 $143 $149 $49 $89 forward $150 $-1 #
edge $-1 $92 8.5531554606286253 $145 12.982029468530238 $88 $151 forward 7 unknown #
coedge $-1 $152 $50 $149 $153 forward $80 $-1 #
coedge $-1 $50 $152 $139 $154 forward $80 $-1 #
vertex $-1 $89 $155 #
vertex $-1 $154 $156 #
straight-curve $-1 0 -38.713338150284883 -8.5531554606286253 1 0 0 I I #
face $-1 $157 $158 $11 $-1 $159 reversed single #
loop $-1 $-1 $160 $52 #
plane-surface $-1 0 52.492648932981545 -10.767592464579431 0 -1 0 0 0 -1 forward_v I I I I #
coedge $-1 $161 $58 $162 $163 forward $53 $-1 #
coedge $-1 $164 $55 $105 $165 reversed $33 $-1 #
coedge $-1 $55 $164 $166 $167 reversed $33 $-1 #
edge $-1 $168 -12.982029468530238 $107 -8.5531554606286253 $55 $169 forward 7 unknown #
coedge $-1 $57 $56 $170 $171 reversed $22 $-1 #
coedge $-1 $172 $162 $57 $104 forward $173 $-1 #
edge $-1 $106 8.5531554606286253 $174 12.982029468530238 $103 $175 forward 7 unknown #
coedge $-1 $58 $161 $99 $165 forward $53 $-1 #
vertex $-1 $104 $176 #
vertex $-1 $165 $177 #
straight-curve $-1 0 38.713338150284883 -8.5531554606286253 -1 0 0 I I #
face $-1 $-1 $75 $9 $-1 $178 reversed single #
loop $-1 $-1 $125 $60 #
plane-surface $-1 0 38.713338150284883 0 0 -1 0 0 0 -1 forward_v I I I I #
coedge $-1 $179 $123 $126 $180 forward $61 $-1 #
coedge $-1 $129 $63 $64 $117 reversed $37 $-1 #
coedge $-1 $123 $179 $63 $115 reversed $61 $-1 #
edge $-1 $130 -12.982029468530238 $181 12.982029468530238 $114 $182 forward 7 unknown #
coedge $-1 $65 $64 $179 $183 forward $25 $-1 #
edge $-1 $121 -56.752220221564379 $181 56.752220221564379 $113 $184 forward 7 unknown #
coedge $-1 $126 $125 $65 $119 reversed $110 $-1 #
edge $-1 $185 -56.752220221564379 $120 56.752220221564379 $118 $186 forward 7 unknown #
vertex $-1 $67 $187 #
vertex $-1 $132 $188 #
straight-curve $-1 56.752220221564379 0 -12.982029468530238 0 -1 0 I I #
coedge $-1 $112 $114 $68 $124 reversed $61 $-1 #
edge $-1 $127 -38.713338150284883 $130 38.713338150284883 $123 $189 forward 7 unknown #
coedge $-1 $118 $69 $74 $133 forward $110 $-1 #
coedge $-1 $69 $118 $112 $180 reversed $110 $-1 #
vertex $-1 $70 $190 #
straight-curve $-1 0 38.713338150284883 12.982029468530238 -1 0 0 I I #
coedge $-1 $71 $113 $73 $132 reversed $37 $-1 #
vertex $-1 $124 $191 #
straight-curve $-1 0 -38.713338150284883 12.982029468530238 1 0 0 I I #
edge $-1 $76 -12.982029468530238 $121 12.982029468530238 $73 $192 forward 7 unknown #
edge $-1 $77 -12.982029468530238 $120 12.982029468530238 $74 $193 forward 7 unknown #
point $-1 56.752220221564379 -38.713338150284883 12.982029468530238 #
point $-1 56.752220221564379 38.713338150284883 12.982029468530238 #
face $-1 $-1 $150 $10 $-1 $194 reversed single #
loop $-1 $-1 $195 $79 #
plane-surface $-1 0 -52.492648932981552 -10.767592464579431 0 1 0 0 0 1 forward_v I I I I #
coedge $-1 $196 $82 $91 $154 reversed $45 $-1 #
coedge $-1 $82 $196 $83 $142 reversed $45 $-1 #
coedge $-1 $84 $83 $197 $198 forward $29 $-1 #
edge $-1 $146 38.713338150284883 $199 52.492648932981552 $140 $200 forward 7 unknown #
coedge $-1 $201 $88 $84 $144 reversed $150 $-1 #
edge $-1 $202 -52.492648932981552 $145 -38.713338150284883 $143 $203 forward 7 unknown #
vertex $-1 $89 $204 #
vertex $-1 $142 $205 #
straight-curve $-1 0 -38.713338150284883 -12.982029468530238 1 0 0 I I #
straight-curve $-1 56.752220221564379 -38.713338150284883 0 0 0 1 I I #
coedge $-1 $88 $201 $90 $153 reversed $150 $-1 #
loop $-1 $-1 $88 $136 #
straight-curve $-1 -56.752220221564379 -38.713338150284883 0 0 0 -1 I I #
coedge $-1 $91 $90 $206 $207 forward $80 $-1 #
edge $-1 $92 -6.8896553913483345 $208 6.8896553913483345 $149 $209 forward 7 unknown #
edge $-1 $210 -6.8896553913483345 $93 6.8896553913483345 $139 $211 forward 7 unknown #
point $-1 -56.752220221564379 -38.713338150284883 -8.5531554606286253 #
point $-1 56.752220221564379 -38.713338150284883 -8.5531554606286253 #
face $-1 $-1 $173 $11 $-1 $212 reversed single #
loop $-1 $-1 $170 $95 #
plane-surface $-1 0 0 -12.982029468530238 0 0 1 1 0 0 forward_v I I I I #
coedge $-1 $213 $214 $215 $216 forward $96 $-1 #
coedge $-1 $105 $98 $214 $217 forward $53 $-1 #
coedge $-1 $103 $215 $98 $163 reversed $173 $-1 #
edge $-1 $106 -6.8896553913483345 $218 6.8896553913483345 $162 $219 forward 7 unknown #
coedge $-1 $100 $99 $220 $221 forward $33 $-1 #
edge $-1 $222 -6.8896553913483345 $107 6.8896553913483345 $99 $223 forward 7 unknown #
coedge $-1 $224 $170 $100 $167 forward $158 $-1 #
edge $-1 $168 -6.8896553913483274 $225 6.8896553913483345 $100 $226 forward 7 unknown #
vertex $-1 $167 $227 #
straight-curve $-1 -56.752220221564379 38.713338150284883 0 0 0 1 I I #
coedge $-1 $166 $228 $102 $171 forward $158 $-1 #
edge $-1 $174 -56.752220221564379 $168 56.752220221564379 $170 $229 forward 7 unknown #
coedge $-1 $215 $103 $228 $230 reversed $173 $-1 #
loop $-1 $-1 $103 $157 #
vertex $-1 $104 $231 #
straight-curve $-1 56.752220221564379 38.713338150284883 0 0 0 -1 I I #
point $-1 56.752220221564379 38.713338150284876 -8.5531554606286253 #
point $-1 -56.752220221564379 38.713338150284876 -8.5531554606286253 #
plane-surface $-1 56.752220221564379 0 0 -1 0 0 0 0 1 forward_v I I I I #
coedge $-1 $114 $112 $116 $183 reversed $61 $-1 #
edge $-1 $127 -12.982029468530238 $185 12.982029468530238 $126 $232 forward 7 unknown #
vertex $-1 $183 $233 #
straight-curve $-1 -56.752220221564379 -38.713338150284883 0 0 0 -1 I I #
edge $-1 $181 -38.713338150284883 $185 38.713338150284883 $179 $234 forward 7 unknown #
straight-curve $-1 0 -38.713338150284883 -12.982029468530238 -1 0 0 I I #
vertex $-1 $119 $235 #
straight-curve $-1 0 38.713338150284883 -12.982029468530238 1 0 0 I I #
point $-1 56.752220221564379 38.713338150284883 -12.982029468530238 #
point $-1 56.752220221564379 -38.713338150284883 -12.982029468530238 #
straight-curve $-1 -56.752220221564379 0 12.982029468530238 0 -1 0 I I #
point $-1 -56.752220221564379 38.713338150284883 12.982029468530238 #
point $-1 -56.752220221564379 -38.713338150284883 12.982029468530238 #
straight-curve $-1 56.752220221564379 -38.713338150284883 0 0 0 -1 I I #
straight-curve $-1 56.752220221564379 38.713338150284883 0 0 0 -1 I I #
plane-surface $-1 -56.752220221564379 0 0 1 0 0 0 0 -1 forward_v I I I I #
coedge $-1 $197 $206 $201 $236 forward $137 $-1 #
coedge $-1 $140 $139 $237 $238 forward $45 $-1 #
coedge $-1 $237 $195 $141 $198 reversed $137 $-1 #
edge $-1 $199 -56.752220221564379 $202 56.752220221564379 $197 $239 forward 7 unknown #
vertex $-1 $238 $240 #
straight-curve $-1 56.752220221564379 0 -12.982029468530238 0 -1 0 I I #
coedge $-1 $149 $143 $195 $236 reversed $150 $-1 #
vertex $-1 $144 $241 #
straight-curve $-1 -56.752220221564379 0 -12.982029468530238 0 1 0 I I #
point $-1 -56.752220221564379 -38.713338150284883 -12.982029468530238 #
point $-1 56.752220221564379 -38.713338150284883 -12.982029468530238 #
coedge $-1 $195 $237 $152 $207 reversed $137 $-1 #
edge $-1 $208 -56.752220221564379 $210 56.752220221564379 $206 $242 forward 7 unknown #
vertex $-1 $153 $243 #
straight-curve $-1 -56.752220221564379 -45.602993541633218 -8.5531554606286253 0 -1 0 I I #
vertex $-1 $154 $244 #
straight-curve $-1 56.752220221564379 -45.602993541633218 -8.5531554606286253 0 1 0 I I #
plane-surface $-1 56.752220221564379 0 0 -1 0 0 0 0 1 forward_v I I I I #
coedge $-1 $220 $160 $224 $245 reversed $96 $-1 #
coedge $-1 $160 $220 $161 $217 reversed $96 $-1 #
coedge $-1 $162 $172 $160 $216 reversed $173 $-1 #
edge $-1 $218 -2.2144370039508061 $246 2.2144370039508061 $215 $247 forward 7 unknown #
edge $-1 $218 -56.752220221564379 $222 56.752220221564379 $214 $248 forward 7 unknown #
vertex $-1 $163 $249 #
straight-curve $-1 56.752220221564379 45.602993541633211 -8.5531554606286253 0 1 0 I I #
coedge $-1 $214 $213 $164 $221 reversed $96 $-1 #
edge $-1 $222 -2.2144370039508061 $225 2.2144370039508061 $220 $250 forward 7 unknown #
vertex $-1 $217 $251 #
straight-curve $-1 -56.752220221564379 45.602993541633211 -8.5531554606286253 0 -1 0 I I #
coedge $-1 $228 $166 $213 $245 forward $158 $-1 #
vertex $-1 $245 $252 #
straight-curve $-1 -56.752220221564379 45.602993541633211 -12.982029468530238 0 1 0 I I #
point $-1 -56.752220221564379 38.713338150284883 -12.982029468530238 #
coedge $-1 $170 $224 $172 $230 forward $158 $-1 #
straight-curve $-1 0 38.713338150284883 -12.982029468530238 -1 0 0 I I #
edge $-1 $246 -52.492648932981545 $174 -38.713338150284883 $172 $253 forward 7 unknown #
point $-1 56.752220221564379 38.713338150284883 -12.982029468530238 #
straight-curve $-1 -56.752220221564379 38.713338150284883 0 0 0 -1 I I #
point $-1 -56.752220221564379 -38.713338150284883 -12.982029468530238 #
straight-curve $-1 -56.752220221564379 0 -12.982029468530238 0 1 0 I I #
point $-1 -56.752220221564379 38.713338150284883 -12.982029468530238 #
edge $-1 $208 -2.2144370039508061 $202 2.2144370039508061 $201 $254 forward 7 unknown #
coedge $-1 $206 $197 $196 $238 reversed $137 $-1 #
edge $-1 $210 -2.2144370039508061 $199 2.2144370039508061 $196 $255 forward 7 unknown #
straight-curve $-1 0 -52.492648932981552 -12.982029468530238 -1 0 0 I I #
point $-1 56.752220221564379 -52.492648932981552 -12.982029468530238 #
point $-1 -56.752220221564379 -52.492648932981552 -12.982029468530238 #
straight-curve $-1 0 -52.492648932981552 -8.5531554606286253 1 0 0 I I #
point $-1 -56.752220221564379 -52.492648932981552 -8.5531554606286253 #
point $-1 56.752220221564379 -52.492648932981552 -8.5531554606286253 #
edge $-1 $225 -56.752220221564379 $246 56.752220221564379 $213 $256 forward 7 unknown #
vertex $-1 $230 $257 #
straight-curve $-1 56.752220221564379 52.492648932981545 -10.767592464579431 0 0 -1 I I #
straight-curve $-1 0 52.492648932981545 -8.5531554606286253 -1 0 0 I I #
point $-1 56.752220221564379 52.492648932981545 -8.5531554606286253 #
straight-curve $-1 -56.752220221564379 52.492648932981545 -10.767592464579431 0 0 -1 I I #
point $-1 -56.752220221564379 52.492648932981545 -8.5531554606286253 #
point $-1 -56.752220221564379 52.492648932981545 -12.982029468530238 #
straight-curve $-1 56.752220221564379 0 -12.982029468530238 0 -1 0 I I #
straight-curve $-1 -56.752220221564379 -52.492648932981552 -10.767592464579431 0 0 -1 I I #
straight-curve $-1 56.752220221564379 -52.492648932981552 -10.767592464579431 0 0 -1 I I #
straight-curve $-1 0 52.492648932981545 -12.982029468530238 1 0 0 I I #
point $-1 56.752220221564379 52.492648932981545 -12.982029468530238 #
End-of-ACIS-data 