500 0 18 0           
7 Unknown 11 ACIS 5.0 NT 24 Thu Mar 25 18:47:26 1999 
-1 9.9999999999999995e-007 1e-010 
body $-1 $18 $-1 $19 #
body $-1 $20 $-1 $21 #
body $-1 $22 $-1 $23 #
body $-1 $24 $-1 $25 #
body $-1 $26 $-1 $27 #
body $-1 $28 $-1 $29 #
body $-1 $30 $-1 $31 #
body $-1 $32 $-1 $33 #
body $-1 $34 $-1 $35 #
body $-1 $36 $-1 $37 #
body $-1 $38 $-1 $39 #
body $-1 $40 $-1 $41 #
body $-1 $42 $-1 $43 #
body $-1 $44 $-1 $45 #
body $-1 $46 $-1 $47 #
body $-1 $48 $-1 $49 #
body $-1 $50 $-1 $51 #
body $-1 $52 $-1 $53 #
lump $-1 $-1 $54 $0 #
transform $-1 1 0 0 0 1 0 0 0 1 70.33173619800408 40.317704801246656 16.294052120441567 1 rotate no_reflect no_shear #
lump $-1 $-1 $55 $1 #
transform $-1 1 0 0 0 1 0 0 0 1 70.33173619800408 40.317704801246656 16.294052120441567 1 rotate no_reflect no_shear #
lump $-1 $-1 $56 $2 #
transform $-1 1 0 0 0 1 0 0 0 1 70.33173619800408 40.317704801246656 16.294052120441567 1 rotate no_reflect no_shear #
lump $-1 $-1 $57 $3 #
transform $-1 1 0 0 0 1 0 0 0 1 70.33173619800408 40.317704801246656 16.294052120441567 1 rotate no_reflect no_shear #
lump $-1 $-1 $58 $4 #
transform $-1 1 0 0 0 1 0 0 0 1 70.33173619800408 40.317704801246656 16.294052120441567 1 rotate no_reflect no_shear #
lump $-1 $-1 $59 $5 #
transform $-1 1 0 0 0 1 0 0 0 1 70.33173619800408 40.317704801246656 16.294052120441567 1 rotate no_reflect no_shear #
lump $-1 $-1 $60 $6 #
transform $-1 1 0 0 0 1 0 0 0 1 70.33173619800408 40.317704801246656 16.294052120441567 1 rotate no_reflect no_shear #
lump $-1 $-1 $61 $7 #
transform $-1 1 0 0 0 1 0 0 0 1 70.33173619800408 40.317704801246656 16.294052120441567 1 rotate no_reflect no_shear #
lump $-1 $-1 $62 $8 #
transform $-1 1 0 0 0 1 0 0 0 1 70.33173619800408 40.317704801246656 16.294052120441567 1 rotate no_reflect no_shear #
lump $-1 $-1 $63 $9 #
transform $-1 1 0 0 0 1 0 0 0 1 70.33173619800408 40.317704801246656 16.294052120441567 1 rotate no_reflect no_shear #
lump $-1 $-1 $64 $10 #
transform $-1 1 0 0 0 1 0 0 0 1 70.33173619800408 40.317704801246656 16.294052120441567 1 rotate no_reflect no_shear #
lump $-1 $-1 $65 $11 #
transform $-1 1 0 0 0 1 0 0 0 1 70.33173619800408 40.317704801246656 16.294052120441567 1 rotate no_reflect no_shear #
lump $-1 $-1 $66 $12 #
transform $-1 1 0 0 0 1 0 0 0 1 70.33173619800408 40.317704801246656 16.294052120441567 1 rotate no_reflect no_shear #
lump $-1 $-1 $67 $13 #
transform $-1 1 0 0 0 1 0 0 0 1 70.33173619800408 40.317704801246656 16.294052120441567 1 rotate no_reflect no_shear #
lump $-1 $-1 $68 $14 #
transform $-1 1 0 0 0 1 0 0 0 1 70.33173619800408 40.317704801246656 16.294052120441567 1 rotate no_reflect no_shear #
lump $-1 $-1 $69 $15 #
transform $-1 1 0 0 0 1 0 0 0 1 70.33173619800408 40.317704801246656 16.294052120441567 1 rotate no_reflect no_shear #
lump $-1 $-1 $70 $16 #
transform $-1 1 0 0 0 1 0 0 0 1 70.33173619800408 40.317704801246656 16.294052120441567 1 rotate no_reflect no_shear #
lump $-1 $-1 $71 $17 #
transform $-1 1 0 0 0 1 0 0 0 1 70.33173619800408 40.317704801246656 16.294052120441567 1 rotate no_reflect no_shear #
shell $-1 $-1 $-1 $72 $-1 $18 #
shell $-1 $-1 $-1 $73 $-1 $20 #
shell $-1 $-1 $-1 $74 $-1 $22 #
shell $-1 $-1 $-1 $75 $-1 $24 #
shell $-1 $-1 $-1 $76 $-1 $26 #
shell $-1 $-1 $-1 $77 $-1 $28 #
shell $-1 $-1 $-1 $78 $-1 $30 #
shell $-1 $-1 $-1 $79 $-1 $32 #
shell $-1 $-1 $-1 $80 $-1 $34 #
shell $-1 $-1 $-1 $81 $-1 $36 #
shell $-1 $-1 $-1 $82 $-1 $38 #
shell $-1 $-1 $-1 $83 $-1 $40 #
shell $-1 $-1 $-1 $84 $-1 $42 #
shell $-1 $-1 $-1 $85 $-1 $44 #
shell $-1 $-1 $-1 $86 $-1 $46 #
shell $-1 $-1 $-1 $87 $-1 $48 #
shell $-1 $-1 $-1 $88 $-1 $50 #
shell $-1 $-1 $-1 $89 $-1 $52 #
face $-1 $90 $91 $54 $-1 $92 forward single #
face $-1 $93 $94 $55 $-1 $95 forward single #
face $-1 $96 $97 $56 $-1 $98 reversed single #
face $-1 $99 $100 $57 $-1 $101 forward single #
face $-1 $102 $103 $58 $-1 $104 reversed single #
face $-1 $105 $106 $59 $-1 $107 forward single #
face $-1 $108 $109 $60 $-1 $110 reversed single #
face $-1 $111 $112 $61 $-1 $113 forward single #
face $-1 $114 $115 $62 $-1 $116 reversed single #
face $-1 $117 $118 $63 $-1 $119 forward single #
face $-1 $120 $121 $64 $-1 $122 reversed single #
face $-1 $123 $124 $65 $-1 $125 forward single #
face $-1 $126 $127 $66 $-1 $128 reversed single #
face $-1 $129 $130 $67 $-1 $131 forward single #
face $-1 $132 $133 $68 $-1 $134 reversed single #
face $-1 $135 $136 $69 $-1 $137 forward single #
face $-1 $138 $139 $70 $-1 $140 reversed single #
face $-1 $141 $142 $71 $-1 $143 forward single #
face $-1 $144 $145 $54 $-1 $146 reversed single #
loop $-1 $-1 $147 $72 #
plane-surface $-1 0 0 16.294052120441567 0 0 1 1 0 0 forward_v I I I I #
face $-1 $148 $149 $55 $-1 $150 reversed single #
loop $-1 $-1 $151 $73 #
plane-surface $-1 -64.940750569596034 0 -1.5113358650619233 0 0 1 1 0 0 forward_v I I I I #
face $-1 $152 $153 $56 $-1 $154 reversed single #
loop $-1 $-1 $155 $74 #
plane-surface $-1 -59.549764941187995 -156.9330096393183 90.59981903091051 1 0 0 0 0.82903758062907751 -0.55919289150049634 forward_v I I I I #
face $-1 $156 $157 $57 $-1 $158 forward single #
loop $-1 $159 $160 $75 #
cone-surface $-1 -49.381554002290905 -38.010581247252638 13.551807067538896 0 0.82903758062907751 -0.55919289150049634 1 0 0 1 I I 0 1 1 forward I I I I #
face $-1 $161 $162 $58 $-1 $163 reversed single #
loop $-1 $-1 $164 $76 #
plane-surface $-1 -23.03473852072203 -156.9330096393183 90.59981903091051 1 0 0 0 0.82903758062907751 -0.55919289150049634 forward_v I I I I #
face $-1 $165 $166 $59 $-1 $167 forward single #
loop $-1 $168 $169 $77 #
cone-surface $-1 -12.86652758182494 -38.010581247252638 13.551807067538896 0 0.82903758062907751 -0.55919289150049634 1 0 0 1 I I 0 1 1 forward I I I I #
face $-1 $170 $171 $60 $-1 $172 reversed single #
loop $-1 $-1 $173 $78 #
plane-surface $-1 13.480287899743928 -156.9330096393183 90.59981903091051 1 0 0 0 0.82903758062907751 -0.55919289150049634 forward_v I I I I #
face $-1 $174 $175 $61 $-1 $176 forward single #
loop $-1 $177 $178 $79 #
cone-surface $-1 23.648498838641018 -38.010581247252638 13.551807067538896 0 0.82903758062907751 -0.55919289150049634 1 0 0 1 I I 0 1 1 forward I I I I #
face $-1 $179 $180 $62 $-1 $181 reversed single #
loop $-1 $-1 $182 $80 #
plane-surface $-1 49.9953143202099 -156.9330096393183 90.59981903091051 1 0 0 0 0.82903758062907751 -0.55919289150049634 forward_v I I I I #
face $-1 $183 $184 $63 $-1 $185 forward single #
loop $-1 $186 $187 $81 #
cone-surface $-1 60.16352525910699 -38.010581247252638 13.551807067538896 0 0.82903758062907751 -0.55919289150049634 1 0 0 1 I I 0 1 1 forward I I I I #
face $-1 $188 $189 $64 $-1 $190 reversed single #
loop $-1 $-1 $191 $82 #
plane-surface $-1 -59.549764941187995 111.84226178637314 157.44960392079628 1 0 0 0 -0.82903758062907751 -0.55919289150049634 forward_v I I I I #
face $-1 $192 $193 $65 $-1 $194 forward single #
loop $-1 $195 $196 $83 #
cone-surface $-1 -49.381554002290905 38.010581247252645 13.55180706753891 0 -0.82903758062907751 -0.55919289150049634 1 0 0 1 I I 0 1 1 forward I I I I #
face $-1 $197 $198 $66 $-1 $199 reversed single #
loop $-1 $-1 $200 $84 #
plane-surface $-1 -23.03473852072203 111.84226178637314 157.44960392079628 1 0 0 0 -0.82903758062907751 -0.55919289150049634 forward_v I I I I #
face $-1 $201 $202 $67 $-1 $203 forward single #
loop $-1 $204 $205 $85 #
cone-surface $-1 -12.86652758182494 38.010581247252645 13.55180706753891 0 -0.82903758062907751 -0.55919289150049634 1 0 0 1 I I 0 1 1 forward I I I I #
face $-1 $206 $207 $68 $-1 $208 reversed single #
loop $-1 $-1 $209 $86 #
plane-surface $-1 13.480287899743928 111.84226178637314 157.44960392079628 1 0 0 0 -0.82903758062907751 -0.55919289150049634 forward_v I I I I #
face $-1 $210 $211 $69 $-1 $212 forward single #
loop $-1 $213 $214 $87 #
cone-surface $-1 23.648498838641018 38.010581247252645 13.55180706753891 0 -0.82903758062907751 -0.55919289150049634 1 0 0 1 I I 0 1 1 forward I I I I #
face $-1 $215 $216 $70 $-1 $217 reversed single #
loop $-1 $-1 $218 $88 #
plane-surface $-1 49.9953143202099 111.84226178637314 157.44960392079628 1 0 0 0 -0.82903758062907751 -0.55919289150049634 forward_v I I I I #
face $-1 $219 $220 $71 $-1 $221 forward single #
loop $-1 $222 $223 $89 #
cone-surface $-1 60.16352525910699 38.010581247252645 13.55180706753891 0 -0.82903758062907751 -0.55919289150049634 1 0 0 1 I I 0 1 1 forward I I I I #
face $-1 $224 $225 $54 $-1 $226 reversed single #
loop $-1 $-1 $227 $90 #
plane-surface $-1 0 0 -16.294052120441567 0 0 1 1 0 0 forward_v I I I I #
coedge $-1 $228 $229 $230 $231 forward $91 $-1 #
face $-1 $232 $233 $55 $-1 $234 reversed single #
loop $-1 $-1 $235 $93 #
plane-surface $-1 -64.940750569596034 0 -9.7024697906070614 0 0 1 1 0 0 forward_v I I I I #
coedge $-1 $236 $237 $238 $239 forward $94 $-1 #
face $-1 $240 $241 $56 $-1 $242 reversed single #
loop $-1 $-1 $243 $96 #
plane-surface $-1 -49.381554002290905 -40.317704801246663 11.941805173286454 0 -0.82903758062907751 0.55919289150049634 1 0 0 forward_v I I I I #
coedge $-1 $244 $245 $246 $247 reversed $97 $-1 #
face $-1 $-1 $248 $57 $-1 $249 forward single #
loop $-1 $250 $251 $99 #
cone-surface $-1 -49.381554002290905 -36.756752673857306 12.706089042463535 0 0.82903758062907751 -0.55919289150049634 0.5 0 0 1 I I -0.70710678118654746 0.70710678118654746 0.5 forward I I I I #
loop $-1 $-1 $252 $75 #
coedge $-1 $160 $160 $253 $254 reversed $100 $-1 #
face $-1 $255 $256 $58 $-1 $257 reversed single #
loop $-1 $-1 $258 $102 #
plane-surface $-1 -12.86652758182494 -40.317704801246663 11.941805173286454 0 -0.82903758062907751 0.55919289150049634 1 0 0 forward_v I I I I #
coedge $-1 $259 $260 $261 $262 reversed $103 $-1 #
face $-1 $-1 $263 $59 $-1 $264 forward single #
loop $-1 $265 $266 $105 #
cone-surface $-1 -12.86652758182494 -36.756752673857306 12.706089042463535 0 0.82903758062907751 -0.55919289150049634 0.5 0 0 1 I I -0.70710678118654746 0.70710678118654746 0.5 forward I I I I #
loop $-1 $-1 $267 $77 #
coedge $-1 $169 $169 $268 $269 reversed $106 $-1 #
face $-1 $270 $271 $60 $-1 $272 reversed single #
loop $-1 $-1 $273 $108 #
plane-surface $-1 23.648498838641018 -40.317704801246663 11.941805173286454 0 -0.82903758062907751 0.55919289150049634 1 0 0 forward_v I I I I #
coedge $-1 $274 $275 $276 $277 reversed $109 $-1 #
face $-1 $-1 $278 $61 $-1 $279 forward single #
loop $-1 $280 $281 $111 #
cone-surface $-1 23.648498838641018 -36.756752673857306 12.706089042463535 0 0.82903758062907751 -0.55919289150049634 0.5 0 0 1 I I -0.70710678118654746 0.70710678118654746 0.5 forward I I I I #
loop $-1 $-1 $282 $79 #
coedge $-1 $178 $178 $283 $284 reversed $112 $-1 #
face $-1 $285 $286 $62 $-1 $287 reversed single #
loop $-1 $-1 $288 $114 #
plane-surface $-1 60.16352525910699 -40.317704801246663 11.941805173286454 0 -0.82903758062907751 0.55919289150049634 1 0 0 forward_v I I I I #
coedge $-1 $289 $290 $291 $292 reversed $115 $-1 #
face $-1 $-1 $293 $63 $-1 $294 forward single #
loop $-1 $295 $296 $117 #
cone-surface $-1 60.16352525910699 -36.756752673857306 12.706089042463535 0 0.82903758062907751 -0.55919289150049634 0.5 0 0 1 I I -0.70710678118654746 0.70710678118654746 0.5 forward I I I I #
loop $-1 $-1 $297 $81 #
coedge $-1 $187 $187 $298 $299 reversed $118 $-1 #
face $-1 $300 $301 $64 $-1 $302 reversed single #
loop $-1 $-1 $303 $120 #
plane-surface $-1 -49.381554002290905 -4.7730430516984939 78.791590063172222 0 0.82903758062907751 0.55919289150049634 1 0 0 forward_v I I I I #
coedge $-1 $304 $305 $306 $307 reversed $121 $-1 #
face $-1 $-1 $308 $65 $-1 $309 forward single #
loop $-1 $310 $311 $123 #
cone-surface $-1 -49.381554002290905 36.756752673857314 12.70608904246355 0 -0.82903758062907751 -0.55919289150049634 0.5 0 0 1 I I -0.70710678118654746 0.70710678118654746 0.5 forward I I I I #
loop $-1 $-1 $312 $83 #
coedge $-1 $196 $196 $313 $314 reversed $124 $-1 #
face $-1 $315 $316 $66 $-1 $317 reversed single #
loop $-1 $-1 $318 $126 #
plane-surface $-1 -12.86652758182494 -4.7730430516984939 78.791590063172222 0 0.82903758062907751 0.55919289150049634 1 0 0 forward_v I I I I #
coedge $-1 $319 $320 $321 $322 reversed $127 $-1 #
face $-1 $-1 $323 $67 $-1 $324 forward single #
loop $-1 $325 $326 $129 #
cone-surface $-1 -12.86652758182494 36.756752673857314 12.70608904246355 0 -0.82903758062907751 -0.55919289150049634 0.5 0 0 1 I I -0.70710678118654746 0.70710678118654746 0.5 forward I I I I #
loop $-1 $-1 $327 $85 #
coedge $-1 $205 $205 $328 $329 reversed $130 $-1 #
face $-1 $330 $331 $68 $-1 $332 reversed single #
loop $-1 $-1 $333 $132 #
plane-surface $-1 23.648498838641018 -4.7730430516984939 78.791590063172222 0 0.82903758062907751 0.55919289150049634 1 0 0 forward_v I I I I #
coedge $-1 $334 $335 $336 $337 reversed $133 $-1 #
face $-1 $-1 $338 $69 $-1 $339 forward single #
loop $-1 $340 $341 $135 #
cone-surface $-1 23.648498838641018 36.756752673857314 12.70608904246355 0 -0.82903758062907751 -0.55919289150049634 0.5 0 0 1 I I -0.70710678118654746 0.70710678118654746 0.5 forward I I I I #
loop $-1 $-1 $342 $87 #
coedge $-1 $214 $214 $343 $344 reversed $136 $-1 #
face $-1 $345 $346 $70 $-1 $347 forward single #
loop $-1 $-1 $348 $138 #
plane-surface $-1 60.16352525910699 -4.7730430516984939 78.791590063172222 0 0.82903758062907751 0.55919289150049634 1 0 0 forward_v I I I I #
coedge $-1 $349 $350 $351 $352 reversed $139 $-1 #
face $-1 $-1 $353 $71 $-1 $354 forward single #
loop $-1 $355 $356 $141 #
cone-surface $-1 60.16352525910699 36.756752673857314 12.70608904246355 0 -0.82903758062907751 -0.55919289150049634 0.5 0 0 1 I I -0.70710678118654746 0.70710678118654746 0.5 forward I I I I #
loop $-1 $-1 $357 $89 #
coedge $-1 $223 $223 $358 $359 reversed $142 $-1 #
face $-1 $360 $361 $54 $-1 $362 reversed single #
loop $-1 $-1 $363 $144 #
plane-surface $-1 0 -40.317704801246656 0 0 1 0 0 0 1 forward_v I I I I #
coedge $-1 $364 $365 $366 $367 forward $145 $-1 #
coedge $-1 $368 $147 $369 $370 forward $91 $-1 #
coedge $-1 $147 $368 $371 $372 forward $91 $-1 #
coedge $-1 $373 $374 $147 $231 reversed $375 $-1 #
edge $-1 $376 -40.317704801246656 $377 40.317704801246656 $230 $378 forward 7 unknown #
face $-1 $379 $380 $55 $-1 $381 reversed single #
loop $-1 $-1 $382 $148 #
plane-surface $-1 -59.549764941187995 0 -5.6069028278344923 -1 0 0 0 0 1 forward_v I I I I #
coedge $-1 $383 $384 $385 $386 forward $149 $-1 #
coedge $-1 $387 $151 $388 $389 reversed $94 $-1 #
coedge $-1 $151 $387 $390 $391 reversed $94 $-1 #
coedge $-1 $382 $392 $151 $239 reversed $233 $-1 #
edge $-1 $393 -40.317704801246656 $394 40.317704801246656 $238 $395 forward 7 unknown #
face $-1 $396 $397 $56 $-1 $398 forward single #
loop $-1 $-1 $399 $152 #
plane-surface $-1 -39.213343063393815 -156.9330096393183 90.59981903091051 -1 0 0 0 -0.82903758062907751 0.55919289150049634 forward_v I I I I #
coedge $-1 $400 $401 $402 $403 reversed $153 $-1 #
coedge $-1 $245 $155 $404 $405 reversed $97 $-1 #
coedge $-1 $155 $244 $400 $406 reversed $97 $-1 #
coedge $-1 $402 $407 $155 $247 forward $408 $-1 #
edge $-1 $409 29.005857395013688 $410 33.358104342168787 $246 $411 forward 7 unknown #
loop $-1 $-1 $253 $156 #
plane-surface $-1 -49.381554002290905 -40.317704801246663 11.941805173286454 0 -0.82903758062907751 0.55919289150049634 1 0 0 forward_v I I I I #
loop $-1 $-1 $412 $99 #
coedge $-1 $251 $251 $252 $413 reversed $157 $-1 #
coedge $-1 $252 $252 $251 $413 forward $159 $-1 #
coedge $-1 $253 $253 $160 $254 forward $248 $-1 #
edge $-1 $414 -4.4469525996725958e-016 $414 6.2831853071795996 $253 $415 forward 7 unknown #
face $-1 $416 $417 $58 $-1 $418 reversed single #
loop $-1 $-1 $419 $161 #
plane-surface $-1 -2.6983166429278498 -156.9330096393183 90.59981903091051 -1 0 0 0 -0.82903758062907751 0.55919289150049634 forward_v I I I I #
coedge $-1 $420 $421 $422 $423 reversed $162 $-1 #
coedge $-1 $260 $164 $424 $425 reversed $103 $-1 #
coedge $-1 $164 $259 $420 $426 reversed $103 $-1 #
coedge $-1 $422 $427 $164 $262 forward $417 $-1 #
edge $-1 $428 29.005857395013688 $429 33.358104342168787 $261 $430 forward 7 unknown #
loop $-1 $-1 $268 $165 #
plane-surface $-1 -12.86652758182494 -40.317704801246663 11.941805173286454 0 -0.82903758062907751 0.55919289150049634 1 0 0 forward_v I I I I #
loop $-1 $-1 $431 $105 #
coedge $-1 $266 $266 $267 $432 reversed $166 $-1 #
coedge $-1 $267 $267 $266 $432 forward $168 $-1 #
coedge $-1 $268 $268 $169 $269 forward $263 $-1 #
edge $-1 $433 -4.4469525996725958e-016 $433 6.2831853071795996 $268 $434 forward 7 unknown #
face $-1 $435 $436 $60 $-1 $437 reversed single #
loop $-1 $-1 $438 $170 #
plane-surface $-1 33.816709777538108 -156.9330096393183 90.59981903091051 -1 0 0 0 -0.82903758062907751 0.55919289150049634 forward_v I I I I #
coedge $-1 $439 $440 $441 $442 reversed $171 $-1 #
coedge $-1 $275 $173 $443 $444 reversed $109 $-1 #
coedge $-1 $173 $274 $439 $445 reversed $109 $-1 #
coedge $-1 $441 $446 $173 $277 forward $436 $-1 #
edge $-1 $447 29.005857395013688 $448 33.358104342168787 $276 $449 forward 7 unknown #
loop $-1 $-1 $283 $174 #
plane-surface $-1 23.648498838641018 -40.317704801246663 11.941805173286454 0 -0.82903758062907751 0.55919289150049634 1 0 0 forward_v I I I I #
loop $-1 $-1 $450 $111 #
coedge $-1 $281 $281 $282 $451 reversed $175 $-1 #
coedge $-1 $282 $282 $281 $451 forward $177 $-1 #
coedge $-1 $283 $283 $178 $284 forward $278 $-1 #
edge $-1 $452 -4.4469525996725958e-016 $452 6.2831853071795996 $283 $453 forward 7 unknown #
face $-1 $454 $455 $62 $-1 $456 forward single #
loop $-1 $-1 $291 $179 #
plane-surface $-1 0 -40.317704801246656 0 0 1 0 0 0 1 forward_v I I I I #
coedge $-1 $457 $458 $459 $460 reversed $180 $-1 #
coedge $-1 $290 $182 $461 $462 reversed $115 $-1 #
coedge $-1 $182 $289 $457 $463 reversed $115 $-1 #
coedge $-1 $459 $464 $182 $292 forward $286 $-1 #
edge $-1 $465 29.005857395013688 $466 33.358104342168787 $291 $467 forward 7 unknown #
loop $-1 $-1 $298 $183 #
plane-surface $-1 60.16352525910699 -40.317704801246663 11.941805173286454 0 -0.82903758062907751 0.55919289150049634 1 0 0 forward_v I I I I #
loop $-1 $-1 $468 $117 #
coedge $-1 $296 $296 $297 $469 reversed $184 $-1 #
coedge $-1 $297 $297 $296 $469 forward $186 $-1 #
coedge $-1 $298 $298 $187 $299 forward $293 $-1 #
edge $-1 $470 -4.4469525996725958e-016 $470 6.2831853071795996 $298 $471 forward 7 unknown #
face $-1 $472 $473 $64 $-1 $474 reversed single #
loop $-1 $-1 $475 $188 #
plane-surface $-1 -39.213343063393815 111.84226178637314 157.44960392079628 -1 0 0 0 0.82903758062907751 0.55919289150049634 forward_v I I I I #
coedge $-1 $476 $477 $478 $479 reversed $189 $-1 #
coedge $-1 $305 $191 $480 $481 reversed $121 $-1 #
coedge $-1 $191 $304 $476 $482 reversed $121 $-1 #
coedge $-1 $478 $483 $191 $307 forward $484 $-1 #
edge $-1 $485 15.603426091939916 $486 18.539053633766358 $306 $487 forward 7 unknown #
loop $-1 $-1 $313 $192 #
plane-surface $-1 -49.381554002290905 -4.7730430516984939 78.791590063172222 0 0.82903758062907751 0.55919289150049634 1 0 0 forward_v I I I I #
loop $-1 $-1 $488 $123 #
coedge $-1 $311 $311 $312 $489 reversed $193 $-1 #
coedge $-1 $312 $312 $311 $489 forward $195 $-1 #
coedge $-1 $313 $313 $196 $314 forward $308 $-1 #
edge $-1 $490 5.8327605653577847e-016 $490 6.2831853071796013 $313 $491 forward 7 unknown #
face $-1 $492 $493 $66 $-1 $494 forward single #
loop $-1 $-1 $495 $197 #
plane-surface $-1 -2.6983166429278498 111.84226178637314 157.44960392079628 -1 0 0 0 0.82903758062907751 0.55919289150049634 forward_v I I I I #
coedge $-1 $496 $497 $498 $499 reversed $198 $-1 #
coedge $-1 $320 $200 $500 $501 reversed $127 $-1 #
coedge $-1 $200 $319 $496 $502 reversed $127 $-1 #
coedge $-1 $498 $503 $200 $322 forward $493 $-1 #
edge $-1 $504 15.603426091939916 $505 18.539053633766358 $321 $506 forward 7 unknown #
loop $-1 $-1 $328 $201 #
plane-surface $-1 -12.86652758182494 -4.7730430516984939 78.791590063172222 0 0.82903758062907751 0.55919289150049634 1 0 0 forward_v I I I I #
loop $-1 $-1 $507 $129 #
coedge $-1 $326 $326 $327 $508 reversed $202 $-1 #
coedge $-1 $327 $327 $326 $508 forward $204 $-1 #
coedge $-1 $328 $328 $205 $329 forward $323 $-1 #
edge $-1 $509 5.8327605653577847e-016 $509 6.2831853071796013 $328 $510 forward 7 unknown #
face $-1 $511 $512 $68 $-1 $513 forward single #
loop $-1 $-1 $514 $206 #
plane-surface $-1 33.816709777538108 111.84226178637314 157.44960392079628 -1 0 0 0 0.82903758062907751 0.55919289150049634 forward_v I I I I #
coedge $-1 $515 $516 $517 $518 reversed $207 $-1 #
coedge $-1 $335 $209 $519 $520 reversed $133 $-1 #
coedge $-1 $209 $334 $515 $521 reversed $133 $-1 #
coedge $-1 $517 $522 $209 $337 forward $512 $-1 #
edge $-1 $523 15.603426091939916 $524 18.539053633766358 $336 $525 forward 7 unknown #
loop $-1 $-1 $343 $210 #
plane-surface $-1 23.648498838641018 -4.7730430516984939 78.791590063172222 0 0.82903758062907751 0.55919289150049634 1 0 0 forward_v I I I I #
loop $-1 $-1 $526 $135 #
coedge $-1 $341 $341 $342 $527 reversed $211 $-1 #
coedge $-1 $342 $342 $341 $527 forward $213 $-1 #
coedge $-1 $343 $343 $214 $344 forward $338 $-1 #
edge $-1 $528 5.8327605653577847e-016 $528 6.2831853071796013 $343 $529 forward 7 unknown #
face $-1 $530 $531 $70 $-1 $532 reversed single #
loop $-1 $-1 $351 $215 #
plane-surface $-1 0 0 16.294052120441567 0 0 1 1 0 0 forward_v I I I I #
coedge $-1 $533 $534 $535 $536 reversed $216 $-1 #
coedge $-1 $350 $218 $537 $538 reversed $139 $-1 #
coedge $-1 $218 $349 $533 $539 reversed $139 $-1 #
coedge $-1 $535 $540 $218 $352 forward $346 $-1 #
edge $-1 $541 15.603426091939916 $542 18.539053633766358 $351 $543 forward 7 unknown #
loop $-1 $-1 $358 $219 #
plane-surface $-1 60.16352525910699 -4.7730430516984939 78.791590063172222 0 0.82903758062907751 0.55919289150049634 1 0 0 forward_v I I I I #
loop $-1 $-1 $544 $141 #
coedge $-1 $356 $356 $357 $545 reversed $220 $-1 #
coedge $-1 $357 $357 $356 $545 forward $222 $-1 #
coedge $-1 $358 $358 $223 $359 forward $353 $-1 #
edge $-1 $546 5.8327605653577847e-016 $546 6.2831853071796013 $358 $547 forward 7 unknown #
face $-1 $548 $549 $54 $-1 $550 reversed single #
loop $-1 $-1 $551 $224 #
plane-surface $-1 -70.33173619800408 0 0 1 0 0 0 0 -1 forward_v I I I I #
coedge $-1 $552 $371 $553 $554 forward $225 $-1 #
coedge $-1 $555 $227 $552 $556 forward $145 $-1 #
coedge $-1 $227 $555 $557 $558 forward $145 $-1 #
coedge $-1 $374 $373 $227 $367 reversed $375 $-1 #
edge $-1 $559 -40.317704801246656 $560 40.317704801246656 $366 $561 forward 7 unknown #
coedge $-1 $229 $228 $562 $563 forward $91 $-1 #
coedge $-1 $564 $565 $228 $370 reversed $549 $-1 #
edge $-1 $377 -70.33173619800408 $566 70.33173619800408 $369 $567 forward 7 unknown #
coedge $-1 $363 $568 $229 $372 reversed $225 $-1 #
edge $-1 $569 -70.33173619800408 $376 70.33173619800408 $371 $570 forward 7 unknown #
coedge $-1 $366 $230 $568 $571 forward $375 $-1 #
coedge $-1 $230 $366 $564 $572 reversed $375 $-1 #
loop $-1 $-1 $373 $548 #
vertex $-1 $231 $573 #
vertex $-1 $231 $574 #
straight-curve $-1 70.33173619800408 0 16.294052120441567 0 1 0 I I #
face $-1 $575 $576 $55 $-1 $577 reversed single #
loop $-1 $-1 $578 $232 #
plane-surface $-1 0 -40.317704801246656 0 0 1 0 0 0 1 forward_v I I I I #
coedge $-1 $385 $238 $579 $580 reversed $233 $-1 #
coedge $-1 $581 $235 $578 $582 reversed $149 $-1 #
coedge $-1 $235 $581 $583 $584 reversed $149 $-1 #
coedge $-1 $392 $382 $235 $386 reversed $233 $-1 #
edge $-1 $585 -40.317704801246656 $586 40.317704801246656 $385 $587 forward 7 unknown #
coedge $-1 $237 $236 $588 $589 reversed $94 $-1 #
coedge $-1 $590 $591 $236 $389 forward $592 $-1 #
edge $-1 $593 -37.861360913206063 $394 -27.079389656389978 $388 $594 forward 7 unknown #
coedge $-1 $595 $579 $237 $391 forward $380 $-1 #
edge $-1 $393 27.079389656389978 $596 37.861360913206063 $390 $597 forward 7 unknown #
coedge $-1 $238 $385 $590 $598 reversed $233 $-1 #
vertex $-1 $391 $599 #
vertex $-1 $389 $600 #
straight-curve $-1 -59.549764941187995 0 -1.5113358650619233 0 1 0 I I #
face $-1 $-1 $408 $56 $-1 $601 reversed single #
loop $-1 $-1 $602 $240 #
plane-surface $-1 0 0 16.294052120441567 0 0 1 1 0 0 forward_v I I I I #
coedge $-1 $603 $604 $605 $606 reversed $241 $-1 #
coedge $-1 $607 $243 $245 $406 forward $153 $-1 #
coedge $-1 $243 $607 $603 $608 forward $153 $-1 #
coedge $-1 $605 $246 $243 $403 forward $408 $-1 #
edge $-1 $410 -34.858987940042539 $609 -14.522566062248362 $402 $610 forward 7 unknown #
coedge $-1 $611 $612 $244 $405 forward $397 $-1 #
edge $-1 $613 -41.084427560238922 $409 -38.148800018412494 $404 $614 forward 7 unknown #
edge $-1 $410 1.2809303928265426e-014 $613 5.2497583328521813 $245 $615 forward 7 unknown #
coedge $-1 $246 $605 $611 $616 reversed $408 $-1 #
loop $-1 $-1 $605 $396 #
vertex $-1 $616 $617 #
vertex $-1 $247 $618 #
straight-curve $-1 -59.549764941187995 -40.317704801246656 45.299909515455255 0 0 -1 I I #
coedge $-1 $412 $412 $-1 $619 reversed $250 $-1 #
edge $-1 $620 0 $620 6.2831853071796004 $251 $621 forward 7 unknown #
vertex $-1 $254 $622 #
ellipse-curve $-1 -49.381554002290905 -38.849891030333438 14.117928646864014 0 -0.82903758062907751 0.55919289150049634 1 0 0 1 I I #
face $-1 $-1 $623 $58 $-1 $624 forward single #
loop $-1 $-1 $261 $255 #
plane-surface $-1 0 -40.317704801246656 0 0 1 0 0 0 1 forward_v I I I I #
coedge $-1 $625 $626 $627 $628 reversed $256 $-1 #
coedge $-1 $629 $258 $260 $426 forward $162 $-1 #
coedge $-1 $258 $629 $625 $630 forward $162 $-1 #
coedge $-1 $627 $261 $258 $423 forward $417 $-1 #
edge $-1 $429 -16.60147472980956 $631 3.7349471479846201 $422 $632 forward 7 unknown #
coedge $-1 $633 $634 $259 $425 forward $623 $-1 #
edge $-1 $635 -41.084427560238922 $428 -38.148800018412494 $424 $636 forward 7 unknown #
edge $-1 $429 1.2809303928265426e-014 $635 5.2497583328521813 $260 $637 forward 7 unknown #
coedge $-1 $261 $627 $633 $638 reversed $417 $-1 #
vertex $-1 $638 $639 #
vertex $-1 $262 $640 #
straight-curve $-1 -23.03473852072203 -40.317704801246656 45.299909515455255 0 0 -1 I I #
coedge $-1 $431 $431 $-1 $641 reversed $265 $-1 #
edge $-1 $642 0 $642 6.2831853071796004 $266 $643 forward 7 unknown #
vertex $-1 $269 $644 #
ellipse-curve $-1 -12.86652758182494 -38.849891030333438 14.117928646864014 0 -0.82903758062907751 0.55919289150049634 1 0 0 1 I I #
face $-1 $-1 $645 $60 $-1 $646 forward single #
loop $-1 $-1 $276 $270 #
plane-surface $-1 0 -40.317704801246656 0 0 1 0 0 0 1 forward_v I I I I #
coedge $-1 $647 $648 $649 $650 reversed $271 $-1 #
coedge $-1 $651 $273 $275 $445 forward $171 $-1 #
coedge $-1 $273 $651 $647 $652 forward $171 $-1 #
coedge $-1 $649 $276 $273 $442 forward $436 $-1 #
edge $-1 $448 1.6560384804234189 $653 21.992460358217599 $441 $654 forward 7 unknown #
coedge $-1 $655 $656 $274 $444 forward $645 $-1 #
edge $-1 $657 -41.084427560238922 $447 -38.148800018412494 $443 $658 forward 7 unknown #
edge $-1 $448 1.2809303928265426e-014 $657 5.2497583328521813 $275 $659 forward 7 unknown #
coedge $-1 $276 $649 $655 $660 reversed $436 $-1 #
vertex $-1 $660 $661 #
vertex $-1 $277 $662 #
straight-curve $-1 13.480287899743928 -40.317704801246656 45.299909515455255 0 0 -1 I I #
coedge $-1 $450 $450 $-1 $663 reversed $280 $-1 #
edge $-1 $664 0 $664 6.2831853071796004 $281 $665 forward 7 unknown #
vertex $-1 $284 $666 #
ellipse-curve $-1 23.648498838641018 -38.849891030333438 14.117928646864014 0 -0.82903758062907751 0.55919289150049634 1 0 0 1 I I #
face $-1 $-1 $667 $62 $-1 $668 reversed single #
loop $-1 $-1 $461 $285 #
plane-surface $-1 0 0 16.294052120441567 0 0 1 1 0 0 forward_v I I I I #
coedge $-1 $669 $288 $290 $463 forward $180 $-1 #
coedge $-1 $288 $669 $670 $671 reversed $180 $-1 #
coedge $-1 $672 $291 $288 $460 forward $286 $-1 #
edge $-1 $466 19.913551690656405 $673 40.249973568450585 $459 $674 forward 7 unknown #
coedge $-1 $675 $676 $289 $462 forward $455 $-1 #
edge $-1 $677 -41.084427560238922 $465 -38.148800018412494 $461 $678 forward 7 unknown #
edge $-1 $466 1.2809303928265426e-014 $677 5.2497583328521813 $290 $679 forward 7 unknown #
coedge $-1 $291 $672 $675 $680 reversed $286 $-1 #
vertex $-1 $680 $681 #
vertex $-1 $292 $682 #
straight-curve $-1 49.9953143202099 -40.317704801246656 45.299909515455255 0 0 -1 I I #
coedge $-1 $468 $468 $-1 $683 reversed $295 $-1 #
edge $-1 $684 0 $684 6.2831853071796004 $296 $685 forward 7 unknown #
vertex $-1 $299 $686 #
ellipse-curve $-1 60.16352525910699 -38.849891030333438 14.117928646864014 0 -0.82903758062907751 0.55919289150049634 1 0 0 1 I I #
face $-1 $-1 $484 $64 $-1 $687 forward single #
loop $-1 $-1 $688 $300 #
plane-surface $-1 0 40.317704801246656 0 0 -1 0 0 0 -1 forward_v I I I I #
coedge $-1 $689 $690 $691 $692 reversed $301 $-1 #
coedge $-1 $693 $303 $305 $482 forward $189 $-1 #
coedge $-1 $303 $693 $689 $694 forward $189 $-1 #
coedge $-1 $691 $306 $303 $479 forward $484 $-1 #
edge $-1 $486 -34.858987940042539 $695 -14.522566062248362 $478 $696 forward 7 unknown #
coedge $-1 $697 $698 $304 $481 forward $473 $-1 #
edge $-1 $699 -66.782996787111685 $485 -62.430749839956576 $480 $700 forward 7 unknown #
edge $-1 $486 75.385651269641173 $699 80.635409602493354 $305 $701 forward 7 unknown #
coedge $-1 $306 $691 $697 $702 forward $484 $-1 #
loop $-1 $-1 $691 $472 #
vertex $-1 $481 $703 #
vertex $-1 $307 $704 #
straight-curve $-1 -59.549764941187995 55.921130893186572 16.294052120441563 0 -1 0 I I #
coedge $-1 $488 $488 $-1 $705 reversed $310 $-1 #
edge $-1 $706 0 $706 6.2831853071796004 $311 $707 forward 7 unknown #
vertex $-1 $314 $708 #
ellipse-curve $-1 -49.381554002290905 38.849891030333424 14.117928646864014 0 0.82903758062907751 0.55919289150049634 1 0 0 1 I I #
face $-1 $-1 $709 $66 $-1 $710 reversed single #
loop $-1 $-1 $321 $315 #
plane-surface $-1 0 0 16.294052120441567 0 0 1 1 0 0 forward_v I I I I #
coedge $-1 $711 $712 $713 $714 reversed $316 $-1 #
coedge $-1 $715 $318 $320 $502 forward $198 $-1 #
coedge $-1 $318 $715 $711 $716 forward $198 $-1 #
coedge $-1 $713 $321 $318 $499 forward $493 $-1 #
edge $-1 $505 -16.60147472980956 $717 3.7349471479846201 $498 $718 forward 7 unknown #
coedge $-1 $719 $720 $319 $501 forward $709 $-1 #
edge $-1 $721 -66.782996787111685 $504 -62.430749839956576 $500 $722 forward 7 unknown #
edge $-1 $505 75.385651269641173 $721 80.635409602493354 $320 $723 forward 7 unknown #
coedge $-1 $321 $713 $719 $724 forward $493 $-1 #
vertex $-1 $322 $725 #
vertex $-1 $322 $726 #
straight-curve $-1 -23.03473852072203 55.921130893186572 16.294052120441563 0 -1 0 I I #
coedge $-1 $507 $507 $-1 $727 reversed $325 $-1 #
edge $-1 $728 0 $728 6.2831853071796004 $326 $729 forward 7 unknown #
vertex $-1 $329 $730 #
ellipse-curve $-1 -12.86652758182494 38.849891030333424 14.117928646864014 0 0.82903758062907751 0.55919289150049634 1 0 0 1 I I #
face $-1 $-1 $731 $68 $-1 $732 reversed single #
loop $-1 $-1 $336 $330 #
plane-surface $-1 0 0 16.294052120441567 0 0 1 1 0 0 forward_v I I I I #
coedge $-1 $733 $734 $735 $736 reversed $331 $-1 #
coedge $-1 $737 $333 $335 $521 forward $207 $-1 #
coedge $-1 $333 $737 $733 $738 forward $207 $-1 #
coedge $-1 $735 $336 $333 $518 forward $512 $-1 #
edge $-1 $524 1.6560384804234189 $739 21.992460358217599 $517 $740 forward 7 unknown #
coedge $-1 $741 $742 $334 $520 forward $731 $-1 #
edge $-1 $743 -66.782996787111685 $523 -62.430749839956576 $519 $744 forward 7 unknown #
edge $-1 $524 75.385651269641173 $743 80.635409602493354 $335 $745 forward 7 unknown #
coedge $-1 $336 $735 $741 $746 forward $512 $-1 #
vertex $-1 $337 $747 #
vertex $-1 $337 $748 #
straight-curve $-1 13.480287899743928 55.921130893186572 16.294052120441563 0 -1 0 I I #
coedge $-1 $526 $526 $-1 $749 reversed $340 $-1 #
edge $-1 $750 0 $750 6.2831853071796004 $341 $751 forward 7 unknown #
vertex $-1 $344 $752 #
ellipse-curve $-1 23.648498838641018 38.849891030333424 14.117928646864014 0 0.82903758062907751 0.55919289150049634 1 0 0 1 I I #
face $-1 $-1 $753 $70 $-1 $754 reversed single #
loop $-1 $-1 $755 $345 #
plane-surface $-1 70.33173619800408 0 0 -1 0 0 0 0 1 forward_v I I I I #
coedge $-1 $756 $348 $350 $539 forward $216 $-1 #
coedge $-1 $348 $756 $755 $757 reversed $216 $-1 #
coedge $-1 $758 $351 $348 $536 forward $346 $-1 #
edge $-1 $542 19.913551690656405 $759 40.249973568450585 $535 $760 forward 7 unknown #
coedge $-1 $761 $762 $349 $538 forward $753 $-1 #
edge $-1 $763 -66.782996787111685 $541 -62.430749839956576 $537 $764 forward 7 unknown #
edge $-1 $542 75.385651269641173 $763 80.635409602493354 $350 $765 forward 7 unknown #
coedge $-1 $351 $758 $761 $766 forward $346 $-1 #
vertex $-1 $538 $767 #
vertex $-1 $352 $768 #
straight-curve $-1 49.9953143202099 55.921130893186572 16.294052120441563 0 -1 0 I I #
coedge $-1 $544 $544 $-1 $769 reversed $355 $-1 #
edge $-1 $770 0 $770 6.2831853071796004 $356 $771 forward 7 unknown #
vertex $-1 $359 $772 #
ellipse-curve $-1 60.16352525910699 38.849891030333424 14.117928646864014 0 0.82903758062907751 0.55919289150049634 1 0 0 1 I I #
face $-1 $-1 $375 $54 $-1 $773 reversed single #
loop $-1 $-1 $564 $360 #
plane-surface $-1 0 40.317704801246656 0 0 -1 0 0 0 -1 forward_v I I I I #
coedge $-1 $774 $562 $565 $775 forward $361 $-1 #
coedge $-1 $568 $363 $364 $556 reversed $225 $-1 #
coedge $-1 $562 $774 $363 $554 reversed $361 $-1 #
edge $-1 $569 -16.294052120441567 $776 16.294052120441567 $553 $777 forward 7 unknown #
coedge $-1 $365 $364 $774 $778 forward $145 $-1 #
edge $-1 $560 -70.33173619800408 $776 70.33173619800408 $552 $779 forward 7 unknown #
coedge $-1 $565 $564 $365 $558 reversed $549 $-1 #
edge $-1 $780 -70.33173619800408 $559 70.33173619800408 $557 $781 forward 7 unknown #
vertex $-1 $367 $782 #
vertex $-1 $571 $783 #
straight-curve $-1 70.33173619800408 0 -16.294052120441567 0 -1 0 I I #
coedge $-1 $551 $553 $368 $563 reversed $361 $-1 #
edge $-1 $566 -40.317704801246656 $569 40.317704801246656 $562 $784 forward 7 unknown #
coedge $-1 $557 $369 $374 $572 forward $549 $-1 #
coedge $-1 $369 $557 $551 $775 reversed $549 $-1 #
vertex $-1 $370 $785 #
straight-curve $-1 0 40.317704801246656 16.294052120441567 -1 0 0 I I #
coedge $-1 $371 $552 $373 $571 reversed $225 $-1 #
vertex $-1 $563 $786 #
straight-curve $-1 0 -40.317704801246656 16.294052120441567 1 0 0 I I #
edge $-1 $376 -16.294052120441567 $560 16.294052120441567 $373 $787 forward 7 unknown #
edge $-1 $377 -16.294052120441567 $559 16.294052120441567 $374 $788 forward 7 unknown #
point $-1 70.33173619800408 -40.317704801246656 16.294052120441567 #
point $-1 70.33173619800408 40.317704801246656 16.294052120441567 #
face $-1 $-1 $592 $55 $-1 $789 reversed single #
loop $-1 $-1 $790 $379 #
plane-surface $-1 -70.33173619800408 0 0 1 0 0 0 0 -1 forward_v I I I I #
coedge $-1 $579 $595 $383 $582 forward $380 $-1 #
coedge $-1 $390 $578 $382 $580 forward $380 $-1 #
edge $-1 $586 -6.8990183766898152 $393 1.2921155488553229 $579 $791 forward 7 unknown #
coedge $-1 $384 $383 $790 $792 reversed $149 $-1 #
edge $-1 $793 -37.861360913206063 $586 -27.079389656389978 $578 $794 forward 7 unknown #
coedge $-1 $591 $590 $384 $584 forward $592 $-1 #
edge $-1 $585 27.079389656389978 $795 37.861360913206063 $583 $796 forward 7 unknown #
vertex $-1 $584 $797 #
vertex $-1 $582 $798 #
straight-curve $-1 -59.549764941187995 0 -9.7024697906070614 0 -1 0 I I #
coedge $-1 $799 $800 $387 $589 forward $576 $-1 #
edge $-1 $596 -40.317704801246656 $593 40.317704801246656 $588 $801 forward 7 unknown #
coedge $-1 $583 $388 $392 $598 forward $592 $-1 #
coedge $-1 $388 $583 $799 $802 reversed $592 $-1 #
loop $-1 $-1 $583 $575 #
vertex $-1 $802 $803 #
straight-curve $-1 -32.470375284798017 40.317704801246656 -1.5113358650619233 1 0 0 I I #
coedge $-1 $578 $390 $800 $804 forward $380 $-1 #
vertex $-1 $804 $805 #
straight-curve $-1 -32.470375284798017 -40.317704801246656 -1.5113358650619233 -1 0 0 I I #
edge $-1 $394 -1.2921155488553229 $585 6.8990183766898152 $590 $806 forward 7 unknown #
point $-1 -59.549764941187995 -40.317704801246656 -1.5113358650619233 #
point $-1 -59.549764941187995 40.317704801246656 -1.5113358650619233 #
plane-surface $-1 0 -40.317704801246656 0 0 1 0 0 0 1 forward_v I I I I #
coedge $-1 $612 $611 $604 $807 forward $397 $-1 #
coedge $-1 $604 $399 $401 $608 reversed $241 $-1 #
coedge $-1 $399 $603 $602 $807 reversed $241 $-1 #
coedge $-1 $407 $402 $399 $606 forward $408 $-1 #
edge $-1 $609 -33.358104342168787 $808 -29.005857395013688 $605 $809 forward 7 unknown #
coedge $-1 $401 $400 $612 $810 reversed $153 $-1 #
edge $-1 $811 -5.2497583328521813 $609 -1.2809303928265426e-014 $603 $812 forward 7 unknown #
vertex $-1 $403 $813 #
straight-curve $-1 -24.690777001145452 -40.317704801246656 11.941805173286472 1 0 0 I I #
coedge $-1 $602 $404 $407 $616 forward $397 $-1 #
coedge $-1 $404 $602 $607 $810 forward $397 $-1 #
vertex $-1 $405 $814 #
straight-curve $-1 -59.549764941187995 -78.46650481965915 16.294052120441563 0 -1 0 I I #
straight-curve $-1 -59.549764941187995 -40.317704801246663 11.941805173286454 0 0.55919289150049634 0.82903758062907751 I I #
edge $-1 $409 -59.549764941187995 $808 -39.213343063393815 $407 $815 forward 7 unknown #
point $-1 -59.549764941187995 -40.317704801246656 16.294052120441567 #
point $-1 -59.549764941187995 -40.317704801246656 11.941805173286465 #
edge $-1 $816 1 $816 0 $412 $-1 forward 7 unknown #
vertex $-1 $413 $817 #
ellipse-curve $-1 -49.381554002290905 -37.171271464171845 12.985685488213784 0 -0.82903758062907751 0.55919289150049634 1 0 0 1 I I #
point $-1 -48.381554002290905 -38.849891030333431 14.117928646864009 #
loop $-1 $-1 $424 $416 #
plane-surface $-1 0 0 16.294052120441567 0 0 1 1 0 0 forward_v I I I I #
coedge $-1 $626 $419 $421 $630 reversed $256 $-1 #
coedge $-1 $419 $625 $818 $819 reversed $256 $-1 #
coedge $-1 $427 $422 $419 $628 forward $417 $-1 #
edge $-1 $631 -33.358104342168787 $820 -29.005857395013688 $627 $821 forward 7 unknown #
coedge $-1 $421 $420 $634 $822 reversed $162 $-1 #
edge $-1 $823 -5.2497583328521813 $631 -1.2809303928265426e-014 $625 $824 forward 7 unknown #
vertex $-1 $423 $825 #
straight-curve $-1 -6.4332637909124699 -40.317704801246656 11.941805173286472 1 0 0 I I #
coedge $-1 $818 $424 $427 $638 forward $623 $-1 #
coedge $-1 $424 $818 $629 $822 forward $623 $-1 #
vertex $-1 $425 $826 #
straight-curve $-1 -23.03473852072203 -78.46650481965915 16.294052120441563 0 -1 0 I I #
straight-curve $-1 -23.03473852072203 -40.317704801246663 11.941805173286454 0 0.55919289150049634 0.82903758062907751 I I #
edge $-1 $428 -23.03473852072203 $820 -2.6983166429278498 $427 $827 forward 7 unknown #
point $-1 -23.03473852072203 -40.317704801246656 16.294052120441567 #
point $-1 -23.03473852072203 -40.317704801246656 11.941805173286465 #
edge $-1 $828 1 $828 0 $431 $-1 forward 7 unknown #
vertex $-1 $432 $829 #
ellipse-curve $-1 -12.86652758182494 -37.171271464171845 12.985685488213784 0 -0.82903758062907751 0.55919289150049634 1 0 0 1 I I #
point $-1 -11.86652758182494 -38.849891030333431 14.117928646864009 #
loop $-1 $-1 $443 $435 #
plane-surface $-1 0 0 16.294052120441567 0 0 1 1 0 0 forward_v I I I I #
coedge $-1 $648 $438 $440 $652 reversed $271 $-1 #
coedge $-1 $438 $647 $830 $831 reversed $271 $-1 #
coedge $-1 $446 $441 $438 $650 forward $436 $-1 #
edge $-1 $653 -33.358104342168787 $832 -29.005857395013688 $649 $833 forward 7 unknown #
coedge $-1 $440 $439 $656 $834 reversed $171 $-1 #
edge $-1 $835 -5.2497583328521813 $653 -1.2809303928265426e-014 $647 $836 forward 7 unknown #
vertex $-1 $442 $837 #
straight-curve $-1 11.824249419320509 -40.317704801246656 11.941805173286472 1 0 0 I I #
coedge $-1 $830 $443 $446 $660 forward $645 $-1 #
coedge $-1 $443 $830 $651 $834 forward $645 $-1 #
vertex $-1 $444 $838 #
straight-curve $-1 13.480287899743928 -78.46650481965915 16.294052120441563 0 -1 0 I I #
straight-curve $-1 13.480287899743928 -40.317704801246663 11.941805173286454 0 0.55919289150049634 0.82903758062907751 I I #
edge $-1 $447 13.480287899743928 $832 33.816709777538108 $446 $839 forward 7 unknown #
point $-1 13.480287899743928 -40.317704801246656 16.294052120441567 #
point $-1 13.480287899743928 -40.317704801246656 11.941805173286465 #
edge $-1 $840 1 $840 0 $450 $-1 forward 7 unknown #
vertex $-1 $451 $841 #
ellipse-curve $-1 23.648498838641018 -37.171271464171845 12.985685488213784 0 -0.82903758062907751 0.55919289150049634 1 0 0 1 I I #
point $-1 24.648498838641018 -38.849891030333431 14.117928646864009 #
loop $-1 $-1 $670 $454 #
plane-surface $-1 70.33173619800408 0 0 -1 0 0 0 0 1 forward_v I I I I #
coedge $-1 $458 $457 $676 $842 reversed $180 $-1 #
coedge $-1 $843 $844 $458 $671 forward $667 $-1 #
edge $-1 $673 -6.3225843286336678 $845 -1.0728259957814994 $670 $846 forward 7 unknown #
coedge $-1 $464 $459 $844 $847 reversed $286 $-1 #
vertex $-1 $460 $848 #
straight-curve $-1 30.081762629553495 -40.317704801246656 11.941805173286472 1 0 0 I I #
coedge $-1 $849 $461 $464 $680 forward $455 $-1 #
coedge $-1 $461 $849 $669 $842 forward $455 $-1 #
vertex $-1 $462 $850 #
straight-curve $-1 49.9953143202099 -78.46650481965915 16.294052120441563 0 -1 0 I I #
straight-curve $-1 49.9953143202099 -40.317704801246663 11.941805173286454 0 0.55919289150049634 0.82903758062907751 I I #
edge $-1 $465 49.9953143202099 $851 70.33173619800408 $464 $852 forward 7 unknown #
point $-1 49.9953143202099 -40.317704801246656 16.294052120441567 #
point $-1 49.9953143202099 -40.317704801246656 11.941805173286465 #
edge $-1 $853 1 $853 0 $468 $-1 forward 7 unknown #
vertex $-1 $469 $854 #
ellipse-curve $-1 60.16352525910699 -37.171271464171845 12.985685488213784 0 -0.82903758062907751 0.55919289150049634 1 0 0 1 I I #
point $-1 61.16352525910699 -38.849891030333431 14.117928646864009 #
plane-surface $-1 0 0 16.294052120441567 0 0 1 1 0 0 forward_v I I I I #
coedge $-1 $698 $697 $690 $855 forward $473 $-1 #
coedge $-1 $690 $475 $477 $694 reversed $301 $-1 #
coedge $-1 $475 $689 $688 $855 reversed $301 $-1 #
coedge $-1 $483 $478 $475 $692 forward $484 $-1 #
edge $-1 $695 -18.539053633766358 $856 -15.603426091939916 $691 $857 forward 7 unknown #
coedge $-1 $477 $476 $698 $858 reversed $189 $-1 #
edge $-1 $859 -80.635409602493354 $695 -75.385651269641173 $689 $860 forward 7 unknown #
vertex $-1 $479 $861 #
straight-curve $-1 -24.690777001145452 37.382077259420214 16.294052120441563 1 0 0 I I #
coedge $-1 $688 $480 $483 $702 reversed $473 $-1 #
coedge $-1 $480 $688 $693 $858 forward $473 $-1 #
vertex $-1 $481 $862 #
straight-curve $-1 -59.549764941187995 40.317704801246656 78.724801960398139 0 0 1 I I #
straight-curve $-1 -59.549764941187995 -4.7730430516984939 78.791590063172222 0 0.55919289150049634 -0.82903758062907751 I I #
edge $-1 $856 39.213343063393815 $485 59.549764941187995 $697 $863 forward 7 unknown #
point $-1 -59.549764941187995 40.317704801246656 16.294052120441567 #
point $-1 -59.549764941187995 37.382077259420214 16.294052120441556 #
edge $-1 $864 1 $864 0 $488 $-1 forward 7 unknown #
vertex $-1 $489 $865 #
ellipse-curve $-1 -49.381554002290905 37.171271464171852 12.985685488213798 0 0.82903758062907751 0.55919289150049634 1 0 0 1 I I #
point $-1 -48.381554002290905 38.849891030333438 14.117928646864023 #
loop $-1 $-1 $500 $492 #
plane-surface $-1 0 40.317704801246656 0 0 -1 0 0 0 -1 forward_v I I I I #
coedge $-1 $712 $495 $497 $716 reversed $316 $-1 #
coedge $-1 $495 $711 $866 $867 reversed $316 $-1 #
coedge $-1 $503 $498 $495 $714 forward $493 $-1 #
edge $-1 $717 -18.539053633766358 $868 -15.603426091939916 $713 $869 forward 7 unknown #
coedge $-1 $497 $496 $720 $870 reversed $198 $-1 #
edge $-1 $871 -80.635409602493354 $717 -75.385651269641173 $711 $872 forward 7 unknown #
vertex $-1 $499 $873 #
straight-curve $-1 -6.4332637909124699 37.382077259420214 16.294052120441563 1 0 0 I I #
coedge $-1 $866 $500 $503 $724 reversed $709 $-1 #
coedge $-1 $500 $866 $715 $870 forward $709 $-1 #
vertex $-1 $501 $874 #
straight-curve $-1 -23.03473852072203 40.317704801246656 78.724801960398139 0 0 1 I I #
straight-curve $-1 -23.03473852072203 -4.7730430516984939 78.791590063172222 0 0.55919289150049634 -0.82903758062907751 I I #
edge $-1 $868 2.6983166429278498 $504 23.03473852072203 $719 $875 forward 7 unknown #
point $-1 -23.03473852072203 40.317704801246656 16.294052120441567 #
point $-1 -23.03473852072203 37.382077259420214 16.294052120441556 #
edge $-1 $876 1 $876 0 $507 $-1 forward 7 unknown #
vertex $-1 $508 $877 #
ellipse-curve $-1 -12.86652758182494 37.171271464171852 12.985685488213798 0 0.82903758062907751 0.55919289150049634 1 0 0 1 I I #
point $-1 -11.86652758182494 38.849891030333438 14.117928646864023 #
loop $-1 $-1 $519 $511 #
plane-surface $-1 0 40.317704801246656 0 0 -1 0 0 0 -1 forward_v I I I I #
coedge $-1 $734 $514 $516 $738 reversed $331 $-1 #
coedge $-1 $514 $733 $878 $879 reversed $331 $-1 #
coedge $-1 $522 $517 $514 $736 forward $512 $-1 #
edge $-1 $739 -18.539053633766358 $880 -15.603426091939916 $735 $881 forward 7 unknown #
coedge $-1 $516 $515 $742 $882 reversed $207 $-1 #
edge $-1 $883 -80.635409602493354 $739 -75.385651269641173 $733 $884 forward 7 unknown #
vertex $-1 $518 $885 #
straight-curve $-1 11.824249419320509 37.382077259420214 16.294052120441563 1 0 0 I I #
coedge $-1 $878 $519 $522 $746 reversed $731 $-1 #
coedge $-1 $519 $878 $737 $882 forward $731 $-1 #
vertex $-1 $520 $886 #
straight-curve $-1 13.480287899743928 40.317704801246656 78.724801960398139 0 0 1 I I #
straight-curve $-1 13.480287899743928 -4.7730430516984939 78.791590063172222 0 0.55919289150049634 -0.82903758062907751 I I #
edge $-1 $880 -33.816709777538108 $523 -13.480287899743928 $741 $887 forward 7 unknown #
point $-1 13.480287899743928 40.317704801246656 16.294052120441567 #
point $-1 13.480287899743928 37.382077259420214 16.294052120441556 #
edge $-1 $888 1 $888 0 $526 $-1 forward 7 unknown #
vertex $-1 $527 $889 #
ellipse-curve $-1 23.648498838641018 37.171271464171852 12.985685488213798 0 0.82903758062907751 0.55919289150049634 1 0 0 1 I I #
point $-1 24.648498838641018 38.849891030333438 14.117928646864023 #
loop $-1 $-1 $537 $530 #
plane-surface $-1 0 40.317704801246656 0 0 -1 0 0 0 -1 forward_v I I I I #
coedge $-1 $890 $891 $534 $757 forward $531 $-1 #
coedge $-1 $534 $533 $762 $892 reversed $216 $-1 #
edge $-1 $759 41.390530797028177 $893 46.640289129880358 $755 $894 forward 7 unknown #
coedge $-1 $540 $535 $891 $895 forward $346 $-1 #
vertex $-1 $895 $896 #
straight-curve $-1 30.081762629553495 37.382077259420214 16.294052120441563 1 0 0 I I #
coedge $-1 $897 $537 $540 $766 reversed $753 $-1 #
coedge $-1 $537 $897 $756 $892 forward $753 $-1 #
vertex $-1 $538 $898 #
straight-curve $-1 49.9953143202099 40.317704801246656 78.724801960398139 0 0 1 I I #
straight-curve $-1 49.9953143202099 -4.7730430516984939 78.791590063172222 0 0.55919289150049634 -0.82903758062907751 I I #
edge $-1 $899 -70.33173619800408 $541 -49.9953143202099 $761 $900 forward 7 unknown #
point $-1 49.9953143202099 40.317704801246656 16.294052120441567 #
point $-1 49.9953143202099 37.382077259420214 16.294052120441556 #
edge $-1 $901 1 $901 0 $544 $-1 forward 7 unknown #
vertex $-1 $545 $902 #
ellipse-curve $-1 60.16352525910699 37.171271464171852 12.985685488213798 0 0.82903758062907751 0.55919289150049634 1 0 0 1 I I #
point $-1 61.16352525910699 38.849891030333438 14.117928646864023 #
plane-surface $-1 70.33173619800408 0 0 -1 0 0 0 0 1 forward_v I I I I #
coedge $-1 $553 $551 $555 $778 reversed $361 $-1 #
edge $-1 $566 -16.294052120441567 $780 16.294052120441567 $565 $903 forward 7 unknown #
vertex $-1 $778 $904 #
straight-curve $-1 -70.33173619800408 -40.317704801246656 0 0 0 -1 I I #
edge $-1 $776 -40.317704801246656 $780 40.317704801246656 $774 $905 forward 7 unknown #
straight-curve $-1 0 -40.317704801246656 -16.294052120441567 -1 0 0 I I #
vertex $-1 $558 $906 #
straight-curve $-1 0 40.317704801246656 -16.294052120441567 1 0 0 I I #
point $-1 70.33173619800408 40.317704801246656 -16.294052120441567 #
point $-1 70.33173619800408 -40.317704801246656 -16.294052120441567 #
straight-curve $-1 -70.33173619800408 0 16.294052120441567 0 -1 0 I I #
point $-1 -70.33173619800408 40.317704801246656 16.294052120441567 #
point $-1 -70.33173619800408 -40.317704801246656 16.294052120441567 #
straight-curve $-1 70.33173619800408 -40.317704801246656 0 0 0 -1 I I #
straight-curve $-1 70.33173619800408 40.317704801246656 0 0 0 -1 I I #
plane-surface $-1 0 40.317704801246656 0 0 -1 0 0 0 -1 forward_v I I I I #
coedge $-1 $800 $799 $581 $792 forward $576 $-1 #
straight-curve $-1 -59.549764941187995 -40.317704801246656 -2.8034514139172462 0 0 1 I I #
edge $-1 $795 -40.317704801246656 $793 40.317704801246656 $790 $907 forward 7 unknown #
vertex $-1 $582 $908 #
straight-curve $-1 -32.470375284798017 -40.317704801246656 -9.7024697906070614 1 0 0 I I #
vertex $-1 $584 $909 #
straight-curve $-1 -32.470375284798017 40.317704801246656 -9.7024697906070614 -1 0 0 I I #
point $-1 -59.549764941187995 40.317704801246656 -9.7024697906070614 #
point $-1 -59.549764941187995 -40.317704801246656 -9.7024697906070614 #
coedge $-1 $790 $588 $591 $802 forward $576 $-1 #
coedge $-1 $588 $790 $595 $804 reversed $576 $-1 #
straight-curve $-1 -70.33173619800408 0 -1.5113358650619233 0 1 0 I I #
edge $-1 $593 1.5113358650619233 $795 9.7024697906070614 $591 $910 forward 7 unknown #
point $-1 -70.33173619800408 40.317704801246656 -1.5113358650619233 #
edge $-1 $596 1.5113358650619233 $793 9.7024697906070614 $800 $911 forward 7 unknown #
point $-1 -70.33173619800408 -40.317704801246656 -1.5113358650619233 #
straight-curve $-1 -59.549764941187995 40.317704801246656 -2.8034514139172462 0 0 -1 I I #
edge $-1 $808 38.148800018412494 $811 41.084427560238922 $602 $912 forward 7 unknown #
vertex $-1 $807 $913 #
straight-curve $-1 -39.213343063393815 -40.317704801246656 45.299909515455255 0 0 1 I I #
edge $-1 $811 14.522566062248362 $613 34.858987940042539 $612 $914 forward 7 unknown #
vertex $-1 $810 $915 #
straight-curve $-1 -39.213343063393815 -40.317704801246663 11.941805173286454 0 -0.55919289150049634 -0.82903758062907751 I I #
point $-1 -39.213343063393815 -40.317704801246656 11.941805173286465 #
point $-1 -59.549764941187995 -37.382077259420228 16.294052120441567 #
straight-curve $-1 0 -40.317704801246656 16.294052120441567 1 0 0 I I #
vertex $-1 $619 $916 #
point $-1 -48.381554002290905 -37.171271464171845 12.985685488213784 #
coedge $-1 $634 $633 $626 $819 forward $623 $-1 #
edge $-1 $820 38.148800018412494 $823 41.084427560238922 $818 $917 forward 7 unknown #
vertex $-1 $819 $918 #
straight-curve $-1 -2.6983166429278498 -40.317704801246656 45.299909515455255 0 0 1 I I #
edge $-1 $823 -3.7349471479846201 $635 16.60147472980956 $634 $919 forward 7 unknown #
vertex $-1 $822 $920 #
straight-curve $-1 -2.6983166429278498 -40.317704801246663 11.941805173286454 0 -0.55919289150049634 -0.82903758062907751 I I #
point $-1 -2.6983166429278498 -40.317704801246656 11.941805173286465 #
point $-1 -23.03473852072203 -37.382077259420228 16.294052120441567 #
straight-curve $-1 0 -40.317704801246656 16.294052120441567 1 0 0 I I #
vertex $-1 $641 $921 #
point $-1 -11.86652758182494 -37.171271464171845 12.985685488213784 #
coedge $-1 $656 $655 $648 $831 forward $645 $-1 #
edge $-1 $832 38.148800018412494 $835 41.084427560238922 $830 $922 forward 7 unknown #
vertex $-1 $831 $923 #
straight-curve $-1 33.816709777538108 -40.317704801246656 45.299909515455255 0 0 1 I I #
edge $-1 $835 -21.992460358217599 $657 -1.6560384804234189 $656 $924 forward 7 unknown #
vertex $-1 $834 $925 #
straight-curve $-1 33.816709777538108 -40.317704801246663 11.941805173286454 0 -0.55919289150049634 -0.82903758062907751 I I #
point $-1 33.816709777538108 -40.317704801246656 11.941805173286465 #
point $-1 13.480287899743928 -37.382077259420228 16.294052120441567 #
straight-curve $-1 0 -40.317704801246656 16.294052120441567 1 0 0 I I #
vertex $-1 $663 $926 #
point $-1 24.648498838641018 -37.171271464171845 12.985685488213784 #
edge $-1 $845 -40.249973568450585 $677 -19.913551690656405 $676 $927 forward 7 unknown #
coedge $-1 $844 $670 $849 $928 reversed $667 $-1 #
coedge $-1 $670 $843 $672 $847 forward $667 $-1 #
vertex $-1 $671 $929 #
straight-curve $-1 70.33173619800408 -36.782160588762274 17.183465188420243 0 0.55919289150049634 0.82903758062907751 I I #
edge $-1 $851 -16.294052120441567 $673 -11.941805173286465 $844 $930 forward 7 unknown #
point $-1 70.33173619800408 -40.317704801246656 11.941805173286465 #
coedge $-1 $676 $675 $843 $928 forward $455 $-1 #
point $-1 49.9953143202099 -37.382077259420228 16.294052120441567 #
vertex $-1 $928 $931 #
straight-curve $-1 0 -40.317704801246656 16.294052120441567 1 0 0 I I #
vertex $-1 $683 $932 #
point $-1 61.16352525910699 -37.171271464171845 12.985685488213784 #
edge $-1 $856 62.430749839956576 $859 66.782996787111685 $688 $933 forward 7 unknown #
vertex $-1 $702 $934 #
straight-curve $-1 -39.213343063393815 55.921130893186572 16.294052120441563 0 1 0 I I #
edge $-1 $859 14.522566062248362 $699 34.858987940042539 $698 $935 forward 7 unknown #
vertex $-1 $858 $936 #
straight-curve $-1 -39.213343063393815 -4.7730430516984939 78.791590063172222 0 -0.55919289150049634 0.82903758062907751 I I #
point $-1 -39.213343063393815 37.382077259420214 16.294052120441556 #
point $-1 -59.549764941187995 40.317704801246656 11.941805173286454 #
straight-curve $-1 0 40.317704801246656 16.294052120441567 -1 0 0 I I #
vertex $-1 $705 $937 #
point $-1 -48.381554002290905 37.171271464171852 12.985685488213798 #
coedge $-1 $720 $719 $712 $867 forward $709 $-1 #
edge $-1 $868 62.430749839956576 $871 66.782996787111685 $866 $938 forward 7 unknown #
vertex $-1 $724 $939 #
straight-curve $-1 -2.6983166429278498 55.921130893186572 16.294052120441563 0 1 0 I I #
edge $-1 $871 -3.7349471479846201 $721 16.60147472980956 $720 $940 forward 7 unknown #
vertex $-1 $870 $941 #
straight-curve $-1 -2.6983166429278498 -4.7730430516984939 78.791590063172222 0 -0.55919289150049634 0.82903758062907751 I I #
point $-1 -2.6983166429278498 37.382077259420214 16.294052120441556 #
point $-1 -23.03473852072203 40.317704801246656 11.941805173286454 #
straight-curve $-1 0 40.317704801246656 16.294052120441567 -1 0 0 I I #
vertex $-1 $727 $942 #
point $-1 -11.86652758182494 37.171271464171852 12.985685488213798 #
coedge $-1 $742 $741 $734 $879 forward $731 $-1 #
edge $-1 $880 62.430749839956576 $883 66.782996787111685 $878 $943 forward 7 unknown #
vertex $-1 $746 $944 #
straight-curve $-1 33.816709777538108 55.921130893186572 16.294052120441563 0 1 0 I I #
edge $-1 $883 -21.992460358217599 $743 -1.6560384804234189 $742 $945 forward 7 unknown #
vertex $-1 $882 $946 #
straight-curve $-1 33.816709777538108 -4.7730430516984939 78.791590063172222 0 -0.55919289150049634 0.82903758062907751 I I #
point $-1 33.816709777538108 37.382077259420214 16.294052120441556 #
point $-1 13.480287899743928 40.317704801246656 11.941805173286454 #
straight-curve $-1 0 40.317704801246656 16.294052120441567 -1 0 0 I I #
vertex $-1 $749 $947 #
point $-1 24.648498838641018 37.171271464171852 12.985685488213798 #
coedge $-1 $891 $755 $897 $948 reversed $531 $-1 #
coedge $-1 $755 $890 $758 $895 reversed $531 $-1 #
edge $-1 $893 -40.249973568450585 $763 -19.913551690656405 $762 $949 forward 7 unknown #
vertex $-1 $757 $950 #
straight-curve $-1 70.33173619800408 14.236786662289692 50.608357633363127 0 0.55919289150049634 -0.82903758062907751 I I #
edge $-1 $759 37.382077259420214 $899 40.317704801246656 $891 $951 forward 7 unknown #
point $-1 70.33173619800408 37.382077259420214 16.294052120441556 #
coedge $-1 $762 $761 $890 $948 forward $753 $-1 #
point $-1 49.9953143202099 40.317704801246656 11.941805173286454 #
vertex $-1 $895 $952 #
straight-curve $-1 0 40.317704801246656 16.294052120441567 -1 0 0 I I #
vertex $-1 $769 $953 #
point $-1 61.16352525910699 37.171271464171852 12.985685488213798 #
straight-curve $-1 -70.33173619800408 40.317704801246656 0 0 0 -1 I I #
point $-1 -70.33173619800408 -40.317704801246656 -16.294052120441567 #
straight-curve $-1 -70.33173619800408 0 -16.294052120441567 0 1 0 I I #
point $-1 -70.33173619800408 40.317704801246656 -16.294052120441567 #
straight-curve $-1 -70.33173619800408 0 -9.7024697906070614 0 -1 0 I I #
point $-1 -70.33173619800408 -40.317704801246656 -9.7024697906070614 #
point $-1 -70.33173619800408 40.317704801246656 -9.7024697906070614 #
straight-curve $-1 -70.33173619800408 40.317704801246656 0 0 0 -1 I I #
straight-curve $-1 -70.33173619800408 -40.317704801246656 0 0 0 -1 I I #
straight-curve $-1 -39.213343063393815 -78.46650481965915 16.294052120441563 0 1 0 I I #
point $-1 -39.213343063393815 -40.317704801246656 16.294052120441567 #
straight-curve $-1 -24.690777001145452 -37.382077259420228 16.294052120441567 -1 0 0 I I #
point $-1 -39.213343063393815 -37.382077259420228 16.294052120441567 #
point $-1 -49.381554002290905 -36.342233883542768 12.426492596713286 #
straight-curve $-1 -2.6983166429278498 -78.46650481965915 16.294052120441563 0 1 0 I I #
point $-1 -2.6983166429278498 -40.317704801246656 16.294052120441567 #
straight-curve $-1 -6.4332637909124699 -37.382077259420228 16.294052120441567 -1 0 0 I I #
point $-1 -2.6983166429278498 -37.382077259420228 16.294052120441567 #
point $-1 -12.86652758182494 -36.342233883542768 12.426492596713286 #
straight-curve $-1 33.816709777538108 -78.46650481965915 16.294052120441563 0 1 0 I I #
point $-1 33.816709777538108 -40.317704801246656 16.294052120441567 #
straight-curve $-1 11.824249419320509 -37.382077259420228 16.294052120441567 -1 0 0 I I #
point $-1 33.816709777538108 -37.382077259420228 16.294052120441567 #
point $-1 23.648498838641018 -36.342233883542768 12.426492596713286 #
straight-curve $-1 30.081762629553495 -37.382077259420228 16.294052120441567 -1 0 0 I I #
edge $-1 $851 -40.317704801246656 $845 -37.382077259420228 $843 $954 forward 7 unknown #
point $-1 70.33173619800408 -37.382077259420228 16.294052120441567 #
straight-curve $-1 70.33173619800408 -40.317704801246656 0 0 0 -1 I I #
point $-1 70.33173619800408 -40.317704801246656 16.294052120441567 #
point $-1 60.16352525910699 -36.342233883542768 12.426492596713286 #
straight-curve $-1 -39.213343063393815 40.317704801246656 78.724801960398139 0 0 -1 I I #
point $-1 -39.213343063393815 40.317704801246656 16.294052120441567 #
straight-curve $-1 -24.690777001145452 40.317704801246656 11.941805173286447 -1 0 0 I I #
point $-1 -39.213343063393815 40.317704801246656 11.941805173286454 #
point $-1 -49.381554002290905 36.342233883542775 12.426492596713301 #
straight-curve $-1 -2.6983166429278498 40.317704801246656 78.724801960398139 0 0 -1 I I #
point $-1 -2.6983166429278498 40.317704801246656 16.294052120441567 #
straight-curve $-1 -6.4332637909124699 40.317704801246656 11.941805173286447 -1 0 0 I I #
point $-1 -2.6983166429278498 40.317704801246656 11.941805173286454 #
point $-1 -12.86652758182494 36.342233883542775 12.426492596713301 #
straight-curve $-1 33.816709777538108 40.317704801246656 78.724801960398139 0 0 -1 I I #
point $-1 33.816709777538108 40.317704801246656 16.294052120441567 #
straight-curve $-1 11.824249419320509 40.317704801246656 11.941805173286447 -1 0 0 I I #
point $-1 33.816709777538108 40.317704801246656 11.941805173286454 #
point $-1 23.648498838641018 36.342233883542775 12.426492596713301 #
edge $-1 $899 -16.294052120441567 $893 -11.941805173286454 $890 $955 forward 7 unknown #
straight-curve $-1 30.081762629553495 40.317704801246656 11.941805173286447 -1 0 0 I I #
point $-1 70.33173619800408 40.317704801246656 11.941805173286454 #
straight-curve $-1 70.33173619800408 0 16.294052120441567 0 1 0 I I #
point $-1 70.33173619800408 40.317704801246656 16.294052120441567 #
point $-1 60.16352525910699 36.342233883542775 12.426492596713301 #
straight-curve $-1 70.33173619800408 0 16.294052120441567 0 1 0 I I #
straight-curve $-1 70.33173619800408 40.317704801246656 0 0 0 -1 I I #
End-of-ACIS-data 