500 0 5 0           
7 Unknown 11 ACIS 5.0 NT 24 Thu Mar 25 15:40:16 1999 
-1 9.9999999999999995e-007 1e-010 
body $-1 $5 $-1 $6 #
body $-1 $7 $-1 $8 #
body $-1 $9 $-1 $10 #
body $-1 $11 $-1 $12 #
body $-1 $13 $-1 $14 #
lump $-1 $-1 $15 $0 #
transform $-1 1 0 0 0 1 0 0 0 1 65.930967131565296 37.706227352479047 16.685813996816353 1 rotate no_reflect no_shear #
lump $-1 $-1 $16 $1 #
transform $-1 1 0 0 0 1 0 0 0 1 65.930967131565296 37.706227352479047 16.685813996816353 1 rotate no_reflect no_shear #
lump $-1 $-1 $17 $2 #
transform $-1 1 0 0 0 1 0 0 0 1 65.930967131565296 37.706227352479047 16.685813996816353 1 rotate no_reflect no_shear #
lump $-1 $-1 $18 $3 #
transform $-1 1 0 0 0 1 0 0 0 1 65.930967131565296 37.706227352479047 16.685813996816353 1 rotate no_reflect no_shear #
lump $-1 $-1 $19 $4 #
transform $-1 1 0 0 0 1 0 0 0 1 65.930967131565296 37.706227352479047 16.685813996816353 1 rotate no_reflect no_shear #
shell $-1 $-1 $-1 $20 $-1 $5 #
shell $-1 $-1 $-1 $21 $-1 $7 #
shell $-1 $-1 $-1 $22 $-1 $9 #
shell $-1 $-1 $-1 $23 $-1 $11 #
shell $-1 $-1 $-1 $24 $-1 $13 #
face $-1 $25 $26 $15 $-1 $27 forward single #
face $-1 $28 $29 $16 $-1 $30 forward single #
face $-1 $31 $32 $17 $-1 $33 forward single #
face $-1 $34 $35 $18 $-1 $36 forward single #
face $-1 $37 $38 $19 $-1 $39 reversed single #
face $-1 $40 $41 $15 $-1 $42 reversed single #
loop $-1 $-1 $43 $20 #
plane-surface $-1 0 0 16.685813996816353 0 0 1 1 0 0 forward_v I I I I #
face $-1 $44 $45 $16 $-1 $46 forward single #
loop $-1 $-1 $47 $21 #
plane-surface $-1 0 -30.347888789700757 9.9447797694822828 0 0 1 1 0 0 forward_v I I I I #
face $-1 $48 $49 $17 $-1 $50 forward single #
loop $-1 $-1 $51 $22 #
plane-surface $-1 0 28.910939099139028 12.59336693828752 0 0 1 1 0 0 forward_v I I I I #
face $-1 $52 $53 $18 $-1 $54 forward single #
loop $-1 $-1 $55 $23 #
plane-surface $-1 39.977838788639033 -22.989550226922471 187.60735307118159 0 1 0 0.6018150307709319 0 0.79863550430605224 forward_v I I I I #
face $-1 $56 $57 $19 $-1 $58 reversed single #
loop $-1 $59 $60 $24 #
cone-surface $-1 55.878812075937802 -19.92122251965764 8.5762947242667114 -0.6018150307709319 0 -0.79863550430605224 0.79863550430605224 0 -0.6018150307709319 1 I I 0 1 1 forward I I I I #
face $-1 $61 $62 $15 $-1 $63 reversed single #
loop $-1 $-1 $64 $25 #
plane-surface $-1 0 0 -16.685813996816353 0 0 1 1 0 0 forward_v I I I I #
coedge $-1 $65 $66 $67 $68 forward $26 $-1 #
face $-1 $69 $70 $16 $-1 $71 forward single #
loop $-1 $-1 $72 $28 #
plane-surface $-1 0 -22.989550226922468 13.315296883149319 0 -1 0 0 0 -1 forward_v I I I I #
coedge $-1 $73 $74 $75 $76 reversed $29 $-1 #
face $-1 $77 $78 $17 $-1 $79 forward single #
loop $-1 $-1 $80 $31 #
plane-surface $-1 0 20.115650845799006 14.639590467551937 0 1 0 0 0 1 forward_v I I I I #
coedge $-1 $81 $82 $83 $84 reversed $32 $-1 #
face $-1 $85 $86 $18 $-1 $87 forward single #
loop $-1 $-1 $88 $34 #
plane-surface $-1 39.977838788639033 -16.852894812392808 187.60735307118159 0 -1 0 -0.6018150307709319 0 -0.79863550430605224 forward_v I I I I #
coedge $-1 $89 $90 $91 $92 forward $35 $-1 #
face $-1 $93 $94 $19 $-1 $95 forward single #
loop $-1 $96 $97 $37 #
cone-surface $-1 54.645584403321152 -19.92122251965764 6.9397463599250848 -0.6018150307709319 0 -0.79863550430605224 0.39931775215302612 0 -0.30090751538546595 1 I I -0.70710678118654746 0.70710678118654746 0.5 forward I I I I #
loop $-1 $-1 $98 $24 #
coedge $-1 $60 $60 $99 $100 reversed $38 $-1 #
face $-1 $101 $102 $15 $-1 $103 reversed single #
loop $-1 $-1 $104 $40 #
plane-surface $-1 0 -37.706227352479047 0 0 1 0 0 0 1 forward_v I I I I #
coedge $-1 $105 $106 $107 $108 forward $41 $-1 #
coedge $-1 $109 $43 $110 $111 forward $26 $-1 #
coedge $-1 $43 $109 $112 $113 forward $26 $-1 #
coedge $-1 $114 $115 $43 $68 reversed $116 $-1 #
edge $-1 $117 -37.706227352479047 $118 37.706227352479047 $67 $119 forward 7 unknown #
face $-1 $120 $121 $16 $-1 $122 reversed single #
loop $-1 $-1 $123 $44 #
plane-surface $-1 0 0 16.685813996816353 0 0 1 1 0 0 forward_v I I I I #
coedge $-1 $124 $125 $126 $127 reversed $45 $-1 #
coedge $-1 $128 $47 $125 $129 reversed $29 $-1 #
coedge $-1 $47 $128 $130 $131 reversed $29 $-1 #
coedge $-1 $132 $126 $47 $76 forward $121 $-1 #
edge $-1 $133 7.8156058320720891 $134 22.532282957628667 $75 $135 forward 7 unknown #
face $-1 $136 $137 $17 $-1 $138 reversed single #
loop $-1 $-1 $139 $48 #
plane-surface $-1 0 0 16.685813996816353 0 0 1 1 0 0 forward_v I I I I #
coedge $-1 $140 $141 $142 $143 reversed $49 $-1 #
coedge $-1 $144 $51 $145 $146 reversed $32 $-1 #
coedge $-1 $51 $144 $141 $147 reversed $32 $-1 #
coedge $-1 $148 $149 $51 $84 forward $150 $-1 #
edge $-1 $151 -23.250757802909533 $152 -5.6601812962294922 $83 $153 forward 7 unknown #
face $-1 $154 $155 $18 $-1 $156 forward single #
loop $-1 $-1 $157 $52 #
plane-surface $-1 -39.378655237441507 -19.92122251965764 82.297730702174789 0.6018150307709319 0 0.79863550430605224 0.79863550430605224 0 -0.6018150307709319 forward_v I I I I #
coedge $-1 $158 $159 $160 $161 reversed $53 $-1 #
coedge $-1 $90 $55 $162 $163 reversed $35 $-1 #
coedge $-1 $55 $89 $164 $165 forward $35 $-1 #
coedge $-1 $166 $167 $55 $92 reversed $168 $-1 #
edge $-1 $169 56.63695172096304 $170 65.930967131565296 $91 $171 forward 7 unknown #
face $-1 $172 $173 $19 $-1 $174 forward single #
loop $-1 $-1 $175 $56 #
plane-surface $-1 39.977838788639033 -22.989550226922471 187.60735307118159 0 1 0 0.6018150307709319 0 0.79863550430605224 forward_v I I I I #
loop $-1 $-1 $176 $37 #
coedge $-1 $97 $97 $98 $177 forward $57 $-1 #
coedge $-1 $98 $98 $97 $177 reversed $59 $-1 #
coedge $-1 $99 $99 $60 $100 forward $178 $-1 #
edge $-1 $179 0 $179 6.2831853071796004 $99 $180 forward 7 unknown #
face $-1 $181 $182 $15 $-1 $183 reversed single #
loop $-1 $-1 $184 $61 #
plane-surface $-1 -65.930967131565296 0 0 1 0 0 0 0 -1 forward_v I I I I #
coedge $-1 $185 $112 $186 $187 forward $62 $-1 #
coedge $-1 $188 $64 $185 $189 forward $41 $-1 #
coedge $-1 $64 $188 $190 $191 forward $41 $-1 #
coedge $-1 $115 $114 $64 $108 reversed $116 $-1 #
edge $-1 $192 -37.706227352479047 $193 37.706227352479047 $107 $194 forward 7 unknown #
coedge $-1 $66 $65 $195 $196 forward $26 $-1 #
coedge $-1 $197 $198 $65 $111 reversed $182 $-1 #
edge $-1 $118 -65.930967131565296 $199 65.930967131565296 $110 $200 forward 7 unknown #
coedge $-1 $104 $201 $66 $113 reversed $62 $-1 #
edge $-1 $202 -65.930967131565296 $117 65.930967131565296 $112 $203 forward 7 unknown #
coedge $-1 $107 $67 $201 $204 forward $116 $-1 #
coedge $-1 $67 $107 $197 $205 reversed $116 $-1 #
loop $-1 $-1 $114 $181 #
vertex $-1 $68 $206 #
vertex $-1 $68 $207 #
straight-curve $-1 65.930967131565296 0 16.685813996816353 0 1 0 I I #
face $-1 $208 $209 $16 $-1 $210 reversed single #
loop $-1 $-1 $126 $69 #
plane-surface $-1 65.930967131565296 0 0 -1 0 0 0 0 1 forward_v I I I I #
coedge $-1 $211 $212 $124 $213 forward $70 $-1 #
coedge $-1 $214 $72 $123 $213 reversed $45 $-1 #
coedge $-1 $72 $214 $73 $129 forward $45 $-1 #
coedge $-1 $75 $215 $72 $127 forward $121 $-1 #
edge $-1 $216 -10.028165555241698 $133 -3.2871313279076233 $126 $217 forward 7 unknown #
coedge $-1 $74 $73 $218 $219 reversed $29 $-1 #
edge $-1 $220 -65.930967131565296 $133 65.930967131565296 $125 $221 forward 7 unknown #
coedge $-1 $222 $223 $74 $131 forward $224 $-1 #
edge $-1 $134 -65.930967131565296 $225 65.930967131565296 $130 $226 forward 7 unknown #
coedge $-1 $227 $75 $223 $228 forward $121 $-1 #
vertex $-1 $76 $229 #
vertex $-1 $228 $230 #
straight-curve $-1 65.930967131565296 -15.173944394850379 9.9447797694822828 0 -1 0 I I #
face $-1 $231 $232 $17 $-1 $233 forward single #
loop $-1 $-1 $142 $77 #
plane-surface $-1 -65.930967131565296 0 0 1 0 0 0 0 -1 forward_v I I I I #
coedge $-1 $234 $235 $140 $236 forward $78 $-1 #
coedge $-1 $237 $80 $139 $236 reversed $49 $-1 #
coedge $-1 $80 $237 $82 $147 forward $49 $-1 #
coedge $-1 $238 $239 $80 $143 forward $137 $-1 #
edge $-1 $240 -9.3660187630403851 $241 -5.2735717045115518 $142 $242 forward 7 unknown #
coedge $-1 $82 $81 $238 $243 reversed $32 $-1 #
coedge $-1 $244 $245 $81 $146 forward $246 $-1 #
edge $-1 $247 -65.930967131565296 $151 65.930967131565296 $145 $248 forward 7 unknown #
edge $-1 $152 -65.930967131565296 $241 65.930967131565296 $141 $249 forward 7 unknown #
coedge $-1 $250 $83 $237 $251 forward $150 $-1 #
coedge $-1 $83 $252 $244 $253 reversed $150 $-1 #
loop $-1 $-1 $148 $254 #
vertex $-1 $253 $255 #
vertex $-1 $84 $256 #
straight-curve $-1 65.930967131565296 14.455469549569514 12.59336693828752 0 -1 0 I I #
face $-1 $257 $258 $18 $-1 $259 forward single #
loop $-1 $-1 $260 $85 #
plane-surface $-1 0 0 16.685813996816353 0 0 1 1 0 0 forward_v I I I I #
coedge $-1 $261 $262 $260 $263 reversed $86 $-1 #
coedge $-1 $159 $88 $262 $264 forward $53 $-1 #
coedge $-1 $88 $158 $265 $266 reversed $53 $-1 #
coedge $-1 $267 $260 $88 $161 forward $155 $-1 #
edge $-1 $268 27.702377940453111 $269 45.94204773724578 $160 $270 forward 7 unknown #
coedge $-1 $271 $272 $89 $163 forward $273 $-1 #
edge $-1 $274 -90.862439859496547 $170 -83.858896766108515 $162 $275 forward 7 unknown #
coedge $-1 $276 $261 $90 $165 reversed $86 $-1 #
edge $-1 $274 -131.86193426313059 $169 -120.22456607640319 $90 $277 forward 7 unknown #
coedge $-1 $278 $91 $279 $280 reversed $168 $-1 #
coedge $-1 $91 $281 $271 $282 reversed $168 $-1 #
loop $-1 $-1 $167 $283 #
vertex $-1 $92 $284 #
vertex $-1 $282 $285 #
straight-curve $-1 0 -22.989550226922468 9.9447797694822828 1 0 0 I I #
face $-1 $286 $178 $19 $-1 $287 forward single #
loop $-1 $-1 $288 $93 #
plane-surface $-1 39.977838788639033 -16.852894812392808 187.60735307118159 0 -1 0 -0.6018150307709319 0 -0.79863550430605224 forward_v I I I I #
coedge $-1 $289 $290 $291 $292 forward $94 $-1 #
coedge $-1 $176 $176 $-1 $293 forward $96 $-1 #
edge $-1 $294 0 $294 6.2831853071796004 $97 $295 forward 7 unknown #
loop $-1 $296 $99 $172 #
vertex $-1 $100 $297 #
ellipse-curve $-1 56.811132233168969 -19.92122251965764 9.8135253364552923 -0.6018150307709319 0 -0.79863550430605224 0.79863550430605224 0 -0.6018150307709319 1 I I #
face $-1 $-1 $116 $15 $-1 $298 reversed single #
loop $-1 $-1 $197 $101 #
plane-surface $-1 0 37.706227352479047 0 0 -1 0 0 0 -1 forward_v I I I I #
coedge $-1 $299 $195 $198 $300 forward $102 $-1 #
coedge $-1 $201 $104 $105 $189 reversed $62 $-1 #
coedge $-1 $195 $299 $104 $187 reversed $102 $-1 #
edge $-1 $202 -16.685813996816353 $301 16.685813996816353 $186 $302 forward 7 unknown #
coedge $-1 $106 $105 $299 $303 forward $41 $-1 #
edge $-1 $193 -65.930967131565296 $301 65.930967131565296 $185 $304 forward 7 unknown #
coedge $-1 $198 $197 $106 $191 reversed $182 $-1 #
edge $-1 $305 -65.930967131565296 $192 65.930967131565296 $190 $306 forward 7 unknown #
vertex $-1 $108 $307 #
vertex $-1 $204 $308 #
straight-curve $-1 65.930967131565296 0 -16.685813996816353 0 -1 0 I I #
coedge $-1 $184 $186 $109 $196 reversed $102 $-1 #
edge $-1 $199 -37.706227352479047 $202 37.706227352479047 $195 $309 forward 7 unknown #
coedge $-1 $190 $110 $115 $205 forward $182 $-1 #
coedge $-1 $110 $190 $184 $300 reversed $182 $-1 #
vertex $-1 $111 $310 #
straight-curve $-1 0 37.706227352479047 16.685813996816353 -1 0 0 I I #
coedge $-1 $112 $185 $114 $204 reversed $62 $-1 #
vertex $-1 $196 $311 #
straight-curve $-1 0 -37.706227352479047 16.685813996816353 1 0 0 I I #
edge $-1 $117 -16.685813996816353 $193 16.685813996816353 $114 $312 forward 7 unknown #
edge $-1 $118 -16.685813996816353 $192 16.685813996816353 $115 $313 forward 7 unknown #
point $-1 65.930967131565296 -37.706227352479047 16.685813996816353 #
point $-1 65.930967131565296 37.706227352479047 16.685813996816353 #
face $-1 $314 $224 $16 $-1 $315 reversed single #
loop $-1 $-1 $316 $120 #
plane-surface $-1 0 0 -16.685813996816353 0 0 1 1 0 0 forward_v I I I I #
coedge $-1 $317 $123 $215 $318 forward $70 $-1 #
coedge $-1 $123 $317 $319 $320 forward $70 $-1 #
edge $-1 $321 -65.930967131565296 $216 65.930967131565296 $123 $322 forward 7 unknown #
coedge $-1 $125 $124 $323 $324 reversed $45 $-1 #
coedge $-1 $126 $325 $211 $318 reversed $121 $-1 #
vertex $-1 $318 $326 #
straight-curve $-1 65.930967131565296 -22.989550226922468 6.6576484415746595 0 0 -1 I I #
coedge $-1 $323 $327 $128 $219 forward $328 $-1 #
edge $-1 $225 -22.532282957628667 $220 -7.8156058320720891 $218 $329 forward 7 unknown #
vertex $-1 $219 $330 #
straight-curve $-1 0 -22.989550226922468 9.9447797694822828 1 0 0 I I #
coedge $-1 $331 $130 $327 $332 forward $224 $-1 #
coedge $-1 $130 $331 $132 $228 reversed $224 $-1 #
loop $-1 $-1 $130 $208 #
vertex $-1 $332 $333 #
straight-curve $-1 0 -37.706227352479047 9.9447797694822828 -1 0 0 I I #
coedge $-1 $325 $132 $316 $334 reversed $121 $-1 #
edge $-1 $134 -9.9447797694822828 $335 16.685813996816353 $132 $336 forward 7 unknown #
point $-1 65.930967131565296 -22.989550226922468 9.9447797694822828 #
point $-1 65.930967131565296 -37.706227352479047 9.9447797694822828 #
face $-1 $254 $337 $17 $-1 $338 forward single #
loop $-1 $-1 $339 $136 #
plane-surface $-1 0 -30.347888789700757 9.9447797694822828 0 0 1 1 0 0 forward_v I I I I #
coedge $-1 $340 $139 $239 $341 forward $78 $-1 #
coedge $-1 $139 $340 $250 $342 forward $78 $-1 #
edge $-1 $343 -65.930967131565296 $240 65.930967131565296 $139 $344 forward 7 unknown #
coedge $-1 $141 $140 $148 $251 reversed $49 $-1 #
coedge $-1 $345 $142 $144 $243 forward $137 $-1 #
coedge $-1 $142 $346 $234 $341 reversed $137 $-1 #
vertex $-1 $341 $347 #
vertex $-1 $243 $348 #
straight-curve $-1 -65.930967131565296 20.115650845799006 7.3197952337759684 0 0 -1 I I #
edge $-1 $241 5.6601812962294922 $247 23.250757802909533 $238 $349 forward 7 unknown #
coedge $-1 $350 $145 $149 $253 forward $246 $-1 #
coedge $-1 $145 $350 $345 $351 reversed $246 $-1 #
loop $-1 $-1 $145 $352 #
vertex $-1 $351 $353 #
straight-curve $-1 0 37.706227352479047 12.59336693828752 1 0 0 I I #
straight-curve $-1 0 20.115650845799006 12.59336693828752 -1 0 0 I I #
coedge $-1 $354 $148 $235 $342 reversed $150 $-1 #
edge $-1 $152 5.2735717045115518 $343 9.3660187630403851 $148 $355 forward 7 unknown #
coedge $-1 $149 $356 $357 $358 reversed $150 $-1 #
edge $-1 $151 -12.59336693828752 $359 16.685813996816353 $149 $360 forward 7 unknown #
face $-1 $361 $150 $17 $-1 $362 reversed single #
point $-1 65.930967131565296 37.706227352479047 12.59336693828752 #
point $-1 65.930967131565296 20.115650845799006 12.59336693828752 #
face $-1 $363 $364 $18 $-1 $365 forward single #
loop $-1 $-1 $366 $154 #
plane-surface $-1 0 28.910939099139028 12.59336693828752 0 0 1 1 0 0 forward_v I I I I #
coedge $-1 $160 $367 $157 $263 forward $155 $-1 #
coedge $-1 $164 $157 $368 $369 reversed $86 $-1 #
coedge $-1 $157 $276 $158 $264 reversed $86 $-1 #
edge $-1 $370 -13.028938967093652 $268 -6.8922835525639883 $260 $371 forward 7 unknown #
edge $-1 $268 109.02339315338941 $372 131.86193426313059 $158 $373 forward 7 unknown #
coedge $-1 $272 $374 $159 $266 forward $273 $-1 #
edge $-1 $269 77.117862538774446 $372 90.862439859496547 $265 $375 forward 7 unknown #
coedge $-1 $376 $160 $374 $377 forward $155 $-1 #
vertex $-1 $263 $378 #
vertex $-1 $377 $379 #
straight-curve $-1 19.988919394319517 -16.852894812392808 16.68581399681635 1 0 0 I I #
coedge $-1 $380 $162 $167 $282 forward $273 $-1 #
coedge $-1 $162 $265 $276 $381 forward $273 $-1 #
loop $-1 $-1 $162 $382 #
vertex $-1 $381 $383 #
straight-curve $-1 65.930967131565296 -22.989550226922471 93.803676535590796 0 0 1 I I #
coedge $-1 $262 $164 $272 $381 reversed $86 $-1 #
straight-curve $-1 -39.378655237441507 -22.989550226922471 82.297730702174789 -0.79863550430605224 0 0.6018150307709319 I I #
coedge $-1 $281 $166 $384 $385 reversed $168 $-1 #
coedge $-1 $368 $386 $166 $280 forward $387 $-1 #
edge $-1 $388 -65.930967131565296 $169 56.63695172096304 $279 $171 forward 7 unknown #
coedge $-1 $167 $278 $389 $390 reversed $168 $-1 #
edge $-1 $170 7.8156058320720891 $391 22.532282957628667 $271 $392 forward 7 unknown #
face $-1 $393 $168 $18 $-1 $394 forward single #
point $-1 56.63695172096304 -22.989550226922471 9.944779769482281 #
point $-1 65.930967131565296 -22.989550226922468 9.9447797694822828 #
face $-1 $395 $396 $19 $-1 $397 forward single #
plane-surface $-1 -39.378655237441507 -19.92122251965764 82.297730702174789 0.6018150307709319 0 0.79863550430605224 0.79863550430605224 0 -0.6018150307709319 forward_v I I I I #
coedge $-1 $398 $399 $400 $401 reversed $173 $-1 #
coedge $-1 $290 $175 $402 $403 reversed $94 $-1 #
coedge $-1 $175 $289 $404 $405 forward $94 $-1 #
coedge $-1 $406 $407 $175 $292 reversed $408 $-1 #
edge $-1 $409 56.63695172096304 $410 65.930967131565296 $291 $411 forward 7 unknown #
edge $-1 $412 1 $412 0 $176 $-1 forward 7 unknown #
vertex $-1 $177 $413 #
ellipse-curve $-1 54.94649191870662 -19.92122251965764 7.3390641120781108 0.6018150307709319 0 0.79863550430605224 0.79863550430605224 0 -0.6018150307709319 1 I I #
loop $-1 $-1 $414 $172 #
point $-1 57.609767737475032 -19.92122251965764 9.2117103056843792 #
plane-surface $-1 65.930967131565296 0 0 -1 0 0 0 0 1 forward_v I I I I #
coedge $-1 $186 $184 $188 $303 reversed $102 $-1 #
edge $-1 $199 -16.685813996816353 $305 16.685813996816353 $198 $415 forward 7 unknown #
vertex $-1 $303 $416 #
straight-curve $-1 -65.930967131565296 -37.706227352479047 0 0 0 -1 I I #
edge $-1 $301 -37.706227352479047 $305 37.706227352479047 $299 $417 forward 7 unknown #
straight-curve $-1 0 -37.706227352479047 -16.685813996816353 -1 0 0 I I #
vertex $-1 $191 $418 #
straight-curve $-1 0 37.706227352479047 -16.685813996816353 1 0 0 I I #
point $-1 65.930967131565296 37.706227352479047 -16.685813996816353 #
point $-1 65.930967131565296 -37.706227352479047 -16.685813996816353 #
straight-curve $-1 -65.930967131565296 0 16.685813996816353 0 -1 0 I I #
point $-1 -65.930967131565296 37.706227352479047 16.685813996816353 #
point $-1 -65.930967131565296 -37.706227352479047 16.685813996816353 #
straight-curve $-1 65.930967131565296 -37.706227352479047 0 0 0 -1 I I #
straight-curve $-1 65.930967131565296 37.706227352479047 0 0 0 -1 I I #
face $-1 $419 $328 $16 $-1 $420 reversed single #
plane-surface $-1 0 -37.706227352479047 0 0 1 0 0 0 1 forward_v I I I I #
coedge $-1 $421 $422 $227 $334 forward $209 $-1 #
coedge $-1 $212 $211 $423 $424 forward $70 $-1 #
edge $-1 $216 -22.989550226922468 $425 37.706227352479047 $215 $426 forward 7 unknown #
coedge $-1 $427 $323 $212 $320 reversed $328 $-1 #
edge $-1 $428 -37.706227352479047 $321 22.989550226922468 $319 $429 forward 7 unknown #
vertex $-1 $324 $430 #
straight-curve $-1 0 -22.989550226922468 16.685813996816353 1 0 0 I I #
coedge $-1 $319 $218 $214 $324 forward $328 $-1 #
edge $-1 $220 3.2871313279076233 $321 10.028165555241698 $323 $431 forward 7 unknown #
coedge $-1 $215 $227 $432 $433 reversed $121 $-1 #
point $-1 65.930967131565296 -22.989550226922468 16.685813996816357 #
coedge $-1 $218 $434 $222 $332 reversed $328 $-1 #
loop $-1 $-1 $323 $314 #
straight-curve $-1 -65.930967131565296 -15.173944394850379 9.9447797694822828 0 1 0 I I #
point $-1 -65.930967131565296 -22.989550226922468 9.9447797694822828 #
coedge $-1 $223 $222 $421 $435 reversed $224 $-1 #
edge $-1 $225 -9.9447797694822828 $436 16.685813996816353 $327 $437 forward 7 unknown #
point $-1 -65.930967131565296 -37.706227352479047 9.9447797694822828 #
edge $-1 $438 -37.706227352479047 $335 37.706227352479047 $227 $439 forward 7 unknown #
vertex $-1 $228 $440 #
straight-curve $-1 65.930967131565296 -37.706227352479047 0 0 0 -1 I I #
loop $-1 $-1 $441 $231 #
plane-surface $-1 0 -22.989550226922468 13.315296883149319 0 -1 0 0 0 -1 forward_v I I I I #
coedge $-1 $442 $443 $444 $445 reversed $232 $-1 #
coedge $-1 $235 $234 $446 $447 forward $78 $-1 #
edge $-1 $240 -20.115650845799006 $448 22.989550226922468 $239 $449 forward 7 unknown #
edge $-1 $450 -22.989550226922468 $343 20.115650845799006 $250 $451 forward 7 unknown #
vertex $-1 $236 $452 #
straight-curve $-1 0 20.115650845799006 16.685813996816353 -1 0 0 I I #
coedge $-1 $453 $238 $245 $351 forward $137 $-1 #
coedge $-1 $239 $454 $455 $456 forward $137 $-1 #
point $-1 -65.930967131565296 20.115650845799006 16.685813996816353 #
point $-1 -65.930967131565296 20.115650845799006 12.59336693828752 #
straight-curve $-1 -65.930967131565296 14.455469549569514 12.59336693828752 0 1 0 I I #
coedge $-1 $245 $244 $457 $458 reversed $246 $-1 #
edge $-1 $247 -12.59336693828752 $459 16.685813996816353 $245 $460 forward 7 unknown #
face $-1 $-1 $246 $17 $-1 $461 reversed single #
point $-1 -65.930967131565296 37.706227352479047 12.59336693828752 #
coedge $-1 $444 $250 $441 $462 forward $150 $-1 #
straight-curve $-1 65.930967131565296 20.115650845799006 7.3197952337759684 0 0 1 I I #
coedge $-1 $252 $444 $463 $464 forward $150 $-1 #
coedge $-1 $465 $457 $252 $358 forward $466 $-1 #
edge $-1 $359 -37.706227352479047 $467 37.706227352479047 $252 $468 forward 7 unknown #
vertex $-1 $358 $469 #
straight-curve $-1 65.930967131565296 37.706227352479047 0 0 0 -1 I I #
face $-1 $470 $466 $17 $-1 $471 reversed single #
plane-surface $-1 65.930967131565296 0 0 -1 0 0 0 0 1 forward_v I I I I #
face $-1 $283 $472 $18 $-1 $473 reversed single #
loop $-1 $-1 $474 $257 #
plane-surface $-1 0 20.115650845799006 14.639590467551937 0 1 0 0 0 1 forward_v I I I I #
coedge $-1 $475 $476 $477 $478 reversed $258 $-1 #
coedge $-1 $260 $479 $480 $481 forward $155 $-1 #
coedge $-1 $480 $279 $261 $369 forward $387 $-1 #
edge $-1 $169 -83.742637218453751 $370 -72.541464295439965 $368 $482 forward 7 unknown #
vertex $-1 $263 $483 #
straight-curve $-1 47.691297334772621 -9.9606112598288199 16.685813996816357 0 1 0 I I #
vertex $-1 $381 $484 #
straight-curve $-1 -39.378655237441507 -16.852894812392808 82.297730702174789 0.79863550430605224 0 -0.6018150307709319 I I #
coedge $-1 $265 $485 $267 $377 reversed $273 $-1 #
straight-curve $-1 65.930967131565296 -16.852894812392808 93.803676535590796 0 0 -1 I I #
coedge $-1 $479 $267 $486 $487 forward $155 $-1 #
edge $-1 $269 -16.852894812392808 $488 20.115650845799006 $374 $489 forward 7 unknown #
point $-1 47.691297334772628 -16.852894812392808 16.68581399681635 #
point $-1 65.930967131565296 -16.852894812392808 16.685813996816353 #
coedge $-1 $490 $271 $491 $492 forward $273 $-1 #
edge $-1 $372 6.8922835525639883 $274 13.028938967093652 $272 $493 forward 7 unknown #
face $-1 $494 $273 $18 $-1 $495 reversed single #
point $-1 65.930967131565296 -22.989550226922471 2.941236676094249 #
coedge $-1 $496 $497 $278 $385 forward $472 $-1 #
edge $-1 $498 -22.532282957628667 $388 -7.8156058320720891 $384 $499 forward 7 unknown #
coedge $-1 $279 $480 $496 $500 reversed $387 $-1 #
loop $-1 $-1 $368 $393 #
vertex $-1 $385 $501 #
coedge $-1 $502 $491 $281 $390 forward $503 $-1 #
edge $-1 $391 -65.930967131565296 $498 65.930967131565296 $389 $504 forward 7 unknown #
vertex $-1 $492 $505 #
straight-curve $-1 65.930967131565296 -15.173944394850379 9.9447797694822828 0 -1 0 I I #
face $-1 $382 $387 $18 $-1 $506 forward single #
plane-surface $-1 0 -30.347888789700757 9.9447797694822828 0 0 1 1 0 0 forward_v I I I I #
face $-1 $507 $508 $19 $-1 $509 forward single #
loop $-1 $-1 $510 $286 #
plane-surface $-1 0 0 16.685813996816353 0 0 1 1 0 0 forward_v I I I I #
coedge $-1 $399 $288 $511 $512 forward $173 $-1 #
coedge $-1 $288 $398 $513 $514 reversed $173 $-1 #
coedge $-1 $515 $510 $288 $401 forward $396 $-1 #
edge $-1 $516 27.702377940453111 $517 45.94204773724578 $400 $518 forward 7 unknown #
coedge $-1 $519 $520 $289 $403 forward $521 $-1 #
edge $-1 $522 -90.862439859496547 $410 -83.858896766108515 $402 $523 forward 7 unknown #
coedge $-1 $524 $525 $290 $405 reversed $296 $-1 #
edge $-1 $522 -131.86193426313059 $409 -120.22456607640319 $290 $526 forward 7 unknown #
coedge $-1 $527 $291 $528 $529 reversed $408 $-1 #
coedge $-1 $291 $530 $519 $531 reversed $408 $-1 #
loop $-1 $-1 $407 $532 #
vertex $-1 $292 $533 #
vertex $-1 $531 $534 #
straight-curve $-1 0 -22.989550226922468 9.9447797694822828 1 0 0 I I #
vertex $-1 $293 $535 #
point $-1 55.745127423012669 -19.92122251965764 6.737249081307179 #
coedge $-1 $525 $511 $510 $536 reversed $296 $-1 #
straight-curve $-1 -65.930967131565296 37.706227352479047 0 0 0 -1 I I #
point $-1 -65.930967131565296 -37.706227352479047 -16.685813996816353 #
straight-curve $-1 -65.930967131565296 0 -16.685813996816353 0 1 0 I I #
point $-1 -65.930967131565296 37.706227352479047 -16.685813996816353 #
face $-1 $-1 $537 $16 $-1 $538 reversed single #
plane-surface $-1 -65.930967131565296 0 0 1 0 0 0 0 -1 forward_v I I I I #
coedge $-1 $539 $316 $331 $435 forward $209 $-1 #
coedge $-1 $316 $539 $540 $541 forward $209 $-1 #
coedge $-1 $432 $542 $317 $424 reversed $537 $-1 #
edge $-1 $425 -65.930967131565296 $428 65.930967131565296 $423 $543 forward 7 unknown #
vertex $-1 $318 $544 #
straight-curve $-1 65.930967131565296 0 16.685813996816353 0 1 0 I I #
coedge $-1 $434 $319 $542 $545 forward $328 $-1 #
vertex $-1 $424 $546 #
straight-curve $-1 -65.930967131565296 0 16.685813996816353 0 -1 0 I I #
point $-1 -65.930967131565296 -22.989550226922468 16.685813996816357 #
straight-curve $-1 -65.930967131565296 -22.989550226922468 6.6576484415746595 0 0 1 I I #
coedge $-1 $540 $423 $325 $433 forward $537 $-1 #
edge $-1 $425 -16.685813996816353 $438 16.685813996816353 $325 $547 forward 7 unknown #
coedge $-1 $327 $427 $539 $548 reversed $328 $-1 #
edge $-1 $335 -65.930967131565296 $436 65.930967131565296 $331 $549 forward 7 unknown #
vertex $-1 $548 $550 #
straight-curve $-1 -65.930967131565296 -37.706227352479047 0 0 0 -1 I I #
vertex $-1 $334 $551 #
straight-curve $-1 65.930967131565296 0 -16.685813996816353 0 -1 0 I I #
point $-1 65.930967131565296 -37.706227352479047 -16.685813996816353 #
coedge $-1 $446 $552 $354 $462 reversed $337 $-1 #
coedge $-1 $553 $339 $552 $554 reversed $232 $-1 #
coedge $-1 $339 $553 $555 $556 reversed $232 $-1 #
coedge $-1 $356 $354 $339 $445 forward $150 $-1 #
edge $-1 $557 7.8156058320720891 $558 22.532282957628667 $444 $559 forward 7 unknown #
coedge $-1 $455 $441 $340 $447 reversed $337 $-1 #
edge $-1 $448 -65.930967131565296 $450 65.930967131565296 $340 $560 forward 7 unknown #
vertex $-1 $456 $561 #
straight-curve $-1 -65.930967131565296 0 16.685813996816353 0 -1 0 I I #
vertex $-1 $342 $562 #
straight-curve $-1 65.930967131565296 0 16.685813996816353 0 1 0 I I #
point $-1 65.930967131565296 20.115650845799006 16.685813996816353 #
coedge $-1 $563 $345 $564 $565 reversed $137 $-1 #
coedge $-1 $346 $563 $553 $566 forward $137 $-1 #
coedge $-1 $552 $446 $346 $456 reversed $337 $-1 #
edge $-1 $567 3.2871313279076233 $448 10.028165555241698 $346 $568 forward 7 unknown #
coedge $-1 $357 $564 $350 $458 forward $466 $-1 #
edge $-1 $459 -65.930967131565296 $359 65.930967131565296 $350 $569 forward 7 unknown #
vertex $-1 $458 $570 #
straight-curve $-1 -65.930967131565296 37.706227352479047 0 0 0 -1 I I #
plane-surface $-1 0 37.706227352479047 0 0 -1 0 0 0 -1 forward_v I I I I #
edge $-1 $450 -10.028165555241698 $557 -3.2871313279076233 $354 $571 forward 7 unknown #
coedge $-1 $555 $572 $356 $464 reversed $573 $-1 #
edge $-1 $558 -9.9447797694822828 $467 16.685813996816353 $356 $574 forward 7 unknown #
coedge $-1 $564 $357 $572 $575 forward $466 $-1 #
loop $-1 $-1 $357 $361 #
vertex $-1 $464 $576 #
straight-curve $-1 65.930967131565296 0 -16.685813996816353 0 -1 0 I I #
point $-1 65.930967131565296 37.706227352479047 -16.685813996816353 #
face $-1 $352 $573 $17 $-1 $577 reversed single #
plane-surface $-1 0 0 -16.685813996816353 0 0 1 1 0 0 forward_v I I I I #
loop $-1 $-1 $578 $363 #
plane-surface $-1 -65.930967131565296 0 0 1 0 0 0 0 -1 forward_v I I I I #
coedge $-1 $486 $579 $578 $580 reversed $364 $-1 #
coedge $-1 $581 $366 $582 $583 reversed $258 $-1 #
coedge $-1 $366 $581 $579 $584 reversed $258 $-1 #
coedge $-1 $485 $585 $366 $478 forward $273 $-1 #
edge $-1 $586 -23.250757802909533 $587 -5.6601812962294922 $477 $588 forward 7 unknown #
coedge $-1 $367 $376 $589 $590 forward $155 $-1 #
coedge $-1 $386 $368 $367 $481 reversed $387 $-1 #
edge $-1 $591 -65.930967131565296 $370 47.691297334772628 $367 $592 forward 7 unknown #
straight-curve $-1 -10.242891585915547 -22.989550226922468 60.342357563945015 -0.79863550430605224 0 0.6018150307709319 I I #
point $-1 47.691297334772628 -22.989550226922471 16.68581399681635 #
point $-1 65.930967131565296 -16.852894812392808 2.941236676094249 #
coedge $-1 $374 $477 $593 $594 forward $273 $-1 #
coedge $-1 $593 $474 $376 $487 reversed $364 $-1 #
edge $-1 $488 -65.930967131565296 $595 65.930967131565296 $376 $596 forward 7 unknown #
vertex $-1 $487 $597 #
straight-curve $-1 65.930967131565296 0 16.685813996816353 0 1 0 I I #
coedge $-1 $585 $380 $598 $599 reversed $273 $-1 #
coedge $-1 $389 $600 $380 $492 reversed $503 $-1 #
edge $-1 $391 -9.9447797694822828 $601 16.685813996816353 $380 $602 forward 7 unknown #
straight-curve $-1 65.930967131565282 -9.9606112598288199 2.9412366760942632 0 -1 0 I I #
face $-1 $603 $604 $18 $-1 $605 reversed single #
plane-surface $-1 65.930967131565296 0 0 -1 0 0 0 0 1 forward_v I I I I #
coedge $-1 $589 $384 $386 $500 forward $472 $-1 #
coedge $-1 $384 $606 $502 $607 reversed $472 $-1 #
vertex $-1 $607 $608 #
straight-curve $-1 -65.930967131565296 -15.173944394850379 9.9447797694822828 0 1 0 I I #
edge $-1 $388 3.2871313279076233 $591 10.028165555241698 $496 $609 forward 7 unknown #
point $-1 -65.930967131565296 -22.989550226922468 9.9447797694822828 #
coedge $-1 $600 $389 $497 $607 forward $503 $-1 #
loop $-1 $-1 $389 $603 #
straight-curve $-1 0 -37.706227352479047 9.9447797694822828 -1 0 0 I I #
point $-1 65.930967131565296 -37.706227352479047 9.9447797694822828 #
plane-surface $-1 0 -22.989550226922468 13.315296883149319 0 -1 0 0 0 -1 forward_v I I I I #
face $-1 $610 $611 $19 $-1 $612 forward single #
loop $-1 $-1 $613 $395 #
plane-surface $-1 0 28.910939099139028 12.59336693828752 0 0 1 1 0 0 forward_v I I I I #
coedge $-1 $400 $614 $414 $536 forward $396 $-1 #
coedge $-1 $414 $524 $398 $512 reversed $296 $-1 #
edge $-1 $516 109.02339315338941 $615 131.86193426313059 $398 $616 forward 7 unknown #
coedge $-1 $520 $617 $399 $514 forward $521 $-1 #
edge $-1 $517 77.117862538774446 $615 90.862439859496547 $513 $618 forward 7 unknown #
coedge $-1 $619 $400 $617 $620 forward $396 $-1 #
vertex $-1 $536 $621 #
vertex $-1 $620 $622 #
straight-curve $-1 19.988919394319517 -16.852894812392808 16.68581399681635 1 0 0 I I #
coedge $-1 $623 $402 $407 $531 forward $521 $-1 #
coedge $-1 $402 $513 $524 $624 forward $521 $-1 #
loop $-1 $-1 $402 $625 #
vertex $-1 $624 $626 #
straight-curve $-1 65.930967131565296 -22.989550226922471 93.803676535590796 0 0 1 I I #
coedge $-1 $511 $404 $520 $624 reversed $296 $-1 #
coedge $-1 $404 $414 $627 $628 reversed $296 $-1 #
straight-curve $-1 -39.378655237441507 -22.989550226922471 82.297730702174789 -0.79863550430605224 0 0.6018150307709319 I I #
coedge $-1 $530 $406 $629 $630 reversed $408 $-1 #
coedge $-1 $627 $631 $406 $529 forward $632 $-1 #
edge $-1 $633 -65.930967131565296 $409 56.63695172096304 $528 $411 forward 7 unknown #
coedge $-1 $407 $527 $634 $635 reversed $408 $-1 #
edge $-1 $410 7.8156058320720891 $636 22.532282957628667 $519 $637 forward 7 unknown #
face $-1 $638 $408 $19 $-1 $639 forward single #
point $-1 56.63695172096304 -22.989550226922471 9.944779769482281 #
point $-1 65.930967131565296 -22.989550226922468 9.9447797694822828 #
point $-1 54.344676887935684 -19.92122251965764 6.5404286077720588 #
edge $-1 $640 -13.028938967093652 $516 -6.8922835525639883 $510 $641 forward 7 unknown #
loop $-1 $-1 $432 $419 #
plane-surface $-1 0 37.706227352479047 0 0 -1 0 0 0 -1 forward_v I I I I #
coedge $-1 $422 $421 $434 $548 forward $209 $-1 #
coedge $-1 $542 $432 $422 $541 reversed $537 $-1 #
edge $-1 $642 -65.930967131565296 $438 65.930967131565296 $540 $643 forward 7 unknown #
coedge $-1 $423 $540 $427 $545 reversed $537 $-1 #
straight-curve $-1 0 37.706227352479047 16.685813996816353 -1 0 0 I I #
point $-1 65.930967131565296 37.706227352479047 16.685813996816353 #
edge $-1 $428 -16.685813996816353 $642 16.685813996816353 $542 $644 forward 7 unknown #
point $-1 -65.930967131565296 37.706227352479047 16.685813996816353 #
straight-curve $-1 65.930967131565296 37.706227352479047 0 0 0 -1 I I #
edge $-1 $436 -37.706227352479047 $642 37.706227352479047 $434 $645 forward 7 unknown #
straight-curve $-1 0 -37.706227352479047 -16.685813996816353 -1 0 0 I I #
point $-1 -65.930967131565296 -37.706227352479047 -16.685813996816353 #
point $-1 65.930967131565296 37.706227352479047 -16.685813996816353 #
coedge $-1 $441 $455 $442 $554 forward $337 $-1 #
coedge $-1 $443 $442 $454 $566 reversed $232 $-1 #
edge $-1 $567 -65.930967131565296 $557 65.930967131565296 $552 $646 forward 7 unknown #
coedge $-1 $647 $463 $443 $556 forward $573 $-1 #
edge $-1 $558 -65.930967131565296 $648 65.930967131565296 $555 $649 forward 7 unknown #
vertex $-1 $445 $650 #
vertex $-1 $464 $651 #
straight-curve $-1 65.930967131565296 -15.173944394850379 9.9447797694822828 0 -1 0 I I #
straight-curve $-1 0 -22.989550226922468 16.685813996816353 1 0 0 I I #
point $-1 -65.930967131565296 -22.989550226922468 16.685813996816357 #
point $-1 65.930967131565296 -22.989550226922468 16.685813996816357 #
coedge $-1 $454 $453 $647 $652 reversed $137 $-1 #
coedge $-1 $457 $465 $453 $565 forward $466 $-1 #
edge $-1 $653 -37.706227352479047 $459 37.706227352479047 $453 $654 forward 7 unknown #
edge $-1 $648 -22.532282957628667 $567 -7.8156058320720891 $454 $655 forward 7 unknown #
vertex $-1 $566 $656 #
straight-curve $-1 -65.930967131565296 -22.989550226922468 6.6576484415746595 0 0 1 I I #
straight-curve $-1 0 37.706227352479047 -16.685813996816353 1 0 0 I I #
point $-1 -65.930967131565296 37.706227352479047 -16.685813996816353 #
straight-curve $-1 65.930967131565296 -22.989550226922468 6.6576484415746595 0 0 -1 I I #
coedge $-1 $463 $647 $465 $575 reversed $573 $-1 #
loop $-1 $-1 $555 $470 #
straight-curve $-1 65.930967131565296 -37.706227352479047 0 0 0 -1 I I #
edge $-1 $467 -65.930967131565296 $653 65.930967131565296 $572 $657 forward 7 unknown #
point $-1 65.930967131565296 -37.706227352479047 -16.685813996816353 #
plane-surface $-1 0 -37.706227352479047 0 0 1 0 0 0 1 forward_v I I I I #
coedge $-1 $658 $589 $474 $580 forward $472 $-1 #
coedge $-1 $474 $593 $476 $584 forward $364 $-1 #
edge $-1 $595 -9.3660187630403851 $659 -5.2735717045115518 $578 $660 forward 7 unknown #
coedge $-1 $476 $475 $658 $661 reversed $258 $-1 #
coedge $-1 $662 $663 $475 $583 forward $664 $-1 #
edge $-1 $665 -65.930967131565296 $586 65.930967131565296 $582 $666 forward 7 unknown #
edge $-1 $587 -65.930967131565296 $659 65.930967131565296 $579 $667 forward 7 unknown #
coedge $-1 $477 $490 $662 $668 reversed $273 $-1 #
vertex $-1 $668 $669 #
vertex $-1 $478 $670 #
straight-curve $-1 65.930967131565296 14.455469549569514 12.59336693828752 0 -1 0 I I #
coedge $-1 $578 $496 $479 $590 reversed $472 $-1 #
edge $-1 $595 -20.115650845799006 $591 22.989550226922468 $589 $671 forward 7 unknown #
vertex $-1 $500 $672 #
straight-curve $-1 0 -22.989550226922468 16.685813996816353 1 0 0 I I #
coedge $-1 $579 $486 $485 $594 reversed $364 $-1 #
edge $-1 $587 5.2735717045115518 $488 9.3660187630403851 $485 $673 forward 7 unknown #
vertex $-1 $590 $674 #
straight-curve $-1 0 20.115650845799006 16.685813996816353 -1 0 0 I I #
point $-1 65.930967131565296 20.115650845799006 16.685813996816353 #
coedge $-1 $675 $676 $490 $599 forward $604 $-1 #
edge $-1 $677 -37.706227352479047 $601 37.706227352479047 $490 $678 forward 7 unknown #
coedge $-1 $491 $502 $675 $679 reversed $503 $-1 #
vertex $-1 $492 $680 #
straight-curve $-1 65.930967131565296 -37.706227352479047 0 0 0 -1 I I #
face $-1 $681 $503 $18 $-1 $682 reversed single #
loop $-1 $-1 $598 $494 #
plane-surface $-1 0 0 -16.685813996816353 0 0 1 1 0 0 forward_v I I I I #
coedge $-1 $497 $683 $684 $685 reversed $472 $-1 #
edge $-1 $498 -9.9447797694822828 $686 16.685813996816353 $497 $687 forward 7 unknown #
point $-1 -65.930967131565296 -37.706227352479047 9.9447797694822828 #
straight-curve $-1 -65.930967131565296 -22.989550226922468 6.6576484415746595 0 0 1 I I #
face $-1 $532 $688 $19 $-1 $689 reversed single #
loop $-1 $-1 $690 $507 #
plane-surface $-1 0 20.115650845799006 14.639590467551937 0 1 0 0 0 1 forward_v I I I I #
coedge $-1 $691 $692 $693 $694 reversed $508 $-1 #
coedge $-1 $510 $695 $696 $697 forward $396 $-1 #
vertex $-1 $624 $698 #
straight-curve $-1 -39.378655237441507 -16.852894812392808 82.297730702174789 0.79863550430605224 0 -0.6018150307709319 I I #
coedge $-1 $513 $699 $515 $620 reversed $521 $-1 #
straight-curve $-1 65.930967131565296 -16.852894812392808 93.803676535590796 0 0 -1 I I #
coedge $-1 $695 $515 $700 $701 forward $396 $-1 #
edge $-1 $517 -16.852894812392808 $702 20.115650845799006 $617 $703 forward 7 unknown #
point $-1 47.691297334772628 -16.852894812392808 16.68581399681635 #
point $-1 65.930967131565296 -16.852894812392808 16.685813996816353 #
coedge $-1 $704 $519 $705 $706 forward $521 $-1 #
edge $-1 $615 6.8922835525639883 $522 13.028938967093652 $520 $707 forward 7 unknown #
face $-1 $708 $521 $19 $-1 $709 reversed single #
point $-1 65.930967131565296 -22.989550226922471 2.941236676094249 #
coedge $-1 $696 $528 $525 $628 forward $632 $-1 #
edge $-1 $409 -83.742637218453751 $640 -72.541464295439965 $627 $710 forward 7 unknown #
coedge $-1 $711 $712 $527 $630 forward $688 $-1 #
edge $-1 $713 -22.532282957628667 $633 -7.8156058320720891 $629 $714 forward 7 unknown #
coedge $-1 $528 $696 $711 $715 reversed $632 $-1 #
loop $-1 $-1 $627 $638 #
vertex $-1 $630 $716 #
coedge $-1 $717 $705 $530 $635 forward $718 $-1 #
edge $-1 $636 -65.930967131565296 $713 65.930967131565296 $634 $719 forward 7 unknown #
vertex $-1 $706 $720 #
straight-curve $-1 65.930967131565296 -15.173944394850379 9.9447797694822828 0 -1 0 I I #
face $-1 $625 $632 $19 $-1 $721 forward single #
plane-surface $-1 0 -30.347888789700757 9.9447797694822828 0 0 1 1 0 0 forward_v I I I I #
vertex $-1 $536 $722 #
straight-curve $-1 47.691297334772621 -9.9606112598288199 16.685813996816357 0 1 0 I I #
vertex $-1 $541 $723 #
straight-curve $-1 0 37.706227352479047 -16.685813996816353 1 0 0 I I #
straight-curve $-1 -65.930967131565296 37.706227352479047 0 0 0 -1 I I #
straight-curve $-1 -65.930967131565296 0 -16.685813996816353 0 1 0 I I #
straight-curve $-1 0 -22.989550226922468 9.9447797694822828 1 0 0 I I #
coedge $-1 $572 $555 $563 $652 forward $573 $-1 #
vertex $-1 $652 $724 #
straight-curve $-1 0 -37.706227352479047 9.9447797694822828 -1 0 0 I I #
point $-1 65.930967131565296 -22.989550226922468 9.9447797694822828 #
point $-1 65.930967131565296 -37.706227352479047 9.9447797694822828 #
edge $-1 $648 -9.9447797694822828 $653 16.685813996816353 $563 $725 forward 7 unknown #
vertex $-1 $565 $726 #
straight-curve $-1 -65.930967131565296 0 -16.685813996816353 0 1 0 I I #
straight-curve $-1 -65.930967131565296 -15.173944394850379 9.9447797694822828 0 1 0 I I #
point $-1 -65.930967131565296 -22.989550226922468 9.9447797694822828 #
straight-curve $-1 0 -37.706227352479047 -16.685813996816353 -1 0 0 I I #
coedge $-1 $683 $578 $581 $661 forward $472 $-1 #
vertex $-1 $661 $727 #
straight-curve $-1 -65.930967131565296 20.115650845799006 7.3197952337759684 0 0 -1 I I #
edge $-1 $659 5.6601812962294922 $665 23.250757802909533 $658 $728 forward 7 unknown #
coedge $-1 $729 $582 $585 $668 forward $664 $-1 #
coedge $-1 $582 $729 $683 $730 reversed $664 $-1 #
loop $-1 $-1 $582 $681 #
vertex $-1 $730 $731 #
straight-curve $-1 0 37.706227352479047 12.59336693828752 1 0 0 I I #
straight-curve $-1 0 20.115650845799006 12.59336693828752 -1 0 0 I I #
edge $-1 $586 -12.59336693828752 $677 16.685813996816353 $585 $732 forward 7 unknown #
point $-1 65.930967131565296 37.706227352479047 12.59336693828752 #
point $-1 65.930967131565296 20.115650845799006 12.59336693828752 #
straight-curve $-1 -65.930967131565296 0 16.685813996816353 0 -1 0 I I #
point $-1 -65.930967131565296 -22.989550226922468 16.685813996816357 #
straight-curve $-1 65.930967131565296 20.115650845799006 7.3197952337759684 0 0 1 I I #
point $-1 -65.930967131565296 20.115650845799006 16.685813996816353 #
coedge $-1 $684 $598 $600 $679 forward $604 $-1 #
coedge $-1 $598 $684 $729 $733 forward $604 $-1 #
vertex $-1 $599 $734 #
straight-curve $-1 65.930967131565296 0 -16.685813996816353 0 -1 0 I I #
edge $-1 $601 -65.930967131565296 $686 65.930967131565296 $600 $735 forward 7 unknown #
point $-1 65.930967131565296 -37.706227352479047 -16.685813996816353 #
face $-1 $-1 $664 $18 $-1 $736 reversed single #
plane-surface $-1 0 -37.706227352479047 0 0 1 0 0 0 1 forward_v I I I I #
coedge $-1 $606 $658 $663 $730 forward $472 $-1 #
coedge $-1 $676 $675 $606 $685 forward $604 $-1 #
edge $-1 $686 -37.706227352479047 $737 37.706227352479047 $606 $738 forward 7 unknown #
vertex $-1 $685 $739 #
straight-curve $-1 -65.930967131565296 -37.706227352479047 0 0 0 -1 I I #
loop $-1 $-1 $740 $610 #
plane-surface $-1 -65.930967131565296 0 0 1 0 0 0 0 -1 forward_v I I I I #
coedge $-1 $700 $741 $740 $742 reversed $611 $-1 #
coedge $-1 $743 $613 $744 $745 reversed $508 $-1 #
coedge $-1 $613 $743 $741 $746 reversed $508 $-1 #
coedge $-1 $699 $747 $613 $694 forward $521 $-1 #
edge $-1 $748 -23.250757802909533 $749 -5.6601812962294922 $693 $750 forward 7 unknown #
coedge $-1 $614 $619 $751 $752 forward $396 $-1 #
coedge $-1 $631 $627 $614 $697 reversed $632 $-1 #
edge $-1 $753 -65.930967131565296 $640 47.691297334772628 $614 $754 forward 7 unknown #
point $-1 65.930967131565296 -16.852894812392808 2.941236676094249 #
coedge $-1 $617 $693 $755 $756 forward $521 $-1 #
coedge $-1 $755 $690 $619 $701 reversed $611 $-1 #
edge $-1 $702 -65.930967131565296 $757 65.930967131565296 $619 $758 forward 7 unknown #
vertex $-1 $701 $759 #
straight-curve $-1 65.930967131565296 0 16.685813996816353 0 1 0 I I #
coedge $-1 $747 $623 $760 $761 reversed $521 $-1 #
coedge $-1 $634 $762 $623 $706 reversed $718 $-1 #
edge $-1 $636 -9.9447797694822828 $763 16.685813996816353 $623 $764 forward 7 unknown #
straight-curve $-1 65.930967131565282 -9.9606112598288199 2.9412366760942632 0 -1 0 I I #
face $-1 $765 $766 $19 $-1 $767 reversed single #
plane-surface $-1 65.930967131565296 0 0 -1 0 0 0 0 1 forward_v I I I I #
straight-curve $-1 -10.242891585915547 -22.989550226922468 60.342357563945015 -0.79863550430605224 0 0.6018150307709319 I I #
coedge $-1 $751 $629 $631 $715 forward $688 $-1 #
coedge $-1 $629 $768 $717 $769 reversed $688 $-1 #
vertex $-1 $769 $770 #
straight-curve $-1 -65.930967131565296 -15.173944394850379 9.9447797694822828 0 1 0 I I #
edge $-1 $633 3.2871313279076233 $753 10.028165555241698 $711 $771 forward 7 unknown #
point $-1 -65.930967131565296 -22.989550226922468 9.9447797694822828 #
coedge $-1 $762 $634 $712 $769 forward $718 $-1 #
loop $-1 $-1 $634 $765 #
straight-curve $-1 0 -37.706227352479047 9.9447797694822828 -1 0 0 I I #
point $-1 65.930967131565296 -37.706227352479047 9.9447797694822828 #
plane-surface $-1 0 -22.989550226922468 13.315296883149319 0 -1 0 0 0 -1 forward_v I I I I #
point $-1 47.691297334772628 -22.989550226922471 16.68581399681635 #
point $-1 -65.930967131565296 37.706227352479047 -16.685813996816353 #
point $-1 -65.930967131565296 -37.706227352479047 9.9447797694822828 #
straight-curve $-1 -65.930967131565296 -37.706227352479047 0 0 0 -1 I I #
point $-1 -65.930967131565296 -37.706227352479047 -16.685813996816353 #
point $-1 -65.930967131565296 20.115650845799006 12.59336693828752 #
straight-curve $-1 -65.930967131565296 14.455469549569514 12.59336693828752 0 1 0 I I #
coedge $-1 $663 $662 $676 $733 reversed $664 $-1 #
edge $-1 $665 -12.59336693828752 $737 16.685813996816353 $663 $772 forward 7 unknown #
point $-1 -65.930967131565296 37.706227352479047 12.59336693828752 #
straight-curve $-1 65.930967131565296 37.706227352479047 0 0 0 -1 I I #
edge $-1 $737 -65.930967131565296 $677 65.930967131565296 $729 $773 forward 7 unknown #
point $-1 65.930967131565296 37.706227352479047 -16.685813996816353 #
straight-curve $-1 0 -37.706227352479047 -16.685813996816353 -1 0 0 I I #
plane-surface $-1 0 37.706227352479047 0 0 -1 0 0 0 -1 forward_v I I I I #
vertex $-1 $733 $774 #
straight-curve $-1 -65.930967131565296 0 -16.685813996816353 0 1 0 I I #
point $-1 -65.930967131565296 -37.706227352479047 -16.685813996816353 #
coedge $-1 $775 $751 $690 $742 forward $688 $-1 #
coedge $-1 $690 $755 $692 $746 forward $611 $-1 #
edge $-1 $757 -9.3660187630403851 $776 -5.2735717045115518 $740 $777 forward 7 unknown #
coedge $-1 $692 $691 $775 $778 reversed $508 $-1 #
coedge $-1 $779 $780 $691 $745 forward $781 $-1 #
edge $-1 $782 -65.930967131565296 $748 65.930967131565296 $744 $783 forward 7 unknown #
edge $-1 $749 -65.930967131565296 $776 65.930967131565296 $741 $784 forward 7 unknown #
coedge $-1 $693 $704 $779 $785 reversed $521 $-1 #
vertex $-1 $785 $786 #
vertex $-1 $694 $787 #
straight-curve $-1 65.930967131565296 14.455469549569514 12.59336693828752 0 -1 0 I I #
coedge $-1 $740 $711 $695 $752 reversed $688 $-1 #
edge $-1 $757 -20.115650845799006 $753 22.989550226922468 $751 $788 forward 7 unknown #
vertex $-1 $715 $789 #
straight-curve $-1 0 -22.989550226922468 16.685813996816353 1 0 0 I I #
coedge $-1 $741 $700 $699 $756 reversed $611 $-1 #
edge $-1 $749 5.2735717045115518 $702 9.3660187630403851 $699 $790 forward 7 unknown #
vertex $-1 $752 $791 #
straight-curve $-1 0 20.115650845799006 16.685813996816353 -1 0 0 I I #
point $-1 65.930967131565296 20.115650845799006 16.685813996816353 #
coedge $-1 $792 $793 $704 $761 forward $766 $-1 #
edge $-1 $794 -37.706227352479047 $763 37.706227352479047 $704 $795 forward 7 unknown #
coedge $-1 $705 $717 $792 $796 reversed $718 $-1 #
vertex $-1 $706 $797 #
straight-curve $-1 65.930967131565296 -37.706227352479047 0 0 0 -1 I I #
face $-1 $798 $718 $19 $-1 $799 reversed single #
loop $-1 $-1 $760 $708 #
plane-surface $-1 0 0 -16.685813996816353 0 0 1 1 0 0 forward_v I I I I #
coedge $-1 $712 $800 $801 $802 reversed $688 $-1 #
edge $-1 $713 -9.9447797694822828 $803 16.685813996816353 $712 $804 forward 7 unknown #
point $-1 -65.930967131565296 -37.706227352479047 9.9447797694822828 #
straight-curve $-1 -65.930967131565296 -22.989550226922468 6.6576484415746595 0 0 1 I I #
straight-curve $-1 -65.930967131565296 37.706227352479047 0 0 0 -1 I I #
straight-curve $-1 0 37.706227352479047 -16.685813996816353 1 0 0 I I #
point $-1 -65.930967131565296 37.706227352479047 -16.685813996816353 #
coedge $-1 $800 $740 $743 $778 forward $688 $-1 #
vertex $-1 $778 $805 #
straight-curve $-1 -65.930967131565296 20.115650845799006 7.3197952337759684 0 0 -1 I I #
edge $-1 $776 5.6601812962294922 $782 23.250757802909533 $775 $806 forward 7 unknown #
coedge $-1 $807 $744 $747 $785 forward $781 $-1 #
coedge $-1 $744 $807 $800 $808 reversed $781 $-1 #
loop $-1 $-1 $744 $798 #
vertex $-1 $808 $809 #
straight-curve $-1 0 37.706227352479047 12.59336693828752 1 0 0 I I #
straight-curve $-1 0 20.115650845799006 12.59336693828752 -1 0 0 I I #
edge $-1 $748 -12.59336693828752 $794 16.685813996816353 $747 $810 forward 7 unknown #
point $-1 65.930967131565296 37.706227352479047 12.59336693828752 #
point $-1 65.930967131565296 20.115650845799006 12.59336693828752 #
straight-curve $-1 -65.930967131565296 0 16.685813996816353 0 -1 0 I I #
point $-1 -65.930967131565296 -22.989550226922468 16.685813996816357 #
straight-curve $-1 65.930967131565296 20.115650845799006 7.3197952337759684 0 0 1 I I #
point $-1 -65.930967131565296 20.115650845799006 16.685813996816353 #
coedge $-1 $801 $760 $762 $796 forward $766 $-1 #
coedge $-1 $760 $801 $807 $811 forward $766 $-1 #
vertex $-1 $761 $812 #
straight-curve $-1 65.930967131565296 0 -16.685813996816353 0 -1 0 I I #
edge $-1 $763 -65.930967131565296 $803 65.930967131565296 $762 $813 forward 7 unknown #
point $-1 65.930967131565296 -37.706227352479047 -16.685813996816353 #
face $-1 $-1 $781 $19 $-1 $814 reversed single #
plane-surface $-1 0 -37.706227352479047 0 0 1 0 0 0 1 forward_v I I I I #
coedge $-1 $768 $775 $780 $808 forward $688 $-1 #
coedge $-1 $793 $792 $768 $802 forward $766 $-1 #
edge $-1 $803 -37.706227352479047 $815 37.706227352479047 $768 $816 forward 7 unknown #
vertex $-1 $802 $817 #
straight-curve $-1 -65.930967131565296 -37.706227352479047 0 0 0 -1 I I #
point $-1 -65.930967131565296 20.115650845799006 12.59336693828752 #
straight-curve $-1 -65.930967131565296 14.455469549569514 12.59336693828752 0 1 0 I I #
coedge $-1 $780 $779 $793 $811 reversed $781 $-1 #
edge $-1 $782 -12.59336693828752 $815 16.685813996816353 $780 $818 forward 7 unknown #
point $-1 -65.930967131565296 37.706227352479047 12.59336693828752 #
straight-curve $-1 65.930967131565296 37.706227352479047 0 0 0 -1 I I #
edge $-1 $815 -65.930967131565296 $794 65.930967131565296 $807 $819 forward 7 unknown #
point $-1 65.930967131565296 37.706227352479047 -16.685813996816353 #
straight-curve $-1 0 -37.706227352479047 -16.685813996816353 -1 0 0 I I #
plane-surface $-1 0 37.706227352479047 0 0 -1 0 0 0 -1 forward_v I I I I #
vertex $-1 $811 $820 #
straight-curve $-1 -65.930967131565296 0 -16.685813996816353 0 1 0 I I #
point $-1 -65.930967131565296 -37.706227352479047 -16.685813996816353 #
straight-curve $-1 -65.930967131565296 37.706227352479047 0 0 0 -1 I I #
straight-curve $-1 0 37.706227352479047 -16.685813996816353 1 0 0 I I #
point $-1 -65.930967131565296 37.706227352479047 -16.685813996816353 #
End-of-ACIS-data 