500 0 7 0           
7 Unknown 11 ACIS 5.0 NT 24 Thu Mar 25 20:31:37 1999 
-1 9.9999999999999995e-007 1e-010 
body $-1 $7 $-1 $8 #
body $-1 $9 $-1 $10 #
body $-1 $11 $-1 $12 #
body $-1 $13 $-1 $14 #
body $-1 $15 $-1 $16 #
body $-1 $17 $-1 $18 #
body $-1 $19 $-1 $20 #
lump $-1 $-1 $21 $0 #
transform $-1 1 0 0 0 1 0 0 0 1 42.002014221625416 29.383720578745127 10.084282705045334 1 rotate no_reflect no_shear #
lump $-1 $-1 $22 $1 #
transform $-1 1 0 0 0 1 0 0 0 1 42.002014221625416 29.383720578745127 10.084282705045334 1 rotate no_reflect no_shear #
lump $-1 $-1 $23 $2 #
transform $-1 1 0 0 0 1 0 0 0 1 42.002014221625416 29.383720578745127 10.084282705045334 1 rotate no_reflect no_shear #
lump $-1 $-1 $24 $3 #
transform $-1 1 0 0 0 1 0 0 0 1 42.002014221625416 29.383720578745127 10.084282705045334 1 rotate no_reflect no_shear #
lump $-1 $-1 $25 $4 #
transform $-1 1 0 0 0 1 0 0 0 1 42.002014221625416 29.383720578745127 10.084282705045334 1 rotate no_reflect no_shear #
lump $-1 $-1 $26 $5 #
transform $-1 1 0 0 0 1 0 0 0 1 42.002014221625416 29.383720578745127 10.084282705045334 1 rotate no_reflect no_shear #
lump $-1 $-1 $27 $6 #
transform $-1 1 0 0 0 1 0 0 0 1 42.002014221625416 29.383720578745127 10.084282705045334 1 rotate no_reflect no_shear #
shell $-1 $-1 $-1 $28 $-1 $7 #
shell $-1 $-1 $-1 $29 $-1 $9 #
shell $-1 $-1 $-1 $30 $-1 $11 #
shell $-1 $-1 $-1 $31 $-1 $13 #
shell $-1 $-1 $-1 $32 $-1 $15 #
shell $-1 $-1 $-1 $33 $-1 $17 #
shell $-1 $-1 $-1 $34 $-1 $19 #
face $-1 $35 $36 $21 $-1 $37 forward single #
face $-1 $38 $39 $22 $-1 $40 forward single #
face $-1 $41 $42 $23 $-1 $43 reversed single #
face $-1 $44 $45 $24 $-1 $46 forward single #
face $-1 $47 $48 $25 $-1 $49 forward single #
face $-1 $50 $51 $26 $-1 $52 reversed single #
face $-1 $53 $54 $27 $-1 $55 forward single #
face $-1 $56 $57 $21 $-1 $58 reversed single #
loop $-1 $-1 $59 $28 #
plane-surface $-1 0 0 10.084282705045334 0 0 1 1 0 0 forward_v I I I I #
face $-1 $60 $61 $22 $-1 $62 reversed single #
loop $-1 $-1 $63 $29 #
plane-surface $-1 -42.002014221625416 0 0 1 0 0 0 0 -1 forward_v I I I I #
face $-1 $64 $65 $23 $-1 $66 reversed single #
loop $-1 $-1 $67 $30 #
plane-surface $-1 -20.446819966868013 55.959558014765378 100.72105183802728 1 0 0 0 -0.7660444514056185 -0.64278759981090561 forward_v I I I I #
face $-1 $68 $69 $24 $-1 $70 forward single #
loop $-1 $71 $72 $31 #
cone-surface $-1 -17.61639127626297 25.074806812099947 5.2290334108869985 0 -0.7660444514056185 -0.64278759981090561 1 0 0 1 I I 0 1 1 forward I I I I #
face $-1 $73 $74 $25 $-1 $75 forward single #
loop $-1 $76 $77 $32 #
cone-surface $-1 -13.370748240355404 25.074806812099947 5.2290334108869985 0 -0.7660444514056185 -0.64278759981090561 1 0 0 1 I I 0 1 1 forward I I I I #
face $-1 $78 $79 $26 $-1 $80 reversed single #
loop $-1 $-1 $81 $33 #
plane-surface $-1 -15.379783906701642 -78.760050261659302 70.320960640587742 -1 0 0 0 -0.5877852598018023 0.80901698891910034 forward_v I I I I #
face $-1 $82 $83 $27 $-1 $84 forward single #
loop $-1 $85 $86 $34 #
cone-surface $-1 -23.568420751976412 -23.416966673976816 5.3260318657746151 0 0.5877852598018023 -0.80901698891910034 1.5 0 0 1 I I 0 1 1.5 forward I I I I #
face $-1 $87 $88 $21 $-1 $89 reversed single #
loop $-1 $-1 $90 $35 #
plane-surface $-1 0 0 -10.084282705045334 0 0 1 1 0 0 forward_v I I I I #
coedge $-1 $91 $92 $93 $94 forward $36 $-1 #
face $-1 $95 $96 $22 $-1 $97 reversed single #
loop $-1 $-1 $98 $38 #
plane-surface $-1 0 0 -10.084282705045334 0 0 1 1 0 0 forward_v I I I I #
coedge $-1 $99 $100 $101 $102 forward $39 $-1 #
face $-1 $103 $104 $23 $-1 $105 reversed single #
loop $-1 $-1 $106 $41 #
plane-surface $-1 -15.493569758309189 -8.3912618699066712 46.72430402054303 0 0.7660444514056185 0.64278759981090561 1 0 0 forward_v I I I I #
coedge $-1 $107 $108 $109 $110 reversed $42 $-1 #
face $-1 $-1 $111 $24 $-1 $112 forward single #
loop $-1 $113 $114 $44 #
cone-surface $-1 -17.61639127626297 23.898048260462573 4.241615770075148 0 -0.7660444514056185 -0.64278759981090561 0.5 0 0 1 I I -0.70710678118654746 0.70710678118654746 0.5 forward I I I I #
loop $-1 $-1 $115 $31 #
coedge $-1 $72 $72 $116 $117 reversed $45 $-1 #
face $-1 $-1 $118 $25 $-1 $119 forward single #
loop $-1 $120 $121 $47 #
cone-surface $-1 -13.370748240355404 23.898048260462573 4.241615770075148 0 -0.7660444514056185 -0.64278759981090561 0.5 0 0 1 I I -0.70710678118654746 0.70710678118654746 0.5 forward I I I I #
loop $-1 $-1 $122 $32 #
coedge $-1 $77 $77 $123 $124 reversed $48 $-1 #
face $-1 $125 $126 $26 $-1 $127 reversed single #
loop $-1 $-1 $128 $50 #
plane-surface $-1 -23.568420751976412 -29.38372057874512 2.3602744923544918 0 -0.5877852598018023 0.80901698891910034 1 0 0 forward_v I I I I #
coedge $-1 $129 $130 $131 $132 reversed $51 $-1 #
face $-1 $-1 $133 $27 $-1 $134 forward single #
loop $-1 $135 $136 $53 #
cone-surface $-1 -23.568420751976412 -22.32496634935907 3.8230223911599879 0 0.5877852598018023 -0.80901698891910034 0.75 0 0 1 I I -0.70710678118654757 0.70710678118654757 0.75 forward I I I I #
loop $-1 $-1 $137 $34 #
coedge $-1 $86 $86 $138 $139 reversed $54 $-1 #
face $-1 $140 $141 $21 $-1 $142 reversed single #
loop $-1 $-1 $143 $56 #
plane-surface $-1 0 -29.383720578745127 0 0 1 0 0 0 1 forward_v I I I I #
coedge $-1 $144 $145 $146 $147 forward $57 $-1 #
coedge $-1 $148 $59 $149 $150 forward $36 $-1 #
coedge $-1 $59 $148 $151 $152 forward $36 $-1 #
coedge $-1 $153 $154 $59 $94 reversed $155 $-1 #
edge $-1 $156 -29.383720578745127 $157 29.383720578745127 $93 $158 forward 7 unknown #
face $-1 $159 $160 $22 $-1 $161 reversed single #
loop $-1 $-1 $162 $60 #
plane-surface $-1 -47.124492533812528 -21.202531681217668 0 0 1 0 0 0 1 forward_v I I I I #
coedge $-1 $163 $164 $100 $165 forward $61 $-1 #
coedge $-1 $166 $63 $167 $168 reversed $39 $-1 #
coedge $-1 $63 $166 $98 $165 reversed $39 $-1 #
coedge $-1 $169 $170 $63 $102 reversed $171 $-1 #
edge $-1 $172 -10.084282705045334 $173 10.084282705045334 $101 $174 forward 7 unknown #
face $-1 $175 $176 $23 $-1 $177 forward single #
loop $-1 $-1 $178 $64 #
plane-surface $-1 -10.540319549750365 55.959558014765378 100.72105183802728 -1 0 0 0 0.7660444514056185 0.64278759981090561 forward_v I I I I #
coedge $-1 $179 $180 $181 $182 reversed $65 $-1 #
coedge $-1 $108 $67 $183 $184 reversed $42 $-1 #
coedge $-1 $67 $107 $179 $185 reversed $42 $-1 #
coedge $-1 $181 $186 $67 $110 forward $176 $-1 #
edge $-1 $187 -1.4039415713624379 $188 5.6264133100588047 $109 $189 forward 7 unknown #
loop $-1 $-1 $116 $68 #
plane-surface $-1 -15.493569758309189 -8.3912618699066712 46.72430402054303 0 0.7660444514056185 0.64278759981090561 1 0 0 forward_v I I I I #
loop $-1 $-1 $190 $44 #
coedge $-1 $114 $114 $115 $191 reversed $69 $-1 #
coedge $-1 $115 $115 $114 $191 forward $71 $-1 #
coedge $-1 $116 $116 $72 $117 forward $111 $-1 #
edge $-1 $192 -3.9081691012669651e-016 $192 6.2831853071796004 $116 $193 forward 7 unknown #
loop $-1 $-1 $123 $73 #
plane-surface $-1 -15.493569758309189 -8.3912618699066712 46.72430402054303 0 0.7660444514056185 0.64278759981090561 1 0 0 forward_v I I I I #
loop $-1 $-1 $194 $47 #
coedge $-1 $121 $121 $122 $195 reversed $74 $-1 #
coedge $-1 $122 $122 $121 $195 forward $76 $-1 #
coedge $-1 $123 $123 $77 $124 forward $118 $-1 #
edge $-1 $196 -3.9081691012669651e-016 $196 6.2831853071796004 $123 $197 forward 7 unknown #
face $-1 $198 $199 $26 $-1 $200 forward single #
loop $-1 $-1 $201 $78 #
plane-surface $-1 -31.757057597251183 -78.760050261659302 70.320960640587742 1 0 0 0 0.5877852598018023 -0.80901698891910034 forward_v I I I I #
coedge $-1 $202 $203 $204 $205 reversed $79 $-1 #
coedge $-1 $130 $81 $206 $207 reversed $51 $-1 #
coedge $-1 $81 $129 $202 $208 reversed $51 $-1 #
coedge $-1 $204 $209 $81 $132 forward $199 $-1 #
edge $-1 $210 9.9963045520845242 $211 20.627489602088378 $131 $212 forward 7 unknown #
loop $-1 $-1 $138 $82 #
plane-surface $-1 -23.568420751976412 -29.38372057874512 2.3602744923544918 0 -0.5877852598018023 0.80901698891910034 1 0 0 forward_v I I I I #
loop $-1 $-1 $213 $53 #
coedge $-1 $136 $136 $137 $214 reversed $83 $-1 #
coedge $-1 $137 $137 $136 $214 forward $85 $-1 #
coedge $-1 $138 $138 $86 $139 forward $133 $-1 #
edge $-1 $215 1.2162119504328333e-015 $215 6.2831853071796013 $138 $216 forward 7 unknown #
face $-1 $217 $218 $21 $-1 $219 reversed single #
loop $-1 $-1 $220 $87 #
plane-surface $-1 -42.002014221625416 0 0 1 0 0 0 0 -1 forward_v I I I I #
coedge $-1 $221 $151 $222 $223 forward $88 $-1 #
coedge $-1 $224 $90 $221 $225 forward $57 $-1 #
coedge $-1 $90 $224 $226 $227 forward $57 $-1 #
coedge $-1 $154 $153 $90 $147 reversed $155 $-1 #
edge $-1 $228 -29.383720578745127 $229 29.383720578745127 $146 $230 forward 7 unknown #
coedge $-1 $92 $91 $231 $232 forward $36 $-1 #
coedge $-1 $233 $234 $91 $150 reversed $218 $-1 #
edge $-1 $157 -42.002014221625416 $235 42.002014221625416 $149 $236 forward 7 unknown #
coedge $-1 $143 $237 $92 $152 reversed $88 $-1 #
edge $-1 $238 -42.002014221625416 $156 42.002014221625416 $151 $239 forward 7 unknown #
coedge $-1 $146 $93 $237 $240 forward $155 $-1 #
coedge $-1 $93 $146 $233 $241 reversed $155 $-1 #
loop $-1 $-1 $153 $217 #
vertex $-1 $94 $242 #
vertex $-1 $94 $243 #
straight-curve $-1 42.002014221625416 0 10.084282705045334 0 1 0 I I #
face $-1 $244 $171 $22 $-1 $245 reversed single #
loop $-1 $-1 $246 $95 #
plane-surface $-1 -52.246970845999641 -18.606322065705356 0 1 0 0 0 0 -1 forward_v I I I I #
coedge $-1 $247 $248 $249 $250 forward $96 $-1 #
coedge $-1 $251 $98 $247 $252 forward $61 $-1 #
coedge $-1 $98 $251 $169 $253 forward $61 $-1 #
edge $-1 $172 16.010112450193045 $254 21.202531681217668 $98 $255 forward 7 unknown #
coedge $-1 $100 $99 $256 $257 forward $39 $-1 #
coedge $-1 $258 $259 $99 $168 forward $260 $-1 #
edge $-1 $261 -21.202531681217668 $173 -16.010112450193045 $167 $262 forward 7 unknown #
coedge $-1 $263 $101 $164 $253 reversed $171 $-1 #
coedge $-1 $101 $263 $258 $264 reversed $171 $-1 #
loop $-1 $-1 $101 $159 #
vertex $-1 $165 $265 #
vertex $-1 $264 $266 #
straight-curve $-1 -42.002014221625416 -16.010112450193045 0 0 0 1 I I #
face $-1 $-1 $267 $23 $-1 $268 reversed single #
loop $-1 $-1 $109 $103 #
plane-surface $-1 0 0 10.084282705045334 0 0 1 1 0 0 forward_v I I I I #
coedge $-1 $269 $270 $271 $272 reversed $104 $-1 #
coedge $-1 $273 $106 $108 $185 forward $65 $-1 #
coedge $-1 $106 $273 $269 $274 forward $65 $-1 #
coedge $-1 $271 $109 $106 $182 forward $176 $-1 #
edge $-1 $188 -12.700035087713418 $275 -2.7935346705957702 $181 $276 forward 7 unknown #
coedge $-1 $277 $278 $107 $184 forward $267 $-1 #
edge $-1 $279 -48.654694120472207 $187 -40.276243213968307 $183 $280 forward 7 unknown #
edge $-1 $188 47.830150389140947 $279 58.767441157490275 $108 $281 forward 7 unknown #
coedge $-1 $109 $271 $277 $282 forward $176 $-1 #
vertex $-1 $184 $283 #
vertex $-1 $110 $284 #
straight-curve $-1 -20.446819966868013 27.979779007382689 10.084282705045332 0 -1 0 I I #
coedge $-1 $190 $190 $-1 $285 reversed $113 $-1 #
edge $-1 $286 0 $286 6.2831853071796004 $114 $287 forward 7 unknown #
vertex $-1 $117 $288 #
ellipse-curve $-1 -17.61639127626297 25.868543138034497 5.8950572517933848 0 0.7660444514056185 0.64278759981090561 1 0 0 1 I I #
coedge $-1 $194 $194 $-1 $289 reversed $120 $-1 #
edge $-1 $290 0 $290 6.2831853071796004 $121 $291 forward 7 unknown #
vertex $-1 $124 $292 #
ellipse-curve $-1 -13.370748240355404 25.868543138034497 5.8950572517933848 0 0.7660444514056185 0.64278759981090561 1 0 0 1 I I #
face $-1 $-1 $293 $26 $-1 $294 reversed single #
loop $-1 $-1 $131 $125 #
plane-surface $-1 0 0 10.084282705045334 0 0 1 1 0 0 forward_v I I I I #
coedge $-1 $295 $296 $297 $298 reversed $126 $-1 #
coedge $-1 $299 $128 $130 $208 forward $79 $-1 #
coedge $-1 $128 $299 $295 $300 forward $79 $-1 #
coedge $-1 $297 $131 $128 $205 forward $199 $-1 #
edge $-1 $211 3.5955735307134358 $301 19.972847221262978 $204 $302 forward 7 unknown #
coedge $-1 $303 $304 $129 $207 forward $293 $-1 #
edge $-1 $305 -32.800205827939386 $210 -25.076197615248539 $206 $306 forward 7 unknown #
edge $-1 $211 -13.140867491803609 $305 8.8807605448725156e-015 $130 $307 forward 7 unknown #
coedge $-1 $131 $297 $303 $308 forward $199 $-1 #
vertex $-1 $132 $309 #
vertex $-1 $132 $310 #
straight-curve $-1 -15.379783906701642 -39.380025130829651 10.084282705045332 0 1 0 I I #
coedge $-1 $213 $213 $-1 $311 reversed $135 $-1 #
edge $-1 $312 0 $312 6.2831853071796004 $136 $313 forward 7 unknown #
vertex $-1 $139 $314 #
ellipse-curve $-1 -23.568420751976412 -24.068128053743205 6.2222785986999076 0 -0.5877852598018023 0.80901698891910034 1.5 0 0 1 I I #
face $-1 $-1 $155 $21 $-1 $315 reversed single #
loop $-1 $-1 $233 $140 #
plane-surface $-1 0 29.383720578745127 0 0 -1 0 0 0 -1 forward_v I I I I #
coedge $-1 $316 $231 $234 $317 forward $141 $-1 #
coedge $-1 $237 $143 $144 $225 reversed $88 $-1 #
coedge $-1 $231 $316 $143 $223 reversed $141 $-1 #
edge $-1 $238 -10.084282705045334 $318 10.084282705045334 $222 $319 forward 7 unknown #
coedge $-1 $145 $144 $316 $320 forward $57 $-1 #
edge $-1 $229 -42.002014221625416 $318 42.002014221625416 $221 $321 forward 7 unknown #
coedge $-1 $234 $233 $145 $227 reversed $218 $-1 #
edge $-1 $322 -42.002014221625416 $228 42.002014221625416 $226 $323 forward 7 unknown #
vertex $-1 $147 $324 #
vertex $-1 $240 $325 #
straight-curve $-1 42.002014221625416 0 -10.084282705045334 0 -1 0 I I #
coedge $-1 $220 $222 $148 $232 reversed $141 $-1 #
edge $-1 $235 -29.383720578745127 $238 29.383720578745127 $231 $326 forward 7 unknown #
coedge $-1 $226 $149 $154 $241 forward $218 $-1 #
coedge $-1 $149 $226 $220 $317 reversed $218 $-1 #
vertex $-1 $150 $327 #
straight-curve $-1 0 29.383720578745127 10.084282705045334 -1 0 0 I I #
coedge $-1 $151 $221 $153 $240 reversed $88 $-1 #
vertex $-1 $232 $328 #
straight-curve $-1 0 -29.383720578745127 10.084282705045334 1 0 0 I I #
edge $-1 $156 -10.084282705045334 $229 10.084282705045334 $153 $329 forward 7 unknown #
edge $-1 $157 -10.084282705045334 $228 10.084282705045334 $154 $330 forward 7 unknown #
point $-1 42.002014221625416 -29.383720578745127 10.084282705045334 #
point $-1 42.002014221625416 29.383720578745127 10.084282705045334 #
face $-1 $-1 $260 $22 $-1 $331 forward single #
plane-surface $-1 -47.124492533812528 -16.010112450193045 0 0 -1 0 0 0 -1 forward_v I I I I #
coedge $-1 $332 $333 $263 $334 forward $160 $-1 #
coedge $-1 $256 $162 $163 $252 reversed $96 $-1 #
coedge $-1 $162 $256 $259 $335 reversed $96 $-1 #
coedge $-1 $333 $332 $162 $250 reversed $160 $-1 #
edge $-1 $336 -10.084282705045334 $337 10.084282705045334 $249 $338 forward 7 unknown #
coedge $-1 $164 $163 $332 $339 forward $61 $-1 #
edge $-1 $254 -5.1224783121871127 $337 5.1224783121871127 $247 $340 forward 7 unknown #
edge $-1 $341 -5.1224783121871127 $172 5.1224783121871127 $169 $342 forward 7 unknown #
vertex $-1 $252 $343 #
straight-curve $-1 -42.002014221625416 0 -10.084282705045334 0 -1 0 I I #
coedge $-1 $248 $247 $166 $257 reversed $96 $-1 #
edge $-1 $261 -10.084282705045334 $254 10.084282705045334 $256 $344 forward 7 unknown #
coedge $-1 $345 $167 $170 $264 forward $260 $-1 #
coedge $-1 $167 $345 $248 $335 forward $260 $-1 #
loop $-1 $-1 $167 $244 #
vertex $-1 $168 $346 #
straight-curve $-1 -42.002014221625416 0 10.084282705045334 0 1 0 I I #
coedge $-1 $170 $169 $246 $334 reversed $171 $-1 #
edge $-1 $173 -5.1224783121871127 $347 5.1224783121871127 $170 $348 forward 7 unknown #
point $-1 -42.002014221625416 -16.010112450193045 -10.084282705045334 #
point $-1 -42.002014221625416 -16.010112450193045 10.084282705045334 #
loop $-1 $-1 $183 $175 #
plane-surface $-1 0 29.383720578745127 0 0 -1 0 0 0 -1 forward_v I I I I #
coedge $-1 $270 $178 $180 $274 reversed $104 $-1 #
coedge $-1 $178 $269 $349 $350 reversed $104 $-1 #
coedge $-1 $186 $181 $178 $272 forward $176 $-1 #
edge $-1 $275 -5.6264133100588047 $351 1.4039415713624379 $271 $352 forward 7 unknown #
coedge $-1 $180 $179 $278 $353 reversed $65 $-1 #
edge $-1 $354 -58.767441157490275 $275 -47.830150389140947 $269 $355 forward 7 unknown #
vertex $-1 $182 $356 #
straight-curve $-1 -7.7467848791545943 22.353365697323884 10.084282705045336 1 0 0 I I #
coedge $-1 $349 $183 $186 $282 reversed $267 $-1 #
coedge $-1 $183 $349 $273 $353 forward $267 $-1 #
vertex $-1 $184 $357 #
straight-curve $-1 -20.446819966868013 29.383720578745127 50.360525919013639 0 0 1 I I #
straight-curve $-1 -20.446819966868013 -8.3912618699066712 46.72430402054303 0 0.64278759981090561 -0.7660444514056185 I I #
edge $-1 $351 10.540319549750365 $187 20.446819966868013 $277 $358 forward 7 unknown #
point $-1 -20.446819966868013 29.383720578745127 10.084282705045334 #
point $-1 -20.446819966868013 22.353365697323884 10.084282705045332 #
edge $-1 $359 1 $359 0 $190 $-1 forward 7 unknown #
vertex $-1 $191 $360 #
ellipse-curve $-1 -17.61639127626297 24.281070486165383 4.5630095699806006 0 0.7660444514056185 0.64278759981090561 1 0 0 1 I I #
point $-1 -16.61639127626297 25.868543138034511 5.8950572517933972 #
edge $-1 $361 1 $361 0 $194 $-1 forward 7 unknown #
vertex $-1 $195 $362 #
ellipse-curve $-1 -13.370748240355404 24.281070486165383 4.5630095699806006 0 0.7660444514056185 0.64278759981090561 1 0 0 1 I I #
point $-1 -12.370748240355404 25.868543138034511 5.8950572517933972 #
loop $-1 $-1 $206 $198 #
plane-surface $-1 0 -29.383720578745127 0 0 1 0 0 0 1 forward_v I I I I #
coedge $-1 $296 $201 $203 $300 reversed $126 $-1 #
coedge $-1 $201 $295 $363 $364 reversed $126 $-1 #
coedge $-1 $209 $204 $201 $298 forward $199 $-1 #
edge $-1 $301 -20.627489602088378 $365 -9.9963045520845242 $297 $366 forward 7 unknown #
coedge $-1 $203 $202 $304 $367 reversed $79 $-1 #
edge $-1 $368 -8.8807605448725156e-015 $301 13.140867491803609 $295 $369 forward 7 unknown #
vertex $-1 $205 $370 #
straight-curve $-1 -11.784210375988206 -18.752535528741273 10.084282705045334 -1 0 0 I I #
coedge $-1 $363 $206 $209 $308 reversed $293 $-1 #
coedge $-1 $206 $363 $299 $367 forward $293 $-1 #
vertex $-1 $207 $371 #
straight-curve $-1 -15.379783906701642 -29.383720578745127 35.160480320293871 0 0 1 I I #
straight-curve $-1 -15.379783906701642 -29.38372057874512 2.3602744923544918 0 -0.80901698891910034 -0.5877852598018023 I I #
edge $-1 $365 -31.757057597251183 $210 -15.379783906701642 $303 $372 forward 7 unknown #
point $-1 -15.379783906701642 -29.383720578745127 10.084282705045334 #
point $-1 -15.379783906701642 -18.752535528741273 10.084282705045334 #
edge $-1 $373 1 $373 0 $213 $-1 forward 7 unknown #
vertex $-1 $214 $374 #
ellipse-curve $-1 -23.568420751976412 -22.76580529421042 4.4297851328493127 0 -0.5877852598018023 0.80901698891910034 1.5 0 0 1 I I #
point $-1 -22.068420751976412 -24.068128053743209 6.2222785986999156 #
plane-surface $-1 42.002014221625416 0 0 -1 0 0 0 0 1 forward_v I I I I #
coedge $-1 $222 $220 $224 $320 reversed $141 $-1 #
edge $-1 $235 -10.084282705045334 $322 10.084282705045334 $234 $375 forward 7 unknown #
vertex $-1 $320 $376 #
straight-curve $-1 -42.002014221625416 -29.383720578745127 0 0 0 -1 I I #
edge $-1 $318 -29.383720578745127 $322 29.383720578745127 $316 $377 forward 7 unknown #
straight-curve $-1 0 -29.383720578745127 -10.084282705045334 -1 0 0 I I #
vertex $-1 $227 $378 #
straight-curve $-1 0 29.383720578745127 -10.084282705045334 1 0 0 I I #
point $-1 42.002014221625416 29.383720578745127 -10.084282705045334 #
point $-1 42.002014221625416 -29.383720578745127 -10.084282705045334 #
straight-curve $-1 -42.002014221625416 0 10.084282705045334 0 -1 0 I I #
point $-1 -42.002014221625416 29.383720578745127 10.084282705045334 #
point $-1 -42.002014221625416 -29.383720578745127 10.084282705045334 #
straight-curve $-1 42.002014221625416 -29.383720578745127 0 0 0 -1 I I #
straight-curve $-1 42.002014221625416 29.383720578745127 0 0 0 -1 I I #
plane-surface $-1 0 0 10.084282705045334 0 0 1 1 0 0 forward_v I I I I #
coedge $-1 $249 $246 $251 $339 reversed $160 $-1 #
coedge $-1 $246 $249 $345 $379 reversed $160 $-1 #
edge $-1 $347 -10.084282705045334 $341 10.084282705045334 $263 $380 forward 7 unknown #
edge $-1 $336 -5.1224783121871127 $261 5.1224783121871127 $248 $381 forward 7 unknown #
vertex $-1 $379 $382 #
vertex $-1 $339 $383 #
straight-curve $-1 -52.246970845999641 -21.202531681217668 0 0 0 -1 I I #
edge $-1 $337 -2.5962096155123113 $341 2.5962096155123113 $332 $384 forward 7 unknown #
straight-curve $-1 -47.124492533812528 -21.202531681217668 -10.084282705045334 -1 0 0 I I #
vertex $-1 $253 $385 #
straight-curve $-1 -47.124492533812528 -16.010112450193045 -10.084282705045334 1 0 0 I I #
point $-1 -42.002014221625416 -21.202531681217668 -10.084282705045334 #
straight-curve $-1 -42.002014221625416 -21.202531681217668 0 0 0 -1 I I #
coedge $-1 $259 $258 $333 $379 forward $260 $-1 #
point $-1 -42.002014221625416 -21.202531681217668 10.084282705045334 #
vertex $-1 $264 $386 #
straight-curve $-1 -47.124492533812528 -16.010112450193045 10.084282705045334 -1 0 0 I I #
coedge $-1 $278 $277 $270 $350 forward $267 $-1 #
edge $-1 $351 40.276243213968307 $354 48.654694120472207 $349 $387 forward 7 unknown #
vertex $-1 $282 $388 #
straight-curve $-1 -10.540319549750365 27.979779007382689 10.084282705045332 0 1 0 I I #
edge $-1 $354 2.7935346705957702 $279 12.700035087713418 $278 $389 forward 7 unknown #
vertex $-1 $353 $390 #
straight-curve $-1 -10.540319549750365 -8.3912618699066712 46.72430402054303 0 -0.64278759981090561 0.7660444514056185 I I #
point $-1 -10.540319549750365 22.353365697323884 10.084282705045332 #
point $-1 -20.446819966868013 29.383720578745127 1.705831798541432 #
straight-curve $-1 0 29.383720578745127 10.084282705045334 -1 0 0 I I #
vertex $-1 $285 $391 #
point $-1 -16.61639127626297 24.281070486165383 4.5630095699806006 #
vertex $-1 $289 $392 #
point $-1 -12.370748240355404 24.281070486165383 4.5630095699806006 #
coedge $-1 $304 $303 $296 $364 forward $293 $-1 #
edge $-1 $365 25.076197615248539 $368 32.800205827939386 $363 $393 forward 7 unknown #
vertex $-1 $308 $394 #
straight-curve $-1 -31.757057597251183 -39.380025130829651 10.084282705045332 0 -1 0 I I #
edge $-1 $368 -19.972847221262978 $305 -3.5955735307134358 $304 $395 forward 7 unknown #
vertex $-1 $367 $396 #
straight-curve $-1 -31.757057597251183 -29.38372057874512 2.3602744923544918 0 0.80901698891910034 0.5877852598018023 I I #
point $-1 -31.757057597251183 -18.752535528741273 10.084282705045334 #
point $-1 -15.379783906701642 -29.383720578745127 2.3602744923544865 #
straight-curve $-1 0 -29.383720578745127 10.084282705045334 1 0 0 I I #
vertex $-1 $311 $397 #
point $-1 -22.068420751976412 -22.76580529421042 4.4297851328493127 #
straight-curve $-1 -42.002014221625416 29.383720578745127 0 0 0 -1 I I #
point $-1 -42.002014221625416 -29.383720578745127 -10.084282705045334 #
straight-curve $-1 -42.002014221625416 0 -10.084282705045334 0 1 0 I I #
point $-1 -42.002014221625416 29.383720578745127 -10.084282705045334 #
edge $-1 $347 -2.5962096155123113 $336 2.5962096155123113 $333 $398 forward 7 unknown #
straight-curve $-1 -52.246970845999641 -16.010112450193045 0 0 0 -1 I I #
straight-curve $-1 -47.124492533812528 -21.202531681217668 10.084282705045334 1 0 0 I I #
point $-1 -52.246970845999641 -21.202531681217668 10.084282705045334 #
point $-1 -52.246970845999641 -21.202531681217668 -10.084282705045334 #
straight-curve $-1 -52.246970845999641 -18.606322065705356 -10.084282705045334 0 1 0 I I #
point $-1 -52.246970845999641 -16.010112450193045 -10.084282705045334 #
point $-1 -52.246970845999641 -16.010112450193045 10.084282705045334 #
straight-curve $-1 -10.540319549750365 29.383720578745127 50.360525919013639 0 0 -1 I I #
point $-1 -10.540319549750365 29.383720578745127 10.084282705045334 #
straight-curve $-1 -7.7467848791545943 29.383720578745127 1.7058317985414284 -1 0 0 I I #
point $-1 -10.540319549750365 29.383720578745127 1.705831798541432 #
point $-1 -17.61639127626297 23.515026034759764 3.9202219701696954 #
point $-1 -13.370748240355404 23.515026034759764 3.9202219701696954 #
straight-curve $-1 -31.757057597251183 -29.383720578745127 35.160480320293871 0 0 -1 I I #
point $-1 -31.757057597251183 -29.383720578745127 10.084282705045334 #
straight-curve $-1 -11.784210375988206 -29.383720578745127 2.3602744923544869 1 0 0 I I #
point $-1 -31.757057597251183 -29.383720578745127 2.3602744923544865 #
point $-1 -23.568420751976412 -21.884127404507719 3.2162596494706626 #
straight-curve $-1 -52.246970845999641 -18.606322065705356 10.084282705045334 0 -1 0 I I #
End-of-ACIS-data 