500 0 18 0           
7 Unknown 11 ACIS 5.0 NT 24 Thu Mar 25 16:04:13 1999 
-1 9.9999999999999995e-007 1e-010 
body $-1 $18 $-1 $19 #
body $-1 $20 $-1 $21 #
body $-1 $22 $-1 $23 #
body $-1 $24 $-1 $25 #
body $-1 $26 $-1 $27 #
body $-1 $28 $-1 $29 #
body $-1 $30 $-1 $31 #
body $-1 $32 $-1 $33 #
body $-1 $34 $-1 $35 #
body $-1 $36 $-1 $37 #
body $-1 $38 $-1 $39 #
body $-1 $40 $-1 $41 #
body $-1 $42 $-1 $43 #
body $-1 $44 $-1 $45 #
body $-1 $46 $-1 $47 #
body $-1 $48 $-1 $49 #
body $-1 $50 $-1 $51 #
body $-1 $52 $-1 $53 #
lump $-1 $-1 $54 $0 #
transform $-1 1 0 0 0 1 0 0 0 1 65.822321237830749 32.947118123421646 13.006404524732078 1 rotate no_reflect no_shear #
lump $-1 $-1 $55 $1 #
transform $-1 1 0 0 0 1 0 0 0 1 65.822321237830749 32.947118123421646 13.006404524732078 1 rotate no_reflect no_shear #
lump $-1 $-1 $56 $2 #
transform $-1 1 0 0 0 1 0 0 0 1 65.822321237830749 32.947118123421646 13.006404524732078 1 rotate no_reflect no_shear #
lump $-1 $-1 $57 $3 #
transform $-1 1 0 0 0 1 0 0 0 1 65.822321237830749 32.947118123421646 13.006404524732078 1 rotate no_reflect no_shear #
lump $-1 $-1 $58 $4 #
transform $-1 1 0 0 0 1 0 0 0 1 65.822321237830749 32.947118123421646 13.006404524732078 1 rotate no_reflect no_shear #
lump $-1 $-1 $59 $5 #
transform $-1 1 0 0 0 1 0 0 0 1 65.822321237830749 32.947118123421646 13.006404524732078 1 rotate no_reflect no_shear #
lump $-1 $-1 $60 $6 #
transform $-1 1 0 0 0 1 0 0 0 1 65.822321237830749 32.947118123421646 13.006404524732078 1 rotate no_reflect no_shear #
lump $-1 $-1 $61 $7 #
transform $-1 1 0 0 0 1 0 0 0 1 65.822321237830749 32.947118123421646 13.006404524732078 1 rotate no_reflect no_shear #
lump $-1 $-1 $62 $8 #
transform $-1 1 0 0 0 1 0 0 0 1 65.822321237830749 32.947118123421646 13.006404524732078 1 rotate no_reflect no_shear #
lump $-1 $-1 $63 $9 #
transform $-1 1 0 0 0 1 0 0 0 1 65.822321237830749 32.947118123421646 13.006404524732078 1 rotate no_reflect no_shear #
lump $-1 $-1 $64 $10 #
transform $-1 1 0 0 0 1 0 0 0 1 65.822321237830749 32.947118123421646 13.006404524732078 1 rotate no_reflect no_shear #
lump $-1 $-1 $65 $11 #
transform $-1 1 0 0 0 1 0 0 0 1 65.822321237830749 32.947118123421646 13.006404524732078 1 rotate no_reflect no_shear #
lump $-1 $-1 $66 $12 #
transform $-1 1 0 0 0 1 0 0 0 1 65.822321237830749 32.947118123421646 13.006404524732078 1 rotate no_reflect no_shear #
lump $-1 $-1 $67 $13 #
transform $-1 1 0 0 0 1 0 0 0 1 65.822321237830749 32.947118123421646 13.006404524732078 1 rotate no_reflect no_shear #
lump $-1 $-1 $68 $14 #
transform $-1 1 0 0 0 1 0 0 0 1 65.822321237830749 32.947118123421646 13.006404524732078 1 rotate no_reflect no_shear #
lump $-1 $-1 $69 $15 #
transform $-1 1 0 0 0 1 0 0 0 1 65.822321237830749 32.947118123421646 13.006404524732078 1 rotate no_reflect no_shear #
lump $-1 $-1 $70 $16 #
transform $-1 1 0 0 0 1 0 0 0 1 65.822321237830749 32.947118123421646 13.006404524732078 1 rotate no_reflect no_shear #
lump $-1 $-1 $71 $17 #
transform $-1 1 0 0 0 1 0 0 0 1 65.822321237830749 32.947118123421646 13.006404524732078 1 rotate no_reflect no_shear #
shell $-1 $-1 $-1 $72 $-1 $18 #
shell $-1 $-1 $-1 $73 $-1 $20 #
shell $-1 $-1 $-1 $74 $-1 $22 #
shell $-1 $-1 $-1 $75 $-1 $24 #
shell $-1 $-1 $-1 $76 $-1 $26 #
shell $-1 $-1 $-1 $77 $-1 $28 #
shell $-1 $-1 $-1 $78 $-1 $30 #
shell $-1 $-1 $-1 $79 $-1 $32 #
shell $-1 $-1 $-1 $80 $-1 $34 #
shell $-1 $-1 $-1 $81 $-1 $36 #
shell $-1 $-1 $-1 $82 $-1 $38 #
shell $-1 $-1 $-1 $83 $-1 $40 #
shell $-1 $-1 $-1 $84 $-1 $42 #
shell $-1 $-1 $-1 $85 $-1 $44 #
shell $-1 $-1 $-1 $86 $-1 $46 #
shell $-1 $-1 $-1 $87 $-1 $48 #
shell $-1 $-1 $-1 $88 $-1 $50 #
shell $-1 $-1 $-1 $89 $-1 $52 #
face $-1 $90 $91 $54 $-1 $92 forward single #
face $-1 $93 $94 $55 $-1 $95 reversed single #
face $-1 $96 $97 $56 $-1 $98 reversed single #
face $-1 $99 $100 $57 $-1 $101 forward single #
face $-1 $102 $103 $58 $-1 $104 forward single #
face $-1 $105 $106 $59 $-1 $107 forward single #
face $-1 $108 $109 $60 $-1 $110 reversed single #
face $-1 $111 $112 $61 $-1 $113 forward single #
face $-1 $114 $115 $62 $-1 $116 forward single #
face $-1 $117 $118 $63 $-1 $119 forward single #
face $-1 $120 $121 $64 $-1 $122 reversed single #
face $-1 $123 $124 $65 $-1 $125 forward single #
face $-1 $126 $127 $66 $-1 $128 forward single #
face $-1 $129 $130 $67 $-1 $131 forward single #
face $-1 $132 $133 $68 $-1 $134 reversed single #
face $-1 $135 $136 $69 $-1 $137 forward single #
face $-1 $138 $139 $70 $-1 $140 forward single #
face $-1 $141 $142 $71 $-1 $143 forward single #
face $-1 $144 $145 $54 $-1 $146 reversed single #
loop $-1 $-1 $147 $72 #
plane-surface $-1 0 0 13.006404524732078 0 0 1 1 0 0 forward_v I I I I #
face $-1 $148 $149 $55 $-1 $150 reversed single #
loop $-1 $-1 $151 $73 #
plane-surface $-1 -62.839465679433452 -20.595388213720881 0 0 -1 0 0 0 -1 forward_v I I I I #
face $-1 $152 $153 $56 $-1 $154 reversed single #
loop $-1 $-1 $155 $74 #
plane-surface $-1 -153.90978174088218 -8.5832087276106677 105.87414686407453 0 1 0 -0.66913061440640931 0 0.74314481823134659 forward_v I I I I #
face $-1 $156 $157 $57 $-1 $158 forward single #
loop $-1 $159 $160 $75 #
cone-surface $-1 -61.820419742529317 -6.0568298037577897 9.141208021050435 0.66913061440640931 0 -0.74314481823134659 0.74314481823134659 0 0.66913061440640931 1 I I 0 1 1 forward I I I I #
face $-1 $161 $162 $58 $-1 $163 forward single #
loop $-1 $164 $165 $76 #
cone-surface $-1 -61.820419742529317 -2.2672614179784745 9.141208021050435 0.66913061440640931 0 -0.74314481823134659 0.74314481823134659 0 0.66913061440640931 1 I I 0 1 1 forward I I I I #
face $-1 $166 $167 $59 $-1 $168 forward single #
loop $-1 $169 $170 $77 #
cone-surface $-1 -61.820419742529317 1.5223069678008443 9.141208021050435 0.66913061440640931 0 -0.74314481823134659 0.74314481823134659 0 0.66913061440640931 1 I I 0 1 1 forward I I I I #
face $-1 $171 $172 $60 $-1 $173 reversed single #
loop $-1 $-1 $174 $78 #
plane-surface $-1 -153.90978174088218 18.188044440960596 105.87414686407453 0 1 0 -0.66913061440640931 0 0.74314481823134659 forward_v I I I I #
face $-1 $175 $176 $61 $-1 $177 forward single #
loop $-1 $178 $179 $79 #
cone-surface $-1 -61.820419742529317 20.71442336481347 9.141208021050435 0.66913061440640931 0 -0.74314481823134659 0.74314481823134659 0 0.66913061440640931 1 I I 0 1 1 forward I I I I #
face $-1 $180 $181 $62 $-1 $182 forward single #
loop $-1 $183 $184 $80 #
cone-surface $-1 -61.820419742529317 24.503991750592789 9.141208021050435 0.66913061440640931 0 -0.74314481823134659 0.74314481823134659 0 0.66913061440640931 1 I I 0 1 1 forward I I I I #
face $-1 $185 $186 $63 $-1 $187 forward single #
loop $-1 $188 $189 $81 #
cone-surface $-1 -61.820419742529317 28.293560136372108 9.141208021050435 0.66913061440640931 0 -0.74314481823134659 0.74314481823134659 0 0.66913061440640931 1 I I 0 1 1 forward I I I I #
face $-1 $190 $191 $64 $-1 $192 reversed single #
loop $-1 $-1 $193 $82 #
plane-surface $-1 98.151036945564726 6.1758649548503826 185.049876678484 0 -1 0 -0.81915205242281985 0 -0.57357642473473569 forward_v I I I I #
face $-1 $194 $195 $65 $-1 $196 forward single #
loop $-1 $197 $198 $83 #
cone-surface $-1 61.455952955892791 1.1955463029314259 7.0687311687012366 -0.81915205242281985 0 -0.57357642473473569 0.28678821236736785 0 -0.40957602621140993 1 I I 0 1 0.5 forward I I I I #
face $-1 $199 $200 $66 $-1 $201 forward single #
loop $-1 $202 $203 $84 #
cone-surface $-1 61.455952955892791 3.0631657974010338 7.0687311687012366 -0.81915205242281985 0 -0.57357642473473569 0.28678821236736785 0 -0.40957602621140993 1 I I 0 1 0.5 forward I I I I #
face $-1 $204 $205 $67 $-1 $206 forward single #
loop $-1 $207 $208 $85 #
cone-surface $-1 61.455952955892791 4.9307852918706416 7.0687311687012366 -0.81915205242281985 0 -0.57357642473473569 0.28678821236736785 0 -0.40957602621140993 1 I I 0 1 0.5 forward I I I I #
face $-1 $209 $210 $68 $-1 $211 reversed single #
loop $-1 $-1 $212 $86 #
plane-surface $-1 98.151036945564726 26.721719808522948 185.049876678484 0 1 0 0.81915205242281985 0 0.57357642473473569 forward_v I I I I #
face $-1 $213 $214 $69 $-1 $215 forward single #
loop $-1 $216 $217 $87 #
cone-surface $-1 61.455952955892791 27.966799471502689 7.0687311687012366 -0.81915205242281985 0 -0.57357642473473569 0.28678821236736785 0 -0.40957602621140993 1 I I 0 1 0.5 forward I I I I #
face $-1 $218 $219 $70 $-1 $220 forward single #
loop $-1 $221 $222 $88 #
cone-surface $-1 61.455952955892791 29.834418965972297 7.0687311687012366 -0.81915205242281985 0 -0.57357642473473569 0.28678821236736785 0 -0.40957602621140993 1 I I 0 1 0.5 forward I I I I #
face $-1 $223 $224 $71 $-1 $225 forward single #
loop $-1 $226 $227 $89 #
cone-surface $-1 61.455952955892791 31.702038460441898 7.0687311687012366 -0.81915205242281985 0 -0.57357642473473569 0.28678821236736785 0 -0.40957602621140993 1 I I 0 1 0.5 forward I I I I #
face $-1 $228 $229 $54 $-1 $230 reversed single #
loop $-1 $-1 $231 $90 #
plane-surface $-1 0 0 -13.006404524732078 0 0 1 1 0 0 forward_v I I I I #
coedge $-1 $232 $233 $234 $235 forward $91 $-1 #
face $-1 $236 $237 $55 $-1 $238 forward single #
loop $-1 $-1 $239 $93 #
plane-surface $-1 -59.856610121036155 -26.771253168571263 0 -1 0 0 0 0 1 forward_v I I I I #
coedge $-1 $240 $241 $242 $243 forward $94 $-1 #
face $-1 $244 $245 $56 $-1 $246 reversed single #
loop $-1 $-1 $247 $96 #
plane-surface $-1 -65.822321237830721 -2.2672614179784745 8.043112960368461 -0.66913061440640931 0 0.74314481823134659 0.74314481823134659 0 0.66913061440640931 forward_v I I I I #
coedge $-1 $248 $249 $250 $251 reversed $97 $-1 #
face $-1 $-1 $252 $57 $-1 $253 forward single #
loop $-1 $254 $255 $99 #
cone-surface $-1 -60.240099743067177 -6.0568298037577897 7.3860848904349279 0.66913061440640931 0 -0.74314481823134659 0.3715724091156733 0 0.33456530720320465 1 I I -0.70710678118654746 0.70710678118654746 0.5 forward I I I I #
loop $-1 $-1 $256 $75 #
coedge $-1 $160 $160 $257 $258 reversed $100 $-1 #
face $-1 $-1 $259 $58 $-1 $260 forward single #
loop $-1 $261 $262 $102 #
cone-surface $-1 -60.240099743067177 -2.2672614179784745 7.3860848904349279 0.66913061440640931 0 -0.74314481823134659 0.3715724091156733 0 0.33456530720320465 1 I I -0.70710678118654746 0.70710678118654746 0.5 forward I I I I #
loop $-1 $-1 $263 $76 #
coedge $-1 $165 $165 $264 $265 reversed $103 $-1 #
face $-1 $-1 $266 $59 $-1 $267 forward single #
loop $-1 $268 $269 $105 #
cone-surface $-1 -60.240099743067177 1.5223069678008443 7.3860848904349279 0.66913061440640931 0 -0.74314481823134659 0.3715724091156733 0 0.33456530720320465 1 I I -0.70710678118654746 0.70710678118654746 0.5 forward I I I I #
loop $-1 $-1 $270 $77 #
coedge $-1 $170 $170 $271 $272 reversed $106 $-1 #
face $-1 $273 $274 $60 $-1 $275 reversed single #
loop $-1 $-1 $276 $108 #
plane-surface $-1 -65.822321237830721 24.503991750592789 8.043112960368461 -0.66913061440640931 0 0.74314481823134659 0.74314481823134659 0 0.66913061440640931 forward_v I I I I #
coedge $-1 $277 $278 $279 $280 reversed $109 $-1 #
face $-1 $-1 $281 $61 $-1 $282 forward single #
loop $-1 $283 $284 $111 #
cone-surface $-1 -60.240099743067177 20.71442336481347 7.3860848904349279 0.66913061440640931 0 -0.74314481823134659 0.3715724091156733 0 0.33456530720320465 1 I I -0.70710678118654746 0.70710678118654746 0.5 forward I I I I #
loop $-1 $-1 $285 $79 #
coedge $-1 $179 $179 $286 $287 reversed $112 $-1 #
face $-1 $-1 $288 $62 $-1 $289 forward single #
loop $-1 $290 $291 $114 #
cone-surface $-1 -60.240099743067177 24.503991750592789 7.3860848904349279 0.66913061440640931 0 -0.74314481823134659 0.3715724091156733 0 0.33456530720320465 1 I I -0.70710678118654746 0.70710678118654746 0.5 forward I I I I #
loop $-1 $-1 $292 $80 #
coedge $-1 $184 $184 $293 $294 reversed $115 $-1 #
face $-1 $-1 $295 $63 $-1 $296 forward single #
loop $-1 $297 $298 $117 #
cone-surface $-1 -60.240099743067177 28.293560136372108 7.3860848904349279 0.66913061440640931 0 -0.74314481823134659 0.3715724091156733 0 0.33456530720320465 1 I I -0.70710678118654746 0.70710678118654746 0.5 forward I I I I #
loop $-1 $-1 $299 $81 #
coedge $-1 $189 $189 $300 $301 reversed $118 $-1 #
face $-1 $302 $303 $64 $-1 $304 reversed single #
loop $-1 $-1 $305 $120 #
plane-surface $-1 -9.6859421288417167 3.0631657974010338 109.54161331181155 0.81915205242281985 0 0.57357642473473569 0.57357642473473569 0 -0.81915205242281985 forward_v I I I I #
coedge $-1 $306 $307 $308 $309 reversed $121 $-1 #
face $-1 $-1 $310 $65 $-1 $311 forward single #
loop $-1 $312 $313 $123 #
cone-surface $-1 60.841588916575674 1.1955463029314259 6.638548850150185 -0.81915205242281985 0 -0.57357642473473569 0.14339410618368392 0 -0.20478801310570496 1 I I -0.70710678118654746 0.70710678118654746 0.25 forward I I I I #
loop $-1 $-1 $314 $83 #
coedge $-1 $198 $198 $315 $316 reversed $124 $-1 #
face $-1 $-1 $317 $66 $-1 $318 forward single #
loop $-1 $319 $320 $126 #
cone-surface $-1 60.841588916575674 3.0631657974010338 6.638548850150185 -0.81915205242281985 0 -0.57357642473473569 0.14339410618368392 0 -0.20478801310570496 1 I I -0.70710678118654746 0.70710678118654746 0.25 forward I I I I #
loop $-1 $-1 $321 $84 #
coedge $-1 $203 $203 $322 $323 reversed $127 $-1 #
face $-1 $-1 $324 $67 $-1 $325 forward single #
loop $-1 $326 $327 $129 #
cone-surface $-1 60.841588916575674 4.9307852918706416 6.638548850150185 -0.81915205242281985 0 -0.57357642473473569 0.14339410618368392 0 -0.20478801310570496 1 I I -0.70710678118654746 0.70710678118654746 0.25 forward I I I I #
loop $-1 $-1 $328 $85 #
coedge $-1 $208 $208 $329 $330 reversed $130 $-1 #
face $-1 $331 $332 $68 $-1 $333 reversed single #
loop $-1 $-1 $334 $132 #
plane-surface $-1 -9.6859421288417167 29.834418965972297 109.54161331181155 0.81915205242281985 0 0.57357642473473569 0.57357642473473569 0 -0.81915205242281985 forward_v I I I I #
coedge $-1 $335 $336 $337 $338 reversed $133 $-1 #
face $-1 $-1 $339 $69 $-1 $340 forward single #
loop $-1 $341 $342 $135 #
cone-surface $-1 60.841588916575674 27.966799471502689 6.638548850150185 -0.81915205242281985 0 -0.57357642473473569 0.14339410618368392 0 -0.20478801310570496 1 I I -0.70710678118654746 0.70710678118654746 0.25 forward I I I I #
loop $-1 $-1 $343 $87 #
coedge $-1 $217 $217 $344 $345 reversed $136 $-1 #
face $-1 $-1 $346 $70 $-1 $347 forward single #
loop $-1 $348 $349 $138 #
cone-surface $-1 60.841588916575674 29.834418965972297 6.638548850150185 -0.81915205242281985 0 -0.57357642473473569 0.14339410618368392 0 -0.20478801310570496 1 I I -0.70710678118654746 0.70710678118654746 0.25 forward I I I I #
loop $-1 $-1 $350 $88 #
coedge $-1 $222 $222 $351 $352 reversed $139 $-1 #
face $-1 $-1 $353 $71 $-1 $354 forward single #
loop $-1 $355 $356 $141 #
cone-surface $-1 60.841588916575674 31.702038460441898 6.638548850150185 -0.81915205242281985 0 -0.57357642473473569 0.14339410618368392 0 -0.20478801310570496 1 I I -0.70710678118654746 0.70710678118654746 0.25 forward I I I I #
loop $-1 $-1 $357 $89 #
coedge $-1 $227 $227 $358 $359 reversed $142 $-1 #
face $-1 $360 $361 $54 $-1 $362 reversed single #
loop $-1 $-1 $363 $144 #
plane-surface $-1 0 -32.947118123421646 0 0 1 0 0 0 1 forward_v I I I I #
coedge $-1 $364 $365 $366 $367 forward $145 $-1 #
coedge $-1 $368 $147 $369 $370 forward $91 $-1 #
coedge $-1 $147 $368 $371 $372 forward $91 $-1 #
coedge $-1 $373 $374 $147 $235 reversed $375 $-1 #
edge $-1 $376 -32.947118123421646 $377 32.947118123421646 $234 $378 forward 7 unknown #
face $-1 $379 $380 $55 $-1 $381 reversed single #
loop $-1 $-1 $382 $148 #
plane-surface $-1 0 0 13.006404524732078 0 0 1 1 0 0 forward_v I I I I #
coedge $-1 $383 $384 $385 $386 reversed $149 $-1 #
coedge $-1 $387 $151 $388 $389 reversed $94 $-1 #
coedge $-1 $151 $387 $390 $391 reversed $94 $-1 #
coedge $-1 $384 $383 $151 $243 reversed $149 $-1 #
edge $-1 $392 -13.006404524732078 $393 13.006404524732078 $242 $394 forward 7 unknown #
face $-1 $395 $396 $56 $-1 $397 reversed single #
loop $-1 $-1 $398 $152 #
plane-surface $-1 -153.90978174088218 4.0486858916537187 105.87414686407453 0 -1 0 0.66913061440640931 0 -0.74314481823134659 forward_v I I I I #
coedge $-1 $399 $400 $401 $402 reversed $153 $-1 #
coedge $-1 $249 $155 $403 $404 reversed $97 $-1 #
coedge $-1 $155 $248 $399 $405 reversed $97 $-1 #
coedge $-1 $401 $406 $155 $251 forward $407 $-1 #
edge $-1 $408 11.132569632610341 $409 16.644863238695365 $250 $410 forward 7 unknown #
loop $-1 $-1 $257 $156 #
plane-surface $-1 -65.822321237830721 -2.2672614179784745 8.043112960368461 -0.66913061440640931 0 0.74314481823134659 0.74314481823134659 0 0.66913061440640931 forward_v I I I I #
loop $-1 $-1 $411 $99 #
coedge $-1 $255 $255 $256 $412 reversed $157 $-1 #
coedge $-1 $256 $256 $255 $412 forward $159 $-1 #
coedge $-1 $257 $257 $160 $258 forward $252 $-1 #
edge $-1 $413 0 $413 6.2831853071796004 $257 $414 forward 7 unknown #
loop $-1 $-1 $264 $161 #
plane-surface $-1 -65.822321237830721 -2.2672614179784745 8.043112960368461 -0.66913061440640931 0 0.74314481823134659 0.74314481823134659 0 0.66913061440640931 forward_v I I I I #
loop $-1 $-1 $415 $102 #
coedge $-1 $262 $262 $263 $416 reversed $162 $-1 #
coedge $-1 $263 $263 $262 $416 forward $164 $-1 #
coedge $-1 $264 $264 $165 $265 forward $259 $-1 #
edge $-1 $417 0 $417 6.2831853071796004 $264 $418 forward 7 unknown #
loop $-1 $-1 $271 $166 #
plane-surface $-1 -65.822321237830721 -2.2672614179784745 8.043112960368461 -0.66913061440640931 0 0.74314481823134659 0.74314481823134659 0 0.66913061440640931 forward_v I I I I #
loop $-1 $-1 $419 $105 #
coedge $-1 $269 $269 $270 $420 reversed $167 $-1 #
coedge $-1 $270 $270 $269 $420 forward $169 $-1 #
coedge $-1 $271 $271 $170 $272 forward $266 $-1 #
edge $-1 $421 0 $421 6.2831853071796004 $271 $422 forward 7 unknown #
face $-1 $423 $424 $60 $-1 $425 forward single #
loop $-1 $-1 $426 $171 #
plane-surface $-1 -153.90978174088218 30.819939060224982 105.87414686407453 0 -1 0 0.66913061440640931 0 -0.74314481823134659 forward_v I I I I #
coedge $-1 $427 $428 $429 $430 reversed $172 $-1 #
coedge $-1 $278 $174 $431 $432 reversed $109 $-1 #
coedge $-1 $174 $277 $427 $433 reversed $109 $-1 #
coedge $-1 $429 $434 $174 $280 forward $424 $-1 #
edge $-1 $435 11.132569632610341 $436 16.644863238695365 $279 $437 forward 7 unknown #
loop $-1 $-1 $286 $175 #
plane-surface $-1 -65.822321237830721 24.503991750592789 8.043112960368461 -0.66913061440640931 0 0.74314481823134659 0.74314481823134659 0 0.66913061440640931 forward_v I I I I #
loop $-1 $-1 $438 $111 #
coedge $-1 $284 $284 $285 $439 reversed $176 $-1 #
coedge $-1 $285 $285 $284 $439 forward $178 $-1 #
coedge $-1 $286 $286 $179 $287 forward $281 $-1 #
edge $-1 $440 0 $440 6.2831853071796004 $286 $441 forward 7 unknown #
loop $-1 $-1 $293 $180 #
plane-surface $-1 -65.822321237830721 24.503991750592789 8.043112960368461 -0.66913061440640931 0 0.74314481823134659 0.74314481823134659 0 0.66913061440640931 forward_v I I I I #
loop $-1 $-1 $442 $114 #
coedge $-1 $291 $291 $292 $443 reversed $181 $-1 #
coedge $-1 $292 $292 $291 $443 forward $183 $-1 #
coedge $-1 $293 $293 $184 $294 forward $288 $-1 #
edge $-1 $444 0 $444 6.2831853071796004 $293 $445 forward 7 unknown #
loop $-1 $-1 $300 $185 #
plane-surface $-1 -65.822321237830721 24.503991750592789 8.043112960368461 -0.66913061440640931 0 0.74314481823134659 0.74314481823134659 0 0.66913061440640931 forward_v I I I I #
loop $-1 $-1 $446 $117 #
coedge $-1 $298 $298 $299 $447 reversed $186 $-1 #
coedge $-1 $299 $299 $298 $447 forward $188 $-1 #
coedge $-1 $300 $300 $189 $301 forward $295 $-1 #
edge $-1 $448 0 $448 6.2831853071796004 $300 $449 forward 7 unknown #
face $-1 $450 $451 $64 $-1 $452 forward single #
loop $-1 $-1 $453 $190 #
plane-surface $-1 98.151036945564726 -0.049533360048314989 185.049876678484 0 1 0 0.81915205242281985 0 0.57357642473473569 forward_v I I I I #
coedge $-1 $454 $455 $456 $457 reversed $191 $-1 #
coedge $-1 $307 $193 $458 $459 reversed $121 $-1 #
coedge $-1 $193 $306 $454 $460 reversed $121 $-1 #
coedge $-1 $456 $461 $193 $309 forward $451 $-1 #
edge $-1 $462 -16.746802765048386 $463 -8.8332182535952342 $308 $464 forward 7 unknown #
loop $-1 $-1 $315 $194 #
plane-surface $-1 -9.6859421288417167 3.0631657974010338 109.54161331181155 0.81915205242281985 0 0.57357642473473569 0.57357642473473569 0 -0.81915205242281985 forward_v I I I I #
loop $-1 $-1 $465 $123 #
coedge $-1 $313 $313 $314 $466 reversed $195 $-1 #
coedge $-1 $314 $314 $313 $466 forward $197 $-1 #
coedge $-1 $315 $315 $198 $316 forward $310 $-1 #
edge $-1 $467 0 $467 6.2831853071796004 $315 $468 forward 7 unknown #
loop $-1 $-1 $322 $199 #
plane-surface $-1 -9.6859421288417167 3.0631657974010338 109.54161331181155 0.81915205242281985 0 0.57357642473473569 0.57357642473473569 0 -0.81915205242281985 forward_v I I I I #
loop $-1 $-1 $469 $126 #
coedge $-1 $320 $320 $321 $470 reversed $200 $-1 #
coedge $-1 $321 $321 $320 $470 forward $202 $-1 #
coedge $-1 $322 $322 $203 $323 forward $317 $-1 #
edge $-1 $471 0 $471 6.2831853071796004 $322 $472 forward 7 unknown #
loop $-1 $-1 $329 $204 #
plane-surface $-1 -9.6859421288417167 3.0631657974010338 109.54161331181155 0.81915205242281985 0 0.57357642473473569 0.57357642473473569 0 -0.81915205242281985 forward_v I I I I #
loop $-1 $-1 $473 $129 #
coedge $-1 $327 $327 $328 $474 reversed $205 $-1 #
coedge $-1 $328 $328 $327 $474 forward $207 $-1 #
coedge $-1 $329 $329 $208 $330 forward $324 $-1 #
edge $-1 $475 0 $475 6.2831853071796004 $329 $476 forward 7 unknown #
face $-1 $477 $478 $68 $-1 $479 forward single #
loop $-1 $-1 $337 $209 #
plane-surface $-1 65.822321237830749 0 0 -1 0 0 0 0 1 forward_v I I I I #
coedge $-1 $480 $481 $482 $483 reversed $210 $-1 #
coedge $-1 $336 $212 $484 $485 reversed $133 $-1 #
coedge $-1 $212 $335 $480 $486 reversed $133 $-1 #
coedge $-1 $482 $487 $212 $338 forward $332 $-1 #
edge $-1 $488 79.518533814509922 $489 90.820304101836925 $337 $490 forward 7 unknown #
loop $-1 $-1 $344 $213 #
plane-surface $-1 -9.6859421288417167 29.834418965972297 109.54161331181155 0.81915205242281985 0 0.57357642473473569 0.57357642473473569 0 -0.81915205242281985 forward_v I I I I #
loop $-1 $-1 $491 $135 #
coedge $-1 $342 $342 $343 $492 reversed $214 $-1 #
coedge $-1 $343 $343 $342 $492 forward $216 $-1 #
coedge $-1 $344 $344 $217 $345 forward $339 $-1 #
edge $-1 $493 0 $493 6.2831853071796004 $344 $494 forward 7 unknown #
loop $-1 $-1 $351 $218 #
plane-surface $-1 -9.6859421288417167 29.834418965972297 109.54161331181155 0.81915205242281985 0 0.57357642473473569 0.57357642473473569 0 -0.81915205242281985 forward_v I I I I #
loop $-1 $-1 $495 $138 #
coedge $-1 $349 $349 $350 $496 reversed $219 $-1 #
coedge $-1 $350 $350 $349 $496 forward $221 $-1 #
coedge $-1 $351 $351 $222 $352 forward $346 $-1 #
edge $-1 $497 0 $497 6.2831853071796004 $351 $498 forward 7 unknown #
loop $-1 $-1 $358 $223 #
plane-surface $-1 -9.6859421288417167 29.834418965972297 109.54161331181155 0.81915205242281985 0 0.57357642473473569 0.57357642473473569 0 -0.81915205242281985 forward_v I I I I #
loop $-1 $-1 $499 $141 #
coedge $-1 $356 $356 $357 $500 reversed $224 $-1 #
coedge $-1 $357 $357 $356 $500 forward $226 $-1 #
coedge $-1 $358 $358 $227 $359 forward $353 $-1 #
edge $-1 $501 0 $501 6.2831853071796004 $358 $502 forward 7 unknown #
face $-1 $503 $504 $54 $-1 $505 reversed single #
loop $-1 $-1 $506 $228 #
plane-surface $-1 -65.822321237830749 0 0 1 0 0 0 0 -1 forward_v I I I I #
coedge $-1 $507 $371 $508 $509 forward $229 $-1 #
coedge $-1 $510 $231 $507 $511 forward $145 $-1 #
coedge $-1 $231 $510 $512 $513 forward $145 $-1 #
coedge $-1 $374 $373 $231 $367 reversed $375 $-1 #
edge $-1 $514 -32.947118123421646 $515 32.947118123421646 $366 $516 forward 7 unknown #
coedge $-1 $233 $232 $517 $518 forward $91 $-1 #
coedge $-1 $519 $520 $232 $370 reversed $504 $-1 #
edge $-1 $377 -65.822321237830749 $521 65.822321237830749 $369 $522 forward 7 unknown #
coedge $-1 $363 $523 $233 $372 reversed $229 $-1 #
edge $-1 $524 -65.822321237830749 $376 65.822321237830749 $371 $525 forward 7 unknown #
coedge $-1 $366 $234 $523 $526 forward $375 $-1 #
coedge $-1 $234 $366 $519 $527 reversed $375 $-1 #
loop $-1 $-1 $373 $503 #
vertex $-1 $235 $528 #
vertex $-1 $235 $529 #
straight-curve $-1 65.822321237830749 0 13.006404524732078 0 1 0 I I #
face $-1 $530 $531 $55 $-1 $532 reversed single #
loop $-1 $-1 $533 $236 #
plane-surface $-1 -65.822321237830749 0 0 1 0 0 0 0 -1 forward_v I I I I #
coedge $-1 $390 $534 $384 $535 forward $237 $-1 #
coedge $-1 $242 $239 $536 $537 reversed $149 $-1 #
coedge $-1 $239 $242 $382 $535 reversed $149 $-1 #
coedge $-1 $538 $539 $239 $386 forward $540 $-1 #
edge $-1 $541 -13.006404524732078 $542 13.006404524732078 $385 $543 forward 7 unknown #
coedge $-1 $241 $240 $533 $544 reversed $94 $-1 #
coedge $-1 $536 $545 $240 $389 forward $531 $-1 #
edge $-1 $546 -34.40258839811402 $393 -28.436877281319429 $388 $547 forward 7 unknown #
coedge $-1 $548 $382 $241 $391 forward $237 $-1 #
edge $-1 $392 28.436877281319429 $549 34.40258839811402 $390 $550 forward 7 unknown #
vertex $-1 $391 $551 #
vertex $-1 $389 $552 #
straight-curve $-1 -59.856610121036155 -20.595388213720881 0 0 0 -1 I I #
face $-1 $-1 $407 $56 $-1 $553 forward single #
loop $-1 $-1 $554 $244 #
plane-surface $-1 -65.822321237830749 0 0 1 0 0 0 0 -1 forward_v I I I I #
coedge $-1 $555 $556 $557 $558 reversed $245 $-1 #
coedge $-1 $559 $247 $249 $405 forward $153 $-1 #
coedge $-1 $247 $559 $555 $560 forward $153 $-1 #
coedge $-1 $557 $250 $247 $402 forward $407 $-1 #
edge $-1 $409 -7.4495780186214304 $561 5.182316600642956 $401 $562 forward 7 unknown #
coedge $-1 $563 $564 $248 $404 forward $396 $-1 #
edge $-1 $565 -44.893960471668834 $408 -39.93066890730519 $403 $566 forward 7 unknown #
edge $-1 $409 -7.4175227638726229 $565 3.7762052495422576e-014 $249 $567 forward 7 unknown #
coedge $-1 $250 $557 $563 $568 forward $407 $-1 #
loop $-1 $-1 $557 $395 #
vertex $-1 $404 $569 #
vertex $-1 $251 $570 #
straight-curve $-1 -76.954890870441091 -8.5832087276106677 13.006404524732076 1 0 0 I I #
coedge $-1 $411 $411 $-1 $571 reversed $254 $-1 #
edge $-1 $572 0 $572 6.2831853071796004 $255 $573 forward 7 unknown #
vertex $-1 $258 $574 #
ellipse-curve $-1 -63.066174434788238 -6.0568298037577897 10.524758742550253 -0.66913061440640931 0 0.74314481823134659 0.74314481823134659 0 0.66913061440640931 1 I I #
coedge $-1 $415 $415 $-1 $575 reversed $261 $-1 #
edge $-1 $576 0 $576 6.2831853071796004 $262 $577 forward 7 unknown #
vertex $-1 $265 $578 #
ellipse-curve $-1 -63.066174434788238 -2.2672614179784745 10.524758742550253 -0.66913061440640931 0 0.74314481823134659 0.74314481823134659 0 0.66913061440640931 1 I I #
coedge $-1 $419 $419 $-1 $579 reversed $268 $-1 #
edge $-1 $580 0 $580 6.2831853071796004 $269 $581 forward 7 unknown #
vertex $-1 $272 $582 #
ellipse-curve $-1 -63.066174434788238 1.5223069678008443 10.524758742550253 -0.66913061440640931 0 0.74314481823134659 0.74314481823134659 0 0.66913061440640931 1 I I #
face $-1 $-1 $583 $60 $-1 $584 reversed single #
loop $-1 $-1 $279 $273 #
plane-surface $-1 0 0 13.006404524732078 0 0 1 1 0 0 forward_v I I I I #
coedge $-1 $585 $586 $587 $588 reversed $274 $-1 #
coedge $-1 $589 $276 $278 $433 forward $172 $-1 #
coedge $-1 $276 $589 $585 $590 forward $172 $-1 #
coedge $-1 $587 $279 $276 $430 forward $424 $-1 #
edge $-1 $436 5.9360485656642012 $591 18.567943184928588 $429 $592 forward 7 unknown #
coedge $-1 $593 $594 $277 $432 forward $583 $-1 #
edge $-1 $595 -44.893960471668834 $435 -39.93066890730519 $431 $596 forward 7 unknown #
edge $-1 $436 -7.4175227638726229 $595 3.7762052495422576e-014 $278 $597 forward 7 unknown #
coedge $-1 $279 $587 $593 $598 forward $424 $-1 #
vertex $-1 $432 $599 #
vertex $-1 $280 $600 #
straight-curve $-1 -76.954890870441091 18.188044440960596 13.006404524732076 1 0 0 I I #
coedge $-1 $438 $438 $-1 $601 reversed $283 $-1 #
edge $-1 $602 0 $602 6.2831853071796004 $284 $603 forward 7 unknown #
vertex $-1 $287 $604 #
ellipse-curve $-1 -63.066174434788238 20.71442336481347 10.524758742550253 -0.66913061440640931 0 0.74314481823134659 0.74314481823134659 0 0.66913061440640931 1 I I #
coedge $-1 $442 $442 $-1 $605 reversed $290 $-1 #
edge $-1 $606 0 $606 6.2831853071796004 $291 $607 forward 7 unknown #
vertex $-1 $294 $608 #
ellipse-curve $-1 -63.066174434788238 24.503991750592789 10.524758742550253 -0.66913061440640931 0 0.74314481823134659 0.74314481823134659 0 0.66913061440640931 1 I I #
coedge $-1 $446 $446 $-1 $609 reversed $297 $-1 #
edge $-1 $610 0 $610 6.2831853071796004 $298 $611 forward 7 unknown #
vertex $-1 $301 $612 #
ellipse-curve $-1 -63.066174434788238 28.293560136372108 10.524758742550253 -0.66913061440640931 0 0.74314481823134659 0.74314481823134659 0 0.66913061440640931 1 I I #
face $-1 $-1 $613 $64 $-1 $614 reversed single #
loop $-1 $-1 $308 $302 #
plane-surface $-1 0 0 13.006404524732078 0 0 1 1 0 0 forward_v I I I I #
coedge $-1 $615 $616 $617 $618 reversed $303 $-1 #
coedge $-1 $619 $305 $307 $460 forward $191 $-1 #
coedge $-1 $305 $619 $615 $620 forward $191 $-1 #
coedge $-1 $617 $308 $305 $457 forward $451 $-1 #
edge $-1 $463 -4.6442820561498657 $621 1.5811162587488319 $456 $622 forward 7 unknown #
coedge $-1 $623 $624 $306 $459 forward $613 $-1 #
edge $-1 $625 -90.820304101836925 $462 -79.518533814509922 $458 $626 forward 7 unknown #
edge $-1 $463 117.84772863787092 $625 131.64464247566156 $307 $627 forward 7 unknown #
coedge $-1 $308 $617 $623 $628 forward $451 $-1 #
vertex $-1 $309 $629 #
vertex $-1 $309 $630 #
straight-curve $-1 49.075518472782363 6.1758649548503826 13.006404524732076 -1 0 0 I I #
coedge $-1 $465 $465 $-1 $631 reversed $312 $-1 #
edge $-1 $632 0 $632 6.2831853071796004 $313 $633 forward 7 unknown #
vertex $-1 $316 $634 #
ellipse-curve $-1 61.86552898210418 1.1955463029314259 7.3555193810685884 0.81915205242281985 0 0.57357642473473569 0.28678821236736785 0 -0.40957602621140993 1 I I #
coedge $-1 $469 $469 $-1 $635 reversed $319 $-1 #
edge $-1 $636 0 $636 6.2831853071796004 $320 $637 forward 7 unknown #
vertex $-1 $323 $638 #
ellipse-curve $-1 61.86552898210418 3.0631657974010338 7.3555193810685884 0.81915205242281985 0 0.57357642473473569 0.28678821236736785 0 -0.40957602621140993 1 I I #
coedge $-1 $473 $473 $-1 $639 reversed $326 $-1 #
edge $-1 $640 0 $640 6.2831853071796004 $327 $641 forward 7 unknown #
vertex $-1 $330 $642 #
ellipse-curve $-1 61.86552898210418 4.9307852918706416 7.3555193810685884 0.81915205242281985 0 0.57357642473473569 0.28678821236736785 0 -0.40957602621140993 1 I I #
face $-1 $-1 $643 $68 $-1 $644 reversed single #
loop $-1 $-1 $484 $331 #
plane-surface $-1 0 0 13.006404524732078 0 0 1 1 0 0 forward_v I I I I #
coedge $-1 $645 $334 $336 $486 forward $210 $-1 #
coedge $-1 $334 $645 $646 $647 reversed $210 $-1 #
coedge $-1 $648 $337 $334 $483 forward $332 $-1 #
edge $-1 $489 11.8045103255368 $649 18.029908640435497 $482 $650 forward 7 unknown #
coedge $-1 $651 $652 $335 $485 forward $478 $-1 #
edge $-1 $653 8.8332182535952342 $488 16.746802765048386 $484 $654 forward 7 unknown #
edge $-1 $489 -131.64464247566156 $653 -117.84772863787092 $336 $655 forward 7 unknown #
coedge $-1 $337 $648 $651 $656 reversed $332 $-1 #
vertex $-1 $656 $657 #
vertex $-1 $338 $658 #
straight-curve $-1 65.822321237830749 26.721719808522948 92.524938339241999 0 0 -1 I I #
coedge $-1 $491 $491 $-1 $659 reversed $341 $-1 #
edge $-1 $660 0 $660 6.2831853071796004 $342 $661 forward 7 unknown #
vertex $-1 $345 $662 #
ellipse-curve $-1 61.86552898210418 27.966799471502689 7.3555193810685884 0.81915205242281985 0 0.57357642473473569 0.28678821236736785 0 -0.40957602621140993 1 I I #
coedge $-1 $495 $495 $-1 $663 reversed $348 $-1 #
edge $-1 $664 0 $664 6.2831853071796004 $349 $665 forward 7 unknown #
vertex $-1 $352 $666 #
ellipse-curve $-1 61.86552898210418 29.834418965972297 7.3555193810685884 0.81915205242281985 0 0.57357642473473569 0.28678821236736785 0 -0.40957602621140993 1 I I #
coedge $-1 $499 $499 $-1 $667 reversed $355 $-1 #
edge $-1 $668 0 $668 6.2831853071796004 $356 $669 forward 7 unknown #
vertex $-1 $359 $670 #
ellipse-curve $-1 61.86552898210418 31.702038460441898 7.3555193810685884 0.81915205242281985 0 0.57357642473473569 0.28678821236736785 0 -0.40957602621140993 1 I I #
face $-1 $-1 $375 $54 $-1 $671 reversed single #
loop $-1 $-1 $519 $360 #
plane-surface $-1 0 32.947118123421646 0 0 -1 0 0 0 -1 forward_v I I I I #
coedge $-1 $672 $517 $520 $673 forward $361 $-1 #
coedge $-1 $523 $363 $364 $511 reversed $229 $-1 #
coedge $-1 $517 $672 $363 $509 reversed $361 $-1 #
edge $-1 $524 -13.006404524732078 $674 13.006404524732078 $508 $675 forward 7 unknown #
coedge $-1 $365 $364 $672 $676 forward $145 $-1 #
edge $-1 $515 -65.822321237830749 $674 65.822321237830749 $507 $677 forward 7 unknown #
coedge $-1 $520 $519 $365 $513 reversed $504 $-1 #
edge $-1 $678 -65.822321237830749 $514 65.822321237830749 $512 $679 forward 7 unknown #
vertex $-1 $367 $680 #
vertex $-1 $526 $681 #
straight-curve $-1 65.822321237830749 0 -13.006404524732078 0 -1 0 I I #
coedge $-1 $506 $508 $368 $518 reversed $361 $-1 #
edge $-1 $521 -32.947118123421646 $524 32.947118123421646 $517 $682 forward 7 unknown #
coedge $-1 $512 $369 $374 $527 forward $504 $-1 #
coedge $-1 $369 $512 $506 $673 reversed $504 $-1 #
vertex $-1 $370 $683 #
straight-curve $-1 0 32.947118123421646 13.006404524732078 -1 0 0 I I #
coedge $-1 $371 $507 $373 $526 reversed $229 $-1 #
vertex $-1 $518 $684 #
straight-curve $-1 0 -32.947118123421646 13.006404524732078 1 0 0 I I #
edge $-1 $376 -13.006404524732078 $515 13.006404524732078 $373 $685 forward 7 unknown #
edge $-1 $377 -13.006404524732078 $514 13.006404524732078 $374 $686 forward 7 unknown #
point $-1 65.822321237830749 -32.947118123421646 13.006404524732078 #
point $-1 65.822321237830749 32.947118123421646 13.006404524732078 #
face $-1 $-1 $540 $55 $-1 $687 reversed single #
loop $-1 $-1 $536 $379 #
plane-surface $-1 0 0 -13.006404524732078 0 0 1 1 0 0 forward_v I I I I #
coedge $-1 $688 $689 $387 $544 forward $380 $-1 #
coedge $-1 $382 $548 $538 $690 forward $237 $-1 #
edge $-1 $542 -19.561491539136014 $392 -7.2097616294352491 $382 $691 forward 7 unknown #
coedge $-1 $692 $388 $383 $537 forward $531 $-1 #
edge $-1 $393 7.2097616294352491 $541 19.561491539136014 $536 $693 forward 7 unknown #
coedge $-1 $694 $385 $534 $690 reversed $540 $-1 #
coedge $-1 $385 $694 $692 $695 reversed $540 $-1 #
loop $-1 $-1 $385 $530 #
vertex $-1 $695 $696 #
vertex $-1 $386 $697 #
straight-curve $-1 -59.856610121036155 -32.947118123421646 0 0 0 1 I I #
edge $-1 $549 -13.006404524732078 $546 13.006404524732078 $533 $698 forward 7 unknown #
coedge $-1 $388 $692 $688 $699 forward $531 $-1 #
vertex $-1 $389 $700 #
straight-curve $-1 -31.419732839716726 -20.595388213720881 -13.006404524732078 1 0 0 I I #
coedge $-1 $534 $390 $689 $701 forward $237 $-1 #
vertex $-1 $701 $702 #
straight-curve $-1 -31.419732839716726 -20.595388213720881 13.006404524732078 -1 0 0 I I #
point $-1 -59.856610121036155 -20.595388213720881 13.006404524732078 #
point $-1 -59.856610121036155 -20.595388213720881 -13.006404524732078 #
plane-surface $-1 0 0 13.006404524732078 0 0 1 1 0 0 forward_v I I I I #
coedge $-1 $564 $563 $556 $703 forward $396 $-1 #
coedge $-1 $556 $398 $400 $560 reversed $245 $-1 #
coedge $-1 $398 $555 $554 $703 reversed $245 $-1 #
coedge $-1 $406 $401 $398 $558 forward $407 $-1 #
edge $-1 $561 -16.644863238695365 $704 -11.132569632610341 $557 $705 forward 7 unknown #
coedge $-1 $400 $399 $564 $706 reversed $153 $-1 #
edge $-1 $707 -3.7762052495422576e-014 $561 7.4175227638726229 $555 $708 forward 7 unknown #
vertex $-1 $402 $709 #
straight-curve $-1 -60.310027631745719 -1.1336307089892372 13.006404524732078 0 1 0 I I #
coedge $-1 $554 $403 $406 $568 reversed $396 $-1 #
coedge $-1 $403 $554 $559 $706 forward $396 $-1 #
vertex $-1 $404 $710 #
straight-curve $-1 -65.822321237830749 -8.5832087276106677 52.937073432037266 0 0 1 I I #
straight-curve $-1 -65.822321237830721 -8.5832087276106677 8.043112960368461 -0.74314481823134659 0 -0.66913061440640931 I I #
edge $-1 $704 -4.0486858916537187 $408 8.5832087276106677 $563 $711 forward 7 unknown #
point $-1 -65.822321237830749 -8.5832087276106677 13.006404524732078 #
point $-1 -60.310027631745726 -8.5832087276106677 13.006404524732078 #
edge $-1 $712 1 $712 0 $411 $-1 forward 7 unknown #
vertex $-1 $412 $713 #
ellipse-curve $-1 -60.574665050270383 -6.0568298037577897 7.7576572995506012 -0.66913061440640931 0 0.74314481823134659 0.74314481823134659 0 0.66913061440640931 1 I I #
point $-1 -62.323029616556909 -6.0568298037577897 11.19388935695668 #
edge $-1 $714 1 $714 0 $415 $-1 forward 7 unknown #
vertex $-1 $416 $715 #
ellipse-curve $-1 -60.574665050270383 -2.2672614179784745 7.7576572995506012 -0.66913061440640931 0 0.74314481823134659 0.74314481823134659 0 0.66913061440640931 1 I I #
point $-1 -62.323029616556909 -2.2672614179784745 11.19388935695668 #
edge $-1 $716 1 $716 0 $419 $-1 forward 7 unknown #
vertex $-1 $420 $717 #
ellipse-curve $-1 -60.574665050270383 1.5223069678008443 7.7576572995506012 -0.66913061440640931 0 0.74314481823134659 0.74314481823134659 0 0.66913061440640931 1 I I #
point $-1 -62.323029616556909 1.5223069678008443 11.19388935695668 #
loop $-1 $-1 $431 $423 #
plane-surface $-1 -65.822321237830749 0 0 1 0 0 0 0 -1 forward_v I I I I #
coedge $-1 $586 $426 $428 $590 reversed $274 $-1 #
coedge $-1 $426 $585 $718 $719 reversed $274 $-1 #
coedge $-1 $434 $429 $426 $588 forward $424 $-1 #
edge $-1 $591 -16.644863238695365 $720 -11.132569632610341 $587 $721 forward 7 unknown #
coedge $-1 $428 $427 $594 $722 reversed $172 $-1 #
edge $-1 $723 -3.7762052495422576e-014 $591 7.4175227638726229 $585 $724 forward 7 unknown #
vertex $-1 $430 $725 #
straight-curve $-1 -60.310027631745719 12.251995875296394 13.006404524732078 0 1 0 I I #
coedge $-1 $718 $431 $434 $598 reversed $583 $-1 #
coedge $-1 $431 $718 $589 $722 forward $583 $-1 #
vertex $-1 $432 $726 #
straight-curve $-1 -65.822321237830749 18.188044440960596 52.937073432037266 0 0 1 I I #
straight-curve $-1 -65.822321237830721 18.188044440960596 8.043112960368461 -0.74314481823134659 0 -0.66913061440640931 I I #
edge $-1 $720 -30.819939060224982 $435 -18.188044440960596 $593 $727 forward 7 unknown #
point $-1 -65.822321237830749 18.188044440960596 13.006404524732078 #
point $-1 -60.310027631745726 18.188044440960596 13.006404524732078 #
edge $-1 $728 1 $728 0 $438 $-1 forward 7 unknown #
vertex $-1 $439 $729 #
ellipse-curve $-1 -60.574665050270383 20.71442336481347 7.7576572995506012 -0.66913061440640931 0 0.74314481823134659 0.74314481823134659 0 0.66913061440640931 1 I I #
point $-1 -62.323029616556909 20.71442336481347 11.19388935695668 #
edge $-1 $730 1 $730 0 $442 $-1 forward 7 unknown #
vertex $-1 $443 $731 #
ellipse-curve $-1 -60.574665050270383 24.503991750592789 7.7576572995506012 -0.66913061440640931 0 0.74314481823134659 0.74314481823134659 0 0.66913061440640931 1 I I #
point $-1 -62.323029616556909 24.503991750592789 11.19388935695668 #
edge $-1 $732 1 $732 0 $446 $-1 forward 7 unknown #
vertex $-1 $447 $733 #
ellipse-curve $-1 -60.574665050270383 28.293560136372108 7.7576572995506012 -0.66913061440640931 0 0.74314481823134659 0.74314481823134659 0 0.66913061440640931 1 I I #
point $-1 -62.323029616556909 28.293560136372108 11.19388935695668 #
loop $-1 $-1 $458 $450 #
plane-surface $-1 65.822321237830749 0 0 -1 0 0 0 0 1 forward_v I I I I #
coedge $-1 $616 $453 $455 $620 reversed $303 $-1 #
coedge $-1 $453 $615 $734 $735 reversed $303 $-1 #
coedge $-1 $461 $456 $453 $618 forward $451 $-1 #
edge $-1 $621 8.8332182535952342 $736 16.746802765048386 $617 $737 forward 7 unknown #
coedge $-1 $455 $454 $624 $738 reversed $191 $-1 #
edge $-1 $739 -131.64464247566156 $621 -117.84772863787092 $615 $740 forward 7 unknown #
vertex $-1 $457 $741 #
straight-curve $-1 57.90873672637759 1.5315828987005169 13.006404524732076 0 -1 0 I I #
coedge $-1 $734 $458 $461 $628 reversed $613 $-1 #
coedge $-1 $458 $734 $619 $738 forward $613 $-1 #
vertex $-1 $459 $742 #
straight-curve $-1 65.822321237830749 6.1758649548503826 92.524938339241999 0 0 1 I I #
straight-curve $-1 -9.6859421288417167 6.1758649548503826 109.54161331181155 0.57357642473473569 0 -0.81915205242281985 I I #
edge $-1 $736 -0.049533360048314989 $462 6.1758649548503826 $623 $743 forward 7 unknown #
point $-1 65.822321237830749 6.1758649548503826 13.006404524732078 #
point $-1 57.908736726377597 6.1758649548503826 13.006404524732076 #
edge $-1 $744 1 $744 0 $465 $-1 forward 7 unknown #
vertex $-1 $466 $745 #
ellipse-curve $-1 61.046376929681379 1.1955463029314259 6.7819429563338689 0.81915205242281985 0 0.57357642473473569 0.28678821236736785 0 -0.40957602621140993 1 I I #
point $-1 62.152317194471564 1.1955463029314259 6.9459433548571949 #
edge $-1 $746 1 $746 0 $469 $-1 forward 7 unknown #
vertex $-1 $470 $747 #
ellipse-curve $-1 61.046376929681379 3.0631657974010338 6.7819429563338689 0.81915205242281985 0 0.57357642473473569 0.28678821236736785 0 -0.40957602621140993 1 I I #
point $-1 62.152317194471564 3.0631657974010338 6.9459433548571949 #
edge $-1 $748 1 $748 0 $473 $-1 forward 7 unknown #
vertex $-1 $474 $749 #
ellipse-curve $-1 61.046376929681379 4.9307852918706416 6.7819429563338689 0.81915205242281985 0 0.57357642473473569 0.28678821236736785 0 -0.40957602621140993 1 I I #
point $-1 62.152317194471564 4.9307852918706416 6.9459433548571949 #
loop $-1 $-1 $646 $477 #
plane-surface $-1 0 32.947118123421646 0 0 -1 0 0 0 -1 forward_v I I I I #
coedge $-1 $481 $480 $652 $750 reversed $210 $-1 #
coedge $-1 $751 $752 $481 $647 forward $643 $-1 #
edge $-1 $649 -84.001209762398588 $753 -70.204295924607962 $646 $754 forward 7 unknown #
coedge $-1 $487 $482 $752 $755 reversed $332 $-1 #
vertex $-1 $483 $756 #
straight-curve $-1 65.822321237830749 14.917209482986149 1.7046342374050596 0 1 0 I I #
coedge $-1 $757 $484 $487 $656 forward $478 $-1 #
coedge $-1 $484 $757 $645 $750 forward $478 $-1 #
vertex $-1 $485 $758 #
straight-curve $-1 49.075518472782363 26.721719808522948 13.006404524732076 1 0 0 I I #
straight-curve $-1 -9.6859421288417167 26.721719808522948 109.54161331181155 -0.57357642473473569 0 0.81915205242281985 I I #
edge $-1 $488 26.721719808522948 $759 32.947118123421646 $487 $760 forward 7 unknown #
point $-1 65.822321237830749 26.721719808522948 13.006404524732078 #
point $-1 65.822321237830749 26.721719808522948 1.7046342374050738 #
edge $-1 $761 1 $761 0 $491 $-1 forward 7 unknown #
vertex $-1 $492 $762 #
ellipse-curve $-1 61.046376929681379 27.966799471502689 6.7819429563338689 0.81915205242281985 0 0.57357642473473569 0.28678821236736785 0 -0.40957602621140993 1 I I #
point $-1 62.152317194471564 27.966799471502689 6.9459433548571949 #
edge $-1 $763 1 $763 0 $495 $-1 forward 7 unknown #
vertex $-1 $496 $764 #
ellipse-curve $-1 61.046376929681379 29.834418965972297 6.7819429563338689 0.81915205242281985 0 0.57357642473473569 0.28678821236736785 0 -0.40957602621140993 1 I I #
point $-1 62.152317194471564 29.834418965972297 6.9459433548571949 #
edge $-1 $765 1 $765 0 $499 $-1 forward 7 unknown #
vertex $-1 $500 $766 #
ellipse-curve $-1 61.046376929681379 31.702038460441898 6.7819429563338689 0.81915205242281985 0 0.57357642473473569 0.28678821236736785 0 -0.40957602621140993 1 I I #
point $-1 62.152317194471564 31.702038460441898 6.9459433548571949 #
plane-surface $-1 65.822321237830749 0 0 -1 0 0 0 0 1 forward_v I I I I #
coedge $-1 $508 $506 $510 $676 reversed $361 $-1 #
edge $-1 $521 -13.006404524732078 $678 13.006404524732078 $520 $767 forward 7 unknown #
vertex $-1 $676 $768 #
straight-curve $-1 -65.822321237830749 -32.947118123421646 0 0 0 -1 I I #
edge $-1 $674 -32.947118123421646 $678 32.947118123421646 $672 $769 forward 7 unknown #
straight-curve $-1 0 -32.947118123421646 -13.006404524732078 -1 0 0 I I #
vertex $-1 $513 $770 #
straight-curve $-1 0 32.947118123421646 -13.006404524732078 1 0 0 I I #
point $-1 65.822321237830749 32.947118123421646 -13.006404524732078 #
point $-1 65.822321237830749 -32.947118123421646 -13.006404524732078 #
straight-curve $-1 -65.822321237830749 0 13.006404524732078 0 -1 0 I I #
point $-1 -65.822321237830749 32.947118123421646 13.006404524732078 #
point $-1 -65.822321237830749 -32.947118123421646 13.006404524732078 #
straight-curve $-1 65.822321237830749 -32.947118123421646 0 0 0 -1 I I #
straight-curve $-1 65.822321237830749 32.947118123421646 0 0 0 -1 I I #
plane-surface $-1 0 -32.947118123421646 0 0 1 0 0 0 1 forward_v I I I I #
coedge $-1 $771 $533 $545 $699 reversed $380 $-1 #
coedge $-1 $533 $771 $548 $701 reversed $380 $-1 #
edge $-1 $772 -65.822321237830749 $542 -59.856610121036155 $538 $773 forward 7 unknown #
straight-curve $-1 -59.856610121036155 -13.385626584285632 13.006404524732078 0 1 0 I I #
coedge $-1 $545 $536 $539 $695 forward $531 $-1 #
straight-curve $-1 -59.856610121036155 -13.385626584285632 -13.006404524732078 0 -1 0 I I #
coedge $-1 $539 $538 $771 $774 forward $540 $-1 #
edge $-1 $541 59.856610121036155 $775 65.822321237830749 $539 $776 forward 7 unknown #
point $-1 -59.856610121036155 -32.947118123421646 -13.006404524732078 #
point $-1 -59.856610121036155 -32.947118123421646 13.006404524732078 #
straight-curve $-1 -65.822321237830749 -20.595388213720881 0 0 0 -1 I I #
edge $-1 $775 -32.947118123421646 $546 -20.595388213720881 $688 $777 forward 7 unknown #
point $-1 -65.822321237830749 -20.595388213720881 -13.006404524732078 #
edge $-1 $549 20.595388213720881 $772 32.947118123421646 $689 $778 forward 7 unknown #
point $-1 -65.822321237830749 -20.595388213720881 13.006404524732078 #
edge $-1 $704 39.93066890730519 $707 44.893960471668834 $554 $779 forward 7 unknown #
vertex $-1 $568 $780 #
straight-curve $-1 -76.954890870441091 4.0486858916537187 13.006404524732076 -1 0 0 I I #
edge $-1 $707 -5.182316600642956 $565 7.4495780186214304 $564 $781 forward 7 unknown #
vertex $-1 $706 $782 #
straight-curve $-1 -65.822321237830721 4.0486858916537187 8.043112960368461 0.74314481823134659 0 0.66913061440640931 I I #
point $-1 -60.310027631745726 4.0486858916537187 13.006404524732078 #
point $-1 -65.822321237830749 -8.5832087276106677 8.0431129603684361 #
straight-curve $-1 -65.822321237830749 0 13.006404524732078 0 -1 0 I I #
vertex $-1 $571 $783 #
point $-1 -59.831520232039033 -6.0568298037577897 8.4267879139570105 #
vertex $-1 $575 $784 #
point $-1 -59.831520232039033 -2.2672614179784745 8.4267879139570105 #
vertex $-1 $579 $785 #
point $-1 -59.831520232039033 1.5223069678008443 8.4267879139570105 #
coedge $-1 $594 $593 $586 $719 forward $583 $-1 #
edge $-1 $720 39.93066890730519 $723 44.893960471668834 $718 $786 forward 7 unknown #
vertex $-1 $598 $787 #
straight-curve $-1 -76.954890870441091 30.819939060224982 13.006404524732076 -1 0 0 I I #
edge $-1 $723 -18.567943184928588 $595 -5.9360485656642012 $594 $788 forward 7 unknown #
vertex $-1 $722 $789 #
straight-curve $-1 -65.822321237830721 30.819939060224982 8.043112960368461 0.74314481823134659 0 0.66913061440640931 I I #
point $-1 -60.310027631745726 30.819939060224982 13.006404524732078 #
point $-1 -65.822321237830749 18.188044440960596 8.0431129603684361 #
straight-curve $-1 -65.822321237830749 0 13.006404524732078 0 -1 0 I I #
vertex $-1 $601 $790 #
point $-1 -59.831520232039033 20.71442336481347 8.4267879139570105 #
vertex $-1 $605 $791 #
point $-1 -59.831520232039033 24.503991750592789 8.4267879139570105 #
vertex $-1 $609 $792 #
point $-1 -59.831520232039033 28.293560136372108 8.4267879139570105 #
coedge $-1 $624 $623 $616 $735 forward $613 $-1 #
edge $-1 $736 79.518533814509922 $739 90.820304101836925 $734 $793 forward 7 unknown #
vertex $-1 $628 $794 #
straight-curve $-1 49.075518472782363 -0.049533360048314989 13.006404524732076 1 0 0 I I #
edge $-1 $739 -1.5811162587488319 $625 4.6442820561498657 $624 $795 forward 7 unknown #
vertex $-1 $738 $796 #
straight-curve $-1 -9.6859421288417167 -0.049533360048314989 109.54161331181155 -0.57357642473473569 0 0.81915205242281985 I I #
point $-1 57.908736726377597 -0.049533360048314989 13.006404524732076 #
point $-1 65.822321237830749 6.1758649548503826 1.7046342374050738 #
straight-curve $-1 65.822321237830749 0 13.006404524732078 0 1 0 I I #
vertex $-1 $631 $797 #
point $-1 61.333165142048749 1.1955463029314259 6.3723669301224586 #
vertex $-1 $635 $798 #
point $-1 61.333165142048749 3.0631657974010338 6.3723669301224586 #
vertex $-1 $639 $799 #
point $-1 61.333165142048749 4.9307852918706416 6.3723669301224586 #
edge $-1 $753 -18.029908640435497 $653 -11.8045103255368 $652 $800 forward 7 unknown #
coedge $-1 $752 $646 $757 $801 reversed $643 $-1 #
coedge $-1 $646 $751 $648 $755 forward $643 $-1 #
vertex $-1 $647 $802 #
straight-curve $-1 17.641207668921592 32.947118123421646 70.514397620273684 -0.57357642473473569 0 0.81915205242281985 I I #
edge $-1 $759 -13.006404524732078 $649 -1.7046342374050698 $648 $803 forward 7 unknown #
point $-1 65.822321237830749 32.947118123421646 1.7046342374050698 #
coedge $-1 $652 $651 $751 $801 forward $478 $-1 #
point $-1 57.908736726377597 26.721719808522948 13.006404524732076 #
vertex $-1 $656 $804 #
straight-curve $-1 65.822321237830749 0 13.006404524732078 0 1 0 I I #
vertex $-1 $659 $805 #
point $-1 61.333165142048749 27.966799471502689 6.3723669301224586 #
vertex $-1 $663 $806 #
point $-1 61.333165142048749 29.834418965972297 6.3723669301224586 #
vertex $-1 $667 $807 #
point $-1 61.333165142048749 31.702038460441898 6.3723669301224586 #
straight-curve $-1 -65.822321237830749 32.947118123421646 0 0 0 -1 I I #
point $-1 -65.822321237830749 -32.947118123421646 -13.006404524732078 #
straight-curve $-1 -65.822321237830749 0 -13.006404524732078 0 1 0 I I #
point $-1 -65.822321237830749 32.947118123421646 -13.006404524732078 #
coedge $-1 $689 $688 $694 $774 reversed $380 $-1 #
vertex $-1 $701 $808 #
straight-curve $-1 0 -32.947118123421646 13.006404524732078 1 0 0 I I #
edge $-1 $772 -13.006404524732078 $775 13.006404524732078 $771 $809 forward 7 unknown #
vertex $-1 $699 $810 #
straight-curve $-1 0 -32.947118123421646 -13.006404524732078 -1 0 0 I I #
straight-curve $-1 -65.822321237830749 0 -13.006404524732078 0 1 0 I I #
straight-curve $-1 -65.822321237830749 0 13.006404524732078 0 -1 0 I I #
straight-curve $-1 -65.822321237830749 4.0486858916537187 52.937073432037266 0 0 -1 I I #
point $-1 -65.822321237830749 4.0486858916537187 13.006404524732078 #
straight-curve $-1 -65.822321237830749 -1.1336307089892372 8.0431129603684326 0 -1 0 I I #
point $-1 -65.822321237830749 4.0486858916537187 8.0431129603684361 #
point $-1 -59.90553443586397 -6.0568298037577897 7.0145124813192545 #
point $-1 -59.90553443586397 -2.2672614179784745 7.0145124813192545 #
point $-1 -59.90553443586397 1.5223069678008443 7.0145124813192545 #
straight-curve $-1 -65.822321237830749 30.819939060224982 52.937073432037266 0 0 -1 I I #
point $-1 -65.822321237830749 30.819939060224982 13.006404524732078 #
straight-curve $-1 -65.822321237830749 12.251995875296394 8.0431129603684326 0 -1 0 I I #
point $-1 -65.822321237830749 30.819939060224982 8.0431129603684361 #
point $-1 -59.90553443586397 20.71442336481347 7.0145124813192545 #
point $-1 -59.90553443586397 24.503991750592789 7.0145124813192545 #
point $-1 -59.90553443586397 28.293560136372108 7.0145124813192545 #
straight-curve $-1 65.822321237830749 -0.049533360048314989 92.524938339241999 0 0 -1 I I #
point $-1 65.822321237830749 -0.049533360048314989 13.006404524732078 #
straight-curve $-1 65.822321237830749 1.5315828987005169 1.7046342374050596 0 1 0 I I #
point $-1 65.822321237830749 -0.049533360048314989 1.7046342374050738 #
point $-1 60.636800903469968 1.1955463029314259 6.4951547439665012 #
point $-1 60.636800903469968 3.0631657974010338 6.4951547439665012 #
point $-1 60.636800903469968 4.9307852918706416 6.4951547439665012 #
straight-curve $-1 57.90873672637759 14.917209482986149 13.006404524732076 0 -1 0 I I #
edge $-1 $759 -65.822321237830749 $753 -57.908736726377597 $751 $811 forward 7 unknown #
point $-1 57.908736726377597 32.947118123421646 13.006404524732076 #
straight-curve $-1 65.822321237830749 32.947118123421646 0 0 0 -1 I I #
point $-1 65.822321237830749 32.947118123421646 13.006404524732078 #
point $-1 60.636800903469968 27.966799471502689 6.4951547439665012 #
point $-1 60.636800903469968 29.834418965972297 6.4951547439665012 #
point $-1 60.636800903469968 31.702038460441898 6.4951547439665012 #
point $-1 -65.822321237830749 -32.947118123421646 13.006404524732078 #
straight-curve $-1 -65.822321237830749 -32.947118123421646 0 0 0 -1 I I #
point $-1 -65.822321237830749 -32.947118123421646 -13.006404524732078 #
straight-curve $-1 0 32.947118123421646 13.006404524732078 -1 0 0 I I #
End-of-ACIS-data 