500 0 9 0           
7 Unknown 11 ACIS 5.0 NT 24 Thu Mar 25 15:28:34 1999 
-1 9.9999999999999995e-007 1e-010 
body $-1 $9 $-1 $10 #
body $-1 $11 $-1 $12 #
body $-1 $13 $-1 $14 #
body $-1 $15 $-1 $16 #
body $-1 $17 $-1 $18 #
body $-1 $19 $-1 $20 #
body $-1 $21 $-1 $22 #
body $-1 $23 $-1 $24 #
body $-1 $25 $-1 $26 #
lump $-1 $-1 $27 $0 #
transform $-1 1 0 0 0 1 0 0 0 1 59.425641651661735 36.049476361305764 16.299221693788905 1 rotate no_reflect no_shear #
lump $-1 $-1 $28 $1 #
transform $-1 1 0 0 0 1 0 0 0 1 59.425641651661735 36.049476361305764 16.299221693788905 1 rotate no_reflect no_shear #
lump $-1 $-1 $29 $2 #
transform $-1 1 0 0 0 1 0 0 0 1 59.425641651661735 36.049476361305764 16.299221693788905 1 rotate no_reflect no_shear #
lump $-1 $-1 $30 $3 #
transform $-1 1 0 0 0 1 0 0 0 1 59.425641651661735 36.049476361305764 16.299221693788905 1 rotate no_reflect no_shear #
lump $-1 $-1 $31 $4 #
transform $-1 1 0 0 0 1 0 0 0 1 59.425641651661735 36.049476361305764 16.299221693788905 1 rotate no_reflect no_shear #
lump $-1 $-1 $32 $5 #
transform $-1 1 0 0 0 1 0 0 0 1 59.425641651661735 36.049476361305764 16.299221693788905 1 rotate no_reflect no_shear #
lump $-1 $-1 $33 $6 #
transform $-1 1 0 0 0 1 0 0 0 1 59.425641651661735 36.049476361305764 16.299221693788905 1 rotate no_reflect no_shear #
lump $-1 $-1 $34 $7 #
transform $-1 1 0 0 0 1 0 0 0 1 59.425641651661735 36.049476361305764 16.299221693788905 1 rotate no_reflect no_shear #
lump $-1 $-1 $35 $8 #
transform $-1 1 0 0 0 1 0 0 0 1 59.425641651661735 36.049476361305764 16.299221693788905 1 rotate no_reflect no_shear #
shell $-1 $-1 $-1 $36 $-1 $9 #
shell $-1 $-1 $-1 $37 $-1 $11 #
shell $-1 $-1 $-1 $38 $-1 $13 #
shell $-1 $-1 $-1 $39 $-1 $15 #
shell $-1 $-1 $-1 $40 $-1 $17 #
shell $-1 $-1 $-1 $41 $-1 $19 #
shell $-1 $-1 $-1 $42 $-1 $21 #
shell $-1 $-1 $-1 $43 $-1 $23 #
shell $-1 $-1 $-1 $44 $-1 $25 #
face $-1 $45 $46 $27 $-1 $47 forward single #
face $-1 $48 $49 $28 $-1 $50 reversed single #
face $-1 $51 $52 $29 $-1 $53 reversed single #
face $-1 $54 $55 $30 $-1 $56 forward single #
face $-1 $57 $58 $31 $-1 $59 reversed single #
face $-1 $60 $61 $32 $-1 $62 forward single #
face $-1 $63 $64 $33 $-1 $65 reversed single #
face $-1 $66 $67 $34 $-1 $68 forward single #
face $-1 $69 $70 $35 $-1 $71 forward single #
face $-1 $72 $73 $27 $-1 $74 reversed single #
loop $-1 $-1 $75 $36 #
plane-surface $-1 0 0 16.299221693788905 0 0 1 1 0 0 forward_v I I I I #
face $-1 $76 $77 $28 $-1 $78 reversed single #
loop $-1 $-1 $79 $37 #
plane-surface $-1 0 -29.584216250266667 10.182748113932124 0 0 1 1 0 0 forward_v I I I I #
face $-1 $80 $81 $29 $-1 $82 reversed single #
loop $-1 $-1 $83 $38 #
plane-surface $-1 71.150388382541919 -13.378278647468065 177.8456635354062 0 -1 0 -0.75470958851134928 0 -0.65605901945558964 forward_v I I I I #
face $-1 $84 $85 $30 $-1 $86 forward single #
loop $-1 $87 $88 $39 #
cone-surface $-1 56.146911660556185 -18.248617393347818 12.700745570927609 -0.75470958851134928 0 -0.65605901945558964 0.32802950972779482 0 -0.37735479425567464 1 I I 0 1 0.5 forward I I I I #
face $-1 $89 $90 $31 $-1 $91 reversed single #
loop $-1 $-1 $92 $40 #
plane-surface $-1 -18.547814733355139 31.179137615426015 99.872207150389315 0.75470958851134928 0 0.65605901945558964 0.65605901945558964 0 -0.75470958851134928 forward_v I I I I #
face $-1 $93 $94 $32 $-1 $95 forward single #
loop $-1 $96 $97 $41 #
cone-surface $-1 56.146911660556185 31.179137615426015 12.700745570927609 -0.75470958851134928 0 -0.65605901945558964 0.32802950972779482 0 -0.37735479425567464 1 I I 0 1 0.5 forward I I I I #
face $-1 $98 $99 $33 $-1 $100 reversed single #
loop $-1 $-1 $101 $42 #
plane-surface $-1 -140.48202291954937 8.2649066923317562 93.76289890946191 0 1 0 -0.68199836817093118 0 0.7313536940579346 forward_v I I I I #
face $-1 $102 $103 $34 $-1 $104 forward single #
loop $-1 $105 $106 $43 #
cone-surface $-1 -53.194091075471611 11.955535926019273 10.325980450860921 0.68199836817093118 0 -0.7313536940579346 0.7313536940579346 0 0.68199836817093118 1 I I 0 1 1 forward I I I I #
face $-1 $107 $108 $35 $-1 $109 forward single #
loop $-1 $110 $111 $44 #
cone-surface $-1 -53.194091075471611 17.491479776550548 10.325980450860921 0.68199836817093118 0 -0.7313536940579346 0.7313536940579346 0 0.68199836817093118 1 I I 0 1 1 forward I I I I #
face $-1 $112 $113 $27 $-1 $114 reversed single #
loop $-1 $-1 $115 $45 #
plane-surface $-1 0 0 -16.299221693788905 0 0 1 1 0 0 forward_v I I I I #
coedge $-1 $116 $117 $118 $119 forward $46 $-1 #
face $-1 $120 $121 $28 $-1 $122 reversed single #
loop $-1 $-1 $123 $48 #
plane-surface $-1 0 -23.118956139227571 13.240984903860515 0 -1 0 0 0 -1 forward_v I I I I #
coedge $-1 $124 $125 $126 $127 reversed $49 $-1 #
face $-1 $128 $129 $29 $-1 $130 forward single #
loop $-1 $-1 $131 $51 #
plane-surface $-1 -18.547814733355139 -18.248617393347818 99.872207150389315 0.75470958851134928 0 0.65605901945558964 0.65605901945558964 0 -0.75470958851134928 forward_v I I I I #
coedge $-1 $132 $133 $134 $135 reversed $52 $-1 #
face $-1 $-1 $136 $30 $-1 $137 forward single #
loop $-1 $138 $139 $54 #
cone-surface $-1 55.341789443123844 -18.248617393347818 12.000863522850739 -0.75470958851134928 0 -0.65605901945558964 0.16401475486389741 0 -0.18867739712783732 1 I I -0.70710678118654746 0.70710678118654746 0.25 forward I I I I #
loop $-1 $-1 $140 $39 #
coedge $-1 $88 $88 $141 $142 reversed $55 $-1 #
face $-1 $143 $144 $31 $-1 $145 reversed single #
loop $-1 $-1 $146 $57 #
plane-surface $-1 71.150388382541919 26.308798869546262 177.8456635354062 0 1 0 0.75470958851134928 0 0.65605901945558964 forward_v I I I I #
coedge $-1 $147 $148 $149 $150 reversed $58 $-1 #
face $-1 $-1 $151 $32 $-1 $152 forward single #
loop $-1 $153 $154 $60 #
cone-surface $-1 55.341789443123844 31.179137615426015 12.000863522850739 -0.75470958851134928 0 -0.65605901945558964 0.16401475486389741 0 -0.18867739712783732 1 I I -0.70710678118654746 0.70710678118654746 0.25 forward I I I I #
loop $-1 $-1 $155 $41 #
coedge $-1 $97 $97 $156 $157 reversed $61 $-1 #
face $-1 $158 $159 $33 $-1 $160 reversed single #
loop $-1 $-1 $161 $63 #
plane-surface $-1 -59.425641651661721 14.723507851284914 6.8405738220501604 -0.68199836817093118 0 0.7313536940579346 0.7313536940579346 0 0.68199836817093118 forward_v I I I I #
coedge $-1 $162 $163 $164 $165 reversed $64 $-1 #
face $-1 $-1 $166 $34 $-1 $167 forward single #
loop $-1 $168 $169 $66 #
cone-surface $-1 -51.693120210862503 11.955535926019273 8.7163862967733365 0.68199836817093118 0 -0.7313536940579346 0.3656768470289673 0 0.34099918408546559 1 I I -0.70710678118654746 0.70710678118654746 0.5 forward I I I I #
loop $-1 $-1 $170 $43 #
coedge $-1 $106 $106 $171 $172 reversed $67 $-1 #
face $-1 $-1 $173 $35 $-1 $174 forward single #
loop $-1 $175 $176 $69 #
cone-surface $-1 -51.693120210862503 17.491479776550548 8.7163862967733365 0.68199836817093118 0 -0.7313536940579346 0.3656768470289673 0 0.34099918408546559 1 I I -0.70710678118654746 0.70710678118654746 0.5 forward I I I I #
loop $-1 $-1 $177 $44 #
coedge $-1 $111 $111 $178 $179 reversed $70 $-1 #
face $-1 $180 $181 $27 $-1 $182 reversed single #
loop $-1 $-1 $183 $72 #
plane-surface $-1 0 -36.049476361305764 0 0 1 0 0 0 1 forward_v I I I I #
coedge $-1 $184 $185 $186 $187 forward $73 $-1 #
coedge $-1 $188 $75 $189 $190 forward $46 $-1 #
coedge $-1 $75 $188 $191 $192 forward $46 $-1 #
coedge $-1 $193 $194 $75 $119 reversed $195 $-1 #
edge $-1 $196 -36.049476361305764 $197 36.049476361305764 $118 $198 forward 7 unknown #
face $-1 $199 $200 $28 $-1 $201 reversed single #
loop $-1 $-1 $202 $76 #
plane-surface $-1 -59.425641651661735 0 0 1 0 0 0 0 -1 forward_v I I I I #
coedge $-1 $203 $204 $125 $205 reversed $77 $-1 #
coedge $-1 $206 $79 $207 $208 reversed $49 $-1 #
coedge $-1 $79 $206 $123 $205 forward $49 $-1 #
coedge $-1 $209 $210 $79 $127 forward $211 $-1 #
edge $-1 $212 -21.257368236172432 $213 -8.3268480140942369 $126 $214 forward 7 unknown #
face $-1 $215 $216 $29 $-1 $217 forward single #
loop $-1 $-1 $218 $80 #
plane-surface $-1 0 -23.118956139227571 13.240984903860515 0 -1 0 0 0 -1 forward_v I I I I #
coedge $-1 $219 $220 $221 $222 reversed $81 $-1 #
coedge $-1 $133 $83 $223 $224 reversed $52 $-1 #
coedge $-1 $83 $132 $219 $225 reversed $52 $-1 #
coedge $-1 $221 $226 $83 $135 forward $216 $-1 #
edge $-1 $227 -23.850447460390775 $228 -18.525877118788735 $134 $229 forward 7 unknown #
loop $-1 $-1 $141 $84 #
plane-surface $-1 -18.547814733355139 -18.248617393347818 99.872207150389315 0.75470958851134928 0 0.65605901945558964 0.65605901945558964 0 -0.75470958851134928 forward_v I I I I #
loop $-1 $-1 $230 $54 #
coedge $-1 $139 $139 $140 $231 reversed $85 $-1 #
coedge $-1 $140 $140 $139 $231 forward $87 $-1 #
coedge $-1 $141 $141 $88 $142 forward $136 $-1 #
edge $-1 $232 0 $232 6.2831853071796004 $141 $233 forward 7 unknown #
face $-1 $234 $235 $31 $-1 $236 forward single #
loop $-1 $-1 $237 $89 #
plane-surface $-1 0 36.049476361305764 0 0 -1 0 0 0 -1 forward_v I I I I #
coedge $-1 $238 $239 $240 $241 reversed $90 $-1 #
coedge $-1 $242 $92 $237 $243 reversed $58 $-1 #
coedge $-1 $92 $242 $238 $244 forward $58 $-1 #
coedge $-1 $240 $245 $92 $150 forward $235 $-1 #
edge $-1 $246 -20.459907553592764 $247 -10.719230061833255 $149 $248 forward 7 unknown #
loop $-1 $-1 $156 $93 #
plane-surface $-1 -18.547814733355139 31.179137615426015 99.872207150389315 0.75470958851134928 0 0.65605901945558964 0.65605901945558964 0 -0.75470958851134928 forward_v I I I I #
loop $-1 $-1 $249 $60 #
coedge $-1 $154 $154 $155 $250 reversed $94 $-1 #
coedge $-1 $155 $155 $154 $250 forward $96 $-1 #
coedge $-1 $156 $156 $97 $157 forward $151 $-1 #
edge $-1 $251 0 $251 6.2831853071796004 $156 $252 forward 7 unknown #
face $-1 $253 $254 $33 $-1 $255 reversed single #
loop $-1 $-1 $256 $98 #
plane-surface $-1 -140.48202291954937 21.182109010238072 93.76289890946191 0 -1 0 0.68199836817093118 0 -0.7313536940579346 forward_v I I I I #
coedge $-1 $257 $258 $259 $260 reversed $99 $-1 #
coedge $-1 $163 $101 $261 $262 reversed $64 $-1 #
coedge $-1 $101 $162 $257 $263 reversed $64 $-1 #
coedge $-1 $259 $264 $101 $165 forward $265 $-1 #
edge $-1 $266 10.815369808112948 $267 20.958527599445929 $164 $268 forward 7 unknown #
loop $-1 $-1 $171 $102 #
plane-surface $-1 -59.425641651661721 14.723507851284914 6.8405738220501604 -0.68199836817093118 0 0.7313536940579346 0.7313536940579346 0 0.68199836817093118 forward_v I I I I #
loop $-1 $-1 $269 $66 #
coedge $-1 $169 $169 $170 $270 reversed $103 $-1 #
coedge $-1 $170 $170 $169 $270 forward $105 $-1 #
coedge $-1 $171 $171 $106 $172 forward $166 $-1 #
edge $-1 $271 0 $271 6.2831853071796004 $171 $272 forward 7 unknown #
loop $-1 $-1 $178 $107 #
plane-surface $-1 -59.425641651661721 14.723507851284914 6.8405738220501604 -0.68199836817093118 0 0.7313536940579346 0.7313536940579346 0 0.68199836817093118 forward_v I I I I #
loop $-1 $-1 $273 $69 #
coedge $-1 $176 $176 $177 $274 reversed $108 $-1 #
coedge $-1 $177 $177 $176 $274 forward $110 $-1 #
coedge $-1 $178 $178 $111 $179 forward $173 $-1 #
edge $-1 $275 0 $275 6.2831853071796004 $178 $276 forward 7 unknown #
face $-1 $277 $278 $27 $-1 $279 reversed single #
loop $-1 $-1 $280 $112 #
plane-surface $-1 -59.425641651661735 0 0 1 0 0 0 0 -1 forward_v I I I I #
coedge $-1 $281 $191 $282 $283 forward $113 $-1 #
coedge $-1 $284 $115 $281 $285 forward $73 $-1 #
coedge $-1 $115 $284 $286 $287 forward $73 $-1 #
coedge $-1 $194 $193 $115 $187 reversed $195 $-1 #
edge $-1 $288 -36.049476361305764 $289 36.049476361305764 $186 $290 forward 7 unknown #
coedge $-1 $117 $116 $291 $292 forward $46 $-1 #
coedge $-1 $293 $294 $116 $190 reversed $278 $-1 #
edge $-1 $197 -59.425641651661735 $295 59.425641651661735 $189 $296 forward 7 unknown #
coedge $-1 $183 $297 $117 $192 reversed $113 $-1 #
edge $-1 $298 -59.425641651661735 $196 59.425641651661735 $191 $299 forward 7 unknown #
coedge $-1 $186 $118 $297 $300 forward $195 $-1 #
coedge $-1 $118 $186 $293 $301 reversed $195 $-1 #
loop $-1 $-1 $193 $277 #
vertex $-1 $119 $302 #
vertex $-1 $119 $303 #
straight-curve $-1 59.425641651661735 0 16.299221693788905 0 1 0 I I #
face $-1 $304 $305 $28 $-1 $306 forward single #
loop $-1 $-1 $207 $120 #
plane-surface $-1 0 -36.049476361305764 0 0 1 0 0 0 1 forward_v I I I I #
coedge $-1 $307 $308 $203 $309 forward $121 $-1 #
coedge $-1 $310 $123 $202 $309 reversed $77 $-1 #
coedge $-1 $123 $310 $209 $311 reversed $77 $-1 #
edge $-1 $312 -59.425641651661735 $213 59.425641651661735 $123 $313 forward 7 unknown #
coedge $-1 $125 $124 $307 $314 reversed $49 $-1 #
coedge $-1 $315 $316 $124 $208 forward $200 $-1 #
edge $-1 $317 -59.425641651661735 $212 59.425641651661735 $207 $318 forward 7 unknown #
coedge $-1 $319 $126 $204 $311 forward $211 $-1 #
coedge $-1 $126 $319 $315 $320 forward $211 $-1 #
loop $-1 $-1 $209 $304 #
vertex $-1 $208 $321 #
vertex $-1 $127 $322 #
straight-curve $-1 59.425641651661735 -14.792108125133334 10.182748113932124 0 1 0 I I #
face $-1 $-1 $323 $29 $-1 $324 reversed single #
loop $-1 $-1 $221 $128 #
plane-surface $-1 0 0 16.299221693788905 0 0 1 1 0 0 forward_v I I I I #
coedge $-1 $325 $326 $220 $327 reversed $129 $-1 #
coedge $-1 $328 $131 $133 $225 forward $81 $-1 #
coedge $-1 $131 $328 $218 $327 forward $81 $-1 #
coedge $-1 $329 $134 $131 $222 forward $216 $-1 #
edge $-1 $228 4.253969950794156 $330 13.994647442553662 $221 $331 forward 7 unknown #
coedge $-1 $332 $333 $132 $224 forward $323 $-1 #
edge $-1 $334 -78.748827733210817 $227 -72.623610073914193 $223 $335 forward 7 unknown #
edge $-1 $228 110.73529040679951 $334 118.85128330332347 $133 $336 forward 7 unknown #
coedge $-1 $134 $329 $332 $337 forward $216 $-1 #
vertex $-1 $224 $338 #
vertex $-1 $135 $339 #
straight-curve $-1 35.57519419127096 -13.378278647468065 16.299221693788908 -1 0 0 I I #
coedge $-1 $230 $230 $-1 $340 reversed $138 $-1 #
edge $-1 $341 0 $341 6.2831853071796004 $139 $342 forward 7 unknown #
vertex $-1 $142 $343 #
ellipse-curve $-1 56.763356480860715 -18.248617393347818 13.236612864140596 0.75470958851134928 0 0.65605901945558964 0.32802950972779482 0 -0.37735479425567464 1 I I #
face $-1 $-1 $344 $31 $-1 $345 reversed single #
loop $-1 $-1 $149 $143 #
plane-surface $-1 0 0 16.299221693788905 0 0 1 1 0 0 forward_v I I I I #
coedge $-1 $346 $347 $147 $243 forward $144 $-1 #
coedge $-1 $239 $146 $148 $244 reversed $90 $-1 #
coedge $-1 $146 $238 $348 $349 reversed $90 $-1 #
coedge $-1 $350 $149 $146 $241 forward $235 $-1 #
edge $-1 $247 18.525877118788735 $351 23.850447460390775 $240 $352 forward 7 unknown #
coedge $-1 $148 $147 $353 $354 reversed $58 $-1 #
edge $-1 $355 -75.079796548723706 $246 -66.963803652199758 $237 $356 forward 7 unknown #
edge $-1 $357 -118.85128330332347 $247 -110.73529040679951 $238 $358 forward 7 unknown #
coedge $-1 $149 $350 $346 $359 forward $235 $-1 #
vertex $-1 $243 $360 #
vertex $-1 $150 $361 #
straight-curve $-1 54.101071310059694 15.589568807713007 16.299221693788901 0 -1 0 I I #
coedge $-1 $249 $249 $-1 $362 reversed $153 $-1 #
edge $-1 $363 0 $363 6.2831853071796004 $154 $364 forward 7 unknown #
vertex $-1 $157 $365 #
ellipse-curve $-1 56.763356480860715 31.179137615426015 13.236612864140596 0.75470958851134928 0 0.65605901945558964 0.32802950972779482 0 -0.37735479425567464 1 I I #
face $-1 $-1 $265 $33 $-1 $366 forward single #
loop $-1 $-1 $367 $158 #
plane-surface $-1 -59.425641651661735 0 0 1 0 0 0 0 -1 forward_v I I I I #
coedge $-1 $368 $369 $370 $371 reversed $159 $-1 #
coedge $-1 $372 $161 $163 $263 forward $99 $-1 #
coedge $-1 $161 $372 $368 $373 forward $99 $-1 #
coedge $-1 $370 $164 $161 $260 forward $265 $-1 #
edge $-1 $267 0.90315276668929911 $374 13.820355084595615 $259 $375 forward 7 unknown #
coedge $-1 $376 $377 $162 $262 forward $254 $-1 #
edge $-1 $378 -40.040875632680809 $266 -30.58222776094205 $261 $379 forward 7 unknown #
edge $-1 $267 -13.869018333733163 $378 1.9479204584885432e-014 $163 $380 forward 7 unknown #
coedge $-1 $164 $370 $376 $381 forward $265 $-1 #
loop $-1 $-1 $370 $253 #
vertex $-1 $262 $382 #
vertex $-1 $165 $383 #
straight-curve $-1 -70.241011459774683 8.2649066923317562 16.299221693788901 1 0 0 I I #
coedge $-1 $269 $269 $-1 $384 reversed $168 $-1 #
edge $-1 $385 0 $385 6.2831853071796004 $169 $386 forward 7 unknown #
vertex $-1 $172 $387 #
ellipse-curve $-1 -54.354062755995244 11.955535926019273 11.569897757919527 -0.68199836817093118 0 0.7313536940579346 0.7313536940579346 0 0.68199836817093118 1 I I #
coedge $-1 $273 $273 $-1 $388 reversed $175 $-1 #
edge $-1 $389 0 $389 6.2831853071796004 $176 $390 forward 7 unknown #
vertex $-1 $179 $391 #
ellipse-curve $-1 -54.354062755995244 17.491479776550548 11.569897757919527 -0.68199836817093118 0 0.7313536940579346 0.7313536940579346 0 0.68199836817093118 1 I I #
face $-1 $-1 $195 $27 $-1 $392 reversed single #
loop $-1 $-1 $293 $180 #
plane-surface $-1 0 36.049476361305764 0 0 -1 0 0 0 -1 forward_v I I I I #
coedge $-1 $393 $291 $294 $394 forward $181 $-1 #
coedge $-1 $297 $183 $184 $285 reversed $113 $-1 #
coedge $-1 $291 $393 $183 $283 reversed $181 $-1 #
edge $-1 $298 -16.299221693788905 $395 16.299221693788905 $282 $396 forward 7 unknown #
coedge $-1 $185 $184 $393 $397 forward $73 $-1 #
edge $-1 $289 -59.425641651661735 $395 59.425641651661735 $281 $398 forward 7 unknown #
coedge $-1 $294 $293 $185 $287 reversed $278 $-1 #
edge $-1 $399 -59.425641651661735 $288 59.425641651661735 $286 $400 forward 7 unknown #
vertex $-1 $187 $401 #
vertex $-1 $300 $402 #
straight-curve $-1 59.425641651661735 0 -16.299221693788905 0 -1 0 I I #
coedge $-1 $280 $282 $188 $292 reversed $181 $-1 #
edge $-1 $295 -36.049476361305764 $298 36.049476361305764 $291 $403 forward 7 unknown #
coedge $-1 $286 $189 $194 $301 forward $278 $-1 #
coedge $-1 $189 $286 $280 $394 reversed $278 $-1 #
vertex $-1 $190 $404 #
straight-curve $-1 0 36.049476361305764 16.299221693788905 -1 0 0 I I #
coedge $-1 $191 $281 $193 $300 reversed $113 $-1 #
vertex $-1 $292 $405 #
straight-curve $-1 0 -36.049476361305764 16.299221693788905 1 0 0 I I #
edge $-1 $196 -16.299221693788905 $289 16.299221693788905 $193 $406 forward 7 unknown #
edge $-1 $197 -16.299221693788905 $288 16.299221693788905 $194 $407 forward 7 unknown #
point $-1 59.425641651661735 -36.049476361305764 16.299221693788905 #
point $-1 59.425641651661735 36.049476361305764 16.299221693788905 #
face $-1 $-1 $211 $28 $-1 $408 reversed single #
loop $-1 $-1 $409 $199 #
plane-surface $-1 0 0 16.299221693788905 0 0 1 1 0 0 forward_v I I I I #
coedge $-1 $410 $202 $206 $314 forward $121 $-1 #
coedge $-1 $202 $410 $411 $412 reversed $121 $-1 #
edge $-1 $413 -9.6787292418586475 $312 -3.5622556620018671 $202 $414 forward 7 unknown #
coedge $-1 $204 $203 $409 $415 reversed $77 $-1 #
edge $-1 $213 3.5622556620018671 $416 9.6787292418586475 $209 $417 forward 7 unknown #
vertex $-1 $314 $418 #
straight-curve $-1 0 -23.118956139227571 10.182748113932124 1 0 0 I I #
edge $-1 $312 8.3268480140942369 $317 21.257368236172432 $307 $419 forward 7 unknown #
coedge $-1 $420 $207 $210 $320 reversed $200 $-1 #
coedge $-1 $207 $420 $410 $421 forward $200 $-1 #
vertex $-1 $208 $422 #
straight-curve $-1 0 -36.049476361305764 10.182748113932124 1 0 0 I I #
coedge $-1 $210 $209 $423 $424 reversed $211 $-1 #
edge $-1 $425 -16.299221693788905 $212 -10.182748113932124 $210 $426 forward 7 unknown #
point $-1 59.425641651661735 -36.049476361305764 10.182748113932124 #
point $-1 59.425641651661735 -23.118956139227571 10.182748113932124 #
loop $-1 $-1 $223 $215 #
plane-surface $-1 59.425641651661735 0 0 -1 0 0 0 0 1 forward_v I I I I #
coedge $-1 $326 $218 $427 $428 reversed $129 $-1 #
coedge $-1 $218 $325 $329 $429 reversed $129 $-1 #
edge $-1 $430 -118.85128330332347 $330 -110.73529040679951 $218 $431 forward 7 unknown #
coedge $-1 $220 $219 $333 $432 reversed $81 $-1 #
coedge $-1 $226 $221 $326 $429 forward $216 $-1 #
vertex $-1 $429 $433 #
straight-curve $-1 54.101071310059694 -9.1243086966739089 16.299221693788901 0 -1 0 I I #
coedge $-1 $427 $223 $226 $337 reversed $323 $-1 #
coedge $-1 $223 $427 $328 $432 forward $323 $-1 #
vertex $-1 $224 $434 #
straight-curve $-1 59.425641651661735 -13.378278647468065 88.922831767703101 0 0 1 I I #
straight-curve $-1 -18.547814733355139 -13.378278647468065 99.872207150389315 0.65605901945558964 0 -0.75470958851134928 I I #
edge $-1 $435 -23.118956139227571 $227 -13.378278647468065 $332 $436 forward 7 unknown #
point $-1 59.425641651661735 -13.378278647468065 16.299221693788905 #
point $-1 54.101071310059694 -13.378278647468065 16.299221693788908 #
edge $-1 $437 1 $437 0 $230 $-1 forward 7 unknown #
vertex $-1 $231 $438 #
ellipse-curve $-1 55.530466840251684 -18.248617393347818 12.164878277714637 0.75470958851134928 0 0.65605901945558964 0.32802950972779482 0 -0.37735479425567464 1 I I #
point $-1 57.091385990588492 -18.248617393347818 12.859258069884904 #
loop $-1 $-1 $353 $234 #
plane-surface $-1 59.425641651661735 0 0 -1 0 0 0 0 1 forward_v I I I I #
coedge $-1 $347 $237 $245 $359 reversed $144 $-1 #
coedge $-1 $237 $346 $439 $440 forward $144 $-1 #
coedge $-1 $353 $441 $239 $349 forward $344 $-1 #
edge $-1 $351 72.623610073914193 $357 78.748827733210817 $348 $442 forward 7 unknown #
coedge $-1 $245 $240 $441 $443 forward $235 $-1 #
vertex $-1 $443 $444 #
straight-curve $-1 35.57519419127096 26.308798869546262 16.299221693788908 1 0 0 I I #
coedge $-1 $439 $348 $242 $354 forward $344 $-1 #
edge $-1 $357 10.719230061833255 $355 20.459907553592764 $353 $445 forward 7 unknown #
vertex $-1 $243 $446 #
straight-curve $-1 10.168863946980892 36.049476361305764 66.837446393295366 -0.65605901945558975 0 0.75470958851134939 I I #
vertex $-1 $354 $447 #
straight-curve $-1 -18.547814733355139 26.308798869546262 99.872207150389315 -0.65605901945558964 0 0.75470958851134928 I I #
edge $-1 $448 -59.425641651661735 $246 -54.101071310059694 $346 $449 forward 7 unknown #
point $-1 54.101071310059694 36.049476361305771 16.299221693788908 #
point $-1 54.101071310059694 26.308798869546262 16.299221693788908 #
edge $-1 $450 1 $450 0 $249 $-1 forward 7 unknown #
vertex $-1 $250 $451 #
ellipse-curve $-1 55.530466840251684 31.179137615426015 12.164878277714637 0.75470958851134928 0 0.65605901945558964 0.32802950972779482 0 -0.37735479425567464 1 I I #
point $-1 57.091385990588492 31.179137615426015 12.859258069884904 #
plane-surface $-1 0 0 16.299221693788905 0 0 1 1 0 0 forward_v I I I I #
coedge $-1 $377 $376 $369 $452 forward $254 $-1 #
coedge $-1 $369 $256 $258 $373 reversed $159 $-1 #
coedge $-1 $256 $368 $367 $452 reversed $159 $-1 #
coedge $-1 $264 $259 $256 $371 forward $265 $-1 #
edge $-1 $374 -20.958527599445929 $453 -10.815369808112948 $370 $454 forward 7 unknown #
coedge $-1 $258 $257 $377 $455 reversed $99 $-1 #
edge $-1 $456 -1.9479204584885432e-014 $374 13.869018333733163 $368 $457 forward 7 unknown #
vertex $-1 $260 $458 #
straight-curve $-1 -49.282483860328753 7.3617539256424571 16.299221693788905 0 1 0 I I #
coedge $-1 $367 $261 $264 $381 reversed $254 $-1 #
coedge $-1 $261 $367 $372 $455 forward $254 $-1 #
vertex $-1 $262 $459 #
straight-curve $-1 -59.425641651661735 8.2649066923317562 46.881449454730955 0 0 1 I I #
straight-curve $-1 -59.425641651661721 8.2649066923317562 6.8405738220501604 -0.7313536940579346 0 -0.68199836817093118 I I #
edge $-1 $453 -21.182109010238072 $266 -8.2649066923317562 $376 $460 forward 7 unknown #
point $-1 -59.425641651661735 8.2649066923317562 16.299221693788905 #
point $-1 -49.282483860328753 8.2649066923317562 16.299221693788905 #
edge $-1 $461 1 $461 0 $269 $-1 forward 7 unknown #
vertex $-1 $270 $462 #
ellipse-curve $-1 -52.034119394947972 11.955535926019273 9.0820631438023032 -0.68199836817093118 0 0.7313536940579346 0.7313536940579346 0 0.68199836817093118 1 I I #
point $-1 -53.622709061937321 11.955535926019273 12.251896126090472 #
edge $-1 $463 1 $463 0 $273 $-1 forward 7 unknown #
vertex $-1 $274 $464 #
ellipse-curve $-1 -52.034119394947972 17.491479776550548 9.0820631438023032 -0.68199836817093118 0 0.7313536940579346 0.7313536940579346 0 0.68199836817093118 1 I I #
point $-1 -53.622709061937321 17.491479776550548 12.251896126090472 #
plane-surface $-1 59.425641651661735 0 0 -1 0 0 0 0 1 forward_v I I I I #
coedge $-1 $282 $280 $284 $397 reversed $181 $-1 #
edge $-1 $295 -16.299221693788905 $399 16.299221693788905 $294 $465 forward 7 unknown #
vertex $-1 $397 $466 #
straight-curve $-1 -59.425641651661735 -36.049476361305764 0 0 0 -1 I I #
edge $-1 $395 -36.049476361305764 $399 36.049476361305764 $393 $467 forward 7 unknown #
straight-curve $-1 0 -36.049476361305764 -16.299221693788905 -1 0 0 I I #
vertex $-1 $287 $468 #
straight-curve $-1 0 36.049476361305764 -16.299221693788905 1 0 0 I I #
point $-1 59.425641651661735 36.049476361305764 -16.299221693788905 #
point $-1 59.425641651661735 -36.049476361305764 -16.299221693788905 #
straight-curve $-1 -59.425641651661735 0 16.299221693788905 0 -1 0 I I #
point $-1 -59.425641651661735 36.049476361305764 16.299221693788905 #
point $-1 -59.425641651661735 -36.049476361305764 16.299221693788905 #
straight-curve $-1 59.425641651661735 -36.049476361305764 0 0 0 -1 I I #
straight-curve $-1 59.425641651661735 36.049476361305764 0 0 0 -1 I I #
plane-surface $-1 59.425641651661735 0 0 -1 0 0 0 0 1 forward_v I I I I #
coedge $-1 $411 $423 $310 $415 forward $305 $-1 #
coedge $-1 $308 $307 $316 $421 reversed $121 $-1 #
coedge $-1 $469 $409 $308 $412 forward $305 $-1 #
edge $-1 $413 23.118956139227571 $470 36.049476361305764 $308 $471 forward 7 unknown #
vertex $-1 $412 $472 #
straight-curve $-1 -59.425641651661735 -23.118956139227571 6.6204924519302573 0 0 -1 I I #
edge $-1 $416 -59.425641651661735 $413 59.425641651661735 $409 $473 forward 7 unknown #
vertex $-1 $311 $474 #
straight-curve $-1 59.425641651661735 -23.118956139227571 6.6204924519302573 0 0 1 I I #
point $-1 -59.425641651661735 -23.118956139227571 10.182748113932124 #
straight-curve $-1 -59.425641651661735 -14.792108125133334 10.182748113932124 0 -1 0 I I #
coedge $-1 $316 $315 $469 $475 reversed $200 $-1 #
edge $-1 $470 -16.299221693788905 $317 -10.182748113932124 $410 $476 forward 7 unknown #
point $-1 -59.425641651661735 -36.049476361305764 10.182748113932124 #
coedge $-1 $409 $469 $319 $424 forward $305 $-1 #
edge $-1 $425 -36.049476361305764 $416 -23.118956139227571 $319 $477 forward 7 unknown #
vertex $-1 $424 $478 #
straight-curve $-1 59.425641651661735 -36.049476361305764 0 0 0 -1 I I #
coedge $-1 $333 $332 $325 $428 forward $323 $-1 #
edge $-1 $435 72.623610073914193 $430 78.748827733210817 $427 $479 forward 7 unknown #
edge $-1 $330 54.101071310059694 $435 59.425641651661735 $329 $480 forward 7 unknown #
vertex $-1 $428 $481 #
straight-curve $-1 -18.547814733355139 -23.118956139227571 99.872207150389315 -0.65605901945558964 0 0.75470958851134928 I I #
edge $-1 $430 -13.994647442553662 $334 -4.253969950794156 $333 $482 forward 7 unknown #
point $-1 54.101071310059694 -23.118956139227571 16.299221693788905 #
point $-1 59.425641651661735 -13.378278647468065 10.174004034492285 #
vertex $-1 $337 $483 #
straight-curve $-1 59.425641651661735 0 16.299221693788905 0 1 0 I I #
vertex $-1 $340 $484 #
point $-1 55.858496349979475 -18.248617393347818 11.787523483458962 #
coedge $-1 $441 $353 $347 $440 reversed $344 $-1 #
edge $-1 $448 -16.299221693788905 $355 -10.174004034492285 $439 $485 forward 7 unknown #
coedge $-1 $348 $439 $350 $443 reversed $344 $-1 #
straight-curve $-1 59.425641651661735 26.308798869546262 88.922831767703101 0 0 -1 I I #
edge $-1 $351 26.308798869546262 $448 36.049476361305764 $441 $486 forward 7 unknown #
point $-1 59.425641651661735 26.308798869546262 16.299221693788905 #
straight-curve $-1 59.425641651661735 15.589568807713007 10.17400403449227 0 1 0 I I #
point $-1 59.425641651661735 36.049476361305771 10.174004034492285 #
point $-1 59.425641651661735 26.308798869546262 10.174004034492285 #
vertex $-1 $443 $487 #
straight-curve $-1 0 36.049476361305764 16.299221693788905 -1 0 0 I I #
vertex $-1 $362 $488 #
point $-1 55.858496349979475 31.179137615426015 11.787523483458962 #
edge $-1 $453 30.58222776094205 $456 40.040875632680809 $367 $489 forward 7 unknown #
vertex $-1 $381 $490 #
straight-curve $-1 -70.241011459774683 21.182109010238072 16.299221693788901 -1 0 0 I I #
edge $-1 $456 -13.820355084595615 $378 -0.90315276668929911 $377 $491 forward 7 unknown #
vertex $-1 $455 $492 #
straight-curve $-1 -59.425641651661721 21.182109010238072 6.8405738220501604 0.7313536940579346 0 0.68199836817093118 I I #
point $-1 -49.282483860328753 21.182109010238072 16.299221693788905 #
point $-1 -59.425641651661735 8.2649066923317562 6.8405738220501471 #
straight-curve $-1 -59.425641651661735 0 16.299221693788905 0 -1 0 I I #
vertex $-1 $384 $493 #
point $-1 -51.302765700890035 11.955535926019273 9.7640615119732352 #
vertex $-1 $388 $494 #
point $-1 -51.302765700890035 17.491479776550548 9.7640615119732352 #
straight-curve $-1 -59.425641651661735 36.049476361305764 0 0 0 -1 I I #
point $-1 -59.425641651661735 -36.049476361305764 -16.299221693788905 #
straight-curve $-1 -59.425641651661735 0 -16.299221693788905 0 1 0 I I #
point $-1 -59.425641651661735 36.049476361305764 -16.299221693788905 #
coedge $-1 $423 $411 $420 $475 forward $305 $-1 #
vertex $-1 $412 $495 #
straight-curve $-1 -59.425641651661735 0 16.299221693788905 0 -1 0 I I #
point $-1 -59.425641651661735 -23.118956139227571 16.299221693788905 #
straight-curve $-1 0 -23.118956139227571 16.299221693788905 -1 0 0 I I #
point $-1 59.425641651661735 -23.118956139227571 16.299221693788905 #
edge $-1 $470 -59.425641651661735 $425 59.425641651661735 $420 $496 forward 7 unknown #
straight-curve $-1 -59.425641651661735 -36.049476361305764 0 0 0 -1 I I #
straight-curve $-1 59.425641651661735 0 16.299221693788905 0 1 0 I I #
point $-1 59.425641651661735 -36.049476361305764 16.299221693788905 #
straight-curve $-1 59.425641651661735 -23.118956139227571 88.922831767703101 0 0 -1 I I #
straight-curve $-1 0 -23.118956139227571 16.299221693788905 1 0 0 I I #
point $-1 59.425641651661735 -23.118956139227571 10.174004034492285 #
straight-curve $-1 59.425641651661735 -9.1243086966739089 10.17400403449227 0 1 0 I I #
point $-1 59.425641651661735 -23.118956139227571 16.299221693788905 #
point $-1 55.153112045996004 -18.248617393347818 11.836848767986842 #
straight-curve $-1 59.425641651661735 36.049476361305764 0 0 0 -1 I I #
straight-curve $-1 59.425641651661735 0 16.299221693788905 0 1 0 I I #
point $-1 59.425641651661735 36.049476361305764 16.299221693788905 #
point $-1 55.153112045996004 31.179137615426015 11.836848767986842 #
straight-curve $-1 -59.425641651661735 21.182109010238072 46.881449454730955 0 0 -1 I I #
point $-1 -59.425641651661735 21.182109010238072 16.299221693788905 #
straight-curve $-1 -59.425641651661735 7.3617539256424571 6.8405738220501453 0 -1 0 I I #
point $-1 -59.425641651661735 21.182109010238072 6.8405738220501471 #
point $-1 -51.352121026777034 11.955535926019273 8.3507094497443699 #
point $-1 -51.352121026777034 17.491479776550548 8.3507094497443699 #
point $-1 -59.425641651661735 -36.049476361305764 16.299221693788905 #
straight-curve $-1 0 -36.049476361305764 16.299221693788905 1 0 0 I I #
End-of-ACIS-data 