500 0 8 0           
7 Unknown 11 ACIS 5.0 NT 24 Fri Mar 26 18:03:26 1999 
-1 9.9999999999999995e-007 1e-010 
body $-1 $8 $-1 $9 #
body $-1 $10 $-1 $11 #
body $-1 $12 $-1 $13 #
body $-1 $14 $-1 $15 #
body $-1 $16 $-1 $17 #
body $-1 $18 $-1 $19 #
body $-1 $20 $-1 $21 #
body $-1 $22 $-1 $23 #
lump $-1 $-1 $24 $0 #
transform $-1 1 0 0 0 1 0 0 0 1 48.264412366100039 22.681342625793985 7.9377431082195491 1 rotate no_reflect no_shear #
lump $-1 $-1 $25 $1 #
transform $-1 1 0 0 0 1 0 0 0 1 48.264412366100039 22.681342625793985 7.9377431082195491 1 rotate no_reflect no_shear #
lump $-1 $-1 $26 $2 #
transform $-1 1 0 0 0 1 0 0 0 1 48.264412366100039 22.681342625793985 7.9377431082195491 1 rotate no_reflect no_shear #
lump $-1 $-1 $27 $3 #
transform $-1 1 0 0 0 1 0 0 0 1 48.264412366100039 22.681342625793985 7.9377431082195491 1 rotate no_reflect no_shear #
lump $-1 $-1 $28 $4 #
transform $-1 1 0 0 0 1 0 0 0 1 48.264412366100039 22.681342625793985 7.9377431082195491 1 rotate no_reflect no_shear #
lump $-1 $-1 $29 $5 #
transform $-1 1 0 0 0 1 0 0 0 1 48.264412366100039 22.681342625793985 7.9377431082195491 1 rotate no_reflect no_shear #
lump $-1 $-1 $30 $6 #
transform $-1 1 0 0 0 1 0 0 0 1 48.264412366100039 22.681342625793985 7.9377431082195491 1 rotate no_reflect no_shear #
lump $-1 $-1 $31 $7 #
transform $-1 1 0 0 0 1 0 0 0 1 48.264412366100039 22.681342625793985 7.9377431082195491 1 rotate no_reflect no_shear #
shell $-1 $-1 $-1 $32 $-1 $8 #
shell $-1 $-1 $-1 $33 $-1 $10 #
shell $-1 $-1 $-1 $34 $-1 $12 #
shell $-1 $-1 $-1 $35 $-1 $14 #
shell $-1 $-1 $-1 $36 $-1 $16 #
shell $-1 $-1 $-1 $37 $-1 $18 #
shell $-1 $-1 $-1 $38 $-1 $20 #
shell $-1 $-1 $-1 $39 $-1 $22 #
face $-1 $40 $41 $24 $-1 $42 forward single #
face $-1 $43 $44 $25 $-1 $45 reversed single #
face $-1 $46 $47 $26 $-1 $48 reversed single #
face $-1 $49 $50 $27 $-1 $51 forward single #
face $-1 $52 $53 $28 $-1 $54 forward single #
face $-1 $55 $56 $29 $-1 $57 reversed single #
face $-1 $58 $59 $30 $-1 $60 forward single #
face $-1 $61 $62 $31 $-1 $63 forward single #
face $-1 $64 $65 $24 $-1 $66 reversed single #
loop $-1 $-1 $67 $32 #
plane-surface $-1 0 0 7.9377431082195491 0 0 1 1 0 0 forward_v I I I I #
face $-1 $68 $69 $25 $-1 $70 reversed single #
loop $-1 $-1 $71 $33 #
plane-surface $-1 -43.074506280450514 0 4.9377431082195491 0 0 1 1 0 0 forward_v I I I I #
face $-1 $72 $73 $26 $-1 $74 reversed single #
loop $-1 $-1 $75 $34 #
plane-surface $-1 39.90191983929919 -99.772690593907498 62.333888626785239 -1 0 0 0 -0.79863551827123203 0.60181501223851219 forward_v I I I I #
face $-1 $76 $77 $27 $-1 $78 forward single #
loop $-1 $79 $80 $35 #
cone-surface $-1 26.666268429824193 -20.606578028302025 5.5755953007371177 0 0.79863551827123203 -0.60181501223851219 0.5 0 0 1 I I 0 1 0.5 forward I I I I #
face $-1 $81 $82 $28 $-1 $83 forward single #
loop $-1 $84 $85 $36 #
cone-surface $-1 34.607659275509199 -20.606578028302025 5.5755953007371177 0 0.79863551827123203 -0.60181501223851219 0.5 0 0 1 I I 0 1 0.5 forward I I I I #
face $-1 $86 $87 $29 $-1 $88 reversed single #
loop $-1 $-1 $89 $37 #
plane-surface $-1 31.438182760444633 42.720379917848263 105.43328507321012 1 0 0 0 -0.5877852598018023 -0.80901698891910034 forward_v I I I I #
face $-1 $90 $91 $30 $-1 $92 forward single #
loop $-1 $93 $94 $38 #
cone-surface $-1 36.245676933489044 16.404350465012307 2.5456168932731762 0 -0.5877852598018023 -0.80901698891910034 2 0 0 1 I I 0 1 2 forward I I I I #
face $-1 $95 $96 $31 $-1 $97 forward single #
loop $-1 $98 $99 $39 #
cone-surface $-1 43.45691819305565 16.404350465012307 2.5456168932731762 0 -0.5877852598018023 -0.80901698891910034 2 0 0 1 I I 0 1 2 forward I I I I #
face $-1 $100 $101 $24 $-1 $102 reversed single #
loop $-1 $-1 $103 $40 #
plane-surface $-1 0 0 -7.9377431082195491 0 0 1 1 0 0 forward_v I I I I #
coedge $-1 $104 $105 $106 $107 forward $41 $-1 #
face $-1 $108 $109 $25 $-1 $110 reversed single #
loop $-1 $-1 $111 $43 #
plane-surface $-1 -37.884600194800989 0 6.4377431082195491 -1 0 0 0 0 1 forward_v I I I I #
coedge $-1 $112 $113 $114 $115 forward $44 $-1 #
face $-1 $116 $117 $26 $-1 $118 reversed single #
loop $-1 $-1 $119 $46 #
plane-surface $-1 30.636963852666689 -22.681342625793974 4.2413927892070475 0 -0.79863551827123203 0.60181501223851219 1 0 0 forward_v I I I I #
coedge $-1 $120 $121 $122 $123 reversed $47 $-1 #
face $-1 $-1 $124 $27 $-1 $125 forward single #
loop $-1 $126 $127 $49 #
cone-surface $-1 26.666268429824193 -19.724854388390526 4.9111688997013063 0 0.79863551827123203 -0.60181501223851219 0.25 0 0 1 I I -0.70710678118654746 0.70710678118654746 0.25 forward I I I I #
loop $-1 $-1 $128 $35 #
coedge $-1 $80 $80 $129 $130 reversed $50 $-1 #
face $-1 $-1 $131 $28 $-1 $132 forward single #
loop $-1 $133 $134 $52 #
cone-surface $-1 34.607659275509199 -19.724854388390526 4.9111688997013063 0 0.79863551827123203 -0.60181501223851219 0.25 0 0 1 I I -0.70710678118654746 0.70710678118654746 0.25 forward I I I I #
loop $-1 $-1 $135 $36 #
coedge $-1 $85 $85 $136 $137 reversed $53 $-1 #
face $-1 $138 $139 $29 $-1 $140 forward single #
loop $-1 $-1 $141 $55 #
plane-surface $-1 39.851297563272333 -14.017840405730603 27.339825944466028 0 0.5877852598018023 0.80901698891910034 1 0 0 forward_v I I I I #
coedge $-1 $142 $143 $144 $145 reversed $56 $-1 #
face $-1 $-1 $146 $30 $-1 $147 forward single #
loop $-1 $148 $149 $58 #
cone-surface $-1 36.245676933489044 14.536826803174296 -0.024808860759530482 0 -0.5877852598018023 -0.80901698891910034 1 0 0 1 I I -0.70710678118654746 0.70710678118654746 1 forward I I I I #
loop $-1 $-1 $150 $38 #
coedge $-1 $94 $94 $151 $152 reversed $59 $-1 #
face $-1 $-1 $153 $31 $-1 $154 forward single #
loop $-1 $155 $156 $61 #
cone-surface $-1 43.45691819305565 14.536826803174296 -0.024808860759530482 0 -0.5877852598018023 -0.80901698891910034 1 0 0 1 I I -0.70710678118654746 0.70710678118654746 1 forward I I I I #
loop $-1 $-1 $157 $39 #
coedge $-1 $99 $99 $158 $159 reversed $62 $-1 #
face $-1 $160 $161 $24 $-1 $162 reversed single #
loop $-1 $-1 $163 $64 #
plane-surface $-1 0 -22.681342625793985 0 0 1 0 0 0 1 forward_v I I I I #
coedge $-1 $164 $165 $166 $167 forward $65 $-1 #
coedge $-1 $168 $67 $169 $170 forward $41 $-1 #
coedge $-1 $67 $168 $171 $172 forward $41 $-1 #
coedge $-1 $173 $174 $67 $107 reversed $175 $-1 #
edge $-1 $176 -22.681342625793985 $177 22.681342625793985 $106 $178 forward 7 unknown #
face $-1 $179 $180 $25 $-1 $181 reversed single #
loop $-1 $-1 $182 $68 #
plane-surface $-1 0 22.681342625793985 0 0 -1 0 0 0 -1 forward_v I I I I #
coedge $-1 $114 $183 $184 $185 reversed $69 $-1 #
coedge $-1 $186 $71 $187 $188 reversed $44 $-1 #
coedge $-1 $71 $186 $189 $190 reversed $44 $-1 #
coedge $-1 $191 $111 $71 $115 reversed $69 $-1 #
edge $-1 $192 -22.681342625793985 $193 22.681342625793985 $114 $194 forward 7 unknown #
face $-1 $195 $196 $26 $-1 $197 reversed single #
loop $-1 $-1 $198 $72 #
plane-surface $-1 21.372007866034188 -99.772690593907498 62.333888626785239 1 0 0 0 0.79863551827123203 -0.60181501223851219 forward_v I I I I #
coedge $-1 $199 $200 $201 $202 reversed $73 $-1 #
coedge $-1 $121 $75 $203 $204 reversed $47 $-1 #
coedge $-1 $75 $120 $199 $205 reversed $47 $-1 #
coedge $-1 $201 $206 $75 $123 forward $207 $-1 #
edge $-1 $208 27.205002671159765 $209 29.990402345456314 $122 $210 forward 7 unknown #
loop $-1 $-1 $129 $76 #
plane-surface $-1 30.636963852666689 -22.681342625793974 4.2413927892070475 0 -0.79863551827123203 0.60181501223851219 1 0 0 forward_v I I I I #
loop $-1 $-1 $211 $49 #
coedge $-1 $127 $127 $128 $212 reversed $77 $-1 #
coedge $-1 $128 $128 $127 $212 forward $79 $-1 #
coedge $-1 $129 $129 $80 $130 forward $124 $-1 #
edge $-1 $213 -2.8978269010400537e-015 $213 6.2831853071795978 $129 $214 forward 7 unknown #
loop $-1 $-1 $136 $81 #
plane-surface $-1 30.636963852666689 -22.681342625793974 4.2413927892070475 0 -0.79863551827123203 0.60181501223851219 1 0 0 forward_v I I I I #
loop $-1 $-1 $215 $52 #
coedge $-1 $134 $134 $135 $216 reversed $82 $-1 #
coedge $-1 $135 $135 $134 $216 forward $84 $-1 #
coedge $-1 $136 $136 $85 $137 forward $131 $-1 #
edge $-1 $217 -2.8978269010400537e-015 $217 6.2831853071795978 $136 $218 forward 7 unknown #
face $-1 $219 $220 $29 $-1 $221 reversed single #
loop $-1 $-1 $144 $86 #
plane-surface $-1 0 0 7.9377431082195491 0 0 1 1 0 0 forward_v I I I I #
coedge $-1 $222 $223 $224 $225 reversed $87 $-1 #
coedge $-1 $143 $89 $226 $227 reversed $56 $-1 #
coedge $-1 $89 $142 $222 $228 reversed $56 $-1 #
coedge $-1 $224 $229 $89 $145 forward $139 $-1 #
edge $-1 $230 -1.3211526668698532 $231 8.6733548506211093 $144 $232 forward 7 unknown #
loop $-1 $-1 $151 $90 #
plane-surface $-1 39.851297563272333 -14.017840405730603 27.339825944466028 0 0.5877852598018023 0.80901698891910034 1 0 0 forward_v I I I I #
loop $-1 $-1 $233 $58 #
coedge $-1 $149 $149 $150 $234 reversed $91 $-1 #
coedge $-1 $150 $150 $149 $234 forward $93 $-1 #
coedge $-1 $151 $151 $94 $152 forward $146 $-1 #
edge $-1 $235 -6.5112987123772859e-016 $235 6.2831853071795996 $151 $236 forward 7 unknown #
loop $-1 $-1 $158 $95 #
plane-surface $-1 39.851297563272333 -14.017840405730603 27.339825944466028 0 0.5877852598018023 0.80901698891910034 1 0 0 forward_v I I I I #
loop $-1 $-1 $237 $61 #
coedge $-1 $156 $156 $157 $238 reversed $96 $-1 #
coedge $-1 $157 $157 $156 $238 forward $98 $-1 #
coedge $-1 $158 $158 $99 $159 forward $153 $-1 #
edge $-1 $239 -6.5112987123772859e-016 $239 6.2831853071795996 $158 $240 forward 7 unknown #
face $-1 $241 $242 $24 $-1 $243 reversed single #
loop $-1 $-1 $244 $100 #
plane-surface $-1 -48.264412366100039 0 0 1 0 0 0 0 -1 forward_v I I I I #
coedge $-1 $245 $171 $246 $247 forward $101 $-1 #
coedge $-1 $248 $103 $245 $249 forward $65 $-1 #
coedge $-1 $103 $248 $250 $251 forward $65 $-1 #
coedge $-1 $174 $173 $103 $167 reversed $175 $-1 #
edge $-1 $252 -22.681342625793985 $253 22.681342625793985 $166 $254 forward 7 unknown #
coedge $-1 $105 $104 $255 $256 forward $41 $-1 #
coedge $-1 $257 $258 $104 $170 reversed $242 $-1 #
edge $-1 $177 -48.264412366100039 $259 48.264412366100039 $169 $260 forward 7 unknown #
coedge $-1 $163 $261 $105 $172 reversed $101 $-1 #
edge $-1 $262 -48.264412366100039 $176 48.264412366100039 $171 $263 forward 7 unknown #
coedge $-1 $166 $106 $261 $264 forward $175 $-1 #
coedge $-1 $106 $166 $257 $265 reversed $175 $-1 #
loop $-1 $-1 $173 $241 #
vertex $-1 $107 $266 #
vertex $-1 $107 $267 #
straight-curve $-1 48.264412366100039 0 7.9377431082195491 0 1 0 I I #
face $-1 $268 $269 $25 $-1 $270 forward single #
loop $-1 $-1 $271 $108 #
plane-surface $-1 -48.264412366100039 0 0 1 0 0 0 0 -1 forward_v I I I I #
coedge $-1 $189 $272 $191 $273 forward $109 $-1 #
coedge $-1 $111 $191 $274 $275 reversed $69 $-1 #
coedge $-1 $276 $187 $111 $185 forward $277 $-1 #
edge $-1 $193 1.7188715541097745 $278 4.718871554109775 $184 $279 forward 7 unknown #
coedge $-1 $113 $112 $271 $280 reversed $44 $-1 #
coedge $-1 $184 $281 $112 $188 forward $277 $-1 #
edge $-1 $282 -26.727159225874782 $193 -16.347347054575732 $187 $283 forward 7 unknown #
coedge $-1 $284 $182 $113 $190 forward $109 $-1 #
edge $-1 $192 16.347347054575732 $285 26.727159225874782 $189 $286 forward 7 unknown #
coedge $-1 $183 $114 $182 $273 reversed $69 $-1 #
vertex $-1 $190 $287 #
vertex $-1 $188 $288 #
straight-curve $-1 -37.884600194800989 0 4.9377431082195491 0 -1 0 I I #
face $-1 $-1 $207 $26 $-1 $289 forward single #
loop $-1 $-1 $290 $116 #
plane-surface $-1 0 -22.681342625793985 0 0 1 0 0 0 1 forward_v I I I I #
coedge $-1 $291 $292 $293 $294 reversed $117 $-1 #
coedge $-1 $295 $119 $121 $205 forward $73 $-1 #
coedge $-1 $119 $295 $291 $296 forward $73 $-1 #
coedge $-1 $293 $122 $119 $202 forward $207 $-1 #
edge $-1 $209 -24.583437912965845 $297 -6.0535259397008438 $201 $298 forward 7 unknown #
coedge $-1 $299 $300 $120 $204 forward $196 $-1 #
edge $-1 $301 -26.925551524185586 $208 -23.229201205173069 $203 $302 forward 7 unknown #
edge $-1 $209 -4.6283319918125025 $301 1.7763522598814293e-014 $121 $303 forward 7 unknown #
coedge $-1 $122 $293 $299 $304 forward $207 $-1 #
loop $-1 $-1 $293 $195 #
vertex $-1 $204 $305 #
vertex $-1 $123 $306 #
straight-curve $-1 39.90191983929919 -49.886345296953749 7.93774310821955 0 1 0 I I #
coedge $-1 $211 $211 $-1 $307 reversed $126 $-1 #
edge $-1 $308 0 $308 6.2831853071796004 $127 $309 forward 7 unknown #
vertex $-1 $130 $310 #
ellipse-curve $-1 26.666268429824193 -21.288642788645706 6.0895679487132943 0 -0.79863551827123203 0.60181501223851219 0.5 0 0 1 I I #
coedge $-1 $215 $215 $-1 $311 reversed $133 $-1 #
edge $-1 $312 0 $312 6.2831853071796004 $134 $313 forward 7 unknown #
vertex $-1 $137 $314 #
ellipse-curve $-1 34.607659275509199 -21.288642788645706 6.0895679487132943 0 -0.79863551827123203 0.60181501223851219 0.5 0 0 1 I I #
face $-1 $-1 $315 $29 $-1 $316 reversed single #
loop $-1 $-1 $317 $138 #
plane-surface $-1 48.264412366100039 0 0 -1 0 0 0 0 1 forward_v I I I I #
coedge $-1 $318 $141 $143 $228 forward $87 $-1 #
coedge $-1 $141 $318 $317 $319 reversed $87 $-1 #
coedge $-1 $320 $144 $141 $225 forward $139 $-1 #
edge $-1 $231 11.512533978808467 $321 28.338763584463866 $224 $322 forward 7 unknown #
coedge $-1 $323 $324 $142 $227 forward $315 $-1 #
edge $-1 $325 -52.040334328051053 $230 -44.778899428385508 $226 $326 forward 7 unknown #
edge $-1 $231 33.008794475024338 $325 45.362685251587969 $143 $327 forward 7 unknown #
coedge $-1 $144 $320 $323 $328 forward $139 $-1 #
vertex $-1 $227 $329 #
vertex $-1 $145 $330 #
straight-curve $-1 31.438182760444633 21.360189958924131 7.93774310821955 0 -1 0 I I #
coedge $-1 $233 $233 $-1 $331 reversed $148 $-1 #
edge $-1 $332 0 $332 6.2831853071796004 $149 $333 forward 7 unknown #
vertex $-1 $152 $334 #
ellipse-curve $-1 36.245676933489044 17.684088867048509 4.3070256583867756 0 0.5877852598018023 0.80901698891910034 2 0 0 1 I I #
coedge $-1 $237 $237 $-1 $335 reversed $155 $-1 #
edge $-1 $336 0 $336 6.2831853071796004 $156 $337 forward 7 unknown #
vertex $-1 $159 $338 #
ellipse-curve $-1 43.45691819305565 17.684088867048509 4.3070256583867756 0 0.5877852598018023 0.80901698891910034 2 0 0 1 I I #
face $-1 $-1 $175 $24 $-1 $339 reversed single #
loop $-1 $-1 $257 $160 #
plane-surface $-1 0 22.681342625793985 0 0 -1 0 0 0 -1 forward_v I I I I #
coedge $-1 $340 $255 $258 $341 forward $161 $-1 #
coedge $-1 $261 $163 $164 $249 reversed $101 $-1 #
coedge $-1 $255 $340 $163 $247 reversed $161 $-1 #
edge $-1 $262 -7.9377431082195491 $342 7.9377431082195491 $246 $343 forward 7 unknown #
coedge $-1 $165 $164 $340 $344 forward $65 $-1 #
edge $-1 $253 -48.264412366100039 $342 48.264412366100039 $245 $345 forward 7 unknown #
coedge $-1 $258 $257 $165 $251 reversed $242 $-1 #
edge $-1 $346 -48.264412366100039 $252 48.264412366100039 $250 $347 forward 7 unknown #
vertex $-1 $167 $348 #
vertex $-1 $264 $349 #
straight-curve $-1 48.264412366100039 0 -7.9377431082195491 0 -1 0 I I #
coedge $-1 $244 $246 $168 $256 reversed $161 $-1 #
edge $-1 $259 -22.681342625793985 $262 22.681342625793985 $255 $350 forward 7 unknown #
coedge $-1 $250 $169 $174 $265 forward $242 $-1 #
coedge $-1 $169 $250 $244 $341 reversed $242 $-1 #
vertex $-1 $170 $351 #
straight-curve $-1 0 22.681342625793985 7.9377431082195491 -1 0 0 I I #
coedge $-1 $171 $245 $173 $264 reversed $101 $-1 #
vertex $-1 $256 $352 #
straight-curve $-1 0 -22.681342625793985 7.9377431082195491 1 0 0 I I #
edge $-1 $176 -7.9377431082195491 $253 7.9377431082195491 $173 $353 forward 7 unknown #
edge $-1 $177 -7.9377431082195491 $252 7.9377431082195491 $174 $354 forward 7 unknown #
point $-1 48.264412366100039 -22.681342625793985 7.9377431082195491 #
point $-1 48.264412366100039 22.681342625793985 7.9377431082195491 #
face $-1 $-1 $277 $25 $-1 $355 reversed single #
loop $-1 $-1 $274 $179 #
plane-surface $-1 0 0 7.9377431082195491 0 0 1 1 0 0 forward_v I I I I #
coedge $-1 $356 $357 $186 $280 forward $180 $-1 #
coedge $-1 $182 $284 $358 $359 reversed $109 $-1 #
edge $-1 $360 -4.718871554109775 $192 -1.7188715541097745 $182 $361 forward 7 unknown #
coedge $-1 $358 $362 $183 $275 forward $269 $-1 #
edge $-1 $278 -22.681342625793985 $360 22.681342625793985 $274 $363 forward 7 unknown #
coedge $-1 $281 $184 $362 $364 reversed $277 $-1 #
loop $-1 $-1 $184 $268 #
vertex $-1 $185 $365 #
straight-curve $-1 -37.884600194800989 -22.681342625793985 3.2188715541097745 0 0 1 I I #
edge $-1 $285 -22.681342625793985 $282 22.681342625793985 $271 $366 forward 7 unknown #
coedge $-1 $187 $276 $356 $367 forward $277 $-1 #
vertex $-1 $280 $368 #
straight-curve $-1 -21.537253140225257 -22.681342625793985 4.9377431082195491 1 0 0 I I #
coedge $-1 $272 $189 $357 $369 reversed $109 $-1 #
vertex $-1 $280 $370 #
straight-curve $-1 -21.537253140225257 22.681342625793985 4.9377431082195491 -1 0 0 I I #
point $-1 -37.884600194800989 22.681342625793985 4.9377431082195491 #
point $-1 -37.884600194800989 -22.681342625793985 4.9377431082195491 #
plane-surface $-1 0 0 7.9377431082195491 0 0 1 1 0 0 forward_v I I I I #
coedge $-1 $300 $299 $292 $371 forward $196 $-1 #
coedge $-1 $292 $198 $200 $296 reversed $117 $-1 #
coedge $-1 $198 $291 $290 $371 reversed $117 $-1 #
coedge $-1 $206 $201 $198 $294 forward $207 $-1 #
edge $-1 $297 -29.990402345456314 $372 -27.205002671159765 $293 $373 forward 7 unknown #
coedge $-1 $200 $199 $300 $374 reversed $73 $-1 #
edge $-1 $375 -1.7763522598814293e-014 $297 4.6283319918125025 $291 $376 forward 7 unknown #
vertex $-1 $202 $377 #
straight-curve $-1 15.318481926333344 -19.895942951497435 7.9377431082195491 -1 0 0 I I #
coedge $-1 $290 $203 $206 $304 reversed $196 $-1 #
coedge $-1 $203 $290 $295 $374 forward $196 $-1 #
vertex $-1 $204 $378 #
straight-curve $-1 39.90191983929919 -22.681342625793981 31.166944313392619 0 0 1 I I #
straight-curve $-1 39.90191983929919 -22.681342625793974 4.2413927892070475 0 -0.60181501223851219 -0.79863551827123203 I I #
edge $-1 $372 21.372007866034188 $208 39.90191983929919 $299 $379 forward 7 unknown #
point $-1 39.90191983929919 -22.681342625793985 7.9377431082195491 #
point $-1 39.90191983929919 -19.895942951497435 7.9377431082195491 #
edge $-1 $380 1 $380 0 $211 $-1 forward 7 unknown #
vertex $-1 $212 $381 #
ellipse-curve $-1 26.666268429824193 -19.924513267958332 5.061622652760934 0 -0.79863551827123203 0.60181501223851219 0.5 0 0 1 I I #
point $-1 27.166268429824193 -21.288642788645717 6.0895679487133005 #
edge $-1 $382 1 $382 0 $215 $-1 forward 7 unknown #
vertex $-1 $216 $383 #
ellipse-curve $-1 34.607659275509199 -19.924513267958332 5.061622652760934 0 -0.79863551827123203 0.60181501223851219 0.5 0 0 1 I I #
point $-1 35.107659275509199 -21.288642788645717 6.0895679487133005 #
loop $-1 $-1 $226 $219 #
plane-surface $-1 0 22.681342625793985 0 0 -1 0 0 0 -1 forward_v I I I I #
coedge $-1 $384 $385 $223 $319 forward $220 $-1 #
coedge $-1 $223 $222 $324 $386 reversed $87 $-1 #
edge $-1 $321 19.303485609075992 $387 31.657376385639623 $317 $388 forward 7 unknown #
coedge $-1 $229 $224 $385 $389 forward $139 $-1 #
vertex $-1 $389 $390 #
straight-curve $-1 19.925648781636166 12.686835108303026 7.9377431082195482 1 0 0 I I #
coedge $-1 $391 $226 $229 $328 reversed $315 $-1 #
coedge $-1 $226 $391 $318 $386 forward $315 $-1 #
vertex $-1 $227 $392 #
straight-curve $-1 31.438182760444633 22.681342625793985 52.716642536605058 0 0 1 I I #
straight-curve $-1 31.438182760444633 -14.017840405730603 27.339825944466028 0 0.80901698891910034 -0.5877852598018023 I I #
edge $-1 $393 -48.264412366100039 $230 -31.438182760444633 $323 $394 forward 7 unknown #
point $-1 31.438182760444633 22.681342625793985 7.9377431082195491 #
point $-1 31.438182760444633 12.686835108303022 7.93774310821955 #
edge $-1 $395 1 $395 0 $233 $-1 forward 7 unknown #
vertex $-1 $234 $396 #
ellipse-curve $-1 36.245676933489044 15.124612062976098 0.78420812815956986 0 0.5877852598018023 0.80901698891910034 2 0 0 1 I I #
point $-1 38.245676933489044 17.684088867048512 4.3070256583867828 #
edge $-1 $397 1 $397 0 $237 $-1 forward 7 unknown #
vertex $-1 $238 $398 #
ellipse-curve $-1 43.45691819305565 15.124612062976098 0.78420812815956986 0 0.5877852598018023 0.80901698891910034 2 0 0 1 I I #
point $-1 45.45691819305565 17.684088867048512 4.3070256583867828 #
plane-surface $-1 48.264412366100039 0 0 -1 0 0 0 0 1 forward_v I I I I #
coedge $-1 $246 $244 $248 $344 reversed $161 $-1 #
edge $-1 $259 -7.9377431082195491 $346 7.9377431082195491 $258 $399 forward 7 unknown #
vertex $-1 $344 $400 #
straight-curve $-1 -48.264412366100039 -22.681342625793985 0 0 0 -1 I I #
edge $-1 $342 -22.681342625793985 $346 22.681342625793985 $340 $401 forward 7 unknown #
straight-curve $-1 0 -22.681342625793985 -7.9377431082195491 -1 0 0 I I #
vertex $-1 $251 $402 #
straight-curve $-1 0 22.681342625793985 -7.9377431082195491 1 0 0 I I #
point $-1 48.264412366100039 22.681342625793985 -7.9377431082195491 #
point $-1 48.264412366100039 -22.681342625793985 -7.9377431082195491 #
straight-curve $-1 -48.264412366100039 0 7.9377431082195491 0 -1 0 I I #
point $-1 -48.264412366100039 22.681342625793985 7.9377431082195491 #
point $-1 -48.264412366100039 -22.681342625793985 7.9377431082195491 #
straight-curve $-1 48.264412366100039 -22.681342625793985 0 0 0 -1 I I #
straight-curve $-1 48.264412366100039 22.681342625793985 0 0 0 -1 I I #
plane-surface $-1 0 -22.681342625793985 0 0 1 0 0 0 1 forward_v I I I I #
coedge $-1 $403 $271 $281 $367 reversed $180 $-1 #
coedge $-1 $271 $403 $284 $369 forward $180 $-1 #
coedge $-1 $404 $274 $272 $359 forward $269 $-1 #
edge $-1 $360 37.884600194800989 $405 48.264412366100039 $272 $406 forward 7 unknown #
vertex $-1 $359 $407 #
straight-curve $-1 -37.884600194800989 22.681342625793985 3.2188715541097745 0 0 -1 I I #
coedge $-1 $274 $404 $276 $364 forward $269 $-1 #
straight-curve $-1 -37.884600194800989 0 7.9377431082195491 0 1 0 I I #
edge $-1 $408 -48.264412366100039 $278 -37.884600194800989 $276 $409 forward 7 unknown #
point $-1 -37.884600194800989 -22.681342625793985 7.9377431082195491 #
straight-curve $-1 -48.264412366100039 0 4.9377431082195491 0 -1 0 I I #
edge $-1 $408 -7.9377431082195491 $282 -4.9377431082195491 $356 $410 forward 7 unknown #
point $-1 -48.264412366100039 -22.681342625793985 4.9377431082195491 #
edge $-1 $405 -7.9377431082195491 $285 -4.9377431082195491 $284 $411 forward 7 unknown #
point $-1 -48.264412366100039 22.681342625793985 4.9377431082195491 #
edge $-1 $372 23.229201205173069 $375 26.925551524185586 $290 $412 forward 7 unknown #
vertex $-1 $304 $413 #
straight-curve $-1 21.372007866034188 -49.886345296953749 7.93774310821955 0 -1 0 I I #
edge $-1 $375 6.0535259397008438 $301 24.583437912965845 $300 $414 forward 7 unknown #
vertex $-1 $374 $415 #
straight-curve $-1 21.372007866034188 -22.681342625793974 4.2413927892070475 0 0.60181501223851219 0.79863551827123203 I I #
point $-1 21.372007866034188 -19.895942951497435 7.9377431082195491 #
point $-1 39.90191983929919 -22.681342625793985 4.2413927892070333 #
straight-curve $-1 0 -22.681342625793985 7.9377431082195491 1 0 0 I I #
vertex $-1 $307 $416 #
point $-1 27.166268429824193 -19.924513267958332 5.061622652760934 #
vertex $-1 $311 $417 #
point $-1 35.107659275509199 -19.924513267958332 5.061622652760934 #
coedge $-1 $385 $317 $391 $418 reversed $220 $-1 #
coedge $-1 $317 $384 $320 $389 reversed $220 $-1 #
edge $-1 $387 -28.338763584463866 $325 -11.512533978808467 $324 $419 forward 7 unknown #
vertex $-1 $319 $420 #
straight-curve $-1 48.264412366100039 -2.9300126947948213 19.284047412030635 0 0.80901698891910034 -0.5877852598018023 I I #
edge $-1 $321 12.686835108303022 $393 22.681342625793985 $385 $421 forward 7 unknown #
point $-1 48.264412366100032 12.686835108303022 7.93774310821955 #
coedge $-1 $324 $323 $384 $418 forward $315 $-1 #
point $-1 31.438182760444633 22.681342625793981 0.67630820855400486 #
vertex $-1 $389 $422 #
straight-curve $-1 0 22.681342625793985 7.9377431082195491 -1 0 0 I I #
vertex $-1 $331 $423 #
point $-1 38.245676933489044 15.124612062976098 0.78420812815956986 #
vertex $-1 $335 $424 #
point $-1 45.45691819305565 15.124612062976098 0.78420812815956986 #
straight-curve $-1 -48.264412366100039 22.681342625793985 0 0 0 -1 I I #
point $-1 -48.264412366100039 -22.681342625793985 -7.9377431082195491 #
straight-curve $-1 -48.264412366100039 0 -7.9377431082195491 0 1 0 I I #
point $-1 -48.264412366100039 22.681342625793985 -7.9377431082195491 #
coedge $-1 $357 $356 $404 $425 reversed $180 $-1 #
coedge $-1 $362 $358 $403 $425 forward $269 $-1 #
vertex $-1 $359 $426 #
straight-curve $-1 0 22.681342625793985 7.9377431082195491 -1 0 0 I I #
point $-1 -37.884600194800989 22.681342625793985 7.9377431082195491 #
vertex $-1 $425 $427 #
straight-curve $-1 0 -22.681342625793985 7.9377431082195491 1 0 0 I I #
straight-curve $-1 -48.264412366100039 -22.681342625793985 0 0 0 -1 I I #
straight-curve $-1 -48.264412366100039 22.681342625793985 0 0 0 -1 I I #
straight-curve $-1 21.372007866034188 -22.681342625793981 31.166944313392619 0 0 -1 I I #
point $-1 21.372007866034188 -22.681342625793985 7.9377431082195491 #
straight-curve $-1 15.318481926333344 -22.681342625793985 4.2413927892070351 1 0 0 I I #
point $-1 21.372007866034188 -22.681342625793985 4.2413927892070333 #
point $-1 26.666268429824193 -19.525195508822719 4.7607151466416786 #
point $-1 34.607659275509199 -19.525195508822719 4.7607151466416786 #
edge $-1 $393 -7.9377431082195491 $387 -0.67630820855400486 $384 $428 forward 7 unknown #
straight-curve $-1 19.925648781636166 22.681342625793985 0.67630820855400664 -1 0 0 I I #
point $-1 48.264412366100032 22.681342625793981 0.67630820855400486 #
straight-curve $-1 48.264412366100039 0 7.9377431082195491 0 1 0 I I #
point $-1 48.264412366100039 22.681342625793985 7.9377431082195491 #
point $-1 36.245676933489044 13.949041543372495 -0.83382584967863083 #
point $-1 43.45691819305565 13.949041543372495 -0.83382584967863083 #
edge $-1 $405 -22.681342625793985 $408 22.681342625793985 $403 $429 forward 7 unknown #
point $-1 -48.264412366100039 22.681342625793985 7.9377431082195491 #
point $-1 -48.264412366100039 -22.681342625793985 7.9377431082195491 #
straight-curve $-1 48.264412366100039 22.681342625793985 0 0 0 -1 I I #
straight-curve $-1 -48.264412366100039 0 7.9377431082195491 0 -1 0 I I #
End-of-ACIS-data 