500 0 4 0           
7 Unknown 11 ACIS 5.0 NT 24 Fri Mar 26 02:29:36 1999 
-1 9.9999999999999995e-007 1e-010 
body $-1 $4 $-1 $5 #
body $-1 $6 $-1 $7 #
body $-1 $8 $-1 $9 #
body $-1 $10 $-1 $11 #
lump $-1 $-1 $12 $0 #
transform $-1 1 0 0 0 1 0 0 0 1 75.583361308633684 30.32053746322417 8.4706330146824662 1 rotate no_reflect no_shear #
lump $-1 $-1 $13 $1 #
transform $-1 1 0 0 0 1 0 0 0 1 75.583361308633684 30.32053746322417 8.4706330146824662 1 rotate no_reflect no_shear #
lump $-1 $-1 $14 $2 #
transform $-1 1 0 0 0 1 0 0 0 1 75.583361308633684 30.32053746322417 8.4706330146824662 1 rotate no_reflect no_shear #
lump $-1 $-1 $15 $3 #
transform $-1 1 0 0 0 1 0 0 0 1 75.583361308633684 30.32053746322417 8.4706330146824662 1 rotate no_reflect no_shear #
shell $-1 $-1 $-1 $16 $-1 $4 #
shell $-1 $-1 $-1 $17 $-1 $6 #
shell $-1 $-1 $-1 $18 $-1 $8 #
shell $-1 $-1 $-1 $19 $-1 $10 #
face $-1 $20 $21 $12 $-1 $22 forward single #
face $-1 $23 $24 $13 $-1 $25 forward single #
face $-1 $26 $27 $14 $-1 $28 reversed single #
face $-1 $29 $30 $15 $-1 $31 forward single #
face $-1 $32 $33 $12 $-1 $34 reversed single #
loop $-1 $-1 $35 $16 #
plane-surface $-1 0 0 8.4706330146824662 0 0 1 1 0 0 forward_v I I I I #
face $-1 $36 $37 $13 $-1 $38 reversed single #
loop $-1 $-1 $39 $17 #
plane-surface $-1 0 -30.32053746322417 0 0 1 0 0 0 1 forward_v I I I I #
face $-1 $40 $41 $14 $-1 $42 reversed single #
loop $-1 $-1 $43 $18 #
plane-surface $-1 -10.49412811177347 70.114448948388869 161.7267620068292 1 0 0 0 -0.5877852598018023 -0.80901698891910034 forward_v I I I I #
face $-1 $44 $45 $15 $-1 $46 forward single #
loop $-1 $47 $48 $19 #
cone-surface $-1 4.8668227828029131 26.644628365382186 5.5060373928009341 0 -0.5877852598018023 -0.80901698891910034 0.5 0 0 1 I I 0 1 0.5 forward I I I I #
face $-1 $49 $50 $12 $-1 $51 reversed single #
loop $-1 $-1 $52 $20 #
plane-surface $-1 0 0 -8.4706330146824662 0 0 1 1 0 0 forward_v I I I I #
coedge $-1 $53 $54 $55 $56 forward $21 $-1 #
face $-1 $57 $58 $13 $-1 $59 forward single #
loop $-1 $-1 $60 $23 #
plane-surface $-1 -75.583361308633684 0 0 1 0 0 0 0 -1 forward_v I I I I #
coedge $-1 $61 $62 $63 $64 forward $24 $-1 #
face $-1 $65 $66 $14 $-1 $67 reversed single #
loop $-1 $-1 $68 $26 #
plane-surface $-1 4.8668227828029131 -18.739122378588618 39.430315250238692 0 0.5877852598018023 0.80901698891910034 1 0 0 forward_v I I I I #
coedge $-1 $69 $70 $71 $72 reversed $27 $-1 #
face $-1 $-1 $73 $15 $-1 $74 forward single #
loop $-1 $75 $76 $29 #
cone-surface $-1 4.8668227828029131 26.045429843104451 4.6813113960629984 0 -0.5877852598018023 -0.80901698891910034 0.25 0 0 1 I I -0.70710678118654879 0.70710678118654635 0.25 forward I I I I #
loop $-1 $-1 $77 $19 #
coedge $-1 $48 $48 $78 $79 reversed $30 $-1 #
face $-1 $80 $81 $12 $-1 $82 reversed single #
loop $-1 $-1 $83 $32 #
plane-surface $-1 0 -30.32053746322417 0 0 1 0 0 0 1 forward_v I I I I #
coedge $-1 $84 $85 $86 $87 forward $33 $-1 #
coedge $-1 $88 $35 $89 $90 forward $21 $-1 #
coedge $-1 $35 $88 $91 $92 forward $21 $-1 #
coedge $-1 $93 $94 $35 $56 reversed $95 $-1 #
edge $-1 $96 -30.32053746322417 $97 30.32053746322417 $55 $98 forward 7 unknown #
face $-1 $99 $100 $13 $-1 $101 reversed single #
loop $-1 $-1 $102 $36 #
plane-surface $-1 0 -35.324402282586362 4.0398232234349791 0 0 1 1 0 0 forward_v I I I I #
coedge $-1 $103 $104 $62 $105 forward $37 $-1 #
coedge $-1 $106 $39 $107 $108 reversed $24 $-1 #
coedge $-1 $39 $106 $60 $105 reversed $24 $-1 #
coedge $-1 $109 $102 $39 $64 reversed $58 $-1 #
edge $-1 $110 -75.583361308633684 $111 75.583361308633684 $63 $112 forward 7 unknown #
face $-1 $113 $114 $14 $-1 $115 forward single #
loop $-1 $-1 $116 $40 #
plane-surface $-1 20.227773677379297 70.114448948388869 161.7267620068292 -1 0 0 0 0.5877852598018023 0.80901698891910034 forward_v I I I I #
coedge $-1 $117 $118 $119 $120 reversed $41 $-1 #
coedge $-1 $70 $43 $121 $122 reversed $27 $-1 #
coedge $-1 $43 $69 $117 $123 reversed $27 $-1 #
coedge $-1 $119 $124 $43 $72 forward $114 $-1 #
edge $-1 $125 4.7366870109702646 $126 11.184000791999679 $71 $127 forward 7 unknown #
loop $-1 $-1 $78 $44 #
plane-surface $-1 4.8668227828029131 -18.739122378588618 39.430315250238692 0 0.5877852598018023 0.80901698891910034 1 0 0 forward_v I I I I #
loop $-1 $-1 $128 $29 #
coedge $-1 $76 $76 $77 $129 reversed $45 $-1 #
coedge $-1 $77 $77 $76 $129 forward $47 $-1 #
coedge $-1 $78 $78 $48 $79 forward $73 $-1 #
edge $-1 $130 -5.0474389041965091e-016 $130 6.2831853071795996 $78 $131 forward 7 unknown #
face $-1 $132 $133 $12 $-1 $134 reversed single #
loop $-1 $-1 $135 $49 #
plane-surface $-1 -75.583361308633684 0 0 1 0 0 0 0 -1 forward_v I I I I #
coedge $-1 $136 $91 $137 $138 forward $50 $-1 #
coedge $-1 $139 $52 $136 $140 forward $33 $-1 #
coedge $-1 $52 $139 $141 $142 forward $33 $-1 #
coedge $-1 $94 $93 $52 $87 reversed $95 $-1 #
edge $-1 $143 -30.32053746322417 $144 30.32053746322417 $86 $145 forward 7 unknown #
coedge $-1 $54 $53 $146 $147 forward $21 $-1 #
coedge $-1 $148 $149 $53 $90 reversed $133 $-1 #
edge $-1 $97 -75.583361308633684 $150 75.583361308633684 $89 $151 forward 7 unknown #
coedge $-1 $83 $152 $54 $92 reversed $50 $-1 #
edge $-1 $153 -75.583361308633684 $96 75.583361308633684 $91 $154 forward 7 unknown #
coedge $-1 $86 $55 $152 $155 forward $95 $-1 #
coedge $-1 $55 $86 $148 $156 reversed $95 $-1 #
loop $-1 $-1 $93 $132 #
vertex $-1 $56 $157 #
vertex $-1 $56 $158 #
straight-curve $-1 75.583361308633684 0 8.4706330146824662 0 1 0 I I #
face $-1 $159 $160 $13 $-1 $161 reversed single #
loop $-1 $-1 $162 $57 #
plane-surface $-1 0 -35.324402282586362 1.0398232234349791 0 0 1 1 0 0 forward_v I I I I #
coedge $-1 $63 $163 $164 $165 forward $58 $-1 #
coedge $-1 $166 $60 $167 $168 reversed $37 $-1 #
coedge $-1 $60 $166 $109 $169 reversed $37 $-1 #
edge $-1 $110 -4.0398232234349791 $170 -1.0398232234349791 $60 $171 forward 7 unknown #
coedge $-1 $62 $61 $172 $173 forward $24 $-1 #
coedge $-1 $164 $174 $61 $108 forward $175 $-1 #
edge $-1 $176 1.0398232234349791 $111 4.0398232234349791 $107 $177 forward 7 unknown #
coedge $-1 $163 $63 $104 $169 forward $58 $-1 #
vertex $-1 $105 $178 #
vertex $-1 $165 $179 #
straight-curve $-1 0 -30.32053746322417 4.0398232234349791 1 0 0 I I #
face $-1 $-1 $180 $14 $-1 $181 reversed single #
loop $-1 $-1 $71 $65 #
plane-surface $-1 0 0 8.4706330146824662 0 0 1 1 0 0 forward_v I I I I #
coedge $-1 $182 $183 $184 $185 reversed $66 $-1 #
coedge $-1 $186 $68 $70 $123 forward $41 $-1 #
coedge $-1 $68 $186 $182 $187 forward $41 $-1 #
coedge $-1 $184 $71 $68 $120 forward $114 $-1 #
edge $-1 $126 -12.927539503174927 $188 17.79436228597784 $119 $189 forward 7 unknown #
coedge $-1 $190 $191 $69 $122 forward $180 $-1 #
edge $-1 $192 -77.07699573347891 $125 -72.39274798873214 $121 $193 forward 7 unknown #
edge $-1 $126 52.671756767081312 $192 60.64107492644834 $70 $194 forward 7 unknown #
coedge $-1 $71 $184 $190 $195 forward $114 $-1 #
vertex $-1 $122 $196 #
vertex $-1 $72 $197 #
straight-curve $-1 -10.49412811177347 35.057224474194435 8.4706330146824627 0 -1 0 I I #
coedge $-1 $128 $128 $-1 $198 reversed $75 $-1 #
edge $-1 $199 0 $199 6.2831853071796004 $76 $200 forward 7 unknown #
vertex $-1 $79 $201 #
ellipse-curve $-1 4.8668227828029131 27.096880572709459 6.1285091423090794 0 0.5877852598018023 0.80901698891910034 0.5 0 0 1 I I #
face $-1 $-1 $95 $12 $-1 $202 reversed single #
loop $-1 $-1 $148 $80 #
plane-surface $-1 0 30.32053746322417 0 0 -1 0 0 0 -1 forward_v I I I I #
coedge $-1 $203 $146 $149 $204 forward $81 $-1 #
coedge $-1 $152 $83 $84 $140 reversed $50 $-1 #
coedge $-1 $146 $203 $83 $138 reversed $81 $-1 #
edge $-1 $153 -8.4706330146824662 $205 8.4706330146824662 $137 $206 forward 7 unknown #
coedge $-1 $85 $84 $203 $207 forward $33 $-1 #
edge $-1 $144 -75.583361308633684 $205 75.583361308633684 $136 $208 forward 7 unknown #
coedge $-1 $149 $148 $85 $142 reversed $133 $-1 #
edge $-1 $209 -75.583361308633684 $143 75.583361308633684 $141 $210 forward 7 unknown #
vertex $-1 $87 $211 #
vertex $-1 $155 $212 #
straight-curve $-1 75.583361308633684 0 -8.4706330146824662 0 -1 0 I I #
coedge $-1 $135 $137 $88 $147 reversed $81 $-1 #
edge $-1 $150 -30.32053746322417 $153 30.32053746322417 $146 $213 forward 7 unknown #
coedge $-1 $141 $89 $94 $156 forward $133 $-1 #
coedge $-1 $89 $141 $135 $204 reversed $133 $-1 #
vertex $-1 $90 $214 #
straight-curve $-1 0 30.32053746322417 8.4706330146824662 -1 0 0 I I #
coedge $-1 $91 $136 $93 $155 reversed $50 $-1 #
vertex $-1 $147 $215 #
straight-curve $-1 0 -30.32053746322417 8.4706330146824662 1 0 0 I I #
edge $-1 $96 -8.4706330146824662 $144 8.4706330146824662 $93 $216 forward 7 unknown #
edge $-1 $97 -8.4706330146824662 $143 8.4706330146824662 $94 $217 forward 7 unknown #
point $-1 75.583361308633684 -30.32053746322417 8.4706330146824662 #
point $-1 75.583361308633684 30.32053746322417 8.4706330146824662 #
face $-1 $-1 $175 $13 $-1 $218 reversed single #
loop $-1 $-1 $219 $99 #
plane-surface $-1 0 -40.328267101948555 2.5398232234349791 0 1 0 0 0 1 forward_v I I I I #
coedge $-1 $220 $172 $174 $221 forward $100 $-1 #
coedge $-1 $102 $109 $222 $223 forward $58 $-1 #
coedge $-1 $224 $107 $102 $165 reversed $175 $-1 #
edge $-1 $225 -5.0038648193621924 $111 5.0038648193621889 $164 $226 forward 7 unknown #
coedge $-1 $104 $103 $219 $227 reversed $37 $-1 #
coedge $-1 $172 $220 $103 $168 forward $100 $-1 #
edge $-1 $228 -5.0038648193621924 $170 5.0038648193621889 $103 $229 forward 7 unknown #
edge $-1 $110 -5.0038648193621889 $230 5.0038648193621924 $104 $231 forward 7 unknown #
vertex $-1 $105 $232 #
straight-curve $-1 -75.583361308633684 -30.32053746322417 0 0 0 -1 I I #
coedge $-1 $162 $167 $106 $173 reversed $100 $-1 #
edge $-1 $176 -75.583361308633684 $170 75.583361308633684 $172 $233 forward 7 unknown #
coedge $-1 $107 $224 $162 $221 reversed $175 $-1 #
loop $-1 $-1 $107 $159 #
vertex $-1 $108 $234 #
straight-curve $-1 75.583361308633684 -30.32053746322417 0 0 0 1 I I #
point $-1 -75.583361308633684 -30.320537463224174 4.0398232234349791 #
point $-1 75.583361308633684 -30.320537463224174 4.0398232234349791 #
loop $-1 $-1 $121 $113 #
plane-surface $-1 0 30.32053746322417 0 0 -1 0 0 0 -1 forward_v I I I I #
coedge $-1 $183 $116 $118 $187 reversed $66 $-1 #
coedge $-1 $116 $182 $235 $236 reversed $66 $-1 #
coedge $-1 $124 $119 $116 $185 forward $114 $-1 #
edge $-1 $188 -11.184000791999679 $237 -4.7366870109702646 $184 $238 forward 7 unknown #
coedge $-1 $118 $117 $191 $239 reversed $41 $-1 #
edge $-1 $240 -60.64107492644834 $188 -52.671756767081312 $182 $241 forward 7 unknown #
vertex $-1 $120 $242 #
straight-curve $-1 2.4334113914014566 23.873223682194748 8.4706330146824662 1 0 0 I I #
coedge $-1 $235 $121 $124 $195 reversed $180 $-1 #
coedge $-1 $121 $235 $186 $239 forward $180 $-1 #
vertex $-1 $122 $243 #
straight-curve $-1 -10.49412811177347 30.32053746322417 80.863381003414602 0 0 1 I I #
straight-curve $-1 -10.49412811177347 -18.739122378588618 39.430315250238692 0 0.80901698891910034 -0.5877852598018023 I I #
edge $-1 $237 -20.227773677379297 $125 10.49412811177347 $190 $244 forward 7 unknown #
point $-1 -10.49412811177347 30.32053746322417 8.4706330146824662 #
point $-1 -10.49412811177347 23.873223682194755 8.4706330146824662 #
edge $-1 $245 1 $245 0 $128 $-1 forward 7 unknown #
vertex $-1 $129 $246 #
ellipse-curve $-1 4.8668227828029131 26.192376158054902 4.8835656432927728 0 0.5877852598018023 0.80901698891910034 0.5 0 0 1 I I #
point $-1 5.3668227828029131 27.09688057270947 6.1285091423090945 #
plane-surface $-1 75.583361308633684 0 0 -1 0 0 0 0 1 forward_v I I I I #
coedge $-1 $137 $135 $139 $207 reversed $81 $-1 #
edge $-1 $150 -8.4706330146824662 $209 8.4706330146824662 $149 $247 forward 7 unknown #
vertex $-1 $207 $248 #
straight-curve $-1 -75.583361308633684 -30.32053746322417 0 0 0 -1 I I #
edge $-1 $205 -30.32053746322417 $209 30.32053746322417 $203 $249 forward 7 unknown #
straight-curve $-1 0 -30.32053746322417 -8.4706330146824662 -1 0 0 I I #
vertex $-1 $142 $250 #
straight-curve $-1 0 30.32053746322417 -8.4706330146824662 1 0 0 I I #
point $-1 75.583361308633684 30.32053746322417 -8.4706330146824662 #
point $-1 75.583361308633684 -30.32053746322417 -8.4706330146824662 #
straight-curve $-1 -75.583361308633684 0 8.4706330146824662 0 -1 0 I I #
point $-1 -75.583361308633684 30.32053746322417 8.4706330146824662 #
point $-1 -75.583361308633684 -30.32053746322417 8.4706330146824662 #
straight-curve $-1 75.583361308633684 -30.32053746322417 0 0 0 -1 I I #
straight-curve $-1 75.583361308633684 30.32053746322417 0 0 0 -1 I I #
plane-surface $-1 75.583361308633684 0 0 -1 0 0 0 0 1 forward_v I I I I #
coedge $-1 $251 $222 $166 $227 forward $160 $-1 #
coedge $-1 $167 $162 $251 $252 forward $100 $-1 #
edge $-1 $176 -5.0038648193621889 $253 5.0038648193621924 $174 $254 forward 7 unknown #
coedge $-1 $219 $255 $163 $223 reversed $160 $-1 #
edge $-1 $230 -75.583361308633684 $225 75.583361308633684 $222 $256 forward 7 unknown #
coedge $-1 $174 $164 $255 $257 forward $175 $-1 #
vertex $-1 $165 $258 #
straight-curve $-1 75.583361308633684 -35.324402282586362 4.0398232234349791 0 1 0 I I #
edge $-1 $230 -1.5 $228 1.5 $166 $259 forward 7 unknown #
vertex $-1 $168 $260 #
straight-curve $-1 -75.583361308633684 -35.324402282586362 1.0398232234349791 0 1 0 I I #
vertex $-1 $169 $261 #
straight-curve $-1 -75.583361308633684 -35.324402282586362 4.0398232234349791 0 -1 0 I I #
point $-1 -75.583361308633684 -30.320537463224174 1.0398232234349791 #
straight-curve $-1 0 -30.32053746322417 1.0398232234349791 -1 0 0 I I #
point $-1 75.583361308633684 -30.320537463224174 1.0398232234349791 #
coedge $-1 $191 $190 $183 $236 forward $180 $-1 #
edge $-1 $237 72.39274798873214 $240 77.07699573347891 $235 $262 forward 7 unknown #
vertex $-1 $195 $263 #
straight-curve $-1 20.227773677379297 35.057224474194435 8.4706330146824627 0 1 0 I I #
edge $-1 $240 -17.79436228597784 $192 12.927539503174927 $191 $264 forward 7 unknown #
vertex $-1 $239 $265 #
straight-curve $-1 20.227773677379297 -18.739122378588618 39.430315250238692 0 -0.80901698891910034 0.5877852598018023 I I #
point $-1 20.227773677379297 23.873223682194755 8.4706330146824662 #
point $-1 -10.49412811177347 30.32053746322417 3.7863852699356926 #
straight-curve $-1 0 30.32053746322417 8.4706330146824662 -1 0 0 I I #
vertex $-1 $198 $266 #
point $-1 5.3668227828029131 26.192376158054902 4.8835656432927728 #
straight-curve $-1 -75.583361308633684 30.32053746322417 0 0 0 -1 I I #
point $-1 -75.583361308633684 -30.32053746322417 -8.4706330146824662 #
straight-curve $-1 -75.583361308633684 0 -8.4706330146824662 0 1 0 I I #
point $-1 -75.583361308633684 30.32053746322417 -8.4706330146824662 #
coedge $-1 $255 $219 $220 $252 reversed $160 $-1 #
edge $-1 $253 -75.583361308633684 $228 75.583361308633684 $251 $267 forward 7 unknown #
vertex $-1 $257 $268 #
straight-curve $-1 75.583361308633684 -35.324402282586362 1.0398232234349791 0 -1 0 I I #
coedge $-1 $222 $251 $224 $257 reversed $160 $-1 #
straight-curve $-1 0 -40.328267101948555 4.0398232234349791 1 0 0 I I #
edge $-1 $225 -1.5 $253 1.5 $224 $269 forward 7 unknown #
point $-1 75.583361308633684 -40.328267101948555 4.0398232234349791 #
straight-curve $-1 -75.583361308633684 -40.328267101948555 2.5398232234349791 0 0 -1 I I #
point $-1 -75.583361308633684 -40.328267101948555 1.0398232234349791 #
point $-1 -75.583361308633684 -40.328267101948555 4.0398232234349791 #
straight-curve $-1 20.227773677379297 30.32053746322417 80.863381003414602 0 0 -1 I I #
point $-1 20.227773677379297 30.32053746322417 8.4706330146824662 #
straight-curve $-1 2.4334113914014566 30.32053746322417 3.7863852699356961 -1 0 0 I I #
point $-1 20.227773677379297 30.32053746322417 3.7863852699356926 #
point $-1 4.8668227828029131 25.898483528153999 4.479057148833224 #
straight-curve $-1 0 -40.328267101948555 1.0398232234349791 -1 0 0 I I #
point $-1 75.583361308633684 -40.328267101948555 1.0398232234349791 #
straight-curve $-1 75.583361308633684 -40.328267101948555 2.5398232234349791 0 0 -1 I I #
End-of-ACIS-data 