500 0 9 0           
7 Unknown 11 ACIS 5.0 NT 24 Fri Mar 26 15:27:34 1999 
-1 9.9999999999999995e-007 1e-010 
body $-1 $9 $-1 $10 #
body $-1 $11 $-1 $12 #
body $-1 $13 $-1 $14 #
body $-1 $15 $-1 $16 #
body $-1 $17 $-1 $18 #
body $-1 $19 $-1 $20 #
body $-1 $21 $-1 $22 #
body $-1 $23 $-1 $24 #
body $-1 $25 $-1 $26 #
lump $-1 $-1 $27 $0 #
transform $-1 1 0 0 0 1 0 0 0 1 68.290658284249389 28.793077195355664 13.885913360145523 1 rotate no_reflect no_shear #
lump $-1 $-1 $28 $1 #
transform $-1 1 0 0 0 1 0 0 0 1 68.290658284249389 28.793077195355664 13.885913360145523 1 rotate no_reflect no_shear #
lump $-1 $-1 $29 $2 #
transform $-1 1 0 0 0 1 0 0 0 1 68.290658284249389 28.793077195355664 13.885913360145523 1 rotate no_reflect no_shear #
lump $-1 $-1 $30 $3 #
transform $-1 1 0 0 0 1 0 0 0 1 68.290658284249389 28.793077195355664 13.885913360145523 1 rotate no_reflect no_shear #
lump $-1 $-1 $31 $4 #
transform $-1 1 0 0 0 1 0 0 0 1 68.290658284249389 28.793077195355664 13.885913360145523 1 rotate no_reflect no_shear #
lump $-1 $-1 $32 $5 #
transform $-1 1 0 0 0 1 0 0 0 1 68.290658284249389 28.793077195355664 13.885913360145523 1 rotate no_reflect no_shear #
lump $-1 $-1 $33 $6 #
transform $-1 1 0 0 0 1 0 0 0 1 68.290658284249389 28.793077195355664 13.885913360145523 1 rotate no_reflect no_shear #
lump $-1 $-1 $34 $7 #
transform $-1 1 0 0 0 1 0 0 0 1 68.290658284249389 28.793077195355664 13.885913360145523 1 rotate no_reflect no_shear #
lump $-1 $-1 $35 $8 #
transform $-1 1 0 0 0 1 0 0 0 1 68.290658284249389 28.793077195355664 13.885913360145523 1 rotate no_reflect no_shear #
shell $-1 $-1 $-1 $36 $-1 $9 #
shell $-1 $-1 $-1 $37 $-1 $11 #
shell $-1 $-1 $-1 $38 $-1 $13 #
shell $-1 $-1 $-1 $39 $-1 $15 #
shell $-1 $-1 $-1 $40 $-1 $17 #
shell $-1 $-1 $-1 $41 $-1 $19 #
shell $-1 $-1 $-1 $42 $-1 $21 #
shell $-1 $-1 $-1 $43 $-1 $23 #
shell $-1 $-1 $-1 $44 $-1 $25 #
face $-1 $45 $46 $27 $-1 $47 forward single #
face $-1 $48 $49 $28 $-1 $50 reversed single #
face $-1 $51 $52 $29 $-1 $53 reversed single #
face $-1 $54 $55 $30 $-1 $56 forward single #
face $-1 $57 $58 $31 $-1 $59 reversed single #
face $-1 $60 $61 $32 $-1 $62 forward single #
face $-1 $63 $64 $33 $-1 $65 reversed single #
face $-1 $66 $67 $34 $-1 $68 forward single #
face $-1 $69 $70 $35 $-1 $71 forward single #
face $-1 $72 $73 $27 $-1 $74 reversed single #
loop $-1 $-1 $75 $36 #
plane-surface $-1 0 0 13.885913360145523 0 0 1 1 0 0 forward_v I I I I #
face $-1 $76 $77 $28 $-1 $78 reversed single #
loop $-1 $-1 $79 $37 #
plane-surface $-1 -47.754027197388758 -23.356543151379505 0 1 0 0 0 0 -1 forward_v I I I I #
face $-1 $80 $81 $29 $-1 $82 reversed single #
loop $-1 $-1 $83 $38 #
plane-surface $-1 -156.08343736821686 -14.148443720321223 110.03061385472567 0 1 0 -0.64278761758704617 0 0.76604443648966558 forward_v I I I I #
face $-1 $84 $85 $30 $-1 $86 forward single #
loop $-1 $87 $88 $39 #
cone-surface $-1 -60.724446297734758 -8.5512241017827471 6.6513842490311212 0.64278761758704617 0 -0.76604443648966558 1.5320888729793312 0 1.2855752351740923 1 I I 0 1 2 forward I I I I #
face $-1 $89 $90 $31 $-1 $91 reversed single #
loop $-1 $-1 $92 $40 #
plane-surface $-1 -156.08343736821686 9.2080994310582813 110.03061385472567 0 1 0 -0.64278761758704617 0 0.76604443648966558 forward_v I I I I #
face $-1 $93 $94 $32 $-1 $95 forward single #
loop $-1 $96 $97 $41 #
cone-surface $-1 -60.724446297734758 14.805319049596761 6.6513842490311212 0.64278761758704617 0 -0.76604443648966558 1.5320888729793312 0 1.2855752351740923 1 I I 0 1 2 forward I I I I #
face $-1 $98 $99 $33 $-1 $100 reversed single #
loop $-1 $-1 $101 $42 #
plane-surface $-1 95.172662125876457 -1.4999993106251495 200.07227961318955 0 -1 0 -0.79863551827123203 0 -0.60181501223851219 forward_v I I I I #
face $-1 $102 $103 $34 $-1 $104 forward single #
loop $-1 $105 $106 $43 #
cone-surface $-1 65.028958339077832 -7.6072589068142697 10.328422079610215 -0.79863551827123203 0 -0.60181501223851219 0.60181501223851219 0 -0.79863551827123203 1 I I 0 1 1 forward I I I I #
face $-1 $107 $108 $35 $-1 $109 forward single #
loop $-1 $110 $111 $44 #
cone-surface $-1 65.028958339077832 -3.9429031491007969 10.328422079610215 -0.79863551827123203 0 -0.60181501223851219 0.60181501223851219 0 -0.79863551827123203 1 I I 0 1 1 forward I I I I #
face $-1 $112 $113 $27 $-1 $114 reversed single #
loop $-1 $-1 $115 $45 #
plane-surface $-1 0 0 -13.885913360145523 0 0 1 1 0 0 forward_v I I I I #
coedge $-1 $116 $117 $118 $119 forward $46 $-1 #
face $-1 $120 $121 $28 $-1 $122 reversed single #
loop $-1 $-1 $123 $48 #
plane-surface $-1 -45.371084620545155 -17.920009107403345 0 0 -1 0 0 0 -1 forward_v I I I I #
coedge $-1 $124 $125 $126 $127 forward $49 $-1 #
face $-1 $128 $129 $29 $-1 $130 reversed single #
loop $-1 $-1 $131 $51 #
plane-surface $-1 -68.290658284249375 -8.5512241017827506 5.4032561689933942 -0.64278761758704617 0 0.76604443648966558 0.76604443648966558 0 0.64278761758704617 forward_v I I I I #
coedge $-1 $132 $133 $134 $135 reversed $52 $-1 #
face $-1 $-1 $136 $30 $-1 $137 forward single #
loop $-1 $138 $139 $54 #
cone-surface $-1 -57.570065178914618 -8.5512241017827471 2.8921392970031121 0.64278761758704617 0 -0.76604443648966558 0.76604443648966558 0 0.64278761758704617 1 I I -0.70710678118654746 0.70710678118654746 1 forward I I I I #
loop $-1 $-1 $140 $39 #
coedge $-1 $88 $88 $141 $142 reversed $55 $-1 #
face $-1 $143 $144 $31 $-1 $145 reversed single #
loop $-1 $-1 $146 $57 #
plane-surface $-1 -68.290658284249375 14.805319049596754 5.4032561689933942 -0.64278761758704617 0 0.76604443648966558 0.76604443648966558 0 0.64278761758704617 forward_v I I I I #
coedge $-1 $147 $148 $149 $150 reversed $58 $-1 #
face $-1 $-1 $151 $32 $-1 $152 forward single #
loop $-1 $153 $154 $60 #
cone-surface $-1 -57.570065178914618 14.805319049596761 2.8921392970031121 0.64278761758704617 0 -0.76604443648966558 0.76604443648966558 0 0.64278761758704617 1 I I -0.70710678118654746 0.70710678118654746 1 forward I I I I #
loop $-1 $-1 $155 $41 #
coedge $-1 $97 $97 $156 $157 reversed $61 $-1 #
face $-1 $158 $159 $33 $-1 $160 reversed single #
loop $-1 $-1 $161 $63 #
plane-surface $-1 -13.906028417973772 -5.7750810279575333 117.87559291096635 0.79863551827123203 0 0.60181501223851219 0.60181501223851219 0 -0.79863551827123203 forward_v I I I I #
coedge $-1 $162 $163 $164 $165 reversed $64 $-1 #
face $-1 $-1 $166 $34 $-1 $167 forward single #
loop $-1 $168 $169 $66 #
cone-surface $-1 63.28536300266228 -7.6072589068142697 9.0145287894703614 -0.79863551827123203 0 -0.60181501223851219 0.3009075061192561 0 -0.39931775913561601 1 I I -0.70710678118654746 0.70710678118654746 0.5 forward I I I I #
loop $-1 $-1 $170 $43 #
coedge $-1 $106 $106 $171 $172 reversed $67 $-1 #
face $-1 $-1 $173 $35 $-1 $174 forward single #
loop $-1 $175 $176 $69 #
cone-surface $-1 63.28536300266228 -3.9429031491007969 9.0145287894703614 -0.79863551827123203 0 -0.60181501223851219 0.3009075061192561 0 -0.39931775913561601 1 I I -0.70710678118654746 0.70710678118654746 0.5 forward I I I I #
loop $-1 $-1 $177 $44 #
coedge $-1 $111 $111 $178 $179 reversed $70 $-1 #
face $-1 $180 $181 $27 $-1 $182 reversed single #
loop $-1 $-1 $183 $72 #
plane-surface $-1 0 -28.793077195355664 0 0 1 0 0 0 1 forward_v I I I I #
coedge $-1 $184 $185 $186 $187 forward $73 $-1 #
coedge $-1 $188 $75 $189 $190 forward $46 $-1 #
coedge $-1 $75 $188 $191 $192 forward $46 $-1 #
coedge $-1 $193 $194 $75 $119 reversed $195 $-1 #
edge $-1 $196 -28.793077195355664 $197 28.793077195355664 $118 $198 forward 7 unknown #
face $-1 $199 $200 $28 $-1 $201 forward single #
loop $-1 $-1 $202 $76 #
plane-surface $-1 -42.988142043701551 -23.356543151379505 0 -1 0 0 0 0 1 forward_v I I I I #
coedge $-1 $203 $204 $205 $206 forward $77 $-1 #
coedge $-1 $207 $79 $208 $209 reversed $49 $-1 #
coedge $-1 $79 $207 $210 $211 reversed $49 $-1 #
coedge $-1 $204 $203 $79 $127 reversed $77 $-1 #
edge $-1 $212 -13.885913360145523 $213 13.885913360145523 $126 $214 forward 7 unknown #
face $-1 $215 $216 $29 $-1 $217 reversed single #
loop $-1 $-1 $218 $80 #
plane-surface $-1 -156.08343736821686 -2.9540044832442778 110.03061385472567 0 -1 0 0.64278761758704617 0 -0.76604443648966558 forward_v I I I I #
coedge $-1 $219 $220 $221 $222 reversed $81 $-1 #
coedge $-1 $133 $83 $223 $224 reversed $52 $-1 #
coedge $-1 $83 $132 $219 $225 reversed $52 $-1 #
coedge $-1 $221 $226 $83 $135 forward $227 $-1 #
edge $-1 $228 9.7510603998590426 $229 19.860297370422153 $134 $230 forward 7 unknown #
loop $-1 $-1 $141 $84 #
plane-surface $-1 -68.290658284249375 -8.5512241017827506 5.4032561689933942 -0.64278761758704617 0 0.76604443648966558 0.76604443648966558 0 0.64278761758704617 forward_v I I I I #
loop $-1 $-1 $231 $54 #
coedge $-1 $139 $139 $140 $232 reversed $85 $-1 #
coedge $-1 $140 $140 $139 $232 forward $87 $-1 #
coedge $-1 $141 $141 $88 $142 forward $136 $-1 #
edge $-1 $233 0 $233 6.2831853071796004 $141 $234 forward 7 unknown #
face $-1 $235 $236 $31 $-1 $237 forward single #
loop $-1 $-1 $238 $89 #
plane-surface $-1 -156.08343736821686 20.402538668135229 110.03061385472567 0 -1 0 0.64278761758704617 0 -0.76604443648966558 forward_v I I I I #
coedge $-1 $239 $240 $241 $242 reversed $90 $-1 #
coedge $-1 $148 $92 $243 $244 reversed $58 $-1 #
coedge $-1 $92 $147 $239 $245 reversed $58 $-1 #
coedge $-1 $241 $246 $92 $150 forward $236 $-1 #
edge $-1 $247 9.7510603998590426 $248 19.860297370422153 $149 $249 forward 7 unknown #
loop $-1 $-1 $156 $93 #
plane-surface $-1 -68.290658284249375 14.805319049596754 5.4032561689933942 -0.64278761758704617 0 0.76604443648966558 0.76604443648966558 0 0.64278761758704617 forward_v I I I I #
loop $-1 $-1 $250 $60 #
coedge $-1 $154 $154 $155 $251 reversed $94 $-1 #
coedge $-1 $155 $155 $154 $251 forward $96 $-1 #
coedge $-1 $156 $156 $97 $157 forward $151 $-1 #
edge $-1 $252 0 $252 6.2831853071796004 $156 $253 forward 7 unknown #
face $-1 $254 $255 $33 $-1 $256 forward single #
loop $-1 $-1 $257 $98 #
plane-surface $-1 95.172662125876457 -10.050162745289917 200.07227961318955 0 1 0 0.79863551827123203 0 0.60181501223851219 forward_v I I I I #
coedge $-1 $258 $259 $260 $261 reversed $99 $-1 #
coedge $-1 $163 $101 $262 $263 reversed $64 $-1 #
coedge $-1 $101 $162 $258 $264 reversed $64 $-1 #
coedge $-1 $260 $265 $101 $165 forward $255 $-1 #
edge $-1 $266 -20.704327221311161 $267 -16.86948248552801 $164 $268 forward 7 unknown #
loop $-1 $-1 $171 $102 #
plane-surface $-1 -13.906028417973772 -5.7750810279575333 117.87559291096635 0.79863551827123203 0 0.60181501223851219 0.60181501223851219 0 -0.79863551827123203 forward_v I I I I #
loop $-1 $-1 $269 $66 #
coedge $-1 $169 $169 $170 $270 reversed $103 $-1 #
coedge $-1 $170 $170 $169 $270 forward $105 $-1 #
coedge $-1 $171 $171 $106 $172 forward $166 $-1 #
edge $-1 $271 0 $271 6.2831853071796004 $171 $272 forward 7 unknown #
loop $-1 $-1 $178 $107 #
plane-surface $-1 -13.906028417973772 -5.7750810279575333 117.87559291096635 0.79863551827123203 0 0.60181501223851219 0.60181501223851219 0 -0.79863551827123203 forward_v I I I I #
loop $-1 $-1 $273 $69 #
coedge $-1 $176 $176 $177 $274 reversed $108 $-1 #
coedge $-1 $177 $177 $176 $274 forward $110 $-1 #
coedge $-1 $178 $178 $111 $179 forward $173 $-1 #
edge $-1 $275 0 $275 6.2831853071796004 $178 $276 forward 7 unknown #
face $-1 $277 $278 $27 $-1 $279 reversed single #
loop $-1 $-1 $280 $112 #
plane-surface $-1 -68.290658284249389 0 0 1 0 0 0 0 -1 forward_v I I I I #
coedge $-1 $281 $191 $282 $283 forward $113 $-1 #
coedge $-1 $284 $115 $281 $285 forward $73 $-1 #
coedge $-1 $115 $284 $286 $287 forward $73 $-1 #
coedge $-1 $194 $193 $115 $187 reversed $195 $-1 #
edge $-1 $288 -28.793077195355664 $289 28.793077195355664 $186 $290 forward 7 unknown #
coedge $-1 $117 $116 $291 $292 forward $46 $-1 #
coedge $-1 $293 $294 $116 $190 reversed $278 $-1 #
edge $-1 $197 -68.290658284249389 $295 68.290658284249389 $189 $296 forward 7 unknown #
coedge $-1 $183 $297 $117 $192 reversed $113 $-1 #
edge $-1 $298 -68.290658284249389 $196 68.290658284249389 $191 $299 forward 7 unknown #
coedge $-1 $186 $118 $297 $300 forward $195 $-1 #
coedge $-1 $118 $186 $293 $301 reversed $195 $-1 #
loop $-1 $-1 $193 $277 #
vertex $-1 $119 $302 #
vertex $-1 $119 $303 #
straight-curve $-1 68.290658284249389 0 13.885913360145523 0 1 0 I I #
face $-1 $304 $305 $28 $-1 $306 reversed single #
loop $-1 $-1 $307 $120 #
plane-surface $-1 0 0 13.885913360145523 0 0 1 1 0 0 forward_v I I I I #
coedge $-1 $308 $309 $310 $311 reversed $121 $-1 #
coedge $-1 $126 $123 $312 $313 reversed $77 $-1 #
coedge $-1 $123 $126 $314 $315 reversed $77 $-1 #
coedge $-1 $309 $308 $123 $206 reversed $121 $-1 #
edge $-1 $316 -13.885913360145523 $317 13.885913360145523 $205 $318 forward 7 unknown #
coedge $-1 $125 $124 $319 $320 reversed $49 $-1 #
coedge $-1 $312 $321 $124 $209 forward $305 $-1 #
edge $-1 $322 -17.114805619665912 $213 -6.2417375317135928 $208 $323 forward 7 unknown #
coedge $-1 $324 $314 $125 $211 forward $200 $-1 #
edge $-1 $212 6.2417375317135928 $325 17.114805619665912 $210 $326 forward 7 unknown #
vertex $-1 $211 $327 #
vertex $-1 $209 $328 #
straight-curve $-1 -47.754027197388758 -17.920009107403345 0 0 0 -1 I I #
face $-1 $-1 $227 $29 $-1 $329 forward single #
loop $-1 $-1 $330 $128 #
plane-surface $-1 -68.290658284249389 0 0 1 0 0 0 0 -1 forward_v I I I I #
coedge $-1 $331 $332 $333 $334 reversed $129 $-1 #
coedge $-1 $335 $131 $133 $225 forward $81 $-1 #
coedge $-1 $131 $335 $331 $336 forward $81 $-1 #
coedge $-1 $333 $134 $131 $222 forward $227 $-1 #
edge $-1 $229 -9.8728316694298481 $337 1.3216075676470975 $221 $338 forward 7 unknown #
coedge $-1 $339 $340 $132 $224 forward $216 $-1 #
edge $-1 $341 -49.612050758369456 $228 -41.129393567217313 $223 $342 forward 7 unknown #
edge $-1 $229 -13.196671745163801 $341 1.8307977367429951e-014 $133 $343 forward 7 unknown #
coedge $-1 $134 $333 $339 $344 forward $227 $-1 #
loop $-1 $-1 $333 $215 #
vertex $-1 $224 $345 #
vertex $-1 $135 $346 #
straight-curve $-1 -78.041718684108432 -14.148443720321223 13.885913360145523 1 0 0 I I #
coedge $-1 $231 $231 $-1 $347 reversed $138 $-1 #
edge $-1 $348 0 $348 6.2831853071796004 $139 $349 forward 7 unknown #
vertex $-1 $142 $350 #
ellipse-curve $-1 -63.236039798967838 -8.5512241017827471 9.6445847645694496 -0.64278761758704617 0 0.76604443648966558 1.5320888729793312 0 1.2855752351740923 1 I I #
face $-1 $-1 $351 $31 $-1 $352 reversed single #
loop $-1 $-1 $149 $143 #
plane-surface $-1 0 0 13.885913360145523 0 0 1 1 0 0 forward_v I I I I #
coedge $-1 $353 $354 $355 $356 reversed $144 $-1 #
coedge $-1 $357 $146 $148 $245 forward $90 $-1 #
coedge $-1 $146 $357 $353 $358 forward $90 $-1 #
coedge $-1 $355 $149 $146 $242 forward $236 $-1 #
edge $-1 $248 1.8054399062599042 $359 12.999879143336852 $241 $360 forward 7 unknown #
coedge $-1 $361 $362 $147 $244 forward $351 $-1 #
edge $-1 $363 -49.612050758369456 $247 -41.129393567217313 $243 $364 forward 7 unknown #
edge $-1 $248 -13.196671745163801 $363 1.8307977367429951e-014 $148 $365 forward 7 unknown #
coedge $-1 $149 $355 $361 $366 forward $236 $-1 #
vertex $-1 $244 $367 #
vertex $-1 $150 $368 #
straight-curve $-1 -78.041718684108432 9.2080994310582813 13.885913360145523 1 0 0 I I #
coedge $-1 $250 $250 $-1 $369 reversed $153 $-1 #
edge $-1 $370 0 $370 6.2831853071796004 $154 $371 forward 7 unknown #
vertex $-1 $157 $372 #
ellipse-curve $-1 -63.236039798967838 14.805319049596761 9.6445847645694496 -0.64278761758704617 0 0.76604443648966558 1.5320888729793312 0 1.2855752351740923 1 I I #
face $-1 $-1 $373 $33 $-1 $374 reversed single #
loop $-1 $-1 $164 $158 #
plane-surface $-1 0 0 13.885913360145523 0 0 1 1 0 0 forward_v I I I I #
coedge $-1 $375 $376 $377 $378 reversed $159 $-1 #
coedge $-1 $379 $161 $163 $264 forward $99 $-1 #
coedge $-1 $161 $379 $375 $380 forward $99 $-1 #
coedge $-1 $377 $164 $161 $261 forward $255 $-1 #
edge $-1 $267 -1.3875412033536172 $381 7.1626222313111505 $260 $382 forward 7 unknown #
coedge $-1 $383 $384 $162 $263 forward $373 $-1 #
edge $-1 $385 -91.239237439478615 $266 -86.150226446449253 $262 $386 forward 7 unknown #
edge $-1 $267 130.2091845049946 $385 136.58131656849872 $163 $387 forward 7 unknown #
coedge $-1 $164 $377 $383 $388 forward $255 $-1 #
vertex $-1 $263 $389 #
vertex $-1 $165 $390 #
straight-curve $-1 47.586331062938228 -1.4999993106251495 13.885913360145523 -1 0 0 I I #
coedge $-1 $269 $269 $-1 $391 reversed $168 $-1 #
edge $-1 $392 0 $392 6.2831853071796004 $169 $393 forward 7 unknown #
vertex $-1 $172 $394 #
ellipse-curve $-1 66.373235916357814 -7.6072589068142697 11.341407863630847 0.79863551827123203 0 0.60181501223851219 0.60181501223851219 0 -0.79863551827123203 1 I I #
coedge $-1 $273 $273 $-1 $395 reversed $175 $-1 #
edge $-1 $396 0 $396 6.2831853071796004 $176 $397 forward 7 unknown #
vertex $-1 $179 $398 #
ellipse-curve $-1 66.373235916357814 -3.9429031491007969 11.341407863630847 0.79863551827123203 0 0.60181501223851219 0.60181501223851219 0 -0.79863551827123203 1 I I #
face $-1 $-1 $195 $27 $-1 $399 reversed single #
loop $-1 $-1 $293 $180 #
plane-surface $-1 0 28.793077195355664 0 0 -1 0 0 0 -1 forward_v I I I I #
coedge $-1 $400 $291 $294 $401 forward $181 $-1 #
coedge $-1 $297 $183 $184 $285 reversed $113 $-1 #
coedge $-1 $291 $400 $183 $283 reversed $181 $-1 #
edge $-1 $298 -13.885913360145523 $402 13.885913360145523 $282 $403 forward 7 unknown #
coedge $-1 $185 $184 $400 $404 forward $73 $-1 #
edge $-1 $289 -68.290658284249389 $402 68.290658284249389 $281 $405 forward 7 unknown #
coedge $-1 $294 $293 $185 $287 reversed $278 $-1 #
edge $-1 $406 -68.290658284249389 $288 68.290658284249389 $286 $407 forward 7 unknown #
vertex $-1 $187 $408 #
vertex $-1 $300 $409 #
straight-curve $-1 68.290658284249389 0 -13.885913360145523 0 -1 0 I I #
coedge $-1 $280 $282 $188 $292 reversed $181 $-1 #
edge $-1 $295 -28.793077195355664 $298 28.793077195355664 $291 $410 forward 7 unknown #
coedge $-1 $286 $189 $194 $301 forward $278 $-1 #
coedge $-1 $189 $286 $280 $401 reversed $278 $-1 #
vertex $-1 $190 $411 #
straight-curve $-1 0 28.793077195355664 13.885913360145523 -1 0 0 I I #
coedge $-1 $191 $281 $193 $300 reversed $113 $-1 #
vertex $-1 $292 $412 #
straight-curve $-1 0 -28.793077195355664 13.885913360145523 1 0 0 I I #
edge $-1 $196 -13.885913360145523 $289 13.885913360145523 $193 $413 forward 7 unknown #
edge $-1 $197 -13.885913360145523 $288 13.885913360145523 $194 $414 forward 7 unknown #
point $-1 68.290658284249389 -28.793077195355664 13.885913360145523 #
point $-1 68.290658284249389 28.793077195355664 13.885913360145523 #
face $-1 $-1 $415 $28 $-1 $416 reversed single #
loop $-1 $-1 $417 $199 #
plane-surface $-1 0 0 -13.885913360145523 0 0 1 1 0 0 forward_v I I I I #
coedge $-1 $314 $324 $309 $418 forward $200 $-1 #
coedge $-1 $205 $202 $417 $419 reversed $121 $-1 #
coedge $-1 $202 $205 $307 $418 reversed $121 $-1 #
coedge $-1 $420 $421 $202 $311 forward $415 $-1 #
edge $-1 $422 -13.885913360145523 $423 13.885913360145523 $310 $424 forward 7 unknown #
coedge $-1 $417 $208 $203 $313 forward $305 $-1 #
edge $-1 $213 -25.068484887116181 $317 -20.302599733428973 $312 $425 forward 7 unknown #
coedge $-1 $210 $307 $204 $315 forward $200 $-1 #
edge $-1 $316 20.302599733428973 $212 25.068484887116181 $314 $426 forward 7 unknown #
vertex $-1 $315 $427 #
vertex $-1 $313 $428 #
straight-curve $-1 -42.988142043701551 -17.920009107403345 0 0 0 -1 I I #
coedge $-1 $421 $420 $207 $320 forward $415 $-1 #
edge $-1 $325 -13.885913360145523 $322 13.885913360145523 $319 $429 forward 7 unknown #
coedge $-1 $208 $417 $421 $430 forward $305 $-1 #
vertex $-1 $209 $431 #
straight-curve $-1 -47.754027197388758 -11.678271575689752 -13.885913360145523 0 1 0 I I #
coedge $-1 $307 $210 $420 $432 forward $200 $-1 #
vertex $-1 $432 $433 #
straight-curve $-1 -47.754027197388758 -11.678271575689752 13.885913360145523 0 -1 0 I I #
point $-1 -47.754027197388758 -17.920009107403345 13.885913360145523 #
point $-1 -47.754027197388758 -17.920009107403345 -13.885913360145523 #
plane-surface $-1 0 0 13.885913360145523 0 0 1 1 0 0 forward_v I I I I #
coedge $-1 $340 $339 $332 $434 forward $216 $-1 #
coedge $-1 $332 $218 $220 $336 reversed $129 $-1 #
coedge $-1 $218 $331 $330 $434 reversed $129 $-1 #
coedge $-1 $226 $221 $218 $334 forward $227 $-1 #
edge $-1 $337 -19.860297370422153 $435 -9.7510603998590426 $333 $436 forward 7 unknown #
coedge $-1 $220 $219 $340 $437 reversed $81 $-1 #
edge $-1 $438 -1.8307977367429951e-014 $337 13.196671745163801 $331 $439 forward 7 unknown #
vertex $-1 $222 $440 #
straight-curve $-1 -58.181421313686272 -4.2756120508913753 13.885913360145524 0 1 0 I I #
coedge $-1 $330 $223 $226 $344 reversed $216 $-1 #
coedge $-1 $223 $330 $335 $437 forward $216 $-1 #
vertex $-1 $224 $441 #
straight-curve $-1 -68.290658284249389 -14.148443720321223 55.015306927362836 0 0 1 I I #
straight-curve $-1 -68.290658284249375 -14.148443720321223 5.4032561689933942 -0.76604443648966558 0 -0.64278761758704617 I I #
edge $-1 $435 2.9540044832442778 $228 14.148443720321223 $339 $442 forward 7 unknown #
point $-1 -68.290658284249389 -14.148443720321223 13.885913360145523 #
point $-1 -58.181421313686279 -14.148443720321223 13.885913360145523 #
edge $-1 $443 1 $443 0 $231 $-1 forward 7 unknown #
vertex $-1 $232 $444 #
ellipse-curve $-1 -58.212852796501664 -8.5512241017827471 3.6581837334927778 -0.64278761758704617 0 0.76604443648966558 1.5320888729793312 0 1.2855752351740923 1 I I #
point $-1 -61.703950925988515 -8.5512241017827471 10.930159999743555 #
loop $-1 $-1 $243 $235 #
plane-surface $-1 -68.290658284249389 0 0 1 0 0 0 0 -1 forward_v I I I I #
coedge $-1 $354 $238 $240 $358 reversed $144 $-1 #
coedge $-1 $238 $353 $445 $446 reversed $144 $-1 #
coedge $-1 $246 $241 $238 $356 forward $236 $-1 #
edge $-1 $359 -19.860297370422153 $447 -9.7510603998590426 $355 $448 forward 7 unknown #
coedge $-1 $240 $239 $362 $449 reversed $90 $-1 #
edge $-1 $450 -1.8307977367429951e-014 $359 13.196671745163801 $353 $451 forward 7 unknown #
vertex $-1 $242 $452 #
straight-curve $-1 -58.181421313686272 7.4026595247983771 13.885913360145524 0 1 0 I I #
coedge $-1 $445 $243 $246 $366 reversed $351 $-1 #
coedge $-1 $243 $445 $357 $449 forward $351 $-1 #
vertex $-1 $244 $453 #
straight-curve $-1 -68.290658284249389 9.2080994310582813 55.015306927362836 0 0 1 I I #
straight-curve $-1 -68.290658284249375 9.2080994310582813 5.4032561689933942 -0.76604443648966558 0 -0.64278761758704617 I I #
edge $-1 $447 -20.402538668135229 $247 -9.2080994310582813 $361 $454 forward 7 unknown #
point $-1 -68.290658284249389 9.2080994310582813 13.885913360145523 #
point $-1 -58.181421313686279 9.2080994310582813 13.885913360145523 #
edge $-1 $455 1 $455 0 $250 $-1 forward 7 unknown #
vertex $-1 $251 $456 #
ellipse-curve $-1 -58.212852796501664 14.805319049596761 3.6581837334927778 -0.64278761758704617 0 0.76604443648966558 1.5320888729793312 0 1.2855752351740923 1 I I #
point $-1 -61.703950925988515 14.805319049596761 10.930159999743555 #
loop $-1 $-1 $262 $254 #
plane-surface $-1 68.290658284249389 0 0 -1 0 0 0 0 1 forward_v I I I I #
coedge $-1 $376 $257 $259 $380 reversed $159 $-1 #
coedge $-1 $257 $375 $457 $458 reversed $159 $-1 #
coedge $-1 $265 $260 $257 $378 forward $255 $-1 #
edge $-1 $381 16.86948248552801 $459 20.704327221311161 $377 $460 forward 7 unknown #
coedge $-1 $259 $258 $384 $461 reversed $99 $-1 #
edge $-1 $462 -136.58131656849872 $381 -130.2091845049946 $375 $463 forward 7 unknown #
vertex $-1 $261 $464 #
straight-curve $-1 64.455813548466224 -2.8875405139787667 13.885913360145523 0 -1 0 I I #
coedge $-1 $457 $262 $265 $388 reversed $373 $-1 #
coedge $-1 $262 $457 $379 $461 forward $373 $-1 #
vertex $-1 $263 $465 #
straight-curve $-1 68.290658284249389 -1.4999993106251495 100.03613980659478 0 0 1 I I #
straight-curve $-1 -13.906028417973772 -1.4999993106251495 117.87559291096635 0.60181501223851219 0 -0.79863551827123203 I I #
edge $-1 $459 -10.050162745289917 $266 -1.4999993106251495 $383 $466 forward 7 unknown #
point $-1 68.290658284249389 -1.4999993106251495 13.885913360145523 #
point $-1 64.455813548466239 -1.4999993106251495 13.885913360145508 #
edge $-1 $467 1 $467 0 $269 $-1 forward 7 unknown #
vertex $-1 $270 $468 #
ellipse-curve $-1 63.684680761797893 -7.6072589068142697 9.3154362955896168 0.79863551827123203 0 0.60181501223851219 0.60181501223851219 0 -0.79863551827123203 1 I I #
point $-1 66.975050928596275 -7.6072589068142697 10.54277234535958 #
edge $-1 $469 1 $469 0 $273 $-1 forward 7 unknown #
vertex $-1 $274 $470 #
ellipse-curve $-1 63.684680761797893 -3.9429031491007969 9.3154362955896168 0.79863551827123203 0 0.60181501223851219 0.60181501223851219 0 -0.79863551827123203 1 I I #
point $-1 66.975050928596275 -3.9429031491007969 10.54277234535958 #
plane-surface $-1 68.290658284249389 0 0 -1 0 0 0 0 1 forward_v I I I I #
coedge $-1 $282 $280 $284 $404 reversed $181 $-1 #
edge $-1 $295 -13.885913360145523 $406 13.885913360145523 $294 $471 forward 7 unknown #
vertex $-1 $404 $472 #
straight-curve $-1 -68.290658284249389 -28.793077195355664 0 0 0 -1 I I #
edge $-1 $402 -28.793077195355664 $406 28.793077195355664 $400 $473 forward 7 unknown #
straight-curve $-1 0 -28.793077195355664 -13.885913360145523 -1 0 0 I I #
vertex $-1 $287 $474 #
straight-curve $-1 0 28.793077195355664 -13.885913360145523 1 0 0 I I #
point $-1 68.290658284249389 28.793077195355664 -13.885913360145523 #
point $-1 68.290658284249389 -28.793077195355664 -13.885913360145523 #
straight-curve $-1 -68.290658284249389 0 13.885913360145523 0 -1 0 I I #
point $-1 -68.290658284249389 28.793077195355664 13.885913360145523 #
point $-1 -68.290658284249389 -28.793077195355664 13.885913360145523 #
straight-curve $-1 68.290658284249389 -28.793077195355664 0 0 0 -1 I I #
straight-curve $-1 68.290658284249389 28.793077195355664 0 0 0 -1 I I #
loop $-1 $-1 $310 $304 #
plane-surface $-1 0 -28.793077195355664 0 0 1 0 0 0 1 forward_v I I I I #
coedge $-1 $321 $312 $308 $419 forward $305 $-1 #
edge $-1 $423 -17.114805619665912 $316 -6.2417375317135928 $307 $475 forward 7 unknown #
edge $-1 $317 6.2417375317135928 $422 17.114805619665912 $417 $476 forward 7 unknown #
coedge $-1 $319 $310 $324 $432 reversed $415 $-1 #
coedge $-1 $310 $319 $321 $430 reversed $415 $-1 #
vertex $-1 $430 $477 #
vertex $-1 $311 $478 #
straight-curve $-1 -42.988142043701551 -28.793077195355664 0 0 0 1 I I #
straight-curve $-1 -22.685542310272577 -17.920009107403345 -13.885913360145523 1 0 0 I I #
straight-curve $-1 -22.685542310272577 -17.920009107403345 13.885913360145523 -1 0 0 I I #
point $-1 -42.988142043701551 -17.920009107403345 13.885913360145523 #
point $-1 -42.988142043701551 -17.920009107403345 -13.885913360145523 #
straight-curve $-1 -47.754027197388758 -28.793077195355664 0 0 0 -1 I I #
edge $-1 $422 42.988142043701551 $322 47.754027197388758 $421 $479 forward 7 unknown #
point $-1 -47.754027197388758 -28.793077195355664 -13.885913360145523 #
edge $-1 $325 -47.754027197388758 $423 -42.988142043701551 $420 $480 forward 7 unknown #
point $-1 -47.754027197388758 -28.793077195355664 13.885913360145523 #
edge $-1 $435 41.129393567217313 $438 49.612050758369456 $330 $481 forward 7 unknown #
vertex $-1 $344 $482 #
straight-curve $-1 -78.041718684108432 -2.9540044832442778 13.885913360145523 -1 0 0 I I #
edge $-1 $438 -1.3216075676470975 $341 9.8728316694298481 $340 $483 forward 7 unknown #
vertex $-1 $437 $484 #
straight-curve $-1 -68.290658284249375 -2.9540044832442778 5.4032561689933942 0.76604443648966558 0 0.64278761758704617 I I #
point $-1 -58.181421313686279 -2.9540044832442778 13.885913360145523 #
point $-1 -68.290658284249389 -14.148443720321223 5.4032561689933827 #
straight-curve $-1 -68.290658284249389 0 13.885913360145523 0 -1 0 I I #
vertex $-1 $347 $485 #
point $-1 -56.680763923522335 -8.5512241017827471 4.9437589686668701 #
coedge $-1 $362 $361 $354 $446 forward $351 $-1 #
edge $-1 $447 41.129393567217313 $450 49.612050758369456 $445 $486 forward 7 unknown #
vertex $-1 $366 $487 #
straight-curve $-1 -78.041718684108432 20.402538668135229 13.885913360145523 -1 0 0 I I #
edge $-1 $450 -12.999879143336852 $363 -1.8054399062599042 $362 $488 forward 7 unknown #
vertex $-1 $449 $489 #
straight-curve $-1 -68.290658284249375 20.402538668135229 5.4032561689933942 0.76604443648966558 0 0.64278761758704617 I I #
point $-1 -58.181421313686279 20.402538668135229 13.885913360145523 #
point $-1 -68.290658284249389 9.2080994310582813 5.4032561689933827 #
straight-curve $-1 -68.290658284249389 0 13.885913360145523 0 -1 0 I I #
vertex $-1 $369 $490 #
point $-1 -56.680763923522335 14.805319049596761 4.9437589686668701 #
coedge $-1 $384 $383 $376 $458 forward $373 $-1 #
edge $-1 $459 86.150226446449253 $462 91.239237439478615 $457 $491 forward 7 unknown #
vertex $-1 $388 $492 #
straight-curve $-1 47.586331062938228 -10.050162745289917 13.885913360145523 1 0 0 I I #
edge $-1 $462 -7.1626222313111505 $385 1.3875412033536172 $384 $493 forward 7 unknown #
vertex $-1 $461 $494 #
straight-curve $-1 -13.906028417973772 -10.050162745289917 117.87559291096635 -0.60181501223851219 0 0.79863551827123203 I I #
point $-1 64.455813548466239 -10.050162745289917 13.885913360145508 #
point $-1 68.290658284249389 -1.4999993106251495 8.7969023671161608 #
straight-curve $-1 68.290658284249389 0 13.885913360145523 0 1 0 I I #
vertex $-1 $391 $495 #
point $-1 64.28649577403641 -7.6072589068142697 8.5168007773183856 #
vertex $-1 $395 $496 #
point $-1 64.28649577403641 -3.9429031491007969 8.5168007773183856 #
straight-curve $-1 -68.290658284249389 28.793077195355664 0 0 0 -1 I I #
point $-1 -68.290658284249389 -28.793077195355664 -13.885913360145523 #
straight-curve $-1 -68.290658284249389 0 -13.885913360145523 0 1 0 I I #
point $-1 -68.290658284249389 28.793077195355664 -13.885913360145523 #
straight-curve $-1 -42.988142043701551 -11.678271575689752 13.885913360145523 0 1 0 I I #
straight-curve $-1 -42.988142043701551 -11.678271575689752 -13.885913360145523 0 -1 0 I I #
point $-1 -42.988142043701551 -28.793077195355664 -13.885913360145523 #
point $-1 -42.988142043701551 -28.793077195355664 13.885913360145523 #
straight-curve $-1 0 -28.793077195355664 -13.885913360145523 -1 0 0 I I #
straight-curve $-1 0 -28.793077195355664 13.885913360145523 1 0 0 I I #
straight-curve $-1 -68.290658284249389 -2.9540044832442778 55.015306927362836 0 0 -1 I I #
point $-1 -68.290658284249389 -2.9540044832442778 13.885913360145523 #
straight-curve $-1 -68.290658284249389 -4.2756120508913753 5.4032561689933933 0 -1 0 I I #
point $-1 -68.290658284249389 -2.9540044832442778 5.4032561689933827 #
point $-1 -56.927277561327571 -8.5512241017827471 2.1260948605134464 #
straight-curve $-1 -68.290658284249389 20.402538668135229 55.015306927362836 0 0 -1 I I #
point $-1 -68.290658284249389 20.402538668135229 13.885913360145523 #
straight-curve $-1 -68.290658284249389 7.4026595247983771 5.4032561689933933 0 -1 0 I I #
point $-1 -68.290658284249389 20.402538668135229 5.4032561689933827 #
point $-1 -56.927277561327571 14.805319049596761 2.1260948605134464 #
straight-curve $-1 68.290658284249389 -10.050162745289917 100.03613980659478 0 0 -1 I I #
point $-1 68.290658284249389 -10.050162745289917 13.885913360145523 #
straight-curve $-1 68.290658284249389 -2.8875405139787667 8.7969023671161537 0 1 0 I I #
point $-1 68.290658284249389 -10.050162745289917 8.7969023671161608 #
point $-1 62.886045243526667 -7.6072589068142697 8.713621283351106 #
point $-1 62.886045243526667 -3.9429031491007969 8.713621283351106 #
End-of-ACIS-data 