500 0 10 0           
7 Unknown 11 ACIS 5.0 NT 24 Fri Mar 26 19:04:20 1999 
-1 9.9999999999999995e-007 1e-010 
body $-1 $10 $-1 $11 #
body $-1 $12 $-1 $13 #
body $-1 $14 $-1 $15 #
body $-1 $16 $-1 $17 #
body $-1 $18 $-1 $19 #
body $-1 $20 $-1 $21 #
body $-1 $22 $-1 $23 #
body $-1 $24 $-1 $25 #
body $-1 $26 $-1 $27 #
body $-1 $28 $-1 $29 #
lump $-1 $-1 $30 $0 #
transform $-1 1 0 0 0 1 0 0 0 1 49.83794671468246 31.898749884752277 15.350963078178706 1 rotate no_reflect no_shear #
lump $-1 $-1 $31 $1 #
transform $-1 1 0 0 0 1 0 0 0 1 49.83794671468246 31.898749884752277 15.350963078178706 1 rotate no_reflect no_shear #
lump $-1 $-1 $32 $2 #
transform $-1 1 0 0 0 1 0 0 0 1 49.83794671468246 31.898749884752277 15.350963078178706 1 rotate no_reflect no_shear #
lump $-1 $-1 $33 $3 #
transform $-1 1 0 0 0 1 0 0 0 1 49.83794671468246 31.898749884752277 15.350963078178706 1 rotate no_reflect no_shear #
lump $-1 $-1 $34 $4 #
transform $-1 1 0 0 0 1 0 0 0 1 49.83794671468246 31.898749884752277 15.350963078178706 1 rotate no_reflect no_shear #
lump $-1 $-1 $35 $5 #
transform $-1 1 0 0 0 1 0 0 0 1 49.83794671468246 31.898749884752277 15.350963078178706 1 rotate no_reflect no_shear #
lump $-1 $-1 $36 $6 #
transform $-1 1 0 0 0 1 0 0 0 1 49.83794671468246 31.898749884752277 15.350963078178706 1 rotate no_reflect no_shear #
lump $-1 $-1 $37 $7 #
transform $-1 1 0 0 0 1 0 0 0 1 49.83794671468246 31.898749884752277 15.350963078178706 1 rotate no_reflect no_shear #
lump $-1 $-1 $38 $8 #
transform $-1 1 0 0 0 1 0 0 0 1 49.83794671468246 31.898749884752277 15.350963078178706 1 rotate no_reflect no_shear #
lump $-1 $-1 $39 $9 #
transform $-1 1 0 0 0 1 0 0 0 1 49.83794671468246 31.898749884752277 15.350963078178706 1 rotate no_reflect no_shear #
shell $-1 $-1 $-1 $40 $-1 $10 #
shell $-1 $-1 $-1 $41 $-1 $12 #
shell $-1 $-1 $-1 $42 $-1 $14 #
shell $-1 $-1 $-1 $43 $-1 $16 #
shell $-1 $-1 $-1 $44 $-1 $18 #
shell $-1 $-1 $-1 $45 $-1 $20 #
shell $-1 $-1 $-1 $46 $-1 $22 #
shell $-1 $-1 $-1 $47 $-1 $24 #
shell $-1 $-1 $-1 $48 $-1 $26 #
shell $-1 $-1 $-1 $49 $-1 $28 #
face $-1 $50 $51 $30 $-1 $52 forward single #
face $-1 $53 $54 $31 $-1 $55 reversed single #
face $-1 $56 $57 $32 $-1 $58 reversed single #
face $-1 $59 $60 $33 $-1 $61 reversed single #
face $-1 $62 $63 $34 $-1 $64 forward single #
face $-1 $65 $66 $35 $-1 $67 forward single #
face $-1 $68 $69 $36 $-1 $70 reversed single #
face $-1 $71 $72 $37 $-1 $73 forward single #
face $-1 $74 $75 $38 $-1 $76 forward single #
face $-1 $77 $78 $39 $-1 $79 forward single #
face $-1 $80 $81 $30 $-1 $82 reversed single #
loop $-1 $-1 $83 $40 #
plane-surface $-1 0 0 15.350963078178706 0 0 1 1 0 0 forward_v I I I I #
face $-1 $84 $85 $31 $-1 $86 reversed single #
loop $-1 $-1 $87 $41 #
plane-surface $-1 -42.19610250350172 -26.408551750206755 0 1 0 0 0 0 -1 forward_v I I I I #
face $-1 $88 $89 $32 $-1 $90 reversed single #
loop $-1 $-1 $91 $42 #
plane-surface $-1 -39.78839949292145 20.918353615661232 0 0 1 0 0 0 1 forward_v I I I I #
face $-1 $92 $93 $33 $-1 $94 reversed single #
loop $-1 $-1 $95 $43 #
plane-surface $-1 54.75748618703534 -3.4502937937855105 149.43049268574657 0 -1 0 -0.73135370988377701 0 -0.68199835119979291 forward_v I I I I #
face $-1 $96 $97 $34 $-1 $98 forward single #
loop $-1 $99 $100 $44 #
cone-surface $-1 46.302837750022022 -8.0446098804856874 11.611163996993159 -0.73135370988377701 0 -0.68199835119979291 0.34099917559989645 0 -0.36567685494188851 1 I I 0 1 0.5 forward I I I I #
face $-1 $101 $102 $35 $-1 $103 forward single #
loop $-1 $104 $105 $45 #
cone-surface $-1 46.302837750022022 -5.2880202284655837 11.611163996993159 -0.73135370988377701 0 -0.68199835119979291 0.34099917559989645 0 -0.36567685494188851 1 I I 0 1 0.5 forward I I I I #
face $-1 $106 $107 $36 $-1 $108 reversed single #
loop $-1 $-1 $109 $46 #
plane-surface $-1 -104.1253298375857 -10.358129168862693 88.736603589167942 0 1 0 -0.54463904215088732 0 0.83867056331134215 forward_v I I I I #
face $-1 $110 $111 $37 $-1 $112 forward single #
loop $-1 $113 $114 $47 #
cone-surface $-1 -41.51215400999596 -9.1382164270165696 9.5299850790387914 0.54463904215088732 0 -0.83867056331134215 0.41933528165567108 0 0.27231952107544366 1 I I 0 1 0.5 forward I I I I #
face $-1 $115 $116 $38 $-1 $117 forward single #
loop $-1 $118 $119 $48 #
cone-surface $-1 -41.51215400999596 -7.3083473142473849 9.5299850790387914 0.54463904215088732 0 -0.83867056331134215 0.41933528165567108 0 0.27231952107544366 1 I I 0 1 0.5 forward I I I I #
face $-1 $120 $121 $39 $-1 $122 forward single #
loop $-1 $123 $124 $49 #
cone-surface $-1 -41.51215400999596 -5.4784782014782003 9.5299850790387914 0.54463904215088732 0 -0.83867056331134215 0.41933528165567108 0 0.27231952107544366 1 I I 0 1 0.5 forward I I I I #
face $-1 $125 $126 $30 $-1 $127 reversed single #
loop $-1 $-1 $128 $50 #
plane-surface $-1 0 0 -15.350963078178706 0 0 1 1 0 0 forward_v I I I I #
coedge $-1 $129 $130 $131 $132 forward $51 $-1 #
face $-1 $133 $134 $31 $-1 $135 reversed single #
loop $-1 $-1 $136 $53 #
plane-surface $-1 -39.78839949292145 -20.918353615661232 0 0 -1 0 0 0 -1 forward_v I I I I #
coedge $-1 $137 $138 $139 $140 forward $54 $-1 #
face $-1 $141 $142 $32 $-1 $143 reversed single #
loop $-1 $-1 $144 $56 #
plane-surface $-1 -42.19610250350172 26.408551750206755 0 1 0 0 0 0 -1 forward_v I I I I #
coedge $-1 $145 $146 $147 $148 forward $57 $-1 #
face $-1 $149 $150 $33 $-1 $151 reversed single #
loop $-1 $-1 $152 $59 #
plane-surface $-1 -18.140848258510687 -6.666315054475632 81.451697712553425 0.73135370988377701 0 0.68199835119979291 0.68199835119979291 0 -0.73135370988377701 forward_v I I I I #
coedge $-1 $153 $154 $155 $156 reversed $60 $-1 #
face $-1 $-1 $157 $34 $-1 $158 forward single #
loop $-1 $159 $160 $62 #
cone-surface $-1 45.754322467609185 -8.0446098804856874 11.099665233593315 -0.73135370988377701 0 -0.68199835119979291 0.17049958779994823 0 -0.18283842747094425 1 I I -0.70710678118654746 0.70710678118654746 0.25 forward I I I I #
loop $-1 $-1 $161 $44 #
coedge $-1 $100 $100 $162 $163 reversed $63 $-1 #
face $-1 $-1 $164 $35 $-1 $165 forward single #
loop $-1 $166 $167 $65 #
cone-surface $-1 45.754322467609185 -5.2880202284655837 11.099665233593315 -0.73135370988377701 0 -0.68199835119979291 0.17049958779994823 0 -0.18283842747094425 1 I I -0.70710678118654746 0.70710678118654746 0.25 forward I I I I #
loop $-1 $-1 $168 $45 #
coedge $-1 $105 $105 $169 $170 reversed $66 $-1 #
face $-1 $171 $172 $36 $-1 $173 reversed single #
loop $-1 $-1 $174 $68 #
plane-surface $-1 -49.837946714682467 -7.3083473142473849 5.1413658982011583 -0.54463904215088732 0 0.83867056331134215 0.83867056331134215 0 0.54463904215088732 forward_v I I I I #
coedge $-1 $175 $176 $177 $178 reversed $69 $-1 #
face $-1 $-1 $179 $37 $-1 $180 forward single #
loop $-1 $181 $182 $71 #
cone-surface $-1 -40.910901894400268 -9.1382164270165696 8.6041380290598131 0.54463904215088732 0 -0.83867056331134215 0.20966764082783554 0 0.13615976053772183 1 I I -0.70710678118654746 0.70710678118654746 0.25 forward I I I I #
loop $-1 $-1 $183 $47 #
coedge $-1 $114 $114 $184 $185 reversed $72 $-1 #
face $-1 $-1 $186 $38 $-1 $187 forward single #
loop $-1 $188 $189 $74 #
cone-surface $-1 -40.910901894400268 -7.3083473142473849 8.6041380290598131 0.54463904215088732 0 -0.83867056331134215 0.20966764082783554 0 0.13615976053772183 1 I I -0.70710678118654746 0.70710678118654746 0.25 forward I I I I #
loop $-1 $-1 $190 $48 #
coedge $-1 $119 $119 $191 $192 reversed $75 $-1 #
face $-1 $-1 $193 $39 $-1 $194 forward single #
loop $-1 $195 $196 $77 #
cone-surface $-1 -40.910901894400268 -5.4784782014782003 8.6041380290598131 0.54463904215088732 0 -0.83867056331134215 0.20966764082783554 0 0.13615976053772183 1 I I -0.70710678118654746 0.70710678118654746 0.25 forward I I I I #
loop $-1 $-1 $197 $49 #
coedge $-1 $124 $124 $198 $199 reversed $78 $-1 #
face $-1 $200 $201 $30 $-1 $202 reversed single #
loop $-1 $-1 $203 $80 #
plane-surface $-1 0 -31.898749884752277 0 0 1 0 0 0 1 forward_v I I I I #
coedge $-1 $204 $205 $206 $207 forward $81 $-1 #
coedge $-1 $208 $83 $209 $210 forward $51 $-1 #
coedge $-1 $83 $208 $211 $212 forward $51 $-1 #
coedge $-1 $213 $214 $83 $132 reversed $215 $-1 #
edge $-1 $216 -31.898749884752277 $217 31.898749884752277 $131 $218 forward 7 unknown #
face $-1 $219 $220 $31 $-1 $221 forward single #
loop $-1 $-1 $222 $84 #
plane-surface $-1 -37.380696482341179 -26.408551750206755 0 -1 0 0 0 0 1 forward_v I I I I #
coedge $-1 $223 $224 $225 $226 forward $85 $-1 #
coedge $-1 $227 $87 $228 $229 reversed $54 $-1 #
coedge $-1 $87 $227 $230 $231 reversed $54 $-1 #
coedge $-1 $224 $223 $87 $140 reversed $85 $-1 #
edge $-1 $232 -15.350963078178706 $233 15.350963078178706 $139 $234 forward 7 unknown #
face $-1 $235 $236 $32 $-1 $237 reversed single #
loop $-1 $-1 $238 $88 #
plane-surface $-1 -37.380696482341179 26.408551750206755 0 -1 0 0 0 0 1 forward_v I I I I #
coedge $-1 $239 $240 $241 $242 reversed $89 $-1 #
coedge $-1 $243 $91 $244 $245 reversed $57 $-1 #
coedge $-1 $91 $243 $246 $247 reversed $57 $-1 #
coedge $-1 $240 $239 $91 $148 reversed $89 $-1 #
edge $-1 $248 -15.350963078178706 $249 15.350963078178706 $147 $250 forward 7 unknown #
face $-1 $251 $252 $33 $-1 $253 forward single #
loop $-1 $-1 $254 $92 #
plane-surface $-1 54.75748618703534 -9.8823363151657535 149.43049268574657 0 1 0 0.73135370988377701 0 0.68199835119979291 forward_v I I I I #
coedge $-1 $255 $256 $257 $258 reversed $93 $-1 #
coedge $-1 $154 $95 $259 $260 reversed $60 $-1 #
coedge $-1 $95 $153 $255 $261 reversed $60 $-1 #
coedge $-1 $257 $262 $95 $156 forward $252 $-1 #
edge $-1 $263 -22.459203621164789 $264 -16.120339401727691 $155 $265 forward 7 unknown #
loop $-1 $-1 $162 $96 #
plane-surface $-1 -18.140848258510687 -6.666315054475632 81.451697712553425 0.73135370988377701 0 0.68199835119979291 0.68199835119979291 0 -0.73135370988377701 forward_v I I I I #
loop $-1 $-1 $266 $62 #
coedge $-1 $160 $160 $161 $267 reversed $97 $-1 #
coedge $-1 $161 $161 $160 $267 forward $99 $-1 #
coedge $-1 $162 $162 $100 $163 forward $157 $-1 #
edge $-1 $268 0 $268 6.2831853071796004 $162 $269 forward 7 unknown #
loop $-1 $-1 $169 $101 #
plane-surface $-1 -18.140848258510687 -6.666315054475632 81.451697712553425 0.73135370988377701 0 0.68199835119979291 0.68199835119979291 0 -0.73135370988377701 forward_v I I I I #
loop $-1 $-1 $270 $65 #
coedge $-1 $167 $167 $168 $271 reversed $102 $-1 #
coedge $-1 $168 $168 $167 $271 forward $104 $-1 #
coedge $-1 $169 $169 $105 $170 forward $164 $-1 #
edge $-1 $272 0 $272 6.2831853071796004 $169 $273 forward 7 unknown #
face $-1 $274 $275 $36 $-1 $276 reversed single #
loop $-1 $-1 $277 $106 #
plane-surface $-1 -104.1253298375857 -4.2585654596320772 88.736603589167942 0 -1 0 0.54463904215088732 0 -0.83867056331134215 forward_v I I I I #
coedge $-1 $278 $279 $280 $281 reversed $107 $-1 #
coedge $-1 $176 $109 $282 $283 reversed $69 $-1 #
coedge $-1 $109 $175 $278 $284 reversed $69 $-1 #
coedge $-1 $280 $285 $109 $178 forward $286 $-1 #
edge $-1 $287 2.2247182041103883 $288 17.946118903367449 $177 $289 forward 7 unknown #
loop $-1 $-1 $184 $110 #
plane-surface $-1 -49.837946714682467 -7.3083473142473849 5.1413658982011583 -0.54463904215088732 0 0.83867056331134215 0.83867056331134215 0 0.54463904215088732 forward_v I I I I #
loop $-1 $-1 $290 $71 #
coedge $-1 $182 $182 $183 $291 reversed $111 $-1 #
coedge $-1 $183 $183 $182 $291 forward $113 $-1 #
coedge $-1 $184 $184 $114 $185 forward $179 $-1 #
edge $-1 $292 0 $292 6.2831853071796004 $184 $293 forward 7 unknown #
loop $-1 $-1 $191 $115 #
plane-surface $-1 -49.837946714682467 -7.3083473142473849 5.1413658982011583 -0.54463904215088732 0 0.83867056331134215 0.83867056331134215 0 0.54463904215088732 forward_v I I I I #
loop $-1 $-1 $294 $74 #
coedge $-1 $189 $189 $190 $295 reversed $116 $-1 #
coedge $-1 $190 $190 $189 $295 forward $118 $-1 #
coedge $-1 $191 $191 $119 $192 forward $186 $-1 #
edge $-1 $296 0 $296 6.2831853071796004 $191 $297 forward 7 unknown #
loop $-1 $-1 $198 $120 #
plane-surface $-1 -49.837946714682467 -7.3083473142473849 5.1413658982011583 -0.54463904215088732 0 0.83867056331134215 0.83867056331134215 0 0.54463904215088732 forward_v I I I I #
loop $-1 $-1 $298 $77 #
coedge $-1 $196 $196 $197 $299 reversed $121 $-1 #
coedge $-1 $197 $197 $196 $299 forward $123 $-1 #
coedge $-1 $198 $198 $124 $199 forward $193 $-1 #
edge $-1 $300 0 $300 6.2831853071796004 $198 $301 forward 7 unknown #
face $-1 $302 $303 $30 $-1 $304 reversed single #
loop $-1 $-1 $305 $125 #
plane-surface $-1 -49.83794671468246 0 0 1 0 0 0 0 -1 forward_v I I I I #
coedge $-1 $306 $211 $307 $308 forward $126 $-1 #
coedge $-1 $309 $128 $306 $310 forward $81 $-1 #
coedge $-1 $128 $309 $311 $312 forward $81 $-1 #
coedge $-1 $214 $213 $128 $207 reversed $215 $-1 #
edge $-1 $313 -31.898749884752277 $314 31.898749884752277 $206 $315 forward 7 unknown #
coedge $-1 $130 $129 $316 $317 forward $51 $-1 #
coedge $-1 $318 $319 $129 $210 reversed $303 $-1 #
edge $-1 $217 -49.83794671468246 $320 49.83794671468246 $209 $321 forward 7 unknown #
coedge $-1 $203 $322 $130 $212 reversed $126 $-1 #
edge $-1 $323 -49.83794671468246 $216 49.83794671468246 $211 $324 forward 7 unknown #
coedge $-1 $206 $131 $322 $325 forward $215 $-1 #
coedge $-1 $131 $206 $318 $326 reversed $215 $-1 #
loop $-1 $-1 $213 $302 #
vertex $-1 $132 $327 #
vertex $-1 $132 $328 #
straight-curve $-1 49.83794671468246 0 15.350963078178706 0 1 0 I I #
face $-1 $329 $330 $31 $-1 $331 reversed single #
loop $-1 $-1 $332 $133 #
plane-surface $-1 0 0 15.350963078178706 0 0 1 1 0 0 forward_v I I I I #
coedge $-1 $333 $334 $335 $336 reversed $134 $-1 #
coedge $-1 $139 $136 $337 $338 reversed $85 $-1 #
coedge $-1 $136 $139 $339 $340 reversed $85 $-1 #
coedge $-1 $334 $333 $136 $226 reversed $134 $-1 #
edge $-1 $341 -15.350963078178706 $342 15.350963078178706 $225 $343 forward 7 unknown #
coedge $-1 $138 $137 $344 $345 reversed $54 $-1 #
coedge $-1 $337 $346 $137 $229 forward $330 $-1 #
edge $-1 $347 -18.6944740096489 $233 -7.7140777405578547 $228 $348 forward 7 unknown #
coedge $-1 $349 $339 $138 $231 forward $220 $-1 #
edge $-1 $232 7.7140777405578547 $350 18.6944740096489 $230 $351 forward 7 unknown #
vertex $-1 $231 $352 #
vertex $-1 $229 $353 #
straight-curve $-1 -42.19610250350172 -20.918353615661232 0 0 0 -1 I I #
face $-1 $354 $355 $32 $-1 $356 forward single #
loop $-1 $-1 $357 $141 #
plane-surface $-1 0 0 -15.350963078178706 0 0 1 1 0 0 forward_v I I I I #
coedge $-1 $358 $359 $243 $360 forward $142 $-1 #
coedge $-1 $147 $144 $361 $362 reversed $89 $-1 #
coedge $-1 $144 $147 $363 $364 reversed $89 $-1 #
coedge $-1 $365 $366 $144 $242 forward $367 $-1 #
edge $-1 $368 -15.350963078178706 $369 15.350963078178706 $241 $370 forward 7 unknown #
coedge $-1 $146 $145 $238 $360 reversed $57 $-1 #
coedge $-1 $361 $357 $145 $245 forward $236 $-1 #
edge $-1 $371 17.486496735880454 $249 22.301902757040995 $244 $372 forward 7 unknown #
coedge $-1 $373 $363 $146 $247 forward $355 $-1 #
edge $-1 $248 -22.301902757040995 $374 -17.486496735880454 $246 $375 forward 7 unknown #
vertex $-1 $247 $376 #
vertex $-1 $245 $377 #
straight-curve $-1 -42.19610250350172 20.918353615661232 0 0 0 -1 I I #
face $-1 $-1 $378 $33 $-1 $379 reversed single #
loop $-1 $-1 $155 $149 #
plane-surface $-1 0 0 15.350963078178706 0 0 1 1 0 0 forward_v I I I I #
coedge $-1 $380 $381 $382 $383 reversed $150 $-1 #
coedge $-1 $384 $152 $154 $261 forward $93 $-1 #
coedge $-1 $152 $384 $380 $385 forward $93 $-1 #
coedge $-1 $382 $155 $152 $258 forward $252 $-1 #
edge $-1 $264 0.11713626654769449 $386 6.5491787879279375 $257 $387 forward 7 unknown #
coedge $-1 $388 $389 $153 $260 forward $378 $-1 #
edge $-1 $390 -66.161883075865887 $263 -59.364283264694578 $259 $391 forward 7 unknown #
edge $-1 $264 90.381348643024054 $390 99.675893429364919 $154 $392 forward 7 unknown #
coedge $-1 $155 $382 $388 $393 forward $252 $-1 #
vertex $-1 $156 $394 #
vertex $-1 $156 $395 #
straight-curve $-1 27.37874309351767 -3.4502937937855105 15.350963078178708 -1 0 0 I I #
coedge $-1 $266 $266 $-1 $396 reversed $159 $-1 #
edge $-1 $397 0 $397 6.2831853071796004 $160 $398 forward 7 unknown #
vertex $-1 $163 $399 #
ellipse-curve $-1 46.66851460496391 -8.0446098804856874 11.952163172593057 0.73135370988377701 0 0.68199835119979291 0.34099917559989645 0 -0.36567685494188851 1 I I #
coedge $-1 $270 $270 $-1 $400 reversed $166 $-1 #
edge $-1 $401 0 $401 6.2831853071796004 $167 $402 forward 7 unknown #
vertex $-1 $170 $403 #
ellipse-curve $-1 46.66851460496391 -5.2880202284655837 11.952163172593057 0.73135370988377701 0 0.68199835119979291 0.34099917559989645 0 -0.36567685494188851 1 I I #
face $-1 $-1 $286 $36 $-1 $404 forward single #
loop $-1 $-1 $405 $171 #
plane-surface $-1 -49.83794671468246 0 0 1 0 0 0 0 -1 forward_v I I I I #
coedge $-1 $406 $407 $408 $409 reversed $172 $-1 #
coedge $-1 $410 $174 $176 $284 forward $107 $-1 #
coedge $-1 $174 $410 $406 $411 forward $107 $-1 #
coedge $-1 $408 $177 $174 $281 forward $286 $-1 #
edge $-1 $288 -6.7039555117390002 $412 -0.60439180250838476 $280 $413 forward 7 unknown #
coedge $-1 $414 $415 $175 $283 forward $275 $-1 #
edge $-1 $416 -39.226935896382805 $287 -29.017338716405263 $282 $417 forward 7 unknown #
edge $-1 $288 -18.745621209338626 $416 -8.3777959833898778e-015 $176 $418 forward 7 unknown #
coedge $-1 $177 $408 $414 $419 forward $286 $-1 #
loop $-1 $-1 $408 $274 #
vertex $-1 $283 $420 #
vertex $-1 $178 $421 #
straight-curve $-1 -52.062664918792848 -10.358129168862693 15.350963078178708 1 0 0 I I #
coedge $-1 $290 $290 $-1 $422 reversed $181 $-1 #
edge $-1 $423 0 $423 6.2831853071796004 $182 $424 forward 7 unknown #
vertex $-1 $185 $425 #
ellipse-curve $-1 -41.977246365053929 -9.1382164270165696 10.246164488189933 -0.54463904215088732 0 0.83867056331134215 0.41933528165567108 0 0.27231952107544366 1 I I #
coedge $-1 $294 $294 $-1 $426 reversed $188 $-1 #
edge $-1 $427 0 $427 6.2831853071796004 $189 $428 forward 7 unknown #
vertex $-1 $192 $429 #
ellipse-curve $-1 -41.977246365053929 -7.3083473142473849 10.246164488189933 -0.54463904215088732 0 0.83867056331134215 0.41933528165567108 0 0.27231952107544366 1 I I #
coedge $-1 $298 $298 $-1 $430 reversed $195 $-1 #
edge $-1 $431 0 $431 6.2831853071796004 $196 $432 forward 7 unknown #
vertex $-1 $199 $433 #
ellipse-curve $-1 -41.977246365053929 -5.4784782014782003 10.246164488189933 -0.54463904215088732 0 0.83867056331134215 0.41933528165567108 0 0.27231952107544366 1 I I #
face $-1 $-1 $215 $30 $-1 $434 reversed single #
loop $-1 $-1 $318 $200 #
plane-surface $-1 0 31.898749884752277 0 0 -1 0 0 0 -1 forward_v I I I I #
coedge $-1 $435 $316 $319 $436 forward $201 $-1 #
coedge $-1 $322 $203 $204 $310 reversed $126 $-1 #
coedge $-1 $316 $435 $203 $308 reversed $201 $-1 #
edge $-1 $323 -15.350963078178706 $437 15.350963078178706 $307 $438 forward 7 unknown #
coedge $-1 $205 $204 $435 $439 forward $81 $-1 #
edge $-1 $314 -49.83794671468246 $437 49.83794671468246 $306 $440 forward 7 unknown #
coedge $-1 $319 $318 $205 $312 reversed $303 $-1 #
edge $-1 $441 -49.83794671468246 $313 49.83794671468246 $311 $442 forward 7 unknown #
vertex $-1 $207 $443 #
vertex $-1 $325 $444 #
straight-curve $-1 49.83794671468246 0 -15.350963078178706 0 -1 0 I I #
coedge $-1 $305 $307 $208 $317 reversed $201 $-1 #
edge $-1 $320 -31.898749884752277 $323 31.898749884752277 $316 $445 forward 7 unknown #
coedge $-1 $311 $209 $214 $326 forward $303 $-1 #
coedge $-1 $209 $311 $305 $436 reversed $303 $-1 #
vertex $-1 $210 $446 #
straight-curve $-1 0 31.898749884752277 15.350963078178706 -1 0 0 I I #
coedge $-1 $211 $306 $213 $325 reversed $126 $-1 #
vertex $-1 $317 $447 #
straight-curve $-1 0 -31.898749884752277 15.350963078178706 1 0 0 I I #
edge $-1 $216 -15.350963078178706 $314 15.350963078178706 $213 $448 forward 7 unknown #
edge $-1 $217 -15.350963078178706 $313 15.350963078178706 $214 $449 forward 7 unknown #
point $-1 49.83794671468246 -31.898749884752277 15.350963078178706 #
point $-1 49.83794671468246 31.898749884752277 15.350963078178706 #
face $-1 $-1 $450 $31 $-1 $451 reversed single #
loop $-1 $-1 $452 $219 #
plane-surface $-1 0 0 -15.350963078178706 0 0 1 1 0 0 forward_v I I I I #
coedge $-1 $339 $349 $334 $453 forward $220 $-1 #
coedge $-1 $225 $222 $452 $454 reversed $134 $-1 #
coedge $-1 $222 $225 $332 $453 reversed $134 $-1 #
coedge $-1 $455 $456 $222 $336 forward $450 $-1 #
edge $-1 $457 -15.350963078178706 $458 15.350963078178706 $335 $459 forward 7 unknown #
coedge $-1 $452 $228 $223 $338 forward $330 $-1 #
edge $-1 $233 -22.301902757040995 $342 -17.486496735880454 $337 $460 forward 7 unknown #
coedge $-1 $230 $332 $224 $340 forward $220 $-1 #
edge $-1 $341 17.486496735880454 $232 22.301902757040995 $339 $461 forward 7 unknown #
vertex $-1 $340 $462 #
vertex $-1 $338 $463 #
straight-curve $-1 -37.380696482341179 -20.918353615661232 0 0 0 -1 I I #
coedge $-1 $456 $455 $227 $345 forward $450 $-1 #
edge $-1 $350 -15.350963078178706 $347 15.350963078178706 $344 $464 forward 7 unknown #
coedge $-1 $228 $452 $456 $465 forward $330 $-1 #
vertex $-1 $229 $466 #
straight-curve $-1 -42.19610250350172 -13.204275875103377 -15.350963078178706 0 1 0 I I #
coedge $-1 $332 $230 $455 $467 forward $220 $-1 #
vertex $-1 $467 $468 #
straight-curve $-1 -42.19610250350172 -13.204275875103377 15.350963078178706 0 -1 0 I I #
point $-1 -42.19610250350172 -20.918353615661232 15.350963078178706 #
point $-1 -42.19610250350172 -20.918353615661232 -15.350963078178706 #
face $-1 $-1 $367 $32 $-1 $469 reversed single #
loop $-1 $-1 $373 $235 #
plane-surface $-1 0 0 15.350963078178706 0 0 1 1 0 0 forward_v I I I I #
coedge $-1 $244 $470 $358 $471 forward $236 $-1 #
coedge $-1 $472 $238 $357 $471 reversed $142 $-1 #
coedge $-1 $238 $472 $373 $473 reversed $142 $-1 #
edge $-1 $374 -15.350963078178706 $371 15.350963078178706 $238 $474 forward 7 unknown #
coedge $-1 $470 $244 $239 $362 forward $236 $-1 #
edge $-1 $249 7.7140777405578547 $368 18.6944740096489 $361 $475 forward 7 unknown #
coedge $-1 $246 $476 $240 $364 forward $355 $-1 #
edge $-1 $369 -18.6944740096489 $248 -7.7140777405578547 $363 $477 forward 7 unknown #
coedge $-1 $478 $241 $476 $479 reversed $367 $-1 #
coedge $-1 $241 $478 $470 $480 reversed $367 $-1 #
loop $-1 $-1 $478 $354 #
vertex $-1 $480 $481 #
vertex $-1 $242 $482 #
straight-curve $-1 -42.19610250350172 31.898749884752277 0 0 0 1 I I #
vertex $-1 $245 $483 #
straight-curve $-1 -19.894199746460725 20.918353615661232 -15.350963078178706 -1 0 0 I I #
coedge $-1 $476 $246 $359 $473 forward $355 $-1 #
vertex $-1 $247 $484 #
straight-curve $-1 -19.894199746460725 20.918353615661232 15.350963078178706 1 0 0 I I #
point $-1 -42.19610250350172 20.918353615661232 15.350963078178706 #
point $-1 -42.19610250350172 20.918353615661232 -15.350963078178706 #
loop $-1 $-1 $259 $251 #
plane-surface $-1 49.83794671468246 0 0 -1 0 0 0 0 1 forward_v I I I I #
coedge $-1 $381 $254 $256 $385 reversed $150 $-1 #
coedge $-1 $254 $380 $485 $486 reversed $150 $-1 #
coedge $-1 $262 $257 $254 $383 forward $252 $-1 #
edge $-1 $386 16.120339401727691 $487 22.459203621164789 $382 $488 forward 7 unknown #
coedge $-1 $256 $255 $389 $489 reversed $93 $-1 #
edge $-1 $490 -99.675893429364919 $386 -90.381348643024054 $380 $491 forward 7 unknown #
vertex $-1 $258 $492 #
straight-curve $-1 43.499082495245354 -3.333157527237816 15.350963078178715 0 -1 0 I I #
coedge $-1 $485 $259 $262 $393 reversed $378 $-1 #
coedge $-1 $259 $485 $384 $489 forward $378 $-1 #
vertex $-1 $260 $493 #
straight-curve $-1 49.83794671468246 -3.4502937937855105 74.715246342873286 0 0 1 I I #
straight-curve $-1 -18.140848258510687 -3.4502937937855105 81.451697712553425 0.68199835119979291 0 -0.73135370988377701 I I #
edge $-1 $487 -9.8823363151657535 $263 -3.4502937937855105 $388 $494 forward 7 unknown #
point $-1 49.83794671468246 -3.4502937937855105 15.350963078178706 #
point $-1 43.499082495245361 -3.4502937937855105 15.350963078178708 #
edge $-1 $495 1 $495 0 $266 $-1 forward 7 unknown #
vertex $-1 $267 $496 #
ellipse-curve $-1 45.937160895080126 -8.0446098804856874 11.270164821393264 0.73135370988377701 0 0.68199835119979291 0.34099917559989645 0 -0.36567685494188851 1 I I #
point $-1 47.0095137805638 -8.0446098804856874 11.586486317651168 #
edge $-1 $497 1 $497 0 $270 $-1 forward 7 unknown #
vertex $-1 $271 $498 #
ellipse-curve $-1 45.937160895080126 -5.2880202284655837 11.270164821393264 0.73135370988377701 0 0.68199835119979291 0.34099917559989645 0 -0.36567685494188851 1 I I #
point $-1 47.0095137805638 -5.2880202284655837 11.586486317651168 #
plane-surface $-1 0 0 15.350963078178706 0 0 1 1 0 0 forward_v I I I I #
coedge $-1 $415 $414 $407 $499 forward $275 $-1 #
coedge $-1 $407 $277 $279 $411 reversed $172 $-1 #
coedge $-1 $277 $406 $405 $499 reversed $172 $-1 #
coedge $-1 $285 $280 $277 $409 forward $286 $-1 #
edge $-1 $412 -17.946118903367449 $500 -2.2247182041103883 $408 $501 forward 7 unknown #
coedge $-1 $279 $278 $415 $502 reversed $107 $-1 #
edge $-1 $503 8.3777959833898778e-015 $412 18.745621209338626 $406 $504 forward 7 unknown #
vertex $-1 $281 $505 #
straight-curve $-1 -34.116546015425399 -3.6541736571236925 15.350963078178706 0 1 0 I I #
coedge $-1 $405 $282 $285 $419 reversed $275 $-1 #
coedge $-1 $282 $405 $410 $502 forward $275 $-1 #
vertex $-1 $283 $506 #
straight-curve $-1 -49.83794671468246 -10.358129168862693 44.368301794583971 0 0 1 I I #
straight-curve $-1 -49.837946714682467 -10.358129168862693 5.1413658982011583 -0.83867056331134215 0 -0.54463904215088732 I I #
edge $-1 $500 4.2585654596320772 $287 10.358129168862693 $414 $507 forward 7 unknown #
point $-1 -49.83794671468246 -10.358129168862693 15.350963078178706 #
point $-1 -34.116546015425399 -10.358129168862693 15.350963078178706 #
edge $-1 $508 1 $508 0 $290 $-1 forward 7 unknown #
vertex $-1 $291 $509 #
ellipse-curve $-1 -41.047061654937991 -9.1382164270165696 8.8138056698876479 -0.54463904215088732 0 0.83867056331134215 0.41933528165567108 0 0.27231952107544366 1 I I #
point $-1 -41.55791108339826 -9.1382164270165696 10.518484009265379 #
edge $-1 $510 1 $510 0 $294 $-1 forward 7 unknown #
vertex $-1 $295 $511 #
ellipse-curve $-1 -41.047061654937991 -7.3083473142473849 8.8138056698876479 -0.54463904215088732 0 0.83867056331134215 0.41933528165567108 0 0.27231952107544366 1 I I #
point $-1 -41.55791108339826 -7.3083473142473849 10.518484009265379 #
edge $-1 $512 1 $512 0 $298 $-1 forward 7 unknown #
vertex $-1 $299 $513 #
ellipse-curve $-1 -41.047061654937991 -5.4784782014782003 8.8138056698876479 -0.54463904215088732 0 0.83867056331134215 0.41933528165567108 0 0.27231952107544366 1 I I #
point $-1 -41.55791108339826 -5.4784782014782003 10.518484009265379 #
plane-surface $-1 49.83794671468246 0 0 -1 0 0 0 0 1 forward_v I I I I #
coedge $-1 $307 $305 $309 $439 reversed $201 $-1 #
edge $-1 $320 -15.350963078178706 $441 15.350963078178706 $319 $514 forward 7 unknown #
vertex $-1 $439 $515 #
straight-curve $-1 -49.83794671468246 -31.898749884752277 0 0 0 -1 I I #
edge $-1 $437 -31.898749884752277 $441 31.898749884752277 $435 $516 forward 7 unknown #
straight-curve $-1 0 -31.898749884752277 -15.350963078178706 -1 0 0 I I #
vertex $-1 $312 $517 #
straight-curve $-1 0 31.898749884752277 -15.350963078178706 1 0 0 I I #
point $-1 49.83794671468246 31.898749884752277 -15.350963078178706 #
point $-1 49.83794671468246 -31.898749884752277 -15.350963078178706 #
straight-curve $-1 -49.83794671468246 0 15.350963078178706 0 -1 0 I I #
point $-1 -49.83794671468246 31.898749884752277 15.350963078178706 #
point $-1 -49.83794671468246 -31.898749884752277 15.350963078178706 #
straight-curve $-1 49.83794671468246 -31.898749884752277 0 0 0 -1 I I #
straight-curve $-1 49.83794671468246 31.898749884752277 0 0 0 -1 I I #
loop $-1 $-1 $335 $329 #
plane-surface $-1 0 -31.898749884752277 0 0 1 0 0 0 1 forward_v I I I I #
coedge $-1 $346 $337 $333 $454 forward $330 $-1 #
edge $-1 $458 -18.6944740096489 $341 -7.7140777405578547 $332 $518 forward 7 unknown #
edge $-1 $342 7.7140777405578547 $457 18.6944740096489 $452 $519 forward 7 unknown #
coedge $-1 $344 $335 $349 $467 reversed $450 $-1 #
coedge $-1 $335 $344 $346 $465 reversed $450 $-1 #
vertex $-1 $465 $520 #
vertex $-1 $336 $521 #
straight-curve $-1 -37.380696482341179 -31.898749884752277 0 0 0 1 I I #
straight-curve $-1 -19.894199746460725 -20.918353615661232 -15.350963078178706 1 0 0 I I #
straight-curve $-1 -19.894199746460725 -20.918353615661232 15.350963078178706 -1 0 0 I I #
point $-1 -37.380696482341179 -20.918353615661232 15.350963078178706 #
point $-1 -37.380696482341179 -20.918353615661232 -15.350963078178706 #
straight-curve $-1 -42.19610250350172 -31.898749884752277 0 0 0 -1 I I #
edge $-1 $457 37.380696482341179 $347 42.19610250350172 $456 $522 forward 7 unknown #
point $-1 -42.19610250350172 -31.898749884752277 -15.350963078178706 #
edge $-1 $350 -42.19610250350172 $458 -37.380696482341179 $455 $523 forward 7 unknown #
point $-1 -42.19610250350172 -31.898749884752277 15.350963078178706 #
plane-surface $-1 0 31.898749884752277 0 0 -1 0 0 0 -1 forward_v I I I I #
coedge $-1 $357 $361 $366 $480 forward $236 $-1 #
edge $-1 $524 -18.6944740096489 $371 -7.7140777405578547 $357 $525 forward 7 unknown #
coedge $-1 $359 $358 $478 $526 reversed $142 $-1 #
edge $-1 $374 7.7140777405578547 $527 18.6944740096489 $373 $528 forward 7 unknown #
straight-curve $-1 -37.380696482341179 20.918353615661232 0 0 0 -1 I I #
straight-curve $-1 -42.19610250350172 13.204275875103377 -15.350963078178706 0 1 0 I I #
coedge $-1 $363 $373 $365 $479 forward $355 $-1 #
straight-curve $-1 -42.19610250350172 13.204275875103377 15.350963078178706 0 -1 0 I I #
coedge $-1 $366 $365 $472 $526 forward $367 $-1 #
edge $-1 $527 37.380696482341179 $369 42.19610250350172 $365 $529 forward 7 unknown #
edge $-1 $368 -42.19610250350172 $524 -37.380696482341179 $366 $530 forward 7 unknown #
point $-1 -42.19610250350172 31.898749884752277 -15.350963078178706 #
point $-1 -42.19610250350172 31.898749884752277 15.350963078178706 #
point $-1 -37.380696482341179 20.918353615661232 -15.350963078178706 #
point $-1 -37.380696482341179 20.918353615661232 15.350963078178706 #
coedge $-1 $389 $388 $381 $486 forward $378 $-1 #
edge $-1 $487 59.364283264694578 $490 66.161883075865887 $485 $531 forward 7 unknown #
vertex $-1 $393 $532 #
straight-curve $-1 27.37874309351767 -9.8823363151657535 15.350963078178708 1 0 0 I I #
edge $-1 $490 -6.5491787879279375 $390 -0.11713626654769449 $389 $533 forward 7 unknown #
vertex $-1 $489 $534 #
straight-curve $-1 -18.140848258510687 -9.8823363151657535 81.451697712553425 -0.68199835119979291 0 0.73135370988377701 I I #
point $-1 43.499082495245361 -9.8823363151657535 15.350963078178708 #
point $-1 49.83794671468246 -3.4502937937855105 8.5533632670073985 #
straight-curve $-1 49.83794671468246 0 15.350963078178706 0 1 0 I I #
vertex $-1 $396 $535 #
point $-1 46.278160070680023 -8.0446098804856874 10.904487966451375 #
vertex $-1 $400 $536 #
point $-1 46.278160070680023 -5.2880202284655837 10.904487966451375 #
edge $-1 $500 29.017338716405263 $503 39.226935896382805 $405 $537 forward 7 unknown #
vertex $-1 $419 $538 #
straight-curve $-1 -52.062664918792848 -4.2585654596320772 15.350963078178708 -1 0 0 I I #
edge $-1 $503 0.60439180250838476 $416 6.7039555117390002 $415 $539 forward 7 unknown #
vertex $-1 $502 $540 #
straight-curve $-1 -49.837946714682467 -4.2585654596320772 5.1413658982011583 0.83867056331134215 0 0.54463904215088732 I I #
point $-1 -34.116546015425399 -4.2585654596320772 15.350963078178706 #
point $-1 -49.83794671468246 -10.358129168862693 5.1413658982011627 #
straight-curve $-1 -49.83794671468246 0 15.350963078178706 0 -1 0 I I #
vertex $-1 $422 $541 #
point $-1 -40.627726373282322 -9.1382164270165696 9.0861251909630916 #
vertex $-1 $426 $542 #
point $-1 -40.627726373282322 -7.3083473142473849 9.0861251909630916 #
vertex $-1 $430 $543 #
point $-1 -40.627726373282322 -5.4784782014782003 9.0861251909630916 #
straight-curve $-1 -49.83794671468246 31.898749884752277 0 0 0 -1 I I #
point $-1 -49.83794671468246 -31.898749884752277 -15.350963078178706 #
straight-curve $-1 -49.83794671468246 0 -15.350963078178706 0 1 0 I I #
point $-1 -49.83794671468246 31.898749884752277 -15.350963078178706 #
straight-curve $-1 -37.380696482341179 -13.204275875103377 15.350963078178706 0 1 0 I I #
straight-curve $-1 -37.380696482341179 -13.204275875103377 -15.350963078178706 0 -1 0 I I #
point $-1 -37.380696482341179 -31.898749884752277 -15.350963078178706 #
point $-1 -37.380696482341179 -31.898749884752277 15.350963078178706 #
straight-curve $-1 0 -31.898749884752277 -15.350963078178706 -1 0 0 I I #
straight-curve $-1 0 -31.898749884752277 15.350963078178706 1 0 0 I I #
vertex $-1 $526 $544 #
straight-curve $-1 -37.380696482341179 13.204275875103377 -15.350963078178706 0 -1 0 I I #
edge $-1 $527 -15.350963078178706 $524 15.350963078178706 $478 $545 forward 7 unknown #
vertex $-1 $479 $546 #
straight-curve $-1 -37.380696482341179 13.204275875103377 15.350963078178706 0 1 0 I I #
straight-curve $-1 0 31.898749884752277 15.350963078178706 -1 0 0 I I #
straight-curve $-1 0 31.898749884752277 -15.350963078178706 1 0 0 I I #
straight-curve $-1 49.83794671468246 -9.8823363151657535 74.715246342873286 0 0 -1 I I #
point $-1 49.83794671468246 -9.8823363151657535 15.350963078178706 #
straight-curve $-1 49.83794671468246 -3.333157527237816 8.5533632670073985 0 1 0 I I #
point $-1 49.83794671468246 -9.8823363151657535 8.5533632670073985 #
point $-1 45.571484040138245 -8.0446098804856874 10.929165645793367 #
point $-1 45.571484040138245 -5.2880202284655837 10.929165645793367 #
straight-curve $-1 -49.83794671468246 -4.2585654596320772 44.368301794583971 0 0 -1 I I #
point $-1 -49.83794671468246 -4.2585654596320772 15.350963078178706 #
straight-curve $-1 -49.83794671468246 -3.6541736571236925 5.1413658982011601 0 -1 0 I I #
point $-1 -49.83794671468246 -4.2585654596320772 5.1413658982011627 #
point $-1 -40.774742133862546 -9.1382164270165696 8.3944703882319782 #
point $-1 -40.774742133862546 -7.3083473142473849 8.3944703882319782 #
point $-1 -40.774742133862546 -5.4784782014782003 8.3944703882319782 #
point $-1 -37.380696482341179 31.898749884752277 -15.350963078178706 #
straight-curve $-1 -37.380696482341179 31.898749884752277 0 0 0 -1 I I #
point $-1 -37.380696482341179 31.898749884752277 15.350963078178706 #
End-of-ACIS-data 