500 0 10 0           
7 Unknown 11 ACIS 5.0 NT 24 Fri Mar 26 02:21:11 1999 
-1 9.9999999999999995e-007 1e-010 
body $-1 $10 $-1 $11 #
body $-1 $12 $-1 $13 #
body $-1 $14 $-1 $15 #
body $-1 $16 $-1 $17 #
body $-1 $18 $-1 $19 #
body $-1 $20 $-1 $21 #
body $-1 $22 $-1 $23 #
body $-1 $24 $-1 $25 #
body $-1 $26 $-1 $27 #
body $-1 $28 $-1 $29 #
lump $-1 $-1 $30 $0 #
transform $-1 1 0 0 0 1 0 0 0 1 54.560991241187779 29.153589252821806 10.524991121135763 1 rotate no_reflect no_shear #
lump $-1 $-1 $31 $1 #
transform $-1 1 0 0 0 1 0 0 0 1 54.560991241187779 29.153589252821806 10.524991121135763 1 rotate no_reflect no_shear #
lump $-1 $-1 $32 $2 #
transform $-1 1 0 0 0 1 0 0 0 1 54.560991241187779 29.153589252821806 10.524991121135763 1 rotate no_reflect no_shear #
lump $-1 $-1 $33 $3 #
transform $-1 1 0 0 0 1 0 0 0 1 54.560991241187779 29.153589252821806 10.524991121135763 1 rotate no_reflect no_shear #
lump $-1 $-1 $34 $4 #
transform $-1 1 0 0 0 1 0 0 0 1 54.560991241187779 29.153589252821806 10.524991121135763 1 rotate no_reflect no_shear #
lump $-1 $-1 $35 $5 #
transform $-1 1 0 0 0 1 0 0 0 1 54.560991241187779 29.153589252821806 10.524991121135763 1 rotate no_reflect no_shear #
lump $-1 $-1 $36 $6 #
transform $-1 1 0 0 0 1 0 0 0 1 54.560991241187779 29.153589252821806 10.524991121135763 1 rotate no_reflect no_shear #
lump $-1 $-1 $37 $7 #
transform $-1 1 0 0 0 1 0 0 0 1 54.560991241187779 29.153589252821806 10.524991121135763 1 rotate no_reflect no_shear #
lump $-1 $-1 $38 $8 #
transform $-1 1 0 0 0 1 0 0 0 1 54.560991241187779 29.153589252821806 10.524991121135763 1 rotate no_reflect no_shear #
lump $-1 $-1 $39 $9 #
transform $-1 1 0 0 0 1 0 0 0 1 54.560991241187779 29.153589252821806 10.524991121135763 1 rotate no_reflect no_shear #
shell $-1 $-1 $-1 $40 $-1 $10 #
shell $-1 $-1 $-1 $41 $-1 $12 #
shell $-1 $-1 $-1 $42 $-1 $14 #
shell $-1 $-1 $-1 $43 $-1 $16 #
shell $-1 $-1 $-1 $44 $-1 $18 #
shell $-1 $-1 $-1 $45 $-1 $20 #
shell $-1 $-1 $-1 $46 $-1 $22 #
shell $-1 $-1 $-1 $47 $-1 $24 #
shell $-1 $-1 $-1 $48 $-1 $26 #
shell $-1 $-1 $-1 $49 $-1 $28 #
face $-1 $50 $51 $30 $-1 $52 forward single #
face $-1 $53 $54 $31 $-1 $55 forward single #
face $-1 $56 $57 $32 $-1 $58 reversed single #
face $-1 $59 $60 $33 $-1 $61 forward single #
face $-1 $62 $63 $34 $-1 $64 reversed single #
face $-1 $65 $66 $35 $-1 $67 forward single #
face $-1 $68 $69 $36 $-1 $70 forward single #
face $-1 $71 $72 $37 $-1 $73 reversed single #
face $-1 $74 $75 $38 $-1 $76 forward single #
face $-1 $77 $78 $39 $-1 $79 forward single #
face $-1 $80 $81 $30 $-1 $82 reversed single #
loop $-1 $-1 $83 $40 #
plane-surface $-1 0 0 10.524991121135763 0 0 1 1 0 0 forward_v I I I I #
face $-1 $84 $85 $31 $-1 $86 reversed single #
loop $-1 $-1 $87 $41 #
plane-surface $-1 0 -24.7678026148239 -6.0899570195710808 0 0 1 1 0 0 forward_v I I I I #
face $-1 $88 $89 $32 $-1 $90 reversed single #
loop $-1 $-1 $91 $42 #
plane-surface $-1 76.038435052662535 -12.624590227863795 158.58465053295666 0 -1 0 -0.79863551827123203 0 -0.60181501223851219 forward_v I I I I #
face $-1 $92 $93 $33 $-1 $94 forward single #
loop $-1 $95 $96 $43 #
cone-surface $-1 51.90131496288592 -16.503303102344894 7.4921890385784868 -0.79863551827123203 0 -0.60181501223851219 0.60181501223851219 0 -0.79863551827123203 1 I I 0 1 1 forward I I I I #
face $-1 $97 $98 $34 $-1 $99 reversed single #
loop $-1 $-1 $100 $44 #
plane-surface $-1 -118.70128406467863 -10.760777922895084 90.274223869662478 0 1 0 -0.5877852598018023 0 0.80901698891910034 forward_v I I I I #
face $-1 $101 $102 $35 $-1 $103 forward single #
loop $-1 $104 $105 $45 #
cone-surface $-1 -48.395032817919819 -9.0268981635535077 5.8540400471388727 0.5877852598018023 0 -0.80901698891910034 0.40450849445955017 0 0.29389262990090115 1 I I 0 1 0.5 forward I I I I #
face $-1 $106 $107 $36 $-1 $108 forward single #
loop $-1 $109 $110 $46 #
cone-surface $-1 -48.395032817919819 -6.4260785245411434 5.8540400471388727 0.5877852598018023 0 -0.80901698891910034 0.40450849445955017 0 0.29389262990090115 1 I I 0 1 0.5 forward I I I I #
face $-1 $111 $112 $37 $-1 $113 reversed single #
loop $-1 $-1 $114 $47 #
plane-surface $-1 -118.70128406467863 13.463772041195384 90.274223869662478 0 1 0 -0.5877852598018023 0 0.80901698891910034 forward_v I I I I #
face $-1 $115 $116 $38 $-1 $117 forward single #
loop $-1 $118 $119 $48 #
cone-surface $-1 -48.395032817919819 15.197651800536956 5.8540400471388727 0.5877852598018023 0 -0.80901698891910034 0.40450849445955017 0 0.29389262990090115 1 I I 0 1 0.5 forward I I I I #
face $-1 $120 $121 $39 $-1 $122 forward single #
loop $-1 $123 $124 $49 #
cone-surface $-1 -48.395032817919819 17.798471439549321 5.8540400471388727 0.5877852598018023 0 -0.80901698891910034 0.40450849445955017 0 0.29389262990090115 1 I I 0 1 0.5 forward I I I I #
face $-1 $125 $126 $30 $-1 $127 reversed single #
loop $-1 $-1 $128 $50 #
plane-surface $-1 0 0 -10.524991121135763 0 0 1 1 0 0 forward_v I I I I #
coedge $-1 $129 $130 $131 $132 forward $51 $-1 #
face $-1 $133 $134 $31 $-1 $135 reversed single #
loop $-1 $-1 $136 $53 #
plane-surface $-1 0 -20.382015976825993 -8.3074740703534218 0 -1 0 0 0 -1 forward_v I I I I #
coedge $-1 $137 $138 $139 $140 reversed $54 $-1 #
face $-1 $141 $142 $32 $-1 $143 reversed single #
loop $-1 $-1 $144 $56 #
plane-surface $-1 -11.110255981933776 -16.503303102344894 92.913403309835104 0.79863551827123203 0 0.60181501223851219 0.60181501223851219 0 -0.79863551827123203 forward_v I I I I #
coedge $-1 $145 $146 $147 $148 reversed $57 $-1 #
face $-1 $-1 $149 $33 $-1 $150 forward single #
loop $-1 $151 $152 $59 #
cone-surface $-1 50.63588457642625 -16.503303102344894 6.538618872850428 -0.79863551827123203 0 -0.60181501223851219 0.3009075061192561 0 -0.39931775913561601 1 I I -0.70710678118654746 0.70710678118654746 0.5 forward I I I I #
loop $-1 $-1 $153 $43 #
coedge $-1 $96 $96 $154 $155 reversed $60 $-1 #
face $-1 $156 $157 $34 $-1 $158 reversed single #
loop $-1 $-1 $159 $62 #
plane-surface $-1 -54.560991241187793 -7.7264883440473255 1.9926861768881849 -0.5877852598018023 0 0.80901698891910034 0.80901698891910034 0 0.5877852598018023 forward_v I I I I #
coedge $-1 $160 $161 $162 $163 reversed $63 $-1 #
face $-1 $-1 $164 $35 $-1 $165 forward single #
loop $-1 $166 $167 $65 #
cone-surface $-1 -47.953983097690717 -9.0268981635535077 5.2469871980359972 0.5877852598018023 0 -0.80901698891910034 0.20225424722977509 0 0.14694631495045057 1 I I -0.70710678118654746 0.70710678118654746 0.25 forward I I I I #
loop $-1 $-1 $168 $45 #
coedge $-1 $105 $105 $169 $170 reversed $66 $-1 #
face $-1 $-1 $171 $36 $-1 $172 forward single #
loop $-1 $173 $174 $68 #
cone-surface $-1 -47.953983097690717 -6.4260785245411434 5.2469871980359972 0.5877852598018023 0 -0.80901698891910034 0.20225424722977509 0 0.14694631495045057 1 I I -0.70710678118654746 0.70710678118654746 0.25 forward I I I I #
loop $-1 $-1 $175 $46 #
coedge $-1 $110 $110 $176 $177 reversed $69 $-1 #
face $-1 $178 $179 $37 $-1 $180 reversed single #
loop $-1 $-1 $181 $71 #
plane-surface $-1 -54.560991241187793 16.498061620043142 1.9926861768881849 -0.5877852598018023 0 0.80901698891910034 0.80901698891910034 0 0.5877852598018023 forward_v I I I I #
coedge $-1 $182 $183 $184 $185 reversed $72 $-1 #
face $-1 $-1 $186 $38 $-1 $187 forward single #
loop $-1 $188 $189 $74 #
cone-surface $-1 -47.953983097690717 15.197651800536956 5.2469871980359972 0.5877852598018023 0 -0.80901698891910034 0.20225424722977509 0 0.14694631495045057 1 I I -0.70710678118654746 0.70710678118654746 0.25 forward I I I I #
loop $-1 $-1 $190 $48 #
coedge $-1 $119 $119 $191 $192 reversed $75 $-1 #
face $-1 $-1 $193 $39 $-1 $194 forward single #
loop $-1 $195 $196 $77 #
cone-surface $-1 -47.953983097690717 17.798471439549321 5.2469871980359972 0.5877852598018023 0 -0.80901698891910034 0.20225424722977509 0 0.14694631495045057 1 I I -0.70710678118654746 0.70710678118654746 0.25 forward I I I I #
loop $-1 $-1 $197 $49 #
coedge $-1 $124 $124 $198 $199 reversed $78 $-1 #
face $-1 $200 $201 $30 $-1 $202 reversed single #
loop $-1 $-1 $203 $80 #
plane-surface $-1 0 -29.153589252821806 0 0 1 0 0 0 1 forward_v I I I I #
coedge $-1 $204 $205 $206 $207 forward $81 $-1 #
coedge $-1 $208 $83 $209 $210 forward $51 $-1 #
coedge $-1 $83 $208 $211 $212 forward $51 $-1 #
coedge $-1 $213 $214 $83 $132 reversed $215 $-1 #
edge $-1 $216 -29.153589252821806 $217 29.153589252821806 $131 $218 forward 7 unknown #
face $-1 $219 $220 $31 $-1 $221 reversed single #
loop $-1 $-1 $222 $84 #
plane-surface $-1 0 0 -10.524991121135763 0 0 1 1 0 0 forward_v I I I I #
coedge $-1 $223 $224 $225 $226 reversed $85 $-1 #
coedge $-1 $227 $87 $224 $228 forward $54 $-1 #
coedge $-1 $87 $227 $229 $230 reversed $54 $-1 #
coedge $-1 $231 $225 $87 $140 forward $220 $-1 #
edge $-1 $232 7.9981146694140435 $233 16.769687945409856 $139 $234 forward 7 unknown #
face $-1 $235 $236 $32 $-1 $237 reversed single #
loop $-1 $-1 $238 $88 #
plane-surface $-1 76.038435052662535 -20.382015976825993 158.58465053295666 0 1 0 0.79863551827123203 0 0.60181501223851219 forward_v I I I I #
coedge $-1 $239 $240 $241 $242 reversed $89 $-1 #
coedge $-1 $146 $91 $243 $244 reversed $57 $-1 #
coedge $-1 $91 $145 $239 $245 reversed $57 $-1 #
coedge $-1 $241 $246 $91 $148 forward $247 $-1 #
edge $-1 $248 -16.541773714856511 $249 -12.954646412900892 $147 $250 forward 7 unknown #
loop $-1 $-1 $154 $92 #
plane-surface $-1 -11.110255981933776 -16.503303102344894 92.913403309835104 0.79863551827123203 0 0.60181501223851219 0.60181501223851219 0 -0.79863551827123203 forward_v I I I I #
loop $-1 $-1 $251 $59 #
coedge $-1 $152 $152 $153 $252 reversed $93 $-1 #
coedge $-1 $153 $153 $152 $252 forward $95 $-1 #
coedge $-1 $154 $154 $96 $155 forward $149 $-1 #
edge $-1 $253 0 $253 6.2831853071796004 $154 $254 forward 7 unknown #
face $-1 $255 $256 $34 $-1 $257 forward single #
loop $-1 $-1 $258 $97 #
plane-surface $-1 -118.70128406467863 -4.6921987651995671 90.274223869662478 0 -1 0 0.5877852598018023 0 -0.80901698891910034 forward_v I I I I #
coedge $-1 $259 $260 $261 $262 reversed $98 $-1 #
coedge $-1 $161 $100 $263 $264 reversed $63 $-1 #
coedge $-1 $100 $160 $259 $265 reversed $63 $-1 #
coedge $-1 $261 $266 $100 $163 forward $256 $-1 #
edge $-1 $267 4.7896507911515371 $268 16.533360827130146 $162 $269 forward 7 unknown #
loop $-1 $-1 $169 $101 #
plane-surface $-1 -54.560991241187793 -7.7264883440473255 1.9926861768881849 -0.5877852598018023 0 0.80901698891910034 0.80901698891910034 0 0.5877852598018023 forward_v I I I I #
loop $-1 $-1 $270 $65 #
coedge $-1 $167 $167 $168 $271 reversed $102 $-1 #
coedge $-1 $168 $168 $167 $271 forward $104 $-1 #
coedge $-1 $169 $169 $105 $170 forward $164 $-1 #
edge $-1 $272 0 $272 6.2831853071796004 $169 $273 forward 7 unknown #
loop $-1 $-1 $176 $106 #
plane-surface $-1 -54.560991241187793 -7.7264883440473255 1.9926861768881849 -0.5877852598018023 0 0.80901698891910034 0.80901698891910034 0 0.5877852598018023 forward_v I I I I #
loop $-1 $-1 $274 $68 #
coedge $-1 $174 $174 $175 $275 reversed $107 $-1 #
coedge $-1 $175 $175 $174 $275 forward $109 $-1 #
coedge $-1 $176 $176 $110 $177 forward $171 $-1 #
edge $-1 $276 0 $276 6.2831853071796004 $176 $277 forward 7 unknown #
face $-1 $278 $279 $37 $-1 $280 forward single #
loop $-1 $-1 $281 $111 #
plane-surface $-1 -118.70128406467863 19.5323511988909 90.274223869662478 0 -1 0 0.5877852598018023 0 -0.80901698891910034 forward_v I I I I #
coedge $-1 $282 $283 $284 $285 reversed $112 $-1 #
coedge $-1 $183 $114 $286 $287 reversed $72 $-1 #
coedge $-1 $114 $182 $282 $288 reversed $72 $-1 #
coedge $-1 $284 $289 $114 $185 forward $279 $-1 #
edge $-1 $290 4.7896507911515371 $291 16.533360827130146 $184 $292 forward 7 unknown #
loop $-1 $-1 $191 $115 #
plane-surface $-1 -54.560991241187793 16.498061620043142 1.9926861768881849 -0.5877852598018023 0 0.80901698891910034 0.80901698891910034 0 0.5877852598018023 forward_v I I I I #
loop $-1 $-1 $293 $74 #
coedge $-1 $189 $189 $190 $294 reversed $116 $-1 #
coedge $-1 $190 $190 $189 $294 forward $118 $-1 #
coedge $-1 $191 $191 $119 $192 forward $186 $-1 #
edge $-1 $295 0 $295 6.2831853071796004 $191 $296 forward 7 unknown #
loop $-1 $-1 $198 $120 #
plane-surface $-1 -54.560991241187793 16.498061620043142 1.9926861768881849 -0.5877852598018023 0 0.80901698891910034 0.80901698891910034 0 0.5877852598018023 forward_v I I I I #
loop $-1 $-1 $297 $77 #
coedge $-1 $196 $196 $197 $298 reversed $121 $-1 #
coedge $-1 $197 $197 $196 $298 forward $123 $-1 #
coedge $-1 $198 $198 $124 $199 forward $193 $-1 #
edge $-1 $299 0 $299 6.2831853071796004 $198 $300 forward 7 unknown #
face $-1 $301 $302 $30 $-1 $303 reversed single #
loop $-1 $-1 $304 $125 #
plane-surface $-1 -54.560991241187779 0 0 1 0 0 0 0 -1 forward_v I I I I #
coedge $-1 $305 $211 $306 $307 forward $126 $-1 #
coedge $-1 $308 $128 $305 $309 forward $81 $-1 #
coedge $-1 $128 $308 $310 $311 forward $81 $-1 #
coedge $-1 $214 $213 $128 $207 reversed $215 $-1 #
edge $-1 $312 -29.153589252821806 $313 29.153589252821806 $206 $314 forward 7 unknown #
coedge $-1 $130 $129 $315 $316 forward $51 $-1 #
coedge $-1 $317 $318 $129 $210 reversed $302 $-1 #
edge $-1 $217 -54.560991241187779 $319 54.560991241187779 $209 $320 forward 7 unknown #
coedge $-1 $203 $321 $130 $212 reversed $126 $-1 #
edge $-1 $322 -54.560991241187779 $216 54.560991241187779 $211 $323 forward 7 unknown #
coedge $-1 $206 $131 $321 $324 forward $215 $-1 #
coedge $-1 $131 $206 $317 $325 reversed $215 $-1 #
loop $-1 $-1 $213 $301 #
vertex $-1 $132 $326 #
vertex $-1 $132 $327 #
straight-curve $-1 54.560991241187779 0 10.524991121135763 0 1 0 I I #
face $-1 $328 $329 $31 $-1 $330 reversed single #
loop $-1 $-1 $225 $133 #
plane-surface $-1 54.560991241187779 0 0 -1 0 0 0 0 1 forward_v I I I I #
coedge $-1 $331 $332 $223 $333 forward $134 $-1 #
coedge $-1 $334 $136 $222 $333 reversed $85 $-1 #
coedge $-1 $136 $334 $137 $228 reversed $85 $-1 #
coedge $-1 $139 $335 $136 $226 forward $220 $-1 #
edge $-1 $336 -6.3712540859590518 $232 -1.9362199843943699 $225 $337 forward 7 unknown #
coedge $-1 $138 $137 $338 $339 reversed $54 $-1 #
edge $-1 $232 -54.560991241187779 $340 54.560991241187779 $224 $341 forward 7 unknown #
coedge $-1 $342 $343 $138 $230 forward $329 $-1 #
edge $-1 $233 -54.560991241187779 $344 54.560991241187779 $229 $345 forward 7 unknown #
coedge $-1 $335 $139 $343 $346 forward $220 $-1 #
vertex $-1 $140 $347 #
vertex $-1 $346 $348 #
straight-curve $-1 54.560991241187779 -12.38390130741195 -6.0899570195710808 0 -1 0 I I #
face $-1 $-1 $247 $32 $-1 $349 forward single #
loop $-1 $-1 $350 $141 #
plane-surface $-1 54.560991241187779 0 0 -1 0 0 0 0 1 forward_v I I I I #
coedge $-1 $351 $352 $353 $354 reversed $142 $-1 #
coedge $-1 $355 $144 $146 $245 forward $89 $-1 #
coedge $-1 $144 $355 $351 $356 forward $89 $-1 #
coedge $-1 $353 $147 $144 $242 forward $247 $-1 #
edge $-1 $249 4.3729386766913478 $357 12.130364425653546 $241 $358 forward 7 unknown #
coedge $-1 $359 $360 $145 $244 forward $236 $-1 #
edge $-1 $361 -73.527612991239522 $248 -68.767334145342573 $243 $362 forward 7 unknown #
edge $-1 $249 103.16146765803953 $361 109.12198248237554 $146 $363 forward 7 unknown #
coedge $-1 $147 $353 $359 $364 forward $247 $-1 #
loop $-1 $-1 $353 $235 #
vertex $-1 $244 $365 #
vertex $-1 $148 $366 #
straight-curve $-1 38.019217526331268 -12.624590227863795 10.524991121135756 -1 0 0 I I #
coedge $-1 $251 $251 $-1 $367 reversed $151 $-1 #
edge $-1 $368 0 $368 6.2831853071796004 $152 $369 forward 7 unknown #
vertex $-1 $155 $370 #
ellipse-curve $-1 52.767427590209969 -16.503303102344894 8.1448516981872849 0.79863551827123203 0 0.60181501223851219 0.60181501223851219 0 -0.79863551827123203 1 I I #
face $-1 $-1 $371 $34 $-1 $372 reversed single #
loop $-1 $-1 $162 $156 #
plane-surface $-1 0 0 10.524991121135763 0 0 1 1 0 0 forward_v I I I I #
coedge $-1 $373 $374 $375 $376 reversed $157 $-1 #
coedge $-1 $377 $159 $161 $265 forward $98 $-1 #
coedge $-1 $159 $377 $373 $378 forward $98 $-1 #
coedge $-1 $375 $162 $159 $262 forward $256 $-1 #
edge $-1 $268 -6.8975337508714212 $379 -0.82895459317590436 $261 $380 forward 7 unknown #
coedge $-1 $381 $382 $160 $264 forward $371 $-1 #
edge $-1 $383 -43.144425757943047 $267 -34.612120813695476 $263 $384 forward 7 unknown #
edge $-1 $268 -14.516024010409209 $383 -1.7500491998158137e-014 $161 $385 forward 7 unknown #
coedge $-1 $162 $375 $381 $386 forward $256 $-1 #
vertex $-1 $264 $387 #
vertex $-1 $163 $388 #
straight-curve $-1 -59.350642032339316 -10.760777922895084 10.524991121135763 1 0 0 I I #
coedge $-1 $270 $270 $-1 $389 reversed $166 $-1 #
edge $-1 $390 0 $390 6.2831853071796004 $167 $391 forward 7 unknown #
vertex $-1 $170 $392 #
ellipse-curve $-1 -48.689136223198474 -9.0268981635535077 6.2588386490119792 -0.5877852598018023 0 0.80901698891910034 0.40450849445955017 0 0.29389262990090115 1 I I #
coedge $-1 $274 $274 $-1 $393 reversed $173 $-1 #
edge $-1 $394 0 $394 6.2831853071796004 $174 $395 forward 7 unknown #
vertex $-1 $177 $396 #
ellipse-curve $-1 -48.689136223198474 -6.4260785245411434 6.2588386490119792 -0.5877852598018023 0 0.80901698891910034 0.40450849445955017 0 0.29389262990090115 1 I I #
face $-1 $-1 $397 $37 $-1 $398 reversed single #
loop $-1 $-1 $184 $178 #
plane-surface $-1 0 0 10.524991121135763 0 0 1 1 0 0 forward_v I I I I #
coedge $-1 $399 $400 $401 $402 reversed $179 $-1 #
coedge $-1 $403 $181 $183 $288 forward $112 $-1 #
coedge $-1 $181 $403 $399 $404 forward $112 $-1 #
coedge $-1 $401 $184 $181 $285 forward $279 $-1 #
edge $-1 $291 5.2147412311738126 $405 11.283320388869329 $284 $406 forward 7 unknown #
coedge $-1 $407 $408 $182 $287 forward $397 $-1 #
edge $-1 $409 -43.144425757943047 $290 -34.612120813695476 $286 $410 forward 7 unknown #
edge $-1 $291 -14.516024010409209 $409 -1.7500491998158137e-014 $183 $411 forward 7 unknown #
coedge $-1 $184 $401 $407 $412 forward $279 $-1 #
vertex $-1 $185 $413 #
vertex $-1 $185 $414 #
straight-curve $-1 -59.350642032339316 13.463772041195384 10.524991121135763 1 0 0 I I #
coedge $-1 $293 $293 $-1 $415 reversed $188 $-1 #
edge $-1 $416 0 $416 6.2831853071796004 $189 $417 forward 7 unknown #
vertex $-1 $192 $418 #
ellipse-curve $-1 -48.689136223198474 15.197651800536956 6.2588386490119792 -0.5877852598018023 0 0.80901698891910034 0.40450849445955017 0 0.29389262990090115 1 I I #
coedge $-1 $297 $297 $-1 $419 reversed $195 $-1 #
edge $-1 $420 0 $420 6.2831853071796004 $196 $421 forward 7 unknown #
vertex $-1 $199 $422 #
ellipse-curve $-1 -48.689136223198474 17.798471439549321 6.2588386490119792 -0.5877852598018023 0 0.80901698891910034 0.40450849445955017 0 0.29389262990090115 1 I I #
face $-1 $-1 $215 $30 $-1 $423 reversed single #
loop $-1 $-1 $317 $200 #
plane-surface $-1 0 29.153589252821806 0 0 -1 0 0 0 -1 forward_v I I I I #
coedge $-1 $424 $315 $318 $425 forward $201 $-1 #
coedge $-1 $321 $203 $204 $309 reversed $126 $-1 #
coedge $-1 $315 $424 $203 $307 reversed $201 $-1 #
edge $-1 $322 -10.524991121135763 $426 10.524991121135763 $306 $427 forward 7 unknown #
coedge $-1 $205 $204 $424 $428 forward $81 $-1 #
edge $-1 $313 -54.560991241187779 $426 54.560991241187779 $305 $429 forward 7 unknown #
coedge $-1 $318 $317 $205 $311 reversed $302 $-1 #
edge $-1 $430 -54.560991241187779 $312 54.560991241187779 $310 $431 forward 7 unknown #
vertex $-1 $207 $432 #
vertex $-1 $324 $433 #
straight-curve $-1 54.560991241187779 0 -10.524991121135763 0 -1 0 I I #
coedge $-1 $304 $306 $208 $316 reversed $201 $-1 #
edge $-1 $319 -29.153589252821806 $322 29.153589252821806 $315 $434 forward 7 unknown #
coedge $-1 $310 $209 $214 $325 forward $302 $-1 #
coedge $-1 $209 $310 $304 $425 reversed $302 $-1 #
vertex $-1 $210 $435 #
straight-curve $-1 0 29.153589252821806 10.524991121135763 -1 0 0 I I #
coedge $-1 $211 $305 $213 $324 reversed $126 $-1 #
vertex $-1 $316 $436 #
straight-curve $-1 0 -29.153589252821806 10.524991121135763 1 0 0 I I #
edge $-1 $216 -10.524991121135763 $313 10.524991121135763 $213 $437 forward 7 unknown #
edge $-1 $217 -10.524991121135763 $312 10.524991121135763 $214 $438 forward 7 unknown #
point $-1 54.560991241187779 -29.153589252821806 10.524991121135763 #
point $-1 54.560991241187779 29.153589252821806 10.524991121135763 #
face $-1 $-1 $439 $31 $-1 $440 reversed single #
loop $-1 $-1 $229 $219 #
plane-surface $-1 0 -29.153589252821806 0 0 1 0 0 0 1 forward_v I I I I #
coedge $-1 $441 $222 $335 $442 forward $134 $-1 #
coedge $-1 $222 $441 $443 $444 forward $134 $-1 #
edge $-1 $445 -54.560991241187779 $336 54.560991241187779 $222 $446 forward 7 unknown #
coedge $-1 $224 $223 $447 $448 reversed $85 $-1 #
coedge $-1 $225 $231 $331 $442 reversed $220 $-1 #
vertex $-1 $442 $449 #
straight-curve $-1 54.560991241187779 -20.382015976825993 -4.1537370351767109 0 0 1 I I #
coedge $-1 $447 $450 $227 $339 forward $439 $-1 #
edge $-1 $344 -16.769687945409856 $340 -7.9981146694140435 $338 $451 forward 7 unknown #
vertex $-1 $339 $452 #
straight-curve $-1 0 -20.382015976825993 -6.0899570195710808 -1 0 0 I I #
coedge $-1 $453 $229 $450 $454 forward $329 $-1 #
coedge $-1 $229 $453 $231 $346 reversed $329 $-1 #
vertex $-1 $454 $455 #
straight-curve $-1 0 -29.153589252821806 -6.0899570195710808 -1 0 0 I I #
edge $-1 $233 6.0899570195710808 $456 10.524991121135763 $231 $457 forward 7 unknown #
point $-1 54.560991241187779 -20.382015976825993 -6.0899570195710808 #
point $-1 54.560991241187779 -29.153589252821806 -6.0899570195710808 #
plane-surface $-1 0 0 10.524991121135763 0 0 1 1 0 0 forward_v I I I I #
coedge $-1 $360 $359 $352 $458 forward $236 $-1 #
coedge $-1 $352 $238 $240 $356 reversed $142 $-1 #
coedge $-1 $238 $351 $350 $458 reversed $142 $-1 #
coedge $-1 $246 $241 $238 $354 forward $247 $-1 #
edge $-1 $357 12.954646412900892 $459 16.541773714856511 $353 $460 forward 7 unknown #
coedge $-1 $240 $239 $360 $461 reversed $89 $-1 #
edge $-1 $462 -109.12198248237554 $357 -103.16146765803953 $351 $463 forward 7 unknown #
vertex $-1 $242 $464 #
straight-curve $-1 50.97386393923216 -8.2516515511724471 10.524991121135763 0 -1 0 I I #
coedge $-1 $350 $243 $246 $364 reversed $236 $-1 #
coedge $-1 $243 $350 $355 $461 forward $236 $-1 #
vertex $-1 $244 $465 #
straight-curve $-1 54.560991241187779 -12.624590227863795 79.292325266478329 0 0 1 I I #
straight-curve $-1 -11.110255981933776 -12.624590227863795 92.913403309835104 0.60181501223851219 0 -0.79863551827123203 I I #
edge $-1 $459 -20.382015976825993 $248 -12.624590227863795 $359 $466 forward 7 unknown #
point $-1 54.560991241187779 -12.624590227863795 10.524991121135763 #
point $-1 50.97386393923216 -12.624590227863795 10.52499112113577 #
edge $-1 $467 1 $467 0 $251 $-1 forward 7 unknown #
vertex $-1 $252 $468 #
ellipse-curve $-1 51.035202335561863 -16.503303102344894 6.8395263789696843 0.79863551827123203 0 0.60181501223851219 0.60181501223851219 0 -0.79863551827123203 1 I I #
point $-1 53.369242602448494 -16.503303102344894 7.3462161799160581 #
loop $-1 $-1 $263 $255 #
plane-surface $-1 -54.560991241187779 0 0 1 0 0 0 0 -1 forward_v I I I I #
coedge $-1 $374 $258 $260 $378 reversed $157 $-1 #
coedge $-1 $258 $373 $469 $470 reversed $157 $-1 #
coedge $-1 $266 $261 $258 $376 forward $256 $-1 #
edge $-1 $379 -16.533360827130146 $471 -4.7896507911515371 $375 $472 forward 7 unknown #
coedge $-1 $260 $259 $382 $473 reversed $98 $-1 #
edge $-1 $474 1.7500491998158137e-014 $379 14.516024010409209 $373 $475 forward 7 unknown #
vertex $-1 $262 $476 #
straight-curve $-1 -42.81728120520917 -3.8632441720236628 10.524991121135763 0 1 0 I I #
coedge $-1 $469 $263 $266 $386 reversed $371 $-1 #
coedge $-1 $263 $469 $377 $473 forward $371 $-1 #
vertex $-1 $264 $477 #
straight-curve $-1 -54.560991241187779 -10.760777922895084 45.137111934831239 0 0 1 I I #
straight-curve $-1 -54.560991241187793 -10.760777922895084 1.9926861768881849 -0.80901698891910034 0 -0.5877852598018023 I I #
edge $-1 $471 4.6921987651995671 $267 10.760777922895084 $381 $478 forward 7 unknown #
point $-1 -54.560991241187779 -10.760777922895084 10.524991121135763 #
point $-1 -42.81728120520917 -10.760777922895084 10.524991121135763 #
edge $-1 $479 1 $479 0 $270 $-1 forward 7 unknown #
vertex $-1 $271 $480 #
ellipse-curve $-1 -48.100929412641165 -9.0268981635535077 5.4492414452657725 -0.5877852598018023 0 0.80901698891910034 0.40450849445955017 0 0.29389262990090115 1 I I #
point $-1 -48.284627728738919 -9.0268981635535077 6.5527312789128747 #
edge $-1 $481 1 $481 0 $274 $-1 forward 7 unknown #
vertex $-1 $275 $482 #
ellipse-curve $-1 -48.100929412641165 -6.4260785245411434 5.4492414452657725 -0.5877852598018023 0 0.80901698891910034 0.40450849445955017 0 0.29389262990090115 1 I I #
point $-1 -48.284627728738919 -6.4260785245411434 6.5527312789128747 #
loop $-1 $-1 $286 $278 #
plane-surface $-1 -54.560991241187779 0 0 1 0 0 0 0 -1 forward_v I I I I #
coedge $-1 $400 $281 $283 $404 reversed $179 $-1 #
coedge $-1 $281 $399 $483 $484 reversed $179 $-1 #
coedge $-1 $289 $284 $281 $402 forward $279 $-1 #
edge $-1 $405 -16.533360827130146 $485 -4.7896507911515371 $401 $486 forward 7 unknown #
coedge $-1 $283 $282 $408 $487 reversed $112 $-1 #
edge $-1 $488 1.7500491998158137e-014 $405 14.516024010409209 $399 $489 forward 7 unknown #
vertex $-1 $285 $490 #
straight-curve $-1 -42.81728120520917 8.249030810021571 10.524991121135763 0 1 0 I I #
coedge $-1 $483 $286 $289 $412 reversed $397 $-1 #
coedge $-1 $286 $483 $403 $487 forward $397 $-1 #
vertex $-1 $287 $491 #
straight-curve $-1 -54.560991241187779 13.463772041195384 45.137111934831239 0 0 1 I I #
straight-curve $-1 -54.560991241187793 13.463772041195384 1.9926861768881849 -0.80901698891910034 0 -0.5877852598018023 I I #
edge $-1 $485 -19.5323511988909 $290 -13.463772041195384 $407 $492 forward 7 unknown #
point $-1 -54.560991241187779 13.463772041195384 10.524991121135763 #
point $-1 -42.81728120520917 13.463772041195384 10.524991121135763 #
edge $-1 $493 1 $493 0 $293 $-1 forward 7 unknown #
vertex $-1 $294 $494 #
ellipse-curve $-1 -48.100929412641165 15.197651800536956 5.4492414452657725 -0.5877852598018023 0 0.80901698891910034 0.40450849445955017 0 0.29389262990090115 1 I I #
point $-1 -48.284627728738919 15.197651800536956 6.5527312789128747 #
edge $-1 $495 1 $495 0 $297 $-1 forward 7 unknown #
vertex $-1 $298 $496 #
ellipse-curve $-1 -48.100929412641165 17.798471439549321 5.4492414452657725 -0.5877852598018023 0 0.80901698891910034 0.40450849445955017 0 0.29389262990090115 1 I I #
point $-1 -48.284627728738919 17.798471439549321 6.5527312789128747 #
plane-surface $-1 54.560991241187779 0 0 -1 0 0 0 0 1 forward_v I I I I #
coedge $-1 $306 $304 $308 $428 reversed $201 $-1 #
edge $-1 $319 -10.524991121135763 $430 10.524991121135763 $318 $497 forward 7 unknown #
vertex $-1 $428 $498 #
straight-curve $-1 -54.560991241187779 -29.153589252821806 0 0 0 -1 I I #
edge $-1 $426 -29.153589252821806 $430 29.153589252821806 $424 $499 forward 7 unknown #
straight-curve $-1 0 -29.153589252821806 -10.524991121135763 -1 0 0 I I #
vertex $-1 $311 $500 #
straight-curve $-1 0 29.153589252821806 -10.524991121135763 1 0 0 I I #
point $-1 54.560991241187779 29.153589252821806 -10.524991121135763 #
point $-1 54.560991241187779 -29.153589252821806 -10.524991121135763 #
straight-curve $-1 -54.560991241187779 0 10.524991121135763 0 -1 0 I I #
point $-1 -54.560991241187779 29.153589252821806 10.524991121135763 #
point $-1 -54.560991241187779 -29.153589252821806 10.524991121135763 #
straight-curve $-1 54.560991241187779 -29.153589252821806 0 0 0 -1 I I #
straight-curve $-1 54.560991241187779 29.153589252821806 0 0 0 -1 I I #
loop $-1 $-1 $447 $328 #
plane-surface $-1 -54.560991241187779 0 0 1 0 0 0 0 -1 forward_v I I I I #
coedge $-1 $332 $331 $453 $501 forward $134 $-1 #
edge $-1 $336 20.382015976825993 $456 29.153589252821806 $335 $502 forward 7 unknown #
coedge $-1 $450 $447 $332 $444 reversed $439 $-1 #
edge $-1 $503 -29.153589252821806 $445 -20.382015976825993 $443 $504 forward 7 unknown #
vertex $-1 $448 $505 #
straight-curve $-1 0 -20.382015976825993 -10.524991121135763 1 0 0 I I #
coedge $-1 $443 $338 $334 $448 forward $439 $-1 #
edge $-1 $340 1.9362199843943699 $445 6.3712540859590518 $447 $506 forward 7 unknown #
point $-1 54.560991241187779 -20.382015976825993 -10.524991121135763 #
coedge $-1 $338 $443 $342 $454 reversed $439 $-1 #
straight-curve $-1 -54.560991241187779 -12.38390130741195 -6.0899570195710808 0 1 0 I I #
point $-1 -54.560991241187779 -20.382015976825993 -6.0899570195710808 #
coedge $-1 $343 $342 $441 $501 reversed $329 $-1 #
edge $-1 $344 6.0899570195710808 $503 10.524991121135763 $450 $507 forward 7 unknown #
point $-1 -54.560991241187779 -29.153589252821806 -6.0899570195710808 #
vertex $-1 $346 $508 #
straight-curve $-1 54.560991241187779 -29.153589252821806 0 0 0 -1 I I #
edge $-1 $459 68.767334145342573 $462 73.527612991239522 $350 $509 forward 7 unknown #
vertex $-1 $364 $510 #
straight-curve $-1 38.019217526331268 -20.382015976825993 10.524991121135756 1 0 0 I I #
edge $-1 $462 -12.130364425653546 $361 -4.3729386766913478 $360 $511 forward 7 unknown #
vertex $-1 $461 $512 #
straight-curve $-1 -11.110255981933776 -20.382015976825993 92.913403309835104 -0.60181501223851219 0 0.79863551827123203 I I #
point $-1 50.97386393923216 -20.382015976825993 10.52499112113577 #
point $-1 54.560991241187779 -12.624590227863795 5.7647122752388071 #
straight-curve $-1 54.560991241187779 0 10.524991121135763 0 1 0 I I #
vertex $-1 $367 $513 #
point $-1 51.637017347800381 -16.503303102344894 6.0408908606984522 #
coedge $-1 $382 $381 $374 $470 forward $371 $-1 #
edge $-1 $471 34.612120813695476 $474 43.144425757943047 $469 $514 forward 7 unknown #
vertex $-1 $386 $515 #
straight-curve $-1 -59.350642032339316 -4.6921987651995671 10.524991121135763 -1 0 0 I I #
edge $-1 $474 0.82895459317590436 $383 6.8975337508714212 $382 $516 forward 7 unknown #
vertex $-1 $473 $517 #
straight-curve $-1 -54.560991241187793 -4.6921987651995671 1.9926861768881849 0.80901698891910034 0 0.5877852598018023 I I #
point $-1 -42.81728120520917 -4.6921987651995671 10.524991121135763 #
point $-1 -54.560991241187779 -10.760777922895084 1.9926861768881952 #
straight-curve $-1 -54.560991241187779 0 10.524991121135763 0 -1 0 I I #
vertex $-1 $389 $518 #
point $-1 -47.696420918181616 -9.0268981635535077 5.7431340751666733 #
vertex $-1 $393 $519 #
point $-1 -47.696420918181616 -6.4260785245411434 5.7431340751666733 #
coedge $-1 $408 $407 $400 $484 forward $397 $-1 #
edge $-1 $485 34.612120813695476 $488 43.144425757943047 $483 $520 forward 7 unknown #
vertex $-1 $412 $521 #
straight-curve $-1 -59.350642032339316 19.5323511988909 10.524991121135763 -1 0 0 I I #
edge $-1 $488 -11.283320388869329 $409 -5.2147412311738126 $408 $522 forward 7 unknown #
vertex $-1 $487 $523 #
straight-curve $-1 -54.560991241187793 19.5323511988909 1.9926861768881849 0.80901698891910034 0 0.5877852598018023 I I #
point $-1 -42.81728120520917 19.5323511988909 10.524991121135763 #
point $-1 -54.560991241187779 13.463772041195384 1.9926861768881952 #
straight-curve $-1 -54.560991241187779 0 10.524991121135763 0 -1 0 I I #
vertex $-1 $415 $524 #
point $-1 -47.696420918181616 15.197651800536956 5.7431340751666733 #
vertex $-1 $419 $525 #
point $-1 -47.696420918181616 17.798471439549321 5.7431340751666733 #
straight-curve $-1 -54.560991241187779 29.153589252821806 0 0 0 -1 I I #
point $-1 -54.560991241187779 -29.153589252821806 -10.524991121135763 #
straight-curve $-1 -54.560991241187779 0 -10.524991121135763 0 1 0 I I #
point $-1 -54.560991241187779 29.153589252821806 -10.524991121135763 #
edge $-1 $456 -54.560991241187779 $503 54.560991241187779 $453 $526 forward 7 unknown #
straight-curve $-1 54.560991241187779 0 -10.524991121135763 0 -1 0 I I #
vertex $-1 $444 $527 #
straight-curve $-1 -54.560991241187779 0 -10.524991121135763 0 1 0 I I #
point $-1 -54.560991241187779 -20.382015976825993 -10.524991121135763 #
straight-curve $-1 -54.560991241187779 -20.382015976825993 -4.1537370351767109 0 0 -1 I I #
straight-curve $-1 -54.560991241187779 -29.153589252821806 0 0 0 -1 I I #
point $-1 54.560991241187779 -29.153589252821806 -10.524991121135763 #
straight-curve $-1 54.560991241187779 -20.382015976825993 79.292325266478329 0 0 -1 I I #
point $-1 54.560991241187779 -20.382015976825993 10.524991121135763 #
straight-curve $-1 54.560991241187779 -8.2516515511724471 5.7647122752387929 0 1 0 I I #
point $-1 54.560991241187779 -20.382015976825993 5.7647122752388071 #
point $-1 50.236566817290637 -16.503303102344894 6.2377113667311717 #
straight-curve $-1 -54.560991241187779 -4.6921987651995671 45.137111934831239 0 0 -1 I I #
point $-1 -54.560991241187779 -4.6921987651995671 10.524991121135763 #
straight-curve $-1 -54.560991241187779 -3.8632441720236628 1.9926861768881949 0 -1 0 I I #
point $-1 -54.560991241187779 -4.6921987651995671 1.9926861768881952 #
point $-1 -47.807036782740269 -9.0268981635535077 5.044732950806222 #
point $-1 -47.807036782740269 -6.4260785245411434 5.044732950806222 #
straight-curve $-1 -54.560991241187779 19.5323511988909 45.137111934831239 0 0 -1 I I #
point $-1 -54.560991241187779 19.5323511988909 10.524991121135763 #
straight-curve $-1 -54.560991241187779 8.249030810021571 1.9926861768881949 0 -1 0 I I #
point $-1 -54.560991241187779 19.5323511988909 1.9926861768881952 #
point $-1 -47.807036782740269 15.197651800536956 5.044732950806222 #
point $-1 -47.807036782740269 17.798471439549321 5.044732950806222 #
straight-curve $-1 0 -29.153589252821806 -10.524991121135763 -1 0 0 I I #
point $-1 -54.560991241187779 -29.153589252821806 -10.524991121135763 #
End-of-ACIS-data 