500 0 7 0           
7 Unknown 11 ACIS 5.0 NT 24 Thu Mar 25 23:43:45 1999 
-1 9.9999999999999995e-007 1e-010 
body $-1 $7 $-1 $8 #
body $-1 $9 $-1 $10 #
body $-1 $11 $-1 $12 #
body $-1 $13 $-1 $14 #
body $-1 $15 $-1 $16 #
body $-1 $17 $-1 $18 #
body $-1 $19 $-1 $20 #
lump $-1 $-1 $21 $0 #
transform $-1 1 0 0 0 1 0 0 0 1 40.062257759331033 20.212201921877405 6.6620631487978867 1 rotate no_reflect no_shear #
lump $-1 $-1 $22 $1 #
transform $-1 1 0 0 0 1 0 0 0 1 40.062257759331033 20.212201921877405 6.6620631487978867 1 rotate no_reflect no_shear #
lump $-1 $-1 $23 $2 #
transform $-1 1 0 0 0 1 0 0 0 1 40.062257759331033 20.212201921877405 6.6620631487978867 1 rotate no_reflect no_shear #
lump $-1 $-1 $24 $3 #
transform $-1 1 0 0 0 1 0 0 0 1 40.062257759331033 20.212201921877405 6.6620631487978867 1 rotate no_reflect no_shear #
lump $-1 $-1 $25 $4 #
transform $-1 1 0 0 0 1 0 0 0 1 40.062257759331033 20.212201921877405 6.6620631487978867 1 rotate no_reflect no_shear #
lump $-1 $-1 $26 $5 #
transform $-1 1 0 0 0 1 0 0 0 1 40.062257759331033 20.212201921877405 6.6620631487978867 1 rotate no_reflect no_shear #
lump $-1 $-1 $27 $6 #
transform $-1 1 0 0 0 1 0 0 0 1 40.062257759331033 20.212201921877405 6.6620631487978867 1 rotate no_reflect no_shear #
shell $-1 $-1 $-1 $28 $-1 $7 #
shell $-1 $-1 $-1 $29 $-1 $9 #
shell $-1 $-1 $-1 $30 $-1 $11 #
shell $-1 $-1 $-1 $31 $-1 $13 #
shell $-1 $-1 $-1 $32 $-1 $15 #
shell $-1 $-1 $-1 $33 $-1 $17 #
shell $-1 $-1 $-1 $34 $-1 $19 #
face $-1 $35 $36 $21 $-1 $37 forward single #
face $-1 $38 $39 $22 $-1 $40 forward single #
face $-1 $41 $42 $23 $-1 $43 reversed single #
face $-1 $44 $45 $24 $-1 $46 forward single #
face $-1 $47 $48 $25 $-1 $49 reversed single #
face $-1 $50 $51 $26 $-1 $52 forward single #
face $-1 $53 $54 $27 $-1 $55 forward single #
face $-1 $56 $57 $21 $-1 $58 reversed single #
loop $-1 $-1 $59 $28 #
plane-surface $-1 0 0 6.6620631487978867 0 0 1 1 0 0 forward_v I I I I #
face $-1 $60 $61 $22 $-1 $62 reversed single #
loop $-1 $-1 $63 $29 #
plane-surface $-1 0 -20.212201921877405 0 0 1 0 0 0 1 forward_v I I I I #
face $-1 $64 $65 $23 $-1 $66 reversed single #
loop $-1 $-1 $67 $30 #
plane-surface $-1 49.938153277713042 3.5971038097960069 115.39224283367597 0 -1 0 -0.7660444514056185 0 -0.64278759981090561 forward_v I I I I #
face $-1 $68 $69 $24 $-1 $70 forward single #
loop $-1 $71 $72 $31 #
cone-surface $-1 37.886077066864708 0.49005273056711474 4.2217465115212676 -0.7660444514056185 0 -0.64278759981090561 0.64278759981090561 0 -0.7660444514056185 1 I I 0 1 1 forward I I I I #
face $-1 $73 $74 $25 $-1 $75 reversed single #
loop $-1 $-1 $76 $32 #
plane-surface $-1 -87.158266929961343 -9.4571382791739573 68.038232203763528 0 1 0 -0.5877852598018023 0 0.80901698891910034 forward_v I I I I #
face $-1 $77 $78 $26 $-1 $79 forward single #
loop $-1 $80 $81 $33 #
cone-surface $-1 -36.763965578157844 -6.8560847115542458 3.6634179946695307 0.5877852598018023 0 -0.80901698891910034 0.80901698891910034 0 0.5877852598018023 1 I I 0 1 1 forward I I I I #
face $-1 $82 $83 $27 $-1 $84 forward single #
loop $-1 $85 $86 $34 #
cone-surface $-1 -36.763965578157844 -2.9545043601246803 3.6634179946695307 0.5877852598018023 0 -0.80901698891910034 0.80901698891910034 0 0.5877852598018023 1 I I 0 1 1 forward I I I I #
face $-1 $87 $88 $21 $-1 $89 reversed single #
loop $-1 $-1 $90 $35 #
plane-surface $-1 0 0 -6.6620631487978867 0 0 1 1 0 0 forward_v I I I I #
coedge $-1 $91 $92 $93 $94 forward $36 $-1 #
face $-1 $95 $96 $22 $-1 $97 forward single #
loop $-1 $-1 $98 $38 #
plane-surface $-1 -40.062257759331033 0 0 1 0 0 0 0 -1 forward_v I I I I #
coedge $-1 $99 $100 $101 $102 forward $39 $-1 #
face $-1 $103 $104 $23 $-1 $105 reversed single #
loop $-1 $-1 $106 $41 #
plane-surface $-1 -11.440787256921404 0.49005273056711474 63.889197817423515 0.7660444514056185 0 0.64278759981090561 0.64278759981090561 0 -0.7660444514056185 forward_v I I I I #
coedge $-1 $107 $108 $109 $110 reversed $42 $-1 #
face $-1 $-1 $111 $24 $-1 $112 forward single #
loop $-1 $113 $114 $44 #
cone-surface $-1 37.068763488534671 0.49005273056711474 3.5359390073436119 -0.7660444514056185 0 -0.64278759981090561 0.3213937999054528 0 -0.38302222570280925 1 I I -0.70710678118654746 0.70710678118654746 0.5 forward I I I I #
loop $-1 $-1 $115 $31 #
coedge $-1 $72 $72 $116 $117 reversed $45 $-1 #
face $-1 $118 $119 $25 $-1 $120 reversed single #
loop $-1 $-1 $121 $47 #
plane-surface $-1 -40.062257759331018 -4.9052945358394631 3.2161379202538143 -0.5877852598018023 0 0.80901698891910034 0.80901698891910034 0 0.5877852598018023 forward_v I I I I #
coedge $-1 $122 $123 $124 $125 reversed $48 $-1 #
face $-1 $-1 $126 $26 $-1 $127 forward single #
loop $-1 $128 $129 $50 #
cone-surface $-1 -35.54323531272609 -6.8560847115542458 1.983226960353659 0.5877852598018023 0 -0.80901698891910034 0.40450849445955017 0 0.29389262990090115 1 I I -0.70710678118654746 0.70710678118654746 0.5 forward I I I I #
loop $-1 $-1 $130 $33 #
coedge $-1 $81 $81 $131 $132 reversed $51 $-1 #
face $-1 $-1 $133 $27 $-1 $134 forward single #
loop $-1 $135 $136 $53 #
cone-surface $-1 -35.54323531272609 -2.9545043601246803 1.983226960353659 0.5877852598018023 0 -0.80901698891910034 0.40450849445955017 0 0.29389262990090115 1 I I -0.70710678118654746 0.70710678118654746 0.5 forward I I I I #
loop $-1 $-1 $137 $34 #
coedge $-1 $86 $86 $138 $139 reversed $54 $-1 #
face $-1 $140 $141 $21 $-1 $142 reversed single #
loop $-1 $-1 $143 $56 #
plane-surface $-1 0 -20.212201921877405 0 0 1 0 0 0 1 forward_v I I I I #
coedge $-1 $144 $145 $146 $147 forward $57 $-1 #
coedge $-1 $148 $59 $149 $150 forward $36 $-1 #
coedge $-1 $59 $148 $151 $152 forward $36 $-1 #
coedge $-1 $153 $154 $59 $94 reversed $155 $-1 #
edge $-1 $156 -20.212201921877405 $157 20.212201921877405 $93 $158 forward 7 unknown #
face $-1 $159 $160 $22 $-1 $161 reversed single #
loop $-1 $-1 $162 $60 #
plane-surface $-1 0 -24.231355268378614 2.5389662302414644 0 0 1 1 0 0 forward_v I I I I #
coedge $-1 $163 $164 $100 $165 forward $61 $-1 #
coedge $-1 $166 $63 $167 $168 reversed $39 $-1 #
coedge $-1 $63 $166 $98 $165 reversed $39 $-1 #
coedge $-1 $169 $162 $63 $102 reversed $96 $-1 #
edge $-1 $170 -40.062257759331033 $171 40.062257759331033 $101 $172 forward 7 unknown #
face $-1 $173 $174 $23 $-1 $175 reversed single #
loop $-1 $-1 $176 $64 #
plane-surface $-1 49.938153277713042 -2.6169983486617774 115.39224283367597 0 1 0 0.7660444514056185 0 0.64278759981090561 forward_v I I I I #
coedge $-1 $177 $178 $179 $180 reversed $65 $-1 #
coedge $-1 $108 $67 $181 $182 reversed $42 $-1 #
coedge $-1 $67 $107 $177 $183 reversed $42 $-1 #
coedge $-1 $179 $184 $67 $110 forward $185 $-1 #
edge $-1 $186 -15.093181120474512 $187 -11.609402440796366 $109 $188 forward 7 unknown #
loop $-1 $-1 $116 $68 #
plane-surface $-1 -11.440787256921404 0.49005273056711474 63.889197817423515 0.7660444514056185 0 0.64278759981090561 0.64278759981090561 0 -0.7660444514056185 forward_v I I I I #
loop $-1 $-1 $189 $44 #
coedge $-1 $114 $114 $115 $190 reversed $69 $-1 #
coedge $-1 $115 $115 $114 $190 forward $71 $-1 #
coedge $-1 $116 $116 $72 $117 forward $111 $-1 #
edge $-1 $191 0 $191 6.2831853071796004 $116 $192 forward 7 unknown #
face $-1 $193 $194 $25 $-1 $195 forward single #
loop $-1 $-1 $196 $73 #
plane-surface $-1 -87.158266929961343 -0.3534507925049688 68.038232203763528 0 -1 0 0.5877852598018023 0 -0.80901698891910034 forward_v I I I I #
coedge $-1 $197 $198 $199 $200 reversed $74 $-1 #
coedge $-1 $123 $76 $201 $202 reversed $48 $-1 #
coedge $-1 $76 $122 $197 $203 reversed $48 $-1 #
coedge $-1 $199 $204 $76 $125 forward $194 $-1 #
edge $-1 $205 3.5168757056496389 $206 8.2597847969343192 $124 $207 forward 7 unknown #
loop $-1 $-1 $131 $77 #
plane-surface $-1 -40.062257759331018 -4.9052945358394631 3.2161379202538143 -0.5877852598018023 0 0.80901698891910034 0.80901698891910034 0 0.5877852598018023 forward_v I I I I #
loop $-1 $-1 $208 $50 #
coedge $-1 $129 $129 $130 $209 reversed $78 $-1 #
coedge $-1 $130 $130 $129 $209 forward $80 $-1 #
coedge $-1 $131 $131 $81 $132 forward $126 $-1 #
edge $-1 $210 0 $210 6.2831853071796004 $131 $211 forward 7 unknown #
loop $-1 $-1 $138 $82 #
plane-surface $-1 -40.062257759331018 -4.9052945358394631 3.2161379202538143 -0.5877852598018023 0 0.80901698891910034 0.80901698891910034 0 0.5877852598018023 forward_v I I I I #
loop $-1 $-1 $212 $53 #
coedge $-1 $136 $136 $137 $213 reversed $83 $-1 #
coedge $-1 $137 $137 $136 $213 forward $85 $-1 #
coedge $-1 $138 $138 $86 $139 forward $133 $-1 #
edge $-1 $214 0 $214 6.2831853071796004 $138 $215 forward 7 unknown #
face $-1 $216 $217 $21 $-1 $218 reversed single #
loop $-1 $-1 $219 $87 #
plane-surface $-1 -40.062257759331033 0 0 1 0 0 0 0 -1 forward_v I I I I #
coedge $-1 $220 $151 $221 $222 forward $88 $-1 #
coedge $-1 $223 $90 $220 $224 forward $57 $-1 #
coedge $-1 $90 $223 $225 $226 forward $57 $-1 #
coedge $-1 $154 $153 $90 $147 reversed $155 $-1 #
edge $-1 $227 -20.212201921877405 $228 20.212201921877405 $146 $229 forward 7 unknown #
coedge $-1 $92 $91 $230 $231 forward $36 $-1 #
coedge $-1 $232 $233 $91 $150 reversed $217 $-1 #
edge $-1 $157 -40.062257759331033 $234 40.062257759331033 $149 $235 forward 7 unknown #
coedge $-1 $143 $236 $92 $152 reversed $88 $-1 #
edge $-1 $237 -40.062257759331033 $156 40.062257759331033 $151 $238 forward 7 unknown #
coedge $-1 $146 $93 $236 $239 forward $155 $-1 #
coedge $-1 $93 $146 $232 $240 reversed $155 $-1 #
loop $-1 $-1 $153 $216 #
vertex $-1 $94 $241 #
vertex $-1 $94 $242 #
straight-curve $-1 40.062257759331033 0 6.6620631487978867 0 1 0 I I #
face $-1 $243 $244 $22 $-1 $245 reversed single #
loop $-1 $-1 $246 $95 #
plane-surface $-1 0 -24.231355268378614 -0.46103376975853561 0 0 1 1 0 0 forward_v I I I I #
coedge $-1 $101 $247 $248 $249 forward $96 $-1 #
coedge $-1 $250 $98 $251 $252 reversed $61 $-1 #
coedge $-1 $98 $250 $169 $253 reversed $61 $-1 #
edge $-1 $170 -2.5389662302414644 $254 0.46103376975853561 $98 $255 forward 7 unknown #
coedge $-1 $100 $99 $256 $257 forward $39 $-1 #
coedge $-1 $248 $258 $99 $168 forward $259 $-1 #
edge $-1 $260 -0.46103376975853561 $171 2.5389662302414644 $167 $261 forward 7 unknown #
coedge $-1 $247 $101 $164 $253 forward $96 $-1 #
vertex $-1 $165 $262 #
vertex $-1 $249 $263 #
straight-curve $-1 0 -20.212201921877405 2.5389662302414644 1 0 0 I I #
face $-1 $-1 $185 $23 $-1 $264 forward single #
loop $-1 $-1 $265 $103 #
plane-surface $-1 40.062257759331033 0 0 -1 0 0 0 0 1 forward_v I I I I #
coedge $-1 $266 $267 $268 $269 reversed $104 $-1 #
coedge $-1 $270 $106 $108 $183 forward $65 $-1 #
coedge $-1 $106 $270 $266 $271 forward $65 $-1 #
coedge $-1 $268 $109 $106 $180 forward $185 $-1 #
edge $-1 $187 -3.3520774445124495 $272 2.8620247139453348 $179 $273 forward 7 unknown #
coedge $-1 $274 $275 $107 $182 forward $174 $-1 #
edge $-1 $276 -55.185864134048906 $186 -51.034058268040098 $181 $277 forward 7 unknown #
edge $-1 $187 74.704717935910011 $276 80.124515518662079 $108 $278 forward 7 unknown #
coedge $-1 $109 $268 $274 $279 forward $185 $-1 #
loop $-1 $-1 $268 $173 #
vertex $-1 $182 $280 #
vertex $-1 $110 $281 #
straight-curve $-1 24.969076638856521 3.5971038097960069 6.6620631487978841 -1 0 0 I I #
coedge $-1 $189 $189 $-1 $282 reversed $113 $-1 #
edge $-1 $283 0 $283 6.2831853071796004 $114 $284 forward 7 unknown #
vertex $-1 $117 $285 #
ellipse-curve $-1 38.320368419491956 0.49005273056711474 4.5861602157934831 0.7660444514056185 0 0.64278759981090561 0.64278759981090561 0 -0.7660444514056185 1 I I #
face $-1 $-1 $286 $25 $-1 $287 reversed single #
loop $-1 $-1 $124 $118 #
plane-surface $-1 0 0 6.6620631487978867 0 0 1 1 0 0 forward_v I I I I #
coedge $-1 $288 $289 $290 $291 reversed $119 $-1 #
coedge $-1 $292 $121 $123 $203 forward $74 $-1 #
coedge $-1 $121 $292 $288 $293 forward $74 $-1 #
coedge $-1 $290 $124 $121 $200 forward $194 $-1 #
edge $-1 $206 -7.0044910112542258 $294 2.0991964754147627 $199 $295 forward 7 unknown #
coedge $-1 $296 $297 $122 $202 forward $286 $-1 #
edge $-1 $298 -30.80297818162796 $205 -27.357052953083876 $201 $299 forward 7 unknown #
edge $-1 $206 -5.8625580874655103 $298 1.7500491998158137e-014 $123 $300 forward 7 unknown #
coedge $-1 $124 $290 $296 $301 forward $194 $-1 #
vertex $-1 $125 $302 #
vertex $-1 $125 $303 #
straight-curve $-1 -43.579133464980671 -9.4571382791739573 6.6620631487978876 1 0 0 I I #
coedge $-1 $208 $208 $-1 $304 reversed $128 $-1 #
edge $-1 $305 0 $305 6.2831853071796004 $129 $306 forward 7 unknown #
vertex $-1 $132 $307 #
ellipse-curve $-1 -37.690803213688696 -6.8560847115542458 4.9391005345258439 -0.5877852598018023 0 0.80901698891910034 0.80901698891910034 0 0.5877852598018023 1 I I #
coedge $-1 $212 $212 $-1 $308 reversed $135 $-1 #
edge $-1 $309 0 $309 6.2831853071796004 $136 $310 forward 7 unknown #
vertex $-1 $139 $311 #
ellipse-curve $-1 -37.690803213688696 -2.9545043601246803 4.9391005345258439 -0.5877852598018023 0 0.80901698891910034 0.80901698891910034 0 0.5877852598018023 1 I I #
face $-1 $-1 $155 $21 $-1 $312 reversed single #
loop $-1 $-1 $232 $140 #
plane-surface $-1 0 20.212201921877405 0 0 -1 0 0 0 -1 forward_v I I I I #
coedge $-1 $313 $230 $233 $314 forward $141 $-1 #
coedge $-1 $236 $143 $144 $224 reversed $88 $-1 #
coedge $-1 $230 $313 $143 $222 reversed $141 $-1 #
edge $-1 $237 -6.6620631487978867 $315 6.6620631487978867 $221 $316 forward 7 unknown #
coedge $-1 $145 $144 $313 $317 forward $57 $-1 #
edge $-1 $228 -40.062257759331033 $315 40.062257759331033 $220 $318 forward 7 unknown #
coedge $-1 $233 $232 $145 $226 reversed $217 $-1 #
edge $-1 $319 -40.062257759331033 $227 40.062257759331033 $225 $320 forward 7 unknown #
vertex $-1 $147 $321 #
vertex $-1 $239 $322 #
straight-curve $-1 40.062257759331033 0 -6.6620631487978867 0 -1 0 I I #
coedge $-1 $219 $221 $148 $231 reversed $141 $-1 #
edge $-1 $234 -20.212201921877405 $237 20.212201921877405 $230 $323 forward 7 unknown #
coedge $-1 $225 $149 $154 $240 forward $217 $-1 #
coedge $-1 $149 $225 $219 $314 reversed $217 $-1 #
vertex $-1 $150 $324 #
straight-curve $-1 0 20.212201921877405 6.6620631487978867 -1 0 0 I I #
coedge $-1 $151 $220 $153 $239 reversed $88 $-1 #
vertex $-1 $231 $325 #
straight-curve $-1 0 -20.212201921877405 6.6620631487978867 1 0 0 I I #
edge $-1 $156 -6.6620631487978867 $228 6.6620631487978867 $153 $326 forward 7 unknown #
edge $-1 $157 -6.6620631487978867 $227 6.6620631487978867 $154 $327 forward 7 unknown #
point $-1 40.062257759331033 -20.212201921877405 6.6620631487978867 #
point $-1 40.062257759331033 20.212201921877405 6.6620631487978867 #
face $-1 $-1 $259 $22 $-1 $328 reversed single #
loop $-1 $-1 $329 $159 #
plane-surface $-1 0 -28.250508614879823 1.0389662302414644 0 1 0 0 0 1 forward_v I I I I #
coedge $-1 $330 $256 $258 $331 forward $160 $-1 #
coedge $-1 $162 $169 $332 $333 forward $96 $-1 #
coedge $-1 $334 $167 $162 $249 reversed $259 $-1 #
edge $-1 $335 -4.0191533465012093 $171 4.0191533465012093 $248 $336 forward 7 unknown #
coedge $-1 $164 $163 $329 $337 reversed $61 $-1 #
coedge $-1 $256 $330 $163 $252 forward $160 $-1 #
edge $-1 $338 -4.0191533465012093 $254 4.0191533465012093 $163 $339 forward 7 unknown #
edge $-1 $170 -4.0191533465012093 $340 4.0191533465012093 $164 $341 forward 7 unknown #
vertex $-1 $165 $342 #
straight-curve $-1 -40.062257759331033 -20.212201921877405 0 0 0 -1 I I #
coedge $-1 $246 $251 $166 $257 reversed $160 $-1 #
edge $-1 $260 -40.062257759331033 $254 40.062257759331033 $256 $343 forward 7 unknown #
coedge $-1 $167 $334 $246 $331 reversed $259 $-1 #
loop $-1 $-1 $167 $243 #
vertex $-1 $168 $344 #
straight-curve $-1 40.062257759331033 -20.212201921877405 0 0 0 1 I I #
point $-1 -40.062257759331033 -20.212201921877405 2.5389662302414644 #
point $-1 40.062257759331033 -20.212201921877405 2.5389662302414644 #
plane-surface $-1 0 0 6.6620631487978867 0 0 1 1 0 0 forward_v I I I I #
coedge $-1 $275 $274 $267 $345 forward $174 $-1 #
coedge $-1 $267 $176 $178 $271 reversed $104 $-1 #
coedge $-1 $176 $266 $265 $345 reversed $104 $-1 #
coedge $-1 $184 $179 $176 $269 forward $185 $-1 #
edge $-1 $272 11.609402440796366 $346 15.093181120474512 $268 $347 forward 7 unknown #
coedge $-1 $178 $177 $275 $348 reversed $65 $-1 #
edge $-1 $349 -80.124515518662079 $272 -74.704717935910011 $266 $350 forward 7 unknown #
vertex $-1 $180 $351 #
straight-curve $-1 36.578479079652894 0.24502636528355737 6.662063148797877 0 -1 0 I I #
coedge $-1 $265 $181 $184 $279 reversed $174 $-1 #
coedge $-1 $181 $265 $270 $348 forward $174 $-1 #
vertex $-1 $182 $352 #
straight-curve $-1 40.062257759331033 3.5971038097960069 57.696121416837983 0 0 1 I I #
straight-curve $-1 -11.440787256921404 3.5971038097960069 63.889197817423515 0.64278759981090561 0 -0.7660444514056185 I I #
edge $-1 $346 -2.6169983486617774 $186 3.5971038097960069 $274 $353 forward 7 unknown #
point $-1 40.062257759331033 3.5971038097960069 6.6620631487978867 #
point $-1 36.578479079652887 3.5971038097960069 6.6620631487978841 #
edge $-1 $354 1 $354 0 $189 $-1 forward 7 unknown #
vertex $-1 $190 $355 #
ellipse-curve $-1 37.451785714237481 0.49005273056711474 3.8573328072490645 0.7660444514056185 0 0.64278759981090561 0.64278759981090561 0 -0.7660444514056185 1 I I #
point $-1 38.963156019302851 0.49005273056711474 3.8201157643878529 #
loop $-1 $-1 $201 $193 #
plane-surface $-1 -40.062257759331033 0 0 1 0 0 0 0 -1 forward_v I I I I #
coedge $-1 $289 $196 $198 $293 reversed $119 $-1 #
coedge $-1 $196 $288 $356 $357 reversed $119 $-1 #
coedge $-1 $204 $199 $196 $291 forward $194 $-1 #
edge $-1 $294 -8.2597847969343192 $358 -3.5168757056496389 $290 $359 forward 7 unknown #
coedge $-1 $198 $197 $297 $360 reversed $74 $-1 #
edge $-1 $361 -1.7500491998158137e-014 $294 5.8625580874655103 $288 $362 forward 7 unknown #
vertex $-1 $200 $363 #
straight-curve $-1 -35.319348668046352 -2.4526472679197315 6.6620631487978876 0 1 0 I I #
coedge $-1 $356 $201 $204 $301 reversed $286 $-1 #
coedge $-1 $201 $356 $292 $360 forward $286 $-1 #
vertex $-1 $202 $364 #
straight-curve $-1 -40.062257759331033 -9.4571382791739573 34.019116101881764 0 0 1 I I #
straight-curve $-1 -40.062257759331018 -9.4571382791739573 3.2161379202538143 -0.80901698891910034 0 -0.5877852598018023 I I #
edge $-1 $358 0.3534507925049688 $205 9.4571382791739573 $296 $365 forward 7 unknown #
point $-1 -40.062257759331033 -9.4571382791739573 6.6620631487978867 #
point $-1 -35.319348668046352 -9.4571382791739573 6.6620631487978876 #
edge $-1 $366 1 $366 0 $208 $-1 forward 7 unknown #
vertex $-1 $209 $367 #
ellipse-curve $-1 -35.837127942626992 -6.8560847115542458 2.387735454813209 -0.5877852598018023 0 0.80901698891910034 0.80901698891910034 0 0.5877852598018023 1 I I #
point $-1 -36.881786224769598 -6.8560847115542458 5.5268857943276544 #
edge $-1 $368 1 $368 0 $212 $-1 forward 7 unknown #
vertex $-1 $213 $369 #
ellipse-curve $-1 -35.837127942626992 -2.9545043601246803 2.387735454813209 -0.5877852598018023 0 0.80901698891910034 0.80901698891910034 0 0.5877852598018023 1 I I #
point $-1 -36.881786224769598 -2.9545043601246803 5.5268857943276544 #
plane-surface $-1 40.062257759331033 0 0 -1 0 0 0 0 1 forward_v I I I I #
coedge $-1 $221 $219 $223 $317 reversed $141 $-1 #
edge $-1 $234 -6.6620631487978867 $319 6.6620631487978867 $233 $370 forward 7 unknown #
vertex $-1 $317 $371 #
straight-curve $-1 -40.062257759331033 -20.212201921877405 0 0 0 -1 I I #
edge $-1 $315 -20.212201921877405 $319 20.212201921877405 $313 $372 forward 7 unknown #
straight-curve $-1 0 -20.212201921877405 -6.6620631487978867 -1 0 0 I I #
vertex $-1 $226 $373 #
straight-curve $-1 0 20.212201921877405 -6.6620631487978867 1 0 0 I I #
point $-1 40.062257759331033 20.212201921877405 -6.6620631487978867 #
point $-1 40.062257759331033 -20.212201921877405 -6.6620631487978867 #
straight-curve $-1 -40.062257759331033 0 6.6620631487978867 0 -1 0 I I #
point $-1 -40.062257759331033 20.212201921877405 6.6620631487978867 #
point $-1 -40.062257759331033 -20.212201921877405 6.6620631487978867 #
straight-curve $-1 40.062257759331033 -20.212201921877405 0 0 0 -1 I I #
straight-curve $-1 40.062257759331033 20.212201921877405 0 0 0 -1 I I #
plane-surface $-1 40.062257759331033 0 0 -1 0 0 0 0 1 forward_v I I I I #
coedge $-1 $374 $332 $250 $337 forward $244 $-1 #
coedge $-1 $251 $246 $374 $375 forward $160 $-1 #
edge $-1 $260 -4.0191533465012093 $376 4.0191533465012093 $258 $377 forward 7 unknown #
coedge $-1 $329 $378 $247 $333 reversed $244 $-1 #
edge $-1 $340 -40.062257759331033 $335 40.062257759331033 $332 $379 forward 7 unknown #
coedge $-1 $258 $248 $378 $380 forward $259 $-1 #
vertex $-1 $249 $381 #
straight-curve $-1 40.062257759331033 -24.231355268378614 2.5389662302414644 0 1 0 I I #
edge $-1 $340 -1.5 $338 1.5 $250 $382 forward 7 unknown #
vertex $-1 $252 $383 #
straight-curve $-1 -40.062257759331033 -24.231355268378614 -0.46103376975853561 0 1 0 I I #
vertex $-1 $253 $384 #
straight-curve $-1 -40.062257759331033 -24.231355268378614 2.5389662302414644 0 -1 0 I I #
point $-1 -40.062257759331033 -20.212201921877405 -0.46103376975853561 #
straight-curve $-1 0 -20.212201921877405 -0.46103376975853561 -1 0 0 I I #
point $-1 40.062257759331033 -20.212201921877405 -0.46103376975853561 #
edge $-1 $346 51.034058268040098 $349 55.185864134048906 $265 $385 forward 7 unknown #
vertex $-1 $279 $386 #
straight-curve $-1 24.969076638856521 -2.6169983486617774 6.6620631487978841 1 0 0 I I #
edge $-1 $349 -2.8620247139453348 $276 3.3520774445124495 $275 $387 forward 7 unknown #
vertex $-1 $348 $388 #
straight-curve $-1 -11.440787256921404 -2.6169983486617774 63.889197817423515 -0.64278759981090561 0 0.7660444514056185 I I #
point $-1 36.578479079652887 -2.6169983486617774 6.6620631487978841 #
point $-1 40.062257759331033 3.5971038097960069 2.5102572827890768 #
straight-curve $-1 40.062257759331033 0 6.6620631487978867 0 1 0 I I #
vertex $-1 $282 $389 #
point $-1 38.09457331404839 0.49005273056711474 3.0912883558434463 #
coedge $-1 $297 $296 $289 $357 forward $286 $-1 #
edge $-1 $358 27.357052953083876 $361 30.80297818162796 $356 $390 forward 7 unknown #
vertex $-1 $301 $391 #
straight-curve $-1 -43.579133464980671 -0.3534507925049688 6.6620631487978876 -1 0 0 I I #
edge $-1 $361 -2.0991964754147627 $298 7.0044910112542258 $297 $392 forward 7 unknown #
vertex $-1 $360 $393 #
straight-curve $-1 -40.062257759331018 -0.3534507925049688 3.2161379202538143 0.80901698891910034 0 0.5877852598018023 I I #
point $-1 -35.319348668046352 -0.3534507925049688 6.6620631487978876 #
point $-1 -40.062257759331033 -9.4571382791739573 3.2161379202538041 #
straight-curve $-1 -40.062257759331033 0 6.6620631487978867 0 -1 0 I I #
vertex $-1 $304 $394 #
point $-1 -35.028110953707888 -6.8560847115542458 2.9755207146150116 #
vertex $-1 $308 $395 #
point $-1 -35.028110953707888 -2.9545043601246803 2.9755207146150116 #
straight-curve $-1 -40.062257759331033 20.212201921877405 0 0 0 -1 I I #
point $-1 -40.062257759331033 -20.212201921877405 -6.6620631487978867 #
straight-curve $-1 -40.062257759331033 0 -6.6620631487978867 0 1 0 I I #
point $-1 -40.062257759331033 20.212201921877405 -6.6620631487978867 #
coedge $-1 $378 $329 $330 $375 reversed $244 $-1 #
edge $-1 $376 -40.062257759331033 $338 40.062257759331033 $374 $396 forward 7 unknown #
vertex $-1 $380 $397 #
straight-curve $-1 40.062257759331033 -24.231355268378614 -0.46103376975853561 0 -1 0 I I #
coedge $-1 $332 $374 $334 $380 reversed $244 $-1 #
straight-curve $-1 0 -28.250508614879823 2.5389662302414644 1 0 0 I I #
edge $-1 $335 -1.5 $376 1.5 $334 $398 forward 7 unknown #
point $-1 40.062257759331033 -28.250508614879823 2.5389662302414644 #
straight-curve $-1 -40.062257759331033 -28.250508614879823 1.0389662302414644 0 0 -1 I I #
point $-1 -40.062257759331033 -28.250508614879823 -0.46103376975853561 #
point $-1 -40.062257759331033 -28.250508614879823 2.5389662302414644 #
straight-curve $-1 40.062257759331033 -2.6169983486617774 57.696121416837983 0 0 -1 I I #
point $-1 40.062257759331033 -2.6169983486617774 6.6620631487978867 #
straight-curve $-1 40.062257759331033 0.24502636528355737 2.5102572827890732 0 1 0 I I #
point $-1 40.062257759331033 -2.6169983486617774 2.5102572827890768 #
point $-1 36.685741262831861 0.49005273056711474 3.2145452074381593 #
straight-curve $-1 -40.062257759331033 -0.3534507925049688 34.019116101881764 0 0 -1 I I #
point $-1 -40.062257759331033 -0.3534507925049688 6.6620631487978867 #
straight-curve $-1 -40.062257759331033 -2.4526472679197315 3.2161379202538023 0 -1 0 I I #
point $-1 -40.062257759331033 -0.3534507925049688 3.2161379202538041 #
point $-1 -35.249342682825187 -6.8560847115542458 1.5787184658941089 #
point $-1 -35.249342682825187 -2.9545043601246803 1.5787184658941089 #
straight-curve $-1 0 -28.250508614879823 -0.46103376975853561 -1 0 0 I I #
point $-1 40.062257759331033 -28.250508614879823 -0.46103376975853561 #
straight-curve $-1 40.062257759331033 -28.250508614879823 1.0389662302414644 0 0 -1 I I #
End-of-ACIS-data 