500 0 11 0           
7 Unknown 11 ACIS 5.0 NT 24 Thu Mar 25 17:15:46 1999 
-1 9.9999999999999995e-007 1e-010 
body $-1 $11 $-1 $12 #
body $-1 $13 $-1 $14 #
body $-1 $15 $-1 $16 #
body $-1 $17 $-1 $18 #
body $-1 $19 $-1 $20 #
body $-1 $21 $-1 $22 #
body $-1 $23 $-1 $24 #
body $-1 $25 $-1 $26 #
body $-1 $27 $-1 $28 #
body $-1 $29 $-1 $30 #
body $-1 $31 $-1 $32 #
lump $-1 $-1 $33 $0 #
transform $-1 1 0 0 0 1 0 0 0 1 46.299020355845819 31.065149141986868 9.3353773788053935 1 rotate no_reflect no_shear #
lump $-1 $-1 $34 $1 #
transform $-1 1 0 0 0 1 0 0 0 1 46.299020355845819 31.065149141986868 9.3353773788053935 1 rotate no_reflect no_shear #
lump $-1 $-1 $35 $2 #
transform $-1 1 0 0 0 1 0 0 0 1 46.299020355845819 31.065149141986868 9.3353773788053935 1 rotate no_reflect no_shear #
lump $-1 $-1 $36 $3 #
transform $-1 1 0 0 0 1 0 0 0 1 46.299020355845819 31.065149141986868 9.3353773788053935 1 rotate no_reflect no_shear #
lump $-1 $-1 $37 $4 #
transform $-1 1 0 0 0 1 0 0 0 1 46.299020355845819 31.065149141986868 9.3353773788053935 1 rotate no_reflect no_shear #
lump $-1 $-1 $38 $5 #
transform $-1 1 0 0 0 1 0 0 0 1 46.299020355845819 31.065149141986868 9.3353773788053935 1 rotate no_reflect no_shear #
lump $-1 $-1 $39 $6 #
transform $-1 1 0 0 0 1 0 0 0 1 46.299020355845819 31.065149141986868 9.3353773788053935 1 rotate no_reflect no_shear #
lump $-1 $-1 $40 $7 #
transform $-1 1 0 0 0 1 0 0 0 1 46.299020355845819 31.065149141986868 9.3353773788053935 1 rotate no_reflect no_shear #
lump $-1 $-1 $41 $8 #
transform $-1 1 0 0 0 1 0 0 0 1 46.299020355845819 31.065149141986868 9.3353773788053935 1 rotate no_reflect no_shear #
lump $-1 $-1 $42 $9 #
transform $-1 1 0 0 0 1 0 0 0 1 46.299020355845819 31.065149141986868 9.3353773788053935 1 rotate no_reflect no_shear #
lump $-1 $-1 $43 $10 #
transform $-1 1 0 0 0 1 0 0 0 1 46.299020355845819 31.065149141986868 9.3353773788053935 1 rotate no_reflect no_shear #
shell $-1 $-1 $-1 $44 $-1 $11 #
shell $-1 $-1 $-1 $45 $-1 $13 #
shell $-1 $-1 $-1 $46 $-1 $15 #
shell $-1 $-1 $-1 $47 $-1 $17 #
shell $-1 $-1 $-1 $48 $-1 $19 #
shell $-1 $-1 $-1 $49 $-1 $21 #
shell $-1 $-1 $-1 $50 $-1 $23 #
shell $-1 $-1 $-1 $51 $-1 $25 #
shell $-1 $-1 $-1 $52 $-1 $27 #
shell $-1 $-1 $-1 $53 $-1 $29 #
shell $-1 $-1 $-1 $54 $-1 $31 #
face $-1 $55 $56 $33 $-1 $57 forward single #
face $-1 $58 $59 $34 $-1 $60 forward single #
face $-1 $61 $62 $35 $-1 $63 reversed single #
face $-1 $64 $65 $36 $-1 $66 reversed single #
face $-1 $67 $68 $37 $-1 $69 forward single #
face $-1 $70 $71 $38 $-1 $72 forward single #
face $-1 $73 $74 $39 $-1 $75 forward single #
face $-1 $76 $77 $40 $-1 $78 reversed single #
face $-1 $79 $80 $41 $-1 $81 forward single #
face $-1 $82 $83 $42 $-1 $84 forward single #
face $-1 $85 $86 $43 $-1 $87 forward single #
face $-1 $88 $89 $33 $-1 $90 reversed single #
loop $-1 $-1 $91 $44 #
plane-surface $-1 0 0 9.3353773788053935 0 0 1 1 0 0 forward_v I I I I #
face $-1 $92 $93 $34 $-1 $94 reversed single #
loop $-1 $-1 $95 $45 #
plane-surface $-1 0 -25.251007050269823 1.192725610163734 0 0 1 1 0 0 forward_v I I I I #
face $-1 $96 $97 $35 $-1 $98 reversed single #
loop $-1 $-1 $99 $46 #
plane-surface $-1 -43.93521858655933 22.650574390468044 0 0 1 0 0 0 1 forward_v I I I I #
face $-1 $100 $101 $36 $-1 $102 reversed single #
loop $-1 $-1 $103 $47 #
plane-surface $-1 39.445450096820842 -7.3445404889031156 132.32515516838066 0 -1 0 -0.66913061440640931 0 -0.74314481823134659 forward_v I I I I #
face $-1 $104 $105 $37 $-1 $106 forward single #
loop $-1 $107 $108 $48 #
cone-surface $-1 41.450115410379581 -13.237945434810289 4.8587684088947691 -0.66913061440640931 0 -0.74314481823134659 0.3715724091156733 0 -0.33456530720320465 1 I I 0 1 0.5 forward I I I I #
face $-1 $109 $110 $38 $-1 $111 forward single #
loop $-1 $112 $113 $49 #
cone-surface $-1 41.450115410379581 -11.027918580095097 4.8587684088947691 -0.66913061440640931 0 -0.74314481823134659 0.3715724091156733 0 -0.33456530720320465 1 I I 0 1 0.5 forward I I I I #
face $-1 $114 $115 $39 $-1 $116 forward single #
loop $-1 $117 $118 $50 #
cone-surface $-1 41.450115410379581 -8.817891725379905 4.8587684088947691 -0.66913061440640931 0 -0.74314481823134659 0.3715724091156733 0 -0.33456530720320465 1 I I 0 1 0.5 forward I I I I #
face $-1 $119 $120 $40 $-1 $121 reversed single #
loop $-1 $-1 $122 $51 #
plane-surface $-1 39.445450096820842 17.92500610320235 132.32515516838066 0 -1 0 -0.66913061440640931 0 -0.74314481823134659 forward_v I I I I #
face $-1 $123 $124 $41 $-1 $125 forward single #
loop $-1 $126 $127 $52 #
cone-surface $-1 41.450115410379581 12.031601157295182 4.8587684088947691 -0.66913061440640931 0 -0.74314481823134659 0.3715724091156733 0 -0.33456530720320465 1 I I 0 1 0.5 forward I I I I #
face $-1 $128 $129 $42 $-1 $130 forward single #
loop $-1 $131 $132 $53 #
cone-surface $-1 41.450115410379581 14.24162801201037 4.8587684088947691 -0.66913061440640931 0 -0.74314481823134659 0.3715724091156733 0 -0.33456530720320465 1 I I 0 1 0.5 forward I I I I #
face $-1 $133 $134 $43 $-1 $135 forward single #
loop $-1 $136 $137 $54 #
cone-surface $-1 41.450115410379581 16.451654866725558 4.8587684088947691 -0.66913061440640931 0 -0.74314481823134659 0.3715724091156733 0 -0.33456530720320465 1 I I 0 1 0.5 forward I I I I #
face $-1 $138 $139 $33 $-1 $140 reversed single #
loop $-1 $-1 $141 $55 #
plane-surface $-1 0 0 -9.3353773788053935 0 0 1 1 0 0 forward_v I I I I #
coedge $-1 $142 $143 $144 $145 forward $56 $-1 #
face $-1 $146 $147 $34 $-1 $148 reversed single #
loop $-1 $-1 $149 $58 #
plane-surface $-1 0 -25.251007050269823 -1.807274389836266 0 0 1 1 0 0 forward_v I I I I #
coedge $-1 $150 $151 $152 $153 reversed $59 $-1 #
face $-1 $154 $155 $35 $-1 $156 reversed single #
loop $-1 $-1 $157 $61 #
plane-surface $-1 -41.571416817272841 26.857861766227455 0 -1 0 0 0 0 1 forward_v I I I I #
coedge $-1 $158 $159 $160 $161 reversed $62 $-1 #
face $-1 $162 $163 $36 $-1 $164 reversed single #
loop $-1 $-1 $165 $64 #
plane-surface $-1 -22.514733777423089 -11.027918580095101 63.511401035111746 0.66913061440640931 0 0.74314481823134659 0.74314481823134659 0 -0.66913061440640931 forward_v I I I I #
coedge $-1 $166 $167 $168 $169 reversed $65 $-1 #
face $-1 $-1 $170 $37 $-1 $171 forward single #
loop $-1 $172 $173 $67 #
cone-surface $-1 40.756520594915436 -13.237945434810289 4.0884533433950985 -0.66913061440640931 0 -0.74314481823134659 0.18578620455783665 0 -0.16728265360160233 1 I I -0.70710678118654746 0.70710678118654746 0.25 forward I I I I #
loop $-1 $-1 $174 $48 #
coedge $-1 $108 $108 $175 $176 reversed $68 $-1 #
face $-1 $-1 $177 $38 $-1 $178 forward single #
loop $-1 $179 $180 $70 #
cone-surface $-1 40.756520594915436 -11.027918580095097 4.0884533433950985 -0.66913061440640931 0 -0.74314481823134659 0.18578620455783665 0 -0.16728265360160233 1 I I -0.70710678118654746 0.70710678118654746 0.25 forward I I I I #
loop $-1 $-1 $181 $49 #
coedge $-1 $113 $113 $182 $183 reversed $71 $-1 #
face $-1 $-1 $184 $39 $-1 $185 forward single #
loop $-1 $186 $187 $73 #
cone-surface $-1 40.756520594915436 -8.817891725379905 4.0884533433950985 -0.66913061440640931 0 -0.74314481823134659 0.18578620455783665 0 -0.16728265360160233 1 I I -0.70710678118654746 0.70710678118654746 0.25 forward I I I I #
loop $-1 $-1 $188 $50 #
coedge $-1 $118 $118 $189 $190 reversed $74 $-1 #
face $-1 $191 $192 $40 $-1 $193 reversed single #
loop $-1 $-1 $194 $76 #
plane-surface $-1 -22.514733777423089 14.241628012010363 63.511401035111746 0.66913061440640931 0 0.74314481823134659 0.74314481823134659 0 -0.66913061440640931 forward_v I I I I #
coedge $-1 $195 $196 $197 $198 reversed $77 $-1 #
face $-1 $-1 $199 $41 $-1 $200 forward single #
loop $-1 $201 $202 $79 #
cone-surface $-1 40.756520594915436 12.031601157295182 4.0884533433950985 -0.66913061440640931 0 -0.74314481823134659 0.18578620455783665 0 -0.16728265360160233 1 I I -0.70710678118654746 0.70710678118654746 0.25 forward I I I I #
loop $-1 $-1 $203 $52 #
coedge $-1 $127 $127 $204 $205 reversed $80 $-1 #
face $-1 $-1 $206 $42 $-1 $207 forward single #
loop $-1 $208 $209 $82 #
cone-surface $-1 40.756520594915436 14.24162801201037 4.0884533433950985 -0.66913061440640931 0 -0.74314481823134659 0.18578620455783665 0 -0.16728265360160233 1 I I -0.70710678118654746 0.70710678118654746 0.25 forward I I I I #
loop $-1 $-1 $210 $53 #
coedge $-1 $132 $132 $211 $212 reversed $83 $-1 #
face $-1 $-1 $213 $43 $-1 $214 forward single #
loop $-1 $215 $216 $85 #
cone-surface $-1 40.756520594915436 16.451654866725558 4.0884533433950985 -0.66913061440640931 0 -0.74314481823134659 0.18578620455783665 0 -0.16728265360160233 1 I I -0.70710678118654746 0.70710678118654746 0.25 forward I I I I #
loop $-1 $-1 $217 $54 #
coedge $-1 $137 $137 $218 $219 reversed $86 $-1 #
face $-1 $220 $221 $33 $-1 $222 reversed single #
loop $-1 $-1 $223 $88 #
plane-surface $-1 0 -31.065149141986868 0 0 1 0 0 0 1 forward_v I I I I #
coedge $-1 $224 $225 $226 $227 forward $89 $-1 #
coedge $-1 $228 $91 $229 $230 forward $56 $-1 #
coedge $-1 $91 $228 $231 $232 forward $56 $-1 #
coedge $-1 $233 $234 $91 $145 reversed $235 $-1 #
edge $-1 $236 -31.065149141986868 $237 31.065149141986868 $144 $238 forward 7 unknown #
face $-1 $239 $240 $34 $-1 $241 reversed single #
loop $-1 $-1 $242 $92 #
plane-surface $-1 0 -19.436864958552778 -0.30727438983626598 0 -1 0 0 0 -1 forward_v I I I I #
coedge $-1 $243 $244 $245 $246 reversed $93 $-1 #
coedge $-1 $247 $95 $248 $249 forward $59 $-1 #
coedge $-1 $95 $247 $250 $251 reversed $59 $-1 #
coedge $-1 $252 $253 $95 $153 forward $254 $-1 #
edge $-1 $255 6.8113614334178667 $256 18.439645616851955 $152 $257 forward 7 unknown #
face $-1 $258 $259 $35 $-1 $260 reversed single #
loop $-1 $-1 $261 $96 #
plane-surface $-1 0 31.065149141986868 0 0 -1 0 0 0 -1 forward_v I I I I #
coedge $-1 $262 $263 $264 $265 forward $97 $-1 #
coedge $-1 $264 $99 $266 $267 reversed $62 $-1 #
coedge $-1 $99 $264 $268 $269 reversed $62 $-1 #
coedge $-1 $270 $271 $99 $161 forward $272 $-1 #
edge $-1 $273 -9.3353773788053935 $274 9.3353773788053935 $160 $275 forward 7 unknown #
face $-1 $276 $277 $36 $-1 $278 reversed single #
loop $-1 $-1 $279 $100 #
plane-surface $-1 39.445450096820842 -14.711296671287085 132.32515516838066 0 1 0 0.66913061440640931 0 0.74314481823134659 forward_v I I I I #
coedge $-1 $280 $281 $282 $283 reversed $101 $-1 #
coedge $-1 $167 $103 $284 $285 reversed $65 $-1 #
coedge $-1 $103 $166 $280 $286 reversed $65 $-1 #
coedge $-1 $282 $287 $103 $169 forward $288 $-1 #
edge $-1 $289 -26.576295307435398 $290 -17.93110974022802 $168 $291 forward 7 unknown #
loop $-1 $-1 $175 $104 #
plane-surface $-1 -22.514733777423089 -11.027918580095101 63.511401035111746 0.66913061440640931 0 0.74314481823134659 0.74314481823134659 0 -0.66913061440640931 forward_v I I I I #
loop $-1 $-1 $292 $67 #
coedge $-1 $173 $173 $174 $293 reversed $105 $-1 #
coedge $-1 $174 $174 $173 $293 forward $107 $-1 #
coedge $-1 $175 $175 $108 $176 forward $170 $-1 #
edge $-1 $294 0 $294 6.2831853071796004 $175 $295 forward 7 unknown #
loop $-1 $-1 $182 $109 #
plane-surface $-1 -22.514733777423089 -11.027918580095101 63.511401035111746 0.66913061440640931 0 0.74314481823134659 0.74314481823134659 0 -0.66913061440640931 forward_v I I I I #
loop $-1 $-1 $296 $70 #
coedge $-1 $180 $180 $181 $297 reversed $110 $-1 #
coedge $-1 $181 $181 $180 $297 forward $112 $-1 #
coedge $-1 $182 $182 $113 $183 forward $177 $-1 #
edge $-1 $298 0 $298 6.2831853071796004 $182 $299 forward 7 unknown #
loop $-1 $-1 $189 $114 #
plane-surface $-1 -22.514733777423089 -11.027918580095101 63.511401035111746 0.66913061440640931 0 0.74314481823134659 0.74314481823134659 0 -0.66913061440640931 forward_v I I I I #
loop $-1 $-1 $300 $73 #
coedge $-1 $187 $187 $188 $301 reversed $115 $-1 #
coedge $-1 $188 $188 $187 $301 forward $117 $-1 #
coedge $-1 $189 $189 $118 $190 forward $184 $-1 #
edge $-1 $302 0 $302 6.2831853071796004 $189 $303 forward 7 unknown #
face $-1 $304 $305 $40 $-1 $306 reversed single #
loop $-1 $-1 $307 $119 #
plane-surface $-1 39.445450096820842 10.558249920818378 132.32515516838066 0 1 0 0.66913061440640931 0 0.74314481823134659 forward_v I I I I #
coedge $-1 $308 $309 $310 $311 reversed $120 $-1 #
coedge $-1 $196 $122 $312 $313 reversed $77 $-1 #
coedge $-1 $122 $195 $308 $314 reversed $77 $-1 #
coedge $-1 $310 $315 $122 $198 forward $316 $-1 #
edge $-1 $317 -26.576295307435398 $318 -17.93110974022802 $197 $319 forward 7 unknown #
loop $-1 $-1 $204 $123 #
plane-surface $-1 -22.514733777423089 14.241628012010363 63.511401035111746 0.66913061440640931 0 0.74314481823134659 0.74314481823134659 0 -0.66913061440640931 forward_v I I I I #
loop $-1 $-1 $320 $79 #
coedge $-1 $202 $202 $203 $321 reversed $124 $-1 #
coedge $-1 $203 $203 $202 $321 forward $126 $-1 #
coedge $-1 $204 $204 $127 $205 forward $199 $-1 #
edge $-1 $322 0 $322 6.2831853071796004 $204 $323 forward 7 unknown #
loop $-1 $-1 $211 $128 #
plane-surface $-1 -22.514733777423089 14.241628012010363 63.511401035111746 0.66913061440640931 0 0.74314481823134659 0.74314481823134659 0 -0.66913061440640931 forward_v I I I I #
loop $-1 $-1 $324 $82 #
coedge $-1 $209 $209 $210 $325 reversed $129 $-1 #
coedge $-1 $210 $210 $209 $325 forward $131 $-1 #
coedge $-1 $211 $211 $132 $212 forward $206 $-1 #
edge $-1 $326 0 $326 6.2831853071796004 $211 $327 forward 7 unknown #
loop $-1 $-1 $218 $133 #
plane-surface $-1 -22.514733777423089 14.241628012010363 63.511401035111746 0.66913061440640931 0 0.74314481823134659 0.74314481823134659 0 -0.66913061440640931 forward_v I I I I #
loop $-1 $-1 $328 $85 #
coedge $-1 $216 $216 $217 $329 reversed $134 $-1 #
coedge $-1 $217 $217 $216 $329 forward $136 $-1 #
coedge $-1 $218 $218 $137 $219 forward $213 $-1 #
edge $-1 $330 0 $330 6.2831853071796004 $218 $331 forward 7 unknown #
face $-1 $332 $333 $33 $-1 $334 reversed single #
loop $-1 $-1 $335 $138 #
plane-surface $-1 -46.299020355845819 0 0 1 0 0 0 0 -1 forward_v I I I I #
coedge $-1 $336 $231 $337 $338 forward $139 $-1 #
coedge $-1 $339 $141 $336 $340 forward $89 $-1 #
coedge $-1 $141 $339 $341 $342 forward $89 $-1 #
coedge $-1 $234 $233 $141 $227 reversed $235 $-1 #
edge $-1 $343 -31.065149141986868 $344 31.065149141986868 $226 $345 forward 7 unknown #
coedge $-1 $143 $142 $346 $347 forward $56 $-1 #
coedge $-1 $348 $349 $142 $230 reversed $333 $-1 #
edge $-1 $237 -46.299020355845819 $350 46.299020355845819 $229 $351 forward 7 unknown #
coedge $-1 $223 $352 $143 $232 reversed $139 $-1 #
edge $-1 $353 -46.299020355845819 $236 46.299020355845819 $231 $354 forward 7 unknown #
coedge $-1 $226 $144 $352 $355 forward $235 $-1 #
coedge $-1 $144 $226 $348 $356 reversed $235 $-1 #
loop $-1 $-1 $233 $332 #
vertex $-1 $145 $357 #
vertex $-1 $145 $358 #
straight-curve $-1 46.299020355845819 0 9.3353773788053935 0 1 0 I I #
face $-1 $359 $360 $34 $-1 $361 reversed single #
loop $-1 $-1 $362 $146 #
plane-surface $-1 -46.299020355845819 0 0 1 0 0 0 0 -1 forward_v I I I I #
coedge $-1 $363 $248 $253 $364 reversed $147 $-1 #
coedge $-1 $365 $149 $366 $367 reversed $93 $-1 #
coedge $-1 $149 $365 $363 $368 forward $93 $-1 #
coedge $-1 $253 $252 $149 $246 forward $254 $-1 #
edge $-1 $369 -18.439645616851955 $370 -6.8113614334178667 $245 $371 forward 7 unknown #
coedge $-1 $151 $150 $362 $372 reversed $59 $-1 #
coedge $-1 $242 $373 $150 $249 reversed $147 $-1 #
edge $-1 $255 -46.299020355845819 $374 46.299020355845819 $248 $375 forward 7 unknown #
coedge $-1 $376 $377 $151 $251 forward $360 $-1 #
edge $-1 $256 -46.299020355845819 $378 46.299020355845819 $250 $379 forward 7 unknown #
coedge $-1 $245 $152 $377 $380 forward $254 $-1 #
coedge $-1 $152 $245 $242 $364 forward $254 $-1 #
loop $-1 $-1 $152 $359 #
vertex $-1 $153 $381 #
vertex $-1 $380 $382 #
straight-curve $-1 46.299020355845819 -12.625503525134912 1.192725610163734 0 -1 0 I I #
face $-1 $383 $384 $35 $-1 $385 forward single #
loop $-1 $-1 $386 $154 #
plane-surface $-1 0 0 -9.3353773788053935 0 0 1 1 0 0 forward_v I I I I #
coedge $-1 $387 $388 $389 $390 forward $155 $-1 #
coedge $-1 $389 $157 $386 $391 reversed $97 $-1 #
coedge $-1 $157 $389 $392 $393 reversed $97 $-1 #
coedge $-1 $159 $158 $157 $265 reversed $62 $-1 #
edge $-1 $394 -9.3353773788053935 $395 9.3353773788053935 $157 $396 forward 7 unknown #
coedge $-1 $397 $386 $158 $267 forward $259 $-1 #
edge $-1 $395 19.603807523993176 $273 24.331411062566154 $266 $398 forward 7 unknown #
coedge $-1 $392 $399 $159 $269 forward $384 $-1 #
edge $-1 $274 -24.331411062566154 $394 -19.603807523993176 $268 $400 forward 7 unknown #
coedge $-1 $401 $160 $399 $402 reversed $272 $-1 #
coedge $-1 $160 $401 $397 $403 reversed $272 $-1 #
loop $-1 $-1 $160 $383 #
vertex $-1 $403 $404 #
vertex $-1 $161 $405 #
straight-curve $-1 -46.299020355845819 22.650574390468044 0 0 0 1 I I #
face $-1 $-1 $288 $36 $-1 $406 forward single #
loop $-1 $-1 $407 $162 #
plane-surface $-1 46.299020355845819 0 0 -1 0 0 0 0 1 forward_v I I I I #
coedge $-1 $408 $409 $410 $411 reversed $163 $-1 #
coedge $-1 $412 $165 $167 $286 forward $101 $-1 #
coedge $-1 $165 $412 $408 $413 forward $101 $-1 #
coedge $-1 $410 $168 $165 $283 forward $288 $-1 #
edge $-1 $290 1.8305811988555654 $414 9.1973373812395351 $282 $415 forward 7 unknown #
coedge $-1 $416 $417 $166 $285 forward $277 $-1 #
edge $-1 $418 -64.611360423322509 $289 -56.827200205384941 $284 $419 forward 7 unknown #
edge $-1 $290 80.964795945506552 $418 92.598040711691624 $167 $420 forward 7 unknown #
coedge $-1 $168 $410 $416 $421 forward $288 $-1 #
loop $-1 $-1 $410 $276 #
vertex $-1 $285 $422 #
vertex $-1 $169 $423 #
straight-curve $-1 19.722725048410421 -7.3445404889031156 9.33537737880539 -1 0 0 I I #
coedge $-1 $292 $292 $-1 $424 reversed $172 $-1 #
edge $-1 $425 0 $425 6.2831853071796004 $173 $426 forward 7 unknown #
vertex $-1 $176 $427 #
ellipse-curve $-1 41.97642757224213 -13.237945434810289 5.4432972698366067 0.66913061440640931 0 0.74314481823134659 0.3715724091156733 0 -0.33456530720320465 1 I I #
coedge $-1 $296 $296 $-1 $428 reversed $179 $-1 #
edge $-1 $429 0 $429 6.2831853071796004 $180 $430 forward 7 unknown #
vertex $-1 $183 $431 #
ellipse-curve $-1 41.97642757224213 -11.027918580095097 5.4432972698366067 0.66913061440640931 0 0.74314481823134659 0.3715724091156733 0 -0.33456530720320465 1 I I #
coedge $-1 $300 $300 $-1 $432 reversed $186 $-1 #
edge $-1 $433 0 $433 6.2831853071796004 $187 $434 forward 7 unknown #
vertex $-1 $190 $435 #
ellipse-curve $-1 41.97642757224213 -8.817891725379905 5.4432972698366067 0.66913061440640931 0 0.74314481823134659 0.3715724091156733 0 -0.33456530720320465 1 I I #
face $-1 $-1 $316 $40 $-1 $436 forward single #
loop $-1 $-1 $437 $191 #
plane-surface $-1 46.299020355845819 0 0 -1 0 0 0 0 1 forward_v I I I I #
coedge $-1 $438 $439 $440 $441 reversed $192 $-1 #
coedge $-1 $442 $194 $196 $314 forward $120 $-1 #
coedge $-1 $194 $442 $438 $443 forward $120 $-1 #
coedge $-1 $440 $197 $194 $311 forward $316 $-1 #
edge $-1 $318 -10.804192097197168 $444 -3.4374359148131965 $310 $445 forward 7 unknown #
coedge $-1 $446 $447 $195 $313 forward $305 $-1 #
edge $-1 $448 -64.611360423322509 $317 -56.827200205384941 $312 $449 forward 7 unknown #
edge $-1 $318 80.964795945506552 $448 92.598040711691624 $196 $450 forward 7 unknown #
coedge $-1 $197 $440 $446 $451 forward $316 $-1 #
loop $-1 $-1 $440 $304 #
vertex $-1 $313 $452 #
vertex $-1 $198 $453 #
straight-curve $-1 19.722725048410421 17.92500610320235 9.33537737880539 -1 0 0 I I #
coedge $-1 $320 $320 $-1 $454 reversed $201 $-1 #
edge $-1 $455 0 $455 6.2831853071796004 $202 $456 forward 7 unknown #
vertex $-1 $205 $457 #
ellipse-curve $-1 41.97642757224213 12.031601157295182 5.4432972698366067 0.66913061440640931 0 0.74314481823134659 0.3715724091156733 0 -0.33456530720320465 1 I I #
coedge $-1 $324 $324 $-1 $458 reversed $208 $-1 #
edge $-1 $459 0 $459 6.2831853071796004 $209 $460 forward 7 unknown #
vertex $-1 $212 $461 #
ellipse-curve $-1 41.97642757224213 14.24162801201037 5.4432972698366067 0.66913061440640931 0 0.74314481823134659 0.3715724091156733 0 -0.33456530720320465 1 I I #
coedge $-1 $328 $328 $-1 $462 reversed $215 $-1 #
edge $-1 $463 0 $463 6.2831853071796004 $216 $464 forward 7 unknown #
vertex $-1 $219 $465 #
ellipse-curve $-1 41.97642757224213 16.451654866725558 5.4432972698366067 0.66913061440640931 0 0.74314481823134659 0.3715724091156733 0 -0.33456530720320465 1 I I #
face $-1 $-1 $235 $33 $-1 $466 reversed single #
loop $-1 $-1 $348 $220 #
plane-surface $-1 0 31.065149141986868 0 0 -1 0 0 0 -1 forward_v I I I I #
coedge $-1 $467 $346 $349 $468 forward $221 $-1 #
coedge $-1 $352 $223 $224 $340 reversed $139 $-1 #
coedge $-1 $346 $467 $223 $338 reversed $221 $-1 #
edge $-1 $353 -9.3353773788053935 $469 9.3353773788053935 $337 $470 forward 7 unknown #
coedge $-1 $225 $224 $467 $471 forward $89 $-1 #
edge $-1 $344 -46.299020355845819 $469 46.299020355845819 $336 $472 forward 7 unknown #
coedge $-1 $349 $348 $225 $342 reversed $333 $-1 #
edge $-1 $473 -46.299020355845819 $343 46.299020355845819 $341 $474 forward 7 unknown #
vertex $-1 $227 $475 #
vertex $-1 $355 $476 #
straight-curve $-1 46.299020355845819 0 -9.3353773788053935 0 -1 0 I I #
coedge $-1 $335 $337 $228 $347 reversed $221 $-1 #
edge $-1 $350 -31.065149141986868 $353 31.065149141986868 $346 $477 forward 7 unknown #
coedge $-1 $341 $229 $234 $356 forward $333 $-1 #
coedge $-1 $229 $341 $335 $468 reversed $333 $-1 #
vertex $-1 $230 $478 #
straight-curve $-1 0 31.065149141986868 9.3353773788053935 -1 0 0 I I #
coedge $-1 $231 $336 $233 $355 reversed $139 $-1 #
vertex $-1 $347 $479 #
straight-curve $-1 0 -31.065149141986868 9.3353773788053935 1 0 0 I I #
edge $-1 $236 -9.3353773788053935 $344 9.3353773788053935 $233 $480 forward 7 unknown #
edge $-1 $237 -9.3353773788053935 $343 9.3353773788053935 $234 $481 forward 7 unknown #
point $-1 46.299020355845819 -31.065149141986868 9.3353773788053935 #
point $-1 46.299020355845819 31.065149141986868 9.3353773788053935 #
face $-1 $-1 $254 $34 $-1 $482 reversed single #
loop $-1 $-1 $250 $239 #
plane-surface $-1 0 -31.065149141986868 0 0 1 0 0 0 1 forward_v I I I I #
coedge $-1 $483 $484 $247 $372 forward $240 $-1 #
coedge $-1 $373 $242 $244 $368 reversed $147 $-1 #
edge $-1 $370 -1.653637194918133 $255 1.346362805081867 $253 $485 forward 7 unknown #
coedge $-1 $244 $243 $486 $487 reversed $93 $-1 #
coedge $-1 $377 $376 $243 $367 forward $360 $-1 #
edge $-1 $488 -46.299020355845819 $369 46.299020355845819 $366 $489 forward 7 unknown #
edge $-1 $490 -46.299020355845819 $370 46.299020355845819 $363 $491 forward 7 unknown #
vertex $-1 $367 $492 #
vertex $-1 $246 $493 #
straight-curve $-1 46.299020355845819 -12.625503525134912 -1.807274389836266 0 1 0 I I #
edge $-1 $378 -18.439645616851955 $374 -6.8113614334178667 $362 $494 forward 7 unknown #
coedge $-1 $248 $363 $483 $495 reversed $147 $-1 #
vertex $-1 $372 $496 #
straight-curve $-1 0 -19.436864958552778 1.192725610163734 -1 0 0 I I #
coedge $-1 $366 $250 $484 $497 forward $360 $-1 #
coedge $-1 $250 $366 $252 $380 reversed $360 $-1 #
vertex $-1 $497 $498 #
straight-curve $-1 0 -31.065149141986868 1.192725610163734 -1 0 0 I I #
edge $-1 $256 -1.192725610163734 $369 1.807274389836266 $252 $499 forward 7 unknown #
point $-1 46.299020355845819 -19.436864958552778 1.192725610163734 #
point $-1 46.299020355845819 -31.065149141986868 1.192725610163734 #
face $-1 $-1 $272 $35 $-1 $500 reversed single #
loop $-1 $-1 $392 $258 #
plane-surface $-1 0 0 9.3353773788053935 0 0 1 1 0 0 forward_v I I I I #
coedge $-1 $266 $501 $262 $391 forward $259 $-1 #
coedge $-1 $502 $261 $501 $503 reversed $155 $-1 #
coedge $-1 $261 $502 $504 $505 reversed $155 $-1 #
coedge $-1 $263 $262 $261 $390 reversed $97 $-1 #
edge $-1 $506 -9.3353773788053935 $507 9.3353773788053935 $261 $508 forward 7 unknown #
edge $-1 $507 -17.636218258873136 $395 -9.221643507354317 $386 $509 forward 7 unknown #
coedge $-1 $504 $268 $263 $393 forward $384 $-1 #
edge $-1 $394 9.221643507354317 $506 17.636218258873136 $392 $510 forward 7 unknown #
vertex $-1 $269 $511 #
vertex $-1 $267 $512 #
straight-curve $-1 -41.571416817272841 22.650574390468044 0 0 0 -1 I I #
coedge $-1 $501 $266 $271 $403 forward $259 $-1 #
straight-curve $-1 -21.967609293279665 22.650574390468044 -9.3353773788053935 -1 0 0 I I #
coedge $-1 $268 $504 $270 $402 forward $384 $-1 #
straight-curve $-1 -21.967609293279665 22.650574390468044 9.3353773788053935 1 0 0 I I #
coedge $-1 $271 $270 $502 $513 forward $272 $-1 #
edge $-1 $514 -31.065149141986868 $274 -22.650574390468044 $270 $515 forward 7 unknown #
edge $-1 $273 22.650574390468044 $516 31.065149141986868 $271 $517 forward 7 unknown #
point $-1 -46.299020355845819 22.650574390468044 -9.3353773788053935 #
point $-1 -46.299020355845819 22.650574390468044 9.3353773788053935 #
plane-surface $-1 0 0 9.3353773788053935 0 0 1 1 0 0 forward_v I I I I #
coedge $-1 $417 $416 $409 $518 forward $277 $-1 #
coedge $-1 $409 $279 $281 $413 reversed $163 $-1 #
coedge $-1 $279 $408 $407 $518 reversed $163 $-1 #
coedge $-1 $287 $282 $279 $411 forward $288 $-1 #
edge $-1 $414 17.93110974022802 $519 26.576295307435398 $410 $520 forward 7 unknown #
coedge $-1 $281 $280 $417 $521 reversed $101 $-1 #
edge $-1 $522 -92.598040711691624 $414 -80.964795945506552 $408 $523 forward 7 unknown #
vertex $-1 $283 $524 #
straight-curve $-1 37.653834788638456 -5.5139592900475503 9.3353773788053829 0 -1 0 I I #
coedge $-1 $407 $284 $287 $421 reversed $277 $-1 #
coedge $-1 $284 $407 $412 $521 forward $277 $-1 #
vertex $-1 $285 $525 #
straight-curve $-1 46.299020355845819 -7.3445404889031156 66.162577584190331 0 0 1 I I #
straight-curve $-1 -22.514733777423089 -7.3445404889031156 63.511401035111746 0.74314481823134659 0 -0.66913061440640931 I I #
edge $-1 $519 -14.711296671287085 $289 -7.3445404889031156 $416 $526 forward 7 unknown #
point $-1 46.299020355845819 -7.3445404889031156 9.3353773788053935 #
point $-1 37.653834788638441 -7.3445404889031156 9.33537737880539 #
edge $-1 $527 1 $527 0 $292 $-1 forward 7 unknown #
vertex $-1 $293 $528 #
ellipse-curve $-1 40.923803248517039 -13.237945434810289 4.2742395479529351 0.66913061440640931 0 0.74314481823134659 0.3715724091156733 0 -0.33456530720320465 1 I I #
point $-1 42.347999981357802 -13.237945434810289 5.1087319626333976 #
edge $-1 $529 1 $529 0 $296 $-1 forward 7 unknown #
vertex $-1 $297 $530 #
ellipse-curve $-1 40.923803248517039 -11.027918580095097 4.2742395479529351 0.66913061440640931 0 0.74314481823134659 0.3715724091156733 0 -0.33456530720320465 1 I I #
point $-1 42.347999981357802 -11.027918580095097 5.1087319626333976 #
edge $-1 $531 1 $531 0 $300 $-1 forward 7 unknown #
vertex $-1 $301 $532 #
ellipse-curve $-1 40.923803248517039 -8.817891725379905 4.2742395479529351 0.66913061440640931 0 0.74314481823134659 0.3715724091156733 0 -0.33456530720320465 1 I I #
point $-1 42.347999981357802 -8.817891725379905 5.1087319626333976 #
plane-surface $-1 0 0 9.3353773788053935 0 0 1 1 0 0 forward_v I I I I #
coedge $-1 $447 $446 $439 $533 forward $305 $-1 #
coedge $-1 $439 $307 $309 $443 reversed $192 $-1 #
coedge $-1 $307 $438 $437 $533 reversed $192 $-1 #
coedge $-1 $315 $310 $307 $441 forward $316 $-1 #
edge $-1 $444 17.93110974022802 $534 26.576295307435398 $440 $535 forward 7 unknown #
coedge $-1 $309 $308 $447 $536 reversed $120 $-1 #
edge $-1 $537 -92.598040711691624 $444 -80.964795945506552 $438 $538 forward 7 unknown #
vertex $-1 $311 $539 #
straight-curve $-1 37.653834788638456 7.1208140060051814 9.3353773788053829 0 -1 0 I I #
coedge $-1 $437 $312 $315 $451 reversed $305 $-1 #
coedge $-1 $312 $437 $442 $536 forward $305 $-1 #
vertex $-1 $313 $540 #
straight-curve $-1 46.299020355845819 17.92500610320235 66.162577584190331 0 0 1 I I #
straight-curve $-1 -22.514733777423089 17.92500610320235 63.511401035111746 0.74314481823134659 0 -0.66913061440640931 I I #
edge $-1 $534 10.558249920818378 $317 17.92500610320235 $446 $541 forward 7 unknown #
point $-1 46.299020355845819 17.92500610320235 9.3353773788053935 #
point $-1 37.653834788638441 17.92500610320235 9.33537737880539 #
edge $-1 $542 1 $542 0 $320 $-1 forward 7 unknown #
vertex $-1 $321 $543 #
ellipse-curve $-1 40.923803248517039 12.031601157295182 4.2742395479529351 0.66913061440640931 0 0.74314481823134659 0.3715724091156733 0 -0.33456530720320465 1 I I #
point $-1 42.347999981357802 12.031601157295182 5.1087319626333976 #
edge $-1 $544 1 $544 0 $324 $-1 forward 7 unknown #
vertex $-1 $325 $545 #
ellipse-curve $-1 40.923803248517039 14.24162801201037 4.2742395479529351 0.66913061440640931 0 0.74314481823134659 0.3715724091156733 0 -0.33456530720320465 1 I I #
point $-1 42.347999981357802 14.24162801201037 5.1087319626333976 #
edge $-1 $546 1 $546 0 $328 $-1 forward 7 unknown #
vertex $-1 $329 $547 #
ellipse-curve $-1 40.923803248517039 16.451654866725558 4.2742395479529351 0.66913061440640931 0 0.74314481823134659 0.3715724091156733 0 -0.33456530720320465 1 I I #
point $-1 42.347999981357802 16.451654866725558 5.1087319626333976 #
plane-surface $-1 46.299020355845819 0 0 -1 0 0 0 0 1 forward_v I I I I #
coedge $-1 $337 $335 $339 $471 reversed $221 $-1 #
edge $-1 $350 -9.3353773788053935 $473 9.3353773788053935 $349 $548 forward 7 unknown #
vertex $-1 $471 $549 #
straight-curve $-1 -46.299020355845819 -31.065149141986868 0 0 0 -1 I I #
edge $-1 $469 -31.065149141986868 $473 31.065149141986868 $467 $550 forward 7 unknown #
straight-curve $-1 0 -31.065149141986868 -9.3353773788053935 -1 0 0 I I #
vertex $-1 $342 $551 #
straight-curve $-1 0 31.065149141986868 -9.3353773788053935 1 0 0 I I #
point $-1 46.299020355845819 31.065149141986868 -9.3353773788053935 #
point $-1 46.299020355845819 -31.065149141986868 -9.3353773788053935 #
straight-curve $-1 -46.299020355845819 0 9.3353773788053935 0 -1 0 I I #
point $-1 -46.299020355845819 31.065149141986868 9.3353773788053935 #
point $-1 -46.299020355845819 -31.065149141986868 9.3353773788053935 #
straight-curve $-1 46.299020355845819 -31.065149141986868 0 0 0 -1 I I #
straight-curve $-1 46.299020355845819 31.065149141986868 0 0 0 -1 I I #
plane-surface $-1 46.299020355845819 0 0 -1 0 0 0 0 1 forward_v I I I I #
coedge $-1 $486 $362 $373 $495 forward $240 $-1 #
coedge $-1 $362 $486 $376 $497 reversed $240 $-1 #
straight-curve $-1 46.299020355845819 -19.436864958552778 -0.15363719491813299 0 0 1 I I #
coedge $-1 $484 $483 $365 $487 forward $240 $-1 #
edge $-1 $490 6.8113614334178667 $488 18.439645616851955 $486 $552 forward 7 unknown #
vertex $-1 $367 $553 #
straight-curve $-1 0 -31.065149141986868 -1.807274389836266 1 0 0 I I #
vertex $-1 $487 $554 #
straight-curve $-1 0 -19.436864958552778 -1.807274389836266 1 0 0 I I #
point $-1 46.299020355845819 -31.065149141986868 -1.807274389836266 #
point $-1 46.299020355845819 -19.436864958552778 -1.807274389836266 #
straight-curve $-1 -46.299020355845819 -12.625503525134912 1.192725610163734 0 1 0 I I #
edge $-1 $374 -1.346362805081867 $490 1.653637194918133 $483 $555 forward 7 unknown #
point $-1 -46.299020355845819 -19.436864958552778 1.192725610163734 #
edge $-1 $378 -1.192725610163734 $488 1.807274389836266 $484 $556 forward 7 unknown #
point $-1 -46.299020355845819 -31.065149141986868 1.192725610163734 #
straight-curve $-1 46.299020355845819 -31.065149141986868 0 0 0 -1 I I #
plane-surface $-1 -46.299020355845819 0 0 1 0 0 0 0 -1 forward_v I I I I #
coedge $-1 $386 $397 $387 $503 forward $259 $-1 #
coedge $-1 $388 $387 $401 $513 reversed $155 $-1 #
edge $-1 $516 -46.299020355845819 $507 -41.571416817272841 $387 $557 forward 7 unknown #
coedge $-1 $399 $392 $388 $505 forward $384 $-1 #
edge $-1 $506 41.571416817272841 $514 46.299020355845819 $388 $558 forward 7 unknown #
vertex $-1 $505 $559 #
vertex $-1 $391 $560 #
straight-curve $-1 -41.571416817272841 31.065149141986868 0 0 0 -1 I I #
straight-curve $-1 -41.571416817272841 13.428930883113727 -9.3353773788053935 0 -1 0 I I #
straight-curve $-1 -41.571416817272841 13.428930883113727 9.3353773788053935 0 1 0 I I #
point $-1 -41.571416817272841 22.650574390468044 9.3353773788053935 #
point $-1 -41.571416817272841 22.650574390468044 -9.3353773788053935 #
edge $-1 $514 -9.3353773788053935 $516 9.3353773788053935 $502 $561 forward 7 unknown #
vertex $-1 $505 $562 #
straight-curve $-1 -46.299020355845819 0 9.3353773788053935 0 -1 0 I I #
vertex $-1 $503 $563 #
straight-curve $-1 -46.299020355845819 0 -9.3353773788053935 0 1 0 I I #
edge $-1 $519 56.827200205384941 $522 64.611360423322509 $407 $564 forward 7 unknown #
vertex $-1 $421 $565 #
straight-curve $-1 19.722725048410421 -14.711296671287085 9.33537737880539 1 0 0 I I #
edge $-1 $522 -9.1973373812395351 $418 -1.8305811988555654 $417 $566 forward 7 unknown #
vertex $-1 $521 $567 #
straight-curve $-1 -22.514733777423089 -14.711296671287085 63.511401035111746 -0.74314481823134659 0 0.66913061440640931 I I #
point $-1 37.653834788638441 -14.711296671287085 9.33537737880539 #
point $-1 46.299020355845812 -7.3445404889031156 1.5512171608678287 #
straight-curve $-1 46.299020355845819 0 9.3353773788053935 0 1 0 I I #
vertex $-1 $424 $568 #
point $-1 41.295375657632711 -13.237945434810289 3.9396742407497305 #
vertex $-1 $428 $569 #
point $-1 41.295375657632711 -11.027918580095097 3.9396742407497305 #
vertex $-1 $432 $570 #
point $-1 41.295375657632711 -8.817891725379905 3.9396742407497305 #
edge $-1 $534 56.827200205384941 $537 64.611360423322509 $437 $571 forward 7 unknown #
vertex $-1 $451 $572 #
straight-curve $-1 19.722725048410421 10.558249920818378 9.33537737880539 1 0 0 I I #
edge $-1 $537 3.4374359148131965 $448 10.804192097197168 $447 $573 forward 7 unknown #
vertex $-1 $536 $574 #
straight-curve $-1 -22.514733777423089 10.558249920818378 63.511401035111746 -0.74314481823134659 0 0.66913061440640931 I I #
point $-1 37.653834788638441 10.558249920818378 9.33537737880539 #
point $-1 46.299020355845812 17.92500610320235 1.5512171608678287 #
straight-curve $-1 46.299020355845819 0 9.3353773788053935 0 1 0 I I #
vertex $-1 $454 $575 #
point $-1 41.295375657632711 12.031601157295182 3.9396742407497305 #
vertex $-1 $458 $576 #
point $-1 41.295375657632711 14.24162801201037 3.9396742407497305 #
vertex $-1 $462 $577 #
point $-1 41.295375657632711 16.451654866725558 3.9396742407497305 #
straight-curve $-1 -46.299020355845819 31.065149141986868 0 0 0 -1 I I #
point $-1 -46.299020355845819 -31.065149141986868 -9.3353773788053935 #
straight-curve $-1 -46.299020355845819 0 -9.3353773788053935 0 1 0 I I #
point $-1 -46.299020355845819 31.065149141986868 -9.3353773788053935 #
straight-curve $-1 -46.299020355845819 -12.625503525134912 -1.807274389836266 0 -1 0 I I #
point $-1 -46.299020355845819 -31.065149141986868 -1.807274389836266 #
point $-1 -46.299020355845819 -19.436864958552778 -1.807274389836266 #
straight-curve $-1 -46.299020355845819 -19.436864958552778 -0.15363719491813299 0 0 -1 I I #
straight-curve $-1 -46.299020355845819 -31.065149141986868 0 0 0 -1 I I #
straight-curve $-1 0 31.065149141986868 -9.3353773788053935 1 0 0 I I #
straight-curve $-1 0 31.065149141986868 9.3353773788053935 -1 0 0 I I #
point $-1 -41.571416817272841 31.065149141986865 9.3353773788053935 #
point $-1 -41.571416817272841 31.065149141986865 -9.3353773788053935 #
straight-curve $-1 -46.299020355845819 31.065149141986868 0 0 0 -1 I I #
point $-1 -46.299020355845819 31.065149141986868 9.3353773788053935 #
point $-1 -46.299020355845819 31.065149141986868 -9.3353773788053935 #
straight-curve $-1 46.299020355845819 -14.711296671287085 66.162577584190331 0 0 -1 I I #
point $-1 46.299020355845819 -14.711296671287085 9.3353773788053935 #
straight-curve $-1 46.299020355845819 -5.5139592900475503 1.5512171608678251 0 1 0 I I #
point $-1 46.299020355845812 -14.711296671287085 1.5512171608678287 #
point $-1 40.589237941313833 -13.237945434810289 3.9026671388372618 #
point $-1 40.589237941313833 -11.027918580095097 3.9026671388372618 #
point $-1 40.589237941313833 -8.817891725379905 3.9026671388372618 #
straight-curve $-1 46.299020355845819 10.558249920818378 66.162577584190331 0 0 -1 I I #
point $-1 46.299020355845819 10.558249920818378 9.3353773788053935 #
straight-curve $-1 46.299020355845819 7.1208140060051814 1.5512171608678251 0 1 0 I I #
point $-1 46.299020355845812 10.558249920818378 1.5512171608678287 #
point $-1 40.589237941313833 12.031601157295182 3.9026671388372618 #
point $-1 40.589237941313833 14.24162801201037 3.9026671388372618 #
point $-1 40.589237941313833 16.451654866725558 3.9026671388372618 #
End-of-ACIS-data 