500 0 5 0           
7 Unknown 11 ACIS 5.0 NT 24 Thu Mar 25 15:19:40 1999 
-1 9.9999999999999995e-007 1e-010 
body $-1 $5 $-1 $6 #
body $-1 $7 $-1 $8 #
body $-1 $9 $-1 $10 #
body $-1 $11 $-1 $12 #
body $-1 $13 $-1 $14 #
lump $-1 $-1 $15 $0 #
transform $-1 1 0 0 0 1 0 0 0 1 78.612018189031645 42.016296790922233 12.402802536399282 1 rotate no_reflect no_shear #
lump $-1 $-1 $16 $1 #
transform $-1 1 0 0 0 1 0 0 0 1 78.612018189031645 42.016296790922233 12.402802536399282 1 rotate no_reflect no_shear #
lump $-1 $-1 $17 $2 #
transform $-1 1 0 0 0 1 0 0 0 1 78.612018189031645 42.016296790922233 12.402802536399282 1 rotate no_reflect no_shear #
lump $-1 $-1 $18 $3 #
transform $-1 1 0 0 0 1 0 0 0 1 78.612018189031645 42.016296790922233 12.402802536399282 1 rotate no_reflect no_shear #
lump $-1 $-1 $19 $4 #
transform $-1 1 0 0 0 1 0 0 0 1 78.612018189031645 42.016296790922233 12.402802536399282 1 rotate no_reflect no_shear #
shell $-1 $-1 $-1 $20 $-1 $5 #
shell $-1 $-1 $-1 $21 $-1 $7 #
shell $-1 $-1 $-1 $22 $-1 $9 #
shell $-1 $-1 $-1 $23 $-1 $11 #
shell $-1 $-1 $-1 $24 $-1 $13 #
face $-1 $25 $26 $15 $-1 $27 forward single #
face $-1 $28 $29 $16 $-1 $30 reversed single #
face $-1 $31 $32 $17 $-1 $33 reversed single #
face $-1 $34 $35 $18 $-1 $36 forward single #
face $-1 $37 $38 $19 $-1 $39 forward single #
face $-1 $40 $41 $15 $-1 $42 reversed single #
loop $-1 $-1 $43 $20 #
plane-surface $-1 0 0 12.402802536399282 0 0 1 1 0 0 forward_v I I I I #
face $-1 $44 $45 $16 $-1 $46 reversed single #
loop $-1 $-1 $47 $21 #
plane-surface $-1 -71.637670269644701 -30.437704833720712 0 0 1 0 0 0 1 forward_v I I I I #
face $-1 $48 $49 $17 $-1 $50 reversed single #
loop $-1 $-1 $51 $22 #
plane-surface $-1 -64.663322350257772 119.82009715893307 162.58009223150168 1 0 0 0 -0.80901700255871778 -0.5877852410284794 forward_v I I I I #
face $-1 $52 $53 $18 $-1 $54 forward single #
loop $-1 $55 $56 $23 #
cone-surface $-1 -52.913781215771742 37.374925933535195 6.6179222043493695 0 -0.80901700255871778 -0.5877852410284794 2 0 0 1 I I 0 1 2 forward I I I I #
face $-1 $57 $58 $19 $-1 $59 forward single #
loop $-1 $60 $61 $24 #
cone-surface $-1 -35.2894695140427 37.374925933535195 6.6179222043493695 0 -0.80901700255871778 -0.5877852410284794 2 0 0 1 I I 0 1 2 forward I I I I #
face $-1 $62 $63 $15 $-1 $64 reversed single #
loop $-1 $-1 $65 $25 #
plane-surface $-1 0 0 -12.402802536399282 0 0 1 1 0 0 forward_v I I I I #
coedge $-1 $66 $67 $68 $69 forward $26 $-1 #
face $-1 $70 $71 $16 $-1 $72 reversed single #
loop $-1 $-1 $73 $28 #
plane-surface $-1 -71.637670269644701 -27.437704833720712 0 0 -1 0 0 0 -1 forward_v I I I I #
coedge $-1 $74 $75 $76 $77 reversed $29 $-1 #
face $-1 $78 $79 $17 $-1 $80 reversed single #
loop $-1 $-1 $81 $31 #
plane-surface $-1 -44.101625364907221 -7.376821481830504 70.166124113551334 0 0.80901700255871778 0.5877852410284794 1 0 0 forward_v I I I I #
coedge $-1 $82 $83 $84 $85 reversed $32 $-1 #
face $-1 $-1 $86 $18 $-1 $87 forward single #
loop $-1 $88 $89 $34 #
cone-surface $-1 -52.913781215771742 35.637342982026901 5.3554943311043282 0 -0.80901700255871778 -0.5877852410284794 1 0 0 1 I I -0.70710678118654746 0.70710678118654746 1 forward I I I I #
loop $-1 $-1 $90 $23 #
coedge $-1 $56 $56 $91 $92 reversed $35 $-1 #
face $-1 $-1 $93 $19 $-1 $94 forward single #
loop $-1 $95 $96 $37 #
cone-surface $-1 -35.2894695140427 35.637342982026901 5.3554943311043282 0 -0.80901700255871778 -0.5877852410284794 1 0 0 1 I I -0.70710678118654746 0.70710678118654746 1 forward I I I I #
loop $-1 $-1 $97 $24 #
coedge $-1 $61 $61 $98 $99 reversed $38 $-1 #
face $-1 $100 $101 $15 $-1 $102 reversed single #
loop $-1 $-1 $103 $40 #
plane-surface $-1 0 -42.016296790922233 0 0 1 0 0 0 1 forward_v I I I I #
coedge $-1 $104 $105 $106 $107 forward $41 $-1 #
coedge $-1 $108 $43 $109 $110 forward $26 $-1 #
coedge $-1 $43 $108 $111 $112 forward $26 $-1 #
coedge $-1 $113 $114 $43 $69 reversed $115 $-1 #
edge $-1 $116 -42.016296790922233 $117 42.016296790922233 $68 $118 forward 7 unknown #
face $-1 $119 $120 $16 $-1 $121 reversed single #
loop $-1 $-1 $122 $44 #
plane-surface $-1 -64.663322350257758 -28.937704833720712 0 -1 0 0 0 0 1 forward_v I I I I #
coedge $-1 $123 $124 $125 $126 forward $45 $-1 #
coedge $-1 $127 $47 $128 $129 reversed $29 $-1 #
coedge $-1 $47 $127 $130 $131 reversed $29 $-1 #
coedge $-1 $132 $133 $47 $77 forward $134 $-1 #
edge $-1 $135 -12.402802536399282 $136 12.402802536399282 $76 $137 forward 7 unknown #
face $-1 $138 $139 $17 $-1 $140 reversed single #
loop $-1 $-1 $141 $48 #
plane-surface $-1 -23.539928379556674 119.82009715893307 162.58009223150168 -1 0 0 0 0.80901700255871778 0.5877852410284794 forward_v I I I I #
coedge $-1 $142 $143 $144 $145 reversed $49 $-1 #
coedge $-1 $83 $51 $146 $147 reversed $32 $-1 #
coedge $-1 $51 $82 $142 $148 reversed $32 $-1 #
coedge $-1 $144 $149 $51 $85 forward $150 $-1 #
edge $-1 $151 17.8937517885443 $152 25.319361605419253 $84 $153 forward 7 unknown #
loop $-1 $-1 $91 $52 #
plane-surface $-1 -44.101625364907221 -7.376821481830504 70.166124113551334 0 0.80901700255871778 0.5877852410284794 1 0 0 forward_v I I I I #
loop $-1 $-1 $154 $34 #
coedge $-1 $89 $89 $90 $155 reversed $53 $-1 #
coedge $-1 $90 $90 $89 $155 forward $55 $-1 #
coedge $-1 $91 $91 $56 $92 forward $86 $-1 #
edge $-1 $156 8.0814051414280487e-016 $156 6.2831853071796013 $91 $157 forward 7 unknown #
loop $-1 $-1 $98 $57 #
plane-surface $-1 -44.101625364907221 -7.376821481830504 70.166124113551334 0 0.80901700255871778 0.5877852410284794 1 0 0 forward_v I I I I #
loop $-1 $-1 $158 $37 #
coedge $-1 $96 $96 $97 $159 reversed $58 $-1 #
coedge $-1 $97 $97 $96 $159 forward $60 $-1 #
coedge $-1 $98 $98 $61 $99 forward $93 $-1 #
edge $-1 $160 8.0814051414280487e-016 $160 6.2831853071796013 $98 $161 forward 7 unknown #
face $-1 $162 $163 $15 $-1 $164 reversed single #
loop $-1 $-1 $165 $62 #
plane-surface $-1 -78.612018189031645 0 0 1 0 0 0 0 -1 forward_v I I I I #
coedge $-1 $166 $111 $167 $168 forward $63 $-1 #
coedge $-1 $169 $65 $166 $170 forward $41 $-1 #
coedge $-1 $65 $169 $171 $172 forward $41 $-1 #
coedge $-1 $114 $113 $65 $107 reversed $115 $-1 #
edge $-1 $173 -42.016296790922233 $174 42.016296790922233 $106 $175 forward 7 unknown #
coedge $-1 $67 $66 $176 $177 forward $26 $-1 #
coedge $-1 $178 $179 $66 $110 reversed $163 $-1 #
edge $-1 $117 -78.612018189031645 $180 78.612018189031645 $109 $181 forward 7 unknown #
coedge $-1 $103 $182 $67 $112 reversed $63 $-1 #
edge $-1 $183 -78.612018189031645 $116 78.612018189031645 $111 $184 forward 7 unknown #
coedge $-1 $106 $68 $182 $185 forward $115 $-1 #
coedge $-1 $68 $106 $178 $186 reversed $115 $-1 #
loop $-1 $-1 $113 $162 #
vertex $-1 $69 $187 #
vertex $-1 $69 $188 #
straight-curve $-1 78.612018189031645 0 12.402802536399282 0 1 0 I I #
face $-1 $189 $190 $16 $-1 $191 forward single #
loop $-1 $-1 $192 $70 #
plane-surface $-1 0 0 -12.402802536399282 0 0 1 1 0 0 forward_v I I I I #
coedge $-1 $193 $194 $127 $195 forward $71 $-1 #
coedge $-1 $196 $73 $192 $197 reversed $45 $-1 #
coedge $-1 $73 $196 $198 $199 reversed $45 $-1 #
coedge $-1 $194 $193 $73 $126 reversed $71 $-1 #
edge $-1 $200 -12.402802536399282 $201 12.402802536399282 $125 $202 forward 7 unknown #
coedge $-1 $75 $74 $122 $195 reversed $29 $-1 #
coedge $-1 $203 $204 $74 $129 forward $120 $-1 #
edge $-1 $205 28.844487215435407 $135 42.793183054209294 $128 $206 forward 7 unknown #
coedge $-1 $207 $208 $75 $131 forward $190 $-1 #
edge $-1 $136 -42.793183054209294 $209 -28.844487215435407 $130 $210 forward 7 unknown #
coedge $-1 $211 $76 $208 $212 reversed $134 $-1 #
coedge $-1 $76 $211 $203 $213 reversed $134 $-1 #
loop $-1 $-1 $211 $189 #
vertex $-1 $213 $214 #
vertex $-1 $77 $215 #
straight-curve $-1 -78.612018189031645 -30.437704833720712 0 0 0 1 I I #
face $-1 $-1 $150 $17 $-1 $216 forward single #
loop $-1 $-1 $217 $78 #
plane-surface $-1 0 42.016296790922233 0 0 -1 0 0 0 -1 forward_v I I I I #
coedge $-1 $218 $219 $220 $221 reversed $79 $-1 #
coedge $-1 $222 $81 $83 $148 forward $49 $-1 #
coedge $-1 $81 $222 $218 $223 forward $49 $-1 #
coedge $-1 $220 $84 $81 $145 forward $150 $-1 #
edge $-1 $152 -42.612509667804161 $224 -1.4891156971030632 $144 $225 forward 7 unknown #
coedge $-1 $226 $227 $82 $147 forward $139 $-1 #
edge $-1 $228 -79.107718979018316 $151 -68.887243579351562 $146 $229 forward 7 unknown #
edge $-1 $152 71.399391353285736 $228 84.032593581844537 $83 $230 forward 7 unknown #
coedge $-1 $84 $220 $226 $231 forward $150 $-1 #
loop $-1 $-1 $220 $138 #
vertex $-1 $147 $232 #
vertex $-1 $85 $233 #
straight-curve $-1 -64.663322350257772 59.910048579466533 12.402802536399278 0 -1 0 I I #
coedge $-1 $154 $154 $-1 $234 reversed $88 $-1 #
edge $-1 $235 0 $235 6.2831853071796004 $89 $236 forward 7 unknown #
vertex $-1 $92 $237 #
ellipse-curve $-1 -52.913781215771742 38.303491882484749 7.2925648365659121 0 0.80901700255871778 0.5877852410284794 2 0 0 1 I I #
coedge $-1 $158 $158 $-1 $238 reversed $95 $-1 #
edge $-1 $239 0 $239 6.2831853071796004 $96 $240 forward 7 unknown #
vertex $-1 $99 $241 #
ellipse-curve $-1 -35.2894695140427 38.303491882484749 7.2925648365659121 0 0.80901700255871778 0.5877852410284794 2 0 0 1 I I #
face $-1 $-1 $115 $15 $-1 $242 reversed single #
loop $-1 $-1 $178 $100 #
plane-surface $-1 0 42.016296790922233 0 0 -1 0 0 0 -1 forward_v I I I I #
coedge $-1 $243 $176 $179 $244 forward $101 $-1 #
coedge $-1 $182 $103 $104 $170 reversed $63 $-1 #
coedge $-1 $176 $243 $103 $168 reversed $101 $-1 #
edge $-1 $183 -12.402802536399282 $245 12.402802536399282 $167 $246 forward 7 unknown #
coedge $-1 $105 $104 $243 $247 forward $41 $-1 #
edge $-1 $174 -78.612018189031645 $245 78.612018189031645 $166 $248 forward 7 unknown #
coedge $-1 $179 $178 $105 $172 reversed $163 $-1 #
edge $-1 $249 -78.612018189031645 $173 78.612018189031645 $171 $250 forward 7 unknown #
vertex $-1 $107 $251 #
vertex $-1 $185 $252 #
straight-curve $-1 78.612018189031645 0 -12.402802536399282 0 -1 0 I I #
coedge $-1 $165 $167 $108 $177 reversed $101 $-1 #
edge $-1 $180 -42.016296790922233 $183 42.016296790922233 $176 $253 forward 7 unknown #
coedge $-1 $171 $109 $114 $186 forward $163 $-1 #
coedge $-1 $109 $171 $165 $244 reversed $163 $-1 #
vertex $-1 $110 $254 #
straight-curve $-1 0 42.016296790922233 12.402802536399282 -1 0 0 I I #
coedge $-1 $111 $166 $113 $185 reversed $63 $-1 #
vertex $-1 $177 $255 #
straight-curve $-1 0 -42.016296790922233 12.402802536399282 1 0 0 I I #
edge $-1 $116 -12.402802536399282 $174 12.402802536399282 $113 $256 forward 7 unknown #
edge $-1 $117 -12.402802536399282 $173 12.402802536399282 $114 $257 forward 7 unknown #
point $-1 78.612018189031645 -42.016296790922233 12.402802536399282 #
point $-1 78.612018189031645 42.016296790922233 12.402802536399282 #
face $-1 $-1 $134 $16 $-1 $258 reversed single #
loop $-1 $-1 $198 $119 #
plane-surface $-1 0 0 12.402802536399282 0 0 1 1 0 0 forward_v I I I I #
coedge $-1 $204 $203 $123 $197 forward $120 $-1 #
coedge $-1 $125 $122 $204 $259 reversed $71 $-1 #
coedge $-1 $122 $125 $207 $260 reversed $71 $-1 #
edge $-1 $209 -12.402802536399282 $205 12.402802536399282 $122 $261 forward 7 unknown #
coedge $-1 $124 $123 $211 $262 reversed $45 $-1 #
edge $-1 $263 -42.793183054209294 $201 -28.844487215435407 $192 $264 forward 7 unknown #
coedge $-1 $208 $207 $124 $199 forward $190 $-1 #
edge $-1 $200 28.844487215435407 $265 42.793183054209294 $198 $266 forward 7 unknown #
vertex $-1 $199 $267 #
vertex $-1 $197 $268 #
straight-curve $-1 -64.663322350257758 -27.437704833720712 0 0 0 -1 I I #
coedge $-1 $192 $128 $133 $213 forward $120 $-1 #
coedge $-1 $128 $192 $193 $259 forward $120 $-1 #
vertex $-1 $129 $269 #
straight-curve $-1 -35.818835134822351 -30.437704833720712 -12.402802536399282 -1 0 0 I I #
coedge $-1 $198 $130 $194 $260 forward $190 $-1 #
coedge $-1 $130 $198 $132 $212 forward $190 $-1 #
vertex $-1 $131 $270 #
straight-curve $-1 -35.818835134822351 -30.437704833720712 12.402802536399282 1 0 0 I I #
coedge $-1 $133 $132 $196 $262 forward $134 $-1 #
edge $-1 $265 27.437704833720712 $136 30.437704833720712 $132 $271 forward 7 unknown #
edge $-1 $135 -30.437704833720712 $263 -27.437704833720712 $133 $272 forward 7 unknown #
point $-1 -78.612018189031645 -30.437704833720712 -12.402802536399282 #
point $-1 -78.612018189031645 -30.437704833720712 12.402802536399282 #
plane-surface $-1 0 0 12.402802536399282 0 0 1 1 0 0 forward_v I I I I #
coedge $-1 $227 $226 $219 $273 forward $139 $-1 #
coedge $-1 $219 $141 $143 $223 reversed $79 $-1 #
coedge $-1 $141 $218 $217 $273 reversed $79 $-1 #
coedge $-1 $149 $144 $141 $221 forward $150 $-1 #
edge $-1 $224 -25.319361605419253 $274 -17.8937517885443 $220 $275 forward 7 unknown #
coedge $-1 $143 $142 $227 $276 reversed $49 $-1 #
edge $-1 $277 -84.032593581844537 $224 -71.399391353285736 $218 $278 forward 7 unknown #
vertex $-1 $145 $279 #
straight-curve $-1 -22.050812682453611 34.590686974047273 12.402802536399292 1 0 0 I I #
coedge $-1 $217 $146 $149 $231 reversed $139 $-1 #
coedge $-1 $146 $217 $222 $276 forward $139 $-1 #
vertex $-1 $147 $280 #
straight-curve $-1 -64.663322350257772 42.016296790922233 81.29004611575084 0 0 1 I I #
straight-curve $-1 -64.663322350257772 -7.376821481830504 70.166124113551334 0 0.5877852410284794 -0.80901700255871778 I I #
edge $-1 $274 23.539928379556674 $151 64.663322350257772 $226 $281 forward 7 unknown #
point $-1 -64.663322350257772 42.016296790922233 12.402802536399282 #
point $-1 -64.663322350257772 34.59068697404728 12.402802536399278 #
edge $-1 $282 1 $282 0 $154 $-1 forward 7 unknown #
vertex $-1 $155 $283 #
ellipse-curve $-1 -52.913781215771742 36.446359984585619 5.9432795721328073 0 0.80901700255871778 0.5877852410284794 2 0 0 1 I I #
point $-1 -50.913781215771742 38.303491882484778 7.2925648365659308 #
edge $-1 $284 1 $284 0 $158 $-1 forward 7 unknown #
vertex $-1 $159 $285 #
ellipse-curve $-1 -35.2894695140427 36.446359984585619 5.9432795721328073 0 0.80901700255871778 0.5877852410284794 2 0 0 1 I I #
point $-1 -33.2894695140427 38.303491882484778 7.2925648365659308 #
plane-surface $-1 78.612018189031645 0 0 -1 0 0 0 0 1 forward_v I I I I #
coedge $-1 $167 $165 $169 $247 reversed $101 $-1 #
edge $-1 $180 -12.402802536399282 $249 12.402802536399282 $179 $286 forward 7 unknown #
vertex $-1 $247 $287 #
straight-curve $-1 -78.612018189031645 -42.016296790922233 0 0 0 -1 I I #
edge $-1 $245 -42.016296790922233 $249 42.016296790922233 $243 $288 forward 7 unknown #
straight-curve $-1 0 -42.016296790922233 -12.402802536399282 -1 0 0 I I #
vertex $-1 $172 $289 #
straight-curve $-1 0 42.016296790922233 -12.402802536399282 1 0 0 I I #
point $-1 78.612018189031645 42.016296790922233 -12.402802536399282 #
point $-1 78.612018189031645 -42.016296790922233 -12.402802536399282 #
straight-curve $-1 -78.612018189031645 0 12.402802536399282 0 -1 0 I I #
point $-1 -78.612018189031645 42.016296790922233 12.402802536399282 #
point $-1 -78.612018189031645 -42.016296790922233 12.402802536399282 #
straight-curve $-1 78.612018189031645 -42.016296790922233 0 0 0 -1 I I #
straight-curve $-1 78.612018189031645 42.016296790922233 0 0 0 -1 I I #
plane-surface $-1 -78.612018189031645 0 0 1 0 0 0 0 -1 forward_v I I I I #
edge $-1 $201 12.968852416860356 $205 15.968852416860356 $204 $290 forward 7 unknown #
edge $-1 $209 -15.968852416860356 $200 -12.968852416860356 $207 $291 forward 7 unknown #
straight-curve $-1 -64.663322350257758 -30.437704833720712 0 0 0 -1 I I #
edge $-1 $265 -12.402802536399282 $263 12.402802536399282 $211 $292 forward 7 unknown #
vertex $-1 $262 $293 #
straight-curve $-1 -35.818835134822351 -27.437704833720712 -12.402802536399282 1 0 0 I I #
vertex $-1 $212 $294 #
straight-curve $-1 -35.818835134822351 -27.437704833720712 12.402802536399282 -1 0 0 I I #
point $-1 -64.663322350257758 -27.437704833720712 12.402802536399282 #
point $-1 -64.663322350257758 -27.437704833720712 -12.402802536399282 #
point $-1 -64.663322350257758 -30.437704833720712 -12.402802536399282 #
point $-1 -64.663322350257758 -30.437704833720712 12.402802536399282 #
straight-curve $-1 -78.612018189031645 0 12.402802536399282 0 -1 0 I I #
straight-curve $-1 -78.612018189031645 0 -12.402802536399282 0 1 0 I I #
edge $-1 $274 68.887243579351562 $277 79.107718979018316 $217 $295 forward 7 unknown #
vertex $-1 $231 $296 #
straight-curve $-1 -23.539928379556674 59.910048579466533 12.402802536399278 0 1 0 I I #
edge $-1 $277 1.4891156971030632 $228 42.612509667804161 $227 $297 forward 7 unknown #
vertex $-1 $276 $298 #
straight-curve $-1 -23.539928379556674 -7.376821481830504 70.166124113551334 0 -0.5877852410284794 0.80901700255871778 I I #
point $-1 -23.539928379556674 34.59068697404728 12.402802536399278 #
point $-1 -64.663322350257772 42.016296790922233 2.1823271367325248 #
straight-curve $-1 0 42.016296790922233 12.402802536399282 -1 0 0 I I #
vertex $-1 $234 $299 #
point $-1 -50.913781215771742 36.446359984585619 5.9432795721328073 #
vertex $-1 $238 $300 #
point $-1 -33.2894695140427 36.446359984585619 5.9432795721328073 #
straight-curve $-1 -78.612018189031645 42.016296790922233 0 0 0 -1 I I #
point $-1 -78.612018189031645 -42.016296790922233 -12.402802536399282 #
straight-curve $-1 -78.612018189031645 0 -12.402802536399282 0 1 0 I I #
point $-1 -78.612018189031645 42.016296790922233 -12.402802536399282 #
straight-curve $-1 -64.663322350257758 -14.468852416860356 -12.402802536399282 0 -1 0 I I #
straight-curve $-1 -64.663322350257758 -14.468852416860356 12.402802536399282 0 1 0 I I #
straight-curve $-1 -78.612018189031645 -27.437704833720712 0 0 0 -1 I I #
point $-1 -78.612018189031645 -27.437704833720712 -12.402802536399282 #
point $-1 -78.612018189031645 -27.437704833720712 12.402802536399282 #
straight-curve $-1 -23.539928379556674 42.016296790922233 81.29004611575084 0 0 -1 I I #
point $-1 -23.539928379556674 42.016296790922233 12.402802536399282 #
straight-curve $-1 -22.050812682453611 42.016296790922233 2.1823271367325319 -1 0 0 I I #
point $-1 -23.539928379556674 42.016296790922233 2.1823271367325248 #
point $-1 -52.913781215771742 34.828325979468183 4.767709090075849 #
point $-1 -35.2894695140427 34.828325979468183 4.767709090075849 #
End-of-ACIS-data 