500 0 5 0           
7 Unknown 11 ACIS 5.0 NT 24 Fri Mar 26 19:34:49 1999 
-1 9.9999999999999995e-007 1e-010 
body $-1 $5 $-1 $6 #
body $-1 $7 $-1 $8 #
body $-1 $9 $-1 $10 #
body $-1 $11 $-1 $12 #
body $-1 $13 $-1 $14 #
lump $-1 $-1 $15 $0 #
transform $-1 1 0 0 0 1 0 0 0 1 53.921323282570881 27.056270909229326 7.7345742739293195 1 rotate no_reflect no_shear #
lump $-1 $-1 $16 $1 #
transform $-1 1 0 0 0 1 0 0 0 1 53.921323282570881 27.056270909229326 7.7345742739293195 1 rotate no_reflect no_shear #
lump $-1 $-1 $17 $2 #
transform $-1 1 0 0 0 1 0 0 0 1 53.921323282570881 27.056270909229326 7.7345742739293195 1 rotate no_reflect no_shear #
lump $-1 $-1 $18 $3 #
transform $-1 1 0 0 0 1 0 0 0 1 53.921323282570881 27.056270909229326 7.7345742739293195 1 rotate no_reflect no_shear #
lump $-1 $-1 $19 $4 #
transform $-1 1 0 0 0 1 0 0 0 1 53.921323282570881 27.056270909229326 7.7345742739293195 1 rotate no_reflect no_shear #
shell $-1 $-1 $-1 $20 $-1 $5 #
shell $-1 $-1 $-1 $21 $-1 $7 #
shell $-1 $-1 $-1 $22 $-1 $9 #
shell $-1 $-1 $-1 $23 $-1 $11 #
shell $-1 $-1 $-1 $24 $-1 $13 #
face $-1 $25 $26 $15 $-1 $27 forward single #
face $-1 $28 $29 $16 $-1 $30 forward single #
face $-1 $31 $32 $17 $-1 $33 forward single #
face $-1 $34 $35 $18 $-1 $36 reversed single #
face $-1 $37 $38 $19 $-1 $39 reversed single #
face $-1 $40 $41 $15 $-1 $42 reversed single #
loop $-1 $-1 $43 $20 #
plane-surface $-1 0 0 7.7345742739293195 0 0 1 1 0 0 forward_v I I I I #
face $-1 $44 $45 $16 $-1 $46 forward single #
loop $-1 $-1 $47 $21 #
plane-surface $-1 -42.903553639144533 -21.988140779069749 0 1 0 0 0 0 -1 forward_v I I I I #
face $-1 $48 $49 $17 $-1 $50 forward single #
loop $-1 $-1 $51 $22 #
plane-surface $-1 -145.37707524122214 15.308680528326892 59.464970667989569 0 1 0 -0.84804810408105047 0 0.52991925155115449 forward_v I I I I #
face $-1 $52 $53 $18 $-1 $54 reversed single #
loop $-1 $55 $56 $23 #
cone-surface $-1 -51.049944967843857 18.66513492287045 4.2892516664197533 0.84804810408105047 0 -0.52991925155115449 0.79487887732673168 0 1.2720721561215758 1 I I 0 1 1.5 forward I I I I #
face $-1 $57 $58 $19 $-1 $59 reversed single #
loop $-1 $60 $61 $24 #
cone-surface $-1 -51.049944967843857 23.699816514685779 4.2892516664197533 0.84804810408105047 0 -0.52991925155115449 0.79487887732673168 0 1.2720721561215758 1 I I 0 1 1.5 forward I I I I #
face $-1 $62 $63 $15 $-1 $64 reversed single #
loop $-1 $-1 $65 $25 #
plane-surface $-1 0 0 -7.7345742739293195 0 0 1 1 0 0 forward_v I I I I #
coedge $-1 $66 $67 $68 $69 forward $26 $-1 #
face $-1 $70 $71 $16 $-1 $72 forward single #
loop $-1 $-1 $73 $28 #
plane-surface $-1 -41.403553639144533 -16.920010648910171 0 0 -1 0 0 0 -1 forward_v I I I I #
coedge $-1 $74 $75 $76 $77 reversed $29 $-1 #
face $-1 $78 $79 $17 $-1 $80 forward single #
loop $-1 $-1 $81 $31 #
plane-surface $-1 -53.921323282570867 21.182475718778107 2.3170761148939647 -0.84804810408105047 0 0.52991925155115449 0.52991925155115449 0 0.84804810408105047 forward_v I I I I #
coedge $-1 $82 $83 $84 $85 reversed $32 $-1 #
face $-1 $86 $87 $18 $-1 $88 forward single #
loop $-1 $89 $90 $34 #
cone-surface $-1 -49.235144800534819 18.66513492287045 3.1552386997644986 0.84804810408105047 0 -0.52991925155115449 0.39743943866336584 0 0.63603607806078788 1 I I -0.70710678118654757 0.70710678118654757 0.75 forward I I I I #
loop $-1 $-1 $91 $23 #
coedge $-1 $56 $56 $92 $93 reversed $35 $-1 #
face $-1 $94 $95 $19 $-1 $96 reversed single #
loop $-1 $97 $98 $37 #
cone-surface $-1 -49.235144800534819 23.699816514685779 3.1552386997644986 0.84804810408105047 0 -0.52991925155115449 0.39743943866336584 0 0.63603607806078788 1 I I -0.70710678118654757 0.70710678118654757 0.75 forward I I I I #
loop $-1 $-1 $99 $24 #
coedge $-1 $61 $61 $100 $101 reversed $38 $-1 #
face $-1 $102 $103 $15 $-1 $104 reversed single #
loop $-1 $-1 $105 $40 #
plane-surface $-1 0 -27.056270909229326 0 0 1 0 0 0 1 forward_v I I I I #
coedge $-1 $106 $107 $108 $109 forward $41 $-1 #
coedge $-1 $110 $43 $111 $112 forward $26 $-1 #
coedge $-1 $43 $110 $113 $114 forward $26 $-1 #
coedge $-1 $115 $116 $43 $69 reversed $117 $-1 #
edge $-1 $118 -27.056270909229326 $119 27.056270909229326 $68 $120 forward 7 unknown #
face $-1 $121 $122 $16 $-1 $123 forward single #
loop $-1 $-1 $124 $44 #
plane-surface $-1 -39.903553639144533 -21.988140779069749 0 -1 0 0 0 0 1 forward_v I I I I #
coedge $-1 $125 $126 $127 $128 reversed $45 $-1 #
coedge $-1 $129 $47 $130 $131 reversed $29 $-1 #
coedge $-1 $47 $129 $132 $133 reversed $29 $-1 #
coedge $-1 $126 $125 $47 $77 forward $45 $-1 #
edge $-1 $134 -7.7345742739293195 $135 7.7345742739293195 $76 $136 forward 7 unknown #
face $-1 $137 $138 $17 $-1 $139 reversed single #
loop $-1 $-1 $140 $48 #
plane-surface $-1 0 0 7.7345742739293195 0 0 1 1 0 0 forward_v I I I I #
coedge $-1 $141 $142 $140 $143 reversed $49 $-1 #
coedge $-1 $83 $51 $142 $144 forward $32 $-1 #
coedge $-1 $51 $82 $145 $146 reversed $32 $-1 #
coedge $-1 $147 $140 $51 $85 forward $79 $-1 #
edge $-1 $148 -22.152442788997746 $149 -18.767214338040191 $84 $150 forward 7 unknown #
face $-1 $151 $152 $18 $-1 $153 forward single #
loop $-1 $-1 $154 $52 #
plane-surface $-1 -145.37707524122214 15.308680528326892 59.464970667989569 0 1 0 -0.84804810408105047 0 0.52991925155115449 forward_v I I I I #
loop $-1 $-1 $155 $34 #
coedge $-1 $90 $90 $91 $156 forward $53 $-1 #
coedge $-1 $91 $91 $90 $156 reversed $55 $-1 #
coedge $-1 $92 $92 $56 $93 forward $152 $-1 #
edge $-1 $157 0 $157 6.2831853071796004 $92 $158 forward 7 unknown #
face $-1 $159 $160 $19 $-1 $161 reversed single #
loop $-1 $162 $163 $57 #
cone-surface $-1 -51.049944967843857 18.66513492287045 4.2892516664197533 0.84804810408105047 0 -0.52991925155115449 0.79487887732673168 0 1.2720721561215758 1 I I 0 1 1.5 forward I I I I #
loop $-1 $-1 $164 $37 #
coedge $-1 $98 $98 $99 $165 forward $58 $-1 #
coedge $-1 $99 $99 $98 $165 reversed $60 $-1 #
coedge $-1 $100 $100 $61 $101 forward $166 $-1 #
edge $-1 $167 0 $167 6.2831853071796004 $100 $168 forward 7 unknown #
face $-1 $169 $170 $15 $-1 $171 reversed single #
loop $-1 $-1 $172 $62 #
plane-surface $-1 -53.921323282570881 0 0 1 0 0 0 0 -1 forward_v I I I I #
coedge $-1 $173 $113 $174 $175 forward $63 $-1 #
coedge $-1 $176 $65 $173 $177 forward $41 $-1 #
coedge $-1 $65 $176 $178 $179 forward $41 $-1 #
coedge $-1 $116 $115 $65 $109 reversed $117 $-1 #
edge $-1 $180 -27.056270909229326 $181 27.056270909229326 $108 $182 forward 7 unknown #
coedge $-1 $67 $66 $183 $184 forward $26 $-1 #
coedge $-1 $185 $186 $66 $112 reversed $170 $-1 #
edge $-1 $119 -53.921323282570881 $187 53.921323282570881 $111 $188 forward 7 unknown #
coedge $-1 $105 $189 $67 $114 reversed $63 $-1 #
edge $-1 $190 -53.921323282570881 $118 53.921323282570881 $113 $191 forward 7 unknown #
coedge $-1 $108 $68 $189 $192 forward $117 $-1 #
coedge $-1 $68 $108 $185 $193 reversed $117 $-1 #
loop $-1 $-1 $115 $169 #
vertex $-1 $69 $194 #
vertex $-1 $69 $195 #
straight-curve $-1 53.921323282570881 0 7.7345742739293195 0 1 0 I I #
face $-1 $196 $197 $16 $-1 $198 reversed single #
loop $-1 $-1 $130 $70 #
plane-surface $-1 0 0 7.7345742739293195 0 0 1 1 0 0 forward_v I I I I #
coedge $-1 $199 $200 $201 $202 reversed $71 $-1 #
coedge $-1 $76 $73 $203 $204 reversed $45 $-1 #
coedge $-1 $73 $76 $205 $206 reversed $45 $-1 #
coedge $-1 $200 $199 $73 $128 forward $71 $-1 #
edge $-1 $207 -7.7345742739293195 $208 7.7345742739293195 $127 $209 forward 7 unknown #
coedge $-1 $75 $74 $210 $211 reversed $29 $-1 #
coedge $-1 $203 $212 $74 $131 forward $122 $-1 #
edge $-1 $213 -16.06220051969445 $134 -5.925940259375297 $130 $214 forward 7 unknown #
coedge $-1 $215 $205 $75 $133 forward $216 $-1 #
edge $-1 $135 5.925940259375297 $217 16.06220051969445 $132 $218 forward 7 unknown #
vertex $-1 $131 $219 #
vertex $-1 $133 $220 #
straight-curve $-1 -42.903553639144533 -16.920010648910171 0 0 0 -1 I I #
face $-1 $221 $222 $17 $-1 $223 forward single #
loop $-1 $-1 $145 $78 #
plane-surface $-1 -53.921323282570881 0 0 1 0 0 0 0 -1 forward_v I I I I #
coedge $-1 $84 $224 $81 $143 forward $79 $-1 #
coedge $-1 $225 $81 $226 $227 reversed $49 $-1 #
coedge $-1 $81 $225 $82 $144 reversed $49 $-1 #
edge $-1 $228 -16.465033049840269 $148 -4.7174426689378386 $140 $229 forward 7 unknown #
edge $-1 $148 -6.3881967696936082 $230 2.6737665129848107e-014 $82 $231 forward 7 unknown #
coedge $-1 $232 $233 $83 $146 forward $138 $-1 #
edge $-1 $149 21.997911060065466 $230 27.415409219100841 $145 $234 forward 7 unknown #
coedge $-1 $235 $84 $233 $236 forward $79 $-1 #
vertex $-1 $143 $237 #
vertex $-1 $236 $238 #
straight-curve $-1 -72.688537620611072 15.308680528326892 7.7345742739293186 -1 0 0 I I #
face $-1 $239 $240 $18 $-1 $241 forward single #
loop $-1 $242 $92 $86 #
plane-surface $-1 -53.921323282570867 21.182475718778107 2.3170761148939647 -0.84804810408105047 0 0.52991925155115449 0.52991925155115449 0 0.84804810408105047 forward_v I I I I #
coedge $-1 $243 $244 $245 $246 reversed $87 $-1 #
coedge $-1 $155 $155 $-1 $247 forward $89 $-1 #
edge $-1 $248 0 $248 6.2831853071796004 $90 $249 forward 7 unknown #
vertex $-1 $93 $250 #
ellipse-curve $-1 -52.228709057092104 18.66513492287045 5.0258251944116372 0.84804810408105047 0 -0.52991925155115449 0.79487887732673168 0 1.2720721561215758 1 I I #
face $-1 $251 $252 $19 $-1 $253 forward single #
loop $-1 $254 $255 $94 #
cone-surface $-1 -49.235144800534819 18.66513492287045 3.1552386997644986 0.84804810408105047 0 -0.52991925155115449 0.39743943866336584 0 0.63603607806078788 1 I I -0.70710678118654757 0.70710678118654757 0.75 forward I I I I #
loop $-1 $-1 $256 $57 #
coedge $-1 $163 $163 $257 $258 reversed $95 $-1 #
coedge $-1 $164 $164 $-1 $259 forward $97 $-1 #
edge $-1 $260 0 $260 6.2831853071796004 $98 $261 forward 7 unknown #
loop $-1 $262 $100 $251 #
vertex $-1 $101 $263 #
ellipse-curve $-1 -52.228709057092104 23.699816514685779 5.0258251944116372 0.84804810408105047 0 -0.52991925155115449 0.79487887732673168 0 1.2720721561215758 1 I I #
face $-1 $-1 $117 $15 $-1 $264 reversed single #
loop $-1 $-1 $185 $102 #
plane-surface $-1 0 27.056270909229326 0 0 -1 0 0 0 -1 forward_v I I I I #
coedge $-1 $265 $183 $186 $266 forward $103 $-1 #
coedge $-1 $189 $105 $106 $177 reversed $63 $-1 #
coedge $-1 $183 $265 $105 $175 reversed $103 $-1 #
edge $-1 $190 -7.7345742739293195 $267 7.7345742739293195 $174 $268 forward 7 unknown #
coedge $-1 $107 $106 $265 $269 forward $41 $-1 #
edge $-1 $181 -53.921323282570881 $267 53.921323282570881 $173 $270 forward 7 unknown #
coedge $-1 $186 $185 $107 $179 reversed $170 $-1 #
edge $-1 $271 -53.921323282570881 $180 53.921323282570881 $178 $272 forward 7 unknown #
vertex $-1 $109 $273 #
vertex $-1 $192 $274 #
straight-curve $-1 53.921323282570881 0 -7.7345742739293195 0 -1 0 I I #
coedge $-1 $172 $174 $110 $184 reversed $103 $-1 #
edge $-1 $187 -27.056270909229326 $190 27.056270909229326 $183 $275 forward 7 unknown #
coedge $-1 $178 $111 $116 $193 forward $170 $-1 #
coedge $-1 $111 $178 $172 $266 reversed $170 $-1 #
vertex $-1 $112 $276 #
straight-curve $-1 0 27.056270909229326 7.7345742739293195 -1 0 0 I I #
coedge $-1 $113 $173 $115 $192 reversed $63 $-1 #
vertex $-1 $184 $277 #
straight-curve $-1 0 -27.056270909229326 7.7345742739293195 1 0 0 I I #
edge $-1 $118 -7.7345742739293195 $181 7.7345742739293195 $115 $278 forward 7 unknown #
edge $-1 $119 -7.7345742739293195 $180 7.7345742739293195 $116 $279 forward 7 unknown #
point $-1 53.921323282570881 -27.056270909229326 7.7345742739293195 #
point $-1 53.921323282570881 27.056270909229326 7.7345742739293195 #
face $-1 $280 $216 $16 $-1 $281 reversed single #
loop $-1 $-1 $201 $121 #
plane-surface $-1 0 -27.056270909229326 0 0 1 0 0 0 1 forward_v I I I I #
coedge $-1 $127 $124 $282 $283 reversed $71 $-1 #
coedge $-1 $124 $127 $284 $285 reversed $71 $-1 #
coedge $-1 $286 $287 $124 $202 forward $197 $-1 #
edge $-1 $288 -7.7345742739293195 $289 7.7345742739293195 $201 $290 forward 7 unknown #
coedge $-1 $282 $130 $125 $204 forward $122 $-1 #
edge $-1 $134 -22.201776819572267 $207 -19.201776819572267 $203 $291 forward 7 unknown #
coedge $-1 $132 $284 $126 $206 forward $216 $-1 #
edge $-1 $208 19.201776819572267 $135 22.201776819572267 $205 $292 forward 7 unknown #
vertex $-1 $204 $293 #
vertex $-1 $206 $294 #
straight-curve $-1 -39.903553639144533 -16.920010648910171 0 0 0 -1 I I #
coedge $-1 $295 $296 $129 $211 forward $297 $-1 #
edge $-1 $217 -7.7345742739293195 $213 7.7345742739293195 $210 $298 forward 7 unknown #
coedge $-1 $130 $299 $295 $300 forward $122 $-1 #
vertex $-1 $211 $301 #
straight-curve $-1 -42.903553639144533 -10.994070389534874 7.7345742739293195 0 1 0 I I #
coedge $-1 $302 $132 $296 $303 forward $216 $-1 #
loop $-1 $-1 $132 $196 #
vertex $-1 $303 $304 #
straight-curve $-1 -42.903553639144533 -10.994070389534874 -7.7345742739293195 0 -1 0 I I #
point $-1 -42.903553639144533 -16.920010648910171 7.7345742739293195 #
point $-1 -42.903553639144533 -16.920010648910171 -7.7345742739293195 #
face $-1 $305 $306 $17 $-1 $307 forward single #
loop $-1 $-1 $308 $137 #
plane-surface $-1 -42.903553639144533 -21.988140779069749 0 1 0 0 0 0 -1 forward_v I I I I #
coedge $-1 $140 $309 $310 $311 forward $79 $-1 #
coedge $-1 $142 $141 $232 $312 reversed $49 $-1 #
coedge $-1 $310 $313 $141 $227 forward $314 $-1 #
edge $-1 $315 -13.30447763515027 $228 -6.916280865456633 $226 $316 forward 7 unknown #
vertex $-1 $227 $317 #
straight-curve $-1 -50.536094831613326 10.591237859389054 7.7345742739293186 0 -1 0 I I #
vertex $-1 $312 $318 #
straight-curve $-1 -53.921323282570867 15.308680528326892 2.3170761148939647 -0.52991925155115449 0 -0.84804810408105047 I I #
coedge $-1 $319 $145 $225 $312 forward $138 $-1 #
coedge $-1 $145 $320 $147 $236 reversed $138 $-1 #
straight-curve $-1 -53.921323282570881 15.308680528326892 29.732485333994784 0 0 -1 I I #
coedge $-1 $321 $147 $322 $323 forward $79 $-1 #
edge $-1 $149 -15.308680528326892 $324 27.056270909229326 $233 $325 forward 7 unknown #
point $-1 -50.536094831613326 15.308680528326892 7.7345742739293195 #
point $-1 -53.921323282570881 15.308680528326892 7.7345742739293195 #
face $-1 $326 $327 $18 $-1 $328 reversed single #
loop $-1 $-1 $329 $151 #
plane-surface $-1 0 0 7.7345742739293195 0 0 1 1 0 0 forward_v I I I I #
loop $-1 $-1 $330 $86 #
coedge $-1 $244 $154 $331 $332 forward $87 $-1 #
coedge $-1 $154 $243 $333 $334 reversed $87 $-1 #
coedge $-1 $335 $329 $154 $246 forward $240 $-1 #
edge $-1 $336 -22.152442788997746 $337 -18.767214338040191 $245 $338 forward 7 unknown #
edge $-1 $339 1 $339 0 $155 $-1 forward 7 unknown #
vertex $-1 $156 $340 #
ellipse-curve $-1 -49.871180878595609 18.66513492287045 3.5526781384278645 -0.84804810408105047 0 0.52991925155115449 0.79487887732673168 0 1.2720721561215758 1 I I #
point $-1 -51.43383017976538 18.66513492287045 6.2978973505332174 #
face $-1 $341 $166 $19 $-1 $342 forward single #
loop $-1 $-1 $343 $159 #
plane-surface $-1 -145.37707524122214 15.308680528326892 59.464970667989569 0 1 0 -0.84804810408105047 0 0.52991925155115449 forward_v I I I I #
loop $-1 $-1 $344 $94 #
coedge $-1 $255 $255 $256 $345 forward $160 $-1 #
coedge $-1 $256 $256 $255 $345 reversed $162 $-1 #
coedge $-1 $257 $257 $163 $258 forward $262 $-1 #
edge $-1 $346 0 $346 6.2831853071796004 $257 $347 forward 7 unknown #
edge $-1 $348 1 $348 0 $164 $-1 forward 7 unknown #
vertex $-1 $165 $349 #
ellipse-curve $-1 -49.871180878595609 23.699816514685779 3.5526781384278645 -0.84804810408105047 0 0.52991925155115449 0.79487887732673168 0 1.2720721561215758 1 I I #
loop $-1 $350 $257 $251 #
point $-1 -51.43383017976538 23.699816514685779 6.2978973505332174 #
plane-surface $-1 53.921323282570881 0 0 -1 0 0 0 0 1 forward_v I I I I #
coedge $-1 $174 $172 $176 $269 reversed $103 $-1 #
edge $-1 $187 -7.7345742739293195 $271 7.7345742739293195 $186 $351 forward 7 unknown #
vertex $-1 $269 $352 #
straight-curve $-1 -53.921323282570881 -27.056270909229326 0 0 0 -1 I I #
edge $-1 $267 -27.056270909229326 $271 27.056270909229326 $265 $353 forward 7 unknown #
straight-curve $-1 0 -27.056270909229326 -7.7345742739293195 -1 0 0 I I #
vertex $-1 $179 $354 #
straight-curve $-1 0 27.056270909229326 -7.7345742739293195 1 0 0 I I #
point $-1 53.921323282570881 27.056270909229326 -7.7345742739293195 #
point $-1 53.921323282570881 -27.056270909229326 -7.7345742739293195 #
straight-curve $-1 -53.921323282570881 0 7.7345742739293195 0 -1 0 I I #
point $-1 -53.921323282570881 27.056270909229326 7.7345742739293195 #
point $-1 -53.921323282570881 -27.056270909229326 7.7345742739293195 #
straight-curve $-1 53.921323282570881 -27.056270909229326 0 0 0 -1 I I #
straight-curve $-1 53.921323282570881 27.056270909229326 0 0 0 -1 I I #
face $-1 $355 $297 $16 $-1 $198 reversed single #
plane-surface $-1 0 0 -7.7345742739293195 0 0 1 1 0 0 forward_v I I I I #
coedge $-1 $356 $203 $199 $283 forward $122 $-1 #
edge $-1 $207 5.925940259375297 $288 16.06220051969445 $282 $357 forward 7 unknown #
coedge $-1 $205 $358 $200 $285 forward $216 $-1 #
edge $-1 $289 -16.06220051969445 $208 -5.925940259375297 $284 $359 forward 7 unknown #
coedge $-1 $360 $201 $358 $361 reversed $197 $-1 #
coedge $-1 $201 $360 $356 $362 reversed $197 $-1 #
vertex $-1 $362 $363 #
vertex $-1 $202 $364 #
straight-curve $-1 -39.903553639144533 -27.056270909229326 0 0 0 -1 I I #
straight-curve $-1 -20.701776819572267 -16.920010648910171 7.7345742739293195 1 0 0 I I #
straight-curve $-1 -20.701776819572267 -16.920010648910171 -7.7345742739293195 -1 0 0 I I #
point $-1 -39.903553639144533 -16.920010648910171 7.7345742739293195 #
point $-1 -39.903553639144533 -16.920010648910171 -7.7345742739293195 #
coedge $-1 $365 $210 $212 $300 reversed $297 $-1 #
coedge $-1 $210 $365 $215 $303 reversed $297 $-1 #
loop $-1 $-1 $210 $280 #
straight-curve $-1 -42.903553639144533 -27.056270909229326 0 0 0 1 I I #
coedge $-1 $212 $366 $367 $368 forward $122 $-1 #
edge $-1 $369 -53.921323282570881 $213 -42.903553639144533 $295 $370 forward 7 unknown #
point $-1 -42.903553639144533 -27.056270909229326 7.7345742739293195 #
coedge $-1 $371 $215 $372 $373 forward $216 $-1 #
edge $-1 $217 42.903553639144533 $374 53.921323282570881 $296 $375 forward 7 unknown #
point $-1 -42.903553639144533 -27.056270909229326 -7.7345742739293195 #
face $-1 $376 $377 $17 $-1 $378 forward single #
loop $-1 $-1 $379 $221 #
plane-surface $-1 -41.403553639144533 -16.920010648910171 0 0 -1 0 0 0 -1 forward_v I I I I #
coedge $-1 $380 $381 $382 $383 reversed $222 $-1 #
coedge $-1 $224 $384 $385 $386 forward $79 $-1 #
coedge $-1 $387 $226 $224 $311 reversed $314 $-1 #
edge $-1 $388 -53.921323282570881 $228 50.536094831613326 $310 $389 forward 7 unknown #
edge $-1 $230 4.7174426689378386 $315 16.465033049840269 $232 $390 forward 7 unknown #
coedge $-1 $226 $391 $319 $392 reversed $314 $-1 #
loop $-1 $-1 $226 $393 #
vertex $-1 $392 $394 #
straight-curve $-1 -46.871024451872977 27.056270909229326 13.599913149171865 0.52991925155115449 0 0.84804810408105047 I I #
point $-1 -50.536094831613326 27.056270909229323 7.7345742739293195 #
point $-1 -53.921323282570881 15.308680528326892 2.3170761148939421 #
coedge $-1 $395 $232 $313 $392 forward $138 $-1 #
coedge $-1 $233 $395 $396 $397 reversed $138 $-1 #
coedge $-1 $398 $235 $380 $399 forward $79 $-1 #
coedge $-1 $396 $400 $235 $323 reversed $401 $-1 #
edge $-1 $324 -53.921323282570881 $402 -42.903553639144533 $322 $403 forward 7 unknown #
vertex $-1 $236 $404 #
straight-curve $-1 -53.921323282570881 0 7.7345742739293195 0 -1 0 I I #
face $-1 $405 $406 $18 $-1 $407 forward single #
loop $-1 $-1 $333 $239 #
plane-surface $-1 -53.921323282570881 0 0 1 0 0 0 0 -1 forward_v I I I I #
coedge $-1 $245 $408 $330 $409 forward $240 $-1 #
coedge $-1 $410 $331 $329 $409 reversed $242 $-1 #
coedge $-1 $330 $411 $243 $332 reversed $242 $-1 #
edge $-1 $336 -6.3881967696936082 $412 2.6737665129848107e-014 $243 $413 forward 7 unknown #
coedge $-1 $414 $415 $244 $334 forward $327 $-1 #
edge $-1 $337 21.997911060065466 $412 27.415409219100841 $333 $416 forward 7 unknown #
coedge $-1 $417 $245 $415 $418 forward $240 $-1 #
vertex $-1 $409 $419 #
vertex $-1 $418 $420 #
straight-curve $-1 -72.688537620611072 15.308680528326892 7.7345742739293186 -1 0 0 I I #
vertex $-1 $247 $421 #
point $-1 -49.076302001268878 18.66513492287045 4.8247502945494407 #
face $-1 $422 $423 $19 $-1 $424 forward single #
plane-surface $-1 -53.921323282570867 21.182475718778107 2.3170761148939647 -0.84804810408105047 0 0.52991925155115449 0.52991925155115449 0 0.84804810408105047 forward_v I I I I #
coedge $-1 $425 $426 $427 $428 reversed $252 $-1 #
coedge $-1 $344 $344 $-1 $429 forward $254 $-1 #
edge $-1 $430 0 $430 6.2831853071796004 $255 $431 forward 7 unknown #
vertex $-1 $258 $432 #
ellipse-curve $-1 -52.228709057092104 18.66513492287045 5.0258251944116372 0.84804810408105047 0 -0.52991925155115449 0.79487887732673168 0 1.2720721561215758 1 I I #
vertex $-1 $259 $433 #
point $-1 -49.076302001268878 23.699816514685779 4.8247502945494407 #
loop $-1 $-1 $434 $251 #
straight-curve $-1 -53.921323282570881 27.056270909229326 0 0 0 -1 I I #
point $-1 -53.921323282570881 -27.056270909229326 -7.7345742739293195 #
straight-curve $-1 -53.921323282570881 0 -7.7345742739293195 0 1 0 I I #
point $-1 -53.921323282570881 27.056270909229326 -7.7345742739293195 #
face $-1 $435 $436 $16 $-1 $437 reversed single #
coedge $-1 $438 $282 $287 $362 forward $122 $-1 #
straight-curve $-1 -39.903553639144533 -10.994070389534874 7.7345742739293195 0 -1 0 I I #
coedge $-1 $284 $439 $286 $361 forward $216 $-1 #
straight-curve $-1 -39.903553639144533 -10.994070389534874 -7.7345742739293195 0 1 0 I I #
coedge $-1 $287 $286 $440 $441 reversed $197 $-1 #
edge $-1 $442 -53.921323282570881 $289 39.903553639144533 $286 $375 forward 7 unknown #
edge $-1 $288 -39.903553639144533 $443 53.921323282570881 $287 $370 forward 7 unknown #
point $-1 -39.903553639144533 -27.056270909229326 7.7345742739293195 #
point $-1 -39.903553639144533 -27.056270909229326 -7.7345742739293195 #
coedge $-1 $296 $295 $444 $445 forward $297 $-1 #
coedge $-1 $299 $438 $446 $447 forward $122 $-1 #
coedge $-1 $448 $444 $299 $368 reversed $436 $-1 #
edge $-1 $449 -27.056270909229326 $369 27.056270909229326 $367 $450 forward 7 unknown #
vertex $-1 $368 $451 #
straight-curve $-1 0 -27.056270909229326 7.7345742739293195 1 0 0 I I #
coedge $-1 $439 $302 $452 $453 forward $216 $-1 #
coedge $-1 $444 $448 $302 $373 reversed $436 $-1 #
edge $-1 $374 -27.056270909229326 $454 27.056270909229326 $372 $455 forward 7 unknown #
vertex $-1 $373 $456 #
straight-curve $-1 0 -27.056270909229326 -7.7345742739293195 -1 0 0 I I #
face $-1 $457 $458 $17 $-1 $459 reversed single #
loop $-1 $-1 $460 $305 #
plane-surface $-1 -39.903553639144533 -21.988140779069749 0 -1 0 0 0 0 1 forward_v I I I I #
coedge $-1 $461 $462 $463 $464 reversed $306 $-1 #
coedge $-1 $465 $308 $321 $399 reversed $222 $-1 #
coedge $-1 $308 $465 $466 $467 reversed $222 $-1 #
coedge $-1 $462 $461 $308 $383 forward $306 $-1 #
edge $-1 $468 -7.7345742739293195 $469 7.7345742739293195 $382 $470 forward 7 unknown #
coedge $-1 $309 $471 $472 $473 forward $79 $-1 #
coedge $-1 $474 $475 $309 $386 reversed $476 $-1 #
edge $-1 $477 -27.056270909229326 $388 27.056270909229326 $385 $478 forward 7 unknown #
coedge $-1 $391 $310 $475 $479 forward $314 $-1 #
vertex $-1 $386 $480 #
straight-curve $-1 0 27.056270909229326 7.7345742739293195 -1 0 0 I I #
straight-curve $-1 -53.921323282570881 10.591237859389054 2.3170761148939416 0 1 0 I I #
coedge $-1 $313 $387 $481 $482 reversed $314 $-1 #
edge $-1 $315 -2.3170761148939421 $483 7.7345742739293195 $313 $484 forward 7 unknown #
face $-1 $485 $314 $17 $-1 $486 reversed single #
point $-1 -53.921323282570881 27.056270909229323 2.3170761148939421 #
coedge $-1 $320 $319 $487 $488 reversed $138 $-1 #
coedge $-1 $489 $322 $320 $397 forward $401 $-1 #
edge $-1 $324 -7.7345742739293195 $490 7.7345742739293195 $320 $491 forward 7 unknown #
coedge $-1 $471 $321 $461 $492 forward $79 $-1 #
edge $-1 $402 -16.06220051969445 $468 -5.925940259375297 $321 $493 forward 7 unknown #
coedge $-1 $322 $489 $465 $494 forward $401 $-1 #
loop $-1 $-1 $400 $495 #
vertex $-1 $494 $496 #
straight-curve $-1 0 -27.056270909229326 7.7345742739293195 1 0 0 I I #
point $-1 -53.921323282570881 -27.056270909229326 7.7345742739293195 #
face $-1 $497 $498 $18 $-1 $499 forward single #
loop $-1 $-1 $500 $326 #
plane-surface $-1 -42.903553639144533 -21.988140779069749 0 1 0 0 0 0 -1 forward_v I I I I #
coedge $-1 $329 $501 $502 $503 forward $240 $-1 #
edge $-1 $504 -16.465033049840269 $336 -4.7174426689378386 $329 $505 forward 7 unknown #
coedge $-1 $411 $330 $506 $507 reversed $242 $-1 #
coedge $-1 $331 $410 $414 $508 reversed $242 $-1 #
vertex $-1 $508 $509 #
straight-curve $-1 -53.921323282570867 15.308680528326892 2.3170761148939647 -0.52991925155115449 0 -0.84804810408105047 I I #
coedge $-1 $510 $333 $411 $508 forward $327 $-1 #
coedge $-1 $333 $511 $335 $418 reversed $327 $-1 #
straight-curve $-1 -53.921323282570881 15.308680528326892 29.732485333994784 0 0 -1 I I #
coedge $-1 $512 $335 $513 $514 forward $240 $-1 #
edge $-1 $337 -15.308680528326892 $515 27.056270909229326 $415 $516 forward 7 unknown #
point $-1 -50.536094831613326 15.308680528326892 7.7345742739293195 #
point $-1 -53.921323282570881 15.308680528326892 7.7345742739293195 #
point $-1 -48.599108722474028 18.66513492287045 2.7577992611011326 #
face $-1 $517 $518 $19 $-1 $519 reversed single #
loop $-1 $-1 $520 $341 #
plane-surface $-1 0 0 7.7345742739293195 0 0 1 1 0 0 forward_v I I I I #
coedge $-1 $426 $343 $521 $522 forward $252 $-1 #
coedge $-1 $343 $425 $523 $524 reversed $252 $-1 #
coedge $-1 $525 $520 $343 $428 forward $423 $-1 #
edge $-1 $526 -22.152442788997746 $527 -18.767214338040191 $427 $528 forward 7 unknown #
edge $-1 $529 1 $529 0 $344 $-1 forward 7 unknown #
vertex $-1 $345 $530 #
ellipse-curve $-1 -49.871180878595609 18.66513492287045 3.5526781384278645 -0.84804810408105047 0 0.52991925155115449 0.79487887732673168 0 1.2720721561215758 1 I I #
point $-1 -51.43383017976538 18.66513492287045 6.2978973505332174 #
point $-1 -48.599108722474028 23.699816514685779 2.7577992611011326 #
coedge $-1 $531 $521 $520 $532 reversed $350 $-1 #
face $-1 $533 $534 $16 $-1 $535 reversed single #
loop $-1 $-1 $448 $355 #
plane-surface $-1 -53.921323282570881 0 0 1 0 0 0 0 -1 forward_v I I I I #
coedge $-1 $366 $356 $536 $537 forward $122 $-1 #
coedge $-1 $358 $371 $538 $539 forward $216 $-1 #
coedge $-1 $538 $536 $360 $441 forward $540 $-1 #
edge $-1 $443 -7.7345742739293195 $442 7.7345742739293195 $440 $541 forward 7 unknown #
vertex $-1 $441 $542 #
vertex $-1 $537 $543 #
coedge $-1 $367 $372 $365 $445 reversed $436 $-1 #
edge $-1 $369 -7.7345742739293195 $374 7.7345742739293195 $444 $544 forward 7 unknown #
coedge $-1 $545 $546 $366 $447 reversed $534 $-1 #
edge $-1 $547 -53.921323282570881 $449 53.921323282570881 $446 $548 forward 7 unknown #
coedge $-1 $372 $367 $546 $549 forward $436 $-1 #
vertex $-1 $447 $550 #
straight-curve $-1 -53.921323282570881 0 7.7345742739293195 0 -1 0 I I #
point $-1 -53.921323282570881 -27.056270909229326 7.7345742739293195 #
coedge $-1 $546 $545 $371 $453 reversed $534 $-1 #
edge $-1 $454 -53.921323282570881 $551 53.921323282570881 $452 $552 forward 7 unknown #
vertex $-1 $453 $553 #
straight-curve $-1 -53.921323282570881 0 -7.7345742739293195 0 1 0 I I #
point $-1 -53.921323282570881 -27.056270909229326 -7.7345742739293195 #
face $-1 $495 $554 $17 $-1 $555 reversed single #
loop $-1 $-1 $556 $376 #
plane-surface $-1 0 -27.056270909229326 0 0 1 0 0 0 1 forward_v I I I I #
coedge $-1 $557 $558 $556 $559 reversed $377 $-1 #
coedge $-1 $382 $379 $398 $492 reversed $306 $-1 #
coedge $-1 $379 $382 $560 $561 reversed $306 $-1 #
coedge $-1 $558 $557 $379 $464 forward $377 $-1 #
edge $-1 $562 -7.7345742739293195 $563 7.7345742739293195 $463 $564 forward 7 unknown #
coedge $-1 $381 $380 $400 $494 reversed $222 $-1 #
coedge $-1 $565 $560 $381 $467 forward $554 $-1 #
edge $-1 $469 5.925940259375297 $566 16.06220051969445 $466 $567 forward 7 unknown #
vertex $-1 $399 $568 #
vertex $-1 $467 $569 #
straight-curve $-1 -42.903553639144533 -16.920010648910171 0 0 0 -1 I I #
coedge $-1 $384 $398 $557 $570 forward $79 $-1 #
coedge $-1 $556 $571 $384 $473 reversed $458 $-1 #
edge $-1 $572 -39.903553639144533 $477 53.921323282570881 $472 $403 forward 7 unknown #
coedge $-1 $573 $385 $571 $574 forward $476 $-1 #
coedge $-1 $385 $573 $387 $479 reversed $476 $-1 #
loop $-1 $-1 $474 $485 #
vertex $-1 $386 $575 #
straight-curve $-1 53.921323282570881 0 7.7345742739293195 0 1 0 I I #
edge $-1 $388 -7.7345742739293195 $576 7.7345742739293195 $475 $577 forward 7 unknown #
point $-1 53.921323282570881 27.056270909229326 7.7345742739293195 #
coedge $-1 $578 $487 $391 $482 forward $554 $-1 #
edge $-1 $483 -53.921323282570881 $576 53.921323282570881 $391 $579 forward 7 unknown #
vertex $-1 $482 $580 #
straight-curve $-1 -53.921323282570881 27.056270909229326 0 0 0 -1 I I #
face $-1 $-1 $476 $17 $-1 $581 reversed single #
plane-surface $-1 0 27.056270909229326 0 0 -1 0 0 0 -1 forward_v I I I I #
coedge $-1 $481 $565 $395 $488 forward $554 $-1 #
edge $-1 $490 -27.056270909229326 $483 27.056270909229326 $395 $582 forward 7 unknown #
coedge $-1 $400 $396 $565 $583 reversed $401 $-1 #
vertex $-1 $488 $584 #
straight-curve $-1 -53.921323282570881 -27.056270909229326 0 0 0 -1 I I #
edge $-1 $468 -22.201776819572267 $562 -19.201776819572267 $398 $585 forward 7 unknown #
straight-curve $-1 -42.903553639144533 -10.994070389534874 7.7345742739293195 0 1 0 I I #
edge $-1 $566 -7.7345742739293195 $402 7.7345742739293195 $400 $586 forward 7 unknown #
face $-1 $393 $401 $17 $-1 $459 reversed single #
point $-1 -42.903553639144533 -27.056270909229326 7.7345742739293195 #
face $-1 $587 $588 $18 $-1 $589 forward single #
loop $-1 $-1 $590 $405 #
plane-surface $-1 -41.403553639144533 -16.920010648910171 0 0 -1 0 0 0 -1 forward_v I I I I #
coedge $-1 $591 $592 $593 $594 reversed $406 $-1 #
coedge $-1 $408 $595 $596 $597 forward $240 $-1 #
coedge $-1 $598 $506 $408 $503 reversed $599 $-1 #
edge $-1 $600 -53.921323282570881 $504 50.536094831613326 $502 $601 forward 7 unknown #
vertex $-1 $507 $602 #
straight-curve $-1 -50.536094831613326 10.591237859389054 7.7345742739293186 0 -1 0 I I #
coedge $-1 $502 $603 $410 $507 forward $599 $-1 #
edge $-1 $604 -13.30447763515027 $504 -6.916280865456633 $506 $605 forward 7 unknown #
edge $-1 $412 4.7174426689378386 $604 16.465033049840269 $414 $606 forward 7 unknown #
point $-1 -53.921323282570881 15.308680528326892 2.3170761148939421 #
coedge $-1 $607 $414 $603 $608 forward $327 $-1 #
coedge $-1 $415 $607 $609 $610 reversed $327 $-1 #
coedge $-1 $611 $417 $591 $612 forward $240 $-1 #
coedge $-1 $609 $613 $417 $514 reversed $614 $-1 #
edge $-1 $515 -53.921323282570881 $615 -42.903553639144533 $513 $616 forward 7 unknown #
vertex $-1 $418 $617 #
straight-curve $-1 -53.921323282570881 0 7.7345742739293195 0 -1 0 I I #
face $-1 $618 $619 $19 $-1 $620 forward single #
loop $-1 $-1 $523 $422 #
plane-surface $-1 -53.921323282570881 0 0 1 0 0 0 0 -1 forward_v I I I I #
coedge $-1 $427 $621 $434 $532 forward $423 $-1 #
coedge $-1 $434 $622 $425 $522 reversed $350 $-1 #
edge $-1 $526 -6.3881967696936082 $623 2.6737665129848107e-014 $425 $624 forward 7 unknown #
coedge $-1 $625 $626 $426 $524 forward $518 $-1 #
edge $-1 $527 21.997911060065466 $623 27.415409219100841 $523 $627 forward 7 unknown #
coedge $-1 $628 $427 $626 $629 forward $423 $-1 #
vertex $-1 $532 $630 #
vertex $-1 $629 $631 #
straight-curve $-1 -72.688537620611072 15.308680528326892 7.7345742739293186 -1 0 0 I I #
vertex $-1 $429 $632 #
point $-1 -49.076302001268878 18.66513492287045 4.8247502945494407 #
coedge $-1 $622 $434 $633 $634 reversed $350 $-1 #
edge $-1 $635 -16.465033049840269 $526 -4.7174426689378386 $520 $636 forward 7 unknown #
face $-1 $-1 $540 $16 $-1 $637 reversed single #
loop $-1 $-1 $545 $435 #
plane-surface $-1 0 27.056270909229326 0 0 -1 0 0 0 -1 forward_v I I I I #
coedge $-1 $440 $638 $438 $537 reversed $540 $-1 #
edge $-1 $443 -27.056270909229326 $547 27.056270909229326 $536 $639 forward 7 unknown #
coedge $-1 $638 $440 $439 $539 reversed $540 $-1 #
edge $-1 $551 -27.056270909229326 $442 27.056270909229326 $538 $640 forward 7 unknown #
loop $-1 $-1 $440 $533 #
straight-curve $-1 53.921323282570881 -27.056270909229326 0 0 0 -1 I I #
point $-1 53.921323282570881 -27.056270909229326 -7.7345742739293195 #
point $-1 53.921323282570881 -27.056270909229326 7.7345742739293195 #
straight-curve $-1 -53.921323282570881 -27.056270909229326 0 0 0 -1 I I #
coedge $-1 $452 $446 $638 $641 forward $534 $-1 #
coedge $-1 $446 $452 $448 $549 reversed $534 $-1 #
vertex $-1 $537 $642 #
straight-curve $-1 0 27.056270909229326 7.7345742739293195 -1 0 0 I I #
edge $-1 $449 -7.7345742739293195 $454 7.7345742739293195 $546 $643 forward 7 unknown #
point $-1 -53.921323282570881 27.056270909229326 7.7345742739293195 #
vertex $-1 $539 $644 #
straight-curve $-1 0 27.056270909229326 -7.7345742739293195 1 0 0 I I #
point $-1 -53.921323282570881 27.056270909229326 -7.7345742739293195 #
loop $-1 $-1 $466 $457 #
plane-surface $-1 0 0 -7.7345742739293195 0 0 1 1 0 0 forward_v I I I I #
coedge $-1 $645 $472 $460 $559 forward $458 $-1 #
coedge $-1 $463 $460 $471 $570 reversed $377 $-1 #
coedge $-1 $460 $463 $646 $647 reversed $377 $-1 #
edge $-1 $572 -7.7345742739293195 $648 7.7345742739293195 $556 $649 forward 7 unknown #
coedge $-1 $466 $646 $462 $561 forward $554 $-1 #
edge $-1 $563 19.201776819572267 $469 22.201776819572267 $560 $650 forward 7 unknown #
vertex $-1 $492 $651 #
vertex $-1 $561 $652 #
straight-curve $-1 -39.903553639144533 -16.920010648910171 0 0 0 -1 I I #
coedge $-1 $487 $466 $489 $583 forward $554 $-1 #
vertex $-1 $583 $653 #
straight-curve $-1 -42.903553639144533 -10.994070389534874 -7.7345742739293195 0 -1 0 I I #
point $-1 -42.903553639144533 -16.920010648910171 7.7345742739293195 #
point $-1 -42.903553639144533 -16.920010648910171 -7.7345742739293195 #
edge $-1 $562 5.925940259375297 $572 16.06220051969445 $471 $654 forward 7 unknown #
coedge $-1 $472 $645 $474 $574 reversed $458 $-1 #
vertex $-1 $473 $655 #
coedge $-1 $475 $474 $578 $656 reversed $476 $-1 #
edge $-1 $477 -7.7345742739293195 $657 7.7345742739293195 $474 $658 forward 7 unknown #
point $-1 53.921323282570881 -27.056270909229326 7.7345742739293195 #
vertex $-1 $656 $659 #
straight-curve $-1 53.921323282570881 27.056270909229326 0 0 0 -1 I I #
coedge $-1 $660 $481 $573 $656 forward $554 $-1 #
straight-curve $-1 0 27.056270909229326 -7.7345742739293195 1 0 0 I I #
point $-1 -53.921323282570881 27.056270909229326 -7.7345742739293195 #
plane-surface $-1 53.921323282570881 0 0 -1 0 0 0 0 1 forward_v I I I I #
straight-curve $-1 -53.921323282570881 0 -7.7345742739293195 0 1 0 I I #
edge $-1 $566 42.903553639144533 $490 53.921323282570881 $489 $661 forward 7 unknown #
point $-1 -53.921323282570881 -27.056270909229326 -7.7345742739293195 #
straight-curve $-1 -20.701776819572267 -16.920010648910171 7.7345742739293195 1 0 0 I I #
straight-curve $-1 -42.903553639144533 -27.056270909229326 0 0 0 1 I I #
face $-1 $662 $663 $18 $-1 $664 reversed single #
loop $-1 $-1 $665 $497 #
plane-surface $-1 -39.903553639144533 -21.988140779069749 0 -1 0 0 0 0 1 forward_v I I I I #
coedge $-1 $666 $667 $668 $669 reversed $498 $-1 #
coedge $-1 $670 $500 $512 $612 reversed $406 $-1 #
coedge $-1 $500 $670 $671 $672 reversed $406 $-1 #
coedge $-1 $667 $666 $500 $594 forward $498 $-1 #
edge $-1 $673 -7.7345742739293195 $674 7.7345742739293195 $593 $675 forward 7 unknown #
coedge $-1 $501 $676 $677 $678 forward $240 $-1 #
coedge $-1 $679 $680 $501 $597 reversed $681 $-1 #
edge $-1 $682 -27.056270909229326 $600 27.056270909229326 $596 $683 forward 7 unknown #
coedge $-1 $684 $502 $680 $685 forward $599 $-1 #
loop $-1 $-1 $506 $686 #
vertex $-1 $597 $687 #
straight-curve $-1 0 27.056270909229326 7.7345742739293195 -1 0 0 I I #
point $-1 -50.536094831613326 27.056270909229323 7.7345742739293195 #
coedge $-1 $506 $684 $510 $608 reversed $599 $-1 #
vertex $-1 $608 $688 #
straight-curve $-1 -46.871024451872977 27.056270909229326 13.599913149171865 0.52991925155115449 0 0.84804810408105047 I I #
straight-curve $-1 -53.921323282570881 10.591237859389054 2.3170761148939416 0 1 0 I I #
coedge $-1 $511 $510 $689 $690 reversed $327 $-1 #
edge $-1 $604 -2.3170761148939421 $691 7.7345742739293195 $603 $692 forward 7 unknown #
coedge $-1 $693 $513 $511 $610 forward $614 $-1 #
edge $-1 $515 -7.7345742739293195 $694 7.7345742739293195 $511 $695 forward 7 unknown #
coedge $-1 $676 $512 $666 $696 forward $240 $-1 #
edge $-1 $615 -16.06220051969445 $673 -5.925940259375297 $512 $697 forward 7 unknown #
coedge $-1 $513 $693 $670 $698 forward $614 $-1 #
loop $-1 $-1 $613 $699 #
vertex $-1 $698 $700 #
straight-curve $-1 0 -27.056270909229326 7.7345742739293195 1 0 0 I I #
point $-1 -53.921323282570881 -27.056270909229326 7.7345742739293195 #
face $-1 $701 $702 $19 $-1 $703 forward single #
loop $-1 $-1 $704 $517 #
plane-surface $-1 -42.903553639144533 -21.988140779069749 0 1 0 0 0 0 -1 forward_v I I I I #
coedge $-1 $520 $705 $706 $707 forward $423 $-1 #
coedge $-1 $521 $531 $625 $708 reversed $350 $-1 #
vertex $-1 $708 $709 #
straight-curve $-1 -53.921323282570867 15.308680528326892 2.3170761148939647 -0.52991925155115449 0 -0.84804810408105047 I I #
coedge $-1 $710 $523 $622 $708 forward $518 $-1 #
coedge $-1 $523 $711 $525 $629 reversed $518 $-1 #
straight-curve $-1 -53.921323282570881 15.308680528326892 29.732485333994784 0 0 -1 I I #
coedge $-1 $712 $525 $713 $714 forward $423 $-1 #
edge $-1 $527 -15.308680528326892 $715 27.056270909229326 $626 $716 forward 7 unknown #
point $-1 -50.536094831613326 15.308680528326892 7.7345742739293195 #
point $-1 -53.921323282570881 15.308680528326892 7.7345742739293195 #
point $-1 -48.599108722474028 18.66513492287045 2.7577992611011326 #
coedge $-1 $706 $717 $531 $634 forward $718 $-1 #
edge $-1 $719 -13.30447763515027 $635 -6.916280865456633 $633 $720 forward 7 unknown #
vertex $-1 $634 $721 #
straight-curve $-1 -50.536094831613326 10.591237859389054 7.7345742739293186 0 -1 0 I I #
plane-surface $-1 53.921323282570881 0 0 -1 0 0 0 0 1 forward_v I I I I #
coedge $-1 $536 $538 $545 $641 reversed $540 $-1 #
straight-curve $-1 53.921323282570881 0 7.7345742739293195 0 1 0 I I #
straight-curve $-1 53.921323282570881 0 -7.7345742739293195 0 -1 0 I I #
edge $-1 $547 -7.7345742739293195 $551 7.7345742739293195 $638 $722 forward 7 unknown #
point $-1 53.921323282570881 27.056270909229326 7.7345742739293195 #
straight-curve $-1 -53.921323282570881 27.056270909229326 0 0 0 -1 I I #
point $-1 53.921323282570881 27.056270909229326 -7.7345742739293195 #
coedge $-1 $571 $556 $660 $723 reversed $458 $-1 #
coedge $-1 $560 $660 $558 $647 forward $554 $-1 #
edge $-1 $648 -16.06220051969445 $563 -5.925940259375297 $646 $724 forward 7 unknown #
vertex $-1 $559 $725 #
straight-curve $-1 -39.903553639144533 -27.056270909229326 0 0 0 -1 I I #
straight-curve $-1 -20.701776819572267 -16.920010648910171 -7.7345742739293195 -1 0 0 I I #
point $-1 -39.903553639144533 -16.920010648910171 7.7345742739293195 #
point $-1 -39.903553639144533 -16.920010648910171 -7.7345742739293195 #
point $-1 -42.903553639144533 -27.056270909229326 -7.7345742739293195 #
straight-curve $-1 -39.903553639144533 -10.994070389534874 7.7345742739293195 0 -1 0 I I #
point $-1 -39.903553639144533 -27.056270909229326 7.7345742739293195 #
edge $-1 $576 -27.056270909229326 $657 27.056270909229326 $573 $726 forward 7 unknown #
vertex $-1 $574 $727 #
straight-curve $-1 53.921323282570881 -27.056270909229326 0 0 0 -1 I I #
point $-1 53.921323282570881 27.056270909229326 -7.7345742739293195 #
coedge $-1 $646 $578 $645 $723 forward $554 $-1 #
straight-curve $-1 0 -27.056270909229326 -7.7345742739293195 -1 0 0 I I #
face $-1 $699 $728 $18 $-1 $729 reversed single #
loop $-1 $-1 $730 $587 #
plane-surface $-1 0 -27.056270909229326 0 0 1 0 0 0 1 forward_v I I I I #
coedge $-1 $731 $732 $730 $733 reversed $588 $-1 #
coedge $-1 $593 $590 $611 $696 reversed $498 $-1 #
coedge $-1 $590 $593 $734 $735 reversed $498 $-1 #
coedge $-1 $732 $731 $590 $669 forward $588 $-1 #
edge $-1 $736 -7.7345742739293195 $737 7.7345742739293195 $668 $738 forward 7 unknown #
coedge $-1 $592 $591 $613 $698 reversed $406 $-1 #
coedge $-1 $739 $734 $592 $672 forward $728 $-1 #
edge $-1 $674 5.925940259375297 $740 16.06220051969445 $671 $741 forward 7 unknown #
vertex $-1 $612 $742 #
vertex $-1 $672 $743 #
straight-curve $-1 -42.903553639144533 -16.920010648910171 0 0 0 -1 I I #
coedge $-1 $595 $611 $731 $744 forward $240 $-1 #
coedge $-1 $730 $745 $595 $678 reversed $663 $-1 #
edge $-1 $746 -39.903553639144533 $682 53.921323282570881 $677 $616 forward 7 unknown #
coedge $-1 $747 $596 $745 $748 forward $681 $-1 #
coedge $-1 $596 $747 $598 $685 reversed $681 $-1 #
loop $-1 $-1 $679 $749 #
vertex $-1 $597 $750 #
straight-curve $-1 53.921323282570881 0 7.7345742739293195 0 1 0 I I #
coedge $-1 $603 $598 $751 $752 reversed $599 $-1 #
edge $-1 $600 -7.7345742739293195 $753 7.7345742739293195 $680 $754 forward 7 unknown #
face $-1 $749 $599 $18 $-1 $755 reversed single #
point $-1 53.921323282570881 27.056270909229326 7.7345742739293195 #
point $-1 -53.921323282570881 27.056270909229323 2.3170761148939421 #
coedge $-1 $751 $739 $607 $690 forward $728 $-1 #
edge $-1 $694 -27.056270909229326 $691 27.056270909229326 $607 $756 forward 7 unknown #
vertex $-1 $752 $757 #
straight-curve $-1 -53.921323282570881 27.056270909229326 0 0 0 -1 I I #
coedge $-1 $613 $609 $739 $758 reversed $614 $-1 #
vertex $-1 $690 $759 #
straight-curve $-1 -53.921323282570881 -27.056270909229326 0 0 0 -1 I I #
edge $-1 $673 -22.201776819572267 $736 -19.201776819572267 $611 $760 forward 7 unknown #
straight-curve $-1 -42.903553639144533 -10.994070389534874 7.7345742739293195 0 1 0 I I #
edge $-1 $740 -7.7345742739293195 $615 7.7345742739293195 $613 $761 forward 7 unknown #
face $-1 $686 $614 $18 $-1 $664 reversed single #
point $-1 -42.903553639144533 -27.056270909229326 7.7345742739293195 #
face $-1 $762 $763 $19 $-1 $764 forward single #
loop $-1 $-1 $765 $618 #
plane-surface $-1 -41.403553639144533 -16.920010648910171 0 0 -1 0 0 0 -1 forward_v I I I I #
coedge $-1 $766 $767 $768 $769 reversed $619 $-1 #
coedge $-1 $621 $770 $771 $772 forward $423 $-1 #
coedge $-1 $773 $633 $621 $707 reversed $718 $-1 #
edge $-1 $774 -53.921323282570881 $635 50.536094831613326 $706 $775 forward 7 unknown #
edge $-1 $623 4.7174426689378386 $719 16.465033049840269 $625 $776 forward 7 unknown #
point $-1 -53.921323282570881 15.308680528326892 2.3170761148939421 #
coedge $-1 $777 $625 $717 $778 forward $518 $-1 #
coedge $-1 $626 $777 $779 $780 reversed $518 $-1 #
coedge $-1 $781 $628 $766 $782 forward $423 $-1 #
coedge $-1 $779 $783 $628 $714 reversed $784 $-1 #
edge $-1 $715 -53.921323282570881 $785 -42.903553639144533 $713 $786 forward 7 unknown #
vertex $-1 $629 $787 #
straight-curve $-1 -53.921323282570881 0 7.7345742739293195 0 -1 0 I I #
coedge $-1 $633 $788 $710 $778 reversed $718 $-1 #
loop $-1 $-1 $633 $789 #
vertex $-1 $778 $790 #
straight-curve $-1 -46.871024451872977 27.056270909229326 13.599913149171865 0.52991925155115449 0 0.84804810408105047 I I #
point $-1 -50.536094831613326 27.056270909229323 7.7345742739293195 #
straight-curve $-1 53.921323282570881 27.056270909229326 0 0 0 -1 I I #
edge $-1 $657 -53.921323282570881 $648 39.903553639144533 $645 $661 forward 7 unknown #
straight-curve $-1 -39.903553639144533 -10.994070389534874 -7.7345742739293195 0 1 0 I I #
point $-1 -39.903553639144533 -27.056270909229326 -7.7345742739293195 #
straight-curve $-1 53.921323282570881 0 -7.7345742739293195 0 -1 0 I I #
point $-1 53.921323282570881 -27.056270909229326 -7.7345742739293195 #
loop $-1 $-1 $671 $662 #
plane-surface $-1 0 0 -7.7345742739293195 0 0 1 1 0 0 forward_v I I I I #
coedge $-1 $791 $677 $665 $733 forward $663 $-1 #
coedge $-1 $668 $665 $676 $744 reversed $588 $-1 #
coedge $-1 $665 $668 $792 $793 reversed $588 $-1 #
edge $-1 $746 -7.7345742739293195 $794 7.7345742739293195 $730 $795 forward 7 unknown #
coedge $-1 $671 $792 $667 $735 forward $728 $-1 #
edge $-1 $737 19.201776819572267 $674 22.201776819572267 $734 $796 forward 7 unknown #
vertex $-1 $696 $797 #
vertex $-1 $735 $798 #
straight-curve $-1 -39.903553639144533 -16.920010648910171 0 0 0 -1 I I #
coedge $-1 $689 $671 $693 $758 forward $728 $-1 #
vertex $-1 $758 $799 #
straight-curve $-1 -42.903553639144533 -10.994070389534874 -7.7345742739293195 0 -1 0 I I #
point $-1 -42.903553639144533 -16.920010648910171 7.7345742739293195 #
point $-1 -42.903553639144533 -16.920010648910171 -7.7345742739293195 #
edge $-1 $736 5.925940259375297 $746 16.06220051969445 $676 $800 forward 7 unknown #
coedge $-1 $677 $791 $679 $748 reversed $663 $-1 #
vertex $-1 $678 $801 #
coedge $-1 $680 $679 $802 $803 reversed $681 $-1 #
edge $-1 $682 -7.7345742739293195 $804 7.7345742739293195 $679 $805 forward 7 unknown #
face $-1 $-1 $681 $18 $-1 $806 reversed single #
point $-1 53.921323282570881 -27.056270909229326 7.7345742739293195 #
coedge $-1 $802 $689 $684 $752 forward $728 $-1 #
edge $-1 $691 -53.921323282570881 $753 53.921323282570881 $684 $807 forward 7 unknown #
vertex $-1 $803 $808 #
straight-curve $-1 53.921323282570881 27.056270909229326 0 0 0 -1 I I #
plane-surface $-1 0 27.056270909229326 0 0 -1 0 0 0 -1 forward_v I I I I #
straight-curve $-1 -53.921323282570881 0 -7.7345742739293195 0 1 0 I I #
point $-1 -53.921323282570881 27.056270909229326 -7.7345742739293195 #
edge $-1 $740 42.903553639144533 $694 53.921323282570881 $693 $809 forward 7 unknown #
point $-1 -53.921323282570881 -27.056270909229326 -7.7345742739293195 #
straight-curve $-1 -20.701776819572267 -16.920010648910171 7.7345742739293195 1 0 0 I I #
straight-curve $-1 -42.903553639144533 -27.056270909229326 0 0 0 1 I I #
face $-1 $810 $811 $19 $-1 $812 reversed single #
loop $-1 $-1 $813 $701 #
plane-surface $-1 -39.903553639144533 -21.988140779069749 0 -1 0 0 0 0 1 forward_v I I I I #
coedge $-1 $814 $815 $816 $817 reversed $702 $-1 #
coedge $-1 $818 $704 $712 $782 reversed $619 $-1 #
coedge $-1 $704 $818 $819 $820 reversed $619 $-1 #
coedge $-1 $815 $814 $704 $769 forward $702 $-1 #
edge $-1 $821 -7.7345742739293195 $822 7.7345742739293195 $768 $823 forward 7 unknown #
coedge $-1 $705 $824 $825 $826 forward $423 $-1 #
coedge $-1 $827 $828 $705 $772 reversed $829 $-1 #
edge $-1 $830 -27.056270909229326 $774 27.056270909229326 $771 $831 forward 7 unknown #
coedge $-1 $788 $706 $828 $832 forward $718 $-1 #
vertex $-1 $772 $833 #
straight-curve $-1 0 27.056270909229326 7.7345742739293195 -1 0 0 I I #
straight-curve $-1 -53.921323282570881 10.591237859389054 2.3170761148939416 0 1 0 I I #
coedge $-1 $711 $710 $834 $835 reversed $518 $-1 #
edge $-1 $719 -2.3170761148939421 $836 7.7345742739293195 $717 $837 forward 7 unknown #
coedge $-1 $838 $713 $711 $780 forward $784 $-1 #
edge $-1 $715 -7.7345742739293195 $839 7.7345742739293195 $711 $840 forward 7 unknown #
coedge $-1 $824 $712 $814 $841 forward $423 $-1 #
edge $-1 $785 -16.06220051969445 $821 -5.925940259375297 $712 $842 forward 7 unknown #
coedge $-1 $713 $838 $818 $843 forward $784 $-1 #
loop $-1 $-1 $783 $844 #
vertex $-1 $843 $845 #
straight-curve $-1 0 -27.056270909229326 7.7345742739293195 1 0 0 I I #
point $-1 -53.921323282570881 -27.056270909229326 7.7345742739293195 #
coedge $-1 $717 $773 $846 $847 reversed $718 $-1 #
face $-1 $848 $718 $19 $-1 $849 reversed single #
point $-1 -53.921323282570881 27.056270909229323 2.3170761148939421 #
coedge $-1 $745 $730 $850 $851 reversed $663 $-1 #
coedge $-1 $734 $850 $732 $793 forward $728 $-1 #
edge $-1 $794 -16.06220051969445 $737 -5.925940259375297 $792 $852 forward 7 unknown #
vertex $-1 $733 $853 #
straight-curve $-1 -39.903553639144533 -27.056270909229326 0 0 0 -1 I I #
straight-curve $-1 -20.701776819572267 -16.920010648910171 -7.7345742739293195 -1 0 0 I I #
point $-1 -39.903553639144533 -16.920010648910171 7.7345742739293195 #
point $-1 -39.903553639144533 -16.920010648910171 -7.7345742739293195 #
point $-1 -42.903553639144533 -27.056270909229326 -7.7345742739293195 #
straight-curve $-1 -39.903553639144533 -10.994070389534874 7.7345742739293195 0 -1 0 I I #
point $-1 -39.903553639144533 -27.056270909229326 7.7345742739293195 #
coedge $-1 $850 $751 $747 $803 forward $728 $-1 #
edge $-1 $753 -27.056270909229326 $804 27.056270909229326 $747 $854 forward 7 unknown #
vertex $-1 $748 $855 #
straight-curve $-1 53.921323282570881 -27.056270909229326 0 0 0 -1 I I #
plane-surface $-1 53.921323282570881 0 0 -1 0 0 0 0 1 forward_v I I I I #
straight-curve $-1 0 27.056270909229326 -7.7345742739293195 1 0 0 I I #
point $-1 53.921323282570881 27.056270909229326 -7.7345742739293195 #
straight-curve $-1 0 -27.056270909229326 -7.7345742739293195 -1 0 0 I I #
face $-1 $844 $856 $19 $-1 $857 reversed single #
loop $-1 $-1 $858 $762 #
plane-surface $-1 0 -27.056270909229326 0 0 1 0 0 0 1 forward_v I I I I #
coedge $-1 $859 $860 $858 $861 reversed $763 $-1 #
coedge $-1 $768 $765 $781 $841 reversed $702 $-1 #
coedge $-1 $765 $768 $862 $863 reversed $702 $-1 #
coedge $-1 $860 $859 $765 $817 forward $763 $-1 #
edge $-1 $864 -7.7345742739293195 $865 7.7345742739293195 $816 $866 forward 7 unknown #
coedge $-1 $767 $766 $783 $843 reversed $619 $-1 #
coedge $-1 $867 $862 $767 $820 forward $856 $-1 #
edge $-1 $822 5.925940259375297 $868 16.06220051969445 $819 $869 forward 7 unknown #
vertex $-1 $782 $870 #
vertex $-1 $820 $871 #
straight-curve $-1 -42.903553639144533 -16.920010648910171 0 0 0 -1 I I #
coedge $-1 $770 $781 $859 $872 forward $423 $-1 #
coedge $-1 $858 $873 $770 $826 reversed $811 $-1 #
edge $-1 $874 -39.903553639144533 $830 53.921323282570881 $825 $786 forward 7 unknown #
coedge $-1 $875 $771 $873 $876 forward $829 $-1 #
coedge $-1 $771 $875 $773 $832 reversed $829 $-1 #
loop $-1 $-1 $827 $848 #
vertex $-1 $772 $877 #
straight-curve $-1 53.921323282570881 0 7.7345742739293195 0 1 0 I I #
edge $-1 $774 -7.7345742739293195 $878 7.7345742739293195 $828 $879 forward 7 unknown #
point $-1 53.921323282570881 27.056270909229326 7.7345742739293195 #
coedge $-1 $846 $867 $777 $835 forward $856 $-1 #
edge $-1 $839 -27.056270909229326 $836 27.056270909229326 $777 $880 forward 7 unknown #
vertex $-1 $847 $881 #
straight-curve $-1 -53.921323282570881 27.056270909229326 0 0 0 -1 I I #
coedge $-1 $783 $779 $867 $882 reversed $784 $-1 #
vertex $-1 $835 $883 #
straight-curve $-1 -53.921323282570881 -27.056270909229326 0 0 0 -1 I I #
edge $-1 $821 -22.201776819572267 $864 -19.201776819572267 $781 $884 forward 7 unknown #
straight-curve $-1 -42.903553639144533 -10.994070389534874 7.7345742739293195 0 1 0 I I #
edge $-1 $868 -7.7345742739293195 $785 7.7345742739293195 $783 $885 forward 7 unknown #
face $-1 $789 $784 $19 $-1 $812 reversed single #
point $-1 -42.903553639144533 -27.056270909229326 7.7345742739293195 #
coedge $-1 $886 $834 $788 $847 forward $856 $-1 #
edge $-1 $836 -53.921323282570881 $878 53.921323282570881 $788 $887 forward 7 unknown #
face $-1 $-1 $829 $19 $-1 $888 reversed single #
plane-surface $-1 0 27.056270909229326 0 0 -1 0 0 0 -1 forward_v I I I I #
coedge $-1 $792 $802 $791 $851 forward $728 $-1 #
edge $-1 $804 -53.921323282570881 $794 39.903553639144533 $791 $809 forward 7 unknown #
straight-curve $-1 -39.903553639144533 -10.994070389534874 -7.7345742739293195 0 1 0 I I #
point $-1 -39.903553639144533 -27.056270909229326 -7.7345742739293195 #
straight-curve $-1 53.921323282570881 0 -7.7345742739293195 0 -1 0 I I #
point $-1 53.921323282570881 -27.056270909229326 -7.7345742739293195 #
loop $-1 $-1 $819 $810 #
plane-surface $-1 0 0 -7.7345742739293195 0 0 1 1 0 0 forward_v I I I I #
coedge $-1 $889 $825 $813 $861 forward $811 $-1 #
coedge $-1 $816 $813 $824 $872 reversed $763 $-1 #
coedge $-1 $813 $816 $890 $891 reversed $763 $-1 #
edge $-1 $874 -7.7345742739293195 $892 7.7345742739293195 $858 $893 forward 7 unknown #
coedge $-1 $819 $890 $815 $863 forward $856 $-1 #
edge $-1 $865 19.201776819572267 $822 22.201776819572267 $862 $894 forward 7 unknown #
vertex $-1 $841 $895 #
vertex $-1 $863 $896 #
straight-curve $-1 -39.903553639144533 -16.920010648910171 0 0 0 -1 I I #
coedge $-1 $834 $819 $838 $882 forward $856 $-1 #
vertex $-1 $882 $897 #
straight-curve $-1 -42.903553639144533 -10.994070389534874 -7.7345742739293195 0 -1 0 I I #
point $-1 -42.903553639144533 -16.920010648910171 7.7345742739293195 #
point $-1 -42.903553639144533 -16.920010648910171 -7.7345742739293195 #
edge $-1 $864 5.925940259375297 $874 16.06220051969445 $824 $898 forward 7 unknown #
coedge $-1 $825 $889 $827 $876 reversed $811 $-1 #
vertex $-1 $826 $899 #
coedge $-1 $828 $827 $886 $900 reversed $829 $-1 #
edge $-1 $830 -7.7345742739293195 $901 7.7345742739293195 $827 $902 forward 7 unknown #
point $-1 53.921323282570881 -27.056270909229326 7.7345742739293195 #
vertex $-1 $900 $903 #
straight-curve $-1 53.921323282570881 27.056270909229326 0 0 0 -1 I I #
straight-curve $-1 -53.921323282570881 0 -7.7345742739293195 0 1 0 I I #
point $-1 -53.921323282570881 27.056270909229326 -7.7345742739293195 #
edge $-1 $868 42.903553639144533 $839 53.921323282570881 $838 $904 forward 7 unknown #
point $-1 -53.921323282570881 -27.056270909229326 -7.7345742739293195 #
straight-curve $-1 -20.701776819572267 -16.920010648910171 7.7345742739293195 1 0 0 I I #
straight-curve $-1 -42.903553639144533 -27.056270909229326 0 0 0 1 I I #
coedge $-1 $905 $846 $875 $900 forward $856 $-1 #
straight-curve $-1 0 27.056270909229326 -7.7345742739293195 1 0 0 I I #
plane-surface $-1 53.921323282570881 0 0 -1 0 0 0 0 1 forward_v I I I I #
coedge $-1 $873 $858 $905 $906 reversed $811 $-1 #
coedge $-1 $862 $905 $860 $891 forward $856 $-1 #
edge $-1 $892 -16.06220051969445 $865 -5.925940259375297 $890 $907 forward 7 unknown #
vertex $-1 $861 $908 #
straight-curve $-1 -39.903553639144533 -27.056270909229326 0 0 0 -1 I I #
straight-curve $-1 -20.701776819572267 -16.920010648910171 -7.7345742739293195 -1 0 0 I I #
point $-1 -39.903553639144533 -16.920010648910171 7.7345742739293195 #
point $-1 -39.903553639144533 -16.920010648910171 -7.7345742739293195 #
point $-1 -42.903553639144533 -27.056270909229326 -7.7345742739293195 #
straight-curve $-1 -39.903553639144533 -10.994070389534874 7.7345742739293195 0 -1 0 I I #
point $-1 -39.903553639144533 -27.056270909229326 7.7345742739293195 #
edge $-1 $878 -27.056270909229326 $901 27.056270909229326 $875 $909 forward 7 unknown #
vertex $-1 $876 $910 #
straight-curve $-1 53.921323282570881 -27.056270909229326 0 0 0 -1 I I #
point $-1 53.921323282570881 27.056270909229326 -7.7345742739293195 #
straight-curve $-1 0 -27.056270909229326 -7.7345742739293195 -1 0 0 I I #
coedge $-1 $890 $886 $889 $906 forward $856 $-1 #
edge $-1 $901 -53.921323282570881 $892 39.903553639144533 $889 $904 forward 7 unknown #
straight-curve $-1 -39.903553639144533 -10.994070389534874 -7.7345742739293195 0 1 0 I I #
point $-1 -39.903553639144533 -27.056270909229326 -7.7345742739293195 #
straight-curve $-1 53.921323282570881 0 -7.7345742739293195 0 -1 0 I I #
point $-1 53.921323282570881 -27.056270909229326 -7.7345742739293195 #
End-of-ACIS-data 