500 0 9 0           
7 Unknown 11 ACIS 5.0 NT 24 Thu Mar 25 16:05:48 1999 
-1 9.9999999999999995e-007 1e-010 
body $-1 $9 $-1 $10 #
body $-1 $11 $-1 $12 #
body $-1 $13 $-1 $14 #
body $-1 $15 $-1 $16 #
body $-1 $17 $-1 $18 #
body $-1 $19 $-1 $20 #
body $-1 $21 $-1 $22 #
body $-1 $23 $-1 $24 #
body $-1 $25 $-1 $26 #
lump $-1 $-1 $27 $0 #
transform $-1 1 0 0 0 1 0 0 0 1 54.087343974120301 31.972723100714759 8.433394832824721 1 rotate no_reflect no_shear #
lump $-1 $-1 $28 $1 #
transform $-1 1 0 0 0 1 0 0 0 1 54.087343974120301 31.972723100714759 8.433394832824721 1 rotate no_reflect no_shear #
lump $-1 $-1 $29 $2 #
transform $-1 1 0 0 0 1 0 0 0 1 54.087343974120301 31.972723100714759 8.433394832824721 1 rotate no_reflect no_shear #
lump $-1 $-1 $30 $3 #
transform $-1 1 0 0 0 1 0 0 0 1 54.087343974120301 31.972723100714759 8.433394832824721 1 rotate no_reflect no_shear #
lump $-1 $-1 $31 $4 #
transform $-1 1 0 0 0 1 0 0 0 1 54.087343974120301 31.972723100714759 8.433394832824721 1 rotate no_reflect no_shear #
lump $-1 $-1 $32 $5 #
transform $-1 1 0 0 0 1 0 0 0 1 54.087343974120301 31.972723100714759 8.433394832824721 1 rotate no_reflect no_shear #
lump $-1 $-1 $33 $6 #
transform $-1 1 0 0 0 1 0 0 0 1 54.087343974120301 31.972723100714759 8.433394832824721 1 rotate no_reflect no_shear #
lump $-1 $-1 $34 $7 #
transform $-1 1 0 0 0 1 0 0 0 1 54.087343974120301 31.972723100714759 8.433394832824721 1 rotate no_reflect no_shear #
lump $-1 $-1 $35 $8 #
transform $-1 1 0 0 0 1 0 0 0 1 54.087343974120301 31.972723100714759 8.433394832824721 1 rotate no_reflect no_shear #
shell $-1 $-1 $-1 $36 $-1 $9 #
shell $-1 $-1 $-1 $37 $-1 $11 #
shell $-1 $-1 $-1 $38 $-1 $13 #
shell $-1 $-1 $-1 $39 $-1 $15 #
shell $-1 $-1 $-1 $40 $-1 $17 #
shell $-1 $-1 $-1 $41 $-1 $19 #
shell $-1 $-1 $-1 $42 $-1 $21 #
shell $-1 $-1 $-1 $43 $-1 $23 #
shell $-1 $-1 $-1 $44 $-1 $25 #
face $-1 $45 $46 $27 $-1 $47 forward single #
face $-1 $48 $49 $28 $-1 $50 reversed single #
face $-1 $51 $52 $29 $-1 $53 reversed single #
face $-1 $54 $55 $30 $-1 $56 forward single #
face $-1 $57 $58 $31 $-1 $59 reversed single #
face $-1 $60 $61 $32 $-1 $62 forward single #
face $-1 $63 $64 $33 $-1 $65 reversed single #
face $-1 $66 $67 $34 $-1 $68 forward single #
face $-1 $69 $70 $35 $-1 $71 forward single #
face $-1 $72 $73 $27 $-1 $74 reversed single #
loop $-1 $-1 $75 $36 #
plane-surface $-1 0 0 8.433394832824721 0 0 1 1 0 0 forward_v I I I I #
face $-1 $76 $77 $28 $-1 $78 reversed single #
loop $-1 $-1 $79 $37 #
plane-surface $-1 -50.28138302463686 -25.342114243598527 0 0 1 0 0 0 1 forward_v I I I I #
face $-1 $80 $81 $29 $-1 $82 reversed single #
loop $-1 $-1 $83 $38 #
plane-surface $-1 -28.66126223345265 -112.36218359289754 76.875033280329106 -1 0 0 0 -0.74314483375859142 0.66913059716165679 forward_v I I I I #
face $-1 $84 $85 $30 $-1 $86 forward single #
loop $-1 $87 $88 $39 #
cone-surface $-1 -37.568342154303039 -28.838409918496705 5.2382513795124979 0 0.74314483375859142 -0.66913059716165679 1 0 0 1 I I 0 1 1 forward I I I I #
face $-1 $89 $90 $31 $-1 $91 reversed single #
loop $-1 $-1 $92 $40 #
plane-surface $-1 45.180264053269909 -31.972723100714774 4.4920397357469994 0 -0.74314483375859142 0.66913059716165679 1 0 0 forward_v I I I I #
face $-1 $93 $94 $32 $-1 $95 forward single #
loop $-1 $96 $97 $41 #
cone-surface $-1 45.180264053269909 -28.838409918496705 5.2382513795124979 0 0.74314483375859142 -0.66913059716165679 1 0 0 1 I I 0 1 1 forward I I I I #
face $-1 $98 $99 $33 $-1 $100 reversed single #
loop $-1 $-1 $101 $42 #
plane-surface $-1 47.819933082445004 -15.548003893368929 45.405310383318991 0 0.66913061440640931 0.74314481823134659 1 0 0 forward_v I I I I #
face $-1 $102 $103 $34 $-1 $104 forward single #
loop $-1 $105 $106 $43 #
cone-surface $-1 45.133899843155604 28.227192586468846 4.9524568573951102 0 -0.66913061440640931 -0.74314481823134659 1 0 0 1 I I 0 1 1 forward I I I I #
face $-1 $107 $108 $35 $-1 $109 forward single #
loop $-1 $110 $111 $44 #
cone-surface $-1 50.505966321734434 28.227192586468846 4.9524568573951102 0 -0.66913061440640931 -0.74314481823134659 1 0 0 1 I I 0 1 1 forward I I I I #
face $-1 $112 $113 $27 $-1 $114 reversed single #
loop $-1 $-1 $115 $45 #
plane-surface $-1 0 0 -8.433394832824721 0 0 1 1 0 0 forward_v I I I I #
coedge $-1 $116 $117 $118 $119 forward $46 $-1 #
face $-1 $120 $121 $28 $-1 $122 reversed single #
loop $-1 $-1 $123 $48 #
plane-surface $-1 -50.28138302463686 -21.261645224201889 0 0 -1 0 0 0 -1 forward_v I I I I #
coedge $-1 $124 $125 $126 $127 reversed $49 $-1 #
face $-1 $128 $129 $29 $-1 $130 reversed single #
loop $-1 $-1 $131 $51 #
plane-surface $-1 -37.568342154303039 -31.972723100714774 4.4920397357469994 0 -0.74314483375859142 0.66913059716165679 1 0 0 forward_v I I I I #
coedge $-1 $132 $133 $134 $135 reversed $52 $-1 #
face $-1 $-1 $136 $30 $-1 $137 forward single #
loop $-1 $138 $139 $54 #
cone-surface $-1 -37.568342154303039 -27.106930309948481 3.6792201761583101 0 0.74314483375859142 -0.66913059716165679 0.5 0 0 1 I I -0.70710678118654746 0.70710678118654746 0.5 forward I I I I #
loop $-1 $-1 $140 $39 #
coedge $-1 $88 $88 $141 $142 reversed $55 $-1 #
face $-1 $143 $144 $31 $-1 $145 reversed single #
loop $-1 $-1 $146 $57 #
plane-surface $-1 36.273184132419516 -112.36218359289754 76.875033280329106 1 0 0 0 0.74314483375859142 -0.66913059716165679 forward_v I I I I #
coedge $-1 $147 $148 $149 $150 reversed $58 $-1 #
face $-1 $-1 $151 $32 $-1 $152 forward single #
loop $-1 $153 $154 $60 #
cone-surface $-1 45.180264053269909 -27.106930309948481 3.6792201761583101 0 0.74314483375859142 -0.66913059716165679 0.5 0 0 1 I I -0.70710678118654746 0.70710678118654746 0.5 forward I I I I #
loop $-1 $-1 $155 $41 #
coedge $-1 $97 $97 $156 $157 reversed $61 $-1 #
face $-1 $158 $159 $33 $-1 $160 reversed single #
loop $-1 $-1 $161 $63 #
plane-surface $-1 41.552522190769714 56.834991516658903 125.7947691958469 1 0 0 0 -0.66913061440640931 -0.74314481823134659 forward_v I I I I #
coedge $-1 $162 $163 $164 $165 reversed $64 $-1 #
face $-1 $-1 $166 $34 $-1 $167 forward single #
loop $-1 $168 $169 $66 #
cone-surface $-1 45.133899843155604 27.376724655374034 4.0079165502299468 0 -0.66913061440640931 -0.74314481823134659 0.5 0 0 1 I I -0.70710678118654746 0.70710678118654746 0.5 forward I I I I #
loop $-1 $-1 $170 $43 #
coedge $-1 $106 $106 $171 $172 reversed $67 $-1 #
face $-1 $-1 $173 $35 $-1 $174 forward single #
loop $-1 $175 $176 $69 #
cone-surface $-1 50.505966321734434 27.376724655374034 4.0079165502299468 0 -0.66913061440640931 -0.74314481823134659 0.5 0 0 1 I I -0.70710678118654746 0.70710678118654746 0.5 forward I I I I #
loop $-1 $-1 $177 $44 #
coedge $-1 $111 $111 $178 $179 reversed $70 $-1 #
face $-1 $180 $181 $27 $-1 $182 reversed single #
loop $-1 $-1 $183 $72 #
plane-surface $-1 0 -31.972723100714759 0 0 1 0 0 0 1 forward_v I I I I #
coedge $-1 $184 $185 $186 $187 forward $73 $-1 #
coedge $-1 $188 $75 $189 $190 forward $46 $-1 #
coedge $-1 $75 $188 $191 $192 forward $46 $-1 #
coedge $-1 $193 $194 $75 $119 reversed $195 $-1 #
edge $-1 $196 -31.972723100714759 $197 31.972723100714759 $118 $198 forward 7 unknown #
face $-1 $199 $200 $28 $-1 $201 reversed single #
loop $-1 $-1 $202 $76 #
plane-surface $-1 -46.475422075153418 -23.301879733900208 0 -1 0 0 0 0 1 forward_v I I I I #
coedge $-1 $203 $204 $205 $206 forward $77 $-1 #
coedge $-1 $207 $79 $208 $209 reversed $49 $-1 #
coedge $-1 $79 $207 $210 $211 reversed $49 $-1 #
coedge $-1 $212 $213 $79 $127 forward $214 $-1 #
edge $-1 $215 -8.433394832824721 $216 8.433394832824721 $126 $217 forward 7 unknown #
face $-1 $218 $219 $29 $-1 $220 reversed single #
loop $-1 $-1 $221 $80 #
plane-surface $-1 -46.475422075153432 -112.36218359289754 76.875033280329106 1 0 0 0 0.74314483375859142 -0.66913059716165679 forward_v I I I I #
coedge $-1 $222 $223 $224 $225 reversed $81 $-1 #
coedge $-1 $133 $83 $226 $227 reversed $52 $-1 #
coedge $-1 $83 $132 $222 $228 reversed $52 $-1 #
coedge $-1 $224 $229 $83 $135 forward $230 $-1 #
edge $-1 $231 24.208368695734009 $232 27.757180676832245 $134 $233 forward 7 unknown #
loop $-1 $-1 $141 $84 #
plane-surface $-1 -37.568342154303039 -31.972723100714774 4.4920397357469994 0 -0.74314483375859142 0.66913059716165679 1 0 0 forward_v I I I I #
loop $-1 $-1 $234 $54 #
coedge $-1 $139 $139 $140 $235 reversed $85 $-1 #
coedge $-1 $140 $140 $139 $235 forward $87 $-1 #
coedge $-1 $141 $141 $88 $142 forward $136 $-1 #
edge $-1 $236 5.3123623576031698e-016 $236 6.2831853071796013 $141 $237 forward 7 unknown #
face $-1 $238 $239 $31 $-1 $240 forward single #
loop $-1 $-1 $241 $89 #
plane-surface $-1 0 -31.972723100714759 0 0 1 0 0 0 1 forward_v I I I I #
coedge $-1 $242 $243 $244 $245 reversed $90 $-1 #
coedge $-1 $246 $92 $247 $248 reversed $58 $-1 #
coedge $-1 $92 $246 $242 $249 forward $58 $-1 #
coedge $-1 $244 $250 $92 $150 forward $239 $-1 #
edge $-1 $251 -31.497211947485347 $252 -13.683052105784562 $149 $253 forward 7 unknown #
loop $-1 $-1 $156 $93 #
plane-surface $-1 45.180264053269909 -31.972723100714774 4.4920397357469994 0 -0.74314483375859142 0.66913059716165679 1 0 0 forward_v I I I I #
loop $-1 $-1 $254 $60 #
coedge $-1 $154 $154 $155 $255 reversed $94 $-1 #
coedge $-1 $155 $155 $154 $255 forward $96 $-1 #
coedge $-1 $156 $156 $97 $157 forward $151 $-1 #
edge $-1 $256 5.3123623576031698e-016 $256 6.2831853071796013 $156 $257 forward 7 unknown #
face $-1 $258 $259 $33 $-1 $260 reversed single #
loop $-1 $-1 $261 $98 #
plane-surface $-1 54.087343974120301 0 0 -1 0 0 0 0 1 forward_v I I I I #
coedge $-1 $262 $263 $264 $265 reversed $99 $-1 #
coedge $-1 $266 $101 $261 $267 reversed $64 $-1 #
coedge $-1 $101 $266 $262 $268 forward $64 $-1 #
coedge $-1 $264 $269 $101 $165 forward $259 $-1 #
edge $-1 $270 -30.177377432897799 $271 -17.642555649547212 $164 $272 forward 7 unknown #
loop $-1 $-1 $171 $102 #
plane-surface $-1 47.819933082445004 -15.548003893368929 45.405310383318991 0 0.66913061440640931 0.74314481823134659 1 0 0 forward_v I I I I #
loop $-1 $-1 $273 $66 #
coedge $-1 $169 $169 $170 $274 reversed $103 $-1 #
coedge $-1 $170 $170 $169 $274 forward $105 $-1 #
coedge $-1 $171 $171 $106 $172 forward $166 $-1 #
edge $-1 $275 -5.9430737167645847e-016 $275 6.2831853071795996 $171 $276 forward 7 unknown #
loop $-1 $-1 $178 $107 #
plane-surface $-1 47.819933082445004 -15.548003893368929 45.405310383318991 0 0.66913061440640931 0.74314481823134659 1 0 0 forward_v I I I I #
loop $-1 $-1 $277 $69 #
coedge $-1 $176 $176 $177 $278 reversed $108 $-1 #
coedge $-1 $177 $177 $176 $278 forward $110 $-1 #
coedge $-1 $178 $178 $111 $179 forward $173 $-1 #
edge $-1 $279 -5.9430737167645847e-016 $279 6.2831853071795996 $178 $280 forward 7 unknown #
face $-1 $281 $282 $27 $-1 $283 reversed single #
loop $-1 $-1 $284 $112 #
plane-surface $-1 -54.087343974120301 0 0 1 0 0 0 0 -1 forward_v I I I I #
coedge $-1 $285 $191 $286 $287 forward $113 $-1 #
coedge $-1 $288 $115 $285 $289 forward $73 $-1 #
coedge $-1 $115 $288 $290 $291 forward $73 $-1 #
coedge $-1 $194 $193 $115 $187 reversed $195 $-1 #
edge $-1 $292 -31.972723100714759 $293 31.972723100714759 $186 $294 forward 7 unknown #
coedge $-1 $117 $116 $295 $296 forward $46 $-1 #
coedge $-1 $297 $298 $116 $190 reversed $282 $-1 #
edge $-1 $197 -54.087343974120301 $299 54.087343974120301 $189 $300 forward 7 unknown #
coedge $-1 $183 $301 $117 $192 reversed $113 $-1 #
edge $-1 $302 -54.087343974120301 $196 54.087343974120301 $191 $303 forward 7 unknown #
coedge $-1 $186 $118 $301 $304 forward $195 $-1 #
coedge $-1 $118 $186 $297 $305 reversed $195 $-1 #
loop $-1 $-1 $193 $281 #
vertex $-1 $119 $306 #
vertex $-1 $119 $307 #
straight-curve $-1 54.087343974120301 0 8.433394832824721 0 1 0 I I #
face $-1 $308 $309 $28 $-1 $310 forward single #
loop $-1 $-1 $311 $120 #
plane-surface $-1 0 0 -8.433394832824721 0 0 1 1 0 0 forward_v I I I I #
coedge $-1 $312 $313 $207 $314 forward $121 $-1 #
coedge $-1 $315 $123 $311 $316 reversed $77 $-1 #
coedge $-1 $123 $315 $317 $318 reversed $77 $-1 #
coedge $-1 $313 $312 $123 $206 reversed $121 $-1 #
edge $-1 $319 -8.433394832824721 $320 8.433394832824721 $205 $321 forward 7 unknown #
coedge $-1 $125 $124 $202 $314 reversed $49 $-1 #
coedge $-1 $322 $323 $124 $209 forward $200 $-1 #
edge $-1 $324 21.334730562834988 $215 28.946652461801872 $208 $325 forward 7 unknown #
coedge $-1 $326 $327 $125 $211 forward $309 $-1 #
edge $-1 $216 -28.946652461801872 $328 -21.334730562834988 $210 $329 forward 7 unknown #
coedge $-1 $330 $126 $327 $331 reversed $214 $-1 #
coedge $-1 $126 $330 $322 $332 reversed $214 $-1 #
loop $-1 $-1 $330 $308 #
vertex $-1 $332 $333 #
vertex $-1 $127 $334 #
straight-curve $-1 -54.087343974120301 -25.342114243598527 0 0 0 1 I I #
face $-1 $-1 $230 $29 $-1 $335 forward single #
loop $-1 $-1 $336 $128 #
plane-surface $-1 0 -31.972723100714759 0 0 1 0 0 0 1 forward_v I I I I #
coedge $-1 $337 $338 $339 $340 reversed $129 $-1 #
coedge $-1 $341 $131 $133 $228 forward $81 $-1 #
coedge $-1 $131 $341 $337 $342 forward $81 $-1 #
coedge $-1 $339 $134 $131 $225 forward $230 $-1 #
edge $-1 $232 9.8770911563011303 $343 27.691250998001912 $224 $344 forward 7 unknown #
coedge $-1 $345 $346 $132 $227 forward $219 $-1 #
edge $-1 $347 -33.945476904417539 $231 -30.004121807339832 $226 $348 forward 7 unknown #
edge $-1 $232 -5.3036163585281146 $347 -2.1389731374768986e-014 $133 $349 forward 7 unknown #
coedge $-1 $134 $339 $345 $350 forward $230 $-1 #
loop $-1 $-1 $339 $218 #
vertex $-1 $227 $351 #
vertex $-1 $135 $352 #
straight-curve $-1 -28.66126223345265 -56.181091796448769 8.4333948328247246 0 1 0 I I #
coedge $-1 $234 $234 $-1 $353 reversed $138 $-1 #
edge $-1 $354 0 $354 6.2831853071796004 $139 $355 forward 7 unknown #
vertex $-1 $142 $356 #
ellipse-curve $-1 -37.568342154303039 -30.198317110165643 6.4627172842858664 0 -0.74314483375859142 0.66913059716165679 1 0 0 1 I I #
face $-1 $-1 $357 $31 $-1 $358 reversed single #
loop $-1 $-1 $244 $143 #
plane-surface $-1 0 0 8.433394832824721 0 0 1 1 0 0 forward_v I I I I #
coedge $-1 $359 $360 $243 $361 forward $144 $-1 #
coedge $-1 $243 $146 $148 $249 reversed $90 $-1 #
coedge $-1 $146 $242 $241 $361 reversed $90 $-1 #
coedge $-1 $362 $149 $146 $245 forward $239 $-1 #
edge $-1 $252 -27.757180676832245 $363 -24.208368695734009 $244 $364 forward 7 unknown #
coedge $-1 $148 $147 $359 $365 reversed $58 $-1 #
coedge $-1 $366 $367 $147 $248 forward $357 $-1 #
edge $-1 $368 -9.0278455893034213 $251 -3.724229230775328 $247 $369 forward 7 unknown #
edge $-1 $370 2.1389731374768986e-014 $252 5.3036163585281146 $242 $371 forward 7 unknown #
coedge $-1 $149 $362 $366 $372 forward $239 $-1 #
vertex $-1 $248 $373 #
vertex $-1 $150 $374 #
straight-curve $-1 22.590132026634954 -28.423911119616523 8.433394832824721 -1 0 0 I I #
coedge $-1 $254 $254 $-1 $375 reversed $153 $-1 #
edge $-1 $376 0 $376 6.2831853071796004 $154 $377 forward 7 unknown #
vertex $-1 $157 $378 #
ellipse-curve $-1 45.180264053269909 -30.198317110165643 6.4627172842858664 0 -0.74314483375859142 0.66913059716165679 1 0 0 1 I I #
face $-1 $-1 $379 $33 $-1 $380 forward single #
loop $-1 $-1 $164 $158 #
plane-surface $-1 0 31.972723100714759 0 0 -1 0 0 0 -1 forward_v I I I I #
coedge $-1 $381 $382 $162 $267 forward $159 $-1 #
coedge $-1 $263 $161 $163 $268 reversed $99 $-1 #
coedge $-1 $161 $262 $383 $384 reversed $99 $-1 #
coedge $-1 $385 $164 $161 $265 forward $259 $-1 #
edge $-1 $271 -60.279929919858979 $386 -54.463989765098731 $264 $387 forward 7 unknown #
coedge $-1 $163 $162 $388 $389 reversed $64 $-1 #
edge $-1 $390 34.285409248608481 $270 42.977195320778577 $261 $391 forward 7 unknown #
edge $-1 $392 55.253660129259416 $271 63.945446201429512 $262 $393 forward 7 unknown #
coedge $-1 $164 $385 $381 $394 forward $259 $-1 #
vertex $-1 $165 $395 #
vertex $-1 $165 $396 #
straight-curve $-1 23.909966541222502 31.972723100714756 2.6174546780644725 -1 0 0 I I #
coedge $-1 $273 $273 $-1 $397 reversed $168 $-1 #
edge $-1 $398 0 $398 6.2831853071796004 $169 $399 forward 7 unknown #
vertex $-1 $172 $400 #
ellipse-curve $-1 45.133899843155604 28.743095210360455 5.5254247554445994 0 0.66913061440640931 0.74314481823134659 1 0 0 1 I I #
coedge $-1 $277 $277 $-1 $401 reversed $175 $-1 #
edge $-1 $402 0 $402 6.2831853071796004 $176 $403 forward 7 unknown #
vertex $-1 $179 $404 #
ellipse-curve $-1 50.505966321734434 28.743095210360455 5.5254247554445994 0 0.66913061440640931 0.74314481823134659 1 0 0 1 I I #
face $-1 $-1 $195 $27 $-1 $405 reversed single #
loop $-1 $-1 $297 $180 #
plane-surface $-1 0 31.972723100714759 0 0 -1 0 0 0 -1 forward_v I I I I #
coedge $-1 $406 $295 $298 $407 forward $181 $-1 #
coedge $-1 $301 $183 $184 $289 reversed $113 $-1 #
coedge $-1 $295 $406 $183 $287 reversed $181 $-1 #
edge $-1 $302 -8.433394832824721 $408 8.433394832824721 $286 $409 forward 7 unknown #
coedge $-1 $185 $184 $406 $410 forward $73 $-1 #
edge $-1 $293 -54.087343974120301 $408 54.087343974120301 $285 $411 forward 7 unknown #
coedge $-1 $298 $297 $185 $291 reversed $282 $-1 #
edge $-1 $412 -54.087343974120301 $292 54.087343974120301 $290 $413 forward 7 unknown #
vertex $-1 $187 $414 #
vertex $-1 $304 $415 #
straight-curve $-1 54.087343974120301 0 -8.433394832824721 0 -1 0 I I #
coedge $-1 $284 $286 $188 $296 reversed $181 $-1 #
edge $-1 $299 -31.972723100714759 $302 31.972723100714759 $295 $416 forward 7 unknown #
coedge $-1 $290 $189 $194 $305 forward $282 $-1 #
coedge $-1 $189 $290 $284 $407 reversed $282 $-1 #
vertex $-1 $190 $417 #
straight-curve $-1 0 31.972723100714759 8.433394832824721 -1 0 0 I I #
coedge $-1 $191 $285 $193 $304 reversed $113 $-1 #
vertex $-1 $296 $418 #
straight-curve $-1 0 -31.972723100714759 8.433394832824721 1 0 0 I I #
edge $-1 $196 -8.433394832824721 $293 8.433394832824721 $193 $419 forward 7 unknown #
edge $-1 $197 -8.433394832824721 $292 8.433394832824721 $194 $420 forward 7 unknown #
point $-1 54.087343974120301 -31.972723100714759 8.433394832824721 #
point $-1 54.087343974120301 31.972723100714759 8.433394832824721 #
face $-1 $-1 $214 $28 $-1 $421 reversed single #
loop $-1 $-1 $317 $199 #
plane-surface $-1 0 0 8.433394832824721 0 0 1 1 0 0 forward_v I I I I #
coedge $-1 $323 $322 $203 $316 forward $200 $-1 #
coedge $-1 $205 $202 $323 $422 reversed $121 $-1 #
coedge $-1 $202 $205 $326 $423 reversed $121 $-1 #
edge $-1 $328 -8.433394832824721 $324 8.433394832824721 $202 $424 forward 7 unknown #
coedge $-1 $204 $203 $330 $425 reversed $77 $-1 #
edge $-1 $426 -28.946652461801872 $320 -21.334730562834988 $311 $427 forward 7 unknown #
coedge $-1 $327 $326 $204 $318 forward $309 $-1 #
edge $-1 $319 21.334730562834988 $428 28.946652461801872 $317 $429 forward 7 unknown #
vertex $-1 $318 $430 #
vertex $-1 $316 $431 #
straight-curve $-1 -46.475422075153418 -21.261645224201889 0 0 0 -1 I I #
coedge $-1 $311 $208 $213 $332 forward $200 $-1 #
coedge $-1 $208 $311 $312 $422 forward $200 $-1 #
vertex $-1 $209 $432 #
straight-curve $-1 -25.14069151231843 -25.342114243598527 -8.433394832824721 -1 0 0 I I #
coedge $-1 $317 $210 $313 $423 forward $309 $-1 #
coedge $-1 $210 $317 $212 $331 forward $309 $-1 #
vertex $-1 $211 $433 #
straight-curve $-1 -25.14069151231843 -25.342114243598527 8.433394832824721 1 0 0 I I #
coedge $-1 $213 $212 $315 $425 forward $214 $-1 #
edge $-1 $428 21.261645224201889 $216 25.342114243598527 $212 $434 forward 7 unknown #
edge $-1 $215 -25.342114243598527 $426 -21.261645224201889 $213 $435 forward 7 unknown #
point $-1 -54.087343974120301 -25.342114243598527 -8.433394832824721 #
point $-1 -54.087343974120301 -25.342114243598527 8.433394832824721 #
plane-surface $-1 0 0 8.433394832824721 0 0 1 1 0 0 forward_v I I I I #
coedge $-1 $346 $345 $338 $436 forward $219 $-1 #
coedge $-1 $338 $221 $223 $342 reversed $129 $-1 #
coedge $-1 $221 $337 $336 $436 reversed $129 $-1 #
coedge $-1 $229 $224 $221 $340 forward $230 $-1 #
edge $-1 $343 -27.757180676832245 $437 -24.208368695734009 $339 $438 forward 7 unknown #
coedge $-1 $223 $222 $346 $439 reversed $81 $-1 #
edge $-1 $440 2.1389731374768986e-014 $343 5.3036163585281146 $337 $441 forward 7 unknown #
vertex $-1 $225 $442 #
straight-curve $-1 -18.78417107715152 -28.423911119616523 8.433394832824721 -1 0 0 I I #
coedge $-1 $336 $226 $229 $350 reversed $219 $-1 #
coedge $-1 $226 $336 $341 $439 forward $219 $-1 #
vertex $-1 $227 $443 #
straight-curve $-1 -28.66126223345265 -31.972723100714759 38.437516640164553 0 0 1 I I #
straight-curve $-1 -28.66126223345265 -31.972723100714774 4.4920397357469994 0 -0.66913059716165679 -0.74314483375859142 I I #
edge $-1 $437 -46.475422075153432 $231 -28.66126223345265 $345 $444 forward 7 unknown #
point $-1 -28.66126223345265 -31.972723100714759 8.433394832824721 #
point $-1 -28.66126223345265 -28.423911119616523 8.433394832824721 #
edge $-1 $445 1 $445 0 $234 $-1 forward 7 unknown #
vertex $-1 $235 $446 #
ellipse-curve $-1 -37.568342154303039 -27.478502726827777 4.0137854747391382 0 -0.74314483375859142 0.66913059716165679 1 0 0 1 I I #
point $-1 -36.568342154303039 -30.198317110165632 6.4627172842858576 #
loop $-1 $-1 $247 $238 #
plane-surface $-1 54.087343974120301 0 0 -1 0 0 0 0 1 forward_v I I I I #
coedge $-1 $447 $241 $246 $365 forward $144 $-1 #
coedge $-1 $241 $447 $362 $448 reversed $144 $-1 #
edge $-1 $363 30.004121807339832 $370 33.945476904417539 $241 $449 forward 7 unknown #
coedge $-1 $250 $244 $360 $448 forward $239 $-1 #
vertex $-1 $448 $450 #
straight-curve $-1 36.273184132419516 -56.181091796448769 8.4333948328247246 0 -1 0 I I #
edge $-1 $370 13.683052105784562 $368 31.497211947485347 $359 $451 forward 7 unknown #
coedge $-1 $367 $247 $250 $372 reversed $357 $-1 #
coedge $-1 $247 $366 $447 $452 forward $357 $-1 #
vertex $-1 $365 $453 #
straight-curve $-1 54.087343974120301 -25.931915390460929 11.201036545408138 0 0.66913059716165679 0.74314483375859142 I I #
vertex $-1 $365 $454 #
straight-curve $-1 36.273184132419516 -31.972723100714774 4.4920397357469994 0 0.66913059716165679 0.74314483375859142 I I #
edge $-1 $455 -31.972723100714759 $251 -28.423911119616523 $366 $456 forward 7 unknown #
point $-1 54.087343974120301 -28.423911119616523 8.433394832824721 #
point $-1 36.273184132419516 -28.423911119616523 8.433394832824721 #
edge $-1 $457 1 $457 0 $254 $-1 forward 7 unknown #
vertex $-1 $255 $458 #
ellipse-curve $-1 45.180264053269909 -27.478502726827777 4.0137854747391382 0 -0.74314483375859142 0.66913059716165679 1 0 0 1 I I #
point $-1 46.180264053269909 -30.198317110165632 6.4627172842858576 #
loop $-1 $-1 $388 $258 #
plane-surface $-1 0 0 8.433394832824721 0 0 1 1 0 0 forward_v I I I I #
coedge $-1 $382 $261 $269 $394 reversed $159 $-1 #
coedge $-1 $261 $381 $459 $460 reversed $159 $-1 #
coedge $-1 $388 $461 $263 $384 forward $379 $-1 #
edge $-1 $386 -3.555227342385308 $392 2.9040284383232873 $383 $462 forward 7 unknown #
coedge $-1 $269 $264 $461 $463 reversed $259 $-1 #
vertex $-1 $265 $464 #
straight-curve $-1 41.552522190769714 31.972723100714759 62.897384597923448 0 0 1 I I #
coedge $-1 $459 $383 $266 $389 forward $379 $-1 #
edge $-1 $392 17.642555649547212 $390 30.177377432897792 $388 $465 forward 7 unknown #
vertex $-1 $460 $466 #
straight-curve $-1 54.087343974120301 0.034443095961685266 31.374811788521296 0 0.74314481823134659 -0.66913061440640931 I I #
vertex $-1 $389 $467 #
straight-curve $-1 41.552522190769714 -15.548003893368929 45.405310383318991 0 0.74314481823134659 -0.66913061440640931 I I #
edge $-1 $468 -8.433394832824721 $270 -2.6174546780644712 $381 $469 forward 7 unknown #
point $-1 54.087343974120301 31.972723100714759 2.6174546780644712 #
point $-1 41.552522190769714 31.972723100714759 2.617454678064469 #
edge $-1 $470 1 $470 0 $273 $-1 forward 7 unknown #
vertex $-1 $274 $471 #
ellipse-curve $-1 45.133899843155604 27.71128996257724 4.3794889593456201 0 0.66913061440640931 0.74314481823134659 1 0 0 1 I I #
point $-1 46.133899843155604 28.743095210360455 5.5254247554446003 #
edge $-1 $472 1 $472 0 $277 $-1 forward 7 unknown #
vertex $-1 $278 $473 #
ellipse-curve $-1 50.505966321734434 27.71128996257724 4.3794889593456201 0 0.66913061440640931 0.74314481823134659 1 0 0 1 I I #
point $-1 51.505966321734434 28.743095210360455 5.5254247554446003 #
plane-surface $-1 54.087343974120301 0 0 -1 0 0 0 0 1 forward_v I I I I #
coedge $-1 $286 $284 $288 $410 reversed $181 $-1 #
edge $-1 $299 -8.433394832824721 $412 8.433394832824721 $298 $474 forward 7 unknown #
vertex $-1 $410 $475 #
straight-curve $-1 -54.087343974120301 -31.972723100714759 0 0 0 -1 I I #
edge $-1 $408 -31.972723100714759 $412 31.972723100714759 $406 $476 forward 7 unknown #
straight-curve $-1 0 -31.972723100714759 -8.433394832824721 -1 0 0 I I #
vertex $-1 $291 $477 #
straight-curve $-1 0 31.972723100714759 -8.433394832824721 1 0 0 I I #
point $-1 54.087343974120301 31.972723100714759 -8.433394832824721 #
point $-1 54.087343974120301 -31.972723100714759 -8.433394832824721 #
straight-curve $-1 -54.087343974120301 0 8.433394832824721 0 -1 0 I I #
point $-1 -54.087343974120301 31.972723100714759 8.433394832824721 #
point $-1 -54.087343974120301 -31.972723100714759 8.433394832824721 #
straight-curve $-1 54.087343974120301 -31.972723100714759 0 0 0 -1 I I #
straight-curve $-1 54.087343974120301 31.972723100714759 0 0 0 -1 I I #
plane-surface $-1 -54.087343974120301 0 0 1 0 0 0 0 -1 forward_v I I I I #
edge $-1 $320 9.6107053572517849 $324 13.691174376648423 $323 $478 forward 7 unknown #
edge $-1 $328 -13.691174376648423 $319 -9.6107053572517849 $326 $479 forward 7 unknown #
straight-curve $-1 -46.475422075153418 -25.342114243598527 0 0 0 -1 I I #
edge $-1 $428 -8.433394832824721 $426 8.433394832824721 $330 $480 forward 7 unknown #
vertex $-1 $425 $481 #
straight-curve $-1 -25.14069151231843 -21.261645224201889 -8.433394832824721 1 0 0 I I #
vertex $-1 $331 $482 #
straight-curve $-1 -25.14069151231843 -21.261645224201889 8.433394832824721 -1 0 0 I I #
point $-1 -46.475422075153418 -21.261645224201889 8.433394832824721 #
point $-1 -46.475422075153418 -21.261645224201889 -8.433394832824721 #
point $-1 -46.475422075153418 -25.342114243598527 -8.433394832824721 #
point $-1 -46.475422075153418 -25.342114243598527 8.433394832824721 #
straight-curve $-1 -54.087343974120301 0 8.433394832824721 0 -1 0 I I #
straight-curve $-1 -54.087343974120301 0 -8.433394832824721 0 1 0 I I #
edge $-1 $437 30.004121807339832 $440 33.945476904417539 $336 $483 forward 7 unknown #
vertex $-1 $350 $484 #
straight-curve $-1 -46.475422075153432 -56.181091796448769 8.4333948328247246 0 -1 0 I I #
edge $-1 $440 -27.691250998001912 $347 -9.8770911563011303 $346 $485 forward 7 unknown #
vertex $-1 $439 $486 #
straight-curve $-1 -46.475422075153432 -31.972723100714774 4.4920397357469994 0 0.66913059716165679 0.74314483375859142 I I #
point $-1 -46.475422075153432 -28.423911119616523 8.433394832824721 #
point $-1 -28.66126223345265 -31.972723100714759 4.4920397357470154 #
straight-curve $-1 0 -31.972723100714759 8.433394832824721 1 0 0 I I #
vertex $-1 $353 $487 #
point $-1 -36.568342154303039 -27.478502726827777 4.0137854747391382 #
coedge $-1 $360 $359 $367 $452 reversed $144 $-1 #
edge $-1 $363 36.273184132419516 $455 54.087343974120301 $360 $488 forward 7 unknown #
straight-curve $-1 36.273184132419516 -31.972723100714759 38.437516640164553 0 0 -1 I I #
point $-1 36.273184132419516 -31.972723100714759 8.433394832824721 #
straight-curve $-1 22.590132026634954 -31.972723100714759 4.4920397357470181 1 0 0 I I #
edge $-1 $455 -8.433394832824721 $368 -4.4920397357470154 $367 $489 forward 7 unknown #
point $-1 54.087343974120301 -31.972723100714759 4.4920397357470154 #
point $-1 36.273184132419516 -31.972723100714759 4.4920397357470154 #
vertex $-1 $372 $490 #
straight-curve $-1 54.087343974120301 0 8.433394832824721 0 1 0 I I #
vertex $-1 $375 $491 #
point $-1 46.180264053269909 -27.478502726827777 4.0137854747391382 #
coedge $-1 $461 $388 $382 $460 forward $379 $-1 #
edge $-1 $390 25.513467320006164 $468 31.972723100714759 $382 $492 forward 7 unknown #
coedge $-1 $383 $459 $385 $463 forward $379 $-1 #
straight-curve $-1 41.552522190769714 28.417495758329451 8.4333948328247175 0 -1 0 I I #
edge $-1 $468 -54.087343974120301 $386 -41.552522190769714 $385 $493 forward 7 unknown #
point $-1 41.552522190769714 31.972723100714759 8.433394832824721 #
straight-curve $-1 23.909966541222502 25.513467320006161 8.4333948328247175 1 0 0 I I #
point $-1 54.087343974120294 25.513467320006164 8.4333948328247175 #
point $-1 41.552522190769714 25.513467320006164 8.4333948328247175 #
vertex $-1 $460 $494 #
straight-curve $-1 54.087343974120301 31.972723100714759 0 0 0 -1 I I #
vertex $-1 $397 $495 #
point $-1 46.133899843155604 27.71128996257724 4.3794889593456201 #
vertex $-1 $401 $496 #
point $-1 51.505966321734434 27.71128996257724 4.3794889593456201 #
straight-curve $-1 -54.087343974120301 31.972723100714759 0 0 0 -1 I I #
point $-1 -54.087343974120301 -31.972723100714759 -8.433394832824721 #
straight-curve $-1 -54.087343974120301 0 -8.433394832824721 0 1 0 I I #
point $-1 -54.087343974120301 31.972723100714759 -8.433394832824721 #
straight-curve $-1 -46.475422075153418 -11.650939866950104 -8.433394832824721 0 -1 0 I I #
straight-curve $-1 -46.475422075153418 -11.650939866950104 8.433394832824721 0 1 0 I I #
straight-curve $-1 -54.087343974120301 -21.261645224201889 0 0 0 -1 I I #
point $-1 -54.087343974120301 -21.261645224201889 -8.433394832824721 #
point $-1 -54.087343974120301 -21.261645224201889 8.433394832824721 #
straight-curve $-1 -46.475422075153432 -31.972723100714759 38.437516640164553 0 0 -1 I I #
point $-1 -46.475422075153432 -31.972723100714759 8.433394832824721 #
straight-curve $-1 -18.78417107715152 -31.972723100714759 4.4920397357470181 1 0 0 I I #
point $-1 -46.475422075153432 -31.972723100714759 4.4920397357470154 #
point $-1 -37.568342154303039 -26.735357893069185 3.3446548775774816 #
straight-curve $-1 0 -31.972723100714759 8.433394832824721 1 0 0 I I #
straight-curve $-1 54.087343974120301 -31.972723100714759 0 0 0 -1 I I #
point $-1 54.087343974120301 -31.972723100714759 8.433394832824721 #
point $-1 45.180264053269909 -26.735357893069185 3.3446548775774816 #
straight-curve $-1 54.087343974120301 0 8.433394832824721 0 1 0 I I #
straight-curve $-1 0 31.972723100714759 8.433394832824721 -1 0 0 I I #
point $-1 54.087343974120301 31.972723100714759 8.433394832824721 #
point $-1 45.133899843155604 27.042159348170827 3.6363441411142734 #
point $-1 50.505966321734434 27.042159348170827 3.6363441411142734 #
End-of-ACIS-data 