500 0 9 0           
7 Unknown 11 ACIS 5.0 NT 24 Fri Mar 26 17:05:14 1999 
-1 9.9999999999999995e-007 1e-010 
body $-1 $9 $-1 $10 #
body $-1 $11 $-1 $12 #
body $-1 $13 $-1 $14 #
body $-1 $15 $-1 $16 #
body $-1 $17 $-1 $18 #
body $-1 $19 $-1 $20 #
body $-1 $21 $-1 $22 #
body $-1 $23 $-1 $24 #
body $-1 $25 $-1 $26 #
lump $-1 $-1 $27 $0 #
transform $-1 1 0 0 0 1 0 0 0 1 56.506851405377361 24.426921824292982 7.5822829238888616 1 rotate no_reflect no_shear #
lump $-1 $-1 $28 $1 #
transform $-1 1 0 0 0 1 0 0 0 1 56.506851405377361 24.426921824292982 7.5822829238888616 1 rotate no_reflect no_shear #
lump $-1 $-1 $29 $2 #
transform $-1 1 0 0 0 1 0 0 0 1 56.506851405377361 24.426921824292982 7.5822829238888616 1 rotate no_reflect no_shear #
lump $-1 $-1 $30 $3 #
transform $-1 1 0 0 0 1 0 0 0 1 56.506851405377361 24.426921824292982 7.5822829238888616 1 rotate no_reflect no_shear #
lump $-1 $-1 $31 $4 #
transform $-1 1 0 0 0 1 0 0 0 1 56.506851405377361 24.426921824292982 7.5822829238888616 1 rotate no_reflect no_shear #
lump $-1 $-1 $32 $5 #
transform $-1 1 0 0 0 1 0 0 0 1 56.506851405377361 24.426921824292982 7.5822829238888616 1 rotate no_reflect no_shear #
lump $-1 $-1 $33 $6 #
transform $-1 1 0 0 0 1 0 0 0 1 56.506851405377361 24.426921824292982 7.5822829238888616 1 rotate no_reflect no_shear #
lump $-1 $-1 $34 $7 #
transform $-1 1 0 0 0 1 0 0 0 1 56.506851405377361 24.426921824292982 7.5822829238888616 1 rotate no_reflect no_shear #
lump $-1 $-1 $35 $8 #
transform $-1 1 0 0 0 1 0 0 0 1 56.506851405377361 24.426921824292982 7.5822829238888616 1 rotate no_reflect no_shear #
shell $-1 $-1 $-1 $36 $-1 $9 #
shell $-1 $-1 $-1 $37 $-1 $11 #
shell $-1 $-1 $-1 $38 $-1 $13 #
shell $-1 $-1 $-1 $39 $-1 $15 #
shell $-1 $-1 $-1 $40 $-1 $17 #
shell $-1 $-1 $-1 $41 $-1 $19 #
shell $-1 $-1 $-1 $42 $-1 $21 #
shell $-1 $-1 $-1 $43 $-1 $23 #
shell $-1 $-1 $-1 $44 $-1 $25 #
face $-1 $45 $46 $27 $-1 $47 forward single #
face $-1 $48 $49 $28 $-1 $50 forward single #
face $-1 $51 $52 $29 $-1 $53 reversed single #
face $-1 $54 $55 $30 $-1 $56 forward single #
face $-1 $57 $58 $31 $-1 $59 forward single #
face $-1 $60 $61 $32 $-1 $62 reversed single #
face $-1 $63 $64 $33 $-1 $65 forward single #
face $-1 $66 $67 $34 $-1 $68 reversed single #
face $-1 $69 $70 $35 $-1 $71 forward single #
face $-1 $72 $73 $27 $-1 $74 reversed single #
loop $-1 $-1 $75 $36 #
plane-surface $-1 0 0 7.5822829238888616 0 0 1 1 0 0 forward_v I I I I #
face $-1 $76 $77 $28 $-1 $78 reversed single #
loop $-1 $-1 $79 $37 #
plane-surface $-1 0 -21.882234830324297 2.9619064462022 0 0 1 1 0 0 forward_v I I I I #
face $-1 $80 $81 $29 $-1 $82 reversed single #
loop $-1 $-1 $83 $38 #
plane-surface $-1 59.296193082044638 -19.337547836355611 163.78785444973275 0 1 0 0.71933980857756763 0 0.69465836192734942 forward_v I I I I #
face $-1 $84 $85 $30 $-1 $86 forward single #
loop $-1 $87 $88 $39 #
cone-surface $-1 53.463085309211266 -17.079257812855481 4.5216992835249368 -0.71933980857756763 0 -0.69465836192734942 0.69465836192734942 0 -0.71933980857756763 1 I I 0 1 1 forward I I I I #
face $-1 $89 $90 $31 $-1 $91 forward single #
loop $-1 $92 $93 $40 #
cone-surface $-1 53.463085309211266 -13.691822777605285 4.5216992835249368 -0.71933980857756763 0 -0.69465836192734942 0.69465836192734942 0 -0.71933980857756763 1 I I 0 1 1 forward I I I I #
face $-1 $94 $95 $32 $-1 $96 reversed single #
loop $-1 $-1 $97 $41 #
plane-surface $-1 -113.01370356780372 -8.9217835134948853 101.11013607069236 0 1 0 -0.50000000669873634 0 0.8660253999169214 forward_v I I I I #
face $-1 $98 $99 $33 $-1 $100 forward single #
loop $-1 $101 $102 $42 #
cone-surface $-1 -52.142437255360846 -5.6781733207950822 4.3677797989538947 0.50000000669873634 0 -0.8660253999169214 1.2990380998753821 0 0.75000001004810457 1 I I 0 1 1.5 forward I I I I #
face $-1 $103 $104 $34 $-1 $105 reversed single #
loop $-1 $-1 $106 $43 #
plane-surface $-1 -113.01370356780372 12.960451316829415 101.11013607069236 0 1 0 -0.50000000669873634 0 0.8660253999169214 forward_v I I I I #
face $-1 $107 $108 $35 $-1 $109 forward single #
loop $-1 $110 $111 $44 #
cone-surface $-1 -52.142437255360846 16.204061509529218 4.3677797989538947 0.50000000669873634 0 -0.8660253999169214 1.2990380998753821 0 0.75000001004810457 1 I I 0 1 1.5 forward I I I I #
face $-1 $112 $113 $27 $-1 $114 reversed single #
loop $-1 $-1 $115 $45 #
plane-surface $-1 0 0 -7.5822829238888616 0 0 1 1 0 0 forward_v I I I I #
coedge $-1 $116 $117 $118 $119 forward $46 $-1 #
face $-1 $120 $121 $28 $-1 $122 reversed single #
loop $-1 $-1 $123 $48 #
plane-surface $-1 0 -21.882234830324297 -1.5791329090936697 0 0 1 1 0 0 forward_v I I I I #
coedge $-1 $124 $125 $126 $127 reversed $49 $-1 #
face $-1 $128 $129 $29 $-1 $130 reversed single #
loop $-1 $-1 $131 $51 #
plane-surface $-1 -21.999062264485786 -15.385540295230383 85.281940779869586 0.71933980857756763 0 0.69465836192734942 0.69465836192734942 0 -0.71933980857756763 forward_v I I I I #
coedge $-1 $132 $133 $134 $135 reversed $52 $-1 #
face $-1 $-1 $136 $30 $-1 $137 forward single #
loop $-1 $138 $139 $54 #
cone-surface $-1 51.795763335223484 -17.079257812855481 2.9115852074721928 -0.71933980857756763 0 -0.69465836192734942 0.34732918096367471 0 -0.35966990428878381 1 I I -0.70710678118654746 0.70710678118654746 0.5 forward I I I I #
loop $-1 $-1 $140 $39 #
coedge $-1 $88 $88 $141 $142 reversed $55 $-1 #
face $-1 $-1 $143 $31 $-1 $144 forward single #
loop $-1 $145 $146 $57 #
cone-surface $-1 51.795763335223484 -13.691822777605285 2.9115852074721928 -0.71933980857756763 0 -0.69465836192734942 0.34732918096367471 0 -0.35966990428878381 1 I I -0.70710678118654746 0.70710678118654746 0.5 forward I I I I #
loop $-1 $-1 $147 $40 #
coedge $-1 $93 $93 $148 $149 reversed $58 $-1 #
face $-1 $150 $151 $32 $-1 $152 reversed single #
loop $-1 $-1 $153 $60 #
plane-surface $-1 -56.506851405377354 -5.6781733207950822 3.2373988979164068 -0.50000000669873634 0 0.8660253999169214 0.8660253999169214 0 0.50000000669873634 forward_v I I I I #
coedge $-1 $154 $155 $156 $157 reversed $61 $-1 #
face $-1 $-1 $158 $33 $-1 $159 forward single #
loop $-1 $160 $161 $63 #
cone-surface $-1 -51.165802976093978 -5.6781733207950822 2.6761996370674623 0.50000000669873634 0 -0.8660253999169214 0.64951904993769105 0 0.37500000502405229 1 I I -0.70710678118654724 0.70710678118654768 0.75 forward I I I I #
loop $-1 $-1 $162 $42 #
coedge $-1 $102 $102 $163 $164 reversed $64 $-1 #
face $-1 $165 $166 $34 $-1 $167 reversed single #
loop $-1 $-1 $168 $66 #
plane-surface $-1 -56.506851405377354 16.204061509529218 3.2373988979164068 -0.50000000669873634 0 0.8660253999169214 0.8660253999169214 0 0.50000000669873634 forward_v I I I I #
coedge $-1 $169 $170 $171 $172 reversed $67 $-1 #
face $-1 $-1 $173 $35 $-1 $174 forward single #
loop $-1 $175 $176 $69 #
cone-surface $-1 -51.165802976093978 16.204061509529218 2.6761996370674623 0.50000000669873634 0 -0.8660253999169214 0.64951904993769105 0 0.37500000502405229 1 I I -0.70710678118654724 0.70710678118654768 0.75 forward I I I I #
loop $-1 $-1 $177 $44 #
coedge $-1 $111 $111 $178 $179 reversed $70 $-1 #
face $-1 $180 $181 $27 $-1 $182 reversed single #
loop $-1 $-1 $183 $72 #
plane-surface $-1 0 -24.426921824292982 0 0 1 0 0 0 1 forward_v I I I I #
coedge $-1 $184 $185 $186 $187 forward $73 $-1 #
coedge $-1 $188 $75 $189 $190 forward $46 $-1 #
coedge $-1 $75 $188 $191 $192 forward $46 $-1 #
coedge $-1 $193 $194 $75 $119 reversed $195 $-1 #
edge $-1 $196 -24.426921824292982 $197 24.426921824292982 $118 $198 forward 7 unknown #
face $-1 $199 $200 $28 $-1 $201 reversed single #
loop $-1 $-1 $202 $76 #
plane-surface $-1 0 -19.337547836355611 0.69138676855426517 0 -1 0 0 0 -1 forward_v I I I I #
coedge $-1 $203 $204 $205 $206 reversed $77 $-1 #
coedge $-1 $207 $79 $208 $209 forward $49 $-1 #
coedge $-1 $79 $207 $210 $211 reversed $49 $-1 #
coedge $-1 $212 $213 $79 $127 forward $214 $-1 #
edge $-1 $215 8.3964304211934628 $216 13.485804409130834 $126 $217 forward 7 unknown #
face $-1 $218 $219 $29 $-1 $220 forward single #
loop $-1 $-1 $221 $80 #
plane-surface $-1 59.296193082044638 -11.433532754105155 163.78785444973275 0 -1 0 -0.71933980857756763 0 -0.69465836192734942 forward_v I I I I #
coedge $-1 $222 $223 $224 $225 reversed $81 $-1 #
coedge $-1 $133 $83 $226 $227 reversed $52 $-1 #
coedge $-1 $83 $132 $222 $228 reversed $52 $-1 #
coedge $-1 $224 $229 $83 $135 forward $230 $-1 #
edge $-1 $231 74.31164430097752 $232 77.907241791527198 $134 $233 forward 7 unknown #
loop $-1 $-1 $141 $84 #
plane-surface $-1 -21.999062264485786 -15.385540295230383 85.281940779869586 0.71933980857756763 0 0.69465836192734942 0.69465836192734942 0 -0.71933980857756763 forward_v I I I I #
loop $-1 $-1 $234 $54 #
coedge $-1 $139 $139 $140 $235 reversed $85 $-1 #
coedge $-1 $140 $140 $139 $235 forward $87 $-1 #
coedge $-1 $141 $141 $88 $142 forward $136 $-1 #
edge $-1 $236 0 $236 6.2831853071796004 $141 $237 forward 7 unknown #
loop $-1 $-1 $148 $89 #
plane-surface $-1 -21.999062264485786 -15.385540295230383 85.281940779869586 0.71933980857756763 0 0.69465836192734942 0.69465836192734942 0 -0.71933980857756763 forward_v I I I I #
loop $-1 $-1 $238 $57 #
coedge $-1 $146 $146 $147 $239 reversed $90 $-1 #
coedge $-1 $147 $147 $146 $239 forward $92 $-1 #
coedge $-1 $148 $148 $93 $149 forward $143 $-1 #
edge $-1 $240 0 $240 6.2831853071796004 $148 $241 forward 7 unknown #
face $-1 $242 $243 $32 $-1 $244 reversed single #
loop $-1 $-1 $245 $94 #
plane-surface $-1 -113.01370356780372 -2.4345631280952791 101.11013607069236 0 -1 0 0.50000000669873634 0 -0.8660253999169214 forward_v I I I I #
coedge $-1 $246 $247 $248 $249 reversed $95 $-1 #
coedge $-1 $155 $97 $250 $251 reversed $61 $-1 #
coedge $-1 $97 $154 $246 $252 reversed $61 $-1 #
coedge $-1 $248 $253 $97 $157 forward $254 $-1 #
edge $-1 $255 3.7852449707997948e-007 $256 7.5255601300719022 $156 $257 forward 7 unknown #
loop $-1 $-1 $163 $98 #
plane-surface $-1 -56.506851405377354 -5.6781733207950822 3.2373988979164068 -0.50000000669873634 0 0.8660253999169214 0.8660253999169214 0 0.50000000669873634 forward_v I I I I #
loop $-1 $-1 $258 $63 #
coedge $-1 $161 $161 $162 $259 reversed $99 $-1 #
coedge $-1 $162 $162 $161 $259 forward $101 $-1 #
coedge $-1 $163 $163 $102 $164 forward $158 $-1 #
edge $-1 $260 0 $260 6.2831853071796004 $163 $261 forward 7 unknown #
face $-1 $262 $263 $34 $-1 $264 forward single #
loop $-1 $-1 $265 $103 #
plane-surface $-1 -113.01370356780372 19.447671702229023 101.11013607069236 0 -1 0 0.50000000669873634 0 -0.8660253999169214 forward_v I I I I #
coedge $-1 $266 $267 $268 $269 reversed $104 $-1 #
coedge $-1 $170 $106 $270 $271 reversed $67 $-1 #
coedge $-1 $106 $169 $266 $272 reversed $67 $-1 #
coedge $-1 $268 $273 $106 $172 forward $263 $-1 #
edge $-1 $274 3.7852449707997948e-007 $275 7.5255601300719022 $171 $276 forward 7 unknown #
loop $-1 $-1 $178 $107 #
plane-surface $-1 -56.506851405377354 16.204061509529218 3.2373988979164068 -0.50000000669873634 0 0.8660253999169214 0.8660253999169214 0 0.50000000669873634 forward_v I I I I #
loop $-1 $-1 $277 $69 #
coedge $-1 $176 $176 $177 $278 reversed $108 $-1 #
coedge $-1 $177 $177 $176 $278 forward $110 $-1 #
coedge $-1 $178 $178 $111 $179 forward $173 $-1 #
edge $-1 $279 0 $279 6.2831853071796004 $178 $280 forward 7 unknown #
face $-1 $281 $282 $27 $-1 $283 reversed single #
loop $-1 $-1 $284 $112 #
plane-surface $-1 -56.506851405377361 0 0 1 0 0 0 0 -1 forward_v I I I I #
coedge $-1 $285 $191 $286 $287 forward $113 $-1 #
coedge $-1 $288 $115 $285 $289 forward $73 $-1 #
coedge $-1 $115 $288 $290 $291 forward $73 $-1 #
coedge $-1 $194 $193 $115 $187 reversed $195 $-1 #
edge $-1 $292 -24.426921824292982 $293 24.426921824292982 $186 $294 forward 7 unknown #
coedge $-1 $117 $116 $295 $296 forward $46 $-1 #
coedge $-1 $297 $298 $116 $190 reversed $282 $-1 #
edge $-1 $197 -56.506851405377361 $299 56.506851405377361 $189 $300 forward 7 unknown #
coedge $-1 $183 $301 $117 $192 reversed $113 $-1 #
edge $-1 $302 -56.506851405377361 $196 56.506851405377361 $191 $303 forward 7 unknown #
coedge $-1 $186 $118 $301 $304 forward $195 $-1 #
coedge $-1 $118 $186 $297 $305 reversed $195 $-1 #
loop $-1 $-1 $193 $281 #
vertex $-1 $119 $306 #
vertex $-1 $119 $307 #
straight-curve $-1 56.506851405377361 0 7.5822829238888616 0 1 0 I I #
face $-1 $308 $309 $28 $-1 $310 reversed single #
loop $-1 $-1 $311 $120 #
plane-surface $-1 -56.506851405377361 0 0 1 0 0 0 0 -1 forward_v I I I I #
coedge $-1 $312 $208 $213 $313 reversed $121 $-1 #
coedge $-1 $314 $123 $315 $316 reversed $77 $-1 #
coedge $-1 $123 $314 $312 $317 forward $77 $-1 #
coedge $-1 $213 $212 $123 $206 forward $214 $-1 #
edge $-1 $318 -13.485804409130834 $319 -8.3964304211934628 $205 $320 forward 7 unknown #
coedge $-1 $125 $124 $311 $321 reversed $49 $-1 #
coedge $-1 $202 $322 $124 $209 reversed $121 $-1 #
edge $-1 $215 -56.506851405377361 $323 56.506851405377361 $208 $324 forward 7 unknown #
coedge $-1 $325 $326 $125 $211 forward $309 $-1 #
edge $-1 $216 -56.506851405377361 $327 56.506851405377361 $210 $328 forward 7 unknown #
coedge $-1 $205 $126 $326 $329 forward $214 $-1 #
coedge $-1 $126 $205 $202 $313 forward $214 $-1 #
loop $-1 $-1 $126 $308 #
vertex $-1 $127 $330 #
vertex $-1 $329 $331 #
straight-curve $-1 56.506851405377361 -10.941117415162148 2.9619064462022 0 -1 0 I I #
face $-1 $-1 $230 $29 $-1 $332 reversed single #
loop $-1 $-1 $333 $128 #
plane-surface $-1 0 0 7.5822829238888616 0 0 1 1 0 0 forward_v I I I I #
coedge $-1 $334 $335 $336 $337 reversed $129 $-1 #
coedge $-1 $338 $131 $133 $228 forward $81 $-1 #
coedge $-1 $131 $338 $334 $339 forward $81 $-1 #
coedge $-1 $336 $134 $131 $225 forward $230 $-1 #
edge $-1 $232 -11.644777688740419 $340 -3.7407626064899633 $224 $341 forward 7 unknown #
coedge $-1 $342 $343 $132 $227 forward $219 $-1 #
edge $-1 $344 23.386526811420858 $231 26.858754864355042 $226 $345 forward 7 unknown #
edge $-1 $232 -113.01370281075471 $344 -108.01523414869126 $133 $346 forward 7 unknown #
coedge $-1 $134 $336 $342 $347 reversed $230 $-1 #
loop $-1 $-1 $336 $218 #
vertex $-1 $347 $348 #
vertex $-1 $135 $349 #
straight-curve $-1 56.506851405377361 -19.337547836355611 81.893927224866374 0 0 -1 I I #
coedge $-1 $234 $234 $-1 $350 reversed $138 $-1 #
edge $-1 $351 0 $351 6.2831853071796004 $139 $352 forward 7 unknown #
vertex $-1 $142 $353 #
ellipse-curve $-1 54.770737378910276 -17.079257812855481 5.7844841786140195 0.71933980857756763 0 0.69465836192734942 0.69465836192734942 0 -0.71933980857756763 1 I I #
coedge $-1 $238 $238 $-1 $354 reversed $145 $-1 #
edge $-1 $355 0 $355 6.2831853071796004 $146 $356 forward 7 unknown #
vertex $-1 $149 $357 #
ellipse-curve $-1 54.770737378910276 -13.691822777605285 5.7844841786140195 0.71933980857756763 0 0.69465836192734942 0.69465836192734942 0 -0.71933980857756763 1 I I #
face $-1 $-1 $254 $32 $-1 $358 forward single #
loop $-1 $-1 $359 $150 #
plane-surface $-1 -56.506851405377361 0 0 1 0 0 0 0 -1 forward_v I I I I #
coedge $-1 $360 $361 $362 $363 reversed $151 $-1 #
coedge $-1 $364 $153 $155 $252 forward $95 $-1 #
coedge $-1 $153 $364 $360 $365 forward $95 $-1 #
coedge $-1 $362 $156 $153 $249 forward $254 $-1 #
edge $-1 $256 -6.0826968530973442 $366 0.40452353230226201 $248 $367 forward 7 unknown #
coedge $-1 $368 $369 $154 $251 forward $243 $-1 #
edge $-1 $370 -47.317669137429782 $255 -42.97278511145732 $250 $371 forward 7 unknown #
edge $-1 $256 -8.6897679355239834 $370 8.1518820400458524e-015 $155 $372 forward 7 unknown #
coedge $-1 $156 $362 $368 $373 forward $254 $-1 #
loop $-1 $-1 $362 $242 #
vertex $-1 $251 $374 #
vertex $-1 $157 $375 #
straight-curve $-1 -56.506851783901858 -8.9217835134948853 7.5822829238888616 1 0 0 I I #
coedge $-1 $258 $258 $-1 $376 reversed $160 $-1 #
edge $-1 $377 0 $377 6.2831853071796004 $161 $378 forward 7 unknown #
vertex $-1 $164 $379 #
ellipse-curve $-1 -52.744071529603659 -5.6781733207950822 5.4098409109026306 -0.50000000669873634 0 0.8660253999169214 1.2990380998753821 0 0.75000001004810457 1 I I #
face $-1 $-1 $380 $34 $-1 $381 reversed single #
loop $-1 $-1 $171 $165 #
plane-surface $-1 0 0 7.5822829238888616 0 0 1 1 0 0 forward_v I I I I #
coedge $-1 $382 $383 $384 $385 reversed $166 $-1 #
coedge $-1 $386 $168 $170 $272 forward $104 $-1 #
coedge $-1 $168 $386 $382 $387 forward $104 $-1 #
coedge $-1 $384 $171 $168 $269 forward $263 $-1 #
edge $-1 $275 4.858420562064806 $388 11.345640947464414 $268 $389 forward 7 unknown #
coedge $-1 $390 $391 $169 $271 forward $380 $-1 #
edge $-1 $392 -47.317669137429782 $274 -42.97278511145732 $270 $393 forward 7 unknown #
edge $-1 $275 -8.6897679355239834 $392 8.1518820400458524e-015 $170 $394 forward 7 unknown #
coedge $-1 $171 $384 $390 $395 forward $263 $-1 #
vertex $-1 $172 $396 #
vertex $-1 $172 $397 #
straight-curve $-1 -56.506851783901858 12.960451316829415 7.5822829238888616 1 0 0 I I #
coedge $-1 $277 $277 $-1 $398 reversed $175 $-1 #
edge $-1 $399 0 $399 6.2831853071796004 $176 $400 forward 7 unknown #
vertex $-1 $179 $401 #
ellipse-curve $-1 -52.744071529603659 16.204061509529218 5.4098409109026306 -0.50000000669873634 0 0.8660253999169214 1.2990380998753821 0 0.75000001004810457 1 I I #
face $-1 $-1 $195 $27 $-1 $402 reversed single #
loop $-1 $-1 $297 $180 #
plane-surface $-1 0 24.426921824292982 0 0 -1 0 0 0 -1 forward_v I I I I #
coedge $-1 $403 $295 $298 $404 forward $181 $-1 #
coedge $-1 $301 $183 $184 $289 reversed $113 $-1 #
coedge $-1 $295 $403 $183 $287 reversed $181 $-1 #
edge $-1 $302 -7.5822829238888616 $405 7.5822829238888616 $286 $406 forward 7 unknown #
coedge $-1 $185 $184 $403 $407 forward $73 $-1 #
edge $-1 $293 -56.506851405377361 $405 56.506851405377361 $285 $408 forward 7 unknown #
coedge $-1 $298 $297 $185 $291 reversed $282 $-1 #
edge $-1 $409 -56.506851405377361 $292 56.506851405377361 $290 $410 forward 7 unknown #
vertex $-1 $187 $411 #
vertex $-1 $304 $412 #
straight-curve $-1 56.506851405377361 0 -7.5822829238888616 0 -1 0 I I #
coedge $-1 $284 $286 $188 $296 reversed $181 $-1 #
edge $-1 $299 -24.426921824292982 $302 24.426921824292982 $295 $413 forward 7 unknown #
coedge $-1 $290 $189 $194 $305 forward $282 $-1 #
coedge $-1 $189 $290 $284 $404 reversed $282 $-1 #
vertex $-1 $190 $414 #
straight-curve $-1 0 24.426921824292982 7.5822829238888616 -1 0 0 I I #
coedge $-1 $191 $285 $193 $304 reversed $113 $-1 #
vertex $-1 $296 $415 #
straight-curve $-1 0 -24.426921824292982 7.5822829238888616 1 0 0 I I #
edge $-1 $196 -7.5822829238888616 $293 7.5822829238888616 $193 $416 forward 7 unknown #
edge $-1 $197 -7.5822829238888616 $292 7.5822829238888616 $194 $417 forward 7 unknown #
point $-1 56.506851405377361 -24.426921824292982 7.5822829238888616 #
point $-1 56.506851405377361 24.426921824292982 7.5822829238888616 #
face $-1 $-1 $214 $28 $-1 $418 reversed single #
loop $-1 $-1 $210 $199 #
plane-surface $-1 0 -24.426921824292982 0 0 1 0 0 0 1 forward_v I I I I #
coedge $-1 $419 $420 $207 $321 forward $200 $-1 #
coedge $-1 $322 $202 $204 $317 reversed $121 $-1 #
edge $-1 $319 -1.9248262933708022 $215 2.6162130619250674 $213 $421 forward 7 unknown #
coedge $-1 $204 $203 $422 $423 reversed $77 $-1 #
coedge $-1 $326 $325 $203 $316 forward $309 $-1 #
edge $-1 $424 -56.506851405377361 $318 56.506851405377361 $315 $425 forward 7 unknown #
edge $-1 $426 -56.506851405377361 $319 56.506851405377361 $312 $427 forward 7 unknown #
vertex $-1 $316 $428 #
vertex $-1 $206 $429 #
straight-curve $-1 56.506851405377361 -10.941117415162148 -1.5791329090936697 0 1 0 I I #
edge $-1 $327 -13.485804409130834 $323 -8.3964304211934628 $311 $430 forward 7 unknown #
coedge $-1 $208 $312 $419 $431 reversed $121 $-1 #
vertex $-1 $321 $432 #
straight-curve $-1 0 -19.337547836355611 2.9619064462022 -1 0 0 I I #
coedge $-1 $315 $210 $420 $433 forward $309 $-1 #
coedge $-1 $210 $315 $212 $329 reversed $309 $-1 #
vertex $-1 $433 $434 #
straight-curve $-1 0 -24.426921824292982 2.9619064462022 -1 0 0 I I #
edge $-1 $216 -2.9619064462022 $318 1.5791329090936697 $212 $435 forward 7 unknown #
point $-1 56.506851405377361 -19.337547836355611 2.9619064462022 #
point $-1 56.506851405377361 -24.426921824292982 2.9619064462022 #
plane-surface $-1 56.506851405377361 0 0 -1 0 0 0 0 1 forward_v I I I I #
coedge $-1 $343 $342 $335 $436 forward $219 $-1 #
coedge $-1 $335 $221 $223 $339 reversed $129 $-1 #
coedge $-1 $221 $334 $333 $436 reversed $129 $-1 #
coedge $-1 $229 $224 $221 $337 forward $230 $-1 #
edge $-1 $340 -77.907241791527198 $437 -74.31164430097752 $336 $438 forward 7 unknown #
coedge $-1 $223 $222 $343 $439 reversed $81 $-1 #
edge $-1 $440 108.01523414869126 $340 113.01370281075471 $334 $441 forward 7 unknown #
vertex $-1 $225 $442 #
straight-curve $-1 56.506851405377361 -7.6927701476151915 3.9866854333391899 0 1 0 I I #
coedge $-1 $333 $226 $229 $347 forward $219 $-1 #
coedge $-1 $226 $333 $338 $439 forward $219 $-1 #
vertex $-1 $227 $443 #
straight-curve $-1 29.648096541022319 -19.337547836355611 7.5822829238888687 1 0 0 I I #
straight-curve $-1 -21.999062264485786 -19.337547836355611 85.281940779869586 -0.69465836192734942 0 0.71933980857756763 I I #
edge $-1 $231 -19.337547836355611 $437 -11.433532754105155 $229 $444 forward 7 unknown #
point $-1 56.506851405377361 -19.337547836355611 7.5822829238888616 #
point $-1 56.506851405377361 -19.337547836355611 3.9866854333391757 #
edge $-1 $445 1 $445 0 $234 $-1 forward 7 unknown #
vertex $-1 $235 $446 #
ellipse-curve $-1 52.15543323951227 -17.079257812855481 3.2589143884358673 0.71933980857756763 0 0.69465836192734942 0.69465836192734942 0 -0.71933980857756763 1 I I #
point $-1 55.465395740837614 -17.079257812855481 5.065144370036438 #
edge $-1 $447 1 $447 0 $238 $-1 forward 7 unknown #
vertex $-1 $239 $448 #
ellipse-curve $-1 52.15543323951227 -13.691822777605285 3.2589143884358673 0.71933980857756763 0 0.69465836192734942 0.69465836192734942 0 -0.71933980857756763 1 I I #
point $-1 55.465395740837614 -13.691822777605285 5.065144370036438 #
plane-surface $-1 0 0 7.5822829238888616 0 0 1 1 0 0 forward_v I I I I #
coedge $-1 $369 $368 $361 $449 forward $243 $-1 #
coedge $-1 $361 $245 $247 $365 reversed $151 $-1 #
coedge $-1 $245 $360 $359 $449 reversed $151 $-1 #
coedge $-1 $253 $248 $245 $363 forward $254 $-1 #
edge $-1 $366 -7.5255601300719022 $450 -3.7852449707997948e-007 $362 $451 forward 7 unknown #
coedge $-1 $247 $246 $369 $452 reversed $95 $-1 #
edge $-1 $453 -8.1518820400458524e-015 $366 8.6897679355239834 $360 $454 forward 7 unknown #
vertex $-1 $249 $455 #
straight-curve $-1 -48.981291653829963 -2.8390866603975411 7.5822829238888616 0 1 0 I I #
coedge $-1 $359 $250 $253 $373 reversed $243 $-1 #
coedge $-1 $250 $359 $364 $452 forward $243 $-1 #
vertex $-1 $251 $456 #
straight-curve $-1 -56.506851405377361 -8.9217835134948853 50.555068035346181 0 0 1 I I #
straight-curve $-1 -56.506851405377354 -8.9217835134948853 3.2373988979164068 -0.8660253999169214 0 -0.50000000669873634 I I #
edge $-1 $450 2.4345631280952791 $255 8.9217835134948853 $368 $457 forward 7 unknown #
point $-1 -56.506851405377361 -8.9217835134948853 7.5822829238888616 #
point $-1 -48.981291653829956 -8.9217835134948853 7.5822829238888616 #
edge $-1 $458 1 $458 0 $258 $-1 forward 7 unknown #
vertex $-1 $259 $459 #
ellipse-curve $-1 -51.540802981118034 -5.6781733207950822 3.3257186870051538 -0.50000000669873634 0 0.8660253999169214 1.2990380998753821 0 0.75000001004810457 1 I I #
point $-1 -51.445033429728284 -5.6781733207950822 6.1598409209507405 #
loop $-1 $-1 $270 $262 #
plane-surface $-1 -56.506851405377361 0 0 1 0 0 0 0 -1 forward_v I I I I #
coedge $-1 $383 $265 $267 $387 reversed $166 $-1 #
coedge $-1 $265 $382 $460 $461 reversed $166 $-1 #
coedge $-1 $273 $268 $265 $385 forward $263 $-1 #
edge $-1 $388 -7.5255601300719022 $462 -3.7852449707997948e-007 $384 $463 forward 7 unknown #
coedge $-1 $267 $266 $391 $464 reversed $104 $-1 #
edge $-1 $465 -8.1518820400458524e-015 $388 8.6897679355239834 $382 $466 forward 7 unknown #
vertex $-1 $269 $467 #
straight-curve $-1 -48.981291653829963 8.1020307547646091 7.5822829238888616 0 1 0 I I #
coedge $-1 $460 $270 $273 $395 reversed $380 $-1 #
coedge $-1 $270 $460 $386 $464 forward $380 $-1 #
vertex $-1 $271 $468 #
straight-curve $-1 -56.506851405377361 12.960451316829415 50.555068035346181 0 0 1 I I #
straight-curve $-1 -56.506851405377354 12.960451316829415 3.2373988979164068 -0.8660253999169214 0 -0.50000000669873634 I I #
edge $-1 $462 -19.447671702229023 $274 -12.960451316829415 $390 $469 forward 7 unknown #
point $-1 -56.506851405377361 12.960451316829415 7.5822829238888616 #
point $-1 -48.981291653829956 12.960451316829415 7.5822829238888616 #
edge $-1 $470 1 $470 0 $277 $-1 forward 7 unknown #
vertex $-1 $278 $471 #
ellipse-curve $-1 -51.540802981118034 16.204061509529218 3.3257186870051538 -0.50000000669873634 0 0.8660253999169214 1.2990380998753821 0 0.75000001004810457 1 I I #
point $-1 -51.445033429728284 16.204061509529218 6.1598409209507405 #
plane-surface $-1 56.506851405377361 0 0 -1 0 0 0 0 1 forward_v I I I I #
coedge $-1 $286 $284 $288 $407 reversed $181 $-1 #
edge $-1 $299 -7.5822829238888616 $409 7.5822829238888616 $298 $472 forward 7 unknown #
vertex $-1 $407 $473 #
straight-curve $-1 -56.506851405377361 -24.426921824292982 0 0 0 -1 I I #
edge $-1 $405 -24.426921824292982 $409 24.426921824292982 $403 $474 forward 7 unknown #
straight-curve $-1 0 -24.426921824292982 -7.5822829238888616 -1 0 0 I I #
vertex $-1 $291 $475 #
straight-curve $-1 0 24.426921824292982 -7.5822829238888616 1 0 0 I I #
point $-1 56.506851405377361 24.426921824292982 -7.5822829238888616 #
point $-1 56.506851405377361 -24.426921824292982 -7.5822829238888616 #
straight-curve $-1 -56.506851405377361 0 7.5822829238888616 0 -1 0 I I #
point $-1 -56.506851405377361 24.426921824292982 7.5822829238888616 #
point $-1 -56.506851405377361 -24.426921824292982 7.5822829238888616 #
straight-curve $-1 56.506851405377361 -24.426921824292982 0 0 0 -1 I I #
straight-curve $-1 56.506851405377361 24.426921824292982 0 0 0 -1 I I #
plane-surface $-1 56.506851405377361 0 0 -1 0 0 0 0 1 forward_v I I I I #
coedge $-1 $422 $311 $322 $431 forward $200 $-1 #
coedge $-1 $311 $422 $325 $433 reversed $200 $-1 #
straight-curve $-1 56.506851405377361 -19.337547836355611 0.34569338427713259 0 0 1 I I #
coedge $-1 $420 $419 $314 $423 forward $200 $-1 #
edge $-1 $426 8.3964304211934628 $424 13.485804409130834 $422 $476 forward 7 unknown #
vertex $-1 $316 $477 #
straight-curve $-1 0 -24.426921824292982 -1.5791329090936697 1 0 0 I I #
vertex $-1 $423 $478 #
straight-curve $-1 0 -19.337547836355611 -1.5791329090936697 1 0 0 I I #
point $-1 56.506851405377361 -24.426921824292982 -1.5791329090936697 #
point $-1 56.506851405377361 -19.337547836355611 -1.5791329090936697 #
straight-curve $-1 -56.506851405377361 -10.941117415162148 2.9619064462022 0 1 0 I I #
edge $-1 $323 -2.6162130619250674 $426 1.9248262933708022 $419 $479 forward 7 unknown #
point $-1 -56.506851405377361 -19.337547836355611 2.9619064462022 #
edge $-1 $327 -2.9619064462022 $424 1.5791329090936697 $420 $480 forward 7 unknown #
point $-1 -56.506851405377361 -24.426921824292982 2.9619064462022 #
straight-curve $-1 56.506851405377361 -24.426921824292982 0 0 0 -1 I I #
edge $-1 $437 -26.858754864355042 $440 -23.386526811420858 $333 $481 forward 7 unknown #
vertex $-1 $436 $482 #
straight-curve $-1 56.506851405377361 -11.433532754105155 81.893927224866374 0 0 1 I I #
edge $-1 $440 3.7407626064899633 $344 11.644777688740419 $343 $483 forward 7 unknown #
vertex $-1 $439 $484 #
straight-curve $-1 -21.999062264485786 -11.433532754105155 85.281940779869586 0.69465836192734942 0 -0.71933980857756763 I I #
point $-1 56.506851405377361 -11.433532754105155 3.9866854333391757 #
point $-1 53.034623352443177 -19.337547836355611 7.5822829238888687 #
straight-curve $-1 56.506851405377361 0 7.5822829238888616 0 1 0 I I #
vertex $-1 $350 $485 #
point $-1 52.850091601439615 -17.079257812855481 2.5395745798583 #
vertex $-1 $354 $486 #
point $-1 52.850091601439615 -13.691822777605285 2.5395745798583 #
edge $-1 $450 42.97278511145732 $453 47.317669137429782 $359 $487 forward 7 unknown #
vertex $-1 $373 $488 #
straight-curve $-1 -56.506851783901858 -2.4345631280952791 7.5822829238888616 -1 0 0 I I #
edge $-1 $453 -0.40452353230226201 $370 6.0826968530973442 $369 $489 forward 7 unknown #
vertex $-1 $452 $490 #
straight-curve $-1 -56.506851405377354 -2.4345631280952791 3.2373988979164068 0.8660253999169214 0 0.50000000669873634 I I #
point $-1 -48.981291653829956 -2.4345631280952791 7.5822829238888616 #
point $-1 -56.506851405377361 -8.9217835134948853 3.2373988979164028 #
straight-curve $-1 -56.506851405377361 0 7.5822829238888616 0 -1 0 I I #
vertex $-1 $376 $491 #
point $-1 -50.241764881242652 -5.6781733207950822 4.075718697053258 #
coedge $-1 $391 $390 $383 $461 forward $380 $-1 #
edge $-1 $462 42.97278511145732 $465 47.317669137429782 $460 $492 forward 7 unknown #
vertex $-1 $395 $493 #
straight-curve $-1 -56.506851783901858 19.447671702229023 7.5822829238888616 -1 0 0 I I #
edge $-1 $465 -11.345640947464414 $392 -4.858420562064806 $391 $494 forward 7 unknown #
vertex $-1 $464 $495 #
straight-curve $-1 -56.506851405377354 19.447671702229023 3.2373988979164068 0.8660253999169214 0 0.50000000669873634 I I #
point $-1 -48.981291653829956 19.447671702229023 7.5822829238888616 #
point $-1 -56.506851405377361 12.960451316829415 3.2373988979164028 #
straight-curve $-1 -56.506851405377361 0 7.5822829238888616 0 -1 0 I I #
vertex $-1 $398 $496 #
point $-1 -50.241764881242652 16.204061509529218 4.075718697053258 #
straight-curve $-1 -56.506851405377361 24.426921824292982 0 0 0 -1 I I #
point $-1 -56.506851405377361 -24.426921824292982 -7.5822829238888616 #
straight-curve $-1 -56.506851405377361 0 -7.5822829238888616 0 1 0 I I #
point $-1 -56.506851405377361 24.426921824292982 -7.5822829238888616 #
straight-curve $-1 -56.506851405377361 -10.941117415162148 -1.5791329090936697 0 -1 0 I I #
point $-1 -56.506851405377361 -24.426921824292982 -1.5791329090936697 #
point $-1 -56.506851405377361 -19.337547836355611 -1.5791329090936697 #
straight-curve $-1 -56.506851405377361 -19.337547836355611 0.34569338427713259 0 0 -1 I I #
straight-curve $-1 -56.506851405377361 -24.426921824292982 0 0 0 -1 I I #
straight-curve $-1 29.648096541022319 -11.433532754105155 7.5822829238888687 -1 0 0 I I #
point $-1 56.506851405377361 -11.433532754105155 7.5822829238888616 #
straight-curve $-1 53.034623352443177 -7.6927701476151915 7.5822829238888687 0 -1 0 I I #
point $-1 53.034623352443177 -11.433532754105155 7.5822829238888687 #
point $-1 51.436093430934697 -17.079257812855481 2.5642560265085184 #
point $-1 51.436093430934697 -13.691822777605285 2.5642560265085184 #
straight-curve $-1 -56.506851405377361 -2.4345631280952791 50.555068035346181 0 0 -1 I I #
point $-1 -56.506851405377361 -2.4345631280952791 7.5822829238888616 #
straight-curve $-1 -56.506851405377361 -2.8390866603975411 3.2373988979164059 0 -1 0 I I #
point $-1 -56.506851405377361 -2.4345631280952791 3.2373988979164028 #
point $-1 -50.790802971069922 -5.6781733207950822 2.0266805871297708 #
straight-curve $-1 -56.506851405377361 19.447671702229023 50.555068035346181 0 0 -1 I I #
point $-1 -56.506851405377361 19.447671702229023 7.5822829238888616 #
straight-curve $-1 -56.506851405377361 8.1020307547646091 3.2373988979164059 0 -1 0 I I #
point $-1 -56.506851405377361 19.447671702229023 3.2373988979164028 #
point $-1 -50.790802971069922 16.204061509529218 2.0266805871297708 #
End-of-ACIS-data 