500 0 10 0           
7 Unknown 11 ACIS 5.0 NT 24 Thu Mar 25 20:22:57 1999 
-1 9.9999999999999995e-007 1e-010 
body $-1 $10 $-1 $11 #
body $-1 $12 $-1 $13 #
body $-1 $14 $-1 $15 #
body $-1 $16 $-1 $17 #
body $-1 $18 $-1 $19 #
body $-1 $20 $-1 $21 #
body $-1 $22 $-1 $23 #
body $-1 $24 $-1 $25 #
body $-1 $26 $-1 $27 #
body $-1 $28 $-1 $29 #
lump $-1 $-1 $30 $0 #
transform $-1 1 0 0 0 1 0 0 0 1 40.034180730613116 18.090459926325149 8.8444886310536894 1 rotate no_reflect no_shear #
lump $-1 $-1 $31 $1 #
transform $-1 1 0 0 0 1 0 0 0 1 40.034180730613116 18.090459926325149 8.8444886310536894 1 rotate no_reflect no_shear #
lump $-1 $-1 $32 $2 #
transform $-1 1 0 0 0 1 0 0 0 1 40.034180730613116 18.090459926325149 8.8444886310536894 1 rotate no_reflect no_shear #
lump $-1 $-1 $33 $3 #
transform $-1 1 0 0 0 1 0 0 0 1 40.034180730613116 18.090459926325149 8.8444886310536894 1 rotate no_reflect no_shear #
lump $-1 $-1 $34 $4 #
transform $-1 1 0 0 0 1 0 0 0 1 40.034180730613116 18.090459926325149 8.8444886310536894 1 rotate no_reflect no_shear #
lump $-1 $-1 $35 $5 #
transform $-1 1 0 0 0 1 0 0 0 1 40.034180730613116 18.090459926325149 8.8444886310536894 1 rotate no_reflect no_shear #
lump $-1 $-1 $36 $6 #
transform $-1 1 0 0 0 1 0 0 0 1 40.034180730613116 18.090459926325149 8.8444886310536894 1 rotate no_reflect no_shear #
lump $-1 $-1 $37 $7 #
transform $-1 1 0 0 0 1 0 0 0 1 40.034180730613116 18.090459926325149 8.8444886310536894 1 rotate no_reflect no_shear #
lump $-1 $-1 $38 $8 #
transform $-1 1 0 0 0 1 0 0 0 1 40.034180730613116 18.090459926325149 8.8444886310536894 1 rotate no_reflect no_shear #
lump $-1 $-1 $39 $9 #
transform $-1 1 0 0 0 1 0 0 0 1 40.034180730613116 18.090459926325149 8.8444886310536894 1 rotate no_reflect no_shear #
shell $-1 $-1 $-1 $40 $-1 $10 #
shell $-1 $-1 $-1 $41 $-1 $12 #
shell $-1 $-1 $-1 $42 $-1 $14 #
shell $-1 $-1 $-1 $43 $-1 $16 #
shell $-1 $-1 $-1 $44 $-1 $18 #
shell $-1 $-1 $-1 $45 $-1 $20 #
shell $-1 $-1 $-1 $46 $-1 $22 #
shell $-1 $-1 $-1 $47 $-1 $24 #
shell $-1 $-1 $-1 $48 $-1 $26 #
shell $-1 $-1 $-1 $49 $-1 $28 #
face $-1 $50 $51 $30 $-1 $52 forward single #
face $-1 $53 $54 $31 $-1 $55 forward single #
face $-1 $56 $57 $32 $-1 $58 forward single #
face $-1 $59 $60 $33 $-1 $61 reversed single #
face $-1 $62 $63 $34 $-1 $64 forward single #
face $-1 $65 $66 $35 $-1 $67 forward single #
face $-1 $68 $69 $36 $-1 $70 reversed single #
face $-1 $71 $72 $37 $-1 $73 forward single #
face $-1 $74 $75 $38 $-1 $76 forward single #
face $-1 $77 $78 $39 $-1 $79 forward single #
face $-1 $80 $81 $30 $-1 $82 reversed single #
loop $-1 $-1 $83 $40 #
plane-surface $-1 0 0 8.8444886310536894 0 0 1 1 0 0 forward_v I I I I #
face $-1 $84 $85 $31 $-1 $86 reversed single #
loop $-1 $-1 $87 $41 #
plane-surface $-1 -34.216770765616062 0 -5.3322276683474055 0 0 1 1 0 0 forward_v I I I I #
face $-1 $88 $89 $32 $-1 $90 reversed single #
loop $-1 $-1 $91 $42 #
plane-surface $-1 34.216770765616062 0 -5.3322276683474055 0 0 1 1 0 0 forward_v I I I I #
face $-1 $92 $93 $33 $-1 $94 reversed single #
loop $-1 $-1 $95 $43 #
plane-surface $-1 -28.399360800619007 -76.648753125308204 58.936837952589443 1 0 0 0 0.73135370988377701 -0.68199835119979291 forward_v I I I I #
face $-1 $96 $97 $34 $-1 $98 forward single #
loop $-1 $99 $100 $44 #
cone-surface $-1 -25.175898979891162 -14.813503866758293 5.4943204007612092 0 0.73135370988377701 -0.68199835119979291 1 0 0 1 I I 0 1 1 forward I I I I #
face $-1 $101 $102 $35 $-1 $103 forward single #
loop $-1 $104 $105 $45 #
cone-surface $-1 -20.340706248799393 -14.813503866758293 5.4943204007612092 0 0.73135370988377701 -0.68199835119979291 1 0 0 1 I I 0 1 1 forward I I I I #
face $-1 $106 $107 $36 $-1 $108 reversed single #
loop $-1 $-1 $109 $46 #
plane-surface $-1 -0.38932325412418578 31.354943185213681 91.090014556206 -1 0 0 0 0.54463904215088732 0.83867056331134215 forward_v I I I I #
face $-1 $110 $111 $37 $-1 $112 forward single #
loop $-1 $113 $114 $47 #
cone-surface $-1 -13.549338742186684 14.002764755351468 5.711250413477245 0 -0.54463904215088732 -0.83867056331134215 1.5 0 0 1 I I 0 1 1.5 forward I I I I #
face $-1 $115 $116 $38 $-1 $117 forward single #
loop $-1 $118 $119 $48 #
cone-surface $-1 -8.6143329341632473 14.002764755351468 5.711250413477245 0 -0.54463904215088732 -0.83867056331134215 1.5 0 0 1 I I 0 1 1.5 forward I I I I #
face $-1 $120 $121 $39 $-1 $122 forward single #
loop $-1 $123 $124 $49 #
cone-surface $-1 -3.6793271261398104 14.002764755351468 5.711250413477245 0 -0.54463904215088732 -0.83867056331134215 1.5 0 0 1 I I 0 1 1.5 forward I I I I #
face $-1 $125 $126 $30 $-1 $127 reversed single #
loop $-1 $-1 $128 $50 #
plane-surface $-1 0 0 -8.8444886310536894 0 0 1 1 0 0 forward_v I I I I #
coedge $-1 $129 $130 $131 $132 forward $51 $-1 #
face $-1 $133 $134 $31 $-1 $135 reversed single #
loop $-1 $-1 $136 $53 #
plane-surface $-1 -28.399360800619007 0 -7.0883581497005475 -1 0 0 0 0 1 forward_v I I I I #
coedge $-1 $137 $138 $139 $140 forward $54 $-1 #
face $-1 $141 $142 $32 $-1 $143 reversed single #
loop $-1 $-1 $144 $56 #
plane-surface $-1 28.399360800619007 0 -7.0883581497005475 1 0 0 0 0 -1 forward_v I I I I #
coedge $-1 $145 $146 $147 $148 reversed $57 $-1 #
face $-1 $149 $150 $33 $-1 $151 reversed single #
loop $-1 $-1 $152 $59 #
plane-surface $-1 -22.758302614345276 -18.09045992632516 4.3303474527641086 0 -0.73135370988377701 0.68199835119979291 1 0 0 forward_v I I I I #
coedge $-1 $153 $154 $155 $156 reversed $60 $-1 #
face $-1 $-1 $157 $34 $-1 $158 forward single #
loop $-1 $159 $160 $62 #
cone-surface $-1 -25.175898979891162 -13.275623275968412 4.0602235840136238 0 0.73135370988377701 -0.68199835119979291 0.5 0 0 1 I I -0.70710678118654746 0.70710678118654746 0.5 forward I I I I #
loop $-1 $-1 $161 $44 #
coedge $-1 $100 $100 $162 $163 reversed $63 $-1 #
face $-1 $-1 $164 $35 $-1 $165 forward single #
loop $-1 $166 $167 $65 #
cone-surface $-1 -20.340706248799393 -13.275623275968412 4.0602235840136238 0 0.73135370988377701 -0.68199835119979291 0.5 0 0 1 I I -0.70710678118654746 0.70710678118654746 0.5 forward I I I I #
loop $-1 $-1 $168 $45 #
coedge $-1 $105 $105 $169 $170 reversed $66 $-1 #
face $-1 $171 $172 $36 $-1 $173 reversed single #
loop $-1 $-1 $174 $68 #
plane-surface $-1 -8.6143329341632473 -12.253412507619597 23.939036746103241 0 0.54463904215088732 0.83867056331134215 1 0 0 forward_v I I I I #
coedge $-1 $175 $176 $177 $178 reversed $69 $-1 #
face $-1 $-1 $179 $37 $-1 $180 forward single #
loop $-1 $181 $182 $71 #
cone-surface $-1 -13.549338742186684 13.056743842732725 4.2545059822352673 0 -0.54463904215088732 -0.83867056331134215 0.75 0 0 1 I I -0.70710678118654757 0.70710678118654757 0.75 forward I I I I #
loop $-1 $-1 $183 $47 #
coedge $-1 $114 $114 $184 $185 reversed $72 $-1 #
face $-1 $-1 $186 $38 $-1 $187 forward single #
loop $-1 $188 $189 $74 #
cone-surface $-1 -8.6143329341632473 13.056743842732725 4.2545059822352673 0 -0.54463904215088732 -0.83867056331134215 0.75 0 0 1 I I -0.70710678118654757 0.70710678118654757 0.75 forward I I I I #
loop $-1 $-1 $190 $48 #
coedge $-1 $119 $119 $191 $192 reversed $75 $-1 #
face $-1 $-1 $193 $39 $-1 $194 forward single #
loop $-1 $195 $196 $77 #
cone-surface $-1 -3.6793271261398104 13.056743842732725 4.2545059822352673 0 -0.54463904215088732 -0.83867056331134215 0.75 0 0 1 I I -0.70710678118654757 0.70710678118654757 0.75 forward I I I I #
loop $-1 $-1 $197 $49 #
coedge $-1 $124 $124 $198 $199 reversed $78 $-1 #
face $-1 $200 $201 $30 $-1 $202 reversed single #
loop $-1 $-1 $203 $80 #
plane-surface $-1 0 -18.090459926325149 0 0 1 0 0 0 1 forward_v I I I I #
coedge $-1 $204 $205 $206 $207 forward $81 $-1 #
coedge $-1 $208 $83 $209 $210 forward $51 $-1 #
coedge $-1 $83 $208 $211 $212 forward $51 $-1 #
coedge $-1 $213 $214 $83 $132 reversed $215 $-1 #
edge $-1 $216 -18.090459926325149 $217 18.090459926325149 $131 $218 forward 7 unknown #
face $-1 $219 $220 $31 $-1 $221 reversed single #
loop $-1 $-1 $222 $84 #
plane-surface $-1 0 0 -8.8444886310536894 0 0 1 1 0 0 forward_v I I I I #
coedge $-1 $223 $139 $224 $225 reversed $85 $-1 #
coedge $-1 $226 $87 $227 $228 reversed $54 $-1 #
coedge $-1 $87 $226 $229 $230 reversed $54 $-1 #
coedge $-1 $136 $231 $87 $140 reversed $85 $-1 #
edge $-1 $232 -18.090459926325149 $233 18.090459926325149 $139 $234 forward 7 unknown #
face $-1 $235 $236 $32 $-1 $237 reversed single #
loop $-1 $-1 $238 $88 #
plane-surface $-1 0 -18.090459926325149 0 0 1 0 0 0 1 forward_v I I I I #
coedge $-1 $239 $240 $241 $242 reversed $89 $-1 #
coedge $-1 $243 $91 $244 $245 reversed $57 $-1 #
coedge $-1 $91 $243 $238 $246 reversed $57 $-1 #
coedge $-1 $247 $248 $91 $148 forward $249 $-1 #
edge $-1 $250 -18.090459926325149 $251 18.090459926325149 $147 $252 forward 7 unknown #
face $-1 $253 $254 $33 $-1 $255 forward single #
loop $-1 $-1 $256 $92 #
plane-surface $-1 -17.117244428071544 -76.648753125308204 58.936837952589443 -1 0 0 0 -0.73135370988377701 0.68199835119979291 forward_v I I I I #
coedge $-1 $257 $258 $259 $260 reversed $93 $-1 #
coedge $-1 $154 $95 $261 $262 reversed $60 $-1 #
coedge $-1 $95 $153 $257 $263 reversed $60 $-1 #
coedge $-1 $259 $264 $95 $156 forward $265 $-1 #
edge $-1 $266 20.623930345241032 $267 25.138071523530602 $155 $268 forward 7 unknown #
loop $-1 $-1 $162 $96 #
plane-surface $-1 -22.758302614345276 -18.09045992632516 4.3303474527641086 0 -0.73135370988377701 0.68199835119979291 1 0 0 forward_v I I I I #
loop $-1 $-1 $269 $62 #
coedge $-1 $160 $160 $161 $270 reversed $97 $-1 #
coedge $-1 $161 $161 $160 $270 forward $99 $-1 #
coedge $-1 $162 $162 $100 $163 forward $157 $-1 #
edge $-1 $271 3.8655439540835408e-016 $271 6.2831853071796004 $162 $272 forward 7 unknown #
loop $-1 $-1 $169 $101 #
plane-surface $-1 -22.758302614345276 -18.09045992632516 4.3303474527641086 0 -0.73135370988377701 0.68199835119979291 1 0 0 forward_v I I I I #
loop $-1 $-1 $273 $65 #
coedge $-1 $167 $167 $168 $274 reversed $102 $-1 #
coedge $-1 $168 $168 $167 $274 forward $104 $-1 #
coedge $-1 $169 $169 $105 $170 forward $164 $-1 #
edge $-1 $275 3.8655439540835408e-016 $275 6.2831853071796004 $169 $276 forward 7 unknown #
face $-1 $277 $278 $36 $-1 $279 reversed single #
loop $-1 $-1 $280 $106 #
plane-surface $-1 -16.839342614202309 31.354943185213681 91.090014556206 1 0 0 0 -0.54463904215088732 -0.83867056331134215 forward_v I I I I #
coedge $-1 $281 $282 $283 $284 reversed $107 $-1 #
coedge $-1 $176 $109 $285 $286 reversed $69 $-1 #
coedge $-1 $109 $175 $281 $287 reversed $69 $-1 #
coedge $-1 $283 $288 $109 $178 forward $278 $-1 #
edge $-1 $289 36.700518647049307 $290 41.311512064685239 $177 $291 forward 7 unknown #
loop $-1 $-1 $184 $110 #
plane-surface $-1 -8.6143329341632473 -12.253412507619597 23.939036746103241 0 0.54463904215088732 0.83867056331134215 1 0 0 forward_v I I I I #
loop $-1 $-1 $292 $71 #
coedge $-1 $182 $182 $183 $293 reversed $111 $-1 #
coedge $-1 $183 $183 $182 $293 forward $113 $-1 #
coedge $-1 $184 $184 $114 $185 forward $179 $-1 #
edge $-1 $294 -4.253397887712257e-016 $294 6.2831853071796004 $184 $295 forward 7 unknown #
loop $-1 $-1 $191 $115 #
plane-surface $-1 -8.6143329341632473 -12.253412507619597 23.939036746103241 0 0.54463904215088732 0.83867056331134215 1 0 0 forward_v I I I I #
loop $-1 $-1 $296 $74 #
coedge $-1 $189 $189 $190 $297 reversed $116 $-1 #
coedge $-1 $190 $190 $189 $297 forward $118 $-1 #
coedge $-1 $191 $191 $119 $192 forward $186 $-1 #
edge $-1 $298 -4.253397887712257e-016 $298 6.2831853071796004 $191 $299 forward 7 unknown #
loop $-1 $-1 $198 $120 #
plane-surface $-1 -8.6143329341632473 -12.253412507619597 23.939036746103241 0 0.54463904215088732 0.83867056331134215 1 0 0 forward_v I I I I #
loop $-1 $-1 $300 $77 #
coedge $-1 $196 $196 $197 $301 reversed $121 $-1 #
coedge $-1 $197 $197 $196 $301 forward $123 $-1 #
coedge $-1 $198 $198 $124 $199 forward $193 $-1 #
edge $-1 $302 -4.253397887712257e-016 $302 6.2831853071796004 $198 $303 forward 7 unknown #
face $-1 $304 $305 $30 $-1 $306 reversed single #
loop $-1 $-1 $307 $125 #
plane-surface $-1 -40.034180730613116 0 0 1 0 0 0 0 -1 forward_v I I I I #
coedge $-1 $308 $211 $309 $310 forward $126 $-1 #
coedge $-1 $311 $128 $308 $312 forward $81 $-1 #
coedge $-1 $128 $311 $313 $314 forward $81 $-1 #
coedge $-1 $214 $213 $128 $207 reversed $215 $-1 #
edge $-1 $315 -18.090459926325149 $316 18.090459926325149 $206 $317 forward 7 unknown #
coedge $-1 $130 $129 $318 $319 forward $51 $-1 #
coedge $-1 $320 $321 $129 $210 reversed $305 $-1 #
edge $-1 $217 -40.034180730613116 $322 40.034180730613116 $209 $323 forward 7 unknown #
coedge $-1 $203 $324 $130 $212 reversed $126 $-1 #
edge $-1 $325 -40.034180730613116 $216 40.034180730613116 $211 $326 forward 7 unknown #
coedge $-1 $206 $131 $324 $327 forward $215 $-1 #
coedge $-1 $131 $206 $320 $328 reversed $215 $-1 #
loop $-1 $-1 $213 $304 #
vertex $-1 $132 $329 #
vertex $-1 $132 $330 #
straight-curve $-1 40.034180730613116 0 8.8444886310536894 0 1 0 I I #
face $-1 $331 $332 $31 $-1 $333 reversed single #
loop $-1 $-1 $224 $133 #
plane-surface $-1 0 -18.090459926325149 0 0 1 0 0 0 1 forward_v I I I I #
coedge $-1 $334 $335 $223 $336 forward $134 $-1 #
coedge $-1 $231 $136 $222 $336 reversed $85 $-1 #
coedge $-1 $229 $337 $136 $225 forward $220 $-1 #
edge $-1 $338 -5.3003095562034162 $232 -1.7880485934971317 $224 $339 forward 7 unknown #
coedge $-1 $138 $137 $340 $341 reversed $54 $-1 #
coedge $-1 $342 $343 $137 $228 forward $344 $-1 #
edge $-1 $345 -22.925795347805085 $233 -11.290975417810976 $227 $346 forward 7 unknown #
coedge $-1 $347 $224 $138 $230 forward $220 $-1 #
edge $-1 $232 11.290975417810976 $348 22.925795347805085 $229 $349 forward 7 unknown #
coedge $-1 $139 $223 $342 $350 reversed $85 $-1 #
vertex $-1 $230 $351 #
vertex $-1 $228 $352 #
straight-curve $-1 -28.399360800619007 0 -5.3322276683474055 0 1 0 I I #
face $-1 $353 $354 $32 $-1 $355 reversed single #
loop $-1 $-1 $356 $141 #
plane-surface $-1 0 0 -8.8444886310536894 0 0 1 1 0 0 forward_v I I I I #
coedge $-1 $357 $358 $146 $246 forward $142 $-1 #
coedge $-1 $359 $144 $356 $360 reversed $89 $-1 #
coedge $-1 $144 $359 $243 $361 reversed $89 $-1 #
coedge $-1 $244 $362 $144 $242 forward $354 $-1 #
edge $-1 $363 -5.3003095562034162 $364 -1.7880485934971317 $241 $365 forward 7 unknown #
coedge $-1 $146 $145 $240 $361 forward $57 $-1 #
coedge $-1 $366 $241 $145 $245 forward $354 $-1 #
edge $-1 $364 11.290975417810976 $250 22.925795347805085 $244 $367 forward 7 unknown #
edge $-1 $251 -22.925795347805085 $368 -11.290975417810976 $238 $369 forward 7 unknown #
coedge $-1 $370 $147 $358 $371 forward $249 $-1 #
coedge $-1 $147 $370 $366 $372 reversed $249 $-1 #
loop $-1 $-1 $147 $353 #
vertex $-1 $372 $373 #
vertex $-1 $371 $374 #
straight-curve $-1 40.034180730613116 0 -5.3322276683474055 0 -1 0 I I #
face $-1 $-1 $265 $33 $-1 $375 reversed single #
loop $-1 $-1 $376 $149 #
plane-surface $-1 0 0 8.8444886310536894 0 0 1 1 0 0 forward_v I I I I #
coedge $-1 $377 $378 $379 $380 reversed $150 $-1 #
coedge $-1 $381 $152 $154 $263 forward $93 $-1 #
coedge $-1 $152 $381 $377 $382 forward $93 $-1 #
coedge $-1 $379 $155 $152 $260 forward $265 $-1 #
edge $-1 $267 -17.020209493446369 $383 -5.7380931208989061 $259 $384 forward 7 unknown #
coedge $-1 $385 $386 $153 $262 forward $254 $-1 #
edge $-1 $387 -24.443421283766671 $266 -20.233916636328953 $261 $388 forward 7 unknown #
edge $-1 $267 1.5713278183403837e-014 $387 6.1723091266016059 $154 $389 forward 7 unknown #
coedge $-1 $155 $379 $385 $390 reversed $265 $-1 #
loop $-1 $-1 $379 $253 #
vertex $-1 $390 $391 #
vertex $-1 $156 $392 #
straight-curve $-1 -28.399360800619007 -18.090459926325149 29.468418976294721 0 0 -1 I I #
coedge $-1 $269 $269 $-1 $393 reversed $159 $-1 #
edge $-1 $394 0 $394 6.2831853071796004 $160 $395 forward 7 unknown #
vertex $-1 $163 $396 #
ellipse-curve $-1 -25.175898979891162 -15.98570760260629 6.5874180419089035 0 -0.73135370988377701 0.68199835119979291 1 0 0 1 I I #
coedge $-1 $273 $273 $-1 $397 reversed $166 $-1 #
edge $-1 $398 0 $398 6.2831853071796004 $167 $399 forward 7 unknown #
vertex $-1 $170 $400 #
ellipse-curve $-1 -20.340706248799393 -15.98570760260629 6.5874180419089035 0 -0.73135370988377701 0.68199835119979291 1 0 0 1 I I #
face $-1 $-1 $401 $36 $-1 $402 forward single #
loop $-1 $-1 $177 $171 #
plane-surface $-1 0 18.090459926325149 0 0 -1 0 0 0 -1 forward_v I I I I #
coedge $-1 $403 $404 $405 $406 reversed $172 $-1 #
coedge $-1 $407 $174 $176 $287 forward $107 $-1 #
coedge $-1 $174 $407 $403 $408 forward $107 $-1 #
coedge $-1 $405 $177 $174 $284 forward $278 $-1 #
edge $-1 $290 -3.9178432129574379 $409 12.532176147120685 $283 $410 forward 7 unknown #
coedge $-1 $411 $412 $175 $286 forward $401 $-1 #
edge $-1 $413 -4.6873187462178887 $289 2.4129883337183085 $285 $414 forward 7 unknown #
edge $-1 $290 -36.180919852650298 $413 -27.714774275891415 $176 $415 forward 7 unknown #
coedge $-1 $177 $405 $411 $416 reversed $278 $-1 #
vertex $-1 $416 $417 #
vertex $-1 $178 $418 #
straight-curve $-1 -0.38932325412418578 18.090459926325149 45.545007278103 0 0 -1 I I #
coedge $-1 $292 $292 $-1 $419 reversed $181 $-1 #
edge $-1 $420 0 $420 6.2831853071796004 $182 $421 forward 7 unknown #
vertex $-1 $185 $422 #
ellipse-curve $-1 -13.549338742186684 14.540306386357049 6.5389919222357253 0 0.54463904215088732 0.83867056331134215 1.5 0 0 1 I I #
coedge $-1 $296 $296 $-1 $423 reversed $188 $-1 #
edge $-1 $424 0 $424 6.2831853071796004 $189 $425 forward 7 unknown #
vertex $-1 $192 $426 #
ellipse-curve $-1 -8.6143329341632473 14.540306386357049 6.5389919222357253 0 0.54463904215088732 0.83867056331134215 1.5 0 0 1 I I #
coedge $-1 $300 $300 $-1 $427 reversed $195 $-1 #
edge $-1 $428 0 $428 6.2831853071796004 $196 $429 forward 7 unknown #
vertex $-1 $199 $430 #
ellipse-curve $-1 -3.6793271261398104 14.540306386357049 6.5389919222357253 0 0.54463904215088732 0.83867056331134215 1.5 0 0 1 I I #
face $-1 $-1 $215 $30 $-1 $431 reversed single #
loop $-1 $-1 $320 $200 #
plane-surface $-1 0 18.090459926325149 0 0 -1 0 0 0 -1 forward_v I I I I #
coedge $-1 $432 $318 $321 $433 forward $201 $-1 #
coedge $-1 $324 $203 $204 $312 reversed $126 $-1 #
coedge $-1 $318 $432 $203 $310 reversed $201 $-1 #
edge $-1 $325 -8.8444886310536894 $434 8.8444886310536894 $309 $435 forward 7 unknown #
coedge $-1 $205 $204 $432 $436 forward $81 $-1 #
edge $-1 $316 -40.034180730613116 $434 40.034180730613116 $308 $437 forward 7 unknown #
coedge $-1 $321 $320 $205 $314 reversed $305 $-1 #
edge $-1 $438 -40.034180730613116 $315 40.034180730613116 $313 $439 forward 7 unknown #
vertex $-1 $207 $440 #
vertex $-1 $327 $441 #
straight-curve $-1 40.034180730613116 0 -8.8444886310536894 0 -1 0 I I #
coedge $-1 $307 $309 $208 $319 reversed $201 $-1 #
edge $-1 $322 -18.090459926325149 $325 18.090459926325149 $318 $442 forward 7 unknown #
coedge $-1 $313 $209 $214 $328 forward $305 $-1 #
coedge $-1 $209 $313 $307 $433 reversed $305 $-1 #
vertex $-1 $210 $443 #
straight-curve $-1 0 18.090459926325149 8.8444886310536894 -1 0 0 I I #
coedge $-1 $211 $308 $213 $327 reversed $126 $-1 #
vertex $-1 $319 $444 #
straight-curve $-1 0 -18.090459926325149 8.8444886310536894 1 0 0 I I #
edge $-1 $216 -8.8444886310536894 $316 8.8444886310536894 $213 $445 forward 7 unknown #
edge $-1 $217 -8.8444886310536894 $315 8.8444886310536894 $214 $446 forward 7 unknown #
point $-1 40.034180730613116 -18.090459926325149 8.8444886310536894 #
point $-1 40.034180730613116 18.090459926325149 8.8444886310536894 #
face $-1 $-1 $344 $31 $-1 $447 reversed single #
loop $-1 $-1 $340 $219 #
plane-surface $-1 -40.034180730613116 0 0 1 0 0 0 0 -1 forward_v I I I I #
coedge $-1 $448 $222 $337 $449 forward $134 $-1 #
coedge $-1 $222 $448 $450 $451 forward $134 $-1 #
edge $-1 $452 -18.090459926325149 $338 18.090459926325149 $222 $453 forward 7 unknown #
coedge $-1 $224 $347 $334 $449 reversed $220 $-1 #
vertex $-1 $449 $454 #
straight-curve $-1 -28.399360800619007 -18.090459926325149 -3.5441790748502737 0 0 1 I I #
coedge $-1 $455 $456 $226 $341 forward $332 $-1 #
edge $-1 $348 -18.090459926325149 $345 18.090459926325149 $340 $457 forward 7 unknown #
coedge $-1 $450 $227 $231 $350 forward $344 $-1 #
coedge $-1 $227 $450 $455 $458 reversed $344 $-1 #
loop $-1 $-1 $342 $331 #
vertex $-1 $458 $459 #
straight-curve $-1 -17.108385382808031 18.090459926325149 -5.3322276683474055 1 0 0 I I #
coedge $-1 $337 $229 $456 $460 forward $220 $-1 #
vertex $-1 $460 $461 #
straight-curve $-1 -17.108385382808031 -18.090459926325149 -5.3322276683474055 -1 0 0 I I #
edge $-1 $233 1.7880485934971317 $452 5.3003095562034162 $342 $462 forward 7 unknown #
point $-1 -28.399360800619007 -18.090459926325149 -5.3322276683474055 #
point $-1 -28.399360800619007 18.090459926325149 -5.3322276683474055 #
face $-1 $-1 $249 $32 $-1 $463 reversed single #
loop $-1 $-1 $244 $235 #
plane-surface $-1 0 18.090459926325149 0 0 -1 0 0 0 -1 forward_v I I I I #
coedge $-1 $464 $465 $239 $360 forward $236 $-1 #
coedge $-1 $466 $238 $359 $467 forward $142 $-1 #
coedge $-1 $238 $466 $247 $371 reversed $142 $-1 #
coedge $-1 $240 $239 $357 $467 reversed $89 $-1 #
edge $-1 $468 -18.090459926325149 $363 18.090459926325149 $356 $469 forward 7 unknown #
edge $-1 $364 -18.090459926325149 $368 18.090459926325149 $240 $470 forward 7 unknown #
coedge $-1 $241 $366 $464 $471 reversed $354 $-1 #
vertex $-1 $471 $472 #
vertex $-1 $245 $473 #
straight-curve $-1 28.399360800619007 18.090459926325149 -3.5441790748502737 0 0 1 I I #
coedge $-1 $362 $244 $248 $372 forward $354 $-1 #
straight-curve $-1 17.108385382808031 18.090459926325149 -5.3322276683474055 1 0 0 I I #
vertex $-1 $246 $474 #
straight-curve $-1 17.108385382808031 -18.090459926325149 -5.3322276683474055 -1 0 0 I I #
coedge $-1 $248 $247 $475 $476 reversed $249 $-1 #
edge $-1 $251 5.3322276683474055 $477 8.8444886310536894 $247 $478 forward 7 unknown #
edge $-1 $250 5.3322276683474055 $479 8.8444886310536894 $248 $480 forward 7 unknown #
point $-1 40.034180730613116 18.090459926325149 -5.3322276683474055 #
point $-1 40.034180730613116 -18.090459926325149 -5.3322276683474055 #
plane-surface $-1 0 -18.090459926325149 0 0 1 0 0 0 1 forward_v I I I I #
coedge $-1 $386 $385 $378 $481 forward $254 $-1 #
coedge $-1 $378 $256 $258 $382 reversed $150 $-1 #
coedge $-1 $256 $377 $376 $481 reversed $150 $-1 #
coedge $-1 $264 $259 $256 $380 forward $265 $-1 #
edge $-1 $383 -25.138071523530602 $482 -20.623930345241032 $379 $483 forward 7 unknown #
coedge $-1 $258 $257 $386 $484 reversed $93 $-1 #
edge $-1 $485 -6.1723091266016059 $383 -1.5713278183403837e-014 $377 $486 forward 7 unknown #
vertex $-1 $260 $487 #
straight-curve $-1 -11.379151307172638 -18.090459926325149 4.3303474527641175 1 0 0 I I #
coedge $-1 $376 $261 $264 $390 forward $254 $-1 #
coedge $-1 $261 $376 $381 $484 forward $254 $-1 #
vertex $-1 $262 $488 #
straight-curve $-1 -28.399360800619007 -38.324376562654102 8.8444886310536894 0 -1 0 I I #
straight-curve $-1 -28.399360800619007 -18.09045992632516 4.3303474527641086 0 0.68199835119979291 0.73135370988377701 I I #
edge $-1 $266 -28.399360800619007 $482 -17.117244428071544 $264 $489 forward 7 unknown #
point $-1 -28.399360800619007 -18.090459926325149 8.8444886310536894 #
point $-1 -28.399360800619007 -18.090459926325149 4.3303474527641201 #
edge $-1 $490 1 $490 0 $269 $-1 forward 7 unknown #
vertex $-1 $270 $491 #
ellipse-curve $-1 -25.175898979891162 -13.641300130910301 4.4012227596135203 0 -0.73135370988377701 0.68199835119979291 1 0 0 1 I I #
point $-1 -24.175898979891162 -15.985707602606285 6.587418041908899 #
edge $-1 $492 1 $492 0 $273 $-1 forward 7 unknown #
vertex $-1 $274 $493 #
ellipse-curve $-1 -20.340706248799393 -13.641300130910301 4.4012227596135203 0 -0.73135370988377701 0.68199835119979291 1 0 0 1 I I #
point $-1 -19.340706248799393 -15.985707602606285 6.587418041908899 #
loop $-1 $-1 $285 $277 #
plane-surface $-1 0 0 8.8444886310536894 0 0 1 1 0 0 forward_v I I I I #
coedge $-1 $404 $280 $282 $408 reversed $172 $-1 #
coedge $-1 $280 $403 $494 $495 reversed $172 $-1 #
coedge $-1 $288 $283 $280 $406 forward $278 $-1 #
edge $-1 $409 -41.311512064685239 $496 -36.700518647049307 $405 $497 forward 7 unknown #
coedge $-1 $282 $281 $412 $498 reversed $107 $-1 #
edge $-1 $499 27.714774275891415 $409 36.180919852650298 $403 $500 forward 7 unknown #
vertex $-1 $284 $501 #
straight-curve $-1 -4.3071664670816237 18.090459926325149 4.233495213417763 -1 0 0 I I #
coedge $-1 $494 $285 $288 $416 forward $401 $-1 #
coedge $-1 $285 $494 $407 $498 forward $401 $-1 #
vertex $-1 $286 $502 #
straight-curve $-1 -0.38932325412418578 15.677471592606841 8.8444886310536859 0 1 0 I I #
straight-curve $-1 -0.38932325412418578 -12.253412507619597 23.939036746103241 0 -0.83867056331134215 0.54463904215088732 I I #
edge $-1 $289 0.38932325412418578 $496 16.839342614202309 $288 $503 forward 7 unknown #
point $-1 -0.38932325412418578 18.090459926325149 8.8444886310536894 #
point $-1 -0.38932325412418578 18.090459926325153 4.2334952134177612 #
edge $-1 $504 1 $504 0 $292 $-1 forward 7 unknown #
vertex $-1 $293 $505 #
ellipse-curve $-1 -13.549338742186684 13.46522312434589 4.8835089047187736 0 0.54463904215088732 0.83867056331134215 1.5 0 0 1 I I #
point $-1 -12.049338742186684 14.540306386357042 6.5389919222357156 #
edge $-1 $506 1 $506 0 $296 $-1 forward 7 unknown #
vertex $-1 $297 $507 #
ellipse-curve $-1 -8.6143329341632473 13.46522312434589 4.8835089047187736 0 0.54463904215088732 0.83867056331134215 1.5 0 0 1 I I #
point $-1 -7.1143329341632473 14.540306386357042 6.5389919222357156 #
edge $-1 $508 1 $508 0 $300 $-1 forward 7 unknown #
vertex $-1 $301 $509 #
ellipse-curve $-1 -3.6793271261398104 13.46522312434589 4.8835089047187736 0 0.54463904215088732 0.83867056331134215 1.5 0 0 1 I I #
point $-1 -2.1793271261398104 14.540306386357042 6.5389919222357156 #
plane-surface $-1 40.034180730613116 0 0 -1 0 0 0 0 1 forward_v I I I I #
coedge $-1 $309 $307 $311 $436 reversed $201 $-1 #
edge $-1 $322 -8.8444886310536894 $438 8.8444886310536894 $321 $510 forward 7 unknown #
vertex $-1 $436 $511 #
straight-curve $-1 -40.034180730613116 -18.090459926325149 0 0 0 -1 I I #
edge $-1 $434 -18.090459926325149 $438 18.090459926325149 $432 $512 forward 7 unknown #
straight-curve $-1 0 -18.090459926325149 -8.8444886310536894 -1 0 0 I I #
vertex $-1 $314 $513 #
straight-curve $-1 0 18.090459926325149 -8.8444886310536894 1 0 0 I I #
point $-1 40.034180730613116 18.090459926325149 -8.8444886310536894 #
point $-1 40.034180730613116 -18.090459926325149 -8.8444886310536894 #
straight-curve $-1 -40.034180730613116 0 8.8444886310536894 0 -1 0 I I #
point $-1 -40.034180730613116 18.090459926325149 8.8444886310536894 #
point $-1 -40.034180730613116 -18.090459926325149 8.8444886310536894 #
straight-curve $-1 40.034180730613116 -18.090459926325149 0 0 0 -1 I I #
straight-curve $-1 40.034180730613116 18.090459926325149 0 0 0 -1 I I #
plane-surface $-1 0 18.090459926325149 0 0 -1 0 0 0 -1 forward_v I I I I #
coedge $-1 $335 $334 $514 $515 forward $134 $-1 #
edge $-1 $338 28.399360800619007 $516 40.034180730613116 $337 $517 forward 7 unknown #
coedge $-1 $343 $342 $335 $451 reversed $344 $-1 #
edge $-1 $518 -40.034180730613116 $452 -28.399360800619007 $450 $519 forward 7 unknown #
vertex $-1 $350 $520 #
straight-curve $-1 -28.399360800619007 0 -8.8444886310536894 0 -1 0 I I #
point $-1 -28.399360800619007 -18.090459926325149 -8.8444886310536894 #
coedge $-1 $514 $340 $343 $458 forward $332 $-1 #
coedge $-1 $340 $514 $347 $460 reversed $332 $-1 #
straight-curve $-1 -40.034180730613116 0 -5.3322276683474055 0 1 0 I I #
edge $-1 $345 5.3322276683474055 $518 8.8444886310536894 $343 $521 forward 7 unknown #
point $-1 -40.034180730613116 18.090459926325149 -5.3322276683474055 #
edge $-1 $348 5.3322276683474055 $516 8.8444886310536894 $456 $522 forward 7 unknown #
point $-1 -40.034180730613116 -18.090459926325149 -5.3322276683474055 #
straight-curve $-1 -28.399360800619007 18.090459926325149 -3.5441790748502737 0 0 -1 I I #
plane-surface $-1 40.034180730613116 0 0 -1 0 0 0 0 1 forward_v I I I I #
coedge $-1 $475 $356 $362 $471 forward $236 $-1 #
coedge $-1 $356 $475 $466 $523 forward $236 $-1 #
coedge $-1 $358 $357 $465 $523 reversed $142 $-1 #
edge $-1 $368 1.7880485934971317 $468 5.3003095562034162 $357 $524 forward 7 unknown #
vertex $-1 $360 $525 #
straight-curve $-1 28.399360800619007 0 -8.8444886310536894 0 1 0 I I #
straight-curve $-1 28.399360800619007 0 -5.3322276683474055 0 -1 0 I I #
edge $-1 $363 28.399360800619007 $479 40.034180730613116 $362 $526 forward 7 unknown #
point $-1 28.399360800619007 18.090459926325149 -8.8444886310536894 #
point $-1 28.399360800619007 18.090459926325149 -5.3322276683474055 #
point $-1 28.399360800619007 -18.090459926325149 -5.3322276683474055 #
coedge $-1 $465 $464 $370 $476 forward $236 $-1 #
edge $-1 $479 -18.090459926325149 $477 18.090459926325149 $370 $527 forward 7 unknown #
vertex $-1 $371 $528 #
straight-curve $-1 40.034180730613116 -18.090459926325149 0 0 0 -1 I I #
vertex $-1 $476 $529 #
straight-curve $-1 40.034180730613116 18.090459926325149 0 0 0 -1 I I #
edge $-1 $482 20.233916636328953 $485 24.443421283766671 $376 $530 forward 7 unknown #
vertex $-1 $481 $531 #
straight-curve $-1 -17.117244428071544 -18.090459926325149 29.468418976294721 0 0 1 I I #
edge $-1 $485 5.7380931208989061 $387 17.020209493446369 $386 $532 forward 7 unknown #
vertex $-1 $484 $533 #
straight-curve $-1 -17.117244428071544 -18.09045992632516 4.3303474527641086 0 -0.68199835119979291 -0.73135370988377701 I I #
point $-1 -17.117244428071544 -18.090459926325149 4.3303474527641201 #
point $-1 -28.399360800619007 -13.880955278887431 8.8444886310536894 #
straight-curve $-1 0 -18.090459926325149 8.8444886310536894 1 0 0 I I #
vertex $-1 $393 $534 #
point $-1 -24.175898979891162 -13.641300130910301 4.4012227596135203 #
vertex $-1 $397 $535 #
point $-1 -19.340706248799393 -13.641300130910301 4.4012227596135203 #
coedge $-1 $412 $411 $404 $495 forward $401 $-1 #
edge $-1 $496 -2.4129883337183085 $499 4.6873187462178887 $494 $536 forward 7 unknown #
vertex $-1 $495 $537 #
straight-curve $-1 -16.839342614202309 18.090459926325149 45.545007278103 0 0 1 I I #
edge $-1 $499 -12.532176147120685 $413 3.9178432129574379 $412 $538 forward 7 unknown #
vertex $-1 $498 $539 #
straight-curve $-1 -16.839342614202309 -12.253412507619597 23.939036746103241 0 0.83867056331134215 -0.54463904215088732 I I #
point $-1 -16.839342614202309 18.090459926325153 4.2334952134177612 #
point $-1 -0.38932325412418578 10.990152846388952 8.8444886310536894 #
straight-curve $-1 0 18.090459926325149 8.8444886310536894 -1 0 0 I I #
vertex $-1 $419 $540 #
point $-1 -12.049338742186684 13.46522312434589 4.8835089047187736 #
vertex $-1 $423 $541 #
point $-1 -7.1143329341632473 13.46522312434589 4.8835089047187736 #
vertex $-1 $427 $542 #
point $-1 -2.1793271261398104 13.46522312434589 4.8835089047187736 #
straight-curve $-1 -40.034180730613116 18.090459926325149 0 0 0 -1 I I #
point $-1 -40.034180730613116 -18.090459926325149 -8.8444886310536894 #
straight-curve $-1 -40.034180730613116 0 -8.8444886310536894 0 1 0 I I #
point $-1 -40.034180730613116 18.090459926325149 -8.8444886310536894 #
coedge $-1 $456 $455 $448 $515 reversed $332 $-1 #
edge $-1 $516 -18.090459926325149 $518 18.090459926325149 $514 $543 forward 7 unknown #
vertex $-1 $515 $544 #
straight-curve $-1 0 -18.090459926325149 -8.8444886310536894 -1 0 0 I I #
vertex $-1 $451 $545 #
straight-curve $-1 0 18.090459926325149 -8.8444886310536894 1 0 0 I I #
point $-1 -28.399360800619007 18.090459926325149 -8.8444886310536894 #
straight-curve $-1 -40.034180730613116 18.090459926325149 0 0 0 -1 I I #
straight-curve $-1 -40.034180730613116 -18.090459926325149 0 0 0 -1 I I #
edge $-1 $477 -40.034180730613116 $468 -28.399360800619007 $466 $546 forward 7 unknown #
straight-curve $-1 28.399360800619007 -18.090459926325149 -3.5441790748502737 0 0 -1 I I #
point $-1 28.399360800619007 -18.090459926325149 -8.8444886310536894 #
straight-curve $-1 0 18.090459926325149 -8.8444886310536894 1 0 0 I I #
straight-curve $-1 40.034180730613116 0 -8.8444886310536894 0 -1 0 I I #
point $-1 40.034180730613116 -18.090459926325149 -8.8444886310536894 #
point $-1 40.034180730613116 18.090459926325149 -8.8444886310536894 #
straight-curve $-1 -17.117244428071544 -38.324376562654102 8.8444886310536894 0 1 0 I I #
point $-1 -17.117244428071544 -18.090459926325149 8.8444886310536894 #
straight-curve $-1 -11.379151307172638 -13.880955278887431 8.8444886310536894 -1 0 0 I I #
point $-1 -17.117244428071544 -13.880955278887431 8.8444886310536894 #
point $-1 -25.175898979891162 -12.909946421026524 3.7192244084137274 #
point $-1 -20.340706248799393 -12.909946421026524 3.7192244084137274 #
straight-curve $-1 -16.839342614202309 15.677471592606841 8.8444886310536859 0 -1 0 I I #
point $-1 -16.839342614202309 18.090459926325149 8.8444886310536894 #
straight-curve $-1 -4.3071664670816237 10.990152846388959 8.8444886310536877 1 0 0 I I #
point $-1 -16.839342614202309 10.990152846388952 8.8444886310536894 #
point $-1 -13.549338742186684 12.648264561119561 3.6255030597517606 #
point $-1 -8.6143329341632473 12.648264561119561 3.6255030597517606 #
point $-1 -3.6793271261398104 12.648264561119561 3.6255030597517606 #
straight-curve $-1 -40.034180730613116 0 -8.8444886310536894 0 1 0 I I #
point $-1 -40.034180730613116 -18.090459926325149 -8.8444886310536894 #
point $-1 -40.034180730613116 18.090459926325149 -8.8444886310536894 #
straight-curve $-1 0 -18.090459926325149 -8.8444886310536894 -1 0 0 I I #
End-of-ACIS-data 