500 0 5 0           
7 Unknown 11 ACIS 5.0 NT 24 Thu Mar 25 18:50:43 1999 
-1 9.9999999999999995e-007 1e-010 
body $-1 $5 $-1 $6 #
body $-1 $7 $-1 $8 #
body $-1 $9 $-1 $10 #
body $-1 $11 $-1 $12 #
body $-1 $13 $-1 $14 #
lump $-1 $-1 $15 $0 #
transform $-1 1 0 0 0 1 0 0 0 1 54.795373393963438 30.593735088062466 12.694434675262151 1 rotate no_reflect no_shear #
lump $-1 $-1 $16 $1 #
transform $-1 1 0 0 0 1 0 0 0 1 54.795373393963438 30.593735088062466 12.694434675262151 1 rotate no_reflect no_shear #
lump $-1 $-1 $17 $2 #
transform $-1 1 0 0 0 1 0 0 0 1 54.795373393963438 30.593735088062466 12.694434675262151 1 rotate no_reflect no_shear #
lump $-1 $-1 $18 $3 #
transform $-1 1 0 0 0 1 0 0 0 1 54.795373393963438 30.593735088062466 12.694434675262151 1 rotate no_reflect no_shear #
lump $-1 $-1 $19 $4 #
transform $-1 1 0 0 0 1 0 0 0 1 54.795373393963438 30.593735088062466 12.694434675262151 1 rotate no_reflect no_shear #
shell $-1 $-1 $-1 $20 $-1 $5 #
shell $-1 $-1 $-1 $21 $-1 $7 #
shell $-1 $-1 $-1 $22 $-1 $9 #
shell $-1 $-1 $-1 $23 $-1 $11 #
shell $-1 $-1 $-1 $24 $-1 $13 #
face $-1 $25 $26 $15 $-1 $27 forward single #
face $-1 $28 $29 $16 $-1 $30 forward single #
face $-1 $31 $32 $17 $-1 $33 forward single #
face $-1 $34 $35 $18 $-1 $36 reversed single #
face $-1 $37 $38 $19 $-1 $39 forward single #
face $-1 $40 $41 $15 $-1 $42 reversed single #
loop $-1 $-1 $43 $20 #
plane-surface $-1 0 0 12.694434675262151 0 0 1 1 0 0 forward_v I I I I #
face $-1 $44 $45 $16 $-1 $46 reversed single #
loop $-1 $-1 $47 $21 #
plane-surface $-1 -48.770965918352545 0 -7.4162121677788102 0 0 1 1 0 0 forward_v I I I I #
face $-1 $48 $49 $17 $-1 $50 reversed single #
loop $-1 $-1 $51 $22 #
plane-surface $-1 47.285511343862431 0 -6.1287538922933784 0 0 1 1 0 0 forward_v I I I I #
face $-1 $52 $53 $18 $-1 $54 reversed single #
loop $-1 $-1 $55 $23 #
plane-surface $-1 22.015254348279896 -99.56142756849502 92.863316291785196 1 0 0 0 0.62932039886446345 -0.77714595512881146 forward_v I I I I #
face $-1 $56 $57 $19 $-1 $58 forward single #
loop $-1 $59 $60 $24 #
cone-surface $-1 30.895451821020664 -26.679402032556137 9.1728333806132234 0 0.62932039886446345 -0.77714595512881146 1 0 0 1 I I 0 1 1 forward I I I I #
face $-1 $61 $62 $15 $-1 $63 reversed single #
loop $-1 $-1 $64 $25 #
plane-surface $-1 0 0 -12.694434675262151 0 0 1 1 0 0 forward_v I I I I #
coedge $-1 $65 $66 $67 $68 forward $26 $-1 #
face $-1 $69 $70 $16 $-1 $71 reversed single #
loop $-1 $-1 $72 $28 #
plane-surface $-1 -42.746558442741652 0 -10.05532342152048 -1 0 0 0 0 1 forward_v I I I I #
coedge $-1 $73 $74 $75 $76 forward $29 $-1 #
face $-1 $77 $78 $17 $-1 $79 reversed single #
loop $-1 $-1 $80 $31 #
plane-surface $-1 39.775649293761433 0 -9.4115942837777649 1 0 0 0 0 -1 forward_v I I I I #
coedge $-1 $81 $82 $83 $84 reversed $32 $-1 #
face $-1 $85 $86 $18 $-1 $87 reversed single #
loop $-1 $-1 $88 $34 #
plane-surface $-1 30.895451821020664 -30.593735088062459 7.6953107060020329 0 -0.62932039886446345 0.77714595512881146 1 0 0 forward_v I I I I #
coedge $-1 $89 $90 $91 $92 reversed $35 $-1 #
face $-1 $-1 $93 $19 $-1 $94 forward single #
loop $-1 $95 $96 $37 #
cone-surface $-1 30.895451821020664 -25.537110701556568 7.7622210930299467 0 0.62932039886446345 -0.77714595512881146 0.5 0 0 1 I I -0.70710678118654746 0.70710678118654746 0.5 forward I I I I #
loop $-1 $-1 $97 $24 #
coedge $-1 $60 $60 $98 $99 reversed $38 $-1 #
face $-1 $100 $101 $15 $-1 $102 reversed single #
loop $-1 $-1 $103 $40 #
plane-surface $-1 0 -30.593735088062466 0 0 1 0 0 0 1 forward_v I I I I #
coedge $-1 $104 $105 $106 $107 forward $41 $-1 #
coedge $-1 $108 $43 $109 $110 forward $26 $-1 #
coedge $-1 $43 $108 $111 $112 forward $26 $-1 #
coedge $-1 $113 $114 $43 $68 reversed $115 $-1 #
edge $-1 $116 -30.593735088062466 $117 30.593735088062466 $67 $118 forward 7 unknown #
face $-1 $119 $120 $16 $-1 $121 reversed single #
loop $-1 $-1 $122 $44 #
plane-surface $-1 0 0 -12.694434675262151 0 0 1 1 0 0 forward_v I I I I #
coedge $-1 $123 $75 $124 $125 reversed $45 $-1 #
coedge $-1 $126 $47 $127 $128 reversed $29 $-1 #
coedge $-1 $47 $126 $129 $130 reversed $29 $-1 #
coedge $-1 $72 $131 $47 $76 reversed $45 $-1 #
edge $-1 $132 -30.593735088062466 $133 30.593735088062466 $75 $134 forward 7 unknown #
face $-1 $135 $136 $17 $-1 $137 reversed single #
loop $-1 $-1 $138 $48 #
plane-surface $-1 0 -30.593735088062466 0 0 1 0 0 0 1 forward_v I I I I #
coedge $-1 $139 $140 $141 $142 reversed $49 $-1 #
coedge $-1 $143 $51 $144 $145 reversed $32 $-1 #
coedge $-1 $51 $143 $138 $146 reversed $32 $-1 #
coedge $-1 $147 $148 $51 $84 forward $149 $-1 #
edge $-1 $150 -30.593735088062466 $151 30.593735088062466 $83 $152 forward 7 unknown #
face $-1 $153 $154 $18 $-1 $155 forward single #
loop $-1 $-1 $156 $52 #
plane-surface $-1 39.775649293761433 -99.56142756849502 92.863316291785196 -1 0 0 0 -0.62932039886446345 0.77714595512881146 forward_v I I I I #
coedge $-1 $157 $158 $159 $160 reversed $53 $-1 #
coedge $-1 $90 $55 $161 $162 reversed $35 $-1 #
coedge $-1 $55 $89 $157 $163 reversed $35 $-1 #
coedge $-1 $159 $164 $55 $92 forward $165 $-1 #
edge $-1 $166 33.737223470630447 $167 38.736347439890572 $91 $168 forward 7 unknown #
loop $-1 $-1 $98 $56 #
plane-surface $-1 30.895451821020664 -30.593735088062459 7.6953107060020329 0 -0.62932039886446345 0.77714595512881146 1 0 0 forward_v I I I I #
loop $-1 $-1 $169 $37 #
coedge $-1 $96 $96 $97 $170 reversed $57 $-1 #
coedge $-1 $97 $97 $96 $170 forward $59 $-1 #
coedge $-1 $98 $98 $60 $99 forward $93 $-1 #
edge $-1 $171 3.35369278409095e-015 $171 6.283185307179604 $98 $172 forward 7 unknown #
face $-1 $173 $174 $15 $-1 $175 reversed single #
loop $-1 $-1 $176 $61 #
plane-surface $-1 -54.795373393963438 0 0 1 0 0 0 0 -1 forward_v I I I I #
coedge $-1 $177 $111 $178 $179 forward $62 $-1 #
coedge $-1 $180 $64 $177 $181 forward $41 $-1 #
coedge $-1 $64 $180 $182 $183 forward $41 $-1 #
coedge $-1 $114 $113 $64 $107 reversed $115 $-1 #
edge $-1 $184 -30.593735088062466 $185 30.593735088062466 $106 $186 forward 7 unknown #
coedge $-1 $66 $65 $187 $188 forward $26 $-1 #
coedge $-1 $189 $190 $65 $110 reversed $174 $-1 #
edge $-1 $117 -54.795373393963438 $191 54.795373393963438 $109 $192 forward 7 unknown #
coedge $-1 $103 $193 $66 $112 reversed $62 $-1 #
edge $-1 $194 -54.795373393963438 $116 54.795373393963438 $111 $195 forward 7 unknown #
coedge $-1 $106 $67 $193 $196 forward $115 $-1 #
coedge $-1 $67 $106 $189 $197 reversed $115 $-1 #
loop $-1 $-1 $113 $173 #
vertex $-1 $68 $198 #
vertex $-1 $68 $199 #
straight-curve $-1 54.795373393963438 0 12.694434675262151 0 1 0 I I #
face $-1 $200 $201 $16 $-1 $202 reversed single #
loop $-1 $-1 $124 $69 #
plane-surface $-1 0 -30.593735088062466 0 0 1 0 0 0 1 forward_v I I I I #
coedge $-1 $203 $204 $123 $205 forward $70 $-1 #
coedge $-1 $131 $72 $122 $205 reversed $45 $-1 #
coedge $-1 $129 $206 $72 $125 forward $120 $-1 #
edge $-1 $207 -7.6667729645019111 $132 -2.3885504570185701 $124 $208 forward 7 unknown #
coedge $-1 $74 $73 $209 $210 reversed $29 $-1 #
coedge $-1 $211 $212 $73 $128 forward $213 $-1 #
edge $-1 $214 -30.409890434787165 $133 -18.361075483565379 $127 $215 forward 7 unknown #
coedge $-1 $216 $124 $74 $130 forward $120 $-1 #
edge $-1 $132 18.361075483565379 $217 30.409890434787165 $129 $218 forward 7 unknown #
coedge $-1 $75 $123 $211 $219 reversed $45 $-1 #
vertex $-1 $130 $220 #
vertex $-1 $128 $221 #
straight-curve $-1 -42.746558442741652 0 -7.4162121677788102 0 1 0 I I #
face $-1 $222 $223 $17 $-1 $224 reversed single #
loop $-1 $-1 $225 $77 #
plane-surface $-1 0 0 -12.694434675262151 0 0 1 1 0 0 forward_v I I I I #
coedge $-1 $226 $227 $82 $146 forward $78 $-1 #
coedge $-1 $228 $80 $225 $229 reversed $49 $-1 #
coedge $-1 $80 $228 $143 $230 reversed $49 $-1 #
coedge $-1 $144 $231 $80 $142 forward $223 $-1 #
edge $-1 $232 -7.9886375333732689 $233 -1.422956750404496 $141 $234 forward 7 unknown #
coedge $-1 $82 $81 $140 $230 forward $32 $-1 #
coedge $-1 $235 $141 $81 $145 forward $223 $-1 #
edge $-1 $233 16.132893621830217 $150 31.152617722032215 $144 $236 forward 7 unknown #
edge $-1 $151 -31.152617722032215 $237 -16.132893621830217 $138 $238 forward 7 unknown #
coedge $-1 $239 $83 $227 $240 forward $149 $-1 #
coedge $-1 $83 $239 $235 $241 reversed $149 $-1 #
loop $-1 $-1 $83 $222 #
vertex $-1 $241 $242 #
vertex $-1 $240 $243 #
straight-curve $-1 54.795373393963438 0 -6.1287538922933784 0 -1 0 I I #
face $-1 $-1 $165 $18 $-1 $244 reversed single #
loop $-1 $-1 $245 $85 #
plane-surface $-1 0 0 12.694434675262151 0 0 1 1 0 0 forward_v I I I I #
coedge $-1 $246 $247 $248 $249 reversed $86 $-1 #
coedge $-1 $250 $88 $90 $163 forward $53 $-1 #
coedge $-1 $88 $250 $246 $251 forward $53 $-1 #
coedge $-1 $248 $91 $88 $160 forward $165 $-1 #
edge $-1 $167 6.567528437769564 $252 24.3279233832511 $159 $253 forward 7 unknown #
coedge $-1 $254 $255 $89 $162 forward $154 $-1 #
edge $-1 $256 -25.360382544063039 $166 -19.186978696185044 $161 $257 forward 7 unknown #
edge $-1 $167 -8.8756469145121664e-015 $256 7.9436865200626965 $90 $258 forward 7 unknown #
coedge $-1 $91 $248 $254 $259 reversed $165 $-1 #
loop $-1 $-1 $248 $153 #
vertex $-1 $259 $260 #
vertex $-1 $92 $261 #
straight-curve $-1 22.015254348279896 -30.593735088062466 46.431658145892598 0 0 -1 I I #
coedge $-1 $169 $169 $-1 $262 reversed $95 $-1 #
edge $-1 $263 0 $263 6.2831853071796004 $96 $264 forward 7 unknown #
vertex $-1 $99 $265 #
ellipse-curve $-1 30.895451821020664 -27.50703316412347 10.194872690632089 0 -0.62932039886446345 0.77714595512881146 1 0 0 1 I I #
face $-1 $-1 $115 $15 $-1 $266 reversed single #
loop $-1 $-1 $189 $100 #
plane-surface $-1 0 30.593735088062466 0 0 -1 0 0 0 -1 forward_v I I I I #
coedge $-1 $267 $187 $190 $268 forward $101 $-1 #
coedge $-1 $193 $103 $104 $181 reversed $62 $-1 #
coedge $-1 $187 $267 $103 $179 reversed $101 $-1 #
edge $-1 $194 -12.694434675262151 $269 12.694434675262151 $178 $270 forward 7 unknown #
coedge $-1 $105 $104 $267 $271 forward $41 $-1 #
edge $-1 $185 -54.795373393963438 $269 54.795373393963438 $177 $272 forward 7 unknown #
coedge $-1 $190 $189 $105 $183 reversed $174 $-1 #
edge $-1 $273 -54.795373393963438 $184 54.795373393963438 $182 $274 forward 7 unknown #
vertex $-1 $107 $275 #
vertex $-1 $196 $276 #
straight-curve $-1 54.795373393963438 0 -12.694434675262151 0 -1 0 I I #
coedge $-1 $176 $178 $108 $188 reversed $101 $-1 #
edge $-1 $191 -30.593735088062466 $194 30.593735088062466 $187 $277 forward 7 unknown #
coedge $-1 $182 $109 $114 $197 forward $174 $-1 #
coedge $-1 $109 $182 $176 $268 reversed $174 $-1 #
vertex $-1 $110 $278 #
straight-curve $-1 0 30.593735088062466 12.694434675262151 -1 0 0 I I #
coedge $-1 $111 $177 $113 $196 reversed $62 $-1 #
vertex $-1 $188 $279 #
straight-curve $-1 0 -30.593735088062466 12.694434675262151 1 0 0 I I #
edge $-1 $116 -12.694434675262151 $185 12.694434675262151 $113 $280 forward 7 unknown #
edge $-1 $117 -12.694434675262151 $184 12.694434675262151 $114 $281 forward 7 unknown #
point $-1 54.795373393963438 -30.593735088062466 12.694434675262151 #
point $-1 54.795373393963438 30.593735088062466 12.694434675262151 #
face $-1 $-1 $213 $16 $-1 $282 reversed single #
loop $-1 $-1 $209 $119 #
plane-surface $-1 -54.795373393963438 0 0 1 0 0 0 0 -1 forward_v I I I I #
coedge $-1 $283 $122 $206 $284 forward $70 $-1 #
coedge $-1 $122 $283 $285 $286 forward $70 $-1 #
edge $-1 $287 -30.593735088062466 $207 30.593735088062466 $122 $288 forward 7 unknown #
coedge $-1 $124 $216 $203 $284 reversed $120 $-1 #
vertex $-1 $284 $289 #
straight-curve $-1 -42.746558442741652 -30.593735088062466 -5.0276617107602402 0 0 1 I I #
coedge $-1 $290 $291 $126 $210 forward $201 $-1 #
edge $-1 $217 -30.593735088062466 $214 30.593735088062466 $209 $292 forward 7 unknown #
coedge $-1 $285 $127 $131 $219 forward $213 $-1 #
coedge $-1 $127 $285 $290 $293 reversed $213 $-1 #
loop $-1 $-1 $211 $200 #
vertex $-1 $293 $294 #
straight-curve $-1 -24.385482959176272 30.593735088062466 -7.4162121677788102 1 0 0 I I #
coedge $-1 $206 $129 $291 $295 forward $120 $-1 #
vertex $-1 $295 $296 #
straight-curve $-1 -24.385482959176272 -30.593735088062466 -7.4162121677788102 -1 0 0 I I #
edge $-1 $133 2.3885504570185701 $287 7.6667729645019111 $211 $297 forward 7 unknown #
point $-1 -42.746558442741652 -30.593735088062466 -7.4162121677788102 #
point $-1 -42.746558442741652 30.593735088062466 -7.4162121677788102 #
face $-1 $-1 $149 $17 $-1 $298 reversed single #
loop $-1 $-1 $144 $135 #
plane-surface $-1 0 30.593735088062466 0 0 -1 0 0 0 -1 forward_v I I I I #
coedge $-1 $299 $300 $139 $229 forward $136 $-1 #
coedge $-1 $301 $138 $228 $302 forward $78 $-1 #
coedge $-1 $138 $301 $147 $240 reversed $78 $-1 #
coedge $-1 $140 $139 $226 $302 reversed $49 $-1 #
edge $-1 $303 -30.593735088062466 $232 30.593735088062466 $225 $304 forward 7 unknown #
edge $-1 $233 -30.593735088062466 $237 30.593735088062466 $140 $305 forward 7 unknown #
coedge $-1 $141 $235 $299 $306 reversed $223 $-1 #
vertex $-1 $306 $307 #
vertex $-1 $145 $308 #
straight-curve $-1 39.775649293761433 30.593735088062466 -4.7057971418888824 0 0 1 I I #
coedge $-1 $231 $144 $148 $241 forward $223 $-1 #
straight-curve $-1 23.642755671931216 30.593735088062466 -6.1287538922933784 1 0 0 I I #
vertex $-1 $146 $309 #
straight-curve $-1 23.642755671931216 -30.593735088062466 -6.1287538922933784 -1 0 0 I I #
coedge $-1 $148 $147 $310 $311 reversed $149 $-1 #
edge $-1 $151 6.1287538922933784 $312 12.694434675262151 $147 $313 forward 7 unknown #
edge $-1 $150 6.1287538922933784 $314 12.694434675262151 $148 $315 forward 7 unknown #
point $-1 54.79537339396343 30.593735088062466 -6.1287538922933784 #
point $-1 54.79537339396343 -30.593735088062466 -6.1287538922933784 #
plane-surface $-1 0 -30.593735088062466 0 0 1 0 0 0 1 forward_v I I I I #
coedge $-1 $255 $254 $247 $316 forward $154 $-1 #
coedge $-1 $247 $156 $158 $251 reversed $86 $-1 #
coedge $-1 $156 $246 $245 $316 reversed $86 $-1 #
coedge $-1 $164 $159 $156 $249 forward $165 $-1 #
edge $-1 $252 -38.736347439890572 $317 -33.737223470630447 $248 $318 forward 7 unknown #
coedge $-1 $158 $157 $255 $319 reversed $53 $-1 #
edge $-1 $320 -7.9436865200626965 $252 8.8756469145121664e-015 $246 $321 forward 7 unknown #
vertex $-1 $160 $322 #
straight-curve $-1 15.447725910510332 -30.593735088062466 7.695310706002024 1 0 0 I I #
coedge $-1 $245 $161 $164 $259 forward $154 $-1 #
coedge $-1 $161 $245 $250 $319 forward $154 $-1 #
vertex $-1 $162 $323 #
straight-curve $-1 22.015254348279896 -49.78071378424751 12.694434675262151 0 -1 0 I I #
straight-curve $-1 22.015254348279896 -30.593735088062459 7.6953107060020329 0 0.77714595512881146 0.62932039886446345 I I #
edge $-1 $166 22.015254348279896 $317 39.775649293761433 $164 $324 forward 7 unknown #
point $-1 22.015254348279896 -30.593735088062466 12.694434675262151 #
point $-1 22.015254348279896 -30.593735088062466 7.6953107060020276 #
edge $-1 $325 1 $325 0 $169 $-1 forward 7 unknown #
vertex $-1 $170 $326 #
ellipse-curve $-1 30.895451821020664 -25.8517709009888 8.1507940705943529 0 -0.62932039886446345 0.77714595512881146 1 0 0 1 I I #
point $-1 31.895451821020664 -27.50703316412347 10.194872690632094 #
plane-surface $-1 54.795373393963438 0 0 -1 0 0 0 0 1 forward_v I I I I #
coedge $-1 $178 $176 $180 $271 reversed $101 $-1 #
edge $-1 $191 -12.694434675262151 $273 12.694434675262151 $190 $327 forward 7 unknown #
vertex $-1 $271 $328 #
straight-curve $-1 -54.795373393963438 -30.593735088062466 0 0 0 -1 I I #
edge $-1 $269 -30.593735088062466 $273 30.593735088062466 $267 $329 forward 7 unknown #
straight-curve $-1 0 -30.593735088062466 -12.694434675262151 -1 0 0 I I #
vertex $-1 $183 $330 #
straight-curve $-1 0 30.593735088062466 -12.694434675262151 1 0 0 I I #
point $-1 54.795373393963438 30.593735088062466 -12.694434675262151 #
point $-1 54.795373393963438 -30.593735088062466 -12.694434675262151 #
straight-curve $-1 -54.795373393963438 0 12.694434675262151 0 -1 0 I I #
point $-1 -54.795373393963438 30.593735088062466 12.694434675262151 #
point $-1 -54.795373393963438 -30.593735088062466 12.694434675262151 #
straight-curve $-1 54.795373393963438 -30.593735088062466 0 0 0 -1 I I #
straight-curve $-1 54.795373393963438 30.593735088062466 0 0 0 -1 I I #
plane-surface $-1 0 30.593735088062466 0 0 -1 0 0 0 -1 forward_v I I I I #
coedge $-1 $204 $203 $331 $332 forward $70 $-1 #
edge $-1 $207 42.746558442741652 $333 54.795373393963438 $206 $334 forward 7 unknown #
coedge $-1 $212 $211 $204 $286 reversed $213 $-1 #
edge $-1 $335 -54.795373393963438 $287 -42.746558442741652 $285 $336 forward 7 unknown #
vertex $-1 $219 $337 #
straight-curve $-1 -42.746558442741652 0 -12.694434675262151 0 -1 0 I I #
point $-1 -42.746558442741652 -30.593735088062466 -12.694434675262151 #
coedge $-1 $331 $209 $212 $293 forward $201 $-1 #
coedge $-1 $209 $331 $216 $295 reversed $201 $-1 #
straight-curve $-1 -54.795373393963438 0 -7.4162121677788102 0 1 0 I I #
edge $-1 $214 7.4162121677788102 $335 12.694434675262151 $212 $338 forward 7 unknown #
point $-1 -54.795373393963438 30.593735088062466 -7.4162121677788102 #
edge $-1 $217 7.4162121677788102 $333 12.694434675262151 $291 $339 forward 7 unknown #
point $-1 -54.795373393963438 -30.593735088062466 -7.4162121677788102 #
straight-curve $-1 -42.746558442741652 30.593735088062466 -5.0276617107602402 0 0 -1 I I #
plane-surface $-1 54.795373393963438 0 0 -1 0 0 0 0 1 forward_v I I I I #
coedge $-1 $310 $225 $231 $306 forward $136 $-1 #
coedge $-1 $225 $310 $301 $340 forward $136 $-1 #
coedge $-1 $227 $226 $300 $340 reversed $78 $-1 #
edge $-1 $237 1.422956750404496 $303 7.9886375333732689 $226 $341 forward 7 unknown #
vertex $-1 $229 $342 #
straight-curve $-1 39.775649293761433 0 -12.694434675262151 0 1 0 I I #
straight-curve $-1 39.775649293761433 0 -6.1287538922933784 0 -1 0 I I #
edge $-1 $232 39.775649293761433 $314 54.795373393963438 $231 $343 forward 7 unknown #
point $-1 39.775649293761433 30.593735088062466 -12.694434675262151 #
point $-1 39.775649293761433 30.593735088062466 -6.1287538922933784 #
point $-1 39.775649293761433 -30.593735088062466 -6.1287538922933784 #
coedge $-1 $300 $299 $239 $311 forward $136 $-1 #
edge $-1 $314 -30.593735088062466 $312 30.593735088062466 $239 $344 forward 7 unknown #
vertex $-1 $240 $345 #
straight-curve $-1 54.795373393963438 -30.593735088062466 0 0 0 -1 I I #
vertex $-1 $311 $346 #
straight-curve $-1 54.795373393963438 30.593735088062466 0 0 0 -1 I I #
edge $-1 $317 19.186978696185044 $320 25.360382544063039 $245 $347 forward 7 unknown #
vertex $-1 $316 $348 #
straight-curve $-1 39.775649293761433 -30.593735088062466 46.431658145892598 0 0 1 I I #
edge $-1 $320 -24.3279233832511 $256 -6.567528437769564 $255 $349 forward 7 unknown #
vertex $-1 $319 $350 #
straight-curve $-1 39.775649293761433 -30.593735088062459 7.6953107060020329 0 -0.77714595512881146 -0.62932039886446345 I I #
point $-1 39.775649293761433 -30.593735088062466 7.6953107060020276 #
point $-1 22.015254348279896 -24.420331240184471 12.694434675262151 #
straight-curve $-1 0 -30.593735088062466 12.694434675262151 1 0 0 I I #
vertex $-1 $262 $351 #
point $-1 31.895451821020664 -25.8517709009888 8.1507940705943529 #
straight-curve $-1 -54.795373393963438 30.593735088062466 0 0 0 -1 I I #
point $-1 -54.795373393963438 -30.593735088062466 -12.694434675262151 #
straight-curve $-1 -54.795373393963438 0 -12.694434675262151 0 1 0 I I #
point $-1 -54.795373393963438 30.593735088062466 -12.694434675262151 #
coedge $-1 $291 $290 $283 $332 reversed $201 $-1 #
edge $-1 $333 -30.593735088062466 $335 30.593735088062466 $331 $352 forward 7 unknown #
vertex $-1 $332 $353 #
straight-curve $-1 0 -30.593735088062466 -12.694434675262151 -1 0 0 I I #
vertex $-1 $286 $354 #
straight-curve $-1 0 30.593735088062466 -12.694434675262151 1 0 0 I I #
point $-1 -42.746558442741652 30.593735088062466 -12.694434675262151 #
straight-curve $-1 -54.795373393963438 30.593735088062466 0 0 0 -1 I I #
straight-curve $-1 -54.795373393963438 -30.593735088062466 0 0 0 -1 I I #
edge $-1 $312 -54.795373393963438 $303 -39.775649293761433 $301 $355 forward 7 unknown #
straight-curve $-1 39.775649293761433 -30.593735088062466 -4.7057971418888824 0 0 -1 I I #
point $-1 39.775649293761433 -30.593735088062466 -12.694434675262151 #
straight-curve $-1 0 30.593735088062466 -12.694434675262151 1 0 0 I I #
straight-curve $-1 54.795373393963438 0 -12.694434675262151 0 -1 0 I I #
point $-1 54.795373393963438 -30.593735088062466 -12.694434675262151 #
point $-1 54.795373393963438 30.593735088062466 -12.694434675262151 #
straight-curve $-1 39.775649293761433 -49.78071378424751 12.694434675262151 0 1 0 I I #
point $-1 39.775649293761433 -30.593735088062466 12.694434675262151 #
straight-curve $-1 15.447725910510332 -24.420331240184467 12.694434675262151 -1 0 0 I I #
point $-1 39.775649293761433 -24.420331240184471 12.694434675262151 #
point $-1 30.895451821020664 -25.222450502124335 7.3736481154655413 #
straight-curve $-1 -54.795373393963438 0 -12.694434675262151 0 1 0 I I #
point $-1 -54.795373393963438 -30.593735088062466 -12.694434675262151 #
point $-1 -54.795373393963438 30.593735088062466 -12.694434675262151 #
straight-curve $-1 0 -30.593735088062466 -12.694434675262151 -1 0 0 I I #
End-of-ACIS-data 