500 0 6 0           
7 Unknown 11 ACIS 5.0 NT 24 Thu Mar 25 16:21:33 1999 
-1 9.9999999999999995e-007 1e-010 
body $-1 $6 $-1 $7 #
body $-1 $8 $-1 $9 #
body $-1 $10 $-1 $11 #
body $-1 $12 $-1 $13 #
body $-1 $14 $-1 $15 #
body $-1 $16 $-1 $17 #
lump $-1 $-1 $18 $0 #
transform $-1 1 0 0 0 1 0 0 0 1 54.873500778221995 35.657308896760036 8.4118472173819718 1 rotate no_reflect no_shear #
lump $-1 $-1 $19 $1 #
transform $-1 1 0 0 0 1 0 0 0 1 54.873500778221995 35.657308896760036 8.4118472173819718 1 rotate no_reflect no_shear #
lump $-1 $-1 $20 $2 #
transform $-1 1 0 0 0 1 0 0 0 1 54.873500778221995 35.657308896760036 8.4118472173819718 1 rotate no_reflect no_shear #
lump $-1 $-1 $21 $3 #
transform $-1 1 0 0 0 1 0 0 0 1 54.873500778221995 35.657308896760036 8.4118472173819718 1 rotate no_reflect no_shear #
lump $-1 $-1 $22 $4 #
transform $-1 1 0 0 0 1 0 0 0 1 54.873500778221995 35.657308896760036 8.4118472173819718 1 rotate no_reflect no_shear #
lump $-1 $-1 $23 $5 #
transform $-1 1 0 0 0 1 0 0 0 1 54.873500778221995 35.657308896760036 8.4118472173819718 1 rotate no_reflect no_shear #
shell $-1 $-1 $-1 $24 $-1 $6 #
shell $-1 $-1 $-1 $25 $-1 $8 #
shell $-1 $-1 $-1 $26 $-1 $10 #
shell $-1 $-1 $-1 $27 $-1 $12 #
shell $-1 $-1 $-1 $28 $-1 $14 #
shell $-1 $-1 $-1 $29 $-1 $16 #
face $-1 $30 $31 $18 $-1 $32 forward single #
face $-1 $33 $34 $19 $-1 $35 forward single #
face $-1 $36 $37 $20 $-1 $38 reversed single #
face $-1 $39 $40 $21 $-1 $41 forward single #
face $-1 $42 $43 $22 $-1 $44 reversed single #
face $-1 $45 $46 $23 $-1 $47 forward single #
face $-1 $48 $49 $18 $-1 $50 reversed single #
loop $-1 $-1 $51 $24 #
plane-surface $-1 0 0 8.4118472173819718 0 0 1 1 0 0 forward_v I I I I #
face $-1 $52 $53 $19 $-1 $54 reversed single #
loop $-1 $-1 $55 $25 #
plane-surface $-1 -54.873500778221995 0 0 1 0 0 0 0 -1 forward_v I I I I #
face $-1 $56 $57 $20 $-1 $58 reversed single #
loop $-1 $-1 $59 $26 #
plane-surface $-1 13.380840181567507 -92.181194057443165 98.475076827752076 -1 0 0 0 -0.51503808176128008 0.85716729658548041 forward_v I I I I #
face $-1 $60 $61 $21 $-1 $62 forward single #
loop $-1 $63 $64 $27 #
cone-surface $-1 6.4721843132956351 -31.494121793225244 5.0301471873028811 0 0.51503808176128008 -0.85716729658548041 1 0 0 1 I I 0 1 1 forward I I I I #
face $-1 $65 $66 $22 $-1 $67 reversed single #
loop $-1 $-1 $68 $28 #
plane-surface $-1 -39.155678075160111 86.76307021819872 120.89936445647989 1 0 0 0 -0.82903758062907751 -0.55919289150049634 forward_v I I I I #
face $-1 $69 $70 $23 $-1 $71 forward single #
loop $-1 $72 $73 $29 #
cone-surface $-1 -24.603001176072187 31.402151449044609 3.3602668055988958 0 -0.82903758062907751 -0.55919289150049634 1 0 0 1 I I 0 1 1 forward I I I I #
face $-1 $74 $75 $18 $-1 $76 reversed single #
loop $-1 $-1 $77 $30 #
plane-surface $-1 0 0 -8.4118472173819718 0 0 1 1 0 0 forward_v I I I I #
coedge $-1 $78 $79 $80 $81 forward $31 $-1 #
face $-1 $82 $83 $19 $-1 $84 reversed single #
loop $-1 $-1 $85 $33 #
plane-surface $-1 0 35.657308896760036 0 0 -1 0 0 0 -1 forward_v I I I I #
coedge $-1 $86 $87 $88 $89 forward $34 $-1 #
face $-1 $90 $91 $20 $-1 $92 reversed single #
loop $-1 $-1 $93 $36 #
plane-surface $-1 6.4721843132956351 -35.657308896760036 4.403536195252471 0 -0.51503808176128008 0.85716729658548041 1 0 0 forward_v I I I I #
coedge $-1 $94 $95 $96 $97 reversed $37 $-1 #
face $-1 $-1 $98 $21 $-1 $99 forward single #
loop $-1 $100 $101 $39 #
cone-surface $-1 6.4721843132956351 -30.408890484925916 3.2240190199957937 0 0.51503808176128008 -0.85716729658548041 0.5 0 0 1 I I -0.70710678118654746 0.70710678118654746 0.5 forward I I I I #
loop $-1 $-1 $102 $27 #
coedge $-1 $64 $64 $103 $104 reversed $40 $-1 #
face $-1 $105 $106 $22 $-1 $107 reversed single #
loop $-1 $-1 $108 $42 #
plane-surface $-1 -24.603001176072187 -4.2213184334512022 59.529621322622503 0 0.82903758062907751 0.55919289150049634 1 0 0 forward_v I I I I #
coedge $-1 $109 $110 $111 $112 reversed $43 $-1 #
face $-1 $-1 $113 $23 $-1 $114 forward single #
loop $-1 $115 $116 $45 #
cone-surface $-1 -24.603001176072187 29.432102415050259 2.0314519949589105 0 -0.82903758062907751 -0.55919289150049634 0.5 0 0 1 I I -0.70710678118654746 0.70710678118654746 0.5 forward I I I I #
loop $-1 $-1 $117 $29 #
coedge $-1 $73 $73 $118 $119 reversed $46 $-1 #
face $-1 $120 $121 $18 $-1 $122 reversed single #
loop $-1 $-1 $123 $48 #
plane-surface $-1 0 -35.657308896760036 0 0 1 0 0 0 1 forward_v I I I I #
coedge $-1 $124 $125 $126 $127 forward $49 $-1 #
coedge $-1 $128 $51 $129 $130 forward $31 $-1 #
coedge $-1 $51 $128 $131 $132 forward $31 $-1 #
coedge $-1 $133 $134 $51 $81 reversed $135 $-1 #
edge $-1 $136 -35.657308896760036 $137 35.657308896760036 $80 $138 forward 7 unknown #
face $-1 $139 $140 $19 $-1 $141 reversed single #
loop $-1 $-1 $88 $52 #
plane-surface $-1 -59.029867729701657 0 5.4118472173819718 0 0 1 1 0 0 forward_v I I I I #
coedge $-1 $142 $143 $86 $144 forward $53 $-1 #
coedge $-1 $145 $55 $85 $144 reversed $34 $-1 #
coedge $-1 $55 $145 $146 $147 reversed $34 $-1 #
coedge $-1 $148 $149 $55 $89 reversed $83 $-1 #
edge $-1 $150 -35.657308896760036 $151 35.657308896760036 $88 $152 forward 7 unknown #
face $-1 $153 $154 $20 $-1 $155 reversed single #
loop $-1 $-1 $156 $56 #
plane-surface $-1 -0.43647155497623658 -92.181194057443165 98.475076827752076 1 0 0 0 0.51503808176128008 -0.85716729658548041 forward_v I I I I #
coedge $-1 $157 $158 $159 $160 reversed $57 $-1 #
coedge $-1 $95 $59 $161 $162 reversed $37 $-1 #
coedge $-1 $59 $94 $157 $163 reversed $37 $-1 #
coedge $-1 $159 $164 $59 $97 forward $165 $-1 #
edge $-1 $166 10.433288131961547 $167 17.104237804193776 $96 $168 forward 7 unknown #
loop $-1 $-1 $103 $60 #
plane-surface $-1 6.4721843132956351 -35.657308896760036 4.403536195252471 0 -0.51503808176128008 0.85716729658548041 1 0 0 forward_v I I I I #
loop $-1 $-1 $169 $39 #
coedge $-1 $101 $101 $102 $170 reversed $61 $-1 #
coedge $-1 $102 $102 $101 $170 forward $63 $-1 #
coedge $-1 $103 $103 $64 $104 forward $98 $-1 #
edge $-1 $171 -1.0586371542140706e-015 $171 6.2831853071795996 $103 $172 forward 7 unknown #
face $-1 $173 $174 $22 $-1 $175 forward single #
loop $-1 $-1 $176 $65 #
plane-surface $-1 -10.050324276984263 86.76307021819872 120.89936445647989 -1 0 0 0 0.82903758062907751 0.55919289150049634 forward_v I I I I #
coedge $-1 $177 $178 $179 $180 reversed $66 $-1 #
coedge $-1 $110 $68 $181 $182 reversed $43 $-1 #
coedge $-1 $68 $109 $177 $183 reversed $43 $-1 #
coedge $-1 $179 $184 $68 $112 forward $174 $-1 #
edge $-1 $185 7.7242262123393246 $186 13.123480620410589 $111 $187 forward 7 unknown #
loop $-1 $-1 $118 $69 #
plane-surface $-1 -24.603001176072187 -4.2213184334512022 59.529621322622503 0 0.82903758062907751 0.55919289150049634 1 0 0 forward_v I I I I #
loop $-1 $-1 $188 $45 #
coedge $-1 $116 $116 $117 $189 reversed $70 $-1 #
coedge $-1 $117 $117 $116 $189 forward $72 $-1 #
coedge $-1 $118 $118 $73 $119 forward $113 $-1 #
edge $-1 $190 -2.3620570964048182e-015 $190 6.2831853071795978 $118 $191 forward 7 unknown #
face $-1 $192 $193 $18 $-1 $194 reversed single #
loop $-1 $-1 $195 $74 #
plane-surface $-1 -54.873500778221995 0 0 1 0 0 0 0 -1 forward_v I I I I #
coedge $-1 $196 $131 $197 $198 forward $75 $-1 #
coedge $-1 $199 $77 $196 $200 forward $49 $-1 #
coedge $-1 $77 $199 $201 $202 forward $49 $-1 #
coedge $-1 $134 $133 $77 $127 reversed $135 $-1 #
edge $-1 $203 -35.657308896760036 $204 35.657308896760036 $126 $205 forward 7 unknown #
coedge $-1 $79 $78 $206 $207 forward $31 $-1 #
coedge $-1 $208 $209 $78 $130 reversed $193 $-1 #
edge $-1 $137 -54.873500778221995 $210 54.873500778221995 $129 $211 forward 7 unknown #
coedge $-1 $123 $212 $79 $132 reversed $75 $-1 #
edge $-1 $213 -54.873500778221995 $136 54.873500778221995 $131 $214 forward 7 unknown #
coedge $-1 $126 $80 $212 $215 forward $135 $-1 #
coedge $-1 $80 $126 $208 $216 reversed $135 $-1 #
loop $-1 $-1 $133 $192 #
vertex $-1 $81 $217 #
vertex $-1 $81 $218 #
straight-curve $-1 54.873500778221995 0 8.4118472173819718 0 1 0 I I #
face $-1 $219 $220 $19 $-1 $221 forward single #
loop $-1 $-1 $222 $82 #
plane-surface $-1 -63.186234681181318 0 6.9118472173819718 1 0 0 0 0 -1 forward_v I I I I #
coedge $-1 $223 $85 $149 $224 reversed $53 $-1 #
coedge $-1 $85 $223 $225 $226 reversed $53 $-1 #
edge $-1 $227 -8.4118472173819718 $151 -5.4118472173819718 $85 $228 forward 7 unknown #
coedge $-1 $87 $86 $229 $230 reversed $34 $-1 #
coedge $-1 $231 $232 $87 $147 forward $233 $-1 #
edge $-1 $150 5.4118472173819718 $234 8.4118472173819718 $146 $235 forward 7 unknown #
coedge $-1 $236 $88 $232 $237 forward $83 $-1 #
coedge $-1 $88 $236 $142 $224 forward $83 $-1 #
vertex $-1 $147 $238 #
vertex $-1 $144 $239 #
straight-curve $-1 -54.873500778221995 0 5.4118472173819718 0 1 0 I I #
face $-1 $-1 $165 $20 $-1 $240 forward single #
loop $-1 $-1 $241 $90 #
plane-surface $-1 0 -35.657308896760036 0 0 1 0 0 0 1 forward_v I I I I #
coedge $-1 $242 $243 $244 $245 reversed $91 $-1 #
coedge $-1 $246 $93 $95 $163 forward $57 $-1 #
coedge $-1 $93 $246 $242 $247 forward $57 $-1 #
coedge $-1 $244 $96 $93 $160 forward $165 $-1 #
edge $-1 $167 -10.144748024919689 $248 3.6725637116240542 $159 $249 forward 7 unknown #
coedge $-1 $250 $251 $94 $162 forward $154 $-1 #
edge $-1 $252 -44.834002218623567 $166 -40.825691196494063 $161 $253 forward 7 unknown #
edge $-1 $167 -7.7825527161452701 $252 0 $95 $254 forward 7 unknown #
coedge $-1 $96 $244 $250 $255 forward $165 $-1 #
loop $-1 $-1 $244 $153 #
vertex $-1 $162 $256 #
vertex $-1 $97 $257 #
straight-curve $-1 13.380840181567507 -46.090597028721582 8.4118472173819683 0 1 0 I I #
coedge $-1 $169 $169 $-1 $258 reversed $100 $-1 #
edge $-1 $259 0 $259 6.2831853071796004 $101 $260 forward 7 unknown #
vertex $-1 $104 $261 #
ellipse-curve $-1 6.4721843132956351 -32.321834060643923 6.4076917063172179 0 -0.51503808176128008 0.85716729658548041 1 0 0 1 I I #
face $-1 $-1 $262 $22 $-1 $263 reversed single #
loop $-1 $-1 $111 $105 #
plane-surface $-1 0 0 8.4118472173819718 0 0 1 1 0 0 forward_v I I I I #
coedge $-1 $264 $265 $266 $267 reversed $106 $-1 #
coedge $-1 $268 $108 $110 $183 forward $66 $-1 #
coedge $-1 $108 $268 $264 $269 forward $66 $-1 #
coedge $-1 $266 $111 $108 $180 forward $174 $-1 #
edge $-1 $186 -26.854177487124019 $270 2.2511763110518306 $179 $271 forward 7 unknown #
coedge $-1 $272 $273 $109 $182 forward $262 $-1 #
edge $-1 $274 -60.042559104644681 $185 -52.037835010857975 $181 $275 forward 7 unknown #
edge $-1 $186 61.659176012807691 $274 71.314617793520071 $110 $276 forward 7 unknown #
coedge $-1 $111 $266 $272 $277 forward $174 $-1 #
vertex $-1 $182 $278 #
vertex $-1 $112 $279 #
straight-curve $-1 -39.155678075160111 43.38153510909936 8.4118472173819754 0 -1 0 I I #
coedge $-1 $188 $188 $-1 $280 reversed $115 $-1 #
edge $-1 $281 0 $281 6.2831853071796004 $116 $282 forward 7 unknown #
vertex $-1 $119 $283 #
ellipse-curve $-1 -24.603001176072187 32.9576816927244 4.4094851704886207 0 0.82903758062907751 0.55919289150049634 1 0 0 1 I I #
face $-1 $-1 $135 $18 $-1 $284 reversed single #
loop $-1 $-1 $208 $120 #
plane-surface $-1 0 35.657308896760036 0 0 -1 0 0 0 -1 forward_v I I I I #
coedge $-1 $285 $206 $209 $286 forward $121 $-1 #
coedge $-1 $212 $123 $124 $200 reversed $75 $-1 #
coedge $-1 $206 $285 $123 $198 reversed $121 $-1 #
edge $-1 $213 -8.4118472173819718 $287 8.4118472173819718 $197 $288 forward 7 unknown #
coedge $-1 $125 $124 $285 $289 forward $49 $-1 #
edge $-1 $204 -54.873500778221995 $287 54.873500778221995 $196 $290 forward 7 unknown #
coedge $-1 $209 $208 $125 $202 reversed $193 $-1 #
edge $-1 $291 -54.873500778221995 $203 54.873500778221995 $201 $292 forward 7 unknown #
vertex $-1 $127 $293 #
vertex $-1 $215 $294 #
straight-curve $-1 54.873500778221995 0 -8.4118472173819718 0 -1 0 I I #
coedge $-1 $195 $197 $128 $207 reversed $121 $-1 #
edge $-1 $210 -35.657308896760036 $213 35.657308896760036 $206 $295 forward 7 unknown #
coedge $-1 $201 $129 $134 $216 forward $193 $-1 #
coedge $-1 $129 $201 $195 $286 reversed $193 $-1 #
vertex $-1 $130 $296 #
straight-curve $-1 0 35.657308896760036 8.4118472173819718 -1 0 0 I I #
coedge $-1 $131 $196 $133 $215 reversed $75 $-1 #
vertex $-1 $207 $297 #
straight-curve $-1 0 -35.657308896760036 8.4118472173819718 1 0 0 I I #
edge $-1 $136 -8.4118472173819718 $204 8.4118472173819718 $133 $298 forward 7 unknown #
edge $-1 $137 -8.4118472173819718 $203 8.4118472173819718 $134 $299 forward 7 unknown #
point $-1 54.873500778221995 -35.657308896760036 8.4118472173819718 #
point $-1 54.873500778221995 35.657308896760036 8.4118472173819718 #
face $-1 $-1 $233 $19 $-1 $300 reversed single #
loop $-1 $-1 $229 $139 #
plane-surface $-1 0 0 8.4118472173819718 0 0 1 1 0 0 forward_v I I I I #
coedge $-1 $301 $302 $223 $303 forward $140 $-1 #
coedge $-1 $143 $142 $222 $303 reversed $53 $-1 #
edge $-1 $304 -4.1563669514796615 $151 4.1563669514796615 $142 $305 forward 7 unknown #
coedge $-1 $306 $229 $143 $226 forward $220 $-1 #
edge $-1 $227 54.873500778221995 $307 63.186234681181318 $143 $308 forward 7 unknown #
vertex $-1 $226 $309 #
straight-curve $-1 -54.873500778221995 35.657308896760036 0 0 0 -1 I I #
coedge $-1 $225 $310 $145 $230 forward $220 $-1 #
edge $-1 $234 -35.657308896760036 $227 35.657308896760036 $229 $311 forward 7 unknown #
coedge $-1 $312 $146 $310 $313 reversed $233 $-1 #
coedge $-1 $146 $312 $148 $237 reversed $233 $-1 #
loop $-1 $-1 $146 $219 #
vertex $-1 $147 $314 #
straight-curve $-1 -54.873500778221995 -35.657308896760036 0 0 0 1 I I #
coedge $-1 $149 $148 $301 $315 forward $83 $-1 #
edge $-1 $150 -4.1563669514796615 $316 4.1563669514796615 $232 $317 forward 7 unknown #
point $-1 -54.873500778221995 -35.657308896760036 5.4118472173819718 #
point $-1 -54.873500778221995 35.657308896760036 5.4118472173819718 #
plane-surface $-1 0 0 8.4118472173819718 0 0 1 1 0 0 forward_v I I I I #
coedge $-1 $251 $250 $243 $318 forward $154 $-1 #
coedge $-1 $243 $156 $158 $247 reversed $91 $-1 #
coedge $-1 $156 $242 $241 $318 reversed $91 $-1 #
coedge $-1 $164 $159 $156 $245 forward $165 $-1 #
edge $-1 $248 -17.104237804193776 $319 -10.433288131961547 $244 $320 forward 7 unknown #
coedge $-1 $158 $157 $251 $321 reversed $57 $-1 #
edge $-1 $322 0 $248 7.7825527161452701 $242 $323 forward 7 unknown #
vertex $-1 $160 $324 #
straight-curve $-1 3.2360921566478176 -28.986359224527803 8.4118472173819718 -1 0 0 I I #
coedge $-1 $241 $161 $164 $255 reversed $154 $-1 #
coedge $-1 $161 $241 $246 $321 forward $154 $-1 #
vertex $-1 $162 $325 #
straight-curve $-1 13.380840181567507 -35.657308896760036 49.237538413876038 0 0 1 I I #
straight-curve $-1 13.380840181567507 -35.657308896760036 4.403536195252471 0 -0.85716729658548041 -0.51503808176128008 I I #
edge $-1 $319 -0.43647155497623658 $166 13.380840181567507 $250 $326 forward 7 unknown #
point $-1 13.380840181567507 -35.657308896760036 8.4118472173819718 #
point $-1 13.380840181567507 -28.986359224527806 8.4118472173819718 #
edge $-1 $327 1 $327 0 $169 $-1 forward 7 unknown #
vertex $-1 $170 $328 #
ellipse-curve $-1 6.4721843132956351 -30.666409525806557 3.6526026682885337 0 -0.51503808176128008 0.85716729658548041 1 0 0 1 I I #
point $-1 7.4721843132956351 -32.32183406064393 6.4076917063172276 #
loop $-1 $-1 $181 $173 #
plane-surface $-1 0 35.657308896760036 0 0 -1 0 0 0 -1 forward_v I I I I #
coedge $-1 $265 $176 $178 $269 reversed $106 $-1 #
coedge $-1 $176 $264 $329 $330 reversed $106 $-1 #
coedge $-1 $184 $179 $176 $267 forward $174 $-1 #
edge $-1 $270 -13.123480620410589 $331 -7.7242262123393246 $266 $332 forward 7 unknown #
coedge $-1 $178 $177 $273 $333 reversed $66 $-1 #
edge $-1 $334 -71.314617793520071 $270 -61.659176012807691 $264 $335 forward 7 unknown #
vertex $-1 $180 $336 #
straight-curve $-1 -12.301500588036093 30.258054488688774 8.4118472173819683 1 0 0 I I #
coedge $-1 $329 $181 $184 $277 reversed $262 $-1 #
coedge $-1 $181 $329 $268 $333 forward $262 $-1 #
vertex $-1 $182 $337 #
straight-curve $-1 -39.155678075160111 35.657308896760036 60.449682228239944 0 0 1 I I #
straight-curve $-1 -39.155678075160111 -4.2213184334512022 59.529621322622503 0 0.55919289150049634 -0.82903758062907751 I I #
edge $-1 $331 10.050324276984263 $185 39.155678075160111 $272 $338 forward 7 unknown #
point $-1 -39.155678075160111 35.657308896760036 8.4118472173819718 #
point $-1 -39.155678075160111 30.258054488688771 8.4118472173819754 #
edge $-1 $339 1 $339 0 $188 $-1 forward 7 unknown #
vertex $-1 $189 $340 #
ellipse-curve $-1 -24.603001176072187 29.846621205364798 2.3110484407091585 0 0.82903758062907751 0.55919289150049634 1 0 0 1 I I #
point $-1 -23.603001176072187 32.957681692724414 4.4094851704886331 #
plane-surface $-1 54.873500778221995 0 0 -1 0 0 0 0 1 forward_v I I I I #
coedge $-1 $197 $195 $199 $289 reversed $121 $-1 #
edge $-1 $210 -8.4118472173819718 $291 8.4118472173819718 $209 $341 forward 7 unknown #
vertex $-1 $289 $342 #
straight-curve $-1 -54.873500778221995 -35.657308896760036 0 0 0 -1 I I #
edge $-1 $287 -35.657308896760036 $291 35.657308896760036 $285 $343 forward 7 unknown #
straight-curve $-1 0 -35.657308896760036 -8.4118472173819718 -1 0 0 I I #
vertex $-1 $202 $344 #
straight-curve $-1 0 35.657308896760036 -8.4118472173819718 1 0 0 I I #
point $-1 54.873500778221995 35.657308896760036 -8.4118472173819718 #
point $-1 54.873500778221995 -35.657308896760036 -8.4118472173819718 #
straight-curve $-1 -54.873500778221995 0 8.4118472173819718 0 -1 0 I I #
point $-1 -54.873500778221995 35.657308896760036 8.4118472173819718 #
point $-1 -54.873500778221995 -35.657308896760036 8.4118472173819718 #
straight-curve $-1 54.873500778221995 -35.657308896760036 0 0 0 -1 I I #
straight-curve $-1 54.873500778221995 35.657308896760036 0 0 0 -1 I I #
plane-surface $-1 0 -35.657308896760036 0 0 1 0 0 0 1 forward_v I I I I #
coedge $-1 $345 $222 $236 $315 reversed $140 $-1 #
coedge $-1 $222 $345 $306 $346 reversed $140 $-1 #
edge $-1 $307 -1.5 $304 1.5 $223 $347 forward 7 unknown #
vertex $-1 $224 $348 #
straight-curve $-1 -59.029867729701657 35.657308896760036 5.4118472173819718 1 0 0 I I #
coedge $-1 $310 $225 $302 $346 forward $220 $-1 #
vertex $-1 $226 $349 #
straight-curve $-1 0 35.657308896760036 8.4118472173819718 -1 0 0 I I #
point $-1 -54.873500778221995 35.657308896760036 8.4118472173819718 #
coedge $-1 $229 $306 $231 $313 forward $220 $-1 #
straight-curve $-1 -54.873500778221995 0 8.4118472173819718 0 1 0 I I #
coedge $-1 $232 $231 $345 $350 forward $233 $-1 #
edge $-1 $351 -63.186234681181318 $234 -54.873500778221995 $231 $352 forward 7 unknown #
point $-1 -54.873500778221995 -35.657308896760036 8.4118472173819718 #
edge $-1 $316 -35.657308896760036 $304 35.657308896760036 $301 $353 forward 7 unknown #
vertex $-1 $315 $354 #
straight-curve $-1 -59.029867729701657 -35.657308896760036 5.4118472173819718 -1 0 0 I I #
edge $-1 $319 40.825691196494063 $322 44.834002218623567 $241 $355 forward 7 unknown #
vertex $-1 $255 $356 #
straight-curve $-1 -0.43647155497623658 -46.090597028721582 8.4118472173819683 0 -1 0 I I #
edge $-1 $322 -3.6725637116240542 $252 10.144748024919689 $251 $357 forward 7 unknown #
vertex $-1 $321 $358 #
straight-curve $-1 -0.43647155497623658 -35.657308896760036 4.403536195252471 0 0.85716729658548041 0.51503808176128008 I I #
point $-1 -0.43647155497623658 -28.986359224527806 8.4118472173819718 #
point $-1 13.380840181567507 -35.657308896760036 4.403536195252471 #
straight-curve $-1 0 -35.657308896760036 8.4118472173819718 1 0 0 I I #
vertex $-1 $258 $359 #
point $-1 7.4721843132956351 -30.666409525806557 3.6526026682885337 #
coedge $-1 $273 $272 $265 $330 forward $262 $-1 #
edge $-1 $331 52.037835010857975 $334 60.042559104644681 $329 $360 forward 7 unknown #
vertex $-1 $277 $361 #
straight-curve $-1 -10.050324276984263 43.38153510909936 8.4118472173819754 0 1 0 I I #
edge $-1 $334 -2.2511763110518306 $274 26.854177487124019 $273 $362 forward 7 unknown #
vertex $-1 $333 $363 #
straight-curve $-1 -10.050324276984263 -4.2213184334512022 59.529621322622503 0 -0.55919289150049634 0.82903758062907751 I I #
point $-1 -10.050324276984263 30.258054488688771 8.4118472173819754 #
point $-1 -39.155678075160111 35.657308896760036 0.40712312359526237 #
straight-curve $-1 0 35.657308896760036 8.4118472173819718 -1 0 0 I I #
vertex $-1 $280 $364 #
point $-1 -23.603001176072187 29.846621205364798 2.3110484407091585 #
straight-curve $-1 -54.873500778221995 35.657308896760036 0 0 0 -1 I I #
point $-1 -54.873500778221995 -35.657308896760036 -8.4118472173819718 #
straight-curve $-1 -54.873500778221995 0 -8.4118472173819718 0 1 0 I I #
point $-1 -54.873500778221995 35.657308896760036 -8.4118472173819718 #
coedge $-1 $302 $301 $312 $350 reversed $140 $-1 #
edge $-1 $307 -35.657308896760036 $351 35.657308896760036 $302 $365 forward 7 unknown #
straight-curve $-1 -63.186234681181318 35.657308896760036 6.9118472173819718 0 0 -1 I I #
point $-1 -63.186234681181318 35.657308896760036 5.4118472173819718 #
point $-1 -63.186234681181318 35.657308896760036 8.4118472173819718 #
edge $-1 $351 -1.5 $316 1.5 $345 $366 forward 7 unknown #
vertex $-1 $346 $367 #
straight-curve $-1 0 -35.657308896760036 8.4118472173819718 1 0 0 I I #
straight-curve $-1 -63.186234681181318 0 5.4118472173819718 0 1 0 I I #
point $-1 -63.186234681181318 -35.657308896760036 5.4118472173819718 #
straight-curve $-1 -0.43647155497623658 -35.657308896760036 49.237538413876038 0 0 -1 I I #
point $-1 -0.43647155497623658 -35.657308896760036 8.4118472173819718 #
straight-curve $-1 3.2360921566478176 -35.657308896760036 4.403536195252471 1 0 0 I I #
point $-1 -0.43647155497623658 -35.657308896760036 4.403536195252471 #
point $-1 6.4721843132956351 -30.151371444045274 2.7954353717030536 #
straight-curve $-1 -10.050324276984263 35.657308896760036 60.449682228239944 0 0 -1 I I #
point $-1 -10.050324276984263 35.657308896760036 8.4118472173819718 #
straight-curve $-1 -12.301500588036093 35.657308896760036 0.40712312359524816 -1 0 0 I I #
point $-1 -10.050324276984263 35.657308896760036 0.40712312359526237 #
point $-1 -24.603001176072187 29.017583624735721 1.7518555492086623 #
straight-curve $-1 -63.186234681181318 0 8.4118472173819718 0 -1 0 I I #
straight-curve $-1 -63.186234681181318 -35.657308896760036 6.9118472173819718 0 0 -1 I I #
point $-1 -63.186234681181318 -35.657308896760036 8.4118472173819718 #
End-of-ACIS-data 