500 0 4 0           
7 Unknown 11 ACIS 5.0 NT 24 Thu Mar 25 22:32:59 1999 
-1 9.9999999999999995e-007 1e-010 
body $-1 $4 $-1 $5 #
body $-1 $6 $-1 $7 #
body $-1 $8 $-1 $9 #
body $-1 $10 $-1 $11 #
lump $-1 $-1 $12 $0 #
transform $-1 1 0 0 0 1 0 0 0 1 43.857539597766049 22.061947239294955 5.5164630915552664 1 rotate no_reflect no_shear #
lump $-1 $-1 $13 $1 #
transform $-1 1 0 0 0 1 0 0 0 1 43.857539597766049 22.061947239294955 5.5164630915552664 1 rotate no_reflect no_shear #
lump $-1 $-1 $14 $2 #
transform $-1 1 0 0 0 1 0 0 0 1 43.857539597766049 22.061947239294955 5.5164630915552664 1 rotate no_reflect no_shear #
lump $-1 $-1 $15 $3 #
transform $-1 1 0 0 0 1 0 0 0 1 43.857539597766049 22.061947239294955 5.5164630915552664 1 rotate no_reflect no_shear #
shell $-1 $-1 $-1 $16 $-1 $4 #
shell $-1 $-1 $-1 $17 $-1 $6 #
shell $-1 $-1 $-1 $18 $-1 $8 #
shell $-1 $-1 $-1 $19 $-1 $10 #
face $-1 $20 $21 $12 $-1 $22 forward single #
face $-1 $23 $24 $13 $-1 $25 forward single #
face $-1 $26 $27 $14 $-1 $28 reversed single #
face $-1 $29 $30 $15 $-1 $31 reversed single #
face $-1 $32 $33 $12 $-1 $34 reversed single #
loop $-1 $-1 $35 $16 #
plane-surface $-1 0 0 5.5164630915552664 0 0 1 1 0 0 forward_v I I I I #
face $-1 $36 $37 $13 $-1 $38 forward single #
loop $-1 $-1 $39 $17 #
plane-surface $-1 33.288872389357579 -22.061947239294945 0.94270407571156056 0 -0.52991927123019833 0.84804809178421925 1 0 0 forward_v I I I I #
face $-1 $40 $41 $14 $-1 $42 reversed single #
loop $-1 $43 $44 $18 #
cone-surface $-1 28.759443585753957 -17.924209457463114 2.464678730316459 0 0.52991927123019833 -0.84804809178421925 1.5 0 0 1 I I 0 1 1.5 forward I I I I #
face $-1 $45 $46 $15 $-1 $47 reversed single #
loop $-1 $48 $49 $19 #
cone-surface $-1 37.818301192961215 -17.924209457463114 2.464678730316459 0 0.52991927123019833 -0.84804809178421925 1.5 0 0 1 I I 0 1 1.5 forward I I I I #
face $-1 $50 $51 $12 $-1 $52 reversed single #
loop $-1 $-1 $53 $20 #
plane-surface $-1 0 0 -5.5164630915552664 0 0 1 1 0 0 forward_v I I I I #
coedge $-1 $54 $55 $56 $57 forward $21 $-1 #
face $-1 $58 $59 $13 $-1 $60 forward single #
loop $-1 $-1 $61 $23 #
plane-surface $-1 22.720205180949108 -68.543858082490445 75.329309608184232 1 0 0 0 0.52991927123019833 -0.84804809178421925 forward_v I I I I #
coedge $-1 $62 $63 $64 $65 reversed $24 $-1 #
face $-1 $66 $67 $14 $-1 $68 forward single #
loop $-1 $69 $70 $26 #
cone-surface $-1 28.759443585753957 -17.048804395300792 1.0637378081613384 0 0.52991927123019833 -0.84804809178421925 0.75 0 0 1 I I -0.70710678118654757 0.70710678118654757 0.75 forward I I I I #
loop $-1 $-1 $71 $18 #
coedge $-1 $44 $44 $72 $73 reversed $27 $-1 #
face $-1 $74 $75 $15 $-1 $76 reversed single #
loop $-1 $77 $78 $29 #
cone-surface $-1 37.818301192961215 -17.048804395300792 1.0637378081613384 0 0.52991927123019833 -0.84804809178421925 0.75 0 0 1 I I -0.70710678118654757 0.70710678118654757 0.75 forward I I I I #
loop $-1 $-1 $79 $19 #
coedge $-1 $49 $49 $80 $81 reversed $30 $-1 #
face $-1 $82 $83 $12 $-1 $84 reversed single #
loop $-1 $-1 $85 $32 #
plane-surface $-1 0 -22.061947239294955 0 0 1 0 0 0 1 forward_v I I I I #
coedge $-1 $86 $87 $88 $89 forward $33 $-1 #
coedge $-1 $90 $35 $91 $92 forward $21 $-1 #
coedge $-1 $35 $90 $93 $94 forward $21 $-1 #
coedge $-1 $95 $96 $35 $57 reversed $97 $-1 #
edge $-1 $98 -22.061947239294955 $99 22.061947239294955 $56 $100 forward 7 unknown #
face $-1 $101 $102 $13 $-1 $103 reversed single #
loop $-1 $-1 $104 $36 #
plane-surface $-1 0 0 5.5164630915552664 0 0 1 1 0 0 forward_v I I I I #
coedge $-1 $105 $106 $104 $107 reversed $37 $-1 #
coedge $-1 $108 $39 $106 $109 reversed $24 $-1 #
coedge $-1 $39 $108 $110 $111 reversed $24 $-1 #
coedge $-1 $112 $104 $39 $65 forward $59 $-1 #
edge $-1 $113 6.0757689862703188 $114 27.21310340308726 $64 $115 forward 7 unknown #
face $-1 $116 $117 $14 $-1 $118 forward single #
loop $-1 $119 $72 $40 #
plane-surface $-1 33.288872389357579 -22.061947239294945 0.94270407571156056 0 -0.52991927123019833 0.84804809178421925 1 0 0 forward_v I I I I #
loop $-1 $-1 $120 $26 #
coedge $-1 $70 $70 $71 $121 forward $41 $-1 #
coedge $-1 $71 $71 $70 $121 reversed $43 $-1 #
coedge $-1 $72 $72 $44 $73 forward $67 $-1 #
edge $-1 $122 -6.5850817440101206e-016 $122 6.2831853071795996 $72 $123 forward 7 unknown #
face $-1 $124 $125 $15 $-1 $126 reversed single #
loop $-1 $127 $128 $45 #
cone-surface $-1 28.759443585753957 -17.924209457463114 2.464678730316459 0 0.52991927123019833 -0.84804809178421925 1.5 0 0 1 I I 0 1 1.5 forward I I I I #
loop $-1 $-1 $129 $29 #
coedge $-1 $78 $78 $79 $130 forward $46 $-1 #
coedge $-1 $79 $79 $78 $130 reversed $48 $-1 #
coedge $-1 $80 $80 $49 $81 forward $131 $-1 #
edge $-1 $132 -6.5850817440101206e-016 $132 6.2831853071795996 $80 $133 forward 7 unknown #
face $-1 $134 $135 $12 $-1 $136 reversed single #
loop $-1 $-1 $137 $50 #
plane-surface $-1 -43.857539597766049 0 0 1 0 0 0 0 -1 forward_v I I I I #
coedge $-1 $138 $93 $139 $140 forward $51 $-1 #
coedge $-1 $141 $53 $138 $142 forward $33 $-1 #
coedge $-1 $53 $141 $143 $144 forward $33 $-1 #
coedge $-1 $96 $95 $53 $89 reversed $97 $-1 #
edge $-1 $145 -22.061947239294955 $146 22.061947239294955 $88 $147 forward 7 unknown #
coedge $-1 $55 $54 $148 $149 forward $21 $-1 #
coedge $-1 $150 $151 $54 $92 reversed $135 $-1 #
edge $-1 $99 -43.857539597766049 $152 43.857539597766049 $91 $153 forward 7 unknown #
coedge $-1 $85 $154 $55 $94 reversed $51 $-1 #
edge $-1 $155 -43.857539597766049 $98 43.857539597766049 $93 $156 forward 7 unknown #
coedge $-1 $88 $56 $154 $157 forward $97 $-1 #
coedge $-1 $56 $88 $150 $158 reversed $97 $-1 #
loop $-1 $-1 $95 $134 #
vertex $-1 $57 $159 #
vertex $-1 $57 $160 #
straight-curve $-1 43.857539597766049 0 5.5164630915552664 0 1 0 I I #
face $-1 $161 $162 $13 $-1 $163 reversed single #
loop $-1 $-1 $110 $58 #
plane-surface $-1 43.857539597766049 0 0 -1 0 0 0 0 1 forward_v I I I I #
coedge $-1 $64 $164 $61 $107 forward $59 $-1 #
coedge $-1 $106 $61 $165 $166 reversed $37 $-1 #
coedge $-1 $61 $105 $62 $109 forward $37 $-1 #
edge $-1 $167 12.209981801950267 $113 19.529526148134615 $104 $168 forward 7 unknown #
coedge $-1 $63 $62 $169 $170 reversed $24 $-1 #
edge $-1 $171 -1.2568587624561472e-014 $113 8.6310486599700447 $106 $172 forward 7 unknown #
coedge $-1 $173 $174 $63 $111 forward $102 $-1 #
edge $-1 $114 0.47396894030065151 $175 9.1050176002707097 $110 $176 forward 7 unknown #
coedge $-1 $177 $64 $174 $178 forward $59 $-1 #
vertex $-1 $65 $179 #
vertex $-1 $178 $180 #
straight-curve $-1 16.644436194678789 -14.742402893110608 5.5164630915552664 1 0 0 I I #
face $-1 $181 $182 $14 $-1 $183 forward single #
loop $-1 $-1 $184 $66 #
plane-surface $-1 22.720205180949108 -68.543858082490445 75.329309608184232 1 0 0 0 0.52991927123019833 -0.84804809178421925 forward_v I I I I #
loop $-1 $-1 $185 $40 #
coedge $-1 $120 $120 $-1 $186 forward $69 $-1 #
edge $-1 $187 0 $187 6.2831853071796004 $70 $188 forward 7 unknown #
vertex $-1 $73 $189 #
ellipse-curve $-1 28.759443585753957 -18.402175066202783 3.2295835836334081 0 0.52991927123019833 -0.84804809178421925 1.5 0 0 1 I I #
face $-1 $190 $131 $15 $-1 $191 forward single #
loop $-1 $192 $193 $74 #
cone-surface $-1 28.759443585753957 -17.048804395300792 1.0637378081613384 0 0.52991927123019833 -0.84804809178421925 0.75 0 0 1 I I -0.70710678118654757 0.70710678118654757 0.75 forward I I I I #
loop $-1 $-1 $194 $45 #
coedge $-1 $128 $128 $195 $196 reversed $75 $-1 #
coedge $-1 $129 $129 $-1 $197 forward $77 $-1 #
edge $-1 $198 0 $198 6.2831853071796004 $78 $199 forward 7 unknown #
loop $-1 $200 $80 $124 #
vertex $-1 $81 $201 #
ellipse-curve $-1 37.818301192961215 -18.402175066202783 3.2295835836334081 0 0.52991927123019833 -0.84804809178421925 1.5 0 0 1 I I #
face $-1 $-1 $97 $12 $-1 $202 reversed single #
loop $-1 $-1 $150 $82 #
plane-surface $-1 0 22.061947239294955 0 0 -1 0 0 0 -1 forward_v I I I I #
coedge $-1 $203 $148 $151 $204 forward $83 $-1 #
coedge $-1 $154 $85 $86 $142 reversed $51 $-1 #
coedge $-1 $148 $203 $85 $140 reversed $83 $-1 #
edge $-1 $155 -5.5164630915552664 $205 5.5164630915552664 $139 $206 forward 7 unknown #
coedge $-1 $87 $86 $203 $207 forward $33 $-1 #
edge $-1 $146 -43.857539597766049 $205 43.857539597766049 $138 $208 forward 7 unknown #
coedge $-1 $151 $150 $87 $144 reversed $135 $-1 #
edge $-1 $209 -43.857539597766049 $145 43.857539597766049 $143 $210 forward 7 unknown #
vertex $-1 $89 $211 #
vertex $-1 $157 $212 #
straight-curve $-1 43.857539597766049 0 -5.5164630915552664 0 -1 0 I I #
coedge $-1 $137 $139 $90 $149 reversed $83 $-1 #
edge $-1 $152 -22.061947239294955 $155 22.061947239294955 $148 $213 forward 7 unknown #
coedge $-1 $143 $91 $96 $158 forward $135 $-1 #
coedge $-1 $91 $143 $137 $204 reversed $135 $-1 #
vertex $-1 $92 $214 #
straight-curve $-1 0 22.061947239294955 5.5164630915552664 -1 0 0 I I #
coedge $-1 $93 $138 $95 $157 reversed $51 $-1 #
vertex $-1 $149 $215 #
straight-curve $-1 0 -22.061947239294955 5.5164630915552664 1 0 0 I I #
edge $-1 $98 -5.5164630915552664 $146 5.5164630915552664 $95 $216 forward 7 unknown #
edge $-1 $99 -5.5164630915552664 $145 5.5164630915552664 $96 $217 forward 7 unknown #
point $-1 43.857539597766049 -22.061947239294955 5.5164630915552664 #
point $-1 43.857539597766049 22.061947239294955 5.5164630915552664 #
face $-1 $218 $219 $13 $-1 $220 reversed single #
loop $-1 $-1 $221 $101 #
plane-surface $-1 0 0 -5.5164630915552664 0 0 1 1 0 0 forward_v I I I I #
coedge $-1 $104 $222 $223 $224 forward $59 $-1 #
coedge $-1 $223 $169 $105 $166 forward $219 $-1 #
edge $-1 $171 -36.721950728380563 $167 -32.14819171253685 $165 $225 forward 7 unknown #
vertex $-1 $166 $226 #
straight-curve $-1 22.720205180949108 -34.271929041245222 5.5164630915552664 0 1 0 I I #
coedge $-1 $165 $227 $108 $170 forward $219 $-1 #
edge $-1 $175 -27.21310340308726 $171 -6.0757689862703188 $169 $228 forward 7 unknown #
vertex $-1 $170 $229 #
straight-curve $-1 22.720205180949108 -22.061947239294945 0.94270407571156056 0 0.84804809178421925 0.52991927123019833 I I #
coedge $-1 $230 $110 $227 $231 forward $102 $-1 #
coedge $-1 $110 $232 $112 $178 reversed $102 $-1 #
vertex $-1 $231 $233 #
straight-curve $-1 43.857539597766049 -14.34045443772365 5.7676283669851376 0 -0.84804809178421925 -0.52991927123019833 I I #
coedge $-1 $222 $112 $234 $235 forward $59 $-1 #
edge $-1 $114 -14.742402893110606 $236 22.061947239294955 $174 $237 forward 7 unknown #
point $-1 22.720205180949108 -14.742402893110606 5.5164630915552664 #
point $-1 43.857539597766049 -14.742402893110606 5.5164630915552664 #
face $-1 $238 $239 $14 $-1 $240 reversed single #
loop $-1 $-1 $241 $116 #
plane-surface $-1 0 0 5.5164630915552664 0 0 1 1 0 0 forward_v I I I I #
coedge $-1 $242 $243 $241 $244 reversed $117 $-1 #
coedge $-1 $245 $246 $247 $248 reversed $119 $-1 #
edge $-1 $249 1 $249 0 $120 $-1 forward 7 unknown #
vertex $-1 $121 $250 #
ellipse-curve $-1 28.759443585753957 -17.446243848723441 1.6997738769995028 0 -0.52991927123019833 0.84804809178421925 1.5 0 0 1 I I #
point $-1 30.259443585753957 -18.402175066202787 3.2295835836334157 #
face $-1 $251 $252 $15 $-1 $253 forward single #
plane-surface $-1 33.288872389357579 -22.061947239294945 0.94270407571156056 0 -0.52991927123019833 0.84804809178421925 1 0 0 forward_v I I I I #
loop $-1 $-1 $254 $74 #
coedge $-1 $193 $193 $194 $255 forward $125 $-1 #
coedge $-1 $194 $194 $193 $255 reversed $127 $-1 #
coedge $-1 $195 $195 $128 $196 forward $200 $-1 #
edge $-1 $256 -6.5850817440101206e-016 $256 6.2831853071795996 $195 $257 forward 7 unknown #
edge $-1 $258 1 $258 0 $129 $-1 forward 7 unknown #
vertex $-1 $130 $259 #
ellipse-curve $-1 37.818301192961215 -17.446243848723441 1.6997738769995028 0 -0.52991927123019833 0.84804809178421925 1.5 0 0 1 I I #
loop $-1 $260 $195 $124 #
point $-1 39.318301192961215 -18.402175066202787 3.2295835836334157 #
plane-surface $-1 43.857539597766049 0 0 -1 0 0 0 0 1 forward_v I I I I #
coedge $-1 $139 $137 $141 $207 reversed $83 $-1 #
edge $-1 $152 -5.5164630915552664 $209 5.5164630915552664 $151 $261 forward 7 unknown #
vertex $-1 $207 $262 #
straight-curve $-1 -43.857539597766049 -22.061947239294955 0 0 0 -1 I I #
edge $-1 $205 -22.061947239294955 $209 22.061947239294955 $203 $263 forward 7 unknown #
straight-curve $-1 0 -22.061947239294955 -5.5164630915552664 -1 0 0 I I #
vertex $-1 $144 $264 #
straight-curve $-1 0 22.061947239294955 -5.5164630915552664 1 0 0 I I #
point $-1 43.857539597766049 22.061947239294955 -5.5164630915552664 #
point $-1 43.857539597766049 -22.061947239294955 -5.5164630915552664 #
straight-curve $-1 -43.857539597766049 0 5.5164630915552664 0 -1 0 I I #
point $-1 -43.857539597766049 22.061947239294955 5.5164630915552664 #
point $-1 -43.857539597766049 -22.061947239294955 5.5164630915552664 #
straight-curve $-1 43.857539597766049 -22.061947239294955 0 0 0 -1 I I #
straight-curve $-1 43.857539597766049 22.061947239294955 0 0 0 -1 I I #
face $-1 $265 $266 $13 $-1 $267 reversed single #
loop $-1 $-1 $165 $161 #
plane-surface $-1 0 -22.061947239294955 0 0 1 0 0 0 1 forward_v I I I I #
coedge $-1 $268 $269 $230 $270 forward $162 $-1 #
coedge $-1 $164 $177 $271 $272 forward $59 $-1 #
coedge $-1 $273 $165 $164 $224 reversed $219 $-1 #
edge $-1 $274 -43.857539597766049 $167 22.720205180949108 $223 $275 forward 7 unknown #
straight-curve $-1 22.720205180949108 -22.061947239294955 37.664654804092116 0 0 1 I I #
point $-1 22.720205180949108 -22.061947239294955 5.5164630915552664 #
coedge $-1 $169 $276 $173 $231 reversed $219 $-1 #
straight-curve $-1 16.644436194678789 -22.061947239294955 0.94270407571155601 -1 0 0 I I #
point $-1 22.720205180949108 -22.061947239294955 0.9427040757115539 #
coedge $-1 $232 $173 $221 $270 reversed $102 $-1 #
edge $-1 $175 -0.9427040757115539 $277 5.5164630915552664 $173 $278 forward 7 unknown #
coedge $-1 $174 $230 $279 $280 reversed $102 $-1 #
point $-1 43.857539597766049 -22.061947239294955 0.9427040757115539 #
coedge $-1 $279 $281 $177 $235 reversed $282 $-1 #
edge $-1 $236 -43.857539597766049 $283 43.857539597766049 $234 $284 forward 7 unknown #
vertex $-1 $178 $285 #
straight-curve $-1 43.857539597766049 0 5.5164630915552664 0 1 0 I I #
face $-1 $286 $287 $14 $-1 $288 reversed single #
loop $-1 $-1 $289 $181 #
plane-surface $-1 43.857539597766049 0 0 -1 0 0 0 0 1 forward_v I I I I #
coedge $-1 $247 $290 $184 $244 forward $182 $-1 #
coedge $-1 $243 $184 $291 $292 reversed $117 $-1 #
coedge $-1 $184 $242 $245 $293 forward $117 $-1 #
edge $-1 $294 12.209981801950267 $295 19.529526148134615 $241 $296 forward 7 unknown #
coedge $-1 $297 $185 $243 $293 reversed $119 $-1 #
coedge $-1 $185 $297 $289 $298 reversed $119 $-1 #
coedge $-1 $299 $241 $185 $248 forward $182 $-1 #
edge $-1 $295 6.0757689862703188 $300 27.21310340308726 $247 $301 forward 7 unknown #
vertex $-1 $186 $302 #
point $-1 30.259443585753957 -17.446243848723441 1.6997738769995028 #
face $-1 $303 $304 $15 $-1 $305 forward single #
loop $-1 $-1 $306 $190 #
plane-surface $-1 22.720205180949108 -68.543858082490445 75.329309608184232 1 0 0 0 0.52991927123019833 -0.84804809178421925 forward_v I I I I #
coedge $-1 $254 $254 $-1 $307 forward $192 $-1 #
edge $-1 $308 0 $308 6.2831853071796004 $193 $309 forward 7 unknown #
vertex $-1 $196 $310 #
ellipse-curve $-1 28.759443585753957 -18.402175066202783 3.2295835836334081 0 0.52991927123019833 -0.84804809178421925 1.5 0 0 1 I I #
vertex $-1 $197 $311 #
point $-1 39.318301192961215 -17.446243848723441 1.6997738769995028 #
loop $-1 $-1 $312 $124 #
straight-curve $-1 -43.857539597766049 22.061947239294955 0 0 0 -1 I I #
point $-1 -43.857539597766049 -22.061947239294955 -5.5164630915552664 #
straight-curve $-1 -43.857539597766049 0 -5.5164630915552664 0 1 0 I I #
point $-1 -43.857539597766049 22.061947239294955 -5.5164630915552664 #
face $-1 $-1 $282 $13 $-1 $313 reversed single #
loop $-1 $-1 $314 $218 #
plane-surface $-1 -43.857539597766049 0 0 1 0 0 0 0 -1 forward_v I I I I #
coedge $-1 $315 $221 $276 $316 forward $162 $-1 #
coedge $-1 $221 $315 $317 $318 forward $162 $-1 #
edge $-1 $319 -22.061947239294955 $277 22.061947239294955 $230 $320 forward 7 unknown #
coedge $-1 $314 $321 $222 $272 reversed $266 $-1 #
edge $-1 $283 -22.061947239294955 $274 22.061947239294955 $271 $322 forward 7 unknown #
coedge $-1 $276 $223 $321 $323 forward $219 $-1 #
vertex $-1 $272 $324 #
straight-curve $-1 0 -22.061947239294955 5.5164630915552664 1 0 0 I I #
coedge $-1 $227 $273 $268 $316 reversed $219 $-1 #
vertex $-1 $231 $325 #
straight-curve $-1 43.857539597766049 -22.061947239294955 0 0 0 -1 I I #
coedge $-1 $317 $234 $232 $280 forward $282 $-1 #
edge $-1 $236 -5.5164630915552664 $319 5.5164630915552664 $232 $326 forward 7 unknown #
coedge $-1 $234 $317 $314 $327 reversed $282 $-1 #
loop $-1 $-1 $279 $265 #
vertex $-1 $235 $328 #
straight-curve $-1 0 22.061947239294955 5.5164630915552664 -1 0 0 I I #
point $-1 43.857539597766049 22.061947239294955 5.5164630915552664 #
face $-1 $329 $330 $14 $-1 $331 reversed single #
loop $-1 $-1 $332 $238 #
plane-surface $-1 0 0 -5.5164630915552664 0 0 1 1 0 0 forward_v I I I I #
coedge $-1 $333 $334 $246 $298 forward $239 $-1 #
coedge $-1 $241 $335 $336 $337 forward $182 $-1 #
coedge $-1 $336 $338 $242 $292 forward $330 $-1 #
edge $-1 $339 -36.721950728380563 $294 -32.14819171253685 $291 $340 forward 7 unknown #
edge $-1 $339 -1.2568587624561472e-014 $295 8.6310486599700447 $243 $341 forward 7 unknown #
vertex $-1 $292 $342 #
vertex $-1 $248 $343 #
straight-curve $-1 22.720205180949108 -34.271929041245222 5.5164630915552664 0 1 0 I I #
coedge $-1 $246 $245 $338 $344 reversed $119 $-1 #
edge $-1 $300 0.47396894030065151 $345 9.1050176002707097 $289 $346 forward 7 unknown #
coedge $-1 $347 $247 $334 $348 forward $182 $-1 #
vertex $-1 $348 $349 #
straight-curve $-1 16.644436194678789 -14.742402893110608 5.5164630915552664 1 0 0 I I #
point $-1 28.759443585753957 -16.651364941878143 0.42770173932317401 #
face $-1 $350 $351 $15 $-1 $352 reversed single #
loop $-1 $-1 $353 $251 #
plane-surface $-1 0 0 5.5164630915552664 0 0 1 1 0 0 forward_v I I I I #
coedge $-1 $354 $355 $353 $356 reversed $252 $-1 #
edge $-1 $357 1 $357 0 $254 $-1 forward 7 unknown #
vertex $-1 $255 $358 #
ellipse-curve $-1 28.759443585753957 -17.446243848723441 1.6997738769995028 0 -0.52991927123019833 0.84804809178421925 1.5 0 0 1 I I #
point $-1 30.259443585753957 -18.402175066202787 3.2295835836334157 #
point $-1 37.818301192961215 -16.651364941878143 0.42770173932317401 #
coedge $-1 $359 $360 $361 $362 reversed $260 $-1 #
plane-surface $-1 0 22.061947239294955 0 0 -1 0 0 0 -1 forward_v I I I I #
coedge $-1 $363 $271 $281 $327 forward $266 $-1 #
coedge $-1 $269 $268 $363 $364 forward $162 $-1 #
edge $-1 $277 -43.857539597766049 $365 43.857539597766049 $276 $366 forward 7 unknown #
coedge $-1 $281 $279 $269 $318 reversed $282 $-1 #
edge $-1 $367 -43.857539597766049 $319 43.857539597766049 $317 $368 forward 7 unknown #
vertex $-1 $270 $369 #
straight-curve $-1 43.857539597766049 0 -5.5164630915552664 0 -1 0 I I #
coedge $-1 $271 $363 $273 $323 reversed $266 $-1 #
straight-curve $-1 -43.857539597766049 0 5.5164630915552664 0 -1 0 I I #
edge $-1 $274 -5.5164630915552664 $365 5.5164630915552664 $321 $370 forward 7 unknown #
point $-1 -43.857539597766049 -22.061947239294955 5.5164630915552664 #
point $-1 43.857539597766049 -22.061947239294955 -5.5164630915552664 #
straight-curve $-1 43.857539597766049 22.061947239294955 0 0 0 -1 I I #
edge $-1 $283 -5.5164630915552664 $367 5.5164630915552664 $281 $371 forward 7 unknown #
point $-1 -43.857539597766049 22.061947239294955 5.5164630915552664 #
face $-1 $372 $373 $14 $-1 $374 reversed single #
loop $-1 $-1 $291 $286 #
plane-surface $-1 0 -22.061947239294955 0 0 1 0 0 0 1 forward_v I I I I #
coedge $-1 $375 $376 $377 $378 forward $287 $-1 #
coedge $-1 $377 $289 $379 $380 forward $239 $-1 #
coedge $-1 $289 $381 $299 $348 reversed $239 $-1 #
coedge $-1 $290 $347 $382 $383 forward $182 $-1 #
coedge $-1 $384 $291 $290 $337 reversed $330 $-1 #
edge $-1 $385 -43.857539597766049 $294 22.720205180949108 $336 $386 forward 7 unknown #
coedge $-1 $291 $379 $297 $344 forward $330 $-1 #
vertex $-1 $344 $387 #
straight-curve $-1 22.720205180949108 -22.061947239294955 37.664654804092116 0 0 1 I I #
straight-curve $-1 22.720205180949108 -22.061947239294945 0.94270407571156056 0 0.84804809178421925 0.52991927123019833 I I #
point $-1 22.720205180949108 -22.061947239294955 5.5164630915552664 #
point $-1 22.720205180949108 -14.742402893110606 5.5164630915552664 #
edge $-1 $345 -27.21310340308726 $339 -6.0757689862703188 $338 $388 forward 7 unknown #
vertex $-1 $380 $389 #
straight-curve $-1 43.857539597766049 -14.34045443772365 5.7676283669851376 0 -0.84804809178421925 -0.52991927123019833 I I #
coedge $-1 $335 $299 $390 $391 forward $182 $-1 #
edge $-1 $300 -14.742402893110606 $392 22.061947239294955 $334 $393 forward 7 unknown #
point $-1 43.857539597766049 -14.742402893110606 5.5164630915552664 #
face $-1 $394 $395 $15 $-1 $396 reversed single #
loop $-1 $-1 $397 $303 #
plane-surface $-1 43.857539597766049 0 0 -1 0 0 0 0 1 forward_v I I I I #
coedge $-1 $361 $398 $306 $356 forward $304 $-1 #
coedge $-1 $355 $306 $399 $400 reversed $252 $-1 #
coedge $-1 $306 $354 $359 $401 forward $252 $-1 #
edge $-1 $402 12.209981801950267 $403 19.529526148134615 $353 $404 forward 7 unknown #
vertex $-1 $307 $405 #
point $-1 30.259443585753957 -17.446243848723441 1.6997738769995028 #
coedge $-1 $406 $312 $355 $401 reversed $260 $-1 #
coedge $-1 $312 $406 $397 $407 reversed $260 $-1 #
coedge $-1 $408 $353 $312 $362 forward $304 $-1 #
edge $-1 $403 6.0757689862703188 $409 27.21310340308726 $361 $410 forward 7 unknown #
coedge $-1 $321 $314 $315 $364 reversed $266 $-1 #
edge $-1 $365 -22.061947239294955 $367 22.061947239294955 $363 $411 forward 7 unknown #
vertex $-1 $364 $412 #
straight-curve $-1 0 -22.061947239294955 -5.5164630915552664 -1 0 0 I I #
vertex $-1 $318 $413 #
straight-curve $-1 0 22.061947239294955 -5.5164630915552664 1 0 0 I I #
point $-1 43.857539597766049 22.061947239294955 -5.5164630915552664 #
straight-curve $-1 -43.857539597766049 -22.061947239294955 0 0 0 -1 I I #
straight-curve $-1 -43.857539597766049 22.061947239294955 0 0 0 -1 I I #
face $-1 $-1 $414 $14 $-1 $415 reversed single #
loop $-1 $-1 $416 $329 #
plane-surface $-1 -43.857539597766049 0 0 1 0 0 0 0 -1 forward_v I I I I #
coedge $-1 $417 $332 $418 $419 forward $287 $-1 #
coedge $-1 $332 $417 $420 $421 forward $287 $-1 #
coedge $-1 $381 $333 $332 $378 reversed $239 $-1 #
edge $-1 $422 -22.061947239294955 $423 22.061947239294955 $377 $424 forward 7 unknown #
coedge $-1 $338 $418 $333 $380 reversed $330 $-1 #
edge $-1 $345 -0.9427040757115539 $423 5.5164630915552664 $333 $425 forward 7 unknown #
coedge $-1 $334 $377 $426 $427 reversed $239 $-1 #
coedge $-1 $416 $428 $335 $383 reversed $373 $-1 #
edge $-1 $429 -22.061947239294955 $385 22.061947239294955 $382 $430 forward 7 unknown #
coedge $-1 $418 $336 $428 $431 forward $330 $-1 #
vertex $-1 $383 $432 #
straight-curve $-1 0 -22.061947239294955 5.5164630915552664 1 0 0 I I #
point $-1 22.720205180949108 -22.061947239294955 0.9427040757115539 #
straight-curve $-1 16.644436194678789 -22.061947239294955 0.94270407571155601 -1 0 0 I I #
point $-1 43.857539597766049 -22.061947239294955 0.9427040757115539 #
coedge $-1 $426 $433 $347 $391 reversed $414 $-1 #
edge $-1 $392 -43.857539597766049 $429 43.857539597766049 $390 $434 forward 7 unknown #
vertex $-1 $348 $435 #
straight-curve $-1 43.857539597766049 0 5.5164630915552664 0 1 0 I I #
face $-1 $436 $437 $15 $-1 $438 reversed single #
loop $-1 $-1 $439 $350 #
plane-surface $-1 0 0 -5.5164630915552664 0 0 1 1 0 0 forward_v I I I I #
coedge $-1 $440 $441 $360 $407 forward $351 $-1 #
coedge $-1 $353 $442 $443 $444 forward $304 $-1 #
coedge $-1 $443 $445 $354 $400 forward $437 $-1 #
edge $-1 $446 -36.721950728380563 $402 -32.14819171253685 $399 $447 forward 7 unknown #
edge $-1 $446 -1.2568587624561472e-014 $403 8.6310486599700447 $355 $448 forward 7 unknown #
vertex $-1 $400 $449 #
vertex $-1 $362 $450 #
straight-curve $-1 22.720205180949108 -34.271929041245222 5.5164630915552664 0 1 0 I I #
point $-1 28.759443585753957 -16.651364941878143 0.42770173932317401 #
coedge $-1 $360 $359 $445 $451 reversed $260 $-1 #
edge $-1 $409 0.47396894030065151 $452 9.1050176002707097 $397 $453 forward 7 unknown #
coedge $-1 $454 $361 $441 $455 forward $304 $-1 #
vertex $-1 $455 $456 #
straight-curve $-1 16.644436194678789 -14.742402893110608 5.5164630915552664 1 0 0 I I #
straight-curve $-1 -43.857539597766049 0 -5.5164630915552664 0 1 0 I I #
point $-1 -43.857539597766049 -22.061947239294955 -5.5164630915552664 #
point $-1 -43.857539597766049 22.061947239294955 -5.5164630915552664 #
loop $-1 $-1 $426 $372 #
plane-surface $-1 0 22.061947239294955 0 0 -1 0 0 0 -1 forward_v I I I I #
coedge $-1 $457 $382 $433 $458 forward $373 $-1 #
coedge $-1 $376 $375 $457 $459 forward $287 $-1 #
coedge $-1 $379 $384 $375 $419 reversed $330 $-1 #
edge $-1 $423 -43.857539597766049 $460 43.857539597766049 $418 $461 forward 7 unknown #
coedge $-1 $433 $426 $376 $421 reversed $414 $-1 #
edge $-1 $462 -43.857539597766049 $422 43.857539597766049 $420 $463 forward 7 unknown #
vertex $-1 $378 $464 #
vertex $-1 $380 $465 #
straight-curve $-1 43.857539597766049 0 -5.5164630915552664 0 -1 0 I I #
straight-curve $-1 43.857539597766049 -22.061947239294955 0 0 0 -1 I I #
coedge $-1 $420 $390 $381 $427 forward $414 $-1 #
edge $-1 $392 -5.5164630915552664 $422 5.5164630915552664 $381 $466 forward 7 unknown #
coedge $-1 $382 $457 $384 $431 reversed $373 $-1 #
vertex $-1 $391 $467 #
straight-curve $-1 -43.857539597766049 0 5.5164630915552664 0 -1 0 I I #
edge $-1 $385 -5.5164630915552664 $460 5.5164630915552664 $428 $468 forward 7 unknown #
point $-1 -43.857539597766049 -22.061947239294955 5.5164630915552664 #
coedge $-1 $390 $420 $416 $458 reversed $414 $-1 #
straight-curve $-1 0 22.061947239294955 5.5164630915552664 -1 0 0 I I #
point $-1 43.857539597766049 22.061947239294955 5.5164630915552664 #
face $-1 $469 $470 $15 $-1 $471 reversed single #
loop $-1 $-1 $399 $394 #
plane-surface $-1 0 -22.061947239294955 0 0 1 0 0 0 1 forward_v I I I I #
coedge $-1 $472 $473 $474 $475 forward $395 $-1 #
coedge $-1 $474 $397 $476 $477 forward $351 $-1 #
coedge $-1 $397 $478 $408 $455 reversed $351 $-1 #
coedge $-1 $398 $454 $479 $480 forward $304 $-1 #
coedge $-1 $481 $399 $398 $444 reversed $437 $-1 #
edge $-1 $482 -43.857539597766049 $402 22.720205180949108 $443 $483 forward 7 unknown #
coedge $-1 $399 $476 $406 $451 forward $437 $-1 #
vertex $-1 $451 $484 #
straight-curve $-1 22.720205180949108 -22.061947239294955 37.664654804092116 0 0 1 I I #
straight-curve $-1 22.720205180949108 -22.061947239294945 0.94270407571156056 0 0.84804809178421925 0.52991927123019833 I I #
point $-1 22.720205180949108 -22.061947239294955 5.5164630915552664 #
point $-1 22.720205180949108 -14.742402893110606 5.5164630915552664 #
edge $-1 $452 -27.21310340308726 $446 -6.0757689862703188 $445 $485 forward 7 unknown #
vertex $-1 $477 $486 #
straight-curve $-1 43.857539597766049 -14.34045443772365 5.7676283669851376 0 -0.84804809178421925 -0.52991927123019833 I I #
coedge $-1 $442 $408 $487 $488 forward $304 $-1 #
edge $-1 $409 -14.742402893110606 $489 22.061947239294955 $441 $490 forward 7 unknown #
point $-1 43.857539597766049 -14.742402893110606 5.5164630915552664 #
coedge $-1 $428 $416 $417 $459 reversed $373 $-1 #
edge $-1 $429 -5.5164630915552664 $462 5.5164630915552664 $433 $491 forward 7 unknown #
edge $-1 $460 -22.061947239294955 $462 22.061947239294955 $457 $492 forward 7 unknown #
vertex $-1 $459 $493 #
straight-curve $-1 0 -22.061947239294955 -5.5164630915552664 -1 0 0 I I #
vertex $-1 $421 $494 #
straight-curve $-1 0 22.061947239294955 -5.5164630915552664 1 0 0 I I #
point $-1 43.857539597766049 22.061947239294955 -5.5164630915552664 #
point $-1 43.857539597766049 -22.061947239294955 -5.5164630915552664 #
straight-curve $-1 43.857539597766049 22.061947239294955 0 0 0 -1 I I #
point $-1 -43.857539597766049 22.061947239294955 5.5164630915552664 #
straight-curve $-1 -43.857539597766049 -22.061947239294955 0 0 0 -1 I I #
face $-1 $-1 $495 $15 $-1 $496 reversed single #
loop $-1 $-1 $497 $436 #
plane-surface $-1 -43.857539597766049 0 0 1 0 0 0 0 -1 forward_v I I I I #
coedge $-1 $498 $439 $499 $500 forward $395 $-1 #
coedge $-1 $439 $498 $501 $502 forward $395 $-1 #
coedge $-1 $478 $440 $439 $475 reversed $351 $-1 #
edge $-1 $503 -22.061947239294955 $504 22.061947239294955 $474 $505 forward 7 unknown #
coedge $-1 $445 $499 $440 $477 reversed $437 $-1 #
edge $-1 $452 -0.9427040757115539 $504 5.5164630915552664 $440 $506 forward 7 unknown #
coedge $-1 $441 $474 $507 $508 reversed $351 $-1 #
coedge $-1 $497 $509 $442 $480 reversed $470 $-1 #
edge $-1 $510 -22.061947239294955 $482 22.061947239294955 $479 $511 forward 7 unknown #
coedge $-1 $499 $443 $509 $512 forward $437 $-1 #
vertex $-1 $480 $513 #
straight-curve $-1 0 -22.061947239294955 5.5164630915552664 1 0 0 I I #
point $-1 22.720205180949108 -22.061947239294955 0.9427040757115539 #
straight-curve $-1 16.644436194678789 -22.061947239294955 0.94270407571155601 -1 0 0 I I #
point $-1 43.857539597766049 -22.061947239294955 0.9427040757115539 #
coedge $-1 $507 $514 $454 $488 reversed $495 $-1 #
edge $-1 $489 -43.857539597766049 $510 43.857539597766049 $487 $515 forward 7 unknown #
vertex $-1 $455 $516 #
straight-curve $-1 43.857539597766049 0 5.5164630915552664 0 1 0 I I #
straight-curve $-1 -43.857539597766049 22.061947239294955 0 0 0 -1 I I #
straight-curve $-1 -43.857539597766049 0 -5.5164630915552664 0 1 0 I I #
point $-1 -43.857539597766049 -22.061947239294955 -5.5164630915552664 #
point $-1 -43.857539597766049 22.061947239294955 -5.5164630915552664 #
loop $-1 $-1 $507 $469 #
plane-surface $-1 0 22.061947239294955 0 0 -1 0 0 0 -1 forward_v I I I I #
coedge $-1 $517 $479 $514 $518 forward $470 $-1 #
coedge $-1 $473 $472 $517 $519 forward $395 $-1 #
coedge $-1 $476 $481 $472 $500 reversed $437 $-1 #
edge $-1 $504 -43.857539597766049 $520 43.857539597766049 $499 $521 forward 7 unknown #
coedge $-1 $514 $507 $473 $502 reversed $495 $-1 #
edge $-1 $522 -43.857539597766049 $503 43.857539597766049 $501 $523 forward 7 unknown #
vertex $-1 $475 $524 #
vertex $-1 $477 $525 #
straight-curve $-1 43.857539597766049 0 -5.5164630915552664 0 -1 0 I I #
straight-curve $-1 43.857539597766049 -22.061947239294955 0 0 0 -1 I I #
coedge $-1 $501 $487 $478 $508 forward $495 $-1 #
edge $-1 $489 -5.5164630915552664 $503 5.5164630915552664 $478 $526 forward 7 unknown #
coedge $-1 $479 $517 $481 $512 reversed $470 $-1 #
vertex $-1 $488 $527 #
straight-curve $-1 -43.857539597766049 0 5.5164630915552664 0 -1 0 I I #
edge $-1 $482 -5.5164630915552664 $520 5.5164630915552664 $509 $528 forward 7 unknown #
point $-1 -43.857539597766049 -22.061947239294955 5.5164630915552664 #
coedge $-1 $487 $501 $497 $518 reversed $495 $-1 #
straight-curve $-1 0 22.061947239294955 5.5164630915552664 -1 0 0 I I #
point $-1 43.857539597766049 22.061947239294955 5.5164630915552664 #
coedge $-1 $509 $497 $498 $519 reversed $470 $-1 #
edge $-1 $510 -5.5164630915552664 $522 5.5164630915552664 $514 $529 forward 7 unknown #
edge $-1 $520 -22.061947239294955 $522 22.061947239294955 $517 $530 forward 7 unknown #
vertex $-1 $519 $531 #
straight-curve $-1 0 -22.061947239294955 -5.5164630915552664 -1 0 0 I I #
vertex $-1 $502 $532 #
straight-curve $-1 0 22.061947239294955 -5.5164630915552664 1 0 0 I I #
point $-1 43.857539597766049 22.061947239294955 -5.5164630915552664 #
point $-1 43.857539597766049 -22.061947239294955 -5.5164630915552664 #
straight-curve $-1 43.857539597766049 22.061947239294955 0 0 0 -1 I I #
point $-1 -43.857539597766049 22.061947239294955 5.5164630915552664 #
straight-curve $-1 -43.857539597766049 -22.061947239294955 0 0 0 -1 I I #
straight-curve $-1 -43.857539597766049 22.061947239294955 0 0 0 -1 I I #
straight-curve $-1 -43.857539597766049 0 -5.5164630915552664 0 1 0 I I #
point $-1 -43.857539597766049 -22.061947239294955 -5.5164630915552664 #
point $-1 -43.857539597766049 22.061947239294955 -5.5164630915552664 #
End-of-ACIS-data 