500 0 12 0           
7 Unknown 11 ACIS 5.0 NT 24 Fri Mar 26 20:19:44 1999 
-1 9.9999999999999995e-007 1e-010 
body $-1 $12 $-1 $13 #
body $-1 $14 $-1 $15 #
body $-1 $16 $-1 $17 #
body $-1 $18 $-1 $19 #
body $-1 $20 $-1 $21 #
body $-1 $22 $-1 $23 #
body $-1 $24 $-1 $25 #
body $-1 $26 $-1 $27 #
body $-1 $28 $-1 $29 #
body $-1 $30 $-1 $31 #
body $-1 $32 $-1 $33 #
body $-1 $34 $-1 $35 #
lump $-1 $-1 $36 $0 #
transform $-1 1 0 0 0 1 0 0 0 1 57.084261604663226 39.886336444931956 17.340154768263808 1 rotate no_reflect no_shear #
lump $-1 $-1 $37 $1 #
transform $-1 1 0 0 0 1 0 0 0 1 57.084261604663226 39.886336444931956 17.340154768263808 1 rotate no_reflect no_shear #
lump $-1 $-1 $38 $2 #
transform $-1 1 0 0 0 1 0 0 0 1 57.084261604663226 39.886336444931956 17.340154768263808 1 rotate no_reflect no_shear #
lump $-1 $-1 $39 $3 #
transform $-1 1 0 0 0 1 0 0 0 1 57.084261604663226 39.886336444931956 17.340154768263808 1 rotate no_reflect no_shear #
lump $-1 $-1 $40 $4 #
transform $-1 1 0 0 0 1 0 0 0 1 57.084261604663226 39.886336444931956 17.340154768263808 1 rotate no_reflect no_shear #
lump $-1 $-1 $41 $5 #
transform $-1 1 0 0 0 1 0 0 0 1 57.084261604663226 39.886336444931956 17.340154768263808 1 rotate no_reflect no_shear #
lump $-1 $-1 $42 $6 #
transform $-1 1 0 0 0 1 0 0 0 1 57.084261604663226 39.886336444931956 17.340154768263808 1 rotate no_reflect no_shear #
lump $-1 $-1 $43 $7 #
transform $-1 1 0 0 0 1 0 0 0 1 57.084261604663226 39.886336444931956 17.340154768263808 1 rotate no_reflect no_shear #
lump $-1 $-1 $44 $8 #
transform $-1 1 0 0 0 1 0 0 0 1 57.084261604663226 39.886336444931956 17.340154768263808 1 rotate no_reflect no_shear #
lump $-1 $-1 $45 $9 #
transform $-1 1 0 0 0 1 0 0 0 1 57.084261604663226 39.886336444931956 17.340154768263808 1 rotate no_reflect no_shear #
lump $-1 $-1 $46 $10 #
transform $-1 1 0 0 0 1 0 0 0 1 57.084261604663226 39.886336444931956 17.340154768263808 1 rotate no_reflect no_shear #
lump $-1 $-1 $47 $11 #
transform $-1 1 0 0 0 1 0 0 0 1 57.084261604663226 39.886336444931956 17.340154768263808 1 rotate no_reflect no_shear #
shell $-1 $-1 $-1 $48 $-1 $12 #
shell $-1 $-1 $-1 $49 $-1 $14 #
shell $-1 $-1 $-1 $50 $-1 $16 #
shell $-1 $-1 $-1 $51 $-1 $18 #
shell $-1 $-1 $-1 $52 $-1 $20 #
shell $-1 $-1 $-1 $53 $-1 $22 #
shell $-1 $-1 $-1 $54 $-1 $24 #
shell $-1 $-1 $-1 $55 $-1 $26 #
shell $-1 $-1 $-1 $56 $-1 $28 #
shell $-1 $-1 $-1 $57 $-1 $30 #
shell $-1 $-1 $-1 $58 $-1 $32 #
shell $-1 $-1 $-1 $59 $-1 $34 #
face $-1 $60 $61 $36 $-1 $62 forward single #
face $-1 $63 $64 $37 $-1 $65 reversed single #
face $-1 $66 $67 $38 $-1 $68 reversed single #
face $-1 $69 $70 $39 $-1 $71 reversed single #
face $-1 $72 $73 $40 $-1 $74 forward single #
face $-1 $75 $76 $41 $-1 $77 forward single #
face $-1 $78 $79 $42 $-1 $80 reversed single #
face $-1 $81 $82 $43 $-1 $83 forward single #
face $-1 $84 $85 $44 $-1 $86 forward single #
face $-1 $87 $88 $45 $-1 $89 reversed single #
face $-1 $90 $91 $46 $-1 $92 forward single #
face $-1 $93 $94 $47 $-1 $95 forward single #
face $-1 $96 $97 $36 $-1 $98 reversed single #
loop $-1 $-1 $99 $48 #
plane-surface $-1 0 0 17.340154768263808 0 0 1 1 0 0 forward_v I I I I #
face $-1 $100 $101 $37 $-1 $102 reversed single #
loop $-1 $-1 $103 $49 #
plane-surface $-1 -44.118832974742311 -32.187047363549439 0 1 0 0 0 0 -1 forward_v I I I I #
face $-1 $104 $105 $38 $-1 $106 reversed single #
loop $-1 $-1 $107 $50 #
plane-surface $-1 -41.887796917504133 24.487758282166922 0 0 1 0 0 0 1 forward_v I I I I #
face $-1 $108 $109 $39 $-1 $110 reversed single #
loop $-1 $-1 $111 $51 #
plane-surface $-1 29.047258545056224 24.487758282166922 170.2868042447318 0 -1 0 -0.57357644374324357 0 -0.81915203911291934 forward_v I I I I #
face $-1 $112 $113 $40 $-1 $114 forward single #
loop $-1 $115 $116 $52 #
cone-surface $-1 51.567131187104046 16.125721701382567 12.610418853132042 -0.57357644374324357 0 -0.81915203911291934 1.228728058669379 0 -0.86036466561486535 1 I I 0 1 1.5 forward I I I I #
face $-1 $117 $118 $41 $-1 $119 forward single #
loop $-1 $120 $121 $53 #
cone-surface $-1 51.567131187104046 21.142943649853173 12.610418853132042 -0.57357644374324357 0 -0.81915203911291934 1.228728058669379 0 -0.86036466561486535 1 I I 0 1 1.5 forward I I I I #
face $-1 $122 $123 $42 $-1 $124 reversed single #
loop $-1 $-1 $125 $54 #
plane-surface $-1 -119.26489672917212 -24.487758282166926 104.74809877973175 0 1 0 -0.54463904215088732 0 0.83867056331134215 forward_v I I I I #
face $-1 $126 $127 $43 $-1 $128 forward single #
loop $-1 $129 $130 $55 #
cone-surface $-1 -50.180163508546293 -22.536586867173146 12.427872072726592 0.54463904215088732 0 -0.83867056331134215 0.41933528165567108 0 0.27231952107544366 1 I I 0 1 0.5 forward I I I I #
face $-1 $131 $132 $44 $-1 $133 forward single #
loop $-1 $134 $135 $56 #
cone-surface $-1 -50.180163508546293 -19.609829744682475 12.427872072726592 0.54463904215088732 0 -0.83867056331134215 0.41933528165567108 0 0.27231952107544366 1 I I 0 1 0.5 forward I I I I #
face $-1 $136 $137 $45 $-1 $138 reversed single #
loop $-1 $-1 $139 $57 #
plane-surface $-1 -119.26489672917212 0 104.74809877973175 0 1 0 -0.54463904215088732 0 0.83867056331134215 forward_v I I I I #
face $-1 $140 $141 $46 $-1 $142 forward single #
loop $-1 $143 $144 $58 #
cone-surface $-1 -50.180163508546293 1.9511714149937802 12.427872072726592 0.54463904215088732 0 -0.83867056331134215 0.41933528165567108 0 0.27231952107544366 1 I I 0 1 0.5 forward I I I I #
face $-1 $145 $146 $47 $-1 $147 forward single #
loop $-1 $148 $149 $59 #
cone-surface $-1 -50.180163508546293 4.8779285374844505 12.427872072726592 0.54463904215088732 0 -0.83867056331134215 0.41933528165567108 0 0.27231952107544366 1 I I 0 1 0.5 forward I I I I #
face $-1 $150 $151 $36 $-1 $152 reversed single #
loop $-1 $-1 $153 $60 #
plane-surface $-1 0 0 -17.340154768263808 0 0 1 1 0 0 forward_v I I I I #
coedge $-1 $154 $155 $156 $157 forward $61 $-1 #
face $-1 $158 $159 $37 $-1 $160 reversed single #
loop $-1 $-1 $161 $63 #
plane-surface $-1 -41.887796917504133 -24.487758282166922 0 0 -1 0 0 0 -1 forward_v I I I I #
coedge $-1 $162 $163 $164 $165 forward $64 $-1 #
face $-1 $166 $167 $38 $-1 $168 reversed single #
loop $-1 $-1 $169 $66 #
plane-surface $-1 -44.118832974742311 32.187047363549439 0 1 0 0 0 0 -1 forward_v I I I I #
coedge $-1 $170 $171 $172 $173 forward $67 $-1 #
face $-1 $174 $175 $39 $-1 $176 reversed single #
loop $-1 $-1 $177 $69 #
plane-surface $-1 -36.437116984767201 18.634332675617877 76.765425655301371 0.57357644374324357 0 0.81915203911291934 0.81915203911291934 0 -0.57357644374324357 forward_v I I I I #
coedge $-1 $178 $179 $180 $181 reversed $70 $-1 #
face $-1 $-1 $182 $40 $-1 $183 forward single #
loop $-1 $184 $185 $72 #
cone-surface $-1 49.946467462754967 16.125721701382567 10.295871230058523 -0.57357644374324357 0 -0.81915203911291934 0.61436402933468948 0 -0.43018233280743268 1 I I -0.70710678118654757 0.70710678118654757 0.75 forward I I I I #
loop $-1 $-1 $186 $52 #
coedge $-1 $116 $116 $187 $188 reversed $73 $-1 #
face $-1 $-1 $189 $41 $-1 $190 forward single #
loop $-1 $191 $192 $75 #
cone-surface $-1 49.946467462754967 21.142943649853173 10.295871230058523 -0.57357644374324357 0 -0.81915203911291934 0.61436402933468948 0 -0.43018233280743268 1 I I -0.70710678118654757 0.70710678118654757 0.75 forward I I I I #
loop $-1 $-1 $193 $53 #
coedge $-1 $121 $121 $194 $195 reversed $76 $-1 #
face $-1 $196 $197 $42 $-1 $198 reversed single #
loop $-1 $-1 $199 $78 #
plane-surface $-1 -57.084261604663219 -21.07320830592781 8.9983191073418851 -0.54463904215088732 0 0.83867056331134215 0.83867056331134215 0 0.54463904215088732 forward_v I I I I #
coedge $-1 $200 $201 $202 $203 reversed $79 $-1 #
face $-1 $-1 $204 $43 $-1 $205 forward single #
loop $-1 $206 $207 $81 #
cone-surface $-1 -49.562555766330021 -22.536586867173146 11.476839566822495 0.54463904215088732 0 -0.83867056331134215 0.20966764082783554 0 0.13615976053772183 1 I I -0.70710678118654746 0.70710678118654746 0.25 forward I I I I #
loop $-1 $-1 $208 $55 #
coedge $-1 $130 $130 $209 $210 reversed $82 $-1 #
face $-1 $-1 $211 $44 $-1 $212 forward single #
loop $-1 $213 $214 $84 #
cone-surface $-1 -49.562555766330021 -19.609829744682475 11.476839566822495 0.54463904215088732 0 -0.83867056331134215 0.20966764082783554 0 0.13615976053772183 1 I I -0.70710678118654746 0.70710678118654746 0.25 forward I I I I #
loop $-1 $-1 $215 $56 #
coedge $-1 $135 $135 $216 $217 reversed $85 $-1 #
face $-1 $218 $219 $45 $-1 $220 reversed single #
loop $-1 $-1 $221 $87 #
plane-surface $-1 -57.084261604663219 3.4145499762391154 8.9983191073418851 -0.54463904215088732 0 0.83867056331134215 0.83867056331134215 0 0.54463904215088732 forward_v I I I I #
coedge $-1 $222 $223 $224 $225 reversed $88 $-1 #
face $-1 $-1 $226 $46 $-1 $227 forward single #
loop $-1 $228 $229 $90 #
cone-surface $-1 -49.562555766330021 1.9511714149937802 11.476839566822495 0.54463904215088732 0 -0.83867056331134215 0.20966764082783554 0 0.13615976053772183 1 I I -0.70710678118654746 0.70710678118654746 0.25 forward I I I I #
loop $-1 $-1 $230 $58 #
coedge $-1 $144 $144 $231 $232 reversed $91 $-1 #
face $-1 $-1 $233 $47 $-1 $234 forward single #
loop $-1 $235 $236 $93 #
cone-surface $-1 -49.562555766330021 4.8779285374844505 11.476839566822495 0.54463904215088732 0 -0.83867056331134215 0.20966764082783554 0 0.13615976053772183 1 I I -0.70710678118654746 0.70710678118654746 0.25 forward I I I I #
loop $-1 $-1 $237 $59 #
coedge $-1 $149 $149 $238 $239 reversed $94 $-1 #
face $-1 $240 $241 $36 $-1 $242 reversed single #
loop $-1 $-1 $243 $96 #
plane-surface $-1 0 -39.886336444931956 0 0 1 0 0 0 1 forward_v I I I I #
coedge $-1 $244 $245 $246 $247 forward $97 $-1 #
coedge $-1 $248 $99 $249 $250 forward $61 $-1 #
coedge $-1 $99 $248 $251 $252 forward $61 $-1 #
coedge $-1 $253 $254 $99 $157 reversed $255 $-1 #
edge $-1 $256 -39.886336444931956 $257 39.886336444931956 $156 $258 forward 7 unknown #
face $-1 $259 $260 $37 $-1 $261 forward single #
loop $-1 $-1 $262 $100 #
plane-surface $-1 -39.656760860265955 -32.187047363549439 0 -1 0 0 0 0 1 forward_v I I I I #
coedge $-1 $263 $264 $265 $266 forward $101 $-1 #
coedge $-1 $267 $103 $268 $269 reversed $64 $-1 #
coedge $-1 $103 $267 $270 $271 reversed $64 $-1 #
coedge $-1 $264 $263 $103 $165 reversed $101 $-1 #
edge $-1 $272 -17.340154768263808 $273 17.340154768263808 $164 $274 forward 7 unknown #
face $-1 $275 $276 $38 $-1 $277 reversed single #
loop $-1 $-1 $278 $104 #
plane-surface $-1 -39.656760860265955 32.187047363549439 0 -1 0 0 0 0 1 forward_v I I I I #
coedge $-1 $279 $280 $281 $282 reversed $105 $-1 #
coedge $-1 $283 $107 $284 $285 reversed $67 $-1 #
coedge $-1 $107 $283 $286 $287 reversed $67 $-1 #
coedge $-1 $280 $279 $107 $173 reversed $105 $-1 #
edge $-1 $288 -17.340154768263808 $289 17.340154768263808 $172 $290 forward 7 unknown #
face $-1 $291 $292 $39 $-1 $293 forward single #
loop $-1 $-1 $294 $108 #
plane-surface $-1 29.047258545056224 12.780907069068832 170.2868042447318 0 1 0 0.57357644374324357 0 0.81915203911291934 forward_v I I I I #
coedge $-1 $295 $296 $297 $298 reversed $109 $-1 #
coedge $-1 $179 $111 $299 $300 reversed $70 $-1 #
coedge $-1 $111 $178 $295 $301 reversed $70 $-1 #
coedge $-1 $297 $302 $111 $181 forward $292 $-1 #
edge $-1 $303 -42.560632332135114 $304 -33.907334280100059 $180 $305 forward 7 unknown #
loop $-1 $-1 $187 $112 #
plane-surface $-1 -36.437116984767201 18.634332675617877 76.765425655301371 0.57357644374324357 0 0.81915203911291934 0.81915203911291934 0 -0.57357644374324357 forward_v I I I I #
loop $-1 $-1 $306 $72 #
coedge $-1 $185 $185 $186 $307 reversed $113 $-1 #
coedge $-1 $186 $186 $185 $307 forward $115 $-1 #
coedge $-1 $187 $187 $116 $188 forward $182 $-1 #
edge $-1 $308 0 $308 6.2831853071796004 $187 $309 forward 7 unknown #
loop $-1 $-1 $194 $117 #
plane-surface $-1 -36.437116984767201 18.634332675617877 76.765425655301371 0.57357644374324357 0 0.81915203911291934 0.81915203911291934 0 -0.57357644374324357 forward_v I I I I #
loop $-1 $-1 $310 $75 #
coedge $-1 $192 $192 $193 $311 reversed $118 $-1 #
coedge $-1 $193 $193 $192 $311 forward $120 $-1 #
coedge $-1 $194 $194 $121 $195 forward $189 $-1 #
edge $-1 $312 0 $312 6.2831853071796004 $194 $313 forward 7 unknown #
face $-1 $314 $315 $42 $-1 $316 reversed single #
loop $-1 $-1 $317 $122 #
plane-surface $-1 -119.26489672917212 -17.658658329688695 104.74809877973175 0 -1 0 0.54463904215088732 0 -0.83867056331134215 forward_v I I I I #
coedge $-1 $318 $319 $320 $321 reversed $123 $-1 #
coedge $-1 $201 $125 $322 $323 reversed $79 $-1 #
coedge $-1 $125 $200 $318 $324 reversed $79 $-1 #
coedge $-1 $320 $325 $125 $203 forward $326 $-1 #
edge $-1 $327 2.5481867599228352 $328 15.393486988799637 $202 $329 forward 7 unknown #
loop $-1 $-1 $209 $126 #
plane-surface $-1 -57.084261604663219 -21.07320830592781 8.9983191073418851 -0.54463904215088732 0 0.83867056331134215 0.83867056331134215 0 0.54463904215088732 forward_v I I I I #
loop $-1 $-1 $330 $81 #
coedge $-1 $207 $207 $208 $331 reversed $127 $-1 #
coedge $-1 $208 $208 $207 $331 forward $129 $-1 #
coedge $-1 $209 $209 $130 $210 forward $204 $-1 #
edge $-1 $332 0 $332 6.2831853071796004 $209 $333 forward 7 unknown #
loop $-1 $-1 $216 $131 #
plane-surface $-1 -57.084261604663219 -21.07320830592781 8.9983191073418851 -0.54463904215088732 0 0.83867056331134215 0.83867056331134215 0 0.54463904215088732 forward_v I I I I #
loop $-1 $-1 $334 $84 #
coedge $-1 $214 $214 $215 $335 reversed $132 $-1 #
coedge $-1 $215 $215 $214 $335 forward $134 $-1 #
coedge $-1 $216 $216 $135 $217 forward $211 $-1 #
edge $-1 $336 0 $336 6.2831853071796004 $216 $337 forward 7 unknown #
face $-1 $338 $339 $45 $-1 $340 forward single #
loop $-1 $-1 $341 $136 #
plane-surface $-1 -119.26489672917212 6.8290999524782308 104.74809877973175 0 -1 0 0.54463904215088732 0 -0.83867056331134215 forward_v I I I I #
coedge $-1 $342 $343 $344 $345 reversed $137 $-1 #
coedge $-1 $223 $139 $346 $347 reversed $88 $-1 #
coedge $-1 $139 $222 $342 $348 reversed $88 $-1 #
coedge $-1 $344 $349 $139 $225 forward $339 $-1 #
edge $-1 $350 2.5481867599228352 $351 15.393486988799637 $224 $352 forward 7 unknown #
loop $-1 $-1 $231 $140 #
plane-surface $-1 -57.084261604663219 3.4145499762391154 8.9983191073418851 -0.54463904215088732 0 0.83867056331134215 0.83867056331134215 0 0.54463904215088732 forward_v I I I I #
loop $-1 $-1 $353 $90 #
coedge $-1 $229 $229 $230 $354 reversed $141 $-1 #
coedge $-1 $230 $230 $229 $354 forward $143 $-1 #
coedge $-1 $231 $231 $144 $232 forward $226 $-1 #
edge $-1 $355 0 $355 6.2831853071796004 $231 $356 forward 7 unknown #
loop $-1 $-1 $238 $145 #
plane-surface $-1 -57.084261604663219 3.4145499762391154 8.9983191073418851 -0.54463904215088732 0 0.83867056331134215 0.83867056331134215 0 0.54463904215088732 forward_v I I I I #
loop $-1 $-1 $357 $93 #
coedge $-1 $236 $236 $237 $358 reversed $146 $-1 #
coedge $-1 $237 $237 $236 $358 forward $148 $-1 #
coedge $-1 $238 $238 $149 $239 forward $233 $-1 #
edge $-1 $359 0 $359 6.2831853071796004 $238 $360 forward 7 unknown #
face $-1 $361 $362 $36 $-1 $363 reversed single #
loop $-1 $-1 $364 $150 #
plane-surface $-1 -57.084261604663226 0 0 1 0 0 0 0 -1 forward_v I I I I #
coedge $-1 $365 $251 $366 $367 forward $151 $-1 #
coedge $-1 $368 $153 $365 $369 forward $97 $-1 #
coedge $-1 $153 $368 $370 $371 forward $97 $-1 #
coedge $-1 $254 $253 $153 $247 reversed $255 $-1 #
edge $-1 $372 -39.886336444931956 $373 39.886336444931956 $246 $374 forward 7 unknown #
coedge $-1 $155 $154 $375 $376 forward $61 $-1 #
coedge $-1 $377 $378 $154 $250 reversed $362 $-1 #
edge $-1 $257 -57.084261604663226 $379 57.084261604663226 $249 $380 forward 7 unknown #
coedge $-1 $243 $381 $155 $252 reversed $151 $-1 #
edge $-1 $382 -57.084261604663226 $256 57.084261604663226 $251 $383 forward 7 unknown #
coedge $-1 $246 $156 $381 $384 forward $255 $-1 #
coedge $-1 $156 $246 $377 $385 reversed $255 $-1 #
loop $-1 $-1 $253 $361 #
vertex $-1 $157 $386 #
vertex $-1 $157 $387 #
straight-curve $-1 57.084261604663226 0 17.340154768263808 0 1 0 I I #
face $-1 $388 $389 $37 $-1 $390 reversed single #
loop $-1 $-1 $391 $158 #
plane-surface $-1 0 0 17.340154768263808 0 0 1 1 0 0 forward_v I I I I #
coedge $-1 $392 $393 $394 $395 reversed $159 $-1 #
coedge $-1 $164 $161 $396 $397 reversed $101 $-1 #
coedge $-1 $161 $164 $398 $399 reversed $101 $-1 #
coedge $-1 $393 $392 $161 $266 reversed $159 $-1 #
edge $-1 $400 -17.340154768263808 $401 17.340154768263808 $265 $402 forward 7 unknown #
coedge $-1 $163 $162 $403 $404 reversed $64 $-1 #
coedge $-1 $396 $405 $162 $269 forward $389 $-1 #
edge $-1 $406 -23.792812763157237 $273 -8.3942346003922026 $268 $407 forward 7 unknown #
coedge $-1 $408 $398 $163 $271 forward $260 $-1 #
edge $-1 $272 8.3942346003922026 $409 23.792812763157237 $270 $410 forward 7 unknown #
vertex $-1 $271 $411 #
vertex $-1 $269 $412 #
straight-curve $-1 -44.118832974742311 -24.487758282166922 0 0 0 -1 I I #
face $-1 $413 $414 $38 $-1 $415 forward single #
loop $-1 $-1 $416 $166 #
plane-surface $-1 0 0 -17.340154768263808 0 0 1 1 0 0 forward_v I I I I #
coedge $-1 $417 $418 $283 $419 forward $167 $-1 #
coedge $-1 $172 $169 $420 $421 reversed $105 $-1 #
coedge $-1 $169 $172 $422 $423 reversed $105 $-1 #
coedge $-1 $424 $425 $169 $282 forward $426 $-1 #
edge $-1 $427 -17.340154768263808 $428 17.340154768263808 $281 $429 forward 7 unknown #
coedge $-1 $171 $170 $278 $419 reversed $67 $-1 #
coedge $-1 $420 $416 $170 $285 forward $276 $-1 #
edge $-1 $430 18.712862401513888 $289 23.174934515990245 $284 $431 forward 7 unknown #
coedge $-1 $432 $422 $171 $287 forward $414 $-1 #
edge $-1 $288 -23.174934515990245 $433 -18.712862401513888 $286 $434 forward 7 unknown #
vertex $-1 $287 $435 #
vertex $-1 $285 $436 #
straight-curve $-1 -44.118832974742311 24.487758282166922 0 0 0 -1 I I #
face $-1 $-1 $437 $39 $-1 $438 reversed single #
loop $-1 $-1 $180 $174 #
plane-surface $-1 0 0 17.340154768263808 0 0 1 1 0 0 forward_v I I I I #
coedge $-1 $439 $440 $441 $442 reversed $175 $-1 #
coedge $-1 $443 $177 $179 $301 forward $109 $-1 #
coedge $-1 $177 $443 $439 $444 forward $109 $-1 #
coedge $-1 $441 $180 $177 $298 forward $292 $-1 #
edge $-1 $304 -15.170591944357984 $445 -3.4637407312598931 $297 $446 forward 7 unknown #
coedge $-1 $447 $448 $178 $300 forward $437 $-1 #
edge $-1 $449 -73.862351996887952 $303 -67.803247354102098 $299 $450 forward 7 unknown #
edge $-1 $304 103.6047967716728 $449 114.16852320932645 $179 $451 forward 7 unknown #
coedge $-1 $180 $441 $447 $452 forward $292 $-1 #
vertex $-1 $181 $453 #
vertex $-1 $181 $454 #
straight-curve $-1 14.523629272528112 24.487758282166922 17.340154768263801 -1 0 0 I I #
coedge $-1 $306 $306 $-1 $455 reversed $184 $-1 #
edge $-1 $456 0 $456 6.2831853071796004 $185 $457 forward 7 unknown #
vertex $-1 $188 $458 #
ellipse-curve $-1 52.757612578645691 16.125721701382567 14.310602446870872 0.57357644374324357 0 0.81915203911291934 1.228728058669379 0 -0.86036466561486535 1 I I #
coedge $-1 $310 $310 $-1 $459 reversed $191 $-1 #
edge $-1 $460 0 $460 6.2831853071796004 $192 $461 forward 7 unknown #
vertex $-1 $195 $462 #
ellipse-curve $-1 52.757612578645691 21.142943649853173 14.310602446870872 0.57357644374324357 0 0.81915203911291934 1.228728058669379 0 -0.86036466561486535 1 I I #
face $-1 $-1 $326 $42 $-1 $463 forward single #
loop $-1 $-1 $464 $196 #
plane-surface $-1 -57.084261604663226 0 0 1 0 0 0 0 -1 forward_v I I I I #
coedge $-1 $465 $466 $467 $468 reversed $197 $-1 #
coedge $-1 $469 $199 $201 $324 forward $123 $-1 #
coedge $-1 $199 $469 $465 $470 forward $123 $-1 #
coedge $-1 $467 $202 $199 $321 forward $326 $-1 #
edge $-1 $328 -13.951154129203021 $471 -7.1220541767247898 $320 $472 forward 7 unknown #
coedge $-1 $473 $474 $200 $323 forward $315 $-1 #
edge $-1 $475 -43.375730282523996 $327 -35.033894621602066 $322 $476 forward 7 unknown #
edge $-1 $328 -15.316264563000045 $475 8.8615326271544428e-015 $201 $477 forward 7 unknown #
coedge $-1 $202 $467 $473 $478 forward $326 $-1 #
loop $-1 $-1 $467 $314 #
vertex $-1 $323 $479 #
vertex $-1 $203 $480 #
straight-curve $-1 -59.632448364586061 -24.487758282166926 17.340154768263808 1 0 0 I I #
coedge $-1 $330 $330 $-1 $481 reversed $206 $-1 #
edge $-1 $482 0 $482 6.2831853071796004 $207 $483 forward 7 unknown #
vertex $-1 $210 $484 #
ellipse-curve $-1 -50.661611490224836 -22.536586867173146 13.16923693780284 -0.54463904215088732 0 0.83867056331134215 0.41933528165567108 0 0.27231952107544366 1 I I #
coedge $-1 $334 $334 $-1 $485 reversed $213 $-1 #
edge $-1 $486 0 $486 6.2831853071796004 $214 $487 forward 7 unknown #
vertex $-1 $217 $488 #
ellipse-curve $-1 -50.661611490224836 -19.609829744682475 13.16923693780284 -0.54463904215088732 0 0.83867056331134215 0.41933528165567108 0 0.27231952107544366 1 I I #
face $-1 $-1 $489 $45 $-1 $490 reversed single #
loop $-1 $-1 $224 $218 #
plane-surface $-1 0 0 17.340154768263808 0 0 1 1 0 0 forward_v I I I I #
coedge $-1 $491 $492 $493 $494 reversed $219 $-1 #
coedge $-1 $495 $221 $223 $348 forward $137 $-1 #
coedge $-1 $221 $495 $491 $496 forward $137 $-1 #
coedge $-1 $493 $224 $221 $345 forward $339 $-1 #
edge $-1 $351 -1.7072749881195577 $497 5.1218249643586731 $344 $498 forward 7 unknown #
coedge $-1 $499 $500 $222 $347 forward $489 $-1 #
edge $-1 $501 -43.375730282523996 $350 -35.033894621602066 $346 $502 forward 7 unknown #
edge $-1 $351 -15.316264563000045 $501 8.8615326271544428e-015 $223 $503 forward 7 unknown #
coedge $-1 $224 $493 $499 $504 forward $339 $-1 #
vertex $-1 $347 $505 #
vertex $-1 $225 $506 #
straight-curve $-1 -59.632448364586061 0 17.340154768263808 1 0 0 I I #
coedge $-1 $353 $353 $-1 $507 reversed $228 $-1 #
edge $-1 $508 0 $508 6.2831853071796004 $229 $509 forward 7 unknown #
vertex $-1 $232 $510 #
ellipse-curve $-1 -50.661611490224836 1.9511714149937802 13.16923693780284 -0.54463904215088732 0 0.83867056331134215 0.41933528165567108 0 0.27231952107544366 1 I I #
coedge $-1 $357 $357 $-1 $511 reversed $235 $-1 #
edge $-1 $512 0 $512 6.2831853071796004 $236 $513 forward 7 unknown #
vertex $-1 $239 $514 #
ellipse-curve $-1 -50.661611490224836 4.8779285374844505 13.16923693780284 -0.54463904215088732 0 0.83867056331134215 0.41933528165567108 0 0.27231952107544366 1 I I #
face $-1 $-1 $255 $36 $-1 $515 reversed single #
loop $-1 $-1 $377 $240 #
plane-surface $-1 0 39.886336444931956 0 0 -1 0 0 0 -1 forward_v I I I I #
coedge $-1 $516 $375 $378 $517 forward $241 $-1 #
coedge $-1 $381 $243 $244 $369 reversed $151 $-1 #
coedge $-1 $375 $516 $243 $367 reversed $241 $-1 #
edge $-1 $382 -17.340154768263808 $518 17.340154768263808 $366 $519 forward 7 unknown #
coedge $-1 $245 $244 $516 $520 forward $97 $-1 #
edge $-1 $373 -57.084261604663226 $518 57.084261604663226 $365 $521 forward 7 unknown #
coedge $-1 $378 $377 $245 $371 reversed $362 $-1 #
edge $-1 $522 -57.084261604663226 $372 57.084261604663226 $370 $523 forward 7 unknown #
vertex $-1 $247 $524 #
vertex $-1 $384 $525 #
straight-curve $-1 57.084261604663226 0 -17.340154768263808 0 -1 0 I I #
coedge $-1 $364 $366 $248 $376 reversed $241 $-1 #
edge $-1 $379 -39.886336444931956 $382 39.886336444931956 $375 $526 forward 7 unknown #
coedge $-1 $370 $249 $254 $385 forward $362 $-1 #
coedge $-1 $249 $370 $364 $517 reversed $362 $-1 #
vertex $-1 $250 $527 #
straight-curve $-1 0 39.886336444931956 17.340154768263808 -1 0 0 I I #
coedge $-1 $251 $365 $253 $384 reversed $151 $-1 #
vertex $-1 $376 $528 #
straight-curve $-1 0 -39.886336444931956 17.340154768263808 1 0 0 I I #
edge $-1 $256 -17.340154768263808 $373 17.340154768263808 $253 $529 forward 7 unknown #
edge $-1 $257 -17.340154768263808 $372 17.340154768263808 $254 $530 forward 7 unknown #
point $-1 57.084261604663226 -39.886336444931956 17.340154768263808 #
point $-1 57.084261604663226 39.886336444931956 17.340154768263808 #
face $-1 $-1 $531 $37 $-1 $532 reversed single #
loop $-1 $-1 $533 $259 #
plane-surface $-1 0 0 -17.340154768263808 0 0 1 1 0 0 forward_v I I I I #
coedge $-1 $398 $408 $393 $534 forward $260 $-1 #
coedge $-1 $265 $262 $533 $535 reversed $159 $-1 #
coedge $-1 $262 $265 $391 $534 reversed $159 $-1 #
coedge $-1 $536 $537 $262 $395 forward $531 $-1 #
edge $-1 $538 -17.340154768263808 $539 17.340154768263808 $394 $540 forward 7 unknown #
coedge $-1 $533 $268 $263 $397 forward $389 $-1 #
edge $-1 $273 -23.174934515990245 $401 -18.712862401513888 $396 $541 forward 7 unknown #
coedge $-1 $270 $391 $264 $399 forward $260 $-1 #
edge $-1 $400 18.712862401513888 $272 23.174934515990245 $398 $542 forward 7 unknown #
vertex $-1 $399 $543 #
vertex $-1 $397 $544 #
straight-curve $-1 -39.656760860265955 -24.487758282166922 0 0 0 -1 I I #
coedge $-1 $537 $536 $267 $404 forward $531 $-1 #
edge $-1 $409 -17.340154768263808 $406 17.340154768263808 $403 $545 forward 7 unknown #
coedge $-1 $268 $533 $537 $546 forward $389 $-1 #
vertex $-1 $269 $547 #
straight-curve $-1 -44.118832974742311 -16.09352368177472 -17.340154768263808 0 1 0 I I #
coedge $-1 $391 $270 $536 $548 forward $260 $-1 #
vertex $-1 $548 $549 #
straight-curve $-1 -44.118832974742311 -16.09352368177472 17.340154768263808 0 -1 0 I I #
point $-1 -44.118832974742311 -24.487758282166922 17.340154768263808 #
point $-1 -44.118832974742311 -24.487758282166922 -17.340154768263808 #
face $-1 $-1 $426 $38 $-1 $550 reversed single #
loop $-1 $-1 $432 $275 #
plane-surface $-1 0 0 17.340154768263808 0 0 1 1 0 0 forward_v I I I I #
coedge $-1 $284 $551 $417 $552 forward $276 $-1 #
coedge $-1 $553 $278 $416 $552 reversed $167 $-1 #
coedge $-1 $278 $553 $432 $554 reversed $167 $-1 #
edge $-1 $433 -17.340154768263808 $430 17.340154768263808 $278 $555 forward 7 unknown #
coedge $-1 $551 $284 $279 $421 forward $276 $-1 #
edge $-1 $289 8.3942346003922026 $427 23.792812763157237 $420 $556 forward 7 unknown #
coedge $-1 $286 $557 $280 $423 forward $414 $-1 #
edge $-1 $428 -23.792812763157237 $288 -8.3942346003922026 $422 $558 forward 7 unknown #
coedge $-1 $559 $281 $557 $560 reversed $426 $-1 #
coedge $-1 $281 $559 $551 $561 reversed $426 $-1 #
loop $-1 $-1 $559 $413 #
vertex $-1 $561 $562 #
vertex $-1 $282 $563 #
straight-curve $-1 -44.118832974742311 39.886336444931956 0 0 0 1 I I #
vertex $-1 $285 $564 #
straight-curve $-1 -20.943898458752066 24.487758282166922 -17.340154768263808 -1 0 0 I I #
coedge $-1 $557 $286 $418 $554 forward $414 $-1 #
vertex $-1 $287 $565 #
straight-curve $-1 -20.943898458752066 24.487758282166922 17.340154768263808 1 0 0 I I #
point $-1 -44.118832974742311 24.487758282166922 17.340154768263808 #
point $-1 -44.118832974742311 24.487758282166922 -17.340154768263808 #
loop $-1 $-1 $299 $291 #
plane-surface $-1 57.084261604663226 0 0 -1 0 0 0 0 1 forward_v I I I I #
coedge $-1 $440 $294 $296 $444 reversed $175 $-1 #
coedge $-1 $294 $439 $566 $567 reversed $175 $-1 #
coedge $-1 $302 $297 $294 $442 forward $292 $-1 #
edge $-1 $445 33.907334280100059 $568 42.560632332135114 $441 $569 forward 7 unknown #
coedge $-1 $296 $295 $448 $570 reversed $109 $-1 #
edge $-1 $571 -114.16852320932645 $445 -103.6047967716728 $439 $572 forward 7 unknown #
vertex $-1 $298 $573 #
straight-curve $-1 48.430963552628171 9.3171663378089384 17.340154768263815 0 -1 0 I I #
coedge $-1 $566 $299 $302 $452 reversed $437 $-1 #
coedge $-1 $299 $566 $443 $570 forward $437 $-1 #
vertex $-1 $300 $574 #
straight-curve $-1 57.084261604663226 24.487758282166922 85.143402122365899 0 0 1 I I #
straight-curve $-1 -36.437116984767201 24.487758282166922 76.765425655301371 0.81915203911291934 0 -0.57357644374324357 I I #
edge $-1 $568 12.780907069068832 $303 24.487758282166922 $447 $575 forward 7 unknown #
point $-1 57.084261604663226 24.487758282166922 17.340154768263808 #
point $-1 48.430963552628171 24.487758282166922 17.340154768263808 #
edge $-1 $576 1 $576 0 $306 $-1 forward 7 unknown #
vertex $-1 $307 $577 #
ellipse-curve $-1 50.3766497955624 16.125721701382567 10.910235259393213 0.57357644374324357 0 0.81915203911291934 1.228728058669379 0 -0.86036466561486535 1 I I #
point $-1 53.986340637315074 16.125721701382567 13.450237781256011 #
edge $-1 $578 1 $578 0 $310 $-1 forward 7 unknown #
vertex $-1 $311 $579 #
ellipse-curve $-1 50.3766497955624 21.142943649853173 10.910235259393213 0.57357644374324357 0 0.81915203911291934 1.228728058669379 0 -0.86036466561486535 1 I I #
point $-1 53.986340637315074 21.142943649853173 13.450237781256011 #
plane-surface $-1 0 0 17.340154768263808 0 0 1 1 0 0 forward_v I I I I #
coedge $-1 $474 $473 $466 $580 forward $315 $-1 #
coedge $-1 $466 $317 $319 $470 reversed $197 $-1 #
coedge $-1 $317 $465 $464 $580 reversed $197 $-1 #
coedge $-1 $325 $320 $317 $468 forward $326 $-1 #
edge $-1 $471 -15.393486988799637 $581 -2.5481867599228352 $467 $582 forward 7 unknown #
coedge $-1 $319 $318 $474 $583 reversed $123 $-1 #
edge $-1 $584 -8.8615326271544428e-015 $471 15.316264563000045 $465 $585 forward 7 unknown #
vertex $-1 $321 $586 #
straight-curve $-1 -44.238961375786431 -10.536604152963905 17.340154768263808 0 1 0 I I #
coedge $-1 $464 $322 $325 $478 reversed $315 $-1 #
coedge $-1 $322 $464 $469 $583 forward $315 $-1 #
vertex $-1 $323 $587 #
straight-curve $-1 -57.084261604663226 -24.487758282166926 52.374049389865874 0 0 1 I I #
straight-curve $-1 -57.084261604663219 -24.487758282166926 8.9983191073418851 -0.83867056331134215 0 -0.54463904215088732 I I #
edge $-1 $581 17.658658329688695 $327 24.487758282166926 $473 $588 forward 7 unknown #
point $-1 -57.084261604663226 -24.487758282166926 17.340154768263808 #
point $-1 -44.238961375786424 -24.487758282166926 17.340154768263808 #
edge $-1 $589 1 $589 0 $330 $-1 forward 7 unknown #
vertex $-1 $331 $590 #
ellipse-curve $-1 -49.698715526867744 -22.536586867173146 11.68650720765033 -0.54463904215088732 0 0.83867056331134215 0.41933528165567108 0 0.27231952107544366 1 I I #
point $-1 -50.242276208569166 -22.536586867173146 13.441556458878296 #
edge $-1 $591 1 $591 0 $334 $-1 forward 7 unknown #
vertex $-1 $335 $592 #
ellipse-curve $-1 -49.698715526867744 -19.609829744682475 11.68650720765033 -0.54463904215088732 0 0.83867056331134215 0.41933528165567108 0 0.27231952107544366 1 I I #
point $-1 -50.242276208569166 -19.609829744682475 13.441556458878296 #
loop $-1 $-1 $346 $338 #
plane-surface $-1 -57.084261604663226 0 0 1 0 0 0 0 -1 forward_v I I I I #
coedge $-1 $492 $341 $343 $496 reversed $219 $-1 #
coedge $-1 $341 $491 $593 $594 reversed $219 $-1 #
coedge $-1 $349 $344 $341 $494 forward $339 $-1 #
edge $-1 $497 -15.393486988799637 $595 -2.5481867599228352 $493 $596 forward 7 unknown #
coedge $-1 $343 $342 $500 $597 reversed $137 $-1 #
edge $-1 $598 -8.8615326271544428e-015 $497 15.316264563000045 $491 $599 forward 7 unknown #
vertex $-1 $345 $600 #
straight-curve $-1 -44.238961375786431 1.7072749881195577 17.340154768263808 0 1 0 I I #
coedge $-1 $593 $346 $349 $504 reversed $489 $-1 #
coedge $-1 $346 $593 $495 $597 forward $489 $-1 #
vertex $-1 $347 $601 #
straight-curve $-1 -57.084261604663226 0 52.374049389865874 0 0 1 I I #
straight-curve $-1 -57.084261604663219 0 8.9983191073418851 -0.83867056331134215 0 -0.54463904215088732 I I #
edge $-1 $595 -6.8290999524782308 $350 0 $499 $602 forward 7 unknown #
point $-1 -57.084261604663226 0 17.340154768263808 #
point $-1 -44.238961375786424 0 17.340154768263808 #
edge $-1 $603 1 $603 0 $353 $-1 forward 7 unknown #
vertex $-1 $354 $604 #
ellipse-curve $-1 -49.698715526867744 1.9511714149937802 11.68650720765033 -0.54463904215088732 0 0.83867056331134215 0.41933528165567108 0 0.27231952107544366 1 I I #
point $-1 -50.242276208569166 1.9511714149937802 13.441556458878296 #
edge $-1 $605 1 $605 0 $357 $-1 forward 7 unknown #
vertex $-1 $358 $606 #
ellipse-curve $-1 -49.698715526867744 4.8779285374844505 11.68650720765033 -0.54463904215088732 0 0.83867056331134215 0.41933528165567108 0 0.27231952107544366 1 I I #
point $-1 -50.242276208569166 4.8779285374844505 13.441556458878296 #
plane-surface $-1 57.084261604663226 0 0 -1 0 0 0 0 1 forward_v I I I I #
coedge $-1 $366 $364 $368 $520 reversed $241 $-1 #
edge $-1 $379 -17.340154768263808 $522 17.340154768263808 $378 $607 forward 7 unknown #
vertex $-1 $520 $608 #
straight-curve $-1 -57.084261604663226 -39.886336444931956 0 0 0 -1 I I #
edge $-1 $518 -39.886336444931956 $522 39.886336444931956 $516 $609 forward 7 unknown #
straight-curve $-1 0 -39.886336444931956 -17.340154768263808 -1 0 0 I I #
vertex $-1 $371 $610 #
straight-curve $-1 0 39.886336444931956 -17.340154768263808 1 0 0 I I #
point $-1 57.084261604663226 39.886336444931956 -17.340154768263808 #
point $-1 57.084261604663226 -39.886336444931956 -17.340154768263808 #
straight-curve $-1 -57.084261604663226 0 17.340154768263808 0 -1 0 I I #
point $-1 -57.084261604663226 39.886336444931956 17.340154768263808 #
point $-1 -57.084261604663226 -39.886336444931956 17.340154768263808 #
straight-curve $-1 57.084261604663226 -39.886336444931956 0 0 0 -1 I I #
straight-curve $-1 57.084261604663226 39.886336444931956 0 0 0 -1 I I #
loop $-1 $-1 $394 $388 #
plane-surface $-1 0 -39.886336444931956 0 0 1 0 0 0 1 forward_v I I I I #
coedge $-1 $405 $396 $392 $535 forward $389 $-1 #
edge $-1 $539 -23.792812763157237 $400 -8.3942346003922026 $391 $611 forward 7 unknown #
edge $-1 $401 8.3942346003922026 $538 23.792812763157237 $533 $612 forward 7 unknown #
coedge $-1 $403 $394 $408 $548 reversed $531 $-1 #
coedge $-1 $394 $403 $405 $546 reversed $531 $-1 #
vertex $-1 $546 $613 #
vertex $-1 $395 $614 #
straight-curve $-1 -39.656760860265955 -39.886336444931956 0 0 0 1 I I #
straight-curve $-1 -20.943898458752066 -24.487758282166922 -17.340154768263808 1 0 0 I I #
straight-curve $-1 -20.943898458752066 -24.487758282166922 17.340154768263808 -1 0 0 I I #
point $-1 -39.656760860265955 -24.487758282166922 17.340154768263808 #
point $-1 -39.656760860265955 -24.487758282166922 -17.340154768263808 #
straight-curve $-1 -44.118832974742311 -39.886336444931956 0 0 0 -1 I I #
edge $-1 $538 39.656760860265955 $406 44.118832974742311 $537 $615 forward 7 unknown #
point $-1 -44.118832974742311 -39.886336444931956 -17.340154768263808 #
edge $-1 $409 -44.118832974742311 $539 -39.656760860265955 $536 $616 forward 7 unknown #
point $-1 -44.118832974742311 -39.886336444931956 17.340154768263808 #
plane-surface $-1 0 39.886336444931956 0 0 -1 0 0 0 -1 forward_v I I I I #
coedge $-1 $416 $420 $425 $561 forward $276 $-1 #
edge $-1 $617 -23.792812763157237 $430 -8.3942346003922026 $416 $618 forward 7 unknown #
coedge $-1 $418 $417 $559 $619 reversed $167 $-1 #
edge $-1 $433 8.3942346003922026 $620 23.792812763157237 $432 $621 forward 7 unknown #
straight-curve $-1 -39.656760860265955 24.487758282166922 0 0 0 -1 I I #
straight-curve $-1 -44.118832974742311 16.09352368177472 -17.340154768263808 0 1 0 I I #
coedge $-1 $422 $432 $424 $560 forward $414 $-1 #
straight-curve $-1 -44.118832974742311 16.09352368177472 17.340154768263808 0 -1 0 I I #
coedge $-1 $425 $424 $553 $619 forward $426 $-1 #
edge $-1 $620 39.656760860265955 $428 44.118832974742311 $424 $622 forward 7 unknown #
edge $-1 $427 -44.118832974742311 $617 -39.656760860265955 $425 $623 forward 7 unknown #
point $-1 -44.118832974742311 39.886336444931956 -17.340154768263808 #
point $-1 -44.118832974742311 39.886336444931956 17.340154768263808 #
point $-1 -39.656760860265955 24.487758282166922 -17.340154768263808 #
point $-1 -39.656760860265955 24.487758282166922 17.340154768263808 #
coedge $-1 $448 $447 $440 $567 forward $437 $-1 #
edge $-1 $568 67.803247354102098 $571 73.862351996887952 $566 $624 forward 7 unknown #
vertex $-1 $452 $625 #
straight-curve $-1 14.523629272528112 12.780907069068832 17.340154768263801 1 0 0 I I #
edge $-1 $571 3.4637407312598931 $449 15.170591944357984 $448 $626 forward 7 unknown #
vertex $-1 $570 $627 #
straight-curve $-1 -36.437116984767201 12.780907069068832 76.765425655301371 -0.81915203911291934 0 0.57357644374324357 I I #
point $-1 48.430963552628171 12.780907069068832 17.340154768263808 #
point $-1 57.084261604663226 24.487758282166922 11.281050125477947 #
straight-curve $-1 57.084261604663226 0 17.340154768263808 0 1 0 I I #
vertex $-1 $455 $628 #
point $-1 51.605377854231776 16.125721701382567 10.049870593778348 #
vertex $-1 $459 $629 #
point $-1 51.605377854231776 21.142943649853173 10.049870593778348 #
edge $-1 $581 35.033894621602066 $584 43.375730282523996 $464 $630 forward 7 unknown #
vertex $-1 $478 $631 #
straight-curve $-1 -59.632448364586061 -17.658658329688695 17.340154768263808 -1 0 0 I I #
edge $-1 $584 7.1220541767247898 $475 13.951154129203021 $474 $632 forward 7 unknown #
vertex $-1 $583 $633 #
straight-curve $-1 -57.084261604663219 -17.658658329688695 8.9983191073418851 0.83867056331134215 0 0.54463904215088732 I I #
point $-1 -44.238961375786424 -17.658658329688695 17.340154768263808 #
point $-1 -57.084261604663226 -24.487758282166926 8.9983191073418798 #
straight-curve $-1 -57.084261604663226 0 17.340154768263808 0 -1 0 I I #
vertex $-1 $481 $634 #
point $-1 -49.279380245212074 -22.536586867173146 11.958826728725773 #
vertex $-1 $485 $635 #
point $-1 -49.279380245212074 -19.609829744682475 11.958826728725773 #
coedge $-1 $500 $499 $492 $594 forward $489 $-1 #
edge $-1 $595 35.033894621602066 $598 43.375730282523996 $593 $636 forward 7 unknown #
vertex $-1 $504 $637 #
straight-curve $-1 -59.632448364586061 6.8290999524782308 17.340154768263808 -1 0 0 I I #
edge $-1 $598 -5.1218249643586731 $501 1.7072749881195577 $500 $638 forward 7 unknown #
vertex $-1 $597 $639 #
straight-curve $-1 -57.084261604663219 6.8290999524782308 8.9983191073418851 0.83867056331134215 0 0.54463904215088732 I I #
point $-1 -44.238961375786424 6.8290999524782308 17.340154768263808 #
point $-1 -57.084261604663226 0 8.9983191073418798 #
straight-curve $-1 -57.084261604663226 0 17.340154768263808 0 -1 0 I I #
vertex $-1 $507 $640 #
point $-1 -49.279380245212074 1.9511714149937802 11.958826728725773 #
vertex $-1 $511 $641 #
point $-1 -49.279380245212074 4.8779285374844505 11.958826728725773 #
straight-curve $-1 -57.084261604663226 39.886336444931956 0 0 0 -1 I I #
point $-1 -57.084261604663226 -39.886336444931956 -17.340154768263808 #
straight-curve $-1 -57.084261604663226 0 -17.340154768263808 0 1 0 I I #
point $-1 -57.084261604663226 39.886336444931956 -17.340154768263808 #
straight-curve $-1 -39.656760860265955 -16.09352368177472 17.340154768263808 0 1 0 I I #
straight-curve $-1 -39.656760860265955 -16.09352368177472 -17.340154768263808 0 -1 0 I I #
point $-1 -39.656760860265955 -39.886336444931956 -17.340154768263808 #
point $-1 -39.656760860265955 -39.886336444931956 17.340154768263808 #
straight-curve $-1 0 -39.886336444931956 -17.340154768263808 -1 0 0 I I #
straight-curve $-1 0 -39.886336444931956 17.340154768263808 1 0 0 I I #
vertex $-1 $619 $642 #
straight-curve $-1 -39.656760860265955 16.09352368177472 -17.340154768263808 0 -1 0 I I #
edge $-1 $620 -17.340154768263808 $617 17.340154768263808 $559 $643 forward 7 unknown #
vertex $-1 $560 $644 #
straight-curve $-1 -39.656760860265955 16.09352368177472 17.340154768263808 0 1 0 I I #
straight-curve $-1 0 39.886336444931956 17.340154768263808 -1 0 0 I I #
straight-curve $-1 0 39.886336444931956 -17.340154768263808 1 0 0 I I #
straight-curve $-1 57.084261604663226 12.780907069068832 85.143402122365899 0 0 -1 I I #
point $-1 57.084261604663226 12.780907069068832 17.340154768263808 #
straight-curve $-1 57.084261604663226 9.3171663378089384 11.281050125477936 0 1 0 I I #
point $-1 57.084261604663226 12.780907069068832 11.281050125477947 #
point $-1 49.516285129947534 16.125721701382567 9.6815072007238339 #
point $-1 49.516285129947534 21.142943649853173 9.6815072007238339 #
straight-curve $-1 -57.084261604663226 -17.658658329688695 52.374049389865874 0 0 -1 I I #
point $-1 -57.084261604663226 -17.658658329688695 17.340154768263808 #
straight-curve $-1 -57.084261604663226 -10.536604152963905 8.9983191073418816 0 -1 0 I I #
point $-1 -57.084261604663226 -17.658658329688695 8.9983191073418798 #
point $-1 -49.426396005792299 -22.536586867173146 11.26717192599466 #
point $-1 -49.426396005792299 -19.609829744682475 11.26717192599466 #
straight-curve $-1 -57.084261604663226 6.8290999524782308 52.374049389865874 0 0 -1 I I #
point $-1 -57.084261604663226 6.8290999524782308 17.340154768263808 #
straight-curve $-1 -57.084261604663226 1.7072749881195577 8.9983191073418816 0 -1 0 I I #
point $-1 -57.084261604663226 6.8290999524782308 8.9983191073418798 #
point $-1 -49.426396005792299 1.9511714149937802 11.26717192599466 #
point $-1 -49.426396005792299 4.8779285374844505 11.26717192599466 #
point $-1 -39.656760860265955 39.886336444931956 -17.340154768263808 #
straight-curve $-1 -39.656760860265955 39.886336444931956 0 0 0 -1 I I #
point $-1 -39.656760860265955 39.886336444931956 17.340154768263808 #
End-of-ACIS-data 