500 0 7 0           
7 Unknown 11 ACIS 5.0 NT 24 Fri Mar 26 20:16:34 1999 
-1 9.9999999999999995e-007 1e-010 
body $-1 $7 $-1 $8 #
body $-1 $9 $-1 $10 #
body $-1 $11 $-1 $12 #
body $-1 $13 $-1 $14 #
body $-1 $15 $-1 $16 #
body $-1 $17 $-1 $18 #
body $-1 $19 $-1 $20 #
lump $-1 $-1 $21 $0 #
transform $-1 1 0 0 0 1 0 0 0 1 57.074495681630907 37.714594038129121 8.5532606346673532 1 rotate no_reflect no_shear #
lump $-1 $-1 $22 $1 #
transform $-1 1 0 0 0 1 0 0 0 1 57.074495681630907 37.714594038129121 8.5532606346673532 1 rotate no_reflect no_shear #
lump $-1 $-1 $23 $2 #
transform $-1 1 0 0 0 1 0 0 0 1 57.074495681630907 37.714594038129121 8.5532606346673532 1 rotate no_reflect no_shear #
lump $-1 $-1 $24 $3 #
transform $-1 1 0 0 0 1 0 0 0 1 57.074495681630907 37.714594038129121 8.5532606346673532 1 rotate no_reflect no_shear #
lump $-1 $-1 $25 $4 #
transform $-1 1 0 0 0 1 0 0 0 1 57.074495681630907 37.714594038129121 8.5532606346673532 1 rotate no_reflect no_shear #
lump $-1 $-1 $26 $5 #
transform $-1 1 0 0 0 1 0 0 0 1 57.074495681630907 37.714594038129121 8.5532606346673532 1 rotate no_reflect no_shear #
lump $-1 $-1 $27 $6 #
transform $-1 1 0 0 0 1 0 0 0 1 57.074495681630907 37.714594038129121 8.5532606346673532 1 rotate no_reflect no_shear #
shell $-1 $-1 $-1 $28 $-1 $7 #
shell $-1 $-1 $-1 $29 $-1 $9 #
shell $-1 $-1 $-1 $30 $-1 $11 #
shell $-1 $-1 $-1 $31 $-1 $13 #
shell $-1 $-1 $-1 $32 $-1 $15 #
shell $-1 $-1 $-1 $33 $-1 $17 #
shell $-1 $-1 $-1 $34 $-1 $19 #
face $-1 $35 $36 $21 $-1 $37 forward single #
face $-1 $38 $39 $22 $-1 $40 reversed single #
face $-1 $41 $42 $23 $-1 $43 forward single #
face $-1 $44 $45 $24 $-1 $46 forward single #
face $-1 $47 $48 $25 $-1 $49 reversed single #
face $-1 $50 $51 $26 $-1 $52 forward single #
face $-1 $53 $54 $27 $-1 $55 forward single #
face $-1 $56 $57 $21 $-1 $58 reversed single #
loop $-1 $-1 $59 $28 #
plane-surface $-1 0 0 8.5532606346673532 0 0 1 1 0 0 forward_v I I I I #
face $-1 $60 $61 $22 $-1 $62 reversed single #
loop $-1 $-1 $63 $29 #
plane-surface $-1 20.760411691805317 15.380031476030663 158.10656692692606 0 1 0 0.52991927123019833 0 0.84804809178421925 forward_v I I I I #
face $-1 $64 $65 $23 $-1 $66 forward single #
loop $-1 $67 $68 $30 #
cone-surface $-1 48.582584818731405 21.761335065201649 1.0049228338286618 -0.52991927123019833 0 -0.84804809178421925 2.1201202294605483 0 -1.3247981780754958 1 I I 0 1 2.5 forward I I I I #
face $-1 $69 $70 $24 $-1 $71 forward single #
loop $-1 $72 $73 $31 #
cone-surface $-1 48.582584818731405 31.333290448958138 1.0049228338286618 -0.52991927123019833 0 -0.84804809178421925 2.1201202294605483 0 -1.3247981780754958 1 I I 0 1 2.5 forward I I I I #
face $-1 $74 $75 $25 $-1 $76 reversed single #
loop $-1 $-1 $77 $32 #
plane-surface $-1 -149.42297051943797 -28.531491941743049 70.748513206127086 0 1 0 -0.80901700255871778 0 0.5877852410284794 forward_v I I I I #
face $-1 $78 $79 $26 $-1 $80 forward single #
loop $-1 $81 $82 $33 #
cone-surface $-1 -54.001213508828918 -25.843363776328587 5.1636951464363801 0.80901700255871778 0 -0.5877852410284794 0.5877852410284794 0 0.80901700255871778 1 I I 0 1 1 forward I I I I #
face $-1 $83 $84 $27 $-1 $85 forward single #
loop $-1 $86 $87 $34 #
cone-surface $-1 -54.001213508828918 -21.811171528206891 5.1636951464363801 0.80901700255871778 0 -0.5877852410284794 0.5877852410284794 0 0.80901700255871778 1 I I 0 1 1 forward I I I I #
face $-1 $88 $89 $21 $-1 $90 reversed single #
loop $-1 $-1 $91 $35 #
plane-surface $-1 0 0 -8.5532606346673532 0 0 1 1 0 0 forward_v I I I I #
coedge $-1 $92 $93 $94 $95 forward $36 $-1 #
face $-1 $96 $97 $22 $-1 $98 forward single #
loop $-1 $-1 $99 $38 #
plane-surface $-1 -39.729338623076586 26.547312757079894 61.302732622218556 0.52991927123019833 0 0.84804809178421925 0.84804809178421925 0 -0.52991927123019833 forward_v I I I I #
coedge $-1 $100 $101 $102 $103 reversed $39 $-1 #
face $-1 $-1 $104 $23 $-1 $105 forward single #
loop $-1 $106 $107 $41 #
cone-surface $-1 45.621792088892036 21.761335065201649 -3.7333359180749426 -0.52991927123019833 0 -0.84804809178421925 1.0600601147302742 0 -0.66239908903774791 1 I I -0.70710678118654746 0.70710678118654746 1.25 forward I I I I #
loop $-1 $-1 $108 $30 #
coedge $-1 $68 $68 $109 $110 reversed $42 $-1 #
face $-1 $-1 $111 $24 $-1 $112 forward single #
loop $-1 $113 $114 $44 #
cone-surface $-1 45.621792088892036 31.333290448958138 -3.7333359180749426 -0.52991927123019833 0 -0.84804809178421925 1.0600601147302742 0 -0.66239908903774791 1 I I -0.70710678118654746 0.70710678118654746 1.25 forward I I I I #
loop $-1 $-1 $115 $31 #
coedge $-1 $73 $73 $116 $117 reversed $45 $-1 #
face $-1 $118 $119 $25 $-1 $120 reversed single #
loop $-1 $-1 $121 $47 #
plane-surface $-1 -57.074495681630935 -23.827267652267736 3.6534208045144254 -0.80901700255871778 0 0.5877852410284794 0.5877852410284794 0 0.80901700255871778 forward_v I I I I #
coedge $-1 $122 $123 $124 $125 reversed $48 $-1 #
face $-1 $-1 $126 $26 $-1 $127 forward single #
loop $-1 $128 $129 $50 #
cone-surface $-1 -52.303393791141872 -25.843363776328587 3.9301569527676321 0.80901700255871778 0 -0.5877852410284794 0.2938926205142397 0 0.40450850127935889 1 I I -0.70710678118654746 0.70710678118654746 0.5 forward I I I I #
loop $-1 $-1 $130 $33 #
coedge $-1 $82 $82 $131 $132 reversed $51 $-1 #
face $-1 $-1 $133 $27 $-1 $134 forward single #
loop $-1 $135 $136 $53 #
cone-surface $-1 -52.303393791141872 -21.811171528206891 3.9301569527676321 0.80901700255871778 0 -0.5877852410284794 0.2938926205142397 0 0.40450850127935889 1 I I -0.70710678118654746 0.70710678118654746 0.5 forward I I I I #
loop $-1 $-1 $137 $34 #
coedge $-1 $87 $87 $138 $139 reversed $54 $-1 #
face $-1 $140 $141 $21 $-1 $142 reversed single #
loop $-1 $-1 $143 $56 #
plane-surface $-1 0 -37.714594038129121 0 0 1 0 0 0 1 forward_v I I I I #
coedge $-1 $144 $145 $146 $147 forward $57 $-1 #
coedge $-1 $148 $59 $149 $150 forward $36 $-1 #
coedge $-1 $59 $148 $151 $152 forward $36 $-1 #
coedge $-1 $153 $154 $59 $95 reversed $155 $-1 #
edge $-1 $156 -37.714594038129121 $157 37.714594038129121 $94 $158 forward 7 unknown #
face $-1 $159 $160 $22 $-1 $161 reversed single #
loop $-1 $-1 $162 $60 #
plane-surface $-1 0 0 8.5532606346673532 0 0 1 1 0 0 forward_v I I I I #
coedge $-1 $163 $164 $165 $166 reversed $61 $-1 #
coedge $-1 $101 $63 $167 $168 reversed $39 $-1 #
coedge $-1 $63 $100 $163 $169 reversed $39 $-1 #
coedge $-1 $165 $170 $63 $103 forward $160 $-1 #
edge $-1 $171 70.500022828795679 $172 78.240301156126378 $102 $173 forward 7 unknown #
loop $-1 $-1 $109 $64 #
plane-surface $-1 -39.729338623076586 26.547312757079894 61.302732622218556 0.52991927123019833 0 0.84804809178421925 0.84804809178421925 0 -0.52991927123019833 forward_v I I I I #
loop $-1 $-1 $174 $41 #
coedge $-1 $107 $107 $108 $175 reversed $65 $-1 #
coedge $-1 $108 $108 $107 $175 forward $67 $-1 #
coedge $-1 $109 $109 $68 $110 forward $104 $-1 #
edge $-1 $176 0 $176 6.2831853071796004 $109 $177 forward 7 unknown #
loop $-1 $-1 $116 $69 #
plane-surface $-1 -39.729338623076586 26.547312757079894 61.302732622218556 0.52991927123019833 0 0.84804809178421925 0.84804809178421925 0 -0.52991927123019833 forward_v I I I I #
loop $-1 $-1 $178 $44 #
coedge $-1 $114 $114 $115 $179 reversed $70 $-1 #
coedge $-1 $115 $115 $114 $179 forward $72 $-1 #
coedge $-1 $116 $116 $73 $117 forward $111 $-1 #
edge $-1 $180 0 $180 6.2831853071796004 $116 $181 forward 7 unknown #
face $-1 $182 $183 $25 $-1 $184 reversed single #
loop $-1 $-1 $185 $74 #
plane-surface $-1 -149.42297051943797 -19.123043362792423 70.748513206127086 0 -1 0 0.80901700255871778 0 -0.5877852410284794 forward_v I I I I #
coedge $-1 $186 $187 $188 $189 reversed $75 $-1 #
coedge $-1 $123 $77 $190 $191 reversed $48 $-1 #
coedge $-1 $77 $122 $186 $192 reversed $48 $-1 #
coedge $-1 $188 $193 $77 $125 forward $194 $-1 #
edge $-1 $195 17.636989578088077 $196 21.196931490876651 $124 $197 forward 7 unknown #
loop $-1 $-1 $131 $78 #
plane-surface $-1 -57.074495681630935 -23.827267652267736 3.6534208045144254 -0.80901700255871778 0 0.5877852410284794 0.5877852410284794 0 0.80901700255871778 forward_v I I I I #
loop $-1 $-1 $198 $50 #
coedge $-1 $129 $129 $130 $199 reversed $79 $-1 #
coedge $-1 $130 $130 $129 $199 forward $81 $-1 #
coedge $-1 $131 $131 $82 $132 forward $126 $-1 #
edge $-1 $200 0 $200 6.2831853071796004 $131 $201 forward 7 unknown #
loop $-1 $-1 $138 $83 #
plane-surface $-1 -57.074495681630935 -23.827267652267736 3.6534208045144254 -0.80901700255871778 0 0.5877852410284794 0.5877852410284794 0 0.80901700255871778 forward_v I I I I #
loop $-1 $-1 $202 $53 #
coedge $-1 $136 $136 $137 $203 reversed $84 $-1 #
coedge $-1 $137 $137 $136 $203 forward $86 $-1 #
coedge $-1 $138 $138 $87 $139 forward $133 $-1 #
edge $-1 $204 0 $204 6.2831853071796004 $138 $205 forward 7 unknown #
face $-1 $206 $207 $21 $-1 $208 reversed single #
loop $-1 $-1 $209 $88 #
plane-surface $-1 -57.074495681630907 0 0 1 0 0 0 0 -1 forward_v I I I I #
coedge $-1 $210 $151 $211 $212 forward $89 $-1 #
coedge $-1 $213 $91 $210 $214 forward $57 $-1 #
coedge $-1 $91 $213 $215 $216 forward $57 $-1 #
coedge $-1 $154 $153 $91 $147 reversed $155 $-1 #
edge $-1 $217 -37.714594038129121 $218 37.714594038129121 $146 $219 forward 7 unknown #
coedge $-1 $93 $92 $220 $221 forward $36 $-1 #
coedge $-1 $222 $223 $92 $150 reversed $207 $-1 #
edge $-1 $157 -57.074495681630907 $224 57.074495681630907 $149 $225 forward 7 unknown #
coedge $-1 $143 $226 $93 $152 reversed $89 $-1 #
edge $-1 $227 -57.074495681630907 $156 57.074495681630907 $151 $228 forward 7 unknown #
coedge $-1 $146 $94 $226 $229 forward $155 $-1 #
coedge $-1 $94 $146 $222 $230 reversed $155 $-1 #
loop $-1 $-1 $153 $206 #
vertex $-1 $95 $231 #
vertex $-1 $95 $232 #
straight-curve $-1 57.074495681630907 0 8.5532606346673532 0 1 0 I I #
face $-1 $-1 $233 $22 $-1 $234 reversed single #
loop $-1 $-1 $102 $96 #
plane-surface $-1 57.074495681630907 0 0 -1 0 0 0 0 1 forward_v I I I I #
coedge $-1 $167 $235 $236 $237 forward $97 $-1 #
coedge $-1 $236 $99 $101 $169 forward $61 $-1 #
coedge $-1 $99 $236 $238 $239 reversed $61 $-1 #
coedge $-1 $240 $102 $99 $166 forward $160 $-1 #
edge $-1 $172 2.1063750974907158 $241 24.440937659589174 $165 $242 forward 7 unknown #
coedge $-1 $243 $162 $100 $168 forward $97 $-1 #
edge $-1 $244 34.307255391532571 $171 46.694289835728249 $167 $245 forward 7 unknown #
edge $-1 $172 -114.14899136326181 $244 -99.542467789658289 $101 $246 forward 7 unknown #
coedge $-1 $102 $240 $243 $247 reversed $160 $-1 #
vertex $-1 $247 $248 #
vertex $-1 $103 $249 #
straight-curve $-1 57.074495681630907 15.380031476030663 79.053283463463032 0 0 -1 I I #
coedge $-1 $174 $174 $-1 $250 reversed $106 $-1 #
edge $-1 $251 0 $251 6.2831853071796004 $107 $252 forward 7 unknown #
vertex $-1 $110 $253 #
ellipse-curve $-1 50.880978459533047 21.761335065201649 4.6831214710020195 0.52991927123019833 0 0.84804809178421925 2.1201202294605483 0 -1.3247981780754958 1 I I #
coedge $-1 $178 $178 $-1 $254 reversed $113 $-1 #
edge $-1 $255 0 $255 6.2831853071796004 $114 $256 forward 7 unknown #
vertex $-1 $117 $257 #
ellipse-curve $-1 50.880978459533047 31.333290448958138 4.6831214710020195 0.52991927123019833 0 0.84804809178421925 2.1201202294605483 0 -1.3247981780754958 1 I I #
face $-1 $-1 $194 $25 $-1 $258 forward single #
loop $-1 $-1 $259 $118 #
plane-surface $-1 -57.074495681630907 0 0 1 0 0 0 0 -1 forward_v I I I I #
coedge $-1 $260 $261 $262 $263 reversed $119 $-1 #
coedge $-1 $264 $121 $123 $192 forward $75 $-1 #
coedge $-1 $121 $264 $260 $265 forward $75 $-1 #
coedge $-1 $262 $124 $121 $189 forward $194 $-1 #
edge $-1 $196 -16.617858115609181 $266 -7.2094095366585549 $188 $267 forward 7 unknown #
coedge $-1 $268 $269 $122 $191 forward $183 $-1 #
edge $-1 $270 -31.720835798549079 $195 -26.82099596839619 $190 $271 forward 7 unknown #
edge $-1 $196 -6.0565350476639725 $270 -4.8322124813089328e-014 $123 $272 forward 7 unknown #
coedge $-1 $124 $262 $268 $273 forward $194 $-1 #
loop $-1 $-1 $262 $182 #
vertex $-1 $191 $274 #
vertex $-1 $125 $275 #
straight-curve $-1 -74.711485259718984 -28.531491941743049 8.5532606346673532 1 0 0 I I #
coedge $-1 $198 $198 $-1 $276 reversed $128 $-1 #
edge $-1 $277 0 $277 6.2831853071796004 $129 $278 forward 7 unknown #
vertex $-1 $132 $279 #
ellipse-curve $-1 -55.294524725236627 -25.843363776328587 6.1033407195909026 -0.80901700255871778 0 0.5877852410284794 0.5877852410284794 0 0.80901700255871778 1 I I #
coedge $-1 $202 $202 $-1 $280 reversed $135 $-1 #
edge $-1 $281 0 $281 6.2831853071796004 $136 $282 forward 7 unknown #
vertex $-1 $139 $283 #
ellipse-curve $-1 -55.294524725236627 -21.811171528206891 6.1033407195909026 -0.80901700255871778 0 0.5877852410284794 0.5877852410284794 0 0.80901700255871778 1 I I #
face $-1 $-1 $155 $21 $-1 $284 reversed single #
loop $-1 $-1 $222 $140 #
plane-surface $-1 0 37.714594038129121 0 0 -1 0 0 0 -1 forward_v I I I I #
coedge $-1 $285 $220 $223 $286 forward $141 $-1 #
coedge $-1 $226 $143 $144 $214 reversed $89 $-1 #
coedge $-1 $220 $285 $143 $212 reversed $141 $-1 #
edge $-1 $227 -8.5532606346673532 $287 8.5532606346673532 $211 $288 forward 7 unknown #
coedge $-1 $145 $144 $285 $289 forward $57 $-1 #
edge $-1 $218 -57.074495681630907 $287 57.074495681630907 $210 $290 forward 7 unknown #
coedge $-1 $223 $222 $145 $216 reversed $207 $-1 #
edge $-1 $291 -57.074495681630907 $217 57.074495681630907 $215 $292 forward 7 unknown #
vertex $-1 $147 $293 #
vertex $-1 $229 $294 #
straight-curve $-1 57.074495681630907 0 -8.5532606346673532 0 -1 0 I I #
coedge $-1 $209 $211 $148 $221 reversed $141 $-1 #
edge $-1 $224 -37.714594038129121 $227 37.714594038129121 $220 $295 forward 7 unknown #
coedge $-1 $215 $149 $154 $230 forward $207 $-1 #
coedge $-1 $149 $215 $209 $286 reversed $207 $-1 #
vertex $-1 $150 $296 #
straight-curve $-1 0 37.714594038129121 8.5532606346673532 -1 0 0 I I #
coedge $-1 $151 $210 $153 $229 reversed $89 $-1 #
vertex $-1 $221 $297 #
straight-curve $-1 0 -37.714594038129121 8.5532606346673532 1 0 0 I I #
edge $-1 $156 -8.5532606346673532 $218 8.5532606346673532 $153 $298 forward 7 unknown #
edge $-1 $157 -8.5532606346673532 $217 8.5532606346673532 $154 $299 forward 7 unknown #
point $-1 57.074495681630907 -37.714594038129121 8.5532606346673532 #
point $-1 57.074495681630907 37.714594038129121 8.5532606346673532 #
loop $-1 $-1 $238 $159 #
plane-surface $-1 0 37.714594038129121 0 0 -1 0 0 0 -1 forward_v I I I I #
coedge $-1 $162 $243 $300 $301 forward $97 $-1 #
coedge $-1 $164 $163 $162 $237 reversed $61 $-1 #
edge $-1 $302 -24.440937659589174 $244 -2.1063750974907158 $162 $303 forward 7 unknown #
coedge $-1 $300 $304 $164 $239 forward $233 $-1 #
edge $-1 $241 -81.060046761894341 $302 -66.453523188290816 $238 $305 forward 7 unknown #
coedge $-1 $170 $165 $304 $306 reversed $160 $-1 #
vertex $-1 $166 $307 #
straight-curve $-1 57.074495681630921 13.273656378539947 0.81298230733665378 0 1 0 I I #
coedge $-1 $235 $167 $170 $247 forward $97 $-1 #
vertex $-1 $168 $308 #
straight-curve $-1 10.380205845902658 15.380031476030663 8.5532606346673532 1 0 0 I I #
straight-curve $-1 -39.729338623076586 15.380031476030663 61.302732622218556 -0.84804809178421925 0 0.52991927123019833 I I #
edge $-1 $171 15.380031476030663 $309 37.714594038129121 $170 $310 forward 7 unknown #
point $-1 57.074495681630907 15.380031476030663 8.5532606346673532 #
point $-1 57.074495681630907 15.380031476030663 0.81298230733666088 #
edge $-1 $311 1 $311 0 $174 $-1 forward 7 unknown #
vertex $-1 $175 $312 #
ellipse-curve $-1 46.284191177929785 21.761335065201649 -2.6732758033446684 0.52991927123019833 0 0.84804809178421925 2.1201202294605483 0 -1.3247981780754958 1 I I #
point $-1 53.001098688993579 21.761335065201649 3.3583232929264968 #
edge $-1 $313 1 $313 0 $178 $-1 forward 7 unknown #
vertex $-1 $179 $314 #
ellipse-curve $-1 46.284191177929785 31.333290448958138 -2.6732758033446684 0.52991927123019833 0 0.84804809178421925 2.1201202294605483 0 -1.3247981780754958 1 I I #
point $-1 53.001098688993579 31.333290448958138 3.3583232929264968 #
plane-surface $-1 0 0 8.5532606346673532 0 0 1 1 0 0 forward_v I I I I #
coedge $-1 $269 $268 $261 $315 forward $183 $-1 #
coedge $-1 $261 $185 $187 $265 reversed $119 $-1 #
coedge $-1 $185 $260 $259 $315 reversed $119 $-1 #
coedge $-1 $193 $188 $185 $263 forward $194 $-1 #
edge $-1 $266 -21.196931490876651 $316 -17.636989578088077 $262 $317 forward 7 unknown #
coedge $-1 $187 $186 $269 $318 reversed $75 $-1 #
edge $-1 $319 4.8322124813089328e-014 $266 6.0565350476639725 $260 $320 forward 7 unknown #
vertex $-1 $189 $321 #
straight-curve $-1 -53.51455376884234 -11.913633826133868 8.5532606346673532 0 1 0 I I #
coedge $-1 $259 $190 $193 $273 reversed $183 $-1 #
coedge $-1 $190 $259 $264 $318 forward $183 $-1 #
vertex $-1 $191 $322 #
straight-curve $-1 -57.074495681630907 -28.531491941743049 35.374256603063543 0 0 1 I I #
straight-curve $-1 -57.074495681630935 -28.531491941743049 3.6534208045144254 -0.5877852410284794 0 -0.80901700255871778 I I #
edge $-1 $316 19.123043362792423 $195 28.531491941743049 $268 $323 forward 7 unknown #
point $-1 -57.074495681630907 -28.531491941743049 8.5532606346673532 #
point $-1 -53.514553768842333 -28.531491941743049 8.5532606346673532 #
edge $-1 $324 1 $324 0 $198 $-1 forward 7 unknown #
vertex $-1 $199 $325 #
ellipse-curve $-1 -52.707902292421231 -25.843363776328587 4.2240495732818717 -0.80901700255871778 0 0.5877852410284794 0.5877852410284794 0 0.80901700255871778 1 I I #
point $-1 -54.706739484208128 -25.843363776328587 6.9123577221496078 #
edge $-1 $326 1 $326 0 $202 $-1 forward 7 unknown #
vertex $-1 $203 $327 #
ellipse-curve $-1 -52.707902292421231 -21.811171528206891 4.2240495732818717 -0.80901700255871778 0 0.5877852410284794 0.5877852410284794 0 0.80901700255871778 1 I I #
point $-1 -54.706739484208128 -21.811171528206891 6.9123577221496078 #
plane-surface $-1 57.074495681630907 0 0 -1 0 0 0 0 1 forward_v I I I I #
coedge $-1 $211 $209 $213 $289 reversed $141 $-1 #
edge $-1 $224 -8.5532606346673532 $291 8.5532606346673532 $223 $328 forward 7 unknown #
vertex $-1 $289 $329 #
straight-curve $-1 -57.074495681630907 -37.714594038129121 0 0 0 -1 I I #
edge $-1 $287 -37.714594038129121 $291 37.714594038129121 $285 $330 forward 7 unknown #
straight-curve $-1 0 -37.714594038129121 -8.5532606346673532 -1 0 0 I I #
vertex $-1 $216 $331 #
straight-curve $-1 0 37.714594038129121 -8.5532606346673532 1 0 0 I I #
point $-1 57.074495681630907 37.714594038129121 -8.5532606346673532 #
point $-1 57.074495681630907 -37.714594038129121 -8.5532606346673532 #
straight-curve $-1 -57.074495681630907 0 8.5532606346673532 0 -1 0 I I #
point $-1 -57.074495681630907 37.714594038129121 8.5532606346673532 #
point $-1 -57.074495681630907 -37.714594038129121 8.5532606346673532 #
straight-curve $-1 57.074495681630907 -37.714594038129121 0 0 0 -1 I I #
straight-curve $-1 57.074495681630907 37.714594038129121 0 0 0 -1 I I #
coedge $-1 $304 $238 $235 $301 reversed $233 $-1 #
edge $-1 $309 -57.074495681630907 $302 -44.68746123743523 $300 $332 forward 7 unknown #
vertex $-1 $239 $333 #
straight-curve $-1 44.687461237435244 13.273656378539947 8.5532606346673461 0 -1 0 I I #
coedge $-1 $238 $300 $240 $306 forward $233 $-1 #
straight-curve $-1 -11.66832229473316 37.714594038129121 43.768263213285508 -0.84804809178421925 0 0.52991927123019833 I I #
edge $-1 $309 -8.5532606346673532 $241 -0.81298230733666299 $240 $334 forward 7 unknown #
point $-1 57.074495681630907 37.714594038129121 0.81298230733666299 #
point $-1 44.68746123743523 15.380031476030663 8.5532606346673532 #
vertex $-1 $247 $335 #
straight-curve $-1 57.074495681630907 0 8.5532606346673532 0 1 0 I I #
vertex $-1 $250 $336 #
point $-1 48.404311407390331 21.761335065201649 -3.9980739814201645 #
vertex $-1 $254 $337 #
point $-1 48.404311407390331 31.333290448958138 -3.9980739814201645 #
edge $-1 $316 26.82099596839619 $319 31.720835798549079 $259 $338 forward 7 unknown #
vertex $-1 $273 $339 #
straight-curve $-1 -74.711485259718984 -19.123043362792423 8.5532606346673532 -1 0 0 I I #
edge $-1 $319 7.2094095366585549 $270 16.617858115609181 $269 $340 forward 7 unknown #
vertex $-1 $318 $341 #
straight-curve $-1 -57.074495681630935 -19.123043362792423 3.6534208045144254 0.5877852410284794 0 0.80901700255871778 I I #
point $-1 -53.514553768842333 -19.123043362792423 8.5532606346673532 #
point $-1 -57.074495681630907 -28.531491941743049 3.6534208045144645 #
straight-curve $-1 -57.074495681630907 0 8.5532606346673532 0 -1 0 I I #
vertex $-1 $276 $342 #
point $-1 -52.120117051392754 -25.843363776328587 5.0330665758405893 #
vertex $-1 $280 $343 #
point $-1 -52.120117051392754 -21.811171528206891 5.0330665758405893 #
straight-curve $-1 -57.074495681630907 37.714594038129121 0 0 0 -1 I I #
point $-1 -57.074495681630907 -37.714594038129121 -8.5532606346673532 #
straight-curve $-1 -57.074495681630907 0 -8.5532606346673532 0 1 0 I I #
point $-1 -57.074495681630907 37.714594038129121 -8.5532606346673532 #
straight-curve $-1 0 37.714594038129121 8.5532606346673532 -1 0 0 I I #
point $-1 44.68746123743523 37.714594038129121 8.5532606346673532 #
straight-curve $-1 57.074495681630907 37.714594038129121 0 0 0 -1 I I #
point $-1 57.074495681630907 37.714594038129121 8.5532606346673532 #
point $-1 44.959392999854288 21.761335065201649 -4.7933960328052168 #
point $-1 44.959392999854288 31.333290448958138 -4.7933960328052168 #
straight-curve $-1 -57.074495681630907 -19.123043362792423 35.374256603063543 0 0 -1 I I #
point $-1 -57.074495681630907 -19.123043362792423 8.5532606346673532 #
straight-curve $-1 -57.074495681630907 -11.913633826133868 3.6534208045144636 0 -1 0 I I #
point $-1 -57.074495681630907 -19.123043362792423 3.6534208045144645 #
point $-1 -51.898885289862513 -25.843363776328587 3.6362643322533925 #
point $-1 -51.898885289862513 -21.811171528206891 3.6362643322533925 #
End-of-ACIS-data 