500 0 6 0           
7 Unknown 11 ACIS 5.0 NT 24 Thu Mar 25 20:51:23 1999 
-1 9.9999999999999995e-007 1e-010 
body $-1 $6 $-1 $7 #
body $-1 $8 $-1 $9 #
body $-1 $10 $-1 $11 #
body $-1 $12 $-1 $13 #
body $-1 $14 $-1 $15 #
body $-1 $16 $-1 $17 #
lump $-1 $-1 $18 $0 #
transform $-1 1 0 0 0 1 0 0 0 1 62.012390514847255 29.9102336085956 12.375773345701999 1 rotate no_reflect no_shear #
lump $-1 $-1 $19 $1 #
transform $-1 1 0 0 0 1 0 0 0 1 62.012390514847255 29.9102336085956 12.375773345701999 1 rotate no_reflect no_shear #
lump $-1 $-1 $20 $2 #
transform $-1 1 0 0 0 1 0 0 0 1 62.012390514847255 29.9102336085956 12.375773345701999 1 rotate no_reflect no_shear #
lump $-1 $-1 $21 $3 #
transform $-1 1 0 0 0 1 0 0 0 1 62.012390514847255 29.9102336085956 12.375773345701999 1 rotate no_reflect no_shear #
lump $-1 $-1 $22 $4 #
transform $-1 1 0 0 0 1 0 0 0 1 62.012390514847255 29.9102336085956 12.375773345701999 1 rotate no_reflect no_shear #
lump $-1 $-1 $23 $5 #
transform $-1 1 0 0 0 1 0 0 0 1 62.012390514847255 29.9102336085956 12.375773345701999 1 rotate no_reflect no_shear #
shell $-1 $-1 $-1 $24 $-1 $6 #
shell $-1 $-1 $-1 $25 $-1 $8 #
shell $-1 $-1 $-1 $26 $-1 $10 #
shell $-1 $-1 $-1 $27 $-1 $12 #
shell $-1 $-1 $-1 $28 $-1 $14 #
shell $-1 $-1 $-1 $29 $-1 $16 #
face $-1 $30 $31 $18 $-1 $32 forward single #
face $-1 $33 $34 $19 $-1 $35 forward single #
face $-1 $36 $37 $20 $-1 $38 reversed single #
face $-1 $39 $40 $21 $-1 $41 forward single #
face $-1 $42 $43 $22 $-1 $44 reversed single #
face $-1 $45 $46 $23 $-1 $47 forward single #
face $-1 $48 $49 $18 $-1 $50 reversed single #
loop $-1 $-1 $51 $24 #
plane-surface $-1 0 0 12.375773345701999 0 0 1 1 0 0 forward_v I I I I #
face $-1 $52 $53 $19 $-1 $54 forward single #
loop $-1 $-1 $55 $25 #
plane-surface $-1 0 -29.9102336085956 0 0 1 0 0 0 1 forward_v I I I I #
face $-1 $56 $57 $20 $-1 $58 reversed single #
loop $-1 $-1 $59 $26 #
plane-surface $-1 -148.16724381359865 -3.8852456614171533 95.86887647409354 0 1 0 -0.69465837861970381 0 0.71933979245794832 forward_v I I I I #
face $-1 $60 $61 $21 $-1 $62 forward single #
loop $-1 $63 $64 $27 #
cone-surface $-1 -57.927436233453697 0.41234516540095356 8.3526264992973882 0.69465837861970381 0 -0.71933979245794832 1.4386795849158966 0 1.3893167572394076 1 I I 0 1 2 forward I I I I #
face $-1 $65 $66 $22 $-1 $67 reversed single #
loop $-1 $-1 $68 $28 #
plane-surface $-1 -148.16724381359865 21.315051954959394 95.86887647409354 0 1 0 -0.69465837861970381 0 0.71933979245794832 forward_v I I I I #
face $-1 $69 $70 $23 $-1 $71 forward single #
loop $-1 $72 $73 $29 #
cone-surface $-1 -57.927436233453697 25.612642781777499 8.3526264992973882 0.69465837861970381 0 -0.71933979245794832 1.4386795849158966 0 1.3893167572394076 1 I I 0 1 2 forward I I I I #
face $-1 $74 $75 $18 $-1 $76 reversed single #
loop $-1 $-1 $77 $30 #
plane-surface $-1 0 0 -12.375773345701999 0 0 1 1 0 0 forward_v I I I I #
coedge $-1 $78 $79 $80 $81 forward $31 $-1 #
face $-1 $82 $83 $19 $-1 $84 reversed single #
loop $-1 $-1 $85 $33 #
plane-surface $-1 0 0 12.375773345701999 0 0 1 1 0 0 forward_v I I I I #
coedge $-1 $86 $87 $88 $89 forward $34 $-1 #
face $-1 $90 $91 $20 $-1 $92 reversed single #
loop $-1 $-1 $93 $36 #
plane-surface $-1 -62.012390514847255 0.41234516540095356 6.6529162285505947 -0.69465837861970381 0 0.71933979245794832 0.71933979245794832 0 0.69465837861970381 forward_v I I I I #
coedge $-1 $94 $95 $96 $97 reversed $37 $-1 #
face $-1 $-1 $98 $21 $-1 $99 forward single #
loop $-1 $100 $101 $39 #
cone-surface $-1 -56.11091951931968 0.41234516540095356 6.471568419010536 0.69465837861970381 0 -0.71933979245794832 0.71933979245794832 0 0.69465837861970381 1 I I -0.70710678118654746 0.70710678118654746 1 forward I I I I #
loop $-1 $-1 $102 $27 #
coedge $-1 $64 $64 $103 $104 reversed $40 $-1 #
face $-1 $105 $106 $22 $-1 $107 forward single #
loop $-1 $-1 $108 $42 #
plane-surface $-1 -62.012390514847255 25.612642781777499 6.6529162285505947 -0.69465837861970381 0 0.71933979245794832 0.71933979245794832 0 0.69465837861970381 forward_v I I I I #
coedge $-1 $109 $110 $111 $112 reversed $43 $-1 #
face $-1 $-1 $113 $23 $-1 $114 forward single #
loop $-1 $115 $116 $45 #
cone-surface $-1 -56.11091951931968 25.612642781777499 6.471568419010536 0.69465837861970381 0 -0.71933979245794832 0.71933979245794832 0 0.69465837861970381 1 I I -0.70710678118654746 0.70710678118654746 1 forward I I I I #
loop $-1 $-1 $117 $29 #
coedge $-1 $73 $73 $118 $119 reversed $46 $-1 #
face $-1 $120 $121 $18 $-1 $122 reversed single #
loop $-1 $-1 $123 $48 #
plane-surface $-1 0 -29.9102336085956 0 0 1 0 0 0 1 forward_v I I I I #
coedge $-1 $124 $125 $126 $127 forward $49 $-1 #
coedge $-1 $128 $51 $129 $130 forward $31 $-1 #
coedge $-1 $51 $128 $131 $132 forward $31 $-1 #
coedge $-1 $133 $134 $51 $81 reversed $135 $-1 #
edge $-1 $136 -29.9102336085956 $137 29.9102336085956 $80 $138 forward 7 unknown #
face $-1 $139 $140 $19 $-1 $141 reversed single #
loop $-1 $-1 $142 $52 #
plane-surface $-1 -62.012390514847255 0 0 1 0 0 0 0 -1 forward_v I I I I #
coedge $-1 $143 $144 $145 $146 forward $53 $-1 #
coedge $-1 $145 $55 $142 $147 reversed $34 $-1 #
coedge $-1 $55 $145 $148 $149 reversed $34 $-1 #
coedge $-1 $150 $151 $55 $89 reversed $140 $-1 #
edge $-1 $152 -62.012390514847255 $153 62.012390514847255 $88 $154 forward 7 unknown #
face $-1 $155 $156 $20 $-1 $157 forward single #
loop $-1 $-1 $158 $56 #
plane-surface $-1 -148.16724381359865 4.7099359922190605 95.86887647409354 0 -1 0 0.69465837861970381 0 -0.71933979245794832 forward_v I I I I #
coedge $-1 $159 $160 $161 $162 reversed $57 $-1 #
coedge $-1 $95 $59 $163 $164 reversed $37 $-1 #
coedge $-1 $59 $94 $159 $165 reversed $37 $-1 #
coedge $-1 $161 $166 $59 $97 forward $156 $-1 #
edge $-1 $167 12.071231391952068 $168 17.997423283710553 $96 $169 forward 7 unknown #
loop $-1 $-1 $103 $60 #
plane-surface $-1 -62.012390514847255 0.41234516540095356 6.6529162285505947 -0.69465837861970381 0 0.71933979245794832 0.71933979245794832 0 0.69465837861970381 forward_v I I I I #
loop $-1 $-1 $170 $39 #
coedge $-1 $101 $101 $102 $171 reversed $61 $-1 #
coedge $-1 $102 $102 $101 $171 forward $63 $-1 #
coedge $-1 $103 $103 $64 $104 forward $98 $-1 #
edge $-1 $172 0 $172 6.2831853071796004 $103 $173 forward 7 unknown #
face $-1 $174 $175 $22 $-1 $176 reversed single #
loop $-1 $-1 $111 $65 #
plane-surface $-1 0 0 12.375773345701999 0 0 1 1 0 0 forward_v I I I I #
coedge $-1 $177 $178 $179 $180 reversed $66 $-1 #
coedge $-1 $110 $68 $181 $182 reversed $43 $-1 #
coedge $-1 $68 $109 $177 $183 reversed $43 $-1 #
coedge $-1 $179 $184 $68 $112 forward $106 $-1 #
edge $-1 $185 12.071231391952068 $186 17.997423283710553 $111 $187 forward 7 unknown #
loop $-1 $-1 $118 $69 #
plane-surface $-1 -62.012390514847255 25.612642781777499 6.6529162285505947 -0.69465837861970381 0 0.71933979245794832 0.71933979245794832 0 0.69465837861970381 forward_v I I I I #
loop $-1 $-1 $188 $45 #
coedge $-1 $116 $116 $117 $189 reversed $70 $-1 #
coedge $-1 $117 $117 $116 $189 forward $72 $-1 #
coedge $-1 $118 $118 $73 $119 forward $113 $-1 #
edge $-1 $190 0 $190 6.2831853071796004 $118 $191 forward 7 unknown #
face $-1 $192 $193 $18 $-1 $194 reversed single #
loop $-1 $-1 $195 $74 #
plane-surface $-1 -62.012390514847255 0 0 1 0 0 0 0 -1 forward_v I I I I #
coedge $-1 $196 $131 $197 $198 forward $75 $-1 #
coedge $-1 $199 $77 $196 $200 forward $49 $-1 #
coedge $-1 $77 $199 $201 $202 forward $49 $-1 #
coedge $-1 $134 $133 $77 $127 reversed $135 $-1 #
edge $-1 $203 -29.9102336085956 $204 29.9102336085956 $126 $205 forward 7 unknown #
coedge $-1 $79 $78 $206 $207 forward $31 $-1 #
coedge $-1 $208 $209 $78 $130 reversed $193 $-1 #
edge $-1 $137 -62.012390514847255 $210 62.012390514847255 $129 $211 forward 7 unknown #
coedge $-1 $123 $212 $79 $132 reversed $75 $-1 #
edge $-1 $213 -62.012390514847255 $136 62.012390514847255 $131 $214 forward 7 unknown #
coedge $-1 $126 $80 $212 $215 forward $135 $-1 #
coedge $-1 $80 $126 $208 $216 reversed $135 $-1 #
loop $-1 $-1 $133 $192 #
vertex $-1 $81 $217 #
vertex $-1 $81 $218 #
straight-curve $-1 62.012390514847255 0 12.375773345701999 0 1 0 I I #
face $-1 $219 $220 $19 $-1 $221 reversed single #
loop $-1 $-1 $150 $82 #
plane-surface $-1 0 -34.620169600814656 5.6845390017850761 0 0 1 1 0 0 forward_v I I I I #
coedge $-1 $222 $223 $86 $147 forward $83 $-1 #
coedge $-1 $224 $85 $223 $225 forward $53 $-1 #
coedge $-1 $85 $224 $226 $227 forward $53 $-1 #
coedge $-1 $87 $86 $85 $146 reversed $34 $-1 #
edge $-1 $228 -62.012390514847255 $229 62.012390514847255 $85 $230 forward 7 unknown #
edge $-1 $229 -12.375773345701999 $153 -5.6845390017850761 $142 $231 forward 7 unknown #
coedge $-1 $226 $232 $87 $149 forward $233 $-1 #
edge $-1 $152 5.6845390017850761 $228 12.375773345701999 $148 $234 forward 7 unknown #
coedge $-1 $235 $88 $232 $236 forward $140 $-1 #
coedge $-1 $88 $235 $222 $237 forward $140 $-1 #
vertex $-1 $149 $238 #
vertex $-1 $147 $239 #
straight-curve $-1 0 -29.9102336085956 5.6845390017850761 -1 0 0 I I #
face $-1 $-1 $240 $20 $-1 $241 reversed single #
loop $-1 $-1 $96 $90 #
plane-surface $-1 0 0 12.375773345701999 0 0 1 1 0 0 forward_v I I I I #
coedge $-1 $242 $243 $244 $245 reversed $91 $-1 #
coedge $-1 $246 $93 $95 $165 forward $57 $-1 #
coedge $-1 $93 $246 $242 $247 forward $57 $-1 #
coedge $-1 $244 $96 $93 $162 forward $156 $-1 #
edge $-1 $168 -4.0914182441176301 $248 4.5037634095185837 $161 $249 forward 7 unknown #
coedge $-1 $250 $251 $94 $164 forward $240 $-1 #
edge $-1 $252 -41.281522008496175 $167 -35.558664891344769 $163 $253 forward 7 unknown #
edge $-1 $168 -8.2383762915561523 $252 0 $95 $254 forward 7 unknown #
coedge $-1 $96 $244 $250 $255 forward $156 $-1 #
vertex $-1 $164 $256 #
vertex $-1 $97 $257 #
straight-curve $-1 -74.083621906799323 -3.8852456614171533 12.375773345702001 1 0 0 I I #
coedge $-1 $170 $170 $-1 $258 reversed $100 $-1 #
edge $-1 $259 0 $259 6.2831853071796004 $101 $260 forward 7 unknown #
vertex $-1 $104 $261 #
ellipse-curve $-1 -59.049294568968016 0.41234516540095356 9.5143447871262961 -0.69465837861970381 0 0.71933979245794832 1.4386795849158966 0 1.3893167572394076 1 I I #
face $-1 $-1 $262 $22 $-1 $263 reversed single #
loop $-1 $-1 $264 $105 #
plane-surface $-1 0 29.9102336085956 0 0 -1 0 0 0 -1 forward_v I I I I #
coedge $-1 $265 $108 $110 $183 forward $66 $-1 #
coedge $-1 $108 $265 $264 $266 reversed $66 $-1 #
coedge $-1 $267 $111 $108 $180 forward $106 $-1 #
edge $-1 $186 8.5087305640706443 $268 17.103912217706856 $179 $269 forward 7 unknown #
coedge $-1 $270 $271 $109 $182 forward $262 $-1 #
edge $-1 $272 -41.281522008496175 $185 -35.558664891344769 $181 $273 forward 7 unknown #
edge $-1 $186 -8.2383762915561523 $272 0 $110 $274 forward 7 unknown #
coedge $-1 $111 $267 $270 $275 forward $106 $-1 #
vertex $-1 $182 $276 #
vertex $-1 $112 $277 #
straight-curve $-1 -74.083621906799323 21.315051954959394 12.375773345702001 1 0 0 I I #
coedge $-1 $188 $188 $-1 $278 reversed $115 $-1 #
edge $-1 $279 0 $279 6.2831853071796004 $116 $280 forward 7 unknown #
vertex $-1 $119 $281 #
ellipse-curve $-1 -59.049294568968016 25.612642781777499 9.5143447871262961 -0.69465837861970381 0 0.71933979245794832 1.4386795849158966 0 1.3893167572394076 1 I I #
face $-1 $-1 $135 $18 $-1 $282 reversed single #
loop $-1 $-1 $208 $120 #
plane-surface $-1 0 29.9102336085956 0 0 -1 0 0 0 -1 forward_v I I I I #
coedge $-1 $283 $206 $209 $284 forward $121 $-1 #
coedge $-1 $212 $123 $124 $200 reversed $75 $-1 #
coedge $-1 $206 $283 $123 $198 reversed $121 $-1 #
edge $-1 $213 -12.375773345701999 $285 12.375773345701999 $197 $286 forward 7 unknown #
coedge $-1 $125 $124 $283 $287 forward $49 $-1 #
edge $-1 $204 -62.012390514847255 $285 62.012390514847255 $196 $288 forward 7 unknown #
coedge $-1 $209 $208 $125 $202 reversed $193 $-1 #
edge $-1 $289 -62.012390514847255 $203 62.012390514847255 $201 $290 forward 7 unknown #
vertex $-1 $127 $291 #
vertex $-1 $215 $292 #
straight-curve $-1 62.012390514847255 0 -12.375773345701999 0 -1 0 I I #
coedge $-1 $195 $197 $128 $207 reversed $121 $-1 #
edge $-1 $210 -29.9102336085956 $213 29.9102336085956 $206 $293 forward 7 unknown #
coedge $-1 $201 $129 $134 $216 forward $193 $-1 #
coedge $-1 $129 $201 $195 $284 reversed $193 $-1 #
vertex $-1 $130 $294 #
straight-curve $-1 0 29.9102336085956 12.375773345701999 -1 0 0 I I #
coedge $-1 $131 $196 $133 $215 reversed $75 $-1 #
vertex $-1 $207 $295 #
straight-curve $-1 0 -29.9102336085956 12.375773345701999 1 0 0 I I #
edge $-1 $136 -12.375773345701999 $204 12.375773345701999 $133 $296 forward 7 unknown #
edge $-1 $137 -12.375773345701999 $203 12.375773345701999 $134 $297 forward 7 unknown #
point $-1 62.012390514847255 -29.9102336085956 12.375773345701999 #
point $-1 62.012390514847255 29.9102336085956 12.375773345701999 #
face $-1 $-1 $233 $19 $-1 $298 reversed single #
loop $-1 $-1 $299 $139 #
plane-surface $-1 0 -39.330105593033714 9.0301561737435367 0 1 0 0 0 1 forward_v I I I I #
coedge $-1 $300 $142 $151 $237 reversed $83 $-1 #
coedge $-1 $142 $300 $143 $225 reversed $83 $-1 #
coedge $-1 $144 $143 $301 $302 forward $53 $-1 #
edge $-1 $229 29.9102336085956 $303 39.330105593033714 $223 $304 forward 7 unknown #
coedge $-1 $305 $148 $144 $227 reversed $233 $-1 #
edge $-1 $306 -39.330105593033714 $228 -29.9102336085956 $226 $307 forward 7 unknown #
vertex $-1 $149 $308 #
vertex $-1 $225 $309 #
straight-curve $-1 0 -29.9102336085956 12.375773345701999 -1 0 0 I I #
straight-curve $-1 -62.012390514847255 -29.9102336085956 0 0 0 -1 I I #
coedge $-1 $148 $305 $150 $236 reversed $233 $-1 #
loop $-1 $-1 $148 $219 #
straight-curve $-1 62.012390514847255 -29.9102336085956 0 0 0 1 I I #
coedge $-1 $151 $150 $310 $311 forward $140 $-1 #
edge $-1 $152 -4.7099359922190587 $312 4.7099359922190587 $232 $313 forward 7 unknown #
edge $-1 $314 -4.7099359922190587 $153 4.7099359922190587 $222 $315 forward 7 unknown #
point $-1 62.012390514847255 -29.910233608595597 5.6845390017850761 #
point $-1 -62.012390514847255 -29.910233608595597 5.6845390017850761 #
loop $-1 $-1 $163 $155 #
plane-surface $-1 -62.012390514847255 0 0 1 0 0 0 0 -1 forward_v I I I I #
coedge $-1 $243 $158 $160 $247 reversed $91 $-1 #
coedge $-1 $158 $242 $316 $317 reversed $91 $-1 #
coedge $-1 $166 $161 $158 $245 forward $156 $-1 #
edge $-1 $248 -17.997423283710553 $318 -12.071231391952068 $244 $319 forward 7 unknown #
coedge $-1 $160 $159 $251 $320 reversed $57 $-1 #
edge $-1 $321 0 $248 8.2383762915561523 $242 $322 forward 7 unknown #
vertex $-1 $162 $323 #
straight-curve $-1 -56.086198623088769 0.20617258270047678 12.375773345701999 0 1 0 I I #
coedge $-1 $316 $163 $166 $255 reversed $240 $-1 #
coedge $-1 $163 $316 $246 $320 forward $240 $-1 #
vertex $-1 $164 $324 #
straight-curve $-1 -62.012390514847255 -3.8852456614171533 47.93443823704677 0 0 1 I I #
straight-curve $-1 -62.012390514847255 -3.8852456614171533 6.6529162285505947 -0.71933979245794832 0 -0.69465837861970381 I I #
edge $-1 $318 -4.7099359922190605 $167 3.8852456614171533 $250 $325 forward 7 unknown #
point $-1 -62.012390514847255 -3.8852456614171533 12.375773345701999 #
point $-1 -56.086198623088769 -3.8852456614171533 12.375773345702001 #
edge $-1 $326 1 $326 0 $170 $-1 forward 7 unknown #
vertex $-1 $171 $327 #
ellipse-curve $-1 -56.805577897939386 0.41234516540095356 7.1909082114684839 -0.69465837861970381 0 0.71933979245794832 1.4386795849158966 0 1.3893167572394076 1 I I #
point $-1 -57.610614984052113 0.41234516540095356 10.903661544365701 #
loop $-1 $-1 $181 $174 #
plane-surface $-1 -62.012390514847255 0 0 1 0 0 0 0 -1 forward_v I I I I #
coedge $-1 $328 $329 $178 $266 forward $175 $-1 #
coedge $-1 $178 $177 $271 $330 reversed $66 $-1 #
edge $-1 $268 11.754861769620744 $331 19.993238061176896 $264 $332 forward 7 unknown #
coedge $-1 $184 $179 $329 $333 forward $106 $-1 #
vertex $-1 $333 $334 #
straight-curve $-1 -56.086198623088769 12.806321390888749 12.375773345701999 0 1 0 I I #
coedge $-1 $335 $181 $184 $275 reversed $262 $-1 #
coedge $-1 $181 $335 $265 $330 forward $262 $-1 #
vertex $-1 $182 $336 #
straight-curve $-1 -62.012390514847255 21.315051954959394 47.93443823704677 0 0 1 I I #
straight-curve $-1 -62.012390514847255 21.315051954959394 6.6529162285505947 -0.71933979245794832 0 -0.69465837861970381 I I #
edge $-1 $337 -29.9102336085956 $185 -21.315051954959394 $270 $338 forward 7 unknown #
point $-1 -62.012390514847255 21.315051954959394 12.375773345701999 #
point $-1 -56.086198623088769 21.315051954959394 12.375773345702001 #
edge $-1 $339 1 $339 0 $188 $-1 forward 7 unknown #
vertex $-1 $189 $340 #
ellipse-curve $-1 -56.805577897939386 25.612642781777499 7.1909082114684839 -0.69465837861970381 0 0.71933979245794832 1.4386795849158966 0 1.3893167572394076 1 I I #
point $-1 -57.610614984052113 25.612642781777499 10.903661544365701 #
plane-surface $-1 62.012390514847255 0 0 -1 0 0 0 0 1 forward_v I I I I #
coedge $-1 $197 $195 $199 $287 reversed $121 $-1 #
edge $-1 $210 -12.375773345701999 $289 12.375773345701999 $209 $341 forward 7 unknown #
vertex $-1 $287 $342 #
straight-curve $-1 -62.012390514847255 -29.9102336085956 0 0 0 -1 I I #
edge $-1 $285 -29.9102336085956 $289 29.9102336085956 $283 $343 forward 7 unknown #
straight-curve $-1 0 -29.9102336085956 -12.375773345701999 -1 0 0 I I #
vertex $-1 $202 $344 #
straight-curve $-1 0 29.9102336085956 -12.375773345701999 1 0 0 I I #
point $-1 62.012390514847255 29.9102336085956 -12.375773345701999 #
point $-1 62.012390514847255 -29.9102336085956 -12.375773345701999 #
straight-curve $-1 -62.012390514847255 0 12.375773345701999 0 -1 0 I I #
point $-1 -62.012390514847255 29.9102336085956 12.375773345701999 #
point $-1 -62.012390514847255 -29.9102336085956 12.375773345701999 #
straight-curve $-1 62.012390514847255 -29.9102336085956 0 0 0 -1 I I #
straight-curve $-1 62.012390514847255 29.9102336085956 0 0 0 -1 I I #
plane-surface $-1 62.012390514847255 0 0 -1 0 0 0 0 1 forward_v I I I I #
coedge $-1 $310 $301 $300 $345 forward $220 $-1 #
coedge $-1 $223 $222 $299 $345 reversed $83 $-1 #
coedge $-1 $299 $346 $224 $302 reversed $220 $-1 #
edge $-1 $303 -62.012390514847255 $306 62.012390514847255 $301 $347 forward 7 unknown #
vertex $-1 $225 $348 #
straight-curve $-1 -62.012390514847255 0 12.375773345701999 0 -1 0 I I #
coedge $-1 $232 $226 $346 $349 forward $233 $-1 #
vertex $-1 $227 $350 #
straight-curve $-1 62.012390514847255 0 12.375773345701999 0 1 0 I I #
point $-1 62.012390514847255 -29.9102336085956 12.375773345701999 #
point $-1 -62.012390514847255 -29.9102336085956 12.375773345701999 #
coedge $-1 $346 $299 $235 $311 reversed $220 $-1 #
edge $-1 $312 -62.012390514847255 $314 62.012390514847255 $310 $351 forward 7 unknown #
vertex $-1 $349 $352 #
straight-curve $-1 62.012390514847255 -34.620169600814656 5.6845390017850761 0 -1 0 I I #
vertex $-1 $237 $353 #
straight-curve $-1 -62.012390514847255 -34.620169600814656 5.6845390017850761 0 1 0 I I #
coedge $-1 $251 $250 $243 $317 forward $240 $-1 #
edge $-1 $318 35.558664891344769 $321 41.281522008496175 $316 $354 forward 7 unknown #
vertex $-1 $255 $355 #
straight-curve $-1 -74.083621906799323 4.7099359922190605 12.375773345702001 -1 0 0 I I #
edge $-1 $321 -4.5037634095185837 $252 4.0914182441176301 $251 $356 forward 7 unknown #
vertex $-1 $320 $357 #
straight-curve $-1 -62.012390514847255 4.7099359922190605 6.6529162285505947 0.71933979245794832 0 0.69465837861970381 I I #
point $-1 -56.086198623088769 4.7099359922190605 12.375773345702001 #
point $-1 -62.012390514847255 -3.8852456614171533 6.6529162285505947 #
straight-curve $-1 -62.012390514847255 0 12.375773345701999 0 -1 0 I I #
vertex $-1 $258 $358 #
point $-1 -55.366898313023484 0.41234516540095356 8.580224968707892 #
coedge $-1 $329 $264 $335 $359 reversed $175 $-1 #
coedge $-1 $264 $328 $267 $333 reversed $175 $-1 #
edge $-1 $331 -17.103912217706856 $272 -8.5087305640706443 $271 $360 forward 7 unknown #
vertex $-1 $266 $361 #
straight-curve $-1 -47.63045879735791 29.9102336085956 20.541386563485489 -0.71933979245794832 0 -0.69465837861970381 I I #
edge $-1 $268 56.086198623088769 $337 62.012390514847255 $329 $362 forward 7 unknown #
point $-1 -56.086198623088769 29.910233608595604 12.375773345702001 #
coedge $-1 $271 $270 $328 $359 forward $262 $-1 #
point $-1 -62.012390514847255 21.315051954959394 6.6529162285505947 #
vertex $-1 $333 $363 #
straight-curve $-1 -62.012390514847255 0 12.375773345701999 0 -1 0 I I #
vertex $-1 $278 $364 #
point $-1 -55.366898313023484 25.612642781777499 8.580224968707892 #
straight-curve $-1 -62.012390514847255 29.9102336085956 0 0 0 -1 I I #
point $-1 -62.012390514847255 -29.9102336085956 -12.375773345701999 #
straight-curve $-1 -62.012390514847255 0 -12.375773345701999 0 1 0 I I #
point $-1 -62.012390514847255 29.9102336085956 -12.375773345701999 #
edge $-1 $303 -3.3456171719584606 $314 3.3456171719584606 $300 $365 forward 7 unknown #
coedge $-1 $301 $310 $305 $349 reversed $220 $-1 #
straight-curve $-1 0 -39.330105593033714 12.375773345701997 1 0 0 I I #
point $-1 -62.012390514847255 -39.330105593033714 12.375773345701997 #
edge $-1 $306 -3.3456171719584606 $312 3.3456171719584606 $305 $366 forward 7 unknown #
point $-1 62.012390514847255 -39.330105593033714 12.375773345701997 #
straight-curve $-1 0 -39.330105593033714 5.6845390017850761 -1 0 0 I I #
point $-1 62.012390514847255 -39.330105593033714 5.6845390017850761 #
point $-1 -62.012390514847255 -39.330105593033714 5.6845390017850761 #
straight-curve $-1 -62.012390514847255 4.7099359922190605 47.93443823704677 0 0 -1 I I #
point $-1 -62.012390514847255 4.7099359922190605 12.375773345701999 #
straight-curve $-1 -62.012390514847255 0.20617258270047678 6.6529162285505929 0 -1 0 I I #
point $-1 -62.012390514847255 4.7099359922190605 6.6529162285505947 #
point $-1 -55.416261140699973 0.41234516540095356 5.7522286265525882 #
edge $-1 $337 -12.375773345701999 $331 -6.6529162285505947 $328 $367 forward 7 unknown #
straight-curve $-1 -62.012390514847255 12.806321390888749 6.6529162285505929 0 -1 0 I I #
point $-1 -62.012390514847255 29.910233608595604 6.6529162285505947 #
straight-curve $-1 0 29.9102336085956 12.375773345701999 -1 0 0 I I #
point $-1 -62.012390514847255 29.9102336085956 12.375773345701999 #
point $-1 -55.416261140699973 25.612642781777499 5.7522286265525882 #
straight-curve $-1 -62.012390514847255 -39.330105593033714 9.0301561737435367 0 0 -1 I I #
straight-curve $-1 62.012390514847255 -39.330105593033714 9.0301561737435367 0 0 -1 I I #
straight-curve $-1 -62.012390514847255 29.9102336085956 0 0 0 -1 I I #
End-of-ACIS-data 