500 0 7 0           
7 Unknown 11 ACIS 5.0 NT 24 Fri Mar 26 17:20:35 1999 
-1 9.9999999999999995e-007 1e-010 
body $-1 $7 $-1 $8 #
body $-1 $9 $-1 $10 #
body $-1 $11 $-1 $12 #
body $-1 $13 $-1 $14 #
body $-1 $15 $-1 $16 #
body $-1 $17 $-1 $18 #
body $-1 $19 $-1 $20 #
lump $-1 $-1 $21 $0 #
transform $-1 1 0 0 0 1 0 0 0 1 53.447676015503404 31.357753312553594 10.971624939800201 1 rotate no_reflect no_shear #
lump $-1 $-1 $22 $1 #
transform $-1 1 0 0 0 1 0 0 0 1 53.447676015503404 31.357753312553594 10.971624939800201 1 rotate no_reflect no_shear #
lump $-1 $-1 $23 $2 #
transform $-1 1 0 0 0 1 0 0 0 1 53.447676015503404 31.357753312553594 10.971624939800201 1 rotate no_reflect no_shear #
lump $-1 $-1 $24 $3 #
transform $-1 1 0 0 0 1 0 0 0 1 53.447676015503404 31.357753312553594 10.971624939800201 1 rotate no_reflect no_shear #
lump $-1 $-1 $25 $4 #
transform $-1 1 0 0 0 1 0 0 0 1 53.447676015503404 31.357753312553594 10.971624939800201 1 rotate no_reflect no_shear #
lump $-1 $-1 $26 $5 #
transform $-1 1 0 0 0 1 0 0 0 1 53.447676015503404 31.357753312553594 10.971624939800201 1 rotate no_reflect no_shear #
lump $-1 $-1 $27 $6 #
transform $-1 1 0 0 0 1 0 0 0 1 53.447676015503404 31.357753312553594 10.971624939800201 1 rotate no_reflect no_shear #
shell $-1 $-1 $-1 $28 $-1 $7 #
shell $-1 $-1 $-1 $29 $-1 $9 #
shell $-1 $-1 $-1 $30 $-1 $11 #
shell $-1 $-1 $-1 $31 $-1 $13 #
shell $-1 $-1 $-1 $32 $-1 $15 #
shell $-1 $-1 $-1 $33 $-1 $17 #
shell $-1 $-1 $-1 $34 $-1 $19 #
face $-1 $35 $36 $21 $-1 $37 forward single #
face $-1 $38 $39 $22 $-1 $40 forward single #
face $-1 $41 $42 $23 $-1 $43 reversed single #
face $-1 $44 $45 $24 $-1 $46 forward single #
face $-1 $47 $48 $25 $-1 $49 reversed single #
face $-1 $50 $51 $26 $-1 $52 forward single #
face $-1 $53 $54 $27 $-1 $55 forward single #
face $-1 $56 $57 $21 $-1 $58 reversed single #
loop $-1 $-1 $59 $28 #
plane-surface $-1 0 0 10.971624939800201 0 0 1 1 0 0 forward_v I I I I #
face $-1 $60 $61 $22 $-1 $62 forward single #
loop $-1 $-1 $63 $29 #
plane-surface $-1 0 -31.357753312553594 0 0 1 0 0 0 1 forward_v I I I I #
face $-1 $64 $65 $23 $-1 $66 reversed single #
loop $-1 $-1 $67 $30 #
plane-surface $-1 37.645811139446508 23.762067280262588 152.35325314047654 0 -1 0 -0.62932039886446345 0 -0.77714595512881146 forward_v I I I I #
face $-1 $68 $69 $24 $-1 $70 forward single #
loop $-1 $71 $72 $31 #
cone-surface $-1 46.568343646109923 17.501927895422345 4.8290373847244261 -0.62932039886446345 0 -0.77714595512881146 2.3314378653864343 0 -1.8879611965933902 1 I I 0 1 3 forward I I I I #
face $-1 $73 $74 $25 $-1 $75 reversed single #
loop $-1 $-1 $76 $32 #
plane-surface $-1 -122.15868467864289 -8.7419677597162 84.800379556570618 0 1 0 -0.64278761758704617 0 0.76604443648966558 forward_v I I I I #
face $-1 $77 $78 $26 $-1 $79 forward single #
loop $-1 $80 $81 $33 #
cone-surface $-1 -47.484622471787404 -6.6622934359844983 5.5583942361323135 0.64278761758704617 0 -0.76604443648966558 0.76604443648966558 0 0.64278761758704617 1 I I 0 1 1 forward I I I I #
face $-1 $82 $83 $27 $-1 $84 forward single #
loop $-1 $85 $86 $34 #
cone-surface $-1 -47.484622471787404 -3.5427819503869422 5.5583942361323135 0.64278761758704617 0 -0.76604443648966558 0.76604443648966558 0 0.64278761758704617 1 I I 0 1 1 forward I I I I #
face $-1 $87 $88 $21 $-1 $89 reversed single #
loop $-1 $-1 $90 $35 #
plane-surface $-1 0 0 -10.971624939800201 0 0 1 1 0 0 forward_v I I I I #
coedge $-1 $91 $92 $93 $94 forward $36 $-1 #
face $-1 $95 $96 $22 $-1 $97 reversed single #
loop $-1 $-1 $98 $38 #
plane-surface $-1 0 0 10.971624939800201 0 0 1 1 0 0 forward_v I I I I #
coedge $-1 $99 $100 $101 $102 forward $39 $-1 #
face $-1 $103 $104 $23 $-1 $105 reversed single #
loop $-1 $-1 $106 $41 #
plane-surface $-1 -29.625614437463923 17.501927895422345 69.279962687509212 0.62932039886446345 0 0.77714595512881146 0.77714595512881146 0 -0.62932039886446345 forward_v I I I I #
coedge $-1 $107 $108 $109 $110 reversed $42 $-1 #
face $-1 $-1 $111 $24 $-1 $112 forward single #
loop $-1 $113 $114 $44 #
cone-surface $-1 44.279276401660923 17.501927895422345 2.0022748115561484 -0.62932039886446345 0 -0.77714595512881146 1.1657189326932171 0 -0.94398059829669512 1 I I -0.70710678118654757 0.70710678118654757 1.5 forward I I I I #
loop $-1 $-1 $115 $31 #
coedge $-1 $72 $72 $116 $117 reversed $45 $-1 #
face $-1 $118 $119 $25 $-1 $120 reversed single #
loop $-1 $-1 $121 $47 #
plane-surface $-1 -53.447676015503404 -5.1025376931857203 2.9137898466135823 -0.64278761758704617 0 0.76604443648966558 0.76604443648966558 0 0.64278761758704617 forward_v I I I I #
coedge $-1 $122 $123 $124 $125 reversed $48 $-1 #
face $-1 $-1 $126 $26 $-1 $127 forward single #
loop $-1 $128 $129 $50 #
cone-surface $-1 -46.001651979129576 -6.6622934359844983 3.7910588608129068 0.64278761758704617 0 -0.76604443648966558 0.38302221824483279 0 0.32139380879352308 1 I I -0.70710678118654746 0.70710678118654746 0.5 forward I I I I #
loop $-1 $-1 $130 $33 #
coedge $-1 $81 $81 $131 $132 reversed $51 $-1 #
face $-1 $-1 $133 $27 $-1 $134 forward single #
loop $-1 $135 $136 $53 #
cone-surface $-1 -46.001651979129576 -3.5427819503869422 3.7910588608129068 0.64278761758704617 0 -0.76604443648966558 0.38302221824483279 0 0.32139380879352308 1 I I -0.70710678118654746 0.70710678118654746 0.5 forward I I I I #
loop $-1 $-1 $137 $34 #
coedge $-1 $86 $86 $138 $139 reversed $54 $-1 #
face $-1 $140 $141 $21 $-1 $142 reversed single #
loop $-1 $-1 $143 $56 #
plane-surface $-1 0 -31.357753312553594 0 0 1 0 0 0 1 forward_v I I I I #
coedge $-1 $144 $145 $146 $147 forward $57 $-1 #
coedge $-1 $148 $59 $149 $150 forward $36 $-1 #
coedge $-1 $59 $148 $151 $152 forward $36 $-1 #
coedge $-1 $153 $154 $59 $94 reversed $155 $-1 #
edge $-1 $156 -31.357753312553594 $157 31.357753312553594 $93 $158 forward 7 unknown #
face $-1 $159 $160 $22 $-1 $161 reversed single #
loop $-1 $-1 $162 $60 #
plane-surface $-1 -53.447676015503404 0 0 1 0 0 0 0 -1 forward_v I I I I #
coedge $-1 $163 $164 $165 $166 forward $61 $-1 #
coedge $-1 $165 $63 $162 $167 reversed $39 $-1 #
coedge $-1 $63 $165 $168 $169 reversed $39 $-1 #
coedge $-1 $170 $171 $63 $102 reversed $160 $-1 #
edge $-1 $172 -53.447676015503404 $173 53.447676015503404 $101 $174 forward 7 unknown #
face $-1 $175 $176 $23 $-1 $177 reversed single #
loop $-1 $-1 $178 $64 #
plane-surface $-1 37.645811139446508 11.241788510582101 152.35325314047654 0 1 0 0.62932039886446345 0 0.77714595512881146 forward_v I I I I #
coedge $-1 $179 $180 $181 $182 reversed $65 $-1 #
coedge $-1 $108 $67 $183 $184 reversed $42 $-1 #
coedge $-1 $67 $107 $179 $185 reversed $42 $-1 #
coedge $-1 $181 $186 $67 $110 forward $187 $-1 #
edge $-1 $188 -34.62477044578015 $189 -23.556278999297795 $109 $190 forward 7 unknown #
loop $-1 $-1 $116 $68 #
plane-surface $-1 -29.625614437463923 17.501927895422345 69.279962687509212 0.62932039886446345 0 0.77714595512881146 0.77714595512881146 0 -0.62932039886446345 forward_v I I I I #
loop $-1 $-1 $191 $44 #
coedge $-1 $114 $114 $115 $192 reversed $69 $-1 #
coedge $-1 $115 $115 $114 $192 forward $71 $-1 #
coedge $-1 $116 $116 $72 $117 forward $111 $-1 #
edge $-1 $193 0 $193 6.2831853071796004 $116 $194 forward 7 unknown #
face $-1 $195 $196 $25 $-1 $197 forward single #
loop $-1 $-1 $198 $73 #
plane-surface $-1 -122.15868467864289 -1.4631076266552405 84.800379556570618 0 -1 0 0.64278761758704617 0 -0.76604443648966558 forward_v I I I I #
coedge $-1 $199 $200 $201 $202 reversed $74 $-1 #
coedge $-1 $123 $76 $203 $204 reversed $48 $-1 #
coedge $-1 $76 $122 $199 $205 reversed $48 $-1 #
coedge $-1 $201 $206 $76 $125 forward $196 $-1 #
edge $-1 $207 7.6316663238180382 $208 17.23462004352141 $124 $209 forward 7 unknown #
loop $-1 $-1 $131 $77 #
plane-surface $-1 -53.447676015503404 -5.1025376931857203 2.9137898466135823 -0.64278761758704617 0 0.76604443648966558 0.76604443648966558 0 0.64278761758704617 forward_v I I I I #
loop $-1 $-1 $210 $50 #
coedge $-1 $129 $129 $130 $211 reversed $78 $-1 #
coedge $-1 $130 $130 $129 $211 forward $80 $-1 #
coedge $-1 $131 $131 $81 $132 forward $126 $-1 #
edge $-1 $212 0 $212 6.2831853071796004 $131 $213 forward 7 unknown #
loop $-1 $-1 $138 $82 #
plane-surface $-1 -53.447676015503404 -5.1025376931857203 2.9137898466135823 -0.64278761758704617 0 0.76604443648966558 0.76604443648966558 0 0.64278761758704617 forward_v I I I I #
loop $-1 $-1 $214 $53 #
coedge $-1 $136 $136 $137 $215 reversed $83 $-1 #
coedge $-1 $137 $137 $136 $215 forward $85 $-1 #
coedge $-1 $138 $138 $86 $139 forward $133 $-1 #
edge $-1 $216 0 $216 6.2831853071796004 $138 $217 forward 7 unknown #
face $-1 $218 $219 $21 $-1 $220 reversed single #
loop $-1 $-1 $221 $87 #
plane-surface $-1 -53.447676015503404 0 0 1 0 0 0 0 -1 forward_v I I I I #
coedge $-1 $222 $151 $223 $224 forward $88 $-1 #
coedge $-1 $225 $90 $222 $226 forward $57 $-1 #
coedge $-1 $90 $225 $227 $228 forward $57 $-1 #
coedge $-1 $154 $153 $90 $147 reversed $155 $-1 #
edge $-1 $229 -31.357753312553594 $230 31.357753312553594 $146 $231 forward 7 unknown #
coedge $-1 $92 $91 $232 $233 forward $36 $-1 #
coedge $-1 $234 $235 $91 $150 reversed $219 $-1 #
edge $-1 $157 -53.447676015503404 $236 53.447676015503404 $149 $237 forward 7 unknown #
coedge $-1 $143 $238 $92 $152 reversed $88 $-1 #
edge $-1 $239 -53.447676015503404 $156 53.447676015503404 $151 $240 forward 7 unknown #
coedge $-1 $146 $93 $238 $241 forward $155 $-1 #
coedge $-1 $93 $146 $234 $242 reversed $155 $-1 #
loop $-1 $-1 $153 $218 #
vertex $-1 $94 $243 #
vertex $-1 $94 $244 #
straight-curve $-1 53.447676015503404 0 10.971624939800201 0 1 0 I I #
face $-1 $245 $246 $22 $-1 $247 reversed single #
loop $-1 $-1 $170 $95 #
plane-surface $-1 0 -37.392846840110664 7.4036620187661413 0 0 1 1 0 0 forward_v I I I I #
coedge $-1 $248 $249 $99 $167 forward $96 $-1 #
coedge $-1 $250 $98 $249 $251 forward $61 $-1 #
coedge $-1 $98 $250 $252 $253 forward $61 $-1 #
coedge $-1 $100 $99 $98 $166 reversed $39 $-1 #
edge $-1 $254 -53.447676015503404 $255 53.447676015503404 $98 $256 forward 7 unknown #
edge $-1 $255 -10.971624939800201 $173 -7.4036620187661413 $162 $257 forward 7 unknown #
coedge $-1 $252 $258 $100 $169 forward $259 $-1 #
edge $-1 $172 7.4036620187661413 $254 10.971624939800201 $168 $260 forward 7 unknown #
coedge $-1 $261 $101 $258 $262 forward $160 $-1 #
coedge $-1 $101 $261 $248 $263 forward $160 $-1 #
vertex $-1 $169 $264 #
vertex $-1 $167 $265 #
straight-curve $-1 0 -31.357753312553594 7.4036620187661413 -1 0 0 I I #
face $-1 $-1 $187 $23 $-1 $266 forward single #
loop $-1 $-1 $267 $103 #
plane-surface $-1 53.447676015503404 0 0 -1 0 0 0 0 1 forward_v I I I I #
coedge $-1 $268 $269 $270 $271 reversed $104 $-1 #
coedge $-1 $272 $106 $108 $185 forward $65 $-1 #
coedge $-1 $106 $272 $268 $273 forward $65 $-1 #
coedge $-1 $270 $109 $106 $182 forward $187 $-1 #
edge $-1 $189 -15.011103332551416 $274 -2.4908245628709285 $181 $275 forward 7 unknown #
coedge $-1 $276 $277 $107 $184 forward $176 $-1 #
edge $-1 $278 -74.168089459639489 $188 -65.205001630438062 $183 $279 forward 7 unknown #
edge $-1 $189 92.652864666264946 $278 106.89535203100681 $108 $280 forward 7 unknown #
coedge $-1 $109 $270 $276 $281 forward $187 $-1 #
loop $-1 $-1 $270 $175 #
vertex $-1 $184 $282 #
vertex $-1 $110 $283 #
straight-curve $-1 18.822905569723254 23.762067280262588 10.971624939800193 -1 0 0 I I #
coedge $-1 $191 $191 $-1 $284 reversed $113 $-1 #
edge $-1 $285 0 $285 6.2831853071796004 $114 $286 forward 7 unknown #
vertex $-1 $117 $287 #
ellipse-curve $-1 47.913430292262227 17.501927895422345 6.4900810251994834 0.62932039886446345 0 0.77714595512881146 2.3314378653864343 0 -1.8879611965933902 1 I I #
face $-1 $-1 $288 $25 $-1 $289 reversed single #
loop $-1 $-1 $124 $118 #
plane-surface $-1 0 0 10.971624939800201 0 0 1 1 0 0 forward_v I I I I #
coedge $-1 $290 $291 $292 $293 reversed $119 $-1 #
coedge $-1 $294 $121 $123 $205 forward $74 $-1 #
coedge $-1 $121 $294 $290 $295 forward $74 $-1 #
coedge $-1 $292 $124 $121 $202 forward $196 $-1 #
edge $-1 $208 -6.1906989131233399 $296 1.0881612199376196 $201 $297 forward 7 unknown #
coedge $-1 $298 $299 $122 $204 forward $288 $-1 #
edge $-1 $300 -39.486399931671727 $207 -31.428564838485109 $203 $301 forward 7 unknown #
edge $-1 $208 -12.535765893305229 $300 0 $123 $302 forward 7 unknown #
coedge $-1 $124 $292 $298 $303 forward $196 $-1 #
vertex $-1 $204 $304 #
vertex $-1 $125 $305 #
straight-curve $-1 -61.079342339321443 -8.7419677597162 10.971624939800201 1 0 0 I I #
coedge $-1 $210 $210 $-1 $306 reversed $128 $-1 #
edge $-1 $307 0 $307 6.2831853071796004 $129 $308 forward 7 unknown #
vertex $-1 $132 $309 #
ellipse-curve $-1 -48.646199155651715 -6.6622934359844983 6.9427073932068932 -0.64278761758704617 0 0.76604443648966558 0.76604443648966558 0 0.64278761758704617 1 I I #
coedge $-1 $214 $214 $-1 $310 reversed $135 $-1 #
edge $-1 $311 0 $311 6.2831853071796004 $136 $312 forward 7 unknown #
vertex $-1 $139 $313 #
ellipse-curve $-1 -48.646199155651715 -3.5427819503869422 6.9427073932068932 -0.64278761758704617 0 0.76604443648966558 0.76604443648966558 0 0.64278761758704617 1 I I #
face $-1 $-1 $155 $21 $-1 $314 reversed single #
loop $-1 $-1 $234 $140 #
plane-surface $-1 0 31.357753312553594 0 0 -1 0 0 0 -1 forward_v I I I I #
coedge $-1 $315 $232 $235 $316 forward $141 $-1 #
coedge $-1 $238 $143 $144 $226 reversed $88 $-1 #
coedge $-1 $232 $315 $143 $224 reversed $141 $-1 #
edge $-1 $239 -10.971624939800201 $317 10.971624939800201 $223 $318 forward 7 unknown #
coedge $-1 $145 $144 $315 $319 forward $57 $-1 #
edge $-1 $230 -53.447676015503404 $317 53.447676015503404 $222 $320 forward 7 unknown #
coedge $-1 $235 $234 $145 $228 reversed $219 $-1 #
edge $-1 $321 -53.447676015503404 $229 53.447676015503404 $227 $322 forward 7 unknown #
vertex $-1 $147 $323 #
vertex $-1 $241 $324 #
straight-curve $-1 53.447676015503404 0 -10.971624939800201 0 -1 0 I I #
coedge $-1 $221 $223 $148 $233 reversed $141 $-1 #
edge $-1 $236 -31.357753312553594 $239 31.357753312553594 $232 $325 forward 7 unknown #
coedge $-1 $227 $149 $154 $242 forward $219 $-1 #
coedge $-1 $149 $227 $221 $316 reversed $219 $-1 #
vertex $-1 $150 $326 #
straight-curve $-1 0 31.357753312553594 10.971624939800201 -1 0 0 I I #
coedge $-1 $151 $222 $153 $241 reversed $88 $-1 #
vertex $-1 $233 $327 #
straight-curve $-1 0 -31.357753312553594 10.971624939800201 1 0 0 I I #
edge $-1 $156 -10.971624939800201 $230 10.971624939800201 $153 $328 forward 7 unknown #
edge $-1 $157 -10.971624939800201 $229 10.971624939800201 $154 $329 forward 7 unknown #
point $-1 53.447676015503404 -31.357753312553594 10.971624939800201 #
point $-1 53.447676015503404 31.357753312553594 10.971624939800201 #
face $-1 $-1 $259 $22 $-1 $330 reversed single #
loop $-1 $-1 $331 $159 #
plane-surface $-1 0 -43.42794036766773 9.1876434792831709 0 1 0 0 0 1 forward_v I I I I #
coedge $-1 $332 $162 $171 $263 reversed $96 $-1 #
coedge $-1 $162 $332 $163 $251 reversed $96 $-1 #
coedge $-1 $164 $163 $333 $334 forward $61 $-1 #
edge $-1 $255 31.357753312553594 $335 43.42794036766773 $249 $336 forward 7 unknown #
coedge $-1 $337 $168 $164 $253 reversed $259 $-1 #
edge $-1 $338 -43.42794036766773 $254 -31.357753312553594 $252 $339 forward 7 unknown #
vertex $-1 $169 $340 #
vertex $-1 $251 $341 #
straight-curve $-1 0 -31.357753312553594 10.971624939800201 -1 0 0 I I #
straight-curve $-1 -53.447676015503404 -31.357753312553594 0 0 0 -1 I I #
coedge $-1 $168 $337 $170 $262 reversed $259 $-1 #
loop $-1 $-1 $168 $245 #
straight-curve $-1 53.447676015503404 -31.357753312553594 0 0 0 1 I I #
coedge $-1 $171 $170 $342 $343 forward $160 $-1 #
edge $-1 $172 -6.0350935275570663 $344 6.0350935275570663 $258 $345 forward 7 unknown #
edge $-1 $346 -6.0350935275570663 $173 6.0350935275570663 $248 $347 forward 7 unknown #
point $-1 53.447676015503404 -31.357753312553598 7.4036620187661413 #
point $-1 -53.447676015503404 -31.357753312553598 7.4036620187661413 #
plane-surface $-1 0 0 10.971624939800201 0 0 1 1 0 0 forward_v I I I I #
coedge $-1 $277 $276 $269 $348 forward $176 $-1 #
coedge $-1 $269 $178 $180 $273 reversed $104 $-1 #
coedge $-1 $178 $268 $267 $348 reversed $104 $-1 #
coedge $-1 $186 $181 $178 $271 forward $187 $-1 #
edge $-1 $274 23.556278999297795 $349 34.62477044578015 $270 $350 forward 7 unknown #
coedge $-1 $180 $179 $277 $351 reversed $65 $-1 #
edge $-1 $352 -106.89535203100681 $274 -92.652864666264946 $268 $353 forward 7 unknown #
vertex $-1 $182 $354 #
straight-curve $-1 42.379184569021071 8.7509639477111723 10.971624939800201 0 -1 0 I I #
coedge $-1 $267 $183 $186 $281 reversed $176 $-1 #
coedge $-1 $183 $267 $272 $351 forward $176 $-1 #
vertex $-1 $184 $355 #
straight-curve $-1 53.447676015503404 23.762067280262588 76.17662657023827 0 0 1 I I #
straight-curve $-1 -29.625614437463923 23.762067280262588 69.279962687509212 0.77714595512881146 0 -0.62932039886446345 I I #
edge $-1 $349 11.241788510582101 $188 23.762067280262588 $276 $356 forward 7 unknown #
point $-1 53.447676015503404 23.762067280262588 10.971624939800201 #
point $-1 42.379184569021049 23.762067280262588 10.971624939800201 #
edge $-1 $357 1 $357 0 $191 $-1 forward 7 unknown #
vertex $-1 $192 $358 #
ellipse-curve $-1 45.22325699995762 17.501927895422345 3.1679937442493653 0.62932039886446345 0 0.77714595512881146 2.3314378653864343 0 -1.8879611965933902 1 I I #
point $-1 50.244868157648668 17.501927895422345 4.6021198286060958 #
loop $-1 $-1 $203 $195 #
plane-surface $-1 -53.447676015503404 0 0 1 0 0 0 0 -1 forward_v I I I I #
coedge $-1 $291 $198 $200 $295 reversed $119 $-1 #
coedge $-1 $198 $290 $359 $360 reversed $119 $-1 #
coedge $-1 $206 $201 $198 $293 forward $196 $-1 #
edge $-1 $296 -17.23462004352141 $361 -7.6316663238180382 $292 $362 forward 7 unknown #
coedge $-1 $200 $199 $299 $363 reversed $74 $-1 #
edge $-1 $364 0 $296 12.535765893305229 $290 $365 forward 7 unknown #
vertex $-1 $202 $366 #
straight-curve $-1 -43.844722295800025 -2.5512688465928601 10.971624939800201 0 1 0 I I #
coedge $-1 $359 $203 $206 $303 reversed $288 $-1 #
coedge $-1 $203 $359 $294 $363 forward $288 $-1 #
vertex $-1 $204 $367 #
straight-curve $-1 -53.447676015503404 -8.7419677597162 42.400189778285309 0 0 1 I I #
straight-curve $-1 -53.447676015503404 -8.7419677597162 2.9137898466135823 -0.76604443648966558 0 -0.64278761758704617 I I #
edge $-1 $361 1.4631076266552405 $207 8.7419677597162 $298 $368 forward 7 unknown #
point $-1 -53.447676015503404 -8.7419677597162 10.971624939800201 #
point $-1 -43.844722295800032 -8.7419677597162 10.971624939800201 #
edge $-1 $369 1 $369 0 $210 $-1 forward 7 unknown #
vertex $-1 $211 $370 #
ellipse-curve $-1 -46.3230457879231 -6.6622934359844983 4.1740810790577392 -0.64278761758704617 0 0.76604443648966558 0.76604443648966558 0 0.64278761758704617 1 I I #
point $-1 -47.88015471916205 -6.6622934359844983 7.5854950107939345 #
edge $-1 $371 1 $371 0 $214 $-1 forward 7 unknown #
vertex $-1 $215 $372 #
ellipse-curve $-1 -46.3230457879231 -3.5427819503869422 4.1740810790577392 -0.64278761758704617 0 0.76604443648966558 0.76604443648966558 0 0.64278761758704617 1 I I #
point $-1 -47.88015471916205 -3.5427819503869422 7.5854950107939345 #
plane-surface $-1 53.447676015503404 0 0 -1 0 0 0 0 1 forward_v I I I I #
coedge $-1 $223 $221 $225 $319 reversed $141 $-1 #
edge $-1 $236 -10.971624939800201 $321 10.971624939800201 $235 $373 forward 7 unknown #
vertex $-1 $319 $374 #
straight-curve $-1 -53.447676015503404 -31.357753312553594 0 0 0 -1 I I #
edge $-1 $317 -31.357753312553594 $321 31.357753312553594 $315 $375 forward 7 unknown #
straight-curve $-1 0 -31.357753312553594 -10.971624939800201 -1 0 0 I I #
vertex $-1 $228 $376 #
straight-curve $-1 0 31.357753312553594 -10.971624939800201 1 0 0 I I #
point $-1 53.447676015503404 31.357753312553594 -10.971624939800201 #
point $-1 53.447676015503404 -31.357753312553594 -10.971624939800201 #
straight-curve $-1 -53.447676015503404 0 10.971624939800201 0 -1 0 I I #
point $-1 -53.447676015503404 31.357753312553594 10.971624939800201 #
point $-1 -53.447676015503404 -31.357753312553594 10.971624939800201 #
straight-curve $-1 53.447676015503404 -31.357753312553594 0 0 0 -1 I I #
straight-curve $-1 53.447676015503404 31.357753312553594 0 0 0 -1 I I #
plane-surface $-1 53.447676015503404 0 0 -1 0 0 0 0 1 forward_v I I I I #
coedge $-1 $342 $333 $332 $377 forward $246 $-1 #
coedge $-1 $249 $248 $331 $377 reversed $96 $-1 #
coedge $-1 $331 $378 $250 $334 reversed $246 $-1 #
edge $-1 $335 -53.447676015503404 $338 53.447676015503404 $333 $379 forward 7 unknown #
vertex $-1 $251 $380 #
straight-curve $-1 -53.447676015503404 0 10.971624939800201 0 -1 0 I I #
coedge $-1 $258 $252 $378 $381 forward $259 $-1 #
vertex $-1 $253 $382 #
straight-curve $-1 53.447676015503404 0 10.971624939800201 0 1 0 I I #
point $-1 53.447676015503404 -31.357753312553594 10.971624939800201 #
point $-1 -53.447676015503404 -31.357753312553594 10.971624939800201 #
coedge $-1 $378 $331 $261 $343 reversed $246 $-1 #
edge $-1 $344 -53.447676015503404 $346 53.447676015503404 $342 $383 forward 7 unknown #
vertex $-1 $381 $384 #
straight-curve $-1 53.447676015503404 -37.392846840110664 7.4036620187661413 0 -1 0 I I #
vertex $-1 $263 $385 #
straight-curve $-1 -53.447676015503404 -37.392846840110664 7.4036620187661413 0 1 0 I I #
edge $-1 $349 65.205001630438062 $352 74.168089459639489 $267 $386 forward 7 unknown #
vertex $-1 $281 $387 #
straight-curve $-1 18.822905569723254 11.241788510582101 10.971624939800193 1 0 0 I I #
edge $-1 $352 2.4908245628709285 $278 15.011103332551416 $277 $388 forward 7 unknown #
vertex $-1 $351 $389 #
straight-curve $-1 -29.625614437463923 11.241788510582101 69.279962687509212 -0.77714595512881146 0 0.62932039886446345 I I #
point $-1 42.379184569021049 11.241788510582101 10.971624939800201 #
point $-1 53.447676015503404 23.762067280262588 2.0085371105987804 #
straight-curve $-1 53.447676015503404 0 10.971624939800201 0 1 0 I I #
vertex $-1 $284 $390 #
point $-1 47.554694865344054 17.501927895422345 1.2800325476559753 #
coedge $-1 $299 $298 $291 $360 forward $288 $-1 #
edge $-1 $361 31.428564838485109 $364 39.486399931671727 $359 $391 forward 7 unknown #
vertex $-1 $303 $392 #
straight-curve $-1 -61.079342339321443 -1.4631076266552405 10.971624939800201 -1 0 0 I I #
edge $-1 $364 -1.0881612199376196 $300 6.1906989131233399 $299 $393 forward 7 unknown #
vertex $-1 $363 $394 #
straight-curve $-1 -53.447676015503404 -1.4631076266552405 2.9137898466135823 0.76604443648966558 0 0.64278761758704617 I I #
point $-1 -43.844722295800032 -1.4631076266552405 10.971624939800201 #
point $-1 -53.447676015503404 -8.7419677597162 2.9137898466135823 #
straight-curve $-1 -53.447676015503404 0 10.971624939800201 0 -1 0 I I #
vertex $-1 $306 $395 #
point $-1 -45.557001351433435 -6.6622934359844983 4.8168686966447858 #
vertex $-1 $310 $396 #
point $-1 -45.557001351433435 -3.5427819503869422 4.8168686966447858 #
straight-curve $-1 -53.447676015503404 31.357753312553594 0 0 0 -1 I I #
point $-1 -53.447676015503404 -31.357753312553594 -10.971624939800201 #
straight-curve $-1 -53.447676015503404 0 -10.971624939800201 0 1 0 I I #
point $-1 -53.447676015503404 31.357753312553594 -10.971624939800201 #
edge $-1 $335 -1.7839814605170297 $346 1.7839814605170297 $332 $397 forward 7 unknown #
coedge $-1 $333 $342 $337 $381 reversed $246 $-1 #
straight-curve $-1 0 -43.42794036766773 10.971624939800201 1 0 0 I I #
point $-1 -53.447676015503404 -43.42794036766773 10.971624939800201 #
edge $-1 $338 -1.7839814605170297 $344 1.7839814605170297 $337 $398 forward 7 unknown #
point $-1 53.447676015503404 -43.42794036766773 10.971624939800201 #
straight-curve $-1 0 -43.42794036766773 7.4036620187661413 -1 0 0 I I #
point $-1 53.447676015503404 -43.42794036766773 7.4036620187661413 #
point $-1 -53.447676015503404 -43.42794036766773 7.4036620187661413 #
straight-curve $-1 53.447676015503404 11.241788510582101 76.17662657023827 0 0 -1 I I #
point $-1 53.447676015503404 11.241788510582101 10.971624939800201 #
straight-curve $-1 53.447676015503404 8.7509639477111723 2.0085371105987733 0 1 0 I I #
point $-1 53.447676015503404 11.241788510582101 2.0085371105987804 #
point $-1 43.335295803364225 17.501927895422345 0.83655587886293126 #
straight-curve $-1 -53.447676015503404 -1.4631076266552405 42.400189778285309 0 0 -1 I I #
point $-1 -53.447676015503404 -1.4631076266552405 10.971624939800201 #
straight-curve $-1 -53.447676015503404 -2.5512688465928601 2.9137898466135805 0 -1 0 I I #
point $-1 -53.447676015503404 -1.4631076266552405 2.9137898466135823 #
point $-1 -45.680258170336053 -6.6622934359844983 3.4080366425680739 #
point $-1 -45.680258170336053 -3.5427819503869422 3.4080366425680739 #
straight-curve $-1 -53.447676015503404 -43.42794036766773 9.1876434792831709 0 0 -1 I I #
straight-curve $-1 53.447676015503404 -43.42794036766773 9.1876434792831709 0 0 -1 I I #
End-of-ACIS-data 