500 0 9 0           
7 Unknown 11 ACIS 5.0 NT 24 Fri Mar 26 19:31:26 1999 
-1 9.9999999999999995e-007 1e-010 
body $-1 $9 $-1 $10 #
body $-1 $11 $-1 $12 #
body $-1 $13 $-1 $14 #
body $-1 $15 $-1 $16 #
body $-1 $17 $-1 $18 #
body $-1 $19 $-1 $20 #
body $-1 $21 $-1 $22 #
body $-1 $23 $-1 $24 #
body $-1 $25 $-1 $26 #
lump $-1 $-1 $27 $0 #
transform $-1 1 0 0 0 1 0 0 0 1 53.766289254432813 25.329899917348367 11.302019371672722 1 rotate no_reflect no_shear #
lump $-1 $-1 $28 $1 #
transform $-1 1 0 0 0 1 0 0 0 1 53.766289254432813 25.329899917348367 11.302019371672722 1 rotate no_reflect no_shear #
lump $-1 $-1 $29 $2 #
transform $-1 1 0 0 0 1 0 0 0 1 53.766289254432813 25.329899917348367 11.302019371672722 1 rotate no_reflect no_shear #
lump $-1 $-1 $30 $3 #
transform $-1 1 0 0 0 1 0 0 0 1 53.766289254432813 25.329899917348367 11.302019371672722 1 rotate no_reflect no_shear #
lump $-1 $-1 $31 $4 #
transform $-1 1 0 0 0 1 0 0 0 1 53.766289254432813 25.329899917348367 11.302019371672722 1 rotate no_reflect no_shear #
lump $-1 $-1 $32 $5 #
transform $-1 1 0 0 0 1 0 0 0 1 53.766289254432813 25.329899917348367 11.302019371672722 1 rotate no_reflect no_shear #
lump $-1 $-1 $33 $6 #
transform $-1 1 0 0 0 1 0 0 0 1 53.766289254432813 25.329899917348367 11.302019371672722 1 rotate no_reflect no_shear #
lump $-1 $-1 $34 $7 #
transform $-1 1 0 0 0 1 0 0 0 1 53.766289254432813 25.329899917348367 11.302019371672722 1 rotate no_reflect no_shear #
lump $-1 $-1 $35 $8 #
transform $-1 1 0 0 0 1 0 0 0 1 53.766289254432813 25.329899917348367 11.302019371672722 1 rotate no_reflect no_shear #
shell $-1 $-1 $-1 $36 $-1 $9 #
shell $-1 $-1 $-1 $37 $-1 $11 #
shell $-1 $-1 $-1 $38 $-1 $13 #
shell $-1 $-1 $-1 $39 $-1 $15 #
shell $-1 $-1 $-1 $40 $-1 $17 #
shell $-1 $-1 $-1 $41 $-1 $19 #
shell $-1 $-1 $-1 $42 $-1 $21 #
shell $-1 $-1 $-1 $43 $-1 $23 #
shell $-1 $-1 $-1 $44 $-1 $25 #
face $-1 $45 $46 $27 $-1 $47 forward single #
face $-1 $48 $49 $28 $-1 $50 forward single #
face $-1 $51 $52 $29 $-1 $53 forward single #
face $-1 $54 $55 $30 $-1 $56 reversed single #
face $-1 $57 $58 $31 $-1 $59 forward single #
face $-1 $60 $61 $32 $-1 $62 forward single #
face $-1 $63 $64 $33 $-1 $65 reversed single #
face $-1 $66 $67 $34 $-1 $68 forward single #
face $-1 $69 $70 $35 $-1 $71 forward single #
face $-1 $72 $73 $27 $-1 $74 reversed single #
loop $-1 $-1 $75 $36 #
plane-surface $-1 0 0 11.302019371672722 0 0 1 1 0 0 forward_v I I I I #
face $-1 $76 $77 $28 $-1 $78 reversed single #
loop $-1 $-1 $79 $37 #
plane-surface $-1 0 -19.3769120839886 3.560298451428368 0 0 1 1 0 0 forward_v I I I I #
face $-1 $80 $81 $29 $-1 $82 reversed single #
loop $-1 $-1 $83 $38 #
plane-surface $-1 0 19.376912083988604 3.560298451428368 0 0 1 1 0 0 forward_v I I I I #
face $-1 $84 $85 $30 $-1 $86 reversed single #
loop $-1 $-1 $87 $39 #
plane-surface $-1 -141.85182164228809 -6.9359625371492202 66.103176134757518 0 -1 0 0.81915205242281985 0 -0.57357642473473569 forward_v I I I I #
face $-1 $88 $89 $31 $-1 $90 forward single #
loop $-1 $91 $92 $40 #
cone-surface $-1 -50.556856111956407 -11.570220903920371 7.3021155076432338 0.81915205242281985 0 -0.57357642473473569 0.28678821236736785 0 0.40957602621140993 1 I I 0 1 0.5 forward I I I I #
face $-1 $93 $94 $32 $-1 $95 forward single #
loop $-1 $96 $97 $41 #
cone-surface $-1 -50.556856111956407 -8.7896658838576798 7.3021155076432338 0.81915205242281985 0 -0.57357642473473569 0.28678821236736785 0 0.40957602621140993 1 I I 0 1 0.5 forward I I I I #
face $-1 $98 $99 $33 $-1 $100 reversed single #
loop $-1 $-1 $101 $42 #
plane-surface $-1 87.975505065039187 5.455776478619061 149.25267846333361 0 1 0 0.84804810408105047 0 0.52991925155115449 forward_v I I I I #
face $-1 $102 $103 $34 $-1 $104 forward single #
loop $-1 $105 $106 $43 #
cone-surface $-1 49.815688679494805 7.7323901277647131 5.7169249969768101 -0.84804810408105047 0 -0.52991925155115449 0.26495962577557725 0 -0.42402405204052523 1 I I 0 1 0.5 forward I I I I #
face $-1 $107 $108 $35 $-1 $109 forward single #
loop $-1 $110 $111 $44 #
cone-surface $-1 49.815688679494805 11.147310601483188 5.7169249969768101 -0.84804810408105047 0 -0.52991925155115449 0.26495962577557725 0 -0.42402405204052523 1 I I 0 1 0.5 forward I I I I #
face $-1 $112 $113 $27 $-1 $114 reversed single #
loop $-1 $-1 $115 $45 #
plane-surface $-1 0 0 -11.302019371672722 0 0 1 1 0 0 forward_v I I I I #
coedge $-1 $116 $117 $118 $119 forward $46 $-1 #
face $-1 $120 $121 $28 $-1 $122 reversed single #
loop $-1 $-1 $123 $48 #
plane-surface $-1 0 -19.3769120839886 -0.65497846562880291 0 0 1 1 0 0 forward_v I I I I #
coedge $-1 $124 $125 $126 $127 reversed $49 $-1 #
face $-1 $128 $129 $29 $-1 $130 reversed single #
loop $-1 $-1 $131 $51 #
plane-surface $-1 0 19.376912083988604 -0.65497846562880291 0 0 1 1 0 0 forward_v I I I I #
coedge $-1 $132 $133 $134 $135 reversed $52 $-1 #
face $-1 $136 $137 $30 $-1 $138 reversed single #
loop $-1 $-1 $139 $54 #
plane-surface $-1 -53.766289254432806 -10.179943393889026 4.4250242111350957 -0.81915205242281985 0 0.57357642473473569 0.57357642473473569 0 0.81915205242281985 forward_v I I I I #
coedge $-1 $140 $141 $142 $143 reversed $55 $-1 #
face $-1 $-1 $144 $31 $-1 $145 forward single #
loop $-1 $146 $147 $57 #
cone-surface $-1 -49.55029680952633 -11.570220903920371 6.5973151176988676 0.81915205242281985 0 -0.57357642473473569 0.14339410618368392 0 0.20478801310570496 1 I I -0.70710678118654624 0.70710678118654879 0.25 forward I I I I #
loop $-1 $-1 $148 $40 #
coedge $-1 $92 $92 $149 $150 reversed $58 $-1 #
face $-1 $-1 $151 $32 $-1 $152 forward single #
loop $-1 $153 $154 $60 #
cone-surface $-1 -49.55029680952633 -8.7896658838576798 6.5973151176988676 0.81915205242281985 0 -0.57357642473473569 0.14339410618368392 0 0.20478801310570496 1 I I -0.70710678118654624 0.70710678118654879 0.25 forward I I I I #
loop $-1 $-1 $155 $41 #
coedge $-1 $97 $97 $156 $157 reversed $61 $-1 #
face $-1 $158 $159 $33 $-1 $160 forward single #
loop $-1 $-1 $161 $63 #
plane-surface $-1 -3.2172942663510185 9.4398503646239469 92.269094942549771 0.84804810408105047 0 0.52991925155115449 0.52991925155115449 0 -0.84804810408105047 forward_v I I I I #
coedge $-1 $162 $163 $164 $165 reversed $64 $-1 #
face $-1 $-1 $166 $34 $-1 $167 forward single #
loop $-1 $168 $169 $66 #
cone-surface $-1 48.847946661739975 7.7323901277647131 5.1122126896496862 -0.84804810408105047 0 -0.52991925155115449 0.13247981288778862 0 -0.21201202602026262 1 I I -0.70710678118654746 0.70710678118654746 0.25 forward I I I I #
loop $-1 $-1 $170 $43 #
coedge $-1 $106 $106 $171 $172 reversed $67 $-1 #
face $-1 $-1 $173 $35 $-1 $174 forward single #
loop $-1 $175 $176 $69 #
cone-surface $-1 48.847946661739975 11.147310601483188 5.1122126896496862 -0.84804810408105047 0 -0.52991925155115449 0.13247981288778862 0 -0.21201202602026262 1 I I -0.70710678118654746 0.70710678118654746 0.25 forward I I I I #
loop $-1 $-1 $177 $44 #
coedge $-1 $111 $111 $178 $179 reversed $70 $-1 #
face $-1 $180 $181 $27 $-1 $182 reversed single #
loop $-1 $-1 $183 $72 #
plane-surface $-1 0 -25.329899917348367 0 0 1 0 0 0 1 forward_v I I I I #
coedge $-1 $184 $185 $186 $187 forward $73 $-1 #
coedge $-1 $188 $75 $189 $190 forward $46 $-1 #
coedge $-1 $75 $188 $191 $192 forward $46 $-1 #
coedge $-1 $193 $194 $75 $119 reversed $195 $-1 #
edge $-1 $196 -25.329899917348367 $197 25.329899917348367 $118 $198 forward 7 unknown #
face $-1 $199 $200 $28 $-1 $201 reversed single #
loop $-1 $-1 $202 $76 #
plane-surface $-1 0 -13.423924250628833 1.4526599928997825 0 -1 0 0 0 -1 forward_v I I I I #
coedge $-1 $203 $204 $205 $206 reversed $77 $-1 #
coedge $-1 $207 $79 $208 $209 forward $49 $-1 #
coedge $-1 $79 $207 $210 $211 reversed $49 $-1 #
coedge $-1 $212 $213 $79 $127 forward $214 $-1 #
edge $-1 $215 3.7354682086345328 $216 15.641443875354067 $126 $217 forward 7 unknown #
face $-1 $218 $219 $29 $-1 $220 reversed single #
loop $-1 $-1 $221 $80 #
plane-surface $-1 0 13.423924250628836 1.4526599928997825 0 1 0 0 0 1 forward_v I I I I #
coedge $-1 $222 $223 $224 $225 reversed $81 $-1 #
coedge $-1 $226 $83 $227 $228 reversed $52 $-1 #
coedge $-1 $83 $226 $229 $230 forward $52 $-1 #
coedge $-1 $231 $232 $83 $135 forward $219 $-1 #
edge $-1 $233 -15.641443875354069 $234 -3.7354682086345345 $134 $235 forward 7 unknown #
face $-1 $236 $237 $30 $-1 $238 reversed single #
loop $-1 $-1 $239 $84 #
plane-surface $-1 -141.85182164228809 -13.423924250628833 66.103176134757518 0 1 0 -0.81915205242281985 0 0.57357642473473569 forward_v I I I I #
coedge $-1 $240 $241 $242 $243 reversed $85 $-1 #
coedge $-1 $141 $87 $244 $245 reversed $55 $-1 #
coedge $-1 $87 $140 $240 $246 reversed $55 $-1 #
coedge $-1 $242 $247 $87 $143 forward $237 $-1 #
edge $-1 $248 21.749568695706039 $249 28.626563856243674 $142 $250 forward 7 unknown #
loop $-1 $-1 $149 $88 #
plane-surface $-1 -53.766289254432806 -10.179943393889026 4.4250242111350957 -0.81915205242281985 0 0.57357642473473569 0.57357642473473569 0 0.81915205242281985 forward_v I I I I #
loop $-1 $-1 $251 $57 #
coedge $-1 $147 $147 $148 $252 reversed $89 $-1 #
coedge $-1 $148 $148 $147 $252 forward $91 $-1 #
coedge $-1 $149 $149 $92 $150 forward $144 $-1 #
edge $-1 $253 0 $253 6.2831853071796004 $149 $254 forward 7 unknown #
loop $-1 $-1 $156 $93 #
plane-surface $-1 -53.766289254432806 -10.179943393889026 4.4250242111350957 -0.81915205242281985 0 0.57357642473473569 0.57357642473473569 0 0.81915205242281985 forward_v I I I I #
loop $-1 $-1 $255 $60 #
coedge $-1 $154 $154 $155 $256 reversed $94 $-1 #
coedge $-1 $155 $155 $154 $256 forward $96 $-1 #
coedge $-1 $156 $156 $97 $157 forward $151 $-1 #
edge $-1 $257 0 $257 6.2831853071796004 $156 $258 forward 7 unknown #
face $-1 $259 $260 $33 $-1 $261 forward single #
loop $-1 $-1 $262 $98 #
plane-surface $-1 0 0 11.302019371672722 0 0 1 1 0 0 forward_v I I I I #
coedge $-1 $263 $264 $265 $266 reversed $99 $-1 #
coedge $-1 $163 $101 $267 $268 reversed $64 $-1 #
coedge $-1 $101 $162 $263 $269 reversed $64 $-1 #
coedge $-1 $265 $270 $101 $165 forward $271 $-1 #
edge $-1 $272 63.324319859994084 $273 73.550043620507239 $164 $274 forward 7 unknown #
loop $-1 $-1 $171 $102 #
plane-surface $-1 -3.2172942663510185 9.4398503646239469 92.269094942549771 0.84804810408105047 0 0.52991925155115449 0.52991925155115449 0 -0.84804810408105047 forward_v I I I I #
loop $-1 $-1 $275 $66 #
coedge $-1 $169 $169 $170 $276 reversed $103 $-1 #
coedge $-1 $170 $170 $169 $276 forward $105 $-1 #
coedge $-1 $171 $171 $106 $172 forward $166 $-1 #
edge $-1 $277 0 $277 6.2831853071796004 $171 $278 forward 7 unknown #
loop $-1 $-1 $178 $107 #
plane-surface $-1 -3.2172942663510185 9.4398503646239469 92.269094942549771 0.84804810408105047 0 0.52991925155115449 0.52991925155115449 0 -0.84804810408105047 forward_v I I I I #
loop $-1 $-1 $279 $69 #
coedge $-1 $176 $176 $177 $280 reversed $108 $-1 #
coedge $-1 $177 $177 $176 $280 forward $110 $-1 #
coedge $-1 $178 $178 $111 $179 forward $173 $-1 #
edge $-1 $281 0 $281 6.2831853071796004 $178 $282 forward 7 unknown #
face $-1 $283 $284 $27 $-1 $285 reversed single #
loop $-1 $-1 $286 $112 #
plane-surface $-1 -53.766289254432813 0 0 1 0 0 0 0 -1 forward_v I I I I #
coedge $-1 $287 $191 $288 $289 forward $113 $-1 #
coedge $-1 $290 $115 $287 $291 forward $73 $-1 #
coedge $-1 $115 $290 $292 $293 forward $73 $-1 #
coedge $-1 $194 $193 $115 $187 reversed $195 $-1 #
edge $-1 $294 -25.329899917348367 $295 25.329899917348367 $186 $296 forward 7 unknown #
coedge $-1 $117 $116 $297 $298 forward $46 $-1 #
coedge $-1 $299 $300 $116 $190 reversed $284 $-1 #
edge $-1 $197 -53.766289254432813 $301 53.766289254432813 $189 $302 forward 7 unknown #
coedge $-1 $183 $303 $117 $192 reversed $113 $-1 #
edge $-1 $304 -53.766289254432813 $196 53.766289254432813 $191 $305 forward 7 unknown #
coedge $-1 $186 $118 $303 $306 forward $195 $-1 #
coedge $-1 $118 $186 $299 $307 reversed $195 $-1 #
loop $-1 $-1 $193 $283 #
vertex $-1 $119 $308 #
vertex $-1 $119 $309 #
straight-curve $-1 53.766289254432813 0 11.302019371672722 0 1 0 I I #
face $-1 $310 $311 $28 $-1 $312 reversed single #
loop $-1 $-1 $313 $120 #
plane-surface $-1 -53.766289254432813 0 0 1 0 0 0 0 -1 forward_v I I I I #
coedge $-1 $314 $208 $213 $315 reversed $121 $-1 #
coedge $-1 $316 $123 $317 $318 reversed $77 $-1 #
coedge $-1 $123 $316 $314 $319 forward $77 $-1 #
coedge $-1 $213 $212 $123 $206 forward $214 $-1 #
edge $-1 $320 -15.641443875354067 $321 -3.7354682086345328 $205 $322 forward 7 unknown #
coedge $-1 $125 $124 $313 $323 reversed $49 $-1 #
coedge $-1 $202 $324 $124 $209 reversed $121 $-1 #
edge $-1 $215 -53.766289254432813 $325 53.766289254432813 $208 $326 forward 7 unknown #
coedge $-1 $327 $328 $125 $211 forward $311 $-1 #
edge $-1 $216 -53.766289254432813 $329 53.766289254432813 $210 $330 forward 7 unknown #
coedge $-1 $205 $126 $328 $331 forward $214 $-1 #
coedge $-1 $126 $205 $202 $315 forward $214 $-1 #
loop $-1 $-1 $126 $310 #
vertex $-1 $127 $332 #
vertex $-1 $331 $333 #
straight-curve $-1 53.766289254432813 -9.6884560419943 3.560298451428368 0 -1 0 I I #
face $-1 $334 $335 $29 $-1 $336 reversed single #
loop $-1 $-1 $134 $128 #
plane-surface $-1 53.766289254432813 0 0 -1 0 0 0 0 1 forward_v I I I I #
coedge $-1 $337 $229 $338 $339 reversed $129 $-1 #
coedge $-1 $340 $131 $337 $341 forward $81 $-1 #
coedge $-1 $131 $340 $342 $343 reversed $81 $-1 #
coedge $-1 $232 $231 $131 $225 forward $219 $-1 #
edge $-1 $344 3.7354682086345345 $345 15.641443875354069 $224 $346 forward 7 unknown #
coedge $-1 $133 $132 $347 $348 reversed $52 $-1 #
coedge $-1 $349 $350 $132 $228 forward $351 $-1 #
edge $-1 $352 -53.766289254432813 $233 53.766289254432813 $227 $353 forward 7 unknown #
coedge $-1 $221 $354 $133 $230 reversed $129 $-1 #
edge $-1 $355 -53.766289254432813 $234 53.766289254432813 $229 $356 forward 7 unknown #
coedge $-1 $224 $134 $354 $357 forward $219 $-1 #
coedge $-1 $134 $224 $349 $358 reversed $219 $-1 #
vertex $-1 $358 $359 #
vertex $-1 $135 $360 #
straight-curve $-1 53.766289254432813 9.6884560419943018 3.560298451428368 0 -1 0 I I #
face $-1 $-1 $361 $30 $-1 $362 forward single #
loop $-1 $-1 $142 $136 #
plane-surface $-1 -53.766289254432813 0 0 1 0 0 0 0 -1 forward_v I I I I #
coedge $-1 $363 $364 $365 $366 reversed $137 $-1 #
coedge $-1 $367 $139 $141 $246 forward $85 $-1 #
coedge $-1 $139 $367 $363 $368 forward $85 $-1 #
coedge $-1 $365 $142 $139 $243 forward $237 $-1 #
edge $-1 $249 1.8459908402047072 $369 8.3339525536843198 $242 $370 forward 7 unknown #
coedge $-1 $371 $372 $140 $245 forward $361 $-1 #
edge $-1 $373 -21.974945273015322 $248 -17.15962156671123 $244 $374 forward 7 unknown #
edge $-1 $249 -1.207859054955032e-014 $373 8.3952608556585098 $141 $375 forward 7 unknown #
coedge $-1 $142 $365 $371 $376 reversed $237 $-1 #
vertex $-1 $376 $377 #
vertex $-1 $143 $378 #
straight-curve $-1 -53.766289254432813 -6.9359625371492202 33.051588067378759 0 0 -1 I I #
coedge $-1 $251 $251 $-1 $379 reversed $146 $-1 #
edge $-1 $380 0 $380 6.2831853071796004 $147 $381 forward 7 unknown #
vertex $-1 $150 $382 #
ellipse-curve $-1 -51.358627401280764 -11.570220903920371 7.8635217914039082 -0.81915205242281985 0 0.57357642473473569 0.28678821236736785 0 0.40957602621140993 1 I I #
coedge $-1 $255 $255 $-1 $383 reversed $153 $-1 #
edge $-1 $384 0 $384 6.2831853071796004 $154 $385 forward 7 unknown #
vertex $-1 $157 $386 #
ellipse-curve $-1 -51.358627401280764 -8.7896658838576798 7.8635217914039082 -0.81915205242281985 0 0.57357642473473569 0.28678821236736785 0 0.40957602621140993 1 I I #
face $-1 $-1 $271 $33 $-1 $387 reversed single #
loop $-1 $-1 $388 $158 #
plane-surface $-1 0 13.423924250628836 1.4526599928997825 0 1 0 0 0 1 forward_v I I I I #
coedge $-1 $389 $390 $391 $392 forward $159 $-1 #
coedge $-1 $393 $161 $163 $269 forward $99 $-1 #
coedge $-1 $161 $393 $388 $394 forward $99 $-1 #
coedge $-1 $395 $164 $161 $266 forward $271 $-1 #
edge $-1 $273 0.73585129630708757 $396 8.7039990683168629 $265 $397 forward 7 unknown #
coedge $-1 $390 $389 $162 $268 forward $159 $-1 #
edge $-1 $398 3.3887955555063414 $272 9.7785367219132198 $267 $399 forward 7 unknown #
edge $-1 $273 -107.53257850886561 $398 -95.474626004397948 $163 $400 forward 7 unknown #
coedge $-1 $164 $395 $390 $401 reversed $271 $-1 #
loop $-1 $-1 $395 $259 #
vertex $-1 $401 $402 #
vertex $-1 $165 $403 #
straight-curve $-1 53.766289254432813 5.455776478619061 74.626339231666805 0 0 -1 I I #
coedge $-1 $275 $275 $-1 $404 reversed $168 $-1 #
edge $-1 $405 0 $405 6.2831853071796004 $169 $406 forward 7 unknown #
vertex $-1 $172 $407 #
ellipse-curve $-1 50.571418671229374 7.7323901277647131 6.189157491416144 0.84804810408105047 0 0.52991925155115449 0.26495962577557725 0 -0.42402405204052523 1 I I #
coedge $-1 $279 $279 $-1 $408 reversed $175 $-1 #
edge $-1 $409 0 $409 6.2831853071796004 $176 $410 forward 7 unknown #
vertex $-1 $179 $411 #
ellipse-curve $-1 50.571418671229374 11.147310601483188 6.189157491416144 0.84804810408105047 0 0.52991925155115449 0.26495962577557725 0 -0.42402405204052523 1 I I #
face $-1 $-1 $195 $27 $-1 $412 reversed single #
loop $-1 $-1 $299 $180 #
plane-surface $-1 0 25.329899917348367 0 0 -1 0 0 0 -1 forward_v I I I I #
coedge $-1 $413 $297 $300 $414 forward $181 $-1 #
coedge $-1 $303 $183 $184 $291 reversed $113 $-1 #
coedge $-1 $297 $413 $183 $289 reversed $181 $-1 #
edge $-1 $304 -11.302019371672722 $415 11.302019371672722 $288 $416 forward 7 unknown #
coedge $-1 $185 $184 $413 $417 forward $73 $-1 #
edge $-1 $295 -53.766289254432813 $415 53.766289254432813 $287 $418 forward 7 unknown #
coedge $-1 $300 $299 $185 $293 reversed $284 $-1 #
edge $-1 $419 -53.766289254432813 $294 53.766289254432813 $292 $420 forward 7 unknown #
vertex $-1 $187 $421 #
vertex $-1 $306 $422 #
straight-curve $-1 53.766289254432813 0 -11.302019371672722 0 -1 0 I I #
coedge $-1 $286 $288 $188 $298 reversed $181 $-1 #
edge $-1 $301 -25.329899917348367 $304 25.329899917348367 $297 $423 forward 7 unknown #
coedge $-1 $292 $189 $194 $307 forward $284 $-1 #
coedge $-1 $189 $292 $286 $414 reversed $284 $-1 #
vertex $-1 $190 $424 #
straight-curve $-1 0 25.329899917348367 11.302019371672722 -1 0 0 I I #
coedge $-1 $191 $287 $193 $306 reversed $113 $-1 #
vertex $-1 $298 $425 #
straight-curve $-1 0 -25.329899917348367 11.302019371672722 1 0 0 I I #
edge $-1 $196 -11.302019371672722 $295 11.302019371672722 $193 $426 forward 7 unknown #
edge $-1 $197 -11.302019371672722 $294 11.302019371672722 $194 $427 forward 7 unknown #
point $-1 53.766289254432813 -25.329899917348367 11.302019371672722 #
point $-1 53.766289254432813 25.329899917348367 11.302019371672722 #
face $-1 $-1 $214 $28 $-1 $428 reversed single #
loop $-1 $-1 $210 $199 #
plane-surface $-1 0 -25.329899917348367 0 0 1 0 0 0 1 forward_v I I I I #
coedge $-1 $429 $430 $207 $323 forward $200 $-1 #
coedge $-1 $324 $202 $204 $319 reversed $121 $-1 #
edge $-1 $321 -1.3813084620786942 $215 2.8339684549784767 $213 $431 forward 7 unknown #
coedge $-1 $204 $203 $432 $433 reversed $77 $-1 #
coedge $-1 $328 $327 $203 $318 forward $311 $-1 #
edge $-1 $434 -53.766289254432813 $320 53.766289254432813 $317 $435 forward 7 unknown #
edge $-1 $436 -53.766289254432813 $321 53.766289254432813 $314 $437 forward 7 unknown #
vertex $-1 $318 $438 #
vertex $-1 $206 $439 #
straight-curve $-1 53.766289254432813 -9.6884560419943 -0.65497846562880291 0 1 0 I I #
edge $-1 $329 -15.641443875354067 $325 -3.7354682086345328 $313 $440 forward 7 unknown #
coedge $-1 $208 $314 $429 $441 reversed $121 $-1 #
vertex $-1 $323 $442 #
straight-curve $-1 0 -13.423924250628833 3.560298451428368 -1 0 0 I I #
coedge $-1 $317 $210 $430 $443 forward $311 $-1 #
coedge $-1 $210 $317 $212 $331 reversed $311 $-1 #
vertex $-1 $443 $444 #
straight-curve $-1 0 -25.329899917348367 3.560298451428368 -1 0 0 I I #
edge $-1 $216 -3.560298451428368 $320 0.65497846562880291 $212 $445 forward 7 unknown #
point $-1 53.766289254432813 -13.423924250628833 3.560298451428368 #
point $-1 53.766289254432813 -25.329899917348367 3.560298451428368 #
face $-1 $-1 $351 $29 $-1 $446 reversed single #
loop $-1 $-1 $347 $218 #
plane-surface $-1 -53.766289254432813 0 0 1 0 0 0 0 -1 forward_v I I I I #
coedge $-1 $354 $221 $222 $341 reversed $129 $-1 #
coedge $-1 $347 $447 $221 $339 forward $335 $-1 #
edge $-1 $448 -1.3813084620786942 $355 2.8339684549784767 $338 $449 forward 7 unknown #
coedge $-1 $223 $222 $447 $450 reversed $81 $-1 #
edge $-1 $344 -53.766289254432813 $448 53.766289254432813 $337 $451 forward 7 unknown #
coedge $-1 $350 $349 $223 $343 forward $351 $-1 #
edge $-1 $345 -53.766289254432813 $452 53.766289254432813 $342 $453 forward 7 unknown #
vertex $-1 $225 $454 #
vertex $-1 $343 $455 #
straight-curve $-1 53.766289254432813 9.6884560419943018 -0.65497846562880291 0 1 0 I I #
coedge $-1 $456 $338 $226 $348 forward $335 $-1 #
edge $-1 $355 3.7354682086345345 $352 15.641443875354069 $347 $457 forward 7 unknown #
coedge $-1 $342 $227 $232 $358 forward $351 $-1 #
coedge $-1 $227 $342 $456 $458 reversed $351 $-1 #
loop $-1 $-1 $227 $334 #
vertex $-1 $458 $459 #
straight-curve $-1 0 25.329899917348367 3.560298451428368 1 0 0 I I #
coedge $-1 $229 $337 $231 $357 reversed $129 $-1 #
vertex $-1 $348 $460 #
straight-curve $-1 0 13.423924250628836 3.560298451428368 1 0 0 I I #
edge $-1 $234 -2.8339684549784767 $344 1.3813084620786942 $231 $461 forward 7 unknown #
edge $-1 $233 -3.560298451428368 $345 0.65497846562880291 $232 $462 forward 7 unknown #
point $-1 53.766289254432813 25.329899917348371 3.560298451428368 #
point $-1 53.766289254432813 13.423924250628836 3.560298451428368 #
loop $-1 $-1 $244 $236 #
plane-surface $-1 0 0 11.302019371672722 0 0 1 1 0 0 forward_v I I I I #
coedge $-1 $364 $239 $241 $368 reversed $137 $-1 #
coedge $-1 $239 $363 $463 $464 reversed $137 $-1 #
coedge $-1 $247 $242 $239 $366 forward $237 $-1 #
edge $-1 $369 -28.626563856243674 $465 -21.749568695706039 $365 $466 forward 7 unknown #
coedge $-1 $241 $240 $372 $467 reversed $85 $-1 #
edge $-1 $468 -8.3952608556585098 $369 1.207859054955032e-014 $363 $469 forward 7 unknown #
vertex $-1 $243 $470 #
straight-curve $-1 -53.766289254432813 -5.089971696944513 4.4250242111350833 0 -1 0 I I #
coedge $-1 $463 $244 $247 $376 forward $361 $-1 #
coedge $-1 $244 $463 $367 $467 forward $361 $-1 #
vertex $-1 $245 $471 #
straight-curve $-1 -70.925910821144043 -6.9359625371492202 11.302019371672721 -1 0 0 I I #
straight-curve $-1 -53.766289254432806 -6.9359625371492202 4.4250242111350957 0.57357642473473569 0 0.81915205242281985 I I #
edge $-1 $248 6.9359625371492202 $465 13.423924250628833 $247 $472 forward 7 unknown #
point $-1 -53.766289254432813 -6.9359625371492202 11.302019371672722 #
point $-1 -53.766289254432813 -6.9359625371492202 4.4250242111350859 #
edge $-1 $473 1 $473 0 $251 $-1 forward 7 unknown #
vertex $-1 $252 $474 #
ellipse-curve $-1 -49.755084822632035 -11.570220903920371 6.7407092238825523 -0.81915205242281985 0 0.57357642473473569 0.28678821236736785 0 0.40957602621140993 1 I I #
point $-1 -51.071839188913401 -11.570220903920371 8.2730978176153247 #
edge $-1 $475 1 $475 0 $255 $-1 forward 7 unknown #
vertex $-1 $256 $476 #
ellipse-curve $-1 -49.755084822632035 -8.7896658838576798 6.7407092238825523 -0.81915205242281985 0 0.57357642473473569 0.28678821236736785 0 0.40957602621140993 1 I I #
point $-1 -51.071839188913401 -8.7896658838576798 8.2730978176153247 #
plane-surface $-1 53.766289254432813 0 0 -1 0 0 0 0 1 forward_v I I I I #
coedge $-1 $391 $477 $264 $394 reversed $260 $-1 #
coedge $-1 $267 $262 $393 $478 forward $159 $-1 #
coedge $-1 $262 $267 $270 $401 forward $159 $-1 #
coedge $-1 $477 $388 $262 $392 reversed $260 $-1 #
edge $-1 $479 -9.7785367219132198 $480 -3.3887955555063414 $262 $481 forward 7 unknown #
coedge $-1 $264 $263 $389 $478 reversed $99 $-1 #
edge $-1 $480 95.474626004397948 $396 107.53257850886561 $388 $482 forward 7 unknown #
coedge $-1 $270 $265 $477 $483 forward $271 $-1 #
vertex $-1 $483 $484 #
straight-curve $-1 53.766289254432813 4.7199251823119734 1.0762956111595656 0 1 0 I I #
vertex $-1 $268 $485 #
straight-curve $-1 43.987752532519593 5.455776478619061 11.302019371672728 1 0 0 I I #
straight-curve $-1 -3.2172942663510185 5.455776478619061 92.269094942549771 -0.52991925155115449 0 0.84804810408105047 I I #
edge $-1 $272 5.455776478619061 $479 13.423924250628833 $270 $486 forward 7 unknown #
point $-1 53.766289254432813 5.455776478619061 11.302019371672722 #
point $-1 53.766289254432813 5.455776478619061 1.0762956111595656 #
edge $-1 $487 1 $487 0 $275 $-1 forward 7 unknown #
vertex $-1 $276 $488 #
ellipse-curve $-1 49.059958687760236 7.7323901277647131 5.2446925025374744 0.84804810408105047 0 0.52991925155115449 0.26495962577557725 0 -0.42402405204052523 1 I I #
point $-1 50.836378297004956 7.7323901277647131 5.7651334393756208 #
edge $-1 $489 1 $489 0 $279 $-1 forward 7 unknown #
vertex $-1 $280 $490 #
ellipse-curve $-1 49.059958687760236 11.147310601483188 5.2446925025374744 0.84804810408105047 0 0.52991925155115449 0.26495962577557725 0 -0.42402405204052523 1 I I #
point $-1 50.836378297004956 11.147310601483188 5.7651334393756208 #
plane-surface $-1 53.766289254432813 0 0 -1 0 0 0 0 1 forward_v I I I I #
coedge $-1 $288 $286 $290 $417 reversed $181 $-1 #
edge $-1 $301 -11.302019371672722 $419 11.302019371672722 $300 $491 forward 7 unknown #
vertex $-1 $417 $492 #
straight-curve $-1 -53.766289254432813 -25.329899917348367 0 0 0 -1 I I #
edge $-1 $415 -25.329899917348367 $419 25.329899917348367 $413 $493 forward 7 unknown #
straight-curve $-1 0 -25.329899917348367 -11.302019371672722 -1 0 0 I I #
vertex $-1 $293 $494 #
straight-curve $-1 0 25.329899917348367 -11.302019371672722 1 0 0 I I #
point $-1 53.766289254432813 25.329899917348367 -11.302019371672722 #
point $-1 53.766289254432813 -25.329899917348367 -11.302019371672722 #
straight-curve $-1 -53.766289254432813 0 11.302019371672722 0 -1 0 I I #
point $-1 -53.766289254432813 25.329899917348367 11.302019371672722 #
point $-1 -53.766289254432813 -25.329899917348367 11.302019371672722 #
straight-curve $-1 53.766289254432813 -25.329899917348367 0 0 0 -1 I I #
straight-curve $-1 53.766289254432813 25.329899917348367 0 0 0 -1 I I #
plane-surface $-1 53.766289254432813 0 0 -1 0 0 0 0 1 forward_v I I I I #
coedge $-1 $432 $313 $324 $441 forward $200 $-1 #
coedge $-1 $313 $432 $327 $443 reversed $200 $-1 #
straight-curve $-1 53.766289254432813 -13.423924250628833 0.72632999644989127 0 0 1 I I #
coedge $-1 $430 $429 $316 $433 forward $200 $-1 #
edge $-1 $436 3.7354682086345328 $434 15.641443875354067 $432 $495 forward 7 unknown #
vertex $-1 $318 $496 #
straight-curve $-1 0 -25.329899917348367 -0.65497846562880291 1 0 0 I I #
vertex $-1 $433 $497 #
straight-curve $-1 0 -13.423924250628833 -0.65497846562880291 1 0 0 I I #
point $-1 53.766289254432813 -25.329899917348367 -0.65497846562880291 #
point $-1 53.766289254432813 -13.423924250628833 -0.65497846562880291 #
straight-curve $-1 -53.766289254432813 -9.6884560419943 3.560298451428368 0 1 0 I I #
edge $-1 $325 -2.8339684549784767 $436 1.3813084620786942 $429 $498 forward 7 unknown #
point $-1 -53.766289254432813 -13.423924250628833 3.560298451428368 #
edge $-1 $329 -3.560298451428368 $434 0.65497846562880291 $430 $499 forward 7 unknown #
point $-1 -53.766289254432813 -25.329899917348367 3.560298451428368 #
straight-curve $-1 53.766289254432813 -25.329899917348367 0 0 0 -1 I I #
plane-surface $-1 0 25.329899917348367 0 0 -1 0 0 0 -1 forward_v I I I I #
coedge $-1 $338 $456 $340 $450 forward $335 $-1 #
vertex $-1 $450 $500 #
straight-curve $-1 -53.766289254432813 13.423924250628836 0.72632999644989127 0 0 1 I I #
edge $-1 $452 -15.641443875354069 $448 -3.7354682086345345 $447 $501 forward 7 unknown #
straight-curve $-1 0 13.423924250628836 -0.65497846562880291 -1 0 0 I I #
vertex $-1 $343 $502 #
straight-curve $-1 0 25.329899917348367 -0.65497846562880291 -1 0 0 I I #
point $-1 53.766289254432813 13.423924250628836 -0.65497846562880291 #
point $-1 53.766289254432813 25.329899917348371 -0.65497846562880291 #
coedge $-1 $447 $347 $350 $458 forward $335 $-1 #
straight-curve $-1 -53.766289254432813 9.6884560419943018 3.560298451428368 0 1 0 I I #
edge $-1 $352 -3.560298451428368 $452 0.65497846562880291 $350 $503 forward 7 unknown #
point $-1 -53.766289254432813 25.329899917348371 3.560298451428368 #
point $-1 -53.766289254432813 13.423924250628836 3.560298451428368 #
straight-curve $-1 53.766289254432813 13.423924250628836 0.72632999644989127 0 0 -1 I I #
straight-curve $-1 53.766289254432813 25.329899917348367 0 0 0 -1 I I #
coedge $-1 $372 $371 $364 $464 forward $361 $-1 #
edge $-1 $465 17.15962156671123 $468 21.974945273015322 $463 $504 forward 7 unknown #
vertex $-1 $464 $505 #
straight-curve $-1 -53.766289254432813 -13.423924250628833 33.051588067378759 0 0 1 I I #
edge $-1 $468 -8.3339525536843198 $373 -1.8459908402047072 $372 $506 forward 7 unknown #
vertex $-1 $467 $507 #
straight-curve $-1 -53.766289254432806 -13.423924250628833 4.4250242111350957 -0.57357642473473569 0 -0.81915205242281985 I I #
point $-1 -53.766289254432813 -13.423924250628833 4.4250242111350859 #
point $-1 -48.950965548128721 -6.9359625371492202 11.302019371672722 #
straight-curve $-1 -53.766289254432813 0 11.302019371672722 0 -1 0 I I #
vertex $-1 $379 $508 #
point $-1 -49.468296610264666 -11.570220903920371 7.1502852500939618 #
vertex $-1 $383 $509 #
point $-1 -49.468296610264666 -8.7896658838576798 7.1502852500939618 #
coedge $-1 $388 $391 $395 $483 reversed $260 $-1 #
edge $-1 $480 -8.7039990683168593 $398 -0.73585129630708757 $389 $510 forward 7 unknown #
vertex $-1 $483 $511 #
vertex $-1 $478 $512 #
straight-curve $-1 43.987752532519593 13.423924250628833 11.302019371672728 -1 0 0 I I #
straight-curve $-1 -3.2172942663510185 13.423924250628833 92.269094942549771 0.52991925155115449 0 -0.84804810408105047 I I #
edge $-1 $396 -73.550043620507239 $479 -63.324319859994084 $395 $513 forward 7 unknown #
point $-1 53.766289254432813 13.423924250628836 1.0762956111595621 #
point $-1 47.376548088025935 5.455776478619061 11.302019371672728 #
straight-curve $-1 53.766289254432813 0 11.302019371672722 0 1 0 I I #
vertex $-1 $404 $514 #
point $-1 49.324918313535818 7.7323901277647131 4.8206684504969495 #
vertex $-1 $408 $515 #
point $-1 49.324918313535818 11.147310601483188 4.8206684504969495 #
straight-curve $-1 -53.766289254432813 25.329899917348367 0 0 0 -1 I I #
point $-1 -53.766289254432813 -25.329899917348367 -11.302019371672722 #
straight-curve $-1 -53.766289254432813 0 -11.302019371672722 0 1 0 I I #
point $-1 -53.766289254432813 25.329899917348367 -11.302019371672722 #
straight-curve $-1 -53.766289254432813 -9.6884560419943 -0.65497846562880291 0 -1 0 I I #
point $-1 -53.766289254432813 -25.329899917348367 -0.65497846562880291 #
point $-1 -53.766289254432813 -13.423924250628833 -0.65497846562880291 #
straight-curve $-1 -53.766289254432813 -13.423924250628833 0.72632999644989127 0 0 -1 I I #
straight-curve $-1 -53.766289254432813 -25.329899917348367 0 0 0 -1 I I #
point $-1 -53.766289254432813 13.423924250628836 -0.65497846562880291 #
straight-curve $-1 -53.766289254432813 9.6884560419943018 -0.65497846562880291 0 -1 0 I I #
point $-1 -53.766289254432813 25.329899917348371 -0.65497846562880291 #
straight-curve $-1 -53.766289254432813 25.329899917348367 0 0 0 -1 I I #
straight-curve $-1 -70.925910821144043 -13.423924250628833 11.302019371672721 1 0 0 I I #
point $-1 -53.766289254432813 -13.423924250628833 11.302019371672722 #
straight-curve $-1 -48.950965548128728 -5.089971696944513 11.302019371672722 0 1 0 I I #
point $-1 -48.950965548128721 -13.423924250628833 11.302019371672722 #
point $-1 -49.345508796420624 -11.570220903920371 6.4539210115151828 #
point $-1 -49.345508796420624 -8.7896658838576798 6.4539210115151828 #
straight-curve $-1 47.376548088025942 4.7199251823119734 11.302019371672721 0 -1 0 I I #
point $-1 53.766289254432813 13.423924250628833 11.302019371672722 #
point $-1 47.376548088025935 13.423924250628833 11.302019371672728 #
straight-curve $-1 53.766289254432813 13.423924250628833 74.626339231666805 0 0 1 I I #
point $-1 48.635934635719714 7.7323901277647131 4.979732876761898 #
point $-1 48.635934635719714 11.147310601483188 4.979732876761898 #
End-of-ACIS-data 