500 0 8 0           
7 Unknown 11 ACIS 5.0 NT 24 Fri Mar 26 19:59:02 1999 
-1 9.9999999999999995e-007 1e-010 
body $-1 $8 $-1 $9 #
body $-1 $10 $-1 $11 #
body $-1 $12 $-1 $13 #
body $-1 $14 $-1 $15 #
body $-1 $16 $-1 $17 #
body $-1 $18 $-1 $19 #
body $-1 $20 $-1 $21 #
body $-1 $22 $-1 $23 #
lump $-1 $-1 $24 $0 #
transform $-1 1 0 0 0 1 0 0 0 1 54.906460768456071 24.66258065237017 9.5880514668542478 1 rotate no_reflect no_shear #
lump $-1 $-1 $25 $1 #
transform $-1 1 0 0 0 1 0 0 0 1 54.906460768456071 24.66258065237017 9.5880514668542478 1 rotate no_reflect no_shear #
lump $-1 $-1 $26 $2 #
transform $-1 1 0 0 0 1 0 0 0 1 54.906460768456071 24.66258065237017 9.5880514668542478 1 rotate no_reflect no_shear #
lump $-1 $-1 $27 $3 #
transform $-1 1 0 0 0 1 0 0 0 1 54.906460768456071 24.66258065237017 9.5880514668542478 1 rotate no_reflect no_shear #
lump $-1 $-1 $28 $4 #
transform $-1 1 0 0 0 1 0 0 0 1 54.906460768456071 24.66258065237017 9.5880514668542478 1 rotate no_reflect no_shear #
lump $-1 $-1 $29 $5 #
transform $-1 1 0 0 0 1 0 0 0 1 54.906460768456071 24.66258065237017 9.5880514668542478 1 rotate no_reflect no_shear #
lump $-1 $-1 $30 $6 #
transform $-1 1 0 0 0 1 0 0 0 1 54.906460768456071 24.66258065237017 9.5880514668542478 1 rotate no_reflect no_shear #
lump $-1 $-1 $31 $7 #
transform $-1 1 0 0 0 1 0 0 0 1 54.906460768456071 24.66258065237017 9.5880514668542478 1 rotate no_reflect no_shear #
shell $-1 $-1 $-1 $32 $-1 $8 #
shell $-1 $-1 $-1 $33 $-1 $10 #
shell $-1 $-1 $-1 $34 $-1 $12 #
shell $-1 $-1 $-1 $35 $-1 $14 #
shell $-1 $-1 $-1 $36 $-1 $16 #
shell $-1 $-1 $-1 $37 $-1 $18 #
shell $-1 $-1 $-1 $38 $-1 $20 #
shell $-1 $-1 $-1 $39 $-1 $22 #
face $-1 $40 $41 $24 $-1 $42 forward single #
face $-1 $43 $44 $25 $-1 $45 reversed single #
face $-1 $46 $47 $26 $-1 $48 reversed single #
face $-1 $49 $50 $27 $-1 $51 forward single #
face $-1 $52 $53 $28 $-1 $54 forward single #
face $-1 $55 $56 $29 $-1 $57 reversed single #
face $-1 $58 $59 $30 $-1 $60 forward single #
face $-1 $61 $62 $31 $-1 $63 forward single #
face $-1 $64 $65 $24 $-1 $66 reversed single #
loop $-1 $-1 $67 $32 #
plane-surface $-1 0 0 9.5880514668542478 0 0 1 1 0 0 forward_v I I I I #
face $-1 $68 $69 $25 $-1 $70 reversed single #
loop $-1 $-1 $71 $33 #
plane-surface $-1 0 -20.916542667821769 4.2109357295207417 0 0 1 1 0 0 forward_v I I I I #
face $-1 $72 $73 $26 $-1 $74 reversed single #
loop $-1 $-1 $75 $34 #
plane-surface $-1 87.194924656005441 -7.9604074750599274 157.9197028042538 0 -1 0 -0.83867057594974714 0 -0.54463902268945019 forward_v I I I I #
face $-1 $76 $77 $27 $-1 $78 forward single #
loop $-1 $79 $80 $35 #
cone-surface $-1 53.013962283891019 -14.539048338069531 7.3257911945684731 -0.83867057594974714 0 -0.54463902268945019 0.2723195113447251 0 -0.41933528797487357 1 I I 0 1 0.5 forward I I I I #
face $-1 $81 $82 $28 $-1 $83 forward single #
loop $-1 $84 $85 $36 #
cone-surface $-1 53.013962283891019 -10.59186382026377 7.3257911945684731 -0.83867057594974714 0 -0.54463902268945019 0.2723195113447251 0 -0.41933528797487357 1 I I 0 1 0.5 forward I I I I #
face $-1 $86 $87 $29 $-1 $88 reversed single #
loop $-1 $-1 $89 $37 #
plane-surface $-1 -147.00332692054258 -7.9604074750599274 65.822836652167283 0 -1 0 0.83867057594974714 0 -0.54463902268945019 forward_v I I I I #
face $-1 $90 $91 $30 $-1 $92 forward single #
loop $-1 $93 $94 $38 #
cone-surface $-1 -53.013962283891026 -14.539048338069531 7.3257911945684731 0.83867057594974714 0 -0.54463902268945019 0.2723195113447251 0 0.41933528797487357 1 I I 0 1 0.5 forward I I I I #
face $-1 $95 $96 $31 $-1 $97 forward single #
loop $-1 $98 $99 $39 #
cone-surface $-1 -53.013962283891026 -10.59186382026377 7.3257911945684731 0.83867057594974714 0 -0.54463902268945019 0.2723195113447251 0 0.41933528797487357 1 I I 0 1 0.5 forward I I I I #
face $-1 $100 $101 $24 $-1 $102 reversed single #
loop $-1 $-1 $103 $40 #
plane-surface $-1 0 0 -9.5880514668542478 0 0 1 1 0 0 forward_v I I I I #
coedge $-1 $104 $105 $106 $107 forward $41 $-1 #
face $-1 $108 $109 $25 $-1 $110 reversed single #
loop $-1 $-1 $111 $43 #
plane-surface $-1 0 -17.170504683273368 6.8994935981874956 0 -1 0 0 0 -1 forward_v I I I I #
coedge $-1 $112 $113 $114 $115 reversed $44 $-1 #
face $-1 $116 $117 $26 $-1 $118 forward single #
loop $-1 $-1 $119 $46 #
plane-surface $-1 -4.901941496081065 -12.565456079166649 98.111300539716694 0.83867057594974714 0 0.54463902268945019 0.54463902268945019 0 -0.83867057594974714 forward_v I I I I #
coedge $-1 $120 $121 $122 $123 reversed $47 $-1 #
face $-1 $-1 $124 $27 $-1 $125 forward single #
loop $-1 $126 $127 $49 #
cone-surface $-1 52.072163151218177 -14.539048338069531 6.7141797062223727 -0.83867057594974714 0 -0.54463902268945019 0.13615975567236255 0 -0.20966764398743679 1 I I -0.70710678118654746 0.70710678118654746 0.25 forward I I I I #
loop $-1 $-1 $128 $35 #
coedge $-1 $80 $80 $129 $130 reversed $50 $-1 #
face $-1 $-1 $131 $28 $-1 $132 forward single #
loop $-1 $133 $134 $52 #
cone-surface $-1 52.072163151218177 -10.59186382026377 6.7141797062223727 -0.83867057594974714 0 -0.54463902268945019 0.13615975567236255 0 -0.20966764398743679 1 I I -0.70710678118654746 0.70710678118654746 0.25 forward I I I I #
loop $-1 $-1 $135 $36 #
coedge $-1 $85 $85 $136 $137 reversed $53 $-1 #
face $-1 $138 $139 $29 $-1 $140 forward single #
loop $-1 $-1 $141 $55 #
plane-surface $-1 -54.906460768456071 -12.565456079166649 6.0144343876301747 -0.83867057594974714 0 0.54463902268945019 0.54463902268945019 0 0.83867057594974714 forward_v I I I I #
coedge $-1 $142 $143 $144 $145 reversed $56 $-1 #
face $-1 $-1 $146 $30 $-1 $147 forward single #
loop $-1 $148 $149 $58 #
cone-surface $-1 -52.072163151218184 -14.539048338069531 6.7141797062223727 0.83867057594974714 0 -0.54463902268945019 0.13615975567236255 0 0.20966764398743679 1 I I -0.70710678118654746 0.70710678118654746 0.25 forward I I I I #
loop $-1 $-1 $150 $38 #
coedge $-1 $94 $94 $151 $152 reversed $59 $-1 #
face $-1 $-1 $153 $31 $-1 $154 forward single #
loop $-1 $155 $156 $61 #
cone-surface $-1 -52.072163151218184 -10.59186382026377 6.7141797062223727 0.83867057594974714 0 -0.54463902268945019 0.13615975567236255 0 0.20966764398743679 1 I I -0.70710678118654746 0.70710678118654746 0.25 forward I I I I #
loop $-1 $-1 $157 $39 #
coedge $-1 $99 $99 $158 $159 reversed $62 $-1 #
face $-1 $160 $161 $24 $-1 $162 reversed single #
loop $-1 $-1 $163 $64 #
plane-surface $-1 0 -24.66258065237017 0 0 1 0 0 0 1 forward_v I I I I #
coedge $-1 $164 $165 $166 $167 forward $65 $-1 #
coedge $-1 $168 $67 $169 $170 forward $41 $-1 #
coedge $-1 $67 $168 $171 $172 forward $41 $-1 #
coedge $-1 $173 $174 $67 $107 reversed $175 $-1 #
edge $-1 $176 -24.66258065237017 $177 24.66258065237017 $106 $178 forward 7 unknown #
face $-1 $179 $180 $25 $-1 $181 reversed single #
loop $-1 $-1 $182 $68 #
plane-surface $-1 -54.906460768456071 0 0 1 0 0 0 0 -1 forward_v I I I I #
coedge $-1 $183 $184 $185 $186 reversed $69 $-1 #
coedge $-1 $187 $71 $188 $189 reversed $44 $-1 #
coedge $-1 $71 $187 $183 $190 forward $44 $-1 #
coedge $-1 $185 $191 $71 $115 forward $192 $-1 #
edge $-1 $193 -14.204309318459286 $194 -6.7122333493624833 $114 $195 forward 7 unknown #
face $-1 $196 $197 $26 $-1 $198 reversed single #
loop $-1 $-1 $199 $72 #
plane-surface $-1 0 -17.170504683273368 6.8994935981874956 0 -1 0 0 0 -1 forward_v I I I I #
coedge $-1 $200 $201 $202 $203 reversed $73 $-1 #
coedge $-1 $121 $75 $204 $205 reversed $47 $-1 #
coedge $-1 $75 $120 $200 $206 reversed $47 $-1 #
coedge $-1 $202 $207 $75 $123 forward $208 $-1 #
edge $-1 $209 -11.308998440453351 $210 -8.9882644486940322 $122 $211 forward 7 unknown #
loop $-1 $-1 $129 $76 #
plane-surface $-1 -4.901941496081065 -12.565456079166649 98.111300539716694 0.83867057594974714 0 0.54463902268945019 0.54463902268945019 0 -0.83867057594974714 forward_v I I I I #
loop $-1 $-1 $212 $49 #
coedge $-1 $127 $127 $128 $213 reversed $77 $-1 #
coedge $-1 $128 $128 $127 $213 forward $79 $-1 #
coedge $-1 $129 $129 $80 $130 forward $124 $-1 #
edge $-1 $214 0 $214 6.2831853071796004 $129 $215 forward 7 unknown #
loop $-1 $-1 $136 $81 #
plane-surface $-1 -4.901941496081065 -12.565456079166649 98.111300539716694 0.83867057594974714 0 0.54463902268945019 0.54463902268945019 0 -0.83867057594974714 forward_v I I I I #
loop $-1 $-1 $216 $52 #
coedge $-1 $134 $134 $135 $217 reversed $82 $-1 #
coedge $-1 $135 $135 $134 $217 forward $84 $-1 #
coedge $-1 $136 $136 $85 $137 forward $131 $-1 #
edge $-1 $218 0 $218 6.2831853071796004 $136 $219 forward 7 unknown #
face $-1 $220 $221 $29 $-1 $222 forward single #
loop $-1 $-1 $223 $86 #
plane-surface $-1 0 0 9.5880514668542478 0 0 1 1 0 0 forward_v I I I I #
coedge $-1 $224 $225 $226 $227 reversed $87 $-1 #
coedge $-1 $143 $89 $228 $229 reversed $56 $-1 #
coedge $-1 $89 $142 $224 $230 reversed $56 $-1 #
coedge $-1 $226 $231 $89 $145 forward $232 $-1 #
edge $-1 $233 23.323366859229395 $234 26.896983938453467 $144 $235 forward 7 unknown #
loop $-1 $-1 $151 $90 #
plane-surface $-1 -54.906460768456071 -12.565456079166649 6.0144343876301747 -0.83867057594974714 0 0.54463902268945019 0.54463902268945019 0 0.83867057594974714 forward_v I I I I #
loop $-1 $-1 $236 $58 #
coedge $-1 $149 $149 $150 $237 reversed $91 $-1 #
coedge $-1 $150 $150 $149 $237 forward $93 $-1 #
coedge $-1 $151 $151 $94 $152 forward $146 $-1 #
edge $-1 $238 0 $238 6.2831853071796004 $151 $239 forward 7 unknown #
loop $-1 $-1 $158 $95 #
plane-surface $-1 -54.906460768456071 -12.565456079166649 6.0144343876301747 -0.83867057594974714 0 0.54463902268945019 0.54463902268945019 0 0.83867057594974714 forward_v I I I I #
loop $-1 $-1 $240 $61 #
coedge $-1 $156 $156 $157 $241 reversed $96 $-1 #
coedge $-1 $157 $157 $156 $241 forward $98 $-1 #
coedge $-1 $158 $158 $99 $159 forward $153 $-1 #
edge $-1 $242 0 $242 6.2831853071796004 $158 $243 forward 7 unknown #
face $-1 $244 $245 $24 $-1 $246 reversed single #
loop $-1 $-1 $247 $100 #
plane-surface $-1 -54.906460768456071 0 0 1 0 0 0 0 -1 forward_v I I I I #
coedge $-1 $248 $171 $249 $250 forward $101 $-1 #
coedge $-1 $251 $103 $248 $252 forward $65 $-1 #
coedge $-1 $103 $251 $253 $254 forward $65 $-1 #
coedge $-1 $174 $173 $103 $167 reversed $175 $-1 #
edge $-1 $255 -24.66258065237017 $256 24.66258065237017 $166 $257 forward 7 unknown #
coedge $-1 $105 $104 $258 $259 forward $41 $-1 #
coedge $-1 $260 $261 $104 $170 reversed $245 $-1 #
edge $-1 $177 -54.906460768456071 $262 54.906460768456071 $169 $263 forward 7 unknown #
coedge $-1 $163 $264 $105 $172 reversed $101 $-1 #
edge $-1 $265 -54.906460768456071 $176 54.906460768456071 $171 $266 forward 7 unknown #
coedge $-1 $166 $106 $264 $267 forward $175 $-1 #
coedge $-1 $106 $166 $260 $268 reversed $175 $-1 #
loop $-1 $-1 $173 $244 #
vertex $-1 $107 $269 #
vertex $-1 $107 $270 #
straight-curve $-1 54.906460768456071 0 9.5880514668542478 0 1 0 I I #
face $-1 $271 $272 $25 $-1 $273 forward single #
loop $-1 $-1 $188 $108 #
plane-surface $-1 0 -24.66258065237017 0 0 1 0 0 0 1 forward_v I I I I #
coedge $-1 $274 $275 $276 $277 forward $109 $-1 #
coedge $-1 $276 $111 $113 $190 reversed $69 $-1 #
coedge $-1 $111 $276 $278 $279 reversed $69 $-1 #
coedge $-1 $280 $114 $111 $186 forward $192 $-1 #
edge $-1 $194 0.76118893042699387 $281 6.1383046677605018 $185 $282 forward 7 unknown #
coedge $-1 $113 $112 $274 $283 reversed $44 $-1 #
coedge $-1 $284 $285 $112 $189 forward $180 $-1 #
edge $-1 $286 -54.906460768456071 $193 54.906460768456071 $188 $287 forward 7 unknown #
edge $-1 $288 -54.906460768456071 $194 54.906460768456071 $183 $289 forward 7 unknown #
coedge $-1 $114 $280 $284 $290 forward $192 $-1 #
loop $-1 $-1 $185 $271 #
vertex $-1 $189 $291 #
vertex $-1 $115 $292 #
straight-curve $-1 54.906460768456071 -10.458271333910885 4.2109357295207417 0 1 0 I I #
face $-1 $-1 $208 $26 $-1 $293 forward single #
loop $-1 $-1 $294 $116 #
plane-surface $-1 54.906460768456071 0 0 -1 0 0 0 0 1 forward_v I I I I #
coedge $-1 $295 $296 $201 $297 forward $117 $-1 #
coedge $-1 $298 $119 $121 $206 forward $73 $-1 #
coedge $-1 $119 $298 $199 $297 reversed $73 $-1 #
coedge $-1 $299 $122 $119 $203 forward $208 $-1 #
edge $-1 $210 1.6776794354766027 $300 10.887776643690042 $202 $301 forward 7 unknown #
coedge $-1 $302 $294 $120 $205 forward $197 $-1 #
edge $-1 $303 -72.945417014496755 $209 -69.371799935272648 $204 $304 forward 7 unknown #
edge $-1 $210 105.55187174966147 $303 109.8129215369122 $121 $305 forward 7 unknown #
coedge $-1 $122 $299 $302 $306 forward $208 $-1 #
loop $-1 $-1 $202 $196 #
vertex $-1 $205 $307 #
vertex $-1 $123 $308 #
straight-curve $-1 43.59746232800272 -7.9604074750599274 9.5880514668542531 -1 0 0 I I #
coedge $-1 $212 $212 $-1 $309 reversed $126 $-1 #
edge $-1 $310 0 $310 6.2831853071796004 $127 $311 forward 7 unknown #
vertex $-1 $130 $312 #
ellipse-curve $-1 53.746093772576408 -14.539048338069531 7.801242927242205 0.83867057594974714 0 0.54463902268945019 0.2723195113447251 0 -0.41933528797487357 1 I I #
coedge $-1 $216 $216 $-1 $313 reversed $133 $-1 #
edge $-1 $314 0 $314 6.2831853071796004 $134 $315 forward 7 unknown #
vertex $-1 $137 $316 #
ellipse-curve $-1 53.746093772576408 -10.59186382026377 7.801242927242205 0.83867057594974714 0 0.54463902268945019 0.2723195113447251 0 -0.41933528797487357 1 I I #
face $-1 $-1 $232 $29 $-1 $317 reversed single #
loop $-1 $-1 $318 $138 #
plane-surface $-1 0 -17.170504683273368 6.8994935981874956 0 -1 0 0 0 -1 forward_v I I I I #
coedge $-1 $228 $319 $320 $321 forward $139 $-1 #
coedge $-1 $320 $141 $143 $230 forward $87 $-1 #
coedge $-1 $141 $320 $318 $322 reversed $87 $-1 #
coedge $-1 $323 $144 $141 $227 forward $232 $-1 #
edge $-1 $234 1.6776794354766027 $324 10.887776643690042 $226 $325 forward 7 unknown #
coedge $-1 $326 $223 $142 $229 forward $139 $-1 #
edge $-1 $327 -20.915936683574515 $233 -18.595202691815217 $228 $328 forward 7 unknown #
edge $-1 $234 0 $327 4.261049787250677 $143 $329 forward 7 unknown #
coedge $-1 $144 $323 $326 $330 reversed $232 $-1 #
loop $-1 $-1 $226 $220 #
vertex $-1 $330 $331 #
vertex $-1 $145 $332 #
straight-curve $-1 -54.906460768456071 -7.9604074750599274 32.911418326083641 0 0 -1 I I #
coedge $-1 $236 $236 $-1 $333 reversed $148 $-1 #
edge $-1 $334 0 $334 6.2831853071796004 $149 $335 forward 7 unknown #
vertex $-1 $152 $336 #
ellipse-curve $-1 -53.746093772576423 -14.539048338069531 7.8012429272422086 -0.83867057594974714 0 0.54463902268945019 0.2723195113447251 0 0.41933528797487357 1 I I #
coedge $-1 $240 $240 $-1 $337 reversed $155 $-1 #
edge $-1 $338 0 $338 6.2831853071796004 $156 $339 forward 7 unknown #
vertex $-1 $159 $340 #
ellipse-curve $-1 -53.746093772576423 -10.59186382026377 7.8012429272422086 -0.83867057594974714 0 0.54463902268945019 0.2723195113447251 0 0.41933528797487357 1 I I #
face $-1 $-1 $175 $24 $-1 $341 reversed single #
loop $-1 $-1 $260 $160 #
plane-surface $-1 0 24.66258065237017 0 0 -1 0 0 0 -1 forward_v I I I I #
coedge $-1 $342 $258 $261 $343 forward $161 $-1 #
coedge $-1 $264 $163 $164 $252 reversed $101 $-1 #
coedge $-1 $258 $342 $163 $250 reversed $161 $-1 #
edge $-1 $265 -9.5880514668542478 $344 9.5880514668542478 $249 $345 forward 7 unknown #
coedge $-1 $165 $164 $342 $346 forward $65 $-1 #
edge $-1 $256 -54.906460768456071 $344 54.906460768456071 $248 $347 forward 7 unknown #
coedge $-1 $261 $260 $165 $254 reversed $245 $-1 #
edge $-1 $348 -54.906460768456071 $255 54.906460768456071 $253 $349 forward 7 unknown #
vertex $-1 $167 $350 #
vertex $-1 $267 $351 #
straight-curve $-1 54.906460768456071 0 -9.5880514668542478 0 -1 0 I I #
coedge $-1 $247 $249 $168 $259 reversed $161 $-1 #
edge $-1 $262 -24.66258065237017 $265 24.66258065237017 $258 $352 forward 7 unknown #
coedge $-1 $253 $169 $174 $268 forward $245 $-1 #
coedge $-1 $169 $253 $247 $343 reversed $245 $-1 #
vertex $-1 $170 $353 #
straight-curve $-1 0 24.66258065237017 9.5880514668542478 -1 0 0 I I #
coedge $-1 $171 $248 $173 $267 reversed $101 $-1 #
vertex $-1 $259 $354 #
straight-curve $-1 0 -24.66258065237017 9.5880514668542478 1 0 0 I I #
edge $-1 $176 -9.5880514668542478 $256 9.5880514668542478 $173 $355 forward 7 unknown #
edge $-1 $177 -9.5880514668542478 $255 9.5880514668542478 $174 $356 forward 7 unknown #
point $-1 54.906460768456071 -24.66258065237017 9.5880514668542478 #
point $-1 54.906460768456071 24.66258065237017 9.5880514668542478 #
face $-1 $-1 $192 $25 $-1 $357 reversed single #
loop $-1 $-1 $278 $179 #
plane-surface $-1 0 0 9.5880514668542478 0 0 1 1 0 0 forward_v I I I I #
coedge $-1 $358 $182 $187 $283 forward $109 $-1 #
coedge $-1 $182 $358 $359 $360 reversed $109 $-1 #
coedge $-1 $184 $183 $182 $277 reversed $69 $-1 #
edge $-1 $361 -6.1383046677605018 $288 -0.76118893042699387 $182 $362 forward 7 unknown #
coedge $-1 $359 $363 $184 $279 forward $272 $-1 #
edge $-1 $281 -54.906460768456071 $361 54.906460768456071 $278 $364 forward 7 unknown #
coedge $-1 $191 $185 $363 $365 reversed $192 $-1 #
vertex $-1 $186 $366 #
straight-curve $-1 54.906460768456071 -17.170504683273368 3.4497467990937478 0 0 1 I I #
edge $-1 $288 6.7122333493624833 $286 14.204309318459286 $274 $367 forward 7 unknown #
coedge $-1 $368 $188 $191 $290 reversed $180 $-1 #
coedge $-1 $188 $368 $358 $369 forward $180 $-1 #
vertex $-1 $189 $370 #
straight-curve $-1 0 -24.66258065237017 4.2109357295207417 1 0 0 I I #
vertex $-1 $283 $371 #
straight-curve $-1 0 -17.170504683273368 4.2109357295207417 1 0 0 I I #
edge $-1 $372 -9.5880514668542478 $193 -4.2109357295207417 $191 $373 forward 7 unknown #
point $-1 54.906460768456071 -24.66258065237017 4.2109357295207417 #
point $-1 54.906460768456071 -17.170504683273368 4.2109357295207417 #
plane-surface $-1 0 0 9.5880514668542478 0 0 1 1 0 0 forward_v I I I I #
coedge $-1 $204 $374 $298 $375 forward $197 $-1 #
coedge $-1 $296 $199 $374 $376 reversed $117 $-1 #
coedge $-1 $199 $295 $299 $377 reversed $117 $-1 #
edge $-1 $300 65.968648106273548 $378 70.229697893524246 $199 $379 forward 7 unknown #
coedge $-1 $201 $200 $294 $375 reversed $73 $-1 #
coedge $-1 $207 $202 $296 $377 forward $208 $-1 #
vertex $-1 $377 $380 #
straight-curve $-1 52.58572677669676 -6.2827280395833247 9.5880514668542389 0 -1 0 I I #
coedge $-1 $374 $204 $207 $306 reversed $197 $-1 #
vertex $-1 $205 $381 #
straight-curve $-1 54.906460768456071 -7.9604074750599274 78.959851402126901 0 0 1 I I #
straight-curve $-1 -4.901941496081065 -7.9604074750599274 98.111300539716694 0.54463902268945019 0 -0.83867057594974714 I I #
edge $-1 $382 -17.170504683273368 $209 -7.9604074750599274 $302 $383 forward 7 unknown #
point $-1 54.906460768456071 -7.9604074750599274 9.5880514668542478 #
point $-1 52.585726776696752 -7.9604074750599274 9.5880514668542531 #
edge $-1 $384 1 $384 0 $212 $-1 forward 7 unknown #
vertex $-1 $213 $385 #
ellipse-curve $-1 52.281830795205614 -14.539048338069531 6.8503394618947349 0.83867057594974714 0 0.54463902268945019 0.2723195113447251 0 -0.41933528797487357 1 I I #
point $-1 54.018413283921141 -14.539048338069531 7.3819076392673377 #
edge $-1 $386 1 $386 0 $216 $-1 forward 7 unknown #
vertex $-1 $217 $387 #
ellipse-curve $-1 52.281830795205614 -10.59186382026377 6.8503394618947349 0.83867057594974714 0 0.54463902268945019 0.2723195113447251 0 -0.41933528797487357 1 I I #
point $-1 54.018413283921141 -10.59186382026377 7.3819076392673377 #
plane-surface $-1 -54.906460768456071 0 0 1 0 0 0 0 -1 forward_v I I I I #
coedge $-1 $388 $389 $225 $322 forward $221 $-1 #
coedge $-1 $223 $326 $388 $390 forward $139 $-1 #
coedge $-1 $225 $224 $223 $321 reversed $87 $-1 #
edge $-1 $391 -10.887776643690042 $327 -1.6776794354766027 $223 $392 forward 7 unknown #
edge $-1 $324 -15.323237125068147 $391 -11.062187337817473 $318 $393 forward 7 unknown #
coedge $-1 $231 $226 $389 $394 forward $232 $-1 #
vertex $-1 $394 $395 #
straight-curve $-1 -54.906460768456071 -6.2827280395833247 6.0144343876301782 0 -1 0 I I #
coedge $-1 $319 $228 $231 $330 forward $139 $-1 #
vertex $-1 $229 $396 #
straight-curve $-1 -73.501663460271288 -7.9604074750599274 9.588051466854246 -1 0 0 I I #
straight-curve $-1 -54.906460768456071 -7.9604074750599274 6.0144343876301747 0.54463902268945019 0 0.83867057594974714 I I #
edge $-1 $233 7.9604074750599274 $397 17.170504683273368 $231 $398 forward 7 unknown #
point $-1 -54.906460768456071 -7.9604074750599274 9.5880514668542478 #
point $-1 -54.906460768456071 -7.9604074750599274 6.0144343876301747 #
edge $-1 $399 1 $399 0 $236 $-1 forward 7 unknown #
vertex $-1 $237 $400 #
ellipse-curve $-1 -52.281830795205622 -14.539048338069531 6.8503394618947349 -0.83867057594974714 0 0.54463902268945019 0.2723195113447251 0 0.41933528797487357 1 I I #
point $-1 -53.473774261231696 -14.539048338069531 8.2205782152170848 #
edge $-1 $401 1 $401 0 $240 $-1 forward 7 unknown #
vertex $-1 $241 $402 #
ellipse-curve $-1 -52.281830795205622 -10.59186382026377 6.8503394618947349 -0.83867057594974714 0 0.54463902268945019 0.2723195113447251 0 0.41933528797487357 1 I I #
point $-1 -53.473774261231696 -10.59186382026377 8.2205782152170848 #
plane-surface $-1 54.906460768456071 0 0 -1 0 0 0 0 1 forward_v I I I I #
coedge $-1 $249 $247 $251 $346 reversed $161 $-1 #
edge $-1 $262 -9.5880514668542478 $348 9.5880514668542478 $261 $403 forward 7 unknown #
vertex $-1 $346 $404 #
straight-curve $-1 -54.906460768456071 -24.66258065237017 0 0 0 -1 I I #
edge $-1 $344 -24.66258065237017 $348 24.66258065237017 $342 $405 forward 7 unknown #
straight-curve $-1 0 -24.66258065237017 -9.5880514668542478 -1 0 0 I I #
vertex $-1 $254 $406 #
straight-curve $-1 0 24.66258065237017 -9.5880514668542478 1 0 0 I I #
point $-1 54.906460768456071 24.66258065237017 -9.5880514668542478 #
point $-1 54.906460768456071 -24.66258065237017 -9.5880514668542478 #
straight-curve $-1 -54.906460768456071 0 9.5880514668542478 0 -1 0 I I #
point $-1 -54.906460768456071 24.66258065237017 9.5880514668542478 #
point $-1 -54.906460768456071 -24.66258065237017 9.5880514668542478 #
straight-curve $-1 54.906460768456071 -24.66258065237017 0 0 0 -1 I I #
straight-curve $-1 54.906460768456071 24.66258065237017 0 0 0 -1 I I #
plane-surface $-1 54.906460768456071 0 0 -1 0 0 0 0 1 forward_v I I I I #
coedge $-1 $275 $274 $285 $369 reversed $109 $-1 #
coedge $-1 $407 $278 $275 $360 forward $272 $-1 #
edge $-1 $361 17.170504683273368 $408 24.66258065237017 $275 $409 forward 7 unknown #
vertex $-1 $360 $410 #
straight-curve $-1 -54.906460768456071 -17.170504683273368 3.4497467990937478 0 0 -1 I I #
coedge $-1 $278 $407 $280 $365 forward $272 $-1 #
straight-curve $-1 0 -17.170504683273368 9.5880514668542478 -1 0 0 I I #
edge $-1 $372 -24.66258065237017 $281 -17.170504683273368 $280 $411 forward 7 unknown #
point $-1 54.906460768456071 -17.170504683273368 9.5880514668542496 #
straight-curve $-1 -54.906460768456071 -10.458271333910885 4.2109357295207417 0 -1 0 I I #
coedge $-1 $285 $284 $407 $412 reversed $180 $-1 #
edge $-1 $408 -9.5880514668542478 $286 -4.2109357295207417 $358 $413 forward 7 unknown #
point $-1 -54.906460768456071 -24.66258065237017 4.2109357295207417 #
point $-1 -54.906460768456071 -17.170504683273368 4.2109357295207417 #
vertex $-1 $365 $414 #
straight-curve $-1 54.906460768456071 -24.66258065237017 0 0 0 -1 I I #
coedge $-1 $294 $302 $295 $376 forward $197 $-1 #
edge $-1 $378 -10.887776643690042 $303 -1.6776794354766027 $294 $415 forward 7 unknown #
edge $-1 $382 -6.1383046677605018 $378 -2.5646875885364055 $374 $416 forward 7 unknown #
edge $-1 $300 52.585726776696752 $382 54.906460768456071 $299 $417 forward 7 unknown #
vertex $-1 $297 $418 #
straight-curve $-1 16.656626743951684 -17.170504683273368 64.914015568768875 0.54463902268945019 0 -0.83867057594974714 I I #
point $-1 52.585726776696752 -17.170504683273368 9.5880514668542478 #
point $-1 54.906460768456071 -7.9604074750599274 6.0144343876301463 #
vertex $-1 $306 $419 #
straight-curve $-1 54.906460768456071 0 9.5880514668542478 0 1 0 I I #
vertex $-1 $309 $420 #
point $-1 52.554150306550341 -14.539048338069531 6.4310041739198613 #
vertex $-1 $313 $421 #
point $-1 52.554150306550341 -10.59186382026377 6.4310041739198613 #
coedge $-1 $389 $318 $319 $390 reversed $221 $-1 #
coedge $-1 $318 $388 $323 $394 reversed $221 $-1 #
edge $-1 $397 -54.906460768456071 $391 -52.585726776696781 $319 $422 forward 7 unknown #
vertex $-1 $322 $423 #
straight-curve $-1 -52.585726776696781 -6.2827280395833247 9.5880514668542478 0 1 0 I I #
straight-curve $-1 -46.560827876220259 -17.170504683273368 18.865582492725625 0.54463902268945019 0 0.83867057594974714 I I #
edge $-1 $324 2.5646875885364269 $397 6.1383046677605018 $323 $424 forward 7 unknown #
point $-1 -54.906460768456071 -17.170504683273368 6.0144343876301747 #
point $-1 -52.585726776696774 -7.9604074750599274 9.5880514668542478 #
vertex $-1 $394 $425 #
straight-curve $-1 -54.906460768456071 0 9.5880514668542478 0 -1 0 I I #
vertex $-1 $333 $426 #
point $-1 -52.009511283860896 -14.539048338069531 7.2696747498696084 #
vertex $-1 $337 $427 #
point $-1 -52.009511283860896 -10.59186382026377 7.2696747498696084 #
straight-curve $-1 -54.906460768456071 24.66258065237017 0 0 0 -1 I I #
point $-1 -54.906460768456071 -24.66258065237017 -9.5880514668542478 #
straight-curve $-1 -54.906460768456071 0 -9.5880514668542478 0 1 0 I I #
point $-1 -54.906460768456071 24.66258065237017 -9.5880514668542478 #
coedge $-1 $363 $359 $368 $412 forward $272 $-1 #
vertex $-1 $360 $428 #
straight-curve $-1 -54.906460768456071 0 9.5880514668542478 0 -1 0 I I #
point $-1 -54.906460768456071 -17.170504683273368 9.5880514668542496 #
straight-curve $-1 54.906460768456071 0 9.5880514668542478 0 1 0 I I #
edge $-1 $408 -54.906460768456071 $372 54.906460768456071 $368 $429 forward 7 unknown #
straight-curve $-1 -54.906460768456071 -24.66258065237017 0 0 0 -1 I I #
point $-1 54.906460768456071 -24.66258065237017 9.5880514668542478 #
straight-curve $-1 54.906460768456071 -6.2827280395833247 6.0144343876301463 0 1 0 I I #
straight-curve $-1 54.906460768456071 -17.170504683273368 3.4497467990937478 0 0 -1 I I #
straight-curve $-1 0 -17.170504683273368 9.5880514668542478 1 0 0 I I #
point $-1 54.906460768456071 -17.170504683273368 6.0144343876301534 #
point $-1 54.906460768456071 -17.170504683273368 9.5880514668542496 #
point $-1 51.86249550723074 -14.539048338069531 6.5780199505500105 #
point $-1 51.86249550723074 -10.59186382026377 6.5780199505500105 #
straight-curve $-1 0 -17.170504683273368 9.5880514668542478 1 0 0 I I #
point $-1 -52.585726776696781 -17.170504683273368 9.5880514668542478 #
straight-curve $-1 -54.906460768456071 -17.170504683273368 3.4497467990937478 0 0 1 I I #
point $-1 -54.906460768456071 -17.170504683273368 9.5880514668542496 #
point $-1 -51.862495507230747 -14.539048338069531 6.5780199505500105 #
point $-1 -51.862495507230747 -10.59186382026377 6.5780199505500105 #
point $-1 -54.906460768456071 -24.66258065237017 9.5880514668542478 #
straight-curve $-1 0 -24.66258065237017 9.5880514668542478 1 0 0 I I #
End-of-ACIS-data 