500 0 13 0           
7 Unknown 11 ACIS 5.0 NT 24 Thu Mar 25 18:04:04 1999 
-1 9.9999999999999995e-007 1e-010 
body $-1 $13 $-1 $14 #
body $-1 $15 $-1 $16 #
body $-1 $17 $-1 $18 #
body $-1 $19 $-1 $20 #
body $-1 $21 $-1 $22 #
body $-1 $23 $-1 $24 #
body $-1 $25 $-1 $26 #
body $-1 $27 $-1 $28 #
body $-1 $29 $-1 $30 #
body $-1 $31 $-1 $32 #
body $-1 $33 $-1 $34 #
body $-1 $35 $-1 $36 #
body $-1 $37 $-1 $38 #
lump $-1 $-1 $39 $0 #
transform $-1 1 0 0 0 1 0 0 0 1 42.767418439283425 29.572259584471457 7.8993229915769927 1 rotate no_reflect no_shear #
lump $-1 $-1 $40 $1 #
transform $-1 1 0 0 0 1 0 0 0 1 42.767418439283425 29.572259584471457 7.8993229915769927 1 rotate no_reflect no_shear #
lump $-1 $-1 $41 $2 #
transform $-1 1 0 0 0 1 0 0 0 1 42.767418439283425 29.572259584471457 7.8993229915769927 1 rotate no_reflect no_shear #
lump $-1 $-1 $42 $3 #
transform $-1 1 0 0 0 1 0 0 0 1 42.767418439283425 29.572259584471457 7.8993229915769927 1 rotate no_reflect no_shear #
lump $-1 $-1 $43 $4 #
transform $-1 1 0 0 0 1 0 0 0 1 42.767418439283425 29.572259584471457 7.8993229915769927 1 rotate no_reflect no_shear #
lump $-1 $-1 $44 $5 #
transform $-1 1 0 0 0 1 0 0 0 1 42.767418439283425 29.572259584471457 7.8993229915769927 1 rotate no_reflect no_shear #
lump $-1 $-1 $45 $6 #
transform $-1 1 0 0 0 1 0 0 0 1 42.767418439283425 29.572259584471457 7.8993229915769927 1 rotate no_reflect no_shear #
lump $-1 $-1 $46 $7 #
transform $-1 1 0 0 0 1 0 0 0 1 42.767418439283425 29.572259584471457 7.8993229915769927 1 rotate no_reflect no_shear #
lump $-1 $-1 $47 $8 #
transform $-1 1 0 0 0 1 0 0 0 1 42.767418439283425 29.572259584471457 7.8993229915769927 1 rotate no_reflect no_shear #
lump $-1 $-1 $48 $9 #
transform $-1 1 0 0 0 1 0 0 0 1 42.767418439283425 29.572259584471457 7.8993229915769927 1 rotate no_reflect no_shear #
lump $-1 $-1 $49 $10 #
transform $-1 1 0 0 0 1 0 0 0 1 42.767418439283425 29.572259584471457 7.8993229915769927 1 rotate no_reflect no_shear #
lump $-1 $-1 $50 $11 #
transform $-1 1 0 0 0 1 0 0 0 1 42.767418439283425 29.572259584471457 7.8993229915769927 1 rotate no_reflect no_shear #
lump $-1 $-1 $51 $12 #
transform $-1 1 0 0 0 1 0 0 0 1 42.767418439283425 29.572259584471457 7.8993229915769927 1 rotate no_reflect no_shear #
shell $-1 $-1 $-1 $52 $-1 $13 #
shell $-1 $-1 $-1 $53 $-1 $15 #
shell $-1 $-1 $-1 $54 $-1 $17 #
shell $-1 $-1 $-1 $55 $-1 $19 #
shell $-1 $-1 $-1 $56 $-1 $21 #
shell $-1 $-1 $-1 $57 $-1 $23 #
shell $-1 $-1 $-1 $58 $-1 $25 #
shell $-1 $-1 $-1 $59 $-1 $27 #
shell $-1 $-1 $-1 $60 $-1 $29 #
shell $-1 $-1 $-1 $61 $-1 $31 #
shell $-1 $-1 $-1 $62 $-1 $33 #
shell $-1 $-1 $-1 $63 $-1 $35 #
shell $-1 $-1 $-1 $64 $-1 $37 #
face $-1 $65 $66 $39 $-1 $67 forward single #
face $-1 $68 $69 $40 $-1 $70 forward single #
face $-1 $71 $72 $41 $-1 $73 forward single #
face $-1 $74 $75 $42 $-1 $76 reversed single #
face $-1 $77 $78 $43 $-1 $79 forward single #
face $-1 $80 $81 $44 $-1 $82 reversed single #
face $-1 $83 $84 $45 $-1 $85 forward single #
face $-1 $86 $87 $46 $-1 $88 reversed single #
face $-1 $89 $90 $47 $-1 $91 forward single #
face $-1 $92 $93 $48 $-1 $94 forward single #
face $-1 $95 $96 $49 $-1 $97 reversed single #
face $-1 $98 $99 $50 $-1 $100 forward single #
face $-1 $101 $102 $51 $-1 $103 forward single #
face $-1 $104 $105 $39 $-1 $106 reversed single #
loop $-1 $-1 $107 $52 #
plane-surface $-1 0 0 7.8993229915769927 0 0 1 1 0 0 forward_v I I I I #
face $-1 $108 $109 $40 $-1 $110 reversed single #
loop $-1 $-1 $111 $53 #
plane-surface $-1 -39.194049379919463 0 7.3993229915769927 0 0 1 1 0 0 forward_v I I I I #
face $-1 $112 $113 $41 $-1 $114 reversed single #
loop $-1 $-1 $115 $54 #
plane-surface $-1 39.194049379919456 0 7.3993229915769927 0 0 1 1 0 0 forward_v I I I I #
face $-1 $116 $117 $42 $-1 $118 reversed single #
loop $-1 $-1 $119 $55 #
plane-surface $-1 -4.90233709114748 69.095397375576283 100.48334092865568 -1 0 0 0 0.83867057594974714 0.54463902268945019 forward_v I I I I #
face $-1 $120 $121 $43 $-1 $122 forward single #
loop $-1 $123 $124 $56 #
cone-surface $-1 -10.204292780084927 27.98257496367086 5.8248234892054107 0 -0.83867057594974714 -0.54463902268945019 0.5 0 0 1 I I 0 1 0.5 forward I I I I #
face $-1 $125 $126 $44 $-1 $127 reversed single #
loop $-1 $-1 $128 $57 #
plane-surface $-1 15.506248469022388 69.095397375576283 100.48334092865568 -1 0 0 0 0.83867057594974714 0.54463902268945019 forward_v I I I I #
face $-1 $129 $130 $45 $-1 $131 forward single #
loop $-1 $132 $133 $58 #
cone-surface $-1 10.204292780084941 27.98257496367086 5.8248234892054107 0 -0.83867057594974714 -0.54463902268945019 0.5 0 0 1 I I 0 1 0.5 forward I I I I #
face $-1 $134 $135 $46 $-1 $136 reversed single #
loop $-1 $-1 $137 $59 #
plane-surface $-1 -26.944451409138473 -29.572259584471453 1.7896053006434869 0 -0.55919291073839883 0.82903756765294845 1 0 0 forward_v I I I I #
face $-1 $138 $139 $47 $-1 $140 forward single #
loop $-1 $141 $142 $60 #
cone-surface $-1 -30.662835228317199 -24.405805879714237 3.8994215353441337 0 0.55919291073839883 -0.82903756765294845 1 0 0 1 I I 0 1 1 forward I I I I #
face $-1 $143 $144 $48 $-1 $145 forward single #
loop $-1 $146 $147 $61 #
cone-surface $-1 -23.226067589959754 -24.405805879714237 3.8994215353441337 0 0.55919291073839883 -0.82903756765294845 1 0 0 1 I I 0 1 1 forward I I I I #
face $-1 $148 $149 $49 $-1 $150 reversed single #
loop $-1 $-1 $151 $62 #
plane-surface $-1 7.1054273576010019e-015 -77.402733988131388 72.70119841604226 1 0 0 0 0.55919291073839883 -0.82903756765294845 forward_v I I I I #
face $-1 $152 $153 $50 $-1 $154 forward single #
loop $-1 $155 $156 $63 #
cone-surface $-1 4.9578450922383013 -24.405805879714237 3.8994215353441337 0 0.55919291073839883 -0.82903756765294845 1 0 0 1 I I 0 1 1 forward I I I I #
face $-1 $157 $158 $51 $-1 $159 forward single #
loop $-1 $160 $161 $64 #
cone-surface $-1 12.394612730595746 -24.405805879714237 3.8994215353441337 0 0.55919291073839883 -0.82903756765294845 1 0 0 1 I I 0 1 1 forward I I I I #
face $-1 $162 $163 $39 $-1 $164 reversed single #
loop $-1 $-1 $165 $65 #
plane-surface $-1 0 0 -7.8993229915769927 0 0 1 1 0 0 forward_v I I I I #
coedge $-1 $166 $167 $168 $169 forward $66 $-1 #
face $-1 $170 $171 $40 $-1 $172 reversed single #
loop $-1 $-1 $173 $68 #
plane-surface $-1 -39.194049379919463 0 4.3993229915769927 0 0 1 1 0 0 forward_v I I I I #
coedge $-1 $174 $175 $176 $177 forward $69 $-1 #
face $-1 $178 $179 $41 $-1 $180 reversed single #
loop $-1 $-1 $181 $71 #
plane-surface $-1 39.194049379919456 0 4.3993229915769927 0 0 1 1 0 0 forward_v I I I I #
coedge $-1 $182 $183 $184 $185 reversed $72 $-1 #
face $-1 $186 $187 $42 $-1 $188 reversed single #
loop $-1 $-1 $189 $74 #
plane-surface $-1 -10.204292780084927 -2.640153533139042 53.897730965211487 0 0.83867057594974714 0.54463902268945019 1 0 0 forward_v I I I I #
coedge $-1 $190 $191 $192 $193 reversed $75 $-1 #
face $-1 $-1 $194 $43 $-1 $195 forward single #
loop $-1 $196 $197 $77 #
cone-surface $-1 -10.204292780084927 27.353572031708548 5.4163442221883233 0 -0.83867057594974714 -0.54463902268945019 0.25 0 0 1 I I -0.70710678118654746 0.70710678118654746 0.25 forward I I I I #
loop $-1 $-1 $198 $56 #
coedge $-1 $124 $124 $199 $200 reversed $78 $-1 #
face $-1 $201 $202 $44 $-1 $203 reversed single #
loop $-1 $-1 $204 $80 #
plane-surface $-1 10.204292780084941 -2.640153533139042 53.897730965211487 0 0.83867057594974714 0.54463902268945019 1 0 0 forward_v I I I I #
coedge $-1 $205 $206 $207 $208 reversed $81 $-1 #
face $-1 $-1 $209 $45 $-1 $210 forward single #
loop $-1 $211 $212 $83 #
cone-surface $-1 10.204292780084941 27.353572031708548 5.4163442221883233 0 -0.83867057594974714 -0.54463902268945019 0.25 0 0 1 I I -0.70710678118654746 0.70710678118654746 0.25 forward I I I I #
loop $-1 $-1 $213 $58 #
coedge $-1 $133 $133 $214 $215 reversed $84 $-1 #
face $-1 $216 $217 $46 $-1 $218 forward single #
loop $-1 $-1 $219 $86 #
plane-surface $-1 -18.268222497721453 -77.402733988131388 72.70119841604226 -1 0 0 0 -0.55919291073839883 0.82903756765294845 forward_v I I I I #
coedge $-1 $220 $221 $222 $223 reversed $87 $-1 #
face $-1 $-1 $224 $47 $-1 $225 forward single #
loop $-1 $226 $227 $89 #
cone-surface $-1 -30.662835228317199 -23.488770122550527 2.5398601407515553 0 0.55919291073839883 -0.82903756765294845 0.5 0 0 1 I I -0.70710678118654746 0.70710678118654746 0.5 forward I I I I #
loop $-1 $-1 $228 $60 #
coedge $-1 $142 $142 $229 $230 reversed $90 $-1 #
face $-1 $-1 $231 $48 $-1 $232 forward single #
loop $-1 $233 $234 $92 #
cone-surface $-1 -23.226067589959754 -23.488770122550527 2.5398601407515553 0 0.55919291073839883 -0.82903756765294845 0.5 0 0 1 I I -0.70710678118654746 0.70710678118654746 0.5 forward I I I I #
loop $-1 $-1 $235 $61 #
coedge $-1 $147 $147 $236 $237 reversed $93 $-1 #
face $-1 $238 $239 $49 $-1 $240 reversed single #
loop $-1 $-1 $241 $95 #
plane-surface $-1 8.6762289114170272 -29.572259584471453 1.7896053006434869 0 -0.55919291073839883 0.82903756765294845 1 0 0 forward_v I I I I #
coedge $-1 $242 $243 $244 $245 reversed $96 $-1 #
face $-1 $-1 $246 $50 $-1 $247 forward single #
loop $-1 $248 $249 $98 #
cone-surface $-1 4.9578450922383013 -23.488770122550527 2.5398601407515553 0 0.55919291073839883 -0.82903756765294845 0.5 0 0 1 I I -0.70710678118654746 0.70710678118654746 0.5 forward I I I I #
loop $-1 $-1 $250 $63 #
coedge $-1 $156 $156 $251 $252 reversed $99 $-1 #
face $-1 $-1 $253 $51 $-1 $254 forward single #
loop $-1 $255 $256 $101 #
cone-surface $-1 12.394612730595746 -23.488770122550527 2.5398601407515553 0 0.55919291073839883 -0.82903756765294845 0.5 0 0 1 I I -0.70710678118654746 0.70710678118654746 0.5 forward I I I I #
loop $-1 $-1 $257 $64 #
coedge $-1 $161 $161 $258 $259 reversed $102 $-1 #
face $-1 $260 $261 $39 $-1 $262 reversed single #
loop $-1 $-1 $263 $104 #
plane-surface $-1 0 -29.572259584471457 0 0 1 0 0 0 1 forward_v I I I I #
coedge $-1 $264 $265 $266 $267 forward $105 $-1 #
coedge $-1 $268 $107 $269 $270 forward $66 $-1 #
coedge $-1 $107 $268 $271 $272 forward $66 $-1 #
coedge $-1 $273 $274 $107 $169 reversed $275 $-1 #
edge $-1 $276 -29.572259584471457 $277 29.572259584471457 $168 $278 forward 7 unknown #
face $-1 $279 $280 $40 $-1 $281 reversed single #
loop $-1 $-1 $282 $108 #
plane-surface $-1 -35.6206803205555 0 5.8993229915769927 -1 0 0 0 0 1 forward_v I I I I #
coedge $-1 $283 $284 $285 $286 forward $109 $-1 #
coedge $-1 $287 $111 $288 $289 reversed $69 $-1 #
coedge $-1 $111 $287 $290 $291 reversed $69 $-1 #
coedge $-1 $282 $292 $111 $177 reversed $171 $-1 #
edge $-1 $293 -29.572259584471457 $294 29.572259584471457 $176 $295 forward 7 unknown #
face $-1 $296 $297 $41 $-1 $298 reversed single #
loop $-1 $-1 $299 $112 #
plane-surface $-1 35.620680320555493 0 5.8993229915769927 1 0 0 0 0 -1 forward_v I I I I #
coedge $-1 $300 $301 $302 $303 reversed $113 $-1 #
coedge $-1 $304 $115 $305 $306 reversed $72 $-1 #
coedge $-1 $115 $304 $307 $308 reversed $72 $-1 #
coedge $-1 $309 $310 $115 $185 forward $311 $-1 #
edge $-1 $312 -29.572259584471457 $313 29.572259584471457 $184 $314 forward 7 unknown #
face $-1 $315 $316 $42 $-1 $317 reversed single #
loop $-1 $-1 $318 $116 #
plane-surface $-1 -15.506248469022374 69.095397375576283 100.48334092865568 1 0 0 0 -0.83867057594974714 -0.54463902268945019 forward_v I I I I #
coedge $-1 $319 $320 $321 $322 reversed $117 $-1 #
coedge $-1 $191 $119 $323 $324 reversed $75 $-1 #
coedge $-1 $119 $190 $319 $325 reversed $75 $-1 #
coedge $-1 $321 $326 $119 $193 forward $316 $-1 #
edge $-1 $327 42.342347472750845 $328 45.946707454804525 $192 $329 forward 7 unknown #
loop $-1 $-1 $199 $120 #
plane-surface $-1 -10.204292780084927 -2.640153533139042 53.897730965211487 0 0.83867057594974714 0.54463902268945019 1 0 0 forward_v I I I I #
loop $-1 $-1 $330 $77 #
coedge $-1 $197 $197 $198 $331 reversed $121 $-1 #
coedge $-1 $198 $198 $197 $331 forward $123 $-1 #
coedge $-1 $199 $199 $124 $200 forward $194 $-1 #
edge $-1 $332 -2.9619047096605758e-015 $332 6.2831853071795978 $199 $333 forward 7 unknown #
face $-1 $334 $335 $44 $-1 $336 forward single #
loop $-1 $-1 $337 $125 #
plane-surface $-1 4.9023370911474942 69.095397375576283 100.48334092865568 1 0 0 0 -0.83867057594974714 -0.54463902268945019 forward_v I I I I #
coedge $-1 $338 $339 $340 $341 reversed $126 $-1 #
coedge $-1 $206 $128 $342 $343 reversed $81 $-1 #
coedge $-1 $128 $205 $338 $344 reversed $81 $-1 #
coedge $-1 $340 $345 $128 $208 forward $346 $-1 #
edge $-1 $347 42.342347472750845 $348 45.946707454804525 $207 $349 forward 7 unknown #
loop $-1 $-1 $214 $129 #
plane-surface $-1 10.204292780084941 -2.640153533139042 53.897730965211487 0 0.83867057594974714 0.54463902268945019 1 0 0 forward_v I I I I #
loop $-1 $-1 $350 $83 #
coedge $-1 $212 $212 $213 $351 reversed $130 $-1 #
coedge $-1 $213 $213 $212 $351 forward $132 $-1 #
coedge $-1 $214 $214 $133 $215 forward $209 $-1 #
edge $-1 $352 -2.9619047096605758e-015 $352 6.2831853071795978 $214 $353 forward 7 unknown #
face $-1 $354 $355 $46 $-1 $356 reversed single #
loop $-1 $-1 $357 $134 #
plane-surface $-1 -35.6206803205555 0 5.8993229915769927 -1 0 0 0 0 1 forward_v I I I I #
coedge $-1 $358 $359 $360 $361 reversed $135 $-1 #
coedge $-1 $362 $137 $357 $363 forward $87 $-1 #
coedge $-1 $137 $362 $358 $364 forward $87 $-1 #
coedge $-1 $360 $365 $137 $223 forward $355 $-1 #
edge $-1 $366 -22.148454615986257 $367 -4.7959967931522165 $222 $368 forward 7 unknown #
loop $-1 $-1 $229 $138 #
plane-surface $-1 -26.944451409138473 -29.572259584471453 1.7896053006434869 0 -0.55919291073839883 0.82903756765294845 1 0 0 forward_v I I I I #
loop $-1 $-1 $369 $89 #
coedge $-1 $227 $227 $228 $370 reversed $139 $-1 #
coedge $-1 $228 $228 $227 $370 forward $141 $-1 #
coedge $-1 $229 $229 $142 $230 forward $224 $-1 #
edge $-1 $371 4.9666307576714426e-016 $371 6.2831853071796013 $229 $372 forward 7 unknown #
loop $-1 $-1 $236 $143 #
plane-surface $-1 -26.944451409138473 -29.572259584471453 1.7896053006434869 0 -0.55919291073839883 0.82903756765294845 1 0 0 forward_v I I I I #
loop $-1 $-1 $373 $92 #
coedge $-1 $234 $234 $235 $374 reversed $144 $-1 #
coedge $-1 $235 $235 $234 $374 forward $146 $-1 #
coedge $-1 $236 $236 $147 $237 forward $231 $-1 #
edge $-1 $375 4.9666307576714426e-016 $375 6.2831853071796013 $236 $376 forward 7 unknown #
face $-1 $377 $378 $49 $-1 $379 reversed single #
loop $-1 $-1 $380 $148 #
plane-surface $-1 17.352457822834047 -77.402733988131388 72.70119841604226 -1 0 0 0 -0.55919291073839883 0.82903756765294845 forward_v I I I I #
coedge $-1 $381 $382 $383 $384 reversed $149 $-1 #
coedge $-1 $243 $151 $385 $386 reversed $96 $-1 #
coedge $-1 $151 $242 $381 $387 reversed $96 $-1 #
coedge $-1 $383 $388 $151 $245 forward $378 $-1 #
edge $-1 $389 28.451276216444136 $390 34.560993907377643 $244 $391 forward 7 unknown #
loop $-1 $-1 $251 $152 #
plane-surface $-1 8.6762289114170272 -29.572259584471453 1.7896053006434869 0 -0.55919291073839883 0.82903756765294845 1 0 0 forward_v I I I I #
loop $-1 $-1 $392 $98 #
coedge $-1 $249 $249 $250 $393 reversed $153 $-1 #
coedge $-1 $250 $250 $249 $393 forward $155 $-1 #
coedge $-1 $251 $251 $156 $252 forward $246 $-1 #
edge $-1 $394 4.9666307576714426e-016 $394 6.2831853071796013 $251 $395 forward 7 unknown #
loop $-1 $-1 $258 $157 #
plane-surface $-1 8.6762289114170272 -29.572259584471453 1.7896053006434869 0 -0.55919291073839883 0.82903756765294845 1 0 0 forward_v I I I I #
loop $-1 $-1 $396 $101 #
coedge $-1 $256 $256 $257 $397 reversed $158 $-1 #
coedge $-1 $257 $257 $256 $397 forward $160 $-1 #
coedge $-1 $258 $258 $161 $259 forward $253 $-1 #
edge $-1 $398 4.9666307576714426e-016 $398 6.2831853071796013 $258 $399 forward 7 unknown #
face $-1 $400 $401 $39 $-1 $402 reversed single #
loop $-1 $-1 $403 $162 #
plane-surface $-1 -42.767418439283425 0 0 1 0 0 0 0 -1 forward_v I I I I #
coedge $-1 $404 $271 $405 $406 forward $163 $-1 #
coedge $-1 $407 $165 $404 $408 forward $105 $-1 #
coedge $-1 $165 $407 $409 $410 forward $105 $-1 #
coedge $-1 $274 $273 $165 $267 reversed $275 $-1 #
edge $-1 $411 -29.572259584471457 $412 29.572259584471457 $266 $413 forward 7 unknown #
coedge $-1 $167 $166 $414 $415 forward $66 $-1 #
coedge $-1 $416 $417 $166 $270 reversed $401 $-1 #
edge $-1 $277 -42.767418439283425 $418 42.767418439283425 $269 $419 forward 7 unknown #
coedge $-1 $263 $420 $167 $272 reversed $163 $-1 #
edge $-1 $421 -42.767418439283425 $276 42.767418439283425 $271 $422 forward 7 unknown #
coedge $-1 $266 $168 $420 $423 forward $275 $-1 #
coedge $-1 $168 $266 $416 $424 reversed $275 $-1 #
loop $-1 $-1 $273 $400 #
vertex $-1 $169 $425 #
vertex $-1 $169 $426 #
straight-curve $-1 42.767418439283425 0 7.8993229915769927 0 1 0 I I #
face $-1 $427 $428 $40 $-1 $429 reversed single #
loop $-1 $-1 $430 $170 #
plane-surface $-1 0 -29.572259584471457 0 0 1 0 0 0 1 forward_v I I I I #
coedge $-1 $285 $176 $431 $432 reversed $171 $-1 #
coedge $-1 $433 $173 $430 $434 reversed $109 $-1 #
coedge $-1 $173 $433 $435 $436 reversed $109 $-1 #
coedge $-1 $292 $282 $173 $286 reversed $171 $-1 #
edge $-1 $437 -29.572259584471457 $438 29.572259584471457 $285 $439 forward 7 unknown #
coedge $-1 $175 $174 $440 $441 reversed $69 $-1 #
coedge $-1 $442 $443 $174 $289 forward $444 $-1 #
edge $-1 $445 -23.170393749323694 $294 -16.023655630595769 $288 $446 forward 7 unknown #
coedge $-1 $447 $431 $175 $291 forward $280 $-1 #
edge $-1 $293 16.023655630595769 $448 23.170393749323694 $290 $449 forward 7 unknown #
coedge $-1 $176 $285 $442 $450 reversed $171 $-1 #
vertex $-1 $291 $451 #
vertex $-1 $289 $452 #
straight-curve $-1 -35.6206803205555 0 7.3993229915769927 0 1 0 I I #
face $-1 $453 $454 $41 $-1 $455 reversed single #
loop $-1 $-1 $307 $178 #
plane-surface $-1 0 -29.572259584471457 0 0 1 0 0 0 1 forward_v I I I I #
coedge $-1 $456 $457 $458 $459 reversed $179 $-1 #
coedge $-1 $460 $181 $461 $462 reversed $113 $-1 #
coedge $-1 $181 $460 $463 $464 reversed $113 $-1 #
coedge $-1 $310 $309 $181 $303 forward $311 $-1 #
edge $-1 $465 -29.572259584471457 $466 29.572259584471457 $302 $467 forward 7 unknown #
coedge $-1 $183 $182 $457 $468 forward $72 $-1 #
coedge $-1 $469 $458 $182 $306 forward $454 $-1 #
edge $-1 $470 16.023655630595766 $312 23.17039374932369 $305 $471 forward 7 unknown #
coedge $-1 $472 $473 $183 $308 forward $297 $-1 #
edge $-1 $313 -23.17039374932369 $474 -16.023655630595766 $307 $475 forward 7 unknown #
coedge $-1 $302 $184 $473 $476 forward $311 $-1 #
coedge $-1 $184 $302 $469 $477 reversed $311 $-1 #
loop $-1 $-1 $184 $453 #
vertex $-1 $477 $478 #
vertex $-1 $476 $479 #
straight-curve $-1 42.767418439283425 0 7.3993229915769927 0 -1 0 I I #
face $-1 $-1 $480 $42 $-1 $481 forward single #
loop $-1 $-1 $192 $186 #
plane-surface $-1 0 29.572259584471457 0 0 -1 0 0 0 -1 forward_v I I I I #
coedge $-1 $482 $483 $484 $485 reversed $187 $-1 #
coedge $-1 $486 $189 $191 $325 forward $117 $-1 #
coedge $-1 $189 $486 $482 $487 forward $117 $-1 #
coedge $-1 $484 $192 $189 $322 forward $316 $-1 #
edge $-1 $328 -0.19980929889498356 $488 10.404102078979911 $321 $489 forward 7 unknown #
coedge $-1 $490 $491 $190 $324 forward $480 $-1 #
edge $-1 $492 -7.3161377689681082 $327 -4.9754391033166847 $323 $493 forward 7 unknown #
edge $-1 $328 -59.144519168942864 $492 -54.846812673192801 $191 $494 forward 7 unknown #
coedge $-1 $192 $484 $490 $495 reversed $316 $-1 #
vertex $-1 $495 $496 #
vertex $-1 $193 $497 #
straight-curve $-1 -4.90233709114748 29.572259584471457 50.241670464327839 0 0 -1 I I #
coedge $-1 $330 $330 $-1 $498 reversed $196 $-1 #
edge $-1 $499 0 $499 6.2831853071796004 $197 $500 forward 7 unknown #
vertex $-1 $200 $501 #
ellipse-curve $-1 -10.204292780084927 28.401910251645749 6.0971430005501457 0 0.83867057594974714 0.54463902268945019 0.5 0 0 1 I I #
face $-1 $-1 $346 $44 $-1 $502 reversed single #
loop $-1 $-1 $503 $201 #
plane-surface $-1 0 0 7.8993229915769927 0 0 1 1 0 0 forward_v I I I I #
coedge $-1 $504 $505 $506 $507 reversed $202 $-1 #
coedge $-1 $508 $204 $206 $344 forward $126 $-1 #
coedge $-1 $204 $508 $504 $509 forward $126 $-1 #
coedge $-1 $506 $207 $204 $341 forward $346 $-1 #
edge $-1 $348 -10.404102078979918 $510 0.19980929889497645 $340 $511 forward 7 unknown #
coedge $-1 $512 $513 $205 $343 forward $335 $-1 #
edge $-1 $514 -7.3161377689681082 $347 -4.9754391033166847 $342 $515 forward 7 unknown #
edge $-1 $348 -59.144519168942864 $514 -54.846812673192801 $206 $516 forward 7 unknown #
coedge $-1 $207 $506 $512 $517 reversed $346 $-1 #
loop $-1 $-1 $506 $334 #
vertex $-1 $517 $518 #
vertex $-1 $208 $519 #
straight-curve $-1 15.506248469022388 29.572259584471457 50.241670464327839 0 0 -1 I I #
coedge $-1 $350 $350 $-1 $520 reversed $211 $-1 #
edge $-1 $521 0 $521 6.2831853071796004 $212 $522 forward 7 unknown #
vertex $-1 $215 $523 #
ellipse-curve $-1 10.204292780084941 28.401910251645749 6.0971430005501457 0 0.83867057594974714 0.54463902268945019 0.5 0 0 1 I I #
face $-1 $-1 $524 $46 $-1 $525 forward single #
loop $-1 $-1 $365 $216 #
plane-surface $-1 0 -29.572259584471457 0 0 1 0 0 0 1 forward_v I I I I #
coedge $-1 $526 $527 $220 $363 reversed $217 $-1 #
coedge $-1 $359 $219 $221 $364 reversed $135 $-1 #
coedge $-1 $219 $358 $528 $529 reversed $135 $-1 #
coedge $-1 $530 $222 $219 $361 forward $355 $-1 #
edge $-1 $367 -34.560993907377643 $531 -28.451276216444136 $360 $532 forward 7 unknown #
coedge $-1 $221 $220 $533 $534 reversed $87 $-1 #
edge $-1 $366 -4.3111565651997722e-015 $535 10.925956988377751 $357 $536 forward 7 unknown #
edge $-1 $537 -10.925956988377751 $367 4.3111565651997722e-015 $358 $538 forward 7 unknown #
coedge $-1 $222 $530 $526 $539 forward $355 $-1 #
vertex $-1 $223 $540 #
vertex $-1 $223 $541 #
straight-curve $-1 -13.472225704569237 -29.572259584471457 1.7896053006434829 1 0 0 I I #
coedge $-1 $369 $369 $-1 $542 reversed $226 $-1 #
edge $-1 $543 0 $543 6.2831853071796004 $227 $544 forward 7 unknown #
vertex $-1 $230 $545 #
ellipse-curve $-1 -30.662835228317199 -25.043245181508745 4.8444641461102371 0 -0.55919291073839883 0.82903756765294845 1 0 0 1 I I #
coedge $-1 $373 $373 $-1 $546 reversed $233 $-1 #
edge $-1 $547 0 $547 6.2831853071796004 $234 $548 forward 7 unknown #
vertex $-1 $237 $549 #
ellipse-curve $-1 -23.226067589959754 -25.043245181508745 4.8444641461102371 0 -0.55919291073839883 0.82903756765294845 1 0 0 1 I I #
face $-1 $-1 $550 $49 $-1 $551 forward single #
loop $-1 $-1 $244 $238 #
plane-surface $-1 0 -29.572259584471457 0 0 1 0 0 0 1 forward_v I I I I #
coedge $-1 $552 $553 $554 $555 reversed $239 $-1 #
coedge $-1 $556 $241 $243 $387 forward $149 $-1 #
coedge $-1 $241 $556 $552 $557 forward $149 $-1 #
coedge $-1 $554 $244 $241 $384 forward $378 $-1 #
edge $-1 $390 -4.3381144557085065 $558 13.014343367125534 $383 $559 forward 7 unknown #
coedge $-1 $560 $561 $242 $386 forward $550 $-1 #
edge $-1 $562 -18.187136215519665 $389 -9.1291074095942371 $385 $563 forward 7 unknown #
edge $-1 $390 -4.3111565651997722e-015 $562 10.925956988377751 $243 $564 forward 7 unknown #
coedge $-1 $244 $554 $560 $565 reversed $378 $-1 #
vertex $-1 $565 $566 #
vertex $-1 $245 $567 #
straight-curve $-1 7.1054273576010019e-015 -29.572259584471457 36.35059920802113 0 0 -1 I I #
coedge $-1 $392 $392 $-1 $568 reversed $248 $-1 #
edge $-1 $569 0 $569 6.2831853071796004 $249 $570 forward 7 unknown #
vertex $-1 $252 $571 #
ellipse-curve $-1 4.9578450922383013 -25.043245181508745 4.8444641461102371 0 -0.55919291073839883 0.82903756765294845 1 0 0 1 I I #
coedge $-1 $396 $396 $-1 $572 reversed $255 $-1 #
edge $-1 $573 0 $573 6.2831853071796004 $256 $574 forward 7 unknown #
vertex $-1 $259 $575 #
ellipse-curve $-1 12.394612730595746 -25.043245181508745 4.8444641461102371 0 -0.55919291073839883 0.82903756765294845 1 0 0 1 I I #
face $-1 $-1 $275 $39 $-1 $576 reversed single #
loop $-1 $-1 $416 $260 #
plane-surface $-1 0 29.572259584471457 0 0 -1 0 0 0 -1 forward_v I I I I #
coedge $-1 $577 $414 $417 $578 forward $261 $-1 #
coedge $-1 $420 $263 $264 $408 reversed $163 $-1 #
coedge $-1 $414 $577 $263 $406 reversed $261 $-1 #
edge $-1 $421 -7.8993229915769927 $579 7.8993229915769927 $405 $580 forward 7 unknown #
coedge $-1 $265 $264 $577 $581 forward $105 $-1 #
edge $-1 $412 -42.767418439283425 $579 42.767418439283425 $404 $582 forward 7 unknown #
coedge $-1 $417 $416 $265 $410 reversed $401 $-1 #
edge $-1 $583 -42.767418439283425 $411 42.767418439283425 $409 $584 forward 7 unknown #
vertex $-1 $267 $585 #
vertex $-1 $423 $586 #
straight-curve $-1 42.767418439283425 0 -7.8993229915769927 0 -1 0 I I #
coedge $-1 $403 $405 $268 $415 reversed $261 $-1 #
edge $-1 $418 -29.572259584471457 $421 29.572259584471457 $414 $587 forward 7 unknown #
coedge $-1 $409 $269 $274 $424 forward $401 $-1 #
coedge $-1 $269 $409 $403 $578 reversed $401 $-1 #
vertex $-1 $270 $588 #
straight-curve $-1 0 29.572259584471457 7.8993229915769927 -1 0 0 I I #
coedge $-1 $271 $404 $273 $423 reversed $163 $-1 #
vertex $-1 $415 $589 #
straight-curve $-1 0 -29.572259584471457 7.8993229915769927 1 0 0 I I #
edge $-1 $276 -7.8993229915769927 $412 7.8993229915769927 $273 $590 forward 7 unknown #
edge $-1 $277 -7.8993229915769927 $411 7.8993229915769927 $274 $591 forward 7 unknown #
point $-1 42.767418439283425 -29.572259584471457 7.8993229915769927 #
point $-1 42.767418439283425 29.572259584471457 7.8993229915769927 #
face $-1 $-1 $444 $40 $-1 $592 reversed single #
loop $-1 $-1 $593 $279 #
plane-surface $-1 -42.767418439283425 0 0 1 0 0 0 0 -1 forward_v I I I I #
coedge $-1 $431 $447 $283 $434 forward $280 $-1 #
coedge $-1 $290 $430 $282 $432 forward $280 $-1 #
edge $-1 $438 1.4496614957884963 $293 4.4496614957884963 $431 $594 forward 7 unknown #
coedge $-1 $284 $283 $593 $595 reversed $109 $-1 #
edge $-1 $596 -23.170393749323694 $438 -16.023655630595769 $430 $597 forward 7 unknown #
coedge $-1 $443 $442 $284 $436 forward $444 $-1 #
edge $-1 $437 16.023655630595769 $598 23.170393749323694 $435 $599 forward 7 unknown #
vertex $-1 $436 $600 #
vertex $-1 $434 $601 #
straight-curve $-1 -35.6206803205555 0 4.3993229915769927 0 -1 0 I I #
coedge $-1 $602 $603 $287 $441 forward $428 $-1 #
edge $-1 $448 -29.572259584471457 $445 29.572259584471457 $440 $604 forward 7 unknown #
coedge $-1 $435 $288 $292 $450 forward $444 $-1 #
coedge $-1 $288 $435 $602 $605 reversed $444 $-1 #
loop $-1 $-1 $435 $427 #
vertex $-1 $605 $606 #
straight-curve $-1 -19.597024689959731 29.572259584471457 7.3993229915769927 1 0 0 I I #
coedge $-1 $430 $290 $603 $607 forward $280 $-1 #
vertex $-1 $607 $608 #
straight-curve $-1 -19.597024689959731 -29.572259584471457 7.3993229915769927 -1 0 0 I I #
edge $-1 $294 -4.4496614957884963 $437 -1.4496614957884963 $442 $609 forward 7 unknown #
point $-1 -35.6206803205555 -29.572259584471457 7.3993229915769927 #
point $-1 -35.6206803205555 29.572259584471457 7.3993229915769927 #
face $-1 $-1 $311 $41 $-1 $610 reversed single #
loop $-1 $-1 $305 $296 #
plane-surface $-1 0 29.572259584471457 0 0 -1 0 0 0 -1 forward_v I I I I #
coedge $-1 $611 $299 $460 $612 reversed $179 $-1 #
coedge $-1 $299 $611 $304 $468 reversed $179 $-1 #
coedge $-1 $305 $463 $299 $459 forward $454 $-1 #
edge $-1 $613 1.4496614957884963 $470 4.4496614957884963 $458 $614 forward 7 unknown #
coedge $-1 $301 $300 $456 $612 forward $113 $-1 #
coedge $-1 $473 $472 $300 $462 forward $297 $-1 #
edge $-1 $615 16.023655630595766 $465 23.17039374932369 $461 $616 forward 7 unknown #
coedge $-1 $458 $469 $301 $464 forward $454 $-1 #
edge $-1 $466 -23.17039374932369 $613 -16.023655630595766 $463 $617 forward 7 unknown #
vertex $-1 $303 $618 #
vertex $-1 $303 $619 #
straight-curve $-1 42.767418439283425 0 4.3993229915769927 0 1 0 I I #
edge $-1 $470 -29.572259584471457 $474 29.572259584471457 $457 $620 forward 7 unknown #
coedge $-1 $463 $305 $310 $477 forward $454 $-1 #
vertex $-1 $306 $621 #
straight-curve $-1 19.597024689959728 29.572259584471457 7.3993229915769927 1 0 0 I I #
coedge $-1 $461 $307 $611 $622 forward $297 $-1 #
coedge $-1 $307 $461 $309 $476 reversed $297 $-1 #
vertex $-1 $308 $623 #
straight-curve $-1 19.597024689959728 -29.572259584471457 7.3993229915769927 -1 0 0 I I #
edge $-1 $313 -7.3993229915769927 $465 -4.3993229915769927 $309 $624 forward 7 unknown #
edge $-1 $312 -7.3993229915769927 $466 -4.3993229915769927 $310 $625 forward 7 unknown #
point $-1 42.767418439283418 29.572259584471457 7.3993229915769927 #
point $-1 42.767418439283418 -29.572259584471457 7.3993229915769927 #
loop $-1 $-1 $323 $315 #
plane-surface $-1 0 0 7.8993229915769927 0 0 1 1 0 0 forward_v I I I I #
coedge $-1 $483 $318 $320 $487 reversed $187 $-1 #
coedge $-1 $318 $482 $626 $627 reversed $187 $-1 #
coedge $-1 $326 $321 $318 $485 forward $316 $-1 #
edge $-1 $488 -45.946707454804525 $628 -42.342347472750845 $484 $629 forward 7 unknown #
coedge $-1 $320 $319 $491 $630 reversed $117 $-1 #
edge $-1 $631 54.846812673192801 $488 59.144519168942864 $482 $632 forward 7 unknown #
vertex $-1 $322 $633 #
straight-curve $-1 -5.1021463900424635 29.572259584471453 4.2949630095233111 -1 0 0 I I #
coedge $-1 $626 $323 $326 $495 forward $480 $-1 #
coedge $-1 $323 $626 $486 $630 forward $480 $-1 #
vertex $-1 $324 $634 #
straight-curve $-1 -4.90233709114748 34.547698687788142 7.8993229915769945 0 1 0 I I #
straight-curve $-1 -4.90233709114748 -2.640153533139042 53.897730965211487 0 -0.54463902268945019 0.83867057594974714 I I #
edge $-1 $327 4.90233709114748 $628 15.506248469022374 $326 $635 forward 7 unknown #
point $-1 -4.90233709114748 29.572259584471457 7.8993229915769927 #
point $-1 -4.90233709114748 29.572259584471453 4.2949630095233147 #
edge $-1 $636 1 $636 0 $330 $-1 forward 7 unknown #
vertex $-1 $331 $637 #
ellipse-curve $-1 -10.204292780084927 27.563239675695986 5.5525039778606855 0 0.83867057594974714 0.54463902268945019 0.5 0 0 1 I I #
point $-1 -9.704292780084927 28.401910251645731 6.0971430005501359 #
plane-surface $-1 0 29.572259584471457 0 0 -1 0 0 0 -1 forward_v I I I I #
coedge $-1 $513 $512 $505 $638 forward $335 $-1 #
coedge $-1 $505 $337 $339 $509 reversed $202 $-1 #
coedge $-1 $337 $504 $503 $638 reversed $202 $-1 #
coedge $-1 $345 $340 $337 $507 forward $346 $-1 #
edge $-1 $510 -45.946707454804525 $639 -42.342347472750845 $506 $640 forward 7 unknown #
coedge $-1 $339 $338 $513 $641 reversed $126 $-1 #
edge $-1 $642 54.846812673192801 $510 59.144519168942864 $504 $643 forward 7 unknown #
vertex $-1 $341 $644 #
straight-curve $-1 5.1021463900424706 29.572259584471453 4.2949630095233111 -1 0 0 I I #
coedge $-1 $503 $342 $345 $517 forward $335 $-1 #
coedge $-1 $342 $503 $508 $641 forward $335 $-1 #
vertex $-1 $343 $645 #
straight-curve $-1 15.506248469022388 34.547698687788142 7.8993229915769945 0 1 0 I I #
straight-curve $-1 15.506248469022388 -2.640153533139042 53.897730965211487 0 -0.54463902268945019 0.83867057594974714 I I #
edge $-1 $347 -15.506248469022388 $639 -4.9023370911474942 $345 $646 forward 7 unknown #
point $-1 15.506248469022388 29.572259584471457 7.8993229915769927 #
point $-1 15.506248469022388 29.572259584471453 4.2949630095233147 #
edge $-1 $647 1 $647 0 $350 $-1 forward 7 unknown #
vertex $-1 $351 $648 #
ellipse-curve $-1 10.204292780084941 27.563239675695986 5.5525039778606855 0 0.83867057594974714 0.54463902268945019 0.5 0 0 1 I I #
point $-1 10.704292780084941 28.401910251645731 6.0971430005501359 #
loop $-1 $-1 $649 $354 #
plane-surface $-1 0 0 7.8993229915769927 0 0 1 1 0 0 forward_v I I I I #
coedge $-1 $527 $357 $365 $539 reversed $217 $-1 #
coedge $-1 $357 $526 $649 $650 reversed $217 $-1 #
coedge $-1 $533 $651 $359 $529 forward $524 $-1 #
edge $-1 $531 9.1291074095942371 $537 18.187136215519665 $528 $652 forward 7 unknown #
coedge $-1 $365 $360 $651 $653 reversed $355 $-1 #
vertex $-1 $529 $654 #
straight-curve $-1 -18.268222497721453 -29.572259584471457 36.35059920802113 0 0 1 I I #
coedge $-1 $649 $528 $362 $534 forward $524 $-1 #
edge $-1 $537 4.7959967931522165 $535 22.148454615986257 $533 $655 forward 7 unknown #
vertex $-1 $650 $656 #
straight-curve $-1 -35.620680320555493 -29.572259584471453 1.7896053006434869 0 0.82903756765294845 0.55919291073839883 I I #
vertex $-1 $534 $657 #
straight-curve $-1 -18.268222497721453 -29.572259584471453 1.7896053006434869 0 -0.82903756765294845 -0.55919291073839883 I I #
edge $-1 $658 28.451276216444136 $366 34.560993907377643 $365 $659 forward 7 unknown #
point $-1 -35.620680320555493 -29.572259584471457 1.7896053006434844 #
point $-1 -18.268222497721453 -29.572259584471457 1.7896053006434844 #
edge $-1 $660 1 $660 0 $369 $-1 forward 7 unknown #
vertex $-1 $370 $661 #
ellipse-curve $-1 -30.662835228317199 -23.768366577919725 2.9543789245780294 0 -0.55919291073839883 0.82903756765294845 1 0 0 1 I I #
point $-1 -29.662835228317199 -25.043245181508745 4.844464146110238 #
edge $-1 $662 1 $662 0 $373 $-1 forward 7 unknown #
vertex $-1 $374 $663 #
ellipse-curve $-1 -23.226067589959754 -23.768366577919725 2.9543789245780294 0 -0.55919291073839883 0.82903756765294845 1 0 0 1 I I #
point $-1 -22.226067589959754 -25.043245181508745 4.844464146110238 #
loop $-1 $-1 $385 $377 #
plane-surface $-1 0 0 7.8993229915769927 0 0 1 1 0 0 forward_v I I I I #
coedge $-1 $553 $380 $382 $557 reversed $239 $-1 #
coedge $-1 $380 $552 $664 $665 reversed $239 $-1 #
coedge $-1 $388 $383 $380 $555 forward $378 $-1 #
edge $-1 $558 -34.560993907377643 $666 -28.451276216444136 $554 $667 forward 7 unknown #
coedge $-1 $382 $381 $561 $668 reversed $149 $-1 #
edge $-1 $669 -10.925956988377751 $558 4.3111565651997722e-015 $552 $670 forward 7 unknown #
vertex $-1 $384 $671 #
straight-curve $-1 4.3381144557085136 -29.572259584471457 1.7896053006434829 1 0 0 I I #
coedge $-1 $664 $385 $388 $565 forward $550 $-1 #
coedge $-1 $385 $664 $556 $668 forward $550 $-1 #
vertex $-1 $386 $672 #
straight-curve $-1 7.1054273576010019e-015 -38.701366994065694 7.8993229915769945 0 -1 0 I I #
straight-curve $-1 7.1054273576010019e-015 -29.572259584471453 1.7896053006434869 0 0.82903756765294845 0.55919291073839883 I I #
edge $-1 $389 7.1054273576010019e-015 $666 17.352457822834047 $388 $673 forward 7 unknown #
point $-1 7.1054273576010019e-015 -29.572259584471457 7.8993229915769927 #
point $-1 7.1054273576010019e-015 -29.572259584471457 1.7896053006434844 #
edge $-1 $674 1 $674 0 $392 $-1 forward 7 unknown #
vertex $-1 $393 $675 #
ellipse-curve $-1 4.9578450922383013 -23.768366577919725 2.9543789245780294 0 -0.55919291073839883 0.82903756765294845 1 0 0 1 I I #
point $-1 5.9578450922383013 -25.043245181508745 4.844464146110238 #
edge $-1 $676 1 $676 0 $396 $-1 forward 7 unknown #
vertex $-1 $397 $677 #
ellipse-curve $-1 12.394612730595746 -23.768366577919725 2.9543789245780294 0 -0.55919291073839883 0.82903756765294845 1 0 0 1 I I #
point $-1 13.394612730595746 -25.043245181508745 4.844464146110238 #
plane-surface $-1 42.767418439283425 0 0 -1 0 0 0 0 1 forward_v I I I I #
coedge $-1 $405 $403 $407 $581 reversed $261 $-1 #
edge $-1 $418 -7.8993229915769927 $583 7.8993229915769927 $417 $678 forward 7 unknown #
vertex $-1 $581 $679 #
straight-curve $-1 -42.767418439283425 -29.572259584471457 0 0 0 -1 I I #
edge $-1 $579 -29.572259584471457 $583 29.572259584471457 $577 $680 forward 7 unknown #
straight-curve $-1 0 -29.572259584471457 -7.8993229915769927 -1 0 0 I I #
vertex $-1 $410 $681 #
straight-curve $-1 0 29.572259584471457 -7.8993229915769927 1 0 0 I I #
point $-1 42.767418439283425 29.572259584471457 -7.8993229915769927 #
point $-1 42.767418439283425 -29.572259584471457 -7.8993229915769927 #
straight-curve $-1 -42.767418439283425 0 7.8993229915769927 0 -1 0 I I #
point $-1 -42.767418439283425 29.572259584471457 7.8993229915769927 #
point $-1 -42.767418439283425 -29.572259584471457 7.8993229915769927 #
straight-curve $-1 42.767418439283425 -29.572259584471457 0 0 0 -1 I I #
straight-curve $-1 42.767418439283425 29.572259584471457 0 0 0 -1 I I #
plane-surface $-1 0 29.572259584471457 0 0 -1 0 0 0 -1 forward_v I I I I #
coedge $-1 $603 $602 $433 $595 forward $428 $-1 #
straight-curve $-1 -35.6206803205555 -29.572259584471457 2.9496614957884963 0 0 1 I I #
edge $-1 $598 -29.572259584471457 $596 29.572259584471457 $593 $682 forward 7 unknown #
vertex $-1 $434 $683 #
straight-curve $-1 -19.597024689959731 -29.572259584471457 4.3993229915769927 1 0 0 I I #
vertex $-1 $436 $684 #
straight-curve $-1 -19.597024689959731 29.572259584471457 4.3993229915769927 -1 0 0 I I #
point $-1 -35.6206803205555 29.572259584471457 4.3993229915769927 #
point $-1 -35.6206803205555 -29.572259584471457 4.3993229915769927 #
coedge $-1 $593 $440 $443 $605 forward $428 $-1 #
coedge $-1 $440 $593 $447 $607 reversed $428 $-1 #
straight-curve $-1 -42.767418439283425 0 7.3993229915769927 0 1 0 I I #
edge $-1 $445 -7.3993229915769927 $598 -4.3993229915769927 $443 $685 forward 7 unknown #
point $-1 -42.767418439283425 29.572259584471457 7.3993229915769927 #
edge $-1 $448 -7.3993229915769927 $596 -4.3993229915769927 $603 $686 forward 7 unknown #
point $-1 -42.767418439283425 -29.572259584471457 7.3993229915769927 #
straight-curve $-1 -35.6206803205555 29.572259584471457 2.9496614957884963 0 0 -1 I I #
plane-surface $-1 42.767418439283425 0 0 -1 0 0 0 0 1 forward_v I I I I #
coedge $-1 $457 $456 $472 $622 reversed $179 $-1 #
edge $-1 $615 -29.572259584471457 $613 29.572259584471457 $456 $687 forward 7 unknown #
vertex $-1 $464 $688 #
straight-curve $-1 35.620680320555493 29.572259584471457 2.9496614957884963 0 0 1 I I #
vertex $-1 $462 $689 #
straight-curve $-1 19.597024689959728 -29.572259584471457 4.3993229915769927 1 0 0 I I #
straight-curve $-1 19.597024689959728 29.572259584471457 4.3993229915769927 -1 0 0 I I #
point $-1 42.767418439283418 -29.572259584471457 4.3993229915769927 #
point $-1 42.767418439283418 29.572259584471457 4.3993229915769927 #
straight-curve $-1 35.620680320555493 0 7.3993229915769927 0 -1 0 I I #
point $-1 35.620680320555493 29.572259584471457 7.3993229915769927 #
edge $-1 $474 -4.4496614957884963 $615 -1.4496614957884963 $472 $690 forward 7 unknown #
point $-1 35.620680320555493 -29.572259584471457 7.3993229915769927 #
straight-curve $-1 42.767418439283425 -29.572259584471457 0 0 0 -1 I I #
straight-curve $-1 42.767418439283425 29.572259584471457 0 0 0 -1 I I #
coedge $-1 $491 $490 $483 $627 forward $480 $-1 #
edge $-1 $628 4.9754391033166847 $631 7.3161377689681082 $626 $691 forward 7 unknown #
vertex $-1 $627 $692 #
straight-curve $-1 -15.506248469022374 29.572259584471457 50.241670464327839 0 0 1 I I #
edge $-1 $631 -10.404102078979911 $492 0.19980929889498356 $491 $693 forward 7 unknown #
vertex $-1 $630 $694 #
straight-curve $-1 -15.506248469022374 -2.640153533139042 53.897730965211487 0 0.54463902268945019 -0.83867057594974714 I I #
point $-1 -15.506248469022374 29.572259584471453 4.2949630095233147 #
point $-1 -4.90233709114748 27.231560918820033 7.8993229915769945 #
straight-curve $-1 0 29.572259584471457 7.8993229915769927 -1 0 0 I I #
vertex $-1 $498 $695 #
point $-1 -9.704292780084927 27.563239675695986 5.5525039778606855 #
edge $-1 $639 4.9754391033166847 $642 7.3161377689681082 $503 $696 forward 7 unknown #
vertex $-1 $638 $697 #
straight-curve $-1 4.9023370911474942 29.572259584471457 50.241670464327839 0 0 1 I I #
edge $-1 $642 -0.19980929889497645 $514 10.404102078979918 $513 $698 forward 7 unknown #
vertex $-1 $641 $699 #
straight-curve $-1 4.9023370911474942 -2.640153533139042 53.897730965211487 0 0.54463902268945019 -0.83867057594974714 I I #
point $-1 4.9023370911474942 29.572259584471453 4.2949630095233147 #
point $-1 15.506248469022388 27.231560918820033 7.8993229915769945 #
straight-curve $-1 0 29.572259584471457 7.8993229915769927 -1 0 0 I I #
vertex $-1 $520 $700 #
point $-1 10.704292780084941 27.563239675695986 5.5525039778606855 #
coedge $-1 $651 $533 $527 $650 forward $524 $-1 #
edge $-1 $535 -18.187136215519665 $658 -9.1291074095942371 $649 $701 forward 7 unknown #
coedge $-1 $528 $649 $530 $653 forward $524 $-1 #
straight-curve $-1 -18.268222497721453 -38.701366994065694 7.8993229915769945 0 1 0 I I #
edge $-1 $658 -35.620680320555493 $531 -18.268222497721453 $530 $702 forward 7 unknown #
point $-1 -18.268222497721453 -29.572259584471457 7.8993229915769927 #
straight-curve $-1 -13.472225704569237 -20.514230778546029 7.8993229915769927 -1 0 0 I I #
point $-1 -35.620680320555493 -20.514230778546029 7.8993229915769918 #
point $-1 -18.268222497721453 -20.514230778546029 7.8993229915769918 #
vertex $-1 $653 $703 #
straight-curve $-1 -35.620680320555493 -29.572259584471457 36.35059920802113 0 0 -1 I I #
vertex $-1 $542 $704 #
point $-1 -29.662835228317199 -23.768366577919725 2.9543789245780294 #
vertex $-1 $546 $705 #
point $-1 -22.226067589959754 -23.768366577919725 2.9543789245780294 #
coedge $-1 $561 $560 $553 $665 forward $550 $-1 #
edge $-1 $666 9.1291074095942371 $669 18.187136215519665 $664 $706 forward 7 unknown #
vertex $-1 $665 $707 #
straight-curve $-1 17.352457822834047 -29.572259584471457 36.35059920802113 0 0 1 I I #
edge $-1 $669 -13.014343367125534 $562 4.3381144557085065 $561 $708 forward 7 unknown #
vertex $-1 $668 $709 #
straight-curve $-1 17.352457822834047 -29.572259584471453 1.7896053006434869 0 -0.82903756765294845 -0.55919291073839883 I I #
point $-1 17.352457822834047 -29.572259584471457 1.7896053006434844 #
point $-1 7.1054273576010019e-015 -20.514230778546029 7.8993229915769918 #
straight-curve $-1 0 -29.572259584471457 7.8993229915769927 1 0 0 I I #
vertex $-1 $568 $710 #
point $-1 5.9578450922383013 -23.768366577919725 2.9543789245780294 #
vertex $-1 $572 $711 #
point $-1 13.394612730595746 -23.768366577919725 2.9543789245780294 #
straight-curve $-1 -42.767418439283425 29.572259584471457 0 0 0 -1 I I #
point $-1 -42.767418439283425 -29.572259584471457 -7.8993229915769927 #
straight-curve $-1 -42.767418439283425 0 -7.8993229915769927 0 1 0 I I #
point $-1 -42.767418439283425 29.572259584471457 -7.8993229915769927 #
straight-curve $-1 -42.767418439283425 0 4.3993229915769927 0 -1 0 I I #
point $-1 -42.767418439283425 -29.572259584471457 4.3993229915769927 #
point $-1 -42.767418439283425 29.572259584471457 4.3993229915769927 #
straight-curve $-1 -42.767418439283425 29.572259584471457 0 0 0 -1 I I #
straight-curve $-1 -42.767418439283425 -29.572259584471457 0 0 0 -1 I I #
straight-curve $-1 35.620680320555493 0 4.3993229915769927 0 1 0 I I #
point $-1 35.620680320555493 29.572259584471457 4.3993229915769927 #
point $-1 35.620680320555493 -29.572259584471457 4.3993229915769927 #
straight-curve $-1 35.620680320555493 -29.572259584471457 2.9496614957884963 0 0 -1 I I #
straight-curve $-1 -15.506248469022374 34.547698687788142 7.8993229915769945 0 -1 0 I I #
point $-1 -15.506248469022374 29.572259584471457 7.8993229915769927 #
straight-curve $-1 -5.1021463900424635 27.231560918820033 7.8993229915769945 1 0 0 I I #
point $-1 -15.506248469022374 27.231560918820033 7.8993229915769945 #
point $-1 -10.204292780084927 27.143904387721111 5.2801844665159612 #
straight-curve $-1 4.9023370911474942 34.547698687788142 7.8993229915769945 0 -1 0 I I #
point $-1 4.9023370911474942 29.572259584471457 7.8993229915769927 #
straight-curve $-1 5.1021463900424706 27.231560918820033 7.8993229915769945 1 0 0 I I #
point $-1 4.9023370911474942 27.231560918820033 7.8993229915769945 #
point $-1 10.204292780084941 27.143904387721111 5.2801844665159612 #
straight-curve $-1 -35.620680320555493 -38.701366994065694 7.8993229915769945 0 -1 0 I I #
straight-curve $-1 0 -29.572259584471457 7.8993229915769927 1 0 0 I I #
point $-1 -35.620680320555493 -29.572259584471457 7.8993229915769927 #
point $-1 -30.662835228317199 -23.209173667181329 2.1253413569250812 #
point $-1 -23.226067589959754 -23.209173667181329 2.1253413569250812 #
straight-curve $-1 17.352457822834047 -38.701366994065694 7.8993229915769945 0 1 0 I I #
point $-1 17.352457822834047 -29.572259584471457 7.8993229915769927 #
straight-curve $-1 4.3381144557085136 -20.514230778546029 7.8993229915769927 -1 0 0 I I #
point $-1 17.352457822834047 -20.514230778546029 7.8993229915769918 #
point $-1 4.9578450922383013 -23.209173667181329 2.1253413569250812 #
point $-1 12.394612730595746 -23.209173667181329 2.1253413569250812 #
End-of-ACIS-data 