500 0 10 0           
7 Unknown 11 ACIS 5.0 NT 24 Thu Mar 25 15:54:00 1999 
-1 9.9999999999999995e-007 1e-010 
body $-1 $10 $-1 $11 #
body $-1 $12 $-1 $13 #
body $-1 $14 $-1 $15 #
body $-1 $16 $-1 $17 #
body $-1 $18 $-1 $19 #
body $-1 $20 $-1 $21 #
body $-1 $22 $-1 $23 #
body $-1 $24 $-1 $25 #
body $-1 $26 $-1 $27 #
body $-1 $28 $-1 $29 #
lump $-1 $-1 $30 $0 #
transform $-1 1 0 0 0 1 0 0 0 1 54.91988891262551 35.57632868615952 9.0767573417247114 1 rotate no_reflect no_shear #
lump $-1 $-1 $31 $1 #
transform $-1 1 0 0 0 1 0 0 0 1 54.91988891262551 35.57632868615952 9.0767573417247114 1 rotate no_reflect no_shear #
lump $-1 $-1 $32 $2 #
transform $-1 1 0 0 0 1 0 0 0 1 54.91988891262551 35.57632868615952 9.0767573417247114 1 rotate no_reflect no_shear #
lump $-1 $-1 $33 $3 #
transform $-1 1 0 0 0 1 0 0 0 1 54.91988891262551 35.57632868615952 9.0767573417247114 1 rotate no_reflect no_shear #
lump $-1 $-1 $34 $4 #
transform $-1 1 0 0 0 1 0 0 0 1 54.91988891262551 35.57632868615952 9.0767573417247114 1 rotate no_reflect no_shear #
lump $-1 $-1 $35 $5 #
transform $-1 1 0 0 0 1 0 0 0 1 54.91988891262551 35.57632868615952 9.0767573417247114 1 rotate no_reflect no_shear #
lump $-1 $-1 $36 $6 #
transform $-1 1 0 0 0 1 0 0 0 1 54.91988891262551 35.57632868615952 9.0767573417247114 1 rotate no_reflect no_shear #
lump $-1 $-1 $37 $7 #
transform $-1 1 0 0 0 1 0 0 0 1 54.91988891262551 35.57632868615952 9.0767573417247114 1 rotate no_reflect no_shear #
lump $-1 $-1 $38 $8 #
transform $-1 1 0 0 0 1 0 0 0 1 54.91988891262551 35.57632868615952 9.0767573417247114 1 rotate no_reflect no_shear #
lump $-1 $-1 $39 $9 #
transform $-1 1 0 0 0 1 0 0 0 1 54.91988891262551 35.57632868615952 9.0767573417247114 1 rotate no_reflect no_shear #
shell $-1 $-1 $-1 $40 $-1 $10 #
shell $-1 $-1 $-1 $41 $-1 $12 #
shell $-1 $-1 $-1 $42 $-1 $14 #
shell $-1 $-1 $-1 $43 $-1 $16 #
shell $-1 $-1 $-1 $44 $-1 $18 #
shell $-1 $-1 $-1 $45 $-1 $20 #
shell $-1 $-1 $-1 $46 $-1 $22 #
shell $-1 $-1 $-1 $47 $-1 $24 #
shell $-1 $-1 $-1 $48 $-1 $26 #
shell $-1 $-1 $-1 $49 $-1 $28 #
face $-1 $50 $51 $30 $-1 $52 forward single #
face $-1 $53 $54 $31 $-1 $55 reversed single #
face $-1 $56 $57 $32 $-1 $58 reversed single #
face $-1 $59 $60 $33 $-1 $61 reversed single #
face $-1 $62 $63 $34 $-1 $64 forward single #
face $-1 $65 $66 $35 $-1 $67 forward single #
face $-1 $68 $69 $36 $-1 $70 reversed single #
face $-1 $71 $72 $37 $-1 $73 forward single #
face $-1 $74 $75 $38 $-1 $76 forward single #
face $-1 $77 $78 $39 $-1 $79 forward single #
face $-1 $80 $81 $30 $-1 $82 reversed single #
loop $-1 $-1 $83 $40 #
plane-surface $-1 0 0 9.0767573417247114 0 0 1 1 0 0 forward_v I I I I #
face $-1 $84 $85 $31 $-1 $86 reversed single #
loop $-1 $-1 $87 $41 #
plane-surface $-1 -43.73465734576709 -29.665563806669375 0 1 0 0 0 0 -1 forward_v I I I I #
face $-1 $88 $89 $32 $-1 $90 reversed single #
loop $-1 $-1 $91 $42 #
plane-surface $-1 -42.018946052470774 23.75479892717923 0 0 1 0 0 0 1 forward_v I I I I #
face $-1 $92 $93 $33 $-1 $94 reversed single #
loop $-1 $-1 $95 $43 #
plane-surface $-1 -135.25161791793266 7.5710928125063148 78.826770548277224 0 1 0 -0.73135370988377701 0 0.68199835119979291 forward_v I I I I #
face $-1 $96 $97 $34 $-1 $98 forward single #
loop $-1 $99 $100 $44 #
cone-surface $-1 -51.418215853184002 11.233954552410971 5.4748872411155176 0.73135370988377701 0 -0.68199835119979291 0.68199835119979291 0 0.73135370988377701 1 I I 0 1 1 forward I I I I #
face $-1 $101 $102 $35 $-1 $103 forward single #
loop $-1 $104 $105 $45 #
cone-surface $-1 -51.418215853184002 16.728247162267955 5.4748872411155176 0.73135370988377701 0 -0.68199835119979291 0.68199835119979291 0 0.73135370988377701 1 I I 0 1 1 forward I I I I #
face $-1 $106 $107 $36 $-1 $108 reversed single #
loop $-1 $-1 $109 $46 #
plane-surface $-1 89.86309139431134 15.894356226513114 153.85146242585262 0 -1 0 -0.84804810408105047 0 -0.52991925155115449 forward_v I I I I #
face $-1 $110 $111 $37 $-1 $112 forward single #
loop $-1 $113 $114 $47 #
cone-surface $-1 52.252836112549289 9.305506153566597 5.4045354377363886 -0.84804810408105047 0 -0.52991925155115449 0.26495962577557725 0 -0.42402405204052523 1 I I 0 1 0.5 forward I I I I #
face $-1 $115 $116 $38 $-1 $117 forward single #
loop $-1 $118 $119 $48 #
cone-surface $-1 52.252836112549289 11.77632493092154 5.4045354377363886 -0.84804810408105047 0 -0.52991925155115449 0.26495962577557725 0 -0.42402405204052523 1 I I 0 1 0.5 forward I I I I #
face $-1 $120 $121 $39 $-1 $122 forward single #
loop $-1 $123 $124 $49 #
cone-surface $-1 52.252836112549289 14.247143708276482 5.4045354377363886 -0.84804810408105047 0 -0.52991925155115449 0.26495962577557725 0 -0.42402405204052523 1 I I 0 1 0.5 forward I I I I #
face $-1 $125 $126 $30 $-1 $127 reversed single #
loop $-1 $-1 $128 $50 #
plane-surface $-1 0 0 -9.0767573417247114 0 0 1 1 0 0 forward_v I I I I #
coedge $-1 $129 $130 $131 $132 forward $51 $-1 #
face $-1 $133 $134 $31 $-1 $135 reversed single #
loop $-1 $-1 $136 $53 #
plane-surface $-1 -42.018946052470774 -23.75479892717923 0 0 -1 0 0 0 -1 forward_v I I I I #
coedge $-1 $137 $138 $139 $140 forward $54 $-1 #
face $-1 $141 $142 $32 $-1 $143 reversed single #
loop $-1 $-1 $144 $56 #
plane-surface $-1 -43.73465734576709 29.665563806669375 0 1 0 0 0 0 -1 forward_v I I I I #
coedge $-1 $145 $146 $147 $148 forward $57 $-1 #
face $-1 $149 $150 $33 $-1 $151 reversed single #
loop $-1 $-1 $152 $59 #
plane-surface $-1 -54.91988891262551 13.981100857339463 3.9162231753044523 -0.73135370988377701 0 0.68199835119979291 0.68199835119979291 0 0.73135370988377701 forward_v I I I I #
coedge $-1 $153 $154 $155 $156 reversed $60 $-1 #
face $-1 $-1 $157 $34 $-1 $158 forward single #
loop $-1 $159 $160 $62 #
cone-surface $-1 -49.957003861699846 11.233954552410971 4.1122850481165596 0.73135370988377701 0 -0.68199835119979291 0.34099917559989645 0 0.36567685494188851 1 I I -0.70710678118654746 0.70710678118654746 0.5 forward I I I I #
loop $-1 $-1 $161 $44 #
coedge $-1 $100 $100 $162 $163 reversed $63 $-1 #
face $-1 $-1 $164 $35 $-1 $165 forward single #
loop $-1 $166 $167 $65 #
cone-surface $-1 -49.957003861699846 16.728247162267955 4.1122850481165596 0.73135370988377701 0 -0.68199835119979291 0.34099917559989645 0 0.36567685494188851 1 I I -0.70710678118654746 0.70710678118654746 0.5 forward I I I I #
loop $-1 $-1 $168 $45 #
coedge $-1 $105 $105 $169 $170 reversed $66 $-1 #
face $-1 $171 $172 $36 $-1 $173 reversed single #
loop $-1 $-1 $174 $68 #
plane-surface $-1 -3.2863239430765958 11.77632493092154 95.645249570150497 0.84804810408105047 0 0.52991925155115449 0.52991925155115449 0 -0.84804810408105047 forward_v I I I I #
coedge $-1 $175 $176 $177 $178 reversed $69 $-1 #
face $-1 $-1 $179 $37 $-1 $180 forward single #
loop $-1 $181 $182 $71 #
cone-surface $-1 51.429879797063677 9.305506153566597 4.8902952753413622 -0.84804810408105047 0 -0.52991925155115449 0.13247981288778862 0 -0.21201202602026262 1 I I -0.70710678118654746 0.70710678118654746 0.25 forward I I I I #
loop $-1 $-1 $183 $47 #
coedge $-1 $114 $114 $184 $185 reversed $72 $-1 #
face $-1 $-1 $186 $38 $-1 $187 forward single #
loop $-1 $188 $189 $74 #
cone-surface $-1 51.429879797063677 11.77632493092154 4.8902952753413622 -0.84804810408105047 0 -0.52991925155115449 0.13247981288778862 0 -0.21201202602026262 1 I I -0.70710678118654746 0.70710678118654746 0.25 forward I I I I #
loop $-1 $-1 $190 $48 #
coedge $-1 $119 $119 $191 $192 reversed $75 $-1 #
face $-1 $-1 $193 $39 $-1 $194 forward single #
loop $-1 $195 $196 $77 #
cone-surface $-1 51.429879797063677 14.247143708276482 4.8902952753413622 -0.84804810408105047 0 -0.52991925155115449 0.13247981288778862 0 -0.21201202602026262 1 I I -0.70710678118654746 0.70710678118654746 0.25 forward I I I I #
loop $-1 $-1 $197 $49 #
coedge $-1 $124 $124 $198 $199 reversed $78 $-1 #
face $-1 $200 $201 $30 $-1 $202 reversed single #
loop $-1 $-1 $203 $80 #
plane-surface $-1 0 -35.57632868615952 0 0 1 0 0 0 1 forward_v I I I I #
coedge $-1 $204 $205 $206 $207 forward $81 $-1 #
coedge $-1 $208 $83 $209 $210 forward $51 $-1 #
coedge $-1 $83 $208 $211 $212 forward $51 $-1 #
coedge $-1 $213 $214 $83 $132 reversed $215 $-1 #
edge $-1 $216 -35.57632868615952 $217 35.57632868615952 $131 $218 forward 7 unknown #
face $-1 $219 $220 $31 $-1 $221 forward single #
loop $-1 $-1 $222 $84 #
plane-surface $-1 -40.303234759174458 -29.665563806669375 0 -1 0 0 0 0 1 forward_v I I I I #
coedge $-1 $223 $224 $225 $226 forward $85 $-1 #
coedge $-1 $227 $87 $228 $229 reversed $54 $-1 #
coedge $-1 $87 $227 $230 $231 reversed $54 $-1 #
coedge $-1 $224 $223 $87 $140 reversed $85 $-1 #
edge $-1 $232 -9.0767573417247114 $233 9.0767573417247114 $139 $234 forward 7 unknown #
face $-1 $235 $236 $32 $-1 $237 reversed single #
loop $-1 $-1 $238 $88 #
plane-surface $-1 -40.303234759174458 29.665563806669375 0 -1 0 0 0 0 1 forward_v I I I I #
coedge $-1 $239 $240 $241 $242 reversed $89 $-1 #
coedge $-1 $243 $91 $244 $245 reversed $57 $-1 #
coedge $-1 $91 $243 $246 $247 reversed $57 $-1 #
coedge $-1 $240 $239 $91 $148 reversed $89 $-1 #
edge $-1 $248 -9.0767573417247114 $249 9.0767573417247114 $147 $250 forward 7 unknown #
face $-1 $251 $252 $33 $-1 $253 reversed single #
loop $-1 $-1 $254 $92 #
plane-surface $-1 -135.25161791793266 20.391108902172611 78.826770548277224 0 -1 0 0.73135370988377701 0 -0.68199835119979291 forward_v I I I I #
coedge $-1 $255 $256 $257 $258 reversed $93 $-1 #
coedge $-1 $154 $95 $259 $260 reversed $60 $-1 #
coedge $-1 $95 $153 $255 $261 reversed $60 $-1 #
coedge $-1 $257 $262 $95 $156 forward $263 $-1 #
edge $-1 $264 12.705920046340822 $265 17.51819589213931 $155 $266 forward 7 unknown #
loop $-1 $-1 $162 $96 #
plane-surface $-1 -54.91988891262551 13.981100857339463 3.9162231753044523 -0.73135370988377701 0 0.68199835119979291 0.68199835119979291 0 0.73135370988377701 forward_v I I I I #
loop $-1 $-1 $267 $62 #
coedge $-1 $160 $160 $161 $268 reversed $97 $-1 #
coedge $-1 $161 $161 $160 $268 forward $99 $-1 #
coedge $-1 $162 $162 $100 $163 forward $157 $-1 #
edge $-1 $269 0 $269 6.2831853071796004 $162 $270 forward 7 unknown #
loop $-1 $-1 $169 $101 #
plane-surface $-1 -54.91988891262551 13.981100857339463 3.9162231753044523 -0.73135370988377701 0 0.68199835119979291 0.68199835119979291 0 0.73135370988377701 forward_v I I I I #
loop $-1 $-1 $271 $65 #
coedge $-1 $167 $167 $168 $272 reversed $102 $-1 #
coedge $-1 $168 $168 $167 $272 forward $104 $-1 #
coedge $-1 $169 $169 $105 $170 forward $164 $-1 #
edge $-1 $273 0 $273 6.2831853071796004 $169 $274 forward 7 unknown #
face $-1 $275 $276 $36 $-1 $277 forward single #
loop $-1 $-1 $278 $106 #
plane-surface $-1 89.86309139431134 7.6582936353299651 153.85146242585262 0 1 0 0.84804810408105047 0 0.52991925155115449 forward_v I I I I #
coedge $-1 $279 $280 $281 $282 reversed $107 $-1 #
coedge $-1 $176 $109 $283 $284 reversed $69 $-1 #
coedge $-1 $109 $175 $279 $285 reversed $69 $-1 #
coedge $-1 $281 $286 $109 $178 forward $276 $-1 #
edge $-1 $287 -9.9883432154698397 $288 -5.8761261942481084 $177 $289 forward 7 unknown #
loop $-1 $-1 $184 $110 #
plane-surface $-1 -3.2863239430765958 11.77632493092154 95.645249570150497 0.84804810408105047 0 0.52991925155115449 0.52991925155115449 0 -0.84804810408105047 forward_v I I I I #
loop $-1 $-1 $290 $71 #
coedge $-1 $182 $182 $183 $291 reversed $111 $-1 #
coedge $-1 $183 $183 $182 $291 forward $113 $-1 #
coedge $-1 $184 $184 $114 $185 forward $179 $-1 #
edge $-1 $292 0 $292 6.2831853071796004 $184 $293 forward 7 unknown #
loop $-1 $-1 $191 $115 #
plane-surface $-1 -3.2863239430765958 11.77632493092154 95.645249570150497 0.84804810408105047 0 0.52991925155115449 0.52991925155115449 0 -0.84804810408105047 forward_v I I I I #
loop $-1 $-1 $294 $74 #
coedge $-1 $189 $189 $190 $295 reversed $116 $-1 #
coedge $-1 $190 $190 $189 $295 forward $118 $-1 #
coedge $-1 $191 $191 $119 $192 forward $186 $-1 #
edge $-1 $296 0 $296 6.2831853071796004 $191 $297 forward 7 unknown #
loop $-1 $-1 $198 $120 #
plane-surface $-1 -3.2863239430765958 11.77632493092154 95.645249570150497 0.84804810408105047 0 0.52991925155115449 0.52991925155115449 0 -0.84804810408105047 forward_v I I I I #
loop $-1 $-1 $298 $77 #
coedge $-1 $196 $196 $197 $299 reversed $121 $-1 #
coedge $-1 $197 $197 $196 $299 forward $123 $-1 #
coedge $-1 $198 $198 $124 $199 forward $193 $-1 #
edge $-1 $300 0 $300 6.2831853071796004 $198 $301 forward 7 unknown #
face $-1 $302 $303 $30 $-1 $304 reversed single #
loop $-1 $-1 $305 $125 #
plane-surface $-1 -54.91988891262551 0 0 1 0 0 0 0 -1 forward_v I I I I #
coedge $-1 $306 $211 $307 $308 forward $126 $-1 #
coedge $-1 $309 $128 $306 $310 forward $81 $-1 #
coedge $-1 $128 $309 $311 $312 forward $81 $-1 #
coedge $-1 $214 $213 $128 $207 reversed $215 $-1 #
edge $-1 $313 -35.57632868615952 $314 35.57632868615952 $206 $315 forward 7 unknown #
coedge $-1 $130 $129 $316 $317 forward $51 $-1 #
coedge $-1 $318 $319 $129 $210 reversed $303 $-1 #
edge $-1 $217 -54.91988891262551 $320 54.91988891262551 $209 $321 forward 7 unknown #
coedge $-1 $203 $322 $130 $212 reversed $126 $-1 #
edge $-1 $323 -54.91988891262551 $216 54.91988891262551 $211 $324 forward 7 unknown #
coedge $-1 $206 $131 $322 $325 forward $215 $-1 #
coedge $-1 $131 $206 $318 $326 reversed $215 $-1 #
loop $-1 $-1 $213 $302 #
vertex $-1 $132 $327 #
vertex $-1 $132 $328 #
straight-curve $-1 54.91988891262551 0 9.0767573417247114 0 1 0 I I #
face $-1 $329 $330 $31 $-1 $331 reversed single #
loop $-1 $-1 $332 $133 #
plane-surface $-1 0 0 9.0767573417247114 0 0 1 1 0 0 forward_v I I I I #
coedge $-1 $333 $334 $335 $336 reversed $134 $-1 #
coedge $-1 $139 $136 $337 $338 reversed $85 $-1 #
coedge $-1 $136 $139 $339 $340 reversed $85 $-1 #
coedge $-1 $334 $333 $136 $226 reversed $134 $-1 #
edge $-1 $341 -9.0767573417247114 $342 9.0767573417247114 $225 $343 forward 7 unknown #
coedge $-1 $138 $137 $344 $345 reversed $54 $-1 #
coedge $-1 $337 $346 $137 $229 forward $330 $-1 #
edge $-1 $347 -20.743546782824833 $233 -8.9220170238445426 $228 $348 forward 7 unknown #
coedge $-1 $349 $339 $138 $231 forward $220 $-1 #
edge $-1 $232 8.9220170238445426 $350 20.743546782824833 $230 $351 forward 7 unknown #
vertex $-1 $231 $352 #
vertex $-1 $229 $353 #
straight-curve $-1 -43.73465734576709 -23.75479892717923 0 0 0 -1 I I #
face $-1 $354 $355 $32 $-1 $356 forward single #
loop $-1 $-1 $357 $141 #
plane-surface $-1 0 0 -9.0767573417247114 0 0 1 1 0 0 forward_v I I I I #
coedge $-1 $358 $359 $243 $360 forward $142 $-1 #
coedge $-1 $147 $144 $361 $362 reversed $89 $-1 #
coedge $-1 $144 $147 $363 $364 reversed $89 $-1 #
coedge $-1 $365 $366 $144 $242 forward $367 $-1 #
edge $-1 $368 -9.0767573417247114 $369 9.0767573417247114 $241 $370 forward 7 unknown #
coedge $-1 $146 $145 $238 $360 reversed $57 $-1 #
coedge $-1 $361 $357 $145 $245 forward $236 $-1 #
edge $-1 $371 19.293761732939071 $249 22.725184319531703 $244 $372 forward 7 unknown #
coedge $-1 $373 $363 $146 $247 forward $355 $-1 #
edge $-1 $248 -22.725184319531703 $374 -19.293761732939071 $246 $375 forward 7 unknown #
vertex $-1 $247 $376 #
vertex $-1 $245 $377 #
straight-curve $-1 -43.73465734576709 23.75479892717923 0 0 0 -1 I I #
face $-1 $-1 $263 $33 $-1 $378 forward single #
loop $-1 $-1 $379 $149 #
plane-surface $-1 -54.91988891262551 0 0 1 0 0 0 0 -1 forward_v I I I I #
coedge $-1 $380 $381 $382 $383 reversed $150 $-1 #
coedge $-1 $384 $152 $154 $261 forward $93 $-1 #
coedge $-1 $152 $384 $380 $385 forward $93 $-1 #
coedge $-1 $382 $155 $152 $258 forward $263 $-1 #
edge $-1 $265 0.5805423838365833 $386 13.40055847350288 $257 $387 forward 7 unknown #
coedge $-1 $388 $389 $153 $260 forward $252 $-1 #
edge $-1 $390 -35.49716209883416 $264 -30.336627932413901 $259 $391 forward 7 unknown #
edge $-1 $265 -7.0561399999465992 $390 0 $154 $392 forward 7 unknown #
coedge $-1 $155 $382 $388 $393 forward $263 $-1 #
loop $-1 $-1 $382 $251 #
vertex $-1 $260 $394 #
vertex $-1 $156 $395 #
straight-curve $-1 -67.625808958966331 7.5710928125063148 9.0767573417247078 1 0 0 I I #
coedge $-1 $267 $267 $-1 $396 reversed $159 $-1 #
edge $-1 $397 0 $397 6.2831853071796004 $160 $398 forward 7 unknown #
vertex $-1 $163 $399 #
ellipse-curve $-1 -52.513750989726269 11.233954552410971 6.4964902585145801 -0.73135370988377701 0 0.68199835119979291 0.68199835119979291 0 0.73135370988377701 1 I I #
coedge $-1 $271 $271 $-1 $400 reversed $166 $-1 #
edge $-1 $401 0 $401 6.2831853071796004 $167 $402 forward 7 unknown #
vertex $-1 $170 $403 #
ellipse-curve $-1 -52.513750989726269 16.728247162267955 6.4964902585145801 -0.73135370988377701 0 0.68199835119979291 0.68199835119979291 0 0.73135370988377701 1 I I #
face $-1 $-1 $404 $36 $-1 $405 reversed single #
loop $-1 $-1 $177 $171 #
plane-surface $-1 0 0 9.0767573417247114 0 0 1 1 0 0 forward_v I I I I #
coedge $-1 $406 $407 $408 $409 reversed $172 $-1 #
coedge $-1 $410 $174 $176 $285 forward $107 $-1 #
coedge $-1 $174 $410 $406 $411 forward $107 $-1 #
coedge $-1 $408 $177 $174 $282 forward $276 $-1 #
edge $-1 $288 -10.006193761052344 $412 -1.7701311698691953 $281 $413 forward 7 unknown #
coedge $-1 $414 $415 $175 $284 forward $404 $-1 #
edge $-1 $416 -74.429896980163733 $287 -67.848973871201594 $283 $417 forward 7 unknown #
edge $-1 $288 102.07969549349075 $416 109.83977782525099 $176 $418 forward 7 unknown #
coedge $-1 $177 $408 $414 $419 forward $276 $-1 #
vertex $-1 $178 $420 #
vertex $-1 $178 $421 #
straight-curve $-1 44.93154569715567 15.894356226513114 9.0767573417247149 -1 0 0 I I #
coedge $-1 $290 $290 $-1 $422 reversed $181 $-1 #
edge $-1 $423 0 $423 6.2831853071796004 $182 $424 forward 7 unknown #
vertex $-1 $185 $425 #
ellipse-curve $-1 52.863780402014655 9.305506153566597 5.7862957872436347 0.84804810408105047 0 0.52991925155115449 0.26495962577557725 0 -0.42402405204052523 1 I I #
coedge $-1 $294 $294 $-1 $426 reversed $188 $-1 #
edge $-1 $427 0 $427 6.2831853071796004 $189 $428 forward 7 unknown #
vertex $-1 $192 $429 #
ellipse-curve $-1 52.863780402014655 11.77632493092154 5.7862957872436347 0.84804810408105047 0 0.52991925155115449 0.26495962577557725 0 -0.42402405204052523 1 I I #
coedge $-1 $298 $298 $-1 $430 reversed $195 $-1 #
edge $-1 $431 0 $431 6.2831853071796004 $196 $432 forward 7 unknown #
vertex $-1 $199 $433 #
ellipse-curve $-1 52.863780402014655 14.247143708276482 5.7862957872436347 0.84804810408105047 0 0.52991925155115449 0.26495962577557725 0 -0.42402405204052523 1 I I #
face $-1 $-1 $215 $30 $-1 $434 reversed single #
loop $-1 $-1 $318 $200 #
plane-surface $-1 0 35.57632868615952 0 0 -1 0 0 0 -1 forward_v I I I I #
coedge $-1 $435 $316 $319 $436 forward $201 $-1 #
coedge $-1 $322 $203 $204 $310 reversed $126 $-1 #
coedge $-1 $316 $435 $203 $308 reversed $201 $-1 #
edge $-1 $323 -9.0767573417247114 $437 9.0767573417247114 $307 $438 forward 7 unknown #
coedge $-1 $205 $204 $435 $439 forward $81 $-1 #
edge $-1 $314 -54.91988891262551 $437 54.91988891262551 $306 $440 forward 7 unknown #
coedge $-1 $319 $318 $205 $312 reversed $303 $-1 #
edge $-1 $441 -54.91988891262551 $313 54.91988891262551 $311 $442 forward 7 unknown #
vertex $-1 $207 $443 #
vertex $-1 $325 $444 #
straight-curve $-1 54.91988891262551 0 -9.0767573417247114 0 -1 0 I I #
coedge $-1 $305 $307 $208 $317 reversed $201 $-1 #
edge $-1 $320 -35.57632868615952 $323 35.57632868615952 $316 $445 forward 7 unknown #
coedge $-1 $311 $209 $214 $326 forward $303 $-1 #
coedge $-1 $209 $311 $305 $436 reversed $303 $-1 #
vertex $-1 $210 $446 #
straight-curve $-1 0 35.57632868615952 9.0767573417247114 -1 0 0 I I #
coedge $-1 $211 $306 $213 $325 reversed $126 $-1 #
vertex $-1 $317 $447 #
straight-curve $-1 0 -35.57632868615952 9.0767573417247114 1 0 0 I I #
edge $-1 $216 -9.0767573417247114 $314 9.0767573417247114 $213 $448 forward 7 unknown #
edge $-1 $217 -9.0767573417247114 $313 9.0767573417247114 $214 $449 forward 7 unknown #
point $-1 54.91988891262551 -35.57632868615952 9.0767573417247114 #
point $-1 54.91988891262551 35.57632868615952 9.0767573417247114 #
face $-1 $-1 $450 $31 $-1 $451 reversed single #
loop $-1 $-1 $452 $219 #
plane-surface $-1 0 0 -9.0767573417247114 0 0 1 1 0 0 forward_v I I I I #
coedge $-1 $339 $349 $334 $453 forward $220 $-1 #
coedge $-1 $225 $222 $452 $454 reversed $134 $-1 #
coedge $-1 $222 $225 $332 $453 reversed $134 $-1 #
coedge $-1 $455 $456 $222 $336 forward $450 $-1 #
edge $-1 $457 -9.0767573417247114 $458 9.0767573417247114 $335 $459 forward 7 unknown #
coedge $-1 $452 $228 $223 $338 forward $330 $-1 #
edge $-1 $233 -22.725184319531703 $342 -19.293761732939071 $337 $460 forward 7 unknown #
coedge $-1 $230 $332 $224 $340 forward $220 $-1 #
edge $-1 $341 19.293761732939071 $232 22.725184319531703 $339 $461 forward 7 unknown #
vertex $-1 $340 $462 #
vertex $-1 $338 $463 #
straight-curve $-1 -40.303234759174458 -23.75479892717923 0 0 0 -1 I I #
coedge $-1 $456 $455 $227 $345 forward $450 $-1 #
edge $-1 $350 -9.0767573417247114 $347 9.0767573417247114 $344 $464 forward 7 unknown #
coedge $-1 $228 $452 $456 $465 forward $330 $-1 #
vertex $-1 $229 $466 #
straight-curve $-1 -43.73465734576709 -14.832781903334688 -9.0767573417247114 0 1 0 I I #
coedge $-1 $332 $230 $455 $467 forward $220 $-1 #
vertex $-1 $467 $468 #
straight-curve $-1 -43.73465734576709 -14.832781903334688 9.0767573417247114 0 -1 0 I I #
point $-1 -43.73465734576709 -23.75479892717923 9.0767573417247114 #
point $-1 -43.73465734576709 -23.75479892717923 -9.0767573417247114 #
face $-1 $-1 $367 $32 $-1 $469 reversed single #
loop $-1 $-1 $373 $235 #
plane-surface $-1 0 0 9.0767573417247114 0 0 1 1 0 0 forward_v I I I I #
coedge $-1 $244 $470 $358 $471 forward $236 $-1 #
coedge $-1 $472 $238 $357 $471 reversed $142 $-1 #
coedge $-1 $238 $472 $373 $473 reversed $142 $-1 #
edge $-1 $374 -9.0767573417247114 $371 9.0767573417247114 $238 $474 forward 7 unknown #
coedge $-1 $470 $244 $239 $362 forward $236 $-1 #
edge $-1 $249 8.9220170238445426 $368 20.743546782824833 $361 $475 forward 7 unknown #
coedge $-1 $246 $476 $240 $364 forward $355 $-1 #
edge $-1 $369 -20.743546782824833 $248 -8.9220170238445426 $363 $477 forward 7 unknown #
coedge $-1 $478 $241 $476 $479 reversed $367 $-1 #
coedge $-1 $241 $478 $470 $480 reversed $367 $-1 #
loop $-1 $-1 $478 $354 #
vertex $-1 $480 $481 #
vertex $-1 $242 $482 #
straight-curve $-1 -43.73465734576709 35.57632868615952 0 0 0 1 I I #
vertex $-1 $245 $483 #
straight-curve $-1 -21.009473026235387 23.75479892717923 -9.0767573417247114 -1 0 0 I I #
coedge $-1 $476 $246 $359 $473 forward $355 $-1 #
vertex $-1 $247 $484 #
straight-curve $-1 -21.009473026235387 23.75479892717923 9.0767573417247114 1 0 0 I I #
point $-1 -43.73465734576709 23.75479892717923 9.0767573417247114 #
point $-1 -43.73465734576709 23.75479892717923 -9.0767573417247114 #
plane-surface $-1 0 0 9.0767573417247114 0 0 1 1 0 0 forward_v I I I I #
coedge $-1 $389 $388 $381 $485 forward $252 $-1 #
coedge $-1 $381 $254 $256 $385 reversed $150 $-1 #
coedge $-1 $254 $380 $379 $485 reversed $150 $-1 #
coedge $-1 $262 $257 $254 $383 forward $263 $-1 #
edge $-1 $386 -17.51819589213931 $486 -12.705920046340822 $382 $487 forward 7 unknown #
coedge $-1 $256 $255 $389 $488 reversed $93 $-1 #
edge $-1 $489 0 $386 7.0561399999465992 $380 $490 forward 7 unknown #
vertex $-1 $258 $491 #
straight-curve $-1 -50.107613066827021 6.9905504286697315 9.0767573417247114 0 1 0 I I #
coedge $-1 $379 $259 $262 $393 reversed $252 $-1 #
coedge $-1 $259 $379 $384 $488 forward $252 $-1 #
vertex $-1 $260 $492 #
straight-curve $-1 -54.91988891262551 7.5710928125063148 39.413385274138612 0 0 1 I I #
straight-curve $-1 -54.91988891262551 7.5710928125063148 3.9162231753044523 -0.68199835119979291 0 -0.73135370988377701 I I #
edge $-1 $486 -20.391108902172611 $264 -7.5710928125063148 $388 $493 forward 7 unknown #
point $-1 -54.91988891262551 7.5710928125063148 9.0767573417247114 #
point $-1 -50.107613066827021 7.5710928125063148 9.0767573417247114 #
edge $-1 $494 1 $494 0 $267 $-1 forward 7 unknown #
vertex $-1 $268 $495 #
ellipse-curve $-1 -50.322680716641734 11.233954552410971 4.453284223716456 -0.73135370988377701 0 0.68199835119979291 0.68199835119979291 0 0.73135370988377701 1 I I #
point $-1 -51.831752638526467 11.233954552410971 7.2278439683983553 #
edge $-1 $496 1 $496 0 $271 $-1 forward 7 unknown #
vertex $-1 $272 $497 #
ellipse-curve $-1 -50.322680716641734 16.728247162267955 4.453284223716456 -0.73135370988377701 0 0.68199835119979291 0.68199835119979291 0 0.73135370988377701 1 I I #
point $-1 -51.831752638526467 16.728247162267955 7.2278439683983553 #
loop $-1 $-1 $283 $275 #
plane-surface $-1 54.91988891262551 0 0 -1 0 0 0 0 1 forward_v I I I I #
coedge $-1 $407 $278 $280 $411 reversed $172 $-1 #
coedge $-1 $278 $406 $498 $499 reversed $172 $-1 #
coedge $-1 $286 $281 $278 $409 forward $276 $-1 #
edge $-1 $412 5.8761261942481084 $500 9.9883432154698397 $408 $501 forward 7 unknown #
coedge $-1 $280 $279 $415 $502 reversed $107 $-1 #
edge $-1 $503 -109.83977782525099 $412 -102.07969549349075 $406 $504 forward 7 unknown #
vertex $-1 $282 $505 #
straight-curve $-1 50.807671891403778 5.8881624654607698 9.076757341724722 0 -1 0 I I #
coedge $-1 $498 $283 $286 $419 reversed $404 $-1 #
coedge $-1 $283 $498 $410 $502 forward $404 $-1 #
vertex $-1 $284 $506 #
straight-curve $-1 54.91988891262551 15.894356226513114 76.925731212926308 0 0 1 I I #
straight-curve $-1 -3.2863239430765958 15.894356226513114 95.645249570150497 0.52991925155115449 0 -0.84804810408105047 I I #
edge $-1 $500 7.6582936353299651 $287 15.894356226513114 $414 $507 forward 7 unknown #
point $-1 54.91988891262551 15.894356226513114 9.0767573417247114 #
point $-1 50.807671891403778 15.894356226513114 9.0767573417247149 #
edge $-1 $508 1 $508 0 $290 $-1 forward 7 unknown #
vertex $-1 $291 $509 #
ellipse-curve $-1 51.641891823083938 9.305506153566597 5.0227750882291504 0.84804810408105047 0 0.52991925155115449 0.26495962577557725 0 -0.42402405204052523 1 I I #
point $-1 53.128740027790222 9.305506153566597 5.3622717352031009 #
edge $-1 $510 1 $510 0 $294 $-1 forward 7 unknown #
vertex $-1 $295 $511 #
ellipse-curve $-1 51.641891823083938 11.77632493092154 5.0227750882291504 0.84804810408105047 0 0.52991925155115449 0.26495962577557725 0 -0.42402405204052523 1 I I #
point $-1 53.128740027790222 11.77632493092154 5.3622717352031009 #
edge $-1 $512 1 $512 0 $298 $-1 forward 7 unknown #
vertex $-1 $299 $513 #
ellipse-curve $-1 51.641891823083938 14.247143708276482 5.0227750882291504 0.84804810408105047 0 0.52991925155115449 0.26495962577557725 0 -0.42402405204052523 1 I I #
point $-1 53.128740027790222 14.247143708276482 5.3622717352031009 #
plane-surface $-1 54.91988891262551 0 0 -1 0 0 0 0 1 forward_v I I I I #
coedge $-1 $307 $305 $309 $439 reversed $201 $-1 #
edge $-1 $320 -9.0767573417247114 $441 9.0767573417247114 $319 $514 forward 7 unknown #
vertex $-1 $439 $515 #
straight-curve $-1 -54.91988891262551 -35.57632868615952 0 0 0 -1 I I #
edge $-1 $437 -35.57632868615952 $441 35.57632868615952 $435 $516 forward 7 unknown #
straight-curve $-1 0 -35.57632868615952 -9.0767573417247114 -1 0 0 I I #
vertex $-1 $312 $517 #
straight-curve $-1 0 35.57632868615952 -9.0767573417247114 1 0 0 I I #
point $-1 54.91988891262551 35.57632868615952 -9.0767573417247114 #
point $-1 54.91988891262551 -35.57632868615952 -9.0767573417247114 #
straight-curve $-1 -54.91988891262551 0 9.0767573417247114 0 -1 0 I I #
point $-1 -54.91988891262551 35.57632868615952 9.0767573417247114 #
point $-1 -54.91988891262551 -35.57632868615952 9.0767573417247114 #
straight-curve $-1 54.91988891262551 -35.57632868615952 0 0 0 -1 I I #
straight-curve $-1 54.91988891262551 35.57632868615952 0 0 0 -1 I I #
loop $-1 $-1 $335 $329 #
plane-surface $-1 0 -35.57632868615952 0 0 1 0 0 0 1 forward_v I I I I #
coedge $-1 $346 $337 $333 $454 forward $330 $-1 #
edge $-1 $458 -20.743546782824833 $341 -8.9220170238445426 $332 $518 forward 7 unknown #
edge $-1 $342 8.9220170238445426 $457 20.743546782824833 $452 $519 forward 7 unknown #
coedge $-1 $344 $335 $349 $467 reversed $450 $-1 #
coedge $-1 $335 $344 $346 $465 reversed $450 $-1 #
vertex $-1 $465 $520 #
vertex $-1 $336 $521 #
straight-curve $-1 -40.303234759174458 -35.57632868615952 0 0 0 1 I I #
straight-curve $-1 -21.009473026235387 -23.75479892717923 -9.0767573417247114 1 0 0 I I #
straight-curve $-1 -21.009473026235387 -23.75479892717923 9.0767573417247114 -1 0 0 I I #
point $-1 -40.303234759174458 -23.75479892717923 9.0767573417247114 #
point $-1 -40.303234759174458 -23.75479892717923 -9.0767573417247114 #
straight-curve $-1 -43.73465734576709 -35.57632868615952 0 0 0 -1 I I #
edge $-1 $457 40.303234759174458 $347 43.73465734576709 $456 $522 forward 7 unknown #
point $-1 -43.73465734576709 -35.57632868615952 -9.0767573417247114 #
edge $-1 $350 -43.73465734576709 $458 -40.303234759174458 $455 $523 forward 7 unknown #
point $-1 -43.73465734576709 -35.57632868615952 9.0767573417247114 #
plane-surface $-1 0 35.57632868615952 0 0 -1 0 0 0 -1 forward_v I I I I #
coedge $-1 $357 $361 $366 $480 forward $236 $-1 #
edge $-1 $524 -20.743546782824833 $371 -8.9220170238445426 $357 $525 forward 7 unknown #
coedge $-1 $359 $358 $478 $526 reversed $142 $-1 #
edge $-1 $374 8.9220170238445426 $527 20.743546782824833 $373 $528 forward 7 unknown #
straight-curve $-1 -40.303234759174458 23.75479892717923 0 0 0 -1 I I #
straight-curve $-1 -43.73465734576709 14.832781903334688 -9.0767573417247114 0 1 0 I I #
coedge $-1 $363 $373 $365 $479 forward $355 $-1 #
straight-curve $-1 -43.73465734576709 14.832781903334688 9.0767573417247114 0 -1 0 I I #
coedge $-1 $366 $365 $472 $526 forward $367 $-1 #
edge $-1 $527 40.303234759174458 $369 43.73465734576709 $365 $529 forward 7 unknown #
edge $-1 $368 -43.73465734576709 $524 -40.303234759174458 $366 $530 forward 7 unknown #
point $-1 -43.73465734576709 35.57632868615952 -9.0767573417247114 #
point $-1 -43.73465734576709 35.57632868615952 9.0767573417247114 #
point $-1 -40.303234759174458 23.75479892717923 -9.0767573417247114 #
point $-1 -40.303234759174458 23.75479892717923 9.0767573417247114 #
edge $-1 $486 30.336627932413901 $489 35.49716209883416 $379 $531 forward 7 unknown #
vertex $-1 $393 $532 #
straight-curve $-1 -67.625808958966331 20.391108902172611 9.0767573417247078 -1 0 0 I I #
edge $-1 $489 -13.40055847350288 $390 -0.5805423838365833 $389 $533 forward 7 unknown #
vertex $-1 $488 $534 #
straight-curve $-1 -54.91988891262551 20.391108902172611 3.9162231753044523 0.68199835119979291 0 0.73135370988377701 I I #
point $-1 -50.107613066827021 20.391108902172611 9.0767573417247114 #
point $-1 -54.91988891262551 7.5710928125063148 3.9162231753044523 #
straight-curve $-1 -54.91988891262551 0 9.0767573417247114 0 -1 0 I I #
vertex $-1 $396 $535 #
point $-1 -49.64068236544194 11.233954552410971 5.1846379336002331 #
vertex $-1 $400 $536 #
point $-1 -49.64068236544194 16.728247162267955 5.1846379336002331 #
coedge $-1 $415 $414 $407 $499 forward $404 $-1 #
edge $-1 $500 67.848973871201594 $503 74.429896980163733 $498 $537 forward 7 unknown #
vertex $-1 $419 $538 #
straight-curve $-1 44.93154569715567 7.6582936353299651 9.0767573417247149 1 0 0 I I #
edge $-1 $503 1.7701311698691953 $416 10.006193761052344 $415 $539 forward 7 unknown #
vertex $-1 $502 $540 #
straight-curve $-1 -3.2863239430765958 7.6582936353299651 95.645249570150497 -0.52991925155115449 0 0.84804810408105047 I I #
point $-1 50.807671891403778 7.6582936353299651 9.0767573417247149 #
point $-1 54.91988891262551 15.894356226513114 2.4958342327625758 #
straight-curve $-1 54.91988891262551 0 9.0767573417247114 0 1 0 I I #
vertex $-1 $422 $541 #
point $-1 51.90685144885952 9.305506153566597 4.5987510361886255 #
vertex $-1 $426 $542 #
point $-1 51.90685144885952 11.77632493092154 4.5987510361886255 #
vertex $-1 $430 $543 #
point $-1 51.90685144885952 14.247143708276482 4.5987510361886255 #
straight-curve $-1 -54.91988891262551 35.57632868615952 0 0 0 -1 I I #
point $-1 -54.91988891262551 -35.57632868615952 -9.0767573417247114 #
straight-curve $-1 -54.91988891262551 0 -9.0767573417247114 0 1 0 I I #
point $-1 -54.91988891262551 35.57632868615952 -9.0767573417247114 #
straight-curve $-1 -40.303234759174458 -14.832781903334688 9.0767573417247114 0 1 0 I I #
straight-curve $-1 -40.303234759174458 -14.832781903334688 -9.0767573417247114 0 -1 0 I I #
point $-1 -40.303234759174458 -35.57632868615952 -9.0767573417247114 #
point $-1 -40.303234759174458 -35.57632868615952 9.0767573417247114 #
straight-curve $-1 0 -35.57632868615952 -9.0767573417247114 -1 0 0 I I #
straight-curve $-1 0 -35.57632868615952 9.0767573417247114 1 0 0 I I #
vertex $-1 $526 $544 #
straight-curve $-1 -40.303234759174458 14.832781903334688 -9.0767573417247114 0 -1 0 I I #
edge $-1 $527 -9.0767573417247114 $524 9.0767573417247114 $478 $545 forward 7 unknown #
vertex $-1 $479 $546 #
straight-curve $-1 -40.303234759174458 14.832781903334688 9.0767573417247114 0 1 0 I I #
straight-curve $-1 0 35.57632868615952 9.0767573417247114 -1 0 0 I I #
straight-curve $-1 0 35.57632868615952 -9.0767573417247114 1 0 0 I I #
straight-curve $-1 -54.91988891262551 20.391108902172611 39.413385274138612 0 0 -1 I I #
point $-1 -54.91988891262551 20.391108902172611 9.0767573417247114 #
straight-curve $-1 -54.91988891262551 6.9905504286697315 3.9162231753044523 0 -1 0 I I #
point $-1 -54.91988891262551 20.391108902172611 3.9162231753044523 #
point $-1 -49.591327006757957 11.233954552410971 3.7712858725166631 #
point $-1 -49.591327006757957 16.728247162267955 3.7712858725166631 #
straight-curve $-1 54.91988891262551 7.6582936353299651 76.925731212926308 0 0 -1 I I #
point $-1 54.91988891262551 7.6582936353299651 9.0767573417247114 #
straight-curve $-1 54.91988891262551 5.8881624654607698 2.4958342327625758 0 1 0 I I #
point $-1 54.91988891262551 7.6582936353299651 2.4958342327625758 #
point $-1 51.217867771043416 9.305506153566597 4.757815462453574 #
point $-1 51.217867771043416 11.77632493092154 4.757815462453574 #
point $-1 51.217867771043416 14.247143708276482 4.757815462453574 #
point $-1 -40.303234759174458 35.57632868615952 -9.0767573417247114 #
straight-curve $-1 -40.303234759174458 35.57632868615952 0 0 0 -1 I I #
point $-1 -40.303234759174458 35.57632868615952 9.0767573417247114 #
End-of-ACIS-data 