500 0 8 0           
7 Unknown 11 ACIS 5.0 NT 24 Thu Mar 25 19:02:09 1999 
-1 9.9999999999999995e-007 1e-010 
body $-1 $8 $-1 $9 #
body $-1 $10 $-1 $11 #
body $-1 $12 $-1 $13 #
body $-1 $14 $-1 $15 #
body $-1 $16 $-1 $17 #
body $-1 $18 $-1 $19 #
body $-1 $20 $-1 $21 #
body $-1 $22 $-1 $23 #
lump $-1 $-1 $24 $0 #
transform $-1 1 0 0 0 1 0 0 0 1 68.76674703207496 36.912257154260395 10.005297841334103 1 rotate no_reflect no_shear #
lump $-1 $-1 $25 $1 #
transform $-1 1 0 0 0 1 0 0 0 1 68.76674703207496 36.912257154260395 10.005297841334103 1 rotate no_reflect no_shear #
lump $-1 $-1 $26 $2 #
transform $-1 1 0 0 0 1 0 0 0 1 68.76674703207496 36.912257154260395 10.005297841334103 1 rotate no_reflect no_shear #
lump $-1 $-1 $27 $3 #
transform $-1 1 0 0 0 1 0 0 0 1 68.76674703207496 36.912257154260395 10.005297841334103 1 rotate no_reflect no_shear #
lump $-1 $-1 $28 $4 #
transform $-1 1 0 0 0 1 0 0 0 1 68.76674703207496 36.912257154260395 10.005297841334103 1 rotate no_reflect no_shear #
lump $-1 $-1 $29 $5 #
transform $-1 1 0 0 0 1 0 0 0 1 68.76674703207496 36.912257154260395 10.005297841334103 1 rotate no_reflect no_shear #
lump $-1 $-1 $30 $6 #
transform $-1 1 0 0 0 1 0 0 0 1 68.76674703207496 36.912257154260395 10.005297841334103 1 rotate no_reflect no_shear #
lump $-1 $-1 $31 $7 #
transform $-1 1 0 0 0 1 0 0 0 1 68.76674703207496 36.912257154260395 10.005297841334103 1 rotate no_reflect no_shear #
shell $-1 $-1 $-1 $32 $-1 $8 #
shell $-1 $-1 $-1 $33 $-1 $10 #
shell $-1 $-1 $-1 $34 $-1 $12 #
shell $-1 $-1 $-1 $35 $-1 $14 #
shell $-1 $-1 $-1 $36 $-1 $16 #
shell $-1 $-1 $-1 $37 $-1 $18 #
shell $-1 $-1 $-1 $38 $-1 $20 #
shell $-1 $-1 $-1 $39 $-1 $22 #
face $-1 $40 $41 $24 $-1 $42 forward single #
face $-1 $43 $44 $25 $-1 $45 reversed single #
face $-1 $46 $47 $26 $-1 $48 forward single #
face $-1 $49 $50 $27 $-1 $51 forward single #
face $-1 $52 $53 $28 $-1 $54 forward single #
face $-1 $55 $56 $29 $-1 $57 reversed single #
face $-1 $58 $59 $30 $-1 $60 forward single #
face $-1 $61 $62 $31 $-1 $63 forward single #
face $-1 $64 $65 $24 $-1 $66 reversed single #
loop $-1 $-1 $67 $32 #
plane-surface $-1 0 0 10.005297841334103 0 0 1 1 0 0 forward_v I I I I #
face $-1 $68 $69 $25 $-1 $70 reversed single #
loop $-1 $-1 $71 $33 #
plane-surface $-1 21.712520695878538 16.360487475287776 193.28565033677424 0 1 0 0.51503808176128008 0 0.85716729658548041 forward_v I I I I #
face $-1 $72 $73 $26 $-1 $74 forward single #
loop $-1 $75 $76 $34 #
cone-surface $-1 63.598342009823448 20.470841411082297 6.2209594756499795 -0.51503808176128008 0 -0.85716729658548041 0.85716729658548041 0 -0.51503808176128008 1 I I 0 1 1 forward I I I I #
face $-1 $77 $78 $27 $-1 $79 forward single #
loop $-1 $80 $81 $35 #
cone-surface $-1 63.598342009823448 26.636372314774079 6.2209594756499795 -0.51503808176128008 0 -0.85716729658548041 0.85716729658548041 0 -0.51503808176128008 1 I I 0 1 1 forward I I I I #
face $-1 $82 $83 $28 $-1 $84 forward single #
loop $-1 $85 $86 $36 #
cone-surface $-1 63.598342009823448 32.80190321846586 6.2209594756499795 -0.51503808176128008 0 -0.85716729658548041 0.85716729658548041 0 -0.51503808176128008 1 I I 0 1 1 forward I I I I #
face $-1 $87 $88 $29 $-1 $89 reversed single #
loop $-1 $-1 $90 $37 #
plane-surface $-1 -162.56436555267163 -21.043602665622295 102.30194508389404 0 -1 0 0.68199836817093118 0 -0.7313536940579346 forward_v I I I I #
face $-1 $91 $92 $30 $-1 $93 forward single #
loop $-1 $94 $95 $38 #
cone-surface $-1 -63.916017850597882 -32.378355871792365 5.4250961155578468 0.68199836817093118 0 -0.7313536940579346 0.3656768470289673 0 0.34099918408546559 1 I I 0 1 0.5 forward I I I I #
face $-1 $96 $97 $31 $-1 $98 forward single #
loop $-1 $99 $100 $39 #
cone-surface $-1 -63.916017850597882 -25.577503948090325 5.4250961155578468 0.68199836817093118 0 -0.7313536940579346 0.3656768470289673 0 0.34099918408546559 1 I I 0 1 0.5 forward I I I I #
face $-1 $101 $102 $24 $-1 $103 reversed single #
loop $-1 $-1 $104 $40 #
plane-surface $-1 0 0 -10.005297841334103 0 0 1 1 0 0 forward_v I I I I #
coedge $-1 $105 $106 $107 $108 forward $41 $-1 #
face $-1 $109 $110 $25 $-1 $111 forward single #
loop $-1 $-1 $112 $43 #
plane-surface $-1 -49.122466264847631 26.636372314774086 75.396437039851634 0.51503808176128008 0 0.85716729658548041 0.85716729658548041 0 -0.51503808176128008 forward_v I I I I #
coedge $-1 $113 $114 $115 $116 reversed $44 $-1 #
face $-1 $-1 $117 $26 $-1 $118 forward single #
loop $-1 $119 $120 $46 #
cone-surface $-1 62.702459932516803 20.470841411082297 4.729961342777445 -0.51503808176128008 0 -0.85716729658548041 0.4285836482927402 0 -0.25751904088064004 1 I I -0.70710678118654746 0.70710678118654746 0.5 forward I I I I #
loop $-1 $-1 $121 $34 #
coedge $-1 $76 $76 $122 $123 reversed $47 $-1 #
face $-1 $-1 $124 $27 $-1 $125 forward single #
loop $-1 $126 $127 $49 #
cone-surface $-1 62.702459932516803 26.636372314774079 4.729961342777445 -0.51503808176128008 0 -0.85716729658548041 0.4285836482927402 0 -0.25751904088064004 1 I I -0.70710678118654746 0.70710678118654746 0.5 forward I I I I #
loop $-1 $-1 $128 $35 #
coedge $-1 $81 $81 $129 $130 reversed $50 $-1 #
face $-1 $-1 $131 $28 $-1 $132 forward single #
loop $-1 $133 $134 $52 #
cone-surface $-1 62.702459932516803 32.80190321846586 4.729961342777445 -0.51503808176128008 0 -0.85716729658548041 0.4285836482927402 0 -0.25751904088064004 1 I I -0.70710678118654746 0.70710678118654746 0.5 forward I I I I #
loop $-1 $-1 $135 $36 #
coedge $-1 $86 $86 $136 $137 reversed $53 $-1 #
face $-1 $138 $139 $29 $-1 $140 reversed single #
loop $-1 $-1 $141 $55 #
plane-surface $-1 -68.766747032074932 -28.977929909941345 1.7163161433829686 -0.68199836817093118 0 0.7313536940579346 0.7313536940579346 0 0.68199836817093118 forward_v I I I I #
coedge $-1 $142 $143 $144 $145 reversed $56 $-1 #
face $-1 $-1 $146 $30 $-1 $147 forward single #
loop $-1 $148 $149 $58 #
cone-surface $-1 -63.339211283712878 -32.378355871792365 4.8065468152426654 0.68199836817093118 0 -0.7313536940579346 0.18283842351448365 0 0.17049959204273279 1 I I -0.70710678118654746 0.70710678118654746 0.25 forward I I I I #
loop $-1 $-1 $150 $38 #
coedge $-1 $95 $95 $151 $152 reversed $59 $-1 #
face $-1 $-1 $153 $31 $-1 $154 forward single #
loop $-1 $155 $156 $61 #
cone-surface $-1 -63.339211283712878 -25.577503948090325 4.8065468152426654 0.68199836817093118 0 -0.7313536940579346 0.18283842351448365 0 0.17049959204273279 1 I I -0.70710678118654746 0.70710678118654746 0.25 forward I I I I #
loop $-1 $-1 $157 $39 #
coedge $-1 $100 $100 $158 $159 reversed $62 $-1 #
face $-1 $160 $161 $24 $-1 $162 reversed single #
loop $-1 $-1 $163 $64 #
plane-surface $-1 0 -36.912257154260395 0 0 1 0 0 0 1 forward_v I I I I #
coedge $-1 $164 $165 $166 $167 forward $65 $-1 #
coedge $-1 $168 $67 $169 $170 forward $41 $-1 #
coedge $-1 $67 $168 $171 $172 forward $41 $-1 #
coedge $-1 $173 $174 $67 $108 reversed $175 $-1 #
edge $-1 $176 -36.912257154260395 $177 36.912257154260395 $107 $178 forward 7 unknown #
face $-1 $179 $180 $25 $-1 $181 reversed single #
loop $-1 $-1 $182 $68 #
plane-surface $-1 0 0 10.005297841334103 0 0 1 1 0 0 forward_v I I I I #
coedge $-1 $183 $184 $185 $186 reversed $69 $-1 #
coedge $-1 $114 $71 $187 $188 reversed $44 $-1 #
coedge $-1 $71 $113 $183 $189 reversed $44 $-1 #
coedge $-1 $185 $190 $71 $116 forward $180 $-1 #
edge $-1 $191 86.637527327053022 $192 92.081375089261641 $115 $193 forward 7 unknown #
loop $-1 $-1 $122 $72 #
plane-surface $-1 -49.122466264847631 26.636372314774086 75.396437039851634 0.51503808176128008 0 0.85716729658548041 0.85716729658548041 0 -0.51503808176128008 forward_v I I I I #
loop $-1 $-1 $194 $46 #
coedge $-1 $120 $120 $121 $195 reversed $73 $-1 #
coedge $-1 $121 $121 $120 $195 forward $75 $-1 #
coedge $-1 $122 $122 $76 $123 forward $117 $-1 #
edge $-1 $196 0 $196 6.2831853071796004 $122 $197 forward 7 unknown #
loop $-1 $-1 $129 $77 #
plane-surface $-1 -49.122466264847631 26.636372314774086 75.396437039851634 0.51503808176128008 0 0.85716729658548041 0.85716729658548041 0 -0.51503808176128008 forward_v I I I I #
loop $-1 $-1 $198 $49 #
coedge $-1 $127 $127 $128 $199 reversed $78 $-1 #
coedge $-1 $128 $128 $127 $199 forward $80 $-1 #
coedge $-1 $129 $129 $81 $130 forward $124 $-1 #
edge $-1 $200 0 $200 6.2831853071796004 $129 $201 forward 7 unknown #
loop $-1 $-1 $136 $82 #
plane-surface $-1 -49.122466264847631 26.636372314774086 75.396437039851634 0.51503808176128008 0 0.85716729658548041 0.85716729658548041 0 -0.51503808176128008 forward_v I I I I #
loop $-1 $-1 $202 $52 #
coedge $-1 $134 $134 $135 $203 reversed $83 $-1 #
coedge $-1 $135 $135 $134 $203 forward $85 $-1 #
coedge $-1 $136 $136 $86 $137 forward $131 $-1 #
edge $-1 $204 0 $204 6.2831853071796004 $136 $205 forward 7 unknown #
face $-1 $206 $207 $29 $-1 $208 reversed single #
loop $-1 $-1 $144 $87 #
plane-surface $-1 -68.76674703207496 0 0 1 0 0 0 0 -1 forward_v I I I I #
coedge $-1 $209 $210 $211 $212 reversed $88 $-1 #
coedge $-1 $143 $90 $213 $214 reversed $56 $-1 #
coedge $-1 $90 $142 $209 $215 reversed $56 $-1 #
coedge $-1 $211 $216 $90 $145 forward $139 $-1 #
edge $-1 $217 41.145674700612915 $218 49.43465639856408 $144 $219 forward 7 unknown #
loop $-1 $-1 $151 $91 #
plane-surface $-1 -68.766747032074932 -28.977929909941345 1.7163161433829686 -0.68199836817093118 0 0.7313536940579346 0.7313536940579346 0 0.68199836817093118 forward_v I I I I #
loop $-1 $-1 $220 $58 #
coedge $-1 $149 $149 $150 $221 reversed $92 $-1 #
coedge $-1 $150 $150 $149 $221 forward $94 $-1 #
coedge $-1 $151 $151 $95 $152 forward $146 $-1 #
edge $-1 $222 0 $222 6.2831853071796004 $151 $223 forward 7 unknown #
loop $-1 $-1 $158 $96 #
plane-surface $-1 -68.766747032074932 -28.977929909941345 1.7163161433829686 -0.68199836817093118 0 0.7313536940579346 0.7313536940579346 0 0.68199836817093118 forward_v I I I I #
loop $-1 $-1 $224 $61 #
coedge $-1 $156 $156 $157 $225 reversed $97 $-1 #
coedge $-1 $157 $157 $156 $225 forward $99 $-1 #
coedge $-1 $158 $158 $100 $159 forward $153 $-1 #
edge $-1 $226 0 $226 6.2831853071796004 $158 $227 forward 7 unknown #
face $-1 $228 $229 $24 $-1 $230 reversed single #
loop $-1 $-1 $231 $101 #
plane-surface $-1 -68.76674703207496 0 0 1 0 0 0 0 -1 forward_v I I I I #
coedge $-1 $232 $171 $233 $234 forward $102 $-1 #
coedge $-1 $235 $104 $232 $236 forward $65 $-1 #
coedge $-1 $104 $235 $237 $238 forward $65 $-1 #
coedge $-1 $174 $173 $104 $167 reversed $175 $-1 #
edge $-1 $239 -36.912257154260395 $240 36.912257154260395 $166 $241 forward 7 unknown #
coedge $-1 $106 $105 $242 $243 forward $41 $-1 #
coedge $-1 $244 $245 $105 $170 reversed $229 $-1 #
edge $-1 $177 -68.76674703207496 $246 68.76674703207496 $169 $247 forward 7 unknown #
coedge $-1 $163 $248 $106 $172 reversed $102 $-1 #
edge $-1 $249 -68.76674703207496 $176 68.76674703207496 $171 $250 forward 7 unknown #
coedge $-1 $166 $107 $248 $251 forward $175 $-1 #
coedge $-1 $107 $166 $244 $252 reversed $175 $-1 #
loop $-1 $-1 $173 $228 #
vertex $-1 $108 $253 #
vertex $-1 $108 $254 #
straight-curve $-1 68.76674703207496 0 10.005297841334103 0 1 0 I I #
face $-1 $-1 $255 $25 $-1 $256 reversed single #
loop $-1 $-1 $115 $109 #
plane-surface $-1 68.76674703207496 0 0 -1 0 0 0 0 1 forward_v I I I I #
coedge $-1 $187 $257 $258 $259 forward $110 $-1 #
coedge $-1 $258 $112 $114 $189 forward $69 $-1 #
coedge $-1 $112 $258 $260 $261 reversed $69 $-1 #
coedge $-1 $262 $115 $112 $186 forward $180 $-1 #
edge $-1 $192 3.0423013179007334 $263 23.594070996873352 $185 $264 forward 7 unknown #
coedge $-1 $265 $182 $113 $188 forward $110 $-1 #
edge $-1 $266 48.850402712484609 $191 57.910486684135691 $187 $267 forward 7 unknown #
edge $-1 $192 -137.53349406414986 $266 -126.96369747048394 $114 $268 forward 7 unknown #
coedge $-1 $115 $262 $265 $269 reversed $180 $-1 #
vertex $-1 $269 $270 #
vertex $-1 $116 $271 #
straight-curve $-1 68.76674703207496 16.360487475287776 96.64282516838712 0 0 -1 I I #
coedge $-1 $194 $194 $-1 $272 reversed $119 $-1 #
edge $-1 $273 0 $273 6.2831853071796004 $120 $274 forward 7 unknown #
vertex $-1 $123 $275 #
ellipse-curve $-1 64.236705046249455 20.470841411082297 7.2833739602297678 0.51503808176128008 0 0.85716729658548041 0.85716729658548041 0 -0.51503808176128008 1 I I #
coedge $-1 $198 $198 $-1 $276 reversed $126 $-1 #
edge $-1 $277 0 $277 6.2831853071796004 $127 $278 forward 7 unknown #
vertex $-1 $130 $279 #
ellipse-curve $-1 64.236705046249455 26.636372314774079 7.2833739602297678 0.51503808176128008 0 0.85716729658548041 0.85716729658548041 0 -0.51503808176128008 1 I I #
coedge $-1 $202 $202 $-1 $280 reversed $133 $-1 #
edge $-1 $281 0 $281 6.2831853071796004 $134 $282 forward 7 unknown #
vertex $-1 $137 $283 #
ellipse-curve $-1 64.236705046249455 32.80190321846586 7.2833739602297678 0.51503808176128008 0 0.85716729658548041 0.85716729658548041 0 -0.51503808176128008 1 I I #
face $-1 $-1 $284 $29 $-1 $285 forward single #
loop $-1 $-1 $286 $138 #
plane-surface $-1 0 -36.912257154260395 0 0 1 0 0 0 1 forward_v I I I I #
coedge $-1 $287 $141 $143 $215 forward $88 $-1 #
coedge $-1 $141 $287 $286 $288 reversed $88 $-1 #
coedge $-1 $289 $144 $141 $212 forward $139 $-1 #
edge $-1 $218 6.5546377106516225 $290 22.423292199289723 $211 $291 forward 7 unknown #
coedge $-1 $292 $293 $142 $214 forward $284 $-1 #
edge $-1 $294 -21.404280157530494 $217 -12.515435744260856 $213 $295 forward 7 unknown #
edge $-1 $218 -3.8806975111550835e-014 $294 12.153961189352351 $143 $296 forward 7 unknown #
coedge $-1 $144 $289 $292 $297 reversed $139 $-1 #
vertex $-1 $297 $298 #
vertex $-1 $145 $299 #
straight-curve $-1 -68.76674703207496 -21.043602665622295 51.15097254194702 0 0 -1 I I #
coedge $-1 $220 $220 $-1 $300 reversed $148 $-1 #
edge $-1 $301 0 $301 6.2831853071796004 $149 $302 forward 7 unknown #
vertex $-1 $152 $303 #
ellipse-curve $-1 -64.322324825440134 -32.378355871792365 5.8608069923585244 -0.68199836817093118 0 0.7313536940579346 0.3656768470289673 0 0.34099918408546559 1 I I #
coedge $-1 $224 $224 $-1 $304 reversed $155 $-1 #
edge $-1 $305 0 $305 6.2831853071796004 $156 $306 forward 7 unknown #
vertex $-1 $159 $307 #
ellipse-curve $-1 -64.322324825440134 -25.577503948090325 5.8608069923585244 -0.68199836817093118 0 0.7313536940579346 0.3656768470289673 0 0.34099918408546559 1 I I #
face $-1 $-1 $175 $24 $-1 $308 reversed single #
loop $-1 $-1 $244 $160 #
plane-surface $-1 0 36.912257154260395 0 0 -1 0 0 0 -1 forward_v I I I I #
coedge $-1 $309 $242 $245 $310 forward $161 $-1 #
coedge $-1 $248 $163 $164 $236 reversed $102 $-1 #
coedge $-1 $242 $309 $163 $234 reversed $161 $-1 #
edge $-1 $249 -10.005297841334103 $311 10.005297841334103 $233 $312 forward 7 unknown #
coedge $-1 $165 $164 $309 $313 forward $65 $-1 #
edge $-1 $240 -68.76674703207496 $311 68.76674703207496 $232 $314 forward 7 unknown #
coedge $-1 $245 $244 $165 $238 reversed $229 $-1 #
edge $-1 $315 -68.76674703207496 $239 68.76674703207496 $237 $316 forward 7 unknown #
vertex $-1 $167 $317 #
vertex $-1 $251 $318 #
straight-curve $-1 68.76674703207496 0 -10.005297841334103 0 -1 0 I I #
coedge $-1 $231 $233 $168 $243 reversed $161 $-1 #
edge $-1 $246 -36.912257154260395 $249 36.912257154260395 $242 $319 forward 7 unknown #
coedge $-1 $237 $169 $174 $252 forward $229 $-1 #
coedge $-1 $169 $237 $231 $310 reversed $229 $-1 #
vertex $-1 $170 $320 #
straight-curve $-1 0 36.912257154260395 10.005297841334103 -1 0 0 I I #
coedge $-1 $171 $232 $173 $251 reversed $102 $-1 #
vertex $-1 $243 $321 #
straight-curve $-1 0 -36.912257154260395 10.005297841334103 1 0 0 I I #
edge $-1 $176 -10.005297841334103 $240 10.005297841334103 $173 $322 forward 7 unknown #
edge $-1 $177 -10.005297841334103 $239 10.005297841334103 $174 $323 forward 7 unknown #
point $-1 68.76674703207496 -36.912257154260395 10.005297841334103 #
point $-1 68.76674703207496 36.912257154260395 10.005297841334103 #
loop $-1 $-1 $260 $179 #
plane-surface $-1 0 36.912257154260395 0 0 -1 0 0 0 -1 forward_v I I I I #
coedge $-1 $182 $265 $324 $325 forward $110 $-1 #
coedge $-1 $184 $183 $182 $259 reversed $69 $-1 #
edge $-1 $326 -23.594070996873352 $266 -3.0423013179007334 $182 $327 forward 7 unknown #
coedge $-1 $324 $328 $184 $261 forward $255 $-1 #
edge $-1 $263 -97.064390106904298 $326 -86.494593513238314 $260 $329 forward 7 unknown #
coedge $-1 $190 $185 $328 $330 reversed $180 $-1 #
vertex $-1 $186 $331 #
straight-curve $-1 68.76674703207496 13.318186157387043 4.5614500791254713 0 1 0 I I #
coedge $-1 $257 $187 $190 $269 forward $110 $-1 #
vertex $-1 $188 $332 #
straight-curve $-1 10.856260347939269 16.360487475287776 10.005297841334098 1 0 0 I I #
straight-curve $-1 -49.122466264847631 16.360487475287776 75.396437039851634 -0.85716729658548041 0 0.51503808176128008 I I #
edge $-1 $191 16.360487475287776 $333 36.912257154260395 $190 $334 forward 7 unknown #
point $-1 68.76674703207496 16.360487475287776 10.005297841334103 #
point $-1 68.766747032074946 16.360487475287776 4.5614500791254784 #
edge $-1 $335 1 $335 0 $194 $-1 forward 7 unknown #
vertex $-1 $195 $336 #
ellipse-curve $-1 62.95997897339744 20.470841411082297 5.158544991070185 0.51503808176128008 0 0.85716729658548041 0.85716729658548041 0 -0.51503808176128008 1 I I #
point $-1 65.093872342834928 20.470841411082297 6.768335878468493 #
edge $-1 $337 1 $337 0 $198 $-1 forward 7 unknown #
vertex $-1 $199 $338 #
ellipse-curve $-1 62.95997897339744 26.636372314774079 5.158544991070185 0.51503808176128008 0 0.85716729658548041 0.85716729658548041 0 -0.51503808176128008 1 I I #
point $-1 65.093872342834928 26.636372314774079 6.768335878468493 #
edge $-1 $339 1 $339 0 $202 $-1 forward 7 unknown #
vertex $-1 $203 $340 #
ellipse-curve $-1 62.95997897339744 32.80190321846586 5.158544991070185 0.51503808176128008 0 0.85716729658548041 0.85716729658548041 0 -0.51503808176128008 1 I I #
point $-1 65.093872342834928 32.80190321846586 6.768335878468493 #
loop $-1 $-1 $213 $206 #
plane-surface $-1 0 0 10.005297841334103 0 0 1 1 0 0 forward_v I I I I #
coedge $-1 $341 $342 $210 $288 forward $207 $-1 #
coedge $-1 $210 $209 $293 $343 reversed $88 $-1 #
edge $-1 $290 -24.561144830601492 $344 -12.4071836412491 $286 $345 forward 7 unknown #
coedge $-1 $216 $211 $342 $346 reversed $139 $-1 #
vertex $-1 $288 $347 #
straight-curve $-1 -68.76674703207496 -14.488964954970672 1.7163161433829426 0 -1 0 I I #
coedge $-1 $348 $213 $216 $297 forward $284 $-1 #
coedge $-1 $213 $348 $287 $343 forward $284 $-1 #
vertex $-1 $214 $349 #
straight-curve $-1 -81.282182776335816 -21.043602665622295 10.005297841334105 -1 0 0 I I #
straight-curve $-1 -68.766747032074932 -21.043602665622295 1.7163161433829686 0.7313536940579346 0 0.68199836817093118 I I #
edge $-1 $217 21.043602665622295 $350 36.912257154260395 $216 $351 forward 7 unknown #
point $-1 -68.76674703207496 -21.043602665622295 10.005297841334103 #
point $-1 -68.76674703207496 -21.043602665622295 1.7163161433829421 #
edge $-1 $352 1 $352 0 $220 $-1 forward 7 unknown #
vertex $-1 $221 $353 #
ellipse-curve $-1 -63.509710875755609 -32.378355871792365 4.9893852387571487 -0.68199836817093118 0 0.7313536940579346 0.3656768470289673 0 0.34099918408546559 1 I I #
point $-1 -63.956647978411191 -32.378355871792365 6.20180617644401 #
edge $-1 $354 1 $354 0 $224 $-1 forward 7 unknown #
vertex $-1 $225 $355 #
ellipse-curve $-1 -63.509710875755609 -25.577503948090325 4.9893852387571487 -0.68199836817093118 0 0.7313536940579346 0.3656768470289673 0 0.34099918408546559 1 I I #
point $-1 -63.956647978411191 -25.577503948090325 6.20180617644401 #
plane-surface $-1 68.76674703207496 0 0 -1 0 0 0 0 1 forward_v I I I I #
coedge $-1 $233 $231 $235 $313 reversed $161 $-1 #
edge $-1 $246 -10.005297841334103 $315 10.005297841334103 $245 $356 forward 7 unknown #
vertex $-1 $313 $357 #
straight-curve $-1 -68.76674703207496 -36.912257154260395 0 0 0 -1 I I #
edge $-1 $311 -36.912257154260395 $315 36.912257154260395 $309 $358 forward 7 unknown #
straight-curve $-1 0 -36.912257154260395 -10.005297841334103 -1 0 0 I I #
vertex $-1 $238 $359 #
straight-curve $-1 0 36.912257154260395 -10.005297841334103 1 0 0 I I #
point $-1 68.76674703207496 36.912257154260395 -10.005297841334103 #
point $-1 68.76674703207496 -36.912257154260395 -10.005297841334103 #
straight-curve $-1 -68.76674703207496 0 10.005297841334103 0 -1 0 I I #
point $-1 -68.76674703207496 36.912257154260395 10.005297841334103 #
point $-1 -68.76674703207496 -36.912257154260395 10.005297841334103 #
straight-curve $-1 68.76674703207496 -36.912257154260395 0 0 0 -1 I I #
straight-curve $-1 68.76674703207496 36.912257154260395 0 0 0 -1 I I #
coedge $-1 $328 $260 $257 $325 reversed $255 $-1 #
edge $-1 $333 -68.76674703207496 $326 -59.706663060423878 $324 $360 forward 7 unknown #
vertex $-1 $261 $361 #
straight-curve $-1 59.706663060423864 13.318186157387043 10.005297841334105 0 -1 0 I I #
coedge $-1 $260 $324 $262 $330 forward $255 $-1 #
straight-curve $-1 -14.433673830578647 36.912257154260395 54.553307367114023 -0.85716729658548041 0 0.51503808176128008 I I #
edge $-1 $333 -10.005297841334103 $263 -4.5614500791254651 $262 $362 forward 7 unknown #
point $-1 68.76674703207496 36.912257154260395 4.5614500791254651 #
point $-1 59.706663060423878 16.360487475287776 10.005297841334098 #
vertex $-1 $269 $363 #
straight-curve $-1 68.76674703207496 0 10.005297841334103 0 1 0 I I #
vertex $-1 $272 $364 #
point $-1 63.817146269982921 20.470841411082297 4.643506909308905 #
vertex $-1 $276 $365 #
point $-1 63.817146269982921 26.636372314774079 4.643506909308905 #
vertex $-1 $280 $366 #
point $-1 63.817146269982921 32.80190321846586 4.643506909308905 #
coedge $-1 $342 $286 $348 $367 reversed $207 $-1 #
coedge $-1 $286 $341 $289 $346 forward $207 $-1 #
edge $-1 $344 -22.423292199289723 $294 -6.5546377106516225 $293 $368 forward 7 unknown #
vertex $-1 $288 $369 #
straight-curve $-1 -50.803863029922617 -36.912257154260395 18.466976838263061 0.7313536940579346 0 0.68199836817093118 I I #
edge $-1 $350 -10.005297841334103 $290 -1.7163161433829424 $289 $370 forward 7 unknown #
point $-1 -68.76674703207496 -36.912257154260395 1.7163161433829424 #
coedge $-1 $293 $292 $341 $367 forward $284 $-1 #
point $-1 -59.877902618805322 -21.043602665622295 10.005297841334103 #
vertex $-1 $297 $371 #
straight-curve $-1 -68.76674703207496 0 10.005297841334103 0 -1 0 I I #
vertex $-1 $300 $372 #
point $-1 -63.144034028726644 -32.378355871792365 5.3303844228426147 #
vertex $-1 $304 $373 #
point $-1 -63.144034028726644 -25.577503948090325 5.3303844228426147 #
straight-curve $-1 -68.76674703207496 36.912257154260395 0 0 0 -1 I I #
point $-1 -68.76674703207496 -36.912257154260395 -10.005297841334103 #
straight-curve $-1 -68.76674703207496 0 -10.005297841334103 0 1 0 I I #
point $-1 -68.76674703207496 36.912257154260395 -10.005297841334103 #
straight-curve $-1 0 36.912257154260395 10.005297841334103 -1 0 0 I I #
point $-1 59.706663060423878 36.912257154260395 10.005297841334098 #
straight-curve $-1 68.76674703207496 36.912257154260395 0 0 0 -1 I I #
point $-1 68.76674703207496 36.912257154260395 10.005297841334103 #
point $-1 62.444940891636165 20.470841411082297 4.3013776944847049 #
point $-1 62.444940891636165 26.636372314774079 4.3013776944847049 #
point $-1 62.444940891636165 32.80190321846586 4.3013776944847049 #
edge $-1 $350 -68.76674703207496 $344 -59.877902618805322 $341 $374 forward 7 unknown #
straight-curve $-1 -59.877902618805315 -14.488964954970672 10.005297841334103 0 1 0 I I #
point $-1 -59.877902618805322 -36.912257154260395 10.005297841334103 #
straight-curve $-1 -68.76674703207496 -36.912257154260395 0 0 0 -1 I I #
point $-1 -68.76674703207496 -36.912257154260395 10.005297841334103 #
point $-1 -63.168711691670147 -32.378355871792365 4.623708391728182 #
point $-1 -63.168711691670147 -25.577503948090325 4.623708391728182 #
straight-curve $-1 0 -36.912257154260395 10.005297841334103 1 0 0 I I #
End-of-ACIS-data 