500 0 7 0           
7 Unknown 11 ACIS 5.0 NT 24 Thu Mar 25 17:34:04 1999 
-1 9.9999999999999995e-007 1e-010 
body $-1 $7 $-1 $8 #
body $-1 $9 $-1 $10 #
body $-1 $11 $-1 $12 #
body $-1 $13 $-1 $14 #
body $-1 $15 $-1 $16 #
body $-1 $17 $-1 $18 #
body $-1 $19 $-1 $20 #
lump $-1 $-1 $21 $0 #
transform $-1 1 0 0 0 1 0 0 0 1 50.296945097201451 26.603026983675896 7.060149621571874 1 rotate no_reflect no_shear #
lump $-1 $-1 $22 $1 #
transform $-1 1 0 0 0 1 0 0 0 1 50.296945097201451 26.603026983675896 7.060149621571874 1 rotate no_reflect no_shear #
lump $-1 $-1 $23 $2 #
transform $-1 1 0 0 0 1 0 0 0 1 50.296945097201451 26.603026983675896 7.060149621571874 1 rotate no_reflect no_shear #
lump $-1 $-1 $24 $3 #
transform $-1 1 0 0 0 1 0 0 0 1 50.296945097201451 26.603026983675896 7.060149621571874 1 rotate no_reflect no_shear #
lump $-1 $-1 $25 $4 #
transform $-1 1 0 0 0 1 0 0 0 1 50.296945097201451 26.603026983675896 7.060149621571874 1 rotate no_reflect no_shear #
lump $-1 $-1 $26 $5 #
transform $-1 1 0 0 0 1 0 0 0 1 50.296945097201451 26.603026983675896 7.060149621571874 1 rotate no_reflect no_shear #
lump $-1 $-1 $27 $6 #
transform $-1 1 0 0 0 1 0 0 0 1 50.296945097201451 26.603026983675896 7.060149621571874 1 rotate no_reflect no_shear #
shell $-1 $-1 $-1 $28 $-1 $7 #
shell $-1 $-1 $-1 $29 $-1 $9 #
shell $-1 $-1 $-1 $30 $-1 $11 #
shell $-1 $-1 $-1 $31 $-1 $13 #
shell $-1 $-1 $-1 $32 $-1 $15 #
shell $-1 $-1 $-1 $33 $-1 $17 #
shell $-1 $-1 $-1 $34 $-1 $19 #
face $-1 $35 $36 $21 $-1 $37 forward single #
face $-1 $38 $39 $22 $-1 $40 reversed single #
face $-1 $41 $42 $23 $-1 $43 reversed single #
face $-1 $44 $45 $24 $-1 $46 forward single #
face $-1 $47 $48 $25 $-1 $49 forward single #
face $-1 $50 $51 $26 $-1 $52 reversed single #
face $-1 $53 $54 $27 $-1 $55 forward single #
face $-1 $56 $57 $21 $-1 $58 reversed single #
loop $-1 $-1 $59 $28 #
plane-surface $-1 0 0 7.060149621571874 0 0 1 1 0 0 forward_v I I I I #
face $-1 $60 $61 $22 $-1 $62 reversed single #
loop $-1 $-1 $63 $29 #
plane-surface $-1 -48.369026741265948 -17.51727568354405 0 0 -1 0 0 0 -1 forward_v I I I I #
face $-1 $64 $65 $23 $-1 $66 reversed single #
loop $-1 $-1 $67 $30 #
plane-surface $-1 -126.21611857257511 -14.527576329021606 66.140131601218002 0 1 0 -0.75470958851134928 0 0.65605901945558964 forward_v I I I I #
face $-1 $68 $69 $24 $-1 $70 forward single #
loop $-1 $71 $72 $31 #
cone-surface $-1 -46.570515695245938 -10.760284999715545 2.975939575121104 0.75470958851134928 0 -0.65605901945558964 0.65605901945558964 0 0.75470958851134928 1 I I 0 1 1 forward I I I I #
face $-1 $73 $74 $25 $-1 $75 forward single #
loop $-1 $76 $77 $32 #
cone-surface $-1 -46.570515695245938 -5.1093480057564555 2.975939575121104 0.75470958851134928 0 -0.65605901945558964 0.65605901945558964 0 0.75470958851134928 1 I I 0 1 1 forward I I I I #
face $-1 $78 $79 $26 $-1 $80 reversed single #
loop $-1 $-1 $81 $33 #
plane-surface $-1 55.261792629163516 -0.57201165545448251 145.01917735903945 0 -1 0 -0.73135370988377701 0 -0.68199835119979291 forward_v I I I I #
face $-1 $82 $83 $27 $-1 $84 forward single #
loop $-1 $85 $86 $34 #
cone-surface $-1 47.904466378890632 -5.6201431330428875 4.5542400370894409 -0.73135370988377701 0 -0.68199835119979291 0.68199835119979291 0 -0.73135370988377701 1 I I 0 1 1 forward I I I I #
face $-1 $87 $88 $21 $-1 $89 reversed single #
loop $-1 $-1 $90 $35 #
plane-surface $-1 0 0 -7.060149621571874 0 0 1 1 0 0 forward_v I I I I #
coedge $-1 $91 $92 $93 $94 forward $36 $-1 #
face $-1 $95 $96 $22 $-1 $97 forward single #
loop $-1 $-1 $98 $38 #
plane-surface $-1 -46.441108385330445 -22.060151333609973 0 -1 0 0 0 0 1 forward_v I I I I #
coedge $-1 $99 $100 $101 $102 forward $39 $-1 #
face $-1 $103 $104 $23 $-1 $105 reversed single #
loop $-1 $-1 $106 $41 #
plane-surface $-1 -50.296945097201444 -7.9348165027360018 0.14460263705477416 -0.75470958851134928 0 0.65605901945558964 0.65605901945558964 0 0.75470958851134928 forward_v I I I I #
coedge $-1 $107 $108 $109 $110 reversed $42 $-1 #
face $-1 $-1 $111 $24 $-1 $112 forward single #
loop $-1 $113 $114 $44 #
cone-surface $-1 -45.472528061531392 -10.760284999715545 2.02147351120108 0.75470958851134928 0 -0.65605901945558964 0.32802950972779482 0 0.37735479425567464 1 I I -0.70710678118654746 0.70710678118654746 0.5 forward I I I I #
loop $-1 $-1 $115 $31 #
coedge $-1 $72 $72 $116 $117 reversed $45 $-1 #
face $-1 $-1 $118 $25 $-1 $119 forward single #
loop $-1 $120 $121 $47 #
cone-surface $-1 -45.472528061531392 -5.1093480057564555 2.02147351120108 0.75470958851134928 0 -0.65605901945558964 0.32802950972779482 0 0.37735479425567464 1 I I -0.70710678118654746 0.70710678118654746 0.5 forward I I I I #
loop $-1 $-1 $122 $32 #
coedge $-1 $77 $77 $123 $124 reversed $48 $-1 #
face $-1 $125 $126 $26 $-1 $127 reversed single #
loop $-1 $-1 $128 $50 #
plane-surface $-1 -18.307922156154341 -5.620143133042891 76.414310105683654 0.73135370988377701 0 0.68199835119979291 0.68199835119979291 0 -0.73135370988377701 forward_v I I I I #
coedge $-1 $129 $130 $131 $132 reversed $51 $-1 #
face $-1 $-1 $133 $27 $-1 $134 forward single #
loop $-1 $135 $136 $53 #
cone-surface $-1 47.111844749037651 -5.6201431330428875 3.815108427610177 -0.73135370988377701 0 -0.68199835119979291 0.34099917559989645 0 -0.36567685494188851 1 I I -0.70710678118654746 0.70710678118654746 0.5 forward I I I I #
loop $-1 $-1 $137 $34 #
coedge $-1 $86 $86 $138 $139 reversed $54 $-1 #
face $-1 $140 $141 $21 $-1 $142 reversed single #
loop $-1 $-1 $143 $56 #
plane-surface $-1 0 -26.603026983675896 0 0 1 0 0 0 1 forward_v I I I I #
coedge $-1 $144 $145 $146 $147 forward $57 $-1 #
coedge $-1 $148 $59 $149 $150 forward $36 $-1 #
coedge $-1 $59 $148 $151 $152 forward $36 $-1 #
coedge $-1 $153 $154 $59 $94 reversed $155 $-1 #
edge $-1 $156 -26.603026983675896 $157 26.603026983675896 $93 $158 forward 7 unknown #
face $-1 $159 $160 $22 $-1 $161 reversed single #
loop $-1 $-1 $162 $60 #
plane-surface $-1 0 0 7.060149621571874 0 0 1 1 0 0 forward_v I I I I #
coedge $-1 $163 $164 $165 $166 reversed $61 $-1 #
coedge $-1 $167 $63 $168 $169 reversed $39 $-1 #
coedge $-1 $63 $167 $170 $171 reversed $39 $-1 #
coedge $-1 $164 $163 $63 $102 reversed $61 $-1 #
edge $-1 $172 -7.060149621571874 $173 7.060149621571874 $101 $174 forward 7 unknown #
face $-1 $175 $176 $23 $-1 $177 reversed single #
loop $-1 $-1 $178 $64 #
plane-surface $-1 -126.21611857257511 -1.3420566764503983 66.140131601218002 0 -1 0 0.75470958851134928 0 -0.65605901945558964 forward_v I I I I #
coedge $-1 $179 $180 $181 $182 reversed $65 $-1 #
coedge $-1 $108 $67 $183 $184 reversed $42 $-1 #
coedge $-1 $67 $107 $179 $185 reversed $42 $-1 #
coedge $-1 $181 $186 $67 $110 forward $187 $-1 #
edge $-1 $188 12.811114189086105 $189 18.822707314079409 $109 $190 forward 7 unknown #
loop $-1 $-1 $116 $68 #
plane-surface $-1 -50.296945097201444 -7.9348165027360018 0.14460263705477416 -0.75470958851134928 0 0.65605901945558964 0.65605901945558964 0 0.75470958851134928 forward_v I I I I #
loop $-1 $-1 $191 $44 #
coedge $-1 $114 $114 $115 $192 reversed $69 $-1 #
coedge $-1 $115 $115 $114 $192 forward $71 $-1 #
coedge $-1 $116 $116 $72 $117 forward $111 $-1 #
edge $-1 $193 0 $193 6.2831853071796004 $116 $194 forward 7 unknown #
loop $-1 $-1 $123 $73 #
plane-surface $-1 -50.296945097201444 -7.9348165027360018 0.14460263705477416 -0.75470958851134928 0 0.65605901945558964 0.65605901945558964 0 0.75470958851134928 forward_v I I I I #
loop $-1 $-1 $195 $47 #
coedge $-1 $121 $121 $122 $196 reversed $74 $-1 #
coedge $-1 $122 $122 $121 $196 forward $76 $-1 #
coedge $-1 $123 $123 $77 $124 forward $118 $-1 #
edge $-1 $197 0 $197 6.2831853071796004 $123 $198 forward 7 unknown #
face $-1 $199 $200 $26 $-1 $201 forward single #
loop $-1 $-1 $202 $78 #
plane-surface $-1 55.261792629163516 -10.6682746106313 145.01917735903945 0 1 0 0.73135370988377701 0 0.68199835119979291 forward_v I I I I #
coedge $-1 $203 $204 $205 $206 reversed $79 $-1 #
coedge $-1 $130 $81 $207 $208 reversed $51 $-1 #
coedge $-1 $81 $129 $203 $209 reversed $51 $-1 #
coedge $-1 $205 $210 $81 $132 forward $200 $-1 #
edge $-1 $211 -22.666048782619693 $212 -18.734980895820268 $131 $213 forward 7 unknown #
loop $-1 $-1 $138 $82 #
plane-surface $-1 -18.307922156154341 -5.620143133042891 76.414310105683654 0.73135370988377701 0 0.68199835119979291 0.68199835119979291 0 -0.73135370988377701 forward_v I I I I #
loop $-1 $-1 $214 $53 #
coedge $-1 $136 $136 $137 $215 reversed $83 $-1 #
coedge $-1 $137 $137 $136 $215 forward $85 $-1 #
coedge $-1 $138 $138 $86 $139 forward $133 $-1 #
edge $-1 $216 0 $216 6.2831853071796004 $138 $217 forward 7 unknown #
face $-1 $218 $219 $21 $-1 $220 reversed single #
loop $-1 $-1 $221 $87 #
plane-surface $-1 -50.296945097201451 0 0 1 0 0 0 0 -1 forward_v I I I I #
coedge $-1 $222 $151 $223 $224 forward $88 $-1 #
coedge $-1 $225 $90 $222 $226 forward $57 $-1 #
coedge $-1 $90 $225 $227 $228 forward $57 $-1 #
coedge $-1 $154 $153 $90 $147 reversed $155 $-1 #
edge $-1 $229 -26.603026983675896 $230 26.603026983675896 $146 $231 forward 7 unknown #
coedge $-1 $92 $91 $232 $233 forward $36 $-1 #
coedge $-1 $234 $235 $91 $150 reversed $219 $-1 #
edge $-1 $157 -50.296945097201451 $236 50.296945097201451 $149 $237 forward 7 unknown #
coedge $-1 $143 $238 $92 $152 reversed $88 $-1 #
edge $-1 $239 -50.296945097201451 $156 50.296945097201451 $151 $240 forward 7 unknown #
coedge $-1 $146 $93 $238 $241 forward $155 $-1 #
coedge $-1 $93 $146 $234 $242 reversed $155 $-1 #
loop $-1 $-1 $153 $218 #
vertex $-1 $94 $243 #
vertex $-1 $94 $244 #
straight-curve $-1 50.296945097201451 0 7.060149621571874 0 1 0 I I #
face $-1 $245 $246 $22 $-1 $247 reversed single #
loop $-1 $-1 $248 $95 #
plane-surface $-1 -50.296945097201451 0 0 1 0 0 0 0 -1 forward_v I I I I #
coedge $-1 $170 $249 $164 $250 forward $96 $-1 #
coedge $-1 $101 $98 $251 $252 reversed $61 $-1 #
coedge $-1 $98 $101 $162 $250 reversed $61 $-1 #
coedge $-1 $253 $254 $98 $166 forward $255 $-1 #
edge $-1 $256 -7.060149621571874 $257 7.060149621571874 $165 $258 forward 7 unknown #
coedge $-1 $100 $99 $248 $259 reversed $39 $-1 #
coedge $-1 $251 $260 $99 $169 forward $246 $-1 #
edge $-1 $261 -26.112431726568477 $173 -22.256595014697471 $168 $262 forward 7 unknown #
coedge $-1 $263 $162 $100 $171 forward $96 $-1 #
edge $-1 $172 22.256595014697471 $264 26.112431726568477 $170 $265 forward 7 unknown #
vertex $-1 $171 $266 #
vertex $-1 $169 $267 #
straight-curve $-1 -46.441108385330445 -17.51727568354405 0 0 0 -1 I I #
face $-1 $-1 $187 $23 $-1 $268 forward single #
loop $-1 $-1 $269 $103 #
plane-surface $-1 -50.296945097201451 0 0 1 0 0 0 0 -1 forward_v I I I I #
coedge $-1 $270 $271 $272 $273 reversed $104 $-1 #
coedge $-1 $274 $106 $108 $185 forward $65 $-1 #
coedge $-1 $106 $274 $270 $275 forward $65 $-1 #
coedge $-1 $272 $109 $106 $182 forward $187 $-1 #
edge $-1 $189 -10.560168077653605 $276 2.6253515749176026 $181 $277 forward 7 unknown #
coedge $-1 $278 $279 $107 $184 forward $176 $-1 #
edge $-1 $280 -32.925463163554234 $188 -26.009916179037127 $183 $281 forward 7 unknown #
edge $-1 $189 -9.1631895099648712 $280 1.0820115026260117e-014 $108 $282 forward 7 unknown #
coedge $-1 $109 $272 $278 $283 forward $187 $-1 #
loop $-1 $-1 $272 $175 #
vertex $-1 $184 $284 #
vertex $-1 $110 $285 #
straight-curve $-1 -63.108059286287556 -14.527576329021606 7.060149621571874 1 0 0 I I #
coedge $-1 $191 $191 $-1 $286 reversed $113 $-1 #
edge $-1 $287 0 $287 6.2831853071796004 $114 $288 forward 7 unknown #
vertex $-1 $117 $289 #
ellipse-curve $-1 -47.291148534704796 -10.760284999715545 3.6023761293133223 -0.75470958851134928 0 0.65605901945558964 0.65605901945558964 0 0.75470958851134928 1 I I #
coedge $-1 $195 $195 $-1 $290 reversed $120 $-1 #
edge $-1 $291 0 $291 6.2831853071796004 $121 $292 forward 7 unknown #
vertex $-1 $124 $293 #
ellipse-curve $-1 -47.291148534704796 -5.1093480057564555 3.6023761293133223 -0.75470958851134928 0 0.65605901945558964 0.65605901945558964 0 0.75470958851134928 1 I I #
face $-1 $-1 $294 $26 $-1 $295 reversed single #
loop $-1 $-1 $131 $125 #
plane-surface $-1 0 0 7.060149621571874 0 0 1 1 0 0 forward_v I I I I #
coedge $-1 $296 $297 $298 $299 reversed $126 $-1 #
coedge $-1 $300 $128 $130 $209 forward $79 $-1 #
coedge $-1 $128 $300 $296 $301 forward $79 $-1 #
coedge $-1 $298 $131 $128 $206 forward $200 $-1 #
edge $-1 $212 -2.238059911066963 $302 7.8582030441098549 $205 $303 forward 7 unknown #
coedge $-1 $304 $305 $129 $208 forward $294 $-1 #
edge $-1 $306 -69.664993359153925 $211 -65.449439057947842 $207 $307 forward 7 unknown #
edge $-1 $212 94.829847099747653 $306 100.59389019440289 $130 $308 forward 7 unknown #
coedge $-1 $131 $298 $304 $309 forward $200 $-1 #
vertex $-1 $132 $310 #
vertex $-1 $132 $311 #
straight-curve $-1 27.630896314581758 -0.57201165545448251 7.0601496215718669 -1 0 0 I I #
coedge $-1 $214 $214 $-1 $312 reversed $135 $-1 #
edge $-1 $313 0 $313 6.2831853071796004 $136 $314 forward 7 unknown #
vertex $-1 $139 $315 #
ellipse-curve $-1 48.331411153801753 -5.6201431330428875 4.9523724709688315 0.73135370988377701 0 0.68199835119979291 0.68199835119979291 0 -0.73135370988377701 1 I I #
face $-1 $-1 $155 $21 $-1 $316 reversed single #
loop $-1 $-1 $234 $140 #
plane-surface $-1 0 26.603026983675896 0 0 -1 0 0 0 -1 forward_v I I I I #
coedge $-1 $317 $232 $235 $318 forward $141 $-1 #
coedge $-1 $238 $143 $144 $226 reversed $88 $-1 #
coedge $-1 $232 $317 $143 $224 reversed $141 $-1 #
edge $-1 $239 -7.060149621571874 $319 7.060149621571874 $223 $320 forward 7 unknown #
coedge $-1 $145 $144 $317 $321 forward $57 $-1 #
edge $-1 $230 -50.296945097201451 $319 50.296945097201451 $222 $322 forward 7 unknown #
coedge $-1 $235 $234 $145 $228 reversed $219 $-1 #
edge $-1 $323 -50.296945097201451 $229 50.296945097201451 $227 $324 forward 7 unknown #
vertex $-1 $147 $325 #
vertex $-1 $241 $326 #
straight-curve $-1 50.296945097201451 0 -7.060149621571874 0 -1 0 I I #
coedge $-1 $221 $223 $148 $233 reversed $141 $-1 #
edge $-1 $236 -26.603026983675896 $239 26.603026983675896 $232 $327 forward 7 unknown #
coedge $-1 $227 $149 $154 $242 forward $219 $-1 #
coedge $-1 $149 $227 $221 $318 reversed $219 $-1 #
vertex $-1 $150 $328 #
straight-curve $-1 0 26.603026983675896 7.060149621571874 -1 0 0 I I #
coedge $-1 $151 $222 $153 $241 reversed $88 $-1 #
vertex $-1 $233 $329 #
straight-curve $-1 0 -26.603026983675896 7.060149621571874 1 0 0 I I #
edge $-1 $156 -7.060149621571874 $230 7.060149621571874 $153 $330 forward 7 unknown #
edge $-1 $157 -7.060149621571874 $229 7.060149621571874 $154 $331 forward 7 unknown #
point $-1 50.296945097201451 -26.603026983675896 7.060149621571874 #
point $-1 50.296945097201451 26.603026983675896 7.060149621571874 #
face $-1 $-1 $255 $22 $-1 $332 reversed single #
loop $-1 $-1 $251 $159 #
plane-surface $-1 0 0 -7.060149621571874 0 0 1 1 0 0 forward_v I I I I #
coedge $-1 $333 $334 $167 $259 forward $160 $-1 #
coedge $-1 $162 $263 $253 $335 forward $96 $-1 #
edge $-1 $257 -15.57295131687091 $172 -6.4872000167390631 $162 $336 forward 7 unknown #
coedge $-1 $337 $168 $163 $252 forward $246 $-1 #
edge $-1 $173 6.4872000167390631 $256 15.57295131687091 $251 $338 forward 7 unknown #
coedge $-1 $339 $165 $249 $335 reversed $255 $-1 #
coedge $-1 $165 $339 $337 $340 reversed $255 $-1 #
loop $-1 $-1 $165 $245 #
vertex $-1 $340 $341 #
vertex $-1 $166 $342 #
straight-curve $-1 -46.441108385330445 -26.603026983675896 0 0 0 1 I I #
edge $-1 $264 -7.060149621571874 $261 7.060149621571874 $248 $343 forward 7 unknown #
coedge $-1 $168 $337 $333 $344 forward $246 $-1 #
vertex $-1 $169 $345 #
straight-curve $-1 -24.184513370632974 -17.51727568354405 -7.060149621571874 1 0 0 I I #
coedge $-1 $249 $170 $334 $346 forward $96 $-1 #
vertex $-1 $346 $347 #
straight-curve $-1 -24.184513370632974 -17.51727568354405 7.060149621571874 -1 0 0 I I #
point $-1 -46.441108385330445 -17.51727568354405 7.060149621571874 #
point $-1 -46.441108385330445 -17.51727568354405 -7.060149621571874 #
plane-surface $-1 0 0 7.060149621571874 0 0 1 1 0 0 forward_v I I I I #
coedge $-1 $279 $278 $271 $348 forward $176 $-1 #
coedge $-1 $271 $178 $180 $275 reversed $104 $-1 #
coedge $-1 $178 $270 $269 $348 reversed $104 $-1 #
coedge $-1 $186 $181 $178 $273 forward $187 $-1 #
edge $-1 $276 -18.822707314079409 $349 -12.811114189086105 $272 $350 forward 7 unknown #
coedge $-1 $180 $179 $279 $351 reversed $65 $-1 #
edge $-1 $352 -1.0820115026260117e-014 $276 9.1631895099648712 $270 $353 forward 7 unknown #
vertex $-1 $182 $354 #
straight-curve $-1 -44.285351972208147 -3.9674082513680009 7.060149621571874 0 1 0 I I #
coedge $-1 $269 $183 $186 $283 reversed $176 $-1 #
coedge $-1 $183 $269 $274 $351 forward $176 $-1 #
vertex $-1 $184 $355 #
straight-curve $-1 -50.296945097201451 -14.527576329021606 33.070065800609001 0 0 1 I I #
straight-curve $-1 -50.296945097201444 -14.527576329021606 0.14460263705477416 -0.65605901945558964 0 -0.75470958851134928 I I #
edge $-1 $349 1.3420566764503983 $188 14.527576329021606 $278 $356 forward 7 unknown #
point $-1 -50.296945097201451 -14.527576329021606 7.060149621571874 #
point $-1 -44.285351972208147 -14.527576329021606 7.060149621571874 #
edge $-1 $357 1 $357 0 $191 $-1 forward 7 unknown #
vertex $-1 $192 $358 #
ellipse-curve $-1 -45.849882855787065 -10.760284999715545 2.349503020928875 -0.75470958851134928 0 0.65605901945558964 0.65605901945558964 0 0.75470958851134928 1 I I #
point $-1 -46.63508951524922 -10.760284999715545 4.357085717824682 #
edge $-1 $359 1 $359 0 $195 $-1 forward 7 unknown #
vertex $-1 $196 $360 #
ellipse-curve $-1 -45.849882855787065 -5.1093480057564555 2.349503020928875 -0.75470958851134928 0 0.65605901945558964 0.65605901945558964 0 0.75470958851134928 1 I I #
point $-1 -46.63508951524922 -5.1093480057564555 4.357085717824682 #
loop $-1 $-1 $207 $199 #
plane-surface $-1 50.296945097201451 0 0 -1 0 0 0 0 1 forward_v I I I I #
coedge $-1 $297 $202 $204 $301 reversed $126 $-1 #
coedge $-1 $202 $296 $361 $362 reversed $126 $-1 #
coedge $-1 $210 $205 $202 $299 forward $200 $-1 #
edge $-1 $302 18.734980895820268 $363 22.666048782619693 $298 $364 forward 7 unknown #
coedge $-1 $204 $203 $305 $365 reversed $79 $-1 #
edge $-1 $366 -100.59389019440289 $302 -94.829847099747653 $296 $367 forward 7 unknown #
vertex $-1 $206 $368 #
straight-curve $-1 46.365877210402026 -2.8100715665214455 7.0601496215718669 0 -1 0 I I #
coedge $-1 $361 $207 $210 $309 reversed $294 $-1 #
coedge $-1 $207 $361 $300 $365 forward $294 $-1 #
vertex $-1 $208 $369 #
straight-curve $-1 50.296945097201451 -0.57201165545448251 72.509588679519723 0 0 1 I I #
straight-curve $-1 -18.307922156154341 -0.57201165545448251 76.414310105683654 0.68199835119979291 0 -0.73135370988377701 I I #
edge $-1 $363 -10.6682746106313 $211 -0.57201165545448251 $304 $370 forward 7 unknown #
point $-1 50.296945097201451 -0.57201165545448251 7.060149621571874 #
point $-1 46.365877210402026 -0.57201165545448251 7.0601496215718669 #
edge $-1 $371 1 $371 0 $214 $-1 forward 7 unknown #
vertex $-1 $215 $372 #
ellipse-curve $-1 47.47752160397954 -5.6201431330428875 4.1561076032100734 0.73135370988377701 0 0.68199835119979291 0.68199835119979291 0 -0.73135370988377701 1 I I #
point $-1 49.013409505001519 -5.6201431330428875 4.2210187610850314 #
plane-surface $-1 50.296945097201451 0 0 -1 0 0 0 0 1 forward_v I I I I #
coedge $-1 $223 $221 $225 $321 reversed $141 $-1 #
edge $-1 $236 -7.060149621571874 $323 7.060149621571874 $235 $373 forward 7 unknown #
vertex $-1 $321 $374 #
straight-curve $-1 -50.296945097201451 -26.603026983675896 0 0 0 -1 I I #
edge $-1 $319 -26.603026983675896 $323 26.603026983675896 $317 $375 forward 7 unknown #
straight-curve $-1 0 -26.603026983675896 -7.060149621571874 -1 0 0 I I #
vertex $-1 $228 $376 #
straight-curve $-1 0 26.603026983675896 -7.060149621571874 1 0 0 I I #
point $-1 50.296945097201451 26.603026983675896 -7.060149621571874 #
point $-1 50.296945097201451 -26.603026983675896 -7.060149621571874 #
straight-curve $-1 -50.296945097201451 0 7.060149621571874 0 -1 0 I I #
point $-1 -50.296945097201451 26.603026983675896 7.060149621571874 #
point $-1 -50.296945097201451 -26.603026983675896 7.060149621571874 #
straight-curve $-1 50.296945097201451 -26.603026983675896 0 0 0 -1 I I #
straight-curve $-1 50.296945097201451 26.603026983675896 0 0 0 -1 I I #
plane-surface $-1 0 -26.603026983675896 0 0 1 0 0 0 1 forward_v I I I I #
coedge $-1 $377 $248 $260 $344 reversed $160 $-1 #
coedge $-1 $248 $377 $263 $346 reversed $160 $-1 #
edge $-1 $378 -50.296945097201451 $257 -46.441108385330445 $253 $379 forward 7 unknown #
straight-curve $-1 -46.441108385330445 -11.030075666804986 7.060149621571874 0 1 0 I I #
coedge $-1 $260 $251 $254 $340 forward $246 $-1 #
straight-curve $-1 -46.441108385330445 -11.030075666804986 -7.060149621571874 0 -1 0 I I #
coedge $-1 $254 $253 $377 $380 forward $255 $-1 #
edge $-1 $256 46.441108385330445 $381 50.296945097201451 $254 $382 forward 7 unknown #
point $-1 -46.441108385330445 -26.603026983675896 -7.060149621571874 #
point $-1 -46.441108385330445 -26.603026983675896 7.060149621571874 #
straight-curve $-1 -50.296945097201451 -17.51727568354405 0 0 0 -1 I I #
edge $-1 $381 -26.603026983675896 $261 -17.51727568354405 $333 $383 forward 7 unknown #
point $-1 -50.296945097201451 -17.51727568354405 -7.060149621571874 #
edge $-1 $264 17.51727568354405 $378 26.603026983675896 $334 $384 forward 7 unknown #
point $-1 -50.296945097201451 -17.51727568354405 7.060149621571874 #
edge $-1 $349 26.009916179037127 $352 32.925463163554234 $269 $385 forward 7 unknown #
vertex $-1 $283 $386 #
straight-curve $-1 -63.108059286287556 -1.3420566764503983 7.060149621571874 -1 0 0 I I #
edge $-1 $352 -2.6253515749176026 $280 10.560168077653605 $279 $387 forward 7 unknown #
vertex $-1 $351 $388 #
straight-curve $-1 -50.296945097201444 -1.3420566764503983 0.14460263705477416 0.65605901945558964 0 0.75470958851134928 I I #
point $-1 -44.285351972208147 -1.3420566764503983 7.060149621571874 #
point $-1 -50.296945097201451 -14.527576329021606 0.144602637054766 #
straight-curve $-1 -50.296945097201451 0 7.060149621571874 0 -1 0 I I #
vertex $-1 $286 $389 #
point $-1 -45.193823836331475 -10.760284999715545 3.104212609440224 #
vertex $-1 $290 $390 #
point $-1 -45.193823836331475 -5.1093480057564555 3.104212609440224 #
coedge $-1 $305 $304 $297 $362 forward $294 $-1 #
edge $-1 $363 65.449439057947842 $366 69.664993359153925 $361 $391 forward 7 unknown #
vertex $-1 $309 $392 #
straight-curve $-1 27.630896314581758 -10.6682746106313 7.0601496215718669 1 0 0 I I #
edge $-1 $366 -7.8582030441098549 $306 2.238059911066963 $305 $393 forward 7 unknown #
vertex $-1 $365 $394 #
straight-curve $-1 -18.307922156154341 -10.6682746106313 76.414310105683654 -0.68199835119979291 0 0.73135370988377701 I I #
point $-1 46.365877210402026 -10.6682746106313 7.0601496215718669 #
point $-1 50.296945097201451 -0.57201165545448251 2.8445953203657979 #
straight-curve $-1 50.296945097201451 0 7.060149621571874 0 1 0 I I #
vertex $-1 $312 $395 #
point $-1 48.159519955179334 -5.6201431330428875 3.4247538933262964 #
straight-curve $-1 -50.296945097201451 26.603026983675896 0 0 0 -1 I I #
point $-1 -50.296945097201451 -26.603026983675896 -7.060149621571874 #
straight-curve $-1 -50.296945097201451 0 -7.060149621571874 0 1 0 I I #
point $-1 -50.296945097201451 26.603026983675896 -7.060149621571874 #
coedge $-1 $334 $333 $339 $380 reversed $160 $-1 #
vertex $-1 $346 $396 #
straight-curve $-1 0 -26.603026983675896 7.060149621571874 1 0 0 I I #
edge $-1 $378 -7.060149621571874 $381 7.060149621571874 $377 $397 forward 7 unknown #
vertex $-1 $344 $398 #
straight-curve $-1 0 -26.603026983675896 -7.060149621571874 -1 0 0 I I #
straight-curve $-1 -50.296945097201451 0 -7.060149621571874 0 1 0 I I #
straight-curve $-1 -50.296945097201451 0 7.060149621571874 0 -1 0 I I #
straight-curve $-1 -50.296945097201451 -1.3420566764503983 33.070065800609001 0 0 -1 I I #
point $-1 -50.296945097201451 -1.3420566764503983 7.060149621571874 #
straight-curve $-1 -50.296945097201451 -3.9674082513680009 0.1446026370547642 0 -1 0 I I #
point $-1 -50.296945097201451 -1.3420566764503983 0.144602637054766 #
point $-1 -45.095173267275719 -10.760284999715545 1.6934440014732852 #
point $-1 -45.095173267275719 -5.1093480057564555 1.6934440014732852 #
straight-curve $-1 50.296945097201451 -10.6682746106313 72.509588679519723 0 0 -1 I I #
point $-1 50.296945097201451 -10.6682746106313 7.060149621571874 #
straight-curve $-1 50.296945097201458 -2.8100715665214455 2.8445953203657908 0 1 0 I I #
point $-1 50.296945097201451 -10.6682746106313 2.8445953203657979 #
point $-1 46.746167894095763 -5.6201431330428875 3.4741092520102805 #
point $-1 -50.296945097201451 -26.603026983675896 7.060149621571874 #
straight-curve $-1 -50.296945097201451 -26.603026983675896 0 0 0 -1 I I #
point $-1 -50.296945097201451 -26.603026983675896 -7.060149621571874 #
End-of-ACIS-data 