500 0 8 0           
7 Unknown 11 ACIS 5.0 NT 24 Fri Mar 26 16:30:36 1999 
-1 9.9999999999999995e-007 1e-010 
body $-1 $8 $-1 $9 #
body $-1 $10 $-1 $11 #
body $-1 $12 $-1 $13 #
body $-1 $14 $-1 $15 #
body $-1 $16 $-1 $17 #
body $-1 $18 $-1 $19 #
body $-1 $20 $-1 $21 #
body $-1 $22 $-1 $23 #
lump $-1 $-1 $24 $0 #
transform $-1 1 0 0 0 1 0 0 0 1 74.625080111087385 40.227671210125798 17.536794538222022 1 rotate no_reflect no_shear #
lump $-1 $-1 $25 $1 #
transform $-1 1 0 0 0 1 0 0 0 1 74.625080111087385 40.227671210125798 17.536794538222022 1 rotate no_reflect no_shear #
lump $-1 $-1 $26 $2 #
transform $-1 1 0 0 0 1 0 0 0 1 74.625080111087385 40.227671210125798 17.536794538222022 1 rotate no_reflect no_shear #
lump $-1 $-1 $27 $3 #
transform $-1 1 0 0 0 1 0 0 0 1 74.625080111087385 40.227671210125798 17.536794538222022 1 rotate no_reflect no_shear #
lump $-1 $-1 $28 $4 #
transform $-1 1 0 0 0 1 0 0 0 1 74.625080111087385 40.227671210125798 17.536794538222022 1 rotate no_reflect no_shear #
lump $-1 $-1 $29 $5 #
transform $-1 1 0 0 0 1 0 0 0 1 74.625080111087385 40.227671210125798 17.536794538222022 1 rotate no_reflect no_shear #
lump $-1 $-1 $30 $6 #
transform $-1 1 0 0 0 1 0 0 0 1 74.625080111087385 40.227671210125798 17.536794538222022 1 rotate no_reflect no_shear #
lump $-1 $-1 $31 $7 #
transform $-1 1 0 0 0 1 0 0 0 1 74.625080111087385 40.227671210125798 17.536794538222022 1 rotate no_reflect no_shear #
shell $-1 $-1 $-1 $32 $-1 $8 #
shell $-1 $-1 $-1 $33 $-1 $10 #
shell $-1 $-1 $-1 $34 $-1 $12 #
shell $-1 $-1 $-1 $35 $-1 $14 #
shell $-1 $-1 $-1 $36 $-1 $16 #
shell $-1 $-1 $-1 $37 $-1 $18 #
shell $-1 $-1 $-1 $38 $-1 $20 #
shell $-1 $-1 $-1 $39 $-1 $22 #
face $-1 $40 $41 $24 $-1 $42 forward single #
face $-1 $43 $44 $25 $-1 $45 forward single #
face $-1 $46 $47 $26 $-1 $48 reversed single #
face $-1 $49 $50 $27 $-1 $51 forward single #
face $-1 $52 $53 $28 $-1 $54 forward single #
face $-1 $55 $56 $29 $-1 $57 forward single #
face $-1 $58 $59 $30 $-1 $60 reversed single #
face $-1 $61 $62 $31 $-1 $63 forward single #
face $-1 $64 $65 $24 $-1 $66 reversed single #
loop $-1 $-1 $67 $32 #
plane-surface $-1 0 0 17.536794538222022 0 0 1 1 0 0 forward_v I I I I #
face $-1 $68 $69 $25 $-1 $70 reversed single #
loop $-1 $-1 $71 $33 #
plane-surface $-1 0 -31.889326002028703 -7.3211523991748209 0 0 1 1 0 0 forward_v I I I I #
face $-1 $72 $73 $26 $-1 $74 reversed single #
loop $-1 $-1 $75 $34 #
plane-surface $-1 -153.71561624701258 -3.2755364165963492 136.55546107338407 0 1 0 -0.52991927123019833 0 0.84804809178421925 forward_v I I I I #
face $-1 $76 $77 $27 $-1 $78 forward single #
loop $-1 $79 $80 $35 #
cone-surface $-1 -68.316739664746123 -1.6936732468311106 13.336446972458786 0.52991927123019833 0 -0.84804809178421925 0.42402404589210962 0 0.26495963561509916 1 I I 0 1 0.5 forward I I I I #
face $-1 $81 $82 $28 $-1 $83 forward single #
loop $-1 $84 $85 $36 #
cone-surface $-1 -68.316739664746123 0.6791215078167383 13.336446972458786 0.52991927123019833 0 -0.84804809178421925 0.42402404589210962 0 0.26495963561509916 1 I I 0 1 0.5 forward I I I I #
face $-1 $86 $87 $29 $-1 $88 forward single #
loop $-1 $89 $90 $37 #
cone-surface $-1 -68.316739664746123 3.0519162624645944 13.336446972458786 0.52991927123019833 0 -0.84804809178421925 0.42402404589210962 0 0.26495963561509916 1 I I 0 1 0.5 forward I I I I #
face $-1 $91 $92 $30 $-1 $93 reversed single #
loop $-1 $-1 $94 $38 #
plane-surface $-1 34.350721831493075 16.443165173573014 220.94383983522965 0 -1 0 -0.55919291073839883 0 -0.82903756765294845 forward_v I I I I #
face $-1 $95 $96 $31 $-1 $97 forward single #
loop $-1 $98 $99 $39 #
cone-surface $-1 70.435789589332074 8.3350215619911907 13.594050361131476 -0.55919291073839883 0 -0.82903756765294845 1.2435563514794228 0 -0.83878936610759824 1 I I 0 1 1.5 forward I I I I #
face $-1 $100 $101 $24 $-1 $102 reversed single #
loop $-1 $-1 $103 $40 #
plane-surface $-1 0 0 -17.536794538222022 0 0 1 1 0 0 forward_v I I I I #
coedge $-1 $104 $105 $106 $107 forward $41 $-1 #
face $-1 $108 $109 $25 $-1 $110 reversed single #
loop $-1 $-1 $111 $43 #
plane-surface $-1 0 -31.889326002028703 -17.036794538222022 0 0 1 1 0 0 forward_v I I I I #
coedge $-1 $112 $113 $114 $115 reversed $44 $-1 #
face $-1 $116 $117 $26 $-1 $118 reversed single #
loop $-1 $-1 $119 $46 #
plane-surface $-1 -74.625080111087385 0.6791215078167383 9.9841474984797713 -0.52991927123019833 0 0.84804809178421925 0.84804809178421925 0 0.52991927123019833 forward_v I I I I #
coedge $-1 $120 $121 $122 $123 reversed $47 $-1 #
face $-1 $-1 $124 $27 $-1 $125 forward single #
loop $-1 $126 $127 $49 #
cone-surface $-1 -67.919300211323474 -1.6936732468311106 12.700410903620622 0.52991927123019833 0 -0.84804809178421925 0.21201202294605481 0 0.13247981780754958 1 I I -0.70710678118654746 0.70710678118654746 0.25 forward I I I I #
loop $-1 $-1 $128 $35 #
coedge $-1 $80 $80 $129 $130 reversed $50 $-1 #
face $-1 $-1 $131 $28 $-1 $132 forward single #
loop $-1 $133 $134 $52 #
cone-surface $-1 -67.919300211323474 0.6791215078167383 12.700410903620622 0.52991927123019833 0 -0.84804809178421925 0.21201202294605481 0 0.13247981780754958 1 I I -0.70710678118654746 0.70710678118654746 0.25 forward I I I I #
loop $-1 $-1 $135 $36 #
coedge $-1 $85 $85 $136 $137 reversed $53 $-1 #
face $-1 $-1 $138 $29 $-1 $139 forward single #
loop $-1 $140 $141 $55 #
cone-surface $-1 -67.919300211323474 3.0519162624645944 12.700410903620622 0.52991927123019833 0 -0.84804809178421925 0.21201202294605481 0 0.13247981780754958 1 I I -0.70710678118654746 0.70710678118654746 0.25 forward I I I I #
loop $-1 $-1 $142 $37 #
coedge $-1 $90 $90 $143 $144 reversed $56 $-1 #
face $-1 $145 $146 $30 $-1 $147 reversed single #
loop $-1 $-1 $148 $58 #
plane-surface $-1 -49.108909691317223 8.3350215619911907 97.209850032825045 0.55919291073839883 0 0.82903756765294845 0.82903756765294845 0 -0.55919291073839883 forward_v I I I I #
coedge $-1 $149 $150 $151 $152 reversed $59 $-1 #
face $-1 $-1 $153 $31 $-1 $154 forward single #
loop $-1 $155 $156 $61 #
cone-surface $-1 68.634019243308131 8.3350215619911907 10.922816022404863 -0.55919291073839883 0 -0.82903756765294845 0.62177817573971139 0 -0.41939468305379912 1 I I -0.70710678118654757 0.70710678118654757 0.75 forward I I I I #
loop $-1 $-1 $157 $39 #
coedge $-1 $99 $99 $158 $159 reversed $62 $-1 #
face $-1 $160 $161 $24 $-1 $162 reversed single #
loop $-1 $-1 $163 $64 #
plane-surface $-1 0 -40.227671210125798 0 0 1 0 0 0 1 forward_v I I I I #
coedge $-1 $164 $165 $166 $167 forward $65 $-1 #
coedge $-1 $168 $67 $169 $170 forward $41 $-1 #
coedge $-1 $67 $168 $171 $172 forward $41 $-1 #
coedge $-1 $173 $174 $67 $107 reversed $175 $-1 #
edge $-1 $176 -40.227671210125798 $177 40.227671210125798 $106 $178 forward 7 unknown #
face $-1 $179 $180 $25 $-1 $181 reversed single #
loop $-1 $-1 $182 $68 #
plane-surface $-1 0 -23.550980793931608 -12.178973468698421 0 -1 0 0 0 -1 forward_v I I I I #
coedge $-1 $183 $184 $185 $186 reversed $69 $-1 #
coedge $-1 $187 $71 $188 $189 forward $44 $-1 #
coedge $-1 $71 $187 $190 $191 reversed $44 $-1 #
coedge $-1 $192 $193 $71 $115 forward $194 $-1 #
edge $-1 $195 7.6063177929172561 $196 24.283008209111447 $114 $197 forward 7 unknown #
face $-1 $198 $199 $26 $-1 $200 reversed single #
loop $-1 $-1 $201 $72 #
plane-surface $-1 -153.71561624701258 4.6337794322298258 136.55546107338407 0 -1 0 0.52991927123019833 0 -0.84804809178421925 forward_v I I I I #
coedge $-1 $202 $203 $204 $205 reversed $73 $-1 #
coedge $-1 $121 $75 $206 $207 reversed $47 $-1 #
coedge $-1 $75 $120 $202 $208 reversed $47 $-1 #
coedge $-1 $204 $209 $75 $123 forward $210 $-1 #
edge $-1 $211 2.2327280124189031 $212 14.319489633871228 $122 $213 forward 7 unknown #
loop $-1 $-1 $129 $76 #
plane-surface $-1 -74.625080111087385 0.6791215078167383 9.9841474984797713 -0.52991927123019833 0 0.84804809178421925 0.84804809178421925 0 0.52991927123019833 forward_v I I I I #
loop $-1 $-1 $214 $49 #
coedge $-1 $127 $127 $128 $215 reversed $77 $-1 #
coedge $-1 $128 $128 $127 $215 forward $79 $-1 #
coedge $-1 $129 $129 $80 $130 forward $124 $-1 #
edge $-1 $216 0 $216 6.2831853071796004 $129 $217 forward 7 unknown #
loop $-1 $-1 $136 $81 #
plane-surface $-1 -74.625080111087385 0.6791215078167383 9.9841474984797713 -0.52991927123019833 0 0.84804809178421925 0.84804809178421925 0 0.52991927123019833 forward_v I I I I #
loop $-1 $-1 $218 $52 #
coedge $-1 $134 $134 $135 $219 reversed $82 $-1 #
coedge $-1 $135 $135 $134 $219 forward $84 $-1 #
coedge $-1 $136 $136 $85 $137 forward $131 $-1 #
edge $-1 $220 0 $220 6.2831853071796004 $136 $221 forward 7 unknown #
loop $-1 $-1 $143 $86 #
plane-surface $-1 -74.625080111087385 0.6791215078167383 9.9841474984797713 -0.52991927123019833 0 0.84804809178421925 0.84804809178421925 0 0.52991927123019833 forward_v I I I I #
loop $-1 $-1 $222 $55 #
coedge $-1 $141 $141 $142 $223 reversed $87 $-1 #
coedge $-1 $142 $142 $141 $223 forward $89 $-1 #
coedge $-1 $143 $143 $90 $144 forward $138 $-1 #
edge $-1 $224 0 $224 6.2831853071796004 $143 $225 forward 7 unknown #
face $-1 $226 $227 $30 $-1 $228 forward single #
loop $-1 $-1 $229 $91 #
plane-surface $-1 34.350721831493075 0.2268779504093672 220.94383983522965 0 1 0 0.55919291073839883 0 0.82903756765294845 forward_v I I I I #
coedge $-1 $230 $231 $232 $233 reversed $92 $-1 #
coedge $-1 $150 $94 $234 $235 reversed $59 $-1 #
coedge $-1 $94 $149 $230 $236 reversed $59 $-1 #
coedge $-1 $232 $237 $94 $152 forward $227 $-1 #
edge $-1 $238 -57.449719195340847 $239 -51.835889477770422 $151 $240 forward 7 unknown #
loop $-1 $-1 $158 $95 #
plane-surface $-1 -49.108909691317223 8.3350215619911907 97.209850032825045 0.55919291073839883 0 0.82903756765294845 0.82903756765294845 0 -0.55919291073839883 forward_v I I I I #
loop $-1 $-1 $241 $61 #
coedge $-1 $156 $156 $157 $242 reversed $96 $-1 #
coedge $-1 $157 $157 $156 $242 forward $98 $-1 #
coedge $-1 $158 $158 $99 $159 forward $153 $-1 #
edge $-1 $243 0 $243 6.2831853071796004 $158 $244 forward 7 unknown #
face $-1 $245 $246 $24 $-1 $247 reversed single #
loop $-1 $-1 $248 $100 #
plane-surface $-1 -74.625080111087385 0 0 1 0 0 0 0 -1 forward_v I I I I #
coedge $-1 $249 $171 $250 $251 forward $101 $-1 #
coedge $-1 $252 $103 $249 $253 forward $65 $-1 #
coedge $-1 $103 $252 $254 $255 forward $65 $-1 #
coedge $-1 $174 $173 $103 $167 reversed $175 $-1 #
edge $-1 $256 -40.227671210125798 $257 40.227671210125798 $166 $258 forward 7 unknown #
coedge $-1 $105 $104 $259 $260 forward $41 $-1 #
coedge $-1 $261 $262 $104 $170 reversed $246 $-1 #
edge $-1 $177 -74.625080111087385 $263 74.625080111087385 $169 $264 forward 7 unknown #
coedge $-1 $163 $265 $105 $172 reversed $101 $-1 #
edge $-1 $266 -74.625080111087385 $176 74.625080111087385 $171 $267 forward 7 unknown #
coedge $-1 $166 $106 $265 $268 forward $175 $-1 #
coedge $-1 $106 $166 $261 $269 reversed $175 $-1 #
loop $-1 $-1 $173 $245 #
vertex $-1 $107 $270 #
vertex $-1 $107 $271 #
straight-curve $-1 74.625080111087385 0 17.536794538222022 0 1 0 I I #
face $-1 $272 $273 $25 $-1 $274 reversed single #
loop $-1 $-1 $275 $108 #
plane-surface $-1 -74.625080111087385 0 0 1 0 0 0 0 -1 forward_v I I I I #
coedge $-1 $276 $188 $193 $277 reversed $109 $-1 #
coedge $-1 $278 $111 $279 $280 reversed $69 $-1 #
coedge $-1 $111 $278 $276 $281 forward $69 $-1 #
coedge $-1 $193 $192 $111 $186 forward $194 $-1 #
edge $-1 $282 -24.283008209111447 $283 -7.6063177929172561 $185 $284 forward 7 unknown #
coedge $-1 $113 $112 $275 $285 reversed $44 $-1 #
coedge $-1 $182 $286 $112 $189 reversed $109 $-1 #
edge $-1 $195 -74.625080111087385 $287 74.625080111087385 $188 $288 forward 7 unknown #
coedge $-1 $289 $290 $113 $191 forward $273 $-1 #
edge $-1 $196 -74.625080111087385 $291 74.625080111087385 $190 $292 forward 7 unknown #
coedge $-1 $185 $114 $290 $293 forward $194 $-1 #
coedge $-1 $114 $185 $182 $277 forward $194 $-1 #
loop $-1 $-1 $114 $272 #
vertex $-1 $115 $294 #
vertex $-1 $293 $295 #
straight-curve $-1 74.625080111087385 -15.944663001014352 -7.3211523991748209 0 -1 0 I I #
face $-1 $-1 $210 $26 $-1 $296 forward single #
loop $-1 $-1 $297 $116 #
plane-surface $-1 -74.625080111087385 0 0 1 0 0 0 0 -1 forward_v I I I I #
coedge $-1 $298 $299 $300 $301 reversed $117 $-1 #
coedge $-1 $302 $119 $121 $208 forward $73 $-1 #
coedge $-1 $119 $302 $298 $303 forward $73 $-1 #
coedge $-1 $300 $122 $119 $205 forward $210 $-1 #
edge $-1 $212 -3.6150971705047183 $304 4.2942186783214567 $204 $305 forward 7 unknown #
coedge $-1 $306 $307 $120 $207 forward $199 $-1 #
edge $-1 $308 -58.293583038212262 $211 -50.740935998470007 $206 $309 forward 7 unknown #
edge $-1 $212 -14.252448344082509 $308 0 $121 $310 forward 7 unknown #
coedge $-1 $122 $300 $306 $311 forward $210 $-1 #
loop $-1 $-1 $300 $198 #
vertex $-1 $207 $312 #
vertex $-1 $123 $313 #
straight-curve $-1 -76.857808123506288 -3.2755364165963492 17.536794538222026 1 0 0 I I #
coedge $-1 $214 $214 $-1 $314 reversed $126 $-1 #
edge $-1 $315 0 $315 6.2831853071796004 $127 $316 forward 7 unknown #
vertex $-1 $130 $317 #
ellipse-curve $-1 -68.581699300361223 -1.6936732468311106 13.760471018350897 -0.52991927123019833 0 0.84804809178421925 0.42402404589210962 0 0.26495963561509916 1 I I #
coedge $-1 $218 $218 $-1 $318 reversed $133 $-1 #
edge $-1 $319 0 $319 6.2831853071796004 $134 $320 forward 7 unknown #
vertex $-1 $137 $321 #
ellipse-curve $-1 -68.581699300361223 0.6791215078167383 13.760471018350897 -0.52991927123019833 0 0.84804809178421925 0.42402404589210962 0 0.26495963561509916 1 I I #
coedge $-1 $222 $222 $-1 $322 reversed $140 $-1 #
edge $-1 $323 0 $323 6.2831853071796004 $141 $324 forward 7 unknown #
vertex $-1 $144 $325 #
ellipse-curve $-1 -68.581699300361223 3.0519162624645944 13.760471018350897 -0.52991927123019833 0 0.84804809178421925 0.42402404589210962 0 0.26495963561509916 1 I I #
face $-1 $-1 $326 $30 $-1 $327 reversed single #
loop $-1 $-1 $151 $145 #
plane-surface $-1 0 0 17.536794538222022 0 0 1 1 0 0 forward_v I I I I #
coedge $-1 $328 $329 $330 $331 reversed $146 $-1 #
coedge $-1 $332 $148 $150 $236 forward $92 $-1 #
coedge $-1 $148 $332 $328 $333 forward $92 $-1 #
coedge $-1 $330 $151 $148 $233 forward $227 $-1 #
edge $-1 $239 -12.275654392577419 $334 3.9406328305862282 $232 $335 forward 7 unknown #
coedge $-1 $336 $337 $149 $235 forward $326 $-1 #
edge $-1 $338 -96.721701407600079 $238 -92.935125379392801 $234 $339 forward 7 unknown #
edge $-1 $239 142.47865801695684 $338 149.25016022217477 $150 $340 forward 7 unknown #
coedge $-1 $151 $330 $336 $341 forward $227 $-1 #
vertex $-1 $235 $342 #
vertex $-1 $152 $343 #
straight-curve $-1 17.175360915746538 16.443165173573014 17.536794538222026 -1 0 0 I I #
coedge $-1 $241 $241 $-1 $344 reversed $155 $-1 #
edge $-1 $345 0 $345 6.2831853071796004 $156 $346 forward 7 unknown #
vertex $-1 $159 $347 #
ellipse-curve $-1 71.818165252302208 8.3350215619911907 15.643506524118365 0.55919291073839883 0 0.82903756765294845 1.2435563514794228 0 -0.83878936610759824 1 I I #
face $-1 $-1 $175 $24 $-1 $348 reversed single #
loop $-1 $-1 $261 $160 #
plane-surface $-1 0 40.227671210125798 0 0 -1 0 0 0 -1 forward_v I I I I #
coedge $-1 $349 $259 $262 $350 forward $161 $-1 #
coedge $-1 $265 $163 $164 $253 reversed $101 $-1 #
coedge $-1 $259 $349 $163 $251 reversed $161 $-1 #
edge $-1 $266 -17.536794538222022 $351 17.536794538222022 $250 $352 forward 7 unknown #
coedge $-1 $165 $164 $349 $353 forward $65 $-1 #
edge $-1 $257 -74.625080111087385 $351 74.625080111087385 $249 $354 forward 7 unknown #
coedge $-1 $262 $261 $165 $255 reversed $246 $-1 #
edge $-1 $355 -74.625080111087385 $256 74.625080111087385 $254 $356 forward 7 unknown #
vertex $-1 $167 $357 #
vertex $-1 $268 $358 #
straight-curve $-1 74.625080111087385 0 -17.536794538222022 0 -1 0 I I #
coedge $-1 $248 $250 $168 $260 reversed $161 $-1 #
edge $-1 $263 -40.227671210125798 $266 40.227671210125798 $259 $359 forward 7 unknown #
coedge $-1 $254 $169 $174 $269 forward $246 $-1 #
coedge $-1 $169 $254 $248 $350 reversed $246 $-1 #
vertex $-1 $170 $360 #
straight-curve $-1 0 40.227671210125798 17.536794538222022 -1 0 0 I I #
coedge $-1 $171 $249 $173 $268 reversed $101 $-1 #
vertex $-1 $260 $361 #
straight-curve $-1 0 -40.227671210125798 17.536794538222022 1 0 0 I I #
edge $-1 $176 -17.536794538222022 $257 17.536794538222022 $173 $362 forward 7 unknown #
edge $-1 $177 -17.536794538222022 $256 17.536794538222022 $174 $363 forward 7 unknown #
point $-1 74.625080111087385 -40.227671210125798 17.536794538222022 #
point $-1 74.625080111087385 40.227671210125798 17.536794538222022 #
face $-1 $-1 $194 $25 $-1 $364 reversed single #
loop $-1 $-1 $190 $179 #
plane-surface $-1 0 -40.227671210125798 0 0 1 0 0 0 1 forward_v I I I I #
coedge $-1 $365 $366 $187 $285 forward $180 $-1 #
coedge $-1 $286 $182 $184 $281 reversed $109 $-1 #
edge $-1 $283 -10.94730780387281 $195 -1.2316656648256101 $193 $367 forward 7 unknown #
coedge $-1 $184 $183 $368 $369 reversed $69 $-1 #
coedge $-1 $290 $289 $183 $280 forward $273 $-1 #
edge $-1 $370 -74.625080111087385 $282 74.625080111087385 $279 $371 forward 7 unknown #
edge $-1 $372 -74.625080111087385 $283 74.625080111087385 $276 $373 forward 7 unknown #
vertex $-1 $280 $374 #
vertex $-1 $186 $375 #
straight-curve $-1 74.625080111087385 -15.944663001014352 -17.036794538222022 0 1 0 I I #
edge $-1 $291 -24.283008209111447 $287 -7.6063177929172561 $275 $376 forward 7 unknown #
coedge $-1 $188 $276 $365 $377 reversed $109 $-1 #
vertex $-1 $285 $378 #
straight-curve $-1 0 -23.550980793931608 -7.3211523991748209 -1 0 0 I I #
coedge $-1 $279 $190 $366 $379 forward $273 $-1 #
coedge $-1 $190 $279 $192 $293 reversed $273 $-1 #
vertex $-1 $379 $380 #
straight-curve $-1 0 -40.227671210125798 -7.3211523991748209 -1 0 0 I I #
edge $-1 $196 7.3211523991748209 $282 17.036794538222022 $192 $381 forward 7 unknown #
point $-1 74.625080111087385 -23.550980793931608 -7.3211523991748209 #
point $-1 74.625080111087385 -40.227671210125798 -7.3211523991748209 #
plane-surface $-1 0 0 17.536794538222022 0 0 1 1 0 0 forward_v I I I I #
coedge $-1 $307 $306 $299 $382 forward $199 $-1 #
coedge $-1 $299 $201 $203 $303 reversed $117 $-1 #
coedge $-1 $201 $298 $297 $382 reversed $117 $-1 #
coedge $-1 $209 $204 $201 $301 forward $210 $-1 #
edge $-1 $304 -14.319489633871228 $383 -2.2327280124189031 $300 $384 forward 7 unknown #
coedge $-1 $203 $202 $307 $385 reversed $73 $-1 #
edge $-1 $386 0 $304 14.252448344082509 $298 $387 forward 7 unknown #
vertex $-1 $205 $388 #
straight-curve $-1 -62.53831848963506 0.33956075390836915 17.536794538222019 0 1 0 I I #
coedge $-1 $297 $206 $209 $311 reversed $199 $-1 #
coedge $-1 $206 $297 $302 $385 forward $199 $-1 #
vertex $-1 $207 $389 #
straight-curve $-1 -74.625080111087385 -3.2755364165963492 68.277730536692033 0 0 1 I I #
straight-curve $-1 -74.625080111087385 -3.2755364165963492 9.9841474984797713 -0.84804809178421925 0 -0.52991927123019833 I I #
edge $-1 $383 -4.6337794322298258 $211 3.2755364165963492 $306 $390 forward 7 unknown #
point $-1 -74.625080111087385 -3.2755364165963492 17.536794538222022 #
point $-1 -62.53831848963506 -3.2755364165963492 17.536794538222022 #
edge $-1 $391 1 $391 0 $214 $-1 forward 7 unknown #
vertex $-1 $215 $392 #
ellipse-curve $-1 -68.051780029131024 -1.6936732468311106 12.912422926566677 -0.52991927123019833 0 0.84804809178421925 0.42402404589210962 0 0.26495963561509916 1 I I #
point $-1 -68.157675254469112 -1.6936732468311106 14.025430653965994 #
edge $-1 $393 1 $393 0 $218 $-1 forward 7 unknown #
vertex $-1 $219 $394 #
ellipse-curve $-1 -68.051780029131024 0.6791215078167383 12.912422926566677 -0.52991927123019833 0 0.84804809178421925 0.42402404589210962 0 0.26495963561509916 1 I I #
point $-1 -68.157675254469112 0.6791215078167383 14.025430653965994 #
edge $-1 $395 1 $395 0 $222 $-1 forward 7 unknown #
vertex $-1 $223 $396 #
ellipse-curve $-1 -68.051780029131024 3.0519162624645944 12.912422926566677 -0.52991927123019833 0 0.84804809178421925 0.42402404589210962 0 0.26495963561509916 1 I I #
point $-1 -68.157675254469112 3.0519162624645944 14.025430653965994 #
loop $-1 $-1 $234 $226 #
plane-surface $-1 74.625080111087385 0 0 -1 0 0 0 0 1 forward_v I I I I #
coedge $-1 $329 $229 $231 $333 reversed $146 $-1 #
coedge $-1 $229 $328 $397 $398 reversed $146 $-1 #
coedge $-1 $237 $232 $229 $331 forward $227 $-1 #
edge $-1 $334 51.835889477770422 $399 57.449719195340847 $330 $400 forward 7 unknown #
coedge $-1 $231 $230 $337 $401 reversed $92 $-1 #
edge $-1 $402 -149.25016022217477 $334 -142.47865801695684 $328 $403 forward 7 unknown #
vertex $-1 $233 $404 #
straight-curve $-1 69.011250393516974 4.1675107809955954 17.536794538222026 0 -1 0 I I #
coedge $-1 $397 $234 $237 $341 reversed $326 $-1 #
coedge $-1 $234 $397 $332 $401 forward $326 $-1 #
vertex $-1 $235 $405 #
straight-curve $-1 74.625080111087385 16.443165173573014 110.47191991761483 0 0 1 I I #
straight-curve $-1 -49.108909691317223 16.443165173573014 97.209850032825045 0.82903756765294845 0 -0.55919291073839883 I I #
edge $-1 $399 0.2268779504093672 $238 16.443165173573014 $336 $406 forward 7 unknown #
point $-1 74.625080111087385 16.443165173573014 17.536794538222022 #
point $-1 69.01125039351696 16.443165173573014 17.536794538222026 #
edge $-1 $407 1 $407 0 $241 $-1 forward 7 unknown #
vertex $-1 $242 $408 #
ellipse-curve $-1 69.053413926361927 8.3350215619911907 11.544594198144575 0.55919291073839883 0 0.82903756765294845 1.2435563514794228 0 -0.83878936610759824 1 I I #
point $-1 73.061721603781635 8.3350215619911907 14.80471715801078 #
plane-surface $-1 74.625080111087385 0 0 -1 0 0 0 0 1 forward_v I I I I #
coedge $-1 $250 $248 $252 $353 reversed $161 $-1 #
edge $-1 $263 -17.536794538222022 $355 17.536794538222022 $262 $409 forward 7 unknown #
vertex $-1 $353 $410 #
straight-curve $-1 -74.625080111087385 -40.227671210125798 0 0 0 -1 I I #
edge $-1 $351 -40.227671210125798 $355 40.227671210125798 $349 $411 forward 7 unknown #
straight-curve $-1 0 -40.227671210125798 -17.536794538222022 -1 0 0 I I #
vertex $-1 $255 $412 #
straight-curve $-1 0 40.227671210125798 -17.536794538222022 1 0 0 I I #
point $-1 74.625080111087385 40.227671210125798 -17.536794538222022 #
point $-1 74.625080111087385 -40.227671210125798 -17.536794538222022 #
straight-curve $-1 -74.625080111087385 0 17.536794538222022 0 -1 0 I I #
point $-1 -74.625080111087385 40.227671210125798 17.536794538222022 #
point $-1 -74.625080111087385 -40.227671210125798 17.536794538222022 #
straight-curve $-1 74.625080111087385 -40.227671210125798 0 0 0 -1 I I #
straight-curve $-1 74.625080111087385 40.227671210125798 0 0 0 -1 I I #
plane-surface $-1 74.625080111087385 0 0 -1 0 0 0 0 1 forward_v I I I I #
coedge $-1 $368 $275 $286 $377 forward $180 $-1 #
coedge $-1 $275 $368 $289 $379 reversed $180 $-1 #
straight-curve $-1 74.625080111087385 -23.550980793931608 -6.0894867343492107 0 0 1 I I #
coedge $-1 $366 $365 $278 $369 forward $180 $-1 #
edge $-1 $372 7.6063177929172561 $370 24.283008209111447 $368 $413 forward 7 unknown #
vertex $-1 $280 $414 #
straight-curve $-1 0 -40.227671210125798 -17.036794538222022 1 0 0 I I #
vertex $-1 $369 $415 #
straight-curve $-1 0 -23.550980793931608 -17.036794538222022 1 0 0 I I #
point $-1 74.625080111087385 -40.227671210125798 -17.036794538222022 #
point $-1 74.625080111087385 -23.550980793931608 -17.036794538222022 #
straight-curve $-1 -74.625080111087385 -15.944663001014352 -7.3211523991748209 0 1 0 I I #
edge $-1 $287 1.2316656648256101 $372 10.94730780387281 $365 $416 forward 7 unknown #
point $-1 -74.625080111087385 -23.550980793931608 -7.3211523991748209 #
edge $-1 $291 7.3211523991748209 $370 17.036794538222022 $366 $417 forward 7 unknown #
point $-1 -74.625080111087385 -40.227671210125798 -7.3211523991748209 #
straight-curve $-1 74.625080111087385 -40.227671210125798 0 0 0 -1 I I #
edge $-1 $383 50.740935998470007 $386 58.293583038212262 $297 $418 forward 7 unknown #
vertex $-1 $311 $419 #
straight-curve $-1 -76.857808123506288 4.6337794322298258 17.536794538222026 -1 0 0 I I #
edge $-1 $386 -4.2942186783214567 $308 3.6150971705047183 $307 $420 forward 7 unknown #
vertex $-1 $385 $421 #
straight-curve $-1 -74.625080111087385 4.6337794322298258 9.9841474984797713 0.84804809178421925 0 0.52991927123019833 I I #
point $-1 -62.53831848963506 4.6337794322298258 17.536794538222022 #
point $-1 -74.625080111087385 -3.2755364165963492 9.9841474984797713 #
straight-curve $-1 -74.625080111087385 0 17.536794538222022 0 -1 0 I I #
vertex $-1 $314 $422 #
point $-1 -67.627755983238913 -1.6936732468311106 13.177382562181776 #
vertex $-1 $318 $423 #
point $-1 -67.627755983238913 0.6791215078167383 13.177382562181776 #
vertex $-1 $322 $424 #
point $-1 -67.627755983238913 3.0519162624645944 13.177382562181776 #
coedge $-1 $337 $336 $329 $398 forward $326 $-1 #
edge $-1 $399 92.935125379392801 $402 96.721701407600079 $397 $425 forward 7 unknown #
vertex $-1 $341 $426 #
straight-curve $-1 17.175360915746538 0.2268779504093672 17.536794538222026 1 0 0 I I #
edge $-1 $402 -3.9406328305862282 $338 12.275654392577419 $337 $427 forward 7 unknown #
vertex $-1 $401 $428 #
straight-curve $-1 -49.108909691317223 0.2268779504093672 97.209850032825045 -0.82903756765294845 0 0.55919291073839883 I I #
point $-1 69.01125039351696 0.2268779504093672 17.536794538222026 #
point $-1 74.625080111087385 16.443165173573014 13.750218510014747 #
straight-curve $-1 74.625080111087385 0 17.536794538222022 0 1 0 I I #
vertex $-1 $344 $429 #
point $-1 70.296970277841353 8.3350215619911907 10.705804832036977 #
straight-curve $-1 -74.625080111087385 40.227671210125798 0 0 0 -1 I I #
point $-1 -74.625080111087385 -40.227671210125798 -17.536794538222022 #
straight-curve $-1 -74.625080111087385 0 -17.536794538222022 0 1 0 I I #
point $-1 -74.625080111087385 40.227671210125798 -17.536794538222022 #
straight-curve $-1 -74.625080111087385 -15.944663001014352 -17.036794538222022 0 -1 0 I I #
point $-1 -74.625080111087385 -40.227671210125798 -17.036794538222022 #
point $-1 -74.625080111087385 -23.550980793931608 -17.036794538222022 #
straight-curve $-1 -74.625080111087385 -23.550980793931608 -6.0894867343492107 0 0 -1 I I #
straight-curve $-1 -74.625080111087385 -40.227671210125798 0 0 0 -1 I I #
straight-curve $-1 -74.625080111087385 4.6337794322298258 68.277730536692033 0 0 -1 I I #
point $-1 -74.625080111087385 4.6337794322298258 17.536794538222022 #
straight-curve $-1 -74.625080111087385 0.33956075390836915 9.9841474984797713 0 -1 0 I I #
point $-1 -74.625080111087385 4.6337794322298258 9.9841474984797713 #
point $-1 -67.786820393515924 -1.6936732468311106 12.488398880674566 #
point $-1 -67.786820393515924 0.6791215078167383 12.488398880674566 #
point $-1 -67.786820393515924 3.0519162624645944 12.488398880674566 #
straight-curve $-1 74.625080111087385 0.2268779504093672 110.47191991761483 0 0 -1 I I #
point $-1 74.625080111087385 0.2268779504093672 17.536794538222022 #
straight-curve $-1 74.625080111087399 4.1675107809955954 13.75021851001474 0 1 0 I I #
point $-1 74.625080111087385 0.2268779504093672 13.750218510014747 #
point $-1 68.214624560254336 8.3350215619911907 10.301037846665151 #
End-of-ACIS-data 