500 0 14 0           
7 Unknown 11 ACIS 5.0 NT 24 Thu Mar 25 23:39:24 1999 
-1 9.9999999999999995e-007 1e-010 
body $-1 $14 $-1 $15 #
body $-1 $16 $-1 $17 #
body $-1 $18 $-1 $19 #
body $-1 $20 $-1 $21 #
body $-1 $22 $-1 $23 #
body $-1 $24 $-1 $25 #
body $-1 $26 $-1 $27 #
body $-1 $28 $-1 $29 #
body $-1 $30 $-1 $31 #
body $-1 $32 $-1 $33 #
body $-1 $34 $-1 $35 #
body $-1 $36 $-1 $37 #
body $-1 $38 $-1 $39 #
body $-1 $40 $-1 $41 #
lump $-1 $-1 $42 $0 #
transform $-1 1 0 0 0 1 0 0 0 1 55.570543534653766 33.943363769300859 14.850364085438592 1 rotate no_reflect no_shear #
lump $-1 $-1 $43 $1 #
transform $-1 1 0 0 0 1 0 0 0 1 55.570543534653766 33.943363769300859 14.850364085438592 1 rotate no_reflect no_shear #
lump $-1 $-1 $44 $2 #
transform $-1 1 0 0 0 1 0 0 0 1 55.570543534653766 33.943363769300859 14.850364085438592 1 rotate no_reflect no_shear #
lump $-1 $-1 $45 $3 #
transform $-1 1 0 0 0 1 0 0 0 1 55.570543534653766 33.943363769300859 14.850364085438592 1 rotate no_reflect no_shear #
lump $-1 $-1 $46 $4 #
transform $-1 1 0 0 0 1 0 0 0 1 55.570543534653766 33.943363769300859 14.850364085438592 1 rotate no_reflect no_shear #
lump $-1 $-1 $47 $5 #
transform $-1 1 0 0 0 1 0 0 0 1 55.570543534653766 33.943363769300859 14.850364085438592 1 rotate no_reflect no_shear #
lump $-1 $-1 $48 $6 #
transform $-1 1 0 0 0 1 0 0 0 1 55.570543534653766 33.943363769300859 14.850364085438592 1 rotate no_reflect no_shear #
lump $-1 $-1 $49 $7 #
transform $-1 1 0 0 0 1 0 0 0 1 55.570543534653766 33.943363769300859 14.850364085438592 1 rotate no_reflect no_shear #
lump $-1 $-1 $50 $8 #
transform $-1 1 0 0 0 1 0 0 0 1 55.570543534653766 33.943363769300859 14.850364085438592 1 rotate no_reflect no_shear #
lump $-1 $-1 $51 $9 #
transform $-1 1 0 0 0 1 0 0 0 1 55.570543534653766 33.943363769300859 14.850364085438592 1 rotate no_reflect no_shear #
lump $-1 $-1 $52 $10 #
transform $-1 1 0 0 0 1 0 0 0 1 55.570543534653766 33.943363769300859 14.850364085438592 1 rotate no_reflect no_shear #
lump $-1 $-1 $53 $11 #
transform $-1 1 0 0 0 1 0 0 0 1 55.570543534653766 33.943363769300859 14.850364085438592 1 rotate no_reflect no_shear #
lump $-1 $-1 $54 $12 #
transform $-1 1 0 0 0 1 0 0 0 1 55.570543534653766 33.943363769300859 14.850364085438592 1 rotate no_reflect no_shear #
lump $-1 $-1 $55 $13 #
transform $-1 1 0 0 0 1 0 0 0 1 55.570543534653766 33.943363769300859 14.850364085438592 1 rotate no_reflect no_shear #
shell $-1 $-1 $-1 $56 $-1 $14 #
shell $-1 $-1 $-1 $57 $-1 $16 #
shell $-1 $-1 $-1 $58 $-1 $18 #
shell $-1 $-1 $-1 $59 $-1 $20 #
shell $-1 $-1 $-1 $60 $-1 $22 #
shell $-1 $-1 $-1 $61 $-1 $24 #
shell $-1 $-1 $-1 $62 $-1 $26 #
shell $-1 $-1 $-1 $63 $-1 $28 #
shell $-1 $-1 $-1 $64 $-1 $30 #
shell $-1 $-1 $-1 $65 $-1 $32 #
shell $-1 $-1 $-1 $66 $-1 $34 #
shell $-1 $-1 $-1 $67 $-1 $36 #
shell $-1 $-1 $-1 $68 $-1 $38 #
shell $-1 $-1 $-1 $69 $-1 $40 #
face $-1 $70 $71 $42 $-1 $72 forward single #
face $-1 $73 $74 $43 $-1 $75 forward single #
face $-1 $76 $77 $44 $-1 $78 reversed single #
face $-1 $79 $80 $45 $-1 $81 forward single #
face $-1 $82 $83 $46 $-1 $84 forward single #
face $-1 $85 $86 $47 $-1 $87 forward single #
face $-1 $88 $89 $48 $-1 $90 reversed single #
face $-1 $91 $92 $49 $-1 $93 forward single #
face $-1 $94 $95 $50 $-1 $96 forward single #
face $-1 $97 $98 $51 $-1 $99 forward single #
face $-1 $100 $101 $52 $-1 $102 reversed single #
face $-1 $103 $104 $53 $-1 $105 forward single #
face $-1 $106 $107 $54 $-1 $108 forward single #
face $-1 $109 $110 $55 $-1 $111 forward single #
face $-1 $112 $113 $42 $-1 $114 reversed single #
loop $-1 $-1 $115 $56 #
plane-surface $-1 0 0 14.850364085438592 0 0 1 1 0 0 forward_v I I I I #
face $-1 $116 $117 $43 $-1 $118 reversed single #
loop $-1 $-1 $119 $57 #
plane-surface $-1 0 -33.943363769300859 0 0 1 0 0 0 1 forward_v I I I I #
face $-1 $120 $121 $44 $-1 $122 reversed single #
loop $-1 $-1 $123 $58 #
plane-surface $-1 -134.15916078163411 -18.87702652485244 83.579098959044302 0 1 0 -0.70710678939079041 0 0.70710677298230451 forward_v I I I I #
face $-1 $124 $125 $45 $-1 $126 forward single #
loop $-1 $127 $128 $59 #
cone-surface $-1 -49.656681119826629 -16.364611564843191 8.9365015790437088 0.70710678939079041 0 -0.70710677298230451 0.70710677298230451 0 0.70710678939079041 1 I I 0 1 1 forward I I I I #
face $-1 $129 $130 $46 $-1 $131 forward single #
loop $-1 $132 $133 $60 #
cone-surface $-1 -49.656681119826629 -12.595989124829313 8.9365015790437088 0.70710678939079041 0 -0.70710677298230451 0.70710677298230451 0 0.70710678939079041 1 I I 0 1 1 forward I I I I #
face $-1 $134 $135 $47 $-1 $136 forward single #
loop $-1 $137 $138 $61 #
cone-surface $-1 -49.656681119826629 -8.8273666848154342 8.9365015790437088 0.70710678939079041 0 -0.70710677298230451 0.70710677298230451 0 0.70710678939079041 1 I I 0 1 1 forward I I I I #
face $-1 $139 $140 $48 $-1 $141 reversed single #
loop $-1 $-1 $142 $62 #
plane-surface $-1 22.891560640238723 -9.6527964848490146 165.10683246695962 0 -1 0 -0.54463904215088732 0 -0.83867056331134215 forward_v I I I I #
face $-1 $143 $144 $49 $-1 $145 forward single #
loop $-1 $146 $147 $63 #
cone-surface $-1 52.614189445345971 -17.032180516851756 12.687996342299874 -0.54463904215088732 0 -0.83867056331134215 0.41933528165567108 0 -0.27231952107544366 1 I I 0 1 0.5 forward I I I I #
face $-1 $148 $149 $50 $-1 $150 forward single #
loop $-1 $151 $152 $64 #
cone-surface $-1 52.614189445345971 -14.264911504850726 12.687996342299874 -0.54463904215088732 0 -0.83867056331134215 0.41933528165567108 0 -0.27231952107544366 1 I I 0 1 0.5 forward I I I I #
face $-1 $153 $154 $51 $-1 $155 forward single #
loop $-1 $156 $157 $65 #
cone-surface $-1 52.614189445345971 -11.497642492849696 12.687996342299874 -0.54463904215088732 0 -0.83867056331134215 0.41933528165567108 0 -0.27231952107544366 1 I I 0 1 0.5 forward I I I I #
face $-1 $158 $159 $52 $-1 $160 reversed single #
loop $-1 $-1 $161 $66 #
plane-surface $-1 22.891560640238723 16.757398662227637 165.10683246695962 0 -1 0 -0.54463904215088732 0 -0.83867056331134215 forward_v I I I I #
face $-1 $162 $163 $53 $-1 $164 forward single #
loop $-1 $165 $166 $67 #
cone-surface $-1 52.614189445345971 9.3780146302248895 12.687996342299874 -0.54463904215088732 0 -0.83867056331134215 0.41933528165567108 0 -0.27231952107544366 1 I I 0 1 0.5 forward I I I I #
face $-1 $167 $168 $54 $-1 $169 forward single #
loop $-1 $170 $171 $68 #
cone-surface $-1 52.614189445345971 12.14528364222592 12.687996342299874 -0.54463904215088732 0 -0.83867056331134215 0.41933528165567108 0 -0.27231952107544366 1 I I 0 1 0.5 forward I I I I #
face $-1 $172 $173 $55 $-1 $174 forward single #
loop $-1 $175 $176 $69 #
cone-surface $-1 52.614189445345971 14.91255265422695 12.687996342299874 -0.54463904215088732 0 -0.83867056331134215 0.41933528165567108 0 -0.27231952107544366 1 I I 0 1 0.5 forward I I I I #
face $-1 $177 $178 $42 $-1 $179 reversed single #
loop $-1 $-1 $180 $70 #
plane-surface $-1 0 0 -14.850364085438592 0 0 1 1 0 0 forward_v I I I I #
coedge $-1 $181 $182 $183 $184 forward $71 $-1 #
face $-1 $185 $186 $43 $-1 $187 reversed single #
loop $-1 $-1 $188 $73 #
plane-surface $-1 0 0 -14.850364085438592 0 0 1 1 0 0 forward_v I I I I #
coedge $-1 $189 $190 $191 $192 forward $74 $-1 #
face $-1 $193 $194 $44 $-1 $195 reversed single #
loop $-1 $-1 $196 $76 #
plane-surface $-1 -55.57054353465378 -12.595989124829309 4.9904835357209265 -0.70710678939079041 0 0.70710677298230451 0.70710677298230451 0 0.70710678939079041 forward_v I I I I #
coedge $-1 $197 $198 $199 $200 reversed $77 $-1 #
face $-1 $-1 $201 $45 $-1 $202 forward single #
loop $-1 $203 $204 $79 #
cone-surface $-1 -48.319205470763173 -16.364611564843191 7.5990259610165083 0.70710678939079041 0 -0.70710677298230451 0.35355338649115226 0 0.35355339469539521 1 I I -0.70710678118654746 0.70710678118654746 0.5 forward I I I I #
loop $-1 $-1 $205 $59 #
coedge $-1 $128 $128 $206 $207 reversed $80 $-1 #
face $-1 $-1 $208 $46 $-1 $209 forward single #
loop $-1 $210 $211 $82 #
cone-surface $-1 -48.319205470763173 -12.595989124829313 7.5990259610165083 0.70710678939079041 0 -0.70710677298230451 0.35355338649115226 0 0.35355339469539521 1 I I -0.70710678118654746 0.70710678118654746 0.5 forward I I I I #
loop $-1 $-1 $212 $60 #
coedge $-1 $133 $133 $213 $214 reversed $83 $-1 #
face $-1 $-1 $215 $47 $-1 $216 forward single #
loop $-1 $217 $218 $85 #
cone-surface $-1 -48.319205470763173 -8.8273666848154342 7.5990259610165083 0.70710678939079041 0 -0.70710677298230451 0.35355338649115226 0 0.35355339469539521 1 I I -0.70710678118654746 0.70710678118654746 0.5 forward I I I I #
loop $-1 $-1 $219 $61 #
coedge $-1 $138 $138 $220 $221 reversed $86 $-1 #
face $-1 $222 $223 $48 $-1 $224 reversed single #
loop $-1 $-1 $225 $88 #
plane-surface $-1 -37.640214564797297 -14.26491150485073 71.896074367508547 0.54463904215088732 0 0.83867056331134215 0.83867056331134215 0 -0.54463904215088732 forward_v I I I I #
coedge $-1 $226 $227 $228 $229 reversed $89 $-1 #
face $-1 $-1 $230 $49 $-1 $231 forward single #
loop $-1 $232 $233 $91 #
cone-surface $-1 52.205710163732803 -17.032180516851756 12.058993419816368 -0.54463904215088732 0 -0.83867056331134215 0.20966764082783554 0 -0.13615976053772183 1 I I -0.70710678118654746 0.70710678118654746 0.25 forward I I I I #
loop $-1 $-1 $234 $63 #
coedge $-1 $147 $147 $235 $236 reversed $92 $-1 #
face $-1 $-1 $237 $50 $-1 $238 forward single #
loop $-1 $239 $240 $94 #
cone-surface $-1 52.205710163732803 -14.264911504850726 12.058993419816368 -0.54463904215088732 0 -0.83867056331134215 0.20966764082783554 0 -0.13615976053772183 1 I I -0.70710678118654746 0.70710678118654746 0.25 forward I I I I #
loop $-1 $-1 $241 $64 #
coedge $-1 $152 $152 $242 $243 reversed $95 $-1 #
face $-1 $-1 $244 $51 $-1 $245 forward single #
loop $-1 $246 $247 $97 #
cone-surface $-1 52.205710163732803 -11.497642492849696 12.058993419816368 -0.54463904215088732 0 -0.83867056331134215 0.20966764082783554 0 -0.13615976053772183 1 I I -0.70710678118654746 0.70710678118654746 0.25 forward I I I I #
loop $-1 $-1 $248 $65 #
coedge $-1 $157 $157 $249 $250 reversed $98 $-1 #
face $-1 $251 $252 $52 $-1 $253 reversed single #
loop $-1 $-1 $254 $100 #
plane-surface $-1 -37.640214564797297 12.14528364222592 71.896074367508547 0.54463904215088732 0 0.83867056331134215 0.83867056331134215 0 -0.54463904215088732 forward_v I I I I #
coedge $-1 $255 $256 $257 $258 reversed $101 $-1 #
face $-1 $-1 $259 $53 $-1 $260 forward single #
loop $-1 $261 $262 $103 #
cone-surface $-1 52.205710163732803 9.3780146302248895 12.058993419816368 -0.54463904215088732 0 -0.83867056331134215 0.20966764082783554 0 -0.13615976053772183 1 I I -0.70710678118654746 0.70710678118654746 0.25 forward I I I I #
loop $-1 $-1 $263 $67 #
coedge $-1 $166 $166 $264 $265 reversed $104 $-1 #
face $-1 $-1 $266 $54 $-1 $267 forward single #
loop $-1 $268 $269 $106 #
cone-surface $-1 52.205710163732803 12.14528364222592 12.058993419816368 -0.54463904215088732 0 -0.83867056331134215 0.20966764082783554 0 -0.13615976053772183 1 I I -0.70710678118654746 0.70710678118654746 0.25 forward I I I I #
loop $-1 $-1 $270 $68 #
coedge $-1 $171 $171 $271 $272 reversed $107 $-1 #
face $-1 $-1 $273 $55 $-1 $274 forward single #
loop $-1 $275 $276 $109 #
cone-surface $-1 52.205710163732803 14.91255265422695 12.058993419816368 -0.54463904215088732 0 -0.83867056331134215 0.20966764082783554 0 -0.13615976053772183 1 I I -0.70710678118654746 0.70710678118654746 0.25 forward I I I I #
loop $-1 $-1 $277 $69 #
coedge $-1 $176 $176 $278 $279 reversed $110 $-1 #
face $-1 $280 $281 $42 $-1 $282 reversed single #
loop $-1 $-1 $283 $112 #
plane-surface $-1 0 -33.943363769300859 0 0 1 0 0 0 1 forward_v I I I I #
coedge $-1 $284 $285 $286 $287 forward $113 $-1 #
coedge $-1 $288 $115 $289 $290 forward $71 $-1 #
coedge $-1 $115 $288 $291 $292 forward $71 $-1 #
coedge $-1 $293 $294 $115 $184 reversed $295 $-1 #
edge $-1 $296 -33.943363769300859 $297 33.943363769300859 $183 $298 forward 7 unknown #
face $-1 $299 $300 $43 $-1 $301 reversed single #
loop $-1 $-1 $302 $116 #
plane-surface $-1 -29.706176446117084 -49.009701013749279 0 0 1 0 0 0 1 forward_v I I I I #
coedge $-1 $303 $304 $190 $305 forward $117 $-1 #
coedge $-1 $306 $119 $307 $308 reversed $74 $-1 #
coedge $-1 $119 $306 $188 $305 reversed $74 $-1 #
coedge $-1 $309 $310 $119 $192 reversed $300 $-1 #
edge $-1 $311 -14.850364085438592 $312 14.850364085438592 $191 $313 forward 7 unknown #
face $-1 $314 $315 $44 $-1 $316 reversed single #
loop $-1 $-1 $317 $120 #
plane-surface $-1 -134.15916078163411 -6.3149517248061766 83.579098959044302 0 -1 0 0.70710678939079041 0 -0.70710677298230451 forward_v I I I I #
coedge $-1 $318 $319 $320 $321 reversed $121 $-1 #
coedge $-1 $198 $123 $322 $323 reversed $77 $-1 #
coedge $-1 $123 $197 $318 $324 reversed $77 $-1 #
coedge $-1 $320 $325 $123 $200 forward $326 $-1 #
edge $-1 $327 11.509036856163291 $328 21.3689171770814 $199 $329 forward 7 unknown #
loop $-1 $-1 $206 $124 #
plane-surface $-1 -55.57054353465378 -12.595989124829309 4.9904835357209265 -0.70710678939079041 0 0.70710677298230451 0.70710677298230451 0 0.70710678939079041 forward_v I I I I #
loop $-1 $-1 $330 $79 #
coedge $-1 $204 $204 $205 $331 reversed $125 $-1 #
coedge $-1 $205 $205 $204 $331 forward $127 $-1 #
coedge $-1 $206 $206 $128 $207 forward $201 $-1 #
edge $-1 $332 0 $332 6.2831853071796004 $206 $333 forward 7 unknown #
loop $-1 $-1 $213 $129 #
plane-surface $-1 -55.57054353465378 -12.595989124829309 4.9904835357209265 -0.70710678939079041 0 0.70710677298230451 0.70710677298230451 0 0.70710678939079041 forward_v I I I I #
loop $-1 $-1 $334 $82 #
coedge $-1 $211 $211 $212 $335 reversed $130 $-1 #
coedge $-1 $212 $212 $211 $335 forward $132 $-1 #
coedge $-1 $213 $213 $133 $214 forward $208 $-1 #
edge $-1 $336 0 $336 6.2831853071796004 $213 $337 forward 7 unknown #
loop $-1 $-1 $220 $134 #
plane-surface $-1 -55.57054353465378 -12.595989124829309 4.9904835357209265 -0.70710678939079041 0 0.70710677298230451 0.70710677298230451 0 0.70710678939079041 forward_v I I I I #
loop $-1 $-1 $338 $85 #
coedge $-1 $218 $218 $219 $339 reversed $135 $-1 #
coedge $-1 $219 $219 $218 $339 forward $137 $-1 #
coedge $-1 $220 $220 $138 $221 forward $215 $-1 #
edge $-1 $340 0 $340 6.2831853071796004 $220 $341 forward 7 unknown #
face $-1 $342 $343 $48 $-1 $344 forward single #
loop $-1 $-1 $345 $139 #
plane-surface $-1 22.891560640238723 -18.877026524852447 165.10683246695962 0 1 0 0.54463904215088732 0 0.83867056331134215 forward_v I I I I #
coedge $-1 $346 $347 $348 $349 reversed $140 $-1 #
coedge $-1 $227 $142 $350 $351 reversed $89 $-1 #
coedge $-1 $142 $226 $346 $352 reversed $89 $-1 #
coedge $-1 $348 $353 $142 $229 forward $343 $-1 #
edge $-1 $354 -44.124763214534404 $355 -38.756694078069742 $228 $356 forward 7 unknown #
loop $-1 $-1 $235 $143 #
plane-surface $-1 -37.640214564797297 -14.26491150485073 71.896074367508547 0.54463904215088732 0 0.83867056331134215 0.83867056331134215 0 -0.54463904215088732 forward_v I I I I #
loop $-1 $-1 $357 $91 #
coedge $-1 $233 $233 $234 $358 reversed $144 $-1 #
coedge $-1 $234 $234 $233 $358 forward $146 $-1 #
coedge $-1 $235 $235 $147 $236 forward $230 $-1 #
edge $-1 $359 0 $359 6.2831853071796004 $235 $360 forward 7 unknown #
loop $-1 $-1 $242 $148 #
plane-surface $-1 -37.640214564797297 -14.26491150485073 71.896074367508547 0.54463904215088732 0 0.83867056331134215 0.83867056331134215 0 -0.54463904215088732 forward_v I I I I #
loop $-1 $-1 $361 $94 #
coedge $-1 $240 $240 $241 $362 reversed $149 $-1 #
coedge $-1 $241 $241 $240 $362 forward $151 $-1 #
coedge $-1 $242 $242 $152 $243 forward $237 $-1 #
edge $-1 $363 0 $363 6.2831853071796004 $242 $364 forward 7 unknown #
loop $-1 $-1 $249 $153 #
plane-surface $-1 -37.640214564797297 -14.26491150485073 71.896074367508547 0.54463904215088732 0 0.83867056331134215 0.83867056331134215 0 -0.54463904215088732 forward_v I I I I #
loop $-1 $-1 $365 $97 #
coedge $-1 $247 $247 $248 $366 reversed $154 $-1 #
coedge $-1 $248 $248 $247 $366 forward $156 $-1 #
coedge $-1 $249 $249 $157 $250 forward $244 $-1 #
edge $-1 $367 0 $367 6.2831853071796004 $249 $368 forward 7 unknown #
face $-1 $369 $370 $52 $-1 $371 reversed single #
loop $-1 $-1 $372 $158 #
plane-surface $-1 22.891560640238723 7.5331686222242045 165.10683246695962 0 1 0 0.54463904215088732 0 0.83867056331134215 forward_v I I I I #
coedge $-1 $373 $374 $375 $376 reversed $159 $-1 #
coedge $-1 $256 $161 $377 $378 reversed $101 $-1 #
coedge $-1 $161 $255 $373 $379 reversed $101 $-1 #
coedge $-1 $375 $380 $161 $258 forward $381 $-1 #
edge $-1 $382 -44.124763214534404 $383 -38.756694078069742 $257 $384 forward 7 unknown #
loop $-1 $-1 $264 $162 #
plane-surface $-1 -37.640214564797297 12.14528364222592 71.896074367508547 0.54463904215088732 0 0.83867056331134215 0.83867056331134215 0 -0.54463904215088732 forward_v I I I I #
loop $-1 $-1 $385 $103 #
coedge $-1 $262 $262 $263 $386 reversed $163 $-1 #
coedge $-1 $263 $263 $262 $386 forward $165 $-1 #
coedge $-1 $264 $264 $166 $265 forward $259 $-1 #
edge $-1 $387 0 $387 6.2831853071796004 $264 $388 forward 7 unknown #
loop $-1 $-1 $271 $167 #
plane-surface $-1 -37.640214564797297 12.14528364222592 71.896074367508547 0.54463904215088732 0 0.83867056331134215 0.83867056331134215 0 -0.54463904215088732 forward_v I I I I #
loop $-1 $-1 $389 $106 #
coedge $-1 $269 $269 $270 $390 reversed $168 $-1 #
coedge $-1 $270 $270 $269 $390 forward $170 $-1 #
coedge $-1 $271 $271 $171 $272 forward $266 $-1 #
edge $-1 $391 0 $391 6.2831853071796004 $271 $392 forward 7 unknown #
loop $-1 $-1 $278 $172 #
plane-surface $-1 -37.640214564797297 12.14528364222592 71.896074367508547 0.54463904215088732 0 0.83867056331134215 0.83867056331134215 0 -0.54463904215088732 forward_v I I I I #
loop $-1 $-1 $393 $109 #
coedge $-1 $276 $276 $277 $394 reversed $173 $-1 #
coedge $-1 $277 $277 $276 $394 forward $175 $-1 #
coedge $-1 $278 $278 $176 $279 forward $273 $-1 #
edge $-1 $395 0 $395 6.2831853071796004 $278 $396 forward 7 unknown #
face $-1 $397 $398 $42 $-1 $399 reversed single #
loop $-1 $-1 $400 $177 #
plane-surface $-1 -55.570543534653766 0 0 1 0 0 0 0 -1 forward_v I I I I #
coedge $-1 $401 $291 $402 $403 forward $178 $-1 #
coedge $-1 $404 $180 $401 $405 forward $113 $-1 #
coedge $-1 $180 $404 $406 $407 forward $113 $-1 #
coedge $-1 $294 $293 $180 $287 reversed $295 $-1 #
edge $-1 $408 -33.943363769300859 $409 33.943363769300859 $286 $410 forward 7 unknown #
coedge $-1 $182 $181 $411 $412 forward $71 $-1 #
coedge $-1 $413 $414 $181 $290 reversed $398 $-1 #
edge $-1 $297 -55.570543534653766 $415 55.570543534653766 $289 $416 forward 7 unknown #
coedge $-1 $283 $417 $182 $292 reversed $178 $-1 #
edge $-1 $418 -55.570543534653766 $296 55.570543534653766 $291 $419 forward 7 unknown #
coedge $-1 $286 $183 $417 $420 forward $295 $-1 #
coedge $-1 $183 $286 $413 $421 reversed $295 $-1 #
loop $-1 $-1 $293 $397 #
vertex $-1 $184 $422 #
vertex $-1 $184 $423 #
straight-curve $-1 55.570543534653766 0 14.850364085438592 0 1 0 I I #
face $-1 $424 $425 $43 $-1 $426 reversed single #
loop $-1 $-1 $191 $185 #
plane-surface $-1 -32.449598453575362 -41.476532391525069 0 1 0 0 0 0 -1 forward_v I I I I #
coedge $-1 $427 $428 $429 $430 forward $186 $-1 #
coedge $-1 $431 $188 $432 $433 forward $117 $-1 #
coedge $-1 $188 $431 $309 $434 forward $117 $-1 #
edge $-1 $311 -32.449598453575362 $435 -26.962754438658806 $188 $436 forward 7 unknown #
coedge $-1 $190 $189 $437 $438 forward $74 $-1 #
coedge $-1 $439 $440 $189 $308 forward $441 $-1 #
edge $-1 $442 26.962754438658806 $312 32.449598453575362 $307 $443 forward 7 unknown #
coedge $-1 $429 $191 $304 $434 reversed $300 $-1 #
coedge $-1 $191 $429 $439 $444 reversed $300 $-1 #
vertex $-1 $305 $445 #
vertex $-1 $444 $446 #
straight-curve $-1 -32.449598453575362 -33.943363769300859 0 0 0 1 I I #
face $-1 $-1 $326 $44 $-1 $447 forward single #
loop $-1 $-1 $448 $193 #
plane-surface $-1 -55.570543534653766 0 0 1 0 0 0 0 -1 forward_v I I I I #
coedge $-1 $449 $450 $451 $452 reversed $194 $-1 #
coedge $-1 $453 $196 $198 $324 forward $121 $-1 #
coedge $-1 $196 $453 $449 $454 forward $121 $-1 #
coedge $-1 $451 $199 $196 $321 forward $326 $-1 #
edge $-1 $328 -12.579031962437785 $455 -0.016957162391522118 $320 $456 forward 7 unknown #
coedge $-1 $457 $458 $197 $323 forward $315 $-1 #
edge $-1 $459 -36.79906594380121 $327 -26.939185394083559 $322 $460 forward 7 unknown #
edge $-1 $328 -13.943976635003706 $459 -2.0097183471152325e-014 $198 $461 forward 7 unknown #
coedge $-1 $199 $451 $457 $462 forward $326 $-1 #
loop $-1 $-1 $451 $314 #
vertex $-1 $323 $463 #
vertex $-1 $200 $464 #
straight-curve $-1 -67.079580390817057 -18.87702652485244 14.850364085438592 1 0 0 I I #
coedge $-1 $330 $330 $-1 $465 reversed $203 $-1 #
edge $-1 $466 0 $466 6.2831853071796004 $204 $467 forward 7 unknown #
vertex $-1 $207 $468 #
ellipse-curve $-1 -50.640603374194711 -16.364611564843191 9.92042381057977 -0.70710678939079041 0 0.70710677298230451 0.70710677298230451 0 0.70710678939079041 1 I I #
coedge $-1 $334 $334 $-1 $469 reversed $210 $-1 #
edge $-1 $470 0 $470 6.2831853071796004 $211 $471 forward 7 unknown #
vertex $-1 $214 $472 #
ellipse-curve $-1 -50.640603374194711 -12.595989124829313 9.92042381057977 -0.70710678939079041 0 0.70710677298230451 0.70710677298230451 0 0.70710678939079041 1 I I #
coedge $-1 $338 $338 $-1 $473 reversed $217 $-1 #
edge $-1 $474 0 $474 6.2831853071796004 $218 $475 forward 7 unknown #
vertex $-1 $221 $476 #
ellipse-curve $-1 -50.640603374194711 -8.8273666848154342 9.92042381057977 -0.70710678939079041 0 0.70710677298230451 0.70710677298230451 0 0.70710678939079041 1 I I #
face $-1 $-1 $477 $48 $-1 $478 reversed single #
loop $-1 $-1 $228 $222 #
plane-surface $-1 0 0 14.850364085438592 0 0 1 1 0 0 forward_v I I I I #
coedge $-1 $479 $480 $481 $482 reversed $223 $-1 #
coedge $-1 $483 $225 $227 $352 forward $140 $-1 #
coedge $-1 $225 $483 $479 $484 forward $140 $-1 #
coedge $-1 $481 $228 $225 $349 forward $343 $-1 #
edge $-1 $355 2.5203407324236498 $485 11.744570772427082 $348 $486 forward 7 unknown #
coedge $-1 $487 $488 $226 $351 forward $477 $-1 #
edge $-1 $489 -71.189117071007274 $354 -67.703052148041223 $350 $490 forward 7 unknown #
edge $-1 $355 104.74039844221443 $489 111.1410870693075 $227 $491 forward 7 unknown #
coedge $-1 $228 $481 $487 $492 forward $343 $-1 #
vertex $-1 $229 $493 #
vertex $-1 $229 $494 #
straight-curve $-1 11.445780320119361 -9.6527964848490146 14.850364085438599 -1 0 0 I I #
coedge $-1 $357 $357 $-1 $495 reversed $232 $-1 #
edge $-1 $496 0 $496 6.2831853071796004 $233 $497 forward 7 unknown #
vertex $-1 $236 $498 #
ellipse-curve $-1 52.886508966421424 -17.032180516851756 13.107331623955563 0.54463904215088732 0 0.83867056331134215 0.41933528165567108 0 -0.27231952107544366 1 I I #
coedge $-1 $361 $361 $-1 $499 reversed $239 $-1 #
edge $-1 $500 0 $500 6.2831853071796004 $240 $501 forward 7 unknown #
vertex $-1 $243 $502 #
ellipse-curve $-1 52.886508966421424 -14.264911504850726 13.107331623955563 0.54463904215088732 0 0.83867056331134215 0.41933528165567108 0 -0.27231952107544366 1 I I #
coedge $-1 $365 $365 $-1 $503 reversed $246 $-1 #
edge $-1 $504 0 $504 6.2831853071796004 $247 $505 forward 7 unknown #
vertex $-1 $250 $506 #
ellipse-curve $-1 52.886508966421424 -11.497642492849696 13.107331623955563 0.54463904215088732 0 0.83867056331134215 0.41933528165567108 0 -0.27231952107544366 1 I I #
face $-1 $-1 $381 $52 $-1 $507 forward single #
loop $-1 $-1 $508 $251 #
plane-surface $-1 55.570543534653766 0 0 -1 0 0 0 0 1 forward_v I I I I #
coedge $-1 $509 $510 $511 $512 reversed $252 $-1 #
coedge $-1 $513 $254 $256 $379 forward $159 $-1 #
coedge $-1 $254 $513 $509 $514 forward $159 $-1 #
coedge $-1 $511 $257 $254 $376 forward $381 $-1 #
edge $-1 $383 -10.684756841114677 $515 -1.4605268011112447 $375 $516 forward 7 unknown #
coedge $-1 $517 $518 $255 $378 forward $370 $-1 #
edge $-1 $519 -71.189117071007274 $382 -67.703052148041223 $377 $520 forward 7 unknown #
edge $-1 $383 104.74039844221443 $519 111.1410870693075 $256 $521 forward 7 unknown #
coedge $-1 $257 $511 $517 $522 forward $381 $-1 #
loop $-1 $-1 $511 $369 #
vertex $-1 $378 $523 #
vertex $-1 $258 $524 #
straight-curve $-1 11.445780320119361 16.757398662227637 14.850364085438599 -1 0 0 I I #
coedge $-1 $385 $385 $-1 $525 reversed $261 $-1 #
edge $-1 $526 0 $526 6.2831853071796004 $262 $527 forward 7 unknown #
vertex $-1 $265 $528 #
ellipse-curve $-1 52.886508966421424 9.3780146302248895 13.107331623955563 0.54463904215088732 0 0.83867056331134215 0.41933528165567108 0 -0.27231952107544366 1 I I #
coedge $-1 $389 $389 $-1 $529 reversed $268 $-1 #
edge $-1 $530 0 $530 6.2831853071796004 $269 $531 forward 7 unknown #
vertex $-1 $272 $532 #
ellipse-curve $-1 52.886508966421424 12.14528364222592 13.107331623955563 0.54463904215088732 0 0.83867056331134215 0.41933528165567108 0 -0.27231952107544366 1 I I #
coedge $-1 $393 $393 $-1 $533 reversed $275 $-1 #
edge $-1 $534 0 $534 6.2831853071796004 $276 $535 forward 7 unknown #
vertex $-1 $279 $536 #
ellipse-curve $-1 52.886508966421424 14.91255265422695 13.107331623955563 0.54463904215088732 0 0.83867056331134215 0.41933528165567108 0 -0.27231952107544366 1 I I #
face $-1 $-1 $295 $42 $-1 $537 reversed single #
loop $-1 $-1 $413 $280 #
plane-surface $-1 0 33.943363769300859 0 0 -1 0 0 0 -1 forward_v I I I I #
coedge $-1 $538 $411 $414 $539 forward $281 $-1 #
coedge $-1 $417 $283 $284 $405 reversed $178 $-1 #
coedge $-1 $411 $538 $283 $403 reversed $281 $-1 #
edge $-1 $418 -14.850364085438592 $540 14.850364085438592 $402 $541 forward 7 unknown #
coedge $-1 $285 $284 $538 $542 forward $113 $-1 #
edge $-1 $409 -55.570543534653766 $540 55.570543534653766 $401 $543 forward 7 unknown #
coedge $-1 $414 $413 $285 $407 reversed $398 $-1 #
edge $-1 $544 -55.570543534653766 $408 55.570543534653766 $406 $545 forward 7 unknown #
vertex $-1 $287 $546 #
vertex $-1 $420 $547 #
straight-curve $-1 55.570543534653766 0 -14.850364085438592 0 -1 0 I I #
coedge $-1 $400 $402 $288 $412 reversed $281 $-1 #
edge $-1 $415 -33.943363769300859 $418 33.943363769300859 $411 $548 forward 7 unknown #
coedge $-1 $406 $289 $294 $421 forward $398 $-1 #
coedge $-1 $289 $406 $400 $539 reversed $398 $-1 #
vertex $-1 $290 $549 #
straight-curve $-1 0 33.943363769300859 14.850364085438592 -1 0 0 I I #
coedge $-1 $291 $401 $293 $420 reversed $178 $-1 #
vertex $-1 $412 $550 #
straight-curve $-1 0 -33.943363769300859 14.850364085438592 1 0 0 I I #
edge $-1 $296 -14.850364085438592 $409 14.850364085438592 $293 $551 forward 7 unknown #
edge $-1 $297 -14.850364085438592 $408 14.850364085438592 $294 $552 forward 7 unknown #
point $-1 55.570543534653766 -33.943363769300859 14.850364085438592 #
point $-1 55.570543534653766 33.943363769300859 14.850364085438592 #
face $-1 $-1 $441 $43 $-1 $553 forward single #
loop $-1 $-1 $554 $299 #
plane-surface $-1 -26.962754438658806 -41.476532391525069 0 -1 0 0 0 0 1 forward_v I I I I #
coedge $-1 $555 $302 $431 $556 reversed $186 $-1 #
coedge $-1 $302 $555 $557 $558 reversed $186 $-1 #
coedge $-1 $310 $309 $302 $430 reversed $300 $-1 #
edge $-1 $559 -14.850364085438592 $560 14.850364085438592 $429 $561 forward 7 unknown #
coedge $-1 $304 $303 $427 $556 forward $117 $-1 #
coedge $-1 $437 $554 $303 $433 reversed $425 $-1 #
edge $-1 $435 -7.5331686222242098 $562 7.5331686222242098 $432 $563 forward 7 unknown #
edge $-1 $560 -7.5331686222242098 $311 7.5331686222242098 $309 $564 forward 7 unknown #
vertex $-1 $433 $565 #
straight-curve $-1 0 -33.943363769300859 -14.850364085438592 1 0 0 I I #
coedge $-1 $566 $432 $306 $438 reversed $425 $-1 #
edge $-1 $442 -14.850364085438592 $435 14.850364085438592 $437 $567 forward 7 unknown #
coedge $-1 $557 $307 $310 $444 forward $441 $-1 #
coedge $-1 $307 $557 $566 $568 forward $441 $-1 #
loop $-1 $-1 $307 $424 #
vertex $-1 $308 $569 #
straight-curve $-1 0 -33.943363769300859 14.850364085438592 -1 0 0 I I #
edge $-1 $312 -7.5331686222242098 $559 7.5331686222242098 $310 $570 forward 7 unknown #
point $-1 -32.449598453575362 -33.943363769300859 -14.850364085438592 #
point $-1 -32.449598453575362 -33.943363769300859 14.850364085438592 #
plane-surface $-1 0 0 14.850364085438592 0 0 1 1 0 0 forward_v I I I I #
coedge $-1 $458 $457 $450 $571 forward $315 $-1 #
coedge $-1 $450 $317 $319 $454 reversed $194 $-1 #
coedge $-1 $317 $449 $448 $571 reversed $194 $-1 #
coedge $-1 $325 $320 $317 $452 forward $326 $-1 #
edge $-1 $455 -21.3689171770814 $572 -11.509036856163291 $451 $573 forward 7 unknown #
coedge $-1 $319 $318 $458 $574 reversed $121 $-1 #
edge $-1 $575 2.0097183471152325e-014 $455 13.943976635003706 $449 $576 forward 7 unknown #
vertex $-1 $321 $577 #
straight-curve $-1 -45.710663213735664 -6.2979945624146545 14.850364085438592 0 1 0 I I #
coedge $-1 $448 $322 $325 $462 reversed $315 $-1 #
coedge $-1 $322 $448 $453 $574 forward $315 $-1 #
vertex $-1 $323 $578 #
straight-curve $-1 -55.570543534653766 -18.87702652485244 41.789549479522151 0 0 1 I I #
straight-curve $-1 -55.57054353465378 -18.87702652485244 4.9904835357209265 -0.70710677298230451 0 -0.70710678939079041 I I #
edge $-1 $572 6.3149517248061766 $327 18.87702652485244 $457 $579 forward 7 unknown #
point $-1 -55.570543534653766 -18.87702652485244 14.850364085438592 #
point $-1 -45.710663213735657 -18.87702652485244 14.850364085438592 #
edge $-1 $580 1 $580 0 $330 $-1 forward 7 unknown #
vertex $-1 $331 $581 #
ellipse-curve $-1 -48.672758865458569 -16.364611564843191 7.9525793475076609 -0.70710678939079041 0 0.70710677298230451 0.70710677298230451 0 0.70710678939079041 1 I I #
point $-1 -49.93349660121239 -16.364611564843191 10.627530599970546 #
edge $-1 $582 1 $582 0 $334 $-1 forward 7 unknown #
vertex $-1 $335 $583 #
ellipse-curve $-1 -48.672758865458569 -12.595989124829313 7.9525793475076609 -0.70710678939079041 0 0.70710677298230451 0.70710677298230451 0 0.70710678939079041 1 I I #
point $-1 -49.93349660121239 -12.595989124829313 10.627530599970546 #
edge $-1 $584 1 $584 0 $338 $-1 forward 7 unknown #
vertex $-1 $339 $585 #
ellipse-curve $-1 -48.672758865458569 -8.8273666848154342 7.9525793475076609 -0.70710678939079041 0 0.70710677298230451 0.70710677298230451 0 0.70710678939079041 1 I I #
point $-1 -49.93349660121239 -8.8273666848154342 10.627530599970546 #
loop $-1 $-1 $350 $342 #
plane-surface $-1 55.570543534653766 0 0 -1 0 0 0 0 1 forward_v I I I I #
coedge $-1 $480 $345 $347 $484 reversed $223 $-1 #
coedge $-1 $345 $479 $586 $587 reversed $223 $-1 #
coedge $-1 $353 $348 $345 $482 forward $343 $-1 #
edge $-1 $485 38.756694078069742 $588 44.124763214534404 $481 $589 forward 7 unknown #
coedge $-1 $347 $346 $488 $590 reversed $140 $-1 #
edge $-1 $591 -111.1410870693075 $485 -104.74039844221443 $479 $592 forward 7 unknown #
vertex $-1 $349 $593 #
straight-curve $-1 50.202474398189111 -7.1324557524253649 14.850364085438592 0 -1 0 I I #
coedge $-1 $586 $350 $353 $492 reversed $477 $-1 #
coedge $-1 $350 $586 $483 $590 forward $477 $-1 #
vertex $-1 $351 $594 #
straight-curve $-1 55.570543534653766 -9.6527964848490146 82.553416233479808 0 0 1 I I #
straight-curve $-1 -37.640214564797297 -9.6527964848490146 71.896074367508547 0.83867056331134215 0 -0.54463904215088732 I I #
edge $-1 $588 -18.877026524852447 $354 -9.6527964848490146 $487 $595 forward 7 unknown #
point $-1 55.570543534653766 -9.6527964848490146 14.850364085438592 #
point $-1 50.202474398189104 -9.6527964848490146 14.850364085438592 #
edge $-1 $596 1 $596 0 $357 $-1 forward 7 unknown #
vertex $-1 $358 $597 #
ellipse-curve $-1 52.341869924270526 -17.032180516851756 12.268661060644202 0.54463904215088732 0 0.83867056331134215 0.41933528165567108 0 -0.27231952107544366 1 I I #
point $-1 53.305844248077086 -17.032180516851756 12.835012102880102 #
edge $-1 $598 1 $598 0 $361 $-1 forward 7 unknown #
vertex $-1 $362 $599 #
ellipse-curve $-1 52.341869924270526 -14.264911504850726 12.268661060644202 0.54463904215088732 0 0.83867056331134215 0.41933528165567108 0 -0.27231952107544366 1 I I #
point $-1 53.305844248077086 -14.264911504850726 12.835012102880102 #
edge $-1 $600 1 $600 0 $365 $-1 forward 7 unknown #
vertex $-1 $366 $601 #
ellipse-curve $-1 52.341869924270526 -11.497642492849696 12.268661060644202 0.54463904215088732 0 0.83867056331134215 0.41933528165567108 0 -0.27231952107544366 1 I I #
point $-1 53.305844248077086 -11.497642492849696 12.835012102880102 #
plane-surface $-1 0 0 14.850364085438592 0 0 1 1 0 0 forward_v I I I I #
coedge $-1 $518 $517 $510 $602 forward $370 $-1 #
coedge $-1 $510 $372 $374 $514 reversed $252 $-1 #
coedge $-1 $372 $509 $508 $602 reversed $252 $-1 #
coedge $-1 $380 $375 $372 $512 forward $381 $-1 #
edge $-1 $515 38.756694078069742 $603 44.124763214534404 $511 $604 forward 7 unknown #
coedge $-1 $374 $373 $518 $605 reversed $159 $-1 #
edge $-1 $606 -111.1410870693075 $515 -104.74039844221443 $509 $607 forward 7 unknown #
vertex $-1 $376 $608 #
straight-curve $-1 50.202474398189111 6.0726418211129598 14.850364085438592 0 -1 0 I I #
coedge $-1 $508 $377 $380 $522 reversed $370 $-1 #
coedge $-1 $377 $508 $513 $605 forward $370 $-1 #
vertex $-1 $378 $609 #
straight-curve $-1 55.570543534653766 16.757398662227637 82.553416233479808 0 0 1 I I #
straight-curve $-1 -37.640214564797297 16.757398662227637 71.896074367508547 0.83867056331134215 0 -0.54463904215088732 I I #
edge $-1 $603 7.5331686222242045 $382 16.757398662227637 $517 $610 forward 7 unknown #
point $-1 55.570543534653766 16.757398662227637 14.850364085438592 #
point $-1 50.202474398189104 16.757398662227637 14.850364085438592 #
edge $-1 $611 1 $611 0 $385 $-1 forward 7 unknown #
vertex $-1 $386 $612 #
ellipse-curve $-1 52.341869924270526 9.3780146302248895 12.268661060644202 0.54463904215088732 0 0.83867056331134215 0.41933528165567108 0 -0.27231952107544366 1 I I #
point $-1 53.305844248077086 9.3780146302248895 12.835012102880102 #
edge $-1 $613 1 $613 0 $389 $-1 forward 7 unknown #
vertex $-1 $390 $614 #
ellipse-curve $-1 52.341869924270526 12.14528364222592 12.268661060644202 0.54463904215088732 0 0.83867056331134215 0.41933528165567108 0 -0.27231952107544366 1 I I #
point $-1 53.305844248077086 12.14528364222592 12.835012102880102 #
edge $-1 $615 1 $615 0 $393 $-1 forward 7 unknown #
vertex $-1 $394 $616 #
ellipse-curve $-1 52.341869924270526 14.91255265422695 12.268661060644202 0.54463904215088732 0 0.83867056331134215 0.41933528165567108 0 -0.27231952107544366 1 I I #
point $-1 53.305844248077086 14.91255265422695 12.835012102880102 #
plane-surface $-1 55.570543534653766 0 0 -1 0 0 0 0 1 forward_v I I I I #
coedge $-1 $402 $400 $404 $542 reversed $281 $-1 #
edge $-1 $415 -14.850364085438592 $544 14.850364085438592 $414 $617 forward 7 unknown #
vertex $-1 $542 $618 #
straight-curve $-1 -55.570543534653766 -33.943363769300859 0 0 0 -1 I I #
edge $-1 $540 -33.943363769300859 $544 33.943363769300859 $538 $619 forward 7 unknown #
straight-curve $-1 0 -33.943363769300859 -14.850364085438592 -1 0 0 I I #
vertex $-1 $407 $620 #
straight-curve $-1 0 33.943363769300859 -14.850364085438592 1 0 0 I I #
point $-1 55.570543534653766 33.943363769300859 -14.850364085438592 #
point $-1 55.570543534653766 -33.943363769300859 -14.850364085438592 #
straight-curve $-1 -55.570543534653766 0 14.850364085438592 0 -1 0 I I #
point $-1 -55.570543534653766 33.943363769300859 14.850364085438592 #
point $-1 -55.570543534653766 -33.943363769300859 14.850364085438592 #
straight-curve $-1 55.570543534653766 -33.943363769300859 0 0 0 -1 I I #
straight-curve $-1 55.570543534653766 33.943363769300859 0 0 0 -1 I I #
plane-surface $-1 0 0 14.850364085438592 0 0 1 1 0 0 forward_v I I I I #
coedge $-1 $432 $566 $555 $621 forward $425 $-1 #
coedge $-1 $428 $427 $554 $621 reversed $186 $-1 #
edge $-1 $562 -2.7434220074582782 $560 2.7434220074582782 $427 $622 forward 7 unknown #
coedge $-1 $440 $439 $428 $558 forward $441 $-1 #
edge $-1 $559 -2.7434220074582782 $623 2.7434220074582782 $428 $624 forward 7 unknown #
vertex $-1 $444 $625 #
vertex $-1 $434 $626 #
straight-curve $-1 -32.449598453575362 -49.009701013749279 0 0 0 -1 I I #
vertex $-1 $621 $627 #
straight-curve $-1 -26.962754438658806 -41.476532391525069 -14.850364085438592 0 -1 0 I I #
straight-curve $-1 -32.449598453575362 -41.476532391525069 -14.850364085438592 0 1 0 I I #
point $-1 -26.962754438658806 -33.943363769300859 -14.850364085438592 #
coedge $-1 $554 $437 $440 $568 reversed $425 $-1 #
straight-curve $-1 -26.962754438658806 -33.943363769300859 0 0 0 -1 I I #
edge $-1 $623 -7.5331686222242098 $442 7.5331686222242098 $566 $628 forward 7 unknown #
point $-1 -26.962754438658806 -33.943363769300859 14.850364085438592 #
straight-curve $-1 -32.449598453575362 -41.476532391525069 14.850364085438592 0 -1 0 I I #
edge $-1 $572 26.939185394083559 $575 36.79906594380121 $448 $629 forward 7 unknown #
vertex $-1 $462 $630 #
straight-curve $-1 -67.079580390817057 -6.3149517248061766 14.850364085438592 -1 0 0 I I #
edge $-1 $575 0.016957162391522118 $459 12.579031962437785 $458 $631 forward 7 unknown #
vertex $-1 $574 $632 #
straight-curve $-1 -55.57054353465378 -6.3149517248061766 4.9904835357209265 0.70710677298230451 0 0.70710678939079041 I I #
point $-1 -45.710663213735657 -6.3149517248061766 14.850364085438592 #
point $-1 -55.570543534653766 -18.87702652485244 4.9904835357209407 #
straight-curve $-1 -55.570543534653766 0 14.850364085438592 0 -1 0 I I #
vertex $-1 $465 $633 #
point $-1 -47.965652092476262 -16.364611564843191 8.6596861368984506 #
vertex $-1 $469 $634 #
point $-1 -47.965652092476262 -12.595989124829313 8.6596861368984506 #
vertex $-1 $473 $635 #
point $-1 -47.965652092476262 -8.8273666848154342 8.6596861368984506 #
coedge $-1 $488 $487 $480 $587 forward $477 $-1 #
edge $-1 $588 67.703052148041223 $591 71.189117071007274 $586 $636 forward 7 unknown #
vertex $-1 $492 $637 #
straight-curve $-1 11.445780320119361 -18.877026524852447 14.850364085438599 1 0 0 I I #
edge $-1 $591 -11.744570772427082 $489 -2.5203407324236498 $488 $638 forward 7 unknown #
vertex $-1 $590 $639 #
straight-curve $-1 -37.640214564797297 -18.877026524852447 71.896074367508547 -0.83867056331134215 0 0.54463904215088732 I I #
point $-1 50.202474398189104 -18.877026524852447 14.850364085438592 #
point $-1 55.570543534653758 -9.6527964848490146 11.364299162472534 #
straight-curve $-1 55.570543534653766 0 14.850364085438592 0 1 0 I I #
vertex $-1 $495 $640 #
point $-1 52.761205205926196 -17.032180516851756 11.996341539568759 #
vertex $-1 $499 $641 #
point $-1 52.761205205926196 -14.264911504850726 11.996341539568759 #
vertex $-1 $503 $642 #
point $-1 52.761205205926196 -11.497642492849696 11.996341539568759 #
edge $-1 $603 67.703052148041223 $606 71.189117071007274 $508 $643 forward 7 unknown #
vertex $-1 $522 $644 #
straight-curve $-1 11.445780320119361 7.5331686222242045 14.850364085438599 1 0 0 I I #
edge $-1 $606 1.4605268011112447 $519 10.684756841114677 $518 $645 forward 7 unknown #
vertex $-1 $605 $646 #
straight-curve $-1 -37.640214564797297 7.5331686222242045 71.896074367508547 -0.83867056331134215 0 0.54463904215088732 I I #
point $-1 50.202474398189104 7.5331686222242045 14.850364085438592 #
point $-1 55.570543534653758 16.757398662227637 11.364299162472534 #
straight-curve $-1 55.570543534653766 0 14.850364085438592 0 1 0 I I #
vertex $-1 $525 $647 #
point $-1 52.761205205926196 9.3780146302248895 11.996341539568759 #
vertex $-1 $529 $648 #
point $-1 52.761205205926196 12.14528364222592 11.996341539568759 #
vertex $-1 $533 $649 #
point $-1 52.761205205926196 14.91255265422695 11.996341539568759 #
straight-curve $-1 -55.570543534653766 33.943363769300859 0 0 0 -1 I I #
point $-1 -55.570543534653766 -33.943363769300859 -14.850364085438592 #
straight-curve $-1 -55.570543534653766 0 -14.850364085438592 0 1 0 I I #
point $-1 -55.570543534653766 33.943363769300859 -14.850364085438592 #
edge $-1 $623 -14.850364085438592 $562 14.850364085438592 $554 $650 forward 7 unknown #
straight-curve $-1 -29.706176446117084 -49.009701013749279 -14.850364085438592 -1 0 0 I I #
vertex $-1 $568 $651 #
straight-curve $-1 -29.706176446117084 -49.009701013749279 14.850364085438592 1 0 0 I I #
point $-1 -32.449598453575362 -49.009701013749279 14.850364085438592 #
point $-1 -32.449598453575362 -49.009701013749279 -14.850364085438592 #
point $-1 -26.962754438658806 -49.009701013749279 -14.850364085438592 #
straight-curve $-1 -26.962754438658806 -41.476532391525069 14.850364085438592 0 1 0 I I #
straight-curve $-1 -55.570543534653766 -6.3149517248061766 41.789549479522151 0 0 -1 I I #
point $-1 -55.570543534653766 -6.3149517248061766 14.850364085438592 #
straight-curve $-1 -55.570543534653766 -6.2979945624146545 4.9904835357209372 0 -1 0 I I #
point $-1 -55.570543534653766 -6.3149517248061766 4.9904835357209407 #
point $-1 -47.965652076067776 -16.364611564843191 7.2454725745253556 #
point $-1 -47.965652076067776 -12.595989124829313 7.2454725745253556 #
point $-1 -47.965652076067776 -8.8273666848154342 7.2454725745253556 #
straight-curve $-1 55.570543534653766 -18.877026524852447 82.553416233479808 0 0 -1 I I #
point $-1 55.570543534653766 -18.877026524852447 14.850364085438592 #
straight-curve $-1 55.570543534653758 -7.1324557524253649 11.364299162472527 0 1 0 I I #
point $-1 55.570543534653758 -18.877026524852447 11.364299162472534 #
point $-1 52.06955040319508 -17.032180516851756 11.849325778988533 #
point $-1 52.06955040319508 -14.264911504850726 11.849325778988533 #
point $-1 52.06955040319508 -11.497642492849696 11.849325778988533 #
straight-curve $-1 55.570543534653766 7.5331686222242045 82.553416233479808 0 0 -1 I I #
point $-1 55.570543534653766 7.5331686222242045 14.850364085438592 #
straight-curve $-1 55.570543534653758 6.0726418211129598 11.364299162472527 0 1 0 I I #
point $-1 55.570543534653758 7.5331686222242045 11.364299162472534 #
point $-1 52.06955040319508 9.3780146302248895 11.849325778988533 #
point $-1 52.06955040319508 12.14528364222592 11.849325778988533 #
point $-1 52.06955040319508 14.91255265422695 11.849325778988533 #
straight-curve $-1 -26.962754438658806 -49.009701013749279 0 0 0 -1 I I #
point $-1 -26.962754438658806 -49.009701013749279 14.850364085438592 #
End-of-ACIS-data 