500 0 8 0           
7 Unknown 11 ACIS 5.0 NT 24 Fri Mar 26 18:03:33 1999 
-1 9.9999999999999995e-007 1e-010 
body $-1 $8 $-1 $9 #
body $-1 $10 $-1 $11 #
body $-1 $12 $-1 $13 #
body $-1 $14 $-1 $15 #
body $-1 $16 $-1 $17 #
body $-1 $18 $-1 $19 #
body $-1 $20 $-1 $21 #
body $-1 $22 $-1 $23 #
lump $-1 $-1 $24 $0 #
transform $-1 1 0 0 0 1 0 0 0 1 79.000213629566332 46.044199342470534 12.805590643267127 1 rotate no_reflect no_shear #
lump $-1 $-1 $25 $1 #
transform $-1 1 0 0 0 1 0 0 0 1 79.000213629566332 46.044199342470534 12.805590643267127 1 rotate no_reflect no_shear #
lump $-1 $-1 $26 $2 #
transform $-1 1 0 0 0 1 0 0 0 1 79.000213629566332 46.044199342470534 12.805590643267127 1 rotate no_reflect no_shear #
lump $-1 $-1 $27 $3 #
transform $-1 1 0 0 0 1 0 0 0 1 79.000213629566332 46.044199342470534 12.805590643267127 1 rotate no_reflect no_shear #
lump $-1 $-1 $28 $4 #
transform $-1 1 0 0 0 1 0 0 0 1 79.000213629566332 46.044199342470534 12.805590643267127 1 rotate no_reflect no_shear #
lump $-1 $-1 $29 $5 #
transform $-1 1 0 0 0 1 0 0 0 1 79.000213629566332 46.044199342470534 12.805590643267127 1 rotate no_reflect no_shear #
lump $-1 $-1 $30 $6 #
transform $-1 1 0 0 0 1 0 0 0 1 79.000213629566332 46.044199342470534 12.805590643267127 1 rotate no_reflect no_shear #
lump $-1 $-1 $31 $7 #
transform $-1 1 0 0 0 1 0 0 0 1 79.000213629566332 46.044199342470534 12.805590643267127 1 rotate no_reflect no_shear #
shell $-1 $-1 $-1 $32 $-1 $8 #
shell $-1 $-1 $-1 $33 $-1 $10 #
shell $-1 $-1 $-1 $34 $-1 $12 #
shell $-1 $-1 $-1 $35 $-1 $14 #
shell $-1 $-1 $-1 $36 $-1 $16 #
shell $-1 $-1 $-1 $37 $-1 $18 #
shell $-1 $-1 $-1 $38 $-1 $20 #
shell $-1 $-1 $-1 $39 $-1 $22 #
face $-1 $40 $41 $24 $-1 $42 forward single #
face $-1 $43 $44 $25 $-1 $45 forward single #
face $-1 $46 $47 $26 $-1 $48 reversed single #
face $-1 $49 $50 $27 $-1 $51 forward single #
face $-1 $52 $53 $28 $-1 $54 forward single #
face $-1 $55 $56 $29 $-1 $57 forward single #
face $-1 $58 $59 $30 $-1 $60 reversed single #
face $-1 $61 $62 $31 $-1 $63 forward single #
face $-1 $64 $65 $24 $-1 $66 reversed single #
loop $-1 $-1 $67 $32 #
plane-surface $-1 0 0 12.805590643267127 0 0 1 1 0 0 forward_v I I I I #
face $-1 $68 $69 $25 $-1 $70 reversed single #
loop $-1 $-1 $71 $33 #
plane-surface $-1 -79.000213629566332 0 0 1 0 0 0 0 -1 forward_v I I I I #
face $-1 $72 $73 $26 $-1 $74 reversed single #
loop $-1 $-1 $75 $34 #
plane-surface $-1 -30.384114404689782 67.586166610761168 186.10239186567523 1 0 0 0 -0.6018150307709319 -0.79863550430605224 forward_v I I I I #
face $-1 $76 $77 $27 $-1 $78 forward single #
loop $-1 $79 $80 $35 #
cone-surface $-1 -27.126950378667708 39.744324373053246 7.6068175777986209 0 -0.6018150307709319 -0.79863550430605224 1 0 0 1 I I 0 1 1 forward I I I I #
face $-1 $81 $82 $28 $-1 $83 forward single #
loop $-1 $84 $85 $36 #
cone-surface $-1 -22.241204339634599 39.744324373053246 7.6068175777986209 0 -0.6018150307709319 -0.79863550430605224 1 0 0 1 I I 0 1 1 forward I I I I #
face $-1 $86 $87 $29 $-1 $88 forward single #
loop $-1 $89 $90 $37 #
cone-surface $-1 -17.355458300601491 39.744324373053246 7.6068175777986209 0 -0.6018150307709319 -0.79863550430605224 1 0 0 1 I I 0 1 1 forward I I I I #
face $-1 $91 $92 $30 $-1 $93 reversed single #
loop $-1 $-1 $94 $38 #
plane-surface $-1 61.593391169971355 -127.42043631547689 135.54082906901971 -1 0 0 0 -0.51503808176128008 0.85716729658548041 forward_v I I I I #
face $-1 $95 $96 $31 $-1 $97 forward single #
loop $-1 $98 $99 $39 #
cone-surface $-1 49.429203813925426 -33.978570360096789 3.9612493562247084 0 0.51503808176128008 -0.85716729658548041 2 0 0 1 I I 0 1 2 forward I I I I #
face $-1 $100 $101 $24 $-1 $102 reversed single #
loop $-1 $-1 $103 $40 #
plane-surface $-1 0 0 -12.805590643267127 0 0 1 1 0 0 forward_v I I I I #
coedge $-1 $104 $105 $106 $107 forward $41 $-1 #
face $-1 $108 $109 $25 $-1 $110 reversed single #
loop $-1 $-1 $111 $43 #
plane-surface $-1 0 46.044199342470534 0 0 -1 0 0 0 -1 forward_v I I I I #
coedge $-1 $112 $113 $114 $115 forward $44 $-1 #
face $-1 $116 $117 $26 $-1 $118 reversed single #
loop $-1 $-1 $119 $46 #
plane-surface $-1 -22.241204339634599 -27.50086538201414 59.917640961006086 0 0.6018150307709319 0.79863550430605224 1 0 0 forward_v I I I I #
coedge $-1 $120 $121 $122 $123 reversed $47 $-1 #
face $-1 $-1 $124 $27 $-1 $125 forward single #
loop $-1 $126 $127 $49 #
cone-surface $-1 -27.126950378667708 38.656173665921983 6.1627928454194425 0 -0.6018150307709319 -0.79863550430605224 0.5 0 0 1 I I -0.70710678118654746 0.70710678118654746 0.5 forward I I I I #
loop $-1 $-1 $128 $35 #
coedge $-1 $80 $80 $129 $130 reversed $50 $-1 #
face $-1 $-1 $131 $28 $-1 $132 forward single #
loop $-1 $133 $134 $52 #
cone-surface $-1 -22.241204339634599 38.656173665921983 6.1627928454194425 0 -0.6018150307709319 -0.79863550430605224 0.5 0 0 1 I I -0.70710678118654746 0.70710678118654746 0.5 forward I I I I #
loop $-1 $-1 $135 $36 #
coedge $-1 $85 $85 $136 $137 reversed $53 $-1 #
face $-1 $-1 $138 $29 $-1 $139 forward single #
loop $-1 $140 $141 $55 #
cone-surface $-1 -17.355458300601491 38.656173665921983 6.1627928454194425 0 -0.6018150307709319 -0.79863550430605224 0.5 0 0 1 I I -0.70710678118654746 0.70710678118654746 0.5 forward I I I I #
loop $-1 $-1 $142 $37 #
coedge $-1 $90 $90 $143 $144 reversed $56 $-1 #
face $-1 $145 $146 $30 $-1 $147 reversed single #
loop $-1 $-1 $148 $58 #
plane-surface $-1 49.429203813925454 -46.044199342470534 0.10802997595811803 0 -0.51503808176128008 0.85716729658548041 1 0 0 forward_v I I I I #
coedge $-1 $149 $150 $151 $152 reversed $59 $-1 #
face $-1 $-1 $153 $31 $-1 $154 forward single #
loop $-1 $155 $156 $61 #
cone-surface $-1 49.429203813925426 -31.964047951913727 0.6085211062513185 0 0.51503808176128008 -0.85716729658548041 1 0 0 1 I I -0.70710678118654746 0.70710678118654746 1 forward I I I I #
loop $-1 $-1 $157 $39 #
coedge $-1 $99 $99 $158 $159 reversed $62 $-1 #
face $-1 $160 $161 $24 $-1 $162 reversed single #
loop $-1 $-1 $163 $64 #
plane-surface $-1 0 -46.044199342470534 0 0 1 0 0 0 1 forward_v I I I I #
coedge $-1 $164 $165 $166 $167 forward $65 $-1 #
coedge $-1 $168 $67 $169 $170 forward $41 $-1 #
coedge $-1 $67 $168 $171 $172 forward $41 $-1 #
coedge $-1 $173 $174 $67 $107 reversed $175 $-1 #
edge $-1 $176 -46.044199342470534 $177 46.044199342470534 $106 $178 forward 7 unknown #
face $-1 $179 $180 $25 $-1 $181 reversed single #
loop $-1 $-1 $114 $68 #
plane-surface $-1 -85.729040140937911 0 9.2340005407609986 0 0 1 1 0 0 forward_v I I I I #
coedge $-1 $182 $183 $112 $184 forward $69 $-1 #
coedge $-1 $185 $71 $111 $184 reversed $44 $-1 #
coedge $-1 $71 $185 $186 $187 reversed $44 $-1 #
coedge $-1 $188 $189 $71 $115 reversed $109 $-1 #
edge $-1 $190 -46.044199342470534 $191 46.044199342470534 $114 $192 forward 7 unknown #
face $-1 $193 $194 $26 $-1 $195 forward single #
loop $-1 $-1 $196 $72 #
plane-surface $-1 -14.098294274579416 67.586166610761168 186.10239186567523 -1 0 0 0 0.6018150307709319 0.79863550430605224 forward_v I I I I #
coedge $-1 $197 $198 $199 $200 reversed $73 $-1 #
coedge $-1 $121 $75 $201 $202 reversed $47 $-1 #
coedge $-1 $75 $120 $197 $203 reversed $47 $-1 #
coedge $-1 $199 $204 $75 $123 forward $194 $-1 #
edge $-1 $205 -12.25111603708995 $206 -1.2258524817469905 $122 $207 forward 7 unknown #
loop $-1 $-1 $129 $76 #
plane-surface $-1 -22.241204339634599 -27.50086538201414 59.917640961006086 0 0.6018150307709319 0.79863550430605224 1 0 0 forward_v I I I I #
loop $-1 $-1 $208 $49 #
coedge $-1 $127 $127 $128 $209 reversed $77 $-1 #
coedge $-1 $128 $128 $127 $209 forward $79 $-1 #
coedge $-1 $129 $129 $80 $130 forward $124 $-1 #
edge $-1 $210 -6.5891066245722212e-016 $210 6.2831853071795996 $129 $211 forward 7 unknown #
loop $-1 $-1 $136 $81 #
plane-surface $-1 -22.241204339634599 -27.50086538201414 59.917640961006086 0 0.6018150307709319 0.79863550430605224 1 0 0 forward_v I I I I #
loop $-1 $-1 $212 $52 #
coedge $-1 $134 $134 $135 $213 reversed $82 $-1 #
coedge $-1 $135 $135 $134 $213 forward $84 $-1 #
coedge $-1 $136 $136 $85 $137 forward $131 $-1 #
edge $-1 $214 -6.5891066245722212e-016 $214 6.2831853071795996 $136 $215 forward 7 unknown #
loop $-1 $-1 $143 $86 #
plane-surface $-1 -22.241204339634599 -27.50086538201414 59.917640961006086 0 0.6018150307709319 0.79863550430605224 1 0 0 forward_v I I I I #
loop $-1 $-1 $216 $55 #
coedge $-1 $141 $141 $142 $217 reversed $87 $-1 #
coedge $-1 $142 $142 $141 $217 forward $89 $-1 #
coedge $-1 $143 $143 $90 $144 forward $138 $-1 #
edge $-1 $218 -6.5891066245722212e-016 $218 6.2831853071795996 $143 $219 forward 7 unknown #
face $-1 $220 $221 $30 $-1 $222 reversed single #
loop $-1 $-1 $223 $91 #
plane-surface $-1 37.265016457879554 -127.42043631547689 135.54082906901971 1 0 0 0 0.51503808176128008 -0.85716729658548041 forward_v I I I I #
coedge $-1 $224 $225 $226 $227 reversed $92 $-1 #
coedge $-1 $150 $94 $228 $229 reversed $59 $-1 #
coedge $-1 $94 $149 $224 $230 reversed $59 $-1 #
coedge $-1 $226 $231 $94 $152 forward $232 $-1 #
edge $-1 $233 17.666018815267911 $234 38.798308127171822 $151 $235 forward 7 unknown #
loop $-1 $-1 $158 $95 #
plane-surface $-1 49.429203813925454 -46.044199342470534 0.10802997595811803 0 -0.51503808176128008 0.85716729658548041 1 0 0 forward_v I I I I #
loop $-1 $-1 $236 $61 #
coedge $-1 $156 $156 $157 $237 reversed $96 $-1 #
coedge $-1 $157 $157 $156 $237 forward $98 $-1 #
coedge $-1 $158 $158 $99 $159 forward $153 $-1 #
edge $-1 $238 -1.1436142738602941e-015 $238 6.2831853071795996 $158 $239 forward 7 unknown #
face $-1 $240 $241 $24 $-1 $242 reversed single #
loop $-1 $-1 $243 $100 #
plane-surface $-1 -79.000213629566332 0 0 1 0 0 0 0 -1 forward_v I I I I #
coedge $-1 $244 $171 $245 $246 forward $101 $-1 #
coedge $-1 $247 $103 $244 $248 forward $65 $-1 #
coedge $-1 $103 $247 $249 $250 forward $65 $-1 #
coedge $-1 $174 $173 $103 $167 reversed $175 $-1 #
edge $-1 $251 -46.044199342470534 $252 46.044199342470534 $166 $253 forward 7 unknown #
coedge $-1 $105 $104 $254 $255 forward $41 $-1 #
coedge $-1 $256 $257 $104 $170 reversed $241 $-1 #
edge $-1 $177 -79.000213629566332 $258 79.000213629566332 $169 $259 forward 7 unknown #
coedge $-1 $163 $260 $105 $172 reversed $101 $-1 #
edge $-1 $261 -79.000213629566332 $176 79.000213629566332 $171 $262 forward 7 unknown #
coedge $-1 $166 $106 $260 $263 forward $175 $-1 #
coedge $-1 $106 $166 $256 $264 reversed $175 $-1 #
loop $-1 $-1 $173 $240 #
vertex $-1 $107 $265 #
vertex $-1 $107 $266 #
straight-curve $-1 79.000213629566332 0 12.805590643267127 0 1 0 I I #
face $-1 $267 $268 $25 $-1 $269 forward single #
loop $-1 $-1 $270 $108 #
plane-surface $-1 -92.457866652309491 0 11.019795592014063 1 0 0 0 0 -1 forward_v I I I I #
coedge $-1 $271 $111 $189 $272 reversed $69 $-1 #
coedge $-1 $111 $271 $273 $274 reversed $69 $-1 #
edge $-1 $275 -12.805590643267127 $191 -9.2340005407609986 $111 $276 forward 7 unknown #
coedge $-1 $113 $112 $277 $278 reversed $44 $-1 #
coedge $-1 $279 $280 $113 $187 forward $281 $-1 #
edge $-1 $190 9.2340005407609986 $282 12.805590643267127 $186 $283 forward 7 unknown #
coedge $-1 $284 $114 $280 $285 forward $109 $-1 #
coedge $-1 $114 $284 $182 $272 forward $109 $-1 #
vertex $-1 $187 $286 #
vertex $-1 $184 $287 #
straight-curve $-1 -79.000213629566332 0 9.2340005407609986 0 1 0 I I #
face $-1 $-1 $288 $26 $-1 $289 reversed single #
loop $-1 $-1 $122 $116 #
plane-surface $-1 0 0 12.805590643267127 0 0 1 1 0 0 forward_v I I I I #
coedge $-1 $290 $291 $292 $293 reversed $117 $-1 #
coedge $-1 $294 $119 $121 $203 forward $73 $-1 #
coedge $-1 $119 $294 $290 $295 forward $73 $-1 #
coedge $-1 $292 $122 $119 $200 forward $194 $-1 #
edge $-1 $206 -19.263512234872483 $296 -2.9776921047621165 $199 $297 forward 7 unknown #
coedge $-1 $298 $299 $120 $202 forward $288 $-1 #
edge $-1 $300 -88.55373746005516 $205 -80.245605289570491 $201 $301 forward 7 unknown #
edge $-1 $206 78.283272947483368 $300 92.088398684941041 $121 $302 forward 7 unknown #
coedge $-1 $122 $292 $298 $303 forward $194 $-1 #
vertex $-1 $202 $304 #
vertex $-1 $123 $305 #
straight-curve $-1 -30.384114404689782 33.793083305380584 12.805590643267124 0 -1 0 I I #
coedge $-1 $208 $208 $-1 $306 reversed $126 $-1 #
edge $-1 $307 0 $307 6.2831853071796004 $127 $308 forward 7 unknown #
vertex $-1 $130 $309 #
ellipse-curve $-1 -27.126950378667708 40.531567564799055 8.6515245580247893 0 0.6018150307709319 0.79863550430605224 1 0 0 1 I I #
coedge $-1 $212 $212 $-1 $310 reversed $133 $-1 #
edge $-1 $311 0 $311 6.2831853071796004 $134 $312 forward 7 unknown #
vertex $-1 $137 $313 #
ellipse-curve $-1 -22.241204339634599 40.531567564799055 8.6515245580247893 0 0.6018150307709319 0.79863550430605224 1 0 0 1 I I #
coedge $-1 $216 $216 $-1 $314 reversed $140 $-1 #
edge $-1 $315 0 $315 6.2831853071796004 $141 $316 forward 7 unknown #
vertex $-1 $144 $317 #
ellipse-curve $-1 -17.355458300601491 40.531567564799055 8.6515245580247893 0 0.6018150307709319 0.79863550430605224 1 0 0 1 I I #
face $-1 $-1 $232 $30 $-1 $318 forward single #
loop $-1 $-1 $319 $145 #
plane-surface $-1 0 -46.044199342470534 0 0 1 0 0 0 1 forward_v I I I I #
coedge $-1 $320 $321 $322 $323 reversed $146 $-1 #
coedge $-1 $324 $148 $150 $230 forward $92 $-1 #
coedge $-1 $148 $324 $320 $325 forward $92 $-1 #
coedge $-1 $322 $151 $148 $227 forward $232 $-1 #
edge $-1 $234 -36.878789263008628 $326 -12.550414550916827 $226 $327 forward 7 unknown #
coedge $-1 $328 $329 $149 $229 forward $221 $-1 #
edge $-1 $330 -67.662384558551736 $233 -54.96482389124273 $228 $331 forward 7 unknown #
edge $-1 $234 -24.653634589285229 $330 0 $150 $332 forward 7 unknown #
coedge $-1 $151 $322 $328 $333 forward $232 $-1 #
loop $-1 $-1 $322 $220 #
vertex $-1 $229 $334 #
vertex $-1 $152 $335 #
straight-curve $-1 61.593391169971355 -63.710218157738446 12.805590643267124 0 1 0 I I #
coedge $-1 $236 $236 $-1 $336 reversed $155 $-1 #
edge $-1 $337 0 $337 6.2831853071796004 $156 $338 forward 7 unknown #
vertex $-1 $159 $339 #
ellipse-curve $-1 49.429203813925426 -35.478054686518576 6.4568103096126235 0 -0.51503808176128008 0.85716729658548041 2 0 0 1 I I #
face $-1 $-1 $175 $24 $-1 $340 reversed single #
loop $-1 $-1 $256 $160 #
plane-surface $-1 0 46.044199342470534 0 0 -1 0 0 0 -1 forward_v I I I I #
coedge $-1 $341 $254 $257 $342 forward $161 $-1 #
coedge $-1 $260 $163 $164 $248 reversed $101 $-1 #
coedge $-1 $254 $341 $163 $246 reversed $161 $-1 #
edge $-1 $261 -12.805590643267127 $343 12.805590643267127 $245 $344 forward 7 unknown #
coedge $-1 $165 $164 $341 $345 forward $65 $-1 #
edge $-1 $252 -79.000213629566332 $343 79.000213629566332 $244 $346 forward 7 unknown #
coedge $-1 $257 $256 $165 $250 reversed $241 $-1 #
edge $-1 $347 -79.000213629566332 $251 79.000213629566332 $249 $348 forward 7 unknown #
vertex $-1 $167 $349 #
vertex $-1 $263 $350 #
straight-curve $-1 79.000213629566332 0 -12.805590643267127 0 -1 0 I I #
coedge $-1 $243 $245 $168 $255 reversed $161 $-1 #
edge $-1 $258 -46.044199342470534 $261 46.044199342470534 $254 $351 forward 7 unknown #
coedge $-1 $249 $169 $174 $264 forward $241 $-1 #
coedge $-1 $169 $249 $243 $342 reversed $241 $-1 #
vertex $-1 $170 $352 #
straight-curve $-1 0 46.044199342470534 12.805590643267127 -1 0 0 I I #
coedge $-1 $171 $244 $173 $263 reversed $101 $-1 #
vertex $-1 $255 $353 #
straight-curve $-1 0 -46.044199342470534 12.805590643267127 1 0 0 I I #
edge $-1 $176 -12.805590643267127 $252 12.805590643267127 $173 $354 forward 7 unknown #
edge $-1 $177 -12.805590643267127 $251 12.805590643267127 $174 $355 forward 7 unknown #
point $-1 79.000213629566332 -46.044199342470534 12.805590643267127 #
point $-1 79.000213629566332 46.044199342470534 12.805590643267127 #
face $-1 $-1 $281 $25 $-1 $356 reversed single #
loop $-1 $-1 $277 $179 #
plane-surface $-1 0 0 12.805590643267127 0 0 1 1 0 0 forward_v I I I I #
coedge $-1 $357 $358 $271 $359 forward $180 $-1 #
coedge $-1 $183 $182 $270 $359 reversed $69 $-1 #
edge $-1 $360 -6.7288265113715795 $191 6.7288265113715795 $182 $361 forward 7 unknown #
coedge $-1 $362 $277 $183 $274 forward $268 $-1 #
edge $-1 $275 79.000213629566332 $363 92.457866652309491 $183 $364 forward 7 unknown #
vertex $-1 $274 $365 #
straight-curve $-1 -79.000213629566332 46.044199342470534 0 0 0 -1 I I #
coedge $-1 $273 $366 $185 $278 forward $268 $-1 #
edge $-1 $282 -46.044199342470534 $275 46.044199342470534 $277 $367 forward 7 unknown #
coedge $-1 $368 $186 $366 $369 reversed $281 $-1 #
coedge $-1 $186 $368 $188 $285 reversed $281 $-1 #
loop $-1 $-1 $186 $267 #
vertex $-1 $187 $370 #
straight-curve $-1 -79.000213629566332 -46.044199342470534 0 0 0 1 I I #
coedge $-1 $189 $188 $357 $371 forward $109 $-1 #
edge $-1 $190 -6.7288265113715795 $372 6.7288265113715795 $280 $373 forward 7 unknown #
point $-1 -79.000213629566332 -46.044199342470534 9.2340005407609986 #
point $-1 -79.000213629566332 46.044199342470534 9.2340005407609986 #
loop $-1 $-1 $201 $193 #
plane-surface $-1 0 46.044199342470534 0 0 -1 0 0 0 -1 forward_v I I I I #
coedge $-1 $291 $196 $198 $295 reversed $117 $-1 #
coedge $-1 $196 $290 $374 $375 reversed $117 $-1 #
coedge $-1 $204 $199 $196 $293 forward $194 $-1 #
edge $-1 $296 1.2258524817469905 $376 12.25111603708995 $292 $377 forward 7 unknown #
coedge $-1 $198 $197 $299 $378 reversed $73 $-1 #
edge $-1 $379 -92.088398684941041 $296 -78.283272947483368 $290 $380 forward 7 unknown #
vertex $-1 $200 $381 #
straight-curve $-1 -11.1206021698173 35.018935787127567 12.805590643267131 1 0 0 I I #
coedge $-1 $374 $201 $204 $303 reversed $288 $-1 #
coedge $-1 $201 $374 $294 $378 forward $288 $-1 #
vertex $-1 $202 $382 #
straight-curve $-1 -30.384114404689782 46.044199342470534 93.051195932837615 0 0 1 I I #
straight-curve $-1 -30.384114404689782 -27.50086538201414 59.917640961006086 0 0.79863550430605224 -0.6018150307709319 I I #
edge $-1 $376 14.098294274579416 $205 30.384114404689782 $298 $383 forward 7 unknown #
point $-1 -30.384114404689782 46.044199342470534 12.805590643267127 #
point $-1 -30.384114404689782 35.018935787127575 12.805590643267124 #
edge $-1 $384 1 $384 0 $208 $-1 forward 7 unknown #
vertex $-1 $209 $385 #
ellipse-curve $-1 -27.126950378667708 38.957081181307451 6.5621105975724685 0 0.6018150307709319 0.79863550430605224 1 0 0 1 I I #
point $-1 -26.126950378667708 40.53156756479904 8.6515245580247715 #
edge $-1 $386 1 $386 0 $212 $-1 forward 7 unknown #
vertex $-1 $213 $387 #
ellipse-curve $-1 -22.241204339634599 38.957081181307451 6.5621105975724685 0 0.6018150307709319 0.79863550430605224 1 0 0 1 I I #
point $-1 -21.241204339634599 40.53156756479904 8.6515245580247715 #
edge $-1 $388 1 $388 0 $216 $-1 forward 7 unknown #
vertex $-1 $217 $389 #
ellipse-curve $-1 -17.355458300601491 38.957081181307451 6.5621105975724685 0 0.6018150307709319 0.79863550430605224 1 0 0 1 I I #
point $-1 -16.355458300601491 40.53156756479904 8.6515245580247715 #
plane-surface $-1 0 0 12.805590643267127 0 0 1 1 0 0 forward_v I I I I #
coedge $-1 $329 $328 $321 $390 forward $221 $-1 #
coedge $-1 $321 $223 $225 $325 reversed $146 $-1 #
coedge $-1 $223 $320 $319 $390 reversed $146 $-1 #
coedge $-1 $231 $226 $223 $323 forward $232 $-1 #
edge $-1 $326 -38.798308127171822 $391 -17.666018815267911 $322 $392 forward 7 unknown #
coedge $-1 $225 $224 $329 $393 reversed $92 $-1 #
edge $-1 $394 0 $326 24.653634589285229 $320 $395 forward 7 unknown #
vertex $-1 $227 $396 #
straight-curve $-1 24.714601906962727 -24.91191003056662 12.805590643267127 -1 0 0 I I #
coedge $-1 $319 $228 $231 $333 reversed $221 $-1 #
coedge $-1 $228 $319 $324 $393 forward $221 $-1 #
vertex $-1 $229 $397 #
straight-curve $-1 61.593391169971355 -46.044199342470534 67.770414534509854 0 0 1 I I #
straight-curve $-1 61.593391169971355 -46.044199342470534 0.10802997595811803 0 -0.85716729658548041 -0.51503808176128008 I I #
edge $-1 $391 37.265016457879554 $233 61.593391169971355 $328 $398 forward 7 unknown #
point $-1 61.593391169971355 -46.044199342470534 12.805590643267127 #
point $-1 61.593391169971355 -24.911910030566624 12.805590643267127 #
edge $-1 $399 1 $399 0 $236 $-1 forward 7 unknown #
vertex $-1 $237 $400 #
ellipse-curve $-1 49.429203813925426 -32.47908603367501 1.4656884028367989 0 -0.51503808176128008 0.85716729658548041 2 0 0 1 I I #
point $-1 51.429203813925426 -35.478054686518576 6.456810309612619 #
plane-surface $-1 79.000213629566332 0 0 -1 0 0 0 0 1 forward_v I I I I #
coedge $-1 $245 $243 $247 $345 reversed $161 $-1 #
edge $-1 $258 -12.805590643267127 $347 12.805590643267127 $257 $401 forward 7 unknown #
vertex $-1 $345 $402 #
straight-curve $-1 -79.000213629566332 -46.044199342470534 0 0 0 -1 I I #
edge $-1 $343 -46.044199342470534 $347 46.044199342470534 $341 $403 forward 7 unknown #
straight-curve $-1 0 -46.044199342470534 -12.805590643267127 -1 0 0 I I #
vertex $-1 $250 $404 #
straight-curve $-1 0 46.044199342470534 -12.805590643267127 1 0 0 I I #
point $-1 79.000213629566332 46.044199342470534 -12.805590643267127 #
point $-1 79.000213629566332 -46.044199342470534 -12.805590643267127 #
straight-curve $-1 -79.000213629566332 0 12.805590643267127 0 -1 0 I I #
point $-1 -79.000213629566332 46.044199342470534 12.805590643267127 #
point $-1 -79.000213629566332 -46.044199342470534 12.805590643267127 #
straight-curve $-1 79.000213629566332 -46.044199342470534 0 0 0 -1 I I #
straight-curve $-1 79.000213629566332 46.044199342470534 0 0 0 -1 I I #
plane-surface $-1 0 -46.044199342470534 0 0 1 0 0 0 1 forward_v I I I I #
coedge $-1 $405 $270 $284 $371 reversed $180 $-1 #
coedge $-1 $270 $405 $362 $406 reversed $180 $-1 #
edge $-1 $363 -1.7857950512530643 $360 1.7857950512530643 $271 $407 forward 7 unknown #
vertex $-1 $272 $408 #
straight-curve $-1 -85.729040140937911 46.044199342470534 9.2340005407609986 1 0 0 I I #
coedge $-1 $366 $273 $358 $406 forward $268 $-1 #
vertex $-1 $274 $409 #
straight-curve $-1 0 46.044199342470534 12.805590643267127 -1 0 0 I I #
point $-1 -79.000213629566332 46.044199342470534 12.805590643267127 #
coedge $-1 $277 $362 $279 $369 forward $268 $-1 #
straight-curve $-1 -79.000213629566332 0 12.805590643267127 0 1 0 I I #
coedge $-1 $280 $279 $405 $410 forward $281 $-1 #
edge $-1 $411 -92.457866652309491 $282 -79.000213629566332 $279 $412 forward 7 unknown #
point $-1 -79.000213629566332 -46.044199342470534 12.805590643267127 #
edge $-1 $372 -46.044199342470534 $360 46.044199342470534 $357 $413 forward 7 unknown #
vertex $-1 $371 $414 #
straight-curve $-1 -85.729040140937911 -46.044199342470534 9.2340005407609986 -1 0 0 I I #
coedge $-1 $299 $298 $291 $375 forward $288 $-1 #
edge $-1 $376 80.245605289570491 $379 88.55373746005516 $374 $415 forward 7 unknown #
vertex $-1 $303 $416 #
straight-curve $-1 -14.098294274579416 33.793083305380584 12.805590643267124 0 1 0 I I #
edge $-1 $379 2.9776921047621165 $300 19.263512234872483 $299 $417 forward 7 unknown #
vertex $-1 $378 $418 #
straight-curve $-1 -14.098294274579416 -27.50086538201414 59.917640961006086 0 -0.79863550430605224 0.6018150307709319 I I #
point $-1 -14.098294274579416 35.018935787127575 12.805590643267124 #
point $-1 -30.384114404689782 46.044199342470534 4.4974584727824549 #
straight-curve $-1 0 46.044199342470534 12.805590643267127 -1 0 0 I I #
vertex $-1 $306 $419 #
point $-1 -26.126950378667708 38.957081181307451 6.5621105975724685 #
vertex $-1 $310 $420 #
point $-1 -21.241204339634599 38.957081181307451 6.5621105975724685 #
vertex $-1 $314 $421 #
point $-1 -16.355458300601491 38.957081181307451 6.5621105975724685 #
edge $-1 $391 54.96482389124273 $394 67.662384558551736 $319 $422 forward 7 unknown #
vertex $-1 $333 $423 #
straight-curve $-1 37.265016457879554 -63.710218157738446 12.805590643267124 0 -1 0 I I #
edge $-1 $394 12.550414550916827 $330 36.878789263008628 $329 $424 forward 7 unknown #
vertex $-1 $393 $425 #
straight-curve $-1 37.265016457879554 -46.044199342470534 0.10802997595811803 0 0.85716729658548041 0.51503808176128008 I I #
point $-1 37.265016457879554 -24.911910030566624 12.805590643267127 #
point $-1 61.593391169971355 -46.044199342470534 0.10802997595811803 #
straight-curve $-1 0 -46.044199342470534 12.805590643267127 1 0 0 I I #
vertex $-1 $336 $426 #
point $-1 51.429203813925426 -32.47908603367501 1.4656884028367989 #
straight-curve $-1 -79.000213629566332 46.044199342470534 0 0 0 -1 I I #
point $-1 -79.000213629566332 -46.044199342470534 -12.805590643267127 #
straight-curve $-1 -79.000213629566332 0 -12.805590643267127 0 1 0 I I #
point $-1 -79.000213629566332 46.044199342470534 -12.805590643267127 #
coedge $-1 $358 $357 $368 $410 reversed $180 $-1 #
edge $-1 $363 -46.044199342470534 $411 46.044199342470534 $358 $427 forward 7 unknown #
straight-curve $-1 -92.457866652309491 46.044199342470534 11.019795592014063 0 0 -1 I I #
point $-1 -92.457866652309491 46.044199342470534 9.2340005407609986 #
point $-1 -92.457866652309491 46.044199342470534 12.805590643267127 #
edge $-1 $411 -1.7857950512530643 $372 1.7857950512530643 $405 $428 forward 7 unknown #
vertex $-1 $406 $429 #
straight-curve $-1 0 -46.044199342470534 12.805590643267127 1 0 0 I I #
straight-curve $-1 -92.457866652309491 0 9.2340005407609986 0 1 0 I I #
point $-1 -92.457866652309491 -46.044199342470534 9.2340005407609986 #
straight-curve $-1 -14.098294274579416 46.044199342470534 93.051195932837615 0 0 -1 I I #
point $-1 -14.098294274579416 46.044199342470534 12.805590643267127 #
straight-curve $-1 -11.1206021698173 46.044199342470534 4.4974584727824549 -1 0 0 I I #
point $-1 -14.098294274579416 46.044199342470534 4.4974584727824549 #
point $-1 -27.126950378667708 38.355266150536515 5.7634750932664165 #
point $-1 -22.241204339634599 38.355266150536515 5.7634750932664165 #
point $-1 -17.355458300601491 38.355266150536515 5.7634750932664165 #
straight-curve $-1 37.265016457879554 -46.044199342470534 67.770414534509854 0 0 -1 I I #
point $-1 37.265016457879554 -46.044199342470534 12.805590643267127 #
straight-curve $-1 24.714601906962727 -46.044199342470534 0.10802997595811682 1 0 0 I I #
point $-1 37.265016457879554 -46.044199342470534 0.10802997595811803 #
point $-1 49.429203813925426 -31.449009870152448 -0.24864619033416191 #
straight-curve $-1 -92.457866652309491 0 12.805590643267127 0 -1 0 I I #
straight-curve $-1 -92.457866652309491 -46.044199342470534 11.019795592014063 0 0 -1 I I #
point $-1 -92.457866652309491 -46.044199342470534 12.805590643267127 #
End-of-ACIS-data 