500 0 9 0           
7 Unknown 11 ACIS 5.0 NT 24 Fri Mar 26 16:25:15 1999 
-1 9.9999999999999995e-007 1e-010 
body $-1 $9 $-1 $10 #
body $-1 $11 $-1 $12 #
body $-1 $13 $-1 $14 #
body $-1 $15 $-1 $16 #
body $-1 $17 $-1 $18 #
body $-1 $19 $-1 $20 #
body $-1 $21 $-1 $22 #
body $-1 $23 $-1 $24 #
body $-1 $25 $-1 $26 #
lump $-1 $-1 $27 $0 #
transform $-1 1 0 0 0 1 0 0 0 1 70.501419110690634 43.346097885188556 14.136328355378946 1 rotate no_reflect no_shear #
lump $-1 $-1 $28 $1 #
transform $-1 1 0 0 0 1 0 0 0 1 70.501419110690634 43.346097885188556 14.136328355378946 1 rotate no_reflect no_shear #
lump $-1 $-1 $29 $2 #
transform $-1 1 0 0 0 1 0 0 0 1 70.501419110690634 43.346097885188556 14.136328355378946 1 rotate no_reflect no_shear #
lump $-1 $-1 $30 $3 #
transform $-1 1 0 0 0 1 0 0 0 1 70.501419110690634 43.346097885188556 14.136328355378946 1 rotate no_reflect no_shear #
lump $-1 $-1 $31 $4 #
transform $-1 1 0 0 0 1 0 0 0 1 70.501419110690634 43.346097885188556 14.136328355378946 1 rotate no_reflect no_shear #
lump $-1 $-1 $32 $5 #
transform $-1 1 0 0 0 1 0 0 0 1 70.501419110690634 43.346097885188556 14.136328355378946 1 rotate no_reflect no_shear #
lump $-1 $-1 $33 $6 #
transform $-1 1 0 0 0 1 0 0 0 1 70.501419110690634 43.346097885188556 14.136328355378946 1 rotate no_reflect no_shear #
lump $-1 $-1 $34 $7 #
transform $-1 1 0 0 0 1 0 0 0 1 70.501419110690634 43.346097885188556 14.136328355378946 1 rotate no_reflect no_shear #
lump $-1 $-1 $35 $8 #
transform $-1 1 0 0 0 1 0 0 0 1 70.501419110690634 43.346097885188556 14.136328355378946 1 rotate no_reflect no_shear #
shell $-1 $-1 $-1 $36 $-1 $9 #
shell $-1 $-1 $-1 $37 $-1 $11 #
shell $-1 $-1 $-1 $38 $-1 $13 #
shell $-1 $-1 $-1 $39 $-1 $15 #
shell $-1 $-1 $-1 $40 $-1 $17 #
shell $-1 $-1 $-1 $41 $-1 $19 #
shell $-1 $-1 $-1 $42 $-1 $21 #
shell $-1 $-1 $-1 $43 $-1 $23 #
shell $-1 $-1 $-1 $44 $-1 $25 #
face $-1 $45 $46 $27 $-1 $47 forward single #
face $-1 $48 $49 $28 $-1 $50 forward single #
face $-1 $51 $52 $29 $-1 $53 reversed single #
face $-1 $54 $55 $30 $-1 $56 forward single #
face $-1 $57 $58 $31 $-1 $59 forward single #
face $-1 $60 $61 $32 $-1 $62 forward single #
face $-1 $63 $64 $33 $-1 $65 reversed single #
face $-1 $66 $67 $34 $-1 $68 forward single #
face $-1 $69 $70 $35 $-1 $71 forward single #
face $-1 $72 $73 $27 $-1 $74 reversed single #
loop $-1 $-1 $75 $36 #
plane-surface $-1 0 0 14.136328355378946 0 0 1 1 0 0 forward_v I I I I #
face $-1 $76 $77 $28 $-1 $78 reversed single #
loop $-1 $-1 $79 $37 #
plane-surface $-1 -70.501419110690634 0 0 1 0 0 0 0 -1 forward_v I I I I #
face $-1 $80 $81 $29 $-1 $82 reversed single #
loop $-1 $-1 $83 $38 #
plane-surface $-1 -21.645837593963293 90.123227929618793 163.51969377541545 1 0 0 0 -0.74314483375859142 -0.66913059716165679 forward_v I I I I #
face $-1 $84 $85 $30 $-1 $86 forward single #
loop $-1 $87 $88 $39 #
cone-surface $-1 -18.101155259068825 38.641475642064115 9.0115565076909174 0 -0.74314483375859142 -0.66913059716165679 1 0 0 1 I I 0 1 1 forward I I I I #
face $-1 $89 $90 $31 $-1 $91 forward single #
loop $-1 $92 $93 $40 #
cone-surface $-1 -12.78413175672712 38.641475642064115 9.0115565076909174 0 -0.74314483375859142 -0.66913059716165679 1 0 0 1 I I 0 1 1 forward I I I I #
face $-1 $94 $95 $32 $-1 $96 forward single #
loop $-1 $97 $98 $41 #
cone-surface $-1 -7.4671082543854155 38.641475642064115 9.0115565076909174 0 -0.74314483375859142 -0.66913059716165679 1 0 0 1 I I 0 1 1 forward I I I I #
face $-1 $99 $100 $33 $-1 $101 reversed single #
loop $-1 $-1 $102 $42 #
plane-surface $-1 -33.013426482924871 -141.29490086482966 108.35334442025213 -1 0 0 0 -0.69465837861970381 0.71933979245794832 forward_v I I I I #
face $-1 $103 $104 $34 $-1 $105 forward single #
loop $-1 $106 $107 $43 #
cone-surface $-1 -47.334948146304036 -38.225458465841022 9.0945455015891881 0 0.69465837861970381 -0.71933979245794832 1 0 0 1 I I 0 1 1 forward I I I I #
face $-1 $108 $109 $35 $-1 $110 forward single #
loop $-1 $111 $112 $44 #
cone-surface $-1 -38.742035148276535 -38.225458465841022 9.0945455015891881 0 0.69465837861970381 -0.71933979245794832 1 0 0 1 I I 0 1 1 forward I I I I #
face $-1 $113 $114 $27 $-1 $115 reversed single #
loop $-1 $-1 $116 $45 #
plane-surface $-1 0 0 -14.136328355378946 0 0 1 1 0 0 forward_v I I I I #
coedge $-1 $117 $118 $119 $120 forward $46 $-1 #
face $-1 $121 $122 $28 $-1 $123 reversed single #
loop $-1 $-1 $124 $48 #
plane-surface $-1 0 43.346097885188556 0 0 -1 0 0 0 -1 forward_v I I I I #
coedge $-1 $125 $126 $127 $128 forward $49 $-1 #
face $-1 $129 $130 $29 $-1 $131 reversed single #
loop $-1 $-1 $132 $51 #
plane-surface $-1 -12.78413175672712 -14.662302839899169 69.170380434854096 0 0.74314483375859142 0.66913059716165679 1 0 0 forward_v I I I I #
coedge $-1 $133 $134 $135 $136 reversed $52 $-1 #
face $-1 $-1 $137 $30 $-1 $138 forward single #
loop $-1 $139 $140 $54 #
cone-surface $-1 -18.101155259068825 37.793040428022792 8.2476220286565542 0 -0.74314483375859142 -0.66913059716165679 0.5 0 0 1 I I -0.70710678118654746 0.70710678118654746 0.5 forward I I I I #
loop $-1 $-1 $141 $39 #
coedge $-1 $88 $88 $142 $143 reversed $55 $-1 #
face $-1 $-1 $144 $31 $-1 $145 forward single #
loop $-1 $146 $147 $57 #
cone-surface $-1 -12.78413175672712 37.793040428022792 8.2476220286565542 0 -0.74314483375859142 -0.66913059716165679 0.5 0 0 1 I I -0.70710678118654746 0.70710678118654746 0.5 forward I I I I #
loop $-1 $-1 $148 $40 #
coedge $-1 $93 $93 $149 $150 reversed $58 $-1 #
face $-1 $-1 $151 $32 $-1 $152 forward single #
loop $-1 $153 $154 $60 #
cone-surface $-1 -7.4671082543854155 37.793040428022792 8.2476220286565542 0 -0.74314483375859142 -0.66913059716165679 0.5 0 0 1 I I -0.70710678118654746 0.70710678118654746 0.5 forward I I I I #
loop $-1 $-1 $155 $41 #
coedge $-1 $98 $98 $156 $157 reversed $61 $-1 #
face $-1 $158 $159 $33 $-1 $160 reversed single #
loop $-1 $-1 $161 $63 #
plane-surface $-1 -43.038491647290286 -43.346097885188541 6.92439203810207 0 -0.69465837861970381 0.71933979245794832 1 0 0 forward_v I I I I #
coedge $-1 $162 $163 $164 $165 reversed $64 $-1 #
face $-1 $-1 $166 $34 $-1 $167 forward single #
loop $-1 $168 $169 $66 #
cone-surface $-1 -47.334948146304036 -36.491579111241279 7.2990609102088904 0 0.69465837861970381 -0.71933979245794832 0.5 0 0 1 I I -0.70710678118654746 0.70710678118654746 0.5 forward I I I I #
loop $-1 $-1 $170 $43 #
coedge $-1 $107 $107 $171 $172 reversed $67 $-1 #
face $-1 $-1 $173 $35 $-1 $174 forward single #
loop $-1 $175 $176 $69 #
cone-surface $-1 -38.742035148276535 -36.491579111241279 7.2990609102088904 0 0.69465837861970381 -0.71933979245794832 0.5 0 0 1 I I -0.70710678118654746 0.70710678118654746 0.5 forward I I I I #
loop $-1 $-1 $177 $44 #
coedge $-1 $112 $112 $178 $179 reversed $70 $-1 #
face $-1 $180 $181 $27 $-1 $182 reversed single #
loop $-1 $-1 $183 $72 #
plane-surface $-1 0 -43.346097885188556 0 0 1 0 0 0 1 forward_v I I I I #
coedge $-1 $184 $185 $186 $187 forward $73 $-1 #
coedge $-1 $188 $75 $189 $190 forward $46 $-1 #
coedge $-1 $75 $188 $191 $192 forward $46 $-1 #
coedge $-1 $193 $194 $75 $120 reversed $195 $-1 #
edge $-1 $196 -43.346097885188556 $197 43.346097885188556 $119 $198 forward 7 unknown #
face $-1 $199 $200 $28 $-1 $201 reversed single #
loop $-1 $-1 $127 $76 #
plane-surface $-1 -79.220350260208093 0 10.978250080680471 0 0 1 1 0 0 forward_v I I I I #
coedge $-1 $202 $203 $125 $204 forward $77 $-1 #
coedge $-1 $205 $79 $124 $204 reversed $49 $-1 #
coedge $-1 $79 $205 $206 $207 reversed $49 $-1 #
coedge $-1 $208 $209 $79 $128 reversed $122 $-1 #
edge $-1 $210 -43.346097885188556 $211 43.346097885188556 $127 $212 forward 7 unknown #
face $-1 $213 $214 $29 $-1 $215 forward single #
loop $-1 $-1 $216 $80 #
plane-surface $-1 -3.9224259194909479 90.123227929618793 163.51969377541545 -1 0 0 0 0.74314483375859142 0.66913059716165679 forward_v I I I I #
coedge $-1 $217 $218 $219 $220 reversed $81 $-1 #
coedge $-1 $134 $83 $221 $222 reversed $52 $-1 #
coedge $-1 $83 $133 $217 $223 reversed $52 $-1 #
coedge $-1 $219 $224 $83 $136 forward $214 $-1 #
edge $-1 $225 1.7155160796208406 $226 10.171034971545723 $135 $227 forward 7 unknown #
loop $-1 $-1 $142 $84 #
plane-surface $-1 -12.78413175672712 -14.662302839899169 69.170380434854096 0 0.74314483375859142 0.66913059716165679 1 0 0 forward_v I I I I #
loop $-1 $-1 $228 $54 #
coedge $-1 $140 $140 $141 $229 reversed $85 $-1 #
coedge $-1 $141 $141 $140 $229 forward $87 $-1 #
coedge $-1 $142 $142 $88 $143 forward $137 $-1 #
edge $-1 $230 -7.8352071815921243e-016 $230 6.2831853071795996 $142 $231 forward 7 unknown #
loop $-1 $-1 $149 $89 #
plane-surface $-1 -12.78413175672712 -14.662302839899169 69.170380434854096 0 0.74314483375859142 0.66913059716165679 1 0 0 forward_v I I I I #
loop $-1 $-1 $232 $57 #
coedge $-1 $147 $147 $148 $233 reversed $90 $-1 #
coedge $-1 $148 $148 $147 $233 forward $92 $-1 #
coedge $-1 $149 $149 $93 $150 forward $144 $-1 #
edge $-1 $234 -7.8352071815921243e-016 $234 6.2831853071795996 $149 $235 forward 7 unknown #
loop $-1 $-1 $156 $94 #
plane-surface $-1 -12.78413175672712 -14.662302839899169 69.170380434854096 0 0.74314483375859142 0.66913059716165679 1 0 0 forward_v I I I I #
loop $-1 $-1 $236 $60 #
coedge $-1 $154 $154 $155 $237 reversed $95 $-1 #
coedge $-1 $155 $155 $154 $237 forward $97 $-1 #
coedge $-1 $156 $156 $98 $157 forward $151 $-1 #
edge $-1 $238 -7.8352071815921243e-016 $238 6.2831853071795996 $156 $239 forward 7 unknown #
face $-1 $240 $241 $33 $-1 $242 reversed single #
loop $-1 $-1 $243 $99 #
plane-surface $-1 -53.063556811655701 -141.29490086482966 108.35334442025213 1 0 0 0 0.69465837861970381 -0.71933979245794832 forward_v I I I I #
coedge $-1 $244 $245 $246 $247 reversed $100 $-1 #
coedge $-1 $163 $102 $248 $249 reversed $64 $-1 #
coedge $-1 $102 $162 $244 $250 reversed $64 $-1 #
coedge $-1 $246 $251 $102 $165 forward $252 $-1 #
edge $-1 $253 27.301352547226273 $254 34.769531055341581 $164 $255 forward 7 unknown #
loop $-1 $-1 $171 $103 #
plane-surface $-1 -43.038491647290286 -43.346097885188541 6.92439203810207 0 -0.69465837861970381 0.71933979245794832 1 0 0 forward_v I I I I #
loop $-1 $-1 $256 $66 #
coedge $-1 $169 $169 $170 $257 reversed $104 $-1 #
coedge $-1 $170 $170 $169 $257 forward $106 $-1 #
coedge $-1 $171 $171 $107 $172 forward $166 $-1 #
edge $-1 $258 2.2925503307050646e-015 $258 6.2831853071796031 $171 $259 forward 7 unknown #
loop $-1 $-1 $178 $108 #
plane-surface $-1 -43.038491647290286 -43.346097885188541 6.92439203810207 0 -0.69465837861970381 0.71933979245794832 1 0 0 forward_v I I I I #
loop $-1 $-1 $260 $69 #
coedge $-1 $176 $176 $177 $261 reversed $109 $-1 #
coedge $-1 $177 $177 $176 $261 forward $111 $-1 #
coedge $-1 $178 $178 $112 $179 forward $173 $-1 #
edge $-1 $262 2.2925503307050646e-015 $262 6.2831853071796031 $178 $263 forward 7 unknown #
face $-1 $264 $265 $27 $-1 $266 reversed single #
loop $-1 $-1 $267 $113 #
plane-surface $-1 -70.501419110690634 0 0 1 0 0 0 0 -1 forward_v I I I I #
coedge $-1 $268 $191 $269 $270 forward $114 $-1 #
coedge $-1 $271 $116 $268 $272 forward $73 $-1 #
coedge $-1 $116 $271 $273 $274 forward $73 $-1 #
coedge $-1 $194 $193 $116 $187 reversed $195 $-1 #
edge $-1 $275 -43.346097885188556 $276 43.346097885188556 $186 $277 forward 7 unknown #
coedge $-1 $118 $117 $278 $279 forward $46 $-1 #
coedge $-1 $280 $281 $117 $190 reversed $265 $-1 #
edge $-1 $197 -70.501419110690634 $282 70.501419110690634 $189 $283 forward 7 unknown #
coedge $-1 $183 $284 $118 $192 reversed $114 $-1 #
edge $-1 $285 -70.501419110690634 $196 70.501419110690634 $191 $286 forward 7 unknown #
coedge $-1 $186 $119 $284 $287 forward $195 $-1 #
coedge $-1 $119 $186 $280 $288 reversed $195 $-1 #
loop $-1 $-1 $193 $264 #
vertex $-1 $120 $289 #
vertex $-1 $120 $290 #
straight-curve $-1 70.501419110690634 0 14.136328355378946 0 1 0 I I #
face $-1 $291 $292 $28 $-1 $293 forward single #
loop $-1 $-1 $294 $121 #
plane-surface $-1 -87.939281409725552 0 12.557289218029709 1 0 0 0 0 -1 forward_v I I I I #
coedge $-1 $295 $124 $209 $296 reversed $77 $-1 #
coedge $-1 $124 $295 $297 $298 reversed $77 $-1 #
edge $-1 $299 -14.136328355378946 $211 -10.978250080680471 $124 $300 forward 7 unknown #
coedge $-1 $126 $125 $301 $302 reversed $49 $-1 #
coedge $-1 $303 $304 $126 $207 forward $305 $-1 #
edge $-1 $210 10.978250080680471 $306 14.136328355378946 $206 $307 forward 7 unknown #
coedge $-1 $308 $127 $304 $309 forward $122 $-1 #
coedge $-1 $127 $308 $202 $296 forward $122 $-1 #
vertex $-1 $207 $310 #
vertex $-1 $204 $311 #
straight-curve $-1 -70.501419110690634 0 10.978250080680471 0 1 0 I I #
face $-1 $-1 $312 $29 $-1 $313 reversed single #
loop $-1 $-1 $135 $129 #
plane-surface $-1 0 0 14.136328355378946 0 0 1 1 0 0 forward_v I I I I #
coedge $-1 $314 $315 $316 $317 reversed $130 $-1 #
coedge $-1 $318 $132 $134 $223 forward $81 $-1 #
coedge $-1 $132 $318 $314 $319 forward $81 $-1 #
coedge $-1 $316 $135 $132 $220 forward $214 $-1 #
edge $-1 $226 -15.253771715599733 $320 2.4696399588726123 $219 $321 forward 7 unknown #
coedge $-1 $322 $323 $133 $222 forward $312 $-1 #
edge $-1 $324 -77.014323866797824 $225 -67.623518532328774 $221 $325 forward 7 unknown #
edge $-1 $226 74.055620895768499 $324 86.69219577037714 $134 $326 forward 7 unknown #
coedge $-1 $135 $316 $322 $327 forward $214 $-1 #
vertex $-1 $222 $328 #
vertex $-1 $136 $329 #
straight-curve $-1 -21.645837593963293 45.061613964809396 14.13632835537895 0 -1 0 I I #
coedge $-1 $228 $228 $-1 $330 reversed $139 $-1 #
edge $-1 $331 0 $331 6.2831853071796004 $140 $332 forward 7 unknown #
vertex $-1 $143 $333 #
ellipse-curve $-1 -18.101155259068825 39.118338439226115 9.4409256881444268 0 0.74314483375859142 0.66913059716165679 1 0 0 1 I I #
coedge $-1 $232 $232 $-1 $334 reversed $146 $-1 #
edge $-1 $335 0 $335 6.2831853071796004 $147 $336 forward 7 unknown #
vertex $-1 $150 $337 #
ellipse-curve $-1 -12.78413175672712 39.118338439226115 9.4409256881444268 0 0.74314483375859142 0.66913059716165679 1 0 0 1 I I #
coedge $-1 $236 $236 $-1 $338 reversed $153 $-1 #
edge $-1 $339 0 $339 6.2831853071796004 $154 $340 forward 7 unknown #
vertex $-1 $157 $341 #
ellipse-curve $-1 -7.4671082543854155 39.118338439226115 9.4409256881444268 0 0.74314483375859142 0.66913059716165679 1 0 0 1 I I #
face $-1 $-1 $252 $33 $-1 $342 forward single #
loop $-1 $-1 $343 $158 #
plane-surface $-1 0 -43.346097885188556 0 0 1 0 0 0 1 forward_v I I I I #
coedge $-1 $344 $345 $346 $347 reversed $159 $-1 #
coedge $-1 $348 $161 $163 $250 forward $100 $-1 #
coedge $-1 $161 $348 $344 $349 forward $100 $-1 #
coedge $-1 $346 $164 $161 $247 forward $252 $-1 #
edge $-1 $254 11.494180659279728 $350 31.544310988010558 $246 $351 forward 7 unknown #
coedge $-1 $352 $353 $162 $249 forward $241 $-1 #
edge $-1 $354 -47.252280172024008 $253 -40.040343854747121 $248 $355 forward 7 unknown #
edge $-1 $254 -10.381989966934679 $354 1.9477141995791963e-014 $163 $356 forward 7 unknown #
coedge $-1 $164 $346 $352 $357 forward $252 $-1 #
loop $-1 $-1 $346 $240 #
vertex $-1 $249 $358 #
vertex $-1 $165 $359 #
straight-curve $-1 -33.013426482924871 -70.647450432414828 14.13632835537895 0 1 0 I I #
coedge $-1 $256 $256 $-1 $360 reversed $168 $-1 #
edge $-1 $361 0 $361 6.2831853071796004 $169 $362 forward 7 unknown #
vertex $-1 $172 $363 #
ellipse-curve $-1 -47.334948146304036 -39.612008631130905 10.530360196740501 0 -0.69465837861970381 0.71933979245794832 1 0 0 1 I I #
coedge $-1 $260 $260 $-1 $364 reversed $175 $-1 #
edge $-1 $365 0 $365 6.2831853071796004 $176 $366 forward 7 unknown #
vertex $-1 $179 $367 #
ellipse-curve $-1 -38.742035148276535 -39.612008631130905 10.530360196740501 0 -0.69465837861970381 0.71933979245794832 1 0 0 1 I I #
face $-1 $-1 $195 $27 $-1 $368 reversed single #
loop $-1 $-1 $280 $180 #
plane-surface $-1 0 43.346097885188556 0 0 -1 0 0 0 -1 forward_v I I I I #
coedge $-1 $369 $278 $281 $370 forward $181 $-1 #
coedge $-1 $284 $183 $184 $272 reversed $114 $-1 #
coedge $-1 $278 $369 $183 $270 reversed $181 $-1 #
edge $-1 $285 -14.136328355378946 $371 14.136328355378946 $269 $372 forward 7 unknown #
coedge $-1 $185 $184 $369 $373 forward $73 $-1 #
edge $-1 $276 -70.501419110690634 $371 70.501419110690634 $268 $374 forward 7 unknown #
coedge $-1 $281 $280 $185 $274 reversed $265 $-1 #
edge $-1 $375 -70.501419110690634 $275 70.501419110690634 $273 $376 forward 7 unknown #
vertex $-1 $187 $377 #
vertex $-1 $287 $378 #
straight-curve $-1 70.501419110690634 0 -14.136328355378946 0 -1 0 I I #
coedge $-1 $267 $269 $188 $279 reversed $181 $-1 #
edge $-1 $282 -43.346097885188556 $285 43.346097885188556 $278 $379 forward 7 unknown #
coedge $-1 $273 $189 $194 $288 forward $265 $-1 #
coedge $-1 $189 $273 $267 $370 reversed $265 $-1 #
vertex $-1 $190 $380 #
straight-curve $-1 0 43.346097885188556 14.136328355378946 -1 0 0 I I #
coedge $-1 $191 $268 $193 $287 reversed $114 $-1 #
vertex $-1 $279 $381 #
straight-curve $-1 0 -43.346097885188556 14.136328355378946 1 0 0 I I #
edge $-1 $196 -14.136328355378946 $276 14.136328355378946 $193 $382 forward 7 unknown #
edge $-1 $197 -14.136328355378946 $275 14.136328355378946 $194 $383 forward 7 unknown #
point $-1 70.501419110690634 -43.346097885188556 14.136328355378946 #
point $-1 70.501419110690634 43.346097885188556 14.136328355378946 #
face $-1 $-1 $305 $28 $-1 $384 reversed single #
loop $-1 $-1 $301 $199 #
plane-surface $-1 0 0 14.136328355378946 0 0 1 1 0 0 forward_v I I I I #
coedge $-1 $385 $386 $295 $387 forward $200 $-1 #
coedge $-1 $203 $202 $294 $387 reversed $77 $-1 #
edge $-1 $388 -8.7189311495174593 $211 8.7189311495174593 $202 $389 forward 7 unknown #
coedge $-1 $390 $301 $203 $298 forward $292 $-1 #
edge $-1 $299 70.501419110690634 $391 87.939281409725552 $203 $392 forward 7 unknown #
vertex $-1 $298 $393 #
straight-curve $-1 -70.501419110690634 43.346097885188556 0 0 0 -1 I I #
coedge $-1 $297 $394 $205 $302 forward $292 $-1 #
edge $-1 $306 -43.346097885188556 $299 43.346097885188556 $301 $395 forward 7 unknown #
coedge $-1 $396 $206 $394 $397 reversed $305 $-1 #
coedge $-1 $206 $396 $208 $309 reversed $305 $-1 #
loop $-1 $-1 $206 $291 #
vertex $-1 $207 $398 #
straight-curve $-1 -70.501419110690634 -43.346097885188556 0 0 0 1 I I #
coedge $-1 $209 $208 $385 $399 forward $122 $-1 #
edge $-1 $210 -8.7189311495174593 $400 8.7189311495174593 $304 $401 forward 7 unknown #
point $-1 -70.501419110690634 -43.346097885188556 10.978250080680471 #
point $-1 -70.501419110690634 43.346097885188556 10.978250080680471 #
loop $-1 $-1 $221 $213 #
plane-surface $-1 0 43.346097885188556 0 0 -1 0 0 0 -1 forward_v I I I I #
coedge $-1 $315 $216 $218 $319 reversed $130 $-1 #
coedge $-1 $216 $314 $402 $403 reversed $130 $-1 #
coedge $-1 $224 $219 $216 $317 forward $214 $-1 #
edge $-1 $320 -10.171034971545723 $404 -1.7155160796208406 $316 $405 forward 7 unknown #
coedge $-1 $218 $217 $323 $406 reversed $81 $-1 #
edge $-1 $407 -86.69219577037714 $320 -74.055620895768499 $314 $408 forward 7 unknown #
vertex $-1 $220 $409 #
straight-curve $-1 -6.3920658783635602 34.890578993263659 14.13632835537895 1 0 0 I I #
coedge $-1 $402 $221 $224 $327 reversed $312 $-1 #
coedge $-1 $221 $402 $318 $406 forward $312 $-1 #
vertex $-1 $222 $410 #
straight-curve $-1 -21.645837593963293 43.346097885188556 81.759846887707724 0 0 1 I I #
straight-curve $-1 -21.645837593963293 -14.662302839899169 69.170380434854096 0 0.66913059716165679 -0.74314483375859142 I I #
edge $-1 $404 3.9224259194909479 $225 21.645837593963293 $322 $411 forward 7 unknown #
point $-1 -21.645837593963293 43.346097885188556 14.136328355378946 #
point $-1 -21.645837593963293 34.890578993263674 14.136328355378943 #
edge $-1 $412 1 $412 0 $228 $-1 forward 7 unknown #
vertex $-1 $229 $413 #
ellipse-curve $-1 -18.101155259068825 38.164612844902088 8.5821873272373832 0 0.74314483375859142 0.66913059716165679 1 0 0 1 I I #
point $-1 -17.101155259068825 39.118338439226143 9.4409256881444534 #
edge $-1 $414 1 $414 0 $232 $-1 forward 7 unknown #
vertex $-1 $233 $415 #
ellipse-curve $-1 -12.78413175672712 38.164612844902088 8.5821873272373832 0 0.74314483375859142 0.66913059716165679 1 0 0 1 I I #
point $-1 -11.78413175672712 39.118338439226143 9.4409256881444534 #
edge $-1 $416 1 $416 0 $236 $-1 forward 7 unknown #
vertex $-1 $237 $417 #
ellipse-curve $-1 -7.4671082543854155 38.164612844902088 8.5821873272373832 0 0.74314483375859142 0.66913059716165679 1 0 0 1 I I #
point $-1 -6.4671082543854155 39.118338439226143 9.4409256881444534 #
plane-surface $-1 0 0 14.136328355378946 0 0 1 1 0 0 forward_v I I I I #
coedge $-1 $353 $352 $345 $418 forward $241 $-1 #
coedge $-1 $345 $243 $245 $349 reversed $159 $-1 #
coedge $-1 $243 $344 $343 $418 reversed $159 $-1 #
coedge $-1 $251 $246 $243 $347 forward $252 $-1 #
edge $-1 $350 -34.769531055341581 $419 -27.301352547226273 $346 $420 forward 7 unknown #
coedge $-1 $245 $244 $353 $421 reversed $100 $-1 #
edge $-1 $422 -1.9477141995791963e-014 $350 10.381989966934679 $344 $423 forward 7 unknown #
vertex $-1 $247 $424 #
straight-curve $-1 -21.519245823645143 -35.877919377073248 14.136328355378946 -1 0 0 I I #
coedge $-1 $343 $248 $251 $357 reversed $241 $-1 #
coedge $-1 $248 $343 $348 $421 forward $241 $-1 #
vertex $-1 $249 $425 #
straight-curve $-1 -33.013426482924871 -43.346097885188556 54.176672210126064 0 0 1 I I #
straight-curve $-1 -33.013426482924871 -43.346097885188541 6.92439203810207 0 -0.71933979245794832 -0.69465837861970381 I I #
edge $-1 $419 -53.063556811655701 $253 -33.013426482924871 $352 $426 forward 7 unknown #
point $-1 -33.013426482924871 -43.346097885188556 14.136328355378946 #
point $-1 -33.013426482924871 -35.877919377073248 14.136328355378946 #
edge $-1 $427 1 $427 0 $256 $-1 forward 7 unknown #
vertex $-1 $257 $428 #
ellipse-curve $-1 -47.334948146304036 -36.838908300551132 7.6587308064378643 0 -0.69465837861970381 0.71933979245794832 1 0 0 1 I I #
point $-1 -46.334948146304036 -39.612008631130912 10.530360196740512 #
edge $-1 $429 1 $429 0 $260 $-1 forward 7 unknown #
vertex $-1 $261 $430 #
ellipse-curve $-1 -38.742035148276535 -36.838908300551132 7.6587308064378643 0 -0.69465837861970381 0.71933979245794832 1 0 0 1 I I #
point $-1 -37.742035148276535 -39.612008631130912 10.530360196740512 #
plane-surface $-1 70.501419110690634 0 0 -1 0 0 0 0 1 forward_v I I I I #
coedge $-1 $269 $267 $271 $373 reversed $181 $-1 #
edge $-1 $282 -14.136328355378946 $375 14.136328355378946 $281 $431 forward 7 unknown #
vertex $-1 $373 $432 #
straight-curve $-1 -70.501419110690634 -43.346097885188556 0 0 0 -1 I I #
edge $-1 $371 -43.346097885188556 $375 43.346097885188556 $369 $433 forward 7 unknown #
straight-curve $-1 0 -43.346097885188556 -14.136328355378946 -1 0 0 I I #
vertex $-1 $274 $434 #
straight-curve $-1 0 43.346097885188556 -14.136328355378946 1 0 0 I I #
point $-1 70.501419110690634 43.346097885188556 -14.136328355378946 #
point $-1 70.501419110690634 -43.346097885188556 -14.136328355378946 #
straight-curve $-1 -70.501419110690634 0 14.136328355378946 0 -1 0 I I #
point $-1 -70.501419110690634 43.346097885188556 14.136328355378946 #
point $-1 -70.501419110690634 -43.346097885188556 14.136328355378946 #
straight-curve $-1 70.501419110690634 -43.346097885188556 0 0 0 -1 I I #
straight-curve $-1 70.501419110690634 43.346097885188556 0 0 0 -1 I I #
plane-surface $-1 0 -43.346097885188556 0 0 1 0 0 0 1 forward_v I I I I #
coedge $-1 $435 $294 $308 $399 reversed $200 $-1 #
coedge $-1 $294 $435 $390 $436 reversed $200 $-1 #
edge $-1 $391 -1.5790391373492376 $388 1.5790391373492376 $295 $437 forward 7 unknown #
vertex $-1 $296 $438 #
straight-curve $-1 -79.220350260208093 43.346097885188556 10.978250080680471 1 0 0 I I #
coedge $-1 $394 $297 $386 $436 forward $292 $-1 #
vertex $-1 $298 $439 #
straight-curve $-1 0 43.346097885188556 14.136328355378946 -1 0 0 I I #
point $-1 -70.501419110690634 43.346097885188556 14.136328355378946 #
coedge $-1 $301 $390 $303 $397 forward $292 $-1 #
straight-curve $-1 -70.501419110690634 0 14.136328355378946 0 1 0 I I #
coedge $-1 $304 $303 $435 $440 forward $305 $-1 #
edge $-1 $441 -87.939281409725552 $306 -70.501419110690634 $303 $442 forward 7 unknown #
point $-1 -70.501419110690634 -43.346097885188556 14.136328355378946 #
edge $-1 $400 -43.346097885188556 $388 43.346097885188556 $385 $443 forward 7 unknown #
vertex $-1 $399 $444 #
straight-curve $-1 -79.220350260208093 -43.346097885188556 10.978250080680471 -1 0 0 I I #
coedge $-1 $323 $322 $315 $403 forward $312 $-1 #
edge $-1 $404 67.623518532328774 $407 77.014323866797824 $402 $445 forward 7 unknown #
vertex $-1 $327 $446 #
straight-curve $-1 -3.9224259194909479 45.061613964809396 14.13632835537895 0 1 0 I I #
edge $-1 $407 -2.4696399588726123 $324 15.253771715599733 $323 $447 forward 7 unknown #
vertex $-1 $406 $448 #
straight-curve $-1 -3.9224259194909479 -14.662302839899169 69.170380434854096 0 -0.66913059716165679 0.74314483375859142 I I #
point $-1 -3.9224259194909479 34.890578993263674 14.136328355378943 #
point $-1 -21.645837593963293 43.346097885188556 4.7455230209099 #
straight-curve $-1 0 43.346097885188556 14.136328355378946 -1 0 0 I I #
vertex $-1 $330 $449 #
point $-1 -17.101155259068825 38.164612844902088 8.5821873272373832 #
vertex $-1 $334 $450 #
point $-1 -11.78413175672712 38.164612844902088 8.5821873272373832 #
vertex $-1 $338 $451 #
point $-1 -6.4671082543854155 38.164612844902088 8.5821873272373832 #
edge $-1 $419 40.040343854747121 $422 47.252280172024008 $343 $452 forward 7 unknown #
vertex $-1 $357 $453 #
straight-curve $-1 -53.063556811655701 -70.647450432414828 14.13632835537895 0 -1 0 I I #
edge $-1 $422 -31.544310988010558 $354 -11.494180659279728 $353 $454 forward 7 unknown #
vertex $-1 $421 $455 #
straight-curve $-1 -53.063556811655701 -43.346097885188541 6.92439203810207 0 0.71933979245794832 0.69465837861970381 I I #
point $-1 -53.063556811655701 -35.877919377073248 14.136328355378946 #
point $-1 -33.013426482924871 -43.346097885188556 6.9243920381020567 #
straight-curve $-1 0 -43.346097885188556 14.136328355378946 1 0 0 I I #
vertex $-1 $360 $456 #
point $-1 -46.334948146304036 -36.838908300551132 7.6587308064378643 #
vertex $-1 $364 $457 #
point $-1 -37.742035148276535 -36.838908300551132 7.6587308064378643 #
straight-curve $-1 -70.501419110690634 43.346097885188556 0 0 0 -1 I I #
point $-1 -70.501419110690634 -43.346097885188556 -14.136328355378946 #
straight-curve $-1 -70.501419110690634 0 -14.136328355378946 0 1 0 I I #
point $-1 -70.501419110690634 43.346097885188556 -14.136328355378946 #
coedge $-1 $386 $385 $396 $440 reversed $200 $-1 #
edge $-1 $391 -43.346097885188556 $441 43.346097885188556 $386 $458 forward 7 unknown #
straight-curve $-1 -87.939281409725552 43.346097885188556 12.557289218029709 0 0 -1 I I #
point $-1 -87.939281409725552 43.346097885188556 10.978250080680471 #
point $-1 -87.939281409725552 43.346097885188556 14.136328355378946 #
edge $-1 $441 -1.5790391373492376 $400 1.5790391373492376 $435 $459 forward 7 unknown #
vertex $-1 $436 $460 #
straight-curve $-1 0 -43.346097885188556 14.136328355378946 1 0 0 I I #
straight-curve $-1 -87.939281409725552 0 10.978250080680471 0 1 0 I I #
point $-1 -87.939281409725552 -43.346097885188556 10.978250080680471 #
straight-curve $-1 -3.9224259194909479 43.346097885188556 81.759846887707724 0 0 -1 I I #
point $-1 -3.9224259194909479 43.346097885188556 14.136328355378946 #
straight-curve $-1 -6.3920658783635602 43.346097885188556 4.7455230209099035 -1 0 0 I I #
point $-1 -3.9224259194909479 43.346097885188556 4.7455230209099 #
point $-1 -18.101155259068825 37.421468011143496 7.9130567300757262 #
point $-1 -12.78413175672712 37.421468011143496 7.9130567300757262 #
point $-1 -7.4671082543854155 37.421468011143496 7.9130567300757262 #
straight-curve $-1 -53.063556811655701 -43.346097885188556 54.176672210126064 0 0 -1 I I #
point $-1 -53.063556811655701 -43.346097885188556 14.136328355378946 #
straight-curve $-1 -21.519245823645143 -43.346097885188556 6.9243920381020594 1 0 0 I I #
point $-1 -53.063556811655701 -43.346097885188556 6.9243920381020567 #
point $-1 -47.334948146304036 -36.144249921931426 6.9393910139799164 #
point $-1 -38.742035148276535 -36.144249921931426 6.9393910139799164 #
straight-curve $-1 -87.939281409725552 0 14.136328355378946 0 -1 0 I I #
straight-curve $-1 -87.939281409725552 -43.346097885188556 12.557289218029709 0 0 -1 I I #
point $-1 -87.939281409725552 -43.346097885188556 14.136328355378946 #
End-of-ACIS-data 