500 0 15 0           
7 Unknown 11 ACIS 5.0 NT 24 Thu Mar 25 22:14:50 1999 
-1 9.9999999999999995e-007 1e-010 
body $-1 $15 $-1 $16 #
body $-1 $17 $-1 $18 #
body $-1 $19 $-1 $20 #
body $-1 $21 $-1 $22 #
body $-1 $23 $-1 $24 #
body $-1 $25 $-1 $26 #
body $-1 $27 $-1 $28 #
body $-1 $29 $-1 $30 #
body $-1 $31 $-1 $32 #
body $-1 $33 $-1 $34 #
body $-1 $35 $-1 $36 #
body $-1 $37 $-1 $38 #
body $-1 $39 $-1 $40 #
body $-1 $41 $-1 $42 #
body $-1 $43 $-1 $44 #
lump $-1 $-1 $45 $0 #
transform $-1 1 0 0 0 1 0 0 0 1 49.759819330423902 34.635519130850426 13.513422979718747 1 rotate no_reflect no_shear #
lump $-1 $-1 $46 $1 #
transform $-1 1 0 0 0 1 0 0 0 1 49.759819330423902 34.635519130850426 13.513422979718747 1 rotate no_reflect no_shear #
lump $-1 $-1 $47 $2 #
transform $-1 1 0 0 0 1 0 0 0 1 49.759819330423902 34.635519130850426 13.513422979718747 1 rotate no_reflect no_shear #
lump $-1 $-1 $48 $3 #
transform $-1 1 0 0 0 1 0 0 0 1 49.759819330423902 34.635519130850426 13.513422979718747 1 rotate no_reflect no_shear #
lump $-1 $-1 $49 $4 #
transform $-1 1 0 0 0 1 0 0 0 1 49.759819330423902 34.635519130850426 13.513422979718747 1 rotate no_reflect no_shear #
lump $-1 $-1 $50 $5 #
transform $-1 1 0 0 0 1 0 0 0 1 49.759819330423902 34.635519130850426 13.513422979718747 1 rotate no_reflect no_shear #
lump $-1 $-1 $51 $6 #
transform $-1 1 0 0 0 1 0 0 0 1 49.759819330423902 34.635519130850426 13.513422979718747 1 rotate no_reflect no_shear #
lump $-1 $-1 $52 $7 #
transform $-1 1 0 0 0 1 0 0 0 1 49.759819330423902 34.635519130850426 13.513422979718747 1 rotate no_reflect no_shear #
lump $-1 $-1 $53 $8 #
transform $-1 1 0 0 0 1 0 0 0 1 49.759819330423902 34.635519130850426 13.513422979718747 1 rotate no_reflect no_shear #
lump $-1 $-1 $54 $9 #
transform $-1 1 0 0 0 1 0 0 0 1 49.759819330423902 34.635519130850426 13.513422979718747 1 rotate no_reflect no_shear #
lump $-1 $-1 $55 $10 #
transform $-1 1 0 0 0 1 0 0 0 1 49.759819330423902 34.635519130850426 13.513422979718747 1 rotate no_reflect no_shear #
lump $-1 $-1 $56 $11 #
transform $-1 1 0 0 0 1 0 0 0 1 49.759819330423902 34.635519130850426 13.513422979718747 1 rotate no_reflect no_shear #
lump $-1 $-1 $57 $12 #
transform $-1 1 0 0 0 1 0 0 0 1 49.759819330423902 34.635519130850426 13.513422979718747 1 rotate no_reflect no_shear #
lump $-1 $-1 $58 $13 #
transform $-1 1 0 0 0 1 0 0 0 1 49.759819330423902 34.635519130850426 13.513422979718747 1 rotate no_reflect no_shear #
lump $-1 $-1 $59 $14 #
transform $-1 1 0 0 0 1 0 0 0 1 49.759819330423902 34.635519130850426 13.513422979718747 1 rotate no_reflect no_shear #
shell $-1 $-1 $-1 $60 $-1 $15 #
shell $-1 $-1 $-1 $61 $-1 $17 #
shell $-1 $-1 $-1 $62 $-1 $19 #
shell $-1 $-1 $-1 $63 $-1 $21 #
shell $-1 $-1 $-1 $64 $-1 $23 #
shell $-1 $-1 $-1 $65 $-1 $25 #
shell $-1 $-1 $-1 $66 $-1 $27 #
shell $-1 $-1 $-1 $67 $-1 $29 #
shell $-1 $-1 $-1 $68 $-1 $31 #
shell $-1 $-1 $-1 $69 $-1 $33 #
shell $-1 $-1 $-1 $70 $-1 $35 #
shell $-1 $-1 $-1 $71 $-1 $37 #
shell $-1 $-1 $-1 $72 $-1 $39 #
shell $-1 $-1 $-1 $73 $-1 $41 #
shell $-1 $-1 $-1 $74 $-1 $43 #
face $-1 $75 $76 $45 $-1 $77 forward single #
face $-1 $78 $79 $46 $-1 $80 reversed single #
face $-1 $81 $82 $47 $-1 $83 reversed single #
face $-1 $84 $85 $48 $-1 $86 reversed single #
face $-1 $87 $88 $49 $-1 $89 forward single #
face $-1 $90 $91 $50 $-1 $92 forward single #
face $-1 $93 $94 $51 $-1 $95 reversed single #
face $-1 $96 $97 $52 $-1 $98 forward single #
face $-1 $99 $100 $53 $-1 $101 forward single #
face $-1 $102 $103 $54 $-1 $104 reversed single #
face $-1 $105 $106 $55 $-1 $107 forward single #
face $-1 $108 $109 $56 $-1 $110 forward single #
face $-1 $111 $112 $57 $-1 $113 reversed single #
face $-1 $114 $115 $58 $-1 $116 forward single #
face $-1 $117 $118 $59 $-1 $119 forward single #
face $-1 $120 $121 $45 $-1 $122 reversed single #
loop $-1 $-1 $123 $60 #
plane-surface $-1 0 0 13.513422979718747 0 0 1 1 0 0 forward_v I I I I #
face $-1 $124 $125 $46 $-1 $126 reversed single #
loop $-1 $-1 $127 $61 #
plane-surface $-1 -42.700700306510804 0 6.5413099937716286 0 0 1 1 0 0 forward_v I I I I #
face $-1 $128 $129 $47 $-1 $130 reversed single #
loop $-1 $-1 $131 $62 #
plane-surface $-1 42.700700306510804 0 6.5413099937716286 0 0 1 1 0 0 forward_v I I I I #
face $-1 $132 $133 $48 $-1 $134 reversed single #
loop $-1 $-1 $135 $63 #
plane-surface $-1 -29.079146238077243 72.427086591682411 122.12688179880183 1 0 0 0 -0.79863551827123203 -0.60181501223851219 forward_v I I I I #
face $-1 $136 $137 $49 $-1 $138 forward single #
loop $-1 $139 $140 $64 #
cone-surface $-1 -26.472359622272133 30.875218359653989 9.2534439091922405 0 -0.79863551827123203 -0.60181501223851219 1 0 0 1 I I 0 1 1 forward I I I I #
face $-1 $141 $142 $50 $-1 $143 forward single #
loop $-1 $144 $145 $65 #
cone-surface $-1 -22.562179698564467 30.875218359653989 9.2534439091922405 0 -0.79863551827123203 -0.60181501223851219 1 0 0 1 I I 0 1 1 forward I I I I #
face $-1 $146 $147 $51 $-1 $148 reversed single #
loop $-1 $-1 $149 $66 #
plane-surface $-1 -12.73429979779838 72.427086591682411 122.12688179880183 1 0 0 0 -0.79863551827123203 -0.60181501223851219 forward_v I I I I #
face $-1 $150 $151 $52 $-1 $152 forward single #
loop $-1 $153 $154 $67 #
cone-surface $-1 -10.127513181993272 30.875218359653989 9.2534439091922405 0 -0.79863551827123203 -0.60181501223851219 1 0 0 1 I I 0 1 1 forward I I I I #
face $-1 $155 $156 $53 $-1 $157 forward single #
loop $-1 $158 $159 $68 #
cone-surface $-1 -6.2173332582855991 30.875218359653989 9.2534439091922405 0 -0.79863551827123203 -0.60181501223851219 1 0 0 1 I I 0 1 1 forward I I I I #
face $-1 $160 $161 $54 $-1 $162 reversed single #
loop $-1 $-1 $163 $69 #
plane-surface $-1 3.6105466424804842 72.427086591682411 122.12688179880183 1 0 0 0 -0.79863551827123203 -0.60181501223851219 forward_v I I I I #
face $-1 $164 $165 $55 $-1 $166 forward single #
loop $-1 $167 $168 $70 #
cone-surface $-1 6.217333258285592 30.875218359653989 9.2534439091922405 0 -0.79863551827123203 -0.60181501223851219 1 0 0 1 I I 0 1 1 forward I I I I #
face $-1 $169 $170 $56 $-1 $171 forward single #
loop $-1 $172 $173 $71 #
cone-surface $-1 10.127513181993265 30.875218359653989 9.2534439091922405 0 -0.79863551827123203 -0.60181501223851219 1 0 0 1 I I 0 1 1 forward I I I I #
face $-1 $174 $175 $57 $-1 $176 reversed single #
loop $-1 $-1 $177 $72 #
plane-surface $-1 19.955393082759358 72.427086591682411 122.12688179880183 1 0 0 0 -0.79863551827123203 -0.60181501223851219 forward_v I I I I #
face $-1 $178 $179 $58 $-1 $180 forward single #
loop $-1 $181 $182 $73 #
cone-surface $-1 22.562179698564456 30.875218359653989 9.2534439091922405 0 -0.79863551827123203 -0.60181501223851219 1 0 0 1 I I 0 1 1 forward I I I I #
face $-1 $183 $184 $59 $-1 $185 forward single #
loop $-1 $186 $187 $74 #
cone-surface $-1 26.47235962227213 30.875218359653989 9.2534439091922405 0 -0.79863551827123203 -0.60181501223851219 1 0 0 1 I I 0 1 1 forward I I I I #
face $-1 $188 $189 $45 $-1 $190 reversed single #
loop $-1 $-1 $191 $75 #
plane-surface $-1 0 0 -13.513422979718747 0 0 1 1 0 0 forward_v I I I I #
coedge $-1 $192 $193 $194 $195 forward $76 $-1 #
face $-1 $196 $197 $46 $-1 $198 reversed single #
loop $-1 $-1 $199 $78 #
plane-surface $-1 -35.641581282597706 0 10.027366486745187 -1 0 0 0 0 1 forward_v I I I I #
coedge $-1 $200 $201 $202 $203 forward $79 $-1 #
face $-1 $204 $205 $47 $-1 $206 forward single #
loop $-1 $-1 $207 $81 #
plane-surface $-1 35.641581282597706 0 10.027366486745187 1 0 0 0 0 -1 forward_v I I I I #
coedge $-1 $208 $209 $210 $211 reversed $82 $-1 #
face $-1 $212 $213 $48 $-1 $214 reversed single #
loop $-1 $-1 $215 $84 #
plane-surface $-1 -24.5172696604183 -7.0528316083895106 62.234469240151398 0 0.79863551827123203 0.60181501223851219 1 0 0 forward_v I I I I #
coedge $-1 $216 $217 $218 $219 reversed $85 $-1 #
face $-1 $-1 $220 $49 $-1 $221 forward single #
loop $-1 $222 $223 $87 #
cone-surface $-1 -26.472359622272133 29.202804853467363 7.9931899739900558 0 -0.79863551827123203 -0.60181501223851219 0.5 0 0 1 I I -0.70710678118654746 0.70710678118654746 0.5 forward I I I I #
loop $-1 $-1 $224 $64 #
coedge $-1 $140 $140 $225 $226 reversed $88 $-1 #
face $-1 $-1 $227 $50 $-1 $228 forward single #
loop $-1 $229 $230 $90 #
cone-surface $-1 -22.562179698564467 29.202804853467363 7.9931899739900558 0 -0.79863551827123203 -0.60181501223851219 0.5 0 0 1 I I -0.70710678118654746 0.70710678118654746 0.5 forward I I I I #
loop $-1 $-1 $231 $65 #
coedge $-1 $145 $145 $232 $233 reversed $91 $-1 #
face $-1 $234 $235 $51 $-1 $236 reversed single #
loop $-1 $-1 $237 $93 #
plane-surface $-1 -8.1724232201394358 -7.0528316083895106 62.234469240151398 0 0.79863551827123203 0.60181501223851219 1 0 0 forward_v I I I I #
coedge $-1 $238 $239 $240 $241 reversed $94 $-1 #
face $-1 $-1 $242 $52 $-1 $243 forward single #
loop $-1 $244 $245 $96 #
cone-surface $-1 -10.127513181993272 29.202804853467363 7.9931899739900558 0 -0.79863551827123203 -0.60181501223851219 0.5 0 0 1 I I -0.70710678118654746 0.70710678118654746 0.5 forward I I I I #
loop $-1 $-1 $246 $67 #
coedge $-1 $154 $154 $247 $248 reversed $97 $-1 #
face $-1 $-1 $249 $53 $-1 $250 forward single #
loop $-1 $251 $252 $99 #
cone-surface $-1 -6.2173332582855991 29.202804853467363 7.9931899739900558 0 -0.79863551827123203 -0.60181501223851219 0.5 0 0 1 I I -0.70710678118654746 0.70710678118654746 0.5 forward I I I I #
loop $-1 $-1 $253 $68 #
coedge $-1 $159 $159 $254 $255 reversed $100 $-1 #
face $-1 $256 $257 $54 $-1 $258 reversed single #
loop $-1 $-1 $259 $102 #
plane-surface $-1 8.1724232201394287 -7.0528316083895106 62.234469240151398 0 0.79863551827123203 0.60181501223851219 1 0 0 forward_v I I I I #
coedge $-1 $260 $261 $262 $263 reversed $103 $-1 #
face $-1 $-1 $264 $55 $-1 $265 forward single #
loop $-1 $266 $267 $105 #
cone-surface $-1 6.217333258285592 29.202804853467363 7.9931899739900558 0 -0.79863551827123203 -0.60181501223851219 0.5 0 0 1 I I -0.70710678118654746 0.70710678118654746 0.5 forward I I I I #
loop $-1 $-1 $268 $70 #
coedge $-1 $168 $168 $269 $270 reversed $106 $-1 #
face $-1 $-1 $271 $56 $-1 $272 forward single #
loop $-1 $273 $274 $108 #
cone-surface $-1 10.127513181993265 29.202804853467363 7.9931899739900558 0 -0.79863551827123203 -0.60181501223851219 0.5 0 0 1 I I -0.70710678118654746 0.70710678118654746 0.5 forward I I I I #
loop $-1 $-1 $275 $71 #
coedge $-1 $173 $173 $276 $277 reversed $109 $-1 #
face $-1 $278 $279 $57 $-1 $280 reversed single #
loop $-1 $-1 $281 $111 #
plane-surface $-1 24.5172696604183 -7.0528316083895106 62.234469240151398 0 0.79863551827123203 0.60181501223851219 1 0 0 forward_v I I I I #
coedge $-1 $282 $283 $284 $285 reversed $112 $-1 #
face $-1 $-1 $286 $58 $-1 $287 forward single #
loop $-1 $288 $289 $114 #
cone-surface $-1 22.562179698564456 29.202804853467363 7.9931899739900558 0 -0.79863551827123203 -0.60181501223851219 0.5 0 0 1 I I -0.70710678118654746 0.70710678118654746 0.5 forward I I I I #
loop $-1 $-1 $290 $73 #
coedge $-1 $182 $182 $291 $292 reversed $115 $-1 #
face $-1 $-1 $293 $59 $-1 $294 forward single #
loop $-1 $295 $296 $117 #
cone-surface $-1 26.47235962227213 29.202804853467363 7.9931899739900558 0 -0.79863551827123203 -0.60181501223851219 0.5 0 0 1 I I -0.70710678118654746 0.70710678118654746 0.5 forward I I I I #
loop $-1 $-1 $297 $74 #
coedge $-1 $187 $187 $298 $299 reversed $118 $-1 #
face $-1 $300 $301 $45 $-1 $302 reversed single #
loop $-1 $-1 $303 $120 #
plane-surface $-1 0 -34.635519130850426 0 0 1 0 0 0 1 forward_v I I I I #
coedge $-1 $304 $305 $306 $307 forward $121 $-1 #
coedge $-1 $308 $123 $309 $310 forward $76 $-1 #
coedge $-1 $123 $308 $311 $312 forward $76 $-1 #
coedge $-1 $313 $314 $123 $195 reversed $315 $-1 #
edge $-1 $316 -34.635519130850426 $317 34.635519130850426 $194 $318 forward 7 unknown #
face $-1 $319 $320 $46 $-1 $321 reversed single #
loop $-1 $-1 $322 $124 #
plane-surface $-1 0 34.635519130850426 0 0 -1 0 0 0 -1 forward_v I I I I #
coedge $-1 $202 $323 $324 $325 reversed $125 $-1 #
coedge $-1 $326 $127 $327 $328 reversed $79 $-1 #
coedge $-1 $127 $326 $329 $330 reversed $79 $-1 #
coedge $-1 $331 $199 $127 $203 reversed $125 $-1 #
edge $-1 $332 -34.635519130850426 $333 34.635519130850426 $202 $334 forward 7 unknown #
face $-1 $335 $336 $47 $-1 $337 reversed single #
loop $-1 $-1 $338 $128 #
plane-surface $-1 0 0 13.513422979718747 0 0 1 1 0 0 forward_v I I I I #
coedge $-1 $339 $340 $341 $342 reversed $129 $-1 #
coedge $-1 $343 $131 $344 $345 reversed $82 $-1 #
coedge $-1 $131 $343 $346 $347 reversed $82 $-1 #
coedge $-1 $348 $349 $131 $211 forward $350 $-1 #
edge $-1 $351 -34.635519130850426 $352 34.635519130850426 $210 $353 forward 7 unknown #
face $-1 $354 $355 $48 $-1 $356 reversed single #
loop $-1 $-1 $357 $132 #
plane-surface $-1 -19.955393082759358 72.427086591682411 122.12688179880183 -1 0 0 0 0.79863551827123203 0.60181501223851219 forward_v I I I I #
coedge $-1 $358 $359 $360 $361 reversed $133 $-1 #
coedge $-1 $217 $135 $362 $363 reversed $85 $-1 #
coedge $-1 $135 $216 $358 $364 reversed $85 $-1 #
coedge $-1 $360 $365 $135 $219 forward $366 $-1 #
edge $-1 $367 1.5780241649907794 $368 6.5524342132816358 $218 $369 forward 7 unknown #
loop $-1 $-1 $225 $136 #
plane-surface $-1 -24.5172696604183 -7.0528316083895106 62.234469240151398 0 0.79863551827123203 0.60181501223851219 1 0 0 forward_v I I I I #
loop $-1 $-1 $370 $87 #
coedge $-1 $223 $223 $224 $371 reversed $137 $-1 #
coedge $-1 $224 $224 $223 $371 forward $139 $-1 #
coedge $-1 $225 $225 $140 $226 forward $220 $-1 #
edge $-1 $372 -1.4388295220363729e-015 $372 6.2831853071795987 $225 $373 forward 7 unknown #
loop $-1 $-1 $232 $141 #
plane-surface $-1 -24.5172696604183 -7.0528316083895106 62.234469240151398 0 0.79863551827123203 0.60181501223851219 1 0 0 forward_v I I I I #
loop $-1 $-1 $374 $90 #
coedge $-1 $230 $230 $231 $375 reversed $142 $-1 #
coedge $-1 $231 $231 $230 $375 forward $144 $-1 #
coedge $-1 $232 $232 $145 $233 forward $227 $-1 #
edge $-1 $376 -1.4388295220363729e-015 $376 6.2831853071795987 $232 $377 forward 7 unknown #
face $-1 $378 $379 $51 $-1 $380 forward single #
loop $-1 $-1 $381 $146 #
plane-surface $-1 -3.6105466424804913 72.427086591682411 122.12688179880183 -1 0 0 0 0.79863551827123203 0.60181501223851219 forward_v I I I I #
coedge $-1 $382 $383 $384 $385 reversed $147 $-1 #
coedge $-1 $239 $149 $386 $387 reversed $94 $-1 #
coedge $-1 $149 $238 $382 $388 reversed $94 $-1 #
coedge $-1 $384 $389 $149 $241 forward $379 $-1 #
edge $-1 $390 1.5780241649907794 $391 6.5524342132816358 $240 $392 forward 7 unknown #
loop $-1 $-1 $247 $150 #
plane-surface $-1 -8.1724232201394358 -7.0528316083895106 62.234469240151398 0 0.79863551827123203 0.60181501223851219 1 0 0 forward_v I I I I #
loop $-1 $-1 $393 $96 #
coedge $-1 $245 $245 $246 $394 reversed $151 $-1 #
coedge $-1 $246 $246 $245 $394 forward $153 $-1 #
coedge $-1 $247 $247 $154 $248 forward $242 $-1 #
edge $-1 $395 -1.4388295220363729e-015 $395 6.2831853071795987 $247 $396 forward 7 unknown #
loop $-1 $-1 $254 $155 #
plane-surface $-1 -8.1724232201394358 -7.0528316083895106 62.234469240151398 0 0.79863551827123203 0.60181501223851219 1 0 0 forward_v I I I I #
loop $-1 $-1 $397 $99 #
coedge $-1 $252 $252 $253 $398 reversed $156 $-1 #
coedge $-1 $253 $253 $252 $398 forward $158 $-1 #
coedge $-1 $254 $254 $159 $255 forward $249 $-1 #
edge $-1 $399 -1.4388295220363729e-015 $399 6.2831853071795987 $254 $400 forward 7 unknown #
face $-1 $401 $402 $54 $-1 $403 forward single #
loop $-1 $-1 $404 $160 #
plane-surface $-1 12.734299797798373 72.427086591682411 122.12688179880183 -1 0 0 0 0.79863551827123203 0.60181501223851219 forward_v I I I I #
coedge $-1 $405 $406 $407 $408 reversed $161 $-1 #
coedge $-1 $261 $163 $409 $410 reversed $103 $-1 #
coedge $-1 $163 $260 $405 $411 reversed $103 $-1 #
coedge $-1 $407 $412 $163 $263 forward $402 $-1 #
edge $-1 $413 1.5780241649907794 $414 6.5524342132816358 $262 $415 forward 7 unknown #
loop $-1 $-1 $269 $164 #
plane-surface $-1 8.1724232201394287 -7.0528316083895106 62.234469240151398 0 0.79863551827123203 0.60181501223851219 1 0 0 forward_v I I I I #
loop $-1 $-1 $416 $105 #
coedge $-1 $267 $267 $268 $417 reversed $165 $-1 #
coedge $-1 $268 $268 $267 $417 forward $167 $-1 #
coedge $-1 $269 $269 $168 $270 forward $264 $-1 #
edge $-1 $418 -1.4388295220363729e-015 $418 6.2831853071795987 $269 $419 forward 7 unknown #
loop $-1 $-1 $276 $169 #
plane-surface $-1 8.1724232201394287 -7.0528316083895106 62.234469240151398 0 0.79863551827123203 0.60181501223851219 1 0 0 forward_v I I I I #
loop $-1 $-1 $420 $108 #
coedge $-1 $274 $274 $275 $421 reversed $170 $-1 #
coedge $-1 $275 $275 $274 $421 forward $172 $-1 #
coedge $-1 $276 $276 $173 $277 forward $271 $-1 #
edge $-1 $422 -1.4388295220363729e-015 $422 6.2831853071795987 $276 $423 forward 7 unknown #
face $-1 $424 $425 $57 $-1 $426 forward single #
loop $-1 $-1 $427 $174 #
plane-surface $-1 29.079146238077243 72.427086591682411 122.12688179880183 -1 0 0 0 0.79863551827123203 0.60181501223851219 forward_v I I I I #
coedge $-1 $428 $429 $430 $431 reversed $175 $-1 #
coedge $-1 $283 $177 $432 $433 reversed $112 $-1 #
coedge $-1 $177 $282 $428 $434 reversed $112 $-1 #
coedge $-1 $430 $435 $177 $285 forward $425 $-1 #
edge $-1 $436 1.5780241649907794 $437 6.5524342132816358 $284 $438 forward 7 unknown #
loop $-1 $-1 $291 $178 #
plane-surface $-1 24.5172696604183 -7.0528316083895106 62.234469240151398 0 0.79863551827123203 0.60181501223851219 1 0 0 forward_v I I I I #
loop $-1 $-1 $439 $114 #
coedge $-1 $289 $289 $290 $440 reversed $179 $-1 #
coedge $-1 $290 $290 $289 $440 forward $181 $-1 #
coedge $-1 $291 $291 $182 $292 forward $286 $-1 #
edge $-1 $441 -1.4388295220363729e-015 $441 6.2831853071795987 $291 $442 forward 7 unknown #
loop $-1 $-1 $298 $183 #
plane-surface $-1 24.5172696604183 -7.0528316083895106 62.234469240151398 0 0.79863551827123203 0.60181501223851219 1 0 0 forward_v I I I I #
loop $-1 $-1 $443 $117 #
coedge $-1 $296 $296 $297 $444 reversed $184 $-1 #
coedge $-1 $297 $297 $296 $444 forward $186 $-1 #
coedge $-1 $298 $298 $187 $299 forward $293 $-1 #
edge $-1 $445 -1.4388295220363729e-015 $445 6.2831853071795987 $298 $446 forward 7 unknown #
face $-1 $447 $448 $45 $-1 $449 reversed single #
loop $-1 $-1 $450 $188 #
plane-surface $-1 -49.759819330423902 0 0 1 0 0 0 0 -1 forward_v I I I I #
coedge $-1 $451 $311 $452 $453 forward $189 $-1 #
coedge $-1 $454 $191 $451 $455 forward $121 $-1 #
coedge $-1 $191 $454 $456 $457 forward $121 $-1 #
coedge $-1 $314 $313 $191 $307 reversed $315 $-1 #
edge $-1 $458 -34.635519130850426 $459 34.635519130850426 $306 $460 forward 7 unknown #
coedge $-1 $193 $192 $461 $462 forward $76 $-1 #
coedge $-1 $463 $464 $192 $310 reversed $448 $-1 #
edge $-1 $317 -49.759819330423902 $465 49.759819330423902 $309 $466 forward 7 unknown #
coedge $-1 $303 $467 $193 $312 reversed $189 $-1 #
edge $-1 $468 -49.759819330423902 $316 49.759819330423902 $311 $469 forward 7 unknown #
coedge $-1 $306 $194 $467 $470 forward $315 $-1 #
coedge $-1 $194 $306 $463 $471 reversed $315 $-1 #
loop $-1 $-1 $313 $447 #
vertex $-1 $195 $472 #
vertex $-1 $195 $473 #
straight-curve $-1 49.759819330423902 0 13.513422979718747 0 1 0 I I #
face $-1 $474 $475 $46 $-1 $476 forward single #
loop $-1 $-1 $477 $196 #
plane-surface $-1 -49.759819330423902 0 0 1 0 0 0 0 -1 forward_v I I I I #
coedge $-1 $329 $478 $331 $479 forward $197 $-1 #
coedge $-1 $199 $331 $480 $481 reversed $125 $-1 #
coedge $-1 $482 $327 $199 $325 forward $483 $-1 #
edge $-1 $333 1.5276267503990351 $484 8.499739736346152 $324 $485 forward 7 unknown #
coedge $-1 $201 $200 $477 $486 reversed $79 $-1 #
coedge $-1 $324 $487 $200 $328 forward $483 $-1 #
edge $-1 $488 -28.4094691771685 $333 -14.291231129342304 $327 $489 forward 7 unknown #
coedge $-1 $490 $322 $201 $330 forward $197 $-1 #
edge $-1 $332 14.291231129342304 $491 28.4094691771685 $329 $492 forward 7 unknown #
coedge $-1 $323 $202 $322 $479 reversed $125 $-1 #
vertex $-1 $330 $493 #
vertex $-1 $328 $494 #
straight-curve $-1 -35.641581282597706 0 6.5413099937716286 0 -1 0 I I #
face $-1 $495 $496 $47 $-1 $497 reversed single #
loop $-1 $-1 $498 $204 #
plane-surface $-1 0 -34.635519130850426 0 0 1 0 0 0 1 forward_v I I I I #
coedge $-1 $499 $500 $340 $501 forward $205 $-1 #
coedge $-1 $502 $207 $343 $503 reversed $129 $-1 #
coedge $-1 $207 $502 $338 $501 reversed $129 $-1 #
coedge $-1 $504 $346 $207 $342 forward $496 $-1 #
edge $-1 $505 1.5276267503990351 $506 8.499739736346152 $341 $507 forward 7 unknown #
coedge $-1 $209 $208 $339 $503 forward $82 $-1 #
coedge $-1 $508 $498 $208 $345 forward $336 $-1 #
edge $-1 $509 14.291231129342304 $351 28.4094691771685 $344 $510 forward 7 unknown #
coedge $-1 $341 $511 $209 $347 forward $496 $-1 #
edge $-1 $352 -28.4094691771685 $505 -14.291231129342304 $346 $512 forward 7 unknown #
coedge $-1 $513 $210 $511 $514 reversed $350 $-1 #
coedge $-1 $210 $513 $508 $515 forward $350 $-1 #
loop $-1 $-1 $210 $495 #
vertex $-1 $345 $516 #
vertex $-1 $211 $517 #
straight-curve $-1 49.759819330423902 0 6.5413099937716286 0 1 0 I I #
face $-1 $-1 $366 $48 $-1 $518 forward single #
loop $-1 $-1 $519 $212 #
plane-surface $-1 0 34.635519130850426 0 0 -1 0 0 0 -1 forward_v I I I I #
coedge $-1 $520 $521 $522 $523 reversed $213 $-1 #
coedge $-1 $524 $215 $217 $364 forward $133 $-1 #
coedge $-1 $215 $524 $520 $525 forward $133 $-1 #
coedge $-1 $522 $218 $215 $361 forward $366 $-1 #
edge $-1 $368 -16.820511407868093 $526 -7.6967582525502074 $360 $527 forward 7 unknown #
coedge $-1 $528 $529 $216 $363 forward $355 $-1 #
edge $-1 $530 -54.15128320256931 $367 -47.550017919682169 $362 $531 forward 7 unknown #
edge $-1 $368 61.005358697164837 $530 69.271038261700838 $217 $532 forward 7 unknown #
coedge $-1 $218 $522 $528 $533 forward $366 $-1 #
loop $-1 $-1 $522 $354 #
vertex $-1 $363 $534 #
vertex $-1 $219 $535 #
straight-curve $-1 -29.079146238077243 36.213543295841205 13.513422979718747 0 -1 0 I I #
coedge $-1 $370 $370 $-1 $536 reversed $222 $-1 #
edge $-1 $537 0 $537 6.2831853071796004 $223 $538 forward 7 unknown #
vertex $-1 $226 $539 #
ellipse-curve $-1 -26.472359622272133 32.148314106705001 10.212790338275173 0 0.79863551827123203 0.60181501223851219 1 0 0 1 I I #
coedge $-1 $374 $374 $-1 $540 reversed $229 $-1 #
edge $-1 $541 0 $541 6.2831853071796004 $230 $542 forward 7 unknown #
vertex $-1 $233 $543 #
ellipse-curve $-1 -22.562179698564467 32.148314106705001 10.212790338275173 0 0.79863551827123203 0.60181501223851219 1 0 0 1 I I #
face $-1 $-1 $544 $51 $-1 $545 reversed single #
loop $-1 $-1 $240 $234 #
plane-surface $-1 0 0 13.513422979718747 0 0 1 1 0 0 forward_v I I I I #
coedge $-1 $546 $547 $548 $549 reversed $235 $-1 #
coedge $-1 $550 $237 $239 $388 forward $147 $-1 #
coedge $-1 $237 $550 $546 $551 forward $147 $-1 #
coedge $-1 $548 $240 $237 $385 forward $379 $-1 #
edge $-1 $391 -8.6480881877286624 $552 0.47566496758922661 $384 $553 forward 7 unknown #
coedge $-1 $554 $555 $238 $387 forward $544 $-1 #
edge $-1 $556 -54.15128320256931 $390 -47.550017919682169 $386 $557 forward 7 unknown #
edge $-1 $391 61.005358697164837 $556 69.271038261700838 $239 $558 forward 7 unknown #
coedge $-1 $240 $548 $554 $559 forward $379 $-1 #
vertex $-1 $241 $560 #
vertex $-1 $241 $561 #
straight-curve $-1 -12.73429979779838 36.213543295841205 13.513422979718747 0 -1 0 I I #
coedge $-1 $393 $393 $-1 $562 reversed $244 $-1 #
edge $-1 $563 0 $563 6.2831853071796004 $245 $564 forward 7 unknown #
vertex $-1 $248 $565 #
ellipse-curve $-1 -10.127513181993272 32.148314106705001 10.212790338275173 0 0.79863551827123203 0.60181501223851219 1 0 0 1 I I #
coedge $-1 $397 $397 $-1 $566 reversed $251 $-1 #
edge $-1 $567 0 $567 6.2831853071796004 $252 $568 forward 7 unknown #
vertex $-1 $255 $569 #
ellipse-curve $-1 -6.2173332582855991 32.148314106705001 10.212790338275173 0 0.79863551827123203 0.60181501223851219 1 0 0 1 I I #
face $-1 $-1 $570 $54 $-1 $571 reversed single #
loop $-1 $-1 $262 $256 #
plane-surface $-1 0 0 13.513422979718747 0 0 1 1 0 0 forward_v I I I I #
coedge $-1 $572 $573 $574 $575 reversed $257 $-1 #
coedge $-1 $576 $259 $261 $411 forward $161 $-1 #
coedge $-1 $259 $576 $572 $577 forward $161 $-1 #
coedge $-1 $574 $262 $259 $408 forward $402 $-1 #
edge $-1 $414 -0.47566496758923016 $578 8.6480881877286588 $407 $579 forward 7 unknown #
coedge $-1 $580 $581 $260 $410 forward $570 $-1 #
edge $-1 $582 -54.15128320256931 $413 -47.550017919682169 $409 $583 forward 7 unknown #
edge $-1 $414 61.005358697164837 $582 69.271038261700838 $261 $584 forward 7 unknown #
coedge $-1 $262 $574 $580 $585 forward $402 $-1 #
vertex $-1 $263 $586 #
vertex $-1 $263 $587 #
straight-curve $-1 3.6105466424804842 36.213543295841205 13.513422979718747 0 -1 0 I I #
coedge $-1 $416 $416 $-1 $588 reversed $266 $-1 #
edge $-1 $589 0 $589 6.2831853071796004 $267 $590 forward 7 unknown #
vertex $-1 $270 $591 #
ellipse-curve $-1 6.217333258285592 32.148314106705001 10.212790338275173 0 0.79863551827123203 0.60181501223851219 1 0 0 1 I I #
coedge $-1 $420 $420 $-1 $592 reversed $273 $-1 #
edge $-1 $593 0 $593 6.2831853071796004 $274 $594 forward 7 unknown #
vertex $-1 $277 $595 #
ellipse-curve $-1 10.127513181993265 32.148314106705001 10.212790338275173 0 0.79863551827123203 0.60181501223851219 1 0 0 1 I I #
face $-1 $-1 $596 $57 $-1 $597 reversed single #
loop $-1 $-1 $284 $278 #
plane-surface $-1 0 0 13.513422979718747 0 0 1 1 0 0 forward_v I I I I #
coedge $-1 $598 $599 $600 $601 reversed $279 $-1 #
coedge $-1 $602 $281 $283 $434 forward $175 $-1 #
coedge $-1 $281 $602 $598 $603 forward $175 $-1 #
coedge $-1 $600 $284 $281 $431 forward $425 $-1 #
edge $-1 $437 7.6967582525502074 $604 16.820511407868093 $430 $605 forward 7 unknown #
coedge $-1 $606 $607 $282 $433 forward $596 $-1 #
edge $-1 $608 -54.15128320256931 $436 -47.550017919682169 $432 $609 forward 7 unknown #
edge $-1 $437 61.005358697164837 $608 69.271038261700838 $283 $610 forward 7 unknown #
coedge $-1 $284 $600 $606 $611 forward $425 $-1 #
vertex $-1 $285 $612 #
vertex $-1 $285 $613 #
straight-curve $-1 19.955393082759358 36.213543295841205 13.513422979718747 0 -1 0 I I #
coedge $-1 $439 $439 $-1 $614 reversed $288 $-1 #
edge $-1 $615 0 $615 6.2831853071796004 $289 $616 forward 7 unknown #
vertex $-1 $292 $617 #
ellipse-curve $-1 22.562179698564456 32.148314106705001 10.212790338275173 0 0.79863551827123203 0.60181501223851219 1 0 0 1 I I #
coedge $-1 $443 $443 $-1 $618 reversed $295 $-1 #
edge $-1 $619 0 $619 6.2831853071796004 $296 $620 forward 7 unknown #
vertex $-1 $299 $621 #
ellipse-curve $-1 26.47235962227213 32.148314106705001 10.212790338275173 0 0.79863551827123203 0.60181501223851219 1 0 0 1 I I #
face $-1 $-1 $315 $45 $-1 $622 reversed single #
loop $-1 $-1 $463 $300 #
plane-surface $-1 0 34.635519130850426 0 0 -1 0 0 0 -1 forward_v I I I I #
coedge $-1 $623 $461 $464 $624 forward $301 $-1 #
coedge $-1 $467 $303 $304 $455 reversed $189 $-1 #
coedge $-1 $461 $623 $303 $453 reversed $301 $-1 #
edge $-1 $468 -13.513422979718747 $625 13.513422979718747 $452 $626 forward 7 unknown #
coedge $-1 $305 $304 $623 $627 forward $121 $-1 #
edge $-1 $459 -49.759819330423902 $625 49.759819330423902 $451 $628 forward 7 unknown #
coedge $-1 $464 $463 $305 $457 reversed $448 $-1 #
edge $-1 $629 -49.759819330423902 $458 49.759819330423902 $456 $630 forward 7 unknown #
vertex $-1 $307 $631 #
vertex $-1 $470 $632 #
straight-curve $-1 49.759819330423902 0 -13.513422979718747 0 -1 0 I I #
coedge $-1 $450 $452 $308 $462 reversed $301 $-1 #
edge $-1 $465 -34.635519130850426 $468 34.635519130850426 $461 $633 forward 7 unknown #
coedge $-1 $456 $309 $314 $471 forward $448 $-1 #
coedge $-1 $309 $456 $450 $624 reversed $448 $-1 #
vertex $-1 $310 $634 #
straight-curve $-1 0 34.635519130850426 13.513422979718747 -1 0 0 I I #
coedge $-1 $311 $451 $313 $470 reversed $189 $-1 #
vertex $-1 $462 $635 #
straight-curve $-1 0 -34.635519130850426 13.513422979718747 1 0 0 I I #
edge $-1 $316 -13.513422979718747 $459 13.513422979718747 $313 $636 forward 7 unknown #
edge $-1 $317 -13.513422979718747 $458 13.513422979718747 $314 $637 forward 7 unknown #
point $-1 49.759819330423902 -34.635519130850426 13.513422979718747 #
point $-1 49.759819330423902 34.635519130850426 13.513422979718747 #
face $-1 $-1 $483 $46 $-1 $638 reversed single #
loop $-1 $-1 $480 $319 #
plane-surface $-1 0 0 13.513422979718747 0 0 1 1 0 0 forward_v I I I I #
coedge $-1 $639 $640 $326 $486 forward $320 $-1 #
coedge $-1 $322 $490 $641 $642 reversed $197 $-1 #
edge $-1 $643 -8.499739736346152 $332 -1.5276267503990351 $322 $644 forward 7 unknown #
coedge $-1 $641 $645 $323 $481 forward $475 $-1 #
edge $-1 $484 -34.635519130850426 $643 34.635519130850426 $480 $646 forward 7 unknown #
coedge $-1 $487 $324 $645 $647 reversed $483 $-1 #
loop $-1 $-1 $324 $474 #
vertex $-1 $325 $648 #
straight-curve $-1 -35.641581282597706 -34.635519130850426 5.0136832433725935 0 0 1 I I #
edge $-1 $491 -34.635519130850426 $488 34.635519130850426 $477 $649 forward 7 unknown #
coedge $-1 $327 $482 $639 $650 forward $483 $-1 #
vertex $-1 $486 $651 #
straight-curve $-1 -21.350350153255402 -34.635519130850426 6.5413099937716286 1 0 0 I I #
coedge $-1 $478 $329 $640 $652 reversed $197 $-1 #
vertex $-1 $486 $653 #
straight-curve $-1 -21.350350153255402 34.635519130850426 6.5413099937716286 -1 0 0 I I #
point $-1 -35.641581282597706 34.635519130850426 6.5413099937716286 #
point $-1 -35.641581282597706 -34.635519130850426 6.5413099937716286 #
face $-1 $-1 $350 $47 $-1 $654 reversed single #
loop $-1 $-1 $341 $335 #
plane-surface $-1 0 34.635519130850426 0 0 -1 0 0 0 -1 forward_v I I I I #
coedge $-1 $344 $655 $502 $656 forward $336 $-1 #
coedge $-1 $657 $338 $655 $658 forward $205 $-1 #
coedge $-1 $338 $657 $504 $659 forward $205 $-1 #
edge $-1 $506 -34.635519130850426 $660 34.635519130850426 $338 $661 forward 7 unknown #
coedge $-1 $340 $339 $498 $656 reversed $129 $-1 #
edge $-1 $509 -34.635519130850426 $505 34.635519130850426 $339 $662 forward 7 unknown #
coedge $-1 $511 $341 $500 $659 reversed $496 $-1 #
vertex $-1 $347 $663 #
vertex $-1 $342 $664 #
straight-curve $-1 35.641581282597706 34.635519130850426 5.0136832433725935 0 0 1 I I #
coedge $-1 $655 $344 $349 $515 reversed $336 $-1 #
vertex $-1 $345 $665 #
straight-curve $-1 21.350350153255402 -34.635519130850426 6.5413099937716286 1 0 0 I I #
coedge $-1 $346 $504 $348 $514 forward $496 $-1 #
straight-curve $-1 21.350350153255402 34.635519130850426 6.5413099937716286 -1 0 0 I I #
coedge $-1 $349 $348 $657 $666 reversed $350 $-1 #
edge $-1 $667 -13.513422979718747 $352 -6.5413099937716286 $348 $668 forward 7 unknown #
edge $-1 $669 -13.513422979718747 $351 -6.5413099937716286 $349 $670 forward 7 unknown #
point $-1 49.759819330423902 -34.635519130850426 6.5413099937716286 #
point $-1 49.759819330423902 34.635519130850426 6.5413099937716286 #
plane-surface $-1 0 0 13.513422979718747 0 0 1 1 0 0 forward_v I I I I #
coedge $-1 $529 $528 $521 $671 forward $355 $-1 #
coedge $-1 $521 $357 $359 $525 reversed $213 $-1 #
coedge $-1 $357 $520 $519 $671 reversed $213 $-1 #
coedge $-1 $365 $360 $357 $523 forward $366 $-1 #
edge $-1 $526 -6.5524342132816358 $672 -1.5780241649907794 $522 $673 forward 7 unknown #
coedge $-1 $359 $358 $529 $674 reversed $133 $-1 #
edge $-1 $675 -69.271038261700838 $526 -61.005358697164837 $520 $676 forward 7 unknown #
vertex $-1 $361 $677 #
straight-curve $-1 -12.25863483020915 29.66110908255957 13.513422979718751 1 0 0 I I #
coedge $-1 $519 $362 $365 $533 reversed $355 $-1 #
coedge $-1 $362 $519 $524 $674 forward $355 $-1 #
vertex $-1 $363 $678 #
straight-curve $-1 -29.079146238077243 34.635519130850426 61.063440899400916 0 0 1 I I #
straight-curve $-1 -29.079146238077243 -7.0528316083895106 62.234469240151398 0 0.60181501223851219 -0.79863551827123203 I I #
edge $-1 $672 19.955393082759358 $367 29.079146238077243 $528 $679 forward 7 unknown #
point $-1 -29.079146238077243 34.635519130850426 13.513422979718747 #
point $-1 -29.079146238077243 29.66110908255957 13.513422979718747 #
edge $-1 $680 1 $680 0 $370 $-1 forward 7 unknown #
vertex $-1 $371 $681 #
ellipse-curve $-1 -26.472359622272133 29.60212261260298 8.2940974801093112 0 0.79863551827123203 0.60181501223851219 1 0 0 1 I I #
point $-1 -25.472359622272133 32.148314106704994 10.21279033827517 #
edge $-1 $682 1 $682 0 $374 $-1 forward 7 unknown #
vertex $-1 $375 $683 #
ellipse-curve $-1 -22.562179698564467 29.60212261260298 8.2940974801093112 0 0.79863551827123203 0.60181501223851219 1 0 0 1 I I #
point $-1 -21.562179698564467 32.148314106704994 10.21279033827517 #
loop $-1 $-1 $386 $378 #
plane-surface $-1 0 34.635519130850426 0 0 -1 0 0 0 -1 forward_v I I I I #
coedge $-1 $547 $381 $383 $551 reversed $235 $-1 #
coedge $-1 $381 $546 $684 $685 reversed $235 $-1 #
coedge $-1 $389 $384 $381 $549 forward $379 $-1 #
edge $-1 $552 -6.5524342132816358 $686 -1.5780241649907794 $548 $687 forward 7 unknown #
coedge $-1 $383 $382 $555 $688 reversed $147 $-1 #
edge $-1 $689 -69.271038261700838 $552 -61.005358697164837 $546 $690 forward 7 unknown #
vertex $-1 $385 $691 #
straight-curve $-1 -4.0862116100697179 29.66110908255957 13.513422979718751 1 0 0 I I #
coedge $-1 $684 $386 $389 $559 reversed $544 $-1 #
coedge $-1 $386 $684 $550 $688 forward $544 $-1 #
vertex $-1 $387 $692 #
straight-curve $-1 -12.73429979779838 34.635519130850426 61.063440899400916 0 0 1 I I #
straight-curve $-1 -12.73429979779838 -7.0528316083895106 62.234469240151398 0 0.60181501223851219 -0.79863551827123203 I I #
edge $-1 $686 3.6105466424804913 $390 12.73429979779838 $554 $693 forward 7 unknown #
point $-1 -12.73429979779838 34.635519130850426 13.513422979718747 #
point $-1 -12.73429979779838 29.66110908255957 13.513422979718747 #
edge $-1 $694 1 $694 0 $393 $-1 forward 7 unknown #
vertex $-1 $394 $695 #
ellipse-curve $-1 -10.127513181993272 29.60212261260298 8.2940974801093112 0 0.79863551827123203 0.60181501223851219 1 0 0 1 I I #
point $-1 -9.1275131819932724 32.148314106704994 10.21279033827517 #
edge $-1 $696 1 $696 0 $397 $-1 forward 7 unknown #
vertex $-1 $398 $697 #
ellipse-curve $-1 -6.2173332582855991 29.60212261260298 8.2940974801093112 0 0.79863551827123203 0.60181501223851219 1 0 0 1 I I #
point $-1 -5.2173332582855991 32.148314106704994 10.21279033827517 #
loop $-1 $-1 $409 $401 #
plane-surface $-1 0 34.635519130850426 0 0 -1 0 0 0 -1 forward_v I I I I #
coedge $-1 $573 $404 $406 $577 reversed $257 $-1 #
coedge $-1 $404 $572 $698 $699 reversed $257 $-1 #
coedge $-1 $412 $407 $404 $575 forward $402 $-1 #
edge $-1 $578 -6.5524342132816358 $700 -1.5780241649907794 $574 $701 forward 7 unknown #
coedge $-1 $406 $405 $581 $702 reversed $161 $-1 #
edge $-1 $703 -69.271038261700838 $578 -61.005358697164837 $572 $704 forward 7 unknown #
vertex $-1 $408 $705 #
straight-curve $-1 4.0862116100697143 29.66110908255957 13.513422979718751 1 0 0 I I #
coedge $-1 $698 $409 $412 $585 reversed $570 $-1 #
coedge $-1 $409 $698 $576 $702 forward $570 $-1 #
vertex $-1 $410 $706 #
straight-curve $-1 3.6105466424804842 34.635519130850426 61.063440899400916 0 0 1 I I #
straight-curve $-1 3.6105466424804842 -7.0528316083895106 62.234469240151398 0 0.60181501223851219 -0.79863551827123203 I I #
edge $-1 $700 -12.734299797798373 $413 -3.6105466424804842 $580 $707 forward 7 unknown #
point $-1 3.6105466424804842 34.635519130850426 13.513422979718747 #
point $-1 3.6105466424804842 29.66110908255957 13.513422979718747 #
edge $-1 $708 1 $708 0 $416 $-1 forward 7 unknown #
vertex $-1 $417 $709 #
ellipse-curve $-1 6.217333258285592 29.60212261260298 8.2940974801093112 0 0.79863551827123203 0.60181501223851219 1 0 0 1 I I #
point $-1 7.217333258285592 32.148314106704994 10.21279033827517 #
edge $-1 $710 1 $710 0 $420 $-1 forward 7 unknown #
vertex $-1 $421 $711 #
ellipse-curve $-1 10.127513181993265 29.60212261260298 8.2940974801093112 0 0.79863551827123203 0.60181501223851219 1 0 0 1 I I #
point $-1 11.127513181993265 32.148314106704994 10.21279033827517 #
loop $-1 $-1 $432 $424 #
plane-surface $-1 0 34.635519130850426 0 0 -1 0 0 0 -1 forward_v I I I I #
coedge $-1 $599 $427 $429 $603 reversed $279 $-1 #
coedge $-1 $427 $598 $712 $713 reversed $279 $-1 #
coedge $-1 $435 $430 $427 $601 forward $425 $-1 #
edge $-1 $604 -6.5524342132816358 $714 -1.5780241649907794 $600 $715 forward 7 unknown #
coedge $-1 $429 $428 $607 $716 reversed $175 $-1 #
edge $-1 $717 -69.271038261700838 $604 -61.005358697164837 $598 $718 forward 7 unknown #
vertex $-1 $431 $719 #
straight-curve $-1 12.25863483020915 29.66110908255957 13.513422979718751 1 0 0 I I #
coedge $-1 $712 $432 $435 $611 reversed $596 $-1 #
coedge $-1 $432 $712 $602 $716 forward $596 $-1 #
vertex $-1 $433 $720 #
straight-curve $-1 19.955393082759358 34.635519130850426 61.063440899400916 0 0 1 I I #
straight-curve $-1 19.955393082759358 -7.0528316083895106 62.234469240151398 0 0.60181501223851219 -0.79863551827123203 I I #
edge $-1 $714 -29.079146238077243 $436 -19.955393082759358 $606 $721 forward 7 unknown #
point $-1 19.955393082759358 34.635519130850426 13.513422979718747 #
point $-1 19.955393082759358 29.66110908255957 13.513422979718747 #
edge $-1 $722 1 $722 0 $439 $-1 forward 7 unknown #
vertex $-1 $440 $723 #
ellipse-curve $-1 22.562179698564456 29.60212261260298 8.2940974801093112 0 0.79863551827123203 0.60181501223851219 1 0 0 1 I I #
point $-1 23.562179698564456 32.148314106704994 10.21279033827517 #
edge $-1 $724 1 $724 0 $443 $-1 forward 7 unknown #
vertex $-1 $444 $725 #
ellipse-curve $-1 26.47235962227213 29.60212261260298 8.2940974801093112 0 0.79863551827123203 0.60181501223851219 1 0 0 1 I I #
point $-1 27.47235962227213 32.148314106704994 10.21279033827517 #
plane-surface $-1 49.759819330423902 0 0 -1 0 0 0 0 1 forward_v I I I I #
coedge $-1 $452 $450 $454 $627 reversed $301 $-1 #
edge $-1 $465 -13.513422979718747 $629 13.513422979718747 $464 $726 forward 7 unknown #
vertex $-1 $627 $727 #
straight-curve $-1 -49.759819330423902 -34.635519130850426 0 0 0 -1 I I #
edge $-1 $625 -34.635519130850426 $629 34.635519130850426 $623 $728 forward 7 unknown #
straight-curve $-1 0 -34.635519130850426 -13.513422979718747 -1 0 0 I I #
vertex $-1 $457 $729 #
straight-curve $-1 0 34.635519130850426 -13.513422979718747 1 0 0 I I #
point $-1 49.759819330423902 34.635519130850426 -13.513422979718747 #
point $-1 49.759819330423902 -34.635519130850426 -13.513422979718747 #
straight-curve $-1 -49.759819330423902 0 13.513422979718747 0 -1 0 I I #
point $-1 -49.759819330423902 34.635519130850426 13.513422979718747 #
point $-1 -49.759819330423902 -34.635519130850426 13.513422979718747 #
straight-curve $-1 49.759819330423902 -34.635519130850426 0 0 0 -1 I I #
straight-curve $-1 49.759819330423902 34.635519130850426 0 0 0 -1 I I #
plane-surface $-1 0 -34.635519130850426 0 0 1 0 0 0 1 forward_v I I I I #
coedge $-1 $730 $477 $487 $650 reversed $320 $-1 #
coedge $-1 $477 $730 $490 $652 forward $320 $-1 #
coedge $-1 $731 $480 $478 $642 forward $475 $-1 #
edge $-1 $643 35.641581282597706 $732 49.759819330423902 $478 $733 forward 7 unknown #
vertex $-1 $642 $734 #
straight-curve $-1 -35.641581282597706 34.635519130850426 5.0136832433725935 0 0 -1 I I #
coedge $-1 $480 $731 $482 $647 forward $475 $-1 #
straight-curve $-1 -35.641581282597706 0 13.513422979718747 0 1 0 I I #
edge $-1 $735 -49.759819330423902 $484 -35.641581282597706 $482 $736 forward 7 unknown #
point $-1 -35.641581282597706 -34.635519130850426 13.513422979718746 #
straight-curve $-1 -49.759819330423902 0 6.5413099937716286 0 -1 0 I I #
edge $-1 $735 -13.513422979718747 $488 -6.5413099937716286 $639 $737 forward 7 unknown #
point $-1 -49.759819330423902 -34.635519130850426 6.5413099937716286 #
edge $-1 $732 -13.513422979718747 $491 -6.5413099937716286 $490 $738 forward 7 unknown #
point $-1 -49.759819330423902 34.635519130850426 6.5413099937716286 #
plane-surface $-1 49.759819330423902 0 0 -1 0 0 0 0 1 forward_v I I I I #
coedge $-1 $498 $508 $499 $658 reversed $336 $-1 #
edge $-1 $660 -8.499739736346152 $509 -1.5276267503990351 $498 $739 forward 7 unknown #
coedge $-1 $500 $499 $513 $666 forward $205 $-1 #
edge $-1 $660 35.641581282597706 $669 49.759819330423902 $655 $740 forward 7 unknown #
edge $-1 $667 -49.759819330423902 $506 -35.641581282597706 $504 $741 forward 7 unknown #
vertex $-1 $658 $742 #
straight-curve $-1 35.641581282597706 0 13.513422979718747 0 -1 0 I I #
straight-curve $-1 35.641581282597706 0 6.5413099937716286 0 1 0 I I #
point $-1 35.641581282597706 34.635519130850426 6.5413099937716286 #
point $-1 35.641581282597706 34.635519130850426 13.513422979718746 #
point $-1 35.641581282597706 -34.635519130850426 6.5413099937716286 #
edge $-1 $669 -34.635519130850426 $667 34.635519130850426 $513 $743 forward 7 unknown #
vertex $-1 $666 $744 #
straight-curve $-1 49.759819330423902 34.635519130850426 0 0 0 -1 I I #
vertex $-1 $666 $745 #
straight-curve $-1 49.759819330423902 -34.635519130850426 0 0 0 -1 I I #
edge $-1 $672 47.550017919682169 $675 54.15128320256931 $519 $746 forward 7 unknown #
vertex $-1 $533 $747 #
straight-curve $-1 -19.955393082759358 36.213543295841205 13.513422979718747 0 1 0 I I #
edge $-1 $675 7.6967582525502074 $530 16.820511407868093 $529 $748 forward 7 unknown #
vertex $-1 $674 $749 #
straight-curve $-1 -19.955393082759358 -7.0528316083895106 62.234469240151398 0 -0.60181501223851219 0.79863551827123203 I I #
point $-1 -19.955393082759358 29.66110908255957 13.513422979718747 #
point $-1 -29.079146238077243 34.635519130850426 6.9121576968316063 #
straight-curve $-1 0 34.635519130850426 13.513422979718747 -1 0 0 I I #
vertex $-1 $536 $750 #
point $-1 -25.472359622272133 29.60212261260298 8.2940974801093112 #
vertex $-1 $540 $751 #
point $-1 -21.562179698564467 29.60212261260298 8.2940974801093112 #
coedge $-1 $555 $554 $547 $685 forward $544 $-1 #
edge $-1 $686 47.550017919682169 $689 54.15128320256931 $684 $752 forward 7 unknown #
vertex $-1 $559 $753 #
straight-curve $-1 -3.6105466424804913 36.213543295841205 13.513422979718747 0 1 0 I I #
edge $-1 $689 -0.47566496758922661 $556 8.6480881877286624 $555 $754 forward 7 unknown #
vertex $-1 $688 $755 #
straight-curve $-1 -3.6105466424804913 -7.0528316083895106 62.234469240151398 0 -0.60181501223851219 0.79863551827123203 I I #
point $-1 -3.6105466424804913 29.66110908255957 13.513422979718747 #
point $-1 -12.73429979779838 34.635519130850426 6.9121576968316063 #
straight-curve $-1 0 34.635519130850426 13.513422979718747 -1 0 0 I I #
vertex $-1 $562 $756 #
point $-1 -9.1275131819932724 29.60212261260298 8.2940974801093112 #
vertex $-1 $566 $757 #
point $-1 -5.2173332582855991 29.60212261260298 8.2940974801093112 #
coedge $-1 $581 $580 $573 $699 forward $570 $-1 #
edge $-1 $700 47.550017919682169 $703 54.15128320256931 $698 $758 forward 7 unknown #
vertex $-1 $585 $759 #
straight-curve $-1 12.734299797798373 36.213543295841205 13.513422979718747 0 1 0 I I #
edge $-1 $703 -8.6480881877286588 $582 0.47566496758923016 $581 $760 forward 7 unknown #
vertex $-1 $702 $761 #
straight-curve $-1 12.734299797798373 -7.0528316083895106 62.234469240151398 0 -0.60181501223851219 0.79863551827123203 I I #
point $-1 12.734299797798373 29.66110908255957 13.513422979718747 #
point $-1 3.6105466424804842 34.635519130850426 6.9121576968316063 #
straight-curve $-1 0 34.635519130850426 13.513422979718747 -1 0 0 I I #
vertex $-1 $588 $762 #
point $-1 7.217333258285592 29.60212261260298 8.2940974801093112 #
vertex $-1 $592 $763 #
point $-1 11.127513181993265 29.60212261260298 8.2940974801093112 #
coedge $-1 $607 $606 $599 $713 forward $596 $-1 #
edge $-1 $714 47.550017919682169 $717 54.15128320256931 $712 $764 forward 7 unknown #
vertex $-1 $611 $765 #
straight-curve $-1 29.079146238077243 36.213543295841205 13.513422979718747 0 1 0 I I #
edge $-1 $717 -16.820511407868093 $608 -7.6967582525502074 $607 $766 forward 7 unknown #
vertex $-1 $716 $767 #
straight-curve $-1 29.079146238077243 -7.0528316083895106 62.234469240151398 0 -0.60181501223851219 0.79863551827123203 I I #
point $-1 29.079146238077243 29.66110908255957 13.513422979718747 #
point $-1 19.955393082759358 34.635519130850426 6.9121576968316063 #
straight-curve $-1 0 34.635519130850426 13.513422979718747 -1 0 0 I I #
vertex $-1 $614 $768 #
point $-1 23.562179698564456 29.60212261260298 8.2940974801093112 #
vertex $-1 $618 $769 #
point $-1 27.47235962227213 29.60212261260298 8.2940974801093112 #
straight-curve $-1 -49.759819330423902 34.635519130850426 0 0 0 -1 I I #
point $-1 -49.759819330423902 -34.635519130850426 -13.513422979718747 #
straight-curve $-1 -49.759819330423902 0 -13.513422979718747 0 1 0 I I #
point $-1 -49.759819330423902 34.635519130850426 -13.513422979718747 #
coedge $-1 $640 $639 $731 $770 reversed $320 $-1 #
coedge $-1 $645 $641 $730 $770 forward $475 $-1 #
vertex $-1 $642 $771 #
straight-curve $-1 0 34.635519130850426 13.513422979718747 -1 0 0 I I #
point $-1 -35.641581282597706 34.635519130850426 13.513422979718746 #
vertex $-1 $770 $772 #
straight-curve $-1 0 -34.635519130850426 13.513422979718747 1 0 0 I I #
straight-curve $-1 -49.759819330423902 -34.635519130850426 0 0 0 -1 I I #
straight-curve $-1 -49.759819330423902 34.635519130850426 0 0 0 -1 I I #
straight-curve $-1 35.641581282597706 -34.635519130850426 5.0136832433725935 0 0 -1 I I #
straight-curve $-1 0 -34.635519130850426 13.513422979718747 1 0 0 I I #
straight-curve $-1 0 34.635519130850426 13.513422979718747 -1 0 0 I I #
point $-1 35.641581282597706 -34.635519130850426 13.513422979718746 #
straight-curve $-1 49.759819330423902 0 13.513422979718747 0 1 0 I I #
point $-1 49.759819330423902 34.635519130850426 13.513422979718747 #
point $-1 49.759819330423902 -34.635519130850426 13.513422979718747 #
straight-curve $-1 -19.955393082759358 34.635519130850426 61.063440899400916 0 0 -1 I I #
point $-1 -19.955393082759358 34.635519130850426 13.513422979718747 #
straight-curve $-1 -12.25863483020915 34.635519130850426 6.9121576968316134 -1 0 0 I I #
point $-1 -19.955393082759358 34.635519130850426 6.9121576968316063 #
point $-1 -26.472359622272133 28.803487094331746 7.6922824678707995 #
point $-1 -22.562179698564467 28.803487094331746 7.6922824678707995 #
straight-curve $-1 -3.6105466424804913 34.635519130850426 61.063440899400916 0 0 -1 I I #
point $-1 -3.6105466424804913 34.635519130850426 13.513422979718747 #
straight-curve $-1 -4.0862116100697179 34.635519130850426 6.9121576968316134 -1 0 0 I I #
point $-1 -3.6105466424804913 34.635519130850426 6.9121576968316063 #
point $-1 -10.127513181993272 28.803487094331746 7.6922824678707995 #
point $-1 -6.2173332582855991 28.803487094331746 7.6922824678707995 #
straight-curve $-1 12.734299797798373 34.635519130850426 61.063440899400916 0 0 -1 I I #
point $-1 12.734299797798373 34.635519130850426 13.513422979718747 #
straight-curve $-1 4.0862116100697143 34.635519130850426 6.9121576968316134 -1 0 0 I I #
point $-1 12.734299797798373 34.635519130850426 6.9121576968316063 #
point $-1 6.217333258285592 28.803487094331746 7.6922824678707995 #
point $-1 10.127513181993265 28.803487094331746 7.6922824678707995 #
straight-curve $-1 29.079146238077243 34.635519130850426 61.063440899400916 0 0 -1 I I #
point $-1 29.079146238077243 34.635519130850426 13.513422979718747 #
straight-curve $-1 12.25863483020915 34.635519130850426 6.9121576968316134 -1 0 0 I I #
point $-1 29.079146238077243 34.635519130850426 6.9121576968316063 #
point $-1 22.562179698564456 28.803487094331746 7.6922824678707995 #
point $-1 26.47235962227213 28.803487094331746 7.6922824678707995 #
edge $-1 $732 -34.635519130850426 $735 34.635519130850426 $730 $773 forward 7 unknown #
point $-1 -49.759819330423902 34.635519130850426 13.513422979718747 #
point $-1 -49.759819330423902 -34.635519130850426 13.513422979718747 #
straight-curve $-1 -49.759819330423902 0 13.513422979718747 0 -1 0 I I #
End-of-ACIS-data 