500 0 4 0           
7 Unknown 11 ACIS 5.0 NT 24 Thu Mar 25 16:21:00 1999 
-1 9.9999999999999995e-007 1e-010 
body $-1 $4 $-1 $5 #
body $-1 $6 $-1 $7 #
body $-1 $8 $-1 $9 #
body $-1 $10 $-1 $11 #
lump $-1 $-1 $12 $0 #
transform $-1 1 0 0 0 1 0 0 0 1 74.852137821588798 34.517373360752316 9.4098739896722989 1 rotate no_reflect no_shear #
lump $-1 $-1 $13 $1 #
transform $-1 1 0 0 0 1 0 0 0 1 74.852137821588798 34.517373360752316 9.4098739896722989 1 rotate no_reflect no_shear #
lump $-1 $-1 $14 $2 #
transform $-1 1 0 0 0 1 0 0 0 1 74.852137821588798 34.517373360752316 9.4098739896722989 1 rotate no_reflect no_shear #
lump $-1 $-1 $15 $3 #
transform $-1 1 0 0 0 1 0 0 0 1 74.852137821588798 34.517373360752316 9.4098739896722989 1 rotate no_reflect no_shear #
shell $-1 $-1 $-1 $16 $-1 $4 #
shell $-1 $-1 $-1 $17 $-1 $6 #
shell $-1 $-1 $-1 $18 $-1 $8 #
shell $-1 $-1 $-1 $19 $-1 $10 #
face $-1 $20 $21 $12 $-1 $22 forward single #
face $-1 $23 $24 $13 $-1 $25 forward single #
face $-1 $26 $27 $14 $-1 $28 forward single #
face $-1 $29 $30 $15 $-1 $31 reversed single #
face $-1 $32 $33 $12 $-1 $34 reversed single #
loop $-1 $-1 $35 $16 #
plane-surface $-1 0 0 9.4098739896722989 0 0 1 1 0 0 forward_v I I I I #
face $-1 $36 $37 $13 $-1 $38 forward single #
loop $-1 $-1 $39 $17 #
plane-surface $-1 -69.905634683906726 -31.517373360752316 0 0 -1 0 0 0 -1 forward_v I I I I #
face $-1 $40 $41 $14 $-1 $42 forward single #
loop $-1 $-1 $43 $18 #
plane-surface $-1 -64.95913154622464 -149.1975030689058 99.176629268921602 1 0 0 0 0.7660444514056185 -0.64278759981090561 forward_v I I I I #
face $-1 $44 $45 $15 $-1 $46 reversed single #
loop $-1 $47 $48 $19 #
cone-surface $-1 -55.797604185675901 -29.773885017692862 4.4736276519212073 0 0.7660444514056185 -0.64278759981090561 1.5 0 0 1 I I 0 1 1.5 forward I I I I #
face $-1 $49 $50 $12 $-1 $51 reversed single #
loop $-1 $-1 $52 $20 #
plane-surface $-1 0 0 -9.4098739896722989 0 0 1 1 0 0 forward_v I I I I #
coedge $-1 $53 $54 $55 $56 forward $21 $-1 #
face $-1 $57 $58 $13 $-1 $59 forward single #
loop $-1 $-1 $60 $23 #
plane-surface $-1 -64.959131546224654 -33.017373360752316 0 -1 0 0 0 0 1 forward_v I I I I #
coedge $-1 $61 $62 $63 $64 reversed $24 $-1 #
face $-1 $65 $66 $14 $-1 $67 forward single #
loop $-1 $-1 $68 $26 #
plane-surface $-1 -55.797604185675894 -34.51737336075233 2.9485772468132581 0 -0.7660444514056185 0.64278759981090561 1 0 0 forward_v I I I I #
coedge $-1 $69 $70 $71 $72 forward $27 $-1 #
face $-1 $73 $74 $15 $-1 $75 forward single #
loop $-1 $76 $77 $29 #
cone-surface $-1 -55.797604185675901 -27.166699122036249 2.2859389857414509 0 0.7660444514056185 -0.64278759981090561 0.75 0 0 1 I I -0.70710678118654757 0.70710678118654757 0.75 forward I I I I #
loop $-1 $-1 $78 $19 #
coedge $-1 $48 $48 $79 $80 reversed $30 $-1 #
face $-1 $81 $82 $12 $-1 $83 reversed single #
loop $-1 $-1 $84 $32 #
plane-surface $-1 0 -34.517373360752316 0 0 1 0 0 0 1 forward_v I I I I #
coedge $-1 $85 $86 $87 $88 forward $33 $-1 #
coedge $-1 $89 $35 $90 $91 forward $21 $-1 #
coedge $-1 $35 $89 $92 $93 forward $21 $-1 #
coedge $-1 $94 $95 $35 $56 reversed $96 $-1 #
edge $-1 $97 -34.517373360752316 $98 34.517373360752316 $55 $99 forward 7 unknown #
face $-1 $100 $101 $13 $-1 $102 reversed single #
loop $-1 $-1 $103 $36 #
plane-surface $-1 0 0 9.4098739896722989 0 0 1 1 0 0 forward_v I I I I #
coedge $-1 $104 $105 $106 $107 reversed $37 $-1 #
coedge $-1 $108 $39 $103 $109 reversed $24 $-1 #
coedge $-1 $39 $108 $110 $111 reversed $24 $-1 #
coedge $-1 $105 $104 $39 $64 forward $37 $-1 #
edge $-1 $112 -9.4098739896722989 $113 9.4098739896722989 $63 $114 forward 7 unknown #
face $-1 $115 $116 $14 $-1 $117 forward single #
loop $-1 $-1 $118 $40 #
plane-surface $-1 -46.636076825127148 -149.1975030689058 99.176629268921602 -1 0 0 0 -0.7660444514056185 0.64278759981090561 forward_v I I I I #
coedge $-1 $119 $120 $121 $122 reversed $41 $-1 #
coedge $-1 $70 $43 $123 $124 forward $27 $-1 #
coedge $-1 $43 $69 $125 $126 reversed $27 $-1 #
coedge $-1 $127 $128 $43 $72 reversed $129 $-1 #
edge $-1 $130 -9.4098739896722989 $131 -6.5238381182005227 $71 $132 forward 7 unknown #
face $-1 $133 $134 $15 $-1 $135 forward single #
loop $-1 $-1 $136 $44 #
plane-surface $-1 -64.95913154622464 -149.1975030689058 99.176629268921602 1 0 0 0 0.7660444514056185 -0.64278759981090561 forward_v I I I I #
loop $-1 $-1 $137 $29 #
coedge $-1 $77 $77 $78 $138 forward $45 $-1 #
coedge $-1 $78 $78 $77 $138 reversed $47 $-1 #
coedge $-1 $79 $79 $48 $80 forward $134 $-1 #
edge $-1 $139 9.0717886702598875e-016 $139 6.2831853071796013 $79 $140 forward 7 unknown #
face $-1 $141 $142 $12 $-1 $143 reversed single #
loop $-1 $-1 $144 $49 #
plane-surface $-1 -74.852137821588798 0 0 1 0 0 0 0 -1 forward_v I I I I #
coedge $-1 $145 $92 $146 $147 forward $50 $-1 #
coedge $-1 $148 $52 $145 $149 forward $33 $-1 #
coedge $-1 $52 $148 $150 $151 forward $33 $-1 #
coedge $-1 $95 $94 $52 $88 reversed $96 $-1 #
edge $-1 $152 -34.517373360752316 $153 34.517373360752316 $87 $154 forward 7 unknown #
coedge $-1 $54 $53 $155 $156 forward $21 $-1 #
coedge $-1 $157 $158 $53 $91 reversed $142 $-1 #
edge $-1 $98 -74.852137821588798 $159 74.852137821588798 $90 $160 forward 7 unknown #
coedge $-1 $84 $161 $54 $93 reversed $50 $-1 #
edge $-1 $162 -74.852137821588798 $97 74.852137821588798 $92 $163 forward 7 unknown #
coedge $-1 $87 $55 $161 $164 forward $96 $-1 #
coedge $-1 $55 $87 $157 $165 reversed $96 $-1 #
loop $-1 $-1 $94 $141 #
vertex $-1 $56 $166 #
vertex $-1 $56 $167 #
straight-curve $-1 74.852137821588798 0 9.4098739896722989 0 1 0 I I #
face $-1 $168 $169 $13 $-1 $170 reversed single #
loop $-1 $-1 $106 $57 #
plane-surface $-1 0 -34.517373360752316 0 0 1 0 0 0 1 forward_v I I I I #
coedge $-1 $171 $172 $61 $109 forward $58 $-1 #
coedge $-1 $63 $60 $171 $173 reversed $37 $-1 #
coedge $-1 $60 $63 $174 $175 reversed $37 $-1 #
coedge $-1 $176 $177 $60 $107 forward $101 $-1 #
edge $-1 $178 -9.4098739896722989 $179 9.4098739896722989 $106 $180 forward 7 unknown #
coedge $-1 $62 $61 $181 $182 reversed $24 $-1 #
edge $-1 $183 -39.899320479635435 $112 -30.006314204271291 $103 $184 forward 7 unknown #
coedge $-1 $185 $174 $62 $111 forward $169 $-1 #
edge $-1 $113 30.006314204271291 $186 39.899320479635435 $110 $187 forward 7 unknown #
vertex $-1 $109 $188 #
vertex $-1 $111 $189 #
straight-curve $-1 -64.959131546224654 -31.517373360752316 0 0 0 -1 I I #
face $-1 $190 $129 $14 $-1 $191 forward single #
loop $-1 $-1 $192 $65 #
plane-surface $-1 -64.959131546224654 -33.017373360752316 0 -1 0 0 0 0 1 forward_v I I I I #
coedge $-1 $193 $194 $195 $196 reversed $66 $-1 #
coedge $-1 $197 $68 $194 $198 reversed $41 $-1 #
coedge $-1 $68 $123 $192 $199 reversed $41 $-1 #
coedge $-1 $200 $195 $68 $122 forward $201 $-1 #
edge $-1 $202 18.737274732289201 $203 37.060329453386707 $121 $204 forward 7 unknown #
coedge $-1 $120 $197 $69 $124 reversed $41 $-1 #
edge $-1 $131 4.6671715522865584 $205 8.4346237754260596 $69 $206 forward 7 unknown #
coedge $-1 $207 $208 $70 $126 forward $209 $-1 #
edge $-1 $130 43.081378173700585 $205 45.503049745614689 $125 $210 forward 7 unknown #
coedge $-1 $211 $71 $208 $212 reversed $129 $-1 #
coedge $-1 $71 $213 $214 $215 reversed $129 $-1 #
loop $-1 $-1 $71 $115 #
vertex $-1 $212 $216 #
vertex $-1 $215 $217 #
straight-curve $-1 -64.959131546224654 -31.517373360752316 0 0 0 -1 I I #
face $-1 $218 $219 $15 $-1 $220 forward single #
loop $-1 $221 $79 $73 #
plane-surface $-1 -55.797604185675894 -34.51737336075233 2.9485772468132581 0 -0.7660444514056185 0.64278759981090561 1 0 0 forward_v I I I I #
coedge $-1 $222 $223 $224 $225 forward $74 $-1 #
coedge $-1 $137 $137 $-1 $226 forward $76 $-1 #
edge $-1 $227 0 $227 6.2831853071796004 $77 $228 forward 7 unknown #
vertex $-1 $80 $229 #
ellipse-curve $-1 -55.797604185675901 -31.806537574795264 6.1792256182427874 0 0.7660444514056185 -0.64278759981090561 1.5 0 0 1 I I #
face $-1 $-1 $96 $12 $-1 $230 reversed single #
loop $-1 $-1 $157 $81 #
plane-surface $-1 0 34.517373360752316 0 0 -1 0 0 0 -1 forward_v I I I I #
coedge $-1 $231 $155 $158 $232 forward $82 $-1 #
coedge $-1 $161 $84 $85 $149 reversed $50 $-1 #
coedge $-1 $155 $231 $84 $147 reversed $82 $-1 #
edge $-1 $162 -9.4098739896722989 $233 9.4098739896722989 $146 $234 forward 7 unknown #
coedge $-1 $86 $85 $231 $235 forward $33 $-1 #
edge $-1 $153 -74.852137821588798 $233 74.852137821588798 $145 $236 forward 7 unknown #
coedge $-1 $158 $157 $86 $151 reversed $142 $-1 #
edge $-1 $237 -74.852137821588798 $152 74.852137821588798 $150 $238 forward 7 unknown #
vertex $-1 $88 $239 #
vertex $-1 $164 $240 #
straight-curve $-1 74.852137821588798 0 -9.4098739896722989 0 -1 0 I I #
coedge $-1 $144 $146 $89 $156 reversed $82 $-1 #
edge $-1 $159 -34.517373360752316 $162 34.517373360752316 $155 $241 forward 7 unknown #
coedge $-1 $150 $90 $95 $165 forward $142 $-1 #
coedge $-1 $90 $150 $144 $232 reversed $142 $-1 #
vertex $-1 $91 $242 #
straight-curve $-1 0 34.517373360752316 9.4098739896722989 -1 0 0 I I #
coedge $-1 $92 $145 $94 $164 reversed $50 $-1 #
vertex $-1 $156 $243 #
straight-curve $-1 0 -34.517373360752316 9.4098739896722989 1 0 0 I I #
edge $-1 $97 -9.4098739896722989 $153 9.4098739896722989 $94 $244 forward 7 unknown #
edge $-1 $98 -9.4098739896722989 $152 9.4098739896722989 $95 $245 forward 7 unknown #
point $-1 74.852137821588798 -34.517373360752316 9.4098739896722989 #
point $-1 74.852137821588798 34.517373360752316 9.4098739896722989 #
face $-1 $246 $247 $13 $-1 $248 reversed single #
loop $-1 $-1 $110 $100 #
plane-surface $-1 0 0 -9.4098739896722989 0 0 1 1 0 0 forward_v I I I I #
coedge $-1 $249 $103 $104 $173 forward $58 $-1 #
coedge $-1 $103 $250 $251 $252 forward $58 $-1 #
edge $-1 $112 15.008686680376158 $178 18.008686680376158 $171 $253 forward 7 unknown #
coedge $-1 $110 $254 $105 $175 forward $169 $-1 #
edge $-1 $179 -18.008686680376158 $113 -15.008686680376158 $174 $255 forward 7 unknown #
coedge $-1 $256 $106 $254 $257 reversed $101 $-1 #
coedge $-1 $106 $256 $249 $258 reversed $101 $-1 #
vertex $-1 $258 $259 #
vertex $-1 $107 $260 #
straight-curve $-1 -64.959131546224654 -34.517373360752316 0 0 0 -1 I I #
coedge $-1 $251 $261 $108 $182 forward $247 $-1 #
edge $-1 $186 -9.4098739896722989 $183 9.4098739896722989 $181 $262 forward 7 unknown #
vertex $-1 $182 $263 #
straight-curve $-1 -34.952817341953363 -31.517373360752316 9.4098739896722989 1 0 0 I I #
coedge $-1 $264 $110 $261 $265 forward $169 $-1 #
vertex $-1 $265 $266 #
straight-curve $-1 -34.952817341953363 -31.517373360752316 -9.4098739896722989 -1 0 0 I I #
point $-1 -64.959131546224654 -31.517373360752316 9.4098739896722989 #
point $-1 -64.959131546224654 -31.517373360752316 -9.4098739896722989 #
face $-1 $267 $209 $14 $-1 $268 forward single #
plane-surface $-1 -69.905634683906726 -31.517373360752316 0 0 -1 0 0 0 -1 forward_v I I I I #
coedge $-1 $214 $269 $120 $199 forward $116 $-1 #
coedge $-1 $194 $118 $270 $271 reversed $66 $-1 #
coedge $-1 $118 $193 $119 $198 forward $66 $-1 #
coedge $-1 $121 $272 $118 $196 forward $201 $-1 #
edge $-1 $273 40.178440644788502 $202 46.639737387647529 $195 $274 forward 7 unknown #
coedge $-1 $123 $119 $207 $275 reversed $41 $-1 #
edge $-1 $276 -8.4346237754260596 $202 -2.2061860048766535e-014 $194 $277 forward 7 unknown #
edge $-1 $203 0.64727991987291333 $131 5.3144514721594485 $192 $278 forward 7 unknown #
coedge $-1 $279 $121 $269 $280 forward $201 $-1 #
loop $-1 $-1 $121 $267 #
vertex $-1 $122 $281 #
vertex $-1 $280 $282 #
straight-curve $-1 -27.898802092837947 -34.517373360752316 2.9485772468132732 -1 0 0 I I #
vertex $-1 $275 $283 #
straight-curve $-1 -64.95913154622464 -34.51737336075233 2.9485772468132581 0 0.64278759981090561 0.7660444514056185 I I #
coedge $-1 $270 $125 $197 $275 forward $209 $-1 #
coedge $-1 $125 $284 $127 $212 forward $209 $-1 #
loop $-1 $-1 $270 $190 #
straight-curve $-1 -64.95913154622464 -74.598751534452902 9.4098739896722989 0 1 0 I I #
coedge $-1 $213 $127 $285 $286 reversed $129 $-1 #
edge $-1 $287 -39.899320479635435 $130 -30.006314204271291 $208 $288 forward 7 unknown #
coedge $-1 $128 $211 $289 $290 reversed $129 $-1 #
coedge $-1 $291 $192 $128 $215 forward $116 $-1 #
edge $-1 $131 -6.5238381182005227 $292 9.4098739896722989 $214 $132 forward 7 unknown #
point $-1 -64.959131546224654 -31.517373360752316 9.4098739896722989 #
point $-1 -64.95913154622464 -31.517373360752316 6.5238381182005227 #
face $-1 $293 $294 $15 $-1 $295 forward single #
loop $-1 $-1 $296 $133 #
plane-surface $-1 -46.636076825127148 -149.1975030689058 99.176629268921602 -1 0 0 0 -0.7660444514056185 0.64278759981090561 forward_v I I I I #
loop $-1 $-1 $297 $73 #
coedge $-1 $223 $136 $298 $299 forward $74 $-1 #
coedge $-1 $136 $222 $300 $301 reversed $74 $-1 #
coedge $-1 $302 $303 $136 $225 reversed $304 $-1 #
edge $-1 $305 -9.4098739896722989 $306 -6.5238381182005227 $224 $307 forward 7 unknown #
edge $-1 $308 1 $308 0 $137 $-1 forward 7 unknown #
vertex $-1 $138 $309 #
ellipse-curve $-1 -55.797604185675901 -27.741232460590464 2.7680296855996303 0 -0.7660444514056185 0.64278759981090561 1.5 0 0 1 I I #
point $-1 -54.297604185675901 -31.806537574795264 6.1792256182427856 #
plane-surface $-1 74.852137821588798 0 0 -1 0 0 0 0 1 forward_v I I I I #
coedge $-1 $146 $144 $148 $235 reversed $82 $-1 #
edge $-1 $159 -9.4098739896722989 $237 9.4098739896722989 $158 $310 forward 7 unknown #
vertex $-1 $235 $311 #
straight-curve $-1 -74.852137821588798 -34.517373360752316 0 0 0 -1 I I #
edge $-1 $233 -34.517373360752316 $237 34.517373360752316 $231 $312 forward 7 unknown #
straight-curve $-1 0 -34.517373360752316 -9.4098739896722989 -1 0 0 I I #
vertex $-1 $151 $313 #
straight-curve $-1 0 34.517373360752316 -9.4098739896722989 1 0 0 I I #
point $-1 74.852137821588798 34.517373360752316 -9.4098739896722989 #
point $-1 74.852137821588798 -34.517373360752316 -9.4098739896722989 #
straight-curve $-1 -74.852137821588798 0 9.4098739896722989 0 -1 0 I I #
point $-1 -74.852137821588798 34.517373360752316 9.4098739896722989 #
point $-1 -74.852137821588798 -34.517373360752316 9.4098739896722989 #
straight-curve $-1 74.852137821588798 -34.517373360752316 0 0 0 -1 I I #
straight-curve $-1 74.852137821588798 34.517373360752316 0 0 0 -1 I I #
face $-1 $314 $315 $13 $-1 $316 reversed single #
loop $-1 $-1 $181 $168 #
plane-surface $-1 -74.852137821588798 0 0 1 0 0 0 0 -1 forward_v I I I I #
coedge $-1 $317 $171 $177 $258 forward $58 $-1 #
coedge $-1 $172 $317 $318 $319 forward $58 $-1 #
coedge $-1 $320 $181 $172 $252 reversed $247 $-1 #
edge $-1 $321 -34.517373360752316 $183 31.517373360752316 $251 $322 forward 7 unknown #
straight-curve $-1 -64.959131546224654 -16.508686680376158 9.4098739896722989 0 -1 0 I I #
coedge $-1 $174 $323 $176 $257 forward $169 $-1 #
straight-curve $-1 -64.959131546224654 -16.508686680376158 -9.4098739896722989 0 1 0 I I #
coedge $-1 $177 $176 $324 $325 reversed $101 $-1 #
edge $-1 $326 -74.852137821588798 $179 64.959131546224654 $176 $327 forward 7 unknown #
edge $-1 $178 -64.959131546224654 $328 74.852137821588798 $177 $329 forward 7 unknown #
point $-1 -64.959131546224654 -34.517373360752316 9.4098739896722989 #
point $-1 -64.959131546224654 -34.517373360752316 -9.4098739896722989 #
coedge $-1 $181 $320 $185 $265 reversed $247 $-1 #
straight-curve $-1 -74.852137821588798 -31.517373360752316 0 0 0 1 I I #
point $-1 -74.852137821588798 -31.517373360752316 9.4098739896722989 #
coedge $-1 $323 $185 $330 $331 forward $169 $-1 #
edge $-1 $186 -31.517373360752316 $332 34.517373360752316 $261 $333 forward 7 unknown #
point $-1 -74.852137821588798 -31.517373360752316 -9.4098739896722989 #
face $-1 $334 $201 $14 $-1 $335 reversed single #
plane-surface $-1 0 0 9.4098739896722989 0 0 1 1 0 0 forward_v I I I I #
coedge $-1 $192 $291 $200 $280 reversed $116 $-1 #
coedge $-1 $336 $207 $193 $271 forward $209 $-1 #
edge $-1 $276 -45.503049745614689 $273 -40.081378173700585 $270 $337 forward 7 unknown #
coedge $-1 $195 $338 $336 $339 reversed $201 $-1 #
vertex $-1 $339 $340 #
straight-curve $-1 -46.636076825127148 -34.517373360752316 49.588314634460801 0 0 -1 I I #
edge $-1 $205 -37.060329453386693 $276 -18.737274732289201 $207 $341 forward 7 unknown #
vertex $-1 $275 $342 #
straight-curve $-1 -46.636076825127148 -34.51737336075233 2.9485772468132581 0 -0.64278759981090561 -0.7660444514056185 I I #
straight-curve $-1 -64.959131546224654 -34.933436866853221 2.4527320556883558 0 0.64278759981090572 0.76604445140561861 I I #
coedge $-1 $338 $200 $343 $344 reversed $201 $-1 #
edge $-1 $203 -2.9485772468132749 $345 9.4098739896722989 $200 $346 forward 7 unknown #
point $-1 -46.636076825127148 -34.517373360752316 2.9485772468132749 #
point $-1 -64.959131546224654 -34.517373360752316 2.9485772468132749 #
point $-1 -64.95913154622464 -29.095701788838216 9.4098739896722989 #
coedge $-1 $208 $347 $348 $349 forward $209 $-1 #
coedge $-1 $348 $350 $211 $286 forward $351 $-1 #
edge $-1 $352 -9.4098739896722989 $287 9.4098739896722989 $285 $353 forward 7 unknown #
vertex $-1 $286 $354 #
straight-curve $-1 -34.952817341953363 -31.517373360752316 9.4098739896722989 1 0 0 I I #
coedge $-1 $355 $356 $213 $290 forward $357 $-1 #
edge $-1 $292 30.006314204271291 $352 39.899320479635435 $289 $358 forward 7 unknown #
coedge $-1 $269 $214 $356 $359 reversed $116 $-1 #
vertex $-1 $290 $360 #
face $-1 $361 $304 $15 $-1 $362 forward single #
loop $-1 $-1 $363 $218 #
plane-surface $-1 -64.959131546224654 -33.017373360752316 0 -1 0 0 0 0 1 forward_v I I I I #
coedge $-1 $364 $365 $366 $367 reversed $219 $-1 #
coedge $-1 $368 $369 $370 $371 reversed $221 $-1 #
coedge $-1 $369 $372 $222 $299 reversed $221 $-1 #
edge $-1 $306 4.6671715522865584 $373 8.4346237754260596 $222 $374 forward 7 unknown #
coedge $-1 $375 $376 $223 $301 forward $377 $-1 #
edge $-1 $305 43.081378173700585 $373 45.503049745614689 $300 $378 forward 7 unknown #
coedge $-1 $379 $224 $376 $380 reversed $304 $-1 #
coedge $-1 $224 $381 $382 $383 reversed $304 $-1 #
loop $-1 $-1 $224 $293 #
vertex $-1 $380 $384 #
vertex $-1 $383 $385 #
straight-curve $-1 -64.959131546224654 -31.517373360752316 0 0 0 -1 I I #
vertex $-1 $226 $386 #
point $-1 -54.297604185675901 -27.741232460590464 2.7680296855996303 #
straight-curve $-1 -74.852137821588798 34.517373360752316 0 0 0 -1 I I #
point $-1 -74.852137821588798 -34.517373360752316 -9.4098739896722989 #
straight-curve $-1 -74.852137821588798 0 -9.4098739896722989 0 1 0 I I #
point $-1 -74.852137821588798 34.517373360752316 -9.4098739896722989 #
face $-1 $-1 $387 $13 $-1 $388 reversed single #
loop $-1 $-1 $389 $246 #
plane-surface $-1 0 34.517373360752316 0 0 -1 0 0 0 -1 forward_v I I I I #
coedge $-1 $250 $249 $390 $391 forward $58 $-1 #
coedge $-1 $389 $392 $250 $319 reversed $315 $-1 #
edge $-1 $393 -74.852137821588798 $321 74.852137821588798 $318 $394 forward 7 unknown #
coedge $-1 $261 $251 $392 $395 forward $247 $-1 #
vertex $-1 $319 $396 #
straight-curve $-1 -74.852137821588798 0 9.4098739896722989 0 -1 0 I I #
coedge $-1 $254 $264 $397 $398 forward $169 $-1 #
coedge $-1 $397 $390 $256 $325 forward $387 $-1 #
edge $-1 $328 -9.4098739896722989 $326 9.4098739896722989 $324 $399 forward 7 unknown #
vertex $-1 $325 $400 #
straight-curve $-1 0 -34.517373360752316 -9.4098739896722989 -1 0 0 I I #
vertex $-1 $391 $401 #
straight-curve $-1 0 -34.517373360752316 9.4098739896722989 1 0 0 I I #
coedge $-1 $392 $389 $264 $331 reversed $315 $-1 #
edge $-1 $332 -74.852137821588798 $402 74.852137821588798 $330 $403 forward 7 unknown #
vertex $-1 $331 $404 #
straight-curve $-1 -74.852137821588798 0 -9.4098739896722989 0 1 0 I I #
face $-1 $405 $357 $14 $-1 $406 reversed single #
plane-surface $-1 0 -34.517373360752316 0 0 1 0 0 0 1 forward_v I I I I #
coedge $-1 $407 $270 $272 $339 forward $209 $-1 #
straight-curve $-1 -46.636076825127148 -74.598751534452902 9.4098739896722989 0 -1 0 I I #
coedge $-1 $272 $279 $408 $409 reversed $201 $-1 #
edge $-1 $273 -46.636076825127148 $410 74.852137821588798 $272 $411 forward 7 unknown #
point $-1 -46.636076825127148 -34.517373360752316 9.4098739896722989 #
straight-curve $-1 -27.898802092837947 -29.095701788838213 9.4098739896722989 1 0 0 I I #
point $-1 -46.636076825127148 -29.095701788838216 9.4098739896722989 #
coedge $-1 $356 $412 $279 $344 forward $357 $-1 #
edge $-1 $413 -74.852137821588798 $345 64.959131546224654 $279 $414 forward 7 unknown #
vertex $-1 $280 $415 #
straight-curve $-1 -64.959131546224654 -34.517373360752316 0 0 0 -1 I I #
coedge $-1 $284 $407 $416 $417 forward $209 $-1 #
coedge $-1 $418 $285 $284 $349 reversed $351 $-1 #
edge $-1 $419 -34.517373360752316 $287 31.517373360752316 $348 $420 forward 7 unknown #
coedge $-1 $285 $418 $355 $421 reversed $351 $-1 #
loop $-1 $-1 $285 $405 #
vertex $-1 $421 $422 #
straight-curve $-1 -74.852137821588798 -31.517373360752316 0 0 0 1 I I #
point $-1 -74.852137821588798 -31.517373360752316 9.4098739896722989 #
coedge $-1 $423 $289 $350 $421 forward $357 $-1 #
coedge $-1 $289 $343 $291 $359 forward $357 $-1 #
loop $-1 $-1 $289 $334 #
straight-curve $-1 -34.952817341953363 -31.517373360752316 -9.4098739896722989 -1 0 0 I I #
edge $-1 $345 -18.008686680376158 $292 -15.008686680376158 $356 $424 forward 7 unknown #
point $-1 -64.959131546224654 -31.517373360752316 -9.4098739896722989 #
face $-1 $425 $377 $15 $-1 $426 forward single #
plane-surface $-1 -69.905634683906726 -31.517373360752316 0 0 -1 0 0 0 -1 forward_v I I I I #
coedge $-1 $382 $427 $369 $428 forward $294 $-1 #
coedge $-1 $365 $296 $429 $430 reversed $219 $-1 #
coedge $-1 $296 $364 $368 $431 forward $219 $-1 #
coedge $-1 $370 $432 $296 $367 forward $433 $-1 #
edge $-1 $434 40.178440644788502 $435 46.639737387647529 $366 $436 forward 7 unknown #
coedge $-1 $372 $297 $365 $431 reversed $221 $-1 #
coedge $-1 $297 $298 $363 $428 reversed $221 $-1 #
coedge $-1 $437 $366 $297 $371 forward $433 $-1 #
edge $-1 $435 18.737274732289201 $438 37.060329453386707 $370 $439 forward 7 unknown #
coedge $-1 $298 $368 $375 $440 reversed $221 $-1 #
vertex $-1 $440 $441 #
straight-curve $-1 -64.95913154622464 -34.51737336075233 2.9485772468132581 0 0.64278759981090561 0.7660444514056185 I I #
coedge $-1 $429 $300 $372 $440 forward $377 $-1 #
coedge $-1 $300 $442 $302 $380 forward $377 $-1 #
loop $-1 $-1 $429 $361 #
straight-curve $-1 -64.95913154622464 -74.598751534452902 9.4098739896722989 0 1 0 I I #
coedge $-1 $381 $302 $443 $444 reversed $304 $-1 #
edge $-1 $445 -39.899320479635435 $305 -30.006314204271291 $376 $446 forward 7 unknown #
coedge $-1 $303 $379 $447 $448 reversed $304 $-1 #
coedge $-1 $449 $363 $303 $383 forward $294 $-1 #
edge $-1 $306 -6.5238381182005227 $450 9.4098739896722989 $382 $307 forward 7 unknown #
point $-1 -64.959131546224654 -31.517373360752316 9.4098739896722989 #
point $-1 -64.95913154622464 -31.517373360752316 6.5238381182005227 #
point $-1 -55.797604185675901 -26.592165783482034 1.8038482858832716 #
loop $-1 $-1 $324 $314 #
plane-surface $-1 74.852137821588798 0 0 -1 0 0 0 0 1 forward_v I I I I #
coedge $-1 $330 $318 $451 $452 forward $315 $-1 #
coedge $-1 $324 $451 $317 $391 reversed $387 $-1 #
edge $-1 $328 -34.517373360752316 $393 34.517373360752316 $390 $453 forward 7 unknown #
coedge $-1 $318 $330 $320 $395 reversed $315 $-1 #
vertex $-1 $391 $454 #
straight-curve $-1 0 34.517373360752316 9.4098739896722989 -1 0 0 I I #
edge $-1 $321 -9.4098739896722989 $332 9.4098739896722989 $392 $455 forward 7 unknown #
point $-1 -74.852137821588798 34.517373360752316 9.4098739896722989 #
coedge $-1 $451 $324 $323 $398 reversed $387 $-1 #
edge $-1 $402 -34.517373360752316 $326 34.517373360752316 $397 $456 forward 7 unknown #
straight-curve $-1 74.852137821588798 -34.517373360752316 0 0 0 -1 I I #
point $-1 74.852137821588798 -34.517373360752316 -9.4098739896722989 #
point $-1 74.852137821588798 -34.517373360752316 9.4098739896722989 #
vertex $-1 $398 $457 #
straight-curve $-1 0 34.517373360752316 -9.4098739896722989 1 0 0 I I #
point $-1 -74.852137821588798 34.517373360752316 -9.4098739896722989 #
face $-1 $458 $351 $14 $-1 $459 reversed single #
plane-surface $-1 0 0 -9.4098739896722989 0 0 1 1 0 0 forward_v I I I I #
coedge $-1 $347 $336 $460 $461 forward $209 $-1 #
coedge $-1 $462 $460 $338 $409 forward $463 $-1 #
edge $-1 $410 -9.4098739896722989 $413 9.4098739896722989 $408 $464 forward 7 unknown #
vertex $-1 $461 $465 #
straight-curve $-1 0 -34.517373360752316 9.4098739896722989 1 0 0 I I #
coedge $-1 $343 $423 $462 $466 forward $357 $-1 #
vertex $-1 $409 $467 #
straight-curve $-1 0 -34.517373360752316 -9.4098739896722989 -1 0 0 I I #
point $-1 -64.959131546224654 -34.517373360752316 -9.4098739896722989 #
coedge $-1 $468 $469 $347 $417 reversed $470 $-1 #
edge $-1 $471 -74.852137821588798 $419 74.852137821588798 $416 $472 forward 7 unknown #
coedge $-1 $350 $348 $469 $473 forward $351 $-1 #
vertex $-1 $417 $474 #
straight-curve $-1 -74.852137821588798 0 9.4098739896722989 0 -1 0 I I #
edge $-1 $352 -31.517373360752316 $475 34.517373360752316 $350 $476 forward 7 unknown #
point $-1 -74.852137821588798 -31.517373360752316 -9.4098739896722989 #
coedge $-1 $412 $355 $477 $478 forward $357 $-1 #
straight-curve $-1 -64.959131546224654 -16.508686680376158 -9.4098739896722989 0 1 0 I I #
face $-1 $479 $433 $15 $-1 $480 reversed single #
plane-surface $-1 0 0 9.4098739896722989 0 0 1 1 0 0 forward_v I I I I #
coedge $-1 $363 $449 $437 $481 reversed $294 $-1 #
edge $-1 $438 0.64727991987291333 $306 5.3144514721594485 $363 $482 forward 7 unknown #
coedge $-1 $483 $375 $364 $430 forward $377 $-1 #
edge $-1 $484 -45.503049745614689 $434 -40.081378173700585 $429 $485 forward 7 unknown #
edge $-1 $484 -8.4346237754260596 $435 -2.2061860048766535e-014 $365 $486 forward 7 unknown #
coedge $-1 $366 $487 $483 $488 reversed $433 $-1 #
loop $-1 $-1 $370 $425 #
vertex $-1 $488 $489 #
vertex $-1 $371 $490 #
straight-curve $-1 -46.636076825127148 -34.517373360752316 49.588314634460801 0 0 -1 I I #
coedge $-1 $491 $370 $427 $481 forward $433 $-1 #
vertex $-1 $481 $492 #
straight-curve $-1 -27.898802092837947 -34.517373360752316 2.9485772468132732 -1 0 0 I I #
edge $-1 $373 -37.060329453386693 $484 -18.737274732289201 $375 $493 forward 7 unknown #
point $-1 -64.95913154622464 -29.095701788838216 9.4098739896722989 #
coedge $-1 $376 $494 $495 $496 forward $377 $-1 #
coedge $-1 $495 $497 $379 $444 forward $498 $-1 #
edge $-1 $499 -9.4098739896722989 $445 9.4098739896722989 $443 $500 forward 7 unknown #
vertex $-1 $444 $501 #
straight-curve $-1 -34.952817341953363 -31.517373360752316 9.4098739896722989 1 0 0 I I #
coedge $-1 $502 $503 $381 $448 forward $504 $-1 #
edge $-1 $450 30.006314204271291 $499 39.899320479635435 $447 $505 forward 7 unknown #
coedge $-1 $427 $382 $503 $506 reversed $294 $-1 #
vertex $-1 $448 $507 #
coedge $-1 $390 $397 $389 $452 reversed $387 $-1 #
edge $-1 $393 -9.4098739896722989 $402 9.4098739896722989 $451 $508 forward 7 unknown #
straight-curve $-1 74.852137821588798 0 9.4098739896722989 0 1 0 I I #
point $-1 74.852137821588798 34.517373360752316 9.4098739896722989 #
straight-curve $-1 -74.852137821588798 34.517373360752316 0 0 0 -1 I I #
straight-curve $-1 74.852137821588798 0 -9.4098739896722989 0 -1 0 I I #
point $-1 74.852137821588798 34.517373360752316 -9.4098739896722989 #
face $-1 $509 $470 $14 $-1 $510 reversed single #
plane-surface $-1 -74.852137821588798 0 0 1 0 0 0 0 -1 forward_v I I I I #
coedge $-1 $408 $511 $407 $461 reversed $463 $-1 #
edge $-1 $410 -34.517373360752316 $471 34.517373360752316 $460 $512 forward 7 unknown #
coedge $-1 $511 $408 $412 $466 reversed $463 $-1 #
loop $-1 $-1 $408 $509 #
straight-curve $-1 74.852137821588798 -34.517373360752316 0 0 0 -1 I I #
point $-1 74.852137821588798 -34.517373360752316 9.4098739896722989 #
edge $-1 $513 -34.517373360752316 $413 34.517373360752316 $462 $514 forward 7 unknown #
point $-1 74.852137821588798 -34.517373360752316 -9.4098739896722989 #
coedge $-1 $477 $416 $511 $515 forward $470 $-1 #
coedge $-1 $416 $477 $418 $473 reversed $470 $-1 #
loop $-1 $-1 $468 $458 #
vertex $-1 $461 $516 #
straight-curve $-1 0 34.517373360752316 9.4098739896722989 -1 0 0 I I #
edge $-1 $419 -9.4098739896722989 $475 9.4098739896722989 $469 $517 forward 7 unknown #
point $-1 -74.852137821588798 34.517373360752316 9.4098739896722989 #
vertex $-1 $478 $518 #
straight-curve $-1 -74.852137821588798 0 -9.4098739896722989 0 1 0 I I #
coedge $-1 $469 $468 $423 $478 reversed $470 $-1 #
edge $-1 $475 -74.852137821588798 $513 74.852137821588798 $477 $519 forward 7 unknown #
face $-1 $520 $504 $15 $-1 $521 reversed single #
plane-surface $-1 0 -34.517373360752316 0 0 1 0 0 0 1 forward_v I I I I #
edge $-1 $438 -2.9485772468132749 $522 9.4098739896722989 $437 $523 forward 7 unknown #
straight-curve $-1 -64.959131546224654 -34.933436866853221 2.4527320556883558 0 0.64278759981090572 0.76604445140561861 I I #
coedge $-1 $524 $429 $432 $488 forward $377 $-1 #
vertex $-1 $440 $525 #
straight-curve $-1 -46.636076825127148 -74.598751534452902 9.4098739896722989 0 -1 0 I I #
straight-curve $-1 -46.636076825127148 -34.51737336075233 2.9485772468132581 0 -0.64278759981090561 -0.7660444514056185 I I #
coedge $-1 $432 $491 $526 $527 reversed $433 $-1 #
edge $-1 $434 -46.636076825127148 $528 74.852137821588798 $432 $529 forward 7 unknown #
point $-1 -46.636076825127148 -34.517373360752316 9.4098739896722989 #
point $-1 -46.636076825127148 -34.517373360752316 2.9485772468132749 #
coedge $-1 $487 $437 $530 $531 reversed $433 $-1 #
point $-1 -64.959131546224654 -34.517373360752316 2.9485772468132749 #
straight-curve $-1 -27.898802092837947 -29.095701788838213 9.4098739896722989 1 0 0 I I #
coedge $-1 $442 $524 $532 $533 forward $377 $-1 #
coedge $-1 $534 $443 $442 $496 reversed $498 $-1 #
edge $-1 $535 -34.517373360752316 $445 31.517373360752316 $495 $536 forward 7 unknown #
coedge $-1 $443 $534 $502 $537 reversed $498 $-1 #
loop $-1 $-1 $443 $520 #
vertex $-1 $537 $538 #
straight-curve $-1 -74.852137821588798 -31.517373360752316 0 0 0 1 I I #
point $-1 -74.852137821588798 -31.517373360752316 9.4098739896722989 #
coedge $-1 $539 $447 $497 $537 forward $504 $-1 #
coedge $-1 $447 $530 $449 $506 forward $504 $-1 #
loop $-1 $-1 $447 $479 #
straight-curve $-1 -34.952817341953363 -31.517373360752316 -9.4098739896722989 -1 0 0 I I #
edge $-1 $522 -18.008686680376158 $450 -15.008686680376158 $503 $540 forward 7 unknown #
point $-1 -64.959131546224654 -31.517373360752316 -9.4098739896722989 #
straight-curve $-1 74.852137821588798 34.517373360752316 0 0 0 -1 I I #
face $-1 $-1 $463 $14 $-1 $541 reversed single #
plane-surface $-1 0 34.517373360752316 0 0 -1 0 0 0 -1 forward_v I I I I #
coedge $-1 $460 $462 $468 $515 reversed $463 $-1 #
straight-curve $-1 74.852137821588798 0 9.4098739896722989 0 1 0 I I #
vertex $-1 $466 $542 #
straight-curve $-1 74.852137821588798 0 -9.4098739896722989 0 -1 0 I I #
edge $-1 $471 -9.4098739896722989 $513 9.4098739896722989 $511 $543 forward 7 unknown #
point $-1 74.852137821588798 34.517373360752316 9.4098739896722989 #
straight-curve $-1 -74.852137821588798 34.517373360752316 0 0 0 -1 I I #
point $-1 -74.852137821588798 34.517373360752316 -9.4098739896722989 #
straight-curve $-1 0 34.517373360752316 -9.4098739896722989 1 0 0 I I #
face $-1 $544 $498 $15 $-1 $545 reversed single #
plane-surface $-1 0 0 -9.4098739896722989 0 0 1 1 0 0 forward_v I I I I #
vertex $-1 $481 $546 #
straight-curve $-1 -64.959131546224654 -34.517373360752316 0 0 0 -1 I I #
coedge $-1 $494 $483 $547 $548 forward $377 $-1 #
point $-1 -46.636076825127148 -29.095701788838216 9.4098739896722989 #
coedge $-1 $549 $547 $487 $527 forward $550 $-1 #
edge $-1 $528 -9.4098739896722989 $551 9.4098739896722989 $526 $552 forward 7 unknown #
vertex $-1 $548 $553 #
straight-curve $-1 0 -34.517373360752316 9.4098739896722989 1 0 0 I I #
coedge $-1 $503 $554 $491 $531 forward $504 $-1 #
edge $-1 $551 -74.852137821588798 $522 64.959131546224654 $491 $555 forward 7 unknown #
coedge $-1 $556 $557 $494 $533 reversed $558 $-1 #
edge $-1 $559 -74.852137821588798 $535 74.852137821588798 $532 $560 forward 7 unknown #
coedge $-1 $497 $495 $557 $561 forward $498 $-1 #
vertex $-1 $533 $562 #
straight-curve $-1 -74.852137821588798 0 9.4098739896722989 0 -1 0 I I #
edge $-1 $499 -31.517373360752316 $563 34.517373360752316 $497 $564 forward 7 unknown #
point $-1 -74.852137821588798 -31.517373360752316 -9.4098739896722989 #
coedge $-1 $554 $502 $565 $566 forward $504 $-1 #
straight-curve $-1 -64.959131546224654 -16.508686680376158 -9.4098739896722989 0 1 0 I I #
plane-surface $-1 74.852137821588798 0 0 -1 0 0 0 0 1 forward_v I I I I #
point $-1 74.852137821588798 34.517373360752316 -9.4098739896722989 #
straight-curve $-1 74.852137821588798 34.517373360752316 0 0 0 -1 I I #
face $-1 $567 $558 $15 $-1 $568 reversed single #
plane-surface $-1 -74.852137821588798 0 0 1 0 0 0 0 -1 forward_v I I I I #
point $-1 -64.959131546224654 -34.517373360752316 -9.4098739896722989 #
coedge $-1 $526 $569 $524 $548 reversed $550 $-1 #
edge $-1 $528 -34.517373360752316 $559 34.517373360752316 $547 $570 forward 7 unknown #
coedge $-1 $569 $526 $554 $571 reversed $550 $-1 #
loop $-1 $-1 $526 $567 #
vertex $-1 $527 $572 #
straight-curve $-1 74.852137821588798 -34.517373360752316 0 0 0 -1 I I #
point $-1 74.852137821588798 -34.517373360752316 9.4098739896722989 #
coedge $-1 $530 $539 $549 $571 forward $504 $-1 #
straight-curve $-1 0 -34.517373360752316 -9.4098739896722989 -1 0 0 I I #
coedge $-1 $565 $532 $569 $573 forward $558 $-1 #
coedge $-1 $532 $565 $534 $561 reversed $558 $-1 #
loop $-1 $-1 $556 $544 #
vertex $-1 $548 $574 #
straight-curve $-1 0 34.517373360752316 9.4098739896722989 -1 0 0 I I #
edge $-1 $535 -9.4098739896722989 $563 9.4098739896722989 $557 $575 forward 7 unknown #
point $-1 -74.852137821588798 34.517373360752316 9.4098739896722989 #
vertex $-1 $566 $576 #
straight-curve $-1 -74.852137821588798 0 -9.4098739896722989 0 1 0 I I #
coedge $-1 $557 $556 $539 $566 reversed $558 $-1 #
edge $-1 $563 -74.852137821588798 $577 74.852137821588798 $565 $578 forward 7 unknown #
face $-1 $-1 $550 $15 $-1 $579 reversed single #
plane-surface $-1 0 34.517373360752316 0 0 -1 0 0 0 -1 forward_v I I I I #
coedge $-1 $547 $549 $556 $573 reversed $550 $-1 #
straight-curve $-1 74.852137821588798 0 9.4098739896722989 0 1 0 I I #
edge $-1 $577 -34.517373360752316 $551 34.517373360752316 $549 $580 forward 7 unknown #
point $-1 74.852137821588798 -34.517373360752316 -9.4098739896722989 #
edge $-1 $559 -9.4098739896722989 $577 9.4098739896722989 $569 $581 forward 7 unknown #
point $-1 74.852137821588798 34.517373360752316 9.4098739896722989 #
straight-curve $-1 -74.852137821588798 34.517373360752316 0 0 0 -1 I I #
point $-1 -74.852137821588798 34.517373360752316 -9.4098739896722989 #
vertex $-1 $571 $582 #
straight-curve $-1 0 34.517373360752316 -9.4098739896722989 1 0 0 I I #
plane-surface $-1 74.852137821588798 0 0 -1 0 0 0 0 1 forward_v I I I I #
straight-curve $-1 74.852137821588798 0 -9.4098739896722989 0 -1 0 I I #
straight-curve $-1 74.852137821588798 34.517373360752316 0 0 0 -1 I I #
point $-1 74.852137821588798 34.517373360752316 -9.4098739896722989 #
End-of-ACIS-data 