500 0 14 0           
7 Unknown 11 ACIS 5.0 NT 24 Thu Mar 25 16:57:44 1999 
-1 9.9999999999999995e-007 1e-010 
body $-1 $14 $-1 $15 #
body $-1 $16 $-1 $17 #
body $-1 $18 $-1 $19 #
body $-1 $20 $-1 $21 #
body $-1 $22 $-1 $23 #
body $-1 $24 $-1 $25 #
body $-1 $26 $-1 $27 #
body $-1 $28 $-1 $29 #
body $-1 $30 $-1 $31 #
body $-1 $32 $-1 $33 #
body $-1 $34 $-1 $35 #
body $-1 $36 $-1 $37 #
body $-1 $38 $-1 $39 #
body $-1 $40 $-1 $41 #
lump $-1 $-1 $42 $0 #
transform $-1 1 0 0 0 1 0 0 0 1 76.295052949613932 39.451436800799087 10.763992287560777 1 rotate no_reflect no_shear #
lump $-1 $-1 $43 $1 #
transform $-1 1 0 0 0 1 0 0 0 1 76.295052949613932 39.451436800799087 10.763992287560777 1 rotate no_reflect no_shear #
lump $-1 $-1 $44 $2 #
transform $-1 1 0 0 0 1 0 0 0 1 76.295052949613932 39.451436800799087 10.763992287560777 1 rotate no_reflect no_shear #
lump $-1 $-1 $45 $3 #
transform $-1 1 0 0 0 1 0 0 0 1 76.295052949613932 39.451436800799087 10.763992287560777 1 rotate no_reflect no_shear #
lump $-1 $-1 $46 $4 #
transform $-1 1 0 0 0 1 0 0 0 1 76.295052949613932 39.451436800799087 10.763992287560777 1 rotate no_reflect no_shear #
lump $-1 $-1 $47 $5 #
transform $-1 1 0 0 0 1 0 0 0 1 76.295052949613932 39.451436800799087 10.763992287560777 1 rotate no_reflect no_shear #
lump $-1 $-1 $48 $6 #
transform $-1 1 0 0 0 1 0 0 0 1 76.295052949613932 39.451436800799087 10.763992287560777 1 rotate no_reflect no_shear #
lump $-1 $-1 $49 $7 #
transform $-1 1 0 0 0 1 0 0 0 1 76.295052949613932 39.451436800799087 10.763992287560777 1 rotate no_reflect no_shear #
lump $-1 $-1 $50 $8 #
transform $-1 1 0 0 0 1 0 0 0 1 76.295052949613932 39.451436800799087 10.763992287560777 1 rotate no_reflect no_shear #
lump $-1 $-1 $51 $9 #
transform $-1 1 0 0 0 1 0 0 0 1 76.295052949613932 39.451436800799087 10.763992287560777 1 rotate no_reflect no_shear #
lump $-1 $-1 $52 $10 #
transform $-1 1 0 0 0 1 0 0 0 1 76.295052949613932 39.451436800799087 10.763992287560777 1 rotate no_reflect no_shear #
lump $-1 $-1 $53 $11 #
transform $-1 1 0 0 0 1 0 0 0 1 76.295052949613932 39.451436800799087 10.763992287560777 1 rotate no_reflect no_shear #
lump $-1 $-1 $54 $12 #
transform $-1 1 0 0 0 1 0 0 0 1 76.295052949613932 39.451436800799087 10.763992287560777 1 rotate no_reflect no_shear #
lump $-1 $-1 $55 $13 #
transform $-1 1 0 0 0 1 0 0 0 1 76.295052949613932 39.451436800799087 10.763992287560777 1 rotate no_reflect no_shear #
shell $-1 $-1 $-1 $56 $-1 $14 #
shell $-1 $-1 $-1 $57 $-1 $16 #
shell $-1 $-1 $-1 $58 $-1 $18 #
shell $-1 $-1 $-1 $59 $-1 $20 #
shell $-1 $-1 $-1 $60 $-1 $22 #
shell $-1 $-1 $-1 $61 $-1 $24 #
shell $-1 $-1 $-1 $62 $-1 $26 #
shell $-1 $-1 $-1 $63 $-1 $28 #
shell $-1 $-1 $-1 $64 $-1 $30 #
shell $-1 $-1 $-1 $65 $-1 $32 #
shell $-1 $-1 $-1 $66 $-1 $34 #
shell $-1 $-1 $-1 $67 $-1 $36 #
shell $-1 $-1 $-1 $68 $-1 $38 #
shell $-1 $-1 $-1 $69 $-1 $40 #
face $-1 $70 $71 $42 $-1 $72 forward single #
face $-1 $73 $74 $43 $-1 $75 reversed single #
face $-1 $76 $77 $44 $-1 $78 reversed single #
face $-1 $79 $80 $45 $-1 $81 forward single #
face $-1 $82 $83 $46 $-1 $84 forward single #
face $-1 $85 $86 $47 $-1 $87 reversed single #
face $-1 $88 $89 $48 $-1 $90 forward single #
face $-1 $91 $92 $49 $-1 $93 forward single #
face $-1 $94 $95 $50 $-1 $96 reversed single #
face $-1 $97 $98 $51 $-1 $99 forward single #
face $-1 $100 $101 $52 $-1 $102 forward single #
face $-1 $103 $104 $53 $-1 $105 reversed single #
face $-1 $106 $107 $54 $-1 $108 forward single #
face $-1 $109 $110 $55 $-1 $111 forward single #
face $-1 $112 $113 $42 $-1 $114 reversed single #
loop $-1 $-1 $115 $56 #
plane-surface $-1 0 0 10.763992287560777 0 0 1 1 0 0 forward_v I I I I #
face $-1 $116 $117 $43 $-1 $118 reversed single #
loop $-1 $-1 $119 $57 #
plane-surface $-1 0 -35.484994173852613 6.5244240736625922 0 0 1 1 0 0 forward_v I I I I #
face $-1 $120 $121 $44 $-1 $122 reversed single #
loop $-1 $-1 $123 $58 #
plane-surface $-1 76.295055453386539 -23.606092016529935 221.58096873227427 0 -1 0 -0.70710678939079041 0 -0.70710677298230451 forward_v I I I I #
face $-1 $124 $125 $45 $-1 $126 forward single #
loop $-1 $127 $128 $59 #
cone-surface $-1 72.432129388638586 -29.257848823941504 6.9010687007094624 -0.70710678939079041 0 -0.70710677298230451 0.70710677298230451 0 -0.70710678939079041 1 I I 0 1 1 forward I I I I #
face $-1 $129 $130 $46 $-1 $131 forward single #
loop $-1 $132 $133 $60 #
cone-surface $-1 72.432129388638586 -25.866794739494566 6.9010687007094624 -0.70710678939079041 0 -0.70710677298230451 0.70710677298230451 0 -0.70710678939079041 1 I I 0 1 1 forward I I I I #
face $-1 $134 $135 $47 $-1 $136 reversed single #
loop $-1 $-1 $137 $61 #
plane-surface $-1 -31.602444421817182 35.495207035611003 113.68347136084314 0.70710678939079041 0 0.70710677298230451 0.70710677298230451 0 -0.70710678939079041 forward_v I I I I #
face $-1 $138 $139 $48 $-1 $140 forward single #
loop $-1 $141 $142 $62 #
cone-surface $-1 72.432129388638586 33.799679993387528 6.9010687007094624 -0.70710678939079041 0 -0.70710677298230451 0.70710677298230451 0 -0.70710678939079041 1 I I 0 1 1 forward I I I I #
face $-1 $143 $144 $49 $-1 $145 forward single #
loop $-1 $146 $147 $63 #
cone-surface $-1 72.432129388638586 37.190734077834463 6.9010687007094624 -0.70710678939079041 0 -0.70710677298230451 0.70710677298230451 0 -0.70710678939079041 1 I I 0 1 1 forward I I I I #
face $-1 $148 $149 $50 $-1 $150 reversed single #
loop $-1 $-1 $151 $64 #
plane-surface $-1 -76.295052949613932 -27.562321781718033 5.7859714856394078 -0.70710678939079041 0 0.70710677298230451 0.70710677298230451 0 0.70710678939079041 forward_v I I I I #
face $-1 $152 $153 $51 $-1 $154 forward single #
loop $-1 $155 $156 $65 #
cone-surface $-1 -72.432129388638572 -29.257848823941504 6.9010687007094766 0.70710678939079041 0 -0.70710677298230451 0.70710677298230451 0 0.70710678939079041 1 I I 0 1 1 forward I I I I #
face $-1 $157 $158 $52 $-1 $159 forward single #
loop $-1 $160 $161 $66 #
cone-surface $-1 -72.432129388638572 -25.866794739494566 6.9010687007094766 0.70710678939079041 0 -0.70710677298230451 0.70710677298230451 0 0.70710678939079041 1 I I 0 1 1 forward I I I I #
face $-1 $162 $163 $53 $-1 $164 reversed single #
loop $-1 $-1 $165 $67 #
plane-surface $-1 -76.295052949613932 35.495207035611003 5.7859714856394078 -0.70710678939079041 0 0.70710677298230451 0.70710677298230451 0 0.70710678939079041 forward_v I I I I #
face $-1 $166 $167 $54 $-1 $168 forward single #
loop $-1 $169 $170 $68 #
cone-surface $-1 -72.432129388638572 33.799679993387528 6.9010687007094766 0.70710678939079041 0 -0.70710677298230451 0.70710677298230451 0 0.70710678939079041 1 I I 0 1 1 forward I I I I #
face $-1 $171 $172 $55 $-1 $173 forward single #
loop $-1 $174 $175 $69 #
cone-surface $-1 -72.432129388638572 37.190734077834463 6.9010687007094766 0.70710678939079041 0 -0.70710677298230451 0.70710677298230451 0 0.70710678939079041 1 I I 0 1 1 forward I I I I #
face $-1 $176 $177 $42 $-1 $178 reversed single #
loop $-1 $-1 $179 $70 #
plane-surface $-1 0 0 -10.763992287560777 0 0 1 1 0 0 forward_v I I I I #
coedge $-1 $180 $181 $182 $183 forward $71 $-1 #
face $-1 $184 $185 $43 $-1 $186 reversed single #
loop $-1 $-1 $187 $73 #
plane-surface $-1 0 -31.518551546906135 8.6442081806116864 0 -1 0 0 0 -1 forward_v I I I I #
coedge $-1 $188 $189 $190 $191 reversed $74 $-1 #
face $-1 $192 $193 $44 $-1 $194 forward single #
loop $-1 $-1 $195 $76 #
plane-surface $-1 -31.602444421817182 -27.562321781718033 113.68347136084314 0.70710678939079041 0 0.70710677298230451 0.70710677298230451 0 -0.70710678939079041 forward_v I I I I #
coedge $-1 $196 $197 $198 $199 reversed $77 $-1 #
face $-1 $-1 $200 $45 $-1 $201 forward single #
loop $-1 $202 $203 $79 #
cone-surface $-1 70.704662776170778 -29.257848823941504 5.1736021283276923 -0.70710678939079041 0 -0.70710677298230451 0.35355338649115226 0 -0.35355339469539521 1 I I -0.70710678118654746 0.70710678118654746 0.5 forward I I I I #
loop $-1 $-1 $204 $59 #
coedge $-1 $128 $128 $205 $206 reversed $80 $-1 #
face $-1 $-1 $207 $46 $-1 $208 forward single #
loop $-1 $209 $210 $82 #
cone-surface $-1 70.704662776170778 -25.866794739494566 5.1736021283276923 -0.70710678939079041 0 -0.70710677298230451 0.35355338649115226 0 -0.35355339469539521 1 I I -0.70710678118654746 0.70710678118654746 0.5 forward I I I I #
loop $-1 $-1 $211 $60 #
coedge $-1 $133 $133 $212 $213 reversed $83 $-1 #
face $-1 $214 $215 $47 $-1 $216 reversed single #
loop $-1 $-1 $217 $85 #
plane-surface $-1 76.295055453386539 31.538977270422905 221.58096873227427 0 1 0 0.70710678939079041 0 0.70710677298230451 forward_v I I I I #
coedge $-1 $218 $219 $220 $221 reversed $86 $-1 #
face $-1 $-1 $222 $48 $-1 $223 forward single #
loop $-1 $224 $225 $88 #
cone-surface $-1 70.704662776170778 33.799679993387528 5.1736021283276923 -0.70710678939079041 0 -0.70710677298230451 0.35355338649115226 0 -0.35355339469539521 1 I I -0.70710678118654746 0.70710678118654746 0.5 forward I I I I #
loop $-1 $-1 $226 $62 #
coedge $-1 $142 $142 $227 $228 reversed $89 $-1 #
face $-1 $-1 $229 $49 $-1 $230 forward single #
loop $-1 $231 $232 $91 #
cone-surface $-1 70.704662776170778 37.190734077834463 5.1736021283276923 -0.70710678939079041 0 -0.70710677298230451 0.35355338649115226 0 -0.35355339469539521 1 I I -0.70710678118654746 0.70710678118654746 0.5 forward I I I I #
loop $-1 $-1 $233 $63 #
coedge $-1 $147 $147 $234 $235 reversed $92 $-1 #
face $-1 $236 $237 $50 $-1 $238 forward single #
loop $-1 $-1 $239 $94 #
plane-surface $-1 -184.19255282481765 -23.606092016529935 113.68346885707054 0 -1 0 0.70710678939079041 0 -0.70710677298230451 forward_v I I I I #
coedge $-1 $240 $241 $242 $243 reversed $95 $-1 #
face $-1 $-1 $244 $51 $-1 $245 forward single #
loop $-1 $246 $247 $97 #
cone-surface $-1 -70.704662776170764 -29.257848823941504 5.1736021283277065 0.70710678939079041 0 -0.70710677298230451 0.35355338649115226 0 0.35355339469539521 1 I I -0.70710678118654746 0.70710678118654746 0.5 forward I I I I #
loop $-1 $-1 $248 $65 #
coedge $-1 $156 $156 $249 $250 reversed $98 $-1 #
face $-1 $-1 $251 $52 $-1 $252 forward single #
loop $-1 $253 $254 $100 #
cone-surface $-1 -70.704662776170764 -25.866794739494566 5.1736021283277065 0.70710678939079041 0 -0.70710677298230451 0.35355338649115226 0 0.35355339469539521 1 I I -0.70710678118654746 0.70710678118654746 0.5 forward I I I I #
loop $-1 $-1 $255 $66 #
coedge $-1 $161 $161 $256 $257 reversed $101 $-1 #
face $-1 $258 $259 $53 $-1 $260 reversed single #
loop $-1 $-1 $261 $103 #
plane-surface $-1 -184.19255282481765 31.538977270422905 113.68346885707054 0 1 0 -0.70710678939079041 0 0.70710677298230451 forward_v I I I I #
coedge $-1 $262 $263 $264 $265 reversed $104 $-1 #
face $-1 $-1 $266 $54 $-1 $267 forward single #
loop $-1 $268 $269 $106 #
cone-surface $-1 -70.704662776170764 33.799679993387528 5.1736021283277065 0.70710678939079041 0 -0.70710677298230451 0.35355338649115226 0 0.35355339469539521 1 I I -0.70710678118654746 0.70710678118654746 0.5 forward I I I I #
loop $-1 $-1 $270 $68 #
coedge $-1 $170 $170 $271 $272 reversed $107 $-1 #
face $-1 $-1 $273 $55 $-1 $274 forward single #
loop $-1 $275 $276 $109 #
cone-surface $-1 -70.704662776170764 37.190734077834463 5.1736021283277065 0.70710678939079041 0 -0.70710677298230451 0.35355338649115226 0 0.35355339469539521 1 I I -0.70710678118654746 0.70710678118654746 0.5 forward I I I I #
loop $-1 $-1 $277 $69 #
coedge $-1 $175 $175 $278 $279 reversed $110 $-1 #
face $-1 $280 $281 $42 $-1 $282 reversed single #
loop $-1 $-1 $283 $112 #
plane-surface $-1 0 -39.451436800799087 0 0 1 0 0 0 1 forward_v I I I I #
coedge $-1 $284 $285 $286 $287 forward $113 $-1 #
coedge $-1 $288 $115 $289 $290 forward $71 $-1 #
coedge $-1 $115 $288 $291 $292 forward $71 $-1 #
coedge $-1 $293 $294 $115 $183 reversed $295 $-1 #
edge $-1 $296 -39.451436800799087 $297 39.451436800799087 $182 $298 forward 7 unknown #
face $-1 $299 $300 $43 $-1 $301 reversed single #
loop $-1 $-1 $302 $116 #
plane-surface $-1 -76.295052949613932 0 0 1 0 0 0 0 -1 forward_v I I I I #
coedge $-1 $303 $304 $305 $306 reversed $117 $-1 #
coedge $-1 $307 $119 $308 $309 reversed $74 $-1 #
coedge $-1 $119 $307 $303 $310 forward $74 $-1 #
coedge $-1 $305 $311 $119 $191 forward $312 $-1 #
edge $-1 $313 -21.70893971387278 $314 -13.776054459979829 $190 $315 forward 7 unknown #
face $-1 $316 $317 $44 $-1 $318 forward single #
loop $-1 $-1 $319 $120 #
plane-surface $-1 0 -31.518551546906135 8.6442081806116864 0 -1 0 0 0 -1 forward_v I I I I #
coedge $-1 $320 $321 $322 $323 reversed $121 $-1 #
coedge $-1 $197 $123 $324 $325 reversed $77 $-1 #
coedge $-1 $123 $196 $320 $326 reversed $77 $-1 #
coedge $-1 $322 $327 $123 $199 forward $317 $-1 #
edge $-1 $328 -38.147525222920663 $329 -33.169504536514779 $198 $330 forward 7 unknown #
loop $-1 $-1 $205 $124 #
plane-surface $-1 -31.602444421817182 -27.562321781718033 113.68347136084314 0.70710678939079041 0 0.70710677298230451 0.70710677298230451 0 -0.70710678939079041 forward_v I I I I #
loop $-1 $-1 $331 $79 #
coedge $-1 $203 $203 $204 $332 reversed $125 $-1 #
coedge $-1 $204 $204 $203 $332 forward $127 $-1 #
coedge $-1 $205 $205 $128 $206 forward $200 $-1 #
edge $-1 $333 0 $333 6.2831853071796004 $205 $334 forward 7 unknown #
loop $-1 $-1 $212 $129 #
plane-surface $-1 -31.602444421817182 -27.562321781718033 113.68347136084314 0.70710678939079041 0 0.70710677298230451 0.70710677298230451 0 -0.70710678939079041 forward_v I I I I #
loop $-1 $-1 $335 $82 #
coedge $-1 $210 $210 $211 $336 reversed $130 $-1 #
coedge $-1 $211 $211 $210 $336 forward $132 $-1 #
coedge $-1 $212 $212 $133 $213 forward $207 $-1 #
edge $-1 $337 0 $337 6.2831853071796004 $212 $338 forward 7 unknown #
face $-1 $339 $340 $47 $-1 $341 forward single #
loop $-1 $-1 $342 $134 #
plane-surface $-1 0 39.451436800799087 0 0 -1 0 0 0 -1 forward_v I I I I #
coedge $-1 $343 $344 $345 $346 reversed $135 $-1 #
coedge $-1 $347 $137 $342 $348 reversed $86 $-1 #
coedge $-1 $137 $347 $343 $349 forward $86 $-1 #
coedge $-1 $345 $350 $137 $221 forward $340 $-1 #
edge $-1 $351 -21.7038332829936 $352 -13.791373752617403 $220 $353 forward 7 unknown #
loop $-1 $-1 $227 $138 #
plane-surface $-1 -31.602444421817182 35.495207035611003 113.68347136084314 0.70710678939079041 0 0.70710677298230451 0.70710677298230451 0 -0.70710678939079041 forward_v I I I I #
loop $-1 $-1 $354 $88 #
coedge $-1 $225 $225 $226 $355 reversed $139 $-1 #
coedge $-1 $226 $226 $225 $355 forward $141 $-1 #
coedge $-1 $227 $227 $142 $228 forward $222 $-1 #
edge $-1 $356 0 $356 6.2831853071796004 $227 $357 forward 7 unknown #
loop $-1 $-1 $234 $143 #
plane-surface $-1 -31.602444421817182 35.495207035611003 113.68347136084314 0.70710678939079041 0 0.70710677298230451 0.70710677298230451 0 -0.70710678939079041 forward_v I I I I #
loop $-1 $-1 $358 $91 #
coedge $-1 $232 $232 $233 $359 reversed $144 $-1 #
coedge $-1 $233 $233 $232 $359 forward $146 $-1 #
coedge $-1 $234 $234 $147 $235 forward $229 $-1 #
edge $-1 $360 0 $360 6.2831853071796004 $234 $361 forward 7 unknown #
face $-1 $362 $363 $50 $-1 $364 forward single #
loop $-1 $-1 $365 $148 #
plane-surface $-1 0 -31.518551546906135 8.6442081806116864 0 -1 0 0 0 -1 forward_v I I I I #
coedge $-1 $366 $367 $368 $369 reversed $149 $-1 #
coedge $-1 $370 $151 $365 $371 reversed $95 $-1 #
coedge $-1 $151 $370 $366 $372 forward $95 $-1 #
coedge $-1 $368 $373 $151 $243 forward $363 $-1 #
edge $-1 $374 -17.737390656047115 $375 -9.8249311256709184 $242 $376 forward 7 unknown #
loop $-1 $-1 $249 $152 #
plane-surface $-1 -76.295052949613932 -27.562321781718033 5.7859714856394078 -0.70710678939079041 0 0.70710677298230451 0.70710677298230451 0 0.70710678939079041 forward_v I I I I #
loop $-1 $-1 $377 $97 #
coedge $-1 $247 $247 $248 $378 reversed $153 $-1 #
coedge $-1 $248 $248 $247 $378 forward $155 $-1 #
coedge $-1 $249 $249 $156 $250 forward $244 $-1 #
edge $-1 $379 0 $379 6.2831853071796004 $249 $380 forward 7 unknown #
loop $-1 $-1 $256 $157 #
plane-surface $-1 -76.295052949613932 -27.562321781718033 5.7859714856394078 -0.70710678939079041 0 0.70710677298230451 0.70710677298230451 0 0.70710678939079041 forward_v I I I I #
loop $-1 $-1 $381 $100 #
coedge $-1 $254 $254 $255 $382 reversed $158 $-1 #
coedge $-1 $255 $255 $254 $382 forward $160 $-1 #
coedge $-1 $256 $256 $161 $257 forward $251 $-1 #
edge $-1 $383 0 $383 6.2831853071796004 $256 $384 forward 7 unknown #
face $-1 $385 $386 $53 $-1 $387 forward single #
loop $-1 $-1 $264 $162 #
plane-surface $-1 -76.295052949613932 0 0 1 0 0 0 0 -1 forward_v I I I I #
coedge $-1 $388 $389 $390 $391 reversed $163 $-1 #
coedge $-1 $392 $165 $393 $394 reversed $104 $-1 #
coedge $-1 $165 $392 $388 $395 forward $104 $-1 #
coedge $-1 $390 $396 $165 $265 forward $259 $-1 #
edge $-1 $397 -21.703833282993585 $398 -13.791373752617403 $264 $399 forward 7 unknown #
loop $-1 $-1 $271 $166 #
plane-surface $-1 -76.295052949613932 35.495207035611003 5.7859714856394078 -0.70710678939079041 0 0.70710677298230451 0.70710677298230451 0 0.70710678939079041 forward_v I I I I #
loop $-1 $-1 $400 $106 #
coedge $-1 $269 $269 $270 $401 reversed $167 $-1 #
coedge $-1 $270 $270 $269 $401 forward $169 $-1 #
coedge $-1 $271 $271 $170 $272 forward $266 $-1 #
edge $-1 $402 0 $402 6.2831853071796004 $271 $403 forward 7 unknown #
loop $-1 $-1 $278 $171 #
plane-surface $-1 -76.295052949613932 35.495207035611003 5.7859714856394078 -0.70710678939079041 0 0.70710677298230451 0.70710677298230451 0 0.70710678939079041 forward_v I I I I #
loop $-1 $-1 $404 $109 #
coedge $-1 $276 $276 $277 $405 reversed $172 $-1 #
coedge $-1 $277 $277 $276 $405 forward $174 $-1 #
coedge $-1 $278 $278 $175 $279 forward $273 $-1 #
edge $-1 $406 0 $406 6.2831853071796004 $278 $407 forward 7 unknown #
face $-1 $408 $409 $42 $-1 $410 reversed single #
loop $-1 $-1 $411 $176 #
plane-surface $-1 -76.295052949613932 0 0 1 0 0 0 0 -1 forward_v I I I I #
coedge $-1 $412 $291 $413 $414 forward $177 $-1 #
coedge $-1 $415 $179 $412 $416 forward $113 $-1 #
coedge $-1 $179 $415 $417 $418 forward $113 $-1 #
coedge $-1 $294 $293 $179 $287 reversed $295 $-1 #
edge $-1 $419 -39.451436800799087 $420 39.451436800799087 $286 $421 forward 7 unknown #
coedge $-1 $181 $180 $422 $423 forward $71 $-1 #
coedge $-1 $424 $425 $180 $290 reversed $409 $-1 #
edge $-1 $297 -76.295052949613932 $426 76.295052949613932 $289 $427 forward 7 unknown #
coedge $-1 $283 $428 $181 $292 reversed $177 $-1 #
edge $-1 $429 -76.295052949613932 $296 76.295052949613932 $291 $430 forward 7 unknown #
coedge $-1 $286 $182 $428 $431 forward $295 $-1 #
coedge $-1 $182 $286 $424 $432 reversed $295 $-1 #
loop $-1 $-1 $293 $408 #
vertex $-1 $183 $433 #
vertex $-1 $183 $434 #
straight-curve $-1 76.295052949613932 0 10.763992287560777 0 1 0 I I #
face $-1 $435 $436 $43 $-1 $437 forward single #
loop $-1 $-1 $308 $184 #
plane-surface $-1 0 -39.451436800799087 0 0 1 0 0 0 1 forward_v I I I I #
coedge $-1 $438 $439 $440 $441 forward $185 $-1 #
coedge $-1 $440 $187 $189 $310 reversed $117 $-1 #
coedge $-1 $187 $440 $442 $443 reversed $117 $-1 #
coedge $-1 $444 $190 $187 $306 forward $312 $-1 #
edge $-1 $314 2.2023199833567491 $445 6.4418881972549373 $305 $446 forward 7 unknown #
coedge $-1 $189 $188 $438 $447 reversed $74 $-1 #
coedge $-1 $448 $449 $188 $309 forward $300 $-1 #
edge $-1 $450 -76.295052949613932 $313 76.295052949613932 $308 $451 forward 7 unknown #
edge $-1 $452 -76.295052949613932 $314 76.295052949613932 $303 $453 forward 7 unknown #
coedge $-1 $190 $444 $448 $454 forward $312 $-1 #
loop $-1 $-1 $305 $435 #
vertex $-1 $309 $455 #
vertex $-1 $191 $456 #
straight-curve $-1 76.295052949613932 -17.742497086926306 6.5244240736625922 0 1 0 I I #
face $-1 $-1 $457 $44 $-1 $458 reversed single #
loop $-1 $-1 $322 $192 #
plane-surface $-1 0 0 10.763992287560777 0 0 1 1 0 0 forward_v I I I I #
coedge $-1 $459 $460 $321 $461 reversed $193 $-1 #
coedge $-1 $462 $195 $197 $326 forward $121 $-1 #
coedge $-1 $195 $462 $319 $461 forward $121 $-1 #
coedge $-1 $463 $198 $195 $323 forward $317 $-1 #
edge $-1 $329 9.8249311256709184 $464 17.737390656047118 $322 $465 forward 7 unknown #
coedge $-1 $466 $467 $196 $325 forward $457 $-1 #
edge $-1 $468 -105.00451288049771 $328 -100.02649207857635 $324 $469 forward 7 unknown #
edge $-1 $329 145.55012144905709 $468 152.59010589922789 $197 $470 forward 7 unknown #
coedge $-1 $198 $463 $466 $471 forward $317 $-1 #
vertex $-1 $325 $472 #
vertex $-1 $199 $473 #
straight-curve $-1 38.147527726693269 -23.606092016529935 10.763992287560782 -1 0 0 I I #
coedge $-1 $331 $331 $-1 $474 reversed $202 $-1 #
edge $-1 $475 0 $475 6.2831853071796004 $203 $476 forward 7 unknown #
vertex $-1 $206 $477 #
ellipse-curve $-1 73.806042606411012 -29.257848823941504 8.2749818866000915 0.70710678939079041 0 0.70710677298230451 0.70710677298230451 0 -0.70710678939079041 1 I I #
coedge $-1 $335 $335 $-1 $478 reversed $209 $-1 #
edge $-1 $479 0 $479 6.2831853071796004 $210 $480 forward 7 unknown #
vertex $-1 $213 $481 #
ellipse-curve $-1 73.806042606411012 -25.866794739494566 8.2749818866000915 0.70710678939079041 0 0.70710677298230451 0.70710677298230451 0 -0.70710678939079041 1 I I #
face $-1 $-1 $482 $47 $-1 $483 reversed single #
loop $-1 $-1 $220 $214 #
plane-surface $-1 0 0 10.763992287560777 0 0 1 1 0 0 forward_v I I I I #
coedge $-1 $484 $485 $218 $348 forward $215 $-1 #
coedge $-1 $344 $217 $219 $349 reversed $135 $-1 #
coedge $-1 $217 $343 $486 $487 reversed $135 $-1 #
coedge $-1 $488 $220 $217 $346 forward $340 $-1 #
edge $-1 $352 33.169504536514779 $489 38.147525222920663 $345 $490 forward 7 unknown #
coedge $-1 $219 $218 $491 $492 reversed $86 $-1 #
edge $-1 $493 -101.22377743211314 $351 -94.183792981942332 $342 $494 forward 7 unknown #
edge $-1 $495 -152.59010589922789 $352 -145.55012144905709 $343 $496 forward 7 unknown #
coedge $-1 $220 $488 $484 $497 forward $340 $-1 #
vertex $-1 $348 $498 #
vertex $-1 $221 $499 #
straight-curve $-1 71.317032263208063 17.747603517805501 10.763992287560782 0 -1 0 I I #
coedge $-1 $354 $354 $-1 $500 reversed $224 $-1 #
edge $-1 $501 0 $501 6.2831853071796004 $225 $502 forward 7 unknown #
vertex $-1 $228 $503 #
ellipse-curve $-1 73.806042606411012 33.799679993387528 8.2749818866000915 0.70710678939079041 0 0.70710677298230451 0.70710677298230451 0 -0.70710678939079041 1 I I #
coedge $-1 $358 $358 $-1 $504 reversed $231 $-1 #
edge $-1 $505 0 $505 6.2831853071796004 $232 $506 forward 7 unknown #
vertex $-1 $235 $507 #
ellipse-curve $-1 73.806042606411012 37.190734077834463 8.2749818866000915 0.70710678939079041 0 0.70710677298230451 0.70710677298230451 0 -0.70710678939079041 1 I I #
face $-1 $-1 $508 $50 $-1 $509 reversed single #
loop $-1 $-1 $368 $236 #
plane-surface $-1 0 0 10.763992287560777 0 0 1 1 0 0 forward_v I I I I #
coedge $-1 $510 $511 $240 $371 forward $237 $-1 #
coedge $-1 $367 $239 $241 $372 reversed $149 $-1 #
coedge $-1 $239 $366 $512 $513 reversed $149 $-1 #
coedge $-1 $514 $242 $239 $369 forward $363 $-1 #
edge $-1 $375 -20.779244149200778 $515 -15.801223462794894 $368 $516 forward 7 unknown #
coedge $-1 $241 $240 $517 $518 reversed $95 $-1 #
edge $-1 $519 -27.984913629208179 $374 -20.944929179037374 $365 $520 forward 7 unknown #
edge $-1 $521 0 $375 7.0399844501708104 $366 $522 forward 7 unknown #
coedge $-1 $242 $514 $510 $523 forward $363 $-1 #
vertex $-1 $243 $524 #
vertex $-1 $243 $525 #
straight-curve $-1 -71.317032263208048 -13.781160890859017 10.763992287560773 0 1 0 I I #
coedge $-1 $377 $377 $-1 $526 reversed $246 $-1 #
edge $-1 $527 0 $527 6.2831853071796004 $247 $528 forward 7 unknown #
vertex $-1 $250 $529 #
ellipse-curve $-1 -73.806042606410983 -29.257848823941504 8.274981886600095 -0.70710678939079041 0 0.70710677298230451 0.70710677298230451 0 0.70710678939079041 1 I I #
coedge $-1 $381 $381 $-1 $530 reversed $253 $-1 #
edge $-1 $531 0 $531 6.2831853071796004 $254 $532 forward 7 unknown #
vertex $-1 $257 $533 #
ellipse-curve $-1 -73.806042606410983 -25.866794739494566 8.274981886600095 -0.70710678939079041 0 0.70710677298230451 0.70710677298230451 0 0.70710678939079041 1 I I #
face $-1 $-1 $534 $53 $-1 $535 reversed single #
loop $-1 $-1 $536 $258 #
plane-surface $-1 0 0 10.763992287560777 0 0 1 1 0 0 forward_v I I I I #
coedge $-1 $389 $261 $263 $395 reversed $163 $-1 #
coedge $-1 $261 $388 $536 $537 reversed $163 $-1 #
coedge $-1 $538 $264 $261 $391 forward $259 $-1 #
edge $-1 $398 -51.055762942895861 $539 -46.077742140974493 $390 $540 forward 7 unknown #
coedge $-1 $263 $262 $541 $542 reversed $104 $-1 #
coedge $-1 $543 $544 $262 $394 forward $534 $-1 #
edge $-1 $545 17.888740032328407 $397 24.928724482499213 $393 $546 forward 7 unknown #
edge $-1 $547 -7.0399844501708104 $398 0 $388 $548 forward 7 unknown #
coedge $-1 $264 $538 $543 $549 forward $259 $-1 #
vertex $-1 $394 $550 #
vertex $-1 $265 $551 #
straight-curve $-1 -76.295052949613932 17.747603517805501 5.7859714856394007 0 -1 0 I I #
coedge $-1 $400 $400 $-1 $552 reversed $268 $-1 #
edge $-1 $553 0 $553 6.2831853071796004 $269 $554 forward 7 unknown #
vertex $-1 $272 $555 #
ellipse-curve $-1 -73.806042606410983 33.799679993387528 8.274981886600095 -0.70710678939079041 0 0.70710677298230451 0.70710677298230451 0 0.70710678939079041 1 I I #
coedge $-1 $404 $404 $-1 $556 reversed $275 $-1 #
edge $-1 $557 0 $557 6.2831853071796004 $276 $558 forward 7 unknown #
vertex $-1 $279 $559 #
ellipse-curve $-1 -73.806042606410983 37.190734077834463 8.274981886600095 -0.70710678939079041 0 0.70710677298230451 0.70710677298230451 0 0.70710678939079041 1 I I #
face $-1 $-1 $295 $42 $-1 $560 reversed single #
loop $-1 $-1 $424 $280 #
plane-surface $-1 0 39.451436800799087 0 0 -1 0 0 0 -1 forward_v I I I I #
coedge $-1 $561 $422 $425 $562 forward $281 $-1 #
coedge $-1 $428 $283 $284 $416 reversed $177 $-1 #
coedge $-1 $422 $561 $283 $414 reversed $281 $-1 #
edge $-1 $429 -10.763992287560777 $563 10.763992287560777 $413 $564 forward 7 unknown #
coedge $-1 $285 $284 $561 $565 forward $113 $-1 #
edge $-1 $420 -76.295052949613932 $563 76.295052949613932 $412 $566 forward 7 unknown #
coedge $-1 $425 $424 $285 $418 reversed $409 $-1 #
edge $-1 $567 -76.295052949613932 $419 76.295052949613932 $417 $568 forward 7 unknown #
vertex $-1 $287 $569 #
vertex $-1 $431 $570 #
straight-curve $-1 76.295052949613932 0 -10.763992287560777 0 -1 0 I I #
coedge $-1 $411 $413 $288 $423 reversed $281 $-1 #
edge $-1 $426 -39.451436800799087 $429 39.451436800799087 $422 $571 forward 7 unknown #
coedge $-1 $417 $289 $294 $432 forward $409 $-1 #
coedge $-1 $289 $417 $411 $562 reversed $409 $-1 #
vertex $-1 $290 $572 #
straight-curve $-1 0 39.451436800799087 10.763992287560777 -1 0 0 I I #
coedge $-1 $291 $412 $293 $431 reversed $177 $-1 #
vertex $-1 $423 $573 #
straight-curve $-1 0 -39.451436800799087 10.763992287560777 1 0 0 I I #
edge $-1 $296 -10.763992287560777 $420 10.763992287560777 $293 $574 forward 7 unknown #
edge $-1 $297 -10.763992287560777 $419 10.763992287560777 $294 $575 forward 7 unknown #
point $-1 76.295052949613932 -39.451436800799087 10.763992287560777 #
point $-1 76.295052949613932 39.451436800799087 10.763992287560777 #
face $-1 $-1 $312 $43 $-1 $576 reversed single #
loop $-1 $-1 $442 $299 #
plane-surface $-1 0 0 10.763992287560777 0 0 1 1 0 0 forward_v I I I I #
coedge $-1 $577 $302 $307 $447 forward $185 $-1 #
coedge $-1 $302 $577 $578 $579 reversed $185 $-1 #
coedge $-1 $304 $303 $302 $441 reversed $117 $-1 #
edge $-1 $580 -6.4418881972549373 $452 -2.2023199833567491 $302 $581 forward 7 unknown #
coedge $-1 $578 $582 $304 $443 forward $436 $-1 #
edge $-1 $445 -76.295052949613932 $580 76.295052949613932 $442 $583 forward 7 unknown #
coedge $-1 $311 $305 $582 $584 reversed $312 $-1 #
vertex $-1 $306 $585 #
straight-curve $-1 76.295052949613932 -31.518551546906135 4.3221040903058432 0 0 1 I I #
edge $-1 $452 13.776054459979829 $450 21.70893971387278 $438 $586 forward 7 unknown #
coedge $-1 $587 $308 $311 $454 reversed $300 $-1 #
coedge $-1 $308 $587 $577 $588 forward $300 $-1 #
vertex $-1 $309 $589 #
straight-curve $-1 0 -39.451436800799087 6.5244240736625922 1 0 0 I I #
vertex $-1 $447 $590 #
straight-curve $-1 0 -31.518551546906135 6.5244240736625922 1 0 0 I I #
edge $-1 $591 -10.763992287560777 $313 -6.5244240736625922 $311 $592 forward 7 unknown #
point $-1 76.295052949613932 -39.451436800799087 6.5244240736625922 #
point $-1 76.295052949613932 -31.518551546906135 6.5244240736625922 #
loop $-1 $-1 $324 $316 #
plane-surface $-1 76.295052949613932 0 0 -1 0 0 0 0 1 forward_v I I I I #
coedge $-1 $460 $319 $593 $594 reversed $193 $-1 #
coedge $-1 $319 $459 $463 $595 reversed $193 $-1 #
edge $-1 $596 -152.59010589922789 $464 -145.55012144905712 $319 $597 forward 7 unknown #
coedge $-1 $321 $320 $467 $598 reversed $121 $-1 #
coedge $-1 $327 $322 $460 $595 forward $317 $-1 #
vertex $-1 $595 $599 #
straight-curve $-1 71.317032263208063 -13.781160890859017 10.763992287560782 0 -1 0 I I #
coedge $-1 $593 $324 $327 $471 reversed $457 $-1 #
coedge $-1 $324 $593 $462 $598 forward $457 $-1 #
vertex $-1 $325 $600 #
straight-curve $-1 76.295052949613932 -23.606092016529935 110.79048436613714 0 0 1 I I #
straight-curve $-1 -31.602444421817182 -23.606092016529935 113.68347136084314 0.70710677298230451 0 -0.70710678939079041 I I #
edge $-1 $601 -31.518551546906135 $328 -23.606092016529935 $466 $602 forward 7 unknown #
point $-1 76.295052949613932 -23.606092016529935 10.763992287560777 #
point $-1 71.317032263208048 -23.606092016529935 10.763992287560797 #
edge $-1 $603 1 $603 0 $331 $-1 forward 7 unknown #
vertex $-1 $332 $604 #
ellipse-curve $-1 71.058216170866174 -29.257848823941504 5.5271555148188449 0.70710678939079041 0 0.70710677298230451 0.70710677298230451 0 -0.70710678939079041 1 I I #
point $-1 74.513149379393312 -29.257848823941504 7.5678750972092903 #
edge $-1 $605 1 $605 0 $335 $-1 forward 7 unknown #
vertex $-1 $336 $606 #
ellipse-curve $-1 71.058216170866174 -25.866794739494566 5.5271555148188449 0.70710678939079041 0 0.70710677298230451 0.70710677298230451 0 -0.70710678939079041 1 I I #
point $-1 74.513149379393312 -25.866794739494566 7.5678750972092903 #
loop $-1 $-1 $491 $339 #
plane-surface $-1 76.295052949613932 0 0 -1 0 0 0 0 1 forward_v I I I I #
coedge $-1 $485 $342 $350 $497 reversed $215 $-1 #
coedge $-1 $342 $484 $607 $608 forward $215 $-1 #
coedge $-1 $491 $609 $344 $487 forward $482 $-1 #
edge $-1 $489 100.02649207857635 $495 105.00451288049771 $486 $610 forward 7 unknown #
coedge $-1 $350 $345 $609 $611 forward $340 $-1 #
vertex $-1 $611 $612 #
straight-curve $-1 38.147527726693269 31.538977270422905 10.763992287560782 1 0 0 I I #
coedge $-1 $607 $486 $347 $492 forward $482 $-1 #
edge $-1 $495 13.791373752617403 $493 21.7038332829936 $491 $613 forward 7 unknown #
vertex $-1 $348 $614 #
straight-curve $-1 4.7190343405133923 39.451436800799087 77.361991755668882 -0.70710677298230462 0 0.70710678939079052 I I #
vertex $-1 $492 $615 #
straight-curve $-1 -31.602444421817182 31.538977270422905 113.68347136084314 -0.70710677298230451 0 0.70710678939079041 I I #
edge $-1 $616 -76.295052949613932 $351 -71.317032263208048 $484 $617 forward 7 unknown #
point $-1 71.317032263208048 39.451436800799101 10.763992287560797 #
point $-1 71.317032263208048 31.538977270422905 10.763992287560797 #
edge $-1 $618 1 $618 0 $354 $-1 forward 7 unknown #
vertex $-1 $355 $619 #
ellipse-curve $-1 71.058216170866174 33.799679993387528 5.5271555148188449 0.70710678939079041 0 0.70710677298230451 0.70710677298230451 0 -0.70710678939079041 1 I I #
point $-1 74.513149379393312 33.799679993387528 7.5678750972092903 #
edge $-1 $620 1 $620 0 $358 $-1 forward 7 unknown #
vertex $-1 $359 $621 #
ellipse-curve $-1 71.058216170866174 37.190734077834463 5.5271555148188449 0.70710678939079041 0 0.70710677298230451 0.70710677298230451 0 -0.70710678939079041 1 I I #
point $-1 74.513149379393312 37.190734077834463 7.5678750972092903 #
loop $-1 $-1 $622 $362 #
plane-surface $-1 -76.295052949613932 0 0 1 0 0 0 0 -1 forward_v I I I I #
coedge $-1 $511 $365 $373 $523 reversed $237 $-1 #
coedge $-1 $365 $510 $622 $623 reversed $237 $-1 #
coedge $-1 $517 $624 $367 $513 forward $508 $-1 #
edge $-1 $515 46.077742140974493 $521 51.055762942895861 $512 $625 forward 7 unknown #
coedge $-1 $373 $368 $624 $626 forward $363 $-1 #
vertex $-1 $626 $627 #
straight-curve $-1 -92.096276412408827 -23.606092016529935 10.763992287560775 -1 0 0 I I #
coedge $-1 $622 $512 $370 $518 forward $508 $-1 #
edge $-1 $521 9.8249311256709184 $519 17.737390656047115 $517 $628 forward 7 unknown #
vertex $-1 $623 $629 #
straight-curve $-1 -56.506730981076025 -31.518551546906135 25.574293913367374 0.70710677298230462 0 0.70710678939079052 I I #
vertex $-1 $518 $630 #
straight-curve $-1 -76.295052949613932 -23.606092016529935 5.7859714856394078 0.70710677298230451 0 0.70710678939079041 I I #
edge $-1 $631 -76.295052949613932 $374 -71.317032263208048 $373 $632 forward 7 unknown #
point $-1 -71.317032263208048 -31.518551546906131 10.763992287560777 #
point $-1 -71.317032263208048 -23.606092016529935 10.763992287560777 #
edge $-1 $633 1 $633 0 $377 $-1 forward 7 unknown #
vertex $-1 $378 $634 #
ellipse-curve $-1 -71.05821617086616 -29.257848823941504 5.5271555148188591 -0.70710678939079041 0 0.70710677298230451 0.70710677298230451 0 0.70710678939079041 1 I I #
point $-1 -73.098935833428683 -29.257848823941504 8.9820886759908856 #
edge $-1 $635 1 $635 0 $381 $-1 forward 7 unknown #
vertex $-1 $382 $636 #
ellipse-curve $-1 -71.05821617086616 -25.866794739494566 5.5271555148188591 -0.70710678939079041 0 0.70710677298230451 0.70710677298230451 0 0.70710678939079041 1 I I #
point $-1 -73.098935833428683 -25.866794739494566 8.9820886759908856 #
loop $-1 $-1 $393 $385 #
plane-surface $-1 0 39.451436800799087 0 0 -1 0 0 0 -1 forward_v I I I I #
coedge $-1 $541 $637 $389 $537 forward $386 $-1 #
edge $-1 $539 15.801223462794894 $547 20.779244149200778 $536 $638 forward 7 unknown #
coedge $-1 $396 $390 $637 $639 reversed $259 $-1 #
vertex $-1 $391 $640 #
straight-curve $-1 -76.295052949613932 31.538977270422905 56.841734428535268 0 0 1 I I #
coedge $-1 $641 $536 $392 $542 forward $386 $-1 #
edge $-1 $547 13.791373752617403 $545 21.7038332829936 $541 $642 forward 7 unknown #
coedge $-1 $544 $393 $396 $549 reversed $534 $-1 #
coedge $-1 $393 $543 $641 $643 reversed $534 $-1 #
vertex $-1 $643 $644 #
straight-curve $-1 -58.667783026228946 39.451436800799087 23.413241818067018 -0.70710677298230462 0 -0.70710678939079052 I I #
vertex $-1 $542 $645 #
straight-curve $-1 -76.295052949613932 31.538977270422905 5.7859714856394078 -0.70710677298230451 0 -0.70710678939079041 I I #
edge $-1 $646 -10.763992287560777 $397 -5.7859714856394087 $543 $647 forward 7 unknown #
point $-1 -76.295052949613932 39.451436800799087 5.7859714856394087 #
point $-1 -76.295052949613932 31.538977270422905 5.7859714856394078 #
edge $-1 $648 1 $648 0 $400 $-1 forward 7 unknown #
vertex $-1 $401 $649 #
ellipse-curve $-1 -71.05821617086616 33.799679993387528 5.5271555148188591 -0.70710678939079041 0 0.70710677298230451 0.70710677298230451 0 0.70710678939079041 1 I I #
point $-1 -73.098935833428683 33.799679993387528 8.9820886759908856 #
edge $-1 $650 1 $650 0 $404 $-1 forward 7 unknown #
vertex $-1 $405 $651 #
ellipse-curve $-1 -71.05821617086616 37.190734077834463 5.5271555148188591 -0.70710678939079041 0 0.70710677298230451 0.70710677298230451 0 0.70710678939079041 1 I I #
point $-1 -73.098935833428683 37.190734077834463 8.9820886759908856 #
plane-surface $-1 76.295052949613932 0 0 -1 0 0 0 0 1 forward_v I I I I #
coedge $-1 $413 $411 $415 $565 reversed $281 $-1 #
edge $-1 $426 -10.763992287560777 $567 10.763992287560777 $425 $652 forward 7 unknown #
vertex $-1 $565 $653 #
straight-curve $-1 -76.295052949613932 -39.451436800799087 0 0 0 -1 I I #
edge $-1 $563 -39.451436800799087 $567 39.451436800799087 $561 $654 forward 7 unknown #
straight-curve $-1 0 -39.451436800799087 -10.763992287560777 -1 0 0 I I #
vertex $-1 $418 $655 #
straight-curve $-1 0 39.451436800799087 -10.763992287560777 1 0 0 I I #
point $-1 76.295052949613932 39.451436800799087 -10.763992287560777 #
point $-1 76.295052949613932 -39.451436800799087 -10.763992287560777 #
straight-curve $-1 -76.295052949613932 0 10.763992287560777 0 -1 0 I I #
point $-1 -76.295052949613932 39.451436800799087 10.763992287560777 #
point $-1 -76.295052949613932 -39.451436800799087 10.763992287560777 #
straight-curve $-1 76.295052949613932 -39.451436800799087 0 0 0 -1 I I #
straight-curve $-1 76.295052949613932 39.451436800799087 0 0 0 -1 I I #
plane-surface $-1 76.295052949613932 0 0 -1 0 0 0 0 1 forward_v I I I I #
coedge $-1 $439 $438 $449 $588 reversed $185 $-1 #
coedge $-1 $656 $442 $439 $579 forward $436 $-1 #
edge $-1 $580 31.518551546906135 $657 39.451436800799087 $439 $658 forward 7 unknown #
vertex $-1 $579 $659 #
straight-curve $-1 -76.295052949613932 -31.518551546906135 4.3221040903058432 0 0 -1 I I #
coedge $-1 $442 $656 $444 $584 forward $436 $-1 #
straight-curve $-1 0 -31.518551546906135 10.763992287560777 -1 0 0 I I #
edge $-1 $591 -39.451436800799087 $445 -31.518551546906135 $444 $660 forward 7 unknown #
point $-1 76.295052949613932 -31.518551546906135 10.763992287560781 #
straight-curve $-1 -76.295052949613932 -17.742497086926306 6.5244240736625922 0 -1 0 I I #
coedge $-1 $449 $448 $656 $661 reversed $300 $-1 #
edge $-1 $657 -10.763992287560777 $450 -6.5244240736625922 $577 $662 forward 7 unknown #
point $-1 -76.295052949613932 -39.451436800799087 6.5244240736625922 #
point $-1 -76.295052949613932 -31.518551546906135 6.5244240736625922 #
vertex $-1 $584 $663 #
straight-curve $-1 76.295052949613932 -39.451436800799087 0 0 0 -1 I I #
coedge $-1 $467 $466 $459 $594 forward $457 $-1 #
edge $-1 $601 100.02649207857635 $596 105.00451288049771 $593 $664 forward 7 unknown #
edge $-1 $464 71.317032263208063 $601 76.295052949613932 $463 $665 forward 7 unknown #
vertex $-1 $594 $666 #
straight-curve $-1 -31.602444421817182 -31.518551546906131 113.68347136084314 -0.70710677298230451 0 0.70710678939079041 I I #
edge $-1 $596 -17.737390656047115 $468 -9.8249311256709184 $467 $667 forward 7 unknown #
point $-1 71.317032263208063 -31.518551546906135 10.763992287560777 #
point $-1 76.295052949613932 -23.606092016529935 5.785971485639422 #
vertex $-1 $471 $668 #
straight-curve $-1 76.295052949613932 0 10.763992287560777 0 1 0 I I #
vertex $-1 $474 $669 #
point $-1 71.765322943848474 -29.257848823941504 4.8200487254280544 #
vertex $-1 $478 $670 #
point $-1 71.765322943848474 -25.866794739494566 4.8200487254280544 #
coedge $-1 $609 $491 $485 $608 reversed $482 $-1 #
edge $-1 $616 -10.763992287560777 $493 -5.785971485639422 $607 $671 forward 7 unknown #
coedge $-1 $486 $607 $488 $611 reversed $482 $-1 #
straight-curve $-1 76.295052949613932 31.538977270422905 110.79048436613714 0 0 -1 I I #
edge $-1 $489 31.538977270422905 $616 39.451436800799087 $609 $672 forward 7 unknown #
point $-1 76.295052949613932 31.538977270422905 10.763992287560777 #
straight-curve $-1 76.295052949613932 17.747603517805501 5.7859714856394291 0 1 0 I I #
point $-1 76.295052949613932 39.451436800799101 5.785971485639422 #
point $-1 76.295052949613932 31.538977270422905 5.785971485639422 #
vertex $-1 $611 $673 #
straight-curve $-1 0 39.451436800799087 10.763992287560777 -1 0 0 I I #
vertex $-1 $500 $674 #
point $-1 71.765322943848474 33.799679993387528 4.8200487254280544 #
vertex $-1 $504 $675 #
point $-1 71.765322943848474 37.190734077834463 4.8200487254280544 #
coedge $-1 $624 $517 $511 $623 forward $508 $-1 #
edge $-1 $519 -51.055762942895861 $631 -46.077742140974486 $622 $676 forward 7 unknown #
coedge $-1 $512 $622 $514 $626 reversed $508 $-1 #
straight-curve $-1 -76.295052949613932 -23.606092016529935 56.841734428535268 0 0 -1 I I #
edge $-1 $515 23.606092016529935 $631 31.518551546906135 $624 $677 forward 7 unknown #
point $-1 -76.295052949613932 -23.606092016529935 10.763992287560777 #
straight-curve $-1 -76.295052949613932 -13.781160890859017 5.7859714856394007 0 -1 0 I I #
point $-1 -76.295052949613932 -31.518551546906131 5.7859714856394078 #
point $-1 -76.295052949613932 -23.606092016529935 5.7859714856394078 #
vertex $-1 $623 $678 #
straight-curve $-1 0 -31.518551546906135 10.763992287560777 1 0 0 I I #
vertex $-1 $526 $679 #
point $-1 -70.35110939788386 -29.257848823941504 6.2342623042096488 #
vertex $-1 $530 $680 #
point $-1 -70.35110939788386 -25.866794739494566 6.2342623042096488 #
coedge $-1 $536 $641 $538 $639 forward $386 $-1 #
straight-curve $-1 -92.096276412408827 31.538977270422905 10.763992287560775 1 0 0 I I #
edge $-1 $646 -39.451436800799087 $539 -31.538977270422905 $538 $681 forward 7 unknown #
point $-1 -76.295052949613932 31.538977270422905 10.763992287560777 #
coedge $-1 $637 $541 $544 $643 forward $386 $-1 #
straight-curve $-1 -71.317032263208048 17.747603517805501 10.763992287560773 0 1 0 I I #
edge $-1 $545 71.317032263208048 $646 76.295052949613932 $544 $682 forward 7 unknown #
point $-1 -71.317032263208048 39.451436800799101 10.763992287560777 #
point $-1 -71.317032263208048 31.538977270422905 10.763992287560777 #
vertex $-1 $643 $683 #
straight-curve $-1 -76.295052949613932 39.451436800799087 0 0 0 -1 I I #
vertex $-1 $552 $684 #
point $-1 -70.35110939788386 33.799679993387528 6.2342623042096488 #
vertex $-1 $556 $685 #
point $-1 -70.35110939788386 37.190734077834463 6.2342623042096488 #
straight-curve $-1 -76.295052949613932 39.451436800799087 0 0 0 -1 I I #
point $-1 -76.295052949613932 -39.451436800799087 -10.763992287560777 #
straight-curve $-1 -76.295052949613932 0 -10.763992287560777 0 1 0 I I #
point $-1 -76.295052949613932 39.451436800799087 -10.763992287560777 #
coedge $-1 $582 $578 $587 $661 forward $436 $-1 #
vertex $-1 $579 $686 #
straight-curve $-1 -76.295052949613932 0 10.763992287560777 0 -1 0 I I #
point $-1 -76.295052949613932 -31.518551546906135 10.763992287560781 #
straight-curve $-1 76.295052949613932 0 10.763992287560777 0 1 0 I I #
edge $-1 $657 -76.295052949613932 $591 76.295052949613932 $587 $687 forward 7 unknown #
straight-curve $-1 -76.295052949613932 -39.451436800799087 0 0 0 -1 I I #
point $-1 76.295052949613932 -39.451436800799087 10.763992287560777 #
straight-curve $-1 76.295052949613932 -31.518551546906131 110.79048436613714 0 0 -1 I I #
straight-curve $-1 0 -31.518551546906135 10.763992287560777 1 0 0 I I #
point $-1 76.295052949613932 -31.518551546906131 5.785971485639422 #
straight-curve $-1 76.295052949613932 -13.781160890859017 5.7859714856394291 0 1 0 I I #
point $-1 76.295052949613932 -31.518551546906135 10.763992287560781 #
point $-1 70.351109381475382 -29.257848823941504 4.8200487418365396 #
point $-1 70.351109381475382 -25.866794739494566 4.8200487418365396 #
straight-curve $-1 76.295052949613932 39.451436800799087 0 0 0 -1 I I #
straight-curve $-1 76.295052949613932 0 10.763992287560777 0 1 0 I I #
point $-1 76.295052949613932 39.451436800799087 10.763992287560777 #
point $-1 70.351109381475382 33.799679993387528 4.8200487418365396 #
point $-1 70.351109381475382 37.190734077834463 4.8200487418365396 #
straight-curve $-1 -76.295052949613932 -31.518551546906131 56.841734428535268 0 0 1 I I #
straight-curve $-1 -76.295052949613932 0 10.763992287560777 0 -1 0 I I #
point $-1 -76.295052949613932 -31.518551546906135 10.763992287560781 #
point $-1 -70.351109381475368 -29.257848823941504 4.8200487418365539 #
point $-1 -70.351109381475368 -25.866794739494566 4.8200487418365539 #
straight-curve $-1 -76.295052949613932 0 10.763992287560777 0 -1 0 I I #
straight-curve $-1 0 39.451436800799087 10.763992287560777 -1 0 0 I I #
point $-1 -76.295052949613932 39.451436800799087 10.763992287560777 #
point $-1 -70.351109381475368 33.799679993387528 4.8200487418365539 #
point $-1 -70.351109381475368 37.190734077834463 4.8200487418365539 #
point $-1 -76.295052949613932 -39.451436800799087 10.763992287560777 #
straight-curve $-1 0 -39.451436800799087 10.763992287560777 1 0 0 I I #
End-of-ACIS-data 