500 0 8 0           
7 Unknown 11 ACIS 5.0 NT 24 Thu Mar 25 21:35:51 1999 
-1 9.9999999999999995e-007 1e-010 
body $-1 $8 $-1 $9 #
body $-1 $10 $-1 $11 #
body $-1 $12 $-1 $13 #
body $-1 $14 $-1 $15 #
body $-1 $16 $-1 $17 #
body $-1 $18 $-1 $19 #
body $-1 $20 $-1 $21 #
body $-1 $22 $-1 $23 #
lump $-1 $-1 $24 $0 #
transform $-1 1 0 0 0 1 0 0 0 1 79.580065309610276 32.627656770391809 10.985782917285738 1 rotate no_reflect no_shear #
lump $-1 $-1 $25 $1 #
transform $-1 1 0 0 0 1 0 0 0 1 79.580065309610276 32.627656770391809 10.985782917285738 1 rotate no_reflect no_shear #
lump $-1 $-1 $26 $2 #
transform $-1 1 0 0 0 1 0 0 0 1 79.580065309610276 32.627656770391809 10.985782917285738 1 rotate no_reflect no_shear #
lump $-1 $-1 $27 $3 #
transform $-1 1 0 0 0 1 0 0 0 1 79.580065309610276 32.627656770391809 10.985782917285738 1 rotate no_reflect no_shear #
lump $-1 $-1 $28 $4 #
transform $-1 1 0 0 0 1 0 0 0 1 79.580065309610276 32.627656770391809 10.985782917285738 1 rotate no_reflect no_shear #
lump $-1 $-1 $29 $5 #
transform $-1 1 0 0 0 1 0 0 0 1 79.580065309610276 32.627656770391809 10.985782917285738 1 rotate no_reflect no_shear #
lump $-1 $-1 $30 $6 #
transform $-1 1 0 0 0 1 0 0 0 1 79.580065309610276 32.627656770391809 10.985782917285738 1 rotate no_reflect no_shear #
lump $-1 $-1 $31 $7 #
transform $-1 1 0 0 0 1 0 0 0 1 79.580065309610276 32.627656770391809 10.985782917285738 1 rotate no_reflect no_shear #
shell $-1 $-1 $-1 $32 $-1 $8 #
shell $-1 $-1 $-1 $33 $-1 $10 #
shell $-1 $-1 $-1 $34 $-1 $12 #
shell $-1 $-1 $-1 $35 $-1 $14 #
shell $-1 $-1 $-1 $36 $-1 $16 #
shell $-1 $-1 $-1 $37 $-1 $18 #
shell $-1 $-1 $-1 $38 $-1 $20 #
shell $-1 $-1 $-1 $39 $-1 $22 #
face $-1 $40 $41 $24 $-1 $42 forward single #
face $-1 $43 $44 $25 $-1 $45 forward single #
face $-1 $46 $47 $26 $-1 $48 forward single #
face $-1 $49 $50 $27 $-1 $51 reversed single #
face $-1 $52 $53 $28 $-1 $54 forward single #
face $-1 $55 $56 $29 $-1 $57 forward single #
face $-1 $58 $59 $30 $-1 $60 reversed single #
face $-1 $61 $62 $31 $-1 $63 forward single #
face $-1 $64 $65 $24 $-1 $66 reversed single #
loop $-1 $-1 $67 $32 #
plane-surface $-1 0 0 10.985782917285738 0 0 1 1 0 0 forward_v I I I I #
face $-1 $68 $69 $25 $-1 $70 reversed single #
loop $-1 $-1 $71 $33 #
plane-surface $-1 0 -32.627656770391809 0 0 1 0 0 0 1 forward_v I I I I #
face $-1 $72 $73 $26 $-1 $74 reversed single #
loop $-1 $-1 $75 $34 #
plane-surface $-1 0 32.627656770391809 0 0 -1 0 0 0 -1 forward_v I I I I #
face $-1 $76 $77 $27 $-1 $78 reversed single #
loop $-1 $-1 $79 $35 #
plane-surface $-1 -161.55359367660841 11.233815479563361 137.8949931774751 0 1 0 -0.51503808176128008 0 0.85716729658548041 forward_v I I I I #
face $-1 $80 $81 $28 $-1 $82 forward single #
loop $-1 $83 $84 $36 #
cone-surface $-1 -71.179067174826542 13.868925941996622 5.426465795252895 0.51503808176128008 0 -0.85716729658548041 0.85716729658548041 0 0.51503808176128008 1 I I 0 1 1 forward I I I I #
face $-1 $85 $86 $29 $-1 $87 forward single #
loop $-1 $88 $89 $37 #
cone-surface $-1 -71.179067174826542 17.821591635646513 5.426465795252895 0.51503808176128008 0 -0.85716729658548041 0.85716729658548041 0 0.51503808176128008 1 I I 0 1 1 forward I I I I #
face $-1 $90 $91 $30 $-1 $92 reversed single #
loop $-1 $-1 $93 $38 #
plane-surface $-1 110.90604275831909 6.2972448743251555 225.81972851872598 0 -1 0 -0.79863551827123203 0 -0.60181501223851219 forward_v I I I I #
face $-1 $94 $95 $31 $-1 $96 forward single #
loop $-1 $97 $98 $39 #
cone-surface $-1 74.631934315693982 0.833073098125233 5.5150888750215294 -0.79863551827123203 0 -0.60181501223851219 0.90272251835776829 0 -1.197953277406848 1 I I 0 1 1.5 forward I I I I #
face $-1 $99 $100 $24 $-1 $101 reversed single #
loop $-1 $-1 $102 $40 #
plane-surface $-1 0 0 -10.985782917285738 0 0 1 1 0 0 forward_v I I I I #
coedge $-1 $103 $104 $105 $106 forward $41 $-1 #
face $-1 $107 $108 $25 $-1 $109 reversed single #
loop $-1 $-1 $110 $43 #
plane-surface $-1 0 0 -10.985782917285738 0 0 1 1 0 0 forward_v I I I I #
coedge $-1 $111 $112 $113 $114 forward $44 $-1 #
face $-1 $115 $116 $26 $-1 $117 forward single #
loop $-1 $-1 $118 $46 #
plane-surface $-1 -79.580065309610276 0 0 1 0 0 0 0 -1 forward_v I I I I #
coedge $-1 $119 $120 $121 $122 forward $47 $-1 #
face $-1 $123 $124 $27 $-1 $125 reversed single #
loop $-1 $-1 $126 $49 #
plane-surface $-1 -79.580065309610276 15.845258788821567 1.4681342904058852 -0.51503808176128008 0 0.85716729658548041 0.85716729658548041 0 0.51503808176128008 forward_v I I I I #
coedge $-1 $127 $128 $129 $130 reversed $50 $-1 #
face $-1 $-1 $131 $28 $-1 $132 forward single #
loop $-1 $133 $134 $52 #
cone-surface $-1 -70.440563520739445 13.868925941996622 4.1973893383672412 0.51503808176128008 0 -0.85716729658548041 0.4285836482927402 0 0.25751904088064004 1 I I -0.70710678118654746 0.70710678118654746 0.5 forward I I I I #
loop $-1 $-1 $135 $36 #
coedge $-1 $84 $84 $136 $137 reversed $53 $-1 #
face $-1 $-1 $138 $29 $-1 $139 forward single #
loop $-1 $140 $141 $55 #
cone-surface $-1 -70.440563520739445 17.821591635646513 4.1973893383672412 0.51503808176128008 0 -0.85716729658548041 0.4285836482927402 0 0.25751904088064004 1 I I -0.70710678118654746 0.70710678118654746 0.5 forward I I I I #
loop $-1 $-1 $142 $37 #
coedge $-1 $89 $89 $143 $144 reversed $56 $-1 #
face $-1 $145 $146 $30 $-1 $147 reversed single #
loop $-1 $-1 $148 $58 #
plane-surface $-1 -16.204890646879107 0.83307309812524011 130.03477256223658 0.79863551827123203 0 0.60181501223851219 0.60181501223851219 0 -0.79863551827123203 forward_v I I I I #
coedge $-1 $149 $150 $151 $152 reversed $59 $-1 #
face $-1 $-1 $153 $31 $-1 $154 forward single #
loop $-1 $155 $156 $61 #
cone-surface $-1 72.122381782828612 0.833073098125233 3.6240054537021198 -0.79863551827123203 0 -0.60181501223851219 0.45136125917888414 0 -0.59897663870342399 1 I I -0.70710678118654724 0.70710678118654768 0.75 forward I I I I #
loop $-1 $-1 $157 $39 #
coedge $-1 $98 $98 $158 $159 reversed $62 $-1 #
face $-1 $160 $161 $24 $-1 $162 reversed single #
loop $-1 $-1 $163 $64 #
plane-surface $-1 0 -32.627656770391809 0 0 1 0 0 0 1 forward_v I I I I #
coedge $-1 $164 $165 $166 $167 forward $65 $-1 #
coedge $-1 $168 $67 $169 $170 forward $41 $-1 #
coedge $-1 $67 $168 $171 $172 forward $41 $-1 #
coedge $-1 $173 $174 $67 $106 reversed $175 $-1 #
edge $-1 $176 -32.627656770391809 $177 32.627656770391809 $105 $178 forward 7 unknown #
face $-1 $179 $180 $25 $-1 $181 forward single #
loop $-1 $-1 $182 $68 #
plane-surface $-1 79.580065309610276 0 0 -1 0 0 0 0 1 forward_v I I I I #
coedge $-1 $183 $184 $185 $186 forward $69 $-1 #
coedge $-1 $185 $71 $182 $187 reversed $44 $-1 #
coedge $-1 $71 $185 $188 $189 reversed $44 $-1 #
coedge $-1 $190 $191 $71 $114 reversed $180 $-1 #
edge $-1 $192 -79.580065309610276 $193 79.580065309610276 $113 $194 forward 7 unknown #
face $-1 $195 $196 $26 $-1 $197 reversed single #
loop $-1 $-1 $198 $72 #
plane-surface $-1 0 38.713134106547827 -7.9857829172857375 0 0 1 1 0 0 forward_v I I I I #
coedge $-1 $199 $200 $119 $201 forward $73 $-1 #
coedge $-1 $202 $75 $118 $201 reversed $47 $-1 #
coedge $-1 $75 $202 $203 $204 reversed $47 $-1 #
coedge $-1 $198 $205 $75 $122 reversed $116 $-1 #
edge $-1 $206 -79.580065309610276 $207 79.580065309610276 $121 $208 forward 7 unknown #
face $-1 $209 $210 $27 $-1 $211 reversed single #
loop $-1 $-1 $212 $76 #
plane-surface $-1 -161.55359367660841 20.456702098079774 137.8949931774751 0 -1 0 0.51503808176128008 0 -0.85716729658548041 forward_v I I I I #
coedge $-1 $213 $214 $215 $216 reversed $77 $-1 #
coedge $-1 $128 $79 $217 $218 reversed $50 $-1 #
coedge $-1 $79 $127 $213 $219 reversed $50 $-1 #
coedge $-1 $215 $220 $79 $130 forward $221 $-1 #
edge $-1 $222 1.1967315286939311 $223 17.036758571848466 $129 $224 forward 7 unknown #
loop $-1 $-1 $136 $80 #
plane-surface $-1 -79.580065309610276 15.845258788821567 1.4681342904058852 -0.51503808176128008 0 0.85716729658548041 0.85716729658548041 0 0.51503808176128008 forward_v I I I I #
loop $-1 $-1 $225 $52 #
coedge $-1 $134 $134 $135 $226 reversed $81 $-1 #
coedge $-1 $135 $135 $134 $226 forward $83 $-1 #
coedge $-1 $136 $136 $84 $137 forward $131 $-1 #
edge $-1 $227 0 $227 6.2831853071796004 $136 $228 forward 7 unknown #
loop $-1 $-1 $143 $85 #
plane-surface $-1 -79.580065309610276 15.845258788821567 1.4681342904058852 -0.51503808176128008 0 0.85716729658548041 0.85716729658548041 0 0.51503808176128008 forward_v I I I I #
loop $-1 $-1 $229 $55 #
coedge $-1 $141 $141 $142 $230 reversed $86 $-1 #
coedge $-1 $142 $142 $141 $230 forward $88 $-1 #
coedge $-1 $143 $143 $89 $144 forward $138 $-1 #
edge $-1 $231 0 $231 6.2831853071796004 $143 $232 forward 7 unknown #
face $-1 $233 $234 $30 $-1 $235 forward single #
loop $-1 $-1 $236 $90 #
plane-surface $-1 110.90604275831909 -4.6310986780746752 225.81972851872598 0 1 0 0.79863551827123203 0 0.60181501223851219 forward_v I I I I #
coedge $-1 $237 $238 $239 $240 reversed $91 $-1 #
coedge $-1 $150 $93 $241 $242 reversed $59 $-1 #
coedge $-1 $93 $149 $237 $243 reversed $59 $-1 #
coedge $-1 $239 $244 $93 $152 forward $234 $-1 #
edge $-1 $245 -24.127043930450732 $246 -18.051933730942103 $151 $247 forward 7 unknown #
loop $-1 $-1 $158 $94 #
plane-surface $-1 -16.204890646879107 0.83307309812524011 130.03477256223658 0.79863551827123203 0 0.60181501223851219 0.60181501223851219 0 -0.79863551827123203 forward_v I I I I #
loop $-1 $-1 $248 $61 #
coedge $-1 $156 $156 $157 $249 reversed $95 $-1 #
coedge $-1 $157 $157 $156 $249 forward $97 $-1 #
coedge $-1 $158 $158 $98 $159 forward $153 $-1 #
edge $-1 $250 0 $250 6.2831853071796004 $158 $251 forward 7 unknown #
face $-1 $252 $253 $24 $-1 $254 reversed single #
loop $-1 $-1 $255 $99 #
plane-surface $-1 -79.580065309610276 0 0 1 0 0 0 0 -1 forward_v I I I I #
coedge $-1 $171 $256 $173 $257 reversed $100 $-1 #
coedge $-1 $258 $102 $256 $259 forward $65 $-1 #
coedge $-1 $102 $258 $260 $261 forward $65 $-1 #
coedge $-1 $174 $173 $102 $167 reversed $175 $-1 #
edge $-1 $262 -32.627656770391809 $263 32.627656770391809 $166 $264 forward 7 unknown #
coedge $-1 $104 $103 $265 $266 forward $41 $-1 #
coedge $-1 $267 $268 $103 $170 reversed $253 $-1 #
edge $-1 $177 -79.580065309610276 $269 79.580065309610276 $169 $270 forward 7 unknown #
coedge $-1 $271 $163 $104 $172 reversed $100 $-1 #
edge $-1 $272 -79.580065309610276 $176 79.580065309610276 $171 $273 forward 7 unknown #
coedge $-1 $166 $105 $163 $257 forward $175 $-1 #
coedge $-1 $105 $166 $267 $274 reversed $175 $-1 #
loop $-1 $-1 $173 $252 #
vertex $-1 $106 $275 #
vertex $-1 $106 $276 #
straight-curve $-1 79.580065309610276 0 10.985782917285738 0 1 0 I I #
face $-1 $277 $278 $25 $-1 $279 reversed single #
loop $-1 $-1 $191 $107 #
plane-surface $-1 0 -38.713134106547827 -7.9857829172857375 0 0 1 1 0 0 forward_v I I I I #
coedge $-1 $280 $281 $111 $187 forward $108 $-1 #
coedge $-1 $282 $110 $281 $283 forward $69 $-1 #
coedge $-1 $110 $282 $284 $285 forward $69 $-1 #
coedge $-1 $112 $111 $110 $186 reversed $44 $-1 #
edge $-1 $286 -79.580065309610276 $287 79.580065309610276 $110 $288 forward 7 unknown #
edge $-1 $287 -10.985782917285738 $193 -7.9857829172857375 $182 $289 forward 7 unknown #
coedge $-1 $284 $290 $112 $189 forward $291 $-1 #
edge $-1 $192 7.9857829172857375 $286 10.985782917285738 $188 $292 forward 7 unknown #
coedge $-1 $293 $113 $290 $294 forward $180 $-1 #
coedge $-1 $113 $293 $280 $295 forward $180 $-1 #
vertex $-1 $189 $296 #
vertex $-1 $295 $297 #
straight-curve $-1 0 -32.627656770391809 -7.9857829172857375 1 0 0 I I #
face $-1 $298 $299 $26 $-1 $300 reversed single #
loop $-1 $-1 $301 $115 #
plane-surface $-1 0 44.798611442703844 -9.4857829172857375 0 -1 0 0 0 -1 forward_v I I I I #
coedge $-1 $302 $121 $303 $304 forward $116 $-1 #
coedge $-1 $305 $118 $205 $306 reversed $73 $-1 #
coedge $-1 $118 $305 $307 $308 reversed $73 $-1 #
edge $-1 $309 -10.985782917285738 $207 -7.9857829172857375 $118 $310 forward 7 unknown #
coedge $-1 $120 $119 $311 $312 reversed $47 $-1 #
coedge $-1 $313 $303 $120 $204 forward $314 $-1 #
edge $-1 $206 7.9857829172857375 $315 10.985782917285738 $203 $316 forward 7 unknown #
coedge $-1 $121 $302 $199 $306 forward $116 $-1 #
vertex $-1 $204 $317 #
vertex $-1 $306 $318 #
straight-curve $-1 0 32.627656770391809 -7.9857829172857375 -1 0 0 I I #
face $-1 $-1 $221 $27 $-1 $319 forward single #
loop $-1 $-1 $320 $123 #
plane-surface $-1 -79.580065309610276 0 0 1 0 0 0 0 -1 forward_v I I I I #
coedge $-1 $321 $322 $323 $324 reversed $124 $-1 #
coedge $-1 $325 $126 $128 $219 forward $77 $-1 #
coedge $-1 $126 $325 $321 $326 forward $77 $-1 #
coedge $-1 $323 $129 $126 $216 forward $221 $-1 #
edge $-1 $223 3.3111860851525776 $327 12.53407270366899 $215 $328 forward 7 unknown #
coedge $-1 $329 $330 $127 $218 forward $210 $-1 #
edge $-1 $331 -67.479362298331665 $222 -57.961713671451811 $217 $332 forward 7 unknown #
edge $-1 $223 -18.479504650087755 $331 0 $128 $333 forward 7 unknown #
coedge $-1 $129 $323 $329 $334 forward $221 $-1 #
loop $-1 $-1 $323 $209 #
vertex $-1 $218 $335 #
vertex $-1 $130 $336 #
straight-curve $-1 -80.776796838304207 11.233815479563361 10.985782917285739 1 0 0 I I #
coedge $-1 $225 $225 $-1 $337 reversed $133 $-1 #
edge $-1 $338 0 $338 6.2831853071796004 $134 $339 forward 7 unknown #
vertex $-1 $137 $340 #
ellipse-curve $-1 -71.660051788033002 13.868925941996622 6.226958603845814 -0.51503808176128008 0 0.85716729658548041 0.85716729658548041 0 0.51503808176128008 1 I I #
coedge $-1 $229 $229 $-1 $341 reversed $140 $-1 #
edge $-1 $342 0 $342 6.2831853071796004 $141 $343 forward 7 unknown #
vertex $-1 $144 $344 #
ellipse-curve $-1 -71.660051788033002 17.821591635646513 6.226958603845814 -0.51503808176128008 0 0.85716729658548041 0.85716729658548041 0 0.51503808176128008 1 I I #
face $-1 $-1 $345 $30 $-1 $346 reversed single #
loop $-1 $-1 $151 $145 #
plane-surface $-1 0 0 10.985782917285738 0 0 1 1 0 0 forward_v I I I I #
coedge $-1 $347 $348 $349 $350 reversed $146 $-1 #
coedge $-1 $351 $148 $150 $243 forward $91 $-1 #
coedge $-1 $148 $351 $347 $352 forward $91 $-1 #
coedge $-1 $349 $151 $148 $240 forward $234 $-1 #
edge $-1 $246 -5.8807083252625354 $353 5.0476352271372953 $239 $354 forward 7 unknown #
coedge $-1 $355 $356 $149 $242 forward $345 $-1 #
edge $-1 $357 -109.98602510232455 $245 -101.92408134207726 $241 $358 forward 7 unknown #
edge $-1 $246 149.06548346691426 $357 159.16013061922047 $150 $359 forward 7 unknown #
coedge $-1 $151 $349 $355 $360 forward $234 $-1 #
vertex $-1 $242 $361 #
vertex $-1 $152 $362 #
straight-curve $-1 55.453021379159544 6.2972448743251555 10.985782917285732 -1 0 0 I I #
coedge $-1 $248 $248 $-1 $363 reversed $155 $-1 #
edge $-1 $364 0 $364 6.2831853071796004 $156 $365 forward 7 unknown #
vertex $-1 $159 $366 #
ellipse-curve $-1 76.542510209855962 0.833073098125233 6.9548110371620826 0.79863551827123203 0 0.60181501223851219 0.90272251835776829 0 -1.197953277406848 1 I I #
face $-1 $-1 $175 $24 $-1 $367 reversed single #
loop $-1 $-1 $268 $160 #
plane-surface $-1 0 32.627656770391809 0 0 -1 0 0 0 -1 forward_v I I I I #
coedge $-1 $368 $265 $268 $369 forward $161 $-1 #
coedge $-1 $163 $271 $164 $259 reversed $100 $-1 #
edge $-1 $176 -10.985782917285738 $263 10.985782917285738 $173 $370 forward 7 unknown #
coedge $-1 $165 $164 $368 $371 forward $65 $-1 #
edge $-1 $263 -79.580065309610276 $372 79.580065309610276 $256 $373 forward 7 unknown #
coedge $-1 $268 $267 $165 $261 reversed $253 $-1 #
edge $-1 $374 -79.580065309610276 $262 79.580065309610276 $260 $375 forward 7 unknown #
vertex $-1 $167 $376 #
vertex $-1 $257 $377 #
straight-curve $-1 79.580065309610276 0 -10.985782917285738 0 -1 0 I I #
coedge $-1 $255 $378 $168 $266 reversed $161 $-1 #
edge $-1 $269 -32.627656770391809 $272 32.627656770391809 $265 $379 forward 7 unknown #
coedge $-1 $260 $169 $174 $274 forward $253 $-1 #
coedge $-1 $169 $260 $255 $369 reversed $253 $-1 #
vertex $-1 $170 $380 #
straight-curve $-1 0 32.627656770391809 10.985782917285738 -1 0 0 I I #
coedge $-1 $256 $171 $378 $381 forward $100 $-1 #
vertex $-1 $266 $382 #
straight-curve $-1 0 -32.627656770391809 10.985782917285738 1 0 0 I I #
edge $-1 $177 -10.985782917285738 $262 10.985782917285738 $174 $383 forward 7 unknown #
point $-1 79.580065309610276 -32.627656770391809 10.985782917285738 #
point $-1 79.580065309610276 32.627656770391809 10.985782917285738 #
face $-1 $-1 $291 $25 $-1 $384 reversed single #
loop $-1 $-1 $385 $179 #
plane-surface $-1 0 -44.798611442703844 -9.4857829172857375 0 1 0 0 0 1 forward_v I I I I #
coedge $-1 $386 $182 $191 $295 reversed $108 $-1 #
coedge $-1 $182 $386 $183 $283 reversed $108 $-1 #
coedge $-1 $184 $183 $387 $388 forward $69 $-1 #
edge $-1 $287 32.627656770391809 $389 44.798611442703844 $281 $390 forward 7 unknown #
coedge $-1 $391 $188 $184 $285 reversed $291 $-1 #
edge $-1 $392 -44.798611442703844 $286 -32.627656770391809 $284 $393 forward 7 unknown #
vertex $-1 $189 $394 #
vertex $-1 $283 $395 #
straight-curve $-1 0 -32.627656770391809 -10.985782917285738 1 0 0 I I #
straight-curve $-1 79.580065309610276 -32.627656770391809 0 0 0 1 I I #
coedge $-1 $188 $391 $190 $294 reversed $291 $-1 #
loop $-1 $-1 $188 $277 #
straight-curve $-1 -79.580065309610276 -32.627656770391809 0 0 0 -1 I I #
coedge $-1 $191 $190 $396 $397 forward $180 $-1 #
edge $-1 $192 -6.0854773361560177 $398 6.0854773361560177 $290 $399 forward 7 unknown #
edge $-1 $400 -6.0854773361560177 $193 6.0854773361560177 $280 $401 forward 7 unknown #
point $-1 -79.580065309610276 -32.627656770391809 -7.9857829172857375 #
point $-1 79.580065309610276 -32.627656770391809 -7.9857829172857375 #
face $-1 $-1 $314 $26 $-1 $402 reversed single #
loop $-1 $-1 $311 $195 #
plane-surface $-1 0 0 -10.985782917285738 0 0 1 1 0 0 forward_v I I I I #
coedge $-1 $403 $404 $405 $406 forward $196 $-1 #
coedge $-1 $205 $198 $404 $407 forward $116 $-1 #
coedge $-1 $203 $405 $198 $304 reversed $314 $-1 #
edge $-1 $206 -6.0854773361560177 $408 6.0854773361560177 $303 $409 forward 7 unknown #
coedge $-1 $200 $199 $410 $411 forward $73 $-1 #
edge $-1 $412 -6.0854773361560177 $207 6.0854773361560177 $199 $413 forward 7 unknown #
coedge $-1 $414 $311 $200 $308 forward $299 $-1 #
edge $-1 $309 -6.0854773361560177 $415 6.0854773361560177 $200 $416 forward 7 unknown #
vertex $-1 $308 $417 #
straight-curve $-1 -79.580065309610276 32.627656770391809 0 0 0 1 I I #
coedge $-1 $307 $418 $202 $312 forward $299 $-1 #
edge $-1 $315 -79.580065309610276 $309 79.580065309610276 $311 $419 forward 7 unknown #
coedge $-1 $405 $203 $418 $420 reversed $314 $-1 #
loop $-1 $-1 $203 $298 #
vertex $-1 $204 $421 #
straight-curve $-1 79.580065309610276 32.627656770391809 0 0 0 -1 I I #
point $-1 79.580065309610276 32.627656770391809 -7.9857829172857375 #
point $-1 -79.580065309610276 32.627656770391809 -7.9857829172857375 #
plane-surface $-1 0 0 10.985782917285738 0 0 1 1 0 0 forward_v I I I I #
coedge $-1 $330 $329 $322 $422 forward $210 $-1 #
coedge $-1 $322 $212 $214 $326 reversed $124 $-1 #
coedge $-1 $212 $321 $320 $422 reversed $124 $-1 #
coedge $-1 $220 $215 $212 $324 forward $221 $-1 #
edge $-1 $327 -17.036758571848466 $423 -1.1967315286939311 $323 $424 forward 7 unknown #
coedge $-1 $214 $213 $330 $425 reversed $77 $-1 #
edge $-1 $426 0 $327 18.479504650087755 $321 $427 forward 7 unknown #
vertex $-1 $216 $428 #
straight-curve $-1 -63.740038266455748 7.9226293944107837 10.985782917285738 0 1 0 I I #
coedge $-1 $320 $217 $220 $334 reversed $210 $-1 #
coedge $-1 $217 $320 $325 $425 forward $210 $-1 #
vertex $-1 $218 $429 #
straight-curve $-1 -79.580065309610276 11.233815479563361 68.94749658873755 0 0 1 I I #
straight-curve $-1 -79.580065309610276 11.233815479563361 1.4681342904058852 -0.85716729658548041 0 -0.51503808176128008 I I #
edge $-1 $423 -20.456702098079774 $222 -11.233815479563361 $329 $430 forward 7 unknown #
point $-1 -79.580065309610276 11.233815479563361 10.985782917285738 #
point $-1 -63.740038266455741 11.233815479563361 10.985782917285738 #
edge $-1 $431 1 $431 0 $225 $-1 forward 7 unknown #
vertex $-1 $226 $432 #
ellipse-curve $-1 -70.698082561620083 13.868925941996622 4.6259729866599812 -0.51503808176128008 0 0.85716729658548041 0.85716729658548041 0 0.51503808176128008 1 I I #
point $-1 -70.802884491447529 13.868925941996622 6.7419966856070879 #
edge $-1 $433 1 $433 0 $229 $-1 forward 7 unknown #
vertex $-1 $230 $434 #
ellipse-curve $-1 -70.698082561620083 17.821591635646513 4.6259729866599812 -0.51503808176128008 0 0.85716729658548041 0.85716729658548041 0 0.51503808176128008 1 I I #
point $-1 -70.802884491447529 17.821591635646513 6.7419966856070879 #
loop $-1 $-1 $241 $233 #
plane-surface $-1 79.580065309610276 0 0 -1 0 0 0 0 1 forward_v I I I I #
coedge $-1 $348 $236 $238 $352 reversed $146 $-1 #
coedge $-1 $236 $347 $435 $436 reversed $146 $-1 #
coedge $-1 $244 $239 $236 $350 forward $234 $-1 #
edge $-1 $353 18.051933730942103 $437 24.127043930450732 $349 $438 forward 7 unknown #
coedge $-1 $238 $237 $356 $439 reversed $91 $-1 #
edge $-1 $440 -159.16013061922047 $353 -149.06548346691426 $347 $441 forward 7 unknown #
vertex $-1 $240 $442 #
straight-curve $-1 73.504955110101633 0.41653654906262005 10.985782917285732 0 -1 0 I I #
coedge $-1 $435 $241 $244 $360 reversed $345 $-1 #
coedge $-1 $241 $435 $351 $439 forward $345 $-1 #
vertex $-1 $242 $443 #
straight-curve $-1 79.580065309610276 6.2972448743251555 112.90986425936299 0 0 1 I I #
straight-curve $-1 -16.204890646879107 6.2972448743251555 130.03477256223658 0.60181501223851219 0 -0.79863551827123203 I I #
edge $-1 $437 -4.6310986780746752 $245 6.2972448743251555 $355 $444 forward 7 unknown #
point $-1 79.580065309610276 6.2972448743251555 10.985782917285738 #
point $-1 73.504955110101648 6.2972448743251555 10.985782917285718 #
edge $-1 $445 1 $445 0 $248 $-1 forward 7 unknown #
vertex $-1 $249 $446 #
ellipse-curve $-1 72.721358421532031 0.833073098125233 4.0753667128810038 0.79863551827123203 0 0.60181501223851219 0.90272251835776829 0 -1.197953277406848 1 I I #
point $-1 77.445232728213696 0.833073098125233 5.7568577597552073 #
plane-surface $-1 79.580065309610276 0 0 -1 0 0 0 0 1 forward_v I I I I #
coedge $-1 $378 $255 $258 $371 reversed $161 $-1 #
edge $-1 $269 -10.985782917285738 $374 10.985782917285738 $268 $447 forward 7 unknown #
straight-curve $-1 79.580065309610276 -32.627656770391809 0 0 0 -1 I I #
edge $-1 $372 -32.627656770391809 $374 32.627656770391809 $368 $448 forward 7 unknown #
vertex $-1 $371 $449 #
straight-curve $-1 0 -32.627656770391809 -10.985782917285738 -1 0 0 I I #
vertex $-1 $261 $450 #
straight-curve $-1 0 32.627656770391809 -10.985782917285738 1 0 0 I I #
point $-1 79.580065309610276 32.627656770391809 -10.985782917285738 #
point $-1 79.580065309610276 -32.627656770391809 -10.985782917285738 #
coedge $-1 $265 $368 $271 $381 reversed $161 $-1 #
straight-curve $-1 -79.580065309610276 0 10.985782917285738 0 -1 0 I I #
point $-1 -79.580065309610276 32.627656770391809 10.985782917285738 #
edge $-1 $272 -10.985782917285738 $372 10.985782917285738 $378 $451 forward 7 unknown #
point $-1 -79.580065309610276 -32.627656770391809 10.985782917285738 #
straight-curve $-1 79.580065309610276 32.627656770391809 0 0 0 -1 I I #
plane-surface $-1 -79.580065309610276 0 0 1 0 0 0 0 -1 forward_v I I I I #
coedge $-1 $387 $396 $391 $452 forward $278 $-1 #
coedge $-1 $281 $280 $453 $454 forward $108 $-1 #
coedge $-1 $453 $385 $282 $388 reversed $278 $-1 #
edge $-1 $389 -79.580065309610276 $392 79.580065309610276 $387 $455 forward 7 unknown #
vertex $-1 $454 $456 #
straight-curve $-1 79.580065309610276 0 -10.985782917285738 0 -1 0 I I #
coedge $-1 $290 $284 $385 $452 reversed $291 $-1 #
vertex $-1 $285 $457 #
straight-curve $-1 -79.580065309610276 0 -10.985782917285738 0 1 0 I I #
point $-1 -79.580065309610276 -32.627656770391809 -10.985782917285738 #
point $-1 79.580065309610276 -32.627656770391809 -10.985782917285738 #
coedge $-1 $385 $453 $293 $397 reversed $278 $-1 #
edge $-1 $398 -79.580065309610276 $400 79.580065309610276 $396 $458 forward 7 unknown #
vertex $-1 $294 $459 #
straight-curve $-1 -79.580065309610276 -38.713134106547827 -7.9857829172857375 0 -1 0 I I #
vertex $-1 $295 $460 #
straight-curve $-1 79.580065309610276 -38.713134106547827 -7.9857829172857375 0 1 0 I I #
plane-surface $-1 79.580065309610276 0 0 -1 0 0 0 0 1 forward_v I I I I #
coedge $-1 $410 $301 $414 $461 reversed $196 $-1 #
coedge $-1 $301 $410 $302 $407 reversed $196 $-1 #
coedge $-1 $303 $313 $301 $406 reversed $314 $-1 #
edge $-1 $408 -1.5 $462 1.5 $405 $463 forward 7 unknown #
edge $-1 $408 -79.580065309610276 $412 79.580065309610276 $404 $464 forward 7 unknown #
vertex $-1 $304 $465 #
straight-curve $-1 79.580065309610276 38.713134106547827 -7.9857829172857375 0 1 0 I I #
coedge $-1 $404 $403 $305 $411 reversed $196 $-1 #
edge $-1 $412 -1.5 $415 1.5 $410 $466 forward 7 unknown #
vertex $-1 $407 $467 #
straight-curve $-1 -79.580065309610276 38.713134106547827 -7.9857829172857375 0 -1 0 I I #
coedge $-1 $418 $307 $403 $461 forward $299 $-1 #
vertex $-1 $461 $468 #
straight-curve $-1 -79.580065309610276 38.713134106547827 -10.985782917285738 0 1 0 I I #
point $-1 -79.580065309610276 32.627656770391809 -10.985782917285738 #
coedge $-1 $311 $414 $313 $420 forward $299 $-1 #
straight-curve $-1 0 32.627656770391809 -10.985782917285738 -1 0 0 I I #
edge $-1 $462 -44.798611442703844 $315 -32.627656770391809 $313 $469 forward 7 unknown #
point $-1 79.580065309610276 32.627656770391809 -10.985782917285738 #
edge $-1 $423 57.961713671451811 $426 67.479362298331665 $320 $470 forward 7 unknown #
vertex $-1 $334 $471 #
straight-curve $-1 -80.776796838304207 20.456702098079774 10.985782917285739 -1 0 0 I I #
edge $-1 $426 -12.53407270366899 $331 -3.3111860851525776 $330 $472 forward 7 unknown #
vertex $-1 $425 $473 #
straight-curve $-1 -79.580065309610276 20.456702098079774 1.4681342904058852 0.85716729658548041 0 0.51503808176128008 I I #
point $-1 -63.740038266455741 20.456702098079774 10.985782917285738 #
point $-1 -79.580065309610276 11.233815479563361 1.4681342904058852 #
straight-curve $-1 -79.580065309610276 0 10.985782917285738 0 -1 0 I I #
vertex $-1 $337 $474 #
point $-1 -69.84091526503461 13.868925941996622 5.1410110684212613 #
vertex $-1 $341 $475 #
point $-1 -69.84091526503461 17.821591635646513 5.1410110684212613 #
coedge $-1 $356 $355 $348 $436 forward $345 $-1 #
edge $-1 $437 101.92408134207726 $440 109.98602510232455 $435 $476 forward 7 unknown #
vertex $-1 $360 $477 #
straight-curve $-1 55.453021379159544 -4.6310986780746752 10.985782917285732 1 0 0 I I #
edge $-1 $440 -5.0476352271372953 $357 5.8807083252625354 $356 $478 forward 7 unknown #
vertex $-1 $439 $479 #
straight-curve $-1 -16.204890646879107 -4.6310986780746752 130.03477256223658 -0.60181501223851219 0 0.79863551827123203 I I #
point $-1 73.504955110101648 -4.6310986780746752 10.985782917285718 #
point $-1 79.580065309610276 6.2972448743251555 2.9238391570384437 #
straight-curve $-1 79.580065309610276 0 10.985782917285738 0 1 0 I I #
vertex $-1 $363 $480 #
point $-1 73.624080939889808 0.833073098125233 2.8774134354741561 #
straight-curve $-1 -79.580065309610276 32.627656770391809 0 0 0 -1 I I #
straight-curve $-1 -79.580065309610276 0 -10.985782917285738 0 1 0 I I #
point $-1 -79.580065309610276 -32.627656770391809 -10.985782917285738 #
point $-1 -79.580065309610276 32.627656770391809 -10.985782917285738 #
straight-curve $-1 -79.580065309610276 -32.627656770391809 0 0 0 -1 I I #
edge $-1 $398 -1.5 $392 1.5 $391 $481 forward 7 unknown #
coedge $-1 $396 $387 $386 $454 reversed $278 $-1 #
edge $-1 $400 -1.5 $389 1.5 $386 $482 forward 7 unknown #
straight-curve $-1 0 -44.798611442703844 -10.985782917285738 -1 0 0 I I #
point $-1 79.580065309610276 -44.798611442703844 -10.985782917285738 #
point $-1 -79.580065309610276 -44.798611442703844 -10.985782917285738 #
straight-curve $-1 0 -44.798611442703844 -7.9857829172857375 1 0 0 I I #
point $-1 -79.580065309610276 -44.798611442703844 -7.9857829172857375 #
point $-1 79.580065309610276 -44.798611442703844 -7.9857829172857375 #
edge $-1 $415 -79.580065309610276 $462 79.580065309610276 $403 $483 forward 7 unknown #
vertex $-1 $420 $484 #
straight-curve $-1 79.580065309610276 44.798611442703844 -9.4857829172857375 0 0 -1 I I #
straight-curve $-1 0 44.798611442703844 -7.9857829172857375 -1 0 0 I I #
point $-1 79.580065309610276 44.798611442703844 -7.9857829172857375 #
straight-curve $-1 -79.580065309610276 44.798611442703844 -9.4857829172857375 0 0 -1 I I #
point $-1 -79.580065309610276 44.798611442703844 -7.9857829172857375 #
point $-1 -79.580065309610276 44.798611442703844 -10.985782917285738 #
straight-curve $-1 79.580065309610276 0 -10.985782917285738 0 -1 0 I I #
straight-curve $-1 -79.580065309610276 20.456702098079774 68.94749658873755 0 0 -1 I I #
point $-1 -79.580065309610276 20.456702098079774 10.985782917285738 #
straight-curve $-1 -79.580065309610276 7.9226293944107837 1.4681342904058838 0 -1 0 I I #
point $-1 -79.580065309610276 20.456702098079774 1.4681342904058852 #
point $-1 -70.183044479858808 13.868925941996622 3.7688056900745011 #
point $-1 -70.183044479858808 17.821591635646513 3.7688056900745011 #
straight-curve $-1 79.580065309610276 -4.6310986780746752 112.90986425936299 0 0 -1 I I #
point $-1 79.580065309610276 -4.6310986780746752 10.985782917285738 #
straight-curve $-1 79.580065309610291 0.41653654906262005 2.9238391570384294 0 1 0 I I #
point $-1 79.580065309610276 -4.6310986780746752 2.9238391570384437 #
point $-1 71.523405144125192 0.833073098125233 3.1726441945232353 #
straight-curve $-1 -79.580065309610276 -44.798611442703844 -9.4857829172857375 0 0 -1 I I #
straight-curve $-1 79.580065309610276 -44.798611442703844 -9.4857829172857375 0 0 -1 I I #
straight-curve $-1 0 44.798611442703844 -10.985782917285738 1 0 0 I I #
point $-1 79.580065309610276 44.798611442703844 -10.985782917285738 #
End-of-ACIS-data 