500 0 7 0           
7 Unknown 11 ACIS 5.0 NT 24 Fri Mar 26 00:16:23 1999 
-1 9.9999999999999995e-007 1e-010 
body $-1 $7 $-1 $8 #
body $-1 $9 $-1 $10 #
body $-1 $11 $-1 $12 #
body $-1 $13 $-1 $14 #
body $-1 $15 $-1 $16 #
body $-1 $17 $-1 $18 #
body $-1 $19 $-1 $20 #
lump $-1 $-1 $21 $0 #
transform $-1 1 0 0 0 1 0 0 0 1 73.178502761925103 30.6221002371414 11.35934410786626 1 rotate no_reflect no_shear #
lump $-1 $-1 $22 $1 #
transform $-1 1 0 0 0 1 0 0 0 1 73.178502761925103 30.6221002371414 11.35934410786626 1 rotate no_reflect no_shear #
lump $-1 $-1 $23 $2 #
transform $-1 1 0 0 0 1 0 0 0 1 73.178502761925103 30.6221002371414 11.35934410786626 1 rotate no_reflect no_shear #
lump $-1 $-1 $24 $3 #
transform $-1 1 0 0 0 1 0 0 0 1 73.178502761925103 30.6221002371414 11.35934410786626 1 rotate no_reflect no_shear #
lump $-1 $-1 $25 $4 #
transform $-1 1 0 0 0 1 0 0 0 1 73.178502761925103 30.6221002371414 11.35934410786626 1 rotate no_reflect no_shear #
lump $-1 $-1 $26 $5 #
transform $-1 1 0 0 0 1 0 0 0 1 73.178502761925103 30.6221002371414 11.35934410786626 1 rotate no_reflect no_shear #
lump $-1 $-1 $27 $6 #
transform $-1 1 0 0 0 1 0 0 0 1 73.178502761925103 30.6221002371414 11.35934410786626 1 rotate no_reflect no_shear #
shell $-1 $-1 $-1 $28 $-1 $7 #
shell $-1 $-1 $-1 $29 $-1 $9 #
shell $-1 $-1 $-1 $30 $-1 $11 #
shell $-1 $-1 $-1 $31 $-1 $13 #
shell $-1 $-1 $-1 $32 $-1 $15 #
shell $-1 $-1 $-1 $33 $-1 $17 #
shell $-1 $-1 $-1 $34 $-1 $19 #
face $-1 $35 $36 $21 $-1 $37 forward single #
face $-1 $38 $39 $22 $-1 $40 reversed single #
face $-1 $41 $42 $23 $-1 $43 reversed single #
face $-1 $44 $45 $24 $-1 $46 reversed single #
face $-1 $47 $48 $25 $-1 $49 forward single #
face $-1 $50 $51 $26 $-1 $52 forward single #
face $-1 $53 $54 $27 $-1 $55 forward single #
face $-1 $56 $57 $21 $-1 $58 reversed single #
loop $-1 $-1 $59 $28 #
plane-surface $-1 0 0 11.35934410786626 0 0 1 1 0 0 forward_v I I I I #
face $-1 $60 $61 $22 $-1 $62 reversed single #
loop $-1 $-1 $63 $29 #
plane-surface $-1 -68.51562495368718 0 8.35934410786626 0 0 1 1 0 0 forward_v I I I I #
face $-1 $64 $65 $23 $-1 $66 reversed single #
loop $-1 $-1 $67 $30 #
plane-surface $-1 68.515624953687194 0 8.35934410786626 0 0 1 1 0 0 forward_v I I I I #
face $-1 $68 $69 $24 $-1 $70 reversed single #
loop $-1 $-1 $71 $31 #
plane-surface $-1 -34.918198356574493 -141.07913565179967 98.646004945389834 -1 0 0 0 -0.75470958851134928 0.65605901945558964 forward_v I I I I #
face $-1 $72 $73 $25 $-1 $74 forward single #
loop $-1 $75 $76 $32 #
cone-surface $-1 -58.065837387674307 -25.085384830594283 5.4795387723846947 0 0.75470958851134928 -0.65605901945558964 1.5 0 0 1 I I 0 1 1.5 forward I I I I #
face $-1 $77 $78 $26 $-1 $79 forward single #
loop $-1 $80 $81 $33 #
cone-surface $-1 -49.385472751011875 -25.085384830594283 5.4795387723846947 0 0.75470958851134928 -0.65605901945558964 1.5 0 0 1 I I 0 1 1.5 forward I I I I #
face $-1 $82 $83 $27 $-1 $84 forward single #
loop $-1 $85 $86 $34 #
cone-surface $-1 -40.705108114349443 -25.085384830594283 5.4795387723846947 0 0.75470958851134928 -0.65605901945558964 1.5 0 0 1 I I 0 1 1.5 forward I I I I #
face $-1 $87 $88 $21 $-1 $89 reversed single #
loop $-1 $-1 $90 $35 #
plane-surface $-1 0 0 -11.35934410786626 0 0 1 1 0 0 forward_v I I I I #
coedge $-1 $91 $92 $93 $94 forward $36 $-1 #
face $-1 $95 $96 $22 $-1 $97 reversed single #
loop $-1 $-1 $98 $38 #
plane-surface $-1 -63.852747145449257 0 9.85934410786626 -1 0 0 0 0 1 forward_v I I I I #
coedge $-1 $99 $100 $98 $101 forward $39 $-1 #
face $-1 $102 $103 $23 $-1 $104 forward single #
loop $-1 $-1 $105 $41 #
plane-surface $-1 63.852747145449271 0 9.85934410786626 1 0 0 0 0 -1 forward_v I I I I #
coedge $-1 $106 $107 $108 $109 reversed $42 $-1 #
face $-1 $110 $111 $24 $-1 $112 forward single #
loop $-1 $-1 $113 $44 #
plane-surface $-1 -49.385472751011875 -30.62210023714141 2.6271714109563504 0 -0.75470958851134928 0.65605901945558964 1 0 0 forward_v I I I I #
coedge $-1 $114 $115 $116 $117 reversed $45 $-1 #
face $-1 $-1 $118 $25 $-1 $119 forward single #
loop $-1 $120 $121 $47 #
cone-surface $-1 -58.065837387674307 -22.778018094692701 3.4737755207663916 0 0.75470958851134928 -0.65605901945558964 0.75 0 0 1 I I -0.70710678118654757 0.70710678118654757 0.75 forward I I I I #
loop $-1 $-1 $122 $32 #
coedge $-1 $76 $76 $123 $124 reversed $48 $-1 #
face $-1 $-1 $125 $26 $-1 $126 forward single #
loop $-1 $127 $128 $50 #
cone-surface $-1 -49.385472751011875 -22.778018094692701 3.4737755207663916 0 0.75470958851134928 -0.65605901945558964 0.75 0 0 1 I I -0.70710678118654757 0.70710678118654757 0.75 forward I I I I #
loop $-1 $-1 $129 $33 #
coedge $-1 $81 $81 $130 $131 reversed $51 $-1 #
face $-1 $-1 $132 $27 $-1 $133 forward single #
loop $-1 $134 $135 $53 #
cone-surface $-1 -40.705108114349443 -22.778018094692701 3.4737755207663916 0 0.75470958851134928 -0.65605901945558964 0.75 0 0 1 I I -0.70710678118654757 0.70710678118654757 0.75 forward I I I I #
loop $-1 $-1 $136 $34 #
coedge $-1 $86 $86 $137 $138 reversed $54 $-1 #
face $-1 $139 $140 $21 $-1 $141 reversed single #
loop $-1 $-1 $142 $56 #
plane-surface $-1 0 -30.6221002371414 0 0 1 0 0 0 1 forward_v I I I I #
coedge $-1 $143 $144 $145 $146 forward $57 $-1 #
coedge $-1 $147 $59 $148 $149 forward $36 $-1 #
coedge $-1 $59 $147 $150 $151 forward $36 $-1 #
coedge $-1 $152 $153 $59 $94 reversed $154 $-1 #
edge $-1 $155 -30.6221002371414 $156 30.6221002371414 $93 $157 forward 7 unknown #
face $-1 $158 $159 $22 $-1 $160 reversed single #
loop $-1 $-1 $161 $60 #
plane-surface $-1 0 30.6221002371414 0 0 -1 0 0 0 -1 forward_v I I I I #
coedge $-1 $162 $163 $63 $101 reversed $61 $-1 #
coedge $-1 $164 $63 $165 $166 reversed $39 $-1 #
coedge $-1 $63 $164 $167 $168 reversed $39 $-1 #
edge $-1 $169 -30.6221002371414 $170 30.6221002371414 $98 $171 forward 7 unknown #
face $-1 $172 $173 $23 $-1 $174 reversed single #
loop $-1 $-1 $175 $64 #
plane-surface $-1 0 0 11.35934410786626 0 0 1 1 0 0 forward_v I I I I #
coedge $-1 $176 $177 $178 $179 reversed $65 $-1 #
coedge $-1 $180 $67 $181 $182 reversed $42 $-1 #
coedge $-1 $67 $180 $183 $184 reversed $42 $-1 #
coedge $-1 $185 $186 $67 $109 forward $187 $-1 #
edge $-1 $188 -30.6221002371414 $189 30.6221002371414 $108 $190 forward 7 unknown #
face $-1 $191 $192 $24 $-1 $193 forward single #
loop $-1 $-1 $116 $68 #
plane-surface $-1 0 0 11.35934410786626 0 0 1 1 0 0 forward_v I I I I #
coedge $-1 $194 $195 $196 $197 reversed $69 $-1 #
coedge $-1 $115 $71 $198 $199 reversed $45 $-1 #
coedge $-1 $71 $114 $194 $200 reversed $45 $-1 #
coedge $-1 $196 $201 $71 $117 forward $111 $-1 #
edge $-1 $202 39.917467588758441 $203 47.508229312816525 $116 $204 forward 7 unknown #
loop $-1 $-1 $123 $72 #
plane-surface $-1 -49.385472751011875 -30.62210023714141 2.6271714109563504 0 -0.75470958851134928 0.65605901945558964 1 0 0 forward_v I I I I #
loop $-1 $-1 $205 $47 #
coedge $-1 $121 $121 $122 $206 reversed $73 $-1 #
coedge $-1 $122 $122 $121 $206 forward $75 $-1 #
coedge $-1 $123 $123 $76 $124 forward $118 $-1 #
edge $-1 $207 4.264527247342554e-016 $207 6.2831853071796004 $123 $208 forward 7 unknown #
loop $-1 $-1 $130 $77 #
plane-surface $-1 -49.385472751011875 -30.62210023714141 2.6271714109563504 0 -0.75470958851134928 0.65605901945558964 1 0 0 forward_v I I I I #
loop $-1 $-1 $209 $50 #
coedge $-1 $128 $128 $129 $210 reversed $78 $-1 #
coedge $-1 $129 $129 $128 $210 forward $80 $-1 #
coedge $-1 $130 $130 $81 $131 forward $125 $-1 #
edge $-1 $211 4.264527247342554e-016 $211 6.2831853071796004 $130 $212 forward 7 unknown #
loop $-1 $-1 $137 $82 #
plane-surface $-1 -49.385472751011875 -30.62210023714141 2.6271714109563504 0 -0.75470958851134928 0.65605901945558964 1 0 0 forward_v I I I I #
loop $-1 $-1 $213 $53 #
coedge $-1 $135 $135 $136 $214 reversed $83 $-1 #
coedge $-1 $136 $136 $135 $214 forward $85 $-1 #
coedge $-1 $137 $137 $86 $138 forward $132 $-1 #
edge $-1 $215 4.264527247342554e-016 $215 6.2831853071796004 $137 $216 forward 7 unknown #
face $-1 $217 $218 $21 $-1 $219 reversed single #
loop $-1 $-1 $220 $87 #
plane-surface $-1 -73.178502761925103 0 0 1 0 0 0 0 -1 forward_v I I I I #
coedge $-1 $221 $150 $222 $223 forward $88 $-1 #
coedge $-1 $224 $90 $221 $225 forward $57 $-1 #
coedge $-1 $90 $224 $226 $227 forward $57 $-1 #
coedge $-1 $153 $152 $90 $146 reversed $154 $-1 #
edge $-1 $228 -30.6221002371414 $229 30.6221002371414 $145 $230 forward 7 unknown #
coedge $-1 $92 $91 $231 $232 forward $36 $-1 #
coedge $-1 $233 $234 $91 $149 reversed $218 $-1 #
edge $-1 $156 -73.178502761925103 $235 73.178502761925103 $148 $236 forward 7 unknown #
coedge $-1 $142 $237 $92 $151 reversed $88 $-1 #
edge $-1 $238 -73.178502761925103 $155 73.178502761925103 $150 $239 forward 7 unknown #
coedge $-1 $145 $93 $237 $240 forward $154 $-1 #
coedge $-1 $93 $145 $233 $241 reversed $154 $-1 #
loop $-1 $-1 $152 $217 #
vertex $-1 $94 $242 #
vertex $-1 $94 $243 #
straight-curve $-1 73.178502761925103 0 11.35934410786626 0 1 0 I I #
face $-1 $244 $245 $22 $-1 $246 forward single #
loop $-1 $-1 $247 $95 #
plane-surface $-1 -73.178502761925103 0 0 1 0 0 0 0 -1 forward_v I I I I #
coedge $-1 $167 $248 $162 $249 forward $96 $-1 #
coedge $-1 $250 $98 $161 $249 reversed $61 $-1 #
coedge $-1 $98 $250 $251 $252 reversed $61 $-1 #
coedge $-1 $100 $99 $247 $253 reversed $39 $-1 #
coedge $-1 $251 $254 $99 $166 forward $255 $-1 #
edge $-1 $256 -38.920690285081513 $170 -29.594934668605667 $165 $257 forward 7 unknown #
coedge $-1 $258 $161 $100 $168 forward $96 $-1 #
edge $-1 $169 29.594934668605667 $259 38.920690285081513 $167 $260 forward 7 unknown #
vertex $-1 $168 $261 #
vertex $-1 $166 $262 #
straight-curve $-1 -63.852747145449257 0 8.35934410786626 0 -1 0 I I #
face $-1 $263 $264 $23 $-1 $265 reversed single #
loop $-1 $-1 $266 $102 #
plane-surface $-1 0 -30.6221002371414 0 0 1 0 0 0 1 forward_v I I I I #
coedge $-1 $267 $268 $177 $269 forward $103 $-1 #
coedge $-1 $270 $105 $180 $271 reversed $65 $-1 #
coedge $-1 $105 $270 $175 $269 reversed $65 $-1 #
coedge $-1 $272 $183 $105 $179 forward $264 $-1 #
edge $-1 $273 3.42967205393313 $274 6.42967205393313 $178 $275 forward 7 unknown #
coedge $-1 $107 $106 $176 $271 forward $42 $-1 #
coedge $-1 $276 $266 $106 $182 forward $173 $-1 #
edge $-1 $277 29.594934668605674 $188 38.92069028508152 $181 $278 forward 7 unknown #
coedge $-1 $178 $279 $107 $184 forward $264 $-1 #
edge $-1 $189 -38.92069028508152 $273 -29.594934668605674 $183 $280 forward 7 unknown #
coedge $-1 $281 $108 $279 $282 reversed $187 $-1 #
coedge $-1 $108 $281 $276 $283 forward $187 $-1 #
loop $-1 $-1 $108 $263 #
vertex $-1 $182 $284 #
vertex $-1 $109 $285 #
straight-curve $-1 73.178502761925103 0 8.35934410786626 0 1 0 I I #
face $-1 $-1 $286 $24 $-1 $287 reversed single #
loop $-1 $-1 $288 $110 #
plane-surface $-1 -63.852747145449257 0 9.85934410786626 -1 0 0 0 0 1 forward_v I I I I #
coedge $-1 $289 $113 $115 $200 forward $69 $-1 #
coedge $-1 $113 $289 $288 $290 forward $69 $-1 #
coedge $-1 $291 $116 $113 $197 forward $111 $-1 #
edge $-1 $203 10.225461981068555 $292 39.16001076994332 $196 $293 forward 7 unknown #
coedge $-1 $294 $295 $114 $199 forward $286 $-1 #
edge $-1 $296 -46.695831061738552 $202 -37.96365836482866 $198 $297 forward 7 unknown #
edge $-1 $203 -11.570242156501498 $296 -1.6376804332752545e-014 $115 $298 forward 7 unknown #
coedge $-1 $116 $291 $294 $299 forward $111 $-1 #
vertex $-1 $199 $300 #
vertex $-1 $117 $301 #
straight-curve $-1 -34.918198356574493 -70.539567825899837 11.359344107866256 0 1 0 I I #
coedge $-1 $205 $205 $-1 $302 reversed $120 $-1 #
edge $-1 $303 0 $303 6.2831853071796004 $121 $304 forward 7 unknown #
vertex $-1 $124 $305 #
ellipse-curve $-1 -58.065837387674307 -26.826719375112358 6.9932577594113106 0 -0.75470958851134928 0.65605901945558964 1.5 0 0 1 I I #
coedge $-1 $209 $209 $-1 $306 reversed $127 $-1 #
edge $-1 $307 0 $307 6.2831853071796004 $128 $308 forward 7 unknown #
vertex $-1 $131 $309 #
ellipse-curve $-1 -49.385472751011875 -26.826719375112358 6.9932577594113106 0 -0.75470958851134928 0.65605901945558964 1.5 0 0 1 I I #
coedge $-1 $213 $213 $-1 $310 reversed $134 $-1 #
edge $-1 $311 0 $311 6.2831853071796004 $135 $312 forward 7 unknown #
vertex $-1 $138 $313 #
ellipse-curve $-1 -40.705108114349443 -26.826719375112358 6.9932577594113106 0 -0.75470958851134928 0.65605901945558964 1.5 0 0 1 I I #
face $-1 $-1 $154 $21 $-1 $314 reversed single #
loop $-1 $-1 $233 $139 #
plane-surface $-1 0 30.6221002371414 0 0 -1 0 0 0 -1 forward_v I I I I #
coedge $-1 $315 $231 $234 $316 forward $140 $-1 #
coedge $-1 $237 $142 $143 $225 reversed $88 $-1 #
coedge $-1 $231 $315 $142 $223 reversed $140 $-1 #
edge $-1 $238 -11.35934410786626 $317 11.35934410786626 $222 $318 forward 7 unknown #
coedge $-1 $144 $143 $315 $319 forward $57 $-1 #
edge $-1 $229 -73.178502761925103 $317 73.178502761925103 $221 $320 forward 7 unknown #
coedge $-1 $234 $233 $144 $227 reversed $218 $-1 #
edge $-1 $321 -73.178502761925103 $228 73.178502761925103 $226 $322 forward 7 unknown #
vertex $-1 $146 $323 #
vertex $-1 $240 $324 #
straight-curve $-1 73.178502761925103 0 -11.35934410786626 0 -1 0 I I #
coedge $-1 $220 $222 $147 $232 reversed $140 $-1 #
edge $-1 $235 -30.6221002371414 $238 30.6221002371414 $231 $325 forward 7 unknown #
coedge $-1 $226 $148 $153 $241 forward $218 $-1 #
coedge $-1 $148 $226 $220 $316 reversed $218 $-1 #
vertex $-1 $149 $326 #
straight-curve $-1 0 30.6221002371414 11.35934410786626 -1 0 0 I I #
coedge $-1 $150 $221 $152 $240 reversed $88 $-1 #
vertex $-1 $232 $327 #
straight-curve $-1 0 -30.6221002371414 11.35934410786626 1 0 0 I I #
edge $-1 $155 -11.35934410786626 $229 11.35934410786626 $152 $328 forward 7 unknown #
edge $-1 $156 -11.35934410786626 $228 11.35934410786626 $153 $329 forward 7 unknown #
point $-1 73.178502761925103 -30.6221002371414 11.35934410786626 #
point $-1 73.178502761925103 30.6221002371414 11.35934410786626 #
face $-1 $-1 $255 $22 $-1 $330 reversed single #
loop $-1 $-1 $331 $158 #
plane-surface $-1 0 0 11.35934410786626 0 0 1 1 0 0 forward_v I I I I #
coedge $-1 $332 $333 $164 $253 forward $159 $-1 #
coedge $-1 $161 $258 $334 $335 reversed $96 $-1 #
edge $-1 $336 -6.42967205393313 $169 -3.42967205393313 $161 $337 forward 7 unknown #
coedge $-1 $163 $162 $331 $338 reversed $61 $-1 #
coedge $-1 $339 $165 $163 $252 forward $255 $-1 #
edge $-1 $170 3.42967205393313 $340 6.42967205393313 $251 $341 forward 7 unknown #
edge $-1 $259 -30.6221002371414 $256 30.6221002371414 $247 $342 forward 7 unknown #
coedge $-1 $165 $339 $332 $343 forward $255 $-1 #
loop $-1 $-1 $251 $244 #
vertex $-1 $253 $344 #
straight-curve $-1 -34.25781247684359 -30.6221002371414 8.35934410786626 1 0 0 I I #
coedge $-1 $248 $167 $333 $345 reversed $96 $-1 #
vertex $-1 $253 $346 #
straight-curve $-1 -34.25781247684359 30.6221002371414 8.35934410786626 -1 0 0 I I #
point $-1 -63.852747145449257 30.6221002371414 8.35934410786626 #
point $-1 -63.852747145449257 -30.6221002371414 8.35934410786626 #
face $-1 $-1 $187 $23 $-1 $347 reversed single #
loop $-1 $-1 $178 $172 #
plane-surface $-1 0 30.6221002371414 0 0 -1 0 0 0 -1 forward_v I I I I #
coedge $-1 $181 $348 $270 $349 forward $173 $-1 #
coedge $-1 $350 $175 $348 $351 forward $103 $-1 #
coedge $-1 $175 $350 $272 $352 forward $103 $-1 #
edge $-1 $274 -30.6221002371414 $353 30.6221002371414 $175 $354 forward 7 unknown #
coedge $-1 $177 $176 $266 $349 reversed $65 $-1 #
edge $-1 $277 -30.6221002371414 $273 30.6221002371414 $176 $355 forward 7 unknown #
coedge $-1 $279 $178 $268 $352 reversed $264 $-1 #
vertex $-1 $184 $356 #
vertex $-1 $179 $357 #
straight-curve $-1 63.852747145449271 30.6221002371414 4.92967205393313 0 0 1 I I #
coedge $-1 $348 $181 $186 $283 reversed $173 $-1 #
vertex $-1 $182 $358 #
straight-curve $-1 34.257812476843597 -30.6221002371414 8.35934410786626 1 0 0 I I #
coedge $-1 $183 $272 $185 $282 forward $264 $-1 #
straight-curve $-1 34.257812476843597 30.6221002371414 8.35934410786626 -1 0 0 I I #
coedge $-1 $186 $185 $350 $359 reversed $187 $-1 #
edge $-1 $360 -11.35934410786626 $189 -8.35934410786626 $185 $361 forward 7 unknown #
edge $-1 $362 -11.35934410786626 $188 -8.35934410786626 $186 $363 forward 7 unknown #
point $-1 73.178502761925117 -30.6221002371414 8.35934410786626 #
point $-1 73.178502761925117 30.6221002371414 8.35934410786626 #
loop $-1 $-1 $198 $191 #
plane-surface $-1 0 -30.6221002371414 0 0 1 0 0 0 1 forward_v I I I I #
coedge $-1 $364 $365 $195 $290 reversed $192 $-1 #
coedge $-1 $195 $194 $295 $366 reversed $69 $-1 #
edge $-1 $367 1.6376804332752545e-014 $292 11.570242156501498 $288 $368 forward 7 unknown #
coedge $-1 $201 $196 $365 $369 forward $111 $-1 #
vertex $-1 $369 $370 #
straight-curve $-1 -24.692736375505937 -23.031338513083309 11.35934410786626 -1 0 0 I I #
coedge $-1 $371 $198 $201 $299 reversed $286 $-1 #
coedge $-1 $198 $371 $289 $366 forward $286 $-1 #
vertex $-1 $199 $372 #
straight-curve $-1 -34.918198356574493 -30.622100237141396 49.323002472694917 0 0 1 I I #
straight-curve $-1 -34.918198356574493 -30.62210023714141 2.6271714109563504 0 -0.65605901945558964 -0.75470958851134928 I I #
edge $-1 $373 -63.852747145449257 $202 -34.918198356574493 $294 $374 forward 7 unknown #
point $-1 -34.918198356574493 -30.6221002371414 11.35934410786626 #
point $-1 -34.918198356574493 -23.031338513083313 11.35934410786626 #
edge $-1 $375 1 $375 0 $205 $-1 forward 7 unknown #
vertex $-1 $206 $376 #
ellipse-curve $-1 -58.065837387674307 -23.344050286076214 3.9658197853580841 0 -0.75470958851134928 0.65605901945558964 1.5 0 0 1 I I #
point $-1 -56.565837387674307 -26.826719375112351 6.9932577594113052 #
edge $-1 $377 1 $377 0 $209 $-1 forward 7 unknown #
vertex $-1 $210 $378 #
ellipse-curve $-1 -49.385472751011875 -23.344050286076214 3.9658197853580841 0 -0.75470958851134928 0.65605901945558964 1.5 0 0 1 I I #
point $-1 -47.885472751011875 -26.826719375112351 6.9932577594113052 #
edge $-1 $379 1 $379 0 $213 $-1 forward 7 unknown #
vertex $-1 $214 $380 #
ellipse-curve $-1 -40.705108114349443 -23.344050286076214 3.9658197853580841 0 -0.75470958851134928 0.65605901945558964 1.5 0 0 1 I I #
point $-1 -39.205108114349443 -26.826719375112351 6.9932577594113052 #
plane-surface $-1 73.178502761925103 0 0 -1 0 0 0 0 1 forward_v I I I I #
coedge $-1 $222 $220 $224 $319 reversed $140 $-1 #
edge $-1 $235 -11.35934410786626 $321 11.35934410786626 $234 $381 forward 7 unknown #
vertex $-1 $319 $382 #
straight-curve $-1 -73.178502761925103 -30.6221002371414 0 0 0 -1 I I #
edge $-1 $317 -30.6221002371414 $321 30.6221002371414 $315 $383 forward 7 unknown #
straight-curve $-1 0 -30.6221002371414 -11.35934410786626 -1 0 0 I I #
vertex $-1 $227 $384 #
straight-curve $-1 0 30.6221002371414 -11.35934410786626 1 0 0 I I #
point $-1 73.178502761925103 30.6221002371414 -11.35934410786626 #
point $-1 73.178502761925103 -30.6221002371414 -11.35934410786626 #
straight-curve $-1 -73.178502761925103 0 11.35934410786626 0 -1 0 I I #
point $-1 -73.178502761925103 30.6221002371414 11.35934410786626 #
point $-1 -73.178502761925103 -30.6221002371414 11.35934410786626 #
straight-curve $-1 73.178502761925103 -30.6221002371414 0 0 0 -1 I I #
straight-curve $-1 73.178502761925103 30.6221002371414 0 0 0 -1 I I #
plane-surface $-1 0 -30.6221002371414 0 0 1 0 0 0 1 forward_v I I I I #
coedge $-1 $334 $385 $250 $338 forward $245 $-1 #
coedge $-1 $386 $247 $254 $343 reversed $159 $-1 #
coedge $-1 $247 $386 $258 $345 forward $159 $-1 #
coedge $-1 $387 $331 $248 $335 forward $245 $-1 #
edge $-1 $336 63.852747145449257 $388 73.178502761925103 $248 $389 forward 7 unknown #
vertex $-1 $335 $390 #
straight-curve $-1 -63.852747145449257 30.6221002371414 4.92967205393313 0 0 -1 I I #
edge $-1 $340 -30.6221002371414 $336 30.6221002371414 $331 $391 forward 7 unknown #
coedge $-1 $254 $251 $385 $392 reversed $255 $-1 #
vertex $-1 $252 $393 #
straight-curve $-1 -63.852747145449257 -30.6221002371414 4.92967205393313 0 0 1 I I #
straight-curve $-1 -73.178502761925103 0 8.35934410786626 0 -1 0 I I #
edge $-1 $394 -11.35934410786626 $256 -8.35934410786626 $332 $395 forward 7 unknown #
point $-1 -73.178502761925103 -30.6221002371414 8.35934410786626 #
edge $-1 $388 -11.35934410786626 $259 -8.35934410786626 $258 $396 forward 7 unknown #
point $-1 -73.178502761925103 30.6221002371414 8.35934410786626 #
plane-surface $-1 73.178502761925103 0 0 -1 0 0 0 0 1 forward_v I I I I #
coedge $-1 $266 $276 $267 $351 reversed $173 $-1 #
edge $-1 $353 -6.42967205393313 $277 -3.42967205393313 $266 $397 forward 7 unknown #
coedge $-1 $268 $267 $281 $359 forward $103 $-1 #
edge $-1 $353 63.852747145449271 $362 73.178502761925103 $348 $398 forward 7 unknown #
edge $-1 $360 -73.178502761925103 $274 -63.852747145449271 $272 $399 forward 7 unknown #
vertex $-1 $351 $400 #
straight-curve $-1 63.852747145449271 0 11.35934410786626 0 -1 0 I I #
straight-curve $-1 63.852747145449271 0 8.35934410786626 0 1 0 I I #
point $-1 63.852747145449271 30.6221002371414 8.35934410786626 #
point $-1 63.852747145449271 30.6221002371414 11.35934410786626 #
point $-1 63.852747145449271 -30.6221002371414 8.35934410786626 #
edge $-1 $362 -30.6221002371414 $360 30.6221002371414 $281 $401 forward 7 unknown #
vertex $-1 $359 $402 #
straight-curve $-1 73.178502761925103 30.6221002371414 0 0 0 -1 I I #
vertex $-1 $359 $403 #
straight-curve $-1 73.178502761925103 -30.6221002371414 0 0 0 -1 I I #
coedge $-1 $365 $288 $371 $404 reversed $192 $-1 #
coedge $-1 $288 $364 $291 $369 reversed $192 $-1 #
edge $-1 $367 -39.16001076994332 $296 -10.225461981068555 $295 $405 forward 7 unknown #
vertex $-1 $404 $406 #
straight-curve $-1 -63.852747145449257 -30.62210023714141 2.6271714109563504 0 0.65605901945558964 0.75470958851134928 I I #
edge $-1 $292 23.031338513083313 $373 30.6221002371414 $291 $407 forward 7 unknown #
point $-1 -63.852747145449257 -23.031338513083313 11.35934410786626 #
coedge $-1 $295 $294 $364 $404 forward $286 $-1 #
point $-1 -34.918198356574493 -30.6221002371414 2.6271714109563629 #
vertex $-1 $299 $408 #
straight-curve $-1 0 -30.6221002371414 11.35934410786626 1 0 0 I I #
vertex $-1 $302 $409 #
point $-1 -56.565837387674307 -23.344050286076214 3.9658197853580841 #
vertex $-1 $306 $410 #
point $-1 -47.885472751011875 -23.344050286076214 3.9658197853580841 #
vertex $-1 $310 $411 #
point $-1 -39.205108114349443 -23.344050286076214 3.9658197853580841 #
straight-curve $-1 -73.178502761925103 30.6221002371414 0 0 0 -1 I I #
point $-1 -73.178502761925103 -30.6221002371414 -11.35934410786626 #
straight-curve $-1 -73.178502761925103 0 -11.35934410786626 0 1 0 I I #
point $-1 -73.178502761925103 30.6221002371414 -11.35934410786626 #
coedge $-1 $331 $387 $339 $392 forward $245 $-1 #
coedge $-1 $333 $332 $387 $412 reversed $159 $-1 #
coedge $-1 $385 $334 $386 $412 forward $245 $-1 #
vertex $-1 $335 $413 #
straight-curve $-1 0 30.6221002371414 11.35934410786626 -1 0 0 I I #
point $-1 -63.852747145449257 30.6221002371414 11.35934410786626 #
straight-curve $-1 -63.852747145449257 0 11.35934410786626 0 1 0 I I #
edge $-1 $394 -73.178502761925103 $340 -63.852747145449257 $339 $414 forward 7 unknown #
point $-1 -63.852747145449257 -30.6221002371414 11.35934410786626 #
vertex $-1 $412 $415 #
straight-curve $-1 -73.178502761925103 -30.6221002371414 0 0 0 -1 I I #
straight-curve $-1 -73.178502761925103 30.6221002371414 0 0 0 -1 I I #
straight-curve $-1 63.852747145449271 -30.6221002371414 4.92967205393313 0 0 -1 I I #
straight-curve $-1 0 -30.6221002371414 11.35934410786626 1 0 0 I I #
straight-curve $-1 0 30.6221002371414 11.35934410786626 -1 0 0 I I #
point $-1 63.852747145449271 -30.6221002371414 11.35934410786626 #
straight-curve $-1 73.178502761925103 0 11.35934410786626 0 1 0 I I #
point $-1 73.178502761925103 30.6221002371414 11.35934410786626 #
point $-1 73.178502761925103 -30.6221002371414 11.35934410786626 #
edge $-1 $373 37.96365836482866 $367 46.695831061738552 $371 $416 forward 7 unknown #
straight-curve $-1 -24.692736375505937 -30.6221002371414 2.6271714109563593 1 0 0 I I #
point $-1 -63.852747145449257 -30.6221002371414 2.6271714109563629 #
straight-curve $-1 -63.852747145449257 0 11.35934410786626 0 -1 0 I I #
point $-1 -63.852747145449257 -30.6221002371414 11.35934410786626 #
point $-1 -58.065837387674307 -22.211985903309188 2.9817312561746991 #
point $-1 -49.385472751011875 -22.211985903309188 2.9817312561746991 #
point $-1 -40.705108114349443 -22.211985903309188 2.9817312561746991 #
edge $-1 $388 -30.6221002371414 $394 30.6221002371414 $386 $417 forward 7 unknown #
point $-1 -73.178502761925103 30.6221002371414 11.35934410786626 #
straight-curve $-1 0 -30.6221002371414 11.35934410786626 1 0 0 I I #
point $-1 -73.178502761925103 -30.6221002371414 11.35934410786626 #
straight-curve $-1 -63.852747145449257 -30.622100237141396 49.323002472694917 0 0 -1 I I #
straight-curve $-1 -73.178502761925103 0 11.35934410786626 0 -1 0 I I #
End-of-ACIS-data 