500 0 10 0           
7 Unknown 11 ACIS 5.0 NT 24 Thu Mar 25 17:41:12 1999 
-1 9.9999999999999995e-007 1e-010 
body $-1 $10 $-1 $11 #
body $-1 $12 $-1 $13 #
body $-1 $14 $-1 $15 #
body $-1 $16 $-1 $17 #
body $-1 $18 $-1 $19 #
body $-1 $20 $-1 $21 #
body $-1 $22 $-1 $23 #
body $-1 $24 $-1 $25 #
body $-1 $26 $-1 $27 #
body $-1 $28 $-1 $29 #
lump $-1 $-1 $30 $0 #
transform $-1 1 0 0 0 1 0 0 0 1 44.428846095156715 20.274398236245304 7.7894353110115588 1 rotate no_reflect no_shear #
lump $-1 $-1 $31 $1 #
transform $-1 1 0 0 0 1 0 0 0 1 44.428846095156715 20.274398236245304 7.7894353110115588 1 rotate no_reflect no_shear #
lump $-1 $-1 $32 $2 #
transform $-1 1 0 0 0 1 0 0 0 1 44.428846095156715 20.274398236245304 7.7894353110115588 1 rotate no_reflect no_shear #
lump $-1 $-1 $33 $3 #
transform $-1 1 0 0 0 1 0 0 0 1 44.428846095156715 20.274398236245304 7.7894353110115588 1 rotate no_reflect no_shear #
lump $-1 $-1 $34 $4 #
transform $-1 1 0 0 0 1 0 0 0 1 44.428846095156715 20.274398236245304 7.7894353110115588 1 rotate no_reflect no_shear #
lump $-1 $-1 $35 $5 #
transform $-1 1 0 0 0 1 0 0 0 1 44.428846095156715 20.274398236245304 7.7894353110115588 1 rotate no_reflect no_shear #
lump $-1 $-1 $36 $6 #
transform $-1 1 0 0 0 1 0 0 0 1 44.428846095156715 20.274398236245304 7.7894353110115588 1 rotate no_reflect no_shear #
lump $-1 $-1 $37 $7 #
transform $-1 1 0 0 0 1 0 0 0 1 44.428846095156715 20.274398236245304 7.7894353110115588 1 rotate no_reflect no_shear #
lump $-1 $-1 $38 $8 #
transform $-1 1 0 0 0 1 0 0 0 1 44.428846095156715 20.274398236245304 7.7894353110115588 1 rotate no_reflect no_shear #
lump $-1 $-1 $39 $9 #
transform $-1 1 0 0 0 1 0 0 0 1 44.428846095156715 20.274398236245304 7.7894353110115588 1 rotate no_reflect no_shear #
shell $-1 $-1 $-1 $40 $-1 $10 #
shell $-1 $-1 $-1 $41 $-1 $12 #
shell $-1 $-1 $-1 $42 $-1 $14 #
shell $-1 $-1 $-1 $43 $-1 $16 #
shell $-1 $-1 $-1 $44 $-1 $18 #
shell $-1 $-1 $-1 $45 $-1 $20 #
shell $-1 $-1 $-1 $46 $-1 $22 #
shell $-1 $-1 $-1 $47 $-1 $24 #
shell $-1 $-1 $-1 $48 $-1 $26 #
shell $-1 $-1 $-1 $49 $-1 $28 #
face $-1 $50 $51 $30 $-1 $52 forward single #
face $-1 $53 $54 $31 $-1 $55 forward single #
face $-1 $56 $57 $32 $-1 $58 forward single #
face $-1 $59 $60 $33 $-1 $61 reversed single #
face $-1 $62 $63 $34 $-1 $64 forward single #
face $-1 $65 $66 $35 $-1 $67 forward single #
face $-1 $68 $69 $36 $-1 $70 reversed single #
face $-1 $71 $72 $37 $-1 $73 forward single #
face $-1 $74 $75 $38 $-1 $76 forward single #
face $-1 $77 $78 $39 $-1 $79 forward single #
face $-1 $80 $81 $30 $-1 $82 reversed single #
loop $-1 $-1 $83 $40 #
plane-surface $-1 0 0 7.7894353110115588 0 0 1 1 0 0 forward_v I I I I #
face $-1 $84 $85 $31 $-1 $86 reversed single #
loop $-1 $-1 $87 $41 #
plane-surface $-1 -39.60333763234928 0 -3.5844096790485906 0 0 1 1 0 0 forward_v I I I I #
face $-1 $88 $89 $32 $-1 $90 reversed single #
loop $-1 $-1 $91 $42 #
plane-surface $-1 39.60333763234928 0 -3.5844096790485906 0 0 1 1 0 0 forward_v I I I I #
face $-1 $92 $93 $33 $-1 $94 reversed single #
loop $-1 $-1 $95 $43 #
plane-surface $-1 -15.059531312625367 31.282391319558968 100.59754132995603 -1 0 0 0 0.51503808176128008 0.85716729658548041 forward_v I I I I #
face $-1 $96 $97 $34 $-1 $98 forward single #
loop $-1 $99 $100 $44 #
cone-surface $-1 -29.144029781851422 15.004744451063504 2.7730388204325238 0 -0.51503808176128008 -0.85716729658548041 2 0 0 1 I I 0 1 2 forward I I I I #
face $-1 $101 $102 $35 $-1 $103 forward single #
loop $-1 $104 $105 $45 #
cone-surface $-1 -20.693330700315791 15.004744451063504 2.7730388204325238 0 -0.51503808176128008 -0.85716729658548041 2 0 0 1 I I 0 1 2 forward I I I I #
face $-1 $106 $107 $36 $-1 $108 reversed single #
loop $-1 $-1 $109 $46 #
plane-surface $-1 -34.777829169541846 -86.308533127187872 59.600936068950276 1 0 0 0 0.74314483375859142 -0.66913059716165679 forward_v I I I I #
face $-1 $110 $111 $37 $-1 $112 forward single #
loop $-1 $113 $114 $47 #
cone-surface $-1 -30.701456204825028 -14.999210581478216 2.3160554657158601 0 0.74314483375859142 -0.66913059716165679 1.5 0 0 1 I I 0 1 1.5 forward I I I I #
face $-1 $115 $116 $38 $-1 $117 forward single #
loop $-1 $118 $119 $48 #
cone-surface $-1 -24.586896757749802 -14.999210581478216 2.3160554657158601 0 0.74314483375859142 -0.66913059716165679 1.5 0 0 1 I I 0 1 1.5 forward I I I I #
face $-1 $120 $121 $39 $-1 $122 forward single #
loop $-1 $123 $124 $49 #
cone-surface $-1 -18.472337310674575 -14.999210581478216 2.3160554657158601 0 0.74314483375859142 -0.66913059716165679 1.5 0 0 1 I I 0 1 1.5 forward I I I I #
face $-1 $125 $126 $30 $-1 $127 reversed single #
loop $-1 $-1 $128 $50 #
plane-surface $-1 0 0 -7.7894353110115588 0 0 1 1 0 0 forward_v I I I I #
coedge $-1 $129 $130 $131 $132 forward $51 $-1 #
face $-1 $133 $134 $31 $-1 $135 reversed single #
loop $-1 $-1 $136 $53 #
plane-surface $-1 -39.60333763234928 0 -6.5844096790485906 0 0 1 1 0 0 forward_v I I I I #
coedge $-1 $137 $138 $139 $140 forward $54 $-1 #
face $-1 $141 $142 $32 $-1 $143 reversed single #
loop $-1 $-1 $144 $56 #
plane-surface $-1 39.60333763234928 0 -6.5844096790485906 0 0 1 1 0 0 forward_v I I I I #
coedge $-1 $145 $146 $147 $148 reversed $57 $-1 #
face $-1 $149 $150 $33 $-1 $151 reversed single #
loop $-1 $-1 $152 $59 #
plane-surface $-1 -24.918680241083607 -14.48270401587434 24.431633534360316 0 0.51503808176128008 0.85716729658548041 1 0 0 forward_v I I I I #
coedge $-1 $153 $154 $155 $156 reversed $60 $-1 #
face $-1 $-1 $157 $34 $-1 $158 forward single #
loop $-1 $159 $160 $62 #
cone-surface $-1 -29.144029781851422 12.749969438744536 -0.97953690194630738 0 -0.51503808176128008 -0.85716729658548041 1 0 0 1 I I -0.70710678118654746 0.70710678118654746 1 forward I I I I #
loop $-1 $-1 $161 $44 #
coedge $-1 $100 $100 $162 $163 reversed $63 $-1 #
face $-1 $-1 $164 $35 $-1 $165 forward single #
loop $-1 $166 $167 $65 #
cone-surface $-1 -20.693330700315791 12.749969438744536 -0.97953690194630738 0 -0.51503808176128008 -0.85716729658548041 1 0 0 1 I I -0.70710678118654746 0.70710678118654746 1 forward I I I I #
loop $-1 $-1 $168 $45 #
coedge $-1 $105 $105 $169 $170 reversed $66 $-1 #
face $-1 $171 $172 $36 $-1 $173 reversed single #
loop $-1 $-1 $174 $68 #
plane-surface $-1 -24.586896757749802 -20.274398236245318 0.14353543123916523 0 -0.74314483375859142 0.66913059716165679 1 0 0 forward_v I I I I #
coedge $-1 $175 $176 $177 $178 reversed $69 $-1 #
face $-1 $-1 $179 $37 $-1 $180 forward single #
loop $-1 $181 $182 $71 #
cone-surface $-1 -30.701456204825028 -12.608863802742889 0.1637776124351209 0 0.74314483375859142 -0.66913059716165679 0.75 0 0 1 I I -0.70710678118654757 0.70710678118654757 0.75 forward I I I I #
loop $-1 $-1 $183 $47 #
coedge $-1 $114 $114 $184 $185 reversed $72 $-1 #
face $-1 $-1 $186 $38 $-1 $187 forward single #
loop $-1 $188 $189 $74 #
cone-surface $-1 -24.586896757749802 -12.608863802742889 0.1637776124351209 0 0.74314483375859142 -0.66913059716165679 0.75 0 0 1 I I -0.70710678118654757 0.70710678118654757 0.75 forward I I I I #
loop $-1 $-1 $190 $48 #
coedge $-1 $119 $119 $191 $192 reversed $75 $-1 #
face $-1 $-1 $193 $39 $-1 $194 forward single #
loop $-1 $195 $196 $77 #
cone-surface $-1 -18.472337310674575 -12.608863802742889 0.1637776124351209 0 0.74314483375859142 -0.66913059716165679 0.75 0 0 1 I I -0.70710678118654757 0.70710678118654757 0.75 forward I I I I #
loop $-1 $-1 $197 $49 #
coedge $-1 $124 $124 $198 $199 reversed $78 $-1 #
face $-1 $200 $201 $30 $-1 $202 reversed single #
loop $-1 $-1 $203 $80 #
plane-surface $-1 0 -20.274398236245304 0 0 1 0 0 0 1 forward_v I I I I #
coedge $-1 $204 $205 $206 $207 forward $81 $-1 #
coedge $-1 $208 $83 $209 $210 forward $51 $-1 #
coedge $-1 $83 $208 $211 $212 forward $51 $-1 #
coedge $-1 $213 $214 $83 $132 reversed $215 $-1 #
edge $-1 $216 -20.274398236245304 $217 20.274398236245304 $131 $218 forward 7 unknown #
face $-1 $219 $220 $31 $-1 $221 reversed single #
loop $-1 $-1 $222 $84 #
plane-surface $-1 -34.777829169541846 0 -5.0844096790485906 -1 0 0 0 0 1 forward_v I I I I #
coedge $-1 $223 $224 $225 $226 forward $85 $-1 #
coedge $-1 $227 $87 $228 $229 reversed $54 $-1 #
coedge $-1 $87 $227 $230 $231 reversed $54 $-1 #
coedge $-1 $222 $232 $87 $140 reversed $134 $-1 #
edge $-1 $233 -20.274398236245304 $234 20.274398236245304 $139 $235 forward 7 unknown #
face $-1 $236 $237 $32 $-1 $238 reversed single #
loop $-1 $-1 $239 $88 #
plane-surface $-1 34.777829169541846 0 -5.0844096790485906 1 0 0 0 0 -1 forward_v I I I I #
coedge $-1 $240 $241 $242 $243 reversed $89 $-1 #
coedge $-1 $244 $91 $245 $246 reversed $57 $-1 #
coedge $-1 $91 $244 $247 $248 reversed $57 $-1 #
coedge $-1 $249 $250 $91 $148 forward $251 $-1 #
edge $-1 $252 -20.274398236245304 $253 20.274398236245304 $147 $254 forward 7 unknown #
face $-1 $255 $256 $33 $-1 $257 reversed single #
loop $-1 $-1 $258 $92 #
plane-surface $-1 -34.777829169541846 31.282391319558968 100.59754132995603 1 0 0 0 -0.51503808176128008 -0.85716729658548041 forward_v I I I I #
coedge $-1 $259 $260 $261 $262 reversed $93 $-1 #
coedge $-1 $154 $95 $263 $264 reversed $60 $-1 #
coedge $-1 $95 $153 $259 $265 reversed $60 $-1 #
coedge $-1 $261 $266 $95 $156 forward $256 $-1 #
edge $-1 $267 42.509335353966456 $268 46.751311483537826 $155 $269 forward 7 unknown #
loop $-1 $-1 $162 $96 #
plane-surface $-1 -24.918680241083607 -14.48270401587434 24.431633534360316 0 0.51503808176128008 0.85716729658548041 1 0 0 forward_v I I I I #
loop $-1 $-1 $270 $62 #
coedge $-1 $160 $160 $161 $271 reversed $97 $-1 #
coedge $-1 $161 $161 $160 $271 forward $99 $-1 #
coedge $-1 $162 $162 $100 $163 forward $157 $-1 #
edge $-1 $272 -4.5744570954411763e-016 $272 6.2831853071795996 $162 $273 forward 7 unknown #
loop $-1 $-1 $169 $101 #
plane-surface $-1 -24.918680241083607 -14.48270401587434 24.431633534360316 0 0.51503808176128008 0.85716729658548041 1 0 0 forward_v I I I I #
loop $-1 $-1 $274 $65 #
coedge $-1 $167 $167 $168 $275 reversed $102 $-1 #
coedge $-1 $168 $168 $167 $275 forward $104 $-1 #
coedge $-1 $169 $169 $105 $170 forward $164 $-1 #
edge $-1 $276 -4.5744570954411763e-016 $276 6.2831853071795996 $169 $277 forward 7 unknown #
face $-1 $278 $279 $36 $-1 $280 forward single #
loop $-1 $-1 $281 $106 #
plane-surface $-1 -14.395964345957758 -86.308533127187872 59.600936068950276 -1 0 0 0 -0.74314483375859142 0.66913059716165679 forward_v I I I I #
coedge $-1 $282 $283 $284 $285 reversed $107 $-1 #
coedge $-1 $176 $109 $286 $287 reversed $69 $-1 #
coedge $-1 $109 $175 $282 $288 reversed $69 $-1 #
coedge $-1 $284 $289 $109 $178 forward $290 $-1 #
edge $-1 $291 22.011032723463579 $292 29.656932603235958 $177 $293 forward 7 unknown #
loop $-1 $-1 $184 $110 #
plane-surface $-1 -24.586896757749802 -20.274398236245318 0.14353543123916523 0 -0.74314483375859142 0.66913059716165679 1 0 0 forward_v I I I I #
loop $-1 $-1 $294 $71 #
coedge $-1 $182 $182 $183 $295 reversed $111 $-1 #
coedge $-1 $183 $183 $182 $295 forward $113 $-1 #
coedge $-1 $184 $184 $114 $185 forward $179 $-1 #
edge $-1 $296 6.1888669935495237e-016 $296 6.2831853071796013 $184 $297 forward 7 unknown #
loop $-1 $-1 $191 $115 #
plane-surface $-1 -24.586896757749802 -20.274398236245318 0.14353543123916523 0 -0.74314483375859142 0.66913059716165679 1 0 0 forward_v I I I I #
loop $-1 $-1 $298 $74 #
coedge $-1 $189 $189 $190 $299 reversed $116 $-1 #
coedge $-1 $190 $190 $189 $299 forward $118 $-1 #
coedge $-1 $191 $191 $119 $192 forward $186 $-1 #
edge $-1 $300 6.1888669935495237e-016 $300 6.2831853071796013 $191 $301 forward 7 unknown #
loop $-1 $-1 $198 $120 #
plane-surface $-1 -24.586896757749802 -20.274398236245318 0.14353543123916523 0 -0.74314483375859142 0.66913059716165679 1 0 0 forward_v I I I I #
loop $-1 $-1 $302 $77 #
coedge $-1 $196 $196 $197 $303 reversed $121 $-1 #
coedge $-1 $197 $197 $196 $303 forward $123 $-1 #
coedge $-1 $198 $198 $124 $199 forward $193 $-1 #
edge $-1 $304 6.1888669935495237e-016 $304 6.2831853071796013 $198 $305 forward 7 unknown #
face $-1 $306 $307 $30 $-1 $308 reversed single #
loop $-1 $-1 $309 $125 #
plane-surface $-1 -44.428846095156715 0 0 1 0 0 0 0 -1 forward_v I I I I #
coedge $-1 $310 $211 $311 $312 forward $126 $-1 #
coedge $-1 $313 $128 $310 $314 forward $81 $-1 #
coedge $-1 $128 $313 $315 $316 forward $81 $-1 #
coedge $-1 $214 $213 $128 $207 reversed $215 $-1 #
edge $-1 $317 -20.274398236245304 $318 20.274398236245304 $206 $319 forward 7 unknown #
coedge $-1 $130 $129 $320 $321 forward $51 $-1 #
coedge $-1 $322 $323 $129 $210 reversed $307 $-1 #
edge $-1 $217 -44.428846095156715 $324 44.428846095156715 $209 $325 forward 7 unknown #
coedge $-1 $203 $326 $130 $212 reversed $126 $-1 #
edge $-1 $327 -44.428846095156715 $216 44.428846095156715 $211 $328 forward 7 unknown #
coedge $-1 $206 $131 $326 $329 forward $215 $-1 #
coedge $-1 $131 $206 $322 $330 reversed $215 $-1 #
loop $-1 $-1 $213 $306 #
vertex $-1 $132 $331 #
vertex $-1 $132 $332 #
straight-curve $-1 44.428846095156715 0 7.7894353110115588 0 1 0 I I #
face $-1 $333 $334 $31 $-1 $335 reversed single #
loop $-1 $-1 $336 $133 #
plane-surface $-1 0 -20.274398236245304 0 0 1 0 0 0 1 forward_v I I I I #
coedge $-1 $225 $139 $337 $338 reversed $134 $-1 #
coedge $-1 $339 $136 $336 $340 reversed $85 $-1 #
coedge $-1 $136 $339 $341 $342 reversed $85 $-1 #
coedge $-1 $232 $222 $136 $226 reversed $134 $-1 #
edge $-1 $343 -20.274398236245304 $344 20.274398236245304 $225 $345 forward 7 unknown #
coedge $-1 $138 $137 $346 $347 reversed $54 $-1 #
coedge $-1 $348 $349 $137 $229 forward $350 $-1 #
edge $-1 $351 -24.627177278982074 $234 -14.976160353367206 $228 $352 forward 7 unknown #
coedge $-1 $353 $337 $138 $231 forward $220 $-1 #
edge $-1 $233 14.976160353367206 $354 24.627177278982074 $230 $355 forward 7 unknown #
coedge $-1 $139 $225 $348 $356 reversed $134 $-1 #
vertex $-1 $231 $357 #
vertex $-1 $229 $358 #
straight-curve $-1 -34.777829169541846 0 -3.5844096790485906 0 1 0 I I #
face $-1 $359 $360 $32 $-1 $361 reversed single #
loop $-1 $-1 $247 $141 #
plane-surface $-1 0 -20.274398236245304 0 0 1 0 0 0 1 forward_v I I I I #
coedge $-1 $362 $363 $364 $365 reversed $142 $-1 #
coedge $-1 $366 $144 $367 $368 reversed $89 $-1 #
coedge $-1 $144 $366 $369 $370 reversed $89 $-1 #
coedge $-1 $250 $249 $144 $243 forward $251 $-1 #
edge $-1 $371 -20.274398236245304 $372 20.274398236245304 $242 $373 forward 7 unknown #
coedge $-1 $146 $145 $363 $374 forward $57 $-1 #
coedge $-1 $375 $364 $145 $246 forward $360 $-1 #
edge $-1 $376 14.976160353367206 $252 24.627177278982074 $245 $377 forward 7 unknown #
coedge $-1 $378 $379 $146 $248 forward $237 $-1 #
edge $-1 $253 -24.627177278982074 $380 -14.976160353367206 $247 $381 forward 7 unknown #
coedge $-1 $242 $147 $379 $382 forward $251 $-1 #
coedge $-1 $147 $242 $375 $383 reversed $251 $-1 #
loop $-1 $-1 $147 $359 #
vertex $-1 $383 $384 #
vertex $-1 $382 $385 #
straight-curve $-1 44.428846095156715 0 -3.5844096790485906 0 -1 0 I I #
face $-1 $-1 $386 $33 $-1 $387 forward single #
loop $-1 $-1 $155 $149 #
plane-surface $-1 0 20.274398236245304 0 0 -1 0 0 0 -1 forward_v I I I I #
coedge $-1 $388 $389 $390 $391 reversed $150 $-1 #
coedge $-1 $392 $152 $154 $265 forward $93 $-1 #
coedge $-1 $152 $392 $388 $393 forward $93 $-1 #
coedge $-1 $390 $155 $152 $262 forward $256 $-1 #
edge $-1 $268 2.6001911920835639 $394 22.318489049000043 $261 $395 forward 7 unknown #
coedge $-1 $396 $397 $153 $264 forward $386 $-1 #
edge $-1 $398 -2.4266311327824113 $267 4.6332025764658198 $263 $399 forward 7 unknown #
edge $-1 $268 -40.548796472490615 $398 -32.312558648939685 $154 $400 forward 7 unknown #
coedge $-1 $155 $390 $396 $401 reversed $256 $-1 #
vertex $-1 $401 $402 #
vertex $-1 $156 $403 #
straight-curve $-1 -15.059531312625367 20.274398236245304 50.298770664978015 0 0 -1 I I #
coedge $-1 $270 $270 $-1 $404 reversed $159 $-1 #
edge $-1 $405 0 $405 6.2831853071796004 $160 $406 forward 7 unknown #
vertex $-1 $163 $407 #
ellipse-curve $-1 -29.144029781851422 16.744481381621192 5.668447246225873 0 0.51503808176128008 0.85716729658548041 2 0 0 1 I I #
coedge $-1 $274 $274 $-1 $408 reversed $166 $-1 #
edge $-1 $409 0 $409 6.2831853071796004 $167 $410 forward 7 unknown #
vertex $-1 $170 $411 #
ellipse-curve $-1 -20.693330700315791 16.744481381621192 5.668447246225873 0 0.51503808176128008 0.85716729658548041 2 0 0 1 I I #
face $-1 $-1 $290 $36 $-1 $412 reversed single #
loop $-1 $-1 $413 $171 #
plane-surface $-1 0 0 7.7894353110115588 0 0 1 1 0 0 forward_v I I I I #
coedge $-1 $414 $415 $416 $417 reversed $172 $-1 #
coedge $-1 $418 $174 $176 $288 forward $107 $-1 #
coedge $-1 $174 $418 $414 $419 forward $107 $-1 #
coedge $-1 $416 $177 $174 $285 forward $290 $-1 #
edge $-1 $292 -22.484380790666947 $420 -2.1025159670828568 $284 $421 forward 7 unknown #
coedge $-1 $422 $423 $175 $287 forward $279 $-1 #
edge $-1 $424 -29.764267330050014 $291 -22.879868327348632 $286 $425 forward 7 unknown #
edge $-1 $292 2.1245346486381733e-014 $424 10.28857301086499 $176 $426 forward 7 unknown #
coedge $-1 $177 $416 $422 $427 reversed $290 $-1 #
loop $-1 $-1 $416 $278 #
vertex $-1 $427 $428 #
vertex $-1 $178 $429 #
straight-curve $-1 -34.777829169541846 -20.274398236245304 29.800468034475138 0 0 -1 I I #
coedge $-1 $294 $294 $-1 $430 reversed $181 $-1 #
edge $-1 $431 0 $431 6.2831853071796004 $182 $432 forward 7 unknown #
vertex $-1 $185 $433 #
ellipse-curve $-1 -30.701456204825028 -16.832198734894614 3.9664853711253683 0 -0.74314483375859142 0.66913059716165679 1.5 0 0 1 I I #
coedge $-1 $298 $298 $-1 $434 reversed $188 $-1 #
edge $-1 $435 0 $435 6.2831853071796004 $189 $436 forward 7 unknown #
vertex $-1 $192 $437 #
ellipse-curve $-1 -24.586896757749802 -16.832198734894614 3.9664853711253683 0 -0.74314483375859142 0.66913059716165679 1.5 0 0 1 I I #
coedge $-1 $302 $302 $-1 $438 reversed $195 $-1 #
edge $-1 $439 0 $439 6.2831853071796004 $196 $440 forward 7 unknown #
vertex $-1 $199 $441 #
ellipse-curve $-1 -18.472337310674575 -16.832198734894614 3.9664853711253683 0 -0.74314483375859142 0.66913059716165679 1.5 0 0 1 I I #
face $-1 $-1 $215 $30 $-1 $442 reversed single #
loop $-1 $-1 $322 $200 #
plane-surface $-1 0 20.274398236245304 0 0 -1 0 0 0 -1 forward_v I I I I #
coedge $-1 $443 $320 $323 $444 forward $201 $-1 #
coedge $-1 $326 $203 $204 $314 reversed $126 $-1 #
coedge $-1 $320 $443 $203 $312 reversed $201 $-1 #
edge $-1 $327 -7.7894353110115588 $445 7.7894353110115588 $311 $446 forward 7 unknown #
coedge $-1 $205 $204 $443 $447 forward $81 $-1 #
edge $-1 $318 -44.428846095156715 $445 44.428846095156715 $310 $448 forward 7 unknown #
coedge $-1 $323 $322 $205 $316 reversed $307 $-1 #
edge $-1 $449 -44.428846095156715 $317 44.428846095156715 $315 $450 forward 7 unknown #
vertex $-1 $207 $451 #
vertex $-1 $329 $452 #
straight-curve $-1 44.428846095156715 0 -7.7894353110115588 0 -1 0 I I #
coedge $-1 $309 $311 $208 $321 reversed $201 $-1 #
edge $-1 $324 -20.274398236245304 $327 20.274398236245304 $320 $453 forward 7 unknown #
coedge $-1 $315 $209 $214 $330 forward $307 $-1 #
coedge $-1 $209 $315 $309 $444 reversed $307 $-1 #
vertex $-1 $210 $454 #
straight-curve $-1 0 20.274398236245304 7.7894353110115588 -1 0 0 I I #
coedge $-1 $211 $310 $213 $329 reversed $126 $-1 #
vertex $-1 $321 $455 #
straight-curve $-1 0 -20.274398236245304 7.7894353110115588 1 0 0 I I #
edge $-1 $216 -7.7894353110115588 $318 7.7894353110115588 $213 $456 forward 7 unknown #
edge $-1 $217 -7.7894353110115588 $317 7.7894353110115588 $214 $457 forward 7 unknown #
point $-1 44.428846095156715 -20.274398236245304 7.7894353110115588 #
point $-1 44.428846095156715 20.274398236245304 7.7894353110115588 #
face $-1 $-1 $350 $31 $-1 $458 reversed single #
loop $-1 $-1 $459 $219 #
plane-surface $-1 -44.428846095156715 0 0 1 0 0 0 0 -1 forward_v I I I I #
coedge $-1 $337 $353 $223 $340 forward $220 $-1 #
coedge $-1 $230 $336 $222 $338 forward $220 $-1 #
edge $-1 $344 -4.0422048395242953 $233 -1.0422048395242953 $337 $460 forward 7 unknown #
coedge $-1 $224 $223 $459 $461 reversed $85 $-1 #
edge $-1 $462 -24.627177278982074 $344 -14.976160353367206 $336 $463 forward 7 unknown #
coedge $-1 $349 $348 $224 $342 forward $350 $-1 #
edge $-1 $343 14.976160353367206 $464 24.627177278982074 $341 $465 forward 7 unknown #
vertex $-1 $342 $466 #
vertex $-1 $340 $467 #
straight-curve $-1 -34.777829169541846 0 -6.5844096790485906 0 -1 0 I I #
coedge $-1 $468 $469 $227 $347 forward $334 $-1 #
edge $-1 $354 -20.274398236245304 $351 20.274398236245304 $346 $470 forward 7 unknown #
coedge $-1 $341 $228 $232 $356 forward $350 $-1 #
coedge $-1 $228 $341 $468 $471 reversed $350 $-1 #
loop $-1 $-1 $341 $333 #
vertex $-1 $471 $472 #
straight-curve $-1 -19.80166881617464 20.274398236245304 -3.5844096790485906 1 0 0 I I #
coedge $-1 $336 $230 $469 $473 forward $220 $-1 #
vertex $-1 $473 $474 #
straight-curve $-1 -19.80166881617464 -20.274398236245304 -3.5844096790485906 -1 0 0 I I #
edge $-1 $234 1.0422048395242953 $343 4.0422048395242953 $348 $475 forward 7 unknown #
point $-1 -34.777829169541846 -20.274398236245304 -3.5844096790485906 #
point $-1 -34.777829169541846 20.274398236245304 -3.5844096790485906 #
face $-1 $-1 $251 $32 $-1 $476 reversed single #
loop $-1 $-1 $245 $236 #
plane-surface $-1 0 20.274398236245304 0 0 -1 0 0 0 -1 forward_v I I I I #
coedge $-1 $477 $239 $366 $478 reversed $142 $-1 #
coedge $-1 $239 $477 $244 $374 reversed $142 $-1 #
coedge $-1 $245 $369 $239 $365 forward $360 $-1 #
edge $-1 $479 -4.0422048395242953 $376 -1.0422048395242953 $364 $480 forward 7 unknown #
coedge $-1 $241 $240 $362 $478 forward $89 $-1 #
coedge $-1 $379 $378 $240 $368 forward $237 $-1 #
edge $-1 $481 14.976160353367206 $371 24.627177278982074 $367 $482 forward 7 unknown #
coedge $-1 $364 $375 $241 $370 forward $360 $-1 #
edge $-1 $372 -24.627177278982074 $479 -14.976160353367206 $369 $483 forward 7 unknown #
vertex $-1 $243 $484 #
vertex $-1 $243 $485 #
straight-curve $-1 44.428846095156715 0 -6.5844096790485906 0 1 0 I I #
edge $-1 $376 -20.274398236245304 $380 20.274398236245304 $363 $486 forward 7 unknown #
coedge $-1 $369 $245 $250 $383 forward $360 $-1 #
vertex $-1 $246 $487 #
straight-curve $-1 19.80166881617464 20.274398236245304 -3.5844096790485906 1 0 0 I I #
coedge $-1 $367 $247 $477 $488 forward $237 $-1 #
coedge $-1 $247 $367 $249 $382 reversed $237 $-1 #
vertex $-1 $248 $489 #
straight-curve $-1 19.80166881617464 -20.274398236245304 -3.5844096790485906 -1 0 0 I I #
edge $-1 $253 3.5844096790485906 $371 6.5844096790485906 $249 $490 forward 7 unknown #
edge $-1 $252 3.5844096790485906 $372 6.5844096790485906 $250 $491 forward 7 unknown #
point $-1 44.428846095156715 20.274398236245304 -3.5844096790485906 #
point $-1 44.428846095156715 -20.274398236245304 -3.5844096790485906 #
loop $-1 $-1 $263 $255 #
plane-surface $-1 0 0 7.7894353110115588 0 0 1 1 0 0 forward_v I I I I #
coedge $-1 $389 $258 $260 $393 reversed $150 $-1 #
coedge $-1 $258 $388 $492 $493 reversed $150 $-1 #
coedge $-1 $266 $261 $258 $391 forward $256 $-1 #
edge $-1 $394 -46.751311483537826 $494 -42.509335353966456 $390 $495 forward 7 unknown #
coedge $-1 $260 $259 $397 $496 reversed $93 $-1 #
edge $-1 $497 32.312558648939685 $394 40.548796472490615 $388 $498 forward 7 unknown #
vertex $-1 $262 $499 #
straight-curve $-1 -12.459340120541803 20.2743982362453 3.5474591814401908 -1 0 0 I I #
coedge $-1 $492 $263 $266 $401 forward $386 $-1 #
coedge $-1 $263 $492 $392 $496 forward $386 $-1 #
vertex $-1 $264 $500 #
straight-curve $-1 -15.059531312625367 15.641195659779484 7.7894353110115588 0 1 0 I I #
straight-curve $-1 -15.059531312625367 -14.48270401587434 24.431633534360316 0 -0.85716729658548041 0.51503808176128008 I I #
edge $-1 $267 15.059531312625367 $494 34.777829169541846 $266 $501 forward 7 unknown #
point $-1 -15.059531312625367 20.274398236245304 7.7894353110115588 #
point $-1 -15.059531312625367 20.274398236245304 3.547459181440189 #
edge $-1 $502 1 $502 0 $270 $-1 forward 7 unknown #
vertex $-1 $271 $503 #
ellipse-curve $-1 -29.144029781851422 13.265007520505815 -0.12236960536082697 0 0.51503808176128008 0.85716729658548041 2 0 0 1 I I #
point $-1 -27.144029781851422 16.744481381621192 5.6684472462258748 #
edge $-1 $504 1 $504 0 $274 $-1 forward 7 unknown #
vertex $-1 $275 $505 #
ellipse-curve $-1 -20.693330700315791 13.265007520505815 -0.12236960536082697 0 0.51503808176128008 0.85716729658548041 2 0 0 1 I I #
point $-1 -18.693330700315791 16.744481381621192 5.6684472462258748 #
plane-surface $-1 0 -20.274398236245304 0 0 1 0 0 0 1 forward_v I I I I #
coedge $-1 $423 $422 $415 $506 forward $279 $-1 #
coedge $-1 $415 $281 $283 $419 reversed $172 $-1 #
coedge $-1 $281 $414 $413 $506 reversed $172 $-1 #
coedge $-1 $289 $284 $281 $417 forward $290 $-1 #
edge $-1 $420 -29.656932603235958 $507 -22.011032723463579 $416 $508 forward 7 unknown #
coedge $-1 $283 $282 $423 $509 reversed $107 $-1 #
edge $-1 $510 -10.28857301086499 $420 -2.1245346486381733e-014 $414 $511 forward 7 unknown #
vertex $-1 $285 $512 #
straight-curve $-1 -12.293448378874901 -20.274398236245304 0.14353543123917928 1 0 0 I I #
coedge $-1 $413 $286 $289 $427 forward $279 $-1 #
coedge $-1 $286 $413 $418 $509 forward $279 $-1 #
vertex $-1 $287 $513 #
straight-curve $-1 -34.777829169541846 -43.154266563593936 7.7894353110115588 0 -1 0 I I #
straight-curve $-1 -34.777829169541846 -20.274398236245318 0.14353543123916523 0 0.66913059716165679 0.74314483375859142 I I #
edge $-1 $291 -34.777829169541846 $507 -14.395964345957758 $289 $514 forward 7 unknown #
point $-1 -34.777829169541846 -20.274398236245304 7.7894353110115588 #
point $-1 -34.777829169541846 -20.274398236245304 0.14353543123918103 #
edge $-1 $515 1 $515 0 $294 $-1 forward 7 unknown #
vertex $-1 $295 $516 #
ellipse-curve $-1 -30.701456204825028 -13.166222428061833 0.66562556030636344 0 -0.74314483375859142 0.66913059716165679 1.5 0 0 1 I I #
point $-1 -29.201456204825028 -16.8321987348946 3.9664853711253567 #
edge $-1 $517 1 $517 0 $298 $-1 forward 7 unknown #
vertex $-1 $299 $518 #
ellipse-curve $-1 -24.586896757749802 -13.166222428061833 0.66562556030636344 0 -0.74314483375859142 0.66913059716165679 1.5 0 0 1 I I #
point $-1 -23.086896757749802 -16.8321987348946 3.9664853711253567 #
edge $-1 $519 1 $519 0 $302 $-1 forward 7 unknown #
vertex $-1 $303 $520 #
ellipse-curve $-1 -18.472337310674575 -13.166222428061833 0.66562556030636344 0 -0.74314483375859142 0.66913059716165679 1.5 0 0 1 I I #
point $-1 -16.972337310674575 -16.8321987348946 3.9664853711253567 #
plane-surface $-1 44.428846095156715 0 0 -1 0 0 0 0 1 forward_v I I I I #
coedge $-1 $311 $309 $313 $447 reversed $201 $-1 #
edge $-1 $324 -7.7894353110115588 $449 7.7894353110115588 $323 $521 forward 7 unknown #
vertex $-1 $447 $522 #
straight-curve $-1 -44.428846095156715 -20.274398236245304 0 0 0 -1 I I #
edge $-1 $445 -20.274398236245304 $449 20.274398236245304 $443 $523 forward 7 unknown #
straight-curve $-1 0 -20.274398236245304 -7.7894353110115588 -1 0 0 I I #
vertex $-1 $316 $524 #
straight-curve $-1 0 20.274398236245304 -7.7894353110115588 1 0 0 I I #
point $-1 44.428846095156715 20.274398236245304 -7.7894353110115588 #
point $-1 44.428846095156715 -20.274398236245304 -7.7894353110115588 #
straight-curve $-1 -44.428846095156715 0 7.7894353110115588 0 -1 0 I I #
point $-1 -44.428846095156715 20.274398236245304 7.7894353110115588 #
point $-1 -44.428846095156715 -20.274398236245304 7.7894353110115588 #
straight-curve $-1 44.428846095156715 -20.274398236245304 0 0 0 -1 I I #
straight-curve $-1 44.428846095156715 20.274398236245304 0 0 0 -1 I I #
plane-surface $-1 0 20.274398236245304 0 0 -1 0 0 0 -1 forward_v I I I I #
coedge $-1 $469 $468 $339 $461 forward $334 $-1 #
straight-curve $-1 -34.777829169541846 -20.274398236245304 -2.5422048395242953 0 0 1 I I #
edge $-1 $464 -20.274398236245304 $462 20.274398236245304 $459 $525 forward 7 unknown #
vertex $-1 $340 $526 #
straight-curve $-1 -19.80166881617464 -20.274398236245304 -6.5844096790485906 1 0 0 I I #
vertex $-1 $342 $527 #
straight-curve $-1 -19.80166881617464 20.274398236245304 -6.5844096790485906 -1 0 0 I I #
point $-1 -34.777829169541846 20.274398236245304 -6.5844096790485906 #
point $-1 -34.777829169541846 -20.274398236245304 -6.5844096790485906 #
coedge $-1 $459 $346 $349 $471 forward $334 $-1 #
coedge $-1 $346 $459 $353 $473 reversed $334 $-1 #
straight-curve $-1 -44.428846095156715 0 -3.5844096790485906 0 1 0 I I #
edge $-1 $351 3.5844096790485906 $464 6.5844096790485906 $349 $528 forward 7 unknown #
point $-1 -44.428846095156715 20.274398236245304 -3.5844096790485906 #
edge $-1 $354 3.5844096790485906 $462 6.5844096790485906 $469 $529 forward 7 unknown #
point $-1 -44.428846095156715 -20.274398236245304 -3.5844096790485906 #
straight-curve $-1 -34.777829169541846 20.274398236245304 -2.5422048395242953 0 0 -1 I I #
plane-surface $-1 44.428846095156715 0 0 -1 0 0 0 0 1 forward_v I I I I #
coedge $-1 $363 $362 $378 $488 reversed $142 $-1 #
edge $-1 $481 -20.274398236245304 $479 20.274398236245304 $362 $530 forward 7 unknown #
vertex $-1 $370 $531 #
straight-curve $-1 34.777829169541846 20.274398236245304 -2.5422048395242953 0 0 1 I I #
vertex $-1 $368 $532 #
straight-curve $-1 19.80166881617464 -20.274398236245304 -6.5844096790485906 1 0 0 I I #
straight-curve $-1 19.80166881617464 20.274398236245304 -6.5844096790485906 -1 0 0 I I #
point $-1 44.428846095156715 -20.274398236245304 -6.5844096790485906 #
point $-1 44.428846095156715 20.274398236245304 -6.5844096790485906 #
straight-curve $-1 34.777829169541846 0 -3.5844096790485906 0 -1 0 I I #
point $-1 34.777829169541846 20.274398236245304 -3.5844096790485906 #
edge $-1 $380 1.0422048395242953 $481 4.0422048395242953 $378 $533 forward 7 unknown #
point $-1 34.777829169541846 -20.274398236245304 -3.5844096790485906 #
straight-curve $-1 44.428846095156715 -20.274398236245304 0 0 0 -1 I I #
straight-curve $-1 44.428846095156715 20.274398236245304 0 0 0 -1 I I #
coedge $-1 $397 $396 $389 $493 forward $386 $-1 #
edge $-1 $494 -4.6332025764658198 $497 2.4266311327824113 $492 $534 forward 7 unknown #
vertex $-1 $493 $535 #
straight-curve $-1 -34.777829169541846 20.274398236245304 50.298770664978015 0 0 1 I I #
edge $-1 $497 -22.318489049000043 $398 -2.6001911920835639 $397 $536 forward 7 unknown #
vertex $-1 $496 $537 #
straight-curve $-1 -34.777829169541846 -14.48270401587434 24.431633534360316 0 0.85716729658548041 -0.51503808176128008 I I #
point $-1 -34.777829169541846 20.274398236245304 3.547459181440189 #
point $-1 -15.059531312625367 13.214564526997073 7.7894353110115588 #
straight-curve $-1 0 20.274398236245304 7.7894353110115588 -1 0 0 I I #
vertex $-1 $404 $538 #
point $-1 -27.144029781851422 13.265007520505815 -0.12236960536082697 #
vertex $-1 $408 $539 #
point $-1 -18.693330700315791 13.265007520505815 -0.12236960536082697 #
edge $-1 $507 22.879868327348632 $510 29.764267330050014 $413 $540 forward 7 unknown #
vertex $-1 $417 $541 #
straight-curve $-1 -14.395964345957758 -20.274398236245304 29.800468034475138 0 0 1 I I #
edge $-1 $510 2.1025159670828568 $424 22.484380790666947 $423 $542 forward 7 unknown #
vertex $-1 $509 $543 #
straight-curve $-1 -14.395964345957758 -20.274398236245318 0.14353543123916523 0 -0.66913059716165679 -0.74314483375859142 I I #
point $-1 -14.395964345957758 -20.274398236245304 0.14353543123918103 #
point $-1 -34.777829169541846 -13.389999233543922 7.7894353110115588 #
straight-curve $-1 0 -20.274398236245304 7.7894353110115588 1 0 0 I I #
vertex $-1 $430 $544 #
point $-1 -29.201456204825028 -13.166222428061833 0.66562556030636344 #
vertex $-1 $434 $545 #
point $-1 -23.086896757749802 -13.166222428061833 0.66562556030636344 #
vertex $-1 $438 $546 #
point $-1 -16.972337310674575 -13.166222428061833 0.66562556030636344 #
straight-curve $-1 -44.428846095156715 20.274398236245304 0 0 0 -1 I I #
point $-1 -44.428846095156715 -20.274398236245304 -7.7894353110115588 #
straight-curve $-1 -44.428846095156715 0 -7.7894353110115588 0 1 0 I I #
point $-1 -44.428846095156715 20.274398236245304 -7.7894353110115588 #
straight-curve $-1 -44.428846095156715 0 -6.5844096790485906 0 -1 0 I I #
point $-1 -44.428846095156715 -20.274398236245304 -6.5844096790485906 #
point $-1 -44.428846095156715 20.274398236245304 -6.5844096790485906 #
straight-curve $-1 -44.428846095156715 20.274398236245304 0 0 0 -1 I I #
straight-curve $-1 -44.428846095156715 -20.274398236245304 0 0 0 -1 I I #
straight-curve $-1 34.777829169541846 0 -6.5844096790485906 0 1 0 I I #
point $-1 34.777829169541846 20.274398236245304 -6.5844096790485906 #
point $-1 34.777829169541846 -20.274398236245304 -6.5844096790485906 #
straight-curve $-1 34.777829169541846 -20.274398236245304 -2.5422048395242953 0 0 -1 I I #
straight-curve $-1 -34.777829169541846 15.641195659779484 7.7894353110115588 0 -1 0 I I #
point $-1 -34.777829169541846 20.274398236245304 7.7894353110115588 #
straight-curve $-1 -12.459340120541803 13.214564526997075 7.7894353110115571 1 0 0 I I #
point $-1 -34.777829169541846 13.214564526997073 7.7894353110115588 #
point $-1 -29.144029781851422 12.234931356983257 -1.8367041985317878 #
point $-1 -20.693330700315791 12.234931356983257 -1.8367041985317878 #
straight-curve $-1 -14.395964345957758 -43.154266563593936 7.7894353110115588 0 1 0 I I #
point $-1 -14.395964345957758 -20.274398236245304 7.7894353110115588 #
straight-curve $-1 -12.293448378874901 -13.389999233543922 7.7894353110115588 -1 0 0 I I #
point $-1 -14.395964345957758 -13.389999233543922 7.7894353110115588 #
point $-1 -30.701456204825028 -12.051505177423945 -0.33807033543612164 #
point $-1 -24.586896757749802 -12.051505177423945 -0.33807033543612164 #
point $-1 -18.472337310674575 -12.051505177423945 -0.33807033543612164 #
End-of-ACIS-data 