500 0 8 0           
7 Unknown 11 ACIS 5.0 NT 24 Thu Mar 25 21:28:52 1999 
-1 9.9999999999999995e-007 1e-010 
body $-1 $8 $-1 $9 #
body $-1 $10 $-1 $11 #
body $-1 $12 $-1 $13 #
body $-1 $14 $-1 $15 #
body $-1 $16 $-1 $17 #
body $-1 $18 $-1 $19 #
body $-1 $20 $-1 $21 #
body $-1 $22 $-1 $23 #
lump $-1 $-1 $24 $0 #
transform $-1 1 0 0 0 1 0 0 0 1 48.163090914639731 19.428832423438202 6.0142989299422709 1 rotate no_reflect no_shear #
lump $-1 $-1 $25 $1 #
transform $-1 1 0 0 0 1 0 0 0 1 48.163090914639731 19.428832423438202 6.0142989299422709 1 rotate no_reflect no_shear #
lump $-1 $-1 $26 $2 #
transform $-1 1 0 0 0 1 0 0 0 1 48.163090914639731 19.428832423438202 6.0142989299422709 1 rotate no_reflect no_shear #
lump $-1 $-1 $27 $3 #
transform $-1 1 0 0 0 1 0 0 0 1 48.163090914639731 19.428832423438202 6.0142989299422709 1 rotate no_reflect no_shear #
lump $-1 $-1 $28 $4 #
transform $-1 1 0 0 0 1 0 0 0 1 48.163090914639731 19.428832423438202 6.0142989299422709 1 rotate no_reflect no_shear #
lump $-1 $-1 $29 $5 #
transform $-1 1 0 0 0 1 0 0 0 1 48.163090914639731 19.428832423438202 6.0142989299422709 1 rotate no_reflect no_shear #
lump $-1 $-1 $30 $6 #
transform $-1 1 0 0 0 1 0 0 0 1 48.163090914639731 19.428832423438202 6.0142989299422709 1 rotate no_reflect no_shear #
lump $-1 $-1 $31 $7 #
transform $-1 1 0 0 0 1 0 0 0 1 48.163090914639731 19.428832423438202 6.0142989299422709 1 rotate no_reflect no_shear #
shell $-1 $-1 $-1 $32 $-1 $8 #
shell $-1 $-1 $-1 $33 $-1 $10 #
shell $-1 $-1 $-1 $34 $-1 $12 #
shell $-1 $-1 $-1 $35 $-1 $14 #
shell $-1 $-1 $-1 $36 $-1 $16 #
shell $-1 $-1 $-1 $37 $-1 $18 #
shell $-1 $-1 $-1 $38 $-1 $20 #
shell $-1 $-1 $-1 $39 $-1 $22 #
face $-1 $40 $41 $24 $-1 $42 forward single #
face $-1 $43 $44 $25 $-1 $45 reversed single #
face $-1 $46 $47 $26 $-1 $48 reversed single #
face $-1 $49 $50 $27 $-1 $51 forward single #
face $-1 $52 $53 $28 $-1 $54 forward single #
face $-1 $55 $56 $29 $-1 $57 reversed single #
face $-1 $58 $59 $30 $-1 $60 forward single #
face $-1 $61 $62 $31 $-1 $63 forward single #
face $-1 $64 $65 $24 $-1 $66 reversed single #
loop $-1 $-1 $67 $32 #
plane-surface $-1 0 0 6.0142989299422709 0 0 1 1 0 0 forward_v I I I I #
face $-1 $68 $69 $25 $-1 $70 reversed single #
loop $-1 $-1 $71 $33 #
plane-surface $-1 -42.11620130144906 -16.792783686101735 0 -1 0 0 0 0 1 forward_v I I I I #
face $-1 $72 $73 $26 $-1 $74 reversed single #
loop $-1 $-1 $75 $34 #
plane-surface $-1 -42.116201301449053 42.848925841956145 101.73261008382147 1 0 0 0 -0.57357644374324357 -0.81915203911291934 forward_v I I I I #
face $-1 $76 $77 $27 $-1 $78 forward single #
loop $-1 $79 $80 $35 #
cone-surface $-1 -38.148177477186501 15.02754435479997 2.5746969421595791 0 -0.57357644374324357 -0.81915203911291934 1.5 0 0 1 I I 0 1 1.5 forward I I I I #
face $-1 $81 $82 $28 $-1 $83 forward single #
loop $-1 $84 $85 $36 #
cone-surface $-1 -32.196141740792669 15.02754435479997 2.5746969421595791 0 -0.57357644374324357 -0.81915203911291934 1.5 0 0 1 I I 0 1 1.5 forward I I I I #
face $-1 $86 $87 $29 $-1 $88 reversed single #
loop $-1 $-1 $89 $37 #
plane-surface $-1 -28.22811791653012 -74.679261236441363 79.444768868783257 -1 0 0 0 -0.57357644374324357 0.81915203911291934 forward_v I I I I #
face $-1 $90 $91 $30 $-1 $92 forward single #
loop $-1 $93 $94 $38 #
cone-surface $-1 -38.148177477186501 -15.027544354799973 2.57469694215958 0 0.57357644374324357 -0.81915203911291934 1.5 0 0 1 I I 0 1 1.5 forward I I I I #
face $-1 $95 $96 $31 $-1 $97 forward single #
loop $-1 $98 $99 $39 #
cone-surface $-1 -32.196141740792669 -15.027544354799973 2.57469694215958 0 0.57357644374324357 -0.81915203911291934 1.5 0 0 1 I I 0 1 1.5 forward I I I I #
face $-1 $100 $101 $24 $-1 $102 reversed single #
loop $-1 $-1 $103 $40 #
plane-surface $-1 0 0 -6.0142989299422709 0 0 1 1 0 0 forward_v I I I I #
coedge $-1 $104 $105 $106 $107 forward $41 $-1 #
face $-1 $108 $109 $25 $-1 $110 reversed single #
loop $-1 $-1 $111 $43 #
plane-surface $-1 -45.139646108044396 -18.292783686101735 0 0 1 0 0 0 1 forward_v I I I I #
coedge $-1 $112 $113 $114 $115 forward $44 $-1 #
face $-1 $116 $117 $26 $-1 $118 reversed single #
loop $-1 $-1 $119 $46 #
plane-surface $-1 -35.172159608989588 -12.401502971047016 22.826821818405364 0 0.57357644374324357 0.81915203911291934 1 0 0 forward_v I I I I #
coedge $-1 $120 $121 $122 $123 reversed $47 $-1 #
face $-1 $-1 $124 $27 $-1 $125 forward single #
loop $-1 $126 $127 $49 #
cone-surface $-1 -38.148177477186501 14.105856355448616 1.2583900883297545 0 -0.57357644374324357 -0.81915203911291934 0.75 0 0 1 I I -0.70710678118654757 0.70710678118654757 0.75 forward I I I I #
loop $-1 $-1 $128 $35 #
coedge $-1 $80 $80 $129 $130 reversed $50 $-1 #
face $-1 $-1 $131 $28 $-1 $132 forward single #
loop $-1 $133 $134 $52 #
cone-surface $-1 -32.196141740792669 14.105856355448616 1.2583900883297545 0 -0.57357644374324357 -0.81915203911291934 0.75 0 0 1 I I -0.70710678118654757 0.70710678118654757 0.75 forward I I I I #
loop $-1 $-1 $135 $36 #
coedge $-1 $85 $85 $136 $137 reversed $53 $-1 #
face $-1 $138 $139 $29 $-1 $140 reversed single #
loop $-1 $-1 $141 $55 #
plane-surface $-1 -35.172159608989588 -19.428832423438202 0.53898060336715048 0 -0.57357644374324357 0.81915203911291934 1 0 0 forward_v I I I I #
coedge $-1 $142 $143 $144 $145 reversed $56 $-1 #
face $-1 $-1 $146 $30 $-1 $147 forward single #
loop $-1 $148 $149 $58 #
cone-surface $-1 -38.148177477186501 -14.105856355448619 1.2583900883297554 0 0.57357644374324357 -0.81915203911291934 0.75 0 0 1 I I -0.70710678118654757 0.70710678118654757 0.75 forward I I I I #
loop $-1 $-1 $150 $38 #
coedge $-1 $94 $94 $151 $152 reversed $59 $-1 #
face $-1 $-1 $153 $31 $-1 $154 forward single #
loop $-1 $155 $156 $61 #
cone-surface $-1 -32.196141740792669 -14.105856355448619 1.2583900883297554 0 0.57357644374324357 -0.81915203911291934 0.75 0 0 1 I I -0.70710678118654757 0.70710678118654757 0.75 forward I I I I #
loop $-1 $-1 $157 $39 #
coedge $-1 $99 $99 $158 $159 reversed $62 $-1 #
face $-1 $160 $161 $24 $-1 $162 reversed single #
loop $-1 $-1 $163 $64 #
plane-surface $-1 0 -19.428832423438202 0 0 1 0 0 0 1 forward_v I I I I #
coedge $-1 $164 $165 $166 $167 forward $65 $-1 #
coedge $-1 $168 $67 $169 $170 forward $41 $-1 #
coedge $-1 $67 $168 $171 $172 forward $41 $-1 #
coedge $-1 $173 $174 $67 $107 reversed $175 $-1 #
edge $-1 $176 -19.428832423438202 $177 19.428832423438202 $106 $178 forward 7 unknown #
face $-1 $179 $180 $25 $-1 $181 reversed single #
loop $-1 $-1 $182 $68 #
plane-surface $-1 -45.139646108044396 -15.292783686101735 0 0 -1 0 0 0 -1 forward_v I I I I #
coedge $-1 $183 $184 $185 $186 reversed $69 $-1 #
coedge $-1 $187 $71 $188 $189 reversed $44 $-1 #
coedge $-1 $71 $187 $190 $191 reversed $44 $-1 #
coedge $-1 $184 $183 $71 $115 reversed $69 $-1 #
edge $-1 $192 -6.0142989299422709 $193 6.0142989299422709 $71 $194 forward 7 unknown #
face $-1 $195 $196 $26 $-1 $197 reversed single #
loop $-1 $-1 $198 $72 #
plane-surface $-1 -28.22811791653012 42.848925841956145 101.73261008382147 -1 0 0 0 0.57357644374324357 0.81915203911291934 forward_v I I I I #
coedge $-1 $199 $200 $201 $202 reversed $73 $-1 #
coedge $-1 $121 $75 $203 $204 reversed $47 $-1 #
coedge $-1 $75 $120 $199 $205 reversed $47 $-1 #
coedge $-1 $201 $206 $75 $123 forward $207 $-1 #
edge $-1 $208 1.9956304975398709 $209 9.8151953017285152 $122 $210 forward 7 unknown #
loop $-1 $-1 $129 $76 #
plane-surface $-1 -35.172159608989588 -12.401502971047016 22.826821818405364 0 0.57357644374324357 0.81915203911291934 1 0 0 forward_v I I I I #
loop $-1 $-1 $211 $49 #
coedge $-1 $127 $127 $128 $212 reversed $77 $-1 #
coedge $-1 $128 $128 $127 $212 forward $79 $-1 #
coedge $-1 $129 $129 $80 $130 forward $124 $-1 #
edge $-1 $213 -3.650349556773767e-016 $213 6.2831853071796004 $129 $214 forward 7 unknown #
loop $-1 $-1 $136 $81 #
plane-surface $-1 -35.172159608989588 -12.401502971047016 22.826821818405364 0 0.57357644374324357 0.81915203911291934 1 0 0 forward_v I I I I #
loop $-1 $-1 $215 $52 #
coedge $-1 $134 $134 $135 $216 reversed $82 $-1 #
coedge $-1 $135 $135 $134 $216 forward $84 $-1 #
coedge $-1 $136 $136 $85 $137 forward $131 $-1 #
edge $-1 $217 -3.650349556773767e-016 $217 6.2831853071796004 $136 $218 forward 7 unknown #
face $-1 $219 $220 $29 $-1 $221 forward single #
loop $-1 $-1 $222 $86 #
plane-surface $-1 0 -19.428832423438202 0 0 1 0 0 0 1 forward_v I I I I #
coedge $-1 $223 $224 $225 $226 reversed $87 $-1 #
coedge $-1 $143 $89 $227 $228 reversed $56 $-1 #
coedge $-1 $89 $142 $223 $229 reversed $56 $-1 #
coedge $-1 $225 $230 $89 $145 forward $220 $-1 #
edge $-1 $231 17.91079819478248 $232 25.73036299897111 $144 $233 forward 7 unknown #
loop $-1 $-1 $151 $90 #
plane-surface $-1 -35.172159608989588 -19.428832423438202 0.53898060336715048 0 -0.57357644374324357 0.81915203911291934 1 0 0 forward_v I I I I #
loop $-1 $-1 $234 $58 #
coedge $-1 $149 $149 $150 $235 reversed $91 $-1 #
coedge $-1 $150 $150 $149 $235 forward $93 $-1 #
coedge $-1 $151 $151 $94 $152 forward $146 $-1 #
edge $-1 $236 7.7686206711662877e-016 $236 6.2831853071796013 $151 $237 forward 7 unknown #
loop $-1 $-1 $158 $95 #
plane-surface $-1 -35.172159608989588 -19.428832423438202 0.53898060336715048 0 -0.57357644374324357 0.81915203911291934 1 0 0 forward_v I I I I #
loop $-1 $-1 $238 $61 #
coedge $-1 $156 $156 $157 $239 reversed $96 $-1 #
coedge $-1 $157 $157 $156 $239 forward $98 $-1 #
coedge $-1 $158 $158 $99 $159 forward $153 $-1 #
edge $-1 $240 7.7686206711662877e-016 $240 6.2831853071796013 $158 $241 forward 7 unknown #
face $-1 $242 $243 $24 $-1 $244 reversed single #
loop $-1 $-1 $245 $100 #
plane-surface $-1 -48.163090914639731 0 0 1 0 0 0 0 -1 forward_v I I I I #
coedge $-1 $246 $171 $247 $248 forward $101 $-1 #
coedge $-1 $249 $103 $246 $250 forward $65 $-1 #
coedge $-1 $103 $249 $251 $252 forward $65 $-1 #
coedge $-1 $174 $173 $103 $167 reversed $175 $-1 #
edge $-1 $253 -19.428832423438202 $254 19.428832423438202 $166 $255 forward 7 unknown #
coedge $-1 $105 $104 $256 $257 forward $41 $-1 #
coedge $-1 $258 $259 $104 $170 reversed $243 $-1 #
edge $-1 $177 -48.163090914639731 $260 48.163090914639731 $169 $261 forward 7 unknown #
coedge $-1 $163 $262 $105 $172 reversed $101 $-1 #
edge $-1 $263 -48.163090914639731 $176 48.163090914639731 $171 $264 forward 7 unknown #
coedge $-1 $166 $106 $262 $265 forward $175 $-1 #
coedge $-1 $106 $166 $258 $266 reversed $175 $-1 #
loop $-1 $-1 $173 $242 #
vertex $-1 $107 $267 #
vertex $-1 $107 $268 #
straight-curve $-1 48.163090914639731 0 6.0142989299422709 0 1 0 I I #
face $-1 $269 $270 $25 $-1 $271 forward single #
loop $-1 $-1 $272 $108 #
plane-surface $-1 0 0 -6.0142989299422709 0 0 1 1 0 0 forward_v I I I I #
coedge $-1 $273 $274 $187 $275 forward $109 $-1 #
coedge $-1 $114 $111 $276 $277 reversed $69 $-1 #
coedge $-1 $111 $114 $278 $279 reversed $69 $-1 #
coedge $-1 $280 $281 $111 $186 forward $282 $-1 #
edge $-1 $283 -6.0142989299422709 $284 6.0142989299422709 $185 $285 forward 7 unknown #
coedge $-1 $113 $112 $182 $275 reversed $44 $-1 #
coedge $-1 $276 $272 $112 $189 forward $180 $-1 #
edge $-1 $286 6.8963918430508677 $193 9.8963918430508677 $188 $287 forward 7 unknown #
coedge $-1 $288 $278 $113 $191 forward $270 $-1 #
edge $-1 $192 -9.8963918430508677 $289 -6.8963918430508677 $190 $290 forward 7 unknown #
vertex $-1 $279 $291 #
vertex $-1 $277 $292 #
straight-curve $-1 -42.11620130144906 -18.292783686101735 0 0 0 -1 I I #
face $-1 $-1 $207 $26 $-1 $293 forward single #
loop $-1 $-1 $294 $116 #
plane-surface $-1 0 19.428832423438202 0 0 -1 0 0 0 -1 forward_v I I I I #
coedge $-1 $295 $296 $297 $298 reversed $117 $-1 #
coedge $-1 $299 $119 $121 $205 forward $73 $-1 #
coedge $-1 $119 $299 $295 $300 forward $73 $-1 #
coedge $-1 $297 $122 $119 $202 forward $207 $-1 #
edge $-1 $209 -24.530121496954258 $301 -10.642038112035326 $201 $302 forward 7 unknown #
coedge $-1 $303 $304 $120 $204 forward $196 $-1 #
edge $-1 $305 -50.327324438543592 $208 -44.852006111968464 $203 $306 forward 7 unknown #
edge $-1 $209 29.311738778430502 $305 38.857664846876411 $121 $307 forward 7 unknown #
coedge $-1 $122 $297 $303 $308 forward $207 $-1 #
loop $-1 $-1 $297 $195 #
vertex $-1 $204 $309 #
vertex $-1 $123 $310 #
straight-curve $-1 -42.116201301449053 21.424462920978073 6.0142989299422709 0 -1 0 I I #
coedge $-1 $211 $211 $-1 $311 reversed $126 $-1 #
edge $-1 $312 0 $312 6.2831853071796004 $127 $313 forward 7 unknown #
vertex $-1 $130 $314 #
ellipse-curve $-1 -38.148177477186501 15.519050021343883 3.2766397666547036 0 0.57357644374324357 0.81915203911291934 1.5 0 0 1 I I #
coedge $-1 $215 $215 $-1 $315 reversed $133 $-1 #
edge $-1 $316 0 $316 6.2831853071796004 $134 $317 forward 7 unknown #
vertex $-1 $137 $318 #
ellipse-curve $-1 -32.196141740792669 15.519050021343883 3.2766397666547036 0 0.57357644374324357 0.81915203911291934 1.5 0 0 1 I I #
face $-1 $-1 $319 $29 $-1 $320 forward single #
loop $-1 $-1 $321 $138 #
plane-surface $-1 0 0 6.0142989299422709 0 0 1 1 0 0 forward_v I I I I #
coedge $-1 $322 $323 $324 $325 forward $139 $-1 #
coedge $-1 $326 $141 $143 $229 forward $87 $-1 #
coedge $-1 $141 $326 $327 $328 reversed $87 $-1 #
coedge $-1 $321 $144 $141 $226 forward $220 $-1 #
edge $-1 $232 10.642038112035326 $329 24.530121496954258 $225 $330 forward 7 unknown #
coedge $-1 $323 $322 $142 $228 forward $139 $-1 #
edge $-1 $331 -39.183403831024478 $231 -33.708085504449357 $227 $332 forward 7 unknown #
edge $-1 $232 -9.5459260684458975 $331 0 $143 $333 forward 7 unknown #
coedge $-1 $144 $321 $323 $334 forward $220 $-1 #
vertex $-1 $228 $335 #
vertex $-1 $145 $336 #
straight-curve $-1 -28.22811791653012 -37.339630618220681 6.0142989299422709 0 1 0 I I #
coedge $-1 $234 $234 $-1 $337 reversed $148 $-1 #
edge $-1 $338 0 $338 6.2831853071796004 $149 $339 forward 7 unknown #
vertex $-1 $152 $340 #
ellipse-curve $-1 -38.148177477186501 -15.51905002134389 3.2766397666547085 0 -0.57357644374324357 0.81915203911291934 1.5 0 0 1 I I #
coedge $-1 $238 $238 $-1 $341 reversed $155 $-1 #
edge $-1 $342 0 $342 6.2831853071796004 $156 $343 forward 7 unknown #
vertex $-1 $159 $344 #
ellipse-curve $-1 -32.196141740792669 -15.51905002134389 3.2766397666547085 0 -0.57357644374324357 0.81915203911291934 1.5 0 0 1 I I #
face $-1 $-1 $175 $24 $-1 $345 reversed single #
loop $-1 $-1 $258 $160 #
plane-surface $-1 0 19.428832423438202 0 0 -1 0 0 0 -1 forward_v I I I I #
coedge $-1 $346 $256 $259 $347 forward $161 $-1 #
coedge $-1 $262 $163 $164 $250 reversed $101 $-1 #
coedge $-1 $256 $346 $163 $248 reversed $161 $-1 #
edge $-1 $263 -6.0142989299422709 $348 6.0142989299422709 $247 $349 forward 7 unknown #
coedge $-1 $165 $164 $346 $350 forward $65 $-1 #
edge $-1 $254 -48.163090914639731 $348 48.163090914639731 $246 $351 forward 7 unknown #
coedge $-1 $259 $258 $165 $252 reversed $243 $-1 #
edge $-1 $352 -48.163090914639731 $253 48.163090914639731 $251 $353 forward 7 unknown #
vertex $-1 $167 $354 #
vertex $-1 $265 $355 #
straight-curve $-1 48.163090914639731 0 -6.0142989299422709 0 -1 0 I I #
coedge $-1 $245 $247 $168 $257 reversed $161 $-1 #
edge $-1 $260 -19.428832423438202 $263 19.428832423438202 $256 $356 forward 7 unknown #
coedge $-1 $251 $169 $174 $266 forward $243 $-1 #
coedge $-1 $169 $251 $245 $347 reversed $243 $-1 #
vertex $-1 $170 $357 #
straight-curve $-1 0 19.428832423438202 6.0142989299422709 -1 0 0 I I #
coedge $-1 $171 $246 $173 $265 reversed $101 $-1 #
vertex $-1 $257 $358 #
straight-curve $-1 0 -19.428832423438202 6.0142989299422709 1 0 0 I I #
edge $-1 $176 -6.0142989299422709 $254 6.0142989299422709 $173 $359 forward 7 unknown #
edge $-1 $177 -6.0142989299422709 $253 6.0142989299422709 $174 $360 forward 7 unknown #
point $-1 48.163090914639731 -19.428832423438202 6.0142989299422709 #
point $-1 48.163090914639731 19.428832423438202 6.0142989299422709 #
face $-1 $-1 $282 $25 $-1 $361 reversed single #
loop $-1 $-1 $288 $179 #
plane-surface $-1 0 0 6.0142989299422709 0 0 1 1 0 0 forward_v I I I I #
coedge $-1 $188 $362 $273 $363 forward $180 $-1 #
coedge $-1 $364 $182 $272 $363 reversed $109 $-1 #
coedge $-1 $182 $364 $288 $365 reversed $109 $-1 #
edge $-1 $289 -6.0142989299422709 $286 6.0142989299422709 $187 $366 forward 7 unknown #
coedge $-1 $362 $188 $183 $277 forward $180 $-1 #
edge $-1 $193 19.546378247426862 $283 25.593267860617534 $276 $367 forward 7 unknown #
coedge $-1 $190 $368 $184 $279 forward $270 $-1 #
edge $-1 $284 -25.593267860617534 $192 -19.546378247426862 $278 $369 forward 7 unknown #
coedge $-1 $370 $185 $368 $371 reversed $282 $-1 #
coedge $-1 $185 $370 $362 $372 reversed $282 $-1 #
loop $-1 $-1 $370 $269 #
vertex $-1 $372 $373 #
vertex $-1 $186 $374 #
straight-curve $-1 -48.163090914639731 -18.292783686101735 0 0 0 1 I I #
vertex $-1 $363 $375 #
straight-curve $-1 -42.11620130144906 -8.3963918430508677 -6.0142989299422709 0 -1 0 I I #
coedge $-1 $368 $190 $274 $365 forward $270 $-1 #
vertex $-1 $365 $376 #
straight-curve $-1 -42.11620130144906 -8.3963918430508677 6.0142989299422709 0 1 0 I I #
point $-1 -42.11620130144906 -18.292783686101735 6.0142989299422709 #
point $-1 -42.11620130144906 -18.292783686101735 -6.0142989299422709 #
plane-surface $-1 0 0 6.0142989299422709 0 0 1 1 0 0 forward_v I I I I #
coedge $-1 $304 $303 $296 $377 forward $196 $-1 #
coedge $-1 $296 $198 $200 $300 reversed $117 $-1 #
coedge $-1 $198 $295 $294 $377 reversed $117 $-1 #
coedge $-1 $206 $201 $198 $298 forward $207 $-1 #
edge $-1 $301 -9.8151953017285152 $378 -1.9956304975398709 $297 $379 forward 7 unknown #
coedge $-1 $200 $199 $304 $380 reversed $73 $-1 #
edge $-1 $381 -38.857664846876411 $301 -29.311738778430502 $295 $382 forward 7 unknown #
vertex $-1 $202 $383 #
straight-curve $-1 -17.586079804494794 11.609267619249559 6.0142989299422727 1 0 0 I I #
coedge $-1 $294 $203 $206 $308 reversed $196 $-1 #
coedge $-1 $203 $294 $299 $380 forward $196 $-1 #
vertex $-1 $204 $384 #
straight-curve $-1 -42.116201301449053 19.428832423438202 50.866305041910735 0 0 1 I I #
straight-curve $-1 -42.116201301449053 -12.401502971047016 22.826821818405364 0 0.81915203911291934 -0.57357644374324357 I I #
edge $-1 $378 28.22811791653012 $208 42.116201301449053 $303 $385 forward 7 unknown #
point $-1 -42.116201301449053 19.428832423438202 6.0142989299422709 #
point $-1 -42.116201301449053 11.609267619249557 6.0142989299422709 #
edge $-1 $386 1 $386 0 $211 $-1 forward 7 unknown #
vertex $-1 $212 $387 #
ellipse-curve $-1 -38.148177477186501 14.536038688256049 1.872754117664444 0 0.57357644374324357 0.81915203911291934 1.5 0 0 1 I I #
point $-1 -36.648177477186501 15.51905002134389 3.2766397666547147 #
edge $-1 $388 1 $388 0 $215 $-1 forward 7 unknown #
vertex $-1 $216 $389 #
ellipse-curve $-1 -32.196141740792669 14.536038688256049 1.872754117664444 0 0.57357644374324357 0.81915203911291934 1.5 0 0 1 I I #
point $-1 -30.696141740792669 15.51905002134389 3.2766397666547147 #
loop $-1 $-1 $327 $219 #
plane-surface $-1 -42.11620130144906 -16.792783686101735 0 -1 0 0 0 0 1 forward_v I I I I #
coedge $-1 $230 $225 $390 $391 forward $220 $-1 #
coedge $-1 $227 $222 $326 $392 forward $139 $-1 #
coedge $-1 $222 $227 $230 $334 reversed $139 $-1 #
coedge $-1 $390 $327 $222 $325 reversed $319 $-1 #
edge $-1 $393 33.708085504449357 $394 39.183403831024478 $222 $395 forward 7 unknown #
coedge $-1 $224 $223 $322 $392 reversed $87 $-1 #
coedge $-1 $324 $390 $224 $328 forward $319 $-1 #
edge $-1 $329 -8.6208370081137531 $394 0.92508906033214289 $327 $396 forward 7 unknown #
vertex $-1 $226 $397 #
straight-curve $-1 -17.586079804494794 -11.609267619249572 6.0142989299422709 -1 0 0 I I #
vertex $-1 $228 $398 #
straight-curve $-1 -28.22811791653012 -19.428832423438202 39.722384434391628 0 0 1 I I #
straight-curve $-1 -28.22811791653012 -19.428832423438202 0.53898060336715048 0 -0.81915203911291934 -0.57357644374324357 I I #
edge $-1 $393 -42.116201301449053 $231 -28.22811791653012 $323 $399 forward 7 unknown #
point $-1 -28.22811791653012 -19.428832423438202 6.0142989299422709 #
point $-1 -28.22811791653012 -11.609267619249572 6.0142989299422709 #
edge $-1 $400 1 $400 0 $234 $-1 forward 7 unknown #
vertex $-1 $235 $401 #
ellipse-curve $-1 -38.148177477186501 -14.536038688256053 1.8727541176644449 0 -0.57357644374324357 0.81915203911291934 1.5 0 0 1 I I #
point $-1 -36.648177477186501 -15.519050021343894 3.2766397666547156 #
edge $-1 $402 1 $402 0 $238 $-1 forward 7 unknown #
vertex $-1 $239 $403 #
ellipse-curve $-1 -32.196141740792669 -14.536038688256053 1.8727541176644449 0 -0.57357644374324357 0.81915203911291934 1.5 0 0 1 I I #
point $-1 -30.696141740792669 -15.519050021343894 3.2766397666547156 #
plane-surface $-1 48.163090914639731 0 0 -1 0 0 0 0 1 forward_v I I I I #
coedge $-1 $247 $245 $249 $350 reversed $161 $-1 #
edge $-1 $260 -6.0142989299422709 $352 6.0142989299422709 $259 $404 forward 7 unknown #
vertex $-1 $350 $405 #
straight-curve $-1 -48.163090914639731 -19.428832423438202 0 0 0 -1 I I #
edge $-1 $348 -19.428832423438202 $352 19.428832423438202 $346 $406 forward 7 unknown #
straight-curve $-1 0 -19.428832423438202 -6.0142989299422709 -1 0 0 I I #
vertex $-1 $252 $407 #
straight-curve $-1 0 19.428832423438202 -6.0142989299422709 1 0 0 I I #
point $-1 48.163090914639731 19.428832423438202 -6.0142989299422709 #
point $-1 48.163090914639731 -19.428832423438202 -6.0142989299422709 #
straight-curve $-1 -48.163090914639731 0 6.0142989299422709 0 -1 0 I I #
point $-1 -48.163090914639731 19.428832423438202 6.0142989299422709 #
point $-1 -48.163090914639731 -19.428832423438202 6.0142989299422709 #
straight-curve $-1 48.163090914639731 -19.428832423438202 0 0 0 -1 I I #
straight-curve $-1 48.163090914639731 19.428832423438202 0 0 0 -1 I I #
plane-surface $-1 -48.163090914639731 0 0 1 0 0 0 0 -1 forward_v I I I I #
coedge $-1 $272 $276 $281 $372 forward $180 $-1 #
edge $-1 $408 -25.593267860617534 $286 -19.546378247426862 $272 $409 forward 7 unknown #
coedge $-1 $274 $273 $370 $410 reversed $109 $-1 #
edge $-1 $289 19.546378247426862 $411 25.593267860617534 $288 $412 forward 7 unknown #
straight-curve $-1 -42.11620130144906 -15.292783686101735 0 0 0 -1 I I #
straight-curve $-1 -22.569823054022198 -18.292783686101735 -6.0142989299422709 -1 0 0 I I #
coedge $-1 $278 $288 $280 $371 forward $270 $-1 #
straight-curve $-1 -22.569823054022198 -18.292783686101735 6.0142989299422709 1 0 0 I I #
coedge $-1 $281 $280 $364 $410 forward $282 $-1 #
edge $-1 $411 15.292783686101735 $284 18.292783686101735 $280 $413 forward 7 unknown #
edge $-1 $283 -18.292783686101735 $408 -15.292783686101735 $281 $414 forward 7 unknown #
point $-1 -48.163090914639731 -18.292783686101735 -6.0142989299422709 #
point $-1 -48.163090914639731 -18.292783686101735 6.0142989299422709 #
point $-1 -42.11620130144906 -15.292783686101735 -6.0142989299422709 #
point $-1 -42.11620130144906 -15.292783686101735 6.0142989299422709 #
edge $-1 $378 44.852006111968464 $381 50.327324438543592 $294 $415 forward 7 unknown #
vertex $-1 $308 $416 #
straight-curve $-1 -28.22811791653012 21.424462920978073 6.0142989299422709 0 1 0 I I #
edge $-1 $381 10.642038112035326 $305 24.530121496954258 $304 $417 forward 7 unknown #
vertex $-1 $380 $418 #
straight-curve $-1 -28.22811791653012 -12.401502971047016 22.826821818405364 0 -0.81915203911291934 0.57357644374324357 I I #
point $-1 -28.22811791653012 11.609267619249557 6.0142989299422709 #
point $-1 -42.116201301449053 19.428832423438202 0.53898060336714337 #
straight-curve $-1 0 19.428832423438202 6.0142989299422709 -1 0 0 I I #
vertex $-1 $311 $419 #
point $-1 -36.648177477186501 14.536038688256049 1.872754117664444 #
vertex $-1 $315 $420 #
point $-1 -30.696141740792669 14.536038688256049 1.872754117664444 #
coedge $-1 $327 $324 $321 $391 reversed $319 $-1 #
edge $-1 $329 -25.73036299897111 $393 -17.91079819478248 $321 $421 forward 7 unknown #
edge $-1 $394 -24.530121496954258 $331 -10.642038112035326 $322 $422 forward 7 unknown #
vertex $-1 $334 $423 #
vertex $-1 $325 $424 #
straight-curve $-1 -42.116201301449053 -19.428832423438202 39.722384434391628 0 0 -1 I I #
straight-curve $-1 -42.11620130144906 -18.671043833306072 1.0695898967382396 0 -0.81915203911291934 -0.57357644374324357 I I #
point $-1 -42.116201301449053 -11.609267619249572 6.0142989299422709 #
point $-1 -28.22811791653012 -19.428832423438202 0.53898060336715048 #
straight-curve $-1 0 -19.428832423438202 6.0142989299422709 1 0 0 I I #
vertex $-1 $337 $425 #
point $-1 -36.648177477186501 -14.536038688256053 1.8727541176644449 #
vertex $-1 $341 $426 #
point $-1 -30.696141740792669 -14.536038688256053 1.8727541176644449 #
straight-curve $-1 -48.163090914639731 19.428832423438202 0 0 0 -1 I I #
point $-1 -48.163090914639731 -19.428832423438202 -6.0142989299422709 #
straight-curve $-1 -48.163090914639731 0 -6.0142989299422709 0 1 0 I I #
point $-1 -48.163090914639731 19.428832423438202 -6.0142989299422709 #
vertex $-1 $410 $427 #
straight-curve $-1 -22.569823054022198 -15.292783686101735 -6.0142989299422709 1 0 0 I I #
edge $-1 $411 -6.0142989299422709 $408 6.0142989299422709 $370 $428 forward 7 unknown #
vertex $-1 $371 $429 #
straight-curve $-1 -22.569823054022198 -15.292783686101735 6.0142989299422709 -1 0 0 I I #
straight-curve $-1 -48.163090914639731 0 6.0142989299422709 0 -1 0 I I #
straight-curve $-1 -48.163090914639731 0 -6.0142989299422709 0 1 0 I I #
straight-curve $-1 -28.22811791653012 19.428832423438202 50.866305041910735 0 0 -1 I I #
point $-1 -28.22811791653012 19.428832423438202 6.0142989299422709 #
straight-curve $-1 -17.586079804494794 19.428832423438202 0.5389806033671416 -1 0 0 I I #
point $-1 -28.22811791653012 19.428832423438202 0.53898060336714337 #
point $-1 -38.148177477186501 13.675674022641182 0.64402605899506504 #
point $-1 -32.196141740792669 13.675674022641182 0.64402605899506504 #
straight-curve $-1 -42.116201301449053 -37.339630618220681 6.0142989299422709 0 -1 0 I I #
straight-curve $-1 -17.586079804494794 -19.428832423438202 0.53898060336715081 1 0 0 I I #
point $-1 -42.116201301449053 -19.428832423438202 6.0142989299422709 #
point $-1 -42.116201301449053 -19.428832423438202 0.53898060336715048 #
point $-1 -38.148177477186501 -13.675674022641186 0.64402605899506593 #
point $-1 -32.196141740792669 -13.675674022641186 0.64402605899506593 #
point $-1 -48.163090914639731 -15.292783686101735 -6.0142989299422709 #
straight-curve $-1 -48.163090914639731 -15.292783686101735 0 0 0 -1 I I #
point $-1 -48.163090914639731 -15.292783686101735 6.0142989299422709 #
End-of-ACIS-data 