500 0 12 0           
7 Unknown 11 ACIS 5.0 NT 24 Thu Mar 25 20:35:55 1999 
-1 9.9999999999999995e-007 1e-010 
body $-1 $12 $-1 $13 #
body $-1 $14 $-1 $15 #
body $-1 $16 $-1 $17 #
body $-1 $18 $-1 $19 #
body $-1 $20 $-1 $21 #
body $-1 $22 $-1 $23 #
body $-1 $24 $-1 $25 #
body $-1 $26 $-1 $27 #
body $-1 $28 $-1 $29 #
body $-1 $30 $-1 $31 #
body $-1 $32 $-1 $33 #
body $-1 $34 $-1 $35 #
lump $-1 $-1 $36 $0 #
transform $-1 1 0 0 0 1 0 0 0 1 65.33524582659382 26.228012637056565 6.6333250991714667 1 rotate no_reflect no_shear #
lump $-1 $-1 $37 $1 #
transform $-1 1 0 0 0 1 0 0 0 1 65.33524582659382 26.228012637056565 6.6333250991714667 1 rotate no_reflect no_shear #
lump $-1 $-1 $38 $2 #
transform $-1 1 0 0 0 1 0 0 0 1 65.33524582659382 26.228012637056565 6.6333250991714667 1 rotate no_reflect no_shear #
lump $-1 $-1 $39 $3 #
transform $-1 1 0 0 0 1 0 0 0 1 65.33524582659382 26.228012637056565 6.6333250991714667 1 rotate no_reflect no_shear #
lump $-1 $-1 $40 $4 #
transform $-1 1 0 0 0 1 0 0 0 1 65.33524582659382 26.228012637056565 6.6333250991714667 1 rotate no_reflect no_shear #
lump $-1 $-1 $41 $5 #
transform $-1 1 0 0 0 1 0 0 0 1 65.33524582659382 26.228012637056565 6.6333250991714667 1 rotate no_reflect no_shear #
lump $-1 $-1 $42 $6 #
transform $-1 1 0 0 0 1 0 0 0 1 65.33524582659382 26.228012637056565 6.6333250991714667 1 rotate no_reflect no_shear #
lump $-1 $-1 $43 $7 #
transform $-1 1 0 0 0 1 0 0 0 1 65.33524582659382 26.228012637056565 6.6333250991714667 1 rotate no_reflect no_shear #
lump $-1 $-1 $44 $8 #
transform $-1 1 0 0 0 1 0 0 0 1 65.33524582659382 26.228012637056565 6.6333250991714667 1 rotate no_reflect no_shear #
lump $-1 $-1 $45 $9 #
transform $-1 1 0 0 0 1 0 0 0 1 65.33524582659382 26.228012637056565 6.6333250991714667 1 rotate no_reflect no_shear #
lump $-1 $-1 $46 $10 #
transform $-1 1 0 0 0 1 0 0 0 1 65.33524582659382 26.228012637056565 6.6333250991714667 1 rotate no_reflect no_shear #
lump $-1 $-1 $47 $11 #
transform $-1 1 0 0 0 1 0 0 0 1 65.33524582659382 26.228012637056565 6.6333250991714667 1 rotate no_reflect no_shear #
shell $-1 $-1 $-1 $48 $-1 $12 #
shell $-1 $-1 $-1 $49 $-1 $14 #
shell $-1 $-1 $-1 $50 $-1 $16 #
shell $-1 $-1 $-1 $51 $-1 $18 #
shell $-1 $-1 $-1 $52 $-1 $20 #
shell $-1 $-1 $-1 $53 $-1 $22 #
shell $-1 $-1 $-1 $54 $-1 $24 #
shell $-1 $-1 $-1 $55 $-1 $26 #
shell $-1 $-1 $-1 $56 $-1 $28 #
shell $-1 $-1 $-1 $57 $-1 $30 #
shell $-1 $-1 $-1 $58 $-1 $32 #
shell $-1 $-1 $-1 $59 $-1 $34 #
face $-1 $60 $61 $36 $-1 $62 forward single #
face $-1 $63 $64 $37 $-1 $65 reversed single #
face $-1 $66 $67 $38 $-1 $68 forward single #
face $-1 $69 $70 $39 $-1 $71 forward single #
face $-1 $72 $73 $40 $-1 $74 reversed single #
face $-1 $75 $76 $41 $-1 $77 forward single #
face $-1 $78 $79 $42 $-1 $80 forward single #
face $-1 $81 $82 $43 $-1 $83 forward single #
face $-1 $84 $85 $44 $-1 $86 reversed single #
face $-1 $87 $88 $45 $-1 $89 forward single #
face $-1 $90 $91 $46 $-1 $92 forward single #
face $-1 $93 $94 $47 $-1 $95 forward single #
face $-1 $96 $97 $36 $-1 $98 reversed single #
loop $-1 $-1 $99 $48 #
plane-surface $-1 0 0 6.6333250991714667 0 0 1 1 0 0 forward_v I I I I #
face $-1 $100 $101 $37 $-1 $102 reversed single #
loop $-1 $-1 $103 $49 #
plane-surface $-1 19.53020092003003 -113.6636390017416 98.227134682806579 -1 0 0 0 -0.66913061440640931 0.74314481823134659 forward_v I I I I #
face $-1 $104 $105 $38 $-1 $106 forward single #
loop $-1 $107 $108 $50 #
cone-surface $-1 -6.9261741660897513 -22.302513226623603 2.9171829561185572 0 0.66913061440640931 -0.74314481823134659 1 0 0 1 I I 0 1 1 forward I I I I #
face $-1 $109 $110 $39 $-1 $111 forward single #
loop $-1 $112 $113 $51 #
cone-surface $-1 8.9476508855821066 -22.302513226623603 2.9171829561185572 0 0.66913061440640931 -0.74314481823134659 1 0 0 1 I I 0 1 1 forward I I I I #
face $-1 $114 $115 $40 $-1 $116 reversed single #
loop $-1 $-1 $117 $52 #
plane-surface $-1 -26.648120179000816 70.037740334141404 135.41698354713404 1 0 0 0 -0.64278761758704617 -0.76604443648966558 forward_v I I I I #
face $-1 $118 $119 $41 $-1 $120 forward single #
loop $-1 $121 $122 $53 #
cone-surface $-1 -22.995072992075379 21.664247497488915 2.2522417292098371 0 -0.64278761758704617 -0.76604443648966558 1.5 0 0 1 I I 0 1 1.5 forward I I I I #
face $-1 $123 $124 $42 $-1 $125 forward single #
loop $-1 $126 $127 $54 #
cone-surface $-1 -17.515502211687213 21.664247497488915 2.2522417292098371 0 -0.64278761758704617 -0.76604443648966558 1.5 0 0 1 I I 0 1 1.5 forward I I I I #
face $-1 $128 $129 $43 $-1 $130 forward single #
loop $-1 $131 $132 $55 #
cone-surface $-1 -12.035931431299048 21.664247497488915 2.2522417292098371 0 -0.64278761758704617 -0.76604443648966558 1.5 0 0 1 I I 0 1 1.5 forward I I I I #
face $-1 $133 $134 $44 $-1 $135 reversed single #
loop $-1 $-1 $136 $56 #
plane-surface $-1 8.38288424437361 70.037740334141404 135.41698354713404 1 0 0 0 -0.64278761758704617 -0.76604443648966558 forward_v I I I I #
face $-1 $137 $138 $45 $-1 $139 forward single #
loop $-1 $140 $141 $57 #
cone-surface $-1 12.035931431299048 21.664247497488915 2.2522417292098371 0 -0.64278761758704617 -0.76604443648966558 1.5 0 0 1 I I 0 1 1.5 forward I I I I #
face $-1 $142 $143 $46 $-1 $144 forward single #
loop $-1 $145 $146 $58 #
cone-surface $-1 17.51550221168722 21.664247497488915 2.2522417292098371 0 -0.64278761758704617 -0.76604443648966558 1.5 0 0 1 I I 0 1 1.5 forward I I I I #
face $-1 $147 $148 $47 $-1 $149 forward single #
loop $-1 $150 $151 $59 #
cone-surface $-1 22.995072992075379 21.664247497488915 2.2522417292098371 0 -0.64278761758704617 -0.76604443648966558 1.5 0 0 1 I I 0 1 1.5 forward I I I I #
face $-1 $152 $153 $36 $-1 $154 reversed single #
loop $-1 $-1 $155 $60 #
plane-surface $-1 0 0 -6.6333250991714667 0 0 1 1 0 0 forward_v I I I I #
coedge $-1 $156 $157 $158 $159 forward $61 $-1 #
face $-1 $160 $161 $37 $-1 $162 reversed single #
loop $-1 $-1 $163 $63 #
plane-surface $-1 1.0107383597461848 -26.22801263705658 1.1200359149977572 0 -0.66913061440640931 0.74314481823134659 1 0 0 forward_v I I I I #
coedge $-1 $164 $165 $166 $167 reversed $64 $-1 #
face $-1 $-1 $168 $38 $-1 $169 forward single #
loop $-1 $170 $171 $66 #
cone-surface $-1 -6.9261741660897513 -21.104012425222432 1.586112996036837 0 0.66913061440640931 -0.74314481823134659 0.5 0 0 1 I I -0.70710678118654746 0.70710678118654746 0.5 forward I I I I #
loop $-1 $-1 $172 $50 #
coedge $-1 $108 $108 $173 $174 reversed $67 $-1 #
face $-1 $-1 $175 $39 $-1 $176 forward single #
loop $-1 $177 $178 $69 #
cone-surface $-1 8.9476508855821066 -21.104012425222432 1.586112996036837 0 0.66913061440640931 -0.74314481823134659 0.5 0 0 1 I I -0.70710678118654746 0.70710678118654746 0.5 forward I I I I #
loop $-1 $-1 $179 $51 #
coedge $-1 $113 $113 $180 $181 reversed $70 $-1 #
face $-1 $182 $183 $40 $-1 $184 reversed single #
loop $-1 $-1 $185 $72 #
plane-surface $-1 -17.515502211687206 -13.95563368453908 35.317580402840363 0 0.64278761758704617 0.76604443648966558 1 0 0 forward_v I I I I #
coedge $-1 $186 $187 $188 $189 reversed $73 $-1 #
face $-1 $-1 $190 $41 $-1 $191 forward single #
loop $-1 $192 $193 $75 #
cone-surface $-1 -22.995072992075379 19.617933009007494 -0.18646086293695241 0 -0.64278761758704617 -0.76604443648966558 0.75 0 0 1 I I -0.70710678118654757 0.70710678118654757 0.75 forward I I I I #
loop $-1 $-1 $194 $53 #
coedge $-1 $122 $122 $195 $196 reversed $76 $-1 #
face $-1 $-1 $197 $42 $-1 $198 forward single #
loop $-1 $199 $200 $78 #
cone-surface $-1 -17.515502211687213 19.617933009007494 -0.18646086293695241 0 -0.64278761758704617 -0.76604443648966558 0.75 0 0 1 I I -0.70710678118654757 0.70710678118654757 0.75 forward I I I I #
loop $-1 $-1 $201 $54 #
coedge $-1 $127 $127 $202 $203 reversed $79 $-1 #
face $-1 $-1 $204 $43 $-1 $205 forward single #
loop $-1 $206 $207 $81 #
cone-surface $-1 -12.035931431299048 19.617933009007494 -0.18646086293695241 0 -0.64278761758704617 -0.76604443648966558 0.75 0 0 1 I I -0.70710678118654757 0.70710678118654757 0.75 forward I I I I #
loop $-1 $-1 $208 $55 #
coedge $-1 $132 $132 $209 $210 reversed $82 $-1 #
face $-1 $211 $212 $44 $-1 $213 reversed single #
loop $-1 $-1 $214 $84 #
plane-surface $-1 17.51550221168722 -13.95563368453908 35.317580402840363 0 0.64278761758704617 0.76604443648966558 1 0 0 forward_v I I I I #
coedge $-1 $215 $216 $217 $218 reversed $85 $-1 #
face $-1 $-1 $219 $45 $-1 $220 forward single #
loop $-1 $221 $222 $87 #
cone-surface $-1 12.035931431299048 19.617933009007494 -0.18646086293695241 0 -0.64278761758704617 -0.76604443648966558 0.75 0 0 1 I I -0.70710678118654757 0.70710678118654757 0.75 forward I I I I #
loop $-1 $-1 $223 $57 #
coedge $-1 $141 $141 $224 $225 reversed $88 $-1 #
face $-1 $-1 $226 $46 $-1 $227 forward single #
loop $-1 $228 $229 $90 #
cone-surface $-1 17.51550221168722 19.617933009007494 -0.18646086293695241 0 -0.64278761758704617 -0.76604443648966558 0.75 0 0 1 I I -0.70710678118654757 0.70710678118654757 0.75 forward I I I I #
loop $-1 $-1 $230 $58 #
coedge $-1 $146 $146 $231 $232 reversed $91 $-1 #
face $-1 $-1 $233 $47 $-1 $234 forward single #
loop $-1 $235 $236 $93 #
cone-surface $-1 22.995072992075379 19.617933009007494 -0.18646086293695241 0 -0.64278761758704617 -0.76604443648966558 0.75 0 0 1 I I -0.70710678118654757 0.70710678118654757 0.75 forward I I I I #
loop $-1 $-1 $237 $59 #
coedge $-1 $151 $151 $238 $239 reversed $94 $-1 #
face $-1 $240 $241 $36 $-1 $242 reversed single #
loop $-1 $-1 $243 $96 #
plane-surface $-1 0 -26.228012637056565 0 0 1 0 0 0 1 forward_v I I I I #
coedge $-1 $244 $245 $246 $247 forward $97 $-1 #
coedge $-1 $248 $99 $249 $250 forward $61 $-1 #
coedge $-1 $99 $248 $251 $252 forward $61 $-1 #
coedge $-1 $253 $254 $99 $159 reversed $255 $-1 #
edge $-1 $256 -26.228012637056565 $257 26.228012637056565 $158 $258 forward 7 unknown #
face $-1 $259 $260 $37 $-1 $261 reversed single #
loop $-1 $-1 $262 $100 #
plane-surface $-1 -17.50872420053766 -113.6636390017416 98.227134682806579 1 0 0 0 0.66913061440640931 -0.74314481823134659 forward_v I I I I #
coedge $-1 $263 $264 $265 $266 reversed $101 $-1 #
coedge $-1 $165 $103 $267 $268 reversed $64 $-1 #
coedge $-1 $103 $164 $263 $269 reversed $64 $-1 #
coedge $-1 $265 $270 $103 $167 forward $271 $-1 #
edge $-1 $272 30.603806863814235 $273 36.726934696284196 $166 $274 forward 7 unknown #
loop $-1 $-1 $173 $104 #
plane-surface $-1 1.0107383597461848 -26.22801263705658 1.1200359149977572 0 -0.66913061440640931 0.74314481823134659 1 0 0 forward_v I I I I #
loop $-1 $-1 $275 $66 #
coedge $-1 $171 $171 $172 $276 reversed $105 $-1 #
coedge $-1 $172 $172 $171 $276 forward $107 $-1 #
coedge $-1 $173 $173 $108 $174 forward $168 $-1 #
edge $-1 $277 -2.4798367211573728e-015 $277 6.2831853071795978 $173 $278 forward 7 unknown #
loop $-1 $-1 $180 $109 #
plane-surface $-1 1.0107383597461848 -26.22801263705658 1.1200359149977572 0 -0.66913061440640931 0.74314481823134659 1 0 0 forward_v I I I I #
loop $-1 $-1 $279 $69 #
coedge $-1 $178 $178 $179 $280 reversed $110 $-1 #
coedge $-1 $179 $179 $178 $280 forward $112 $-1 #
coedge $-1 $180 $180 $113 $181 forward $175 $-1 #
edge $-1 $281 -2.4798367211573728e-015 $281 6.2831853071795978 $180 $282 forward 7 unknown #
face $-1 $283 $284 $40 $-1 $285 reversed single #
loop $-1 $-1 $286 $114 #
plane-surface $-1 -8.3828842443735958 70.037740334141404 135.41698354713404 -1 0 0 0 0.64278761758704617 0.76604443648966558 forward_v I I I I #
coedge $-1 $287 $288 $289 $290 reversed $115 $-1 #
coedge $-1 $187 $117 $291 $292 reversed $73 $-1 #
coedge $-1 $117 $186 $287 $293 reversed $73 $-1 #
coedge $-1 $289 $294 $117 $189 forward $295 $-1 #
edge $-1 $296 8.7908575300141365 $297 14.789940258567157 $188 $298 forward 7 unknown #
loop $-1 $-1 $195 $118 #
plane-surface $-1 -17.515502211687206 -13.95563368453908 35.317580402840363 0 0.64278761758704617 0.76604443648966558 1 0 0 forward_v I I I I #
loop $-1 $-1 $299 $75 #
coedge $-1 $193 $193 $194 $300 reversed $119 $-1 #
coedge $-1 $194 $194 $193 $300 forward $121 $-1 #
coedge $-1 $195 $195 $122 $196 forward $190 $-1 #
edge $-1 $301 -9.6446830895521031e-016 $301 6.2831853071795996 $195 $302 forward 7 unknown #
loop $-1 $-1 $202 $123 #
plane-surface $-1 -17.515502211687206 -13.95563368453908 35.317580402840363 0 0.64278761758704617 0.76604443648966558 1 0 0 forward_v I I I I #
loop $-1 $-1 $303 $78 #
coedge $-1 $200 $200 $201 $304 reversed $124 $-1 #
coedge $-1 $201 $201 $200 $304 forward $126 $-1 #
coedge $-1 $202 $202 $127 $203 forward $197 $-1 #
edge $-1 $305 -9.6446830895521031e-016 $305 6.2831853071795996 $202 $306 forward 7 unknown #
loop $-1 $-1 $209 $128 #
plane-surface $-1 -17.515502211687206 -13.95563368453908 35.317580402840363 0 0.64278761758704617 0.76604443648966558 1 0 0 forward_v I I I I #
loop $-1 $-1 $307 $81 #
coedge $-1 $207 $207 $208 $308 reversed $129 $-1 #
coedge $-1 $208 $208 $207 $308 forward $131 $-1 #
coedge $-1 $209 $209 $132 $210 forward $204 $-1 #
edge $-1 $309 -9.6446830895521031e-016 $309 6.2831853071795996 $209 $310 forward 7 unknown #
face $-1 $311 $312 $44 $-1 $313 forward single #
loop $-1 $-1 $314 $133 #
plane-surface $-1 26.648120179000831 70.037740334141404 135.41698354713404 -1 0 0 0 0.64278761758704617 0.76604443648966558 forward_v I I I I #
coedge $-1 $315 $316 $317 $318 reversed $134 $-1 #
coedge $-1 $216 $136 $319 $320 reversed $85 $-1 #
coedge $-1 $136 $215 $315 $321 reversed $85 $-1 #
coedge $-1 $317 $322 $136 $218 forward $312 $-1 #
edge $-1 $323 8.7908575300141365 $324 14.789940258567157 $217 $325 forward 7 unknown #
loop $-1 $-1 $224 $137 #
plane-surface $-1 17.51550221168722 -13.95563368453908 35.317580402840363 0 0.64278761758704617 0.76604443648966558 1 0 0 forward_v I I I I #
loop $-1 $-1 $326 $87 #
coedge $-1 $222 $222 $223 $327 reversed $138 $-1 #
coedge $-1 $223 $223 $222 $327 forward $140 $-1 #
coedge $-1 $224 $224 $141 $225 forward $219 $-1 #
edge $-1 $328 -9.6446830895521031e-016 $328 6.2831853071795996 $224 $329 forward 7 unknown #
loop $-1 $-1 $231 $142 #
plane-surface $-1 17.51550221168722 -13.95563368453908 35.317580402840363 0 0.64278761758704617 0.76604443648966558 1 0 0 forward_v I I I I #
loop $-1 $-1 $330 $90 #
coedge $-1 $229 $229 $230 $331 reversed $143 $-1 #
coedge $-1 $230 $230 $229 $331 forward $145 $-1 #
coedge $-1 $231 $231 $146 $232 forward $226 $-1 #
edge $-1 $332 -9.6446830895521031e-016 $332 6.2831853071795996 $231 $333 forward 7 unknown #
loop $-1 $-1 $238 $147 #
plane-surface $-1 17.51550221168722 -13.95563368453908 35.317580402840363 0 0.64278761758704617 0.76604443648966558 1 0 0 forward_v I I I I #
loop $-1 $-1 $334 $93 #
coedge $-1 $236 $236 $237 $335 reversed $148 $-1 #
coedge $-1 $237 $237 $236 $335 forward $150 $-1 #
coedge $-1 $238 $238 $151 $239 forward $233 $-1 #
edge $-1 $336 -9.6446830895521031e-016 $336 6.2831853071795996 $238 $337 forward 7 unknown #
face $-1 $338 $339 $36 $-1 $340 reversed single #
loop $-1 $-1 $341 $152 #
plane-surface $-1 -65.33524582659382 0 0 1 0 0 0 0 -1 forward_v I I I I #
coedge $-1 $342 $251 $343 $344 forward $153 $-1 #
coedge $-1 $345 $155 $342 $346 forward $97 $-1 #
coedge $-1 $155 $345 $347 $348 forward $97 $-1 #
coedge $-1 $254 $253 $155 $247 reversed $255 $-1 #
edge $-1 $349 -26.228012637056565 $350 26.228012637056565 $246 $351 forward 7 unknown #
coedge $-1 $157 $156 $352 $353 forward $61 $-1 #
coedge $-1 $354 $355 $156 $250 reversed $339 $-1 #
edge $-1 $257 -65.33524582659382 $356 65.33524582659382 $249 $357 forward 7 unknown #
coedge $-1 $243 $358 $157 $252 reversed $153 $-1 #
edge $-1 $359 -65.33524582659382 $256 65.33524582659382 $251 $360 forward 7 unknown #
coedge $-1 $246 $158 $358 $361 forward $255 $-1 #
coedge $-1 $158 $246 $354 $362 reversed $255 $-1 #
loop $-1 $-1 $253 $338 #
vertex $-1 $159 $363 #
vertex $-1 $159 $364 #
straight-curve $-1 65.33524582659382 0 6.6333250991714667 0 1 0 I I #
face $-1 $-1 $271 $37 $-1 $365 forward single #
loop $-1 $-1 $366 $160 #
plane-surface $-1 0 -26.228012637056565 0 0 1 0 0 0 1 forward_v I I I I #
coedge $-1 $367 $368 $369 $370 reversed $161 $-1 #
coedge $-1 $371 $163 $165 $269 forward $101 $-1 #
coedge $-1 $163 $371 $367 $372 forward $101 $-1 #
coedge $-1 $369 $166 $163 $266 forward $271 $-1 #
edge $-1 $273 -19.024831740156937 $373 18.014093380410753 $265 $374 forward 7 unknown #
coedge $-1 $375 $376 $164 $268 forward $260 $-1 #
edge $-1 $377 -47.993531426405518 $272 -42.480242242231824 $267 $378 forward 7 unknown #
edge $-1 $273 -8.2394812992745656 $377 -1.9178179933549516e-014 $165 $379 forward 7 unknown #
coedge $-1 $166 $369 $375 $380 forward $271 $-1 #
loop $-1 $-1 $369 $259 #
vertex $-1 $268 $381 #
vertex $-1 $167 $382 #
straight-curve $-1 19.53020092003003 -56.8318195008708 6.633325099171465 0 1 0 I I #
coedge $-1 $275 $275 $-1 $383 reversed $170 $-1 #
edge $-1 $384 0 $384 6.2831853071796004 $171 $385 forward 7 unknown #
vertex $-1 $174 $386 #
ellipse-curve $-1 -6.9261741660897513 -23.166448720821581 3.8766805070846195 0 -0.66913061440640931 0.74314481823134659 1 0 0 1 I I #
coedge $-1 $279 $279 $-1 $387 reversed $177 $-1 #
edge $-1 $388 0 $388 6.2831853071796004 $178 $389 forward 7 unknown #
vertex $-1 $181 $390 #
ellipse-curve $-1 8.9476508855821066 -23.166448720821581 3.8766805070846195 0 -0.66913061440640931 0.74314481823134659 1 0 0 1 I I #
face $-1 $-1 $295 $40 $-1 $391 forward single #
loop $-1 $-1 $392 $182 #
plane-surface $-1 0 26.228012637056565 0 0 -1 0 0 0 -1 forward_v I I I I #
coedge $-1 $393 $394 $395 $396 reversed $183 $-1 #
coedge $-1 $397 $185 $187 $293 forward $115 $-1 #
coedge $-1 $185 $397 $393 $398 forward $115 $-1 #
coedge $-1 $395 $188 $185 $290 forward $295 $-1 #
edge $-1 $297 -17.890369073157213 $399 0.37486686147000725 $289 $400 forward 7 unknown #
coedge $-1 $401 $402 $186 $292 forward $284 $-1 #
edge $-1 $403 -66.10899488475971 $296 -61.075166674395554 $291 $404 forward 7 unknown #
edge $-1 $297 44.624778883181399 $403 52.456025274113124 $187 $405 forward 7 unknown #
coedge $-1 $188 $395 $401 $406 forward $295 $-1 #
loop $-1 $-1 $395 $283 #
vertex $-1 $292 $407 #
vertex $-1 $189 $408 #
straight-curve $-1 -26.648120179000816 35.018870167070702 6.6333250991714721 0 -1 0 I I #
coedge $-1 $299 $299 $-1 $409 reversed $192 $-1 #
edge $-1 $410 0 $410 6.2831853071796004 $193 $411 forward 7 unknown #
vertex $-1 $196 $412 #
ellipse-curve $-1 -22.995072992075379 23.228471272780059 4.1164109939893843 0 0.64278761758704617 0.76604443648966558 1.5 0 0 1 I I #
coedge $-1 $303 $303 $-1 $413 reversed $199 $-1 #
edge $-1 $414 0 $414 6.2831853071796004 $200 $415 forward 7 unknown #
vertex $-1 $203 $416 #
ellipse-curve $-1 -17.515502211687213 23.228471272780059 4.1164109939893843 0 0.64278761758704617 0.76604443648966558 1.5 0 0 1 I I #
coedge $-1 $307 $307 $-1 $417 reversed $206 $-1 #
edge $-1 $418 0 $418 6.2831853071796004 $207 $419 forward 7 unknown #
vertex $-1 $210 $420 #
ellipse-curve $-1 -12.035931431299048 23.228471272780059 4.1164109939893843 0 0.64278761758704617 0.76604443648966558 1.5 0 0 1 I I #
face $-1 $-1 $421 $44 $-1 $422 reversed single #
loop $-1 $-1 $217 $211 #
plane-surface $-1 0 0 6.6333250991714667 0 0 1 1 0 0 forward_v I I I I #
coedge $-1 $423 $424 $425 $426 reversed $212 $-1 #
coedge $-1 $427 $214 $216 $321 forward $134 $-1 #
coedge $-1 $214 $427 $423 $428 forward $134 $-1 #
coedge $-1 $425 $217 $214 $318 forward $312 $-1 #
edge $-1 $324 -0.37486686147000015 $429 17.89036907315722 $317 $430 forward 7 unknown #
coedge $-1 $431 $432 $215 $320 forward $421 $-1 #
edge $-1 $433 -66.10899488475971 $323 -61.075166674395554 $319 $434 forward 7 unknown #
edge $-1 $324 44.624778883181399 $433 52.456025274113124 $216 $435 forward 7 unknown #
coedge $-1 $217 $425 $431 $436 forward $312 $-1 #
vertex $-1 $218 $437 #
vertex $-1 $218 $438 #
straight-curve $-1 8.38288424437361 35.018870167070702 6.6333250991714721 0 -1 0 I I #
coedge $-1 $326 $326 $-1 $439 reversed $221 $-1 #
edge $-1 $440 0 $440 6.2831853071796004 $222 $441 forward 7 unknown #
vertex $-1 $225 $442 #
ellipse-curve $-1 12.035931431299048 23.228471272780059 4.1164109939893843 0 0.64278761758704617 0.76604443648966558 1.5 0 0 1 I I #
coedge $-1 $330 $330 $-1 $443 reversed $228 $-1 #
edge $-1 $444 0 $444 6.2831853071796004 $229 $445 forward 7 unknown #
vertex $-1 $232 $446 #
ellipse-curve $-1 17.51550221168722 23.228471272780059 4.1164109939893843 0 0.64278761758704617 0.76604443648966558 1.5 0 0 1 I I #
coedge $-1 $334 $334 $-1 $447 reversed $235 $-1 #
edge $-1 $448 0 $448 6.2831853071796004 $236 $449 forward 7 unknown #
vertex $-1 $239 $450 #
ellipse-curve $-1 22.995072992075379 23.228471272780059 4.1164109939893843 0 0.64278761758704617 0.76604443648966558 1.5 0 0 1 I I #
face $-1 $-1 $255 $36 $-1 $451 reversed single #
loop $-1 $-1 $354 $240 #
plane-surface $-1 0 26.228012637056565 0 0 -1 0 0 0 -1 forward_v I I I I #
coedge $-1 $452 $352 $355 $453 forward $241 $-1 #
coedge $-1 $358 $243 $244 $346 reversed $153 $-1 #
coedge $-1 $352 $452 $243 $344 reversed $241 $-1 #
edge $-1 $359 -6.6333250991714667 $454 6.6333250991714667 $343 $455 forward 7 unknown #
coedge $-1 $245 $244 $452 $456 forward $97 $-1 #
edge $-1 $350 -65.33524582659382 $454 65.33524582659382 $342 $457 forward 7 unknown #
coedge $-1 $355 $354 $245 $348 reversed $339 $-1 #
edge $-1 $458 -65.33524582659382 $349 65.33524582659382 $347 $459 forward 7 unknown #
vertex $-1 $247 $460 #
vertex $-1 $361 $461 #
straight-curve $-1 65.33524582659382 0 -6.6333250991714667 0 -1 0 I I #
coedge $-1 $341 $343 $248 $353 reversed $241 $-1 #
edge $-1 $356 -26.228012637056565 $359 26.228012637056565 $352 $462 forward 7 unknown #
coedge $-1 $347 $249 $254 $362 forward $339 $-1 #
coedge $-1 $249 $347 $341 $453 reversed $339 $-1 #
vertex $-1 $250 $463 #
straight-curve $-1 0 26.228012637056565 6.6333250991714667 -1 0 0 I I #
coedge $-1 $251 $342 $253 $361 reversed $153 $-1 #
vertex $-1 $353 $464 #
straight-curve $-1 0 -26.228012637056565 6.6333250991714667 1 0 0 I I #
edge $-1 $256 -6.6333250991714667 $350 6.6333250991714667 $253 $465 forward 7 unknown #
edge $-1 $257 -6.6333250991714667 $349 6.6333250991714667 $254 $466 forward 7 unknown #
point $-1 65.33524582659382 -26.228012637056565 6.6333250991714667 #
point $-1 65.33524582659382 26.228012637056565 6.6333250991714667 #
plane-surface $-1 0 0 6.6333250991714667 0 0 1 1 0 0 forward_v I I I I #
coedge $-1 $376 $375 $368 $467 forward $260 $-1 #
coedge $-1 $368 $262 $264 $372 reversed $161 $-1 #
coedge $-1 $262 $367 $366 $467 reversed $161 $-1 #
coedge $-1 $270 $265 $262 $370 forward $271 $-1 #
edge $-1 $373 -36.726934696284196 $468 -30.603806863814235 $369 $469 forward 7 unknown #
coedge $-1 $264 $263 $376 $470 reversed $101 $-1 #
edge $-1 $471 1.9178179933549516e-014 $373 8.2394812992745656 $367 $472 forward 7 unknown #
vertex $-1 $266 $473 #
straight-curve $-1 0.50536917987309238 -20.104884804586604 6.6333250991714667 -1 0 0 I I #
coedge $-1 $366 $267 $270 $380 reversed $260 $-1 #
coedge $-1 $267 $366 $371 $470 forward $260 $-1 #
vertex $-1 $268 $474 #
straight-curve $-1 19.53020092003003 -26.228012637056565 49.113567341403289 0 0 1 I I #
straight-curve $-1 19.53020092003003 -26.22801263705658 1.1200359149977572 0 -0.74314481823134659 -0.66913061440640931 I I #
edge $-1 $468 -17.50872420053766 $272 19.53020092003003 $375 $475 forward 7 unknown #
point $-1 19.53020092003003 -26.228012637056565 6.6333250991714667 #
point $-1 19.53020092003003 -20.104884804586604 6.6333250991714667 #
edge $-1 $476 1 $476 0 $275 $-1 forward 7 unknown #
vertex $-1 $276 $477 #
ellipse-curve $-1 -6.9261741660897513 -21.438577732425635 1.9576854051525103 0 -0.66913061440640931 0.74314481823134659 1 0 0 1 I I #
point $-1 -5.9261741660897513 -23.16644872082157 3.876680507084604 #
edge $-1 $478 1 $478 0 $279 $-1 forward 7 unknown #
vertex $-1 $280 $479 #
ellipse-curve $-1 8.9476508855821066 -21.438577732425635 1.9576854051525103 0 -0.66913061440640931 0.74314481823134659 1 0 0 1 I I #
point $-1 9.9476508855821066 -23.16644872082157 3.876680507084604 #
plane-surface $-1 0 0 6.6333250991714667 0 0 1 1 0 0 forward_v I I I I #
coedge $-1 $402 $401 $394 $480 forward $284 $-1 #
coedge $-1 $394 $286 $288 $398 reversed $183 $-1 #
coedge $-1 $286 $393 $392 $480 reversed $183 $-1 #
coedge $-1 $294 $289 $286 $396 forward $295 $-1 #
edge $-1 $399 -14.789940258567157 $481 -8.7908575300141365 $395 $482 forward 7 unknown #
coedge $-1 $288 $287 $402 $483 reversed $115 $-1 #
edge $-1 $484 -52.456025274113124 $399 -44.624778883181399 $393 $485 forward 7 unknown #
vertex $-1 $290 $486 #
straight-curve $-1 -8.7577511058436031 20.228929908503531 6.6333250991714721 1 0 0 I I #
coedge $-1 $392 $291 $294 $406 reversed $284 $-1 #
coedge $-1 $291 $392 $397 $483 forward $284 $-1 #
vertex $-1 $292 $487 #
straight-curve $-1 -26.648120179000816 26.228012637056565 67.708491773567019 0 0 1 I I #
straight-curve $-1 -26.648120179000816 -13.95563368453908 35.317580402840363 0 0.76604443648966558 -0.64278761758704617 I I #
edge $-1 $481 8.3828842443735958 $296 26.648120179000816 $401 $488 forward 7 unknown #
point $-1 -26.648120179000816 26.228012637056565 6.6333250991714667 #
point $-1 -26.648120179000816 20.228929908503545 6.633325099171465 #
edge $-1 $489 1 $489 0 $299 $-1 forward 7 unknown #
vertex $-1 $300 $490 #
ellipse-curve $-1 -22.995072992075379 20.100023722197779 0.38807246443029675 0 0.64278761758704617 0.76604443648966558 1.5 0 0 1 I I #
point $-1 -21.495072992075379 23.228471272780052 4.116410993989378 #
edge $-1 $491 1 $491 0 $303 $-1 forward 7 unknown #
vertex $-1 $304 $492 #
ellipse-curve $-1 -17.515502211687213 20.100023722197779 0.38807246443029675 0 0.64278761758704617 0.76604443648966558 1.5 0 0 1 I I #
point $-1 -16.015502211687213 23.228471272780052 4.116410993989378 #
edge $-1 $493 1 $493 0 $307 $-1 forward 7 unknown #
vertex $-1 $308 $494 #
ellipse-curve $-1 -12.035931431299048 20.100023722197779 0.38807246443029675 0 0.64278761758704617 0.76604443648966558 1.5 0 0 1 I I #
point $-1 -10.535931431299048 23.228471272780052 4.116410993989378 #
loop $-1 $-1 $319 $311 #
plane-surface $-1 0 26.228012637056565 0 0 -1 0 0 0 -1 forward_v I I I I #
coedge $-1 $424 $314 $316 $428 reversed $212 $-1 #
coedge $-1 $314 $423 $495 $496 reversed $212 $-1 #
coedge $-1 $322 $317 $314 $426 forward $312 $-1 #
edge $-1 $429 -14.789940258567157 $497 -8.7908575300141365 $425 $498 forward 7 unknown #
coedge $-1 $316 $315 $432 $499 reversed $134 $-1 #
edge $-1 $500 -52.456025274113124 $429 -44.624778883181399 $423 $501 forward 7 unknown #
vertex $-1 $318 $502 #
straight-curve $-1 8.7577511058436102 20.228929908503531 6.6333250991714721 1 0 0 I I #
coedge $-1 $495 $319 $322 $436 reversed $421 $-1 #
coedge $-1 $319 $495 $427 $499 forward $421 $-1 #
vertex $-1 $320 $503 #
straight-curve $-1 8.38288424437361 26.228012637056565 67.708491773567019 0 0 1 I I #
straight-curve $-1 8.38288424437361 -13.95563368453908 35.317580402840363 0 0.76604443648966558 -0.64278761758704617 I I #
edge $-1 $497 -26.648120179000831 $323 -8.38288424437361 $431 $504 forward 7 unknown #
point $-1 8.38288424437361 26.228012637056565 6.6333250991714667 #
point $-1 8.38288424437361 20.228929908503545 6.633325099171465 #
edge $-1 $505 1 $505 0 $326 $-1 forward 7 unknown #
vertex $-1 $327 $506 #
ellipse-curve $-1 12.035931431299048 20.100023722197779 0.38807246443029675 0 0.64278761758704617 0.76604443648966558 1.5 0 0 1 I I #
point $-1 13.535931431299048 23.228471272780052 4.116410993989378 #
edge $-1 $507 1 $507 0 $330 $-1 forward 7 unknown #
vertex $-1 $331 $508 #
ellipse-curve $-1 17.51550221168722 20.100023722197779 0.38807246443029675 0 0.64278761758704617 0.76604443648966558 1.5 0 0 1 I I #
point $-1 19.01550221168722 23.228471272780052 4.116410993989378 #
edge $-1 $509 1 $509 0 $334 $-1 forward 7 unknown #
vertex $-1 $335 $510 #
ellipse-curve $-1 22.995072992075379 20.100023722197779 0.38807246443029675 0 0.64278761758704617 0.76604443648966558 1.5 0 0 1 I I #
point $-1 24.495072992075379 23.228471272780052 4.116410993989378 #
plane-surface $-1 65.33524582659382 0 0 -1 0 0 0 0 1 forward_v I I I I #
coedge $-1 $343 $341 $345 $456 reversed $241 $-1 #
edge $-1 $356 -6.6333250991714667 $458 6.6333250991714667 $355 $511 forward 7 unknown #
vertex $-1 $456 $512 #
straight-curve $-1 -65.33524582659382 -26.228012637056565 0 0 0 -1 I I #
edge $-1 $454 -26.228012637056565 $458 26.228012637056565 $452 $513 forward 7 unknown #
straight-curve $-1 0 -26.228012637056565 -6.6333250991714667 -1 0 0 I I #
vertex $-1 $348 $514 #
straight-curve $-1 0 26.228012637056565 -6.6333250991714667 1 0 0 I I #
point $-1 65.33524582659382 26.228012637056565 -6.6333250991714667 #
point $-1 65.33524582659382 -26.228012637056565 -6.6333250991714667 #
straight-curve $-1 -65.33524582659382 0 6.6333250991714667 0 -1 0 I I #
point $-1 -65.33524582659382 26.228012637056565 6.6333250991714667 #
point $-1 -65.33524582659382 -26.228012637056565 6.6333250991714667 #
straight-curve $-1 65.33524582659382 -26.228012637056565 0 0 0 -1 I I #
straight-curve $-1 65.33524582659382 26.228012637056565 0 0 0 -1 I I #
edge $-1 $468 42.480242242231824 $471 47.993531426405518 $366 $515 forward 7 unknown #
vertex $-1 $380 $516 #
straight-curve $-1 -17.50872420053766 -56.8318195008708 6.633325099171465 0 -1 0 I I #
edge $-1 $471 -18.014093380410753 $377 19.024831740156937 $376 $517 forward 7 unknown #
vertex $-1 $470 $518 #
straight-curve $-1 -17.50872420053766 -26.22801263705658 1.1200359149977572 0 0.74314481823134659 0.66913061440640931 I I #
point $-1 -17.50872420053766 -20.104884804586604 6.6333250991714667 #
point $-1 19.53020092003003 -26.228012637056565 1.1200359149977701 #
straight-curve $-1 0 -26.228012637056565 6.6333250991714667 1 0 0 I I #
vertex $-1 $383 $519 #
point $-1 -5.9261741660897513 -21.438577732425635 1.9576854051525103 #
vertex $-1 $387 $520 #
point $-1 9.9476508855821066 -21.438577732425635 1.9576854051525103 #
edge $-1 $481 61.075166674395554 $484 66.10899488475971 $392 $521 forward 7 unknown #
vertex $-1 $406 $522 #
straight-curve $-1 -8.3828842443735958 35.018870167070702 6.6333250991714721 0 1 0 I I #
edge $-1 $484 -0.37486686147000725 $403 17.890369073157213 $402 $523 forward 7 unknown #
vertex $-1 $483 $524 #
straight-curve $-1 -8.3828842443735958 -13.95563368453908 35.317580402840363 0 -0.76604443648966558 0.64278761758704617 I I #
point $-1 -8.3828842443735958 20.228929908503545 6.633325099171465 #
point $-1 -26.648120179000816 26.228012637056565 1.5994968888073089 #
straight-curve $-1 0 26.228012637056565 6.6333250991714667 -1 0 0 I I #
vertex $-1 $409 $525 #
point $-1 -21.495072992075379 20.100023722197779 0.38807246443029675 #
vertex $-1 $413 $526 #
point $-1 -16.015502211687213 20.100023722197779 0.38807246443029675 #
vertex $-1 $417 $527 #
point $-1 -10.535931431299048 20.100023722197779 0.38807246443029675 #
coedge $-1 $432 $431 $424 $496 forward $421 $-1 #
edge $-1 $497 61.075166674395554 $500 66.10899488475971 $495 $528 forward 7 unknown #
vertex $-1 $436 $529 #
straight-curve $-1 26.648120179000831 35.018870167070702 6.6333250991714721 0 1 0 I I #
edge $-1 $500 -17.89036907315722 $433 0.37486686147000015 $432 $530 forward 7 unknown #
vertex $-1 $499 $531 #
straight-curve $-1 26.648120179000831 -13.95563368453908 35.317580402840363 0 -0.76604443648966558 0.64278761758704617 I I #
point $-1 26.648120179000831 20.228929908503545 6.633325099171465 #
point $-1 8.38288424437361 26.228012637056565 1.5994968888073089 #
straight-curve $-1 0 26.228012637056565 6.6333250991714667 -1 0 0 I I #
vertex $-1 $439 $532 #
point $-1 13.535931431299048 20.100023722197779 0.38807246443029675 #
vertex $-1 $443 $533 #
point $-1 19.01550221168722 20.100023722197779 0.38807246443029675 #
vertex $-1 $447 $534 #
point $-1 24.495072992075379 20.100023722197779 0.38807246443029675 #
straight-curve $-1 -65.33524582659382 26.228012637056565 0 0 0 -1 I I #
point $-1 -65.33524582659382 -26.228012637056565 -6.6333250991714667 #
straight-curve $-1 -65.33524582659382 0 -6.6333250991714667 0 1 0 I I #
point $-1 -65.33524582659382 26.228012637056565 -6.6333250991714667 #
straight-curve $-1 -17.50872420053766 -26.228012637056565 49.113567341403289 0 0 -1 I I #
point $-1 -17.50872420053766 -26.228012637056565 6.6333250991714667 #
straight-curve $-1 0.50536917987309238 -26.228012637056565 1.1200359149977706 1 0 0 I I #
point $-1 -17.50872420053766 -26.228012637056565 1.1200359149977701 #
point $-1 -6.9261741660897513 -20.769447118019229 1.2145405869211636 #
point $-1 8.9476508855821066 -20.769447118019229 1.2145405869211636 #
straight-curve $-1 -8.3828842443735958 26.228012637056565 67.708491773567019 0 0 -1 I I #
point $-1 -8.3828842443735958 26.228012637056565 6.6333250991714667 #
straight-curve $-1 -8.7577511058436031 26.228012637056565 1.5994968888073089 -1 0 0 I I #
point $-1 -8.3828842443735958 26.228012637056565 1.5994968888073089 #
point $-1 -22.995072992075379 19.135842295817209 -0.76099419030420157 #
point $-1 -17.515502211687213 19.135842295817209 -0.76099419030420157 #
point $-1 -12.035931431299048 19.135842295817209 -0.76099419030420157 #
straight-curve $-1 26.648120179000831 26.228012637056565 67.708491773567019 0 0 -1 I I #
point $-1 26.648120179000831 26.228012637056565 6.6333250991714667 #
straight-curve $-1 8.7577511058436102 26.228012637056565 1.5994968888073089 -1 0 0 I I #
point $-1 26.648120179000831 26.228012637056565 1.5994968888073089 #
point $-1 12.035931431299048 19.135842295817209 -0.76099419030420157 #
point $-1 17.51550221168722 19.135842295817209 -0.76099419030420157 #
point $-1 22.995072992075379 19.135842295817209 -0.76099419030420157 #
End-of-ACIS-data 