500 0 6 0           
7 Unknown 11 ACIS 5.0 NT 24 Fri Mar 26 03:06:10 1999 
-1 9.9999999999999995e-007 1e-010 
body $-1 $6 $-1 $7 #
body $-1 $8 $-1 $9 #
body $-1 $10 $-1 $11 #
body $-1 $12 $-1 $13 #
body $-1 $14 $-1 $15 #
body $-1 $16 $-1 $17 #
lump $-1 $-1 $18 $0 #
transform $-1 1 0 0 0 1 0 0 0 1 69.699392681661436 35.694376318670855 16.521680267109751 1 rotate no_reflect no_shear #
lump $-1 $-1 $19 $1 #
transform $-1 1 0 0 0 1 0 0 0 1 69.699392681661436 35.694376318670855 16.521680267109751 1 rotate no_reflect no_shear #
lump $-1 $-1 $20 $2 #
transform $-1 1 0 0 0 1 0 0 0 1 69.699392681661436 35.694376318670855 16.521680267109751 1 rotate no_reflect no_shear #
lump $-1 $-1 $21 $3 #
transform $-1 1 0 0 0 1 0 0 0 1 69.699392681661436 35.694376318670855 16.521680267109751 1 rotate no_reflect no_shear #
lump $-1 $-1 $22 $4 #
transform $-1 1 0 0 0 1 0 0 0 1 69.699392681661436 35.694376318670855 16.521680267109751 1 rotate no_reflect no_shear #
lump $-1 $-1 $23 $5 #
transform $-1 1 0 0 0 1 0 0 0 1 69.699392681661436 35.694376318670855 16.521680267109751 1 rotate no_reflect no_shear #
shell $-1 $-1 $-1 $24 $-1 $6 #
shell $-1 $-1 $-1 $25 $-1 $8 #
shell $-1 $-1 $-1 $26 $-1 $10 #
shell $-1 $-1 $-1 $27 $-1 $12 #
shell $-1 $-1 $-1 $28 $-1 $14 #
shell $-1 $-1 $-1 $29 $-1 $16 #
face $-1 $30 $31 $18 $-1 $32 forward single #
face $-1 $33 $34 $19 $-1 $35 forward single #
face $-1 $36 $37 $20 $-1 $38 reversed single #
face $-1 $39 $40 $21 $-1 $41 forward single #
face $-1 $42 $43 $22 $-1 $44 reversed single #
face $-1 $45 $46 $23 $-1 $47 forward single #
face $-1 $48 $49 $18 $-1 $50 reversed single #
loop $-1 $-1 $51 $24 #
plane-surface $-1 0 0 16.521680267109751 0 0 1 1 0 0 forward_v I I I I #
face $-1 $52 $53 $19 $-1 $54 reversed single #
loop $-1 $-1 $55 $25 #
plane-surface $-1 0 -35.694376318670855 0 0 1 0 0 0 1 forward_v I I I I #
face $-1 $56 $57 $20 $-1 $58 reversed single #
loop $-1 $-1 $59 $26 #
plane-surface $-1 -186.60905228901464 21.886239421465994 79.250958765615508 0 1 0 -0.83867057594974714 0 0.54463902268945019 forward_v I I I I #
face $-1 $60 $61 $21 $-1 $62 forward single #
loop $-1 $63 $64 $27 #
cone-surface $-1 -62.543878249831756 28.790307870068425 8.0603534967742156 0.83867057594974714 0 -0.54463902268945019 1.0892780453789004 0 1.6773411518994943 1 I I 0 1 2 forward I I I I #
face $-1 $65 $66 $22 $-1 $67 reversed single #
loop $-1 $-1 $68 $28 #
plane-surface $-1 110.68703406463806 21.886239421465994 196.16061837296868 0 1 0 0.83867057594974714 0 0.54463902268945019 forward_v I I I I #
face $-1 $69 $70 $23 $-1 $71 forward single #
loop $-1 $72 $73 $29 #
cone-surface $-1 62.543878249831756 28.790307870068425 8.0603534967742156 -0.83867057594974714 0 -0.54463902268945019 1.0892780453789004 0 -1.6773411518994943 1 I I 0 1 2 forward I I I I #
face $-1 $74 $75 $18 $-1 $76 reversed single #
loop $-1 $-1 $77 $30 #
plane-surface $-1 0 0 -16.521680267109751 0 0 1 1 0 0 forward_v I I I I #
coedge $-1 $78 $79 $80 $81 forward $31 $-1 #
face $-1 $82 $83 $19 $-1 $84 reversed single #
loop $-1 $-1 $85 $33 #
plane-surface $-1 0 0 -16.521680267109751 0 0 1 1 0 0 forward_v I I I I #
coedge $-1 $86 $87 $88 $89 forward $34 $-1 #
face $-1 $90 $91 $20 $-1 $92 reversed single #
loop $-1 $-1 $93 $36 #
plane-surface $-1 -69.699392681661465 28.790307870068425 3.3289405412389073 -0.83867057594974714 0 0.54463902268945019 0.54463902268945019 0 0.83867057594974714 forward_v I I I I #
coedge $-1 $94 $95 $96 $97 reversed $37 $-1 #
face $-1 $-1 $98 $21 $-1 $99 forward single #
loop $-1 $100 $101 $39 #
cone-surface $-1 -58.833425780753629 28.790307870068425 5.6507575666846677 0.83867057594974714 0 -0.54463902268945019 0.54463902268945019 0 0.83867057594974714 1 I I -0.70710678118654746 0.70710678118654746 1 forward I I I I #
loop $-1 $-1 $102 $27 #
coedge $-1 $64 $64 $103 $104 reversed $40 $-1 #
face $-1 $105 $106 $22 $-1 $107 reversed single #
loop $-1 $-1 $108 $42 #
plane-surface $-1 -6.2226255427151216 28.790307870068425 120.23860014859208 0.83867057594974714 0 0.54463902268945019 0.54463902268945019 0 -0.83867057594974714 forward_v I I I I #
coedge $-1 $109 $110 $111 $112 reversed $43 $-1 #
face $-1 $-1 $113 $23 $-1 $114 forward single #
loop $-1 $115 $116 $45 #
cone-surface $-1 58.833425780753629 28.790307870068425 5.6507575666846677 -0.83867057594974714 0 -0.54463902268945019 0.54463902268945019 0 -0.83867057594974714 1 I I -0.70710678118654746 0.70710678118654746 1 forward I I I I #
loop $-1 $-1 $117 $29 #
coedge $-1 $73 $73 $118 $119 reversed $46 $-1 #
face $-1 $120 $121 $18 $-1 $122 reversed single #
loop $-1 $-1 $123 $48 #
plane-surface $-1 0 -35.694376318670855 0 0 1 0 0 0 1 forward_v I I I I #
coedge $-1 $124 $125 $126 $127 forward $49 $-1 #
coedge $-1 $128 $51 $129 $130 forward $31 $-1 #
coedge $-1 $51 $128 $131 $132 forward $31 $-1 #
coedge $-1 $133 $134 $51 $81 reversed $135 $-1 #
edge $-1 $136 -35.694376318670855 $137 35.694376318670855 $80 $138 forward 7 unknown #
face $-1 $139 $140 $19 $-1 $141 reversed single #
loop $-1 $-1 $142 $52 #
plane-surface $-1 -45.240983456865202 -52.123885707981977 0 0 1 0 0 0 1 forward_v I I I I #
coedge $-1 $143 $144 $87 $145 forward $53 $-1 #
coedge $-1 $146 $55 $147 $148 reversed $34 $-1 #
coedge $-1 $55 $146 $85 $145 reversed $34 $-1 #
coedge $-1 $149 $150 $55 $89 reversed $140 $-1 #
edge $-1 $151 -16.521680267109751 $152 16.521680267109751 $88 $153 forward 7 unknown #
face $-1 $154 $155 $20 $-1 $156 forward single #
loop $-1 $-1 $157 $56 #
plane-surface $-1 -69.699392681661436 0 0 1 0 0 0 0 -1 forward_v I I I I #
coedge $-1 $158 $159 $160 $161 reversed $57 $-1 #
coedge $-1 $95 $59 $162 $163 reversed $37 $-1 #
coedge $-1 $59 $94 $158 $164 reversed $37 $-1 #
coedge $-1 $160 $165 $59 $97 forward $155 $-1 #
edge $-1 $166 23.605133462845885 $167 32.172598540248458 $96 $168 forward 7 unknown #
loop $-1 $-1 $103 $60 #
plane-surface $-1 -69.699392681661465 28.790307870068425 3.3289405412389073 -0.83867057594974714 0 0.54463902268945019 0.54463902268945019 0 0.83867057594974714 forward_v I I I I #
loop $-1 $-1 $169 $39 #
coedge $-1 $101 $101 $102 $170 reversed $61 $-1 #
coedge $-1 $102 $102 $101 $170 forward $63 $-1 #
coedge $-1 $103 $103 $64 $104 forward $98 $-1 #
edge $-1 $171 0 $171 6.2831853071796004 $103 $172 forward 7 unknown #
face $-1 $173 $174 $22 $-1 $175 forward single #
loop $-1 $-1 $176 $65 #
plane-surface $-1 0 35.694376318670855 0 0 -1 0 0 0 -1 forward_v I I I I #
coedge $-1 $177 $178 $179 $180 reversed $66 $-1 #
coedge $-1 $110 $68 $181 $182 reversed $43 $-1 #
coedge $-1 $68 $109 $177 $183 reversed $43 $-1 #
coedge $-1 $179 $184 $68 $112 forward $185 $-1 #
edge $-1 $186 81.558628919374598 $187 94.751368645245364 $111 $188 forward 7 unknown #
loop $-1 $-1 $118 $69 #
plane-surface $-1 -6.2226255427151216 28.790307870068425 120.23860014859208 0.83867057594974714 0 0.54463902268945019 0.54463902268945019 0 -0.83867057594974714 forward_v I I I I #
loop $-1 $-1 $189 $45 #
coedge $-1 $116 $116 $117 $190 reversed $70 $-1 #
coedge $-1 $117 $117 $116 $190 forward $72 $-1 #
coedge $-1 $118 $118 $73 $119 forward $113 $-1 #
edge $-1 $191 0 $191 6.2831853071796004 $118 $192 forward 7 unknown #
face $-1 $193 $194 $18 $-1 $195 reversed single #
loop $-1 $-1 $196 $74 #
plane-surface $-1 -69.699392681661436 0 0 1 0 0 0 0 -1 forward_v I I I I #
coedge $-1 $197 $131 $198 $199 forward $75 $-1 #
coedge $-1 $200 $77 $197 $201 forward $49 $-1 #
coedge $-1 $77 $200 $202 $203 forward $49 $-1 #
coedge $-1 $134 $133 $77 $127 reversed $135 $-1 #
edge $-1 $204 -35.694376318670855 $205 35.694376318670855 $126 $206 forward 7 unknown #
coedge $-1 $79 $78 $207 $208 forward $31 $-1 #
coedge $-1 $209 $210 $78 $130 reversed $194 $-1 #
edge $-1 $137 -69.699392681661436 $211 69.699392681661436 $129 $212 forward 7 unknown #
coedge $-1 $123 $213 $79 $132 reversed $75 $-1 #
edge $-1 $214 -69.699392681661436 $136 69.699392681661436 $131 $215 forward 7 unknown #
coedge $-1 $126 $80 $213 $216 forward $135 $-1 #
coedge $-1 $80 $126 $209 $217 reversed $135 $-1 #
loop $-1 $-1 $133 $193 #
vertex $-1 $81 $218 #
vertex $-1 $81 $219 #
straight-curve $-1 69.699392681661436 0 16.521680267109751 0 1 0 I I #
face $-1 $220 $221 $19 $-1 $222 reversed single #
loop $-1 $-1 $88 $82 #
plane-surface $-1 -49.061183980067113 -43.909131013326416 0 1 0 0 0 0 -1 forward_v I I I I #
coedge $-1 $223 $224 $225 $226 forward $83 $-1 #
coedge $-1 $227 $85 $228 $229 forward $53 $-1 #
coedge $-1 $85 $227 $149 $230 forward $53 $-1 #
edge $-1 $151 -49.061183980067113 $231 -41.42078293366329 $85 $232 forward 7 unknown #
coedge $-1 $87 $86 $233 $234 forward $34 $-1 #
coedge $-1 $235 $236 $86 $148 forward $237 $-1 #
edge $-1 $238 41.42078293366329 $152 49.061183980067113 $147 $239 forward 7 unknown #
coedge $-1 $225 $88 $144 $230 reversed $140 $-1 #
coedge $-1 $88 $225 $235 $240 reversed $140 $-1 #
vertex $-1 $145 $241 #
vertex $-1 $240 $242 #
straight-curve $-1 -49.061183980067113 -35.694376318670855 0 0 0 1 I I #
face $-1 $-1 $243 $20 $-1 $244 reversed single #
loop $-1 $-1 $160 $90 #
plane-surface $-1 0 0 16.521680267109751 0 0 1 1 0 0 forward_v I I I I #
coedge $-1 $162 $245 $246 $247 forward $91 $-1 #
coedge $-1 $246 $93 $95 $164 forward $57 $-1 #
coedge $-1 $93 $246 $248 $249 reversed $57 $-1 #
coedge $-1 $250 $96 $93 $161 forward $155 $-1 #
edge $-1 $167 7.491085486431782 $251 21.299222383636643 $160 $252 forward 7 unknown #
coedge $-1 $253 $157 $94 $163 forward $91 $-1 #
edge $-1 $254 -36.296538841568804 $166 -23.103799115698003 $162 $255 forward 7 unknown #
edge $-1 $167 -15.730538430933759 $254 -5.235158283374276e-014 $95 $256 forward 7 unknown #
coedge $-1 $96 $250 $253 $257 forward $155 $-1 #
vertex $-1 $163 $258 #
vertex $-1 $97 $259 #
straight-curve $-1 -93.304526144507321 21.886239421465994 16.521680267109751 1 0 0 I I #
coedge $-1 $169 $169 $-1 $260 reversed $100 $-1 #
edge $-1 $261 0 $261 6.2831853071796004 $101 $262 forward 7 unknown #
vertex $-1 $104 $263 #
ellipse-curve $-1 -65.415660142960164 28.790307870068425 9.9253104041743327 -0.83867057594974714 0 0.54463902268945019 1.0892780453789004 0 1.6773411518994943 1 I I #
face $-1 $-1 $185 $22 $-1 $264 reversed single #
loop $-1 $-1 $265 $105 #
plane-surface $-1 0 0 16.521680267109751 0 0 1 1 0 0 forward_v I I I I #
coedge $-1 $266 $267 $178 $268 forward $106 $-1 #
coedge $-1 $269 $108 $110 $183 forward $66 $-1 #
coedge $-1 $108 $269 $176 $268 reversed $66 $-1 #
coedge $-1 $270 $111 $108 $180 forward $185 $-1 #
edge $-1 $187 7.491085486431782 $271 21.299222383636643 $179 $272 forward 7 unknown #
coedge $-1 $273 $265 $109 $182 forward $174 $-1 #
edge $-1 $274 5.7884105719398633 $186 14.355875649342408 $181 $275 forward 7 unknown #
edge $-1 $187 -139.39878536332279 $274 -123.66824693238914 $110 $276 forward 7 unknown #
coedge $-1 $111 $270 $273 $277 reversed $185 $-1 #
loop $-1 $-1 $179 $173 #
vertex $-1 $277 $278 #
vertex $-1 $112 $279 #
straight-curve $-1 69.699392681661436 21.886239421465994 98.080309186484342 0 0 -1 I I #
coedge $-1 $189 $189 $-1 $280 reversed $115 $-1 #
edge $-1 $281 0 $281 6.2831853071796004 $116 $282 forward 7 unknown #
vertex $-1 $119 $283 #
ellipse-curve $-1 65.415660142960178 28.790307870068425 9.9253104041743452 0.83867057594974714 0 0.54463902268945019 1.0892780453789004 0 -1.6773411518994943 1 I I #
face $-1 $-1 $135 $18 $-1 $284 reversed single #
loop $-1 $-1 $209 $120 #
plane-surface $-1 0 35.694376318670855 0 0 -1 0 0 0 -1 forward_v I I I I #
coedge $-1 $285 $207 $210 $286 forward $121 $-1 #
coedge $-1 $213 $123 $124 $201 reversed $75 $-1 #
coedge $-1 $207 $285 $123 $199 reversed $121 $-1 #
edge $-1 $214 -16.521680267109751 $287 16.521680267109751 $198 $288 forward 7 unknown #
coedge $-1 $125 $124 $285 $289 forward $49 $-1 #
edge $-1 $205 -69.699392681661436 $287 69.699392681661436 $197 $290 forward 7 unknown #
coedge $-1 $210 $209 $125 $203 reversed $194 $-1 #
edge $-1 $291 -69.699392681661436 $204 69.699392681661436 $202 $292 forward 7 unknown #
vertex $-1 $127 $293 #
vertex $-1 $216 $294 #
straight-curve $-1 69.699392681661436 0 -16.521680267109751 0 -1 0 I I #
coedge $-1 $196 $198 $128 $208 reversed $121 $-1 #
edge $-1 $211 -35.694376318670855 $214 35.694376318670855 $207 $295 forward 7 unknown #
coedge $-1 $202 $129 $134 $217 forward $194 $-1 #
coedge $-1 $129 $202 $196 $286 reversed $194 $-1 #
vertex $-1 $130 $296 #
straight-curve $-1 0 35.694376318670855 16.521680267109751 -1 0 0 I I #
coedge $-1 $131 $197 $133 $216 reversed $75 $-1 #
vertex $-1 $208 $297 #
straight-curve $-1 0 -35.694376318670855 16.521680267109751 1 0 0 I I #
edge $-1 $136 -16.521680267109751 $205 16.521680267109751 $133 $298 forward 7 unknown #
edge $-1 $137 -16.521680267109751 $204 16.521680267109751 $134 $299 forward 7 unknown #
point $-1 69.699392681661436 -35.694376318670855 16.521680267109751 #
point $-1 69.699392681661436 35.694376318670855 16.521680267109751 #
face $-1 $-1 $237 $19 $-1 $300 forward single #
loop $-1 $-1 $301 $139 #
plane-surface $-1 -41.42078293366329 -43.909131013326416 0 -1 0 0 0 0 1 forward_v I I I I #
coedge $-1 $302 $142 $227 $303 reversed $83 $-1 #
coedge $-1 $142 $302 $304 $305 reversed $83 $-1 #
coedge $-1 $150 $149 $142 $226 reversed $140 $-1 #
edge $-1 $306 -16.521680267109751 $307 16.521680267109751 $225 $308 forward 7 unknown #
coedge $-1 $144 $143 $223 $303 forward $53 $-1 #
coedge $-1 $233 $301 $143 $229 reversed $221 $-1 #
edge $-1 $231 -8.2147546946555607 $309 8.2147546946555607 $228 $310 forward 7 unknown #
edge $-1 $307 -8.2147546946555607 $151 8.2147546946555607 $149 $311 forward 7 unknown #
vertex $-1 $229 $312 #
straight-curve $-1 0 -35.694376318670855 -16.521680267109751 1 0 0 I I #
coedge $-1 $313 $228 $146 $234 reversed $221 $-1 #
edge $-1 $238 -16.521680267109751 $231 16.521680267109751 $233 $314 forward 7 unknown #
coedge $-1 $304 $147 $150 $240 forward $237 $-1 #
coedge $-1 $147 $304 $313 $315 forward $237 $-1 #
loop $-1 $-1 $147 $220 #
vertex $-1 $148 $316 #
straight-curve $-1 0 -35.694376318670855 16.521680267109751 -1 0 0 I I #
edge $-1 $152 -8.2147546946555607 $306 8.2147546946555607 $150 $317 forward 7 unknown #
point $-1 -49.061183980067113 -35.694376318670855 -16.521680267109751 #
point $-1 -49.061183980067113 -35.694376318670855 16.521680267109751 #
loop $-1 $-1 $248 $154 #
plane-surface $-1 0 35.694376318670855 0 0 -1 0 0 0 -1 forward_v I I I I #
coedge $-1 $157 $253 $318 $319 forward $91 $-1 #
coedge $-1 $159 $158 $157 $247 reversed $57 $-1 #
edge $-1 $320 -21.299222383636643 $254 -7.491085486431782 $157 $321 forward 7 unknown #
coedge $-1 $318 $322 $159 $249 forward $243 $-1 #
edge $-1 $251 1.8540238846487531 $320 17.58456231558246 $248 $323 forward 7 unknown #
coedge $-1 $165 $160 $322 $324 forward $155 $-1 #
vertex $-1 $324 $325 #
straight-curve $-1 -61.131927604258863 14.395153935034212 16.521680267109751 0 1 0 I I #
coedge $-1 $245 $162 $165 $257 reversed $91 $-1 #
vertex $-1 $163 $326 #
straight-curve $-1 -69.699392681661436 21.886239421465994 39.625479382807754 0 0 1 I I #
straight-curve $-1 -69.699392681661465 21.886239421465994 3.3289405412389073 -0.54463902268945019 0 -0.83867057594974714 I I #
edge $-1 $327 -35.694376318670855 $166 -21.886239421465994 $253 $328 forward 7 unknown #
point $-1 -69.699392681661436 21.886239421465994 16.521680267109751 #
point $-1 -61.131927604258863 21.886239421465994 16.521680267109751 #
edge $-1 $329 1 $329 0 $169 $-1 forward 7 unknown #
vertex $-1 $170 $330 #
ellipse-curve $-1 -59.672096356703378 28.790307870068425 6.1953965893741181 -0.83867057594974714 0 0.54463902268945019 1.0892780453789004 0 1.6773411518994943 1 I I #
point $-1 -64.326382097581231 28.790307870068425 11.602651556073805 #
plane-surface $-1 69.699392681661436 0 0 -1 0 0 0 0 1 forward_v I I I I #
coedge $-1 $181 $331 $269 $332 forward $174 $-1 #
coedge $-1 $267 $176 $331 $333 reversed $106 $-1 #
coedge $-1 $176 $266 $270 $334 forward $106 $-1 #
edge $-1 $271 -87.283954997243868 $335 -71.553416566310204 $176 $336 forward 7 unknown #
coedge $-1 $178 $177 $265 $332 reversed $66 $-1 #
coedge $-1 $184 $179 $267 $334 reversed $185 $-1 #
vertex $-1 $180 $337 #
straight-curve $-1 69.699392681661436 14.395153935034212 3.3289405412389854 0 1 0 I I #
coedge $-1 $331 $181 $184 $277 forward $174 $-1 #
vertex $-1 $182 $338 #
straight-curve $-1 55.343517032319028 21.886239421465994 16.521680267109758 1 0 0 I I #
straight-curve $-1 -6.2226255427151216 21.886239421465994 120.23860014859208 -0.54463902268945019 0 0.83867057594974714 I I #
edge $-1 $186 21.886239421465994 $339 35.694376318670855 $184 $340 forward 7 unknown #
point $-1 69.699392681661436 21.886239421465994 16.521680267109751 #
point $-1 69.699392681661436 21.886239421465994 3.3289405412389783 #
edge $-1 $341 1 $341 0 $189 $-1 forward 7 unknown #
vertex $-1 $190 $342 #
ellipse-curve $-1 59.672096356703378 28.790307870068425 6.1953965893741181 0.83867057594974714 0 0.54463902268945019 1.0892780453789004 0 -1.6773411518994943 1 I I #
point $-1 66.504938188339025 28.790307870068425 8.2479692522748174 #
plane-surface $-1 69.699392681661436 0 0 -1 0 0 0 0 1 forward_v I I I I #
coedge $-1 $198 $196 $200 $289 reversed $121 $-1 #
edge $-1 $211 -16.521680267109751 $291 16.521680267109751 $210 $343 forward 7 unknown #
vertex $-1 $289 $344 #
straight-curve $-1 -69.699392681661436 -35.694376318670855 0 0 0 -1 I I #
edge $-1 $287 -35.694376318670855 $291 35.694376318670855 $285 $345 forward 7 unknown #
straight-curve $-1 0 -35.694376318670855 -16.521680267109751 -1 0 0 I I #
vertex $-1 $203 $346 #
straight-curve $-1 0 35.694376318670855 -16.521680267109751 1 0 0 I I #
point $-1 69.699392681661436 35.694376318670855 -16.521680267109751 #
point $-1 69.699392681661436 -35.694376318670855 -16.521680267109751 #
straight-curve $-1 -69.699392681661436 0 16.521680267109751 0 -1 0 I I #
point $-1 -69.699392681661436 35.694376318670855 16.521680267109751 #
point $-1 -69.699392681661436 -35.694376318670855 16.521680267109751 #
straight-curve $-1 69.699392681661436 -35.694376318670855 0 0 0 -1 I I #
straight-curve $-1 69.699392681661436 35.694376318670855 0 0 0 -1 I I #
plane-surface $-1 0 0 16.521680267109751 0 0 1 1 0 0 forward_v I I I I #
coedge $-1 $228 $313 $302 $347 forward $221 $-1 #
coedge $-1 $224 $223 $301 $347 reversed $83 $-1 #
edge $-1 $309 -3.8202005232019118 $307 3.8202005232019118 $223 $348 forward 7 unknown #
coedge $-1 $236 $235 $224 $305 forward $237 $-1 #
edge $-1 $306 -3.8202005232019118 $349 3.8202005232019118 $224 $350 forward 7 unknown #
vertex $-1 $240 $351 #
vertex $-1 $230 $352 #
straight-curve $-1 -49.061183980067113 -52.123885707981977 0 0 0 -1 I I #
vertex $-1 $347 $353 #
straight-curve $-1 -41.42078293366329 -43.909131013326416 -16.521680267109751 0 -1 0 I I #
straight-curve $-1 -49.061183980067113 -43.909131013326416 -16.521680267109751 0 1 0 I I #
point $-1 -41.42078293366329 -35.694376318670855 -16.521680267109751 #
coedge $-1 $301 $233 $236 $315 reversed $221 $-1 #
straight-curve $-1 -41.42078293366329 -35.694376318670855 0 0 0 -1 I I #
edge $-1 $349 -8.2147546946555607 $238 8.2147546946555607 $313 $354 forward 7 unknown #
point $-1 -41.42078293366329 -35.694376318670855 16.521680267109751 #
straight-curve $-1 -49.061183980067113 -43.909131013326416 16.521680267109751 0 -1 0 I I #
coedge $-1 $322 $248 $245 $319 reversed $243 $-1 #
edge $-1 $327 -16.521680267109751 $320 -3.3289405412389512 $318 $355 forward 7 unknown #
vertex $-1 $249 $356 #
straight-curve $-1 -69.699392681661436 14.395153935034212 3.3289405412389428 0 -1 0 I I #
coedge $-1 $248 $318 $250 $324 reversed $243 $-1 #
straight-curve $-1 -60.12215384768087 35.694376318670855 18.07659554627271 -0.54463902268945019 0 -0.83867057594974714 I I #
edge $-1 $251 61.131927604258863 $327 69.699392681661436 $322 $357 forward 7 unknown #
point $-1 -61.131927604258863 35.694376318670855 16.521680267109751 #
point $-1 -69.699392681661436 21.886239421465994 3.3289405412389512 #
vertex $-1 $324 $358 #
straight-curve $-1 -69.699392681661436 0 16.521680267109751 0 -1 0 I I #
vertex $-1 $260 $359 #
point $-1 -58.582818311324473 28.790307870068425 7.8727377412736121 #
coedge $-1 $265 $273 $266 $333 forward $174 $-1 #
edge $-1 $335 -21.299222383636643 $274 -7.491085486431782 $265 $360 forward 7 unknown #
edge $-1 $339 -69.699392681661436 $335 -61.131927604258891 $266 $361 forward 7 unknown #
edge $-1 $339 -16.521680267109751 $271 -3.3289405412389845 $270 $362 forward 7 unknown #
vertex $-1 $332 $363 #
straight-curve $-1 22.161144735492588 35.694376318670855 76.531425349949302 -0.54463902268945019 0 0.83867057594974714 I I #
point $-1 69.699392681661436 35.694376318670855 3.3289405412389845 #
point $-1 61.131927604258891 21.886239421465994 16.521680267109744 #
vertex $-1 $277 $364 #
straight-curve $-1 69.699392681661436 0 16.521680267109751 0 1 0 I I #
vertex $-1 $280 $365 #
point $-1 60.761374402082275 28.790307870068425 4.518055437474624 #
straight-curve $-1 -69.699392681661436 35.694376318670855 0 0 0 -1 I I #
point $-1 -69.699392681661436 -35.694376318670855 -16.521680267109751 #
straight-curve $-1 -69.699392681661436 0 -16.521680267109751 0 1 0 I I #
point $-1 -69.699392681661436 35.694376318670855 -16.521680267109751 #
edge $-1 $349 -16.521680267109751 $309 16.521680267109751 $301 $366 forward 7 unknown #
straight-curve $-1 -45.240983456865202 -52.123885707981977 -16.521680267109751 -1 0 0 I I #
vertex $-1 $315 $367 #
straight-curve $-1 -45.240983456865202 -52.123885707981977 16.521680267109751 1 0 0 I I #
point $-1 -49.061183980067113 -52.123885707981977 16.521680267109751 #
point $-1 -49.061183980067113 -52.123885707981977 -16.521680267109751 #
point $-1 -41.42078293366329 -52.123885707981977 -16.521680267109751 #
straight-curve $-1 -41.42078293366329 -43.909131013326416 16.521680267109751 0 1 0 I I #
straight-curve $-1 -69.699392681661436 35.694376318670855 0 0 0 -1 I I #
point $-1 -69.699392681661436 35.694376318670855 3.3289405412389512 #
straight-curve $-1 0 35.694376318670855 16.521680267109751 -1 0 0 I I #
point $-1 -69.699392681661436 35.694376318670855 16.521680267109751 #
point $-1 -57.99475520480388 28.790307870068425 5.1061185439952173 #
straight-curve $-1 61.131927604258891 14.395153935034212 16.521680267109744 0 -1 0 I I #
straight-curve $-1 0 35.694376318670855 16.521680267109751 -1 0 0 I I #
straight-curve $-1 69.699392681661436 35.694376318670855 0 0 0 -1 I I #
point $-1 61.131927604258891 35.694376318670855 16.521680267109744 #
point $-1 69.699392681661436 35.694376318670855 16.521680267109751 #
point $-1 57.99475520480388 28.790307870068425 5.1061185439952173 #
straight-curve $-1 -41.42078293366329 -52.123885707981977 0 0 0 -1 I I #
point $-1 -41.42078293366329 -52.123885707981977 16.521680267109751 #
End-of-ACIS-data 