500 0 9 0           
7 Unknown 11 ACIS 5.0 NT 24 Thu Mar 25 22:41:24 1999 
-1 9.9999999999999995e-007 1e-010 
body $-1 $9 $-1 $10 #
body $-1 $11 $-1 $12 #
body $-1 $13 $-1 $14 #
body $-1 $15 $-1 $16 #
body $-1 $17 $-1 $18 #
body $-1 $19 $-1 $20 #
body $-1 $21 $-1 $22 #
body $-1 $23 $-1 $24 #
body $-1 $25 $-1 $26 #
lump $-1 $-1 $27 $0 #
transform $-1 1 0 0 0 1 0 0 0 1 48.518326364940336 29.098705950839896 6.7226207439940522 1 rotate no_reflect no_shear #
lump $-1 $-1 $28 $1 #
transform $-1 1 0 0 0 1 0 0 0 1 48.518326364940336 29.098705950839896 6.7226207439940522 1 rotate no_reflect no_shear #
lump $-1 $-1 $29 $2 #
transform $-1 1 0 0 0 1 0 0 0 1 48.518326364940336 29.098705950839896 6.7226207439940522 1 rotate no_reflect no_shear #
lump $-1 $-1 $30 $3 #
transform $-1 1 0 0 0 1 0 0 0 1 48.518326364940336 29.098705950839896 6.7226207439940522 1 rotate no_reflect no_shear #
lump $-1 $-1 $31 $4 #
transform $-1 1 0 0 0 1 0 0 0 1 48.518326364940336 29.098705950839896 6.7226207439940522 1 rotate no_reflect no_shear #
lump $-1 $-1 $32 $5 #
transform $-1 1 0 0 0 1 0 0 0 1 48.518326364940336 29.098705950839896 6.7226207439940522 1 rotate no_reflect no_shear #
lump $-1 $-1 $33 $6 #
transform $-1 1 0 0 0 1 0 0 0 1 48.518326364940336 29.098705950839896 6.7226207439940522 1 rotate no_reflect no_shear #
lump $-1 $-1 $34 $7 #
transform $-1 1 0 0 0 1 0 0 0 1 48.518326364940336 29.098705950839896 6.7226207439940522 1 rotate no_reflect no_shear #
lump $-1 $-1 $35 $8 #
transform $-1 1 0 0 0 1 0 0 0 1 48.518326364940336 29.098705950839896 6.7226207439940522 1 rotate no_reflect no_shear #
shell $-1 $-1 $-1 $36 $-1 $9 #
shell $-1 $-1 $-1 $37 $-1 $11 #
shell $-1 $-1 $-1 $38 $-1 $13 #
shell $-1 $-1 $-1 $39 $-1 $15 #
shell $-1 $-1 $-1 $40 $-1 $17 #
shell $-1 $-1 $-1 $41 $-1 $19 #
shell $-1 $-1 $-1 $42 $-1 $21 #
shell $-1 $-1 $-1 $43 $-1 $23 #
shell $-1 $-1 $-1 $44 $-1 $25 #
face $-1 $45 $46 $27 $-1 $47 forward single #
face $-1 $48 $49 $28 $-1 $50 forward single #
face $-1 $51 $52 $29 $-1 $53 reversed single #
face $-1 $54 $55 $30 $-1 $56 forward single #
face $-1 $57 $58 $31 $-1 $59 forward single #
face $-1 $60 $61 $32 $-1 $62 forward single #
face $-1 $63 $64 $33 $-1 $65 reversed single #
face $-1 $66 $67 $34 $-1 $68 forward single #
face $-1 $69 $70 $35 $-1 $71 forward single #
face $-1 $72 $73 $27 $-1 $74 reversed single #
loop $-1 $-1 $75 $36 #
plane-surface $-1 0 0 6.7226207439940522 0 0 1 1 0 0 forward_v I I I I #
face $-1 $76 $77 $28 $-1 $78 reversed single #
loop $-1 $-1 $79 $37 #
plane-surface $-1 0 -25.325954858226989 -3.7087972567927876 0 0 1 1 0 0 forward_v I I I I #
face $-1 $80 $81 $29 $-1 $82 reversed single #
loop $-1 $-1 $83 $38 #
plane-surface $-1 -106.91644251348171 19.181038850021718 80.873825143772791 0 1 0 -0.6018150307709319 0 0.79863550430605224 forward_v I I I I #
face $-1 $84 $85 $30 $-1 $86 forward single #
loop $-1 $87 $88 $39 #
cone-surface $-1 -45.997464207643979 21.164572270185356 4.6504471471806372 0.6018150307709319 0 -0.79863550430605224 0.39931775215302612 0 0.30090751538546595 1 I I 0 1 0.5 forward I I I I #
face $-1 $89 $90 $31 $-1 $91 forward single #
loop $-1 $92 $93 $40 #
cone-surface $-1 -45.997464207643979 24.139872400430807 4.6504471471806372 0.6018150307709319 0 -0.79863550430605224 0.39931775215302612 0 0.30090751538546595 1 I I 0 1 0.5 forward I I I I #
face $-1 $94 $95 $32 $-1 $96 forward single #
loop $-1 $97 $98 $41 #
cone-surface $-1 -45.997464207643979 27.115172530676258 4.6504471471806372 0.6018150307709319 0 -0.79863550430605224 0.39931775215302612 0 0.30090751538546595 1 I I 0 1 0.5 forward I I I I #
face $-1 $99 $100 $33 $-1 $101 reversed single #
loop $-1 $-1 $102 $42 #
plane-surface $-1 81.717403262440357 22.642619063816014 135.55420267235118 0 -1 0 -0.85716730853699208 0 -0.51503806187062418 forward_v I I I I #
face $-1 $103 $104 $34 $-1 $105 forward single #
loop $-1 $106 $107 $43 #
cone-surface $-1 46.791092462664707 16.614962130429294 4.3037846760767158 -0.85716730853699208 0 -0.51503806187062418 0.12875951546765604 0 -0.21429182713424802 1 I I 0 1 0.25 forward I I I I #
face $-1 $108 $109 $35 $-1 $110 forward single #
loop $-1 $111 $112 $44 #
cone-surface $-1 46.791092462664707 20.231556290461324 4.3037846760767158 -0.85716730853699208 0 -0.51503806187062418 0.12875951546765604 0 -0.21429182713424802 1 I I 0 1 0.25 forward I I I I #
face $-1 $113 $114 $27 $-1 $115 reversed single #
loop $-1 $-1 $116 $45 #
plane-surface $-1 0 0 -6.7226207439940522 0 0 1 1 0 0 forward_v I I I I #
coedge $-1 $117 $118 $119 $120 forward $46 $-1 #
face $-1 $121 $122 $28 $-1 $123 reversed single #
loop $-1 $-1 $124 $48 #
plane-surface $-1 0 -21.553203765614082 -5.2157090003934199 0 -1 0 0 0 -1 forward_v I I I I #
coedge $-1 $125 $126 $127 $128 reversed $49 $-1 #
face $-1 $129 $130 $29 $-1 $131 reversed single #
loop $-1 $-1 $132 $51 #
plane-surface $-1 -48.518326364940343 24.139872400430807 3.376909054673277 -0.6018150307709319 0 0.79863550430605224 0.79863550430605224 0 0.6018150307709319 forward_v I I I I #
coedge $-1 $133 $134 $135 $136 reversed $52 $-1 #
face $-1 $-1 $137 $30 $-1 $138 forward single #
loop $-1 $139 $140 $54 #
cone-surface $-1 -45.546102934565781 21.164572270185356 4.0514705189510982 0.6018150307709319 0 -0.79863550430605224 0.19965887607651306 0 0.15045375769273298 1 I I -0.70710678118654746 0.70710678118654746 0.25 forward I I I I #
loop $-1 $-1 $141 $39 #
coedge $-1 $88 $88 $142 $143 reversed $55 $-1 #
face $-1 $-1 $144 $31 $-1 $145 forward single #
loop $-1 $146 $147 $57 #
cone-surface $-1 -45.546102934565781 24.139872400430807 4.0514705189510982 0.6018150307709319 0 -0.79863550430605224 0.19965887607651306 0 0.15045375769273298 1 I I -0.70710678118654746 0.70710678118654746 0.25 forward I I I I #
loop $-1 $-1 $148 $40 #
coedge $-1 $93 $93 $149 $150 reversed $58 $-1 #
face $-1 $-1 $151 $32 $-1 $152 forward single #
loop $-1 $153 $154 $60 #
cone-surface $-1 -45.546102934565781 27.115172530676258 4.0514705189510982 0.6018150307709319 0 -0.79863550430605224 0.19965887607651306 0 0.15045375769273298 1 I I -0.70710678118654746 0.70710678118654746 0.25 forward I I I I #
loop $-1 $-1 $155 $41 #
coedge $-1 $98 $98 $156 $157 reversed $61 $-1 #
face $-1 $158 $159 $33 $-1 $160 reversed single #
loop $-1 $-1 $161 $63 #
plane-surface $-1 -1.4592431874702214 18.423259210445313 85.576633119940624 0.85716730853699208 0 0.51503806187062418 0.51503806187062418 0 -0.85716730853699208 forward_v I I I I #
coedge $-1 $162 $163 $164 $165 reversed $64 $-1 #
face $-1 $-1 $166 $34 $-1 $167 forward single #
loop $-1 $168 $169 $66 #
cone-surface $-1 46.255362894829091 16.614962130429294 3.981885887407576 -0.85716730853699208 0 -0.51503806187062418 0.064379757733828022 0 -0.10714591356712401 1 I I -0.70710678118654746 0.70710678118654746 0.125 forward I I I I #
loop $-1 $-1 $170 $43 #
coedge $-1 $107 $107 $171 $172 reversed $67 $-1 #
face $-1 $-1 $173 $35 $-1 $174 forward single #
loop $-1 $175 $176 $69 #
cone-surface $-1 46.255362894829091 20.231556290461324 3.981885887407576 -0.85716730853699208 0 -0.51503806187062418 0.064379757733828022 0 -0.10714591356712401 1 I I -0.70710678118654746 0.70710678118654746 0.125 forward I I I I #
loop $-1 $-1 $177 $44 #
coedge $-1 $112 $112 $178 $179 reversed $70 $-1 #
face $-1 $180 $181 $27 $-1 $182 reversed single #
loop $-1 $-1 $183 $72 #
plane-surface $-1 0 -29.098705950839896 0 0 1 0 0 0 1 forward_v I I I I #
coedge $-1 $184 $185 $186 $187 forward $73 $-1 #
coedge $-1 $188 $75 $189 $190 forward $46 $-1 #
coedge $-1 $75 $188 $191 $192 forward $46 $-1 #
coedge $-1 $193 $194 $75 $120 reversed $195 $-1 #
edge $-1 $196 -29.098705950839896 $197 29.098705950839896 $119 $198 forward 7 unknown #
face $-1 $199 $200 $28 $-1 $201 reversed single #
loop $-1 $-1 $202 $76 #
plane-surface $-1 0 0 -6.7226207439940522 0 0 1 1 0 0 forward_v I I I I #
coedge $-1 $203 $204 $205 $206 reversed $77 $-1 #
coedge $-1 $207 $79 $204 $208 forward $49 $-1 #
coedge $-1 $79 $207 $209 $210 reversed $49 $-1 #
coedge $-1 $211 $205 $79 $128 forward $200 $-1 #
edge $-1 $212 8.8902263365005876 $213 16.435728521726404 $127 $214 forward 7 unknown #
face $-1 $215 $216 $29 $-1 $217 reversed single #
loop $-1 $-1 $218 $80 #
plane-surface $-1 0 29.098705950839896 0 0 -1 0 0 0 -1 forward_v I I I I #
coedge $-1 $219 $220 $221 $222 reversed $81 $-1 #
coedge $-1 $134 $83 $223 $224 reversed $52 $-1 #
coedge $-1 $83 $133 $219 $225 reversed $52 $-1 #
coedge $-1 $221 $226 $83 $136 forward $227 $-1 #
edge $-1 $228 4.9398948918005203 $229 9.3798041756222972 $135 $230 forward 7 unknown #
loop $-1 $-1 $142 $84 #
plane-surface $-1 -48.518326364940343 24.139872400430807 3.376909054673277 -0.6018150307709319 0 0.79863550430605224 0.79863550430605224 0 0.6018150307709319 forward_v I I I I #
loop $-1 $-1 $231 $54 #
coedge $-1 $140 $140 $141 $232 reversed $85 $-1 #
coedge $-1 $141 $141 $140 $232 forward $87 $-1 #
coedge $-1 $142 $142 $88 $143 forward $137 $-1 #
edge $-1 $233 0 $233 6.2831853071796004 $142 $234 forward 7 unknown #
loop $-1 $-1 $149 $89 #
plane-surface $-1 -48.518326364940343 24.139872400430807 3.376909054673277 -0.6018150307709319 0 0.79863550430605224 0.79863550430605224 0 0.6018150307709319 forward_v I I I I #
loop $-1 $-1 $235 $57 #
coedge $-1 $147 $147 $148 $236 reversed $90 $-1 #
coedge $-1 $148 $148 $147 $236 forward $92 $-1 #
coedge $-1 $149 $149 $93 $150 forward $144 $-1 #
edge $-1 $237 0 $237 6.2831853071796004 $149 $238 forward 7 unknown #
loop $-1 $-1 $156 $94 #
plane-surface $-1 -48.518326364940343 24.139872400430807 3.376909054673277 -0.6018150307709319 0 0.79863550430605224 0.79863550430605224 0 0.6018150307709319 forward_v I I I I #
loop $-1 $-1 $239 $60 #
coedge $-1 $154 $154 $155 $240 reversed $95 $-1 #
coedge $-1 $155 $155 $154 $240 forward $97 $-1 #
coedge $-1 $156 $156 $98 $157 forward $151 $-1 #
edge $-1 $241 0 $241 6.2831853071796004 $156 $242 forward 7 unknown #
face $-1 $243 $244 $33 $-1 $245 forward single #
loop $-1 $-1 $246 $99 #
plane-surface $-1 81.717403262440357 14.203899357074611 135.55420267235118 0 1 0 0.85716730853699208 0 0.51503806187062418 forward_v I I I I #
coedge $-1 $247 $248 $249 $250 reversed $100 $-1 #
coedge $-1 $163 $102 $251 $252 reversed $64 $-1 #
coedge $-1 $102 $162 $247 $253 reversed $64 $-1 #
coedge $-1 $249 $254 $102 $165 forward $244 $-1 #
edge $-1 $255 -7.6596247337201575 $256 -5.0623242377058872 $164 $257 forward 7 unknown #
loop $-1 $-1 $171 $103 #
plane-surface $-1 -1.4592431874702214 18.423259210445313 85.576633119940624 0.85716730853699208 0 0.51503806187062418 0.51503806187062418 0 -0.85716730853699208 forward_v I I I I #
loop $-1 $-1 $258 $66 #
coedge $-1 $169 $169 $170 $259 reversed $104 $-1 #
coedge $-1 $170 $170 $169 $259 forward $106 $-1 #
coedge $-1 $171 $171 $107 $172 forward $166 $-1 #
edge $-1 $260 0 $260 6.2831853071796004 $171 $261 forward 7 unknown #
loop $-1 $-1 $178 $108 #
plane-surface $-1 -1.4592431874702214 18.423259210445313 85.576633119940624 0.85716730853699208 0 0.51503806187062418 0.51503806187062418 0 -0.85716730853699208 forward_v I I I I #
loop $-1 $-1 $262 $69 #
coedge $-1 $176 $176 $177 $263 reversed $109 $-1 #
coedge $-1 $177 $177 $176 $263 forward $111 $-1 #
coedge $-1 $178 $178 $112 $179 forward $173 $-1 #
edge $-1 $264 0 $264 6.2831853071796004 $178 $265 forward 7 unknown #
face $-1 $266 $267 $27 $-1 $268 reversed single #
loop $-1 $-1 $269 $113 #
plane-surface $-1 -48.518326364940336 0 0 1 0 0 0 0 -1 forward_v I I I I #
coedge $-1 $270 $191 $271 $272 forward $114 $-1 #
coedge $-1 $273 $116 $270 $274 forward $73 $-1 #
coedge $-1 $116 $273 $275 $276 forward $73 $-1 #
coedge $-1 $194 $193 $116 $187 reversed $195 $-1 #
edge $-1 $277 -29.098705950839896 $278 29.098705950839896 $186 $279 forward 7 unknown #
coedge $-1 $118 $117 $280 $281 forward $46 $-1 #
coedge $-1 $282 $283 $117 $190 reversed $267 $-1 #
edge $-1 $197 -48.518326364940336 $284 48.518326364940336 $189 $285 forward 7 unknown #
coedge $-1 $183 $286 $118 $192 reversed $114 $-1 #
edge $-1 $287 -48.518326364940336 $196 48.518326364940336 $191 $288 forward 7 unknown #
coedge $-1 $186 $119 $286 $289 forward $195 $-1 #
coedge $-1 $119 $186 $282 $290 reversed $195 $-1 #
loop $-1 $-1 $193 $266 #
vertex $-1 $120 $291 #
vertex $-1 $120 $292 #
straight-curve $-1 48.518326364940336 0 6.7226207439940522 0 1 0 I I #
face $-1 $293 $294 $28 $-1 $295 reversed single #
loop $-1 $-1 $205 $121 #
plane-surface $-1 48.518326364940336 0 0 -1 0 0 0 0 1 forward_v I I I I #
coedge $-1 $296 $297 $203 $298 forward $122 $-1 #
coedge $-1 $299 $124 $202 $298 reversed $77 $-1 #
coedge $-1 $124 $299 $125 $208 reversed $77 $-1 #
coedge $-1 $127 $300 $124 $206 forward $200 $-1 #
edge $-1 $301 -4.1147662437973427 $212 -1.1009427565960777 $205 $302 forward 7 unknown #
coedge $-1 $126 $125 $303 $304 reversed $49 $-1 #
edge $-1 $212 -48.518326364940336 $305 48.518326364940336 $204 $306 forward 7 unknown #
coedge $-1 $307 $308 $126 $210 forward $294 $-1 #
edge $-1 $213 -48.518326364940336 $309 48.518326364940336 $209 $310 forward 7 unknown #
coedge $-1 $300 $127 $308 $311 forward $200 $-1 #
vertex $-1 $128 $312 #
vertex $-1 $311 $313 #
straight-curve $-1 48.518326364940336 -12.662977429113495 -3.7087972567927876 0 -1 0 I I #
face $-1 $-1 $227 $29 $-1 $314 forward single #
loop $-1 $-1 $315 $129 #
plane-surface $-1 -48.518326364940336 0 0 1 0 0 0 0 -1 forward_v I I I I #
coedge $-1 $316 $317 $220 $318 forward $130 $-1 #
coedge $-1 $319 $132 $134 $225 forward $81 $-1 #
coedge $-1 $132 $319 $218 $318 reversed $81 $-1 #
coedge $-1 $320 $135 $132 $222 forward $227 $-1 #
edge $-1 $229 7.1111026498063143 $321 17.028769750624491 $221 $322 forward 7 unknown #
coedge $-1 $323 $315 $133 $224 forward $216 $-1 #
edge $-1 $324 -37.060003517213111 $228 -33.714291827892346 $223 $325 forward 7 unknown #
edge $-1 $229 -5.5593687732173827 $324 -8.8817612989391469e-015 $134 $326 forward 7 unknown #
coedge $-1 $135 $320 $323 $327 forward $227 $-1 #
loop $-1 $-1 $221 $215 #
vertex $-1 $224 $328 #
vertex $-1 $136 $329 #
straight-curve $-1 -53.458221256740856 19.181038850021718 6.7226207439940495 1 0 0 I I #
coedge $-1 $231 $231 $-1 $330 reversed $139 $-1 #
edge $-1 $331 0 $331 6.2831853071796004 $140 $332 forward 7 unknown #
vertex $-1 $143 $333 #
ellipse-curve $-1 -46.298371723029447 21.164572270185356 5.0497648993336677 -0.6018150307709319 0 0.79863550430605224 0.39931775215302612 0 0.30090751538546595 1 I I #
coedge $-1 $235 $235 $-1 $334 reversed $146 $-1 #
edge $-1 $335 0 $335 6.2831853071796004 $147 $336 forward 7 unknown #
vertex $-1 $150 $337 #
ellipse-curve $-1 -46.298371723029447 24.139872400430807 5.0497648993336677 -0.6018150307709319 0 0.79863550430605224 0.39931775215302612 0 0.30090751538546595 1 I I #
coedge $-1 $239 $239 $-1 $338 reversed $153 $-1 #
edge $-1 $339 0 $339 6.2831853071796004 $154 $340 forward 7 unknown #
vertex $-1 $157 $341 #
ellipse-curve $-1 -46.298371723029447 27.115172530676258 5.0497648993336677 -0.6018150307709319 0 0.79863550430605224 0.39931775215302612 0 0.30090751538546595 1 I I #
face $-1 $-1 $342 $33 $-1 $343 reversed single #
loop $-1 $-1 $164 $158 #
plane-surface $-1 0 0 6.7226207439940522 0 0 1 1 0 0 forward_v I I I I #
coedge $-1 $344 $345 $346 $347 reversed $159 $-1 #
coedge $-1 $348 $161 $163 $253 forward $100 $-1 #
coedge $-1 $161 $348 $344 $349 forward $100 $-1 #
coedge $-1 $346 $164 $161 $250 forward $244 $-1 #
edge $-1 $256 -13.430989458593357 $350 -4.9922697518519552 $249 $351 forward 7 unknown #
coedge $-1 $352 $353 $162 $252 forward $342 $-1 #
edge $-1 $354 -65.377114666145545 $255 -61.054480592181541 $251 $355 forward 7 unknown #
edge $-1 $256 91.993723501347873 $354 97.036652729880686 $163 $356 forward 7 unknown #
coedge $-1 $164 $346 $352 $357 forward $244 $-1 #
vertex $-1 $252 $358 #
vertex $-1 $165 $359 #
straight-curve $-1 40.858701631220178 22.642619063816014 6.7226207439940566 -1 0 0 I I #
coedge $-1 $258 $258 $-1 $360 reversed $168 $-1 #
edge $-1 $361 0 $361 6.2831853071796004 $169 $362 forward 7 unknown #
vertex $-1 $172 $363 #
ellipse-curve $-1 47.219676116933208 16.614962130429294 4.5613037070120317 0.85716730853699208 0 0.51503806187062418 0.12875951546765604 0 -0.21429182713424802 1 I I #
coedge $-1 $262 $262 $-1 $364 reversed $175 $-1 #
edge $-1 $365 0 $365 6.2831853071796004 $176 $366 forward 7 unknown #
vertex $-1 $179 $367 #
ellipse-curve $-1 47.219676116933208 20.231556290461324 4.5613037070120317 0.85716730853699208 0 0.51503806187062418 0.12875951546765604 0 -0.21429182713424802 1 I I #
face $-1 $-1 $195 $27 $-1 $368 reversed single #
loop $-1 $-1 $282 $180 #
plane-surface $-1 0 29.098705950839896 0 0 -1 0 0 0 -1 forward_v I I I I #
coedge $-1 $369 $280 $283 $370 forward $181 $-1 #
coedge $-1 $286 $183 $184 $274 reversed $114 $-1 #
coedge $-1 $280 $369 $183 $272 reversed $181 $-1 #
edge $-1 $287 -6.7226207439940522 $371 6.7226207439940522 $271 $372 forward 7 unknown #
coedge $-1 $185 $184 $369 $373 forward $73 $-1 #
edge $-1 $278 -48.518326364940336 $371 48.518326364940336 $270 $374 forward 7 unknown #
coedge $-1 $283 $282 $185 $276 reversed $267 $-1 #
edge $-1 $375 -48.518326364940336 $277 48.518326364940336 $275 $376 forward 7 unknown #
vertex $-1 $187 $377 #
vertex $-1 $289 $378 #
straight-curve $-1 48.518326364940336 0 -6.7226207439940522 0 -1 0 I I #
coedge $-1 $269 $271 $188 $281 reversed $181 $-1 #
edge $-1 $284 -29.098705950839896 $287 29.098705950839896 $280 $379 forward 7 unknown #
coedge $-1 $275 $189 $194 $290 forward $267 $-1 #
coedge $-1 $189 $275 $269 $370 reversed $267 $-1 #
vertex $-1 $190 $380 #
straight-curve $-1 0 29.098705950839896 6.7226207439940522 -1 0 0 I I #
coedge $-1 $191 $270 $193 $289 reversed $114 $-1 #
vertex $-1 $281 $381 #
straight-curve $-1 0 -29.098705950839896 6.7226207439940522 1 0 0 I I #
edge $-1 $196 -6.7226207439940522 $278 6.7226207439940522 $193 $382 forward 7 unknown #
edge $-1 $197 -6.7226207439940522 $277 6.7226207439940522 $194 $383 forward 7 unknown #
point $-1 48.518326364940336 -29.098705950839896 6.7226207439940522 #
point $-1 48.518326364940336 29.098705950839896 6.7226207439940522 #
face $-1 $-1 $384 $28 $-1 $385 reversed single #
loop $-1 $-1 $209 $199 #
plane-surface $-1 0 -29.098705950839896 0 0 1 0 0 0 1 forward_v I I I I #
coedge $-1 $386 $202 $300 $387 forward $122 $-1 #
coedge $-1 $202 $386 $388 $389 forward $122 $-1 #
edge $-1 $390 -48.518326364940336 $301 48.518326364940336 $202 $391 forward 7 unknown #
coedge $-1 $204 $203 $392 $393 reversed $77 $-1 #
coedge $-1 $205 $211 $296 $387 reversed $200 $-1 #
vertex $-1 $387 $394 #
straight-curve $-1 48.518326364940336 -21.553203765614082 -2.6078545001967099 0 0 1 I I #
coedge $-1 $392 $395 $207 $304 forward $384 $-1 #
edge $-1 $309 -16.435728521726404 $305 -8.8902263365005876 $303 $396 forward 7 unknown #
vertex $-1 $304 $397 #
straight-curve $-1 0 -21.553203765614082 -3.7087972567927876 -1 0 0 I I #
coedge $-1 $398 $209 $395 $399 forward $294 $-1 #
coedge $-1 $209 $398 $211 $311 reversed $294 $-1 #
vertex $-1 $399 $400 #
straight-curve $-1 0 -29.098705950839896 -3.7087972567927876 -1 0 0 I I #
edge $-1 $213 3.7087972567927876 $401 6.7226207439940522 $211 $402 forward 7 unknown #
point $-1 48.518326364940336 -21.553203765614082 -3.7087972567927876 #
point $-1 48.518326364940336 -29.098705950839896 -3.7087972567927876 #
plane-surface $-1 0 0 6.7226207439940522 0 0 1 1 0 0 forward_v I I I I #
coedge $-1 $223 $403 $319 $404 forward $216 $-1 #
coedge $-1 $317 $218 $403 $405 reversed $130 $-1 #
coedge $-1 $218 $316 $320 $406 reversed $130 $-1 #
edge $-1 $321 12.798722935733078 $407 18.358091708950454 $218 $408 forward 7 unknown #
coedge $-1 $220 $219 $315 $404 reversed $81 $-1 #
coedge $-1 $226 $221 $317 $406 forward $227 $-1 #
vertex $-1 $406 $409 #
straight-curve $-1 -44.078417081118566 12.069936200215404 6.7226207439940531 0 1 0 I I #
coedge $-1 $403 $223 $226 $327 reversed $216 $-1 #
vertex $-1 $224 $410 #
straight-curve $-1 -48.518326364940336 19.181038850021718 40.436912571886396 0 0 1 I I #
straight-curve $-1 -48.518326364940343 19.181038850021718 3.376909054673277 -0.79863550430605224 0 -0.6018150307709319 I I #
edge $-1 $411 -29.098705950839896 $228 -19.181038850021718 $323 $412 forward 7 unknown #
point $-1 -48.518326364940336 19.181038850021718 6.7226207439940522 #
point $-1 -44.078417081118559 19.181038850021718 6.7226207439940531 #
edge $-1 $413 1 $413 0 $231 $-1 forward 7 unknown #
vertex $-1 $232 $414 #
ellipse-curve $-1 -45.696556692258511 21.164572270185356 4.2511293950276112 -0.6018150307709319 0 0.79863550430605224 0.39931775215302612 0 0.30090751538546595 1 I I #
point $-1 -45.899053970876416 21.164572270185356 5.3506724147191296 #
edge $-1 $415 1 $415 0 $235 $-1 forward 7 unknown #
vertex $-1 $236 $416 #
ellipse-curve $-1 -45.696556692258511 24.139872400430807 4.2511293950276112 -0.6018150307709319 0 0.79863550430605224 0.39931775215302612 0 0.30090751538546595 1 I I #
point $-1 -45.899053970876416 24.139872400430807 5.3506724147191296 #
edge $-1 $417 1 $417 0 $239 $-1 forward 7 unknown #
vertex $-1 $240 $418 #
ellipse-curve $-1 -45.696556692258511 27.115172530676258 4.2511293950276112 -0.6018150307709319 0 0.79863550430605224 0.39931775215302612 0 0.30090751538546595 1 I I #
point $-1 -45.899053970876416 27.115172530676258 5.3506724147191296 #
loop $-1 $-1 $251 $243 #
plane-surface $-1 48.518326364940336 0 0 -1 0 0 0 0 1 forward_v I I I I #
coedge $-1 $345 $246 $248 $349 reversed $159 $-1 #
coedge $-1 $246 $344 $419 $420 reversed $159 $-1 #
coedge $-1 $254 $249 $246 $347 forward $244 $-1 #
edge $-1 $350 5.0623242377058872 $421 7.6596247337201575 $346 $422 forward 7 unknown #
coedge $-1 $248 $247 $353 $423 reversed $100 $-1 #
edge $-1 $424 -97.036652729880686 $350 -91.993723501347873 $344 $425 forward 7 unknown #
vertex $-1 $250 $426 #
straight-curve $-1 45.921025868926066 9.2116296052226563 6.7226207439940424 0 -1 0 I I #
coedge $-1 $419 $251 $254 $357 reversed $342 $-1 #
coedge $-1 $251 $419 $348 $423 forward $342 $-1 #
vertex $-1 $252 $427 #
straight-curve $-1 48.518326364940336 22.642619063816014 67.777101336175591 0 0 1 I I #
straight-curve $-1 -1.4592431874702214 22.642619063816014 85.576633119940624 0.51503806187062418 0 -0.85716730853699208 I I #
edge $-1 $421 14.203899357074611 $255 22.642619063816014 $352 $428 forward 7 unknown #
point $-1 48.518326364940336 22.642619063816014 6.7226207439940522 #
point $-1 45.921025868926066 22.642619063816014 6.7226207439940566 #
edge $-1 $429 1 $429 0 $258 $-1 forward 7 unknown #
vertex $-1 $259 $430 #
ellipse-curve $-1 46.362508808396214 16.614962130429294 4.0462656451414043 0.85716730853699208 0 0.51503806187062418 0.12875951546765604 0 -0.21429182713424802 1 I I #
point $-1 47.348435632400864 16.614962130429294 4.3470118798777797 #
edge $-1 $431 1 $431 0 $262 $-1 forward 7 unknown #
vertex $-1 $263 $432 #
ellipse-curve $-1 46.362508808396214 20.231556290461324 4.0462656451414043 0.85716730853699208 0 0.51503806187062418 0.12875951546765604 0 -0.21429182713424802 1 I I #
point $-1 47.348435632400864 20.231556290461324 4.3470118798777797 #
plane-surface $-1 48.518326364940336 0 0 -1 0 0 0 0 1 forward_v I I I I #
coedge $-1 $271 $269 $273 $373 reversed $181 $-1 #
edge $-1 $284 -6.7226207439940522 $375 6.7226207439940522 $283 $433 forward 7 unknown #
vertex $-1 $373 $434 #
straight-curve $-1 -48.518326364940336 -29.098705950839896 0 0 0 -1 I I #
edge $-1 $371 -29.098705950839896 $375 29.098705950839896 $369 $435 forward 7 unknown #
straight-curve $-1 0 -29.098705950839896 -6.7226207439940522 -1 0 0 I I #
vertex $-1 $276 $436 #
straight-curve $-1 0 29.098705950839896 -6.7226207439940522 1 0 0 I I #
point $-1 48.518326364940336 29.098705950839896 -6.7226207439940522 #
point $-1 48.518326364940336 -29.098705950839896 -6.7226207439940522 #
straight-curve $-1 -48.518326364940336 0 6.7226207439940522 0 -1 0 I I #
point $-1 -48.518326364940336 29.098705950839896 6.7226207439940522 #
point $-1 -48.518326364940336 -29.098705950839896 6.7226207439940522 #
straight-curve $-1 48.518326364940336 -29.098705950839896 0 0 0 -1 I I #
straight-curve $-1 48.518326364940336 29.098705950839896 0 0 0 -1 I I #
loop $-1 $-1 $392 $293 #
plane-surface $-1 -48.518326364940336 0 0 1 0 0 0 0 -1 forward_v I I I I #
coedge $-1 $297 $296 $398 $437 forward $122 $-1 #
edge $-1 $301 21.553203765614082 $401 29.098705950839896 $300 $438 forward 7 unknown #
coedge $-1 $395 $392 $297 $389 reversed $384 $-1 #
edge $-1 $439 -29.098705950839896 $390 -21.553203765614082 $388 $440 forward 7 unknown #
vertex $-1 $393 $441 #
straight-curve $-1 0 -21.553203765614082 -6.7226207439940522 1 0 0 I I #
coedge $-1 $388 $303 $299 $393 forward $384 $-1 #
edge $-1 $305 1.1009427565960777 $390 4.1147662437973427 $392 $442 forward 7 unknown #
point $-1 48.518326364940336 -21.553203765614082 -6.7226207439940522 #
coedge $-1 $303 $388 $307 $399 reversed $384 $-1 #
straight-curve $-1 -48.518326364940336 -12.662977429113495 -3.7087972567927876 0 1 0 I I #
point $-1 -48.518326364940336 -21.553203765614082 -3.7087972567927876 #
coedge $-1 $308 $307 $386 $437 reversed $294 $-1 #
edge $-1 $309 3.7087972567927876 $439 6.7226207439940522 $395 $443 forward 7 unknown #
point $-1 -48.518326364940336 -29.098705950839896 -3.7087972567927876 #
vertex $-1 $311 $444 #
straight-curve $-1 48.518326364940336 -29.098705950839896 0 0 0 -1 I I #
coedge $-1 $315 $323 $316 $405 forward $216 $-1 #
edge $-1 $407 -17.028769750624491 $324 -7.1111026498063143 $315 $445 forward 7 unknown #
edge $-1 $411 -6.7226207439940522 $407 -3.3769090546732823 $316 $446 forward 7 unknown #
edge $-1 $321 44.078417081118559 $411 48.518326364940336 $317 $447 forward 7 unknown #
vertex $-1 $318 $448 #
straight-curve $-1 -33.856902534865938 29.098705950839896 14.425084581390889 -0.79863550430605224 0 -0.6018150307709319 I I #
point $-1 -44.078417081118559 29.098705950839896 6.7226207439940531 #
point $-1 -48.518326364940336 19.181038850021718 3.3769090546732823 #
vertex $-1 $406 $449 #
straight-curve $-1 -48.518326364940336 0 6.7226207439940522 0 -1 0 I I #
vertex $-1 $330 $450 #
point $-1 -45.297238940105487 21.164572270185356 4.5520369104130776 #
vertex $-1 $334 $451 #
point $-1 -45.297238940105487 24.139872400430807 4.5520369104130776 #
vertex $-1 $338 $452 #
point $-1 -45.297238940105487 27.115172530676258 4.5520369104130776 #
coedge $-1 $353 $352 $345 $420 forward $342 $-1 #
edge $-1 $421 61.054480592181541 $424 65.377114666145545 $419 $453 forward 7 unknown #
vertex $-1 $357 $454 #
straight-curve $-1 40.858701631220178 14.203899357074611 6.7226207439940566 1 0 0 I I #
edge $-1 $424 4.9922697518519552 $354 13.430989458593357 $353 $455 forward 7 unknown #
vertex $-1 $423 $456 #
straight-curve $-1 -1.4592431874702214 14.203899357074611 85.576633119940624 -0.51503806187062418 0 0.85716730853699208 I I #
point $-1 45.921025868926066 14.203899357074611 6.7226207439940566 #
point $-1 48.518326364940336 22.642619063816014 2.3999866700300458 #
straight-curve $-1 48.518326364940336 0 6.7226207439940522 0 1 0 I I #
vertex $-1 $360 $457 #
point $-1 46.491268323863871 16.614962130429294 3.8319738180071559 #
vertex $-1 $364 $458 #
point $-1 46.491268323863871 20.231556290461324 3.8319738180071559 #
straight-curve $-1 -48.518326364940336 29.098705950839896 0 0 0 -1 I I #
point $-1 -48.518326364940336 -29.098705950839896 -6.7226207439940522 #
straight-curve $-1 -48.518326364940336 0 -6.7226207439940522 0 1 0 I I #
point $-1 -48.518326364940336 29.098705950839896 -6.7226207439940522 #
edge $-1 $401 -48.518326364940336 $439 48.518326364940336 $398 $459 forward 7 unknown #
straight-curve $-1 48.518326364940336 0 -6.7226207439940522 0 -1 0 I I #
vertex $-1 $389 $460 #
straight-curve $-1 -48.518326364940336 0 -6.7226207439940522 0 1 0 I I #
point $-1 -48.518326364940336 -21.553203765614082 -6.7226207439940522 #
straight-curve $-1 -48.518326364940336 -21.553203765614082 -2.6078545001967099 0 0 -1 I I #
straight-curve $-1 -48.518326364940336 -29.098705950839896 0 0 0 -1 I I #
point $-1 48.518326364940336 -29.098705950839896 -6.7226207439940522 #
straight-curve $-1 -48.518326364940336 12.069936200215404 3.3769090546732814 0 -1 0 I I #
straight-curve $-1 -48.518326364940336 29.098705950839896 0 0 0 -1 I I #
straight-curve $-1 0 29.098705950839896 6.7226207439940522 -1 0 0 I I #
point $-1 -48.518326364940336 29.098705950839896 3.3769090546732823 #
point $-1 -48.518326364940336 29.098705950839896 6.7226207439940522 #
point $-1 -45.39564917687305 21.164572270185356 3.8518116428745852 #
point $-1 -45.39564917687305 24.139872400430807 3.8518116428745852 #
point $-1 -45.39564917687305 27.115172530676258 3.8518116428745852 #
straight-curve $-1 48.518326364940336 14.203899357074611 67.777101336175591 0 0 -1 I I #
point $-1 48.518326364940336 14.203899357074611 6.7226207439940522 #
straight-curve $-1 48.518326364940336 9.2116296052226563 2.3999866700300387 0 1 0 I I #
point $-1 48.518326364940336 14.203899357074611 2.3999866700300458 #
point $-1 46.148216981261967 16.614962130429294 3.9175061296737481 #
point $-1 46.148216981261967 20.231556290461324 3.9175061296737481 #
straight-curve $-1 0 -29.098705950839896 -6.7226207439940522 -1 0 0 I I #
point $-1 -48.518326364940336 -29.098705950839896 -6.7226207439940522 #
End-of-ACIS-data 