500 0 8 0           
7 Unknown 11 ACIS 5.0 NT 24 Fri Mar 26 20:34:11 1999 
-1 9.9999999999999995e-007 1e-010 
body $-1 $8 $-1 $9 #
body $-1 $10 $-1 $11 #
body $-1 $12 $-1 $13 #
body $-1 $14 $-1 $15 #
body $-1 $16 $-1 $17 #
body $-1 $18 $-1 $19 #
body $-1 $20 $-1 $21 #
body $-1 $22 $-1 $23 #
lump $-1 $-1 $24 $0 #
transform $-1 1 0 0 0 1 0 0 0 1 62.525101474044007 33.718178444378403 10.28791871802002 1 rotate no_reflect no_shear #
lump $-1 $-1 $25 $1 #
transform $-1 1 0 0 0 1 0 0 0 1 62.525101474044007 33.718178444378403 10.28791871802002 1 rotate no_reflect no_shear #
lump $-1 $-1 $26 $2 #
transform $-1 1 0 0 0 1 0 0 0 1 62.525101474044007 33.718178444378403 10.28791871802002 1 rotate no_reflect no_shear #
lump $-1 $-1 $27 $3 #
transform $-1 1 0 0 0 1 0 0 0 1 62.525101474044007 33.718178444378403 10.28791871802002 1 rotate no_reflect no_shear #
lump $-1 $-1 $28 $4 #
transform $-1 1 0 0 0 1 0 0 0 1 62.525101474044007 33.718178444378403 10.28791871802002 1 rotate no_reflect no_shear #
lump $-1 $-1 $29 $5 #
transform $-1 1 0 0 0 1 0 0 0 1 62.525101474044007 33.718178444378403 10.28791871802002 1 rotate no_reflect no_shear #
lump $-1 $-1 $30 $6 #
transform $-1 1 0 0 0 1 0 0 0 1 62.525101474044007 33.718178444378403 10.28791871802002 1 rotate no_reflect no_shear #
lump $-1 $-1 $31 $7 #
transform $-1 1 0 0 0 1 0 0 0 1 62.525101474044007 33.718178444378403 10.28791871802002 1 rotate no_reflect no_shear #
shell $-1 $-1 $-1 $32 $-1 $8 #
shell $-1 $-1 $-1 $33 $-1 $10 #
shell $-1 $-1 $-1 $34 $-1 $12 #
shell $-1 $-1 $-1 $35 $-1 $14 #
shell $-1 $-1 $-1 $36 $-1 $16 #
shell $-1 $-1 $-1 $37 $-1 $18 #
shell $-1 $-1 $-1 $38 $-1 $20 #
shell $-1 $-1 $-1 $39 $-1 $22 #
face $-1 $40 $41 $24 $-1 $42 forward single #
face $-1 $43 $44 $25 $-1 $45 reversed single #
face $-1 $46 $47 $26 $-1 $48 reversed single #
face $-1 $49 $50 $27 $-1 $51 forward single #
face $-1 $52 $53 $28 $-1 $54 reversed single #
face $-1 $55 $56 $29 $-1 $57 forward single #
face $-1 $58 $59 $30 $-1 $60 forward single #
face $-1 $61 $62 $31 $-1 $63 forward single #
face $-1 $64 $65 $24 $-1 $66 reversed single #
loop $-1 $-1 $67 $32 #
plane-surface $-1 0 0 10.28791871802002 0 0 1 1 0 0 forward_v I I I I #
face $-1 $68 $69 $25 $-1 $70 reversed single #
loop $-1 $-1 $71 $33 #
plane-surface $-1 -47.996426490862305 -30.292600098597319 0 1 0 0 0 0 -1 forward_v I I I I #
face $-1 $72 $73 $26 $-1 $74 reversed single #
loop $-1 $-1 $75 $34 #
plane-surface $-1 102.30717904654988 -0.022582776353127443 177.8032225537039 0 -1 0 -0.84804810408105047 0 -0.52991925155115449 forward_v I I I I #
face $-1 $76 $77 $27 $-1 $78 forward single #
loop $-1 $79 $80 $35 #
cone-surface $-1 59.476401297280972 -6.725746188777201 6.9200504036846899 -0.84804810408105047 0 -0.52991925155115449 0.52991925155115449 0 -0.84804810408105047 1 I I 0 1 1 forward I I I I #
face $-1 $81 $82 $28 $-1 $83 reversed single #
loop $-1 $-1 $84 $36 #
plane-surface $-1 -168.57368899912063 -14.553885899182426 70.989300139601525 0 1 0 -0.84804810408105047 0 0.52991925155115449 forward_v I I I I #
face $-1 $85 $86 $29 $-1 $87 forward single #
loop $-1 $88 $89 $37 #
cone-surface $-1 -60.36233835063711 -12.217194584591201 7.2403948267498137 0.84804810408105047 0 -0.52991925155115449 0.26495962577557725 0 0.42402405204052523 1 I I 0 1 0.5 forward I I I I #
face $-1 $90 $91 $30 $-1 $92 forward single #
loop $-1 $93 $94 $38 #
cone-surface $-1 -60.36233835063711 -8.7121576127043667 7.2403948267498137 0.84804810408105047 0 -0.52991925155115449 0.26495962577557725 0 0.42402405204052523 1 I I 0 1 0.5 forward I I I I #
face $-1 $95 $96 $31 $-1 $97 forward single #
loop $-1 $98 $99 $39 #
cone-surface $-1 -60.36233835063711 -5.2071206408175321 7.2403948267498137 0.84804810408105047 0 -0.52991925155115449 0.26495962577557725 0 0.42402405204052523 1 I I 0 1 0.5 forward I I I I #
face $-1 $100 $101 $24 $-1 $102 reversed single #
loop $-1 $-1 $103 $40 #
plane-surface $-1 0 0 -10.28791871802002 0 0 1 1 0 0 forward_v I I I I #
coedge $-1 $104 $105 $106 $107 forward $41 $-1 #
face $-1 $108 $109 $25 $-1 $110 reversed single #
loop $-1 $-1 $111 $43 #
plane-surface $-1 -44.972845264433133 -26.867021752816235 0 0 -1 0 0 0 -1 forward_v I I I I #
coedge $-1 $112 $113 $114 $115 forward $44 $-1 #
face $-1 $116 $117 $26 $-1 $118 reversed single #
loop $-1 $-1 $119 $46 #
plane-surface $-1 -3.7414084785267505 -6.725746188777201 111.53671260113313 0.84804810408105047 0 0.52991925155115449 0.52991925155115449 0 -0.84804810408105047 forward_v I I I I #
coedge $-1 $120 $121 $122 $123 reversed $47 $-1 #
face $-1 $-1 $124 $27 $-1 $125 forward single #
loop $-1 $126 $127 $49 #
cone-surface $-1 57.503298989751229 -6.725746188777201 5.687119284555525 -0.84804810408105047 0 -0.52991925155115449 0.26495962577557725 0 -0.42402405204052523 1 I I -0.70710678118654746 0.70710678118654746 0.5 forward I I I I #
loop $-1 $-1 $128 $35 #
coedge $-1 $80 $80 $129 $130 reversed $50 $-1 #
face $-1 $131 $132 $28 $-1 $133 reversed single #
loop $-1 $-1 $134 $52 #
plane-surface $-1 -62.525101474044021 -8.7121576127043667 4.7227901870307534 -0.84804810408105047 0 0.52991925155115449 0.52991925155115449 0 0.84804810408105047 forward_v I I I I #
coedge $-1 $135 $136 $137 $138 reversed $53 $-1 #
face $-1 $-1 $139 $29 $-1 $140 forward single #
loop $-1 $141 $142 $55 #
cone-surface $-1 -59.726302272576319 -12.217194584591201 6.8429553880864482 0.84804810408105047 0 -0.52991925155115449 0.13247981288778862 0 0.21201202602026262 1 I I -0.70710678118654746 0.70710678118654746 0.25 forward I I I I #
loop $-1 $-1 $143 $37 #
coedge $-1 $89 $89 $144 $145 reversed $56 $-1 #
face $-1 $-1 $146 $30 $-1 $147 forward single #
loop $-1 $148 $149 $58 #
cone-surface $-1 -59.726302272576319 -8.7121576127043667 6.8429553880864482 0.84804810408105047 0 -0.52991925155115449 0.13247981288778862 0 0.21201202602026262 1 I I -0.70710678118654746 0.70710678118654746 0.25 forward I I I I #
loop $-1 $-1 $150 $38 #
coedge $-1 $94 $94 $151 $152 reversed $59 $-1 #
face $-1 $-1 $153 $31 $-1 $154 forward single #
loop $-1 $155 $156 $61 #
cone-surface $-1 -59.726302272576319 -5.2071206408175321 6.8429553880864482 0.84804810408105047 0 -0.52991925155115449 0.13247981288778862 0 0.21201202602026262 1 I I -0.70710678118654746 0.70710678118654746 0.25 forward I I I I #
loop $-1 $-1 $157 $39 #
coedge $-1 $99 $99 $158 $159 reversed $62 $-1 #
face $-1 $160 $161 $24 $-1 $162 reversed single #
loop $-1 $-1 $163 $64 #
plane-surface $-1 0 -33.718178444378403 0 0 1 0 0 0 1 forward_v I I I I #
coedge $-1 $164 $165 $166 $167 forward $65 $-1 #
coedge $-1 $168 $67 $169 $170 forward $41 $-1 #
coedge $-1 $67 $168 $171 $172 forward $41 $-1 #
coedge $-1 $173 $174 $67 $107 reversed $175 $-1 #
edge $-1 $176 -33.718178444378403 $177 33.718178444378403 $106 $178 forward 7 unknown #
face $-1 $179 $180 $25 $-1 $181 forward single #
loop $-1 $-1 $182 $68 #
plane-surface $-1 -41.94926403800396 -30.292600098597319 0 -1 0 0 0 0 1 forward_v I I I I #
coedge $-1 $183 $184 $185 $186 forward $69 $-1 #
coedge $-1 $187 $71 $188 $189 reversed $44 $-1 #
coedge $-1 $71 $187 $190 $191 reversed $44 $-1 #
coedge $-1 $184 $183 $71 $115 reversed $69 $-1 #
edge $-1 $192 -10.28791871802002 $193 10.28791871802002 $114 $194 forward 7 unknown #
face $-1 $195 $196 $26 $-1 $197 reversed single #
loop $-1 $-1 $198 $72 #
plane-surface $-1 102.30717904654988 -13.428909601201275 177.8032225537039 0 1 0 0.84804810408105047 0 0.52991925155115449 forward_v I I I I #
coedge $-1 $199 $200 $201 $202 reversed $73 $-1 #
coedge $-1 $121 $75 $203 $204 reversed $47 $-1 #
coedge $-1 $75 $120 $199 $205 reversed $47 $-1 #
coedge $-1 $201 $206 $75 $123 forward $207 $-1 #
edge $-1 $208 -11.371511950769069 $209 -8.3722681082214336 $122 $210 forward 7 unknown #
loop $-1 $-1 $129 $76 #
plane-surface $-1 -3.7414084785267505 -6.725746188777201 111.53671260113313 0.84804810408105047 0 0.52991925155115449 0.52991925155115449 0 -0.84804810408105047 forward_v I I I I #
loop $-1 $-1 $211 $49 #
coedge $-1 $127 $127 $128 $212 reversed $77 $-1 #
coedge $-1 $128 $128 $127 $212 forward $79 $-1 #
coedge $-1 $129 $129 $80 $130 forward $124 $-1 #
edge $-1 $213 0 $213 6.2831853071796004 $129 $214 forward 7 unknown #
face $-1 $215 $216 $28 $-1 $217 reversed single #
loop $-1 $-1 $218 $81 #
plane-surface $-1 -168.57368899912063 -2.8704293262263079 70.989300139601525 0 -1 0 0.84804810408105047 0 -0.52991925155115449 forward_v I I I I #
coedge $-1 $219 $220 $221 $222 reversed $82 $-1 #
coedge $-1 $136 $84 $223 $224 reversed $53 $-1 #
coedge $-1 $84 $135 $219 $225 reversed $53 $-1 #
coedge $-1 $221 $226 $84 $138 forward $227 $-1 #
edge $-1 $228 21.76174302551631 $229 25.239221168249053 $137 $230 forward 7 unknown #
loop $-1 $-1 $144 $85 #
plane-surface $-1 -62.525101474044021 -8.7121576127043667 4.7227901870307534 -0.84804810408105047 0 0.52991925155115449 0.52991925155115449 0 0.84804810408105047 forward_v I I I I #
loop $-1 $-1 $231 $55 #
coedge $-1 $142 $142 $143 $232 reversed $86 $-1 #
coedge $-1 $143 $143 $142 $232 forward $88 $-1 #
coedge $-1 $144 $144 $89 $145 forward $139 $-1 #
edge $-1 $233 0 $233 6.2831853071796004 $144 $234 forward 7 unknown #
loop $-1 $-1 $151 $90 #
plane-surface $-1 -62.525101474044021 -8.7121576127043667 4.7227901870307534 -0.84804810408105047 0 0.52991925155115449 0.52991925155115449 0 0.84804810408105047 forward_v I I I I #
loop $-1 $-1 $235 $58 #
coedge $-1 $149 $149 $150 $236 reversed $91 $-1 #
coedge $-1 $150 $150 $149 $236 forward $93 $-1 #
coedge $-1 $151 $151 $94 $152 forward $146 $-1 #
edge $-1 $237 0 $237 6.2831853071796004 $151 $238 forward 7 unknown #
loop $-1 $-1 $158 $95 #
plane-surface $-1 -62.525101474044021 -8.7121576127043667 4.7227901870307534 -0.84804810408105047 0 0.52991925155115449 0.52991925155115449 0 0.84804810408105047 forward_v I I I I #
loop $-1 $-1 $239 $61 #
coedge $-1 $156 $156 $157 $240 reversed $96 $-1 #
coedge $-1 $157 $157 $156 $240 forward $98 $-1 #
coedge $-1 $158 $158 $99 $159 forward $153 $-1 #
edge $-1 $241 0 $241 6.2831853071796004 $158 $242 forward 7 unknown #
face $-1 $243 $244 $24 $-1 $245 reversed single #
loop $-1 $-1 $246 $100 #
plane-surface $-1 -62.525101474044007 0 0 1 0 0 0 0 -1 forward_v I I I I #
coedge $-1 $247 $171 $248 $249 forward $101 $-1 #
coedge $-1 $250 $103 $247 $251 forward $65 $-1 #
coedge $-1 $103 $250 $252 $253 forward $65 $-1 #
coedge $-1 $174 $173 $103 $167 reversed $175 $-1 #
edge $-1 $254 -33.718178444378403 $255 33.718178444378403 $166 $256 forward 7 unknown #
coedge $-1 $105 $104 $257 $258 forward $41 $-1 #
coedge $-1 $259 $260 $104 $170 reversed $244 $-1 #
edge $-1 $177 -62.525101474044007 $261 62.525101474044007 $169 $262 forward 7 unknown #
coedge $-1 $163 $263 $105 $172 reversed $101 $-1 #
edge $-1 $264 -62.525101474044007 $176 62.525101474044007 $171 $265 forward 7 unknown #
coedge $-1 $166 $106 $263 $266 forward $175 $-1 #
coedge $-1 $106 $166 $259 $267 reversed $175 $-1 #
loop $-1 $-1 $173 $243 #
vertex $-1 $107 $268 #
vertex $-1 $107 $269 #
straight-curve $-1 62.525101474044007 0 10.28791871802002 0 1 0 I I #
face $-1 $270 $271 $25 $-1 $272 reversed single #
loop $-1 $-1 $273 $108 #
plane-surface $-1 0 0 10.28791871802002 0 0 1 1 0 0 forward_v I I I I #
coedge $-1 $274 $275 $276 $277 reversed $109 $-1 #
coedge $-1 $114 $111 $278 $279 reversed $69 $-1 #
coedge $-1 $111 $114 $280 $281 reversed $69 $-1 #
coedge $-1 $275 $274 $111 $186 reversed $109 $-1 #
edge $-1 $282 -10.28791871802002 $283 10.28791871802002 $185 $284 forward 7 unknown #
coedge $-1 $113 $112 $285 $286 reversed $44 $-1 #
coedge $-1 $278 $287 $112 $189 forward $271 $-1 #
edge $-1 $288 -18.571878395079743 $193 -11.720721703517576 $188 $289 forward 7 unknown #
coedge $-1 $290 $280 $113 $191 forward $180 $-1 #
edge $-1 $192 11.720721703517576 $291 18.571878395079743 $190 $292 forward 7 unknown #
vertex $-1 $191 $293 #
vertex $-1 $189 $294 #
straight-curve $-1 -47.996426490862305 -26.867021752816235 0 0 0 -1 I I #
face $-1 $-1 $207 $26 $-1 $295 forward single #
loop $-1 $-1 $296 $116 #
plane-surface $-1 62.525101474044007 0 0 -1 0 0 0 0 1 forward_v I I I I #
coedge $-1 $297 $298 $299 $300 reversed $117 $-1 #
coedge $-1 $301 $119 $121 $205 forward $73 $-1 #
coedge $-1 $119 $301 $297 $302 forward $73 $-1 #
coedge $-1 $299 $122 $119 $202 forward $207 $-1 #
edge $-1 $209 -3.340290318035473 $303 10.066036506812674 $201 $304 forward 7 unknown #
coedge $-1 $305 $306 $120 $204 forward $196 $-1 #
edge $-1 $307 -83.413486200795418 $208 -78.613692558831929 $203 $308 forward 7 unknown #
edge $-1 $209 119.3903899977783 $307 125.05020294808799 $121 $309 forward 7 unknown #
coedge $-1 $122 $299 $305 $310 forward $207 $-1 #
loop $-1 $-1 $299 $195 #
vertex $-1 $204 $311 #
vertex $-1 $123 $312 #
straight-curve $-1 51.153589523274938 -0.022582776353127443 10.287918718020023 -1 0 0 I I #
coedge $-1 $211 $211 $-1 $313 reversed $126 $-1 #
edge $-1 $314 0 $314 6.2831853071796004 $127 $315 forward 7 unknown #
vertex $-1 $130 $316 #
ellipse-curve $-1 61.025479552770193 -6.725746188777201 7.8880218970382803 0.84804810408105047 0 0.52991925155115449 0.52991925155115449 0 -0.84804810408105047 1 I I #
face $-1 $-1 $227 $28 $-1 $317 forward single #
loop $-1 $-1 $318 $131 #
plane-surface $-1 -62.525101474044007 0 0 1 0 0 0 0 -1 forward_v I I I I #
coedge $-1 $319 $320 $321 $322 reversed $132 $-1 #
coedge $-1 $323 $134 $136 $225 forward $82 $-1 #
coedge $-1 $134 $323 $319 $324 forward $82 $-1 #
coedge $-1 $321 $137 $134 $222 forward $227 $-1 #
edge $-1 $229 -10.197807092830242 $325 1.4856494801258755 $221 $326 forward 7 unknown #
coedge $-1 $327 $328 $135 $224 forward $216 $-1 #
edge $-1 $329 -30.771859882769988 $228 -25.206731351780743 $223 $330 forward 7 unknown #
edge $-1 $229 -6.5622793143552505 $329 -2.7114274142304302e-014 $136 $331 forward 7 unknown #
coedge $-1 $137 $321 $327 $332 forward $227 $-1 #
loop $-1 $-1 $321 $215 #
vertex $-1 $224 $333 #
vertex $-1 $138 $334 #
straight-curve $-1 -84.286844499560317 -14.553885899182426 10.28791871802002 1 0 0 I I #
coedge $-1 $231 $231 $-1 $335 reversed $141 $-1 #
edge $-1 $336 0 $336 6.2831853071796004 $142 $337 forward 7 unknown #
vertex $-1 $145 $338 #
ellipse-curve $-1 -60.786362402677639 -12.217194584591201 7.5053544525253928 -0.84804810408105047 0 0.52991925155115449 0.26495962577557725 0 0.42402405204052523 1 I I #
coedge $-1 $235 $235 $-1 $339 reversed $148 $-1 #
edge $-1 $340 0 $340 6.2831853071796004 $149 $341 forward 7 unknown #
vertex $-1 $152 $342 #
ellipse-curve $-1 -60.786362402677639 -8.7121576127043667 7.5053544525253928 -0.84804810408105047 0 0.52991925155115449 0.26495962577557725 0 0.42402405204052523 1 I I #
coedge $-1 $239 $239 $-1 $343 reversed $155 $-1 #
edge $-1 $344 0 $344 6.2831853071796004 $156 $345 forward 7 unknown #
vertex $-1 $159 $346 #
ellipse-curve $-1 -60.786362402677639 -5.2071206408175321 7.5053544525253928 -0.84804810408105047 0 0.52991925155115449 0.26495962577557725 0 0.42402405204052523 1 I I #
face $-1 $-1 $175 $24 $-1 $347 reversed single #
loop $-1 $-1 $259 $160 #
plane-surface $-1 0 33.718178444378403 0 0 -1 0 0 0 -1 forward_v I I I I #
coedge $-1 $348 $257 $260 $349 forward $161 $-1 #
coedge $-1 $263 $163 $164 $251 reversed $101 $-1 #
coedge $-1 $257 $348 $163 $249 reversed $161 $-1 #
edge $-1 $264 -10.28791871802002 $350 10.28791871802002 $248 $351 forward 7 unknown #
coedge $-1 $165 $164 $348 $352 forward $65 $-1 #
edge $-1 $255 -62.525101474044007 $350 62.525101474044007 $247 $353 forward 7 unknown #
coedge $-1 $260 $259 $165 $253 reversed $244 $-1 #
edge $-1 $354 -62.525101474044007 $254 62.525101474044007 $252 $355 forward 7 unknown #
vertex $-1 $167 $356 #
vertex $-1 $266 $357 #
straight-curve $-1 62.525101474044007 0 -10.28791871802002 0 -1 0 I I #
coedge $-1 $246 $248 $168 $258 reversed $161 $-1 #
edge $-1 $261 -33.718178444378403 $264 33.718178444378403 $257 $358 forward 7 unknown #
coedge $-1 $252 $169 $174 $267 forward $244 $-1 #
coedge $-1 $169 $252 $246 $349 reversed $244 $-1 #
vertex $-1 $170 $359 #
straight-curve $-1 0 33.718178444378403 10.28791871802002 -1 0 0 I I #
coedge $-1 $171 $247 $173 $266 reversed $101 $-1 #
vertex $-1 $258 $360 #
straight-curve $-1 0 -33.718178444378403 10.28791871802002 1 0 0 I I #
edge $-1 $176 -10.28791871802002 $255 10.28791871802002 $173 $361 forward 7 unknown #
edge $-1 $177 -10.28791871802002 $254 10.28791871802002 $174 $362 forward 7 unknown #
point $-1 62.525101474044007 -33.718178444378403 10.28791871802002 #
point $-1 62.525101474044007 33.718178444378403 10.28791871802002 #
face $-1 $-1 $363 $25 $-1 $364 reversed single #
loop $-1 $-1 $365 $179 #
plane-surface $-1 0 0 -10.28791871802002 0 0 1 1 0 0 forward_v I I I I #
coedge $-1 $280 $290 $275 $366 forward $180 $-1 #
coedge $-1 $185 $182 $365 $367 reversed $109 $-1 #
coedge $-1 $182 $185 $273 $366 reversed $109 $-1 #
coedge $-1 $368 $369 $182 $277 forward $363 $-1 #
edge $-1 $370 -10.28791871802002 $371 10.28791871802002 $276 $372 forward 7 unknown #
coedge $-1 $365 $188 $183 $279 forward $271 $-1 #
edge $-1 $193 -25.510003858645739 $283 -19.462841405787394 $278 $373 forward 7 unknown #
coedge $-1 $190 $273 $184 $281 forward $180 $-1 #
edge $-1 $282 19.462841405787394 $192 25.510003858645739 $280 $374 forward 7 unknown #
vertex $-1 $281 $375 #
vertex $-1 $279 $376 #
straight-curve $-1 -41.94926403800396 -26.867021752816235 0 0 0 -1 I I #
coedge $-1 $369 $368 $187 $286 forward $363 $-1 #
edge $-1 $291 -10.28791871802002 $288 10.28791871802002 $285 $377 forward 7 unknown #
coedge $-1 $188 $365 $369 $378 forward $271 $-1 #
vertex $-1 $189 $379 #
straight-curve $-1 -47.996426490862305 -15.146300049298659 -10.28791871802002 0 1 0 I I #
coedge $-1 $273 $190 $368 $380 forward $180 $-1 #
vertex $-1 $380 $381 #
straight-curve $-1 -47.996426490862305 -15.146300049298659 10.28791871802002 0 -1 0 I I #
point $-1 -47.996426490862305 -26.867021752816235 10.28791871802002 #
point $-1 -47.996426490862305 -26.867021752816235 -10.28791871802002 #
plane-surface $-1 0 0 10.28791871802002 0 0 1 1 0 0 forward_v I I I I #
coedge $-1 $306 $305 $298 $382 forward $196 $-1 #
coedge $-1 $298 $198 $200 $302 reversed $117 $-1 #
coedge $-1 $198 $297 $296 $382 reversed $117 $-1 #
coedge $-1 $206 $201 $198 $300 forward $207 $-1 #
edge $-1 $303 8.3722681082214336 $383 11.371511950769069 $299 $384 forward 7 unknown #
coedge $-1 $200 $199 $306 $385 reversed $73 $-1 #
edge $-1 $386 -125.05020294808799 $303 -119.3903899977783 $297 $387 forward 7 unknown #
vertex $-1 $202 $388 #
straight-curve $-1 59.525857631496372 -3.3628730943886005 10.287918718020023 0 -1 0 I I #
coedge $-1 $296 $203 $206 $310 reversed $196 $-1 #
coedge $-1 $203 $296 $301 $385 forward $196 $-1 #
vertex $-1 $204 $389 #
straight-curve $-1 62.525101474044007 -0.022582776353127443 88.901611276851952 0 0 1 I I #
straight-curve $-1 -3.7414084785267505 -0.022582776353127443 111.53671260113313 0.52991925155115449 0 -0.84804810408105047 I I #
edge $-1 $383 -13.428909601201275 $208 -0.022582776353127443 $305 $390 forward 7 unknown #
point $-1 62.525101474044007 -0.022582776353127443 10.28791871802002 #
point $-1 59.525857631496372 -0.022582776353127443 10.287918718020023 #
edge $-1 $391 1 $391 0 $211 $-1 forward 7 unknown #
vertex $-1 $212 $392 #
ellipse-curve $-1 57.927323041791752 -6.725746188777201 5.9520789103311023 0.84804810408105047 0 0.52991925155115449 0.52991925155115449 0 -0.84804810408105047 1 I I #
point $-1 61.555398804321342 -6.725746188777201 7.0399737929572277 #
plane-surface $-1 0 0 10.28791871802002 0 0 1 1 0 0 forward_v I I I I #
coedge $-1 $328 $327 $320 $393 forward $216 $-1 #
coedge $-1 $320 $218 $220 $324 reversed $132 $-1 #
coedge $-1 $218 $319 $318 $393 reversed $132 $-1 #
coedge $-1 $226 $221 $218 $322 forward $227 $-1 #
edge $-1 $325 -25.239221168249053 $394 -21.76174302551631 $321 $395 forward 7 unknown #
coedge $-1 $220 $219 $328 $396 reversed $82 $-1 #
edge $-1 $397 2.7114274142304302e-014 $325 6.5622793143552505 $319 $398 forward 7 unknown #
vertex $-1 $222 $399 #
straight-curve $-1 -59.047623331311257 -4.3560788063521834 10.28791871802002 0 1 0 I I #
coedge $-1 $318 $223 $226 $332 reversed $216 $-1 #
coedge $-1 $223 $318 $323 $396 forward $216 $-1 #
vertex $-1 $224 $400 #
straight-curve $-1 -62.525101474044007 -14.553885899182426 35.494650069800763 0 0 1 I I #
straight-curve $-1 -62.525101474044021 -14.553885899182426 4.7227901870307534 -0.52991925155115449 0 -0.84804810408105047 I I #
edge $-1 $394 2.8704293262263079 $228 14.553885899182426 $327 $401 forward 7 unknown #
point $-1 -62.525101474044007 -14.553885899182426 10.28791871802002 #
point $-1 -59.047623331311264 -14.553885899182426 10.28791871802002 #
edge $-1 $402 1 $402 0 $231 $-1 forward 7 unknown #
vertex $-1 $232 $403 #
ellipse-curve $-1 -59.93831429859658 -12.217194584591201 6.9754352009742364 -0.84804810408105047 0 0.52991925155115449 0.26495962577557725 0 0.42402405204052523 1 I I #
point $-1 -60.521402776902057 -12.217194584591201 7.9293785045659169 #
edge $-1 $404 1 $404 0 $235 $-1 forward 7 unknown #
vertex $-1 $236 $405 #
ellipse-curve $-1 -59.93831429859658 -8.7121576127043667 6.9754352009742364 -0.84804810408105047 0 0.52991925155115449 0.26495962577557725 0 0.42402405204052523 1 I I #
point $-1 -60.521402776902057 -8.7121576127043667 7.9293785045659169 #
edge $-1 $406 1 $406 0 $239 $-1 forward 7 unknown #
vertex $-1 $240 $407 #
ellipse-curve $-1 -59.93831429859658 -5.2071206408175321 6.9754352009742364 -0.84804810408105047 0 0.52991925155115449 0.26495962577557725 0 0.42402405204052523 1 I I #
point $-1 -60.521402776902057 -5.2071206408175321 7.9293785045659169 #
plane-surface $-1 62.525101474044007 0 0 -1 0 0 0 0 1 forward_v I I I I #
coedge $-1 $248 $246 $250 $352 reversed $161 $-1 #
edge $-1 $261 -10.28791871802002 $354 10.28791871802002 $260 $408 forward 7 unknown #
vertex $-1 $352 $409 #
straight-curve $-1 -62.525101474044007 -33.718178444378403 0 0 0 -1 I I #
edge $-1 $350 -33.718178444378403 $354 33.718178444378403 $348 $410 forward 7 unknown #
straight-curve $-1 0 -33.718178444378403 -10.28791871802002 -1 0 0 I I #
vertex $-1 $253 $411 #
straight-curve $-1 0 33.718178444378403 -10.28791871802002 1 0 0 I I #
point $-1 62.525101474044007 33.718178444378403 -10.28791871802002 #
point $-1 62.525101474044007 -33.718178444378403 -10.28791871802002 #
straight-curve $-1 -62.525101474044007 0 10.28791871802002 0 -1 0 I I #
point $-1 -62.525101474044007 33.718178444378403 10.28791871802002 #
point $-1 -62.525101474044007 -33.718178444378403 10.28791871802002 #
straight-curve $-1 62.525101474044007 -33.718178444378403 0 0 0 -1 I I #
straight-curve $-1 62.525101474044007 33.718178444378403 0 0 0 -1 I I #
loop $-1 $-1 $276 $270 #
plane-surface $-1 0 -33.718178444378403 0 0 1 0 0 0 1 forward_v I I I I #
coedge $-1 $287 $278 $274 $367 forward $271 $-1 #
edge $-1 $371 -18.571878395079743 $282 -11.720721703517576 $273 $412 forward 7 unknown #
edge $-1 $283 11.720721703517576 $370 18.571878395079743 $365 $413 forward 7 unknown #
coedge $-1 $285 $276 $290 $380 reversed $363 $-1 #
coedge $-1 $276 $285 $287 $378 reversed $363 $-1 #
vertex $-1 $378 $414 #
vertex $-1 $277 $415 #
straight-curve $-1 -41.94926403800396 -33.718178444378403 0 0 0 1 I I #
straight-curve $-1 -22.486422632216566 -26.867021752816235 -10.28791871802002 1 0 0 I I #
straight-curve $-1 -22.486422632216566 -26.867021752816235 10.28791871802002 -1 0 0 I I #
point $-1 -41.94926403800396 -26.867021752816235 10.28791871802002 #
point $-1 -41.94926403800396 -26.867021752816235 -10.28791871802002 #
straight-curve $-1 -47.996426490862305 -33.718178444378403 0 0 0 -1 I I #
edge $-1 $370 41.94926403800396 $288 47.996426490862305 $369 $416 forward 7 unknown #
point $-1 -47.996426490862305 -33.718178444378403 -10.28791871802002 #
edge $-1 $291 -47.996426490862305 $371 -41.94926403800396 $368 $417 forward 7 unknown #
point $-1 -47.996426490862305 -33.718178444378403 10.28791871802002 #
edge $-1 $383 78.613692558831929 $386 83.413486200795418 $296 $418 forward 7 unknown #
vertex $-1 $310 $419 #
straight-curve $-1 51.153589523274938 -13.428909601201275 10.287918718020023 1 0 0 I I #
edge $-1 $386 -10.066036506812674 $307 3.340290318035473 $306 $420 forward 7 unknown #
vertex $-1 $385 $421 #
straight-curve $-1 -3.7414084785267505 -13.428909601201275 111.53671260113313 -0.52991925155115449 0 0.84804810408105047 I I #
point $-1 59.525857631496372 -13.428909601201275 10.287918718020023 #
point $-1 62.525101474044007 -0.022582776353127443 5.4881250760565337 #
straight-curve $-1 62.525101474044007 0 10.28791871802002 0 1 0 I I #
vertex $-1 $313 $422 #
point $-1 58.457242293342908 -6.725746188777201 5.1040308062500515 #
edge $-1 $394 25.206731351780743 $397 30.771859882769988 $318 $423 forward 7 unknown #
vertex $-1 $332 $424 #
straight-curve $-1 -84.286844499560317 -2.8704293262263079 10.28791871802002 -1 0 0 I I #
edge $-1 $397 -1.4856494801258755 $329 10.197807092830242 $328 $425 forward 7 unknown #
vertex $-1 $396 $426 #
straight-curve $-1 -62.525101474044021 -2.8704293262263079 4.7227901870307534 0.52991925155115449 0 0.84804810408105047 I I #
point $-1 -59.047623331311264 -2.8704293262263079 10.28791871802002 #
point $-1 -62.525101474044007 -14.553885899182426 4.7227901870307765 #
straight-curve $-1 -62.525101474044007 0 10.28791871802002 0 -1 0 I I #
vertex $-1 $335 $427 #
point $-1 -59.673354672821006 -12.217194584591201 7.3994592530147623 #
vertex $-1 $339 $428 #
point $-1 -59.673354672821006 -8.7121576127043667 7.3994592530147623 #
vertex $-1 $343 $429 #
point $-1 -59.673354672821006 -5.2071206408175321 7.3994592530147623 #
straight-curve $-1 -62.525101474044007 33.718178444378403 0 0 0 -1 I I #
point $-1 -62.525101474044007 -33.718178444378403 -10.28791871802002 #
straight-curve $-1 -62.525101474044007 0 -10.28791871802002 0 1 0 I I #
point $-1 -62.525101474044007 33.718178444378403 -10.28791871802002 #
straight-curve $-1 -41.94926403800396 -15.146300049298659 10.28791871802002 0 1 0 I I #
straight-curve $-1 -41.94926403800396 -15.146300049298659 -10.28791871802002 0 -1 0 I I #
point $-1 -41.94926403800396 -33.718178444378403 -10.28791871802002 #
point $-1 -41.94926403800396 -33.718178444378403 10.28791871802002 #
straight-curve $-1 0 -33.718178444378403 -10.28791871802002 -1 0 0 I I #
straight-curve $-1 0 -33.718178444378403 10.28791871802002 1 0 0 I I #
straight-curve $-1 62.525101474044007 -13.428909601201275 88.901611276851952 0 0 -1 I I #
point $-1 62.525101474044007 -13.428909601201275 10.28791871802002 #
straight-curve $-1 62.525101474044007 -3.3628730943886005 5.4881250760565266 0 1 0 I I #
point $-1 62.525101474044007 -13.428909601201275 5.4881250760565337 #
point $-1 57.079274937710707 -6.725746188777201 5.4221596587799477 #
straight-curve $-1 -62.525101474044007 -2.8704293262263079 35.494650069800763 0 0 -1 I I #
point $-1 -62.525101474044007 -2.8704293262263079 10.28791871802002 #
straight-curve $-1 -62.525101474044007 -4.3560788063521834 4.7227901870307782 0 -1 0 I I #
point $-1 -62.525101474044007 -2.8704293262263079 4.7227901870307765 #
point $-1 -59.514290246556058 -12.217194584591201 6.71047557519866 #
point $-1 -59.514290246556058 -8.7121576127043667 6.71047557519866 #
point $-1 -59.514290246556058 -5.2071206408175321 6.71047557519866 #
End-of-ACIS-data 