500 0 11 0           
7 Unknown 11 ACIS 5.0 NT 24 Thu Mar 25 23:19:30 1999 
-1 9.9999999999999995e-007 1e-010 
body $-1 $11 $-1 $12 #
body $-1 $13 $-1 $14 #
body $-1 $15 $-1 $16 #
body $-1 $17 $-1 $18 #
body $-1 $19 $-1 $20 #
body $-1 $21 $-1 $22 #
body $-1 $23 $-1 $24 #
body $-1 $25 $-1 $26 #
body $-1 $27 $-1 $28 #
body $-1 $29 $-1 $30 #
body $-1 $31 $-1 $32 #
lump $-1 $-1 $33 $0 #
transform $-1 1 0 0 0 1 0 0 0 1 67.834101382488484 29.701097217766723 10.589677986258282 1 rotate no_reflect no_shear #
lump $-1 $-1 $34 $1 #
transform $-1 1 0 0 0 1 0 0 0 1 67.834101382488484 29.701097217766723 10.589677986258282 1 rotate no_reflect no_shear #
lump $-1 $-1 $35 $2 #
transform $-1 1 0 0 0 1 0 0 0 1 67.834101382488484 29.701097217766723 10.589677986258282 1 rotate no_reflect no_shear #
lump $-1 $-1 $36 $3 #
transform $-1 1 0 0 0 1 0 0 0 1 67.834101382488484 29.701097217766723 10.589677986258282 1 rotate no_reflect no_shear #
lump $-1 $-1 $37 $4 #
transform $-1 1 0 0 0 1 0 0 0 1 67.834101382488484 29.701097217766723 10.589677986258282 1 rotate no_reflect no_shear #
lump $-1 $-1 $38 $5 #
transform $-1 1 0 0 0 1 0 0 0 1 67.834101382488484 29.701097217766723 10.589677986258282 1 rotate no_reflect no_shear #
lump $-1 $-1 $39 $6 #
transform $-1 1 0 0 0 1 0 0 0 1 67.834101382488484 29.701097217766723 10.589677986258282 1 rotate no_reflect no_shear #
lump $-1 $-1 $40 $7 #
transform $-1 1 0 0 0 1 0 0 0 1 67.834101382488484 29.701097217766723 10.589677986258282 1 rotate no_reflect no_shear #
lump $-1 $-1 $41 $8 #
transform $-1 1 0 0 0 1 0 0 0 1 67.834101382488484 29.701097217766723 10.589677986258282 1 rotate no_reflect no_shear #
lump $-1 $-1 $42 $9 #
transform $-1 1 0 0 0 1 0 0 0 1 67.834101382488484 29.701097217766723 10.589677986258282 1 rotate no_reflect no_shear #
lump $-1 $-1 $43 $10 #
transform $-1 1 0 0 0 1 0 0 0 1 67.834101382488484 29.701097217766723 10.589677986258282 1 rotate no_reflect no_shear #
shell $-1 $-1 $-1 $44 $-1 $11 #
shell $-1 $-1 $-1 $45 $-1 $13 #
shell $-1 $-1 $-1 $46 $-1 $15 #
shell $-1 $-1 $-1 $47 $-1 $17 #
shell $-1 $-1 $-1 $48 $-1 $19 #
shell $-1 $-1 $-1 $49 $-1 $21 #
shell $-1 $-1 $-1 $50 $-1 $23 #
shell $-1 $-1 $-1 $51 $-1 $25 #
shell $-1 $-1 $-1 $52 $-1 $27 #
shell $-1 $-1 $-1 $53 $-1 $29 #
shell $-1 $-1 $-1 $54 $-1 $31 #
face $-1 $55 $56 $33 $-1 $57 forward single #
face $-1 $58 $59 $34 $-1 $60 reversed single #
face $-1 $61 $62 $35 $-1 $63 forward single #
face $-1 $64 $65 $36 $-1 $66 forward single #
face $-1 $67 $68 $37 $-1 $69 reversed single #
face $-1 $70 $71 $38 $-1 $72 forward single #
face $-1 $73 $74 $39 $-1 $75 forward single #
face $-1 $76 $77 $40 $-1 $78 reversed single #
face $-1 $79 $80 $41 $-1 $81 forward single #
face $-1 $82 $83 $42 $-1 $84 forward single #
face $-1 $85 $86 $43 $-1 $87 forward single #
face $-1 $88 $89 $33 $-1 $90 reversed single #
loop $-1 $-1 $91 $44 #
plane-surface $-1 0 0 10.589677986258282 0 0 1 1 0 0 forward_v I I I I #
face $-1 $92 $93 $34 $-1 $94 reversed single #
loop $-1 $-1 $95 $45 #
plane-surface $-1 -23.068397323990833 86.028405143310295 137.59000217839497 1 0 0 0 -0.71933980857756763 -0.69465836192734942 forward_v I I I I #
face $-1 $96 $97 $35 $-1 $98 forward single #
loop $-1 $99 $100 $46 #
cone-surface $-1 -16.477426659993448 23.543330429491327 4.3068731491044536 0 -0.71933980857756763 -0.69465836192734942 1.5 0 0 1 I I 0 1 1.5 forward I I I I #
face $-1 $101 $102 $36 $-1 $103 forward single #
loop $-1 $104 $105 $47 #
cone-surface $-1 -6.590970663997382 23.543330429491327 4.3068731491044536 0 -0.71933980857756763 -0.69465836192734942 1.5 0 0 1 I I 0 1 1.5 forward I I I I #
face $-1 $106 $107 $37 $-1 $108 reversed single #
loop $-1 $-1 $109 $48 #
plane-surface $-1 -11.534198661995418 -11.563133863710874 43.346950680048565 0 0.71933980857756763 0.69465836192734942 1 0 0 forward_v I I I I #
face $-1 $110 $111 $38 $-1 $112 forward single #
loop $-1 $113 $114 $49 #
cone-surface $-1 6.590970663997382 23.543330429491327 4.3068731491044536 0 -0.71933980857756763 -0.69465836192734942 1.5 0 0 1 I I 0 1 1.5 forward I I I I #
face $-1 $115 $116 $39 $-1 $117 forward single #
loop $-1 $118 $119 $50 #
cone-surface $-1 16.477426659993441 23.543330429491327 4.3068731491044536 0 -0.71933980857756763 -0.69465836192734942 1.5 0 0 1 I I 0 1 1.5 forward I I I I #
face $-1 $120 $121 $40 $-1 $122 reversed single #
loop $-1 $-1 $123 $51 #
plane-surface $-1 65.720647927766947 -145.99144543587292 72.049484778316568 -1 0 0 0 -0.85716730853699208 0.51503806187062418 forward_v I I I I #
face $-1 $124 $125 $41 $-1 $126 forward single #
loop $-1 $127 $128 $52 #
cone-surface $-1 42.997849068230991 -25.643221684975721 5.4631744212743545 0 0.85716730853699208 -0.51503806187062418 1 0 0 1 I I 0 1 1 forward I I I I #
face $-1 $129 $130 $42 $-1 $131 forward single #
loop $-1 $132 $133 $53 #
cone-surface $-1 51.518898640556984 -25.643221684975721 5.4631744212743545 0 0.85716730853699208 -0.51503806187062418 1 0 0 1 I I 0 1 1 forward I I I I #
face $-1 $134 $135 $43 $-1 $136 forward single #
loop $-1 $137 $138 $54 #
cone-surface $-1 60.039948212882962 -25.643221684975721 5.4631744212743545 0 0.85716730853699208 -0.51503806187062418 1 0 0 1 I I 0 1 1 forward I I I I #
face $-1 $139 $140 $33 $-1 $141 reversed single #
loop $-1 $-1 $142 $55 #
plane-surface $-1 0 0 -10.589677986258282 0 0 1 1 0 0 forward_v I I I I #
coedge $-1 $143 $144 $145 $146 forward $56 $-1 #
face $-1 $147 $148 $34 $-1 $149 reversed single #
loop $-1 $-1 $150 $58 #
plane-surface $-1 -11.534198661995418 -11.563133863710874 43.346950680048565 0 0.71933980857756763 0.69465836192734942 1 0 0 forward_v I I I I #
coedge $-1 $151 $152 $153 $154 reversed $59 $-1 #
face $-1 $-1 $155 $35 $-1 $156 forward single #
loop $-1 $157 $158 $61 #
cone-surface $-1 -16.477426659993448 21.66150943408995 2.4896197807819984 0 -0.71933980857756763 -0.69465836192734942 0.75 0 0 1 I I -0.70710678118654757 0.70710678118654757 0.75 forward I I I I #
loop $-1 $-1 $159 $46 #
coedge $-1 $100 $100 $160 $161 reversed $62 $-1 #
face $-1 $-1 $162 $36 $-1 $163 forward single #
loop $-1 $164 $165 $64 #
cone-surface $-1 -6.590970663997382 21.66150943408995 2.4896197807819984 0 -0.71933980857756763 -0.69465836192734942 0.75 0 0 1 I I -0.70710678118654757 0.70710678118654757 0.75 forward I I I I #
loop $-1 $-1 $166 $47 #
coedge $-1 $105 $105 $167 $168 reversed $65 $-1 #
face $-1 $169 $170 $37 $-1 $171 forward single #
loop $-1 $-1 $172 $67 #
plane-surface $-1 23.068397323990819 86.028405143310295 137.59000217839497 -1 0 0 0 0.71933980857756763 0.69465836192734942 forward_v I I I I #
coedge $-1 $173 $174 $175 $176 reversed $68 $-1 #
face $-1 $-1 $177 $38 $-1 $178 forward single #
loop $-1 $179 $180 $70 #
cone-surface $-1 6.590970663997382 21.66150943408995 2.4896197807819984 0 -0.71933980857756763 -0.69465836192734942 0.75 0 0 1 I I -0.70710678118654757 0.70710678118654757 0.75 forward I I I I #
loop $-1 $-1 $181 $49 #
coedge $-1 $114 $114 $182 $183 reversed $71 $-1 #
face $-1 $-1 $184 $39 $-1 $185 forward single #
loop $-1 $186 $187 $73 #
cone-surface $-1 16.477426659993441 21.66150943408995 2.4896197807819984 0 -0.71933980857756763 -0.69465836192734942 0.75 0 0 1 I I -0.70710678118654757 0.70710678118654757 0.75 forward I I I I #
loop $-1 $-1 $188 $50 #
coedge $-1 $119 $119 $189 $190 reversed $74 $-1 #
face $-1 $191 $192 $40 $-1 $193 reversed single #
loop $-1 $-1 $194 $76 #
plane-surface $-1 51.518898640556984 -29.701097217766701 2.1751965687719803 0 -0.85716730853699208 0.51503806187062418 1 0 0 forward_v I I I I #
coedge $-1 $195 $196 $197 $198 reversed $77 $-1 #
face $-1 $-1 $199 $41 $-1 $200 forward single #
loop $-1 $201 $202 $79 #
cone-surface $-1 42.997849068230991 -23.684727667461352 4.2863925340982636 0 0.85716730853699208 -0.51503806187062418 0.5 0 0 1 I I -0.70710678118654746 0.70710678118654746 0.5 forward I I I I #
loop $-1 $-1 $203 $52 #
coedge $-1 $128 $128 $204 $205 reversed $80 $-1 #
face $-1 $-1 $206 $42 $-1 $207 forward single #
loop $-1 $208 $209 $82 #
cone-surface $-1 51.518898640556984 -23.684727667461352 4.2863925340982636 0 0.85716730853699208 -0.51503806187062418 0.5 0 0 1 I I -0.70710678118654746 0.70710678118654746 0.5 forward I I I I #
loop $-1 $-1 $210 $53 #
coedge $-1 $133 $133 $211 $212 reversed $83 $-1 #
face $-1 $-1 $213 $43 $-1 $214 forward single #
loop $-1 $215 $216 $85 #
cone-surface $-1 60.039948212882962 -23.684727667461352 4.2863925340982636 0 0.85716730853699208 -0.51503806187062418 0.5 0 0 1 I I -0.70710678118654746 0.70710678118654746 0.5 forward I I I I #
loop $-1 $-1 $217 $54 #
coedge $-1 $138 $138 $218 $219 reversed $86 $-1 #
face $-1 $220 $221 $33 $-1 $222 reversed single #
loop $-1 $-1 $223 $88 #
plane-surface $-1 0 -29.701097217766723 0 0 1 0 0 0 1 forward_v I I I I #
coedge $-1 $224 $225 $226 $227 forward $89 $-1 #
coedge $-1 $228 $91 $229 $230 forward $56 $-1 #
coedge $-1 $91 $228 $231 $232 forward $56 $-1 #
coedge $-1 $233 $234 $91 $146 reversed $235 $-1 #
edge $-1 $236 -29.701097217766723 $237 29.701097217766723 $145 $238 forward 7 unknown #
face $-1 $239 $240 $34 $-1 $241 reversed single #
loop $-1 $-1 $242 $92 #
plane-surface $-1 -3.5527136788005009e-015 86.028405143310295 137.59000217839497 -1 0 0 0 0.71933980857756763 0.69465836192734942 forward_v I I I I #
coedge $-1 $243 $244 $245 $246 reversed $93 $-1 #
coedge $-1 $152 $95 $247 $248 reversed $59 $-1 #
coedge $-1 $95 $151 $243 $249 reversed $59 $-1 #
coedge $-1 $245 $250 $95 $154 forward $251 $-1 #
edge $-1 $252 13.313105353888425 $253 22.944006652502864 $153 $254 forward 7 unknown #
loop $-1 $-1 $160 $96 #
plane-surface $-1 -11.534198661995418 -11.563133863710874 43.346950680048565 0 0.71933980857756763 0.69465836192734942 1 0 0 forward_v I I I I #
loop $-1 $-1 $255 $61 #
coedge $-1 $158 $158 $159 $256 reversed $97 $-1 #
coedge $-1 $159 $159 $158 $256 forward $99 $-1 #
coedge $-1 $160 $160 $100 $161 forward $155 $-1 #
edge $-1 $257 -1.261071320471556e-015 $257 6.2831853071795996 $160 $258 forward 7 unknown #
loop $-1 $-1 $167 $101 #
plane-surface $-1 -11.534198661995418 -11.563133863710874 43.346950680048565 0 0.71933980857756763 0.69465836192734942 1 0 0 forward_v I I I I #
loop $-1 $-1 $259 $64 #
coedge $-1 $165 $165 $166 $260 reversed $102 $-1 #
coedge $-1 $166 $166 $165 $260 forward $104 $-1 #
coedge $-1 $167 $167 $105 $168 forward $162 $-1 #
edge $-1 $261 -1.261071320471556e-015 $261 6.2831853071795996 $167 $262 forward 7 unknown #
face $-1 $263 $264 $37 $-1 $265 forward single #
loop $-1 $-1 $266 $106 #
plane-surface $-1 0 0 10.589677986258282 0 0 1 1 0 0 forward_v I I I I #
coedge $-1 $267 $268 $269 $270 reversed $107 $-1 #
coedge $-1 $271 $109 $272 $273 reversed $68 $-1 #
coedge $-1 $109 $271 $266 $274 reversed $68 $-1 #
coedge $-1 $275 $276 $109 $176 forward $264 $-1 #
edge $-1 $277 -59.402194435533474 $278 -45.537967318345643 $175 $279 forward 7 unknown #
loop $-1 $-1 $182 $110 #
plane-surface $-1 -11.534198661995418 -11.563133863710874 43.346950680048565 0 0.71933980857756763 0.69465836192734942 1 0 0 forward_v I I I I #
loop $-1 $-1 $280 $70 #
coedge $-1 $180 $180 $181 $281 reversed $111 $-1 #
coedge $-1 $181 $181 $180 $281 forward $113 $-1 #
coedge $-1 $182 $182 $114 $183 forward $177 $-1 #
edge $-1 $282 -1.261071320471556e-015 $282 6.2831853071795996 $182 $283 forward 7 unknown #
loop $-1 $-1 $189 $115 #
plane-surface $-1 -11.534198661995418 -11.563133863710874 43.346950680048565 0 0.71933980857756763 0.69465836192734942 1 0 0 forward_v I I I I #
loop $-1 $-1 $284 $73 #
coedge $-1 $187 $187 $188 $285 reversed $116 $-1 #
coedge $-1 $188 $188 $187 $285 forward $118 $-1 #
coedge $-1 $189 $189 $119 $190 forward $184 $-1 #
edge $-1 $286 -1.261071320471556e-015 $286 6.2831853071795996 $189 $287 forward 7 unknown #
face $-1 $288 $289 $40 $-1 $290 reversed single #
loop $-1 $-1 $291 $120 #
plane-surface $-1 37.317149353347013 -145.99144543587292 72.049484778316568 1 0 0 0 0.85716730853699208 -0.51503806187062418 forward_v I I I I #
coedge $-1 $292 $293 $294 $295 reversed $121 $-1 #
coedge $-1 $196 $123 $296 $297 reversed $77 $-1 #
coedge $-1 $123 $195 $292 $298 reversed $77 $-1 #
coedge $-1 $294 $299 $123 $198 forward $300 $-1 #
edge $-1 $301 43.294625500169737 $302 48.350555839260025 $197 $303 forward 7 unknown #
loop $-1 $-1 $204 $124 #
plane-surface $-1 51.518898640556984 -29.701097217766701 2.1751965687719803 0 -0.85716730853699208 0.51503806187062418 1 0 0 forward_v I I I I #
loop $-1 $-1 $304 $79 #
coedge $-1 $202 $202 $203 $305 reversed $125 $-1 #
coedge $-1 $203 $203 $202 $305 forward $127 $-1 #
coedge $-1 $204 $204 $128 $205 forward $199 $-1 #
edge $-1 $306 -1.3103771373383052e-017 $306 6.2831853071796004 $204 $307 forward 7 unknown #
loop $-1 $-1 $211 $129 #
plane-surface $-1 51.518898640556984 -29.701097217766701 2.1751965687719803 0 -0.85716730853699208 0.51503806187062418 1 0 0 forward_v I I I I #
loop $-1 $-1 $308 $82 #
coedge $-1 $209 $209 $210 $309 reversed $130 $-1 #
coedge $-1 $210 $210 $209 $309 forward $132 $-1 #
coedge $-1 $211 $211 $133 $212 forward $206 $-1 #
edge $-1 $310 -1.3103771373383052e-017 $310 6.2831853071796004 $211 $311 forward 7 unknown #
loop $-1 $-1 $218 $134 #
plane-surface $-1 51.518898640556984 -29.701097217766701 2.1751965687719803 0 -0.85716730853699208 0.51503806187062418 1 0 0 forward_v I I I I #
loop $-1 $-1 $312 $85 #
coedge $-1 $216 $216 $217 $313 reversed $135 $-1 #
coedge $-1 $217 $217 $216 $313 forward $137 $-1 #
coedge $-1 $218 $218 $138 $219 forward $213 $-1 #
edge $-1 $314 -1.3103771373383052e-017 $314 6.2831853071796004 $218 $315 forward 7 unknown #
face $-1 $316 $317 $33 $-1 $318 reversed single #
loop $-1 $-1 $319 $139 #
plane-surface $-1 -67.834101382488484 0 0 1 0 0 0 0 -1 forward_v I I I I #
coedge $-1 $320 $231 $321 $322 forward $140 $-1 #
coedge $-1 $323 $142 $320 $324 forward $89 $-1 #
coedge $-1 $142 $323 $325 $326 forward $89 $-1 #
coedge $-1 $234 $233 $142 $227 reversed $235 $-1 #
edge $-1 $327 -29.701097217766723 $328 29.701097217766723 $226 $329 forward 7 unknown #
coedge $-1 $144 $143 $330 $331 forward $56 $-1 #
coedge $-1 $332 $333 $143 $230 reversed $317 $-1 #
edge $-1 $237 -67.834101382488484 $334 67.834101382488484 $229 $335 forward 7 unknown #
coedge $-1 $223 $336 $144 $232 reversed $140 $-1 #
edge $-1 $337 -67.834101382488484 $236 67.834101382488484 $231 $338 forward 7 unknown #
coedge $-1 $226 $145 $336 $339 forward $235 $-1 #
coedge $-1 $145 $226 $332 $340 reversed $235 $-1 #
loop $-1 $-1 $233 $316 #
vertex $-1 $146 $341 #
vertex $-1 $146 $342 #
straight-curve $-1 67.834101382488484 0 10.589677986258282 0 1 0 I I #
face $-1 $-1 $251 $34 $-1 $343 forward single #
loop $-1 $-1 $344 $147 #
plane-surface $-1 0 29.701097217766723 0 0 -1 0 0 0 -1 forward_v I I I I #
coedge $-1 $345 $346 $347 $348 reversed $148 $-1 #
coedge $-1 $349 $150 $152 $249 forward $93 $-1 #
coedge $-1 $150 $349 $345 $350 forward $93 $-1 #
coedge $-1 $347 $153 $150 $246 forward $251 $-1 #
edge $-1 $253 -17.301297992993124 $351 5.7670993309977057 $245 $352 forward 7 unknown #
coedge $-1 $353 $354 $151 $248 forward $240 $-1 #
edge $-1 $355 -68.178413583493025 $252 -58.205323102939204 $247 $356 forward 7 unknown #
edge $-1 $253 45.537967318345643 $355 59.402194435533474 $152 $357 forward 7 unknown #
coedge $-1 $153 $347 $353 $358 forward $251 $-1 #
loop $-1 $-1 $347 $239 #
vertex $-1 $248 $359 #
vertex $-1 $154 $360 #
straight-curve $-1 -23.068397323990833 43.014202571655147 10.58967798625828 0 -1 0 I I #
coedge $-1 $255 $255 $-1 $361 reversed $157 $-1 #
edge $-1 $362 0 $362 6.2831853071796004 $158 $363 forward 7 unknown #
vertex $-1 $161 $364 #
ellipse-curve $-1 -16.477426659993448 24.885646568459503 5.6031327459813705 0 0.71933980857756763 0.69465836192734942 1.5 0 0 1 I I #
coedge $-1 $259 $259 $-1 $365 reversed $164 $-1 #
edge $-1 $366 0 $366 6.2831853071796004 $165 $367 forward 7 unknown #
vertex $-1 $168 $368 #
ellipse-curve $-1 -6.590970663997382 24.885646568459503 5.6031327459813705 0 0.71933980857756763 0.69465836192734942 1.5 0 0 1 I I #
face $-1 $-1 $369 $37 $-1 $370 reversed single #
loop $-1 $-1 $275 $169 #
plane-surface $-1 -3.5527136788005009e-015 86.028405143310295 137.59000217839497 -1 0 0 0 0.71933980857756763 0.69465836192734942 forward_v I I I I #
coedge $-1 $269 $371 $174 $274 forward $170 $-1 #
coedge $-1 $268 $172 $271 $372 reversed $107 $-1 #
coedge $-1 $172 $267 $373 $374 reversed $107 $-1 #
coedge $-1 $375 $266 $172 $270 forward $170 $-1 #
edge $-1 $376 -22.944006652502864 $377 -13.313105353888425 $269 $378 forward 7 unknown #
coedge $-1 $174 $173 $267 $372 forward $68 $-1 #
coedge $-1 $379 $373 $173 $273 forward $369 $-1 #
edge $-1 $380 -28.835496654988528 $277 -5.7670993309977057 $272 $381 forward 7 unknown #
edge $-1 $278 5.7670993309977057 $376 28.835496654988528 $266 $382 forward 7 unknown #
coedge $-1 $276 $175 $371 $383 reversed $264 $-1 #
coedge $-1 $175 $275 $379 $384 reversed $264 $-1 #
vertex $-1 $273 $385 #
vertex $-1 $274 $386 #
straight-curve $-1 -3.5527136788005009e-015 -11.563133863710874 43.346950680048565 0 -0.69465836192734942 0.71933980857756763 I I #
coedge $-1 $280 $280 $-1 $387 reversed $179 $-1 #
edge $-1 $388 0 $388 6.2831853071796004 $180 $389 forward 7 unknown #
vertex $-1 $183 $390 #
ellipse-curve $-1 6.590970663997382 24.885646568459503 5.6031327459813705 0 0.71933980857756763 0.69465836192734942 1.5 0 0 1 I I #
coedge $-1 $284 $284 $-1 $391 reversed $186 $-1 #
edge $-1 $392 0 $392 6.2831853071796004 $187 $393 forward 7 unknown #
vertex $-1 $190 $394 #
ellipse-curve $-1 16.477426659993441 24.885646568459503 5.6031327459813705 0 0.71933980857756763 0.69465836192734942 1.5 0 0 1 I I #
face $-1 $-1 $300 $40 $-1 $395 forward single #
loop $-1 $-1 $396 $191 #
plane-surface $-1 0 -29.701097217766723 0 0 1 0 0 0 1 forward_v I I I I #
coedge $-1 $397 $398 $399 $400 reversed $192 $-1 #
coedge $-1 $401 $194 $196 $298 forward $121 $-1 #
coedge $-1 $194 $401 $397 $402 forward $121 $-1 #
coedge $-1 $399 $197 $194 $295 forward $300 $-1 #
edge $-1 $302 -39.961198607488456 $403 -11.557700033068521 $294 $404 forward 7 unknown #
coedge $-1 $405 $406 $195 $297 forward $289 $-1 #
edge $-1 $407 -33.849545820386339 $301 -25.435064402900004 $296 $408 forward 7 unknown #
edge $-1 $302 -9.8166149521592114 $407 4.1431396825663817e-014 $196 $409 forward 7 unknown #
coedge $-1 $197 $399 $405 $410 forward $300 $-1 #
loop $-1 $-1 $399 $288 #
vertex $-1 $297 $411 #
vertex $-1 $198 $412 #
straight-curve $-1 65.720647927766947 -72.995722717936459 10.58967798625828 0 1 0 I I #
coedge $-1 $304 $304 $-1 $413 reversed $201 $-1 #
edge $-1 $414 0 $414 6.2831853071796004 $202 $415 forward 7 unknown #
vertex $-1 $205 $416 #
ellipse-curve $-1 42.997849068230991 -27.173132048221571 6.3824372775151215 0 -0.85716730853699208 0.51503806187062418 1 0 0 1 I I #
coedge $-1 $308 $308 $-1 $417 reversed $208 $-1 #
edge $-1 $418 0 $418 6.2831853071796004 $209 $419 forward 7 unknown #
vertex $-1 $212 $420 #
ellipse-curve $-1 51.518898640556984 -27.173132048221571 6.3824372775151215 0 -0.85716730853699208 0.51503806187062418 1 0 0 1 I I #
coedge $-1 $312 $312 $-1 $421 reversed $215 $-1 #
edge $-1 $422 0 $422 6.2831853071796004 $216 $423 forward 7 unknown #
vertex $-1 $219 $424 #
ellipse-curve $-1 60.039948212882962 -27.173132048221571 6.3824372775151215 0 -0.85716730853699208 0.51503806187062418 1 0 0 1 I I #
face $-1 $-1 $235 $33 $-1 $425 reversed single #
loop $-1 $-1 $332 $220 #
plane-surface $-1 0 29.701097217766723 0 0 -1 0 0 0 -1 forward_v I I I I #
coedge $-1 $426 $330 $333 $427 forward $221 $-1 #
coedge $-1 $336 $223 $224 $324 reversed $140 $-1 #
coedge $-1 $330 $426 $223 $322 reversed $221 $-1 #
edge $-1 $337 -10.589677986258282 $428 10.589677986258282 $321 $429 forward 7 unknown #
coedge $-1 $225 $224 $426 $430 forward $89 $-1 #
edge $-1 $328 -67.834101382488484 $428 67.834101382488484 $320 $431 forward 7 unknown #
coedge $-1 $333 $332 $225 $326 reversed $317 $-1 #
edge $-1 $432 -67.834101382488484 $327 67.834101382488484 $325 $433 forward 7 unknown #
vertex $-1 $227 $434 #
vertex $-1 $339 $435 #
straight-curve $-1 67.834101382488484 0 -10.589677986258282 0 -1 0 I I #
coedge $-1 $319 $321 $228 $331 reversed $221 $-1 #
edge $-1 $334 -29.701097217766723 $337 29.701097217766723 $330 $436 forward 7 unknown #
coedge $-1 $325 $229 $234 $340 forward $317 $-1 #
coedge $-1 $229 $325 $319 $427 reversed $317 $-1 #
vertex $-1 $230 $437 #
straight-curve $-1 0 29.701097217766723 10.589677986258282 -1 0 0 I I #
coedge $-1 $231 $320 $233 $339 reversed $140 $-1 #
vertex $-1 $331 $438 #
straight-curve $-1 0 -29.701097217766723 10.589677986258282 1 0 0 I I #
edge $-1 $236 -10.589677986258282 $328 10.589677986258282 $233 $439 forward 7 unknown #
edge $-1 $237 -10.589677986258282 $327 10.589677986258282 $234 $440 forward 7 unknown #
point $-1 67.834101382488484 -29.701097217766723 10.589677986258282 #
point $-1 67.834101382488484 29.701097217766723 10.589677986258282 #
plane-surface $-1 0 0 10.589677986258282 0 0 1 1 0 0 forward_v I I I I #
coedge $-1 $354 $353 $346 $441 forward $240 $-1 #
coedge $-1 $346 $242 $244 $350 reversed $148 $-1 #
coedge $-1 $242 $345 $344 $441 reversed $148 $-1 #
coedge $-1 $250 $245 $242 $348 forward $251 $-1 #
edge $-1 $351 -22.944006652502864 $442 -13.313105353888425 $347 $443 forward 7 unknown #
coedge $-1 $244 $243 $354 $444 reversed $93 $-1 #
edge $-1 $445 -59.402194435533474 $351 -45.537967318345643 $345 $446 forward 7 unknown #
vertex $-1 $246 $447 #
straight-curve $-1 -5.7670993309977092 20.070195919152276 10.589677986258287 1 0 0 I I #
coedge $-1 $344 $247 $250 $358 reversed $240 $-1 #
coedge $-1 $247 $344 $349 $444 forward $240 $-1 #
vertex $-1 $248 $448 #
straight-curve $-1 -23.068397323990833 29.701097217766723 68.795001089197484 0 0 1 I I #
straight-curve $-1 -23.068397323990833 -11.563133863710874 43.346950680048565 0 0.69465836192734942 -0.71933980857756763 I I #
edge $-1 $442 3.5527136788005009e-015 $252 23.068397323990833 $353 $449 forward 7 unknown #
point $-1 -23.068397323990833 29.701097217766723 10.589677986258282 #
point $-1 -23.068397323990833 20.070195919152283 10.58967798625828 #
edge $-1 $450 1 $450 0 $255 $-1 forward 7 unknown #
vertex $-1 $256 $451 #
ellipse-curve $-1 -16.477426659993448 22.201014290523126 3.0106135522275106 0 0.71933980857756763 0.69465836192734942 1.5 0 0 1 I I #
point $-1 -14.977426659993448 24.885646568459528 5.6031327459813971 #
edge $-1 $452 1 $452 0 $259 $-1 forward 7 unknown #
vertex $-1 $260 $453 #
ellipse-curve $-1 -6.590970663997382 22.201014290523126 3.0106135522275106 0 0.71933980857756763 0.69465836192734942 1.5 0 0 1 I I #
point $-1 -5.090970663997382 24.885646568459528 5.6031327459813971 #
loop $-1 $-1 $272 $263 #
plane-surface $-1 0 29.701097217766723 0 0 -1 0 0 0 -1 forward_v I I I I #
coedge $-1 $266 $375 $275 $383 forward $170 $-1 #
edge $-1 $380 -59.402194435533474 $376 -45.537967318345643 $267 $454 forward 7 unknown #
coedge $-1 $272 $455 $268 $374 forward $369 $-1 #
edge $-1 $377 58.205323102939204 $380 68.178413583493025 $373 $456 forward 7 unknown #
coedge $-1 $371 $269 $455 $457 forward $170 $-1 #
vertex $-1 $270 $458 #
vertex $-1 $457 $459 #
straight-curve $-1 23.068397323990819 43.014202571655147 10.58967798625828 0 1 0 I I #
coedge $-1 $455 $272 $276 $384 forward $369 $-1 #
vertex $-1 $374 $460 #
straight-curve $-1 -5.7670993309977092 29.701097217766716 0.61658750570445875 -1 0 0 I I #
straight-curve $-1 -5.7670993309977092 20.070195919152276 10.589677986258287 1 0 0 I I #
edge $-1 $461 13.313105353888425 $278 22.944006652502864 $371 $462 forward 7 unknown #
edge $-1 $277 -68.178413583493025 $461 -58.205323102939204 $379 $463 forward 7 unknown #
point $-1 -3.5527136788005009e-015 29.701097217766723 0.61658750570445875 #
point $-1 -3.5527136788005009e-015 20.070195919152283 10.58967798625828 #
edge $-1 $464 1 $464 0 $280 $-1 forward 7 unknown #
vertex $-1 $281 $465 #
ellipse-curve $-1 6.590970663997382 22.201014290523126 3.0106135522275106 0 0.71933980857756763 0.69465836192734942 1.5 0 0 1 I I #
point $-1 8.090970663997382 24.885646568459528 5.6031327459813971 #
edge $-1 $466 1 $466 0 $284 $-1 forward 7 unknown #
vertex $-1 $285 $467 #
ellipse-curve $-1 16.477426659993441 22.201014290523126 3.0106135522275106 0 0.71933980857756763 0.69465836192734942 1.5 0 0 1 I I #
point $-1 17.977426659993441 24.885646568459528 5.6031327459813971 #
plane-surface $-1 0 0 10.589677986258282 0 0 1 1 0 0 forward_v I I I I #
coedge $-1 $406 $405 $398 $468 forward $289 $-1 #
coedge $-1 $398 $291 $293 $402 reversed $192 $-1 #
coedge $-1 $291 $397 $396 $468 reversed $192 $-1 #
coedge $-1 $299 $294 $291 $400 forward $300 $-1 #
edge $-1 $403 -48.350555839260025 $469 -43.294625500169737 $399 $470 forward 7 unknown #
coedge $-1 $293 $292 $406 $471 reversed $121 $-1 #
edge $-1 $472 -4.1431396825663817e-014 $403 9.8166149521592114 $397 $473 forward 7 unknown #
vertex $-1 $295 $474 #
straight-curve $-1 25.759449320278492 -24.645166878676434 10.589677986258282 -1 0 0 I I #
coedge $-1 $396 $296 $299 $410 reversed $289 $-1 #
coedge $-1 $296 $396 $401 $471 forward $289 $-1 #
vertex $-1 $297 $475 #
straight-curve $-1 65.720647927766947 -29.701097217766723 36.024742389158284 0 0 1 I I #
straight-curve $-1 65.720647927766947 -29.701097217766701 2.1751965687719803 0 -0.51503806187062418 -0.85716730853699208 I I #
edge $-1 $469 37.317149353347013 $301 65.720647927766947 $405 $476 forward 7 unknown #
point $-1 65.720647927766947 -29.701097217766723 10.589677986258282 #
point $-1 65.720647927766947 -24.645166878676431 10.589677986258282 #
edge $-1 $477 1 $477 0 $304 $-1 forward 7 unknown #
vertex $-1 $305 $478 #
ellipse-curve $-1 42.997849068230991 -24.113311321729849 4.543911565033576 0 -0.85716730853699208 0.51503806187062418 1 0 0 1 I I #
point $-1 43.997849068230991 -27.173132048221589 6.3824372775151321 #
edge $-1 $479 1 $479 0 $308 $-1 forward 7 unknown #
vertex $-1 $309 $480 #
ellipse-curve $-1 51.518898640556984 -24.113311321729849 4.543911565033576 0 -0.85716730853699208 0.51503806187062418 1 0 0 1 I I #
point $-1 52.518898640556984 -27.173132048221589 6.3824372775151321 #
edge $-1 $481 1 $481 0 $312 $-1 forward 7 unknown #
vertex $-1 $313 $482 #
ellipse-curve $-1 60.039948212882962 -24.113311321729849 4.543911565033576 0 -0.85716730853699208 0.51503806187062418 1 0 0 1 I I #
point $-1 61.039948212882962 -27.173132048221589 6.3824372775151321 #
plane-surface $-1 67.834101382488484 0 0 -1 0 0 0 0 1 forward_v I I I I #
coedge $-1 $321 $319 $323 $430 reversed $221 $-1 #
edge $-1 $334 -10.589677986258282 $432 10.589677986258282 $333 $483 forward 7 unknown #
vertex $-1 $430 $484 #
straight-curve $-1 -67.834101382488484 -29.701097217766723 0 0 0 -1 I I #
edge $-1 $428 -29.701097217766723 $432 29.701097217766723 $426 $485 forward 7 unknown #
straight-curve $-1 0 -29.701097217766723 -10.589677986258282 -1 0 0 I I #
vertex $-1 $326 $486 #
straight-curve $-1 0 29.701097217766723 -10.589677986258282 1 0 0 I I #
point $-1 67.834101382488484 29.701097217766723 -10.589677986258282 #
point $-1 67.834101382488484 -29.701097217766723 -10.589677986258282 #
straight-curve $-1 -67.834101382488484 0 10.589677986258282 0 -1 0 I I #
point $-1 -67.834101382488484 29.701097217766723 10.589677986258282 #
point $-1 -67.834101382488484 -29.701097217766723 10.589677986258282 #
straight-curve $-1 67.834101382488484 -29.701097217766723 0 0 0 -1 I I #
straight-curve $-1 67.834101382488484 29.701097217766723 0 0 0 -1 I I #
edge $-1 $442 58.205323102939204 $445 68.178413583493025 $344 $487 forward 7 unknown #
vertex $-1 $358 $488 #
straight-curve $-1 -3.5527136788005009e-015 43.014202571655147 10.58967798625828 0 1 0 I I #
edge $-1 $445 -5.7670993309977057 $355 17.301297992993124 $354 $489 forward 7 unknown #
vertex $-1 $444 $490 #
straight-curve $-1 -3.5527136788005009e-015 -11.563133863710874 43.346950680048565 0 -0.69465836192734942 0.71933980857756763 I I #
point $-1 -3.5527136788005009e-015 20.070195919152283 10.58967798625828 #
point $-1 -23.068397323990833 29.701097217766723 0.61658750570445875 #
straight-curve $-1 0 29.701097217766723 10.589677986258282 -1 0 0 I I #
vertex $-1 $361 $491 #
point $-1 -14.977426659993448 22.201014290523126 3.0106135522275106 #
vertex $-1 $365 $492 #
point $-1 -5.090970663997382 22.201014290523126 3.0106135522275106 #
straight-curve $-1 23.068397323990819 -11.563133863710874 43.346950680048565 0 -0.69465836192734942 0.71933980857756763 I I #
coedge $-1 $373 $379 $375 $457 reversed $369 $-1 #
straight-curve $-1 23.068397323990819 29.701097217766723 68.795001089197484 0 0 -1 I I #
edge $-1 $377 -23.068397323990819 $461 3.5527136788005009e-015 $455 $493 forward 7 unknown #
point $-1 23.068397323990819 20.070195919152283 10.58967798625828 #
point $-1 23.068397323990819 29.701097217766723 10.589677986258282 #
point $-1 23.068397323990819 29.701097217766723 0.61658750570445875 #
vertex $-1 $384 $494 #
straight-curve $-1 -3.5527136788005009e-015 43.014202571655147 10.58967798625828 0 -1 0 I I #
straight-curve $-1 -3.5527136788005009e-015 29.701097217766723 68.795001089197484 0 0 1 I I #
vertex $-1 $387 $495 #
point $-1 8.090970663997382 22.201014290523126 3.0106135522275106 #
vertex $-1 $391 $496 #
point $-1 17.977426659993441 22.201014290523126 3.0106135522275106 #
edge $-1 $469 25.435064402900004 $472 33.849545820386339 $396 $497 forward 7 unknown #
vertex $-1 $410 $498 #
straight-curve $-1 37.317149353347013 -72.995722717936459 10.58967798625828 0 -1 0 I I #
edge $-1 $472 11.557700033068521 $407 39.961198607488456 $406 $499 forward 7 unknown #
vertex $-1 $471 $500 #
straight-curve $-1 37.317149353347013 -29.701097217766701 2.1751965687719803 0 0.51503806187062418 0.85716730853699208 I I #
point $-1 37.317149353347013 -24.645166878676431 10.589677986258282 #
point $-1 65.720647927766947 -29.701097217766723 2.1751965687719448 #
straight-curve $-1 0 -29.701097217766723 10.589677986258282 1 0 0 I I #
vertex $-1 $413 $501 #
point $-1 43.997849068230991 -24.113311321729849 4.543911565033576 #
vertex $-1 $417 $502 #
point $-1 52.518898640556984 -24.113311321729849 4.543911565033576 #
vertex $-1 $421 $503 #
point $-1 61.039948212882962 -24.113311321729849 4.543911565033576 #
straight-curve $-1 -67.834101382488484 29.701097217766723 0 0 0 -1 I I #
point $-1 -67.834101382488484 -29.701097217766723 -10.589677986258282 #
straight-curve $-1 -67.834101382488484 0 -10.589677986258282 0 1 0 I I #
point $-1 -67.834101382488484 29.701097217766723 -10.589677986258282 #
straight-curve $-1 -3.5527136788005009e-015 29.701097217766723 68.795001089197484 0 0 -1 I I #
point $-1 -3.5527136788005009e-015 29.701097217766723 10.589677986258282 #
straight-curve $-1 -5.7670993309977092 29.701097217766716 0.61658750570445875 -1 0 0 I I #
point $-1 -3.5527136788005009e-015 29.701097217766723 0.61658750570445875 #
point $-1 -16.477426659993448 21.122004577656774 1.9686260093364862 #
point $-1 -6.590970663997382 21.122004577656774 1.9686260093364862 #
straight-curve $-1 0 29.701097217766723 10.589677986258282 -1 0 0 I I #
point $-1 -3.5527136788005009e-015 29.701097217766723 10.589677986258282 #
point $-1 6.590970663997382 21.122004577656774 1.9686260093364862 #
point $-1 16.477426659993441 21.122004577656774 1.9686260093364862 #
straight-curve $-1 37.317149353347013 -29.701097217766723 36.024742389158284 0 0 -1 I I #
point $-1 37.317149353347013 -29.701097217766723 10.589677986258282 #
straight-curve $-1 25.759449320278492 -29.701097217766723 2.1751965687719443 1 0 0 I I #
point $-1 37.317149353347013 -29.701097217766723 2.1751965687719448 #
point $-1 42.997849068230991 -23.256144013192856 4.0288735031629512 #
point $-1 51.518898640556984 -23.256144013192856 4.0288735031629512 #
point $-1 60.039948212882962 -23.256144013192856 4.0288735031629512 #
End-of-ACIS-data 