500 0 17 0           
7 Unknown 11 ACIS 5.0 NT 24 Thu Mar 25 18:12:36 1999 
-1 9.9999999999999995e-007 1e-010 
body $-1 $17 $-1 $18 #
body $-1 $19 $-1 $20 #
body $-1 $21 $-1 $22 #
body $-1 $23 $-1 $24 #
body $-1 $25 $-1 $26 #
body $-1 $27 $-1 $28 #
body $-1 $29 $-1 $30 #
body $-1 $31 $-1 $32 #
body $-1 $33 $-1 $34 #
body $-1 $35 $-1 $36 #
body $-1 $37 $-1 $38 #
body $-1 $39 $-1 $40 #
body $-1 $41 $-1 $42 #
body $-1 $43 $-1 $44 #
body $-1 $45 $-1 $46 #
body $-1 $47 $-1 $48 #
body $-1 $49 $-1 $50 #
lump $-1 $-1 $51 $0 #
transform $-1 1 0 0 0 1 0 0 0 1 47.398907437360762 30.459153857685685 12.750140267427241 1 rotate no_reflect no_shear #
lump $-1 $-1 $52 $1 #
transform $-1 1 0 0 0 1 0 0 0 1 47.398907437360762 5.525783239915306 16.81803461992612 1 rotate no_reflect no_shear #
lump $-1 $-1 $53 $2 #
transform $-1 1 0 0 0 1 0 0 0 1 47.398907437360762 55.392524475456064 16.81803461992612 1 rotate no_reflect no_shear #
lump $-1 $-1 $54 $3 #
transform $-1 0.82903756765294845 0 0.55919291073839883 0 1 0 -0.55919291073839883 0 0.82903756765294845 -53.010266031435407 32.308228039650565 99.132097015629455 1 rotate no_reflect no_shear #
lump $-1 $-1 $55 $4 #
transform $-1 0.82903756765294845 0 0.55919291073839883 0 -1 0 0.55919291073839883 0 -0.82903756765294845 5.767540043328105 32.308228039650565 19.920039462049807 1 rotate no_reflect no_shear #
lump $-1 $-1 $56 $5 #
transform $-1 0.65605901945558964 0 -0.75470958851134928 0 1 0 0.75470958851134928 0 0.65605901945558964 104.14967325735536 20.522166698619763 156.12320380118945 1 rotate no_reflect no_shear #
lump $-1 $-1 $57 $6 #
transform $-1 0.65605901945558964 0 -0.75470958851134928 0 -1 0 -0.75470958851134928 0 -0.65605901945558964 92.126042222229628 18.441491878751226 22.7972009074822 1 rotate no_reflect no_shear #
lump $-1 $-1 $58 $7 #
transform $-1 0.65605901945558964 0 -0.75470958851134928 0 -1 0 -0.75470958851134928 0 -0.65605901945558964 92.126042222229628 20.522166698619763 22.7972009074822 1 rotate no_reflect no_shear #
lump $-1 $-1 $59 $8 #
transform $-1 0.65605901945558964 0 -0.75470958851134928 0 -1 0 -0.75470958851134928 0 -0.65605901945558964 92.126042222229628 22.602841518488301 22.7972009074822 1 rotate no_reflect no_shear #
lump $-1 $-1 $60 $9 #
transform $-1 0.65605901945558964 0 -0.75470958851134928 0 1 0 0.75470958851134928 0 0.65605901945558964 104.14967325735536 30.459153857685685 156.12320380118945 1 rotate no_reflect no_shear #
lump $-1 $-1 $61 $10 #
transform $-1 0.65605901945558964 0 -0.75470958851134928 0 -1 0 -0.75470958851134928 0 -0.65605901945558964 92.126042222229628 28.378479037817147 22.7972009074822 1 rotate no_reflect no_shear #
lump $-1 $-1 $62 $11 #
transform $-1 0.65605901945558964 0 -0.75470958851134928 0 -1 0 -0.75470958851134928 0 -0.65605901945558964 92.126042222229628 30.459153857685685 22.7972009074822 1 rotate no_reflect no_shear #
lump $-1 $-1 $63 $12 #
transform $-1 0.65605901945558964 0 -0.75470958851134928 0 -1 0 -0.75470958851134928 0 -0.65605901945558964 92.126042222229628 32.539828677554226 22.7972009074822 1 rotate no_reflect no_shear #
lump $-1 $-1 $64 $13 #
transform $-1 0.65605901945558964 0 -0.75470958851134928 0 1 0 0.75470958851134928 0 0.65605901945558964 104.14967325735536 40.396141016751606 156.12320380118945 1 rotate no_reflect no_shear #
lump $-1 $-1 $65 $14 #
transform $-1 0.65605901945558964 0 -0.75470958851134928 0 -1 0 -0.75470958851134928 0 -0.65605901945558964 92.126042222229628 38.315466196883065 22.7972009074822 1 rotate no_reflect no_shear #
lump $-1 $-1 $66 $15 #
transform $-1 0.65605901945558964 0 -0.75470958851134928 0 -1 0 -0.75470958851134928 0 -0.65605901945558964 92.126042222229628 40.396141016751606 22.7972009074822 1 rotate no_reflect no_shear #
lump $-1 $-1 $67 $16 #
transform $-1 0.65605901945558964 0 -0.75470958851134928 0 -1 0 -0.75470958851134928 0 -0.65605901945558964 92.126042222229628 42.476815836620148 22.7972009074822 1 rotate no_reflect no_shear #
shell $-1 $-1 $-1 $68 $-1 $17 #
shell $-1 $-1 $-1 $69 $-1 $19 #
shell $-1 $-1 $-1 $70 $-1 $21 #
shell $-1 $-1 $-1 $71 $-1 $23 #
shell $-1 $-1 $-1 $72 $-1 $25 #
shell $-1 $-1 $-1 $73 $-1 $27 #
shell $-1 $-1 $-1 $74 $-1 $29 #
shell $-1 $-1 $-1 $75 $-1 $31 #
shell $-1 $-1 $-1 $76 $-1 $33 #
shell $-1 $-1 $-1 $77 $-1 $35 #
shell $-1 $-1 $-1 $78 $-1 $37 #
shell $-1 $-1 $-1 $79 $-1 $39 #
shell $-1 $-1 $-1 $80 $-1 $41 #
shell $-1 $-1 $-1 $81 $-1 $43 #
shell $-1 $-1 $-1 $82 $-1 $45 #
shell $-1 $-1 $-1 $83 $-1 $47 #
shell $-1 $-1 $-1 $84 $-1 $49 #
face $-1 $85 $86 $51 $-1 $87 forward single #
face $-1 $88 $89 $52 $-1 $90 forward single #
face $-1 $91 $92 $53 $-1 $93 forward single #
face $-1 $94 $95 $54 $-1 $96 forward single #
face $-1 $97 $98 $55 $-1 $99 forward single #
face $-1 $100 $101 $56 $-1 $102 forward single #
face $-1 $103 $104 $57 $-1 $105 forward single #
face $-1 $106 $107 $58 $-1 $108 forward single #
face $-1 $109 $110 $59 $-1 $111 forward single #
face $-1 $112 $113 $60 $-1 $114 forward single #
face $-1 $115 $116 $61 $-1 $117 forward single #
face $-1 $118 $119 $62 $-1 $120 forward single #
face $-1 $121 $122 $63 $-1 $123 forward single #
face $-1 $124 $125 $64 $-1 $126 forward single #
face $-1 $127 $128 $65 $-1 $129 forward single #
face $-1 $130 $131 $66 $-1 $132 forward single #
face $-1 $133 $134 $67 $-1 $135 forward single #
face $-1 $136 $137 $51 $-1 $138 reversed single #
loop $-1 $-1 $139 $68 #
plane-surface $-1 0 0 12.750140267427241 0 0 1 1 0 0 forward_v I I I I #
face $-1 $140 $141 $52 $-1 $142 reversed single #
loop $-1 $-1 $143 $69 #
plane-surface $-1 0 0 1.5160320290512788 0 0 1 1 0 0 forward_v I I I I #
face $-1 $144 $145 $53 $-1 $146 reversed single #
loop $-1 $-1 $147 $70 #
plane-surface $-1 0 0 1.5160320290512788 0 0 1 1 0 0 forward_v I I I I #
face $-1 $148 $149 $54 $-1 $150 reversed single #
loop $-1 $-1 $151 $71 #
plane-surface $-1 0 0 94.797814874721524 0 0 1 1 0 0 forward_v I I I I #
face $-1 $152 $153 $55 $-1 $154 forward single #
loop $-1 $155 $156 $72 #
cone-surface $-1 0 0 -2.1200445570238351 0 0 1 1 0 0 1 I I 0 1 1 forward I I I I #
face $-1 $157 $158 $56 $-1 $159 reversed single #
loop $-1 $-1 $160 $73 #
plane-surface $-1 0 0 94.797814874721524 0 0 1 1 0 0 forward_v I I I I #
face $-1 $161 $162 $57 $-1 $163 forward single #
loop $-1 $164 $165 $74 #
cone-surface $-1 0 0 -0.99813074129459523 0 0 1 0.5 0 0 1 I I 0 1 0.5 forward I I I I #
face $-1 $166 $167 $58 $-1 $168 forward single #
loop $-1 $169 $170 $75 #
cone-surface $-1 0 0 -0.99813074129459523 0 0 1 0.5 0 0 1 I I 0 1 0.5 forward I I I I #
face $-1 $171 $172 $59 $-1 $173 forward single #
loop $-1 $174 $175 $76 #
cone-surface $-1 0 0 -0.99813074129459523 0 0 1 0.5 0 0 1 I I 0 1 0.5 forward I I I I #
face $-1 $176 $177 $60 $-1 $178 reversed single #
loop $-1 $-1 $179 $77 #
plane-surface $-1 0 0 94.797814874721524 0 0 1 1 0 0 forward_v I I I I #
face $-1 $180 $181 $61 $-1 $182 forward single #
loop $-1 $183 $184 $78 #
cone-surface $-1 0 0 -0.99813074129459523 0 0 1 0.5 0 0 1 I I 0 1 0.5 forward I I I I #
face $-1 $185 $186 $62 $-1 $187 forward single #
loop $-1 $188 $189 $79 #
cone-surface $-1 0 0 -0.99813074129459523 0 0 1 0.5 0 0 1 I I 0 1 0.5 forward I I I I #
face $-1 $190 $191 $63 $-1 $192 forward single #
loop $-1 $193 $194 $80 #
cone-surface $-1 0 0 -0.99813074129459523 0 0 1 0.5 0 0 1 I I 0 1 0.5 forward I I I I #
face $-1 $195 $196 $64 $-1 $197 reversed single #
loop $-1 $-1 $198 $81 #
plane-surface $-1 0 0 94.797814874721524 0 0 1 1 0 0 forward_v I I I I #
face $-1 $199 $200 $65 $-1 $201 forward single #
loop $-1 $202 $203 $82 #
cone-surface $-1 0 0 -0.99813074129459523 0 0 1 0.5 0 0 1 I I 0 1 0.5 forward I I I I #
face $-1 $204 $205 $66 $-1 $206 forward single #
loop $-1 $207 $208 $83 #
cone-surface $-1 0 0 -0.99813074129459523 0 0 1 0.5 0 0 1 I I 0 1 0.5 forward I I I I #
face $-1 $209 $210 $67 $-1 $211 forward single #
loop $-1 $212 $213 $84 #
cone-surface $-1 0 0 -0.99813074129459523 0 0 1 0.5 0 0 1 I I 0 1 0.5 forward I I I I #
face $-1 $214 $215 $51 $-1 $216 reversed single #
loop $-1 $-1 $217 $85 #
plane-surface $-1 0 0 -12.750140267427241 0 0 1 1 0 0 forward_v I I I I #
coedge $-1 $218 $219 $220 $221 forward $86 $-1 #
face $-1 $222 $223 $52 $-1 $224 reversed single #
loop $-1 $-1 $225 $88 #
plane-surface $-1 0 0 -1.5160320290512788 0 0 1 1 0 0 forward_v I I I I #
coedge $-1 $226 $227 $228 $229 forward $89 $-1 #
face $-1 $230 $231 $53 $-1 $232 reversed single #
loop $-1 $-1 $233 $91 #
plane-surface $-1 0 0 -1.5160320290512788 0 0 1 1 0 0 forward_v I I I I #
coedge $-1 $234 $235 $236 $237 forward $92 $-1 #
face $-1 $238 $239 $54 $-1 $240 reversed single #
loop $-1 $-1 $241 $94 #
plane-surface $-1 0 0 -94.797814874721524 0 0 1 1 0 0 forward_v I I I I #
coedge $-1 $242 $243 $244 $245 forward $95 $-1 #
face $-1 $-1 $246 $55 $-1 $247 forward single #
loop $-1 $-1 $248 $97 #
plane-surface $-1 0 0 -3.7400891140476702 0 0 -1 -1 0 0 forward_v I I I I #
loop $-1 $-1 $249 $72 #
coedge $-1 $156 $156 $248 $250 reversed $98 $-1 #
face $-1 $251 $252 $56 $-1 $253 reversed single #
loop $-1 $-1 $254 $100 #
plane-surface $-1 0 0 -94.797814874721524 0 0 1 1 0 0 forward_v I I I I #
coedge $-1 $255 $256 $257 $258 forward $101 $-1 #
face $-1 $-1 $259 $57 $-1 $260 forward single #
loop $-1 $-1 $261 $103 #
plane-surface $-1 0 0 -1.7462614825891905 0 0 -1 -1 0 0 forward_v I I I I #
loop $-1 $-1 $262 $74 #
coedge $-1 $165 $165 $261 $263 reversed $104 $-1 #
face $-1 $-1 $264 $58 $-1 $265 forward single #
loop $-1 $-1 $266 $106 #
plane-surface $-1 0 0 -1.7462614825891905 0 0 -1 -1 0 0 forward_v I I I I #
loop $-1 $-1 $267 $75 #
coedge $-1 $170 $170 $266 $268 reversed $107 $-1 #
face $-1 $-1 $269 $59 $-1 $270 forward single #
loop $-1 $-1 $271 $109 #
plane-surface $-1 0 0 -1.7462614825891905 0 0 -1 -1 0 0 forward_v I I I I #
loop $-1 $-1 $272 $76 #
coedge $-1 $175 $175 $271 $273 reversed $110 $-1 #
face $-1 $274 $275 $60 $-1 $276 reversed single #
loop $-1 $-1 $277 $112 #
plane-surface $-1 0 0 -94.797814874721524 0 0 1 1 0 0 forward_v I I I I #
coedge $-1 $278 $279 $280 $281 forward $113 $-1 #
face $-1 $-1 $282 $61 $-1 $283 forward single #
loop $-1 $-1 $284 $115 #
plane-surface $-1 0 0 -1.7462614825891905 0 0 -1 -1 0 0 forward_v I I I I #
loop $-1 $-1 $285 $78 #
coedge $-1 $184 $184 $284 $286 reversed $116 $-1 #
face $-1 $-1 $287 $62 $-1 $288 forward single #
loop $-1 $-1 $289 $118 #
plane-surface $-1 0 0 -1.7462614825891905 0 0 -1 -1 0 0 forward_v I I I I #
loop $-1 $-1 $290 $79 #
coedge $-1 $189 $189 $289 $291 reversed $119 $-1 #
face $-1 $-1 $292 $63 $-1 $293 forward single #
loop $-1 $-1 $294 $121 #
plane-surface $-1 0 0 -1.7462614825891905 0 0 -1 -1 0 0 forward_v I I I I #
loop $-1 $-1 $295 $80 #
coedge $-1 $194 $194 $294 $296 reversed $122 $-1 #
face $-1 $297 $298 $64 $-1 $299 reversed single #
loop $-1 $-1 $300 $124 #
plane-surface $-1 0 0 -94.797814874721524 0 0 1 1 0 0 forward_v I I I I #
coedge $-1 $301 $302 $303 $304 forward $125 $-1 #
face $-1 $-1 $305 $65 $-1 $306 forward single #
loop $-1 $-1 $307 $127 #
plane-surface $-1 0 0 -1.7462614825891905 0 0 -1 -1 0 0 forward_v I I I I #
loop $-1 $-1 $308 $82 #
coedge $-1 $203 $203 $307 $309 reversed $128 $-1 #
face $-1 $-1 $310 $66 $-1 $311 forward single #
loop $-1 $-1 $312 $130 #
plane-surface $-1 0 0 -1.7462614825891905 0 0 -1 -1 0 0 forward_v I I I I #
loop $-1 $-1 $313 $83 #
coedge $-1 $208 $208 $312 $314 reversed $131 $-1 #
face $-1 $-1 $315 $67 $-1 $316 forward single #
loop $-1 $-1 $317 $133 #
plane-surface $-1 0 0 -1.7462614825891905 0 0 -1 -1 0 0 forward_v I I I I #
loop $-1 $-1 $318 $84 #
coedge $-1 $213 $213 $317 $319 reversed $134 $-1 #
face $-1 $320 $321 $51 $-1 $322 reversed single #
loop $-1 $-1 $323 $136 #
plane-surface $-1 0 -30.459153857685685 0 0 1 0 0 0 1 forward_v I I I I #
coedge $-1 $324 $325 $326 $327 forward $137 $-1 #
coedge $-1 $328 $139 $329 $330 forward $86 $-1 #
coedge $-1 $139 $328 $331 $332 forward $86 $-1 #
coedge $-1 $333 $334 $139 $221 reversed $335 $-1 #
edge $-1 $336 -30.459153857685685 $337 30.459153857685685 $220 $338 forward 7 unknown #
face $-1 $339 $340 $52 $-1 $341 reversed single #
loop $-1 $-1 $342 $140 #
plane-surface $-1 0 -5.525783239915306 0 0 1 0 0 0 1 forward_v I I I I #
coedge $-1 $343 $344 $345 $346 forward $141 $-1 #
coedge $-1 $347 $143 $348 $349 forward $89 $-1 #
coedge $-1 $143 $347 $350 $351 forward $89 $-1 #
coedge $-1 $352 $353 $143 $229 reversed $354 $-1 #
edge $-1 $355 -5.525783239915306 $356 5.525783239915306 $228 $357 forward 7 unknown #
face $-1 $358 $359 $53 $-1 $360 reversed single #
loop $-1 $-1 $361 $144 #
plane-surface $-1 0 -5.525783239915306 0 0 1 0 0 0 1 forward_v I I I I #
coedge $-1 $362 $363 $364 $365 forward $145 $-1 #
coedge $-1 $366 $147 $367 $368 forward $92 $-1 #
coedge $-1 $147 $366 $369 $370 forward $92 $-1 #
coedge $-1 $371 $372 $147 $237 reversed $373 $-1 #
edge $-1 $374 -5.525783239915306 $375 5.525783239915306 $236 $376 forward 7 unknown #
face $-1 $377 $378 $54 $-1 $379 reversed single #
loop $-1 $-1 $380 $148 #
plane-surface $-1 0 -4.7559662209448348 0 0 1 0 0 0 1 forward_v I I I I #
coedge $-1 $381 $382 $383 $384 forward $149 $-1 #
coedge $-1 $385 $151 $386 $387 forward $95 $-1 #
coedge $-1 $151 $385 $388 $389 forward $95 $-1 #
coedge $-1 $390 $391 $151 $245 reversed $392 $-1 #
edge $-1 $393 -4.7559662209448348 $394 4.7559662209448348 $244 $395 forward 7 unknown #
loop $-1 $396 $397 $152 #
cone-surface $-1 0 0 0 0 0 1 0.5 0 0 1 I I -0.70710678118654746 0.70710678118654746 0.5 forward I I I I #
coedge $-1 $248 $248 $156 $250 forward $153 $-1 #
coedge $-1 $249 $249 $397 $398 forward $155 $-1 #
edge $-1 $399 0 $399 6.2831853071796004 $248 $400 forward 7 unknown #
face $-1 $401 $402 $56 $-1 $403 reversed single #
loop $-1 $-1 $404 $157 #
plane-surface $-1 0 -3.4677913664475639 0 0 1 0 0 0 1 forward_v I I I I #
coedge $-1 $405 $406 $407 $408 forward $158 $-1 #
coedge $-1 $409 $160 $410 $411 forward $101 $-1 #
coedge $-1 $160 $409 $412 $413 forward $101 $-1 #
coedge $-1 $414 $415 $160 $258 reversed $416 $-1 #
edge $-1 $417 -3.4677913664475639 $418 3.4677913664475639 $257 $419 forward 7 unknown #
loop $-1 $420 $421 $161 #
cone-surface $-1 0 0 0 0 0 1 0.25 0 0 1 I I -0.70710678118654746 0.70710678118654746 0.25 forward I I I I #
coedge $-1 $261 $261 $165 $263 forward $162 $-1 #
coedge $-1 $262 $262 $421 $422 forward $164 $-1 #
edge $-1 $423 0 $423 6.2831853071796004 $261 $424 forward 7 unknown #
loop $-1 $425 $426 $166 #
cone-surface $-1 0 0 0 0 0 1 0.25 0 0 1 I I -0.70710678118654746 0.70710678118654746 0.25 forward I I I I #
coedge $-1 $266 $266 $170 $268 forward $167 $-1 #
coedge $-1 $267 $267 $426 $427 forward $169 $-1 #
edge $-1 $428 0 $428 6.2831853071796004 $266 $429 forward 7 unknown #
loop $-1 $430 $431 $171 #
cone-surface $-1 0 0 0 0 0 1 0.25 0 0 1 I I -0.70710678118654746 0.70710678118654746 0.25 forward I I I I #
coedge $-1 $271 $271 $175 $273 forward $172 $-1 #
coedge $-1 $272 $272 $431 $432 forward $174 $-1 #
edge $-1 $433 0 $433 6.2831853071796004 $271 $434 forward 7 unknown #
face $-1 $435 $436 $60 $-1 $437 reversed single #
loop $-1 $-1 $438 $176 #
plane-surface $-1 0 -3.4677913664475639 0 0 1 0 0 0 1 forward_v I I I I #
coedge $-1 $439 $440 $441 $442 forward $177 $-1 #
coedge $-1 $443 $179 $444 $445 forward $113 $-1 #
coedge $-1 $179 $443 $446 $447 forward $113 $-1 #
coedge $-1 $448 $449 $179 $281 reversed $450 $-1 #
edge $-1 $451 -3.4677913664475639 $452 3.4677913664475639 $280 $453 forward 7 unknown #
loop $-1 $454 $455 $180 #
cone-surface $-1 0 0 0 0 0 1 0.25 0 0 1 I I -0.70710678118654746 0.70710678118654746 0.25 forward I I I I #
coedge $-1 $284 $284 $184 $286 forward $181 $-1 #
coedge $-1 $285 $285 $455 $456 forward $183 $-1 #
edge $-1 $457 0 $457 6.2831853071796004 $284 $458 forward 7 unknown #
loop $-1 $459 $460 $185 #
cone-surface $-1 0 0 0 0 0 1 0.25 0 0 1 I I -0.70710678118654746 0.70710678118654746 0.25 forward I I I I #
coedge $-1 $289 $289 $189 $291 forward $186 $-1 #
coedge $-1 $290 $290 $460 $461 forward $188 $-1 #
edge $-1 $462 0 $462 6.2831853071796004 $289 $463 forward 7 unknown #
loop $-1 $464 $465 $190 #
cone-surface $-1 0 0 0 0 0 1 0.25 0 0 1 I I -0.70710678118654746 0.70710678118654746 0.25 forward I I I I #
coedge $-1 $294 $294 $194 $296 forward $191 $-1 #
coedge $-1 $295 $295 $465 $466 forward $193 $-1 #
edge $-1 $467 0 $467 6.2831853071796004 $294 $468 forward 7 unknown #
face $-1 $469 $470 $64 $-1 $471 reversed single #
loop $-1 $-1 $472 $195 #
plane-surface $-1 0 -3.4677913664475639 0 0 1 0 0 0 1 forward_v I I I I #
coedge $-1 $473 $474 $475 $476 forward $196 $-1 #
coedge $-1 $477 $198 $478 $479 forward $125 $-1 #
coedge $-1 $198 $477 $480 $481 forward $125 $-1 #
coedge $-1 $482 $483 $198 $304 reversed $484 $-1 #
edge $-1 $485 -3.4677913664475639 $486 3.4677913664475639 $303 $487 forward 7 unknown #
loop $-1 $488 $489 $199 #
cone-surface $-1 0 0 0 0 0 1 0.25 0 0 1 I I -0.70710678118654746 0.70710678118654746 0.25 forward I I I I #
coedge $-1 $307 $307 $203 $309 forward $200 $-1 #
coedge $-1 $308 $308 $489 $490 forward $202 $-1 #
edge $-1 $491 0 $491 6.2831853071796004 $307 $492 forward 7 unknown #
loop $-1 $493 $494 $204 #
cone-surface $-1 0 0 0 0 0 1 0.25 0 0 1 I I -0.70710678118654746 0.70710678118654746 0.25 forward I I I I #
coedge $-1 $312 $312 $208 $314 forward $205 $-1 #
coedge $-1 $313 $313 $494 $495 forward $207 $-1 #
edge $-1 $496 0 $496 6.2831853071796004 $312 $497 forward 7 unknown #
loop $-1 $498 $499 $209 #
cone-surface $-1 0 0 0 0 0 1 0.25 0 0 1 I I -0.70710678118654746 0.70710678118654746 0.25 forward I I I I #
coedge $-1 $317 $317 $213 $319 forward $210 $-1 #
coedge $-1 $318 $318 $499 $500 forward $212 $-1 #
edge $-1 $501 0 $501 6.2831853071796004 $317 $502 forward 7 unknown #
face $-1 $503 $504 $51 $-1 $505 reversed single #
loop $-1 $-1 $506 $214 #
plane-surface $-1 -47.398907437360762 0 0 1 0 0 0 0 -1 forward_v I I I I #
coedge $-1 $507 $331 $508 $509 forward $215 $-1 #
coedge $-1 $510 $217 $507 $511 forward $137 $-1 #
coedge $-1 $217 $510 $512 $513 forward $137 $-1 #
coedge $-1 $334 $333 $217 $327 reversed $335 $-1 #
edge $-1 $514 -30.459153857685685 $515 30.459153857685685 $326 $516 forward 7 unknown #
coedge $-1 $219 $218 $517 $518 forward $86 $-1 #
coedge $-1 $519 $520 $218 $330 reversed $504 $-1 #
edge $-1 $337 -47.398907437360762 $521 47.398907437360762 $329 $522 forward 7 unknown #
coedge $-1 $323 $523 $219 $332 reversed $215 $-1 #
edge $-1 $524 -47.398907437360762 $336 47.398907437360762 $331 $525 forward 7 unknown #
coedge $-1 $326 $220 $523 $526 forward $335 $-1 #
coedge $-1 $220 $326 $519 $527 reversed $335 $-1 #
loop $-1 $-1 $333 $503 #
vertex $-1 $221 $528 #
vertex $-1 $221 $529 #
straight-curve $-1 47.398907437360762 0 12.750140267427241 0 1 0 I I #
face $-1 $530 $531 $52 $-1 $532 reversed single #
loop $-1 $-1 $533 $222 #
plane-surface $-1 -47.398907437360762 0 0 1 0 0 0 0 -1 forward_v I I I I #
coedge $-1 $534 $350 $535 $536 forward $223 $-1 #
coedge $-1 $537 $225 $534 $538 forward $141 $-1 #
coedge $-1 $225 $537 $539 $540 forward $141 $-1 #
coedge $-1 $353 $352 $225 $346 reversed $354 $-1 #
edge $-1 $541 -5.525783239915306 $542 5.525783239915306 $345 $543 forward 7 unknown #
coedge $-1 $227 $226 $544 $545 forward $89 $-1 #
coedge $-1 $546 $547 $226 $349 reversed $531 $-1 #
edge $-1 $356 -47.398907437360762 $548 47.398907437360762 $348 $549 forward 7 unknown #
coedge $-1 $342 $550 $227 $351 reversed $223 $-1 #
edge $-1 $551 -47.398907437360762 $355 47.398907437360762 $350 $552 forward 7 unknown #
coedge $-1 $345 $228 $550 $553 forward $354 $-1 #
coedge $-1 $228 $345 $546 $554 reversed $354 $-1 #
loop $-1 $-1 $352 $530 #
vertex $-1 $229 $555 #
vertex $-1 $229 $556 #
straight-curve $-1 47.398907437360762 0 1.5160320290512788 0 1 0 I I #
face $-1 $557 $558 $53 $-1 $559 reversed single #
loop $-1 $-1 $560 $230 #
plane-surface $-1 -47.398907437360762 0 0 1 0 0 0 0 -1 forward_v I I I I #
coedge $-1 $561 $369 $562 $563 forward $231 $-1 #
coedge $-1 $564 $233 $561 $565 forward $145 $-1 #
coedge $-1 $233 $564 $566 $567 forward $145 $-1 #
coedge $-1 $372 $371 $233 $365 reversed $373 $-1 #
edge $-1 $568 -5.525783239915306 $569 5.525783239915306 $364 $570 forward 7 unknown #
coedge $-1 $235 $234 $571 $572 forward $92 $-1 #
coedge $-1 $573 $574 $234 $368 reversed $558 $-1 #
edge $-1 $375 -47.398907437360762 $575 47.398907437360762 $367 $576 forward 7 unknown #
coedge $-1 $361 $577 $235 $370 reversed $231 $-1 #
edge $-1 $578 -47.398907437360762 $374 47.398907437360762 $369 $579 forward 7 unknown #
coedge $-1 $364 $236 $577 $580 forward $373 $-1 #
coedge $-1 $236 $364 $573 $581 reversed $373 $-1 #
loop $-1 $-1 $371 $557 #
vertex $-1 $237 $582 #
vertex $-1 $237 $583 #
straight-curve $-1 47.398907437360762 0 1.5160320290512788 0 1 0 I I #
face $-1 $584 $585 $54 $-1 $586 reversed single #
loop $-1 $-1 $587 $238 #
plane-surface $-1 -189.59562974944305 0 0 1 0 0 0 0 -1 forward_v I I I I #
coedge $-1 $588 $388 $589 $590 forward $239 $-1 #
coedge $-1 $591 $241 $588 $592 forward $149 $-1 #
coedge $-1 $241 $591 $593 $594 forward $149 $-1 #
coedge $-1 $391 $390 $241 $384 reversed $392 $-1 #
edge $-1 $595 -4.7559662209448348 $596 4.7559662209448348 $383 $597 forward 7 unknown #
coedge $-1 $243 $242 $598 $599 forward $95 $-1 #
coedge $-1 $600 $601 $242 $387 reversed $585 $-1 #
edge $-1 $394 -189.59562974944305 $602 189.59562974944305 $386 $603 forward 7 unknown #
coedge $-1 $380 $604 $243 $389 reversed $239 $-1 #
edge $-1 $605 -189.59562974944305 $393 189.59562974944305 $388 $606 forward 7 unknown #
coedge $-1 $383 $244 $604 $607 forward $392 $-1 #
coedge $-1 $244 $383 $600 $608 reversed $392 $-1 #
loop $-1 $-1 $390 $584 #
vertex $-1 $245 $609 #
vertex $-1 $245 $610 #
straight-curve $-1 189.59562974944305 0 94.797814874721524 0 1 0 I I #
loop $-1 $-1 $611 $152 #
coedge $-1 $397 $397 $249 $398 reversed $246 $-1 #
edge $-1 $612 0 $612 6.2831853071796004 $397 $613 forward 7 unknown #
vertex $-1 $250 $614 #
ellipse-curve $-1 0 0 -3.7400891140476702 0 0 -1 1 0 0 1 I I #
face $-1 $615 $616 $56 $-1 $617 reversed single #
loop $-1 $-1 $618 $251 #
plane-surface $-1 -189.59562974944305 0 0 1 0 0 0 0 -1 forward_v I I I I #
coedge $-1 $619 $412 $620 $621 forward $252 $-1 #
coedge $-1 $622 $254 $619 $623 forward $158 $-1 #
coedge $-1 $254 $622 $624 $625 forward $158 $-1 #
coedge $-1 $415 $414 $254 $408 reversed $416 $-1 #
edge $-1 $626 -3.4677913664475639 $627 3.4677913664475639 $407 $628 forward 7 unknown #
coedge $-1 $256 $255 $629 $630 forward $101 $-1 #
coedge $-1 $631 $632 $255 $411 reversed $616 $-1 #
edge $-1 $418 -189.59562974944305 $633 189.59562974944305 $410 $634 forward 7 unknown #
coedge $-1 $404 $635 $256 $413 reversed $252 $-1 #
edge $-1 $636 -189.59562974944305 $417 189.59562974944305 $412 $637 forward 7 unknown #
coedge $-1 $407 $257 $635 $638 forward $416 $-1 #
coedge $-1 $257 $407 $631 $639 reversed $416 $-1 #
loop $-1 $-1 $414 $615 #
vertex $-1 $258 $640 #
vertex $-1 $258 $641 #
straight-curve $-1 189.59562974944305 0 94.797814874721524 0 1 0 I I #
loop $-1 $-1 $642 $161 #
coedge $-1 $421 $421 $262 $422 reversed $259 $-1 #
edge $-1 $643 0 $643 6.2831853071796004 $421 $644 forward 7 unknown #
vertex $-1 $263 $645 #
ellipse-curve $-1 0 0 -1.7462614825891905 0 0 -1 0.5 0 0 1 I I #
loop $-1 $-1 $646 $166 #
coedge $-1 $426 $426 $267 $427 reversed $264 $-1 #
edge $-1 $647 0 $647 6.2831853071796004 $426 $648 forward 7 unknown #
vertex $-1 $268 $649 #
ellipse-curve $-1 0 0 -1.7462614825891905 0 0 -1 0.5 0 0 1 I I #
loop $-1 $-1 $650 $171 #
coedge $-1 $431 $431 $272 $432 reversed $269 $-1 #
edge $-1 $651 0 $651 6.2831853071796004 $431 $652 forward 7 unknown #
vertex $-1 $273 $653 #
ellipse-curve $-1 0 0 -1.7462614825891905 0 0 -1 0.5 0 0 1 I I #
face $-1 $654 $655 $60 $-1 $656 reversed single #
loop $-1 $-1 $657 $274 #
plane-surface $-1 -189.59562974944305 0 0 1 0 0 0 0 -1 forward_v I I I I #
coedge $-1 $658 $446 $659 $660 forward $275 $-1 #
coedge $-1 $661 $277 $658 $662 forward $177 $-1 #
coedge $-1 $277 $661 $663 $664 forward $177 $-1 #
coedge $-1 $449 $448 $277 $442 reversed $450 $-1 #
edge $-1 $665 -3.4677913664475639 $666 3.4677913664475639 $441 $667 forward 7 unknown #
coedge $-1 $279 $278 $668 $669 forward $113 $-1 #
coedge $-1 $670 $671 $278 $445 reversed $655 $-1 #
edge $-1 $452 -189.59562974944305 $672 189.59562974944305 $444 $673 forward 7 unknown #
coedge $-1 $438 $674 $279 $447 reversed $275 $-1 #
edge $-1 $675 -189.59562974944305 $451 189.59562974944305 $446 $676 forward 7 unknown #
coedge $-1 $441 $280 $674 $677 forward $450 $-1 #
coedge $-1 $280 $441 $670 $678 reversed $450 $-1 #
loop $-1 $-1 $448 $654 #
vertex $-1 $281 $679 #
vertex $-1 $281 $680 #
straight-curve $-1 189.59562974944305 0 94.797814874721524 0 1 0 I I #
loop $-1 $-1 $681 $180 #
coedge $-1 $455 $455 $285 $456 reversed $282 $-1 #
edge $-1 $682 0 $682 6.2831853071796004 $455 $683 forward 7 unknown #
vertex $-1 $286 $684 #
ellipse-curve $-1 0 0 -1.7462614825891905 0 0 -1 0.5 0 0 1 I I #
loop $-1 $-1 $685 $185 #
coedge $-1 $460 $460 $290 $461 reversed $287 $-1 #
edge $-1 $686 0 $686 6.2831853071796004 $460 $687 forward 7 unknown #
vertex $-1 $291 $688 #
ellipse-curve $-1 0 0 -1.7462614825891905 0 0 -1 0.5 0 0 1 I I #
loop $-1 $-1 $689 $190 #
coedge $-1 $465 $465 $295 $466 reversed $292 $-1 #
edge $-1 $690 0 $690 6.2831853071796004 $465 $691 forward 7 unknown #
vertex $-1 $296 $692 #
ellipse-curve $-1 0 0 -1.7462614825891905 0 0 -1 0.5 0 0 1 I I #
face $-1 $693 $694 $64 $-1 $695 reversed single #
loop $-1 $-1 $696 $297 #
plane-surface $-1 -189.59562974944305 0 0 1 0 0 0 0 -1 forward_v I I I I #
coedge $-1 $697 $480 $698 $699 forward $298 $-1 #
coedge $-1 $700 $300 $697 $701 forward $196 $-1 #
coedge $-1 $300 $700 $702 $703 forward $196 $-1 #
coedge $-1 $483 $482 $300 $476 reversed $484 $-1 #
edge $-1 $704 -3.4677913664475639 $705 3.4677913664475639 $475 $706 forward 7 unknown #
coedge $-1 $302 $301 $707 $708 forward $125 $-1 #
coedge $-1 $709 $710 $301 $479 reversed $694 $-1 #
edge $-1 $486 -189.59562974944305 $711 189.59562974944305 $478 $712 forward 7 unknown #
coedge $-1 $472 $713 $302 $481 reversed $298 $-1 #
edge $-1 $714 -189.59562974944305 $485 189.59562974944305 $480 $715 forward 7 unknown #
coedge $-1 $475 $303 $713 $716 forward $484 $-1 #
coedge $-1 $303 $475 $709 $717 reversed $484 $-1 #
loop $-1 $-1 $482 $693 #
vertex $-1 $304 $718 #
vertex $-1 $304 $719 #
straight-curve $-1 189.59562974944305 0 94.797814874721524 0 1 0 I I #
loop $-1 $-1 $720 $199 #
coedge $-1 $489 $489 $308 $490 reversed $305 $-1 #
edge $-1 $721 0 $721 6.2831853071796004 $489 $722 forward 7 unknown #
vertex $-1 $309 $723 #
ellipse-curve $-1 0 0 -1.7462614825891905 0 0 -1 0.5 0 0 1 I I #
loop $-1 $-1 $724 $204 #
coedge $-1 $494 $494 $313 $495 reversed $310 $-1 #
edge $-1 $725 0 $725 6.2831853071796004 $494 $726 forward 7 unknown #
vertex $-1 $314 $727 #
ellipse-curve $-1 0 0 -1.7462614825891905 0 0 -1 0.5 0 0 1 I I #
loop $-1 $-1 $728 $209 #
coedge $-1 $499 $499 $318 $500 reversed $315 $-1 #
edge $-1 $729 0 $729 6.2831853071796004 $499 $730 forward 7 unknown #
vertex $-1 $319 $731 #
ellipse-curve $-1 0 0 -1.7462614825891905 0 0 -1 0.5 0 0 1 I I #
face $-1 $-1 $335 $51 $-1 $732 reversed single #
loop $-1 $-1 $519 $320 #
plane-surface $-1 0 30.459153857685685 0 0 -1 0 0 0 -1 forward_v I I I I #
coedge $-1 $733 $517 $520 $734 forward $321 $-1 #
coedge $-1 $523 $323 $324 $511 reversed $215 $-1 #
coedge $-1 $517 $733 $323 $509 reversed $321 $-1 #
edge $-1 $524 -12.750140267427241 $735 12.750140267427241 $508 $736 forward 7 unknown #
coedge $-1 $325 $324 $733 $737 forward $137 $-1 #
edge $-1 $515 -47.398907437360762 $735 47.398907437360762 $507 $738 forward 7 unknown #
coedge $-1 $520 $519 $325 $513 reversed $504 $-1 #
edge $-1 $739 -47.398907437360762 $514 47.398907437360762 $512 $740 forward 7 unknown #
vertex $-1 $327 $741 #
vertex $-1 $526 $742 #
straight-curve $-1 47.398907437360762 0 -12.750140267427241 0 -1 0 I I #
coedge $-1 $506 $508 $328 $518 reversed $321 $-1 #
edge $-1 $521 -30.459153857685685 $524 30.459153857685685 $517 $743 forward 7 unknown #
coedge $-1 $512 $329 $334 $527 forward $504 $-1 #
coedge $-1 $329 $512 $506 $734 reversed $504 $-1 #
vertex $-1 $330 $744 #
straight-curve $-1 0 30.459153857685685 12.750140267427241 -1 0 0 I I #
coedge $-1 $331 $507 $333 $526 reversed $215 $-1 #
vertex $-1 $518 $745 #
straight-curve $-1 0 -30.459153857685685 12.750140267427241 1 0 0 I I #
edge $-1 $336 -12.750140267427241 $515 12.750140267427241 $333 $746 forward 7 unknown #
edge $-1 $337 -12.750140267427241 $514 12.750140267427241 $334 $747 forward 7 unknown #
point $-1 47.398907437360762 -30.459153857685685 12.750140267427241 #
point $-1 47.398907437360762 30.459153857685685 12.750140267427241 #
face $-1 $-1 $354 $52 $-1 $748 reversed single #
loop $-1 $-1 $546 $339 #
plane-surface $-1 0 5.525783239915306 0 0 -1 0 0 0 -1 forward_v I I I I #
coedge $-1 $749 $544 $547 $750 forward $340 $-1 #
coedge $-1 $550 $342 $343 $538 reversed $223 $-1 #
coedge $-1 $544 $749 $342 $536 reversed $340 $-1 #
edge $-1 $551 -1.5160320290512788 $751 1.5160320290512788 $535 $752 forward 7 unknown #
coedge $-1 $344 $343 $749 $753 forward $141 $-1 #
edge $-1 $542 -47.398907437360762 $751 47.398907437360762 $534 $754 forward 7 unknown #
coedge $-1 $547 $546 $344 $540 reversed $531 $-1 #
edge $-1 $755 -47.398907437360762 $541 47.398907437360762 $539 $756 forward 7 unknown #
vertex $-1 $346 $757 #
vertex $-1 $553 $758 #
straight-curve $-1 47.398907437360762 0 -1.5160320290512788 0 -1 0 I I #
coedge $-1 $533 $535 $347 $545 reversed $340 $-1 #
edge $-1 $548 -5.525783239915306 $551 5.525783239915306 $544 $759 forward 7 unknown #
coedge $-1 $539 $348 $353 $554 forward $531 $-1 #
coedge $-1 $348 $539 $533 $750 reversed $531 $-1 #
vertex $-1 $349 $760 #
straight-curve $-1 0 5.525783239915306 1.5160320290512788 -1 0 0 I I #
coedge $-1 $350 $534 $352 $553 reversed $223 $-1 #
vertex $-1 $545 $761 #
straight-curve $-1 0 -5.525783239915306 1.5160320290512788 1 0 0 I I #
edge $-1 $355 -1.5160320290512788 $542 1.5160320290512788 $352 $762 forward 7 unknown #
edge $-1 $356 -1.5160320290512788 $541 1.5160320290512788 $353 $763 forward 7 unknown #
point $-1 47.398907437360762 -5.525783239915306 1.5160320290512788 #
point $-1 47.398907437360762 5.525783239915306 1.5160320290512788 #
face $-1 $-1 $373 $53 $-1 $764 reversed single #
loop $-1 $-1 $573 $358 #
plane-surface $-1 0 5.525783239915306 0 0 -1 0 0 0 -1 forward_v I I I I #
coedge $-1 $765 $571 $574 $766 forward $359 $-1 #
coedge $-1 $577 $361 $362 $565 reversed $231 $-1 #
coedge $-1 $571 $765 $361 $563 reversed $359 $-1 #
edge $-1 $578 -1.5160320290512788 $767 1.5160320290512788 $562 $768 forward 7 unknown #
coedge $-1 $363 $362 $765 $769 forward $145 $-1 #
edge $-1 $569 -47.398907437360762 $767 47.398907437360762 $561 $770 forward 7 unknown #
coedge $-1 $574 $573 $363 $567 reversed $558 $-1 #
edge $-1 $771 -47.398907437360762 $568 47.398907437360762 $566 $772 forward 7 unknown #
vertex $-1 $365 $773 #
vertex $-1 $580 $774 #
straight-curve $-1 47.398907437360762 0 -1.5160320290512788 0 -1 0 I I #
coedge $-1 $560 $562 $366 $572 reversed $359 $-1 #
edge $-1 $575 -5.525783239915306 $578 5.525783239915306 $571 $775 forward 7 unknown #
coedge $-1 $566 $367 $372 $581 forward $558 $-1 #
coedge $-1 $367 $566 $560 $766 reversed $558 $-1 #
vertex $-1 $368 $776 #
straight-curve $-1 0 5.525783239915306 1.5160320290512788 -1 0 0 I I #
coedge $-1 $369 $561 $371 $580 reversed $231 $-1 #
vertex $-1 $572 $777 #
straight-curve $-1 0 -5.525783239915306 1.5160320290512788 1 0 0 I I #
edge $-1 $374 -1.5160320290512788 $569 1.5160320290512788 $371 $778 forward 7 unknown #
edge $-1 $375 -1.5160320290512788 $568 1.5160320290512788 $372 $779 forward 7 unknown #
point $-1 47.398907437360762 -5.525783239915306 1.5160320290512788 #
point $-1 47.398907437360762 5.525783239915306 1.5160320290512788 #
face $-1 $-1 $392 $54 $-1 $780 reversed single #
loop $-1 $-1 $600 $377 #
plane-surface $-1 0 4.7559662209448348 0 0 -1 0 0 0 -1 forward_v I I I I #
coedge $-1 $781 $598 $601 $782 forward $378 $-1 #
coedge $-1 $604 $380 $381 $592 reversed $239 $-1 #
coedge $-1 $598 $781 $380 $590 reversed $378 $-1 #
edge $-1 $605 -94.797814874721524 $783 94.797814874721524 $589 $784 forward 7 unknown #
coedge $-1 $382 $381 $781 $785 forward $149 $-1 #
edge $-1 $596 -189.59562974944305 $783 189.59562974944305 $588 $786 forward 7 unknown #
coedge $-1 $601 $600 $382 $594 reversed $585 $-1 #
edge $-1 $787 -189.59562974944305 $595 189.59562974944305 $593 $788 forward 7 unknown #
vertex $-1 $384 $789 #
vertex $-1 $607 $790 #
straight-curve $-1 189.59562974944305 0 -94.797814874721524 0 -1 0 I I #
coedge $-1 $587 $589 $385 $599 reversed $378 $-1 #
edge $-1 $602 -4.7559662209448348 $605 4.7559662209448348 $598 $791 forward 7 unknown #
coedge $-1 $593 $386 $391 $608 forward $585 $-1 #
coedge $-1 $386 $593 $587 $782 reversed $585 $-1 #
vertex $-1 $387 $792 #
straight-curve $-1 0 4.7559662209448348 94.797814874721524 -1 0 0 I I #
coedge $-1 $388 $588 $390 $607 reversed $239 $-1 #
vertex $-1 $599 $793 #
straight-curve $-1 0 -4.7559662209448348 94.797814874721524 1 0 0 I I #
edge $-1 $393 -94.797814874721524 $596 94.797814874721524 $390 $794 forward 7 unknown #
edge $-1 $394 -94.797814874721524 $595 94.797814874721524 $391 $795 forward 7 unknown #
point $-1 189.59562974944305 -4.7559662209448348 94.797814874721524 #
point $-1 189.59562974944305 4.7559662209448348 94.797814874721524 #
coedge $-1 $611 $611 $-1 $796 reversed $396 $-1 #
vertex $-1 $398 $797 #
ellipse-curve $-1 0 0 -0.5 0 0 -1 1 0 0 1 I I #
point $-1 1 0 -3.7400891140476702 #
face $-1 $-1 $416 $56 $-1 $798 reversed single #
loop $-1 $-1 $631 $401 #
plane-surface $-1 0 3.4677913664475639 0 0 -1 0 0 0 -1 forward_v I I I I #
coedge $-1 $799 $629 $632 $800 forward $402 $-1 #
coedge $-1 $635 $404 $405 $623 reversed $252 $-1 #
coedge $-1 $629 $799 $404 $621 reversed $402 $-1 #
edge $-1 $636 -94.797814874721524 $801 94.797814874721524 $620 $802 forward 7 unknown #
coedge $-1 $406 $405 $799 $803 forward $158 $-1 #
edge $-1 $627 -189.59562974944305 $801 189.59562974944305 $619 $804 forward 7 unknown #
coedge $-1 $632 $631 $406 $625 reversed $616 $-1 #
edge $-1 $805 -189.59562974944305 $626 189.59562974944305 $624 $806 forward 7 unknown #
vertex $-1 $408 $807 #
vertex $-1 $638 $808 #
straight-curve $-1 189.59562974944305 0 -94.797814874721524 0 -1 0 I I #
coedge $-1 $618 $620 $409 $630 reversed $402 $-1 #
edge $-1 $633 -3.4677913664475639 $636 3.4677913664475639 $629 $809 forward 7 unknown #
coedge $-1 $624 $410 $415 $639 forward $616 $-1 #
coedge $-1 $410 $624 $618 $800 reversed $616 $-1 #
vertex $-1 $411 $810 #
straight-curve $-1 0 3.4677913664475639 94.797814874721524 -1 0 0 I I #
coedge $-1 $412 $619 $414 $638 reversed $252 $-1 #
vertex $-1 $630 $811 #
straight-curve $-1 0 -3.4677913664475639 94.797814874721524 1 0 0 I I #
edge $-1 $417 -94.797814874721524 $627 94.797814874721524 $414 $812 forward 7 unknown #
edge $-1 $418 -94.797814874721524 $626 94.797814874721524 $415 $813 forward 7 unknown #
point $-1 189.59562974944305 -3.4677913664475639 94.797814874721524 #
point $-1 189.59562974944305 3.4677913664475639 94.797814874721524 #
coedge $-1 $642 $642 $-1 $814 reversed $420 $-1 #
vertex $-1 $422 $815 #
ellipse-curve $-1 0 0 -0.25 0 0 -1 0.5 0 0 1 I I #
point $-1 0.5 0 -1.7462614825891905 #
coedge $-1 $646 $646 $-1 $816 reversed $425 $-1 #
vertex $-1 $427 $817 #
ellipse-curve $-1 0 0 -0.25 0 0 -1 0.5 0 0 1 I I #
point $-1 0.5 0 -1.7462614825891905 #
coedge $-1 $650 $650 $-1 $818 reversed $430 $-1 #
vertex $-1 $432 $819 #
ellipse-curve $-1 0 0 -0.25 0 0 -1 0.5 0 0 1 I I #
point $-1 0.5 0 -1.7462614825891905 #
face $-1 $-1 $450 $60 $-1 $820 reversed single #
loop $-1 $-1 $670 $435 #
plane-surface $-1 0 3.4677913664475639 0 0 -1 0 0 0 -1 forward_v I I I I #
coedge $-1 $821 $668 $671 $822 forward $436 $-1 #
coedge $-1 $674 $438 $439 $662 reversed $275 $-1 #
coedge $-1 $668 $821 $438 $660 reversed $436 $-1 #
edge $-1 $675 -94.797814874721524 $823 94.797814874721524 $659 $824 forward 7 unknown #
coedge $-1 $440 $439 $821 $825 forward $177 $-1 #
edge $-1 $666 -189.59562974944305 $823 189.59562974944305 $658 $826 forward 7 unknown #
coedge $-1 $671 $670 $440 $664 reversed $655 $-1 #
edge $-1 $827 -189.59562974944305 $665 189.59562974944305 $663 $828 forward 7 unknown #
vertex $-1 $442 $829 #
vertex $-1 $677 $830 #
straight-curve $-1 189.59562974944305 0 -94.797814874721524 0 -1 0 I I #
coedge $-1 $657 $659 $443 $669 reversed $436 $-1 #
edge $-1 $672 -3.4677913664475639 $675 3.4677913664475639 $668 $831 forward 7 unknown #
coedge $-1 $663 $444 $449 $678 forward $655 $-1 #
coedge $-1 $444 $663 $657 $822 reversed $655 $-1 #
vertex $-1 $445 $832 #
straight-curve $-1 0 3.4677913664475639 94.797814874721524 -1 0 0 I I #
coedge $-1 $446 $658 $448 $677 reversed $275 $-1 #
vertex $-1 $669 $833 #
straight-curve $-1 0 -3.4677913664475639 94.797814874721524 1 0 0 I I #
edge $-1 $451 -94.797814874721524 $666 94.797814874721524 $448 $834 forward 7 unknown #
edge $-1 $452 -94.797814874721524 $665 94.797814874721524 $449 $835 forward 7 unknown #
point $-1 189.59562974944305 -3.4677913664475639 94.797814874721524 #
point $-1 189.59562974944305 3.4677913664475639 94.797814874721524 #
coedge $-1 $681 $681 $-1 $836 reversed $454 $-1 #
vertex $-1 $456 $837 #
ellipse-curve $-1 0 0 -0.25 0 0 -1 0.5 0 0 1 I I #
point $-1 0.5 0 -1.7462614825891905 #
coedge $-1 $685 $685 $-1 $838 reversed $459 $-1 #
vertex $-1 $461 $839 #
ellipse-curve $-1 0 0 -0.25 0 0 -1 0.5 0 0 1 I I #
point $-1 0.5 0 -1.7462614825891905 #
coedge $-1 $689 $689 $-1 $840 reversed $464 $-1 #
vertex $-1 $466 $841 #
ellipse-curve $-1 0 0 -0.25 0 0 -1 0.5 0 0 1 I I #
point $-1 0.5 0 -1.7462614825891905 #
face $-1 $-1 $484 $64 $-1 $842 reversed single #
loop $-1 $-1 $709 $469 #
plane-surface $-1 0 3.4677913664475639 0 0 -1 0 0 0 -1 forward_v I I I I #
coedge $-1 $843 $707 $710 $844 forward $470 $-1 #
coedge $-1 $713 $472 $473 $701 reversed $298 $-1 #
coedge $-1 $707 $843 $472 $699 reversed $470 $-1 #
edge $-1 $714 -94.797814874721524 $845 94.797814874721524 $698 $846 forward 7 unknown #
coedge $-1 $474 $473 $843 $847 forward $196 $-1 #
edge $-1 $705 -189.59562974944305 $845 189.59562974944305 $697 $848 forward 7 unknown #
coedge $-1 $710 $709 $474 $703 reversed $694 $-1 #
edge $-1 $849 -189.59562974944305 $704 189.59562974944305 $702 $850 forward 7 unknown #
vertex $-1 $476 $851 #
vertex $-1 $716 $852 #
straight-curve $-1 189.59562974944305 0 -94.797814874721524 0 -1 0 I I #
coedge $-1 $696 $698 $477 $708 reversed $470 $-1 #
edge $-1 $711 -3.4677913664475639 $714 3.4677913664475639 $707 $853 forward 7 unknown #
coedge $-1 $702 $478 $483 $717 forward $694 $-1 #
coedge $-1 $478 $702 $696 $844 reversed $694 $-1 #
vertex $-1 $479 $854 #
straight-curve $-1 0 3.4677913664475639 94.797814874721524 -1 0 0 I I #
coedge $-1 $480 $697 $482 $716 reversed $298 $-1 #
vertex $-1 $708 $855 #
straight-curve $-1 0 -3.4677913664475639 94.797814874721524 1 0 0 I I #
edge $-1 $485 -94.797814874721524 $705 94.797814874721524 $482 $856 forward 7 unknown #
edge $-1 $486 -94.797814874721524 $704 94.797814874721524 $483 $857 forward 7 unknown #
point $-1 189.59562974944305 -3.4677913664475639 94.797814874721524 #
point $-1 189.59562974944305 3.4677913664475639 94.797814874721524 #
coedge $-1 $720 $720 $-1 $858 reversed $488 $-1 #
vertex $-1 $490 $859 #
ellipse-curve $-1 0 0 -0.25 0 0 -1 0.5 0 0 1 I I #
point $-1 0.5 0 -1.7462614825891905 #
coedge $-1 $724 $724 $-1 $860 reversed $493 $-1 #
vertex $-1 $495 $861 #
ellipse-curve $-1 0 0 -0.25 0 0 -1 0.5 0 0 1 I I #
point $-1 0.5 0 -1.7462614825891905 #
coedge $-1 $728 $728 $-1 $862 reversed $498 $-1 #
vertex $-1 $500 $863 #
ellipse-curve $-1 0 0 -0.25 0 0 -1 0.5 0 0 1 I I #
point $-1 0.5 0 -1.7462614825891905 #
plane-surface $-1 47.398907437360762 0 0 -1 0 0 0 0 1 forward_v I I I I #
coedge $-1 $508 $506 $510 $737 reversed $321 $-1 #
edge $-1 $521 -12.750140267427241 $739 12.750140267427241 $520 $864 forward 7 unknown #
vertex $-1 $737 $865 #
straight-curve $-1 -47.398907437360762 -30.459153857685685 0 0 0 -1 I I #
edge $-1 $735 -30.459153857685685 $739 30.459153857685685 $733 $866 forward 7 unknown #
straight-curve $-1 0 -30.459153857685685 -12.750140267427241 -1 0 0 I I #
vertex $-1 $513 $867 #
straight-curve $-1 0 30.459153857685685 -12.750140267427241 1 0 0 I I #
point $-1 47.398907437360762 30.459153857685685 -12.750140267427241 #
point $-1 47.398907437360762 -30.459153857685685 -12.750140267427241 #
straight-curve $-1 -47.398907437360762 0 12.750140267427241 0 -1 0 I I #
point $-1 -47.398907437360762 30.459153857685685 12.750140267427241 #
point $-1 -47.398907437360762 -30.459153857685685 12.750140267427241 #
straight-curve $-1 47.398907437360762 -30.459153857685685 0 0 0 -1 I I #
straight-curve $-1 47.398907437360762 30.459153857685685 0 0 0 -1 I I #
plane-surface $-1 47.398907437360762 0 0 -1 0 0 0 0 1 forward_v I I I I #
coedge $-1 $535 $533 $537 $753 reversed $340 $-1 #
edge $-1 $548 -1.5160320290512788 $755 1.5160320290512788 $547 $868 forward 7 unknown #
vertex $-1 $753 $869 #
straight-curve $-1 -47.398907437360762 -5.525783239915306 0 0 0 -1 I I #
edge $-1 $751 -5.525783239915306 $755 5.525783239915306 $749 $870 forward 7 unknown #
straight-curve $-1 0 -5.525783239915306 -1.5160320290512788 -1 0 0 I I #
vertex $-1 $540 $871 #
straight-curve $-1 0 5.525783239915306 -1.5160320290512788 1 0 0 I I #
point $-1 47.398907437360762 5.525783239915306 -1.5160320290512788 #
point $-1 47.398907437360762 -5.525783239915306 -1.5160320290512788 #
straight-curve $-1 -47.398907437360762 0 1.5160320290512788 0 -1 0 I I #
point $-1 -47.398907437360762 5.525783239915306 1.5160320290512788 #
point $-1 -47.398907437360762 -5.525783239915306 1.5160320290512788 #
straight-curve $-1 47.398907437360762 -5.525783239915306 0 0 0 -1 I I #
straight-curve $-1 47.398907437360762 5.525783239915306 0 0 0 -1 I I #
plane-surface $-1 47.398907437360762 0 0 -1 0 0 0 0 1 forward_v I I I I #
coedge $-1 $562 $560 $564 $769 reversed $359 $-1 #
edge $-1 $575 -1.5160320290512788 $771 1.5160320290512788 $574 $872 forward 7 unknown #
vertex $-1 $769 $873 #
straight-curve $-1 -47.398907437360762 -5.525783239915306 0 0 0 -1 I I #
edge $-1 $767 -5.525783239915306 $771 5.525783239915306 $765 $874 forward 7 unknown #
straight-curve $-1 0 -5.525783239915306 -1.5160320290512788 -1 0 0 I I #
vertex $-1 $567 $875 #
straight-curve $-1 0 5.525783239915306 -1.5160320290512788 1 0 0 I I #
point $-1 47.398907437360762 5.525783239915306 -1.5160320290512788 #
point $-1 47.398907437360762 -5.525783239915306 -1.5160320290512788 #
straight-curve $-1 -47.398907437360762 0 1.5160320290512788 0 -1 0 I I #
point $-1 -47.398907437360762 5.525783239915306 1.5160320290512788 #
point $-1 -47.398907437360762 -5.525783239915306 1.5160320290512788 #
straight-curve $-1 47.398907437360762 -5.525783239915306 0 0 0 -1 I I #
straight-curve $-1 47.398907437360762 5.525783239915306 0 0 0 -1 I I #
plane-surface $-1 189.59562974944305 0 0 -1 0 0 0 0 1 forward_v I I I I #
coedge $-1 $589 $587 $591 $785 reversed $378 $-1 #
edge $-1 $602 -94.797814874721524 $787 94.797814874721524 $601 $876 forward 7 unknown #
vertex $-1 $785 $877 #
straight-curve $-1 -189.59562974944305 -4.7559662209448348 0 0 0 -1 I I #
edge $-1 $783 -4.7559662209448348 $787 4.7559662209448348 $781 $878 forward 7 unknown #
straight-curve $-1 0 -4.7559662209448348 -94.797814874721524 -1 0 0 I I #
vertex $-1 $594 $879 #
straight-curve $-1 0 4.7559662209448348 -94.797814874721524 1 0 0 I I #
point $-1 189.59562974944305 4.7559662209448348 -94.797814874721524 #
point $-1 189.59562974944305 -4.7559662209448348 -94.797814874721524 #
straight-curve $-1 -189.59562974944305 0 94.797814874721524 0 -1 0 I I #
point $-1 -189.59562974944305 4.7559662209448348 94.797814874721524 #
point $-1 -189.59562974944305 -4.7559662209448348 94.797814874721524 #
straight-curve $-1 189.59562974944305 -4.7559662209448348 0 0 0 -1 I I #
straight-curve $-1 189.59562974944305 4.7559662209448348 0 0 0 -1 I I #
edge $-1 $880 1 $880 0 $611 $-1 forward 7 unknown #
point $-1 1 0 -0.5 #
plane-surface $-1 189.59562974944305 0 0 -1 0 0 0 0 1 forward_v I I I I #
coedge $-1 $620 $618 $622 $803 reversed $402 $-1 #
edge $-1 $633 -94.797814874721524 $805 94.797814874721524 $632 $881 forward 7 unknown #
vertex $-1 $803 $882 #
straight-curve $-1 -189.59562974944305 -3.4677913664475639 0 0 0 -1 I I #
edge $-1 $801 -3.4677913664475639 $805 3.4677913664475639 $799 $883 forward 7 unknown #
straight-curve $-1 0 -3.4677913664475639 -94.797814874721524 -1 0 0 I I #
vertex $-1 $625 $884 #
straight-curve $-1 0 3.4677913664475639 -94.797814874721524 1 0 0 I I #
point $-1 189.59562974944305 3.4677913664475639 -94.797814874721524 #
point $-1 189.59562974944305 -3.4677913664475639 -94.797814874721524 #
straight-curve $-1 -189.59562974944305 0 94.797814874721524 0 -1 0 I I #
point $-1 -189.59562974944305 3.4677913664475639 94.797814874721524 #
point $-1 -189.59562974944305 -3.4677913664475639 94.797814874721524 #
straight-curve $-1 189.59562974944305 -3.4677913664475639 0 0 0 -1 I I #
straight-curve $-1 189.59562974944305 3.4677913664475639 0 0 0 -1 I I #
edge $-1 $885 1 $885 0 $642 $-1 forward 7 unknown #
point $-1 0.5 0 -0.25 #
edge $-1 $886 1 $886 0 $646 $-1 forward 7 unknown #
point $-1 0.5 0 -0.25 #
edge $-1 $887 1 $887 0 $650 $-1 forward 7 unknown #
point $-1 0.5 0 -0.25 #
plane-surface $-1 189.59562974944305 0 0 -1 0 0 0 0 1 forward_v I I I I #
coedge $-1 $659 $657 $661 $825 reversed $436 $-1 #
edge $-1 $672 -94.797814874721524 $827 94.797814874721524 $671 $888 forward 7 unknown #
vertex $-1 $825 $889 #
straight-curve $-1 -189.59562974944305 -3.4677913664475639 0 0 0 -1 I I #
edge $-1 $823 -3.4677913664475639 $827 3.4677913664475639 $821 $890 forward 7 unknown #
straight-curve $-1 0 -3.4677913664475639 -94.797814874721524 -1 0 0 I I #
vertex $-1 $664 $891 #
straight-curve $-1 0 3.4677913664475639 -94.797814874721524 1 0 0 I I #
point $-1 189.59562974944305 3.4677913664475639 -94.797814874721524 #
point $-1 189.59562974944305 -3.4677913664475639 -94.797814874721524 #
straight-curve $-1 -189.59562974944305 0 94.797814874721524 0 -1 0 I I #
point $-1 -189.59562974944305 3.4677913664475639 94.797814874721524 #
point $-1 -189.59562974944305 -3.4677913664475639 94.797814874721524 #
straight-curve $-1 189.59562974944305 -3.4677913664475639 0 0 0 -1 I I #
straight-curve $-1 189.59562974944305 3.4677913664475639 0 0 0 -1 I I #
edge $-1 $892 1 $892 0 $681 $-1 forward 7 unknown #
point $-1 0.5 0 -0.25 #
edge $-1 $893 1 $893 0 $685 $-1 forward 7 unknown #
point $-1 0.5 0 -0.25 #
edge $-1 $894 1 $894 0 $689 $-1 forward 7 unknown #
point $-1 0.5 0 -0.25 #
plane-surface $-1 189.59562974944305 0 0 -1 0 0 0 0 1 forward_v I I I I #
coedge $-1 $698 $696 $700 $847 reversed $470 $-1 #
edge $-1 $711 -94.797814874721524 $849 94.797814874721524 $710 $895 forward 7 unknown #
vertex $-1 $847 $896 #
straight-curve $-1 -189.59562974944305 -3.4677913664475639 0 0 0 -1 I I #
edge $-1 $845 -3.4677913664475639 $849 3.4677913664475639 $843 $897 forward 7 unknown #
straight-curve $-1 0 -3.4677913664475639 -94.797814874721524 -1 0 0 I I #
vertex $-1 $703 $898 #
straight-curve $-1 0 3.4677913664475639 -94.797814874721524 1 0 0 I I #
point $-1 189.59562974944305 3.4677913664475639 -94.797814874721524 #
point $-1 189.59562974944305 -3.4677913664475639 -94.797814874721524 #
straight-curve $-1 -189.59562974944305 0 94.797814874721524 0 -1 0 I I #
point $-1 -189.59562974944305 3.4677913664475639 94.797814874721524 #
point $-1 -189.59562974944305 -3.4677913664475639 94.797814874721524 #
straight-curve $-1 189.59562974944305 -3.4677913664475639 0 0 0 -1 I I #
straight-curve $-1 189.59562974944305 3.4677913664475639 0 0 0 -1 I I #
edge $-1 $899 1 $899 0 $720 $-1 forward 7 unknown #
point $-1 0.5 0 -0.25 #
edge $-1 $900 1 $900 0 $724 $-1 forward 7 unknown #
point $-1 0.5 0 -0.25 #
edge $-1 $901 1 $901 0 $728 $-1 forward 7 unknown #
point $-1 0.5 0 -0.25 #
straight-curve $-1 -47.398907437360762 30.459153857685685 0 0 0 -1 I I #
point $-1 -47.398907437360762 -30.459153857685685 -12.750140267427241 #
straight-curve $-1 -47.398907437360762 0 -12.750140267427241 0 1 0 I I #
point $-1 -47.398907437360762 30.459153857685685 -12.750140267427241 #
straight-curve $-1 -47.398907437360762 5.525783239915306 0 0 0 -1 I I #
point $-1 -47.398907437360762 -5.525783239915306 -1.5160320290512788 #
straight-curve $-1 -47.398907437360762 0 -1.5160320290512788 0 1 0 I I #
point $-1 -47.398907437360762 5.525783239915306 -1.5160320290512788 #
straight-curve $-1 -47.398907437360762 5.525783239915306 0 0 0 -1 I I #
point $-1 -47.398907437360762 -5.525783239915306 -1.5160320290512788 #
straight-curve $-1 -47.398907437360762 0 -1.5160320290512788 0 1 0 I I #
point $-1 -47.398907437360762 5.525783239915306 -1.5160320290512788 #
straight-curve $-1 -189.59562974944305 4.7559662209448348 0 0 0 -1 I I #
point $-1 -189.59562974944305 -4.7559662209448348 -94.797814874721524 #
straight-curve $-1 -189.59562974944305 0 -94.797814874721524 0 1 0 I I #
point $-1 -189.59562974944305 4.7559662209448348 -94.797814874721524 #
vertex $-1 $796 $902 #
straight-curve $-1 -189.59562974944305 3.4677913664475639 0 0 0 -1 I I #
point $-1 -189.59562974944305 -3.4677913664475639 -94.797814874721524 #
straight-curve $-1 -189.59562974944305 0 -94.797814874721524 0 1 0 I I #
point $-1 -189.59562974944305 3.4677913664475639 -94.797814874721524 #
vertex $-1 $814 $903 #
vertex $-1 $816 $904 #
vertex $-1 $818 $905 #
straight-curve $-1 -189.59562974944305 3.4677913664475639 0 0 0 -1 I I #
point $-1 -189.59562974944305 -3.4677913664475639 -94.797814874721524 #
straight-curve $-1 -189.59562974944305 0 -94.797814874721524 0 1 0 I I #
point $-1 -189.59562974944305 3.4677913664475639 -94.797814874721524 #
vertex $-1 $836 $906 #
vertex $-1 $838 $907 #
vertex $-1 $840 $908 #
straight-curve $-1 -189.59562974944305 3.4677913664475639 0 0 0 -1 I I #
point $-1 -189.59562974944305 -3.4677913664475639 -94.797814874721524 #
straight-curve $-1 -189.59562974944305 0 -94.797814874721524 0 1 0 I I #
point $-1 -189.59562974944305 3.4677913664475639 -94.797814874721524 #
vertex $-1 $858 $909 #
vertex $-1 $860 $910 #
vertex $-1 $862 $911 #
point $-1 0 0 0.5 #
point $-1 0 0 0.25 #
point $-1 0 0 0.25 #
point $-1 0 0 0.25 #
point $-1 0 0 0.25 #
point $-1 0 0 0.25 #
point $-1 0 0 0.25 #
point $-1 0 0 0.25 #
point $-1 0 0 0.25 #
point $-1 0 0 0.25 #
End-of-ACIS-data 