500 0 9 0           
7 Unknown 11 ACIS 5.0 NT 24 Fri Mar 26 15:05:11 1999 
-1 9.9999999999999995e-007 1e-010 
body $-1 $9 $-1 $10 #
body $-1 $11 $-1 $12 #
body $-1 $13 $-1 $14 #
body $-1 $15 $-1 $16 #
body $-1 $17 $-1 $18 #
body $-1 $19 $-1 $20 #
body $-1 $21 $-1 $22 #
body $-1 $23 $-1 $24 #
body $-1 $25 $-1 $26 #
lump $-1 $-1 $27 $0 #
transform $-1 1 0 0 0 1 0 0 0 1 61.546067690054016 37.322270235959358 9.7730199004662754 1 rotate no_reflect no_shear #
lump $-1 $-1 $28 $1 #
transform $-1 1 0 0 0 1 0 0 0 1 61.546067690054016 37.322270235959358 9.7730199004662754 1 rotate no_reflect no_shear #
lump $-1 $-1 $29 $2 #
transform $-1 1 0 0 0 1 0 0 0 1 61.546067690054016 37.322270235959358 9.7730199004662754 1 rotate no_reflect no_shear #
lump $-1 $-1 $30 $3 #
transform $-1 1 0 0 0 1 0 0 0 1 61.546067690054016 37.322270235959358 9.7730199004662754 1 rotate no_reflect no_shear #
lump $-1 $-1 $31 $4 #
transform $-1 1 0 0 0 1 0 0 0 1 61.546067690054016 37.322270235959358 9.7730199004662754 1 rotate no_reflect no_shear #
lump $-1 $-1 $32 $5 #
transform $-1 1 0 0 0 1 0 0 0 1 61.546067690054016 37.322270235959358 9.7730199004662754 1 rotate no_reflect no_shear #
lump $-1 $-1 $33 $6 #
transform $-1 1 0 0 0 1 0 0 0 1 61.546067690054016 37.322270235959358 9.7730199004662754 1 rotate no_reflect no_shear #
lump $-1 $-1 $34 $7 #
transform $-1 1 0 0 0 1 0 0 0 1 61.546067690054016 37.322270235959358 9.7730199004662754 1 rotate no_reflect no_shear #
lump $-1 $-1 $35 $8 #
transform $-1 1 0 0 0 1 0 0 0 1 61.546067690054016 37.322270235959358 9.7730199004662754 1 rotate no_reflect no_shear #
shell $-1 $-1 $-1 $36 $-1 $9 #
shell $-1 $-1 $-1 $37 $-1 $11 #
shell $-1 $-1 $-1 $38 $-1 $13 #
shell $-1 $-1 $-1 $39 $-1 $15 #
shell $-1 $-1 $-1 $40 $-1 $17 #
shell $-1 $-1 $-1 $41 $-1 $19 #
shell $-1 $-1 $-1 $42 $-1 $21 #
shell $-1 $-1 $-1 $43 $-1 $23 #
shell $-1 $-1 $-1 $44 $-1 $25 #
face $-1 $45 $46 $27 $-1 $47 forward single #
face $-1 $48 $49 $28 $-1 $50 reversed single #
face $-1 $51 $52 $29 $-1 $53 reversed single #
face $-1 $54 $55 $30 $-1 $56 reversed single #
face $-1 $57 $58 $31 $-1 $59 forward single #
face $-1 $60 $61 $32 $-1 $62 forward single #
face $-1 $63 $64 $33 $-1 $65 reversed single #
face $-1 $66 $67 $34 $-1 $68 forward single #
face $-1 $69 $70 $35 $-1 $71 forward single #
face $-1 $72 $73 $27 $-1 $74 reversed single #
loop $-1 $-1 $75 $36 #
plane-surface $-1 0 0 9.7730199004662754 0 0 1 1 0 0 forward_v I I I I #
face $-1 $76 $77 $28 $-1 $78 reversed single #
loop $-1 $-1 $79 $37 #
plane-surface $-1 -57.540164486124375 0 4.2878763175470258 0 0 1 1 0 0 forward_v I I I I #
face $-1 $80 $81 $29 $-1 $82 reversed single #
loop $-1 $-1 $83 $38 #
plane-surface $-1 57.540164486124368 0 4.2878763175470258 0 0 1 1 0 0 forward_v I I I I #
face $-1 $84 $85 $30 $-1 $86 reversed single #
loop $-1 $-1 $87 $39 #
plane-surface $-1 -42.038127076678109 -2.2333087832996625 69.940824320869424 0 0.84804810408105047 0.52991925155115449 1 0 0 forward_v I I I I #
face $-1 $88 $89 $31 $-1 $90 forward single #
loop $-1 $91 $92 $40 #
cone-surface $-1 -46.965041736185235 35.795944882470629 7.8640107690878986 0 -0.84804810408105047 -0.52991925155115449 0.5 0 0 1 I I 0 1 0.5 forward I I I I #
face $-1 $93 $94 $32 $-1 $95 forward single #
loop $-1 $96 $97 $41 #
cone-surface $-1 -37.111212417170982 35.795944882470629 7.8640107690878986 0 -0.84804810408105047 -0.52991925155115449 0.5 0 0 1 I I 0 1 0.5 forward I I I I #
face $-1 $98 $99 $33 $-1 $100 reversed single #
loop $-1 $-1 $101 $42 #
plane-surface $-1 47.06397913992123 -37.322270235959365 2.4940720273148571 0 -0.77714596973225614 0.62932038083071107 1 0 0 forward_v I I I I #
face $-1 $102 $103 $34 $-1 $104 forward single #
loop $-1 $105 $106 $43 #
cone-surface $-1 44.291001078946863 -32.546440201065856 4.6527407225618198 0 0.77714596973225614 -0.62932038083071107 1.5 0 0 1 I I 0 1 1.5 forward I I I I #
face $-1 $107 $108 $35 $-1 $109 forward single #
loop $-1 $110 $111 $44 #
cone-surface $-1 49.836957200895583 -32.546440201065856 4.6527407225618198 0 0.77714596973225614 -0.62932038083071107 1.5 0 0 1 I I 0 1 1.5 forward I I I I #
face $-1 $112 $113 $27 $-1 $114 reversed single #
loop $-1 $-1 $115 $45 #
plane-surface $-1 0 0 -9.7730199004662754 0 0 1 1 0 0 forward_v I I I I #
coedge $-1 $116 $117 $118 $119 forward $46 $-1 #
face $-1 $120 $121 $28 $-1 $122 reversed single #
loop $-1 $-1 $123 $48 #
plane-surface $-1 -53.534261282194734 0 7.0304481090066506 -1 0 0 0 0 1 forward_v I I I I #
coedge $-1 $124 $125 $126 $127 forward $49 $-1 #
face $-1 $128 $129 $29 $-1 $130 forward single #
loop $-1 $-1 $131 $51 #
plane-surface $-1 53.534261282194727 0 7.0304481090066506 1 0 0 0 0 -1 forward_v I I I I #
coedge $-1 $132 $133 $134 $135 reversed $52 $-1 #
face $-1 $136 $137 $30 $-1 $138 reversed single #
loop $-1 $-1 $139 $54 #
plane-surface $-1 -30.541992871161483 102.15474325308895 135.16971657332965 -1 0 0 0 0.84804810408105047 0.52991925155115449 forward_v I I I I #
coedge $-1 $140 $141 $142 $143 reversed $55 $-1 #
face $-1 $-1 $144 $31 $-1 $145 forward single #
loop $-1 $146 $147 $57 #
cone-surface $-1 -46.965041736185235 35.036889161149141 7.3897001282261154 0 -0.84804810408105047 -0.52991925155115449 0.25 0 0 1 I I -0.70710678118654746 0.70710678118654746 0.25 forward I I I I #
loop $-1 $-1 $148 $40 #
coedge $-1 $92 $92 $149 $150 reversed $58 $-1 #
face $-1 $-1 $151 $32 $-1 $152 forward single #
loop $-1 $153 $154 $60 #
cone-surface $-1 -37.111212417170982 35.036889161149141 7.3897001282261154 0 -0.84804810408105047 -0.52991925155115449 0.25 0 0 1 I I -0.70710678118654746 0.70710678118654746 0.25 forward I I I I #
loop $-1 $-1 $155 $41 #
coedge $-1 $97 $97 $156 $157 reversed $61 $-1 #
face $-1 $158 $159 $33 $-1 $160 forward single #
loop $-1 $-1 $161 $63 #
plane-surface $-1 40.593696997647726 -132.98282715234757 79.958461541989877 1 0 0 0 0.77714596973225614 -0.62932038083071107 forward_v I I I I #
coedge $-1 $162 $163 $164 $165 reversed $64 $-1 #
face $-1 $-1 $166 $34 $-1 $167 forward single #
loop $-1 $168 $169 $66 #
cone-surface $-1 44.291001078946863 -30.134938492701519 2.6999451956100398 0 0.77714596973225614 -0.62932038083071107 0.75 0 0 1 I I -0.70710678118654757 0.70710678118654757 0.75 forward I I I I #
loop $-1 $-1 $170 $43 #
coedge $-1 $106 $106 $171 $172 reversed $67 $-1 #
face $-1 $-1 $173 $35 $-1 $174 forward single #
loop $-1 $175 $176 $69 #
cone-surface $-1 49.836957200895583 -30.134938492701519 2.6999451956100398 0 0.77714596973225614 -0.62932038083071107 0.75 0 0 1 I I -0.70710678118654757 0.70710678118654757 0.75 forward I I I I #
loop $-1 $-1 $177 $44 #
coedge $-1 $111 $111 $178 $179 reversed $70 $-1 #
face $-1 $180 $181 $27 $-1 $182 reversed single #
loop $-1 $-1 $183 $72 #
plane-surface $-1 0 -37.322270235959358 0 0 1 0 0 0 1 forward_v I I I I #
coedge $-1 $184 $185 $186 $187 forward $73 $-1 #
coedge $-1 $188 $75 $189 $190 forward $46 $-1 #
coedge $-1 $75 $188 $191 $192 forward $46 $-1 #
coedge $-1 $193 $194 $75 $119 reversed $195 $-1 #
edge $-1 $196 -37.322270235959358 $197 37.322270235959358 $118 $198 forward 7 unknown #
face $-1 $199 $200 $28 $-1 $201 reversed single #
loop $-1 $-1 $202 $76 #
plane-surface $-1 0 37.322270235959358 0 0 -1 0 0 0 -1 forward_v I I I I #
coedge $-1 $203 $204 $205 $206 reversed $77 $-1 #
coedge $-1 $207 $79 $208 $209 reversed $49 $-1 #
coedge $-1 $79 $207 $210 $211 reversed $49 $-1 #
coedge $-1 $204 $203 $79 $127 reversed $77 $-1 #
edge $-1 $212 -37.322270235959358 $213 37.322270235959358 $126 $214 forward 7 unknown #
face $-1 $215 $216 $29 $-1 $217 reversed single #
loop $-1 $-1 $218 $80 #
plane-surface $-1 0 0 9.7730199004662754 0 0 1 1 0 0 forward_v I I I I #
coedge $-1 $219 $220 $218 $221 reversed $81 $-1 #
coedge $-1 $222 $83 $223 $224 reversed $52 $-1 #
coedge $-1 $83 $222 $225 $226 reversed $52 $-1 #
coedge $-1 $227 $228 $83 $135 forward $229 $-1 #
edge $-1 $230 -37.322270235959358 $231 37.322270235959358 $134 $232 forward 7 unknown #
face $-1 $233 $234 $30 $-1 $235 forward single #
loop $-1 $-1 $236 $84 #
plane-surface $-1 0 37.322270235959358 0 0 -1 0 0 0 -1 forward_v I I I I #
coedge $-1 $237 $238 $239 $240 reversed $85 $-1 #
coedge $-1 $241 $87 $242 $243 reversed $55 $-1 #
coedge $-1 $87 $241 $237 $244 forward $55 $-1 #
coedge $-1 $239 $245 $87 $143 forward $234 $-1 #
edge $-1 $246 -32.51519774385568 $247 -9.5229293328224287 $142 $248 forward 7 unknown #
loop $-1 $-1 $149 $88 #
plane-surface $-1 -42.038127076678109 -2.2333087832996625 69.940824320869424 0 0.84804810408105047 0.52991925155115449 1 0 0 forward_v I I I I #
loop $-1 $-1 $249 $57 #
coedge $-1 $147 $147 $148 $250 reversed $89 $-1 #
coedge $-1 $148 $148 $147 $250 forward $91 $-1 #
coedge $-1 $149 $149 $92 $150 forward $144 $-1 #
edge $-1 $251 -6.0225946902153439e-015 $251 6.2831853071795942 $149 $252 forward 7 unknown #
loop $-1 $-1 $156 $93 #
plane-surface $-1 -42.038127076678109 -2.2333087832996625 69.940824320869424 0 0.84804810408105047 0.52991925155115449 1 0 0 forward_v I I I I #
loop $-1 $-1 $253 $60 #
coedge $-1 $154 $154 $155 $254 reversed $94 $-1 #
coedge $-1 $155 $155 $154 $254 forward $96 $-1 #
coedge $-1 $156 $156 $97 $157 forward $151 $-1 #
edge $-1 $255 -6.0225946902153439e-015 $255 6.2831853071795942 $156 $256 forward 7 unknown #
face $-1 $257 $258 $33 $-1 $259 reversed single #
loop $-1 $-1 $164 $98 #
plane-surface $-1 0 0 9.7730199004662754 0 0 1 1 0 0 forward_v I I I I #
coedge $-1 $260 $261 $262 $263 reversed $99 $-1 #
coedge $-1 $264 $101 $265 $266 reversed $64 $-1 #
coedge $-1 $101 $264 $260 $267 forward $64 $-1 #
coedge $-1 $262 $268 $101 $165 forward $159 $-1 #
edge $-1 $269 -30.002271712234119 $270 -17.061707427687111 $164 $271 forward 7 unknown #
loop $-1 $-1 $171 $102 #
plane-surface $-1 47.06397913992123 -37.322270235959365 2.4940720273148571 0 -0.77714596973225614 0.62932038083071107 1 0 0 forward_v I I I I #
loop $-1 $-1 $272 $66 #
coedge $-1 $169 $169 $170 $273 reversed $103 $-1 #
coedge $-1 $170 $170 $169 $273 forward $105 $-1 #
coedge $-1 $171 $171 $106 $172 forward $166 $-1 #
edge $-1 $274 2.9810601671002766e-015 $274 6.2831853071796031 $171 $275 forward 7 unknown #
loop $-1 $-1 $178 $107 #
plane-surface $-1 47.06397913992123 -37.322270235959365 2.4940720273148571 0 -0.77714596973225614 0.62932038083071107 1 0 0 forward_v I I I I #
loop $-1 $-1 $276 $69 #
coedge $-1 $176 $176 $177 $277 reversed $108 $-1 #
coedge $-1 $177 $177 $176 $277 forward $110 $-1 #
coedge $-1 $178 $178 $111 $179 forward $173 $-1 #
edge $-1 $278 2.9810601671002766e-015 $278 6.2831853071796031 $178 $279 forward 7 unknown #
face $-1 $280 $281 $27 $-1 $282 reversed single #
loop $-1 $-1 $283 $112 #
plane-surface $-1 -61.546067690054016 0 0 1 0 0 0 0 -1 forward_v I I I I #
coedge $-1 $284 $191 $285 $286 forward $113 $-1 #
coedge $-1 $287 $115 $284 $288 forward $73 $-1 #
coedge $-1 $115 $287 $289 $290 forward $73 $-1 #
coedge $-1 $194 $193 $115 $187 reversed $195 $-1 #
edge $-1 $291 -37.322270235959358 $292 37.322270235959358 $186 $293 forward 7 unknown #
coedge $-1 $117 $116 $294 $295 forward $46 $-1 #
coedge $-1 $296 $297 $116 $190 reversed $281 $-1 #
edge $-1 $197 -61.546067690054016 $298 61.546067690054016 $189 $299 forward 7 unknown #
coedge $-1 $183 $300 $117 $192 reversed $113 $-1 #
edge $-1 $301 -61.546067690054016 $196 61.546067690054016 $191 $302 forward 7 unknown #
coedge $-1 $186 $118 $300 $303 forward $195 $-1 #
coedge $-1 $118 $186 $296 $304 reversed $195 $-1 #
loop $-1 $-1 $193 $280 #
vertex $-1 $119 $305 #
vertex $-1 $119 $306 #
straight-curve $-1 61.546067690054016 0 9.7730199004662754 0 1 0 I I #
face $-1 $307 $308 $28 $-1 $309 forward single #
loop $-1 $-1 $310 $120 #
plane-surface $-1 -61.546067690054016 0 0 1 0 0 0 0 -1 forward_v I I I I #
coedge $-1 $210 $311 $204 $312 forward $121 $-1 #
coedge $-1 $126 $123 $313 $314 reversed $77 $-1 #
coedge $-1 $123 $126 $202 $312 reversed $77 $-1 #
coedge $-1 $315 $316 $123 $206 forward $308 $-1 #
edge $-1 $317 -37.322270235959358 $318 37.322270235959358 $205 $319 forward 7 unknown #
coedge $-1 $125 $124 $310 $320 reversed $49 $-1 #
coedge $-1 $313 $321 $124 $209 forward $322 $-1 #
edge $-1 $323 -32.775985446991825 $213 -24.764179039132546 $208 $324 forward 7 unknown #
coedge $-1 $325 $202 $125 $211 forward $121 $-1 #
edge $-1 $212 24.764179039132546 $326 32.775985446991825 $210 $327 forward 7 unknown #
vertex $-1 $211 $328 #
vertex $-1 $209 $329 #
straight-curve $-1 -53.534261282194734 0 4.2878763175470258 0 -1 0 I I #
face $-1 $330 $331 $29 $-1 $332 reversed single #
loop $-1 $-1 $333 $128 #
plane-surface $-1 0 -37.322270235959358 0 0 1 0 0 0 1 forward_v I I I I #
coedge $-1 $334 $335 $131 $221 forward $129 $-1 #
coedge $-1 $336 $131 $337 $338 reversed $81 $-1 #
coedge $-1 $131 $336 $333 $339 reversed $81 $-1 #
edge $-1 $340 -37.322270235959358 $341 37.322270235959358 $218 $342 forward 7 unknown #
coedge $-1 $133 $132 $336 $343 forward $52 $-1 #
coedge $-1 $344 $333 $132 $224 forward $216 $-1 #
edge $-1 $345 24.764179039132543 $230 32.775985446991825 $223 $346 forward 7 unknown #
coedge $-1 $337 $347 $133 $226 forward $331 $-1 #
edge $-1 $231 -32.775985446991825 $348 -24.764179039132543 $225 $349 forward 7 unknown #
coedge $-1 $350 $134 $347 $351 reversed $229 $-1 #
coedge $-1 $134 $350 $344 $352 forward $229 $-1 #
loop $-1 $-1 $134 $330 #
vertex $-1 $224 $353 #
vertex $-1 $135 $354 #
straight-curve $-1 61.546067690054016 0 4.2878763175470258 0 1 0 I I #
face $-1 $-1 $355 $30 $-1 $356 forward single #
loop $-1 $-1 $239 $136 #
plane-surface $-1 0 0 9.7730199004662754 0 0 1 1 0 0 forward_v I I I I #
coedge $-1 $357 $358 $238 $359 forward $137 $-1 #
coedge $-1 $238 $139 $141 $244 reversed $85 $-1 #
coedge $-1 $139 $237 $236 $359 reversed $85 $-1 #
coedge $-1 $360 $142 $139 $240 forward $234 $-1 #
edge $-1 $247 -15.71366470696011 $361 -13.755101390585118 $239 $362 forward 7 unknown #
coedge $-1 $141 $140 $357 $363 reversed $55 $-1 #
coedge $-1 $364 $365 $140 $243 forward $355 $-1 #
edge $-1 $366 -47.377291175706397 $246 -43.681325591059341 $242 $367 forward 7 unknown #
edge $-1 $368 -74.644540471918702 $247 -70.948574887271647 $237 $369 forward 7 unknown #
coedge $-1 $142 $360 $364 $370 forward $234 $-1 #
vertex $-1 $243 $371 #
vertex $-1 $143 $372 #
straight-curve $-1 -21.019063538339054 35.363706919584374 9.7730199004662737 1 0 0 I I #
coedge $-1 $249 $249 $-1 $373 reversed $146 $-1 #
edge $-1 $374 0 $374 6.2831853071796004 $147 $375 forward 7 unknown #
vertex $-1 $150 $376 #
ellipse-curve $-1 -46.965041736185235 36.342988577771862 8.2058415970618981 0 0.84804810408105047 0.52991925155115449 0.5 0 0 1 I I #
coedge $-1 $253 $253 $-1 $377 reversed $153 $-1 #
edge $-1 $378 0 $378 6.2831853071796004 $154 $379 forward 7 unknown #
vertex $-1 $157 $380 #
ellipse-curve $-1 -37.111212417170982 36.342988577771862 8.2058415970618981 0 0.84804810408105047 0.52991925155115449 0.5 0 0 1 I I #
face $-1 $-1 $381 $33 $-1 $382 forward single #
loop $-1 $-1 $383 $158 #
plane-surface $-1 0 -37.322270235959358 0 0 1 0 0 0 1 forward_v I I I I #
coedge $-1 $261 $161 $163 $267 reversed $99 $-1 #
coedge $-1 $161 $260 $383 $384 reversed $99 $-1 #
coedge $-1 $385 $164 $161 $263 forward $159 $-1 #
edge $-1 $270 -35.063518947871145 $386 -29.169143340214426 $262 $387 forward 7 unknown #
coedge $-1 $163 $162 $388 $389 reversed $64 $-1 #
coedge $-1 $390 $391 $162 $266 forward $381 $-1 #
edge $-1 $392 -13.506545853718608 $269 -4.1402901480380319 $265 $393 forward 7 unknown #
edge $-1 $394 1.1374033043381581e-014 $270 9.3662557056805884 $260 $395 forward 7 unknown #
coedge $-1 $164 $385 $390 $396 forward $159 $-1 #
vertex $-1 $266 $397 #
vertex $-1 $165 $398 #
straight-curve $-1 23.531989569960615 -31.427894628302639 9.7730199004662772 -1 0 0 I I #
coedge $-1 $272 $272 $-1 $399 reversed $168 $-1 #
edge $-1 $400 0 $400 6.2831853071796004 $169 $401 forward 7 unknown #
vertex $-1 $172 $402 #
ellipse-curve $-1 44.291001078946863 -34.375082432131002 6.1335459638905672 0 -0.77714596973225614 0.62932038083071107 1.5 0 0 1 I I #
coedge $-1 $276 $276 $-1 $403 reversed $175 $-1 #
edge $-1 $404 0 $404 6.2831853071796004 $176 $405 forward 7 unknown #
vertex $-1 $179 $406 #
ellipse-curve $-1 49.836957200895583 -34.375082432131002 6.1335459638905672 0 -0.77714596973225614 0.62932038083071107 1.5 0 0 1 I I #
face $-1 $-1 $195 $27 $-1 $407 reversed single #
loop $-1 $-1 $296 $180 #
plane-surface $-1 0 37.322270235959358 0 0 -1 0 0 0 -1 forward_v I I I I #
coedge $-1 $408 $294 $297 $409 forward $181 $-1 #
coedge $-1 $300 $183 $184 $288 reversed $113 $-1 #
coedge $-1 $294 $408 $183 $286 reversed $181 $-1 #
edge $-1 $301 -9.7730199004662754 $410 9.7730199004662754 $285 $411 forward 7 unknown #
coedge $-1 $185 $184 $408 $412 forward $73 $-1 #
edge $-1 $292 -61.546067690054016 $410 61.546067690054016 $284 $413 forward 7 unknown #
coedge $-1 $297 $296 $185 $290 reversed $281 $-1 #
edge $-1 $414 -61.546067690054016 $291 61.546067690054016 $289 $415 forward 7 unknown #
vertex $-1 $187 $416 #
vertex $-1 $303 $417 #
straight-curve $-1 61.546067690054016 0 -9.7730199004662754 0 -1 0 I I #
coedge $-1 $283 $285 $188 $295 reversed $181 $-1 #
edge $-1 $298 -37.322270235959358 $301 37.322270235959358 $294 $418 forward 7 unknown #
coedge $-1 $289 $189 $194 $304 forward $281 $-1 #
coedge $-1 $189 $289 $283 $409 reversed $281 $-1 #
vertex $-1 $190 $419 #
straight-curve $-1 0 37.322270235959358 9.7730199004662754 -1 0 0 I I #
coedge $-1 $191 $284 $193 $303 reversed $113 $-1 #
vertex $-1 $295 $420 #
straight-curve $-1 0 -37.322270235959358 9.7730199004662754 1 0 0 I I #
edge $-1 $196 -9.7730199004662754 $292 9.7730199004662754 $193 $421 forward 7 unknown #
edge $-1 $197 -9.7730199004662754 $291 9.7730199004662754 $194 $422 forward 7 unknown #
point $-1 61.546067690054016 -37.322270235959358 9.7730199004662754 #
point $-1 61.546067690054016 37.322270235959358 9.7730199004662754 #
face $-1 $-1 $322 $28 $-1 $423 reversed single #
loop $-1 $-1 $205 $199 #
plane-surface $-1 0 0 9.7730199004662754 0 0 1 1 0 0 forward_v I I I I #
coedge $-1 $424 $425 $207 $320 forward $200 $-1 #
coedge $-1 $202 $325 $315 $426 reversed $121 $-1 #
edge $-1 $318 -6.2577958459629501 $212 -0.77265226304370049 $202 $427 forward 7 unknown #
coedge $-1 $428 $208 $203 $314 forward $322 $-1 #
edge $-1 $213 0.77265226304370049 $317 6.2577958459629501 $313 $429 forward 7 unknown #
coedge $-1 $430 $205 $311 $426 forward $308 $-1 #
coedge $-1 $205 $430 $428 $431 forward $308 $-1 #
vertex $-1 $314 $432 #
vertex $-1 $426 $433 #
straight-curve $-1 -53.534261282194734 0 9.7730199004662754 0 1 0 I I #
edge $-1 $326 -37.322270235959358 $323 37.322270235959358 $310 $434 forward 7 unknown #
coedge $-1 $208 $428 $424 $435 forward $322 $-1 #
loop $-1 $-1 $313 $307 #
vertex $-1 $320 $436 #
straight-curve $-1 -28.770082243062188 -37.322270235959358 4.2878763175470258 1 0 0 I I #
coedge $-1 $311 $210 $425 $437 reversed $121 $-1 #
vertex $-1 $320 $438 #
straight-curve $-1 -28.770082243062188 37.322270235959358 4.2878763175470258 -1 0 0 I I #
point $-1 -53.534261282194734 37.322270235959358 4.2878763175470258 #
point $-1 -53.534261282194734 -37.322270235959358 4.2878763175470258 #
face $-1 $-1 $229 $29 $-1 $439 reversed single #
loop $-1 $-1 $337 $215 #
plane-surface $-1 0 37.322270235959358 0 0 -1 0 0 0 -1 forward_v I I I I #
coedge $-1 $223 $440 $220 $339 forward $216 $-1 #
coedge $-1 $441 $218 $440 $442 forward $129 $-1 #
coedge $-1 $218 $441 $443 $444 forward $129 $-1 #
coedge $-1 $220 $219 $222 $343 reversed $81 $-1 #
coedge $-1 $443 $225 $219 $338 forward $331 $-1 #
edge $-1 $348 0.77265226304370049 $340 6.2577958459629501 $337 $445 forward 7 unknown #
edge $-1 $341 -6.2577958459629501 $345 -0.77265226304370049 $333 $446 forward 7 unknown #
vertex $-1 $338 $447 #
vertex $-1 $442 $448 #
straight-curve $-1 53.534261282194727 0 9.7730199004662754 0 -1 0 I I #
edge $-1 $345 -37.322270235959358 $348 37.322270235959358 $336 $449 forward 7 unknown #
coedge $-1 $440 $223 $228 $352 reversed $216 $-1 #
vertex $-1 $224 $450 #
straight-curve $-1 28.770082243062184 -37.322270235959358 4.2878763175470258 1 0 0 I I #
coedge $-1 $225 $443 $227 $351 forward $331 $-1 #
vertex $-1 $226 $451 #
straight-curve $-1 28.770082243062184 37.322270235959358 4.2878763175470258 -1 0 0 I I #
coedge $-1 $228 $227 $441 $452 reversed $229 $-1 #
edge $-1 $453 -9.7730199004662754 $231 -4.2878763175470258 $227 $454 forward 7 unknown #
edge $-1 $455 -9.7730199004662754 $230 -4.2878763175470258 $228 $456 forward 7 unknown #
point $-1 61.546067690054009 -37.322270235959358 4.2878763175470258 #
point $-1 61.546067690054009 37.322270235959358 4.2878763175470258 #
loop $-1 $-1 $242 $233 #
plane-surface $-1 -53.534261282194734 0 7.0304481090066506 -1 0 0 0 0 1 forward_v I I I I #
coedge $-1 $457 $236 $241 $363 forward $137 $-1 #
coedge $-1 $236 $457 $360 $458 reversed $137 $-1 #
edge $-1 $361 57.811838386198552 $368 60.946194993007296 $236 $459 forward 7 unknown #
coedge $-1 $245 $239 $358 $458 forward $234 $-1 #
vertex $-1 $458 $460 #
straight-curve $-1 -30.541992871161483 51.077371626544476 9.7730199004662737 0 1 0 I I #
edge $-1 $368 9.5229293328224287 $366 32.51519774385568 $357 $461 forward 7 unknown #
coedge $-1 $365 $242 $245 $370 reversed $355 $-1 #
coedge $-1 $242 $364 $457 $462 reversed $355 $-1 #
vertex $-1 $462 $463 #
straight-curve $-1 -53.534261282194734 12.216131555607911 46.81688525171122 0 -0.52991925155115449 0.84804810408105047 I I #
vertex $-1 $363 $464 #
straight-curve $-1 -30.541992871161483 -2.2333087832996625 69.940824320869424 0 -0.52991925155115449 0.84804810408105047 I I #
edge $-1 $465 -37.322270235959358 $246 -35.363706919584367 $245 $466 forward 7 unknown #
point $-1 -53.534261282194734 35.363706919584367 9.7730199004662737 #
point $-1 -30.541992871161483 35.363706919584367 9.7730199004662737 #
edge $-1 $467 1 $467 0 $249 $-1 forward 7 unknown #
vertex $-1 $250 $468 #
ellipse-curve $-1 -46.965041736185235 35.248901187169402 7.5221799411139036 0 0.84804810408105047 0.52991925155115449 0.5 0 0 1 I I #
point $-1 -46.465041736185235 36.342988577771848 8.2058415970618928 #
edge $-1 $469 1 $469 0 $253 $-1 forward 7 unknown #
vertex $-1 $254 $470 #
ellipse-curve $-1 -37.111212417170982 35.248901187169402 7.5221799411139036 0 0.84804810408105047 0.52991925155115449 0.5 0 0 1 I I #
point $-1 -36.611212417170982 36.342988577771848 8.2058415970618928 #
loop $-1 $-1 $265 $257 #
plane-surface $-1 53.534261282194727 0 7.0304481090066506 1 0 0 0 0 -1 forward_v I I I I #
coedge $-1 $388 $471 $261 $384 forward $258 $-1 #
edge $-1 $386 30.206210870528665 $394 37.485158743680074 $383 $472 forward 7 unknown #
coedge $-1 $268 $262 $471 $473 forward $159 $-1 #
vertex $-1 $473 $474 #
straight-curve $-1 40.593696997647726 -66.491413576173784 9.7730199004662737 0 -1 0 I I #
coedge $-1 $475 $383 $264 $389 forward $258 $-1 #
edge $-1 $394 17.061707427687111 $392 30.002271712234119 $388 $476 forward 7 unknown #
coedge $-1 $391 $265 $268 $396 reversed $381 $-1 #
coedge $-1 $265 $390 $475 $477 reversed $381 $-1 #
vertex $-1 $477 $478 #
straight-curve $-1 53.534261282194727 -28.822325655589701 12.990629702536197 0 0.62932038083071107 0.77714596973225614 I I #
vertex $-1 $389 $479 #
straight-curve $-1 40.593696997647726 -37.322270235959365 2.4940720273148571 0 0.62932038083071107 0.77714596973225614 I I #
edge $-1 $480 -37.322270235959358 $269 -31.427894628302639 $268 $481 forward 7 unknown #
point $-1 53.534261282194734 -31.427894628302639 9.7730199004662754 #
point $-1 40.593696997647726 -31.427894628302639 9.7730199004662754 #
edge $-1 $482 1 $482 0 $272 $-1 forward 7 unknown #
vertex $-1 $273 $483 #
ellipse-curve $-1 44.291001078946863 -30.71779797000071 3.1719354812330729 0 -0.77714596973225614 0.62932038083071107 1.5 0 0 1 I I #
point $-1 45.791001078946863 -34.375082432130995 6.1335459638905672 #
edge $-1 $484 1 $484 0 $276 $-1 forward 7 unknown #
vertex $-1 $277 $485 #
ellipse-curve $-1 49.836957200895583 -30.71779797000071 3.1719354812330729 0 -0.77714596973225614 0.62932038083071107 1.5 0 0 1 I I #
point $-1 51.336957200895583 -34.375082432130995 6.1335459638905672 #
plane-surface $-1 61.546067690054016 0 0 -1 0 0 0 0 1 forward_v I I I I #
coedge $-1 $285 $283 $287 $412 reversed $181 $-1 #
edge $-1 $298 -9.7730199004662754 $414 9.7730199004662754 $297 $486 forward 7 unknown #
vertex $-1 $412 $487 #
straight-curve $-1 -61.546067690054016 -37.322270235959358 0 0 0 -1 I I #
edge $-1 $410 -37.322270235959358 $414 37.322270235959358 $408 $488 forward 7 unknown #
straight-curve $-1 0 -37.322270235959358 -9.7730199004662754 -1 0 0 I I #
vertex $-1 $290 $489 #
straight-curve $-1 0 37.322270235959358 -9.7730199004662754 1 0 0 I I #
point $-1 61.546067690054016 37.322270235959358 -9.7730199004662754 #
point $-1 61.546067690054016 -37.322270235959358 -9.7730199004662754 #
straight-curve $-1 -61.546067690054016 0 9.7730199004662754 0 -1 0 I I #
point $-1 -61.546067690054016 37.322270235959358 9.7730199004662754 #
point $-1 -61.546067690054016 -37.322270235959358 9.7730199004662754 #
straight-curve $-1 61.546067690054016 -37.322270235959358 0 0 0 -1 I I #
straight-curve $-1 61.546067690054016 37.322270235959358 0 0 0 -1 I I #
plane-surface $-1 0 -37.322270235959358 0 0 1 0 0 0 1 forward_v I I I I #
coedge $-1 $490 $310 $321 $435 reversed $200 $-1 #
coedge $-1 $310 $490 $325 $437 forward $200 $-1 #
edge $-1 $318 53.534261282194734 $491 61.546067690054016 $311 $492 forward 7 unknown #
straight-curve $-1 -53.534261282194734 37.322270235959358 3.5152240545033253 0 0 -1 I I #
coedge $-1 $321 $313 $316 $431 reversed $322 $-1 #
straight-curve $-1 -53.534261282194734 -37.322270235959358 3.5152240545033253 0 0 1 I I #
coedge $-1 $316 $315 $490 $493 forward $308 $-1 #
edge $-1 $494 -61.546067690054016 $317 -53.534261282194734 $428 $495 forward 7 unknown #
point $-1 -53.534261282194734 -37.322270235959358 9.7730199004662754 #
point $-1 -53.534261282194734 37.322270235959358 9.7730199004662754 #
straight-curve $-1 -61.546067690054016 0 4.2878763175470258 0 -1 0 I I #
edge $-1 $494 -9.7730199004662754 $323 -4.2878763175470258 $424 $496 forward 7 unknown #
point $-1 -61.546067690054016 -37.322270235959358 4.2878763175470258 #
edge $-1 $491 -9.7730199004662754 $326 -4.2878763175470258 $325 $497 forward 7 unknown #
point $-1 -61.546067690054016 37.322270235959358 4.2878763175470258 #
plane-surface $-1 61.546067690054016 0 0 -1 0 0 0 0 1 forward_v I I I I #
coedge $-1 $333 $344 $334 $442 reversed $216 $-1 #
coedge $-1 $335 $334 $350 $452 forward $129 $-1 #
edge $-1 $341 53.534261282194727 $455 61.546067690054016 $440 $498 forward 7 unknown #
coedge $-1 $347 $337 $335 $444 reversed $331 $-1 #
edge $-1 $453 -61.546067690054016 $340 -53.534261282194727 $443 $499 forward 7 unknown #
straight-curve $-1 53.534261282194727 37.322270235959358 3.5152240545033253 0 0 1 I I #
straight-curve $-1 53.534261282194727 -37.322270235959358 3.5152240545033253 0 0 -1 I I #
point $-1 53.534261282194727 37.322270235959358 9.7730199004662754 #
point $-1 53.534261282194727 -37.322270235959358 9.7730199004662754 #
straight-curve $-1 53.534261282194727 0 4.2878763175470258 0 1 0 I I #
point $-1 53.534261282194727 -37.322270235959358 4.2878763175470258 #
point $-1 53.534261282194727 37.322270235959358 4.2878763175470258 #
edge $-1 $455 -37.322270235959358 $453 37.322270235959358 $350 $500 forward 7 unknown #
vertex $-1 $452 $501 #
straight-curve $-1 61.546067690054016 37.322270235959358 0 0 0 -1 I I #
vertex $-1 $452 $502 #
straight-curve $-1 61.546067690054016 -37.322270235959358 0 0 0 -1 I I #
coedge $-1 $358 $357 $365 $462 forward $137 $-1 #
edge $-1 $361 30.541992871161483 $465 53.534261282194734 $358 $503 forward 7 unknown #
straight-curve $-1 -30.541992871161483 37.322270235959358 67.584858286664826 0 0 -1 I I #
point $-1 -30.541992871161483 37.322270235959358 9.7730199004662754 #
straight-curve $-1 -21.019063538339054 37.322270235959358 6.6386632936575296 -1 0 0 I I #
edge $-1 $366 3.1234392391542043 $465 6.2577958459629501 $457 $504 forward 7 unknown #
point $-1 -53.534261282194734 37.322270235959358 6.6386632936575296 #
point $-1 -30.541992871161483 37.322270235959358 6.6386632936575296 #
vertex $-1 $370 $505 #
straight-curve $-1 -53.534261282194734 0 9.7730199004662754 0 -1 0 I I #
vertex $-1 $373 $506 #
point $-1 -46.465041736185235 35.248901187169402 7.5221799411139036 #
vertex $-1 $377 $507 #
point $-1 -36.611212417170982 35.248901187169402 7.5221799411139036 #
coedge $-1 $383 $475 $385 $473 reversed $258 $-1 #
straight-curve $-1 40.593696997647726 -37.322270235959358 39.979230770994938 0 0 -1 I I #
edge $-1 $386 40.593696997647726 $480 53.534261282194727 $471 $508 forward 7 unknown #
point $-1 40.593696997647726 -37.322270235959358 9.7730199004662754 #
coedge $-1 $471 $388 $391 $477 forward $258 $-1 #
straight-curve $-1 23.531989569960615 -37.322270235959358 2.4940720273148722 1 0 0 I I #
edge $-1 $392 -37.485158743680074 $480 -30.206210870528665 $475 $509 forward 7 unknown #
point $-1 53.534261282194734 -37.322270235959358 2.494072027314866 #
point $-1 40.593696997647726 -37.322270235959358 2.494072027314866 #
vertex $-1 $396 $510 #
straight-curve $-1 53.534261282194727 0 9.7730199004662754 0 1 0 I I #
vertex $-1 $399 $511 #
point $-1 45.791001078946863 -30.71779797000071 3.1719354812330729 #
vertex $-1 $403 $512 #
point $-1 51.336957200895583 -30.71779797000071 3.1719354812330729 #
straight-curve $-1 -61.546067690054016 37.322270235959358 0 0 0 -1 I I #
point $-1 -61.546067690054016 -37.322270235959358 -9.7730199004662754 #
straight-curve $-1 -61.546067690054016 0 -9.7730199004662754 0 1 0 I I #
point $-1 -61.546067690054016 37.322270235959358 -9.7730199004662754 #
coedge $-1 $425 $424 $430 $493 reversed $200 $-1 #
vertex $-1 $426 $513 #
straight-curve $-1 0 37.322270235959358 9.7730199004662754 -1 0 0 I I #
edge $-1 $491 -37.322270235959358 $494 37.322270235959358 $490 $514 forward 7 unknown #
vertex $-1 $493 $515 #
straight-curve $-1 0 -37.322270235959358 9.7730199004662754 1 0 0 I I #
straight-curve $-1 -61.546067690054016 -37.322270235959358 0 0 0 -1 I I #
straight-curve $-1 -61.546067690054016 37.322270235959358 0 0 0 -1 I I #
straight-curve $-1 0 -37.322270235959358 9.7730199004662754 1 0 0 I I #
straight-curve $-1 0 37.322270235959358 9.7730199004662754 -1 0 0 I I #
straight-curve $-1 61.546067690054016 0 9.7730199004662754 0 1 0 I I #
point $-1 61.546067690054016 37.322270235959358 9.7730199004662754 #
point $-1 61.546067690054016 -37.322270235959358 9.7730199004662754 #
straight-curve $-1 0 37.322270235959358 9.7730199004662754 -1 0 0 I I #
straight-curve $-1 -53.534261282194734 37.322270235959358 3.5152240545033253 0 0 1 I I #
point $-1 -53.534261282194734 37.322270235959358 9.7730199004662754 #
point $-1 -46.965041736185235 34.82487713512888 7.2572203153383272 #
point $-1 -37.111212417170982 34.82487713512888 7.2572203153383272 #
straight-curve $-1 0 -37.322270235959358 9.7730199004662754 1 0 0 I I #
straight-curve $-1 53.534261282194734 -37.322270235959358 39.979230770994938 0 0 1 I I #
point $-1 53.534261282194727 -37.322270235959358 9.7730199004662754 #
point $-1 44.291001078946863 -29.552079015402327 2.2279549099870066 #
point $-1 49.836957200895583 -29.552079015402327 2.2279549099870066 #
point $-1 -61.546067690054016 37.322270235959358 9.7730199004662754 #
straight-curve $-1 -61.546067690054016 0 9.7730199004662754 0 -1 0 I I #
point $-1 -61.546067690054016 -37.322270235959358 9.7730199004662754 #
End-of-ACIS-data 