500 0 5 0           
7 Unknown 11 ACIS 5.0 NT 24 Fri Mar 26 20:17:09 1999 
-1 9.9999999999999995e-007 1e-010 
body $-1 $5 $-1 $6 #
body $-1 $7 $-1 $8 #
body $-1 $9 $-1 $10 #
body $-1 $11 $-1 $12 #
body $-1 $13 $-1 $14 #
lump $-1 $-1 $15 $0 #
transform $-1 1 0 0 0 1 0 0 0 1 65.861384929960025 29.200952608538049 5.8848381161070904 1 rotate no_reflect no_shear #
lump $-1 $-1 $16 $1 #
transform $-1 1 0 0 0 1 0 0 0 1 65.861384929960025 29.200952608538049 5.8848381161070904 1 rotate no_reflect no_shear #
lump $-1 $-1 $17 $2 #
transform $-1 1 0 0 0 1 0 0 0 1 65.861384929960025 29.200952608538049 5.8848381161070904 1 rotate no_reflect no_shear #
lump $-1 $-1 $18 $3 #
transform $-1 1 0 0 0 1 0 0 0 1 65.861384929960025 29.200952608538049 5.8848381161070904 1 rotate no_reflect no_shear #
lump $-1 $-1 $19 $4 #
transform $-1 1 0 0 0 1 0 0 0 1 65.861384929960025 29.200952608538049 5.8848381161070904 1 rotate no_reflect no_shear #
shell $-1 $-1 $-1 $20 $-1 $5 #
shell $-1 $-1 $-1 $21 $-1 $7 #
shell $-1 $-1 $-1 $22 $-1 $9 #
shell $-1 $-1 $-1 $23 $-1 $11 #
shell $-1 $-1 $-1 $24 $-1 $13 #
face $-1 $25 $26 $15 $-1 $27 forward single #
face $-1 $28 $29 $16 $-1 $30 reversed single #
face $-1 $31 $32 $17 $-1 $33 reversed single #
face $-1 $34 $35 $18 $-1 $36 forward single #
face $-1 $37 $38 $19 $-1 $39 forward single #
face $-1 $40 $41 $15 $-1 $42 reversed single #
loop $-1 $-1 $43 $20 #
plane-surface $-1 0 0 5.8848381161070904 0 0 1 1 0 0 forward_v I I I I #
face $-1 $44 $45 $16 $-1 $46 reversed single #
loop $-1 $-1 $47 $21 #
plane-surface $-1 -63.050595729753006 -26.200952608538049 0 0 -1 0 0 0 -1 forward_v I I I I #
face $-1 $48 $49 $17 $-1 $50 reversed single #
loop $-1 $-1 $51 $22 #
plane-surface $-1 -60.239806529545987 76.323217583428686 138.10460031033156 1 0 0 0 -0.68199836817093118 -0.7313536940579346 forward_v I I I I #
face $-1 $52 $53 $18 $-1 $54 forward single #
loop $-1 $55 $56 $23 #
cone-surface $-1 -53.95445636679537 25.889355726818874 2.629498414979869 0 -0.68199836817093118 -0.7313536940579346 1 0 0 1 I I 0 1 1 forward I I I I #
face $-1 $57 $58 $19 $-1 $59 forward single #
loop $-1 $60 $61 $24 #
cone-surface $-1 -44.526431122669429 25.889355726818874 2.629498414979869 0 -0.68199836817093118 -0.7313536940579346 1 0 0 1 I I 0 1 1 forward I I I I #
face $-1 $62 $63 $15 $-1 $64 reversed single #
loop $-1 $-1 $65 $25 #
plane-surface $-1 0 0 -5.8848381161070904 0 0 1 1 0 0 forward_v I I I I #
coedge $-1 $66 $67 $68 $69 forward $26 $-1 #
face $-1 $70 $71 $16 $-1 $72 forward single #
loop $-1 $-1 $73 $28 #
plane-surface $-1 -60.239806529545987 -27.700952608538049 0 -1 0 0 0 0 1 forward_v I I I I #
coedge $-1 $74 $75 $76 $77 forward $29 $-1 #
face $-1 $78 $79 $17 $-1 $80 reversed single #
loop $-1 $-1 $81 $31 #
plane-surface $-1 -49.240443744732396 -13.511496511991908 41.768665981735865 0 0.68199836817093118 0.7313536940579346 1 0 0 forward_v I I I I #
coedge $-1 $82 $83 $84 $85 reversed $32 $-1 #
face $-1 $-1 $86 $18 $-1 $87 forward single #
loop $-1 $88 $89 $34 #
cone-surface $-1 -53.95445636679537 24.352637549445898 0.98156996206893865 0 -0.68199836817093118 -0.7313536940579346 0.5 0 0 1 I I -0.70710678118654746 0.70710678118654746 0.5 forward I I I I #
loop $-1 $-1 $90 $23 #
coedge $-1 $56 $56 $91 $92 reversed $35 $-1 #
face $-1 $-1 $93 $19 $-1 $94 forward single #
loop $-1 $95 $96 $37 #
cone-surface $-1 -44.526431122669429 24.352637549445898 0.98156996206893865 0 -0.68199836817093118 -0.7313536940579346 0.5 0 0 1 I I -0.70710678118654746 0.70710678118654746 0.5 forward I I I I #
loop $-1 $-1 $97 $24 #
coedge $-1 $61 $61 $98 $99 reversed $38 $-1 #
face $-1 $100 $101 $15 $-1 $102 reversed single #
loop $-1 $-1 $103 $40 #
plane-surface $-1 0 -29.200952608538049 0 0 1 0 0 0 1 forward_v I I I I #
coedge $-1 $104 $105 $106 $107 forward $41 $-1 #
coedge $-1 $108 $43 $109 $110 forward $26 $-1 #
coedge $-1 $43 $108 $111 $112 forward $26 $-1 #
coedge $-1 $113 $114 $43 $69 reversed $115 $-1 #
edge $-1 $116 -29.200952608538049 $117 29.200952608538049 $68 $118 forward 7 unknown #
face $-1 $119 $120 $16 $-1 $121 reversed single #
loop $-1 $-1 $122 $44 #
plane-surface $-1 0 0 5.8848381161070904 0 0 1 1 0 0 forward_v I I I I #
coedge $-1 $123 $124 $125 $126 reversed $45 $-1 #
coedge $-1 $127 $47 $128 $129 reversed $29 $-1 #
coedge $-1 $47 $127 $130 $131 reversed $29 $-1 #
coedge $-1 $124 $123 $47 $77 reversed $45 $-1 #
edge $-1 $132 -5.8848381161070904 $133 5.8848381161070904 $76 $134 forward 7 unknown #
face $-1 $135 $136 $17 $-1 $137 reversed single #
loop $-1 $-1 $138 $48 #
plane-surface $-1 -38.241080959918804 76.323217583428686 138.10460031033156 -1 0 0 0 0.68199836817093118 0.7313536940579346 forward_v I I I I #
coedge $-1 $139 $140 $141 $142 reversed $49 $-1 #
coedge $-1 $83 $51 $143 $144 reversed $32 $-1 #
coedge $-1 $51 $82 $139 $145 reversed $32 $-1 #
coedge $-1 $141 $146 $51 $85 forward $147 $-1 #
edge $-1 $148 8.9606561831762939 $149 13.192411960039621 $84 $150 forward 7 unknown #
loop $-1 $-1 $91 $52 #
plane-surface $-1 -49.240443744732396 -13.511496511991908 41.768665981735865 0 0.68199836817093118 0.7313536940579346 1 0 0 forward_v I I I I #
loop $-1 $-1 $151 $34 #
coedge $-1 $89 $89 $90 $152 reversed $53 $-1 #
coedge $-1 $90 $90 $89 $152 forward $55 $-1 #
coedge $-1 $91 $91 $56 $92 forward $86 $-1 #
edge $-1 $153 1.8172086986403655e-015 $153 6.2831853071796022 $91 $154 forward 7 unknown #
loop $-1 $-1 $98 $57 #
plane-surface $-1 -49.240443744732396 -13.511496511991908 41.768665981735865 0 0.68199836817093118 0.7313536940579346 1 0 0 forward_v I I I I #
loop $-1 $-1 $155 $37 #
coedge $-1 $96 $96 $97 $156 reversed $58 $-1 #
coedge $-1 $97 $97 $96 $156 forward $60 $-1 #
coedge $-1 $98 $98 $61 $99 forward $93 $-1 #
edge $-1 $157 1.8172086986403655e-015 $157 6.2831853071796022 $98 $158 forward 7 unknown #
face $-1 $159 $160 $15 $-1 $161 reversed single #
loop $-1 $-1 $162 $62 #
plane-surface $-1 -65.861384929960025 0 0 1 0 0 0 0 -1 forward_v I I I I #
coedge $-1 $163 $111 $164 $165 forward $63 $-1 #
coedge $-1 $166 $65 $163 $167 forward $41 $-1 #
coedge $-1 $65 $166 $168 $169 forward $41 $-1 #
coedge $-1 $114 $113 $65 $107 reversed $115 $-1 #
edge $-1 $170 -29.200952608538049 $171 29.200952608538049 $106 $172 forward 7 unknown #
coedge $-1 $67 $66 $173 $174 forward $26 $-1 #
coedge $-1 $175 $176 $66 $110 reversed $160 $-1 #
edge $-1 $117 -65.861384929960025 $177 65.861384929960025 $109 $178 forward 7 unknown #
coedge $-1 $103 $179 $67 $112 reversed $63 $-1 #
edge $-1 $180 -65.861384929960025 $116 65.861384929960025 $111 $181 forward 7 unknown #
coedge $-1 $106 $68 $179 $182 forward $115 $-1 #
coedge $-1 $68 $106 $175 $183 reversed $115 $-1 #
loop $-1 $-1 $113 $159 #
vertex $-1 $69 $184 #
vertex $-1 $69 $185 #
straight-curve $-1 65.861384929960025 0 5.8848381161070904 0 1 0 I I #
face $-1 $186 $187 $16 $-1 $188 reversed single #
loop $-1 $-1 $189 $70 #
plane-surface $-1 -65.861384929960025 0 0 1 0 0 0 0 -1 forward_v I I I I #
coedge $-1 $130 $190 $124 $191 forward $71 $-1 #
coedge $-1 $76 $73 $192 $193 reversed $45 $-1 #
coedge $-1 $73 $76 $122 $191 reversed $45 $-1 #
coedge $-1 $194 $195 $73 $126 forward $196 $-1 #
edge $-1 $197 -5.8848381161070904 $198 5.8848381161070904 $125 $199 forward 7 unknown #
coedge $-1 $75 $74 $189 $200 reversed $29 $-1 #
coedge $-1 $192 $201 $74 $129 forward $187 $-1 #
edge $-1 $202 -34.336087065083518 $133 -28.714508664669484 $128 $203 forward 7 unknown #
coedge $-1 $204 $122 $75 $131 forward $71 $-1 #
edge $-1 $132 28.714508664669484 $205 34.336087065083518 $130 $206 forward 7 unknown #
vertex $-1 $131 $207 #
vertex $-1 $129 $208 #
straight-curve $-1 -60.239806529545987 -26.200952608538049 0 0 0 -1 I I #
face $-1 $-1 $147 $17 $-1 $209 forward single #
loop $-1 $-1 $210 $78 #
plane-surface $-1 0 29.200952608538049 0 0 -1 0 0 0 -1 forward_v I I I I #
coedge $-1 $211 $212 $213 $214 reversed $79 $-1 #
coedge $-1 $215 $81 $83 $145 forward $49 $-1 #
coedge $-1 $81 $215 $211 $216 forward $49 $-1 #
coedge $-1 $213 $84 $81 $142 forward $147 $-1 #
edge $-1 $149 -35.619584657179786 $217 -13.620859087552606 $141 $218 forward 7 unknown #
coedge $-1 $219 $220 $82 $144 forward $136 $-1 #
edge $-1 $221 -67.113638229549196 $148 -63.167462039058691 $143 $222 forward 7 unknown #
edge $-1 $149 52.615709274886576 $221 58.401905217076077 $83 $223 forward 7 unknown #
coedge $-1 $84 $213 $219 $224 forward $147 $-1 #
loop $-1 $-1 $213 $135 #
vertex $-1 $144 $225 #
vertex $-1 $85 $226 #
straight-curve $-1 -60.239806529545987 38.161608791714343 5.8848381161070904 0 -1 0 I I #
coedge $-1 $151 $151 $-1 $227 reversed $88 $-1 #
edge $-1 $228 0 $228 6.2831853071796004 $89 $229 forward 7 unknown #
vertex $-1 $92 $230 #
ellipse-curve $-1 -53.95445636679537 27.085074720106384 3.9117500208618345 0 0.68199836817093118 0.7313536940579346 1 0 0 1 I I #
coedge $-1 $155 $155 $-1 $231 reversed $95 $-1 #
edge $-1 $232 0 $232 6.2831853071796004 $96 $233 forward 7 unknown #
vertex $-1 $99 $234 #
ellipse-curve $-1 -44.526431122669429 27.085074720106384 3.9117500208618345 0 0.68199836817093118 0.7313536940579346 1 0 0 1 I I #
face $-1 $-1 $115 $15 $-1 $235 reversed single #
loop $-1 $-1 $175 $100 #
plane-surface $-1 0 29.200952608538049 0 0 -1 0 0 0 -1 forward_v I I I I #
coedge $-1 $236 $173 $176 $237 forward $101 $-1 #
coedge $-1 $179 $103 $104 $167 reversed $63 $-1 #
coedge $-1 $173 $236 $103 $165 reversed $101 $-1 #
edge $-1 $180 -5.8848381161070904 $238 5.8848381161070904 $164 $239 forward 7 unknown #
coedge $-1 $105 $104 $236 $240 forward $41 $-1 #
edge $-1 $171 -65.861384929960025 $238 65.861384929960025 $163 $241 forward 7 unknown #
coedge $-1 $176 $175 $105 $169 reversed $160 $-1 #
edge $-1 $242 -65.861384929960025 $170 65.861384929960025 $168 $243 forward 7 unknown #
vertex $-1 $107 $244 #
vertex $-1 $182 $245 #
straight-curve $-1 65.861384929960025 0 -5.8848381161070904 0 -1 0 I I #
coedge $-1 $162 $164 $108 $174 reversed $101 $-1 #
edge $-1 $177 -29.200952608538049 $180 29.200952608538049 $173 $246 forward 7 unknown #
coedge $-1 $168 $109 $114 $183 forward $160 $-1 #
coedge $-1 $109 $168 $162 $237 reversed $160 $-1 #
vertex $-1 $110 $247 #
straight-curve $-1 0 29.200952608538049 5.8848381161070904 -1 0 0 I I #
coedge $-1 $111 $163 $113 $182 reversed $63 $-1 #
vertex $-1 $174 $248 #
straight-curve $-1 0 -29.200952608538049 5.8848381161070904 1 0 0 I I #
edge $-1 $116 -5.8848381161070904 $171 5.8848381161070904 $113 $249 forward 7 unknown #
edge $-1 $117 -5.8848381161070904 $170 5.8848381161070904 $114 $250 forward 7 unknown #
point $-1 65.861384929960025 -29.200952608538049 5.8848381161070904 #
point $-1 65.861384929960025 29.200952608538049 5.8848381161070904 #
face $-1 $-1 $196 $16 $-1 $251 reversed single #
loop $-1 $-1 $192 $119 #
plane-surface $-1 0 0 -5.8848381161070904 0 0 1 1 0 0 forward_v I I I I #
coedge $-1 $252 $253 $127 $200 forward $120 $-1 #
coedge $-1 $122 $204 $194 $254 forward $71 $-1 #
edge $-1 $198 -15.350476304269025 $132 -12.350476304269025 $122 $255 forward 7 unknown #
coedge $-1 $256 $128 $123 $193 forward $187 $-1 #
edge $-1 $133 12.350476304269025 $197 15.350476304269025 $192 $257 forward 7 unknown #
coedge $-1 $258 $125 $190 $254 reversed $196 $-1 #
coedge $-1 $125 $258 $256 $259 reversed $196 $-1 #
loop $-1 $-1 $125 $186 #
vertex $-1 $259 $260 #
vertex $-1 $126 $261 #
straight-curve $-1 -60.239806529545987 -29.200952608538049 0 0 0 1 I I #
edge $-1 $205 -5.8848381161070904 $202 5.8848381161070904 $189 $262 forward 7 unknown #
coedge $-1 $128 $256 $252 $263 forward $187 $-1 #
vertex $-1 $129 $264 #
straight-curve $-1 -31.525297864876503 -26.200952608538049 -5.8848381161070904 1 0 0 I I #
coedge $-1 $190 $130 $253 $265 forward $71 $-1 #
vertex $-1 $265 $266 #
straight-curve $-1 -31.525297864876503 -26.200952608538049 5.8848381161070904 -1 0 0 I I #
point $-1 -60.239806529545987 -26.200952608538049 5.8848381161070904 #
point $-1 -60.239806529545987 -26.200952608538049 -5.8848381161070904 #
plane-surface $-1 0 0 5.8848381161070904 0 0 1 1 0 0 forward_v I I I I #
coedge $-1 $220 $219 $212 $267 forward $136 $-1 #
coedge $-1 $212 $138 $140 $216 reversed $79 $-1 #
coedge $-1 $138 $211 $210 $267 reversed $79 $-1 #
coedge $-1 $146 $141 $138 $214 forward $147 $-1 #
edge $-1 $217 -13.192411960039621 $268 -8.9606561831762939 $213 $269 forward 7 unknown #
coedge $-1 $140 $139 $220 $270 reversed $49 $-1 #
edge $-1 $271 -58.401905217076077 $217 -52.615709274886576 $211 $272 forward 7 unknown #
vertex $-1 $142 $273 #
straight-curve $-1 -24.620221872366198 24.969196831674726 5.8848381161070904 1 0 0 I I #
coedge $-1 $210 $143 $146 $224 reversed $136 $-1 #
coedge $-1 $143 $210 $215 $270 forward $136 $-1 #
vertex $-1 $144 $274 #
straight-curve $-1 -60.239806529545987 29.200952608538049 69.052300155165781 0 0 1 I I #
straight-curve $-1 -60.239806529545987 -13.511496511991908 41.768665981735865 0 0.7313536940579346 -0.68199836817093118 I I #
edge $-1 $268 38.241080959918804 $148 60.239806529545987 $219 $275 forward 7 unknown #
point $-1 -60.239806529545987 29.200952608538049 5.8848381161070904 #
point $-1 -60.239806529545987 24.969196831674722 5.8848381161070904 #
edge $-1 $276 1 $276 0 $151 $-1 forward 7 unknown #
vertex $-1 $152 $277 #
ellipse-curve $-1 -53.95445636679537 24.693636733531363 1.347246809097906 0 0.68199836817093118 0.7313536940579346 1 0 0 1 I I #
point $-1 -52.95445636679537 27.085074720106384 3.9117500208618319 #
edge $-1 $278 1 $278 0 $155 $-1 forward 7 unknown #
vertex $-1 $156 $279 #
ellipse-curve $-1 -44.526431122669429 24.693636733531363 1.347246809097906 0 0.68199836817093118 0.7313536940579346 1 0 0 1 I I #
point $-1 -43.526431122669429 27.085074720106384 3.9117500208618319 #
plane-surface $-1 65.861384929960025 0 0 -1 0 0 0 0 1 forward_v I I I I #
coedge $-1 $164 $162 $166 $240 reversed $101 $-1 #
edge $-1 $177 -5.8848381161070904 $242 5.8848381161070904 $176 $280 forward 7 unknown #
vertex $-1 $240 $281 #
straight-curve $-1 -65.861384929960025 -29.200952608538049 0 0 0 -1 I I #
edge $-1 $238 -29.200952608538049 $242 29.200952608538049 $236 $282 forward 7 unknown #
straight-curve $-1 0 -29.200952608538049 -5.8848381161070904 -1 0 0 I I #
vertex $-1 $169 $283 #
straight-curve $-1 0 29.200952608538049 -5.8848381161070904 1 0 0 I I #
point $-1 65.861384929960025 29.200952608538049 -5.8848381161070904 #
point $-1 65.861384929960025 -29.200952608538049 -5.8848381161070904 #
straight-curve $-1 -65.861384929960025 0 5.8848381161070904 0 -1 0 I I #
point $-1 -65.861384929960025 29.200952608538049 5.8848381161070904 #
point $-1 -65.861384929960025 -29.200952608538049 5.8848381161070904 #
straight-curve $-1 65.861384929960025 -29.200952608538049 0 0 0 -1 I I #
straight-curve $-1 65.861384929960025 29.200952608538049 0 0 0 -1 I I #
plane-surface $-1 0 -29.200952608538049 0 0 1 0 0 0 1 forward_v I I I I #
coedge $-1 $284 $189 $201 $263 reversed $120 $-1 #
coedge $-1 $189 $284 $204 $265 reversed $120 $-1 #
edge $-1 $285 -65.861384929960025 $198 -60.239806529545987 $194 $286 forward 7 unknown #
straight-curve $-1 -60.239806529545987 -13.850476304269025 5.8848381161070904 0 1 0 I I #
coedge $-1 $201 $192 $195 $259 forward $187 $-1 #
straight-curve $-1 -60.239806529545987 -13.850476304269025 -5.8848381161070904 0 -1 0 I I #
coedge $-1 $195 $194 $284 $287 forward $196 $-1 #
edge $-1 $197 60.239806529545987 $288 65.861384929960025 $195 $289 forward 7 unknown #
point $-1 -60.239806529545987 -29.200952608538049 -5.8848381161070904 #
point $-1 -60.239806529545987 -29.200952608538049 5.8848381161070904 #
straight-curve $-1 -65.861384929960025 -26.200952608538049 0 0 0 -1 I I #
edge $-1 $288 -29.200952608538049 $202 -26.200952608538049 $252 $290 forward 7 unknown #
point $-1 -65.861384929960025 -26.200952608538049 -5.8848381161070904 #
edge $-1 $205 26.200952608538049 $285 29.200952608538049 $253 $291 forward 7 unknown #
point $-1 -65.861384929960025 -26.200952608538049 5.8848381161070904 #
edge $-1 $268 63.167462039058691 $271 67.113638229549196 $210 $292 forward 7 unknown #
vertex $-1 $224 $293 #
straight-curve $-1 -38.241080959918804 38.161608791714343 5.8848381161070904 0 1 0 I I #
edge $-1 $271 13.620859087552606 $221 35.619584657179786 $220 $294 forward 7 unknown #
vertex $-1 $270 $295 #
straight-curve $-1 -38.241080959918804 -13.511496511991908 41.768665981735865 0 -0.7313536940579346 0.68199836817093118 I I #
point $-1 -38.241080959918804 24.969196831674722 5.8848381161070904 #
point $-1 -60.239806529545987 29.200952608538046 1.9386619256165858 #
straight-curve $-1 0 29.200952608538049 5.8848381161070904 -1 0 0 I I #
vertex $-1 $227 $296 #
point $-1 -52.95445636679537 24.693636733531363 1.347246809097906 #
vertex $-1 $231 $297 #
point $-1 -43.526431122669429 24.693636733531363 1.347246809097906 #
straight-curve $-1 -65.861384929960025 29.200952608538049 0 0 0 -1 I I #
point $-1 -65.861384929960025 -29.200952608538049 -5.8848381161070904 #
straight-curve $-1 -65.861384929960025 0 -5.8848381161070904 0 1 0 I I #
point $-1 -65.861384929960025 29.200952608538049 -5.8848381161070904 #
coedge $-1 $253 $252 $258 $287 reversed $120 $-1 #
vertex $-1 $265 $298 #
straight-curve $-1 0 -29.200952608538049 5.8848381161070904 1 0 0 I I #
edge $-1 $285 -5.8848381161070904 $288 5.8848381161070904 $284 $299 forward 7 unknown #
vertex $-1 $263 $300 #
straight-curve $-1 0 -29.200952608538049 -5.8848381161070904 -1 0 0 I I #
straight-curve $-1 -65.861384929960025 0 -5.8848381161070904 0 1 0 I I #
straight-curve $-1 -65.861384929960025 0 5.8848381161070904 0 -1 0 I I #
straight-curve $-1 -38.241080959918804 29.200952608538049 69.052300155165781 0 0 -1 I I #
point $-1 -38.241080959918804 29.200952608538049 5.8848381161070904 #
straight-curve $-1 -24.620221872366198 29.200952608538046 1.9386619256165858 -1 0 0 I I #
point $-1 -38.241080959918804 29.200952608538046 1.9386619256165858 #
point $-1 -53.95445636679537 24.011638365360433 0.61589311503997135 #
point $-1 -44.526431122669429 24.011638365360433 0.61589311503997135 #
point $-1 -65.861384929960025 -29.200952608538049 5.8848381161070904 #
straight-curve $-1 -65.861384929960025 -29.200952608538049 0 0 0 -1 I I #
point $-1 -65.861384929960025 -29.200952608538049 -5.8848381161070904 #
End-of-ACIS-data 