500 0 6 0           
7 Unknown 11 ACIS 5.0 NT 24 Thu Mar 25 22:49:13 1999 
-1 9.9999999999999995e-007 1e-010 
body $-1 $6 $-1 $7 #
body $-1 $8 $-1 $9 #
body $-1 $10 $-1 $11 #
body $-1 $12 $-1 $13 #
body $-1 $14 $-1 $15 #
body $-1 $16 $-1 $17 #
lump $-1 $-1 $18 $0 #
transform $-1 1 0 0 0 1 0 0 0 1 53.806573686941128 33.86002836465731 7.3427290734808031 1 rotate no_reflect no_shear #
lump $-1 $-1 $19 $1 #
transform $-1 1 0 0 0 1 0 0 0 1 53.806573686941128 33.86002836465731 7.3427290734808031 1 rotate no_reflect no_shear #
lump $-1 $-1 $20 $2 #
transform $-1 1 0 0 0 1 0 0 0 1 53.806573686941128 33.86002836465731 7.3427290734808031 1 rotate no_reflect no_shear #
lump $-1 $-1 $21 $3 #
transform $-1 1 0 0 0 1 0 0 0 1 53.806573686941128 33.86002836465731 7.3427290734808031 1 rotate no_reflect no_shear #
lump $-1 $-1 $22 $4 #
transform $-1 1 0 0 0 1 0 0 0 1 53.806573686941128 33.86002836465731 7.3427290734808031 1 rotate no_reflect no_shear #
lump $-1 $-1 $23 $5 #
transform $-1 1 0 0 0 1 0 0 0 1 53.806573686941128 33.86002836465731 7.3427290734808031 1 rotate no_reflect no_shear #
shell $-1 $-1 $-1 $24 $-1 $6 #
shell $-1 $-1 $-1 $25 $-1 $8 #
shell $-1 $-1 $-1 $26 $-1 $10 #
shell $-1 $-1 $-1 $27 $-1 $12 #
shell $-1 $-1 $-1 $28 $-1 $14 #
shell $-1 $-1 $-1 $29 $-1 $16 #
face $-1 $30 $31 $18 $-1 $32 forward single #
face $-1 $33 $34 $19 $-1 $35 forward single #
face $-1 $36 $37 $20 $-1 $38 reversed single #
face $-1 $39 $40 $21 $-1 $41 forward single #
face $-1 $42 $43 $22 $-1 $44 reversed single #
face $-1 $45 $46 $23 $-1 $47 forward single #
face $-1 $48 $49 $18 $-1 $50 reversed single #
loop $-1 $-1 $51 $24 #
plane-surface $-1 0 0 7.3427290734808031 0 0 1 1 0 0 forward_v I I I I #
face $-1 $52 $53 $19 $-1 $54 reversed single #
loop $-1 $-1 $55 $25 #
plane-surface $-1 0 -33.86002836465731 0 0 1 0 0 0 1 forward_v I I I I #
face $-1 $56 $57 $20 $-1 $58 reversed single #
loop $-1 $-1 $59 $26 #
plane-surface $-1 14.417429103969376 -15.387173429077153 148.65246948105644 0 -1 0 -0.50000000669873634 0 -0.8660253999169214 forward_v I I I I #
face $-1 $60 $61 $21 $-1 $62 forward single #
loop $-1 $63 $64 $27 #
cone-surface $-1 48.216086051864053 -21.380549150879645 3.3522733093714421 -0.50000000669873634 0 -0.8660253999169214 2.1650634997923035 0 -1.2500000167468408 1 I I 0 1 2.5 forward I I I I #
face $-1 $65 $66 $22 $-1 $67 reversed single #
loop $-1 $-1 $68 $28 #
plane-surface $-1 14.417429103969376 15.229803189592571 148.65246948105644 0 -1 0 -0.50000000669873634 0 -0.8660253999169214 forward_v I I I I #
face $-1 $69 $70 $23 $-1 $71 forward single #
loop $-1 $72 $73 $29 #
cone-surface $-1 48.216086051864053 9.2364274677900795 3.3522733093714421 -0.50000000669873634 0 -0.8660253999169214 2.1650634997923035 0 -1.2500000167468408 1 I I 0 1 2.5 forward I I I I #
face $-1 $74 $75 $18 $-1 $76 reversed single #
loop $-1 $-1 $77 $30 #
plane-surface $-1 0 0 -7.3427290734808031 0 0 1 1 0 0 forward_v I I I I #
coedge $-1 $78 $79 $80 $81 forward $31 $-1 #
face $-1 $82 $83 $19 $-1 $84 forward single #
loop $-1 $-1 $85 $33 #
plane-surface $-1 -53.806573686941128 0 0 1 0 0 0 0 -1 forward_v I I I I #
coedge $-1 $86 $87 $88 $89 forward $34 $-1 #
face $-1 $90 $91 $20 $-1 $92 reversed single #
loop $-1 $-1 $93 $36 #
plane-surface $-1 -39.389145303843854 -21.380549150879645 55.45675049027146 0.50000000669873634 0 0.8660253999169214 0.8660253999169214 0 -0.50000000669873634 forward_v I I I I #
coedge $-1 $94 $95 $96 $97 reversed $37 $-1 #
face $-1 $-1 $98 $21 $-1 $99 forward single #
loop $-1 $100 $101 $39 #
cone-surface $-1 46.930493822963989 -21.380549150879645 1.1255622908772063 -0.50000000669873634 0 -0.8660253999169214 1.0825317498961518 0 -0.6250000083734204 1 I I -0.70710678118654746 0.70710678118654746 1.25 forward I I I I #
loop $-1 $-1 $102 $27 #
coedge $-1 $64 $64 $103 $104 reversed $40 $-1 #
face $-1 $105 $106 $22 $-1 $107 reversed single #
loop $-1 $-1 $108 $42 #
plane-surface $-1 -39.389145303843854 9.2364274677900795 55.45675049027146 0.50000000669873634 0 0.8660253999169214 0.8660253999169214 0 -0.50000000669873634 forward_v I I I I #
coedge $-1 $109 $110 $111 $112 reversed $43 $-1 #
face $-1 $-1 $113 $23 $-1 $114 forward single #
loop $-1 $115 $116 $45 #
cone-surface $-1 46.930493822963989 9.2364274677900795 1.1255622908772063 -0.50000000669873634 0 -0.8660253999169214 1.0825317498961518 0 -0.6250000083734204 1 I I -0.70710678118654746 0.70710678118654746 1.25 forward I I I I #
loop $-1 $-1 $117 $29 #
coedge $-1 $73 $73 $118 $119 reversed $46 $-1 #
face $-1 $120 $121 $18 $-1 $122 reversed single #
loop $-1 $-1 $123 $48 #
plane-surface $-1 0 -33.86002836465731 0 0 1 0 0 0 1 forward_v I I I I #
coedge $-1 $124 $125 $126 $127 forward $49 $-1 #
coedge $-1 $128 $51 $129 $130 forward $31 $-1 #
coedge $-1 $51 $128 $131 $132 forward $31 $-1 #
coedge $-1 $133 $134 $51 $81 reversed $135 $-1 #
edge $-1 $136 -33.86002836465731 $137 33.86002836465731 $80 $138 forward 7 unknown #
face $-1 $139 $140 $19 $-1 $141 reversed single #
loop $-1 $-1 $142 $52 #
plane-surface $-1 0 -37.103080110644896 2.7692903730893228 0 0 1 1 0 0 forward_v I I I I #
coedge $-1 $143 $144 $87 $145 forward $53 $-1 #
coedge $-1 $146 $55 $147 $148 reversed $34 $-1 #
coedge $-1 $55 $146 $85 $145 reversed $34 $-1 #
coedge $-1 $149 $142 $55 $89 reversed $83 $-1 #
edge $-1 $150 -53.806573686941128 $151 53.806573686941128 $88 $152 forward 7 unknown #
face $-1 $153 $154 $20 $-1 $155 reversed single #
loop $-1 $-1 $156 $56 #
plane-surface $-1 14.417429103969376 -27.373924872682139 148.65246948105644 0 1 0 0.50000000669873634 0 0.8660253999169214 forward_v I I I I #
coedge $-1 $157 $158 $159 $160 reversed $57 $-1 #
coedge $-1 $95 $59 $161 $162 reversed $37 $-1 #
coedge $-1 $59 $94 $157 $163 reversed $37 $-1 #
coedge $-1 $159 $164 $59 $97 forward $165 $-1 #
edge $-1 $166 -46.597859134956437 $167 -36.738068305855535 $96 $168 forward 7 unknown #
loop $-1 $-1 $103 $60 #
plane-surface $-1 -39.389145303843854 -21.380549150879645 55.45675049027146 0.50000000669873634 0 0.8660253999169214 0.8660253999169214 0 -0.50000000669873634 forward_v I I I I #
loop $-1 $-1 $169 $39 #
coedge $-1 $101 $101 $102 $170 reversed $61 $-1 #
coedge $-1 $102 $102 $101 $170 forward $63 $-1 #
coedge $-1 $103 $103 $64 $104 forward $98 $-1 #
edge $-1 $171 0 $171 6.2831853071796004 $103 $172 forward 7 unknown #
face $-1 $173 $174 $22 $-1 $175 reversed single #
loop $-1 $-1 $176 $65 #
plane-surface $-1 14.417429103969376 3.2430517459875876 148.65246948105644 0 1 0 0.50000000669873634 0 0.8660253999169214 forward_v I I I I #
coedge $-1 $177 $178 $179 $180 reversed $66 $-1 #
coedge $-1 $110 $68 $181 $182 reversed $43 $-1 #
coedge $-1 $68 $109 $177 $183 reversed $43 $-1 #
coedge $-1 $179 $184 $68 $112 forward $185 $-1 #
edge $-1 $186 -46.597859134956437 $187 -36.738068305855535 $111 $188 forward 7 unknown #
loop $-1 $-1 $118 $69 #
plane-surface $-1 -39.389145303843854 9.2364274677900795 55.45675049027146 0.50000000669873634 0 0.8660253999169214 0.8660253999169214 0 -0.50000000669873634 forward_v I I I I #
loop $-1 $-1 $189 $45 #
coedge $-1 $116 $116 $117 $190 reversed $70 $-1 #
coedge $-1 $117 $117 $116 $190 forward $72 $-1 #
coedge $-1 $118 $118 $73 $119 forward $113 $-1 #
edge $-1 $191 0 $191 6.2831853071796004 $118 $192 forward 7 unknown #
face $-1 $193 $194 $18 $-1 $195 reversed single #
loop $-1 $-1 $196 $74 #
plane-surface $-1 -53.806573686941128 0 0 1 0 0 0 0 -1 forward_v I I I I #
coedge $-1 $197 $131 $198 $199 forward $75 $-1 #
coedge $-1 $200 $77 $197 $201 forward $49 $-1 #
coedge $-1 $77 $200 $202 $203 forward $49 $-1 #
coedge $-1 $134 $133 $77 $127 reversed $135 $-1 #
edge $-1 $204 -33.86002836465731 $205 33.86002836465731 $126 $206 forward 7 unknown #
coedge $-1 $79 $78 $207 $208 forward $31 $-1 #
coedge $-1 $209 $210 $78 $130 reversed $194 $-1 #
edge $-1 $137 -53.806573686941128 $211 53.806573686941128 $129 $212 forward 7 unknown #
coedge $-1 $123 $213 $79 $132 reversed $75 $-1 #
edge $-1 $214 -53.806573686941128 $136 53.806573686941128 $131 $215 forward 7 unknown #
coedge $-1 $126 $80 $213 $216 forward $135 $-1 #
coedge $-1 $80 $126 $209 $217 reversed $135 $-1 #
loop $-1 $-1 $133 $193 #
vertex $-1 $81 $218 #
vertex $-1 $81 $219 #
straight-curve $-1 53.806573686941128 0 7.3427290734808031 0 1 0 I I #
face $-1 $220 $221 $19 $-1 $222 reversed single #
loop $-1 $-1 $223 $82 #
plane-surface $-1 0 -37.103080110644896 -0.32623228309675234 0 0 1 1 0 0 forward_v I I I I #
coedge $-1 $88 $224 $225 $226 forward $83 $-1 #
coedge $-1 $227 $85 $228 $229 reversed $53 $-1 #
coedge $-1 $85 $227 $149 $230 reversed $53 $-1 #
edge $-1 $150 -2.7692903730893228 $231 0.32623228309675234 $85 $232 forward 7 unknown #
coedge $-1 $87 $86 $233 $234 forward $34 $-1 #
coedge $-1 $225 $235 $86 $148 forward $236 $-1 #
edge $-1 $237 -0.32623228309675234 $151 2.7692903730893228 $147 $238 forward 7 unknown #
coedge $-1 $224 $88 $144 $230 forward $83 $-1 #
vertex $-1 $145 $239 #
vertex $-1 $226 $240 #
straight-curve $-1 0 -33.86002836465731 2.7692903730893228 1 0 0 I I #
face $-1 $-1 $165 $20 $-1 $241 forward single #
loop $-1 $-1 $242 $90 #
plane-surface $-1 53.806573686941128 0 0 -1 0 0 0 0 1 forward_v I I I I #
coedge $-1 $243 $244 $245 $246 reversed $91 $-1 #
coedge $-1 $247 $93 $95 $163 forward $57 $-1 #
coedge $-1 $93 $247 $243 $248 forward $57 $-1 #
coedge $-1 $245 $96 $93 $160 forward $165 $-1 #
edge $-1 $167 4.6968988536373306 $249 16.683650297242316 $159 $250 forward 7 unknown #
coedge $-1 $251 $252 $94 $162 forward $154 $-1 #
edge $-1 $253 -72.676058658069991 $166 -66.983505667047424 $161 $254 forward 7 unknown #
edge $-1 $167 96.228041544368764 $253 107.61314737388227 $95 $255 forward 7 unknown #
coedge $-1 $96 $245 $251 $256 forward $165 $-1 #
loop $-1 $-1 $245 $153 #
vertex $-1 $162 $257 #
vertex $-1 $97 $258 #
straight-curve $-1 7.2087145519846878 -15.387173429077153 7.3427290734807968 -1 0 0 I I #
coedge $-1 $169 $169 $-1 $259 reversed $100 $-1 #
edge $-1 $260 0 $260 6.2831853071796004 $101 $261 forward 7 unknown #
vertex $-1 $104 $262 #
ellipse-curve $-1 48.876678272390699 -21.380549150879645 4.4964525779695181 0.50000000669873634 0 0.8660253999169214 2.1650634997923035 0 -1.2500000167468408 1 I I #
face $-1 $-1 $185 $22 $-1 $263 forward single #
loop $-1 $-1 $264 $105 #
plane-surface $-1 53.806573686941128 0 0 -1 0 0 0 0 1 forward_v I I I I #
coedge $-1 $265 $266 $267 $268 reversed $106 $-1 #
coedge $-1 $269 $108 $110 $183 forward $66 $-1 #
coedge $-1 $108 $269 $265 $270 forward $66 $-1 #
coedge $-1 $267 $111 $108 $180 forward $185 $-1 #
edge $-1 $187 -10.611589455697532 $271 1.3751619879074521 $179 $272 forward 7 unknown #
coedge $-1 $273 $274 $109 $182 forward $174 $-1 #
edge $-1 $275 -72.676058658069991 $186 -66.983505667047424 $181 $276 forward 7 unknown #
edge $-1 $187 96.228041544368764 $275 107.61314737388227 $110 $277 forward 7 unknown #
coedge $-1 $111 $267 $273 $278 forward $185 $-1 #
loop $-1 $-1 $267 $173 #
vertex $-1 $182 $279 #
vertex $-1 $112 $280 #
straight-curve $-1 7.2087145519846878 15.229803189592571 7.3427290734807968 -1 0 0 I I #
coedge $-1 $189 $189 $-1 $281 reversed $115 $-1 #
edge $-1 $282 0 $282 6.2831853071796004 $116 $283 forward 7 unknown #
vertex $-1 $119 $284 #
ellipse-curve $-1 48.876678272390699 9.2364274677900795 4.4964525779695181 0.50000000669873634 0 0.8660253999169214 2.1650634997923035 0 -1.2500000167468408 1 I I #
face $-1 $-1 $135 $18 $-1 $285 reversed single #
loop $-1 $-1 $209 $120 #
plane-surface $-1 0 33.86002836465731 0 0 -1 0 0 0 -1 forward_v I I I I #
coedge $-1 $286 $207 $210 $287 forward $121 $-1 #
coedge $-1 $213 $123 $124 $201 reversed $75 $-1 #
coedge $-1 $207 $286 $123 $199 reversed $121 $-1 #
edge $-1 $214 -7.3427290734808031 $288 7.3427290734808031 $198 $289 forward 7 unknown #
coedge $-1 $125 $124 $286 $290 forward $49 $-1 #
edge $-1 $205 -53.806573686941128 $288 53.806573686941128 $197 $291 forward 7 unknown #
coedge $-1 $210 $209 $125 $203 reversed $194 $-1 #
edge $-1 $292 -53.806573686941128 $204 53.806573686941128 $202 $293 forward 7 unknown #
vertex $-1 $127 $294 #
vertex $-1 $216 $295 #
straight-curve $-1 53.806573686941128 0 -7.3427290734808031 0 -1 0 I I #
coedge $-1 $196 $198 $128 $208 reversed $121 $-1 #
edge $-1 $211 -33.86002836465731 $214 33.86002836465731 $207 $296 forward 7 unknown #
coedge $-1 $202 $129 $134 $217 forward $194 $-1 #
coedge $-1 $129 $202 $196 $287 reversed $194 $-1 #
vertex $-1 $130 $297 #
straight-curve $-1 0 33.86002836465731 7.3427290734808031 -1 0 0 I I #
coedge $-1 $131 $197 $133 $216 reversed $75 $-1 #
vertex $-1 $208 $298 #
straight-curve $-1 0 -33.86002836465731 7.3427290734808031 1 0 0 I I #
edge $-1 $136 -7.3427290734808031 $205 7.3427290734808031 $133 $299 forward 7 unknown #
edge $-1 $137 -7.3427290734808031 $204 7.3427290734808031 $134 $300 forward 7 unknown #
point $-1 53.806573686941128 -33.86002836465731 7.3427290734808031 #
point $-1 53.806573686941128 33.86002836465731 7.3427290734808031 #
face $-1 $-1 $236 $19 $-1 $301 reversed single #
loop $-1 $-1 $302 $139 #
plane-surface $-1 0 -40.346131856632482 1.2215290449962852 0 1 0 0 0 1 forward_v I I I I #
coedge $-1 $303 $233 $235 $304 forward $140 $-1 #
coedge $-1 $142 $149 $305 $306 forward $83 $-1 #
coedge $-1 $307 $147 $142 $226 reversed $236 $-1 #
edge $-1 $308 -3.2430517459875858 $151 3.2430517459875858 $225 $309 forward 7 unknown #
coedge $-1 $144 $143 $302 $310 reversed $53 $-1 #
coedge $-1 $233 $303 $143 $229 forward $140 $-1 #
edge $-1 $311 -3.2430517459875858 $231 3.2430517459875858 $143 $312 forward 7 unknown #
edge $-1 $150 -3.2430517459875858 $313 3.2430517459875858 $144 $314 forward 7 unknown #
vertex $-1 $145 $315 #
straight-curve $-1 -53.806573686941128 -33.86002836465731 0 0 0 -1 I I #
coedge $-1 $223 $228 $146 $234 reversed $140 $-1 #
edge $-1 $237 -53.806573686941128 $231 53.806573686941128 $233 $316 forward 7 unknown #
coedge $-1 $147 $307 $223 $304 reversed $236 $-1 #
loop $-1 $-1 $147 $220 #
vertex $-1 $148 $317 #
straight-curve $-1 53.806573686941128 -33.86002836465731 0 0 0 1 I I #
point $-1 -53.806573686941128 -33.86002836465731 2.7692903730893228 #
point $-1 53.806573686941128 -33.86002836465731 2.7692903730893228 #
plane-surface $-1 0 0 7.3427290734808031 0 0 1 1 0 0 forward_v I I I I #
coedge $-1 $252 $251 $244 $318 forward $154 $-1 #
coedge $-1 $244 $156 $158 $248 reversed $91 $-1 #
coedge $-1 $156 $243 $242 $318 reversed $91 $-1 #
coedge $-1 $164 $159 $156 $246 forward $165 $-1 #
edge $-1 $249 36.738068305855535 $319 46.597859134956437 $245 $320 forward 7 unknown #
coedge $-1 $158 $157 $252 $321 reversed $57 $-1 #
edge $-1 $322 -107.61314737388227 $249 -96.228041544368764 $243 $323 forward 7 unknown #
vertex $-1 $160 $324 #
straight-curve $-1 43.946782857840205 -10.690274575439823 7.3427290734808111 0 -1 0 I I #
coedge $-1 $242 $161 $164 $256 reversed $154 $-1 #
coedge $-1 $161 $242 $247 $321 forward $154 $-1 #
vertex $-1 $162 $325 #
straight-curve $-1 53.806573686941128 -15.387173429077153 74.326234740528221 0 0 1 I I #
straight-curve $-1 -39.389145303843854 -15.387173429077153 55.45675049027146 0.8660253999169214 0 -0.50000000669873634 I I #
edge $-1 $319 -27.373924872682139 $166 -15.387173429077153 $251 $326 forward 7 unknown #
point $-1 53.806573686941128 -15.387173429077153 7.3427290734808031 #
point $-1 43.946782857840226 -15.387173429077153 7.3427290734808039 #
edge $-1 $327 1 $327 0 $169 $-1 forward 7 unknown #
vertex $-1 $170 $328 #
ellipse-curve $-1 47.555493831337408 -21.380549150879645 2.208094040773358 0.50000000669873634 0 0.8660253999169214 2.1650634997923035 0 -1.2500000167468408 1 I I #
point $-1 51.041741772183009 -21.380549150879645 3.2464525612226853 #
plane-surface $-1 0 0 7.3427290734808031 0 0 1 1 0 0 forward_v I I I I #
coedge $-1 $274 $273 $266 $329 forward $174 $-1 #
coedge $-1 $266 $176 $178 $270 reversed $106 $-1 #
coedge $-1 $176 $265 $264 $329 reversed $106 $-1 #
coedge $-1 $184 $179 $176 $268 forward $185 $-1 #
edge $-1 $271 36.738068305855535 $330 46.597859134956437 $267 $331 forward 7 unknown #
coedge $-1 $178 $177 $274 $332 reversed $66 $-1 #
edge $-1 $333 -107.61314737388227 $271 -96.228041544368764 $265 $334 forward 7 unknown #
vertex $-1 $180 $335 #
straight-curve $-1 43.946782857840205 4.6182137338950398 7.3427290734808111 0 -1 0 I I #
coedge $-1 $264 $181 $184 $278 reversed $174 $-1 #
coedge $-1 $181 $264 $269 $332 forward $174 $-1 #
vertex $-1 $182 $336 #
straight-curve $-1 53.806573686941128 15.229803189592571 74.326234740528221 0 0 1 I I #
straight-curve $-1 -39.389145303843854 15.229803189592571 55.45675049027146 0.8660253999169214 0 -0.50000000669873634 I I #
edge $-1 $330 3.2430517459875876 $186 15.229803189592571 $273 $337 forward 7 unknown #
point $-1 53.806573686941128 15.229803189592571 7.3427290734808031 #
point $-1 43.946782857840226 15.229803189592571 7.3427290734808039 #
edge $-1 $338 1 $338 0 $189 $-1 forward 7 unknown #
vertex $-1 $190 $339 #
ellipse-curve $-1 47.555493831337408 9.2364274677900795 2.208094040773358 0.50000000669873634 0 0.8660253999169214 2.1650634997923035 0 -1.2500000167468408 1 I I #
point $-1 51.041741772183009 9.2364274677900795 3.2464525612226853 #
plane-surface $-1 53.806573686941128 0 0 -1 0 0 0 0 1 forward_v I I I I #
coedge $-1 $198 $196 $200 $290 reversed $121 $-1 #
edge $-1 $211 -7.3427290734808031 $292 7.3427290734808031 $210 $340 forward 7 unknown #
vertex $-1 $290 $341 #
straight-curve $-1 -53.806573686941128 -33.86002836465731 0 0 0 -1 I I #
edge $-1 $288 -33.86002836465731 $292 33.86002836465731 $286 $342 forward 7 unknown #
straight-curve $-1 0 -33.86002836465731 -7.3427290734808031 -1 0 0 I I #
vertex $-1 $203 $343 #
straight-curve $-1 0 33.86002836465731 -7.3427290734808031 1 0 0 I I #
point $-1 53.806573686941128 33.86002836465731 -7.3427290734808031 #
point $-1 53.806573686941128 -33.86002836465731 -7.3427290734808031 #
straight-curve $-1 -53.806573686941128 0 7.3427290734808031 0 -1 0 I I #
point $-1 -53.806573686941128 33.86002836465731 7.3427290734808031 #
point $-1 -53.806573686941128 -33.86002836465731 7.3427290734808031 #
straight-curve $-1 53.806573686941128 -33.86002836465731 0 0 0 -1 I I #
straight-curve $-1 53.806573686941128 33.86002836465731 0 0 0 -1 I I #
plane-surface $-1 53.806573686941128 0 0 -1 0 0 0 0 1 forward_v I I I I #
coedge $-1 $344 $305 $227 $310 forward $221 $-1 #
coedge $-1 $228 $223 $344 $345 forward $140 $-1 #
edge $-1 $237 -3.2430517459875858 $346 3.2430517459875858 $235 $347 forward 7 unknown #
coedge $-1 $302 $348 $224 $306 reversed $221 $-1 #
edge $-1 $313 -53.806573686941128 $308 53.806573686941128 $305 $349 forward 7 unknown #
coedge $-1 $235 $225 $348 $350 forward $236 $-1 #
vertex $-1 $226 $351 #
straight-curve $-1 53.806573686941128 -37.103080110644896 2.7692903730893228 0 1 0 I I #
edge $-1 $313 -1.5477613280930376 $311 1.5477613280930376 $227 $352 forward 7 unknown #
vertex $-1 $229 $353 #
straight-curve $-1 -53.806573686941128 -37.103080110644896 -0.32623228309675234 0 1 0 I I #
vertex $-1 $230 $354 #
straight-curve $-1 -53.806573686941128 -37.103080110644896 2.7692903730893228 0 -1 0 I I #
point $-1 -53.806573686941128 -33.86002836465731 -0.32623228309675234 #
straight-curve $-1 0 -33.86002836465731 -0.32623228309675234 -1 0 0 I I #
point $-1 53.806573686941128 -33.86002836465731 -0.32623228309675234 #
edge $-1 $319 66.983505667047424 $322 72.676058658069991 $242 $355 forward 7 unknown #
vertex $-1 $256 $356 #
straight-curve $-1 7.2087145519846878 -27.373924872682139 7.3427290734807968 1 0 0 I I #
edge $-1 $322 -16.683650297242316 $253 -4.6968988536373306 $252 $357 forward 7 unknown #
vertex $-1 $321 $358 #
straight-curve $-1 -39.389145303843854 -27.373924872682139 55.45675049027146 -0.8660253999169214 0 0.50000000669873634 I I #
point $-1 43.946782857840226 -27.373924872682139 7.3427290734808039 #
point $-1 53.806573686941128 -15.387173429077153 1.6501760824582306 #
straight-curve $-1 53.806573686941128 0 7.3427290734808031 0 1 0 I I #
vertex $-1 $259 $359 #
point $-1 49.720557331129712 -21.380549150879645 0.95809402402651722 #
edge $-1 $330 66.983505667047424 $333 72.676058658069991 $264 $360 forward 7 unknown #
vertex $-1 $278 $361 #
straight-curve $-1 7.2087145519846878 3.2430517459875876 7.3427290734807968 1 0 0 I I #
edge $-1 $333 -1.3751619879074521 $275 10.611589455697532 $274 $362 forward 7 unknown #
vertex $-1 $332 $363 #
straight-curve $-1 -39.389145303843854 3.2430517459875876 55.45675049027146 -0.8660253999169214 0 0.50000000669873634 I I #
point $-1 43.946782857840226 3.2430517459875876 7.3427290734808039 #
point $-1 53.806573686941128 15.229803189592571 1.6501760824582306 #
straight-curve $-1 53.806573686941128 0 7.3427290734808031 0 1 0 I I #
vertex $-1 $281 $364 #
point $-1 49.720557331129712 9.2364274677900795 0.95809402402651722 #
straight-curve $-1 -53.806573686941128 33.86002836465731 0 0 0 -1 I I #
point $-1 -53.806573686941128 -33.86002836465731 -7.3427290734808031 #
straight-curve $-1 -53.806573686941128 0 -7.3427290734808031 0 1 0 I I #
point $-1 -53.806573686941128 33.86002836465731 -7.3427290734808031 #
coedge $-1 $348 $302 $303 $345 reversed $221 $-1 #
edge $-1 $346 -53.806573686941128 $311 53.806573686941128 $344 $365 forward 7 unknown #
vertex $-1 $350 $366 #
straight-curve $-1 53.806573686941128 -37.103080110644896 -0.32623228309675234 0 -1 0 I I #
coedge $-1 $305 $344 $307 $350 reversed $221 $-1 #
straight-curve $-1 0 -40.346131856632482 2.7692903730893228 1 0 0 I I #
edge $-1 $308 -1.5477613280930376 $346 1.5477613280930376 $307 $367 forward 7 unknown #
point $-1 53.806573686941128 -40.346131856632482 2.7692903730893228 #
straight-curve $-1 -53.806573686941128 -40.346131856632482 1.2215290449962852 0 0 -1 I I #
point $-1 -53.806573686941128 -40.346131856632482 -0.32623228309675234 #
point $-1 -53.806573686941128 -40.346131856632482 2.7692903730893228 #
straight-curve $-1 53.806573686941128 -27.373924872682139 74.326234740528221 0 0 -1 I I #
point $-1 53.806573686941128 -27.373924872682139 7.3427290734808031 #
straight-curve $-1 53.806573686941128 -10.690274575439823 1.6501760824582306 0 1 0 I I #
point $-1 53.806573686941128 -27.373924872682139 1.6501760824582306 #
point $-1 46.305493814590569 -21.380549150879645 0.043030540981054521 #
straight-curve $-1 53.806573686941128 3.2430517459875876 74.326234740528221 0 0 -1 I I #
point $-1 53.806573686941128 3.2430517459875876 7.3427290734808031 #
straight-curve $-1 53.806573686941128 4.6182137338950398 1.6501760824582306 0 1 0 I I #
point $-1 53.806573686941128 3.2430517459875876 1.6501760824582306 #
point $-1 46.305493814590569 9.2364274677900795 0.043030540981054521 #
straight-curve $-1 0 -40.346131856632482 -0.32623228309675234 -1 0 0 I I #
point $-1 53.806573686941128 -40.346131856632482 -0.32623228309675234 #
straight-curve $-1 53.806573686941128 -40.346131856632482 1.2215290449962852 0 0 -1 I I #
End-of-ACIS-data 