500 0 13 0           
7 Unknown 11 ACIS 5.0 NT 24 Fri Mar 26 17:00:17 1999 
-1 9.9999999999999995e-007 1e-010 
body $-1 $13 $-1 $14 #
body $-1 $15 $-1 $16 #
body $-1 $17 $-1 $18 #
body $-1 $19 $-1 $20 #
body $-1 $21 $-1 $22 #
body $-1 $23 $-1 $24 #
body $-1 $25 $-1 $26 #
body $-1 $27 $-1 $28 #
body $-1 $29 $-1 $30 #
body $-1 $31 $-1 $32 #
body $-1 $33 $-1 $34 #
body $-1 $35 $-1 $36 #
body $-1 $37 $-1 $38 #
lump $-1 $-1 $39 $0 #
transform $-1 1 0 0 0 1 0 0 0 1 76.704000976592312 33.485052387144599 16.694087475253543 1 rotate no_reflect no_shear #
lump $-1 $-1 $40 $1 #
transform $-1 1 0 0 0 1 0 0 0 1 76.704000976592312 33.485052387144599 16.694087475253543 1 rotate no_reflect no_shear #
lump $-1 $-1 $41 $2 #
transform $-1 1 0 0 0 1 0 0 0 1 76.704000976592312 33.485052387144599 16.694087475253543 1 rotate no_reflect no_shear #
lump $-1 $-1 $42 $3 #
transform $-1 1 0 0 0 1 0 0 0 1 76.704000976592312 33.485052387144599 16.694087475253543 1 rotate no_reflect no_shear #
lump $-1 $-1 $43 $4 #
transform $-1 1 0 0 0 1 0 0 0 1 76.704000976592312 33.485052387144599 16.694087475253543 1 rotate no_reflect no_shear #
lump $-1 $-1 $44 $5 #
transform $-1 1 0 0 0 1 0 0 0 1 76.704000976592312 33.485052387144599 16.694087475253543 1 rotate no_reflect no_shear #
lump $-1 $-1 $45 $6 #
transform $-1 1 0 0 0 1 0 0 0 1 76.704000976592312 33.485052387144599 16.694087475253543 1 rotate no_reflect no_shear #
lump $-1 $-1 $46 $7 #
transform $-1 1 0 0 0 1 0 0 0 1 76.704000976592312 33.485052387144599 16.694087475253543 1 rotate no_reflect no_shear #
lump $-1 $-1 $47 $8 #
transform $-1 1 0 0 0 1 0 0 0 1 76.704000976592312 33.485052387144599 16.694087475253543 1 rotate no_reflect no_shear #
lump $-1 $-1 $48 $9 #
transform $-1 1 0 0 0 1 0 0 0 1 76.704000976592312 33.485052387144599 16.694087475253543 1 rotate no_reflect no_shear #
lump $-1 $-1 $49 $10 #
transform $-1 1 0 0 0 1 0 0 0 1 76.704000976592312 33.485052387144599 16.694087475253543 1 rotate no_reflect no_shear #
lump $-1 $-1 $50 $11 #
transform $-1 1 0 0 0 1 0 0 0 1 76.704000976592312 33.485052387144599 16.694087475253543 1 rotate no_reflect no_shear #
lump $-1 $-1 $51 $12 #
transform $-1 1 0 0 0 1 0 0 0 1 76.704000976592312 33.485052387144599 16.694087475253543 1 rotate no_reflect no_shear #
shell $-1 $-1 $-1 $52 $-1 $13 #
shell $-1 $-1 $-1 $53 $-1 $15 #
shell $-1 $-1 $-1 $54 $-1 $17 #
shell $-1 $-1 $-1 $55 $-1 $19 #
shell $-1 $-1 $-1 $56 $-1 $21 #
shell $-1 $-1 $-1 $57 $-1 $23 #
shell $-1 $-1 $-1 $58 $-1 $25 #
shell $-1 $-1 $-1 $59 $-1 $27 #
shell $-1 $-1 $-1 $60 $-1 $29 #
shell $-1 $-1 $-1 $61 $-1 $31 #
shell $-1 $-1 $-1 $62 $-1 $33 #
shell $-1 $-1 $-1 $63 $-1 $35 #
shell $-1 $-1 $-1 $64 $-1 $37 #
face $-1 $65 $66 $39 $-1 $67 forward single #
face $-1 $68 $69 $40 $-1 $70 reversed single #
face $-1 $71 $72 $41 $-1 $73 reversed single #
face $-1 $74 $75 $42 $-1 $76 reversed single #
face $-1 $77 $78 $43 $-1 $79 forward single #
face $-1 $80 $81 $44 $-1 $82 forward single #
face $-1 $83 $84 $45 $-1 $85 reversed single #
face $-1 $86 $87 $46 $-1 $88 forward single #
face $-1 $89 $90 $47 $-1 $91 forward single #
face $-1 $92 $93 $48 $-1 $94 reversed single #
face $-1 $95 $96 $49 $-1 $97 forward single #
face $-1 $98 $99 $50 $-1 $100 forward single #
face $-1 $101 $102 $51 $-1 $103 forward single #
face $-1 $104 $105 $39 $-1 $106 reversed single #
loop $-1 $-1 $107 $52 #
plane-surface $-1 0 0 16.694087475253543 0 0 1 1 0 0 forward_v I I I I #
face $-1 $108 $109 $40 $-1 $110 reversed single #
loop $-1 $-1 $111 $53 #
plane-surface $-1 0 -22.494359510964792 12.883900317673319 0 0 1 1 0 0 forward_v I I I I #
face $-1 $112 $113 $41 $-1 $114 reversed single #
loop $-1 $-1 $115 $54 #
plane-surface $-1 0 22.494359510964792 12.883900317673319 0 0 1 1 0 0 forward_v I I I I #
face $-1 $116 $117 $42 $-1 $118 reversed single #
loop $-1 $-1 $119 $55 #
plane-surface $-1 -175.31276507086878 -8.7900910053456496 130.24185220344788 0 1 0 -0.64278761758704617 0 0.76604443648966558 forward_v I I I I #
face $-1 $120 $121 $43 $-1 $122 forward single #
loop $-1 $123 $124 $56 #
cone-surface $-1 -73.726331200178677 -7.1336357266696808 13.979599974593771 0.64278761758704617 0 -0.76604443648966558 0.38302221824483279 0 0.32139380879352308 1 I I 0 1 0.5 forward I I I I #
face $-1 $125 $126 $44 $-1 $127 forward single #
loop $-1 $128 $129 $57 #
cone-surface $-1 -73.726331200178677 -4.648952808655725 13.979599974593771 0.64278761758704617 0 -0.76604443648966558 0.38302221824483279 0 0.32139380879352308 1 I I 0 1 0.5 forward I I I I #
face $-1 $130 $131 $45 $-1 $132 reversed single #
loop $-1 $-1 $133 $58 #
plane-surface $-1 -175.31276507086878 2.9924975299797598 130.24185220344788 0 1 0 -0.64278761758704617 0 0.76604443648966558 forward_v I I I I #
face $-1 $134 $135 $46 $-1 $136 forward single #
loop $-1 $137 $138 $59 #
cone-surface $-1 -73.726331200178677 4.6489528086557286 13.979599974593771 0.64278761758704617 0 -0.76604443648966558 0.38302221824483279 0 0.32139380879352308 1 I I 0 1 0.5 forward I I I I #
face $-1 $139 $140 $47 $-1 $141 forward single #
loop $-1 $142 $143 $60 #
cone-surface $-1 -73.726331200178677 7.1336357266696808 13.979599974593771 0.64278761758704617 0 -0.76604443648966558 0.38302221824483279 0 0.32139380879352308 1 I I 0 1 0.5 forward I I I I #
face $-1 $144 $145 $48 $-1 $146 reversed single #
loop $-1 $-1 $147 $61 #
plane-surface $-1 95.612588306777411 0.11762776187119073 229.30280869467438 0 -1 0 -0.7660444514056185 0 -0.64278759981090561 forward_v I I I I #
face $-1 $148 $149 $49 $-1 $150 forward single #
loop $-1 $151 $152 $62 #
cone-surface $-1 74.845258948121099 -5.0313466159342575 14.613999252691684 -0.7660444514056185 0 -0.64278759981090561 0.3213937999054528 0 -0.38302222570280925 1 I I 0 1 0.5 forward I I I I #
face $-1 $153 $154 $50 $-1 $155 forward single #
loop $-1 $156 $157 $63 #
cone-surface $-1 74.845258948121099 -3.1004812242572122 14.613999252691684 -0.7660444514056185 0 -0.64278759981090561 0.3213937999054528 0 -0.38302222570280925 1 I I 0 1 0.5 forward I I I I #
face $-1 $158 $159 $51 $-1 $160 forward single #
loop $-1 $161 $162 $64 #
cone-surface $-1 74.845258948121099 -1.1696158325801704 14.613999252691684 -0.7660444514056185 0 -0.64278759981090561 0.3213937999054528 0 -0.38302222570280925 1 I I 0 1 0.5 forward I I I I #
face $-1 $163 $164 $39 $-1 $165 reversed single #
loop $-1 $-1 $166 $65 #
plane-surface $-1 0 0 -16.694087475253543 0 0 1 1 0 0 forward_v I I I I #
coedge $-1 $167 $168 $169 $170 forward $66 $-1 #
face $-1 $171 $172 $40 $-1 $173 reversed single #
loop $-1 $-1 $174 $68 #
plane-surface $-1 0 -11.503666634784983 14.788993896463431 0 -1 0 0 0 -1 forward_v I I I I #
coedge $-1 $175 $176 $177 $178 reversed $69 $-1 #
face $-1 $179 $180 $41 $-1 $181 forward single #
loop $-1 $-1 $182 $71 #
plane-surface $-1 0 11.503666634784985 14.788993896463431 0 1 0 0 0 1 forward_v I I I I #
coedge $-1 $183 $184 $185 $186 reversed $72 $-1 #
face $-1 $187 $188 $42 $-1 $189 reversed single #
loop $-1 $-1 $190 $74 #
plane-surface $-1 -76.704000976592312 -5.8912942676627011 12.724505794215048 -0.64278761758704617 0 0.76604443648966558 0.76604443648966558 0 0.64278761758704617 forward_v I I I I #
coedge $-1 $191 $192 $193 $194 reversed $75 $-1 #
face $-1 $-1 $195 $43 $-1 $196 forward single #
loop $-1 $197 $198 $77 #
cone-surface $-1 -72.953346084562355 -7.1336357266696808 13.058392205330833 0.64278761758704617 0 -0.76604443648966558 0.1915111091224164 0 0.16069690439676154 1 I I -0.70710678118654746 0.70710678118654746 0.25 forward I I I I #
loop $-1 $-1 $199 $56 #
coedge $-1 $124 $124 $200 $201 reversed $78 $-1 #
face $-1 $-1 $202 $44 $-1 $203 forward single #
loop $-1 $204 $205 $80 #
cone-surface $-1 -72.953346084562355 -4.648952808655725 13.058392205330833 0.64278761758704617 0 -0.76604443648966558 0.1915111091224164 0 0.16069690439676154 1 I I -0.70710678118654746 0.70710678118654746 0.25 forward I I I I #
loop $-1 $-1 $206 $57 #
coedge $-1 $129 $129 $207 $208 reversed $81 $-1 #
face $-1 $209 $210 $45 $-1 $211 reversed single #
loop $-1 $-1 $212 $83 #
plane-surface $-1 -76.704000976592312 5.8912942676627083 12.724505794215048 -0.64278761758704617 0 0.76604443648966558 0.76604443648966558 0 0.64278761758704617 forward_v I I I I #
coedge $-1 $213 $214 $215 $216 reversed $84 $-1 #
face $-1 $-1 $217 $46 $-1 $218 forward single #
loop $-1 $219 $220 $86 #
cone-surface $-1 -72.953346084562355 4.6489528086557286 13.058392205330833 0.64278761758704617 0 -0.76604443648966558 0.1915111091224164 0 0.16069690439676154 1 I I -0.70710678118654746 0.70710678118654746 0.25 forward I I I I #
loop $-1 $-1 $221 $59 #
coedge $-1 $138 $138 $222 $223 reversed $87 $-1 #
face $-1 $-1 $224 $47 $-1 $225 forward single #
loop $-1 $226 $227 $89 #
cone-surface $-1 -72.953346084562355 7.1336357266696808 13.058392205330833 0.64278761758704617 0 -0.76604443648966558 0.1915111091224164 0 0.16069690439676154 1 I I -0.70710678118654746 0.70710678118654746 0.25 forward I I I I #
loop $-1 $-1 $228 $60 #
coedge $-1 $143 $143 $229 $230 reversed $90 $-1 #
face $-1 $231 $232 $48 $-1 $233 reversed single #
loop $-1 $-1 $234 $92 #
plane-surface $-1 -21.904760390681957 -3.1004812242572157 130.69404732740011 0.7660444514056185 0 0.64278759981090561 0.64278759981090561 0 -0.7660444514056185 forward_v I I I I #
coedge $-1 $235 $236 $237 $238 reversed $93 $-1 #
face $-1 $-1 $239 $49 $-1 $240 forward single #
loop $-1 $241 $242 $95 #
cone-surface $-1 74.270725609566881 -5.0313466159342575 14.131908552833504 -0.7660444514056185 0 -0.64278759981090561 0.1606968999527264 0 -0.19151111285140462 1 I I -0.70710678118654746 0.70710678118654746 0.25 forward I I I I #
loop $-1 $-1 $243 $62 #
coedge $-1 $152 $152 $244 $245 reversed $96 $-1 #
face $-1 $-1 $246 $50 $-1 $247 forward single #
loop $-1 $248 $249 $98 #
cone-surface $-1 74.270725609566881 -3.1004812242572122 14.131908552833504 -0.7660444514056185 0 -0.64278759981090561 0.1606968999527264 0 -0.19151111285140462 1 I I -0.70710678118654746 0.70710678118654746 0.25 forward I I I I #
loop $-1 $-1 $250 $63 #
coedge $-1 $157 $157 $251 $252 reversed $99 $-1 #
face $-1 $-1 $253 $51 $-1 $254 forward single #
loop $-1 $255 $256 $101 #
cone-surface $-1 74.270725609566881 -1.1696158325801704 14.131908552833504 -0.7660444514056185 0 -0.64278759981090561 0.1606968999527264 0 -0.19151111285140462 1 I I -0.70710678118654746 0.70710678118654746 0.25 forward I I I I #
loop $-1 $-1 $257 $64 #
coedge $-1 $162 $162 $258 $259 reversed $102 $-1 #
face $-1 $260 $261 $39 $-1 $262 reversed single #
loop $-1 $-1 $263 $104 #
plane-surface $-1 0 -33.485052387144599 0 0 1 0 0 0 1 forward_v I I I I #
coedge $-1 $264 $265 $266 $267 forward $105 $-1 #
coedge $-1 $268 $107 $269 $270 forward $66 $-1 #
coedge $-1 $107 $268 $271 $272 forward $66 $-1 #
coedge $-1 $273 $274 $107 $170 reversed $275 $-1 #
edge $-1 $276 -33.485052387144599 $277 33.485052387144599 $169 $278 forward 7 unknown #
face $-1 $279 $280 $40 $-1 $281 reversed single #
loop $-1 $-1 $282 $108 #
plane-surface $-1 -76.704000976592312 0 0 1 0 0 0 0 -1 forward_v I I I I #
coedge $-1 $283 $284 $285 $286 reversed $109 $-1 #
coedge $-1 $287 $111 $288 $289 reversed $69 $-1 #
coedge $-1 $111 $287 $283 $290 forward $69 $-1 #
coedge $-1 $285 $291 $111 $178 forward $292 $-1 #
edge $-1 $293 -22.237872631662203 $294 -0.25648687930258696 $177 $295 forward 7 unknown #
face $-1 $296 $297 $41 $-1 $298 reversed single #
loop $-1 $-1 $299 $112 #
plane-surface $-1 0 0 16.694087475253543 0 0 1 1 0 0 forward_v I I I I #
coedge $-1 $300 $301 $302 $303 reversed $113 $-1 #
coedge $-1 $304 $115 $300 $305 forward $72 $-1 #
coedge $-1 $115 $304 $306 $307 reversed $72 $-1 #
coedge $-1 $308 $309 $115 $186 forward $297 $-1 #
edge $-1 $310 0.25648687930258873 $311 22.237872631662203 $185 $312 forward 7 unknown #
face $-1 $313 $314 $42 $-1 $315 reversed single #
loop $-1 $-1 $316 $116 #
plane-surface $-1 -175.31276507086878 -2.9924975299797527 130.24185220344788 0 -1 0 0.64278761758704617 0 -0.76604443648966558 forward_v I I I I #
coedge $-1 $317 $318 $319 $320 reversed $117 $-1 #
coedge $-1 $192 $119 $321 $322 reversed $75 $-1 #
coedge $-1 $119 $191 $317 $323 reversed $75 $-1 #
coedge $-1 $319 $324 $119 $194 forward $325 $-1 #
edge $-1 $326 10.952381558842077 $327 15.683144689230218 $193 $328 forward 7 unknown #
loop $-1 $-1 $200 $120 #
plane-surface $-1 -76.704000976592312 -5.8912942676627011 12.724505794215048 -0.64278761758704617 0 0.76604443648966558 0.76604443648966558 0 0.64278761758704617 forward_v I I I I #
loop $-1 $-1 $329 $77 #
coedge $-1 $198 $198 $199 $330 reversed $121 $-1 #
coedge $-1 $199 $199 $198 $330 forward $123 $-1 #
coedge $-1 $200 $200 $124 $201 forward $195 $-1 #
edge $-1 $331 0 $331 6.2831853071796004 $200 $332 forward 7 unknown #
loop $-1 $-1 $207 $125 #
plane-surface $-1 -76.704000976592312 -5.8912942676627011 12.724505794215048 -0.64278761758704617 0 0.76604443648966558 0.76604443648966558 0 0.64278761758704617 forward_v I I I I #
loop $-1 $-1 $333 $80 #
coedge $-1 $205 $205 $206 $334 reversed $126 $-1 #
coedge $-1 $206 $206 $205 $334 forward $128 $-1 #
coedge $-1 $207 $207 $129 $208 forward $202 $-1 #
edge $-1 $335 0 $335 6.2831853071796004 $207 $336 forward 7 unknown #
face $-1 $337 $338 $45 $-1 $339 forward single #
loop $-1 $-1 $340 $130 #
plane-surface $-1 -175.31276507086878 8.7900910053456567 130.24185220344788 0 -1 0 0.64278761758704617 0 -0.76604443648966558 forward_v I I I I #
coedge $-1 $341 $342 $343 $344 reversed $131 $-1 #
coedge $-1 $214 $133 $345 $346 reversed $84 $-1 #
coedge $-1 $133 $213 $341 $347 reversed $84 $-1 #
coedge $-1 $343 $348 $133 $216 forward $338 $-1 #
edge $-1 $349 10.952381558842077 $350 15.683144689230218 $215 $351 forward 7 unknown #
loop $-1 $-1 $222 $134 #
plane-surface $-1 -76.704000976592312 5.8912942676627083 12.724505794215048 -0.64278761758704617 0 0.76604443648966558 0.76604443648966558 0 0.64278761758704617 forward_v I I I I #
loop $-1 $-1 $352 $86 #
coedge $-1 $220 $220 $221 $353 reversed $135 $-1 #
coedge $-1 $221 $221 $220 $353 forward $137 $-1 #
coedge $-1 $222 $222 $138 $223 forward $217 $-1 #
edge $-1 $354 0 $354 6.2831853071796004 $222 $355 forward 7 unknown #
loop $-1 $-1 $229 $139 #
plane-surface $-1 -76.704000976592312 5.8912942676627083 12.724505794215048 -0.64278761758704617 0 0.76604443648966558 0.76604443648966558 0 0.64278761758704617 forward_v I I I I #
loop $-1 $-1 $356 $89 #
coedge $-1 $227 $227 $228 $357 reversed $140 $-1 #
coedge $-1 $228 $228 $227 $357 forward $142 $-1 #
coedge $-1 $229 $229 $143 $230 forward $224 $-1 #
edge $-1 $358 0 $358 6.2831853071796004 $229 $359 forward 7 unknown #
face $-1 $360 $361 $48 $-1 $362 forward single #
loop $-1 $-1 $363 $144 #
plane-surface $-1 95.612588306777411 -6.3185902103856222 229.30280869467438 0 1 0 0.7660444514056185 0 0.64278759981090561 forward_v I I I I #
coedge $-1 $364 $365 $366 $367 reversed $145 $-1 #
coedge $-1 $236 $147 $368 $369 reversed $93 $-1 #
coedge $-1 $147 $235 $364 $370 reversed $93 $-1 #
coedge $-1 $366 $371 $147 $238 forward $361 $-1 #
edge $-1 $372 -28.897706823203606 $373 -25.946267217666801 $237 $374 forward 7 unknown #
loop $-1 $-1 $244 $148 #
plane-surface $-1 -21.904760390681957 -3.1004812242572157 130.69404732740011 0.7660444514056185 0 0.64278759981090561 0.64278759981090561 0 -0.7660444514056185 forward_v I I I I #
loop $-1 $-1 $375 $95 #
coedge $-1 $242 $242 $243 $376 reversed $149 $-1 #
coedge $-1 $243 $243 $242 $376 forward $151 $-1 #
coedge $-1 $244 $244 $152 $245 forward $239 $-1 #
edge $-1 $377 0 $377 6.2831853071796004 $244 $378 forward 7 unknown #
loop $-1 $-1 $251 $153 #
plane-surface $-1 -21.904760390681957 -3.1004812242572157 130.69404732740011 0.7660444514056185 0 0.64278759981090561 0.64278759981090561 0 -0.7660444514056185 forward_v I I I I #
loop $-1 $-1 $379 $98 #
coedge $-1 $249 $249 $250 $380 reversed $154 $-1 #
coedge $-1 $250 $250 $249 $380 forward $156 $-1 #
coedge $-1 $251 $251 $157 $252 forward $246 $-1 #
edge $-1 $381 0 $381 6.2831853071796004 $251 $382 forward 7 unknown #
loop $-1 $-1 $258 $158 #
plane-surface $-1 -21.904760390681957 -3.1004812242572157 130.69404732740011 0.7660444514056185 0 0.64278759981090561 0.64278759981090561 0 -0.7660444514056185 forward_v I I I I #
loop $-1 $-1 $383 $101 #
coedge $-1 $256 $256 $257 $384 reversed $159 $-1 #
coedge $-1 $257 $257 $256 $384 forward $161 $-1 #
coedge $-1 $258 $258 $162 $259 forward $253 $-1 #
edge $-1 $385 0 $385 6.2831853071796004 $258 $386 forward 7 unknown #
face $-1 $387 $388 $39 $-1 $389 reversed single #
loop $-1 $-1 $390 $163 #
plane-surface $-1 -76.704000976592312 0 0 1 0 0 0 0 -1 forward_v I I I I #
coedge $-1 $391 $271 $392 $393 forward $164 $-1 #
coedge $-1 $394 $166 $391 $395 forward $105 $-1 #
coedge $-1 $166 $394 $396 $397 forward $105 $-1 #
coedge $-1 $274 $273 $166 $267 reversed $275 $-1 #
edge $-1 $398 -33.485052387144599 $399 33.485052387144599 $266 $400 forward 7 unknown #
coedge $-1 $168 $167 $401 $402 forward $66 $-1 #
coedge $-1 $403 $404 $167 $270 reversed $388 $-1 #
edge $-1 $277 -76.704000976592312 $405 76.704000976592312 $269 $406 forward 7 unknown #
coedge $-1 $263 $407 $168 $272 reversed $164 $-1 #
edge $-1 $408 -76.704000976592312 $276 76.704000976592312 $271 $409 forward 7 unknown #
coedge $-1 $266 $169 $407 $410 forward $275 $-1 #
coedge $-1 $169 $266 $403 $411 reversed $275 $-1 #
loop $-1 $-1 $273 $387 #
vertex $-1 $170 $412 #
vertex $-1 $170 $413 #
straight-curve $-1 76.704000976592312 0 16.694087475253543 0 1 0 I I #
face $-1 $414 $415 $40 $-1 $416 forward single #
loop $-1 $-1 $288 $171 #
plane-surface $-1 0 -33.485052387144599 0 0 1 0 0 0 1 forward_v I I I I #
coedge $-1 $417 $418 $419 $420 forward $172 $-1 #
coedge $-1 $419 $174 $176 $290 reversed $109 $-1 #
coedge $-1 $174 $419 $421 $422 reversed $109 $-1 #
coedge $-1 $423 $177 $174 $286 forward $292 $-1 #
edge $-1 $294 5.4894033694416038 $424 9.2995905270218273 $285 $425 forward 7 unknown #
coedge $-1 $176 $175 $417 $426 reversed $69 $-1 #
coedge $-1 $427 $428 $175 $289 forward $280 $-1 #
edge $-1 $429 -76.704000976592312 $293 76.704000976592312 $288 $430 forward 7 unknown #
edge $-1 $431 -76.704000976592312 $294 76.704000976592312 $283 $432 forward 7 unknown #
coedge $-1 $177 $423 $427 $433 forward $292 $-1 #
loop $-1 $-1 $285 $414 #
vertex $-1 $289 $434 #
vertex $-1 $178 $435 #
straight-curve $-1 76.704000976592312 -11.247179755482396 12.883900317673319 0 1 0 I I #
face $-1 $436 $437 $41 $-1 $438 reversed single #
loop $-1 $-1 $309 $179 #
plane-surface $-1 76.704000976592312 0 0 -1 0 0 0 0 1 forward_v I I I I #
coedge $-1 $439 $440 $301 $441 forward $180 $-1 #
coedge $-1 $442 $182 $183 $305 reversed $113 $-1 #
coedge $-1 $182 $442 $299 $441 reversed $113 $-1 #
coedge $-1 $443 $444 $182 $303 forward $437 $-1 #
edge $-1 $445 5.4894033694416038 $446 9.2995905270218273 $302 $447 forward 7 unknown #
coedge $-1 $184 $183 $444 $448 reversed $72 $-1 #
edge $-1 $310 -76.704000976592312 $445 76.704000976592312 $300 $449 forward 7 unknown #
coedge $-1 $450 $451 $184 $307 forward $452 $-1 #
edge $-1 $311 -76.704000976592312 $453 76.704000976592312 $306 $454 forward 7 unknown #
coedge $-1 $455 $185 $451 $456 reversed $297 $-1 #
coedge $-1 $185 $455 $442 $457 forward $297 $-1 #
vertex $-1 $186 $458 #
vertex $-1 $307 $459 #
straight-curve $-1 76.704000976592312 11.247179755482396 12.883900317673319 0 1 0 I I #
face $-1 $-1 $325 $42 $-1 $460 forward single #
loop $-1 $-1 $461 $187 #
plane-surface $-1 -76.704000976592312 0 0 1 0 0 0 0 -1 forward_v I I I I #
coedge $-1 $462 $463 $464 $465 reversed $188 $-1 #
coedge $-1 $466 $190 $192 $323 forward $117 $-1 #
coedge $-1 $190 $466 $462 $467 forward $117 $-1 #
coedge $-1 $464 $193 $190 $320 forward $325 $-1 #
edge $-1 $327 -5.844443871514299 $468 -0.04685039614840214 $319 $469 forward 7 unknown #
coedge $-1 $470 $471 $191 $322 forward $314 $-1 #
edge $-1 $472 -52.39642030750889 $326 -48.426838626470399 $321 $473 forward 7 unknown #
edge $-1 $327 -6.1755727279561858 $472 0 $192 $474 forward 7 unknown #
coedge $-1 $193 $464 $470 $475 forward $325 $-1 #
loop $-1 $-1 $464 $313 #
vertex $-1 $322 $476 #
vertex $-1 $194 $477 #
straight-curve $-1 -87.656382535434389 -8.7900910053456496 16.694087475253539 1 0 0 I I #
coedge $-1 $329 $329 $-1 $478 reversed $197 $-1 #
edge $-1 $479 0 $479 6.2831853071796004 $198 $480 forward 7 unknown #
vertex $-1 $201 $481 #
ellipse-curve $-1 -74.338619411398241 -7.1336357266696808 14.709296634734297 -0.64278761758704617 0 0.76604443648966558 0.38302221824483279 0 0.32139380879352308 1 I I #
coedge $-1 $333 $333 $-1 $482 reversed $204 $-1 #
edge $-1 $483 0 $483 6.2831853071796004 $205 $484 forward 7 unknown #
vertex $-1 $208 $485 #
ellipse-curve $-1 -74.338619411398241 -4.648952808655725 14.709296634734297 -0.64278761758704617 0 0.76604443648966558 0.38302221824483279 0 0.32139380879352308 1 I I #
face $-1 $-1 $486 $45 $-1 $487 reversed single #
loop $-1 $-1 $215 $209 #
plane-surface $-1 0 0 16.694087475253543 0 0 1 1 0 0 forward_v I I I I #
coedge $-1 $488 $489 $490 $491 reversed $210 $-1 #
coedge $-1 $492 $212 $214 $347 forward $131 $-1 #
coedge $-1 $212 $492 $488 $493 forward $131 $-1 #
coedge $-1 $490 $215 $212 $344 forward $338 $-1 #
edge $-1 $350 0.046850396148405693 $494 5.8444438715143026 $343 $495 forward 7 unknown #
coedge $-1 $496 $497 $213 $346 forward $486 $-1 #
edge $-1 $498 -52.39642030750889 $349 -48.426838626470399 $345 $499 forward 7 unknown #
edge $-1 $350 -6.1755727279561858 $498 0 $214 $500 forward 7 unknown #
coedge $-1 $215 $490 $496 $501 forward $338 $-1 #
vertex $-1 $216 $502 #
vertex $-1 $216 $503 #
straight-curve $-1 -87.656382535434389 2.9924975299797598 16.694087475253539 1 0 0 I I #
coedge $-1 $352 $352 $-1 $504 reversed $219 $-1 #
edge $-1 $505 0 $505 6.2831853071796004 $220 $506 forward 7 unknown #
vertex $-1 $223 $507 #
ellipse-curve $-1 -74.338619411398241 4.6489528086557286 14.709296634734297 -0.64278761758704617 0 0.76604443648966558 0.38302221824483279 0 0.32139380879352308 1 I I #
coedge $-1 $356 $356 $-1 $508 reversed $226 $-1 #
edge $-1 $509 0 $509 6.2831853071796004 $227 $510 forward 7 unknown #
vertex $-1 $230 $511 #
ellipse-curve $-1 -74.338619411398241 7.1336357266696808 14.709296634734297 -0.64278761758704617 0 0.76604443648966558 0.38302221824483279 0 0.32139380879352308 1 I I #
face $-1 $-1 $512 $48 $-1 $513 reversed single #
loop $-1 $-1 $237 $231 #
plane-surface $-1 0 0 16.694087475253543 0 0 1 1 0 0 forward_v I I I I #
coedge $-1 $514 $515 $516 $517 reversed $232 $-1 #
coedge $-1 $518 $234 $236 $370 forward $145 $-1 #
coedge $-1 $234 $518 $514 $519 forward $145 $-1 #
coedge $-1 $516 $237 $234 $367 forward $361 $-1 #
edge $-1 $373 -1.6678683739997986 $520 4.7683495982570143 $366 $521 forward 7 unknown #
coedge $-1 $522 $523 $235 $369 forward $512 $-1 #
edge $-1 $524 -101.47470571739643 $372 -97.957316872083652 $368 $525 forward 7 unknown #
edge $-1 $373 148.81637696476693 $524 153.40800195318465 $236 $526 forward 7 unknown #
coedge $-1 $237 $516 $522 $527 forward $361 $-1 #
vertex $-1 $369 $528 #
vertex $-1 $238 $529 #
straight-curve $-1 47.806294153388706 0.11762776187119073 16.694087475253539 -1 0 0 I I #
coedge $-1 $375 $375 $-1 $530 reversed $241 $-1 #
edge $-1 $531 0 $531 6.2831853071796004 $242 $532 forward 7 unknown #
vertex $-1 $245 $533 #
ellipse-curve $-1 75.228281173823902 -5.0313466159342575 14.935393052597137 0.7660444514056185 0 0.64278759981090561 0.3213937999054528 0 -0.38302222570280925 1 I I #
coedge $-1 $379 $379 $-1 $534 reversed $248 $-1 #
edge $-1 $535 0 $535 6.2831853071796004 $249 $536 forward 7 unknown #
vertex $-1 $252 $537 #
ellipse-curve $-1 75.228281173823902 -3.1004812242572122 14.935393052597137 0.7660444514056185 0 0.64278759981090561 0.3213937999054528 0 -0.38302222570280925 1 I I #
coedge $-1 $383 $383 $-1 $538 reversed $255 $-1 #
edge $-1 $539 0 $539 6.2831853071796004 $256 $540 forward 7 unknown #
vertex $-1 $259 $541 #
ellipse-curve $-1 75.228281173823902 -1.1696158325801704 14.935393052597137 0.7660444514056185 0 0.64278759981090561 0.3213937999054528 0 -0.38302222570280925 1 I I #
face $-1 $-1 $275 $39 $-1 $542 reversed single #
loop $-1 $-1 $403 $260 #
plane-surface $-1 0 33.485052387144599 0 0 -1 0 0 0 -1 forward_v I I I I #
coedge $-1 $543 $401 $404 $544 forward $261 $-1 #
coedge $-1 $407 $263 $264 $395 reversed $164 $-1 #
coedge $-1 $401 $543 $263 $393 reversed $261 $-1 #
edge $-1 $408 -16.694087475253543 $545 16.694087475253543 $392 $546 forward 7 unknown #
coedge $-1 $265 $264 $543 $547 forward $105 $-1 #
edge $-1 $399 -76.704000976592312 $545 76.704000976592312 $391 $548 forward 7 unknown #
coedge $-1 $404 $403 $265 $397 reversed $388 $-1 #
edge $-1 $549 -76.704000976592312 $398 76.704000976592312 $396 $550 forward 7 unknown #
vertex $-1 $267 $551 #
vertex $-1 $410 $552 #
straight-curve $-1 76.704000976592312 0 -16.694087475253543 0 -1 0 I I #
coedge $-1 $390 $392 $268 $402 reversed $261 $-1 #
edge $-1 $405 -33.485052387144599 $408 33.485052387144599 $401 $553 forward 7 unknown #
coedge $-1 $396 $269 $274 $411 forward $388 $-1 #
coedge $-1 $269 $396 $390 $544 reversed $388 $-1 #
vertex $-1 $270 $554 #
straight-curve $-1 0 33.485052387144599 16.694087475253543 -1 0 0 I I #
coedge $-1 $271 $391 $273 $410 reversed $164 $-1 #
vertex $-1 $402 $555 #
straight-curve $-1 0 -33.485052387144599 16.694087475253543 1 0 0 I I #
edge $-1 $276 -16.694087475253543 $399 16.694087475253543 $273 $556 forward 7 unknown #
edge $-1 $277 -16.694087475253543 $398 16.694087475253543 $274 $557 forward 7 unknown #
point $-1 76.704000976592312 -33.485052387144599 16.694087475253543 #
point $-1 76.704000976592312 33.485052387144599 16.694087475253543 #
face $-1 $-1 $292 $40 $-1 $558 reversed single #
loop $-1 $-1 $421 $279 #
plane-surface $-1 0 0 16.694087475253543 0 0 1 1 0 0 forward_v I I I I #
coedge $-1 $559 $282 $287 $426 forward $172 $-1 #
coedge $-1 $282 $559 $560 $561 reversed $172 $-1 #
coedge $-1 $284 $283 $282 $420 reversed $109 $-1 #
edge $-1 $562 -9.2995905270218273 $431 -5.4894033694416038 $282 $563 forward 7 unknown #
coedge $-1 $560 $564 $284 $422 forward $415 $-1 #
edge $-1 $424 -76.704000976592312 $562 76.704000976592312 $421 $565 forward 7 unknown #
coedge $-1 $291 $285 $564 $566 reversed $292 $-1 #
vertex $-1 $286 $567 #
straight-curve $-1 76.704000976592312 -11.503666634784983 7.3944969482317155 0 0 1 I I #
edge $-1 $431 0.25648687930258696 $429 22.237872631662203 $417 $568 forward 7 unknown #
coedge $-1 $569 $288 $291 $433 reversed $280 $-1 #
coedge $-1 $288 $569 $559 $570 forward $280 $-1 #
vertex $-1 $289 $571 #
straight-curve $-1 0 -33.485052387144599 12.883900317673319 1 0 0 I I #
vertex $-1 $426 $572 #
straight-curve $-1 0 -11.503666634784983 12.883900317673319 1 0 0 I I #
edge $-1 $573 -16.694087475253543 $293 -12.883900317673319 $291 $574 forward 7 unknown #
point $-1 76.704000976592312 -33.485052387144599 12.883900317673319 #
point $-1 76.704000976592312 -11.503666634784983 12.883900317673319 #
face $-1 $-1 $452 $41 $-1 $575 reversed single #
loop $-1 $-1 $302 $296 #
plane-surface $-1 -76.704000976592312 0 0 1 0 0 0 0 -1 forward_v I I I I #
coedge $-1 $576 $299 $455 $577 forward $180 $-1 #
coedge $-1 $299 $576 $443 $578 forward $180 $-1 #
edge $-1 $446 -76.704000976592312 $579 76.704000976592312 $299 $580 forward 7 unknown #
coedge $-1 $301 $300 $309 $457 reversed $113 $-1 #
coedge $-1 $581 $302 $440 $578 reversed $437 $-1 #
coedge $-1 $302 $581 $304 $448 forward $437 $-1 #
vertex $-1 $448 $582 #
vertex $-1 $303 $583 #
straight-curve $-1 -76.704000976592312 11.503666634784985 7.3944969482317155 0 0 1 I I #
edge $-1 $453 -22.237872631662203 $445 -0.25648687930258873 $444 $584 forward 7 unknown #
straight-curve $-1 0 11.503666634784985 12.883900317673319 -1 0 0 I I #
coedge $-1 $585 $306 $581 $586 reversed $452 $-1 #
coedge $-1 $306 $585 $308 $456 forward $452 $-1 #
loop $-1 $-1 $306 $436 #
vertex $-1 $307 $587 #
straight-curve $-1 0 33.485052387144599 12.883900317673319 -1 0 0 I I #
coedge $-1 $309 $308 $439 $577 reversed $297 $-1 #
edge $-1 $588 -16.694087475253543 $311 -12.883900317673319 $308 $589 forward 7 unknown #
edge $-1 $579 -9.2995905270218273 $310 -5.4894033694416038 $309 $590 forward 7 unknown #
point $-1 76.704000976592312 11.503666634784985 12.883900317673319 #
point $-1 76.704000976592312 33.485052387144599 12.883900317673319 #
plane-surface $-1 0 0 16.694087475253543 0 0 1 1 0 0 forward_v I I I I #
coedge $-1 $471 $470 $463 $591 forward $314 $-1 #
coedge $-1 $463 $316 $318 $467 reversed $188 $-1 #
coedge $-1 $316 $462 $461 $591 reversed $188 $-1 #
coedge $-1 $324 $319 $316 $465 forward $325 $-1 #
edge $-1 $468 -15.683144689230218 $592 -10.952381558842077 $464 $593 forward 7 unknown #
coedge $-1 $318 $317 $471 $594 reversed $117 $-1 #
edge $-1 $595 0 $468 6.1755727279561858 $462 $596 forward 7 unknown #
vertex $-1 $320 $597 #
straight-curve $-1 -71.973237846204171 -2.9456471338313506 16.694087475253543 0 1 0 I I #
coedge $-1 $461 $321 $324 $475 reversed $314 $-1 #
coedge $-1 $321 $461 $466 $594 forward $314 $-1 #
vertex $-1 $322 $598 #
straight-curve $-1 -76.704000976592312 -8.7900910053456496 65.120926101723938 0 0 1 I I #
straight-curve $-1 -76.704000976592312 -8.7900910053456496 12.724505794215048 -0.76604443648966558 0 -0.64278761758704617 I I #
edge $-1 $592 2.9924975299797527 $326 8.7900910053456496 $470 $599 forward 7 unknown #
point $-1 -76.704000976592312 -8.7900910053456496 16.694087475253543 #
point $-1 -71.973237846204171 -8.7900910053456496 16.694087475253543 #
edge $-1 $600 1 $600 0 $329 $-1 forward 7 unknown #
vertex $-1 $330 $601 #
ellipse-curve $-1 -73.114042988959113 -7.1336357266696808 13.249903314453249 -0.64278761758704617 0 0.76604443648966558 0.38302221824483279 0 0.32139380879352308 1 I I #
point $-1 -73.955597193153395 -7.1336357266696808 15.030690443527819 #
edge $-1 $602 1 $602 0 $333 $-1 forward 7 unknown #
vertex $-1 $334 $603 #
ellipse-curve $-1 -73.114042988959113 -4.648952808655725 13.249903314453249 -0.64278761758704617 0 0.76604443648966558 0.38302221824483279 0 0.32139380879352308 1 I I #
point $-1 -73.955597193153395 -4.648952808655725 15.030690443527819 #
loop $-1 $-1 $345 $337 #
plane-surface $-1 -76.704000976592312 0 0 1 0 0 0 0 -1 forward_v I I I I #
coedge $-1 $489 $340 $342 $493 reversed $210 $-1 #
coedge $-1 $340 $488 $604 $605 reversed $210 $-1 #
coedge $-1 $348 $343 $340 $491 forward $338 $-1 #
edge $-1 $494 -15.683144689230218 $606 -10.952381558842077 $490 $607 forward 7 unknown #
coedge $-1 $342 $341 $497 $608 reversed $131 $-1 #
edge $-1 $609 0 $494 6.1755727279561858 $488 $610 forward 7 unknown #
vertex $-1 $344 $611 #
straight-curve $-1 -71.973237846204171 2.9456471338313541 16.694087475253543 0 1 0 I I #
coedge $-1 $604 $345 $348 $501 reversed $486 $-1 #
coedge $-1 $345 $604 $492 $608 forward $486 $-1 #
vertex $-1 $346 $612 #
straight-curve $-1 -76.704000976592312 2.9924975299797598 65.120926101723938 0 0 1 I I #
straight-curve $-1 -76.704000976592312 2.9924975299797598 12.724505794215048 -0.76604443648966558 0 -0.64278761758704617 I I #
edge $-1 $606 -8.7900910053456567 $349 -2.9924975299797598 $496 $613 forward 7 unknown #
point $-1 -76.704000976592312 2.9924975299797598 16.694087475253543 #
point $-1 -71.973237846204171 2.9924975299797598 16.694087475253543 #
edge $-1 $614 1 $614 0 $352 $-1 forward 7 unknown #
vertex $-1 $353 $615 #
ellipse-curve $-1 -73.114042988959113 4.6489528086557286 13.249903314453249 -0.64278761758704617 0 0.76604443648966558 0.38302221824483279 0 0.32139380879352308 1 I I #
point $-1 -73.955597193153395 4.6489528086557286 15.030690443527819 #
edge $-1 $616 1 $616 0 $356 $-1 forward 7 unknown #
vertex $-1 $357 $617 #
ellipse-curve $-1 -73.114042988959113 7.1336357266696808 13.249903314453249 -0.64278761758704617 0 0.76604443648966558 0.38302221824483279 0 0.32139380879352308 1 I I #
point $-1 -73.955597193153395 7.1336357266696808 15.030690443527819 #
loop $-1 $-1 $368 $360 #
plane-surface $-1 76.704000976592312 0 0 -1 0 0 0 0 1 forward_v I I I I #
coedge $-1 $515 $363 $365 $519 reversed $232 $-1 #
coedge $-1 $363 $514 $618 $619 reversed $232 $-1 #
coedge $-1 $371 $366 $363 $517 forward $361 $-1 #
edge $-1 $520 25.946267217666801 $620 28.897706823203606 $516 $621 forward 7 unknown #
coedge $-1 $365 $364 $523 $622 reversed $145 $-1 #
edge $-1 $623 -153.40800195318465 $520 -148.81637696476693 $514 $624 forward 7 unknown #
vertex $-1 $367 $625 #
straight-curve $-1 73.752561371055506 -1.5502406121286079 16.694087475253539 0 -1 0 I I #
coedge $-1 $618 $368 $371 $527 reversed $512 $-1 #
coedge $-1 $368 $618 $518 $622 forward $512 $-1 #
vertex $-1 $369 $626 #
straight-curve $-1 76.704000976592312 0.11762776187119073 114.65140434733719 0 0 1 I I #
straight-curve $-1 -21.904760390681957 0.11762776187119073 130.69404732740011 0.64278759981090561 0 -0.7660444514056185 I I #
edge $-1 $620 -6.3185902103856222 $372 0.11762776187119073 $522 $627 forward 7 unknown #
point $-1 76.704000976592312 0.11762776187119073 16.694087475253543 #
point $-1 73.752561371055506 0.11762776187119073 16.694087475253539 #
edge $-1 $628 1 $628 0 $375 $-1 forward 7 unknown #
vertex $-1 $376 $629 #
ellipse-curve $-1 74.462236722418282 -5.0313466159342575 14.292605452786232 0.7660444514056185 0 0.64278759981090561 0.3213937999054528 0 -0.38302222570280925 1 I I #
point $-1 75.549674973729353 -5.0313466159342575 14.552370826894327 #
edge $-1 $630 1 $630 0 $379 $-1 forward 7 unknown #
vertex $-1 $380 $631 #
ellipse-curve $-1 74.462236722418282 -3.1004812242572122 14.292605452786232 0.7660444514056185 0 0.64278759981090561 0.3213937999054528 0 -0.38302222570280925 1 I I #
point $-1 75.549674973729353 -3.1004812242572122 14.552370826894327 #
edge $-1 $632 1 $632 0 $383 $-1 forward 7 unknown #
vertex $-1 $384 $633 #
ellipse-curve $-1 74.462236722418282 -1.1696158325801704 14.292605452786232 0.7660444514056185 0 0.64278759981090561 0.3213937999054528 0 -0.38302222570280925 1 I I #
point $-1 75.549674973729353 -1.1696158325801704 14.552370826894327 #
plane-surface $-1 76.704000976592312 0 0 -1 0 0 0 0 1 forward_v I I I I #
coedge $-1 $392 $390 $394 $547 reversed $261 $-1 #
edge $-1 $405 -16.694087475253543 $549 16.694087475253543 $404 $634 forward 7 unknown #
vertex $-1 $547 $635 #
straight-curve $-1 -76.704000976592312 -33.485052387144599 0 0 0 -1 I I #
edge $-1 $545 -33.485052387144599 $549 33.485052387144599 $543 $636 forward 7 unknown #
straight-curve $-1 0 -33.485052387144599 -16.694087475253543 -1 0 0 I I #
vertex $-1 $397 $637 #
straight-curve $-1 0 33.485052387144599 -16.694087475253543 1 0 0 I I #
point $-1 76.704000976592312 33.485052387144599 -16.694087475253543 #
point $-1 76.704000976592312 -33.485052387144599 -16.694087475253543 #
straight-curve $-1 -76.704000976592312 0 16.694087475253543 0 -1 0 I I #
point $-1 -76.704000976592312 33.485052387144599 16.694087475253543 #
point $-1 -76.704000976592312 -33.485052387144599 16.694087475253543 #
straight-curve $-1 76.704000976592312 -33.485052387144599 0 0 0 -1 I I #
straight-curve $-1 76.704000976592312 33.485052387144599 0 0 0 -1 I I #
plane-surface $-1 76.704000976592312 0 0 -1 0 0 0 0 1 forward_v I I I I #
coedge $-1 $418 $417 $428 $570 reversed $172 $-1 #
coedge $-1 $638 $421 $418 $561 forward $415 $-1 #
edge $-1 $562 11.503666634784983 $639 33.485052387144599 $418 $640 forward 7 unknown #
vertex $-1 $561 $641 #
straight-curve $-1 -76.704000976592312 -11.503666634784983 7.3944969482317155 0 0 -1 I I #
coedge $-1 $421 $638 $423 $566 forward $415 $-1 #
straight-curve $-1 0 -11.503666634784983 16.694087475253543 -1 0 0 I I #
edge $-1 $573 -33.485052387144599 $424 -11.503666634784983 $423 $642 forward 7 unknown #
point $-1 76.704000976592312 -11.503666634784983 16.694087475253543 #
straight-curve $-1 -76.704000976592312 -11.247179755482396 12.883900317673319 0 -1 0 I I #
coedge $-1 $428 $427 $638 $643 reversed $280 $-1 #
edge $-1 $639 -16.694087475253543 $429 -12.883900317673319 $559 $644 forward 7 unknown #
point $-1 -76.704000976592312 -33.485052387144599 12.883900317673319 #
point $-1 -76.704000976592312 -11.503666634784983 12.883900317673319 #
vertex $-1 $566 $645 #
straight-curve $-1 76.704000976592312 -33.485052387144599 0 0 0 -1 I I #
plane-surface $-1 0 33.485052387144599 0 0 -1 0 0 0 -1 forward_v I I I I #
coedge $-1 $440 $439 $585 $646 forward $180 $-1 #
edge $-1 $579 11.503666634784985 $588 33.485052387144599 $455 $647 forward 7 unknown #
edge $-1 $648 -33.485052387144599 $446 -11.503666634784985 $443 $649 forward 7 unknown #
vertex $-1 $577 $650 #
straight-curve $-1 0 11.503666634784985 16.694087475253543 1 0 0 I I #
coedge $-1 $444 $443 $450 $586 forward $437 $-1 #
point $-1 -76.704000976592312 11.503666634784985 12.883900317673319 #
point $-1 -76.704000976592312 11.503666634784985 16.694087475253543 #
straight-curve $-1 -76.704000976592312 11.247179755482396 12.883900317673319 0 -1 0 I I #
coedge $-1 $451 $450 $576 $646 reversed $452 $-1 #
edge $-1 $648 -16.694087475253543 $453 -12.883900317673319 $450 $651 forward 7 unknown #
point $-1 -76.704000976592312 33.485052387144599 12.883900317673319 #
vertex $-1 $577 $652 #
straight-curve $-1 76.704000976592312 33.485052387144599 0 0 0 -1 I I #
straight-curve $-1 76.704000976592312 11.503666634784985 7.3944969482317155 0 0 -1 I I #
edge $-1 $592 48.426838626470399 $595 52.39642030750889 $461 $653 forward 7 unknown #
vertex $-1 $475 $654 #
straight-curve $-1 -87.656382535434389 -2.9924975299797527 16.694087475253539 -1 0 0 I I #
edge $-1 $595 0.04685039614840214 $472 5.844443871514299 $471 $655 forward 7 unknown #
vertex $-1 $594 $656 #
straight-curve $-1 -76.704000976592312 -2.9924975299797527 12.724505794215048 0.76604443648966558 0 0.64278761758704617 I I #
point $-1 -71.973237846204171 -2.9924975299797527 16.694087475253543 #
point $-1 -76.704000976592312 -8.7900910053456496 12.724505794215048 #
straight-curve $-1 -76.704000976592312 0 16.694087475253543 0 -1 0 I I #
vertex $-1 $478 $657 #
point $-1 -72.731020770714281 -7.1336357266696808 13.571297123246772 #
vertex $-1 $482 $658 #
point $-1 -72.731020770714281 -4.648952808655725 13.571297123246772 #
coedge $-1 $497 $496 $489 $605 forward $486 $-1 #
edge $-1 $606 48.426838626470399 $609 52.39642030750889 $604 $659 forward 7 unknown #
vertex $-1 $501 $660 #
straight-curve $-1 -87.656382535434389 8.7900910053456567 16.694087475253539 -1 0 0 I I #
edge $-1 $609 -5.8444438715143026 $498 -0.046850396148405693 $497 $661 forward 7 unknown #
vertex $-1 $608 $662 #
straight-curve $-1 -76.704000976592312 8.7900910053456567 12.724505794215048 0.76604443648966558 0 0.64278761758704617 I I #
point $-1 -71.973237846204171 8.7900910053456567 16.694087475253543 #
point $-1 -76.704000976592312 2.9924975299797598 12.724505794215048 #
straight-curve $-1 -76.704000976592312 0 16.694087475253543 0 -1 0 I I #
vertex $-1 $504 $663 #
point $-1 -72.731020770714281 4.6489528086557286 13.571297123246772 #
vertex $-1 $508 $664 #
point $-1 -72.731020770714281 7.1336357266696808 13.571297123246772 #
coedge $-1 $523 $522 $515 $619 forward $512 $-1 #
edge $-1 $620 97.957316872083652 $623 101.47470571739643 $618 $665 forward 7 unknown #
vertex $-1 $527 $666 #
straight-curve $-1 47.806294153388706 -6.3185902103856222 16.694087475253539 1 0 0 I I #
edge $-1 $623 -4.7683495982570143 $524 1.6678683739997986 $523 $667 forward 7 unknown #
vertex $-1 $622 $668 #
straight-curve $-1 -21.904760390681957 -6.3185902103856222 130.69404732740011 -0.64278759981090561 0 0.7660444514056185 I I #
point $-1 73.752561371055506 -6.3185902103856222 16.694087475253539 #
point $-1 76.704000976592312 0.11762776187119073 13.176698629940759 #
straight-curve $-1 76.704000976592312 0 16.694087475253543 0 1 0 I I #
vertex $-1 $530 $669 #
point $-1 74.783630522323733 -5.0313466159342575 13.909583227083422 #
vertex $-1 $534 $670 #
point $-1 74.783630522323733 -3.1004812242572122 13.909583227083422 #
vertex $-1 $538 $671 #
point $-1 74.783630522323733 -1.1696158325801704 13.909583227083422 #
straight-curve $-1 -76.704000976592312 33.485052387144599 0 0 0 -1 I I #
point $-1 -76.704000976592312 -33.485052387144599 -16.694087475253543 #
straight-curve $-1 -76.704000976592312 0 -16.694087475253543 0 1 0 I I #
point $-1 -76.704000976592312 33.485052387144599 -16.694087475253543 #
coedge $-1 $564 $560 $569 $643 forward $415 $-1 #
vertex $-1 $561 $672 #
straight-curve $-1 -76.704000976592312 0 16.694087475253543 0 -1 0 I I #
point $-1 -76.704000976592312 -11.503666634784983 16.694087475253543 #
straight-curve $-1 76.704000976592312 0 16.694087475253543 0 1 0 I I #
edge $-1 $639 -76.704000976592312 $573 76.704000976592312 $569 $673 forward 7 unknown #
straight-curve $-1 -76.704000976592312 -33.485052387144599 0 0 0 -1 I I #
point $-1 76.704000976592312 -33.485052387144599 16.694087475253543 #
edge $-1 $588 -76.704000976592312 $648 76.704000976592312 $585 $674 forward 7 unknown #
straight-curve $-1 76.704000976592312 0 16.694087475253543 0 1 0 I I #
vertex $-1 $646 $675 #
straight-curve $-1 -76.704000976592312 0 16.694087475253543 0 -1 0 I I #
point $-1 76.704000976592312 11.503666634784985 16.694087475253543 #
straight-curve $-1 -76.704000976592312 33.485052387144599 0 0 0 -1 I I #
point $-1 76.704000976592312 33.485052387144599 16.694087475253543 #
straight-curve $-1 -76.704000976592312 -2.9924975299797527 65.120926101723938 0 0 -1 I I #
point $-1 -76.704000976592312 -2.9924975299797527 16.694087475253543 #
straight-curve $-1 -76.704000976592312 -2.9456471338313506 12.724505794215052 0 -1 0 I I #
point $-1 -76.704000976592312 -2.9924975299797527 12.724505794215048 #
point $-1 -72.792649180165597 -7.1336357266696808 12.866881096208417 #
point $-1 -72.792649180165597 -4.648952808655725 12.866881096208417 #
straight-curve $-1 -76.704000976592312 8.7900910053456567 65.120926101723938 0 0 -1 I I #
point $-1 -76.704000976592312 8.7900910053456567 16.694087475253543 #
straight-curve $-1 -76.704000976592312 2.9456471338313541 12.724505794215052 0 -1 0 I I #
point $-1 -76.704000976592312 8.7900910053456567 12.724505794215048 #
point $-1 -72.792649180165597 4.6489528086557286 12.866881096208417 #
point $-1 -72.792649180165597 7.1336357266696808 12.866881096208417 #
straight-curve $-1 76.704000976592312 -6.3185902103856222 114.65140434733719 0 0 -1 I I #
point $-1 76.704000976592312 -6.3185902103856222 16.694087475253543 #
straight-curve $-1 76.704000976592312 -1.5502406121286079 13.176698629940731 0 1 0 I I #
point $-1 76.704000976592312 -6.3185902103856222 13.176698629940759 #
point $-1 74.07921449671548 -5.0313466159342575 13.971211652880777 #
point $-1 74.07921449671548 -3.1004812242572122 13.971211652880777 #
point $-1 74.07921449671548 -1.1696158325801704 13.971211652880777 #
point $-1 -76.704000976592312 -33.485052387144599 16.694087475253543 #
straight-curve $-1 0 -33.485052387144599 16.694087475253543 1 0 0 I I #
straight-curve $-1 0 33.485052387144599 16.694087475253543 -1 0 0 I I #
point $-1 -76.704000976592312 33.485052387144599 16.694087475253543 #
End-of-ACIS-data 