500 0 17 0           
7 Unknown 11 ACIS 5.0 NT 24 Thu Mar 25 22:26:38 1999 
-1 9.9999999999999995e-007 1e-010 
body $-1 $17 $-1 $18 #
body $-1 $19 $-1 $20 #
body $-1 $21 $-1 $22 #
body $-1 $23 $-1 $24 #
body $-1 $25 $-1 $26 #
body $-1 $27 $-1 $28 #
body $-1 $29 $-1 $30 #
body $-1 $31 $-1 $32 #
body $-1 $33 $-1 $34 #
body $-1 $35 $-1 $36 #
body $-1 $37 $-1 $38 #
body $-1 $39 $-1 $40 #
body $-1 $41 $-1 $42 #
body $-1 $43 $-1 $44 #
body $-1 $45 $-1 $46 #
body $-1 $47 $-1 $48 #
body $-1 $49 $-1 $50 #
lump $-1 $-1 $51 $0 #
transform $-1 1 0 0 0 1 0 0 0 1 61.752372814111759 25.14363940470702 8.3977622388736588 1 rotate no_reflect no_shear #
lump $-1 $-1 $52 $1 #
transform $-1 1 0 0 0 1 0 0 0 1 61.752372814111759 25.14363940470702 8.3977622388736588 1 rotate no_reflect no_shear #
lump $-1 $-1 $53 $2 #
transform $-1 1 0 0 0 1 0 0 0 1 61.752372814111759 25.14363940470702 8.3977622388736588 1 rotate no_reflect no_shear #
lump $-1 $-1 $54 $3 #
transform $-1 1 0 0 0 1 0 0 0 1 61.752372814111759 25.14363940470702 8.3977622388736588 1 rotate no_reflect no_shear #
lump $-1 $-1 $55 $4 #
transform $-1 1 0 0 0 1 0 0 0 1 61.752372814111759 25.14363940470702 8.3977622388736588 1 rotate no_reflect no_shear #
lump $-1 $-1 $56 $5 #
transform $-1 1 0 0 0 1 0 0 0 1 61.752372814111759 25.14363940470702 8.3977622388736588 1 rotate no_reflect no_shear #
lump $-1 $-1 $57 $6 #
transform $-1 1 0 0 0 1 0 0 0 1 61.752372814111759 25.14363940470702 8.3977622388736588 1 rotate no_reflect no_shear #
lump $-1 $-1 $58 $7 #
transform $-1 1 0 0 0 1 0 0 0 1 61.752372814111759 25.14363940470702 8.3977622388736588 1 rotate no_reflect no_shear #
lump $-1 $-1 $59 $8 #
transform $-1 1 0 0 0 1 0 0 0 1 61.752372814111759 25.14363940470702 8.3977622388736588 1 rotate no_reflect no_shear #
lump $-1 $-1 $60 $9 #
transform $-1 1 0 0 0 1 0 0 0 1 61.752372814111759 25.14363940470702 8.3977622388736588 1 rotate no_reflect no_shear #
lump $-1 $-1 $61 $10 #
transform $-1 1 0 0 0 1 0 0 0 1 61.752372814111759 25.14363940470702 8.3977622388736588 1 rotate no_reflect no_shear #
lump $-1 $-1 $62 $11 #
transform $-1 1 0 0 0 1 0 0 0 1 61.752372814111759 25.14363940470702 8.3977622388736588 1 rotate no_reflect no_shear #
lump $-1 $-1 $63 $12 #
transform $-1 1 0 0 0 1 0 0 0 1 61.752372814111759 25.14363940470702 8.3977622388736588 1 rotate no_reflect no_shear #
lump $-1 $-1 $64 $13 #
transform $-1 1 0 0 0 1 0 0 0 1 61.752372814111759 25.14363940470702 8.3977622388736588 1 rotate no_reflect no_shear #
lump $-1 $-1 $65 $14 #
transform $-1 1 0 0 0 1 0 0 0 1 61.752372814111759 25.14363940470702 8.3977622388736588 1 rotate no_reflect no_shear #
lump $-1 $-1 $66 $15 #
transform $-1 1 0 0 0 1 0 0 0 1 61.752372814111759 25.14363940470702 8.3977622388736588 1 rotate no_reflect no_shear #
lump $-1 $-1 $67 $16 #
transform $-1 1 0 0 0 1 0 0 0 1 61.752372814111759 25.14363940470702 8.3977622388736588 1 rotate no_reflect no_shear #
shell $-1 $-1 $-1 $68 $-1 $17 #
shell $-1 $-1 $-1 $69 $-1 $19 #
shell $-1 $-1 $-1 $70 $-1 $21 #
shell $-1 $-1 $-1 $71 $-1 $23 #
shell $-1 $-1 $-1 $72 $-1 $25 #
shell $-1 $-1 $-1 $73 $-1 $27 #
shell $-1 $-1 $-1 $74 $-1 $29 #
shell $-1 $-1 $-1 $75 $-1 $31 #
shell $-1 $-1 $-1 $76 $-1 $33 #
shell $-1 $-1 $-1 $77 $-1 $35 #
shell $-1 $-1 $-1 $78 $-1 $37 #
shell $-1 $-1 $-1 $79 $-1 $39 #
shell $-1 $-1 $-1 $80 $-1 $41 #
shell $-1 $-1 $-1 $81 $-1 $43 #
shell $-1 $-1 $-1 $82 $-1 $45 #
shell $-1 $-1 $-1 $83 $-1 $47 #
shell $-1 $-1 $-1 $84 $-1 $49 #
face $-1 $85 $86 $51 $-1 $87 forward single #
face $-1 $88 $89 $52 $-1 $90 reversed single #
face $-1 $91 $92 $53 $-1 $93 forward single #
face $-1 $94 $95 $54 $-1 $96 forward single #
face $-1 $97 $98 $55 $-1 $99 forward single #
face $-1 $100 $101 $56 $-1 $102 reversed single #
face $-1 $103 $104 $57 $-1 $105 forward single #
face $-1 $106 $107 $58 $-1 $108 forward single #
face $-1 $109 $110 $59 $-1 $111 forward single #
face $-1 $112 $113 $60 $-1 $114 reversed single #
face $-1 $115 $116 $61 $-1 $117 forward single #
face $-1 $118 $119 $62 $-1 $120 forward single #
face $-1 $121 $122 $63 $-1 $123 forward single #
face $-1 $124 $125 $64 $-1 $126 reversed single #
face $-1 $127 $128 $65 $-1 $129 forward single #
face $-1 $130 $131 $66 $-1 $132 forward single #
face $-1 $133 $134 $67 $-1 $135 forward single #
face $-1 $136 $137 $51 $-1 $138 reversed single #
loop $-1 $-1 $139 $68 #
plane-surface $-1 0 0 8.3977622388736588 0 0 1 1 0 0 forward_v I I I I #
face $-1 $140 $141 $52 $-1 $142 reversed single #
loop $-1 $-1 $143 $69 #
plane-surface $-1 -22.477660069686507 -21.098409802399352 91.895217141222801 0.73135370988377701 0 0.68199835119979291 0.68199835119979291 0 -0.73135370988377701 forward_v I I I I #
face $-1 $144 $145 $53 $-1 $146 forward single #
loop $-1 $147 $148 $70 #
cone-surface $-1 58.202996746679887 -23.525547563783952 4.6426635627216193 -0.73135370988377701 0 -0.68199835119979291 0.34099917559989645 0 -0.36567685494188851 1 I I 0 1 0.5 forward I I I I #
face $-1 $149 $150 $54 $-1 $151 forward single #
loop $-1 $152 $153 $71 #
cone-surface $-1 58.202996746679887 -21.098409802399352 4.6426635627216193 -0.73135370988377701 0 -0.68199835119979291 0.34099917559989645 0 -0.36567685494188851 1 I I 0 1 0.5 forward I I I I #
face $-1 $154 $155 $55 $-1 $156 forward single #
loop $-1 $157 $158 $72 #
cone-surface $-1 58.202996746679887 -18.671272041014753 4.6426635627216193 -0.73135370988377701 0 -0.68199835119979291 0.34099917559989645 0 -0.36567685494188851 1 I I 0 1 0.5 forward I I I I #
face $-1 $159 $160 $56 $-1 $161 reversed single #
loop $-1 $-1 $162 $73 #
plane-surface $-1 67.847993833766964 17.053180200091681 176.12525002502107 0 1 0 0.73135370988377701 0 0.68199835119979291 forward_v I I I I #
face $-1 $163 $164 $57 $-1 $165 forward single #
loop $-1 $166 $167 $74 #
cone-surface $-1 58.202996746679887 18.671272041014749 4.6426635627216193 -0.73135370988377701 0 -0.68199835119979291 0.34099917559989645 0 -0.36567685494188851 1 I I 0 1 0.5 forward I I I I #
face $-1 $168 $169 $58 $-1 $170 forward single #
loop $-1 $171 $172 $75 #
cone-surface $-1 58.202996746679887 21.098409802399349 4.6426635627216193 -0.73135370988377701 0 -0.68199835119979291 0.34099917559989645 0 -0.36567685494188851 1 I I 0 1 0.5 forward I I I I #
face $-1 $173 $174 $59 $-1 $175 forward single #
loop $-1 $176 $177 $76 #
cone-surface $-1 58.202996746679887 23.525547563783949 4.6426635627216193 -0.73135370988377701 0 -0.68199835119979291 0.34099917559989645 0 -0.36567685494188851 1 I I 0 1 0.5 forward I I I I #
face $-1 $178 $179 $60 $-1 $180 reversed single #
loop $-1 $-1 $181 $77 #
plane-surface $-1 -152.07802671756522 -17.053180200091685 85.799596121567632 0 -1 0 0.73135370988377701 0 -0.68199835119979291 forward_v I I I I #
face $-1 $182 $183 $61 $-1 $184 forward single #
loop $-1 $185 $186 $78 #
cone-surface $-1 -58.202996746679887 -23.525547563783952 4.6426635627216051 0.73135370988377701 0 -0.68199835119979291 0.34099917559989645 0 0.36567685494188851 1 I I 0 1 0.5 forward I I I I #
face $-1 $187 $188 $62 $-1 $189 forward single #
loop $-1 $190 $191 $79 #
cone-surface $-1 -58.202996746679887 -21.098409802399352 4.6426635627216051 0.73135370988377701 0 -0.68199835119979291 0.34099917559989645 0 0.36567685494188851 1 I I 0 1 0.5 forward I I I I #
face $-1 $192 $193 $63 $-1 $194 forward single #
loop $-1 $195 $196 $80 #
cone-surface $-1 -58.202996746679887 -18.671272041014753 4.6426635627216051 0.73135370988377701 0 -0.68199835119979291 0.34099917559989645 0 0.36567685494188851 1 I I 0 1 0.5 forward I I I I #
face $-1 $197 $198 $64 $-1 $199 reversed single #
loop $-1 $-1 $200 $81 #
plane-surface $-1 -61.752372814111752 21.098409802399349 1.5695632377693585 -0.73135370988377701 0 0.68199835119979291 0.68199835119979291 0 0.73135370988377701 forward_v I I I I #
face $-1 $201 $202 $65 $-1 $203 forward single #
loop $-1 $204 $205 $82 #
cone-surface $-1 -58.202996746679887 18.671272041014749 4.6426635627216051 0.73135370988377701 0 -0.68199835119979291 0.34099917559989645 0 0.36567685494188851 1 I I 0 1 0.5 forward I I I I #
face $-1 $206 $207 $66 $-1 $208 forward single #
loop $-1 $209 $210 $83 #
cone-surface $-1 -58.202996746679887 21.098409802399349 4.6426635627216051 0.73135370988377701 0 -0.68199835119979291 0.34099917559989645 0 0.36567685494188851 1 I I 0 1 0.5 forward I I I I #
face $-1 $211 $212 $67 $-1 $213 forward single #
loop $-1 $214 $215 $84 #
cone-surface $-1 -58.202996746679887 23.525547563783949 4.6426635627216051 0.73135370988377701 0 -0.68199835119979291 0.34099917559989645 0 0.36567685494188851 1 I I 0 1 0.5 forward I I I I #
face $-1 $216 $217 $51 $-1 $218 reversed single #
loop $-1 $-1 $219 $85 #
plane-surface $-1 0 0 -8.3977622388736588 0 0 1 1 0 0 forward_v I I I I #
coedge $-1 $220 $221 $222 $223 forward $86 $-1 #
face $-1 $224 $225 $52 $-1 $226 forward single #
loop $-1 $-1 $227 $88 #
plane-surface $-1 67.847993833766964 -17.053180200091685 176.12525002502107 0 -1 0 -0.73135370988377701 0 -0.68199835119979291 forward_v I I I I #
coedge $-1 $228 $229 $230 $231 reversed $89 $-1 #
face $-1 $-1 $232 $53 $-1 $233 forward single #
loop $-1 $234 $235 $91 #
cone-surface $-1 57.654481464267057 -23.525547563783952 4.131164799321775 -0.73135370988377701 0 -0.68199835119979291 0.17049958779994823 0 -0.18283842747094425 1 I I -0.70710678118654746 0.70710678118654746 0.25 forward I I I I #
loop $-1 $-1 $236 $70 #
coedge $-1 $148 $148 $237 $238 reversed $92 $-1 #
face $-1 $-1 $239 $54 $-1 $240 forward single #
loop $-1 $241 $242 $94 #
cone-surface $-1 57.654481464267057 -21.098409802399352 4.131164799321775 -0.73135370988377701 0 -0.68199835119979291 0.17049958779994823 0 -0.18283842747094425 1 I I -0.70710678118654746 0.70710678118654746 0.25 forward I I I I #
loop $-1 $-1 $243 $71 #
coedge $-1 $153 $153 $244 $245 reversed $95 $-1 #
face $-1 $-1 $246 $55 $-1 $247 forward single #
loop $-1 $248 $249 $97 #
cone-surface $-1 57.654481464267057 -18.671272041014753 4.131164799321775 -0.73135370988377701 0 -0.68199835119979291 0.17049958779994823 0 -0.18283842747094425 1 I I -0.70710678118654746 0.70710678118654746 0.25 forward I I I I #
loop $-1 $-1 $250 $72 #
coedge $-1 $158 $158 $251 $252 reversed $98 $-1 #
face $-1 $253 $254 $56 $-1 $255 reversed single #
loop $-1 $-1 $256 $100 #
plane-surface $-1 -22.477660069686507 21.098409802399349 91.895217141222801 0.73135370988377701 0 0.68199835119979291 0.68199835119979291 0 -0.73135370988377701 forward_v I I I I #
coedge $-1 $257 $258 $259 $260 reversed $101 $-1 #
face $-1 $-1 $261 $57 $-1 $262 forward single #
loop $-1 $263 $264 $103 #
cone-surface $-1 57.654481464267057 18.671272041014749 4.131164799321775 -0.73135370988377701 0 -0.68199835119979291 0.17049958779994823 0 -0.18283842747094425 1 I I -0.70710678118654746 0.70710678118654746 0.25 forward I I I I #
loop $-1 $-1 $265 $74 #
coedge $-1 $167 $167 $266 $267 reversed $104 $-1 #
face $-1 $-1 $268 $58 $-1 $269 forward single #
loop $-1 $270 $271 $106 #
cone-surface $-1 57.654481464267057 21.098409802399349 4.131164799321775 -0.73135370988377701 0 -0.68199835119979291 0.17049958779994823 0 -0.18283842747094425 1 I I -0.70710678118654746 0.70710678118654746 0.25 forward I I I I #
loop $-1 $-1 $272 $75 #
coedge $-1 $172 $172 $273 $274 reversed $107 $-1 #
face $-1 $-1 $275 $59 $-1 $276 forward single #
loop $-1 $277 $278 $109 #
cone-surface $-1 57.654481464267057 23.525547563783949 4.131164799321775 -0.73135370988377701 0 -0.68199835119979291 0.17049958779994823 0 -0.18283842747094425 1 I I -0.70710678118654746 0.70710678118654746 0.25 forward I I I I #
loop $-1 $-1 $279 $76 #
coedge $-1 $177 $177 $280 $281 reversed $110 $-1 #
face $-1 $282 $283 $60 $-1 $284 reversed single #
loop $-1 $-1 $285 $112 #
plane-surface $-1 -61.752372814111752 -21.098409802399352 1.5695632377693585 -0.73135370988377701 0 0.68199835119979291 0.68199835119979291 0 0.73135370988377701 forward_v I I I I #
coedge $-1 $286 $287 $288 $289 reversed $113 $-1 #
face $-1 $-1 $290 $61 $-1 $291 forward single #
loop $-1 $292 $293 $115 #
cone-surface $-1 -57.654481464267057 -23.525547563783952 4.1311647993217608 0.73135370988377701 0 -0.68199835119979291 0.17049958779994823 0 0.18283842747094425 1 I I -0.70710678118654746 0.70710678118654746 0.25 forward I I I I #
loop $-1 $-1 $294 $78 #
coedge $-1 $186 $186 $295 $296 reversed $116 $-1 #
face $-1 $-1 $297 $62 $-1 $298 forward single #
loop $-1 $299 $300 $118 #
cone-surface $-1 -57.654481464267057 -21.098409802399352 4.1311647993217608 0.73135370988377701 0 -0.68199835119979291 0.17049958779994823 0 0.18283842747094425 1 I I -0.70710678118654746 0.70710678118654746 0.25 forward I I I I #
loop $-1 $-1 $301 $79 #
coedge $-1 $191 $191 $302 $303 reversed $119 $-1 #
face $-1 $-1 $304 $63 $-1 $305 forward single #
loop $-1 $306 $307 $121 #
cone-surface $-1 -57.654481464267057 -18.671272041014753 4.1311647993217608 0.73135370988377701 0 -0.68199835119979291 0.17049958779994823 0 0.18283842747094425 1 I I -0.70710678118654746 0.70710678118654746 0.25 forward I I I I #
loop $-1 $-1 $308 $80 #
coedge $-1 $196 $196 $309 $310 reversed $122 $-1 #
face $-1 $311 $312 $64 $-1 $313 forward single #
loop $-1 $-1 $314 $124 #
plane-surface $-1 -152.07802671756522 17.053180200091681 85.799596121567632 0 1 0 -0.73135370988377701 0 0.68199835119979291 forward_v I I I I #
coedge $-1 $315 $316 $317 $318 reversed $125 $-1 #
face $-1 $-1 $319 $65 $-1 $320 forward single #
loop $-1 $321 $322 $127 #
cone-surface $-1 -57.654481464267057 18.671272041014749 4.1311647993217608 0.73135370988377701 0 -0.68199835119979291 0.17049958779994823 0 0.18283842747094425 1 I I -0.70710678118654746 0.70710678118654746 0.25 forward I I I I #
loop $-1 $-1 $323 $82 #
coedge $-1 $205 $205 $324 $325 reversed $128 $-1 #
face $-1 $-1 $326 $66 $-1 $327 forward single #
loop $-1 $328 $329 $130 #
cone-surface $-1 -57.654481464267057 21.098409802399349 4.1311647993217608 0.73135370988377701 0 -0.68199835119979291 0.17049958779994823 0 0.18283842747094425 1 I I -0.70710678118654746 0.70710678118654746 0.25 forward I I I I #
loop $-1 $-1 $330 $83 #
coedge $-1 $210 $210 $331 $332 reversed $131 $-1 #
face $-1 $-1 $333 $67 $-1 $334 forward single #
loop $-1 $335 $336 $133 #
cone-surface $-1 -57.654481464267057 23.525547563783949 4.1311647993217608 0.73135370988377701 0 -0.68199835119979291 0.17049958779994823 0 0.18283842747094425 1 I I -0.70710678118654746 0.70710678118654746 0.25 forward I I I I #
loop $-1 $-1 $337 $84 #
coedge $-1 $215 $215 $338 $339 reversed $134 $-1 #
face $-1 $340 $341 $51 $-1 $342 reversed single #
loop $-1 $-1 $343 $136 #
plane-surface $-1 0 -25.14363940470702 0 0 1 0 0 0 1 forward_v I I I I #
coedge $-1 $344 $345 $346 $347 forward $137 $-1 #
coedge $-1 $348 $139 $349 $350 forward $86 $-1 #
coedge $-1 $139 $348 $351 $352 forward $86 $-1 #
coedge $-1 $353 $354 $139 $223 reversed $355 $-1 #
edge $-1 $356 -25.14363940470702 $357 25.14363940470702 $222 $358 forward 7 unknown #
face $-1 $359 $360 $52 $-1 $361 reversed single #
loop $-1 $-1 $362 $140 #
plane-surface $-1 0 0 8.3977622388736588 0 0 1 1 0 0 forward_v I I I I #
coedge $-1 $363 $364 $365 $366 reversed $141 $-1 #
coedge $-1 $367 $143 $368 $369 reversed $89 $-1 #
coedge $-1 $143 $367 $363 $370 forward $89 $-1 #
coedge $-1 $365 $371 $143 $231 forward $372 $-1 #
edge $-1 $373 -14.594434503507344 $374 -6.5039752988920085 $230 $375 forward 7 unknown #
loop $-1 $-1 $237 $144 #
plane-surface $-1 -22.477660069686507 -21.098409802399352 91.895217141222801 0.73135370988377701 0 0.68199835119979291 0.68199835119979291 0 -0.73135370988377701 forward_v I I I I #
loop $-1 $-1 $376 $91 #
coedge $-1 $235 $235 $236 $377 reversed $145 $-1 #
coedge $-1 $236 $236 $235 $377 forward $147 $-1 #
coedge $-1 $237 $237 $148 $238 forward $232 $-1 #
edge $-1 $378 0 $378 6.2831853071796004 $237 $379 forward 7 unknown #
loop $-1 $-1 $244 $149 #
plane-surface $-1 -22.477660069686507 -21.098409802399352 91.895217141222801 0.73135370988377701 0 0.68199835119979291 0.68199835119979291 0 -0.73135370988377701 forward_v I I I I #
loop $-1 $-1 $380 $94 #
coedge $-1 $242 $242 $243 $381 reversed $150 $-1 #
coedge $-1 $243 $243 $242 $381 forward $152 $-1 #
coedge $-1 $244 $244 $153 $245 forward $239 $-1 #
edge $-1 $382 0 $382 6.2831853071796004 $244 $383 forward 7 unknown #
loop $-1 $-1 $251 $154 #
plane-surface $-1 -22.477660069686507 -21.098409802399352 91.895217141222801 0.73135370988377701 0 0.68199835119979291 0.68199835119979291 0 -0.73135370988377701 forward_v I I I I #
loop $-1 $-1 $384 $97 #
coedge $-1 $249 $249 $250 $385 reversed $155 $-1 #
coedge $-1 $250 $250 $249 $385 forward $157 $-1 #
coedge $-1 $251 $251 $158 $252 forward $246 $-1 #
edge $-1 $386 0 $386 6.2831853071796004 $251 $387 forward 7 unknown #
face $-1 $388 $389 $56 $-1 $390 forward single #
loop $-1 $-1 $391 $159 #
plane-surface $-1 0 25.14363940470702 0 0 -1 0 0 0 -1 forward_v I I I I #
coedge $-1 $392 $393 $394 $395 reversed $160 $-1 #
coedge $-1 $258 $162 $396 $397 reversed $101 $-1 #
coedge $-1 $162 $257 $392 $398 reversed $101 $-1 #
coedge $-1 $394 $399 $162 $260 forward $400 $-1 #
edge $-1 $401 79.664862773636884 $402 86.493061774741179 $259 $403 forward 7 unknown #
loop $-1 $-1 $266 $163 #
plane-surface $-1 -22.477660069686507 21.098409802399349 91.895217141222801 0.73135370988377701 0 0.68199835119979291 0.68199835119979291 0 -0.73135370988377701 forward_v I I I I #
loop $-1 $-1 $404 $103 #
coedge $-1 $264 $264 $265 $405 reversed $164 $-1 #
coedge $-1 $265 $265 $264 $405 forward $166 $-1 #
coedge $-1 $266 $266 $167 $267 forward $261 $-1 #
edge $-1 $406 0 $406 6.2831853071796004 $266 $407 forward 7 unknown #
loop $-1 $-1 $273 $168 #
plane-surface $-1 -22.477660069686507 21.098409802399349 91.895217141222801 0.73135370988377701 0 0.68199835119979291 0.68199835119979291 0 -0.73135370988377701 forward_v I I I I #
loop $-1 $-1 $408 $106 #
coedge $-1 $271 $271 $272 $409 reversed $169 $-1 #
coedge $-1 $272 $272 $271 $409 forward $171 $-1 #
coedge $-1 $273 $273 $172 $274 forward $268 $-1 #
edge $-1 $410 0 $410 6.2831853071796004 $273 $411 forward 7 unknown #
loop $-1 $-1 $280 $173 #
plane-surface $-1 -22.477660069686507 21.098409802399349 91.895217141222801 0.73135370988377701 0 0.68199835119979291 0.68199835119979291 0 -0.73135370988377701 forward_v I I I I #
loop $-1 $-1 $412 $109 #
coedge $-1 $278 $278 $279 $413 reversed $174 $-1 #
coedge $-1 $279 $279 $278 $413 forward $176 $-1 #
coedge $-1 $280 $280 $177 $281 forward $275 $-1 #
edge $-1 $414 0 $414 6.2831853071796004 $280 $415 forward 7 unknown #
face $-1 $416 $417 $60 $-1 $418 reversed single #
loop $-1 $-1 $288 $178 #
plane-surface $-1 -61.752372814111759 0 0 1 0 0 0 0 -1 forward_v I I I I #
coedge $-1 $419 $420 $421 $422 reversed $179 $-1 #
coedge $-1 $287 $181 $423 $424 reversed $113 $-1 #
coedge $-1 $181 $286 $419 $425 reversed $113 $-1 #
coedge $-1 $421 $426 $181 $289 forward $283 $-1 #
edge $-1 $427 34.502035821910155 $428 41.330234823014464 $288 $429 forward 7 unknown #
loop $-1 $-1 $295 $182 #
plane-surface $-1 -61.752372814111752 -21.098409802399352 1.5695632377693585 -0.73135370988377701 0 0.68199835119979291 0.68199835119979291 0 0.73135370988377701 forward_v I I I I #
loop $-1 $-1 $430 $115 #
coedge $-1 $293 $293 $294 $431 reversed $183 $-1 #
coedge $-1 $294 $294 $293 $431 forward $185 $-1 #
coedge $-1 $295 $295 $186 $296 forward $290 $-1 #
edge $-1 $432 0 $432 6.2831853071796004 $295 $433 forward 7 unknown #
loop $-1 $-1 $302 $187 #
plane-surface $-1 -61.752372814111752 -21.098409802399352 1.5695632377693585 -0.73135370988377701 0 0.68199835119979291 0.68199835119979291 0 0.73135370988377701 forward_v I I I I #
loop $-1 $-1 $434 $118 #
coedge $-1 $300 $300 $301 $435 reversed $188 $-1 #
coedge $-1 $301 $301 $300 $435 forward $190 $-1 #
coedge $-1 $302 $302 $191 $303 forward $297 $-1 #
edge $-1 $436 0 $436 6.2831853071796004 $302 $437 forward 7 unknown #
loop $-1 $-1 $309 $192 #
plane-surface $-1 -61.752372814111752 -21.098409802399352 1.5695632377693585 -0.73135370988377701 0 0.68199835119979291 0.68199835119979291 0 0.73135370988377701 forward_v I I I I #
loop $-1 $-1 $438 $121 #
coedge $-1 $307 $307 $308 $439 reversed $193 $-1 #
coedge $-1 $308 $308 $307 $439 forward $195 $-1 #
coedge $-1 $309 $309 $196 $310 forward $304 $-1 #
edge $-1 $440 0 $440 6.2831853071796004 $309 $441 forward 7 unknown #
face $-1 $442 $443 $64 $-1 $444 reversed single #
loop $-1 $-1 $445 $197 #
plane-surface $-1 0 0 8.3977622388736588 0 0 1 1 0 0 forward_v I I I I #
coedge $-1 $446 $447 $448 $449 reversed $198 $-1 #
coedge $-1 $450 $200 $451 $452 reversed $125 $-1 #
coedge $-1 $200 $450 $446 $453 forward $125 $-1 #
coedge $-1 $448 $454 $200 $318 forward $455 $-1 #
edge $-1 $456 -14.594434503507342 $457 -6.5039752988920068 $317 $458 forward 7 unknown #
loop $-1 $-1 $324 $201 #
plane-surface $-1 -61.752372814111752 21.098409802399349 1.5695632377693585 -0.73135370988377701 0 0.68199835119979291 0.68199835119979291 0 0.73135370988377701 forward_v I I I I #
loop $-1 $-1 $459 $127 #
coedge $-1 $322 $322 $323 $460 reversed $202 $-1 #
coedge $-1 $323 $323 $322 $460 forward $204 $-1 #
coedge $-1 $324 $324 $205 $325 forward $319 $-1 #
edge $-1 $461 0 $461 6.2831853071796004 $324 $462 forward 7 unknown #
loop $-1 $-1 $331 $206 #
plane-surface $-1 -61.752372814111752 21.098409802399349 1.5695632377693585 -0.73135370988377701 0 0.68199835119979291 0.68199835119979291 0 0.73135370988377701 forward_v I I I I #
loop $-1 $-1 $463 $130 #
coedge $-1 $329 $329 $330 $464 reversed $207 $-1 #
coedge $-1 $330 $330 $329 $464 forward $209 $-1 #
coedge $-1 $331 $331 $210 $332 forward $326 $-1 #
edge $-1 $465 0 $465 6.2831853071796004 $331 $466 forward 7 unknown #
loop $-1 $-1 $338 $211 #
plane-surface $-1 -61.752372814111752 21.098409802399349 1.5695632377693585 -0.73135370988377701 0 0.68199835119979291 0.68199835119979291 0 0.73135370988377701 forward_v I I I I #
loop $-1 $-1 $467 $133 #
coedge $-1 $336 $336 $337 $468 reversed $212 $-1 #
coedge $-1 $337 $337 $336 $468 forward $214 $-1 #
coedge $-1 $338 $338 $215 $339 forward $333 $-1 #
edge $-1 $469 0 $469 6.2831853071796004 $338 $470 forward 7 unknown #
face $-1 $471 $472 $51 $-1 $473 reversed single #
loop $-1 $-1 $474 $216 #
plane-surface $-1 -61.752372814111759 0 0 1 0 0 0 0 -1 forward_v I I I I #
coedge $-1 $475 $351 $476 $477 forward $217 $-1 #
coedge $-1 $478 $219 $475 $479 forward $137 $-1 #
coedge $-1 $219 $478 $480 $481 forward $137 $-1 #
coedge $-1 $354 $353 $219 $347 reversed $355 $-1 #
edge $-1 $482 -25.14363940470702 $483 25.14363940470702 $346 $484 forward 7 unknown #
coedge $-1 $221 $220 $485 $486 forward $86 $-1 #
coedge $-1 $487 $488 $220 $350 reversed $472 $-1 #
edge $-1 $357 -61.752372814111759 $489 61.752372814111759 $349 $490 forward 7 unknown #
coedge $-1 $343 $491 $221 $352 reversed $217 $-1 #
edge $-1 $492 -61.752372814111759 $356 61.752372814111759 $351 $493 forward 7 unknown #
coedge $-1 $346 $222 $491 $494 forward $355 $-1 #
coedge $-1 $222 $346 $487 $495 reversed $355 $-1 #
loop $-1 $-1 $353 $471 #
vertex $-1 $223 $496 #
vertex $-1 $223 $497 #
straight-curve $-1 61.752372814111759 0 8.3977622388736588 0 1 0 I I #
face $-1 $-1 $372 $52 $-1 $498 reversed single #
loop $-1 $-1 $368 $224 #
plane-surface $-1 0 -25.14363940470702 0 0 1 0 0 0 1 forward_v I I I I #
coedge $-1 $499 $500 $364 $501 forward $225 $-1 #
coedge $-1 $364 $227 $229 $370 reversed $141 $-1 #
coedge $-1 $227 $363 $362 $501 reversed $141 $-1 #
coedge $-1 $502 $230 $227 $366 forward $372 $-1 #
edge $-1 $374 -86.493061774741179 $503 -79.664862773636884 $365 $504 forward 7 unknown #
coedge $-1 $229 $228 $499 $505 reversed $89 $-1 #
coedge $-1 $506 $507 $228 $369 forward $360 $-1 #
edge $-1 $508 72.899544188090601 $373 82.235928086641408 $368 $509 forward 7 unknown #
edge $-1 $510 114.16836172967268 $374 123.50474562822349 $363 $511 forward 7 unknown #
coedge $-1 $230 $502 $506 $512 forward $372 $-1 #
loop $-1 $-1 $365 $359 #
vertex $-1 $369 $513 #
vertex $-1 $231 $514 #
straight-curve $-1 61.752372814111752 -10.549204901199676 1.5695632377693585 0 1 0 I I #
coedge $-1 $376 $376 $-1 $515 reversed $234 $-1 #
edge $-1 $516 0 $516 6.2831853071796004 $235 $517 forward 7 unknown #
vertex $-1 $238 $518 #
ellipse-curve $-1 58.568673601621768 -23.525547563783952 4.983662738321506 0.73135370988377701 0 0.68199835119979291 0.34099917559989645 0 -0.36567685494188851 1 I I #
coedge $-1 $380 $380 $-1 $519 reversed $241 $-1 #
edge $-1 $520 0 $520 6.2831853071796004 $242 $521 forward 7 unknown #
vertex $-1 $245 $522 #
ellipse-curve $-1 58.568673601621768 -21.098409802399352 4.983662738321506 0.73135370988377701 0 0.68199835119979291 0.34099917559989645 0 -0.36567685494188851 1 I I #
coedge $-1 $384 $384 $-1 $523 reversed $248 $-1 #
edge $-1 $524 0 $524 6.2831853071796004 $249 $525 forward 7 unknown #
vertex $-1 $252 $526 #
ellipse-curve $-1 58.568673601621768 -18.671272041014753 4.983662738321506 0.73135370988377701 0 0.68199835119979291 0.34099917559989645 0 -0.36567685494188851 1 I I #
face $-1 $-1 $400 $56 $-1 $527 reversed single #
loop $-1 $-1 $528 $253 #
plane-surface $-1 0 0 8.3977622388736588 0 0 1 1 0 0 forward_v I I I I #
coedge $-1 $529 $530 $393 $531 forward $254 $-1 #
coedge $-1 $532 $256 $258 $398 forward $160 $-1 #
coedge $-1 $256 $532 $391 $531 reversed $160 $-1 #
coedge $-1 $533 $259 $256 $395 forward $400 $-1 #
edge $-1 $402 6.5039752988920068 $534 14.594434503507342 $394 $535 forward 7 unknown #
coedge $-1 $536 $528 $257 $397 forward $389 $-1 #
edge $-1 $537 21.460977472248317 $401 27.828375897228277 $396 $538 forward 7 unknown #
edge $-1 $402 -123.50474562822349 $537 -114.16836172967268 $258 $539 forward 7 unknown #
coedge $-1 $259 $533 $536 $540 reversed $400 $-1 #
loop $-1 $-1 $394 $388 #
vertex $-1 $540 $541 #
vertex $-1 $260 $542 #
straight-curve $-1 61.752372814111759 17.053180200091681 88.062625012510537 0 0 -1 I I #
coedge $-1 $404 $404 $-1 $543 reversed $263 $-1 #
edge $-1 $544 0 $544 6.2831853071796004 $264 $545 forward 7 unknown #
vertex $-1 $267 $546 #
ellipse-curve $-1 58.568673601621768 18.671272041014749 4.983662738321506 0.73135370988377701 0 0.68199835119979291 0.34099917559989645 0 -0.36567685494188851 1 I I #
coedge $-1 $408 $408 $-1 $547 reversed $270 $-1 #
edge $-1 $548 0 $548 6.2831853071796004 $271 $549 forward 7 unknown #
vertex $-1 $274 $550 #
ellipse-curve $-1 58.568673601621768 21.098409802399349 4.983662738321506 0.73135370988377701 0 0.68199835119979291 0.34099917559989645 0 -0.36567685494188851 1 I I #
coedge $-1 $412 $412 $-1 $551 reversed $277 $-1 #
edge $-1 $552 0 $552 6.2831853071796004 $278 $553 forward 7 unknown #
vertex $-1 $281 $554 #
ellipse-curve $-1 58.568673601621768 23.525547563783949 4.983662738321506 0.73135370988377701 0 0.68199835119979291 0.34099917559989645 0 -0.36567685494188851 1 I I #
face $-1 $-1 $555 $60 $-1 $556 forward single #
loop $-1 $-1 $557 $282 #
plane-surface $-1 0 -25.14363940470702 0 0 1 0 0 0 1 forward_v I I I I #
coedge $-1 $558 $285 $287 $425 forward $179 $-1 #
coedge $-1 $285 $558 $557 $559 reversed $179 $-1 #
coedge $-1 $560 $288 $285 $422 forward $283 $-1 #
edge $-1 $428 6.5039752988920085 $561 14.594434503507344 $421 $562 forward 7 unknown #
coedge $-1 $563 $564 $286 $424 forward $555 $-1 #
edge $-1 $565 -20.654038969650813 $427 -14.286640544670853 $423 $566 forward 7 unknown #
edge $-1 $428 -1.0367256691888158e-014 $565 9.3363838985508174 $287 $567 forward 7 unknown #
coedge $-1 $288 $560 $563 $568 reversed $283 $-1 #
vertex $-1 $568 $569 #
vertex $-1 $289 $570 #
straight-curve $-1 -61.752372814111759 -17.053180200091685 42.899798060783816 0 0 -1 I I #
coedge $-1 $430 $430 $-1 $571 reversed $292 $-1 #
edge $-1 $572 0 $572 6.2831853071796004 $293 $573 forward 7 unknown #
vertex $-1 $296 $574 #
ellipse-curve $-1 -58.568673601621782 -23.525547563783952 4.9836627383215051 -0.73135370988377701 0 0.68199835119979291 0.34099917559989645 0 0.36567685494188851 1 I I #
coedge $-1 $434 $434 $-1 $575 reversed $299 $-1 #
edge $-1 $576 0 $576 6.2831853071796004 $300 $577 forward 7 unknown #
vertex $-1 $303 $578 #
ellipse-curve $-1 -58.568673601621782 -21.098409802399352 4.9836627383215051 -0.73135370988377701 0 0.68199835119979291 0.34099917559989645 0 0.36567685494188851 1 I I #
coedge $-1 $438 $438 $-1 $579 reversed $306 $-1 #
edge $-1 $580 0 $580 6.2831853071796004 $307 $581 forward 7 unknown #
vertex $-1 $310 $582 #
ellipse-curve $-1 -58.568673601621782 -18.671272041014753 4.9836627383215051 -0.73135370988377701 0 0.68199835119979291 0.34099917559989645 0 0.36567685494188851 1 I I #
face $-1 $-1 $455 $64 $-1 $583 reversed single #
loop $-1 $-1 $451 $311 #
plane-surface $-1 0 25.14363940470702 0 0 -1 0 0 0 -1 forward_v I I I I #
coedge $-1 $584 $585 $447 $586 forward $312 $-1 #
coedge $-1 $447 $314 $316 $453 reversed $198 $-1 #
coedge $-1 $314 $446 $445 $586 reversed $198 $-1 #
coedge $-1 $587 $317 $314 $449 forward $455 $-1 #
edge $-1 $457 -41.330234823014464 $588 -34.502035821910155 $448 $589 forward 7 unknown #
coedge $-1 $316 $315 $584 $590 reversed $125 $-1 #
coedge $-1 $591 $592 $315 $452 forward $443 $-1 #
edge $-1 $593 11.147171373978846 $456 20.483555272529674 $451 $594 forward 7 unknown #
edge $-1 $595 -9.3363838985508174 $457 1.0367256691888158e-014 $446 $596 forward 7 unknown #
coedge $-1 $317 $587 $591 $597 forward $455 $-1 #
loop $-1 $-1 $448 $442 #
vertex $-1 $452 $598 #
vertex $-1 $318 $599 #
straight-curve $-1 -61.752372814111759 10.549204901199674 1.5695632377693443 0 -1 0 I I #
coedge $-1 $459 $459 $-1 $600 reversed $321 $-1 #
edge $-1 $601 0 $601 6.2831853071796004 $322 $602 forward 7 unknown #
vertex $-1 $325 $603 #
ellipse-curve $-1 -58.568673601621782 18.671272041014749 4.9836627383215051 -0.73135370988377701 0 0.68199835119979291 0.34099917559989645 0 0.36567685494188851 1 I I #
coedge $-1 $463 $463 $-1 $604 reversed $328 $-1 #
edge $-1 $605 0 $605 6.2831853071796004 $329 $606 forward 7 unknown #
vertex $-1 $332 $607 #
ellipse-curve $-1 -58.568673601621782 21.098409802399349 4.9836627383215051 -0.73135370988377701 0 0.68199835119979291 0.34099917559989645 0 0.36567685494188851 1 I I #
coedge $-1 $467 $467 $-1 $608 reversed $335 $-1 #
edge $-1 $609 0 $609 6.2831853071796004 $336 $610 forward 7 unknown #
vertex $-1 $339 $611 #
ellipse-curve $-1 -58.568673601621782 23.525547563783949 4.9836627383215051 -0.73135370988377701 0 0.68199835119979291 0.34099917559989645 0 0.36567685494188851 1 I I #
face $-1 $-1 $355 $51 $-1 $612 reversed single #
loop $-1 $-1 $487 $340 #
plane-surface $-1 0 25.14363940470702 0 0 -1 0 0 0 -1 forward_v I I I I #
coedge $-1 $613 $485 $488 $614 forward $341 $-1 #
coedge $-1 $491 $343 $344 $479 reversed $217 $-1 #
coedge $-1 $485 $613 $343 $477 reversed $341 $-1 #
edge $-1 $492 -8.3977622388736588 $615 8.3977622388736588 $476 $616 forward 7 unknown #
coedge $-1 $345 $344 $613 $617 forward $137 $-1 #
edge $-1 $483 -61.752372814111759 $615 61.752372814111759 $475 $618 forward 7 unknown #
coedge $-1 $488 $487 $345 $481 reversed $472 $-1 #
edge $-1 $619 -61.752372814111759 $482 61.752372814111759 $480 $620 forward 7 unknown #
vertex $-1 $347 $621 #
vertex $-1 $494 $622 #
straight-curve $-1 61.752372814111759 0 -8.3977622388736588 0 -1 0 I I #
coedge $-1 $474 $476 $348 $486 reversed $341 $-1 #
edge $-1 $489 -25.14363940470702 $492 25.14363940470702 $485 $623 forward 7 unknown #
coedge $-1 $480 $349 $354 $495 forward $472 $-1 #
coedge $-1 $349 $480 $474 $614 reversed $472 $-1 #
vertex $-1 $350 $624 #
straight-curve $-1 0 25.14363940470702 8.3977622388736588 -1 0 0 I I #
coedge $-1 $351 $475 $353 $494 reversed $217 $-1 #
vertex $-1 $486 $625 #
straight-curve $-1 0 -25.14363940470702 8.3977622388736588 1 0 0 I I #
edge $-1 $356 -8.3977622388736588 $483 8.3977622388736588 $353 $626 forward 7 unknown #
edge $-1 $357 -8.3977622388736588 $482 8.3977622388736588 $354 $627 forward 7 unknown #
point $-1 61.752372814111759 -25.14363940470702 8.3977622388736588 #
point $-1 61.752372814111759 25.14363940470702 8.3977622388736588 #
plane-surface $-1 61.752372814111759 0 0 -1 0 0 0 0 1 forward_v I I I I #
coedge $-1 $628 $362 $367 $505 forward $225 $-1 #
coedge $-1 $362 $628 $502 $629 forward $225 $-1 #
edge $-1 $503 -27.828375897228277 $510 -21.460977472248317 $362 $630 forward 7 unknown #
coedge $-1 $371 $365 $500 $629 reversed $372 $-1 #
vertex $-1 $366 $631 #
straight-curve $-1 61.752372814111759 -17.053180200091685 88.062625012510537 0 0 1 I I #
edge $-1 $510 6.5039752988920085 $508 14.594434503507344 $499 $632 forward 7 unknown #
coedge $-1 $507 $368 $371 $512 reversed $360 $-1 #
coedge $-1 $368 $506 $628 $633 reversed $360 $-1 #
vertex $-1 $633 $634 #
straight-curve $-1 5.6676054496375663 -25.14363940470702 61.713114329670049 0.68199835119979291 0 -0.73135370988377701 I I #
vertex $-1 $505 $635 #
straight-curve $-1 -22.477660069686507 -17.053180200091685 91.895217141222801 0.68199835119979291 0 -0.73135370988377701 I I #
edge $-1 $636 -8.3977622388736588 $373 -1.5695632377693503 $371 $637 forward 7 unknown #
point $-1 61.752372814111759 -25.14363940470702 1.5695632377693503 #
point $-1 61.752372814111752 -17.053180200091685 1.5695632377693585 #
edge $-1 $638 1 $638 0 $376 $-1 forward 7 unknown #
vertex $-1 $377 $639 #
ellipse-curve $-1 57.837319891738005 -23.525547563783952 4.3016643871217237 0.73135370988377701 0 0.68199835119979291 0.34099917559989645 0 -0.36567685494188851 1 I I #
point $-1 58.909672777221672 -23.525547563783952 4.6179858833796281 #
edge $-1 $640 1 $640 0 $380 $-1 forward 7 unknown #
vertex $-1 $381 $641 #
ellipse-curve $-1 57.837319891738005 -21.098409802399352 4.3016643871217237 0.73135370988377701 0 0.68199835119979291 0.34099917559989645 0 -0.36567685494188851 1 I I #
point $-1 58.909672777221672 -21.098409802399352 4.6179858833796281 #
edge $-1 $642 1 $642 0 $384 $-1 forward 7 unknown #
vertex $-1 $385 $643 #
ellipse-curve $-1 57.837319891738005 -18.671272041014753 4.3016643871217237 0.73135370988377701 0 0.68199835119979291 0.34099917559989645 0 -0.36567685494188851 1 I I #
point $-1 58.909672777221672 -18.671272041014753 4.6179858833796281 #
plane-surface $-1 61.752372814111759 0 0 -1 0 0 0 0 1 forward_v I I I I #
coedge $-1 $396 $644 $532 $645 forward $389 $-1 #
coedge $-1 $530 $391 $644 $646 reversed $254 $-1 #
coedge $-1 $391 $529 $533 $647 forward $254 $-1 #
edge $-1 $534 -82.235928086641408 $648 -72.899544188090601 $391 $649 forward 7 unknown #
coedge $-1 $393 $392 $528 $645 reversed $160 $-1 #
coedge $-1 $399 $394 $530 $647 reversed $400 $-1 #
vertex $-1 $531 $650 #
straight-curve $-1 61.752372814111752 10.549204901199674 1.5695632377693585 0 1 0 I I #
coedge $-1 $644 $396 $399 $540 forward $389 $-1 #
vertex $-1 $397 $651 #
straight-curve $-1 33.923996916883482 17.053180200091681 8.3977622388736535 1 0 0 I I #
straight-curve $-1 -22.477660069686507 17.053180200091681 91.895217141222801 -0.68199835119979291 0 0.73135370988377701 I I #
edge $-1 $401 17.053180200091681 $652 25.14363940470702 $399 $653 forward 7 unknown #
point $-1 61.752372814111759 17.053180200091681 8.3977622388736588 #
point $-1 61.752372814111752 17.053180200091681 1.5695632377693585 #
edge $-1 $654 1 $654 0 $404 $-1 forward 7 unknown #
vertex $-1 $405 $655 #
ellipse-curve $-1 57.837319891738005 18.671272041014749 4.3016643871217237 0.73135370988377701 0 0.68199835119979291 0.34099917559989645 0 -0.36567685494188851 1 I I #
point $-1 58.909672777221672 18.671272041014749 4.6179858833796281 #
edge $-1 $656 1 $656 0 $408 $-1 forward 7 unknown #
vertex $-1 $409 $657 #
ellipse-curve $-1 57.837319891738005 21.098409802399349 4.3016643871217237 0.73135370988377701 0 0.68199835119979291 0.34099917559989645 0 -0.36567685494188851 1 I I #
point $-1 58.909672777221672 21.098409802399349 4.6179858833796281 #
edge $-1 $658 1 $658 0 $412 $-1 forward 7 unknown #
vertex $-1 $413 $659 #
ellipse-curve $-1 57.837319891738005 23.525547563783949 4.3016643871217237 0.73135370988377701 0 0.68199835119979291 0.34099917559989645 0 -0.36567685494188851 1 I I #
point $-1 58.909672777221672 23.525547563783949 4.6179858833796281 #
loop $-1 $-1 $423 $416 #
plane-surface $-1 0 0 8.3977622388736588 0 0 1 1 0 0 forward_v I I I I #
coedge $-1 $660 $661 $420 $559 forward $417 $-1 #
coedge $-1 $420 $419 $564 $662 reversed $179 $-1 #
edge $-1 $561 -20.483555272529674 $663 -11.147171373978846 $557 $664 forward 7 unknown #
coedge $-1 $426 $421 $661 $665 reversed $283 $-1 #
vertex $-1 $559 $666 #
straight-curve $-1 -61.752372814111759 -10.549204901199676 1.5695632377693443 0 -1 0 I I #
coedge $-1 $667 $423 $426 $568 forward $555 $-1 #
coedge $-1 $423 $667 $558 $662 forward $555 $-1 #
vertex $-1 $424 $668 #
straight-curve $-1 -76.039013358782611 -17.053180200091685 8.3977622388736606 -1 0 0 I I #
straight-curve $-1 -61.752372814111752 -17.053180200091685 1.5695632377693585 0.68199835119979291 0 0.73135370988377701 I I #
edge $-1 $427 17.053180200091685 $669 25.14363940470702 $426 $670 forward 7 unknown #
point $-1 -61.752372814111759 -17.053180200091685 8.3977622388736588 #
point $-1 -61.752372814111759 -17.053180200091685 1.5695632377693509 #
edge $-1 $671 1 $671 0 $430 $-1 forward 7 unknown #
vertex $-1 $431 $672 #
ellipse-curve $-1 -57.837319891738005 -23.525547563783952 4.3016643871217095 -0.73135370988377701 0 0.68199835119979291 0.34099917559989645 0 0.36567685494188851 1 I I #
point $-1 -58.227674426021885 -23.525547563783952 5.3493395932633909 #
edge $-1 $673 1 $673 0 $434 $-1 forward 7 unknown #
vertex $-1 $435 $674 #
ellipse-curve $-1 -57.837319891738005 -21.098409802399352 4.3016643871217095 -0.73135370988377701 0 0.68199835119979291 0.34099917559989645 0 0.36567685494188851 1 I I #
point $-1 -58.227674426021885 -21.098409802399352 5.3493395932633909 #
edge $-1 $675 1 $675 0 $438 $-1 forward 7 unknown #
vertex $-1 $439 $676 #
ellipse-curve $-1 -57.837319891738005 -18.671272041014753 4.3016643871217095 -0.73135370988377701 0 0.68199835119979291 0.34099917559989645 0 0.36567685494188851 1 I I #
point $-1 -58.227674426021885 -18.671272041014753 5.3493395932633909 #
plane-surface $-1 -61.752372814111759 0 0 1 0 0 0 0 -1 forward_v I I I I #
coedge $-1 $677 $445 $450 $590 forward $312 $-1 #
coedge $-1 $445 $677 $587 $678 forward $312 $-1 #
edge $-1 $588 14.286640544670853 $595 20.654038969650813 $445 $679 forward 7 unknown #
coedge $-1 $454 $448 $585 $678 reversed $455 $-1 #
vertex $-1 $586 $680 #
straight-curve $-1 -61.752372814111759 17.053180200091681 42.899798060783816 0 0 1 I I #
edge $-1 $595 6.5039752988920068 $593 14.594434503507342 $584 $681 forward 7 unknown #
coedge $-1 $592 $451 $454 $597 reversed $443 $-1 #
coedge $-1 $451 $591 $677 $682 reversed $443 $-1 #
vertex $-1 $682 $683 #
straight-curve $-1 -47.782621891536692 25.14363940470702 16.550287377943327 -0.68199835119979291 0 -0.73135370988377701 I I #
vertex $-1 $590 $684 #
straight-curve $-1 -61.752372814111752 17.053180200091681 1.5695632377693585 -0.68199835119979291 0 -0.73135370988377701 I I #
edge $-1 $685 -8.3977622388736588 $456 -1.5695632377693509 $591 $686 forward 7 unknown #
point $-1 -61.752372814111759 25.143639404707017 1.5695632377693509 #
point $-1 -61.752372814111759 17.053180200091681 1.5695632377693509 #
edge $-1 $687 1 $687 0 $459 $-1 forward 7 unknown #
vertex $-1 $460 $688 #
ellipse-curve $-1 -57.837319891738005 18.671272041014749 4.3016643871217095 -0.73135370988377701 0 0.68199835119979291 0.34099917559989645 0 0.36567685494188851 1 I I #
point $-1 -58.227674426021885 18.671272041014749 5.3493395932633909 #
edge $-1 $689 1 $689 0 $463 $-1 forward 7 unknown #
vertex $-1 $464 $690 #
ellipse-curve $-1 -57.837319891738005 21.098409802399349 4.3016643871217095 -0.73135370988377701 0 0.68199835119979291 0.34099917559989645 0 0.36567685494188851 1 I I #
point $-1 -58.227674426021885 21.098409802399349 5.3493395932633909 #
edge $-1 $691 1 $691 0 $467 $-1 forward 7 unknown #
vertex $-1 $468 $692 #
ellipse-curve $-1 -57.837319891738005 23.525547563783949 4.3016643871217095 -0.73135370988377701 0 0.68199835119979291 0.34099917559989645 0 0.36567685494188851 1 I I #
point $-1 -58.227674426021885 23.525547563783949 5.3493395932633909 #
plane-surface $-1 61.752372814111759 0 0 -1 0 0 0 0 1 forward_v I I I I #
coedge $-1 $476 $474 $478 $617 reversed $341 $-1 #
edge $-1 $489 -8.3977622388736588 $619 8.3977622388736588 $488 $693 forward 7 unknown #
vertex $-1 $617 $694 #
straight-curve $-1 -61.752372814111759 -25.14363940470702 0 0 0 -1 I I #
edge $-1 $615 -25.14363940470702 $619 25.14363940470702 $613 $695 forward 7 unknown #
straight-curve $-1 0 -25.14363940470702 -8.3977622388736588 -1 0 0 I I #
vertex $-1 $481 $696 #
straight-curve $-1 0 25.14363940470702 -8.3977622388736588 1 0 0 I I #
point $-1 61.752372814111759 25.14363940470702 -8.3977622388736588 #
point $-1 61.752372814111759 -25.14363940470702 -8.3977622388736588 #
straight-curve $-1 -61.752372814111759 0 8.3977622388736588 0 -1 0 I I #
point $-1 -61.752372814111759 25.14363940470702 8.3977622388736588 #
point $-1 -61.752372814111759 -25.14363940470702 8.3977622388736588 #
straight-curve $-1 61.752372814111759 -25.14363940470702 0 0 0 -1 I I #
straight-curve $-1 61.752372814111759 25.14363940470702 0 0 0 -1 I I #
coedge $-1 $500 $499 $507 $633 forward $225 $-1 #
edge $-1 $636 -25.14363940470702 $503 -17.053180200091685 $502 $697 forward 7 unknown #
straight-curve $-1 33.923996916883482 -17.053180200091685 8.3977622388736535 -1 0 0 I I #
point $-1 61.752372814111759 -17.053180200091685 8.3977622388736588 #
straight-curve $-1 55.384974389131798 -10.549204901199676 8.3977622388736535 0 -1 0 I I #
edge $-1 $508 55.384974389131798 $636 61.752372814111759 $507 $698 forward 7 unknown #
point $-1 55.384974389131798 -25.14363940470702 8.3977622388736535 #
point $-1 55.384974389131798 -17.053180200091685 8.3977622388736535 #
vertex $-1 $629 $699 #
straight-curve $-1 61.752372814111759 -25.14363940470702 0 0 0 -1 I I #
vertex $-1 $515 $700 #
point $-1 58.178319067337895 -23.525547563783952 3.9359875321798348 #
vertex $-1 $519 $701 #
point $-1 58.178319067337895 -21.098409802399352 3.9359875321798348 #
vertex $-1 $523 $702 #
point $-1 58.178319067337895 -18.671272041014753 3.9359875321798348 #
coedge $-1 $528 $536 $529 $646 forward $389 $-1 #
edge $-1 $648 -14.594434503507342 $537 -6.5039752988920068 $528 $703 forward 7 unknown #
edge $-1 $652 -61.752372814111759 $648 -55.384974389131798 $529 $704 forward 7 unknown #
edge $-1 $652 -8.3977622388736588 $534 -1.5695632377693585 $533 $705 forward 7 unknown #
vertex $-1 $531 $706 #
straight-curve $-1 5.6676054496375663 25.14363940470702 61.713114329670049 -0.68199835119979291 0 0.73135370988377701 I I #
point $-1 61.752372814111752 25.143639404707017 1.5695632377693585 #
point $-1 55.384974389131798 17.053180200091681 8.3977622388736535 #
vertex $-1 $540 $707 #
straight-curve $-1 61.752372814111759 0 8.3977622388736588 0 1 0 I I #
vertex $-1 $543 $708 #
point $-1 58.178319067337895 18.671272041014749 3.9359875321798348 #
vertex $-1 $547 $709 #
point $-1 58.178319067337895 21.098409802399349 3.9359875321798348 #
vertex $-1 $551 $710 #
point $-1 58.178319067337895 23.525547563783949 3.9359875321798348 #
coedge $-1 $661 $557 $667 $711 reversed $417 $-1 #
coedge $-1 $557 $660 $560 $665 forward $417 $-1 #
edge $-1 $663 -14.594434503507344 $565 -6.5039752988920085 $564 $712 forward 7 unknown #
vertex $-1 $559 $713 #
straight-curve $-1 -47.782621891536692 -25.14363940470702 16.550287377943327 0.68199835119979291 0 0.73135370988377701 I I #
edge $-1 $669 -8.3977622388736588 $561 -1.5695632377693511 $560 $714 forward 7 unknown #
point $-1 -61.752372814111759 -25.14363940470702 1.5695632377693511 #
coedge $-1 $564 $563 $660 $711 forward $555 $-1 #
point $-1 -55.384974389131798 -17.053180200091685 8.3977622388736588 #
vertex $-1 $568 $715 #
straight-curve $-1 -61.752372814111759 0 8.3977622388736588 0 -1 0 I I #
vertex $-1 $571 $716 #
point $-1 -57.496320716138108 -23.525547563783952 4.667341242063598 #
vertex $-1 $575 $717 #
point $-1 -57.496320716138108 -21.098409802399352 4.667341242063598 #
vertex $-1 $579 $718 #
point $-1 -57.496320716138108 -18.671272041014753 4.667341242063598 #
coedge $-1 $585 $584 $592 $682 forward $312 $-1 #
edge $-1 $685 -25.14363940470702 $588 -17.053180200091681 $587 $719 forward 7 unknown #
straight-curve $-1 -76.039013358782611 17.053180200091681 8.3977622388736606 1 0 0 I I #
point $-1 -61.752372814111759 17.053180200091681 8.3977622388736588 #
straight-curve $-1 -55.384974389131798 10.549204901199674 8.397762238873657 0 1 0 I I #
edge $-1 $593 55.384974389131798 $685 61.752372814111759 $592 $720 forward 7 unknown #
point $-1 -55.384974389131798 25.143639404707017 8.3977622388736588 #
point $-1 -55.384974389131798 17.053180200091681 8.3977622388736588 #
vertex $-1 $682 $721 #
straight-curve $-1 -61.752372814111759 25.14363940470702 0 0 0 -1 I I #
vertex $-1 $600 $722 #
point $-1 -57.496320716138108 18.671272041014749 4.667341242063598 #
vertex $-1 $604 $723 #
point $-1 -57.496320716138108 21.098409802399349 4.667341242063598 #
vertex $-1 $608 $724 #
point $-1 -57.496320716138108 23.525547563783949 4.667341242063598 #
straight-curve $-1 -61.752372814111759 25.14363940470702 0 0 0 -1 I I #
point $-1 -61.752372814111759 -25.14363940470702 -8.3977622388736588 #
straight-curve $-1 -61.752372814111759 0 -8.3977622388736588 0 1 0 I I #
point $-1 -61.752372814111759 25.14363940470702 -8.3977622388736588 #
straight-curve $-1 61.752372814111759 0 8.3977622388736588 0 1 0 I I #
straight-curve $-1 0 -25.14363940470702 8.3977622388736588 1 0 0 I I #
point $-1 61.752372814111759 -25.14363940470702 8.3977622388736588 #
point $-1 57.47164303679611 -23.525547563783952 3.9606652115218268 #
point $-1 57.47164303679611 -21.098409802399352 3.9606652115218268 #
point $-1 57.47164303679611 -18.671272041014753 3.9606652115218268 #
straight-curve $-1 55.384974389131798 10.549204901199674 8.3977622388736535 0 -1 0 I I #
straight-curve $-1 0 25.14363940470702 8.3977622388736588 -1 0 0 I I #
straight-curve $-1 61.752372814111759 25.14363940470702 0 0 0 -1 I I #
point $-1 55.384974389131798 25.143639404707017 8.3977622388736535 #
point $-1 61.752372814111759 25.14363940470702 8.3977622388736588 #
point $-1 57.47164303679611 18.671272041014749 3.9606652115218268 #
point $-1 57.47164303679611 21.098409802399349 3.9606652115218268 #
point $-1 57.47164303679611 23.525547563783949 3.9606652115218268 #
edge $-1 $669 -61.752372814111759 $663 -55.384974389131798 $660 $725 forward 7 unknown #
straight-curve $-1 -55.384974389131798 -10.549204901199676 8.397762238873657 0 1 0 I I #
point $-1 -55.384974389131798 -25.14363940470702 8.3977622388736588 #
straight-curve $-1 -61.752372814111759 -25.14363940470702 0 0 0 -1 I I #
point $-1 -61.752372814111759 -25.14363940470702 8.3977622388736588 #
point $-1 -57.47164303679611 -23.525547563783952 3.9606652115218126 #
point $-1 -57.47164303679611 -21.098409802399352 3.9606652115218126 #
point $-1 -57.47164303679611 -18.671272041014753 3.9606652115218126 #
straight-curve $-1 -61.752372814111759 0 8.3977622388736588 0 -1 0 I I #
straight-curve $-1 0 25.14363940470702 8.3977622388736588 -1 0 0 I I #
point $-1 -61.752372814111759 25.14363940470702 8.3977622388736588 #
point $-1 -57.47164303679611 18.671272041014749 3.9606652115218126 #
point $-1 -57.47164303679611 21.098409802399349 3.9606652115218126 #
point $-1 -57.47164303679611 23.525547563783949 3.9606652115218126 #
straight-curve $-1 0 -25.14363940470702 8.3977622388736588 1 0 0 I I #
End-of-ACIS-data 