500 0 5 0           
7 Unknown 11 ACIS 5.0 NT 24 Fri Mar 26 20:11:05 1999 
-1 9.9999999999999995e-007 1e-010 
body $-1 $5 $-1 $6 #
body $-1 $7 $-1 $8 #
body $-1 $9 $-1 $10 #
body $-1 $11 $-1 $12 #
body $-1 $13 $-1 $14 #
lump $-1 $-1 $15 $0 #
transform $-1 1 0 0 0 1 0 0 0 1 45.421308023316143 21.618058565508662 9.6359261626844148 1 rotate no_reflect no_shear #
lump $-1 $-1 $16 $1 #
transform $-1 1 0 0 0 1 0 0 0 1 45.421308023316143 21.618058565508662 9.6359261626844148 1 rotate no_reflect no_shear #
lump $-1 $-1 $17 $2 #
transform $-1 1 0 0 0 1 0 0 0 1 45.421308023316143 21.618058565508662 9.6359261626844148 1 rotate no_reflect no_shear #
lump $-1 $-1 $18 $3 #
transform $-1 1 0 0 0 1 0 0 0 1 45.421308023316143 21.618058565508662 9.6359261626844148 1 rotate no_reflect no_shear #
lump $-1 $-1 $19 $4 #
transform $-1 1 0 0 0 1 0 0 0 1 45.421308023316143 21.618058565508662 9.6359261626844148 1 rotate no_reflect no_shear #
shell $-1 $-1 $-1 $20 $-1 $5 #
shell $-1 $-1 $-1 $21 $-1 $7 #
shell $-1 $-1 $-1 $22 $-1 $9 #
shell $-1 $-1 $-1 $23 $-1 $11 #
shell $-1 $-1 $-1 $24 $-1 $13 #
face $-1 $25 $26 $15 $-1 $27 forward single #
face $-1 $28 $29 $16 $-1 $30 reversed single #
face $-1 $31 $32 $17 $-1 $33 forward single #
face $-1 $34 $35 $18 $-1 $36 forward single #
face $-1 $37 $38 $19 $-1 $39 forward single #
face $-1 $40 $41 $15 $-1 $42 reversed single #
loop $-1 $-1 $43 $20 #
plane-surface $-1 0 0 9.6359261626844148 0 0 1 1 0 0 forward_v I I I I #
face $-1 $44 $45 $16 $-1 $46 reversed single #
loop $-1 $-1 $47 $21 #
plane-surface $-1 -26.163649759227368 -16.876360293299072 61.304560342292476 0.61566148304635926 0 0.78801074757464917 0.78801074757464917 0 -0.61566148304635926 forward_v I I I I #
face $-1 $48 $49 $17 $-1 $50 forward single #
loop $-1 $51 $52 $22 #
cone-surface $-1 42.387415705252067 -19.721379256624825 7.112088019160816 -0.61566148304635926 0 -0.78801074757464917 0.39400537378732459 0 -0.30783074152317963 1 I I 0 1 0.5 forward I I I I #
face $-1 $53 $54 $18 $-1 $55 forward single #
loop $-1 $56 $57 $23 #
cone-surface $-1 42.387415705252067 -16.876360293299072 7.112088019160816 -0.61566148304635926 0 -0.78801074757464917 0.39400537378732459 0 -0.30783074152317963 1 I I 0 1 0.5 forward I I I I #
face $-1 $58 $59 $19 $-1 $60 forward single #
loop $-1 $61 $62 $24 #
cone-surface $-1 42.387415705252067 -14.031341329973319 7.112088019160816 -0.61566148304635926 0 -0.78801074757464917 0.39400537378732459 0 -0.30783074152317963 1 I I 0 1 0.5 forward I I I I #
face $-1 $63 $64 $15 $-1 $65 reversed single #
loop $-1 $-1 $66 $25 #
plane-surface $-1 0 0 -9.6359261626844148 0 0 1 1 0 0 forward_v I I I I #
coedge $-1 $67 $68 $69 $70 forward $26 $-1 #
face $-1 $71 $72 $16 $-1 $73 forward single #
loop $-1 $-1 $74 $28 #
plane-surface $-1 29.764649959853259 -12.134662021089483 132.889518124836 0 -1 0 -0.61566148304635926 0 -0.78801074757464917 forward_v I I I I #
coedge $-1 $75 $76 $77 $78 reversed $29 $-1 #
face $-1 $-1 $79 $17 $-1 $80 forward single #
loop $-1 $81 $82 $31 #
cone-surface $-1 41.925669592967296 -19.721379256624825 6.5210799584798291 -0.61566148304635926 0 -0.78801074757464917 0.19700268689366229 0 -0.15391537076158981 1 I I -0.70710678118654746 0.70710678118654746 0.25 forward I I I I #
loop $-1 $-1 $83 $22 #
coedge $-1 $52 $52 $84 $85 reversed $32 $-1 #
face $-1 $-1 $86 $18 $-1 $87 forward single #
loop $-1 $88 $89 $34 #
cone-surface $-1 41.925669592967296 -16.876360293299072 6.5210799584798291 -0.61566148304635926 0 -0.78801074757464917 0.19700268689366229 0 -0.15391537076158981 1 I I -0.70710678118654746 0.70710678118654746 0.25 forward I I I I #
loop $-1 $-1 $90 $23 #
coedge $-1 $57 $57 $91 $92 reversed $35 $-1 #
face $-1 $-1 $93 $19 $-1 $94 forward single #
loop $-1 $95 $96 $37 #
cone-surface $-1 41.925669592967296 -14.031341329973319 6.5210799584798291 -0.61566148304635926 0 -0.78801074757464917 0.19700268689366229 0 -0.15391537076158981 1 I I -0.70710678118654746 0.70710678118654746 0.25 forward I I I I #
loop $-1 $-1 $97 $24 #
coedge $-1 $62 $62 $98 $99 reversed $38 $-1 #
face $-1 $100 $101 $15 $-1 $102 reversed single #
loop $-1 $-1 $103 $40 #
plane-surface $-1 0 -21.618058565508662 0 0 1 0 0 0 1 forward_v I I I I #
coedge $-1 $104 $105 $106 $107 forward $41 $-1 #
coedge $-1 $108 $43 $109 $110 forward $26 $-1 #
coedge $-1 $43 $108 $111 $112 forward $26 $-1 #
coedge $-1 $113 $114 $43 $70 reversed $115 $-1 #
edge $-1 $116 -21.618058565508662 $117 21.618058565508662 $69 $118 forward 7 unknown #
face $-1 $119 $120 $16 $-1 $121 reversed single #
loop $-1 $-1 $122 $44 #
plane-surface $-1 0 0 9.6359261626844148 0 0 1 1 0 0 forward_v I I I I #
coedge $-1 $123 $124 $125 $126 reversed $45 $-1 #
coedge $-1 $127 $47 $128 $129 reversed $29 $-1 #
coedge $-1 $47 $127 $123 $130 forward $29 $-1 #
coedge $-1 $125 $131 $47 $78 forward $132 $-1 #
edge $-1 $133 -13.179878418859126 $134 -3.6964818744399466 $77 $135 forward 7 unknown #
loop $-1 $-1 $84 $48 #
plane-surface $-1 -26.163649759227368 -16.876360293299072 61.304560342292476 0.61566148304635926 0 0.78801074757464917 0.78801074757464917 0 -0.61566148304635926 forward_v I I I I #
loop $-1 $-1 $136 $31 #
coedge $-1 $82 $82 $83 $137 reversed $49 $-1 #
coedge $-1 $83 $83 $82 $137 forward $51 $-1 #
coedge $-1 $84 $84 $52 $85 forward $79 $-1 #
edge $-1 $138 0 $138 6.2831853071796004 $84 $139 forward 7 unknown #
loop $-1 $-1 $91 $53 #
plane-surface $-1 -26.163649759227368 -16.876360293299072 61.304560342292476 0.61566148304635926 0 0.78801074757464917 0.78801074757464917 0 -0.61566148304635926 forward_v I I I I #
loop $-1 $-1 $140 $34 #
coedge $-1 $89 $89 $90 $141 reversed $54 $-1 #
coedge $-1 $90 $90 $89 $141 forward $56 $-1 #
coedge $-1 $91 $91 $57 $92 forward $86 $-1 #
edge $-1 $142 0 $142 6.2831853071796004 $91 $143 forward 7 unknown #
loop $-1 $-1 $98 $58 #
plane-surface $-1 -26.163649759227368 -16.876360293299072 61.304560342292476 0.61566148304635926 0 0.78801074757464917 0.78801074757464917 0 -0.61566148304635926 forward_v I I I I #
loop $-1 $-1 $144 $37 #
coedge $-1 $96 $96 $97 $145 reversed $59 $-1 #
coedge $-1 $97 $97 $96 $145 forward $61 $-1 #
coedge $-1 $98 $98 $62 $99 forward $93 $-1 #
edge $-1 $146 0 $146 6.2831853071796004 $98 $147 forward 7 unknown #
face $-1 $148 $149 $15 $-1 $150 reversed single #
loop $-1 $-1 $151 $63 #
plane-surface $-1 -45.421308023316143 0 0 1 0 0 0 0 -1 forward_v I I I I #
coedge $-1 $152 $111 $153 $154 forward $64 $-1 #
coedge $-1 $155 $66 $152 $156 forward $41 $-1 #
coedge $-1 $66 $155 $157 $158 forward $41 $-1 #
coedge $-1 $114 $113 $66 $107 reversed $115 $-1 #
edge $-1 $159 -21.618058565508662 $160 21.618058565508662 $106 $161 forward 7 unknown #
coedge $-1 $68 $67 $162 $163 forward $26 $-1 #
coedge $-1 $164 $165 $67 $110 reversed $149 $-1 #
edge $-1 $117 -45.421308023316143 $166 45.421308023316143 $109 $167 forward 7 unknown #
coedge $-1 $103 $168 $68 $112 reversed $64 $-1 #
edge $-1 $169 -45.421308023316143 $116 45.421308023316143 $111 $170 forward 7 unknown #
coedge $-1 $106 $69 $168 $171 forward $115 $-1 #
coedge $-1 $69 $106 $164 $172 reversed $115 $-1 #
loop $-1 $-1 $113 $148 #
vertex $-1 $70 $173 #
vertex $-1 $70 $174 #
straight-curve $-1 45.421308023316143 0 9.6359261626844148 0 1 0 I I #
face $-1 $-1 $132 $16 $-1 $175 reversed single #
loop $-1 $-1 $128 $71 #
plane-surface $-1 0 -21.618058565508662 0 0 1 0 0 0 1 forward_v I I I I #
coedge $-1 $176 $177 $124 $178 forward $72 $-1 #
coedge $-1 $124 $74 $76 $130 reversed $45 $-1 #
coedge $-1 $74 $123 $122 $178 reversed $45 $-1 #
coedge $-1 $179 $77 $74 $126 forward $132 $-1 #
edge $-1 $134 -61.068498439206138 $180 -56.808832899733588 $125 $181 forward 7 unknown #
coedge $-1 $76 $75 $176 $182 reversed $29 $-1 #
coedge $-1 $183 $184 $75 $129 forward $120 $-1 #
edge $-1 $185 54.743725529644635 $133 61.662569174686837 $128 $186 forward 7 unknown #
edge $-1 $187 83.923772401590057 $134 90.842616046632259 $123 $188 forward 7 unknown #
coedge $-1 $77 $179 $183 $189 forward $132 $-1 #
loop $-1 $-1 $125 $119 #
vertex $-1 $129 $190 #
vertex $-1 $78 $191 #
straight-curve $-1 45.421308023316143 -8.4381801466495361 5.3762606232118699 0 1 0 I I #
coedge $-1 $136 $136 $-1 $192 reversed $81 $-1 #
edge $-1 $193 0 $193 6.2831853071796004 $82 $194 forward 7 unknown #
vertex $-1 $85 $195 #
ellipse-curve $-1 42.695246446775243 -19.721379256624825 7.5060933929481353 0.61566148304635926 0 0.78801074757464917 0.39400537378732459 0 -0.30783074152317963 1 I I #
coedge $-1 $140 $140 $-1 $196 reversed $88 $-1 #
edge $-1 $197 0 $197 6.2831853071796004 $89 $198 forward 7 unknown #
vertex $-1 $92 $199 #
ellipse-curve $-1 42.695246446775243 -16.876360293299072 7.5060933929481353 0.61566148304635926 0 0.78801074757464917 0.39400537378732459 0 -0.30783074152317963 1 I I #
coedge $-1 $144 $144 $-1 $200 reversed $95 $-1 #
edge $-1 $201 0 $201 6.2831853071796004 $96 $202 forward 7 unknown #
vertex $-1 $99 $203 #
ellipse-curve $-1 42.695246446775243 -14.031341329973319 7.5060933929481353 0.61566148304635926 0 0.78801074757464917 0.39400537378732459 0 -0.30783074152317963 1 I I #
face $-1 $-1 $115 $15 $-1 $204 reversed single #
loop $-1 $-1 $164 $100 #
plane-surface $-1 0 21.618058565508662 0 0 -1 0 0 0 -1 forward_v I I I I #
coedge $-1 $205 $162 $165 $206 forward $101 $-1 #
coedge $-1 $168 $103 $104 $156 reversed $64 $-1 #
coedge $-1 $162 $205 $103 $154 reversed $101 $-1 #
edge $-1 $169 -9.6359261626844148 $207 9.6359261626844148 $153 $208 forward 7 unknown #
coedge $-1 $105 $104 $205 $209 forward $41 $-1 #
edge $-1 $160 -45.421308023316143 $207 45.421308023316143 $152 $210 forward 7 unknown #
coedge $-1 $165 $164 $105 $158 reversed $149 $-1 #
edge $-1 $211 -45.421308023316143 $159 45.421308023316143 $157 $212 forward 7 unknown #
vertex $-1 $107 $213 #
vertex $-1 $171 $214 #
straight-curve $-1 45.421308023316143 0 -9.6359261626844148 0 -1 0 I I #
coedge $-1 $151 $153 $108 $163 reversed $101 $-1 #
edge $-1 $166 -21.618058565508662 $169 21.618058565508662 $162 $215 forward 7 unknown #
coedge $-1 $157 $109 $114 $172 forward $149 $-1 #
coedge $-1 $109 $157 $151 $206 reversed $149 $-1 #
vertex $-1 $110 $216 #
straight-curve $-1 0 21.618058565508662 9.6359261626844148 -1 0 0 I I #
coedge $-1 $111 $152 $113 $171 reversed $64 $-1 #
vertex $-1 $163 $217 #
straight-curve $-1 0 -21.618058565508662 9.6359261626844148 1 0 0 I I #
edge $-1 $116 -9.6359261626844148 $160 9.6359261626844148 $113 $218 forward 7 unknown #
edge $-1 $117 -9.6359261626844148 $159 9.6359261626844148 $114 $219 forward 7 unknown #
point $-1 45.421308023316143 -21.618058565508662 9.6359261626844148 #
point $-1 45.421308023316143 21.618058565508662 9.6359261626844148 #
plane-surface $-1 45.421308023316143 0 0 -1 0 0 0 0 1 forward_v I I I I #
coedge $-1 $220 $122 $127 $182 forward $72 $-1 #
coedge $-1 $122 $220 $179 $221 forward $72 $-1 #
edge $-1 $180 -30.538983043389514 $187 -25.0868598903077 $122 $222 forward 7 unknown #
coedge $-1 $131 $125 $177 $221 reversed $132 $-1 #
vertex $-1 $126 $223 #
straight-curve $-1 45.421308023316143 -12.134662021089483 66.444759062418001 0 0 1 I I #
edge $-1 $187 3.6964818744399466 $185 13.179878418859126 $176 $224 forward 7 unknown #
coedge $-1 $184 $128 $131 $189 reversed $120 $-1 #
coedge $-1 $128 $183 $220 $225 reversed $120 $-1 #
vertex $-1 $225 $226 #
straight-curve $-1 -3.1694592094023495 -21.618058565508662 43.339529409748273 0.78801074757464917 0 -0.61566148304635926 I I #
vertex $-1 $182 $227 #
straight-curve $-1 -26.163649759227368 -12.134662021089483 61.304560342292476 0.78801074757464917 0 -0.61566148304635926 I I #
edge $-1 $228 -9.6359261626844148 $133 -5.3762606232118646 $131 $229 forward 7 unknown #
point $-1 45.421308023316143 -21.618058565508662 5.3762606232118646 #
point $-1 45.421308023316143 -12.134662021089483 5.3762606232118628 #
edge $-1 $230 1 $230 0 $136 $-1 forward 7 unknown #
vertex $-1 $137 $231 #
ellipse-curve $-1 42.079584963728884 -19.721379256624825 6.7180826453734914 0.61566148304635926 0 0.78801074757464917 0.39400537378732459 0 -0.30783074152317963 1 I I #
point $-1 43.089251820562566 -19.721379256624825 7.1982626514249608 #
edge $-1 $232 1 $232 0 $140 $-1 forward 7 unknown #
vertex $-1 $141 $233 #
ellipse-curve $-1 42.079584963728884 -16.876360293299072 6.7180826453734914 0.61566148304635926 0 0.78801074757464917 0.39400537378732459 0 -0.30783074152317963 1 I I #
point $-1 43.089251820562566 -16.876360293299072 7.1982626514249608 #
edge $-1 $234 1 $234 0 $144 $-1 forward 7 unknown #
vertex $-1 $145 $235 #
ellipse-curve $-1 42.079584963728884 -14.031341329973319 6.7180826453734914 0.61566148304635926 0 0.78801074757464917 0.39400537378732459 0 -0.30783074152317963 1 I I #
point $-1 43.089251820562566 -14.031341329973319 7.1982626514249608 #
plane-surface $-1 45.421308023316143 0 0 -1 0 0 0 0 1 forward_v I I I I #
coedge $-1 $153 $151 $155 $209 reversed $101 $-1 #
edge $-1 $166 -9.6359261626844148 $211 9.6359261626844148 $165 $236 forward 7 unknown #
vertex $-1 $209 $237 #
straight-curve $-1 -45.421308023316143 -21.618058565508662 0 0 0 -1 I I #
edge $-1 $207 -21.618058565508662 $211 21.618058565508662 $205 $238 forward 7 unknown #
straight-curve $-1 0 -21.618058565508662 -9.6359261626844148 -1 0 0 I I #
vertex $-1 $158 $239 #
straight-curve $-1 0 21.618058565508662 -9.6359261626844148 1 0 0 I I #
point $-1 45.421308023316143 21.618058565508662 -9.6359261626844148 #
point $-1 45.421308023316143 -21.618058565508662 -9.6359261626844148 #
straight-curve $-1 -45.421308023316143 0 9.6359261626844148 0 -1 0 I I #
point $-1 -45.421308023316143 21.618058565508662 9.6359261626844148 #
point $-1 -45.421308023316143 -21.618058565508662 9.6359261626844148 #
straight-curve $-1 45.421308023316143 -21.618058565508662 0 0 0 -1 I I #
straight-curve $-1 45.421308023316143 21.618058565508662 0 0 0 -1 I I #
coedge $-1 $177 $176 $184 $225 forward $72 $-1 #
edge $-1 $228 -21.618058565508662 $180 -12.134662021089483 $179 $240 forward 7 unknown #
straight-curve $-1 14.882324979926629 -12.134662021089483 9.635926162684413 -1 0 0 I I #
point $-1 45.421308023316143 -12.134662021089483 9.6359261626844148 #
straight-curve $-1 39.969184870234344 -8.4381801466495361 9.635926162684413 0 -1 0 I I #
edge $-1 $185 39.969184870234329 $228 45.421308023316143 $184 $241 forward 7 unknown #
point $-1 39.969184870234329 -21.618058565508662 9.6359261626844201 #
point $-1 39.969184870234329 -12.134662021089483 9.6359261626844201 #
vertex $-1 $221 $242 #
straight-curve $-1 45.421308023316143 -21.618058565508662 0 0 0 -1 I I #
vertex $-1 $192 $243 #
point $-1 42.473590337516207 -19.721379256624825 6.4102519038503116 #
vertex $-1 $196 $244 #
point $-1 42.473590337516207 -16.876360293299072 6.4102519038503116 #
vertex $-1 $200 $245 #
point $-1 42.473590337516207 -14.031341329973319 6.4102519038503116 #
straight-curve $-1 -45.421308023316143 21.618058565508662 0 0 0 -1 I I #
point $-1 -45.421308023316143 -21.618058565508662 -9.6359261626844148 #
straight-curve $-1 -45.421308023316143 0 -9.6359261626844148 0 1 0 I I #
point $-1 -45.421308023316143 21.618058565508662 -9.6359261626844148 #
straight-curve $-1 45.421308023316143 0 9.6359261626844148 0 1 0 I I #
straight-curve $-1 0 -21.618058565508662 9.6359261626844148 1 0 0 I I #
point $-1 45.421308023316143 -21.618058565508662 9.6359261626844148 #
point $-1 41.771754222205708 -19.721379256624825 6.3240772715861668 #
point $-1 41.771754222205708 -16.876360293299072 6.3240772715861668 #
point $-1 41.771754222205708 -14.031341329973319 6.3240772715861668 #
End-of-ACIS-data 