500 0 12 0           
7 Unknown 11 ACIS 5.0 NT 24 Fri Mar 26 18:34:44 1999 
-1 9.9999999999999995e-007 1e-010 
body $-1 $12 $-1 $13 #
body $-1 $14 $-1 $15 #
body $-1 $16 $-1 $17 #
body $-1 $18 $-1 $19 #
body $-1 $20 $-1 $21 #
body $-1 $22 $-1 $23 #
body $-1 $24 $-1 $25 #
body $-1 $26 $-1 $27 #
body $-1 $28 $-1 $29 #
body $-1 $30 $-1 $31 #
body $-1 $32 $-1 $33 #
body $-1 $34 $-1 $35 #
lump $-1 $-1 $36 $0 #
transform $-1 1 0 0 0 1 0 0 0 1 66.609698782311469 39.010389769350674 18.950879949630636 1 rotate no_reflect no_shear #
lump $-1 $-1 $37 $1 #
transform $-1 1 0 0 0 1 0 0 0 1 66.609698782311469 39.010389769350674 18.950879949630636 1 rotate no_reflect no_shear #
lump $-1 $-1 $38 $2 #
transform $-1 1 0 0 0 1 0 0 0 1 66.609698782311469 39.010389769350674 18.950879949630636 1 rotate no_reflect no_shear #
lump $-1 $-1 $39 $3 #
transform $-1 1 0 0 0 1 0 0 0 1 66.609698782311469 39.010389769350674 18.950879949630636 1 rotate no_reflect no_shear #
lump $-1 $-1 $40 $4 #
transform $-1 1 0 0 0 1 0 0 0 1 66.609698782311469 39.010389769350674 18.950879949630636 1 rotate no_reflect no_shear #
lump $-1 $-1 $41 $5 #
transform $-1 1 0 0 0 1 0 0 0 1 66.609698782311469 39.010389769350674 18.950879949630636 1 rotate no_reflect no_shear #
lump $-1 $-1 $42 $6 #
transform $-1 1 0 0 0 1 0 0 0 1 66.609698782311469 39.010389769350674 18.950879949630636 1 rotate no_reflect no_shear #
lump $-1 $-1 $43 $7 #
transform $-1 1 0 0 0 1 0 0 0 1 66.609698782311469 39.010389769350674 18.950879949630636 1 rotate no_reflect no_shear #
lump $-1 $-1 $44 $8 #
transform $-1 1 0 0 0 1 0 0 0 1 66.609698782311469 39.010389769350674 18.950879949630636 1 rotate no_reflect no_shear #
lump $-1 $-1 $45 $9 #
transform $-1 1 0 0 0 1 0 0 0 1 66.609698782311469 39.010389769350674 18.950879949630636 1 rotate no_reflect no_shear #
lump $-1 $-1 $46 $10 #
transform $-1 1 0 0 0 1 0 0 0 1 66.609698782311469 39.010389769350674 18.950879949630636 1 rotate no_reflect no_shear #
lump $-1 $-1 $47 $11 #
transform $-1 1 0 0 0 1 0 0 0 1 66.609698782311469 39.010389769350674 18.950879949630636 1 rotate no_reflect no_shear #
shell $-1 $-1 $-1 $48 $-1 $12 #
shell $-1 $-1 $-1 $49 $-1 $14 #
shell $-1 $-1 $-1 $50 $-1 $16 #
shell $-1 $-1 $-1 $51 $-1 $18 #
shell $-1 $-1 $-1 $52 $-1 $20 #
shell $-1 $-1 $-1 $53 $-1 $22 #
shell $-1 $-1 $-1 $54 $-1 $24 #
shell $-1 $-1 $-1 $55 $-1 $26 #
shell $-1 $-1 $-1 $56 $-1 $28 #
shell $-1 $-1 $-1 $57 $-1 $30 #
shell $-1 $-1 $-1 $58 $-1 $32 #
shell $-1 $-1 $-1 $59 $-1 $34 #
face $-1 $60 $61 $36 $-1 $62 forward single #
face $-1 $63 $64 $37 $-1 $65 forward single #
face $-1 $66 $67 $38 $-1 $68 forward single #
face $-1 $69 $70 $39 $-1 $71 reversed single #
face $-1 $72 $73 $40 $-1 $74 forward single #
face $-1 $75 $76 $41 $-1 $77 forward single #
face $-1 $78 $79 $42 $-1 $80 reversed single #
face $-1 $81 $82 $43 $-1 $83 forward single #
face $-1 $84 $85 $44 $-1 $86 forward single #
face $-1 $87 $88 $45 $-1 $89 reversed single #
face $-1 $90 $91 $46 $-1 $92 forward single #
face $-1 $93 $94 $47 $-1 $95 forward single #
face $-1 $96 $97 $36 $-1 $98 reversed single #
loop $-1 $-1 $99 $48 #
plane-surface $-1 0 0 18.950879949630636 0 0 1 1 0 0 forward_v I I I I #
face $-1 $100 $101 $37 $-1 $102 reversed single #
loop $-1 $-1 $103 $49 #
plane-surface $-1 -66.609698782311469 0 0 1 0 0 0 0 -1 forward_v I I I I #
face $-1 $104 $105 $38 $-1 $106 reversed single #
loop $-1 $-1 $107 $50 #
plane-surface $-1 66.609698782311469 0 0 -1 0 0 0 0 1 forward_v I I I I #
face $-1 $108 $109 $39 $-1 $110 reversed single #
loop $-1 $-1 $111 $51 #
plane-surface $-1 -48.937163172115859 46.133143729152472 162.77532173496263 1 0 0 0 -0.54463904215088732 -0.83867056331134215 forward_v I I I I #
face $-1 $112 $113 $40 $-1 $114 forward single #
loop $-1 $115 $116 $52 #
cone-surface $-1 -43.303081548679117 29.352520902607104 11.206417821342335 0 -0.54463904215088732 -0.83867056331134215 2.5 0 0 1 I I 0 1 2.5 forward I I I I #
face $-1 $117 $118 $41 $-1 $119 forward single #
loop $-1 $120 $121 $53 #
cone-surface $-1 -34.851959113523989 29.352520902607104 11.206417821342335 0 -0.54463904215088732 -0.83867056331134215 2.5 0 0 1 I I 0 1 2.5 forward I I I I #
face $-1 $122 $123 $42 $-1 $124 reversed single #
loop $-1 $-1 $125 $54 #
plane-surface $-1 -1.7763568394002505e-015 46.133143729152472 162.77532173496263 1 0 0 0 -0.54463904215088732 -0.83867056331134215 forward_v I I I I #
face $-1 $126 $127 $43 $-1 $128 forward single #
loop $-1 $129 $130 $55 #
cone-surface $-1 5.6340816234367423 29.352520902607104 11.206417821342335 0 -0.54463904215088732 -0.83867056331134215 2.5 0 0 1 I I 0 1 2.5 forward I I I I #
face $-1 $131 $132 $44 $-1 $133 forward single #
loop $-1 $134 $135 $56 #
cone-surface $-1 14.08520405859187 29.352520902607104 11.206417821342335 0 -0.54463904215088732 -0.83867056331134215 2.5 0 0 1 I I 0 1 2.5 forward I I I I #
face $-1 $136 $137 $45 $-1 $138 reversed single #
loop $-1 $-1 $139 $57 #
plane-surface $-1 48.937163172115859 -136.44089040671949 94.031273642650433 -1 0 0 0 -0.73135370988377701 0.68199835119979291 forward_v I I I I #
face $-1 $140 $141 $46 $-1 $142 forward single #
loop $-1 $143 $144 $58 #
cone-surface $-1 39.040236438054421 -31.054800025987149 10.503518155483292 0 0.73135370988377701 -0.68199835119979291 1 0 0 1 I I 0 1 1 forward I I I I #
face $-1 $145 $146 $47 $-1 $147 forward single #
loop $-1 $148 $149 $59 #
cone-surface $-1 44.978392478491287 -31.054800025987149 10.503518155483292 0 0.73135370988377701 -0.68199835119979291 1 0 0 1 I I 0 1 1 forward I I I I #
face $-1 $150 $151 $36 $-1 $152 reversed single #
loop $-1 $-1 $153 $60 #
plane-surface $-1 0 0 -18.950879949630636 0 0 1 1 0 0 forward_v I I I I #
coedge $-1 $154 $155 $156 $157 forward $61 $-1 #
face $-1 $158 $159 $37 $-1 $160 forward single #
loop $-1 $-1 $161 $63 #
plane-surface $-1 0 39.010389769350674 0 0 -1 0 0 0 -1 forward_v I I I I #
coedge $-1 $162 $163 $164 $165 forward $64 $-1 #
face $-1 $166 $167 $38 $-1 $168 forward single #
loop $-1 $-1 $169 $66 #
plane-surface $-1 0 39.010389769350674 0 0 -1 0 0 0 -1 forward_v I I I I #
coedge $-1 $170 $171 $172 $173 forward $67 $-1 #
face $-1 $174 $175 $39 $-1 $176 reversed single #
loop $-1 $-1 $177 $69 #
plane-surface $-1 -39.077520331101553 -26.423341356362009 51.048134535442671 0 0.54463904215088732 0.83867056331134215 1 0 0 forward_v I I I I #
coedge $-1 $178 $179 $180 $181 reversed $70 $-1 #
face $-1 $-1 $182 $40 $-1 $183 forward single #
loop $-1 $184 $185 $72 #
cone-surface $-1 -43.303081548679117 27.018000370703213 7.6115715139207758 0 -0.54463904215088732 -0.83867056331134215 1.25 0 0 1 I I -0.70710678118654746 0.70710678118654746 1.25 forward I I I I #
loop $-1 $-1 $186 $52 #
coedge $-1 $116 $116 $187 $188 reversed $73 $-1 #
face $-1 $-1 $189 $41 $-1 $190 forward single #
loop $-1 $191 $192 $75 #
cone-surface $-1 -34.851959113523989 27.018000370703213 7.6115715139207758 0 -0.54463904215088732 -0.83867056331134215 1.25 0 0 1 I I -0.70710678118654746 0.70710678118654746 1.25 forward I I I I #
loop $-1 $-1 $193 $53 #
coedge $-1 $121 $121 $194 $195 reversed $76 $-1 #
face $-1 $196 $197 $42 $-1 $198 reversed single #
loop $-1 $-1 $199 $78 #
plane-surface $-1 9.8596428410143062 -26.423341356362009 51.048134535442671 0 0.54463904215088732 0.83867056331134215 1 0 0 forward_v I I I I #
coedge $-1 $200 $201 $202 $203 reversed $79 $-1 #
face $-1 $-1 $204 $43 $-1 $205 forward single #
loop $-1 $206 $207 $81 #
cone-surface $-1 5.6340816234367423 27.018000370703213 7.6115715139207758 0 -0.54463904215088732 -0.83867056331134215 1.25 0 0 1 I I -0.70710678118654746 0.70710678118654746 1.25 forward I I I I #
loop $-1 $-1 $208 $55 #
coedge $-1 $130 $130 $209 $210 reversed $82 $-1 #
face $-1 $-1 $211 $44 $-1 $212 forward single #
loop $-1 $213 $214 $84 #
cone-surface $-1 14.08520405859187 27.018000370703213 7.6115715139207758 0 -0.54463904215088732 -0.83867056331134215 1.25 0 0 1 I I -0.70710678118654746 0.70710678118654746 1.25 forward I I I I #
loop $-1 $-1 $215 $56 #
coedge $-1 $135 $135 $216 $217 reversed $85 $-1 #
face $-1 $218 $219 $45 $-1 $220 reversed single #
loop $-1 $-1 $221 $87 #
plane-surface $-1 42.009314458272854 -39.010389769350695 3.1758641557478882 0 -0.73135370988377701 0.68199835119979291 1 0 0 forward_v I I I I #
coedge $-1 $222 $223 $224 $225 reversed $88 $-1 #
face $-1 $-1 $226 $46 $-1 $227 forward single #
loop $-1 $228 $229 $90 #
cone-surface $-1 39.040236438054421 -30.088753354909855 9.6026650826774365 0 0.73135370988377701 -0.68199835119979291 0.5 0 0 1 I I -0.70710678118654746 0.70710678118654746 0.5 forward I I I I #
loop $-1 $-1 $230 $58 #
coedge $-1 $144 $144 $231 $232 reversed $91 $-1 #
face $-1 $-1 $233 $47 $-1 $234 forward single #
loop $-1 $235 $236 $93 #
cone-surface $-1 44.978392478491287 -30.088753354909855 9.6026650826774365 0 0.73135370988377701 -0.68199835119979291 0.5 0 0 1 I I -0.70710678118654746 0.70710678118654746 0.5 forward I I I I #
loop $-1 $-1 $237 $59 #
coedge $-1 $149 $149 $238 $239 reversed $94 $-1 #
face $-1 $240 $241 $36 $-1 $242 reversed single #
loop $-1 $-1 $243 $96 #
plane-surface $-1 0 -39.010389769350674 0 0 1 0 0 0 1 forward_v I I I I #
coedge $-1 $244 $245 $246 $247 forward $97 $-1 #
coedge $-1 $248 $99 $249 $250 forward $61 $-1 #
coedge $-1 $99 $248 $251 $252 forward $61 $-1 #
coedge $-1 $253 $254 $99 $157 reversed $255 $-1 #
edge $-1 $256 -39.010389769350674 $257 39.010389769350674 $156 $258 forward 7 unknown #
face $-1 $259 $260 $37 $-1 $261 reversed single #
loop $-1 $-1 $164 $100 #
plane-surface $-1 -75.445966587409274 0 -14.516187811876865 0 0 1 1 0 0 forward_v I I I I #
coedge $-1 $262 $263 $163 $264 forward $101 $-1 #
coedge $-1 $265 $103 $266 $267 reversed $64 $-1 #
coedge $-1 $103 $265 $161 $264 reversed $64 $-1 #
coedge $-1 $268 $269 $103 $165 reversed $159 $-1 #
edge $-1 $270 -39.010389769350674 $271 39.010389769350674 $164 $272 forward 7 unknown #
face $-1 $273 $274 $38 $-1 $275 reversed single #
loop $-1 $-1 $276 $104 #
plane-surface $-1 75.445966587409274 0 -14.516187811876865 0 0 1 1 0 0 forward_v I I I I #
coedge $-1 $277 $278 $170 $279 forward $105 $-1 #
coedge $-1 $280 $107 $169 $279 reversed $67 $-1 #
coedge $-1 $107 $280 $281 $282 reversed $67 $-1 #
coedge $-1 $283 $284 $107 $173 reversed $167 $-1 #
edge $-1 $285 -39.010389769350674 $286 39.010389769350674 $172 $287 forward 7 unknown #
face $-1 $288 $289 $39 $-1 $290 reversed single #
loop $-1 $-1 $291 $108 #
plane-surface $-1 -29.217877490087247 46.133143729152472 162.77532173496263 -1 0 0 0 0.54463904215088732 0.83867056331134215 forward_v I I I I #
coedge $-1 $292 $293 $294 $295 reversed $109 $-1 #
coedge $-1 $179 $111 $296 $297 reversed $70 $-1 #
coedge $-1 $111 $178 $292 $298 reversed $70 $-1 #
coedge $-1 $294 $299 $111 $181 forward $300 $-1 #
edge $-1 $301 -15.943817904774438 $302 0.06447637028207609 $180 $303 forward 7 unknown #
loop $-1 $-1 $187 $112 #
plane-surface $-1 -39.077520331101553 -26.423341356362009 51.048134535442671 0 0.54463904215088732 0.83867056331134215 1 0 0 forward_v I I I I #
loop $-1 $-1 $304 $72 #
coedge $-1 $185 $185 $186 $305 reversed $113 $-1 #
coedge $-1 $186 $186 $185 $305 forward $115 $-1 #
coedge $-1 $187 $187 $116 $188 forward $182 $-1 #
edge $-1 $306 1.0375495135211366e-015 $306 6.2831853071796013 $187 $307 forward 7 unknown #
loop $-1 $-1 $194 $117 #
plane-surface $-1 -39.077520331101553 -26.423341356362009 51.048134535442671 0 0.54463904215088732 0.83867056331134215 1 0 0 forward_v I I I I #
loop $-1 $-1 $308 $75 #
coedge $-1 $192 $192 $193 $309 reversed $118 $-1 #
coedge $-1 $193 $193 $192 $309 forward $120 $-1 #
coedge $-1 $194 $194 $121 $195 forward $189 $-1 #
edge $-1 $310 1.0375495135211366e-015 $310 6.2831853071796013 $194 $311 forward 7 unknown #
face $-1 $312 $313 $42 $-1 $314 forward single #
loop $-1 $-1 $315 $122 #
plane-surface $-1 19.719285682028612 46.133143729152472 162.77532173496263 -1 0 0 0 0.54463904215088732 0.83867056331134215 forward_v I I I I #
coedge $-1 $316 $317 $318 $319 reversed $123 $-1 #
coedge $-1 $201 $125 $320 $321 reversed $79 $-1 #
coedge $-1 $125 $200 $316 $322 reversed $79 $-1 #
coedge $-1 $318 $323 $125 $203 forward $313 $-1 #
edge $-1 $324 -15.943817904774438 $325 0.06447637028207609 $202 $326 forward 7 unknown #
loop $-1 $-1 $209 $126 #
plane-surface $-1 9.8596428410143062 -26.423341356362009 51.048134535442671 0 0.54463904215088732 0.83867056331134215 1 0 0 forward_v I I I I #
loop $-1 $-1 $327 $81 #
coedge $-1 $207 $207 $208 $328 reversed $127 $-1 #
coedge $-1 $208 $208 $207 $328 forward $129 $-1 #
coedge $-1 $209 $209 $130 $210 forward $204 $-1 #
edge $-1 $329 1.0375495135211366e-015 $329 6.2831853071796013 $209 $330 forward 7 unknown #
loop $-1 $-1 $216 $131 #
plane-surface $-1 9.8596428410143062 -26.423341356362009 51.048134535442671 0 0.54463904215088732 0.83867056331134215 1 0 0 forward_v I I I I #
loop $-1 $-1 $331 $84 #
coedge $-1 $214 $214 $215 $332 reversed $132 $-1 #
coedge $-1 $215 $215 $214 $332 forward $134 $-1 #
coedge $-1 $216 $216 $135 $217 forward $211 $-1 #
edge $-1 $333 1.0375495135211366e-015 $333 6.2831853071796013 $216 $334 forward 7 unknown #
face $-1 $335 $336 $45 $-1 $337 forward single #
loop $-1 $-1 $338 $136 #
plane-surface $-1 35.081465744429849 -136.44089040671949 94.031273642650433 1 0 0 0 0.73135370988377701 -0.68199835119979291 forward_v I I I I #
coedge $-1 $339 $340 $341 $342 reversed $137 $-1 #
coedge $-1 $223 $139 $343 $344 reversed $88 $-1 #
coedge $-1 $139 $222 $339 $345 reversed $88 $-1 #
coedge $-1 $341 $346 $139 $225 forward $336 $-1 #
edge $-1 $347 29.210055434009071 $348 43.920495288465276 $224 $349 forward 7 unknown #
loop $-1 $-1 $231 $140 #
plane-surface $-1 42.009314458272854 -39.010389769350695 3.1758641557478882 0 -0.73135370988377701 0.68199835119979291 1 0 0 forward_v I I I I #
loop $-1 $-1 $350 $90 #
coedge $-1 $229 $229 $230 $351 reversed $141 $-1 #
coedge $-1 $230 $230 $229 $351 forward $143 $-1 #
coedge $-1 $231 $231 $144 $232 forward $226 $-1 #
edge $-1 $352 -1.0520727475121722e-015 $352 6.2831853071795996 $231 $353 forward 7 unknown #
loop $-1 $-1 $238 $145 #
plane-surface $-1 42.009314458272854 -39.010389769350695 3.1758641557478882 0 -0.73135370988377701 0.68199835119979291 1 0 0 forward_v I I I I #
loop $-1 $-1 $354 $93 #
coedge $-1 $236 $236 $237 $355 reversed $146 $-1 #
coedge $-1 $237 $237 $236 $355 forward $148 $-1 #
coedge $-1 $238 $238 $149 $239 forward $233 $-1 #
edge $-1 $356 -1.0520727475121722e-015 $356 6.2831853071795996 $238 $357 forward 7 unknown #
face $-1 $358 $359 $36 $-1 $360 reversed single #
loop $-1 $-1 $361 $150 #
plane-surface $-1 -66.609698782311469 0 0 1 0 0 0 0 -1 forward_v I I I I #
coedge $-1 $362 $251 $363 $364 forward $151 $-1 #
coedge $-1 $365 $153 $362 $366 forward $97 $-1 #
coedge $-1 $153 $365 $367 $368 forward $97 $-1 #
coedge $-1 $254 $253 $153 $247 reversed $255 $-1 #
edge $-1 $369 -39.010389769350674 $370 39.010389769350674 $246 $371 forward 7 unknown #
coedge $-1 $155 $154 $372 $373 forward $61 $-1 #
coedge $-1 $374 $375 $154 $250 reversed $359 $-1 #
edge $-1 $257 -66.609698782311469 $376 66.609698782311469 $249 $377 forward 7 unknown #
coedge $-1 $243 $378 $155 $252 reversed $151 $-1 #
edge $-1 $379 -66.609698782311469 $256 66.609698782311469 $251 $380 forward 7 unknown #
coedge $-1 $246 $156 $378 $381 forward $255 $-1 #
coedge $-1 $156 $246 $374 $382 reversed $255 $-1 #
loop $-1 $-1 $253 $358 #
vertex $-1 $157 $383 #
vertex $-1 $157 $384 #
straight-curve $-1 66.609698782311469 0 18.950879949630636 0 1 0 I I #
face $-1 $385 $386 $37 $-1 $387 reversed single #
loop $-1 $-1 $388 $158 #
plane-surface $-1 -84.282234392507078 0 -16.73353388075375 1 0 0 0 0 -1 forward_v I I I I #
coedge $-1 $389 $161 $390 $391 reversed $101 $-1 #
coedge $-1 $161 $389 $268 $392 reversed $101 $-1 #
edge $-1 $270 14.516187811876865 $393 18.950879949630636 $161 $394 forward 7 unknown #
coedge $-1 $163 $162 $395 $396 reversed $64 $-1 #
coedge $-1 $397 $398 $162 $267 forward $399 $-1 #
edge $-1 $400 -18.950879949630636 $271 -14.516187811876865 $266 $401 forward 7 unknown #
coedge $-1 $402 $164 $263 $392 forward $159 $-1 #
coedge $-1 $164 $402 $397 $403 forward $159 $-1 #
vertex $-1 $264 $404 #
vertex $-1 $403 $405 #
straight-curve $-1 -66.609698782311469 0 -14.516187811876865 0 -1 0 I I #
face $-1 $406 $407 $38 $-1 $408 reversed single #
loop $-1 $-1 $409 $166 #
plane-surface $-1 84.282234392507078 0 -16.73353388075375 -1 0 0 0 0 1 forward_v I I I I #
coedge $-1 $284 $283 $410 $411 forward $167 $-1 #
coedge $-1 $412 $169 $284 $413 reversed $105 $-1 #
coedge $-1 $169 $412 $414 $415 reversed $105 $-1 #
edge $-1 $416 -18.950879949630636 $286 -14.516187811876865 $169 $417 forward 7 unknown #
coedge $-1 $171 $170 $418 $419 reversed $67 $-1 #
coedge $-1 $420 $421 $171 $282 forward $422 $-1 #
edge $-1 $285 14.516187811876865 $423 18.950879949630636 $281 $424 forward 7 unknown #
coedge $-1 $276 $172 $421 $425 forward $167 $-1 #
coedge $-1 $172 $276 $277 $413 forward $167 $-1 #
vertex $-1 $282 $426 #
vertex $-1 $413 $427 #
straight-curve $-1 66.609698782311469 0 -14.516187811876865 0 1 0 I I #
face $-1 $-1 $300 $39 $-1 $428 forward single #
loop $-1 $-1 $429 $174 #
plane-surface $-1 0 39.010389769350674 0 0 -1 0 0 0 -1 forward_v I I I I #
coedge $-1 $430 $431 $432 $433 reversed $175 $-1 #
coedge $-1 $434 $177 $179 $298 forward $109 $-1 #
coedge $-1 $177 $434 $430 $435 forward $109 $-1 #
coedge $-1 $432 $180 $177 $295 forward $300 $-1 #
edge $-1 $302 -29.398403006565083 $436 -9.6791173245364703 $294 $437 forward 7 unknown #
coedge $-1 $438 $439 $178 $297 forward $289 $-1 #
edge $-1 $440 -72.832688967862481 $301 -62.436780917850683 $296 $441 forward 7 unknown #
edge $-1 $302 58.933076958738823 $440 78.020779538701333 $179 $442 forward 7 unknown #
coedge $-1 $180 $432 $438 $443 forward $300 $-1 #
loop $-1 $-1 $432 $288 #
vertex $-1 $297 $444 #
vertex $-1 $181 $445 #
straight-curve $-1 -48.937163172115859 23.066571864576236 18.950879949630632 0 -1 0 I I #
coedge $-1 $304 $304 $-1 $446 reversed $184 $-1 #
edge $-1 $447 0 $447 6.2831853071796004 $185 $448 forward 7 unknown #
vertex $-1 $188 $449 #
ellipse-curve $-1 -43.303081548679117 31.006242631822403 13.752925924624741 0 0.54463904215088732 0.83867056331134215 2.5 0 0 1 I I #
coedge $-1 $308 $308 $-1 $450 reversed $191 $-1 #
edge $-1 $451 0 $451 6.2831853071796004 $192 $452 forward 7 unknown #
vertex $-1 $195 $453 #
ellipse-curve $-1 -34.851959113523989 31.006242631822403 13.752925924624741 0 0.54463904215088732 0.83867056331134215 2.5 0 0 1 I I #
face $-1 $-1 $454 $42 $-1 $455 reversed single #
loop $-1 $-1 $202 $196 #
plane-surface $-1 0 0 18.950879949630636 0 0 1 1 0 0 forward_v I I I I #
coedge $-1 $456 $457 $458 $459 reversed $197 $-1 #
coedge $-1 $460 $199 $201 $322 forward $123 $-1 #
coedge $-1 $199 $460 $456 $461 forward $123 $-1 #
coedge $-1 $458 $202 $199 $319 forward $313 $-1 #
edge $-1 $325 -4.9298214205071549 $462 14.789464261521459 $318 $463 forward 7 unknown #
coedge $-1 $464 $465 $200 $321 forward $454 $-1 #
edge $-1 $466 -72.832688967862481 $324 -62.436780917850683 $320 $467 forward 7 unknown #
edge $-1 $325 58.933076958738823 $466 78.020779538701333 $201 $468 forward 7 unknown #
coedge $-1 $202 $458 $464 $469 forward $313 $-1 #
vertex $-1 $203 $470 #
vertex $-1 $203 $471 #
straight-curve $-1 -1.7763568394002505e-015 23.066571864576236 18.950879949630632 0 -1 0 I I #
coedge $-1 $327 $327 $-1 $472 reversed $206 $-1 #
edge $-1 $473 0 $473 6.2831853071796004 $207 $474 forward 7 unknown #
vertex $-1 $210 $475 #
ellipse-curve $-1 5.6340816234367423 31.006242631822403 13.752925924624741 0 0.54463904215088732 0.83867056331134215 2.5 0 0 1 I I #
coedge $-1 $331 $331 $-1 $476 reversed $213 $-1 #
edge $-1 $477 0 $477 6.2831853071796004 $214 $478 forward 7 unknown #
vertex $-1 $217 $479 #
ellipse-curve $-1 14.08520405859187 31.006242631822403 13.752925924624741 0 0.54463904215088732 0.83867056331134215 2.5 0 0 1 I I #
face $-1 $-1 $480 $45 $-1 $481 reversed single #
loop $-1 $-1 $224 $218 #
plane-surface $-1 0 0 18.950879949630636 0 0 1 1 0 0 forward_v I I I I #
coedge $-1 $482 $483 $484 $485 reversed $219 $-1 #
coedge $-1 $486 $221 $223 $345 forward $137 $-1 #
coedge $-1 $221 $486 $482 $487 forward $137 $-1 #
coedge $-1 $484 $224 $221 $342 forward $336 $-1 #
edge $-1 $348 -27.932505942979432 $488 -14.076808515293422 $341 $489 forward 7 unknown #
coedge $-1 $490 $491 $222 $344 forward $480 $-1 #
edge $-1 $492 -43.839772665577307 $347 -28.064756871694581 $343 $493 forward 7 unknown #
edge $-1 $348 -21.56961205049419 $492 -3.1101770075664475e-014 $223 $494 forward 7 unknown #
coedge $-1 $224 $484 $490 $495 forward $336 $-1 #
vertex $-1 $344 $496 #
vertex $-1 $225 $497 #
straight-curve $-1 48.937163172115859 -68.220445203359745 18.950879949630632 0 1 0 I I #
coedge $-1 $350 $350 $-1 $498 reversed $228 $-1 #
edge $-1 $499 0 $499 6.2831853071796004 $229 $500 forward 7 unknown #
vertex $-1 $232 $501 #
ellipse-curve $-1 39.040236438054421 -31.655169842122575 11.063372052689271 0 -0.73135370988377701 0.68199835119979291 1 0 0 1 I I #
coedge $-1 $354 $354 $-1 $502 reversed $235 $-1 #
edge $-1 $503 0 $503 6.2831853071796004 $236 $504 forward 7 unknown #
vertex $-1 $239 $505 #
ellipse-curve $-1 44.978392478491287 -31.655169842122575 11.063372052689271 0 -0.73135370988377701 0.68199835119979291 1 0 0 1 I I #
face $-1 $-1 $255 $36 $-1 $506 reversed single #
loop $-1 $-1 $374 $240 #
plane-surface $-1 0 39.010389769350674 0 0 -1 0 0 0 -1 forward_v I I I I #
coedge $-1 $507 $372 $375 $508 forward $241 $-1 #
coedge $-1 $378 $243 $244 $366 reversed $151 $-1 #
coedge $-1 $372 $507 $243 $364 reversed $241 $-1 #
edge $-1 $379 -18.950879949630636 $509 18.950879949630636 $363 $510 forward 7 unknown #
coedge $-1 $245 $244 $507 $511 forward $97 $-1 #
edge $-1 $370 -66.609698782311469 $509 66.609698782311469 $362 $512 forward 7 unknown #
coedge $-1 $375 $374 $245 $368 reversed $359 $-1 #
edge $-1 $513 -66.609698782311469 $369 66.609698782311469 $367 $514 forward 7 unknown #
vertex $-1 $247 $515 #
vertex $-1 $381 $516 #
straight-curve $-1 66.609698782311469 0 -18.950879949630636 0 -1 0 I I #
coedge $-1 $361 $363 $248 $373 reversed $241 $-1 #
edge $-1 $376 -39.010389769350674 $379 39.010389769350674 $372 $517 forward 7 unknown #
coedge $-1 $367 $249 $254 $382 forward $359 $-1 #
coedge $-1 $249 $367 $361 $508 reversed $359 $-1 #
vertex $-1 $250 $518 #
straight-curve $-1 0 39.010389769350674 18.950879949630636 -1 0 0 I I #
coedge $-1 $251 $362 $253 $381 reversed $151 $-1 #
vertex $-1 $373 $519 #
straight-curve $-1 0 -39.010389769350674 18.950879949630636 1 0 0 I I #
edge $-1 $256 -18.950879949630636 $370 18.950879949630636 $253 $520 forward 7 unknown #
edge $-1 $257 -18.950879949630636 $369 18.950879949630636 $254 $521 forward 7 unknown #
point $-1 66.609698782311469 -39.010389769350674 18.950879949630636 #
point $-1 66.609698782311469 39.010389769350674 18.950879949630636 #
face $-1 $-1 $399 $37 $-1 $522 reversed single #
loop $-1 $-1 $395 $259 #
plane-surface $-1 0 0 -18.950879949630636 0 0 1 1 0 0 forward_v I I I I #
coedge $-1 $523 $524 $389 $525 forward $260 $-1 #
coedge $-1 $263 $262 $388 $525 reversed $101 $-1 #
coedge $-1 $395 $526 $262 $391 forward $386 $-1 #
edge $-1 $527 -84.282234392507078 $393 -66.609698782311469 $262 $528 forward 7 unknown #
edge $-1 $270 -8.8362678050978047 $529 8.8362678050978047 $263 $530 forward 7 unknown #
vertex $-1 $264 $531 #
straight-curve $-1 -66.609698782311469 39.010389769350674 0 0 0 -1 I I #
coedge $-1 $532 $390 $265 $396 forward $386 $-1 #
edge $-1 $393 -39.010389769350674 $400 39.010389769350674 $395 $533 forward 7 unknown #
coedge $-1 $534 $266 $269 $403 reversed $399 $-1 #
coedge $-1 $266 $534 $532 $535 reversed $399 $-1 #
loop $-1 $-1 $266 $385 #
vertex $-1 $535 $536 #
straight-curve $-1 -66.609698782311469 -39.010389769350674 0 0 0 1 I I #
coedge $-1 $269 $268 $524 $537 forward $159 $-1 #
edge $-1 $538 -8.8362678050978047 $271 8.8362678050978047 $397 $539 forward 7 unknown #
point $-1 -66.609698782311469 39.010389769350674 -14.516187811876865 #
point $-1 -66.609698782311469 -39.010389769350674 -14.516187811876865 #
face $-1 $-1 $422 $38 $-1 $540 reversed single #
loop $-1 $-1 $418 $273 #
plane-surface $-1 0 0 -18.950879949630636 0 0 1 1 0 0 forward_v I I I I #
coedge $-1 $541 $410 $542 $543 forward $274 $-1 #
coedge $-1 $409 $544 $276 $411 reversed $274 $-1 #
edge $-1 $545 -39.010389769350674 $546 39.010389769350674 $410 $547 forward 7 unknown #
coedge $-1 $278 $277 $544 $548 forward $105 $-1 #
edge $-1 $546 -8.8362678050978047 $286 8.8362678050978047 $277 $549 forward 7 unknown #
coedge $-1 $550 $418 $278 $415 forward $407 $-1 #
edge $-1 $416 -8.8362678050978047 $551 8.8362678050978047 $278 $552 forward 7 unknown #
vertex $-1 $415 $553 #
straight-curve $-1 66.609698782311469 39.010389769350674 0 0 0 1 I I #
coedge $-1 $414 $554 $280 $419 forward $407 $-1 #
edge $-1 $423 -39.010389769350674 $416 39.010389769350674 $418 $555 forward 7 unknown #
coedge $-1 $542 $281 $554 $556 reversed $422 $-1 #
coedge $-1 $281 $542 $283 $425 reversed $422 $-1 #
loop $-1 $-1 $281 $406 #
vertex $-1 $282 $557 #
straight-curve $-1 66.609698782311469 -39.010389769350674 0 0 0 -1 I I #
edge $-1 $285 -8.8362678050978047 $545 8.8362678050978047 $421 $558 forward 7 unknown #
point $-1 66.609698782311469 -39.010389769350674 -14.516187811876865 #
point $-1 66.609698782311469 39.010389769350674 -14.516187811876865 #
plane-surface $-1 0 0 18.950879949630636 0 0 1 1 0 0 forward_v I I I I #
coedge $-1 $439 $438 $431 $559 forward $289 $-1 #
coedge $-1 $431 $291 $293 $435 reversed $175 $-1 #
coedge $-1 $291 $430 $429 $559 reversed $175 $-1 #
coedge $-1 $299 $294 $291 $433 forward $300 $-1 #
edge $-1 $436 -0.06447637028207609 $560 15.943817904774438 $432 $561 forward 7 unknown #
coedge $-1 $293 $292 $439 $562 reversed $109 $-1 #
edge $-1 $563 -78.020779538701333 $436 -58.933076958738823 $430 $564 forward 7 unknown #
vertex $-1 $295 $565 #
straight-curve $-1 -19.538760165550777 23.002095494294153 18.950879949630636 1 0 0 I I #
coedge $-1 $429 $296 $299 $443 reversed $289 $-1 #
coedge $-1 $296 $429 $434 $562 forward $289 $-1 #
vertex $-1 $297 $566 #
straight-curve $-1 -48.937163172115859 39.010389769350674 81.387660867481316 0 0 1 I I #
straight-curve $-1 -48.937163172115859 -26.423341356362009 51.048134535442671 0 0.83867056331134215 -0.54463904215088732 I I #
edge $-1 $560 29.217877490087247 $301 48.937163172115859 $438 $567 forward 7 unknown #
point $-1 -48.937163172115859 39.010389769350674 18.950879949630636 #
point $-1 -48.937163172115859 23.00209549429416 18.950879949630632 #
edge $-1 $568 1 $568 0 $304 $-1 forward 7 unknown #
vertex $-1 $305 $569 #
ellipse-curve $-1 -43.303081548679117 27.698799173391823 8.6599097180599536 0 0.54463904215088732 0.83867056331134215 2.5 0 0 1 I I #
point $-1 -40.803081548679117 31.006242631822388 13.752925924624714 #
edge $-1 $570 1 $570 0 $308 $-1 forward 7 unknown #
vertex $-1 $309 $571 #
ellipse-curve $-1 -34.851959113523989 27.698799173391823 8.6599097180599536 0 0.54463904215088732 0.83867056331134215 2.5 0 0 1 I I #
point $-1 -32.351959113523989 31.006242631822388 13.752925924624714 #
loop $-1 $-1 $320 $312 #
plane-surface $-1 0 39.010389769350674 0 0 -1 0 0 0 -1 forward_v I I I I #
coedge $-1 $457 $315 $317 $461 reversed $197 $-1 #
coedge $-1 $315 $456 $572 $573 reversed $197 $-1 #
coedge $-1 $323 $318 $315 $459 forward $313 $-1 #
edge $-1 $462 -0.06447637028207609 $574 15.943817904774438 $458 $575 forward 7 unknown #
coedge $-1 $317 $316 $465 $576 reversed $123 $-1 #
edge $-1 $577 -78.020779538701333 $462 -58.933076958738823 $456 $578 forward 7 unknown #
vertex $-1 $319 $579 #
straight-curve $-1 4.9298214205071531 23.002095494294153 18.950879949630636 1 0 0 I I #
coedge $-1 $572 $320 $323 $469 reversed $454 $-1 #
coedge $-1 $320 $572 $460 $576 forward $454 $-1 #
vertex $-1 $321 $580 #
straight-curve $-1 -1.7763568394002505e-015 39.010389769350674 81.387660867481316 0 0 1 I I #
straight-curve $-1 -1.7763568394002505e-015 -26.423341356362009 51.048134535442671 0 0.83867056331134215 -0.54463904215088732 I I #
edge $-1 $574 -19.719285682028612 $324 1.7763568394002505e-015 $464 $581 forward 7 unknown #
point $-1 -1.7763568394002505e-015 39.010389769350674 18.950879949630636 #
point $-1 -1.7763568394002505e-015 23.00209549429416 18.950879949630632 #
edge $-1 $582 1 $582 0 $327 $-1 forward 7 unknown #
vertex $-1 $328 $583 #
ellipse-curve $-1 5.6340816234367423 27.698799173391823 8.6599097180599536 0 0.54463904215088732 0.83867056331134215 2.5 0 0 1 I I #
point $-1 8.1340816234367423 31.006242631822388 13.752925924624714 #
edge $-1 $584 1 $584 0 $331 $-1 forward 7 unknown #
vertex $-1 $332 $585 #
ellipse-curve $-1 14.08520405859187 27.698799173391823 8.6599097180599536 0 0.54463904215088732 0.83867056331134215 2.5 0 0 1 I I #
point $-1 16.58520405859187 31.006242631822388 13.752925924624714 #
loop $-1 $-1 $343 $335 #
plane-surface $-1 0 -39.010389769350674 0 0 1 0 0 0 1 forward_v I I I I #
coedge $-1 $483 $338 $340 $487 reversed $219 $-1 #
coedge $-1 $338 $482 $586 $587 reversed $219 $-1 #
coedge $-1 $346 $341 $338 $485 forward $336 $-1 #
edge $-1 $488 -43.920495288465276 $588 -29.210055434009071 $484 $589 forward 7 unknown #
coedge $-1 $340 $339 $491 $590 reversed $137 $-1 #
edge $-1 $591 3.1101770075664475e-014 $488 21.56961205049419 $482 $592 forward 7 unknown #
vertex $-1 $342 $593 #
straight-curve $-1 21.004657229136427 -24.299949914894473 18.950879949630636 -1 0 0 I I #
coedge $-1 $586 $343 $346 $495 reversed $480 $-1 #
coedge $-1 $343 $586 $486 $590 forward $480 $-1 #
vertex $-1 $344 $594 #
straight-curve $-1 48.937163172115859 -39.010389769350674 47.015636821325216 0 0 1 I I #
straight-curve $-1 48.937163172115859 -39.010389769350695 3.1758641557478882 0 -0.68199835119979291 -0.73135370988377701 I I #
edge $-1 $588 35.081465744429849 $347 48.937163172115859 $490 $595 forward 7 unknown #
point $-1 48.937163172115859 -39.010389769350674 18.950879949630636 #
point $-1 48.937163172115859 -24.299949914894473 18.950879949630636 #
edge $-1 $596 1 $596 0 $350 $-1 forward 7 unknown #
vertex $-1 $351 $597 #
ellipse-curve $-1 39.040236438054421 -30.454430209851743 9.9436642582773338 0 -0.73135370988377701 0.68199835119979291 1 0 0 1 I I #
point $-1 40.040236438054421 -31.655169842122554 11.06337205268925 #
edge $-1 $598 1 $598 0 $354 $-1 forward 7 unknown #
vertex $-1 $355 $599 #
ellipse-curve $-1 44.978392478491287 -30.454430209851743 9.9436642582773338 0 -0.73135370988377701 0.68199835119979291 1 0 0 1 I I #
point $-1 45.978392478491287 -31.655169842122554 11.06337205268925 #
plane-surface $-1 66.609698782311469 0 0 -1 0 0 0 0 1 forward_v I I I I #
coedge $-1 $363 $361 $365 $511 reversed $241 $-1 #
edge $-1 $376 -18.950879949630636 $513 18.950879949630636 $375 $600 forward 7 unknown #
vertex $-1 $511 $601 #
straight-curve $-1 -66.609698782311469 -39.010389769350674 0 0 0 -1 I I #
edge $-1 $509 -39.010389769350674 $513 39.010389769350674 $507 $602 forward 7 unknown #
straight-curve $-1 0 -39.010389769350674 -18.950879949630636 -1 0 0 I I #
vertex $-1 $368 $603 #
straight-curve $-1 0 39.010389769350674 -18.950879949630636 1 0 0 I I #
point $-1 66.609698782311469 39.010389769350674 -18.950879949630636 #
point $-1 66.609698782311469 -39.010389769350674 -18.950879949630636 #
straight-curve $-1 -66.609698782311469 0 18.950879949630636 0 -1 0 I I #
point $-1 -66.609698782311469 39.010389769350674 18.950879949630636 #
point $-1 -66.609698782311469 -39.010389769350674 18.950879949630636 #
straight-curve $-1 66.609698782311469 -39.010389769350674 0 0 0 -1 I I #
straight-curve $-1 66.609698782311469 39.010389769350674 0 0 0 -1 I I #
plane-surface $-1 0 -39.010389769350674 0 0 1 0 0 0 1 forward_v I I I I #
coedge $-1 $604 $388 $526 $605 reversed $260 $-1 #
coedge $-1 $388 $604 $402 $537 reversed $260 $-1 #
edge $-1 $529 -2.2173460688768856 $527 2.2173460688768856 $389 $606 forward 7 unknown #
coedge $-1 $390 $532 $523 $605 forward $386 $-1 #
vertex $-1 $391 $607 #
straight-curve $-1 0 39.010389769350674 -18.950879949630636 1 0 0 I I #
vertex $-1 $392 $608 #
straight-curve $-1 -75.445966587409274 39.010389769350674 -14.516187811876865 -1 0 0 I I #
point $-1 -66.609698782311469 39.010389769350674 -18.950879949630636 #
coedge $-1 $526 $395 $398 $535 forward $386 $-1 #
straight-curve $-1 -66.609698782311469 0 -18.950879949630636 0 -1 0 I I #
coedge $-1 $398 $397 $604 $609 forward $399 $-1 #
edge $-1 $400 -8.8362678050978047 $610 8.8362678050978047 $398 $611 forward 7 unknown #
point $-1 -66.609698782311469 -39.010389769350674 -18.950879949630636 #
edge $-1 $529 -39.010389769350674 $538 39.010389769350674 $524 $612 forward 7 unknown #
vertex $-1 $537 $613 #
straight-curve $-1 -75.445966587409274 -39.010389769350674 -14.516187811876865 1 0 0 I I #
plane-surface $-1 0 -39.010389769350674 0 0 1 0 0 0 1 forward_v I I I I #
coedge $-1 $544 $409 $550 $614 reversed $274 $-1 #
coedge $-1 $421 $420 $409 $543 reversed $422 $-1 #
edge $-1 $545 -2.2173460688768856 $615 2.2173460688768856 $409 $616 forward 7 unknown #
coedge $-1 $410 $541 $412 $548 reversed $274 $-1 #
vertex $-1 $411 $617 #
vertex $-1 $411 $618 #
straight-curve $-1 84.282234392507078 0 -14.516187811876865 0 1 0 I I #
edge $-1 $546 -2.2173460688768856 $551 2.2173460688768856 $544 $619 forward 7 unknown #
straight-curve $-1 75.445966587409274 39.010389769350674 -14.516187811876865 -1 0 0 I I #
coedge $-1 $554 $414 $541 $614 forward $407 $-1 #
vertex $-1 $614 $620 #
straight-curve $-1 75.445966587409274 39.010389769350674 -18.950879949630636 1 0 0 I I #
point $-1 66.609698782311469 39.010389769350674 -18.950879949630636 #
coedge $-1 $418 $550 $420 $556 forward $407 $-1 #
straight-curve $-1 66.609698782311469 0 -18.950879949630636 0 1 0 I I #
edge $-1 $615 -8.8362678050978047 $423 8.8362678050978047 $420 $621 forward 7 unknown #
point $-1 66.609698782311469 -39.010389769350674 -18.950879949630636 #
straight-curve $-1 75.445966587409274 -39.010389769350674 -14.516187811876865 1 0 0 I I #
edge $-1 $560 62.436780917850683 $563 72.832688967862481 $429 $622 forward 7 unknown #
vertex $-1 $443 $623 #
straight-curve $-1 -29.217877490087247 23.066571864576236 18.950879949630632 0 1 0 I I #
edge $-1 $563 9.6791173245364703 $440 29.398403006565083 $439 $624 forward 7 unknown #
vertex $-1 $562 $625 #
straight-curve $-1 -29.217877490087247 -26.423341356362009 51.048134535442671 0 -0.83867056331134215 0.54463904215088732 I I #
point $-1 -29.217877490087247 23.00209549429416 18.950879949630632 #
point $-1 -48.937163172115859 39.010389769350674 8.5549718996188275 #
straight-curve $-1 0 39.010389769350674 18.950879949630636 -1 0 0 I I #
vertex $-1 $446 $626 #
point $-1 -40.803081548679117 27.698799173391823 8.6599097180599536 #
vertex $-1 $450 $627 #
point $-1 -32.351959113523989 27.698799173391823 8.6599097180599536 #
coedge $-1 $465 $464 $457 $573 forward $454 $-1 #
edge $-1 $574 62.436780917850683 $577 72.832688967862481 $572 $628 forward 7 unknown #
vertex $-1 $469 $629 #
straight-curve $-1 19.719285682028612 23.066571864576236 18.950879949630632 0 1 0 I I #
edge $-1 $577 -14.789464261521459 $466 4.9298214205071549 $465 $630 forward 7 unknown #
vertex $-1 $576 $631 #
straight-curve $-1 19.719285682028612 -26.423341356362009 51.048134535442671 0 -0.83867056331134215 0.54463904215088732 I I #
point $-1 19.719285682028612 23.00209549429416 18.950879949630632 #
point $-1 -1.7763568394002505e-015 39.010389769350674 8.5549718996188275 #
straight-curve $-1 0 39.010389769350674 18.950879949630636 -1 0 0 I I #
vertex $-1 $472 $632 #
point $-1 8.1340816234367423 27.698799173391823 8.6599097180599536 #
vertex $-1 $476 $633 #
point $-1 16.58520405859187 27.698799173391823 8.6599097180599536 #
coedge $-1 $491 $490 $483 $587 forward $480 $-1 #
edge $-1 $588 28.064756871694581 $591 43.839772665577307 $586 $634 forward 7 unknown #
vertex $-1 $495 $635 #
straight-curve $-1 35.081465744429849 -68.220445203359745 18.950879949630632 0 -1 0 I I #
edge $-1 $591 14.076808515293422 $492 27.932505942979432 $491 $636 forward 7 unknown #
vertex $-1 $590 $637 #
straight-curve $-1 35.081465744429849 -39.010389769350695 3.1758641557478882 0 0.68199835119979291 0.73135370988377701 I I #
point $-1 35.081465744429849 -24.299949914894473 18.950879949630636 #
point $-1 48.937163172115859 -39.010389769350674 3.1758641557479108 #
straight-curve $-1 0 -39.010389769350674 18.950879949630636 1 0 0 I I #
vertex $-1 $498 $638 #
point $-1 40.040236438054421 -30.454430209851743 9.9436642582773338 #
vertex $-1 $502 $639 #
point $-1 45.978392478491287 -30.454430209851743 9.9436642582773338 #
straight-curve $-1 -66.609698782311469 39.010389769350674 0 0 0 -1 I I #
point $-1 -66.609698782311469 -39.010389769350674 -18.950879949630636 #
straight-curve $-1 -66.609698782311469 0 -18.950879949630636 0 1 0 I I #
point $-1 -66.609698782311469 39.010389769350674 -18.950879949630636 #
coedge $-1 $524 $523 $534 $609 reversed $260 $-1 #
edge $-1 $610 -39.010389769350674 $527 39.010389769350674 $523 $640 forward 7 unknown #
straight-curve $-1 -84.282234392507078 39.010389769350674 -16.73353388075375 0 0 -1 I I #
point $-1 -84.282234392507078 39.010389769350674 -18.950879949630636 #
point $-1 -84.282234392507078 39.010389769350674 -14.516187811876865 #
edge $-1 $538 -2.2173460688768856 $610 2.2173460688768856 $604 $641 forward 7 unknown #
vertex $-1 $605 $642 #
straight-curve $-1 -75.445966587409274 -39.010389769350674 -18.950879949630636 -1 0 0 I I #
straight-curve $-1 -84.282234392507078 0 -14.516187811876865 0 -1 0 I I #
point $-1 -84.282234392507078 -39.010389769350674 -14.516187811876865 #
edge $-1 $551 -39.010389769350674 $615 39.010389769350674 $541 $643 forward 7 unknown #
vertex $-1 $543 $644 #
straight-curve $-1 84.282234392507078 -39.010389769350674 -16.73353388075375 0 0 -1 I I #
point $-1 84.282234392507078 -39.010389769350674 -14.516187811876865 #
point $-1 84.282234392507078 39.010389769350674 -14.516187811876865 #
straight-curve $-1 84.282234392507078 39.010389769350674 -16.73353388075375 0 0 -1 I I #
point $-1 84.282234392507078 39.010389769350674 -18.950879949630636 #
straight-curve $-1 75.445966587409274 -39.010389769350674 -18.950879949630636 -1 0 0 I I #
straight-curve $-1 -29.217877490087247 39.010389769350674 81.387660867481316 0 0 -1 I I #
point $-1 -29.217877490087247 39.010389769350674 18.950879949630636 #
straight-curve $-1 -19.538760165550777 39.010389769350674 8.554971899618824 -1 0 0 I I #
point $-1 -29.217877490087247 39.010389769350674 8.5549718996188275 #
point $-1 -43.303081548679117 26.337201568014603 6.563233309781598 #
point $-1 -34.851959113523989 26.337201568014603 6.563233309781598 #
straight-curve $-1 19.719285682028612 39.010389769350674 81.387660867481316 0 0 -1 I I #
point $-1 19.719285682028612 39.010389769350674 18.950879949630636 #
straight-curve $-1 4.9298214205071531 39.010389769350674 8.554971899618824 -1 0 0 I I #
point $-1 19.719285682028612 39.010389769350674 8.5549718996188275 #
point $-1 5.6340816234367423 26.337201568014603 6.563233309781598 #
point $-1 14.08520405859187 26.337201568014603 6.563233309781598 #
straight-curve $-1 35.081465744429849 -39.010389769350674 47.015636821325216 0 0 -1 I I #
point $-1 35.081465744429849 -39.010389769350674 18.950879949630636 #
straight-curve $-1 21.004657229136427 -39.010389769350674 3.175864155747905 1 0 0 I I #
point $-1 35.081465744429849 -39.010389769350674 3.1758641557479108 #
point $-1 39.040236438054421 -29.723076499967966 9.2616659070775391 #
point $-1 44.978392478491287 -29.723076499967966 9.2616659070775391 #
straight-curve $-1 -84.282234392507078 0 -18.950879949630636 0 1 0 I I #
straight-curve $-1 -84.282234392507078 -39.010389769350674 -16.73353388075375 0 0 -1 I I #
point $-1 -84.282234392507078 -39.010389769350674 -18.950879949630636 #
straight-curve $-1 84.282234392507078 0 -18.950879949630636 0 -1 0 I I #
point $-1 84.282234392507078 -39.010389769350674 -18.950879949630636 #
End-of-ACIS-data 