500 0 13 0           
7 Unknown 11 ACIS 5.0 NT 24 Thu Mar 25 19:29:59 1999 
-1 9.9999999999999995e-007 1e-010 
body $-1 $13 $-1 $14 #
body $-1 $15 $-1 $16 #
body $-1 $17 $-1 $18 #
body $-1 $19 $-1 $20 #
body $-1 $21 $-1 $22 #
body $-1 $23 $-1 $24 #
body $-1 $25 $-1 $26 #
body $-1 $27 $-1 $28 #
body $-1 $29 $-1 $30 #
body $-1 $31 $-1 $32 #
body $-1 $33 $-1 $34 #
body $-1 $35 $-1 $36 #
body $-1 $37 $-1 $38 #
lump $-1 $-1 $39 $0 #
transform $-1 1 0 0 0 1 0 0 0 1 78.413037507248148 51.420162383785303 10.470932142271415 1 rotate no_reflect no_shear #
lump $-1 $-1 $40 $1 #
transform $-1 1 0 0 0 1 0 0 0 1 78.413037507248148 51.420162383785303 10.470932142271415 1 rotate no_reflect no_shear #
lump $-1 $-1 $41 $2 #
transform $-1 1 0 0 0 1 0 0 0 1 78.413037507248148 51.420162383785303 10.470932142271415 1 rotate no_reflect no_shear #
lump $-1 $-1 $42 $3 #
transform $-1 1 0 0 0 1 0 0 0 1 78.413037507248148 51.420162383785303 10.470932142271415 1 rotate no_reflect no_shear #
lump $-1 $-1 $43 $4 #
transform $-1 1 0 0 0 1 0 0 0 1 78.413037507248148 51.420162383785303 10.470932142271415 1 rotate no_reflect no_shear #
lump $-1 $-1 $44 $5 #
transform $-1 1 0 0 0 1 0 0 0 1 78.413037507248148 51.420162383785303 10.470932142271415 1 rotate no_reflect no_shear #
lump $-1 $-1 $45 $6 #
transform $-1 1 0 0 0 1 0 0 0 1 78.413037507248148 51.420162383785303 10.470932142271415 1 rotate no_reflect no_shear #
lump $-1 $-1 $46 $7 #
transform $-1 1 0 0 0 1 0 0 0 1 78.413037507248148 51.420162383785303 10.470932142271415 1 rotate no_reflect no_shear #
lump $-1 $-1 $47 $8 #
transform $-1 1 0 0 0 1 0 0 0 1 78.413037507248148 51.420162383785303 10.470932142271415 1 rotate no_reflect no_shear #
lump $-1 $-1 $48 $9 #
transform $-1 1 0 0 0 1 0 0 0 1 78.413037507248148 51.420162383785303 10.470932142271415 1 rotate no_reflect no_shear #
lump $-1 $-1 $49 $10 #
transform $-1 1 0 0 0 1 0 0 0 1 78.413037507248148 51.420162383785303 10.470932142271415 1 rotate no_reflect no_shear #
lump $-1 $-1 $50 $11 #
transform $-1 1 0 0 0 1 0 0 0 1 78.413037507248148 51.420162383785303 10.470932142271415 1 rotate no_reflect no_shear #
lump $-1 $-1 $51 $12 #
transform $-1 1 0 0 0 1 0 0 0 1 78.413037507248148 51.420162383785303 10.470932142271415 1 rotate no_reflect no_shear #
shell $-1 $-1 $-1 $52 $-1 $13 #
shell $-1 $-1 $-1 $53 $-1 $15 #
shell $-1 $-1 $-1 $54 $-1 $17 #
shell $-1 $-1 $-1 $55 $-1 $19 #
shell $-1 $-1 $-1 $56 $-1 $21 #
shell $-1 $-1 $-1 $57 $-1 $23 #
shell $-1 $-1 $-1 $58 $-1 $25 #
shell $-1 $-1 $-1 $59 $-1 $27 #
shell $-1 $-1 $-1 $60 $-1 $29 #
shell $-1 $-1 $-1 $61 $-1 $31 #
shell $-1 $-1 $-1 $62 $-1 $33 #
shell $-1 $-1 $-1 $63 $-1 $35 #
shell $-1 $-1 $-1 $64 $-1 $37 #
face $-1 $65 $66 $39 $-1 $67 forward single #
face $-1 $68 $69 $40 $-1 $70 forward single #
face $-1 $71 $72 $41 $-1 $73 forward single #
face $-1 $74 $75 $42 $-1 $76 reversed single #
face $-1 $77 $78 $43 $-1 $79 forward single #
face $-1 $80 $81 $44 $-1 $82 forward single #
face $-1 $83 $84 $45 $-1 $85 reversed single #
face $-1 $86 $87 $46 $-1 $88 forward single #
face $-1 $89 $90 $47 $-1 $91 forward single #
face $-1 $92 $93 $48 $-1 $94 reversed single #
face $-1 $95 $96 $49 $-1 $97 forward single #
face $-1 $98 $99 $50 $-1 $100 reversed single #
face $-1 $101 $102 $51 $-1 $103 forward single #
face $-1 $104 $105 $39 $-1 $106 reversed single #
loop $-1 $-1 $107 $52 #
plane-surface $-1 0 0 10.470932142271415 0 0 1 1 0 0 forward_v I I I I #
face $-1 $108 $109 $40 $-1 $110 reversed single #
loop $-1 $-1 $111 $53 #
plane-surface $-1 0 -51.420162383785303 0 0 1 0 0 0 1 forward_v I I I I #
face $-1 $112 $113 $41 $-1 $114 reversed single #
loop $-1 $-1 $115 $54 #
plane-surface $-1 0 51.420162383785303 0 0 -1 0 0 0 -1 forward_v I I I I #
face $-1 $116 $117 $42 $-1 $118 reversed single #
loop $-1 $-1 $119 $55 #
plane-surface $-1 70.672835467328056 -30.648165631844506 228.78098211719458 0 -1 0 -0.68199836817093118 0 -0.7313536940579346 forward_v I I I I #
face $-1 $120 $121 $43 $-1 $122 forward single #
loop $-1 $123 $124 $56 #
cone-surface $-1 75.434112348796674 -36.735194338904762 7.5269141510672917 -0.68199836817093118 0 -0.7313536940579346 0.7313536940579346 0 -0.68199836817093118 1 I I 0 1 1 forward I I I I #
face $-1 $125 $126 $44 $-1 $127 forward single #
loop $-1 $128 $129 $57 #
cone-surface $-1 75.434112348796674 -33.082977114668608 7.5269141510672917 -0.68199836817093118 0 -0.7313536940579346 0.7313536940579346 0 -0.68199836817093118 1 I I 0 1 1 forward I I I I #
face $-1 $130 $131 $45 $-1 $132 reversed single #
loop $-1 $-1 $133 $58 #
plane-surface $-1 70.672835467328056 8.521840189884351 228.78098211719458 0 -1 0 -0.68199836817093118 0 -0.7313536940579346 forward_v I I I I #
face $-1 $134 $135 $46 $-1 $136 forward single #
loop $-1 $137 $138 $59 #
cone-surface $-1 75.434112348796674 2.4348114828240952 7.5269141510672917 -0.68199836817093118 0 -0.7313536940579346 0.7313536940579346 0 -0.68199836817093118 1 I I 0 1 1 forward I I I I #
face $-1 $139 $140 $47 $-1 $141 forward single #
loop $-1 $142 $143 $60 #
cone-surface $-1 75.434112348796674 6.0870287070602487 7.5269141510672917 -0.68199836817093118 0 -0.7313536940579346 0.7313536940579346 0 -0.68199836817093118 1 I I 0 1 1 forward I I I I #
face $-1 $144 $145 $48 $-1 $146 reversed single #
loop $-1 $-1 $147 $61 #
plane-surface $-1 -191.22427628814717 -13.460438323717437 111.92987484117035 0 1 0 -0.71933980857756763 0 0.69465836192734942 forward_v I I I I #
face $-1 $148 $149 $49 $-1 $150 forward single #
loop $-1 $151 $152 $62 #
cone-surface $-1 -71.578629932521622 -6.7302191618587202 3.6187224318154412 0.71933980857756763 0 -0.69465836192734942 1.7366459048183736 0 1.7983495214439191 1 I I 0 1 2.5 forward I I I I #
face $-1 $153 $154 $50 $-1 $155 reversed single #
loop $-1 $-1 $156 $63 #
plane-surface $-1 -191.22427628814717 25.709567498011413 111.92987484117035 0 1 0 -0.71933980857756763 0 0.69465836192734942 forward_v I I I I #
face $-1 $157 $158 $51 $-1 $159 forward single #
loop $-1 $160 $161 $64 #
cone-surface $-1 -71.578629932521622 32.43978665987013 3.6187224318154412 0.71933980857756763 0 -0.69465836192734942 1.7366459048183736 0 1.7983495214439191 1 I I 0 1 2.5 forward I I I I #
face $-1 $162 $163 $39 $-1 $164 reversed single #
loop $-1 $-1 $165 $65 #
plane-surface $-1 0 0 -10.470932142271415 0 0 1 1 0 0 forward_v I I I I #
coedge $-1 $166 $167 $168 $169 forward $66 $-1 #
face $-1 $170 $171 $40 $-1 $172 reversed single #
loop $-1 $-1 $173 $68 #
plane-surface $-1 0 0 -10.470932142271415 0 0 1 1 0 0 forward_v I I I I #
coedge $-1 $174 $175 $176 $177 forward $69 $-1 #
face $-1 $178 $179 $41 $-1 $180 forward single #
loop $-1 $-1 $181 $71 #
plane-surface $-1 -78.413037507248148 0 0 1 0 0 0 0 -1 forward_v I I I I #
coedge $-1 $182 $183 $184 $185 forward $72 $-1 #
face $-1 $186 $187 $42 $-1 $188 reversed single #
loop $-1 $-1 $189 $74 #
plane-surface $-1 -36.282291779210468 -34.909085726786685 114.08565283073595 0.68199836817093118 0 0.7313536940579346 0.7313536940579346 0 -0.68199836817093118 forward_v I I I I #
coedge $-1 $190 $191 $192 $193 reversed $75 $-1 #
face $-1 $-1 $194 $43 $-1 $195 forward single #
loop $-1 $196 $197 $77 #
cone-surface $-1 73.905261702267794 -36.735194338904762 5.8874225918711929 -0.68199836817093118 0 -0.7313536940579346 0.3656768470289673 0 -0.34099918408546559 1 I I -0.70710678118654746 0.70710678118654746 0.5 forward I I I I #
loop $-1 $-1 $198 $56 #
coedge $-1 $124 $124 $199 $200 reversed $78 $-1 #
face $-1 $-1 $201 $44 $-1 $202 forward single #
loop $-1 $203 $204 $80 #
cone-surface $-1 73.905261702267794 -33.082977114668608 5.8874225918711929 -0.68199836817093118 0 -0.7313536940579346 0.3656768470289673 0 -0.34099918408546559 1 I I -0.70710678118654746 0.70710678118654746 0.5 forward I I I I #
loop $-1 $-1 $205 $57 #
coedge $-1 $129 $129 $206 $207 reversed $81 $-1 #
face $-1 $208 $209 $45 $-1 $210 reversed single #
loop $-1 $-1 $211 $83 #
plane-surface $-1 -36.282291779210468 4.2609200949421719 114.08565283073595 0.68199836817093118 0 0.7313536940579346 0.7313536940579346 0 -0.68199836817093118 forward_v I I I I #
coedge $-1 $212 $213 $214 $215 reversed $84 $-1 #
face $-1 $-1 $216 $46 $-1 $217 forward single #
loop $-1 $218 $219 $86 #
cone-surface $-1 73.905261702267794 2.4348114828240952 5.8874225918711929 -0.68199836817093118 0 -0.7313536940579346 0.3656768470289673 0 -0.34099918408546559 1 I I -0.70710678118654746 0.70710678118654746 0.5 forward I I I I #
loop $-1 $-1 $220 $59 #
coedge $-1 $138 $138 $221 $222 reversed $87 $-1 #
face $-1 $-1 $223 $47 $-1 $224 forward single #
loop $-1 $225 $226 $89 #
cone-surface $-1 73.905261702267794 6.0870287070602487 5.8874225918711929 -0.68199836817093118 0 -0.7313536940579346 0.3656768470289673 0 -0.34099918408546559 1 I I -0.70710678118654746 0.70710678118654746 0.5 forward I I I I #
loop $-1 $-1 $227 $60 #
coedge $-1 $143 $143 $228 $229 reversed $90 $-1 #
face $-1 $230 $231 $48 $-1 $232 reversed single #
loop $-1 $-1 $233 $92 #
plane-surface $-1 -78.413037507248134 -6.7302191618587202 2.9893304641047251 -0.71933980857756763 0 0.69465836192734942 0.69465836192734942 0 0.71933980857756763 forward_v I I I I #
coedge $-1 $234 $235 $236 $237 reversed $93 $-1 #
face $-1 $-1 $238 $49 $-1 $239 forward single #
loop $-1 $240 $241 $95 #
cone-surface $-1 -67.457496890422462 -6.7302191618587202 -0.36100939196638926 0.71933980857756763 0 -0.69465836192734942 0.86832295240918678 0 0.89917476072195957 1 I I -0.70710678118654746 0.70710678118654746 1.25 forward I I I I #
loop $-1 $-1 $242 $62 #
coedge $-1 $152 $152 $243 $244 reversed $96 $-1 #
face $-1 $245 $246 $50 $-1 $247 reversed single #
loop $-1 $-1 $248 $98 #
plane-surface $-1 -78.413037507248134 32.43978665987013 2.9893304641047251 -0.71933980857756763 0 0.69465836192734942 0.69465836192734942 0 0.71933980857756763 forward_v I I I I #
coedge $-1 $249 $250 $251 $252 reversed $99 $-1 #
face $-1 $-1 $253 $51 $-1 $254 forward single #
loop $-1 $255 $256 $101 #
cone-surface $-1 -67.457496890422462 32.43978665987013 -0.36100939196638926 0.71933980857756763 0 -0.69465836192734942 0.86832295240918678 0 0.89917476072195957 1 I I -0.70710678118654746 0.70710678118654746 1.25 forward I I I I #
loop $-1 $-1 $257 $64 #
coedge $-1 $161 $161 $258 $259 reversed $102 $-1 #
face $-1 $260 $261 $39 $-1 $262 reversed single #
loop $-1 $-1 $263 $104 #
plane-surface $-1 0 -51.420162383785303 0 0 1 0 0 0 1 forward_v I I I I #
coedge $-1 $264 $265 $266 $267 forward $105 $-1 #
coedge $-1 $268 $107 $269 $270 forward $66 $-1 #
coedge $-1 $107 $268 $271 $272 forward $66 $-1 #
coedge $-1 $273 $274 $107 $169 reversed $275 $-1 #
edge $-1 $276 -51.420162383785303 $277 51.420162383785303 $168 $278 forward 7 unknown #
face $-1 $279 $280 $40 $-1 $281 forward single #
loop $-1 $-1 $282 $108 #
plane-surface $-1 78.413037507248148 0 0 -1 0 0 0 0 1 forward_v I I I I #
coedge $-1 $283 $284 $285 $286 forward $109 $-1 #
coedge $-1 $285 $111 $282 $287 reversed $69 $-1 #
coedge $-1 $111 $285 $288 $289 reversed $69 $-1 #
coedge $-1 $290 $291 $111 $177 reversed $280 $-1 #
edge $-1 $292 -78.413037507248148 $293 78.413037507248148 $176 $294 forward 7 unknown #
face $-1 $295 $296 $41 $-1 $297 reversed single #
loop $-1 $-1 $298 $112 #
plane-surface $-1 0 57.545240664813527 -7.4709321422714154 0 0 1 1 0 0 forward_v I I I I #
coedge $-1 $299 $300 $182 $301 forward $113 $-1 #
coedge $-1 $302 $115 $181 $301 reversed $72 $-1 #
coedge $-1 $115 $302 $303 $304 reversed $72 $-1 #
coedge $-1 $298 $305 $115 $185 reversed $179 $-1 #
edge $-1 $306 -78.413037507248148 $307 78.413037507248148 $184 $308 forward 7 unknown #
face $-1 $309 $310 $42 $-1 $311 forward single #
loop $-1 $-1 $312 $116 #
plane-surface $-1 70.672835467328056 -39.170005821728864 228.78098211719458 0 1 0 0.68199836817093118 0 0.7313536940579346 forward_v I I I I #
coedge $-1 $313 $314 $315 $316 reversed $117 $-1 #
coedge $-1 $191 $119 $317 $318 reversed $75 $-1 #
coedge $-1 $119 $190 $313 $319 reversed $75 $-1 #
coedge $-1 $315 $320 $119 $193 forward $310 $-1 #
edge $-1 $321 -43.07661977358412 $322 -39.494472381567995 $192 $323 forward 7 unknown #
loop $-1 $-1 $199 $120 #
plane-surface $-1 -36.282291779210468 -34.909085726786685 114.08565283073595 0.68199836817093118 0 0.7313536940579346 0.7313536940579346 0 -0.68199836817093118 forward_v I I I I #
loop $-1 $-1 $324 $77 #
coedge $-1 $197 $197 $198 $325 reversed $121 $-1 #
coedge $-1 $198 $198 $197 $325 forward $123 $-1 #
coedge $-1 $199 $199 $124 $200 forward $194 $-1 #
edge $-1 $326 0 $326 6.2831853071796004 $199 $327 forward 7 unknown #
loop $-1 $-1 $206 $125 #
plane-surface $-1 -36.282291779210468 -34.909085726786685 114.08565283073595 0.68199836817093118 0 0.7313536940579346 0.7313536940579346 0 -0.68199836817093118 forward_v I I I I #
loop $-1 $-1 $328 $80 #
coedge $-1 $204 $204 $205 $329 reversed $126 $-1 #
coedge $-1 $205 $205 $204 $329 forward $128 $-1 #
coedge $-1 $206 $206 $129 $207 forward $201 $-1 #
edge $-1 $330 0 $330 6.2831853071796004 $206 $331 forward 7 unknown #
face $-1 $332 $333 $45 $-1 $334 reversed single #
loop $-1 $-1 $335 $130 #
plane-surface $-1 70.672835467328056 -6.2172489379008766e-015 228.78098211719458 0 1 0 0.68199836817093118 0 0.7313536940579346 forward_v I I I I #
coedge $-1 $336 $337 $338 $339 reversed $131 $-1 #
coedge $-1 $213 $133 $340 $341 reversed $84 $-1 #
coedge $-1 $133 $212 $336 $342 reversed $84 $-1 #
coedge $-1 $338 $343 $133 $215 forward $344 $-1 #
edge $-1 $345 -43.07661977358412 $346 -39.494472381567995 $214 $347 forward 7 unknown #
loop $-1 $-1 $221 $134 #
plane-surface $-1 -36.282291779210468 4.2609200949421719 114.08565283073595 0.68199836817093118 0 0.7313536940579346 0.7313536940579346 0 -0.68199836817093118 forward_v I I I I #
loop $-1 $-1 $348 $86 #
coedge $-1 $219 $219 $220 $349 reversed $135 $-1 #
coedge $-1 $220 $220 $219 $349 forward $137 $-1 #
coedge $-1 $221 $221 $138 $222 forward $216 $-1 #
edge $-1 $350 0 $350 6.2831853071796004 $221 $351 forward 7 unknown #
loop $-1 $-1 $228 $139 #
plane-surface $-1 -36.282291779210468 4.2609200949421719 114.08565283073595 0.68199836817093118 0 0.7313536940579346 0.7313536940579346 0 -0.68199836817093118 forward_v I I I I #
loop $-1 $-1 $352 $89 #
coedge $-1 $226 $226 $227 $353 reversed $140 $-1 #
coedge $-1 $227 $227 $226 $353 forward $142 $-1 #
coedge $-1 $228 $228 $143 $229 forward $223 $-1 #
edge $-1 $354 0 $354 6.2831853071796004 $228 $355 forward 7 unknown #
face $-1 $356 $357 $48 $-1 $358 reversed single #
loop $-1 $-1 $359 $144 #
plane-surface $-1 -191.22427628814717 -3.5527136788005009e-015 111.92987484117035 0 -1 0 0.71933980857756763 0 -0.69465836192734942 forward_v I I I I #
coedge $-1 $360 $361 $362 $363 reversed $145 $-1 #
coedge $-1 $235 $147 $364 $365 reversed $93 $-1 #
coedge $-1 $147 $234 $360 $366 reversed $93 $-1 #
coedge $-1 $362 $367 $147 $237 forward $368 $-1 #
edge $-1 $369 17.199100636825435 $370 24.423999223524149 $236 $371 forward 7 unknown #
loop $-1 $-1 $243 $148 #
plane-surface $-1 -78.413037507248134 -6.7302191618587202 2.9893304641047251 -0.71933980857756763 0 0.69465836192734942 0.69465836192734942 0 0.71933980857756763 forward_v I I I I #
loop $-1 $-1 $372 $95 #
coedge $-1 $241 $241 $242 $373 reversed $149 $-1 #
coedge $-1 $242 $242 $241 $373 forward $151 $-1 #
coedge $-1 $243 $243 $152 $244 forward $238 $-1 #
edge $-1 $374 0 $374 6.2831853071796004 $243 $375 forward 7 unknown #
face $-1 $376 $377 $50 $-1 $378 forward single #
loop $-1 $-1 $379 $153 #
plane-surface $-1 -191.22427628814717 39.17000582172885 111.92987484117035 0 -1 0 0.71933980857756763 0 -0.69465836192734942 forward_v I I I I #
coedge $-1 $380 $381 $382 $383 reversed $154 $-1 #
coedge $-1 $250 $156 $384 $385 reversed $99 $-1 #
coedge $-1 $156 $249 $380 $386 reversed $99 $-1 #
coedge $-1 $382 $387 $156 $252 forward $377 $-1 #
edge $-1 $388 17.199100636825435 $389 24.423999223524149 $251 $390 forward 7 unknown #
loop $-1 $-1 $258 $157 #
plane-surface $-1 -78.413037507248134 32.43978665987013 2.9893304641047251 -0.71933980857756763 0 0.69465836192734942 0.69465836192734942 0 0.71933980857756763 forward_v I I I I #
loop $-1 $-1 $391 $101 #
coedge $-1 $256 $256 $257 $392 reversed $158 $-1 #
coedge $-1 $257 $257 $256 $392 forward $160 $-1 #
coedge $-1 $258 $258 $161 $259 forward $253 $-1 #
edge $-1 $393 0 $393 6.2831853071796004 $258 $394 forward 7 unknown #
face $-1 $395 $396 $39 $-1 $397 reversed single #
loop $-1 $-1 $398 $162 #
plane-surface $-1 -78.413037507248148 0 0 1 0 0 0 0 -1 forward_v I I I I #
coedge $-1 $399 $271 $400 $401 forward $163 $-1 #
coedge $-1 $402 $165 $399 $403 forward $105 $-1 #
coedge $-1 $165 $402 $404 $405 forward $105 $-1 #
coedge $-1 $274 $273 $165 $267 reversed $275 $-1 #
edge $-1 $406 -51.420162383785303 $407 51.420162383785303 $266 $408 forward 7 unknown #
coedge $-1 $167 $166 $409 $410 forward $66 $-1 #
coedge $-1 $411 $412 $166 $270 reversed $396 $-1 #
edge $-1 $277 -78.413037507248148 $413 78.413037507248148 $269 $414 forward 7 unknown #
coedge $-1 $263 $415 $167 $272 reversed $163 $-1 #
edge $-1 $416 -78.413037507248148 $276 78.413037507248148 $271 $417 forward 7 unknown #
coedge $-1 $266 $168 $415 $418 forward $275 $-1 #
coedge $-1 $168 $266 $411 $419 reversed $275 $-1 #
loop $-1 $-1 $273 $395 #
vertex $-1 $169 $420 #
vertex $-1 $169 $421 #
straight-curve $-1 78.413037507248148 0 10.470932142271415 0 1 0 I I #
face $-1 $422 $423 $40 $-1 $424 reversed single #
loop $-1 $-1 $291 $170 #
plane-surface $-1 0 -57.545240664813527 -7.4709321422714154 0 0 1 1 0 0 forward_v I I I I #
coedge $-1 $425 $426 $174 $287 forward $171 $-1 #
coedge $-1 $427 $173 $426 $428 forward $109 $-1 #
coedge $-1 $173 $427 $429 $430 forward $109 $-1 #
coedge $-1 $175 $174 $173 $286 reversed $69 $-1 #
edge $-1 $431 -78.413037507248148 $432 78.413037507248148 $173 $433 forward 7 unknown #
edge $-1 $432 -10.470932142271415 $293 -7.4709321422714154 $282 $434 forward 7 unknown #
coedge $-1 $429 $435 $175 $289 forward $436 $-1 #
edge $-1 $292 7.4709321422714154 $431 10.470932142271415 $288 $437 forward 7 unknown #
coedge $-1 $438 $176 $435 $439 forward $280 $-1 #
coedge $-1 $176 $438 $425 $440 forward $280 $-1 #
vertex $-1 $289 $441 #
vertex $-1 $440 $442 #
straight-curve $-1 0 -51.420162383785303 -7.4709321422714154 1 0 0 I I #
face $-1 $443 $444 $41 $-1 $445 reversed single #
loop $-1 $-1 $446 $178 #
plane-surface $-1 0 63.67031894584175 -8.9709321422714154 0 -1 0 0 0 -1 forward_v I I I I #
coedge $-1 $447 $184 $448 $449 forward $179 $-1 #
coedge $-1 $450 $181 $305 $451 reversed $113 $-1 #
coedge $-1 $181 $450 $452 $453 reversed $113 $-1 #
edge $-1 $454 -10.470932142271415 $307 -7.4709321422714154 $181 $455 forward 7 unknown #
coedge $-1 $183 $182 $456 $457 reversed $72 $-1 #
coedge $-1 $458 $448 $183 $304 forward $459 $-1 #
edge $-1 $306 7.4709321422714154 $460 10.470932142271415 $303 $461 forward 7 unknown #
coedge $-1 $184 $447 $299 $451 forward $179 $-1 #
vertex $-1 $304 $462 #
vertex $-1 $451 $463 #
straight-curve $-1 0 51.420162383785303 -7.4709321422714154 -1 0 0 I I #
face $-1 $-1 $464 $42 $-1 $465 reversed single #
loop $-1 $-1 $192 $186 #
plane-surface $-1 0 0 10.470932142271415 0 0 1 1 0 0 forward_v I I I I #
coedge $-1 $466 $467 $468 $469 reversed $187 $-1 #
coedge $-1 $470 $189 $191 $319 forward $117 $-1 #
coedge $-1 $189 $470 $466 $471 forward $117 $-1 #
coedge $-1 $468 $192 $189 $316 forward $310 $-1 #
edge $-1 $322 13.193622768451164 $472 21.715462958335522 $315 $473 forward 7 unknown #
coedge $-1 $474 $475 $190 $318 forward $464 $-1 #
edge $-1 $476 -107.25996547439986 $321 -103.91955891632588 $317 $477 forward 7 unknown #
edge $-1 $322 151.92810646505137 $476 156.82607501449633 $191 $478 forward 7 unknown #
coedge $-1 $192 $468 $474 $479 forward $310 $-1 #
vertex $-1 $318 $480 #
vertex $-1 $193 $481 #
straight-curve $-1 35.336417733664028 -30.648165631844506 10.470932142271408 -1 0 0 I I #
coedge $-1 $324 $324 $-1 $482 reversed $196 $-1 #
edge $-1 $483 0 $483 6.2831853071796004 $197 $484 forward 7 unknown #
vertex $-1 $200 $485 #
ellipse-curve $-1 76.621963811240093 -36.735194338904762 8.8007288632344292 0.68199836817093118 0 0.7313536940579346 0.7313536940579346 0 -0.68199836817093118 1 I I #
coedge $-1 $328 $328 $-1 $486 reversed $203 $-1 #
edge $-1 $487 0 $487 6.2831853071796004 $204 $488 forward 7 unknown #
vertex $-1 $207 $489 #
ellipse-curve $-1 76.621963811240093 -33.082977114668608 8.8007288632344292 0.68199836817093118 0 0.7313536940579346 0.7313536940579346 0 -0.68199836817093118 1 I I #
face $-1 $-1 $344 $45 $-1 $490 forward single #
loop $-1 $-1 $491 $208 #
plane-surface $-1 78.413037507248148 0 0 -1 0 0 0 0 1 forward_v I I I I #
coedge $-1 $492 $493 $494 $495 reversed $209 $-1 #
coedge $-1 $496 $211 $213 $342 forward $131 $-1 #
coedge $-1 $211 $496 $492 $497 forward $131 $-1 #
coedge $-1 $494 $214 $211 $339 forward $344 $-1 #
edge $-1 $346 -6.391380142413265 $498 2.1304600474710922 $338 $499 forward 7 unknown #
coedge $-1 $500 $501 $212 $341 forward $333 $-1 #
edge $-1 $502 -107.25996547439986 $345 -103.91955891632588 $340 $503 forward 7 unknown #
edge $-1 $346 151.92810646505137 $502 156.82607501449633 $213 $504 forward 7 unknown #
coedge $-1 $214 $494 $500 $505 forward $344 $-1 #
loop $-1 $-1 $494 $332 #
vertex $-1 $341 $506 #
vertex $-1 $215 $507 #
straight-curve $-1 35.336417733664028 8.521840189884351 10.470932142271408 -1 0 0 I I #
coedge $-1 $348 $348 $-1 $508 reversed $218 $-1 #
edge $-1 $509 0 $509 6.2831853071796004 $219 $510 forward 7 unknown #
vertex $-1 $222 $511 #
ellipse-curve $-1 76.621963811240093 2.4348114828240952 8.8007288632344292 0.68199836817093118 0 0.7313536940579346 0.7313536940579346 0 -0.68199836817093118 1 I I #
coedge $-1 $352 $352 $-1 $512 reversed $225 $-1 #
edge $-1 $513 0 $513 6.2831853071796004 $226 $514 forward 7 unknown #
vertex $-1 $229 $515 #
ellipse-curve $-1 76.621963811240093 6.0870287070602487 8.8007288632344292 0.68199836817093118 0 0.7313536940579346 0.7313536940579346 0 -0.68199836817093118 1 I I #
face $-1 $-1 $368 $48 $-1 $516 forward single #
loop $-1 $-1 $517 $230 #
plane-surface $-1 -78.413037507248148 0 0 1 0 0 0 0 -1 forward_v I I I I #
coedge $-1 $518 $519 $520 $521 reversed $231 $-1 #
coedge $-1 $522 $233 $235 $366 forward $145 $-1 #
coedge $-1 $233 $522 $518 $523 forward $145 $-1 #
coedge $-1 $520 $236 $233 $363 forward $368 $-1 #
edge $-1 $370 -10.095328742788077 $524 3.3651095809293565 $362 $525 forward 7 unknown #
coedge $-1 $526 $527 $234 $365 forward $357 $-1 #
edge $-1 $528 -52.975606956480462 $369 -45.494005278313757 $364 $529 forward 7 unknown #
edge $-1 $370 -10.400650136353377 $528 2.0413573615811715e-014 $235 $530 forward 7 unknown #
coedge $-1 $236 $520 $526 $531 forward $368 $-1 #
loop $-1 $-1 $520 $356 #
vertex $-1 $365 $532 #
vertex $-1 $237 $533 #
straight-curve $-1 -95.612138144073583 -13.460438323717437 10.470932142271415 1 0 0 I I #
coedge $-1 $372 $372 $-1 $534 reversed $240 $-1 #
edge $-1 $535 0 $535 6.2831853071796004 $241 $536 forward 7 unknown #
vertex $-1 $244 $537 #
ellipse-curve $-1 -74.800588213898791 -6.7302191618587202 6.7301313031880596 -0.71933980857756763 0 0.69465836192734942 1.7366459048183736 0 1.7983495214439191 1 I I #
face $-1 $-1 $538 $50 $-1 $539 reversed single #
loop $-1 $-1 $251 $245 #
plane-surface $-1 0 0 10.470932142271415 0 0 1 1 0 0 forward_v I I I I #
coedge $-1 $540 $541 $542 $543 reversed $246 $-1 #
coedge $-1 $544 $248 $250 $386 forward $154 $-1 #
coedge $-1 $248 $544 $540 $545 forward $154 $-1 #
coedge $-1 $542 $251 $248 $383 forward $377 $-1 #
edge $-1 $389 9.4896741680763483 $546 22.950112491793785 $382 $547 forward 7 unknown #
coedge $-1 $548 $549 $249 $385 forward $538 $-1 #
edge $-1 $550 -52.975606956480462 $388 -45.494005278313757 $384 $551 forward 7 unknown #
edge $-1 $389 -10.400650136353377 $550 2.0413573615811715e-014 $250 $552 forward 7 unknown #
coedge $-1 $251 $542 $548 $553 forward $377 $-1 #
vertex $-1 $252 $554 #
vertex $-1 $252 $555 #
straight-curve $-1 -95.612138144073583 25.709567498011413 10.470932142271415 1 0 0 I I #
coedge $-1 $391 $391 $-1 $556 reversed $255 $-1 #
edge $-1 $557 0 $557 6.2831853071796004 $256 $558 forward 7 unknown #
vertex $-1 $259 $559 #
ellipse-curve $-1 -74.800588213898791 32.43978665987013 6.7301313031880596 -0.71933980857756763 0 0.69465836192734942 1.7366459048183736 0 1.7983495214439191 1 I I #
face $-1 $-1 $275 $39 $-1 $560 reversed single #
loop $-1 $-1 $411 $260 #
plane-surface $-1 0 51.420162383785303 0 0 -1 0 0 0 -1 forward_v I I I I #
coedge $-1 $561 $409 $412 $562 forward $261 $-1 #
coedge $-1 $415 $263 $264 $403 reversed $163 $-1 #
coedge $-1 $409 $561 $263 $401 reversed $261 $-1 #
edge $-1 $416 -10.470932142271415 $563 10.470932142271415 $400 $564 forward 7 unknown #
coedge $-1 $265 $264 $561 $565 forward $105 $-1 #
edge $-1 $407 -78.413037507248148 $563 78.413037507248148 $399 $566 forward 7 unknown #
coedge $-1 $412 $411 $265 $405 reversed $396 $-1 #
edge $-1 $567 -78.413037507248148 $406 78.413037507248148 $404 $568 forward 7 unknown #
vertex $-1 $267 $569 #
vertex $-1 $418 $570 #
straight-curve $-1 78.413037507248148 0 -10.470932142271415 0 -1 0 I I #
coedge $-1 $398 $400 $268 $410 reversed $261 $-1 #
edge $-1 $413 -51.420162383785303 $416 51.420162383785303 $409 $571 forward 7 unknown #
coedge $-1 $404 $269 $274 $419 forward $396 $-1 #
coedge $-1 $269 $404 $398 $562 reversed $396 $-1 #
vertex $-1 $270 $572 #
straight-curve $-1 0 51.420162383785303 10.470932142271415 -1 0 0 I I #
coedge $-1 $271 $399 $273 $418 reversed $163 $-1 #
vertex $-1 $410 $573 #
straight-curve $-1 0 -51.420162383785303 10.470932142271415 1 0 0 I I #
edge $-1 $276 -10.470932142271415 $407 10.470932142271415 $273 $574 forward 7 unknown #
edge $-1 $277 -10.470932142271415 $406 10.470932142271415 $274 $575 forward 7 unknown #
point $-1 78.413037507248148 -51.420162383785303 10.470932142271415 #
point $-1 78.413037507248148 51.420162383785303 10.470932142271415 #
face $-1 $-1 $436 $40 $-1 $576 reversed single #
loop $-1 $-1 $577 $279 #
plane-surface $-1 0 -63.67031894584175 -8.9709321422714154 0 1 0 0 0 1 forward_v I I I I #
coedge $-1 $578 $282 $291 $440 reversed $171 $-1 #
coedge $-1 $282 $578 $283 $428 reversed $171 $-1 #
coedge $-1 $284 $283 $579 $580 forward $109 $-1 #
edge $-1 $432 51.420162383785303 $581 63.67031894584175 $426 $582 forward 7 unknown #
coedge $-1 $583 $288 $284 $430 reversed $436 $-1 #
edge $-1 $584 -63.67031894584175 $431 -51.420162383785303 $429 $585 forward 7 unknown #
vertex $-1 $289 $586 #
vertex $-1 $428 $587 #
straight-curve $-1 0 -51.420162383785303 -10.470932142271415 1 0 0 I I #
straight-curve $-1 78.413037507248148 -51.420162383785303 0 0 0 1 I I #
coedge $-1 $288 $583 $290 $439 reversed $436 $-1 #
loop $-1 $-1 $288 $422 #
straight-curve $-1 -78.413037507248148 -51.420162383785303 0 0 0 -1 I I #
coedge $-1 $291 $290 $588 $589 forward $280 $-1 #
edge $-1 $292 -6.1250782810282232 $590 6.1250782810282232 $435 $591 forward 7 unknown #
edge $-1 $592 -6.1250782810282232 $293 6.1250782810282232 $425 $593 forward 7 unknown #
point $-1 -78.413037507248148 -51.420162383785303 -7.4709321422714154 #
point $-1 78.413037507248148 -51.420162383785303 -7.4709321422714154 #
face $-1 $-1 $459 $41 $-1 $594 reversed single #
loop $-1 $-1 $456 $295 #
plane-surface $-1 0 0 -10.470932142271415 0 0 1 1 0 0 forward_v I I I I #
coedge $-1 $595 $596 $597 $598 forward $296 $-1 #
coedge $-1 $305 $298 $596 $599 forward $179 $-1 #
coedge $-1 $303 $597 $298 $449 reversed $459 $-1 #
edge $-1 $306 -6.1250782810282232 $600 6.1250782810282232 $448 $601 forward 7 unknown #
coedge $-1 $300 $299 $602 $603 forward $113 $-1 #
edge $-1 $604 -6.1250782810282232 $307 6.1250782810282232 $299 $605 forward 7 unknown #
coedge $-1 $606 $456 $300 $453 forward $444 $-1 #
edge $-1 $454 -6.1250782810282232 $607 6.1250782810282232 $300 $608 forward 7 unknown #
vertex $-1 $453 $609 #
straight-curve $-1 -78.413037507248148 51.420162383785303 0 0 0 1 I I #
coedge $-1 $452 $610 $302 $457 forward $444 $-1 #
edge $-1 $460 -78.413037507248148 $454 78.413037507248148 $456 $611 forward 7 unknown #
coedge $-1 $597 $303 $610 $612 reversed $459 $-1 #
loop $-1 $-1 $303 $443 #
vertex $-1 $304 $613 #
straight-curve $-1 78.413037507248148 51.420162383785303 0 0 0 -1 I I #
point $-1 78.413037507248148 51.420162383785303 -7.4709321422714154 #
point $-1 -78.413037507248148 51.420162383785303 -7.4709321422714154 #
loop $-1 $-1 $317 $309 #
plane-surface $-1 78.413037507248148 0 0 -1 0 0 0 0 1 forward_v I I I I #
coedge $-1 $467 $312 $314 $471 reversed $187 $-1 #
coedge $-1 $312 $466 $614 $615 reversed $187 $-1 #
coedge $-1 $320 $315 $312 $469 forward $310 $-1 #
edge $-1 $472 39.494472381567995 $616 43.07661977358412 $468 $617 forward 7 unknown #
coedge $-1 $314 $313 $475 $618 reversed $117 $-1 #
edge $-1 $619 -156.82607501449633 $472 -151.92810646505137 $466 $620 forward 7 unknown #
vertex $-1 $316 $621 #
straight-curve $-1 74.830890115232052 -17.454542863393343 10.470932142271408 0 -1 0 I I #
coedge $-1 $614 $317 $320 $479 reversed $464 $-1 #
coedge $-1 $317 $614 $470 $618 forward $464 $-1 #
vertex $-1 $318 $622 #
straight-curve $-1 78.413037507248148 -30.648165631844506 114.39049105859729 0 0 1 I I #
straight-curve $-1 -36.282291779210468 -30.648165631844506 114.08565283073595 0.7313536940579346 0 -0.68199836817093118 I I #
edge $-1 $616 -39.170005821728864 $321 -30.648165631844506 $474 $623 forward 7 unknown #
point $-1 78.413037507248148 -30.648165631844506 10.470932142271415 #
point $-1 74.830890115232023 -30.648165631844506 10.470932142271423 #
edge $-1 $624 1 $624 0 $324 $-1 forward 7 unknown #
vertex $-1 $325 $625 #
ellipse-curve $-1 74.246260886353255 -36.735194338904762 6.2530994389001604 0.68199836817093118 0 0.7313536940579346 0.7313536940579346 0 -0.68199836817093118 1 I I #
point $-1 77.353317505298008 -36.735194338904762 8.1187304950634918 #
edge $-1 $626 1 $626 0 $328 $-1 forward 7 unknown #
vertex $-1 $329 $627 #
ellipse-curve $-1 74.246260886353255 -33.082977114668608 6.2530994389001604 0.68199836817093118 0 0.7313536940579346 0.7313536940579346 0 -0.68199836817093118 1 I I #
point $-1 77.353317505298008 -33.082977114668608 8.1187304950634918 #
plane-surface $-1 0 0 10.470932142271415 0 0 1 1 0 0 forward_v I I I I #
coedge $-1 $501 $500 $493 $628 forward $333 $-1 #
coedge $-1 $493 $335 $337 $497 reversed $209 $-1 #
coedge $-1 $335 $492 $491 $628 reversed $209 $-1 #
coedge $-1 $343 $338 $335 $495 forward $344 $-1 #
edge $-1 $498 39.494472381567995 $629 43.07661977358412 $494 $630 forward 7 unknown #
coedge $-1 $337 $336 $501 $631 reversed $131 $-1 #
edge $-1 $632 -156.82607501449633 $498 -151.92810646505137 $492 $633 forward 7 unknown #
vertex $-1 $339 $634 #
straight-curve $-1 74.830890115232052 2.130460047471086 10.470932142271408 0 -1 0 I I #
coedge $-1 $491 $340 $343 $505 reversed $333 $-1 #
coedge $-1 $340 $491 $496 $631 forward $333 $-1 #
vertex $-1 $341 $635 #
straight-curve $-1 78.413037507248148 8.521840189884351 114.39049105859729 0 0 1 I I #
straight-curve $-1 -36.282291779210468 8.521840189884351 114.08565283073595 0.7313536940579346 0 -0.68199836817093118 I I #
edge $-1 $629 -6.2172489379008766e-015 $345 8.521840189884351 $500 $636 forward 7 unknown #
point $-1 78.413037507248148 8.521840189884351 10.470932142271415 #
point $-1 74.830890115232023 8.521840189884351 10.470932142271423 #
edge $-1 $637 1 $637 0 $348 $-1 forward 7 unknown #
vertex $-1 $349 $638 #
ellipse-curve $-1 74.246260886353255 2.4348114828240952 6.2530994389001604 0.68199836817093118 0 0.7313536940579346 0.7313536940579346 0 -0.68199836817093118 1 I I #
point $-1 77.353317505298008 2.4348114828240952 8.1187304950634918 #
edge $-1 $639 1 $639 0 $352 $-1 forward 7 unknown #
vertex $-1 $353 $640 #
ellipse-curve $-1 74.246260886353255 6.0870287070602487 6.2530994389001604 0.68199836817093118 0 0.7313536940579346 0.7313536940579346 0 -0.68199836817093118 1 I I #
point $-1 77.353317505298008 6.0870287070602487 8.1187304950634918 #
plane-surface $-1 0 0 10.470932142271415 0 0 1 1 0 0 forward_v I I I I #
coedge $-1 $527 $526 $519 $641 forward $357 $-1 #
coedge $-1 $519 $359 $361 $523 reversed $231 $-1 #
coedge $-1 $359 $518 $517 $641 reversed $231 $-1 #
coedge $-1 $367 $362 $359 $521 forward $368 $-1 #
edge $-1 $524 -24.423999223524149 $642 -17.199100636825435 $520 $643 forward 7 unknown #
coedge $-1 $361 $360 $527 $644 reversed $145 $-1 #
edge $-1 $645 -2.0413573615811715e-014 $524 10.400650136353377 $518 $646 forward 7 unknown #
vertex $-1 $363 $647 #
straight-curve $-1 -71.188138920549434 -3.3651095809293601 10.470932142271417 0 1 0 I I #
coedge $-1 $517 $364 $367 $531 reversed $357 $-1 #
coedge $-1 $364 $517 $522 $644 forward $357 $-1 #
vertex $-1 $365 $648 #
straight-curve $-1 -78.413037507248148 -13.460438323717437 55.964937420585173 0 0 1 I I #
straight-curve $-1 -78.413037507248134 -13.460438323717437 2.9893304641047251 -0.69465836192734942 0 -0.71933980857756763 I I #
edge $-1 $642 3.5527136788005009e-015 $369 13.460438323717437 $526 $649 forward 7 unknown #
point $-1 -78.413037507248148 -13.460438323717437 10.470932142271415 #
point $-1 -71.188138920549434 -13.460438323717437 10.470932142271415 #
edge $-1 $650 1 $650 0 $372 $-1 forward 7 unknown #
vertex $-1 $373 $651 #
ellipse-curve $-1 -68.356671651144424 -6.7302191618587202 0.50731356044279752 -0.71933980857756763 0 0.69465836192734942 1.7366459048183736 0 1.7983495214439191 1 I I #
point $-1 -73.063942309080446 -6.7302191618587202 8.5284808246320036 #
loop $-1 $-1 $384 $376 #
plane-surface $-1 -78.413037507248148 0 0 1 0 0 0 0 -1 forward_v I I I I #
coedge $-1 $541 $379 $381 $545 reversed $246 $-1 #
coedge $-1 $379 $540 $652 $653 reversed $246 $-1 #
coedge $-1 $387 $382 $379 $543 forward $377 $-1 #
edge $-1 $546 -24.423999223524149 $654 -17.199100636825435 $542 $655 forward 7 unknown #
coedge $-1 $381 $380 $549 $656 reversed $154 $-1 #
edge $-1 $657 -2.0413573615811715e-014 $546 10.400650136353377 $540 $658 forward 7 unknown #
vertex $-1 $383 $659 #
straight-curve $-1 -71.188138920549434 16.219893329935065 10.470932142271417 0 1 0 I I #
coedge $-1 $652 $384 $387 $553 reversed $538 $-1 #
coedge $-1 $384 $652 $544 $656 forward $538 $-1 #
vertex $-1 $385 $660 #
straight-curve $-1 -78.413037507248148 25.709567498011413 55.964937420585173 0 0 1 I I #
straight-curve $-1 -78.413037507248134 25.709567498011413 2.9893304641047251 -0.69465836192734942 0 -0.71933980857756763 I I #
edge $-1 $654 -39.17000582172885 $388 -25.709567498011413 $548 $661 forward 7 unknown #
point $-1 -78.413037507248148 25.709567498011413 10.470932142271415 #
point $-1 -71.188138920549434 25.709567498011413 10.470932142271415 #
edge $-1 $662 1 $662 0 $391 $-1 forward 7 unknown #
vertex $-1 $392 $663 #
ellipse-curve $-1 -68.356671651144424 32.43978665987013 0.50731356044279752 -0.71933980857756763 0 0.69465836192734942 1.7366459048183736 0 1.7983495214439191 1 I I #
point $-1 -73.063942309080446 32.43978665987013 8.5284808246320036 #
plane-surface $-1 78.413037507248148 0 0 -1 0 0 0 0 1 forward_v I I I I #
coedge $-1 $400 $398 $402 $565 reversed $261 $-1 #
edge $-1 $413 -10.470932142271415 $567 10.470932142271415 $412 $664 forward 7 unknown #
vertex $-1 $565 $665 #
straight-curve $-1 -78.413037507248148 -51.420162383785303 0 0 0 -1 I I #
edge $-1 $563 -51.420162383785303 $567 51.420162383785303 $561 $666 forward 7 unknown #
straight-curve $-1 0 -51.420162383785303 -10.470932142271415 -1 0 0 I I #
vertex $-1 $405 $667 #
straight-curve $-1 0 51.420162383785303 -10.470932142271415 1 0 0 I I #
point $-1 78.413037507248148 51.420162383785303 -10.470932142271415 #
point $-1 78.413037507248148 -51.420162383785303 -10.470932142271415 #
straight-curve $-1 -78.413037507248148 0 10.470932142271415 0 -1 0 I I #
point $-1 -78.413037507248148 51.420162383785303 10.470932142271415 #
point $-1 -78.413037507248148 -51.420162383785303 10.470932142271415 #
straight-curve $-1 78.413037507248148 -51.420162383785303 0 0 0 -1 I I #
straight-curve $-1 78.413037507248148 51.420162383785303 0 0 0 -1 I I #
plane-surface $-1 -78.413037507248148 0 0 1 0 0 0 0 -1 forward_v I I I I #
coedge $-1 $579 $588 $583 $668 forward $423 $-1 #
coedge $-1 $426 $425 $669 $670 forward $171 $-1 #
coedge $-1 $669 $577 $427 $580 reversed $423 $-1 #
edge $-1 $581 -78.413037507248148 $584 78.413037507248148 $579 $671 forward 7 unknown #
vertex $-1 $670 $672 #
straight-curve $-1 78.413037507248148 0 -10.470932142271415 0 -1 0 I I #
coedge $-1 $435 $429 $577 $668 reversed $436 $-1 #
vertex $-1 $430 $673 #
straight-curve $-1 -78.413037507248148 0 -10.470932142271415 0 1 0 I I #
point $-1 -78.413037507248148 -51.420162383785303 -10.470932142271415 #
point $-1 78.413037507248148 -51.420162383785303 -10.470932142271415 #
coedge $-1 $577 $669 $438 $589 reversed $423 $-1 #
edge $-1 $590 -78.413037507248148 $592 78.413037507248148 $588 $674 forward 7 unknown #
vertex $-1 $439 $675 #
straight-curve $-1 -78.413037507248148 -57.545240664813527 -7.4709321422714154 0 -1 0 I I #
vertex $-1 $440 $676 #
straight-curve $-1 78.413037507248148 -57.545240664813527 -7.4709321422714154 0 1 0 I I #
plane-surface $-1 78.413037507248148 0 0 -1 0 0 0 0 1 forward_v I I I I #
coedge $-1 $602 $446 $606 $677 reversed $296 $-1 #
coedge $-1 $446 $602 $447 $599 reversed $296 $-1 #
coedge $-1 $448 $458 $446 $598 reversed $459 $-1 #
edge $-1 $600 -1.5 $678 1.5 $597 $679 forward 7 unknown #
edge $-1 $600 -78.413037507248148 $604 78.413037507248148 $596 $680 forward 7 unknown #
vertex $-1 $449 $681 #
straight-curve $-1 78.413037507248148 57.545240664813527 -7.4709321422714154 0 1 0 I I #
coedge $-1 $596 $595 $450 $603 reversed $296 $-1 #
edge $-1 $604 -1.5 $607 1.5 $602 $682 forward 7 unknown #
vertex $-1 $599 $683 #
straight-curve $-1 -78.413037507248148 57.545240664813527 -7.4709321422714154 0 -1 0 I I #
coedge $-1 $610 $452 $595 $677 forward $444 $-1 #
vertex $-1 $677 $684 #
straight-curve $-1 -78.413037507248148 57.545240664813527 -10.470932142271415 0 1 0 I I #
point $-1 -78.413037507248148 51.420162383785303 -10.470932142271415 #
coedge $-1 $456 $606 $458 $612 forward $444 $-1 #
straight-curve $-1 0 51.420162383785303 -10.470932142271415 -1 0 0 I I #
edge $-1 $678 -63.67031894584175 $460 -51.420162383785303 $458 $685 forward 7 unknown #
point $-1 78.413037507248148 51.420162383785303 -10.470932142271415 #
coedge $-1 $475 $474 $467 $615 forward $464 $-1 #
edge $-1 $616 103.91955891632588 $619 107.25996547439986 $614 $686 forward 7 unknown #
vertex $-1 $479 $687 #
straight-curve $-1 35.336417733664028 -39.170005821728864 10.470932142271408 1 0 0 I I #
edge $-1 $619 -21.715462958335522 $476 -13.193622768451164 $475 $688 forward 7 unknown #
vertex $-1 $618 $689 #
straight-curve $-1 -36.282291779210468 -39.170005821728864 114.08565283073595 -0.7313536940579346 0 0.68199836817093118 I I #
point $-1 74.830890115232023 -39.170005821728864 10.470932142271423 #
point $-1 78.413037507248163 -30.648165631844506 7.1305255841974287 #
straight-curve $-1 78.413037507248148 0 10.470932142271415 0 1 0 I I #
vertex $-1 $482 $690 #
point $-1 74.977614580411199 -36.735194338904762 5.5711010707292292 #
vertex $-1 $486 $691 #
point $-1 74.977614580411199 -33.082977114668608 5.5711010707292292 #
edge $-1 $629 103.91955891632588 $632 107.25996547439986 $491 $692 forward 7 unknown #
vertex $-1 $505 $693 #
straight-curve $-1 35.336417733664028 -6.2172489379008766e-015 10.470932142271408 1 0 0 I I #
edge $-1 $632 -2.1304600474710922 $502 6.391380142413265 $501 $694 forward 7 unknown #
vertex $-1 $631 $695 #
straight-curve $-1 -36.282291779210468 -6.2172489379008766e-015 114.08565283073595 -0.7313536940579346 0 0.68199836817093118 I I #
point $-1 74.830890115232023 -6.2172489379008766e-015 10.470932142271423 #
point $-1 78.413037507248163 8.521840189884351 7.1305255841974287 #
straight-curve $-1 78.413037507248148 0 10.470932142271415 0 1 0 I I #
vertex $-1 $508 $696 #
point $-1 74.977614580411199 2.4348114828240952 5.5711010707292292 #
vertex $-1 $512 $697 #
point $-1 74.977614580411199 6.0870287070602487 5.5711010707292292 #
edge $-1 $642 45.494005278313757 $645 52.975606956480462 $517 $698 forward 7 unknown #
vertex $-1 $531 $699 #
straight-curve $-1 -95.612138144073583 -3.5527136788005009e-015 10.470932142271415 -1 0 0 I I #
edge $-1 $645 -3.3651095809293565 $528 10.095328742788077 $527 $700 forward 7 unknown #
vertex $-1 $644 $701 #
straight-curve $-1 -78.413037507248134 -3.5527136788005009e-015 2.9893304641047251 0.69465836192734942 0 0.71933980857756763 I I #
point $-1 -71.188138920549434 -3.5527136788005009e-015 10.470932142271415 #
point $-1 -78.413037507248148 -13.460438323717437 2.9893304641047105 #
straight-curve $-1 -78.413037507248148 0 10.470932142271415 0 -1 0 I I #
vertex $-1 $534 $702 #
point $-1 -66.62002574632605 -6.7302191618587202 2.3056630818867165 #
coedge $-1 $549 $548 $541 $653 forward $538 $-1 #
edge $-1 $654 45.494005278313757 $657 52.975606956480462 $652 $703 forward 7 unknown #
vertex $-1 $553 $704 #
straight-curve $-1 -95.612138144073583 39.17000582172885 10.470932142271415 -1 0 0 I I #
edge $-1 $657 -22.950112491793785 $550 -9.4896741680763483 $549 $705 forward 7 unknown #
vertex $-1 $656 $706 #
straight-curve $-1 -78.413037507248134 39.17000582172885 2.9893304641047251 0.69465836192734942 0 0.71933980857756763 I I #
point $-1 -71.188138920549434 39.17000582172885 10.470932142271415 #
point $-1 -78.413037507248148 25.709567498011413 2.9893304641047105 #
straight-curve $-1 -78.413037507248148 0 10.470932142271415 0 -1 0 I I #
vertex $-1 $556 $707 #
point $-1 -66.62002574632605 32.43978665987013 2.3056630818867165 #
straight-curve $-1 -78.413037507248148 51.420162383785303 0 0 0 -1 I I #
point $-1 -78.413037507248148 -51.420162383785303 -10.470932142271415 #
straight-curve $-1 -78.413037507248148 0 -10.470932142271415 0 1 0 I I #
point $-1 -78.413037507248148 51.420162383785303 -10.470932142271415 #
edge $-1 $590 -1.5 $584 1.5 $583 $708 forward 7 unknown #
coedge $-1 $588 $579 $578 $670 reversed $423 $-1 #
edge $-1 $592 -1.5 $581 1.5 $578 $709 forward 7 unknown #
straight-curve $-1 0 -63.67031894584175 -10.470932142271415 -1 0 0 I I #
point $-1 78.413037507248148 -63.67031894584175 -10.470932142271415 #
point $-1 -78.413037507248148 -63.67031894584175 -10.470932142271415 #
straight-curve $-1 0 -63.67031894584175 -7.4709321422714154 1 0 0 I I #
point $-1 -78.413037507248148 -63.67031894584175 -7.4709321422714154 #
point $-1 78.413037507248148 -63.67031894584175 -7.4709321422714154 #
edge $-1 $607 -78.413037507248148 $678 78.413037507248148 $595 $710 forward 7 unknown #
vertex $-1 $612 $711 #
straight-curve $-1 78.413037507248148 63.67031894584175 -8.9709321422714154 0 0 -1 I I #
straight-curve $-1 0 63.67031894584175 -7.4709321422714154 -1 0 0 I I #
point $-1 78.413037507248148 63.67031894584175 -7.4709321422714154 #
straight-curve $-1 -78.413037507248148 63.67031894584175 -8.9709321422714154 0 0 -1 I I #
point $-1 -78.413037507248148 63.67031894584175 -7.4709321422714154 #
point $-1 -78.413037507248148 63.67031894584175 -10.470932142271415 #
straight-curve $-1 78.413037507248148 0 -10.470932142271415 0 -1 0 I I #
straight-curve $-1 78.413037507248148 -39.170005821728864 114.39049105859729 0 0 -1 I I #
point $-1 78.413037507248148 -39.170005821728864 10.470932142271415 #
straight-curve $-1 78.413037507248148 -17.454542863393343 7.13052558419745 0 1 0 I I #
point $-1 78.413037507248163 -39.170005821728864 7.1305255841974287 #
point $-1 73.564262518182332 -36.735194338904762 5.5217457448422254 #
point $-1 73.564262518182332 -33.082977114668608 5.5217457448422254 #
straight-curve $-1 78.413037507248148 -6.2172489379008766e-015 114.39049105859729 0 0 -1 I I #
point $-1 78.413037507248148 -6.2172489379008766e-015 10.470932142271415 #
straight-curve $-1 78.413037507248148 2.130460047471086 7.13052558419745 0 1 0 I I #
point $-1 78.413037507248163 -6.2172489379008766e-015 7.1305255841974287 #
point $-1 73.564262518182332 2.4348114828240952 5.5217457448422254 #
point $-1 73.564262518182332 6.0870287070602487 5.5217457448422254 #
straight-curve $-1 -78.413037507248148 -3.5527136788005009e-015 55.964937420585173 0 0 -1 I I #
point $-1 -78.413037507248148 -3.5527136788005009e-015 10.470932142271415 #
straight-curve $-1 -78.413037507248148 -3.3651095809293601 2.9893304641046989 0 -1 0 I I #
point $-1 -78.413037507248148 -3.5527136788005009e-015 2.9893304641047105 #
point $-1 -66.5583221297005 -6.7302191618587202 -1.2293323443755759 #
straight-curve $-1 -78.413037507248148 39.17000582172885 55.964937420585173 0 0 -1 I I #
point $-1 -78.413037507248148 39.17000582172885 10.470932142271415 #
straight-curve $-1 -78.413037507248148 16.219893329935065 2.9893304641046989 0 -1 0 I I #
point $-1 -78.413037507248148 39.17000582172885 2.9893304641047105 #
point $-1 -66.5583221297005 32.43978665987013 -1.2293323443755759 #
straight-curve $-1 -78.413037507248148 -63.67031894584175 -8.9709321422714154 0 0 -1 I I #
straight-curve $-1 78.413037507248148 -63.67031894584175 -8.9709321422714154 0 0 -1 I I #
straight-curve $-1 0 63.67031894584175 -10.470932142271415 1 0 0 I I #
point $-1 78.413037507248148 63.67031894584175 -10.470932142271415 #
End-of-ACIS-data 