500 0 7 0           
7 Unknown 11 ACIS 5.0 NT 24 Thu Mar 25 20:09:10 1999 
-1 9.9999999999999995e-007 1e-010 
body $-1 $7 $-1 $8 #
body $-1 $9 $-1 $10 #
body $-1 $11 $-1 $12 #
body $-1 $13 $-1 $14 #
body $-1 $15 $-1 $16 #
body $-1 $17 $-1 $18 #
body $-1 $19 $-1 $20 #
lump $-1 $-1 $21 $0 #
transform $-1 1 0 0 0 1 0 0 0 1 75.219580675679794 45.960456209720768 22.038492508095146 1 rotate no_reflect no_shear #
lump $-1 $-1 $22 $1 #
transform $-1 1 0 0 0 1 0 0 0 1 75.219580675679794 45.960456209720768 22.038492508095146 1 rotate no_reflect no_shear #
lump $-1 $-1 $23 $2 #
transform $-1 1 0 0 0 1 0 0 0 1 75.219580675679794 45.960456209720768 22.038492508095146 1 rotate no_reflect no_shear #
lump $-1 $-1 $24 $3 #
transform $-1 1 0 0 0 1 0 0 0 1 75.219580675679794 45.960456209720768 22.038492508095146 1 rotate no_reflect no_shear #
lump $-1 $-1 $25 $4 #
transform $-1 1 0 0 0 1 0 0 0 1 75.219580675679794 45.960456209720768 22.038492508095146 1 rotate no_reflect no_shear #
lump $-1 $-1 $26 $5 #
transform $-1 1 0 0 0 1 0 0 0 1 75.219580675679794 45.960456209720768 22.038492508095146 1 rotate no_reflect no_shear #
lump $-1 $-1 $27 $6 #
transform $-1 1 0 0 0 1 0 0 0 1 75.219580675679794 45.960456209720768 22.038492508095146 1 rotate no_reflect no_shear #
shell $-1 $-1 $-1 $28 $-1 $7 #
shell $-1 $-1 $-1 $29 $-1 $9 #
shell $-1 $-1 $-1 $30 $-1 $11 #
shell $-1 $-1 $-1 $31 $-1 $13 #
shell $-1 $-1 $-1 $32 $-1 $15 #
shell $-1 $-1 $-1 $33 $-1 $17 #
shell $-1 $-1 $-1 $34 $-1 $19 #
face $-1 $35 $36 $21 $-1 $37 forward single #
face $-1 $38 $39 $22 $-1 $40 reversed single #
face $-1 $41 $42 $23 $-1 $43 reversed single #
face $-1 $44 $45 $24 $-1 $46 reversed single #
face $-1 $47 $48 $25 $-1 $49 forward single #
face $-1 $50 $51 $26 $-1 $52 forward single #
face $-1 $53 $54 $27 $-1 $55 forward single #
face $-1 $56 $57 $21 $-1 $58 reversed single #
loop $-1 $-1 $59 $28 #
plane-surface $-1 0 0 22.038492508095146 0 0 1 1 0 0 forward_v I I I I #
face $-1 $60 $61 $22 $-1 $62 reversed single #
loop $-1 $-1 $63 $29 #
plane-surface $-1 -70.84705820965064 -28.276205390459118 0 0 -1 0 0 0 -1 forward_v I I I I #
face $-1 $64 $65 $23 $-1 $66 reversed single #
loop $-1 $-1 $67 $30 #
plane-surface $-1 0 34.803814916470522 17.454577537555533 0 0 1 1 0 0 forward_v I I I I #
face $-1 $68 $69 $24 $-1 $70 reversed single #
loop $-1 $-1 $71 $31 #
plane-surface $-1 -75.219580675679779 -25.186622740222365 17.835186804665909 -0.51503808176128008 0 0.85716729658548041 0.85716729658548041 0 0.51503808176128008 forward_v I I I I #
face $-1 $72 $73 $25 $-1 $74 forward single #
loop $-1 $75 $76 $32 #
cone-surface $-1 -71.247251781312585 -27.04037233036442 19.146987211503742 0.51503808176128008 0 -0.85716729658548041 0.4285836482927402 0 0.25751904088064004 1 I I 0 1 0.5 forward I I I I #
face $-1 $77 $78 $26 $-1 $79 forward single #
loop $-1 $80 $81 $33 #
cone-surface $-1 -71.247251781312585 -25.186622740222365 19.146987211503742 0.51503808176128008 0 -0.85716729658548041 0.4285836482927402 0 0.25751904088064004 1 I I 0 1 0.5 forward I I I I #
face $-1 $82 $83 $27 $-1 $84 forward single #
loop $-1 $85 $86 $34 #
cone-surface $-1 -71.247251781312585 -23.33287315008031 19.146987211503742 0.51503808176128008 0 -0.85716729658548041 0.4285836482927402 0 0.25751904088064004 1 I I 0 1 0.5 forward I I I I #
face $-1 $87 $88 $21 $-1 $89 reversed single #
loop $-1 $-1 $90 $35 #
plane-surface $-1 0 0 -22.038492508095146 0 0 1 1 0 0 forward_v I I I I #
coedge $-1 $91 $92 $93 $94 forward $36 $-1 #
face $-1 $95 $96 $22 $-1 $97 forward single #
loop $-1 $-1 $98 $38 #
plane-surface $-1 -66.474535743621487 -37.118330800089943 0 -1 0 0 0 0 1 forward_v I I I I #
coedge $-1 $99 $100 $101 $102 forward $39 $-1 #
face $-1 $103 $104 $23 $-1 $105 reversed single #
loop $-1 $-1 $106 $41 #
plane-surface $-1 0 23.647173623220283 19.746535022825341 0 1 0 0 0 1 forward_v I I I I #
coedge $-1 $107 $108 $109 $110 reversed $42 $-1 #
face $-1 $111 $112 $24 $-1 $113 forward single #
loop $-1 $-1 $114 $44 #
plane-surface $-1 -152.70147775985973 -22.097040089985608 146.7867160407977 0 -1 0 0.51503808176128008 0 -0.85716729658548041 forward_v I I I I #
coedge $-1 $115 $116 $117 $118 reversed $45 $-1 #
face $-1 $-1 $119 $25 $-1 $120 forward single #
loop $-1 $121 $122 $47 #
cone-surface $-1 -70.643901023310704 -27.04037233036442 18.142842942480584 0.51503808176128008 0 -0.85716729658548041 0.2142918241463701 0 0.12875952044032002 1 I I -0.70710678118654746 0.70710678118654746 0.25 forward I I I I #
loop $-1 $-1 $123 $32 #
coedge $-1 $76 $76 $124 $125 reversed $48 $-1 #
face $-1 $-1 $126 $26 $-1 $127 forward single #
loop $-1 $128 $129 $50 #
cone-surface $-1 -70.643901023310704 -25.186622740222365 18.142842942480584 0.51503808176128008 0 -0.85716729658548041 0.2142918241463701 0 0.12875952044032002 1 I I -0.70710678118654746 0.70710678118654746 0.25 forward I I I I #
loop $-1 $-1 $130 $33 #
coedge $-1 $81 $81 $131 $132 reversed $51 $-1 #
face $-1 $-1 $133 $27 $-1 $134 forward single #
loop $-1 $135 $136 $53 #
cone-surface $-1 -70.643901023310704 -23.33287315008031 18.142842942480584 0.51503808176128008 0 -0.85716729658548041 0.2142918241463701 0 0.12875952044032002 1 I I -0.70710678118654746 0.70710678118654746 0.25 forward I I I I #
loop $-1 $-1 $137 $34 #
coedge $-1 $86 $86 $138 $139 reversed $54 $-1 #
face $-1 $140 $141 $21 $-1 $142 reversed single #
loop $-1 $-1 $143 $56 #
plane-surface $-1 0 -45.960456209720768 0 0 1 0 0 0 1 forward_v I I I I #
coedge $-1 $144 $145 $146 $147 forward $57 $-1 #
coedge $-1 $148 $59 $149 $150 forward $36 $-1 #
coedge $-1 $59 $148 $151 $152 forward $36 $-1 #
coedge $-1 $153 $154 $59 $94 reversed $155 $-1 #
edge $-1 $156 -45.960456209720768 $157 45.960456209720768 $93 $158 forward 7 unknown #
face $-1 $159 $160 $22 $-1 $161 reversed single #
loop $-1 $-1 $162 $60 #
plane-surface $-1 0 0 22.038492508095146 0 0 1 1 0 0 forward_v I I I I #
coedge $-1 $163 $164 $165 $166 reversed $61 $-1 #
coedge $-1 $167 $63 $168 $169 reversed $39 $-1 #
coedge $-1 $63 $167 $170 $171 reversed $39 $-1 #
coedge $-1 $164 $163 $63 $102 reversed $61 $-1 #
edge $-1 $172 -22.038492508095146 $173 22.038492508095146 $101 $174 forward 7 unknown #
face $-1 $175 $176 $23 $-1 $177 reversed single #
loop $-1 $-1 $178 $64 #
plane-surface $-1 0 45.960456209720768 0 0 -1 0 0 0 -1 forward_v I I I I #
coedge $-1 $179 $180 $181 $182 reversed $65 $-1 #
coedge $-1 $183 $67 $179 $184 forward $42 $-1 #
coedge $-1 $67 $183 $178 $185 reversed $42 $-1 #
coedge $-1 $186 $187 $67 $110 forward $188 $-1 #
edge $-1 $189 6.2452661649850221 $190 28.5585487514855 $109 $191 forward 7 unknown #
face $-1 $192 $193 $24 $-1 $194 forward single #
loop $-1 $-1 $195 $68 #
plane-surface $-1 -70.84705820965064 -28.276205390459118 0 0 -1 0 0 0 -1 forward_v I I I I #
coedge $-1 $196 $197 $198 $199 reversed $69 $-1 #
coedge $-1 $200 $71 $195 $201 reversed $45 $-1 #
coedge $-1 $71 $200 $196 $202 forward $45 $-1 #
coedge $-1 $198 $203 $71 $118 forward $193 $-1 #
edge $-1 $204 -15.682894020347939 $205 -9.5037287198744256 $117 $206 forward 7 unknown #
loop $-1 $-1 $124 $72 #
plane-surface $-1 -75.219580675679779 -25.186622740222365 17.835186804665909 -0.51503808176128008 0 0.85716729658548041 0.85716729658548041 0 0.51503808176128008 forward_v I I I I #
loop $-1 $-1 $207 $47 #
coedge $-1 $122 $122 $123 $208 reversed $73 $-1 #
coedge $-1 $123 $123 $122 $208 forward $75 $-1 #
coedge $-1 $124 $124 $76 $125 forward $119 $-1 #
edge $-1 $209 0 $209 6.2831853071796004 $124 $210 forward 7 unknown #
loop $-1 $-1 $131 $77 #
plane-surface $-1 -75.219580675679779 -25.186622740222365 17.835186804665909 -0.51503808176128008 0 0.85716729658548041 0.85716729658548041 0 0.51503808176128008 forward_v I I I I #
loop $-1 $-1 $211 $50 #
coedge $-1 $129 $129 $130 $212 reversed $78 $-1 #
coedge $-1 $130 $130 $129 $212 forward $80 $-1 #
coedge $-1 $131 $131 $81 $132 forward $126 $-1 #
edge $-1 $213 0 $213 6.2831853071796004 $131 $214 forward 7 unknown #
loop $-1 $-1 $138 $82 #
plane-surface $-1 -75.219580675679779 -25.186622740222365 17.835186804665909 -0.51503808176128008 0 0.85716729658548041 0.85716729658548041 0 0.51503808176128008 forward_v I I I I #
loop $-1 $-1 $215 $53 #
coedge $-1 $136 $136 $137 $216 reversed $83 $-1 #
coedge $-1 $137 $137 $136 $216 forward $85 $-1 #
coedge $-1 $138 $138 $86 $139 forward $133 $-1 #
edge $-1 $217 0 $217 6.2831853071796004 $138 $218 forward 7 unknown #
face $-1 $219 $220 $21 $-1 $221 reversed single #
loop $-1 $-1 $222 $87 #
plane-surface $-1 -75.219580675679794 0 0 1 0 0 0 0 -1 forward_v I I I I #
coedge $-1 $223 $151 $224 $225 forward $88 $-1 #
coedge $-1 $226 $90 $223 $227 forward $57 $-1 #
coedge $-1 $90 $226 $228 $229 forward $57 $-1 #
coedge $-1 $154 $153 $90 $147 reversed $155 $-1 #
edge $-1 $230 -45.960456209720768 $231 45.960456209720768 $146 $232 forward 7 unknown #
coedge $-1 $92 $91 $233 $234 forward $36 $-1 #
coedge $-1 $235 $236 $91 $150 reversed $220 $-1 #
edge $-1 $157 -75.219580675679794 $237 75.219580675679794 $149 $238 forward 7 unknown #
coedge $-1 $143 $239 $92 $152 reversed $88 $-1 #
edge $-1 $240 -75.219580675679794 $156 75.219580675679794 $151 $241 forward 7 unknown #
coedge $-1 $146 $93 $239 $242 forward $155 $-1 #
coedge $-1 $93 $146 $235 $243 reversed $155 $-1 #
loop $-1 $-1 $153 $219 #
vertex $-1 $94 $244 #
vertex $-1 $94 $245 #
straight-curve $-1 75.219580675679794 0 22.038492508095146 0 1 0 I I #
face $-1 $246 $247 $22 $-1 $248 reversed single #
loop $-1 $-1 $249 $95 #
plane-surface $-1 -75.219580675679794 0 0 1 0 0 0 0 -1 forward_v I I I I #
coedge $-1 $170 $250 $164 $251 forward $96 $-1 #
coedge $-1 $101 $98 $252 $253 reversed $61 $-1 #
coedge $-1 $98 $101 $162 $251 reversed $61 $-1 #
coedge $-1 $254 $255 $98 $166 forward $256 $-1 #
edge $-1 $257 -22.038492508095146 $258 22.038492508095146 $165 $259 forward 7 unknown #
coedge $-1 $100 $99 $249 $260 reversed $39 $-1 #
coedge $-1 $252 $261 $99 $169 forward $247 $-1 #
edge $-1 $262 -39.796051570854473 $173 -31.051006638796167 $168 $263 forward 7 unknown #
coedge $-1 $264 $162 $100 $171 forward $96 $-1 #
edge $-1 $172 31.051006638796167 $265 39.796051570854473 $170 $266 forward 7 unknown #
vertex $-1 $171 $267 #
vertex $-1 $169 $268 #
straight-curve $-1 -66.474535743621487 -28.276205390459118 0 0 0 -1 I I #
face $-1 $269 $270 $23 $-1 $271 forward single #
loop $-1 $-1 $272 $103 #
plane-surface $-1 -75.219580675679794 0 0 1 0 0 0 0 -1 forward_v I I I I #
coedge $-1 $273 $274 $108 $185 forward $104 $-1 #
coedge $-1 $275 $106 $107 $184 reversed $65 $-1 #
coedge $-1 $106 $275 $276 $277 reversed $65 $-1 #
coedge $-1 $278 $272 $106 $182 forward $176 $-1 #
edge $-1 $279 7.5813100261428623 $280 12.165224996682479 $181 $281 forward 7 unknown #
coedge $-1 $108 $107 $272 $282 reversed $42 $-1 #
edge $-1 $189 -75.219580675679794 $279 75.219580675679794 $179 $283 forward 7 unknown #
edge $-1 $190 -75.219580675679794 $284 75.219580675679794 $178 $285 forward 7 unknown #
coedge $-1 $286 $109 $274 $287 reversed $188 $-1 #
coedge $-1 $109 $286 $275 $288 forward $188 $-1 #
loop $-1 $-1 $109 $269 #
vertex $-1 $110 $289 #
vertex $-1 $185 $290 #
straight-curve $-1 75.219580675679794 17.401907458235261 17.454577537555533 0 1 0 I I #
face $-1 $-1 $291 $24 $-1 $292 reversed single #
loop $-1 $-1 $117 $111 #
plane-surface $-1 0 0 22.038492508095146 0 0 1 1 0 0 forward_v I I I I #
coedge $-1 $293 $294 $115 $201 forward $112 $-1 #
coedge $-1 $197 $114 $116 $202 reversed $69 $-1 #
coedge $-1 $114 $196 $295 $296 reversed $69 $-1 #
coedge $-1 $297 $117 $114 $199 forward $193 $-1 #
edge $-1 $205 -8.1266335178614213 $298 -1.1311582042500703 $198 $299 forward 7 unknown #
coedge $-1 $116 $115 $300 $301 reversed $45 $-1 #
edge $-1 $302 2.7189085691318522 $204 10.880063738581004 $195 $303 forward 7 unknown #
edge $-1 $304 -1.584064559475167e-014 $205 8.1611551694491382 $196 $305 forward 7 unknown #
coedge $-1 $117 $297 $293 $306 forward $193 $-1 #
vertex $-1 $118 $307 #
vertex $-1 $118 $308 #
straight-curve $-1 -68.224105362068457 -12.593311370111183 22.038492508095146 0 1 0 I I #
coedge $-1 $207 $207 $-1 $309 reversed $121 $-1 #
edge $-1 $310 0 $310 6.2831853071796004 $122 $311 forward 7 unknown #
vertex $-1 $125 $312 #
ellipse-curve $-1 -71.721843018874139 -27.04037233036442 19.936839656380513 -0.51503808176128008 0 0.85716729658548041 0.4285836482927402 0 0.25751904088064004 1 I I #
coedge $-1 $211 $211 $-1 $313 reversed $128 $-1 #
edge $-1 $314 0 $314 6.2831853071796004 $129 $315 forward 7 unknown #
vertex $-1 $132 $316 #
ellipse-curve $-1 -71.721843018874139 -25.186622740222365 19.936839656380513 -0.51503808176128008 0 0.85716729658548041 0.4285836482927402 0 0.25751904088064004 1 I I #
coedge $-1 $215 $215 $-1 $317 reversed $135 $-1 #
edge $-1 $318 0 $318 6.2831853071796004 $136 $319 forward 7 unknown #
vertex $-1 $139 $320 #
ellipse-curve $-1 -71.721843018874139 -23.33287315008031 19.936839656380513 -0.51503808176128008 0 0.85716729658548041 0.4285836482927402 0 0.25751904088064004 1 I I #
face $-1 $-1 $155 $21 $-1 $321 reversed single #
loop $-1 $-1 $235 $140 #
plane-surface $-1 0 45.960456209720768 0 0 -1 0 0 0 -1 forward_v I I I I #
coedge $-1 $322 $233 $236 $323 forward $141 $-1 #
coedge $-1 $239 $143 $144 $227 reversed $88 $-1 #
coedge $-1 $233 $322 $143 $225 reversed $141 $-1 #
edge $-1 $240 -22.038492508095146 $324 22.038492508095146 $224 $325 forward 7 unknown #
coedge $-1 $145 $144 $322 $326 forward $57 $-1 #
edge $-1 $231 -75.219580675679794 $324 75.219580675679794 $223 $327 forward 7 unknown #
coedge $-1 $236 $235 $145 $229 reversed $220 $-1 #
edge $-1 $328 -75.219580675679794 $230 75.219580675679794 $228 $329 forward 7 unknown #
vertex $-1 $147 $330 #
vertex $-1 $242 $331 #
straight-curve $-1 75.219580675679794 0 -22.038492508095146 0 -1 0 I I #
coedge $-1 $222 $224 $148 $234 reversed $141 $-1 #
edge $-1 $237 -45.960456209720768 $240 45.960456209720768 $233 $332 forward 7 unknown #
coedge $-1 $228 $149 $154 $243 forward $220 $-1 #
coedge $-1 $149 $228 $222 $323 reversed $220 $-1 #
vertex $-1 $150 $333 #
straight-curve $-1 0 45.960456209720768 22.038492508095146 -1 0 0 I I #
coedge $-1 $151 $223 $153 $242 reversed $88 $-1 #
vertex $-1 $234 $334 #
straight-curve $-1 0 -45.960456209720768 22.038492508095146 1 0 0 I I #
edge $-1 $156 -22.038492508095146 $231 22.038492508095146 $153 $335 forward 7 unknown #
edge $-1 $157 -22.038492508095146 $230 22.038492508095146 $154 $336 forward 7 unknown #
point $-1 75.219580675679794 -45.960456209720768 22.038492508095146 #
point $-1 75.219580675679794 45.960456209720768 22.038492508095146 #
face $-1 $-1 $256 $22 $-1 $337 reversed single #
loop $-1 $-1 $252 $159 #
plane-surface $-1 0 0 -22.038492508095146 0 0 1 1 0 0 forward_v I I I I #
coedge $-1 $338 $339 $167 $260 forward $160 $-1 #
coedge $-1 $162 $264 $254 $340 forward $96 $-1 #
edge $-1 $258 -27.401290809675796 $172 -9.7170399904141469 $162 $341 forward 7 unknown #
coedge $-1 $342 $168 $163 $253 forward $247 $-1 #
edge $-1 $173 9.7170399904141469 $257 27.401290809675796 $252 $343 forward 7 unknown #
coedge $-1 $344 $165 $250 $340 reversed $256 $-1 #
coedge $-1 $165 $344 $342 $345 reversed $256 $-1 #
loop $-1 $-1 $165 $246 #
vertex $-1 $345 $346 #
vertex $-1 $166 $347 #
straight-curve $-1 -66.474535743621487 -45.960456209720768 0 0 0 1 I I #
edge $-1 $265 -22.038492508095146 $262 22.038492508095146 $249 $348 forward 7 unknown #
coedge $-1 $168 $342 $338 $349 forward $247 $-1 #
vertex $-1 $169 $350 #
straight-curve $-1 -35.42352910482532 -28.276205390459118 -22.038492508095146 1 0 0 I I #
coedge $-1 $250 $170 $339 $351 forward $96 $-1 #
vertex $-1 $351 $352 #
straight-curve $-1 -35.42352910482532 -28.276205390459118 22.038492508095146 -1 0 0 I I #
point $-1 -66.474535743621487 -28.276205390459118 22.038492508095146 #
point $-1 -66.474535743621487 -28.276205390459118 -22.038492508095146 #
face $-1 $-1 $188 $23 $-1 $353 reversed single #
loop $-1 $-1 $276 $175 #
plane-surface $-1 0 0 22.038492508095146 0 0 1 1 0 0 forward_v I I I I #
coedge $-1 $181 $354 $183 $282 forward $176 $-1 #
coedge $-1 $355 $178 $354 $356 reversed $104 $-1 #
coedge $-1 $178 $355 $186 $287 forward $104 $-1 #
coedge $-1 $180 $179 $187 $288 reversed $65 $-1 #
coedge $-1 $357 $358 $180 $277 forward $270 $-1 #
edge $-1 $280 -75.219580675679794 $359 75.219580675679794 $276 $360 forward 7 unknown #
coedge $-1 $354 $181 $358 $361 reversed $176 $-1 #
vertex $-1 $282 $362 #
vertex $-1 $182 $363 #
straight-curve $-1 -75.219580675679794 23.647173623220283 9.8732675114126707 0 0 1 I I #
edge $-1 $284 -28.5585487514855 $279 -6.2452661649850221 $272 $364 forward 7 unknown #
straight-curve $-1 0 23.647173623220283 17.454577537555533 -1 0 0 I I #
vertex $-1 $282 $365 #
straight-curve $-1 0 45.960456209720768 17.454577537555533 -1 0 0 I I #
coedge $-1 $187 $186 $357 $366 reversed $188 $-1 #
edge $-1 $367 -22.038492508095146 $190 -17.454577537555533 $186 $368 forward 7 unknown #
edge $-1 $359 -12.165224996682479 $189 -7.5813100261428623 $187 $369 forward 7 unknown #
point $-1 75.219580675679794 23.647173623220283 17.454577537555533 #
point $-1 75.219580675679794 45.960456209720761 17.454577537555533 #
loop $-1 $-1 $300 $192 #
plane-surface $-1 -75.219580675679794 0 0 1 0 0 0 0 -1 forward_v I I I I #
coedge $-1 $294 $195 $203 $306 reversed $112 $-1 #
coedge $-1 $195 $293 $370 $371 reversed $112 $-1 #
coedge $-1 $300 $372 $197 $296 forward $291 $-1 #
edge $-1 $298 51.354865512303704 $304 55.558171215732948 $295 $373 forward 7 unknown #
coedge $-1 $203 $198 $372 $374 forward $193 $-1 #
vertex $-1 $374 $375 #
straight-curve $-1 -76.350738879929864 -22.097040089985608 22.038492508095146 -1 0 0 I I #
coedge $-1 $370 $295 $200 $301 forward $291 $-1 #
edge $-1 $304 9.5037287198744256 $302 15.682894020347939 $300 $376 forward 7 unknown #
vertex $-1 $371 $377 #
straight-curve $-1 -77.550140183545636 -28.276205390459118 16.43484535073592 0.85716729658548041 0 0.51503808176128008 I I #
vertex $-1 $301 $378 #
straight-curve $-1 -75.219580675679779 -22.097040089985608 17.835186804665909 0.85716729658548041 0 0.51503808176128008 I I #
edge $-1 $379 -39.796051570854473 $204 -32.800576257243122 $203 $380 forward 7 unknown #
point $-1 -68.224105362068443 -28.276205390459122 22.038492508095146 #
point $-1 -68.224105362068443 -22.097040089985608 22.038492508095146 #
edge $-1 $381 1 $381 0 $207 $-1 forward 7 unknown #
vertex $-1 $208 $382 #
ellipse-curve $-1 -70.77266054375103 -27.04037233036442 18.357134766626956 -0.51503808176128008 0 0.85716729658548041 0.4285836482927402 0 0.25751904088064004 1 I I #
point $-1 -71.293259370581396 -27.04037233036442 20.194358697261173 #
edge $-1 $383 1 $383 0 $211 $-1 forward 7 unknown #
vertex $-1 $212 $384 #
ellipse-curve $-1 -70.77266054375103 -25.186622740222365 18.357134766626956 -0.51503808176128008 0 0.85716729658548041 0.4285836482927402 0 0.25751904088064004 1 I I #
point $-1 -71.293259370581396 -25.186622740222365 20.194358697261173 #
edge $-1 $385 1 $385 0 $215 $-1 forward 7 unknown #
vertex $-1 $216 $386 #
ellipse-curve $-1 -70.77266054375103 -23.33287315008031 18.357134766626956 -0.51503808176128008 0 0.85716729658548041 0.4285836482927402 0 0.25751904088064004 1 I I #
point $-1 -71.293259370581396 -23.33287315008031 20.194358697261173 #
plane-surface $-1 75.219580675679794 0 0 -1 0 0 0 0 1 forward_v I I I I #
coedge $-1 $224 $222 $226 $326 reversed $141 $-1 #
edge $-1 $237 -22.038492508095146 $328 22.038492508095146 $236 $387 forward 7 unknown #
vertex $-1 $326 $388 #
straight-curve $-1 -75.219580675679794 -45.960456209720768 0 0 0 -1 I I #
edge $-1 $324 -45.960456209720768 $328 45.960456209720768 $322 $389 forward 7 unknown #
straight-curve $-1 0 -45.960456209720768 -22.038492508095146 -1 0 0 I I #
vertex $-1 $229 $390 #
straight-curve $-1 0 45.960456209720768 -22.038492508095146 1 0 0 I I #
point $-1 75.219580675679794 45.960456209720768 -22.038492508095146 #
point $-1 75.219580675679794 -45.960456209720768 -22.038492508095146 #
straight-curve $-1 -75.219580675679794 0 22.038492508095146 0 -1 0 I I #
point $-1 -75.219580675679794 45.960456209720768 22.038492508095146 #
point $-1 -75.219580675679794 -45.960456209720768 22.038492508095146 #
straight-curve $-1 75.219580675679794 -45.960456209720768 0 0 0 -1 I I #
straight-curve $-1 75.219580675679794 45.960456209720768 0 0 0 -1 I I #
plane-surface $-1 0 -45.960456209720768 0 0 1 0 0 0 1 forward_v I I I I #
coedge $-1 $391 $249 $261 $349 reversed $160 $-1 #
coedge $-1 $249 $391 $264 $351 reversed $160 $-1 #
edge $-1 $392 -75.219580675679794 $258 -66.474535743621487 $254 $393 forward 7 unknown #
straight-curve $-1 -66.474535743621487 -18.559165400044972 22.038492508095146 0 1 0 I I #
coedge $-1 $261 $252 $255 $345 forward $247 $-1 #
straight-curve $-1 -66.474535743621487 -18.559165400044972 -22.038492508095146 0 -1 0 I I #
coedge $-1 $255 $254 $391 $394 forward $256 $-1 #
edge $-1 $257 66.474535743621487 $395 75.219580675679794 $255 $396 forward 7 unknown #
point $-1 -66.474535743621487 -45.960456209720768 -22.038492508095146 #
point $-1 -66.474535743621487 -45.960456209720768 22.038492508095146 #
straight-curve $-1 -75.219580675679794 -28.276205390459118 0 0 0 -1 I I #
edge $-1 $395 -45.960456209720768 $262 -28.276205390459118 $338 $397 forward 7 unknown #
point $-1 -75.219580675679794 -28.276205390459118 -22.038492508095146 #
edge $-1 $265 28.276205390459118 $392 45.960456209720768 $339 $398 forward 7 unknown #
point $-1 -75.219580675679794 -28.276205390459118 22.038492508095146 #
plane-surface $-1 75.219580675679794 0 0 -1 0 0 0 0 1 forward_v I I I I #
coedge $-1 $272 $278 $273 $356 forward $176 $-1 #
coedge $-1 $274 $273 $399 $400 reversed $104 $-1 #
edge $-1 $401 -22.038492508095146 $284 -17.454577537555533 $273 $402 forward 7 unknown #
coedge $-1 $399 $276 $286 $366 forward $270 $-1 #
coedge $-1 $276 $399 $278 $361 forward $270 $-1 #
vertex $-1 $366 $403 #
straight-curve $-1 0 23.647173623220283 22.038492508095146 1 0 0 I I #
edge $-1 $401 -45.960456209720768 $280 -23.647173623220283 $278 $404 forward 7 unknown #
point $-1 -75.219580675679794 23.647173623220283 17.454577537555533 #
point $-1 -75.219580675679794 23.647173623220283 22.03849250809515 #
straight-curve $-1 -75.219580675679794 17.401907458235261 17.454577537555533 0 -1 0 I I #
point $-1 -75.219580675679794 45.960456209720761 17.454577537555533 #
edge $-1 $359 23.647173623220283 $367 45.960456209720768 $286 $405 forward 7 unknown #
vertex $-1 $366 $406 #
straight-curve $-1 75.219580675679794 45.960456209720768 0 0 0 -1 I I #
straight-curve $-1 75.219580675679794 23.647173623220283 9.8732675114126707 0 0 -1 I I #
coedge $-1 $372 $300 $294 $371 forward $291 $-1 #
edge $-1 $302 17.835186804665902 $379 22.038492508095146 $370 $407 forward 7 unknown #
coedge $-1 $295 $370 $297 $374 reversed $291 $-1 #
straight-curve $-1 -75.219580675679794 -22.097040089985608 73.39335802039885 0 0 -1 I I #
edge $-1 $298 22.097040089985608 $379 28.276205390459118 $372 $408 forward 7 unknown #
point $-1 -75.219580675679794 -22.097040089985608 22.038492508095146 #
straight-curve $-1 -75.219580675679794 -12.593311370111183 17.835186804665906 0 -1 0 I I #
point $-1 -75.219580675679794 -28.276205390459122 17.835186804665902 #
point $-1 -75.219580675679794 -22.097040089985608 17.835186804665902 #
vertex $-1 $371 $409 #
straight-curve $-1 -35.42352910482532 -28.276205390459118 22.038492508095146 1 0 0 I I #
vertex $-1 $309 $410 #
point $-1 -70.344076895458286 -27.04037233036442 18.614653807507594 #
vertex $-1 $313 $411 #
point $-1 -70.344076895458286 -25.186622740222365 18.614653807507594 #
vertex $-1 $317 $412 #
point $-1 -70.344076895458286 -23.33287315008031 18.614653807507594 #
straight-curve $-1 -75.219580675679794 45.960456209720768 0 0 0 -1 I I #
point $-1 -75.219580675679794 -45.960456209720768 -22.038492508095146 #
straight-curve $-1 -75.219580675679794 0 -22.038492508095146 0 1 0 I I #
point $-1 -75.219580675679794 45.960456209720768 -22.038492508095146 #
coedge $-1 $339 $338 $344 $394 reversed $160 $-1 #
vertex $-1 $351 $413 #
straight-curve $-1 0 -45.960456209720768 22.038492508095146 1 0 0 I I #
edge $-1 $392 -22.038492508095146 $395 22.038492508095146 $391 $414 forward 7 unknown #
vertex $-1 $349 $415 #
straight-curve $-1 0 -45.960456209720768 -22.038492508095146 -1 0 0 I I #
straight-curve $-1 -75.219580675679794 0 -22.038492508095146 0 1 0 I I #
straight-curve $-1 -75.219580675679794 0 22.038492508095146 0 -1 0 I I #
coedge $-1 $358 $357 $355 $400 forward $270 $-1 #
edge $-1 $367 -75.219580675679794 $401 75.219580675679794 $355 $416 forward 7 unknown #
vertex $-1 $400 $417 #
straight-curve $-1 -75.219580675679794 45.960456209720768 0 0 0 -1 I I #
point $-1 75.219580675679794 23.647173623220283 22.03849250809515 #
straight-curve $-1 -75.219580675679794 0 22.038492508095146 0 -1 0 I I #
straight-curve $-1 75.219580675679794 0 22.038492508095146 0 1 0 I I #
point $-1 75.219580675679794 45.960456209720768 22.038492508095146 #
straight-curve $-1 -75.219580675679794 -28.276205390459118 0 0 0 1 I I #
straight-curve $-1 -75.219580675679794 0 22.038492508095146 0 -1 0 I I #
point $-1 -75.219580675679794 -28.276205390459118 22.038492508095146 #
point $-1 -70.515141502870378 -27.04037233036442 17.928551118334212 #
point $-1 -70.515141502870378 -25.186622740222365 17.928551118334212 #
point $-1 -70.515141502870378 -23.33287315008031 17.928551118334212 #
point $-1 -75.219580675679794 -45.960456209720768 22.038492508095146 #
straight-curve $-1 -75.219580675679794 -45.960456209720768 0 0 0 -1 I I #
point $-1 -75.219580675679794 -45.960456209720768 -22.038492508095146 #
straight-curve $-1 0 45.960456209720768 22.038492508095146 -1 0 0 I I #
point $-1 -75.219580675679794 45.960456209720768 22.038492508095146 #
End-of-ACIS-data 