500 0 14 0           
7 Unknown 11 ACIS 5.0 NT 24 Fri Mar 26 00:19:23 1999 
-1 9.9999999999999995e-007 1e-010 
body $-1 $14 $-1 $15 #
body $-1 $16 $-1 $17 #
body $-1 $18 $-1 $19 #
body $-1 $20 $-1 $21 #
body $-1 $22 $-1 $23 #
body $-1 $24 $-1 $25 #
body $-1 $26 $-1 $27 #
body $-1 $28 $-1 $29 #
body $-1 $30 $-1 $31 #
body $-1 $32 $-1 $33 #
body $-1 $34 $-1 $35 #
body $-1 $36 $-1 $37 #
body $-1 $38 $-1 $39 #
body $-1 $40 $-1 $41 #
lump $-1 $-1 $42 $0 #
transform $-1 1 0 0 0 1 0 0 0 1 50.738853114413892 26.364785753408771 9.6550457205909588 1 rotate no_reflect no_shear #
lump $-1 $-1 $43 $1 #
transform $-1 1 0 0 0 1 0 0 0 1 50.738853114413892 26.364785753408771 9.6550457205909588 1 rotate no_reflect no_shear #
lump $-1 $-1 $44 $2 #
transform $-1 1 0 0 0 1 0 0 0 1 50.738853114413892 26.364785753408771 9.6550457205909588 1 rotate no_reflect no_shear #
lump $-1 $-1 $45 $3 #
transform $-1 1 0 0 0 1 0 0 0 1 50.738853114413892 26.364785753408771 9.6550457205909588 1 rotate no_reflect no_shear #
lump $-1 $-1 $46 $4 #
transform $-1 1 0 0 0 1 0 0 0 1 50.738853114413892 26.364785753408771 9.6550457205909588 1 rotate no_reflect no_shear #
lump $-1 $-1 $47 $5 #
transform $-1 1 0 0 0 1 0 0 0 1 50.738853114413892 26.364785753408771 9.6550457205909588 1 rotate no_reflect no_shear #
lump $-1 $-1 $48 $6 #
transform $-1 1 0 0 0 1 0 0 0 1 50.738853114413892 26.364785753408771 9.6550457205909588 1 rotate no_reflect no_shear #
lump $-1 $-1 $49 $7 #
transform $-1 1 0 0 0 1 0 0 0 1 50.738853114413892 26.364785753408771 9.6550457205909588 1 rotate no_reflect no_shear #
lump $-1 $-1 $50 $8 #
transform $-1 1 0 0 0 1 0 0 0 1 50.738853114413892 26.364785753408771 9.6550457205909588 1 rotate no_reflect no_shear #
lump $-1 $-1 $51 $9 #
transform $-1 1 0 0 0 1 0 0 0 1 50.738853114413892 26.364785753408771 9.6550457205909588 1 rotate no_reflect no_shear #
lump $-1 $-1 $52 $10 #
transform $-1 1 0 0 0 1 0 0 0 1 50.738853114413892 26.364785753408771 9.6550457205909588 1 rotate no_reflect no_shear #
lump $-1 $-1 $53 $11 #
transform $-1 1 0 0 0 1 0 0 0 1 50.738853114413892 26.364785753408771 9.6550457205909588 1 rotate no_reflect no_shear #
lump $-1 $-1 $54 $12 #
transform $-1 1 0 0 0 1 0 0 0 1 50.738853114413892 26.364785753408771 9.6550457205909588 1 rotate no_reflect no_shear #
lump $-1 $-1 $55 $13 #
transform $-1 1 0 0 0 1 0 0 0 1 50.738853114413892 26.364785753408771 9.6550457205909588 1 rotate no_reflect no_shear #
shell $-1 $-1 $-1 $56 $-1 $14 #
shell $-1 $-1 $-1 $57 $-1 $16 #
shell $-1 $-1 $-1 $58 $-1 $18 #
shell $-1 $-1 $-1 $59 $-1 $20 #
shell $-1 $-1 $-1 $60 $-1 $22 #
shell $-1 $-1 $-1 $61 $-1 $24 #
shell $-1 $-1 $-1 $62 $-1 $26 #
shell $-1 $-1 $-1 $63 $-1 $28 #
shell $-1 $-1 $-1 $64 $-1 $30 #
shell $-1 $-1 $-1 $65 $-1 $32 #
shell $-1 $-1 $-1 $66 $-1 $34 #
shell $-1 $-1 $-1 $67 $-1 $36 #
shell $-1 $-1 $-1 $68 $-1 $38 #
shell $-1 $-1 $-1 $69 $-1 $40 #
face $-1 $70 $71 $42 $-1 $72 forward single #
face $-1 $73 $74 $43 $-1 $75 forward single #
face $-1 $76 $77 $44 $-1 $78 reversed single #
face $-1 $79 $80 $45 $-1 $81 forward single #
face $-1 $82 $83 $46 $-1 $84 forward single #
face $-1 $85 $86 $47 $-1 $87 reversed single #
face $-1 $88 $89 $48 $-1 $90 forward single #
face $-1 $91 $92 $49 $-1 $93 forward single #
face $-1 $94 $95 $50 $-1 $96 reversed single #
face $-1 $97 $98 $51 $-1 $99 forward single #
face $-1 $100 $101 $52 $-1 $102 forward single #
face $-1 $103 $104 $53 $-1 $105 reversed single #
face $-1 $106 $107 $54 $-1 $108 forward single #
face $-1 $109 $110 $55 $-1 $111 forward single #
face $-1 $112 $113 $42 $-1 $114 reversed single #
loop $-1 $-1 $115 $56 #
plane-surface $-1 0 0 9.6550457205909588 0 0 1 1 0 0 forward_v I I I I #
face $-1 $116 $117 $43 $-1 $118 reversed single #
loop $-1 $-1 $119 $57 #
plane-surface $-1 0 -22.902564795859121 -5.9519657441221092 0 0 1 1 0 0 forward_v I I I I #
face $-1 $120 $121 $44 $-1 $122 reversed single #
loop $-1 $-1 $123 $58 #
plane-surface $-1 85.457344299913728 -11.121049184861308 143.23169447821661 0 -1 0 -0.85716730853699208 0 -0.51503806187062418 forward_v I I I I #
face $-1 $124 $125 $45 $-1 $126 forward single #
loop $-1 $127 $128 $59 #
cone-surface $-1 47.918052702721617 -17.063402508752851 6.1481550758601884 -0.85716730853699208 0 -0.51503806187062418 0.51503806187062418 0 -0.85716730853699208 1 I I 0 1 1 forward I I I I #
face $-1 $129 $130 $46 $-1 $131 forward single #
loop $-1 $132 $133 $60 #
cone-surface $-1 47.918052702721617 -13.497990514417925 6.1481550758601884 -0.85716730853699208 0 -0.51503806187062418 0.51503806187062418 0 -0.85716730853699208 1 I I 0 1 1 forward I I I I #
face $-1 $134 $135 $47 $-1 $136 reversed single #
loop $-1 $-1 $137 $61 #
plane-surface $-1 85.457344299913728 18.0454910999606 143.23169447821661 0 1 0 0.85716730853699208 0 0.51503806187062418 forward_v I I I I #
face $-1 $138 $139 $48 $-1 $140 forward single #
loop $-1 $141 $142 $62 #
cone-surface $-1 47.918052702721617 20.422432429517219 6.1481550758601884 -0.85716730853699208 0 -0.51503806187062418 0.51503806187062418 0 -0.85716730853699208 1 I I 0 1 1 forward I I I I #
face $-1 $143 $144 $49 $-1 $145 forward single #
loop $-1 $146 $147 $63 #
cone-surface $-1 47.918052702721617 23.987844423852149 6.1481550758601884 -0.85716730853699208 0 -0.51503806187062418 0.51503806187062418 0 -0.85716730853699208 1 I I 0 1 1 forward I I I I #
face $-1 $148 $149 $50 $-1 $150 reversed single #
loop $-1 $-1 $151 $64 #
plane-surface $-1 -137.72222543908575 -19.440343838309474 56.248322153544734 0 1 0 -0.85716730853699208 0 0.51503806187062418 forward_v I I I I #
face $-1 $152 $153 $51 $-1 $154 forward single #
loop $-1 $155 $156 $65 #
cone-surface $-1 -47.918052702721624 -17.063402508752851 6.1481550758601902 0.85716730853699208 0 -0.51503806187062418 0.51503806187062418 0 0.85716730853699208 1 I I 0 1 1 forward I I I I #
face $-1 $157 $158 $52 $-1 $159 forward single #
loop $-1 $160 $161 $66 #
cone-surface $-1 -47.918052702721624 -13.497990514417925 6.1481550758601902 0.85716730853699208 0 -0.51503806187062418 0.51503806187062418 0 0.85716730853699208 1 I I 0 1 1 forward I I I I #
face $-1 $162 $163 $53 $-1 $164 reversed single #
loop $-1 $-1 $165 $67 #
plane-surface $-1 -137.72222543908575 18.0454910999606 56.248322153544734 0 1 0 -0.85716730853699208 0 0.51503806187062418 forward_v I I I I #
face $-1 $166 $167 $54 $-1 $168 forward single #
loop $-1 $169 $170 $68 #
cone-surface $-1 -47.918052702721624 20.422432429517219 6.1481550758601902 0.85716730853699208 0 -0.51503806187062418 0.51503806187062418 0 0.85716730853699208 1 I I 0 1 1 forward I I I I #
face $-1 $171 $172 $55 $-1 $173 forward single #
loop $-1 $174 $175 $69 #
cone-surface $-1 -47.918052702721624 23.987844423852149 6.1481550758601902 0.85716730853699208 0 -0.51503806187062418 0.51503806187062418 0 0.85716730853699208 1 I I 0 1 1 forward I I I I #
face $-1 $176 $177 $42 $-1 $178 reversed single #
loop $-1 $-1 $179 $70 #
plane-surface $-1 0 0 -9.6550457205909588 0 0 1 1 0 0 forward_v I I I I #
coedge $-1 $180 $181 $182 $183 forward $71 $-1 #
face $-1 $184 $185 $43 $-1 $186 reversed single #
loop $-1 $-1 $187 $73 #
plane-surface $-1 0 -19.44034383830947 -7.803505732356534 0 -1 0 0 0 -1 forward_v I I I I #
coedge $-1 $188 $189 $190 $191 reversed $74 $-1 #
face $-1 $192 $193 $44 $-1 $194 reversed single #
loop $-1 $-1 $195 $76 #
plane-surface $-1 -1.5260280247581335 -15.28069651158539 90.966813339044592 0.85716730853699208 0 0.51503806187062418 0.51503806187062418 0 -0.85716730853699208 forward_v I I I I #
coedge $-1 $196 $197 $198 $199 reversed $77 $-1 #
face $-1 $-1 $200 $45 $-1 $201 forward single #
loop $-1 $202 $203 $79 #
cone-surface $-1 46.372590535376339 -17.063402508752851 5.2195477533032353 -0.85716730853699208 0 -0.51503806187062418 0.25751903093531209 0 -0.42858365426849604 1 I I -0.70710678118654746 0.70710678118654746 0.5 forward I I I I #
loop $-1 $-1 $204 $59 #
coedge $-1 $128 $128 $205 $206 reversed $80 $-1 #
face $-1 $-1 $207 $46 $-1 $208 forward single #
loop $-1 $209 $210 $82 #
cone-surface $-1 46.372590535376339 -13.497990514417925 5.2195477533032353 -0.85716730853699208 0 -0.51503806187062418 0.25751903093531209 0 -0.42858365426849604 1 I I -0.70710678118654746 0.70710678118654746 0.5 forward I I I I #
loop $-1 $-1 $211 $60 #
coedge $-1 $133 $133 $212 $213 reversed $83 $-1 #
face $-1 $214 $215 $47 $-1 $216 reversed single #
loop $-1 $-1 $217 $85 #
plane-surface $-1 -1.5260280247581335 22.20513842668468 90.966813339044592 0.85716730853699208 0 0.51503806187062418 0.51503806187062418 0 -0.85716730853699208 forward_v I I I I #
coedge $-1 $218 $219 $220 $221 reversed $86 $-1 #
face $-1 $-1 $222 $48 $-1 $223 forward single #
loop $-1 $224 $225 $88 #
cone-surface $-1 46.372590535376339 20.422432429517219 5.2195477533032353 -0.85716730853699208 0 -0.51503806187062418 0.25751903093531209 0 -0.42858365426849604 1 I I -0.70710678118654746 0.70710678118654746 0.5 forward I I I I #
loop $-1 $-1 $226 $62 #
coedge $-1 $142 $142 $227 $228 reversed $89 $-1 #
face $-1 $-1 $229 $49 $-1 $230 forward single #
loop $-1 $231 $232 $91 #
cone-surface $-1 46.372590535376339 23.987844423852149 5.2195477533032353 -0.85716730853699208 0 -0.51503806187062418 0.25751903093531209 0 -0.42858365426849604 1 I I -0.70710678118654746 0.70710678118654746 0.5 forward I I I I #
loop $-1 $-1 $233 $63 #
coedge $-1 $147 $147 $234 $235 reversed $92 $-1 #
face $-1 $236 $237 $50 $-1 $238 reversed single #
loop $-1 $-1 $239 $94 #
plane-surface $-1 -50.738853114413885 -15.28069651158539 3.9834410143727084 -0.85716730853699208 0 0.51503806187062418 0.51503806187062418 0 0.85716730853699208 forward_v I I I I #
coedge $-1 $240 $241 $242 $243 reversed $95 $-1 #
face $-1 $-1 $244 $51 $-1 $245 forward single #
loop $-1 $246 $247 $97 #
cone-surface $-1 -46.372590535376347 -17.063402508752851 5.2195477533032371 0.85716730853699208 0 -0.51503806187062418 0.25751903093531209 0 0.42858365426849604 1 I I -0.70710678118654746 0.70710678118654746 0.5 forward I I I I #
loop $-1 $-1 $248 $65 #
coedge $-1 $156 $156 $249 $250 reversed $98 $-1 #
face $-1 $-1 $251 $52 $-1 $252 forward single #
loop $-1 $253 $254 $100 #
cone-surface $-1 -46.372590535376347 -13.497990514417925 5.2195477533032371 0.85716730853699208 0 -0.51503806187062418 0.25751903093531209 0 0.42858365426849604 1 I I -0.70710678118654746 0.70710678118654746 0.5 forward I I I I #
loop $-1 $-1 $255 $66 #
coedge $-1 $161 $161 $256 $257 reversed $101 $-1 #
face $-1 $258 $259 $53 $-1 $260 forward single #
loop $-1 $-1 $261 $103 #
plane-surface $-1 -50.738853114413885 22.20513842668468 3.9834410143727084 -0.85716730853699208 0 0.51503806187062418 0.51503806187062418 0 0.85716730853699208 forward_v I I I I #
coedge $-1 $262 $263 $264 $265 reversed $104 $-1 #
face $-1 $-1 $266 $54 $-1 $267 forward single #
loop $-1 $268 $269 $106 #
cone-surface $-1 -46.372590535376347 20.422432429517219 5.2195477533032371 0.85716730853699208 0 -0.51503806187062418 0.25751903093531209 0 0.42858365426849604 1 I I -0.70710678118654746 0.70710678118654746 0.5 forward I I I I #
loop $-1 $-1 $270 $68 #
coedge $-1 $170 $170 $271 $272 reversed $107 $-1 #
face $-1 $-1 $273 $55 $-1 $274 forward single #
loop $-1 $275 $276 $109 #
cone-surface $-1 -46.372590535376347 23.987844423852149 5.2195477533032371 0.85716730853699208 0 -0.51503806187062418 0.25751903093531209 0 0.42858365426849604 1 I I -0.70710678118654746 0.70710678118654746 0.5 forward I I I I #
loop $-1 $-1 $277 $69 #
coedge $-1 $175 $175 $278 $279 reversed $110 $-1 #
face $-1 $280 $281 $42 $-1 $282 reversed single #
loop $-1 $-1 $283 $112 #
plane-surface $-1 0 -26.364785753408771 0 0 1 0 0 0 1 forward_v I I I I #
coedge $-1 $284 $285 $286 $287 forward $113 $-1 #
coedge $-1 $288 $115 $289 $290 forward $71 $-1 #
coedge $-1 $115 $288 $291 $292 forward $71 $-1 #
coedge $-1 $293 $294 $115 $183 reversed $295 $-1 #
edge $-1 $296 -26.364785753408771 $297 26.364785753408771 $182 $298 forward 7 unknown #
face $-1 $299 $300 $43 $-1 $301 reversed single #
loop $-1 $-1 $302 $116 #
plane-surface $-1 0 0 -9.6550457205909588 0 0 1 1 0 0 forward_v I I I I #
coedge $-1 $303 $304 $305 $306 reversed $117 $-1 #
coedge $-1 $307 $119 $304 $308 forward $74 $-1 #
coedge $-1 $119 $307 $309 $310 reversed $74 $-1 #
coedge $-1 $311 $305 $119 $191 forward $300 $-1 #
edge $-1 $312 7.9890614403799098 $313 14.913503355479211 $190 $314 forward 7 unknown #
face $-1 $315 $316 $44 $-1 $317 reversed single #
loop $-1 $-1 $318 $120 #
plane-surface $-1 85.457344299913728 -19.440343838309474 143.23169447821661 0 1 0 0.85716730853699208 0 0.51503806187062418 forward_v I I I I #
coedge $-1 $319 $320 $321 $322 reversed $121 $-1 #
coedge $-1 $197 $123 $323 $324 reversed $77 $-1 #
coedge $-1 $123 $196 $319 $325 reversed $77 $-1 #
coedge $-1 $321 $326 $123 $199 forward $327 $-1 #
edge $-1 $328 -8.0101809644570281 $329 -4.602337167226068 $198 $330 forward 7 unknown #
loop $-1 $-1 $205 $124 #
plane-surface $-1 -1.5260280247581335 -15.28069651158539 90.966813339044592 0.85716730853699208 0 0.51503806187062418 0.51503806187062418 0 -0.85716730853699208 forward_v I I I I #
loop $-1 $-1 $331 $79 #
coedge $-1 $203 $203 $204 $332 reversed $125 $-1 #
coedge $-1 $204 $204 $203 $332 forward $127 $-1 #
coedge $-1 $205 $205 $128 $206 forward $200 $-1 #
edge $-1 $333 0 $333 6.2831853071796004 $205 $334 forward 7 unknown #
loop $-1 $-1 $212 $129 #
plane-surface $-1 -1.5260280247581335 -15.28069651158539 90.966813339044592 0.85716730853699208 0 0.51503806187062418 0.51503806187062418 0 -0.85716730853699208 forward_v I I I I #
loop $-1 $-1 $335 $82 #
coedge $-1 $210 $210 $211 $336 reversed $130 $-1 #
coedge $-1 $211 $211 $210 $336 forward $132 $-1 #
coedge $-1 $212 $212 $133 $213 forward $207 $-1 #
edge $-1 $337 0 $337 6.2831853071796004 $212 $338 forward 7 unknown #
face $-1 $339 $340 $47 $-1 $341 forward single #
loop $-1 $-1 $220 $134 #
plane-surface $-1 50.738853114413892 0 0 -1 0 0 0 0 1 forward_v I I I I #
coedge $-1 $342 $343 $344 $345 reversed $135 $-1 #
coedge $-1 $219 $137 $346 $347 reversed $86 $-1 #
coedge $-1 $137 $218 $342 $348 reversed $86 $-1 #
coedge $-1 $344 $349 $137 $221 forward $215 $-1 #
edge $-1 $350 61.960801518517343 $351 67.632406224735576 $220 $352 forward 7 unknown #
loop $-1 $-1 $227 $138 #
plane-surface $-1 -1.5260280247581335 22.20513842668468 90.966813339044592 0.85716730853699208 0 0.51503806187062418 0.51503806187062418 0 -0.85716730853699208 forward_v I I I I #
loop $-1 $-1 $353 $88 #
coedge $-1 $225 $225 $226 $354 reversed $139 $-1 #
coedge $-1 $226 $226 $225 $354 forward $141 $-1 #
coedge $-1 $227 $227 $142 $228 forward $222 $-1 #
edge $-1 $355 0 $355 6.2831853071796004 $227 $356 forward 7 unknown #
loop $-1 $-1 $234 $143 #
plane-surface $-1 -1.5260280247581335 22.20513842668468 90.966813339044592 0.85716730853699208 0 0.51503806187062418 0.51503806187062418 0 -0.85716730853699208 forward_v I I I I #
loop $-1 $-1 $357 $91 #
coedge $-1 $232 $232 $233 $358 reversed $144 $-1 #
coedge $-1 $233 $233 $232 $358 forward $146 $-1 #
coedge $-1 $234 $234 $147 $235 forward $229 $-1 #
edge $-1 $359 0 $359 6.2831853071796004 $234 $360 forward 7 unknown #
face $-1 $361 $362 $50 $-1 $363 reversed single #
loop $-1 $-1 $364 $148 #
plane-surface $-1 -137.72222543908575 -11.121049184861308 56.248322153544734 0 -1 0 0.85716730853699208 0 -0.51503806187062418 forward_v I I I I #
coedge $-1 $365 $366 $367 $368 reversed $149 $-1 #
coedge $-1 $241 $151 $369 $370 reversed $95 $-1 #
coedge $-1 $151 $240 $365 $371 reversed $95 $-1 #
coedge $-1 $367 $372 $151 $243 forward $373 $-1 #
edge $-1 $374 18.122259605128981 $375 21.530103402359963 $242 $376 forward 7 unknown #
loop $-1 $-1 $249 $152 #
plane-surface $-1 -50.738853114413885 -15.28069651158539 3.9834410143727084 -0.85716730853699208 0 0.51503806187062418 0.51503806187062418 0 0.85716730853699208 forward_v I I I I #
loop $-1 $-1 $377 $97 #
coedge $-1 $247 $247 $248 $378 reversed $153 $-1 #
coedge $-1 $248 $248 $247 $378 forward $155 $-1 #
coedge $-1 $249 $249 $156 $250 forward $244 $-1 #
edge $-1 $379 0 $379 6.2831853071796004 $249 $380 forward 7 unknown #
loop $-1 $-1 $256 $157 #
plane-surface $-1 -50.738853114413885 -15.28069651158539 3.9834410143727084 -0.85716730853699208 0 0.51503806187062418 0.51503806187062418 0 0.85716730853699208 forward_v I I I I #
loop $-1 $-1 $381 $100 #
coedge $-1 $254 $254 $255 $382 reversed $158 $-1 #
coedge $-1 $255 $255 $254 $382 forward $160 $-1 #
coedge $-1 $256 $256 $161 $257 forward $251 $-1 #
edge $-1 $383 0 $383 6.2831853071796004 $256 $384 forward 7 unknown #
face $-1 $385 $386 $53 $-1 $387 reversed single #
loop $-1 $-1 $264 $162 #
plane-surface $-1 0 0 9.6550457205909588 0 0 1 1 0 0 forward_v I I I I #
coedge $-1 $388 $389 $390 $391 reversed $163 $-1 #
coedge $-1 $263 $165 $392 $393 reversed $104 $-1 #
coedge $-1 $165 $262 $388 $394 reversed $104 $-1 #
coedge $-1 $390 $395 $165 $265 forward $259 $-1 #
edge $-1 $396 18.122259605128981 $397 21.530103402359963 $264 $398 forward 7 unknown #
loop $-1 $-1 $271 $166 #
plane-surface $-1 -50.738853114413885 22.20513842668468 3.9834410143727084 -0.85716730853699208 0 0.51503806187062418 0.51503806187062418 0 0.85716730853699208 forward_v I I I I #
loop $-1 $-1 $399 $106 #
coedge $-1 $269 $269 $270 $400 reversed $167 $-1 #
coedge $-1 $270 $270 $269 $400 forward $169 $-1 #
coedge $-1 $271 $271 $170 $272 forward $266 $-1 #
edge $-1 $401 0 $401 6.2831853071796004 $271 $402 forward 7 unknown #
loop $-1 $-1 $278 $171 #
plane-surface $-1 -50.738853114413885 22.20513842668468 3.9834410143727084 -0.85716730853699208 0 0.51503806187062418 0.51503806187062418 0 0.85716730853699208 forward_v I I I I #
loop $-1 $-1 $403 $109 #
coedge $-1 $276 $276 $277 $404 reversed $172 $-1 #
coedge $-1 $277 $277 $276 $404 forward $174 $-1 #
coedge $-1 $278 $278 $175 $279 forward $273 $-1 #
edge $-1 $405 0 $405 6.2831853071796004 $278 $406 forward 7 unknown #
face $-1 $407 $408 $42 $-1 $409 reversed single #
loop $-1 $-1 $410 $176 #
plane-surface $-1 -50.738853114413892 0 0 1 0 0 0 0 -1 forward_v I I I I #
coedge $-1 $411 $291 $412 $413 forward $177 $-1 #
coedge $-1 $414 $179 $411 $415 forward $113 $-1 #
coedge $-1 $179 $414 $416 $417 forward $113 $-1 #
coedge $-1 $294 $293 $179 $287 reversed $295 $-1 #
edge $-1 $418 -26.364785753408771 $419 26.364785753408771 $286 $420 forward 7 unknown #
coedge $-1 $181 $180 $421 $422 forward $71 $-1 #
coedge $-1 $423 $424 $180 $290 reversed $408 $-1 #
edge $-1 $297 -50.738853114413892 $425 50.738853114413892 $289 $426 forward 7 unknown #
coedge $-1 $283 $427 $181 $292 reversed $177 $-1 #
edge $-1 $428 -50.738853114413892 $296 50.738853114413892 $291 $429 forward 7 unknown #
coedge $-1 $286 $182 $427 $430 forward $295 $-1 #
coedge $-1 $182 $286 $423 $431 reversed $295 $-1 #
loop $-1 $-1 $293 $407 #
vertex $-1 $183 $432 #
vertex $-1 $183 $433 #
straight-curve $-1 50.738853114413892 0 9.6550457205909588 0 1 0 I I #
face $-1 $434 $435 $43 $-1 $436 reversed single #
loop $-1 $-1 $305 $184 #
plane-surface $-1 50.738853114413892 0 0 -1 0 0 0 0 1 forward_v I I I I #
coedge $-1 $437 $438 $303 $439 forward $185 $-1 #
coedge $-1 $440 $187 $302 $439 reversed $117 $-1 #
coedge $-1 $187 $440 $188 $308 reversed $117 $-1 #
coedge $-1 $190 $441 $187 $306 forward $300 $-1 #
edge $-1 $442 -5.7532928544126918 $312 -2.0502128779438422 $305 $443 forward 7 unknown #
coedge $-1 $189 $188 $444 $445 reversed $74 $-1 #
edge $-1 $312 -50.738853114413892 $446 50.738853114413892 $304 $447 forward 7 unknown #
coedge $-1 $448 $449 $189 $310 forward $435 $-1 #
edge $-1 $313 -50.738853114413892 $450 50.738853114413892 $309 $451 forward 7 unknown #
coedge $-1 $441 $190 $449 $452 forward $300 $-1 #
vertex $-1 $191 $453 #
vertex $-1 $452 $454 #
straight-curve $-1 50.738853114413892 -11.45128239792956 -5.9519657441221092 0 -1 0 I I #
face $-1 $-1 $327 $44 $-1 $455 forward single #
loop $-1 $-1 $456 $192 #
plane-surface $-1 50.738853114413892 0 0 -1 0 0 0 0 1 forward_v I I I I #
coedge $-1 $457 $458 $459 $460 reversed $193 $-1 #
coedge $-1 $461 $195 $197 $325 forward $121 $-1 #
coedge $-1 $195 $461 $457 $462 forward $121 $-1 #
coedge $-1 $459 $198 $195 $322 forward $327 $-1 #
edge $-1 $329 3.4807009290686128 $463 11.799995582516779 $321 $464 forward 7 unknown #
coedge $-1 $465 $466 $196 $324 forward $316 $-1 #
edge $-1 $467 -67.632406224735576 $328 -61.960801518517343 $323 $468 forward 7 unknown #
edge $-1 $329 94.86102282322932 $467 101.47770622882778 $197 $469 forward 7 unknown #
coedge $-1 $198 $459 $465 $470 forward $327 $-1 #
loop $-1 $-1 $459 $315 #
vertex $-1 $324 $471 #
vertex $-1 $199 $472 #
straight-curve $-1 42.728672149956864 -11.121049184861308 9.6550457205909623 -1 0 0 I I #
coedge $-1 $331 $331 $-1 $473 reversed $202 $-1 #
edge $-1 $474 0 $474 6.2831853071796004 $203 $475 forward 7 unknown #
vertex $-1 $206 $476 #
ellipse-curve $-1 49.034931215798416 -17.063402508752851 6.8192433674818389 0.85716730853699208 0 0.51503806187062418 0.51503806187062418 0 -0.85716730853699208 1 I I #
coedge $-1 $335 $335 $-1 $477 reversed $209 $-1 #
edge $-1 $478 0 $478 6.2831853071796004 $210 $479 forward 7 unknown #
vertex $-1 $213 $480 #
ellipse-curve $-1 49.034931215798416 -13.497990514417925 6.8192433674818389 0.85716730853699208 0 0.51503806187062418 0.51503806187062418 0 -0.85716730853699208 1 I I #
face $-1 $-1 $481 $47 $-1 $482 reversed single #
loop $-1 $-1 $346 $214 #
plane-surface $-1 0 0 9.6550457205909588 0 0 1 1 0 0 forward_v I I I I #
coedge $-1 $483 $217 $219 $348 forward $135 $-1 #
coedge $-1 $217 $483 $484 $485 reversed $135 $-1 #
coedge $-1 $486 $220 $217 $345 forward $215 $-1 #
edge $-1 $351 6.9429218866182598 $487 15.262216540066431 $344 $488 forward 7 unknown #
coedge $-1 $489 $490 $218 $347 forward $340 $-1 #
edge $-1 $491 4.602337167226068 $350 8.0101809644570281 $346 $492 forward 7 unknown #
edge $-1 $351 -101.47770622882778 $491 -94.86102282322932 $219 $493 forward 7 unknown #
coedge $-1 $220 $486 $489 $494 reversed $215 $-1 #
vertex $-1 $494 $495 #
vertex $-1 $221 $496 #
straight-curve $-1 50.738853114413892 18.0454910999606 71.615847239108305 0 0 -1 I I #
coedge $-1 $353 $353 $-1 $497 reversed $224 $-1 #
edge $-1 $498 0 $498 6.2831853071796004 $225 $499 forward 7 unknown #
vertex $-1 $228 $500 #
ellipse-curve $-1 49.034931215798416 20.422432429517219 6.8192433674818389 0.85716730853699208 0 0.51503806187062418 0.51503806187062418 0 -0.85716730853699208 1 I I #
coedge $-1 $357 $357 $-1 $501 reversed $231 $-1 #
edge $-1 $502 0 $502 6.2831853071796004 $232 $503 forward 7 unknown #
vertex $-1 $235 $504 #
ellipse-curve $-1 49.034931215798416 23.987844423852149 6.8192433674818389 0.85716730853699208 0 0.51503806187062418 0.51503806187062418 0 -0.85716730853699208 1 I I #
face $-1 $-1 $373 $50 $-1 $505 forward single #
loop $-1 $-1 $506 $236 #
plane-surface $-1 -50.738853114413892 0 0 1 0 0 0 0 -1 forward_v I I I I #
coedge $-1 $507 $508 $509 $510 reversed $237 $-1 #
coedge $-1 $511 $239 $241 $371 forward $149 $-1 #
coedge $-1 $239 $511 $507 $512 forward $149 $-1 #
coedge $-1 $509 $242 $239 $368 forward $373 $-1 #
edge $-1 $375 -11.799995582516779 $513 -3.4807009290686128 $367 $514 forward 7 unknown #
coedge $-1 $515 $516 $240 $370 forward $362 $-1 #
edge $-1 $517 -24.140720062399669 $374 -18.469115356181408 $369 $518 forward 7 unknown #
edge $-1 $375 -6.6166834055985069 $517 1.393735185947377e-014 $241 $519 forward 7 unknown #
coedge $-1 $242 $509 $515 $520 forward $373 $-1 #
loop $-1 $-1 $509 $361 #
vertex $-1 $370 $521 #
vertex $-1 $243 $522 #
straight-curve $-1 -68.861112719542874 -19.440343838309474 9.6550457205909588 1 0 0 I I #
coedge $-1 $377 $377 $-1 $523 reversed $246 $-1 #
edge $-1 $524 0 $524 6.2831853071796004 $247 $525 forward 7 unknown #
vertex $-1 $250 $526 #
ellipse-curve $-1 -49.034931215798402 -17.063402508752851 6.8192433674818282 -0.85716730853699208 0 0.51503806187062418 0.51503806187062418 0 0.85716730853699208 1 I I #
coedge $-1 $381 $381 $-1 $527 reversed $253 $-1 #
edge $-1 $528 0 $528 6.2831853071796004 $254 $529 forward 7 unknown #
vertex $-1 $257 $530 #
ellipse-curve $-1 -49.034931215798402 -13.497990514417925 6.8192433674818282 -0.85716730853699208 0 0.51503806187062418 0.51503806187062418 0 0.85716730853699208 1 I I #
face $-1 $-1 $531 $53 $-1 $532 reversed single #
loop $-1 $-1 $533 $258 #
plane-surface $-1 0 26.364785753408771 0 0 -1 0 0 0 -1 forward_v I I I I #
coedge $-1 $534 $261 $263 $394 forward $163 $-1 #
coedge $-1 $261 $534 $533 $535 reversed $163 $-1 #
coedge $-1 $536 $264 $261 $391 forward $259 $-1 #
edge $-1 $397 6.9429218866182598 $537 15.26221654006642 $390 $538 forward 7 unknown #
coedge $-1 $539 $540 $262 $393 forward $531 $-1 #
edge $-1 $541 -24.140720062399669 $396 -18.469115356181408 $392 $542 forward 7 unknown #
edge $-1 $397 -6.6166834055985069 $541 1.393735185947377e-014 $263 $543 forward 7 unknown #
coedge $-1 $264 $536 $539 $544 forward $259 $-1 #
vertex $-1 $393 $545 #
vertex $-1 $265 $546 #
straight-curve $-1 -68.861112719542874 18.0454910999606 9.6550457205909588 1 0 0 I I #
coedge $-1 $399 $399 $-1 $547 reversed $268 $-1 #
edge $-1 $548 0 $548 6.2831853071796004 $269 $549 forward 7 unknown #
vertex $-1 $272 $550 #
ellipse-curve $-1 -49.034931215798402 20.422432429517219 6.8192433674818282 -0.85716730853699208 0 0.51503806187062418 0.51503806187062418 0 0.85716730853699208 1 I I #
coedge $-1 $403 $403 $-1 $551 reversed $275 $-1 #
edge $-1 $552 0 $552 6.2831853071796004 $276 $553 forward 7 unknown #
vertex $-1 $279 $554 #
ellipse-curve $-1 -49.034931215798402 23.987844423852149 6.8192433674818282 -0.85716730853699208 0 0.51503806187062418 0.51503806187062418 0 0.85716730853699208 1 I I #
face $-1 $-1 $295 $42 $-1 $555 reversed single #
loop $-1 $-1 $423 $280 #
plane-surface $-1 0 26.364785753408771 0 0 -1 0 0 0 -1 forward_v I I I I #
coedge $-1 $556 $421 $424 $557 forward $281 $-1 #
coedge $-1 $427 $283 $284 $415 reversed $177 $-1 #
coedge $-1 $421 $556 $283 $413 reversed $281 $-1 #
edge $-1 $428 -9.6550457205909588 $558 9.6550457205909588 $412 $559 forward 7 unknown #
coedge $-1 $285 $284 $556 $560 forward $113 $-1 #
edge $-1 $419 -50.738853114413892 $558 50.738853114413892 $411 $561 forward 7 unknown #
coedge $-1 $424 $423 $285 $417 reversed $408 $-1 #
edge $-1 $562 -50.738853114413892 $418 50.738853114413892 $416 $563 forward 7 unknown #
vertex $-1 $287 $564 #
vertex $-1 $430 $565 #
straight-curve $-1 50.738853114413892 0 -9.6550457205909588 0 -1 0 I I #
coedge $-1 $410 $412 $288 $422 reversed $281 $-1 #
edge $-1 $425 -26.364785753408771 $428 26.364785753408771 $421 $566 forward 7 unknown #
coedge $-1 $416 $289 $294 $431 forward $408 $-1 #
coedge $-1 $289 $416 $410 $557 reversed $408 $-1 #
vertex $-1 $290 $567 #
straight-curve $-1 0 26.364785753408771 9.6550457205909588 -1 0 0 I I #
coedge $-1 $291 $411 $293 $430 reversed $177 $-1 #
vertex $-1 $422 $568 #
straight-curve $-1 0 -26.364785753408771 9.6550457205909588 1 0 0 I I #
edge $-1 $296 -9.6550457205909588 $419 9.6550457205909588 $293 $569 forward 7 unknown #
edge $-1 $297 -9.6550457205909588 $418 9.6550457205909588 $294 $570 forward 7 unknown #
point $-1 50.738853114413892 -26.364785753408771 9.6550457205909588 #
point $-1 50.738853114413892 26.364785753408771 9.6550457205909588 #
face $-1 $-1 $571 $43 $-1 $572 reversed single #
loop $-1 $-1 $309 $299 #
plane-surface $-1 0 -26.364785753408771 0 0 1 0 0 0 1 forward_v I I I I #
coedge $-1 $573 $302 $441 $574 forward $185 $-1 #
coedge $-1 $302 $573 $575 $576 forward $185 $-1 #
edge $-1 $577 -50.738853114413892 $442 50.738853114413892 $302 $578 forward 7 unknown #
coedge $-1 $304 $303 $579 $580 reversed $117 $-1 #
coedge $-1 $305 $311 $437 $574 reversed $300 $-1 #
vertex $-1 $574 $581 #
straight-curve $-1 50.738853114413892 -19.44034383830947 -3.901752866178267 0 0 1 I I #
coedge $-1 $579 $582 $307 $445 forward $571 $-1 #
edge $-1 $450 -14.913503355479211 $446 -7.9890614403799098 $444 $583 forward 7 unknown #
vertex $-1 $445 $584 #
straight-curve $-1 0 -19.44034383830947 -5.9519657441221092 -1 0 0 I I #
coedge $-1 $585 $309 $582 $586 forward $435 $-1 #
coedge $-1 $309 $585 $311 $452 reversed $435 $-1 #
vertex $-1 $586 $587 #
straight-curve $-1 0 -26.364785753408771 -5.9519657441221092 -1 0 0 I I #
edge $-1 $313 5.9519657441221092 $588 9.6550457205909588 $311 $589 forward 7 unknown #
point $-1 50.738853114413892 -19.44034383830947 -5.9519657441221092 #
point $-1 50.738853114413892 -26.364785753408771 -5.9519657441221092 #
plane-surface $-1 0 0 9.6550457205909588 0 0 1 1 0 0 forward_v I I I I #
coedge $-1 $466 $465 $458 $590 forward $316 $-1 #
coedge $-1 $458 $318 $320 $462 reversed $193 $-1 #
coedge $-1 $318 $457 $456 $590 reversed $193 $-1 #
coedge $-1 $326 $321 $318 $460 forward $327 $-1 #
edge $-1 $463 4.602337167226068 $591 8.0101809644570281 $459 $592 forward 7 unknown #
coedge $-1 $320 $319 $466 $593 reversed $121 $-1 #
edge $-1 $594 -101.47770622882778 $463 -94.86102282322932 $457 $595 forward 7 unknown #
vertex $-1 $322 $596 #
straight-curve $-1 47.331009317182932 -7.6403482557926949 9.6550457205909481 0 -1 0 I I #
coedge $-1 $456 $323 $326 $470 reversed $316 $-1 #
coedge $-1 $323 $456 $461 $593 forward $316 $-1 #
vertex $-1 $324 $597 #
straight-curve $-1 50.738853114413892 -11.121049184861308 71.615847239108305 0 0 1 I I #
straight-curve $-1 -1.5260280247581335 -11.121049184861308 90.966813339044592 0.51503806187062418 0 -0.85716730853699208 I I #
edge $-1 $591 -19.440343838309474 $328 -11.121049184861308 $465 $598 forward 7 unknown #
point $-1 50.738853114413892 -11.121049184861308 9.6550457205909588 #
point $-1 47.331009317182932 -11.121049184861308 9.6550457205909623 #
edge $-1 $599 1 $599 0 $331 $-1 forward 7 unknown #
vertex $-1 $332 $600 #
ellipse-curve $-1 46.801174189644833 -17.063402508752851 5.4770667842385476 0.85716730853699208 0 0.51503806187062418 0.51503806187062418 0 -0.85716730853699208 1 I I #
point $-1 49.549969277669021 -17.063402508752851 5.9620760589448372 #
edge $-1 $601 1 $601 0 $335 $-1 forward 7 unknown #
vertex $-1 $336 $602 #
ellipse-curve $-1 46.801174189644833 -13.497990514417925 5.4770667842385476 0.85716730853699208 0 0.51503806187062418 0.51503806187062418 0 -0.85716730853699208 1 I I #
point $-1 49.549969277669021 -13.497990514417925 5.9620760589448372 #
loop $-1 $-1 $484 $339 #
plane-surface $-1 0 26.364785753408771 0 0 -1 0 0 0 -1 forward_v I I I I #
coedge $-1 $343 $342 $490 $603 reversed $135 $-1 #
coedge $-1 $604 $605 $343 $485 forward $481 $-1 #
edge $-1 $487 -62.097835692704031 $606 -55.481152287105544 $484 $607 forward 7 unknown #
coedge $-1 $349 $344 $605 $608 reversed $215 $-1 #
vertex $-1 $345 $609 #
straight-curve $-1 50.738853114413892 11.10256921334234 3.9834410143727226 0 1 0 I I #
coedge $-1 $610 $346 $349 $494 forward $340 $-1 #
coedge $-1 $346 $610 $483 $603 forward $340 $-1 #
vertex $-1 $347 $611 #
straight-curve $-1 42.728672149956864 18.0454910999606 9.6550457205909623 1 0 0 I I #
straight-curve $-1 -1.5260280247581335 18.0454910999606 90.966813339044592 -0.51503806187062418 0 0.85716730853699208 I I #
edge $-1 $350 18.0454910999606 $612 26.364785753408771 $349 $613 forward 7 unknown #
point $-1 50.738853114413892 18.0454910999606 9.6550457205909588 #
point $-1 50.738853114413892 18.0454910999606 3.9834410143727297 #
edge $-1 $614 1 $614 0 $353 $-1 forward 7 unknown #
vertex $-1 $354 $615 #
ellipse-curve $-1 46.801174189644833 20.422432429517219 5.4770667842385476 0.85716730853699208 0 0.51503806187062418 0.51503806187062418 0 -0.85716730853699208 1 I I #
point $-1 49.549969277669021 20.422432429517219 5.9620760589448372 #
edge $-1 $616 1 $616 0 $357 $-1 forward 7 unknown #
vertex $-1 $358 $617 #
ellipse-curve $-1 46.801174189644833 23.987844423852149 5.4770667842385476 0.85716730853699208 0 0.51503806187062418 0.51503806187062418 0 -0.85716730853699208 1 I I #
point $-1 49.549969277669021 23.987844423852149 5.9620760589448372 #
plane-surface $-1 0 0 9.6550457205909588 0 0 1 1 0 0 forward_v I I I I #
coedge $-1 $516 $515 $508 $618 forward $362 $-1 #
coedge $-1 $508 $364 $366 $512 reversed $237 $-1 #
coedge $-1 $364 $507 $506 $618 reversed $237 $-1 #
coedge $-1 $372 $367 $364 $510 forward $373 $-1 #
edge $-1 $513 -21.530103402359963 $619 -18.122259605128981 $509 $620 forward 7 unknown #
coedge $-1 $366 $365 $516 $621 reversed $149 $-1 #
edge $-1 $622 -1.393735185947377e-014 $513 6.6166834055985069 $507 $623 forward 7 unknown #
vertex $-1 $368 $624 #
straight-curve $-1 -47.331009317182911 -7.6403482557926949 9.6550457205909588 0 1 0 I I #
coedge $-1 $506 $369 $372 $520 reversed $362 $-1 #
coedge $-1 $369 $506 $511 $621 forward $362 $-1 #
vertex $-1 $370 $625 #
straight-curve $-1 -50.738853114413892 -19.440343838309474 28.124161076772367 0 0 1 I I #
straight-curve $-1 -50.738853114413885 -19.440343838309474 3.9834410143727084 -0.51503806187062418 0 -0.85716730853699208 I I #
edge $-1 $619 11.121049184861308 $374 19.440343838309474 $515 $626 forward 7 unknown #
point $-1 -50.738853114413892 -19.440343838309474 9.6550457205909588 #
point $-1 -47.331009317182911 -19.440343838309474 9.6550457205909588 #
edge $-1 $627 1 $627 0 $377 $-1 forward 7 unknown #
vertex $-1 $378 $628 #
ellipse-curve $-1 -46.80117418964484 -17.063402508752851 5.4770667842385494 -0.85716730853699208 0 0.51503806187062418 0.51503806187062418 0 0.85716730853699208 1 I I #
point $-1 -48.519893153927782 -17.063402508752851 7.6764106760188229 #
edge $-1 $629 1 $629 0 $381 $-1 forward 7 unknown #
vertex $-1 $382 $630 #
ellipse-curve $-1 -46.80117418964484 -13.497990514417925 5.4770667842385494 -0.85716730853699208 0 0.51503806187062418 0.51503806187062418 0 0.85716730853699208 1 I I #
point $-1 -48.519893153927782 -13.497990514417925 7.6764106760188229 #
loop $-1 $-1 $392 $385 #
plane-surface $-1 -50.738853114413892 0 0 1 0 0 0 0 -1 forward_v I I I I #
coedge $-1 $631 $632 $389 $535 forward $386 $-1 #
coedge $-1 $389 $388 $540 $633 reversed $163 $-1 #
edge $-1 $537 4.7422991726916432 $634 11.358982578290163 $533 $635 forward 7 unknown #
coedge $-1 $395 $390 $632 $636 forward $259 $-1 #
vertex $-1 $636 $637 #
straight-curve $-1 -47.331009317182911 11.10256921334234 9.6550457205909588 0 1 0 I I #
coedge $-1 $638 $392 $395 $544 reversed $531 $-1 #
coedge $-1 $392 $638 $534 $633 forward $531 $-1 #
vertex $-1 $393 $639 #
straight-curve $-1 -50.738853114413892 18.0454910999606 28.124161076772367 0 0 1 I I #
straight-curve $-1 -50.738853114413885 18.0454910999606 3.9834410143727084 -0.51503806187062418 0 -0.85716730853699208 I I #
edge $-1 $640 -26.364785753408771 $396 -18.0454910999606 $539 $641 forward 7 unknown #
point $-1 -50.738853114413892 18.0454910999606 9.6550457205909588 #
point $-1 -47.331009317182911 18.0454910999606 9.6550457205909588 #
edge $-1 $642 1 $642 0 $399 $-1 forward 7 unknown #
vertex $-1 $400 $643 #
ellipse-curve $-1 -46.80117418964484 20.422432429517219 5.4770667842385494 -0.85716730853699208 0 0.51503806187062418 0.51503806187062418 0 0.85716730853699208 1 I I #
point $-1 -48.519893153927782 20.422432429517219 7.6764106760188229 #
edge $-1 $644 1 $644 0 $403 $-1 forward 7 unknown #
vertex $-1 $404 $645 #
ellipse-curve $-1 -46.80117418964484 23.987844423852149 5.4770667842385494 -0.85716730853699208 0 0.51503806187062418 0.51503806187062418 0 0.85716730853699208 1 I I #
point $-1 -48.519893153927782 23.987844423852149 7.6764106760188229 #
plane-surface $-1 50.738853114413892 0 0 -1 0 0 0 0 1 forward_v I I I I #
coedge $-1 $412 $410 $414 $560 reversed $281 $-1 #
edge $-1 $425 -9.6550457205909588 $562 9.6550457205909588 $424 $646 forward 7 unknown #
vertex $-1 $560 $647 #
straight-curve $-1 -50.738853114413892 -26.364785753408771 0 0 0 -1 I I #
edge $-1 $558 -26.364785753408771 $562 26.364785753408771 $556 $648 forward 7 unknown #
straight-curve $-1 0 -26.364785753408771 -9.6550457205909588 -1 0 0 I I #
vertex $-1 $417 $649 #
straight-curve $-1 0 26.364785753408771 -9.6550457205909588 1 0 0 I I #
point $-1 50.738853114413892 26.364785753408771 -9.6550457205909588 #
point $-1 50.738853114413892 -26.364785753408771 -9.6550457205909588 #
straight-curve $-1 -50.738853114413892 0 9.6550457205909588 0 -1 0 I I #
point $-1 -50.738853114413892 26.364785753408771 9.6550457205909588 #
point $-1 -50.738853114413892 -26.364785753408771 9.6550457205909588 #
straight-curve $-1 50.738853114413892 -26.364785753408771 0 0 0 -1 I I #
straight-curve $-1 50.738853114413892 26.364785753408771 0 0 0 -1 I I #
loop $-1 $-1 $579 $434 #
plane-surface $-1 -50.738853114413892 0 0 1 0 0 0 0 -1 forward_v I I I I #
coedge $-1 $438 $437 $585 $650 forward $185 $-1 #
edge $-1 $442 19.44034383830947 $588 26.364785753408771 $441 $651 forward 7 unknown #
coedge $-1 $582 $579 $438 $576 reversed $571 $-1 #
edge $-1 $652 -26.364785753408771 $577 -19.44034383830947 $575 $653 forward 7 unknown #
vertex $-1 $580 $654 #
straight-curve $-1 0 -19.44034383830947 -9.6550457205909588 1 0 0 I I #
coedge $-1 $575 $444 $440 $580 forward $571 $-1 #
edge $-1 $446 2.0502128779438422 $577 5.7532928544126918 $579 $655 forward 7 unknown #
point $-1 50.738853114413892 -19.44034383830947 -9.6550457205909588 #
coedge $-1 $444 $575 $448 $586 reversed $571 $-1 #
straight-curve $-1 -50.738853114413892 -11.45128239792956 -5.9519657441221092 0 1 0 I I #
point $-1 -50.738853114413892 -19.44034383830947 -5.9519657441221092 #
coedge $-1 $449 $448 $573 $650 reversed $435 $-1 #
edge $-1 $450 5.9519657441221092 $652 9.6550457205909588 $582 $656 forward 7 unknown #
point $-1 -50.738853114413892 -26.364785753408771 -5.9519657441221092 #
vertex $-1 $452 $657 #
straight-curve $-1 50.738853114413892 -26.364785753408771 0 0 0 -1 I I #
edge $-1 $591 61.960801518517343 $594 67.632406224735576 $456 $658 forward 7 unknown #
vertex $-1 $470 $659 #
straight-curve $-1 42.728672149956864 -19.440343838309474 9.6550457205909623 1 0 0 I I #
edge $-1 $594 -11.799995582516779 $467 -3.4807009290686128 $466 $660 forward 7 unknown #
vertex $-1 $593 $661 #
straight-curve $-1 -1.5260280247581335 -19.440343838309474 90.966813339044592 -0.51503806187062418 0 0.85716730853699208 I I #
point $-1 47.331009317182932 -19.440343838309474 9.6550457205909623 #
point $-1 50.738853114413892 -11.121049184861308 3.9834410143727297 #
straight-curve $-1 50.738853114413892 0 9.6550457205909588 0 1 0 I I #
vertex $-1 $473 $662 #
point $-1 47.316212251515459 -17.063402508752851 4.6198994757015548 #
vertex $-1 $477 $663 #
point $-1 47.316212251515459 -13.497990514417925 4.6198994757015548 #
edge $-1 $606 -15.26221654006642 $491 -6.9429218866182598 $490 $664 forward 7 unknown #
coedge $-1 $605 $484 $610 $665 reversed $481 $-1 #
coedge $-1 $484 $604 $486 $608 forward $481 $-1 #
vertex $-1 $485 $666 #
straight-curve $-1 18.756104172883141 26.364785753408771 57.211675701060202 -0.51503806187062429 0 0.85716730853699219 I I #
edge $-1 $612 -9.6550457205909588 $487 -3.9834410143727315 $486 $667 forward 7 unknown #
point $-1 50.738853114413892 26.364785753408771 3.9834410143727315 #
coedge $-1 $490 $489 $604 $665 forward $340 $-1 #
point $-1 47.331009317182932 18.0454910999606 9.6550457205909623 #
vertex $-1 $494 $668 #
straight-curve $-1 50.738853114413892 0 9.6550457205909588 0 1 0 I I #
vertex $-1 $497 $669 #
point $-1 47.316212251515459 20.422432429517219 4.6198994757015548 #
vertex $-1 $501 $670 #
point $-1 47.316212251515459 23.987844423852149 4.6198994757015548 #
edge $-1 $619 18.469115356181408 $622 24.140720062399669 $506 $671 forward 7 unknown #
vertex $-1 $520 $672 #
straight-curve $-1 -68.861112719542874 -11.121049184861308 9.6550457205909588 -1 0 0 I I #
edge $-1 $622 3.4807009290686128 $517 11.799995582516779 $516 $673 forward 7 unknown #
vertex $-1 $621 $674 #
straight-curve $-1 -50.738853114413885 -11.121049184861308 3.9834410143727084 0.51503806187062418 0 0.85716730853699208 I I #
point $-1 -47.331009317182911 -11.121049184861308 9.6550457205909588 #
point $-1 -50.738853114413892 -19.440343838309474 3.9834410143726964 #
straight-curve $-1 -50.738853114413892 0 9.6550457205909588 0 -1 0 I I #
vertex $-1 $523 $675 #
point $-1 -46.28613612777422 -17.063402508752851 6.3342340927755414 #
vertex $-1 $527 $676 #
point $-1 -46.28613612777422 -13.497990514417925 6.3342340927755414 #
coedge $-1 $632 $533 $638 $677 reversed $386 $-1 #
coedge $-1 $533 $631 $536 $636 reversed $386 $-1 #
edge $-1 $634 -15.26221654006642 $541 -6.9429218866182598 $540 $678 forward 7 unknown #
vertex $-1 $535 $679 #
straight-curve $-1 -44.888544742469136 26.364785753408771 13.719989538724255 -0.51503806187062429 0 -0.85716730853699219 I I #
edge $-1 $537 47.331009317182911 $640 50.738853114413892 $632 $680 forward 7 unknown #
point $-1 -47.331009317182911 26.364785753408761 9.6550457205909588 #
coedge $-1 $540 $539 $631 $677 forward $531 $-1 #
point $-1 -50.738853114413892 18.0454910999606 3.9834410143726964 #
vertex $-1 $636 $681 #
straight-curve $-1 -50.738853114413892 0 9.6550457205909588 0 -1 0 I I #
vertex $-1 $547 $682 #
point $-1 -46.28613612777422 20.422432429517219 6.3342340927755414 #
vertex $-1 $551 $683 #
point $-1 -46.28613612777422 23.987844423852149 6.3342340927755414 #
straight-curve $-1 -50.738853114413892 26.364785753408771 0 0 0 -1 I I #
point $-1 -50.738853114413892 -26.364785753408771 -9.6550457205909588 #
straight-curve $-1 -50.738853114413892 0 -9.6550457205909588 0 1 0 I I #
point $-1 -50.738853114413892 26.364785753408771 -9.6550457205909588 #
edge $-1 $588 -50.738853114413892 $652 50.738853114413892 $585 $684 forward 7 unknown #
straight-curve $-1 50.738853114413892 0 -9.6550457205909588 0 -1 0 I I #
vertex $-1 $576 $685 #
straight-curve $-1 -50.738853114413892 0 -9.6550457205909588 0 1 0 I I #
point $-1 -50.738853114413892 -19.44034383830947 -9.6550457205909588 #
straight-curve $-1 -50.738853114413892 -19.44034383830947 -3.901752866178267 0 0 -1 I I #
straight-curve $-1 -50.738853114413892 -26.364785753408771 0 0 0 -1 I I #
point $-1 50.738853114413892 -26.364785753408771 -9.6550457205909588 #
straight-curve $-1 50.738853114413892 -19.440343838309474 71.615847239108305 0 0 -1 I I #
point $-1 50.738853114413892 -19.440343838309474 9.6550457205909588 #
straight-curve $-1 50.738853114413892 -7.6403482557926949 3.9834410143727226 0 1 0 I I #
point $-1 50.738853114413892 -19.440343838309474 3.9834410143727297 #
point $-1 45.944006881107846 -17.063402508752851 4.9620287223679229 #
point $-1 45.944006881107846 -13.497990514417925 4.9620287223679229 #
straight-curve $-1 47.331009317182932 11.10256921334234 9.6550457205909481 0 -1 0 I I #
edge $-1 $612 -50.738853114413892 $606 -47.331009317182932 $604 $686 forward 7 unknown #
point $-1 47.331009317182932 26.364785753408761 9.6550457205909623 #
straight-curve $-1 50.738853114413892 26.364785753408771 0 0 0 -1 I I #
point $-1 50.738853114413892 26.364785753408771 9.6550457205909588 #
point $-1 45.944006881107846 20.422432429517219 4.9620287223679229 #
point $-1 45.944006881107846 23.987844423852149 4.9620287223679229 #
straight-curve $-1 -50.738853114413892 -11.121049184861308 28.124161076772367 0 0 -1 I I #
point $-1 -50.738853114413892 -11.121049184861308 9.6550457205909588 #
straight-curve $-1 -50.738853114413892 -7.6403482557926949 3.9834410143726906 0 -1 0 I I #
point $-1 -50.738853114413892 -11.121049184861308 3.9834410143726964 #
point $-1 -45.944006881107853 -17.063402508752851 4.9620287223679247 #
point $-1 -45.944006881107853 -13.497990514417925 4.9620287223679247 #
edge $-1 $640 -9.6550457205909588 $634 -3.9834410143726964 $631 $687 forward 7 unknown #
straight-curve $-1 -50.738853114413892 11.10256921334234 3.9834410143726906 0 -1 0 I I #
point $-1 -50.738853114413892 26.364785753408761 3.9834410143726964 #
straight-curve $-1 0 26.364785753408771 9.6550457205909588 -1 0 0 I I #
point $-1 -50.738853114413892 26.364785753408771 9.6550457205909588 #
point $-1 -45.944006881107853 20.422432429517219 4.9620287223679247 #
point $-1 -45.944006881107853 23.987844423852149 4.9620287223679247 #
straight-curve $-1 0 -26.364785753408771 -9.6550457205909588 -1 0 0 I I #
point $-1 -50.738853114413892 -26.364785753408771 -9.6550457205909588 #
straight-curve $-1 0 26.364785753408771 9.6550457205909588 -1 0 0 I I #
straight-curve $-1 -50.738853114413892 26.364785753408771 0 0 0 -1 I I #
End-of-ACIS-data 