500 0 4 0           
7 Unknown 11 ACIS 5.0 NT 24 Thu Mar 25 18:42:09 1999 
-1 9.9999999999999995e-007 1e-010 
body $-1 $4 $-1 $5 #
body $-1 $6 $-1 $7 #
body $-1 $8 $-1 $9 #
body $-1 $10 $-1 $11 #
lump $-1 $-1 $12 $0 #
transform $-1 1 0 0 0 1 0 0 0 1 54.420606097598196 34.695856005813312 13.784738664695579 1 rotate no_reflect no_shear #
lump $-1 $-1 $13 $1 #
transform $-1 1 0 0 0 1 0 0 0 1 54.420606097598196 34.695856005813312 13.784738664695579 1 rotate no_reflect no_shear #
lump $-1 $-1 $14 $2 #
transform $-1 1 0 0 0 1 0 0 0 1 54.420606097598196 34.695856005813312 13.784738664695579 1 rotate no_reflect no_shear #
lump $-1 $-1 $15 $3 #
transform $-1 1 0 0 0 1 0 0 0 1 54.420606097598196 34.695856005813312 13.784738664695579 1 rotate no_reflect no_shear #
shell $-1 $-1 $-1 $16 $-1 $4 #
shell $-1 $-1 $-1 $17 $-1 $6 #
shell $-1 $-1 $-1 $18 $-1 $8 #
shell $-1 $-1 $-1 $19 $-1 $10 #
face $-1 $20 $21 $12 $-1 $22 forward single #
face $-1 $23 $24 $13 $-1 $25 reversed single #
face $-1 $26 $27 $14 $-1 $28 forward single #
face $-1 $29 $30 $15 $-1 $31 reversed single #
face $-1 $32 $33 $12 $-1 $34 reversed single #
loop $-1 $-1 $35 $16 #
plane-surface $-1 0 0 13.784738664695579 0 0 1 1 0 0 forward_v I I I I #
face $-1 $36 $37 $13 $-1 $38 reversed single #
loop $-1 $-1 $39 $17 #
plane-surface $-1 0 -41.892123147438816 8.0121190471163128 0 0 1 1 0 0 forward_v I I I I #
face $-1 $40 $41 $14 $-1 $42 forward single #
loop $-1 $-1 $43 $18 #
plane-surface $-1 -38.519432145157495 66.972247154157358 132.16737395755248 -1 0 0 0 0.73135370988377701 0.68199835119979291 forward_v I I I I #
face $-1 $44 $45 $15 $-1 $46 reversed single #
loop $-1 $47 $48 $19 #
cone-surface $-1 -46.470019121377845 30.767921143053542 9.6917186715567993 0 -0.73135370988377701 -0.68199835119979291 1 0 0 1 I I 0 1 1 forward I I I I #
face $-1 $49 $50 $12 $-1 $51 reversed single #
loop $-1 $-1 $52 $20 #
plane-surface $-1 0 0 -13.784738664695579 0 0 1 1 0 0 forward_v I I I I #
coedge $-1 $53 $54 $55 $56 forward $21 $-1 #
face $-1 $57 $58 $13 $-1 $59 forward single #
loop $-1 $-1 $60 $23 #
plane-surface $-1 0 -49.088390289064321 10.898428855905946 0 1 0 0 0 1 forward_v I I I I #
coedge $-1 $61 $62 $63 $64 forward $24 $-1 #
face $-1 $65 $66 $14 $-1 $67 reversed single #
loop $-1 $-1 $68 $26 #
plane-surface $-1 -46.470019121377845 -12.629177173046912 57.937846697841749 0 0.73135370988377701 0.68199835119979291 1 0 0 forward_v I I I I #
coedge $-1 $69 $70 $71 $72 reversed $27 $-1 #
face $-1 $73 $74 $15 $-1 $75 forward single #
loop $-1 $76 $77 $29 #
cone-surface $-1 -46.470019121377845 29.55010684456181 8.5560884936899502 0 -0.73135370988377701 -0.68199835119979291 0.5 0 0 1 I I -0.70710678118654746 0.70710678118654746 0.5 forward I I I I #
loop $-1 $-1 $78 $19 #
coedge $-1 $48 $48 $79 $80 reversed $30 $-1 #
face $-1 $81 $82 $12 $-1 $83 reversed single #
loop $-1 $-1 $84 $32 #
plane-surface $-1 0 -34.695856005813312 0 0 1 0 0 0 1 forward_v I I I I #
coedge $-1 $85 $86 $87 $88 forward $33 $-1 #
coedge $-1 $89 $35 $90 $91 forward $21 $-1 #
coedge $-1 $35 $89 $92 $93 forward $21 $-1 #
coedge $-1 $94 $95 $35 $56 reversed $96 $-1 #
edge $-1 $97 -34.695856005813312 $98 34.695856005813312 $55 $99 forward 7 unknown #
face $-1 $100 $101 $13 $-1 $102 reversed single #
loop $-1 $-1 $103 $36 #
plane-surface $-1 0 0 13.784738664695579 0 0 1 1 0 0 forward_v I I I I #
coedge $-1 $104 $105 $106 $107 forward $37 $-1 #
coedge $-1 $108 $39 $104 $109 forward $24 $-1 #
coedge $-1 $39 $108 $110 $111 reversed $24 $-1 #
coedge $-1 $112 $113 $39 $64 reversed $114 $-1 #
edge $-1 $115 -7.1962671416255048 $116 7.1962671416255048 $63 $117 forward 7 unknown #
face $-1 $118 $119 $14 $-1 $120 forward single #
loop $-1 $-1 $121 $40 #
plane-surface $-1 0 34.695856005813312 0 0 -1 0 0 0 -1 forward_v I I I I #
coedge $-1 $122 $123 $121 $124 reversed $41 $-1 #
coedge $-1 $70 $43 $123 $125 forward $27 $-1 #
coedge $-1 $43 $69 $126 $127 reversed $27 $-1 #
coedge $-1 $128 $121 $43 $72 forward $66 $-1 #
edge $-1 $129 -58.895726295824275 $130 -52.298948314080661 $71 $131 forward 7 unknown #
face $-1 $132 $133 $15 $-1 $134 forward single #
loop $-1 $-1 $135 $44 #
plane-surface $-1 -38.519432145157495 66.972247154157358 132.16737395755248 -1 0 0 0 0.73135370988377701 0.68199835119979291 forward_v I I I I #
loop $-1 $-1 $136 $29 #
coedge $-1 $77 $77 $78 $137 forward $45 $-1 #
coedge $-1 $78 $78 $77 $137 reversed $47 $-1 #
coedge $-1 $79 $79 $48 $80 forward $133 $-1 #
edge $-1 $138 -5.2603637375608609e-016 $138 6.2831853071795996 $79 $139 forward 7 unknown #
face $-1 $140 $141 $12 $-1 $142 reversed single #
loop $-1 $-1 $143 $49 #
plane-surface $-1 -54.420606097598196 0 0 1 0 0 0 0 -1 forward_v I I I I #
coedge $-1 $144 $92 $145 $146 forward $50 $-1 #
coedge $-1 $147 $52 $144 $148 forward $33 $-1 #
coedge $-1 $52 $147 $149 $150 forward $33 $-1 #
coedge $-1 $95 $94 $52 $88 reversed $96 $-1 #
edge $-1 $151 -34.695856005813312 $152 34.695856005813312 $87 $153 forward 7 unknown #
coedge $-1 $54 $53 $154 $155 forward $21 $-1 #
coedge $-1 $156 $157 $53 $91 reversed $141 $-1 #
edge $-1 $98 -54.420606097598196 $158 54.420606097598196 $90 $159 forward 7 unknown #
coedge $-1 $84 $160 $54 $93 reversed $50 $-1 #
edge $-1 $161 -54.420606097598196 $97 54.420606097598196 $92 $162 forward 7 unknown #
coedge $-1 $87 $55 $160 $163 forward $96 $-1 #
coedge $-1 $55 $87 $156 $164 reversed $96 $-1 #
loop $-1 $-1 $94 $140 #
vertex $-1 $56 $165 #
vertex $-1 $56 $166 #
straight-curve $-1 54.420606097598196 0 13.784738664695579 0 1 0 I I #
face $-1 $167 $168 $13 $-1 $169 reversed single #
loop $-1 $-1 $170 $57 #
plane-surface $-1 0 0 -13.784738664695579 0 0 1 1 0 0 forward_v I I I I #
coedge $-1 $171 $172 $173 $174 forward $58 $-1 #
coedge $-1 $175 $60 $61 $109 reversed $37 $-1 #
coedge $-1 $60 $175 $172 $176 reversed $37 $-1 #
coedge $-1 $177 $178 $60 $107 reversed $179 $-1 #
edge $-1 $180 -2.8863098087896333 $181 2.8863098087896333 $106 $182 forward 7 unknown #
coedge $-1 $62 $61 $178 $183 forward $24 $-1 #
edge $-1 $116 -54.420606097598196 $181 54.420606097598196 $104 $184 forward 7 unknown #
coedge $-1 $185 $186 $62 $111 forward $168 $-1 #
edge $-1 $115 -54.420606097598196 $187 54.420606097598196 $110 $188 forward 7 unknown #
coedge $-1 $189 $63 $186 $190 forward $114 $-1 #
coedge $-1 $63 $173 $175 $191 forward $114 $-1 #
loop $-1 $-1 $112 $192 #
vertex $-1 $190 $193 #
vertex $-1 $191 $194 #
straight-curve $-1 54.420606097598196 -41.892123147438816 8.0121190471163128 0 -1 0 I I #
face $-1 $195 $196 $14 $-1 $197 reversed single #
loop $-1 $-1 $126 $65 #
plane-surface $-1 0 0 13.784738664695579 0 0 1 1 0 0 forward_v I I I I #
coedge $-1 $71 $198 $68 $124 forward $66 $-1 #
coedge $-1 $199 $68 $200 $201 reversed $41 $-1 #
coedge $-1 $68 $199 $69 $125 reversed $41 $-1 #
edge $-1 $202 -31.185596536909273 $129 -15.284422584468572 $121 $203 forward 7 unknown #
edge $-1 $129 -69.391712011626623 $204 -60.371756424347325 $69 $205 forward 7 unknown #
coedge $-1 $206 $207 $70 $127 forward $119 $-1 #
edge $-1 $130 -1.2097324287346325 $204 4.9418624096852071 $126 $208 forward 7 unknown #
coedge $-1 $209 $71 $207 $210 reversed $66 $-1 #
vertex $-1 $124 $211 #
vertex $-1 $127 $212 #
straight-curve $-1 -38.519432145157495 34.695856005813312 66.083686978776242 0 0 1 I I #
face $-1 $213 $214 $15 $-1 $215 reversed single #
loop $-1 $216 $79 $73 #
plane-surface $-1 -46.470019121377845 -12.629177173046912 57.937846697841749 0 0.73135370988377701 0.68199835119979291 1 0 0 forward_v I I I I #
coedge $-1 $217 $218 $219 $220 reversed $74 $-1 #
coedge $-1 $136 $136 $-1 $221 forward $76 $-1 #
edge $-1 $222 0 $222 6.2831853071796004 $77 $223 forward 7 unknown #
vertex $-1 $80 $224 #
ellipse-curve $-1 -46.470019121377845 31.620058586603399 10.486349673823765 0 -0.73135370988377701 -0.68199835119979291 1 0 0 1 I I #
face $-1 $-1 $96 $12 $-1 $225 reversed single #
loop $-1 $-1 $156 $81 #
plane-surface $-1 0 34.695856005813312 0 0 -1 0 0 0 -1 forward_v I I I I #
coedge $-1 $226 $154 $157 $227 forward $82 $-1 #
coedge $-1 $160 $84 $85 $148 reversed $50 $-1 #
coedge $-1 $154 $226 $84 $146 reversed $82 $-1 #
edge $-1 $161 -13.784738664695579 $228 13.784738664695579 $145 $229 forward 7 unknown #
coedge $-1 $86 $85 $226 $230 forward $33 $-1 #
edge $-1 $152 -54.420606097598196 $228 54.420606097598196 $144 $231 forward 7 unknown #
coedge $-1 $157 $156 $86 $150 reversed $141 $-1 #
edge $-1 $232 -54.420606097598196 $151 54.420606097598196 $149 $233 forward 7 unknown #
vertex $-1 $88 $234 #
vertex $-1 $163 $235 #
straight-curve $-1 54.420606097598196 0 -13.784738664695579 0 -1 0 I I #
coedge $-1 $143 $145 $89 $155 reversed $82 $-1 #
edge $-1 $158 -34.695856005813312 $161 34.695856005813312 $154 $236 forward 7 unknown #
coedge $-1 $149 $90 $95 $164 forward $141 $-1 #
coedge $-1 $90 $149 $143 $227 reversed $141 $-1 #
vertex $-1 $91 $237 #
straight-curve $-1 0 34.695856005813312 13.784738664695579 -1 0 0 I I #
coedge $-1 $92 $144 $94 $163 reversed $50 $-1 #
vertex $-1 $155 $238 #
straight-curve $-1 0 -34.695856005813312 13.784738664695579 1 0 0 I I #
edge $-1 $97 -13.784738664695579 $152 13.784738664695579 $94 $239 forward 7 unknown #
edge $-1 $98 -13.784738664695579 $151 13.784738664695579 $95 $240 forward 7 unknown #
point $-1 54.420606097598196 -34.695856005813312 13.784738664695579 #
point $-1 54.420606097598196 34.695856005813312 13.784738664695579 #
face $-1 $241 $179 $13 $-1 $242 reversed single #
loop $-1 $-1 $110 $100 #
plane-surface $-1 0 -34.695856005813312 0 0 1 0 0 0 1 forward_v I I I I #
coedge $-1 $243 $244 $189 $245 forward $101 $-1 #
coedge $-1 $246 $103 $247 $248 forward $58 $-1 #
coedge $-1 $103 $246 $105 $176 forward $58 $-1 #
coedge $-1 $113 $249 $103 $174 reversed $114 $-1 #
edge $-1 $250 -49.088390289064321 $251 34.695856005813312 $173 $252 forward 7 unknown #
coedge $-1 $105 $104 $113 $191 reversed $37 $-1 #
edge $-1 $180 -54.420606097598196 $250 54.420606097598196 $105 $253 forward 7 unknown #
coedge $-1 $254 $106 $246 $255 reversed $179 $-1 #
coedge $-1 $106 $256 $108 $183 reversed $179 $-1 #
loop $-1 $-1 $254 $167 #
vertex $-1 $255 $257 #
vertex $-1 $183 $258 #
straight-curve $-1 -54.420606097598196 -49.088390289064321 10.898428855905946 0 0 -1 I I #
edge $-1 $181 -7.1962671416255048 $187 7.1962671416255048 $178 $259 forward 7 unknown #
straight-curve $-1 0 -49.088390289064321 8.0121190471163128 -1 0 0 I I #
coedge $-1 $260 $110 $256 $261 forward $168 $-1 #
coedge $-1 $110 $260 $112 $190 reversed $168 $-1 #
vertex $-1 $261 $262 #
straight-curve $-1 0 -34.695856005813312 8.0121190471163128 -1 0 0 I I #
coedge $-1 $249 $112 $170 $245 reversed $114 $-1 #
edge $-1 $115 -8.0121190471163128 $263 13.784738664695579 $112 $264 forward 7 unknown #
edge $-1 $250 -2.8863098087896333 $116 2.8863098087896333 $113 $265 forward 7 unknown #
face $-1 $-1 $114 $13 $-1 $266 reversed single #
point $-1 54.420606097598196 -34.695856005813312 8.0121190471163128 #
point $-1 54.420606097598196 -49.088390289064321 8.0121190471163128 #
face $-1 $267 $268 $14 $-1 $269 reversed single #
loop $-1 $-1 $270 $118 #
plane-surface $-1 0 -41.892123147438816 8.0121190471163128 0 0 1 1 0 0 forward_v I I I I #
coedge $-1 $121 $271 $272 $273 reversed $66 $-1 #
coedge $-1 $123 $122 $206 $274 reversed $41 $-1 #
coedge $-1 $272 $275 $122 $201 forward $276 $-1 #
edge $-1 $277 34.878687857261241 $202 43.898643444540539 $200 $278 forward 7 unknown #
vertex $-1 $273 $279 #
straight-curve $-1 -23.235009560688923 34.695856005813312 7.1879606829519673 1 0 0 I I #
vertex $-1 $274 $280 #
straight-curve $-1 -38.519432145157495 -12.629177173046912 57.937846697841749 0 -0.68199835119979291 0.73135370988377701 I I #
coedge $-1 $281 $126 $199 $274 forward $119 $-1 #
coedge $-1 $126 $282 $128 $210 forward $119 $-1 #
straight-curve $-1 -38.519432145157495 33.486123577078679 13.784738664695581 0 -1 0 I I #
coedge $-1 $271 $128 $283 $284 forward $66 $-1 #
edge $-1 $285 -54.420606097598196 $130 38.519432145157495 $128 $286 forward 7 unknown #
point $-1 -38.519432145157495 34.695856005813312 7.1879606829519673 #
point $-1 -38.519432145157495 34.695856005813312 13.784738664695579 #
face $-1 $287 $288 $15 $-1 $289 forward single #
loop $-1 $-1 $290 $132 #
plane-surface $-1 0 34.695856005813312 0 0 -1 0 0 0 -1 forward_v I I I I #
loop $-1 $-1 $291 $73 #
coedge $-1 $218 $135 $292 $293 forward $74 $-1 #
coedge $-1 $135 $217 $294 $295 reversed $74 $-1 #
coedge $-1 $296 $290 $135 $220 forward $214 $-1 #
edge $-1 $297 -58.895726295824275 $298 -52.298948314080661 $219 $299 forward 7 unknown #
edge $-1 $300 1 $300 0 $136 $-1 forward 7 unknown #
vertex $-1 $137 $301 #
ellipse-curve $-1 -46.470019121377845 29.915783699503699 8.8970876692898457 0 0.73135370988377701 0.68199835119979291 1 0 0 1 I I #
point $-1 -45.470019121377845 31.620058586603388 10.486349673823755 #
plane-surface $-1 54.420606097598196 0 0 -1 0 0 0 0 1 forward_v I I I I #
coedge $-1 $145 $143 $147 $230 reversed $82 $-1 #
edge $-1 $158 -13.784738664695579 $232 13.784738664695579 $157 $302 forward 7 unknown #
vertex $-1 $230 $303 #
straight-curve $-1 -54.420606097598196 -34.695856005813312 0 0 0 -1 I I #
edge $-1 $228 -34.695856005813312 $232 34.695856005813312 $226 $304 forward 7 unknown #
straight-curve $-1 0 -34.695856005813312 -13.784738664695579 -1 0 0 I I #
vertex $-1 $150 $305 #
straight-curve $-1 0 34.695856005813312 -13.784738664695579 1 0 0 I I #
point $-1 54.420606097598196 34.695856005813312 -13.784738664695579 #
point $-1 54.420606097598196 -34.695856005813312 -13.784738664695579 #
straight-curve $-1 -54.420606097598196 0 13.784738664695579 0 -1 0 I I #
point $-1 -54.420606097598196 34.695856005813312 13.784738664695579 #
point $-1 -54.420606097598196 -34.695856005813312 13.784738664695579 #
straight-curve $-1 54.420606097598196 -34.695856005813312 0 0 0 -1 I I #
straight-curve $-1 54.420606097598196 34.695856005813312 0 0 0 -1 I I #
face $-1 $192 $306 $13 $-1 $307 reversed single #
plane-surface $-1 -54.420606097598196 0 0 1 0 0 0 0 -1 forward_v I I I I #
coedge $-1 $308 $170 $260 $309 forward $101 $-1 #
coedge $-1 $170 $308 $310 $311 forward $101 $-1 #
edge $-1 $312 -34.695856005813312 $263 34.695856005813312 $189 $313 forward 7 unknown #
coedge $-1 $172 $171 $177 $255 forward $58 $-1 #
coedge $-1 $314 $315 $171 $248 reversed $306 $-1 #
edge $-1 $251 -54.420606097598196 $316 54.420606097598196 $247 $317 forward 7 unknown #
coedge $-1 $173 $189 $314 $318 reversed $114 $-1 #
vertex $-1 $174 $319 #
vertex $-1 $174 $320 #
straight-curve $-1 54.420606097598196 0 13.784738664695579 0 1 0 I I #
straight-curve $-1 0 -49.088390289064321 13.784738664695579 1 0 0 I I #
coedge $-1 $321 $177 $315 $322 forward $179 $-1 #
edge $-1 $316 -34.695856005813312 $180 49.088390289064321 $177 $323 forward 7 unknown #
coedge $-1 $178 $321 $185 $261 reversed $179 $-1 #
point $-1 -54.420606097598196 -49.088390289064321 13.784738664695579 #
point $-1 -54.420606097598196 -49.088390289064321 8.0121190471163128 #
straight-curve $-1 -54.420606097598196 -41.892123147438816 8.0121190471163128 0 1 0 I I #
coedge $-1 $186 $185 $243 $309 reversed $168 $-1 #
edge $-1 $187 -8.0121190471163128 $324 13.784738664695579 $256 $325 forward 7 unknown #
point $-1 -54.420606097598196 -34.695856005813312 8.0121190471163128 #
vertex $-1 $190 $326 #
straight-curve $-1 54.420606097598196 -34.695856005813312 0 0 0 -1 I I #
straight-curve $-1 54.420606097598196 -49.088390289064321 10.898428855905946 0 0 -1 I I #
plane-surface $-1 54.420606097598196 0 0 -1 0 0 0 0 1 forward_v I I I I #
face $-1 $327 $328 $14 $-1 $329 reversed single #
loop $-1 $-1 $330 $195 #
plane-surface $-1 0 -49.088390289064321 10.898428855905946 0 1 0 0 0 1 forward_v I I I I #
coedge $-1 $331 $332 $333 $334 forward $196 $-1 #
coedge $-1 $198 $209 $335 $336 reversed $66 $-1 #
coedge $-1 $337 $200 $198 $273 forward $276 $-1 #
edge $-1 $202 -7.1879606829519647 $338 13.784738664695579 $198 $339 forward 7 unknown #
edge $-1 $204 15.284422584468572 $277 31.185596536909273 $206 $340 forward 7 unknown #
coedge $-1 $200 $341 $281 $342 reversed $276 $-1 #
loop $-1 $-1 $200 $343 #
vertex $-1 $342 $344 #
straight-curve $-1 -54.420606097598196 4.7570535567290619 39.293396424981836 0 0.68199835119979291 -0.73135370988377701 I I #
point $-1 -54.420606097598196 34.695856005813312 7.1879606829519647 #
point $-1 -38.519432145157495 28.544261167393472 13.784738664695581 #
coedge $-1 $345 $206 $275 $342 forward $119 $-1 #
coedge $-1 $207 $345 $346 $347 forward $119 $-1 #
coedge $-1 $346 $348 $209 $284 reversed $349 $-1 #
edge $-1 $285 -13.784738664695579 $350 13.784738664695579 $283 $351 forward 7 unknown #
vertex $-1 $347 $352 #
straight-curve $-1 0 34.695856005813312 13.784738664695579 -1 0 0 I I #
face $-1 $353 $354 $15 $-1 $355 reversed single #
loop $-1 $-1 $294 $213 #
plane-surface $-1 0 0 13.784738664695579 0 0 1 1 0 0 forward_v I I I I #
coedge $-1 $219 $356 $291 $357 forward $214 $-1 #
coedge $-1 $358 $292 $290 $357 reversed $216 $-1 #
coedge $-1 $291 $359 $217 $293 reversed $216 $-1 #
edge $-1 $297 -69.391712011626623 $360 -60.371756424347325 $217 $361 forward 7 unknown #
coedge $-1 $362 $363 $218 $295 forward $288 $-1 #
edge $-1 $298 -1.2097324287346325 $360 4.9418624096852071 $294 $364 forward 7 unknown #
coedge $-1 $365 $219 $363 $366 reversed $214 $-1 #
vertex $-1 $357 $367 #
vertex $-1 $295 $368 #
straight-curve $-1 -38.519432145157495 34.695856005813312 66.083686978776242 0 0 1 I I #
vertex $-1 $221 $369 #
point $-1 -45.470019121377845 29.915783699503699 8.8970876692898457 #
straight-curve $-1 -54.420606097598196 34.695856005813312 0 0 0 -1 I I #
point $-1 -54.420606097598196 -34.695856005813312 -13.784738664695579 #
straight-curve $-1 -54.420606097598196 0 -13.784738664695579 0 1 0 I I #
point $-1 -54.420606097598196 34.695856005813312 -13.784738664695579 #
loop $-1 $-1 $314 $241 #
plane-surface $-1 0 34.695856005813312 0 0 -1 0 0 0 -1 forward_v I I I I #
coedge $-1 $244 $243 $321 $370 forward $101 $-1 #
edge $-1 $263 -54.420606097598196 $324 54.420606097598196 $260 $371 forward 7 unknown #
coedge $-1 $315 $314 $244 $311 reversed $306 $-1 #
edge $-1 $372 -54.420606097598196 $312 54.420606097598196 $310 $373 forward 7 unknown #
vertex $-1 $245 $374 #
straight-curve $-1 54.420606097598196 0 -13.784738664695579 0 -1 0 I I #
coedge $-1 $310 $247 $249 $318 forward $306 $-1 #
coedge $-1 $247 $310 $254 $322 reversed $306 $-1 #
vertex $-1 $248 $375 #
straight-curve $-1 0 34.695856005813312 13.784738664695579 -1 0 0 I I #
edge $-1 $251 -13.784738664695579 $312 13.784738664695579 $249 $376 forward 7 unknown #
point $-1 54.420606097598196 -49.088390289064321 13.784738664695579 #
point $-1 54.420606097598196 34.695856005813312 13.784738664695579 #
coedge $-1 $256 $254 $308 $370 reversed $179 $-1 #
edge $-1 $316 -13.784738664695579 $372 13.784738664695579 $315 $377 forward 7 unknown #
straight-curve $-1 -54.420606097598196 0 13.784738664695579 0 -1 0 I I #
vertex $-1 $370 $378 #
straight-curve $-1 -54.420606097598196 -34.695856005813312 0 0 0 -1 I I #
point $-1 54.420606097598196 -34.695856005813312 -13.784738664695579 #
face $-1 $343 $379 $14 $-1 $380 reversed single #
loop $-1 $-1 $381 $267 #
plane-surface $-1 0 0 -13.784738664695579 0 0 1 1 0 0 forward_v I I I I #
coedge $-1 $382 $383 $341 $384 forward $268 $-1 #
coedge $-1 $385 $270 $382 $386 forward $196 $-1 #
coedge $-1 $270 $385 $387 $388 reversed $196 $-1 #
coedge $-1 $389 $390 $270 $334 reversed $349 $-1 #
edge $-1 $391 -7.1962671416255048 $392 7.1962671416255048 $333 $393 forward 7 unknown #
coedge $-1 $381 $394 $271 $336 forward $328 $-1 #
edge $-1 $338 -54.420606097598196 $350 54.420606097598196 $271 $395 forward 7 unknown #
coedge $-1 $396 $272 $394 $397 reversed $276 $-1 #
vertex $-1 $336 $398 #
straight-curve $-1 -54.420606097598196 34.695856005813312 0 0 0 -1 I I #
straight-curve $-1 -23.235009560688923 28.544261167393479 13.784738664695578 -1 0 0 I I #
coedge $-1 $275 $399 $330 $384 reversed $276 $-1 #
edge $-1 $277 -28.544261167393472 $400 49.088390289064321 $275 $401 forward 7 unknown #
face $-1 $402 $276 $14 $-1 $403 reversed single #
point $-1 -54.420606097598196 28.544261167393472 13.784738664695581 #
coedge $-1 $282 $281 $383 $404 forward $119 $-1 #
coedge $-1 $390 $283 $282 $347 reversed $349 $-1 #
edge $-1 $405 -49.088390289064321 $285 34.695856005813312 $346 $406 forward 7 unknown #
coedge $-1 $283 $389 $381 $407 reversed $349 $-1 #
loop $-1 $-1 $389 $402 #
vertex $-1 $407 $408 #
straight-curve $-1 54.420606097598196 34.695856005813312 0 0 0 -1 I I #
point $-1 54.420606097598196 34.695856005813312 13.784738664695579 #
face $-1 $409 $410 $15 $-1 $411 reversed single #
loop $-1 $-1 $412 $287 #
plane-surface $-1 0 -41.892123147438816 8.0121190471163128 0 0 1 1 0 0 forward_v I I I I #
coedge $-1 $290 $413 $414 $415 reversed $214 $-1 #
edge $-1 $416 -31.185596536909273 $297 -15.284422584468572 $290 $417 forward 7 unknown #
coedge $-1 $359 $291 $418 $419 reversed $216 $-1 #
coedge $-1 $292 $358 $362 $420 reversed $216 $-1 #
vertex $-1 $420 $421 #
straight-curve $-1 -38.519432145157495 -12.629177173046912 57.937846697841749 0 -0.68199835119979291 0.73135370988377701 I I #
coedge $-1 $422 $294 $359 $420 forward $288 $-1 #
coedge $-1 $294 $423 $296 $366 forward $288 $-1 #
straight-curve $-1 -38.519432145157495 33.486123577078679 13.784738664695581 0 -1 0 I I #
coedge $-1 $413 $296 $424 $425 forward $214 $-1 #
edge $-1 $426 -54.420606097598196 $298 38.519432145157495 $296 $427 forward 7 unknown #
point $-1 -38.519432145157495 34.695856005813312 7.1879606829519673 #
point $-1 -38.519432145157495 34.695856005813312 13.784738664695579 #
point $-1 -46.470019121377845 29.184429989619922 8.2150893180900546 #
edge $-1 $324 -34.695856005813312 $372 34.695856005813312 $321 $428 forward 7 unknown #
straight-curve $-1 0 -34.695856005813312 -13.784738664695579 -1 0 0 I I #
vertex $-1 $311 $429 #
straight-curve $-1 0 34.695856005813312 -13.784738664695579 1 0 0 I I #
point $-1 54.420606097598196 34.695856005813312 -13.784738664695579 #
point $-1 -54.420606097598196 34.695856005813312 13.784738664695579 #
straight-curve $-1 54.420606097598196 34.695856005813312 0 0 0 -1 I I #
straight-curve $-1 -54.420606097598196 34.695856005813312 0 0 0 -1 I I #
point $-1 -54.420606097598196 -34.695856005813312 -13.784738664695579 #
loop $-1 $-1 $387 $327 #
plane-surface $-1 0 -34.695856005813312 0 0 1 0 0 0 1 forward_v I I I I #
coedge $-1 $430 $335 $348 $407 forward $328 $-1 #
coedge $-1 $431 $330 $331 $386 reversed $268 $-1 #
coedge $-1 $330 $431 $345 $404 reversed $268 $-1 #
edge $-1 $400 -2.8863098087896333 $432 2.8863098087896333 $341 $433 forward 7 unknown #
coedge $-1 $332 $331 $399 $434 forward $196 $-1 #
edge $-1 $392 -54.420606097598196 $432 54.420606097598196 $382 $435 forward 7 unknown #
coedge $-1 $436 $437 $332 $388 forward $379 $-1 #
edge $-1 $391 -54.420606097598196 $438 54.420606097598196 $387 $439 forward 7 unknown #
coedge $-1 $348 $333 $437 $440 forward $349 $-1 #
coedge $-1 $333 $346 $431 $441 forward $349 $-1 #
vertex $-1 $440 $442 #
vertex $-1 $441 $443 #
straight-curve $-1 54.420606097598196 -41.892123147438816 8.0121190471163128 0 -1 0 I I #
coedge $-1 $335 $430 $337 $397 forward $328 $-1 #
straight-curve $-1 0 34.695856005813312 -13.784738664695579 1 0 0 I I #
coedge $-1 $399 $337 $436 $444 reversed $276 $-1 #
edge $-1 $445 -34.695856005813312 $338 34.695856005813312 $337 $446 forward 7 unknown #
point $-1 -54.420606097598196 34.695856005813312 -13.784738664695579 #
coedge $-1 $341 $396 $385 $434 reversed $276 $-1 #
vertex $-1 $342 $447 #
straight-curve $-1 -54.420606097598196 0 13.784738664695579 0 -1 0 I I #
face $-1 $-1 $349 $14 $-1 $448 reversed single #
plane-surface $-1 -54.420606097598196 0 0 1 0 0 0 0 -1 forward_v I I I I #
edge $-1 $400 -54.420606097598196 $405 54.420606097598196 $383 $449 forward 7 unknown #
vertex $-1 $347 $450 #
straight-curve $-1 54.420606097598196 0 13.784738664695579 0 1 0 I I #
edge $-1 $350 -34.695856005813312 $451 34.695856005813312 $348 $452 forward 7 unknown #
point $-1 54.420606097598196 34.695856005813312 -13.784738664695579 #
face $-1 $453 $454 $15 $-1 $455 reversed single #
loop $-1 $-1 $456 $353 #
plane-surface $-1 0 -49.088390289064321 10.898428855905946 0 1 0 0 0 1 forward_v I I I I #
coedge $-1 $457 $458 $459 $460 forward $354 $-1 #
coedge $-1 $356 $365 $461 $462 reversed $214 $-1 #
coedge $-1 $463 $418 $356 $415 forward $464 $-1 #
edge $-1 $416 -7.1879606829519647 $465 13.784738664695579 $356 $466 forward 7 unknown #
vertex $-1 $415 $467 #
straight-curve $-1 -23.235009560688923 34.695856005813312 7.1879606829519673 1 0 0 I I #
coedge $-1 $414 $468 $358 $419 forward $464 $-1 #
edge $-1 $469 34.878687857261241 $416 43.898643444540539 $418 $470 forward 7 unknown #
edge $-1 $360 15.284422584468572 $469 31.185596536909273 $362 $471 forward 7 unknown #
point $-1 -38.519432145157495 28.544261167393472 13.784738664695581 #
coedge $-1 $472 $362 $468 $473 forward $288 $-1 #
coedge $-1 $363 $472 $474 $475 forward $288 $-1 #
coedge $-1 $474 $476 $365 $425 reversed $477 $-1 #
edge $-1 $426 -13.784738664695579 $478 13.784738664695579 $424 $479 forward 7 unknown #
vertex $-1 $475 $480 #
straight-curve $-1 0 34.695856005813312 13.784738664695579 -1 0 0 I I #
straight-curve $-1 -54.420606097598196 0 -13.784738664695579 0 1 0 I I #
point $-1 -54.420606097598196 34.695856005813312 -13.784738664695579 #
coedge $-1 $394 $381 $481 $482 forward $328 $-1 #
coedge $-1 $383 $382 $390 $441 reversed $268 $-1 #
vertex $-1 $434 $483 #
straight-curve $-1 -54.420606097598196 -49.088390289064321 10.898428855905946 0 0 -1 I I #
edge $-1 $432 -7.1962671416255048 $438 7.1962671416255048 $399 $484 forward 7 unknown #
straight-curve $-1 0 -49.088390289064321 8.0121190471163128 -1 0 0 I I #
coedge $-1 $481 $387 $396 $444 forward $379 $-1 #
coedge $-1 $387 $481 $389 $440 reversed $379 $-1 #
vertex $-1 $444 $485 #
straight-curve $-1 0 -34.695856005813312 8.0121190471163128 -1 0 0 I I #
edge $-1 $391 -8.0121190471163128 $451 13.784738664695579 $389 $486 forward 7 unknown #
edge $-1 $405 -2.8863098087896333 $392 2.8863098087896333 $390 $487 forward 7 unknown #
point $-1 54.420606097598196 -34.695856005813312 8.0121190471163128 #
point $-1 54.420606097598196 -49.088390289064321 8.0121190471163128 #
edge $-1 $438 -8.0121190471163128 $445 13.784738664695579 $396 $488 forward 7 unknown #
vertex $-1 $397 $489 #
straight-curve $-1 -54.420606097598196 0 -13.784738664695579 0 1 0 I I #
point $-1 -54.420606097598196 -49.088390289064321 13.784738664695579 #
plane-surface $-1 54.420606097598196 0 0 -1 0 0 0 0 1 forward_v I I I I #
straight-curve $-1 0 -49.088390289064321 13.784738664695579 1 0 0 I I #
point $-1 54.420606097598196 -49.088390289064321 13.784738664695579 #
vertex $-1 $440 $490 #
straight-curve $-1 54.420606097598196 0 -13.784738664695579 0 -1 0 I I #
face $-1 $491 $492 $15 $-1 $493 reversed single #
loop $-1 $-1 $494 $409 #
plane-surface $-1 0 0 -13.784738664695579 0 0 1 1 0 0 forward_v I I I I #
coedge $-1 $495 $496 $497 $498 forward $410 $-1 #
coedge $-1 $499 $412 $495 $500 forward $354 $-1 #
coedge $-1 $412 $499 $501 $502 reversed $354 $-1 #
coedge $-1 $503 $504 $412 $460 reversed $477 $-1 #
edge $-1 $505 -7.1962671416255048 $506 7.1962671416255048 $459 $507 forward 7 unknown #
coedge $-1 $494 $508 $413 $462 forward $454 $-1 #
edge $-1 $465 -54.420606097598196 $478 54.420606097598196 $413 $509 forward 7 unknown #
coedge $-1 $510 $414 $508 $511 reversed $464 $-1 #
loop $-1 $-1 $418 $491 #
vertex $-1 $462 $512 #
straight-curve $-1 -54.420606097598196 34.695856005813312 0 0 0 -1 I I #
point $-1 -54.420606097598196 34.695856005813312 7.1879606829519647 #
coedge $-1 $418 $497 $422 $473 reversed $464 $-1 #
vertex $-1 $473 $513 #
straight-curve $-1 -54.420606097598196 4.7570535567290619 39.293396424981836 0 0.68199835119979291 -0.73135370988377701 I I #
straight-curve $-1 -23.235009560688923 28.544261167393479 13.784738664695578 -1 0 0 I I #
coedge $-1 $423 $422 $496 $514 forward $288 $-1 #
edge $-1 $469 -28.544261167393472 $515 49.088390289064321 $468 $516 forward 7 unknown #
coedge $-1 $504 $424 $423 $475 reversed $477 $-1 #
edge $-1 $517 -49.088390289064321 $426 34.695856005813312 $474 $518 forward 7 unknown #
coedge $-1 $424 $503 $494 $519 reversed $477 $-1 #
loop $-1 $-1 $503 $520 #
vertex $-1 $519 $521 #
straight-curve $-1 54.420606097598196 34.695856005813312 0 0 0 -1 I I #
point $-1 54.420606097598196 34.695856005813312 13.784738664695579 #
coedge $-1 $437 $436 $430 $482 reversed $379 $-1 #
edge $-1 $451 -54.420606097598196 $445 54.420606097598196 $481 $522 forward 7 unknown #
point $-1 -54.420606097598196 -49.088390289064321 8.0121190471163128 #
straight-curve $-1 -54.420606097598196 -41.892123147438816 8.0121190471163128 0 1 0 I I #
point $-1 -54.420606097598196 -34.695856005813312 8.0121190471163128 #
straight-curve $-1 54.420606097598196 -34.695856005813312 0 0 0 -1 I I #
straight-curve $-1 54.420606097598196 -49.088390289064321 10.898428855905946 0 0 -1 I I #
straight-curve $-1 -54.420606097598196 -34.695856005813312 0 0 0 -1 I I #
point $-1 -54.420606097598196 -34.695856005813312 -13.784738664695579 #
point $-1 54.420606097598196 -34.695856005813312 -13.784738664695579 #
face $-1 $520 $464 $15 $-1 $523 reversed single #
loop $-1 $-1 $501 $453 #
plane-surface $-1 0 -34.695856005813312 0 0 1 0 0 0 1 forward_v I I I I #
coedge $-1 $524 $461 $476 $519 forward $454 $-1 #
coedge $-1 $525 $456 $457 $500 reversed $410 $-1 #
coedge $-1 $456 $525 $472 $514 reversed $410 $-1 #
coedge $-1 $468 $526 $456 $498 reversed $464 $-1 #
edge $-1 $515 -2.8863098087896333 $527 2.8863098087896333 $497 $528 forward 7 unknown #
coedge $-1 $458 $457 $526 $529 forward $354 $-1 #
edge $-1 $506 -54.420606097598196 $527 54.420606097598196 $495 $530 forward 7 unknown #
coedge $-1 $531 $532 $458 $502 forward $492 $-1 #
edge $-1 $505 -54.420606097598196 $533 54.420606097598196 $501 $534 forward 7 unknown #
coedge $-1 $476 $459 $532 $535 forward $477 $-1 #
coedge $-1 $459 $474 $525 $536 forward $477 $-1 #
vertex $-1 $535 $537 #
vertex $-1 $536 $538 #
straight-curve $-1 54.420606097598196 -41.892123147438816 8.0121190471163128 0 -1 0 I I #
coedge $-1 $461 $524 $463 $511 forward $454 $-1 #
straight-curve $-1 0 34.695856005813312 -13.784738664695579 1 0 0 I I #
coedge $-1 $526 $463 $531 $539 reversed $464 $-1 #
edge $-1 $540 -34.695856005813312 $465 34.695856005813312 $463 $541 forward 7 unknown #
point $-1 -54.420606097598196 34.695856005813312 -13.784738664695579 #
point $-1 -54.420606097598196 28.544261167393472 13.784738664695581 #
edge $-1 $515 -54.420606097598196 $517 54.420606097598196 $496 $542 forward 7 unknown #
vertex $-1 $473 $543 #
straight-curve $-1 -54.420606097598196 0 13.784738664695579 0 -1 0 I I #
vertex $-1 $475 $544 #
straight-curve $-1 54.420606097598196 0 13.784738664695579 0 1 0 I I #
edge $-1 $478 -34.695856005813312 $545 34.695856005813312 $476 $546 forward 7 unknown #
face $-1 $-1 $477 $15 $-1 $547 reversed single #
point $-1 54.420606097598196 34.695856005813312 -13.784738664695579 #
straight-curve $-1 0 -34.695856005813312 -13.784738664695579 -1 0 0 I I #
plane-surface $-1 -54.420606097598196 0 0 1 0 0 0 0 -1 forward_v I I I I #
coedge $-1 $508 $494 $548 $549 forward $454 $-1 #
coedge $-1 $496 $495 $504 $536 reversed $410 $-1 #
coedge $-1 $497 $510 $499 $529 reversed $464 $-1 #
vertex $-1 $529 $550 #
straight-curve $-1 -54.420606097598196 -49.088390289064321 10.898428855905946 0 0 -1 I I #
edge $-1 $527 -7.1962671416255048 $533 7.1962671416255048 $526 $551 forward 7 unknown #
straight-curve $-1 0 -49.088390289064321 8.0121190471163128 -1 0 0 I I #
coedge $-1 $548 $501 $510 $539 forward $492 $-1 #
coedge $-1 $501 $548 $503 $535 reversed $492 $-1 #
vertex $-1 $539 $552 #
straight-curve $-1 0 -34.695856005813312 8.0121190471163128 -1 0 0 I I #
edge $-1 $505 -8.0121190471163128 $545 13.784738664695579 $503 $553 forward 7 unknown #
edge $-1 $517 -2.8863098087896333 $506 2.8863098087896333 $504 $554 forward 7 unknown #
point $-1 54.420606097598196 -34.695856005813312 8.0121190471163128 #
point $-1 54.420606097598196 -49.088390289064321 8.0121190471163128 #
edge $-1 $533 -8.0121190471163128 $540 13.784738664695579 $510 $555 forward 7 unknown #
vertex $-1 $511 $556 #
straight-curve $-1 -54.420606097598196 0 -13.784738664695579 0 1 0 I I #
straight-curve $-1 0 -49.088390289064321 13.784738664695579 1 0 0 I I #
point $-1 -54.420606097598196 -49.088390289064321 13.784738664695579 #
point $-1 54.420606097598196 -49.088390289064321 13.784738664695579 #
vertex $-1 $535 $557 #
straight-curve $-1 54.420606097598196 0 -13.784738664695579 0 -1 0 I I #
plane-surface $-1 54.420606097598196 0 0 -1 0 0 0 0 1 forward_v I I I I #
coedge $-1 $532 $531 $524 $549 reversed $492 $-1 #
edge $-1 $545 -54.420606097598196 $540 54.420606097598196 $548 $558 forward 7 unknown #
point $-1 -54.420606097598196 -49.088390289064321 8.0121190471163128 #
straight-curve $-1 -54.420606097598196 -41.892123147438816 8.0121190471163128 0 1 0 I I #
point $-1 -54.420606097598196 -34.695856005813312 8.0121190471163128 #
straight-curve $-1 54.420606097598196 -34.695856005813312 0 0 0 -1 I I #
straight-curve $-1 54.420606097598196 -49.088390289064321 10.898428855905946 0 0 -1 I I #
straight-curve $-1 -54.420606097598196 -34.695856005813312 0 0 0 -1 I I #
point $-1 -54.420606097598196 -34.695856005813312 -13.784738664695579 #
point $-1 54.420606097598196 -34.695856005813312 -13.784738664695579 #
straight-curve $-1 0 -34.695856005813312 -13.784738664695579 -1 0 0 I I #
End-of-ACIS-data 