500 0 10 0           
7 Unknown 11 ACIS 5.0 NT 24 Thu Mar 25 23:04:21 1999 
-1 9.9999999999999995e-007 1e-010 
body $-1 $10 $-1 $11 #
body $-1 $12 $-1 $13 #
body $-1 $14 $-1 $15 #
body $-1 $16 $-1 $17 #
body $-1 $18 $-1 $19 #
body $-1 $20 $-1 $21 #
body $-1 $22 $-1 $23 #
body $-1 $24 $-1 $25 #
body $-1 $26 $-1 $27 #
body $-1 $28 $-1 $29 #
lump $-1 $-1 $30 $0 #
transform $-1 1 0 0 0 1 0 0 0 1 78.834192938016912 43.375767725461991 20.479817038601333 1 rotate no_reflect no_shear #
lump $-1 $-1 $31 $1 #
transform $-1 1 0 0 0 1 0 0 0 1 78.834192938016912 43.375767725461991 20.479817038601333 1 rotate no_reflect no_shear #
lump $-1 $-1 $32 $2 #
transform $-1 1 0 0 0 1 0 0 0 1 78.834192938016912 43.375767725461991 20.479817038601333 1 rotate no_reflect no_shear #
lump $-1 $-1 $33 $3 #
transform $-1 1 0 0 0 1 0 0 0 1 78.834192938016912 43.375767725461991 20.479817038601333 1 rotate no_reflect no_shear #
lump $-1 $-1 $34 $4 #
transform $-1 1 0 0 0 1 0 0 0 1 78.834192938016912 43.375767725461991 20.479817038601333 1 rotate no_reflect no_shear #
lump $-1 $-1 $35 $5 #
transform $-1 1 0 0 0 1 0 0 0 1 78.834192938016912 43.375767725461991 20.479817038601333 1 rotate no_reflect no_shear #
lump $-1 $-1 $36 $6 #
transform $-1 1 0 0 0 1 0 0 0 1 78.834192938016912 43.375767725461991 20.479817038601333 1 rotate no_reflect no_shear #
lump $-1 $-1 $37 $7 #
transform $-1 1 0 0 0 1 0 0 0 1 78.834192938016912 43.375767725461991 20.479817038601333 1 rotate no_reflect no_shear #
lump $-1 $-1 $38 $8 #
transform $-1 1 0 0 0 1 0 0 0 1 78.834192938016912 43.375767725461991 20.479817038601333 1 rotate no_reflect no_shear #
lump $-1 $-1 $39 $9 #
transform $-1 1 0 0 0 1 0 0 0 1 78.834192938016912 43.375767725461991 20.479817038601333 1 rotate no_reflect no_shear #
shell $-1 $-1 $-1 $40 $-1 $10 #
shell $-1 $-1 $-1 $41 $-1 $12 #
shell $-1 $-1 $-1 $42 $-1 $14 #
shell $-1 $-1 $-1 $43 $-1 $16 #
shell $-1 $-1 $-1 $44 $-1 $18 #
shell $-1 $-1 $-1 $45 $-1 $20 #
shell $-1 $-1 $-1 $46 $-1 $22 #
shell $-1 $-1 $-1 $47 $-1 $24 #
shell $-1 $-1 $-1 $48 $-1 $26 #
shell $-1 $-1 $-1 $49 $-1 $28 #
face $-1 $50 $51 $30 $-1 $52 forward single #
face $-1 $53 $54 $31 $-1 $55 reversed single #
face $-1 $56 $57 $32 $-1 $58 forward single #
face $-1 $59 $60 $33 $-1 $61 forward single #
face $-1 $62 $63 $34 $-1 $64 reversed single #
face $-1 $65 $66 $35 $-1 $67 forward single #
face $-1 $68 $69 $36 $-1 $70 forward single #
face $-1 $71 $72 $37 $-1 $73 reversed single #
face $-1 $74 $75 $38 $-1 $76 forward single #
face $-1 $77 $78 $39 $-1 $79 forward single #
face $-1 $80 $81 $30 $-1 $82 reversed single #
loop $-1 $-1 $83 $40 #
plane-surface $-1 0 0 20.479817038601333 0 0 1 1 0 0 forward_v I I I I #
face $-1 $84 $85 $31 $-1 $86 reversed single #
loop $-1 $-1 $87 $41 #
plane-surface $-1 -34.28963798976099 75.181094336384461 178.77584470358178 1 0 0 0 -0.62932039886446345 -0.77714595512881146 forward_v I I I I #
face $-1 $88 $89 $32 $-1 $90 forward single #
loop $-1 $91 $92 $42 #
cone-surface $-1 -24.492598564114992 28.436601236104821 6.9740402410255404 0 -0.62932039886446345 -0.77714595512881146 4 0 0 1 I I 0 1 4 forward I I I I #
face $-1 $93 $94 $33 $-1 $95 forward single #
loop $-1 $96 $97 $43 #
cone-surface $-1 -9.7970394256460054 28.436601236104821 6.9740402410255404 0 -0.62932039886446345 -0.77714595512881146 4 0 0 1 I I 0 1 4 forward I I I I #
face $-1 $98 $99 $34 $-1 $100 reversed single #
loop $-1 $-1 $101 $44 #
plane-surface $-1 44.544554948255922 75.181094336384461 178.77584470358178 1 0 0 0 -0.62932039886446345 -0.77714595512881146 forward_v I I I I #
face $-1 $102 $103 $35 $-1 $104 forward single #
loop $-1 $105 $106 $45 #
cone-surface $-1 54.341594373901927 28.436601236104821 6.9740402410255404 0 -0.62932039886446345 -0.77714595512881146 4 0 0 1 I I 0 1 4 forward I I I I #
face $-1 $107 $108 $36 $-1 $109 forward single #
loop $-1 $110 $111 $46 #
cone-surface $-1 69.037153512370907 28.436601236104821 6.9740402410255404 0 -0.62932039886446345 -0.77714595512881146 4 0 0 1 I I 0 1 4 forward I I I I #
face $-1 $112 $113 $37 $-1 $114 reversed single #
loop $-1 $-1 $115 $47 #
plane-surface $-1 -58.762714377126393 -164.15675988787771 114.61758358431732 -1 0 0 0 -0.7660444514056185 0.64278759981090561 forward_v I I I I #
face $-1 $116 $117 $38 $-1 $118 forward single #
loop $-1 $119 $120 $48 #
cone-surface $-1 -73.09948477776247 -38.182861825039829 15.055761018313703 0 0.7660444514056185 -0.64278759981090561 1.5 0 0 1 I I 0 1 1.5 forward I I I I #
face $-1 $121 $122 $39 $-1 $123 forward single #
loop $-1 $124 $125 $49 #
cone-surface $-1 -64.497422537380828 -38.182861825039829 15.055761018313703 0 0.7660444514056185 -0.64278759981090561 1.5 0 0 1 I I 0 1 1.5 forward I I I I #
face $-1 $126 $127 $30 $-1 $128 reversed single #
loop $-1 $-1 $129 $50 #
plane-surface $-1 0 0 -20.479817038601333 0 0 1 1 0 0 forward_v I I I I #
coedge $-1 $130 $131 $132 $133 forward $51 $-1 #
face $-1 $134 $135 $31 $-1 $136 reversed single #
loop $-1 $-1 $137 $53 #
plane-surface $-1 -17.144818994880495 -24.042837151437283 56.244496368333472 0 0.62932039886446345 0.77714595512881146 1 0 0 forward_v I I I I #
coedge $-1 $138 $139 $140 $141 reversed $54 $-1 #
face $-1 $-1 $142 $32 $-1 $143 forward single #
loop $-1 $144 $145 $56 #
cone-surface $-1 -24.492598564114992 23.865246437163144 1.3288873143661135 0 -0.62932039886446345 -0.77714595512881146 2 0 0 1 I I -0.70710678118654746 0.70710678118654746 2 forward I I I I #
loop $-1 $-1 $146 $42 #
coedge $-1 $92 $92 $147 $148 reversed $57 $-1 #
face $-1 $-1 $149 $33 $-1 $150 forward single #
loop $-1 $151 $152 $59 #
cone-surface $-1 -9.7970394256460054 23.865246437163144 1.3288873143661135 0 -0.62932039886446345 -0.77714595512881146 2 0 0 1 I I -0.70710678118654746 0.70710678118654746 2 forward I I I I #
loop $-1 $-1 $153 $43 #
coedge $-1 $97 $97 $154 $155 reversed $60 $-1 #
face $-1 $156 $157 $34 $-1 $158 forward single #
loop $-1 $-1 $159 $62 #
plane-surface $-1 61.689373943136417 -24.042837151437283 56.244496368333472 0 0.62932039886446345 0.77714595512881146 1 0 0 forward_v I I I I #
coedge $-1 $160 $161 $162 $163 reversed $63 $-1 #
face $-1 $-1 $164 $35 $-1 $165 forward single #
loop $-1 $166 $167 $65 #
cone-surface $-1 54.341594373901927 23.865246437163144 1.3288873143661135 0 -0.62932039886446345 -0.77714595512881146 2 0 0 1 I I -0.70710678118654746 0.70710678118654746 2 forward I I I I #
loop $-1 $-1 $168 $45 #
coedge $-1 $106 $106 $169 $170 reversed $66 $-1 #
face $-1 $-1 $171 $36 $-1 $172 forward single #
loop $-1 $173 $174 $68 #
cone-surface $-1 69.037153512370907 23.865246437163144 1.3288873143661135 0 -0.62932039886446345 -0.77714595512881146 2 0 0 1 I I -0.70710678118654746 0.70710678118654746 2 forward I I I I #
loop $-1 $-1 $175 $46 #
coedge $-1 $111 $111 $176 $177 reversed $69 $-1 #
face $-1 $178 $179 $37 $-1 $180 forward single #
loop $-1 $-1 $181 $71 #
plane-surface $-1 -68.798453657571656 -43.375767725462012 13.27030026100185 0 -0.7660444514056185 0.64278759981090561 1 0 0 forward_v I I I I #
coedge $-1 $182 $183 $184 $185 reversed $72 $-1 #
face $-1 $-1 $186 $38 $-1 $187 forward single #
loop $-1 $188 $189 $74 #
cone-surface $-1 -73.09948477776247 -35.440173941396921 12.754372686967649 0 0.7660444514056185 -0.64278759981090561 0.75 0 0 1 I I -0.70710678118654757 0.70710678118654757 0.75 forward I I I I #
loop $-1 $-1 $190 $48 #
coedge $-1 $120 $120 $191 $192 reversed $75 $-1 #
face $-1 $-1 $193 $39 $-1 $194 forward single #
loop $-1 $195 $196 $77 #
cone-surface $-1 -64.497422537380828 -35.440173941396921 12.754372686967649 0 0.7660444514056185 -0.64278759981090561 0.75 0 0 1 I I -0.70710678118654757 0.70710678118654757 0.75 forward I I I I #
loop $-1 $-1 $197 $49 #
coedge $-1 $125 $125 $198 $199 reversed $78 $-1 #
face $-1 $200 $201 $30 $-1 $202 reversed single #
loop $-1 $-1 $203 $80 #
plane-surface $-1 0 -43.375767725461991 0 0 1 0 0 0 1 forward_v I I I I #
coedge $-1 $204 $205 $206 $207 forward $81 $-1 #
coedge $-1 $208 $83 $209 $210 forward $51 $-1 #
coedge $-1 $83 $208 $211 $212 forward $51 $-1 #
coedge $-1 $213 $214 $83 $133 reversed $215 $-1 #
edge $-1 $216 -43.375767725461991 $217 43.375767725461991 $132 $218 forward 7 unknown #
face $-1 $219 $220 $31 $-1 $221 reversed single #
loop $-1 $-1 $222 $84 #
plane-surface $-1 0 75.181094336384461 178.77584470358178 -1 0 0 0 0.62932039886446345 0.77714595512881146 forward_v I I I I #
coedge $-1 $223 $224 $225 $226 reversed $85 $-1 #
coedge $-1 $139 $87 $227 $228 reversed $54 $-1 #
coedge $-1 $87 $138 $223 $229 reversed $54 $-1 #
coedge $-1 $225 $230 $87 $141 forward $231 $-1 #
edge $-1 $232 -5.7852205572697599 $233 17.467684419019093 $140 $234 forward 7 unknown #
loop $-1 $-1 $147 $88 #
plane-surface $-1 -17.144818994880495 -24.042837151437283 56.244496368333472 0 0.62932039886446345 0.77714595512881146 1 0 0 forward_v I I I I #
loop $-1 $-1 $235 $56 #
coedge $-1 $145 $145 $146 $236 reversed $89 $-1 #
coedge $-1 $146 $146 $145 $236 forward $91 $-1 #
coedge $-1 $147 $147 $92 $148 forward $142 $-1 #
edge $-1 $237 -1.4817892972008535e-016 $237 6.2831853071796004 $147 $238 forward 7 unknown #
loop $-1 $-1 $154 $93 #
plane-surface $-1 -17.144818994880495 -24.042837151437283 56.244496368333472 0 0.62932039886446345 0.77714595512881146 1 0 0 forward_v I I I I #
loop $-1 $-1 $239 $59 #
coedge $-1 $152 $152 $153 $240 reversed $94 $-1 #
coedge $-1 $153 $153 $152 $240 forward $96 $-1 #
coedge $-1 $154 $154 $97 $155 forward $149 $-1 #
edge $-1 $241 -1.4817892972008535e-016 $241 6.2831853071796004 $154 $242 forward 7 unknown #
face $-1 $243 $244 $34 $-1 $245 reversed single #
loop $-1 $-1 $162 $98 #
plane-surface $-1 0 0 20.479817038601333 0 0 1 1 0 0 forward_v I I I I #
coedge $-1 $246 $247 $248 $249 reversed $99 $-1 #
coedge $-1 $161 $101 $250 $251 reversed $63 $-1 #
coedge $-1 $101 $160 $246 $252 reversed $63 $-1 #
coedge $-1 $248 $253 $101 $163 forward $157 $-1 #
edge $-1 $254 -5.7852205572697599 $255 17.467684419019093 $162 $256 forward 7 unknown #
loop $-1 $-1 $169 $102 #
plane-surface $-1 61.689373943136417 -24.042837151437283 56.244496368333472 0 0.62932039886446345 0.77714595512881146 1 0 0 forward_v I I I I #
loop $-1 $-1 $257 $65 #
coedge $-1 $167 $167 $168 $258 reversed $103 $-1 #
coedge $-1 $168 $168 $167 $258 forward $105 $-1 #
coedge $-1 $169 $169 $106 $170 forward $164 $-1 #
edge $-1 $259 -1.4817892972008535e-016 $259 6.2831853071796004 $169 $260 forward 7 unknown #
loop $-1 $-1 $176 $107 #
plane-surface $-1 61.689373943136417 -24.042837151437283 56.244496368333472 0 0.62932039886446345 0.77714595512881146 1 0 0 forward_v I I I I #
loop $-1 $-1 $261 $68 #
coedge $-1 $174 $174 $175 $262 reversed $108 $-1 #
coedge $-1 $175 $175 $174 $262 forward $110 $-1 #
coedge $-1 $176 $176 $111 $177 forward $171 $-1 #
edge $-1 $263 -1.4817892972008535e-016 $263 6.2831853071796004 $176 $264 forward 7 unknown #
face $-1 $265 $266 $37 $-1 $267 reversed single #
loop $-1 $-1 $184 $112 #
plane-surface $-1 0 0 20.479817038601333 0 0 1 1 0 0 forward_v I I I I #
coedge $-1 $268 $269 $270 $271 reversed $113 $-1 #
coedge $-1 $183 $115 $272 $273 reversed $72 $-1 #
coedge $-1 $115 $182 $268 $274 reversed $72 $-1 #
coedge $-1 $270 $275 $115 $185 forward $179 $-1 #
edge $-1 $276 38.702612218476865 $277 44.752114929143744 $184 $278 forward 7 unknown #
loop $-1 $-1 $191 $116 #
plane-surface $-1 -68.798453657571656 -43.375767725462012 13.27030026100185 0 -0.7660444514056185 0.64278759981090561 1 0 0 forward_v I I I I #
loop $-1 $-1 $279 $74 #
coedge $-1 $189 $189 $190 $280 reversed $117 $-1 #
coedge $-1 $190 $190 $189 $280 forward $119 $-1 #
coedge $-1 $191 $191 $120 $192 forward $186 $-1 #
edge $-1 $281 -3.5659429447176564e-015 $281 6.2831853071795969 $191 $282 forward 7 unknown #
loop $-1 $-1 $198 $121 #
plane-surface $-1 -68.798453657571656 -43.375767725462012 13.27030026100185 0 -0.7660444514056185 0.64278759981090561 1 0 0 forward_v I I I I #
loop $-1 $-1 $283 $77 #
coedge $-1 $196 $196 $197 $284 reversed $122 $-1 #
coedge $-1 $197 $197 $196 $284 forward $124 $-1 #
coedge $-1 $198 $198 $125 $199 forward $193 $-1 #
edge $-1 $285 -3.5659429447176564e-015 $285 6.2831853071795969 $198 $286 forward 7 unknown #
face $-1 $287 $288 $30 $-1 $289 reversed single #
loop $-1 $-1 $290 $126 #
plane-surface $-1 -78.834192938016912 0 0 1 0 0 0 0 -1 forward_v I I I I #
coedge $-1 $291 $211 $292 $293 forward $127 $-1 #
coedge $-1 $294 $129 $291 $295 forward $81 $-1 #
coedge $-1 $129 $294 $296 $297 forward $81 $-1 #
coedge $-1 $214 $213 $129 $207 reversed $215 $-1 #
edge $-1 $298 -43.375767725461991 $299 43.375767725461991 $206 $300 forward 7 unknown #
coedge $-1 $131 $130 $301 $302 forward $51 $-1 #
coedge $-1 $303 $304 $130 $210 reversed $288 $-1 #
edge $-1 $217 -78.834192938016912 $305 78.834192938016912 $209 $306 forward 7 unknown #
coedge $-1 $203 $307 $131 $212 reversed $127 $-1 #
edge $-1 $308 -78.834192938016912 $216 78.834192938016912 $211 $309 forward 7 unknown #
coedge $-1 $206 $132 $307 $310 forward $215 $-1 #
coedge $-1 $132 $206 $303 $311 reversed $215 $-1 #
loop $-1 $-1 $213 $287 #
vertex $-1 $133 $312 #
vertex $-1 $133 $313 #
straight-curve $-1 78.834192938016912 0 20.479817038601333 0 1 0 I I #
face $-1 $-1 $231 $31 $-1 $314 forward single #
loop $-1 $-1 $315 $134 #
plane-surface $-1 0 43.375767725461991 0 0 -1 0 0 0 -1 forward_v I I I I #
coedge $-1 $316 $317 $318 $319 reversed $135 $-1 #
coedge $-1 $320 $137 $139 $229 forward $85 $-1 #
coedge $-1 $137 $320 $316 $321 forward $85 $-1 #
coedge $-1 $318 $140 $137 $226 forward $231 $-1 #
edge $-1 $233 -25.717228492320743 $322 8.5724094974402476 $225 $323 forward 7 unknown #
coedge $-1 $324 $325 $138 $228 forward $220 $-1 #
edge $-1 $326 -87.737936875537542 $232 -68.908105313189566 $227 $327 forward 7 unknown #
edge $-1 $233 56.830637294239004 $326 86.751535450923996 $139 $328 forward 7 unknown #
coedge $-1 $140 $318 $324 $329 forward $231 $-1 #
loop $-1 $-1 $318 $219 #
vertex $-1 $228 $330 #
vertex $-1 $141 $331 #
straight-curve $-1 -34.28963798976099 37.590547168192231 20.47981703860134 0 -1 0 I I #
coedge $-1 $235 $235 $-1 $332 reversed $144 $-1 #
edge $-1 $333 0 $333 6.2831853071796004 $145 $334 forward 7 unknown #
vertex $-1 $148 $335 #
ellipse-curve $-1 -24.492598564114992 31.749315237317564 11.064901257427339 0 0.62932039886446345 0.77714595512881146 4 0 0 1 I I #
coedge $-1 $239 $239 $-1 $336 reversed $151 $-1 #
edge $-1 $337 0 $337 6.2831853071796004 $152 $338 forward 7 unknown #
vertex $-1 $155 $339 #
ellipse-curve $-1 -9.7970394256460054 31.749315237317564 11.064901257427339 0 0.62932039886446345 0.77714595512881146 4 0 0 1 I I #
face $-1 $-1 $340 $34 $-1 $341 reversed single #
loop $-1 $-1 $250 $156 #
plane-surface $-1 0 43.375767725461991 0 0 -1 0 0 0 -1 forward_v I I I I #
coedge $-1 $342 $159 $161 $252 forward $99 $-1 #
coedge $-1 $159 $342 $343 $344 reversed $99 $-1 #
coedge $-1 $345 $162 $159 $249 forward $157 $-1 #
edge $-1 $255 13.699867976687713 $346 47.989505966448704 $248 $347 forward 7 unknown #
coedge $-1 $348 $349 $160 $251 forward $244 $-1 #
edge $-1 $350 -87.737936875537542 $254 -68.908105313189566 $250 $351 forward 7 unknown #
edge $-1 $255 56.830637294239004 $350 86.751535450923996 $161 $352 forward 7 unknown #
coedge $-1 $162 $345 $348 $353 forward $157 $-1 #
vertex $-1 $163 $354 #
vertex $-1 $163 $355 #
straight-curve $-1 44.544554948255922 37.590547168192231 20.47981703860134 0 -1 0 I I #
coedge $-1 $257 $257 $-1 $356 reversed $166 $-1 #
edge $-1 $357 0 $357 6.2831853071796004 $167 $358 forward 7 unknown #
vertex $-1 $170 $359 #
ellipse-curve $-1 54.341594373901927 31.749315237317564 11.064901257427339 0 0.62932039886446345 0.77714595512881146 4 0 0 1 I I #
coedge $-1 $261 $261 $-1 $360 reversed $173 $-1 #
edge $-1 $361 0 $361 6.2831853071796004 $174 $362 forward 7 unknown #
vertex $-1 $177 $363 #
ellipse-curve $-1 69.037153512370907 31.749315237317564 11.064901257427339 0 0.62932039886446345 0.77714595512881146 4 0 0 1 I I #
face $-1 $-1 $364 $37 $-1 $365 reversed single #
loop $-1 $-1 $366 $178 #
plane-surface $-1 -78.834192938016912 0 0 1 0 0 0 0 -1 forward_v I I I I #
coedge $-1 $367 $181 $183 $274 forward $113 $-1 #
coedge $-1 $181 $367 $366 $368 reversed $113 $-1 #
coedge $-1 $369 $184 $181 $271 forward $179 $-1 #
edge $-1 $277 24.363487548340565 $370 44.434966109231084 $270 $371 forward 7 unknown #
coedge $-1 $372 $373 $182 $273 forward $364 $-1 #
edge $-1 $374 -44.03849153115678 $276 -36.828974753557326 $272 $375 forward 7 unknown #
edge $-1 $277 -9.4113556522349455 $374 -3.2752597998015054e-014 $183 $376 forward 7 unknown #
coedge $-1 $184 $369 $372 $377 forward $179 $-1 #
vertex $-1 $273 $378 #
vertex $-1 $185 $379 #
straight-curve $-1 -58.762714377126393 -82.078379943938856 20.479817038601333 0 1 0 I I #
coedge $-1 $279 $279 $-1 $380 reversed $188 $-1 #
edge $-1 $381 0 $381 6.2831853071796004 $189 $382 forward 7 unknown #
vertex $-1 $192 $383 #
ellipse-curve $-1 -73.09948477776247 -40.351016370128555 16.875058649801602 0 -0.7660444514056185 0.64278759981090561 1.5 0 0 1 I I #
coedge $-1 $283 $283 $-1 $384 reversed $195 $-1 #
edge $-1 $385 0 $385 6.2831853071796004 $196 $386 forward 7 unknown #
vertex $-1 $199 $387 #
ellipse-curve $-1 -64.497422537380828 -40.351016370128555 16.875058649801602 0 -0.7660444514056185 0.64278759981090561 1.5 0 0 1 I I #
face $-1 $-1 $215 $30 $-1 $388 reversed single #
loop $-1 $-1 $303 $200 #
plane-surface $-1 0 43.375767725461991 0 0 -1 0 0 0 -1 forward_v I I I I #
coedge $-1 $389 $301 $304 $390 forward $201 $-1 #
coedge $-1 $307 $203 $204 $295 reversed $127 $-1 #
coedge $-1 $301 $389 $203 $293 reversed $201 $-1 #
edge $-1 $308 -20.479817038601333 $391 20.479817038601333 $292 $392 forward 7 unknown #
coedge $-1 $205 $204 $389 $393 forward $81 $-1 #
edge $-1 $299 -78.834192938016912 $391 78.834192938016912 $291 $394 forward 7 unknown #
coedge $-1 $304 $303 $205 $297 reversed $288 $-1 #
edge $-1 $395 -78.834192938016912 $298 78.834192938016912 $296 $396 forward 7 unknown #
vertex $-1 $207 $397 #
vertex $-1 $310 $398 #
straight-curve $-1 78.834192938016912 0 -20.479817038601333 0 -1 0 I I #
coedge $-1 $290 $292 $208 $302 reversed $201 $-1 #
edge $-1 $305 -43.375767725461991 $308 43.375767725461991 $301 $399 forward 7 unknown #
coedge $-1 $296 $209 $214 $311 forward $288 $-1 #
coedge $-1 $209 $296 $290 $390 reversed $288 $-1 #
vertex $-1 $210 $400 #
straight-curve $-1 0 43.375767725461991 20.479817038601333 -1 0 0 I I #
coedge $-1 $211 $291 $213 $310 reversed $127 $-1 #
vertex $-1 $302 $401 #
straight-curve $-1 0 -43.375767725461991 20.479817038601333 1 0 0 I I #
edge $-1 $216 -20.479817038601333 $299 20.479817038601333 $213 $402 forward 7 unknown #
edge $-1 $217 -20.479817038601333 $298 20.479817038601333 $214 $403 forward 7 unknown #
point $-1 78.834192938016912 -43.375767725461991 20.479817038601333 #
point $-1 78.834192938016912 43.375767725461991 20.479817038601333 #
plane-surface $-1 0 0 20.479817038601333 0 0 1 1 0 0 forward_v I I I I #
coedge $-1 $325 $324 $317 $404 forward $220 $-1 #
coedge $-1 $317 $222 $224 $321 reversed $135 $-1 #
coedge $-1 $222 $316 $315 $404 reversed $135 $-1 #
coedge $-1 $230 $225 $222 $319 forward $231 $-1 #
edge $-1 $322 -17.467684419019093 $405 5.7852205572697599 $318 $406 forward 7 unknown #
coedge $-1 $224 $223 $325 $407 reversed $85 $-1 #
edge $-1 $408 -86.751535450923996 $322 -56.830637294239004 $316 $409 forward 7 unknown #
vertex $-1 $226 $410 #
straight-curve $-1 -8.5724094974402476 20.122862749173144 20.479817038601333 1 0 0 I I #
coedge $-1 $315 $227 $230 $329 reversed $220 $-1 #
coedge $-1 $227 $315 $320 $407 forward $220 $-1 #
vertex $-1 $228 $411 #
straight-curve $-1 -34.28963798976099 43.375767725461991 89.387922351790891 0 0 1 I I #
straight-curve $-1 -34.28963798976099 -24.042837151437283 56.244496368333472 0 0.77714595512881146 -0.62932039886446345 I I #
edge $-1 $405 0 $232 34.28963798976099 $324 $412 forward 7 unknown #
point $-1 -34.28963798976099 43.375767725461991 20.479817038601333 #
point $-1 -34.28963798976099 20.122862749173137 20.479817038601333 #
edge $-1 $413 1 $413 0 $235 $-1 forward 7 unknown #
vertex $-1 $236 $414 #
ellipse-curve $-1 -24.492598564114992 25.12388723489207 2.8831792246237367 0 0.62932039886446345 0.77714595512881146 4 0 0 1 I I #
point $-1 -20.492598564114992 31.749315237317568 11.064901257427344 #
edge $-1 $415 1 $415 0 $239 $-1 forward 7 unknown #
vertex $-1 $240 $416 #
ellipse-curve $-1 -9.7970394256460054 25.12388723489207 2.8831792246237367 0 0.62932039886446345 0.77714595512881146 4 0 0 1 I I #
point $-1 -5.7970394256460054 31.749315237317568 11.064901257427344 #
loop $-1 $-1 $343 $243 #
plane-surface $-1 78.834192938016912 0 0 -1 0 0 0 0 1 forward_v I I I I #
coedge $-1 $247 $246 $349 $417 reversed $99 $-1 #
coedge $-1 $418 $419 $247 $344 forward $340 $-1 #
edge $-1 $346 29.790336028983656 $420 59.711234185668658 $343 $421 forward 7 unknown #
coedge $-1 $253 $248 $419 $422 forward $157 $-1 #
vertex $-1 $422 $423 #
straight-curve $-1 30.844686971568208 20.122862749173144 20.479817038601333 1 0 0 I I #
coedge $-1 $424 $250 $253 $353 reversed $244 $-1 #
coedge $-1 $250 $424 $342 $417 forward $244 $-1 #
vertex $-1 $251 $425 #
straight-curve $-1 44.544554948255922 43.375767725461991 89.387922351790891 0 0 1 I I #
straight-curve $-1 44.544554948255922 -24.042837151437283 56.244496368333472 0 0.77714595512881146 -0.62932039886446345 I I #
edge $-1 $426 -78.834192938016912 $254 -44.544554948255922 $348 $427 forward 7 unknown #
point $-1 44.544554948255922 43.375767725461991 20.479817038601333 #
point $-1 44.544554948255922 20.122862749173137 20.479817038601333 #
edge $-1 $428 1 $428 0 $257 $-1 forward 7 unknown #
vertex $-1 $258 $429 #
ellipse-curve $-1 54.341594373901927 25.12388723489207 2.8831792246237367 0 0.62932039886446345 0.77714595512881146 4 0 0 1 I I #
point $-1 58.341594373901927 31.749315237317568 11.064901257427344 #
edge $-1 $430 1 $430 0 $261 $-1 forward 7 unknown #
vertex $-1 $262 $431 #
ellipse-curve $-1 69.037153512370907 25.12388723489207 2.8831792246237367 0 0.62932039886446345 0.77714595512881146 4 0 0 1 I I #
point $-1 73.037153512370907 31.749315237317568 11.064901257427344 #
loop $-1 $-1 $272 $265 #
plane-surface $-1 0 -43.375767725461991 0 0 1 0 0 0 1 forward_v I I I I #
coedge $-1 $432 $433 $269 $368 forward $266 $-1 #
coedge $-1 $269 $268 $373 $434 reversed $113 $-1 #
edge $-1 $370 -0.55347278084590579 $435 8.8578828713890054 $366 $436 forward 7 unknown #
coedge $-1 $275 $270 $433 $437 forward $179 $-1 #
vertex $-1 $437 $438 #
straight-curve $-1 -34.399226828785828 -37.326265014795112 20.479817038601333 -1 0 0 I I #
coedge $-1 $439 $272 $275 $377 reversed $364 $-1 #
coedge $-1 $272 $439 $367 $434 forward $364 $-1 #
vertex $-1 $273 $440 #
straight-curve $-1 -58.762714377126393 -43.375767725461991 57.308791792158658 0 0 1 I I #
straight-curve $-1 -58.762714377126393 -43.375767725462012 13.27030026100185 0 -0.64278759981090561 -0.7660444514056185 I I #
edge $-1 $441 -78.834192938016912 $276 -58.762714377126393 $372 $442 forward 7 unknown #
point $-1 -58.762714377126393 -43.375767725461991 20.479817038601333 #
point $-1 -58.762714377126393 -37.326265014795112 20.479817038601333 #
edge $-1 $443 1 $443 0 $279 $-1 forward 7 unknown #
vertex $-1 $280 $444 #
ellipse-curve $-1 -73.09948477776247 -36.014707279951132 13.236463386825829 0 -0.7660444514056185 0.64278759981090561 1.5 0 0 1 I I #
point $-1 -71.59948477776247 -40.351016370128534 16.875058649801577 #
edge $-1 $445 1 $445 0 $283 $-1 forward 7 unknown #
vertex $-1 $284 $446 #
ellipse-curve $-1 -64.497422537380828 -36.014707279951132 13.236463386825829 0 -0.7660444514056185 0.64278759981090561 1.5 0 0 1 I I #
point $-1 -62.997422537380828 -40.351016370128534 16.875058649801577 #
plane-surface $-1 78.834192938016912 0 0 -1 0 0 0 0 1 forward_v I I I I #
coedge $-1 $292 $290 $294 $393 reversed $201 $-1 #
edge $-1 $305 -20.479817038601333 $395 20.479817038601333 $304 $447 forward 7 unknown #
vertex $-1 $393 $448 #
straight-curve $-1 -78.834192938016912 -43.375767725461991 0 0 0 -1 I I #
edge $-1 $391 -43.375767725461991 $395 43.375767725461991 $389 $449 forward 7 unknown #
straight-curve $-1 0 -43.375767725461991 -20.479817038601333 -1 0 0 I I #
vertex $-1 $297 $450 #
straight-curve $-1 0 43.375767725461991 -20.479817038601333 1 0 0 I I #
point $-1 78.834192938016912 43.375767725461991 -20.479817038601333 #
point $-1 78.834192938016912 -43.375767725461991 -20.479817038601333 #
straight-curve $-1 -78.834192938016912 0 20.479817038601333 0 -1 0 I I #
point $-1 -78.834192938016912 43.375767725461991 20.479817038601333 #
point $-1 -78.834192938016912 -43.375767725461991 20.479817038601333 #
straight-curve $-1 78.834192938016912 -43.375767725461991 0 0 0 -1 I I #
straight-curve $-1 78.834192938016912 43.375767725461991 0 0 0 -1 I I #
edge $-1 $405 68.908105313189566 $408 87.737936875537542 $315 $451 forward 7 unknown #
vertex $-1 $329 $452 #
straight-curve $-1 0 37.590547168192231 20.47981703860134 0 1 0 I I #
edge $-1 $408 -8.5724094974402476 $326 25.717228492320743 $325 $453 forward 7 unknown #
vertex $-1 $407 $454 #
straight-curve $-1 0 -24.042837151437283 56.244496368333472 0 -0.77714595512881146 0.62932039886446345 I I #
point $-1 0 20.122862749173137 20.479817038601333 #
point $-1 -34.28963798976099 43.375767725461998 1.6499854762533417 #
straight-curve $-1 0 43.375767725461991 20.479817038601333 -1 0 0 I I #
vertex $-1 $332 $455 #
point $-1 -20.492598564114992 25.12388723489207 2.8831792246237367 #
vertex $-1 $336 $456 #
point $-1 -5.7970394256460054 25.12388723489207 2.8831792246237367 #
edge $-1 $420 -47.989505966448704 $350 -13.699867976687713 $349 $457 forward 7 unknown #
coedge $-1 $419 $343 $424 $458 reversed $340 $-1 #
coedge $-1 $343 $418 $345 $422 reversed $340 $-1 #
vertex $-1 $344 $459 #
straight-curve $-1 78.834192938016912 -3.0285763976796094 39.227483190667726 0 0.77714595512881146 -0.62932039886446345 I I #
edge $-1 $346 20.122862749173137 $426 43.375767725461991 $419 $460 forward 7 unknown #
point $-1 78.834192938016912 20.122862749173137 20.479817038601333 #
coedge $-1 $349 $348 $418 $458 forward $244 $-1 #
point $-1 44.544554948255922 43.375767725461998 1.6499854762533417 #
vertex $-1 $422 $461 #
straight-curve $-1 0 43.375767725461991 20.479817038601333 -1 0 0 I I #
vertex $-1 $356 $462 #
point $-1 58.341594373901927 25.12388723489207 2.8831792246237367 #
vertex $-1 $360 $463 #
point $-1 73.037153512370907 25.12388723489207 2.8831792246237367 #
coedge $-1 $433 $366 $439 $464 reversed $266 $-1 #
coedge $-1 $366 $432 $369 $437 reversed $266 $-1 #
edge $-1 $435 -44.434966109231084 $374 -24.363487548340565 $373 $465 forward 7 unknown #
vertex $-1 $368 $466 #
straight-curve $-1 -78.834192938016912 -37.682030455155719 20.055832285830288 0 -0.64278759981090572 -0.76604445140561861 I I #
edge $-1 $370 37.326265014795112 $441 43.375767725461991 $433 $467 forward 7 unknown #
point $-1 -78.834192938016912 -37.326265014795112 20.479817038601333 #
coedge $-1 $373 $372 $432 $464 forward $364 $-1 #
point $-1 -58.762714377126393 -43.375767725461991 13.270300261001875 #
vertex $-1 $437 $468 #
straight-curve $-1 0 -43.375767725461991 20.479817038601333 1 0 0 I I #
vertex $-1 $380 $469 #
point $-1 -71.59948477776247 -36.014707279951132 13.236463386825829 #
vertex $-1 $384 $470 #
point $-1 -62.997422537380828 -36.014707279951132 13.236463386825829 #
straight-curve $-1 -78.834192938016912 43.375767725461991 0 0 0 -1 I I #
point $-1 -78.834192938016912 -43.375767725461991 -20.479817038601333 #
straight-curve $-1 -78.834192938016912 0 -20.479817038601333 0 1 0 I I #
point $-1 -78.834192938016912 43.375767725461991 -20.479817038601333 #
straight-curve $-1 0 43.375767725461991 89.387922351790891 0 0 -1 I I #
point $-1 0 43.375767725461991 20.479817038601333 #
straight-curve $-1 -8.5724094974402476 43.375767725461991 1.6499854762533452 -1 0 0 I I #
point $-1 0 43.375767725461998 1.6499854762533417 #
point $-1 -24.492598564114992 22.606605639434218 -0.22540459589150941 #
point $-1 -9.7970394256460054 22.606605639434218 -0.22540459589150941 #
straight-curve $-1 30.844686971568208 43.375767725461991 1.6499854762533452 -1 0 0 I I #
edge $-1 $426 -20.479817038601333 $420 -1.6499854762533417 $418 $471 forward 7 unknown #
point $-1 78.834192938016912 43.375767725461998 1.6499854762533417 #
straight-curve $-1 78.834192938016912 0 20.479817038601333 0 1 0 I I #
point $-1 78.834192938016912 43.375767725461991 20.479817038601333 #
point $-1 54.341594373901927 22.606605639434218 -0.22540459589150941 #
point $-1 69.037153512370907 22.606605639434218 -0.22540459589150941 #
edge $-1 $441 -20.479817038601333 $435 -13.270300261001875 $432 $472 forward 7 unknown #
straight-curve $-1 -34.399226828785828 -43.375767725461991 13.270300261001873 1 0 0 I I #
point $-1 -78.834192938016912 -43.375767725461991 13.270300261001875 #
straight-curve $-1 -78.834192938016912 0 20.479817038601333 0 -1 0 I I #
point $-1 -78.834192938016912 -43.375767725461991 20.479817038601333 #
point $-1 -73.09948477776247 -34.86564060284271 12.272281987109469 #
point $-1 -64.497422537380828 -34.86564060284271 12.272281987109469 #
straight-curve $-1 78.834192938016912 43.375767725461991 0 0 0 -1 I I #
straight-curve $-1 -78.834192938016912 -43.375767725461991 0 0 0 -1 I I #
End-of-ACIS-data 