500 0 7 0           
7 Unknown 11 ACIS 5.0 NT 24 Thu Mar 25 17:09:39 1999 
-1 9.9999999999999995e-007 1e-010 
body $-1 $7 $-1 $8 #
body $-1 $9 $-1 $10 #
body $-1 $11 $-1 $12 #
body $-1 $13 $-1 $14 #
body $-1 $15 $-1 $16 #
body $-1 $17 $-1 $18 #
body $-1 $19 $-1 $20 #
lump $-1 $-1 $21 $0 #
transform $-1 1 0 0 0 1 0 0 0 1 66.359447004608299 38.621412826971728 8.268119959063732 1 rotate no_reflect no_shear #
lump $-1 $-1 $22 $1 #
transform $-1 1 0 0 0 1 0 0 0 1 66.359447004608299 38.621412826971728 8.268119959063732 1 rotate no_reflect no_shear #
lump $-1 $-1 $23 $2 #
transform $-1 1 0 0 0 1 0 0 0 1 66.359447004608299 38.621412826971728 8.268119959063732 1 rotate no_reflect no_shear #
lump $-1 $-1 $24 $3 #
transform $-1 1 0 0 0 1 0 0 0 1 66.359447004608299 38.621412826971728 8.268119959063732 1 rotate no_reflect no_shear #
lump $-1 $-1 $25 $4 #
transform $-1 1 0 0 0 1 0 0 0 1 66.359447004608299 38.621412826971728 8.268119959063732 1 rotate no_reflect no_shear #
lump $-1 $-1 $26 $5 #
transform $-1 1 0 0 0 1 0 0 0 1 66.359447004608299 38.621412826971728 8.268119959063732 1 rotate no_reflect no_shear #
lump $-1 $-1 $27 $6 #
transform $-1 1 0 0 0 1 0 0 0 1 66.359447004608299 38.621412826971728 8.268119959063732 1 rotate no_reflect no_shear #
shell $-1 $-1 $-1 $28 $-1 $7 #
shell $-1 $-1 $-1 $29 $-1 $9 #
shell $-1 $-1 $-1 $30 $-1 $11 #
shell $-1 $-1 $-1 $31 $-1 $13 #
shell $-1 $-1 $-1 $32 $-1 $15 #
shell $-1 $-1 $-1 $33 $-1 $17 #
shell $-1 $-1 $-1 $34 $-1 $19 #
face $-1 $35 $36 $21 $-1 $37 forward single #
face $-1 $38 $39 $22 $-1 $40 forward single #
face $-1 $41 $42 $23 $-1 $43 forward single #
face $-1 $44 $45 $24 $-1 $46 reversed single #
face $-1 $47 $48 $25 $-1 $49 forward single #
face $-1 $50 $51 $26 $-1 $52 forward single #
face $-1 $53 $54 $27 $-1 $55 forward single #
face $-1 $56 $57 $21 $-1 $58 reversed single #
loop $-1 $-1 $59 $28 #
plane-surface $-1 0 0 8.268119959063732 0 0 1 1 0 0 forward_v I I I I #
face $-1 $60 $61 $22 $-1 $62 reversed single #
loop $-1 $-1 $63 $29 #
plane-surface $-1 -62.45104384438217 0 -5.268119959063732 0 0 1 1 0 0 forward_v I I I I #
face $-1 $64 $65 $23 $-1 $66 reversed single #
loop $-1 $-1 $67 $30 #
plane-surface $-1 62.45104384438217 0 -5.268119959063732 0 0 1 1 0 0 forward_v I I I I #
face $-1 $68 $69 $24 $-1 $70 reversed single #
loop $-1 $-1 $71 $31 #
plane-surface $-1 41.683937967814977 48.799673179180537 155.8027094924465 -1 0 0 0 0.55919291073839883 0.82903756765294845 forward_v I I I I #
face $-1 $72 $73 $25 $-1 $74 forward single #
loop $-1 $75 $76 $32 #
cone-surface $-1 25.321513772152713 34.080197358168604 4.942566175594628 0 -0.55919291073839883 -0.82903756765294845 0.5 0 0 1 I I 0 1 0.5 forward I I I I #
face $-1 $77 $78 $26 $-1 $79 forward single #
loop $-1 $80 $81 $33 #
cone-surface $-1 31.457422845526068 34.080197358168604 4.942566175594628 0 -0.55919291073839883 -0.82903756765294845 0.5 0 0 1 I I 0 1 0.5 forward I I I I #
face $-1 $82 $83 $27 $-1 $84 forward single #
loop $-1 $85 $86 $34 #
cone-surface $-1 37.593331918899409 34.080197358168604 4.942566175594628 0 -0.55919291073839883 -0.82903756765294845 0.5 0 0 1 I I 0 1 0.5 forward I I I I #
face $-1 $87 $88 $21 $-1 $89 reversed single #
loop $-1 $-1 $90 $35 #
plane-surface $-1 0 0 -8.268119959063732 0 0 1 1 0 0 forward_v I I I I #
coedge $-1 $91 $92 $93 $94 forward $36 $-1 #
face $-1 $95 $96 $22 $-1 $97 reversed single #
loop $-1 $-1 $98 $38 #
plane-surface $-1 -58.542640684156041 0 -6.768119959063732 -1 0 0 0 0 1 forward_v I I I I #
coedge $-1 $99 $100 $101 $102 forward $39 $-1 #
face $-1 $103 $104 $23 $-1 $105 reversed single #
loop $-1 $-1 $106 $41 #
plane-surface $-1 58.542640684156041 0 -6.768119959063732 1 0 0 0 0 -1 forward_v I I I I #
coedge $-1 $107 $108 $109 $110 reversed $42 $-1 #
face $-1 $111 $112 $24 $-1 $113 reversed single #
loop $-1 $-1 $114 $44 #
plane-surface $-1 31.457422845526068 -25.415791471814337 45.773760421456103 0 0.55919291073839883 0.82903756765294845 1 0 0 forward_v I I I I #
coedge $-1 $115 $116 $117 $118 reversed $45 $-1 #
face $-1 $-1 $119 $25 $-1 $120 forward single #
loop $-1 $121 $122 $47 #
cone-surface $-1 25.321513772152713 33.615587012496881 4.2537530245597566 0 -0.55919291073839883 -0.82903756765294845 0.25 0 0 1 I I -0.70710678118654746 0.70710678118654746 0.25 forward I I I I #
loop $-1 $-1 $123 $32 #
coedge $-1 $76 $76 $124 $125 reversed $48 $-1 #
face $-1 $-1 $126 $26 $-1 $127 forward single #
loop $-1 $128 $129 $50 #
cone-surface $-1 31.457422845526068 33.615587012496881 4.2537530245597566 0 -0.55919291073839883 -0.82903756765294845 0.25 0 0 1 I I -0.70710678118654746 0.70710678118654746 0.25 forward I I I I #
loop $-1 $-1 $130 $33 #
coedge $-1 $81 $81 $131 $132 reversed $51 $-1 #
face $-1 $-1 $133 $27 $-1 $134 forward single #
loop $-1 $135 $136 $53 #
cone-surface $-1 37.593331918899409 33.615587012496881 4.2537530245597566 0 -0.55919291073839883 -0.82903756765294845 0.25 0 0 1 I I -0.70710678118654746 0.70710678118654746 0.25 forward I I I I #
loop $-1 $-1 $137 $34 #
coedge $-1 $86 $86 $138 $139 reversed $54 $-1 #
face $-1 $140 $141 $21 $-1 $142 reversed single #
loop $-1 $-1 $143 $56 #
plane-surface $-1 0 -38.621412826971728 0 0 1 0 0 0 1 forward_v I I I I #
coedge $-1 $144 $145 $146 $147 forward $57 $-1 #
coedge $-1 $148 $59 $149 $150 forward $36 $-1 #
coedge $-1 $59 $148 $151 $152 forward $36 $-1 #
coedge $-1 $153 $154 $59 $94 reversed $155 $-1 #
edge $-1 $156 -38.621412826971728 $157 38.621412826971728 $93 $158 forward 7 unknown #
face $-1 $159 $160 $22 $-1 $161 reversed single #
loop $-1 $-1 $162 $60 #
plane-surface $-1 0 0 -8.268119959063732 0 0 1 1 0 0 forward_v I I I I #
coedge $-1 $163 $101 $164 $165 reversed $61 $-1 #
coedge $-1 $166 $63 $167 $168 reversed $39 $-1 #
coedge $-1 $63 $166 $169 $170 reversed $39 $-1 #
coedge $-1 $98 $171 $63 $102 reversed $61 $-1 #
edge $-1 $172 -38.621412826971728 $173 38.621412826971728 $101 $174 forward 7 unknown #
face $-1 $175 $176 $23 $-1 $177 reversed single #
loop $-1 $-1 $178 $64 #
plane-surface $-1 0 -38.621412826971728 0 0 1 0 0 0 1 forward_v I I I I #
coedge $-1 $179 $180 $181 $182 reversed $65 $-1 #
coedge $-1 $183 $67 $184 $185 reversed $42 $-1 #
coedge $-1 $67 $183 $178 $186 reversed $42 $-1 #
coedge $-1 $187 $188 $67 $110 forward $189 $-1 #
edge $-1 $190 -38.621412826971728 $191 38.621412826971728 $109 $192 forward 7 unknown #
face $-1 $193 $194 $24 $-1 $195 reversed single #
loop $-1 $-1 $196 $68 #
plane-surface $-1 21.230907723237159 48.799673179180537 155.8027094924465 1 0 0 0 -0.55919291073839883 -0.82903756765294845 forward_v I I I I #
coedge $-1 $197 $198 $199 $200 reversed $69 $-1 #
coedge $-1 $116 $71 $201 $202 reversed $45 $-1 #
coedge $-1 $71 $115 $197 $203 reversed $45 $-1 #
coedge $-1 $199 $204 $71 $118 forward $194 $-1 #
edge $-1 $205 69.633234787159523 $206 75.321234835854455 $117 $207 forward 7 unknown #
loop $-1 $-1 $124 $72 #
plane-surface $-1 31.457422845526068 -25.415791471814337 45.773760421456103 0 0.55919291073839883 0.82903756765294845 1 0 0 forward_v I I I I #
loop $-1 $-1 $208 $47 #
coedge $-1 $122 $122 $123 $209 reversed $73 $-1 #
coedge $-1 $123 $123 $122 $209 forward $75 $-1 #
coedge $-1 $124 $124 $76 $125 forward $119 $-1 #
edge $-1 $210 -5.1052121487224023e-015 $210 6.2831853071795951 $124 $211 forward 7 unknown #
loop $-1 $-1 $131 $77 #
plane-surface $-1 31.457422845526068 -25.415791471814337 45.773760421456103 0 0.55919291073839883 0.82903756765294845 1 0 0 forward_v I I I I #
loop $-1 $-1 $212 $50 #
coedge $-1 $129 $129 $130 $213 reversed $78 $-1 #
coedge $-1 $130 $130 $129 $213 forward $80 $-1 #
coedge $-1 $131 $131 $81 $132 forward $126 $-1 #
edge $-1 $214 -5.1052121487224023e-015 $214 6.2831853071795951 $131 $215 forward 7 unknown #
loop $-1 $-1 $138 $82 #
plane-surface $-1 31.457422845526068 -25.415791471814337 45.773760421456103 0 0.55919291073839883 0.82903756765294845 1 0 0 forward_v I I I I #
loop $-1 $-1 $216 $53 #
coedge $-1 $136 $136 $137 $217 reversed $83 $-1 #
coedge $-1 $137 $137 $136 $217 forward $85 $-1 #
coedge $-1 $138 $138 $86 $139 forward $133 $-1 #
edge $-1 $218 -5.1052121487224023e-015 $218 6.2831853071795951 $138 $219 forward 7 unknown #
face $-1 $220 $221 $21 $-1 $222 reversed single #
loop $-1 $-1 $223 $87 #
plane-surface $-1 -66.359447004608299 0 0 1 0 0 0 0 -1 forward_v I I I I #
coedge $-1 $224 $151 $225 $226 forward $88 $-1 #
coedge $-1 $227 $90 $224 $228 forward $57 $-1 #
coedge $-1 $90 $227 $229 $230 forward $57 $-1 #
coedge $-1 $154 $153 $90 $147 reversed $155 $-1 #
edge $-1 $231 -38.621412826971728 $232 38.621412826971728 $146 $233 forward 7 unknown #
coedge $-1 $92 $91 $234 $235 forward $36 $-1 #
coedge $-1 $236 $237 $91 $150 reversed $221 $-1 #
edge $-1 $157 -66.359447004608299 $238 66.359447004608299 $149 $239 forward 7 unknown #
coedge $-1 $143 $240 $92 $152 reversed $88 $-1 #
edge $-1 $241 -66.359447004608299 $156 66.359447004608299 $151 $242 forward 7 unknown #
coedge $-1 $146 $93 $240 $243 forward $155 $-1 #
coedge $-1 $93 $146 $236 $244 reversed $155 $-1 #
loop $-1 $-1 $153 $220 #
vertex $-1 $94 $245 #
vertex $-1 $94 $246 #
straight-curve $-1 66.359447004608299 0 8.268119959063732 0 1 0 I I #
face $-1 $247 $248 $22 $-1 $249 reversed single #
loop $-1 $-1 $164 $95 #
plane-surface $-1 0 -38.621412826971728 0 0 1 0 0 0 1 forward_v I I I I #
coedge $-1 $250 $251 $163 $252 forward $96 $-1 #
coedge $-1 $171 $98 $162 $252 reversed $61 $-1 #
coedge $-1 $169 $253 $98 $165 forward $160 $-1 #
edge $-1 $254 -4.884059979531866 $172 -1.884059979531866 $164 $255 forward 7 unknown #
coedge $-1 $100 $99 $256 $257 reversed $39 $-1 #
coedge $-1 $258 $259 $99 $168 forward $260 $-1 #
edge $-1 $261 -35.133925082417214 $173 -27.317118761964956 $167 $262 forward 7 unknown #
coedge $-1 $263 $164 $100 $170 forward $160 $-1 #
edge $-1 $172 27.317118761964956 $264 35.133925082417214 $169 $265 forward 7 unknown #
coedge $-1 $101 $163 $258 $266 reversed $61 $-1 #
vertex $-1 $170 $267 #
vertex $-1 $168 $268 #
straight-curve $-1 -58.542640684156041 0 -5.268119959063732 0 1 0 I I #
face $-1 $269 $270 $23 $-1 $271 reversed single #
loop $-1 $-1 $272 $103 #
plane-surface $-1 0 0 -8.268119959063732 0 0 1 1 0 0 forward_v I I I I #
coedge $-1 $273 $274 $108 $186 forward $104 $-1 #
coedge $-1 $275 $106 $272 $276 reversed $65 $-1 #
coedge $-1 $106 $275 $183 $277 reversed $65 $-1 #
coedge $-1 $184 $278 $106 $182 forward $270 $-1 #
edge $-1 $279 -4.884059979531866 $280 -1.884059979531866 $181 $281 forward 7 unknown #
coedge $-1 $108 $107 $180 $277 forward $42 $-1 #
coedge $-1 $282 $181 $107 $185 forward $270 $-1 #
edge $-1 $280 27.317118761964956 $190 35.133925082417214 $184 $283 forward 7 unknown #
edge $-1 $191 -35.133925082417214 $284 -27.317118761964956 $178 $285 forward 7 unknown #
coedge $-1 $286 $109 $274 $287 forward $189 $-1 #
coedge $-1 $109 $286 $282 $288 reversed $189 $-1 #
loop $-1 $-1 $109 $269 #
vertex $-1 $288 $289 #
vertex $-1 $287 $290 #
straight-curve $-1 66.359447004608299 0 -5.268119959063732 0 -1 0 I I #
face $-1 $-1 $291 $24 $-1 $292 forward single #
loop $-1 $-1 $117 $111 #
plane-surface $-1 0 38.621412826971728 0 0 -1 0 0 0 -1 forward_v I I I I #
coedge $-1 $293 $294 $295 $296 reversed $112 $-1 #
coedge $-1 $297 $114 $116 $203 forward $69 $-1 #
coedge $-1 $114 $297 $293 $298 forward $69 $-1 #
coedge $-1 $295 $117 $114 $200 forward $194 $-1 #
edge $-1 $206 -25.955226545051943 $299 -5.5021963004741252 $199 $300 forward 7 unknown #
coedge $-1 $301 $302 $115 $202 forward $291 $-1 #
edge $-1 $303 5.7887695357493989 $205 14.221576237381459 $201 $304 forward 7 unknown #
edge $-1 $206 -77.24282565394347 $303 -67.071022794025055 $116 $305 forward 7 unknown #
coedge $-1 $117 $295 $301 $306 reversed $194 $-1 #
vertex $-1 $306 $307 #
vertex $-1 $118 $308 #
straight-curve $-1 41.683937967814977 38.621412826971728 77.901354746223248 0 0 -1 I I #
coedge $-1 $208 $208 $-1 $309 reversed $121 $-1 #
edge $-1 $310 0 $310 6.2831853071796004 $122 $311 forward 7 unknown #
vertex $-1 $125 $312 #
ellipse-curve $-1 25.321513772152713 34.405009476155712 5.4241199347162476 0 0.55919291073839883 0.82903756765294845 0.5 0 0 1 I I #
coedge $-1 $212 $212 $-1 $313 reversed $128 $-1 #
edge $-1 $314 0 $314 6.2831853071796004 $129 $315 forward 7 unknown #
vertex $-1 $132 $316 #
ellipse-curve $-1 31.457422845526068 34.405009476155712 5.4241199347162476 0 0.55919291073839883 0.82903756765294845 0.5 0 0 1 I I #
coedge $-1 $216 $216 $-1 $317 reversed $135 $-1 #
edge $-1 $318 0 $318 6.2831853071796004 $136 $319 forward 7 unknown #
vertex $-1 $139 $320 #
ellipse-curve $-1 37.593331918899409 34.405009476155712 5.4241199347162476 0 0.55919291073839883 0.82903756765294845 0.5 0 0 1 I I #
face $-1 $-1 $155 $21 $-1 $321 reversed single #
loop $-1 $-1 $236 $140 #
plane-surface $-1 0 38.621412826971728 0 0 -1 0 0 0 -1 forward_v I I I I #
coedge $-1 $322 $234 $237 $323 forward $141 $-1 #
coedge $-1 $240 $143 $144 $228 reversed $88 $-1 #
coedge $-1 $234 $322 $143 $226 reversed $141 $-1 #
edge $-1 $241 -8.268119959063732 $324 8.268119959063732 $225 $325 forward 7 unknown #
coedge $-1 $145 $144 $322 $326 forward $57 $-1 #
edge $-1 $232 -66.359447004608299 $324 66.359447004608299 $224 $327 forward 7 unknown #
coedge $-1 $237 $236 $145 $230 reversed $221 $-1 #
edge $-1 $328 -66.359447004608299 $231 66.359447004608299 $229 $329 forward 7 unknown #
vertex $-1 $147 $330 #
vertex $-1 $243 $331 #
straight-curve $-1 66.359447004608299 0 -8.268119959063732 0 -1 0 I I #
coedge $-1 $223 $225 $148 $235 reversed $141 $-1 #
edge $-1 $238 -38.621412826971728 $241 38.621412826971728 $234 $332 forward 7 unknown #
coedge $-1 $229 $149 $154 $244 forward $221 $-1 #
coedge $-1 $149 $229 $223 $323 reversed $221 $-1 #
vertex $-1 $150 $333 #
straight-curve $-1 0 38.621412826971728 8.268119959063732 -1 0 0 I I #
coedge $-1 $151 $224 $153 $243 reversed $88 $-1 #
vertex $-1 $235 $334 #
straight-curve $-1 0 -38.621412826971728 8.268119959063732 1 0 0 I I #
edge $-1 $156 -8.268119959063732 $232 8.268119959063732 $153 $335 forward 7 unknown #
edge $-1 $157 -8.268119959063732 $231 8.268119959063732 $154 $336 forward 7 unknown #
point $-1 66.359447004608299 -38.621412826971728 8.268119959063732 #
point $-1 66.359447004608299 38.621412826971728 8.268119959063732 #
face $-1 $-1 $260 $22 $-1 $337 reversed single #
loop $-1 $-1 $256 $159 #
plane-surface $-1 -66.359447004608299 0 0 1 0 0 0 0 -1 forward_v I I I I #
coedge $-1 $338 $162 $253 $339 forward $96 $-1 #
coedge $-1 $162 $338 $340 $341 forward $96 $-1 #
edge $-1 $342 -38.621412826971728 $254 38.621412826971728 $162 $343 forward 7 unknown #
coedge $-1 $164 $263 $250 $339 reversed $160 $-1 #
vertex $-1 $339 $344 #
straight-curve $-1 -58.542640684156041 -38.621412826971728 -3.384059979531866 0 0 1 I I #
coedge $-1 $345 $346 $166 $257 forward $248 $-1 #
edge $-1 $264 -38.621412826971728 $261 38.621412826971728 $256 $347 forward 7 unknown #
coedge $-1 $340 $167 $171 $266 forward $260 $-1 #
coedge $-1 $167 $340 $345 $348 reversed $260 $-1 #
loop $-1 $-1 $258 $247 #
vertex $-1 $348 $349 #
straight-curve $-1 -31.225521922191085 38.621412826971728 -5.268119959063732 1 0 0 I I #
coedge $-1 $253 $169 $346 $350 forward $160 $-1 #
vertex $-1 $350 $351 #
straight-curve $-1 -31.225521922191085 -38.621412826971728 -5.268119959063732 -1 0 0 I I #
edge $-1 $173 1.884059979531866 $342 4.884059979531866 $258 $352 forward 7 unknown #
point $-1 -58.542640684156041 -38.621412826971728 -5.268119959063732 #
point $-1 -58.542640684156041 38.621412826971728 -5.268119959063732 #
face $-1 $-1 $189 $23 $-1 $353 reversed single #
loop $-1 $-1 $184 $175 #
plane-surface $-1 0 38.621412826971728 0 0 -1 0 0 0 -1 forward_v I I I I #
coedge $-1 $354 $355 $179 $276 forward $176 $-1 #
coedge $-1 $356 $178 $275 $357 forward $104 $-1 #
coedge $-1 $178 $356 $187 $287 reversed $104 $-1 #
coedge $-1 $180 $179 $273 $357 reversed $65 $-1 #
edge $-1 $358 -38.621412826971728 $279 38.621412826971728 $272 $359 forward 7 unknown #
edge $-1 $280 -38.621412826971728 $284 38.621412826971728 $180 $360 forward 7 unknown #
coedge $-1 $181 $282 $354 $361 reversed $270 $-1 #
vertex $-1 $361 $362 #
vertex $-1 $185 $363 #
straight-curve $-1 58.542640684156041 38.621412826971728 -3.384059979531866 0 0 1 I I #
coedge $-1 $278 $184 $188 $288 forward $270 $-1 #
straight-curve $-1 31.225521922191085 38.621412826971728 -5.268119959063732 1 0 0 I I #
vertex $-1 $186 $364 #
straight-curve $-1 31.225521922191085 -38.621412826971728 -5.268119959063732 -1 0 0 I I #
coedge $-1 $188 $187 $365 $366 reversed $189 $-1 #
edge $-1 $191 5.268119959063732 $367 8.268119959063732 $187 $368 forward 7 unknown #
edge $-1 $190 5.268119959063732 $369 8.268119959063732 $188 $370 forward 7 unknown #
point $-1 66.359447004608299 38.621412826971728 -5.268119959063732 #
point $-1 66.359447004608299 -38.621412826971728 -5.268119959063732 #
loop $-1 $-1 $201 $193 #
plane-surface $-1 0 0 8.268119959063732 0 0 1 1 0 0 forward_v I I I I #
coedge $-1 $294 $196 $198 $298 reversed $112 $-1 #
coedge $-1 $196 $293 $371 $372 reversed $112 $-1 #
coedge $-1 $204 $199 $196 $296 forward $194 $-1 #
edge $-1 $299 -75.321234835854455 $373 -69.633234787159523 $295 $374 forward 7 unknown #
coedge $-1 $198 $197 $302 $375 reversed $69 $-1 #
edge $-1 $376 67.071022794025055 $299 77.24282565394347 $293 $377 forward 7 unknown #
vertex $-1 $200 $378 #
straight-curve $-1 15.728711422763034 38.621412826971735 2.58011991036879 -1 0 0 I I #
coedge $-1 $371 $201 $204 $306 forward $291 $-1 #
coedge $-1 $201 $371 $297 $375 forward $291 $-1 #
vertex $-1 $202 $379 #
straight-curve $-1 41.683937967814977 24.399836589590269 8.2681199590637391 0 1 0 I I #
straight-curve $-1 41.683937967814977 -25.415791471814337 45.773760421456103 0 -0.82903756765294845 0.55919291073839883 I I #
edge $-1 $205 -41.683937967814977 $373 -21.230907723237159 $204 $380 forward 7 unknown #
point $-1 41.683937967814977 38.621412826971728 8.268119959063732 #
point $-1 41.683937967814977 38.621412826971728 2.5801199103687864 #
edge $-1 $381 1 $381 0 $208 $-1 forward 7 unknown #
vertex $-1 $209 $382 #
ellipse-curve $-1 25.321513772152713 33.755385240181482 4.4610124164729941 0 0.55919291073839883 0.82903756765294845 0.5 0 0 1 I I #
point $-1 25.821513772152713 34.405009476155719 5.4241199347162627 #
edge $-1 $383 1 $383 0 $212 $-1 forward 7 unknown #
vertex $-1 $213 $384 #
ellipse-curve $-1 31.457422845526068 33.755385240181482 4.4610124164729941 0 0.55919291073839883 0.82903756765294845 0.5 0 0 1 I I #
point $-1 31.957422845526068 34.405009476155719 5.4241199347162627 #
edge $-1 $385 1 $385 0 $216 $-1 forward 7 unknown #
vertex $-1 $217 $386 #
ellipse-curve $-1 37.593331918899409 33.755385240181482 4.4610124164729941 0 0.55919291073839883 0.82903756765294845 0.5 0 0 1 I I #
point $-1 38.093331918899409 34.405009476155719 5.4241199347162627 #
plane-surface $-1 66.359447004608299 0 0 -1 0 0 0 0 1 forward_v I I I I #
coedge $-1 $225 $223 $227 $326 reversed $141 $-1 #
edge $-1 $238 -8.268119959063732 $328 8.268119959063732 $237 $387 forward 7 unknown #
vertex $-1 $326 $388 #
straight-curve $-1 -66.359447004608299 -38.621412826971728 0 0 0 -1 I I #
edge $-1 $324 -38.621412826971728 $328 38.621412826971728 $322 $389 forward 7 unknown #
straight-curve $-1 0 -38.621412826971728 -8.268119959063732 -1 0 0 I I #
vertex $-1 $230 $390 #
straight-curve $-1 0 38.621412826971728 -8.268119959063732 1 0 0 I I #
point $-1 66.359447004608299 38.621412826971728 -8.268119959063732 #
point $-1 66.359447004608299 -38.621412826971728 -8.268119959063732 #
straight-curve $-1 -66.359447004608299 0 8.268119959063732 0 -1 0 I I #
point $-1 -66.359447004608299 38.621412826971728 8.268119959063732 #
point $-1 -66.359447004608299 -38.621412826971728 8.268119959063732 #
straight-curve $-1 66.359447004608299 -38.621412826971728 0 0 0 -1 I I #
straight-curve $-1 66.359447004608299 38.621412826971728 0 0 0 -1 I I #
plane-surface $-1 0 38.621412826971728 0 0 -1 0 0 0 -1 forward_v I I I I #
coedge $-1 $251 $250 $391 $392 forward $96 $-1 #
edge $-1 $254 58.542640684156041 $393 66.359447004608299 $253 $394 forward 7 unknown #
coedge $-1 $259 $258 $251 $341 reversed $260 $-1 #
edge $-1 $395 -66.359447004608299 $342 -58.542640684156041 $340 $396 forward 7 unknown #
vertex $-1 $266 $397 #
straight-curve $-1 -58.542640684156041 0 -8.268119959063732 0 -1 0 I I #
point $-1 -58.542640684156041 -38.621412826971728 -8.268119959063732 #
coedge $-1 $391 $256 $259 $348 forward $248 $-1 #
coedge $-1 $256 $391 $263 $350 reversed $248 $-1 #
straight-curve $-1 -66.359447004608299 0 -5.268119959063732 0 1 0 I I #
edge $-1 $261 5.268119959063732 $395 8.268119959063732 $259 $398 forward 7 unknown #
point $-1 -66.359447004608299 38.621412826971728 -5.268119959063732 #
edge $-1 $264 5.268119959063732 $393 8.268119959063732 $346 $399 forward 7 unknown #
point $-1 -66.359447004608299 -38.621412826971728 -5.268119959063732 #
straight-curve $-1 -58.542640684156041 38.621412826971728 -3.384059979531866 0 0 -1 I I #
plane-surface $-1 66.359447004608299 0 0 -1 0 0 0 0 1 forward_v I I I I #
coedge $-1 $365 $272 $278 $361 forward $176 $-1 #
coedge $-1 $272 $365 $356 $400 forward $176 $-1 #
coedge $-1 $274 $273 $355 $400 reversed $104 $-1 #
edge $-1 $284 1.884059979531866 $358 4.884059979531866 $273 $401 forward 7 unknown #
vertex $-1 $276 $402 #
straight-curve $-1 58.542640684156041 0 -8.268119959063732 0 1 0 I I #
straight-curve $-1 58.542640684156041 0 -5.268119959063732 0 -1 0 I I #
edge $-1 $279 58.542640684156041 $369 66.359447004608299 $278 $403 forward 7 unknown #
point $-1 58.542640684156041 38.621412826971728 -8.268119959063732 #
point $-1 58.542640684156041 38.621412826971728 -5.268119959063732 #
point $-1 58.542640684156041 -38.621412826971728 -5.268119959063732 #
coedge $-1 $355 $354 $286 $366 forward $176 $-1 #
edge $-1 $369 -38.621412826971728 $367 38.621412826971728 $286 $404 forward 7 unknown #
vertex $-1 $287 $405 #
straight-curve $-1 66.359447004608299 -38.621412826971728 0 0 0 -1 I I #
vertex $-1 $366 $406 #
straight-curve $-1 66.359447004608299 38.621412826971728 0 0 0 -1 I I #
coedge $-1 $302 $301 $294 $372 forward $291 $-1 #
edge $-1 $373 -14.221576237381459 $376 -5.7887695357493989 $371 $407 forward 7 unknown #
vertex $-1 $372 $408 #
straight-curve $-1 21.230907723237159 38.621412826971728 77.901354746223248 0 0 1 I I #
edge $-1 $376 5.5021963004741252 $303 25.955226545051943 $302 $409 forward 7 unknown #
vertex $-1 $375 $410 #
straight-curve $-1 21.230907723237159 -25.415791471814337 45.773760421456103 0 0.82903756765294845 -0.55919291073839883 I I #
point $-1 21.230907723237159 38.621412826971728 2.5801199103687864 #
point $-1 41.683937967814977 30.188606125339668 8.268119959063732 #
straight-curve $-1 0 38.621412826971728 8.268119959063732 -1 0 0 I I #
vertex $-1 $309 $411 #
point $-1 25.821513772152713 33.755385240181482 4.4610124164729941 #
vertex $-1 $313 $412 #
point $-1 31.957422845526068 33.755385240181482 4.4610124164729941 #
vertex $-1 $317 $413 #
point $-1 38.093331918899409 33.755385240181482 4.4610124164729941 #
straight-curve $-1 -66.359447004608299 38.621412826971728 0 0 0 -1 I I #
point $-1 -66.359447004608299 -38.621412826971728 -8.268119959063732 #
straight-curve $-1 -66.359447004608299 0 -8.268119959063732 0 1 0 I I #
point $-1 -66.359447004608299 38.621412826971728 -8.268119959063732 #
coedge $-1 $346 $345 $338 $392 reversed $248 $-1 #
edge $-1 $393 -38.621412826971728 $395 38.621412826971728 $391 $414 forward 7 unknown #
vertex $-1 $392 $415 #
straight-curve $-1 0 -38.621412826971728 -8.268119959063732 -1 0 0 I I #
vertex $-1 $341 $416 #
straight-curve $-1 0 38.621412826971728 -8.268119959063732 1 0 0 I I #
point $-1 -58.542640684156041 38.621412826971728 -8.268119959063732 #
straight-curve $-1 -66.359447004608299 38.621412826971728 0 0 0 -1 I I #
straight-curve $-1 -66.359447004608299 -38.621412826971728 0 0 0 -1 I I #
edge $-1 $367 -66.359447004608299 $358 -58.542640684156041 $356 $417 forward 7 unknown #
straight-curve $-1 58.542640684156041 -38.621412826971728 -3.384059979531866 0 0 -1 I I #
point $-1 58.542640684156041 -38.621412826971728 -8.268119959063732 #
straight-curve $-1 0 38.621412826971728 -8.268119959063732 1 0 0 I I #
straight-curve $-1 66.359447004608299 0 -8.268119959063732 0 -1 0 I I #
point $-1 66.359447004608299 -38.621412826971728 -8.268119959063732 #
point $-1 66.359447004608299 38.621412826971728 -8.268119959063732 #
straight-curve $-1 21.230907723237159 24.399836589590269 8.2681199590637391 0 -1 0 I I #
point $-1 21.230907723237159 38.621412826971728 8.268119959063732 #
straight-curve $-1 15.728711422763034 30.188606125339668 8.268119959063732 1 0 0 I I #
point $-1 21.230907723237159 30.188606125339668 8.268119959063732 #
point $-1 25.321513772152713 33.475788784812281 4.0464936326465191 #
point $-1 31.457422845526068 33.475788784812281 4.0464936326465191 #
point $-1 37.593331918899409 33.475788784812281 4.0464936326465191 #
straight-curve $-1 -66.359447004608299 0 -8.268119959063732 0 1 0 I I #
point $-1 -66.359447004608299 -38.621412826971728 -8.268119959063732 #
point $-1 -66.359447004608299 38.621412826971728 -8.268119959063732 #
straight-curve $-1 0 -38.621412826971728 -8.268119959063732 -1 0 0 I I #
End-of-ACIS-data 