500 0 11 0           
7 Unknown 11 ACIS 5.0 NT 24 Thu Mar 25 22:36:52 1999 
-1 9.9999999999999995e-007 1e-010 
body $-1 $11 $-1 $12 #
body $-1 $13 $-1 $14 #
body $-1 $15 $-1 $16 #
body $-1 $17 $-1 $18 #
body $-1 $19 $-1 $20 #
body $-1 $21 $-1 $22 #
body $-1 $23 $-1 $24 #
body $-1 $25 $-1 $26 #
body $-1 $27 $-1 $28 #
body $-1 $29 $-1 $30 #
body $-1 $31 $-1 $32 #
lump $-1 $-1 $33 $0 #
transform $-1 1 0 0 0 1 0 0 0 1 64.480727561265908 32.378310464859297 11.910024598924194 1 rotate no_reflect no_shear #
lump $-1 $-1 $34 $1 #
transform $-1 1 0 0 0 1 0 0 0 1 64.480727561265908 32.378310464859297 11.910024598924194 1 rotate no_reflect no_shear #
lump $-1 $-1 $35 $2 #
transform $-1 1 0 0 0 1 0 0 0 1 64.480727561265908 32.378310464859297 11.910024598924194 1 rotate no_reflect no_shear #
lump $-1 $-1 $36 $3 #
transform $-1 1 0 0 0 1 0 0 0 1 64.480727561265908 32.378310464859297 11.910024598924194 1 rotate no_reflect no_shear #
lump $-1 $-1 $37 $4 #
transform $-1 1 0 0 0 1 0 0 0 1 64.480727561265908 32.378310464859297 11.910024598924194 1 rotate no_reflect no_shear #
lump $-1 $-1 $38 $5 #
transform $-1 1 0 0 0 1 0 0 0 1 64.480727561265908 32.378310464859297 11.910024598924194 1 rotate no_reflect no_shear #
lump $-1 $-1 $39 $6 #
transform $-1 1 0 0 0 1 0 0 0 1 64.480727561265908 32.378310464859297 11.910024598924194 1 rotate no_reflect no_shear #
lump $-1 $-1 $40 $7 #
transform $-1 1 0 0 0 1 0 0 0 1 64.480727561265908 32.378310464859297 11.910024598924194 1 rotate no_reflect no_shear #
lump $-1 $-1 $41 $8 #
transform $-1 1 0 0 0 1 0 0 0 1 64.480727561265908 32.378310464859297 11.910024598924194 1 rotate no_reflect no_shear #
lump $-1 $-1 $42 $9 #
transform $-1 1 0 0 0 1 0 0 0 1 64.480727561265908 32.378310464859297 11.910024598924194 1 rotate no_reflect no_shear #
lump $-1 $-1 $43 $10 #
transform $-1 1 0 0 0 1 0 0 0 1 64.480727561265908 32.378310464859297 11.910024598924194 1 rotate no_reflect no_shear #
shell $-1 $-1 $-1 $44 $-1 $11 #
shell $-1 $-1 $-1 $45 $-1 $13 #
shell $-1 $-1 $-1 $46 $-1 $15 #
shell $-1 $-1 $-1 $47 $-1 $17 #
shell $-1 $-1 $-1 $48 $-1 $19 #
shell $-1 $-1 $-1 $49 $-1 $21 #
shell $-1 $-1 $-1 $50 $-1 $23 #
shell $-1 $-1 $-1 $51 $-1 $25 #
shell $-1 $-1 $-1 $52 $-1 $27 #
shell $-1 $-1 $-1 $53 $-1 $29 #
shell $-1 $-1 $-1 $54 $-1 $31 #
face $-1 $55 $56 $33 $-1 $57 forward single #
face $-1 $58 $59 $34 $-1 $60 forward single #
face $-1 $61 $62 $35 $-1 $63 forward single #
face $-1 $64 $65 $36 $-1 $66 reversed single #
face $-1 $67 $68 $37 $-1 $69 forward single #
face $-1 $70 $71 $38 $-1 $72 forward single #
face $-1 $73 $74 $39 $-1 $75 forward single #
face $-1 $76 $77 $40 $-1 $78 reversed single #
face $-1 $79 $80 $41 $-1 $81 forward single #
face $-1 $82 $83 $42 $-1 $84 forward single #
face $-1 $85 $86 $43 $-1 $87 forward single #
face $-1 $88 $89 $33 $-1 $90 reversed single #
loop $-1 $-1 $91 $44 #
plane-surface $-1 0 0 11.910024598924194 0 0 1 1 0 0 forward_v I I I I #
face $-1 $92 $93 $34 $-1 $94 reversed single #
loop $-1 $-1 $95 $45 #
plane-surface $-1 0 -32.378310464859297 0 0 1 0 0 0 1 forward_v I I I I #
face $-1 $96 $97 $35 $-1 $98 reversed single #
loop $-1 $-1 $99 $46 #
plane-surface $-1 0 27.341969718264323 0.59170017614294146 0 0 1 1 0 0 forward_v I I I I #
face $-1 $100 $101 $36 $-1 $102 reversed single #
loop $-1 $-1 $103 $47 #
plane-surface $-1 99.280291328374958 4.3740944665538137 185.22094307334808 0 -1 0 -0.82903758062907751 0 -0.55919289150049634 forward_v I I I I #
face $-1 $104 $105 $37 $-1 $106 forward single #
loop $-1 $107 $108 $48 #
cone-surface $-1 61.78890823304237 -6.0141485784030912 8.5362950002489182 -0.82903758062907751 0 -0.55919289150049634 0.55919289150049634 0 -0.82903758062907751 1 I I 0 1 1 forward I I I I #
face $-1 $109 $110 $38 $-1 $111 forward single #
loop $-1 $112 $113 $49 #
cone-surface $-1 61.78890823304237 -2.1185574365442541 8.5362950002489182 -0.82903758062907751 0 -0.55919289150049634 0.55919289150049634 0 -0.82903758062907751 1 I I 0 1 1 forward I I I I #
face $-1 $114 $115 $39 $-1 $116 forward single #
loop $-1 $117 $118 $50 #
cone-surface $-1 61.78890823304237 1.7770337053145795 8.5362950002489182 -0.82903758062907751 0 -0.55919289150049634 0.55919289150049634 0 -0.82903758062907751 1 I I 0 1 1 forward I I I I #
face $-1 $119 $120 $40 $-1 $121 reversed single #
loop $-1 $-1 $122 $51 #
plane-surface $-1 -154.06488288112155 8.2857080613754022 94.224329234270371 0 1 0 -0.69465837861970381 0 0.71933979245794832 forward_v I I I I #
face $-1 $123 $124 $41 $-1 $125 forward single #
loop $-1 $126 $127 $52 #
cone-surface $-1 -58.178413948102353 10.309669905423803 5.7617768497053135 0.69465837861970381 0 -0.71933979245794832 0.71933979245794832 0 0.69465837861970381 1 I I 0 1 1 forward I I I I #
face $-1 $128 $129 $42 $-1 $130 forward single #
loop $-1 $131 $132 $53 #
cone-surface $-1 -58.178413948102353 13.345612671496397 5.7617768497053135 0.69465837861970381 0 -0.71933979245794832 0.71933979245794832 0 0.69465837861970381 1 I I 0 1 1 forward I I I I #
face $-1 $133 $134 $43 $-1 $135 forward single #
loop $-1 $136 $137 $54 #
cone-surface $-1 -58.178413948102353 16.381555437568991 5.7617768497053135 0.69465837861970381 0 -0.71933979245794832 0.71933979245794832 0 0.69465837861970381 1 I I 0 1 1 forward I I I I #
face $-1 $138 $139 $33 $-1 $140 reversed single #
loop $-1 $-1 $141 $55 #
plane-surface $-1 0 0 -11.910024598924194 0 0 1 1 0 0 forward_v I I I I #
coedge $-1 $142 $143 $144 $145 forward $56 $-1 #
face $-1 $146 $147 $34 $-1 $148 reversed single #
loop $-1 $-1 $149 $58 #
plane-surface $-1 0 0 -11.910024598924194 0 0 1 1 0 0 forward_v I I I I #
coedge $-1 $150 $151 $152 $153 forward $59 $-1 #
face $-1 $154 $155 $35 $-1 $156 reversed single #
loop $-1 $-1 $157 $61 #
plane-surface $-1 0 27.341969718264323 -2.4082998238570585 0 0 1 1 0 0 forward_v I I I I #
coedge $-1 $158 $159 $160 $161 reversed $62 $-1 #
face $-1 $162 $163 $36 $-1 $164 reversed single #
loop $-1 $-1 $165 $64 #
plane-surface $-1 -7.6336014208141734 -2.1185574365442505 113.10661409126801 0.82903758062907751 0 0.55919289150049634 0.55919289150049634 0 -0.82903758062907751 forward_v I I I I #
coedge $-1 $166 $167 $168 $169 reversed $65 $-1 #
face $-1 $-1 $170 $37 $-1 $171 forward single #
loop $-1 $172 $173 $67 #
cone-surface $-1 60.61075492450685 -6.0141485784030912 7.7416205842460375 -0.82903758062907751 0 -0.55919289150049634 0.27959644575024817 0 -0.41451879031453875 1 I I -0.70710678118654746 0.70710678118654746 0.5 forward I I I I #
loop $-1 $-1 $174 $48 #
coedge $-1 $108 $108 $175 $176 reversed $68 $-1 #
face $-1 $-1 $177 $38 $-1 $178 forward single #
loop $-1 $179 $180 $70 #
cone-surface $-1 60.61075492450685 -2.1185574365442541 7.7416205842460375 -0.82903758062907751 0 -0.55919289150049634 0.27959644575024817 0 -0.41451879031453875 1 I I -0.70710678118654746 0.70710678118654746 0.5 forward I I I I #
loop $-1 $-1 $181 $49 #
coedge $-1 $113 $113 $182 $183 reversed $71 $-1 #
face $-1 $-1 $184 $39 $-1 $185 forward single #
loop $-1 $186 $187 $73 #
cone-surface $-1 60.61075492450685 1.7770337053145795 7.7416205842460375 -0.82903758062907751 0 -0.55919289150049634 0.27959644575024817 0 -0.41451879031453875 1 I I -0.70710678118654746 0.70710678118654746 0.5 forward I I I I #
loop $-1 $-1 $188 $50 #
coedge $-1 $118 $118 $189 $190 reversed $74 $-1 #
face $-1 $191 $192 $40 $-1 $193 reversed single #
loop $-1 $-1 $194 $76 #
plane-surface $-1 -64.480727561265894 13.345612671496397 1.4572228713533235 -0.69465837861970381 0 0.71933979245794832 0.71933979245794832 0 0.69465837861970381 forward_v I I I I #
coedge $-1 $195 $196 $197 $198 reversed $77 $-1 #
face $-1 $-1 $199 $41 $-1 $200 forward single #
loop $-1 $201 $202 $79 #
cone-surface $-1 -56.940867549227718 10.309669905423803 4.4802600680428863 0.69465837861970381 0 -0.71933979245794832 0.35966989622897416 0 0.3473291893098519 1 I I -0.70710678118654746 0.70710678118654746 0.5 forward I I I I #
loop $-1 $-1 $203 $52 #
coedge $-1 $127 $127 $204 $205 reversed $80 $-1 #
face $-1 $-1 $206 $42 $-1 $207 forward single #
loop $-1 $208 $209 $82 #
cone-surface $-1 -56.940867549227718 13.345612671496397 4.4802600680428863 0.69465837861970381 0 -0.71933979245794832 0.35966989622897416 0 0.3473291893098519 1 I I -0.70710678118654746 0.70710678118654746 0.5 forward I I I I #
loop $-1 $-1 $210 $53 #
coedge $-1 $132 $132 $211 $212 reversed $83 $-1 #
face $-1 $-1 $213 $43 $-1 $214 forward single #
loop $-1 $215 $216 $85 #
cone-surface $-1 -56.940867549227718 16.381555437568991 4.4802600680428863 0.69465837861970381 0 -0.71933979245794832 0.35966989622897416 0 0.3473291893098519 1 I I -0.70710678118654746 0.70710678118654746 0.5 forward I I I I #
loop $-1 $-1 $217 $54 #
coedge $-1 $137 $137 $218 $219 reversed $86 $-1 #
face $-1 $220 $221 $33 $-1 $222 reversed single #
loop $-1 $-1 $223 $88 #
plane-surface $-1 0 -32.378310464859297 0 0 1 0 0 0 1 forward_v I I I I #
coedge $-1 $224 $225 $226 $227 forward $89 $-1 #
coedge $-1 $228 $91 $229 $230 forward $56 $-1 #
coedge $-1 $91 $228 $231 $232 forward $56 $-1 #
coedge $-1 $233 $234 $91 $145 reversed $235 $-1 #
edge $-1 $236 -32.378310464859297 $237 32.378310464859297 $144 $238 forward 7 unknown #
face $-1 $239 $240 $34 $-1 $241 forward single #
loop $-1 $-1 $242 $92 #
plane-surface $-1 64.480727561265908 0 0 -1 0 0 0 0 1 forward_v I I I I #
coedge $-1 $243 $244 $245 $246 forward $93 $-1 #
coedge $-1 $245 $95 $242 $247 reversed $59 $-1 #
coedge $-1 $95 $245 $248 $249 reversed $59 $-1 #
coedge $-1 $250 $251 $95 $153 reversed $240 $-1 #
edge $-1 $252 -64.480727561265908 $253 64.480727561265908 $152 $254 forward 7 unknown #
face $-1 $255 $256 $35 $-1 $257 reversed single #
loop $-1 $-1 $258 $96 #
plane-surface $-1 0 22.305628971669346 -0.90829982385705854 0 1 0 0 0 1 forward_v I I I I #
coedge $-1 $259 $260 $261 $262 reversed $97 $-1 #
coedge $-1 $263 $99 $264 $265 reversed $62 $-1 #
coedge $-1 $99 $263 $266 $267 forward $62 $-1 #
coedge $-1 $268 $269 $99 $161 forward $256 $-1 #
edge $-1 $270 -18.707325605727135 $271 -8.6346441125371847 $160 $272 forward 7 unknown #
face $-1 $273 $274 $36 $-1 $275 forward single #
loop $-1 $-1 $276 $100 #
plane-surface $-1 99.280291328374958 -8.6112093396423148 185.22094307334808 0 1 0 0.82903758062907751 0 0.55919289150049634 forward_v I I I I #
coedge $-1 $277 $278 $279 $280 reversed $101 $-1 #
coedge $-1 $167 $103 $281 $282 reversed $65 $-1 #
coedge $-1 $103 $166 $277 $283 reversed $65 $-1 #
coedge $-1 $279 $284 $103 $169 forward $274 $-1 #
edge $-1 $285 -14.84058189707843 $286 -10.984212277073276 $168 $287 forward 7 unknown #
loop $-1 $-1 $175 $104 #
plane-surface $-1 -7.6336014208141734 -2.1185574365442505 113.10661409126801 0.82903758062907751 0 0.55919289150049634 0.55919289150049634 0 -0.82903758062907751 forward_v I I I I #
loop $-1 $-1 $288 $67 #
coedge $-1 $173 $173 $174 $289 reversed $105 $-1 #
coedge $-1 $174 $174 $173 $289 forward $107 $-1 #
coedge $-1 $175 $175 $108 $176 forward $170 $-1 #
edge $-1 $290 0 $290 6.2831853071796004 $175 $291 forward 7 unknown #
loop $-1 $-1 $182 $109 #
plane-surface $-1 -7.6336014208141734 -2.1185574365442505 113.10661409126801 0.82903758062907751 0 0.55919289150049634 0.55919289150049634 0 -0.82903758062907751 forward_v I I I I #
loop $-1 $-1 $292 $70 #
coedge $-1 $180 $180 $181 $293 reversed $110 $-1 #
coedge $-1 $181 $181 $180 $293 forward $112 $-1 #
coedge $-1 $182 $182 $113 $183 forward $177 $-1 #
edge $-1 $294 0 $294 6.2831853071796004 $182 $295 forward 7 unknown #
loop $-1 $-1 $189 $114 #
plane-surface $-1 -7.6336014208141734 -2.1185574365442505 113.10661409126801 0.82903758062907751 0 0.55919289150049634 0.55919289150049634 0 -0.82903758062907751 forward_v I I I I #
loop $-1 $-1 $296 $73 #
coedge $-1 $187 $187 $188 $297 reversed $115 $-1 #
coedge $-1 $188 $188 $187 $297 forward $117 $-1 #
coedge $-1 $189 $189 $118 $190 forward $184 $-1 #
edge $-1 $298 0 $298 6.2831853071796004 $189 $299 forward 7 unknown #
face $-1 $300 $301 $40 $-1 $302 reversed single #
loop $-1 $-1 $303 $119 #
plane-surface $-1 -154.06488288112155 18.405517281617392 94.224329234270371 0 -1 0 0.69465837861970381 0 -0.71933979245794832 forward_v I I I I #
coedge $-1 $304 $305 $306 $307 reversed $120 $-1 #
coedge $-1 $196 $122 $308 $309 reversed $77 $-1 #
coedge $-1 $122 $195 $304 $310 reversed $77 $-1 #
coedge $-1 $306 $311 $122 $198 forward $312 $-1 #
edge $-1 $313 12.551713879294866 $314 23.375906686492435 $197 $315 forward 7 unknown #
loop $-1 $-1 $204 $123 #
plane-surface $-1 -64.480727561265894 13.345612671496397 1.4572228713533235 -0.69465837861970381 0 0.71933979245794832 0.71933979245794832 0 0.69465837861970381 forward_v I I I I #
loop $-1 $-1 $316 $79 #
coedge $-1 $202 $202 $203 $317 reversed $124 $-1 #
coedge $-1 $203 $203 $202 $317 forward $126 $-1 #
coedge $-1 $204 $204 $127 $205 forward $199 $-1 #
edge $-1 $318 0 $318 6.2831853071796004 $204 $319 forward 7 unknown #
loop $-1 $-1 $211 $128 #
plane-surface $-1 -64.480727561265894 13.345612671496397 1.4572228713533235 -0.69465837861970381 0 0.71933979245794832 0.71933979245794832 0 0.69465837861970381 forward_v I I I I #
loop $-1 $-1 $320 $82 #
coedge $-1 $209 $209 $210 $321 reversed $129 $-1 #
coedge $-1 $210 $210 $209 $321 forward $131 $-1 #
coedge $-1 $211 $211 $132 $212 forward $206 $-1 #
edge $-1 $322 0 $322 6.2831853071796004 $211 $323 forward 7 unknown #
loop $-1 $-1 $218 $133 #
plane-surface $-1 -64.480727561265894 13.345612671496397 1.4572228713533235 -0.69465837861970381 0 0.71933979245794832 0.71933979245794832 0 0.69465837861970381 forward_v I I I I #
loop $-1 $-1 $324 $85 #
coedge $-1 $216 $216 $217 $325 reversed $134 $-1 #
coedge $-1 $217 $217 $216 $325 forward $136 $-1 #
coedge $-1 $218 $218 $137 $219 forward $213 $-1 #
edge $-1 $326 0 $326 6.2831853071796004 $218 $327 forward 7 unknown #
face $-1 $328 $329 $33 $-1 $330 reversed single #
loop $-1 $-1 $331 $138 #
plane-surface $-1 -64.480727561265908 0 0 1 0 0 0 0 -1 forward_v I I I I #
coedge $-1 $332 $231 $333 $334 forward $139 $-1 #
coedge $-1 $335 $141 $332 $336 forward $89 $-1 #
coedge $-1 $141 $335 $337 $338 forward $89 $-1 #
coedge $-1 $234 $233 $141 $227 reversed $235 $-1 #
edge $-1 $339 -32.378310464859297 $340 32.378310464859297 $226 $341 forward 7 unknown #
coedge $-1 $143 $142 $342 $343 forward $56 $-1 #
coedge $-1 $344 $345 $142 $230 reversed $329 $-1 #
edge $-1 $237 -64.480727561265908 $346 64.480727561265908 $229 $347 forward 7 unknown #
coedge $-1 $223 $348 $143 $232 reversed $139 $-1 #
edge $-1 $349 -64.480727561265908 $236 64.480727561265908 $231 $350 forward 7 unknown #
coedge $-1 $226 $144 $348 $351 forward $235 $-1 #
coedge $-1 $144 $226 $344 $352 reversed $235 $-1 #
loop $-1 $-1 $233 $328 #
vertex $-1 $145 $353 #
vertex $-1 $145 $354 #
straight-curve $-1 64.480727561265908 0 11.910024598924194 0 1 0 I I #
face $-1 $355 $356 $34 $-1 $357 reversed single #
loop $-1 $-1 $251 $146 #
plane-surface $-1 0 -36.890122344043114 -8.7818757386909905 0 0 1 1 0 0 forward_v I I I I #
coedge $-1 $358 $359 $150 $247 forward $147 $-1 #
coedge $-1 $360 $149 $359 $361 forward $93 $-1 #
coedge $-1 $149 $360 $362 $363 forward $93 $-1 #
coedge $-1 $151 $150 $149 $246 reversed $59 $-1 #
edge $-1 $364 -64.480727561265908 $365 64.480727561265908 $149 $366 forward 7 unknown #
edge $-1 $365 -11.910024598924194 $253 -8.7818757386909905 $242 $367 forward 7 unknown #
coedge $-1 $362 $368 $151 $249 forward $369 $-1 #
edge $-1 $252 8.7818757386909905 $364 11.910024598924194 $248 $370 forward 7 unknown #
coedge $-1 $371 $152 $368 $372 forward $240 $-1 #
coedge $-1 $152 $371 $358 $373 forward $240 $-1 #
vertex $-1 $249 $374 #
vertex $-1 $373 $375 #
straight-curve $-1 0 -32.378310464859297 -8.7818757386909905 1 0 0 I I #
face $-1 $376 $377 $35 $-1 $378 reversed single #
loop $-1 $-1 $160 $154 #
plane-surface $-1 64.480727561265908 0 0 -1 0 0 0 0 1 forward_v I I I I #
coedge $-1 $379 $266 $380 $381 reversed $155 $-1 #
coedge $-1 $382 $157 $379 $383 forward $97 $-1 #
coedge $-1 $157 $382 $384 $385 reversed $97 $-1 #
coedge $-1 $269 $268 $157 $262 forward $256 $-1 #
edge $-1 $386 8.6346441125371847 $387 18.707325605727135 $261 $388 forward 7 unknown #
coedge $-1 $159 $158 $389 $390 reversed $62 $-1 #
coedge $-1 $391 $392 $158 $265 forward $393 $-1 #
edge $-1 $394 -64.480727561265908 $270 64.480727561265908 $264 $395 forward 7 unknown #
coedge $-1 $258 $396 $159 $267 reversed $155 $-1 #
edge $-1 $397 -64.480727561265908 $271 64.480727561265908 $266 $398 forward 7 unknown #
coedge $-1 $261 $160 $396 $399 forward $256 $-1 #
coedge $-1 $160 $261 $391 $400 reversed $256 $-1 #
vertex $-1 $400 $401 #
vertex $-1 $161 $402 #
straight-curve $-1 64.480727561265908 13.670984859132162 0.59170017614294146 0 -1 0 I I #
face $-1 $-1 $403 $36 $-1 $404 reversed single #
loop $-1 $-1 $168 $162 #
plane-surface $-1 0 0 11.910024598924194 0 0 1 1 0 0 forward_v I I I I #
coedge $-1 $405 $406 $407 $408 reversed $163 $-1 #
coedge $-1 $409 $165 $167 $283 forward $101 $-1 #
coedge $-1 $165 $409 $405 $410 forward $101 $-1 #
coedge $-1 $407 $168 $165 $280 forward $274 $-1 #
edge $-1 $286 -5.433373184825939 $411 7.5519306213701896 $279 $412 forward 7 unknown #
coedge $-1 $413 $414 $166 $282 forward $403 $-1 #
edge $-1 $415 -86.417750194595186 $285 -80.700446937749845 $281 $416 forward 7 unknown #
edge $-1 $286 122.06514138424869 $415 128.96145512253185 $167 $417 forward 7 unknown #
coedge $-1 $168 $407 $413 $418 forward $274 $-1 #
vertex $-1 $282 $419 #
vertex $-1 $169 $420 #
straight-curve $-1 49.640145664187479 4.3740944665538137 11.910024598924196 -1 0 0 I I #
coedge $-1 $288 $288 $-1 $421 reversed $172 $-1 #
edge $-1 $422 0 $422 6.2831853071796004 $173 $423 forward 7 unknown #
vertex $-1 $176 $424 #
ellipse-curve $-1 62.552542751263331 -6.0141485784030912 9.0513729705015393 0.82903758062907751 0 0.55919289150049634 0.55919289150049634 0 -0.82903758062907751 1 I I #
coedge $-1 $292 $292 $-1 $425 reversed $179 $-1 #
edge $-1 $426 0 $426 6.2831853071796004 $180 $427 forward 7 unknown #
vertex $-1 $183 $428 #
ellipse-curve $-1 62.552542751263331 -2.1185574365442541 9.0513729705015393 0.82903758062907751 0 0.55919289150049634 0.55919289150049634 0 -0.82903758062907751 1 I I #
coedge $-1 $296 $296 $-1 $429 reversed $186 $-1 #
edge $-1 $430 0 $430 6.2831853071796004 $187 $431 forward 7 unknown #
vertex $-1 $190 $432 #
ellipse-curve $-1 62.552542751263331 1.7770337053145795 9.0513729705015393 0.82903758062907751 0 0.55919289150049634 0.55919289150049634 0 -0.82903758062907751 1 I I #
face $-1 $-1 $312 $40 $-1 $433 forward single #
loop $-1 $-1 $434 $191 #
plane-surface $-1 -64.480727561265908 0 0 1 0 0 0 0 -1 forward_v I I I I #
coedge $-1 $435 $436 $437 $438 reversed $192 $-1 #
coedge $-1 $439 $194 $196 $310 forward $120 $-1 #
coedge $-1 $194 $439 $435 $440 forward $120 $-1 #
coedge $-1 $437 $197 $194 $307 forward $312 $-1 #
edge $-1 $314 1.6129017256272036 $441 11.732710945869194 $306 $442 forward 7 unknown #
coedge $-1 $443 $444 $195 $309 forward $301 $-1 #
edge $-1 $445 -45.654941745781876 $313 -35.20214001821099 $308 $446 forward 7 unknown #
edge $-1 $314 -15.047398907561927 $445 1.9785632286268914e-014 $196 $447 forward 7 unknown #
coedge $-1 $197 $437 $443 $448 forward $312 $-1 #
loop $-1 $-1 $437 $300 #
vertex $-1 $309 $449 #
vertex $-1 $198 $450 #
straight-curve $-1 -77.032441440560774 8.2857080613754022 11.910024598924196 1 0 0 I I #
coedge $-1 $316 $316 $-1 $451 reversed $201 $-1 #
edge $-1 $452 0 $452 6.2831853071796004 $202 $453 forward 7 unknown #
vertex $-1 $205 $454 #
ellipse-curve $-1 -59.068631157667127 10.309669905423803 6.6836237351387524 -0.69465837861970381 0 0.71933979245794832 0.71933979245794832 0 0.69465837861970381 1 I I #
coedge $-1 $320 $320 $-1 $455 reversed $208 $-1 #
edge $-1 $456 0 $456 6.2831853071796004 $209 $457 forward 7 unknown #
vertex $-1 $212 $458 #
ellipse-curve $-1 -59.068631157667127 13.345612671496397 6.6836237351387524 -0.69465837861970381 0 0.71933979245794832 0.71933979245794832 0 0.69465837861970381 1 I I #
coedge $-1 $324 $324 $-1 $459 reversed $215 $-1 #
edge $-1 $460 0 $460 6.2831853071796004 $216 $461 forward 7 unknown #
vertex $-1 $219 $462 #
ellipse-curve $-1 -59.068631157667127 16.381555437568991 6.6836237351387524 -0.69465837861970381 0 0.71933979245794832 0.71933979245794832 0 0.69465837861970381 1 I I #
face $-1 $-1 $235 $33 $-1 $463 reversed single #
loop $-1 $-1 $344 $220 #
plane-surface $-1 0 32.378310464859297 0 0 -1 0 0 0 -1 forward_v I I I I #
coedge $-1 $464 $342 $345 $465 forward $221 $-1 #
coedge $-1 $348 $223 $224 $336 reversed $139 $-1 #
coedge $-1 $342 $464 $223 $334 reversed $221 $-1 #
edge $-1 $349 -11.910024598924194 $466 11.910024598924194 $333 $467 forward 7 unknown #
coedge $-1 $225 $224 $464 $468 forward $89 $-1 #
edge $-1 $340 -64.480727561265908 $466 64.480727561265908 $332 $469 forward 7 unknown #
coedge $-1 $345 $344 $225 $338 reversed $329 $-1 #
edge $-1 $470 -64.480727561265908 $339 64.480727561265908 $337 $471 forward 7 unknown #
vertex $-1 $227 $472 #
vertex $-1 $351 $473 #
straight-curve $-1 64.480727561265908 0 -11.910024598924194 0 -1 0 I I #
coedge $-1 $331 $333 $228 $343 reversed $221 $-1 #
edge $-1 $346 -32.378310464859297 $349 32.378310464859297 $342 $474 forward 7 unknown #
coedge $-1 $337 $229 $234 $352 forward $329 $-1 #
coedge $-1 $229 $337 $331 $465 reversed $329 $-1 #
vertex $-1 $230 $475 #
straight-curve $-1 0 32.378310464859297 11.910024598924194 -1 0 0 I I #
coedge $-1 $231 $332 $233 $351 reversed $139 $-1 #
vertex $-1 $343 $476 #
straight-curve $-1 0 -32.378310464859297 11.910024598924194 1 0 0 I I #
edge $-1 $236 -11.910024598924194 $340 11.910024598924194 $233 $477 forward 7 unknown #
edge $-1 $237 -11.910024598924194 $339 11.910024598924194 $234 $478 forward 7 unknown #
point $-1 64.480727561265908 -32.378310464859297 11.910024598924194 #
point $-1 64.480727561265908 32.378310464859297 11.910024598924194 #
face $-1 $-1 $369 $34 $-1 $479 reversed single #
loop $-1 $-1 $480 $239 #
plane-surface $-1 0 -41.401934223226931 -10.345950168807592 0 1 0 0 0 1 forward_v I I I I #
coedge $-1 $481 $242 $251 $373 reversed $147 $-1 #
coedge $-1 $242 $481 $243 $361 reversed $147 $-1 #
coedge $-1 $244 $243 $482 $483 forward $93 $-1 #
edge $-1 $365 32.378310464859297 $484 41.401934223226931 $359 $485 forward 7 unknown #
coedge $-1 $486 $248 $244 $363 reversed $369 $-1 #
edge $-1 $487 -41.401934223226931 $364 -32.378310464859297 $362 $488 forward 7 unknown #
vertex $-1 $249 $489 #
vertex $-1 $361 $490 #
straight-curve $-1 0 -32.378310464859297 -11.910024598924194 1 0 0 I I #
straight-curve $-1 64.480727561265908 -32.378310464859297 0 0 0 1 I I #
coedge $-1 $248 $486 $250 $372 reversed $369 $-1 #
loop $-1 $-1 $248 $355 #
straight-curve $-1 -64.480727561265908 -32.378310464859297 0 0 0 -1 I I #
coedge $-1 $251 $250 $491 $492 forward $240 $-1 #
edge $-1 $252 -4.5118118791838171 $493 4.5118118791838171 $368 $494 forward 7 unknown #
edge $-1 $495 -4.5118118791838171 $253 4.5118118791838171 $358 $496 forward 7 unknown #
point $-1 -64.480727561265908 -32.378310464859297 -8.7818757386909905 #
point $-1 64.480727561265908 -32.378310464859297 -8.7818757386909905 #
face $-1 $-1 $393 $35 $-1 $497 reversed single #
loop $-1 $-1 $389 $255 #
plane-surface $-1 -64.480727561265908 0 0 1 0 0 0 0 -1 forward_v I I I I #
coedge $-1 $396 $258 $259 $383 reversed $155 $-1 #
coedge $-1 $389 $498 $258 $381 forward $377 $-1 #
edge $-1 $499 -1.9541499119285293 $397 1.0458500880714707 $380 $500 forward 7 unknown #
coedge $-1 $260 $259 $498 $501 reversed $97 $-1 #
edge $-1 $386 -64.480727561265908 $499 64.480727561265908 $379 $502 forward 7 unknown #
coedge $-1 $392 $391 $260 $385 forward $393 $-1 #
edge $-1 $387 -64.480727561265908 $503 64.480727561265908 $384 $504 forward 7 unknown #
vertex $-1 $262 $505 #
vertex $-1 $385 $506 #
straight-curve $-1 64.480727561265908 13.670984859132162 -2.4082998238570585 0 1 0 I I #
coedge $-1 $507 $380 $263 $390 forward $377 $-1 #
edge $-1 $397 8.6346441125371847 $394 18.707325605727135 $389 $508 forward 7 unknown #
coedge $-1 $384 $264 $269 $400 forward $393 $-1 #
coedge $-1 $264 $384 $507 $509 reversed $393 $-1 #
loop $-1 $-1 $264 $376 #
vertex $-1 $509 $510 #
straight-curve $-1 0 32.378310464859297 0.59170017614294146 1 0 0 I I #
coedge $-1 $266 $379 $268 $399 reversed $155 $-1 #
vertex $-1 $390 $511 #
straight-curve $-1 0 22.305628971669346 0.59170017614294146 1 0 0 I I #
edge $-1 $271 -1.0458500880714707 $386 1.9541499119285293 $268 $512 forward 7 unknown #
edge $-1 $270 -0.59170017614294146 $387 2.4082998238570585 $269 $513 forward 7 unknown #
point $-1 64.480727561265908 32.378310464859297 0.59170017614294146 #
point $-1 64.480727561265908 22.305628971669346 0.59170017614294146 #
loop $-1 $-1 $281 $273 #
plane-surface $-1 64.480727561265908 0 0 -1 0 0 0 0 1 forward_v I I I I #
coedge $-1 $406 $276 $278 $410 reversed $163 $-1 #
coedge $-1 $276 $405 $514 $515 reversed $163 $-1 #
coedge $-1 $284 $279 $276 $408 forward $274 $-1 #
edge $-1 $411 10.984212277073276 $516 14.84058189707843 $407 $517 forward 7 unknown #
coedge $-1 $278 $277 $414 $518 reversed $101 $-1 #
edge $-1 $519 -128.96145512253185 $411 -122.06514138424869 $405 $520 forward 7 unknown #
vertex $-1 $280 $521 #
straight-curve $-1 60.624357941260747 -1.0592787182721253 11.910024598924196 0 -1 0 I I #
coedge $-1 $514 $281 $284 $418 reversed $403 $-1 #
coedge $-1 $281 $514 $409 $518 forward $403 $-1 #
vertex $-1 $282 $522 #
straight-curve $-1 64.480727561265908 4.3740944665538137 92.610471536674041 0 0 1 I I #
straight-curve $-1 -7.6336014208141734 4.3740944665538137 113.10661409126801 0.55919289150049634 0 -0.82903758062907751 I I #
edge $-1 $516 -8.6112093396423148 $285 4.3740944665538137 $413 $523 forward 7 unknown #
point $-1 64.480727561265908 4.3740944665538137 11.910024598924194 #
point $-1 60.624357941260755 4.3740944665538137 11.910024598924196 #
edge $-1 $524 1 $524 0 $288 $-1 forward 7 unknown #
vertex $-1 $289 $525 #
ellipse-curve $-1 61.025273714821388 -6.0141485784030912 8.0212170299962864 0.82903758062907751 0 0.55919289150049634 0.55919289150049634 0 -0.82903758062907751 1 I I #
point $-1 63.111735642763847 -6.0141485784030912 8.2223353898724731 #
edge $-1 $526 1 $526 0 $292 $-1 forward 7 unknown #
vertex $-1 $293 $527 #
ellipse-curve $-1 61.025273714821388 -2.1185574365442541 8.0212170299962864 0.82903758062907751 0 0.55919289150049634 0.55919289150049634 0 -0.82903758062907751 1 I I #
point $-1 63.111735642763847 -2.1185574365442541 8.2223353898724731 #
edge $-1 $528 1 $528 0 $296 $-1 forward 7 unknown #
vertex $-1 $297 $529 #
ellipse-curve $-1 61.025273714821388 1.7770337053145795 8.0212170299962864 0.82903758062907751 0 0.55919289150049634 0.55919289150049634 0 -0.82903758062907751 1 I I #
point $-1 63.111735642763847 1.7770337053145795 8.2223353898724731 #
plane-surface $-1 0 0 11.910024598924194 0 0 1 1 0 0 forward_v I I I I #
coedge $-1 $444 $443 $436 $530 forward $301 $-1 #
coedge $-1 $436 $303 $305 $440 reversed $192 $-1 #
coedge $-1 $303 $435 $434 $530 reversed $192 $-1 #
coedge $-1 $311 $306 $303 $438 forward $312 $-1 #
edge $-1 $441 -23.375906686492435 $531 -12.551713879294866 $437 $532 forward 7 unknown #
coedge $-1 $305 $304 $444 $533 reversed $120 $-1 #
edge $-1 $534 -1.9785632286268914e-014 $441 15.047398907561927 $435 $535 forward 7 unknown #
vertex $-1 $307 $536 #
straight-curve $-1 -53.656534754068332 6.6728063357481986 11.910024598924194 0 1 0 I I #
coedge $-1 $434 $308 $311 $448 reversed $301 $-1 #
coedge $-1 $308 $434 $439 $533 forward $301 $-1 #
vertex $-1 $309 $537 #
straight-curve $-1 -64.480727561265908 8.2857080613754022 47.112164617135186 0 0 1 I I #
straight-curve $-1 -64.480727561265894 8.2857080613754022 1.4572228713533235 -0.71933979245794832 0 -0.69465837861970381 I I #
edge $-1 $531 -18.405517281617392 $313 -8.2857080613754022 $443 $538 forward 7 unknown #
point $-1 -64.480727561265908 8.2857080613754022 11.910024598924194 #
point $-1 -53.656534754068339 8.2857080613754022 11.910024598924194 #
edge $-1 $539 1 $539 0 $316 $-1 forward 7 unknown #
vertex $-1 $317 $540 #
ellipse-curve $-1 -57.288196738537572 10.309669905423803 4.8399299642718603 -0.69465837861970381 0 0.71933979245794832 0.71933979245794832 0 0.69465837861970381 1 I I #
point $-1 -58.34929136520919 10.309669905423803 7.3782821137584698 #
edge $-1 $541 1 $541 0 $320 $-1 forward 7 unknown #
vertex $-1 $321 $542 #
ellipse-curve $-1 -57.288196738537572 13.345612671496397 4.8399299642718603 -0.69465837861970381 0 0.71933979245794832 0.71933979245794832 0 0.69465837861970381 1 I I #
point $-1 -58.34929136520919 13.345612671496397 7.3782821137584698 #
edge $-1 $543 1 $543 0 $324 $-1 forward 7 unknown #
vertex $-1 $325 $544 #
ellipse-curve $-1 -57.288196738537572 16.381555437568991 4.8399299642718603 -0.69465837861970381 0 0.71933979245794832 0.71933979245794832 0 0.69465837861970381 1 I I #
point $-1 -58.34929136520919 16.381555437568991 7.3782821137584698 #
plane-surface $-1 64.480727561265908 0 0 -1 0 0 0 0 1 forward_v I I I I #
coedge $-1 $333 $331 $335 $468 reversed $221 $-1 #
edge $-1 $346 -11.910024598924194 $470 11.910024598924194 $345 $545 forward 7 unknown #
vertex $-1 $468 $546 #
straight-curve $-1 -64.480727561265908 -32.378310464859297 0 0 0 -1 I I #
edge $-1 $466 -32.378310464859297 $470 32.378310464859297 $464 $547 forward 7 unknown #
straight-curve $-1 0 -32.378310464859297 -11.910024598924194 -1 0 0 I I #
vertex $-1 $338 $548 #
straight-curve $-1 0 32.378310464859297 -11.910024598924194 1 0 0 I I #
point $-1 64.480727561265908 32.378310464859297 -11.910024598924194 #
point $-1 64.480727561265908 -32.378310464859297 -11.910024598924194 #
straight-curve $-1 -64.480727561265908 0 11.910024598924194 0 -1 0 I I #
point $-1 -64.480727561265908 32.378310464859297 11.910024598924194 #
point $-1 -64.480727561265908 -32.378310464859297 11.910024598924194 #
straight-curve $-1 64.480727561265908 -32.378310464859297 0 0 0 -1 I I #
straight-curve $-1 64.480727561265908 32.378310464859297 0 0 0 -1 I I #
plane-surface $-1 -64.480727561265908 0 0 1 0 0 0 0 -1 forward_v I I I I #
coedge $-1 $482 $491 $486 $549 forward $356 $-1 #
coedge $-1 $359 $358 $550 $551 forward $147 $-1 #
coedge $-1 $550 $480 $360 $483 reversed $356 $-1 #
edge $-1 $484 -64.480727561265908 $487 64.480727561265908 $482 $552 forward 7 unknown #
vertex $-1 $551 $553 #
straight-curve $-1 64.480727561265908 0 -11.910024598924194 0 -1 0 I I #
coedge $-1 $368 $362 $480 $549 reversed $369 $-1 #
vertex $-1 $363 $554 #
straight-curve $-1 -64.480727561265908 0 -11.910024598924194 0 1 0 I I #
point $-1 -64.480727561265908 -32.378310464859297 -11.910024598924194 #
point $-1 64.480727561265908 -32.378310464859297 -11.910024598924194 #
coedge $-1 $480 $550 $371 $492 reversed $356 $-1 #
edge $-1 $493 -64.480727561265908 $495 64.480727561265908 $491 $555 forward 7 unknown #
vertex $-1 $372 $556 #
straight-curve $-1 -64.480727561265908 -36.890122344043114 -8.7818757386909905 0 -1 0 I I #
vertex $-1 $373 $557 #
straight-curve $-1 64.480727561265908 -36.890122344043114 -8.7818757386909905 0 1 0 I I #
plane-surface $-1 0 32.378310464859297 0 0 -1 0 0 0 -1 forward_v I I I I #
coedge $-1 $380 $507 $382 $501 forward $377 $-1 #
vertex $-1 $501 $558 #
straight-curve $-1 -64.480727561265908 22.305628971669346 -0.45414991192852927 0 0 1 I I #
edge $-1 $503 -18.707325605727135 $499 -8.6346441125371847 $498 $559 forward 7 unknown #
straight-curve $-1 0 22.305628971669346 -2.4082998238570585 -1 0 0 I I #
vertex $-1 $385 $560 #
straight-curve $-1 0 32.378310464859297 -2.4082998238570585 -1 0 0 I I #
point $-1 64.480727561265908 22.305628971669346 -2.4082998238570585 #
point $-1 64.480727561265908 32.378310464859297 -2.4082998238570585 #
coedge $-1 $498 $389 $392 $509 forward $377 $-1 #
straight-curve $-1 -64.480727561265908 13.670984859132162 0.59170017614294146 0 1 0 I I #
edge $-1 $394 -0.59170017614294146 $503 2.4082998238570585 $392 $561 forward 7 unknown #
point $-1 -64.480727561265908 32.378310464859297 0.59170017614294146 #
point $-1 -64.480727561265908 22.305628971669346 0.59170017614294146 #
straight-curve $-1 64.480727561265908 22.305628971669346 -0.45414991192852927 0 0 -1 I I #
straight-curve $-1 64.480727561265908 32.378310464859297 0 0 0 -1 I I #
coedge $-1 $414 $413 $406 $515 forward $403 $-1 #
edge $-1 $516 80.700446937749845 $519 86.417750194595186 $514 $562 forward 7 unknown #
vertex $-1 $418 $563 #
straight-curve $-1 49.640145664187479 -8.6112093396423148 11.910024598924196 1 0 0 I I #
edge $-1 $519 -7.5519306213701896 $415 5.433373184825939 $414 $564 forward 7 unknown #
vertex $-1 $518 $565 #
straight-curve $-1 -7.6336014208141734 -8.6112093396423148 113.10661409126801 -0.55919289150049634 0 0.82903758062907751 I I #
point $-1 60.624357941260755 -8.6112093396423148 11.910024598924196 #
point $-1 64.480727561265908 4.3740944665538137 6.1927213420788547 #
straight-curve $-1 64.480727561265908 0 11.910024598924194 0 1 0 I I #
vertex $-1 $421 $566 #
point $-1 61.584466606321882 -6.0141485784030912 7.1921794493672078 #
vertex $-1 $425 $567 #
point $-1 61.584466606321882 -2.1185574365442541 7.1921794493672078 #
vertex $-1 $429 $568 #
point $-1 61.584466606321882 1.7770337053145795 7.1921794493672078 #
edge $-1 $531 35.20214001821099 $534 45.654941745781876 $434 $569 forward 7 unknown #
vertex $-1 $448 $570 #
straight-curve $-1 -77.032441440560774 18.405517281617392 11.910024598924196 -1 0 0 I I #
edge $-1 $534 -11.732710945869194 $445 -1.6129017256272036 $444 $571 forward 7 unknown #
vertex $-1 $533 $572 #
straight-curve $-1 -64.480727561265894 18.405517281617392 1.4572228713533235 0.71933979245794832 0 0.69465837861970381 I I #
point $-1 -53.656534754068339 18.405517281617392 11.910024598924194 #
point $-1 -64.480727561265908 8.2857080613754022 1.4572228713533097 #
straight-curve $-1 -64.480727561265908 0 11.910024598924194 0 -1 0 I I #
vertex $-1 $451 $573 #
point $-1 -56.56885694607962 10.309669905423803 5.5345883428915643 #
vertex $-1 $455 $574 #
point $-1 -56.56885694607962 13.345612671496397 5.5345883428915643 #
vertex $-1 $459 $575 #
point $-1 -56.56885694607962 16.381555437568991 5.5345883428915643 #
straight-curve $-1 -64.480727561265908 32.378310464859297 0 0 0 -1 I I #
point $-1 -64.480727561265908 -32.378310464859297 -11.910024598924194 #
straight-curve $-1 -64.480727561265908 0 -11.910024598924194 0 1 0 I I #
point $-1 -64.480727561265908 32.378310464859297 -11.910024598924194 #
edge $-1 $493 -1.5640744301166016 $487 1.5640744301166016 $486 $576 forward 7 unknown #
coedge $-1 $491 $482 $481 $551 reversed $356 $-1 #
edge $-1 $495 -1.5640744301166016 $484 1.5640744301166016 $481 $577 forward 7 unknown #
straight-curve $-1 0 -41.401934223226931 -11.910024598924194 -1 0 0 I I #
point $-1 64.480727561265908 -41.401934223226931 -11.910024598924194 #
point $-1 -64.480727561265908 -41.401934223226931 -11.910024598924194 #
straight-curve $-1 0 -41.401934223226931 -8.7818757386909905 1 0 0 I I #
point $-1 -64.480727561265908 -41.401934223226931 -8.7818757386909905 #
point $-1 64.480727561265908 -41.401934223226931 -8.7818757386909905 #
point $-1 -64.480727561265908 22.305628971669346 -2.4082998238570585 #
straight-curve $-1 -64.480727561265908 13.670984859132162 -2.4082998238570585 0 -1 0 I I #
point $-1 -64.480727561265908 32.378310464859297 -2.4082998238570585 #
straight-curve $-1 -64.480727561265908 32.378310464859297 0 0 0 -1 I I #
straight-curve $-1 64.480727561265908 -8.6112093396423148 92.610471536674041 0 0 -1 I I #
point $-1 64.480727561265908 -8.6112093396423148 11.910024598924194 #
straight-curve $-1 64.480727561265923 -1.0592787182721253 6.1927213420788547 0 1 0 I I #
point $-1 64.480727561265908 -8.6112093396423148 6.1927213420788547 #
point $-1 60.196236134192311 -6.0141485784030912 7.4620241384957895 #
point $-1 60.196236134192311 -2.1185574365442541 7.4620241384957895 #
point $-1 60.196236134192311 1.7770337053145795 7.4620241384957895 #
straight-curve $-1 -64.480727561265908 18.405517281617392 47.112164617135186 0 0 -1 I I #
point $-1 -64.480727561265908 18.405517281617392 11.910024598924194 #
straight-curve $-1 -64.480727561265908 6.6728063357481986 1.4572228713533026 0 -1 0 I I #
point $-1 -64.480727561265908 18.405517281617392 1.4572228713533097 #
point $-1 -56.593538359917865 10.309669905423803 4.1205901718139124 #
point $-1 -56.593538359917865 13.345612671496397 4.1205901718139124 #
point $-1 -56.593538359917865 16.381555437568991 4.1205901718139124 #
straight-curve $-1 -64.480727561265908 -41.401934223226931 -10.345950168807592 0 0 -1 I I #
straight-curve $-1 64.480727561265908 -41.401934223226931 -10.345950168807592 0 0 -1 I I #
End-of-ACIS-data 