500 0 8 0           
7 Unknown 11 ACIS 5.0 NT 24 Fri Mar 26 15:51:58 1999 
-1 9.9999999999999995e-007 1e-010 
body $-1 $8 $-1 $9 #
body $-1 $10 $-1 $11 #
body $-1 $12 $-1 $13 #
body $-1 $14 $-1 $15 #
body $-1 $16 $-1 $17 #
body $-1 $18 $-1 $19 #
body $-1 $20 $-1 $21 #
body $-1 $22 $-1 $23 #
lump $-1 $-1 $24 $0 #
transform $-1 1 0 0 0 1 0 0 0 1 71.468245490890226 42.625321867380826 10.723780124696818 1 rotate no_reflect no_shear #
lump $-1 $-1 $25 $1 #
transform $-1 1 0 0 0 1 0 0 0 1 71.468245490890226 42.625321867380826 10.723780124696818 1 rotate no_reflect no_shear #
lump $-1 $-1 $26 $2 #
transform $-1 1 0 0 0 1 0 0 0 1 71.468245490890226 42.625321867380826 10.723780124696818 1 rotate no_reflect no_shear #
lump $-1 $-1 $27 $3 #
transform $-1 1 0 0 0 1 0 0 0 1 71.468245490890226 42.625321867380826 10.723780124696818 1 rotate no_reflect no_shear #
lump $-1 $-1 $28 $4 #
transform $-1 1 0 0 0 1 0 0 0 1 71.468245490890226 42.625321867380826 10.723780124696818 1 rotate no_reflect no_shear #
lump $-1 $-1 $29 $5 #
transform $-1 1 0 0 0 1 0 0 0 1 71.468245490890226 42.625321867380826 10.723780124696818 1 rotate no_reflect no_shear #
lump $-1 $-1 $30 $6 #
transform $-1 1 0 0 0 1 0 0 0 1 71.468245490890226 42.625321867380826 10.723780124696818 1 rotate no_reflect no_shear #
lump $-1 $-1 $31 $7 #
transform $-1 1 0 0 0 1 0 0 0 1 71.468245490890226 42.625321867380826 10.723780124696818 1 rotate no_reflect no_shear #
shell $-1 $-1 $-1 $32 $-1 $8 #
shell $-1 $-1 $-1 $33 $-1 $10 #
shell $-1 $-1 $-1 $34 $-1 $12 #
shell $-1 $-1 $-1 $35 $-1 $14 #
shell $-1 $-1 $-1 $36 $-1 $16 #
shell $-1 $-1 $-1 $37 $-1 $18 #
shell $-1 $-1 $-1 $38 $-1 $20 #
shell $-1 $-1 $-1 $39 $-1 $22 #
face $-1 $40 $41 $24 $-1 $42 forward single #
face $-1 $43 $44 $25 $-1 $45 reversed single #
face $-1 $46 $47 $26 $-1 $48 reversed single #
face $-1 $49 $50 $27 $-1 $51 forward single #
face $-1 $52 $53 $28 $-1 $54 forward single #
face $-1 $55 $56 $29 $-1 $57 reversed single #
face $-1 $58 $59 $30 $-1 $60 forward single #
face $-1 $61 $62 $31 $-1 $63 forward single #
face $-1 $64 $65 $24 $-1 $66 reversed single #
loop $-1 $-1 $67 $32 #
plane-surface $-1 0 0 10.723780124696818 0 0 1 1 0 0 forward_v I I I I #
face $-1 $68 $69 $25 $-1 $70 reversed single #
loop $-1 $-1 $71 $33 #
plane-surface $-1 -66.910954757096945 0 7.7237801246968179 0 0 1 1 0 0 forward_v I I I I #
face $-1 $72 $73 $26 $-1 $74 reversed single #
loop $-1 $-1 $75 $34 #
plane-surface $-1 -31.980480500531051 69.197347031635047 171.4727971049183 1 0 0 0 -0.64278761758704617 -0.76604443648966558 forward_v I I I I #
face $-1 $76 $77 $27 $-1 $78 forward single #
loop $-1 $79 $80 $35 #
cone-surface $-1 -27.887800448474465 39.65400690434199 7.9275915221003341 0 -0.64278761758704617 -0.76604443648966558 1 0 0 1 I I 0 1 1 forward I I I I #
face $-1 $81 $82 $28 $-1 $83 forward single #
loop $-1 $84 $85 $36 #
cone-surface $-1 -21.748780370389582 39.65400690434199 7.9275915221003341 0 -0.64278761758704617 -0.76604443648966558 1 0 0 1 I I 0 1 1 forward I I I I #
face $-1 $86 $87 $29 $-1 $88 reversed single #
loop $-1 $-1 $89 $37 #
plane-surface $-1 34.930474256565894 69.197347031635047 171.4727971049183 1 0 0 0 -0.64278761758704617 -0.76604443648966558 forward_v I I I I #
face $-1 $90 $91 $30 $-1 $92 forward single #
loop $-1 $93 $94 $38 #
cone-surface $-1 39.02315430862248 39.65400690434199 7.9275915221003341 0 -0.64278761758704617 -0.76604443648966558 1 0 0 1 I I 0 1 1 forward I I I I #
face $-1 $95 $96 $31 $-1 $97 forward single #
loop $-1 $98 $99 $39 #
cone-surface $-1 45.162174386707363 39.65400690434199 7.9275915221003341 0 -0.64278761758704617 -0.76604443648966558 1 0 0 1 I I 0 1 1 forward I I I I #
face $-1 $100 $101 $24 $-1 $102 reversed single #
loop $-1 $-1 $103 $40 #
plane-surface $-1 0 0 -10.723780124696818 0 0 1 1 0 0 forward_v I I I I #
coedge $-1 $104 $105 $106 $107 forward $41 $-1 #
face $-1 $108 $109 $25 $-1 $110 reversed single #
loop $-1 $-1 $111 $43 #
plane-surface $-1 -62.353664023303665 0 9.2237801246968179 -1 0 0 0 0 1 forward_v I I I I #
coedge $-1 $112 $113 $114 $115 forward $44 $-1 #
face $-1 $116 $117 $26 $-1 $118 reversed single #
loop $-1 $-1 $119 $46 #
plane-surface $-1 -24.818290409432024 -22.680459472795917 61.977093416970121 0 0.64278761758704617 0.76604443648966558 1 0 0 forward_v I I I I #
coedge $-1 $120 $121 $122 $123 reversed $47 $-1 #
face $-1 $-1 $124 $27 $-1 $125 forward single #
loop $-1 $126 $127 $49 #
cone-surface $-1 -27.887800448474465 38.473529318059242 6.5207531471370981 0 -0.64278761758704617 -0.76604443648966558 0.5 0 0 1 I I -0.70710678118654746 0.70710678118654746 0.5 forward I I I I #
loop $-1 $-1 $128 $35 #
coedge $-1 $80 $80 $129 $130 reversed $50 $-1 #
face $-1 $-1 $131 $28 $-1 $132 forward single #
loop $-1 $133 $134 $52 #
cone-surface $-1 -21.748780370389582 38.473529318059242 6.5207531471370981 0 -0.64278761758704617 -0.76604443648966558 0.5 0 0 1 I I -0.70710678118654746 0.70710678118654746 0.5 forward I I I I #
loop $-1 $-1 $135 $36 #
coedge $-1 $85 $85 $136 $137 reversed $53 $-1 #
face $-1 $138 $139 $29 $-1 $140 reversed single #
loop $-1 $-1 $141 $55 #
plane-surface $-1 42.092664347664922 -22.680459472795917 61.977093416970121 0 0.64278761758704617 0.76604443648966558 1 0 0 forward_v I I I I #
coedge $-1 $142 $143 $144 $145 reversed $56 $-1 #
face $-1 $-1 $146 $30 $-1 $147 forward single #
loop $-1 $148 $149 $58 #
cone-surface $-1 39.02315430862248 38.473529318059242 6.5207531471370981 0 -0.64278761758704617 -0.76604443648966558 0.5 0 0 1 I I -0.70710678118654746 0.70710678118654746 0.5 forward I I I I #
loop $-1 $-1 $150 $38 #
coedge $-1 $94 $94 $151 $152 reversed $59 $-1 #
face $-1 $-1 $153 $31 $-1 $154 forward single #
loop $-1 $155 $156 $61 #
cone-surface $-1 45.162174386707363 38.473529318059242 6.5207531471370981 0 -0.64278761758704617 -0.76604443648966558 0.5 0 0 1 I I -0.70710678118654746 0.70710678118654746 0.5 forward I I I I #
loop $-1 $-1 $157 $39 #
coedge $-1 $99 $99 $158 $159 reversed $62 $-1 #
face $-1 $160 $161 $24 $-1 $162 reversed single #
loop $-1 $-1 $163 $64 #
plane-surface $-1 0 -42.625321867380826 0 0 1 0 0 0 1 forward_v I I I I #
coedge $-1 $164 $165 $166 $167 forward $65 $-1 #
coedge $-1 $168 $67 $169 $170 forward $41 $-1 #
coedge $-1 $67 $168 $171 $172 forward $41 $-1 #
coedge $-1 $173 $174 $67 $107 reversed $175 $-1 #
edge $-1 $176 -42.625321867380826 $177 42.625321867380826 $106 $178 forward 7 unknown #
face $-1 $179 $180 $25 $-1 $181 reversed single #
loop $-1 $-1 $182 $68 #
plane-surface $-1 0 42.625321867380826 0 0 -1 0 0 0 -1 forward_v I I I I #
coedge $-1 $114 $183 $184 $185 reversed $69 $-1 #
coedge $-1 $186 $71 $187 $188 reversed $44 $-1 #
coedge $-1 $71 $186 $189 $190 reversed $44 $-1 #
coedge $-1 $191 $111 $71 $115 reversed $69 $-1 #
edge $-1 $192 -42.625321867380826 $193 42.625321867380826 $114 $194 forward 7 unknown #
face $-1 $195 $196 $26 $-1 $197 forward single #
loop $-1 $-1 $198 $72 #
plane-surface $-1 -17.656100318332996 69.197347031635047 171.4727971049183 -1 0 0 0 0.64278761758704617 0.76604443648966558 forward_v I I I I #
coedge $-1 $199 $200 $201 $202 reversed $73 $-1 #
coedge $-1 $121 $75 $203 $204 reversed $47 $-1 #
coedge $-1 $75 $120 $199 $205 reversed $47 $-1 #
coedge $-1 $201 $206 $75 $123 forward $196 $-1 #
edge $-1 $207 -8.0266483515633027 $208 -3.8021859804640812 $122 $209 forward 7 unknown #
loop $-1 $-1 $129 $76 #
plane-surface $-1 -24.818290409432024 -22.680459472795917 61.977093416970121 0 0.64278761758704617 0.76604443648966558 1 0 0 forward_v I I I I #
loop $-1 $-1 $210 $49 #
coedge $-1 $127 $127 $128 $211 reversed $77 $-1 #
coedge $-1 $128 $128 $127 $211 forward $79 $-1 #
coedge $-1 $129 $129 $80 $130 forward $124 $-1 #
edge $-1 $212 2.8934049268656307e-015 $212 6.2831853071796031 $129 $213 forward 7 unknown #
loop $-1 $-1 $136 $81 #
plane-surface $-1 -24.818290409432024 -22.680459472795917 61.977093416970121 0 0.64278761758704617 0.76604443648966558 1 0 0 forward_v I I I I #
loop $-1 $-1 $214 $52 #
coedge $-1 $134 $134 $135 $215 reversed $82 $-1 #
coedge $-1 $135 $135 $134 $215 forward $84 $-1 #
coedge $-1 $136 $136 $85 $137 forward $131 $-1 #
edge $-1 $216 2.8934049268656307e-015 $216 6.2831853071796031 $136 $217 forward 7 unknown #
face $-1 $218 $219 $29 $-1 $220 forward single #
loop $-1 $-1 $221 $86 #
plane-surface $-1 49.25485443876395 69.197347031635047 171.4727971049183 -1 0 0 0 0.64278761758704617 0.76604443648966558 forward_v I I I I #
coedge $-1 $222 $223 $224 $225 reversed $87 $-1 #
coedge $-1 $143 $89 $226 $227 reversed $56 $-1 #
coedge $-1 $89 $142 $222 $228 reversed $56 $-1 #
coedge $-1 $224 $229 $89 $145 forward $219 $-1 #
edge $-1 $230 -8.0266483515633027 $231 -3.8021859804640812 $144 $232 forward 7 unknown #
loop $-1 $-1 $151 $90 #
plane-surface $-1 42.092664347664922 -22.680459472795917 61.977093416970121 0 0.64278761758704617 0.76604443648966558 1 0 0 forward_v I I I I #
loop $-1 $-1 $233 $58 #
coedge $-1 $149 $149 $150 $234 reversed $91 $-1 #
coedge $-1 $150 $150 $149 $234 forward $93 $-1 #
coedge $-1 $151 $151 $94 $152 forward $146 $-1 #
edge $-1 $235 2.8934049268656307e-015 $235 6.2831853071796031 $151 $236 forward 7 unknown #
loop $-1 $-1 $158 $95 #
plane-surface $-1 42.092664347664922 -22.680459472795917 61.977093416970121 0 0.64278761758704617 0.76604443648966558 1 0 0 forward_v I I I I #
loop $-1 $-1 $237 $61 #
coedge $-1 $156 $156 $157 $238 reversed $96 $-1 #
coedge $-1 $157 $157 $156 $238 forward $98 $-1 #
coedge $-1 $158 $158 $99 $159 forward $153 $-1 #
edge $-1 $239 2.8934049268656307e-015 $239 6.2831853071796031 $158 $240 forward 7 unknown #
face $-1 $241 $242 $24 $-1 $243 reversed single #
loop $-1 $-1 $244 $100 #
plane-surface $-1 -71.468245490890226 0 0 1 0 0 0 0 -1 forward_v I I I I #
coedge $-1 $245 $171 $246 $247 forward $101 $-1 #
coedge $-1 $248 $103 $245 $249 forward $65 $-1 #
coedge $-1 $103 $248 $250 $251 forward $65 $-1 #
coedge $-1 $174 $173 $103 $167 reversed $175 $-1 #
edge $-1 $252 -42.625321867380826 $253 42.625321867380826 $166 $254 forward 7 unknown #
coedge $-1 $105 $104 $255 $256 forward $41 $-1 #
coedge $-1 $257 $258 $104 $170 reversed $242 $-1 #
edge $-1 $177 -71.468245490890226 $259 71.468245490890226 $169 $260 forward 7 unknown #
coedge $-1 $163 $261 $105 $172 reversed $101 $-1 #
edge $-1 $262 -71.468245490890226 $176 71.468245490890226 $171 $263 forward 7 unknown #
coedge $-1 $166 $106 $261 $264 forward $175 $-1 #
coedge $-1 $106 $166 $257 $265 reversed $175 $-1 #
loop $-1 $-1 $173 $241 #
vertex $-1 $107 $266 #
vertex $-1 $107 $267 #
straight-curve $-1 71.468245490890226 0 10.723780124696818 0 1 0 I I #
face $-1 $268 $269 $25 $-1 $270 forward single #
loop $-1 $-1 $271 $108 #
plane-surface $-1 -71.468245490890226 0 0 1 0 0 0 0 -1 forward_v I I I I #
coedge $-1 $189 $272 $191 $273 forward $109 $-1 #
coedge $-1 $111 $191 $274 $275 reversed $69 $-1 #
coedge $-1 $276 $187 $111 $185 forward $277 $-1 #
edge $-1 $193 3.1118900623484089 $278 6.1118900623484089 $184 $279 forward 7 unknown #
coedge $-1 $113 $112 $271 $280 reversed $44 $-1 #
coedge $-1 $184 $281 $112 $188 forward $277 $-1 #
edge $-1 $282 -38.012768112341753 $193 -28.898186644755192 $187 $283 forward 7 unknown #
coedge $-1 $284 $182 $113 $190 forward $109 $-1 #
edge $-1 $192 28.898186644755192 $285 38.012768112341753 $189 $286 forward 7 unknown #
coedge $-1 $183 $114 $182 $273 reversed $69 $-1 #
vertex $-1 $190 $287 #
vertex $-1 $188 $288 #
straight-curve $-1 -62.353664023303665 0 7.7237801246968179 0 -1 0 I I #
face $-1 $-1 $289 $26 $-1 $290 reversed single #
loop $-1 $-1 $122 $116 #
plane-surface $-1 0 0 10.723780124696818 0 0 1 1 0 0 forward_v I I I I #
coedge $-1 $291 $292 $293 $294 reversed $117 $-1 #
coedge $-1 $295 $119 $121 $205 forward $73 $-1 #
coedge $-1 $119 $295 $291 $296 forward $73 $-1 #
coedge $-1 $293 $122 $119 $202 forward $196 $-1 #
edge $-1 $208 -19.57133529581504 $297 -5.2469551136169841 $201 $298 forward 7 unknown #
coedge $-1 $299 $300 $120 $204 forward $289 $-1 #
edge $-1 $301 -78.557363319518515 $207 -75.012618427762334 $203 $302 forward 7 unknown #
edge $-1 $208 79.73599971429536 $301 85.250643734761667 $121 $303 forward 7 unknown #
coedge $-1 $122 $293 $299 $304 forward $196 $-1 #
vertex $-1 $204 $305 #
vertex $-1 $123 $306 #
straight-curve $-1 -31.980480500531051 34.598673515817524 10.723780124696816 0 -1 0 I I #
coedge $-1 $210 $210 $-1 $307 reversed $126 $-1 #
edge $-1 $308 0 $308 6.2831853071796004 $127 $309 forward 7 unknown #
vertex $-1 $130 $310 #
ellipse-curve $-1 -27.887800448474465 40.513090681831208 8.9514076788187253 0 0.64278761758704617 0.76604443648966558 1 0 0 1 I I #
coedge $-1 $214 $214 $-1 $311 reversed $133 $-1 #
edge $-1 $312 0 $312 6.2831853071796004 $134 $313 forward 7 unknown #
vertex $-1 $137 $314 #
ellipse-curve $-1 -21.748780370389582 40.513090681831208 8.9514076788187253 0 0.64278761758704617 0.76604443648966558 1 0 0 1 I I #
face $-1 $-1 $315 $29 $-1 $316 reversed single #
loop $-1 $-1 $144 $138 #
plane-surface $-1 0 0 10.723780124696818 0 0 1 1 0 0 forward_v I I I I #
coedge $-1 $317 $318 $319 $320 reversed $139 $-1 #
coedge $-1 $321 $141 $143 $228 forward $87 $-1 #
coedge $-1 $141 $321 $317 $322 forward $87 $-1 #
coedge $-1 $319 $144 $141 $225 forward $219 $-1 #
edge $-1 $231 13.884142082733433 $323 28.208522264931489 $224 $324 forward 7 unknown #
coedge $-1 $325 $326 $142 $227 forward $315 $-1 #
edge $-1 $327 -78.557363319518515 $230 -75.012618427762334 $226 $328 forward 7 unknown #
edge $-1 $231 79.73599971429536 $327 85.250643734761667 $143 $329 forward 7 unknown #
coedge $-1 $144 $319 $325 $330 forward $219 $-1 #
vertex $-1 $145 $331 #
vertex $-1 $145 $332 #
straight-curve $-1 34.930474256565894 34.598673515817524 10.723780124696816 0 -1 0 I I #
coedge $-1 $233 $233 $-1 $333 reversed $148 $-1 #
edge $-1 $334 0 $334 6.2831853071796004 $149 $335 forward 7 unknown #
vertex $-1 $152 $336 #
ellipse-curve $-1 39.02315430862248 40.513090681831208 8.9514076788187253 0 0.64278761758704617 0.76604443648966558 1 0 0 1 I I #
coedge $-1 $237 $237 $-1 $337 reversed $155 $-1 #
edge $-1 $338 0 $338 6.2831853071796004 $156 $339 forward 7 unknown #
vertex $-1 $159 $340 #
ellipse-curve $-1 45.162174386707363 40.513090681831208 8.9514076788187253 0 0.64278761758704617 0.76604443648966558 1 0 0 1 I I #
face $-1 $-1 $175 $24 $-1 $341 reversed single #
loop $-1 $-1 $257 $160 #
plane-surface $-1 0 42.625321867380826 0 0 -1 0 0 0 -1 forward_v I I I I #
coedge $-1 $342 $255 $258 $343 forward $161 $-1 #
coedge $-1 $261 $163 $164 $249 reversed $101 $-1 #
coedge $-1 $255 $342 $163 $247 reversed $161 $-1 #
edge $-1 $262 -10.723780124696818 $344 10.723780124696818 $246 $345 forward 7 unknown #
coedge $-1 $165 $164 $342 $346 forward $65 $-1 #
edge $-1 $253 -71.468245490890226 $344 71.468245490890226 $245 $347 forward 7 unknown #
coedge $-1 $258 $257 $165 $251 reversed $242 $-1 #
edge $-1 $348 -71.468245490890226 $252 71.468245490890226 $250 $349 forward 7 unknown #
vertex $-1 $167 $350 #
vertex $-1 $264 $351 #
straight-curve $-1 71.468245490890226 0 -10.723780124696818 0 -1 0 I I #
coedge $-1 $244 $246 $168 $256 reversed $161 $-1 #
edge $-1 $259 -42.625321867380826 $262 42.625321867380826 $255 $352 forward 7 unknown #
coedge $-1 $250 $169 $174 $265 forward $242 $-1 #
coedge $-1 $169 $250 $244 $343 reversed $242 $-1 #
vertex $-1 $170 $353 #
straight-curve $-1 0 42.625321867380826 10.723780124696818 -1 0 0 I I #
coedge $-1 $171 $245 $173 $264 reversed $101 $-1 #
vertex $-1 $256 $354 #
straight-curve $-1 0 -42.625321867380826 10.723780124696818 1 0 0 I I #
edge $-1 $176 -10.723780124696818 $253 10.723780124696818 $173 $355 forward 7 unknown #
edge $-1 $177 -10.723780124696818 $252 10.723780124696818 $174 $356 forward 7 unknown #
point $-1 71.468245490890226 -42.625321867380826 10.723780124696818 #
point $-1 71.468245490890226 42.625321867380826 10.723780124696818 #
face $-1 $-1 $277 $25 $-1 $357 reversed single #
loop $-1 $-1 $274 $179 #
plane-surface $-1 0 0 10.723780124696818 0 0 1 1 0 0 forward_v I I I I #
coedge $-1 $358 $359 $186 $280 forward $180 $-1 #
coedge $-1 $182 $284 $360 $361 reversed $109 $-1 #
edge $-1 $362 -6.1118900623484089 $192 -3.1118900623484089 $182 $363 forward 7 unknown #
coedge $-1 $360 $364 $183 $275 forward $269 $-1 #
edge $-1 $278 -42.625321867380826 $362 42.625321867380826 $274 $365 forward 7 unknown #
coedge $-1 $281 $184 $364 $366 reversed $277 $-1 #
loop $-1 $-1 $184 $268 #
vertex $-1 $185 $367 #
straight-curve $-1 -62.353664023303665 -42.625321867380826 4.6118900623484089 0 0 1 I I #
edge $-1 $285 -42.625321867380826 $282 42.625321867380826 $271 $368 forward 7 unknown #
coedge $-1 $187 $276 $358 $369 forward $277 $-1 #
vertex $-1 $280 $370 #
straight-curve $-1 -33.455477378548473 -42.625321867380826 7.7237801246968179 1 0 0 I I #
coedge $-1 $272 $189 $359 $371 reversed $109 $-1 #
vertex $-1 $280 $372 #
straight-curve $-1 -33.455477378548473 42.625321867380826 7.7237801246968179 -1 0 0 I I #
point $-1 -62.353664023303665 42.625321867380826 7.7237801246968179 #
point $-1 -62.353664023303665 -42.625321867380826 7.7237801246968179 #
loop $-1 $-1 $203 $195 #
plane-surface $-1 0 42.625321867380826 0 0 -1 0 0 0 -1 forward_v I I I I #
coedge $-1 $292 $198 $200 $296 reversed $117 $-1 #
coedge $-1 $198 $291 $373 $374 reversed $117 $-1 #
coedge $-1 $206 $201 $198 $294 forward $196 $-1 #
edge $-1 $297 3.8021859804640812 $375 8.0266483515633027 $293 $376 forward 7 unknown #
coedge $-1 $200 $199 $300 $377 reversed $73 $-1 #
edge $-1 $378 -85.250643734761667 $297 -79.73599971429536 $291 $379 forward 7 unknown #
vertex $-1 $202 $380 #
straight-curve $-1 -12.409145204716012 38.400859496281605 10.723780124696816 1 0 0 I I #
coedge $-1 $373 $203 $206 $304 reversed $289 $-1 #
coedge $-1 $203 $373 $295 $377 forward $289 $-1 #
vertex $-1 $204 $381 #
straight-curve $-1 -31.980480500531051 42.625321867380826 85.73639855245915 0 0 1 I I #
straight-curve $-1 -31.980480500531051 -22.680459472795917 61.977093416970121 0 0.76604443648966558 -0.64278761758704617 I I #
edge $-1 $375 17.656100318332996 $207 31.980480500531051 $299 $382 forward 7 unknown #
point $-1 -31.980480500531051 42.625321867380826 10.723780124696818 #
point $-1 -31.980480500531051 38.400859496281605 10.723780124696809 #
edge $-1 $383 1 $383 0 $210 $-1 forward 7 unknown #
vertex $-1 $211 $384 #
ellipse-curve $-1 -27.887800448474465 38.794923126852765 6.9037753653819305 0 0.64278761758704617 0.76604443648966558 1 0 0 1 I I #
point $-1 -26.887800448474465 40.513090681831223 8.9514076788187378 #
edge $-1 $385 1 $385 0 $214 $-1 forward 7 unknown #
vertex $-1 $215 $386 #
ellipse-curve $-1 -21.748780370389582 38.794923126852765 6.9037753653819305 0 0.64278761758704617 0.76604443648966558 1 0 0 1 I I #
point $-1 -20.748780370389582 40.513090681831223 8.9514076788187378 #
loop $-1 $-1 $226 $218 #
plane-surface $-1 0 42.625321867380826 0 0 -1 0 0 0 -1 forward_v I I I I #
coedge $-1 $318 $221 $223 $322 reversed $139 $-1 #
coedge $-1 $221 $317 $387 $388 reversed $139 $-1 #
coedge $-1 $229 $224 $221 $320 forward $219 $-1 #
edge $-1 $323 3.8021859804640812 $389 8.0266483515633027 $319 $390 forward 7 unknown #
coedge $-1 $223 $222 $326 $391 reversed $87 $-1 #
edge $-1 $392 -85.250643734761667 $323 -79.73599971429536 $317 $393 forward 7 unknown #
vertex $-1 $225 $394 #
straight-curve $-1 21.046332173832461 38.400859496281605 10.723780124696816 1 0 0 I I #
coedge $-1 $387 $226 $229 $330 reversed $315 $-1 #
coedge $-1 $226 $387 $321 $391 forward $315 $-1 #
vertex $-1 $227 $395 #
straight-curve $-1 34.930474256565894 42.625321867380826 85.73639855245915 0 0 1 I I #
straight-curve $-1 34.930474256565894 -22.680459472795917 61.977093416970121 0 0.76604443648966558 -0.64278761758704617 I I #
edge $-1 $389 -49.25485443876395 $230 -34.930474256565894 $325 $396 forward 7 unknown #
point $-1 34.930474256565894 42.625321867380826 10.723780124696818 #
point $-1 34.930474256565894 38.400859496281605 10.723780124696809 #
edge $-1 $397 1 $397 0 $233 $-1 forward 7 unknown #
vertex $-1 $234 $398 #
ellipse-curve $-1 39.02315430862248 38.794923126852765 6.9037753653819305 0 0.64278761758704617 0.76604443648966558 1 0 0 1 I I #
point $-1 40.02315430862248 40.513090681831223 8.9514076788187378 #
edge $-1 $399 1 $399 0 $237 $-1 forward 7 unknown #
vertex $-1 $238 $400 #
ellipse-curve $-1 45.162174386707363 38.794923126852765 6.9037753653819305 0 0.64278761758704617 0.76604443648966558 1 0 0 1 I I #
point $-1 46.162174386707363 40.513090681831223 8.9514076788187378 #
plane-surface $-1 71.468245490890226 0 0 -1 0 0 0 0 1 forward_v I I I I #
coedge $-1 $246 $244 $248 $346 reversed $161 $-1 #
edge $-1 $259 -10.723780124696818 $348 10.723780124696818 $258 $401 forward 7 unknown #
vertex $-1 $346 $402 #
straight-curve $-1 -71.468245490890226 -42.625321867380826 0 0 0 -1 I I #
edge $-1 $344 -42.625321867380826 $348 42.625321867380826 $342 $403 forward 7 unknown #
straight-curve $-1 0 -42.625321867380826 -10.723780124696818 -1 0 0 I I #
vertex $-1 $251 $404 #
straight-curve $-1 0 42.625321867380826 -10.723780124696818 1 0 0 I I #
point $-1 71.468245490890226 42.625321867380826 -10.723780124696818 #
point $-1 71.468245490890226 -42.625321867380826 -10.723780124696818 #
straight-curve $-1 -71.468245490890226 0 10.723780124696818 0 -1 0 I I #
point $-1 -71.468245490890226 42.625321867380826 10.723780124696818 #
point $-1 -71.468245490890226 -42.625321867380826 10.723780124696818 #
straight-curve $-1 71.468245490890226 -42.625321867380826 0 0 0 -1 I I #
straight-curve $-1 71.468245490890226 42.625321867380826 0 0 0 -1 I I #
plane-surface $-1 0 -42.625321867380826 0 0 1 0 0 0 1 forward_v I I I I #
coedge $-1 $405 $271 $281 $369 reversed $180 $-1 #
coedge $-1 $271 $405 $284 $371 forward $180 $-1 #
coedge $-1 $406 $274 $272 $361 forward $269 $-1 #
edge $-1 $362 62.353664023303665 $407 71.468245490890226 $272 $408 forward 7 unknown #
vertex $-1 $361 $409 #
straight-curve $-1 -62.353664023303665 42.625321867380826 4.6118900623484089 0 0 -1 I I #
coedge $-1 $274 $406 $276 $366 forward $269 $-1 #
straight-curve $-1 -62.353664023303665 0 10.723780124696818 0 1 0 I I #
edge $-1 $410 -71.468245490890226 $278 -62.353664023303665 $276 $411 forward 7 unknown #
point $-1 -62.353664023303665 -42.625321867380826 10.723780124696818 #
straight-curve $-1 -71.468245490890226 0 7.7237801246968179 0 -1 0 I I #
edge $-1 $410 -10.723780124696818 $282 -7.7237801246968179 $358 $412 forward 7 unknown #
point $-1 -71.468245490890226 -42.625321867380826 7.7237801246968179 #
edge $-1 $407 -10.723780124696818 $285 -7.7237801246968179 $284 $413 forward 7 unknown #
point $-1 -71.468245490890226 42.625321867380826 7.7237801246968179 #
coedge $-1 $300 $299 $292 $374 forward $289 $-1 #
edge $-1 $375 75.012618427762334 $378 78.557363319518515 $373 $414 forward 7 unknown #
vertex $-1 $304 $415 #
straight-curve $-1 -17.656100318332996 34.598673515817524 10.723780124696816 0 1 0 I I #
edge $-1 $378 5.2469551136169841 $301 19.57133529581504 $300 $416 forward 7 unknown #
vertex $-1 $377 $417 #
straight-curve $-1 -17.656100318332996 -22.680459472795917 61.977093416970121 0 -0.76604443648966558 0.64278761758704617 I I #
point $-1 -17.656100318332996 38.400859496281605 10.723780124696809 #
point $-1 -31.980480500531051 42.625321867380819 7.1790352329406275 #
straight-curve $-1 0 42.625321867380826 10.723780124696818 -1 0 0 I I #
vertex $-1 $307 $418 #
point $-1 -26.887800448474465 38.794923126852765 6.9037753653819305 #
vertex $-1 $311 $419 #
point $-1 -20.748780370389582 38.794923126852765 6.9037753653819305 #
coedge $-1 $326 $325 $318 $388 forward $315 $-1 #
edge $-1 $389 75.012618427762334 $392 78.557363319518515 $387 $420 forward 7 unknown #
vertex $-1 $330 $421 #
straight-curve $-1 49.25485443876395 34.598673515817524 10.723780124696816 0 1 0 I I #
edge $-1 $392 -28.208522264931489 $327 -13.884142082733433 $326 $422 forward 7 unknown #
vertex $-1 $391 $423 #
straight-curve $-1 49.25485443876395 -22.680459472795917 61.977093416970121 0 -0.76604443648966558 0.64278761758704617 I I #
point $-1 49.25485443876395 38.400859496281605 10.723780124696809 #
point $-1 34.930474256565894 42.625321867380819 7.1790352329406275 #
straight-curve $-1 0 42.625321867380826 10.723780124696818 -1 0 0 I I #
vertex $-1 $333 $424 #
point $-1 40.02315430862248 38.794923126852765 6.9037753653819305 #
vertex $-1 $337 $425 #
point $-1 46.162174386707363 38.794923126852765 6.9037753653819305 #
straight-curve $-1 -71.468245490890226 42.625321867380826 0 0 0 -1 I I #
point $-1 -71.468245490890226 -42.625321867380826 -10.723780124696818 #
straight-curve $-1 -71.468245490890226 0 -10.723780124696818 0 1 0 I I #
point $-1 -71.468245490890226 42.625321867380826 -10.723780124696818 #
coedge $-1 $359 $358 $406 $426 reversed $180 $-1 #
coedge $-1 $364 $360 $405 $426 forward $269 $-1 #
vertex $-1 $361 $427 #
straight-curve $-1 0 42.625321867380826 10.723780124696818 -1 0 0 I I #
point $-1 -62.353664023303665 42.625321867380826 10.723780124696818 #
vertex $-1 $426 $428 #
straight-curve $-1 0 -42.625321867380826 10.723780124696818 1 0 0 I I #
straight-curve $-1 -71.468245490890226 -42.625321867380826 0 0 0 -1 I I #
straight-curve $-1 -71.468245490890226 42.625321867380826 0 0 0 -1 I I #
straight-curve $-1 -17.656100318332996 42.625321867380826 85.73639855245915 0 0 -1 I I #
point $-1 -17.656100318332996 42.625321867380826 10.723780124696818 #
straight-curve $-1 -12.409145204716012 42.625321867380826 7.1790352329406311 -1 0 0 I I #
point $-1 -17.656100318332996 42.625321867380819 7.1790352329406275 #
point $-1 -27.887800448474465 38.152135509265719 6.1377309288922657 #
point $-1 -21.748780370389582 38.152135509265719 6.1377309288922657 #
straight-curve $-1 49.25485443876395 42.625321867380826 85.73639855245915 0 0 -1 I I #
point $-1 49.25485443876395 42.625321867380826 10.723780124696818 #
straight-curve $-1 21.046332173832461 42.625321867380826 7.1790352329406311 -1 0 0 I I #
point $-1 49.25485443876395 42.625321867380819 7.1790352329406275 #
point $-1 39.02315430862248 38.152135509265719 6.1377309288922657 #
point $-1 45.162174386707363 38.152135509265719 6.1377309288922657 #
edge $-1 $407 -42.625321867380826 $410 42.625321867380826 $405 $429 forward 7 unknown #
point $-1 -71.468245490890226 42.625321867380826 10.723780124696818 #
point $-1 -71.468245490890226 -42.625321867380826 10.723780124696818 #
straight-curve $-1 -71.468245490890226 0 10.723780124696818 0 -1 0 I I #
End-of-ACIS-data 