500 0 17 0           
7 Unknown 11 ACIS 5.0 NT 24 Fri Mar 26 15:25:00 1999 
-1 9.9999999999999995e-007 1e-010 
body $-1 $17 $-1 $18 #
body $-1 $19 $-1 $20 #
body $-1 $21 $-1 $22 #
body $-1 $23 $-1 $24 #
body $-1 $25 $-1 $26 #
body $-1 $27 $-1 $28 #
body $-1 $29 $-1 $30 #
body $-1 $31 $-1 $32 #
body $-1 $33 $-1 $34 #
body $-1 $35 $-1 $36 #
body $-1 $37 $-1 $38 #
body $-1 $39 $-1 $40 #
body $-1 $41 $-1 $42 #
body $-1 $43 $-1 $44 #
body $-1 $45 $-1 $46 #
body $-1 $47 $-1 $48 #
body $-1 $49 $-1 $50 #
lump $-1 $-1 $51 $0 #
transform $-1 1 0 0 0 1 0 0 0 1 65.61723685415204 43.273693596487718 20.602778922452671 1 rotate no_reflect no_shear #
lump $-1 $-1 $52 $1 #
transform $-1 1 0 0 0 1 0 0 0 1 65.61723685415204 43.273693596487718 20.602778922452671 1 rotate no_reflect no_shear #
lump $-1 $-1 $53 $2 #
transform $-1 1 0 0 0 1 0 0 0 1 65.61723685415204 43.273693596487718 20.602778922452671 1 rotate no_reflect no_shear #
lump $-1 $-1 $54 $3 #
transform $-1 1 0 0 0 1 0 0 0 1 65.61723685415204 43.273693596487718 20.602778922452671 1 rotate no_reflect no_shear #
lump $-1 $-1 $55 $4 #
transform $-1 1 0 0 0 1 0 0 0 1 65.61723685415204 43.273693596487718 20.602778922452671 1 rotate no_reflect no_shear #
lump $-1 $-1 $56 $5 #
transform $-1 1 0 0 0 1 0 0 0 1 65.61723685415204 43.273693596487718 20.602778922452671 1 rotate no_reflect no_shear #
lump $-1 $-1 $57 $6 #
transform $-1 1 0 0 0 1 0 0 0 1 65.61723685415204 43.273693596487718 20.602778922452671 1 rotate no_reflect no_shear #
lump $-1 $-1 $58 $7 #
transform $-1 1 0 0 0 1 0 0 0 1 65.61723685415204 43.273693596487718 20.602778922452671 1 rotate no_reflect no_shear #
lump $-1 $-1 $59 $8 #
transform $-1 1 0 0 0 1 0 0 0 1 65.61723685415204 43.273693596487718 20.602778922452671 1 rotate no_reflect no_shear #
lump $-1 $-1 $60 $9 #
transform $-1 1 0 0 0 1 0 0 0 1 65.61723685415204 43.273693596487718 20.602778922452671 1 rotate no_reflect no_shear #
lump $-1 $-1 $61 $10 #
transform $-1 1 0 0 0 1 0 0 0 1 65.61723685415204 43.273693596487718 20.602778922452671 1 rotate no_reflect no_shear #
lump $-1 $-1 $62 $11 #
transform $-1 1 0 0 0 1 0 0 0 1 65.61723685415204 43.273693596487718 20.602778922452671 1 rotate no_reflect no_shear #
lump $-1 $-1 $63 $12 #
transform $-1 1 0 0 0 1 0 0 0 1 65.61723685415204 43.273693596487718 20.602778922452671 1 rotate no_reflect no_shear #
lump $-1 $-1 $64 $13 #
transform $-1 1 0 0 0 1 0 0 0 1 65.61723685415204 43.273693596487718 20.602778922452671 1 rotate no_reflect no_shear #
lump $-1 $-1 $65 $14 #
transform $-1 1 0 0 0 1 0 0 0 1 65.61723685415204 43.273693596487718 20.602778922452671 1 rotate no_reflect no_shear #
lump $-1 $-1 $66 $15 #
transform $-1 1 0 0 0 1 0 0 0 1 65.61723685415204 43.273693596487718 20.602778922452671 1 rotate no_reflect no_shear #
lump $-1 $-1 $67 $16 #
transform $-1 1 0 0 0 1 0 0 0 1 65.61723685415204 43.273693596487718 20.602778922452671 1 rotate no_reflect no_shear #
shell $-1 $-1 $-1 $68 $-1 $17 #
shell $-1 $-1 $-1 $69 $-1 $19 #
shell $-1 $-1 $-1 $70 $-1 $21 #
shell $-1 $-1 $-1 $71 $-1 $23 #
shell $-1 $-1 $-1 $72 $-1 $25 #
shell $-1 $-1 $-1 $73 $-1 $27 #
shell $-1 $-1 $-1 $74 $-1 $29 #
shell $-1 $-1 $-1 $75 $-1 $31 #
shell $-1 $-1 $-1 $76 $-1 $33 #
shell $-1 $-1 $-1 $77 $-1 $35 #
shell $-1 $-1 $-1 $78 $-1 $37 #
shell $-1 $-1 $-1 $79 $-1 $39 #
shell $-1 $-1 $-1 $80 $-1 $41 #
shell $-1 $-1 $-1 $81 $-1 $43 #
shell $-1 $-1 $-1 $82 $-1 $45 #
shell $-1 $-1 $-1 $83 $-1 $47 #
shell $-1 $-1 $-1 $84 $-1 $49 #
face $-1 $85 $86 $51 $-1 $87 forward single #
face $-1 $88 $89 $52 $-1 $90 forward single #
face $-1 $91 $92 $53 $-1 $93 reversed single #
face $-1 $94 $95 $54 $-1 $96 forward single #
face $-1 $97 $98 $55 $-1 $99 forward single #
face $-1 $100 $101 $56 $-1 $102 reversed single #
face $-1 $103 $104 $57 $-1 $105 forward single #
face $-1 $106 $107 $58 $-1 $108 forward single #
face $-1 $109 $110 $59 $-1 $111 reversed single #
face $-1 $112 $113 $60 $-1 $114 forward single #
face $-1 $115 $116 $61 $-1 $117 forward single #
face $-1 $118 $119 $62 $-1 $120 reversed single #
face $-1 $121 $122 $63 $-1 $123 forward single #
face $-1 $124 $125 $64 $-1 $126 forward single #
face $-1 $127 $128 $65 $-1 $129 reversed single #
face $-1 $130 $131 $66 $-1 $132 forward single #
face $-1 $133 $134 $67 $-1 $135 forward single #
face $-1 $136 $137 $51 $-1 $138 reversed single #
loop $-1 $-1 $139 $68 #
plane-surface $-1 0 0 20.602778922452671 0 0 1 1 0 0 forward_v I I I I #
face $-1 $140 $141 $52 $-1 $142 reversed single #
loop $-1 $-1 $143 $69 #
plane-surface $-1 0 -43.273693596487718 0 0 1 0 0 0 1 forward_v I I I I #
face $-1 $144 $145 $53 $-1 $146 reversed single #
loop $-1 $-1 $147 $70 #
plane-surface $-1 -161.59605606536519 -1.3217124353398191 93.917565619002715 0 1 0 -0.73135370988377701 0 0.68199835119979291 forward_v I I I I #
face $-1 $148 $149 $54 $-1 $150 forward single #
loop $-1 $151 $152 $71 #
cone-surface $-1 -56.090546555447197 2.4290894364628031 10.663483598446785 0.73135370988377701 0 -0.68199835119979291 1.0229975267996894 0 1.0970305648256655 1 I I 0 1 1.5 forward I I I I #
face $-1 $153 $154 $55 $-1 $155 forward single #
loop $-1 $156 $157 $72 #
cone-surface $-1 -56.090546555447197 8.0552922441667363 10.663483598446785 0.73135370988377701 0 -0.68199835119979291 1.0229975267996894 0 1.0970305648256655 1 I I 0 1 1.5 forward I I I I #
face $-1 $158 $159 $56 $-1 $160 reversed single #
loop $-1 $-1 $161 $73 #
plane-surface $-1 30.204315320973237 -7.3329320734818548 187.80023278278691 0 -1 0 -0.55919291073839883 0 -0.82903756765294845 forward_v I I I I #
face $-1 $162 $163 $57 $-1 $164 forward single #
loop $-1 $165 $166 $74 #
cone-surface $-1 54.022537278730319 -14.310678399886683 12.389591543861876 -0.55919291073839883 0 -0.82903756765294845 0.82903756765294845 0 -0.55919291073839883 1 I I 0 1 1 forward I I I I #
face $-1 $167 $168 $58 $-1 $169 forward single #
loop $-1 $170 $171 $75 #
cone-surface $-1 54.022537278730319 -10.124030604043789 12.389591543861876 -0.55919291073839883 0 -0.82903756765294845 0.82903756765294845 0 -0.55919291073839883 1 I I 0 1 1 forward I I I I #
face $-1 $172 $173 $59 $-1 $174 reversed single #
loop $-1 $-1 $175 $76 #
plane-surface $-1 30.204315320973237 8.4070379005008409 187.80023278278691 0 -1 0 -0.55919291073839883 0 -0.82903756765294845 forward_v I I I I #
face $-1 $176 $177 $60 $-1 $178 forward single #
loop $-1 $179 $180 $77 #
cone-surface $-1 54.022537278730319 1.4292915740960126 12.389591543861876 -0.55919291073839883 0 -0.82903756765294845 0.82903756765294845 0 -0.55919291073839883 1 I I 0 1 1 forward I I I I #
face $-1 $181 $182 $61 $-1 $183 forward single #
loop $-1 $184 $185 $78 #
cone-surface $-1 54.022537278730319 5.6159393699389071 12.389591543861876 -0.55919291073839883 0 -0.82903756765294845 0.82903756765294845 0 -0.55919291073839883 1 I I 0 1 1 forward I I I I #
face $-1 $186 $187 $62 $-1 $188 reversed single #
loop $-1 $-1 $189 $79 #
plane-surface $-1 30.204315320973237 24.147007874483535 187.80023278278691 0 -1 0 -0.55919291073839883 0 -0.82903756765294845 forward_v I I I I #
face $-1 $190 $191 $63 $-1 $192 forward single #
loop $-1 $193 $194 $80 #
cone-surface $-1 54.022537278730319 17.169261548078708 12.389591543861876 -0.55919291073839883 0 -0.82903756765294845 0.82903756765294845 0 -0.55919291073839883 1 I I 0 1 1 forward I I I I #
face $-1 $195 $196 $64 $-1 $197 forward single #
loop $-1 $198 $199 $81 #
cone-surface $-1 54.022537278730319 21.355909343921596 12.389591543861876 -0.55919291073839883 0 -0.82903756765294845 0.82903756765294845 0 -0.55919291073839883 1 I I 0 1 1 forward I I I I #
face $-1 $200 $201 $65 $-1 $202 reversed single #
loop $-1 $-1 $203 $82 #
plane-surface $-1 30.204315320973237 39.886977848466231 187.80023278278691 0 -1 0 -0.55919291073839883 0 -0.82903756765294845 forward_v I I I I #
face $-1 $204 $205 $66 $-1 $206 forward single #
loop $-1 $207 $208 $83 #
cone-surface $-1 54.022537278730319 32.909231522061404 12.389591543861876 -0.55919291073839883 0 -0.82903756765294845 0.82903756765294845 0 -0.55919291073839883 1 I I 0 1 1 forward I I I I #
face $-1 $209 $210 $67 $-1 $211 forward single #
loop $-1 $212 $213 $84 #
cone-surface $-1 54.022537278730319 37.095879317904291 12.389591543861876 -0.55919291073839883 0 -0.82903756765294845 0.82903756765294845 0 -0.55919291073839883 1 I I 0 1 1 forward I I I I #
face $-1 $214 $215 $51 $-1 $216 reversed single #
loop $-1 $-1 $217 $85 #
plane-surface $-1 0 0 -20.602778922452671 0 0 1 1 0 0 forward_v I I I I #
coedge $-1 $218 $219 $220 $221 forward $86 $-1 #
face $-1 $222 $223 $52 $-1 $224 reversed single #
loop $-1 $-1 $225 $88 #
plane-surface $-1 0 0 -20.602778922452671 0 0 1 1 0 0 forward_v I I I I #
coedge $-1 $226 $227 $228 $229 forward $89 $-1 #
face $-1 $230 $231 $53 $-1 $232 reversed single #
loop $-1 $-1 $233 $91 #
plane-surface $-1 -65.617236854152011 5.2421908403147697 4.4158709293667613 -0.73135370988377701 0 0.68199835119979291 0.68199835119979291 0 0.73135370988377701 forward_v I I I I #
coedge $-1 $234 $235 $236 $237 reversed $92 $-1 #
face $-1 $-1 $238 $54 $-1 $239 forward single #
loop $-1 $240 $241 $94 #
cone-surface $-1 -53.562608741701382 2.4290894364628031 8.3061435075840038 0.73135370988377701 0 -0.68199835119979291 0.51149876339984468 0 0.54851528241283276 1 I I -0.70710678118654757 0.70710678118654757 0.75 forward I I I I #
loop $-1 $-1 $242 $71 #
coedge $-1 $152 $152 $243 $244 reversed $95 $-1 #
face $-1 $-1 $245 $55 $-1 $246 forward single #
loop $-1 $247 $248 $97 #
cone-surface $-1 -53.562608741701382 8.0552922441667363 8.3061435075840038 0.73135370988377701 0 -0.68199835119979291 0.51149876339984468 0 0.54851528241283276 1 I I -0.70710678118654757 0.70710678118654757 0.75 forward I I I I #
loop $-1 $-1 $249 $72 #
coedge $-1 $157 $157 $250 $251 reversed $98 $-1 #
face $-1 $252 $253 $56 $-1 $254 reversed single #
loop $-1 $-1 $255 $100 #
plane-surface $-1 -43.181072021195192 -12.217354501965232 79.001923907439675 0.55919291073839883 0 0.82903756765294845 0.82903756765294845 0 -0.55919291073839883 forward_v I I I I #
coedge $-1 $256 $257 $258 $259 reversed $101 $-1 #
face $-1 $-1 $260 $57 $-1 $261 forward single #
loop $-1 $262 $263 $103 #
cone-surface $-1 53.257250029586444 -14.310678399886683 11.255006560035312 -0.55919291073839883 0 -0.82903756765294845 0.41451878382647422 0 -0.27959645536919941 1 I I -0.70710678118654746 0.70710678118654746 0.5 forward I I I I #
loop $-1 $-1 $264 $74 #
coedge $-1 $166 $166 $265 $266 reversed $104 $-1 #
face $-1 $-1 $267 $58 $-1 $268 forward single #
loop $-1 $269 $270 $106 #
cone-surface $-1 53.257250029586444 -10.124030604043789 11.255006560035312 -0.55919291073839883 0 -0.82903756765294845 0.41451878382647422 0 -0.27959645536919941 1 I I -0.70710678118654746 0.70710678118654746 0.5 forward I I I I #
loop $-1 $-1 $271 $75 #
coedge $-1 $171 $171 $272 $273 reversed $107 $-1 #
face $-1 $274 $275 $59 $-1 $276 reversed single #
loop $-1 $-1 $277 $109 #
plane-surface $-1 -43.181072021195192 3.5226154720174634 79.001923907439675 0.55919291073839883 0 0.82903756765294845 0.82903756765294845 0 -0.55919291073839883 forward_v I I I I #
coedge $-1 $278 $279 $280 $281 reversed $110 $-1 #
face $-1 $-1 $282 $60 $-1 $283 forward single #
loop $-1 $284 $285 $112 #
cone-surface $-1 53.257250029586444 1.4292915740960126 11.255006560035312 -0.55919291073839883 0 -0.82903756765294845 0.41451878382647422 0 -0.27959645536919941 1 I I -0.70710678118654746 0.70710678118654746 0.5 forward I I I I #
loop $-1 $-1 $286 $77 #
coedge $-1 $180 $180 $287 $288 reversed $113 $-1 #
face $-1 $-1 $289 $61 $-1 $290 forward single #
loop $-1 $291 $292 $115 #
cone-surface $-1 53.257250029586444 5.6159393699389071 11.255006560035312 -0.55919291073839883 0 -0.82903756765294845 0.41451878382647422 0 -0.27959645536919941 1 I I -0.70710678118654746 0.70710678118654746 0.5 forward I I I I #
loop $-1 $-1 $293 $78 #
coedge $-1 $185 $185 $294 $295 reversed $116 $-1 #
face $-1 $296 $297 $62 $-1 $298 reversed single #
loop $-1 $-1 $299 $118 #
plane-surface $-1 -43.181072021195192 19.262585446000159 79.001923907439675 0.55919291073839883 0 0.82903756765294845 0.82903756765294845 0 -0.55919291073839883 forward_v I I I I #
coedge $-1 $300 $301 $302 $303 reversed $119 $-1 #
face $-1 $-1 $304 $63 $-1 $305 forward single #
loop $-1 $306 $307 $121 #
cone-surface $-1 53.257250029586444 17.169261548078708 11.255006560035312 -0.55919291073839883 0 -0.82903756765294845 0.41451878382647422 0 -0.27959645536919941 1 I I -0.70710678118654746 0.70710678118654746 0.5 forward I I I I #
loop $-1 $-1 $308 $80 #
coedge $-1 $194 $194 $309 $310 reversed $122 $-1 #
face $-1 $-1 $311 $64 $-1 $312 forward single #
loop $-1 $313 $314 $124 #
cone-surface $-1 53.257250029586444 21.355909343921596 11.255006560035312 -0.55919291073839883 0 -0.82903756765294845 0.41451878382647422 0 -0.27959645536919941 1 I I -0.70710678118654746 0.70710678118654746 0.5 forward I I I I #
loop $-1 $-1 $315 $81 #
coedge $-1 $199 $199 $316 $317 reversed $125 $-1 #
face $-1 $318 $319 $65 $-1 $320 reversed single #
loop $-1 $-1 $321 $127 #
plane-surface $-1 -43.181072021195192 35.002555419982855 79.001923907439675 0.55919291073839883 0 0.82903756765294845 0.82903756765294845 0 -0.55919291073839883 forward_v I I I I #
coedge $-1 $322 $323 $324 $325 reversed $128 $-1 #
face $-1 $-1 $326 $66 $-1 $327 forward single #
loop $-1 $328 $329 $130 #
cone-surface $-1 53.257250029586444 32.909231522061404 11.255006560035312 -0.55919291073839883 0 -0.82903756765294845 0.41451878382647422 0 -0.27959645536919941 1 I I -0.70710678118654746 0.70710678118654746 0.5 forward I I I I #
loop $-1 $-1 $330 $83 #
coedge $-1 $208 $208 $331 $332 reversed $131 $-1 #
face $-1 $-1 $333 $67 $-1 $334 forward single #
loop $-1 $335 $336 $133 #
cone-surface $-1 53.257250029586444 37.095879317904291 11.255006560035312 -0.55919291073839883 0 -0.82903756765294845 0.41451878382647422 0 -0.27959645536919941 1 I I -0.70710678118654746 0.70710678118654746 0.5 forward I I I I #
loop $-1 $-1 $337 $84 #
coedge $-1 $213 $213 $338 $339 reversed $134 $-1 #
face $-1 $340 $341 $51 $-1 $342 reversed single #
loop $-1 $-1 $343 $136 #
plane-surface $-1 0 -43.273693596487718 0 0 1 0 0 0 1 forward_v I I I I #
coedge $-1 $344 $345 $346 $347 forward $137 $-1 #
coedge $-1 $348 $139 $349 $350 forward $86 $-1 #
coedge $-1 $139 $348 $351 $352 forward $86 $-1 #
coedge $-1 $353 $354 $139 $221 reversed $355 $-1 #
edge $-1 $356 -43.273693596487718 $357 43.273693596487718 $220 $358 forward 7 unknown #
face $-1 $359 $360 $52 $-1 $361 forward single #
loop $-1 $-1 $362 $140 #
plane-surface $-1 65.61723685415204 0 0 -1 0 0 0 0 1 forward_v I I I I #
coedge $-1 $363 $364 $365 $366 forward $141 $-1 #
coedge $-1 $365 $143 $362 $367 reversed $89 $-1 #
coedge $-1 $143 $365 $368 $369 reversed $89 $-1 #
coedge $-1 $370 $371 $143 $229 reversed $360 $-1 #
edge $-1 $372 -65.61723685415204 $373 65.61723685415204 $228 $374 forward 7 unknown #
face $-1 $375 $376 $53 $-1 $377 forward single #
loop $-1 $-1 $378 $144 #
plane-surface $-1 -161.59605606536519 11.806094115969358 93.917565619002715 0 -1 0 0.73135370988377701 0 -0.68199835119979291 forward_v I I I I #
coedge $-1 $379 $380 $381 $382 reversed $145 $-1 #
coedge $-1 $235 $147 $383 $384 reversed $92 $-1 #
coedge $-1 $147 $234 $379 $385 reversed $92 $-1 #
coedge $-1 $381 $386 $147 $237 forward $376 $-1 #
edge $-1 $387 15.180791178530555 $388 30.275326713274325 $236 $389 forward 7 unknown #
loop $-1 $-1 $243 $148 #
plane-surface $-1 -65.617236854152011 5.2421908403147697 4.4158709293667613 -0.73135370988377701 0 0.68199835119979291 0.68199835119979291 0 0.73135370988377701 forward_v I I I I #
loop $-1 $-1 $390 $94 #
coedge $-1 $241 $241 $242 $391 reversed $149 $-1 #
coedge $-1 $242 $242 $241 $391 forward $151 $-1 #
coedge $-1 $243 $243 $152 $244 forward $238 $-1 #
edge $-1 $392 0 $392 6.2831853071796004 $243 $393 forward 7 unknown #
loop $-1 $-1 $250 $153 #
plane-surface $-1 -65.617236854152011 5.2421908403147697 4.4158709293667613 -0.73135370988377701 0 0.68199835119979291 0.68199835119979291 0 0.73135370988377701 forward_v I I I I #
loop $-1 $-1 $394 $97 #
coedge $-1 $248 $248 $249 $395 reversed $154 $-1 #
coedge $-1 $249 $249 $248 $395 forward $156 $-1 #
coedge $-1 $250 $250 $157 $251 forward $245 $-1 #
edge $-1 $396 0 $396 6.2831853071796004 $250 $397 forward 7 unknown #
face $-1 $398 $399 $56 $-1 $400 reversed single #
loop $-1 $-1 $401 $158 #
plane-surface $-1 30.204315320973237 -17.101776930448608 187.80023278278691 0 1 0 0.55919291073839883 0 0.82903756765294845 forward_v I I I I #
coedge $-1 $402 $403 $404 $405 reversed $159 $-1 #
coedge $-1 $257 $161 $406 $407 reversed $101 $-1 #
coedge $-1 $161 $256 $402 $408 reversed $101 $-1 #
coedge $-1 $404 $409 $161 $259 forward $410 $-1 #
edge $-1 $411 -50.515079193665422 $412 -28.297061630371353 $258 $413 forward 7 unknown #
loop $-1 $-1 $265 $162 #
plane-surface $-1 -43.181072021195192 -12.217354501965232 79.001923907439675 0.55919291073839883 0 0.82903756765294845 0.82903756765294845 0 -0.55919291073839883 forward_v I I I I #
loop $-1 $-1 $414 $103 #
coedge $-1 $263 $263 $264 $415 reversed $163 $-1 #
coedge $-1 $264 $264 $263 $415 forward $165 $-1 #
coedge $-1 $265 $265 $166 $266 forward $260 $-1 #
edge $-1 $416 0 $416 6.2831853071796004 $265 $417 forward 7 unknown #
loop $-1 $-1 $272 $167 #
plane-surface $-1 -43.181072021195192 -12.217354501965232 79.001923907439675 0.55919291073839883 0 0.82903756765294845 0.82903756765294845 0 -0.55919291073839883 forward_v I I I I #
loop $-1 $-1 $418 $106 #
coedge $-1 $270 $270 $271 $419 reversed $168 $-1 #
coedge $-1 $271 $271 $270 $419 forward $170 $-1 #
coedge $-1 $272 $272 $171 $273 forward $267 $-1 #
edge $-1 $420 0 $420 6.2831853071796004 $272 $421 forward 7 unknown #
face $-1 $422 $423 $59 $-1 $424 reversed single #
loop $-1 $-1 $425 $172 #
plane-surface $-1 30.204315320973237 -1.3618069564659141 187.80023278278691 0 1 0 0.55919291073839883 0 0.82903756765294845 forward_v I I I I #
coedge $-1 $426 $427 $428 $429 reversed $173 $-1 #
coedge $-1 $279 $175 $430 $431 reversed $110 $-1 #
coedge $-1 $175 $278 $426 $432 reversed $110 $-1 #
coedge $-1 $428 $433 $175 $281 forward $434 $-1 #
edge $-1 $435 -50.515079193665422 $436 -28.297061630371353 $280 $437 forward 7 unknown #
loop $-1 $-1 $287 $176 #
plane-surface $-1 -43.181072021195192 3.5226154720174634 79.001923907439675 0.55919291073839883 0 0.82903756765294845 0.82903756765294845 0 -0.55919291073839883 forward_v I I I I #
loop $-1 $-1 $438 $112 #
coedge $-1 $285 $285 $286 $439 reversed $177 $-1 #
coedge $-1 $286 $286 $285 $439 forward $179 $-1 #
coedge $-1 $287 $287 $180 $288 forward $282 $-1 #
edge $-1 $440 0 $440 6.2831853071796004 $287 $441 forward 7 unknown #
loop $-1 $-1 $294 $181 #
plane-surface $-1 -43.181072021195192 3.5226154720174634 79.001923907439675 0.55919291073839883 0 0.82903756765294845 0.82903756765294845 0 -0.55919291073839883 forward_v I I I I #
loop $-1 $-1 $442 $115 #
coedge $-1 $292 $292 $293 $443 reversed $182 $-1 #
coedge $-1 $293 $293 $292 $443 forward $184 $-1 #
coedge $-1 $294 $294 $185 $295 forward $289 $-1 #
edge $-1 $444 0 $444 6.2831853071796004 $294 $445 forward 7 unknown #
face $-1 $446 $447 $62 $-1 $448 reversed single #
loop $-1 $-1 $449 $186 #
plane-surface $-1 30.204315320973237 14.378163017516782 187.80023278278691 0 1 0 0.55919291073839883 0 0.82903756765294845 forward_v I I I I #
coedge $-1 $450 $451 $452 $453 reversed $187 $-1 #
coedge $-1 $301 $189 $454 $455 reversed $119 $-1 #
coedge $-1 $189 $300 $450 $456 reversed $119 $-1 #
coedge $-1 $452 $457 $189 $303 forward $458 $-1 #
edge $-1 $459 -50.515079193665422 $460 -28.297061630371353 $302 $461 forward 7 unknown #
loop $-1 $-1 $309 $190 #
plane-surface $-1 -43.181072021195192 19.262585446000159 79.001923907439675 0.55919291073839883 0 0.82903756765294845 0.82903756765294845 0 -0.55919291073839883 forward_v I I I I #
loop $-1 $-1 $462 $121 #
coedge $-1 $307 $307 $308 $463 reversed $191 $-1 #
coedge $-1 $308 $308 $307 $463 forward $193 $-1 #
coedge $-1 $309 $309 $194 $310 forward $304 $-1 #
edge $-1 $464 0 $464 6.2831853071796004 $309 $465 forward 7 unknown #
loop $-1 $-1 $316 $195 #
plane-surface $-1 -43.181072021195192 19.262585446000159 79.001923907439675 0.55919291073839883 0 0.82903756765294845 0.82903756765294845 0 -0.55919291073839883 forward_v I I I I #
loop $-1 $-1 $466 $124 #
coedge $-1 $314 $314 $315 $467 reversed $196 $-1 #
coedge $-1 $315 $315 $314 $467 forward $198 $-1 #
coedge $-1 $316 $316 $199 $317 forward $311 $-1 #
edge $-1 $468 0 $468 6.2831853071796004 $316 $469 forward 7 unknown #
face $-1 $470 $471 $65 $-1 $472 reversed single #
loop $-1 $-1 $473 $200 #
plane-surface $-1 30.204315320973237 30.118132991499479 187.80023278278691 0 1 0 0.55919291073839883 0 0.82903756765294845 forward_v I I I I #
coedge $-1 $474 $475 $476 $477 reversed $201 $-1 #
coedge $-1 $323 $203 $478 $479 reversed $128 $-1 #
coedge $-1 $203 $322 $474 $480 reversed $128 $-1 #
coedge $-1 $476 $481 $203 $325 forward $482 $-1 #
edge $-1 $483 -50.515079193665422 $484 -28.297061630371353 $324 $485 forward 7 unknown #
loop $-1 $-1 $331 $204 #
plane-surface $-1 -43.181072021195192 35.002555419982855 79.001923907439675 0.55919291073839883 0 0.82903756765294845 0.82903756765294845 0 -0.55919291073839883 forward_v I I I I #
loop $-1 $-1 $486 $130 #
coedge $-1 $329 $329 $330 $487 reversed $205 $-1 #
coedge $-1 $330 $330 $329 $487 forward $207 $-1 #
coedge $-1 $331 $331 $208 $332 forward $326 $-1 #
edge $-1 $488 0 $488 6.2831853071796004 $331 $489 forward 7 unknown #
loop $-1 $-1 $338 $209 #
plane-surface $-1 -43.181072021195192 35.002555419982855 79.001923907439675 0.55919291073839883 0 0.82903756765294845 0.82903756765294845 0 -0.55919291073839883 forward_v I I I I #
loop $-1 $-1 $490 $133 #
coedge $-1 $336 $336 $337 $491 reversed $210 $-1 #
coedge $-1 $337 $337 $336 $491 forward $212 $-1 #
coedge $-1 $338 $338 $213 $339 forward $333 $-1 #
edge $-1 $492 0 $492 6.2831853071796004 $338 $493 forward 7 unknown #
face $-1 $494 $495 $51 $-1 $496 reversed single #
loop $-1 $-1 $497 $214 #
plane-surface $-1 -65.61723685415204 0 0 1 0 0 0 0 -1 forward_v I I I I #
coedge $-1 $351 $498 $353 $499 reversed $215 $-1 #
coedge $-1 $500 $217 $498 $501 forward $137 $-1 #
coedge $-1 $217 $500 $502 $503 forward $137 $-1 #
coedge $-1 $354 $353 $217 $347 reversed $355 $-1 #
edge $-1 $504 -43.273693596487718 $505 43.273693596487718 $346 $506 forward 7 unknown #
coedge $-1 $219 $218 $507 $508 forward $86 $-1 #
coedge $-1 $509 $510 $218 $350 reversed $495 $-1 #
edge $-1 $357 -65.61723685415204 $511 65.61723685415204 $349 $512 forward 7 unknown #
coedge $-1 $513 $343 $219 $352 reversed $215 $-1 #
edge $-1 $514 -65.61723685415204 $356 65.61723685415204 $351 $515 forward 7 unknown #
coedge $-1 $346 $220 $343 $499 forward $355 $-1 #
coedge $-1 $220 $346 $509 $516 reversed $355 $-1 #
loop $-1 $-1 $353 $494 #
vertex $-1 $221 $517 #
vertex $-1 $221 $518 #
straight-curve $-1 65.61723685415204 0 20.602778922452671 0 1 0 I I #
face $-1 $519 $520 $52 $-1 $521 reversed single #
loop $-1 $-1 $371 $222 #
plane-surface $-1 0 -54.666294055496522 -8.3132939176946365 0 0 1 1 0 0 forward_v I I I I #
coedge $-1 $522 $523 $226 $367 forward $223 $-1 #
coedge $-1 $524 $225 $523 $525 forward $141 $-1 #
coedge $-1 $225 $524 $526 $527 forward $141 $-1 #
coedge $-1 $227 $226 $225 $366 reversed $89 $-1 #
edge $-1 $528 -65.61723685415204 $529 65.61723685415204 $225 $530 forward 7 unknown #
edge $-1 $529 -20.602778922452671 $373 -8.3132939176946365 $362 $531 forward 7 unknown #
coedge $-1 $526 $532 $227 $369 forward $533 $-1 #
edge $-1 $372 8.3132939176946365 $528 20.602778922452671 $368 $534 forward 7 unknown #
coedge $-1 $535 $228 $532 $536 forward $360 $-1 #
coedge $-1 $228 $535 $522 $537 forward $360 $-1 #
vertex $-1 $369 $538 #
vertex $-1 $537 $539 #
straight-curve $-1 0 -43.273693596487718 -8.3132939176946365 1 0 0 I I #
face $-1 $-1 $540 $53 $-1 $541 reversed single #
loop $-1 $-1 $236 $230 #
plane-surface $-1 0 0 20.602778922452671 0 0 1 1 0 0 forward_v I I I I #
coedge $-1 $542 $543 $544 $545 reversed $231 $-1 #
coedge $-1 $546 $233 $235 $385 forward $145 $-1 #
coedge $-1 $233 $546 $542 $547 forward $145 $-1 #
coedge $-1 $544 $236 $233 $382 forward $376 $-1 #
edge $-1 $388 -3.9428078554972039 $548 9.1849986958119736 $381 $549 forward 7 unknown #
coedge $-1 $550 $551 $234 $384 forward $540 $-1 #
edge $-1 $552 -42.542911880134625 $387 -26.356003887048686 $383 $553 forward 7 unknown #
edge $-1 $388 -22.132803559112659 $552 4.1469026767552634e-014 $235 $554 forward 7 unknown #
coedge $-1 $236 $544 $550 $555 forward $376 $-1 #
vertex $-1 $384 $556 #
vertex $-1 $237 $557 #
straight-curve $-1 -80.798028032682595 -1.3217124353398191 20.602778922452671 1 0 0 I I #
coedge $-1 $390 $390 $-1 $558 reversed $240 $-1 #
edge $-1 $559 0 $559 6.2831853071796004 $241 $560 forward 7 unknown #
vertex $-1 $244 $561 #
ellipse-curve $-1 -58.069969086780155 2.4290894364628031 12.509324925909699 -0.73135370988377701 0 0.68199835119979291 1.0229975267996894 0 1.0970305648256655 1 I I #
coedge $-1 $394 $394 $-1 $562 reversed $247 $-1 #
edge $-1 $563 0 $563 6.2831853071796004 $248 $564 forward 7 unknown #
vertex $-1 $251 $565 #
ellipse-curve $-1 -58.069969086780155 8.0552922441667363 12.509324925909699 -0.73135370988377701 0 0.68199835119979291 1.0229975267996894 0 1.0970305648256655 1 I I #
face $-1 $-1 $410 $56 $-1 $566 forward single #
loop $-1 $-1 $567 $252 #
plane-surface $-1 65.61723685415204 0 0 -1 0 0 0 0 1 forward_v I I I I #
coedge $-1 $568 $569 $570 $571 reversed $253 $-1 #
coedge $-1 $572 $255 $257 $408 forward $159 $-1 #
coedge $-1 $255 $572 $568 $573 forward $159 $-1 #
coedge $-1 $570 $258 $255 $405 forward $410 $-1 #
edge $-1 $412 1.2242548224992387 $574 10.993099679465992 $404 $575 forward 7 unknown #
coedge $-1 $576 $577 $256 $407 forward $399 $-1 #
edge $-1 $578 -88.283579826122207 $411 -73.297337468940782 $406 $579 forward 7 unknown #
edge $-1 $412 104.43470198481691 $578 131.23447370830408 $257 $580 forward 7 unknown #
coedge $-1 $258 $570 $576 $581 forward $410 $-1 #
loop $-1 $-1 $570 $398 #
vertex $-1 $407 $582 #
vertex $-1 $259 $583 #
straight-curve $-1 15.102157660486618 -7.3329320734818548 20.602778922452671 -1 0 0 I I #
coedge $-1 $414 $414 $-1 $584 reversed $262 $-1 #
edge $-1 $585 0 $585 6.2831853071796004 $263 $586 forward 7 unknown #
vertex $-1 $266 $587 #
ellipse-curve $-1 54.508228072504991 -14.310678399886683 13.109657743861955 0.55919291073839883 0 0.82903756765294845 0.82903756765294845 0 -0.55919291073839883 1 I I #
coedge $-1 $418 $418 $-1 $588 reversed $269 $-1 #
edge $-1 $589 0 $589 6.2831853071796004 $270 $590 forward 7 unknown #
vertex $-1 $273 $591 #
ellipse-curve $-1 54.508228072504991 -10.124030604043789 13.109657743861955 0.55919291073839883 0 0.82903756765294845 0.82903756765294845 0 -0.55919291073839883 1 I I #
face $-1 $-1 $434 $59 $-1 $592 forward single #
loop $-1 $-1 $593 $274 #
plane-surface $-1 65.61723685415204 0 0 -1 0 0 0 0 1 forward_v I I I I #
coedge $-1 $594 $595 $596 $597 reversed $275 $-1 #
coedge $-1 $598 $277 $279 $432 forward $173 $-1 #
coedge $-1 $277 $598 $594 $599 forward $173 $-1 #
coedge $-1 $596 $280 $277 $429 forward $434 $-1 #
edge $-1 $436 -6.6457301644921092 $600 3.1231146924746458 $428 $601 forward 7 unknown #
coedge $-1 $602 $603 $278 $431 forward $423 $-1 #
edge $-1 $604 -88.283579826122207 $435 -73.297337468940782 $430 $605 forward 7 unknown #
edge $-1 $436 104.43470198481691 $604 131.23447370830408 $279 $606 forward 7 unknown #
coedge $-1 $280 $596 $602 $607 forward $434 $-1 #
loop $-1 $-1 $596 $422 #
vertex $-1 $431 $608 #
vertex $-1 $281 $609 #
straight-curve $-1 15.102157660486618 8.4070379005008409 20.602778922452671 -1 0 0 I I #
coedge $-1 $438 $438 $-1 $610 reversed $284 $-1 #
edge $-1 $611 0 $611 6.2831853071796004 $285 $612 forward 7 unknown #
vertex $-1 $288 $613 #
ellipse-curve $-1 54.508228072504991 1.4292915740960126 13.109657743861955 0.55919291073839883 0 0.82903756765294845 0.82903756765294845 0 -0.55919291073839883 1 I I #
coedge $-1 $442 $442 $-1 $614 reversed $291 $-1 #
edge $-1 $615 0 $615 6.2831853071796004 $292 $616 forward 7 unknown #
vertex $-1 $295 $617 #
ellipse-curve $-1 54.508228072504991 5.6159393699389071 13.109657743861955 0.55919291073839883 0 0.82903756765294845 0.82903756765294845 0 -0.55919291073839883 1 I I #
face $-1 $-1 $458 $62 $-1 $618 forward single #
loop $-1 $-1 $619 $296 #
plane-surface $-1 65.61723685415204 0 0 -1 0 0 0 0 1 forward_v I I I I #
coedge $-1 $620 $621 $622 $623 reversed $297 $-1 #
coedge $-1 $624 $299 $301 $456 forward $187 $-1 #
coedge $-1 $299 $624 $620 $625 forward $187 $-1 #
coedge $-1 $622 $302 $299 $453 forward $458 $-1 #
edge $-1 $460 -14.515715151483455 $626 -4.7468702945167021 $452 $627 forward 7 unknown #
coedge $-1 $628 $629 $300 $455 forward $447 $-1 #
edge $-1 $630 -88.283579826122207 $459 -73.297337468940782 $454 $631 forward 7 unknown #
edge $-1 $460 104.43470198481691 $630 131.23447370830408 $301 $632 forward 7 unknown #
coedge $-1 $302 $622 $628 $633 forward $458 $-1 #
loop $-1 $-1 $622 $446 #
vertex $-1 $455 $634 #
vertex $-1 $303 $635 #
straight-curve $-1 15.102157660486618 24.147007874483535 20.602778922452671 -1 0 0 I I #
coedge $-1 $462 $462 $-1 $636 reversed $306 $-1 #
edge $-1 $637 0 $637 6.2831853071796004 $307 $638 forward 7 unknown #
vertex $-1 $310 $639 #
ellipse-curve $-1 54.508228072504991 17.169261548078708 13.109657743861955 0.55919291073839883 0 0.82903756765294845 0.82903756765294845 0 -0.55919291073839883 1 I I #
coedge $-1 $466 $466 $-1 $640 reversed $313 $-1 #
edge $-1 $641 0 $641 6.2831853071796004 $314 $642 forward 7 unknown #
vertex $-1 $317 $643 #
ellipse-curve $-1 54.508228072504991 21.355909343921596 13.109657743861955 0.55919291073839883 0 0.82903756765294845 0.82903756765294845 0 -0.55919291073839883 1 I I #
face $-1 $-1 $482 $65 $-1 $644 forward single #
loop $-1 $-1 $645 $318 #
plane-surface $-1 65.61723685415204 0 0 -1 0 0 0 0 1 forward_v I I I I #
coedge $-1 $646 $647 $648 $649 reversed $319 $-1 #
coedge $-1 $650 $321 $323 $480 forward $201 $-1 #
coedge $-1 $321 $650 $646 $651 forward $201 $-1 #
coedge $-1 $648 $324 $321 $477 forward $482 $-1 #
edge $-1 $484 -22.385700138474803 $652 -12.616855281508052 $476 $653 forward 7 unknown #
coedge $-1 $654 $655 $322 $479 forward $471 $-1 #
edge $-1 $656 -88.283579826122207 $483 -73.297337468940782 $478 $657 forward 7 unknown #
edge $-1 $484 104.43470198481691 $656 131.23447370830408 $323 $658 forward 7 unknown #
coedge $-1 $324 $648 $654 $659 forward $482 $-1 #
loop $-1 $-1 $648 $470 #
vertex $-1 $479 $660 #
vertex $-1 $325 $661 #
straight-curve $-1 15.102157660486618 39.886977848466231 20.602778922452671 -1 0 0 I I #
coedge $-1 $486 $486 $-1 $662 reversed $328 $-1 #
edge $-1 $663 0 $663 6.2831853071796004 $329 $664 forward 7 unknown #
vertex $-1 $332 $665 #
ellipse-curve $-1 54.508228072504991 32.909231522061404 13.109657743861955 0.55919291073839883 0 0.82903756765294845 0.82903756765294845 0 -0.55919291073839883 1 I I #
coedge $-1 $490 $490 $-1 $666 reversed $335 $-1 #
edge $-1 $667 0 $667 6.2831853071796004 $336 $668 forward 7 unknown #
vertex $-1 $339 $669 #
ellipse-curve $-1 54.508228072504991 37.095879317904291 13.109657743861955 0.55919291073839883 0 0.82903756765294845 0.82903756765294845 0 -0.55919291073839883 1 I I #
face $-1 $-1 $355 $51 $-1 $670 reversed single #
loop $-1 $-1 $509 $340 #
plane-surface $-1 0 43.273693596487718 0 0 -1 0 0 0 -1 forward_v I I I I #
coedge $-1 $671 $507 $510 $672 forward $341 $-1 #
coedge $-1 $343 $513 $344 $501 reversed $215 $-1 #
edge $-1 $356 -20.602778922452671 $505 20.602778922452671 $353 $673 forward 7 unknown #
coedge $-1 $345 $344 $671 $674 forward $137 $-1 #
edge $-1 $505 -65.61723685415204 $675 65.61723685415204 $498 $676 forward 7 unknown #
coedge $-1 $510 $509 $345 $503 reversed $495 $-1 #
edge $-1 $677 -65.61723685415204 $504 65.61723685415204 $502 $678 forward 7 unknown #
vertex $-1 $347 $679 #
vertex $-1 $499 $680 #
straight-curve $-1 65.61723685415204 0 -20.602778922452671 0 -1 0 I I #
coedge $-1 $497 $681 $348 $508 reversed $341 $-1 #
edge $-1 $511 -43.273693596487718 $514 43.273693596487718 $507 $682 forward 7 unknown #
coedge $-1 $502 $349 $354 $516 forward $495 $-1 #
coedge $-1 $349 $502 $497 $672 reversed $495 $-1 #
vertex $-1 $350 $683 #
straight-curve $-1 0 43.273693596487718 20.602778922452671 -1 0 0 I I #
coedge $-1 $498 $351 $681 $684 forward $215 $-1 #
vertex $-1 $508 $685 #
straight-curve $-1 0 -43.273693596487718 20.602778922452671 1 0 0 I I #
edge $-1 $357 -20.602778922452671 $504 20.602778922452671 $354 $686 forward 7 unknown #
point $-1 65.61723685415204 -43.273693596487718 20.602778922452671 #
point $-1 65.61723685415204 43.273693596487718 20.602778922452671 #
face $-1 $-1 $533 $52 $-1 $687 reversed single #
loop $-1 $-1 $688 $359 #
plane-surface $-1 0 -66.058894514505326 -14.458036420073654 0 1 0 0 0 1 forward_v I I I I #
coedge $-1 $689 $362 $371 $537 reversed $223 $-1 #
coedge $-1 $362 $689 $363 $525 reversed $223 $-1 #
coedge $-1 $364 $363 $690 $691 forward $141 $-1 #
edge $-1 $529 43.273693596487718 $692 66.058894514505326 $523 $693 forward 7 unknown #
coedge $-1 $694 $368 $364 $527 reversed $533 $-1 #
edge $-1 $695 -66.058894514505326 $528 -43.273693596487718 $526 $696 forward 7 unknown #
vertex $-1 $369 $697 #
vertex $-1 $525 $698 #
straight-curve $-1 0 -43.273693596487718 -20.602778922452671 1 0 0 I I #
straight-curve $-1 65.61723685415204 -43.273693596487718 0 0 0 1 I I #
coedge $-1 $368 $694 $370 $536 reversed $533 $-1 #
loop $-1 $-1 $368 $519 #
straight-curve $-1 -65.61723685415204 -43.273693596487718 0 0 0 -1 I I #
coedge $-1 $371 $370 $699 $700 forward $360 $-1 #
edge $-1 $372 -11.392600459008804 $701 11.392600459008804 $532 $702 forward 7 unknown #
edge $-1 $703 -11.392600459008804 $373 11.392600459008804 $522 $704 forward 7 unknown #
point $-1 -65.61723685415204 -43.273693596487718 -8.3132939176946365 #
point $-1 65.61723685415204 -43.273693596487718 -8.3132939176946365 #
loop $-1 $-1 $383 $375 #
plane-surface $-1 -65.61723685415204 0 0 1 0 0 0 0 -1 forward_v I I I I #
coedge $-1 $543 $378 $380 $547 reversed $231 $-1 #
coedge $-1 $378 $542 $705 $706 reversed $231 $-1 #
coedge $-1 $386 $381 $378 $545 forward $376 $-1 #
edge $-1 $548 -30.275326713274325 $707 -15.180791178530555 $544 $708 forward 7 unknown #
coedge $-1 $380 $379 $551 $709 reversed $145 $-1 #
edge $-1 $710 -4.1469026767552634e-014 $548 22.132803559112659 $542 $711 forward 7 unknown #
vertex $-1 $382 $712 #
straight-curve $-1 -50.52270131940827 2.6210954201573848 20.602778922452671 0 1 0 I I #
coedge $-1 $705 $383 $386 $555 reversed $540 $-1 #
coedge $-1 $383 $705 $546 $709 forward $540 $-1 #
vertex $-1 $384 $713 #
straight-curve $-1 -65.61723685415204 -1.3217124353398191 46.958782809501358 0 0 1 I I #
straight-curve $-1 -65.617236854152011 -1.3217124353398191 4.4158709293667613 -0.68199835119979291 0 -0.73135370988377701 I I #
edge $-1 $707 -11.806094115969358 $387 1.3217124353398191 $550 $714 forward 7 unknown #
point $-1 -65.61723685415204 -1.3217124353398191 20.602778922452671 #
point $-1 -50.52270131940827 -1.3217124353398191 20.602778922452671 #
edge $-1 $715 1 $715 0 $390 $-1 forward 7 unknown #
vertex $-1 $391 $716 #
ellipse-curve $-1 -54.111124024114218 2.4290894364628031 8.817642270983848 -0.73135370988377701 0 0.68199835119979291 1.0229975267996894 0 1.0970305648256655 1 I I #
point $-1 -57.046971559980491 2.4290894364628031 13.606355490735387 #
edge $-1 $717 1 $717 0 $394 $-1 forward 7 unknown #
vertex $-1 $395 $718 #
ellipse-curve $-1 -54.111124024114218 8.0552922441667363 8.817642270983848 -0.73135370988377701 0 0.68199835119979291 1.0229975267996894 0 1.0970305648256655 1 I I #
point $-1 -57.046971559980491 8.0552922441667363 13.606355490735387 #
plane-surface $-1 0 0 20.602778922452671 0 0 1 1 0 0 forward_v I I I I #
coedge $-1 $577 $576 $569 $719 forward $399 $-1 #
coedge $-1 $569 $401 $403 $573 reversed $253 $-1 #
coedge $-1 $401 $568 $567 $719 reversed $253 $-1 #
coedge $-1 $409 $404 $401 $571 forward $410 $-1 #
edge $-1 $574 28.297061630371353 $720 50.515079193665422 $570 $721 forward 7 unknown #
coedge $-1 $403 $402 $577 $722 reversed $159 $-1 #
edge $-1 $723 -131.23447370830408 $574 -104.43470198481691 $568 $724 forward 7 unknown #
vertex $-1 $405 $725 #
straight-curve $-1 43.399219290857971 -6.1086772509826162 20.602778922452671 0 -1 0 I I #
coedge $-1 $567 $406 $409 $581 reversed $399 $-1 #
coedge $-1 $406 $567 $572 $722 forward $399 $-1 #
vertex $-1 $407 $726 #
straight-curve $-1 65.61723685415204 -7.3329320734818548 93.900116391393453 0 0 1 I I #
straight-curve $-1 -43.181072021195192 -7.3329320734818548 79.001923907439675 0.82903756765294845 0 -0.55919291073839883 I I #
edge $-1 $720 -17.101776930448608 $411 -7.3329320734818548 $576 $727 forward 7 unknown #
point $-1 65.61723685415204 -7.3329320734818548 20.602778922452671 #
point $-1 43.399219290857971 -7.3329320734818548 20.602778922452671 #
edge $-1 $728 1 $728 0 $414 $-1 forward 7 unknown #
vertex $-1 $415 $729 #
ellipse-curve $-1 53.536846484955646 -14.310678399886683 11.669525343861787 0.55919291073839883 0 0.82903756765294845 0.82903756765294845 0 -0.55919291073839883 1 I I #
point $-1 55.337265640157945 -14.310678399886683 12.550464833123566 #
edge $-1 $730 1 $730 0 $418 $-1 forward 7 unknown #
vertex $-1 $419 $731 #
ellipse-curve $-1 53.536846484955646 -10.124030604043789 11.669525343861787 0.55919291073839883 0 0.82903756765294845 0.82903756765294845 0 -0.55919291073839883 1 I I #
point $-1 55.337265640157945 -10.124030604043789 12.550464833123566 #
plane-surface $-1 0 0 20.602778922452671 0 0 1 1 0 0 forward_v I I I I #
coedge $-1 $603 $602 $595 $732 forward $423 $-1 #
coedge $-1 $595 $425 $427 $599 reversed $275 $-1 #
coedge $-1 $425 $594 $593 $732 reversed $275 $-1 #
coedge $-1 $433 $428 $425 $597 forward $434 $-1 #
edge $-1 $600 28.297061630371353 $733 50.515079193665422 $596 $734 forward 7 unknown #
coedge $-1 $427 $426 $603 $735 reversed $173 $-1 #
edge $-1 $736 -131.23447370830408 $600 -104.43470198481691 $594 $737 forward 7 unknown #
vertex $-1 $429 $738 #
straight-curve $-1 43.399219290857971 1.7613077360087317 20.602778922452671 0 -1 0 I I #
coedge $-1 $593 $430 $433 $607 reversed $423 $-1 #
coedge $-1 $430 $593 $598 $735 forward $423 $-1 #
vertex $-1 $431 $739 #
straight-curve $-1 65.61723685415204 8.4070379005008409 93.900116391393453 0 0 1 I I #
straight-curve $-1 -43.181072021195192 8.4070379005008409 79.001923907439675 0.82903756765294845 0 -0.55919291073839883 I I #
edge $-1 $733 -1.3618069564659141 $435 8.4070379005008409 $602 $740 forward 7 unknown #
point $-1 65.61723685415204 8.4070379005008409 20.602778922452671 #
point $-1 43.399219290857971 8.4070379005008409 20.602778922452671 #
edge $-1 $741 1 $741 0 $438 $-1 forward 7 unknown #
vertex $-1 $439 $742 #
ellipse-curve $-1 53.536846484955646 1.4292915740960126 11.669525343861787 0.55919291073839883 0 0.82903756765294845 0.82903756765294845 0 -0.55919291073839883 1 I I #
point $-1 55.337265640157945 1.4292915740960126 12.550464833123566 #
edge $-1 $743 1 $743 0 $442 $-1 forward 7 unknown #
vertex $-1 $443 $744 #
ellipse-curve $-1 53.536846484955646 5.6159393699389071 11.669525343861787 0.55919291073839883 0 0.82903756765294845 0.82903756765294845 0 -0.55919291073839883 1 I I #
point $-1 55.337265640157945 5.6159393699389071 12.550464833123566 #
plane-surface $-1 0 0 20.602778922452671 0 0 1 1 0 0 forward_v I I I I #
coedge $-1 $629 $628 $621 $745 forward $447 $-1 #
coedge $-1 $621 $449 $451 $625 reversed $297 $-1 #
coedge $-1 $449 $620 $619 $745 reversed $297 $-1 #
coedge $-1 $457 $452 $449 $623 forward $458 $-1 #
edge $-1 $626 28.297061630371353 $746 50.515079193665422 $622 $747 forward 7 unknown #
coedge $-1 $451 $450 $629 $748 reversed $187 $-1 #
edge $-1 $749 -131.23447370830408 $626 -104.43470198481691 $620 $750 forward 7 unknown #
vertex $-1 $453 $751 #
straight-curve $-1 43.399219290857971 9.6312927230000795 20.602778922452671 0 -1 0 I I #
coedge $-1 $619 $454 $457 $633 reversed $447 $-1 #
coedge $-1 $454 $619 $624 $748 forward $447 $-1 #
vertex $-1 $455 $752 #
straight-curve $-1 65.61723685415204 24.147007874483535 93.900116391393453 0 0 1 I I #
straight-curve $-1 -43.181072021195192 24.147007874483535 79.001923907439675 0.82903756765294845 0 -0.55919291073839883 I I #
edge $-1 $746 14.378163017516782 $459 24.147007874483535 $628 $753 forward 7 unknown #
point $-1 65.61723685415204 24.147007874483535 20.602778922452671 #
point $-1 43.399219290857971 24.147007874483535 20.602778922452671 #
edge $-1 $754 1 $754 0 $462 $-1 forward 7 unknown #
vertex $-1 $463 $755 #
ellipse-curve $-1 53.536846484955646 17.169261548078708 11.669525343861787 0.55919291073839883 0 0.82903756765294845 0.82903756765294845 0 -0.55919291073839883 1 I I #
point $-1 55.337265640157945 17.169261548078708 12.550464833123566 #
edge $-1 $756 1 $756 0 $466 $-1 forward 7 unknown #
vertex $-1 $467 $757 #
ellipse-curve $-1 53.536846484955646 21.355909343921596 11.669525343861787 0.55919291073839883 0 0.82903756765294845 0.82903756765294845 0 -0.55919291073839883 1 I I #
point $-1 55.337265640157945 21.355909343921596 12.550464833123566 #
plane-surface $-1 0 0 20.602778922452671 0 0 1 1 0 0 forward_v I I I I #
coedge $-1 $655 $654 $647 $758 forward $471 $-1 #
coedge $-1 $647 $473 $475 $651 reversed $319 $-1 #
coedge $-1 $473 $646 $645 $758 reversed $319 $-1 #
coedge $-1 $481 $476 $473 $649 forward $482 $-1 #
edge $-1 $652 28.297061630371353 $759 50.515079193665422 $648 $760 forward 7 unknown #
coedge $-1 $475 $474 $655 $761 reversed $201 $-1 #
edge $-1 $762 -131.23447370830408 $652 -104.43470198481691 $646 $763 forward 7 unknown #
vertex $-1 $477 $764 #
straight-curve $-1 43.399219290857971 17.501277709991427 20.602778922452671 0 -1 0 I I #
coedge $-1 $645 $478 $481 $659 reversed $471 $-1 #
coedge $-1 $478 $645 $650 $761 forward $471 $-1 #
vertex $-1 $479 $765 #
straight-curve $-1 65.61723685415204 39.886977848466231 93.900116391393453 0 0 1 I I #
straight-curve $-1 -43.181072021195192 39.886977848466231 79.001923907439675 0.82903756765294845 0 -0.55919291073839883 I I #
edge $-1 $759 30.118132991499479 $483 39.886977848466231 $654 $766 forward 7 unknown #
point $-1 65.61723685415204 39.886977848466231 20.602778922452671 #
point $-1 43.399219290857971 39.886977848466231 20.602778922452671 #
edge $-1 $767 1 $767 0 $486 $-1 forward 7 unknown #
vertex $-1 $487 $768 #
ellipse-curve $-1 53.536846484955646 32.909231522061404 11.669525343861787 0.55919291073839883 0 0.82903756765294845 0.82903756765294845 0 -0.55919291073839883 1 I I #
point $-1 55.337265640157945 32.909231522061404 12.550464833123566 #
edge $-1 $769 1 $769 0 $490 $-1 forward 7 unknown #
vertex $-1 $491 $770 #
ellipse-curve $-1 53.536846484955646 37.095879317904291 11.669525343861787 0.55919291073839883 0 0.82903756765294845 0.82903756765294845 0 -0.55919291073839883 1 I I #
point $-1 55.337265640157945 37.095879317904291 12.550464833123566 #
plane-surface $-1 65.61723685415204 0 0 -1 0 0 0 0 1 forward_v I I I I #
coedge $-1 $681 $497 $500 $674 reversed $341 $-1 #
edge $-1 $511 -20.602778922452671 $677 20.602778922452671 $510 $771 forward 7 unknown #
straight-curve $-1 65.61723685415204 -43.273693596487718 0 0 0 -1 I I #
edge $-1 $675 -43.273693596487718 $677 43.273693596487718 $671 $772 forward 7 unknown #
vertex $-1 $674 $773 #
straight-curve $-1 0 -43.273693596487718 -20.602778922452671 -1 0 0 I I #
vertex $-1 $503 $774 #
straight-curve $-1 0 43.273693596487718 -20.602778922452671 1 0 0 I I #
point $-1 65.61723685415204 43.273693596487718 -20.602778922452671 #
point $-1 65.61723685415204 -43.273693596487718 -20.602778922452671 #
coedge $-1 $507 $671 $513 $684 reversed $341 $-1 #
straight-curve $-1 -65.61723685415204 0 20.602778922452671 0 -1 0 I I #
point $-1 -65.61723685415204 43.273693596487718 20.602778922452671 #
edge $-1 $514 -20.602778922452671 $675 20.602778922452671 $681 $775 forward 7 unknown #
point $-1 -65.61723685415204 -43.273693596487718 20.602778922452671 #
straight-curve $-1 65.61723685415204 43.273693596487718 0 0 0 -1 I I #
plane-surface $-1 -65.61723685415204 0 0 1 0 0 0 0 -1 forward_v I I I I #
coedge $-1 $690 $699 $694 $776 forward $520 $-1 #
coedge $-1 $523 $522 $777 $778 forward $223 $-1 #
coedge $-1 $777 $688 $524 $691 reversed $520 $-1 #
edge $-1 $692 -65.61723685415204 $695 65.61723685415204 $690 $779 forward 7 unknown #
vertex $-1 $778 $780 #
straight-curve $-1 65.61723685415204 0 -20.602778922452671 0 -1 0 I I #
coedge $-1 $532 $526 $688 $776 reversed $533 $-1 #
vertex $-1 $527 $781 #
straight-curve $-1 -65.61723685415204 0 -20.602778922452671 0 1 0 I I #
point $-1 -65.61723685415204 -43.273693596487718 -20.602778922452671 #
point $-1 65.61723685415204 -43.273693596487718 -20.602778922452671 #
coedge $-1 $688 $777 $535 $700 reversed $520 $-1 #
edge $-1 $701 -65.61723685415204 $703 65.61723685415204 $699 $782 forward 7 unknown #
vertex $-1 $536 $783 #
straight-curve $-1 -65.61723685415204 -54.666294055496522 -8.3132939176946365 0 -1 0 I I #
vertex $-1 $537 $784 #
straight-curve $-1 65.61723685415204 -54.666294055496522 -8.3132939176946365 0 1 0 I I #
coedge $-1 $551 $550 $543 $706 forward $540 $-1 #
edge $-1 $707 26.356003887048686 $710 42.542911880134625 $705 $785 forward 7 unknown #
vertex $-1 $555 $786 #
straight-curve $-1 -80.798028032682595 11.806094115969358 20.602778922452671 -1 0 0 I I #
edge $-1 $710 -9.1849986958119736 $552 3.9428078554972039 $551 $787 forward 7 unknown #
vertex $-1 $709 $788 #
straight-curve $-1 -65.617236854152011 11.806094115969358 4.4158709293667613 0.68199835119979291 0 0.73135370988377701 I I #
point $-1 -50.52270131940827 11.806094115969358 20.602778922452671 #
point $-1 -65.61723685415204 -1.3217124353398191 4.4158709293667311 #
straight-curve $-1 -65.61723685415204 0 20.602778922452671 0 -1 0 I I #
vertex $-1 $558 $789 #
point $-1 -53.088126497314526 2.4290894364628031 9.9146728358095135 #
vertex $-1 $562 $790 #
point $-1 -53.088126497314526 8.0552922441667363 9.9146728358095135 #
edge $-1 $720 73.297337468940782 $723 88.283579826122207 $567 $791 forward 7 unknown #
vertex $-1 $581 $792 #
straight-curve $-1 15.102157660486618 -17.101776930448608 20.602778922452671 1 0 0 I I #
edge $-1 $723 -10.993099679465992 $578 -1.2242548224992387 $577 $793 forward 7 unknown #
vertex $-1 $722 $794 #
straight-curve $-1 -43.181072021195192 -17.101776930448608 79.001923907439675 -0.82903756765294845 0 0.55919291073839883 I I #
point $-1 43.399219290857971 -17.101776930448608 20.602778922452671 #
point $-1 65.61723685415204 -7.3329320734818548 5.6165365652712467 #
straight-curve $-1 65.61723685415204 0 20.602778922452671 0 1 0 I I #
vertex $-1 $584 $795 #
point $-1 54.365884052608592 -14.310678399886683 11.110332433123387 #
vertex $-1 $588 $796 #
point $-1 54.365884052608592 -10.124030604043789 11.110332433123387 #
edge $-1 $733 73.297337468940782 $736 88.283579826122207 $593 $797 forward 7 unknown #
vertex $-1 $607 $798 #
straight-curve $-1 15.102157660486618 -1.3618069564659141 20.602778922452671 1 0 0 I I #
edge $-1 $736 -3.1231146924746458 $604 6.6457301644921092 $603 $799 forward 7 unknown #
vertex $-1 $735 $800 #
straight-curve $-1 -43.181072021195192 -1.3618069564659141 79.001923907439675 -0.82903756765294845 0 0.55919291073839883 I I #
point $-1 43.399219290857971 -1.3618069564659141 20.602778922452671 #
point $-1 65.61723685415204 8.4070379005008409 5.6165365652712467 #
straight-curve $-1 65.61723685415204 0 20.602778922452671 0 1 0 I I #
vertex $-1 $610 $801 #
point $-1 54.365884052608592 1.4292915740960126 11.110332433123387 #
vertex $-1 $614 $802 #
point $-1 54.365884052608592 5.6159393699389071 11.110332433123387 #
edge $-1 $746 73.297337468940782 $749 88.283579826122207 $619 $803 forward 7 unknown #
vertex $-1 $633 $804 #
straight-curve $-1 15.102157660486618 14.378163017516782 20.602778922452671 1 0 0 I I #
edge $-1 $749 4.7468702945167021 $630 14.515715151483455 $629 $805 forward 7 unknown #
vertex $-1 $748 $806 #
straight-curve $-1 -43.181072021195192 14.378163017516782 79.001923907439675 -0.82903756765294845 0 0.55919291073839883 I I #
point $-1 43.399219290857971 14.378163017516782 20.602778922452671 #
point $-1 65.61723685415204 24.147007874483535 5.6165365652712467 #
straight-curve $-1 65.61723685415204 0 20.602778922452671 0 1 0 I I #
vertex $-1 $636 $807 #
point $-1 54.365884052608592 17.169261548078708 11.110332433123387 #
vertex $-1 $640 $808 #
point $-1 54.365884052608592 21.355909343921596 11.110332433123387 #
edge $-1 $759 73.297337468940782 $762 88.283579826122207 $645 $809 forward 7 unknown #
vertex $-1 $659 $810 #
straight-curve $-1 15.102157660486618 30.118132991499479 20.602778922452671 1 0 0 I I #
edge $-1 $762 12.616855281508052 $656 22.385700138474803 $655 $811 forward 7 unknown #
vertex $-1 $761 $812 #
straight-curve $-1 -43.181072021195192 30.118132991499479 79.001923907439675 -0.82903756765294845 0 0.55919291073839883 I I #
point $-1 43.399219290857971 30.118132991499479 20.602778922452671 #
point $-1 65.61723685415204 39.886977848466231 5.6165365652712467 #
straight-curve $-1 65.61723685415204 0 20.602778922452671 0 1 0 I I #
vertex $-1 $662 $813 #
point $-1 54.365884052608592 32.909231522061404 11.110332433123387 #
vertex $-1 $666 $814 #
point $-1 54.365884052608592 37.095879317904291 11.110332433123387 #
straight-curve $-1 -65.61723685415204 43.273693596487718 0 0 0 -1 I I #
straight-curve $-1 -65.61723685415204 0 -20.602778922452671 0 1 0 I I #
point $-1 -65.61723685415204 -43.273693596487718 -20.602778922452671 #
point $-1 -65.61723685415204 43.273693596487718 -20.602778922452671 #
straight-curve $-1 -65.61723685415204 -43.273693596487718 0 0 0 -1 I I #
edge $-1 $701 -6.1447425023790174 $695 6.1447425023790174 $694 $815 forward 7 unknown #
coedge $-1 $699 $690 $689 $778 reversed $520 $-1 #
edge $-1 $703 -6.1447425023790174 $692 6.1447425023790174 $689 $816 forward 7 unknown #
straight-curve $-1 0 -66.058894514505326 -20.602778922452671 -1 0 0 I I #
point $-1 65.61723685415204 -66.058894514505326 -20.602778922452671 #
point $-1 -65.61723685415204 -66.058894514505326 -20.602778922452671 #
straight-curve $-1 0 -66.058894514505326 -8.3132939176946365 1 0 0 I I #
point $-1 -65.61723685415204 -66.058894514505326 -8.3132939176946365 #
point $-1 65.61723685415204 -66.058894514505326 -8.3132939176946365 #
straight-curve $-1 -65.61723685415204 11.806094115969358 46.958782809501358 0 0 -1 I I #
point $-1 -65.61723685415204 11.806094115969358 20.602778922452671 #
straight-curve $-1 -65.61723685415204 2.6210954201573848 4.4158709293667364 0 -1 0 I I #
point $-1 -65.61723685415204 11.806094115969358 4.4158709293667311 #
point $-1 -53.014093459288546 2.4290894364628031 7.7946447441841595 #
point $-1 -53.014093459288546 8.0552922441667363 7.7946447441841595 #
straight-curve $-1 65.61723685415204 -17.101776930448608 93.900116391393453 0 0 -1 I I #
point $-1 65.61723685415204 -17.101776930448608 20.602778922452671 #
straight-curve $-1 65.617236854152054 -6.1086772509826162 5.6165365652712325 0 1 0 I I #
point $-1 65.61723685415204 -17.101776930448608 5.6165365652712467 #
point $-1 52.977653574217243 -14.310678399886683 10.840487776208837 #
point $-1 52.977653574217243 -10.124030604043789 10.840487776208837 #
straight-curve $-1 65.61723685415204 -1.3618069564659141 93.900116391393453 0 0 -1 I I #
point $-1 65.61723685415204 -1.3618069564659141 20.602778922452671 #
straight-curve $-1 65.617236854152054 1.7613077360087317 5.6165365652712325 0 1 0 I I #
point $-1 65.61723685415204 -1.3618069564659141 5.6165365652712467 #
point $-1 52.977653574217243 1.4292915740960126 10.840487776208837 #
point $-1 52.977653574217243 5.6159393699389071 10.840487776208837 #
straight-curve $-1 65.61723685415204 14.378163017516782 93.900116391393453 0 0 -1 I I #
point $-1 65.61723685415204 14.378163017516782 20.602778922452671 #
straight-curve $-1 65.617236854152054 9.6312927230000795 5.6165365652712325 0 1 0 I I #
point $-1 65.61723685415204 14.378163017516782 5.6165365652712467 #
point $-1 52.977653574217243 17.169261548078708 10.840487776208837 #
point $-1 52.977653574217243 21.355909343921596 10.840487776208837 #
straight-curve $-1 65.61723685415204 30.118132991499479 93.900116391393453 0 0 -1 I I #
point $-1 65.61723685415204 30.118132991499479 20.602778922452671 #
straight-curve $-1 65.617236854152054 17.501277709991427 5.6165365652712325 0 1 0 I I #
point $-1 65.61723685415204 30.118132991499479 5.6165365652712467 #
point $-1 52.977653574217243 32.909231522061404 10.840487776208837 #
point $-1 52.977653574217243 37.095879317904291 10.840487776208837 #
straight-curve $-1 -65.61723685415204 -66.058894514505326 -14.458036420073654 0 0 -1 I I #
straight-curve $-1 65.61723685415204 -66.058894514505326 -14.458036420073654 0 0 -1 I I #
End-of-ACIS-data 