500 0 15 0           
7 Unknown 11 ACIS 5.0 NT 24 Fri Mar 26 01:37:16 1999 
-1 9.9999999999999995e-007 1e-010 
body $-1 $15 $-1 $16 #
body $-1 $17 $-1 $18 #
body $-1 $19 $-1 $20 #
body $-1 $21 $-1 $22 #
body $-1 $23 $-1 $24 #
body $-1 $25 $-1 $26 #
body $-1 $27 $-1 $28 #
body $-1 $29 $-1 $30 #
body $-1 $31 $-1 $32 #
body $-1 $33 $-1 $34 #
body $-1 $35 $-1 $36 #
body $-1 $37 $-1 $38 #
body $-1 $39 $-1 $40 #
body $-1 $41 $-1 $42 #
body $-1 $43 $-1 $44 #
lump $-1 $-1 $45 $0 #
transform $-1 1 0 0 0 1 0 0 0 1 45.697195348979157 19.578794390233575 7.8287094326694335 1 rotate no_reflect no_shear #
lump $-1 $-1 $46 $1 #
transform $-1 1 0 0 0 1 0 0 0 1 45.697195348979157 19.578794390233575 7.8287094326694335 1 rotate no_reflect no_shear #
lump $-1 $-1 $47 $2 #
transform $-1 1 0 0 0 1 0 0 0 1 45.697195348979157 19.578794390233575 7.8287094326694335 1 rotate no_reflect no_shear #
lump $-1 $-1 $48 $3 #
transform $-1 1 0 0 0 1 0 0 0 1 45.697195348979157 19.578794390233575 7.8287094326694335 1 rotate no_reflect no_shear #
lump $-1 $-1 $49 $4 #
transform $-1 1 0 0 0 1 0 0 0 1 45.697195348979157 19.578794390233575 7.8287094326694335 1 rotate no_reflect no_shear #
lump $-1 $-1 $50 $5 #
transform $-1 1 0 0 0 1 0 0 0 1 45.697195348979157 19.578794390233575 7.8287094326694335 1 rotate no_reflect no_shear #
lump $-1 $-1 $51 $6 #
transform $-1 1 0 0 0 1 0 0 0 1 45.697195348979157 19.578794390233575 7.8287094326694335 1 rotate no_reflect no_shear #
lump $-1 $-1 $52 $7 #
transform $-1 1 0 0 0 1 0 0 0 1 45.697195348979157 19.578794390233575 7.8287094326694335 1 rotate no_reflect no_shear #
lump $-1 $-1 $53 $8 #
transform $-1 1 0 0 0 1 0 0 0 1 45.697195348979157 19.578794390233575 7.8287094326694335 1 rotate no_reflect no_shear #
lump $-1 $-1 $54 $9 #
transform $-1 1 0 0 0 1 0 0 0 1 45.697195348979157 19.578794390233575 7.8287094326694335 1 rotate no_reflect no_shear #
lump $-1 $-1 $55 $10 #
transform $-1 1 0 0 0 1 0 0 0 1 45.697195348979157 19.578794390233575 7.8287094326694335 1 rotate no_reflect no_shear #
lump $-1 $-1 $56 $11 #
transform $-1 1 0 0 0 1 0 0 0 1 45.697195348979157 19.578794390233575 7.8287094326694335 1 rotate no_reflect no_shear #
lump $-1 $-1 $57 $12 #
transform $-1 1 0 0 0 1 0 0 0 1 45.697195348979157 19.578794390233575 7.8287094326694335 1 rotate no_reflect no_shear #
lump $-1 $-1 $58 $13 #
transform $-1 1 0 0 0 1 0 0 0 1 45.697195348979157 19.578794390233575 7.8287094326694335 1 rotate no_reflect no_shear #
lump $-1 $-1 $59 $14 #
transform $-1 1 0 0 0 1 0 0 0 1 45.697195348979157 19.578794390233575 7.8287094326694335 1 rotate no_reflect no_shear #
shell $-1 $-1 $-1 $60 $-1 $15 #
shell $-1 $-1 $-1 $61 $-1 $17 #
shell $-1 $-1 $-1 $62 $-1 $19 #
shell $-1 $-1 $-1 $63 $-1 $21 #
shell $-1 $-1 $-1 $64 $-1 $23 #
shell $-1 $-1 $-1 $65 $-1 $25 #
shell $-1 $-1 $-1 $66 $-1 $27 #
shell $-1 $-1 $-1 $67 $-1 $29 #
shell $-1 $-1 $-1 $68 $-1 $31 #
shell $-1 $-1 $-1 $69 $-1 $33 #
shell $-1 $-1 $-1 $70 $-1 $35 #
shell $-1 $-1 $-1 $71 $-1 $37 #
shell $-1 $-1 $-1 $72 $-1 $39 #
shell $-1 $-1 $-1 $73 $-1 $41 #
shell $-1 $-1 $-1 $74 $-1 $43 #
face $-1 $75 $76 $45 $-1 $77 forward single #
face $-1 $78 $79 $46 $-1 $80 forward single #
face $-1 $81 $82 $47 $-1 $83 reversed single #
face $-1 $84 $85 $48 $-1 $86 forward single #
face $-1 $87 $88 $49 $-1 $89 forward single #
face $-1 $90 $91 $50 $-1 $92 reversed single #
face $-1 $93 $94 $51 $-1 $95 forward single #
face $-1 $96 $97 $52 $-1 $98 forward single #
face $-1 $99 $100 $53 $-1 $101 reversed single #
face $-1 $102 $103 $54 $-1 $104 forward single #
face $-1 $105 $106 $55 $-1 $107 forward single #
face $-1 $108 $109 $56 $-1 $110 reversed single #
face $-1 $111 $112 $57 $-1 $113 forward single #
face $-1 $114 $115 $58 $-1 $116 forward single #
face $-1 $117 $118 $59 $-1 $119 forward single #
face $-1 $120 $121 $45 $-1 $122 reversed single #
loop $-1 $-1 $123 $60 #
plane-surface $-1 0 0 7.8287094326694335 0 0 1 1 0 0 forward_v I I I I #
face $-1 $124 $125 $46 $-1 $126 reversed single #
loop $-1 $-1 $127 $61 #
plane-surface $-1 0 -14.904540940841919 -3.4168357197017052 0 0 1 1 0 0 forward_v I I I I #
face $-1 $128 $129 $47 $-1 $130 reversed single #
loop $-1 $-1 $131 $62 #
plane-surface $-1 -123.20403510402548 -6.2792906047780486 52.708474567711583 0 1 0 -0.84804810408105047 0 0.52991925155115449 forward_v I I I I #
face $-1 $132 $133 $48 $-1 $134 forward single #
loop $-1 $135 $136 $63 #
cone-surface $-1 -44.163440238543131 -4.5691866789049822 5.7878088170970026 0.84804810408105047 0 -0.52991925155115449 0.26495962577557725 0 0.42402405204052523 1 I I 0 1 0.5 forward I I I I #
face $-1 $137 $138 $49 $-1 $139 forward single #
loop $-1 $140 $141 $64 #
cone-surface $-1 -44.163440238543131 -2.0040307900953813 5.7878088170970026 0.84804810408105047 0 -0.52991925155115449 0.26495962577557725 0 0.42402405204052523 1 I I 0 1 0.5 forward I I I I #
face $-1 $142 $143 $50 $-1 $144 reversed single #
loop $-1 $-1 $145 $65 #
plane-surface $-1 -123.20403510402548 3.6570700224498962 52.708474567711583 0 1 0 -0.84804810408105047 0 0.52991925155115449 forward_v I I I I #
face $-1 $146 $147 $51 $-1 $148 forward single #
loop $-1 $149 $150 $66 #
cone-surface $-1 -44.163440238543131 5.3671739483229643 5.7878088170970026 0.84804810408105047 0 -0.52991925155115449 0.26495962577557725 0 0.42402405204052523 1 I I 0 1 0.5 forward I I I I #
face $-1 $151 $152 $52 $-1 $153 forward single #
loop $-1 $154 $155 $67 #
cone-surface $-1 -44.163440238543131 7.9323298371325635 5.7878088170970026 0.84804810408105047 0 -0.52991925155115449 0.26495962577557725 0 0.42402405204052523 1 I I 0 1 0.5 forward I I I I #
face $-1 $156 $157 $53 $-1 $158 reversed single #
loop $-1 $-1 $159 $68 #
plane-surface $-1 -123.20403510402548 13.593430649677845 52.708474567711583 0 1 0 -0.84804810408105047 0 0.52991925155115449 forward_v I I I I #
face $-1 $160 $161 $54 $-1 $162 forward single #
loop $-1 $163 $164 $69 #
cone-surface $-1 -44.163440238543131 15.303534575550913 5.7878088170970026 0.84804810408105047 0 -0.52991925155115449 0.26495962577557725 0 0.42402405204052523 1 I I 0 1 0.5 forward I I I I #
face $-1 $165 $166 $55 $-1 $167 forward single #
loop $-1 $168 $169 $70 #
cone-surface $-1 -44.163440238543131 17.868690464360512 5.7878088170970026 0.84804810408105047 0 -0.52991925155115449 0.26495962577557725 0 0.42402405204052523 1 I I 0 1 0.5 forward I I I I #
face $-1 $170 $171 $56 $-1 $172 reversed single #
loop $-1 $-1 $173 $71 #
plane-surface $-1 43.441452569668648 5.8861897023629908 130.74715046860172 0 -1 0 -0.69465837861970381 0 -0.71933979245794832 forward_v I I I I #
face $-1 $174 $175 $57 $-1 $176 forward single #
loop $-1 $177 $178 $72 #
cone-surface $-1 41.947979086653028 -0.81507242478932085 4.1745721001906233 -0.69465837861970381 0 -0.71933979245794832 0.35966989622897416 0 -0.3473291893098519 1 I I 0 1 0.5 forward I I I I #
face $-1 $179 $180 $58 $-1 $181 forward single #
loop $-1 $182 $183 $73 #
cone-surface $-1 41.947979086653028 1.6979008728927951 4.1745721001906233 -0.69465837861970381 0 -0.71933979245794832 0.35966989622897416 0 -0.3473291893098519 1 I I 0 1 0.5 forward I I I I #
face $-1 $184 $185 $59 $-1 $186 forward single #
loop $-1 $187 $188 $74 #
cone-surface $-1 41.947979086653028 4.2108741705749111 4.1745721001906233 -0.69465837861970381 0 -0.71933979245794832 0.35966989622897416 0 -0.3473291893098519 1 I I 0 1 0.5 forward I I I I #
face $-1 $189 $190 $45 $-1 $191 reversed single #
loop $-1 $-1 $192 $75 #
plane-surface $-1 0 0 -7.8287094326694335 0 0 1 1 0 0 forward_v I I I I #
coedge $-1 $193 $194 $195 $196 forward $76 $-1 #
face $-1 $197 $198 $46 $-1 $199 reversed single #
loop $-1 $-1 $200 $78 #
plane-surface $-1 0 -14.904540940841919 -6.4168357197017052 0 0 1 1 0 0 forward_v I I I I #
coedge $-1 $201 $202 $203 $204 reversed $79 $-1 #
face $-1 $205 $206 $47 $-1 $207 reversed single #
loop $-1 $-1 $208 $81 #
plane-surface $-1 -45.697195348979136 -3.2866087345001809 4.2768274530757182 -0.84804810408105047 0 0.52991925155115449 0.52991925155115449 0 0.84804810408105047 forward_v I I I I #
coedge $-1 $209 $210 $211 $212 reversed $82 $-1 #
face $-1 $-1 $213 $48 $-1 $214 forward single #
loop $-1 $215 $216 $84 #
cone-surface $-1 -43.527404160482341 -4.5691866789049822 5.3903693784336371 0.84804810408105047 0 -0.52991925155115449 0.13247981288778862 0 0.21201202602026262 1 I I -0.70710678118654746 0.70710678118654746 0.25 forward I I I I #
loop $-1 $-1 $217 $63 #
coedge $-1 $136 $136 $218 $219 reversed $85 $-1 #
face $-1 $-1 $220 $49 $-1 $221 forward single #
loop $-1 $222 $223 $87 #
cone-surface $-1 -43.527404160482341 -2.0040307900953813 5.3903693784336371 0.84804810408105047 0 -0.52991925155115449 0.13247981288778862 0 0.21201202602026262 1 I I -0.70710678118654746 0.70710678118654746 0.25 forward I I I I #
loop $-1 $-1 $224 $64 #
coedge $-1 $141 $141 $225 $226 reversed $88 $-1 #
face $-1 $227 $228 $50 $-1 $229 reversed single #
loop $-1 $-1 $230 $90 #
plane-surface $-1 -45.697195348979136 6.6497518927277639 4.2768274530757182 -0.84804810408105047 0 0.52991925155115449 0.52991925155115449 0 0.84804810408105047 forward_v I I I I #
coedge $-1 $231 $232 $233 $234 reversed $91 $-1 #
face $-1 $-1 $235 $51 $-1 $236 forward single #
loop $-1 $237 $238 $93 #
cone-surface $-1 -43.527404160482341 5.3671739483229643 5.3903693784336371 0.84804810408105047 0 -0.52991925155115449 0.13247981288778862 0 0.21201202602026262 1 I I -0.70710678118654746 0.70710678118654746 0.25 forward I I I I #
loop $-1 $-1 $239 $66 #
coedge $-1 $150 $150 $240 $241 reversed $94 $-1 #
face $-1 $-1 $242 $52 $-1 $243 forward single #
loop $-1 $244 $245 $96 #
cone-surface $-1 -43.527404160482341 7.9323298371325635 5.3903693784336371 0.84804810408105047 0 -0.52991925155115449 0.13247981288778862 0 0.21201202602026262 1 I I -0.70710678118654746 0.70710678118654746 0.25 forward I I I I #
loop $-1 $-1 $246 $67 #
coedge $-1 $155 $155 $247 $248 reversed $97 $-1 #
face $-1 $249 $250 $53 $-1 $251 forward single #
loop $-1 $-1 $252 $99 #
plane-surface $-1 -45.697195348979136 16.586112519955712 4.2768274530757182 -0.84804810408105047 0 0.52991925155115449 0.52991925155115449 0 0.84804810408105047 forward_v I I I I #
coedge $-1 $253 $254 $255 $256 reversed $100 $-1 #
face $-1 $-1 $257 $54 $-1 $258 forward single #
loop $-1 $259 $260 $102 #
cone-surface $-1 -43.527404160482341 15.303534575550913 5.3903693784336371 0.84804810408105047 0 -0.52991925155115449 0.13247981288778862 0 0.21201202602026262 1 I I -0.70710678118654746 0.70710678118654746 0.25 forward I I I I #
loop $-1 $-1 $261 $69 #
coedge $-1 $164 $164 $262 $263 reversed $103 $-1 #
face $-1 $-1 $264 $55 $-1 $265 forward single #
loop $-1 $266 $267 $105 #
cone-surface $-1 -43.527404160482341 17.868690464360512 5.3903693784336371 0.84804810408105047 0 -0.52991925155115449 0.13247981288778862 0 0.21201202602026262 1 I I -0.70710678118654746 0.70710678118654746 0.25 forward I I I I #
loop $-1 $-1 $268 $70 #
coedge $-1 $169 $169 $269 $270 reversed $106 $-1 #
face $-1 $271 $272 $56 $-1 $273 reversed single #
loop $-1 $-1 $274 $108 #
plane-surface $-1 -20.046426687510817 1.6979008728927951 65.003528432111736 0.69465837861970381 0 0.71933979245794832 0.71933979245794832 0 -0.69465837861970381 forward_v I I I I #
coedge $-1 $275 $276 $277 $278 reversed $109 $-1 #
face $-1 $-1 $279 $57 $-1 $280 forward single #
loop $-1 $281 $282 $111 #
cone-surface $-1 41.293780790298889 -0.81507242478932085 3.4971299484659122 -0.69465837861970381 0 -0.71933979245794832 0.17983494811448708 0 -0.17366459465492595 1 I I -0.70710678118654746 0.70710678118654746 0.25 forward I I I I #
loop $-1 $-1 $283 $72 #
coedge $-1 $178 $178 $284 $285 reversed $112 $-1 #
face $-1 $-1 $286 $58 $-1 $287 forward single #
loop $-1 $288 $289 $114 #
cone-surface $-1 41.293780790298889 1.6979008728927951 3.4971299484659122 -0.69465837861970381 0 -0.71933979245794832 0.17983494811448708 0 -0.17366459465492595 1 I I -0.70710678118654746 0.70710678118654746 0.25 forward I I I I #
loop $-1 $-1 $290 $73 #
coedge $-1 $183 $183 $291 $292 reversed $115 $-1 #
face $-1 $-1 $293 $59 $-1 $294 forward single #
loop $-1 $295 $296 $117 #
cone-surface $-1 41.293780790298889 4.2108741705749111 3.4971299484659122 -0.69465837861970381 0 -0.71933979245794832 0.17983494811448708 0 -0.17366459465492595 1 I I -0.70710678118654746 0.70710678118654746 0.25 forward I I I I #
loop $-1 $-1 $297 $74 #
coedge $-1 $188 $188 $298 $299 reversed $118 $-1 #
face $-1 $300 $301 $45 $-1 $302 reversed single #
loop $-1 $-1 $303 $120 #
plane-surface $-1 0 -19.578794390233575 0 0 1 0 0 0 1 forward_v I I I I #
coedge $-1 $304 $305 $306 $307 forward $121 $-1 #
coedge $-1 $308 $123 $309 $310 forward $76 $-1 #
coedge $-1 $123 $308 $311 $312 forward $76 $-1 #
coedge $-1 $313 $314 $123 $196 reversed $315 $-1 #
edge $-1 $316 -19.578794390233575 $317 19.578794390233575 $195 $318 forward 7 unknown #
face $-1 $319 $320 $46 $-1 $321 reversed single #
loop $-1 $-1 $322 $124 #
plane-surface $-1 0 -10.230287491450262 -4.9168357197017052 0 -1 0 0 0 -1 forward_v I I I I #
coedge $-1 $323 $324 $325 $326 reversed $125 $-1 #
coedge $-1 $327 $127 $328 $329 forward $79 $-1 #
coedge $-1 $127 $327 $330 $331 reversed $79 $-1 #
coedge $-1 $332 $333 $127 $204 forward $334 $-1 #
edge $-1 $335 2.7780170210293029 $336 12.126523919812616 $203 $337 forward 7 unknown #
face $-1 $338 $339 $47 $-1 $340 reversed single #
loop $-1 $-1 $341 $128 #
plane-surface $-1 -123.20403510402548 -0.29392686422231318 52.708474567711583 0 -1 0 0.84804810408105047 0 -0.52991925155115449 forward_v I I I I #
coedge $-1 $342 $343 $344 $345 reversed $129 $-1 #
coedge $-1 $210 $131 $346 $347 reversed $82 $-1 #
coedge $-1 $131 $209 $342 $348 reversed $82 $-1 #
coedge $-1 $344 $349 $131 $212 forward $350 $-1 #
edge $-1 $351 15.904822203033582 $352 18.124284319824618 $211 $353 forward 7 unknown #
loop $-1 $-1 $218 $132 #
plane-surface $-1 -45.697195348979136 -3.2866087345001809 4.2768274530757182 -0.84804810408105047 0 0.52991925155115449 0.52991925155115449 0 0.84804810408105047 forward_v I I I I #
loop $-1 $-1 $354 $84 #
coedge $-1 $216 $216 $217 $355 reversed $133 $-1 #
coedge $-1 $217 $217 $216 $355 forward $135 $-1 #
coedge $-1 $218 $218 $136 $219 forward $213 $-1 #
edge $-1 $356 0 $356 6.2831853071796004 $218 $357 forward 7 unknown #
loop $-1 $-1 $225 $137 #
plane-surface $-1 -45.697195348979136 -3.2866087345001809 4.2768274530757182 -0.84804810408105047 0 0.52991925155115449 0.52991925155115449 0 0.84804810408105047 forward_v I I I I #
loop $-1 $-1 $358 $87 #
coedge $-1 $223 $223 $224 $359 reversed $138 $-1 #
coedge $-1 $224 $224 $223 $359 forward $140 $-1 #
coedge $-1 $225 $225 $141 $226 forward $220 $-1 #
edge $-1 $360 0 $360 6.2831853071796004 $225 $361 forward 7 unknown #
face $-1 $362 $363 $50 $-1 $364 forward single #
loop $-1 $-1 $365 $142 #
plane-surface $-1 -123.20403510402548 9.6424337630056307 52.708474567711583 0 -1 0 0.84804810408105047 0 -0.52991925155115449 forward_v I I I I #
coedge $-1 $366 $367 $368 $369 reversed $143 $-1 #
coedge $-1 $232 $145 $370 $371 reversed $91 $-1 #
coedge $-1 $145 $231 $366 $372 reversed $91 $-1 #
coedge $-1 $368 $373 $145 $234 forward $363 $-1 #
edge $-1 $374 15.904822203033582 $375 18.124284319824618 $233 $376 forward 7 unknown #
loop $-1 $-1 $240 $146 #
plane-surface $-1 -45.697195348979136 6.6497518927277639 4.2768274530757182 -0.84804810408105047 0 0.52991925155115449 0.52991925155115449 0 0.84804810408105047 forward_v I I I I #
loop $-1 $-1 $377 $93 #
coedge $-1 $238 $238 $239 $378 reversed $147 $-1 #
coedge $-1 $239 $239 $238 $378 forward $149 $-1 #
coedge $-1 $240 $240 $150 $241 forward $235 $-1 #
edge $-1 $379 0 $379 6.2831853071796004 $240 $380 forward 7 unknown #
loop $-1 $-1 $247 $151 #
plane-surface $-1 -45.697195348979136 6.6497518927277639 4.2768274530757182 -0.84804810408105047 0 0.52991925155115449 0.52991925155115449 0 0.84804810408105047 forward_v I I I I #
loop $-1 $-1 $381 $96 #
coedge $-1 $245 $245 $246 $382 reversed $152 $-1 #
coedge $-1 $246 $246 $245 $382 forward $154 $-1 #
coedge $-1 $247 $247 $155 $248 forward $242 $-1 #
edge $-1 $383 0 $383 6.2831853071796004 $247 $384 forward 7 unknown #
face $-1 $385 $386 $53 $-1 $387 reversed single #
loop $-1 $-1 $255 $156 #
plane-surface $-1 0 0 7.8287094326694335 0 0 1 1 0 0 forward_v I I I I #
coedge $-1 $388 $389 $390 $391 reversed $157 $-1 #
coedge $-1 $254 $159 $392 $393 reversed $100 $-1 #
coedge $-1 $159 $253 $388 $394 reversed $100 $-1 #
coedge $-1 $390 $395 $159 $256 forward $250 $-1 #
edge $-1 $396 15.904822203033582 $397 18.124284319824618 $255 $398 forward 7 unknown #
loop $-1 $-1 $262 $160 #
plane-surface $-1 -45.697195348979136 16.586112519955712 4.2768274530757182 -0.84804810408105047 0 0.52991925155115449 0.52991925155115449 0 0.84804810408105047 forward_v I I I I #
loop $-1 $-1 $399 $102 #
coedge $-1 $260 $260 $261 $400 reversed $161 $-1 #
coedge $-1 $261 $261 $260 $400 forward $163 $-1 #
coedge $-1 $262 $262 $164 $263 forward $257 $-1 #
edge $-1 $401 0 $401 6.2831853071796004 $262 $402 forward 7 unknown #
loop $-1 $-1 $269 $165 #
plane-surface $-1 -45.697195348979136 16.586112519955712 4.2768274530757182 -0.84804810408105047 0 0.52991925155115449 0.52991925155115449 0 0.84804810408105047 forward_v I I I I #
loop $-1 $-1 $403 $105 #
coedge $-1 $267 $267 $268 $404 reversed $166 $-1 #
coedge $-1 $268 $268 $267 $404 forward $168 $-1 #
coedge $-1 $269 $269 $169 $270 forward $264 $-1 #
edge $-1 $405 0 $405 6.2831853071796004 $269 $406 forward 7 unknown #
face $-1 $407 $408 $56 $-1 $409 reversed single #
loop $-1 $-1 $410 $170 #
plane-surface $-1 43.441452569668648 -2.4903879565774005 130.74715046860172 0 1 0 0.69465837861970381 0 0.71933979245794832 forward_v I I I I #
coedge $-1 $411 $412 $413 $414 reversed $171 $-1 #
coedge $-1 $276 $173 $415 $416 reversed $109 $-1 #
coedge $-1 $173 $275 $411 $417 reversed $109 $-1 #
coedge $-1 $413 $418 $173 $278 forward $419 $-1 #
edge $-1 $420 -23.976469064144833 $421 -17.439103942891027 $277 $422 forward 7 unknown #
loop $-1 $-1 $284 $174 #
plane-surface $-1 -20.046426687510817 1.6979008728927951 65.003528432111736 0.69465837861970381 0 0.71933979245794832 0.71933979245794832 0 -0.69465837861970381 forward_v I I I I #
loop $-1 $-1 $423 $111 #
coedge $-1 $282 $282 $283 $424 reversed $175 $-1 #
coedge $-1 $283 $283 $282 $424 forward $177 $-1 #
coedge $-1 $284 $284 $178 $285 forward $279 $-1 #
edge $-1 $425 0 $425 6.2831853071796004 $284 $426 forward 7 unknown #
loop $-1 $-1 $291 $179 #
plane-surface $-1 -20.046426687510817 1.6979008728927951 65.003528432111736 0.69465837861970381 0 0.71933979245794832 0.71933979245794832 0 -0.69465837861970381 forward_v I I I I #
loop $-1 $-1 $427 $114 #
coedge $-1 $289 $289 $290 $428 reversed $180 $-1 #
coedge $-1 $290 $290 $289 $428 forward $182 $-1 #
coedge $-1 $291 $291 $183 $292 forward $286 $-1 #
edge $-1 $429 0 $429 6.2831853071796004 $291 $430 forward 7 unknown #
loop $-1 $-1 $298 $184 #
plane-surface $-1 -20.046426687510817 1.6979008728927951 65.003528432111736 0.69465837861970381 0 0.71933979245794832 0.71933979245794832 0 -0.69465837861970381 forward_v I I I I #
loop $-1 $-1 $431 $117 #
coedge $-1 $296 $296 $297 $432 reversed $185 $-1 #
coedge $-1 $297 $297 $296 $432 forward $187 $-1 #
coedge $-1 $298 $298 $188 $299 forward $293 $-1 #
edge $-1 $433 0 $433 6.2831853071796004 $298 $434 forward 7 unknown #
face $-1 $435 $436 $45 $-1 $437 reversed single #
loop $-1 $-1 $438 $189 #
plane-surface $-1 -45.697195348979157 0 0 1 0 0 0 0 -1 forward_v I I I I #
coedge $-1 $439 $311 $440 $441 forward $190 $-1 #
coedge $-1 $442 $192 $439 $443 forward $121 $-1 #
coedge $-1 $192 $442 $444 $445 forward $121 $-1 #
coedge $-1 $314 $313 $192 $307 reversed $315 $-1 #
edge $-1 $446 -19.578794390233575 $447 19.578794390233575 $306 $448 forward 7 unknown #
coedge $-1 $194 $193 $449 $450 forward $76 $-1 #
coedge $-1 $451 $452 $193 $310 reversed $436 $-1 #
edge $-1 $317 -45.697195348979157 $453 45.697195348979157 $309 $454 forward 7 unknown #
coedge $-1 $303 $455 $194 $312 reversed $190 $-1 #
edge $-1 $456 -45.697195348979157 $316 45.697195348979157 $311 $457 forward 7 unknown #
coedge $-1 $306 $195 $455 $458 forward $315 $-1 #
coedge $-1 $195 $306 $451 $459 reversed $315 $-1 #
loop $-1 $-1 $313 $435 #
vertex $-1 $196 $460 #
vertex $-1 $196 $461 #
straight-curve $-1 45.697195348979157 0 7.8287094326694335 0 1 0 I I #
face $-1 $462 $463 $46 $-1 $464 reversed single #
loop $-1 $-1 $465 $197 #
plane-surface $-1 -45.697195348979157 0 0 1 0 0 0 0 -1 forward_v I I I I #
coedge $-1 $466 $328 $333 $467 reversed $198 $-1 #
coedge $-1 $468 $200 $469 $470 reversed $125 $-1 #
coedge $-1 $200 $468 $466 $471 forward $125 $-1 #
coedge $-1 $333 $332 $200 $326 forward $334 $-1 #
edge $-1 $472 -12.126523919812616 $473 -2.7780170210293029 $325 $474 forward 7 unknown #
coedge $-1 $202 $201 $465 $475 reversed $79 $-1 #
coedge $-1 $322 $476 $201 $329 reversed $198 $-1 #
edge $-1 $335 -45.697195348979157 $477 45.697195348979157 $328 $478 forward 7 unknown #
coedge $-1 $479 $480 $202 $331 forward $463 $-1 #
edge $-1 $336 -45.697195348979157 $481 45.697195348979157 $330 $482 forward 7 unknown #
coedge $-1 $325 $203 $480 $483 forward $334 $-1 #
coedge $-1 $203 $325 $322 $467 forward $334 $-1 #
loop $-1 $-1 $203 $462 #
vertex $-1 $204 $484 #
vertex $-1 $483 $485 #
straight-curve $-1 45.697195348979157 -7.4522704704209595 -3.4168357197017052 0 -1 0 I I #
face $-1 $-1 $350 $47 $-1 $486 forward single #
loop $-1 $-1 $487 $205 #
plane-surface $-1 -45.697195348979157 0 0 1 0 0 0 0 -1 forward_v I I I I #
coedge $-1 $488 $489 $490 $491 reversed $206 $-1 #
coedge $-1 $492 $208 $210 $348 forward $129 $-1 #
coedge $-1 $208 $492 $488 $493 forward $129 $-1 #
coedge $-1 $490 $211 $208 $345 forward $350 $-1 #
edge $-1 $352 -4.6359862375279581 $494 1.3493775030277773 $344 $495 forward 7 unknown #
coedge $-1 $496 $497 $209 $347 forward $339 $-1 #
edge $-1 $498 -22.077409830780105 $351 -18.525527851186357 $346 $499 forward 7 unknown #
edge $-1 $352 -4.1883024824901343 $498 3.9918193188544054e-014 $210 $500 forward 7 unknown #
coedge $-1 $211 $490 $496 $501 forward $350 $-1 #
loop $-1 $-1 $490 $338 #
vertex $-1 $347 $502 #
vertex $-1 $212 $503 #
straight-curve $-1 -61.60201755201274 -6.2792906047780486 7.8287094326694344 1 0 0 I I #
coedge $-1 $354 $354 $-1 $504 reversed $215 $-1 #
edge $-1 $505 0 $505 6.2831853071796004 $216 $506 forward 7 unknown #
vertex $-1 $219 $507 #
ellipse-curve $-1 -44.587464290583632 -4.5691866789049822 6.0527684428725665 -0.84804810408105047 0 0.52991925155115449 0.26495962577557725 0 0.42402405204052523 1 I I #
coedge $-1 $358 $358 $-1 $508 reversed $222 $-1 #
edge $-1 $509 0 $509 6.2831853071796004 $223 $510 forward 7 unknown #
vertex $-1 $226 $511 #
ellipse-curve $-1 -44.587464290583632 -2.0040307900953813 6.0527684428725665 -0.84804810408105047 0 0.52991925155115449 0.26495962577557725 0 0.42402405204052523 1 I I #
face $-1 $-1 $512 $50 $-1 $513 reversed single #
loop $-1 $-1 $233 $227 #
plane-surface $-1 0 0 7.8287094326694335 0 0 1 1 0 0 forward_v I I I I #
coedge $-1 $514 $515 $516 $517 reversed $228 $-1 #
coedge $-1 $518 $230 $232 $372 forward $143 $-1 #
coedge $-1 $230 $518 $514 $519 forward $143 $-1 #
coedge $-1 $516 $233 $230 $369 forward $363 $-1 #
edge $-1 $375 0.33219407608601426 $520 6.3175578166417488 $368 $521 forward 7 unknown #
coedge $-1 $522 $523 $231 $371 forward $512 $-1 #
edge $-1 $524 -22.077409830780105 $374 -18.525527851186357 $370 $525 forward 7 unknown #
edge $-1 $375 -4.1883024824901343 $524 3.9918193188544054e-014 $232 $526 forward 7 unknown #
coedge $-1 $233 $516 $522 $527 forward $363 $-1 #
vertex $-1 $234 $528 #
vertex $-1 $234 $529 #
straight-curve $-1 -61.60201755201274 3.6570700224498962 7.8287094326694344 1 0 0 I I #
coedge $-1 $377 $377 $-1 $530 reversed $237 $-1 #
edge $-1 $531 0 $531 6.2831853071796004 $238 $532 forward 7 unknown #
vertex $-1 $241 $533 #
ellipse-curve $-1 -44.587464290583632 5.3671739483229643 6.0527684428725665 -0.84804810408105047 0 0.52991925155115449 0.26495962577557725 0 0.42402405204052523 1 I I #
coedge $-1 $381 $381 $-1 $534 reversed $244 $-1 #
edge $-1 $535 0 $535 6.2831853071796004 $245 $536 forward 7 unknown #
vertex $-1 $248 $537 #
ellipse-curve $-1 -44.587464290583632 7.9323298371325635 6.0527684428725665 -0.84804810408105047 0 0.52991925155115449 0.26495962577557725 0 0.42402405204052523 1 I I #
face $-1 $-1 $538 $53 $-1 $539 reversed single #
loop $-1 $-1 $540 $249 #
plane-surface $-1 0 19.578794390233575 0 0 -1 0 0 0 -1 forward_v I I I I #
coedge $-1 $541 $252 $254 $394 forward $157 $-1 #
coedge $-1 $252 $541 $540 $542 reversed $157 $-1 #
coedge $-1 $543 $255 $252 $391 forward $250 $-1 #
edge $-1 $397 5.3003743896999893 $544 11.285738130255723 $390 $545 forward 7 unknown #
coedge $-1 $546 $547 $253 $393 forward $538 $-1 #
edge $-1 $548 -22.077409830780105 $396 -18.525527851186357 $392 $549 forward 7 unknown #
edge $-1 $397 -4.1883024824901343 $548 3.9918193188544054e-014 $254 $550 forward 7 unknown #
coedge $-1 $255 $543 $546 $551 forward $250 $-1 #
vertex $-1 $393 $552 #
vertex $-1 $256 $553 #
straight-curve $-1 -61.60201755201274 13.593430649677845 7.8287094326694344 1 0 0 I I #
coedge $-1 $399 $399 $-1 $554 reversed $259 $-1 #
edge $-1 $555 0 $555 6.2831853071796004 $260 $556 forward 7 unknown #
vertex $-1 $263 $557 #
ellipse-curve $-1 -44.587464290583632 15.303534575550913 6.0527684428725665 -0.84804810408105047 0 0.52991925155115449 0.26495962577557725 0 0.42402405204052523 1 I I #
coedge $-1 $403 $403 $-1 $558 reversed $266 $-1 #
edge $-1 $559 0 $559 6.2831853071796004 $267 $560 forward 7 unknown #
vertex $-1 $270 $561 #
ellipse-curve $-1 -44.587464290583632 17.868690464360512 6.0527684428725665 -0.84804810408105047 0 0.52991925155115449 0.26495962577557725 0 0.42402405204052523 1 I I #
face $-1 $-1 $419 $56 $-1 $562 forward single #
loop $-1 $-1 $563 $271 #
plane-surface $-1 45.697195348979157 0 0 -1 0 0 0 0 1 forward_v I I I I #
coedge $-1 $564 $565 $566 $567 reversed $272 $-1 #
coedge $-1 $568 $274 $276 $417 forward $171 $-1 #
coedge $-1 $274 $568 $564 $569 forward $171 $-1 #
coedge $-1 $566 $277 $274 $414 forward $419 $-1 #
edge $-1 $421 -5.0372392659165932 $570 3.3393383930237981 $413 $571 forward 7 unknown #
coedge $-1 $572 $573 $275 $416 forward $408 $-1 #
edge $-1 $574 -63.857926059368573 $420 -57.544865801631424 $415 $575 forward 7 unknown #
edge $-1 $421 82.306383625645566 $574 91.394390697958301 $276 $576 forward 7 unknown #
coedge $-1 $277 $566 $572 $577 forward $419 $-1 #
loop $-1 $-1 $566 $407 #
vertex $-1 $416 $578 #
vertex $-1 $278 $579 #
straight-curve $-1 21.720726284834324 5.8861897023629908 7.8287094326694344 -1 0 0 I I #
coedge $-1 $423 $423 $-1 $580 reversed $281 $-1 #
edge $-1 $581 0 $581 6.2831853071796004 $282 $582 forward 7 unknown #
vertex $-1 $285 $583 #
ellipse-curve $-1 42.428512788352251 -0.81507242478932085 4.6721793038008581 0.69465837861970381 0 0.71933979245794832 0.35966989622897416 0 -0.3473291893098519 1 I I #
coedge $-1 $427 $427 $-1 $584 reversed $288 $-1 #
edge $-1 $585 0 $585 6.2831853071796004 $289 $586 forward 7 unknown #
vertex $-1 $292 $587 #
ellipse-curve $-1 42.428512788352251 1.6979008728927951 4.6721793038008581 0.69465837861970381 0 0.71933979245794832 0.35966989622897416 0 -0.3473291893098519 1 I I #
coedge $-1 $431 $431 $-1 $588 reversed $295 $-1 #
edge $-1 $589 0 $589 6.2831853071796004 $296 $590 forward 7 unknown #
vertex $-1 $299 $591 #
ellipse-curve $-1 42.428512788352251 4.2108741705749111 4.6721793038008581 0.69465837861970381 0 0.71933979245794832 0.35966989622897416 0 -0.3473291893098519 1 I I #
face $-1 $-1 $315 $45 $-1 $592 reversed single #
loop $-1 $-1 $451 $300 #
plane-surface $-1 0 19.578794390233575 0 0 -1 0 0 0 -1 forward_v I I I I #
coedge $-1 $593 $449 $452 $594 forward $301 $-1 #
coedge $-1 $455 $303 $304 $443 reversed $190 $-1 #
coedge $-1 $449 $593 $303 $441 reversed $301 $-1 #
edge $-1 $456 -7.8287094326694335 $595 7.8287094326694335 $440 $596 forward 7 unknown #
coedge $-1 $305 $304 $593 $597 forward $121 $-1 #
edge $-1 $447 -45.697195348979157 $595 45.697195348979157 $439 $598 forward 7 unknown #
coedge $-1 $452 $451 $305 $445 reversed $436 $-1 #
edge $-1 $599 -45.697195348979157 $446 45.697195348979157 $444 $600 forward 7 unknown #
vertex $-1 $307 $601 #
vertex $-1 $458 $602 #
straight-curve $-1 45.697195348979157 0 -7.8287094326694335 0 -1 0 I I #
coedge $-1 $438 $440 $308 $450 reversed $301 $-1 #
edge $-1 $453 -19.578794390233575 $456 19.578794390233575 $449 $603 forward 7 unknown #
coedge $-1 $444 $309 $314 $459 forward $436 $-1 #
coedge $-1 $309 $444 $438 $594 reversed $436 $-1 #
vertex $-1 $310 $604 #
straight-curve $-1 0 19.578794390233575 7.8287094326694335 -1 0 0 I I #
coedge $-1 $311 $439 $313 $458 reversed $190 $-1 #
vertex $-1 $450 $605 #
straight-curve $-1 0 -19.578794390233575 7.8287094326694335 1 0 0 I I #
edge $-1 $316 -7.8287094326694335 $447 7.8287094326694335 $313 $606 forward 7 unknown #
edge $-1 $317 -7.8287094326694335 $446 7.8287094326694335 $314 $607 forward 7 unknown #
point $-1 45.697195348979157 -19.578794390233575 7.8287094326694335 #
point $-1 45.697195348979157 19.578794390233575 7.8287094326694335 #
face $-1 $-1 $334 $46 $-1 $608 reversed single #
loop $-1 $-1 $330 $319 #
plane-surface $-1 0 -19.578794390233575 0 0 1 0 0 0 1 forward_v I I I I #
coedge $-1 $609 $610 $327 $475 forward $320 $-1 #
coedge $-1 $476 $322 $324 $471 reversed $198 $-1 #
edge $-1 $473 -3.9584178598508526 $335 -0.95841785985085259 $333 $611 forward 7 unknown #
coedge $-1 $324 $323 $612 $613 reversed $125 $-1 #
coedge $-1 $480 $479 $323 $470 forward $463 $-1 #
edge $-1 $614 -45.697195348979157 $472 45.697195348979157 $469 $615 forward 7 unknown #
edge $-1 $616 -45.697195348979157 $473 45.697195348979157 $466 $617 forward 7 unknown #
vertex $-1 $470 $618 #
vertex $-1 $326 $619 #
straight-curve $-1 45.697195348979157 -7.4522704704209595 -6.4168357197017052 0 1 0 I I #
edge $-1 $481 -12.126523919812616 $477 -2.7780170210293029 $465 $620 forward 7 unknown #
coedge $-1 $328 $466 $609 $621 reversed $198 $-1 #
vertex $-1 $475 $622 #
straight-curve $-1 0 -10.230287491450262 -3.4168357197017052 -1 0 0 I I #
coedge $-1 $469 $330 $610 $623 forward $463 $-1 #
coedge $-1 $330 $469 $332 $483 reversed $463 $-1 #
vertex $-1 $623 $624 #
straight-curve $-1 0 -19.578794390233575 -3.4168357197017052 -1 0 0 I I #
edge $-1 $336 3.4168357197017052 $472 6.4168357197017052 $332 $625 forward 7 unknown #
point $-1 45.697195348979157 -10.230287491450262 -3.4168357197017052 #
point $-1 45.697195348979157 -19.578794390233575 -3.4168357197017052 #
plane-surface $-1 0 0 7.8287094326694335 0 0 1 1 0 0 forward_v I I I I #
coedge $-1 $497 $496 $489 $626 forward $339 $-1 #
coedge $-1 $489 $341 $343 $493 reversed $206 $-1 #
coedge $-1 $341 $488 $487 $626 reversed $206 $-1 #
coedge $-1 $349 $344 $341 $491 forward $350 $-1 #
edge $-1 $494 -18.124284319824618 $627 -15.904822203033582 $490 $628 forward 7 unknown #
coedge $-1 $343 $342 $497 $629 reversed $129 $-1 #
edge $-1 $630 -3.9918193188544054e-014 $494 4.1883024824901343 $488 $631 forward 7 unknown #
vertex $-1 $345 $632 #
straight-curve $-1 -43.477733232188122 -1.6433043672500904 7.8287094326694335 0 1 0 I I #
coedge $-1 $487 $346 $349 $501 reversed $339 $-1 #
coedge $-1 $346 $487 $492 $629 forward $339 $-1 #
vertex $-1 $347 $633 #
straight-curve $-1 -45.697195348979157 -6.2792906047780486 26.354237283855792 0 0 1 I I #
straight-curve $-1 -45.697195348979136 -6.2792906047780486 4.2768274530757182 -0.52991925155115449 0 -0.84804810408105047 I I #
edge $-1 $627 0.29392686422231318 $351 6.2792906047780486 $496 $634 forward 7 unknown #
point $-1 -45.697195348979157 -6.2792906047780486 7.8287094326694335 #
point $-1 -43.477733232188122 -6.2792906047780486 7.8287094326694335 #
edge $-1 $635 1 $635 0 $354 $-1 forward 7 unknown #
vertex $-1 $355 $636 #
ellipse-curve $-1 -43.739416186502602 -4.5691866789049822 5.5228491913214253 -0.84804810408105047 0 0.52991925155115449 0.26495962577557725 0 0.42402405204052523 1 I I #
point $-1 -44.322504664808079 -4.5691866789049822 6.4767924949131057 #
edge $-1 $637 1 $637 0 $358 $-1 forward 7 unknown #
vertex $-1 $359 $638 #
ellipse-curve $-1 -43.739416186502602 -2.0040307900953813 5.5228491913214253 -0.84804810408105047 0 0.52991925155115449 0.26495962577557725 0 0.42402405204052523 1 I I #
point $-1 -44.322504664808079 -2.0040307900953813 6.4767924949131057 #
loop $-1 $-1 $370 $362 #
plane-surface $-1 -45.697195348979157 0 0 1 0 0 0 0 -1 forward_v I I I I #
coedge $-1 $515 $365 $367 $519 reversed $228 $-1 #
coedge $-1 $365 $514 $639 $640 reversed $228 $-1 #
coedge $-1 $373 $368 $365 $517 forward $363 $-1 #
edge $-1 $520 -18.124284319824618 $641 -15.904822203033582 $516 $642 forward 7 unknown #
coedge $-1 $367 $366 $523 $643 reversed $143 $-1 #
edge $-1 $644 -3.9918193188544054e-014 $520 4.1883024824901343 $514 $645 forward 7 unknown #
vertex $-1 $369 $646 #
straight-curve $-1 -43.477733232188122 3.324875946363882 7.8287094326694335 0 1 0 I I #
coedge $-1 $639 $370 $373 $527 reversed $512 $-1 #
coedge $-1 $370 $639 $518 $643 forward $512 $-1 #
vertex $-1 $371 $647 #
straight-curve $-1 -45.697195348979157 3.6570700224498962 26.354237283855792 0 0 1 I I #
straight-curve $-1 -45.697195348979136 3.6570700224498962 4.2768274530757182 -0.52991925155115449 0 -0.84804810408105047 I I #
edge $-1 $641 -9.6424337630056307 $374 -3.6570700224498962 $522 $648 forward 7 unknown #
point $-1 -45.697195348979157 3.6570700224498962 7.8287094326694335 #
point $-1 -43.477733232188122 3.6570700224498962 7.8287094326694335 #
edge $-1 $649 1 $649 0 $377 $-1 forward 7 unknown #
vertex $-1 $378 $650 #
ellipse-curve $-1 -43.739416186502602 5.3671739483229643 5.5228491913214253 -0.84804810408105047 0 0.52991925155115449 0.26495962577557725 0 0.42402405204052523 1 I I #
point $-1 -44.322504664808079 5.3671739483229643 6.4767924949131057 #
edge $-1 $651 1 $651 0 $381 $-1 forward 7 unknown #
vertex $-1 $382 $652 #
ellipse-curve $-1 -43.739416186502602 7.9323298371325635 5.5228491913214253 -0.84804810408105047 0 0.52991925155115449 0.26495962577557725 0 0.42402405204052523 1 I I #
point $-1 -44.322504664808079 7.9323298371325635 6.4767924949131057 #
loop $-1 $-1 $392 $385 #
plane-surface $-1 -45.697195348979157 0 0 1 0 0 0 0 -1 forward_v I I I I #
coedge $-1 $653 $654 $389 $542 forward $386 $-1 #
coedge $-1 $389 $388 $547 $655 reversed $157 $-1 #
edge $-1 $544 6.1061315896375019 $656 10.294434072127675 $540 $657 forward 7 unknown #
coedge $-1 $395 $390 $654 $658 forward $250 $-1 #
vertex $-1 $658 $659 #
straight-curve $-1 -43.477733232188122 8.2930562599778561 7.8287094326694335 0 1 0 I I #
coedge $-1 $660 $392 $395 $551 reversed $538 $-1 #
coedge $-1 $392 $660 $541 $655 forward $538 $-1 #
vertex $-1 $393 $661 #
straight-curve $-1 -45.697195348979157 13.593430649677845 26.354237283855792 0 0 1 I I #
straight-curve $-1 -45.697195348979136 13.593430649677845 4.2768274530757182 -0.52991925155115449 0 -0.84804810408105047 I I #
edge $-1 $662 -19.578794390233575 $396 -13.593430649677845 $546 $663 forward 7 unknown #
point $-1 -45.697195348979157 13.593430649677845 7.8287094326694335 #
point $-1 -43.477733232188122 13.593430649677845 7.8287094326694335 #
edge $-1 $664 1 $664 0 $399 $-1 forward 7 unknown #
vertex $-1 $400 $665 #
ellipse-curve $-1 -43.739416186502602 15.303534575550913 5.5228491913214253 -0.84804810408105047 0 0.52991925155115449 0.26495962577557725 0 0.42402405204052523 1 I I #
point $-1 -44.322504664808079 15.303534575550913 6.4767924949131057 #
edge $-1 $666 1 $666 0 $403 $-1 forward 7 unknown #
vertex $-1 $404 $667 #
ellipse-curve $-1 -43.739416186502602 17.868690464360512 5.5228491913214253 -0.84804810408105047 0 0.52991925155115449 0.26495962577557725 0 0.42402405204052523 1 I I #
point $-1 -44.322504664808079 17.868690464360512 6.4767924949131057 #
plane-surface $-1 0 0 7.8287094326694335 0 0 1 1 0 0 forward_v I I I I #
coedge $-1 $573 $572 $565 $668 forward $408 $-1 #
coedge $-1 $565 $410 $412 $569 reversed $272 $-1 #
coedge $-1 $410 $564 $563 $668 reversed $272 $-1 #
coedge $-1 $418 $413 $410 $567 forward $419 $-1 #
edge $-1 $570 17.439103942891027 $669 23.976469064144833 $566 $670 forward 7 unknown #
coedge $-1 $412 $411 $573 $671 reversed $171 $-1 #
edge $-1 $672 -91.394390697958301 $570 -82.306383625645566 $564 $673 forward 7 unknown #
vertex $-1 $414 $674 #
straight-curve $-1 39.159830227725351 0.84895043644639756 7.8287094326694344 0 -1 0 I I #
coedge $-1 $563 $415 $418 $577 reversed $408 $-1 #
coedge $-1 $415 $563 $568 $671 forward $408 $-1 #
vertex $-1 $416 $675 #
straight-curve $-1 45.697195348979157 5.8861897023629908 65.373575234300858 0 0 1 I I #
straight-curve $-1 -20.046426687510817 5.8861897023629908 65.003528432111736 0.71933979245794832 0 -0.69465837861970381 I I #
edge $-1 $669 -2.4903879565774005 $420 5.8861897023629908 $572 $676 forward 7 unknown #
point $-1 45.697195348979157 5.8861897023629908 7.8287094326694335 #
point $-1 39.159830227725351 5.8861897023629908 7.8287094326694415 #
edge $-1 $677 1 $677 0 $423 $-1 forward 7 unknown #
vertex $-1 $424 $678 #
ellipse-curve $-1 41.467445384953812 -0.81507242478932085 3.6769648965803992 0.69465837861970381 0 0.71933979245794832 0.35966989622897416 0 -0.3473291893098519 1 I I #
point $-1 42.788182684581216 -0.81507242478932085 4.324850114490995 #
edge $-1 $679 1 $679 0 $427 $-1 forward 7 unknown #
vertex $-1 $428 $680 #
ellipse-curve $-1 41.467445384953812 1.6979008728927951 3.6769648965803992 0.69465837861970381 0 0.71933979245794832 0.35966989622897416 0 -0.3473291893098519 1 I I #
point $-1 42.788182684581216 1.6979008728927951 4.324850114490995 #
edge $-1 $681 1 $681 0 $431 $-1 forward 7 unknown #
vertex $-1 $432 $682 #
ellipse-curve $-1 41.467445384953812 4.2108741705749111 3.6769648965803992 0.69465837861970381 0 0.71933979245794832 0.35966989622897416 0 -0.3473291893098519 1 I I #
point $-1 42.788182684581216 4.2108741705749111 4.324850114490995 #
plane-surface $-1 45.697195348979157 0 0 -1 0 0 0 0 1 forward_v I I I I #
coedge $-1 $440 $438 $442 $597 reversed $301 $-1 #
edge $-1 $453 -7.8287094326694335 $599 7.8287094326694335 $452 $683 forward 7 unknown #
vertex $-1 $597 $684 #
straight-curve $-1 -45.697195348979157 -19.578794390233575 0 0 0 -1 I I #
edge $-1 $595 -19.578794390233575 $599 19.578794390233575 $593 $685 forward 7 unknown #
straight-curve $-1 0 -19.578794390233575 -7.8287094326694335 -1 0 0 I I #
vertex $-1 $445 $686 #
straight-curve $-1 0 19.578794390233575 -7.8287094326694335 1 0 0 I I #
point $-1 45.697195348979157 19.578794390233575 -7.8287094326694335 #
point $-1 45.697195348979157 -19.578794390233575 -7.8287094326694335 #
straight-curve $-1 -45.697195348979157 0 7.8287094326694335 0 -1 0 I I #
point $-1 -45.697195348979157 19.578794390233575 7.8287094326694335 #
point $-1 -45.697195348979157 -19.578794390233575 7.8287094326694335 #
straight-curve $-1 45.697195348979157 -19.578794390233575 0 0 0 -1 I I #
straight-curve $-1 45.697195348979157 19.578794390233575 0 0 0 -1 I I #
plane-surface $-1 45.697195348979157 0 0 -1 0 0 0 0 1 forward_v I I I I #
coedge $-1 $612 $465 $476 $621 forward $320 $-1 #
coedge $-1 $465 $612 $479 $623 reversed $320 $-1 #
straight-curve $-1 45.697195348979157 -10.230287491450262 -2.4584178598508526 0 0 1 I I #
coedge $-1 $610 $609 $468 $613 forward $320 $-1 #
edge $-1 $616 2.7780170210293029 $614 12.126523919812616 $612 $687 forward 7 unknown #
vertex $-1 $470 $688 #
straight-curve $-1 0 -19.578794390233575 -6.4168357197017052 1 0 0 I I #
vertex $-1 $613 $689 #
straight-curve $-1 0 -10.230287491450262 -6.4168357197017052 1 0 0 I I #
point $-1 45.697195348979157 -19.578794390233575 -6.4168357197017052 #
point $-1 45.697195348979157 -10.230287491450262 -6.4168357197017052 #
straight-curve $-1 -45.697195348979157 -7.4522704704209595 -3.4168357197017052 0 1 0 I I #
edge $-1 $477 0.95841785985085259 $616 3.9584178598508526 $609 $690 forward 7 unknown #
point $-1 -45.697195348979157 -10.230287491450262 -3.4168357197017052 #
edge $-1 $481 3.4168357197017052 $614 6.4168357197017052 $610 $691 forward 7 unknown #
point $-1 -45.697195348979157 -19.578794390233575 -3.4168357197017052 #
straight-curve $-1 45.697195348979157 -19.578794390233575 0 0 0 -1 I I #
edge $-1 $627 18.525527851186357 $630 22.077409830780105 $487 $692 forward 7 unknown #
vertex $-1 $501 $693 #
straight-curve $-1 -61.60201755201274 -0.29392686422231318 7.8287094326694344 -1 0 0 I I #
edge $-1 $630 -1.3493775030277773 $498 4.6359862375279581 $497 $694 forward 7 unknown #
vertex $-1 $629 $695 #
straight-curve $-1 -45.697195348979136 -0.29392686422231318 4.2768274530757182 0.52991925155115449 0 0.84804810408105047 I I #
point $-1 -43.477733232188122 -0.29392686422231318 7.8287094326694335 #
point $-1 -45.697195348979157 -6.2792906047780486 4.2768274530756845 #
straight-curve $-1 -45.697195348979157 0 7.8287094326694335 0 -1 0 I I #
vertex $-1 $504 $696 #
point $-1 -43.474456560727027 -4.5691866789049822 5.9468732433619511 #
vertex $-1 $508 $697 #
point $-1 -43.474456560727027 -2.0040307900953813 5.9468732433619511 #
coedge $-1 $523 $522 $515 $640 forward $512 $-1 #
edge $-1 $641 18.525527851186357 $644 22.077409830780105 $639 $698 forward 7 unknown #
vertex $-1 $527 $699 #
straight-curve $-1 -61.60201755201274 9.6424337630056307 7.8287094326694344 -1 0 0 I I #
edge $-1 $644 -6.3175578166417488 $524 -0.33219407608601426 $523 $700 forward 7 unknown #
vertex $-1 $643 $701 #
straight-curve $-1 -45.697195348979136 9.6424337630056307 4.2768274530757182 0.52991925155115449 0 0.84804810408105047 I I #
point $-1 -43.477733232188122 9.6424337630056307 7.8287094326694335 #
point $-1 -45.697195348979157 3.6570700224498962 4.2768274530756845 #
straight-curve $-1 -45.697195348979157 0 7.8287094326694335 0 -1 0 I I #
vertex $-1 $530 $702 #
point $-1 -43.474456560727027 5.3671739483229643 5.9468732433619511 #
vertex $-1 $534 $703 #
point $-1 -43.474456560727027 7.9323298371325635 5.9468732433619511 #
coedge $-1 $654 $540 $660 $704 reversed $386 $-1 #
coedge $-1 $540 $653 $543 $658 reversed $386 $-1 #
edge $-1 $656 -11.285738130255723 $548 -5.3003743896999893 $547 $705 forward 7 unknown #
vertex $-1 $542 $706 #
straight-curve $-1 -40.241976550334556 19.578794390233575 13.007002750530928 -0.52991925155115449 0 -0.84804810408105047 I I #
edge $-1 $544 43.477733232188122 $662 45.697195348979157 $654 $707 forward 7 unknown #
point $-1 -43.477733232188122 19.578794390233579 7.8287094326694335 #
coedge $-1 $547 $546 $653 $704 forward $538 $-1 #
point $-1 -45.697195348979157 13.593430649677845 4.2768274530756845 #
vertex $-1 $658 $708 #
straight-curve $-1 -45.697195348979157 0 7.8287094326694335 0 -1 0 I I #
vertex $-1 $554 $709 #
point $-1 -43.474456560727027 15.303534575550913 5.9468732433619511 #
vertex $-1 $558 $710 #
point $-1 -43.474456560727027 17.868690464360512 5.9468732433619511 #
edge $-1 $669 57.544865801631424 $672 63.857926059368573 $563 $711 forward 7 unknown #
vertex $-1 $577 $712 #
straight-curve $-1 21.720726284834324 -2.4903879565774005 7.8287094326694344 1 0 0 I I #
edge $-1 $672 -3.3393383930237981 $574 5.0372392659165932 $573 $713 forward 7 unknown #
vertex $-1 $671 $714 #
straight-curve $-1 -20.046426687510817 -2.4903879565774005 65.003528432111736 -0.71933979245794832 0 0.69465837861970381 I I #
point $-1 39.159830227725351 -2.4903879565774005 7.8287094326694415 #
point $-1 45.69719534897915 5.8861897023629908 1.5156491749322853 #
straight-curve $-1 45.697195348979157 0 7.8287094326694335 0 1 0 I I #
vertex $-1 $580 $715 #
point $-1 41.827115281182792 -0.81507242478932085 3.3296357072705476 #
vertex $-1 $584 $716 #
point $-1 41.827115281182792 1.6979008728927951 3.3296357072705476 #
vertex $-1 $588 $717 #
point $-1 41.827115281182792 4.2108741705749111 3.3296357072705476 #
straight-curve $-1 -45.697195348979157 19.578794390233575 0 0 0 -1 I I #
point $-1 -45.697195348979157 -19.578794390233575 -7.8287094326694335 #
straight-curve $-1 -45.697195348979157 0 -7.8287094326694335 0 1 0 I I #
point $-1 -45.697195348979157 19.578794390233575 -7.8287094326694335 #
straight-curve $-1 -45.697195348979157 -7.4522704704209595 -6.4168357197017052 0 -1 0 I I #
point $-1 -45.697195348979157 -19.578794390233575 -6.4168357197017052 #
point $-1 -45.697195348979157 -10.230287491450262 -6.4168357197017052 #
straight-curve $-1 -45.697195348979157 -10.230287491450262 -2.4584178598508526 0 0 -1 I I #
straight-curve $-1 -45.697195348979157 -19.578794390233575 0 0 0 -1 I I #
straight-curve $-1 -45.697195348979157 -0.29392686422231318 26.354237283855792 0 0 -1 I I #
point $-1 -45.697195348979157 -0.29392686422231318 7.8287094326694335 #
straight-curve $-1 -45.697195348979157 -1.6433043672500904 4.2768274530756871 0 -1 0 I I #
point $-1 -45.697195348979157 -0.29392686422231318 4.2768274530756845 #
point $-1 -43.31539213446208 -4.5691866789049822 5.2578895655458489 #
point $-1 -43.31539213446208 -2.0040307900953813 5.2578895655458489 #
straight-curve $-1 -45.697195348979157 9.6424337630056307 26.354237283855792 0 0 -1 I I #
point $-1 -45.697195348979157 9.6424337630056307 7.8287094326694335 #
straight-curve $-1 -45.697195348979157 3.324875946363882 4.2768274530756871 0 -1 0 I I #
point $-1 -45.697195348979157 9.6424337630056307 4.2768274530756845 #
point $-1 -43.31539213446208 5.3671739483229643 5.2578895655458489 #
point $-1 -43.31539213446208 7.9323298371325635 5.2578895655458489 #
edge $-1 $662 -7.8287094326694335 $656 -4.2768274530756845 $653 $718 forward 7 unknown #
straight-curve $-1 -45.697195348979157 8.2930562599778561 4.2768274530756871 0 -1 0 I I #
point $-1 -45.697195348979157 19.578794390233579 4.2768274530756845 #
straight-curve $-1 0 19.578794390233575 7.8287094326694335 -1 0 0 I I #
point $-1 -45.697195348979157 19.578794390233575 7.8287094326694335 #
point $-1 -43.31539213446208 15.303534575550913 5.2578895655458489 #
point $-1 -43.31539213446208 17.868690464360512 5.2578895655458489 #
straight-curve $-1 45.697195348979157 -2.4903879565774005 65.373575234300858 0 0 -1 I I #
point $-1 45.697195348979157 -2.4903879565774005 7.8287094326694335 #
straight-curve $-1 45.69719534897915 0.84895043644639756 1.5156491749322853 0 1 0 I I #
point $-1 45.69719534897915 -2.4903879565774005 1.5156491749322853 #
point $-1 41.120116195643966 -0.81507242478932085 3.3172950003514252 #
point $-1 41.120116195643966 1.6979008728927951 3.3172950003514252 #
point $-1 41.120116195643966 4.2108741705749111 3.3172950003514252 #
straight-curve $-1 -45.697195348979157 19.578794390233575 0 0 0 -1 I I #
End-of-ACIS-data 