500 0 9 0           
7 Unknown 11 ACIS 5.0 NT 24 Fri Mar 26 01:09:34 1999 
-1 9.9999999999999995e-007 1e-010 
body $-1 $9 $-1 $10 #
body $-1 $11 $-1 $12 #
body $-1 $13 $-1 $14 #
body $-1 $15 $-1 $16 #
body $-1 $17 $-1 $18 #
body $-1 $19 $-1 $20 #
body $-1 $21 $-1 $22 #
body $-1 $23 $-1 $24 #
body $-1 $25 $-1 $26 #
lump $-1 $-1 $27 $0 #
transform $-1 1 0 0 0 1 0 0 0 1 41.931211279641104 20.557388335880443 9.2009793425556747 1 rotate no_reflect no_shear #
lump $-1 $-1 $28 $1 #
transform $-1 1 0 0 0 1 0 0 0 1 41.931211279641104 20.557388335880443 9.2009793425556747 1 rotate no_reflect no_shear #
lump $-1 $-1 $29 $2 #
transform $-1 1 0 0 0 1 0 0 0 1 41.931211279641104 20.557388335880443 9.2009793425556747 1 rotate no_reflect no_shear #
lump $-1 $-1 $30 $3 #
transform $-1 1 0 0 0 1 0 0 0 1 41.931211279641104 20.557388335880443 9.2009793425556747 1 rotate no_reflect no_shear #
lump $-1 $-1 $31 $4 #
transform $-1 1 0 0 0 1 0 0 0 1 41.931211279641104 20.557388335880443 9.2009793425556747 1 rotate no_reflect no_shear #
lump $-1 $-1 $32 $5 #
transform $-1 1 0 0 0 1 0 0 0 1 41.931211279641104 20.557388335880443 9.2009793425556747 1 rotate no_reflect no_shear #
lump $-1 $-1 $33 $6 #
transform $-1 1 0 0 0 1 0 0 0 1 41.931211279641104 20.557388335880443 9.2009793425556747 1 rotate no_reflect no_shear #
lump $-1 $-1 $34 $7 #
transform $-1 1 0 0 0 1 0 0 0 1 41.931211279641104 20.557388335880443 9.2009793425556747 1 rotate no_reflect no_shear #
lump $-1 $-1 $35 $8 #
transform $-1 1 0 0 0 1 0 0 0 1 41.931211279641104 20.557388335880443 9.2009793425556747 1 rotate no_reflect no_shear #
shell $-1 $-1 $-1 $36 $-1 $9 #
shell $-1 $-1 $-1 $37 $-1 $11 #
shell $-1 $-1 $-1 $38 $-1 $13 #
shell $-1 $-1 $-1 $39 $-1 $15 #
shell $-1 $-1 $-1 $40 $-1 $17 #
shell $-1 $-1 $-1 $41 $-1 $19 #
shell $-1 $-1 $-1 $42 $-1 $21 #
shell $-1 $-1 $-1 $43 $-1 $23 #
shell $-1 $-1 $-1 $44 $-1 $25 #
face $-1 $45 $46 $27 $-1 $47 forward single #
face $-1 $48 $49 $28 $-1 $50 reversed single #
face $-1 $51 $52 $29 $-1 $53 reversed single #
face $-1 $54 $55 $30 $-1 $56 reversed single #
face $-1 $57 $58 $31 $-1 $59 forward single #
face $-1 $60 $61 $32 $-1 $62 forward single #
face $-1 $63 $64 $33 $-1 $65 reversed single #
face $-1 $66 $67 $34 $-1 $68 forward single #
face $-1 $69 $70 $35 $-1 $71 forward single #
face $-1 $72 $73 $27 $-1 $74 reversed single #
loop $-1 $-1 $75 $36 #
plane-surface $-1 0 0 9.2009793425556747 0 0 1 1 0 0 forward_v I I I I #
face $-1 $76 $77 $28 $-1 $78 reversed single #
loop $-1 $-1 $79 $37 #
plane-surface $-1 -40.096884134792781 -10.775955719049719 0 0 -1 0 0 0 -1 forward_v I I I I #
face $-1 $80 $81 $29 $-1 $82 reversed single #
loop $-1 $-1 $83 $38 #
plane-surface $-1 0 15.157112373436465 6.2009793425556747 0 0 1 1 0 0 forward_v I I I I #
face $-1 $84 $85 $30 $-1 $86 reversed single #
loop $-1 $-1 $87 $39 #
plane-surface $-1 50.20428698750888 -1.380267951590243 120.03505960122139 0 -1 0 -0.75470958851134928 0 -0.65605901945558964 forward_v I I I I #
face $-1 $88 $89 $31 $-1 $90 forward single #
loop $-1 $91 $92 $40 #
cone-surface $-1 38.197766152139351 -5.7504902156410349 5.042151906579285 -0.75470958851134928 0 -0.65605901945558964 0.32802950972779482 0 -0.37735479425567464 1 I I 0 1 0.5 forward I I I I #
face $-1 $93 $94 $32 $-1 $95 forward single #
loop $-1 $96 $97 $41 #
cone-surface $-1 38.197766152139351 -3.1283568572105587 5.042151906579285 -0.75470958851134928 0 -0.65605901945558964 0.32802950972779482 0 -0.37735479425567464 1 I I 0 1 0.5 forward I I I I #
face $-1 $98 $99 $33 $-1 $100 reversed single #
loop $-1 $-1 $101 $42 #
plane-surface $-1 -105.22298570092188 -7.4985791212613488 56.743285179940607 0 1 0 -0.75470958851134928 0 0.65605901945558964 forward_v I I I I #
face $-1 $102 $103 $34 $-1 $104 forward single #
loop $-1 $105 $106 $43 #
cone-surface $-1 -38.197766152139366 -5.7504902156410349 5.0421519065792744 0.75470958851134928 0 -0.65605901945558964 0.32802950972779482 0 0.37735479425567464 1 I I 0 1 0.5 forward I I I I #
face $-1 $107 $108 $35 $-1 $109 forward single #
loop $-1 $110 $111 $44 #
cone-surface $-1 -38.197766152139366 -3.1283568572105587 5.0421519065792744 0.75470958851134928 0 -0.65605901945558964 0.32802950972779482 0 0.37735479425567464 1 I I 0 1 0.5 forward I I I I #
face $-1 $112 $113 $27 $-1 $114 reversed single #
loop $-1 $-1 $115 $45 #
plane-surface $-1 0 0 -9.2009793425556747 0 0 1 1 0 0 forward_v I I I I #
coedge $-1 $116 $117 $118 $119 forward $46 $-1 #
face $-1 $120 $121 $28 $-1 $122 forward single #
loop $-1 $-1 $123 $48 #
plane-surface $-1 -38.262556989944457 -15.666672027465081 0 -1 0 0 0 0 1 forward_v I I I I #
coedge $-1 $124 $125 $126 $127 forward $49 $-1 #
face $-1 $128 $129 $29 $-1 $130 reversed single #
loop $-1 $-1 $131 $51 #
plane-surface $-1 0 9.7568364109924914 7.7009793425556747 0 1 0 0 0 1 forward_v I I I I #
coedge $-1 $132 $133 $134 $135 reversed $52 $-1 #
face $-1 $136 $137 $30 $-1 $138 reversed single #
loop $-1 $-1 $139 $54 #
plane-surface $-1 -13.087487433771891 -4.4394235364257959 65.016360887808389 0.75470958851134928 0 0.65605901945558964 0.65605901945558964 0 -0.75470958851134928 forward_v I I I I #
coedge $-1 $140 $141 $142 $143 reversed $55 $-1 #
face $-1 $-1 $144 $31 $-1 $145 forward single #
loop $-1 $146 $147 $57 #
cone-surface $-1 37.525208131511022 -5.7504902156410349 4.4575061537530249 -0.75470958851134928 0 -0.65605901945558964 0.16401475486389741 0 -0.18867739712783732 1 I I -0.70710678118654746 0.70710678118654746 0.25 forward I I I I #
loop $-1 $-1 $148 $40 #
coedge $-1 $92 $92 $149 $150 reversed $58 $-1 #
face $-1 $-1 $151 $32 $-1 $152 forward single #
loop $-1 $153 $154 $60 #
cone-surface $-1 37.525208131511022 -3.1283568572105587 4.4575061537530249 -0.75470958851134928 0 -0.65605901945558964 0.16401475486389741 0 -0.18867739712783732 1 I I -0.70710678118654746 0.70710678118654746 0.25 forward I I I I #
loop $-1 $-1 $155 $41 #
coedge $-1 $97 $97 $156 $157 reversed $61 $-1 #
face $-1 $158 $159 $33 $-1 $160 reversed single #
loop $-1 $-1 $161 $63 #
plane-surface $-1 -41.931211279641111 -4.4394235364257959 1.7245864665275974 -0.75470958851134928 0 0.65605901945558964 0.65605901945558964 0 0.75470958851134928 forward_v I I I I #
coedge $-1 $162 $163 $164 $165 reversed $64 $-1 #
face $-1 $-1 $166 $34 $-1 $167 forward single #
loop $-1 $168 $169 $66 #
cone-surface $-1 -37.525208131511036 -5.7504902156410349 4.4575061537530143 0.75470958851134928 0 -0.65605901945558964 0.16401475486389741 0 0.18867739712783732 1 I I -0.70710678118654746 0.70710678118654746 0.25 forward I I I I #
loop $-1 $-1 $170 $43 #
coedge $-1 $106 $106 $171 $172 reversed $67 $-1 #
face $-1 $-1 $173 $35 $-1 $174 forward single #
loop $-1 $175 $176 $69 #
cone-surface $-1 -37.525208131511036 -3.1283568572105587 4.4575061537530143 0.75470958851134928 0 -0.65605901945558964 0.16401475486389741 0 0.18867739712783732 1 I I -0.70710678118654746 0.70710678118654746 0.25 forward I I I I #
loop $-1 $-1 $177 $44 #
coedge $-1 $111 $111 $178 $179 reversed $70 $-1 #
face $-1 $180 $181 $27 $-1 $182 reversed single #
loop $-1 $-1 $183 $72 #
plane-surface $-1 0 -20.557388335880443 0 0 1 0 0 0 1 forward_v I I I I #
coedge $-1 $184 $185 $186 $187 forward $73 $-1 #
coedge $-1 $188 $75 $189 $190 forward $46 $-1 #
coedge $-1 $75 $188 $191 $192 forward $46 $-1 #
coedge $-1 $193 $194 $75 $119 reversed $195 $-1 #
edge $-1 $196 -20.557388335880443 $197 20.557388335880443 $118 $198 forward 7 unknown #
face $-1 $199 $200 $28 $-1 $201 reversed single #
loop $-1 $-1 $202 $76 #
plane-surface $-1 0 0 9.2009793425556747 0 0 1 1 0 0 forward_v I I I I #
coedge $-1 $203 $204 $205 $206 reversed $77 $-1 #
coedge $-1 $207 $79 $208 $209 reversed $49 $-1 #
coedge $-1 $79 $207 $210 $211 reversed $49 $-1 #
coedge $-1 $204 $203 $79 $127 reversed $77 $-1 #
edge $-1 $212 -9.2009793425556747 $213 9.2009793425556747 $126 $214 forward 7 unknown #
face $-1 $215 $216 $29 $-1 $217 reversed single #
loop $-1 $-1 $218 $80 #
plane-surface $-1 0 20.557388335880443 0 0 -1 0 0 0 -1 forward_v I I I I #
coedge $-1 $219 $220 $221 $222 reversed $81 $-1 #
coedge $-1 $223 $83 $219 $224 forward $52 $-1 #
coedge $-1 $83 $223 $218 $225 reversed $52 $-1 #
coedge $-1 $226 $227 $83 $135 forward $228 $-1 #
edge $-1 $229 2.1782802242742587 $230 12.978832149162207 $134 $231 forward 7 unknown #
face $-1 $232 $233 $30 $-1 $234 reversed single #
loop $-1 $-1 $235 $84 #
plane-surface $-1 50.20428698750888 -7.4985791212613488 120.03505960122139 0 1 0 0.75470958851134928 0 0.65605901945558964 forward_v I I I I #
coedge $-1 $236 $237 $238 $239 reversed $85 $-1 #
coedge $-1 $141 $87 $240 $241 reversed $55 $-1 #
coedge $-1 $87 $140 $236 $242 reversed $55 $-1 #
coedge $-1 $238 $243 $87 $143 forward $244 $-1 #
edge $-1 $245 -16.829067785886664 $246 -10.329938777884202 $142 $247 forward 7 unknown #
loop $-1 $-1 $149 $88 #
plane-surface $-1 -13.087487433771891 -4.4394235364257959 65.016360887808389 0.75470958851134928 0 0.65605901945558964 0.65605901945558964 0 -0.75470958851134928 forward_v I I I I #
loop $-1 $-1 $248 $57 #
coedge $-1 $147 $147 $148 $249 reversed $89 $-1 #
coedge $-1 $148 $148 $147 $249 forward $91 $-1 #
coedge $-1 $149 $149 $92 $150 forward $144 $-1 #
edge $-1 $250 0 $250 6.2831853071796004 $149 $251 forward 7 unknown #
loop $-1 $-1 $156 $93 #
plane-surface $-1 -13.087487433771891 -4.4394235364257959 65.016360887808389 0.75470958851134928 0 0.65605901945558964 0.65605901945558964 0 -0.75470958851134928 forward_v I I I I #
loop $-1 $-1 $252 $60 #
coedge $-1 $154 $154 $155 $253 reversed $94 $-1 #
coedge $-1 $155 $155 $154 $253 forward $96 $-1 #
coedge $-1 $156 $156 $97 $157 forward $151 $-1 #
edge $-1 $254 0 $254 6.2831853071796004 $156 $255 forward 7 unknown #
face $-1 $256 $257 $33 $-1 $258 forward single #
loop $-1 $-1 $259 $98 #
plane-surface $-1 -105.22298570092188 -1.380267951590243 56.743285179940607 0 -1 0 0.75470958851134928 0 -0.65605901945558964 forward_v I I I I #
coedge $-1 $260 $261 $262 $263 reversed $99 $-1 #
coedge $-1 $163 $101 $264 $265 reversed $64 $-1 #
coedge $-1 $101 $162 $260 $266 reversed $64 $-1 #
coedge $-1 $262 $267 $101 $165 forward $257 $-1 #
edge $-1 $268 10.680281570819837 $269 17.179410578822321 $164 $270 forward 7 unknown #
loop $-1 $-1 $171 $102 #
plane-surface $-1 -41.931211279641111 -4.4394235364257959 1.7245864665275974 -0.75470958851134928 0 0.65605901945558964 0.65605901945558964 0 0.75470958851134928 forward_v I I I I #
loop $-1 $-1 $271 $66 #
coedge $-1 $169 $169 $170 $272 reversed $103 $-1 #
coedge $-1 $170 $170 $169 $272 forward $105 $-1 #
coedge $-1 $171 $171 $106 $172 forward $166 $-1 #
edge $-1 $273 0 $273 6.2831853071796004 $171 $274 forward 7 unknown #
loop $-1 $-1 $178 $107 #
plane-surface $-1 -41.931211279641111 -4.4394235364257959 1.7245864665275974 -0.75470958851134928 0 0.65605901945558964 0.65605901945558964 0 0.75470958851134928 forward_v I I I I #
loop $-1 $-1 $275 $69 #
coedge $-1 $176 $176 $177 $276 reversed $108 $-1 #
coedge $-1 $177 $177 $176 $276 forward $110 $-1 #
coedge $-1 $178 $178 $111 $179 forward $173 $-1 #
edge $-1 $277 0 $277 6.2831853071796004 $178 $278 forward 7 unknown #
face $-1 $279 $280 $27 $-1 $281 reversed single #
loop $-1 $-1 $282 $112 #
plane-surface $-1 -41.931211279641104 0 0 1 0 0 0 0 -1 forward_v I I I I #
coedge $-1 $283 $191 $284 $285 forward $113 $-1 #
coedge $-1 $286 $115 $283 $287 forward $73 $-1 #
coedge $-1 $115 $286 $288 $289 forward $73 $-1 #
coedge $-1 $194 $193 $115 $187 reversed $195 $-1 #
edge $-1 $290 -20.557388335880443 $291 20.557388335880443 $186 $292 forward 7 unknown #
coedge $-1 $117 $116 $293 $294 forward $46 $-1 #
coedge $-1 $295 $296 $116 $190 reversed $280 $-1 #
edge $-1 $197 -41.931211279641104 $297 41.931211279641104 $189 $298 forward 7 unknown #
coedge $-1 $183 $299 $117 $192 reversed $113 $-1 #
edge $-1 $300 -41.931211279641104 $196 41.931211279641104 $191 $301 forward 7 unknown #
coedge $-1 $186 $118 $299 $302 forward $195 $-1 #
coedge $-1 $118 $186 $295 $303 reversed $195 $-1 #
loop $-1 $-1 $193 $279 #
vertex $-1 $119 $304 #
vertex $-1 $119 $305 #
straight-curve $-1 41.931211279641104 0 9.2009793425556747 0 1 0 I I #
face $-1 $306 $307 $28 $-1 $308 reversed single #
loop $-1 $-1 $309 $120 #
plane-surface $-1 -41.931211279641104 0 0 1 0 0 0 0 -1 forward_v I I I I #
coedge $-1 $210 $310 $204 $311 forward $121 $-1 #
coedge $-1 $126 $123 $312 $313 reversed $77 $-1 #
coedge $-1 $123 $126 $202 $311 reversed $77 $-1 #
coedge $-1 $314 $315 $123 $206 forward $316 $-1 #
edge $-1 $317 -9.2009793425556747 $318 9.2009793425556747 $205 $319 forward 7 unknown #
coedge $-1 $125 $124 $309 $320 reversed $49 $-1 #
coedge $-1 $312 $321 $124 $209 forward $307 $-1 #
edge $-1 $322 -21.882769212244714 $213 -18.214114922548067 $208 $323 forward 7 unknown #
coedge $-1 $324 $202 $125 $211 forward $121 $-1 #
edge $-1 $212 18.214114922548067 $325 21.882769212244714 $210 $326 forward 7 unknown #
vertex $-1 $211 $327 #
vertex $-1 $209 $328 #
straight-curve $-1 -38.262556989944457 -10.775955719049719 0 0 0 -1 I I #
face $-1 $329 $330 $29 $-1 $331 forward single #
loop $-1 $-1 $332 $128 #
plane-surface $-1 -41.931211279641104 0 0 1 0 0 0 0 -1 forward_v I I I I #
coedge $-1 $333 $334 $133 $225 forward $129 $-1 #
coedge $-1 $335 $131 $132 $224 reversed $81 $-1 #
coedge $-1 $131 $335 $336 $337 reversed $81 $-1 #
coedge $-1 $338 $332 $131 $222 forward $216 $-1 #
edge $-1 $339 2.3504896712778374 $340 5.3504896712778374 $221 $341 forward 7 unknown #
coedge $-1 $133 $132 $332 $342 reversed $52 $-1 #
edge $-1 $229 -41.931211279641104 $339 41.931211279641104 $219 $343 forward 7 unknown #
edge $-1 $230 -41.931211279641104 $344 41.931211279641104 $218 $345 forward 7 unknown #
coedge $-1 $346 $134 $334 $347 reversed $228 $-1 #
coedge $-1 $134 $346 $335 $348 forward $228 $-1 #
loop $-1 $-1 $134 $329 #
vertex $-1 $135 $349 #
vertex $-1 $225 $350 #
straight-curve $-1 41.931211279641104 7.5785561867182327 6.2009793425556747 0 1 0 I I #
face $-1 $-1 $244 $30 $-1 $351 forward single #
loop $-1 $-1 $352 $136 #
plane-surface $-1 41.931211279641104 0 0 -1 0 0 0 0 1 forward_v I I I I #
coedge $-1 $353 $354 $355 $356 reversed $137 $-1 #
coedge $-1 $357 $139 $141 $242 forward $85 $-1 #
coedge $-1 $139 $357 $353 $358 forward $85 $-1 #
coedge $-1 $355 $142 $139 $239 forward $244 $-1 #
edge $-1 $246 -0.83944381662265499 $359 5.2788673530484509 $238 $360 forward 7 unknown #
coedge $-1 $361 $362 $140 $241 forward $233 $-1 #
edge $-1 $363 -58.292943334083063 $245 -50.816550458055019 $240 $364 forward 7 unknown #
edge $-1 $246 73.956104963960428 $363 83.862422559282209 $141 $365 forward 7 unknown #
coedge $-1 $142 $355 $361 $366 forward $244 $-1 #
loop $-1 $-1 $355 $232 #
vertex $-1 $241 $367 #
vertex $-1 $143 $368 #
straight-curve $-1 25.10214349375444 -1.380267951590243 9.2009793425556765 -1 0 0 I I #
coedge $-1 $248 $248 $-1 $369 reversed $146 $-1 #
edge $-1 $370 0 $370 6.2831853071796004 $147 $371 forward 7 unknown #
vertex $-1 $150 $372 #
ellipse-curve $-1 38.681646775639862 -5.7504902156410349 5.4627829045416645 0.75470958851134928 0 0.65605901945558964 0.32802950972779482 0 -0.37735479425567464 1 I I #
coedge $-1 $252 $252 $-1 $373 reversed $153 $-1 #
edge $-1 $374 0 $374 6.2831853071796004 $154 $375 forward 7 unknown #
vertex $-1 $157 $376 #
ellipse-curve $-1 38.681646775639862 -3.1283568572105587 5.4627829045416645 0.75470958851134928 0 0.65605901945558964 0.32802950972779482 0 -0.37735479425567464 1 I I #
face $-1 $-1 $377 $33 $-1 $378 reversed single #
loop $-1 $-1 $164 $158 #
plane-surface $-1 0 0 9.2009793425556747 0 0 1 1 0 0 forward_v I I I I #
coedge $-1 $379 $380 $381 $382 reversed $159 $-1 #
coedge $-1 $383 $161 $163 $266 forward $99 $-1 #
coedge $-1 $161 $383 $379 $384 forward $99 $-1 #
coedge $-1 $381 $164 $161 $263 forward $257 $-1 #
edge $-1 $269 -5.2788673530484509 $385 0.83944381662265499 $262 $386 forward 7 unknown #
coedge $-1 $387 $388 $162 $265 forward $377 $-1 #
edge $-1 $389 -26.647056123442699 $268 -19.17066324741463 $264 $390 forward 7 unknown #
edge $-1 $269 -9.9063175953218288 $389 -1.086200982436365e-014 $163 $391 forward 7 unknown #
coedge $-1 $164 $381 $387 $392 forward $257 $-1 #
vertex $-1 $165 $393 #
vertex $-1 $165 $394 #
straight-curve $-1 -52.611492850460941 -7.4985791212613488 9.2009793425556765 1 0 0 I I #
coedge $-1 $271 $271 $-1 $395 reversed $168 $-1 #
edge $-1 $396 0 $396 6.2831853071796004 $169 $397 forward 7 unknown #
vertex $-1 $172 $398 #
ellipse-curve $-1 -38.681646775639862 -5.7504902156410349 5.4627829045416396 -0.75470958851134928 0 0.65605901945558964 0.32802950972779482 0 0.37735479425567464 1 I I #
coedge $-1 $275 $275 $-1 $399 reversed $175 $-1 #
edge $-1 $400 0 $400 6.2831853071796004 $176 $401 forward 7 unknown #
vertex $-1 $179 $402 #
ellipse-curve $-1 -38.681646775639862 -3.1283568572105587 5.4627829045416396 -0.75470958851134928 0 0.65605901945558964 0.32802950972779482 0 0.37735479425567464 1 I I #
face $-1 $-1 $195 $27 $-1 $403 reversed single #
loop $-1 $-1 $295 $180 #
plane-surface $-1 0 20.557388335880443 0 0 -1 0 0 0 -1 forward_v I I I I #
coedge $-1 $404 $293 $296 $405 forward $181 $-1 #
coedge $-1 $299 $183 $184 $287 reversed $113 $-1 #
coedge $-1 $293 $404 $183 $285 reversed $181 $-1 #
edge $-1 $300 -9.2009793425556747 $406 9.2009793425556747 $284 $407 forward 7 unknown #
coedge $-1 $185 $184 $404 $408 forward $73 $-1 #
edge $-1 $291 -41.931211279641104 $406 41.931211279641104 $283 $409 forward 7 unknown #
coedge $-1 $296 $295 $185 $289 reversed $280 $-1 #
edge $-1 $410 -41.931211279641104 $290 41.931211279641104 $288 $411 forward 7 unknown #
vertex $-1 $187 $412 #
vertex $-1 $302 $413 #
straight-curve $-1 41.931211279641104 0 -9.2009793425556747 0 -1 0 I I #
coedge $-1 $282 $284 $188 $294 reversed $181 $-1 #
edge $-1 $297 -20.557388335880443 $300 20.557388335880443 $293 $414 forward 7 unknown #
coedge $-1 $288 $189 $194 $303 forward $280 $-1 #
coedge $-1 $189 $288 $282 $405 reversed $280 $-1 #
vertex $-1 $190 $415 #
straight-curve $-1 0 20.557388335880443 9.2009793425556747 -1 0 0 I I #
coedge $-1 $191 $283 $193 $302 reversed $113 $-1 #
vertex $-1 $294 $416 #
straight-curve $-1 0 -20.557388335880443 9.2009793425556747 1 0 0 I I #
edge $-1 $196 -9.2009793425556747 $291 9.2009793425556747 $193 $417 forward 7 unknown #
edge $-1 $197 -9.2009793425556747 $290 9.2009793425556747 $194 $418 forward 7 unknown #
point $-1 41.931211279641104 -20.557388335880443 9.2009793425556747 #
point $-1 41.931211279641104 20.557388335880443 9.2009793425556747 #
face $-1 $-1 $316 $28 $-1 $419 reversed single #
loop $-1 $-1 $312 $199 #
plane-surface $-1 0 0 -9.2009793425556747 0 0 1 1 0 0 forward_v I I I I #
coedge $-1 $420 $421 $207 $320 forward $200 $-1 #
coedge $-1 $202 $324 $314 $422 forward $121 $-1 #
edge $-1 $318 -12.724052322147902 $212 -2.9426197053171785 $202 $423 forward 7 unknown #
coedge $-1 $424 $208 $203 $313 forward $307 $-1 #
edge $-1 $213 2.9426197053171785 $317 12.724052322147902 $312 $425 forward 7 unknown #
coedge $-1 $426 $205 $310 $422 reversed $316 $-1 #
coedge $-1 $205 $426 $424 $427 reversed $316 $-1 #
loop $-1 $-1 $205 $306 #
vertex $-1 $427 $428 #
vertex $-1 $206 $429 #
straight-curve $-1 -38.262556989944457 -20.557388335880443 0 0 0 1 I I #
edge $-1 $325 -9.2009793425556747 $322 9.2009793425556747 $309 $430 forward 7 unknown #
coedge $-1 $208 $424 $420 $431 forward $307 $-1 #
vertex $-1 $209 $432 #
straight-curve $-1 -20.04844206739639 -10.775955719049719 -9.2009793425556747 1 0 0 I I #
coedge $-1 $310 $210 $421 $433 forward $121 $-1 #
vertex $-1 $433 $434 #
straight-curve $-1 -20.04844206739639 -10.775955719049719 9.2009793425556747 -1 0 0 I I #
point $-1 -38.262556989944457 -10.775955719049719 9.2009793425556747 #
point $-1 -38.262556989944457 -10.775955719049719 -9.2009793425556747 #
face $-1 $-1 $228 $29 $-1 $435 reversed single #
loop $-1 $-1 $336 $215 #
plane-surface $-1 0 0 9.2009793425556747 0 0 1 1 0 0 forward_v I I I I #
coedge $-1 $221 $436 $223 $342 forward $216 $-1 #
coedge $-1 $437 $218 $436 $438 reversed $129 $-1 #
coedge $-1 $218 $437 $226 $347 forward $129 $-1 #
coedge $-1 $220 $219 $227 $348 reversed $81 $-1 #
coedge $-1 $439 $440 $220 $337 forward $330 $-1 #
edge $-1 $340 -41.931211279641104 $441 41.931211279641104 $336 $442 forward 7 unknown #
coedge $-1 $436 $221 $440 $443 reversed $216 $-1 #
vertex $-1 $342 $444 #
vertex $-1 $222 $445 #
straight-curve $-1 -41.931211279641104 9.7568364109924914 3.8504896712778374 0 0 1 I I #
edge $-1 $344 -12.978832149162207 $339 -2.1782802242742587 $332 $446 forward 7 unknown #
straight-curve $-1 0 9.7568364109924914 6.2009793425556747 -1 0 0 I I #
vertex $-1 $342 $447 #
straight-curve $-1 0 20.557388335880443 6.2009793425556747 -1 0 0 I I #
coedge $-1 $227 $226 $439 $448 reversed $228 $-1 #
edge $-1 $449 -9.2009793425556747 $230 -6.2009793425556747 $226 $450 forward 7 unknown #
edge $-1 $441 -5.3504896712778374 $229 -2.3504896712778374 $227 $451 forward 7 unknown #
point $-1 41.931211279641104 9.7568364109924914 6.2009793425556747 #
point $-1 41.931211279641104 20.557388335880439 6.2009793425556747 #
plane-surface $-1 0 0 9.2009793425556747 0 0 1 1 0 0 forward_v I I I I #
coedge $-1 $362 $361 $354 $452 forward $233 $-1 #
coedge $-1 $354 $235 $237 $358 reversed $137 $-1 #
coedge $-1 $235 $353 $352 $452 reversed $137 $-1 #
coedge $-1 $243 $238 $235 $356 forward $244 $-1 #
edge $-1 $359 10.329938777884202 $453 16.829067785886664 $355 $454 forward 7 unknown #
coedge $-1 $237 $236 $362 $455 reversed $85 $-1 #
edge $-1 $456 -83.862422559282209 $359 -73.956104963960428 $353 $457 forward 7 unknown #
vertex $-1 $239 $458 #
straight-curve $-1 35.432082271638635 -2.219711768212898 9.2009793425556765 0 -1 0 I I #
coedge $-1 $352 $240 $243 $366 reversed $233 $-1 #
coedge $-1 $240 $352 $357 $455 forward $233 $-1 #
vertex $-1 $241 $459 #
straight-curve $-1 41.931211279641104 -1.380267951590243 60.017529800610696 0 0 1 I I #
straight-curve $-1 -13.087487433771891 -1.380267951590243 65.016360887808389 0.65605901945558964 0 -0.75470958851134928 I I #
edge $-1 $453 -7.4985791212613488 $245 -1.380267951590243 $361 $460 forward 7 unknown #
point $-1 41.931211279641104 -1.380267951590243 9.2009793425556747 #
point $-1 35.432082271638642 -1.380267951590243 9.2009793425556694 #
edge $-1 $461 1 $461 0 $248 $-1 forward 7 unknown #
vertex $-1 $249 $462 #
ellipse-curve $-1 37.713885528638862 -5.7504902156410349 4.6215209086169224 0.75470958851134928 0 0.65605901945558964 0.32802950972779482 0 -0.37735479425567464 1 I I #
point $-1 39.00967628536764 -5.7504902156410349 5.0854281102859735 #
edge $-1 $463 1 $463 0 $252 $-1 forward 7 unknown #
vertex $-1 $253 $464 #
ellipse-curve $-1 37.713885528638862 -3.1283568572105587 4.6215209086169224 0.75470958851134928 0 0.65605901945558964 0.32802950972779482 0 -0.37735479425567464 1 I I #
point $-1 39.00967628536764 -3.1283568572105587 5.0854281102859735 #
loop $-1 $-1 $264 $256 #
plane-surface $-1 -41.931211279641104 0 0 1 0 0 0 0 -1 forward_v I I I I #
coedge $-1 $380 $259 $261 $384 reversed $159 $-1 #
coedge $-1 $259 $379 $465 $466 reversed $159 $-1 #
coedge $-1 $267 $262 $259 $382 forward $257 $-1 #
edge $-1 $385 -17.179410578822321 $467 -10.680281570819837 $381 $468 forward 7 unknown #
coedge $-1 $261 $260 $388 $469 reversed $99 $-1 #
edge $-1 $470 1.086200982436365e-014 $385 9.9063175953218288 $379 $471 forward 7 unknown #
vertex $-1 $263 $472 #
straight-curve $-1 -35.432082271638613 -2.219711768212898 9.2009793425556747 0 1 0 I I #
coedge $-1 $465 $264 $267 $392 reversed $377 $-1 #
coedge $-1 $264 $465 $383 $469 forward $377 $-1 #
vertex $-1 $265 $473 #
straight-curve $-1 -41.931211279641104 -7.4985791212613488 28.371642589970303 0 0 1 I I #
straight-curve $-1 -41.931211279641111 -7.4985791212613488 1.7245864665275974 -0.65605901945558964 0 -0.75470958851134928 I I #
edge $-1 $467 1.380267951590243 $268 7.4985791212613488 $387 $474 forward 7 unknown #
point $-1 -41.931211279641104 -7.4985791212613488 9.2009793425556747 #
point $-1 -35.43208227163862 -7.4985791212613488 9.2009793425556747 #
edge $-1 $475 1 $475 0 $271 $-1 forward 7 unknown #
vertex $-1 $272 $476 #
ellipse-curve $-1 -37.713885528638876 -5.7504902156410349 4.6215209086169118 -0.75470958851134928 0 0.65605901945558964 0.32802950972779482 0 0.37735479425567464 1 I I #
point $-1 -38.353617265912064 -5.7504902156410349 5.8401376987973119 #
edge $-1 $477 1 $477 0 $275 $-1 forward 7 unknown #
vertex $-1 $276 $478 #
ellipse-curve $-1 -37.713885528638876 -3.1283568572105587 4.6215209086169118 -0.75470958851134928 0 0.65605901945558964 0.32802950972779482 0 0.37735479425567464 1 I I #
point $-1 -38.353617265912064 -3.1283568572105587 5.8401376987973119 #
plane-surface $-1 41.931211279641104 0 0 -1 0 0 0 0 1 forward_v I I I I #
coedge $-1 $284 $282 $286 $408 reversed $181 $-1 #
edge $-1 $297 -9.2009793425556747 $410 9.2009793425556747 $296 $479 forward 7 unknown #
vertex $-1 $408 $480 #
straight-curve $-1 -41.931211279641104 -20.557388335880443 0 0 0 -1 I I #
edge $-1 $406 -20.557388335880443 $410 20.557388335880443 $404 $481 forward 7 unknown #
straight-curve $-1 0 -20.557388335880443 -9.2009793425556747 -1 0 0 I I #
vertex $-1 $289 $482 #
straight-curve $-1 0 20.557388335880443 -9.2009793425556747 1 0 0 I I #
point $-1 41.931211279641104 20.557388335880443 -9.2009793425556747 #
point $-1 41.931211279641104 -20.557388335880443 -9.2009793425556747 #
straight-curve $-1 -41.931211279641104 0 9.2009793425556747 0 -1 0 I I #
point $-1 -41.931211279641104 20.557388335880443 9.2009793425556747 #
point $-1 -41.931211279641104 -20.557388335880443 9.2009793425556747 #
straight-curve $-1 41.931211279641104 -20.557388335880443 0 0 0 -1 I I #
straight-curve $-1 41.931211279641104 20.557388335880443 0 0 0 -1 I I #
plane-surface $-1 0 -20.557388335880443 0 0 1 0 0 0 1 forward_v I I I I #
coedge $-1 $483 $309 $321 $431 reversed $200 $-1 #
coedge $-1 $309 $483 $324 $433 reversed $200 $-1 #
edge $-1 $484 -41.931211279641104 $318 -38.262556989944457 $314 $485 forward 7 unknown #
straight-curve $-1 -38.262556989944457 -7.8333360137325405 9.2009793425556747 0 1 0 I I #
coedge $-1 $321 $312 $315 $427 forward $307 $-1 #
straight-curve $-1 -38.262556989944457 -7.8333360137325405 -9.2009793425556747 0 -1 0 I I #
coedge $-1 $315 $314 $483 $486 forward $316 $-1 #
edge $-1 $317 38.262556989944457 $487 41.931211279641104 $315 $488 forward 7 unknown #
point $-1 -38.262556989944457 -20.557388335880443 -9.2009793425556747 #
point $-1 -38.262556989944457 -20.557388335880443 9.2009793425556747 #
straight-curve $-1 -41.931211279641104 -10.775955719049719 0 0 0 -1 I I #
edge $-1 $487 -20.557388335880443 $322 -10.775955719049719 $420 $489 forward 7 unknown #
point $-1 -41.931211279641104 -10.775955719049719 -9.2009793425556747 #
edge $-1 $325 10.775955719049719 $484 20.557388335880443 $421 $490 forward 7 unknown #
point $-1 -41.931211279641104 -10.775955719049719 9.2009793425556747 #
plane-surface $-1 41.931211279641104 0 0 -1 0 0 0 0 1 forward_v I I I I #
coedge $-1 $332 $338 $333 $438 forward $216 $-1 #
coedge $-1 $334 $333 $491 $492 reversed $129 $-1 #
edge $-1 $493 -9.2009793425556747 $344 -6.2009793425556747 $333 $494 forward 7 unknown #
coedge $-1 $491 $336 $346 $448 forward $330 $-1 #
coedge $-1 $336 $491 $338 $443 forward $330 $-1 #
vertex $-1 $448 $495 #
straight-curve $-1 0 9.7568364109924914 9.2009793425556747 1 0 0 I I #
edge $-1 $493 -20.557388335880443 $340 -9.7568364109924914 $338 $496 forward 7 unknown #
point $-1 -41.931211279641104 9.7568364109924914 6.2009793425556747 #
point $-1 -41.931211279641104 9.7568364109924914 9.2009793425556747 #
straight-curve $-1 -41.931211279641104 7.5785561867182327 6.2009793425556747 0 -1 0 I I #
point $-1 -41.931211279641104 20.557388335880439 6.2009793425556747 #
edge $-1 $441 9.7568364109924914 $449 20.557388335880443 $346 $497 forward 7 unknown #
vertex $-1 $448 $498 #
straight-curve $-1 41.931211279641104 20.557388335880443 0 0 0 -1 I I #
straight-curve $-1 41.931211279641104 9.7568364109924914 3.8504896712778374 0 0 -1 I I #
edge $-1 $453 50.816550458055019 $456 58.292943334083063 $352 $499 forward 7 unknown #
vertex $-1 $366 $500 #
straight-curve $-1 25.10214349375444 -7.4985791212613488 9.2009793425556765 1 0 0 I I #
edge $-1 $456 -5.2788673530484509 $363 0.83944381662265499 $362 $501 forward 7 unknown #
vertex $-1 $455 $502 #
straight-curve $-1 -13.087487433771891 -7.4985791212613488 65.016360887808389 -0.65605901945558964 0 0.75470958851134928 I I #
point $-1 35.432082271638642 -7.4985791212613488 9.2009793425556694 #
point $-1 41.931211279641104 -1.380267951590243 1.7245864665276329 #
straight-curve $-1 41.931211279641104 0 9.2009793425556747 0 1 0 I I #
vertex $-1 $369 $503 #
point $-1 38.041915038366653 -5.7504902156410349 4.2441661143612475 #
vertex $-1 $373 $504 #
point $-1 38.041915038366653 -3.1283568572105587 4.2441661143612475 #
coedge $-1 $388 $387 $380 $466 forward $377 $-1 #
edge $-1 $467 19.17066324741463 $470 26.647056123442699 $465 $505 forward 7 unknown #
vertex $-1 $392 $506 #
straight-curve $-1 -52.611492850460941 -1.380267951590243 9.2009793425556765 -1 0 0 I I #
edge $-1 $470 -0.83944381662265499 $389 5.2788673530484509 $388 $507 forward 7 unknown #
vertex $-1 $469 $508 #
straight-curve $-1 -41.931211279641111 -1.380267951590243 1.7245864665275974 0.65605901945558964 0 0.75470958851134928 I I #
point $-1 -35.43208227163862 -1.380267951590243 9.2009793425556747 #
point $-1 -41.931211279641104 -7.4985791212613488 1.7245864665276056 #
straight-curve $-1 -41.931211279641104 0 9.2009793425556747 0 -1 0 I I #
vertex $-1 $395 $509 #
point $-1 -37.385856018911078 -5.7504902156410349 4.9988757028725868 #
vertex $-1 $399 $510 #
point $-1 -37.385856018911078 -3.1283568572105587 4.9988757028725868 #
straight-curve $-1 -41.931211279641104 20.557388335880443 0 0 0 -1 I I #
point $-1 -41.931211279641104 -20.557388335880443 -9.2009793425556747 #
straight-curve $-1 -41.931211279641104 0 -9.2009793425556747 0 1 0 I I #
point $-1 -41.931211279641104 20.557388335880443 -9.2009793425556747 #
coedge $-1 $421 $420 $426 $486 reversed $200 $-1 #
vertex $-1 $433 $511 #
straight-curve $-1 0 -20.557388335880443 9.2009793425556747 1 0 0 I I #
edge $-1 $484 -9.2009793425556747 $487 9.2009793425556747 $483 $512 forward 7 unknown #
vertex $-1 $431 $513 #
straight-curve $-1 0 -20.557388335880443 -9.2009793425556747 -1 0 0 I I #
straight-curve $-1 -41.931211279641104 0 -9.2009793425556747 0 1 0 I I #
straight-curve $-1 -41.931211279641104 0 9.2009793425556747 0 -1 0 I I #
coedge $-1 $440 $439 $437 $492 forward $330 $-1 #
edge $-1 $449 -41.931211279641104 $493 41.931211279641104 $437 $514 forward 7 unknown #
vertex $-1 $492 $515 #
straight-curve $-1 -41.931211279641104 20.557388335880443 0 0 0 -1 I I #
point $-1 41.931211279641104 9.7568364109924914 9.2009793425556747 #
straight-curve $-1 -41.931211279641104 0 9.2009793425556747 0 -1 0 I I #
straight-curve $-1 41.931211279641104 0 9.2009793425556747 0 1 0 I I #
point $-1 41.931211279641104 20.557388335880443 9.2009793425556747 #
straight-curve $-1 41.931211279641104 -7.4985791212613488 60.017529800610696 0 0 -1 I I #
point $-1 41.931211279641104 -7.4985791212613488 9.2009793425556747 #
straight-curve $-1 41.931211279641111 -2.219711768212898 1.7245864665276223 0 1 0 I I #
point $-1 41.931211279641104 -7.4985791212613488 1.7245864665276329 #
point $-1 37.336530734383182 -5.7504902156410349 4.2934913988891275 #
point $-1 37.336530734383182 -3.1283568572105587 4.2934913988891275 #
straight-curve $-1 -41.931211279641104 -1.380267951590243 28.371642589970303 0 0 -1 I I #
point $-1 -41.931211279641104 -1.380267951590243 9.2009793425556747 #
straight-curve $-1 -41.931211279641104 -2.219711768212898 1.7245864665276016 0 -1 0 I I #
point $-1 -41.931211279641104 -1.380267951590243 1.7245864665276056 #
point $-1 -37.336530734383196 -5.7504902156410349 4.2934913988891168 #
point $-1 -37.336530734383196 -3.1283568572105587 4.2934913988891168 #
point $-1 -41.931211279641104 -20.557388335880443 9.2009793425556747 #
straight-curve $-1 -41.931211279641104 -20.557388335880443 0 0 0 -1 I I #
point $-1 -41.931211279641104 -20.557388335880443 -9.2009793425556747 #
straight-curve $-1 0 20.557388335880443 9.2009793425556747 -1 0 0 I I #
point $-1 -41.931211279641104 20.557388335880443 9.2009793425556747 #
End-of-ACIS-data 