500 0 5 0           
7 Unknown 11 ACIS 5.0 NT 24 Thu Mar 25 19:48:37 1999 
-1 9.9999999999999995e-007 1e-010 
body $-1 $5 $-1 $6 #
body $-1 $7 $-1 $8 #
body $-1 $9 $-1 $10 #
body $-1 $11 $-1 $12 #
body $-1 $13 $-1 $14 #
lump $-1 $-1 $15 $0 #
transform $-1 1 0 0 0 1 0 0 0 1 70.801721243934452 30.45141689256398 11.473902814488723 1 rotate no_reflect no_shear #
lump $-1 $-1 $16 $1 #
transform $-1 1 0 0 0 1 0 0 0 1 70.801721243934452 30.45141689256398 11.473902814488723 1 rotate no_reflect no_shear #
lump $-1 $-1 $17 $2 #
transform $-1 1 0 0 0 1 0 0 0 1 70.801721243934452 30.45141689256398 11.473902814488723 1 rotate no_reflect no_shear #
lump $-1 $-1 $18 $3 #
transform $-1 1 0 0 0 1 0 0 0 1 70.801721243934452 30.45141689256398 11.473902814488723 1 rotate no_reflect no_shear #
lump $-1 $-1 $19 $4 #
transform $-1 1 0 0 0 1 0 0 0 1 70.801721243934452 30.45141689256398 11.473902814488723 1 rotate no_reflect no_shear #
shell $-1 $-1 $-1 $20 $-1 $5 #
shell $-1 $-1 $-1 $21 $-1 $7 #
shell $-1 $-1 $-1 $22 $-1 $9 #
shell $-1 $-1 $-1 $23 $-1 $11 #
shell $-1 $-1 $-1 $24 $-1 $13 #
face $-1 $25 $26 $15 $-1 $27 forward single #
face $-1 $28 $29 $16 $-1 $30 reversed single #
face $-1 $31 $32 $17 $-1 $33 forward single #
face $-1 $34 $35 $18 $-1 $36 reversed single #
face $-1 $37 $38 $19 $-1 $39 forward single #
face $-1 $40 $41 $15 $-1 $42 reversed single #
loop $-1 $-1 $43 $20 #
plane-surface $-1 0 0 11.473902814488723 0 0 1 1 0 0 forward_v I I I I #
face $-1 $44 $45 $16 $-1 $46 reversed single #
loop $-1 $-1 $47 $21 #
plane-surface $-1 -46.826966492484331 -117.63120229911519 118.44261936760654 -1 0 0 0 -0.61566148304635926 0.78801074757464917 forward_v I I I I #
face $-1 $48 $49 $17 $-1 $50 forward single #
loop $-1 $51 $52 $22 #
cone-surface $-1 -56.70748746578488 -26.505904802555264 7.8970614107740937 0 0.61566148304635926 -0.78801074757464917 1.5 0 0 1 I I 0 1 1.5 forward I I I I #
face $-1 $53 $54 $18 $-1 $55 reversed single #
loop $-1 $-1 $56 $23 #
plane-surface $-1 23.974754751450124 -117.63120229911519 118.44261936760654 -1 0 0 0 -0.61566148304635926 0.78801074757464917 forward_v I I I I #
face $-1 $57 $58 $19 $-1 $59 forward single #
loop $-1 $60 $61 $24 #
cone-surface $-1 14.094233778149572 -26.505904802555264 7.8970614107740937 0 0.61566148304635926 -0.78801074757464917 1.5 0 0 1 I I 0 1 1.5 forward I I I I #
face $-1 $62 $63 $15 $-1 $64 reversed single #
loop $-1 $-1 $65 $25 #
plane-surface $-1 0 0 -11.473902814488723 0 0 1 1 0 0 forward_v I I I I #
coedge $-1 $66 $67 $68 $69 forward $26 $-1 #
face $-1 $70 $71 $16 $-1 $72 reversed single #
loop $-1 $-1 $73 $28 #
plane-surface $-1 -56.70748746578488 -30.451416892563984 6.8575847935971268 0 -0.61566148304635926 0.78801074757464917 1 0 0 forward_v I I I I #
coedge $-1 $74 $75 $76 $77 reversed $29 $-1 #
face $-1 $-1 $78 $17 $-1 $79 forward single #
loop $-1 $80 $81 $31 #
cone-surface $-1 -56.70748746578488 -25.052955351789755 6.0373709568242706 0 0.61566148304635926 -0.78801074757464917 0.75 0 0 1 I I -0.70710678118654757 0.70710678118654757 0.75 forward I I I I #
loop $-1 $-1 $82 $22 #
coedge $-1 $52 $52 $83 $84 reversed $32 $-1 #
face $-1 $85 $86 $18 $-1 $87 reversed single #
loop $-1 $-1 $88 $34 #
plane-surface $-1 14.094233778149572 -30.451416892563984 6.8575847935971268 0 -0.61566148304635926 0.78801074757464917 1 0 0 forward_v I I I I #
coedge $-1 $89 $90 $91 $92 reversed $35 $-1 #
face $-1 $-1 $93 $19 $-1 $94 forward single #
loop $-1 $95 $96 $37 #
cone-surface $-1 14.094233778149572 -25.052955351789755 6.0373709568242706 0 0.61566148304635926 -0.78801074757464917 0.75 0 0 1 I I -0.70710678118654757 0.70710678118654757 0.75 forward I I I I #
loop $-1 $-1 $97 $24 #
coedge $-1 $61 $61 $98 $99 reversed $38 $-1 #
face $-1 $100 $101 $15 $-1 $102 reversed single #
loop $-1 $-1 $103 $40 #
plane-surface $-1 0 -30.45141689256398 0 0 1 0 0 0 1 forward_v I I I I #
coedge $-1 $104 $105 $106 $107 forward $41 $-1 #
coedge $-1 $108 $43 $109 $110 forward $26 $-1 #
coedge $-1 $43 $108 $111 $112 forward $26 $-1 #
coedge $-1 $113 $114 $43 $69 reversed $115 $-1 #
edge $-1 $116 -30.45141689256398 $117 30.45141689256398 $68 $118 forward 7 unknown #
face $-1 $119 $120 $16 $-1 $121 reversed single #
loop $-1 $-1 $122 $44 #
plane-surface $-1 -66.588008439085428 -117.63120229911519 118.44261936760654 1 0 0 0 0.61566148304635926 -0.78801074757464917 forward_v I I I I #
coedge $-1 $123 $124 $125 $126 reversed $45 $-1 #
coedge $-1 $75 $47 $127 $128 reversed $29 $-1 #
coedge $-1 $47 $74 $123 $129 reversed $29 $-1 #
coedge $-1 $125 $130 $47 $77 forward $131 $-1 #
edge $-1 $132 28.364184256993614 $133 34.272801760049575 $76 $134 forward 7 unknown #
loop $-1 $-1 $83 $48 #
plane-surface $-1 -56.70748746578488 -30.451416892563984 6.8575847935971268 0 -0.61566148304635926 0.78801074757464917 1 0 0 forward_v I I I I #
loop $-1 $-1 $135 $31 #
coedge $-1 $81 $81 $82 $136 reversed $49 $-1 #
coedge $-1 $82 $82 $81 $136 forward $51 $-1 #
coedge $-1 $83 $83 $52 $84 forward $78 $-1 #
edge $-1 $137 -4.0820505974724101e-016 $137 6.2831853071796004 $83 $138 forward 7 unknown #
face $-1 $139 $140 $18 $-1 $141 reversed single #
loop $-1 $-1 $142 $53 #
plane-surface $-1 4.2137128048490204 -117.63120229911519 118.44261936760654 1 0 0 0 0.61566148304635926 -0.78801074757464917 forward_v I I I I #
coedge $-1 $143 $144 $145 $146 reversed $54 $-1 #
coedge $-1 $90 $56 $147 $148 reversed $35 $-1 #
coedge $-1 $56 $89 $143 $149 reversed $35 $-1 #
coedge $-1 $145 $150 $56 $92 forward $151 $-1 #
edge $-1 $152 28.364184256993614 $153 34.272801760049575 $91 $154 forward 7 unknown #
loop $-1 $-1 $98 $57 #
plane-surface $-1 14.094233778149572 -30.451416892563984 6.8575847935971268 0 -0.61566148304635926 0.78801074757464917 1 0 0 forward_v I I I I #
loop $-1 $-1 $155 $37 #
coedge $-1 $96 $96 $97 $156 reversed $58 $-1 #
coedge $-1 $97 $97 $96 $156 forward $60 $-1 #
coedge $-1 $98 $98 $61 $99 forward $93 $-1 #
edge $-1 $157 -4.0820505974724101e-016 $157 6.2831853071796004 $98 $158 forward 7 unknown #
face $-1 $159 $160 $15 $-1 $161 reversed single #
loop $-1 $-1 $162 $62 #
plane-surface $-1 -70.801721243934452 0 0 1 0 0 0 0 -1 forward_v I I I I #
coedge $-1 $163 $111 $164 $165 forward $63 $-1 #
coedge $-1 $166 $65 $163 $167 forward $41 $-1 #
coedge $-1 $65 $166 $168 $169 forward $41 $-1 #
coedge $-1 $114 $113 $65 $107 reversed $115 $-1 #
edge $-1 $170 -30.45141689256398 $171 30.45141689256398 $106 $172 forward 7 unknown #
coedge $-1 $67 $66 $173 $174 forward $26 $-1 #
coedge $-1 $175 $176 $66 $110 reversed $160 $-1 #
edge $-1 $117 -70.801721243934452 $177 70.801721243934452 $109 $178 forward 7 unknown #
coedge $-1 $103 $179 $67 $112 reversed $63 $-1 #
edge $-1 $180 -70.801721243934452 $116 70.801721243934452 $111 $181 forward 7 unknown #
coedge $-1 $106 $68 $179 $182 forward $115 $-1 #
coedge $-1 $68 $106 $175 $183 reversed $115 $-1 #
loop $-1 $-1 $113 $159 #
vertex $-1 $69 $184 #
vertex $-1 $69 $185 #
straight-curve $-1 70.801721243934452 0 11.473902814488723 0 1 0 I I #
face $-1 $-1 $131 $16 $-1 $186 forward single #
loop $-1 $-1 $187 $70 #
plane-surface $-1 0 -30.45141689256398 0 0 1 0 0 0 1 forward_v I I I I #
coedge $-1 $188 $189 $190 $191 reversed $71 $-1 #
coedge $-1 $192 $73 $75 $129 forward $45 $-1 #
coedge $-1 $73 $192 $188 $193 forward $45 $-1 #
coedge $-1 $190 $76 $73 $126 forward $131 $-1 #
edge $-1 $133 18.473222759591891 $194 38.234264706192988 $125 $195 forward 7 unknown #
coedge $-1 $196 $197 $74 $128 forward $120 $-1 #
edge $-1 $198 -52.363724890206143 $132 -47.747406869314545 $127 $199 forward 7 unknown #
edge $-1 $133 -7.4981432946715412 $198 -4.4400282911973173e-015 $75 $200 forward 7 unknown #
coedge $-1 $76 $190 $196 $201 forward $131 $-1 #
loop $-1 $-1 $190 $119 #
vertex $-1 $128 $202 #
vertex $-1 $77 $203 #
straight-curve $-1 -46.826966492484331 -58.815601149557594 11.473902814488724 0 1 0 I I #
coedge $-1 $135 $135 $-1 $204 reversed $80 $-1 #
edge $-1 $205 0 $205 6.2831853071796004 $81 $206 forward 7 unknown #
vertex $-1 $84 $207 #
ellipse-curve $-1 -56.70748746578488 -27.497108141036001 9.1657438040429255 0 -0.61566148304635926 0.78801074757464917 1.5 0 0 1 I I #
face $-1 $-1 $151 $18 $-1 $208 forward single #
loop $-1 $-1 $209 $85 #
plane-surface $-1 0 -30.45141689256398 0 0 1 0 0 0 1 forward_v I I I I #
coedge $-1 $210 $211 $212 $213 reversed $86 $-1 #
coedge $-1 $214 $88 $90 $149 forward $54 $-1 #
coedge $-1 $88 $214 $210 $215 forward $54 $-1 #
coedge $-1 $212 $91 $88 $146 forward $151 $-1 #
edge $-1 $153 -16.927637862375338 $216 2.8334040842257657 $145 $217 forward 7 unknown #
coedge $-1 $218 $219 $89 $148 forward $140 $-1 #
edge $-1 $220 -52.363724890206143 $152 -47.747406869314545 $147 $221 forward 7 unknown #
edge $-1 $153 -7.4981432946715412 $220 -4.4400282911973173e-015 $90 $222 forward 7 unknown #
coedge $-1 $91 $212 $218 $223 forward $151 $-1 #
loop $-1 $-1 $212 $139 #
vertex $-1 $148 $224 #
vertex $-1 $92 $225 #
straight-curve $-1 23.974754751450124 -58.815601149557594 11.473902814488724 0 1 0 I I #
coedge $-1 $155 $155 $-1 $226 reversed $95 $-1 #
edge $-1 $227 0 $227 6.2831853071796004 $96 $228 forward 7 unknown #
vertex $-1 $99 $229 #
ellipse-curve $-1 14.094233778149572 -27.497108141036001 9.1657438040429255 0 -0.61566148304635926 0.78801074757464917 1.5 0 0 1 I I #
face $-1 $-1 $115 $15 $-1 $230 reversed single #
loop $-1 $-1 $175 $100 #
plane-surface $-1 0 30.45141689256398 0 0 -1 0 0 0 -1 forward_v I I I I #
coedge $-1 $231 $173 $176 $232 forward $101 $-1 #
coedge $-1 $179 $103 $104 $167 reversed $63 $-1 #
coedge $-1 $173 $231 $103 $165 reversed $101 $-1 #
edge $-1 $180 -11.473902814488723 $233 11.473902814488723 $164 $234 forward 7 unknown #
coedge $-1 $105 $104 $231 $235 forward $41 $-1 #
edge $-1 $171 -70.801721243934452 $233 70.801721243934452 $163 $236 forward 7 unknown #
coedge $-1 $176 $175 $105 $169 reversed $160 $-1 #
edge $-1 $237 -70.801721243934452 $170 70.801721243934452 $168 $238 forward 7 unknown #
vertex $-1 $107 $239 #
vertex $-1 $182 $240 #
straight-curve $-1 70.801721243934452 0 -11.473902814488723 0 -1 0 I I #
coedge $-1 $162 $164 $108 $174 reversed $101 $-1 #
edge $-1 $177 -30.45141689256398 $180 30.45141689256398 $173 $241 forward 7 unknown #
coedge $-1 $168 $109 $114 $183 forward $160 $-1 #
coedge $-1 $109 $168 $162 $232 reversed $160 $-1 #
vertex $-1 $110 $242 #
straight-curve $-1 0 30.45141689256398 11.473902814488723 -1 0 0 I I #
coedge $-1 $111 $163 $113 $182 reversed $63 $-1 #
vertex $-1 $174 $243 #
straight-curve $-1 0 -30.45141689256398 11.473902814488723 1 0 0 I I #
edge $-1 $116 -11.473902814488723 $171 11.473902814488723 $113 $244 forward 7 unknown #
edge $-1 $117 -11.473902814488723 $170 11.473902814488723 $114 $245 forward 7 unknown #
point $-1 70.801721243934452 -30.45141689256398 11.473902814488723 #
point $-1 70.801721243934452 30.45141689256398 11.473902814488723 #
plane-surface $-1 0 0 11.473902814488723 0 0 1 1 0 0 forward_v I I I I #
coedge $-1 $197 $196 $189 $246 forward $120 $-1 #
coedge $-1 $189 $122 $124 $193 reversed $71 $-1 #
coedge $-1 $122 $188 $187 $246 reversed $71 $-1 #
coedge $-1 $130 $125 $122 $191 forward $131 $-1 #
edge $-1 $194 -34.272801760049575 $247 -28.364184256993614 $190 $248 forward 7 unknown #
coedge $-1 $124 $123 $197 $249 reversed $45 $-1 #
edge $-1 $250 4.4400282911973173e-015 $194 7.4981432946715412 $188 $251 forward 7 unknown #
vertex $-1 $126 $252 #
straight-curve $-1 -28.35374373289244 -24.542799389508016 11.473902814488723 -1 0 0 I I #
coedge $-1 $187 $127 $130 $201 reversed $120 $-1 #
coedge $-1 $127 $187 $192 $249 forward $120 $-1 #
vertex $-1 $128 $253 #
straight-curve $-1 -46.826966492484331 -30.451416892563984 59.22130968380327 0 0 1 I I #
straight-curve $-1 -46.826966492484331 -30.451416892563984 6.8575847935971268 0 -0.78801074757464917 -0.61566148304635926 I I #
edge $-1 $247 -66.588008439085428 $132 -46.826966492484331 $196 $254 forward 7 unknown #
point $-1 -46.826966492484331 -30.45141689256398 11.473902814488723 #
point $-1 -46.826966492484331 -24.542799389508019 11.473902814488723 #
edge $-1 $255 1 $255 0 $135 $-1 forward 7 unknown #
vertex $-1 $136 $256 #
ellipse-curve $-1 -56.70748746578488 -25.514701464074523 6.6283790175052575 0 -0.61566148304635926 0.78801074757464917 1.5 0 0 1 I I #
point $-1 -55.20748746578488 -27.497108141036005 9.1657438040429291 #
plane-surface $-1 0 0 11.473902814488723 0 0 1 1 0 0 forward_v I I I I #
coedge $-1 $219 $218 $211 $257 forward $140 $-1 #
coedge $-1 $211 $142 $144 $215 reversed $86 $-1 #
coedge $-1 $142 $210 $209 $257 reversed $86 $-1 #
coedge $-1 $150 $145 $142 $213 forward $151 $-1 #
edge $-1 $216 -34.272801760049575 $258 -28.364184256993614 $212 $259 forward 7 unknown #
coedge $-1 $144 $143 $219 $260 reversed $54 $-1 #
edge $-1 $261 4.4400282911973173e-015 $216 7.4981432946715412 $210 $262 forward 7 unknown #
vertex $-1 $146 $263 #
straight-curve $-1 7.0471168890747862 -24.542799389508016 11.473902814488723 -1 0 0 I I #
coedge $-1 $209 $147 $150 $223 reversed $140 $-1 #
coedge $-1 $147 $209 $214 $260 forward $140 $-1 #
vertex $-1 $148 $264 #
straight-curve $-1 23.974754751450124 -30.451416892563984 59.22130968380327 0 0 1 I I #
straight-curve $-1 23.974754751450124 -30.451416892563984 6.8575847935971268 0 -0.78801074757464917 -0.61566148304635926 I I #
edge $-1 $258 4.2137128048490204 $152 23.974754751450124 $218 $265 forward 7 unknown #
point $-1 23.974754751450124 -30.45141689256398 11.473902814488723 #
point $-1 23.974754751450124 -24.542799389508019 11.473902814488723 #
edge $-1 $266 1 $266 0 $155 $-1 forward 7 unknown #
vertex $-1 $156 $267 #
ellipse-curve $-1 14.094233778149572 -25.514701464074523 6.6283790175052575 0 -0.61566148304635926 0.78801074757464917 1.5 0 0 1 I I #
point $-1 15.594233778149572 -27.497108141036005 9.1657438040429291 #
plane-surface $-1 70.801721243934452 0 0 -1 0 0 0 0 1 forward_v I I I I #
coedge $-1 $164 $162 $166 $235 reversed $101 $-1 #
edge $-1 $177 -11.473902814488723 $237 11.473902814488723 $176 $268 forward 7 unknown #
vertex $-1 $235 $269 #
straight-curve $-1 -70.801721243934452 -30.45141689256398 0 0 0 -1 I I #
edge $-1 $233 -30.45141689256398 $237 30.45141689256398 $231 $270 forward 7 unknown #
straight-curve $-1 0 -30.45141689256398 -11.473902814488723 -1 0 0 I I #
vertex $-1 $169 $271 #
straight-curve $-1 0 30.45141689256398 -11.473902814488723 1 0 0 I I #
point $-1 70.801721243934452 30.45141689256398 -11.473902814488723 #
point $-1 70.801721243934452 -30.45141689256398 -11.473902814488723 #
straight-curve $-1 -70.801721243934452 0 11.473902814488723 0 -1 0 I I #
point $-1 -70.801721243934452 30.45141689256398 11.473902814488723 #
point $-1 -70.801721243934452 -30.45141689256398 11.473902814488723 #
straight-curve $-1 70.801721243934452 -30.45141689256398 0 0 0 -1 I I #
straight-curve $-1 70.801721243934452 30.45141689256398 0 0 0 -1 I I #
edge $-1 $247 47.747406869314545 $250 52.363724890206143 $187 $272 forward 7 unknown #
vertex $-1 $201 $273 #
straight-curve $-1 -66.588008439085428 -58.815601149557594 11.473902814488724 0 -1 0 I I #
edge $-1 $250 -38.234264706192988 $198 -18.473222759591891 $197 $274 forward 7 unknown #
vertex $-1 $249 $275 #
straight-curve $-1 -66.588008439085428 -30.451416892563984 6.8575847935971268 0 0.78801074757464917 0.61566148304635926 I I #
point $-1 -66.588008439085428 -24.542799389508019 11.473902814488723 #
point $-1 -46.826966492484331 -30.45141689256398 6.8575847935971295 #
straight-curve $-1 0 -30.45141689256398 11.473902814488723 1 0 0 I I #
vertex $-1 $204 $276 #
point $-1 -55.20748746578488 -25.514701464074523 6.6283790175052575 #
edge $-1 $258 47.747406869314545 $261 52.363724890206143 $209 $277 forward 7 unknown #
vertex $-1 $223 $278 #
straight-curve $-1 4.2137128048490204 -58.815601149557594 11.473902814488724 0 -1 0 I I #
edge $-1 $261 -2.8334040842257657 $220 16.927637862375338 $219 $279 forward 7 unknown #
vertex $-1 $260 $280 #
straight-curve $-1 4.2137128048490204 -30.451416892563984 6.8575847935971268 0 0.78801074757464917 0.61566148304635926 I I #
point $-1 4.2137128048490204 -24.542799389508019 11.473902814488723 #
point $-1 23.974754751450124 -30.45141689256398 6.8575847935971295 #
straight-curve $-1 0 -30.45141689256398 11.473902814488723 1 0 0 I I #
vertex $-1 $226 $281 #
point $-1 15.594233778149572 -25.514701464074523 6.6283790175052575 #
straight-curve $-1 -70.801721243934452 30.45141689256398 0 0 0 -1 I I #
point $-1 -70.801721243934452 -30.45141689256398 -11.473902814488723 #
straight-curve $-1 -70.801721243934452 0 -11.473902814488723 0 1 0 I I #
point $-1 -70.801721243934452 30.45141689256398 -11.473902814488723 #
straight-curve $-1 -66.588008439085428 -30.451416892563984 59.22130968380327 0 0 -1 I I #
point $-1 -66.588008439085428 -30.45141689256398 11.473902814488723 #
straight-curve $-1 -28.35374373289244 -30.45141689256398 6.8575847935971321 1 0 0 I I #
point $-1 -66.588008439085428 -30.45141689256398 6.8575847935971295 #
point $-1 -56.70748746578488 -24.591209239504987 5.4463628961432837 #
straight-curve $-1 4.2137128048490204 -30.451416892563984 59.22130968380327 0 0 -1 I I #
point $-1 4.2137128048490204 -30.45141689256398 11.473902814488723 #
straight-curve $-1 7.0471168890747862 -30.45141689256398 6.8575847935971321 1 0 0 I I #
point $-1 4.2137128048490204 -30.45141689256398 6.8575847935971295 #
point $-1 14.094233778149572 -24.591209239504987 5.4463628961432837 #
End-of-ACIS-data 