500 0 8 0           
7 Unknown 11 ACIS 5.0 NT 24 Thu Mar 25 21:35:51 1999 
-1 9.9999999999999995e-007 1e-010 
body $-1 $8 $-1 $9 #
body $-1 $10 $-1 $11 #
body $-1 $12 $-1 $13 #
body $-1 $14 $-1 $15 #
body $-1 $16 $-1 $17 #
body $-1 $18 $-1 $19 #
body $-1 $20 $-1 $21 #
body $-1 $22 $-1 $23 #
lump $-1 $-1 $24 $0 #
transform $-1 1 0 0 0 1 0 0 0 1 79.580065309610276 32.627656770391809 10.985782917285738 1 rotate no_reflect no_shear #
lump $-1 $-1 $25 $1 #
transform $-1 1 0 0 0 1 0 0 0 1 79.580065309610276 32.627656770391809 10.985782917285738 1 rotate no_reflect no_shear #
lump $-1 $-1 $26 $2 #
transform $-1 1 0 0 0 1 0 0 0 1 79.580065309610276 32.627656770391809 10.985782917285738 1 rotate no_reflect no_shear #
lump $-1 $-1 $27 $3 #
transform $-1 1 0 0 0 1 0 0 0 1 79.580065309610276 32.627656770391809 10.985782917285738 1 rotate no_reflect no_shear #
lump $-1 $-1 $28 $4 #
transform $-1 1 0 0 0 1 0 0 0 1 79.580065309610276 32.627656770391809 10.985782917285738 1 rotate no_reflect no_shear #
lump $-1 $-1 $29 $5 #
transform $-1 1 0 0 0 1 0 0 0 1 79.580065309610276 32.627656770391809 10.985782917285738 1 rotate no_reflect no_shear #
lump $-1 $-1 $30 $6 #
transform $-1 1 0 0 0 1 0 0 0 1 79.580065309610276 32.627656770391809 10.985782917285738 1 rotate no_reflect no_shear #
lump $-1 $-1 $31 $7 #
transform $-1 1 0 0 0 1 0 0 0 1 79.580065309610276 32.627656770391809 10.985782917285738 1 rotate no_reflect no_shear #
shell $-1 $-1 $-1 $32 $-1 $8 #
shell $-1 $-1 $-1 $33 $-1 $10 #
shell $-1 $-1 $-1 $34 $-1 $12 #
shell $-1 $-1 $-1 $35 $-1 $14 #
shell $-1 $-1 $-1 $36 $-1 $16 #
shell $-1 $-1 $-1 $37 $-1 $18 #
shell $-1 $-1 $-1 $38 $-1 $20 #
shell $-1 $-1 $-1 $39 $-1 $22 #
face $-1 $40 $41 $24 $-1 $42 forward single #
face $-1 $43 $44 $25 $-1 $45 forward single #
face $-1 $46 $47 $26 $-1 $48 forward single #
face $-1 $49 $50 $27 $-1 $51 reversed single #
face $-1 $52 $53 $28 $-1 $54 forward single #
face $-1 $55 $56 $29 $-1 $57 forward single #
face $-1 $58 $59 $30 $-1 $60 reversed single #
face $-1 $61 $62 $31 $-1 $63 forward single #
face $-1 $64 $65 $24 $-1 $66 reversed single #
loop $-1 $-1 $67 $32 #
plane-surface $-1 0 0 10.985782917285738 0 0 1 1 0 0 forward_v I I I I #
face $-1 $68 $69 $25 $-1 $70 reversed single #
loop $-1 $-1 $71 $33 #
plane-surface $-1 0 -32.627656770391809 0 0 1 0 0 0 1 forward_v I I I I #
face $-1 $72 $73 $26 $-1 $74 reversed single #
loop $-1 $-1 $75 $34 #
plane-surface $-1 0 32.627656770391809 0 0 -1 0 0 0 -1 forward_v I I I I #
face $-1 $76 $77 $27 $-1 $78 reversed single #
loop $-1 $-1 $79 $35 #
plane-surface $-1 -161.55359367660841 11.233815479563361 137.8949931774751 0 1 0 -0.51503808176128008 0 0.85716729658548041 forward_v I I I I #
face $-1 $80 $81 $28 $-1 $82 forward single #
loop $-1 $83 $84 $36 #
cone-surface $-1 -71.179067174826542 13.868925941996622 5.426465795252895 0.51503808176128008 0 -0.85716729658548041 0.85716729658548041 0 0.51503808176128008 1 I I 0 1 1 forward I I I I #
face $-1 $85 $86 $29 $-1 $87 forward single #
loop $-1 $88 $89 $37 #
cone-surface $-1 -71.179067174826542 17.821591635646513 5.426465795252895 0.51503808176128008 0 -0.85716729658548041 0.85716729658548041 0 0.51503808176128008 1 I I 0 1 1 forward I I I I #
face $-1 $90 $91 $30 $-1 $92 reversed single #
loop $-1 $-1 $93 $38 #
plane-surface $-1 110.90604275831909 6.2972448743251555 225.81972851872598 0 -1 0 -0.79863551827123203 0 -0.60181501223851219 forward_v I I I I #
face $-1 $94 $95 $31 $-1 $96 forward single #
loop $-1 $97 $98 $39 #
cone-surface $-1 74.631934315693982 0.833073098125233 5.5150888750215294 -0.79863551827123203 0 -0.60181501223851219 0.90272251835776829 0 -1.197953277406848 1 I I 0 1 1.5 forward I I I I #
face $-1 $99 $100 $24 $-1 $101 reversed single #
loop $-1 $-1 $102 $40 #
plane-surface $-1 0 0 -10.985782917285738 0 0 1 1 0 0 forward_v I I I I #
coedge $-1 $103 $104 $105 $106 forward $41 $-1 #
face $-1 $107 $108 $25 $-1 $109 reversed single #
loop $-1 $-1 $110 $43 #
plane-surface $-1 0 0 -10.985782917285738 0 0 1 1 0 0 forward_v I I I I #
coedge $-1 $111 $112 $113 $114 forward $44 $-1 #
face $-1 $115 $116 $26 $-1 $117 forward single #
loop $-1 $-1 $118 $46 #
plane-surface $-1 -79.580065309610276 0 0 1 0 0 0 0 -1 forward_v I I I I #
coedge $-1 $119 $120 $121 $122 forward $47 $-1 #
face $-1 $123 $124 $27 $-1 $125 reversed single #
loop $-1 $-1 $126 $49 #
plane-surface $-1 -79.580065309610276 15.845258788821567 1.4681342904058852 -0.51503808176128008 0 0.85716729658548041 0.85716729658548041 0 0.51503808176128008 forward_v I I I I #
coedge $-1 $127 $128 $129 $130 reversed $50 $-1 #
face $-1 $-1 $131 $28 $-1 $132 forward single #
loop $-1 $133 $134 $52 #
cone-surface $-1 -70.440563520739445 13.868925941996622 4.1973893383672412 0.51503808176128008 0 -0.85716729658548041 0.4285836482927402 0 0.25751904088064004 1 I I -0.70710678118654746 0.70710678118654746 0.5 forward I I I I #
loop $-1 $-1 $135 $36 #
coedge $-1 $84 $84 $136 $137 reversed $53 $-1 #
face $-1 $-1 $138 $29 $-1 $139 forward single #
loop $-1 $140 $141 $55 #
cone-surface $-1 -70.440563520739445 17.821591635646513 4.1973893383672412 0.51503808176128008 0 -0.85716729658548041 0.4285836482927402 0 0.25751904088064004 1 I I -0.70710678118654746 0.70710678118654746 0.5 forward I I I I #
loop $-1 $-1 $142 $37 #
coedge $-1 $89 $89 $143 $144 reversed $56 $-1 #
face $-1 $145 $146 $30 $-1 $147 reversed single #
loop $-1 $-1 $148 $58 #
plane-surface $-1 -16.204890646879107 0.83307309812524011 130.03477256223658 0.79863551827123203 0 0.60181501223851219 0.60181501223851219 0 -0.79863551827123203 forward_v I I I I #
coedge $-1 $149 $150 $151 $152 reversed $59 $-1 #
face $-1 $-1 $153 $31 $-1 $154 forward single #
loop $-1 $155 $156 $61 #
cone-surface $-1 72.122381782828612 0.833073098125233 3.6240054537021198 -0.79863551827123203 0 -0.60181501223851219 0.45136125917888414 0 -0.59897663870342399 1 I I -0.70710678118654724 0.70710678118654768 0.75 forward I I I I #
loop $-1 $-1 $157 $39 #
coedge $-1 $98 $98 $158 $159 reversed $62 $-1 #
face $-1 $160 $161 $24 $-1 $162 reversed single #
loop $-1 $-1 $163 $64 #
plane-surface $-1 0 -32.627656770391809 0 0 1 0 0 0 1 forward_v I I I I #
coedge $-1 $164 $165 $166 $167 forward $65 $-1 #
coedge $-1 $168 $67 $169 $170 forward $41 $-1 #
coedge $-1 $67 $168 $171 $172 forward $41 $-1 #
coedge $-1 $173 $174 $67 $106 reversed $175 $-1 #
edge $-1 $176 -32.627656770391809 $177 32.627656770391809 $105 $178 forward 7 unknown #
face $-1 $179 $180 $25 $-1 $181 forward single #
loop $-1 $-1 $182 $68 #
plane-surface $-1 79.580065309610276 0 0 -1 0 0 0 0 1 forward_v I I I I #
coedge $-1 $183 $184 $185 $186 forward $69 $-1 #
coedge $-1 $185 $71 $182 $187 reversed $44 $-1 #
coedge $-1 $71 $185 $188 $189 reversed $44 $-1 #
coedge $-1 $190 $191 $71 $114 reversed $180 $-1 #
edge $-1 $192 -79.580065309610276 $193 79.580065309610276 $113 $194 forward 7 unknown #
face $-1 $195 $196 $26 $-1 $197 reversed single #
loop $-1 $-1 $198 $72 #
plane-surface $-1 0 38.713134106547827 -7.9857829172857375 0 0 1 1 0 0 forward_v I I I I #
coedge $-1 $199 $200 $119 $201 forward $73 $-1 #
coedge $-1 $202 $75 $118 $201 reversed $47 $-1 #
coedge $-1 $75 $202 $203 $204 reversed $47 $-1 #
coedge $-1 $198 $205 $75 $122 reversed $116 $-1 #
edge $-1 $206 -79.580065309610276 $207 79.580065309610276 $121 $208 forward 7 unknown #
face $-1 $209 $210 $27 $-1 $211 reversed single #
loop $-1 $-1 $212 $76 #
plane-surface $-1 -161.55359367660841 20.456702098079774 137.8949931774751 0 -1 0 0.51503808176128008 0 -0.85716729658548041 forward_v I I I I #
coedge $-1 $213 $214 $215 $216 reversed $77 $-1 #
coedge $-1 $128 $79 $217 $218 reversed $50 $-1 #
coedge $-1 $79 $127 $213 $219 reversed $50 $-1 #
coedge $-1 $215 $220 $79 $130 forward $221 $-1 #
edge $-1 $222 1.1967315286939311 $223 17.036758571848466 $129 $224 forward 7 unknown #
loop $-1 $-1 $136 $80 #
plane-surface $-1 -79.580065309610276 15.845258788821567 1.4681342904058852 -0.51503808176128008 0 0.85716729658548041 0.85716729658548041 0 0.51503808176128008 forward_v I I I I #
loop $-1 $-1 $225 $52 #
coedge $-1 $134 $134 $135 $226 reversed $81 $-1 #
coedge $-1 $135 $135 $134 $226 forward $83 $-1 #
coedge $-1 $136 $136 $84 $137 forward $131 $-1 #
edge $-1 $227 0 $227 6.2831853071796004 $136 $228 forward 7 unknown #
loop $-1 $-1 $143 $85 #
plane-surface $-1 -79.580065309610276 15.845258788821567 1.4681342904058852 -0.51503808176128008 0 0.85716729658548041 0.85716729658548041 0 0.51503808176128008 forward_v I I I I #
loop $-1 $-1 $229 $55 #
coedge $-1 $141 $141 $142 $230 reversed $86 $-1 #
coedge $-1 $142 $142 $141 $230 forward $88 $-1 #
coedge $-1 $143 $143 $89 $144 forward $138 $-1 #
edge $-1 $231 0 $231 6.2831853071796004 $143 $232 forward 7 unknown #
face $-1 $233 $234 $30 $-1 $235 forward single #
loop $-1 $-1 $236 $90 #
plane-surface $-1 110.90604275831909 -4.6310986780746752 225.81972851872598 0 1 0 0.79863551827123203 0 0.60181501223851219 forward_v I I I I #
coedge $-1 $237 $238 $239 $240 reversed $91 $-1 #
coedge $-1 $150 $93 $241 $242 reversed $59 $-1 #
coedge $-1 $93 $149 $237 $243 reversed $59 $-1 #
coedge $-1 $239 $244 $93 $152 forward $234 $-1 #
edge $-1 $245 -24.127043930450732 $246 -18.051933730942103 $151 $247 forward 7 unknown #
loop $-1 $-1 $158 $94 #
plane-surface $-1 -16.204890646879107 0.83307309812524011 130.03477256223658 0.79863551827123203 0 0.60181501223851219 0.60181501223851219 0 -0.79863551827123203 forward_v I I I I #
loop $-1 $-1 $248 $61 #
coedge $-1 $156 $156 $157 $249 reversed $95 $-1 #
coedge $-1 $157 $157 $156 $249 forward $97 $-1 #
coedge $-1 $158 $158 $98 $159 forward $153 $-1 #
edge $-1 $250 0 $250 6.2831853071796004 $158 $251 forward 7 unknown #
face $-1 $252 $253 $24 $-1 $254 reversed single #
loop $-1 $-1 $255 $99 #
plane-surface $-1 -79.580065309610276 0 0 1 0 0 0 0 -1 forward_v I I I I #
coedge $-1 $256 $171 $257 $258 forward $100 $-1 #
coedge $-1 $259 $102 $256 $260 forward $65 $-1 #
coedge $-1 $102 $259 $261 $262 forward $65 $-1 #
coedge $-1 $174 $173 $102 $167 reversed $175 $-1 #
edge $-1 $263 -32.627656770391809 $264 32.627656770391809 $166 $265 forward 7 unknown #
coedge $-1 $104 $103 $266 $267 forward $41 $-1 #
coedge $-1 $268 $269 $103 $170 reversed $253 $-1 #
edge $-1 $177 -79.580065309610276 $270 79.580065309610276 $169 $271 forward 7 unknown #
coedge $-1 $163 $272 $104 $172 reversed $100 $-1 #
edge $-1 $273 -79.580065309610276 $176 79.580065309610276 $171 $274 forward 7 unknown #
coedge $-1 $166 $105 $272 $275 forward $175 $-1 #
coedge $-1 $105 $166 $268 $276 reversed $175 $-1 #
loop $-1 $-1 $173 $252 #
vertex $-1 $106 $277 #
vertex $-1 $106 $278 #
straight-curve $-1 79.580065309610276 0 10.985782917285738 0 1 0 I I #
face $-1 $279 $280 $25 $-1 $281 reversed single #
loop $-1 $-1 $191 $107 #
plane-surface $-1 0 -38.713134106547827 -7.9857829172857375 0 0 1 1 0 0 forward_v I I I I #
coedge $-1 $282 $283 $111 $187 forward $108 $-1 #
coedge $-1 $284 $110 $283 $285 forward $69 $-1 #
coedge $-1 $110 $284 $286 $287 forward $69 $-1 #
coedge $-1 $112 $111 $110 $186 reversed $44 $-1 #
edge $-1 $288 -79.580065309610276 $289 79.580065309610276 $110 $290 forward 7 unknown #
edge $-1 $289 -10.985782917285738 $193 -7.9857829172857375 $182 $291 forward 7 unknown #
coedge $-1 $286 $292 $112 $189 forward $293 $-1 #
edge $-1 $192 7.9857829172857375 $288 10.985782917285738 $188 $294 forward 7 unknown #
coedge $-1 $295 $113 $292 $296 forward $180 $-1 #
coedge $-1 $113 $295 $282 $297 forward $180 $-1 #
vertex $-1 $189 $298 #
vertex $-1 $297 $299 #
straight-curve $-1 0 -32.627656770391809 -7.9857829172857375 1 0 0 I I #
face $-1 $300 $301 $26 $-1 $302 reversed single #
loop $-1 $-1 $303 $115 #
plane-surface $-1 0 44.798611442703844 -9.4857829172857375 0 -1 0 0 0 -1 forward_v I I I I #
coedge $-1 $304 $121 $305 $306 forward $116 $-1 #
coedge $-1 $307 $118 $205 $308 reversed $73 $-1 #
coedge $-1 $118 $307 $309 $310 reversed $73 $-1 #
edge $-1 $311 -10.985782917285738 $207 -7.9857829172857375 $118 $312 forward 7 unknown #
coedge $-1 $120 $119 $313 $314 reversed $47 $-1 #
coedge $-1 $315 $305 $120 $204 forward $316 $-1 #
edge $-1 $206 7.9857829172857375 $317 10.985782917285738 $203 $318 forward 7 unknown #
coedge $-1 $121 $304 $199 $308 forward $116 $-1 #
vertex $-1 $204 $319 #
vertex $-1 $308 $320 #
straight-curve $-1 0 32.627656770391809 -7.9857829172857375 -1 0 0 I I #
face $-1 $-1 $221 $27 $-1 $321 forward single #
loop $-1 $-1 $322 $123 #
plane-surface $-1 -79.580065309610276 0 0 1 0 0 0 0 -1 forward_v I I I I #
coedge $-1 $323 $324 $325 $326 reversed $124 $-1 #
coedge $-1 $327 $126 $128 $219 forward $77 $-1 #
coedge $-1 $126 $327 $323 $328 forward $77 $-1 #
coedge $-1 $325 $129 $126 $216 forward $221 $-1 #
edge $-1 $223 3.3111860851525776 $329 12.53407270366899 $215 $330 forward 7 unknown #
coedge $-1 $331 $332 $127 $218 forward $210 $-1 #
edge $-1 $333 -67.479362298331665 $222 -57.961713671451811 $217 $334 forward 7 unknown #
edge $-1 $223 -18.479504650087755 $333 0 $128 $335 forward 7 unknown #
coedge $-1 $129 $325 $331 $336 forward $221 $-1 #
loop $-1 $-1 $325 $209 #
vertex $-1 $218 $337 #
vertex $-1 $130 $338 #
straight-curve $-1 -80.776796838304207 11.233815479563361 10.985782917285739 1 0 0 I I #
coedge $-1 $225 $225 $-1 $339 reversed $133 $-1 #
edge $-1 $340 0 $340 6.2831853071796004 $134 $341 forward 7 unknown #
vertex $-1 $137 $342 #
ellipse-curve $-1 -71.660051788033002 13.868925941996622 6.226958603845814 -0.51503808176128008 0 0.85716729658548041 0.85716729658548041 0 0.51503808176128008 1 I I #
coedge $-1 $229 $229 $-1 $343 reversed $140 $-1 #
edge $-1 $344 0 $344 6.2831853071796004 $141 $345 forward 7 unknown #
vertex $-1 $144 $346 #
ellipse-curve $-1 -71.660051788033002 17.821591635646513 6.226958603845814 -0.51503808176128008 0 0.85716729658548041 0.85716729658548041 0 0.51503808176128008 1 I I #
face $-1 $-1 $347 $30 $-1 $348 reversed single #
loop $-1 $-1 $151 $145 #
plane-surface $-1 0 0 10.985782917285738 0 0 1 1 0 0 forward_v I I I I #
coedge $-1 $349 $350 $351 $352 reversed $146 $-1 #
coedge $-1 $353 $148 $150 $243 forward $91 $-1 #
coedge $-1 $148 $353 $349 $354 forward $91 $-1 #
coedge $-1 $351 $151 $148 $240 forward $234 $-1 #
edge $-1 $246 -5.8807083252625354 $355 5.0476352271372953 $239 $356 forward 7 unknown #
coedge $-1 $357 $358 $149 $242 forward $347 $-1 #
edge $-1 $359 -109.98602510232455 $245 -101.92408134207726 $241 $360 forward 7 unknown #
edge $-1 $246 149.06548346691426 $359 159.16013061922047 $150 $361 forward 7 unknown #
coedge $-1 $151 $351 $357 $362 forward $234 $-1 #
vertex $-1 $242 $363 #
vertex $-1 $152 $364 #
straight-curve $-1 55.453021379159544 6.2972448743251555 10.985782917285732 -1 0 0 I I #
coedge $-1 $248 $248 $-1 $365 reversed $155 $-1 #
edge $-1 $366 0 $366 6.2831853071796004 $156 $367 forward 7 unknown #
vertex $-1 $159 $368 #
ellipse-curve $-1 76.542510209855962 0.833073098125233 6.9548110371620826 0.79863551827123203 0 0.60181501223851219 0.90272251835776829 0 -1.197953277406848 1 I I #
face $-1 $-1 $175 $24 $-1 $369 reversed single #
loop $-1 $-1 $268 $160 #
plane-surface $-1 0 32.627656770391809 0 0 -1 0 0 0 -1 forward_v I I I I #
coedge $-1 $370 $266 $269 $371 forward $161 $-1 #
coedge $-1 $272 $163 $164 $260 reversed $100 $-1 #
coedge $-1 $266 $370 $163 $258 reversed $161 $-1 #
edge $-1 $273 -10.985782917285738 $372 10.985782917285738 $257 $373 forward 7 unknown #
coedge $-1 $165 $164 $370 $374 forward $65 $-1 #
edge $-1 $264 -79.580065309610276 $372 79.580065309610276 $256 $375 forward 7 unknown #
coedge $-1 $269 $268 $165 $262 reversed $253 $-1 #
edge $-1 $376 -79.580065309610276 $263 79.580065309610276 $261 $377 forward 7 unknown #
vertex $-1 $167 $378 #
vertex $-1 $275 $379 #
straight-curve $-1 79.580065309610276 0 -10.985782917285738 0 -1 0 I I #
coedge $-1 $255 $257 $168 $267 reversed $161 $-1 #
edge $-1 $270 -32.627656770391809 $273 32.627656770391809 $266 $380 forward 7 unknown #
coedge $-1 $261 $169 $174 $276 forward $253 $-1 #
coedge $-1 $169 $261 $255 $371 reversed $253 $-1 #
vertex $-1 $170 $381 #
straight-curve $-1 0 32.627656770391809 10.985782917285738 -1 0 0 I I #
coedge $-1 $171 $256 $173 $275 reversed $100 $-1 #
vertex $-1 $267 $382 #
straight-curve $-1 0 -32.627656770391809 10.985782917285738 1 0 0 I I #
edge $-1 $176 -10.985782917285738 $264 10.985782917285738 $173 $383 forward 7 unknown #
edge $-1 $177 -10.985782917285738 $263 10.985782917285738 $174 $384 forward 7 unknown #
point $-1 79.580065309610276 -32.627656770391809 10.985782917285738 #
point $-1 79.580065309610276 32.627656770391809 10.985782917285738 #
face $-1 $-1 $293 $25 $-1 $385 reversed single #
loop $-1 $-1 $386 $179 #
plane-surface $-1 0 -44.798611442703844 -9.4857829172857375 0 1 0 0 0 1 forward_v I I I I #
coedge $-1 $387 $182 $191 $297 reversed $108 $-1 #
coedge $-1 $182 $387 $183 $285 reversed $108 $-1 #
coedge $-1 $184 $183 $388 $389 forward $69 $-1 #
edge $-1 $289 32.627656770391809 $390 44.798611442703844 $283 $391 forward 7 unknown #
coedge $-1 $392 $188 $184 $287 reversed $293 $-1 #
edge $-1 $393 -44.798611442703844 $288 -32.627656770391809 $286 $394 forward 7 unknown #
vertex $-1 $189 $395 #
vertex $-1 $285 $396 #
straight-curve $-1 0 -32.627656770391809 -10.985782917285738 1 0 0 I I #
straight-curve $-1 79.580065309610276 -32.627656770391809 0 0 0 1 I I #
coedge $-1 $188 $392 $190 $296 reversed $293 $-1 #
loop $-1 $-1 $188 $279 #
straight-curve $-1 -79.580065309610276 -32.627656770391809 0 0 0 -1 I I #
coedge $-1 $191 $190 $397 $398 forward $180 $-1 #
edge $-1 $192 -6.0854773361560177 $399 6.0854773361560177 $292 $400 forward 7 unknown #
edge $-1 $401 -6.0854773361560177 $193 6.0854773361560177 $282 $402 forward 7 unknown #
point $-1 -79.580065309610276 -32.627656770391809 -7.9857829172857375 #
point $-1 79.580065309610276 -32.627656770391809 -7.9857829172857375 #
face $-1 $-1 $316 $26 $-1 $403 reversed single #
loop $-1 $-1 $313 $195 #
plane-surface $-1 0 0 -10.985782917285738 0 0 1 1 0 0 forward_v I I I I #
coedge $-1 $404 $405 $406 $407 forward $196 $-1 #
coedge $-1 $205 $198 $405 $408 forward $116 $-1 #
coedge $-1 $203 $406 $198 $306 reversed $316 $-1 #
edge $-1 $206 -6.0854773361560177 $409 6.0854773361560177 $305 $410 forward 7 unknown #
coedge $-1 $200 $199 $411 $412 forward $73 $-1 #
edge $-1 $413 -6.0854773361560177 $207 6.0854773361560177 $199 $414 forward 7 unknown #
coedge $-1 $415 $313 $200 $310 forward $301 $-1 #
edge $-1 $311 -6.0854773361560177 $416 6.0854773361560177 $200 $417 forward 7 unknown #
vertex $-1 $310 $418 #
straight-curve $-1 -79.580065309610276 32.627656770391809 0 0 0 1 I I #
coedge $-1 $309 $419 $202 $314 forward $301 $-1 #
edge $-1 $317 -79.580065309610276 $311 79.580065309610276 $313 $420 forward 7 unknown #
coedge $-1 $406 $203 $419 $421 reversed $316 $-1 #
loop $-1 $-1 $203 $300 #
vertex $-1 $204 $422 #
straight-curve $-1 79.580065309610276 32.627656770391809 0 0 0 -1 I I #
point $-1 79.580065309610276 32.627656770391809 -7.9857829172857375 #
point $-1 -79.580065309610276 32.627656770391809 -7.9857829172857375 #
plane-surface $-1 0 0 10.985782917285738 0 0 1 1 0 0 forward_v I I I I #
coedge $-1 $332 $331 $324 $423 forward $210 $-1 #
coedge $-1 $324 $212 $214 $328 reversed $124 $-1 #
coedge $-1 $212 $323 $322 $423 reversed $124 $-1 #
coedge $-1 $220 $215 $212 $326 forward $221 $-1 #
edge $-1 $329 -17.036758571848466 $424 -1.1967315286939311 $325 $425 forward 7 unknown #
coedge $-1 $214 $213 $332 $426 reversed $77 $-1 #
edge $-1 $427 0 $329 18.479504650087755 $323 $428 forward 7 unknown #
vertex $-1 $216 $429 #
straight-curve $-1 -63.740038266455748 7.9226293944107837 10.985782917285738 0 1 0 I I #
coedge $-1 $322 $217 $220 $336 reversed $210 $-1 #
coedge $-1 $217 $322 $327 $426 forward $210 $-1 #
vertex $-1 $218 $430 #
straight-curve $-1 -79.580065309610276 11.233815479563361 68.94749658873755 0 0 1 I I #
straight-curve $-1 -79.580065309610276 11.233815479563361 1.4681342904058852 -0.85716729658548041 0 -0.51503808176128008 I I #
edge $-1 $424 -20.456702098079774 $222 -11.233815479563361 $331 $431 forward 7 unknown #
point $-1 -79.580065309610276 11.233815479563361 10.985782917285738 #
point $-1 -63.740038266455741 11.233815479563361 10.985782917285738 #
edge $-1 $432 1 $432 0 $225 $-1 forward 7 unknown #
vertex $-1 $226 $433 #
ellipse-curve $-1 -70.698082561620083 13.868925941996622 4.6259729866599812 -0.51503808176128008 0 0.85716729658548041 0.85716729658548041 0 0.51503808176128008 1 I I #
point $-1 -70.802884491447529 13.868925941996622 6.7419966856070879 #
edge $-1 $434 1 $434 0 $229 $-1 forward 7 unknown #
vertex $-1 $230 $435 #
ellipse-curve $-1 -70.698082561620083 17.821591635646513 4.6259729866599812 -0.51503808176128008 0 0.85716729658548041 0.85716729658548041 0 0.51503808176128008 1 I I #
point $-1 -70.802884491447529 17.821591635646513 6.7419966856070879 #
loop $-1 $-1 $241 $233 #
plane-surface $-1 79.580065309610276 0 0 -1 0 0 0 0 1 forward_v I I I I #
coedge $-1 $350 $236 $238 $354 reversed $146 $-1 #
coedge $-1 $236 $349 $436 $437 reversed $146 $-1 #
coedge $-1 $244 $239 $236 $352 forward $234 $-1 #
edge $-1 $355 18.051933730942103 $438 24.127043930450732 $351 $439 forward 7 unknown #
coedge $-1 $238 $237 $358 $440 reversed $91 $-1 #
edge $-1 $441 -159.16013061922047 $355 -149.06548346691426 $349 $442 forward 7 unknown #
vertex $-1 $240 $443 #
straight-curve $-1 73.504955110101633 0.41653654906262005 10.985782917285732 0 -1 0 I I #
coedge $-1 $436 $241 $244 $362 reversed $347 $-1 #
coedge $-1 $241 $436 $353 $440 forward $347 $-1 #
vertex $-1 $242 $444 #
straight-curve $-1 79.580065309610276 6.2972448743251555 112.90986425936299 0 0 1 I I #
straight-curve $-1 -16.204890646879107 6.2972448743251555 130.03477256223658 0.60181501223851219 0 -0.79863551827123203 I I #
edge $-1 $438 -4.6310986780746752 $245 6.2972448743251555 $357 $445 forward 7 unknown #
point $-1 79.580065309610276 6.2972448743251555 10.985782917285738 #
point $-1 73.504955110101648 6.2972448743251555 10.985782917285718 #
edge $-1 $446 1 $446 0 $248 $-1 forward 7 unknown #
vertex $-1 $249 $447 #
ellipse-curve $-1 72.721358421532031 0.833073098125233 4.0753667128810038 0.79863551827123203 0 0.60181501223851219 0.90272251835776829 0 -1.197953277406848 1 I I #
point $-1 77.445232728213696 0.833073098125233 5.7568577597552073 #
plane-surface $-1 79.580065309610276 0 0 -1 0 0 0 0 1 forward_v I I I I #
coedge $-1 $257 $255 $259 $374 reversed $161 $-1 #
edge $-1 $270 -10.985782917285738 $376 10.985782917285738 $269 $448 forward 7 unknown #
vertex $-1 $374 $449 #
straight-curve $-1 -79.580065309610276 -32.627656770391809 0 0 0 -1 I I #
edge $-1 $372 -32.627656770391809 $376 32.627656770391809 $370 $450 forward 7 unknown #
straight-curve $-1 0 -32.627656770391809 -10.985782917285738 -1 0 0 I I #
vertex $-1 $262 $451 #
straight-curve $-1 0 32.627656770391809 -10.985782917285738 1 0 0 I I #
point $-1 79.580065309610276 32.627656770391809 -10.985782917285738 #
point $-1 79.580065309610276 -32.627656770391809 -10.985782917285738 #
straight-curve $-1 -79.580065309610276 0 10.985782917285738 0 -1 0 I I #
point $-1 -79.580065309610276 32.627656770391809 10.985782917285738 #
point $-1 -79.580065309610276 -32.627656770391809 10.985782917285738 #
straight-curve $-1 79.580065309610276 -32.627656770391809 0 0 0 -1 I I #
straight-curve $-1 79.580065309610276 32.627656770391809 0 0 0 -1 I I #
plane-surface $-1 -79.580065309610276 0 0 1 0 0 0 0 -1 forward_v I I I I #
coedge $-1 $388 $397 $392 $452 forward $280 $-1 #
coedge $-1 $283 $282 $453 $454 forward $108 $-1 #
coedge $-1 $453 $386 $284 $389 reversed $280 $-1 #
edge $-1 $390 -79.580065309610276 $393 79.580065309610276 $388 $455 forward 7 unknown #
vertex $-1 $454 $456 #
straight-curve $-1 79.580065309610276 0 -10.985782917285738 0 -1 0 I I #
coedge $-1 $292 $286 $386 $452 reversed $293 $-1 #
vertex $-1 $287 $457 #
straight-curve $-1 -79.580065309610276 0 -10.985782917285738 0 1 0 I I #
point $-1 -79.580065309610276 -32.627656770391809 -10.985782917285738 #
point $-1 79.580065309610276 -32.627656770391809 -10.985782917285738 #
coedge $-1 $386 $453 $295 $398 reversed $280 $-1 #
edge $-1 $399 -79.580065309610276 $401 79.580065309610276 $397 $458 forward 7 unknown #
vertex $-1 $296 $459 #
straight-curve $-1 -79.580065309610276 -38.713134106547827 -7.9857829172857375 0 -1 0 I I #
vertex $-1 $297 $460 #
straight-curve $-1 79.580065309610276 -38.713134106547827 -7.9857829172857375 0 1 0 I I #
plane-surface $-1 79.580065309610276 0 0 -1 0 0 0 0 1 forward_v I I I I #
coedge $-1 $411 $303 $415 $461 reversed $196 $-1 #
coedge $-1 $303 $411 $304 $408 reversed $196 $-1 #
coedge $-1 $305 $315 $303 $407 reversed $316 $-1 #
edge $-1 $409 -1.5 $462 1.5 $406 $463 forward 7 unknown #
edge $-1 $409 -79.580065309610276 $413 79.580065309610276 $405 $464 forward 7 unknown #
vertex $-1 $306 $465 #
straight-curve $-1 79.580065309610276 38.713134106547827 -7.9857829172857375 0 1 0 I I #
coedge $-1 $405 $404 $307 $412 reversed $196 $-1 #
edge $-1 $413 -1.5 $416 1.5 $411 $466 forward 7 unknown #
vertex $-1 $408 $467 #
straight-curve $-1 -79.580065309610276 38.713134106547827 -7.9857829172857375 0 -1 0 I I #
coedge $-1 $419 $309 $404 $461 forward $301 $-1 #
vertex $-1 $461 $468 #
straight-curve $-1 -79.580065309610276 38.713134106547827 -10.985782917285738 0 1 0 I I #
point $-1 -79.580065309610276 32.627656770391809 -10.985782917285738 #
coedge $-1 $313 $415 $315 $421 forward $301 $-1 #
straight-curve $-1 0 32.627656770391809 -10.985782917285738 -1 0 0 I I #
edge $-1 $462 -44.798611442703844 $317 -32.627656770391809 $315 $469 forward 7 unknown #
point $-1 79.580065309610276 32.627656770391809 -10.985782917285738 #
edge $-1 $424 57.961713671451811 $427 67.479362298331665 $322 $470 forward 7 unknown #
vertex $-1 $336 $471 #
straight-curve $-1 -80.776796838304207 20.456702098079774 10.985782917285739 -1 0 0 I I #
edge $-1 $427 -12.53407270366899 $333 -3.3111860851525776 $332 $472 forward 7 unknown #
vertex $-1 $426 $473 #
straight-curve $-1 -79.580065309610276 20.456702098079774 1.4681342904058852 0.85716729658548041 0 0.51503808176128008 I I #
point $-1 -63.740038266455741 20.456702098079774 10.985782917285738 #
point $-1 -79.580065309610276 11.233815479563361 1.4681342904058852 #
straight-curve $-1 -79.580065309610276 0 10.985782917285738 0 -1 0 I I #
vertex $-1 $339 $474 #
point $-1 -69.84091526503461 13.868925941996622 5.1410110684212613 #
vertex $-1 $343 $475 #
point $-1 -69.84091526503461 17.821591635646513 5.1410110684212613 #
coedge $-1 $358 $357 $350 $437 forward $347 $-1 #
edge $-1 $438 101.92408134207726 $441 109.98602510232455 $436 $476 forward 7 unknown #
vertex $-1 $362 $477 #
straight-curve $-1 55.453021379159544 -4.6310986780746752 10.985782917285732 1 0 0 I I #
edge $-1 $441 -5.0476352271372953 $359 5.8807083252625354 $358 $478 forward 7 unknown #
vertex $-1 $440 $479 #
straight-curve $-1 -16.204890646879107 -4.6310986780746752 130.03477256223658 -0.60181501223851219 0 0.79863551827123203 I I #
point $-1 73.504955110101648 -4.6310986780746752 10.985782917285718 #
point $-1 79.580065309610276 6.2972448743251555 2.9238391570384437 #
straight-curve $-1 79.580065309610276 0 10.985782917285738 0 1 0 I I #
vertex $-1 $365 $480 #
point $-1 73.624080939889808 0.833073098125233 2.8774134354741561 #
straight-curve $-1 -79.580065309610276 32.627656770391809 0 0 0 -1 I I #
point $-1 -79.580065309610276 -32.627656770391809 -10.985782917285738 #
straight-curve $-1 -79.580065309610276 0 -10.985782917285738 0 1 0 I I #
point $-1 -79.580065309610276 32.627656770391809 -10.985782917285738 #
edge $-1 $399 -1.5 $393 1.5 $392 $481 forward 7 unknown #
coedge $-1 $397 $388 $387 $454 reversed $280 $-1 #
edge $-1 $401 -1.5 $390 1.5 $387 $482 forward 7 unknown #
straight-curve $-1 0 -44.798611442703844 -10.985782917285738 -1 0 0 I I #
point $-1 79.580065309610276 -44.798611442703844 -10.985782917285738 #
point $-1 -79.580065309610276 -44.798611442703844 -10.985782917285738 #
straight-curve $-1 0 -44.798611442703844 -7.9857829172857375 1 0 0 I I #
point $-1 -79.580065309610276 -44.798611442703844 -7.9857829172857375 #
point $-1 79.580065309610276 -44.798611442703844 -7.9857829172857375 #
edge $-1 $416 -79.580065309610276 $462 79.580065309610276 $404 $483 forward 7 unknown #
vertex $-1 $421 $484 #
straight-curve $-1 79.580065309610276 44.798611442703844 -9.4857829172857375 0 0 -1 I I #
straight-curve $-1 0 44.798611442703844 -7.9857829172857375 -1 0 0 I I #
point $-1 79.580065309610276 44.798611442703844 -7.9857829172857375 #
straight-curve $-1 -79.580065309610276 44.798611442703844 -9.4857829172857375 0 0 -1 I I #
point $-1 -79.580065309610276 44.798611442703844 -7.9857829172857375 #
point $-1 -79.580065309610276 44.798611442703844 -10.985782917285738 #
straight-curve $-1 79.580065309610276 0 -10.985782917285738 0 -1 0 I I #
straight-curve $-1 -79.580065309610276 20.456702098079774 68.94749658873755 0 0 -1 I I #
point $-1 -79.580065309610276 20.456702098079774 10.985782917285738 #
straight-curve $-1 -79.580065309610276 7.9226293944107837 1.4681342904058838 0 -1 0 I I #
point $-1 -79.580065309610276 20.456702098079774 1.4681342904058852 #
point $-1 -70.183044479858808 13.868925941996622 3.7688056900745011 #
point $-1 -70.183044479858808 17.821591635646513 3.7688056900745011 #
straight-curve $-1 79.580065309610276 -4.6310986780746752 112.90986425936299 0 0 -1 I I #
point $-1 79.580065309610276 -4.6310986780746752 10.985782917285738 #
straight-curve $-1 79.580065309610291 0.41653654906262005 2.9238391570384294 0 1 0 I I #
point $-1 79.580065309610276 -4.6310986780746752 2.9238391570384437 #
point $-1 71.523405144125192 0.833073098125233 3.1726441945232353 #
straight-curve $-1 -79.580065309610276 -44.798611442703844 -9.4857829172857375 0 0 -1 I I #
straight-curve $-1 79.580065309610276 -44.798611442703844 -9.4857829172857375 0 0 -1 I I #
straight-curve $-1 0 44.798611442703844 -10.985782917285738 1 0 0 I I #
point $-1 79.580065309610276 44.798611442703844 -10.985782917285738 #
End-of-ACIS-data 