500 0 7 0           
7 Unknown 11 ACIS 5.0 NT 24 Fri Mar 26 17:50:19 1999 
-1 9.9999999999999995e-007 1e-010 
body $-1 $7 $-1 $8 #
body $-1 $9 $-1 $10 #
body $-1 $11 $-1 $12 #
body $-1 $13 $-1 $14 #
body $-1 $15 $-1 $16 #
body $-1 $17 $-1 $18 #
body $-1 $19 $-1 $20 #
lump $-1 $-1 $21 $0 #
transform $-1 1 0 0 0 1 0 0 0 1 67.372661519211405 28.977831511002105 12.964986214811981 1 rotate no_reflect no_shear #
lump $-1 $-1 $22 $1 #
transform $-1 1 0 0 0 1 0 0 0 1 67.372661519211405 28.977831511002105 12.964986214811981 1 rotate no_reflect no_shear #
lump $-1 $-1 $23 $2 #
transform $-1 1 0 0 0 1 0 0 0 1 67.372661519211405 28.977831511002105 12.964986214811981 1 rotate no_reflect no_shear #
lump $-1 $-1 $24 $3 #
transform $-1 1 0 0 0 1 0 0 0 1 67.372661519211405 28.977831511002105 12.964986214811981 1 rotate no_reflect no_shear #
lump $-1 $-1 $25 $4 #
transform $-1 1 0 0 0 1 0 0 0 1 67.372661519211405 28.977831511002105 12.964986214811981 1 rotate no_reflect no_shear #
lump $-1 $-1 $26 $5 #
transform $-1 1 0 0 0 1 0 0 0 1 67.372661519211405 28.977831511002105 12.964986214811981 1 rotate no_reflect no_shear #
lump $-1 $-1 $27 $6 #
transform $-1 1 0 0 0 1 0 0 0 1 67.372661519211405 28.977831511002105 12.964986214811981 1 rotate no_reflect no_shear #
shell $-1 $-1 $-1 $28 $-1 $7 #
shell $-1 $-1 $-1 $29 $-1 $9 #
shell $-1 $-1 $-1 $30 $-1 $11 #
shell $-1 $-1 $-1 $31 $-1 $13 #
shell $-1 $-1 $-1 $32 $-1 $15 #
shell $-1 $-1 $-1 $33 $-1 $17 #
shell $-1 $-1 $-1 $34 $-1 $19 #
face $-1 $35 $36 $21 $-1 $37 forward single #
face $-1 $38 $39 $22 $-1 $40 reversed single #
face $-1 $41 $42 $23 $-1 $43 reversed single #
face $-1 $44 $45 $24 $-1 $46 forward single #
face $-1 $47 $48 $25 $-1 $49 reversed single #
face $-1 $50 $51 $26 $-1 $52 forward single #
face $-1 $53 $54 $27 $-1 $55 forward single #
face $-1 $56 $57 $21 $-1 $58 reversed single #
loop $-1 $-1 $59 $28 #
plane-surface $-1 0 0 12.964986214811981 0 0 1 1 0 0 forward_v I I I I #
face $-1 $60 $61 $22 $-1 $62 reversed single #
loop $-1 $-1 $63 $29 #
plane-surface $-1 -58.824257783007802 0 9.6939653389963532 0 0 1 1 0 0 forward_v I I I I #
face $-1 $64 $65 $23 $-1 $66 reversed single #
loop $-1 $-1 $67 $30 #
plane-surface $-1 24.075239428787441 87.998656780942895 139.75992417436791 1 0 0 0 -0.73135370988377701 -0.68199835119979291 forward_v I I I I #
face $-1 $68 $69 $24 $-1 $70 forward single #
loop $-1 $71 $72 $31 #
cone-surface $-1 41.182152934450443 24.294569356158465 8.1095470923971753 0 -0.73135370988377701 -0.68199835119979291 1.5 0 0 1 I I 0 1 1.5 forward I I I I #
face $-1 $73 $74 $25 $-1 $75 reversed single #
loop $-1 $-1 $76 $32 #
plane-surface $-1 -37.269422343020153 -140.68676812385965 76.659369034053512 -1 0 0 0 -0.82903758062907751 0.55919289150049634 forward_v I I I I #
face $-1 $77 $78 $26 $-1 $79 forward single #
loop $-1 $80 $81 $33 #
cone-surface $-1 -46.559730702865906 -23.766816499037319 6.2741077159743499 0 0.82903758062907751 -0.55919289150049634 1 0 0 1 I I 0 1 1 forward I I I I #
face $-1 $82 $83 $27 $-1 $84 forward single #
loop $-1 $85 $86 $34 #
cone-surface $-1 -40.98554568695846 -23.766816499037319 6.2741077159743499 0 0.82903758062907751 -0.55919289150049634 1 0 0 1 I I 0 1 1 forward I I I I #
face $-1 $87 $88 $21 $-1 $89 reversed single #
loop $-1 $-1 $90 $35 #
plane-surface $-1 0 0 -12.964986214811981 0 0 1 1 0 0 forward_v I I I I #
coedge $-1 $91 $92 $93 $94 forward $36 $-1 #
face $-1 $95 $96 $22 $-1 $97 reversed single #
loop $-1 $-1 $98 $38 #
plane-surface $-1 -50.275854046804199 0 11.329475776904166 -1 0 0 0 0 1 forward_v I I I I #
coedge $-1 $99 $100 $98 $101 forward $39 $-1 #
face $-1 $102 $103 $23 $-1 $104 reversed single #
loop $-1 $-1 $105 $41 #
plane-surface $-1 41.182152934450443 -10.547835112695594 47.863836030280083 0 0.73135370988377701 0.68199835119979291 1 0 0 forward_v I I I I #
coedge $-1 $106 $107 $108 $109 reversed $42 $-1 #
face $-1 $-1 $110 $24 $-1 $111 forward single #
loop $-1 $112 $113 $44 #
cone-surface $-1 41.182152934450443 22.55377365519735 6.4862288788068785 0 -0.73135370988377701 -0.68199835119979291 0.75 0 0 1 I I -0.70710678118654757 0.70710678118654757 0.75 forward I I I I #
loop $-1 $-1 $114 $31 #
coedge $-1 $72 $72 $115 $116 reversed $45 $-1 #
face $-1 $117 $118 $25 $-1 $119 forward single #
loop $-1 $-1 $120 $47 #
plane-surface $-1 -43.772638194912176 -28.977831511002108 1.3107422280294116 0 -0.82903758062907751 0.55919289150049634 1 0 0 forward_v I I I I #
coedge $-1 $121 $122 $123 $124 reversed $48 $-1 #
face $-1 $-1 $125 $26 $-1 $126 forward single #
loop $-1 $127 $128 $50 #
cone-surface $-1 -46.559730702865906 -22.07172598756522 5.1307547647777572 0 0.82903758062907751 -0.55919289150049634 0.5 0 0 1 I I -0.70710678118654746 0.70710678118654746 0.5 forward I I I I #
loop $-1 $-1 $129 $33 #
coedge $-1 $81 $81 $130 $131 reversed $51 $-1 #
face $-1 $-1 $132 $27 $-1 $133 forward single #
loop $-1 $134 $135 $53 #
cone-surface $-1 -40.98554568695846 -22.07172598756522 5.1307547647777572 0 0.82903758062907751 -0.55919289150049634 0.5 0 0 1 I I -0.70710678118654746 0.70710678118654746 0.5 forward I I I I #
loop $-1 $-1 $136 $34 #
coedge $-1 $86 $86 $137 $138 reversed $54 $-1 #
face $-1 $139 $140 $21 $-1 $141 reversed single #
loop $-1 $-1 $142 $56 #
plane-surface $-1 0 -28.977831511002105 0 0 1 0 0 0 1 forward_v I I I I #
coedge $-1 $143 $144 $145 $146 forward $57 $-1 #
coedge $-1 $147 $59 $148 $149 forward $36 $-1 #
coedge $-1 $59 $147 $150 $151 forward $36 $-1 #
coedge $-1 $152 $153 $59 $94 reversed $154 $-1 #
edge $-1 $155 -28.977831511002105 $156 28.977831511002105 $93 $157 forward 7 unknown #
face $-1 $158 $159 $22 $-1 $160 reversed single #
loop $-1 $-1 $161 $60 #
plane-surface $-1 0 28.977831511002105 0 0 -1 0 0 0 -1 forward_v I I I I #
coedge $-1 $162 $163 $63 $101 reversed $61 $-1 #
coedge $-1 $164 $63 $165 $166 reversed $39 $-1 #
coedge $-1 $63 $164 $167 $168 reversed $39 $-1 #
edge $-1 $169 -28.977831511002105 $170 28.977831511002105 $98 $171 forward 7 unknown #
face $-1 $172 $173 $23 $-1 $174 forward single #
loop $-1 $-1 $175 $64 #
plane-surface $-1 58.289066440113444 87.998656780942895 139.75992417436791 -1 0 0 0 0.73135370988377701 0.68199835119979291 forward_v I I I I #
coedge $-1 $176 $177 $178 $179 reversed $65 $-1 #
coedge $-1 $107 $67 $180 $181 reversed $42 $-1 #
coedge $-1 $67 $106 $176 $182 reversed $42 $-1 #
coedge $-1 $178 $183 $67 $109 forward $173 $-1 #
edge $-1 $184 15.021496879469343 $185 22.003460352060074 $108 $186 forward 7 unknown #
loop $-1 $-1 $115 $68 #
plane-surface $-1 41.182152934450443 -10.547835112695594 47.863836030280083 0 0.73135370988377701 0.68199835119979291 1 0 0 forward_v I I I I #
loop $-1 $-1 $187 $44 #
coedge $-1 $113 $113 $114 $188 reversed $69 $-1 #
coedge $-1 $114 $114 $113 $188 forward $71 $-1 #
coedge $-1 $115 $115 $72 $116 forward $110 $-1 #
edge $-1 $189 -3.5069091583739076e-016 $189 6.2831853071796004 $115 $190 forward 7 unknown #
face $-1 $191 $192 $25 $-1 $193 forward single #
loop $-1 $-1 $194 $73 #
plane-surface $-1 -50.275854046804199 0 11.329475776904166 -1 0 0 0 0 1 forward_v I I I I #
coedge $-1 $195 $196 $197 $198 reversed $74 $-1 #
coedge $-1 $122 $76 $199 $200 reversed $48 $-1 #
coedge $-1 $76 $121 $195 $201 reversed $48 $-1 #
coedge $-1 $197 $202 $76 $124 forward $192 $-1 #
edge $-1 $203 41.365552550927717 $204 49.226439132542161 $123 $205 forward 7 unknown #
loop $-1 $-1 $130 $77 #
plane-surface $-1 -43.772638194912176 -28.977831511002108 1.3107422280294116 0 -0.82903758062907751 0.55919289150049634 1 0 0 forward_v I I I I #
loop $-1 $-1 $206 $50 #
coedge $-1 $128 $128 $129 $207 reversed $78 $-1 #
coedge $-1 $129 $129 $128 $207 forward $80 $-1 #
coedge $-1 $130 $130 $81 $131 forward $125 $-1 #
edge $-1 $208 -2.2234762998362979e-016 $208 6.2831853071796004 $130 $209 forward 7 unknown #
loop $-1 $-1 $137 $82 #
plane-surface $-1 -43.772638194912176 -28.977831511002108 1.3107422280294116 0 -0.82903758062907751 0.55919289150049634 1 0 0 forward_v I I I I #
loop $-1 $-1 $210 $53 #
coedge $-1 $135 $135 $136 $211 reversed $83 $-1 #
coedge $-1 $136 $136 $135 $211 forward $85 $-1 #
coedge $-1 $137 $137 $86 $138 forward $132 $-1 #
edge $-1 $212 -2.2234762998362979e-016 $212 6.2831853071796004 $137 $213 forward 7 unknown #
face $-1 $214 $215 $21 $-1 $216 reversed single #
loop $-1 $-1 $217 $87 #
plane-surface $-1 -67.372661519211405 0 0 1 0 0 0 0 -1 forward_v I I I I #
coedge $-1 $218 $150 $219 $220 forward $88 $-1 #
coedge $-1 $221 $90 $218 $222 forward $57 $-1 #
coedge $-1 $90 $221 $223 $224 forward $57 $-1 #
coedge $-1 $153 $152 $90 $146 reversed $154 $-1 #
edge $-1 $225 -28.977831511002105 $226 28.977831511002105 $145 $227 forward 7 unknown #
coedge $-1 $92 $91 $228 $229 forward $36 $-1 #
coedge $-1 $230 $231 $91 $149 reversed $215 $-1 #
edge $-1 $156 -67.372661519211405 $232 67.372661519211405 $148 $233 forward 7 unknown #
coedge $-1 $142 $234 $92 $151 reversed $88 $-1 #
edge $-1 $235 -67.372661519211405 $155 67.372661519211405 $150 $236 forward 7 unknown #
coedge $-1 $145 $93 $234 $237 forward $154 $-1 #
coedge $-1 $93 $145 $230 $238 reversed $154 $-1 #
loop $-1 $-1 $152 $214 #
vertex $-1 $94 $239 #
vertex $-1 $94 $240 #
straight-curve $-1 67.372661519211405 0 12.964986214811981 0 1 0 I I #
face $-1 $241 $242 $22 $-1 $243 forward single #
loop $-1 $-1 $244 $95 #
plane-surface $-1 -67.372661519211405 0 0 1 0 0 0 0 -1 forward_v I I I I #
coedge $-1 $167 $245 $162 $246 forward $96 $-1 #
coedge $-1 $247 $98 $161 $246 reversed $61 $-1 #
coedge $-1 $98 $247 $248 $249 reversed $61 $-1 #
coedge $-1 $100 $99 $244 $250 reversed $39 $-1 #
coedge $-1 $248 $251 $99 $166 forward $252 $-1 #
edge $-1 $253 -37.960532627707508 $170 -20.863725155300298 $165 $254 forward 7 unknown #
coedge $-1 $255 $161 $100 $168 forward $96 $-1 #
edge $-1 $169 20.863725155300298 $256 37.960532627707508 $167 $257 forward 7 unknown #
vertex $-1 $168 $258 #
vertex $-1 $166 $259 #
straight-curve $-1 -50.275854046804199 0 9.6939653389963532 0 -1 0 I I #
face $-1 $-1 $260 $23 $-1 $261 reversed single #
loop $-1 $-1 $108 $102 #
plane-surface $-1 0 0 12.964986214811981 0 0 1 1 0 0 forward_v I I I I #
coedge $-1 $262 $263 $264 $265 reversed $103 $-1 #
coedge $-1 $266 $105 $107 $182 forward $65 $-1 #
coedge $-1 $105 $266 $262 $267 forward $65 $-1 #
coedge $-1 $264 $108 $105 $179 forward $173 $-1 #
edge $-1 $185 3.4841629615622196 $268 37.697989972888223 $178 $269 forward 7 unknown #
coedge $-1 $270 $271 $106 $181 forward $260 $-1 #
edge $-1 $272 -64.402215216820707 $184 -56.914975872371976 $180 $273 forward 7 unknown #
edge $-1 $185 47.718155174209826 $272 57.955663022004245 $107 $274 forward 7 unknown #
coedge $-1 $108 $264 $270 $275 forward $173 $-1 #
vertex $-1 $181 $276 #
vertex $-1 $109 $277 #
straight-curve $-1 24.075239428787441 43.999328390471447 12.964986214811979 0 -1 0 I I #
coedge $-1 $187 $187 $-1 $278 reversed $112 $-1 #
edge $-1 $279 0 $279 6.2831853071796004 $113 $280 forward 7 unknown #
vertex $-1 $116 $281 #
ellipse-curve $-1 41.182152934450443 25.486849774706737 9.2213665425876155 0 0.73135370988377701 0.68199835119979291 1.5 0 0 1 I I #
face $-1 $-1 $282 $25 $-1 $283 reversed single #
loop $-1 $-1 $197 $117 #
plane-surface $-1 0 0 12.964986214811981 0 0 1 1 0 0 forward_v I I I I #
coedge $-1 $284 $285 $196 $286 reversed $118 $-1 #
coedge $-1 $287 $120 $122 $201 forward $74 $-1 #
coedge $-1 $120 $287 $194 $286 forward $74 $-1 #
coedge $-1 $288 $123 $120 $198 forward $192 $-1 #
edge $-1 $204 15.383103245564065 $289 28.389534949348111 $197 $290 forward 7 unknown #
coedge $-1 $291 $292 $121 $200 forward $282 $-1 #
edge $-1 $293 -37.018942288997337 $203 -25.364698302214777 $199 $294 forward 7 unknown #
edge $-1 $204 -14.057558136193631 $293 -6.404651964132713e-015 $122 $295 forward 7 unknown #
coedge $-1 $123 $288 $291 $296 forward $192 $-1 #
vertex $-1 $200 $297 #
vertex $-1 $124 $298 #
straight-curve $-1 -37.269422343020153 -70.343384061929825 12.964986214811979 0 1 0 I I #
coedge $-1 $206 $206 $-1 $299 reversed $127 $-1 #
edge $-1 $300 0 $300 6.2831853071796004 $128 $301 forward 7 unknown #
vertex $-1 $131 $302 #
ellipse-curve $-1 -46.559730702865906 -25.047388220194886 7.1378642214206982 0 -0.82903758062907751 0.55919289150049634 1 0 0 1 I I #
coedge $-1 $210 $210 $-1 $303 reversed $134 $-1 #
edge $-1 $304 0 $304 6.2831853071796004 $135 $305 forward 7 unknown #
vertex $-1 $138 $306 #
ellipse-curve $-1 -40.98554568695846 -25.047388220194886 7.1378642214206982 0 -0.82903758062907751 0.55919289150049634 1 0 0 1 I I #
face $-1 $-1 $154 $21 $-1 $307 reversed single #
loop $-1 $-1 $230 $139 #
plane-surface $-1 0 28.977831511002105 0 0 -1 0 0 0 -1 forward_v I I I I #
coedge $-1 $308 $228 $231 $309 forward $140 $-1 #
coedge $-1 $234 $142 $143 $222 reversed $88 $-1 #
coedge $-1 $228 $308 $142 $220 reversed $140 $-1 #
edge $-1 $235 -12.964986214811981 $310 12.964986214811981 $219 $311 forward 7 unknown #
coedge $-1 $144 $143 $308 $312 forward $57 $-1 #
edge $-1 $226 -67.372661519211405 $310 67.372661519211405 $218 $313 forward 7 unknown #
coedge $-1 $231 $230 $144 $224 reversed $215 $-1 #
edge $-1 $314 -67.372661519211405 $225 67.372661519211405 $223 $315 forward 7 unknown #
vertex $-1 $146 $316 #
vertex $-1 $237 $317 #
straight-curve $-1 67.372661519211405 0 -12.964986214811981 0 -1 0 I I #
coedge $-1 $217 $219 $147 $229 reversed $140 $-1 #
edge $-1 $232 -28.977831511002105 $235 28.977831511002105 $228 $318 forward 7 unknown #
coedge $-1 $223 $148 $153 $238 forward $215 $-1 #
coedge $-1 $148 $223 $217 $309 reversed $215 $-1 #
vertex $-1 $149 $319 #
straight-curve $-1 0 28.977831511002105 12.964986214811981 -1 0 0 I I #
coedge $-1 $150 $218 $152 $237 reversed $88 $-1 #
vertex $-1 $229 $320 #
straight-curve $-1 0 -28.977831511002105 12.964986214811981 1 0 0 I I #
edge $-1 $155 -12.964986214811981 $226 12.964986214811981 $152 $321 forward 7 unknown #
edge $-1 $156 -12.964986214811981 $225 12.964986214811981 $153 $322 forward 7 unknown #
point $-1 67.372661519211405 -28.977831511002105 12.964986214811981 #
point $-1 67.372661519211405 28.977831511002105 12.964986214811981 #
face $-1 $-1 $252 $22 $-1 $323 reversed single #
loop $-1 $-1 $324 $158 #
plane-surface $-1 0 0 12.964986214811981 0 0 1 1 0 0 forward_v I I I I #
coedge $-1 $325 $326 $164 $250 forward $159 $-1 #
coedge $-1 $161 $255 $327 $328 reversed $96 $-1 #
edge $-1 $329 -7.3002483263598963 $169 -4.02922745054427 $161 $330 forward 7 unknown #
coedge $-1 $163 $162 $324 $331 reversed $61 $-1 #
coedge $-1 $332 $165 $163 $249 forward $252 $-1 #
edge $-1 $170 4.02922745054427 $333 7.3002483263598963 $248 $334 forward 7 unknown #
edge $-1 $256 -28.977831511002105 $253 28.977831511002105 $244 $335 forward 7 unknown #
coedge $-1 $165 $332 $325 $336 forward $252 $-1 #
loop $-1 $-1 $248 $241 #
vertex $-1 $250 $337 #
straight-curve $-1 -29.412128891503901 -28.977831511002105 9.6939653389963532 1 0 0 I I #
coedge $-1 $245 $167 $326 $338 reversed $96 $-1 #
vertex $-1 $250 $339 #
straight-curve $-1 -29.412128891503901 28.977831511002105 9.6939653389963532 -1 0 0 I I #
point $-1 -50.275854046804199 28.977831511002105 9.6939653389963532 #
point $-1 -50.275854046804199 -28.977831511002105 9.6939653389963532 #
loop $-1 $-1 $180 $172 #
plane-surface $-1 0 28.977831511002105 0 0 -1 0 0 0 -1 forward_v I I I I #
coedge $-1 $263 $175 $177 $267 reversed $103 $-1 #
coedge $-1 $175 $262 $340 $341 reversed $103 $-1 #
coedge $-1 $183 $178 $175 $265 forward $173 $-1 #
edge $-1 $268 -22.003460352060074 $342 -15.021496879469343 $264 $343 forward 7 unknown #
coedge $-1 $177 $176 $271 $344 reversed $65 $-1 #
edge $-1 $345 -57.955663022004245 $268 -47.718155174209826 $262 $346 forward 7 unknown #
vertex $-1 $179 $347 #
straight-curve $-1 20.591076467225221 21.995868038411373 12.964986214811979 1 0 0 I I #
coedge $-1 $340 $180 $183 $275 reversed $260 $-1 #
coedge $-1 $180 $340 $266 $344 forward $260 $-1 #
vertex $-1 $181 $348 #
straight-curve $-1 24.075239428787441 28.977831511002105 69.879962087183955 0 0 1 I I #
straight-curve $-1 24.075239428787441 -10.547835112695594 47.863836030280083 0 0.68199835119979291 -0.73135370988377701 I I #
edge $-1 $342 -58.289066440113444 $184 -24.075239428787441 $270 $349 forward 7 unknown #
point $-1 24.075239428787441 28.977831511002105 12.964986214811981 #
point $-1 24.075239428787441 21.995868038411373 12.964986214811979 #
edge $-1 $350 1 $350 0 $187 $-1 forward 7 unknown #
vertex $-1 $188 $351 #
ellipse-curve $-1 41.182152934450443 23.102288937610183 6.9977276422067227 0 0.73135370988377701 0.68199835119979291 1.5 0 0 1 I I #
point $-1 42.682152934450443 25.486849774706748 9.2213665425876261 #
loop $-1 $-1 $199 $191 #
plane-surface $-1 0 -28.977831511002105 0 0 1 0 0 0 1 forward_v I I I I #
coedge $-1 $285 $194 $352 $353 reversed $118 $-1 #
coedge $-1 $194 $284 $288 $354 reversed $118 $-1 #
edge $-1 $355 6.404651964132713e-015 $289 14.057558136193631 $194 $356 forward 7 unknown #
coedge $-1 $196 $195 $292 $357 reversed $74 $-1 #
coedge $-1 $202 $197 $285 $354 forward $192 $-1 #
vertex $-1 $354 $358 #
straight-curve $-1 -21.886319097456088 -21.116944929387664 12.964986214811981 -1 0 0 I I #
coedge $-1 $352 $199 $202 $296 reversed $282 $-1 #
coedge $-1 $199 $352 $287 $357 forward $282 $-1 #
vertex $-1 $200 $359 #
straight-curve $-1 -37.269422343020153 -28.977831511002108 38.329684517026756 0 0 1 I I #
straight-curve $-1 -37.269422343020153 -28.977831511002108 1.3107422280294116 0 -0.55919289150049634 -0.82903758062907751 I I #
edge $-1 $360 -50.275854046804199 $203 -37.269422343020153 $291 $361 forward 7 unknown #
point $-1 -37.269422343020153 -28.977831511002105 12.964986214811981 #
point $-1 -37.269422343020153 -21.116944929387664 12.964986214811981 #
edge $-1 $362 1 $362 0 $206 $-1 forward 7 unknown #
vertex $-1 $207 $363 #
ellipse-curve $-1 -46.559730702865906 -22.486244777879758 5.4103512105280052 0 -0.82903758062907751 0.55919289150049634 1 0 0 1 I I #
point $-1 -45.559730702865906 -25.047388220194883 7.1378642214206955 #
edge $-1 $364 1 $364 0 $210 $-1 forward 7 unknown #
vertex $-1 $211 $365 #
ellipse-curve $-1 -40.98554568695846 -22.486244777879758 5.4103512105280052 0 -0.82903758062907751 0.55919289150049634 1 0 0 1 I I #
point $-1 -39.98554568695846 -25.047388220194883 7.1378642214206955 #
plane-surface $-1 67.372661519211405 0 0 -1 0 0 0 0 1 forward_v I I I I #
coedge $-1 $219 $217 $221 $312 reversed $140 $-1 #
edge $-1 $232 -12.964986214811981 $314 12.964986214811981 $231 $366 forward 7 unknown #
vertex $-1 $312 $367 #
straight-curve $-1 -67.372661519211405 -28.977831511002105 0 0 0 -1 I I #
edge $-1 $310 -28.977831511002105 $314 28.977831511002105 $308 $368 forward 7 unknown #
straight-curve $-1 0 -28.977831511002105 -12.964986214811981 -1 0 0 I I #
vertex $-1 $224 $369 #
straight-curve $-1 0 28.977831511002105 -12.964986214811981 1 0 0 I I #
point $-1 67.372661519211405 28.977831511002105 -12.964986214811981 #
point $-1 67.372661519211405 -28.977831511002105 -12.964986214811981 #
straight-curve $-1 -67.372661519211405 0 12.964986214811981 0 -1 0 I I #
point $-1 -67.372661519211405 28.977831511002105 12.964986214811981 #
point $-1 -67.372661519211405 -28.977831511002105 12.964986214811981 #
straight-curve $-1 67.372661519211405 -28.977831511002105 0 0 0 -1 I I #
straight-curve $-1 67.372661519211405 28.977831511002105 0 0 0 -1 I I #
plane-surface $-1 0 -28.977831511002105 0 0 1 0 0 0 1 forward_v I I I I #
coedge $-1 $327 $370 $247 $331 forward $242 $-1 #
coedge $-1 $371 $244 $251 $336 reversed $159 $-1 #
coedge $-1 $244 $371 $255 $338 forward $159 $-1 #
coedge $-1 $372 $324 $245 $328 forward $242 $-1 #
edge $-1 $329 50.275854046804199 $373 67.372661519211405 $245 $374 forward 7 unknown #
vertex $-1 $328 $375 #
straight-curve $-1 -50.275854046804199 28.977831511002105 5.6647378884520831 0 0 -1 I I #
edge $-1 $333 -28.977831511002105 $329 28.977831511002105 $324 $376 forward 7 unknown #
coedge $-1 $251 $248 $370 $377 reversed $252 $-1 #
vertex $-1 $249 $378 #
straight-curve $-1 -50.275854046804199 -28.977831511002105 5.6647378884520831 0 0 1 I I #
straight-curve $-1 -67.372661519211405 0 9.6939653389963532 0 -1 0 I I #
edge $-1 $379 -12.964986214811981 $253 -9.6939653389963532 $325 $380 forward 7 unknown #
point $-1 -67.372661519211405 -28.977831511002105 9.6939653389963532 #
edge $-1 $373 -12.964986214811981 $256 -9.6939653389963532 $255 $381 forward 7 unknown #
point $-1 -67.372661519211405 28.977831511002105 9.6939653389963532 #
coedge $-1 $271 $270 $263 $341 forward $260 $-1 #
edge $-1 $342 56.914975872371976 $345 64.402215216820707 $340 $382 forward 7 unknown #
vertex $-1 $275 $383 #
straight-curve $-1 58.289066440113444 43.999328390471447 12.964986214811979 0 1 0 I I #
edge $-1 $345 -37.697989972888223 $272 -3.4841629615622196 $271 $384 forward 7 unknown #
vertex $-1 $344 $385 #
straight-curve $-1 58.289066440113444 -10.547835112695594 47.863836030280083 0 -0.68199835119979291 0.73135370988377701 I I #
point $-1 58.289066440113444 21.995868038411373 12.964986214811979 #
point $-1 24.075239428787441 28.977831511002108 5.4777468703632479 #
straight-curve $-1 0 28.977831511002105 12.964986214811981 -1 0 0 I I #
vertex $-1 $278 $386 #
point $-1 42.682152934450443 23.102288937610183 6.9977276422067227 #
coedge $-1 $292 $291 $284 $353 forward $282 $-1 #
edge $-1 $360 25.364698302214777 $355 37.018942288997337 $352 $387 forward 7 unknown #
edge $-1 $289 21.116944929387664 $360 28.977831511002105 $288 $388 forward 7 unknown #
vertex $-1 $353 $389 #
straight-curve $-1 -50.275854046804199 -28.977831511002108 1.3107422280294116 0 0.55919289150049634 0.82903758062907751 I I #
edge $-1 $355 -28.389534949348111 $293 -15.383103245564065 $292 $390 forward 7 unknown #
point $-1 -50.275854046804199 -21.116944929387664 12.964986214811981 #
point $-1 -37.269422343020153 -28.977831511002105 1.310742228029417 #
vertex $-1 $296 $391 #
straight-curve $-1 0 -28.977831511002105 12.964986214811981 1 0 0 I I #
vertex $-1 $299 $392 #
point $-1 -45.559730702865906 -22.486244777879758 5.4103512105280052 #
vertex $-1 $303 $393 #
point $-1 -39.98554568695846 -22.486244777879758 5.4103512105280052 #
straight-curve $-1 -67.372661519211405 28.977831511002105 0 0 0 -1 I I #
point $-1 -67.372661519211405 -28.977831511002105 -12.964986214811981 #
straight-curve $-1 -67.372661519211405 0 -12.964986214811981 0 1 0 I I #
point $-1 -67.372661519211405 28.977831511002105 -12.964986214811981 #
coedge $-1 $324 $372 $332 $377 forward $242 $-1 #
coedge $-1 $326 $325 $372 $394 reversed $159 $-1 #
coedge $-1 $370 $327 $371 $394 forward $242 $-1 #
vertex $-1 $328 $395 #
straight-curve $-1 0 28.977831511002105 12.964986214811981 -1 0 0 I I #
point $-1 -50.275854046804199 28.977831511002105 12.964986214811979 #
straight-curve $-1 -50.275854046804199 0 12.964986214811981 0 1 0 I I #
edge $-1 $379 -67.372661519211405 $333 -50.275854046804199 $332 $396 forward 7 unknown #
point $-1 -50.275854046804199 -28.977831511002105 12.964986214811979 #
vertex $-1 $394 $397 #
straight-curve $-1 -67.372661519211405 -28.977831511002105 0 0 0 -1 I I #
straight-curve $-1 -67.372661519211405 28.977831511002105 0 0 0 -1 I I #
straight-curve $-1 58.289066440113444 28.977831511002105 69.879962087183955 0 0 -1 I I #
point $-1 58.289066440113444 28.977831511002105 12.964986214811981 #
straight-curve $-1 20.591076467225221 28.977831511002108 5.4777468703632444 -1 0 0 I I #
point $-1 58.289066440113444 28.977831511002108 5.4777468703632479 #
point $-1 41.182152934450443 22.005258372784517 5.9747301154070342 #
straight-curve $-1 -50.275854046804199 -28.977831511002108 38.329684517026756 0 0 -1 I I #
straight-curve $-1 -50.275854046804199 0 12.964986214811981 0 -1 0 I I #
point $-1 -50.275854046804199 -28.977831511002105 1.310742228029417 #
straight-curve $-1 -21.886319097456088 -28.977831511002105 1.3107422280294172 1 0 0 I I #
point $-1 -50.275854046804199 -28.977831511002105 12.964986214811979 #
point $-1 -46.559730702865906 -21.657207197250681 4.8511583190275092 #
point $-1 -40.98554568695846 -21.657207197250681 4.8511583190275092 #
edge $-1 $373 -28.977831511002105 $379 28.977831511002105 $371 $398 forward 7 unknown #
point $-1 -67.372661519211405 28.977831511002105 12.964986214811981 #
straight-curve $-1 0 -28.977831511002105 12.964986214811981 1 0 0 I I #
point $-1 -67.372661519211405 -28.977831511002105 12.964986214811981 #
straight-curve $-1 -67.372661519211405 0 12.964986214811981 0 -1 0 I I #
End-of-ACIS-data 