500 0 8 0           
7 Unknown 11 ACIS 5.0 NT 24 Fri Mar 26 03:27:58 1999 
-1 9.9999999999999995e-007 1e-010 
body $-1 $8 $-1 $9 #
body $-1 $10 $-1 $11 #
body $-1 $12 $-1 $13 #
body $-1 $14 $-1 $15 #
body $-1 $16 $-1 $17 #
body $-1 $18 $-1 $19 #
body $-1 $20 $-1 $21 #
body $-1 $22 $-1 $23 #
lump $-1 $-1 $24 $0 #
transform $-1 1 0 0 0 1 0 0 0 1 59.923703726310009 29.682962589853748 9.7910203729336303 1 rotate no_reflect no_shear #
lump $-1 $-1 $25 $1 #
transform $-1 1 0 0 0 1 0 0 0 1 59.923703726310009 29.682962589853748 9.7910203729336303 1 rotate no_reflect no_shear #
lump $-1 $-1 $26 $2 #
transform $-1 1 0 0 0 1 0 0 0 1 59.923703726310009 29.682962589853748 9.7910203729336303 1 rotate no_reflect no_shear #
lump $-1 $-1 $27 $3 #
transform $-1 1 0 0 0 1 0 0 0 1 59.923703726310009 29.682962589853748 9.7910203729336303 1 rotate no_reflect no_shear #
lump $-1 $-1 $28 $4 #
transform $-1 1 0 0 0 1 0 0 0 1 59.923703726310009 29.682962589853748 9.7910203729336303 1 rotate no_reflect no_shear #
lump $-1 $-1 $29 $5 #
transform $-1 1 0 0 0 1 0 0 0 1 59.923703726310009 29.682962589853748 9.7910203729336303 1 rotate no_reflect no_shear #
lump $-1 $-1 $30 $6 #
transform $-1 1 0 0 0 1 0 0 0 1 59.923703726310009 29.682962589853748 9.7910203729336303 1 rotate no_reflect no_shear #
lump $-1 $-1 $31 $7 #
transform $-1 1 0 0 0 1 0 0 0 1 59.923703726310009 29.682962589853748 9.7910203729336303 1 rotate no_reflect no_shear #
shell $-1 $-1 $-1 $32 $-1 $8 #
shell $-1 $-1 $-1 $33 $-1 $10 #
shell $-1 $-1 $-1 $34 $-1 $12 #
shell $-1 $-1 $-1 $35 $-1 $14 #
shell $-1 $-1 $-1 $36 $-1 $16 #
shell $-1 $-1 $-1 $37 $-1 $18 #
shell $-1 $-1 $-1 $38 $-1 $20 #
shell $-1 $-1 $-1 $39 $-1 $22 #
face $-1 $40 $41 $24 $-1 $42 reversed single #
face $-1 $43 $44 $25 $-1 $45 forward single #
face $-1 $46 $47 $26 $-1 $48 reversed single #
face $-1 $49 $50 $27 $-1 $51 forward single #
face $-1 $52 $53 $28 $-1 $54 forward single #
face $-1 $55 $56 $29 $-1 $57 reversed single #
face $-1 $58 $59 $30 $-1 $60 forward single #
face $-1 $61 $62 $31 $-1 $63 forward single #
face $-1 $64 $65 $24 $-1 $66 forward single #
loop $-1 $-1 $67 $32 #
plane-surface $-1 0 -29.682962589853748 0 0 1 0 0 0 1 forward_v I I I I #
face $-1 $68 $69 $25 $-1 $70 reversed single #
loop $-1 $-1 $71 $33 #
plane-surface $-1 0 -29.682962589853748 0 0 1 0 0 0 1 forward_v I I I I #
face $-1 $72 $73 $26 $-1 $74 reversed single #
loop $-1 $-1 $75 $34 #
plane-surface $-1 -148.98768541408549 -22.639308449950786 82.884110439135029 0 1 0 -0.74314483375859142 0 0.66913059716165679 forward_v I I I I #
face $-1 $76 $77 $27 $-1 $78 forward single #
loop $-1 $79 $80 $35 #
cone-surface $-1 -54.789150270215721 -18.338102433268865 4.4958849045578617 0.74314483375859142 0 -0.66913059716165679 1.0036958957424851 0 1.1147172506378871 1 I I 0 1 1.5 forward I I I I #
face $-1 $81 $82 $28 $-1 $83 forward single #
loop $-1 $84 $85 $36 #
cone-surface $-1 -54.789150270215721 -11.886293408245979 4.4958849045578617 0.74314483375859142 0 -0.66913059716165679 1.0036958957424851 0 1.1147172506378871 1 I I 0 1 1.5 forward I I I I #
face $-1 $86 $87 $29 $-1 $88 reversed single #
loop $-1 $-1 $89 $37 #
plane-surface $-1 68.794118097037455 -7.5850873915640591 171.94809212691047 0 -1 0 -0.74314483375859142 0 -0.66913059716165679 forward_v I I I I #
face $-1 $90 $91 $30 $-1 $92 forward single #
loop $-1 $93 $94 $38 #
cone-surface $-1 54.789150270215707 -18.338102433268865 4.4958849045578724 -0.74314483375859142 0 -0.66913059716165679 1.0036958957424851 0 -1.1147172506378871 1 I I 0 1 1.5 forward I I I I #
face $-1 $95 $96 $31 $-1 $97 forward single #
loop $-1 $98 $99 $39 #
cone-surface $-1 54.789150270215707 -11.886293408245979 4.4958849045578724 -0.74314483375859142 0 -0.66913059716165679 1.0036958957424851 0 -1.1147172506378871 1 I I 0 1 1.5 forward I I I I #
face $-1 $100 $101 $24 $-1 $102 reversed single #
loop $-1 $-1 $103 $40 #
plane-surface $-1 0 0 9.7910203729336303 0 0 1 1 0 0 forward_v I I I I #
coedge $-1 $104 $105 $106 $107 reversed $41 $-1 #
face $-1 $108 $109 $25 $-1 $110 reversed single #
loop $-1 $-1 $111 $43 #
plane-surface $-1 0 0 -9.7910203729336303 0 0 1 1 0 0 forward_v I I I I #
coedge $-1 $112 $113 $114 $115 forward $44 $-1 #
face $-1 $116 $117 $26 $-1 $118 reversed single #
loop $-1 $-1 $119 $46 #
plane-surface $-1 -59.923703726310023 -15.112197920757422 2.6905431220869929 -0.74314483375859142 0 0.66913059716165679 0.66913059716165679 0 0.74314483375859142 forward_v I I I I #
coedge $-1 $120 $121 $122 $123 reversed $47 $-1 #
face $-1 $-1 $124 $27 $-1 $125 forward single #
loop $-1 $126 $127 $49 #
cone-surface $-1 -52.293887325796405 -18.338102433268865 2.2491401137341747 0.74314483375859142 0 -0.66913059716165679 0.50184794787124254 0 0.55735862531894353 1 I I -0.70710678118654757 0.70710678118654757 0.75 forward I I I I #
loop $-1 $-1 $128 $35 #
coedge $-1 $80 $80 $129 $130 reversed $50 $-1 #
face $-1 $-1 $131 $28 $-1 $132 forward single #
loop $-1 $133 $134 $52 #
cone-surface $-1 -52.293887325796405 -11.886293408245979 2.2491401137341747 0.74314483375859142 0 -0.66913059716165679 0.50184794787124254 0 0.55735862531894353 1 I I -0.70710678118654757 0.70710678118654757 0.75 forward I I I I #
loop $-1 $-1 $135 $36 #
coedge $-1 $85 $85 $136 $137 reversed $53 $-1 #
face $-1 $138 $139 $29 $-1 $140 reversed single #
loop $-1 $-1 $141 $55 #
plane-surface $-1 -20.269863590738012 -15.112197920757422 91.754524809862431 0.74314483375859142 0 0.66913059716165679 0.66913059716165679 0 -0.74314483375859142 forward_v I I I I #
coedge $-1 $142 $143 $144 $145 reversed $56 $-1 #
face $-1 $-1 $146 $30 $-1 $147 forward single #
loop $-1 $148 $149 $58 #
cone-surface $-1 52.293887325796391 -18.338102433268865 2.2491401137341853 -0.74314483375859142 0 -0.66913059716165679 0.50184794787124254 0 -0.55735862531894353 1 I I -0.70710678118654757 0.70710678118654757 0.75 forward I I I I #
loop $-1 $-1 $150 $38 #
coedge $-1 $94 $94 $151 $152 reversed $59 $-1 #
face $-1 $-1 $153 $31 $-1 $154 forward single #
loop $-1 $155 $156 $61 #
cone-surface $-1 52.293887325796391 -11.886293408245979 2.2491401137341853 -0.74314483375859142 0 -0.66913059716165679 0.50184794787124254 0 -0.55735862531894353 1 I I -0.70710678118654757 0.70710678118654757 0.75 forward I I I I #
loop $-1 $-1 $157 $39 #
coedge $-1 $99 $99 $158 $159 reversed $62 $-1 #
face $-1 $160 $161 $24 $-1 $162 reversed single #
loop $-1 $-1 $163 $64 #
plane-surface $-1 0 0 -9.7910203729336303 0 0 1 1 0 0 forward_v I I I I #
coedge $-1 $164 $165 $166 $167 forward $65 $-1 #
coedge $-1 $168 $67 $169 $170 reversed $41 $-1 #
coedge $-1 $67 $168 $171 $172 forward $41 $-1 #
coedge $-1 $173 $163 $67 $107 forward $101 $-1 #
edge $-1 $174 -59.923703726310009 $175 59.923703726310009 $67 $176 forward 7 unknown #
face $-1 $177 $178 $25 $-1 $179 reversed single #
loop $-1 $-1 $180 $68 #
plane-surface $-1 -51.848476961239868 -36.726616729756714 0 0 1 0 0 0 1 forward_v I I I I #
coedge $-1 $181 $182 $113 $183 forward $69 $-1 #
coedge $-1 $184 $71 $185 $186 reversed $44 $-1 #
coedge $-1 $71 $184 $111 $183 reversed $44 $-1 #
coedge $-1 $187 $188 $71 $115 reversed $178 $-1 #
edge $-1 $189 -9.7910203729336303 $190 9.7910203729336303 $114 $191 forward 7 unknown #
face $-1 $192 $193 $26 $-1 $194 reversed single #
loop $-1 $-1 $195 $72 #
plane-surface $-1 -148.98768541408549 -7.5850873915640591 82.884110439135029 0 -1 0 0.74314483375859142 0 -0.66913059716165679 forward_v I I I I #
coedge $-1 $196 $197 $198 $199 reversed $73 $-1 #
coedge $-1 $121 $75 $200 $201 reversed $47 $-1 #
coedge $-1 $75 $120 $196 $202 reversed $47 $-1 #
coedge $-1 $198 $203 $75 $123 forward $204 $-1 #
edge $-1 $205 14.570138980732736 $206 20.963437254720546 $122 $207 forward 7 unknown #
loop $-1 $-1 $129 $76 #
plane-surface $-1 -59.923703726310023 -15.112197920757422 2.6905431220869929 -0.74314483375859142 0 0.66913059716165679 0.66913059716165679 0 0.74314483375859142 forward_v I I I I #
loop $-1 $-1 $208 $49 #
coedge $-1 $127 $127 $128 $209 reversed $77 $-1 #
coedge $-1 $128 $128 $127 $209 forward $79 $-1 #
coedge $-1 $129 $129 $80 $130 forward $124 $-1 #
edge $-1 $210 0 $210 6.2831853071796004 $129 $211 forward 7 unknown #
loop $-1 $-1 $136 $81 #
plane-surface $-1 -59.923703726310023 -15.112197920757422 2.6905431220869929 -0.74314483375859142 0 0.66913059716165679 0.66913059716165679 0 0.74314483375859142 forward_v I I I I #
loop $-1 $-1 $212 $52 #
coedge $-1 $134 $134 $135 $213 reversed $82 $-1 #
coedge $-1 $135 $135 $134 $213 forward $84 $-1 #
coedge $-1 $136 $136 $85 $137 forward $131 $-1 #
edge $-1 $214 0 $214 6.2831853071796004 $136 $215 forward 7 unknown #
face $-1 $216 $217 $29 $-1 $218 forward single #
loop $-1 $-1 $219 $86 #
plane-surface $-1 68.794118097037455 -22.639308449950786 171.94809212691047 0 1 0 0.74314483375859142 0 0.66913059716165679 forward_v I I I I #
coedge $-1 $220 $221 $222 $223 reversed $87 $-1 #
coedge $-1 $143 $89 $224 $225 reversed $56 $-1 #
coedge $-1 $89 $142 $220 $226 reversed $56 $-1 #
coedge $-1 $222 $227 $89 $145 forward $217 $-1 #
edge $-1 $228 -25.526644677791282 $229 -19.133346403803444 $144 $230 forward 7 unknown #
loop $-1 $-1 $151 $90 #
plane-surface $-1 -20.269863590738012 -15.112197920757422 91.754524809862431 0.74314483375859142 0 0.66913059716165679 0.66913059716165679 0 -0.74314483375859142 forward_v I I I I #
loop $-1 $-1 $231 $58 #
coedge $-1 $149 $149 $150 $232 reversed $91 $-1 #
coedge $-1 $150 $150 $149 $232 forward $93 $-1 #
coedge $-1 $151 $151 $94 $152 forward $146 $-1 #
edge $-1 $233 0 $233 6.2831853071796004 $151 $234 forward 7 unknown #
loop $-1 $-1 $158 $95 #
plane-surface $-1 -20.269863590738012 -15.112197920757422 91.754524809862431 0.74314483375859142 0 0.66913059716165679 0.66913059716165679 0 -0.74314483375859142 forward_v I I I I #
loop $-1 $-1 $235 $61 #
coedge $-1 $156 $156 $157 $236 reversed $96 $-1 #
coedge $-1 $157 $157 $156 $236 forward $98 $-1 #
coedge $-1 $158 $158 $99 $159 forward $153 $-1 #
edge $-1 $237 0 $237 6.2831853071796004 $158 $238 forward 7 unknown #
face $-1 $239 $240 $24 $-1 $241 reversed single #
loop $-1 $-1 $242 $100 #
plane-surface $-1 -59.923703726310009 0 0 1 0 0 0 0 -1 forward_v I I I I #
coedge $-1 $106 $243 $244 $245 forward $101 $-1 #
coedge $-1 $246 $103 $247 $248 forward $65 $-1 #
coedge $-1 $103 $246 $168 $249 forward $65 $-1 #
coedge $-1 $169 $250 $103 $167 reversed $251 $-1 #
edge $-1 $252 -29.682962589853748 $253 29.682962589853748 $166 $254 forward 7 unknown #
coedge $-1 $105 $104 $165 $249 reversed $41 $-1 #
coedge $-1 $244 $166 $104 $170 forward $251 $-1 #
edge $-1 $252 -9.7910203729336303 $174 9.7910203729336303 $169 $255 forward 7 unknown #
coedge $-1 $256 $257 $105 $172 reversed $161 $-1 #
edge $-1 $258 -9.7910203729336303 $175 9.7910203729336303 $171 $259 forward 7 unknown #
coedge $-1 $243 $106 $257 $260 forward $101 $-1 #
vertex $-1 $170 $261 #
vertex $-1 $260 $262 #
straight-curve $-1 0 -29.682962589853748 -9.7910203729336303 -1 0 0 I I #
face $-1 $263 $264 $25 $-1 $265 reversed single #
loop $-1 $-1 $114 $108 #
plane-surface $-1 -53.348476961239868 -33.204789659805229 0 1 0 0 0 0 -1 forward_v I I I I #
coedge $-1 $266 $267 $268 $269 forward $109 $-1 #
coedge $-1 $270 $111 $271 $272 forward $69 $-1 #
coedge $-1 $111 $270 $187 $273 forward $69 $-1 #
edge $-1 $189 -53.348476961239868 $274 -50.348476961239868 $111 $275 forward 7 unknown #
coedge $-1 $113 $112 $276 $277 forward $44 $-1 #
coedge $-1 $278 $279 $112 $186 forward $280 $-1 #
edge $-1 $281 50.348476961239868 $190 53.348476961239868 $185 $282 forward 7 unknown #
coedge $-1 $268 $114 $182 $273 reversed $178 $-1 #
coedge $-1 $114 $268 $278 $283 reversed $178 $-1 #
vertex $-1 $183 $284 #
vertex $-1 $283 $285 #
straight-curve $-1 -53.348476961239868 -29.682962589853748 0 0 0 1 I I #
face $-1 $-1 $204 $26 $-1 $286 forward single #
loop $-1 $-1 $287 $116 #
plane-surface $-1 -59.923703726310009 0 0 1 0 0 0 0 -1 forward_v I I I I #
coedge $-1 $288 $289 $290 $291 reversed $117 $-1 #
coedge $-1 $292 $119 $121 $202 forward $73 $-1 #
coedge $-1 $119 $292 $288 $293 forward $73 $-1 #
coedge $-1 $290 $122 $119 $199 forward $204 $-1 #
edge $-1 $206 -15.083209489572074 $294 -0.028988431185347885 $198 $295 forward 7 unknown #
coedge $-1 $296 $297 $120 $201 forward $193 $-1 #
edge $-1 $298 -38.751512097480507 $205 -31.651034846633884 $200 $299 forward 7 unknown #
edge $-1 $206 -9.5546344780931474 $298 -2.1389731374768986e-014 $121 $300 forward 7 unknown #
coedge $-1 $122 $290 $296 $301 forward $204 $-1 #
loop $-1 $-1 $290 $192 #
vertex $-1 $201 $302 #
vertex $-1 $123 $303 #
straight-curve $-1 -74.493842707042745 -22.639308449950786 9.7910203729336303 1 0 0 I I #
coedge $-1 $208 $208 $-1 $304 reversed $126 $-1 #
edge $-1 $305 0 $305 6.2831853071796004 $127 $306 forward 7 unknown #
vertex $-1 $130 $307 #
ellipse-curve $-1 -56.727054589316104 -18.338102433268865 6.2407817475103187 -0.74314483375859142 0 0.66913059716165679 1.0036958957424851 0 1.1147172506378871 1 I I #
coedge $-1 $212 $212 $-1 $308 reversed $133 $-1 #
edge $-1 $309 0 $309 6.2831853071796004 $134 $310 forward 7 unknown #
vertex $-1 $137 $311 #
ellipse-curve $-1 -56.727054589316104 -11.886293408245979 6.2407817475103187 -0.74314483375859142 0 0.66913059716165679 1.0036958957424851 0 1.1147172506378871 1 I I #
face $-1 $-1 $312 $29 $-1 $313 reversed single #
loop $-1 $-1 $144 $138 #
plane-surface $-1 0 0 9.7910203729336303 0 0 1 1 0 0 forward_v I I I I #
coedge $-1 $314 $315 $316 $317 reversed $139 $-1 #
coedge $-1 $318 $141 $143 $226 forward $87 $-1 #
coedge $-1 $141 $318 $314 $319 forward $87 $-1 #
coedge $-1 $316 $144 $141 $223 forward $217 $-1 #
edge $-1 $229 0.028988431185347885 $320 15.083209489572074 $222 $321 forward 7 unknown #
coedge $-1 $322 $323 $142 $225 forward $312 $-1 #
edge $-1 $324 -83.283502941368269 $228 -76.183025690521603 $224 $325 forward 7 unknown #
edge $-1 $229 110.29277297452683 $324 119.84740745261999 $143 $326 forward 7 unknown #
coedge $-1 $144 $316 $322 $327 forward $217 $-1 #
vertex $-1 $145 $328 #
vertex $-1 $145 $329 #
straight-curve $-1 34.397059048518727 -7.5850873915640591 9.7910203729336303 -1 0 0 I I #
coedge $-1 $231 $231 $-1 $330 reversed $148 $-1 #
edge $-1 $331 0 $331 6.2831853071796004 $149 $332 forward 7 unknown #
vertex $-1 $152 $333 #
ellipse-curve $-1 56.727054589316083 -18.338102433268865 6.2407817475103213 0.74314483375859142 0 0.66913059716165679 1.0036958957424851 0 -1.1147172506378871 1 I I #
coedge $-1 $235 $235 $-1 $334 reversed $155 $-1 #
edge $-1 $335 0 $335 6.2831853071796004 $156 $336 forward 7 unknown #
vertex $-1 $159 $337 #
ellipse-curve $-1 56.727054589316083 -11.886293408245979 6.2407817475103213 0.74314483375859142 0 0.66913059716165679 1.0036958957424851 0 -1.1147172506378871 1 I I #
face $-1 $-1 $251 $24 $-1 $338 reversed single #
loop $-1 $-1 $339 $160 #
plane-surface $-1 0 29.682962589853748 0 0 -1 0 0 0 -1 forward_v I I I I #
coedge $-1 $257 $256 $340 $341 forward $161 $-1 #
coedge $-1 $163 $173 $342 $343 forward $101 $-1 #
coedge $-1 $250 $169 $163 $245 reversed $251 $-1 #
edge $-1 $344 -29.682962589853748 $174 29.682962589853748 $244 $345 forward 7 unknown #
coedge $-1 $165 $164 $256 $346 forward $65 $-1 #
coedge $-1 $339 $340 $164 $248 reversed $240 $-1 #
edge $-1 $253 -59.923703726310009 $347 59.923703726310009 $247 $348 forward 7 unknown #
edge $-1 $258 -59.923703726310009 $252 59.923703726310009 $168 $349 forward 7 unknown #
coedge $-1 $166 $244 $339 $350 reversed $251 $-1 #
loop $-1 $-1 $169 $239 #
vertex $-1 $167 $351 #
vertex $-1 $167 $352 #
straight-curve $-1 59.923703726310009 0 9.7910203729336303 0 1 0 I I #
straight-curve $-1 59.923703726310009 -29.682962589853748 0 0 0 -1 I I #
coedge $-1 $242 $171 $246 $346 reversed $161 $-1 #
coedge $-1 $171 $242 $173 $260 reversed $161 $-1 #
vertex $-1 $346 $353 #
straight-curve $-1 -59.923703726310009 -29.682962589853748 0 0 0 -1 I I #
edge $-1 $175 -29.682962589853748 $354 29.682962589853748 $257 $355 forward 7 unknown #
point $-1 59.923703726310009 -29.682962589853748 -9.7910203729336303 #
point $-1 -59.923703726310009 -29.682962589853748 -9.7910203729336303 #
face $-1 $-1 $280 $25 $-1 $356 forward single #
loop $-1 $-1 $357 $177 #
plane-surface $-1 -50.348476961239868 -33.204789659805229 0 -1 0 0 0 0 1 forward_v I I I I #
coedge $-1 $358 $180 $270 $359 reversed $109 $-1 #
coedge $-1 $180 $358 $360 $361 reversed $109 $-1 #
coedge $-1 $188 $187 $180 $269 reversed $178 $-1 #
edge $-1 $362 -9.7910203729336303 $363 9.7910203729336303 $268 $364 forward 7 unknown #
coedge $-1 $182 $181 $266 $359 forward $69 $-1 #
coedge $-1 $276 $357 $181 $272 reversed $264 $-1 #
edge $-1 $274 -3.5218270699514811 $365 3.5218270699514846 $271 $366 forward 7 unknown #
edge $-1 $363 -3.5218270699514846 $189 3.5218270699514811 $187 $367 forward 7 unknown #
vertex $-1 $272 $368 #
straight-curve $-1 0 -29.682962589853748 -9.7910203729336303 1 0 0 I I #
coedge $-1 $369 $271 $184 $277 reversed $264 $-1 #
edge $-1 $281 -9.7910203729336303 $274 9.7910203729336303 $276 $370 forward 7 unknown #
coedge $-1 $360 $185 $188 $283 forward $280 $-1 #
coedge $-1 $185 $360 $369 $371 forward $280 $-1 #
loop $-1 $-1 $185 $263 #
vertex $-1 $186 $372 #
straight-curve $-1 0 -29.682962589853748 9.7910203729336303 -1 0 0 I I #
edge $-1 $190 -3.5218270699514811 $362 3.5218270699514846 $188 $373 forward 7 unknown #
point $-1 -53.348476961239868 -29.682962589853748 -9.7910203729336303 #
point $-1 -53.348476961239868 -29.682962589853748 9.7910203729336303 #
plane-surface $-1 0 0 9.7910203729336303 0 0 1 1 0 0 forward_v I I I I #
coedge $-1 $297 $296 $289 $374 forward $193 $-1 #
coedge $-1 $289 $195 $197 $293 reversed $117 $-1 #
coedge $-1 $195 $288 $287 $374 reversed $117 $-1 #
coedge $-1 $203 $198 $195 $291 forward $204 $-1 #
edge $-1 $294 -20.963437254720546 $375 -14.570138980732736 $290 $376 forward 7 unknown #
coedge $-1 $197 $196 $297 $377 reversed $73 $-1 #
edge $-1 $378 2.1389731374768986e-014 $294 9.5546344780931474 $288 $379 forward 7 unknown #
vertex $-1 $199 $380 #
straight-curve $-1 -53.530405452322199 -7.5560989603787112 9.7910203729336303 0 1 0 I I #
coedge $-1 $287 $200 $203 $301 reversed $193 $-1 #
coedge $-1 $200 $287 $292 $377 forward $193 $-1 #
vertex $-1 $201 $381 #
straight-curve $-1 -59.923703726310009 -22.639308449950786 41.442055219567514 0 0 1 I I #
straight-curve $-1 -59.923703726310023 -22.639308449950786 2.6905431220869929 -0.66913059716165679 0 -0.74314483375859142 I I #
edge $-1 $375 7.5850873915640591 $205 22.639308449950786 $296 $382 forward 7 unknown #
point $-1 -59.923703726310009 -22.639308449950786 9.7910203729336303 #
point $-1 -53.530405452322199 -22.639308449950786 9.7910203729336303 #
edge $-1 $383 1 $383 0 $208 $-1 forward 7 unknown #
vertex $-1 $209 $384 #
ellipse-curve $-1 -52.851245951115345 -18.338102433268865 2.7509880616054172 -0.74314483375859142 0 0.66913059716165679 1.0036958957424851 0 1.1147172506378871 1 I I #
point $-1 -55.723358693573608 -18.338102433268865 7.3554989981481951 #
edge $-1 $385 1 $385 0 $212 $-1 forward 7 unknown #
vertex $-1 $213 $386 #
ellipse-curve $-1 -52.851245951115345 -11.886293408245979 2.7509880616054172 -0.74314483375859142 0 0.66913059716165679 1.0036958957424851 0 1.1147172506378871 1 I I #
point $-1 -55.723358693573608 -11.886293408245979 7.3554989981481951 #
loop $-1 $-1 $224 $216 #
plane-surface $-1 59.923703726310009 0 0 -1 0 0 0 0 1 forward_v I I I I #
coedge $-1 $315 $219 $221 $319 reversed $139 $-1 #
coedge $-1 $219 $314 $387 $388 reversed $139 $-1 #
coedge $-1 $227 $222 $219 $317 forward $217 $-1 #
edge $-1 $320 19.133346403803444 $389 25.526644677791282 $316 $390 forward 7 unknown #
coedge $-1 $221 $220 $323 $391 reversed $87 $-1 #
edge $-1 $392 -119.84740745261999 $320 -110.29277297452683 $314 $393 forward 7 unknown #
vertex $-1 $223 $394 #
straight-curve $-1 53.530405452322157 -7.5560989603787112 9.7910203729336303 0 -1 0 I I #
coedge $-1 $387 $224 $227 $327 reversed $312 $-1 #
coedge $-1 $224 $387 $318 $391 forward $312 $-1 #
vertex $-1 $225 $395 #
straight-curve $-1 59.923703726310009 -7.5850873915640591 85.974046063455233 0 0 1 I I #
straight-curve $-1 -20.269863590738012 -7.5850873915640591 91.754524809862431 0.66913059716165679 0 -0.74314483375859142 I I #
edge $-1 $389 -22.639308449950786 $228 -7.5850873915640591 $322 $396 forward 7 unknown #
point $-1 59.923703726310009 -7.5850873915640591 9.7910203729336303 #
point $-1 53.530405452322171 -7.5850873915640591 9.7910203729336303 #
edge $-1 $397 1 $397 0 $231 $-1 forward 7 unknown #
vertex $-1 $232 $398 #
ellipse-curve $-1 52.851245951115331 -18.338102433268865 2.7509880616054279 0.74314483375859142 0 0.66913059716165679 1.0036958957424851 0 -1.1147172506378871 1 I I #
point $-1 57.730750485058564 -18.338102433268865 5.1260644968724316 #
edge $-1 $399 1 $399 0 $235 $-1 forward 7 unknown #
vertex $-1 $236 $400 #
ellipse-curve $-1 52.851245951115331 -11.886293408245979 2.7509880616054279 0.74314483375859142 0 0.66913059716165679 1.0036958957424851 0 -1.1147172506378871 1 I I #
point $-1 57.730750485058564 -11.886293408245979 5.1260644968724316 #
plane-surface $-1 59.923703726310009 0 0 -1 0 0 0 0 1 forward_v I I I I #
coedge $-1 $342 $247 $250 $350 forward $240 $-1 #
coedge $-1 $247 $342 $242 $341 reversed $240 $-1 #
edge $-1 $347 -9.7910203729336303 $354 9.7910203729336303 $340 $401 forward 7 unknown #
coedge $-1 $340 $339 $243 $343 reversed $240 $-1 #
edge $-1 $354 -59.923703726310009 $344 59.923703726310009 $342 $402 forward 7 unknown #
vertex $-1 $245 $403 #
straight-curve $-1 59.923703726310009 0 -9.7910203729336303 0 -1 0 I I #
edge $-1 $347 -29.682962589853748 $258 29.682962589853748 $256 $404 forward 7 unknown #
vertex $-1 $248 $405 #
straight-curve $-1 0 29.682962589853748 9.7910203729336303 -1 0 0 I I #
straight-curve $-1 0 -29.682962589853748 9.7910203729336303 1 0 0 I I #
edge $-1 $253 -9.7910203729336303 $344 9.7910203729336303 $250 $406 forward 7 unknown #
point $-1 59.923703726310009 -29.682962589853748 9.7910203729336303 #
point $-1 59.923703726310009 29.682962589853748 9.7910203729336303 #
point $-1 -59.923703726310009 -29.682962589853748 9.7910203729336303 #
vertex $-1 $343 $407 #
straight-curve $-1 -59.923703726310009 0 -9.7910203729336303 0 1 0 I I #
plane-surface $-1 0 0 9.7910203729336303 0 0 1 1 0 0 forward_v I I I I #
coedge $-1 $271 $369 $358 $408 forward $264 $-1 #
coedge $-1 $267 $266 $357 $408 reversed $109 $-1 #
edge $-1 $365 -1.5 $363 1.5 $266 $409 forward 7 unknown #
coedge $-1 $279 $278 $267 $361 forward $280 $-1 #
edge $-1 $362 -1.5 $410 1.5 $267 $411 forward 7 unknown #
vertex $-1 $283 $412 #
vertex $-1 $273 $413 #
straight-curve $-1 -53.348476961239868 -36.726616729756714 0 0 0 -1 I I #
vertex $-1 $408 $414 #
straight-curve $-1 -50.348476961239868 -33.204789659805229 -9.7910203729336303 0 -1 0 I I #
straight-curve $-1 -53.348476961239868 -33.204789659805229 -9.7910203729336303 0 1 0 I I #
point $-1 -50.348476961239868 -29.682962589853748 -9.7910203729336303 #
coedge $-1 $357 $276 $279 $371 reversed $264 $-1 #
straight-curve $-1 -50.348476961239868 -29.682962589853748 0 0 0 -1 I I #
edge $-1 $410 -3.5218270699514846 $281 3.5218270699514811 $369 $415 forward 7 unknown #
point $-1 -50.348476961239868 -29.682962589853748 9.7910203729336303 #
straight-curve $-1 -53.348476961239868 -33.204789659805229 9.7910203729336303 0 -1 0 I I #
edge $-1 $375 31.651034846633884 $378 38.751512097480507 $287 $416 forward 7 unknown #
vertex $-1 $301 $417 #
straight-curve $-1 -74.493842707042745 -7.5850873915640591 9.7910203729336303 -1 0 0 I I #
edge $-1 $378 0.028988431185347885 $298 15.083209489572074 $297 $418 forward 7 unknown #
vertex $-1 $377 $419 #
straight-curve $-1 -59.923703726310023 -7.5850873915640591 2.6905431220869929 0.66913059716165679 0 0.74314483375859142 I I #
point $-1 -53.530405452322199 -7.5850873915640591 9.7910203729336303 #
point $-1 -59.923703726310009 -22.639308449950786 2.6905431220870089 #
straight-curve $-1 -59.923703726310009 0 9.7910203729336303 0 -1 0 I I #
vertex $-1 $304 $420 #
point $-1 -51.847550055372864 -18.338102433268865 3.8657053122433043 #
vertex $-1 $308 $421 #
point $-1 -51.847550055372864 -11.886293408245979 3.8657053122433043 #
coedge $-1 $323 $322 $315 $388 forward $312 $-1 #
edge $-1 $389 76.183025690521603 $392 83.283502941368269 $387 $422 forward 7 unknown #
vertex $-1 $327 $423 #
straight-curve $-1 34.397059048518727 -22.639308449950786 9.7910203729336303 1 0 0 I I #
edge $-1 $392 -15.083209489572074 $324 -0.028988431185347885 $323 $424 forward 7 unknown #
vertex $-1 $391 $425 #
straight-curve $-1 -20.269863590738012 -22.639308449950786 91.754524809862431 -0.66913059716165679 0 0.74314483375859142 I I #
point $-1 53.530405452322171 -22.639308449950786 9.7910203729336303 #
point $-1 59.923703726310009 -7.5850873915640591 2.6905431220869644 #
straight-curve $-1 59.923703726310009 0 9.7910203729336303 0 1 0 I I #
vertex $-1 $330 $426 #
point $-1 53.85494184685782 -18.338102433268865 1.6362708109675408 #
vertex $-1 $334 $427 #
point $-1 53.85494184685782 -11.886293408245979 1.6362708109675408 #
straight-curve $-1 -59.923703726310009 29.682962589853748 0 0 0 -1 I I #
straight-curve $-1 0 29.682962589853748 -9.7910203729336303 1 0 0 I I #
point $-1 59.923703726310009 29.682962589853748 -9.7910203729336303 #
straight-curve $-1 -59.923703726310009 0 9.7910203729336303 0 -1 0 I I #
point $-1 -59.923703726310009 29.682962589853748 9.7910203729336303 #
straight-curve $-1 59.923703726310009 29.682962589853748 0 0 0 -1 I I #
point $-1 -59.923703726310009 29.682962589853748 -9.7910203729336303 #
edge $-1 $410 -9.7910203729336303 $365 9.7910203729336303 $357 $428 forward 7 unknown #
straight-curve $-1 -51.848476961239868 -36.726616729756714 -9.7910203729336303 -1 0 0 I I #
vertex $-1 $371 $429 #
straight-curve $-1 -51.848476961239868 -36.726616729756714 9.7910203729336303 1 0 0 I I #
point $-1 -53.348476961239868 -36.726616729756714 9.7910203729336303 #
point $-1 -53.348476961239868 -36.726616729756714 -9.7910203729336303 #
point $-1 -50.348476961239868 -36.726616729756714 -9.7910203729336303 #
straight-curve $-1 -50.348476961239868 -33.204789659805229 9.7910203729336303 0 1 0 I I #
straight-curve $-1 -59.923703726310009 -7.5850873915640591 41.442055219567514 0 0 -1 I I #
point $-1 -59.923703726310009 -7.5850873915640591 9.7910203729336303 #
straight-curve $-1 -59.923703726310009 -7.5560989603787112 2.6905431220870049 0 -1 0 I I #
point $-1 -59.923703726310009 -7.5850873915640591 2.6905431220870089 #
point $-1 -51.736528700477464 -18.338102433268865 1.7472921658629321 #
point $-1 -51.736528700477464 -11.886293408245979 1.7472921658629321 #
straight-curve $-1 59.923703726310009 -22.639308449950786 85.974046063455233 0 0 -1 I I #
point $-1 59.923703726310009 -22.639308449950786 9.7910203729336303 #
straight-curve $-1 59.923703726310016 -7.5560989603787112 2.6905431220869644 0 1 0 I I #
point $-1 59.923703726310009 -22.639308449950786 2.6905431220869644 #
point $-1 51.73652870047745 -18.338102433268865 1.7472921658629428 #
point $-1 51.73652870047745 -11.886293408245979 1.7472921658629428 #
straight-curve $-1 -50.348476961239868 -36.726616729756714 0 0 0 -1 I I #
point $-1 -50.348476961239868 -36.726616729756714 9.7910203729336303 #
End-of-ACIS-data 