600 0 7 0           
109 GICL ACIS Healer - Source: /gicl/data5/repository/Drexel/CICIRELLO-THESISDATA/Part10000.smdg.deltas.sat - 6 0 18 ACIS 6.0.3 Solaris 24 Fri Apr 12 10:11:43 2002 
1 9.999999999999999547e-07 1.000000000000000036e-10 
body $-1 $7 $-1 $-1 #
body $-1 $8 $-1 $-1 #
body $-1 $9 $-1 $-1 #
body $-1 $10 $-1 $-1 #
body $-1 $11 $-1 $-1 #
body $-1 $12 $-1 $-1 #
body $-1 $13 $-1 $-1 #
lump $-1 $-1 $14 $0 #
lump $-1 $-1 $15 $1 #
lump $-1 $-1 $16 $2 #
lump $-1 $-1 $17 $3 #
lump $-1 $-1 $18 $4 #
lump $-1 $-1 $19 $5 #
lump $-1 $-1 $20 $6 #
shell $-1 $-1 $-1 $21 $-1 $7 #
shell $-1 $-1 $-1 $22 $-1 $8 #
shell $-1 $-1 $-1 $23 $-1 $9 #
shell $-1 $-1 $-1 $24 $-1 $10 #
shell $-1 $-1 $-1 $25 $-1 $11 #
shell $-1 $-1 $-1 $26 $-1 $12 #
shell $-1 $-1 $-1 $27 $-1 $13 #
face $-1 $28 $29 $14 $-1 $30 forward single #
face $-1 $31 $32 $15 $-1 $33 reversed single #
face $-1 $34 $35 $16 $-1 $36 forward single #
face $-1 $37 $38 $17 $-1 $39 forward single #
face $-1 $40 $41 $18 $-1 $42 forward single #
face $-1 $43 $44 $19 $-1 $45 reversed single #
face $-1 $46 $47 $20 $-1 $48 forward single #
face $-1 $49 $50 $14 $-1 $51 reversed single #
loop $-1 $-1 $52 $21 #
plane-surface $-1 53.66252632221442553 28.19743276644157959 25.99478531904072298 0 0 1 1 0 0 forward_v I I I I #
face $-1 $53 $54 $15 $-1 $55 reversed single #
loop $-1 $-1 $56 $22 #
plane-surface $-1 87.9660465628649888 -91.0168074155068183 75.07640955087609314 -1 0 0 0 -0.8480481040810504689 0.529919251551154491 forward_v I I I I #
face $-1 $57 $58 $16 $-1 $59 forward single #
loop $-1 $60 $61 $23 #
cone-surface $-1 64.57942398876808454 3.163417004346889883 21.64330561947939913 0 0.8480481040810504689 -0.529919251551154491 1 0 0 1 I I 0 1 1 forward I I I I #
face $-1 $62 $63 $17 $-1 $64 forward single #
loop $-1 $65 $66 $24 #
cone-surface $-1 73.34940745405442897 3.163417004346889883 21.64330561947939913 0 0.8480481040810504689 -0.529919251551154491 1 0 0 1 I I 0 1 1 forward I I I I #
face $-1 $67 $68 $18 $-1 $69 forward single #
loop $-1 $70 $71 $25 #
cone-surface $-1 82.11939091934077339 3.163417004346889883 21.64330561947939913 0 0.8480481040810504689 -0.529919251551154491 1 0 0 1 I I 0 1 1 forward I I I I #
face $-1 $72 $73 $19 $-1 $74 reversed single #
loop $-1 $-1 $75 $26 #
plane-surface $-1 92.4399944534865341 100.3957516672857935 131.8784654553101063 1 0 0 0 -0.754709588511349283 -0.6560590194555896426 forward_v I I I I #
face $-1 $76 $77 $20 $-1 $78 forward single #
loop $-1 $79 $80 $27 #
cone-surface $-1 99.88252354895769258 52.26475124125307303 21.53838904532329934 0 -0.754709588511349394 -0.6560590194555897536 2 0 0 1 I I 0 1 2 forward I I I I #
face $-1 $81 $82 $14 $-1 $83 reversed single #
loop $-1 $-1 $84 $28 #
plane-surface $-1 53.66252632221442553 28.19743276644157959 0 0 0 1 1 0 0 forward_v I I I I #
coedge $-1 $85 $86 $87 $88 forward $29 $-1 #
face $-1 $89 $90 $15 $-1 $91 reversed single #
loop $-1 $-1 $92 $31 #
plane-surface $-1 73.34940745405442897 0 18.20279798085210743 0 -0.8480481040810504689 0.529919251551154491 1 0 0 forward_v I I I I #
coedge $-1 $93 $94 $95 $96 reversed $32 $-1 #
face $-1 $-1 $97 $16 $-1 $98 forward single #
loop $-1 $99 $100 $34 #
cone-surface $-1 64.57942398876808454 4.316371102695917727 20.92285996323681019 0 0.8480481040810504689 -0.529919251551154491 0.5 0 0 1 I I -0.7071067811865474617 0.7071067811865474617 0.5 forward I I I I #
loop $-1 $-1 $101 $23 #
coedge $-1 $61 $61 $102 $103 reversed $35 $-1 #
face $-1 $-1 $104 $17 $-1 $105 forward single #
loop $-1 $106 $107 $37 #
cone-surface $-1 73.34940745405442897 4.316371102695917727 20.92285996323681019 0 0.8480481040810504689 -0.529919251551154491 0.5 0 0 1 I I -0.7071067811865474617 0.7071067811865474617 0.5 forward I I I I #
loop $-1 $-1 $108 $24 #
coedge $-1 $66 $66 $109 $110 reversed $38 $-1 #
face $-1 $-1 $111 $18 $-1 $112 forward single #
loop $-1 $113 $114 $40 #
cone-surface $-1 82.11939091934077339 4.316371102695917727 20.92285996323681019 0 0.8480481040810504689 -0.529919251551154491 0.5 0 0 1 I I -0.7071067811865474617 0.7071067811865474617 0.5 forward I I I I #
loop $-1 $-1 $115 $25 #
coedge $-1 $71 $71 $116 $117 reversed $41 $-1 #
face $-1 $118 $119 $19 $-1 $120 forward single #
loop $-1 $-1 $121 $43 #
plane-surface $-1 99.88252354895769258 19.39650534905000256 61.46689665438657357 0 0.754709588511349394 0.6560590194555897536 1 0 0 forward_v I I I I #
coedge $-1 $122 $123 $124 $125 reversed $44 $-1 #
face $-1 $-1 $126 $20 $-1 $127 forward single #
loop $-1 $128 $129 $46 #
cone-surface $-1 99.88252354895769258 50.4613898733498587 19.97075096471491662 0 -0.754709588511349394 -0.6560590194555897536 1 0 0 1 I I -0.7071067811865474617 0.7071067811865474617 1 forward I I I I #
loop $-1 $-1 $130 $27 #
coedge $-1 $80 $80 $131 $132 reversed $47 $-1 #
face $-1 $133 $134 $14 $-1 $135 reversed single #
loop $-1 $-1 $136 $49 #
plane-surface $-1 53.66252632221442553 0 12.99739265952036149 0 1 0 0 0 1 forward_v I I I I #
coedge $-1 $137 $138 $139 $140 forward $50 $-1 #
coedge $-1 $141 $52 $142 $143 forward $29 $-1 #
coedge $-1 $52 $141 $144 $145 forward $29 $-1 #
coedge $-1 $146 $147 $52 $88 reversed $148 $-1 #
edge $-1 $149 -28.19743276644157959 $150 28.19743276644157959 $87 $151 forward 7 unknown #
face $-1 $152 $153 $15 $-1 $154 reversed single #
loop $-1 $-1 $155 $53 #
plane-surface $-1 58.73276834524385492 -91.0168074155068183 75.07640955087609314 1 0 0 0 0.8480481040810504689 -0.529919251551154491 forward_v I I I I #
coedge $-1 $156 $157 $158 $159 reversed $54 $-1 #
coedge $-1 $94 $56 $160 $161 reversed $32 $-1 #
coedge $-1 $56 $93 $156 $162 reversed $32 $-1 #
coedge $-1 $158 $163 $56 $96 forward $164 $-1 #
edge $-1 $165 31.40968732453261936 $166 36.27866124060938091 $95 $167 forward 7 unknown #
loop $-1 $-1 $102 $57 #
plane-surface $-1 73.34940745405442897 0 18.20279798085210743 0 -0.8480481040810504689 0.529919251551154491 1 0 0 forward_v I I I I #
loop $-1 $-1 $168 $34 #
coedge $-1 $100 $100 $101 $169 reversed $58 $-1 #
coedge $-1 $101 $101 $100 $169 forward $60 $-1 #
coedge $-1 $102 $102 $61 $103 forward $97 $-1 #
edge $-1 $170 -2.260441452008137179e-15 $170 6.283185307179583567 $102 $171 forward 7 unknown #
loop $-1 $-1 $109 $62 #
plane-surface $-1 73.34940745405442897 0 18.20279798085210743 0 -0.8480481040810504689 0.529919251551154491 1 0 0 forward_v I I I I #
loop $-1 $-1 $172 $37 #
coedge $-1 $107 $107 $108 $173 reversed $63 $-1 #
coedge $-1 $108 $108 $107 $173 forward $65 $-1 #
coedge $-1 $109 $109 $66 $110 forward $104 $-1 #
edge $-1 $174 -2.260441452008137179e-15 $174 6.283185307179583567 $109 $175 forward 7 unknown #
loop $-1 $-1 $116 $67 #
plane-surface $-1 73.34940745405442897 0 18.20279798085210743 0 -0.8480481040810504689 0.529919251551154491 1 0 0 forward_v I I I I #
loop $-1 $-1 $176 $40 #
coedge $-1 $114 $114 $115 $177 reversed $68 $-1 #
coedge $-1 $115 $115 $114 $177 forward $70 $-1 #
coedge $-1 $116 $116 $71 $117 forward $111 $-1 #
edge $-1 $178 -2.260441452008137179e-15 $178 6.283185307179583567 $116 $179 forward 7 unknown #
face $-1 $180 $181 $19 $-1 $182 reversed single #
loop $-1 $-1 $124 $72 #
plane-surface $-1 53.66252632221442553 28.19743276644157959 25.99478531904072298 0 0 1 1 0 0 forward_v I I I I #
coedge $-1 $183 $184 $185 $186 reversed $73 $-1 #
coedge $-1 $123 $75 $187 $188 reversed $44 $-1 #
coedge $-1 $75 $122 $183 $189 reversed $44 $-1 #
coedge $-1 $185 $190 $75 $125 forward $119 $-1 #
edge $-1 $191 7.901726683980527355 $192 14.06465170845694956 $124 $193 forward 7 unknown #
loop $-1 $-1 $131 $76 #
plane-surface $-1 99.88252354895769258 19.39650534905000256 61.46689665438657357 0 0.754709588511349394 0.6560590194555897536 1 0 0 forward_v I I I I #
loop $-1 $-1 $194 $46 #
coedge $-1 $129 $129 $130 $195 reversed $77 $-1 #
coedge $-1 $130 $130 $129 $195 forward $79 $-1 #
coedge $-1 $131 $131 $80 $132 forward $126 $-1 #
edge $-1 $196 0 $196 6.283185307179586232 $131 $197 forward 7 unknown #
face $-1 $198 $199 $14 $-1 $200 reversed single #
loop $-1 $-1 $201 $81 #
plane-surface $-1 0 28.19743276644157959 12.99739265952036149 1 0 0 0 0 -1 forward_v I I I I #
coedge $-1 $202 $144 $203 $204 forward $82 $-1 #
coedge $-1 $205 $84 $202 $206 forward $50 $-1 #
coedge $-1 $84 $205 $207 $208 forward $50 $-1 #
coedge $-1 $147 $146 $84 $140 reversed $148 $-1 #
edge $-1 $209 -28.19743276644157959 $210 28.19743276644157959 $139 $211 forward 7 unknown #
coedge $-1 $86 $85 $212 $213 forward $29 $-1 #
coedge $-1 $214 $215 $85 $143 reversed $199 $-1 #
edge $-1 $150 -53.66252632221442553 $216 53.66252632221442553 $142 $217 forward 7 unknown #
coedge $-1 $136 $218 $86 $145 reversed $82 $-1 #
edge $-1 $219 -53.66252632221442553 $149 53.66252632221442553 $144 $220 forward 7 unknown #
coedge $-1 $139 $87 $218 $221 forward $148 $-1 #
coedge $-1 $87 $139 $214 $222 reversed $148 $-1 #
loop $-1 $-1 $146 $198 #
vertex $-1 $88 $223 #
vertex $-1 $88 $224 #
straight-curve $-1 107.3250526444288511 28.19743276644157959 25.99478531904072298 0 1 0 I I #
face $-1 $-1 $164 $15 $-1 $225 forward single #
loop $-1 $-1 $226 $89 #
plane-surface $-1 53.66252632221442553 0 12.99739265952036149 0 1 0 0 0 1 forward_v I I I I #
coedge $-1 $227 $228 $229 $230 reversed $90 $-1 #
coedge $-1 $231 $92 $94 $162 forward $54 $-1 #
coedge $-1 $92 $231 $227 $232 forward $54 $-1 #
coedge $-1 $229 $95 $92 $159 forward $164 $-1 #
edge $-1 $166 -24.4600796747305651 $233 4.773198542890568774 $158 $234 forward 7 unknown #
coedge $-1 $235 $236 $93 $161 forward $153 $-1 #
edge $-1 $237 -25.83410312434611811 $165 -18.04211578615750255 $160 $238 forward 7 unknown #
edge $-1 $166 -9.188143102603897105 $237 0 $94 $239 forward 7 unknown #
coedge $-1 $95 $229 $235 $240 forward $164 $-1 #
loop $-1 $-1 $229 $152 #
vertex $-1 $161 $241 #
vertex $-1 $96 $242 #
straight-curve $-1 87.9660465628649888 -31.40968732453261936 25.99478531904072298 0 1 0 I I #
coedge $-1 $168 $168 $-1 $243 reversed $99 $-1 #
edge $-1 $244 0 $244 6.283185307179586232 $100 $245 forward 7 unknown #
vertex $-1 $103 $246 #
ellipse-curve $-1 64.57942398876808454 2.434486958038377225 22.09879164994641343 0 -0.8480481040810504689 0.529919251551154491 1 0 0 1 I I #
coedge $-1 $172 $172 $-1 $247 reversed $106 $-1 #
edge $-1 $248 0 $248 6.283185307179586232 $107 $249 forward 7 unknown #
vertex $-1 $110 $250 #
ellipse-curve $-1 73.34940745405442897 2.434486958038377225 22.09879164994641343 0 -0.8480481040810504689 0.529919251551154491 1 0 0 1 I I #
coedge $-1 $176 $176 $-1 $251 reversed $113 $-1 #
edge $-1 $252 0 $252 6.283185307179586232 $114 $253 forward 7 unknown #
vertex $-1 $117 $254 #
ellipse-curve $-1 82.11939091934077339 2.434486958038377225 22.09879164994641343 0 -0.8480481040810504689 0.529919251551154491 1 0 0 1 I I #
face $-1 $-1 $255 $19 $-1 $256 reversed single #
loop $-1 $-1 $187 $118 #
plane-surface $-1 53.66252632221442553 56.39486553288315918 12.99739265952036149 0 -1 0 0 0 -1 forward_v I I I I #
coedge $-1 $257 $121 $123 $189 forward $73 $-1 #
coedge $-1 $121 $257 $258 $259 reversed $73 $-1 #
coedge $-1 $260 $124 $121 $186 forward $119 $-1 #
edge $-1 $192 15.66746951790047149 $261 30.55252770884278846 $185 $262 forward 7 unknown #
coedge $-1 $263 $264 $122 $188 forward $181 $-1 #
edge $-1 $265 -53.53277816350377805 $191 -46.44314373837450916 $187 $266 forward 7 unknown #
edge $-1 $192 47.00100790466164824 $265 56.39486553288316628 $123 $267 forward 7 unknown #
coedge $-1 $124 $260 $263 $268 forward $119 $-1 #
vertex $-1 $188 $269 #
vertex $-1 $125 $270 #
straight-curve $-1 92.4399944534865341 64.29659221686368653 25.99478531904071943 0 -1 0 I I #
coedge $-1 $194 $194 $-1 $271 reversed $128 $-1 #
edge $-1 $272 0 $272 6.283185307179586232 $129 $273 forward 7 unknown #
vertex $-1 $132 $274 #
ellipse-curve $-1 99.88252354895769258 53.31340302064494097 22.44996810647609209 0 0.754709588511349394 0.6560590194555897536 2 0 0 1 I I #
face $-1 $-1 $148 $14 $-1 $275 reversed single #
loop $-1 $-1 $214 $133 #
plane-surface $-1 53.66252632221442553 56.39486553288315918 12.99739265952036149 0 -1 0 0 0 -1 forward_v I I I I #
coedge $-1 $276 $212 $215 $277 forward $134 $-1 #
coedge $-1 $218 $136 $137 $206 reversed $82 $-1 #
coedge $-1 $212 $276 $136 $204 reversed $134 $-1 #
edge $-1 $219 -12.99739265952036149 $278 12.99739265952036149 $203 $279 forward 7 unknown #
coedge $-1 $138 $137 $276 $280 forward $50 $-1 #
edge $-1 $210 -53.66252632221442553 $278 53.66252632221442553 $202 $281 forward 7 unknown #
coedge $-1 $215 $214 $138 $208 reversed $199 $-1 #
edge $-1 $282 -53.66252632221442553 $209 53.66252632221442553 $207 $283 forward 7 unknown #
vertex $-1 $140 $284 #
vertex $-1 $221 $285 #
straight-curve $-1 107.3250526444288511 28.19743276644157959 0 0 -1 0 I I #
coedge $-1 $201 $203 $141 $213 reversed $134 $-1 #
edge $-1 $216 -28.19743276644157959 $219 28.19743276644157959 $212 $286 forward 7 unknown #
coedge $-1 $207 $142 $147 $222 forward $199 $-1 #
coedge $-1 $142 $207 $201 $277 reversed $199 $-1 #
vertex $-1 $143 $287 #
straight-curve $-1 53.66252632221442553 56.39486553288315918 25.99478531904072298 -1 0 0 I I #
coedge $-1 $144 $202 $146 $221 reversed $82 $-1 #
vertex $-1 $213 $288 #
straight-curve $-1 53.66252632221442553 0 25.99478531904072298 1 0 0 I I #
edge $-1 $149 -12.99739265952036149 $210 12.99739265952036149 $146 $289 forward 7 unknown #
edge $-1 $150 -12.99739265952036149 $209 12.99739265952036149 $147 $290 forward 7 unknown #
point $-1 107.3250526444288511 0 25.99478531904072298 #
point $-1 107.3250526444288511 56.39486553288315918 25.99478531904072298 #
plane-surface $-1 53.66252632221442553 28.19743276644157959 25.99478531904072298 0 0 1 1 0 0 forward_v I I I I #
coedge $-1 $236 $235 $228 $291 forward $153 $-1 #
coedge $-1 $228 $155 $157 $232 reversed $90 $-1 #
coedge $-1 $155 $227 $226 $291 reversed $90 $-1 #
coedge $-1 $163 $158 $155 $230 forward $164 $-1 #
edge $-1 $233 -36.27866124060938091 $292 -31.40968732453261936 $229 $293 forward 7 unknown #
coedge $-1 $157 $156 $236 $294 reversed $54 $-1 #
edge $-1 $295 0 $233 9.188143102603897105 $227 $296 forward 7 unknown #
vertex $-1 $159 $297 #
straight-curve $-1 63.5059668881344237 4.868973916076761554 25.99478531904072298 -1 0 0 I I #
coedge $-1 $226 $160 $163 $240 reversed $153 $-1 #
coedge $-1 $160 $226 $231 $294 forward $153 $-1 #
vertex $-1 $161 $298 #
straight-curve $-1 87.9660465628649888 0 44.03690110519822554 0 0 1 I I #
straight-curve $-1 87.9660465628649888 0 18.20279798085210743 0 -0.529919251551154491 -0.8480481040810504689 I I #
edge $-1 $292 5.07024202302942939 $165 34.30352024065056327 $235 $299 forward 7 unknown #
point $-1 87.9660465628649888 0 25.99478531904072298 #
point $-1 87.9660465628649888 4.868973916076761554 25.99478531904072298 #
edge $-1 $300 1 $300 0 $168 $-1 forward 7 unknown #
vertex $-1 $169 $301 #
ellipse-curve $-1 64.57942398876808454 3.892347050655391882 21.18781958901238482 0 -0.8480481040810504689 0.529919251551154491 1 0 0 1 I I #
point $-1 65.57942398876808454 2.43448695803838433 22.09879164994640632 #
edge $-1 $302 1 $302 0 $172 $-1 forward 7 unknown #
vertex $-1 $173 $303 #
ellipse-curve $-1 73.34940745405442897 3.892347050655391882 21.18781958901238482 0 -0.8480481040810504689 0.529919251551154491 1 0 0 1 I I #
point $-1 74.34940745405442897 2.43448695803838433 22.09879164994640632 #
edge $-1 $304 1 $304 0 $176 $-1 forward 7 unknown #
vertex $-1 $177 $305 #
ellipse-curve $-1 82.11939091934077339 3.892347050655391882 21.18781958901238482 0 -0.8480481040810504689 0.529919251551154491 1 0 0 1 I I #
point $-1 83.11939091934077339 2.43448695803838433 22.09879164994640632 #
loop $-1 $-1 $258 $180 #
plane-surface $-1 107.3250526444288511 28.19743276644157959 12.99739265952036149 -1 0 0 0 0 1 forward_v I I I I #
coedge $-1 $184 $183 $264 $306 reversed $73 $-1 #
coedge $-1 $307 $308 $184 $259 forward $255 $-1 #
edge $-1 $261 25.82384429112743263 $309 35.21770191934895422 $258 $310 forward 7 unknown #
coedge $-1 $190 $185 $308 $311 forward $119 $-1 #
vertex $-1 $311 $312 #
straight-curve $-1 76.77252493558606261 50.23194050840672276 25.99478531904072298 1 0 0 I I #
coedge $-1 $313 $187 $190 $268 reversed $181 $-1 #
coedge $-1 $187 $313 $257 $306 forward $181 $-1 #
vertex $-1 $188 $314 #
straight-curve $-1 92.4399944534865341 56.39486553288315918 72.43792905741523214 0 0 1 I I #
straight-curve $-1 92.4399944534865341 19.39650534905000256 61.46689665438657357 0 0.6560590194555896426 -0.754709588511349283 I I #
edge $-1 $315 -53.66252632221442553 $191 -38.77746813127210856 $263 $316 forward 7 unknown #
point $-1 92.4399944534865341 56.39486553288315918 25.99478531904072298 #
point $-1 92.4399944534865341 50.23194050840673697 25.99478531904071943 #
edge $-1 $317 1 $317 0 $194 $-1 forward 7 unknown #
vertex $-1 $195 $318 #
ellipse-curve $-1 99.88252354895769258 51.2160994618612051 20.6268099841705066 0 0.754709588511349394 0.6560590194555897536 2 0 0 1 I I #
point $-1 101.8825235489576926 53.31340302064494097 22.44996810647609209 #
plane-surface $-1 107.3250526444288511 28.19743276644157959 12.99739265952036149 -1 0 0 0 0 1 forward_v I I I I #
coedge $-1 $203 $201 $205 $280 reversed $134 $-1 #
edge $-1 $216 -12.99739265952036149 $282 12.99739265952036149 $215 $319 forward 7 unknown #
vertex $-1 $280 $320 #
straight-curve $-1 0 0 12.99739265952036149 0 0 -1 I I #
edge $-1 $278 -28.19743276644157959 $282 28.19743276644157959 $276 $321 forward 7 unknown #
straight-curve $-1 53.66252632221442553 0 0 -1 0 0 I I #
vertex $-1 $208 $322 #
straight-curve $-1 53.66252632221442553 56.39486553288315918 0 1 0 0 I I #
point $-1 107.3250526444288511 56.39486553288315918 0 #
point $-1 107.3250526444288511 0 0 #
straight-curve $-1 0 28.19743276644157959 25.99478531904072298 0 -1 0 I I #
point $-1 0 56.39486553288315918 25.99478531904072298 #
point $-1 0 0 25.99478531904072298 #
straight-curve $-1 107.3250526444288511 0 12.99739265952036149 0 0 -1 I I #
straight-curve $-1 107.3250526444288511 56.39486553288315918 12.99739265952036149 0 0 -1 I I #
edge $-1 $292 18.04211578615750255 $295 25.83410312434611811 $226 $323 forward 7 unknown #
vertex $-1 $240 $324 #
straight-curve $-1 58.73276834524385492 -31.40968732453261936 25.99478531904072298 0 -1 0 I I #
edge $-1 $295 -4.773198542890568774 $237 24.4600796747305651 $236 $325 forward 7 unknown #
vertex $-1 $294 $326 #
straight-curve $-1 58.73276834524385492 0 18.20279798085210743 0 0.529919251551154491 0.8480481040810504689 I I #
point $-1 58.73276834524385492 4.868973916076761554 25.99478531904072298 #
point $-1 87.9660465628649888 0 18.20279798085210743 #
straight-curve $-1 53.66252632221442553 0 25.99478531904072298 1 0 0 I I #
vertex $-1 $243 $327 #
point $-1 65.57942398876808454 3.892347050655391882 21.18781958901238482 #
vertex $-1 $247 $328 #
point $-1 74.34940745405442897 3.892347050655391882 21.18781958901238482 #
vertex $-1 $251 $329 #
point $-1 83.11939091934077339 3.892347050655391882 21.18781958901238482 #
edge $-1 $309 -30.55252770884278846 $265 -15.66746951790047149 $264 $330 forward 7 unknown #
coedge $-1 $308 $258 $313 $331 reversed $255 $-1 #
coedge $-1 $258 $307 $260 $311 reversed $255 $-1 #
vertex $-1 $259 $332 #
straight-curve $-1 107.3250526444288511 33.28997454419584301 45.48428821777865494 0 0.6560590194555897536 -0.754709588511349394 I I #
edge $-1 $261 22.03450774196515738 $315 28.19743276644157959 $308 $333 forward 7 unknown #
point $-1 107.3250526444288511 50.23194050840673697 25.99478531904071943 #
coedge $-1 $264 $263 $307 $331 forward $181 $-1 #
point $-1 92.4399944534865341 56.39486553288315918 18.90515089391145054 #
vertex $-1 $311 $334 #
straight-curve $-1 53.66252632221442553 56.39486553288315918 25.99478531904072298 -1 0 0 I I #
vertex $-1 $271 $335 #
point $-1 101.8825235489576926 51.2160994618612051 20.6268099841705066 #
straight-curve $-1 0 56.39486553288315918 12.99739265952036149 0 0 -1 I I #
point $-1 0 0 0 #
straight-curve $-1 0 28.19743276644157959 0 0 1 0 I I #
point $-1 0 56.39486553288315918 0 #
straight-curve $-1 58.73276834524385492 0 44.03690110519822554 0 0 -1 I I #
point $-1 58.73276834524385492 0 25.99478531904072298 #
straight-curve $-1 63.5059668881344237 0 18.20279798085210743 1 0 0 I I #
point $-1 58.73276834524385492 0 18.20279798085210743 #
point $-1 64.57942398876808454 4.740395154736443573 20.657900337461232 #
point $-1 73.34940745405442897 4.740395154736443573 20.657900337461232 #
point $-1 82.11939091934077339 4.740395154736443573 20.657900337461232 #
straight-curve $-1 76.77252493558606261 56.39486553288315918 18.90515089391145054 -1 0 0 I I #
edge $-1 $315 -12.99739265952036149 $309 -5.907758234391089047 $307 $336 forward 7 unknown #
point $-1 107.3250526444288511 56.39486553288315918 18.90515089391145054 #
straight-curve $-1 107.3250526444288511 28.19743276644157959 25.99478531904072298 0 1 0 I I #
point $-1 107.3250526444288511 56.39486553288315918 25.99478531904072298 #
point $-1 99.88252354895769258 49.70668028483851231 19.31469194525932664 #
straight-curve $-1 107.3250526444288511 56.39486553288315918 12.99739265952036149 0 0 -1 I I #
End-of-ACIS-data 