500 0 8 0           
7 Unknown 11 ACIS 5.0 NT 24 Fri Mar 26 15:38:36 1999 
-1 9.9999999999999995e-007 1e-010 
body $-1 $8 $-1 $9 #
body $-1 $10 $-1 $11 #
body $-1 $12 $-1 $13 #
body $-1 $14 $-1 $15 #
body $-1 $16 $-1 $17 #
body $-1 $18 $-1 $19 #
body $-1 $20 $-1 $21 #
body $-1 $22 $-1 $23 #
lump $-1 $-1 $24 $0 #
transform $-1 1 0 0 0 1 0 0 0 1 43.741569261757256 18.584727106700594 5.91583846983304 1 rotate no_reflect no_shear #
lump $-1 $-1 $25 $1 #
transform $-1 1 0 0 0 1 0 0 0 1 43.741569261757256 18.584727106700594 5.91583846983304 1 rotate no_reflect no_shear #
lump $-1 $-1 $26 $2 #
transform $-1 1 0 0 0 1 0 0 0 1 43.741569261757256 18.584727106700594 5.91583846983304 1 rotate no_reflect no_shear #
lump $-1 $-1 $27 $3 #
transform $-1 1 0 0 0 1 0 0 0 1 43.741569261757256 18.584727106700594 5.91583846983304 1 rotate no_reflect no_shear #
lump $-1 $-1 $28 $4 #
transform $-1 1 0 0 0 1 0 0 0 1 43.741569261757256 18.584727106700594 5.91583846983304 1 rotate no_reflect no_shear #
lump $-1 $-1 $29 $5 #
transform $-1 1 0 0 0 1 0 0 0 1 43.741569261757256 18.584727106700594 5.91583846983304 1 rotate no_reflect no_shear #
lump $-1 $-1 $30 $6 #
transform $-1 1 0 0 0 1 0 0 0 1 43.741569261757256 18.584727106700594 5.91583846983304 1 rotate no_reflect no_shear #
lump $-1 $-1 $31 $7 #
transform $-1 1 0 0 0 1 0 0 0 1 43.741569261757256 18.584727106700594 5.91583846983304 1 rotate no_reflect no_shear #
shell $-1 $-1 $-1 $32 $-1 $8 #
shell $-1 $-1 $-1 $33 $-1 $10 #
shell $-1 $-1 $-1 $34 $-1 $12 #
shell $-1 $-1 $-1 $35 $-1 $14 #
shell $-1 $-1 $-1 $36 $-1 $16 #
shell $-1 $-1 $-1 $37 $-1 $18 #
shell $-1 $-1 $-1 $38 $-1 $20 #
shell $-1 $-1 $-1 $39 $-1 $22 #
face $-1 $40 $41 $24 $-1 $42 forward single #
face $-1 $43 $44 $25 $-1 $45 forward single #
face $-1 $46 $47 $26 $-1 $48 reversed single #
face $-1 $49 $50 $27 $-1 $51 forward single #
face $-1 $52 $53 $28 $-1 $54 forward single #
face $-1 $55 $56 $29 $-1 $57 reversed single #
face $-1 $58 $59 $30 $-1 $60 forward single #
face $-1 $61 $62 $31 $-1 $63 forward single #
face $-1 $64 $65 $24 $-1 $66 reversed single #
loop $-1 $-1 $67 $32 #
plane-surface $-1 0 0 5.91583846983304 0 0 1 1 0 0 forward_v I I I I #
face $-1 $68 $69 $25 $-1 $70 reversed single #
loop $-1 $-1 $71 $33 #
plane-surface $-1 0 -16.188696076459014 -2.41583846983304 0 0 1 1 0 0 forward_v I I I I #
face $-1 $72 $73 $26 $-1 $74 reversed single #
loop $-1 $-1 $75 $34 #
plane-surface $-1 11.720519083726899 -13.792665046217436 121.597432108953 0 1 0 0.50000000669873634 0 0.8660253999169214 forward_v I I I I #
face $-1 $76 $77 $27 $-1 $78 forward single #
loop $-1 $79 $80 $35 #
cone-surface $-1 40.151233878525318 -11.499570852392775 3.5197913105739005 -0.50000000669873634 0 -0.8660253999169214 0.8660253999169214 0 -0.50000000669873634 1 I I 0 1 1 forward I I I I #
face $-1 $81 $82 $28 $-1 $83 forward single #
loop $-1 $84 $85 $36 #
cone-surface $-1 40.151233878525318 -8.0599295616557853 3.5197913105739005 -0.50000000669873634 0 -0.8660253999169214 0.8660253999169214 0 -0.50000000669873634 1 I I 0 1 1 forward I I I I #
face $-1 $86 $87 $29 $-1 $88 reversed single #
loop $-1 $-1 $89 $37 #
plane-surface $-1 11.720519083726899 10.55889742831428 121.597432108953 0 1 0 0.50000000669873634 0 0.8660253999169214 forward_v I I I I #
face $-1 $90 $91 $30 $-1 $92 forward single #
loop $-1 $93 $94 $38 #
cone-surface $-1 40.151233878525318 12.851991622138943 3.5197913105739005 -0.50000000669873634 0 -0.8660253999169214 0.8660253999169214 0 -0.50000000669873634 1 I I 0 1 1 forward I I I I #
face $-1 $95 $96 $31 $-1 $97 forward single #
loop $-1 $98 $99 $39 #
cone-surface $-1 40.151233878525318 16.291632912875929 3.5197913105739005 -0.50000000669873634 0 -0.8660253999169214 0.8660253999169214 0 -0.50000000669873634 1 I I 0 1 1 forward I I I I #
face $-1 $100 $101 $24 $-1 $102 reversed single #
loop $-1 $-1 $103 $40 #
plane-surface $-1 0 0 -5.91583846983304 0 0 1 1 0 0 forward_v I I I I #
coedge $-1 $104 $105 $106 $107 forward $41 $-1 #
face $-1 $108 $109 $25 $-1 $110 reversed single #
loop $-1 $-1 $111 $43 #
plane-surface $-1 0 -16.188696076459014 -5.41583846983304 0 0 1 1 0 0 forward_v I I I I #
coedge $-1 $112 $113 $114 $115 reversed $44 $-1 #
face $-1 $116 $117 $26 $-1 $118 reversed single #
loop $-1 $-1 $119 $46 #
plane-surface $-1 -32.021050764056838 -9.7797502070242803 45.834812083138914 0.50000000669873634 0 0.8660253999169214 0.8660253999169214 0 -0.50000000669873634 forward_v I I I I #
coedge $-1 $120 $121 $122 $123 reversed $47 $-1 #
face $-1 $-1 $124 $27 $-1 $125 forward single #
loop $-1 $126 $127 $49 #
cone-surface $-1 39.621363880276768 -11.499570852392775 2.6020295685952286 -0.50000000669873634 0 -0.8660253999169214 0.4330126999584607 0 -0.25000000334936817 1 I I -0.70710678118654746 0.70710678118654746 0.5 forward I I I I #
loop $-1 $-1 $128 $35 #
coedge $-1 $80 $80 $129 $130 reversed $50 $-1 #
face $-1 $-1 $131 $28 $-1 $132 forward single #
loop $-1 $133 $134 $52 #
cone-surface $-1 39.621363880276768 -8.0599295616557853 2.6020295685952286 -0.50000000669873634 0 -0.8660253999169214 0.4330126999584607 0 -0.25000000334936817 1 I I -0.70710678118654746 0.70710678118654746 0.5 forward I I I I #
loop $-1 $-1 $135 $36 #
coedge $-1 $85 $85 $136 $137 reversed $53 $-1 #
face $-1 $138 $139 $29 $-1 $140 reversed single #
loop $-1 $-1 $141 $55 #
plane-surface $-1 -32.021050764056838 14.571812267507436 45.834812083138914 0.50000000669873634 0 0.8660253999169214 0.8660253999169214 0 -0.50000000669873634 forward_v I I I I #
coedge $-1 $142 $143 $144 $145 reversed $56 $-1 #
face $-1 $-1 $146 $30 $-1 $147 forward single #
loop $-1 $148 $149 $58 #
cone-surface $-1 39.621363880276768 12.851991622138943 2.6020295685952286 -0.50000000669873634 0 -0.8660253999169214 0.4330126999584607 0 -0.25000000334936817 1 I I -0.70710678118654746 0.70710678118654746 0.5 forward I I I I #
loop $-1 $-1 $150 $38 #
coedge $-1 $94 $94 $151 $152 reversed $59 $-1 #
face $-1 $-1 $153 $31 $-1 $154 forward single #
loop $-1 $155 $156 $61 #
cone-surface $-1 39.621363880276768 16.291632912875929 2.6020295685952286 -0.50000000669873634 0 -0.8660253999169214 0.4330126999584607 0 -0.25000000334936817 1 I I -0.70710678118654746 0.70710678118654746 0.5 forward I I I I #
loop $-1 $-1 $157 $39 #
coedge $-1 $99 $99 $158 $159 reversed $62 $-1 #
face $-1 $160 $161 $24 $-1 $162 reversed single #
loop $-1 $-1 $163 $64 #
plane-surface $-1 0 -18.584727106700594 0 0 1 0 0 0 1 forward_v I I I I #
coedge $-1 $164 $165 $166 $167 forward $65 $-1 #
coedge $-1 $168 $67 $169 $170 forward $41 $-1 #
coedge $-1 $67 $168 $171 $172 forward $41 $-1 #
coedge $-1 $173 $174 $67 $107 reversed $175 $-1 #
edge $-1 $176 -18.584727106700594 $177 18.584727106700594 $106 $178 forward 7 unknown #
face $-1 $179 $180 $25 $-1 $181 reversed single #
loop $-1 $-1 $182 $68 #
plane-surface $-1 0 -13.792665046217435 -3.91583846983304 0 -1 0 0 0 -1 forward_v I I I I #
coedge $-1 $183 $184 $185 $186 reversed $69 $-1 #
coedge $-1 $187 $71 $188 $189 forward $44 $-1 #
coedge $-1 $71 $187 $190 $191 reversed $44 $-1 #
coedge $-1 $192 $193 $71 $115 forward $194 $-1 #
edge $-1 $195 5.698317007987928 $196 10.490379068471087 $114 $197 forward 7 unknown #
face $-1 $198 $199 $26 $-1 $200 forward single #
loop $-1 $-1 $201 $72 #
plane-surface $-1 11.720519083726899 -5.7668353678311242 121.597432108953 0 -1 0 -0.50000000669873634 0 -0.8660253999169214 forward_v I I I I #
coedge $-1 $202 $203 $204 $205 reversed $73 $-1 #
coedge $-1 $121 $75 $206 $207 reversed $47 $-1 #
coedge $-1 $75 $120 $202 $208 reversed $47 $-1 #
coedge $-1 $204 $209 $75 $123 forward $210 $-1 #
edge $-1 $211 54.88287758464346 $212 58.70547381912133 $122 $213 forward 7 unknown #
loop $-1 $-1 $129 $76 #
plane-surface $-1 -32.021050764056838 -9.7797502070242803 45.834812083138914 0.50000000669873634 0 0.8660253999169214 0.8660253999169214 0 -0.50000000669873634 forward_v I I I I #
loop $-1 $-1 $214 $49 #
coedge $-1 $127 $127 $128 $215 reversed $77 $-1 #
coedge $-1 $128 $128 $127 $215 forward $79 $-1 #
coedge $-1 $129 $129 $80 $130 forward $124 $-1 #
edge $-1 $216 0 $216 6.2831853071796004 $129 $217 forward 7 unknown #
loop $-1 $-1 $136 $81 #
plane-surface $-1 -32.021050764056838 -9.7797502070242803 45.834812083138914 0.50000000669873634 0 0.8660253999169214 0.8660253999169214 0 -0.50000000669873634 forward_v I I I I #
loop $-1 $-1 $218 $52 #
coedge $-1 $134 $134 $135 $219 reversed $82 $-1 #
coedge $-1 $135 $135 $134 $219 forward $84 $-1 #
coedge $-1 $136 $136 $85 $137 forward $131 $-1 #
edge $-1 $220 0 $220 6.2831853071796004 $136 $221 forward 7 unknown #
face $-1 $222 $223 $29 $-1 $224 forward single #
loop $-1 $-1 $144 $86 #
plane-surface $-1 43.741569261757256 0 0 -1 0 0 0 0 1 forward_v I I I I #
coedge $-1 $225 $226 $227 $228 reversed $87 $-1 #
coedge $-1 $143 $89 $229 $230 reversed $56 $-1 #
coedge $-1 $89 $142 $225 $231 reversed $56 $-1 #
coedge $-1 $227 $232 $89 $145 forward $139 $-1 #
edge $-1 $233 54.88287758464346 $234 58.70547381912133 $144 $235 forward 7 unknown #
loop $-1 $-1 $151 $90 #
plane-surface $-1 -32.021050764056838 14.571812267507436 45.834812083138914 0.50000000669873634 0 0.8660253999169214 0.8660253999169214 0 -0.50000000669873634 forward_v I I I I #
loop $-1 $-1 $236 $58 #
coedge $-1 $149 $149 $150 $237 reversed $91 $-1 #
coedge $-1 $150 $150 $149 $237 forward $93 $-1 #
coedge $-1 $151 $151 $94 $152 forward $146 $-1 #
edge $-1 $238 0 $238 6.2831853071796004 $151 $239 forward 7 unknown #
loop $-1 $-1 $158 $95 #
plane-surface $-1 -32.021050764056838 14.571812267507436 45.834812083138914 0.50000000669873634 0 0.8660253999169214 0.8660253999169214 0 -0.50000000669873634 forward_v I I I I #
loop $-1 $-1 $240 $61 #
coedge $-1 $156 $156 $157 $241 reversed $96 $-1 #
coedge $-1 $157 $157 $156 $241 forward $98 $-1 #
coedge $-1 $158 $158 $99 $159 forward $153 $-1 #
edge $-1 $242 0 $242 6.2831853071796004 $158 $243 forward 7 unknown #
face $-1 $244 $245 $24 $-1 $246 reversed single #
loop $-1 $-1 $247 $100 #
plane-surface $-1 -43.741569261757256 0 0 1 0 0 0 0 -1 forward_v I I I I #
coedge $-1 $248 $171 $249 $250 forward $101 $-1 #
coedge $-1 $251 $103 $248 $252 forward $65 $-1 #
coedge $-1 $103 $251 $253 $254 forward $65 $-1 #
coedge $-1 $174 $173 $103 $167 reversed $175 $-1 #
edge $-1 $255 -18.584727106700594 $256 18.584727106700594 $166 $257 forward 7 unknown #
coedge $-1 $105 $104 $258 $259 forward $41 $-1 #
coedge $-1 $260 $261 $104 $170 reversed $245 $-1 #
edge $-1 $177 -43.741569261757256 $262 43.741569261757256 $169 $263 forward 7 unknown #
coedge $-1 $163 $264 $105 $172 reversed $101 $-1 #
edge $-1 $265 -43.741569261757256 $176 43.741569261757256 $171 $266 forward 7 unknown #
coedge $-1 $166 $106 $264 $267 forward $175 $-1 #
coedge $-1 $106 $166 $260 $268 reversed $175 $-1 #
loop $-1 $-1 $173 $244 #
vertex $-1 $107 $269 #
vertex $-1 $107 $270 #
straight-curve $-1 43.741569261757256 0 5.91583846983304 0 1 0 I I #
face $-1 $271 $272 $25 $-1 $273 reversed single #
loop $-1 $-1 $274 $108 #
plane-surface $-1 -43.741569261757256 0 0 1 0 0 0 0 -1 forward_v I I I I #
coedge $-1 $275 $188 $193 $276 reversed $109 $-1 #
coedge $-1 $277 $111 $278 $279 reversed $69 $-1 #
coedge $-1 $111 $277 $275 $280 forward $69 $-1 #
coedge $-1 $193 $192 $111 $186 forward $194 $-1 #
edge $-1 $281 -10.490379068471087 $282 -5.698317007987928 $185 $283 forward 7 unknown #
coedge $-1 $113 $112 $274 $284 reversed $44 $-1 #
coedge $-1 $182 $285 $112 $189 reversed $109 $-1 #
edge $-1 $195 -43.741569261757256 $286 43.741569261757256 $188 $287 forward 7 unknown #
coedge $-1 $288 $289 $113 $191 forward $272 $-1 #
edge $-1 $196 -43.741569261757256 $290 43.741569261757256 $190 $291 forward 7 unknown #
coedge $-1 $185 $114 $289 $292 forward $194 $-1 #
coedge $-1 $114 $185 $182 $276 forward $194 $-1 #
loop $-1 $-1 $114 $271 #
vertex $-1 $115 $293 #
vertex $-1 $292 $294 #
straight-curve $-1 43.741569261757256 -8.0943480382295068 -2.41583846983304 0 -1 0 I I #
face $-1 $-1 $210 $26 $-1 $295 reversed single #
loop $-1 $-1 $296 $116 #
plane-surface $-1 0 0 5.91583846983304 0 0 1 1 0 0 forward_v I I I I #
coedge $-1 $297 $298 $299 $300 reversed $117 $-1 #
coedge $-1 $301 $119 $121 $208 forward $73 $-1 #
coedge $-1 $119 $301 $297 $302 forward $73 $-1 #
coedge $-1 $299 $122 $119 $205 forward $210 $-1 #
edge $-1 $212 -8.9027899427052972 $303 -0.876960264318984 $204 $304 forward 7 unknown #
coedge $-1 $305 $306 $120 $207 forward $199 $-1 #
edge $-1 $307 31.260378943228325 $211 37.881309719893807 $206 $308 forward 7 unknown #
edge $-1 $212 -87.48313852351454 $307 -79.837946156985055 $121 $309 forward 7 unknown #
coedge $-1 $122 $299 $305 $310 reversed $210 $-1 #
loop $-1 $-1 $299 $198 #
vertex $-1 $310 $311 #
vertex $-1 $123 $312 #
straight-curve $-1 43.741569261757256 -13.792665046217436 60.7987160544765 0 0 -1 I I #
coedge $-1 $214 $214 $-1 $313 reversed $126 $-1 #
edge $-1 $314 0 $314 6.2831853071796004 $127 $315 forward 7 unknown #
vertex $-1 $130 $316 #
ellipse-curve $-1 40.431103873424505 -11.499570852392775 4.0045403525941161 0.50000000669873634 0 0.8660253999169214 0.8660253999169214 0 -0.50000000669873634 1 I I #
coedge $-1 $218 $218 $-1 $317 reversed $133 $-1 #
edge $-1 $318 0 $318 6.2831853071796004 $134 $319 forward 7 unknown #
vertex $-1 $137 $320 #
ellipse-curve $-1 40.431103873424505 -8.0599295616557853 4.0045403525941161 0.50000000669873634 0 0.8660253999169214 0.8660253999169214 0 -0.50000000669873634 1 I I #
face $-1 $-1 $321 $29 $-1 $322 reversed single #
loop $-1 $-1 $229 $138 #
plane-surface $-1 0 0 5.91583846983304 0 0 1 1 0 0 forward_v I I I I #
coedge $-1 $323 $141 $143 $231 forward $87 $-1 #
coedge $-1 $141 $323 $324 $325 reversed $87 $-1 #
coedge $-1 $326 $144 $141 $228 forward $139 $-1 #
edge $-1 $234 3.2729912945605619 $327 11.298820972946872 $227 $328 forward 7 unknown #
coedge $-1 $329 $330 $142 $230 forward $223 $-1 #
edge $-1 $331 31.260378943228325 $233 37.881309719893807 $229 $332 forward 7 unknown #
edge $-1 $234 -87.48313852351454 $331 -79.837946156985055 $143 $333 forward 7 unknown #
coedge $-1 $144 $326 $329 $334 reversed $139 $-1 #
vertex $-1 $334 $335 #
vertex $-1 $145 $336 #
straight-curve $-1 43.741569261757256 10.55889742831428 60.7987160544765 0 0 -1 I I #
coedge $-1 $236 $236 $-1 $337 reversed $148 $-1 #
edge $-1 $338 0 $338 6.2831853071796004 $149 $339 forward 7 unknown #
vertex $-1 $152 $340 #
ellipse-curve $-1 40.431103873424505 12.851991622138943 4.0045403525941161 0.50000000669873634 0 0.8660253999169214 0.8660253999169214 0 -0.50000000669873634 1 I I #
coedge $-1 $240 $240 $-1 $341 reversed $155 $-1 #
edge $-1 $342 0 $342 6.2831853071796004 $156 $343 forward 7 unknown #
vertex $-1 $159 $344 #
ellipse-curve $-1 40.431103873424505 16.291632912875929 4.0045403525941161 0.50000000669873634 0 0.8660253999169214 0.8660253999169214 0 -0.50000000669873634 1 I I #
face $-1 $-1 $175 $24 $-1 $345 reversed single #
loop $-1 $-1 $260 $160 #
plane-surface $-1 0 18.584727106700594 0 0 -1 0 0 0 -1 forward_v I I I I #
coedge $-1 $346 $258 $261 $347 forward $161 $-1 #
coedge $-1 $264 $163 $164 $252 reversed $101 $-1 #
coedge $-1 $258 $346 $163 $250 reversed $161 $-1 #
edge $-1 $265 -5.91583846983304 $348 5.91583846983304 $249 $349 forward 7 unknown #
coedge $-1 $165 $164 $346 $350 forward $65 $-1 #
edge $-1 $256 -43.741569261757256 $348 43.741569261757256 $248 $351 forward 7 unknown #
coedge $-1 $261 $260 $165 $254 reversed $245 $-1 #
edge $-1 $352 -43.741569261757256 $255 43.741569261757256 $253 $353 forward 7 unknown #
vertex $-1 $167 $354 #
vertex $-1 $267 $355 #
straight-curve $-1 43.741569261757256 0 -5.91583846983304 0 -1 0 I I #
coedge $-1 $247 $249 $168 $259 reversed $161 $-1 #
edge $-1 $262 -18.584727106700594 $265 18.584727106700594 $258 $356 forward 7 unknown #
coedge $-1 $253 $169 $174 $268 forward $245 $-1 #
coedge $-1 $169 $253 $247 $347 reversed $245 $-1 #
vertex $-1 $170 $357 #
straight-curve $-1 0 18.584727106700594 5.91583846983304 -1 0 0 I I #
coedge $-1 $171 $248 $173 $267 reversed $101 $-1 #
vertex $-1 $259 $358 #
straight-curve $-1 0 -18.584727106700594 5.91583846983304 1 0 0 I I #
edge $-1 $176 -5.91583846983304 $256 5.91583846983304 $173 $359 forward 7 unknown #
edge $-1 $177 -5.91583846983304 $255 5.91583846983304 $174 $360 forward 7 unknown #
point $-1 43.741569261757256 -18.584727106700594 5.91583846983304 #
point $-1 43.741569261757256 18.584727106700594 5.91583846983304 #
face $-1 $-1 $194 $25 $-1 $361 reversed single #
loop $-1 $-1 $190 $179 #
plane-surface $-1 0 -18.584727106700594 0 0 1 0 0 0 1 forward_v I I I I #
coedge $-1 $362 $363 $187 $284 forward $180 $-1 #
coedge $-1 $285 $182 $184 $280 reversed $109 $-1 #
edge $-1 $282 -3.45791923491652 $195 -0.45791923491651998 $193 $364 forward 7 unknown #
coedge $-1 $184 $183 $365 $366 reversed $69 $-1 #
coedge $-1 $289 $288 $183 $279 forward $272 $-1 #
edge $-1 $367 -43.741569261757256 $281 43.741569261757256 $278 $368 forward 7 unknown #
edge $-1 $369 -43.741569261757256 $282 43.741569261757256 $275 $370 forward 7 unknown #
vertex $-1 $279 $371 #
vertex $-1 $186 $372 #
straight-curve $-1 43.741569261757256 -8.0943480382295068 -5.41583846983304 0 1 0 I I #
edge $-1 $290 -10.490379068471087 $286 -5.698317007987928 $274 $373 forward 7 unknown #
coedge $-1 $188 $275 $362 $374 reversed $109 $-1 #
vertex $-1 $284 $375 #
straight-curve $-1 0 -13.792665046217435 -2.41583846983304 -1 0 0 I I #
coedge $-1 $278 $190 $363 $376 forward $272 $-1 #
coedge $-1 $190 $278 $192 $292 reversed $272 $-1 #
vertex $-1 $376 $377 #
straight-curve $-1 0 -18.584727106700594 -2.41583846983304 -1 0 0 I I #
edge $-1 $196 2.41583846983304 $281 5.41583846983304 $192 $378 forward 7 unknown #
point $-1 43.741569261757256 -13.792665046217435 -2.41583846983304 #
point $-1 43.741569261757256 -18.584727106700594 -2.41583846983304 #
plane-surface $-1 43.741569261757256 0 0 -1 0 0 0 0 1 forward_v I I I I #
coedge $-1 $306 $305 $298 $379 forward $199 $-1 #
coedge $-1 $298 $201 $203 $302 reversed $117 $-1 #
coedge $-1 $201 $297 $296 $379 reversed $117 $-1 #
coedge $-1 $209 $204 $201 $300 forward $210 $-1 #
edge $-1 $303 -58.70547381912133 $380 -54.88287758464346 $299 $381 forward 7 unknown #
coedge $-1 $203 $202 $306 $382 reversed $73 $-1 #
edge $-1 $383 79.837946156985055 $303 87.48313852351454 $297 $384 forward 7 unknown #
vertex $-1 $205 $385 #
straight-curve $-1 43.741569261757256 -4.8898751035121402 2.0932422353551701 0 1 0 I I #
coedge $-1 $296 $206 $209 $310 forward $199 $-1 #
coedge $-1 $206 $296 $301 $382 forward $199 $-1 #
vertex $-1 $207 $386 #
straight-curve $-1 5.8602595418634493 -13.792665046217436 5.9158384698330408 1 0 0 I I #
straight-curve $-1 -32.021050764056838 -13.792665046217436 45.834812083138914 -0.8660253999169214 0 0.50000000669873634 I I #
edge $-1 $211 -13.792665046217436 $380 -5.7668353678311242 $209 $387 forward 7 unknown #
point $-1 43.741569261757256 -13.792665046217436 5.91583846983304 #
point $-1 43.741569261757263 -13.792665046217436 2.0932422353551701 #
edge $-1 $388 1 $388 0 $214 $-1 forward 7 unknown #
vertex $-1 $215 $389 #
ellipse-curve $-1 39.871363883626138 -11.499570852392775 3.0350422685536893 0.50000000669873634 0 0.8660253999169214 0.8660253999169214 0 -0.50000000669873634 1 I I #
point $-1 41.297129273341426 -11.499570852392775 3.504540345895375 #
edge $-1 $390 1 $390 0 $218 $-1 forward 7 unknown #
vertex $-1 $219 $391 #
ellipse-curve $-1 39.871363883626138 -8.0599295616557853 3.0350422685536893 0.50000000669873634 0 0.8660253999169214 0.8660253999169214 0 -0.50000000669873634 1 I I #
point $-1 41.297129273341426 -8.0599295616557853 3.504540345895375 #
loop $-1 $-1 $324 $222 #
plane-surface $-1 0 18.584727106700594 0 0 -1 0 0 0 -1 forward_v I I I I #
coedge $-1 $226 $225 $330 $392 reversed $87 $-1 #
coedge $-1 $393 $394 $226 $325 forward $321 $-1 #
edge $-1 $327 -62.158913702360962 $395 -54.513721335831477 $324 $396 forward 7 unknown #
coedge $-1 $232 $227 $394 $397 reversed $139 $-1 #
vertex $-1 $325 $398 #
straight-curve $-1 43.741569261757256 7.2859061337537181 2.0932422353551701 0 1 0 I I #
coedge $-1 $399 $229 $232 $334 forward $223 $-1 #
coedge $-1 $229 $399 $323 $392 forward $223 $-1 #
vertex $-1 $230 $400 #
straight-curve $-1 5.8602595418634493 10.55889742831428 5.9158384698330408 1 0 0 I I #
straight-curve $-1 -32.021050764056838 10.55889742831428 45.834812083138914 -0.8660253999169214 0 0.50000000669873634 I I #
edge $-1 $233 10.55889742831428 $401 18.584727106700594 $232 $402 forward 7 unknown #
point $-1 43.741569261757256 10.55889742831428 5.91583846983304 #
point $-1 43.741569261757263 10.55889742831428 2.0932422353551701 #
edge $-1 $403 1 $403 0 $236 $-1 forward 7 unknown #
vertex $-1 $237 $404 #
ellipse-curve $-1 39.871363883626138 12.851991622138943 3.0350422685536893 0.50000000669873634 0 0.8660253999169214 0.8660253999169214 0 -0.50000000669873634 1 I I #
point $-1 41.297129273341426 12.851991622138943 3.504540345895375 #
edge $-1 $405 1 $405 0 $240 $-1 forward 7 unknown #
vertex $-1 $241 $406 #
ellipse-curve $-1 39.871363883626138 16.291632912875929 3.0350422685536893 0.50000000669873634 0 0.8660253999169214 0.8660253999169214 0 -0.50000000669873634 1 I I #
point $-1 41.297129273341426 16.291632912875929 3.504540345895375 #
plane-surface $-1 43.741569261757256 0 0 -1 0 0 0 0 1 forward_v I I I I #
coedge $-1 $249 $247 $251 $350 reversed $161 $-1 #
edge $-1 $262 -5.91583846983304 $352 5.91583846983304 $261 $407 forward 7 unknown #
vertex $-1 $350 $408 #
straight-curve $-1 -43.741569261757256 -18.584727106700594 0 0 0 -1 I I #
edge $-1 $348 -18.584727106700594 $352 18.584727106700594 $346 $409 forward 7 unknown #
straight-curve $-1 0 -18.584727106700594 -5.91583846983304 -1 0 0 I I #
vertex $-1 $254 $410 #
straight-curve $-1 0 18.584727106700594 -5.91583846983304 1 0 0 I I #
point $-1 43.741569261757256 18.584727106700594 -5.91583846983304 #
point $-1 43.741569261757256 -18.584727106700594 -5.91583846983304 #
straight-curve $-1 -43.741569261757256 0 5.91583846983304 0 -1 0 I I #
point $-1 -43.741569261757256 18.584727106700594 5.91583846983304 #
point $-1 -43.741569261757256 -18.584727106700594 5.91583846983304 #
straight-curve $-1 43.741569261757256 -18.584727106700594 0 0 0 -1 I I #
straight-curve $-1 43.741569261757256 18.584727106700594 0 0 0 -1 I I #
plane-surface $-1 43.741569261757256 0 0 -1 0 0 0 0 1 forward_v I I I I #
coedge $-1 $365 $274 $285 $374 forward $180 $-1 #
coedge $-1 $274 $365 $288 $376 reversed $180 $-1 #
straight-curve $-1 43.741569261757256 -13.792665046217435 -1.95791923491652 0 0 1 I I #
coedge $-1 $363 $362 $277 $366 forward $180 $-1 #
edge $-1 $369 5.698317007987928 $367 10.490379068471087 $365 $411 forward 7 unknown #
vertex $-1 $279 $412 #
straight-curve $-1 0 -18.584727106700594 -5.41583846983304 1 0 0 I I #
vertex $-1 $366 $413 #
straight-curve $-1 0 -13.792665046217435 -5.41583846983304 1 0 0 I I #
point $-1 43.741569261757256 -18.584727106700594 -5.41583846983304 #
point $-1 43.741569261757256 -13.792665046217435 -5.41583846983304 #
straight-curve $-1 -43.741569261757256 -8.0943480382295068 -2.41583846983304 0 1 0 I I #
edge $-1 $286 0.45791923491651998 $369 3.45791923491652 $362 $414 forward 7 unknown #
point $-1 -43.741569261757256 -13.792665046217435 -2.41583846983304 #
edge $-1 $290 2.41583846983304 $367 5.41583846983304 $363 $415 forward 7 unknown #
point $-1 -43.741569261757256 -18.584727106700594 -2.41583846983304 #
straight-curve $-1 43.741569261757256 -18.584727106700594 0 0 0 -1 I I #
edge $-1 $380 -37.881309719893807 $383 -31.260378943228325 $296 $416 forward 7 unknown #
vertex $-1 $379 $417 #
straight-curve $-1 43.741569261757256 -5.7668353678311242 60.7987160544765 0 0 1 I I #
edge $-1 $383 0.876960264318984 $307 8.9027899427052972 $306 $418 forward 7 unknown #
vertex $-1 $382 $419 #
straight-curve $-1 -32.021050764056838 -5.7668353678311242 45.834812083138914 0.8660253999169214 0 -0.50000000669873634 I I #
point $-1 43.741569261757263 -5.7668353678311242 2.0932422353551701 #
point $-1 37.120638485091774 -13.792665046217436 5.9158384698330408 #
straight-curve $-1 43.741569261757256 0 5.91583846983304 0 1 0 I I #
vertex $-1 $313 $420 #
point $-1 40.73738928354306 -11.499570852392775 2.5350422618549531 #
vertex $-1 $317 $421 #
point $-1 40.73738928354306 -8.0599295616557853 2.5350422618549531 #
edge $-1 $395 -11.298820972946872 $331 -3.2729912945605619 $330 $422 forward 7 unknown #
coedge $-1 $394 $324 $399 $423 reversed $321 $-1 #
coedge $-1 $324 $393 $326 $397 forward $321 $-1 #
vertex $-1 $325 $424 #
straight-curve $-1 -10.08962883573129 18.584727106700594 33.172699502921823 -0.8660253999169214 0 0.50000000669873634 I I #
edge $-1 $401 -5.91583846983304 $327 -2.0932422353551701 $326 $425 forward 7 unknown #
point $-1 43.741569261757263 18.584727106700591 2.0932422353551701 #
coedge $-1 $330 $329 $393 $423 forward $223 $-1 #
point $-1 37.120638485091774 10.55889742831428 5.9158384698330408 #
vertex $-1 $334 $426 #
straight-curve $-1 43.741569261757256 0 5.91583846983304 0 1 0 I I #
vertex $-1 $337 $427 #
point $-1 40.73738928354306 12.851991622138943 2.5350422618549531 #
vertex $-1 $341 $428 #
point $-1 40.73738928354306 16.291632912875929 2.5350422618549531 #
straight-curve $-1 -43.741569261757256 18.584727106700594 0 0 0 -1 I I #
point $-1 -43.741569261757256 -18.584727106700594 -5.91583846983304 #
straight-curve $-1 -43.741569261757256 0 -5.91583846983304 0 1 0 I I #
point $-1 -43.741569261757256 18.584727106700594 -5.91583846983304 #
straight-curve $-1 -43.741569261757256 -8.0943480382295068 -5.41583846983304 0 -1 0 I I #
point $-1 -43.741569261757256 -18.584727106700594 -5.41583846983304 #
point $-1 -43.741569261757256 -13.792665046217435 -5.41583846983304 #
straight-curve $-1 -43.741569261757256 -13.792665046217435 -1.95791923491652 0 0 -1 I I #
straight-curve $-1 -43.741569261757256 -18.584727106700594 0 0 0 -1 I I #
straight-curve $-1 5.8602595418634493 -5.7668353678311242 5.9158384698330408 -1 0 0 I I #
point $-1 43.741569261757256 -5.7668353678311242 5.91583846983304 #
straight-curve $-1 37.12063848509176 -4.8898751035121402 5.9158384698330444 0 -1 0 I I #
point $-1 37.120638485091774 -5.7668353678311242 5.9158384698330408 #
point $-1 39.371363876927397 -11.499570852392775 2.1690168686367679 #
point $-1 39.371363876927397 -8.0599295616557853 2.1690168686367679 #
straight-curve $-1 37.12063848509176 7.2859061337537181 5.9158384698330444 0 -1 0 I I #
edge $-1 $401 -43.741569261757256 $395 -37.120638485091774 $393 $429 forward 7 unknown #
point $-1 37.120638485091774 18.584727106700591 5.9158384698330408 #
straight-curve $-1 43.741569261757256 18.584727106700594 0 0 0 -1 I I #
point $-1 43.741569261757256 18.584727106700594 5.91583846983304 #
point $-1 39.371363876927397 12.851991622138943 2.1690168686367679 #
point $-1 39.371363876927397 16.291632912875929 2.1690168686367679 #
straight-curve $-1 0 18.584727106700594 5.91583846983304 -1 0 0 I I #
End-of-ACIS-data 