500 0 10 0           
7 Unknown 11 ACIS 5.0 NT 24 Thu Mar 25 19:04:03 1999 
-1 9.9999999999999995e-007 1e-010 
body $-1 $10 $-1 $11 #
body $-1 $12 $-1 $13 #
body $-1 $14 $-1 $15 #
body $-1 $16 $-1 $17 #
body $-1 $18 $-1 $19 #
body $-1 $20 $-1 $21 #
body $-1 $22 $-1 $23 #
body $-1 $24 $-1 $25 #
body $-1 $26 $-1 $27 #
body $-1 $28 $-1 $29 #
lump $-1 $-1 $30 $0 #
transform $-1 1 0 0 0 1 0 0 0 1 74.810632648701443 40.722902014277416 20.013590651482215 1 rotate no_reflect no_shear #
lump $-1 $-1 $31 $1 #
transform $-1 1 0 0 0 1 0 0 0 1 74.810632648701443 40.722902014277416 20.013590651482215 1 rotate no_reflect no_shear #
lump $-1 $-1 $32 $2 #
transform $-1 1 0 0 0 1 0 0 0 1 74.810632648701443 40.722902014277416 20.013590651482215 1 rotate no_reflect no_shear #
lump $-1 $-1 $33 $3 #
transform $-1 1 0 0 0 1 0 0 0 1 74.810632648701443 40.722902014277416 20.013590651482215 1 rotate no_reflect no_shear #
lump $-1 $-1 $34 $4 #
transform $-1 1 0 0 0 1 0 0 0 1 74.810632648701443 40.722902014277416 20.013590651482215 1 rotate no_reflect no_shear #
lump $-1 $-1 $35 $5 #
transform $-1 1 0 0 0 1 0 0 0 1 74.810632648701443 40.722902014277416 20.013590651482215 1 rotate no_reflect no_shear #
lump $-1 $-1 $36 $6 #
transform $-1 1 0 0 0 1 0 0 0 1 74.810632648701443 40.722902014277416 20.013590651482215 1 rotate no_reflect no_shear #
lump $-1 $-1 $37 $7 #
transform $-1 1 0 0 0 1 0 0 0 1 74.810632648701443 40.722902014277416 20.013590651482215 1 rotate no_reflect no_shear #
lump $-1 $-1 $38 $8 #
transform $-1 1 0 0 0 1 0 0 0 1 74.810632648701443 40.722902014277416 20.013590651482215 1 rotate no_reflect no_shear #
lump $-1 $-1 $39 $9 #
transform $-1 1 0 0 0 1 0 0 0 1 74.810632648701443 40.722902014277416 20.013590651482215 1 rotate no_reflect no_shear #
shell $-1 $-1 $-1 $40 $-1 $10 #
shell $-1 $-1 $-1 $41 $-1 $12 #
shell $-1 $-1 $-1 $42 $-1 $14 #
shell $-1 $-1 $-1 $43 $-1 $16 #
shell $-1 $-1 $-1 $44 $-1 $18 #
shell $-1 $-1 $-1 $45 $-1 $20 #
shell $-1 $-1 $-1 $46 $-1 $22 #
shell $-1 $-1 $-1 $47 $-1 $24 #
shell $-1 $-1 $-1 $48 $-1 $26 #
shell $-1 $-1 $-1 $49 $-1 $28 #
face $-1 $50 $51 $30 $-1 $52 forward single #
face $-1 $53 $54 $31 $-1 $55 forward single #
face $-1 $56 $57 $32 $-1 $58 forward single #
face $-1 $59 $60 $33 $-1 $61 reversed single #
face $-1 $62 $63 $34 $-1 $64 forward single #
face $-1 $65 $66 $35 $-1 $67 forward single #
face $-1 $68 $69 $36 $-1 $70 reversed single #
face $-1 $71 $72 $37 $-1 $73 forward single #
face $-1 $74 $75 $38 $-1 $76 forward single #
face $-1 $77 $78 $39 $-1 $79 forward single #
face $-1 $80 $81 $30 $-1 $82 reversed single #
loop $-1 $-1 $83 $40 #
plane-surface $-1 0 0 20.013590651482215 0 0 1 1 0 0 forward_v I I I I #
face $-1 $84 $85 $31 $-1 $86 reversed single #
loop $-1 $-1 $87 $41 #
plane-surface $-1 -62.412736377422974 0 2.5780574318731082 0 0 1 1 0 0 forward_v I I I I #
face $-1 $88 $89 $32 $-1 $90 reversed single #
loop $-1 $-1 $91 $42 #
plane-surface $-1 62.412736377422988 0 2.5780574318731082 0 0 1 1 0 0 forward_v I I I I #
face $-1 $92 $93 $33 $-1 $94 reversed single #
loop $-1 $-1 $95 $43 #
plane-surface $-1 22.871253521850321 -168.97335928915152 77.152550102075551 1 0 0 0 0.85716730853699208 -0.51503806187062418 forward_v I I I I #
face $-1 $96 $97 $34 $-1 $98 forward single #
loop $-1 $99 $100 $44 #
cone-surface $-1 30.6265639745058 -32.613060016087196 8.7760604020162472 0 0.85716730853699208 -0.51503806187062418 1.5 0 0 1 I I 0 1 1.5 forward I I I I #
face $-1 $101 $102 $35 $-1 $103 forward single #
loop $-1 $104 $105 $45 #
cone-surface $-1 42.259529653489025 -32.613060016087196 8.7760604020162472 0 0.85716730853699208 -0.51503806187062418 1.5 0 0 1 I I 0 1 1.5 forward I I I I #
face $-1 $106 $107 $36 $-1 $108 reversed single #
loop $-1 $-1 $109 $46 #
plane-surface $-1 34.379364364867996 127.02567023478994 152.31588998343616 -1 0 0 0 0.85716730853699208 0.51503806187062418 forward_v I I I I #
face $-1 $110 $111 $37 $-1 $112 forward single #
loop $-1 $113 $114 $47 #
cone-surface $-1 11.704219936216248 34.025266662405528 11.334045850207017 0 -0.85716730853699208 -0.51503806187062418 1.5 0 0 1 I I 0 1 1.5 forward I I I I #
face $-1 $115 $116 $38 $-1 $117 forward single #
loop $-1 $118 $119 $48 #
cone-surface $-1 20.207399096960657 34.025266662405528 11.334045850207017 0 -0.85716730853699208 -0.51503806187062418 1.5 0 0 1 I I 0 1 1.5 forward I I I I #
face $-1 $120 $121 $39 $-1 $122 forward single #
loop $-1 $123 $124 $49 #
cone-surface $-1 28.710578257705066 34.025266662405528 11.334045850207017 0 -0.85716730853699208 -0.51503806187062418 1.5 0 0 1 I I 0 1 1.5 forward I I I I #
face $-1 $125 $126 $30 $-1 $127 reversed single #
loop $-1 $-1 $128 $50 #
plane-surface $-1 0 0 -20.013590651482215 0 0 1 1 0 0 forward_v I I I I #
coedge $-1 $129 $130 $131 $132 forward $51 $-1 #
face $-1 $133 $134 $31 $-1 $135 reversed single #
loop $-1 $-1 $136 $53 #
plane-surface $-1 -62.412736377422974 0 -9.0511659723473308 0 0 1 1 0 0 forward_v I I I I #
coedge $-1 $137 $138 $139 $140 forward $54 $-1 #
face $-1 $141 $142 $32 $-1 $143 reversed single #
loop $-1 $-1 $144 $56 #
plane-surface $-1 62.412736377422988 0 -9.0511659723473308 0 0 1 1 0 0 forward_v I I I I #
coedge $-1 $145 $146 $147 $148 reversed $57 $-1 #
face $-1 $149 $150 $33 $-1 $151 forward single #
loop $-1 $-1 $152 $59 #
plane-surface $-1 36.443046813997412 -40.722902014277423 0.091903608670691028 0 -0.85716730853699208 0.51503806187062418 1 0 0 forward_v I I I I #
coedge $-1 $153 $154 $155 $156 reversed $60 $-1 #
face $-1 $-1 $157 $34 $-1 $158 forward single #
loop $-1 $159 $160 $62 #
cone-surface $-1 30.6265639745058 -29.845420934569876 7.1130951275530769 0 0.85716730853699208 -0.51503806187062418 0.75 0 0 1 I I -0.70710678118654757 0.70710678118654757 0.75 forward I I I I #
loop $-1 $-1 $161 $44 #
coedge $-1 $100 $100 $162 $163 reversed $63 $-1 #
face $-1 $-1 $164 $35 $-1 $165 forward single #
loop $-1 $166 $167 $65 #
cone-surface $-1 42.259529653489025 -29.845420934569876 7.1130951275530769 0 0.85716730853699208 -0.51503806187062418 0.75 0 0 1 I I -0.70710678118654757 0.70710678118654757 0.75 forward I I I I #
loop $-1 $-1 $168 $45 #
coedge $-1 $105 $105 $169 $170 reversed $66 $-1 #
face $-1 $171 $172 $36 $-1 $173 reversed single #
loop $-1 $-1 $174 $68 #
plane-surface $-1 20.207399096960657 -1.2247870400841521 75.255243490031305 0 0.85716730853699208 0.51503806187062418 1 0 0 forward_v I I I I #
coedge $-1 $175 $176 $177 $178 reversed $69 $-1 #
face $-1 $-1 $179 $37 $-1 $180 forward single #
loop $-1 $181 $182 $71 #
cone-surface $-1 11.704219936216248 31.062334067845121 9.5537363986481374 0 -0.85716730853699208 -0.51503806187062418 0.75 0 0 1 I I -0.70710678118654757 0.70710678118654757 0.75 forward I I I I #
loop $-1 $-1 $183 $47 #
coedge $-1 $114 $114 $184 $185 reversed $72 $-1 #
face $-1 $-1 $186 $38 $-1 $187 forward single #
loop $-1 $188 $189 $74 #
cone-surface $-1 20.207399096960657 31.062334067845121 9.5537363986481374 0 -0.85716730853699208 -0.51503806187062418 0.75 0 0 1 I I -0.70710678118654757 0.70710678118654757 0.75 forward I I I I #
loop $-1 $-1 $190 $48 #
coedge $-1 $119 $119 $191 $192 reversed $75 $-1 #
face $-1 $-1 $193 $39 $-1 $194 forward single #
loop $-1 $195 $196 $77 #
cone-surface $-1 28.710578257705066 31.062334067845121 9.5537363986481374 0 -0.85716730853699208 -0.51503806187062418 0.75 0 0 1 I I -0.70710678118654757 0.70710678118654757 0.75 forward I I I I #
loop $-1 $-1 $197 $49 #
coedge $-1 $124 $124 $198 $199 reversed $78 $-1 #
face $-1 $200 $201 $30 $-1 $202 reversed single #
loop $-1 $-1 $203 $80 #
plane-surface $-1 0 -40.722902014277416 0 0 1 0 0 0 1 forward_v I I I I #
coedge $-1 $204 $205 $206 $207 forward $81 $-1 #
coedge $-1 $208 $83 $209 $210 forward $51 $-1 #
coedge $-1 $83 $208 $211 $212 forward $51 $-1 #
coedge $-1 $213 $214 $83 $132 reversed $215 $-1 #
edge $-1 $216 -40.722902014277416 $217 40.722902014277416 $131 $218 forward 7 unknown #
face $-1 $219 $220 $31 $-1 $221 reversed single #
loop $-1 $-1 $222 $84 #
plane-surface $-1 -50.014840106144504 0 -3.2365542702371108 -1 0 0 0 0 1 forward_v I I I I #
coedge $-1 $223 $224 $225 $226 forward $85 $-1 #
coedge $-1 $227 $87 $228 $229 reversed $54 $-1 #
coedge $-1 $87 $227 $230 $231 reversed $54 $-1 #
coedge $-1 $222 $232 $87 $140 reversed $134 $-1 #
edge $-1 $233 -40.722902014277416 $234 40.722902014277416 $139 $235 forward 7 unknown #
face $-1 $236 $237 $32 $-1 $238 reversed single #
loop $-1 $-1 $239 $88 #
plane-surface $-1 50.014840106144518 0 -3.2365542702371108 1 0 0 0 0 -1 forward_v I I I I #
coedge $-1 $240 $241 $242 $243 reversed $89 $-1 #
coedge $-1 $244 $91 $245 $246 reversed $57 $-1 #
coedge $-1 $91 $244 $247 $248 reversed $57 $-1 #
coedge $-1 $249 $250 $91 $148 forward $251 $-1 #
edge $-1 $252 -40.722902014277416 $253 40.722902014277416 $147 $254 forward 7 unknown #
face $-1 $255 $256 $33 $-1 $257 reversed single #
loop $-1 $-1 $258 $92 #
plane-surface $-1 0 0 20.013590651482215 0 0 1 1 0 0 forward_v I I I I #
coedge $-1 $259 $260 $261 $262 reversed $93 $-1 #
coedge $-1 $154 $95 $263 $264 reversed $60 $-1 #
coedge $-1 $95 $153 $259 $265 reversed $60 $-1 #
coedge $-1 $261 $266 $95 $156 forward $256 $-1 #
edge $-1 $267 18.562684399555561 $268 38.48437144236707 $155 $269 forward 7 unknown #
loop $-1 $-1 $162 $96 #
plane-surface $-1 36.443046813997412 -40.722902014277423 0.091903608670691028 0 -0.85716730853699208 0.51503806187062418 1 0 0 forward_v I I I I #
loop $-1 $-1 $270 $62 #
coedge $-1 $160 $160 $161 $271 reversed $97 $-1 #
coedge $-1 $161 $161 $160 $271 forward $99 $-1 #
coedge $-1 $162 $162 $100 $163 forward $157 $-1 #
edge $-1 $272 -3.0452700220599808e-015 $272 6.2831853071795978 $162 $273 forward 7 unknown #
loop $-1 $-1 $169 $101 #
plane-surface $-1 36.443046813997412 -40.722902014277423 0.091903608670691028 0 -0.85716730853699208 0.51503806187062418 1 0 0 forward_v I I I I #
loop $-1 $-1 $274 $65 #
coedge $-1 $167 $167 $168 $275 reversed $102 $-1 #
coedge $-1 $168 $168 $167 $275 forward $104 $-1 #
coedge $-1 $169 $169 $105 $170 forward $164 $-1 #
edge $-1 $276 -3.0452700220599808e-015 $276 6.2831853071795978 $169 $277 forward 7 unknown #
face $-1 $278 $279 $36 $-1 $280 reversed single #
loop $-1 $-1 $281 $106 #
plane-surface $-1 6.0354338290533178 127.02567023478994 152.31588998343616 1 0 0 0 -0.85716730853699208 -0.51503806187062418 forward_v I I I I #
coedge $-1 $282 $283 $284 $285 reversed $107 $-1 #
coedge $-1 $176 $109 $286 $287 reversed $69 $-1 #
coedge $-1 $109 $175 $282 $288 reversed $69 $-1 #
coedge $-1 $284 $289 $109 $178 forward $279 $-1 #
edge $-1 $290 56.144354340235864 $291 70.715382132474446 $177 $292 forward 7 unknown #
loop $-1 $-1 $184 $110 #
plane-surface $-1 20.207399096960657 -1.2247870400841521 75.255243490031305 0 0.85716730853699208 0.51503806187062418 1 0 0 forward_v I I I I #
loop $-1 $-1 $293 $71 #
coedge $-1 $182 $182 $183 $294 reversed $111 $-1 #
coedge $-1 $183 $183 $182 $294 forward $113 $-1 #
coedge $-1 $184 $184 $114 $185 forward $179 $-1 #
edge $-1 $295 2.8492406986551196e-015 $295 6.2831853071796031 $184 $296 forward 7 unknown #
loop $-1 $-1 $191 $115 #
plane-surface $-1 20.207399096960657 -1.2247870400841521 75.255243490031305 0 0.85716730853699208 0.51503806187062418 1 0 0 forward_v I I I I #
loop $-1 $-1 $297 $74 #
coedge $-1 $189 $189 $190 $298 reversed $116 $-1 #
coedge $-1 $190 $190 $189 $298 forward $118 $-1 #
coedge $-1 $191 $191 $119 $192 forward $186 $-1 #
edge $-1 $299 2.8492406986551196e-015 $299 6.2831853071796031 $191 $300 forward 7 unknown #
loop $-1 $-1 $198 $120 #
plane-surface $-1 20.207399096960657 -1.2247870400841521 75.255243490031305 0 0.85716730853699208 0.51503806187062418 1 0 0 forward_v I I I I #
loop $-1 $-1 $301 $77 #
coedge $-1 $196 $196 $197 $302 reversed $121 $-1 #
coedge $-1 $197 $197 $196 $302 forward $123 $-1 #
coedge $-1 $198 $198 $124 $199 forward $193 $-1 #
edge $-1 $303 2.8492406986551196e-015 $303 6.2831853071796031 $198 $304 forward 7 unknown #
face $-1 $305 $306 $30 $-1 $307 reversed single #
loop $-1 $-1 $308 $125 #
plane-surface $-1 -74.810632648701443 0 0 1 0 0 0 0 -1 forward_v I I I I #
coedge $-1 $309 $211 $310 $311 forward $126 $-1 #
coedge $-1 $312 $128 $309 $313 forward $81 $-1 #
coedge $-1 $128 $312 $314 $315 forward $81 $-1 #
coedge $-1 $214 $213 $128 $207 reversed $215 $-1 #
edge $-1 $316 -40.722902014277416 $317 40.722902014277416 $206 $318 forward 7 unknown #
coedge $-1 $130 $129 $319 $320 forward $51 $-1 #
coedge $-1 $321 $322 $129 $210 reversed $306 $-1 #
edge $-1 $217 -74.810632648701443 $323 74.810632648701443 $209 $324 forward 7 unknown #
coedge $-1 $203 $325 $130 $212 reversed $126 $-1 #
edge $-1 $326 -74.810632648701443 $216 74.810632648701443 $211 $327 forward 7 unknown #
coedge $-1 $206 $131 $325 $328 forward $215 $-1 #
coedge $-1 $131 $206 $321 $329 reversed $215 $-1 #
loop $-1 $-1 $213 $305 #
vertex $-1 $132 $330 #
vertex $-1 $132 $331 #
straight-curve $-1 74.810632648701443 0 20.013590651482215 0 1 0 I I #
face $-1 $332 $333 $31 $-1 $334 reversed single #
loop $-1 $-1 $335 $133 #
plane-surface $-1 0 -40.722902014277416 0 0 1 0 0 0 1 forward_v I I I I #
coedge $-1 $225 $139 $336 $337 reversed $134 $-1 #
coedge $-1 $338 $136 $335 $339 reversed $85 $-1 #
coedge $-1 $136 $338 $340 $341 reversed $85 $-1 #
coedge $-1 $232 $222 $136 $226 reversed $134 $-1 #
edge $-1 $342 -40.722902014277416 $343 40.722902014277416 $225 $344 forward 7 unknown #
coedge $-1 $138 $137 $345 $346 reversed $54 $-1 #
coedge $-1 $347 $348 $137 $229 forward $349 $-1 #
edge $-1 $350 -43.604264459989956 $234 -18.808471917433017 $228 $351 forward 7 unknown #
coedge $-1 $352 $336 $138 $231 forward $220 $-1 #
edge $-1 $233 18.808471917433017 $353 43.604264459989956 $230 $354 forward 7 unknown #
coedge $-1 $139 $225 $347 $355 reversed $134 $-1 #
vertex $-1 $231 $356 #
vertex $-1 $229 $357 #
straight-curve $-1 -50.014840106144504 0 2.5780574318731082 0 1 0 I I #
face $-1 $358 $359 $32 $-1 $360 reversed single #
loop $-1 $-1 $247 $141 #
plane-surface $-1 0 -40.722902014277416 0 0 1 0 0 0 1 forward_v I I I I #
coedge $-1 $361 $362 $363 $364 reversed $142 $-1 #
coedge $-1 $365 $144 $366 $367 reversed $89 $-1 #
coedge $-1 $144 $365 $368 $369 reversed $89 $-1 #
coedge $-1 $250 $249 $144 $243 forward $251 $-1 #
edge $-1 $370 -40.722902014277416 $371 40.722902014277416 $242 $372 forward 7 unknown #
coedge $-1 $146 $145 $362 $373 forward $57 $-1 #
coedge $-1 $374 $363 $145 $246 forward $359 $-1 #
edge $-1 $375 18.808471917433025 $252 43.604264459989963 $245 $376 forward 7 unknown #
coedge $-1 $377 $378 $146 $248 forward $237 $-1 #
edge $-1 $253 -43.604264459989963 $379 -18.808471917433025 $247 $380 forward 7 unknown #
coedge $-1 $242 $147 $378 $381 forward $251 $-1 #
coedge $-1 $147 $242 $374 $382 reversed $251 $-1 #
loop $-1 $-1 $147 $358 #
vertex $-1 $382 $383 #
vertex $-1 $381 $384 #
straight-curve $-1 74.810632648701443 0 2.5780574318731082 0 -1 0 I I #
face $-1 $-1 $385 $33 $-1 $386 forward single #
loop $-1 $-1 $387 $149 #
plane-surface $-1 0 -40.722902014277416 0 0 1 0 0 0 1 forward_v I I I I #
coedge $-1 $388 $389 $390 $391 forward $150 $-1 #
coedge $-1 $392 $152 $154 $265 forward $93 $-1 #
coedge $-1 $152 $392 $393 $394 forward $93 $-1 #
coedge $-1 $387 $155 $152 $262 forward $256 $-1 #
edge $-1 $268 4.6497301148516144 $395 31.793316699145812 $261 $396 forward 7 unknown #
coedge $-1 $389 $388 $153 $264 forward $150 $-1 #
edge $-1 $397 -55.733934426449608 $267 -43.763777630298343 $263 $398 forward 7 unknown #
edge $-1 $268 1.379460482718971e-014 $397 23.241305220580262 $154 $399 forward 7 unknown #
coedge $-1 $155 $387 $389 $400 reversed $256 $-1 #
vertex $-1 $400 $401 #
vertex $-1 $156 $402 #
straight-curve $-1 22.871253521850321 -40.722902014277409 38.576275051037776 0 0 -1 I I #
coedge $-1 $270 $270 $-1 $403 reversed $159 $-1 #
edge $-1 $404 0 $404 6.2831853071796004 $160 $405 forward 7 unknown #
vertex $-1 $163 $406 #
ellipse-curve $-1 30.6265639745058 -34.73782361620178 10.052747130076455 0 -0.85716730853699208 0.51503806187062418 1.5 0 0 1 I I #
coedge $-1 $274 $274 $-1 $407 reversed $166 $-1 #
edge $-1 $408 0 $408 6.2831853071796004 $167 $409 forward 7 unknown #
vertex $-1 $170 $410 #
ellipse-curve $-1 42.259529653489025 -34.73782361620178 10.052747130076455 0 -0.85716730853699208 0.51503806187062418 1.5 0 0 1 I I #
face $-1 $-1 $411 $36 $-1 $412 forward single #
loop $-1 $-1 $177 $171 #
plane-surface $-1 0 40.722902014277416 0 0 -1 0 0 0 -1 forward_v I I I I #
coedge $-1 $413 $414 $415 $416 reversed $172 $-1 #
coedge $-1 $417 $174 $176 $288 forward $107 $-1 #
coedge $-1 $174 $417 $413 $418 forward $107 $-1 #
coedge $-1 $415 $177 $174 $285 forward $279 $-1 #
edge $-1 $291 -24.275664816387668 $419 4.0682657194270107 $284 $420 forward 7 unknown #
coedge $-1 $421 $422 $175 $287 forward $411 $-1 #
edge $-1 $423 -31.545089580546012 $290 -22.789933103117555 $286 $424 forward 7 unknown #
edge $-1 $291 -81.445804028554875 $423 -64.44675652975522 $176 $425 forward 7 unknown #
coedge $-1 $177 $415 $421 $426 reversed $279 $-1 #
vertex $-1 $426 $427 #
vertex $-1 $178 $428 #
straight-curve $-1 34.379364364867996 40.722902014277416 76.157944991718082 0 0 -1 I I #
coedge $-1 $293 $293 $-1 $429 reversed $181 $-1 #
edge $-1 $430 0 $430 6.2831853071796004 $182 $431 forward 7 unknown #
vertex $-1 $185 $432 #
ellipse-curve $-1 11.704219936216248 36.345323775563187 12.728076755362926 0 0.85716730853699208 0.51503806187062418 1.5 0 0 1 I I #
coedge $-1 $297 $297 $-1 $433 reversed $188 $-1 #
edge $-1 $434 0 $434 6.2831853071796004 $189 $435 forward 7 unknown #
vertex $-1 $192 $436 #
ellipse-curve $-1 20.207399096960657 36.345323775563187 12.728076755362926 0 0.85716730853699208 0.51503806187062418 1.5 0 0 1 I I #
coedge $-1 $301 $301 $-1 $437 reversed $195 $-1 #
edge $-1 $438 0 $438 6.2831853071796004 $196 $439 forward 7 unknown #
vertex $-1 $199 $440 #
ellipse-curve $-1 28.710578257705066 36.345323775563187 12.728076755362926 0 0.85716730853699208 0.51503806187062418 1.5 0 0 1 I I #
face $-1 $-1 $215 $30 $-1 $441 reversed single #
loop $-1 $-1 $321 $200 #
plane-surface $-1 0 40.722902014277416 0 0 -1 0 0 0 -1 forward_v I I I I #
coedge $-1 $442 $319 $322 $443 forward $201 $-1 #
coedge $-1 $325 $203 $204 $313 reversed $126 $-1 #
coedge $-1 $319 $442 $203 $311 reversed $201 $-1 #
edge $-1 $326 -20.013590651482215 $444 20.013590651482215 $310 $445 forward 7 unknown #
coedge $-1 $205 $204 $442 $446 forward $81 $-1 #
edge $-1 $317 -74.810632648701443 $444 74.810632648701443 $309 $447 forward 7 unknown #
coedge $-1 $322 $321 $205 $315 reversed $306 $-1 #
edge $-1 $448 -74.810632648701443 $316 74.810632648701443 $314 $449 forward 7 unknown #
vertex $-1 $207 $450 #
vertex $-1 $328 $451 #
straight-curve $-1 74.810632648701443 0 -20.013590651482215 0 -1 0 I I #
coedge $-1 $308 $310 $208 $320 reversed $201 $-1 #
edge $-1 $323 -40.722902014277416 $326 40.722902014277416 $319 $452 forward 7 unknown #
coedge $-1 $314 $209 $214 $329 forward $306 $-1 #
coedge $-1 $209 $314 $308 $443 reversed $306 $-1 #
vertex $-1 $210 $453 #
straight-curve $-1 0 40.722902014277416 20.013590651482215 -1 0 0 I I #
coedge $-1 $211 $309 $213 $328 reversed $126 $-1 #
vertex $-1 $320 $454 #
straight-curve $-1 0 -40.722902014277416 20.013590651482215 1 0 0 I I #
edge $-1 $216 -20.013590651482215 $317 20.013590651482215 $213 $455 forward 7 unknown #
edge $-1 $217 -20.013590651482215 $316 20.013590651482215 $214 $456 forward 7 unknown #
point $-1 74.810632648701443 -40.722902014277416 20.013590651482215 #
point $-1 74.810632648701443 40.722902014277416 20.013590651482215 #
face $-1 $-1 $349 $31 $-1 $457 reversed single #
loop $-1 $-1 $458 $219 #
plane-surface $-1 -74.810632648701443 0 0 1 0 0 0 0 -1 forward_v I I I I #
coedge $-1 $336 $352 $223 $339 forward $220 $-1 #
coedge $-1 $230 $335 $222 $337 forward $220 $-1 #
edge $-1 $343 -7.4328888372287754 $233 4.1963345669916636 $336 $459 forward 7 unknown #
coedge $-1 $224 $223 $458 $460 reversed $85 $-1 #
edge $-1 $461 -43.604264459989956 $343 -18.808471917433017 $335 $462 forward 7 unknown #
coedge $-1 $348 $347 $224 $341 forward $349 $-1 #
edge $-1 $342 18.808471917433017 $463 43.604264459989956 $340 $464 forward 7 unknown #
vertex $-1 $341 $465 #
vertex $-1 $339 $466 #
straight-curve $-1 -50.014840106144504 0 -9.0511659723473308 0 -1 0 I I #
coedge $-1 $467 $468 $227 $346 forward $333 $-1 #
edge $-1 $353 -40.722902014277416 $350 40.722902014277416 $345 $469 forward 7 unknown #
coedge $-1 $340 $228 $232 $355 forward $349 $-1 #
coedge $-1 $228 $340 $467 $470 reversed $349 $-1 #
loop $-1 $-1 $340 $332 #
vertex $-1 $470 $471 #
straight-curve $-1 -31.206368188711487 40.722902014277416 2.5780574318731082 1 0 0 I I #
coedge $-1 $335 $230 $468 $472 forward $220 $-1 #
vertex $-1 $472 $473 #
straight-curve $-1 -31.206368188711487 -40.722902014277416 2.5780574318731082 -1 0 0 I I #
edge $-1 $234 -4.1963345669916636 $342 7.4328888372287754 $347 $474 forward 7 unknown #
point $-1 -50.014840106144504 -40.722902014277416 2.5780574318731082 #
point $-1 -50.014840106144504 40.722902014277416 2.5780574318731082 #
face $-1 $-1 $251 $32 $-1 $475 reversed single #
loop $-1 $-1 $245 $236 #
plane-surface $-1 0 40.722902014277416 0 0 -1 0 0 0 -1 forward_v I I I I #
coedge $-1 $476 $239 $365 $477 reversed $142 $-1 #
coedge $-1 $239 $476 $244 $373 reversed $142 $-1 #
coedge $-1 $245 $368 $239 $364 forward $359 $-1 #
edge $-1 $478 -7.4328888372287754 $375 4.1963345669916636 $363 $479 forward 7 unknown #
coedge $-1 $241 $240 $361 $477 forward $89 $-1 #
coedge $-1 $378 $377 $240 $367 forward $237 $-1 #
edge $-1 $480 18.808471917433025 $370 43.604264459989963 $366 $481 forward 7 unknown #
coedge $-1 $363 $374 $241 $369 forward $359 $-1 #
edge $-1 $371 -43.604264459989963 $478 -18.808471917433025 $368 $482 forward 7 unknown #
vertex $-1 $243 $483 #
vertex $-1 $243 $484 #
straight-curve $-1 74.810632648701443 0 -9.0511659723473308 0 1 0 I I #
edge $-1 $375 -40.722902014277416 $379 40.722902014277416 $362 $485 forward 7 unknown #
coedge $-1 $368 $245 $250 $382 forward $359 $-1 #
vertex $-1 $246 $486 #
straight-curve $-1 31.206368188711494 40.722902014277416 2.5780574318731082 1 0 0 I I #
coedge $-1 $366 $247 $476 $487 forward $237 $-1 #
coedge $-1 $247 $366 $249 $381 reversed $237 $-1 #
vertex $-1 $248 $488 #
straight-curve $-1 31.206368188711494 -40.722902014277416 2.5780574318731082 -1 0 0 I I #
edge $-1 $253 -2.5780574318731082 $370 9.0511659723473308 $249 $489 forward 7 unknown #
edge $-1 $252 -2.5780574318731082 $371 9.0511659723473308 $250 $490 forward 7 unknown #
point $-1 74.810632648701457 40.722902014277416 2.5780574318731082 #
point $-1 74.810632648701457 -40.722902014277416 2.5780574318731082 #
loop $-1 $-1 $393 $255 #
plane-surface $-1 50.014840106144518 0 -3.2365542702371108 1 0 0 0 0 -1 forward_v I I I I #
coedge $-1 $266 $261 $491 $492 forward $256 $-1 #
coedge $-1 $263 $258 $392 $493 forward $150 $-1 #
coedge $-1 $258 $263 $266 $400 forward $150 $-1 #
coedge $-1 $491 $393 $258 $391 reversed $385 $-1 #
edge $-1 $494 43.763777630298343 $495 55.733934426449608 $258 $496 forward 7 unknown #
coedge $-1 $260 $259 $388 $493 reversed $93 $-1 #
coedge $-1 $390 $491 $260 $394 reversed $385 $-1 #
edge $-1 $495 -23.241305220580262 $395 -1.3747022483095021e-014 $393 $497 forward 7 unknown #
vertex $-1 $492 $498 #
straight-curve $-1 18.221523406998706 -40.722902014277416 0.091903608670709624 1 0 0 I I #
vertex $-1 $264 $499 #
straight-curve $-1 22.871253521850321 -84.486679644575759 20.013590651482215 0 -1 0 I I #
straight-curve $-1 22.871253521850321 -40.722902014277423 0.091903608670691028 0 0.51503806187062418 0.85716730853699208 I I #
edge $-1 $267 22.871253521850321 $494 50.014840106144504 $266 $500 forward 7 unknown #
point $-1 22.871253521850321 -40.722902014277416 20.013590651482215 #
point $-1 22.871253521850321 -40.722902014277416 0.091903608670702852 #
edge $-1 $501 1 $501 0 $270 $-1 forward 7 unknown #
vertex $-1 $271 $502 #
ellipse-curve $-1 30.6265639745058 -30.48829641597262 7.499373673956045 0 -0.85716730853699208 0.51503806187062418 1.5 0 0 1 I I #
point $-1 32.1265639745058 -34.73782361620178 10.052747130076449 #
edge $-1 $503 1 $503 0 $274 $-1 forward 7 unknown #
vertex $-1 $275 $504 #
ellipse-curve $-1 42.259529653489025 -30.48829641597262 7.499373673956045 0 -0.85716730853699208 0.51503806187062418 1.5 0 0 1 I I #
point $-1 43.759529653489025 -34.73782361620178 10.052747130076449 #
loop $-1 $-1 $286 $278 #
plane-surface $-1 0 0 20.013590651482215 0 0 1 1 0 0 forward_v I I I I #
coedge $-1 $414 $281 $283 $418 reversed $172 $-1 #
coedge $-1 $281 $413 $505 $506 reversed $172 $-1 #
coedge $-1 $289 $284 $281 $416 forward $279 $-1 #
edge $-1 $419 -70.715382132474446 $507 -56.144354340235864 $415 $508 forward 7 unknown #
coedge $-1 $283 $282 $422 $509 reversed $107 $-1 #
edge $-1 $510 64.44675652975522 $419 81.445804028554875 $413 $511 forward 7 unknown #
vertex $-1 $285 $512 #
straight-curve $-1 10.103699548480328 40.722902014277409 5.4425628592436297 -1 0 0 I I #
coedge $-1 $505 $286 $289 $426 forward $411 $-1 #
coedge $-1 $286 $505 $417 $509 forward $411 $-1 #
vertex $-1 $287 $513 #
straight-curve $-1 34.379364364867996 63.512835117394971 20.013590651482218 0 1 0 I I #
straight-curve $-1 34.379364364867996 -1.2247870400841521 75.255243490031305 0 -0.51503806187062418 0.85716730853699208 I I #
edge $-1 $290 -34.379364364867996 $507 -6.0354338290533178 $289 $514 forward 7 unknown #
point $-1 34.379364364867996 40.722902014277416 20.013590651482215 #
point $-1 34.379364364867996 40.722902014277423 5.4425628592436368 #
edge $-1 $515 1 $515 0 $293 $-1 forward 7 unknown #
vertex $-1 $294 $516 #
ellipse-curve $-1 11.704219936216248 31.705209549247865 9.9400149450511055 0 0.85716730853699208 0.51503806187062418 1.5 0 0 1 I I #
point $-1 13.204219936216248 36.345323775563202 12.728076755362929 #
edge $-1 $517 1 $517 0 $297 $-1 forward 7 unknown #
vertex $-1 $298 $518 #
ellipse-curve $-1 20.207399096960657 31.705209549247865 9.9400149450511055 0 0.85716730853699208 0.51503806187062418 1.5 0 0 1 I I #
point $-1 21.707399096960657 36.345323775563202 12.728076755362929 #
edge $-1 $519 1 $519 0 $301 $-1 forward 7 unknown #
vertex $-1 $302 $520 #
ellipse-curve $-1 28.710578257705066 31.705209549247865 9.9400149450511055 0 0.85716730853699208 0.51503806187062418 1.5 0 0 1 I I #
point $-1 30.210578257705066 36.345323775563202 12.728076755362929 #
plane-surface $-1 74.810632648701443 0 0 -1 0 0 0 0 1 forward_v I I I I #
coedge $-1 $310 $308 $312 $446 reversed $201 $-1 #
edge $-1 $323 -20.013590651482215 $448 20.013590651482215 $322 $521 forward 7 unknown #
vertex $-1 $446 $522 #
straight-curve $-1 -74.810632648701443 -40.722902014277416 0 0 0 -1 I I #
edge $-1 $444 -40.722902014277416 $448 40.722902014277416 $442 $523 forward 7 unknown #
straight-curve $-1 0 -40.722902014277416 -20.013590651482215 -1 0 0 I I #
vertex $-1 $315 $524 #
straight-curve $-1 0 40.722902014277416 -20.013590651482215 1 0 0 I I #
point $-1 74.810632648701443 40.722902014277416 -20.013590651482215 #
point $-1 74.810632648701443 -40.722902014277416 -20.013590651482215 #
straight-curve $-1 -74.810632648701443 0 20.013590651482215 0 -1 0 I I #
point $-1 -74.810632648701443 40.722902014277416 20.013590651482215 #
point $-1 -74.810632648701443 -40.722902014277416 20.013590651482215 #
straight-curve $-1 74.810632648701443 -40.722902014277416 0 0 0 -1 I I #
straight-curve $-1 74.810632648701443 40.722902014277416 0 0 0 -1 I I #
plane-surface $-1 0 40.722902014277416 0 0 -1 0 0 0 -1 forward_v I I I I #
coedge $-1 $468 $467 $338 $460 forward $333 $-1 #
straight-curve $-1 -50.014840106144504 -40.722902014277416 -1.6182771351185554 0 0 1 I I #
edge $-1 $463 -40.722902014277416 $461 40.722902014277416 $458 $525 forward 7 unknown #
vertex $-1 $339 $526 #
straight-curve $-1 -31.206368188711487 -40.722902014277416 -9.0511659723473308 1 0 0 I I #
vertex $-1 $341 $527 #
straight-curve $-1 -31.206368188711487 40.722902014277416 -9.0511659723473308 -1 0 0 I I #
point $-1 -50.014840106144504 40.722902014277416 -9.0511659723473308 #
point $-1 -50.014840106144504 -40.722902014277416 -9.0511659723473308 #
coedge $-1 $458 $345 $348 $470 forward $333 $-1 #
coedge $-1 $345 $458 $352 $472 reversed $333 $-1 #
straight-curve $-1 -74.810632648701443 0 2.5780574318731082 0 1 0 I I #
edge $-1 $350 -2.5780574318731082 $463 9.0511659723473308 $348 $528 forward 7 unknown #
point $-1 -74.810632648701443 40.722902014277416 2.5780574318731082 #
edge $-1 $353 -2.5780574318731082 $461 9.0511659723473308 $468 $529 forward 7 unknown #
point $-1 -74.810632648701443 -40.722902014277416 2.5780574318731082 #
straight-curve $-1 -50.014840106144504 40.722902014277416 -1.6182771351185554 0 0 -1 I I #
plane-surface $-1 74.810632648701443 0 0 -1 0 0 0 0 1 forward_v I I I I #
coedge $-1 $362 $361 $377 $487 reversed $142 $-1 #
edge $-1 $480 -40.722902014277416 $478 40.722902014277416 $361 $530 forward 7 unknown #
vertex $-1 $369 $531 #
straight-curve $-1 50.014840106144518 40.722902014277416 -1.6182771351185554 0 0 1 I I #
vertex $-1 $367 $532 #
straight-curve $-1 31.206368188711494 -40.722902014277416 -9.0511659723473308 1 0 0 I I #
straight-curve $-1 31.206368188711494 40.722902014277416 -9.0511659723473308 -1 0 0 I I #
point $-1 74.810632648701457 -40.722902014277416 -9.0511659723473308 #
point $-1 74.810632648701457 40.722902014277416 -9.0511659723473308 #
straight-curve $-1 50.014840106144518 0 2.5780574318731082 0 -1 0 I I #
point $-1 50.014840106144518 40.722902014277416 2.5780574318731082 #
edge $-1 $379 -4.1963345669916636 $480 7.4328888372287754 $377 $533 forward 7 unknown #
point $-1 50.014840106144518 -40.722902014277416 2.5780574318731082 #
straight-curve $-1 74.810632648701443 -40.722902014277416 0 0 0 -1 I I #
straight-curve $-1 74.810632648701443 40.722902014277416 0 0 0 -1 I I #
coedge $-1 $393 $390 $387 $492 reversed $385 $-1 #
edge $-1 $395 -38.48437144236707 $494 -18.562684399555561 $387 $534 forward 7 unknown #
edge $-1 $495 -31.793316699145798 $397 -4.6497301148516144 $388 $535 forward 7 unknown #
vertex $-1 $391 $536 #
vertex $-1 $493 $537 #
straight-curve $-1 50.014840106144504 -84.486679644575759 20.013590651482215 0 1 0 I I #
straight-curve $-1 50.014840106144504 -40.722902014277423 0.091903608670691028 0 -0.51503806187062418 -0.85716730853699208 I I #
point $-1 50.014840106144518 -40.722902014277416 0.091903608670702797 #
point $-1 22.871253521850321 -28.752745218126147 20.013590651482215 #
straight-curve $-1 0 -40.722902014277416 20.013590651482215 1 0 0 I I #
vertex $-1 $403 $538 #
point $-1 32.1265639745058 -30.48829641597262 7.499373673956045 #
vertex $-1 $407 $539 #
point $-1 43.759529653489025 -30.48829641597262 7.499373673956045 #
coedge $-1 $422 $421 $414 $506 forward $411 $-1 #
edge $-1 $507 22.789933103117555 $510 31.545089580546012 $505 $540 forward 7 unknown #
vertex $-1 $506 $541 #
straight-curve $-1 6.0354338290533178 40.722902014277416 76.157944991718082 0 0 1 I I #
edge $-1 $510 -4.0682657194270107 $423 24.275664816387668 $422 $542 forward 7 unknown #
vertex $-1 $509 $543 #
straight-curve $-1 6.0354338290533178 -1.2247870400841521 75.255243490031305 0 0.51503806187062418 -0.85716730853699208 I I #
point $-1 6.0354338290533178 40.722902014277423 5.4425628592436368 #
point $-1 34.379364364867996 31.967745536848959 20.013590651482218 #
straight-curve $-1 0 40.722902014277416 20.013590651482215 -1 0 0 I I #
vertex $-1 $429 $544 #
point $-1 13.204219936216248 31.705209549247865 9.9400149450511055 #
vertex $-1 $433 $545 #
point $-1 21.707399096960657 31.705209549247865 9.9400149450511055 #
vertex $-1 $437 $546 #
point $-1 30.210578257705066 31.705209549247865 9.9400149450511055 #
straight-curve $-1 -74.810632648701443 40.722902014277416 0 0 0 -1 I I #
point $-1 -74.810632648701443 -40.722902014277416 -20.013590651482215 #
straight-curve $-1 -74.810632648701443 0 -20.013590651482215 0 1 0 I I #
point $-1 -74.810632648701443 40.722902014277416 -20.013590651482215 #
straight-curve $-1 -74.810632648701443 0 -9.0511659723473308 0 -1 0 I I #
point $-1 -74.810632648701443 -40.722902014277416 -9.0511659723473308 #
point $-1 -74.810632648701443 40.722902014277416 -9.0511659723473308 #
straight-curve $-1 -74.810632648701443 40.722902014277416 0 0 0 -1 I I #
straight-curve $-1 -74.810632648701443 -40.722902014277416 0 0 0 -1 I I #
straight-curve $-1 50.014840106144518 0 -9.0511659723473308 0 1 0 I I #
point $-1 50.014840106144518 40.722902014277416 -9.0511659723473308 #
point $-1 50.014840106144518 -40.722902014277416 -9.0511659723473308 #
straight-curve $-1 50.014840106144518 -40.722902014277416 -1.6182771351185554 0 0 -1 I I #
straight-curve $-1 50.014840106144504 -40.722902014277409 38.576275051037776 0 0 1 I I #
straight-curve $-1 18.221523406998706 -28.752745218126144 20.013590651482215 -1 0 0 I I #
point $-1 50.014840106144504 -40.722902014277416 20.013590651482215 #
point $-1 50.014840106144504 -28.752745218126147 20.013590651482215 #
point $-1 30.6265639745058 -29.202545453167133 6.7268165811501088 #
point $-1 42.259529653489025 -29.202545453167133 6.7268165811501088 #
straight-curve $-1 6.0354338290533178 63.512835117394971 20.013590651482218 0 -1 0 I I #
point $-1 6.0354338290533178 40.722902014277416 20.013590651482215 #
straight-curve $-1 10.103699548480328 31.967745536848959 20.013590651482218 1 0 0 I I #
point $-1 6.0354338290533178 31.967745536848959 20.013590651482218 #
point $-1 11.704219936216248 30.419458586442378 9.1674578522451693 #
point $-1 20.207399096960657 30.419458586442378 9.1674578522451693 #
point $-1 28.710578257705066 30.419458586442378 9.1674578522451693 #
End-of-ACIS-data 