500 0 10 0           
7 Unknown 11 ACIS 5.0 NT 24 Fri Mar 26 18:43:44 1999 
-1 9.9999999999999995e-007 1e-010 
body $-1 $10 $-1 $11 #
body $-1 $12 $-1 $13 #
body $-1 $14 $-1 $15 #
body $-1 $16 $-1 $17 #
body $-1 $18 $-1 $19 #
body $-1 $20 $-1 $21 #
body $-1 $22 $-1 $23 #
body $-1 $24 $-1 $25 #
body $-1 $26 $-1 $27 #
body $-1 $28 $-1 $29 #
lump $-1 $-1 $30 $0 #
transform $-1 1 0 0 0 1 0 0 0 1 58.242744224372082 28.745790220202952 8.6112797089294162 1 rotate no_reflect no_shear #
lump $-1 $-1 $31 $1 #
transform $-1 1 0 0 0 1 0 0 0 1 58.242744224372082 28.745790220202952 8.6112797089294162 1 rotate no_reflect no_shear #
lump $-1 $-1 $32 $2 #
transform $-1 1 0 0 0 1 0 0 0 1 58.242744224372082 28.745790220202952 8.6112797089294162 1 rotate no_reflect no_shear #
lump $-1 $-1 $33 $3 #
transform $-1 1 0 0 0 1 0 0 0 1 58.242744224372082 28.745790220202952 8.6112797089294162 1 rotate no_reflect no_shear #
lump $-1 $-1 $34 $4 #
transform $-1 1 0 0 0 1 0 0 0 1 58.242744224372082 28.745790220202952 8.6112797089294162 1 rotate no_reflect no_shear #
lump $-1 $-1 $35 $5 #
transform $-1 1 0 0 0 1 0 0 0 1 58.242744224372082 28.745790220202952 8.6112797089294162 1 rotate no_reflect no_shear #
lump $-1 $-1 $36 $6 #
transform $-1 1 0 0 0 1 0 0 0 1 58.242744224372082 28.745790220202952 8.6112797089294162 1 rotate no_reflect no_shear #
lump $-1 $-1 $37 $7 #
transform $-1 1 0 0 0 1 0 0 0 1 58.242744224372082 28.745790220202952 8.6112797089294162 1 rotate no_reflect no_shear #
lump $-1 $-1 $38 $8 #
transform $-1 1 0 0 0 1 0 0 0 1 58.242744224372082 28.745790220202952 8.6112797089294162 1 rotate no_reflect no_shear #
lump $-1 $-1 $39 $9 #
transform $-1 1 0 0 0 1 0 0 0 1 58.242744224372082 28.745790220202952 8.6112797089294162 1 rotate no_reflect no_shear #
shell $-1 $-1 $-1 $40 $-1 $10 #
shell $-1 $-1 $-1 $41 $-1 $12 #
shell $-1 $-1 $-1 $42 $-1 $14 #
shell $-1 $-1 $-1 $43 $-1 $16 #
shell $-1 $-1 $-1 $44 $-1 $18 #
shell $-1 $-1 $-1 $45 $-1 $20 #
shell $-1 $-1 $-1 $46 $-1 $22 #
shell $-1 $-1 $-1 $47 $-1 $24 #
shell $-1 $-1 $-1 $48 $-1 $26 #
shell $-1 $-1 $-1 $49 $-1 $28 #
face $-1 $50 $51 $30 $-1 $52 forward single #
face $-1 $53 $54 $31 $-1 $55 reversed single #
face $-1 $56 $57 $32 $-1 $58 reversed single #
face $-1 $59 $60 $33 $-1 $61 forward single #
face $-1 $62 $63 $34 $-1 $64 forward single #
face $-1 $65 $66 $35 $-1 $67 forward single #
face $-1 $68 $69 $36 $-1 $70 reversed single #
face $-1 $71 $72 $37 $-1 $73 forward single #
face $-1 $74 $75 $38 $-1 $76 forward single #
face $-1 $77 $78 $39 $-1 $79 forward single #
face $-1 $80 $81 $30 $-1 $82 reversed single #
loop $-1 $-1 $83 $40 #
plane-surface $-1 0 0 8.6112797089294162 0 0 1 1 0 0 forward_v I I I I #
face $-1 $84 $85 $31 $-1 $86 reversed single #
loop $-1 $-1 $87 $41 #
plane-surface $-1 -56.742744224372082 -21.417516814535762 0 0 -1 0 0 0 -1 forward_v I I I I #
face $-1 $88 $89 $32 $-1 $90 reversed single #
loop $-1 $-1 $91 $42 #
plane-surface $-1 -140.61042397198159 0.020994401214066372 85.077504494607311 0 1 0 -0.70710678939079041 0 0.70710677298230451 forward_v I I I I #
face $-1 $92 $93 $33 $-1 $94 forward single #
loop $-1 $95 $96 $43 #
cone-surface $-1 -54.66021384817148 2.7990378814646597 5.0287492789179735 0.70710678939079041 0 -0.70710677298230451 0.70710677298230451 0 0.70710678939079041 1 I I 0 1 1 forward I I I I #
face $-1 $97 $98 $34 $-1 $99 forward single #
loop $-1 $100 $101 $44 #
cone-surface $-1 -54.66021384817148 6.9661031018405488 5.0287492789179735 0.70710678939079041 0 -0.70710677298230451 0.70710677298230451 0 0.70710678939079041 1 I I 0 1 1 forward I I I I #
face $-1 $102 $103 $35 $-1 $104 forward single #
loop $-1 $105 $106 $45 #
cone-surface $-1 -54.66021384817148 11.133168322216438 5.0287492789179735 0.70710678939079041 0 -0.70710677298230451 0.70710677298230451 0 0.70710678939079041 1 I I 0 1 1 forward I I I I #
face $-1 $107 $108 $36 $-1 $109 reversed single #
loop $-1 $-1 $110 $46 #
plane-surface $-1 58.242746135722591 13.911211802467031 167.44518424221678 0 -1 0 -0.70710678939079041 0 -0.70710677298230451 forward_v I I I I #
face $-1 $111 $112 $37 $-1 $113 forward single #
loop $-1 $114 $115 $47 #
cone-surface $-1 54.660213848171473 2.7990378814646597 5.0287492789179593 -0.70710678939079041 0 -0.70710677298230451 0.70710677298230451 0 -0.70710678939079041 1 I I 0 1 1 forward I I I I #
face $-1 $116 $117 $38 $-1 $118 forward single #
loop $-1 $119 $120 $48 #
cone-surface $-1 54.660213848171473 6.9661031018405488 5.0287492789179593 -0.70710678939079041 0 -0.70710677298230451 0.70710677298230451 0 -0.70710678939079041 1 I I 0 1 1 forward I I I I #
face $-1 $121 $122 $39 $-1 $123 forward single #
loop $-1 $124 $125 $49 #
cone-surface $-1 54.660213848171473 11.133168322216438 5.0287492789179593 -0.70710678939079041 0 -0.70710677298230451 0.70710677298230451 0 -0.70710678939079041 1 I I 0 1 1 forward I I I I #
face $-1 $126 $127 $30 $-1 $128 reversed single #
loop $-1 $-1 $129 $50 #
plane-surface $-1 0 0 -8.6112797089294162 0 0 1 1 0 0 forward_v I I I I #
coedge $-1 $130 $131 $132 $133 forward $51 $-1 #
face $-1 $134 $135 $31 $-1 $136 forward single #
loop $-1 $-1 $137 $53 #
plane-surface $-1 -55.242744224372082 -25.081653517369357 0 -1 0 0 0 0 1 forward_v I I I I #
coedge $-1 $138 $139 $140 $141 forward $54 $-1 #
face $-1 $142 $143 $32 $-1 $144 reversed single #
loop $-1 $-1 $145 $56 #
plane-surface $-1 -58.242744224372103 6.9661031018405488 2.7098266583483195 -0.70710678939079041 0 0.70710677298230451 0.70710677298230451 0 0.70710678939079041 forward_v I I I I #
coedge $-1 $146 $147 $148 $149 reversed $57 $-1 #
face $-1 $-1 $150 $33 $-1 $151 forward single #
loop $-1 $152 $153 $59 #
cone-surface $-1 -53.674856534094118 2.7990378814646597 4.043391987705931 0.70710678939079041 0 -0.70710677298230451 0.35355338649115226 0 0.35355339469539521 1 I I -0.70710678118654746 0.70710678118654746 0.5 forward I I I I #
loop $-1 $-1 $154 $43 #
coedge $-1 $96 $96 $155 $156 reversed $60 $-1 #
face $-1 $-1 $157 $34 $-1 $158 forward single #
loop $-1 $159 $160 $62 #
cone-surface $-1 -53.674856534094118 6.9661031018405488 4.043391987705931 0.70710678939079041 0 -0.70710677298230451 0.35355338649115226 0 0.35355339469539521 1 I I -0.70710678118654746 0.70710678118654746 0.5 forward I I I I #
loop $-1 $-1 $161 $44 #
coedge $-1 $101 $101 $162 $163 reversed $63 $-1 #
face $-1 $-1 $164 $35 $-1 $165 forward single #
loop $-1 $166 $167 $65 #
cone-surface $-1 -53.674856534094118 11.133168322216438 4.043391987705931 0.70710678939079041 0 -0.70710677298230451 0.35355338649115226 0 0.35355339469539521 1 I I -0.70710678118654746 0.70710678118654746 0.5 forward I I I I #
loop $-1 $-1 $168 $45 #
coedge $-1 $106 $106 $169 $170 reversed $66 $-1 #
face $-1 $171 $172 $36 $-1 $173 reversed single #
loop $-1 $-1 $174 $68 #
plane-surface $-1 -24.124933611886895 6.9661031018405488 85.077506405957791 0.70710678939079041 0 0.70710677298230451 0.70710677298230451 0 -0.70710678939079041 forward_v I I I I #
coedge $-1 $175 $176 $177 $178 reversed $69 $-1 #
face $-1 $-1 $179 $37 $-1 $180 forward single #
loop $-1 $181 $182 $71 #
cone-surface $-1 53.674856534094111 2.7990378814646597 4.0433919877059168 -0.70710678939079041 0 -0.70710677298230451 0.35355338649115226 0 -0.35355339469539521 1 I I -0.70710678118654746 0.70710678118654746 0.5 forward I I I I #
loop $-1 $-1 $183 $47 #
coedge $-1 $115 $115 $184 $185 reversed $72 $-1 #
face $-1 $-1 $186 $38 $-1 $187 forward single #
loop $-1 $188 $189 $74 #
cone-surface $-1 53.674856534094111 6.9661031018405488 4.0433919877059168 -0.70710678939079041 0 -0.70710677298230451 0.35355338649115226 0 -0.35355339469539521 1 I I -0.70710678118654746 0.70710678118654746 0.5 forward I I I I #
loop $-1 $-1 $190 $48 #
coedge $-1 $120 $120 $191 $192 reversed $75 $-1 #
face $-1 $-1 $193 $39 $-1 $194 forward single #
loop $-1 $195 $196 $77 #
cone-surface $-1 53.674856534094111 11.133168322216438 4.0433919877059168 -0.70710678939079041 0 -0.70710677298230451 0.35355338649115226 0 -0.35355339469539521 1 I I -0.70710678118654746 0.70710678118654746 0.5 forward I I I I #
loop $-1 $-1 $197 $49 #
coedge $-1 $125 $125 $198 $199 reversed $78 $-1 #
face $-1 $200 $201 $30 $-1 $202 reversed single #
loop $-1 $-1 $203 $80 #
plane-surface $-1 0 -28.745790220202952 0 0 1 0 0 0 1 forward_v I I I I #
coedge $-1 $204 $205 $206 $207 forward $81 $-1 #
coedge $-1 $208 $83 $209 $210 forward $51 $-1 #
coedge $-1 $83 $208 $211 $212 forward $51 $-1 #
coedge $-1 $213 $214 $83 $133 reversed $215 $-1 #
edge $-1 $216 -28.745790220202952 $217 28.745790220202952 $132 $218 forward 7 unknown #
face $-1 $219 $220 $31 $-1 $221 reversed single #
loop $-1 $-1 $222 $84 #
plane-surface $-1 0 0 8.6112797089294162 0 0 1 1 0 0 forward_v I I I I #
coedge $-1 $223 $224 $225 $226 reversed $85 $-1 #
coedge $-1 $227 $87 $228 $229 reversed $54 $-1 #
coedge $-1 $87 $227 $230 $231 reversed $54 $-1 #
coedge $-1 $224 $223 $87 $141 reversed $85 $-1 #
edge $-1 $232 -8.6112797089294162 $233 8.6112797089294162 $140 $234 forward 7 unknown #
face $-1 $235 $236 $32 $-1 $237 reversed single #
loop $-1 $-1 $238 $88 #
plane-surface $-1 -140.61042397198159 13.911211802467031 85.077504494607311 0 -1 0 0.70710678939079041 0 -0.70710677298230451 forward_v I I I I #
coedge $-1 $239 $240 $241 $242 reversed $89 $-1 #
coedge $-1 $147 $91 $243 $244 reversed $57 $-1 #
coedge $-1 $91 $146 $239 $245 reversed $57 $-1 #
coedge $-1 $241 $246 $91 $149 forward $247 $-1 #
edge $-1 $248 12.062467761618713 $249 17.963920675255963 $148 $250 forward 7 unknown #
loop $-1 $-1 $155 $92 #
plane-surface $-1 -58.242744224372103 6.9661031018405488 2.7098266583483195 -0.70710678939079041 0 0.70710677298230451 0.70710677298230451 0 0.70710678939079041 forward_v I I I I #
loop $-1 $-1 $251 $59 #
coedge $-1 $153 $153 $154 $252 reversed $93 $-1 #
coedge $-1 $154 $154 $153 $252 forward $95 $-1 #
coedge $-1 $155 $155 $96 $156 forward $150 $-1 #
edge $-1 $253 0 $253 6.2831853071796004 $155 $254 forward 7 unknown #
loop $-1 $-1 $162 $97 #
plane-surface $-1 -58.242744224372103 6.9661031018405488 2.7098266583483195 -0.70710678939079041 0 0.70710677298230451 0.70710677298230451 0 0.70710678939079041 forward_v I I I I #
loop $-1 $-1 $255 $62 #
coedge $-1 $160 $160 $161 $256 reversed $98 $-1 #
coedge $-1 $161 $161 $160 $256 forward $100 $-1 #
coedge $-1 $162 $162 $101 $163 forward $157 $-1 #
edge $-1 $257 0 $257 6.2831853071796004 $162 $258 forward 7 unknown #
loop $-1 $-1 $169 $102 #
plane-surface $-1 -58.242744224372103 6.9661031018405488 2.7098266583483195 -0.70710678939079041 0 0.70710677298230451 0.70710677298230451 0 0.70710678939079041 forward_v I I I I #
loop $-1 $-1 $259 $65 #
coedge $-1 $167 $167 $168 $260 reversed $103 $-1 #
coedge $-1 $168 $168 $167 $260 forward $105 $-1 #
coedge $-1 $169 $169 $106 $170 forward $164 $-1 #
edge $-1 $261 0 $261 6.2831853071796004 $169 $262 forward 7 unknown #
face $-1 $263 $264 $36 $-1 $265 forward single #
loop $-1 $-1 $266 $107 #
plane-surface $-1 58.242746135722591 0.020994401214066372 167.44518424221678 0 1 0 0.70710678939079041 0 0.70710677298230451 forward_v I I I I #
coedge $-1 $267 $268 $269 $270 reversed $108 $-1 #
coedge $-1 $176 $110 $271 $272 reversed $69 $-1 #
coedge $-1 $110 $175 $267 $273 reversed $69 $-1 #
coedge $-1 $269 $274 $110 $178 forward $264 $-1 #
edge $-1 $275 -29.121371156510786 $276 -23.219918242873515 $177 $277 forward 7 unknown #
loop $-1 $-1 $184 $111 #
plane-surface $-1 -24.124933611886895 6.9661031018405488 85.077506405957791 0.70710678939079041 0 0.70710677298230451 0.70710677298230451 0 -0.70710678939079041 forward_v I I I I #
loop $-1 $-1 $278 $71 #
coedge $-1 $182 $182 $183 $279 reversed $112 $-1 #
coedge $-1 $183 $183 $182 $279 forward $114 $-1 #
coedge $-1 $184 $184 $115 $185 forward $179 $-1 #
edge $-1 $280 0 $280 6.2831853071796004 $184 $281 forward 7 unknown #
loop $-1 $-1 $191 $116 #
plane-surface $-1 -24.124933611886895 6.9661031018405488 85.077506405957791 0.70710678939079041 0 0.70710677298230451 0.70710677298230451 0 -0.70710678939079041 forward_v I I I I #
loop $-1 $-1 $282 $74 #
coedge $-1 $189 $189 $190 $283 reversed $117 $-1 #
coedge $-1 $190 $190 $189 $283 forward $119 $-1 #
coedge $-1 $191 $191 $120 $192 forward $186 $-1 #
edge $-1 $284 0 $284 6.2831853071796004 $191 $285 forward 7 unknown #
loop $-1 $-1 $198 $121 #
plane-surface $-1 -24.124933611886895 6.9661031018405488 85.077506405957791 0.70710678939079041 0 0.70710677298230451 0.70710677298230451 0 -0.70710678939079041 forward_v I I I I #
loop $-1 $-1 $286 $77 #
coedge $-1 $196 $196 $197 $287 reversed $122 $-1 #
coedge $-1 $197 $197 $196 $287 forward $124 $-1 #
coedge $-1 $198 $198 $125 $199 forward $193 $-1 #
edge $-1 $288 0 $288 6.2831853071796004 $198 $289 forward 7 unknown #
face $-1 $290 $291 $30 $-1 $292 reversed single #
loop $-1 $-1 $293 $126 #
plane-surface $-1 -58.242744224372082 0 0 1 0 0 0 0 -1 forward_v I I I I #
coedge $-1 $294 $211 $295 $296 forward $127 $-1 #
coedge $-1 $297 $129 $294 $298 forward $81 $-1 #
coedge $-1 $129 $297 $299 $300 forward $81 $-1 #
coedge $-1 $214 $213 $129 $207 reversed $215 $-1 #
edge $-1 $301 -28.745790220202952 $302 28.745790220202952 $206 $303 forward 7 unknown #
coedge $-1 $131 $130 $304 $305 forward $51 $-1 #
coedge $-1 $306 $307 $130 $210 reversed $291 $-1 #
edge $-1 $217 -58.242744224372082 $308 58.242744224372082 $209 $309 forward 7 unknown #
coedge $-1 $203 $310 $131 $212 reversed $127 $-1 #
edge $-1 $311 -58.242744224372082 $216 58.242744224372082 $211 $312 forward 7 unknown #
coedge $-1 $206 $132 $310 $313 forward $215 $-1 #
coedge $-1 $132 $206 $306 $314 reversed $215 $-1 #
loop $-1 $-1 $213 $290 #
vertex $-1 $133 $315 #
vertex $-1 $133 $316 #
straight-curve $-1 58.242744224372082 0 8.6112797089294162 0 1 0 I I #
face $-1 $317 $318 $31 $-1 $319 reversed single #
loop $-1 $-1 $320 $134 #
plane-surface $-1 -58.242744224372082 0 0 1 0 0 0 0 -1 forward_v I I I I #
coedge $-1 $230 $321 $224 $322 forward $135 $-1 #
coedge $-1 $140 $137 $323 $324 reversed $85 $-1 #
coedge $-1 $137 $140 $222 $322 reversed $85 $-1 #
coedge $-1 $325 $326 $137 $226 forward $327 $-1 #
edge $-1 $328 -8.6112797089294162 $329 8.6112797089294162 $225 $330 forward 7 unknown #
coedge $-1 $139 $138 $320 $331 reversed $54 $-1 #
coedge $-1 $323 $332 $138 $229 forward $318 $-1 #
edge $-1 $333 -29.871372112186041 $233 -26.871372112186041 $228 $334 forward 7 unknown #
coedge $-1 $335 $222 $139 $231 forward $135 $-1 #
edge $-1 $232 26.871372112186041 $336 29.871372112186041 $230 $337 forward 7 unknown #
vertex $-1 $231 $338 #
vertex $-1 $229 $339 #
straight-curve $-1 -55.242744224372082 -21.417516814535762 0 0 0 -1 I I #
face $-1 $-1 $247 $32 $-1 $340 forward single #
loop $-1 $-1 $341 $142 #
plane-surface $-1 -58.242744224372082 0 0 1 0 0 0 0 -1 forward_v I I I I #
coedge $-1 $342 $343 $344 $345 reversed $143 $-1 #
coedge $-1 $346 $145 $147 $245 forward $89 $-1 #
coedge $-1 $145 $346 $342 $347 forward $89 $-1 #
coedge $-1 $344 $148 $145 $242 forward $247 $-1 #
edge $-1 $249 -3.462057149706208 $348 10.428160251546757 $241 $349 forward 7 unknown #
coedge $-1 $350 $351 $146 $244 forward $236 $-1 #
edge $-1 $352 -39.828925588955315 $248 -33.927472538374239 $243 $353 forward 7 unknown #
edge $-1 $249 -8.345914845005959 $352 -3.0145775206728491e-014 $147 $354 forward 7 unknown #
coedge $-1 $148 $344 $350 $355 forward $247 $-1 #
loop $-1 $-1 $344 $235 #
vertex $-1 $244 $356 #
vertex $-1 $149 $357 #
straight-curve $-1 -70.305211985990795 0.020994401214066372 8.6112797089294162 1 0 0 I I #
coedge $-1 $251 $251 $-1 $358 reversed $152 $-1 #
edge $-1 $359 0 $359 6.2831853071796004 $153 $360 forward 7 unknown #
vertex $-1 $156 $361 #
ellipse-curve $-1 -55.29201776755346 2.7990378814646597 5.6605531836388767 -0.70710678939079041 0 0.70710677298230451 0.70710677298230451 0 0.70710678939079041 1 I I #
coedge $-1 $255 $255 $-1 $362 reversed $159 $-1 #
edge $-1 $363 0 $363 6.2831853071796004 $160 $364 forward 7 unknown #
vertex $-1 $163 $365 #
ellipse-curve $-1 -55.29201776755346 6.9661031018405488 5.6605531836388767 -0.70710678939079041 0 0.70710677298230451 0.70710677298230451 0 0.70710678939079041 1 I I #
coedge $-1 $259 $259 $-1 $366 reversed $166 $-1 #
edge $-1 $367 0 $367 6.2831853071796004 $167 $368 forward 7 unknown #
vertex $-1 $170 $369 #
ellipse-curve $-1 -55.29201776755346 11.133168322216438 5.6605531836388767 -0.70710678939079041 0 0.70710677298230451 0.70710677298230451 0 0.70710678939079041 1 I I #
face $-1 $-1 $370 $36 $-1 $371 reversed single #
loop $-1 $-1 $177 $171 #
plane-surface $-1 0 0 8.6112797089294162 0 0 1 1 0 0 forward_v I I I I #
coedge $-1 $372 $373 $374 $375 reversed $172 $-1 #
coedge $-1 $376 $174 $176 $273 forward $108 $-1 #
coedge $-1 $174 $376 $372 $377 forward $108 $-1 #
coedge $-1 $374 $177 $174 $270 forward $264 $-1 #
edge $-1 $276 -10.428160251546757 $378 3.462057149706208 $269 $379 forward 7 unknown #
coedge $-1 $380 $381 $175 $272 forward $370 $-1 #
edge $-1 $382 -81.012765462760072 $275 -75.111312412178975 $271 $383 forward 7 unknown #
edge $-1 $276 108.13957360373821 $382 116.48548844874416 $176 $384 forward 7 unknown #
coedge $-1 $177 $374 $380 $385 forward $264 $-1 #
vertex $-1 $178 $386 #
vertex $-1 $178 $387 #
straight-curve $-1 29.121373067861295 13.911211802467031 8.6112797089294162 -1 0 0 I I #
coedge $-1 $278 $278 $-1 $388 reversed $181 $-1 #
edge $-1 $389 0 $389 6.2831853071796004 $182 $390 forward 7 unknown #
vertex $-1 $185 $391 #
ellipse-curve $-1 55.292017767553453 2.7990378814646597 5.6605531836388669 0.70710678939079041 0 0.70710677298230451 0.70710677298230451 0 -0.70710678939079041 1 I I #
coedge $-1 $282 $282 $-1 $392 reversed $188 $-1 #
edge $-1 $393 0 $393 6.2831853071796004 $189 $394 forward 7 unknown #
vertex $-1 $192 $395 #
ellipse-curve $-1 55.292017767553453 6.9661031018405488 5.6605531836388669 0.70710678939079041 0 0.70710677298230451 0.70710677298230451 0 -0.70710678939079041 1 I I #
coedge $-1 $286 $286 $-1 $396 reversed $195 $-1 #
edge $-1 $397 0 $397 6.2831853071796004 $196 $398 forward 7 unknown #
vertex $-1 $199 $399 #
ellipse-curve $-1 55.292017767553453 11.133168322216438 5.6605531836388669 0.70710678939079041 0 0.70710677298230451 0.70710677298230451 0 -0.70710678939079041 1 I I #
face $-1 $-1 $215 $30 $-1 $400 reversed single #
loop $-1 $-1 $306 $200 #
plane-surface $-1 0 28.745790220202952 0 0 -1 0 0 0 -1 forward_v I I I I #
coedge $-1 $401 $304 $307 $402 forward $201 $-1 #
coedge $-1 $310 $203 $204 $298 reversed $127 $-1 #
coedge $-1 $304 $401 $203 $296 reversed $201 $-1 #
edge $-1 $311 -8.6112797089294162 $403 8.6112797089294162 $295 $404 forward 7 unknown #
coedge $-1 $205 $204 $401 $405 forward $81 $-1 #
edge $-1 $302 -58.242744224372082 $403 58.242744224372082 $294 $406 forward 7 unknown #
coedge $-1 $307 $306 $205 $300 reversed $291 $-1 #
edge $-1 $407 -58.242744224372082 $301 58.242744224372082 $299 $408 forward 7 unknown #
vertex $-1 $207 $409 #
vertex $-1 $313 $410 #
straight-curve $-1 58.242744224372082 0 -8.6112797089294162 0 -1 0 I I #
coedge $-1 $293 $295 $208 $305 reversed $201 $-1 #
edge $-1 $308 -28.745790220202952 $311 28.745790220202952 $304 $411 forward 7 unknown #
coedge $-1 $299 $209 $214 $314 forward $291 $-1 #
coedge $-1 $209 $299 $293 $402 reversed $291 $-1 #
vertex $-1 $210 $412 #
straight-curve $-1 0 28.745790220202952 8.6112797089294162 -1 0 0 I I #
coedge $-1 $211 $294 $213 $313 reversed $127 $-1 #
vertex $-1 $305 $413 #
straight-curve $-1 0 -28.745790220202952 8.6112797089294162 1 0 0 I I #
edge $-1 $216 -8.6112797089294162 $302 8.6112797089294162 $213 $414 forward 7 unknown #
edge $-1 $217 -8.6112797089294162 $301 8.6112797089294162 $214 $415 forward 7 unknown #
point $-1 58.242744224372082 -28.745790220202952 8.6112797089294162 #
point $-1 58.242744224372082 28.745790220202952 8.6112797089294162 #
face $-1 $-1 $327 $31 $-1 $416 reversed single #
loop $-1 $-1 $323 $219 #
plane-surface $-1 0 0 -8.6112797089294162 0 0 1 1 0 0 forward_v I I I I #
coedge $-1 $417 $418 $227 $331 forward $220 $-1 #
coedge $-1 $222 $335 $325 $419 forward $135 $-1 #
edge $-1 $329 -16.204963461518275 $232 -8.8766900558510837 $222 $420 forward 7 unknown #
coedge $-1 $421 $228 $223 $324 forward $318 $-1 #
edge $-1 $233 8.8766900558510837 $328 16.204963461518275 $323 $422 forward 7 unknown #
coedge $-1 $423 $225 $321 $419 reversed $327 $-1 #
coedge $-1 $225 $423 $421 $424 reversed $327 $-1 #
loop $-1 $-1 $225 $317 #
vertex $-1 $424 $425 #
vertex $-1 $226 $426 #
straight-curve $-1 -55.242744224372082 -28.745790220202952 0 0 0 1 I I #
edge $-1 $336 -8.6112797089294162 $333 8.6112797089294162 $320 $427 forward 7 unknown #
coedge $-1 $228 $421 $417 $428 forward $318 $-1 #
vertex $-1 $229 $429 #
straight-curve $-1 -28.371372112186041 -21.417516814535762 -8.6112797089294162 1 0 0 I I #
coedge $-1 $321 $230 $418 $430 forward $135 $-1 #
vertex $-1 $430 $431 #
straight-curve $-1 -28.371372112186041 -21.417516814535762 8.6112797089294162 -1 0 0 I I #
point $-1 -55.242744224372082 -21.417516814535762 8.6112797089294162 #
point $-1 -55.242744224372082 -21.417516814535762 -8.6112797089294162 #
plane-surface $-1 0 0 8.6112797089294162 0 0 1 1 0 0 forward_v I I I I #
coedge $-1 $351 $350 $343 $432 forward $236 $-1 #
coedge $-1 $343 $238 $240 $347 reversed $143 $-1 #
coedge $-1 $238 $342 $341 $432 reversed $143 $-1 #
coedge $-1 $246 $241 $238 $345 forward $247 $-1 #
edge $-1 $348 -17.963920675255963 $433 -12.062467761618713 $344 $434 forward 7 unknown #
coedge $-1 $240 $239 $351 $435 reversed $89 $-1 #
edge $-1 $436 3.0145775206728491e-014 $348 8.345914845005959 $342 $437 forward 7 unknown #
vertex $-1 $242 $438 #
straight-curve $-1 -52.341291310734832 3.4830515509202744 8.6112797089294162 0 1 0 I I #
coedge $-1 $341 $243 $246 $355 reversed $236 $-1 #
coedge $-1 $243 $341 $346 $435 forward $236 $-1 #
vertex $-1 $244 $439 #
straight-curve $-1 -58.242744224372082 0.020994401214066372 42.538752247303655 0 0 1 I I #
straight-curve $-1 -58.242744224372103 0.020994401214066372 2.7098266583483195 -0.70710677298230451 0 -0.70710678939079041 I I #
edge $-1 $433 -13.911211802467031 $248 -0.020994401214066372 $350 $440 forward 7 unknown #
point $-1 -58.242744224372082 0.020994401214066372 8.6112797089294162 #
point $-1 -52.341291310734832 0.020994401214066372 8.6112797089294162 #
edge $-1 $441 1 $441 0 $251 $-1 forward 7 unknown #
vertex $-1 $252 $442 #
ellipse-curve $-1 -54.028409928789515 2.7990378814646597 4.3969453741970836 -0.70710678939079041 0 0.70710677298230451 0.70710677298230451 0 0.70710678939079041 1 I I #
point $-1 -54.584910994571139 2.7990378814646597 6.3676599730296548 #
edge $-1 $443 1 $443 0 $255 $-1 forward 7 unknown #
vertex $-1 $256 $444 #
ellipse-curve $-1 -54.028409928789515 6.9661031018405488 4.3969453741970836 -0.70710678939079041 0 0.70710677298230451 0.70710677298230451 0 0.70710678939079041 1 I I #
point $-1 -54.584910994571139 6.9661031018405488 6.3676599730296548 #
edge $-1 $445 1 $445 0 $259 $-1 forward 7 unknown #
vertex $-1 $260 $446 #
ellipse-curve $-1 -54.028409928789515 11.133168322216438 4.3969453741970836 -0.70710678939079041 0 0.70710677298230451 0.70710677298230451 0 0.70710678939079041 1 I I #
point $-1 -54.584910994571139 11.133168322216438 6.3676599730296548 #
loop $-1 $-1 $271 $263 #
plane-surface $-1 58.242744224372082 0 0 -1 0 0 0 0 1 forward_v I I I I #
coedge $-1 $373 $266 $268 $377 reversed $172 $-1 #
coedge $-1 $266 $372 $447 $448 reversed $172 $-1 #
coedge $-1 $274 $269 $266 $375 forward $264 $-1 #
edge $-1 $378 23.219918242873515 $449 29.121371156510786 $374 $450 forward 7 unknown #
coedge $-1 $268 $267 $381 $451 reversed $108 $-1 #
edge $-1 $452 -116.48548844874416 $378 -108.13957360373821 $372 $453 forward 7 unknown #
vertex $-1 $270 $454 #
straight-curve $-1 52.341291310734803 3.4830515509202744 8.6112797089294091 0 -1 0 I I #
coedge $-1 $447 $271 $274 $385 reversed $370 $-1 #
coedge $-1 $271 $447 $376 $451 forward $370 $-1 #
vertex $-1 $272 $455 #
straight-curve $-1 58.242744224372082 13.911211802467031 83.722592121108391 0 0 1 I I #
straight-curve $-1 -24.124933611886895 13.911211802467031 85.077506405957791 0.70710677298230451 0 -0.70710678939079041 I I #
edge $-1 $449 0.020994401214066372 $275 13.911211802467031 $380 $456 forward 7 unknown #
point $-1 58.242744224372082 13.911211802467031 8.6112797089294162 #
point $-1 52.34129131073481 13.911211802467031 8.6112797089294162 #
edge $-1 $457 1 $457 0 $278 $-1 forward 7 unknown #
vertex $-1 $279 $458 #
ellipse-curve $-1 54.028409928789507 2.7990378814646597 4.3969453741970694 0.70710678939079041 0 0.70710677298230451 0.70710677298230451 0 -0.70710678939079041 1 I I #
point $-1 55.999124540535739 2.7990378814646597 4.9534463942480595 #
edge $-1 $459 1 $459 0 $282 $-1 forward 7 unknown #
vertex $-1 $283 $460 #
ellipse-curve $-1 54.028409928789507 6.9661031018405488 4.3969453741970694 0.70710678939079041 0 0.70710677298230451 0.70710677298230451 0 -0.70710678939079041 1 I I #
point $-1 55.999124540535739 6.9661031018405488 4.9534463942480595 #
edge $-1 $461 1 $461 0 $286 $-1 forward 7 unknown #
vertex $-1 $287 $462 #
ellipse-curve $-1 54.028409928789507 11.133168322216438 4.3969453741970694 0.70710678939079041 0 0.70710677298230451 0.70710677298230451 0 -0.70710678939079041 1 I I #
point $-1 55.999124540535739 11.133168322216438 4.9534463942480595 #
plane-surface $-1 58.242744224372082 0 0 -1 0 0 0 0 1 forward_v I I I I #
coedge $-1 $295 $293 $297 $405 reversed $201 $-1 #
edge $-1 $308 -8.6112797089294162 $407 8.6112797089294162 $307 $463 forward 7 unknown #
vertex $-1 $405 $464 #
straight-curve $-1 -58.242744224372082 -28.745790220202952 0 0 0 -1 I I #
edge $-1 $403 -28.745790220202952 $407 28.745790220202952 $401 $465 forward 7 unknown #
straight-curve $-1 0 -28.745790220202952 -8.6112797089294162 -1 0 0 I I #
vertex $-1 $300 $466 #
straight-curve $-1 0 28.745790220202952 -8.6112797089294162 1 0 0 I I #
point $-1 58.242744224372082 28.745790220202952 -8.6112797089294162 #
point $-1 58.242744224372082 -28.745790220202952 -8.6112797089294162 #
straight-curve $-1 -58.242744224372082 0 8.6112797089294162 0 -1 0 I I #
point $-1 -58.242744224372082 28.745790220202952 8.6112797089294162 #
point $-1 -58.242744224372082 -28.745790220202952 8.6112797089294162 #
straight-curve $-1 58.242744224372082 -28.745790220202952 0 0 0 -1 I I #
straight-curve $-1 58.242744224372082 28.745790220202952 0 0 0 -1 I I #
plane-surface $-1 0 -28.745790220202952 0 0 1 0 0 0 1 forward_v I I I I #
coedge $-1 $467 $320 $332 $428 reversed $220 $-1 #
coedge $-1 $320 $467 $335 $430 reversed $220 $-1 #
edge $-1 $468 -58.242744224372082 $329 -55.242744224372082 $325 $469 forward 7 unknown #
straight-curve $-1 -55.242744224372082 -12.540826758684679 8.6112797089294162 0 1 0 I I #
coedge $-1 $332 $323 $326 $424 forward $318 $-1 #
straight-curve $-1 -55.242744224372082 -12.540826758684679 -8.6112797089294162 0 -1 0 I I #
coedge $-1 $326 $325 $467 $470 forward $327 $-1 #
edge $-1 $328 55.242744224372082 $471 58.242744224372082 $326 $472 forward 7 unknown #
point $-1 -55.242744224372082 -28.745790220202952 -8.6112797089294162 #
point $-1 -55.242744224372082 -28.745790220202952 8.6112797089294162 #
straight-curve $-1 -58.242744224372082 -21.417516814535762 0 0 0 -1 I I #
edge $-1 $471 -28.745790220202952 $333 -21.417516814535762 $417 $473 forward 7 unknown #
point $-1 -58.242744224372082 -21.417516814535762 -8.6112797089294162 #
edge $-1 $336 21.417516814535762 $468 28.745790220202952 $418 $474 forward 7 unknown #
point $-1 -58.242744224372082 -21.417516814535762 8.6112797089294162 #
edge $-1 $433 33.927472538374239 $436 39.828925588955315 $341 $475 forward 7 unknown #
vertex $-1 $355 $476 #
straight-curve $-1 -70.305211985990795 13.911211802467031 8.6112797089294162 -1 0 0 I I #
edge $-1 $436 -10.428160251546757 $352 3.462057149706208 $351 $477 forward 7 unknown #
vertex $-1 $435 $478 #
straight-curve $-1 -58.242744224372103 13.911211802467031 2.7098266583483195 0.70710677298230451 0 0.70710678939079041 I I #
point $-1 -52.341291310734832 13.911211802467031 8.6112797089294162 #
point $-1 -58.242744224372082 0.020994401214066372 2.7098266583483408 #
straight-curve $-1 -58.242744224372082 0 8.6112797089294162 0 -1 0 I I #
vertex $-1 $358 $479 #
point $-1 -53.321303155807207 2.7990378814646597 5.1040521635878733 #
vertex $-1 $362 $480 #
point $-1 -53.321303155807207 6.9661031018405488 5.1040521635878733 #
vertex $-1 $366 $481 #
point $-1 -53.321303155807207 11.133168322216438 5.1040521635878733 #
coedge $-1 $381 $380 $373 $448 forward $370 $-1 #
edge $-1 $449 75.111312412178975 $452 81.012765462760072 $447 $482 forward 7 unknown #
vertex $-1 $385 $483 #
straight-curve $-1 29.121373067861295 0.020994401214066372 8.6112797089294162 1 0 0 I I #
edge $-1 $452 -3.462057149706208 $382 10.428160251546757 $381 $484 forward 7 unknown #
vertex $-1 $451 $485 #
straight-curve $-1 -24.124933611886895 0.020994401214066372 85.077506405957791 -0.70710677298230451 0 0.70710678939079041 I I #
point $-1 52.34129131073481 0.020994401214066372 8.6112797089294162 #
point $-1 58.242744224372082 13.911211802467031 2.7098266583483195 #
straight-curve $-1 58.242744224372082 0 8.6112797089294162 0 1 0 I I #
vertex $-1 $388 $486 #
point $-1 54.735516701771814 2.7990378814646597 3.6898385848062785 #
vertex $-1 $392 $487 #
point $-1 54.735516701771814 6.9661031018405488 3.6898385848062785 #
vertex $-1 $396 $488 #
point $-1 54.735516701771814 11.133168322216438 3.6898385848062785 #
straight-curve $-1 -58.242744224372082 28.745790220202952 0 0 0 -1 I I #
point $-1 -58.242744224372082 -28.745790220202952 -8.6112797089294162 #
straight-curve $-1 -58.242744224372082 0 -8.6112797089294162 0 1 0 I I #
point $-1 -58.242744224372082 28.745790220202952 -8.6112797089294162 #
coedge $-1 $418 $417 $423 $470 reversed $220 $-1 #
vertex $-1 $430 $489 #
straight-curve $-1 0 -28.745790220202952 8.6112797089294162 1 0 0 I I #
edge $-1 $468 -8.6112797089294162 $471 8.6112797089294162 $467 $490 forward 7 unknown #
vertex $-1 $428 $491 #
straight-curve $-1 0 -28.745790220202952 -8.6112797089294162 -1 0 0 I I #
straight-curve $-1 -58.242744224372082 0 -8.6112797089294162 0 1 0 I I #
straight-curve $-1 -58.242744224372082 0 8.6112797089294162 0 -1 0 I I #
straight-curve $-1 -58.242744224372082 13.911211802467031 42.538752247303655 0 0 -1 I I #
point $-1 -58.242744224372082 13.911211802467031 8.6112797089294162 #
straight-curve $-1 -58.242744224372082 3.4830515509202744 2.7098266583483359 0 -1 0 I I #
point $-1 -58.242744224372082 13.911211802467031 2.7098266583483408 #
point $-1 -53.321303139398722 2.7990378814646597 3.6898386012147788 #
point $-1 -53.321303139398722 6.9661031018405488 3.6898386012147788 #
point $-1 -53.321303139398722 11.133168322216438 3.6898386012147788 #
straight-curve $-1 58.242744224372082 0.020994401214066372 83.722592121108391 0 0 -1 I I #
point $-1 58.242744224372082 0.020994401214066372 8.6112797089294162 #
straight-curve $-1 58.242744224372089 3.4830515509202744 2.7098266583483195 0 1 0 I I #
point $-1 58.242744224372082 0.020994401214066372 2.7098266583483195 #
point $-1 53.321303139398715 2.7990378814646597 3.6898386012147646 #
point $-1 53.321303139398715 6.9661031018405488 3.6898386012147646 #
point $-1 53.321303139398715 11.133168322216438 3.6898386012147646 #
point $-1 -58.242744224372082 -28.745790220202952 8.6112797089294162 #
straight-curve $-1 -58.242744224372082 -28.745790220202952 0 0 0 -1 I I #
point $-1 -58.242744224372082 -28.745790220202952 -8.6112797089294162 #
End-of-ACIS-data 