500 0 2 0           
7 Unknown 11 ACIS 5.0 NT 24 Fri Mar 26 19:21:26 1999 
-1 9.9999999999999995e-007 1e-010 
body $-1 $2 $-1 $3 #
body $-1 $4 $-1 $5 #
lump $-1 $-1 $6 $0 #
transform $-1 1 0 0 0 1 0 0 0 1 66.925870540482805 40.251314533779365 13.676872638819322 1 rotate no_reflect no_shear #
lump $-1 $-1 $7 $1 #
transform $-1 1 0 0 0 1 0 0 0 1 66.925870540482805 40.251314533779365 13.676872638819322 1 rotate no_reflect no_shear #
shell $-1 $-1 $-1 $8 $-1 $2 #
shell $-1 $-1 $-1 $9 $-1 $4 #
face $-1 $10 $11 $6 $-1 $12 forward single #
face $-1 $13 $14 $7 $-1 $15 forward single #
face $-1 $16 $17 $6 $-1 $18 reversed single #
loop $-1 $-1 $19 $8 #
plane-surface $-1 0 0 13.676872638819322 0 0 1 1 0 0 forward_v I I I I #
face $-1 $20 $21 $7 $-1 $22 reversed single #
loop $-1 $-1 $23 $9 #
plane-surface $-1 -66.925870540482805 0 0 1 0 0 0 0 -1 forward_v I I I I #
face $-1 $24 $25 $6 $-1 $26 reversed single #
loop $-1 $-1 $27 $10 #
plane-surface $-1 0 0 -13.676872638819322 0 0 1 1 0 0 forward_v I I I I #
coedge $-1 $28 $29 $30 $31 forward $11 $-1 #
face $-1 $32 $33 $7 $-1 $34 forward single #
loop $-1 $-1 $35 $13 #
plane-surface $-1 0 40.251314533779365 0 0 -1 0 0 0 -1 forward_v I I I I #
coedge $-1 $36 $37 $38 $39 forward $14 $-1 #
face $-1 $40 $41 $6 $-1 $42 reversed single #
loop $-1 $-1 $43 $16 #
plane-surface $-1 0 -40.251314533779365 0 0 1 0 0 0 1 forward_v I I I I #
coedge $-1 $44 $45 $46 $47 forward $17 $-1 #
coedge $-1 $48 $19 $49 $50 forward $11 $-1 #
coedge $-1 $19 $48 $51 $52 forward $11 $-1 #
coedge $-1 $53 $54 $19 $31 reversed $55 $-1 #
edge $-1 $56 -40.251314533779365 $57 40.251314533779365 $30 $58 forward 7 unknown #
face $-1 $59 $60 $7 $-1 $61 reversed single #
loop $-1 $-1 $38 $20 #
plane-surface $-1 -74.284559784923047 0 -9.0648777495902131 0 0 1 1 0 0 forward_v I I I I #
coedge $-1 $62 $63 $37 $64 forward $21 $-1 #
coedge $-1 $65 $23 $66 $67 reversed $14 $-1 #
coedge $-1 $23 $65 $35 $64 reversed $14 $-1 #
coedge $-1 $68 $69 $23 $39 reversed $33 $-1 #
edge $-1 $70 -40.251314533779365 $71 40.251314533779365 $38 $72 forward 7 unknown #
face $-1 $73 $74 $6 $-1 $75 reversed single #
loop $-1 $-1 $76 $24 #
plane-surface $-1 -66.925870540482805 0 0 1 0 0 0 0 -1 forward_v I I I I #
coedge $-1 $77 $51 $76 $78 forward $25 $-1 #
coedge $-1 $79 $27 $77 $80 forward $17 $-1 #
coedge $-1 $27 $79 $81 $82 forward $17 $-1 #
coedge $-1 $54 $53 $27 $47 reversed $55 $-1 #
edge $-1 $83 -40.251314533779365 $84 40.251314533779365 $46 $85 forward 7 unknown #
coedge $-1 $29 $28 $86 $87 forward $11 $-1 #
coedge $-1 $88 $89 $28 $50 reversed $74 $-1 #
edge $-1 $57 -66.925870540482805 $90 66.925870540482805 $49 $91 forward 7 unknown #
coedge $-1 $43 $92 $29 $52 reversed $25 $-1 #
edge $-1 $93 -66.925870540482805 $56 66.925870540482805 $51 $94 forward 7 unknown #
coedge $-1 $46 $30 $92 $95 forward $55 $-1 #
coedge $-1 $30 $46 $88 $96 reversed $55 $-1 #
loop $-1 $-1 $53 $73 #
vertex $-1 $31 $97 #
vertex $-1 $31 $98 #
straight-curve $-1 66.925870540482805 0 13.676872638819322 0 1 0 I I #
face $-1 $99 $100 $7 $-1 $101 reversed single #
loop $-1 $-1 $102 $32 #
plane-surface $-1 -81.64324902936329 0 -11.370875194204768 1 0 0 0 0 -1 forward_v I I I I #
coedge $-1 $103 $35 $104 $105 reversed $21 $-1 #
coedge $-1 $35 $103 $68 $106 reversed $21 $-1 #
edge $-1 $70 9.0648777495902131 $107 13.676872638819322 $35 $108 forward 7 unknown #
coedge $-1 $37 $36 $109 $110 reversed $14 $-1 #
coedge $-1 $111 $112 $36 $67 forward $113 $-1 #
edge $-1 $114 -13.676872638819322 $71 -9.0648777495902131 $66 $115 forward 7 unknown #
coedge $-1 $116 $38 $63 $106 forward $33 $-1 #
coedge $-1 $38 $116 $111 $117 forward $33 $-1 #
vertex $-1 $64 $118 #
vertex $-1 $117 $119 #
straight-curve $-1 -66.925870540482805 0 -9.0648777495902131 0 -1 0 I I #
face $-1 $-1 $55 $6 $-1 $120 reversed single #
loop $-1 $-1 $88 $40 #
plane-surface $-1 0 40.251314533779365 0 0 -1 0 0 0 -1 forward_v I I I I #
coedge $-1 $86 $121 $43 $78 reversed $41 $-1 #
coedge $-1 $92 $43 $44 $80 reversed $25 $-1 #
edge $-1 $93 -13.676872638819322 $122 13.676872638819322 $76 $123 forward 7 unknown #
coedge $-1 $45 $44 $121 $124 forward $17 $-1 #
edge $-1 $84 -66.925870540482805 $122 66.925870540482805 $77 $125 forward 7 unknown #
coedge $-1 $89 $88 $45 $82 reversed $74 $-1 #
edge $-1 $126 -66.925870540482805 $83 66.925870540482805 $81 $127 forward 7 unknown #
vertex $-1 $47 $128 #
vertex $-1 $95 $129 #
straight-curve $-1 66.925870540482805 0 -13.676872638819322 0 -1 0 I I #
coedge $-1 $130 $76 $48 $87 reversed $41 $-1 #
edge $-1 $90 -40.251314533779365 $93 40.251314533779365 $86 $131 forward 7 unknown #
coedge $-1 $81 $49 $54 $96 forward $74 $-1 #
coedge $-1 $49 $81 $130 $132 reversed $74 $-1 #
vertex $-1 $50 $133 #
straight-curve $-1 0 40.251314533779365 13.676872638819322 -1 0 0 I I #
coedge $-1 $51 $77 $53 $95 reversed $25 $-1 #
vertex $-1 $87 $134 #
straight-curve $-1 0 -40.251314533779365 13.676872638819322 1 0 0 I I #
edge $-1 $56 -13.676872638819322 $84 13.676872638819322 $53 $135 forward 7 unknown #
edge $-1 $57 -13.676872638819322 $83 13.676872638819322 $54 $136 forward 7 unknown #
point $-1 66.925870540482805 -40.251314533779365 13.676872638819322 #
point $-1 66.925870540482805 40.251314533779365 13.676872638819322 #
face $-1 $-1 $113 $7 $-1 $137 reversed single #
loop $-1 $-1 $109 $59 #
plane-surface $-1 0 0 -13.676872638819322 0 0 1 1 0 0 forward_v I I I I #
coedge $-1 $138 $139 $103 $140 forward $60 $-1 #
coedge $-1 $63 $62 $102 $140 reversed $21 $-1 #
coedge $-1 $109 $141 $62 $105 forward $100 $-1 #
edge $-1 $142 -81.64324902936329 $107 -66.925870540482805 $62 $143 forward 7 unknown #
edge $-1 $70 -7.3586892444402423 $144 7.3586892444402423 $63 $145 forward 7 unknown #
vertex $-1 $64 $146 #
straight-curve $-1 -66.925870540482805 40.251314533779365 0 0 0 -1 I I #
coedge $-1 $147 $104 $65 $110 forward $100 $-1 #
edge $-1 $107 -40.251314533779365 $114 40.251314533779365 $109 $148 forward 7 unknown #
coedge $-1 $149 $66 $69 $117 reversed $113 $-1 #
coedge $-1 $66 $149 $147 $150 reversed $113 $-1 #
loop $-1 $-1 $66 $99 #
vertex $-1 $150 $151 #
straight-curve $-1 -66.925870540482805 -40.251314533779365 0 0 0 1 I I #
coedge $-1 $69 $68 $139 $152 forward $33 $-1 #
edge $-1 $153 -7.3586892444402423 $71 7.3586892444402423 $111 $154 forward 7 unknown #
point $-1 -66.925870540482805 40.251314533779365 -9.0648777495902131 #
point $-1 -66.925870540482805 -40.251314533779365 -9.0648777495902131 #
plane-surface $-1 66.925870540482805 0 0 -1 0 0 0 0 1 forward_v I I I I #
coedge $-1 $76 $130 $79 $124 reversed $41 $-1 #
vertex $-1 $124 $155 #
straight-curve $-1 -66.925870540482805 -40.251314533779365 0 0 0 -1 I I #
edge $-1 $122 -40.251314533779365 $126 40.251314533779365 $121 $156 forward 7 unknown #
straight-curve $-1 0 -40.251314533779365 -13.676872638819322 -1 0 0 I I #
vertex $-1 $82 $157 #
straight-curve $-1 0 40.251314533779365 -13.676872638819322 1 0 0 I I #
point $-1 66.925870540482805 40.251314533779365 -13.676872638819322 #
point $-1 66.925870540482805 -40.251314533779365 -13.676872638819322 #
coedge $-1 $121 $86 $89 $132 forward $41 $-1 #
straight-curve $-1 -66.925870540482805 0 13.676872638819322 0 -1 0 I I #
edge $-1 $90 -13.676872638819322 $126 13.676872638819322 $89 $158 forward 7 unknown #
point $-1 -66.925870540482805 40.251314533779365 13.676872638819322 #
point $-1 -66.925870540482805 -40.251314533779365 13.676872638819322 #
straight-curve $-1 66.925870540482805 -40.251314533779365 0 0 0 -1 I I #
straight-curve $-1 66.925870540482805 40.251314533779365 0 0 0 -1 I I #
plane-surface $-1 0 -40.251314533779365 0 0 1 0 0 0 1 forward_v I I I I #
coedge $-1 $159 $102 $141 $160 reversed $60 $-1 #
coedge $-1 $102 $159 $116 $152 reversed $60 $-1 #
edge $-1 $144 -2.3059974446145546 $142 2.3059974446145546 $103 $161 forward 7 unknown #
coedge $-1 $104 $147 $138 $160 forward $100 $-1 #
vertex $-1 $105 $162 #
straight-curve $-1 0 40.251314533779365 -13.676872638819322 1 0 0 I I #
vertex $-1 $106 $163 #
straight-curve $-1 -74.284559784923047 40.251314533779365 -9.0648777495902131 -1 0 0 I I #
point $-1 -66.925870540482805 40.251314533779365 -13.676872638819322 #
coedge $-1 $141 $109 $112 $150 forward $100 $-1 #
straight-curve $-1 -66.925870540482805 0 -13.676872638819322 0 -1 0 I I #
coedge $-1 $112 $111 $159 $164 forward $113 $-1 #
edge $-1 $114 -7.3586892444402423 $165 7.3586892444402423 $112 $166 forward 7 unknown #
point $-1 -66.925870540482805 -40.251314533779365 -13.676872638819322 #
edge $-1 $144 -40.251314533779365 $153 40.251314533779365 $139 $167 forward 7 unknown #
vertex $-1 $152 $168 #
straight-curve $-1 -74.284559784923047 -40.251314533779365 -9.0648777495902131 1 0 0 I I #
point $-1 -66.925870540482805 -40.251314533779365 -13.676872638819322 #
straight-curve $-1 -66.925870540482805 0 -13.676872638819322 0 1 0 I I #
point $-1 -66.925870540482805 40.251314533779365 -13.676872638819322 #
straight-curve $-1 -66.925870540482805 40.251314533779365 0 0 0 -1 I I #
coedge $-1 $139 $138 $149 $164 reversed $60 $-1 #
edge $-1 $165 -40.251314533779365 $142 40.251314533779365 $138 $169 forward 7 unknown #
straight-curve $-1 -81.64324902936329 40.251314533779365 -11.370875194204768 0 0 -1 I I #
point $-1 -81.64324902936329 40.251314533779365 -13.676872638819322 #
point $-1 -81.64324902936329 40.251314533779365 -9.0648777495902131 #
edge $-1 $153 -2.3059974446145546 $165 2.3059974446145546 $159 $170 forward 7 unknown #
vertex $-1 $160 $171 #
straight-curve $-1 -74.284559784923047 -40.251314533779365 -13.676872638819322 -1 0 0 I I #
straight-curve $-1 -81.64324902936329 0 -9.0648777495902131 0 -1 0 I I #
point $-1 -81.64324902936329 -40.251314533779365 -9.0648777495902131 #
straight-curve $-1 -81.64324902936329 0 -13.676872638819322 0 1 0 I I #
straight-curve $-1 -81.64324902936329 -40.251314533779365 -11.370875194204768 0 0 -1 I I #
point $-1 -81.64324902936329 -40.251314533779365 -13.676872638819322 #
End-of-ACIS-data 