500 0 8 0           
7 Unknown 11 ACIS 5.0 NT 24 Fri Mar 26 17:42:50 1999 
-1 9.9999999999999995e-007 1e-010 
body $-1 $8 $-1 $9 #
body $-1 $10 $-1 $11 #
body $-1 $12 $-1 $13 #
body $-1 $14 $-1 $15 #
body $-1 $16 $-1 $17 #
body $-1 $18 $-1 $19 #
body $-1 $20 $-1 $21 #
body $-1 $22 $-1 $23 #
lump $-1 $-1 $24 $0 #
transform $-1 1 0 0 0 1 0 0 0 1 52.827539902951138 31.448081182316209 14.497481926922742 1 rotate no_reflect no_shear #
lump $-1 $-1 $25 $1 #
transform $-1 1 0 0 0 1 0 0 0 1 52.827539902951138 31.448081182316209 14.497481926922742 1 rotate no_reflect no_shear #
lump $-1 $-1 $26 $2 #
transform $-1 1 0 0 0 1 0 0 0 1 52.827539902951138 31.448081182316209 14.497481926922742 1 rotate no_reflect no_shear #
lump $-1 $-1 $27 $3 #
transform $-1 1 0 0 0 1 0 0 0 1 52.827539902951138 31.448081182316209 14.497481926922742 1 rotate no_reflect no_shear #
lump $-1 $-1 $28 $4 #
transform $-1 1 0 0 0 1 0 0 0 1 52.827539902951138 31.448081182316209 14.497481926922742 1 rotate no_reflect no_shear #
lump $-1 $-1 $29 $5 #
transform $-1 1 0 0 0 1 0 0 0 1 52.827539902951138 31.448081182316209 14.497481926922742 1 rotate no_reflect no_shear #
lump $-1 $-1 $30 $6 #
transform $-1 1 0 0 0 1 0 0 0 1 52.827539902951138 31.448081182316209 14.497481926922742 1 rotate no_reflect no_shear #
lump $-1 $-1 $31 $7 #
transform $-1 1 0 0 0 1 0 0 0 1 52.827539902951138 31.448081182316209 14.497481926922742 1 rotate no_reflect no_shear #
shell $-1 $-1 $-1 $32 $-1 $8 #
shell $-1 $-1 $-1 $33 $-1 $10 #
shell $-1 $-1 $-1 $34 $-1 $12 #
shell $-1 $-1 $-1 $35 $-1 $14 #
shell $-1 $-1 $-1 $36 $-1 $16 #
shell $-1 $-1 $-1 $37 $-1 $18 #
shell $-1 $-1 $-1 $38 $-1 $20 #
shell $-1 $-1 $-1 $39 $-1 $22 #
face $-1 $40 $41 $24 $-1 $42 forward single #
face $-1 $43 $44 $25 $-1 $45 forward single #
face $-1 $46 $47 $26 $-1 $48 forward single #
face $-1 $49 $50 $27 $-1 $51 reversed single #
face $-1 $52 $53 $28 $-1 $54 forward single #
face $-1 $55 $56 $29 $-1 $57 forward single #
face $-1 $58 $59 $30 $-1 $60 reversed single #
face $-1 $61 $62 $31 $-1 $63 forward single #
face $-1 $64 $65 $24 $-1 $66 reversed single #
loop $-1 $-1 $67 $32 #
plane-surface $-1 0 0 14.497481926922742 0 0 1 1 0 0 forward_v I I I I #
face $-1 $68 $69 $25 $-1 $70 reversed single #
loop $-1 $-1 $71 $33 #
plane-surface $-1 -46.090690527520159 0 10.50379127584554 0 0 1 1 0 0 forward_v I I I I #
face $-1 $72 $73 $26 $-1 $74 reversed single #
loop $-1 $-1 $75 $34 #
plane-surface $-1 45.103837946766852 0 -9.5588609739915285 0 0 1 1 0 0 forward_v I I I I #
face $-1 $76 $77 $27 $-1 $78 reversed single #
loop $-1 $-1 $79 $35 #
plane-surface $-1 35.245470048371935 31.95193735418966 133.41510284607656 -1 0 0 0 0.51503808176128008 0.85716729658548041 forward_v I I I I #
face $-1 $80 $81 $28 $-1 $82 forward single #
loop $-1 $83 $84 $36 #
cone-surface $-1 25.317380931383589 26.74501163258665 10.245642257599281 0 -0.51503808176128008 -0.85716729658548041 1.5 0 0 1 I I 0 1 1.5 forward I I I I #
face $-1 $85 $86 $29 $-1 $87 forward single #
loop $-1 $88 $89 $37 #
cone-surface $-1 31.274234401576599 26.74501163258665 10.245642257599281 0 -0.51503808176128008 -0.85716729658548041 1.5 0 0 1 I I 0 1 1.5 forward I I I I #
face $-1 $90 $91 $30 $-1 $92 reversed single #
loop $-1 $-1 $93 $38 #
plane-surface $-1 27.986447141667533 -117.9956566542179 68.760766233110033 1 0 0 0 0.81915205242281985 -0.57357642473473569 forward_v I I I I #
face $-1 $94 $95 $31 $-1 $96 forward single #
loop $-1 $97 $98 $39 #
cone-surface $-1 32.683291566125057 -27.956966682721223 10.437713565848819 0 0.81915205242281985 -0.57357642473473569 1 0 0 1 I I 0 1 1 forward I I I I #
face $-1 $99 $100 $24 $-1 $101 reversed single #
loop $-1 $-1 $102 $40 #
plane-surface $-1 0 0 -14.497481926922742 0 0 1 1 0 0 forward_v I I I I #
coedge $-1 $103 $104 $105 $106 forward $41 $-1 #
face $-1 $107 $108 $25 $-1 $109 reversed single #
loop $-1 $-1 $110 $43 #
plane-surface $-1 -46.090690527520159 0 6.1996314906503791 0 0 1 1 0 0 forward_v I I I I #
coedge $-1 $111 $112 $113 $114 forward $44 $-1 #
face $-1 $115 $116 $26 $-1 $117 reversed single #
loop $-1 $-1 $118 $46 #
plane-surface $-1 37.380135990582573 0 -12.028171450457135 1 0 0 0 0 -1 forward_v I I I I #
coedge $-1 $119 $120 $121 $122 reversed $47 $-1 #
face $-1 $123 $124 $27 $-1 $125 reversed single #
loop $-1 $-1 $126 $49 #
plane-surface $-1 28.295807666480094 -22.464452277377205 42.851023718328122 0 0.51503808176128008 0.85716729658548041 1 0 0 forward_v I I I I #
coedge $-1 $127 $128 $129 $130 reversed $50 $-1 #
face $-1 $-1 $131 $28 $-1 $132 forward single #
loop $-1 $133 $134 $52 #
cone-surface $-1 25.317380931383589 25.017821750851432 7.3711156273471552 0 -0.51503808176128008 -0.85716729658548041 0.75 0 0 1 I I -0.70710678118654757 0.70710678118654757 0.75 forward I I I I #
loop $-1 $-1 $135 $36 #
coedge $-1 $84 $84 $136 $137 reversed $53 $-1 #
face $-1 $-1 $138 $29 $-1 $139 forward single #
loop $-1 $140 $141 $55 #
cone-surface $-1 31.274234401576599 25.017821750851432 7.3711156273471552 0 -0.51503808176128008 -0.85716729658548041 0.75 0 0 1 I I -0.70710678118654757 0.70710678118654757 0.75 forward I I I I #
loop $-1 $-1 $142 $37 #
coedge $-1 $89 $89 $143 $144 reversed $56 $-1 #
face $-1 $145 $146 $30 $-1 $147 reversed single #
loop $-1 $-1 $148 $58 #
plane-surface $-1 32.683291566125057 -31.448081182316216 8.1595033029774271 0 -0.81915205242281985 0.57357642473473569 1 0 0 forward_v I I I I #
coedge $-1 $149 $150 $151 $152 reversed $59 $-1 #
face $-1 $-1 $153 $31 $-1 $154 forward single #
loop $-1 $155 $156 $61 #
cone-surface $-1 32.683291566125057 -26.275226294691748 9.2601463043801822 0 0.81915205242281985 -0.57357642473473569 0.5 0 0 1 I I -0.70710678118654746 0.70710678118654746 0.5 forward I I I I #
loop $-1 $-1 $157 $39 #
coedge $-1 $98 $98 $158 $159 reversed $62 $-1 #
face $-1 $160 $161 $24 $-1 $162 reversed single #
loop $-1 $-1 $163 $64 #
plane-surface $-1 0 -31.448081182316209 0 0 1 0 0 0 1 forward_v I I I I #
coedge $-1 $164 $165 $166 $167 forward $65 $-1 #
coedge $-1 $168 $67 $169 $170 forward $41 $-1 #
coedge $-1 $67 $168 $171 $172 forward $41 $-1 #
coedge $-1 $173 $174 $67 $106 reversed $175 $-1 #
edge $-1 $176 -31.448081182316209 $177 31.448081182316209 $105 $178 forward 7 unknown #
face $-1 $179 $180 $25 $-1 $181 reversed single #
loop $-1 $-1 $182 $68 #
plane-surface $-1 -39.353841152089181 0 8.3517113832479595 -1 0 0 0 0 1 forward_v I I I I #
coedge $-1 $183 $184 $185 $186 forward $69 $-1 #
coedge $-1 $187 $71 $188 $189 reversed $44 $-1 #
coedge $-1 $71 $187 $190 $191 reversed $44 $-1 #
coedge $-1 $182 $192 $71 $114 reversed $108 $-1 #
edge $-1 $193 -31.448081182316209 $194 31.448081182316209 $113 $195 forward 7 unknown #
face $-1 $196 $197 $26 $-1 $198 reversed single #
loop $-1 $-1 $199 $72 #
plane-surface $-1 0 -31.448081182316209 0 0 1 0 0 0 1 forward_v I I I I #
coedge $-1 $200 $201 $202 $203 reversed $73 $-1 #
coedge $-1 $204 $75 $205 $206 reversed $47 $-1 #
coedge $-1 $75 $204 $199 $207 reversed $47 $-1 #
coedge $-1 $208 $209 $75 $122 forward $210 $-1 #
edge $-1 $211 -31.448081182316209 $212 31.448081182316209 $121 $213 forward 7 unknown #
face $-1 $214 $215 $27 $-1 $216 reversed single #
loop $-1 $-1 $217 $76 #
plane-surface $-1 21.346145284588253 31.95193735418966 133.41510284607656 1 0 0 0 -0.51503808176128008 -0.85716729658548041 forward_v I I I I #
coedge $-1 $218 $219 $220 $221 reversed $77 $-1 #
coedge $-1 $128 $79 $222 $223 reversed $50 $-1 #
coedge $-1 $79 $127 $218 $224 reversed $50 $-1 #
coedge $-1 $220 $225 $79 $130 forward $215 $-1 #
edge $-1 $226 52.210069496115537 $227 56.25044651913646 $129 $228 forward 7 unknown #
loop $-1 $-1 $136 $80 #
plane-surface $-1 28.295807666480094 -22.464452277377205 42.851023718328122 0 0.51503808176128008 0.85716729658548041 1 0 0 forward_v I I I I #
loop $-1 $-1 $229 $52 #
coedge $-1 $134 $134 $135 $230 reversed $81 $-1 #
coedge $-1 $135 $135 $134 $230 forward $83 $-1 #
coedge $-1 $136 $136 $84 $137 forward $131 $-1 #
edge $-1 $231 -6.186637807810276e-016 $231 6.2831853071795996 $136 $232 forward 7 unknown #
loop $-1 $-1 $143 $85 #
plane-surface $-1 28.295807666480094 -22.464452277377205 42.851023718328122 0 0.51503808176128008 0.85716729658548041 1 0 0 forward_v I I I I #
loop $-1 $-1 $233 $55 #
coedge $-1 $141 $141 $142 $234 reversed $86 $-1 #
coedge $-1 $142 $142 $141 $234 forward $88 $-1 #
coedge $-1 $143 $143 $89 $144 forward $138 $-1 #
edge $-1 $235 -6.186637807810276e-016 $235 6.2831853071795996 $143 $236 forward 7 unknown #
face $-1 $237 $238 $30 $-1 $239 forward single #
loop $-1 $-1 $240 $90 #
plane-surface $-1 37.380135990582581 -117.9956566542179 68.760766233110033 -1 0 0 0 -0.81915205242281985 0.57357642473473569 forward_v I I I I #
coedge $-1 $241 $242 $243 $244 reversed $91 $-1 #
coedge $-1 $150 $93 $245 $246 reversed $59 $-1 #
coedge $-1 $93 $149 $241 $247 reversed $59 $-1 #
coedge $-1 $243 $248 $93 $152 forward $249 $-1 #
edge $-1 $250 19.882901189632275 $251 26.220879813577579 $151 $252 forward 7 unknown #
loop $-1 $-1 $158 $94 #
plane-surface $-1 32.683291566125057 -31.448081182316216 8.1595033029774271 0 -0.81915205242281985 0.57357642473473569 1 0 0 forward_v I I I I #
loop $-1 $-1 $253 $61 #
coedge $-1 $156 $156 $157 $254 reversed $95 $-1 #
coedge $-1 $157 $157 $156 $254 forward $97 $-1 #
coedge $-1 $158 $158 $98 $159 forward $153 $-1 #
edge $-1 $255 5.8264645916255301e-016 $255 6.2831853071796013 $158 $256 forward 7 unknown #
face $-1 $257 $258 $24 $-1 $259 reversed single #
loop $-1 $-1 $260 $99 #
plane-surface $-1 -52.827539902951138 0 0 1 0 0 0 0 -1 forward_v I I I I #
coedge $-1 $261 $171 $262 $263 forward $100 $-1 #
coedge $-1 $264 $102 $261 $265 forward $65 $-1 #
coedge $-1 $102 $264 $266 $267 forward $65 $-1 #
coedge $-1 $174 $173 $102 $167 reversed $175 $-1 #
edge $-1 $268 -31.448081182316209 $269 31.448081182316209 $166 $270 forward 7 unknown #
coedge $-1 $104 $103 $271 $272 forward $41 $-1 #
coedge $-1 $273 $274 $103 $170 reversed $258 $-1 #
edge $-1 $177 -52.827539902951138 $275 52.827539902951138 $169 $276 forward 7 unknown #
coedge $-1 $163 $277 $104 $172 reversed $100 $-1 #
edge $-1 $278 -52.827539902951138 $176 52.827539902951138 $171 $279 forward 7 unknown #
coedge $-1 $166 $105 $277 $280 forward $175 $-1 #
coedge $-1 $105 $166 $273 $281 reversed $175 $-1 #
loop $-1 $-1 $173 $257 #
vertex $-1 $106 $282 #
vertex $-1 $106 $283 #
straight-curve $-1 52.827539902951138 0 14.497481926922742 0 1 0 I I #
face $-1 $284 $285 $25 $-1 $286 reversed single #
loop $-1 $-1 $287 $107 #
plane-surface $-1 0 -31.448081182316209 0 0 1 0 0 0 1 forward_v I I I I #
coedge $-1 $185 $113 $288 $289 reversed $108 $-1 #
coedge $-1 $290 $110 $287 $291 reversed $69 $-1 #
coedge $-1 $110 $290 $292 $293 reversed $69 $-1 #
coedge $-1 $192 $182 $110 $186 reversed $108 $-1 #
edge $-1 $294 -31.448081182316209 $295 31.448081182316209 $185 $296 forward 7 unknown #
coedge $-1 $112 $111 $297 $298 reversed $44 $-1 #
coedge $-1 $299 $300 $111 $189 forward $301 $-1 #
edge $-1 $302 -29.782194639191058 $194 -16.308495888329102 $188 $303 forward 7 unknown #
coedge $-1 $304 $288 $112 $191 forward $180 $-1 #
edge $-1 $193 16.308495888329102 $305 29.782194639191058 $190 $306 forward 7 unknown #
coedge $-1 $113 $185 $299 $307 reversed $108 $-1 #
vertex $-1 $191 $308 #
vertex $-1 $189 $309 #
straight-curve $-1 -39.353841152089181 0 10.50379127584554 0 1 0 I I #
face $-1 $310 $311 $26 $-1 $312 reversed single #
loop $-1 $-1 $313 $115 #
plane-surface $-1 0 0 -14.497481926922742 0 0 1 1 0 0 forward_v I I I I #
coedge $-1 $314 $315 $120 $207 forward $116 $-1 #
coedge $-1 $316 $118 $313 $317 reversed $73 $-1 #
coedge $-1 $118 $316 $204 $318 reversed $73 $-1 #
coedge $-1 $205 $319 $118 $203 forward $311 $-1 #
edge $-1 $320 -8.4833962016941733 $321 -3.5447752487629609 $202 $322 forward 7 unknown #
coedge $-1 $120 $119 $201 $318 forward $47 $-1 #
coedge $-1 $323 $202 $119 $206 forward $311 $-1 #
edge $-1 $321 14.828217017199147 $211 30.275620929567705 $205 $324 forward 7 unknown #
edge $-1 $212 -30.275620929567705 $325 -14.828217017199147 $199 $326 forward 7 unknown #
coedge $-1 $327 $121 $315 $328 forward $210 $-1 #
coedge $-1 $121 $327 $323 $329 reversed $210 $-1 #
loop $-1 $-1 $121 $310 #
vertex $-1 $329 $330 #
vertex $-1 $328 $331 #
straight-curve $-1 52.827539902951138 0 -9.5588609739915285 0 -1 0 I I #
face $-1 $-1 $332 $27 $-1 $333 forward single #
loop $-1 $-1 $129 $123 #
plane-surface $-1 0 31.448081182316209 0 0 -1 0 0 0 -1 forward_v I I I I #
coedge $-1 $334 $335 $336 $337 reversed $124 $-1 #
coedge $-1 $338 $126 $128 $224 forward $77 $-1 #
coedge $-1 $126 $338 $334 $339 forward $77 $-1 #
coedge $-1 $336 $129 $126 $221 forward $215 $-1 #
edge $-1 $227 -21.097566215131888 $340 -7.1982414513482063 $220 $341 forward 7 unknown #
coedge $-1 $342 $343 $127 $223 forward $332 $-1 #
edge $-1 $344 8.7477960465907252 $226 15.472112505221379 $222 $345 forward 7 unknown #
edge $-1 $227 -62.896162364632417 $344 -55.05135017287369 $128 $346 forward 7 unknown #
coedge $-1 $129 $336 $342 $347 reversed $215 $-1 #
vertex $-1 $347 $348 #
vertex $-1 $130 $349 #
straight-curve $-1 35.245470048371935 31.448081182316209 66.707551423038282 0 0 -1 I I #
coedge $-1 $229 $229 $-1 $350 reversed $133 $-1 #
edge $-1 $351 0 $351 6.2831853071796004 $134 $352 forward 7 unknown #
vertex $-1 $137 $353 #
ellipse-curve $-1 25.317380931383589 28.085922953000892 12.477293415412275 0 0.51503808176128008 0.85716729658548041 1.5 0 0 1 I I #
coedge $-1 $233 $233 $-1 $354 reversed $140 $-1 #
edge $-1 $355 0 $355 6.2831853071796004 $141 $356 forward 7 unknown #
vertex $-1 $144 $357 #
ellipse-curve $-1 31.274234401576599 28.085922953000892 12.477293415412275 0 0.51503808176128008 0.85716729658548041 1.5 0 0 1 I I #
face $-1 $-1 $249 $30 $-1 $358 reversed single #
loop $-1 $-1 $359 $145 #
plane-surface $-1 0 0 14.497481926922742 0 0 1 1 0 0 forward_v I I I I #
coedge $-1 $360 $361 $362 $363 reversed $146 $-1 #
coedge $-1 $364 $148 $150 $247 forward $91 $-1 #
coedge $-1 $148 $364 $360 $365 forward $91 $-1 #
coedge $-1 $362 $151 $148 $244 forward $249 $-1 #
edge $-1 $251 11.644801358605005 $366 21.038490207520052 $243 $367 forward 7 unknown #
coedge $-1 $368 $369 $149 $246 forward $238 $-1 #
edge $-1 $370 -31.987647420346583 $250 -27.54974714479274 $245 $371 forward 7 unknown #
edge $-1 $251 1.2806143724965335e-014 $370 7.737243171398239 $150 $372 forward 7 unknown #
coedge $-1 $151 $362 $368 $373 reversed $249 $-1 #
loop $-1 $-1 $362 $237 #
vertex $-1 $373 $374 #
vertex $-1 $152 $375 #
straight-curve $-1 27.986447141667533 -31.448081182316209 34.380383116555016 0 0 -1 I I #
coedge $-1 $253 $253 $-1 $376 reversed $155 $-1 #
edge $-1 $377 0 $377 6.2831853071796004 $156 $378 forward 7 unknown #
vertex $-1 $159 $379 #
ellipse-curve $-1 32.683291566125057 -29.22913104453929 11.328492614950088 0 -0.81915205242281985 0.57357642473473569 1 0 0 1 I I #
face $-1 $-1 $175 $24 $-1 $380 reversed single #
loop $-1 $-1 $273 $160 #
plane-surface $-1 0 31.448081182316209 0 0 -1 0 0 0 -1 forward_v I I I I #
coedge $-1 $381 $271 $274 $382 forward $161 $-1 #
coedge $-1 $277 $163 $164 $265 reversed $100 $-1 #
coedge $-1 $271 $381 $163 $263 reversed $161 $-1 #
edge $-1 $278 -14.497481926922742 $383 14.497481926922742 $262 $384 forward 7 unknown #
coedge $-1 $165 $164 $381 $385 forward $65 $-1 #
edge $-1 $269 -52.827539902951138 $383 52.827539902951138 $261 $386 forward 7 unknown #
coedge $-1 $274 $273 $165 $267 reversed $258 $-1 #
edge $-1 $387 -52.827539902951138 $268 52.827539902951138 $266 $388 forward 7 unknown #
vertex $-1 $167 $389 #
vertex $-1 $280 $390 #
straight-curve $-1 52.827539902951138 0 -14.497481926922742 0 -1 0 I I #
coedge $-1 $260 $262 $168 $272 reversed $161 $-1 #
edge $-1 $275 -31.448081182316209 $278 31.448081182316209 $271 $391 forward 7 unknown #
coedge $-1 $266 $169 $174 $281 forward $258 $-1 #
coedge $-1 $169 $266 $260 $382 reversed $258 $-1 #
vertex $-1 $170 $392 #
straight-curve $-1 0 31.448081182316209 14.497481926922742 -1 0 0 I I #
coedge $-1 $171 $261 $173 $280 reversed $100 $-1 #
vertex $-1 $272 $393 #
straight-curve $-1 0 -31.448081182316209 14.497481926922742 1 0 0 I I #
edge $-1 $176 -14.497481926922742 $269 14.497481926922742 $173 $394 forward 7 unknown #
edge $-1 $177 -14.497481926922742 $268 14.497481926922742 $174 $395 forward 7 unknown #
point $-1 52.827539902951138 -31.448081182316209 14.497481926922742 #
point $-1 52.827539902951138 31.448081182316209 14.497481926922742 #
face $-1 $-1 $301 $25 $-1 $396 reversed single #
loop $-1 $-1 $397 $179 #
plane-surface $-1 -52.827539902951138 0 0 1 0 0 0 0 -1 forward_v I I I I #
coedge $-1 $288 $304 $183 $291 forward $180 $-1 #
coedge $-1 $190 $287 $182 $289 forward $180 $-1 #
edge $-1 $295 2.0237757990263994 $193 6.3279355842215601 $288 $398 forward 7 unknown #
coedge $-1 $184 $183 $397 $399 reversed $69 $-1 #
edge $-1 $400 -29.782194639191058 $295 -16.308495888329102 $287 $401 forward 7 unknown #
coedge $-1 $300 $299 $184 $293 forward $301 $-1 #
edge $-1 $294 16.308495888329102 $402 29.782194639191058 $292 $403 forward 7 unknown #
vertex $-1 $293 $404 #
vertex $-1 $291 $405 #
straight-curve $-1 -39.353841152089181 0 6.1996314906503791 0 -1 0 I I #
coedge $-1 $406 $407 $187 $298 forward $285 $-1 #
edge $-1 $305 -31.448081182316209 $302 31.448081182316209 $297 $408 forward 7 unknown #
coedge $-1 $292 $188 $192 $307 forward $301 $-1 #
coedge $-1 $188 $292 $406 $409 reversed $301 $-1 #
loop $-1 $-1 $292 $284 #
vertex $-1 $409 $410 #
straight-curve $-1 -23.04534526376008 31.448081182316209 10.50379127584554 1 0 0 I I #
coedge $-1 $287 $190 $407 $411 forward $180 $-1 #
vertex $-1 $411 $412 #
straight-curve $-1 -23.04534526376008 -31.448081182316209 10.50379127584554 -1 0 0 I I #
edge $-1 $194 -6.3279355842215601 $294 -2.0237757990263994 $299 $413 forward 7 unknown #
point $-1 -39.353841152089181 -31.448081182316209 10.50379127584554 #
point $-1 -39.353841152089181 31.448081182316209 10.50379127584554 #
face $-1 $-1 $210 $26 $-1 $414 reversed single #
loop $-1 $-1 $205 $196 #
plane-surface $-1 0 31.448081182316209 0 0 -1 0 0 0 -1 forward_v I I I I #
coedge $-1 $415 $416 $200 $317 forward $197 $-1 #
coedge $-1 $417 $199 $316 $418 forward $116 $-1 #
coedge $-1 $199 $417 $208 $328 reversed $116 $-1 #
coedge $-1 $201 $200 $314 $418 reversed $73 $-1 #
edge $-1 $419 -31.448081182316209 $320 31.448081182316209 $313 $420 forward 7 unknown #
edge $-1 $321 -31.448081182316209 $325 31.448081182316209 $201 $421 forward 7 unknown #
coedge $-1 $202 $323 $415 $422 reversed $311 $-1 #
vertex $-1 $422 $423 #
vertex $-1 $206 $424 #
straight-curve $-1 37.380135990582573 31.448081182316209 -6.0140857252285675 0 0 1 I I #
coedge $-1 $319 $205 $209 $329 forward $311 $-1 #
straight-curve $-1 22.551918973383426 31.448081182316209 -9.5588609739915285 1 0 0 I I #
vertex $-1 $207 $425 #
straight-curve $-1 22.551918973383426 -31.448081182316209 -9.5588609739915285 -1 0 0 I I #
coedge $-1 $209 $208 $426 $427 reversed $210 $-1 #
edge $-1 $212 9.5588609739915285 $428 14.497481926922742 $208 $429 forward 7 unknown #
edge $-1 $211 9.5588609739915285 $430 14.497481926922742 $209 $431 forward 7 unknown #
point $-1 52.827539902951131 31.448081182316209 -9.5588609739915285 #
point $-1 52.827539902951131 -31.448081182316209 -9.5588609739915285 #
loop $-1 $-1 $222 $214 #
plane-surface $-1 0 0 14.497481926922742 0 0 1 1 0 0 forward_v I I I I #
coedge $-1 $335 $217 $219 $339 reversed $124 $-1 #
coedge $-1 $217 $334 $432 $433 reversed $124 $-1 #
coedge $-1 $225 $220 $217 $337 forward $215 $-1 #
edge $-1 $340 -56.25044651913646 $434 -52.210069496115537 $336 $435 forward 7 unknown #
coedge $-1 $219 $218 $343 $436 reversed $77 $-1 #
edge $-1 $437 55.05135017287369 $340 62.896162364632417 $334 $438 forward 7 unknown #
vertex $-1 $221 $439 #
straight-curve $-1 14.147903833240047 31.448081182316209 10.45710490390182 -1 0 0 I I #
coedge $-1 $432 $222 $225 $347 forward $332 $-1 #
coedge $-1 $222 $432 $338 $436 forward $332 $-1 #
vertex $-1 $223 $440 #
straight-curve $-1 35.245470048371935 15.97596867709483 14.497481926922745 0 1 0 I I #
straight-curve $-1 35.245470048371935 -22.464452277377205 42.851023718328122 0 -0.85716729658548041 0.51503808176128008 I I #
edge $-1 $226 -35.245470048371935 $434 -21.346145284588253 $225 $441 forward 7 unknown #
point $-1 35.245470048371935 31.448081182316209 14.497481926922742 #
point $-1 35.245470048371935 31.448081182316209 10.457104903901822 #
edge $-1 $442 1 $442 0 $229 $-1 forward 7 unknown #
vertex $-1 $230 $443 #
ellipse-curve $-1 25.317380931383589 25.404100312172393 8.0139910997862653 0 0.51503808176128008 0.85716729658548041 1.5 0 0 1 I I #
point $-1 26.817380931383589 28.085922953000903 12.477293415412294 #
edge $-1 $444 1 $444 0 $233 $-1 forward 7 unknown #
vertex $-1 $234 $445 #
ellipse-curve $-1 31.274234401576599 25.404100312172393 8.0139910997862653 0 0.51503808176128008 0.85716729658548041 1.5 0 0 1 I I #
point $-1 32.774234401576599 28.085922953000903 12.477293415412294 #
plane-surface $-1 0 -31.448081182316209 0 0 1 0 0 0 1 forward_v I I I I #
coedge $-1 $369 $368 $361 $446 forward $238 $-1 #
coedge $-1 $361 $240 $242 $365 reversed $146 $-1 #
coedge $-1 $240 $360 $359 $446 reversed $146 $-1 #
coedge $-1 $248 $243 $240 $363 forward $249 $-1 #
edge $-1 $366 -26.220879813577579 $447 -19.882901189632275 $362 $448 forward 7 unknown #
coedge $-1 $242 $241 $369 $449 reversed $91 $-1 #
edge $-1 $450 -7.737243171398239 $366 -1.2806143724965335e-014 $360 $451 forward 7 unknown #
vertex $-1 $244 $452 #
straight-curve $-1 16.341645783062528 -31.448081182316209 8.1595033029774413 1 0 0 I I #
coedge $-1 $359 $245 $248 $373 forward $238 $-1 #
coedge $-1 $245 $359 $364 $449 forward $238 $-1 #
vertex $-1 $246 $453 #
straight-curve $-1 27.986447141667533 -58.997828327108948 14.497481926922742 0 -1 0 I I #
straight-curve $-1 27.986447141667533 -31.448081182316216 8.1595033029774271 0 0.57357642473473569 0.81915205242281985 I I #
edge $-1 $250 27.986447141667533 $447 37.380135990582581 $248 $454 forward 7 unknown #
point $-1 27.986447141667533 -31.448081182316209 14.497481926922742 #
point $-1 27.986447141667533 -31.448081182316209 8.1595033029774378 #
edge $-1 $455 1 $455 0 $253 $-1 forward 7 unknown #
vertex $-1 $254 $456 #
ellipse-curve $-1 32.683291566125057 -26.68480232090316 9.5469345167475499 0 -0.81915205242281985 0.57357642473473569 1 0 0 1 I I #
point $-1 33.683291566125057 -29.229131044539287 11.328492614950086 #
plane-surface $-1 52.827539902951138 0 0 -1 0 0 0 0 1 forward_v I I I I #
coedge $-1 $262 $260 $264 $385 reversed $161 $-1 #
edge $-1 $275 -14.497481926922742 $387 14.497481926922742 $274 $457 forward 7 unknown #
vertex $-1 $385 $458 #
straight-curve $-1 -52.827539902951138 -31.448081182316209 0 0 0 -1 I I #
edge $-1 $383 -31.448081182316209 $387 31.448081182316209 $381 $459 forward 7 unknown #
straight-curve $-1 0 -31.448081182316209 -14.497481926922742 -1 0 0 I I #
vertex $-1 $267 $460 #
straight-curve $-1 0 31.448081182316209 -14.497481926922742 1 0 0 I I #
point $-1 52.827539902951138 31.448081182316209 -14.497481926922742 #
point $-1 52.827539902951138 -31.448081182316209 -14.497481926922742 #
straight-curve $-1 -52.827539902951138 0 14.497481926922742 0 -1 0 I I #
point $-1 -52.827539902951138 31.448081182316209 14.497481926922742 #
point $-1 -52.827539902951138 -31.448081182316209 14.497481926922742 #
straight-curve $-1 52.827539902951138 -31.448081182316209 0 0 0 -1 I I #
straight-curve $-1 52.827539902951138 31.448081182316209 0 0 0 -1 I I #
plane-surface $-1 0 31.448081182316209 0 0 -1 0 0 0 -1 forward_v I I I I #
coedge $-1 $407 $406 $290 $399 forward $285 $-1 #
straight-curve $-1 -39.353841152089181 -31.448081182316209 4.1758556916239797 0 0 1 I I #
edge $-1 $402 -31.448081182316209 $400 31.448081182316209 $397 $461 forward 7 unknown #
vertex $-1 $291 $462 #
straight-curve $-1 -23.04534526376008 -31.448081182316209 6.1996314906503791 1 0 0 I I #
vertex $-1 $293 $463 #
straight-curve $-1 -23.04534526376008 31.448081182316209 6.1996314906503791 -1 0 0 I I #
point $-1 -39.353841152089181 31.448081182316209 6.1996314906503791 #
point $-1 -39.353841152089181 -31.448081182316209 6.1996314906503791 #
coedge $-1 $397 $297 $300 $409 forward $285 $-1 #
coedge $-1 $297 $397 $304 $411 reversed $285 $-1 #
straight-curve $-1 -52.827539902951138 0 10.50379127584554 0 1 0 I I #
edge $-1 $302 -10.50379127584554 $402 -6.1996314906503791 $300 $464 forward 7 unknown #
point $-1 -52.827539902951138 31.448081182316209 10.50379127584554 #
edge $-1 $305 -10.50379127584554 $400 -6.1996314906503791 $407 $465 forward 7 unknown #
point $-1 -52.827539902951138 -31.448081182316209 10.50379127584554 #
straight-curve $-1 -39.353841152089181 31.448081182316209 4.1758556916239797 0 0 -1 I I #
plane-surface $-1 52.827539902951138 0 0 -1 0 0 0 0 1 forward_v I I I I #
coedge $-1 $426 $313 $319 $422 forward $197 $-1 #
coedge $-1 $313 $426 $417 $466 forward $197 $-1 #
coedge $-1 $315 $314 $416 $466 reversed $116 $-1 #
edge $-1 $325 3.5447752487629609 $419 8.4833962016941733 $314 $467 forward 7 unknown #
vertex $-1 $317 $468 #
straight-curve $-1 37.380135990582573 0 -14.497481926922742 0 1 0 I I #
straight-curve $-1 37.380135990582573 0 -9.5588609739915285 0 -1 0 I I #
edge $-1 $320 37.380135990582573 $430 52.827539902951138 $319 $469 forward 7 unknown #
point $-1 37.380135990582573 31.448081182316209 -14.497481926922742 #
point $-1 37.380135990582573 31.448081182316209 -9.5588609739915285 #
point $-1 37.380135990582573 -31.448081182316209 -9.5588609739915285 #
coedge $-1 $416 $415 $327 $427 forward $197 $-1 #
edge $-1 $430 -31.448081182316209 $428 31.448081182316209 $327 $470 forward 7 unknown #
vertex $-1 $328 $471 #
straight-curve $-1 52.827539902951138 -31.448081182316209 0 0 0 -1 I I #
vertex $-1 $427 $472 #
straight-curve $-1 52.827539902951138 31.448081182316209 0 0 0 -1 I I #
coedge $-1 $343 $342 $335 $433 forward $332 $-1 #
edge $-1 $434 -15.472112505221379 $437 -8.7477960465907252 $432 $473 forward 7 unknown #
vertex $-1 $433 $474 #
straight-curve $-1 21.346145284588253 31.448081182316209 66.707551423038282 0 0 1 I I #
edge $-1 $437 7.1982414513482063 $344 21.097566215131888 $343 $475 forward 7 unknown #
vertex $-1 $436 $476 #
straight-curve $-1 21.346145284588253 -22.464452277377205 42.851023718328122 0 0.85716729658548041 -0.51503808176128008 I I #
point $-1 21.346145284588253 31.448081182316209 10.457104903901822 #
point $-1 35.245470048371935 24.723764723685555 14.497481926922742 #
straight-curve $-1 0 31.448081182316209 14.497481926922742 -1 0 0 I I #
vertex $-1 $350 $477 #
point $-1 26.817380931383589 25.404100312172393 8.0139910997862653 #
vertex $-1 $354 $478 #
point $-1 32.774234401576599 25.404100312172393 8.0139910997862653 #
edge $-1 $447 27.54974714479274 $450 31.987647420346583 $359 $479 forward 7 unknown #
vertex $-1 $446 $480 #
straight-curve $-1 37.380135990582581 -31.448081182316209 34.380383116555016 0 0 1 I I #
edge $-1 $450 -21.038490207520052 $370 -11.644801358605005 $369 $481 forward 7 unknown #
vertex $-1 $449 $482 #
straight-curve $-1 37.380135990582581 -31.448081182316216 8.1595033029774271 0 -0.57357642473473569 -0.81915205242281985 I I #
point $-1 37.380135990582581 -31.448081182316209 8.1595033029774378 #
point $-1 27.986447141667533 -27.010180906762365 14.497481926922742 #
straight-curve $-1 0 -31.448081182316209 14.497481926922742 1 0 0 I I #
vertex $-1 $376 $483 #
point $-1 33.683291566125057 -26.68480232090316 9.5469345167475499 #
straight-curve $-1 -52.827539902951138 31.448081182316209 0 0 0 -1 I I #
point $-1 -52.827539902951138 -31.448081182316209 -14.497481926922742 #
straight-curve $-1 -52.827539902951138 0 -14.497481926922742 0 1 0 I I #
point $-1 -52.827539902951138 31.448081182316209 -14.497481926922742 #
straight-curve $-1 -52.827539902951138 0 6.1996314906503791 0 -1 0 I I #
point $-1 -52.827539902951138 -31.448081182316209 6.1996314906503791 #
point $-1 -52.827539902951138 31.448081182316209 6.1996314906503791 #
straight-curve $-1 -52.827539902951138 31.448081182316209 0 0 0 -1 I I #
straight-curve $-1 -52.827539902951138 -31.448081182316209 0 0 0 -1 I I #
edge $-1 $428 -52.827539902951138 $419 -37.380135990582573 $417 $484 forward 7 unknown #
straight-curve $-1 37.380135990582573 -31.448081182316209 -6.0140857252285675 0 0 -1 I I #
point $-1 37.380135990582573 -31.448081182316209 -14.497481926922742 #
straight-curve $-1 0 31.448081182316209 -14.497481926922742 1 0 0 I I #
straight-curve $-1 52.827539902951138 0 -14.497481926922742 0 -1 0 I I #
point $-1 52.827539902951138 -31.448081182316209 -14.497481926922742 #
point $-1 52.827539902951138 31.448081182316209 -14.497481926922742 #
straight-curve $-1 21.346145284588253 15.97596867709483 14.497481926922745 0 -1 0 I I #
point $-1 21.346145284588253 31.448081182316209 14.497481926922742 #
straight-curve $-1 14.147903833240047 24.723764723685562 14.497481926922742 1 0 0 I I #
point $-1 21.346145284588253 24.723764723685555 14.497481926922742 #
point $-1 25.317380931383589 24.631543189530472 6.7282401549080451 #
point $-1 31.274234401576599 24.631543189530472 6.7282401549080451 #
straight-curve $-1 37.380135990582581 -58.997828327108948 14.497481926922742 0 1 0 I I #
point $-1 37.380135990582581 -31.448081182316209 14.497481926922742 #
straight-curve $-1 16.341645783062528 -27.010180906762368 14.497481926922742 -1 0 0 I I #
point $-1 37.380135990582581 -27.010180906762365 14.497481926922742 #
point $-1 32.683291566125057 -25.865650268480337 8.9733580920128144 #
straight-curve $-1 0 -31.448081182316209 -14.497481926922742 -1 0 0 I I #
End-of-ACIS-data 