500 0 13 0           
7 Unknown 11 ACIS 5.0 NT 24 Fri Mar 26 20:18:19 1999 
-1 9.9999999999999995e-007 1e-010 
body $-1 $13 $-1 $14 #
body $-1 $15 $-1 $16 #
body $-1 $17 $-1 $18 #
body $-1 $19 $-1 $20 #
body $-1 $21 $-1 $22 #
body $-1 $23 $-1 $24 #
body $-1 $25 $-1 $26 #
body $-1 $27 $-1 $28 #
body $-1 $29 $-1 $30 #
body $-1 $31 $-1 $32 #
body $-1 $33 $-1 $34 #
body $-1 $35 $-1 $36 #
body $-1 $37 $-1 $38 #
lump $-1 $-1 $39 $0 #
transform $-1 1 0 0 0 1 0 0 0 1 52.777489547410504 23.218261957911228 6.5360041596659189 1 rotate no_reflect no_shear #
lump $-1 $-1 $40 $1 #
transform $-1 1 0 0 0 1 0 0 0 1 52.777489547410504 23.218261957911228 6.5360041596659189 1 rotate no_reflect no_shear #
lump $-1 $-1 $41 $2 #
transform $-1 1 0 0 0 1 0 0 0 1 52.777489547410504 23.218261957911228 6.5360041596659189 1 rotate no_reflect no_shear #
lump $-1 $-1 $42 $3 #
transform $-1 1 0 0 0 1 0 0 0 1 52.777489547410504 23.218261957911228 6.5360041596659189 1 rotate no_reflect no_shear #
lump $-1 $-1 $43 $4 #
transform $-1 1 0 0 0 1 0 0 0 1 52.777489547410504 23.218261957911228 6.5360041596659189 1 rotate no_reflect no_shear #
lump $-1 $-1 $44 $5 #
transform $-1 1 0 0 0 1 0 0 0 1 52.777489547410504 23.218261957911228 6.5360041596659189 1 rotate no_reflect no_shear #
lump $-1 $-1 $45 $6 #
transform $-1 1 0 0 0 1 0 0 0 1 52.777489547410504 23.218261957911228 6.5360041596659189 1 rotate no_reflect no_shear #
lump $-1 $-1 $46 $7 #
transform $-1 1 0 0 0 1 0 0 0 1 52.777489547410504 23.218261957911228 6.5360041596659189 1 rotate no_reflect no_shear #
lump $-1 $-1 $47 $8 #
transform $-1 1 0 0 0 1 0 0 0 1 52.777489547410504 23.218261957911228 6.5360041596659189 1 rotate no_reflect no_shear #
lump $-1 $-1 $48 $9 #
transform $-1 1 0 0 0 1 0 0 0 1 52.777489547410504 23.218261957911228 6.5360041596659189 1 rotate no_reflect no_shear #
lump $-1 $-1 $49 $10 #
transform $-1 1 0 0 0 1 0 0 0 1 52.777489547410504 23.218261957911228 6.5360041596659189 1 rotate no_reflect no_shear #
lump $-1 $-1 $50 $11 #
transform $-1 1 0 0 0 1 0 0 0 1 52.777489547410504 23.218261957911228 6.5360041596659189 1 rotate no_reflect no_shear #
lump $-1 $-1 $51 $12 #
transform $-1 1 0 0 0 1 0 0 0 1 52.777489547410504 23.218261957911228 6.5360041596659189 1 rotate no_reflect no_shear #
shell $-1 $-1 $-1 $52 $-1 $13 #
shell $-1 $-1 $-1 $53 $-1 $15 #
shell $-1 $-1 $-1 $54 $-1 $17 #
shell $-1 $-1 $-1 $55 $-1 $19 #
shell $-1 $-1 $-1 $56 $-1 $21 #
shell $-1 $-1 $-1 $57 $-1 $23 #
shell $-1 $-1 $-1 $58 $-1 $25 #
shell $-1 $-1 $-1 $59 $-1 $27 #
shell $-1 $-1 $-1 $60 $-1 $29 #
shell $-1 $-1 $-1 $61 $-1 $31 #
shell $-1 $-1 $-1 $62 $-1 $33 #
shell $-1 $-1 $-1 $63 $-1 $35 #
shell $-1 $-1 $-1 $64 $-1 $37 #
face $-1 $65 $66 $39 $-1 $67 forward single #
face $-1 $68 $69 $40 $-1 $70 reversed single #
face $-1 $71 $72 $41 $-1 $73 reversed single #
face $-1 $74 $75 $42 $-1 $76 forward single #
face $-1 $77 $78 $43 $-1 $79 forward single #
face $-1 $80 $81 $44 $-1 $82 forward single #
face $-1 $83 $84 $45 $-1 $85 reversed single #
face $-1 $86 $87 $46 $-1 $88 forward single #
face $-1 $89 $90 $47 $-1 $91 forward single #
face $-1 $92 $93 $48 $-1 $94 forward single #
face $-1 $95 $96 $49 $-1 $97 reversed single #
face $-1 $98 $99 $50 $-1 $100 forward single #
face $-1 $101 $102 $51 $-1 $103 forward single #
face $-1 $104 $105 $39 $-1 $106 reversed single #
loop $-1 $-1 $107 $52 #
plane-surface $-1 0 0 6.5360041596659189 0 0 1 1 0 0 forward_v I I I I #
face $-1 $108 $109 $40 $-1 $110 reversed single #
loop $-1 $-1 $111 $53 #
plane-surface $-1 0 -20.6779510983622 2.9592438523862326 0 0 1 1 0 0 forward_v I I I I #
face $-1 $112 $113 $41 $-1 $114 reversed single #
loop $-1 $-1 $115 $54 #
plane-surface $-1 -52.777489547410525 -14.026445643001741 0.62740953350314754 -0.83867057594974714 0 0.54463902268945019 0.54463902268945019 0 0.83867057594974714 forward_v I I I I #
face $-1 $116 $117 $42 $-1 $118 forward single #
loop $-1 $119 $120 $55 #
cone-surface $-1 -50.439611213486295 -16.4931624004886 3.309387335239808 0.83867057594974714 0 -0.54463902268945019 0.2723195113447251 0 0.41933528797487357 1 I I 0 1 0.5 forward I I I I #
face $-1 $121 $122 $43 $-1 $123 forward single #
loop $-1 $124 $125 $56 #
cone-surface $-1 -50.439611213486295 -14.02644564300174 3.309387335239808 0.83867057594974714 0 -0.54463902268945019 0.2723195113447251 0 0.41933528797487357 1 I I 0 1 0.5 forward I I I I #
face $-1 $126 $127 $44 $-1 $128 forward single #
loop $-1 $129 $130 $57 #
cone-surface $-1 -50.439611213486295 -11.559728885514879 3.309387335239808 0.83867057594974714 0 -0.54463902268945019 0.2723195113447251 0 0.41933528797487357 1 I I 0 1 0.5 forward I I I I #
face $-1 $131 $132 $45 $-1 $133 reversed single #
loop $-1 $-1 $134 $58 #
plane-surface $-1 -141.30334465922758 14.995872766288363 58.116770187711808 0 1 0 -0.83867057594974714 0 0.54463902268945019 forward_v I I I I #
face $-1 $135 $136 $46 $-1 $137 forward single #
loop $-1 $138 $139 $59 #
cone-surface $-1 -50.439611213486295 16.64035060461293 3.309387335239808 0.83867057594974714 0 -0.54463902268945019 0.2723195113447251 0 0.41933528797487357 1 I I 0 1 0.5 forward I I I I #
face $-1 $140 $141 $47 $-1 $142 forward single #
loop $-1 $143 $144 $60 #
cone-surface $-1 -50.439611213486295 19.107067362099794 3.309387335239808 0.83867057594974714 0 -0.54463902268945019 0.2723195113447251 0 0.41933528797487357 1 I I 0 1 0.5 forward I I I I #
face $-1 $145 $146 $48 $-1 $147 forward single #
loop $-1 $148 $149 $61 #
cone-surface $-1 -50.439611213486295 21.573784119586659 3.309387335239808 0.83867057594974714 0 -0.54463902268945019 0.2723195113447251 0 0.41933528797487357 1 I I 0 1 0.5 forward I I I I #
face $-1 $150 $151 $49 $-1 $152 reversed single #
loop $-1 $-1 $153 $62 #
plane-surface $-1 50.17224342568398 -1.4282218106037199 151.28947369940849 0 -1 0 -0.69465837861970381 0 -0.71933979245794832 forward_v I I I I #
face $-1 $154 $155 $50 $-1 $156 forward single #
loop $-1 $157 $158 $63 #
cone-surface $-1 49.775835374889432 -9.9065526919281375 3.5904660293806225 -0.69465837861970381 0 -0.71933979245794832 1.0790096886869225 0 -1.0419875679295556 1 I I 0 1 1.5 forward I I I I #
face $-1 $159 $160 $51 $-1 $161 forward single #
loop $-1 $162 $163 $64 #
cone-surface $-1 49.775835374889432 -4.8195541631334891 3.5904660293806225 -0.69465837861970381 0 -0.71933979245794832 1.0790096886869225 0 -1.0419875679295556 1 I I 0 1 1.5 forward I I I I #
face $-1 $164 $165 $39 $-1 $166 reversed single #
loop $-1 $-1 $167 $65 #
plane-surface $-1 0 0 -6.5360041596659189 0 0 1 1 0 0 forward_v I I I I #
coedge $-1 $168 $169 $170 $171 forward $66 $-1 #
face $-1 $172 $173 $40 $-1 $174 reversed single #
loop $-1 $-1 $175 $68 #
plane-surface $-1 0 -18.137640238813173 4.7476240060260748 0 -1 0 0 0 -1 forward_v I I I I #
coedge $-1 $176 $177 $178 $179 reversed $69 $-1 #
face $-1 $180 $181 $41 $-1 $182 forward single #
loop $-1 $-1 $183 $71 #
plane-surface $-1 -141.30334465922758 -9.9152510471903099 58.116770187711808 0 -1 0 0.83867057594974714 0 -0.54463902268945019 forward_v I I I I #
coedge $-1 $184 $185 $186 $187 reversed $72 $-1 #
face $-1 $-1 $188 $42 $-1 $189 forward single #
loop $-1 $190 $191 $74 #
cone-surface $-1 -49.810608281523983 -16.4931624004886 2.9009080682227202 0.83867057594974714 0 -0.54463902268945019 0.13615975567236255 0 0.20966764398743679 1 I I -0.70710678118654746 0.70710678118654746 0.25 forward I I I I #
loop $-1 $-1 $192 $55 #
coedge $-1 $120 $120 $193 $194 reversed $75 $-1 #
face $-1 $-1 $195 $43 $-1 $196 forward single #
loop $-1 $197 $198 $77 #
cone-surface $-1 -49.810608281523983 -14.02644564300174 2.9009080682227202 0.83867057594974714 0 -0.54463902268945019 0.13615975567236255 0 0.20966764398743679 1 I I -0.70710678118654746 0.70710678118654746 0.25 forward I I I I #
loop $-1 $-1 $199 $56 #
coedge $-1 $125 $125 $200 $201 reversed $78 $-1 #
face $-1 $-1 $202 $44 $-1 $203 forward single #
loop $-1 $204 $205 $80 #
cone-surface $-1 -49.810608281523983 -11.559728885514879 2.9009080682227202 0.83867057594974714 0 -0.54463902268945019 0.13615975567236255 0 0.20966764398743679 1 I I -0.70710678118654746 0.70710678118654746 0.25 forward I I I I #
loop $-1 $-1 $206 $57 #
coedge $-1 $130 $130 $207 $208 reversed $81 $-1 #
face $-1 $209 $210 $45 $-1 $211 forward single #
loop $-1 $-1 $212 $83 #
plane-surface $-1 -52.777489547410525 19.107067362099794 0.62740953350314754 -0.83867057594974714 0 0.54463902268945019 0.54463902268945019 0 0.83867057594974714 forward_v I I I I #
coedge $-1 $213 $214 $215 $216 reversed $84 $-1 #
face $-1 $-1 $217 $46 $-1 $218 forward single #
loop $-1 $219 $220 $86 #
cone-surface $-1 -49.810608281523983 16.64035060461293 2.9009080682227202 0.83867057594974714 0 -0.54463902268945019 0.13615975567236255 0 0.20966764398743679 1 I I -0.70710678118654746 0.70710678118654746 0.25 forward I I I I #
loop $-1 $-1 $221 $59 #
coedge $-1 $139 $139 $222 $223 reversed $87 $-1 #
face $-1 $-1 $224 $47 $-1 $225 forward single #
loop $-1 $226 $227 $89 #
cone-surface $-1 -49.810608281523983 19.107067362099794 2.9009080682227202 0.83867057594974714 0 -0.54463902268945019 0.13615975567236255 0 0.20966764398743679 1 I I -0.70710678118654746 0.70710678118654746 0.25 forward I I I I #
loop $-1 $-1 $228 $60 #
coedge $-1 $144 $144 $229 $230 reversed $90 $-1 #
face $-1 $-1 $231 $48 $-1 $232 forward single #
loop $-1 $233 $234 $92 #
cone-surface $-1 -49.810608281523983 21.573784119586659 2.9009080682227202 0.83867057594974714 0 -0.54463902268945019 0.13615975567236255 0 0.20966764398743679 1 I I -0.70710678118654746 0.70710678118654746 0.25 forward I I I I #
loop $-1 $-1 $235 $61 #
coedge $-1 $149 $149 $236 $237 reversed $93 $-1 #
face $-1 $238 $239 $49 $-1 $240 reversed single #
loop $-1 $-1 $241 $95 #
plane-surface $-1 -23.152407207561119 -7.3630534275308115 75.359576944436867 0.69465837861970381 0 0.71933979245794832 0.71933979245794832 0 -0.69465837861970381 forward_v I I I I #
coedge $-1 $242 $243 $244 $245 reversed $96 $-1 #
face $-1 $-1 $246 $50 $-1 $247 forward single #
loop $-1 $248 $249 $98 #
cone-surface $-1 48.583688643906704 -9.9065526919281375 2.3559619789889465 -0.69465837861970381 0 -0.71933979245794832 0.53950484434346124 0 -0.5209937839647778 1 I I -0.70710678118654757 0.70710678118654757 0.75 forward I I I I #
loop $-1 $-1 $250 $63 #
coedge $-1 $158 $158 $251 $252 reversed $99 $-1 #
face $-1 $-1 $253 $51 $-1 $254 forward single #
loop $-1 $255 $256 $101 #
cone-surface $-1 48.583688643906704 -4.8195541631334891 2.3559619789889465 -0.69465837861970381 0 -0.71933979245794832 0.53950484434346124 0 -0.5209937839647778 1 I I -0.70710678118654757 0.70710678118654757 0.75 forward I I I I #
loop $-1 $-1 $257 $64 #
coedge $-1 $163 $163 $258 $259 reversed $102 $-1 #
face $-1 $260 $261 $39 $-1 $262 reversed single #
loop $-1 $-1 $263 $104 #
plane-surface $-1 0 -23.218261957911228 0 0 1 0 0 0 1 forward_v I I I I #
coedge $-1 $264 $265 $266 $267 forward $105 $-1 #
coedge $-1 $268 $107 $269 $270 forward $66 $-1 #
coedge $-1 $107 $268 $271 $272 forward $66 $-1 #
coedge $-1 $273 $274 $107 $171 reversed $275 $-1 #
edge $-1 $276 -23.218261957911228 $277 23.218261957911228 $170 $278 forward 7 unknown #
face $-1 $279 $280 $40 $-1 $281 reversed single #
loop $-1 $-1 $282 $108 #
plane-surface $-1 -52.777489547410504 0 0 1 0 0 0 0 -1 forward_v I I I I #
coedge $-1 $283 $284 $285 $286 reversed $109 $-1 #
coedge $-1 $287 $111 $288 $289 reversed $69 $-1 #
coedge $-1 $111 $287 $290 $291 forward $69 $-1 #
coedge $-1 $292 $293 $111 $179 forward $294 $-1 #
edge $-1 $295 -12.879286408730128 $296 -7.7986646896320728 $178 $297 forward 7 unknown #
face $-1 $298 $299 $41 $-1 $300 reversed single #
loop $-1 $-1 $186 $112 #
plane-surface $-1 0 0 6.5360041596659189 0 0 1 1 0 0 forward_v I I I I #
coedge $-1 $301 $302 $303 $304 reversed $113 $-1 #
coedge $-1 $305 $115 $306 $307 reversed $72 $-1 #
coedge $-1 $115 $305 $301 $308 forward $72 $-1 #
coedge $-1 $303 $309 $115 $187 forward $181 $-1 #
edge $-1 $310 -11.124417417312301 $311 -2.9020282256894392 $186 $312 forward 7 unknown #
loop $-1 $-1 $193 $116 #
plane-surface $-1 -52.777489547410525 -14.026445643001741 0.62740953350314754 -0.83867057594974714 0 0.54463902268945019 0.54463902268945019 0 0.83867057594974714 forward_v I I I I #
loop $-1 $-1 $313 $74 #
coedge $-1 $191 $191 $192 $314 reversed $117 $-1 #
coedge $-1 $192 $192 $191 $314 forward $119 $-1 #
coedge $-1 $193 $193 $120 $194 forward $188 $-1 #
edge $-1 $315 0 $315 6.2831853071796004 $193 $316 forward 7 unknown #
loop $-1 $-1 $200 $121 #
plane-surface $-1 -52.777489547410525 -14.026445643001741 0.62740953350314754 -0.83867057594974714 0 0.54463902268945019 0.54463902268945019 0 0.83867057594974714 forward_v I I I I #
loop $-1 $-1 $317 $77 #
coedge $-1 $198 $198 $199 $318 reversed $122 $-1 #
coedge $-1 $199 $199 $198 $318 forward $124 $-1 #
coedge $-1 $200 $200 $125 $201 forward $195 $-1 #
edge $-1 $319 0 $319 6.2831853071796004 $200 $320 forward 7 unknown #
loop $-1 $-1 $207 $126 #
plane-surface $-1 -52.777489547410525 -14.026445643001741 0.62740953350314754 -0.83867057594974714 0 0.54463902268945019 0.54463902268945019 0 0.83867057594974714 forward_v I I I I #
loop $-1 $-1 $321 $80 #
coedge $-1 $205 $205 $206 $322 reversed $127 $-1 #
coedge $-1 $206 $206 $205 $322 forward $129 $-1 #
coedge $-1 $207 $207 $130 $208 forward $202 $-1 #
edge $-1 $323 0 $323 6.2831853071796004 $207 $324 forward 7 unknown #
face $-1 $325 $326 $45 $-1 $327 reversed single #
loop $-1 $-1 $215 $131 #
plane-surface $-1 0 0 6.5360041596659189 0 0 1 1 0 0 forward_v I I I I #
coedge $-1 $328 $329 $330 $331 reversed $132 $-1 #
coedge $-1 $214 $134 $332 $333 reversed $84 $-1 #
coedge $-1 $134 $213 $328 $334 reversed $84 $-1 #
coedge $-1 $330 $335 $134 $216 forward $210 $-1 #
edge $-1 $336 17.874182782203285 $337 21.71126887410194 $215 $338 forward 7 unknown #
loop $-1 $-1 $222 $135 #
plane-surface $-1 -52.777489547410525 19.107067362099794 0.62740953350314754 -0.83867057594974714 0 0.54463902268945019 0.54463902268945019 0 0.83867057594974714 forward_v I I I I #
loop $-1 $-1 $339 $86 #
coedge $-1 $220 $220 $221 $340 reversed $136 $-1 #
coedge $-1 $221 $221 $220 $340 forward $138 $-1 #
coedge $-1 $222 $222 $139 $223 forward $217 $-1 #
edge $-1 $341 0 $341 6.2831853071796004 $222 $342 forward 7 unknown #
loop $-1 $-1 $229 $140 #
plane-surface $-1 -52.777489547410525 19.107067362099794 0.62740953350314754 -0.83867057594974714 0 0.54463902268945019 0.54463902268945019 0 0.83867057594974714 forward_v I I I I #
loop $-1 $-1 $343 $89 #
coedge $-1 $227 $227 $228 $344 reversed $141 $-1 #
coedge $-1 $228 $228 $227 $344 forward $143 $-1 #
coedge $-1 $229 $229 $144 $230 forward $224 $-1 #
edge $-1 $345 0 $345 6.2831853071796004 $229 $346 forward 7 unknown #
loop $-1 $-1 $236 $145 #
plane-surface $-1 -52.777489547410525 19.107067362099794 0.62740953350314754 -0.83867057594974714 0 0.54463902268945019 0.54463902268945019 0 0.83867057594974714 forward_v I I I I #
loop $-1 $-1 $347 $92 #
coedge $-1 $234 $234 $235 $348 reversed $146 $-1 #
coedge $-1 $235 $235 $234 $348 forward $148 $-1 #
coedge $-1 $236 $236 $149 $237 forward $231 $-1 #
edge $-1 $349 0 $349 6.2831853071796004 $236 $350 forward 7 unknown #
face $-1 $351 $352 $49 $-1 $353 reversed single #
loop $-1 $-1 $354 $150 #
plane-surface $-1 50.17224342568398 -13.297885044457903 151.28947369940849 0 1 0 0.69465837861970381 0 0.71933979245794832 forward_v I I I I #
coedge $-1 $355 $356 $357 $358 reversed $151 $-1 #
coedge $-1 $243 $153 $359 $360 reversed $96 $-1 #
coedge $-1 $153 $242 $355 $361 reversed $96 $-1 #
coedge $-1 $357 $362 $153 $245 forward $363 $-1 #
edge $-1 $364 -27.691367834568513 $365 -23.030365383562259 $244 $366 forward 7 unknown #
loop $-1 $-1 $251 $154 #
plane-surface $-1 -23.152407207561119 -7.3630534275308115 75.359576944436867 0.69465837861970381 0 0.71933979245794832 0.71933979245794832 0 -0.69465837861970381 forward_v I I I I #
loop $-1 $-1 $367 $98 #
coedge $-1 $249 $249 $250 $368 reversed $155 $-1 #
coedge $-1 $250 $250 $249 $368 forward $157 $-1 #
coedge $-1 $251 $251 $158 $252 forward $246 $-1 #
edge $-1 $369 0 $369 6.2831853071796004 $251 $370 forward 7 unknown #
loop $-1 $-1 $258 $159 #
plane-surface $-1 -23.152407207561119 -7.3630534275308115 75.359576944436867 0.69465837861970381 0 0.71933979245794832 0.71933979245794832 0 -0.69465837861970381 forward_v I I I I #
loop $-1 $-1 $371 $101 #
coedge $-1 $256 $256 $257 $372 reversed $160 $-1 #
coedge $-1 $257 $257 $256 $372 forward $162 $-1 #
coedge $-1 $258 $258 $163 $259 forward $253 $-1 #
edge $-1 $373 0 $373 6.2831853071796004 $258 $374 forward 7 unknown #
face $-1 $375 $376 $39 $-1 $377 reversed single #
loop $-1 $-1 $378 $164 #
plane-surface $-1 -52.777489547410504 0 0 1 0 0 0 0 -1 forward_v I I I I #
coedge $-1 $379 $271 $380 $381 forward $165 $-1 #
coedge $-1 $382 $167 $379 $383 forward $105 $-1 #
coedge $-1 $167 $382 $384 $385 forward $105 $-1 #
coedge $-1 $274 $273 $167 $267 reversed $275 $-1 #
edge $-1 $386 -23.218261957911228 $387 23.218261957911228 $266 $388 forward 7 unknown #
coedge $-1 $169 $168 $389 $390 forward $66 $-1 #
coedge $-1 $391 $392 $168 $270 reversed $376 $-1 #
edge $-1 $277 -52.777489547410504 $393 52.777489547410504 $269 $394 forward 7 unknown #
coedge $-1 $263 $395 $169 $272 reversed $165 $-1 #
edge $-1 $396 -52.777489547410504 $276 52.777489547410504 $271 $397 forward 7 unknown #
coedge $-1 $266 $170 $395 $398 forward $275 $-1 #
coedge $-1 $170 $266 $391 $399 reversed $275 $-1 #
loop $-1 $-1 $273 $375 #
vertex $-1 $171 $400 #
vertex $-1 $171 $401 #
straight-curve $-1 52.777489547410504 0 6.5360041596659189 0 1 0 I I #
face $-1 $402 $403 $40 $-1 $404 forward single #
loop $-1 $-1 $288 $172 #
plane-surface $-1 0 -23.218261957911228 0 0 1 0 0 0 1 forward_v I I I I #
coedge $-1 $405 $406 $284 $407 forward $173 $-1 #
coedge $-1 $290 $175 $292 $408 reversed $109 $-1 #
coedge $-1 $175 $290 $282 $407 reversed $109 $-1 #
coedge $-1 $409 $410 $175 $286 forward $403 $-1 #
edge $-1 $411 -52.777489547410504 $412 52.777489547410504 $285 $413 forward 7 unknown #
coedge $-1 $177 $176 $405 $414 reversed $69 $-1 #
coedge $-1 $415 $416 $176 $289 forward $280 $-1 #
edge $-1 $417 -52.777489547410504 $295 52.777489547410504 $288 $418 forward 7 unknown #
coedge $-1 $284 $283 $177 $291 reversed $109 $-1 #
edge $-1 $419 -52.777489547410504 $296 52.777489547410504 $290 $420 forward 7 unknown #
coedge $-1 $421 $178 $283 $408 forward $294 $-1 #
coedge $-1 $178 $421 $415 $422 forward $294 $-1 #
loop $-1 $-1 $292 $402 #
vertex $-1 $289 $423 #
vertex $-1 $179 $424 #
straight-curve $-1 52.777489547410504 -10.3389755491811 2.9592438523862326 0 1 0 I I #
face $-1 $-1 $425 $41 $-1 $426 forward single #
loop $-1 $-1 $427 $180 #
plane-surface $-1 -52.777489547410504 0 0 1 0 0 0 0 -1 forward_v I I I I #
coedge $-1 $302 $183 $185 $308 reversed $113 $-1 #
coedge $-1 $183 $301 $427 $428 reversed $113 $-1 #
coedge $-1 $429 $186 $183 $304 forward $181 $-1 #
edge $-1 $311 -21.71126887410194 $430 -17.874182782203285 $303 $431 forward 7 unknown #
coedge $-1 $185 $184 $432 $433 reversed $72 $-1 #
coedge $-1 $434 $435 $184 $307 forward $425 $-1 #
edge $-1 $436 -16.100091485905779 $310 -9.0549002086613264 $306 $437 forward 7 unknown #
edge $-1 $438 3.9170575986957569e-014 $311 7.0451912772444896 $301 $439 forward 7 unknown #
coedge $-1 $186 $429 $434 $440 forward $181 $-1 #
vertex $-1 $307 $441 #
vertex $-1 $187 $442 #
straight-curve $-1 -48.940403455511841 -7.0132228215008707 6.5360041596659197 0 1 0 I I #
coedge $-1 $313 $313 $-1 $443 reversed $190 $-1 #
edge $-1 $444 0 $444 6.2831853071796004 $191 $445 forward 7 unknown #
vertex $-1 $194 $446 #
ellipse-curve $-1 -50.858946501461183 -16.4931624004886 3.5817068465845412 -0.83867057594974714 0 0.54463902268945019 0.2723195113447251 0 0.41933528797487357 1 I I #
coedge $-1 $317 $317 $-1 $447 reversed $197 $-1 #
edge $-1 $448 0 $448 6.2831853071796004 $198 $449 forward 7 unknown #
vertex $-1 $201 $450 #
ellipse-curve $-1 -50.858946501461183 -14.02644564300174 3.5817068465845412 -0.83867057594974714 0 0.54463902268945019 0.2723195113447251 0 0.41933528797487357 1 I I #
coedge $-1 $321 $321 $-1 $451 reversed $204 $-1 #
edge $-1 $452 0 $452 6.2831853071796004 $205 $453 forward 7 unknown #
vertex $-1 $208 $454 #
ellipse-curve $-1 -50.858946501461183 -11.559728885514879 3.5817068465845412 -0.83867057594974714 0 0.54463902268945019 0.2723195113447251 0 0.41933528797487357 1 I I #
face $-1 $-1 $455 $45 $-1 $456 reversed single #
loop $-1 $-1 $457 $209 #
plane-surface $-1 0 23.218261957911228 0 0 -1 0 0 0 -1 forward_v I I I I #
coedge $-1 $458 $212 $214 $334 forward $132 $-1 #
coedge $-1 $212 $458 $457 $459 reversed $132 $-1 #
coedge $-1 $460 $215 $212 $331 forward $210 $-1 #
edge $-1 $337 5.4423390852384657 $461 13.664728276861327 $330 $462 forward 7 unknown #
coedge $-1 $463 $464 $213 $333 forward $455 $-1 #
edge $-1 $465 -28.430975560352724 $336 -22.522380934189986 $332 $466 forward 7 unknown #
edge $-1 $337 -7.0451912772444896 $465 -3.9170575986957569e-014 $214 $467 forward 7 unknown #
coedge $-1 $215 $460 $463 $468 forward $210 $-1 #
vertex $-1 $333 $469 #
vertex $-1 $216 $470 #
straight-curve $-1 -70.651672329613788 14.995872766288363 6.536004159665918 1 0 0 I I #
coedge $-1 $339 $339 $-1 $471 reversed $219 $-1 #
edge $-1 $472 0 $472 6.2831853071796004 $220 $473 forward 7 unknown #
vertex $-1 $223 $474 #
ellipse-curve $-1 -50.858946501461183 16.64035060461293 3.5817068465845412 -0.83867057594974714 0 0.54463902268945019 0.2723195113447251 0 0.41933528797487357 1 I I #
coedge $-1 $343 $343 $-1 $475 reversed $226 $-1 #
edge $-1 $476 0 $476 6.2831853071796004 $227 $477 forward 7 unknown #
vertex $-1 $230 $478 #
ellipse-curve $-1 -50.858946501461183 19.107067362099794 3.5817068465845412 -0.83867057594974714 0 0.54463902268945019 0.2723195113447251 0 0.41933528797487357 1 I I #
coedge $-1 $347 $347 $-1 $479 reversed $233 $-1 #
edge $-1 $480 0 $480 6.2831853071796004 $234 $481 forward 7 unknown #
vertex $-1 $237 $482 #
ellipse-curve $-1 -50.858946501461183 21.573784119586659 3.5817068465845412 -0.83867057594974714 0 0.54463902268945019 0.2723195113447251 0 0.41933528797487357 1 I I #
face $-1 $-1 $363 $49 $-1 $483 forward single #
loop $-1 $-1 $484 $238 #
plane-surface $-1 52.777489547410504 0 0 -1 0 0 0 0 1 forward_v I I I I #
coedge $-1 $485 $486 $487 $488 reversed $239 $-1 #
coedge $-1 $489 $241 $243 $361 forward $151 $-1 #
coedge $-1 $241 $489 $485 $490 forward $151 $-1 #
coedge $-1 $487 $244 $241 $358 forward $363 $-1 #
edge $-1 $365 -2.2533049031616859 $491 9.6163583306924973 $357 $492 forward 7 unknown #
coedge $-1 $493 $494 $242 $360 forward $352 $-1 #
edge $-1 $495 -73.609810538512463 $364 -69.108732690038323 $359 $496 forward 7 unknown #
edge $-1 $365 99.075423118806071 $495 105.55497909482099 $243 $497 forward 7 unknown #
coedge $-1 $244 $487 $493 $498 forward $363 $-1 #
loop $-1 $-1 $487 $351 #
vertex $-1 $360 $499 #
vertex $-1 $245 $500 #
straight-curve $-1 25.08612171284199 -1.4282218106037199 6.5360041596659215 -1 0 0 I I #
coedge $-1 $367 $367 $-1 $501 reversed $248 $-1 #
edge $-1 $502 0 $502 6.2831853071796004 $249 $503 forward 7 unknown #
vertex $-1 $252 $504 #
ellipse-curve $-1 50.446988321907384 -9.9065526919281375 4.2854652354288376 0.69465837861970381 0 0.71933979245794832 1.0790096886869225 0 -1.0419875679295556 1 I I #
coedge $-1 $371 $371 $-1 $505 reversed $255 $-1 #
edge $-1 $506 0 $506 6.2831853071796004 $256 $507 forward 7 unknown #
vertex $-1 $259 $508 #
ellipse-curve $-1 50.446988321907384 -4.8195541631334891 4.2854652354288376 0.69465837861970381 0 0.71933979245794832 1.0790096886869225 0 -1.0419875679295556 1 I I #
face $-1 $-1 $275 $39 $-1 $509 reversed single #
loop $-1 $-1 $391 $260 #
plane-surface $-1 0 23.218261957911228 0 0 -1 0 0 0 -1 forward_v I I I I #
coedge $-1 $510 $389 $392 $511 forward $261 $-1 #
coedge $-1 $395 $263 $264 $383 reversed $165 $-1 #
coedge $-1 $389 $510 $263 $381 reversed $261 $-1 #
edge $-1 $396 -6.5360041596659189 $512 6.5360041596659189 $380 $513 forward 7 unknown #
coedge $-1 $265 $264 $510 $514 forward $105 $-1 #
edge $-1 $387 -52.777489547410504 $512 52.777489547410504 $379 $515 forward 7 unknown #
coedge $-1 $392 $391 $265 $385 reversed $376 $-1 #
edge $-1 $516 -52.777489547410504 $386 52.777489547410504 $384 $517 forward 7 unknown #
vertex $-1 $267 $518 #
vertex $-1 $398 $519 #
straight-curve $-1 52.777489547410504 0 -6.5360041596659189 0 -1 0 I I #
coedge $-1 $378 $380 $268 $390 reversed $261 $-1 #
edge $-1 $393 -23.218261957911228 $396 23.218261957911228 $389 $520 forward 7 unknown #
coedge $-1 $384 $269 $274 $399 forward $376 $-1 #
coedge $-1 $269 $384 $378 $511 reversed $376 $-1 #
vertex $-1 $270 $521 #
straight-curve $-1 0 23.218261957911228 6.5360041596659189 -1 0 0 I I #
coedge $-1 $271 $379 $273 $398 reversed $165 $-1 #
vertex $-1 $390 $522 #
straight-curve $-1 0 -23.218261957911228 6.5360041596659189 1 0 0 I I #
edge $-1 $276 -6.5360041596659189 $387 6.5360041596659189 $273 $523 forward 7 unknown #
edge $-1 $277 -6.5360041596659189 $386 6.5360041596659189 $274 $524 forward 7 unknown #
point $-1 52.777489547410504 -23.218261957911228 6.5360041596659189 #
point $-1 52.777489547410504 23.218261957911228 6.5360041596659189 #
face $-1 $-1 $294 $40 $-1 $525 reversed single #
loop $-1 $-1 $285 $279 #
plane-surface $-1 0 0 6.5360041596659189 0 0 1 1 0 0 forward_v I I I I #
coedge $-1 $526 $282 $287 $414 forward $173 $-1 #
coedge $-1 $282 $526 $409 $527 reversed $173 $-1 #
edge $-1 $412 -4.1621921566528801 $419 -0.58543184937319515 $282 $528 forward 7 unknown #
edge $-1 $296 0.58543184937319515 $411 4.1621921566528801 $292 $529 forward 7 unknown #
coedge $-1 $530 $285 $406 $527 forward $403 $-1 #
coedge $-1 $285 $530 $421 $531 forward $403 $-1 #
vertex $-1 $408 $532 #
vertex $-1 $527 $533 #
straight-curve $-1 0 -18.137640238813173 6.5360041596659189 -1 0 0 I I #
edge $-1 $419 7.7986646896320728 $417 12.879286408730128 $405 $534 forward 7 unknown #
coedge $-1 $535 $288 $293 $422 reversed $280 $-1 #
coedge $-1 $288 $535 $526 $536 forward $280 $-1 #
vertex $-1 $289 $537 #
straight-curve $-1 0 -23.218261957911228 2.9592438523862326 1 0 0 I I #
vertex $-1 $414 $538 #
straight-curve $-1 0 -18.137640238813173 2.9592438523862326 1 0 0 I I #
coedge $-1 $293 $292 $410 $531 reversed $294 $-1 #
edge $-1 $539 -6.5360041596659189 $295 -2.9592438523862326 $293 $540 forward 7 unknown #
point $-1 52.777489547410504 -23.218261957911228 2.9592438523862326 #
point $-1 52.777489547410504 -18.137640238813173 2.9592438523862326 #
loop $-1 $-1 $306 $298 #
plane-surface $-1 0 -18.137640238813173 4.7476240060260748 0 -1 0 0 0 -1 forward_v I I I I #
coedge $-1 $432 $541 $302 $428 forward $299 $-1 #
edge $-1 $430 22.522380934189986 $438 28.430975560352724 $427 $542 forward 7 unknown #
coedge $-1 $309 $303 $541 $543 forward $181 $-1 #
vertex $-1 $543 $544 #
straight-curve $-1 -70.651672329613788 -9.9152510471903099 6.536004159665918 -1 0 0 I I #
coedge $-1 $545 $427 $305 $433 forward $299 $-1 #
edge $-1 $438 2.9020282256894392 $436 11.124417417312301 $432 $546 forward 7 unknown #
coedge $-1 $435 $306 $309 $440 reversed $425 $-1 #
coedge $-1 $306 $434 $545 $547 reversed $425 $-1 #
vertex $-1 $547 $548 #
straight-curve $-1 -44.008751455316045 -18.137640238813173 14.130082532831398 0.54463902268945019 0 0.83867057594974714 I I #
vertex $-1 $433 $549 #
straight-curve $-1 -52.777489547410525 -9.9152510471903099 0.62740953350314754 0.54463902268945019 0 0.83867057594974714 I I #
edge $-1 $550 -52.777489547410504 $310 -48.940403455511849 $309 $551 forward 7 unknown #
point $-1 -48.940403455511849 -18.137640238813173 6.5360041596659189 #
point $-1 -48.940403455511849 -9.9152510471903099 6.5360041596659189 #
edge $-1 $552 1 $552 0 $313 $-1 forward 7 unknown #
vertex $-1 $314 $553 #
ellipse-curve $-1 -50.02027592551142 -16.4931624004886 3.0370678238950828 -0.83867057594974714 0 0.54463902268945019 0.2723195113447251 0 0.41933528797487357 1 I I #
point $-1 -50.586626990116443 -16.4931624004886 4.0010421345594063 #
edge $-1 $554 1 $554 0 $317 $-1 forward 7 unknown #
vertex $-1 $318 $555 #
ellipse-curve $-1 -50.02027592551142 -14.02644564300174 3.0370678238950828 -0.83867057594974714 0 0.54463902268945019 0.2723195113447251 0 0.41933528797487357 1 I I #
point $-1 -50.586626990116443 -14.02644564300174 4.0010421345594063 #
edge $-1 $556 1 $556 0 $321 $-1 forward 7 unknown #
vertex $-1 $322 $557 #
ellipse-curve $-1 -50.02027592551142 -11.559728885514879 3.0370678238950828 -0.83867057594974714 0 0.54463902268945019 0.2723195113447251 0 0.41933528797487357 1 I I #
point $-1 -50.586626990116443 -11.559728885514879 4.0010421345594063 #
loop $-1 $-1 $332 $325 #
plane-surface $-1 -52.777489547410504 0 0 1 0 0 0 0 -1 forward_v I I I I #
coedge $-1 $558 $559 $329 $459 forward $326 $-1 #
coedge $-1 $329 $328 $464 $560 reversed $132 $-1 #
edge $-1 $461 7.0640539288979589 $561 14.109245206142408 $457 $562 forward 7 unknown #
coedge $-1 $335 $330 $559 $563 forward $210 $-1 #
vertex $-1 $563 $564 #
straight-curve $-1 -48.940403455511841 9.5535336810498972 6.5360041596659197 0 1 0 I I #
coedge $-1 $565 $332 $335 $468 reversed $455 $-1 #
coedge $-1 $332 $565 $458 $560 forward $455 $-1 #
vertex $-1 $333 $566 #
straight-curve $-1 -52.777489547410504 14.995872766288363 29.058385093855904 0 0 1 I I #
straight-curve $-1 -52.777489547410525 14.995872766288363 0.62740953350314754 -0.54463902268945019 0 -0.83867057594974714 I I #
edge $-1 $567 -23.218261957911228 $336 -14.995872766288363 $463 $568 forward 7 unknown #
point $-1 -52.777489547410504 14.995872766288363 6.5360041596659189 #
point $-1 -48.940403455511849 14.995872766288363 6.5360041596659189 #
edge $-1 $569 1 $569 0 $339 $-1 forward 7 unknown #
vertex $-1 $340 $570 #
ellipse-curve $-1 -50.02027592551142 16.64035060461293 3.0370678238950828 -0.83867057594974714 0 0.54463902268945019 0.2723195113447251 0 0.41933528797487357 1 I I #
point $-1 -50.586626990116443 16.64035060461293 4.0010421345594063 #
edge $-1 $571 1 $571 0 $343 $-1 forward 7 unknown #
vertex $-1 $344 $572 #
ellipse-curve $-1 -50.02027592551142 19.107067362099794 3.0370678238950828 -0.83867057594974714 0 0.54463902268945019 0.2723195113447251 0 0.41933528797487357 1 I I #
point $-1 -50.586626990116443 19.107067362099794 4.0010421345594063 #
edge $-1 $573 1 $573 0 $347 $-1 forward 7 unknown #
vertex $-1 $348 $574 #
ellipse-curve $-1 -50.02027592551142 21.573784119586659 3.0370678238950828 -0.83867057594974714 0 0.54463902268945019 0.2723195113447251 0 0.41933528797487357 1 I I #
point $-1 -50.586626990116443 21.573784119586659 4.0010421345594063 #
plane-surface $-1 0 0 6.5360041596659189 0 0 1 1 0 0 forward_v I I I I #
coedge $-1 $494 $493 $486 $575 forward $352 $-1 #
coedge $-1 $486 $354 $356 $490 reversed $239 $-1 #
coedge $-1 $354 $485 $484 $575 reversed $239 $-1 #
coedge $-1 $362 $357 $354 $488 forward $363 $-1 #
edge $-1 $491 23.030365383562259 $576 27.691367834568513 $487 $577 forward 7 unknown #
coedge $-1 $356 $355 $494 $578 reversed $151 $-1 #
edge $-1 $579 -105.55497909482099 $491 -99.075423118806071 $485 $580 forward 7 unknown #
vertex $-1 $358 $581 #
straight-curve $-1 48.116487096404256 -3.6815267137654057 6.5360041596659215 0 -1 0 I I #
coedge $-1 $484 $359 $362 $498 reversed $352 $-1 #
coedge $-1 $359 $484 $489 $578 forward $352 $-1 #
vertex $-1 $360 $582 #
straight-curve $-1 52.777489547410504 -1.4282218106037199 75.644736849704245 0 0 1 I I #
straight-curve $-1 -23.152407207561119 -1.4282218106037199 75.359576944436867 0.71933979245794832 0 -0.69465837861970381 I I #
edge $-1 $576 -13.297885044457903 $364 -1.4282218106037199 $493 $583 forward 7 unknown #
point $-1 52.777489547410504 -1.4282218106037199 6.5360041596659189 #
point $-1 48.116487096404249 -1.4282218106037199 6.5360041596659215 #
edge $-1 $584 1 $584 0 $367 $-1 forward 7 unknown #
vertex $-1 $368 $585 #
ellipse-curve $-1 49.104682427871481 -9.9065526919281375 2.8954668233324079 0.69465837861970381 0 0.71933979245794832 1.0790096886869225 0 -1.0419875679295556 1 I I #
point $-1 51.525998010594307 -9.9065526919281375 3.2434776674992811 #
edge $-1 $586 1 $586 0 $371 $-1 forward 7 unknown #
vertex $-1 $372 $587 #
ellipse-curve $-1 49.104682427871481 -4.8195541631334891 2.8954668233324079 0.69465837861970381 0 0.71933979245794832 1.0790096886869225 0 -1.0419875679295556 1 I I #
point $-1 51.525998010594307 -4.8195541631334891 3.2434776674992811 #
plane-surface $-1 52.777489547410504 0 0 -1 0 0 0 0 1 forward_v I I I I #
coedge $-1 $380 $378 $382 $514 reversed $261 $-1 #
edge $-1 $393 -6.5360041596659189 $516 6.5360041596659189 $392 $588 forward 7 unknown #
vertex $-1 $514 $589 #
straight-curve $-1 -52.777489547410504 -23.218261957911228 0 0 0 -1 I I #
edge $-1 $512 -23.218261957911228 $516 23.218261957911228 $510 $590 forward 7 unknown #
straight-curve $-1 0 -23.218261957911228 -6.5360041596659189 -1 0 0 I I #
vertex $-1 $385 $591 #
straight-curve $-1 0 23.218261957911228 -6.5360041596659189 1 0 0 I I #
point $-1 52.777489547410504 23.218261957911228 -6.5360041596659189 #
point $-1 52.777489547410504 -23.218261957911228 -6.5360041596659189 #
straight-curve $-1 -52.777489547410504 0 6.5360041596659189 0 -1 0 I I #
point $-1 -52.777489547410504 23.218261957911228 6.5360041596659189 #
point $-1 -52.777489547410504 -23.218261957911228 6.5360041596659189 #
straight-curve $-1 52.777489547410504 -23.218261957911228 0 0 0 -1 I I #
straight-curve $-1 52.777489547410504 23.218261957911228 0 0 0 -1 I I #
plane-surface $-1 52.777489547410504 0 0 -1 0 0 0 0 1 forward_v I I I I #
coedge $-1 $406 $405 $416 $536 reversed $173 $-1 #
edge $-1 $412 18.137640238813173 $592 23.218261957911228 $406 $593 forward 7 unknown #
straight-curve $-1 -52.777489547410504 -18.137640238813173 2.3738120030130374 0 0 -1 I I #
straight-curve $-1 52.777489547410504 -18.137640238813173 2.3738120030130374 0 0 1 I I #
coedge $-1 $410 $409 $535 $594 forward $403 $-1 #
edge $-1 $539 -23.218261957911228 $411 -18.137640238813173 $421 $595 forward 7 unknown #
point $-1 52.777489547410504 -18.137640238813173 6.5360041596659171 #
point $-1 -52.777489547410504 -18.137640238813173 6.5360041596659171 #
straight-curve $-1 -52.777489547410504 -10.3389755491811 2.9592438523862326 0 -1 0 I I #
coedge $-1 $416 $415 $530 $594 reversed $280 $-1 #
edge $-1 $592 -6.5360041596659189 $417 -2.9592438523862326 $526 $596 forward 7 unknown #
point $-1 -52.777489547410504 -23.218261957911228 2.9592438523862326 #
point $-1 -52.777489547410504 -18.137640238813173 2.9592438523862326 #
vertex $-1 $531 $597 #
straight-curve $-1 52.777489547410504 -23.218261957911228 0 0 0 -1 I I #
coedge $-1 $427 $545 $429 $543 reversed $299 $-1 #
straight-curve $-1 -52.777489547410504 -9.9152510471903099 29.058385093855904 0 0 -1 I I #
edge $-1 $430 9.9152510471903099 $550 18.137640238813173 $541 $598 forward 7 unknown #
point $-1 -52.777489547410504 -9.9152510471903099 6.5360041596659189 #
coedge $-1 $541 $432 $435 $547 forward $299 $-1 #
straight-curve $-1 -52.777489547410504 -7.0132228215008707 0.62740953350318018 0 -1 0 I I #
edge $-1 $436 -28.430975560352724 $550 -22.522380934189986 $545 $599 forward 7 unknown #
point $-1 -52.777489547410504 -18.137640238813173 0.62740953350318041 #
point $-1 -52.777489547410504 -9.9152510471903099 0.62740953350318041 #
vertex $-1 $547 $600 #
straight-curve $-1 0 -18.137640238813173 6.5360041596659189 1 0 0 I I #
vertex $-1 $443 $601 #
point $-1 -49.747956414166694 -16.4931624004886 3.4564031118699563 #
vertex $-1 $447 $602 #
point $-1 -49.747956414166694 -14.02644564300174 3.4564031118699563 #
vertex $-1 $451 $603 #
point $-1 -49.747956414166694 -11.559728885514879 3.4564031118699563 #
coedge $-1 $559 $457 $565 $604 reversed $326 $-1 #
coedge $-1 $457 $558 $460 $563 reversed $326 $-1 #
edge $-1 $561 -13.664728276861327 $465 -5.4423390852384657 $464 $605 forward 7 unknown #
vertex $-1 $459 $606 #
straight-curve $-1 -45.093044027451292 23.218261957911228 12.460418336754843 -0.54463902268945019 0 -0.83867057594974714 I I #
edge $-1 $461 48.940403455511849 $567 52.777489547410504 $559 $607 forward 7 unknown #
point $-1 -48.940403455511849 23.218261957911224 6.5360041596659189 #
coedge $-1 $464 $463 $558 $604 forward $455 $-1 #
point $-1 -52.777489547410504 14.995872766288363 0.62740953350318041 #
vertex $-1 $563 $608 #
straight-curve $-1 -52.777489547410504 0 6.5360041596659189 0 -1 0 I I #
vertex $-1 $471 $609 #
point $-1 -49.747956414166694 16.64035060461293 3.4564031118699563 #
vertex $-1 $475 $610 #
point $-1 -49.747956414166694 19.107067362099794 3.4564031118699563 #
vertex $-1 $479 $611 #
point $-1 -49.747956414166694 21.573784119586659 3.4564031118699563 #
edge $-1 $576 69.108732690038323 $579 73.609810538512463 $484 $612 forward 7 unknown #
vertex $-1 $498 $613 #
straight-curve $-1 25.08612171284199 -13.297885044457903 6.5360041596659215 1 0 0 I I #
edge $-1 $579 -9.6163583306924973 $495 2.2533049031616859 $494 $614 forward 7 unknown #
vertex $-1 $578 $615 #
straight-curve $-1 -23.152407207561119 -13.297885044457903 75.359576944436867 -0.71933979245794832 0 0.69465837861970381 I I #
point $-1 48.116487096404249 -13.297885044457903 6.5360041596659215 #
point $-1 52.777489547410504 -1.4282218106037199 2.0349263111917821 #
straight-curve $-1 52.777489547410504 0 6.5360041596659189 0 1 0 I I #
vertex $-1 $501 $616 #
point $-1 50.183692116558404 -9.9065526919281375 1.8534792554028523 #
vertex $-1 $505 $617 #
point $-1 50.183692116558404 -4.8195541631334891 1.8534792554028523 #
straight-curve $-1 -52.777489547410504 23.218261957911228 0 0 0 -1 I I #
point $-1 -52.777489547410504 -23.218261957911228 -6.5360041596659189 #
straight-curve $-1 -52.777489547410504 0 -6.5360041596659189 0 1 0 I I #
point $-1 -52.777489547410504 23.218261957911228 -6.5360041596659189 #
vertex $-1 $527 $618 #
straight-curve $-1 -52.777489547410504 0 6.5360041596659189 0 -1 0 I I #
edge $-1 $592 -52.777489547410504 $539 52.777489547410504 $535 $619 forward 7 unknown #
straight-curve $-1 52.777489547410504 0 6.5360041596659189 0 1 0 I I #
straight-curve $-1 -52.777489547410504 -23.218261957911228 0 0 0 -1 I I #
point $-1 52.777489547410504 -23.218261957911228 6.5360041596659189 #
straight-curve $-1 -52.777489547410504 0 6.5360041596659189 0 -1 0 I I #
straight-curve $-1 -52.777489547410504 -18.137640238813173 29.058385093855904 0 0 1 I I #
point $-1 -52.777489547410504 -18.137640238813173 6.5360041596659171 #
point $-1 -49.600940637536546 -16.4931624004886 2.7647483125503576 #
point $-1 -49.600940637536546 -14.02644564300174 2.7647483125503576 #
point $-1 -49.600940637536546 -11.559728885514879 2.7647483125503576 #
edge $-1 $567 -6.5360041596659189 $561 -0.62740953350318041 $558 $620 forward 7 unknown #
straight-curve $-1 -52.777489547410504 9.5535336810498972 0.62740953350318018 0 -1 0 I I #
point $-1 -52.777489547410504 23.218261957911224 0.62740953350318041 #
straight-curve $-1 0 23.218261957911228 6.5360041596659189 -1 0 0 I I #
point $-1 -52.777489547410504 23.218261957911228 6.5360041596659189 #
point $-1 -49.600940637536546 16.64035060461293 2.7647483125503576 #
point $-1 -49.600940637536546 19.107067362099794 2.7647483125503576 #
point $-1 -49.600940637536546 21.573784119586659 2.7647483125503576 #
straight-curve $-1 52.777489547410504 -13.297885044457903 75.644736849704245 0 0 -1 I I #
point $-1 52.777489547410504 -13.297885044457903 6.5360041596659189 #
straight-curve $-1 52.777489547410497 -3.6815267137654057 2.0349263111917821 0 1 0 I I #
point $-1 52.777489547410504 -13.297885044457903 2.0349263111917821 #
point $-1 48.062694859941928 -9.9065526919281375 1.8164571346454852 #
point $-1 48.062694859941928 -4.8195541631334891 1.8164571346454852 #
point $-1 -52.777489547410504 -23.218261957911228 6.5360041596659189 #
straight-curve $-1 0 -23.218261957911228 6.5360041596659189 1 0 0 I I #
straight-curve $-1 -52.777489547410504 23.218261957911228 0 0 0 -1 I I #
End-of-ACIS-data 