500 0 18 0           
7 Unknown 11 ACIS 5.0 NT 24 Thu Mar 25 21:25:44 1999 
-1 9.9999999999999995e-007 1e-010 
body $-1 $18 $-1 $19 #
body $-1 $20 $-1 $21 #
body $-1 $22 $-1 $23 #
body $-1 $24 $-1 $25 #
body $-1 $26 $-1 $27 #
body $-1 $28 $-1 $29 #
body $-1 $30 $-1 $31 #
body $-1 $32 $-1 $33 #
body $-1 $34 $-1 $35 #
body $-1 $36 $-1 $37 #
body $-1 $38 $-1 $39 #
body $-1 $40 $-1 $41 #
body $-1 $42 $-1 $43 #
body $-1 $44 $-1 $45 #
body $-1 $46 $-1 $47 #
body $-1 $48 $-1 $49 #
body $-1 $50 $-1 $51 #
body $-1 $52 $-1 $53 #
lump $-1 $-1 $54 $0 #
transform $-1 1 0 0 0 1 0 0 0 1 59.873653370769375 28.861670044759645 9.0468524133953778 1 rotate no_reflect no_shear #
lump $-1 $-1 $55 $1 #
transform $-1 1 0 0 0 1 0 0 0 1 59.873653370769375 28.861670044759645 9.0468524133953778 1 rotate no_reflect no_shear #
lump $-1 $-1 $56 $2 #
transform $-1 1 0 0 0 1 0 0 0 1 59.873653370769375 28.861670044759645 9.0468524133953778 1 rotate no_reflect no_shear #
lump $-1 $-1 $57 $3 #
transform $-1 1 0 0 0 1 0 0 0 1 59.873653370769375 28.861670044759645 9.0468524133953778 1 rotate no_reflect no_shear #
lump $-1 $-1 $58 $4 #
transform $-1 1 0 0 0 1 0 0 0 1 59.873653370769375 28.861670044759645 9.0468524133953778 1 rotate no_reflect no_shear #
lump $-1 $-1 $59 $5 #
transform $-1 1 0 0 0 1 0 0 0 1 59.873653370769375 28.861670044759645 9.0468524133953778 1 rotate no_reflect no_shear #
lump $-1 $-1 $60 $6 #
transform $-1 1 0 0 0 1 0 0 0 1 59.873653370769375 28.861670044759645 9.0468524133953778 1 rotate no_reflect no_shear #
lump $-1 $-1 $61 $7 #
transform $-1 1 0 0 0 1 0 0 0 1 59.873653370769375 28.861670044759645 9.0468524133953778 1 rotate no_reflect no_shear #
lump $-1 $-1 $62 $8 #
transform $-1 1 0 0 0 1 0 0 0 1 59.873653370769375 28.861670044759645 9.0468524133953778 1 rotate no_reflect no_shear #
lump $-1 $-1 $63 $9 #
transform $-1 1 0 0 0 1 0 0 0 1 59.873653370769375 28.861670044759645 9.0468524133953778 1 rotate no_reflect no_shear #
lump $-1 $-1 $64 $10 #
transform $-1 1 0 0 0 1 0 0 0 1 59.873653370769375 28.861670044759645 9.0468524133953778 1 rotate no_reflect no_shear #
lump $-1 $-1 $65 $11 #
transform $-1 1 0 0 0 1 0 0 0 1 59.873653370769375 28.861670044759645 9.0468524133953778 1 rotate no_reflect no_shear #
lump $-1 $-1 $66 $12 #
transform $-1 1 0 0 0 1 0 0 0 1 59.873653370769375 28.861670044759645 9.0468524133953778 1 rotate no_reflect no_shear #
lump $-1 $-1 $67 $13 #
transform $-1 1 0 0 0 1 0 0 0 1 59.873653370769375 28.861670044759645 9.0468524133953778 1 rotate no_reflect no_shear #
lump $-1 $-1 $68 $14 #
transform $-1 1 0 0 0 1 0 0 0 1 59.873653370769375 28.861670044759645 9.0468524133953778 1 rotate no_reflect no_shear #
lump $-1 $-1 $69 $15 #
transform $-1 1 0 0 0 1 0 0 0 1 59.873653370769375 28.861670044759645 9.0468524133953778 1 rotate no_reflect no_shear #
lump $-1 $-1 $70 $16 #
transform $-1 1 0 0 0 1 0 0 0 1 59.873653370769375 28.861670044759645 9.0468524133953778 1 rotate no_reflect no_shear #
lump $-1 $-1 $71 $17 #
transform $-1 1 0 0 0 1 0 0 0 1 59.873653370769375 28.861670044759645 9.0468524133953778 1 rotate no_reflect no_shear #
shell $-1 $-1 $-1 $72 $-1 $18 #
shell $-1 $-1 $-1 $73 $-1 $20 #
shell $-1 $-1 $-1 $74 $-1 $22 #
shell $-1 $-1 $-1 $75 $-1 $24 #
shell $-1 $-1 $-1 $76 $-1 $26 #
shell $-1 $-1 $-1 $77 $-1 $28 #
shell $-1 $-1 $-1 $78 $-1 $30 #
shell $-1 $-1 $-1 $79 $-1 $32 #
shell $-1 $-1 $-1 $80 $-1 $34 #
shell $-1 $-1 $-1 $81 $-1 $36 #
shell $-1 $-1 $-1 $82 $-1 $38 #
shell $-1 $-1 $-1 $83 $-1 $40 #
shell $-1 $-1 $-1 $84 $-1 $42 #
shell $-1 $-1 $-1 $85 $-1 $44 #
shell $-1 $-1 $-1 $86 $-1 $46 #
shell $-1 $-1 $-1 $87 $-1 $48 #
shell $-1 $-1 $-1 $88 $-1 $50 #
shell $-1 $-1 $-1 $89 $-1 $52 #
face $-1 $90 $91 $54 $-1 $92 forward single #
face $-1 $93 $94 $55 $-1 $95 reversed single #
face $-1 $96 $97 $56 $-1 $98 reversed single #
face $-1 $99 $100 $57 $-1 $101 reversed single #
face $-1 $102 $103 $58 $-1 $104 forward single #
face $-1 $105 $106 $59 $-1 $107 forward single #
face $-1 $108 $109 $60 $-1 $110 reversed single #
face $-1 $111 $112 $61 $-1 $113 forward single #
face $-1 $114 $115 $62 $-1 $116 forward single #
face $-1 $117 $118 $63 $-1 $119 reversed single #
face $-1 $120 $121 $64 $-1 $122 forward single #
face $-1 $123 $124 $65 $-1 $125 forward single #
face $-1 $126 $127 $66 $-1 $128 reversed single #
face $-1 $129 $130 $67 $-1 $131 forward single #
face $-1 $132 $133 $68 $-1 $134 forward single #
face $-1 $135 $136 $69 $-1 $137 reversed single #
face $-1 $138 $139 $70 $-1 $140 forward single #
face $-1 $141 $142 $71 $-1 $143 forward single #
face $-1 $144 $145 $54 $-1 $146 reversed single #
loop $-1 $-1 $147 $72 #
plane-surface $-1 0 0 9.0468524133953778 0 0 1 1 0 0 forward_v I I I I #
face $-1 $148 $149 $55 $-1 $150 reversed single #
loop $-1 $-1 $151 $73 #
plane-surface $-1 -59.373653370769375 -23.890426438225816 0 1 0 0 0 0 -1 forward_v I I I I #
face $-1 $152 $153 $56 $-1 $154 reversed single #
loop $-1 $-1 $155 $74 #
plane-surface $-1 -57.873653370769375 18.919182831691991 0 0 1 0 0 0 1 forward_v I I I I #
face $-1 $156 $157 $57 $-1 $158 reversed single #
loop $-1 $-1 $159 $75 #
plane-surface $-1 -151.60541327089175 -6.6598848337973404 78.541604431591765 0 1 0 -0.7660444514056185 0 0.64278759981090561 forward_v I I I I #
face $-1 $160 $161 $58 $-1 $162 forward single #
loop $-1 $163 $164 $76 #
cone-surface $-1 -56.302850892065152 -4.7570605955695306 4.9442779117903637 0.7660444514056185 0 -0.64278759981090561 0.3213937999054528 0 0.38302222570280925 1 I I 0 1 0.5 forward I I I I #
face $-1 $165 $166 $59 $-1 $167 forward single #
loop $-1 $168 $169 $77 #
cone-surface $-1 -56.302850892065152 -1.9028242382278115 4.9442779117903637 0.7660444514056185 0 -0.64278759981090561 0.3213937999054528 0 0.38302222570280925 1 I I 0 1 0.5 forward I I I I #
face $-1 $170 $171 $60 $-1 $172 reversed single #
loop $-1 $-1 $173 $78 #
plane-surface $-1 -151.60541327089175 12.259297997894643 78.541604431591765 0 1 0 -0.7660444514056185 0 0.64278759981090561 forward_v I I I I #
face $-1 $174 $175 $61 $-1 $176 forward single #
loop $-1 $177 $178 $79 #
cone-surface $-1 -56.302850892065152 14.16212223612246 4.9442779117903637 0.7660444514056185 0 -0.64278759981090561 0.3213937999054528 0 0.38302222570280925 1 I I 0 1 0.5 forward I I I I #
face $-1 $179 $180 $62 $-1 $181 forward single #
loop $-1 $182 $183 $80 #
cone-surface $-1 -56.302850892065152 17.016358593464179 4.9442779117903637 0.7660444514056185 0 -0.64278759981090561 0.3213937999054528 0 0.38302222570280925 1 I I 0 1 0.5 forward I I I I #
face $-1 $184 $185 $63 $-1 $186 reversed single #
loop $-1 $-1 $187 $81 #
plane-surface $-1 27.560482466657518 -9.5789617262504407 168.23267100264607 0 -1 0 -0.55919291073839883 0 -0.82903756765294845 forward_v I I I I #
face $-1 $188 $189 $64 $-1 $190 forward single #
loop $-1 $191 $192 $82 #
cone-surface $-1 54.367256937909808 -14.533396510766446 5.1068124622533713 -0.55919291073839883 0 -0.82903756765294845 0.41451878382647422 0 -0.27959645536919941 1 I I 0 1 0.5 forward I I I I #
face $-1 $193 $194 $65 $-1 $195 forward single #
loop $-1 $196 $197 $83 #
cone-surface $-1 54.367256937909808 -11.560735640056841 5.1068124622533713 -0.55919291073839883 0 -0.82903756765294845 0.41451878382647422 0 -0.27959645536919941 1 I I 0 1 0.5 forward I I I I #
face $-1 $198 $199 $66 $-1 $200 reversed single #
loop $-1 $-1 $201 $84 #
plane-surface $-1 27.560482466657518 3.4681043491612007 168.23267100264607 0 -1 0 -0.55919291073839883 0 -0.82903756765294845 forward_v I I I I #
face $-1 $202 $203 $67 $-1 $204 forward single #
loop $-1 $205 $206 $85 #
cone-surface $-1 54.367256937909808 -1.4863304353548052 5.1068124622533713 -0.55919291073839883 0 -0.82903756765294845 0.41451878382647422 0 -0.27959645536919941 1 I I 0 1 0.5 forward I I I I #
face $-1 $207 $208 $68 $-1 $209 forward single #
loop $-1 $210 $211 $86 #
cone-surface $-1 54.367256937909808 1.4863304353548017 5.1068124622533713 -0.55919291073839883 0 -0.82903756765294845 0.41451878382647422 0 -0.27959645536919941 1 I I 0 1 0.5 forward I I I I #
face $-1 $212 $213 $69 $-1 $214 reversed single #
loop $-1 $-1 $215 $87 #
plane-surface $-1 27.560482466657518 16.515170424572844 168.23267100264607 0 -1 0 -0.55919291073839883 0 -0.82903756765294845 forward_v I I I I #
face $-1 $216 $217 $70 $-1 $218 forward single #
loop $-1 $219 $220 $88 #
cone-surface $-1 54.367256937909808 11.560735640056837 5.1068124622533713 -0.55919291073839883 0 -0.82903756765294845 0.41451878382647422 0 -0.27959645536919941 1 I I 0 1 0.5 forward I I I I #
face $-1 $221 $222 $71 $-1 $223 forward single #
loop $-1 $224 $225 $89 #
cone-surface $-1 54.367256937909808 14.53339651076644 5.1068124622533713 -0.55919291073839883 0 -0.82903756765294845 0.41451878382647422 0 -0.27959645536919941 1 I I 0 1 0.5 forward I I I I #
face $-1 $226 $227 $54 $-1 $228 reversed single #
loop $-1 $-1 $229 $90 #
plane-surface $-1 0 0 -9.0468524133953778 0 0 1 1 0 0 forward_v I I I I #
coedge $-1 $230 $231 $232 $233 forward $91 $-1 #
face $-1 $234 $235 $55 $-1 $236 reversed single #
loop $-1 $-1 $237 $93 #
plane-surface $-1 -57.873653370769375 -18.919182831691987 0 0 -1 0 0 0 -1 forward_v I I I I #
coedge $-1 $238 $239 $240 $241 forward $94 $-1 #
face $-1 $242 $243 $56 $-1 $244 reversed single #
loop $-1 $-1 $245 $96 #
plane-surface $-1 -59.373653370769375 23.89042643822582 0 1 0 0 0 0 -1 forward_v I I I I #
coedge $-1 $246 $247 $248 $249 forward $97 $-1 #
face $-1 $250 $251 $57 $-1 $252 reversed single #
loop $-1 $-1 $253 $99 #
plane-surface $-1 -59.873653370769375 -3.3299424168986711 1.5695205473777918 -0.7660444514056185 0 0.64278759981090561 0.64278759981090561 0 0.7660444514056185 forward_v I I I I #
coedge $-1 $254 $255 $256 $257 reversed $100 $-1 #
face $-1 $-1 $258 $58 $-1 $259 forward single #
loop $-1 $260 $261 $102 #
cone-surface $-1 -55.677650423858886 -4.7570605955695306 4.4196724432414225 0.7660444514056185 0 -0.64278759981090561 0.1606968999527264 0 0.19151111285140462 1 I I -0.70710678118654746 0.70710678118654746 0.25 forward I I I I #
loop $-1 $-1 $262 $76 #
coedge $-1 $164 $164 $263 $264 reversed $103 $-1 #
face $-1 $-1 $265 $59 $-1 $266 forward single #
loop $-1 $267 $268 $105 #
cone-surface $-1 -55.677650423858886 -1.9028242382278115 4.4196724432414225 0.7660444514056185 0 -0.64278759981090561 0.1606968999527264 0 0.19151111285140462 1 I I -0.70710678118654746 0.70710678118654746 0.25 forward I I I I #
loop $-1 $-1 $269 $77 #
coedge $-1 $169 $169 $270 $271 reversed $106 $-1 #
face $-1 $272 $273 $60 $-1 $274 forward single #
loop $-1 $-1 $275 $108 #
plane-surface $-1 -59.873653370769375 15.589240414793313 1.5695205473777918 -0.7660444514056185 0 0.64278759981090561 0.64278759981090561 0 0.7660444514056185 forward_v I I I I #
coedge $-1 $276 $277 $278 $279 reversed $109 $-1 #
face $-1 $-1 $280 $61 $-1 $281 forward single #
loop $-1 $282 $283 $111 #
cone-surface $-1 -55.677650423858886 14.16212223612246 4.4196724432414225 0.7660444514056185 0 -0.64278759981090561 0.1606968999527264 0 0.19151111285140462 1 I I -0.70710678118654746 0.70710678118654746 0.25 forward I I I I #
loop $-1 $-1 $284 $79 #
coedge $-1 $178 $178 $285 $286 reversed $112 $-1 #
face $-1 $-1 $287 $62 $-1 $288 forward single #
loop $-1 $289 $290 $114 #
cone-surface $-1 -55.677650423858886 17.016358593464179 4.4196724432414225 0.7660444514056185 0 -0.64278759981090561 0.1606968999527264 0 0.19151111285140462 1 I I -0.70710678118654746 0.70710678118654746 0.25 forward I I I I #
loop $-1 $-1 $291 $80 #
coedge $-1 $183 $183 $292 $293 reversed $115 $-1 #
face $-1 $294 $295 $63 $-1 $296 reversed single #
loop $-1 $-1 $297 $117 #
plane-surface $-1 -39.401362543227421 -13.047066075411646 68.957655088649275 0.55919291073839883 0 0.82903756765294845 0.82903756765294845 0 -0.55919291073839883 forward_v I I I I #
coedge $-1 $298 $299 $300 $301 reversed $118 $-1 #
face $-1 $-1 $302 $64 $-1 $303 forward single #
loop $-1 $304 $305 $120 #
cone-surface $-1 53.947862254856005 -14.533396510766446 4.4850342865136597 -0.55919291073839883 0 -0.82903756765294845 0.20725939191323711 0 -0.13979822768459971 1 I I -0.70710678118654746 0.70710678118654746 0.25 forward I I I I #
loop $-1 $-1 $306 $82 #
coedge $-1 $192 $192 $307 $308 reversed $121 $-1 #
face $-1 $-1 $309 $65 $-1 $310 forward single #
loop $-1 $311 $312 $123 #
cone-surface $-1 53.947862254856005 -11.560735640056841 4.4850342865136597 -0.55919291073839883 0 -0.82903756765294845 0.20725939191323711 0 -0.13979822768459971 1 I I -0.70710678118654746 0.70710678118654746 0.25 forward I I I I #
loop $-1 $-1 $313 $83 #
coedge $-1 $197 $197 $314 $315 reversed $124 $-1 #
face $-1 $316 $317 $66 $-1 $318 reversed single #
loop $-1 $-1 $319 $126 #
plane-surface $-1 -39.401362543227421 -3.5527136788005009e-015 68.957655088649275 0.55919291073839883 0 0.82903756765294845 0.82903756765294845 0 -0.55919291073839883 forward_v I I I I #
coedge $-1 $320 $321 $322 $323 reversed $127 $-1 #
face $-1 $-1 $324 $67 $-1 $325 forward single #
loop $-1 $326 $327 $129 #
cone-surface $-1 53.947862254856005 -1.4863304353548052 4.4850342865136597 -0.55919291073839883 0 -0.82903756765294845 0.20725939191323711 0 -0.13979822768459971 1 I I -0.70710678118654746 0.70710678118654746 0.25 forward I I I I #
loop $-1 $-1 $328 $85 #
coedge $-1 $206 $206 $329 $330 reversed $130 $-1 #
face $-1 $-1 $331 $68 $-1 $332 forward single #
loop $-1 $333 $334 $132 #
cone-surface $-1 53.947862254856005 1.4863304353548017 4.4850342865136597 -0.55919291073839883 0 -0.82903756765294845 0.20725939191323711 0 -0.13979822768459971 1 I I -0.70710678118654746 0.70710678118654746 0.25 forward I I I I #
loop $-1 $-1 $335 $86 #
coedge $-1 $211 $211 $336 $337 reversed $133 $-1 #
face $-1 $338 $339 $69 $-1 $340 reversed single #
loop $-1 $-1 $341 $135 #
plane-surface $-1 -39.401362543227421 13.047066075411639 68.957655088649275 0.55919291073839883 0 0.82903756765294845 0.82903756765294845 0 -0.55919291073839883 forward_v I I I I #
coedge $-1 $342 $343 $344 $345 reversed $136 $-1 #
face $-1 $-1 $346 $70 $-1 $347 forward single #
loop $-1 $348 $349 $138 #
cone-surface $-1 53.947862254856005 11.560735640056837 4.4850342865136597 -0.55919291073839883 0 -0.82903756765294845 0.20725939191323711 0 -0.13979822768459971 1 I I -0.70710678118654746 0.70710678118654746 0.25 forward I I I I #
loop $-1 $-1 $350 $88 #
coedge $-1 $220 $220 $351 $352 reversed $139 $-1 #
face $-1 $-1 $353 $71 $-1 $354 forward single #
loop $-1 $355 $356 $141 #
cone-surface $-1 53.947862254856005 14.53339651076644 4.4850342865136597 -0.55919291073839883 0 -0.82903756765294845 0.20725939191323711 0 -0.13979822768459971 1 I I -0.70710678118654746 0.70710678118654746 0.25 forward I I I I #
loop $-1 $-1 $357 $89 #
coedge $-1 $225 $225 $358 $359 reversed $142 $-1 #
face $-1 $360 $361 $54 $-1 $362 reversed single #
loop $-1 $-1 $363 $144 #
plane-surface $-1 0 -28.861670044759645 0 0 1 0 0 0 1 forward_v I I I I #
coedge $-1 $364 $365 $366 $367 forward $145 $-1 #
coedge $-1 $368 $147 $369 $370 forward $91 $-1 #
coedge $-1 $147 $368 $371 $372 forward $91 $-1 #
coedge $-1 $373 $374 $147 $233 reversed $375 $-1 #
edge $-1 $376 -28.861670044759645 $377 28.861670044759645 $232 $378 forward 7 unknown #
face $-1 $379 $380 $55 $-1 $381 forward single #
loop $-1 $-1 $382 $148 #
plane-surface $-1 -56.373653370769375 -23.890426438225816 0 -1 0 0 0 0 1 forward_v I I I I #
coedge $-1 $383 $384 $385 $386 forward $149 $-1 #
coedge $-1 $387 $151 $388 $389 reversed $94 $-1 #
coedge $-1 $151 $387 $390 $391 reversed $94 $-1 #
coedge $-1 $384 $383 $151 $241 reversed $149 $-1 #
edge $-1 $392 -9.0468524133953778 $393 9.0468524133953778 $240 $394 forward 7 unknown #
face $-1 $395 $396 $56 $-1 $397 reversed single #
loop $-1 $-1 $398 $152 #
plane-surface $-1 -56.373653370769375 23.89042643822582 0 -1 0 0 0 0 1 forward_v I I I I #
coedge $-1 $399 $400 $401 $402 reversed $153 $-1 #
coedge $-1 $403 $155 $404 $405 reversed $97 $-1 #
coedge $-1 $155 $403 $406 $407 reversed $97 $-1 #
coedge $-1 $400 $399 $155 $249 reversed $153 $-1 #
edge $-1 $408 -9.0468524133953778 $409 9.0468524133953778 $248 $410 forward 7 unknown #
face $-1 $411 $412 $57 $-1 $413 reversed single #
loop $-1 $-1 $414 $156 #
plane-surface $-1 -151.60541327089175 -1.7763568394002505e-015 78.541604431591765 0 -1 0 0.7660444514056185 0 -0.64278759981090561 forward_v I I I I #
coedge $-1 $415 $416 $417 $418 reversed $157 $-1 #
coedge $-1 $255 $159 $419 $420 reversed $100 $-1 #
coedge $-1 $159 $254 $415 $421 reversed $100 $-1 #
coedge $-1 $417 $422 $159 $257 forward $423 $-1 #
edge $-1 $424 15.929053264676497 $425 22.203279511375207 $256 $426 forward 7 unknown #
loop $-1 $-1 $263 $160 #
plane-surface $-1 -59.873653370769375 -3.3299424168986711 1.5695205473777918 -0.7660444514056185 0 0.64278759981090561 0.64278759981090561 0 0.7660444514056185 forward_v I I I I #
loop $-1 $-1 $427 $102 #
coedge $-1 $261 $261 $262 $428 reversed $161 $-1 #
coedge $-1 $262 $262 $261 $428 forward $163 $-1 #
coedge $-1 $263 $263 $164 $264 forward $258 $-1 #
edge $-1 $429 0 $429 6.2831853071796004 $263 $430 forward 7 unknown #
loop $-1 $-1 $270 $165 #
plane-surface $-1 -59.873653370769375 -3.3299424168986711 1.5695205473777918 -0.7660444514056185 0 0.64278759981090561 0.64278759981090561 0 0.7660444514056185 forward_v I I I I #
loop $-1 $-1 $431 $105 #
coedge $-1 $268 $268 $269 $432 reversed $166 $-1 #
coedge $-1 $269 $269 $268 $432 forward $168 $-1 #
coedge $-1 $270 $270 $169 $271 forward $265 $-1 #
edge $-1 $433 0 $433 6.2831853071796004 $270 $434 forward 7 unknown #
face $-1 $435 $436 $60 $-1 $437 forward single #
loop $-1 $-1 $438 $170 #
plane-surface $-1 -57.873653370769375 18.919182831691991 0 0 1 0 0 0 1 forward_v I I I I #
coedge $-1 $439 $440 $441 $442 reversed $171 $-1 #
coedge $-1 $277 $173 $443 $444 reversed $109 $-1 #
coedge $-1 $173 $276 $439 $445 reversed $109 $-1 #
coedge $-1 $441 $446 $173 $279 forward $436 $-1 #
edge $-1 $447 15.929053264676497 $448 22.203279511375207 $278 $449 forward 7 unknown #
loop $-1 $-1 $285 $174 #
plane-surface $-1 -59.873653370769375 15.589240414793313 1.5695205473777918 -0.7660444514056185 0 0.64278759981090561 0.64278759981090561 0 0.7660444514056185 forward_v I I I I #
loop $-1 $-1 $450 $111 #
coedge $-1 $283 $283 $284 $451 reversed $175 $-1 #
coedge $-1 $284 $284 $283 $451 forward $177 $-1 #
coedge $-1 $285 $285 $178 $286 forward $280 $-1 #
edge $-1 $452 0 $452 6.2831853071796004 $285 $453 forward 7 unknown #
loop $-1 $-1 $292 $179 #
plane-surface $-1 -59.873653370769375 15.589240414793313 1.5695205473777918 -0.7660444514056185 0 0.64278759981090561 0.64278759981090561 0 0.7660444514056185 forward_v I I I I #
loop $-1 $-1 $454 $114 #
coedge $-1 $290 $290 $291 $455 reversed $180 $-1 #
coedge $-1 $291 $291 $290 $455 forward $182 $-1 #
coedge $-1 $292 $292 $183 $293 forward $287 $-1 #
edge $-1 $456 0 $456 6.2831853071796004 $292 $457 forward 7 unknown #
face $-1 $458 $459 $63 $-1 $460 reversed single #
loop $-1 $-1 $461 $184 #
plane-surface $-1 27.560482466657518 -16.515170424572851 168.23267100264607 0 1 0 0.55919291073839883 0 0.82903756765294845 forward_v I I I I #
coedge $-1 $462 $463 $464 $465 reversed $185 $-1 #
coedge $-1 $299 $187 $466 $467 reversed $118 $-1 #
coedge $-1 $187 $298 $462 $468 reversed $118 $-1 #
coedge $-1 $464 $469 $187 $301 forward $470 $-1 #
edge $-1 $471 -46.093412137440616 $472 -35.639812182459856 $300 $473 forward 7 unknown #
loop $-1 $-1 $307 $188 #
plane-surface $-1 -39.401362543227421 -13.047066075411646 68.957655088649275 0.55919291073839883 0 0.82903756765294845 0.82903756765294845 0 -0.55919291073839883 forward_v I I I I #
loop $-1 $-1 $474 $120 #
coedge $-1 $305 $305 $306 $475 reversed $189 $-1 #
coedge $-1 $306 $306 $305 $475 forward $191 $-1 #
coedge $-1 $307 $307 $192 $308 forward $302 $-1 #
edge $-1 $476 0 $476 6.2831853071796004 $307 $477 forward 7 unknown #
loop $-1 $-1 $314 $193 #
plane-surface $-1 -39.401362543227421 -13.047066075411646 68.957655088649275 0.55919291073839883 0 0.82903756765294845 0.82903756765294845 0 -0.55919291073839883 forward_v I I I I #
loop $-1 $-1 $478 $123 #
coedge $-1 $312 $312 $313 $479 reversed $194 $-1 #
coedge $-1 $313 $313 $312 $479 forward $196 $-1 #
coedge $-1 $314 $314 $197 $315 forward $309 $-1 #
edge $-1 $480 0 $480 6.2831853071796004 $314 $481 forward 7 unknown #
face $-1 $482 $483 $66 $-1 $484 reversed single #
loop $-1 $-1 $485 $198 #
plane-surface $-1 27.560482466657518 -3.4681043491612078 168.23267100264607 0 1 0 0.55919291073839883 0 0.82903756765294845 forward_v I I I I #
coedge $-1 $486 $487 $488 $489 reversed $199 $-1 #
coedge $-1 $321 $201 $490 $491 reversed $127 $-1 #
coedge $-1 $201 $320 $486 $492 reversed $127 $-1 #
coedge $-1 $488 $493 $201 $323 forward $494 $-1 #
edge $-1 $495 -46.093412137440616 $496 -35.639812182459856 $322 $497 forward 7 unknown #
loop $-1 $-1 $329 $202 #
plane-surface $-1 -39.401362543227421 -3.5527136788005009e-015 68.957655088649275 0.55919291073839883 0 0.82903756765294845 0.82903756765294845 0 -0.55919291073839883 forward_v I I I I #
loop $-1 $-1 $498 $129 #
coedge $-1 $327 $327 $328 $499 reversed $203 $-1 #
coedge $-1 $328 $328 $327 $499 forward $205 $-1 #
coedge $-1 $329 $329 $206 $330 forward $324 $-1 #
edge $-1 $500 0 $500 6.2831853071796004 $329 $501 forward 7 unknown #
loop $-1 $-1 $336 $207 #
plane-surface $-1 -39.401362543227421 -3.5527136788005009e-015 68.957655088649275 0.55919291073839883 0 0.82903756765294845 0.82903756765294845 0 -0.55919291073839883 forward_v I I I I #
loop $-1 $-1 $502 $132 #
coedge $-1 $334 $334 $335 $503 reversed $208 $-1 #
coedge $-1 $335 $335 $334 $503 forward $210 $-1 #
coedge $-1 $336 $336 $211 $337 forward $331 $-1 #
edge $-1 $504 0 $504 6.2831853071796004 $336 $505 forward 7 unknown #
face $-1 $506 $507 $69 $-1 $508 reversed single #
loop $-1 $-1 $509 $212 #
plane-surface $-1 27.560482466657518 9.5789617262504336 168.23267100264607 0 1 0 0.55919291073839883 0 0.82903756765294845 forward_v I I I I #
coedge $-1 $510 $511 $512 $513 reversed $213 $-1 #
coedge $-1 $343 $215 $514 $515 reversed $136 $-1 #
coedge $-1 $215 $342 $510 $516 reversed $136 $-1 #
coedge $-1 $512 $517 $215 $345 forward $518 $-1 #
edge $-1 $519 -46.093412137440616 $520 -35.639812182459856 $344 $521 forward 7 unknown #
loop $-1 $-1 $351 $216 #
plane-surface $-1 -39.401362543227421 13.047066075411639 68.957655088649275 0.55919291073839883 0 0.82903756765294845 0.82903756765294845 0 -0.55919291073839883 forward_v I I I I #
loop $-1 $-1 $522 $138 #
coedge $-1 $349 $349 $350 $523 reversed $217 $-1 #
coedge $-1 $350 $350 $349 $523 forward $219 $-1 #
coedge $-1 $351 $351 $220 $352 forward $346 $-1 #
edge $-1 $524 0 $524 6.2831853071796004 $351 $525 forward 7 unknown #
loop $-1 $-1 $358 $221 #
plane-surface $-1 -39.401362543227421 13.047066075411639 68.957655088649275 0.55919291073839883 0 0.82903756765294845 0.82903756765294845 0 -0.55919291073839883 forward_v I I I I #
loop $-1 $-1 $526 $141 #
coedge $-1 $356 $356 $357 $527 reversed $222 $-1 #
coedge $-1 $357 $357 $356 $527 forward $224 $-1 #
coedge $-1 $358 $358 $225 $359 forward $353 $-1 #
edge $-1 $528 0 $528 6.2831853071796004 $358 $529 forward 7 unknown #
face $-1 $530 $531 $54 $-1 $532 reversed single #
loop $-1 $-1 $533 $226 #
plane-surface $-1 -59.873653370769375 0 0 1 0 0 0 0 -1 forward_v I I I I #
coedge $-1 $534 $371 $535 $536 forward $227 $-1 #
coedge $-1 $537 $229 $534 $538 forward $145 $-1 #
coedge $-1 $229 $537 $539 $540 forward $145 $-1 #
coedge $-1 $374 $373 $229 $367 reversed $375 $-1 #
edge $-1 $541 -28.861670044759645 $542 28.861670044759645 $366 $543 forward 7 unknown #
coedge $-1 $231 $230 $544 $545 forward $91 $-1 #
coedge $-1 $546 $547 $230 $370 reversed $531 $-1 #
edge $-1 $377 -59.873653370769375 $548 59.873653370769375 $369 $549 forward 7 unknown #
coedge $-1 $363 $550 $231 $372 reversed $227 $-1 #
edge $-1 $551 -59.873653370769375 $376 59.873653370769375 $371 $552 forward 7 unknown #
coedge $-1 $366 $232 $550 $553 forward $375 $-1 #
coedge $-1 $232 $366 $546 $554 reversed $375 $-1 #
loop $-1 $-1 $373 $530 #
vertex $-1 $233 $555 #
vertex $-1 $233 $556 #
straight-curve $-1 59.873653370769375 0 9.0468524133953778 0 1 0 I I #
face $-1 $557 $558 $55 $-1 $559 reversed single #
loop $-1 $-1 $560 $234 #
plane-surface $-1 0 0 9.0468524133953778 0 0 1 1 0 0 forward_v I I I I #
coedge $-1 $561 $562 $563 $564 reversed $235 $-1 #
coedge $-1 $240 $237 $565 $566 reversed $149 $-1 #
coedge $-1 $237 $240 $567 $568 reversed $149 $-1 #
coedge $-1 $562 $561 $237 $386 reversed $235 $-1 #
edge $-1 $569 -9.0468524133953778 $570 9.0468524133953778 $385 $571 forward 7 unknown #
coedge $-1 $239 $238 $572 $573 reversed $94 $-1 #
coedge $-1 $565 $574 $238 $389 forward $558 $-1 #
edge $-1 $575 -16.916456825646737 $393 -6.9739696125790793 $388 $576 forward 7 unknown #
coedge $-1 $577 $567 $239 $391 forward $380 $-1 #
edge $-1 $392 6.9739696125790793 $578 16.916456825646737 $390 $579 forward 7 unknown #
vertex $-1 $391 $580 #
vertex $-1 $389 $581 #
straight-curve $-1 -59.373653370769375 -18.919182831691987 0 0 0 -1 I I #
face $-1 $582 $583 $56 $-1 $584 forward single #
loop $-1 $-1 $585 $242 #
plane-surface $-1 0 0 -9.0468524133953778 0 0 1 1 0 0 forward_v I I I I #
coedge $-1 $586 $587 $403 $588 forward $243 $-1 #
coedge $-1 $248 $245 $589 $590 reversed $153 $-1 #
coedge $-1 $245 $248 $591 $592 reversed $153 $-1 #
coedge $-1 $593 $594 $245 $402 forward $595 $-1 #
edge $-1 $596 -9.0468524133953778 $597 9.0468524133953778 $401 $598 forward 7 unknown #
coedge $-1 $247 $246 $398 $588 reversed $97 $-1 #
coedge $-1 $589 $585 $246 $405 forward $396 $-1 #
edge $-1 $599 27.436826685384688 $409 30.436826685384688 $404 $600 forward 7 unknown #
coedge $-1 $601 $591 $247 $407 forward $583 $-1 #
edge $-1 $408 -30.436826685384688 $602 -27.436826685384688 $406 $603 forward 7 unknown #
vertex $-1 $407 $604 #
vertex $-1 $405 $605 #
straight-curve $-1 -59.373653370769375 18.919182831691991 0 0 0 -1 I I #
face $-1 $-1 $423 $57 $-1 $606 forward single #
loop $-1 $-1 $607 $250 #
plane-surface $-1 -59.873653370769375 0 0 1 0 0 0 0 -1 forward_v I I I I #
coedge $-1 $608 $609 $610 $611 reversed $251 $-1 #
coedge $-1 $612 $253 $255 $421 forward $157 $-1 #
coedge $-1 $253 $612 $608 $613 forward $157 $-1 #
coedge $-1 $610 $256 $253 $418 forward $423 $-1 #
edge $-1 $425 -4.9949136253480049 $614 1.6649712084493338 $417 $615 forward 7 unknown #
coedge $-1 $616 $617 $254 $420 forward $412 $-1 #
edge $-1 $618 -37.70128166841809 $424 -30.223949802400504 $419 $619 forward 7 unknown #
edge $-1 $425 -9.7609634170672468 $618 0 $255 $620 forward 7 unknown #
coedge $-1 $256 $610 $616 $621 forward $423 $-1 #
loop $-1 $-1 $610 $411 #
vertex $-1 $420 $622 #
vertex $-1 $257 $623 #
straight-curve $-1 -75.802706635445873 -6.6598848337973404 9.0468524133953778 1 0 0 I I #
coedge $-1 $427 $427 $-1 $624 reversed $260 $-1 #
edge $-1 $625 0 $625 6.2831853071796004 $261 $626 forward 7 unknown #
vertex $-1 $264 $627 #
ellipse-curve $-1 -56.736540247420024 -4.7570605955695306 5.3081864803865839 -0.7660444514056185 0 0.64278759981090561 0.3213937999054528 0 0.38302222570280925 1 I I #
coedge $-1 $431 $431 $-1 $628 reversed $267 $-1 #
edge $-1 $629 0 $629 6.2831853071796004 $268 $630 forward 7 unknown #
vertex $-1 $271 $631 #
ellipse-curve $-1 -56.736540247420024 -1.9028242382278115 5.3081864803865839 -0.7660444514056185 0 0.64278759981090561 0.3213937999054528 0 0.38302222570280925 1 I I #
face $-1 $-1 $632 $60 $-1 $633 reversed single #
loop $-1 $-1 $634 $272 #
plane-surface $-1 0 0 9.0468524133953778 0 0 1 1 0 0 forward_v I I I I #
coedge $-1 $635 $636 $440 $637 forward $273 $-1 #
coedge $-1 $638 $275 $277 $445 forward $171 $-1 #
coedge $-1 $275 $638 $438 $637 reversed $171 $-1 #
coedge $-1 $634 $278 $275 $442 forward $436 $-1 #
edge $-1 $448 4.4646777904979871 $639 11.124562624295327 $441 $640 forward 7 unknown #
coedge $-1 $641 $642 $276 $444 forward $632 $-1 #
edge $-1 $643 -37.70128166841809 $447 -30.223949802400504 $443 $644 forward 7 unknown #
edge $-1 $448 -9.7609634170672468 $643 0 $277 $645 forward 7 unknown #
coedge $-1 $278 $634 $641 $646 forward $436 $-1 #
vertex $-1 $444 $647 #
vertex $-1 $279 $648 #
straight-curve $-1 -75.802706635445873 12.259297997894643 9.0468524133953778 1 0 0 I I #
coedge $-1 $450 $450 $-1 $649 reversed $282 $-1 #
edge $-1 $650 0 $650 6.2831853071796004 $283 $651 forward 7 unknown #
vertex $-1 $286 $652 #
ellipse-curve $-1 -56.736540247420024 14.16212223612246 5.3081864803865839 -0.7660444514056185 0 0.64278759981090561 0.3213937999054528 0 0.38302222570280925 1 I I #
coedge $-1 $454 $454 $-1 $653 reversed $289 $-1 #
edge $-1 $654 0 $654 6.2831853071796004 $290 $655 forward 7 unknown #
vertex $-1 $293 $656 #
ellipse-curve $-1 -56.736540247420024 17.016358593464179 5.3081864803865839 -0.7660444514056185 0 0.64278759981090561 0.3213937999054528 0 0.38302222570280925 1 I I #
face $-1 $-1 $470 $63 $-1 $657 forward single #
loop $-1 $-1 $658 $294 #
plane-surface $-1 59.873653370769375 0 0 -1 0 0 0 0 1 forward_v I I I I #
coedge $-1 $659 $660 $661 $662 reversed $295 $-1 #
coedge $-1 $663 $297 $299 $468 forward $185 $-1 #
coedge $-1 $297 $663 $659 $664 forward $185 $-1 #
coedge $-1 $661 $300 $297 $465 forward $470 $-1 #
edge $-1 $472 3.0554286885446178 $665 9.9916373868670281 $464 $666 forward 7 unknown #
coedge $-1 $667 $668 $298 $467 forward $459 $-1 #
edge $-1 $669 -82.1205254225587 $471 -75.069483087927665 $466 $670 forward 7 unknown #
edge $-1 $472 107.1379867748025 $669 119.74730674153872 $299 $671 forward 7 unknown #
coedge $-1 $300 $661 $667 $672 forward $470 $-1 #
loop $-1 $-1 $661 $458 #
vertex $-1 $467 $673 #
vertex $-1 $301 $674 #
straight-curve $-1 13.780241233328759 -9.5789617262504407 9.0468524133953849 -1 0 0 I I #
coedge $-1 $474 $474 $-1 $675 reversed $304 $-1 #
edge $-1 $676 0 $676 6.2831853071796004 $305 $677 forward 7 unknown #
vertex $-1 $308 $678 #
ellipse-curve $-1 54.646853393279009 -14.533396510766446 5.5213312460798516 0.55919291073839883 0 0.82903756765294845 0.41451878382647422 0 -0.27959645536919941 1 I I #
coedge $-1 $478 $478 $-1 $679 reversed $311 $-1 #
edge $-1 $680 0 $680 6.2831853071796004 $312 $681 forward 7 unknown #
vertex $-1 $315 $682 #
ellipse-curve $-1 54.646853393279009 -11.560735640056841 5.5213312460798516 0.55919291073839883 0 0.82903756765294845 0.41451878382647422 0 -0.27959645536919941 1 I I #
face $-1 $-1 $494 $66 $-1 $683 forward single #
loop $-1 $-1 $684 $316 #
plane-surface $-1 59.873653370769375 0 0 -1 0 0 0 0 1 forward_v I I I I #
coedge $-1 $685 $686 $687 $688 reversed $317 $-1 #
coedge $-1 $689 $319 $321 $492 forward $199 $-1 #
coedge $-1 $319 $689 $685 $690 forward $199 $-1 #
coedge $-1 $687 $322 $319 $489 forward $494 $-1 #
edge $-1 $496 -3.4681043491612025 $691 3.468104349161206 $488 $692 forward 7 unknown #
coedge $-1 $693 $694 $320 $491 forward $483 $-1 #
edge $-1 $695 -82.1205254225587 $495 -75.069483087927665 $490 $696 forward 7 unknown #
edge $-1 $496 107.1379867748025 $695 119.74730674153872 $321 $697 forward 7 unknown #
coedge $-1 $322 $687 $693 $698 forward $494 $-1 #
loop $-1 $-1 $687 $482 #
vertex $-1 $491 $699 #
vertex $-1 $323 $700 #
straight-curve $-1 13.780241233328759 3.4681043491612007 9.0468524133953849 -1 0 0 I I #
coedge $-1 $498 $498 $-1 $701 reversed $326 $-1 #
edge $-1 $702 0 $702 6.2831853071796004 $327 $703 forward 7 unknown #
vertex $-1 $330 $704 #
ellipse-curve $-1 54.646853393279009 -1.4863304353548052 5.5213312460798516 0.55919291073839883 0 0.82903756765294845 0.41451878382647422 0 -0.27959645536919941 1 I I #
coedge $-1 $502 $502 $-1 $705 reversed $333 $-1 #
edge $-1 $706 0 $706 6.2831853071796004 $334 $707 forward 7 unknown #
vertex $-1 $337 $708 #
ellipse-curve $-1 54.646853393279009 1.4863304353548017 5.5213312460798516 0.55919291073839883 0 0.82903756765294845 0.41451878382647422 0 -0.27959645536919941 1 I I #
face $-1 $-1 $518 $69 $-1 $709 forward single #
loop $-1 $-1 $710 $338 #
plane-surface $-1 59.873653370769375 0 0 -1 0 0 0 0 1 forward_v I I I I #
coedge $-1 $711 $712 $713 $714 reversed $339 $-1 #
coedge $-1 $715 $341 $343 $516 forward $213 $-1 #
coedge $-1 $341 $715 $711 $716 forward $213 $-1 #
coedge $-1 $713 $344 $341 $513 forward $518 $-1 #
edge $-1 $520 -9.9916373868670245 $717 -3.0554286885446142 $512 $718 forward 7 unknown #
coedge $-1 $719 $720 $342 $515 forward $507 $-1 #
edge $-1 $721 -82.1205254225587 $519 -75.069483087927665 $514 $722 forward 7 unknown #
edge $-1 $520 107.1379867748025 $721 119.74730674153872 $343 $723 forward 7 unknown #
coedge $-1 $344 $713 $719 $724 forward $518 $-1 #
loop $-1 $-1 $713 $506 #
vertex $-1 $515 $725 #
vertex $-1 $345 $726 #
straight-curve $-1 13.780241233328759 16.515170424572844 9.0468524133953849 -1 0 0 I I #
coedge $-1 $522 $522 $-1 $727 reversed $348 $-1 #
edge $-1 $728 0 $728 6.2831853071796004 $349 $729 forward 7 unknown #
vertex $-1 $352 $730 #
ellipse-curve $-1 54.646853393279009 11.560735640056837 5.5213312460798516 0.55919291073839883 0 0.82903756765294845 0.41451878382647422 0 -0.27959645536919941 1 I I #
coedge $-1 $526 $526 $-1 $731 reversed $355 $-1 #
edge $-1 $732 0 $732 6.2831853071796004 $356 $733 forward 7 unknown #
vertex $-1 $359 $734 #
ellipse-curve $-1 54.646853393279009 14.53339651076644 5.5213312460798516 0.55919291073839883 0 0.82903756765294845 0.41451878382647422 0 -0.27959645536919941 1 I I #
face $-1 $-1 $375 $54 $-1 $735 reversed single #
loop $-1 $-1 $546 $360 #
plane-surface $-1 0 28.861670044759645 0 0 -1 0 0 0 -1 forward_v I I I I #
coedge $-1 $736 $544 $547 $737 forward $361 $-1 #
coedge $-1 $550 $363 $364 $538 reversed $227 $-1 #
coedge $-1 $544 $736 $363 $536 reversed $361 $-1 #
edge $-1 $551 -9.0468524133953778 $738 9.0468524133953778 $535 $739 forward 7 unknown #
coedge $-1 $365 $364 $736 $740 forward $145 $-1 #
edge $-1 $542 -59.873653370769375 $738 59.873653370769375 $534 $741 forward 7 unknown #
coedge $-1 $547 $546 $365 $540 reversed $531 $-1 #
edge $-1 $742 -59.873653370769375 $541 59.873653370769375 $539 $743 forward 7 unknown #
vertex $-1 $367 $744 #
vertex $-1 $553 $745 #
straight-curve $-1 59.873653370769375 0 -9.0468524133953778 0 -1 0 I I #
coedge $-1 $533 $535 $368 $545 reversed $361 $-1 #
edge $-1 $548 -28.861670044759645 $551 28.861670044759645 $544 $746 forward 7 unknown #
coedge $-1 $539 $369 $374 $554 forward $531 $-1 #
coedge $-1 $369 $539 $533 $737 reversed $531 $-1 #
vertex $-1 $370 $747 #
straight-curve $-1 0 28.861670044759645 9.0468524133953778 -1 0 0 I I #
coedge $-1 $371 $534 $373 $553 reversed $227 $-1 #
vertex $-1 $545 $748 #
straight-curve $-1 0 -28.861670044759645 9.0468524133953778 1 0 0 I I #
edge $-1 $376 -9.0468524133953778 $542 9.0468524133953778 $373 $749 forward 7 unknown #
edge $-1 $377 -9.0468524133953778 $541 9.0468524133953778 $374 $750 forward 7 unknown #
point $-1 59.873653370769375 -28.861670044759645 9.0468524133953778 #
point $-1 59.873653370769375 28.861670044759645 9.0468524133953778 #
face $-1 $-1 $751 $55 $-1 $752 reversed single #
loop $-1 $-1 $753 $379 #
plane-surface $-1 0 0 -9.0468524133953778 0 0 1 1 0 0 forward_v I I I I #
coedge $-1 $567 $577 $562 $754 forward $380 $-1 #
coedge $-1 $385 $382 $753 $755 reversed $235 $-1 #
coedge $-1 $382 $385 $560 $754 reversed $235 $-1 #
coedge $-1 $756 $757 $382 $564 forward $751 $-1 #
edge $-1 $758 -9.0468524133953778 $759 9.0468524133953778 $563 $760 forward 7 unknown #
coedge $-1 $753 $388 $383 $566 forward $558 $-1 #
edge $-1 $393 -30.436826685384688 $570 -27.436826685384688 $565 $761 forward 7 unknown #
coedge $-1 $390 $560 $384 $568 forward $380 $-1 #
edge $-1 $569 27.436826685384688 $392 30.436826685384688 $567 $762 forward 7 unknown #
vertex $-1 $568 $763 #
vertex $-1 $566 $764 #
straight-curve $-1 -56.373653370769375 -18.919182831691987 0 0 0 -1 I I #
coedge $-1 $757 $756 $387 $573 forward $751 $-1 #
edge $-1 $578 -9.0468524133953778 $575 9.0468524133953778 $572 $765 forward 7 unknown #
coedge $-1 $388 $753 $757 $766 forward $558 $-1 #
vertex $-1 $389 $767 #
straight-curve $-1 -59.373653370769375 -11.945213219112908 -9.0468524133953778 0 1 0 I I #
coedge $-1 $560 $390 $756 $768 forward $380 $-1 #
vertex $-1 $768 $769 #
straight-curve $-1 -59.373653370769375 -11.945213219112908 9.0468524133953778 0 -1 0 I I #
point $-1 -59.373653370769375 -18.919182831691987 9.0468524133953778 #
point $-1 -59.373653370769375 -18.919182831691987 -9.0468524133953778 #
face $-1 $-1 $595 $56 $-1 $770 reversed single #
loop $-1 $-1 $601 $395 #
plane-surface $-1 0 0 9.0468524133953778 0 0 1 1 0 0 forward_v I I I I #
coedge $-1 $404 $771 $586 $772 forward $396 $-1 #
coedge $-1 $773 $398 $585 $772 reversed $243 $-1 #
coedge $-1 $398 $773 $601 $774 reversed $243 $-1 #
edge $-1 $602 -9.0468524133953778 $599 9.0468524133953778 $398 $775 forward 7 unknown #
coedge $-1 $771 $404 $399 $590 forward $396 $-1 #
edge $-1 $409 6.9739696125790811 $596 16.91645682564674 $589 $776 forward 7 unknown #
coedge $-1 $406 $777 $400 $592 forward $583 $-1 #
edge $-1 $597 -16.91645682564674 $408 -6.9739696125790811 $591 $778 forward 7 unknown #
coedge $-1 $779 $401 $777 $780 reversed $595 $-1 #
coedge $-1 $401 $779 $771 $781 reversed $595 $-1 #
loop $-1 $-1 $779 $582 #
vertex $-1 $781 $782 #
vertex $-1 $402 $783 #
straight-curve $-1 -59.373653370769375 28.861670044759645 0 0 0 1 I I #
vertex $-1 $405 $784 #
straight-curve $-1 -28.936826685384688 18.919182831691991 -9.0468524133953778 -1 0 0 I I #
coedge $-1 $777 $406 $587 $774 forward $583 $-1 #
vertex $-1 $407 $785 #
straight-curve $-1 -28.936826685384688 18.919182831691991 9.0468524133953778 1 0 0 I I #
point $-1 -59.373653370769375 18.919182831691991 9.0468524133953778 #
point $-1 -59.373653370769375 18.919182831691991 -9.0468524133953778 #
plane-surface $-1 0 0 9.0468524133953778 0 0 1 1 0 0 forward_v I I I I #
coedge $-1 $617 $616 $609 $786 forward $412 $-1 #
coedge $-1 $609 $414 $416 $613 reversed $251 $-1 #
coedge $-1 $414 $608 $607 $786 reversed $251 $-1 #
coedge $-1 $422 $417 $414 $611 forward $423 $-1 #
edge $-1 $614 -22.203279511375207 $787 -15.929053264676497 $610 $788 forward 7 unknown #
coedge $-1 $416 $415 $617 $789 reversed $157 $-1 #
edge $-1 $790 0 $614 9.7609634170672468 $608 $791 forward 7 unknown #
vertex $-1 $418 $792 #
straight-curve $-1 -53.599427124070665 -1.6649712084493355 9.046852413395376 0 1 0 I I #
coedge $-1 $607 $419 $422 $621 reversed $412 $-1 #
coedge $-1 $419 $607 $612 $789 forward $412 $-1 #
vertex $-1 $420 $793 #
straight-curve $-1 -59.873653370769375 -6.6598848337973404 39.270802215795882 0 0 1 I I #
straight-curve $-1 -59.873653370769375 -6.6598848337973404 1.5695205473777918 -0.64278759981090561 0 -0.7660444514056185 I I #
edge $-1 $787 1.7763568394002505e-015 $424 6.6598848337973404 $616 $794 forward 7 unknown #
point $-1 -59.873653370769375 -6.6598848337973404 9.0468524133953778 #
point $-1 -53.599427124070665 -6.6598848337973404 9.0468524133953778 #
edge $-1 $795 1 $795 0 $427 $-1 forward 7 unknown #
vertex $-1 $428 $796 #
ellipse-curve $-1 -55.869161536710287 -4.7570605955695306 4.5803693431941488 -0.7660444514056185 0 0.64278759981090561 0.3213937999054528 0 0.38302222570280925 1 I I #
point $-1 -56.415146447514559 -4.7570605955695306 5.6912087060893866 #
edge $-1 $797 1 $797 0 $431 $-1 forward 7 unknown #
vertex $-1 $432 $798 #
ellipse-curve $-1 -55.869161536710287 -1.9028242382278115 4.5803693431941488 -0.7660444514056185 0 0.64278759981090561 0.3213937999054528 0 0.38302222570280925 1 I I #
point $-1 -56.415146447514559 -1.9028242382278115 5.6912087060893866 #
loop $-1 $-1 $443 $435 #
plane-surface $-1 -59.873653370769375 0 0 1 0 0 0 0 -1 forward_v I I I I #
coedge $-1 $446 $441 $636 $799 forward $436 $-1 #
coedge $-1 $636 $438 $800 $801 reversed $273 $-1 #
coedge $-1 $438 $635 $634 $799 reversed $273 $-1 #
edge $-1 $639 -9.7193370705992699 $802 0.041626346467974258 $438 $803 forward 7 unknown #
coedge $-1 $440 $439 $642 $804 reversed $171 $-1 #
vertex $-1 $442 $805 #
straight-curve $-1 -53.599427124070665 7.7946202073966564 9.046852413395376 0 1 0 I I #
coedge $-1 $800 $443 $446 $646 reversed $632 $-1 #
coedge $-1 $443 $800 $638 $804 forward $632 $-1 #
vertex $-1 $444 $806 #
straight-curve $-1 -59.873653370769375 12.259297997894643 39.270802215795882 0 0 1 I I #
straight-curve $-1 -59.873653370769375 12.259297997894643 1.5695205473777918 -0.64278759981090561 0 -0.7660444514056185 I I #
edge $-1 $807 -18.919182831691984 $447 -12.259297997894643 $641 $808 forward 7 unknown #
point $-1 -59.873653370769375 12.259297997894643 9.0468524133953778 #
point $-1 -53.599427124070665 12.259297997894643 9.0468524133953778 #
edge $-1 $809 1 $809 0 $450 $-1 forward 7 unknown #
vertex $-1 $451 $810 #
ellipse-curve $-1 -55.869161536710287 14.16212223612246 4.5803693431941488 -0.7660444514056185 0 0.64278759981090561 0.3213937999054528 0 0.38302222570280925 1 I I #
point $-1 -56.415146447514559 14.16212223612246 5.6912087060893866 #
edge $-1 $811 1 $811 0 $454 $-1 forward 7 unknown #
vertex $-1 $455 $812 #
ellipse-curve $-1 -55.869161536710287 17.016358593464179 4.5803693431941488 -0.7660444514056185 0 0.64278759981090561 0.3213937999054528 0 0.38302222570280925 1 I I #
point $-1 -56.415146447514559 17.016358593464179 5.6912087060893866 #
plane-surface $-1 0 0 9.0468524133953778 0 0 1 1 0 0 forward_v I I I I #
coedge $-1 $668 $667 $660 $813 forward $459 $-1 #
coedge $-1 $660 $461 $463 $664 reversed $295 $-1 #
coedge $-1 $461 $659 $658 $813 reversed $295 $-1 #
coedge $-1 $469 $464 $461 $662 forward $470 $-1 #
edge $-1 $665 35.639812182459856 $814 46.093412137440616 $661 $815 forward 7 unknown #
coedge $-1 $463 $462 $668 $816 reversed $185 $-1 #
edge $-1 $817 -119.74730674153872 $665 -107.1379867748025 $659 $818 forward 7 unknown #
vertex $-1 $465 $819 #
straight-curve $-1 49.420053415788615 -6.5235330377058229 9.0468524133953707 0 -1 0 I I #
coedge $-1 $658 $466 $469 $672 reversed $459 $-1 #
coedge $-1 $466 $658 $663 $816 forward $459 $-1 #
vertex $-1 $467 $820 #
straight-curve $-1 59.873653370769375 -9.5789617262504407 84.116335501323036 0 0 1 I I #
straight-curve $-1 -39.401362543227421 -9.5789617262504407 68.957655088649275 0.82903756765294845 0 -0.55919291073839883 I I #
edge $-1 $814 -16.515170424572851 $471 -9.5789617262504407 $667 $821 forward 7 unknown #
point $-1 59.873653370769375 -9.5789617262504407 9.0468524133953778 #
point $-1 49.420053415788615 -9.5789617262504407 9.0468524133953778 #
edge $-1 $822 1 $822 0 $474 $-1 forward 7 unknown #
vertex $-1 $475 $823 #
ellipse-curve $-1 54.087660482540606 -14.533396510766446 4.6922936784268972 0.55919291073839883 0 0.82903756765294845 0.41451878382647422 0 -0.27959645536919941 1 I I #
point $-1 55.061372177105476 -14.533396510766446 5.2417347907106455 #
edge $-1 $824 1 $824 0 $478 $-1 forward 7 unknown #
vertex $-1 $479 $825 #
ellipse-curve $-1 54.087660482540606 -11.560735640056841 4.6922936784268972 0.55919291073839883 0 0.82903756765294845 0.41451878382647422 0 -0.27959645536919941 1 I I #
point $-1 55.061372177105476 -11.560735640056841 5.2417347907106455 #
plane-surface $-1 0 0 9.0468524133953778 0 0 1 1 0 0 forward_v I I I I #
coedge $-1 $694 $693 $686 $826 forward $483 $-1 #
coedge $-1 $686 $485 $487 $690 reversed $317 $-1 #
coedge $-1 $485 $685 $684 $826 reversed $317 $-1 #
coedge $-1 $493 $488 $485 $688 forward $494 $-1 #
edge $-1 $691 35.639812182459856 $827 46.093412137440616 $687 $828 forward 7 unknown #
coedge $-1 $487 $486 $694 $829 reversed $199 $-1 #
edge $-1 $830 -119.74730674153872 $691 -107.1379867748025 $685 $831 forward 7 unknown #
vertex $-1 $489 $832 #
straight-curve $-1 49.420053415788615 -1.7763568394002505e-015 9.0468524133953707 0 -1 0 I I #
coedge $-1 $684 $490 $493 $698 reversed $483 $-1 #
coedge $-1 $490 $684 $689 $829 forward $483 $-1 #
vertex $-1 $491 $833 #
straight-curve $-1 59.873653370769375 3.4681043491612007 84.116335501323036 0 0 1 I I #
straight-curve $-1 -39.401362543227421 3.4681043491612007 68.957655088649275 0.82903756765294845 0 -0.55919291073839883 I I #
edge $-1 $827 -3.4681043491612078 $495 3.4681043491612007 $693 $834 forward 7 unknown #
point $-1 59.873653370769375 3.4681043491612007 9.0468524133953778 #
point $-1 49.420053415788615 3.4681043491612007 9.0468524133953778 #
edge $-1 $835 1 $835 0 $498 $-1 forward 7 unknown #
vertex $-1 $499 $836 #
ellipse-curve $-1 54.087660482540606 -1.4863304353548052 4.6922936784268972 0.55919291073839883 0 0.82903756765294845 0.41451878382647422 0 -0.27959645536919941 1 I I #
point $-1 55.061372177105476 -1.4863304353548052 5.2417347907106455 #
edge $-1 $837 1 $837 0 $502 $-1 forward 7 unknown #
vertex $-1 $503 $838 #
ellipse-curve $-1 54.087660482540606 1.4863304353548017 4.6922936784268972 0.55919291073839883 0 0.82903756765294845 0.41451878382647422 0 -0.27959645536919941 1 I I #
point $-1 55.061372177105476 1.4863304353548017 5.2417347907106455 #
plane-surface $-1 0 0 9.0468524133953778 0 0 1 1 0 0 forward_v I I I I #
coedge $-1 $720 $719 $712 $839 forward $507 $-1 #
coedge $-1 $712 $509 $511 $716 reversed $339 $-1 #
coedge $-1 $509 $711 $710 $839 reversed $339 $-1 #
coedge $-1 $517 $512 $509 $714 forward $518 $-1 #
edge $-1 $717 35.639812182459856 $840 46.093412137440616 $713 $841 forward 7 unknown #
coedge $-1 $511 $510 $720 $842 reversed $213 $-1 #
edge $-1 $843 -119.74730674153872 $717 -107.1379867748025 $711 $844 forward 7 unknown #
vertex $-1 $513 $845 #
straight-curve $-1 49.420053415788615 6.5235330377058194 9.0468524133953707 0 -1 0 I I #
coedge $-1 $710 $514 $517 $724 reversed $507 $-1 #
coedge $-1 $514 $710 $715 $842 forward $507 $-1 #
vertex $-1 $515 $846 #
straight-curve $-1 59.873653370769375 16.515170424572844 84.116335501323036 0 0 1 I I #
straight-curve $-1 -39.401362543227421 16.515170424572844 68.957655088649275 0.82903756765294845 0 -0.55919291073839883 I I #
edge $-1 $840 9.5789617262504336 $519 16.515170424572844 $719 $847 forward 7 unknown #
point $-1 59.873653370769375 16.515170424572844 9.0468524133953778 #
point $-1 49.420053415788615 16.515170424572844 9.0468524133953778 #
edge $-1 $848 1 $848 0 $522 $-1 forward 7 unknown #
vertex $-1 $523 $849 #
ellipse-curve $-1 54.087660482540606 11.560735640056837 4.6922936784268972 0.55919291073839883 0 0.82903756765294845 0.41451878382647422 0 -0.27959645536919941 1 I I #
point $-1 55.061372177105476 11.560735640056837 5.2417347907106455 #
edge $-1 $850 1 $850 0 $526 $-1 forward 7 unknown #
vertex $-1 $527 $851 #
ellipse-curve $-1 54.087660482540606 14.53339651076644 4.6922936784268972 0.55919291073839883 0 0.82903756765294845 0.41451878382647422 0 -0.27959645536919941 1 I I #
point $-1 55.061372177105476 14.53339651076644 5.2417347907106455 #
plane-surface $-1 59.873653370769375 0 0 -1 0 0 0 0 1 forward_v I I I I #
coedge $-1 $535 $533 $537 $740 reversed $361 $-1 #
edge $-1 $548 -9.0468524133953778 $742 9.0468524133953778 $547 $852 forward 7 unknown #
vertex $-1 $740 $853 #
straight-curve $-1 -59.873653370769375 -28.861670044759645 0 0 0 -1 I I #
edge $-1 $738 -28.861670044759645 $742 28.861670044759645 $736 $854 forward 7 unknown #
straight-curve $-1 0 -28.861670044759645 -9.0468524133953778 -1 0 0 I I #
vertex $-1 $540 $855 #
straight-curve $-1 0 28.861670044759645 -9.0468524133953778 1 0 0 I I #
point $-1 59.873653370769375 28.861670044759645 -9.0468524133953778 #
point $-1 59.873653370769375 -28.861670044759645 -9.0468524133953778 #
straight-curve $-1 -59.873653370769375 0 9.0468524133953778 0 -1 0 I I #
point $-1 -59.873653370769375 28.861670044759645 9.0468524133953778 #
point $-1 -59.873653370769375 -28.861670044759645 9.0468524133953778 #
straight-curve $-1 59.873653370769375 -28.861670044759645 0 0 0 -1 I I #
straight-curve $-1 59.873653370769375 28.861670044759645 0 0 0 -1 I I #
loop $-1 $-1 $563 $557 #
plane-surface $-1 0 -28.861670044759645 0 0 1 0 0 0 1 forward_v I I I I #
coedge $-1 $574 $565 $561 $755 forward $558 $-1 #
edge $-1 $759 -16.916456825646737 $569 -6.9739696125790793 $560 $856 forward 7 unknown #
edge $-1 $570 6.9739696125790793 $758 16.916456825646737 $753 $857 forward 7 unknown #
coedge $-1 $572 $563 $577 $768 reversed $751 $-1 #
coedge $-1 $563 $572 $574 $766 reversed $751 $-1 #
vertex $-1 $766 $858 #
vertex $-1 $564 $859 #
straight-curve $-1 -56.373653370769375 -28.861670044759645 0 0 0 1 I I #
straight-curve $-1 -28.936826685384688 -18.919182831691987 -9.0468524133953778 1 0 0 I I #
straight-curve $-1 -28.936826685384688 -18.919182831691987 9.0468524133953778 -1 0 0 I I #
point $-1 -56.373653370769375 -18.919182831691987 9.0468524133953778 #
point $-1 -56.373653370769375 -18.919182831691987 -9.0468524133953778 #
straight-curve $-1 -59.373653370769375 -28.861670044759645 0 0 0 -1 I I #
edge $-1 $758 56.373653370769375 $575 59.373653370769375 $757 $860 forward 7 unknown #
point $-1 -59.373653370769375 -28.861670044759645 -9.0468524133953778 #
edge $-1 $578 -59.373653370769375 $759 -56.373653370769375 $756 $861 forward 7 unknown #
point $-1 -59.373653370769375 -28.861670044759645 9.0468524133953778 #
plane-surface $-1 0 28.861670044759645 0 0 -1 0 0 0 -1 forward_v I I I I #
coedge $-1 $585 $589 $594 $781 forward $396 $-1 #
edge $-1 $862 -16.91645682564674 $599 -6.9739696125790811 $585 $863 forward 7 unknown #
coedge $-1 $587 $586 $779 $864 reversed $243 $-1 #
edge $-1 $602 6.9739696125790811 $865 16.91645682564674 $601 $866 forward 7 unknown #
straight-curve $-1 -56.373653370769375 18.919182831691991 0 0 0 -1 I I #
straight-curve $-1 -59.373653370769375 11.94521321911291 -9.0468524133953778 0 1 0 I I #
coedge $-1 $591 $601 $593 $780 forward $583 $-1 #
straight-curve $-1 -59.373653370769375 11.94521321911291 9.0468524133953778 0 -1 0 I I #
coedge $-1 $594 $593 $773 $864 forward $595 $-1 #
edge $-1 $865 56.373653370769375 $597 59.373653370769375 $593 $867 forward 7 unknown #
edge $-1 $596 -59.373653370769375 $862 -56.373653370769375 $594 $868 forward 7 unknown #
point $-1 -59.373653370769375 28.861670044759649 -9.0468524133953778 #
point $-1 -59.373653370769375 28.861670044759649 9.0468524133953778 #
point $-1 -56.373653370769375 18.919182831691991 -9.0468524133953778 #
point $-1 -56.373653370769375 18.919182831691991 9.0468524133953778 #
edge $-1 $787 30.223949802400504 $790 37.70128166841809 $607 $869 forward 7 unknown #
vertex $-1 $621 $870 #
straight-curve $-1 -75.802706635445873 -1.7763568394002505e-015 9.0468524133953778 -1 0 0 I I #
edge $-1 $790 -1.6649712084493338 $618 4.9949136253480049 $617 $871 forward 7 unknown #
vertex $-1 $789 $872 #
straight-curve $-1 -59.873653370769375 -1.7763568394002505e-015 1.5695205473777918 0.64278759981090561 0 0.7660444514056185 I I #
point $-1 -53.599427124070665 -1.7763568394002505e-015 9.0468524133953778 #
point $-1 -59.873653370769375 -6.6598848337973404 1.5695205473777918 #
straight-curve $-1 -59.873653370769375 0 9.0468524133953778 0 -1 0 I I #
vertex $-1 $624 $873 #
point $-1 -55.547767736804836 -4.7570605955695306 4.9633915688969577 #
vertex $-1 $628 $874 #
point $-1 -55.547767736804836 -1.9028242382278115 4.9633915688969577 #
edge $-1 $639 24.662600438685978 $807 30.936826685384688 $634 $875 forward 7 unknown #
coedge $-1 $642 $641 $635 $801 forward $632 $-1 #
edge $-1 $807 30.223949802400504 $802 37.70128166841809 $800 $876 forward 7 unknown #
vertex $-1 $801 $877 #
straight-curve $-1 -59.846896471434327 18.919182831691991 1.6014081791218699 -0.64278759981090572 0 -0.76604445140561861 I I #
edge $-1 $802 -11.124562624295327 $643 -4.4646777904979871 $642 $878 forward 7 unknown #
point $-1 -53.599427124070665 18.919182831691984 9.0468524133953778 #
point $-1 -59.873653370769375 12.259297997894643 1.5695205473777918 #
vertex $-1 $646 $879 #
straight-curve $-1 -59.873653370769375 0 9.0468524133953778 0 -1 0 I I #
vertex $-1 $649 $880 #
point $-1 -55.547767736804836 14.16212223612246 4.9633915688969577 #
vertex $-1 $653 $881 #
point $-1 -55.547767736804836 17.016358593464179 4.9633915688969577 #
edge $-1 $814 75.069483087927665 $817 82.1205254225587 $658 $882 forward 7 unknown #
vertex $-1 $672 $883 #
straight-curve $-1 13.780241233328759 -16.515170424572851 9.0468524133953849 1 0 0 I I #
edge $-1 $817 -9.9916373868670281 $669 -3.0554286885446178 $668 $884 forward 7 unknown #
vertex $-1 $816 $885 #
straight-curve $-1 -39.401362543227421 -16.515170424572851 68.957655088649275 -0.82903756765294845 0 0.55919291073839883 I I #
point $-1 49.420053415788615 -16.515170424572851 9.0468524133953778 #
point $-1 59.873653370769375 -9.5789617262504407 1.995810078764336 #
straight-curve $-1 59.873653370769375 0 9.0468524133953778 0 1 0 I I #
vertex $-1 $675 $886 #
point $-1 54.502179266367079 -14.533396510766446 4.4126972230576973 #
vertex $-1 $679 $887 #
point $-1 54.502179266367079 -11.560735640056841 4.4126972230576973 #
edge $-1 $827 75.069483087927665 $830 82.1205254225587 $684 $888 forward 7 unknown #
vertex $-1 $698 $889 #
straight-curve $-1 13.780241233328759 -3.4681043491612078 9.0468524133953849 1 0 0 I I #
edge $-1 $830 -3.468104349161206 $695 3.4681043491612025 $694 $890 forward 7 unknown #
vertex $-1 $829 $891 #
straight-curve $-1 -39.401362543227421 -3.4681043491612078 68.957655088649275 -0.82903756765294845 0 0.55919291073839883 I I #
point $-1 49.420053415788615 -3.4681043491612078 9.0468524133953778 #
point $-1 59.873653370769375 3.4681043491612007 1.995810078764336 #
straight-curve $-1 59.873653370769375 0 9.0468524133953778 0 1 0 I I #
vertex $-1 $701 $892 #
point $-1 54.502179266367079 -1.4863304353548052 4.4126972230576973 #
vertex $-1 $705 $893 #
point $-1 54.502179266367079 1.4863304353548017 4.4126972230576973 #
edge $-1 $840 75.069483087927665 $843 82.1205254225587 $710 $894 forward 7 unknown #
vertex $-1 $724 $895 #
straight-curve $-1 13.780241233328759 9.5789617262504336 9.0468524133953849 1 0 0 I I #
edge $-1 $843 3.0554286885446142 $721 9.9916373868670245 $720 $896 forward 7 unknown #
vertex $-1 $842 $897 #
straight-curve $-1 -39.401362543227421 9.5789617262504336 68.957655088649275 -0.82903756765294845 0 0.55919291073839883 I I #
point $-1 49.420053415788615 9.5789617262504336 9.0468524133953778 #
point $-1 59.873653370769375 16.515170424572844 1.995810078764336 #
straight-curve $-1 59.873653370769375 0 9.0468524133953778 0 1 0 I I #
vertex $-1 $727 $898 #
point $-1 54.502179266367079 11.560735640056837 4.4126972230576973 #
vertex $-1 $731 $899 #
point $-1 54.502179266367079 14.53339651076644 4.4126972230576973 #
straight-curve $-1 -59.873653370769375 28.861670044759645 0 0 0 -1 I I #
point $-1 -59.873653370769375 -28.861670044759645 -9.0468524133953778 #
straight-curve $-1 -59.873653370769375 0 -9.0468524133953778 0 1 0 I I #
point $-1 -59.873653370769375 28.861670044759645 -9.0468524133953778 #
straight-curve $-1 -56.373653370769375 -11.945213219112908 9.0468524133953778 0 1 0 I I #
straight-curve $-1 -56.373653370769375 -11.945213219112908 -9.0468524133953778 0 -1 0 I I #
point $-1 -56.373653370769375 -28.861670044759645 -9.0468524133953778 #
point $-1 -56.373653370769375 -28.861670044759645 9.0468524133953778 #
straight-curve $-1 0 -28.861670044759645 -9.0468524133953778 -1 0 0 I I #
straight-curve $-1 0 -28.861670044759645 9.0468524133953778 1 0 0 I I #
vertex $-1 $864 $900 #
straight-curve $-1 -56.373653370769375 11.94521321911291 -9.0468524133953778 0 -1 0 I I #
edge $-1 $865 -9.0468524133953778 $862 9.0468524133953778 $779 $901 forward 7 unknown #
vertex $-1 $780 $902 #
straight-curve $-1 -56.373653370769375 11.94521321911291 9.0468524133953778 0 1 0 I I #
straight-curve $-1 0 28.861670044759645 9.0468524133953778 -1 0 0 I I #
straight-curve $-1 0 28.861670044759645 -9.0468524133953778 1 0 0 I I #
straight-curve $-1 -59.873653370769375 -1.7763568394002505e-015 39.270802215795882 0 0 -1 I I #
point $-1 -59.873653370769375 -1.7763568394002505e-015 9.0468524133953778 #
straight-curve $-1 -59.873653370769375 -1.6649712084493355 1.5695205473777933 0 -1 0 I I #
point $-1 -59.873653370769375 -1.7763568394002505e-015 1.5695205473777918 #
point $-1 -55.486139311007484 -4.7570605955695306 4.2589755432886962 #
point $-1 -55.486139311007484 -1.9028242382278115 4.2589755432886962 #
straight-curve $-1 -28.936826685384688 18.919182831691991 9.0468524133953778 -1 0 0 I I #
straight-curve $-1 -59.873653370769375 18.919182831691984 39.270802215795882 0 0 -1 I I #
point $-1 -59.873653370769375 18.919182831691984 1.5695205473777918 #
straight-curve $-1 -59.873653370769375 7.7946202073966564 1.5695205473777933 0 -1 0 I I #
point $-1 -59.873653370769375 18.919182831691984 9.0468524133953778 #
point $-1 -55.486139311007484 14.16212223612246 4.2589755432886962 #
point $-1 -55.486139311007484 17.016358593464179 4.2589755432886962 #
straight-curve $-1 59.873653370769375 -16.515170424572851 84.116335501323036 0 0 -1 I I #
point $-1 59.873653370769375 -16.515170424572851 9.0468524133953778 #
straight-curve $-1 59.873653370769375 -6.5235330377058229 1.9958100787643289 0 1 0 I I #
point $-1 59.873653370769375 -16.515170424572851 1.995810078764336 #
point $-1 53.808064027171405 -14.533396510766446 4.2777748946004222 #
point $-1 53.808064027171405 -11.560735640056841 4.2777748946004222 #
straight-curve $-1 59.873653370769375 -3.4681043491612078 84.116335501323036 0 0 -1 I I #
point $-1 59.873653370769375 -3.4681043491612078 9.0468524133953778 #
straight-curve $-1 59.873653370769375 -1.7763568394002505e-015 1.9958100787643289 0 1 0 I I #
point $-1 59.873653370769375 -3.4681043491612078 1.995810078764336 #
point $-1 53.808064027171405 -1.4863304353548052 4.2777748946004222 #
point $-1 53.808064027171405 1.4863304353548017 4.2777748946004222 #
straight-curve $-1 59.873653370769375 9.5789617262504336 84.116335501323036 0 0 -1 I I #
point $-1 59.873653370769375 9.5789617262504336 9.0468524133953778 #
straight-curve $-1 59.873653370769375 6.5235330377058194 1.9958100787643289 0 1 0 I I #
point $-1 59.873653370769375 9.5789617262504336 1.995810078764336 #
point $-1 53.808064027171405 11.560735640056837 4.2777748946004222 #
point $-1 53.808064027171405 14.53339651076644 4.2777748946004222 #
point $-1 -56.373653370769375 28.861670044759649 -9.0468524133953778 #
straight-curve $-1 -56.373653370769375 28.861670044759645 0 0 0 -1 I I #
point $-1 -56.373653370769375 28.861670044759649 9.0468524133953778 #
End-of-ACIS-data 