500 0 4 0           
7 Unknown 11 ACIS 5.0 NT 24 Thu Mar 25 15:12:57 1999 
-1 9.9999999999999995e-007 1e-010 
body $-1 $4 $-1 $5 #
body $-1 $6 $-1 $7 #
body $-1 $8 $-1 $9 #
body $-1 $10 $-1 $11 #
lump $-1 $-1 $12 $0 #
transform $-1 1 0 0 0 1 0 0 0 1 48.984649189733574 20.989085759721011 7.4125736051535842 1 rotate no_reflect no_shear #
lump $-1 $-1 $13 $1 #
transform $-1 1 0 0 0 1 0 0 0 1 48.984649189733574 20.989085759721011 7.4125736051535842 1 rotate no_reflect no_shear #
lump $-1 $-1 $14 $2 #
transform $-1 1 0 0 0 1 0 0 0 1 48.984649189733574 20.989085759721011 7.4125736051535842 1 rotate no_reflect no_shear #
lump $-1 $-1 $15 $3 #
transform $-1 1 0 0 0 1 0 0 0 1 48.984649189733574 20.989085759721011 7.4125736051535842 1 rotate no_reflect no_shear #
shell $-1 $-1 $-1 $16 $-1 $4 #
shell $-1 $-1 $-1 $17 $-1 $6 #
shell $-1 $-1 $-1 $18 $-1 $8 #
shell $-1 $-1 $-1 $19 $-1 $10 #
face $-1 $20 $21 $12 $-1 $22 forward single #
face $-1 $23 $24 $13 $-1 $25 reversed single #
face $-1 $26 $27 $14 $-1 $28 reversed single #
face $-1 $29 $30 $15 $-1 $31 forward single #
face $-1 $32 $33 $12 $-1 $34 reversed single #
loop $-1 $-1 $35 $16 #
plane-surface $-1 0 0 7.4125736051535842 0 0 1 1 0 0 forward_v I I I I #
face $-1 $36 $37 $13 $-1 $38 reversed single #
loop $-1 $-1 $39 $17 #
plane-surface $-1 -46.314765367691422 -10.934849591655627 0 0 1 0 0 0 1 forward_v I I I I #
face $-1 $40 $41 $14 $-1 $42 reversed single #
loop $-1 $-1 $43 $18 #
plane-surface $-1 36.890681877633654 -20.989085759721014 2.1143778244732943 0 -0.62932039886446345 0.77714595512881146 1 0 0 forward_v I I I I #
face $-1 $44 $45 $15 $-1 $46 forward single #
loop $-1 $47 $48 $19 #
cone-surface $-1 36.890681877633654 -16.358519377056346 3.0849998322344425 0 0.62932039886446345 -0.77714595512881146 1.5 0 0 1 I I 0 1 1.5 forward I I I I #
face $-1 $49 $50 $12 $-1 $51 reversed single #
loop $-1 $-1 $52 $20 #
plane-surface $-1 0 0 -7.4125736051535842 0 0 1 1 0 0 forward_v I I I I #
coedge $-1 $53 $54 $55 $56 forward $21 $-1 #
face $-1 $57 $58 $13 $-1 $59 reversed single #
loop $-1 $-1 $60 $23 #
plane-surface $-1 -46.314765367691422 -6.6639385494138423 0 0 -1 0 0 0 -1 forward_v I I I I #
coedge $-1 $61 $62 $63 $64 reversed $24 $-1 #
face $-1 $65 $66 $14 $-1 $67 reversed single #
loop $-1 $-1 $68 $26 #
plane-surface $-1 24.796714565533733 -82.643163692358911 78.250821786883805 1 0 0 0 0.62932039886446345 -0.77714595512881146 forward_v I I I I #
coedge $-1 $69 $70 $71 $72 reversed $27 $-1 #
face $-1 $-1 $73 $15 $-1 $74 forward single #
loop $-1 $75 $76 $29 #
cone-surface $-1 36.890681877633654 -14.527326080146894 0.82366448330883735 0 0.62932039886446345 -0.77714595512881146 0.75 0 0 1 I I -0.70710678118654757 0.70710678118654757 0.75 forward I I I I #
loop $-1 $-1 $77 $19 #
coedge $-1 $48 $48 $78 $79 reversed $30 $-1 #
face $-1 $80 $81 $12 $-1 $82 reversed single #
loop $-1 $-1 $83 $32 #
plane-surface $-1 0 -20.989085759721011 0 0 1 0 0 0 1 forward_v I I I I #
coedge $-1 $84 $85 $86 $87 forward $33 $-1 #
coedge $-1 $88 $35 $89 $90 forward $21 $-1 #
coedge $-1 $35 $88 $91 $92 forward $21 $-1 #
coedge $-1 $93 $94 $35 $56 reversed $95 $-1 #
edge $-1 $96 -20.989085759721011 $97 20.989085759721011 $55 $98 forward 7 unknown #
face $-1 $99 $100 $13 $-1 $101 reversed single #
loop $-1 $-1 $102 $36 #
plane-surface $-1 -43.64488154564927 -8.7993940705347349 0 -1 0 0 0 0 1 forward_v I I I I #
coedge $-1 $103 $104 $105 $106 forward $37 $-1 #
coedge $-1 $107 $39 $108 $109 reversed $24 $-1 #
coedge $-1 $39 $107 $110 $111 reversed $24 $-1 #
coedge $-1 $112 $113 $39 $64 forward $114 $-1 #
edge $-1 $115 -7.4125736051535842 $116 7.4125736051535842 $63 $117 forward 7 unknown #
face $-1 $118 $119 $14 $-1 $120 forward single #
loop $-1 $-1 $121 $40 #
plane-surface $-1 0 -20.989085759721011 0 0 1 0 0 0 1 forward_v I I I I #
coedge $-1 $122 $123 $124 $125 reversed $41 $-1 #
coedge $-1 $126 $43 $127 $128 reversed $27 $-1 #
coedge $-1 $43 $126 $122 $129 forward $27 $-1 #
coedge $-1 $124 $130 $43 $72 forward $119 $-1 #
edge $-1 $131 -30.539308250916747 $132 -6.3513736267169065 $71 $133 forward 7 unknown #
loop $-1 $-1 $78 $44 #
plane-surface $-1 36.890681877633654 -20.989085759721014 2.1143778244732943 0 -0.62932039886446345 0.77714595512881146 1 0 0 forward_v I I I I #
loop $-1 $-1 $134 $29 #
coedge $-1 $76 $76 $77 $135 reversed $45 $-1 #
coedge $-1 $77 $77 $76 $135 forward $47 $-1 #
coedge $-1 $78 $78 $48 $79 forward $73 $-1 #
edge $-1 $136 1.4680188452414111e-015 $136 6.2831853071796022 $78 $137 forward 7 unknown #
face $-1 $138 $139 $12 $-1 $140 reversed single #
loop $-1 $-1 $141 $49 #
plane-surface $-1 -48.984649189733574 0 0 1 0 0 0 0 -1 forward_v I I I I #
coedge $-1 $142 $91 $143 $144 forward $50 $-1 #
coedge $-1 $145 $52 $142 $146 forward $33 $-1 #
coedge $-1 $52 $145 $147 $148 forward $33 $-1 #
coedge $-1 $94 $93 $52 $87 reversed $95 $-1 #
edge $-1 $149 -20.989085759721011 $150 20.989085759721011 $86 $151 forward 7 unknown #
coedge $-1 $54 $53 $152 $153 forward $21 $-1 #
coedge $-1 $154 $155 $53 $90 reversed $139 $-1 #
edge $-1 $97 -48.984649189733574 $156 48.984649189733574 $89 $157 forward 7 unknown #
coedge $-1 $83 $158 $54 $92 reversed $50 $-1 #
edge $-1 $159 -48.984649189733574 $96 48.984649189733574 $91 $160 forward 7 unknown #
coedge $-1 $86 $55 $158 $161 forward $95 $-1 #
coedge $-1 $55 $86 $154 $162 reversed $95 $-1 #
loop $-1 $-1 $93 $138 #
vertex $-1 $56 $163 #
vertex $-1 $56 $164 #
straight-curve $-1 48.984649189733574 0 7.4125736051535842 0 1 0 I I #
face $-1 $165 $166 $13 $-1 $167 forward single #
loop $-1 $-1 $168 $57 #
plane-surface $-1 0 0 -7.4125736051535842 0 0 1 1 0 0 forward_v I I I I #
coedge $-1 $169 $170 $107 $171 forward $58 $-1 #
coedge $-1 $172 $60 $168 $173 reversed $37 $-1 #
coedge $-1 $60 $172 $174 $175 reversed $37 $-1 #
coedge $-1 $170 $169 $60 $106 reversed $58 $-1 #
edge $-1 $176 -7.4125736051535842 $177 7.4125736051535842 $105 $178 forward 7 unknown #
coedge $-1 $62 $61 $102 $171 reversed $24 $-1 #
coedge $-1 $179 $180 $61 $109 forward $100 $-1 #
edge $-1 $181 20.487498861803559 $115 25.827266505887863 $108 $182 forward 7 unknown #
coedge $-1 $183 $184 $62 $111 forward $166 $-1 #
edge $-1 $116 -25.827266505887863 $185 -20.487498861803559 $110 $186 forward 7 unknown #
coedge $-1 $187 $63 $184 $188 reversed $114 $-1 #
coedge $-1 $63 $187 $179 $189 reversed $114 $-1 #
loop $-1 $-1 $187 $165 #
vertex $-1 $189 $190 #
vertex $-1 $64 $191 #
straight-curve $-1 -48.984649189733574 -10.934849591655627 0 0 0 1 I I #
face $-1 $-1 $192 $14 $-1 $193 reversed single #
loop $-1 $-1 $124 $65 #
plane-surface $-1 0 0 7.4125736051535842 0 0 1 1 0 0 forward_v I I I I #
coedge $-1 $194 $195 $123 $196 forward $66 $-1 #
coedge $-1 $123 $68 $70 $129 reversed $41 $-1 #
coedge $-1 $68 $122 $121 $196 reversed $41 $-1 #
coedge $-1 $197 $71 $68 $125 forward $119 $-1 #
edge $-1 $132 -26.875222856265566 $198 -20.332496086458445 $124 $199 forward 7 unknown #
coedge $-1 $70 $69 $194 $200 reversed $27 $-1 #
coedge $-1 $201 $202 $69 $128 forward $192 $-1 #
edge $-1 $203 -7.4904810020856036 $131 0.92843532454273126 $127 $204 forward 7 unknown #
edge $-1 $205 4.4378234572560832e-015 $132 8.418916326628338 $122 $206 forward 7 unknown #
coedge $-1 $71 $197 $201 $207 forward $119 $-1 #
vertex $-1 $128 $208 #
vertex $-1 $72 $209 #
straight-curve $-1 18.445340938816827 -14.446358989913888 7.4125736051535842 -1 0 0 I I #
coedge $-1 $134 $134 $-1 $210 reversed $75 $-1 #
edge $-1 $211 0 $211 6.2831853071796004 $76 $212 forward 7 unknown #
vertex $-1 $79 $213 #
ellipse-curve $-1 36.890681877633654 -17.717722374817452 4.7634757148134401 0 -0.62932039886446345 0.77714595512881146 1.5 0 0 1 I I #
face $-1 $-1 $95 $12 $-1 $214 reversed single #
loop $-1 $-1 $154 $80 #
plane-surface $-1 0 20.989085759721011 0 0 -1 0 0 0 -1 forward_v I I I I #
coedge $-1 $215 $152 $155 $216 forward $81 $-1 #
coedge $-1 $158 $83 $84 $146 reversed $50 $-1 #
coedge $-1 $152 $215 $83 $144 reversed $81 $-1 #
edge $-1 $159 -7.4125736051535842 $217 7.4125736051535842 $143 $218 forward 7 unknown #
coedge $-1 $85 $84 $215 $219 forward $33 $-1 #
edge $-1 $150 -48.984649189733574 $217 48.984649189733574 $142 $220 forward 7 unknown #
coedge $-1 $155 $154 $85 $148 reversed $139 $-1 #
edge $-1 $221 -48.984649189733574 $149 48.984649189733574 $147 $222 forward 7 unknown #
vertex $-1 $87 $223 #
vertex $-1 $161 $224 #
straight-curve $-1 48.984649189733574 0 -7.4125736051535842 0 -1 0 I I #
coedge $-1 $141 $143 $88 $153 reversed $81 $-1 #
edge $-1 $156 -20.989085759721011 $159 20.989085759721011 $152 $225 forward 7 unknown #
coedge $-1 $147 $89 $94 $162 forward $139 $-1 #
coedge $-1 $89 $147 $141 $216 reversed $139 $-1 #
vertex $-1 $90 $226 #
straight-curve $-1 0 20.989085759721011 7.4125736051535842 -1 0 0 I I #
coedge $-1 $91 $142 $93 $161 reversed $50 $-1 #
vertex $-1 $153 $227 #
straight-curve $-1 0 -20.989085759721011 7.4125736051535842 1 0 0 I I #
edge $-1 $96 -7.4125736051535842 $150 7.4125736051535842 $93 $228 forward 7 unknown #
edge $-1 $97 -7.4125736051535842 $149 7.4125736051535842 $94 $229 forward 7 unknown #
point $-1 48.984649189733574 -20.989085759721011 7.4125736051535842 #
point $-1 48.984649189733574 20.989085759721011 7.4125736051535842 #
face $-1 $-1 $114 $13 $-1 $230 reversed single #
loop $-1 $-1 $174 $99 #
plane-surface $-1 0 0 7.4125736051535842 0 0 1 1 0 0 forward_v I I I I #
coedge $-1 $180 $179 $103 $173 forward $100 $-1 #
coedge $-1 $105 $102 $180 $231 reversed $58 $-1 #
coedge $-1 $102 $105 $183 $232 reversed $58 $-1 #
edge $-1 $185 -7.4125736051535842 $181 7.4125736051535842 $102 $233 forward 7 unknown #
coedge $-1 $104 $103 $187 $234 reversed $37 $-1 #
edge $-1 $235 -25.827266505887863 $177 -20.487498861803559 $168 $236 forward 7 unknown #
coedge $-1 $184 $183 $104 $175 forward $166 $-1 #
edge $-1 $176 20.487498861803559 $237 25.827266505887863 $174 $238 forward 7 unknown #
vertex $-1 $175 $239 #
vertex $-1 $173 $240 #
straight-curve $-1 -43.64488154564927 -6.6639385494138423 0 0 0 -1 I I #
coedge $-1 $168 $108 $113 $189 forward $100 $-1 #
coedge $-1 $108 $168 $169 $231 forward $100 $-1 #
vertex $-1 $109 $241 #
straight-curve $-1 -23.157382683845711 -10.934849591655627 -7.4125736051535842 -1 0 0 I I #
coedge $-1 $174 $110 $170 $232 forward $166 $-1 #
coedge $-1 $110 $174 $112 $188 forward $166 $-1 #
vertex $-1 $111 $242 #
straight-curve $-1 -23.157382683845711 -10.934849591655627 7.4125736051535842 1 0 0 I I #
coedge $-1 $113 $112 $172 $234 forward $114 $-1 #
edge $-1 $237 6.6639385494138423 $116 10.934849591655627 $112 $243 forward 7 unknown #
edge $-1 $115 -10.934849591655627 $235 -6.6639385494138423 $113 $244 forward 7 unknown #
point $-1 -48.984649189733574 -10.934849591655627 -7.4125736051535842 #
point $-1 -48.984649189733574 -10.934849591655627 7.4125736051535842 #
loop $-1 $-1 $127 $118 #
plane-surface $-1 48.984649189733574 0 0 -1 0 0 0 0 1 forward_v I I I I #
coedge $-1 $245 $121 $126 $200 forward $66 $-1 #
coedge $-1 $121 $245 $197 $246 reversed $66 $-1 #
edge $-1 $198 31.71283728828832 $205 37.011033068968608 $121 $247 forward 7 unknown #
coedge $-1 $130 $124 $195 $246 forward $119 $-1 #
vertex $-1 $246 $248 #
straight-curve $-1 24.796714565533733 -41.321581846179456 7.4125736051535824 0 -1 0 I I #
edge $-1 $205 6.3513736267169065 $203 30.539308250916747 $194 $249 forward 7 unknown #
coedge $-1 $202 $127 $130 $207 reversed $192 $-1 #
coedge $-1 $127 $201 $245 $250 forward $192 $-1 #
vertex $-1 $200 $251 #
straight-curve $-1 48.984649189733574 -15.167888746980978 6.8282903163924944 0 0.77714595512881146 0.62932039886446345 I I #
vertex $-1 $200 $252 #
straight-curve $-1 24.796714565533733 -20.989085759721014 2.1143778244732943 0 0.77714595512881146 0.62932039886446345 I I #
edge $-1 $253 -20.989085759721011 $131 -14.44635898991389 $201 $254 forward 7 unknown #
point $-1 48.984649189733574 -14.44635898991389 7.4125736051535842 #
point $-1 24.796714565533733 -14.44635898991389 7.4125736051535842 #
edge $-1 $255 1 $255 0 $134 $-1 forward 7 unknown #
vertex $-1 $135 $256 #
ellipse-curve $-1 36.890681877633654 -14.999316379295241 1.4065239496554458 0 -0.62932039886446345 0.77714595512881146 1.5 0 0 1 I I #
point $-1 38.390681877633654 -17.717722374817448 4.7634757148134392 #
plane-surface $-1 48.984649189733574 0 0 -1 0 0 0 0 1 forward_v I I I I #
coedge $-1 $143 $141 $145 $219 reversed $81 $-1 #
edge $-1 $156 -7.4125736051535842 $221 7.4125736051535842 $155 $257 forward 7 unknown #
vertex $-1 $219 $258 #
straight-curve $-1 -48.984649189733574 -20.989085759721011 0 0 0 -1 I I #
edge $-1 $217 -20.989085759721011 $221 20.989085759721011 $215 $259 forward 7 unknown #
straight-curve $-1 0 -20.989085759721011 -7.4125736051535842 -1 0 0 I I #
vertex $-1 $148 $260 #
straight-curve $-1 0 20.989085759721011 -7.4125736051535842 1 0 0 I I #
point $-1 48.984649189733574 20.989085759721011 -7.4125736051535842 #
point $-1 48.984649189733574 -20.989085759721011 -7.4125736051535842 #
straight-curve $-1 -48.984649189733574 0 7.4125736051535842 0 -1 0 I I #
point $-1 -48.984649189733574 20.989085759721011 7.4125736051535842 #
point $-1 -48.984649189733574 -20.989085759721011 7.4125736051535842 #
straight-curve $-1 48.984649189733574 -20.989085759721011 0 0 0 -1 I I #
straight-curve $-1 48.984649189733574 20.989085759721011 0 0 0 -1 I I #
plane-surface $-1 -48.984649189733574 0 0 1 0 0 0 0 -1 forward_v I I I I #
edge $-1 $177 2.2642415141464749 $181 6.53515255638826 $180 $261 forward 7 unknown #
edge $-1 $185 -6.53515255638826 $176 -2.2642415141464749 $183 $262 forward 7 unknown #
straight-curve $-1 -43.64488154564927 -10.934849591655627 0 0 0 -1 I I #
edge $-1 $237 -7.4125736051535842 $235 7.4125736051535842 $187 $263 forward 7 unknown #
vertex $-1 $234 $264 #
straight-curve $-1 -23.157382683845711 -6.6639385494138423 -7.4125736051535842 1 0 0 I I #
vertex $-1 $188 $265 #
straight-curve $-1 -23.157382683845711 -6.6639385494138423 7.4125736051535842 -1 0 0 I I #
point $-1 -43.64488154564927 -6.6639385494138423 7.4125736051535842 #
point $-1 -43.64488154564927 -6.6639385494138423 -7.4125736051535842 #
point $-1 -43.64488154564927 -10.934849591655627 -7.4125736051535842 #
point $-1 -43.64488154564927 -10.934849591655627 7.4125736051535842 #
straight-curve $-1 -48.984649189733574 0 7.4125736051535842 0 -1 0 I I #
straight-curve $-1 -48.984649189733574 0 -7.4125736051535842 0 1 0 I I #
coedge $-1 $195 $194 $202 $250 reversed $66 $-1 #
edge $-1 $198 24.796714565533733 $253 48.984649189733574 $195 $266 forward 7 unknown #
straight-curve $-1 24.796714565533733 -20.989085759721011 39.125410893441902 0 0 -1 I I #
point $-1 24.796714565533733 -20.989085759721011 7.4125736051535842 #
straight-curve $-1 18.445340938816827 -20.989085759721011 2.1143778244732978 1 0 0 I I #
edge $-1 $253 -7.4125736051535842 $203 -2.1143778244732969 $202 $267 forward 7 unknown #
point $-1 48.984649189733574 -20.989085759721011 2.1143778244732969 #
point $-1 24.796714565533733 -20.989085759721011 2.1143778244732969 #
vertex $-1 $207 $268 #
straight-curve $-1 48.984649189733574 0 7.4125736051535842 0 1 0 I I #
vertex $-1 $210 $269 #
point $-1 38.390681877633654 -14.999316379295241 1.4065239496554458 #
straight-curve $-1 -48.984649189733574 20.989085759721011 0 0 0 -1 I I #
point $-1 -48.984649189733574 -20.989085759721011 -7.4125736051535842 #
straight-curve $-1 -48.984649189733574 0 -7.4125736051535842 0 1 0 I I #
point $-1 -48.984649189733574 20.989085759721011 -7.4125736051535842 #
straight-curve $-1 -43.64488154564927 -4.3996970352673674 -7.4125736051535842 0 -1 0 I I #
straight-curve $-1 -43.64488154564927 -4.3996970352673674 7.4125736051535842 0 1 0 I I #
straight-curve $-1 -48.984649189733574 -6.6639385494138423 0 0 0 -1 I I #
point $-1 -48.984649189733574 -6.6639385494138423 -7.4125736051535842 #
point $-1 -48.984649189733574 -6.6639385494138423 7.4125736051535842 #
straight-curve $-1 0 -20.989085759721011 7.4125736051535842 1 0 0 I I #
straight-curve $-1 48.984649189733574 -20.989085759721011 0 0 0 -1 I I #
point $-1 48.984649189733574 -20.989085759721011 7.4125736051535842 #
point $-1 36.890681877633654 -14.055335780998547 0.24080501696222878 #
End-of-ACIS-data 