500 0 15 0           
7 Unknown 11 ACIS 5.0 NT 24 Fri Mar 26 02:33:46 1999 
-1 9.9999999999999995e-007 1e-010 
body $-1 $15 $-1 $16 #
body $-1 $17 $-1 $18 #
body $-1 $19 $-1 $20 #
body $-1 $21 $-1 $22 #
body $-1 $23 $-1 $24 #
body $-1 $25 $-1 $26 #
body $-1 $27 $-1 $28 #
body $-1 $29 $-1 $30 #
body $-1 $31 $-1 $32 #
body $-1 $33 $-1 $34 #
body $-1 $35 $-1 $36 #
body $-1 $37 $-1 $38 #
body $-1 $39 $-1 $40 #
body $-1 $41 $-1 $42 #
body $-1 $43 $-1 $44 #
lump $-1 $-1 $45 $0 #
transform $-1 1 0 0 0 1 0 0 0 1 58.248847926267281 25.053564203279151 5.5114477018493337 1 rotate no_reflect no_shear #
lump $-1 $-1 $46 $1 #
transform $-1 1 0 0 0 1 0 0 0 1 58.248847926267281 25.053564203279151 5.5114477018493337 1 rotate no_reflect no_shear #
lump $-1 $-1 $47 $2 #
transform $-1 1 0 0 0 1 0 0 0 1 58.248847926267281 25.053564203279151 5.5114477018493337 1 rotate no_reflect no_shear #
lump $-1 $-1 $48 $3 #
transform $-1 1 0 0 0 1 0 0 0 1 58.248847926267281 25.053564203279151 5.5114477018493337 1 rotate no_reflect no_shear #
lump $-1 $-1 $49 $4 #
transform $-1 1 0 0 0 1 0 0 0 1 58.248847926267281 25.053564203279151 5.5114477018493337 1 rotate no_reflect no_shear #
lump $-1 $-1 $50 $5 #
transform $-1 1 0 0 0 1 0 0 0 1 58.248847926267281 25.053564203279151 5.5114477018493337 1 rotate no_reflect no_shear #
lump $-1 $-1 $51 $6 #
transform $-1 1 0 0 0 1 0 0 0 1 58.248847926267281 25.053564203279151 5.5114477018493337 1 rotate no_reflect no_shear #
lump $-1 $-1 $52 $7 #
transform $-1 1 0 0 0 1 0 0 0 1 58.248847926267281 25.053564203279151 5.5114477018493337 1 rotate no_reflect no_shear #
lump $-1 $-1 $53 $8 #
transform $-1 1 0 0 0 1 0 0 0 1 58.248847926267281 25.053564203279151 5.5114477018493337 1 rotate no_reflect no_shear #
lump $-1 $-1 $54 $9 #
transform $-1 1 0 0 0 1 0 0 0 1 58.248847926267281 25.053564203279151 5.5114477018493337 1 rotate no_reflect no_shear #
lump $-1 $-1 $55 $10 #
transform $-1 1 0 0 0 1 0 0 0 1 58.248847926267281 25.053564203279151 5.5114477018493337 1 rotate no_reflect no_shear #
lump $-1 $-1 $56 $11 #
transform $-1 1 0 0 0 1 0 0 0 1 58.248847926267281 25.053564203279151 5.5114477018493337 1 rotate no_reflect no_shear #
lump $-1 $-1 $57 $12 #
transform $-1 1 0 0 0 1 0 0 0 1 58.248847926267281 25.053564203279151 5.5114477018493337 1 rotate no_reflect no_shear #
lump $-1 $-1 $58 $13 #
transform $-1 1 0 0 0 1 0 0 0 1 58.248847926267281 25.053564203279151 5.5114477018493337 1 rotate no_reflect no_shear #
lump $-1 $-1 $59 $14 #
transform $-1 1 0 0 0 1 0 0 0 1 58.248847926267281 25.053564203279151 5.5114477018493337 1 rotate no_reflect no_shear #
shell $-1 $-1 $-1 $60 $-1 $15 #
shell $-1 $-1 $-1 $61 $-1 $17 #
shell $-1 $-1 $-1 $62 $-1 $19 #
shell $-1 $-1 $-1 $63 $-1 $21 #
shell $-1 $-1 $-1 $64 $-1 $23 #
shell $-1 $-1 $-1 $65 $-1 $25 #
shell $-1 $-1 $-1 $66 $-1 $27 #
shell $-1 $-1 $-1 $67 $-1 $29 #
shell $-1 $-1 $-1 $68 $-1 $31 #
shell $-1 $-1 $-1 $69 $-1 $33 #
shell $-1 $-1 $-1 $70 $-1 $35 #
shell $-1 $-1 $-1 $71 $-1 $37 #
shell $-1 $-1 $-1 $72 $-1 $39 #
shell $-1 $-1 $-1 $73 $-1 $41 #
shell $-1 $-1 $-1 $74 $-1 $43 #
face $-1 $75 $76 $45 $-1 $77 forward single #
face $-1 $78 $79 $46 $-1 $80 forward single #
face $-1 $81 $82 $47 $-1 $83 forward single #
face $-1 $84 $85 $48 $-1 $86 reversed single #
face $-1 $87 $88 $49 $-1 $89 forward single #
face $-1 $90 $91 $50 $-1 $92 forward single #
face $-1 $93 $94 $51 $-1 $95 reversed single #
face $-1 $96 $97 $52 $-1 $98 forward single #
face $-1 $99 $100 $53 $-1 $101 forward single #
face $-1 $102 $103 $54 $-1 $104 reversed single #
face $-1 $105 $106 $55 $-1 $107 forward single #
face $-1 $108 $109 $56 $-1 $110 forward single #
face $-1 $111 $112 $57 $-1 $113 reversed single #
face $-1 $114 $115 $58 $-1 $116 forward single #
face $-1 $117 $118 $59 $-1 $119 forward single #
face $-1 $120 $121 $45 $-1 $122 reversed single #
loop $-1 $-1 $123 $60 #
plane-surface $-1 0 0 5.5114477018493337 0 0 1 1 0 0 forward_v I I I I #
face $-1 $124 $125 $46 $-1 $126 forward single #
loop $-1 $-1 $127 $61 #
plane-surface $-1 0 -25.053564203279151 0 0 1 0 0 0 1 forward_v I I I I #
face $-1 $128 $129 $47 $-1 $130 reversed single #
loop $-1 $-1 $131 $62 #
plane-surface $-1 0 25.053564203279151 0 0 -1 0 0 0 -1 forward_v I I I I #
face $-1 $132 $133 $48 $-1 $134 reversed single #
loop $-1 $-1 $135 $63 #
plane-surface $-1 18.391582715411126 -12.80394868366114 160.9429940441872 0 -1 0 -0.51503808176128008 0 -0.85716729658548041 forward_v I I I I #
face $-1 $136 $137 $49 $-1 $138 forward single #
loop $-1 $139 $140 $64 #
cone-surface $-1 54.307264519073584 -17.315325696769257 2.8692548177990203 -0.51503808176128008 0 -0.85716729658548041 0.4285836482927402 0 -0.25751904088064004 1 I I 0 1 0.5 forward I I I I #
face $-1 $141 $142 $50 $-1 $143 forward single #
loop $-1 $144 $145 $65 #
cone-surface $-1 54.307264519073584 -14.608499488904386 2.8692548177990203 -0.51503808176128008 0 -0.85716729658548041 0.4285836482927402 0 -0.25751904088064004 1 I I 0 1 0.5 forward I I I I #
face $-1 $146 $147 $51 $-1 $148 reversed single #
loop $-1 $-1 $149 $66 #
plane-surface $-1 18.391582715411126 -2.0983866046044959 160.9429940441872 0 -1 0 -0.51503808176128008 0 -0.85716729658548041 forward_v I I I I #
face $-1 $150 $151 $52 $-1 $152 forward single #
loop $-1 $153 $154 $67 #
cone-surface $-1 54.307264519073584 -6.6097636177126127 2.8692548177990203 -0.51503808176128008 0 -0.85716729658548041 0.4285836482927402 0 -0.25751904088064004 1 I I 0 1 0.5 forward I I I I #
face $-1 $155 $156 $53 $-1 $157 forward single #
loop $-1 $158 $159 $68 #
cone-surface $-1 54.307264519073584 -3.9029374098477412 2.8692548177990203 -0.51503808176128008 0 -0.85716729658548041 0.4285836482927402 0 -0.25751904088064004 1 I I 0 1 0.5 forward I I I I #
face $-1 $160 $161 $54 $-1 $162 reversed single #
loop $-1 $-1 $163 $69 #
plane-surface $-1 18.391582715411126 8.6071754744521485 160.9429940441872 0 -1 0 -0.51503808176128008 0 -0.85716729658548041 forward_v I I I I #
face $-1 $164 $165 $55 $-1 $166 forward single #
loop $-1 $167 $168 $70 #
cone-surface $-1 54.307264519073584 4.0957984613440317 2.8692548177990203 -0.51503808176128008 0 -0.85716729658548041 0.4285836482927402 0 -0.25751904088064004 1 I I 0 1 0.5 forward I I I I #
face $-1 $169 $170 $56 $-1 $171 forward single #
loop $-1 $172 $173 $71 #
cone-surface $-1 54.307264519073584 6.8026246692089032 2.8692548177990203 -0.51503808176128008 0 -0.85716729658548041 0.4285836482927402 0 -0.25751904088064004 1 I I 0 1 0.5 forward I I I I #
face $-1 $174 $175 $57 $-1 $176 reversed single #
loop $-1 $-1 $177 $72 #
plane-surface $-1 18.391582715411126 19.312737553508793 160.9429940441872 0 -1 0 -0.51503808176128008 0 -0.85716729658548041 forward_v I I I I #
face $-1 $178 $179 $58 $-1 $180 forward single #
loop $-1 $181 $182 $73 #
cone-surface $-1 54.307264519073584 14.80136054040068 2.8692548177990203 -0.51503808176128008 0 -0.85716729658548041 0.4285836482927402 0 -0.25751904088064004 1 I I 0 1 0.5 forward I I I I #
face $-1 $183 $184 $59 $-1 $185 forward single #
loop $-1 $186 $187 $74 #
cone-surface $-1 54.307264519073584 17.508186748265544 2.8692548177990203 -0.51503808176128008 0 -0.85716729658548041 0.4285836482927402 0 -0.25751904088064004 1 I I 0 1 0.5 forward I I I I #
face $-1 $188 $189 $45 $-1 $190 reversed single #
loop $-1 $-1 $191 $75 #
plane-surface $-1 0 0 -5.5114477018493337 0 0 1 1 0 0 forward_v I I I I #
coedge $-1 $192 $193 $194 $195 forward $76 $-1 #
face $-1 $196 $197 $46 $-1 $198 reversed single #
loop $-1 $-1 $199 $78 #
plane-surface $-1 0 0 5.5114477018493337 0 0 1 1 0 0 forward_v I I I I #
coedge $-1 $200 $201 $202 $203 forward $79 $-1 #
face $-1 $204 $205 $47 $-1 $206 reversed single #
loop $-1 $-1 $207 $81 #
plane-surface $-1 58.248847926267281 0 0 -1 0 0 0 0 1 forward_v I I I I #
coedge $-1 $208 $209 $210 $211 forward $82 $-1 #
face $-1 $212 $213 $48 $-1 $214 reversed single #
loop $-1 $-1 $215 $84 #
plane-surface $-1 -41.609167086087311 -15.961912592836821 61.084979031832617 0.51503808176128008 0 0.85716729658548041 0.85716729658548041 0 -0.51503808176128008 forward_v I I I I #
coedge $-1 $216 $217 $218 $219 reversed $85 $-1 #
face $-1 $-1 $220 $49 $-1 $221 forward single #
loop $-1 $222 $223 $87 #
cone-surface $-1 53.920985957752627 -17.315325696769257 2.2263793453599101 -0.51503808176128008 0 -0.85716729658548041 0.2142918241463701 0 -0.12875952044032002 1 I I -0.70710678118654746 0.70710678118654746 0.25 forward I I I I #
loop $-1 $-1 $224 $64 #
coedge $-1 $140 $140 $225 $226 reversed $88 $-1 #
face $-1 $-1 $227 $50 $-1 $228 forward single #
loop $-1 $229 $230 $90 #
cone-surface $-1 53.920985957752627 -14.608499488904386 2.2263793453599101 -0.51503808176128008 0 -0.85716729658548041 0.2142918241463701 0 -0.12875952044032002 1 I I -0.70710678118654746 0.70710678118654746 0.25 forward I I I I #
loop $-1 $-1 $231 $65 #
coedge $-1 $145 $145 $232 $233 reversed $91 $-1 #
face $-1 $234 $235 $51 $-1 $236 reversed single #
loop $-1 $-1 $237 $93 #
plane-surface $-1 -41.609167086087311 -5.2563505137801769 61.084979031832617 0.51503808176128008 0 0.85716729658548041 0.85716729658548041 0 -0.51503808176128008 forward_v I I I I #
coedge $-1 $238 $239 $240 $241 reversed $94 $-1 #
face $-1 $-1 $242 $52 $-1 $243 forward single #
loop $-1 $244 $245 $96 #
cone-surface $-1 53.920985957752627 -6.6097636177126127 2.2263793453599101 -0.51503808176128008 0 -0.85716729658548041 0.2142918241463701 0 -0.12875952044032002 1 I I -0.70710678118654746 0.70710678118654746 0.25 forward I I I I #
loop $-1 $-1 $246 $67 #
coedge $-1 $154 $154 $247 $248 reversed $97 $-1 #
face $-1 $-1 $249 $53 $-1 $250 forward single #
loop $-1 $251 $252 $99 #
cone-surface $-1 53.920985957752627 -3.9029374098477412 2.2263793453599101 -0.51503808176128008 0 -0.85716729658548041 0.2142918241463701 0 -0.12875952044032002 1 I I -0.70710678118654746 0.70710678118654746 0.25 forward I I I I #
loop $-1 $-1 $253 $68 #
coedge $-1 $159 $159 $254 $255 reversed $100 $-1 #
face $-1 $256 $257 $54 $-1 $258 reversed single #
loop $-1 $-1 $259 $102 #
plane-surface $-1 -41.609167086087311 5.4492115652764674 61.084979031832617 0.51503808176128008 0 0.85716729658548041 0.85716729658548041 0 -0.51503808176128008 forward_v I I I I #
coedge $-1 $260 $261 $262 $263 reversed $103 $-1 #
face $-1 $-1 $264 $55 $-1 $265 forward single #
loop $-1 $266 $267 $105 #
cone-surface $-1 53.920985957752627 4.0957984613440317 2.2263793453599101 -0.51503808176128008 0 -0.85716729658548041 0.2142918241463701 0 -0.12875952044032002 1 I I -0.70710678118654746 0.70710678118654746 0.25 forward I I I I #
loop $-1 $-1 $268 $70 #
coedge $-1 $168 $168 $269 $270 reversed $106 $-1 #
face $-1 $-1 $271 $56 $-1 $272 forward single #
loop $-1 $273 $274 $108 #
cone-surface $-1 53.920985957752627 6.8026246692089032 2.2263793453599101 -0.51503808176128008 0 -0.85716729658548041 0.2142918241463701 0 -0.12875952044032002 1 I I -0.70710678118654746 0.70710678118654746 0.25 forward I I I I #
loop $-1 $-1 $275 $71 #
coedge $-1 $173 $173 $276 $277 reversed $109 $-1 #
face $-1 $278 $279 $57 $-1 $280 reversed single #
loop $-1 $-1 $281 $111 #
plane-surface $-1 -41.609167086087311 16.154773644333112 61.084979031832617 0.51503808176128008 0 0.85716729658548041 0.85716729658548041 0 -0.51503808176128008 forward_v I I I I #
coedge $-1 $282 $283 $284 $285 reversed $112 $-1 #
face $-1 $-1 $286 $58 $-1 $287 forward single #
loop $-1 $288 $289 $114 #
cone-surface $-1 53.920985957752627 14.80136054040068 2.2263793453599101 -0.51503808176128008 0 -0.85716729658548041 0.2142918241463701 0 -0.12875952044032002 1 I I -0.70710678118654746 0.70710678118654746 0.25 forward I I I I #
loop $-1 $-1 $290 $73 #
coedge $-1 $182 $182 $291 $292 reversed $115 $-1 #
face $-1 $-1 $293 $59 $-1 $294 forward single #
loop $-1 $295 $296 $117 #
cone-surface $-1 53.920985957752627 17.508186748265544 2.2263793453599101 -0.51503808176128008 0 -0.85716729658548041 0.2142918241463701 0 -0.12875952044032002 1 I I -0.70710678118654746 0.70710678118654746 0.25 forward I I I I #
loop $-1 $-1 $297 $74 #
coedge $-1 $187 $187 $298 $299 reversed $118 $-1 #
face $-1 $300 $301 $45 $-1 $302 reversed single #
loop $-1 $-1 $303 $120 #
plane-surface $-1 0 -25.053564203279151 0 0 1 0 0 0 1 forward_v I I I I #
coedge $-1 $304 $305 $306 $307 forward $121 $-1 #
coedge $-1 $308 $123 $309 $310 forward $76 $-1 #
coedge $-1 $123 $308 $311 $312 forward $76 $-1 #
coedge $-1 $313 $314 $123 $195 reversed $315 $-1 #
edge $-1 $316 -25.053564203279151 $317 25.053564203279151 $194 $318 forward 7 unknown #
face $-1 $319 $320 $46 $-1 $321 reversed single #
loop $-1 $-1 $322 $124 #
plane-surface $-1 -58.248847926267281 0 0 1 0 0 0 0 -1 forward_v I I I I #
coedge $-1 $323 $324 $325 $326 forward $125 $-1 #
coedge $-1 $325 $127 $322 $327 reversed $79 $-1 #
coedge $-1 $127 $325 $328 $329 reversed $79 $-1 #
coedge $-1 $330 $331 $127 $203 reversed $320 $-1 #
edge $-1 $332 -58.248847926267281 $333 58.248847926267281 $202 $334 forward 7 unknown #
face $-1 $335 $336 $47 $-1 $337 reversed single #
loop $-1 $-1 $338 $128 #
plane-surface $-1 0 26.874784225862086 2.5114477018493337 0 0 1 1 0 0 forward_v I I I I #
coedge $-1 $339 $340 $208 $341 forward $129 $-1 #
coedge $-1 $342 $131 $207 $341 reversed $82 $-1 #
coedge $-1 $131 $342 $343 $344 reversed $82 $-1 #
coedge $-1 $345 $338 $131 $211 reversed $205 $-1 #
edge $-1 $346 -58.248847926267281 $347 58.248847926267281 $210 $348 forward 7 unknown #
face $-1 $349 $350 $48 $-1 $351 forward single #
loop $-1 $-1 $352 $132 #
plane-surface $-1 18.391582715411126 -19.119876502012502 160.9429940441872 0 1 0 0.51503808176128008 0 0.85716729658548041 forward_v I I I I #
coedge $-1 $353 $354 $355 $356 reversed $133 $-1 #
coedge $-1 $217 $135 $357 $358 reversed $85 $-1 #
coedge $-1 $135 $216 $353 $359 reversed $85 $-1 #
coedge $-1 $355 $360 $135 $219 forward $350 $-1 #
edge $-1 $361 -49.053056568561715 $362 -41.684927835935568 $218 $363 forward 7 unknown #
loop $-1 $-1 $225 $136 #
plane-surface $-1 -41.609167086087311 -15.961912592836821 61.084979031832617 0.51503808176128008 0 0.85716729658548041 0.85716729658548041 0 -0.51503808176128008 forward_v I I I I #
loop $-1 $-1 $364 $87 #
coedge $-1 $223 $223 $224 $365 reversed $137 $-1 #
coedge $-1 $224 $224 $223 $365 forward $139 $-1 #
coedge $-1 $225 $225 $140 $226 forward $220 $-1 #
edge $-1 $366 0 $366 6.2831853071796004 $225 $367 forward 7 unknown #
loop $-1 $-1 $232 $141 #
plane-surface $-1 -41.609167086087311 -15.961912592836821 61.084979031832617 0.51503808176128008 0 0.85716729658548041 0.85716729658548041 0 -0.51503808176128008 forward_v I I I I #
loop $-1 $-1 $368 $90 #
coedge $-1 $230 $230 $231 $369 reversed $142 $-1 #
coedge $-1 $231 $231 $230 $369 forward $144 $-1 #
coedge $-1 $232 $232 $145 $233 forward $227 $-1 #
edge $-1 $370 0 $370 6.2831853071796004 $232 $371 forward 7 unknown #
face $-1 $372 $373 $51 $-1 $374 reversed single #
loop $-1 $-1 $375 $146 #
plane-surface $-1 18.391582715411126 -8.414314422955858 160.9429940441872 0 1 0 0.51503808176128008 0 0.85716729658548041 forward_v I I I I #
coedge $-1 $376 $377 $378 $379 reversed $147 $-1 #
coedge $-1 $239 $149 $380 $381 reversed $94 $-1 #
coedge $-1 $149 $238 $376 $382 reversed $94 $-1 #
coedge $-1 $378 $383 $149 $241 forward $384 $-1 #
edge $-1 $385 -49.053056568561715 $386 -41.684927835935568 $240 $387 forward 7 unknown #
loop $-1 $-1 $247 $150 #
plane-surface $-1 -41.609167086087311 -5.2563505137801769 61.084979031832617 0.51503808176128008 0 0.85716729658548041 0.85716729658548041 0 -0.51503808176128008 forward_v I I I I #
loop $-1 $-1 $388 $96 #
coedge $-1 $245 $245 $246 $389 reversed $151 $-1 #
coedge $-1 $246 $246 $245 $389 forward $153 $-1 #
coedge $-1 $247 $247 $154 $248 forward $242 $-1 #
edge $-1 $390 0 $390 6.2831853071796004 $247 $391 forward 7 unknown #
loop $-1 $-1 $254 $155 #
plane-surface $-1 -41.609167086087311 -5.2563505137801769 61.084979031832617 0.51503808176128008 0 0.85716729658548041 0.85716729658548041 0 -0.51503808176128008 forward_v I I I I #
loop $-1 $-1 $392 $99 #
coedge $-1 $252 $252 $253 $393 reversed $156 $-1 #
coedge $-1 $253 $253 $252 $393 forward $158 $-1 #
coedge $-1 $254 $254 $159 $255 forward $249 $-1 #
edge $-1 $394 0 $394 6.2831853071796004 $254 $395 forward 7 unknown #
face $-1 $396 $397 $54 $-1 $398 reversed single #
loop $-1 $-1 $399 $160 #
plane-surface $-1 18.391582715411126 2.2912476561007864 160.9429940441872 0 1 0 0.51503808176128008 0 0.85716729658548041 forward_v I I I I #
coedge $-1 $400 $401 $402 $403 reversed $161 $-1 #
coedge $-1 $261 $163 $404 $405 reversed $103 $-1 #
coedge $-1 $163 $260 $400 $406 reversed $103 $-1 #
coedge $-1 $402 $407 $163 $263 forward $408 $-1 #
edge $-1 $409 -49.053056568561715 $410 -41.684927835935568 $262 $411 forward 7 unknown #
loop $-1 $-1 $269 $164 #
plane-surface $-1 -41.609167086087311 5.4492115652764674 61.084979031832617 0.51503808176128008 0 0.85716729658548041 0.85716729658548041 0 -0.51503808176128008 forward_v I I I I #
loop $-1 $-1 $412 $105 #
coedge $-1 $267 $267 $268 $413 reversed $165 $-1 #
coedge $-1 $268 $268 $267 $413 forward $167 $-1 #
coedge $-1 $269 $269 $168 $270 forward $264 $-1 #
edge $-1 $414 0 $414 6.2831853071796004 $269 $415 forward 7 unknown #
loop $-1 $-1 $276 $169 #
plane-surface $-1 -41.609167086087311 5.4492115652764674 61.084979031832617 0.51503808176128008 0 0.85716729658548041 0.85716729658548041 0 -0.51503808176128008 forward_v I I I I #
loop $-1 $-1 $416 $108 #
coedge $-1 $274 $274 $275 $417 reversed $170 $-1 #
coedge $-1 $275 $275 $274 $417 forward $172 $-1 #
coedge $-1 $276 $276 $173 $277 forward $271 $-1 #
edge $-1 $418 0 $418 6.2831853071796004 $276 $419 forward 7 unknown #
face $-1 $420 $421 $57 $-1 $422 reversed single #
loop $-1 $-1 $423 $174 #
plane-surface $-1 18.391582715411126 12.996809735157431 160.9429940441872 0 1 0 0.51503808176128008 0 0.85716729658548041 forward_v I I I I #
coedge $-1 $424 $425 $426 $427 reversed $175 $-1 #
coedge $-1 $283 $177 $428 $429 reversed $112 $-1 #
coedge $-1 $177 $282 $424 $430 reversed $112 $-1 #
coedge $-1 $426 $431 $177 $285 forward $432 $-1 #
edge $-1 $433 -49.053056568561715 $434 -41.684927835935568 $284 $435 forward 7 unknown #
loop $-1 $-1 $291 $178 #
plane-surface $-1 -41.609167086087311 16.154773644333112 61.084979031832617 0.51503808176128008 0 0.85716729658548041 0.85716729658548041 0 -0.51503808176128008 forward_v I I I I #
loop $-1 $-1 $436 $114 #
coedge $-1 $289 $289 $290 $437 reversed $179 $-1 #
coedge $-1 $290 $290 $289 $437 forward $181 $-1 #
coedge $-1 $291 $291 $182 $292 forward $286 $-1 #
edge $-1 $438 0 $438 6.2831853071796004 $291 $439 forward 7 unknown #
loop $-1 $-1 $298 $183 #
plane-surface $-1 -41.609167086087311 16.154773644333112 61.084979031832617 0.51503808176128008 0 0.85716729658548041 0.85716729658548041 0 -0.51503808176128008 forward_v I I I I #
loop $-1 $-1 $440 $117 #
coedge $-1 $296 $296 $297 $441 reversed $184 $-1 #
coedge $-1 $297 $297 $296 $441 forward $186 $-1 #
coedge $-1 $298 $298 $187 $299 forward $293 $-1 #
edge $-1 $442 0 $442 6.2831853071796004 $298 $443 forward 7 unknown #
face $-1 $444 $445 $45 $-1 $446 reversed single #
loop $-1 $-1 $447 $188 #
plane-surface $-1 -58.248847926267281 0 0 1 0 0 0 0 -1 forward_v I I I I #
coedge $-1 $448 $311 $449 $450 forward $189 $-1 #
coedge $-1 $451 $191 $448 $452 forward $121 $-1 #
coedge $-1 $191 $451 $453 $454 forward $121 $-1 #
coedge $-1 $314 $313 $191 $307 reversed $315 $-1 #
edge $-1 $455 -25.053564203279151 $456 25.053564203279151 $306 $457 forward 7 unknown #
coedge $-1 $193 $192 $458 $459 forward $76 $-1 #
coedge $-1 $460 $461 $192 $310 reversed $445 $-1 #
edge $-1 $317 -58.248847926267281 $462 58.248847926267281 $309 $463 forward 7 unknown #
coedge $-1 $303 $464 $193 $312 reversed $189 $-1 #
edge $-1 $465 -58.248847926267281 $316 58.248847926267281 $311 $466 forward 7 unknown #
coedge $-1 $306 $194 $464 $467 forward $315 $-1 #
coedge $-1 $194 $306 $460 $468 reversed $315 $-1 #
loop $-1 $-1 $313 $444 #
vertex $-1 $195 $469 #
vertex $-1 $195 $470 #
straight-curve $-1 58.248847926267281 0 5.5114477018493337 0 1 0 I I #
face $-1 $471 $472 $46 $-1 $473 reversed single #
loop $-1 $-1 $330 $196 #
plane-surface $-1 0 -26.874784225862083 2.5114477018493337 0 0 1 1 0 0 forward_v I I I I #
coedge $-1 $474 $475 $200 $327 forward $197 $-1 #
coedge $-1 $476 $199 $475 $477 forward $125 $-1 #
coedge $-1 $199 $476 $478 $479 forward $125 $-1 #
coedge $-1 $201 $200 $199 $326 reversed $79 $-1 #
edge $-1 $480 -58.248847926267281 $481 58.248847926267281 $199 $482 forward 7 unknown #
edge $-1 $481 -5.5114477018493337 $333 -2.5114477018493337 $322 $483 forward 7 unknown #
coedge $-1 $478 $484 $201 $329 forward $485 $-1 #
edge $-1 $332 2.5114477018493337 $480 5.5114477018493337 $328 $486 forward 7 unknown #
coedge $-1 $487 $202 $484 $488 forward $320 $-1 #
coedge $-1 $202 $487 $474 $489 forward $320 $-1 #
vertex $-1 $329 $490 #
vertex $-1 $327 $491 #
straight-curve $-1 0 -25.053564203279151 2.5114477018493337 -1 0 0 I I #
face $-1 $492 $493 $47 $-1 $494 forward single #
loop $-1 $-1 $495 $204 #
plane-surface $-1 0 28.696004248445018 4.0114477018493337 0 -1 0 0 0 -1 forward_v I I I I #
coedge $-1 $210 $496 $339 $497 forward $205 $-1 #
coedge $-1 $498 $207 $338 $497 reversed $129 $-1 #
coedge $-1 $207 $498 $499 $500 reversed $129 $-1 #
edge $-1 $501 -5.5114477018493337 $347 -2.5114477018493337 $207 $502 forward 7 unknown #
coedge $-1 $209 $208 $503 $504 reversed $82 $-1 #
coedge $-1 $505 $506 $209 $344 forward $507 $-1 #
edge $-1 $346 2.5114477018493337 $508 5.5114477018493337 $343 $509 forward 7 unknown #
coedge $-1 $496 $210 $506 $510 forward $205 $-1 #
vertex $-1 $344 $511 #
vertex $-1 $341 $512 #
straight-curve $-1 0 25.053564203279151 2.5114477018493337 1 0 0 I I #
face $-1 $-1 $513 $48 $-1 $514 reversed single #
loop $-1 $-1 $218 $212 #
plane-surface $-1 0 0 5.5114477018493337 0 0 1 1 0 0 forward_v I I I I #
coedge $-1 $515 $516 $517 $518 reversed $213 $-1 #
coedge $-1 $519 $215 $217 $359 forward $133 $-1 #
coedge $-1 $215 $519 $515 $520 forward $133 $-1 #
coedge $-1 $517 $218 $215 $356 forward $350 $-1 #
edge $-1 $362 4.8229923872427296 $521 11.138920205594092 $355 $522 forward 7 unknown #
coedge $-1 $523 $524 $216 $358 forward $513 $-1 #
edge $-1 $525 -79.387267791759427 $361 -74.960049320244266 $357 $526 forward 7 unknown #
edge $-1 $362 107.90179075678833 $525 116.49769585253458 $217 $527 forward 7 unknown #
coedge $-1 $218 $517 $523 $528 forward $350 $-1 #
vertex $-1 $358 $529 #
vertex $-1 $219 $530 #
straight-curve $-1 9.1957913577055628 -12.80394868366114 5.5114477018493346 -1 0 0 I I #
coedge $-1 $364 $364 $-1 $531 reversed $222 $-1 #
edge $-1 $532 0 $532 6.2831853071796004 $223 $533 forward 7 unknown #
vertex $-1 $226 $534 #
ellipse-curve $-1 54.564783559954215 -17.315325696769257 3.2978384660917484 0.51503808176128008 0 0.85716729658548041 0.4285836482927402 0 -0.25751904088064004 1 I I #
coedge $-1 $368 $368 $-1 $535 reversed $229 $-1 #
edge $-1 $536 0 $536 6.2831853071796004 $230 $537 forward 7 unknown #
vertex $-1 $233 $538 #
ellipse-curve $-1 54.564783559954215 -14.608499488904386 3.2978384660917484 0.51503808176128008 0 0.85716729658548041 0.4285836482927402 0 -0.25751904088064004 1 I I #
face $-1 $-1 $384 $51 $-1 $539 forward single #
loop $-1 $-1 $540 $234 #
plane-surface $-1 58.248847926267281 0 0 -1 0 0 0 0 1 forward_v I I I I #
coedge $-1 $541 $542 $543 $544 reversed $235 $-1 #
coedge $-1 $545 $237 $239 $382 forward $147 $-1 #
coedge $-1 $237 $545 $541 $546 forward $147 $-1 #
coedge $-1 $543 $240 $237 $379 forward $384 $-1 #
edge $-1 $386 -0.52978865228559258 $547 5.7861391660657695 $378 $548 forward 7 unknown #
coedge $-1 $549 $550 $238 $381 forward $373 $-1 #
edge $-1 $551 -79.387267791759427 $385 -74.960049320244266 $380 $552 forward 7 unknown #
edge $-1 $386 107.90179075678833 $551 116.49769585253458 $239 $553 forward 7 unknown #
coedge $-1 $240 $543 $549 $554 forward $384 $-1 #
loop $-1 $-1 $543 $372 #
vertex $-1 $381 $555 #
vertex $-1 $241 $556 #
straight-curve $-1 9.1957913577055628 -2.0983866046044959 5.5114477018493346 -1 0 0 I I #
coedge $-1 $388 $388 $-1 $557 reversed $244 $-1 #
edge $-1 $558 0 $558 6.2831853071796004 $245 $559 forward 7 unknown #
vertex $-1 $248 $560 #
ellipse-curve $-1 54.564783559954215 -6.6097636177126127 3.2978384660917484 0.51503808176128008 0 0.85716729658548041 0.4285836482927402 0 -0.25751904088064004 1 I I #
coedge $-1 $392 $392 $-1 $561 reversed $251 $-1 #
edge $-1 $562 0 $562 6.2831853071796004 $252 $563 forward 7 unknown #
vertex $-1 $255 $564 #
ellipse-curve $-1 54.564783559954215 -3.9029374098477412 3.2978384660917484 0.51503808176128008 0 0.85716729658548041 0.4285836482927402 0 -0.25751904088064004 1 I I #
face $-1 $-1 $408 $54 $-1 $565 forward single #
loop $-1 $-1 $566 $256 #
plane-surface $-1 58.248847926267281 0 0 -1 0 0 0 0 1 forward_v I I I I #
coedge $-1 $567 $568 $569 $570 reversed $257 $-1 #
coedge $-1 $571 $259 $261 $406 forward $161 $-1 #
coedge $-1 $259 $571 $567 $572 forward $161 $-1 #
coedge $-1 $569 $262 $259 $403 forward $408 $-1 #
edge $-1 $410 -5.8825696918139148 $573 0.43335812653744732 $402 $574 forward 7 unknown #
coedge $-1 $575 $576 $260 $405 forward $397 $-1 #
edge $-1 $577 -79.387267791759427 $409 -74.960049320244266 $404 $578 forward 7 unknown #
edge $-1 $410 107.90179075678833 $577 116.49769585253458 $261 $579 forward 7 unknown #
coedge $-1 $262 $569 $575 $580 forward $408 $-1 #
loop $-1 $-1 $569 $396 #
vertex $-1 $405 $581 #
vertex $-1 $263 $582 #
straight-curve $-1 9.1957913577055628 8.6071754744521485 5.5114477018493346 -1 0 0 I I #
coedge $-1 $412 $412 $-1 $583 reversed $266 $-1 #
edge $-1 $584 0 $584 6.2831853071796004 $267 $585 forward 7 unknown #
vertex $-1 $270 $586 #
ellipse-curve $-1 54.564783559954215 4.0957984613440317 3.2978384660917484 0.51503808176128008 0 0.85716729658548041 0.4285836482927402 0 -0.25751904088064004 1 I I #
coedge $-1 $416 $416 $-1 $587 reversed $273 $-1 #
edge $-1 $588 0 $588 6.2831853071796004 $274 $589 forward 7 unknown #
vertex $-1 $277 $590 #
ellipse-curve $-1 54.564783559954215 6.8026246692089032 3.2978384660917484 0.51503808176128008 0 0.85716729658548041 0.4285836482927402 0 -0.25751904088064004 1 I I #
face $-1 $-1 $432 $57 $-1 $591 forward single #
loop $-1 $-1 $592 $278 #
plane-surface $-1 58.248847926267281 0 0 -1 0 0 0 0 1 forward_v I I I I #
coedge $-1 $593 $594 $595 $596 reversed $279 $-1 #
coedge $-1 $597 $281 $283 $430 forward $175 $-1 #
coedge $-1 $281 $597 $593 $598 forward $175 $-1 #
coedge $-1 $595 $284 $281 $427 forward $432 $-1 #
edge $-1 $434 -11.235350731342237 $599 -4.9194229129908749 $426 $600 forward 7 unknown #
coedge $-1 $601 $602 $282 $429 forward $421 $-1 #
edge $-1 $603 -79.387267791759427 $433 -74.960049320244266 $428 $604 forward 7 unknown #
edge $-1 $434 107.90179075678833 $603 116.49769585253458 $283 $605 forward 7 unknown #
coedge $-1 $284 $595 $601 $606 forward $432 $-1 #
loop $-1 $-1 $595 $420 #
vertex $-1 $429 $607 #
vertex $-1 $285 $608 #
straight-curve $-1 9.1957913577055628 19.312737553508793 5.5114477018493346 -1 0 0 I I #
coedge $-1 $436 $436 $-1 $609 reversed $288 $-1 #
edge $-1 $610 0 $610 6.2831853071796004 $289 $611 forward 7 unknown #
vertex $-1 $292 $612 #
ellipse-curve $-1 54.564783559954215 14.80136054040068 3.2978384660917484 0.51503808176128008 0 0.85716729658548041 0.4285836482927402 0 -0.25751904088064004 1 I I #
coedge $-1 $440 $440 $-1 $613 reversed $295 $-1 #
edge $-1 $614 0 $614 6.2831853071796004 $296 $615 forward 7 unknown #
vertex $-1 $299 $616 #
ellipse-curve $-1 54.564783559954215 17.508186748265544 3.2978384660917484 0.51503808176128008 0 0.85716729658548041 0.4285836482927402 0 -0.25751904088064004 1 I I #
face $-1 $-1 $315 $45 $-1 $617 reversed single #
loop $-1 $-1 $460 $300 #
plane-surface $-1 0 25.053564203279151 0 0 -1 0 0 0 -1 forward_v I I I I #
coedge $-1 $618 $458 $461 $619 forward $301 $-1 #
coedge $-1 $464 $303 $304 $452 reversed $189 $-1 #
coedge $-1 $458 $618 $303 $450 reversed $301 $-1 #
edge $-1 $465 -5.5114477018493337 $620 5.5114477018493337 $449 $621 forward 7 unknown #
coedge $-1 $305 $304 $618 $622 forward $121 $-1 #
edge $-1 $456 -58.248847926267281 $620 58.248847926267281 $448 $623 forward 7 unknown #
coedge $-1 $461 $460 $305 $454 reversed $445 $-1 #
edge $-1 $624 -58.248847926267281 $455 58.248847926267281 $453 $625 forward 7 unknown #
vertex $-1 $307 $626 #
vertex $-1 $467 $627 #
straight-curve $-1 58.248847926267281 0 -5.5114477018493337 0 -1 0 I I #
coedge $-1 $447 $449 $308 $459 reversed $301 $-1 #
edge $-1 $462 -25.053564203279151 $465 25.053564203279151 $458 $628 forward 7 unknown #
coedge $-1 $453 $309 $314 $468 forward $445 $-1 #
coedge $-1 $309 $453 $447 $619 reversed $445 $-1 #
vertex $-1 $310 $629 #
straight-curve $-1 0 25.053564203279151 5.5114477018493337 -1 0 0 I I #
coedge $-1 $311 $448 $313 $467 reversed $189 $-1 #
vertex $-1 $459 $630 #
straight-curve $-1 0 -25.053564203279151 5.5114477018493337 1 0 0 I I #
edge $-1 $316 -5.5114477018493337 $456 5.5114477018493337 $313 $631 forward 7 unknown #
edge $-1 $317 -5.5114477018493337 $455 5.5114477018493337 $314 $632 forward 7 unknown #
point $-1 58.248847926267281 -25.053564203279151 5.5114477018493337 #
point $-1 58.248847926267281 25.053564203279151 5.5114477018493337 #
face $-1 $-1 $485 $46 $-1 $633 reversed single #
loop $-1 $-1 $634 $319 #
plane-surface $-1 0 -28.696004248445014 4.0114477018493337 0 1 0 0 0 1 forward_v I I I I #
coedge $-1 $635 $322 $331 $489 reversed $197 $-1 #
coedge $-1 $322 $635 $323 $477 reversed $197 $-1 #
coedge $-1 $324 $323 $636 $637 forward $125 $-1 #
edge $-1 $481 25.053564203279151 $638 28.696004248445014 $475 $639 forward 7 unknown #
coedge $-1 $640 $328 $324 $479 reversed $485 $-1 #
edge $-1 $641 -28.696004248445014 $480 -25.053564203279151 $478 $642 forward 7 unknown #
vertex $-1 $329 $643 #
vertex $-1 $477 $644 #
straight-curve $-1 0 -25.053564203279151 5.5114477018493337 -1 0 0 I I #
straight-curve $-1 -58.248847926267281 -25.053564203279151 0 0 0 -1 I I #
coedge $-1 $328 $640 $330 $488 reversed $485 $-1 #
loop $-1 $-1 $328 $471 #
straight-curve $-1 58.248847926267281 -25.053564203279151 0 0 0 1 I I #
coedge $-1 $331 $330 $645 $646 forward $320 $-1 #
edge $-1 $332 -1.8212200225829314 $647 1.8212200225829314 $484 $648 forward 7 unknown #
edge $-1 $649 -1.8212200225829314 $333 1.8212200225829314 $474 $650 forward 7 unknown #
point $-1 58.248847926267281 -25.053564203279151 2.5114477018493337 #
point $-1 -58.248847926267281 -25.053564203279151 2.5114477018493337 #
face $-1 $-1 $507 $47 $-1 $651 reversed single #
loop $-1 $-1 $503 $335 #
plane-surface $-1 0 0 5.5114477018493337 0 0 1 1 0 0 forward_v I I I I #
coedge $-1 $652 $653 $498 $654 forward $336 $-1 #
coedge $-1 $338 $345 $652 $655 forward $205 $-1 #
edge $-1 $656 -1.8212200225829314 $347 1.8212200225829314 $339 $657 forward 7 unknown #
coedge $-1 $340 $339 $495 $654 reversed $129 $-1 #
coedge $-1 $658 $503 $340 $500 forward $493 $-1 #
edge $-1 $501 25.053564203279151 $659 28.696004248445018 $340 $660 forward 7 unknown #
vertex $-1 $500 $661 #
straight-curve $-1 58.248847926267281 25.053564203279151 0 0 0 -1 I I #
coedge $-1 $499 $662 $342 $504 forward $493 $-1 #
edge $-1 $508 -58.248847926267281 $501 58.248847926267281 $503 $663 forward 7 unknown #
coedge $-1 $664 $343 $662 $665 reversed $507 $-1 #
coedge $-1 $343 $664 $345 $510 reversed $507 $-1 #
loop $-1 $-1 $343 $492 #
vertex $-1 $344 $666 #
straight-curve $-1 -58.248847926267281 25.053564203279151 0 0 0 1 I I #
edge $-1 $346 -1.8212200225829314 $667 1.8212200225829314 $506 $668 forward 7 unknown #
point $-1 -58.248847926267281 25.053564203279155 2.5114477018493337 #
point $-1 58.248847926267281 25.053564203279155 2.5114477018493337 #
loop $-1 $-1 $357 $349 #
plane-surface $-1 58.248847926267281 0 0 -1 0 0 0 0 1 forward_v I I I I #
coedge $-1 $516 $352 $354 $520 reversed $213 $-1 #
coedge $-1 $352 $515 $669 $670 reversed $213 $-1 #
coedge $-1 $360 $355 $352 $518 forward $350 $-1 #
edge $-1 $521 41.684927835935568 $671 49.053056568561715 $517 $672 forward 7 unknown #
coedge $-1 $354 $353 $524 $673 reversed $133 $-1 #
edge $-1 $674 -116.49769585253458 $521 -107.90179075678833 $515 $675 forward 7 unknown #
vertex $-1 $356 $676 #
straight-curve $-1 50.880719193641113 -7.9809562964184106 5.5114477018493346 0 -1 0 I I #
coedge $-1 $669 $357 $360 $528 reversed $513 $-1 #
coedge $-1 $357 $669 $519 $673 forward $513 $-1 #
vertex $-1 $358 $677 #
straight-curve $-1 58.248847926267281 -12.80394868366114 80.471497022093601 0 0 1 I I #
straight-curve $-1 -41.609167086087311 -12.80394868366114 61.084979031832617 0.85716729658548041 0 -0.51503808176128008 I I #
edge $-1 $671 -19.119876502012502 $361 -12.80394868366114 $523 $678 forward 7 unknown #
point $-1 58.248847926267281 -12.80394868366114 5.5114477018493337 #
point $-1 50.880719193641127 -12.80394868366114 5.5114477018493346 #
edge $-1 $679 1 $679 0 $364 $-1 forward 7 unknown #
vertex $-1 $365 $680 #
ellipse-curve $-1 54.049745478192946 -17.315325696769257 2.4406711695062802 0.51503808176128008 0 0.85716729658548041 0.4285836482927402 0 -0.25751904088064004 1 I I #
point $-1 54.993367208246966 -17.315325696769257 3.0403194252111208 #
edge $-1 $681 1 $681 0 $368 $-1 forward 7 unknown #
vertex $-1 $369 $682 #
ellipse-curve $-1 54.049745478192946 -14.608499488904386 2.4406711695062802 0.51503808176128008 0 0.85716729658548041 0.4285836482927402 0 -0.25751904088064004 1 I I #
point $-1 54.993367208246966 -14.608499488904386 3.0403194252111208 #
plane-surface $-1 0 0 5.5114477018493337 0 0 1 1 0 0 forward_v I I I I #
coedge $-1 $550 $549 $542 $683 forward $373 $-1 #
coedge $-1 $542 $375 $377 $546 reversed $235 $-1 #
coedge $-1 $375 $541 $540 $683 reversed $235 $-1 #
coedge $-1 $383 $378 $375 $544 forward $384 $-1 #
edge $-1 $547 41.684927835935568 $684 49.053056568561715 $543 $685 forward 7 unknown #
coedge $-1 $377 $376 $550 $686 reversed $147 $-1 #
edge $-1 $687 -116.49769585253458 $547 -107.90179075678833 $541 $688 forward 7 unknown #
vertex $-1 $379 $689 #
straight-curve $-1 50.880719193641113 -2.6281752568900885 5.5114477018493346 0 -1 0 I I #
coedge $-1 $540 $380 $383 $554 reversed $373 $-1 #
coedge $-1 $380 $540 $545 $686 forward $373 $-1 #
vertex $-1 $381 $690 #
straight-curve $-1 58.248847926267281 -2.0983866046044959 80.471497022093601 0 0 1 I I #
straight-curve $-1 -41.609167086087311 -2.0983866046044959 61.084979031832617 0.85716729658548041 0 -0.51503808176128008 I I #
edge $-1 $684 -8.414314422955858 $385 -2.0983866046044959 $549 $691 forward 7 unknown #
point $-1 58.248847926267281 -2.0983866046044959 5.5114477018493337 #
point $-1 50.880719193641127 -2.0983866046044959 5.5114477018493346 #
edge $-1 $692 1 $692 0 $388 $-1 forward 7 unknown #
vertex $-1 $389 $693 #
ellipse-curve $-1 54.049745478192946 -6.6097636177126127 2.4406711695062802 0.51503808176128008 0 0.85716729658548041 0.4285836482927402 0 -0.25751904088064004 1 I I #
point $-1 54.993367208246966 -6.6097636177126127 3.0403194252111208 #
edge $-1 $694 1 $694 0 $392 $-1 forward 7 unknown #
vertex $-1 $393 $695 #
ellipse-curve $-1 54.049745478192946 -3.9029374098477412 2.4406711695062802 0.51503808176128008 0 0.85716729658548041 0.4285836482927402 0 -0.25751904088064004 1 I I #
point $-1 54.993367208246966 -3.9029374098477412 3.0403194252111208 #
plane-surface $-1 0 0 5.5114477018493337 0 0 1 1 0 0 forward_v I I I I #
coedge $-1 $576 $575 $568 $696 forward $397 $-1 #
coedge $-1 $568 $399 $401 $572 reversed $257 $-1 #
coedge $-1 $399 $567 $566 $696 reversed $257 $-1 #
coedge $-1 $407 $402 $399 $570 forward $408 $-1 #
edge $-1 $573 41.684927835935568 $697 49.053056568561715 $569 $698 forward 7 unknown #
coedge $-1 $401 $400 $576 $699 reversed $161 $-1 #
edge $-1 $700 -116.49769585253458 $573 -107.90179075678833 $567 $701 forward 7 unknown #
vertex $-1 $403 $702 #
straight-curve $-1 50.880719193641113 2.7246057826382337 5.5114477018493346 0 -1 0 I I #
coedge $-1 $566 $404 $407 $580 reversed $397 $-1 #
coedge $-1 $404 $566 $571 $699 forward $397 $-1 #
vertex $-1 $405 $703 #
straight-curve $-1 58.248847926267281 8.6071754744521485 80.471497022093601 0 0 1 I I #
straight-curve $-1 -41.609167086087311 8.6071754744521485 61.084979031832617 0.85716729658548041 0 -0.51503808176128008 I I #
edge $-1 $697 2.2912476561007864 $409 8.6071754744521485 $575 $704 forward 7 unknown #
point $-1 58.248847926267281 8.6071754744521485 5.5114477018493337 #
point $-1 50.880719193641127 8.6071754744521485 5.5114477018493346 #
edge $-1 $705 1 $705 0 $412 $-1 forward 7 unknown #
vertex $-1 $413 $706 #
ellipse-curve $-1 54.049745478192946 4.0957984613440317 2.4406711695062802 0.51503808176128008 0 0.85716729658548041 0.4285836482927402 0 -0.25751904088064004 1 I I #
point $-1 54.993367208246966 4.0957984613440317 3.0403194252111208 #
edge $-1 $707 1 $707 0 $416 $-1 forward 7 unknown #
vertex $-1 $417 $708 #
ellipse-curve $-1 54.049745478192946 6.8026246692089032 2.4406711695062802 0.51503808176128008 0 0.85716729658548041 0.4285836482927402 0 -0.25751904088064004 1 I I #
point $-1 54.993367208246966 6.8026246692089032 3.0403194252111208 #
plane-surface $-1 0 0 5.5114477018493337 0 0 1 1 0 0 forward_v I I I I #
coedge $-1 $602 $601 $594 $709 forward $421 $-1 #
coedge $-1 $594 $423 $425 $598 reversed $279 $-1 #
coedge $-1 $423 $593 $592 $709 reversed $279 $-1 #
coedge $-1 $431 $426 $423 $596 forward $432 $-1 #
edge $-1 $599 41.684927835935568 $710 49.053056568561715 $595 $711 forward 7 unknown #
coedge $-1 $425 $424 $602 $712 reversed $175 $-1 #
edge $-1 $713 -116.49769585253458 $599 -107.90179075678833 $593 $714 forward 7 unknown #
vertex $-1 $427 $715 #
straight-curve $-1 50.880719193641113 8.0773868221665559 5.5114477018493346 0 -1 0 I I #
coedge $-1 $592 $428 $431 $606 reversed $421 $-1 #
coedge $-1 $428 $592 $597 $712 forward $421 $-1 #
vertex $-1 $429 $716 #
straight-curve $-1 58.248847926267281 19.312737553508793 80.471497022093601 0 0 1 I I #
straight-curve $-1 -41.609167086087311 19.312737553508793 61.084979031832617 0.85716729658548041 0 -0.51503808176128008 I I #
edge $-1 $710 12.996809735157431 $433 19.312737553508793 $601 $717 forward 7 unknown #
point $-1 58.248847926267281 19.312737553508793 5.5114477018493337 #
point $-1 50.880719193641127 19.312737553508793 5.5114477018493346 #
edge $-1 $718 1 $718 0 $436 $-1 forward 7 unknown #
vertex $-1 $437 $719 #
ellipse-curve $-1 54.049745478192946 14.80136054040068 2.4406711695062802 0.51503808176128008 0 0.85716729658548041 0.4285836482927402 0 -0.25751904088064004 1 I I #
point $-1 54.993367208246966 14.80136054040068 3.0403194252111208 #
edge $-1 $720 1 $720 0 $440 $-1 forward 7 unknown #
vertex $-1 $441 $721 #
ellipse-curve $-1 54.049745478192946 17.508186748265544 2.4406711695062802 0.51503808176128008 0 0.85716729658548041 0.4285836482927402 0 -0.25751904088064004 1 I I #
point $-1 54.993367208246966 17.508186748265544 3.0403194252111208 #
plane-surface $-1 58.248847926267281 0 0 -1 0 0 0 0 1 forward_v I I I I #
coedge $-1 $449 $447 $451 $622 reversed $301 $-1 #
edge $-1 $462 -5.5114477018493337 $624 5.5114477018493337 $461 $722 forward 7 unknown #
vertex $-1 $622 $723 #
straight-curve $-1 -58.248847926267281 -25.053564203279151 0 0 0 -1 I I #
edge $-1 $620 -25.053564203279151 $624 25.053564203279151 $618 $724 forward 7 unknown #
straight-curve $-1 0 -25.053564203279151 -5.5114477018493337 -1 0 0 I I #
vertex $-1 $454 $725 #
straight-curve $-1 0 25.053564203279151 -5.5114477018493337 1 0 0 I I #
point $-1 58.248847926267281 25.053564203279151 -5.5114477018493337 #
point $-1 58.248847926267281 -25.053564203279151 -5.5114477018493337 #
straight-curve $-1 -58.248847926267281 0 5.5114477018493337 0 -1 0 I I #
point $-1 -58.248847926267281 25.053564203279151 5.5114477018493337 #
point $-1 -58.248847926267281 -25.053564203279151 5.5114477018493337 #
straight-curve $-1 58.248847926267281 -25.053564203279151 0 0 0 -1 I I #
straight-curve $-1 58.248847926267281 25.053564203279151 0 0 0 -1 I I #
plane-surface $-1 58.248847926267281 0 0 -1 0 0 0 0 1 forward_v I I I I #
coedge $-1 $645 $636 $635 $726 forward $472 $-1 #
coedge $-1 $475 $474 $634 $726 reversed $197 $-1 #
coedge $-1 $634 $727 $476 $637 reversed $472 $-1 #
edge $-1 $638 -58.248847926267281 $641 58.248847926267281 $636 $728 forward 7 unknown #
vertex $-1 $477 $729 #
straight-curve $-1 -58.248847926267281 0 5.5114477018493337 0 -1 0 I I #
coedge $-1 $484 $478 $727 $730 forward $485 $-1 #
vertex $-1 $479 $731 #
straight-curve $-1 58.248847926267281 0 5.5114477018493337 0 1 0 I I #
point $-1 58.248847926267281 -25.053564203279151 5.5114477018493337 #
point $-1 -58.248847926267281 -25.053564203279151 5.5114477018493337 #
coedge $-1 $727 $634 $487 $646 reversed $472 $-1 #
edge $-1 $647 -58.248847926267281 $649 58.248847926267281 $645 $732 forward 7 unknown #
vertex $-1 $730 $733 #
straight-curve $-1 58.248847926267281 -26.874784225862083 2.5114477018493337 0 -1 0 I I #
vertex $-1 $489 $734 #
straight-curve $-1 -58.248847926267281 -26.874784225862083 2.5114477018493337 0 1 0 I I #
plane-surface $-1 -58.248847926267281 0 0 1 0 0 0 0 -1 forward_v I I I I #
coedge $-1 $735 $495 $496 $655 reversed $336 $-1 #
coedge $-1 $495 $735 $658 $736 reversed $336 $-1 #
edge $-1 $659 -1.5 $656 1.5 $498 $737 forward 7 unknown #
edge $-1 $667 -58.248847926267281 $656 58.248847926267281 $652 $738 forward 7 unknown #
vertex $-1 $497 $739 #
straight-curve $-1 58.248847926267281 26.874784225862086 2.5114477018493337 0 -1 0 I I #
coedge $-1 $662 $499 $653 $736 forward $493 $-1 #
vertex $-1 $500 $740 #
straight-curve $-1 58.248847926267281 0 5.5114477018493337 0 1 0 I I #
point $-1 58.248847926267281 25.053564203279151 5.5114477018493337 #
coedge $-1 $503 $658 $505 $665 forward $493 $-1 #
straight-curve $-1 0 25.053564203279151 5.5114477018493337 1 0 0 I I #
coedge $-1 $506 $505 $735 $741 forward $507 $-1 #
edge $-1 $742 -28.696004248445018 $508 -25.053564203279151 $505 $743 forward 7 unknown #
point $-1 -58.248847926267281 25.053564203279151 5.5114477018493337 #
vertex $-1 $655 $744 #
straight-curve $-1 -58.248847926267281 26.874784225862086 2.5114477018493337 0 1 0 I I #
coedge $-1 $524 $523 $516 $670 forward $513 $-1 #
edge $-1 $671 74.960049320244266 $674 79.387267791759427 $669 $745 forward 7 unknown #
vertex $-1 $528 $746 #
straight-curve $-1 9.1957913577055628 -19.119876502012502 5.5114477018493346 1 0 0 I I #
edge $-1 $674 -11.138920205594092 $525 -4.8229923872427296 $524 $747 forward 7 unknown #
vertex $-1 $673 $748 #
straight-curve $-1 -41.609167086087311 -19.119876502012502 61.084979031832617 -0.85716729658548041 0 0.51503808176128008 I I #
point $-1 50.880719193641127 -19.119876502012502 5.5114477018493346 #
point $-1 58.248847926267288 -12.80394868366114 1.0842292303341736 #
straight-curve $-1 58.248847926267281 0 5.5114477018493337 0 1 0 I I #
vertex $-1 $531 $749 #
point $-1 54.47832912648569 -17.315325696769257 2.1831521286256401 #
vertex $-1 $535 $750 #
point $-1 54.47832912648569 -14.608499488904386 2.1831521286256401 #
edge $-1 $684 74.960049320244266 $687 79.387267791759427 $540 $751 forward 7 unknown #
vertex $-1 $554 $752 #
straight-curve $-1 9.1957913577055628 -8.414314422955858 5.5114477018493346 1 0 0 I I #
edge $-1 $687 -5.7861391660657695 $551 0.52978865228559258 $550 $753 forward 7 unknown #
vertex $-1 $686 $754 #
straight-curve $-1 -41.609167086087311 -8.414314422955858 61.084979031832617 -0.85716729658548041 0 0.51503808176128008 I I #
point $-1 50.880719193641127 -8.414314422955858 5.5114477018493346 #
point $-1 58.248847926267288 -2.0983866046044959 1.0842292303341736 #
straight-curve $-1 58.248847926267281 0 5.5114477018493337 0 1 0 I I #
vertex $-1 $557 $755 #
point $-1 54.47832912648569 -6.6097636177126127 2.1831521286256401 #
vertex $-1 $561 $756 #
point $-1 54.47832912648569 -3.9029374098477412 2.1831521286256401 #
edge $-1 $697 74.960049320244266 $700 79.387267791759427 $566 $757 forward 7 unknown #
vertex $-1 $580 $758 #
straight-curve $-1 9.1957913577055628 2.2912476561007864 5.5114477018493346 1 0 0 I I #
edge $-1 $700 -0.43335812653744732 $577 5.8825696918139148 $576 $759 forward 7 unknown #
vertex $-1 $699 $760 #
straight-curve $-1 -41.609167086087311 2.2912476561007864 61.084979031832617 -0.85716729658548041 0 0.51503808176128008 I I #
point $-1 50.880719193641127 2.2912476561007864 5.5114477018493346 #
point $-1 58.248847926267288 8.6071754744521485 1.0842292303341736 #
straight-curve $-1 58.248847926267281 0 5.5114477018493337 0 1 0 I I #
vertex $-1 $583 $761 #
point $-1 54.47832912648569 4.0957984613440317 2.1831521286256401 #
vertex $-1 $587 $762 #
point $-1 54.47832912648569 6.8026246692089032 2.1831521286256401 #
edge $-1 $710 74.960049320244266 $713 79.387267791759427 $592 $763 forward 7 unknown #
vertex $-1 $606 $764 #
straight-curve $-1 9.1957913577055628 12.996809735157431 5.5114477018493346 1 0 0 I I #
edge $-1 $713 4.9194229129908749 $603 11.235350731342237 $602 $765 forward 7 unknown #
vertex $-1 $712 $766 #
straight-curve $-1 -41.609167086087311 12.996809735157431 61.084979031832617 -0.85716729658548041 0 0.51503808176128008 I I #
point $-1 50.880719193641127 12.996809735157431 5.5114477018493346 #
point $-1 58.248847926267288 19.312737553508793 1.0842292303341736 #
straight-curve $-1 58.248847926267281 0 5.5114477018493337 0 1 0 I I #
vertex $-1 $609 $767 #
point $-1 54.47832912648569 14.80136054040068 2.1831521286256401 #
vertex $-1 $613 $768 #
point $-1 54.47832912648569 17.508186748265544 2.1831521286256401 #
straight-curve $-1 -58.248847926267281 25.053564203279151 0 0 0 -1 I I #
point $-1 -58.248847926267281 -25.053564203279151 -5.5114477018493337 #
straight-curve $-1 -58.248847926267281 0 -5.5114477018493337 0 1 0 I I #
point $-1 -58.248847926267281 25.053564203279151 -5.5114477018493337 #
edge $-1 $638 -1.5 $649 1.5 $635 $769 forward 7 unknown #
coedge $-1 $636 $645 $640 $730 reversed $472 $-1 #
straight-curve $-1 0 -28.696004248445014 5.5114477018493337 1 0 0 I I #
point $-1 -58.248847926267281 -28.696004248445014 5.5114477018493337 #
edge $-1 $641 -1.5 $647 1.5 $640 $770 forward 7 unknown #
point $-1 58.248847926267281 -28.696004248445014 5.5114477018493337 #
straight-curve $-1 0 -28.696004248445014 2.5114477018493337 -1 0 0 I I #
point $-1 58.248847926267281 -28.696004248445014 2.5114477018493337 #
point $-1 -58.248847926267281 -28.696004248445014 2.5114477018493337 #
coedge $-1 $653 $652 $664 $741 reversed $336 $-1 #
edge $-1 $659 -58.248847926267281 $742 58.248847926267281 $653 $771 forward 7 unknown #
straight-curve $-1 58.248847926267281 28.696004248445018 4.0114477018493337 0 0 -1 I I #
straight-curve $-1 0 28.696004248445018 2.5114477018493337 1 0 0 I I #
point $-1 58.248847926267281 28.696004248445018 2.5114477018493337 #
point $-1 58.248847926267281 28.696004248445018 5.5114477018493337 #
edge $-1 $742 -1.5 $667 1.5 $735 $772 forward 7 unknown #
vertex $-1 $736 $773 #
straight-curve $-1 -58.248847926267281 0 5.5114477018493337 0 -1 0 I I #
point $-1 -58.248847926267281 28.696004248445018 2.5114477018493337 #
straight-curve $-1 58.248847926267281 -19.119876502012502 80.471497022093601 0 0 -1 I I #
point $-1 58.248847926267281 -19.119876502012502 5.5114477018493337 #
straight-curve $-1 58.248847926267281 -7.9809562964184106 1.0842292303341807 0 1 0 I I #
point $-1 58.248847926267288 -19.119876502012502 1.0842292303341736 #
point $-1 53.792226437312308 -17.315325696769257 2.0120875212135401 #
point $-1 53.792226437312308 -14.608499488904386 2.0120875212135401 #
straight-curve $-1 58.248847926267281 -8.414314422955858 80.471497022093601 0 0 -1 I I #
point $-1 58.248847926267281 -8.414314422955858 5.5114477018493337 #
straight-curve $-1 58.248847926267281 -2.6281752568900885 1.0842292303341807 0 1 0 I I #
point $-1 58.248847926267288 -8.414314422955858 1.0842292303341736 #
point $-1 53.792226437312308 -6.6097636177126127 2.0120875212135401 #
point $-1 53.792226437312308 -3.9029374098477412 2.0120875212135401 #
straight-curve $-1 58.248847926267281 2.2912476561007864 80.471497022093601 0 0 -1 I I #
point $-1 58.248847926267281 2.2912476561007864 5.5114477018493337 #
straight-curve $-1 58.248847926267281 2.7246057826382337 1.0842292303341807 0 1 0 I I #
point $-1 58.248847926267288 2.2912476561007864 1.0842292303341736 #
point $-1 53.792226437312308 4.0957984613440317 2.0120875212135401 #
point $-1 53.792226437312308 6.8026246692089032 2.0120875212135401 #
straight-curve $-1 58.248847926267281 12.996809735157431 80.471497022093601 0 0 -1 I I #
point $-1 58.248847926267281 12.996809735157431 5.5114477018493337 #
straight-curve $-1 58.248847926267281 8.0773868221665559 1.0842292303341807 0 1 0 I I #
point $-1 58.248847926267288 12.996809735157431 1.0842292303341736 #
point $-1 53.792226437312308 14.80136054040068 2.0120875212135401 #
point $-1 53.792226437312308 17.508186748265544 2.0120875212135401 #
straight-curve $-1 -58.248847926267281 -28.696004248445014 4.0114477018493337 0 0 -1 I I #
straight-curve $-1 58.248847926267281 -28.696004248445014 4.0114477018493337 0 0 -1 I I #
straight-curve $-1 0 28.696004248445018 5.5114477018493337 -1 0 0 I I #
straight-curve $-1 -58.248847926267281 28.696004248445018 4.0114477018493337 0 0 -1 I I #
point $-1 -58.248847926267281 28.696004248445018 5.5114477018493337 #
End-of-ACIS-data 