500 0 13 0           
7 Unknown 11 ACIS 5.0 NT 24 Thu Mar 25 21:11:36 1999 
-1 9.9999999999999995e-007 1e-010 
body $-1 $13 $-1 $14 #
body $-1 $15 $-1 $16 #
body $-1 $17 $-1 $18 #
body $-1 $19 $-1 $20 #
body $-1 $21 $-1 $22 #
body $-1 $23 $-1 $24 #
body $-1 $25 $-1 $26 #
body $-1 $27 $-1 $28 #
body $-1 $29 $-1 $30 #
body $-1 $31 $-1 $32 #
body $-1 $33 $-1 $34 #
body $-1 $35 $-1 $36 #
body $-1 $37 $-1 $38 #
lump $-1 $-1 $39 $0 #
transform $-1 1 0 0 0 1 0 0 0 1 71.974852748191779 30.65811982367434 12.508104948966654 1 rotate no_reflect no_shear #
lump $-1 $-1 $40 $1 #
transform $-1 1 0 0 0 1 0 0 0 1 71.974852748191779 30.65811982367434 12.508104948966654 1 rotate no_reflect no_shear #
lump $-1 $-1 $41 $2 #
transform $-1 1 0 0 0 1 0 0 0 1 71.974852748191779 30.65811982367434 12.508104948966654 1 rotate no_reflect no_shear #
lump $-1 $-1 $42 $3 #
transform $-1 1 0 0 0 1 0 0 0 1 71.974852748191779 30.65811982367434 12.508104948966654 1 rotate no_reflect no_shear #
lump $-1 $-1 $43 $4 #
transform $-1 1 0 0 0 1 0 0 0 1 71.974852748191779 30.65811982367434 12.508104948966654 1 rotate no_reflect no_shear #
lump $-1 $-1 $44 $5 #
transform $-1 1 0 0 0 1 0 0 0 1 71.974852748191779 30.65811982367434 12.508104948966654 1 rotate no_reflect no_shear #
lump $-1 $-1 $45 $6 #
transform $-1 1 0 0 0 1 0 0 0 1 71.974852748191779 30.65811982367434 12.508104948966654 1 rotate no_reflect no_shear #
lump $-1 $-1 $46 $7 #
transform $-1 1 0 0 0 1 0 0 0 1 71.974852748191779 30.65811982367434 12.508104948966654 1 rotate no_reflect no_shear #
lump $-1 $-1 $47 $8 #
transform $-1 1 0 0 0 1 0 0 0 1 71.974852748191779 30.65811982367434 12.508104948966654 1 rotate no_reflect no_shear #
lump $-1 $-1 $48 $9 #
transform $-1 1 0 0 0 1 0 0 0 1 71.974852748191779 30.65811982367434 12.508104948966654 1 rotate no_reflect no_shear #
lump $-1 $-1 $49 $10 #
transform $-1 1 0 0 0 1 0 0 0 1 71.974852748191779 30.65811982367434 12.508104948966654 1 rotate no_reflect no_shear #
lump $-1 $-1 $50 $11 #
transform $-1 1 0 0 0 1 0 0 0 1 71.974852748191779 30.65811982367434 12.508104948966654 1 rotate no_reflect no_shear #
lump $-1 $-1 $51 $12 #
transform $-1 1 0 0 0 1 0 0 0 1 71.974852748191779 30.65811982367434 12.508104948966654 1 rotate no_reflect no_shear #
shell $-1 $-1 $-1 $52 $-1 $13 #
shell $-1 $-1 $-1 $53 $-1 $15 #
shell $-1 $-1 $-1 $54 $-1 $17 #
shell $-1 $-1 $-1 $55 $-1 $19 #
shell $-1 $-1 $-1 $56 $-1 $21 #
shell $-1 $-1 $-1 $57 $-1 $23 #
shell $-1 $-1 $-1 $58 $-1 $25 #
shell $-1 $-1 $-1 $59 $-1 $27 #
shell $-1 $-1 $-1 $60 $-1 $29 #
shell $-1 $-1 $-1 $61 $-1 $31 #
shell $-1 $-1 $-1 $62 $-1 $33 #
shell $-1 $-1 $-1 $63 $-1 $35 #
shell $-1 $-1 $-1 $64 $-1 $37 #
face $-1 $65 $66 $39 $-1 $67 forward single #
face $-1 $68 $69 $40 $-1 $70 forward single #
face $-1 $71 $72 $41 $-1 $73 forward single #
face $-1 $74 $75 $42 $-1 $76 reversed single #
face $-1 $77 $78 $43 $-1 $79 forward single #
face $-1 $80 $81 $44 $-1 $82 forward single #
face $-1 $83 $84 $45 $-1 $85 reversed single #
face $-1 $86 $87 $46 $-1 $88 forward single #
face $-1 $89 $90 $47 $-1 $91 forward single #
face $-1 $92 $93 $48 $-1 $94 reversed single #
face $-1 $95 $96 $49 $-1 $97 forward single #
face $-1 $98 $99 $50 $-1 $100 forward single #
face $-1 $101 $102 $51 $-1 $103 forward single #
face $-1 $104 $105 $39 $-1 $106 reversed single #
loop $-1 $-1 $107 $52 #
plane-surface $-1 0 0 12.508104948966654 0 0 1 1 0 0 forward_v I I I I #
face $-1 $108 $109 $40 $-1 $110 reversed single #
loop $-1 $-1 $111 $53 #
plane-surface $-1 0 -23.169426882848633 -1.6940683956608611 0 0 1 1 0 0 forward_v I I I I #
face $-1 $112 $113 $41 $-1 $114 reversed single #
loop $-1 $-1 $115 $54 #
plane-surface $-1 0 23.169426882848633 -1.6940683956608611 0 0 1 1 0 0 forward_v I I I I #
face $-1 $116 $117 $42 $-1 $118 reversed single #
loop $-1 $-1 $119 $55 #
plane-surface $-1 -178.95033270889991 5.3290705182007514e-015 97.81148190893262 0 -1 0 0.74314483375859142 0 -0.66913059716165679 forward_v I I I I #
face $-1 $120 $121 $43 $-1 $122 forward single #
loop $-1 $123 $124 $56 #
cone-surface $-1 -66.564799461578247 -4.8261444106765765 6.5941897236926588 0.74314483375859142 0 -0.66913059716165679 0.3345652985808284 0 0.37157241687929571 1 I I 0 1 0.5 forward I I I I #
face $-1 $125 $126 $44 $-1 $127 forward single #
loop $-1 $128 $129 $57 #
cone-surface $-1 -66.564799461578247 -1.9304577642706278 6.5941897236926588 0.74314483375859142 0 -0.66913059716165679 0.3345652985808284 0 0.37157241687929571 1 I I 0 1 0.5 forward I I I I #
face $-1 $130 $131 $45 $-1 $132 reversed single #
loop $-1 $-1 $133 $58 #
plane-surface $-1 -71.974852748191751 -3.3783010874736021 1.4903295088928559 -0.74314483375859142 0 0.66913059716165679 0.66913059716165679 0 0.74314483375859142 forward_v I I I I #
face $-1 $134 $135 $46 $-1 $136 forward single #
loop $-1 $137 $138 $59 #
cone-surface $-1 -66.564799461578247 1.930457764270642 6.5941897236926588 0.74314483375859142 0 -0.66913059716165679 0.3345652985808284 0 0.37157241687929571 1 I I 0 1 0.5 forward I I I I #
face $-1 $139 $140 $47 $-1 $141 forward single #
loop $-1 $142 $143 $60 #
cone-surface $-1 -66.564799461578247 4.8261444106765907 6.5941897236926588 0.74314483375859142 0 -0.66913059716165679 0.3345652985808284 0 0.37157241687929571 1 I I 0 1 0.5 forward I I I I #
face $-1 $144 $145 $48 $-1 $146 reversed single #
loop $-1 $-1 $147 $61 #
plane-surface $-1 117.76940737977276 6.0935507871994972 198.8605749936703 0 -1 0 -0.84804810408105047 0 -0.52991925155115449 forward_v I I I I #
face $-1 $148 $149 $49 $-1 $150 forward single #
loop $-1 $151 $152 $62 #
cone-surface $-1 67.448381483265024 0.6699269681886193 6.0207381189754923 -0.84804810408105047 0 -0.52991925155115449 0.26495962577557725 0 -0.42402405204052523 1 I I 0 1 0.5 forward I I I I #
face $-1 $153 $154 $50 $-1 $155 forward single #
loop $-1 $156 $157 $63 #
cone-surface $-1 67.448381483265024 2.7037859003176976 6.0207381189754923 -0.84804810408105047 0 -0.52991925155115449 0.26495962577557725 0 -0.42402405204052523 1 I I 0 1 0.5 forward I I I I #
face $-1 $158 $159 $51 $-1 $160 forward single #
loop $-1 $161 $162 $64 #
cone-surface $-1 67.448381483265024 4.7376448324467759 6.0207381189754923 -0.84804810408105047 0 -0.52991925155115449 0.26495962577557725 0 -0.42402405204052523 1 I I 0 1 0.5 forward I I I I #
face $-1 $163 $164 $39 $-1 $165 reversed single #
loop $-1 $-1 $166 $65 #
plane-surface $-1 0 0 -12.508104948966654 0 0 1 1 0 0 forward_v I I I I #
coedge $-1 $167 $168 $169 $170 forward $66 $-1 #
face $-1 $171 $172 $40 $-1 $173 reversed single #
loop $-1 $-1 $174 $68 #
plane-surface $-1 0 -23.169426882848633 -5.414167457816677 0 0 1 1 0 0 forward_v I I I I #
coedge $-1 $175 $176 $177 $178 reversed $69 $-1 #
face $-1 $179 $180 $41 $-1 $181 reversed single #
loop $-1 $-1 $182 $71 #
plane-surface $-1 0 23.169426882848633 -5.414167457816677 0 0 1 1 0 0 forward_v I I I I #
coedge $-1 $183 $184 $185 $186 reversed $72 $-1 #
face $-1 $187 $188 $42 $-1 $189 reversed single #
loop $-1 $-1 $190 $74 #
plane-surface $-1 -71.974852748191751 -3.3783010874736021 1.4903295088928559 -0.74314483375859142 0 0.66913059716165679 0.66913059716165679 0 0.74314483375859142 forward_v I I I I #
coedge $-1 $191 $192 $193 $194 reversed $75 $-1 #
face $-1 $-1 $195 $43 $-1 $196 forward single #
loop $-1 $197 $198 $77 #
cone-surface $-1 -65.929184625776685 -4.8261444106765765 6.0218795691651366 0.74314483375859142 0 -0.66913059716165679 0.1672826492904142 0 0.18578620843964785 1 I I -0.70710678118654746 0.70710678118654746 0.25 forward I I I I #
loop $-1 $-1 $199 $56 #
coedge $-1 $124 $124 $200 $201 reversed $78 $-1 #
face $-1 $-1 $202 $44 $-1 $203 forward single #
loop $-1 $204 $205 $80 #
cone-surface $-1 -65.929184625776685 -1.9304577642706278 6.0218795691651366 0.74314483375859142 0 -0.66913059716165679 0.1672826492904142 0 0.18578620843964785 1 I I -0.70710678118654746 0.70710678118654746 0.25 forward I I I I #
loop $-1 $-1 $206 $57 #
coedge $-1 $129 $129 $207 $208 reversed $81 $-1 #
face $-1 $209 $210 $45 $-1 $211 reversed single #
loop $-1 $-1 $212 $83 #
plane-surface $-1 -178.95033270889991 6.7566021749472238 97.81148190893262 0 -1 0 0.74314483375859142 0 -0.66913059716165679 forward_v I I I I #
coedge $-1 $213 $214 $215 $216 reversed $84 $-1 #
face $-1 $-1 $217 $46 $-1 $218 forward single #
loop $-1 $219 $220 $86 #
cone-surface $-1 -65.929184625776685 1.930457764270642 6.0218795691651366 0.74314483375859142 0 -0.66913059716165679 0.1672826492904142 0 0.18578620843964785 1 I I -0.70710678118654746 0.70710678118654746 0.25 forward I I I I #
loop $-1 $-1 $221 $59 #
coedge $-1 $138 $138 $222 $223 reversed $87 $-1 #
face $-1 $-1 $224 $47 $-1 $225 forward single #
loop $-1 $226 $227 $89 #
cone-surface $-1 -65.929184625776685 4.8261444106765907 6.0218795691651366 0.74314483375859142 0 -0.66913059716165679 0.1672826492904142 0 0.18578620843964785 1 I I -0.70710678118654746 0.70710678118654746 0.25 forward I I I I #
loop $-1 $-1 $228 $60 #
coedge $-1 $143 $143 $229 $230 reversed $90 $-1 #
face $-1 $231 $232 $48 $-1 $233 reversed single #
loop $-1 $-1 $234 $92 #
plane-surface $-1 -4.3068674494608814 2.7037859003176976 122.57885479601761 0.84804810408105047 0 0.52991925155115449 0.52991925155115449 0 -0.84804810408105047 forward_v I I I I #
coedge $-1 $235 $236 $237 $238 reversed $93 $-1 #
face $-1 $-1 $239 $49 $-1 $240 forward single #
loop $-1 $241 $242 $95 #
cone-surface $-1 66.460840374973316 0.6699269681886193 5.4036539671878856 -0.84804810408105047 0 -0.52991925155115449 0.13247981288778862 0 -0.21201202602026262 1 I I -0.70710678118654746 0.70710678118654746 0.25 forward I I I I #
loop $-1 $-1 $243 $62 #
coedge $-1 $152 $152 $244 $245 reversed $96 $-1 #
face $-1 $-1 $246 $50 $-1 $247 forward single #
loop $-1 $248 $249 $98 #
cone-surface $-1 66.460840374973316 2.7037859003176976 5.4036539671878856 -0.84804810408105047 0 -0.52991925155115449 0.13247981288778862 0 -0.21201202602026262 1 I I -0.70710678118654746 0.70710678118654746 0.25 forward I I I I #
loop $-1 $-1 $250 $63 #
coedge $-1 $157 $157 $251 $252 reversed $99 $-1 #
face $-1 $-1 $253 $51 $-1 $254 forward single #
loop $-1 $255 $256 $101 #
cone-surface $-1 66.460840374973316 4.7376448324467759 5.4036539671878856 -0.84804810408105047 0 -0.52991925155115449 0.13247981288778862 0 -0.21201202602026262 1 I I -0.70710678118654746 0.70710678118654746 0.25 forward I I I I #
loop $-1 $-1 $257 $64 #
coedge $-1 $162 $162 $258 $259 reversed $102 $-1 #
face $-1 $260 $261 $39 $-1 $262 reversed single #
loop $-1 $-1 $263 $104 #
plane-surface $-1 0 -30.65811982367434 0 0 1 0 0 0 1 forward_v I I I I #
coedge $-1 $264 $265 $266 $267 forward $105 $-1 #
coedge $-1 $268 $107 $269 $270 forward $66 $-1 #
coedge $-1 $107 $268 $271 $272 forward $66 $-1 #
coedge $-1 $273 $274 $107 $170 reversed $275 $-1 #
edge $-1 $276 -30.65811982367434 $277 30.65811982367434 $169 $278 forward 7 unknown #
face $-1 $279 $280 $40 $-1 $281 reversed single #
loop $-1 $-1 $282 $108 #
plane-surface $-1 0 -15.680733942022925 -3.554117926738769 0 -1 0 0 0 -1 forward_v I I I I #
coedge $-1 $283 $284 $285 $286 reversed $109 $-1 #
coedge $-1 $287 $111 $288 $289 forward $69 $-1 #
coedge $-1 $111 $287 $290 $291 reversed $69 $-1 #
coedge $-1 $292 $293 $111 $178 forward $294 $-1 #
edge $-1 $295 4.096020500598609 $296 19.073406382250024 $177 $297 forward 7 unknown #
face $-1 $298 $299 $41 $-1 $300 reversed single #
loop $-1 $-1 $301 $112 #
plane-surface $-1 0 15.680733942022925 -3.554117926738769 0 1 0 0 0 1 forward_v I I I I #
coedge $-1 $302 $303 $304 $305 reversed $113 $-1 #
coedge $-1 $306 $115 $307 $308 reversed $72 $-1 #
coedge $-1 $115 $306 $309 $310 forward $72 $-1 #
coedge $-1 $311 $312 $115 $186 forward $299 $-1 #
edge $-1 $313 -19.073406382250024 $314 -4.096020500598609 $185 $315 forward 7 unknown #
face $-1 $316 $317 $42 $-1 $318 reversed single #
loop $-1 $-1 $319 $116 #
plane-surface $-1 -178.95033270889991 -6.7566021749472096 97.81148190893262 0 1 0 -0.74314483375859142 0 0.66913059716165679 forward_v I I I I #
coedge $-1 $320 $321 $322 $323 reversed $117 $-1 #
coedge $-1 $192 $119 $324 $325 reversed $75 $-1 #
coedge $-1 $119 $191 $320 $326 reversed $75 $-1 #
coedge $-1 $322 $327 $119 $194 forward $317 $-1 #
edge $-1 $328 36.397636005499656 $329 47.415411445573483 $193 $330 forward 7 unknown #
loop $-1 $-1 $200 $120 #
plane-surface $-1 -71.974852748191751 -3.3783010874736021 1.4903295088928559 -0.74314483375859142 0 0.66913059716165679 0.66913059716165679 0 0.74314483375859142 forward_v I I I I #
loop $-1 $-1 $331 $77 #
coedge $-1 $198 $198 $199 $332 reversed $121 $-1 #
coedge $-1 $199 $199 $198 $332 forward $123 $-1 #
coedge $-1 $200 $200 $124 $201 forward $195 $-1 #
edge $-1 $333 0 $333 6.2831853071796004 $200 $334 forward 7 unknown #
loop $-1 $-1 $207 $125 #
plane-surface $-1 -71.974852748191751 -3.3783010874736021 1.4903295088928559 -0.74314483375859142 0 0.66913059716165679 0.66913059716165679 0 0.74314483375859142 forward_v I I I I #
loop $-1 $-1 $335 $80 #
coedge $-1 $205 $205 $206 $336 reversed $126 $-1 #
coedge $-1 $206 $206 $205 $336 forward $128 $-1 #
coedge $-1 $207 $207 $129 $208 forward $202 $-1 #
edge $-1 $337 0 $337 6.2831853071796004 $207 $338 forward 7 unknown #
face $-1 $339 $340 $45 $-1 $341 forward single #
loop $-1 $-1 $342 $130 #
plane-surface $-1 -71.974852748191779 0 0 1 0 0 0 0 -1 forward_v I I I I #
coedge $-1 $343 $344 $345 $346 reversed $131 $-1 #
coedge $-1 $347 $133 $348 $349 reversed $84 $-1 #
coedge $-1 $133 $347 $350 $351 reversed $84 $-1 #
coedge $-1 $352 $353 $133 $216 forward $340 $-1 #
edge $-1 $354 -4.2449440147509963e-014 $355 14.825879074405153 $215 $356 forward 7 unknown #
loop $-1 $-1 $222 $134 #
plane-surface $-1 -71.974852748191751 -3.3783010874736021 1.4903295088928559 -0.74314483375859142 0 0.66913059716165679 0.66913059716165679 0 0.74314483375859142 forward_v I I I I #
loop $-1 $-1 $357 $86 #
coedge $-1 $220 $220 $221 $358 reversed $135 $-1 #
coedge $-1 $221 $221 $220 $358 forward $137 $-1 #
coedge $-1 $222 $222 $138 $223 forward $217 $-1 #
edge $-1 $359 0 $359 6.2831853071796004 $222 $360 forward 7 unknown #
loop $-1 $-1 $229 $139 #
plane-surface $-1 -71.974852748191751 -3.3783010874736021 1.4903295088928559 -0.74314483375859142 0 0.66913059716165679 0.66913059716165679 0 0.74314483375859142 forward_v I I I I #
loop $-1 $-1 $361 $89 #
coedge $-1 $227 $227 $228 $362 reversed $140 $-1 #
coedge $-1 $228 $228 $227 $362 forward $142 $-1 #
coedge $-1 $229 $229 $143 $230 forward $224 $-1 #
edge $-1 $363 0 $363 6.2831853071796004 $229 $364 forward 7 unknown #
face $-1 $365 $366 $48 $-1 $367 forward single #
loop $-1 $-1 $368 $144 #
plane-surface $-1 117.76940737977276 -0.68597898656410194 198.8605749936703 0 1 0 0.84804810408105047 0 0.52991925155115449 forward_v I I I I #
coedge $-1 $369 $370 $371 $372 reversed $145 $-1 #
coedge $-1 $236 $147 $373 $374 reversed $93 $-1 #
coedge $-1 $147 $235 $369 $375 reversed $93 $-1 #
coedge $-1 $371 $376 $147 $238 forward $366 $-1 #
edge $-1 $377 -13.0901490583054 $378 -5.5882646929948265 $237 $379 forward 7 unknown #
loop $-1 $-1 $244 $148 #
plane-surface $-1 -4.3068674494608814 2.7037859003176976 122.57885479601761 0.84804810408105047 0 0.52991925155115449 0.52991925155115449 0 -0.84804810408105047 forward_v I I I I #
loop $-1 $-1 $380 $95 #
coedge $-1 $242 $242 $243 $381 reversed $149 $-1 #
coedge $-1 $243 $243 $242 $381 forward $151 $-1 #
coedge $-1 $244 $244 $152 $245 forward $239 $-1 #
edge $-1 $382 0 $382 6.2831853071796004 $244 $383 forward 7 unknown #
loop $-1 $-1 $251 $153 #
plane-surface $-1 -4.3068674494608814 2.7037859003176976 122.57885479601761 0.84804810408105047 0 0.52991925155115449 0.52991925155115449 0 -0.84804810408105047 forward_v I I I I #
loop $-1 $-1 $384 $98 #
coedge $-1 $249 $249 $250 $385 reversed $154 $-1 #
coedge $-1 $250 $250 $249 $385 forward $156 $-1 #
coedge $-1 $251 $251 $157 $252 forward $246 $-1 #
edge $-1 $386 0 $386 6.2831853071796004 $251 $387 forward 7 unknown #
loop $-1 $-1 $258 $158 #
plane-surface $-1 -4.3068674494608814 2.7037859003176976 122.57885479601761 0.84804810408105047 0 0.52991925155115449 0.52991925155115449 0 -0.84804810408105047 forward_v I I I I #
loop $-1 $-1 $388 $101 #
coedge $-1 $256 $256 $257 $389 reversed $159 $-1 #
coedge $-1 $257 $257 $256 $389 forward $161 $-1 #
coedge $-1 $258 $258 $162 $259 forward $253 $-1 #
edge $-1 $390 0 $390 6.2831853071796004 $258 $391 forward 7 unknown #
face $-1 $392 $393 $39 $-1 $394 reversed single #
loop $-1 $-1 $395 $163 #
plane-surface $-1 -71.974852748191779 0 0 1 0 0 0 0 -1 forward_v I I I I #
coedge $-1 $396 $271 $397 $398 forward $164 $-1 #
coedge $-1 $399 $166 $396 $400 forward $105 $-1 #
coedge $-1 $166 $399 $401 $402 forward $105 $-1 #
coedge $-1 $274 $273 $166 $267 reversed $275 $-1 #
edge $-1 $403 -30.65811982367434 $404 30.65811982367434 $266 $405 forward 7 unknown #
coedge $-1 $168 $167 $406 $407 forward $66 $-1 #
coedge $-1 $408 $409 $167 $270 reversed $393 $-1 #
edge $-1 $277 -71.974852748191779 $410 71.974852748191779 $269 $411 forward 7 unknown #
coedge $-1 $263 $412 $168 $272 reversed $164 $-1 #
edge $-1 $413 -71.974852748191779 $276 71.974852748191779 $271 $414 forward 7 unknown #
coedge $-1 $266 $169 $412 $415 forward $275 $-1 #
coedge $-1 $169 $266 $408 $416 reversed $275 $-1 #
loop $-1 $-1 $273 $392 #
vertex $-1 $170 $417 #
vertex $-1 $170 $418 #
straight-curve $-1 71.974852748191779 0 12.508104948966654 0 1 0 I I #
face $-1 $419 $420 $40 $-1 $421 reversed single #
loop $-1 $-1 $422 $171 #
plane-surface $-1 -71.974852748191779 0 0 1 0 0 0 0 -1 forward_v I I I I #
coedge $-1 $423 $288 $293 $424 reversed $172 $-1 #
coedge $-1 $425 $174 $426 $427 reversed $109 $-1 #
coedge $-1 $174 $425 $423 $428 forward $109 $-1 #
coedge $-1 $293 $292 $174 $286 forward $294 $-1 #
edge $-1 $429 -19.073406382250024 $430 -4.096020500598609 $285 $431 forward 7 unknown #
coedge $-1 $176 $175 $422 $432 reversed $69 $-1 #
coedge $-1 $282 $433 $175 $289 reversed $172 $-1 #
edge $-1 $295 -71.974852748191779 $434 71.974852748191779 $288 $435 forward 7 unknown #
coedge $-1 $436 $437 $176 $291 forward $420 $-1 #
edge $-1 $296 -71.974852748191779 $438 71.974852748191779 $290 $439 forward 7 unknown #
coedge $-1 $285 $177 $437 $440 forward $294 $-1 #
coedge $-1 $177 $285 $282 $424 forward $294 $-1 #
loop $-1 $-1 $177 $419 #
vertex $-1 $178 $441 #
vertex $-1 $440 $442 #
straight-curve $-1 71.974852748191779 -11.584713441424316 -1.6940683956608611 0 -1 0 I I #
face $-1 $443 $444 $41 $-1 $445 reversed single #
loop $-1 $-1 $185 $179 #
plane-surface $-1 71.974852748191779 0 0 -1 0 0 0 0 1 forward_v I I I I #
coedge $-1 $446 $309 $447 $448 reversed $180 $-1 #
coedge $-1 $449 $182 $446 $450 forward $113 $-1 #
coedge $-1 $182 $449 $451 $452 reversed $113 $-1 #
coedge $-1 $312 $311 $182 $305 forward $299 $-1 #
edge $-1 $453 4.096020500598609 $454 19.073406382250024 $304 $455 forward 7 unknown #
coedge $-1 $184 $183 $456 $457 reversed $72 $-1 #
coedge $-1 $458 $459 $183 $308 forward $460 $-1 #
edge $-1 $461 -71.974852748191779 $313 71.974852748191779 $307 $462 forward 7 unknown #
coedge $-1 $301 $463 $184 $310 reversed $180 $-1 #
edge $-1 $464 -71.974852748191779 $314 71.974852748191779 $309 $465 forward 7 unknown #
coedge $-1 $304 $185 $463 $466 forward $299 $-1 #
coedge $-1 $185 $304 $458 $467 reversed $299 $-1 #
vertex $-1 $467 $468 #
vertex $-1 $186 $469 #
straight-curve $-1 71.974852748191779 11.584713441424316 -1.6940683956608611 0 -1 0 I I #
face $-1 $-1 $470 $42 $-1 $471 forward single #
loop $-1 $-1 $193 $187 #
plane-surface $-1 -71.974852748191779 0 0 1 0 0 0 0 -1 forward_v I I I I #
coedge $-1 $472 $473 $474 $475 reversed $188 $-1 #
coedge $-1 $476 $190 $192 $326 forward $117 $-1 #
coedge $-1 $190 $476 $472 $477 forward $117 $-1 #
coedge $-1 $474 $193 $190 $323 forward $317 $-1 #
edge $-1 $329 -1.6891505437368064 $478 5.0674516312104085 $322 $479 forward 7 unknown #
coedge $-1 $480 $481 $191 $325 forward $470 $-1 #
edge $-1 $482 -27.420762924761434 $328 -17.500313606258175 $324 $483 forward 7 unknown #
edge $-1 $329 -4.2449440147509963e-014 $482 14.825879074405153 $192 $484 forward 7 unknown #
coedge $-1 $193 $474 $480 $485 reversed $317 $-1 #
vertex $-1 $485 $486 #
vertex $-1 $194 $487 #
straight-curve $-1 -71.974852748191779 5.3290705182007514e-015 48.90574095446631 0 0 -1 I I #
coedge $-1 $331 $331 $-1 $488 reversed $197 $-1 #
edge $-1 $489 0 $489 6.2831853071796004 $198 $490 forward 7 unknown #
vertex $-1 $201 $491 #
ellipse-curve $-1 -67.014628088940142 -4.8261444106765765 6.999217228929747 -0.74314483375859142 0 0.66913059716165679 0.3345652985808284 0 0.37157241687929571 1 I I #
coedge $-1 $335 $335 $-1 $492 reversed $204 $-1 #
edge $-1 $493 0 $493 6.2831853071796004 $205 $494 forward 7 unknown #
vertex $-1 $208 $495 #
ellipse-curve $-1 -67.014628088940142 -1.9304577642706278 6.999217228929747 -0.74314483375859142 0 0.66913059716165679 0.3345652985808284 0 0.37157241687929571 1 I I #
face $-1 $-1 $496 $45 $-1 $497 forward single #
loop $-1 $-1 $353 $209 #
plane-surface $-1 -178.95033270889991 5.3290705182007514e-015 97.81148190893262 0 -1 0 0.74314483375859142 0 -0.66913059716165679 forward_v I I I I #
coedge $-1 $348 $498 $344 $499 forward $210 $-1 #
coedge $-1 $344 $212 $347 $500 reversed $131 $-1 #
coedge $-1 $212 $343 $342 $499 reversed $131 $-1 #
coedge $-1 $501 $350 $212 $346 forward $496 $-1 #
edge $-1 $502 -27.420762924761434 $503 -17.500313606258175 $345 $504 forward 7 unknown #
coedge $-1 $214 $213 $343 $500 forward $84 $-1 #
coedge $-1 $505 $342 $213 $349 forward $210 $-1 #
edge $-1 $506 -8.4457527186840249 $354 -1.6891505437368064 $348 $507 forward 7 unknown #
coedge $-1 $345 $508 $214 $351 forward $496 $-1 #
edge $-1 $355 1.6891505437368064 $502 8.4457527186840249 $350 $509 forward 7 unknown #
coedge $-1 $353 $215 $508 $510 reversed $340 $-1 #
coedge $-1 $215 $352 $505 $511 reversed $340 $-1 #
vertex $-1 $349 $512 #
vertex $-1 $351 $513 #
straight-curve $-1 -71.974852748191751 5.3290705182007514e-015 1.4903295088928559 0.66913059716165679 0 0.74314483375859142 I I #
coedge $-1 $357 $357 $-1 $514 reversed $219 $-1 #
edge $-1 $515 0 $515 6.2831853071796004 $220 $516 forward 7 unknown #
vertex $-1 $223 $517 #
ellipse-curve $-1 -67.014628088940142 1.930457764270642 6.999217228929747 -0.74314483375859142 0 0.66913059716165679 0.3345652985808284 0 0.37157241687929571 1 I I #
coedge $-1 $361 $361 $-1 $518 reversed $226 $-1 #
edge $-1 $519 0 $519 6.2831853071796004 $227 $520 forward 7 unknown #
vertex $-1 $230 $521 #
ellipse-curve $-1 -67.014628088940142 4.8261444106765907 6.999217228929747 -0.74314483375859142 0 0.66913059716165679 0.3345652985808284 0 0.37157241687929571 1 I I #
face $-1 $-1 $522 $48 $-1 $523 reversed single #
loop $-1 $-1 $237 $231 #
plane-surface $-1 0 0 12.508104948966654 0 0 1 1 0 0 forward_v I I I I #
coedge $-1 $524 $525 $526 $527 reversed $232 $-1 #
coedge $-1 $528 $234 $236 $375 forward $145 $-1 #
coedge $-1 $234 $528 $524 $529 forward $145 $-1 #
coedge $-1 $526 $237 $234 $372 forward $366 $-1 #
edge $-1 $378 -4.7416578370406484 $530 2.0378719367229507 $371 $531 forward 7 unknown #
coedge $-1 $532 $533 $235 $374 forward $522 $-1 #
edge $-1 $534 -98.927707530051137 $377 -86.922182547868488 $373 $535 forward 7 unknown #
edge $-1 $378 129.79304984865715 $534 143.9497054963835 $236 $536 forward 7 unknown #
coedge $-1 $237 $526 $532 $537 forward $366 $-1 #
vertex $-1 $238 $538 #
vertex $-1 $238 $539 #
straight-curve $-1 58.884703689886379 6.0935507871994972 12.508104948966661 -1 0 0 I I #
coedge $-1 $380 $380 $-1 $540 reversed $241 $-1 #
edge $-1 $541 0 $541 6.2831853071796004 $242 $542 forward 7 unknown #
vertex $-1 $245 $543 #
ellipse-curve $-1 68.223910565536499 0.6699269681886193 6.5053424578753232 0.84804810408105047 0 0.52991925155115449 0.26495962577557725 0 -0.42402405204052523 1 I I #
coedge $-1 $384 $384 $-1 $544 reversed $248 $-1 #
edge $-1 $545 0 $545 6.2831853071796004 $249 $546 forward 7 unknown #
vertex $-1 $252 $547 #
ellipse-curve $-1 68.223910565536499 2.7037859003176976 6.5053424578753232 0.84804810408105047 0 0.52991925155115449 0.26495962577557725 0 -0.42402405204052523 1 I I #
coedge $-1 $388 $388 $-1 $548 reversed $255 $-1 #
edge $-1 $549 0 $549 6.2831853071796004 $256 $550 forward 7 unknown #
vertex $-1 $259 $551 #
ellipse-curve $-1 68.223910565536499 4.7376448324467759 6.5053424578753232 0.84804810408105047 0 0.52991925155115449 0.26495962577557725 0 -0.42402405204052523 1 I I #
face $-1 $-1 $275 $39 $-1 $552 reversed single #
loop $-1 $-1 $408 $260 #
plane-surface $-1 0 30.65811982367434 0 0 -1 0 0 0 -1 forward_v I I I I #
coedge $-1 $553 $406 $409 $554 forward $261 $-1 #
coedge $-1 $412 $263 $264 $400 reversed $164 $-1 #
coedge $-1 $406 $553 $263 $398 reversed $261 $-1 #
edge $-1 $413 -12.508104948966654 $555 12.508104948966654 $397 $556 forward 7 unknown #
coedge $-1 $265 $264 $553 $557 forward $105 $-1 #
edge $-1 $404 -71.974852748191779 $555 71.974852748191779 $396 $558 forward 7 unknown #
coedge $-1 $409 $408 $265 $402 reversed $393 $-1 #
edge $-1 $559 -71.974852748191779 $403 71.974852748191779 $401 $560 forward 7 unknown #
vertex $-1 $267 $561 #
vertex $-1 $415 $562 #
straight-curve $-1 71.974852748191779 0 -12.508104948966654 0 -1 0 I I #
coedge $-1 $395 $397 $268 $407 reversed $261 $-1 #
edge $-1 $410 -30.65811982367434 $413 30.65811982367434 $406 $563 forward 7 unknown #
coedge $-1 $401 $269 $274 $416 forward $393 $-1 #
coedge $-1 $269 $401 $395 $554 reversed $393 $-1 #
vertex $-1 $270 $564 #
straight-curve $-1 0 30.65811982367434 12.508104948966654 -1 0 0 I I #
coedge $-1 $271 $396 $273 $415 reversed $164 $-1 #
vertex $-1 $407 $565 #
straight-curve $-1 0 -30.65811982367434 12.508104948966654 1 0 0 I I #
edge $-1 $276 -12.508104948966654 $404 12.508104948966654 $273 $566 forward 7 unknown #
edge $-1 $277 -12.508104948966654 $403 12.508104948966654 $274 $567 forward 7 unknown #
point $-1 71.974852748191779 -30.65811982367434 12.508104948966654 #
point $-1 71.974852748191779 30.65811982367434 12.508104948966654 #
face $-1 $-1 $294 $40 $-1 $568 reversed single #
loop $-1 $-1 $290 $279 #
plane-surface $-1 0 -30.65811982367434 0 0 1 0 0 0 1 forward_v I I I I #
coedge $-1 $569 $570 $287 $432 forward $280 $-1 #
coedge $-1 $433 $282 $284 $428 reversed $172 $-1 #
edge $-1 $430 -3.6371084944472925 $295 0.082990567708523422 $293 $571 forward 7 unknown #
coedge $-1 $284 $283 $572 $573 reversed $109 $-1 #
coedge $-1 $437 $436 $283 $427 forward $420 $-1 #
edge $-1 $574 -71.974852748191779 $429 71.974852748191779 $426 $575 forward 7 unknown #
edge $-1 $576 -71.974852748191779 $430 71.974852748191779 $423 $577 forward 7 unknown #
vertex $-1 $427 $578 #
vertex $-1 $286 $579 #
straight-curve $-1 71.974852748191779 -11.584713441424316 -5.414167457816677 0 1 0 I I #
edge $-1 $438 -19.073406382250024 $434 -4.096020500598609 $422 $580 forward 7 unknown #
coedge $-1 $288 $423 $569 $581 reversed $172 $-1 #
vertex $-1 $432 $582 #
straight-curve $-1 0 -15.680733942022925 -1.6940683956608611 -1 0 0 I I #
coedge $-1 $426 $290 $570 $583 forward $420 $-1 #
coedge $-1 $290 $426 $292 $440 reversed $420 $-1 #
vertex $-1 $583 $584 #
straight-curve $-1 0 -30.65811982367434 -1.6940683956608611 -1 0 0 I I #
edge $-1 $296 1.6940683956608611 $429 5.414167457816677 $292 $585 forward 7 unknown #
point $-1 71.974852748191779 -15.680733942022925 -1.6940683956608611 #
point $-1 71.974852748191779 -30.65811982367434 -1.6940683956608611 #
face $-1 $-1 $460 $41 $-1 $586 reversed single #
loop $-1 $-1 $456 $298 #
plane-surface $-1 -71.974852748191779 0 0 1 0 0 0 0 -1 forward_v I I I I #
coedge $-1 $463 $301 $302 $450 reversed $180 $-1 #
coedge $-1 $456 $587 $301 $448 forward $444 $-1 #
edge $-1 $588 -3.6371084944472925 $464 0.082990567708523422 $447 $589 forward 7 unknown #
coedge $-1 $303 $302 $587 $590 reversed $113 $-1 #
edge $-1 $453 -71.974852748191779 $588 71.974852748191779 $446 $591 forward 7 unknown #
coedge $-1 $459 $458 $303 $452 forward $460 $-1 #
edge $-1 $454 -71.974852748191779 $592 71.974852748191779 $451 $593 forward 7 unknown #
vertex $-1 $305 $594 #
vertex $-1 $452 $595 #
straight-curve $-1 71.974852748191779 11.584713441424316 -5.414167457816677 0 1 0 I I #
coedge $-1 $596 $447 $306 $457 forward $444 $-1 #
edge $-1 $464 4.096020500598609 $461 19.073406382250024 $456 $597 forward 7 unknown #
coedge $-1 $451 $307 $312 $467 forward $460 $-1 #
coedge $-1 $307 $451 $596 $598 reversed $460 $-1 #
loop $-1 $-1 $307 $443 #
vertex $-1 $598 $599 #
straight-curve $-1 0 30.65811982367434 -1.6940683956608611 1 0 0 I I #
coedge $-1 $309 $446 $311 $466 reversed $180 $-1 #
vertex $-1 $457 $600 #
straight-curve $-1 0 15.680733942022925 -1.6940683956608611 1 0 0 I I #
edge $-1 $314 -0.082990567708523422 $453 3.6371084944472925 $311 $601 forward 7 unknown #
edge $-1 $313 1.6940683956608611 $454 5.414167457816677 $312 $602 forward 7 unknown #
point $-1 71.974852748191779 30.65811982367434 -1.6940683956608611 #
point $-1 71.974852748191779 15.680733942022925 -1.6940683956608611 #
loop $-1 $-1 $324 $316 #
plane-surface $-1 0 0 12.508104948966654 0 0 1 1 0 0 forward_v I I I I #
coedge $-1 $473 $319 $321 $477 reversed $188 $-1 #
coedge $-1 $319 $472 $603 $604 reversed $188 $-1 #
coedge $-1 $327 $322 $319 $475 forward $317 $-1 #
edge $-1 $478 -47.415411445573483 $605 -36.397636005499656 $474 $606 forward 7 unknown #
coedge $-1 $321 $320 $481 $607 reversed $117 $-1 #
edge $-1 $608 -14.825879074405153 $478 4.2449440147509963e-014 $472 $609 forward 7 unknown #
vertex $-1 $323 $610 #
straight-curve $-1 -71.974852748191779 -1.6891505437368011 1.4903295088928263 0 -1 0 I I #
coedge $-1 $603 $324 $327 $485 forward $470 $-1 #
coedge $-1 $324 $603 $476 $607 forward $470 $-1 #
vertex $-1 $325 $611 #
straight-curve $-1 -89.475166354449954 5.3290705182007514e-015 12.508104948966654 -1 0 0 I I #
straight-curve $-1 -71.974852748191751 5.3290705182007514e-015 1.4903295088928559 0.66913059716165679 0 0.74314483375859142 I I #
edge $-1 $328 -5.3290705182007514e-015 $605 6.7566021749472096 $327 $612 forward 7 unknown #
point $-1 -71.974852748191779 5.3290705182007514e-015 12.508104948966654 #
point $-1 -71.974852748191779 5.3290705182007514e-015 1.4903295088928243 #
edge $-1 $613 1 $613 0 $331 $-1 forward 7 unknown #
vertex $-1 $332 $614 #
ellipse-curve $-1 -66.114970834216336 -4.8261444106765765 6.189162218455551 -0.74314483375859142 0 0.66913059716165679 0.3345652985808284 0 0.37157241687929571 1 I I #
point $-1 -66.680062790359344 -4.8261444106765765 7.3707896458090616 #
edge $-1 $615 1 $615 0 $335 $-1 forward 7 unknown #
vertex $-1 $336 $616 #
ellipse-curve $-1 -66.114970834216336 -1.9304577642706278 6.189162218455551 -0.74314483375859142 0 0.66913059716165679 0.3345652985808284 0 0.37157241687929571 1 I I #
point $-1 -66.680062790359344 -1.9304577642706278 7.3707896458090616 #
loop $-1 $-1 $345 $339 #
plane-surface $-1 0 0 12.508104948966654 0 0 1 1 0 0 forward_v I I I I #
coedge $-1 $342 $505 $501 $617 reversed $210 $-1 #
edge $-1 $503 36.397636005499656 $506 47.415411445573483 $342 $618 forward 7 unknown #
edge $-1 $506 -4.2449440147509963e-014 $502 14.825879074405153 $343 $619 forward 7 unknown #
coedge $-1 $508 $345 $498 $617 forward $496 $-1 #
vertex $-1 $346 $620 #
vertex $-1 $617 $621 #
straight-curve $-1 -89.475166354449954 6.7566021749472238 12.508104948966654 -1 0 0 I I #
coedge $-1 $498 $348 $353 $511 forward $210 $-1 #
vertex $-1 $499 $622 #
straight-curve $-1 -71.974852748191779 -1.6891505437368011 1.4903295088928263 0 -1 0 I I #
coedge $-1 $350 $501 $352 $510 forward $496 $-1 #
straight-curve $-1 -62.054403429688513 -1.6891505437368011 12.508104948966652 0 1 0 I I #
edge $-1 $623 17.500313606258175 $355 27.420762924761434 $508 $624 forward 7 unknown #
edge $-1 $354 -47.415411445573483 $623 -36.397636005499656 $505 $625 forward 7 unknown #
point $-1 -71.974852748191779 5.3290705182007514e-015 1.4903295088928243 #
point $-1 -62.05440342968852 5.3290705182007514e-015 12.508104948966654 #
edge $-1 $626 1 $626 0 $357 $-1 forward 7 unknown #
vertex $-1 $358 $627 #
ellipse-curve $-1 -66.114970834216336 1.930457764270642 6.189162218455551 -0.74314483375859142 0 0.66913059716165679 0.3345652985808284 0 0.37157241687929571 1 I I #
point $-1 -66.680062790359344 1.930457764270642 7.3707896458090616 #
edge $-1 $628 1 $628 0 $361 $-1 forward 7 unknown #
vertex $-1 $362 $629 #
ellipse-curve $-1 -66.114970834216336 4.8261444106765907 6.189162218455551 -0.74314483375859142 0 0.66913059716165679 0.3345652985808284 0 0.37157241687929571 1 I I #
point $-1 -66.680062790359344 4.8261444106765907 7.3707896458090616 #
loop $-1 $-1 $373 $365 #
plane-surface $-1 71.974852748191779 0 0 -1 0 0 0 0 1 forward_v I I I I #
coedge $-1 $525 $368 $370 $529 reversed $232 $-1 #
coedge $-1 $368 $524 $630 $631 reversed $232 $-1 #
coedge $-1 $376 $371 $368 $527 forward $366 $-1 #
edge $-1 $530 5.5882646929948265 $632 13.0901490583054 $526 $633 forward 7 unknown #
coedge $-1 $370 $369 $533 $634 reversed $145 $-1 #
edge $-1 $635 -143.9497054963835 $530 -129.79304984865715 $524 $636 forward 7 unknown #
vertex $-1 $372 $637 #
straight-curve $-1 64.472968382881177 1.3518929501588488 12.508104948966661 0 -1 0 I I #
coedge $-1 $630 $373 $376 $537 reversed $522 $-1 #
coedge $-1 $373 $630 $528 $634 forward $522 $-1 #
vertex $-1 $374 $638 #
straight-curve $-1 71.974852748191779 6.0935507871994972 99.430287496835149 0 0 1 I I #
straight-curve $-1 -4.3068674494608814 6.0935507871994972 122.57885479601761 0.52991925155115449 0 -0.84804810408105047 I I #
edge $-1 $632 -0.68597898656410194 $377 6.0935507871994972 $532 $639 forward 7 unknown #
point $-1 71.974852748191779 6.0935507871994972 12.508104948966654 #
point $-1 64.472968382881206 6.0935507871994972 12.508104948966647 #
edge $-1 $640 1 $640 0 $380 $-1 forward 7 unknown #
vertex $-1 $381 $641 #
ellipse-curve $-1 66.672852400993577 0.6699269681886193 5.5361337800756738 0.84804810408105047 0 0.52991925155115449 0.26495962577557725 0 -0.42402405204052523 1 I I #
point $-1 68.48887019131206 0.6699269681886193 6.0813184058347849 #
edge $-1 $642 1 $642 0 $384 $-1 forward 7 unknown #
vertex $-1 $385 $643 #
ellipse-curve $-1 66.672852400993577 2.7037859003176976 5.5361337800756738 0.84804810408105047 0 0.52991925155115449 0.26495962577557725 0 -0.42402405204052523 1 I I #
point $-1 68.48887019131206 2.7037859003176976 6.0813184058347849 #
edge $-1 $644 1 $644 0 $388 $-1 forward 7 unknown #
vertex $-1 $389 $645 #
ellipse-curve $-1 66.672852400993577 4.7376448324467759 5.5361337800756738 0.84804810408105047 0 0.52991925155115449 0.26495962577557725 0 -0.42402405204052523 1 I I #
point $-1 68.48887019131206 4.7376448324467759 6.0813184058347849 #
plane-surface $-1 71.974852748191779 0 0 -1 0 0 0 0 1 forward_v I I I I #
coedge $-1 $397 $395 $399 $557 reversed $261 $-1 #
edge $-1 $410 -12.508104948966654 $559 12.508104948966654 $409 $646 forward 7 unknown #
vertex $-1 $557 $647 #
straight-curve $-1 -71.974852748191779 -30.65811982367434 0 0 0 -1 I I #
edge $-1 $555 -30.65811982367434 $559 30.65811982367434 $553 $648 forward 7 unknown #
straight-curve $-1 0 -30.65811982367434 -12.508104948966654 -1 0 0 I I #
vertex $-1 $402 $649 #
straight-curve $-1 0 30.65811982367434 -12.508104948966654 1 0 0 I I #
point $-1 71.974852748191779 30.65811982367434 -12.508104948966654 #
point $-1 71.974852748191779 -30.65811982367434 -12.508104948966654 #
straight-curve $-1 -71.974852748191779 0 12.508104948966654 0 -1 0 I I #
point $-1 -71.974852748191779 30.65811982367434 12.508104948966654 #
point $-1 -71.974852748191779 -30.65811982367434 12.508104948966654 #
straight-curve $-1 71.974852748191779 -30.65811982367434 0 0 0 -1 I I #
straight-curve $-1 71.974852748191779 30.65811982367434 0 0 0 -1 I I #
plane-surface $-1 71.974852748191779 0 0 -1 0 0 0 0 1 forward_v I I I I #
coedge $-1 $572 $422 $433 $581 forward $280 $-1 #
coedge $-1 $422 $572 $436 $583 reversed $280 $-1 #
straight-curve $-1 71.974852748191779 -15.680733942022925 -1.7770589633693845 0 0 1 I I #
coedge $-1 $570 $569 $425 $573 forward $280 $-1 #
edge $-1 $576 4.096020500598609 $574 19.073406382250024 $572 $650 forward 7 unknown #
vertex $-1 $427 $651 #
straight-curve $-1 0 -30.65811982367434 -5.414167457816677 1 0 0 I I #
vertex $-1 $573 $652 #
straight-curve $-1 0 -15.680733942022925 -5.414167457816677 1 0 0 I I #
point $-1 71.974852748191779 -30.65811982367434 -5.414167457816677 #
point $-1 71.974852748191779 -15.680733942022925 -5.414167457816677 #
straight-curve $-1 -71.974852748191779 -11.584713441424316 -1.6940683956608611 0 1 0 I I #
edge $-1 $434 -0.082990567708523422 $576 3.6371084944472925 $569 $653 forward 7 unknown #
point $-1 -71.974852748191779 -15.680733942022925 -1.6940683956608611 #
edge $-1 $438 1.6940683956608611 $574 5.414167457816677 $570 $654 forward 7 unknown #
point $-1 -71.974852748191779 -30.65811982367434 -1.6940683956608611 #
straight-curve $-1 71.974852748191779 -30.65811982367434 0 0 0 -1 I I #
plane-surface $-1 0 30.65811982367434 0 0 -1 0 0 0 -1 forward_v I I I I #
coedge $-1 $447 $596 $449 $590 forward $444 $-1 #
vertex $-1 $590 $655 #
straight-curve $-1 -71.974852748191779 15.680733942022925 -1.7770589633693845 0 0 1 I I #
edge $-1 $592 -19.073406382250024 $588 -4.096020500598609 $587 $656 forward 7 unknown #
straight-curve $-1 0 15.680733942022925 -5.414167457816677 -1 0 0 I I #
vertex $-1 $452 $657 #
straight-curve $-1 0 30.65811982367434 -5.414167457816677 -1 0 0 I I #
point $-1 71.974852748191779 15.680733942022925 -5.414167457816677 #
point $-1 71.974852748191779 30.65811982367434 -5.414167457816677 #
coedge $-1 $587 $456 $459 $598 forward $444 $-1 #
straight-curve $-1 -71.974852748191779 11.584713441424316 -1.6940683956608611 0 1 0 I I #
edge $-1 $461 1.6940683956608611 $592 5.414167457816677 $459 $658 forward 7 unknown #
point $-1 -71.974852748191779 30.65811982367434 -1.6940683956608611 #
point $-1 -71.974852748191779 15.680733942022925 -1.6940683956608611 #
straight-curve $-1 71.974852748191779 15.680733942022925 -1.7770589633693845 0 0 -1 I I #
straight-curve $-1 71.974852748191779 30.65811982367434 0 0 0 -1 I I #
coedge $-1 $481 $480 $473 $604 forward $470 $-1 #
edge $-1 $605 17.500313606258175 $608 27.420762924761434 $603 $659 forward 7 unknown #
vertex $-1 $604 $660 #
straight-curve $-1 -71.974852748191779 -6.7566021749472096 48.90574095446631 0 0 1 I I #
edge $-1 $608 -5.0674516312104085 $482 1.6891505437368064 $481 $661 forward 7 unknown #
vertex $-1 $607 $662 #
straight-curve $-1 -71.974852748191751 -6.7566021749472096 1.4903295088928559 -0.66913059716165679 0 -0.74314483375859142 I I #
point $-1 -71.974852748191779 -6.7566021749472096 1.4903295088928243 #
point $-1 -62.05440342968852 5.3290705182007514e-015 12.508104948966654 #
straight-curve $-1 -71.974852748191779 0 12.508104948966654 0 -1 0 I I #
vertex $-1 $488 $663 #
point $-1 -65.780405535635509 -4.8261444106765765 6.5607346353348461 #
vertex $-1 $492 $664 #
point $-1 -65.780405535635509 -1.9304577642706278 6.5607346353348461 #
edge $-1 $503 -6.7566021749472238 $623 -5.3290705182007514e-015 $498 $665 forward 7 unknown #
straight-curve $-1 -71.974852748191779 6.7566021749472238 48.90574095446631 0 0 -1 I I #
straight-curve $-1 -71.974852748191751 6.7566021749472238 1.4903295088928559 0.66913059716165679 0 0.74314483375859142 I I #
point $-1 -62.05440342968852 6.7566021749472238 12.508104948966654 #
point $-1 -71.974852748191779 6.7566021749472238 12.508104948966654 #
point $-1 -71.974852748191779 6.7566021749472238 1.4903295088928243 #
vertex $-1 $510 $666 #
straight-curve $-1 -89.475166354449954 5.3290705182007514e-015 12.508104948966654 1 0 0 I I #
straight-curve $-1 -71.974852748191779 5.3290705182007514e-015 48.90574095446631 0 0 1 I I #
vertex $-1 $514 $667 #
point $-1 -65.780405535635509 1.930457764270642 6.5607346353348461 #
vertex $-1 $518 $668 #
point $-1 -65.780405535635509 4.8261444106765907 6.5607346353348461 #
coedge $-1 $533 $532 $525 $631 forward $522 $-1 #
edge $-1 $632 86.922182547868488 $635 98.927707530051137 $630 $669 forward 7 unknown #
vertex $-1 $537 $670 #
straight-curve $-1 58.884703689886379 -0.68597898656410194 12.508104948966661 1 0 0 I I #
edge $-1 $635 -2.0378719367229507 $534 4.7416578370406484 $533 $671 forward 7 unknown #
vertex $-1 $634 $672 #
straight-curve $-1 -4.3068674494608814 -0.68597898656410194 122.57885479601761 -0.52991925155115449 0 0.84804810408105047 I I #
point $-1 64.472968382881206 -0.68597898656410194 12.508104948966647 #
point $-1 71.974852748191779 6.0935507871994972 0.50257996678401184 #
straight-curve $-1 71.974852748191779 0 12.508104948966654 0 1 0 I I #
vertex $-1 $540 $673 #
point $-1 66.937812026769151 0.6699269681886193 5.1121097280351488 #
vertex $-1 $544 $674 #
point $-1 66.937812026769151 2.7037859003176976 5.1121097280351488 #
vertex $-1 $548 $675 #
point $-1 66.937812026769151 4.7376448324467759 5.1121097280351488 #
straight-curve $-1 -71.974852748191779 30.65811982367434 0 0 0 -1 I I #
point $-1 -71.974852748191779 -30.65811982367434 -12.508104948966654 #
straight-curve $-1 -71.974852748191779 0 -12.508104948966654 0 1 0 I I #
point $-1 -71.974852748191779 30.65811982367434 -12.508104948966654 #
straight-curve $-1 -71.974852748191779 -11.584713441424316 -5.414167457816677 0 -1 0 I I #
point $-1 -71.974852748191779 -30.65811982367434 -5.414167457816677 #
point $-1 -71.974852748191779 -15.680733942022925 -5.414167457816677 #
straight-curve $-1 -71.974852748191779 -15.680733942022925 -1.7770589633693845 0 0 -1 I I #
straight-curve $-1 -71.974852748191779 -30.65811982367434 0 0 0 -1 I I #
point $-1 -71.974852748191779 15.680733942022925 -5.414167457816677 #
straight-curve $-1 -71.974852748191779 11.584713441424316 -5.414167457816677 0 -1 0 I I #
point $-1 -71.974852748191779 30.65811982367434 -5.414167457816677 #
straight-curve $-1 -71.974852748191779 30.65811982367434 0 0 0 -1 I I #
straight-curve $-1 -89.475166354449954 -6.7566021749472096 12.508104948966654 1 0 0 I I #
point $-1 -71.974852748191779 -6.7566021749472096 12.508104948966654 #
straight-curve $-1 -62.054403429688513 -1.6891505437368011 12.508104948966652 0 1 0 I I #
point $-1 -62.05440342968852 -6.7566021749472096 12.508104948966654 #
point $-1 -65.743398417337033 -4.8261444106765765 5.8545969198747221 #
point $-1 -65.743398417337033 -1.9304577642706278 5.8545969198747221 #
straight-curve $-1 -71.974852748191779 0 12.508104948966654 0 -1 0 I I #
point $-1 -71.974852748191779 5.3290705182007514e-015 12.508104948966654 #
point $-1 -65.743398417337033 1.930457764270642 5.8545969198747221 #
point $-1 -65.743398417337033 4.8261444106765907 5.8545969198747221 #
straight-curve $-1 71.974852748191779 -0.68597898656410194 99.430287496835149 0 0 -1 I I #
point $-1 71.974852748191779 -0.68597898656410194 12.508104948966654 #
straight-curve $-1 71.974852748191779 1.3518929501588488 0.50257996678400474 0 1 0 I I #
point $-1 71.974852748191779 -0.68597898656410194 0.50257996678401184 #
point $-1 66.248828348953055 0.6699269681886193 5.2711741543000974 #
point $-1 66.248828348953055 2.7037859003176976 5.2711741543000974 #
point $-1 66.248828348953055 4.7376448324467759 5.2711741543000974 #
End-of-ACIS-data 