500 0 8 0           
7 Unknown 11 ACIS 5.0 NT 24 Fri Mar 26 15:06:42 1999 
-1 9.9999999999999995e-007 1e-010 
body $-1 $8 $-1 $9 #
body $-1 $10 $-1 $11 #
body $-1 $12 $-1 $13 #
body $-1 $14 $-1 $15 #
body $-1 $16 $-1 $17 #
body $-1 $18 $-1 $19 #
body $-1 $20 $-1 $21 #
body $-1 $22 $-1 $23 #
lump $-1 $-1 $24 $0 #
transform $-1 1 0 0 0 1 0 0 0 1 55.023651844843897 24.717738752261855 6.7030657301163874 1 rotate no_reflect no_shear #
lump $-1 $-1 $25 $1 #
transform $-1 1 0 0 0 1 0 0 0 1 55.023651844843897 24.717738752261855 6.7030657301163874 1 rotate no_reflect no_shear #
lump $-1 $-1 $26 $2 #
transform $-1 1 0 0 0 1 0 0 0 1 55.023651844843897 24.717738752261855 6.7030657301163874 1 rotate no_reflect no_shear #
lump $-1 $-1 $27 $3 #
transform $-1 1 0 0 0 1 0 0 0 1 55.023651844843897 24.717738752261855 6.7030657301163874 1 rotate no_reflect no_shear #
lump $-1 $-1 $28 $4 #
transform $-1 1 0 0 0 1 0 0 0 1 55.023651844843897 24.717738752261855 6.7030657301163874 1 rotate no_reflect no_shear #
lump $-1 $-1 $29 $5 #
transform $-1 1 0 0 0 1 0 0 0 1 55.023651844843897 24.717738752261855 6.7030657301163874 1 rotate no_reflect no_shear #
lump $-1 $-1 $30 $6 #
transform $-1 1 0 0 0 1 0 0 0 1 55.023651844843897 24.717738752261855 6.7030657301163874 1 rotate no_reflect no_shear #
lump $-1 $-1 $31 $7 #
transform $-1 1 0 0 0 1 0 0 0 1 55.023651844843897 24.717738752261855 6.7030657301163874 1 rotate no_reflect no_shear #
shell $-1 $-1 $-1 $32 $-1 $8 #
shell $-1 $-1 $-1 $33 $-1 $10 #
shell $-1 $-1 $-1 $34 $-1 $12 #
shell $-1 $-1 $-1 $35 $-1 $14 #
shell $-1 $-1 $-1 $36 $-1 $16 #
shell $-1 $-1 $-1 $37 $-1 $18 #
shell $-1 $-1 $-1 $38 $-1 $20 #
shell $-1 $-1 $-1 $39 $-1 $22 #
face $-1 $40 $41 $24 $-1 $42 forward single #
face $-1 $43 $44 $25 $-1 $45 forward single #
face $-1 $46 $47 $26 $-1 $48 forward single #
face $-1 $49 $50 $27 $-1 $51 reversed single #
face $-1 $52 $53 $28 $-1 $54 forward single #
face $-1 $55 $56 $29 $-1 $57 forward single #
face $-1 $58 $59 $30 $-1 $60 reversed single #
face $-1 $61 $62 $31 $-1 $63 forward single #
face $-1 $64 $65 $24 $-1 $66 reversed single #
loop $-1 $-1 $67 $32 #
plane-surface $-1 0 0 6.7030657301163874 0 0 1 1 0 0 forward_v I I I I #
face $-1 $68 $69 $25 $-1 $70 reversed single #
loop $-1 $-1 $71 $33 #
plane-surface $-1 -55.023651844843897 0 0 1 0 0 0 0 -1 forward_v I I I I #
face $-1 $72 $73 $26 $-1 $74 forward single #
loop $-1 $-1 $75 $34 #
plane-surface $-1 55.023651844843897 0 0 -1 0 0 0 0 1 forward_v I I I I #
face $-1 $76 $77 $27 $-1 $78 reversed single #
loop $-1 $-1 $79 $35 #
plane-surface $-1 -6.0467944885113489 -90.945860208529396 89.047865549871972 -1 0 0 0 -0.6018150307709319 0.79863550430605224 forward_v I I I I #
face $-1 $80 $81 $28 $-1 $82 forward single #
loop $-1 $83 $84 $36 #
cone-surface $-1 -26.556173210238235 -20.566542101972278 3.3034419266889614 0 0.6018150307709319 -0.79863550430605224 1 0 0 1 I I 0 1 1 forward I I I I #
face $-1 $85 $86 $29 $-1 $87 forward single #
loop $-1 $88 $89 $37 #
cone-surface $-1 -14.250545977202108 -20.566542101972278 3.3034419266889614 0 0.6018150307709319 -0.79863550430605224 1 0 0 1 I I 0 1 1 forward I I I I #
face $-1 $90 $91 $30 $-1 $92 reversed single #
loop $-1 $-1 $93 $38 #
plane-surface $-1 34.506288859571534 93.585537346125818 102.75258756189096 1 0 0 0 -0.85716730853699208 -0.51503806187062418 forward_v I I I I #
face $-1 $94 $95 $31 $-1 $96 forward single #
loop $-1 $97 $98 $39 #
cone-surface $-1 42.371499039538833 23.386811680976756 4.943795012459173 0 -0.85716730853699208 -0.51503806187062418 0.5 0 0 1 I I 0 1 0.5 forward I I I I #
face $-1 $99 $100 $24 $-1 $101 reversed single #
loop $-1 $-1 $102 $40 #
plane-surface $-1 0 0 -6.7030657301163874 0 0 1 1 0 0 forward_v I I I I #
coedge $-1 $103 $104 $105 $106 forward $41 $-1 #
face $-1 $107 $108 $25 $-1 $109 reversed single #
loop $-1 $-1 $110 $43 #
plane-surface $-1 0 24.717738752261855 0 0 -1 0 0 0 -1 forward_v I I I I #
coedge $-1 $111 $112 $113 $114 forward $44 $-1 #
face $-1 $115 $116 $26 $-1 $117 reversed single #
loop $-1 $-1 $118 $46 #
plane-surface $-1 0 0 6.7030657301163874 0 0 1 1 0 0 forward_v I I I I #
coedge $-1 $119 $120 $121 $122 forward $47 $-1 #
face $-1 $123 $124 $27 $-1 $125 reversed single #
loop $-1 $-1 $126 $49 #
plane-surface $-1 -20.403359593720168 -24.717738752261852 1.160181670136879 0 -0.6018150307709319 0.79863550430605224 1 0 0 forward_v I I I I #
coedge $-1 $127 $128 $129 $130 reversed $50 $-1 #
face $-1 $-1 $131 $28 $-1 $132 forward single #
loop $-1 $133 $134 $52 #
cone-surface $-1 -26.556173210238235 -19.792265657616365 2.2759424010982681 0 0.6018150307709319 -0.79863550430605224 0.5 0 0 1 I I -0.70710678118654746 0.70710678118654746 0.5 forward I I I I #
loop $-1 $-1 $135 $36 #
coedge $-1 $84 $84 $136 $137 reversed $53 $-1 #
face $-1 $-1 $138 $29 $-1 $139 forward single #
loop $-1 $140 $141 $55 #
cone-surface $-1 -14.250545977202108 -19.792265657616365 2.2759424010982681 0 0.6018150307709319 -0.79863550430605224 0.5 0 0 1 I I -0.70710678118654746 0.70710678118654746 0.5 forward I I I I #
loop $-1 $-1 $142 $37 #
coedge $-1 $89 $89 $143 $144 reversed $56 $-1 #
face $-1 $145 $146 $30 $-1 $147 reversed single #
loop $-1 $-1 $148 $58 #
plane-surface $-1 42.371499039538833 -0.74341376931685943 46.07403755546617 0 0.85716730853699208 0.51503806187062418 1 0 0 forward_v I I I I #
coedge $-1 $149 $150 $151 $152 reversed $59 $-1 #
face $-1 $-1 $153 $31 $-1 $154 forward single #
loop $-1 $155 $156 $61 #
cone-surface $-1 42.371499039538833 22.743936199574012 4.5575164660562049 0 -0.85716730853699208 -0.51503806187062418 0.25 0 0 1 I I -0.70710678118654746 0.70710678118654746 0.25 forward I I I I #
loop $-1 $-1 $157 $39 #
coedge $-1 $98 $98 $158 $159 reversed $62 $-1 #
face $-1 $160 $161 $24 $-1 $162 reversed single #
loop $-1 $-1 $163 $64 #
plane-surface $-1 0 -24.717738752261855 0 0 1 0 0 0 1 forward_v I I I I #
coedge $-1 $164 $165 $166 $167 forward $65 $-1 #
coedge $-1 $168 $67 $169 $170 forward $41 $-1 #
coedge $-1 $67 $168 $171 $172 forward $41 $-1 #
coedge $-1 $173 $174 $67 $106 reversed $175 $-1 #
edge $-1 $176 -24.717738752261855 $177 24.717738752261855 $105 $178 forward 7 unknown #
face $-1 $179 $180 $25 $-1 $181 reversed single #
loop $-1 $-1 $113 $68 #
plane-surface $-1 -57.417123157512776 0 2.910423803079679 0 0 1 1 0 0 forward_v I I I I #
coedge $-1 $182 $183 $111 $184 forward $69 $-1 #
coedge $-1 $185 $71 $110 $184 reversed $44 $-1 #
coedge $-1 $71 $185 $186 $187 reversed $44 $-1 #
coedge $-1 $188 $189 $71 $114 reversed $108 $-1 #
edge $-1 $190 -24.717738752261855 $191 24.717738752261855 $113 $192 forward 7 unknown #
face $-1 $193 $194 $26 $-1 $195 reversed single #
loop $-1 $-1 $196 $72 #
plane-surface $-1 0 -24.717738752261855 0 0 1 0 0 0 1 forward_v I I I I #
coedge $-1 $197 $198 $199 $200 forward $73 $-1 #
coedge $-1 $199 $75 $196 $201 reversed $47 $-1 #
coedge $-1 $75 $199 $202 $203 reversed $47 $-1 #
coedge $-1 $204 $205 $75 $122 reversed $194 $-1 #
edge $-1 $206 -24.717738752261855 $207 24.717738752261855 $121 $208 forward 7 unknown #
face $-1 $209 $210 $27 $-1 $211 reversed single #
loop $-1 $-1 $212 $76 #
plane-surface $-1 -34.759924698928984 -90.945860208529396 89.047865549871972 1 0 0 0 0.6018150307709319 -0.79863550430605224 forward_v I I I I #
coedge $-1 $213 $214 $215 $216 reversed $77 $-1 #
coedge $-1 $128 $79 $217 $218 reversed $50 $-1 #
coedge $-1 $79 $127 $213 $219 reversed $50 $-1 #
coedge $-1 $215 $220 $79 $130 forward $221 $-1 #
edge $-1 $222 20.755191352002843 $223 28.110846794641098 $129 $224 forward 7 unknown #
loop $-1 $-1 $136 $80 #
plane-surface $-1 -20.403359593720168 -24.717738752261852 1.160181670136879 0 -0.6018150307709319 0.79863550430605224 1 0 0 forward_v I I I I #
loop $-1 $-1 $225 $52 #
coedge $-1 $134 $134 $135 $226 reversed $81 $-1 #
coedge $-1 $135 $135 $134 $226 forward $83 $-1 #
coedge $-1 $136 $136 $84 $137 forward $131 $-1 #
edge $-1 $227 1.6472766561430553e-016 $227 6.2831853071796004 $136 $228 forward 7 unknown #
loop $-1 $-1 $143 $85 #
plane-surface $-1 -20.403359593720168 -24.717738752261852 1.160181670136879 0 -0.6018150307709319 0.79863550430605224 1 0 0 forward_v I I I I #
loop $-1 $-1 $229 $55 #
coedge $-1 $141 $141 $142 $230 reversed $86 $-1 #
coedge $-1 $142 $142 $141 $230 forward $88 $-1 #
coedge $-1 $143 $143 $89 $144 forward $138 $-1 #
edge $-1 $231 1.6472766561430553e-016 $231 6.2831853071796004 $143 $232 forward 7 unknown #
face $-1 $233 $234 $30 $-1 $235 reversed single #
loop $-1 $-1 $236 $90 #
plane-surface $-1 50.236709219506132 93.585537346125818 102.75258756189096 -1 0 0 0 0.85716730853699208 0.51503806187062418 forward_v I I I I #
coedge $-1 $237 $238 $239 $240 reversed $91 $-1 #
coedge $-1 $150 $93 $241 $242 reversed $59 $-1 #
coedge $-1 $93 $149 $237 $243 reversed $59 $-1 #
coedge $-1 $239 $244 $93 $152 forward $245 $-1 #
edge $-1 $246 22.075029920801054 $247 23.879716754834238 $151 $248 forward 7 unknown #
loop $-1 $-1 $158 $94 #
plane-surface $-1 42.371499039538833 -0.74341376931685943 46.07403755546617 0 0.85716730853699208 0.51503806187062418 1 0 0 forward_v I I I I #
loop $-1 $-1 $249 $61 #
coedge $-1 $156 $156 $157 $250 reversed $95 $-1 #
coedge $-1 $157 $157 $156 $250 forward $97 $-1 #
coedge $-1 $158 $158 $98 $159 forward $153 $-1 #
edge $-1 $251 1.2023834831759341e-015 $251 6.2831853071796013 $158 $252 forward 7 unknown #
face $-1 $253 $254 $24 $-1 $255 reversed single #
loop $-1 $-1 $256 $99 #
plane-surface $-1 -55.023651844843897 0 0 1 0 0 0 0 -1 forward_v I I I I #
coedge $-1 $257 $171 $258 $259 forward $100 $-1 #
coedge $-1 $260 $102 $257 $261 forward $65 $-1 #
coedge $-1 $102 $260 $262 $263 forward $65 $-1 #
coedge $-1 $174 $173 $102 $167 reversed $175 $-1 #
edge $-1 $264 -24.717738752261855 $265 24.717738752261855 $166 $266 forward 7 unknown #
coedge $-1 $104 $103 $267 $268 forward $41 $-1 #
coedge $-1 $269 $270 $103 $170 reversed $254 $-1 #
edge $-1 $177 -55.023651844843897 $271 55.023651844843897 $169 $272 forward 7 unknown #
coedge $-1 $163 $273 $104 $172 reversed $100 $-1 #
edge $-1 $274 -55.023651844843897 $176 55.023651844843897 $171 $275 forward 7 unknown #
coedge $-1 $166 $105 $273 $276 forward $175 $-1 #
coedge $-1 $105 $166 $269 $277 reversed $175 $-1 #
loop $-1 $-1 $173 $253 #
vertex $-1 $106 $278 #
vertex $-1 $106 $279 #
straight-curve $-1 55.023651844843897 0 6.7030657301163874 0 1 0 I I #
face $-1 $280 $281 $25 $-1 $282 forward single #
loop $-1 $-1 $283 $107 #
plane-surface $-1 -59.810594470181655 0 4.8067447665980332 1 0 0 0 0 -1 forward_v I I I I #
coedge $-1 $284 $110 $189 $285 reversed $69 $-1 #
coedge $-1 $110 $284 $286 $287 reversed $69 $-1 #
edge $-1 $288 -6.7030657301163874 $191 -2.910423803079679 $110 $289 forward 7 unknown #
coedge $-1 $112 $111 $290 $291 reversed $44 $-1 #
coedge $-1 $292 $293 $112 $187 forward $294 $-1 #
edge $-1 $190 2.910423803079679 $295 6.7030657301163874 $186 $296 forward 7 unknown #
coedge $-1 $297 $113 $293 $298 forward $108 $-1 #
coedge $-1 $113 $297 $182 $285 forward $108 $-1 #
vertex $-1 $187 $299 #
vertex $-1 $184 $300 #
straight-curve $-1 -55.023651844843897 0 2.910423803079679 0 1 0 I I #
face $-1 $301 $302 $26 $-1 $303 reversed single #
loop $-1 $-1 $304 $115 #
plane-surface $-1 57.417123157512776 0 2.910423803079679 0 0 1 1 0 0 forward_v I I I I #
coedge $-1 $305 $306 $119 $201 forward $116 $-1 #
coedge $-1 $307 $118 $306 $308 forward $73 $-1 #
coedge $-1 $118 $307 $309 $310 forward $73 $-1 #
coedge $-1 $120 $119 $118 $200 reversed $47 $-1 #
edge $-1 $311 -24.717738752261855 $312 24.717738752261855 $118 $313 forward 7 unknown #
edge $-1 $312 -6.7030657301163874 $207 -2.910423803079679 $196 $314 forward 7 unknown #
coedge $-1 $309 $315 $120 $203 forward $316 $-1 #
edge $-1 $206 2.910423803079679 $311 6.7030657301163874 $202 $317 forward 7 unknown #
coedge $-1 $304 $121 $315 $318 forward $194 $-1 #
coedge $-1 $121 $304 $305 $319 forward $194 $-1 #
vertex $-1 $203 $320 #
vertex $-1 $201 $321 #
straight-curve $-1 55.023651844843897 0 2.910423803079679 0 -1 0 I I #
face $-1 $-1 $221 $27 $-1 $322 forward single #
loop $-1 $-1 $323 $123 #
plane-surface $-1 0 -24.717738752261855 0 0 1 0 0 0 1 forward_v I I I I #
coedge $-1 $324 $325 $326 $327 reversed $124 $-1 #
coedge $-1 $328 $126 $128 $219 forward $77 $-1 #
coedge $-1 $126 $328 $324 $329 forward $77 $-1 #
coedge $-1 $326 $129 $126 $216 forward $221 $-1 #
edge $-1 $223 -4.1548853083487352 $330 24.5582449020689 $215 $331 forward 7 unknown #
coedge $-1 $332 $333 $127 $218 forward $210 $-1 #
edge $-1 $334 -43.363751104799107 $222 -37.8208670448196 $217 $335 forward 7 unknown #
edge $-1 $223 -9.210278535049234 $334 4.4408806494695735e-015 $128 $336 forward 7 unknown #
coedge $-1 $129 $326 $332 $337 forward $221 $-1 #
loop $-1 $-1 $326 $209 #
vertex $-1 $218 $338 #
vertex $-1 $130 $339 #
straight-curve $-1 -6.0467944885113489 -45.472930104264698 6.7030657301163856 0 1 0 I I #
coedge $-1 $225 $225 $-1 $340 reversed $133 $-1 #
edge $-1 $341 0 $341 6.2831853071796004 $134 $342 forward 7 unknown #
vertex $-1 $137 $343 #
ellipse-curve $-1 -26.556173210238235 -21.039911030942726 3.9316237001266323 0 -0.6018150307709319 0.79863550430605224 1 0 0 1 I I #
coedge $-1 $229 $229 $-1 $344 reversed $140 $-1 #
edge $-1 $345 0 $345 6.2831853071796004 $141 $346 forward 7 unknown #
vertex $-1 $144 $347 #
ellipse-curve $-1 -14.250545977202108 -21.039911030942726 3.9316237001266323 0 -0.6018150307709319 0.79863550430605224 1 0 0 1 I I #
face $-1 $-1 $245 $30 $-1 $348 forward single #
loop $-1 $-1 $349 $145 #
plane-surface $-1 0 24.717738752261855 0 0 -1 0 0 0 -1 forward_v I I I I #
coedge $-1 $350 $351 $352 $353 reversed $146 $-1 #
coedge $-1 $354 $148 $150 $243 forward $91 $-1 #
coedge $-1 $148 $354 $350 $355 forward $91 $-1 #
coedge $-1 $352 $151 $148 $240 forward $245 $-1 #
edge $-1 $247 13.320539339802117 $356 29.050959699736715 $239 $357 forward 7 unknown #
coedge $-1 $358 $359 $149 $242 forward $234 $-1 #
edge $-1 $360 -47.676731424272887 $246 -44.673228050829096 $241 $361 forward 7 unknown #
edge $-1 $247 45.931490192443214 $360 49.435477504523682 $150 $362 forward 7 unknown #
coedge $-1 $151 $352 $358 $363 forward $245 $-1 #
loop $-1 $-1 $352 $233 #
vertex $-1 $242 $364 #
vertex $-1 $152 $365 #
straight-curve $-1 34.506288859571534 46.792768673062909 6.7030657301163856 0 -1 0 I I #
coedge $-1 $249 $249 $-1 $366 reversed $155 $-1 #
edge $-1 $367 0 $367 6.2831853071796004 $156 $368 forward 7 unknown #
vertex $-1 $159 $369 #
ellipse-curve $-1 42.371499039538833 23.815395335245263 5.2013140433944924 0 0.85716730853699208 0.51503806187062418 0.5 0 0 1 I I #
face $-1 $-1 $175 $24 $-1 $370 reversed single #
loop $-1 $-1 $269 $160 #
plane-surface $-1 0 24.717738752261855 0 0 -1 0 0 0 -1 forward_v I I I I #
coedge $-1 $371 $267 $270 $372 forward $161 $-1 #
coedge $-1 $273 $163 $164 $261 reversed $100 $-1 #
coedge $-1 $267 $371 $163 $259 reversed $161 $-1 #
edge $-1 $274 -6.7030657301163874 $373 6.7030657301163874 $258 $374 forward 7 unknown #
coedge $-1 $165 $164 $371 $375 forward $65 $-1 #
edge $-1 $265 -55.023651844843897 $373 55.023651844843897 $257 $376 forward 7 unknown #
coedge $-1 $270 $269 $165 $263 reversed $254 $-1 #
edge $-1 $377 -55.023651844843897 $264 55.023651844843897 $262 $378 forward 7 unknown #
vertex $-1 $167 $379 #
vertex $-1 $276 $380 #
straight-curve $-1 55.023651844843897 0 -6.7030657301163874 0 -1 0 I I #
coedge $-1 $256 $258 $168 $268 reversed $161 $-1 #
edge $-1 $271 -24.717738752261855 $274 24.717738752261855 $267 $381 forward 7 unknown #
coedge $-1 $262 $169 $174 $277 forward $254 $-1 #
coedge $-1 $169 $262 $256 $372 reversed $254 $-1 #
vertex $-1 $170 $382 #
straight-curve $-1 0 24.717738752261855 6.7030657301163874 -1 0 0 I I #
coedge $-1 $171 $257 $173 $276 reversed $100 $-1 #
vertex $-1 $268 $383 #
straight-curve $-1 0 -24.717738752261855 6.7030657301163874 1 0 0 I I #
edge $-1 $176 -6.7030657301163874 $265 6.7030657301163874 $173 $384 forward 7 unknown #
edge $-1 $177 -6.7030657301163874 $264 6.7030657301163874 $174 $385 forward 7 unknown #
point $-1 55.023651844843897 -24.717738752261855 6.7030657301163874 #
point $-1 55.023651844843897 24.717738752261855 6.7030657301163874 #
face $-1 $-1 $294 $25 $-1 $386 reversed single #
loop $-1 $-1 $290 $179 #
plane-surface $-1 0 0 6.7030657301163874 0 0 1 1 0 0 forward_v I I I I #
coedge $-1 $387 $388 $284 $389 forward $180 $-1 #
coedge $-1 $183 $182 $283 $389 reversed $69 $-1 #
edge $-1 $390 -2.3934713126688791 $191 2.3934713126688791 $182 $391 forward 7 unknown #
coedge $-1 $392 $290 $183 $287 forward $281 $-1 #
edge $-1 $288 55.023651844843897 $393 59.810594470181655 $183 $394 forward 7 unknown #
vertex $-1 $287 $395 #
straight-curve $-1 -55.023651844843897 24.717738752261855 0 0 0 -1 I I #
coedge $-1 $286 $396 $185 $291 forward $281 $-1 #
edge $-1 $295 -24.717738752261855 $288 24.717738752261855 $290 $397 forward 7 unknown #
coedge $-1 $398 $186 $396 $399 reversed $294 $-1 #
coedge $-1 $186 $398 $188 $298 reversed $294 $-1 #
loop $-1 $-1 $186 $280 #
vertex $-1 $187 $400 #
straight-curve $-1 -55.023651844843897 -24.717738752261855 0 0 0 1 I I #
coedge $-1 $189 $188 $387 $401 forward $108 $-1 #
edge $-1 $190 -2.3934713126688791 $402 2.3934713126688791 $293 $403 forward 7 unknown #
point $-1 -55.023651844843897 -24.717738752261855 2.910423803079679 #
point $-1 -55.023651844843897 24.717738752261855 2.910423803079679 #
face $-1 $-1 $316 $26 $-1 $404 reversed single #
loop $-1 $-1 $405 $193 #
plane-surface $-1 59.810594470181655 0 4.8067447665980332 -1 0 0 0 0 1 forward_v I I I I #
coedge $-1 $205 $204 $406 $407 forward $194 $-1 #
coedge $-1 $408 $196 $205 $319 reversed $116 $-1 #
coedge $-1 $196 $408 $197 $308 reversed $116 $-1 #
coedge $-1 $198 $197 $409 $410 forward $73 $-1 #
edge $-1 $312 -2.3934713126688791 $411 2.3934713126688791 $306 $412 forward 7 unknown #
coedge $-1 $413 $202 $198 $310 reversed $316 $-1 #
edge $-1 $414 -59.810594470181655 $311 -55.023651844843897 $309 $415 forward 7 unknown #
vertex $-1 $203 $416 #
vertex $-1 $308 $417 #
straight-curve $-1 55.023651844843897 0 6.7030657301163874 0 -1 0 I I #
straight-curve $-1 55.023651844843897 -24.717738752261855 0 0 0 -1 I I #
coedge $-1 $202 $413 $204 $318 reversed $316 $-1 #
loop $-1 $-1 $202 $301 #
straight-curve $-1 55.023651844843897 24.717738752261855 0 0 0 1 I I #
edge $-1 $206 -2.3934713126688791 $418 2.3934713126688791 $315 $419 forward 7 unknown #
edge $-1 $420 -2.3934713126688791 $207 2.3934713126688791 $305 $421 forward 7 unknown #
point $-1 55.023651844843897 24.717738752261855 2.910423803079679 #
point $-1 55.023651844843897 -24.717738752261855 2.910423803079679 #
plane-surface $-1 0 0 6.7030657301163874 0 0 1 1 0 0 forward_v I I I I #
coedge $-1 $333 $332 $325 $422 forward $210 $-1 #
coedge $-1 $325 $212 $214 $329 reversed $124 $-1 #
coedge $-1 $212 $324 $323 $422 reversed $124 $-1 #
coedge $-1 $220 $215 $212 $327 forward $221 $-1 #
edge $-1 $330 -28.110846794641098 $423 -20.755191352002843 $326 $424 forward 7 unknown #
coedge $-1 $214 $213 $333 $425 reversed $77 $-1 #
edge $-1 $426 -4.4408806494695735e-015 $330 9.210278535049234 $324 $427 forward 7 unknown #
vertex $-1 $216 $428 #
straight-curve $-1 -10.201679796860084 -17.3620833096236 6.7030657301163874 -1 0 0 I I #
coedge $-1 $323 $217 $220 $337 reversed $210 $-1 #
coedge $-1 $217 $323 $328 $425 forward $210 $-1 #
vertex $-1 $218 $429 #
straight-curve $-1 -6.0467944885113489 -24.717738752261859 44.523932774935986 0 0 1 I I #
straight-curve $-1 -6.0467944885113489 -24.717738752261852 1.160181670136879 0 -0.79863550430605224 -0.6018150307709319 I I #
edge $-1 $423 -92.17704785644176 $222 -63.463917646024129 $332 $430 forward 7 unknown #
point $-1 -6.0467944885113525 -24.717738752261855 6.7030657301163874 #
point $-1 -6.0467944885113489 -17.3620833096236 6.7030657301163874 #
edge $-1 $431 1 $431 0 $225 $-1 forward 7 unknown #
vertex $-1 $226 $432 #
ellipse-curve $-1 -26.556173210238235 -20.09317317300183 2.6752601532512941 0 -0.6018150307709319 0.79863550430605224 1 0 0 1 I I #
point $-1 -25.556173210238235 -21.039911030942722 3.9316237001266279 #
edge $-1 $433 1 $433 0 $229 $-1 forward 7 unknown #
vertex $-1 $230 $434 #
ellipse-curve $-1 -14.250545977202108 -20.09317317300183 2.6752601532512941 0 -0.6018150307709319 0.79863550430605224 1 0 0 1 I I #
point $-1 -13.250545977202108 -21.039911030942722 3.9316237001266279 #
plane-surface $-1 0 0 6.7030657301163874 0 0 1 1 0 0 forward_v I I I I #
coedge $-1 $359 $358 $351 $435 forward $234 $-1 #
coedge $-1 $351 $236 $238 $355 reversed $146 $-1 #
coedge $-1 $236 $350 $349 $435 reversed $146 $-1 #
coedge $-1 $244 $239 $236 $353 forward $245 $-1 #
edge $-1 $356 -23.879716754834238 $436 -22.075029920801054 $352 $437 forward 7 unknown #
coedge $-1 $238 $237 $359 $438 reversed $91 $-1 #
edge $-1 $439 -49.435477504523682 $356 -45.931490192443214 $350 $440 forward 7 unknown #
vertex $-1 $240 $441 #
straight-curve $-1 21.185749519769416 22.913051918228664 6.7030657301163856 1 0 0 I I #
coedge $-1 $349 $241 $244 $363 reversed $234 $-1 #
coedge $-1 $241 $349 $354 $438 forward $234 $-1 #
vertex $-1 $242 $442 #
straight-curve $-1 34.506288859571534 24.717738752261852 51.376293780945481 0 0 1 I I #
straight-curve $-1 34.506288859571534 -0.74341376931685943 46.07403755546617 0 0.51503806187062418 -0.85716730853699208 I I #
edge $-1 $436 -50.236709219506132 $246 -34.506288859571534 $358 $443 forward 7 unknown #
point $-1 34.506288859571534 24.717738752261855 6.7030657301163874 #
point $-1 34.506288859571534 22.913051918228671 6.7030657301163856 #
edge $-1 $444 1 $444 0 $249 $-1 forward 7 unknown #
vertex $-1 $250 $445 #
ellipse-curve $-1 42.371499039538833 22.958228026708259 4.6862759815238606 0 0.85716730853699208 0.51503806187062418 0.5 0 0 1 I I #
point $-1 42.871499039538833 23.815395335245253 5.2013140433944853 #
plane-surface $-1 55.023651844843897 0 0 -1 0 0 0 0 1 forward_v I I I I #
coedge $-1 $258 $256 $260 $375 reversed $161 $-1 #
edge $-1 $271 -6.7030657301163874 $377 6.7030657301163874 $270 $446 forward 7 unknown #
vertex $-1 $375 $447 #
straight-curve $-1 -55.023651844843897 -24.717738752261855 0 0 0 -1 I I #
edge $-1 $373 -24.717738752261855 $377 24.717738752261855 $371 $448 forward 7 unknown #
straight-curve $-1 0 -24.717738752261855 -6.7030657301163874 -1 0 0 I I #
vertex $-1 $263 $449 #
straight-curve $-1 0 24.717738752261855 -6.7030657301163874 1 0 0 I I #
point $-1 55.023651844843897 24.717738752261855 -6.7030657301163874 #
point $-1 55.023651844843897 -24.717738752261855 -6.7030657301163874 #
straight-curve $-1 -55.023651844843897 0 6.7030657301163874 0 -1 0 I I #
point $-1 -55.023651844843897 24.717738752261855 6.7030657301163874 #
point $-1 -55.023651844843897 -24.717738752261855 6.7030657301163874 #
straight-curve $-1 55.023651844843897 -24.717738752261855 0 0 0 -1 I I #
straight-curve $-1 55.023651844843897 24.717738752261855 0 0 0 -1 I I #
plane-surface $-1 0 -24.717738752261855 0 0 1 0 0 0 1 forward_v I I I I #
coedge $-1 $450 $283 $297 $401 reversed $180 $-1 #
coedge $-1 $283 $450 $392 $451 reversed $180 $-1 #
edge $-1 $393 -1.8963209635183542 $390 1.8963209635183542 $284 $452 forward 7 unknown #
vertex $-1 $285 $453 #
straight-curve $-1 -57.417123157512776 24.717738752261855 2.910423803079679 1 0 0 I I #
coedge $-1 $396 $286 $388 $451 forward $281 $-1 #
vertex $-1 $287 $454 #
straight-curve $-1 0 24.717738752261855 6.7030657301163874 -1 0 0 I I #
point $-1 -55.023651844843897 24.717738752261855 6.7030657301163874 #
coedge $-1 $290 $392 $292 $399 forward $281 $-1 #
straight-curve $-1 -55.023651844843897 0 6.7030657301163874 0 1 0 I I #
coedge $-1 $293 $292 $450 $455 forward $294 $-1 #
edge $-1 $456 -59.810594470181655 $295 -55.023651844843897 $292 $457 forward 7 unknown #
point $-1 -55.023651844843897 -24.717738752261855 6.7030657301163874 #
edge $-1 $402 -24.717738752261855 $390 24.717738752261855 $387 $458 forward 7 unknown #
vertex $-1 $401 $459 #
straight-curve $-1 -57.417123157512776 -24.717738752261855 2.910423803079679 -1 0 0 I I #
plane-surface $-1 0 24.717738752261855 0 0 -1 0 0 0 -1 forward_v I I I I #
coedge $-1 $406 $409 $408 $460 forward $302 $-1 #
coedge $-1 $461 $405 $304 $407 reversed $302 $-1 #
edge $-1 $418 -24.717738752261855 $420 24.717738752261855 $406 $462 forward 7 unknown #
coedge $-1 $306 $305 $405 $460 reversed $116 $-1 #
coedge $-1 $405 $461 $307 $410 reversed $302 $-1 #
edge $-1 $411 -24.717738752261855 $414 24.717738752261855 $409 $463 forward 7 unknown #
vertex $-1 $410 $464 #
straight-curve $-1 57.417123157512776 -24.717738752261855 6.7030657301163874 1 0 0 I I #
coedge $-1 $315 $309 $461 $465 forward $316 $-1 #
vertex $-1 $410 $466 #
straight-curve $-1 0 24.717738752261855 6.7030657301163874 -1 0 0 I I #
point $-1 55.023651844843897 24.717738752261855 6.7030657301163874 #
point $-1 55.023651844843897 -24.717738752261855 6.7030657301163874 #
vertex $-1 $407 $467 #
straight-curve $-1 57.417123157512776 24.717738752261855 2.910423803079679 1 0 0 I I #
vertex $-1 $460 $468 #
straight-curve $-1 57.417123157512776 -24.717738752261855 2.910423803079679 -1 0 0 I I #
edge $-1 $423 37.8208670448196 $426 43.363751104799107 $323 $469 forward 7 unknown #
vertex $-1 $337 $470 #
straight-curve $-1 -34.759924698928984 -45.472930104264698 6.7030657301163856 0 -1 0 I I #
edge $-1 $426 -24.5582449020689 $334 4.1548853083487352 $333 $471 forward 7 unknown #
vertex $-1 $425 $472 #
straight-curve $-1 -34.759924698928984 -24.717738752261852 1.160181670136879 0 0.79863550430605224 0.6018150307709319 I I #
point $-1 -34.759924698928984 -17.3620833096236 6.7030657301163874 #
point $-1 -6.0467944885113489 -24.717738752261855 1.1601816701368763 #
straight-curve $-1 57.417123157512776 -24.717738752261855 6.7030657301163874 1 0 0 I I #
vertex $-1 $340 $473 #
point $-1 -25.556173210238235 -20.09317317300183 2.6752601532512941 #
vertex $-1 $344 $474 #
point $-1 -13.250545977202108 -20.09317317300183 2.6752601532512941 #
edge $-1 $436 44.673228050829096 $439 47.676731424272887 $349 $475 forward 7 unknown #
vertex $-1 $363 $476 #
straight-curve $-1 50.236709219506132 46.792768673062909 6.7030657301163856 0 1 0 I I #
edge $-1 $439 -29.050959699736715 $360 -13.320539339802117 $359 $477 forward 7 unknown #
vertex $-1 $438 $478 #
straight-curve $-1 50.236709219506132 -0.74341376931685943 46.07403755546617 0 -0.51503806187062418 0.85716730853699208 I I #
point $-1 50.236709219506132 22.913051918228671 6.7030657301163856 #
point $-1 34.506288859571534 24.717738752261855 3.6995623566725939 #
straight-curve $-1 0 24.717738752261855 6.7030657301163874 -1 0 0 I I #
vertex $-1 $366 $479 #
point $-1 42.871499039538833 22.958228026708259 4.6862759815238606 #
straight-curve $-1 -55.023651844843897 24.717738752261855 0 0 0 -1 I I #
point $-1 -55.023651844843897 -24.717738752261855 -6.7030657301163874 #
straight-curve $-1 -55.023651844843897 0 -6.7030657301163874 0 1 0 I I #
point $-1 -55.023651844843897 24.717738752261855 -6.7030657301163874 #
coedge $-1 $388 $387 $398 $455 reversed $180 $-1 #
edge $-1 $393 -24.717738752261855 $456 24.717738752261855 $388 $480 forward 7 unknown #
straight-curve $-1 -59.810594470181655 24.717738752261855 4.8067447665980332 0 0 -1 I I #
point $-1 -59.810594470181655 24.717738752261855 2.910423803079679 #
point $-1 -59.810594470181655 24.717738752261855 6.7030657301163874 #
edge $-1 $456 -1.8963209635183542 $402 1.8963209635183542 $450 $481 forward 7 unknown #
vertex $-1 $451 $482 #
straight-curve $-1 0 -24.717738752261855 6.7030657301163874 1 0 0 I I #
straight-curve $-1 -59.810594470181655 0 2.910423803079679 0 1 0 I I #
point $-1 -59.810594470181655 -24.717738752261855 2.910423803079679 #
edge $-1 $411 -1.8963209635183542 $420 1.8963209635183542 $405 $483 forward 7 unknown #
coedge $-1 $409 $406 $413 $465 reversed $302 $-1 #
straight-curve $-1 59.810594470181655 0 2.910423803079679 0 -1 0 I I #
straight-curve $-1 59.810594470181655 0 6.7030657301163874 0 1 0 I I #
point $-1 59.810594470181655 -24.717738752261855 6.7030657301163874 #
edge $-1 $414 -1.8963209635183542 $418 1.8963209635183542 $461 $484 forward 7 unknown #
point $-1 59.810594470181655 24.717738752261855 6.7030657301163874 #
point $-1 59.810594470181655 24.717738752261855 2.910423803079679 #
point $-1 59.810594470181655 -24.717738752261855 2.910423803079679 #
straight-curve $-1 -34.759924698928984 -24.717738752261859 44.523932774935986 0 0 -1 I I #
point $-1 -34.759924698928984 -24.717738752261855 6.7030657301163874 #
straight-curve $-1 -10.201679796860084 -24.717738752261855 1.1601816701368739 1 0 0 I I #
point $-1 -34.759924698928984 -24.717738752261855 1.1601816701368763 #
point $-1 -26.556173210238235 -19.491358142230901 1.8766246489452421 #
point $-1 -14.250545977202108 -19.491358142230901 1.8766246489452421 #
straight-curve $-1 50.236709219506132 24.717738752261852 51.376293780945481 0 0 -1 I I #
point $-1 50.236709219506132 24.717738752261855 6.7030657301163874 #
straight-curve $-1 21.185749519769416 24.717738752261855 3.6995623566725939 -1 0 0 I I #
point $-1 50.236709219506132 24.717738752261855 3.6995623566725939 #
point $-1 42.371499039538833 22.529644372439765 4.4287569505885491 #
straight-curve $-1 -59.810594470181655 0 6.7030657301163874 0 -1 0 I I #
straight-curve $-1 -59.810594470181655 -24.717738752261855 4.8067447665980332 0 0 -1 I I #
point $-1 -59.810594470181655 -24.717738752261855 6.7030657301163874 #
straight-curve $-1 59.810594470181655 -24.717738752261855 4.8067447665980332 0 0 -1 I I #
straight-curve $-1 59.810594470181655 24.717738752261855 4.8067447665980332 0 0 -1 I I #
End-of-ACIS-data 