500 0 13 0           
7 Unknown 11 ACIS 5.0 NT 24 Fri Mar 26 00:57:58 1999 
-1 9.9999999999999995e-007 1e-010 
body $-1 $13 $-1 $14 #
body $-1 $15 $-1 $16 #
body $-1 $17 $-1 $18 #
body $-1 $19 $-1 $20 #
body $-1 $21 $-1 $22 #
body $-1 $23 $-1 $24 #
body $-1 $25 $-1 $26 #
body $-1 $27 $-1 $28 #
body $-1 $29 $-1 $30 #
body $-1 $31 $-1 $32 #
body $-1 $33 $-1 $34 #
body $-1 $35 $-1 $36 #
body $-1 $37 $-1 $38 #
lump $-1 $-1 $39 $0 #
transform $-1 1 0 0 0 1 0 0 0 1 66.951506088442642 46.283112134555111 18.949846006225101 1 rotate no_reflect no_shear #
lump $-1 $-1 $40 $1 #
transform $-1 1 0 0 0 1 0 0 0 1 66.951506088442642 46.283112134555111 18.949846006225101 1 rotate no_reflect no_shear #
lump $-1 $-1 $41 $2 #
transform $-1 1 0 0 0 1 0 0 0 1 66.951506088442642 46.283112134555111 18.949846006225101 1 rotate no_reflect no_shear #
lump $-1 $-1 $42 $3 #
transform $-1 1 0 0 0 1 0 0 0 1 66.951506088442642 46.283112134555111 18.949846006225101 1 rotate no_reflect no_shear #
lump $-1 $-1 $43 $4 #
transform $-1 1 0 0 0 1 0 0 0 1 66.951506088442642 46.283112134555111 18.949846006225101 1 rotate no_reflect no_shear #
lump $-1 $-1 $44 $5 #
transform $-1 1 0 0 0 1 0 0 0 1 66.951506088442642 46.283112134555111 18.949846006225101 1 rotate no_reflect no_shear #
lump $-1 $-1 $45 $6 #
transform $-1 1 0 0 0 1 0 0 0 1 66.951506088442642 46.283112134555111 18.949846006225101 1 rotate no_reflect no_shear #
lump $-1 $-1 $46 $7 #
transform $-1 1 0 0 0 1 0 0 0 1 66.951506088442642 46.283112134555111 18.949846006225101 1 rotate no_reflect no_shear #
lump $-1 $-1 $47 $8 #
transform $-1 1 0 0 0 1 0 0 0 1 66.951506088442642 46.283112134555111 18.949846006225101 1 rotate no_reflect no_shear #
lump $-1 $-1 $48 $9 #
transform $-1 1 0 0 0 1 0 0 0 1 66.951506088442642 46.283112134555111 18.949846006225101 1 rotate no_reflect no_shear #
lump $-1 $-1 $49 $10 #
transform $-1 1 0 0 0 1 0 0 0 1 66.951506088442642 46.283112134555111 18.949846006225101 1 rotate no_reflect no_shear #
lump $-1 $-1 $50 $11 #
transform $-1 1 0 0 0 1 0 0 0 1 66.951506088442642 46.283112134555111 18.949846006225101 1 rotate no_reflect no_shear #
lump $-1 $-1 $51 $12 #
transform $-1 1 0 0 0 1 0 0 0 1 66.951506088442642 46.283112134555111 18.949846006225101 1 rotate no_reflect no_shear #
shell $-1 $-1 $-1 $52 $-1 $13 #
shell $-1 $-1 $-1 $53 $-1 $15 #
shell $-1 $-1 $-1 $54 $-1 $17 #
shell $-1 $-1 $-1 $55 $-1 $19 #
shell $-1 $-1 $-1 $56 $-1 $21 #
shell $-1 $-1 $-1 $57 $-1 $23 #
shell $-1 $-1 $-1 $58 $-1 $25 #
shell $-1 $-1 $-1 $59 $-1 $27 #
shell $-1 $-1 $-1 $60 $-1 $29 #
shell $-1 $-1 $-1 $61 $-1 $31 #
shell $-1 $-1 $-1 $62 $-1 $33 #
shell $-1 $-1 $-1 $63 $-1 $35 #
shell $-1 $-1 $-1 $64 $-1 $37 #
face $-1 $65 $66 $39 $-1 $67 forward single #
face $-1 $68 $69 $40 $-1 $70 reversed single #
face $-1 $71 $72 $41 $-1 $73 reversed single #
face $-1 $74 $75 $42 $-1 $76 forward single #
face $-1 $77 $78 $43 $-1 $79 reversed single #
face $-1 $80 $81 $44 $-1 $82 forward single #
face $-1 $83 $84 $45 $-1 $85 reversed single #
face $-1 $86 $87 $46 $-1 $88 forward single #
face $-1 $89 $90 $47 $-1 $91 reversed single #
face $-1 $92 $93 $48 $-1 $94 forward single #
face $-1 $95 $96 $49 $-1 $97 reversed single #
face $-1 $98 $99 $50 $-1 $100 forward single #
face $-1 $101 $102 $51 $-1 $103 forward single #
face $-1 $104 $105 $39 $-1 $106 reversed single #
loop $-1 $-1 $107 $52 #
plane-surface $-1 0 0 18.949846006225101 0 0 1 1 0 0 forward_v I I I I #
face $-1 $108 $109 $40 $-1 $110 reversed single #
loop $-1 $-1 $111 $53 #
plane-surface $-1 -52.468840598397094 -38.263956240492824 0 1 0 0 0 0 -1 forward_v I I I I #
face $-1 $112 $113 $41 $-1 $114 reversed single #
loop $-1 $-1 $115 $54 #
plane-surface $-1 -137.90929271674605 -26.707586537427837 125.73117330912635 0 1 0 -0.52991927123019833 0 0.84804809178421925 forward_v I I I I #
face $-1 $116 $117 $42 $-1 $118 forward single #
loop $-1 $119 $120 $55 #
cone-surface $-1 -59.361808458816178 -20.376698376711026 12.091813324649976 0.52991927123019833 0 -0.84804809178421925 2.1201202294605483 0 1.3247981780754958 1 I I 0 1 2.5 forward I I I I #
face $-1 $121 $122 $43 $-1 $123 reversed single #
loop $-1 $-1 $124 $56 #
plane-surface $-1 -137.90929271674605 -7.77701702357896 125.73117330912635 0 1 0 -0.52991927123019833 0 0.84804809178421925 forward_v I I I I #
face $-1 $125 $126 $44 $-1 $127 forward single #
loop $-1 $128 $129 $57 #
cone-surface $-1 -59.361808458816178 -1.4461288628621531 12.091813324649976 0.52991927123019833 0 -0.84804809178421925 2.1201202294605483 0 1.3247981780754958 1 I I 0 1 2.5 forward I I I I #
face $-1 $130 $131 $45 $-1 $132 reversed single #
loop $-1 $-1 $133 $58 #
plane-surface $-1 -137.90929271674605 11.153552490269913 125.73117330912635 0 1 0 -0.52991927123019833 0 0.84804809178421925 forward_v I I I I #
face $-1 $134 $135 $46 $-1 $136 forward single #
loop $-1 $137 $138 $59 #
cone-surface $-1 -59.361808458816178 17.484440650986727 12.091813324649976 0.52991927123019833 0 -0.84804809178421925 2.1201202294605483 0 1.3247981780754958 1 I I 0 1 2.5 forward I I I I #
face $-1 $139 $140 $47 $-1 $141 reversed single #
loop $-1 $-1 $142 $60 #
plane-surface $-1 -137.90929271674605 30.084122004118793 125.73117330912635 0 1 0 -0.52991927123019833 0 0.84804809178421925 forward_v I I I I #
face $-1 $143 $144 $48 $-1 $145 forward single #
loop $-1 $146 $147 $61 #
cone-surface $-1 -59.361808458816178 36.415010164835607 12.091813324649976 0.52991927123019833 0 -0.84804809178421925 2.1201202294605483 0 1.3247981780754958 1 I I 0 1 2.5 forward I I I I #
face $-1 $148 $149 $49 $-1 $150 reversed single #
loop $-1 $-1 $151 $62 #
plane-surface $-1 34.06819415131109 -11.019822904752786 199.52125214289825 0 -1 0 -0.57357644374324357 0 -0.81915203911291934 forward_v I I I I #
face $-1 $152 $153 $50 $-1 $154 forward single #
loop $-1 $155 $156 $63 #
cone-surface $-1 61.46095056020522 -20.87554129185861 14.185305168624534 -0.57357644374324357 0 -0.81915203911291934 1.228728058669379 0 -0.86036466561486535 1 I I 0 1 1.5 forward I I I I #
face $-1 $157 $158 $51 $-1 $159 forward single #
loop $-1 $160 $161 $64 #
cone-surface $-1 61.46095056020522 -14.962110259595114 14.185305168624534 -0.57357644374324357 0 -0.81915203911291934 1.228728058669379 0 -0.86036466561486535 1 I I 0 1 1.5 forward I I I I #
face $-1 $162 $163 $39 $-1 $164 reversed single #
loop $-1 $-1 $165 $65 #
plane-surface $-1 0 0 -18.949846006225101 0 0 1 1 0 0 forward_v I I I I #
coedge $-1 $166 $167 $168 $169 forward $66 $-1 #
face $-1 $170 $171 $40 $-1 $172 reversed single #
loop $-1 $-1 $173 $68 #
plane-surface $-1 -48.915578204926604 -30.244800346430537 0 0 -1 0 0 0 -1 forward_v I I I I #
coedge $-1 $174 $175 $176 $177 forward $69 $-1 #
face $-1 $178 $179 $41 $-1 $180 reversed single #
loop $-1 $-1 $181 $71 #
plane-surface $-1 -66.951506088442628 -20.376698376711023 12.174979348359713 -0.52991927123019833 0 0.84804809178421925 0.84804809178421925 0 0.52991927123019833 forward_v I I I I #
coedge $-1 $182 $183 $184 $185 reversed $72 $-1 #
face $-1 $-1 $186 $42 $-1 $187 forward single #
loop $-1 $188 $189 $74 #
cone-surface $-1 -56.530738161740111 -20.376698376711026 7.5611538572772758 0.52991927123019833 0 -0.84804809178421925 1.0600601147302742 0 0.66239908903774791 1 I I -0.70710678118654746 0.70710678118654746 1.25 forward I I I I #
loop $-1 $-1 $190 $55 #
coedge $-1 $120 $120 $191 $192 reversed $75 $-1 #
face $-1 $193 $194 $43 $-1 $195 reversed single #
loop $-1 $-1 $196 $77 #
plane-surface $-1 -66.951506088442628 -1.446128862862146 12.174979348359713 -0.52991927123019833 0 0.84804809178421925 0.84804809178421925 0 0.52991927123019833 forward_v I I I I #
coedge $-1 $197 $198 $199 $200 reversed $78 $-1 #
face $-1 $-1 $201 $44 $-1 $202 forward single #
loop $-1 $203 $204 $80 #
cone-surface $-1 -56.530738161740111 -1.4461288628621531 7.5611538572772758 0.52991927123019833 0 -0.84804809178421925 1.0600601147302742 0 0.66239908903774791 1 I I -0.70710678118654746 0.70710678118654746 1.25 forward I I I I #
loop $-1 $-1 $205 $57 #
coedge $-1 $129 $129 $206 $207 reversed $81 $-1 #
face $-1 $208 $209 $45 $-1 $210 reversed single #
loop $-1 $-1 $211 $83 #
plane-surface $-1 -66.951506088442628 17.484440650986727 12.174979348359713 -0.52991927123019833 0 0.84804809178421925 0.84804809178421925 0 0.52991927123019833 forward_v I I I I #
coedge $-1 $212 $213 $214 $215 reversed $84 $-1 #
face $-1 $-1 $216 $46 $-1 $217 forward single #
loop $-1 $218 $219 $86 #
cone-surface $-1 -56.530738161740111 17.484440650986727 7.5611538572772758 0.52991927123019833 0 -0.84804809178421925 1.0600601147302742 0 0.66239908903774791 1 I I -0.70710678118654746 0.70710678118654746 1.25 forward I I I I #
loop $-1 $-1 $220 $59 #
coedge $-1 $138 $138 $221 $222 reversed $87 $-1 #
face $-1 $223 $224 $47 $-1 $225 reversed single #
loop $-1 $-1 $226 $89 #
plane-surface $-1 -66.951506088442628 36.415010164835607 12.174979348359713 -0.52991927123019833 0 0.84804809178421925 0.84804809178421925 0 0.52991927123019833 forward_v I I I I #
coedge $-1 $227 $228 $229 $230 reversed $90 $-1 #
face $-1 $-1 $231 $48 $-1 $232 forward single #
loop $-1 $233 $234 $92 #
cone-surface $-1 -56.530738161740111 36.415010164835607 7.5611538572772758 0.52991927123019833 0 -0.84804809178421925 1.0600601147302742 0 0.66239908903774791 1 I I -0.70710678118654746 0.70710678118654746 1.25 forward I I I I #
loop $-1 $-1 $235 $61 #
coedge $-1 $147 $147 $236 $237 reversed $93 $-1 #
face $-1 $238 $239 $49 $-1 $240 reversed single #
loop $-1 $-1 $241 $95 #
plane-surface $-1 -42.73541937961501 -17.918825775726862 89.834326674840597 0.57357644374324357 0 0.81915203911291934 0.81915203911291934 0 -0.57357644374324357 forward_v I I I I #
coedge $-1 $242 $243 $244 $245 reversed $96 $-1 #
face $-1 $-1 $246 $50 $-1 $247 forward single #
loop $-1 $248 $249 $98 #
cone-surface $-1 59.766911517454673 -20.87554129185861 11.765966732844582 -0.57357644374324357 0 -0.81915203911291934 0.61436402933468948 0 -0.43018233280743268 1 I I -0.70710678118654757 0.70710678118654757 0.75 forward I I I I #
loop $-1 $-1 $250 $63 #
coedge $-1 $156 $156 $251 $252 reversed $99 $-1 #
face $-1 $-1 $253 $51 $-1 $254 forward single #
loop $-1 $255 $256 $101 #
cone-surface $-1 59.766911517454673 -14.962110259595114 11.765966732844582 -0.57357644374324357 0 -0.81915203911291934 0.61436402933468948 0 -0.43018233280743268 1 I I -0.70710678118654757 0.70710678118654757 0.75 forward I I I I #
loop $-1 $-1 $257 $64 #
coedge $-1 $161 $161 $258 $259 reversed $102 $-1 #
face $-1 $260 $261 $39 $-1 $262 reversed single #
loop $-1 $-1 $263 $104 #
plane-surface $-1 0 -46.283112134555111 0 0 1 0 0 0 1 forward_v I I I I #
coedge $-1 $264 $265 $266 $267 forward $105 $-1 #
coedge $-1 $268 $107 $269 $270 forward $66 $-1 #
coedge $-1 $107 $268 $271 $272 forward $66 $-1 #
coedge $-1 $273 $274 $107 $169 reversed $275 $-1 #
edge $-1 $276 -46.283112134555111 $277 46.283112134555111 $168 $278 forward 7 unknown #
face $-1 $279 $280 $40 $-1 $281 forward single #
loop $-1 $-1 $282 $108 #
plane-surface $-1 -45.362315811456114 -38.263956240492824 0 -1 0 0 0 0 1 forward_v I I I I #
coedge $-1 $283 $284 $285 $286 forward $109 $-1 #
coedge $-1 $287 $111 $288 $289 reversed $69 $-1 #
coedge $-1 $111 $287 $290 $291 reversed $69 $-1 #
coedge $-1 $284 $283 $111 $177 reversed $109 $-1 #
edge $-1 $292 -18.949846006225101 $293 18.949846006225101 $176 $294 forward 7 unknown #
face $-1 $295 $296 $41 $-1 $297 reversed single #
loop $-1 $-1 $298 $112 #
plane-surface $-1 -137.90929271674605 -14.045810215994209 125.73117330912635 0 -1 0 0.52991927123019833 0 -0.84804809178421925 forward_v I I I I #
coedge $-1 $299 $300 $301 $302 reversed $113 $-1 #
coedge $-1 $183 $115 $303 $304 reversed $72 $-1 #
coedge $-1 $115 $182 $299 $305 reversed $72 $-1 #
coedge $-1 $301 $306 $115 $185 forward $307 $-1 #
edge $-1 $308 2.003140269930384 $309 12.845193113106674 $184 $310 forward 7 unknown #
loop $-1 $-1 $191 $116 #
plane-surface $-1 -66.951506088442628 -20.376698376711023 12.174979348359713 -0.52991927123019833 0 0.84804809178421925 0.84804809178421925 0 0.52991927123019833 forward_v I I I I #
loop $-1 $-1 $311 $74 #
coedge $-1 $189 $189 $190 $312 reversed $117 $-1 #
coedge $-1 $190 $190 $189 $312 forward $119 $-1 #
coedge $-1 $191 $191 $120 $192 forward $186 $-1 #
edge $-1 $313 0 $313 6.2831853071796004 $191 $314 forward 7 unknown #
face $-1 $315 $316 $43 $-1 $317 forward single #
loop $-1 $-1 $318 $121 #
plane-surface $-1 -137.90929271674605 4.8847592978546679 125.73117330912635 0 -1 0 0.52991927123019833 0 -0.84804809178421925 forward_v I I I I #
coedge $-1 $319 $320 $321 $322 reversed $122 $-1 #
coedge $-1 $198 $124 $323 $324 reversed $78 $-1 #
coedge $-1 $124 $197 $319 $325 reversed $78 $-1 #
coedge $-1 $321 $326 $124 $200 forward $316 $-1 #
edge $-1 $327 2.003140269930384 $328 12.845193113106674 $199 $329 forward 7 unknown #
loop $-1 $-1 $206 $125 #
plane-surface $-1 -66.951506088442628 -1.446128862862146 12.174979348359713 -0.52991927123019833 0 0.84804809178421925 0.84804809178421925 0 0.52991927123019833 forward_v I I I I #
loop $-1 $-1 $330 $80 #
coedge $-1 $204 $204 $205 $331 reversed $126 $-1 #
coedge $-1 $205 $205 $204 $331 forward $128 $-1 #
coedge $-1 $206 $206 $129 $207 forward $201 $-1 #
edge $-1 $332 0 $332 6.2831853071796004 $206 $333 forward 7 unknown #
face $-1 $334 $335 $45 $-1 $336 forward single #
loop $-1 $-1 $337 $130 #
plane-surface $-1 -137.90929271674605 23.815328811703541 125.73117330912635 0 -1 0 0.52991927123019833 0 -0.84804809178421925 forward_v I I I I #
coedge $-1 $338 $339 $340 $341 reversed $131 $-1 #
coedge $-1 $213 $133 $342 $343 reversed $84 $-1 #
coedge $-1 $133 $212 $338 $344 reversed $84 $-1 #
coedge $-1 $340 $345 $133 $215 forward $335 $-1 #
edge $-1 $346 2.003140269930384 $347 12.845193113106674 $214 $348 forward 7 unknown #
loop $-1 $-1 $221 $134 #
plane-surface $-1 -66.951506088442628 17.484440650986727 12.174979348359713 -0.52991927123019833 0 0.84804809178421925 0.84804809178421925 0 0.52991927123019833 forward_v I I I I #
loop $-1 $-1 $349 $86 #
coedge $-1 $219 $219 $220 $350 reversed $135 $-1 #
coedge $-1 $220 $220 $219 $350 forward $137 $-1 #
coedge $-1 $221 $221 $138 $222 forward $216 $-1 #
edge $-1 $351 0 $351 6.2831853071796004 $221 $352 forward 7 unknown #
face $-1 $353 $354 $47 $-1 $355 forward single #
loop $-1 $-1 $356 $139 #
plane-surface $-1 -137.90929271674605 42.745898325552417 125.73117330912635 0 -1 0 0.52991927123019833 0 -0.84804809178421925 forward_v I I I I #
coedge $-1 $357 $358 $359 $360 reversed $140 $-1 #
coedge $-1 $228 $142 $361 $362 reversed $90 $-1 #
coedge $-1 $142 $227 $357 $363 reversed $90 $-1 #
coedge $-1 $359 $364 $142 $230 forward $354 $-1 #
edge $-1 $365 2.003140269930384 $366 12.845193113106674 $229 $367 forward 7 unknown #
loop $-1 $-1 $236 $143 #
plane-surface $-1 -66.951506088442628 36.415010164835607 12.174979348359713 -0.52991927123019833 0 0.84804809178421925 0.84804809178421925 0 0.52991927123019833 forward_v I I I I #
loop $-1 $-1 $368 $92 #
coedge $-1 $234 $234 $235 $369 reversed $144 $-1 #
coedge $-1 $235 $235 $234 $369 forward $146 $-1 #
coedge $-1 $236 $236 $147 $237 forward $231 $-1 #
edge $-1 $370 0 $370 6.2831853071796004 $236 $371 forward 7 unknown #
face $-1 $372 $373 $49 $-1 $374 forward single #
loop $-1 $-1 $375 $148 #
plane-surface $-1 34.06819415131109 -24.817828646700939 199.52125214289825 0 1 0 0.57357644374324357 0 0.81915203911291934 forward_v I I I I #
coedge $-1 $376 $377 $378 $379 reversed $149 $-1 #
coedge $-1 $243 $151 $380 $381 reversed $96 $-1 #
coedge $-1 $151 $242 $376 $382 reversed $96 $-1 #
coedge $-1 $378 $383 $151 $245 forward $373 $-1 #
edge $-1 $384 -49.917409012787097 $385 -41.464011376198506 $244 $386 forward 7 unknown #
loop $-1 $-1 $251 $152 #
plane-surface $-1 -42.73541937961501 -17.918825775726862 89.834326674840597 0.57357644374324357 0 0.81915203911291934 0.81915203911291934 0 -0.57357644374324357 forward_v I I I I #
loop $-1 $-1 $387 $98 #
coedge $-1 $249 $249 $250 $388 reversed $153 $-1 #
coedge $-1 $250 $250 $249 $388 forward $155 $-1 #
coedge $-1 $251 $251 $156 $252 forward $246 $-1 #
edge $-1 $389 0 $389 6.2831853071796004 $251 $390 forward 7 unknown #
loop $-1 $-1 $258 $157 #
plane-surface $-1 -42.73541937961501 -17.918825775726862 89.834326674840597 0.57357644374324357 0 0.81915203911291934 0.81915203911291934 0 -0.57357644374324357 forward_v I I I I #
loop $-1 $-1 $391 $101 #
coedge $-1 $256 $256 $257 $392 reversed $158 $-1 #
coedge $-1 $257 $257 $256 $392 forward $160 $-1 #
coedge $-1 $258 $258 $161 $259 forward $253 $-1 #
edge $-1 $393 0 $393 6.2831853071796004 $258 $394 forward 7 unknown #
face $-1 $395 $396 $39 $-1 $397 reversed single #
loop $-1 $-1 $398 $162 #
plane-surface $-1 -66.951506088442642 0 0 1 0 0 0 0 -1 forward_v I I I I #
coedge $-1 $399 $271 $400 $401 forward $163 $-1 #
coedge $-1 $402 $165 $399 $403 forward $105 $-1 #
coedge $-1 $165 $402 $404 $405 forward $105 $-1 #
coedge $-1 $274 $273 $165 $267 reversed $275 $-1 #
edge $-1 $406 -46.283112134555111 $407 46.283112134555111 $266 $408 forward 7 unknown #
coedge $-1 $167 $166 $409 $410 forward $66 $-1 #
coedge $-1 $411 $412 $166 $270 reversed $396 $-1 #
edge $-1 $277 -66.951506088442642 $413 66.951506088442642 $269 $414 forward 7 unknown #
coedge $-1 $263 $415 $167 $272 reversed $163 $-1 #
edge $-1 $416 -66.951506088442642 $276 66.951506088442642 $271 $417 forward 7 unknown #
coedge $-1 $266 $168 $415 $418 forward $275 $-1 #
coedge $-1 $168 $266 $411 $419 reversed $275 $-1 #
loop $-1 $-1 $273 $395 #
vertex $-1 $169 $420 #
vertex $-1 $169 $421 #
straight-curve $-1 66.951506088442642 0 18.949846006225101 0 1 0 I I #
face $-1 $422 $423 $40 $-1 $424 reversed single #
loop $-1 $-1 $425 $170 #
plane-surface $-1 0 0 18.949846006225101 0 0 1 1 0 0 forward_v I I I I #
coedge $-1 $426 $427 $428 $429 reversed $171 $-1 #
coedge $-1 $176 $173 $430 $431 reversed $109 $-1 #
coedge $-1 $173 $176 $432 $433 reversed $109 $-1 #
coedge $-1 $427 $426 $173 $286 reversed $171 $-1 #
edge $-1 $434 -18.949846006225101 $435 18.949846006225101 $285 $436 forward 7 unknown #
coedge $-1 $175 $174 $437 $438 reversed $69 $-1 #
coedge $-1 $430 $439 $174 $289 forward $423 $-1 #
edge $-1 $440 -27.151134014308699 $293 -11.112822226184125 $288 $441 forward 7 unknown #
coedge $-1 $442 $432 $175 $291 forward $280 $-1 #
edge $-1 $292 11.112822226184125 $443 27.151134014308699 $290 $444 forward 7 unknown #
vertex $-1 $291 $445 #
vertex $-1 $289 $446 #
straight-curve $-1 -52.468840598397094 -30.244800346430537 0 0 0 -1 I I #
face $-1 $-1 $307 $41 $-1 $447 forward single #
loop $-1 $-1 $448 $178 #
plane-surface $-1 -66.951506088442642 0 0 1 0 0 0 0 -1 forward_v I I I I #
coedge $-1 $449 $450 $451 $452 reversed $179 $-1 #
coedge $-1 $453 $181 $183 $305 forward $113 $-1 #
coedge $-1 $181 $453 $449 $454 forward $113 $-1 #
coedge $-1 $451 $184 $181 $302 forward $307 $-1 #
edge $-1 $309 -16.519237349072327 $455 -3.8574610276386974 $301 $456 forward 7 unknown #
coedge $-1 $457 $458 $182 $304 forward $296 $-1 #
edge $-1 $459 -50.690607306203468 $308 -43.915740648338073 $303 $460 forward 7 unknown #
edge $-1 $309 -12.784714626697106 $459 1.675811683274863e-014 $183 $461 forward 7 unknown #
coedge $-1 $184 $451 $457 $462 forward $307 $-1 #
loop $-1 $-1 $451 $295 #
vertex $-1 $304 $463 #
vertex $-1 $185 $464 #
straight-curve $-1 -68.954646358373026 -26.707586537427837 18.949846006225101 1 0 0 I I #
coedge $-1 $311 $311 $-1 $465 reversed $188 $-1 #
edge $-1 $466 0 $466 6.2831853071796004 $189 $467 forward 7 unknown #
vertex $-1 $192 $468 #
ellipse-curve $-1 -61.530479666854497 -20.376698376711026 15.562412677292404 -0.52991927123019833 0 0.84804809178421925 2.1201202294605483 0 1.3247981780754958 1 I I #
face $-1 $-1 $469 $43 $-1 $470 reversed single #
loop $-1 $-1 $199 $193 #
plane-surface $-1 0 0 18.949846006225101 0 0 1 1 0 0 forward_v I I I I #
coedge $-1 $471 $472 $473 $474 reversed $194 $-1 #
coedge $-1 $475 $196 $198 $325 forward $122 $-1 #
coedge $-1 $196 $475 $471 $476 forward $122 $-1 #
coedge $-1 $473 $199 $196 $322 forward $316 $-1 #
edge $-1 $328 -7.0539525921478869 $477 5.6078237292857409 $321 $478 forward 7 unknown #
coedge $-1 $479 $480 $197 $324 forward $469 $-1 #
edge $-1 $481 -50.690607306203468 $327 -43.915740648338073 $323 $482 forward 7 unknown #
edge $-1 $328 -12.784714626697106 $481 1.675811683274863e-014 $198 $483 forward 7 unknown #
coedge $-1 $199 $473 $479 $484 forward $316 $-1 #
vertex $-1 $324 $485 #
vertex $-1 $200 $486 #
straight-curve $-1 -68.954646358373026 -7.77701702357896 18.949846006225101 1 0 0 I I #
coedge $-1 $330 $330 $-1 $487 reversed $203 $-1 #
edge $-1 $488 0 $488 6.2831853071796004 $204 $489 forward 7 unknown #
vertex $-1 $207 $490 #
ellipse-curve $-1 -61.530479666854497 -1.4461288628621531 15.562412677292404 -0.52991927123019833 0 0.84804809178421925 2.1201202294605483 0 1.3247981780754958 1 I I #
face $-1 $-1 $491 $45 $-1 $492 reversed single #
loop $-1 $-1 $214 $208 #
plane-surface $-1 0 0 18.949846006225101 0 0 1 1 0 0 forward_v I I I I #
coedge $-1 $493 $494 $495 $496 reversed $209 $-1 #
coedge $-1 $497 $211 $213 $344 forward $131 $-1 #
coedge $-1 $211 $497 $493 $498 forward $131 $-1 #
coedge $-1 $495 $214 $211 $341 forward $335 $-1 #
edge $-1 $347 2.4113321647765495 $499 15.073108486210177 $340 $500 forward 7 unknown #
coedge $-1 $501 $502 $212 $343 forward $491 $-1 #
edge $-1 $503 -50.690607306203468 $346 -43.915740648338073 $342 $504 forward 7 unknown #
edge $-1 $347 -12.784714626697106 $503 1.675811683274863e-014 $213 $505 forward 7 unknown #
coedge $-1 $214 $495 $501 $506 forward $335 $-1 #
vertex $-1 $215 $507 #
vertex $-1 $215 $508 #
straight-curve $-1 -68.954646358373026 11.153552490269913 18.949846006225101 1 0 0 I I #
coedge $-1 $349 $349 $-1 $509 reversed $218 $-1 #
edge $-1 $510 0 $510 6.2831853071796004 $219 $511 forward 7 unknown #
vertex $-1 $222 $512 #
ellipse-curve $-1 -61.530479666854497 17.484440650986727 15.562412677292404 -0.52991927123019833 0 0.84804809178421925 2.1201202294605483 0 1.3247981780754958 1 I I #
face $-1 $-1 $513 $47 $-1 $514 reversed single #
loop $-1 $-1 $229 $223 #
plane-surface $-1 0 0 18.949846006225101 0 0 1 1 0 0 forward_v I I I I #
coedge $-1 $515 $516 $517 $518 reversed $224 $-1 #
coedge $-1 $519 $226 $228 $363 forward $140 $-1 #
coedge $-1 $226 $519 $515 $520 forward $140 $-1 #
coedge $-1 $517 $229 $226 $360 forward $354 $-1 #
edge $-1 $366 11.87661692170099 $521 24.538393243134614 $359 $522 forward 7 unknown #
coedge $-1 $523 $524 $227 $362 forward $513 $-1 #
edge $-1 $525 -50.690607306203468 $365 -43.915740648338073 $361 $526 forward 7 unknown #
edge $-1 $366 -12.784714626697106 $525 1.675811683274863e-014 $228 $527 forward 7 unknown #
coedge $-1 $229 $517 $523 $528 forward $354 $-1 #
vertex $-1 $230 $529 #
vertex $-1 $230 $530 #
straight-curve $-1 -68.954646358373026 30.084122004118793 18.949846006225101 1 0 0 I I #
coedge $-1 $368 $368 $-1 $531 reversed $233 $-1 #
edge $-1 $532 0 $532 6.2831853071796004 $234 $533 forward 7 unknown #
vertex $-1 $237 $534 #
ellipse-curve $-1 -61.530479666854497 36.415010164835607 15.562412677292404 -0.52991927123019833 0 0.84804809178421925 2.1201202294605483 0 1.3247981780754958 1 I I #
face $-1 $-1 $535 $49 $-1 $536 reversed single #
loop $-1 $-1 $244 $238 #
plane-surface $-1 0 0 18.949846006225101 0 0 1 1 0 0 forward_v I I I I #
coedge $-1 $537 $538 $539 $540 reversed $239 $-1 #
coedge $-1 $541 $241 $243 $382 forward $149 $-1 #
coedge $-1 $241 $541 $537 $542 forward $149 $-1 #
coedge $-1 $539 $244 $241 $379 forward $373 $-1 #
edge $-1 $385 2.0604100168893549 $543 15.858415758837507 $378 $544 forward 7 unknown #
coedge $-1 $545 $546 $242 $381 forward $535 $-1 #
edge $-1 $547 -86.729912927534627 $384 -80.810780065224023 $380 $548 forward 7 unknown #
edge $-1 $385 123.58331908823354 $547 133.90301217688528 $243 $549 forward 7 unknown #
coedge $-1 $244 $539 $545 $550 forward $373 $-1 #
vertex $-1 $381 $551 #
vertex $-1 $245 $552 #
straight-curve $-1 17.034097075655545 -11.019822904752786 18.949846006225101 -1 0 0 I I #
coedge $-1 $387 $387 $-1 $553 reversed $248 $-1 #
edge $-1 $554 0 $554 6.2831853071796004 $249 $555 forward 7 unknown #
vertex $-1 $252 $556 #
ellipse-curve $-1 62.724807270148332 -20.87554129185861 15.990279575069803 0.57357644374324357 0 0.81915203911291934 1.228728058669379 0 -0.86036466561486535 1 I I #
coedge $-1 $391 $391 $-1 $557 reversed $255 $-1 #
edge $-1 $558 0 $558 6.2831853071796004 $256 $559 forward 7 unknown #
vertex $-1 $259 $560 #
ellipse-curve $-1 62.724807270148332 -14.962110259595114 15.990279575069803 0.57357644374324357 0 0.81915203911291934 1.228728058669379 0 -0.86036466561486535 1 I I #
face $-1 $-1 $275 $39 $-1 $561 reversed single #
loop $-1 $-1 $411 $260 #
plane-surface $-1 0 46.283112134555111 0 0 -1 0 0 0 -1 forward_v I I I I #
coedge $-1 $562 $409 $412 $563 forward $261 $-1 #
coedge $-1 $415 $263 $264 $403 reversed $163 $-1 #
coedge $-1 $409 $562 $263 $401 reversed $261 $-1 #
edge $-1 $416 -18.949846006225101 $564 18.949846006225101 $400 $565 forward 7 unknown #
coedge $-1 $265 $264 $562 $566 forward $105 $-1 #
edge $-1 $407 -66.951506088442642 $564 66.951506088442642 $399 $567 forward 7 unknown #
coedge $-1 $412 $411 $265 $405 reversed $396 $-1 #
edge $-1 $568 -66.951506088442642 $406 66.951506088442642 $404 $569 forward 7 unknown #
vertex $-1 $267 $570 #
vertex $-1 $418 $571 #
straight-curve $-1 66.951506088442642 0 -18.949846006225101 0 -1 0 I I #
coedge $-1 $398 $400 $268 $410 reversed $261 $-1 #
edge $-1 $413 -46.283112134555111 $416 46.283112134555111 $409 $572 forward 7 unknown #
coedge $-1 $404 $269 $274 $419 forward $396 $-1 #
coedge $-1 $269 $404 $398 $563 reversed $396 $-1 #
vertex $-1 $270 $573 #
straight-curve $-1 0 46.283112134555111 18.949846006225101 -1 0 0 I I #
coedge $-1 $271 $399 $273 $418 reversed $163 $-1 #
vertex $-1 $410 $574 #
straight-curve $-1 0 -46.283112134555111 18.949846006225101 1 0 0 I I #
edge $-1 $276 -18.949846006225101 $407 18.949846006225101 $273 $575 forward 7 unknown #
edge $-1 $277 -18.949846006225101 $406 18.949846006225101 $274 $576 forward 7 unknown #
point $-1 66.951506088442642 -46.283112134555111 18.949846006225101 #
point $-1 66.951506088442642 46.283112134555111 18.949846006225101 #
face $-1 $-1 $577 $40 $-1 $578 reversed single #
loop $-1 $-1 $579 $279 #
plane-surface $-1 0 0 -18.949846006225101 0 0 1 1 0 0 forward_v I I I I #
coedge $-1 $432 $442 $427 $580 forward $280 $-1 #
coedge $-1 $285 $282 $579 $581 reversed $171 $-1 #
coedge $-1 $282 $285 $425 $580 reversed $171 $-1 #
coedge $-1 $582 $583 $282 $429 forward $577 $-1 #
edge $-1 $584 -18.949846006225101 $585 18.949846006225101 $428 $586 forward 7 unknown #
coedge $-1 $579 $288 $283 $431 forward $423 $-1 #
edge $-1 $293 -28.011051495933792 $435 -20.904526708992812 $430 $587 forward 7 unknown #
coedge $-1 $290 $425 $284 $433 forward $280 $-1 #
edge $-1 $434 20.904526708992812 $292 28.011051495933792 $432 $588 forward 7 unknown #
vertex $-1 $433 $589 #
vertex $-1 $431 $590 #
straight-curve $-1 -45.362315811456114 -30.244800346430537 0 0 0 -1 I I #
coedge $-1 $583 $582 $287 $438 forward $577 $-1 #
edge $-1 $443 -18.949846006225101 $440 18.949846006225101 $437 $591 forward 7 unknown #
coedge $-1 $288 $579 $583 $592 forward $423 $-1 #
vertex $-1 $289 $593 #
straight-curve $-1 -52.468840598397094 -19.131978120246412 -18.949846006225101 0 1 0 I I #
coedge $-1 $425 $290 $582 $594 forward $280 $-1 #
vertex $-1 $594 $595 #
straight-curve $-1 -52.468840598397094 -19.131978120246412 18.949846006225101 0 -1 0 I I #
point $-1 -52.468840598397094 -30.244800346430537 18.949846006225101 #
point $-1 -52.468840598397094 -30.244800346430537 -18.949846006225101 #
plane-surface $-1 0 0 18.949846006225101 0 0 1 1 0 0 forward_v I I I I #
coedge $-1 $458 $457 $450 $596 forward $296 $-1 #
coedge $-1 $450 $298 $300 $454 reversed $179 $-1 #
coedge $-1 $298 $449 $448 $596 reversed $179 $-1 #
coedge $-1 $306 $301 $298 $452 forward $307 $-1 #
edge $-1 $455 -12.845193113106674 $597 -2.003140269930384 $451 $598 forward 7 unknown #
coedge $-1 $300 $299 $458 $599 reversed $113 $-1 #
edge $-1 $600 -1.675811683274863e-014 $455 12.784714626697106 $449 $601 forward 7 unknown #
vertex $-1 $302 $602 #
straight-curve $-1 -56.109453245266351 -10.188349188355511 18.949846006225101 0 1 0 I I #
coedge $-1 $448 $303 $306 $462 reversed $296 $-1 #
coedge $-1 $303 $448 $453 $599 forward $296 $-1 #
vertex $-1 $304 $603 #
straight-curve $-1 -66.951506088442642 -26.707586537427837 62.865586654563174 0 0 1 I I #
straight-curve $-1 -66.951506088442628 -26.707586537427837 12.174979348359713 -0.84804809178421925 0 -0.52991927123019833 I I #
edge $-1 $597 14.045810215994209 $308 26.707586537427837 $457 $604 forward 7 unknown #
point $-1 -66.951506088442642 -26.707586537427837 18.949846006225101 #
point $-1 -56.109453245266351 -26.707586537427837 18.949846006225101 #
edge $-1 $605 1 $605 0 $311 $-1 forward 7 unknown #
vertex $-1 $312 $606 #
ellipse-curve $-1 -57.193137250777859 -20.376698376711026 8.6212139720075491 -0.52991927123019833 0 0.84804809178421925 2.1201202294605483 0 1.3247981780754958 1 I I #
point $-1 -59.410359437393943 -20.376698376711026 16.887210855367897 #
loop $-1 $-1 $323 $315 #
plane-surface $-1 -66.951506088442642 0 0 1 0 0 0 0 -1 forward_v I I I I #
coedge $-1 $472 $318 $320 $476 reversed $194 $-1 #
coedge $-1 $318 $471 $607 $608 reversed $194 $-1 #
coedge $-1 $326 $321 $318 $474 forward $316 $-1 #
edge $-1 $477 -12.845193113106674 $609 -2.003140269930384 $473 $610 forward 7 unknown #
coedge $-1 $320 $319 $480 $611 reversed $122 $-1 #
edge $-1 $612 -1.675811683274863e-014 $477 12.784714626697106 $471 $613 forward 7 unknown #
vertex $-1 $322 $614 #
straight-curve $-1 -56.109453245266351 -0.72306443143107302 18.949846006225101 0 1 0 I I #
coedge $-1 $607 $323 $326 $484 reversed $469 $-1 #
coedge $-1 $323 $607 $475 $611 forward $469 $-1 #
vertex $-1 $324 $615 #
straight-curve $-1 -66.951506088442642 -7.77701702357896 62.865586654563174 0 0 1 I I #
straight-curve $-1 -66.951506088442628 -7.77701702357896 12.174979348359713 -0.84804809178421925 0 -0.52991927123019833 I I #
edge $-1 $609 -4.8847592978546679 $327 7.77701702357896 $479 $616 forward 7 unknown #
point $-1 -66.951506088442642 -7.77701702357896 18.949846006225101 #
point $-1 -56.109453245266351 -7.77701702357896 18.949846006225101 #
edge $-1 $617 1 $617 0 $330 $-1 forward 7 unknown #
vertex $-1 $331 $618 #
ellipse-curve $-1 -57.193137250777859 -1.4461288628621531 8.6212139720075491 -0.52991927123019833 0 0.84804809178421925 2.1201202294605483 0 1.3247981780754958 1 I I #
point $-1 -59.410359437393943 -1.4461288628621531 16.887210855367897 #
loop $-1 $-1 $342 $334 #
plane-surface $-1 -66.951506088442642 0 0 1 0 0 0 0 -1 forward_v I I I I #
coedge $-1 $494 $337 $339 $498 reversed $209 $-1 #
coedge $-1 $337 $493 $619 $620 reversed $209 $-1 #
coedge $-1 $345 $340 $337 $496 forward $335 $-1 #
edge $-1 $499 -12.845193113106674 $621 -2.003140269930384 $495 $622 forward 7 unknown #
coedge $-1 $339 $338 $502 $623 reversed $131 $-1 #
edge $-1 $624 -1.675811683274863e-014 $499 12.784714626697106 $493 $625 forward 7 unknown #
vertex $-1 $341 $626 #
straight-curve $-1 -56.109453245266351 8.7422203254933635 18.949846006225101 0 1 0 I I #
coedge $-1 $619 $342 $345 $506 reversed $491 $-1 #
coedge $-1 $342 $619 $497 $623 forward $491 $-1 #
vertex $-1 $343 $627 #
straight-curve $-1 -66.951506088442642 11.153552490269913 62.865586654563174 0 0 1 I I #
straight-curve $-1 -66.951506088442628 11.153552490269913 12.174979348359713 -0.84804809178421925 0 -0.52991927123019833 I I #
edge $-1 $621 -23.815328811703541 $346 -11.153552490269913 $501 $628 forward 7 unknown #
point $-1 -66.951506088442642 11.153552490269913 18.949846006225101 #
point $-1 -56.109453245266351 11.153552490269913 18.949846006225101 #
edge $-1 $629 1 $629 0 $349 $-1 forward 7 unknown #
vertex $-1 $350 $630 #
ellipse-curve $-1 -57.193137250777859 17.484440650986727 8.6212139720075491 -0.52991927123019833 0 0.84804809178421925 2.1201202294605483 0 1.3247981780754958 1 I I #
point $-1 -59.410359437393943 17.484440650986727 16.887210855367897 #
loop $-1 $-1 $361 $353 #
plane-surface $-1 -66.951506088442642 0 0 1 0 0 0 0 -1 forward_v I I I I #
coedge $-1 $516 $356 $358 $520 reversed $224 $-1 #
coedge $-1 $356 $515 $631 $632 reversed $224 $-1 #
coedge $-1 $364 $359 $356 $518 forward $354 $-1 #
edge $-1 $521 -12.845193113106674 $633 -2.003140269930384 $517 $634 forward 7 unknown #
coedge $-1 $358 $357 $524 $635 reversed $140 $-1 #
edge $-1 $636 -1.675811683274863e-014 $521 12.784714626697106 $515 $637 forward 7 unknown #
vertex $-1 $360 $638 #
straight-curve $-1 -56.109453245266351 18.207505082417804 18.949846006225101 0 1 0 I I #
coedge $-1 $631 $361 $364 $528 reversed $513 $-1 #
coedge $-1 $361 $631 $519 $635 forward $513 $-1 #
vertex $-1 $362 $639 #
straight-curve $-1 -66.951506088442642 30.084122004118793 62.865586654563174 0 0 1 I I #
straight-curve $-1 -66.951506088442628 30.084122004118793 12.174979348359713 -0.84804809178421925 0 -0.52991927123019833 I I #
edge $-1 $633 -42.745898325552417 $365 -30.084122004118793 $523 $640 forward 7 unknown #
point $-1 -66.951506088442642 30.084122004118793 18.949846006225101 #
point $-1 -56.109453245266351 30.084122004118793 18.949846006225101 #
edge $-1 $641 1 $641 0 $368 $-1 forward 7 unknown #
vertex $-1 $369 $642 #
ellipse-curve $-1 -57.193137250777859 36.415010164835607 8.6212139720075491 -0.52991927123019833 0 0.84804809178421925 2.1201202294605483 0 1.3247981780754958 1 I I #
point $-1 -59.410359437393943 36.415010164835607 16.887210855367897 #
loop $-1 $-1 $380 $372 #
plane-surface $-1 66.951506088442642 0 0 -1 0 0 0 0 1 forward_v I I I I #
coedge $-1 $538 $375 $377 $542 reversed $239 $-1 #
coedge $-1 $375 $537 $643 $644 reversed $239 $-1 #
coedge $-1 $383 $378 $375 $540 forward $373 $-1 #
edge $-1 $543 41.464011376198506 $645 49.917409012787097 $539 $646 forward 7 unknown #
coedge $-1 $377 $376 $546 $647 reversed $149 $-1 #
edge $-1 $648 -133.90301217688528 $543 -123.58331908823354 $537 $649 forward 7 unknown #
vertex $-1 $379 $650 #
straight-curve $-1 58.498108451854023 -8.9594128878634312 18.949846006225108 0 -1 0 I I #
coedge $-1 $643 $380 $383 $550 reversed $535 $-1 #
coedge $-1 $380 $643 $541 $647 forward $535 $-1 #
vertex $-1 $381 $651 #
straight-curve $-1 66.951506088442642 -11.019822904752786 99.760626071449124 0 0 1 I I #
straight-curve $-1 -42.73541937961501 -11.019822904752786 89.834326674840597 0.81915203911291934 0 -0.57357644374324357 I I #
edge $-1 $645 -24.817828646700939 $384 -11.019822904752786 $545 $652 forward 7 unknown #
point $-1 66.951506088442642 -11.019822904752786 18.949846006225101 #
point $-1 58.498108451854051 -11.019822904752786 18.949846006225101 #
edge $-1 $653 1 $653 0 $387 $-1 forward 7 unknown #
vertex $-1 $388 $654 #
ellipse-curve $-1 60.197093850262107 -20.87554129185861 12.380330762179272 0.57357644374324357 0 0.81915203911291934 1.228728058669379 0 -0.86036466561486535 1 I I #
point $-1 63.953535328817708 -20.87554129185861 15.12991490945493 #
edge $-1 $655 1 $655 0 $391 $-1 forward 7 unknown #
vertex $-1 $392 $656 #
ellipse-curve $-1 60.197093850262107 -14.962110259595114 12.380330762179272 0.57357644374324357 0 0.81915203911291934 1.228728058669379 0 -0.86036466561486535 1 I I #
point $-1 63.953535328817708 -14.962110259595114 15.12991490945493 #
plane-surface $-1 66.951506088442642 0 0 -1 0 0 0 0 1 forward_v I I I I #
coedge $-1 $400 $398 $402 $566 reversed $261 $-1 #
edge $-1 $413 -18.949846006225101 $568 18.949846006225101 $412 $657 forward 7 unknown #
vertex $-1 $566 $658 #
straight-curve $-1 -66.951506088442642 -46.283112134555111 0 0 0 -1 I I #
edge $-1 $564 -46.283112134555111 $568 46.283112134555111 $562 $659 forward 7 unknown #
straight-curve $-1 0 -46.283112134555111 -18.949846006225101 -1 0 0 I I #
vertex $-1 $405 $660 #
straight-curve $-1 0 46.283112134555111 -18.949846006225101 1 0 0 I I #
point $-1 66.951506088442642 46.283112134555111 -18.949846006225101 #
point $-1 66.951506088442642 -46.283112134555111 -18.949846006225101 #
straight-curve $-1 -66.951506088442642 0 18.949846006225101 0 -1 0 I I #
point $-1 -66.951506088442642 46.283112134555111 18.949846006225101 #
point $-1 -66.951506088442642 -46.283112134555111 18.949846006225101 #
straight-curve $-1 66.951506088442642 -46.283112134555111 0 0 0 -1 I I #
straight-curve $-1 66.951506088442642 46.283112134555111 0 0 0 -1 I I #
loop $-1 $-1 $428 $422 #
plane-surface $-1 0 -46.283112134555111 0 0 1 0 0 0 1 forward_v I I I I #
coedge $-1 $439 $430 $426 $581 forward $423 $-1 #
edge $-1 $585 -27.151134014308699 $434 -11.112822226184125 $425 $661 forward 7 unknown #
edge $-1 $435 11.112822226184125 $584 27.151134014308699 $579 $662 forward 7 unknown #
coedge $-1 $437 $428 $442 $594 reversed $577 $-1 #
coedge $-1 $428 $437 $439 $592 reversed $577 $-1 #
vertex $-1 $592 $663 #
vertex $-1 $429 $664 #
straight-curve $-1 -45.362315811456114 -46.283112134555111 0 0 0 1 I I #
straight-curve $-1 -24.457789102463302 -30.244800346430537 -18.949846006225101 1 0 0 I I #
straight-curve $-1 -24.457789102463302 -30.244800346430537 18.949846006225101 -1 0 0 I I #
point $-1 -45.362315811456114 -30.244800346430537 18.949846006225101 #
point $-1 -45.362315811456114 -30.244800346430537 -18.949846006225101 #
straight-curve $-1 -52.468840598397094 -46.283112134555111 0 0 0 -1 I I #
edge $-1 $584 45.362315811456114 $440 52.468840598397094 $583 $665 forward 7 unknown #
point $-1 -52.468840598397094 -46.283112134555111 -18.949846006225101 #
edge $-1 $443 -52.468840598397094 $585 -45.362315811456114 $582 $666 forward 7 unknown #
point $-1 -52.468840598397094 -46.283112134555111 18.949846006225101 #
edge $-1 $597 43.915740648338073 $600 50.690607306203468 $448 $667 forward 7 unknown #
vertex $-1 $462 $668 #
straight-curve $-1 -68.954646358373026 -14.045810215994209 18.949846006225101 -1 0 0 I I #
edge $-1 $600 3.8574610276386974 $459 16.519237349072327 $458 $669 forward 7 unknown #
vertex $-1 $599 $670 #
straight-curve $-1 -66.951506088442628 -14.045810215994209 12.174979348359713 0.84804809178421925 0 0.52991927123019833 I I #
point $-1 -56.109453245266351 -14.045810215994209 18.949846006225101 #
point $-1 -66.951506088442642 -26.707586537427837 12.174979348359704 #
straight-curve $-1 -66.951506088442642 0 18.949846006225101 0 -1 0 I I #
vertex $-1 $465 $671 #
point $-1 -55.073017021317312 -20.376698376711026 9.9460121500830461 #
coedge $-1 $480 $479 $472 $608 forward $469 $-1 #
edge $-1 $609 43.915740648338073 $612 50.690607306203468 $607 $672 forward 7 unknown #
vertex $-1 $484 $673 #
straight-curve $-1 -68.954646358373026 4.8847592978546679 18.949846006225101 -1 0 0 I I #
edge $-1 $612 -5.6078237292857409 $481 7.0539525921478869 $480 $674 forward 7 unknown #
vertex $-1 $611 $675 #
straight-curve $-1 -66.951506088442628 4.8847592978546679 12.174979348359713 0.84804809178421925 0 0.52991927123019833 I I #
point $-1 -56.109453245266351 4.8847592978546679 18.949846006225101 #
point $-1 -66.951506088442642 -7.77701702357896 12.174979348359704 #
straight-curve $-1 -66.951506088442642 0 18.949846006225101 0 -1 0 I I #
vertex $-1 $487 $676 #
point $-1 -55.073017021317312 -1.4461288628621531 9.9460121500830461 #
coedge $-1 $502 $501 $494 $620 forward $491 $-1 #
edge $-1 $621 43.915740648338073 $624 50.690607306203468 $619 $677 forward 7 unknown #
vertex $-1 $506 $678 #
straight-curve $-1 -68.954646358373026 23.815328811703541 18.949846006225101 -1 0 0 I I #
edge $-1 $624 -15.073108486210177 $503 -2.4113321647765495 $502 $679 forward 7 unknown #
vertex $-1 $623 $680 #
straight-curve $-1 -66.951506088442628 23.815328811703541 12.174979348359713 0.84804809178421925 0 0.52991927123019833 I I #
point $-1 -56.109453245266351 23.815328811703541 18.949846006225101 #
point $-1 -66.951506088442642 11.153552490269913 12.174979348359704 #
straight-curve $-1 -66.951506088442642 0 18.949846006225101 0 -1 0 I I #
vertex $-1 $509 $681 #
point $-1 -55.073017021317312 17.484440650986727 9.9460121500830461 #
coedge $-1 $524 $523 $516 $632 forward $513 $-1 #
edge $-1 $633 43.915740648338073 $636 50.690607306203468 $631 $682 forward 7 unknown #
vertex $-1 $528 $683 #
straight-curve $-1 -68.954646358373026 42.745898325552417 18.949846006225101 -1 0 0 I I #
edge $-1 $636 -24.538393243134614 $525 -11.87661692170099 $524 $684 forward 7 unknown #
vertex $-1 $635 $685 #
straight-curve $-1 -66.951506088442628 42.745898325552417 12.174979348359713 0.84804809178421925 0 0.52991927123019833 I I #
point $-1 -56.109453245266351 42.745898325552417 18.949846006225101 #
point $-1 -66.951506088442642 30.084122004118793 12.174979348359704 #
straight-curve $-1 -66.951506088442642 0 18.949846006225101 0 -1 0 I I #
vertex $-1 $531 $686 #
point $-1 -55.073017021317312 36.415010164835607 9.9460121500830461 #
coedge $-1 $546 $545 $538 $644 forward $535 $-1 #
edge $-1 $645 80.810780065224023 $648 86.729912927534627 $643 $687 forward 7 unknown #
vertex $-1 $550 $688 #
straight-curve $-1 17.034097075655545 -24.817828646700939 18.949846006225101 1 0 0 I I #
edge $-1 $648 -15.858415758837507 $547 -2.0604100168893549 $546 $689 forward 7 unknown #
vertex $-1 $647 $690 #
straight-curve $-1 -42.73541937961501 -24.817828646700939 89.834326674840597 -0.81915203911291934 0 0.57357644374324357 I I #
point $-1 58.498108451854051 -24.817828646700939 18.949846006225101 #
point $-1 66.951506088442642 -11.019822904752786 13.030713143914497 #
straight-curve $-1 66.951506088442642 0 18.949846006225101 0 1 0 I I #
vertex $-1 $553 $691 #
point $-1 61.425821908931482 -20.87554129185861 11.519966096564406 #
vertex $-1 $557 $692 #
point $-1 61.425821908931482 -14.962110259595114 11.519966096564406 #
straight-curve $-1 -66.951506088442642 46.283112134555111 0 0 0 -1 I I #
point $-1 -66.951506088442642 -46.283112134555111 -18.949846006225101 #
straight-curve $-1 -66.951506088442642 0 -18.949846006225101 0 1 0 I I #
point $-1 -66.951506088442642 46.283112134555111 -18.949846006225101 #
straight-curve $-1 -45.362315811456114 -19.131978120246412 18.949846006225101 0 1 0 I I #
straight-curve $-1 -45.362315811456114 -19.131978120246412 -18.949846006225101 0 -1 0 I I #
point $-1 -45.362315811456114 -46.283112134555111 -18.949846006225101 #
point $-1 -45.362315811456114 -46.283112134555111 18.949846006225101 #
straight-curve $-1 0 -46.283112134555111 -18.949846006225101 -1 0 0 I I #
straight-curve $-1 0 -46.283112134555111 18.949846006225101 1 0 0 I I #
straight-curve $-1 -66.951506088442642 -14.045810215994209 62.865586654563174 0 0 -1 I I #
point $-1 -66.951506088442642 -14.045810215994209 18.949846006225101 #
straight-curve $-1 -66.951506088442642 -10.188349188355511 12.174979348359704 0 -1 0 I I #
point $-1 -66.951506088442642 -14.045810215994209 12.174979348359704 #
point $-1 -55.868339072702362 -20.376698376711026 6.5010937425470017 #
straight-curve $-1 -66.951506088442642 4.8847592978546679 62.865586654563174 0 0 -1 I I #
point $-1 -66.951506088442642 4.8847592978546679 18.949846006225101 #
straight-curve $-1 -66.951506088442642 -0.72306443143107302 12.174979348359704 0 -1 0 I I #
point $-1 -66.951506088442642 4.8847592978546679 12.174979348359704 #
point $-1 -55.868339072702362 -1.4461288628621531 6.5010937425470017 #
straight-curve $-1 -66.951506088442642 23.815328811703541 62.865586654563174 0 0 -1 I I #
point $-1 -66.951506088442642 23.815328811703541 18.949846006225101 #
straight-curve $-1 -66.951506088442642 8.7422203254933635 12.174979348359704 0 -1 0 I I #
point $-1 -66.951506088442642 23.815328811703541 12.174979348359704 #
point $-1 -55.868339072702362 17.484440650986727 6.5010937425470017 #
straight-curve $-1 -66.951506088442642 42.745898325552417 62.865586654563174 0 0 -1 I I #
point $-1 -66.951506088442642 42.745898325552417 18.949846006225101 #
straight-curve $-1 -66.951506088442642 18.207505082417804 12.174979348359704 0 -1 0 I I #
point $-1 -66.951506088442642 42.745898325552417 12.174979348359704 #
point $-1 -55.868339072702362 36.415010164835607 6.5010937425470017 #
straight-curve $-1 66.951506088442642 -24.817828646700939 99.760626071449124 0 0 -1 I I #
point $-1 66.951506088442642 -24.817828646700939 18.949846006225101 #
straight-curve $-1 66.951506088442642 -8.9594128878634312 13.03071314391449 0 1 0 I I #
point $-1 66.951506088442642 -24.817828646700939 13.030713143914497 #
point $-1 59.33672918464724 -20.87554129185861 11.151602703509893 #
point $-1 59.33672918464724 -14.962110259595114 11.151602703509893 #
End-of-ACIS-data 