500 0 9 0           
7 Unknown 11 ACIS 5.0 NT 24 Fri Mar 26 17:56:15 1999 
-1 9.9999999999999995e-007 1e-010 
body $-1 $9 $-1 $10 #
body $-1 $11 $-1 $12 #
body $-1 $13 $-1 $14 #
body $-1 $15 $-1 $16 #
body $-1 $17 $-1 $18 #
body $-1 $19 $-1 $20 #
body $-1 $21 $-1 $22 #
body $-1 $23 $-1 $24 #
body $-1 $25 $-1 $26 #
lump $-1 $-1 $27 $0 #
transform $-1 1 0 0 0 1 0 0 0 1 52.978911709952087 26.317586037331221 8.6243163961197293 1 rotate no_reflect no_shear #
lump $-1 $-1 $28 $1 #
transform $-1 1 0 0 0 1 0 0 0 1 52.978911709952087 26.317586037331221 8.6243163961197293 1 rotate no_reflect no_shear #
lump $-1 $-1 $29 $2 #
transform $-1 1 0 0 0 1 0 0 0 1 52.978911709952087 26.317586037331221 8.6243163961197293 1 rotate no_reflect no_shear #
lump $-1 $-1 $30 $3 #
transform $-1 1 0 0 0 1 0 0 0 1 52.978911709952087 26.317586037331221 8.6243163961197293 1 rotate no_reflect no_shear #
lump $-1 $-1 $31 $4 #
transform $-1 1 0 0 0 1 0 0 0 1 52.978911709952087 26.317586037331221 8.6243163961197293 1 rotate no_reflect no_shear #
lump $-1 $-1 $32 $5 #
transform $-1 1 0 0 0 1 0 0 0 1 52.978911709952087 26.317586037331221 8.6243163961197293 1 rotate no_reflect no_shear #
lump $-1 $-1 $33 $6 #
transform $-1 1 0 0 0 1 0 0 0 1 52.978911709952087 26.317586037331221 8.6243163961197293 1 rotate no_reflect no_shear #
lump $-1 $-1 $34 $7 #
transform $-1 1 0 0 0 1 0 0 0 1 52.978911709952087 26.317586037331221 8.6243163961197293 1 rotate no_reflect no_shear #
lump $-1 $-1 $35 $8 #
transform $-1 1 0 0 0 1 0 0 0 1 52.978911709952087 26.317586037331221 8.6243163961197293 1 rotate no_reflect no_shear #
shell $-1 $-1 $-1 $36 $-1 $9 #
shell $-1 $-1 $-1 $37 $-1 $11 #
shell $-1 $-1 $-1 $38 $-1 $13 #
shell $-1 $-1 $-1 $39 $-1 $15 #
shell $-1 $-1 $-1 $40 $-1 $17 #
shell $-1 $-1 $-1 $41 $-1 $19 #
shell $-1 $-1 $-1 $42 $-1 $21 #
shell $-1 $-1 $-1 $43 $-1 $23 #
shell $-1 $-1 $-1 $44 $-1 $25 #
face $-1 $45 $46 $27 $-1 $47 forward single #
face $-1 $48 $49 $28 $-1 $50 reversed single #
face $-1 $51 $52 $29 $-1 $53 forward single #
face $-1 $54 $55 $30 $-1 $56 forward single #
face $-1 $57 $58 $31 $-1 $59 reversed single #
face $-1 $60 $61 $32 $-1 $62 forward single #
face $-1 $63 $64 $33 $-1 $65 forward single #
face $-1 $66 $67 $34 $-1 $68 reversed single #
face $-1 $69 $70 $35 $-1 $71 forward single #
face $-1 $72 $73 $27 $-1 $74 reversed single #
loop $-1 $-1 $75 $36 #
plane-surface $-1 0 0 8.6243163961197293 0 0 1 1 0 0 forward_v I I I I #
face $-1 $76 $77 $28 $-1 $78 reversed single #
loop $-1 $-1 $79 $37 #
plane-surface $-1 -34.115916276884462 50.074655449118623 116.79528282721533 -1 0 0 0 0.61566148304635926 0.78801074757464917 forward_v I I I I #
face $-1 $80 $81 $29 $-1 $82 forward single #
loop $-1 $83 $84 $38 #
cone-surface $-1 -47.589484443361336 20.391416972504601 3.5061272500133933 0 -0.61566148304635926 -0.78801074757464917 2 0 0 1 I I 0 1 2 forward I I I I #
face $-1 $85 $86 $30 $-1 $87 forward single #
loop $-1 $88 $89 $39 #
cone-surface $-1 -39.505343543475206 20.391416972504601 3.5061272500133933 0 -0.61566148304635926 -0.78801074757464917 2 0 0 1 I I 0 1 2 forward I I I I #
face $-1 $90 $91 $31 $-1 $92 reversed single #
loop $-1 $-1 $93 $40 #
plane-surface $-1 43.547413993418274 -15.159495257943831 33.299379182713977 0 0.61566148304635926 0.78801074757464917 1 0 0 forward_v I I I I #
face $-1 $94 $95 $32 $-1 $96 forward single #
loop $-1 $97 $98 $41 #
cone-surface $-1 39.50534354347522 20.391416972504601 3.5061272500133933 0 -0.61566148304635926 -0.78801074757464917 2 0 0 1 I I 0 1 2 forward I I I I #
face $-1 $99 $100 $33 $-1 $101 forward single #
loop $-1 $102 $103 $42 #
cone-surface $-1 47.589484443361343 20.391416972504601 3.5061272500133933 0 -0.61566148304635926 -0.78801074757464917 2 0 0 1 I I 0 1 2 forward I I I I #
face $-1 $104 $105 $34 $-1 $106 reversed single #
loop $-1 $-1 $107 $43 #
plane-surface $-1 21.766540285537957 -97.217209523457541 82.762980840762907 -1 0 0 0 -0.66913061440640931 0.74314481823134659 forward_v I I I I #
face $-1 $108 $109 $35 $-1 $110 forward single #
loop $-1 $111 $112 $44 #
cone-surface $-1 9.2944181187421151 -23.353761227232681 5.870004008341219 0 0.66913061440640931 -0.74314481823134659 1 0 0 1 I I 0 1 1 forward I I I I #
face $-1 $113 $114 $27 $-1 $115 reversed single #
loop $-1 $-1 $116 $45 #
plane-surface $-1 0 0 -8.6243163961197293 0 0 1 1 0 0 forward_v I I I I #
coedge $-1 $117 $118 $119 $120 forward $46 $-1 #
face $-1 $121 $122 $28 $-1 $123 reversed single #
loop $-1 $-1 $124 $48 #
plane-surface $-1 -43.547413993418274 -15.159495257943831 33.299379182713977 0 0.61566148304635926 0.78801074757464917 1 0 0 forward_v I I I I #
coedge $-1 $125 $126 $127 $128 reversed $49 $-1 #
face $-1 $-1 $129 $29 $-1 $130 forward single #
loop $-1 $131 $132 $51 #
cone-surface $-1 -47.589484443361336 18.796807322409645 1.4651200129787885 0 -0.61566148304635926 -0.78801074757464917 1 0 0 1 I I -0.70710678118654746 0.70710678118654746 1 forward I I I I #
loop $-1 $-1 $133 $38 #
coedge $-1 $84 $84 $134 $135 reversed $52 $-1 #
face $-1 $-1 $136 $30 $-1 $137 forward single #
loop $-1 $138 $139 $54 #
cone-surface $-1 -39.505343543475206 18.796807322409645 1.4651200129787885 0 -0.61566148304635926 -0.78801074757464917 1 0 0 1 I I -0.70710678118654746 0.70710678118654746 1 forward I I I I #
loop $-1 $-1 $140 $39 #
coedge $-1 $89 $89 $141 $142 reversed $55 $-1 #
face $-1 $143 $144 $31 $-1 $145 forward single #
loop $-1 $-1 $146 $57 #
plane-surface $-1 34.115916276884462 50.074655449118623 116.79528282721533 1 0 0 0 -0.61566148304635926 -0.78801074757464917 forward_v I I I I #
coedge $-1 $147 $148 $149 $150 reversed $58 $-1 #
face $-1 $-1 $151 $32 $-1 $152 forward single #
loop $-1 $153 $154 $60 #
cone-surface $-1 39.50534354347522 18.796807322409645 1.4651200129787885 0 -0.61566148304635926 -0.78801074757464917 1 0 0 1 I I -0.70710678118654746 0.70710678118654746 1 forward I I I I #
loop $-1 $-1 $155 $41 #
coedge $-1 $98 $98 $156 $157 reversed $61 $-1 #
face $-1 $-1 $158 $33 $-1 $159 forward single #
loop $-1 $160 $161 $63 #
cone-surface $-1 47.589484443361343 18.796807322409645 1.4651200129787885 0 -0.61566148304635926 -0.78801074757464917 1 0 0 1 I I -0.70710678118654746 0.70710678118654746 1 forward I I I I #
loop $-1 $-1 $162 $42 #
coedge $-1 $103 $103 $163 $164 reversed $64 $-1 #
face $-1 $165 $166 $34 $-1 $167 reversed single #
loop $-1 $-1 $168 $66 #
plane-surface $-1 9.2944181187421151 -26.317586037331239 4.0209734151891041 0 -0.66913061440640931 0.74314481823134659 1 0 0 forward_v I I I I #
coedge $-1 $169 $170 $171 $172 reversed $67 $-1 #
face $-1 $-1 $173 $35 $-1 $174 forward single #
loop $-1 $175 $176 $69 #
cone-surface $-1 9.2944181187421151 -22.611636216598491 5.0457907019123578 0 0.66913061440640931 -0.74314481823134659 0.5 0 0 1 I I -0.70710678118654746 0.70710678118654746 0.5 forward I I I I #
loop $-1 $-1 $177 $44 #
coedge $-1 $112 $112 $178 $179 reversed $70 $-1 #
face $-1 $180 $181 $27 $-1 $182 reversed single #
loop $-1 $-1 $183 $72 #
plane-surface $-1 0 -26.317586037331221 0 0 1 0 0 0 1 forward_v I I I I #
coedge $-1 $184 $185 $186 $187 forward $73 $-1 #
coedge $-1 $188 $75 $189 $190 forward $46 $-1 #
coedge $-1 $75 $188 $191 $192 forward $46 $-1 #
coedge $-1 $193 $194 $75 $120 reversed $195 $-1 #
edge $-1 $196 -26.317586037331221 $197 26.317586037331221 $119 $198 forward 7 unknown #
face $-1 $199 $200 $28 $-1 $201 forward single #
loop $-1 $-1 $127 $76 #
plane-surface $-1 0 26.317586037331221 0 0 -1 0 0 0 -1 forward_v I I I I #
coedge $-1 $202 $203 $204 $205 reversed $77 $-1 #
coedge $-1 $126 $79 $206 $207 reversed $49 $-1 #
coedge $-1 $79 $125 $202 $208 reversed $49 $-1 #
coedge $-1 $204 $209 $79 $128 forward $122 $-1 #
edge $-1 $210 49.773325017487934 $211 57.503710330780685 $127 $212 forward 7 unknown #
loop $-1 $-1 $134 $80 #
plane-surface $-1 -43.547413993418274 -15.159495257943831 33.299379182713977 0 0.61566148304635926 0.78801074757464917 1 0 0 forward_v I I I I #
loop $-1 $-1 $213 $51 #
coedge $-1 $132 $132 $133 $214 reversed $81 $-1 #
coedge $-1 $133 $133 $132 $214 forward $83 $-1 #
coedge $-1 $134 $134 $84 $135 forward $129 $-1 #
edge $-1 $215 5.1407206981309559e-016 $215 6.2831853071796013 $134 $216 forward 7 unknown #
loop $-1 $-1 $141 $85 #
plane-surface $-1 -43.547413993418274 -15.159495257943831 33.299379182713977 0 0.61566148304635926 0.78801074757464917 1 0 0 forward_v I I I I #
loop $-1 $-1 $217 $54 #
coedge $-1 $139 $139 $140 $218 reversed $86 $-1 #
coedge $-1 $140 $140 $139 $218 forward $88 $-1 #
coedge $-1 $141 $141 $89 $142 forward $136 $-1 #
edge $-1 $219 5.1407206981309559e-016 $219 6.2831853071796013 $141 $220 forward 7 unknown #
face $-1 $221 $222 $31 $-1 $223 reversed single #
loop $-1 $-1 $224 $90 #
plane-surface $-1 0 0 8.6243163961197293 0 0 1 1 0 0 forward_v I I I I #
coedge $-1 $225 $226 $227 $228 reversed $91 $-1 #
coedge $-1 $229 $93 $230 $231 reversed $58 $-1 #
coedge $-1 $93 $229 $225 $232 forward $58 $-1 #
coedge $-1 $227 $233 $93 $150 forward $234 $-1 #
edge $-1 $235 -31.205204713242949 $236 -12.342209280175325 $149 $237 forward 7 unknown #
loop $-1 $-1 $156 $94 #
plane-surface $-1 43.547413993418274 -15.159495257943831 33.299379182713977 0 0.61566148304635926 0.78801074757464917 1 0 0 forward_v I I I I #
loop $-1 $-1 $238 $60 #
coedge $-1 $154 $154 $155 $239 reversed $95 $-1 #
coedge $-1 $155 $155 $154 $239 forward $97 $-1 #
coedge $-1 $156 $156 $98 $157 forward $151 $-1 #
edge $-1 $240 5.1407206981309559e-016 $240 6.2831853071796013 $156 $241 forward 7 unknown #
loop $-1 $-1 $163 $99 #
plane-surface $-1 43.547413993418274 -15.159495257943831 33.299379182713977 0 0.61566148304635926 0.78801074757464917 1 0 0 forward_v I I I I #
loop $-1 $-1 $242 $63 #
coedge $-1 $161 $161 $162 $243 reversed $100 $-1 #
coedge $-1 $162 $162 $161 $243 forward $102 $-1 #
coedge $-1 $163 $163 $103 $164 forward $158 $-1 #
edge $-1 $244 5.1407206981309559e-016 $244 6.2831853071796013 $163 $245 forward 7 unknown #
face $-1 $246 $247 $34 $-1 $248 reversed single #
loop $-1 $-1 $249 $104 #
plane-surface $-1 -3.1777040480537266 -97.217209523457541 82.762980840762907 1 0 0 0 0.66913061440640931 -0.74314481823134659 forward_v I I I I #
coedge $-1 $250 $251 $252 $253 reversed $105 $-1 #
coedge $-1 $170 $107 $254 $255 reversed $67 $-1 #
coedge $-1 $107 $169 $250 $256 reversed $67 $-1 #
coedge $-1 $252 $257 $107 $172 forward $258 $-1 #
edge $-1 $259 22.291018724397549 $260 27.403548937732616 $171 $261 forward 7 unknown #
loop $-1 $-1 $178 $108 #
plane-surface $-1 9.2944181187421151 -26.317586037331239 4.0209734151891041 0 -0.66913061440640931 0.74314481823134659 1 0 0 forward_v I I I I #
loop $-1 $-1 $262 $69 #
coedge $-1 $176 $176 $177 $263 reversed $109 $-1 #
coedge $-1 $177 $177 $176 $263 forward $111 $-1 #
coedge $-1 $178 $178 $112 $179 forward $173 $-1 #
edge $-1 $264 -4.6816574325746035e-016 $264 6.2831853071795996 $178 $265 forward 7 unknown #
face $-1 $266 $267 $27 $-1 $268 reversed single #
loop $-1 $-1 $269 $113 #
plane-surface $-1 -52.978911709952087 0 0 1 0 0 0 0 -1 forward_v I I I I #
coedge $-1 $270 $191 $271 $272 forward $114 $-1 #
coedge $-1 $273 $116 $270 $274 forward $73 $-1 #
coedge $-1 $116 $273 $275 $276 forward $73 $-1 #
coedge $-1 $194 $193 $116 $187 reversed $195 $-1 #
edge $-1 $277 -26.317586037331221 $278 26.317586037331221 $186 $279 forward 7 unknown #
coedge $-1 $118 $117 $280 $281 forward $46 $-1 #
coedge $-1 $282 $283 $117 $190 reversed $267 $-1 #
edge $-1 $197 -52.978911709952087 $284 52.978911709952087 $189 $285 forward 7 unknown #
coedge $-1 $183 $286 $118 $192 reversed $114 $-1 #
edge $-1 $287 -52.978911709952087 $196 52.978911709952087 $191 $288 forward 7 unknown #
coedge $-1 $186 $119 $286 $289 forward $195 $-1 #
coedge $-1 $119 $186 $282 $290 reversed $195 $-1 #
loop $-1 $-1 $193 $266 #
vertex $-1 $120 $291 #
vertex $-1 $120 $292 #
straight-curve $-1 52.978911709952087 0 8.6243163961197293 0 1 0 I I #
face $-1 $-1 $293 $28 $-1 $294 reversed single #
loop $-1 $-1 $206 $121 #
plane-surface $-1 0 0 8.6243163961197293 0 0 1 1 0 0 forward_v I I I I #
coedge $-1 $295 $124 $126 $208 forward $77 $-1 #
coedge $-1 $124 $295 $296 $297 reversed $77 $-1 #
coedge $-1 $298 $127 $124 $205 forward $122 $-1 #
edge $-1 $211 12.342209280175325 $299 31.205204713242949 $204 $300 forward 7 unknown #
coedge $-1 $301 $302 $125 $207 forward $200 $-1 #
edge $-1 $303 -8.6141834827841244 $210 1.2802583127719096 $206 $304 forward 7 unknown #
edge $-1 $211 -52.635172074662449 $303 -40.078945112010871 $126 $305 forward 7 unknown #
coedge $-1 $127 $298 $301 $306 reversed $122 $-1 #
vertex $-1 $306 $307 #
vertex $-1 $128 $308 #
straight-curve $-1 -34.115916276884462 26.317586037331221 58.397641413607666 0 0 -1 I I #
coedge $-1 $213 $213 $-1 $309 reversed $131 $-1 #
edge $-1 $310 0 $310 6.2831853071796004 $132 $311 forward 7 unknown #
vertex $-1 $135 $312 #
ellipse-curve $-1 -47.589484443361336 21.370365139553204 4.7591237394733552 0 0.61566148304635926 0.78801074757464917 2 0 0 1 I I #
coedge $-1 $217 $217 $-1 $313 reversed $138 $-1 #
edge $-1 $314 0 $314 6.2831853071796004 $139 $315 forward 7 unknown #
vertex $-1 $142 $316 #
ellipse-curve $-1 -39.505343543475206 21.370365139553204 4.7591237394733552 0 0.61566148304635926 0.78801074757464917 2 0 0 1 I I #
face $-1 $-1 $234 $31 $-1 $317 reversed single #
loop $-1 $-1 $230 $143 #
plane-surface $-1 52.978911709952087 0 0 -1 0 0 0 0 1 forward_v I I I I #
coedge $-1 $318 $319 $226 $320 forward $144 $-1 #
coedge $-1 $226 $146 $148 $232 reversed $91 $-1 #
coedge $-1 $146 $225 $224 $320 reversed $91 $-1 #
coedge $-1 $321 $149 $146 $228 forward $234 $-1 #
edge $-1 $236 -57.503710330780685 $322 -49.773325017487934 $227 $323 forward 7 unknown #
coedge $-1 $148 $147 $318 $324 reversed $58 $-1 #
coedge $-1 $325 $326 $147 $231 forward $222 $-1 #
edge $-1 $327 23.855449930401157 $235 36.411676893052743 $230 $328 forward 7 unknown #
edge $-1 $329 40.078945112010871 $236 52.635172074662449 $225 $330 forward 7 unknown #
coedge $-1 $149 $321 $325 $331 forward $234 $-1 #
loop $-1 $-1 $227 $221 #
vertex $-1 $231 $332 #
vertex $-1 $150 $333 #
straight-curve $-1 21.773706996709137 26.317586037331225 0.89393108282697753 -1 0 0 I I #
coedge $-1 $238 $238 $-1 $334 reversed $153 $-1 #
edge $-1 $335 0 $335 6.2831853071796004 $154 $336 forward 7 unknown #
vertex $-1 $157 $337 #
ellipse-curve $-1 39.50534354347522 21.370365139553204 4.7591237394733552 0 0.61566148304635926 0.78801074757464917 2 0 0 1 I I #
coedge $-1 $242 $242 $-1 $338 reversed $160 $-1 #
edge $-1 $339 0 $339 6.2831853071796004 $161 $340 forward 7 unknown #
vertex $-1 $164 $341 #
ellipse-curve $-1 47.589484443361343 21.370365139553204 4.7591237394733552 0 0.61566148304635926 0.78801074757464917 2 0 0 1 I I #
face $-1 $-1 $258 $34 $-1 $342 forward single #
loop $-1 $-1 $343 $165 #
plane-surface $-1 0 -26.317586037331221 0 0 1 0 0 0 1 forward_v I I I I #
coedge $-1 $344 $345 $346 $347 reversed $166 $-1 #
coedge $-1 $348 $168 $170 $256 forward $105 $-1 #
coedge $-1 $168 $348 $344 $349 forward $105 $-1 #
coedge $-1 $346 $171 $168 $253 forward $258 $-1 #
edge $-1 $260 -17.119331226166899 $350 7.8249131074247842 $252 $351 forward 7 unknown #
coedge $-1 $352 $353 $169 $255 forward $247 $-1 #
edge $-1 $354 -37.360517005192335 $259 -32.757174024261722 $254 $355 forward 7 unknown #
edge $-1 $260 -6.87958805324471 $354 -2.3898436495477339e-014 $170 $356 forward 7 unknown #
coedge $-1 $171 $346 $352 $357 forward $258 $-1 #
loop $-1 $-1 $346 $246 #
vertex $-1 $255 $358 #
vertex $-1 $172 $359 #
straight-curve $-1 21.766540285537957 -48.60860476172877 8.6243163961197311 0 1 0 I I #
coedge $-1 $262 $262 $-1 $360 reversed $175 $-1 #
edge $-1 $361 0 $361 6.2831853071796004 $176 $362 forward 7 unknown #
vertex $-1 $179 $363 #
ellipse-curve $-1 9.2944181187421151 -23.761320930663686 6.3226449056544274 0 -0.66913061440640931 0.74314481823134659 1 0 0 1 I I #
face $-1 $-1 $195 $27 $-1 $364 reversed single #
loop $-1 $-1 $282 $180 #
plane-surface $-1 0 26.317586037331221 0 0 -1 0 0 0 -1 forward_v I I I I #
coedge $-1 $365 $280 $283 $366 forward $181 $-1 #
coedge $-1 $286 $183 $184 $274 reversed $114 $-1 #
coedge $-1 $280 $365 $183 $272 reversed $181 $-1 #
edge $-1 $287 -8.6243163961197293 $367 8.6243163961197293 $271 $368 forward 7 unknown #
coedge $-1 $185 $184 $365 $369 forward $73 $-1 #
edge $-1 $278 -52.978911709952087 $367 52.978911709952087 $270 $370 forward 7 unknown #
coedge $-1 $283 $282 $185 $276 reversed $267 $-1 #
edge $-1 $371 -52.978911709952087 $277 52.978911709952087 $275 $372 forward 7 unknown #
vertex $-1 $187 $373 #
vertex $-1 $289 $374 #
straight-curve $-1 52.978911709952087 0 -8.6243163961197293 0 -1 0 I I #
coedge $-1 $269 $271 $188 $281 reversed $181 $-1 #
edge $-1 $284 -26.317586037331221 $287 26.317586037331221 $280 $375 forward 7 unknown #
coedge $-1 $275 $189 $194 $290 forward $267 $-1 #
coedge $-1 $189 $275 $269 $366 reversed $267 $-1 #
vertex $-1 $190 $376 #
straight-curve $-1 0 26.317586037331221 8.6243163961197293 -1 0 0 I I #
coedge $-1 $191 $270 $193 $289 reversed $114 $-1 #
vertex $-1 $281 $377 #
straight-curve $-1 0 -26.317586037331221 8.6243163961197293 1 0 0 I I #
edge $-1 $196 -8.6243163961197293 $278 8.6243163961197293 $193 $378 forward 7 unknown #
edge $-1 $197 -8.6243163961197293 $277 8.6243163961197293 $194 $379 forward 7 unknown #
point $-1 52.978911709952087 -26.317586037331221 8.6243163961197293 #
point $-1 52.978911709952087 26.317586037331221 8.6243163961197293 #
loop $-1 $-1 $296 $199 #
plane-surface $-1 -52.978911709952087 0 0 1 0 0 0 0 -1 forward_v I I I I #
coedge $-1 $203 $202 $302 $380 reversed $77 $-1 #
coedge $-1 $381 $382 $203 $297 forward $293 $-1 #
edge $-1 $299 -36.411676893052736 $383 -23.855449930401157 $296 $384 forward 7 unknown #
coedge $-1 $209 $204 $382 $385 reversed $122 $-1 #
vertex $-1 $205 $386 #
straight-curve $-1 -21.773706996709137 26.317586037331225 0.89393108282697753 -1 0 0 I I #
coedge $-1 $387 $206 $209 $306 forward $200 $-1 #
coedge $-1 $206 $387 $295 $380 forward $200 $-1 #
vertex $-1 $207 $388 #
straight-curve $-1 -34.115916276884462 25.037327724559312 8.6243163961197311 0 1 0 I I #
straight-curve $-1 -34.115916276884462 -15.159495257943831 33.299379182713977 0 -0.78801074757464917 0.61566148304635926 I I #
edge $-1 $210 34.115916276884462 $389 52.978911709952087 $209 $390 forward 7 unknown #
point $-1 -34.115916276884462 26.317586037331221 8.6243163961197293 #
point $-1 -34.115916276884462 26.317586037331225 0.89393108282698108 #
edge $-1 $391 1 $391 0 $213 $-1 forward 7 unknown #
vertex $-1 $214 $392 #
ellipse-curve $-1 -47.589484443361336 19.412468805456005 2.2531307605534376 0 0.61566148304635926 0.78801074757464917 2 0 0 1 I I #
point $-1 -45.589484443361336 21.370365139553201 4.759123739473349 #
edge $-1 $393 1 $393 0 $217 $-1 forward 7 unknown #
vertex $-1 $218 $394 #
ellipse-curve $-1 -39.505343543475206 19.412468805456005 2.2531307605534376 0 0.61566148304635926 0.78801074757464917 2 0 0 1 I I #
point $-1 -37.505343543475206 21.370365139553201 4.759123739473349 #
plane-surface $-1 0 26.317586037331221 0 0 -1 0 0 0 -1 forward_v I I I I #
coedge $-1 $395 $224 $229 $324 forward $144 $-1 #
coedge $-1 $224 $395 $321 $396 forward $144 $-1 #
edge $-1 $322 -1.2802583127719096 $329 8.6141834827841244 $224 $397 forward 7 unknown #
coedge $-1 $233 $227 $319 $396 reversed $234 $-1 #
vertex $-1 $228 $398 #
straight-curve $-1 34.115916276884462 26.317586037331221 58.397641413607666 0 0 1 I I #
edge $-1 $329 12.342209280175325 $327 31.205204713242949 $318 $399 forward 7 unknown #
coedge $-1 $326 $230 $233 $331 reversed $222 $-1 #
coedge $-1 $230 $325 $395 $400 reversed $222 $-1 #
vertex $-1 $400 $401 #
straight-curve $-1 52.978911709952087 -2.3752066916098453 23.31119807900868 0 0.78801074757464917 -0.61566148304635926 I I #
vertex $-1 $324 $402 #
straight-curve $-1 34.115916276884462 -15.159495257943831 33.299379182713977 0 0.78801074757464917 -0.61566148304635926 I I #
edge $-1 $403 -8.6243163961197293 $235 -0.89393108282698108 $325 $404 forward 7 unknown #
point $-1 52.978911709952087 26.317586037331225 0.89393108282698108 #
point $-1 34.115916276884462 26.317586037331225 0.89393108282698108 #
edge $-1 $405 1 $405 0 $238 $-1 forward 7 unknown #
vertex $-1 $239 $406 #
ellipse-curve $-1 39.50534354347522 19.412468805456005 2.2531307605534376 0 0.61566148304635926 0.78801074757464917 2 0 0 1 I I #
point $-1 41.50534354347522 21.370365139553201 4.759123739473349 #
edge $-1 $407 1 $407 0 $242 $-1 forward 7 unknown #
vertex $-1 $243 $408 #
ellipse-curve $-1 47.589484443361343 19.412468805456005 2.2531307605534376 0 0.61566148304635926 0.78801074757464917 2 0 0 1 I I #
point $-1 49.589484443361343 21.370365139553201 4.759123739473349 #
plane-surface $-1 0 0 8.6243163961197293 0 0 1 1 0 0 forward_v I I I I #
coedge $-1 $353 $352 $345 $409 forward $247 $-1 #
coedge $-1 $345 $249 $251 $349 reversed $166 $-1 #
coedge $-1 $249 $344 $343 $409 reversed $166 $-1 #
coedge $-1 $257 $252 $249 $347 forward $258 $-1 #
edge $-1 $350 -27.403548937732616 $410 -22.291018724397549 $346 $411 forward 7 unknown #
coedge $-1 $251 $250 $353 $412 reversed $105 $-1 #
edge $-1 $413 2.3898436495477339e-014 $350 6.87958805324471 $344 $414 forward 7 unknown #
vertex $-1 $253 $415 #
straight-curve $-1 4.6472090593710575 -21.205055823996155 8.6243163961197293 -1 0 0 I I #
coedge $-1 $343 $254 $257 $357 reversed $247 $-1 #
coedge $-1 $254 $343 $348 $412 forward $247 $-1 #
vertex $-1 $255 $416 #
straight-curve $-1 21.766540285537957 -26.317586037331218 41.381490420381454 0 0 1 I I #
straight-curve $-1 21.766540285537957 -26.317586037331239 4.0209734151891041 0 -0.74314481823134659 -0.66913061440640931 I I #
edge $-1 $410 -3.1777040480537266 $259 21.766540285537957 $352 $417 forward 7 unknown #
point $-1 21.766540285537957 -26.317586037331221 8.6243163961197293 #
point $-1 21.766540285537957 -21.205055823996155 8.6243163961197293 #
edge $-1 $418 1 $418 0 $262 $-1 forward 7 unknown #
vertex $-1 $263 $419 #
ellipse-curve $-1 9.2944181187421151 -22.946201523801697 5.4173631110280311 0 -0.66913061440640931 0.74314481823134659 1 0 0 1 I I #
point $-1 10.294418118742115 -23.761320930663668 6.322644905654407 #
plane-surface $-1 52.978911709952087 0 0 -1 0 0 0 0 1 forward_v I I I I #
coedge $-1 $271 $269 $273 $369 reversed $181 $-1 #
edge $-1 $284 -8.6243163961197293 $371 8.6243163961197293 $283 $420 forward 7 unknown #
vertex $-1 $369 $421 #
straight-curve $-1 -52.978911709952087 -26.317586037331221 0 0 0 -1 I I #
edge $-1 $367 -26.317586037331221 $371 26.317586037331221 $365 $422 forward 7 unknown #
straight-curve $-1 0 -26.317586037331221 -8.6243163961197293 -1 0 0 I I #
vertex $-1 $276 $423 #
straight-curve $-1 0 26.317586037331221 -8.6243163961197293 1 0 0 I I #
point $-1 52.978911709952087 26.317586037331221 -8.6243163961197293 #
point $-1 52.978911709952087 -26.317586037331221 -8.6243163961197293 #
straight-curve $-1 -52.978911709952087 0 8.6243163961197293 0 -1 0 I I #
point $-1 -52.978911709952087 26.317586037331221 8.6243163961197293 #
point $-1 -52.978911709952087 -26.317586037331221 8.6243163961197293 #
straight-curve $-1 52.978911709952087 -26.317586037331221 0 0 0 -1 I I #
straight-curve $-1 52.978911709952087 26.317586037331221 0 0 0 -1 I I #
edge $-1 $383 -31.205204713242949 $303 -12.342209280175325 $302 $424 forward 7 unknown #
coedge $-1 $382 $296 $387 $425 reversed $293 $-1 #
coedge $-1 $296 $381 $298 $385 forward $293 $-1 #
vertex $-1 $297 $426 #
straight-curve $-1 -52.978911709952087 -2.3752066916098453 23.31119807900868 0 -0.78801074757464917 0.61566148304635926 I I #
edge $-1 $389 -8.6243163961197293 $299 -0.89393108282697997 $298 $427 forward 7 unknown #
point $-1 -52.978911709952087 26.317586037331221 0.89393108282697997 #
coedge $-1 $302 $301 $381 $425 forward $200 $-1 #
point $-1 -34.115916276884462 16.423144241775187 8.6243163961197347 #
vertex $-1 $306 $428 #
straight-curve $-1 0 26.317586037331221 8.6243163961197293 -1 0 0 I I #
vertex $-1 $309 $429 #
point $-1 -45.589484443361336 19.412468805456005 2.2531307605534376 #
vertex $-1 $313 $430 #
point $-1 -37.505343543475206 19.412468805456005 2.2531307605534376 #
coedge $-1 $319 $318 $326 $400 forward $144 $-1 #
edge $-1 $403 -52.978911709952087 $322 -34.115916276884462 $321 $431 forward 7 unknown #
straight-curve $-1 34.115916276884462 25.037327724559312 8.6243163961197311 0 -1 0 I I #
point $-1 34.115916276884462 26.317586037331221 8.6243163961197293 #
straight-curve $-1 21.773706996709137 16.423144241775191 8.6243163961197311 1 0 0 I I #
edge $-1 $327 16.423144241775187 $403 26.317586037331221 $326 $432 forward 7 unknown #
point $-1 52.978911709952087 16.423144241775187 8.6243163961197347 #
point $-1 34.115916276884462 16.423144241775187 8.6243163961197347 #
vertex $-1 $400 $433 #
straight-curve $-1 52.978911709952087 26.317586037331221 0 0 0 -1 I I #
vertex $-1 $334 $434 #
point $-1 41.50534354347522 19.412468805456005 2.2531307605534376 #
vertex $-1 $338 $435 #
point $-1 49.589484443361343 19.412468805456005 2.2531307605534376 #
edge $-1 $410 32.757174024261722 $413 37.360517005192335 $343 $436 forward 7 unknown #
vertex $-1 $357 $437 #
straight-curve $-1 -3.1777040480537266 -48.60860476172877 8.6243163961197311 0 -1 0 I I #
edge $-1 $413 -7.8249131074247842 $354 17.119331226166899 $353 $438 forward 7 unknown #
vertex $-1 $412 $439 #
straight-curve $-1 -3.1777040480537266 -26.317586037331239 4.0209734151891041 0 0.74314481823134659 0.66913061440640931 I I #
point $-1 -3.1777040480537266 -21.205055823996155 8.6243163961197293 #
point $-1 21.766540285537957 -26.317586037331221 4.0209734151891201 #
straight-curve $-1 0 -26.317586037331221 8.6243163961197293 1 0 0 I I #
vertex $-1 $360 $440 #
point $-1 10.294418118742115 -22.946201523801697 5.4173631110280311 #
straight-curve $-1 -52.978911709952087 26.317586037331221 0 0 0 -1 I I #
point $-1 -52.978911709952087 -26.317586037331221 -8.6243163961197293 #
straight-curve $-1 -52.978911709952087 0 -8.6243163961197293 0 1 0 I I #
point $-1 -52.978911709952087 26.317586037331221 -8.6243163961197293 #
straight-curve $-1 -21.773706996709137 16.423144241775191 8.6243163961197311 1 0 0 I I #
edge $-1 $389 -26.317586037331221 $383 -16.423144241775187 $381 $441 forward 7 unknown #
point $-1 -52.978911709952087 16.423144241775187 8.6243163961197347 #
straight-curve $-1 -52.978911709952087 26.317586037331221 0 0 0 -1 I I #
point $-1 -52.978911709952087 26.317586037331221 8.6243163961197293 #
point $-1 -47.589484443361336 18.181145839363285 0.67710926540413929 #
point $-1 -39.505343543475206 18.181145839363285 0.67710926540413929 #
straight-curve $-1 0 26.317586037331221 8.6243163961197293 -1 0 0 I I #
straight-curve $-1 52.978911709952087 0 8.6243163961197293 0 1 0 I I #
point $-1 52.978911709952087 26.317586037331221 8.6243163961197293 #
point $-1 39.50534354347522 18.181145839363285 0.67710926540413929 #
point $-1 47.589484443361343 18.181145839363285 0.67710926540413929 #
straight-curve $-1 -3.1777040480537266 -26.317586037331218 41.381490420381454 0 0 -1 I I #
point $-1 -3.1777040480537266 -26.317586037331221 8.6243163961197293 #
straight-curve $-1 4.6472090593710575 -26.317586037331221 4.0209734151891228 1 0 0 I I #
point $-1 -3.1777040480537266 -26.317586037331221 4.0209734151891201 #
point $-1 9.2944181187421151 -22.277070909395285 4.6742182927966844 #
straight-curve $-1 -52.978911709952087 0 8.6243163961197293 0 -1 0 I I #
End-of-ACIS-data 