500 0 18 0           
7 Unknown 11 ACIS 5.0 NT 24 Fri Mar 26 17:03:22 1999 
-1 9.9999999999999995e-007 1e-010 
body $-1 $18 $-1 $19 #
body $-1 $20 $-1 $21 #
body $-1 $22 $-1 $23 #
body $-1 $24 $-1 $25 #
body $-1 $26 $-1 $27 #
body $-1 $28 $-1 $29 #
body $-1 $30 $-1 $31 #
body $-1 $32 $-1 $33 #
body $-1 $34 $-1 $35 #
body $-1 $36 $-1 $37 #
body $-1 $38 $-1 $39 #
body $-1 $40 $-1 $41 #
body $-1 $42 $-1 $43 #
body $-1 $44 $-1 $45 #
body $-1 $46 $-1 $47 #
body $-1 $48 $-1 $49 #
body $-1 $50 $-1 $51 #
body $-1 $52 $-1 $53 #
lump $-1 $-1 $54 $0 #
transform $-1 1 0 0 0 1 0 0 0 1 52.239143040253914 32.901397460217169 11.617455629588081 1 rotate no_reflect no_shear #
lump $-1 $-1 $55 $1 #
transform $-1 1 0 0 0 1 0 0 0 1 52.239143040253914 32.901397460217169 11.617455629588081 1 rotate no_reflect no_shear #
lump $-1 $-1 $56 $2 #
transform $-1 1 0 0 0 1 0 0 0 1 52.239143040253914 32.901397460217169 11.617455629588081 1 rotate no_reflect no_shear #
lump $-1 $-1 $57 $3 #
transform $-1 1 0 0 0 1 0 0 0 1 52.239143040253914 32.901397460217169 11.617455629588081 1 rotate no_reflect no_shear #
lump $-1 $-1 $58 $4 #
transform $-1 1 0 0 0 1 0 0 0 1 52.239143040253914 32.901397460217169 11.617455629588081 1 rotate no_reflect no_shear #
lump $-1 $-1 $59 $5 #
transform $-1 1 0 0 0 1 0 0 0 1 52.239143040253914 32.901397460217169 11.617455629588081 1 rotate no_reflect no_shear #
lump $-1 $-1 $60 $6 #
transform $-1 1 0 0 0 1 0 0 0 1 52.239143040253914 32.901397460217169 11.617455629588081 1 rotate no_reflect no_shear #
lump $-1 $-1 $61 $7 #
transform $-1 1 0 0 0 1 0 0 0 1 52.239143040253914 32.901397460217169 11.617455629588081 1 rotate no_reflect no_shear #
lump $-1 $-1 $62 $8 #
transform $-1 1 0 0 0 1 0 0 0 1 52.239143040253914 32.901397460217169 11.617455629588081 1 rotate no_reflect no_shear #
lump $-1 $-1 $63 $9 #
transform $-1 1 0 0 0 1 0 0 0 1 52.239143040253914 32.901397460217169 11.617455629588081 1 rotate no_reflect no_shear #
lump $-1 $-1 $64 $10 #
transform $-1 1 0 0 0 1 0 0 0 1 52.239143040253914 32.901397460217169 11.617455629588081 1 rotate no_reflect no_shear #
lump $-1 $-1 $65 $11 #
transform $-1 1 0 0 0 1 0 0 0 1 52.239143040253914 32.901397460217169 11.617455629588081 1 rotate no_reflect no_shear #
lump $-1 $-1 $66 $12 #
transform $-1 1 0 0 0 1 0 0 0 1 52.239143040253914 32.901397460217169 11.617455629588081 1 rotate no_reflect no_shear #
lump $-1 $-1 $67 $13 #
transform $-1 1 0 0 0 1 0 0 0 1 52.239143040253914 32.901397460217169 11.617455629588081 1 rotate no_reflect no_shear #
lump $-1 $-1 $68 $14 #
transform $-1 1 0 0 0 1 0 0 0 1 52.239143040253914 32.901397460217169 11.617455629588081 1 rotate no_reflect no_shear #
lump $-1 $-1 $69 $15 #
transform $-1 1 0 0 0 1 0 0 0 1 52.239143040253914 32.901397460217169 11.617455629588081 1 rotate no_reflect no_shear #
lump $-1 $-1 $70 $16 #
transform $-1 1 0 0 0 1 0 0 0 1 52.239143040253914 32.901397460217169 11.617455629588081 1 rotate no_reflect no_shear #
lump $-1 $-1 $71 $17 #
transform $-1 1 0 0 0 1 0 0 0 1 52.239143040253914 32.901397460217169 11.617455629588081 1 rotate no_reflect no_shear #
shell $-1 $-1 $-1 $72 $-1 $18 #
shell $-1 $-1 $-1 $73 $-1 $20 #
shell $-1 $-1 $-1 $74 $-1 $22 #
shell $-1 $-1 $-1 $75 $-1 $24 #
shell $-1 $-1 $-1 $76 $-1 $26 #
shell $-1 $-1 $-1 $77 $-1 $28 #
shell $-1 $-1 $-1 $78 $-1 $30 #
shell $-1 $-1 $-1 $79 $-1 $32 #
shell $-1 $-1 $-1 $80 $-1 $34 #
shell $-1 $-1 $-1 $81 $-1 $36 #
shell $-1 $-1 $-1 $82 $-1 $38 #
shell $-1 $-1 $-1 $83 $-1 $40 #
shell $-1 $-1 $-1 $84 $-1 $42 #
shell $-1 $-1 $-1 $85 $-1 $44 #
shell $-1 $-1 $-1 $86 $-1 $46 #
shell $-1 $-1 $-1 $87 $-1 $48 #
shell $-1 $-1 $-1 $88 $-1 $50 #
shell $-1 $-1 $-1 $89 $-1 $52 #
face $-1 $90 $91 $54 $-1 $92 forward single #
face $-1 $93 $94 $55 $-1 $95 reversed single #
face $-1 $96 $97 $56 $-1 $98 reversed single #
face $-1 $99 $100 $57 $-1 $101 reversed single #
face $-1 $102 $103 $58 $-1 $104 forward single #
face $-1 $105 $106 $59 $-1 $107 forward single #
face $-1 $108 $109 $60 $-1 $110 reversed single #
face $-1 $111 $112 $61 $-1 $113 forward single #
face $-1 $114 $115 $62 $-1 $116 forward single #
face $-1 $117 $118 $63 $-1 $119 reversed single #
face $-1 $120 $121 $64 $-1 $122 forward single #
face $-1 $123 $124 $65 $-1 $125 forward single #
face $-1 $126 $127 $66 $-1 $128 reversed single #
face $-1 $129 $130 $67 $-1 $131 forward single #
face $-1 $132 $133 $68 $-1 $134 forward single #
face $-1 $135 $136 $69 $-1 $137 reversed single #
face $-1 $138 $139 $70 $-1 $140 forward single #
face $-1 $141 $142 $71 $-1 $143 forward single #
face $-1 $144 $145 $54 $-1 $146 reversed single #
loop $-1 $-1 $147 $72 #
plane-surface $-1 0 0 11.617455629588081 0 0 1 1 0 0 forward_v I I I I #
face $-1 $148 $149 $55 $-1 $150 reversed single #
loop $-1 $-1 $151 $73 #
plane-surface $-1 -44.474566274983466 -27.591088876647184 0 1 0 0 0 0 -1 forward_v I I I I #
face $-1 $152 $153 $56 $-1 $154 reversed single #
loop $-1 $-1 $155 $74 #
plane-surface $-1 -41.956605883865222 22.2807802930772 0 0 1 0 0 0 1 forward_v I I I I #
face $-1 $156 $157 $57 $-1 $158 reversed single #
loop $-1 $-1 $159 $75 #
plane-surface $-1 21.519233655765028 -13.629591152961906 150.24010472863873 0 -1 0 -0.54463904215088732 0 -0.83867056331134215 forward_v I I I I #
face $-1 $160 $161 $58 $-1 $162 forward single #
loop $-1 $163 $164 $76 #
cone-surface $-1 47.421783123731565 -17.958635183005569 8.2465365487591136 -0.54463904215088732 0 -0.83867056331134215 0.41933528165567108 0 -0.27231952107544366 1 I I 0 1 0.5 forward I I I I #
face $-1 $165 $166 $59 $-1 $167 forward single #
loop $-1 $168 $169 $77 #
cone-surface $-1 47.421783123731565 -15.361208764979374 8.2465365487591136 -0.54463904215088732 0 -0.83867056331134215 0.41933528165567108 0 -0.27231952107544366 1 I I 0 1 0.5 forward I I I I #
face $-1 $170 $171 $60 $-1 $172 reversed single #
loop $-1 $-1 $173 $78 #
plane-surface $-1 21.519233655765028 -2.5229765036335916 150.24010472863873 0 -1 0 -0.54463904215088732 0 -0.83867056331134215 forward_v I I I I #
face $-1 $174 $175 $61 $-1 $176 forward single #
loop $-1 $177 $178 $79 #
cone-surface $-1 47.421783123731565 -6.8520205336772513 8.2465365487591136 -0.54463904215088732 0 -0.83867056331134215 0.41933528165567108 0 -0.27231952107544366 1 I I 0 1 0.5 forward I I I I #
face $-1 $179 $180 $62 $-1 $181 forward single #
loop $-1 $182 $183 $80 #
cone-surface $-1 47.421783123731565 -4.2545941156510594 8.2465365487591136 -0.54463904215088732 0 -0.83867056331134215 0.41933528165567108 0 -0.27231952107544366 1 I I 0 1 0.5 forward I I I I #
face $-1 $184 $185 $63 $-1 $186 reversed single #
loop $-1 $-1 $187 $81 #
plane-surface $-1 21.519233655765028 8.5836381456947226 150.24010472863873 0 -1 0 -0.54463904215088732 0 -0.83867056331134215 forward_v I I I I #
face $-1 $188 $189 $64 $-1 $190 forward single #
loop $-1 $191 $192 $82 #
cone-surface $-1 47.421783123731565 4.2545941156510665 8.2465365487591136 -0.54463904215088732 0 -0.83867056331134215 0.41933528165567108 0 -0.27231952107544366 1 I I 0 1 0.5 forward I I I I #
face $-1 $193 $194 $65 $-1 $195 forward single #
loop $-1 $196 $197 $83 #
cone-surface $-1 47.421783123731565 6.8520205336772548 8.2465365487591136 -0.54463904215088732 0 -0.83867056331134215 0.41933528165567108 0 -0.27231952107544366 1 I I 0 1 0.5 forward I I I I #
face $-1 $198 $199 $66 $-1 $200 reversed single #
loop $-1 $-1 $201 $84 #
plane-surface $-1 21.519233655765028 19.690252795023035 150.24010472863873 0 -1 0 -0.54463904215088732 0 -0.83867056331134215 forward_v I I I I #
face $-1 $202 $203 $67 $-1 $204 forward single #
loop $-1 $205 $206 $85 #
cone-surface $-1 47.421783123731565 15.361208764979381 8.2465365487591136 -0.54463904215088732 0 -0.83867056331134215 0.41933528165567108 0 -0.27231952107544366 1 I I 0 1 0.5 forward I I I I #
face $-1 $207 $208 $68 $-1 $209 forward single #
loop $-1 $210 $211 $86 #
cone-surface $-1 47.421783123731565 17.958635183005569 8.2465365487591136 -0.54463904215088732 0 -0.83867056331134215 0.41933528165567108 0 -0.27231952107544366 1 I I 0 1 0.5 forward I I I I #
face $-1 $212 $213 $69 $-1 $214 reversed single #
loop $-1 $-1 $215 $87 #
plane-surface $-1 -109.14209669670808 5.5642380563067242 88.518350464837454 0 1 0 -0.54463904215088732 0 0.83867056331134215 forward_v I I I I #
face $-1 $216 $217 $70 $-1 $218 forward single #
loop $-1 $219 $220 $88 #
cone-surface $-1 -43.526160272828264 7.7457490763203722 5.5515347105932502 0.54463904215088732 0 -0.83867056331134215 0.83867056331134215 0 0.54463904215088732 1 I I 0 1 1 forward I I I I #
face $-1 $221 $222 $71 $-1 $223 forward single #
loop $-1 $224 $225 $89 #
cone-surface $-1 -43.526160272828264 11.018015606340832 5.5515347105932502 0.54463904215088732 0 -0.83867056331134215 0.83867056331134215 0 0.54463904215088732 1 I I 0 1 1 forward I I I I #
face $-1 $226 $227 $54 $-1 $228 reversed single #
loop $-1 $-1 $229 $90 #
plane-surface $-1 0 0 -11.617455629588081 0 0 1 1 0 0 forward_v I I I I #
coedge $-1 $230 $231 $232 $233 forward $91 $-1 #
face $-1 $234 $235 $55 $-1 $236 reversed single #
loop $-1 $-1 $237 $93 #
plane-surface $-1 -41.956605883865222 -22.2807802930772 0 0 -1 0 0 0 -1 forward_v I I I I #
coedge $-1 $238 $239 $240 $241 forward $94 $-1 #
face $-1 $242 $243 $56 $-1 $244 reversed single #
loop $-1 $-1 $245 $96 #
plane-surface $-1 -44.474566274983466 27.591088876647184 0 1 0 0 0 0 -1 forward_v I I I I #
coedge $-1 $246 $247 $248 $249 forward $97 $-1 #
face $-1 $250 $251 $57 $-1 $252 reversed single #
loop $-1 $-1 $253 $99 #
plane-surface $-1 -35.383720000689138 -16.659921973992468 62.617241687695667 0.54463904215088732 0 0.83867056331134215 0.83867056331134215 0 -0.54463904215088732 forward_v I I I I #
coedge $-1 $254 $255 $256 $257 reversed $100 $-1 #
face $-1 $-1 $258 $58 $-1 $259 forward single #
loop $-1 $260 $261 $102 #
cone-surface $-1 47.013303842118397 -17.958635183005569 7.6175336262756073 -0.54463904215088732 0 -0.83867056331134215 0.20966764082783554 0 -0.13615976053772183 1 I I -0.70710678118654746 0.70710678118654746 0.25 forward I I I I #
loop $-1 $-1 $262 $76 #
coedge $-1 $164 $164 $263 $264 reversed $103 $-1 #
face $-1 $-1 $265 $59 $-1 $266 forward single #
loop $-1 $267 $268 $105 #
cone-surface $-1 47.013303842118397 -15.361208764979374 7.6175336262756073 -0.54463904215088732 0 -0.83867056331134215 0.20966764082783554 0 -0.13615976053772183 1 I I -0.70710678118654746 0.70710678118654746 0.25 forward I I I I #
loop $-1 $-1 $269 $77 #
coedge $-1 $169 $169 $270 $271 reversed $106 $-1 #
face $-1 $272 $273 $60 $-1 $274 reversed single #
loop $-1 $-1 $275 $108 #
plane-surface $-1 -35.383720000689138 -5.5533073246641536 62.617241687695667 0.54463904215088732 0 0.83867056331134215 0.83867056331134215 0 -0.54463904215088732 forward_v I I I I #
coedge $-1 $276 $277 $278 $279 reversed $109 $-1 #
face $-1 $-1 $280 $61 $-1 $281 forward single #
loop $-1 $282 $283 $111 #
cone-surface $-1 47.013303842118397 -6.8520205336772513 7.6175336262756073 -0.54463904215088732 0 -0.83867056331134215 0.20966764082783554 0 -0.13615976053772183 1 I I -0.70710678118654746 0.70710678118654746 0.25 forward I I I I #
loop $-1 $-1 $284 $79 #
coedge $-1 $178 $178 $285 $286 reversed $112 $-1 #
face $-1 $-1 $287 $62 $-1 $288 forward single #
loop $-1 $289 $290 $114 #
cone-surface $-1 47.013303842118397 -4.2545941156510594 7.6175336262756073 -0.54463904215088732 0 -0.83867056331134215 0.20966764082783554 0 -0.13615976053772183 1 I I -0.70710678118654746 0.70710678118654746 0.25 forward I I I I #
loop $-1 $-1 $291 $80 #
coedge $-1 $183 $183 $292 $293 reversed $115 $-1 #
face $-1 $294 $295 $63 $-1 $296 reversed single #
loop $-1 $-1 $297 $117 #
plane-surface $-1 -35.383720000689138 5.5533073246641607 62.617241687695667 0.54463904215088732 0 0.83867056331134215 0.83867056331134215 0 -0.54463904215088732 forward_v I I I I #
coedge $-1 $298 $299 $300 $301 reversed $118 $-1 #
face $-1 $-1 $302 $64 $-1 $303 forward single #
loop $-1 $304 $305 $120 #
cone-surface $-1 47.013303842118397 4.2545941156510665 7.6175336262756073 -0.54463904215088732 0 -0.83867056331134215 0.20966764082783554 0 -0.13615976053772183 1 I I -0.70710678118654746 0.70710678118654746 0.25 forward I I I I #
loop $-1 $-1 $306 $82 #
coedge $-1 $192 $192 $307 $308 reversed $121 $-1 #
face $-1 $-1 $309 $65 $-1 $310 forward single #
loop $-1 $311 $312 $123 #
cone-surface $-1 47.013303842118397 6.8520205336772548 7.6175336262756073 -0.54463904215088732 0 -0.83867056331134215 0.20966764082783554 0 -0.13615976053772183 1 I I -0.70710678118654746 0.70710678118654746 0.25 forward I I I I #
loop $-1 $-1 $313 $83 #
coedge $-1 $197 $197 $314 $315 reversed $124 $-1 #
face $-1 $316 $317 $66 $-1 $318 reversed single #
loop $-1 $-1 $319 $126 #
plane-surface $-1 -35.383720000689138 16.659921973992475 62.617241687695667 0.54463904215088732 0 0.83867056331134215 0.83867056331134215 0 -0.54463904215088732 forward_v I I I I #
coedge $-1 $320 $321 $322 $323 reversed $127 $-1 #
face $-1 $-1 $324 $67 $-1 $325 forward single #
loop $-1 $326 $327 $129 #
cone-surface $-1 47.013303842118397 15.361208764979381 7.6175336262756073 -0.54463904215088732 0 -0.83867056331134215 0.20966764082783554 0 -0.13615976053772183 1 I I -0.70710678118654746 0.70710678118654746 0.25 forward I I I I #
loop $-1 $-1 $328 $85 #
coedge $-1 $206 $206 $329 $330 reversed $130 $-1 #
face $-1 $-1 $331 $68 $-1 $332 forward single #
loop $-1 $333 $334 $132 #
cone-surface $-1 47.013303842118397 17.958635183005569 7.6175336262756073 -0.54463904215088732 0 -0.83867056331134215 0.20966764082783554 0 -0.13615976053772183 1 I I -0.70710678118654746 0.70710678118654746 0.25 forward I I I I #
loop $-1 $-1 $335 $86 #
coedge $-1 $211 $211 $336 $337 reversed $133 $-1 #
face $-1 $338 $339 $69 $-1 $340 reversed single #
loop $-1 $-1 $341 $135 #
plane-surface $-1 -52.239143040253914 9.381882341330595 0.8954874238943944 -0.54463904215088732 0 0.83867056331134215 0.83867056331134215 0 0.54463904215088732 forward_v I I I I #
coedge $-1 $342 $343 $344 $345 reversed $136 $-1 #
face $-1 $-1 $346 $70 $-1 $347 forward single #
loop $-1 $348 $349 $138 #
cone-surface $-1 -42.796049422094327 7.7457490763203722 4.4272626127895958 0.54463904215088732 0 -0.83867056331134215 0.41933528165567108 0 0.27231952107544366 1 I I -0.70710678118654746 0.70710678118654746 0.5 forward I I I I #
loop $-1 $-1 $350 $88 #
coedge $-1 $220 $220 $351 $352 reversed $139 $-1 #
face $-1 $-1 $353 $71 $-1 $354 forward single #
loop $-1 $355 $356 $141 #
cone-surface $-1 -42.796049422094327 11.018015606340832 4.4272626127895958 0.54463904215088732 0 -0.83867056331134215 0.41933528165567108 0 0.27231952107544366 1 I I -0.70710678118654746 0.70710678118654746 0.5 forward I I I I #
loop $-1 $-1 $357 $89 #
coedge $-1 $225 $225 $358 $359 reversed $142 $-1 #
face $-1 $360 $361 $54 $-1 $362 reversed single #
loop $-1 $-1 $363 $144 #
plane-surface $-1 0 -32.901397460217169 0 0 1 0 0 0 1 forward_v I I I I #
coedge $-1 $364 $365 $366 $367 forward $145 $-1 #
coedge $-1 $368 $147 $369 $370 forward $91 $-1 #
coedge $-1 $147 $368 $371 $372 forward $91 $-1 #
coedge $-1 $373 $374 $147 $233 reversed $375 $-1 #
edge $-1 $376 -32.901397460217169 $377 32.901397460217169 $232 $378 forward 7 unknown #
face $-1 $379 $380 $55 $-1 $381 forward single #
loop $-1 $-1 $382 $148 #
plane-surface $-1 -39.438645492746979 -27.591088876647184 0 -1 0 0 0 0 1 forward_v I I I I #
coedge $-1 $383 $384 $385 $386 forward $149 $-1 #
coedge $-1 $387 $151 $388 $389 reversed $94 $-1 #
coedge $-1 $151 $387 $390 $391 reversed $94 $-1 #
coedge $-1 $384 $383 $151 $241 reversed $149 $-1 #
edge $-1 $392 -11.617455629588081 $393 11.617455629588081 $240 $394 forward 7 unknown #
face $-1 $395 $396 $56 $-1 $397 reversed single #
loop $-1 $-1 $398 $152 #
plane-surface $-1 -39.438645492746979 27.591088876647184 0 -1 0 0 0 0 1 forward_v I I I I #
coedge $-1 $399 $400 $401 $402 reversed $153 $-1 #
coedge $-1 $403 $155 $404 $405 reversed $97 $-1 #
coedge $-1 $155 $403 $406 $407 reversed $97 $-1 #
coedge $-1 $400 $399 $155 $249 reversed $153 $-1 #
edge $-1 $408 -11.617455629588081 $409 11.617455629588081 $248 $410 forward 7 unknown #
face $-1 $411 $412 $57 $-1 $413 forward single #
loop $-1 $-1 $414 $156 #
plane-surface $-1 21.519233655765028 -19.690252795023028 150.24010472863873 0 1 0 0.54463904215088732 0 0.83867056331134215 forward_v I I I I #
coedge $-1 $415 $416 $417 $418 reversed $157 $-1 #
coedge $-1 $255 $159 $419 $420 reversed $100 $-1 #
coedge $-1 $159 $254 $415 $421 reversed $100 $-1 #
coedge $-1 $417 $422 $159 $257 forward $412 $-1 #
edge $-1 $423 -41.479526212371397 $424 -32.389445421477589 $256 $425 forward 7 unknown #
loop $-1 $-1 $263 $160 #
plane-surface $-1 -35.383720000689138 -16.659921973992468 62.617241687695667 0.54463904215088732 0 0.83867056331134215 0.83867056331134215 0 -0.54463904215088732 forward_v I I I I #
loop $-1 $-1 $426 $102 #
coedge $-1 $261 $261 $262 $427 reversed $161 $-1 #
coedge $-1 $262 $262 $261 $427 forward $163 $-1 #
coedge $-1 $263 $263 $164 $264 forward $258 $-1 #
edge $-1 $428 0 $428 6.2831853071796004 $263 $429 forward 7 unknown #
loop $-1 $-1 $270 $165 #
plane-surface $-1 -35.383720000689138 -16.659921973992468 62.617241687695667 0.54463904215088732 0 0.83867056331134215 0.83867056331134215 0 -0.54463904215088732 forward_v I I I I #
loop $-1 $-1 $430 $105 #
coedge $-1 $268 $268 $269 $431 reversed $166 $-1 #
coedge $-1 $269 $269 $268 $431 forward $168 $-1 #
coedge $-1 $270 $270 $169 $271 forward $265 $-1 #
edge $-1 $432 0 $432 6.2831853071796004 $270 $433 forward 7 unknown #
face $-1 $434 $435 $60 $-1 $436 reversed single #
loop $-1 $-1 $437 $170 #
plane-surface $-1 21.519233655765028 -8.5836381456947155 150.24010472863873 0 1 0 0.54463904215088732 0 0.83867056331134215 forward_v I I I I #
coedge $-1 $438 $439 $440 $441 reversed $171 $-1 #
coedge $-1 $277 $173 $442 $443 reversed $109 $-1 #
coedge $-1 $173 $276 $438 $444 reversed $109 $-1 #
coedge $-1 $440 $445 $173 $279 forward $446 $-1 #
edge $-1 $447 -41.479526212371397 $448 -32.389445421477589 $278 $449 forward 7 unknown #
loop $-1 $-1 $285 $174 #
plane-surface $-1 -35.383720000689138 -5.5533073246641536 62.617241687695667 0.54463904215088732 0 0.83867056331134215 0.83867056331134215 0 -0.54463904215088732 forward_v I I I I #
loop $-1 $-1 $450 $111 #
coedge $-1 $283 $283 $284 $451 reversed $175 $-1 #
coedge $-1 $284 $284 $283 $451 forward $177 $-1 #
coedge $-1 $285 $285 $178 $286 forward $280 $-1 #
edge $-1 $452 0 $452 6.2831853071796004 $285 $453 forward 7 unknown #
loop $-1 $-1 $292 $179 #
plane-surface $-1 -35.383720000689138 -5.5533073246641536 62.617241687695667 0.54463904215088732 0 0.83867056331134215 0.83867056331134215 0 -0.54463904215088732 forward_v I I I I #
loop $-1 $-1 $454 $114 #
coedge $-1 $290 $290 $291 $455 reversed $180 $-1 #
coedge $-1 $291 $291 $290 $455 forward $182 $-1 #
coedge $-1 $292 $292 $183 $293 forward $287 $-1 #
edge $-1 $456 0 $456 6.2831853071796004 $292 $457 forward 7 unknown #
face $-1 $458 $459 $63 $-1 $460 reversed single #
loop $-1 $-1 $461 $184 #
plane-surface $-1 21.519233655765028 2.5229765036335987 150.24010472863873 0 1 0 0.54463904215088732 0 0.83867056331134215 forward_v I I I I #
coedge $-1 $462 $463 $464 $465 reversed $185 $-1 #
coedge $-1 $299 $187 $466 $467 reversed $118 $-1 #
coedge $-1 $187 $298 $462 $468 reversed $118 $-1 #
coedge $-1 $464 $469 $187 $301 forward $470 $-1 #
edge $-1 $471 -41.479526212371397 $472 -32.389445421477589 $300 $473 forward 7 unknown #
loop $-1 $-1 $307 $188 #
plane-surface $-1 -35.383720000689138 5.5533073246641607 62.617241687695667 0.54463904215088732 0 0.83867056331134215 0.83867056331134215 0 -0.54463904215088732 forward_v I I I I #
loop $-1 $-1 $474 $120 #
coedge $-1 $305 $305 $306 $475 reversed $189 $-1 #
coedge $-1 $306 $306 $305 $475 forward $191 $-1 #
coedge $-1 $307 $307 $192 $308 forward $302 $-1 #
edge $-1 $476 0 $476 6.2831853071796004 $307 $477 forward 7 unknown #
loop $-1 $-1 $314 $193 #
plane-surface $-1 -35.383720000689138 5.5533073246641607 62.617241687695667 0.54463904215088732 0 0.83867056331134215 0.83867056331134215 0 -0.54463904215088732 forward_v I I I I #
loop $-1 $-1 $478 $123 #
coedge $-1 $312 $312 $313 $479 reversed $194 $-1 #
coedge $-1 $313 $313 $312 $479 forward $196 $-1 #
coedge $-1 $314 $314 $197 $315 forward $309 $-1 #
edge $-1 $480 0 $480 6.2831853071796004 $314 $481 forward 7 unknown #
face $-1 $482 $483 $66 $-1 $484 reversed single #
loop $-1 $-1 $485 $198 #
plane-surface $-1 21.519233655765028 13.629591152961913 150.24010472863873 0 1 0 0.54463904215088732 0 0.83867056331134215 forward_v I I I I #
coedge $-1 $486 $487 $488 $489 reversed $199 $-1 #
coedge $-1 $321 $201 $490 $491 reversed $127 $-1 #
coedge $-1 $201 $320 $486 $492 reversed $127 $-1 #
coedge $-1 $488 $493 $201 $323 forward $494 $-1 #
edge $-1 $495 -41.479526212371397 $496 -32.389445421477589 $322 $497 forward 7 unknown #
loop $-1 $-1 $329 $202 #
plane-surface $-1 -35.383720000689138 16.659921973992475 62.617241687695667 0.54463904215088732 0 0.83867056331134215 0.83867056331134215 0 -0.54463904215088732 forward_v I I I I #
loop $-1 $-1 $498 $129 #
coedge $-1 $327 $327 $328 $499 reversed $203 $-1 #
coedge $-1 $328 $328 $327 $499 forward $205 $-1 #
coedge $-1 $329 $329 $206 $330 forward $324 $-1 #
edge $-1 $500 0 $500 6.2831853071796004 $329 $501 forward 7 unknown #
loop $-1 $-1 $336 $207 #
plane-surface $-1 -35.383720000689138 16.659921973992475 62.617241687695667 0.54463904215088732 0 0.83867056331134215 0.83867056331134215 0 -0.54463904215088732 forward_v I I I I #
loop $-1 $-1 $502 $132 #
coedge $-1 $334 $334 $335 $503 reversed $208 $-1 #
coedge $-1 $335 $335 $334 $503 forward $210 $-1 #
coedge $-1 $336 $336 $211 $337 forward $331 $-1 #
edge $-1 $504 0 $504 6.2831853071796004 $336 $505 forward 7 unknown #
face $-1 $506 $507 $69 $-1 $508 reversed single #
loop $-1 $-1 $509 $212 #
plane-surface $-1 -109.14209669670808 13.199526626354466 88.518350464837454 0 -1 0 0.54463904215088732 0 -0.83867056331134215 forward_v I I I I #
coedge $-1 $510 $511 $512 $513 reversed $213 $-1 #
coedge $-1 $343 $215 $514 $515 reversed $136 $-1 #
coedge $-1 $215 $342 $510 $516 reversed $136 $-1 #
coedge $-1 $512 $517 $215 $345 forward $518 $-1 #
edge $-1 $519 2.3319053081001258 $520 18.842288183634452 $344 $521 forward 7 unknown #
loop $-1 $-1 $351 $216 #
plane-surface $-1 -52.239143040253914 9.381882341330595 0.8954874238943944 -0.54463904215088732 0 0.83867056331134215 0.83867056331134215 0 0.54463904215088732 forward_v I I I I #
loop $-1 $-1 $522 $138 #
coedge $-1 $349 $349 $350 $523 reversed $217 $-1 #
coedge $-1 $350 $350 $349 $523 forward $219 $-1 #
coedge $-1 $351 $351 $220 $352 forward $346 $-1 #
edge $-1 $524 0 $524 6.2831853071796004 $351 $525 forward 7 unknown #
loop $-1 $-1 $358 $221 #
plane-surface $-1 -52.239143040253914 9.381882341330595 0.8954874238943944 -0.54463904215088732 0 0.83867056331134215 0.83867056331134215 0 0.54463904215088732 forward_v I I I I #
loop $-1 $-1 $526 $141 #
coedge $-1 $356 $356 $357 $527 reversed $222 $-1 #
coedge $-1 $357 $357 $356 $527 forward $224 $-1 #
coedge $-1 $358 $358 $225 $359 forward $353 $-1 #
edge $-1 $528 0 $528 6.2831853071796004 $358 $529 forward 7 unknown #
face $-1 $530 $531 $54 $-1 $532 reversed single #
loop $-1 $-1 $533 $226 #
plane-surface $-1 -52.239143040253914 0 0 1 0 0 0 0 -1 forward_v I I I I #
coedge $-1 $534 $371 $535 $536 forward $227 $-1 #
coedge $-1 $537 $229 $534 $538 forward $145 $-1 #
coedge $-1 $229 $537 $539 $540 forward $145 $-1 #
coedge $-1 $374 $373 $229 $367 reversed $375 $-1 #
edge $-1 $541 -32.901397460217169 $542 32.901397460217169 $366 $543 forward 7 unknown #
coedge $-1 $231 $230 $544 $545 forward $91 $-1 #
coedge $-1 $546 $547 $230 $370 reversed $531 $-1 #
edge $-1 $377 -52.239143040253914 $548 52.239143040253914 $369 $549 forward 7 unknown #
coedge $-1 $363 $550 $231 $372 reversed $227 $-1 #
edge $-1 $551 -52.239143040253914 $376 52.239143040253914 $371 $552 forward 7 unknown #
coedge $-1 $366 $232 $550 $553 forward $375 $-1 #
coedge $-1 $232 $366 $546 $554 reversed $375 $-1 #
loop $-1 $-1 $373 $530 #
vertex $-1 $233 $555 #
vertex $-1 $233 $556 #
straight-curve $-1 52.239143040253914 0 11.617455629588081 0 1 0 I I #
face $-1 $557 $558 $55 $-1 $559 reversed single #
loop $-1 $-1 $560 $234 #
plane-surface $-1 0 0 11.617455629588081 0 0 1 1 0 0 forward_v I I I I #
coedge $-1 $561 $562 $563 $564 reversed $235 $-1 #
coedge $-1 $240 $237 $565 $566 reversed $149 $-1 #
coedge $-1 $237 $240 $567 $568 reversed $149 $-1 #
coedge $-1 $562 $561 $237 $386 reversed $235 $-1 #
edge $-1 $569 -11.617455629588081 $570 11.617455629588081 $385 $571 forward 7 unknown #
coedge $-1 $239 $238 $572 $573 reversed $94 $-1 #
coedge $-1 $565 $574 $238 $389 forward $558 $-1 #
edge $-1 $575 -19.105853021893576 $393 -8.4852358547536078 $388 $576 forward 7 unknown #
coedge $-1 $577 $567 $239 $391 forward $380 $-1 #
edge $-1 $392 8.4852358547536078 $578 19.105853021893576 $390 $579 forward 7 unknown #
vertex $-1 $391 $580 #
vertex $-1 $389 $581 #
straight-curve $-1 -44.474566274983466 -22.2807802930772 0 0 0 -1 I I #
face $-1 $582 $583 $56 $-1 $584 forward single #
loop $-1 $-1 $585 $242 #
plane-surface $-1 0 0 -11.617455629588081 0 0 1 1 0 0 forward_v I I I I #
coedge $-1 $586 $587 $403 $588 forward $243 $-1 #
coedge $-1 $248 $245 $589 $590 reversed $153 $-1 #
coedge $-1 $245 $248 $591 $592 reversed $153 $-1 #
coedge $-1 $593 $594 $245 $402 forward $595 $-1 #
edge $-1 $596 -11.617455629588081 $597 11.617455629588081 $401 $598 forward 7 unknown #
coedge $-1 $247 $246 $398 $588 reversed $97 $-1 #
coedge $-1 $589 $585 $246 $405 forward $396 $-1 #
edge $-1 $599 18.460342550814367 $409 23.496263333050855 $404 $600 forward 7 unknown #
coedge $-1 $601 $591 $247 $407 forward $583 $-1 #
edge $-1 $408 -23.496263333050855 $602 -18.460342550814367 $406 $603 forward 7 unknown #
vertex $-1 $407 $604 #
vertex $-1 $405 $605 #
straight-curve $-1 -44.474566274983466 22.2807802930772 0 0 0 -1 I I #
face $-1 $-1 $606 $57 $-1 $607 reversed single #
loop $-1 $-1 $256 $250 #
plane-surface $-1 0 0 11.617455629588081 0 0 1 1 0 0 forward_v I I I I #
coedge $-1 $608 $609 $610 $611 reversed $251 $-1 #
coedge $-1 $612 $253 $255 $421 forward $157 $-1 #
coedge $-1 $253 $612 $608 $613 forward $157 $-1 #
coedge $-1 $610 $256 $253 $418 forward $412 $-1 #
edge $-1 $424 5.2996301659656719 $614 11.360291808026794 $417 $615 forward 7 unknown #
coedge $-1 $616 $617 $254 $420 forward $606 $-1 #
edge $-1 $618 -69.405764333077855 $423 -63.502596734731284 $419 $619 forward 7 unknown #
edge $-1 $424 93.639607356643651 $618 104.47828608050783 $255 $620 forward 7 unknown #
coedge $-1 $256 $610 $616 $621 forward $412 $-1 #
vertex $-1 $257 $622 #
vertex $-1 $257 $623 #
straight-curve $-1 10.759616827882514 -13.629591152961906 11.617455629588079 -1 0 0 I I #
coedge $-1 $426 $426 $-1 $624 reversed $260 $-1 #
edge $-1 $625 0 $625 6.2831853071796004 $261 $626 forward 7 unknown #
vertex $-1 $264 $627 #
ellipse-curve $-1 47.69410264480701 -17.958635183005569 8.6658718304147904 0.54463904215088732 0 0.83867056331134215 0.41933528165567108 0 -0.27231952107544366 1 I I #
coedge $-1 $430 $430 $-1 $628 reversed $267 $-1 #
edge $-1 $629 0 $629 6.2831853071796004 $268 $630 forward 7 unknown #
vertex $-1 $271 $631 #
ellipse-curve $-1 47.69410264480701 -15.361208764979374 8.6658718304147904 0.54463904215088732 0 0.83867056331134215 0.41933528165567108 0 -0.27231952107544366 1 I I #
face $-1 $-1 $446 $60 $-1 $632 forward single #
loop $-1 $-1 $633 $272 #
plane-surface $-1 52.239143040253914 0 0 -1 0 0 0 0 1 forward_v I I I I #
coedge $-1 $634 $635 $636 $637 reversed $273 $-1 #
coedge $-1 $638 $275 $277 $444 forward $171 $-1 #
coedge $-1 $275 $638 $634 $639 forward $171 $-1 #
coedge $-1 $636 $278 $275 $441 forward $446 $-1 #
edge $-1 $448 -0.25367715869848517 $640 5.8069844833626387 $440 $641 forward 7 unknown #
coedge $-1 $642 $643 $276 $443 forward $435 $-1 #
edge $-1 $644 -69.405764333077855 $447 -63.502596734731284 $442 $645 forward 7 unknown #
edge $-1 $448 93.639607356643651 $644 104.47828608050783 $277 $646 forward 7 unknown #
coedge $-1 $278 $636 $642 $647 forward $446 $-1 #
loop $-1 $-1 $636 $434 #
vertex $-1 $443 $648 #
vertex $-1 $279 $649 #
straight-curve $-1 10.759616827882514 -2.5229765036335916 11.617455629588079 -1 0 0 I I #
coedge $-1 $450 $450 $-1 $650 reversed $282 $-1 #
edge $-1 $651 0 $651 6.2831853071796004 $283 $652 forward 7 unknown #
vertex $-1 $286 $653 #
ellipse-curve $-1 47.69410264480701 -6.8520205336772513 8.6658718304147904 0.54463904215088732 0 0.83867056331134215 0.41933528165567108 0 -0.27231952107544366 1 I I #
coedge $-1 $454 $454 $-1 $654 reversed $289 $-1 #
edge $-1 $655 0 $655 6.2831853071796004 $290 $656 forward 7 unknown #
vertex $-1 $293 $657 #
ellipse-curve $-1 47.69410264480701 -4.2545941156510594 8.6658718304147904 0.54463904215088732 0 0.83867056331134215 0.41933528165567108 0 -0.27231952107544366 1 I I #
face $-1 $-1 $470 $63 $-1 $658 forward single #
loop $-1 $-1 $659 $294 #
plane-surface $-1 52.239143040253914 0 0 -1 0 0 0 0 1 forward_v I I I I #
coedge $-1 $660 $661 $662 $663 reversed $295 $-1 #
coedge $-1 $664 $297 $299 $468 forward $185 $-1 #
coedge $-1 $297 $664 $660 $665 forward $185 $-1 #
coedge $-1 $662 $300 $297 $465 forward $470 $-1 #
edge $-1 $472 -5.8069844833626423 $666 0.25367715869848162 $464 $667 forward 7 unknown #
coedge $-1 $668 $669 $298 $467 forward $459 $-1 #
edge $-1 $670 -69.405764333077855 $471 -63.502596734731284 $466 $671 forward 7 unknown #
edge $-1 $472 93.639607356643651 $670 104.47828608050783 $299 $672 forward 7 unknown #
coedge $-1 $300 $662 $668 $673 forward $470 $-1 #
loop $-1 $-1 $662 $458 #
vertex $-1 $467 $674 #
vertex $-1 $301 $675 #
straight-curve $-1 10.759616827882514 8.5836381456947226 11.617455629588079 -1 0 0 I I #
coedge $-1 $474 $474 $-1 $676 reversed $304 $-1 #
edge $-1 $677 0 $677 6.2831853071796004 $305 $678 forward 7 unknown #
vertex $-1 $308 $679 #
ellipse-curve $-1 47.69410264480701 4.2545941156510665 8.6658718304147904 0.54463904215088732 0 0.83867056331134215 0.41933528165567108 0 -0.27231952107544366 1 I I #
coedge $-1 $478 $478 $-1 $680 reversed $311 $-1 #
edge $-1 $681 0 $681 6.2831853071796004 $312 $682 forward 7 unknown #
vertex $-1 $315 $683 #
ellipse-curve $-1 47.69410264480701 6.8520205336772548 8.6658718304147904 0.54463904215088732 0 0.83867056331134215 0.41933528165567108 0 -0.27231952107544366 1 I I #
face $-1 $-1 $494 $66 $-1 $684 forward single #
loop $-1 $-1 $685 $316 #
plane-surface $-1 52.239143040253914 0 0 -1 0 0 0 0 1 forward_v I I I I #
coedge $-1 $686 $687 $688 $689 reversed $317 $-1 #
coedge $-1 $690 $319 $321 $492 forward $199 $-1 #
coedge $-1 $319 $690 $686 $691 forward $199 $-1 #
coedge $-1 $688 $322 $319 $489 forward $494 $-1 #
edge $-1 $496 -11.360291808026798 $692 -5.2996301659656755 $488 $693 forward 7 unknown #
coedge $-1 $694 $695 $320 $491 forward $483 $-1 #
edge $-1 $696 -69.405764333077855 $495 -63.502596734731284 $490 $697 forward 7 unknown #
edge $-1 $496 93.639607356643651 $696 104.47828608050783 $321 $698 forward 7 unknown #
coedge $-1 $322 $688 $694 $699 forward $494 $-1 #
loop $-1 $-1 $688 $482 #
vertex $-1 $491 $700 #
vertex $-1 $323 $701 #
straight-curve $-1 10.759616827882514 19.690252795023035 11.617455629588079 -1 0 0 I I #
coedge $-1 $498 $498 $-1 $702 reversed $326 $-1 #
edge $-1 $703 0 $703 6.2831853071796004 $327 $704 forward 7 unknown #
vertex $-1 $330 $705 #
ellipse-curve $-1 47.69410264480701 15.361208764979381 8.6658718304147904 0.54463904215088732 0 0.83867056331134215 0.41933528165567108 0 -0.27231952107544366 1 I I #
coedge $-1 $502 $502 $-1 $706 reversed $333 $-1 #
edge $-1 $707 0 $707 6.2831853071796004 $334 $708 forward 7 unknown #
vertex $-1 $337 $709 #
ellipse-curve $-1 47.69410264480701 17.958635183005569 8.6658718304147904 0.54463904215088732 0 0.83867056331134215 0.41933528165567108 0 -0.27231952107544366 1 I I #
face $-1 $-1 $518 $69 $-1 $710 forward single #
loop $-1 $-1 $711 $338 #
plane-surface $-1 -52.239143040253914 0 0 1 0 0 0 0 -1 forward_v I I I I #
coedge $-1 $712 $713 $714 $715 reversed $339 $-1 #
coedge $-1 $716 $341 $343 $516 forward $213 $-1 #
coedge $-1 $341 $716 $712 $717 forward $213 $-1 #
coedge $-1 $714 $344 $341 $513 forward $518 $-1 #
edge $-1 $520 0.87329688564142671 $718 8.5085854556891682 $512 $719 forward 7 unknown #
coedge $-1 $720 $721 $342 $515 forward $507 $-1 #
edge $-1 $722 -43.363687808524332 $519 -32.641719602830648 $514 $723 forward 7 unknown #
edge $-1 $520 -19.686374600231588 $722 0 $343 $724 forward 7 unknown #
coedge $-1 $344 $714 $720 $725 forward $518 $-1 #
loop $-1 $-1 $714 $506 #
vertex $-1 $515 $726 #
vertex $-1 $345 $727 #
straight-curve $-1 -54.57104834835404 5.5642380563067242 11.617455629588079 1 0 0 I I #
coedge $-1 $522 $522 $-1 $728 reversed $348 $-1 #
edge $-1 $729 0 $729 6.2831853071796004 $349 $730 forward 7 unknown #
vertex $-1 $352 $731 #
ellipse-curve $-1 -43.983951602486755 7.7457490763203722 6.2564715267412367 -0.54463904215088732 0 0.83867056331134215 0.83867056331134215 0 0.54463904215088732 1 I I #
coedge $-1 $526 $526 $-1 $732 reversed $355 $-1 #
edge $-1 $733 0 $733 6.2831853071796004 $356 $734 forward 7 unknown #
vertex $-1 $359 $735 #
ellipse-curve $-1 -43.983951602486755 11.018015606340832 6.2564715267412367 -0.54463904215088732 0 0.83867056331134215 0.83867056331134215 0 0.54463904215088732 1 I I #
face $-1 $-1 $375 $54 $-1 $736 reversed single #
loop $-1 $-1 $546 $360 #
plane-surface $-1 0 32.901397460217169 0 0 -1 0 0 0 -1 forward_v I I I I #
coedge $-1 $737 $544 $547 $738 forward $361 $-1 #
coedge $-1 $550 $363 $364 $538 reversed $227 $-1 #
coedge $-1 $544 $737 $363 $536 reversed $361 $-1 #
edge $-1 $551 -11.617455629588081 $739 11.617455629588081 $535 $740 forward 7 unknown #
coedge $-1 $365 $364 $737 $741 forward $145 $-1 #
edge $-1 $542 -52.239143040253914 $739 52.239143040253914 $534 $742 forward 7 unknown #
coedge $-1 $547 $546 $365 $540 reversed $531 $-1 #
edge $-1 $743 -52.239143040253914 $541 52.239143040253914 $539 $744 forward 7 unknown #
vertex $-1 $367 $745 #
vertex $-1 $553 $746 #
straight-curve $-1 52.239143040253914 0 -11.617455629588081 0 -1 0 I I #
coedge $-1 $533 $535 $368 $545 reversed $361 $-1 #
edge $-1 $548 -32.901397460217169 $551 32.901397460217169 $544 $747 forward 7 unknown #
coedge $-1 $539 $369 $374 $554 forward $531 $-1 #
coedge $-1 $369 $539 $533 $738 reversed $531 $-1 #
vertex $-1 $370 $748 #
straight-curve $-1 0 32.901397460217169 11.617455629588081 -1 0 0 I I #
coedge $-1 $371 $534 $373 $553 reversed $227 $-1 #
vertex $-1 $545 $749 #
straight-curve $-1 0 -32.901397460217169 11.617455629588081 1 0 0 I I #
edge $-1 $376 -11.617455629588081 $542 11.617455629588081 $373 $750 forward 7 unknown #
edge $-1 $377 -11.617455629588081 $541 11.617455629588081 $374 $751 forward 7 unknown #
point $-1 52.239143040253914 -32.901397460217169 11.617455629588081 #
point $-1 52.239143040253914 32.901397460217169 11.617455629588081 #
face $-1 $-1 $752 $55 $-1 $753 reversed single #
loop $-1 $-1 $754 $379 #
plane-surface $-1 0 0 -11.617455629588081 0 0 1 1 0 0 forward_v I I I I #
coedge $-1 $567 $577 $562 $755 forward $380 $-1 #
coedge $-1 $385 $382 $754 $756 reversed $235 $-1 #
coedge $-1 $382 $385 $560 $755 reversed $235 $-1 #
coedge $-1 $757 $758 $382 $564 forward $752 $-1 #
edge $-1 $759 -11.617455629588081 $760 11.617455629588081 $563 $761 forward 7 unknown #
coedge $-1 $754 $388 $383 $566 forward $558 $-1 #
edge $-1 $393 -23.496263333050855 $570 -18.460342550814367 $565 $762 forward 7 unknown #
coedge $-1 $390 $560 $384 $568 forward $380 $-1 #
edge $-1 $569 18.460342550814367 $392 23.496263333050855 $567 $763 forward 7 unknown #
vertex $-1 $568 $764 #
vertex $-1 $566 $765 #
straight-curve $-1 -39.438645492746979 -22.2807802930772 0 0 0 -1 I I #
coedge $-1 $758 $757 $387 $573 forward $752 $-1 #
edge $-1 $578 -11.617455629588081 $575 11.617455629588081 $572 $766 forward 7 unknown #
coedge $-1 $388 $754 $758 $767 forward $558 $-1 #
vertex $-1 $389 $768 #
straight-curve $-1 -44.474566274983466 -13.795544438323592 -11.617455629588081 0 1 0 I I #
coedge $-1 $560 $390 $757 $769 forward $380 $-1 #
vertex $-1 $769 $770 #
straight-curve $-1 -44.474566274983466 -13.795544438323592 11.617455629588081 0 -1 0 I I #
point $-1 -44.474566274983466 -22.2807802930772 11.617455629588081 #
point $-1 -44.474566274983466 -22.2807802930772 -11.617455629588081 #
face $-1 $-1 $595 $56 $-1 $771 reversed single #
loop $-1 $-1 $601 $395 #
plane-surface $-1 0 0 11.617455629588081 0 0 1 1 0 0 forward_v I I I I #
coedge $-1 $404 $772 $586 $773 forward $396 $-1 #
coedge $-1 $774 $398 $585 $773 reversed $243 $-1 #
coedge $-1 $398 $774 $601 $775 reversed $243 $-1 #
edge $-1 $602 -11.617455629588081 $599 11.617455629588081 $398 $776 forward 7 unknown #
coedge $-1 $772 $404 $399 $590 forward $396 $-1 #
edge $-1 $409 8.4852358547536078 $596 19.105853021893576 $589 $777 forward 7 unknown #
coedge $-1 $406 $778 $400 $592 forward $583 $-1 #
edge $-1 $597 -19.105853021893576 $408 -8.4852358547536078 $591 $779 forward 7 unknown #
coedge $-1 $780 $401 $778 $781 reversed $595 $-1 #
coedge $-1 $401 $780 $772 $782 reversed $595 $-1 #
loop $-1 $-1 $780 $582 #
vertex $-1 $782 $783 #
vertex $-1 $402 $784 #
straight-curve $-1 -44.474566274983466 32.901397460217169 0 0 0 1 I I #
vertex $-1 $405 $785 #
straight-curve $-1 -20.978302941932611 22.2807802930772 -11.617455629588081 -1 0 0 I I #
coedge $-1 $778 $406 $587 $775 forward $583 $-1 #
vertex $-1 $407 $786 #
straight-curve $-1 -20.978302941932611 22.2807802930772 11.617455629588081 1 0 0 I I #
point $-1 -44.474566274983466 22.2807802930772 11.617455629588081 #
point $-1 -44.474566274983466 22.2807802930772 -11.617455629588081 #
loop $-1 $-1 $419 $411 #
plane-surface $-1 52.239143040253914 0 0 -1 0 0 0 0 1 forward_v I I I I #
coedge $-1 $609 $414 $416 $613 reversed $251 $-1 #
coedge $-1 $414 $608 $787 $788 reversed $251 $-1 #
coedge $-1 $422 $417 $414 $611 forward $412 $-1 #
edge $-1 $614 32.389445421477589 $789 41.479526212371397 $610 $790 forward 7 unknown #
coedge $-1 $416 $415 $617 $791 reversed $157 $-1 #
edge $-1 $792 -104.47828608050783 $614 -93.639607356643651 $608 $793 forward 7 unknown #
vertex $-1 $418 $794 #
straight-curve $-1 43.149062249360114 -8.3299609869962339 11.617455629588072 0 -1 0 I I #
coedge $-1 $787 $419 $422 $621 reversed $606 $-1 #
coedge $-1 $419 $787 $612 $791 forward $606 $-1 #
vertex $-1 $420 $795 #
straight-curve $-1 52.239143040253914 -13.629591152961906 75.120052364319363 0 0 1 I I #
straight-curve $-1 -35.383720000689138 -13.629591152961906 62.617241687695667 0.83867056331134215 0 -0.54463904215088732 I I #
edge $-1 $789 -19.690252795023028 $423 -13.629591152961906 $616 $796 forward 7 unknown #
point $-1 52.239143040253914 -13.629591152961906 11.617455629588081 #
point $-1 43.149062249360099 -13.629591152961906 11.617455629588079 #
edge $-1 $797 1 $797 0 $426 $-1 forward 7 unknown #
vertex $-1 $427 $798 #
ellipse-curve $-1 47.14946360265612 -17.958635183005569 7.827201267103443 0.54463904215088732 0 0.83867056331134215 0.41933528165567108 0 -0.27231952107544366 1 I I #
point $-1 48.11343792646268 -17.958635183005569 8.3935523093393414 #
edge $-1 $799 1 $799 0 $430 $-1 forward 7 unknown #
vertex $-1 $431 $800 #
ellipse-curve $-1 47.14946360265612 -15.361208764979374 7.827201267103443 0.54463904215088732 0 0.83867056331134215 0.41933528165567108 0 -0.27231952107544366 1 I I #
point $-1 48.11343792646268 -15.361208764979374 8.3935523093393414 #
plane-surface $-1 0 0 11.617455629588081 0 0 1 1 0 0 forward_v I I I I #
coedge $-1 $643 $642 $635 $801 forward $435 $-1 #
coedge $-1 $635 $437 $439 $639 reversed $273 $-1 #
coedge $-1 $437 $634 $633 $801 reversed $273 $-1 #
coedge $-1 $445 $440 $437 $637 forward $446 $-1 #
edge $-1 $640 32.389445421477589 $802 41.479526212371397 $636 $803 forward 7 unknown #
coedge $-1 $439 $438 $643 $804 reversed $171 $-1 #
edge $-1 $805 -104.47828608050783 $640 -93.639607356643651 $634 $806 forward 7 unknown #
vertex $-1 $441 $807 #
straight-curve $-1 43.149062249360114 -2.7766536623320768 11.617455629588072 0 -1 0 I I #
coedge $-1 $633 $442 $445 $647 reversed $435 $-1 #
coedge $-1 $442 $633 $638 $804 forward $435 $-1 #
vertex $-1 $443 $808 #
straight-curve $-1 52.239143040253914 -2.5229765036335916 75.120052364319363 0 0 1 I I #
straight-curve $-1 -35.383720000689138 -2.5229765036335916 62.617241687695667 0.83867056331134215 0 -0.54463904215088732 I I #
edge $-1 $802 -8.5836381456947155 $447 -2.5229765036335916 $642 $809 forward 7 unknown #
point $-1 52.239143040253914 -2.5229765036335916 11.617455629588081 #
point $-1 43.149062249360099 -2.5229765036335916 11.617455629588079 #
edge $-1 $810 1 $810 0 $450 $-1 forward 7 unknown #
vertex $-1 $451 $811 #
ellipse-curve $-1 47.14946360265612 -6.8520205336772513 7.827201267103443 0.54463904215088732 0 0.83867056331134215 0.41933528165567108 0 -0.27231952107544366 1 I I #
point $-1 48.11343792646268 -6.8520205336772513 8.3935523093393414 #
edge $-1 $812 1 $812 0 $454 $-1 forward 7 unknown #
vertex $-1 $455 $813 #
ellipse-curve $-1 47.14946360265612 -4.2545941156510594 7.827201267103443 0.54463904215088732 0 0.83867056331134215 0.41933528165567108 0 -0.27231952107544366 1 I I #
point $-1 48.11343792646268 -4.2545941156510594 8.3935523093393414 #
plane-surface $-1 0 0 11.617455629588081 0 0 1 1 0 0 forward_v I I I I #
coedge $-1 $669 $668 $661 $814 forward $459 $-1 #
coedge $-1 $661 $461 $463 $665 reversed $295 $-1 #
coedge $-1 $461 $660 $659 $814 reversed $295 $-1 #
coedge $-1 $469 $464 $461 $663 forward $470 $-1 #
edge $-1 $666 32.389445421477589 $815 41.479526212371397 $662 $816 forward 7 unknown #
coedge $-1 $463 $462 $669 $817 reversed $185 $-1 #
edge $-1 $818 -104.47828608050783 $666 -93.639607356643651 $660 $819 forward 7 unknown #
vertex $-1 $465 $820 #
straight-curve $-1 43.149062249360114 2.7766536623320803 11.617455629588072 0 -1 0 I I #
coedge $-1 $659 $466 $469 $673 reversed $459 $-1 #
coedge $-1 $466 $659 $664 $817 forward $459 $-1 #
vertex $-1 $467 $821 #
straight-curve $-1 52.239143040253914 8.5836381456947226 75.120052364319363 0 0 1 I I #
straight-curve $-1 -35.383720000689138 8.5836381456947226 62.617241687695667 0.83867056331134215 0 -0.54463904215088732 I I #
edge $-1 $815 2.5229765036335987 $471 8.5836381456947226 $668 $822 forward 7 unknown #
point $-1 52.239143040253914 8.5836381456947226 11.617455629588081 #
point $-1 43.149062249360099 8.5836381456947226 11.617455629588079 #
edge $-1 $823 1 $823 0 $474 $-1 forward 7 unknown #
vertex $-1 $475 $824 #
ellipse-curve $-1 47.14946360265612 4.2545941156510665 7.827201267103443 0.54463904215088732 0 0.83867056331134215 0.41933528165567108 0 -0.27231952107544366 1 I I #
point $-1 48.11343792646268 4.2545941156510665 8.3935523093393414 #
edge $-1 $825 1 $825 0 $478 $-1 forward 7 unknown #
vertex $-1 $479 $826 #
ellipse-curve $-1 47.14946360265612 6.8520205336772548 7.827201267103443 0.54463904215088732 0 0.83867056331134215 0.41933528165567108 0 -0.27231952107544366 1 I I #
point $-1 48.11343792646268 6.8520205336772548 8.3935523093393414 #
plane-surface $-1 0 0 11.617455629588081 0 0 1 1 0 0 forward_v I I I I #
coedge $-1 $695 $694 $687 $827 forward $483 $-1 #
coedge $-1 $687 $485 $487 $691 reversed $317 $-1 #
coedge $-1 $485 $686 $685 $827 reversed $317 $-1 #
coedge $-1 $493 $488 $485 $689 forward $494 $-1 #
edge $-1 $692 32.389445421477589 $828 41.479526212371397 $688 $829 forward 7 unknown #
coedge $-1 $487 $486 $695 $830 reversed $199 $-1 #
edge $-1 $831 -104.47828608050783 $692 -93.639607356643651 $686 $832 forward 7 unknown #
vertex $-1 $489 $833 #
straight-curve $-1 43.149062249360114 8.3299609869962374 11.617455629588072 0 -1 0 I I #
coedge $-1 $685 $490 $493 $699 reversed $483 $-1 #
coedge $-1 $490 $685 $690 $830 forward $483 $-1 #
vertex $-1 $491 $834 #
straight-curve $-1 52.239143040253914 19.690252795023035 75.120052364319363 0 0 1 I I #
straight-curve $-1 -35.383720000689138 19.690252795023035 62.617241687695667 0.83867056331134215 0 -0.54463904215088732 I I #
edge $-1 $828 13.629591152961913 $495 19.690252795023035 $694 $835 forward 7 unknown #
point $-1 52.239143040253914 19.690252795023035 11.617455629588081 #
point $-1 43.149062249360099 19.690252795023035 11.617455629588079 #
edge $-1 $836 1 $836 0 $498 $-1 forward 7 unknown #
vertex $-1 $499 $837 #
ellipse-curve $-1 47.14946360265612 15.361208764979381 7.827201267103443 0.54463904215088732 0 0.83867056331134215 0.41933528165567108 0 -0.27231952107544366 1 I I #
point $-1 48.11343792646268 15.361208764979381 8.3935523093393414 #
edge $-1 $838 1 $838 0 $502 $-1 forward 7 unknown #
vertex $-1 $503 $839 #
ellipse-curve $-1 47.14946360265612 17.958635183005569 7.827201267103443 0.54463904215088732 0 0.83867056331134215 0.41933528165567108 0 -0.27231952107544366 1 I I #
point $-1 48.11343792646268 17.958635183005569 8.3935523093393414 #
plane-surface $-1 0 0 11.617455629588081 0 0 1 1 0 0 forward_v I I I I #
coedge $-1 $721 $720 $713 $840 forward $507 $-1 #
coedge $-1 $713 $509 $511 $717 reversed $339 $-1 #
coedge $-1 $509 $712 $711 $840 reversed $339 $-1 #
coedge $-1 $517 $512 $509 $715 forward $518 $-1 #
edge $-1 $718 -18.842288183634452 $841 -2.3319053081001258 $714 $842 forward 7 unknown #
coedge $-1 $511 $510 $721 $843 reversed $213 $-1 #
edge $-1 $844 0 $718 19.686374600231588 $712 $845 forward 7 unknown #
vertex $-1 $513 $846 #
straight-curve $-1 -35.728760164719603 4.6909411706652975 11.617455629588081 0 1 0 I I #
coedge $-1 $711 $514 $517 $725 reversed $507 $-1 #
coedge $-1 $514 $711 $716 $843 forward $507 $-1 #
vertex $-1 $515 $847 #
straight-curve $-1 -52.239143040253914 5.5642380563067242 44.259175232418727 0 0 1 I I #
straight-curve $-1 -52.239143040253914 5.5642380563067242 0.8954874238943944 -0.83867056331134215 0 -0.54463904215088732 I I #
edge $-1 $841 -13.199526626354466 $519 -5.5642380563067242 $720 $848 forward 7 unknown #
point $-1 -52.239143040253914 5.5642380563067242 11.617455629588081 #
point $-1 -35.728760164719588 5.5642380563067242 11.617455629588081 #
edge $-1 $849 1 $849 0 $522 $-1 forward 7 unknown #
vertex $-1 $523 $850 #
ellipse-curve $-1 -43.068368943169773 7.7457490763203722 4.8465978944452672 -0.54463904215088732 0 0.83867056331134215 0.83867056331134215 0 0.54463904215088732 1 I I #
point $-1 -43.145281039175408 7.7457490763203722 6.8011105688921214 #
edge $-1 $851 1 $851 0 $526 $-1 forward 7 unknown #
vertex $-1 $527 $852 #
ellipse-curve $-1 -43.068368943169773 11.018015606340832 4.8465978944452672 -0.54463904215088732 0 0.83867056331134215 0.83867056331134215 0 0.54463904215088732 1 I I #
point $-1 -43.145281039175408 11.018015606340832 6.8011105688921214 #
plane-surface $-1 52.239143040253914 0 0 -1 0 0 0 0 1 forward_v I I I I #
coedge $-1 $535 $533 $537 $741 reversed $361 $-1 #
edge $-1 $548 -11.617455629588081 $743 11.617455629588081 $547 $853 forward 7 unknown #
vertex $-1 $741 $854 #
straight-curve $-1 -52.239143040253914 -32.901397460217169 0 0 0 -1 I I #
edge $-1 $739 -32.901397460217169 $743 32.901397460217169 $737 $855 forward 7 unknown #
straight-curve $-1 0 -32.901397460217169 -11.617455629588081 -1 0 0 I I #
vertex $-1 $540 $856 #
straight-curve $-1 0 32.901397460217169 -11.617455629588081 1 0 0 I I #
point $-1 52.239143040253914 32.901397460217169 -11.617455629588081 #
point $-1 52.239143040253914 -32.901397460217169 -11.617455629588081 #
straight-curve $-1 -52.239143040253914 0 11.617455629588081 0 -1 0 I I #
point $-1 -52.239143040253914 32.901397460217169 11.617455629588081 #
point $-1 -52.239143040253914 -32.901397460217169 11.617455629588081 #
straight-curve $-1 52.239143040253914 -32.901397460217169 0 0 0 -1 I I #
straight-curve $-1 52.239143040253914 32.901397460217169 0 0 0 -1 I I #
loop $-1 $-1 $563 $557 #
plane-surface $-1 0 -32.901397460217169 0 0 1 0 0 0 1 forward_v I I I I #
coedge $-1 $574 $565 $561 $756 forward $558 $-1 #
edge $-1 $760 -19.105853021893576 $569 -8.4852358547536078 $560 $857 forward 7 unknown #
edge $-1 $570 8.4852358547536078 $759 19.105853021893576 $754 $858 forward 7 unknown #
coedge $-1 $572 $563 $577 $769 reversed $752 $-1 #
coedge $-1 $563 $572 $574 $767 reversed $752 $-1 #
vertex $-1 $767 $859 #
vertex $-1 $564 $860 #
straight-curve $-1 -39.438645492746979 -32.901397460217169 0 0 0 1 I I #
straight-curve $-1 -20.978302941932611 -22.2807802930772 -11.617455629588081 1 0 0 I I #
straight-curve $-1 -20.978302941932611 -22.2807802930772 11.617455629588081 -1 0 0 I I #
point $-1 -39.438645492746979 -22.2807802930772 11.617455629588081 #
point $-1 -39.438645492746979 -22.2807802930772 -11.617455629588081 #
straight-curve $-1 -44.474566274983466 -32.901397460217169 0 0 0 -1 I I #
edge $-1 $759 39.438645492746979 $575 44.474566274983466 $758 $861 forward 7 unknown #
point $-1 -44.474566274983466 -32.901397460217169 -11.617455629588081 #
edge $-1 $578 -44.474566274983466 $760 -39.438645492746979 $757 $862 forward 7 unknown #
point $-1 -44.474566274983466 -32.901397460217169 11.617455629588081 #
plane-surface $-1 0 32.901397460217169 0 0 -1 0 0 0 -1 forward_v I I I I #
coedge $-1 $585 $589 $594 $782 forward $396 $-1 #
edge $-1 $863 -19.105853021893576 $599 -8.4852358547536078 $585 $864 forward 7 unknown #
coedge $-1 $587 $586 $780 $865 reversed $243 $-1 #
edge $-1 $602 8.4852358547536078 $866 19.105853021893576 $601 $867 forward 7 unknown #
straight-curve $-1 -39.438645492746979 22.2807802930772 0 0 0 -1 I I #
straight-curve $-1 -44.474566274983466 13.795544438323592 -11.617455629588081 0 1 0 I I #
coedge $-1 $591 $601 $593 $781 forward $583 $-1 #
straight-curve $-1 -44.474566274983466 13.795544438323592 11.617455629588081 0 -1 0 I I #
coedge $-1 $594 $593 $774 $865 forward $595 $-1 #
edge $-1 $866 39.438645492746979 $597 44.474566274983466 $593 $868 forward 7 unknown #
edge $-1 $596 -44.474566274983466 $863 -39.438645492746979 $594 $869 forward 7 unknown #
point $-1 -44.474566274983466 32.901397460217169 -11.617455629588081 #
point $-1 -44.474566274983466 32.901397460217169 11.617455629588081 #
point $-1 -39.438645492746979 22.2807802930772 -11.617455629588081 #
point $-1 -39.438645492746979 22.2807802930772 11.617455629588081 #
coedge $-1 $617 $616 $609 $788 forward $606 $-1 #
edge $-1 $789 63.502596734731284 $792 69.405764333077855 $787 $870 forward 7 unknown #
vertex $-1 $621 $871 #
straight-curve $-1 10.759616827882514 -19.690252795023028 11.617455629588079 1 0 0 I I #
edge $-1 $792 -11.360291808026794 $618 -5.2996301659656719 $617 $872 forward 7 unknown #
vertex $-1 $791 $873 #
straight-curve $-1 -35.383720000689138 -19.690252795023028 62.617241687695667 -0.83867056331134215 0 0.54463904215088732 I I #
point $-1 43.149062249360099 -19.690252795023028 11.617455629588079 #
point $-1 52.239143040253921 -13.629591152961906 5.7142880312415016 #
straight-curve $-1 52.239143040253914 0 11.617455629588081 0 1 0 I I #
vertex $-1 $624 $874 #
point $-1 47.568798884311789 -17.958635183005569 7.5548817460279993 #
vertex $-1 $628 $875 #
point $-1 47.568798884311789 -15.361208764979374 7.5548817460279993 #
edge $-1 $802 63.502596734731284 $805 69.405764333077855 $633 $876 forward 7 unknown #
vertex $-1 $647 $877 #
straight-curve $-1 10.759616827882514 -8.5836381456947155 11.617455629588079 1 0 0 I I #
edge $-1 $805 -5.8069844833626387 $644 0.25367715869848517 $643 $878 forward 7 unknown #
vertex $-1 $804 $879 #
straight-curve $-1 -35.383720000689138 -8.5836381456947155 62.617241687695667 -0.83867056331134215 0 0.54463904215088732 I I #
point $-1 43.149062249360099 -8.5836381456947155 11.617455629588079 #
point $-1 52.239143040253921 -2.5229765036335916 5.7142880312415016 #
straight-curve $-1 52.239143040253914 0 11.617455629588081 0 1 0 I I #
vertex $-1 $650 $880 #
point $-1 47.568798884311789 -6.8520205336772513 7.5548817460279993 #
vertex $-1 $654 $881 #
point $-1 47.568798884311789 -4.2545941156510594 7.5548817460279993 #
edge $-1 $815 63.502596734731284 $818 69.405764333077855 $659 $882 forward 7 unknown #
vertex $-1 $673 $883 #
straight-curve $-1 10.759616827882514 2.5229765036335987 11.617455629588079 1 0 0 I I #
edge $-1 $818 -0.25367715869848162 $670 5.8069844833626423 $669 $884 forward 7 unknown #
vertex $-1 $817 $885 #
straight-curve $-1 -35.383720000689138 2.5229765036335987 62.617241687695667 -0.83867056331134215 0 0.54463904215088732 I I #
point $-1 43.149062249360099 2.5229765036335987 11.617455629588079 #
point $-1 52.239143040253921 8.5836381456947226 5.7142880312415016 #
straight-curve $-1 52.239143040253914 0 11.617455629588081 0 1 0 I I #
vertex $-1 $676 $886 #
point $-1 47.568798884311789 4.2545941156510665 7.5548817460279993 #
vertex $-1 $680 $887 #
point $-1 47.568798884311789 6.8520205336772548 7.5548817460279993 #
edge $-1 $828 63.502596734731284 $831 69.405764333077855 $685 $888 forward 7 unknown #
vertex $-1 $699 $889 #
straight-curve $-1 10.759616827882514 13.629591152961913 11.617455629588079 1 0 0 I I #
edge $-1 $831 5.2996301659656755 $696 11.360291808026798 $695 $890 forward 7 unknown #
vertex $-1 $830 $891 #
straight-curve $-1 -35.383720000689138 13.629591152961913 62.617241687695667 -0.83867056331134215 0 0.54463904215088732 I I #
point $-1 43.149062249360099 13.629591152961913 11.617455629588079 #
point $-1 52.239143040253921 19.690252795023035 5.7142880312415016 #
straight-curve $-1 52.239143040253914 0 11.617455629588081 0 1 0 I I #
vertex $-1 $702 $892 #
point $-1 47.568798884311789 15.361208764979381 7.5548817460279993 #
vertex $-1 $706 $893 #
point $-1 47.568798884311789 17.958635183005569 7.5548817460279993 #
edge $-1 $841 32.641719602830648 $844 43.363687808524332 $711 $894 forward 7 unknown #
vertex $-1 $725 $895 #
straight-curve $-1 -54.57104834835404 13.199526626354466 11.617455629588079 -1 0 0 I I #
edge $-1 $844 -8.5085854556891682 $722 -0.87329688564142671 $721 $896 forward 7 unknown #
vertex $-1 $843 $897 #
straight-curve $-1 -52.239143040253914 13.199526626354466 0.8954874238943944 0.83867056331134215 0 0.54463904215088732 I I #
point $-1 -35.728760164719588 13.199526626354466 11.617455629588081 #
point $-1 -52.239143040253914 5.5642380563067242 0.8954874238943944 #
straight-curve $-1 -52.239143040253914 0 11.617455629588081 0 -1 0 I I #
vertex $-1 $728 $898 #
point $-1 -42.229698379858426 7.7457490763203722 5.3912369365961545 #
vertex $-1 $732 $899 #
point $-1 -42.229698379858426 11.018015606340832 5.3912369365961545 #
straight-curve $-1 -52.239143040253914 32.901397460217169 0 0 0 -1 I I #
point $-1 -52.239143040253914 -32.901397460217169 -11.617455629588081 #
straight-curve $-1 -52.239143040253914 0 -11.617455629588081 0 1 0 I I #
point $-1 -52.239143040253914 32.901397460217169 -11.617455629588081 #
straight-curve $-1 -39.438645492746979 -13.795544438323592 11.617455629588081 0 1 0 I I #
straight-curve $-1 -39.438645492746979 -13.795544438323592 -11.617455629588081 0 -1 0 I I #
point $-1 -39.438645492746979 -32.901397460217169 -11.617455629588081 #
point $-1 -39.438645492746979 -32.901397460217169 11.617455629588081 #
straight-curve $-1 0 -32.901397460217169 -11.617455629588081 -1 0 0 I I #
straight-curve $-1 0 -32.901397460217169 11.617455629588081 1 0 0 I I #
vertex $-1 $865 $900 #
straight-curve $-1 -39.438645492746979 13.795544438323592 -11.617455629588081 0 -1 0 I I #
edge $-1 $866 -11.617455629588081 $863 11.617455629588081 $780 $901 forward 7 unknown #
vertex $-1 $781 $902 #
straight-curve $-1 -39.438645492746979 13.795544438323592 11.617455629588081 0 1 0 I I #
straight-curve $-1 0 32.901397460217169 11.617455629588081 -1 0 0 I I #
straight-curve $-1 0 32.901397460217169 -11.617455629588081 1 0 0 I I #
straight-curve $-1 52.239143040253914 -19.690252795023028 75.120052364319363 0 0 -1 I I #
point $-1 52.239143040253914 -19.690252795023028 11.617455629588081 #
straight-curve $-1 52.239143040253907 -8.3299609869962339 5.7142880312415052 0 1 0 I I #
point $-1 52.239143040253921 -19.690252795023028 5.7142880312415016 #
point $-1 46.877144081580674 -17.958635183005569 7.4078659854477715 #
point $-1 46.877144081580674 -15.361208764979374 7.4078659854477715 #
straight-curve $-1 52.239143040253914 -8.5836381456947155 75.120052364319363 0 0 -1 I I #
point $-1 52.239143040253914 -8.5836381456947155 11.617455629588081 #
straight-curve $-1 52.239143040253907 -2.7766536623320768 5.7142880312415052 0 1 0 I I #
point $-1 52.239143040253921 -8.5836381456947155 5.7142880312415016 #
point $-1 46.877144081580674 -6.8520205336772513 7.4078659854477715 #
point $-1 46.877144081580674 -4.2545941156510594 7.4078659854477715 #
straight-curve $-1 52.239143040253914 2.5229765036335987 75.120052364319363 0 0 -1 I I #
point $-1 52.239143040253914 2.5229765036335987 11.617455629588081 #
straight-curve $-1 52.239143040253907 2.7766536623320803 5.7142880312415052 0 1 0 I I #
point $-1 52.239143040253921 2.5229765036335987 5.7142880312415016 #
point $-1 46.877144081580674 4.2545941156510665 7.4078659854477715 #
point $-1 46.877144081580674 6.8520205336772548 7.4078659854477715 #
straight-curve $-1 52.239143040253914 13.629591152961913 75.120052364319363 0 0 -1 I I #
point $-1 52.239143040253914 13.629591152961913 11.617455629588081 #
straight-curve $-1 52.239143040253907 8.3299609869962374 5.7142880312415052 0 1 0 I I #
point $-1 52.239143040253921 13.629591152961913 5.7142880312415016 #
point $-1 46.877144081580674 15.361208764979381 7.4078659854477715 #
point $-1 46.877144081580674 17.958635183005569 7.4078659854477715 #
straight-curve $-1 -52.239143040253914 13.199526626354466 44.259175232418727 0 0 -1 I I #
point $-1 -52.239143040253914 13.199526626354466 11.617455629588081 #
straight-curve $-1 -52.239143040253914 4.6909411706652975 0.89548742389439417 0 -1 0 I I #
point $-1 -52.239143040253914 13.199526626354466 0.8954874238943944 #
point $-1 -42.523729901018882 7.7457490763203722 4.0079273311339243 #
point $-1 -42.523729901018882 11.018015606340832 4.0079273311339243 #
point $-1 -39.438645492746979 32.901397460217169 -11.617455629588081 #
straight-curve $-1 -39.438645492746979 32.901397460217169 0 0 0 -1 I I #
point $-1 -39.438645492746979 32.901397460217169 11.617455629588081 #
End-of-ACIS-data 