500 0 11 0           
7 Unknown 11 ACIS 5.0 NT 24 Thu Mar 25 21:24:13 1999 
-1 9.9999999999999995e-007 1e-010 
body $-1 $11 $-1 $12 #
body $-1 $13 $-1 $14 #
body $-1 $15 $-1 $16 #
body $-1 $17 $-1 $18 #
body $-1 $19 $-1 $20 #
body $-1 $21 $-1 $22 #
body $-1 $23 $-1 $24 #
body $-1 $25 $-1 $26 #
body $-1 $27 $-1 $28 #
body $-1 $29 $-1 $30 #
body $-1 $31 $-1 $32 #
lump $-1 $-1 $33 $0 #
transform $-1 1 0 0 0 1 0 0 0 1 68.547013763847772 28.273577374306718 12.361266357885773 1 rotate no_reflect no_shear #
lump $-1 $-1 $34 $1 #
transform $-1 1 0 0 0 1 0 0 0 1 68.547013763847772 28.273577374306718 12.361266357885773 1 rotate no_reflect no_shear #
lump $-1 $-1 $35 $2 #
transform $-1 1 0 0 0 1 0 0 0 1 68.547013763847772 28.273577374306718 12.361266357885773 1 rotate no_reflect no_shear #
lump $-1 $-1 $36 $3 #
transform $-1 1 0 0 0 1 0 0 0 1 68.547013763847772 28.273577374306718 12.361266357885773 1 rotate no_reflect no_shear #
lump $-1 $-1 $37 $4 #
transform $-1 1 0 0 0 1 0 0 0 1 68.547013763847772 28.273577374306718 12.361266357885773 1 rotate no_reflect no_shear #
lump $-1 $-1 $38 $5 #
transform $-1 1 0 0 0 1 0 0 0 1 68.547013763847772 28.273577374306718 12.361266357885773 1 rotate no_reflect no_shear #
lump $-1 $-1 $39 $6 #
transform $-1 1 0 0 0 1 0 0 0 1 68.547013763847772 28.273577374306718 12.361266357885773 1 rotate no_reflect no_shear #
lump $-1 $-1 $40 $7 #
transform $-1 1 0 0 0 1 0 0 0 1 68.547013763847772 28.273577374306718 12.361266357885773 1 rotate no_reflect no_shear #
lump $-1 $-1 $41 $8 #
transform $-1 1 0 0 0 1 0 0 0 1 68.547013763847772 28.273577374306718 12.361266357885773 1 rotate no_reflect no_shear #
lump $-1 $-1 $42 $9 #
transform $-1 1 0 0 0 1 0 0 0 1 68.547013763847772 28.273577374306718 12.361266357885773 1 rotate no_reflect no_shear #
lump $-1 $-1 $43 $10 #
transform $-1 1 0 0 0 1 0 0 0 1 68.547013763847772 28.273577374306718 12.361266357885773 1 rotate no_reflect no_shear #
shell $-1 $-1 $-1 $44 $-1 $11 #
shell $-1 $-1 $-1 $45 $-1 $13 #
shell $-1 $-1 $-1 $46 $-1 $15 #
shell $-1 $-1 $-1 $47 $-1 $17 #
shell $-1 $-1 $-1 $48 $-1 $19 #
shell $-1 $-1 $-1 $49 $-1 $21 #
shell $-1 $-1 $-1 $50 $-1 $23 #
shell $-1 $-1 $-1 $51 $-1 $25 #
shell $-1 $-1 $-1 $52 $-1 $27 #
shell $-1 $-1 $-1 $53 $-1 $29 #
shell $-1 $-1 $-1 $54 $-1 $31 #
face $-1 $55 $56 $33 $-1 $57 forward single #
face $-1 $58 $59 $34 $-1 $60 reversed single #
face $-1 $61 $62 $35 $-1 $63 reversed single #
face $-1 $64 $65 $36 $-1 $66 forward single #
face $-1 $67 $68 $37 $-1 $69 forward single #
face $-1 $70 $71 $38 $-1 $72 reversed single #
face $-1 $73 $74 $39 $-1 $75 forward single #
face $-1 $76 $77 $40 $-1 $78 forward single #
face $-1 $79 $80 $41 $-1 $81 reversed single #
face $-1 $82 $83 $42 $-1 $84 forward single #
face $-1 $85 $86 $43 $-1 $87 forward single #
face $-1 $88 $89 $33 $-1 $90 reversed single #
loop $-1 $-1 $91 $44 #
plane-surface $-1 0 0 12.361266357885773 0 0 1 1 0 0 forward_v I I I I #
face $-1 $92 $93 $34 $-1 $94 reversed single #
loop $-1 $-1 $95 $45 #
plane-surface $-1 0 -23.484383595810193 6.797394993222726 0 0 1 1 0 0 forward_v I I I I #
face $-1 $96 $97 $35 $-1 $98 reversed single #
loop $-1 $-1 $99 $46 #
plane-surface $-1 78.693923553309318 -0.00094632672360539516 199.64062596666116 0 -1 0 -0.74314483375859142 0 -0.66913059716165679 forward_v I I I I #
face $-1 $100 $101 $36 $-1 $102 forward single #
loop $-1 $103 $104 $47 #
cone-surface $-1 64.963614048421519 -8.2238802810879719 8.5352220672531782 -0.74314483375859142 0 -0.66913059716165679 0.66913059716165679 0 -0.74314483375859142 1 I I 0 1 1 forward I I I I #
face $-1 $105 $106 $37 $-1 $107 forward single #
loop $-1 $108 $109 $48 #
cone-surface $-1 64.963614048421519 -3.2901199084693538 8.5352220672531782 -0.74314483375859142 0 -0.66913059716165679 0.66913059716165679 0 -0.74314483375859142 1 I I 0 1 1 forward I I I I #
face $-1 $110 $111 $38 $-1 $112 reversed single #
loop $-1 $-1 $113 $49 #
plane-surface $-1 -68.547013763847758 -15.569014760259567 0.40511110859955579 -0.62932039886446345 0 0.77714595512881146 0.77714595512881146 0 0.62932039886446345 forward_v I I I I #
face $-1 $114 $115 $39 $-1 $116 forward single #
loop $-1 $117 $118 $50 #
cone-surface $-1 -60.598689972182186 -16.90880407042561 5.6842210475493706 0.62932039886446345 0 -0.77714595512881146 0.38857297756440573 0 0.31466019943223172 1 I I 0 1 0.5 forward I I I I #
face $-1 $119 $120 $40 $-1 $121 forward single #
loop $-1 $122 $123 $51 #
cone-surface $-1 -60.598689972182186 -14.229225450093525 5.6842210475493706 0.62932039886446345 0 -0.77714595512881146 0.38857297756440573 0 0.31466019943223172 1 I I 0 1 0.5 forward I I I I #
face $-1 $124 $125 $41 $-1 $126 reversed single #
loop $-1 $-1 $127 $52 #
plane-surface $-1 -154.82308184951285 22.021227260198522 106.94718007406608 0 1 0 -0.62932039886446345 0 0.77714595512881146 forward_v I I I I #
face $-1 $128 $129 $42 $-1 $130 forward single #
loop $-1 $131 $132 $53 #
cone-surface $-1 -60.598689972182186 23.80761300708658 5.6842210475493706 0.62932039886446345 0 -0.77714595512881146 0.38857297756440573 0 0.31466019943223172 1 I I 0 1 0.5 forward I I I I #
face $-1 $133 $134 $43 $-1 $135 forward single #
loop $-1 $136 $137 $54 #
cone-surface $-1 -60.598689972182186 26.487191627418667 5.6842210475493706 0.62932039886446345 0 -0.77714595512881146 0.38857297756440573 0 0.31466019943223172 1 I I 0 1 0.5 forward I I I I #
face $-1 $138 $139 $33 $-1 $140 reversed single #
loop $-1 $-1 $141 $55 #
plane-surface $-1 0 0 -12.361266357885773 0 0 1 1 0 0 forward_v I I I I #
coedge $-1 $142 $143 $144 $145 forward $56 $-1 #
face $-1 $146 $147 $34 $-1 $148 reversed single #
loop $-1 $-1 $149 $58 #
plane-surface $-1 0 -18.695189817313668 9.5793306755542513 0 -1 0 0 0 -1 forward_v I I I I #
coedge $-1 $150 $151 $152 $153 reversed $59 $-1 #
face $-1 $154 $155 $35 $-1 $156 reversed single #
loop $-1 $-1 $157 $61 #
plane-surface $-1 -23.186794743055742 -5.757000094778661 107.90681745975763 0.74314483375859142 0 0.66913059716165679 0.66913059716165679 0 -0.74314483375859142 forward_v I I I I #
coedge $-1 $158 $159 $160 $161 reversed $62 $-1 #
face $-1 $-1 $162 $36 $-1 $163 forward single #
loop $-1 $164 $165 $64 #
cone-surface $-1 63.860746926743829 -8.2238802810879719 7.5421960752863502 -0.74314483375859142 0 -0.66913059716165679 0.3345652985808284 0 -0.37157241687929571 1 I I -0.70710678118654746 0.70710678118654746 0.5 forward I I I I #
loop $-1 $-1 $166 $47 #
coedge $-1 $104 $104 $167 $168 reversed $65 $-1 #
face $-1 $-1 $169 $37 $-1 $170 forward single #
loop $-1 $171 $172 $67 #
cone-surface $-1 63.860746926743829 -3.2901199084693538 7.5421960752863502 -0.74314483375859142 0 -0.66913059716165679 0.3345652985808284 0 -0.37157241687929571 1 I I -0.70710678118654746 0.70710678118654746 0.5 forward I I I I #
loop $-1 $-1 $173 $48 #
coedge $-1 $109 $109 $174 $175 reversed $68 $-1 #
face $-1 $176 $177 $38 $-1 $178 forward single #
loop $-1 $-1 $179 $70 #
plane-surface $-1 -154.82308184951285 -12.442839703205468 106.94718007406608 0 -1 0 0.62932039886446345 0 -0.77714595512881146 forward_v I I I I #
coedge $-1 $180 $181 $182 $183 reversed $71 $-1 #
face $-1 $-1 $184 $39 $-1 $185 forward single #
loop $-1 $186 $187 $73 #
cone-surface $-1 -59.875346989234927 -16.90880407042561 4.7909668730738648 0.62932039886446345 0 -0.77714595512881146 0.19428648878220287 0 0.15733009971611586 1 I I -0.70710678118654746 0.70710678118654746 0.25 forward I I I I #
loop $-1 $-1 $188 $50 #
coedge $-1 $118 $118 $189 $190 reversed $74 $-1 #
face $-1 $-1 $191 $40 $-1 $192 forward single #
loop $-1 $193 $194 $76 #
cone-surface $-1 -59.875346989234927 -14.229225450093525 4.7909668730738648 0.62932039886446345 0 -0.77714595512881146 0.19428648878220287 0 0.15733009971611586 1 I I -0.70710678118654746 0.70710678118654746 0.25 forward I I I I #
loop $-1 $-1 $195 $51 #
coedge $-1 $123 $123 $196 $197 reversed $77 $-1 #
face $-1 $198 $199 $41 $-1 $200 forward single #
loop $-1 $-1 $201 $79 #
plane-surface $-1 -68.547013763847758 25.14740231725262 0.40511110859955579 -0.62932039886446345 0 0.77714595512881146 0.77714595512881146 0 0.62932039886446345 forward_v I I I I #
coedge $-1 $202 $203 $204 $205 reversed $80 $-1 #
face $-1 $-1 $206 $42 $-1 $207 forward single #
loop $-1 $208 $209 $82 #
cone-surface $-1 -59.875346989234927 23.80761300708658 4.7909668730738648 0.62932039886446345 0 -0.77714595512881146 0.19428648878220287 0 0.15733009971611586 1 I I -0.70710678118654746 0.70710678118654746 0.25 forward I I I I #
loop $-1 $-1 $210 $53 #
coedge $-1 $132 $132 $211 $212 reversed $83 $-1 #
face $-1 $-1 $213 $43 $-1 $214 forward single #
loop $-1 $215 $216 $85 #
cone-surface $-1 -59.875346989234927 26.487191627418667 4.7909668730738648 0.62932039886446345 0 -0.77714595512881146 0.19428648878220287 0 0.15733009971611586 1 I I -0.70710678118654746 0.70710678118654746 0.25 forward I I I I #
loop $-1 $-1 $217 $54 #
coedge $-1 $137 $137 $218 $219 reversed $86 $-1 #
face $-1 $220 $221 $33 $-1 $222 reversed single #
loop $-1 $-1 $223 $88 #
plane-surface $-1 0 -28.273577374306718 0 0 1 0 0 0 1 forward_v I I I I #
coedge $-1 $224 $225 $226 $227 forward $89 $-1 #
coedge $-1 $228 $91 $229 $230 forward $56 $-1 #
coedge $-1 $91 $228 $231 $232 forward $56 $-1 #
coedge $-1 $233 $234 $91 $145 reversed $235 $-1 #
edge $-1 $236 -28.273577374306718 $237 28.273577374306718 $144 $238 forward 7 unknown #
face $-1 $239 $240 $34 $-1 $241 reversed single #
loop $-1 $-1 $242 $92 #
plane-surface $-1 -68.547013763847772 0 0 1 0 0 0 0 -1 forward_v I I I I #
coedge $-1 $243 $244 $245 $246 reversed $93 $-1 #
coedge $-1 $247 $95 $248 $249 reversed $59 $-1 #
coedge $-1 $95 $247 $250 $251 forward $59 $-1 #
coedge $-1 $252 $253 $95 $153 forward $254 $-1 #
edge $-1 $255 -16.531385576401622 $256 -6.9529980194085717 $152 $257 forward 7 unknown #
face $-1 $258 $259 $35 $-1 $260 reversed single #
loop $-1 $-1 $261 $96 #
plane-surface $-1 78.693923553309318 -11.513053862833717 199.64062596666116 0 1 0 0.74314483375859142 0 0.66913059716165679 forward_v I I I I #
coedge $-1 $262 $263 $264 $265 reversed $97 $-1 #
coedge $-1 $159 $99 $266 $267 reversed $62 $-1 #
coedge $-1 $99 $158 $262 $268 reversed $62 $-1 #
coedge $-1 $264 $269 $99 $161 forward $270 $-1 #
edge $-1 $271 -29.200051987193113 $272 -23.495841965937423 $160 $273 forward 7 unknown #
loop $-1 $-1 $167 $100 #
plane-surface $-1 -23.186794743055742 -5.757000094778661 107.90681745975763 0.74314483375859142 0 0.66913059716165679 0.66913059716165679 0 -0.74314483375859142 forward_v I I I I #
loop $-1 $-1 $274 $64 #
coedge $-1 $165 $165 $166 $275 reversed $101 $-1 #
coedge $-1 $166 $166 $165 $275 forward $103 $-1 #
coedge $-1 $167 $167 $104 $168 forward $162 $-1 #
edge $-1 $276 0 $276 6.2831853071796004 $167 $277 forward 7 unknown #
loop $-1 $-1 $174 $105 #
plane-surface $-1 -23.186794743055742 -5.757000094778661 107.90681745975763 0.74314483375859142 0 0.66913059716165679 0.66913059716165679 0 -0.74314483375859142 forward_v I I I I #
loop $-1 $-1 $278 $67 #
coedge $-1 $172 $172 $173 $279 reversed $106 $-1 #
coedge $-1 $173 $173 $172 $279 forward $108 $-1 #
coedge $-1 $174 $174 $109 $175 forward $169 $-1 #
edge $-1 $280 0 $280 6.2831853071796004 $174 $281 forward 7 unknown #
face $-1 $282 $283 $38 $-1 $284 reversed single #
loop $-1 $-1 $182 $110 #
plane-surface $-1 0 0 12.361266357885773 0 0 1 1 0 0 forward_v I I I I #
coedge $-1 $285 $286 $287 $288 reversed $111 $-1 #
coedge $-1 $289 $113 $290 $291 reversed $71 $-1 #
coedge $-1 $113 $289 $285 $292 forward $71 $-1 #
coedge $-1 $287 $293 $113 $183 forward $177 $-1 #
edge $-1 $294 -10.910682437183882 $295 -4.658332323075685 $182 $296 forward 7 unknown #
loop $-1 $-1 $189 $114 #
plane-surface $-1 -68.547013763847758 -15.569014760259567 0.40511110859955579 -0.62932039886446345 0 0.77714595512881146 0.77714595512881146 0 0.62932039886446345 forward_v I I I I #
loop $-1 $-1 $297 $73 #
coedge $-1 $187 $187 $188 $298 reversed $115 $-1 #
coedge $-1 $188 $188 $187 $298 forward $117 $-1 #
coedge $-1 $189 $189 $118 $190 forward $184 $-1 #
edge $-1 $299 0 $299 6.2831853071796004 $189 $300 forward 7 unknown #
loop $-1 $-1 $196 $119 #
plane-surface $-1 -68.547013763847758 -15.569014760259567 0.40511110859955579 -0.62932039886446345 0 0.77714595512881146 0.77714595512881146 0 0.62932039886446345 forward_v I I I I #
loop $-1 $-1 $301 $76 #
coedge $-1 $194 $194 $195 $302 reversed $120 $-1 #
coedge $-1 $195 $195 $194 $302 forward $122 $-1 #
coedge $-1 $196 $196 $123 $197 forward $191 $-1 #
edge $-1 $303 0 $303 6.2831853071796004 $196 $304 forward 7 unknown #
face $-1 $305 $306 $41 $-1 $307 reversed single #
loop $-1 $-1 $204 $124 #
plane-surface $-1 0 0 12.361266357885773 0 0 1 1 0 0 forward_v I I I I #
coedge $-1 $308 $309 $310 $311 reversed $125 $-1 #
coedge $-1 $203 $127 $312 $313 reversed $80 $-1 #
coedge $-1 $127 $202 $308 $314 reversed $80 $-1 #
coedge $-1 $310 $315 $127 $205 forward $199 $-1 #
edge $-1 $316 8.8645271609086507 $317 23.629148977777561 $204 $318 forward 7 unknown #
loop $-1 $-1 $211 $128 #
plane-surface $-1 -68.547013763847758 25.14740231725262 0.40511110859955579 -0.62932039886446345 0 0.77714595512881146 0.77714595512881146 0 0.62932039886446345 forward_v I I I I #
loop $-1 $-1 $319 $82 #
coedge $-1 $209 $209 $210 $320 reversed $129 $-1 #
coedge $-1 $210 $210 $209 $320 forward $131 $-1 #
coedge $-1 $211 $211 $132 $212 forward $206 $-1 #
edge $-1 $321 0 $321 6.2831853071796004 $211 $322 forward 7 unknown #
loop $-1 $-1 $218 $133 #
plane-surface $-1 -68.547013763847758 25.14740231725262 0.40511110859955579 -0.62932039886446345 0 0.77714595512881146 0.77714595512881146 0 0.62932039886446345 forward_v I I I I #
loop $-1 $-1 $323 $85 #
coedge $-1 $216 $216 $217 $324 reversed $134 $-1 #
coedge $-1 $217 $217 $216 $324 forward $136 $-1 #
coedge $-1 $218 $218 $137 $219 forward $213 $-1 #
edge $-1 $325 0 $325 6.2831853071796004 $218 $326 forward 7 unknown #
face $-1 $327 $328 $33 $-1 $329 reversed single #
loop $-1 $-1 $330 $138 #
plane-surface $-1 -68.547013763847772 0 0 1 0 0 0 0 -1 forward_v I I I I #
coedge $-1 $331 $231 $332 $333 forward $139 $-1 #
coedge $-1 $334 $141 $331 $335 forward $89 $-1 #
coedge $-1 $141 $334 $336 $337 forward $89 $-1 #
coedge $-1 $234 $233 $141 $227 reversed $235 $-1 #
edge $-1 $338 -28.273577374306718 $339 28.273577374306718 $226 $340 forward 7 unknown #
coedge $-1 $143 $142 $341 $342 forward $56 $-1 #
coedge $-1 $343 $344 $142 $230 reversed $328 $-1 #
edge $-1 $237 -68.547013763847772 $345 68.547013763847772 $229 $346 forward 7 unknown #
coedge $-1 $223 $347 $143 $232 reversed $139 $-1 #
edge $-1 $348 -68.547013763847772 $236 68.547013763847772 $231 $349 forward 7 unknown #
coedge $-1 $226 $144 $347 $350 forward $235 $-1 #
coedge $-1 $144 $226 $343 $351 reversed $235 $-1 #
loop $-1 $-1 $233 $327 #
vertex $-1 $145 $352 #
vertex $-1 $145 $353 #
straight-curve $-1 68.547013763847772 0 12.361266357885773 0 1 0 I I #
face $-1 $354 $355 $34 $-1 $356 forward single #
loop $-1 $-1 $248 $146 #
plane-surface $-1 0 -28.273577374306718 0 0 1 0 0 0 1 forward_v I I I I #
coedge $-1 $357 $358 $244 $359 forward $147 $-1 #
coedge $-1 $250 $149 $252 $360 reversed $93 $-1 #
coedge $-1 $149 $250 $242 $359 reversed $93 $-1 #
coedge $-1 $361 $362 $149 $246 forward $355 $-1 #
edge $-1 $363 -68.547013763847772 $364 68.547013763847772 $245 $365 forward 7 unknown #
coedge $-1 $151 $150 $357 $366 reversed $59 $-1 #
coedge $-1 $367 $368 $150 $249 forward $240 $-1 #
edge $-1 $369 -68.547013763847772 $255 68.547013763847772 $248 $370 forward 7 unknown #
coedge $-1 $244 $243 $151 $251 reversed $93 $-1 #
edge $-1 $371 -68.547013763847772 $256 68.547013763847772 $250 $372 forward 7 unknown #
coedge $-1 $373 $152 $243 $360 forward $254 $-1 #
coedge $-1 $152 $373 $367 $374 forward $254 $-1 #
loop $-1 $-1 $252 $354 #
vertex $-1 $249 $375 #
vertex $-1 $153 $376 #
straight-curve $-1 68.547013763847772 -11.742191797905097 6.797394993222726 0 1 0 I I #
face $-1 $-1 $270 $35 $-1 $377 forward single #
loop $-1 $-1 $378 $154 #
plane-surface $-1 68.547013763847772 0 0 -1 0 0 0 0 1 forward_v I I I I #
coedge $-1 $379 $380 $381 $382 reversed $155 $-1 #
coedge $-1 $383 $157 $159 $268 forward $97 $-1 #
coedge $-1 $157 $383 $379 $384 forward $97 $-1 #
coedge $-1 $381 $160 $157 $265 forward $270 $-1 #
edge $-1 $272 -2.8775537206657251 $385 8.6345538154443862 $264 $386 forward 7 unknown #
coedge $-1 $387 $388 $158 $267 forward $259 $-1 #
edge $-1 $389 -93.794213819937994 $271 -87.459046625444813 $266 $390 forward 7 unknown #
edge $-1 $272 128.56921929825268 $389 137.09402752769552 $159 $391 forward 7 unknown #
coedge $-1 $160 $381 $387 $392 forward $270 $-1 #
loop $-1 $-1 $381 $258 #
vertex $-1 $267 $393 #
vertex $-1 $161 $394 #
straight-curve $-1 39.346961776654659 -0.00094632672360539516 12.361266357885768 -1 0 0 I I #
coedge $-1 $274 $274 $-1 $395 reversed $164 $-1 #
edge $-1 $396 0 $396 6.2831853071796004 $165 $397 forward 7 unknown #
vertex $-1 $168 $398 #
ellipse-curve $-1 65.69490875321992 -8.2238802810879719 9.193682760639188 0.74314483375859142 0 0.66913059716165679 0.66913059716165679 0 -0.74314483375859142 1 I I #
coedge $-1 $278 $278 $-1 $399 reversed $171 $-1 #
edge $-1 $400 0 $400 6.2831853071796004 $172 $401 forward 7 unknown #
vertex $-1 $175 $402 #
ellipse-curve $-1 65.69490875321992 -3.2901199084693538 9.193682760639188 0.74314483375859142 0 0.66913059716165679 0.66913059716165679 0 -0.74314483375859142 1 I I #
face $-1 $-1 $403 $38 $-1 $404 forward single #
loop $-1 $-1 $405 $176 #
plane-surface $-1 -68.547013763847772 0 0 1 0 0 0 0 -1 forward_v I I I I #
coedge $-1 $286 $179 $181 $292 reversed $111 $-1 #
coedge $-1 $179 $285 $405 $406 reversed $111 $-1 #
coedge $-1 $407 $182 $179 $288 forward $177 $-1 #
edge $-1 $295 -23.629148977777561 $408 -8.8645271609086507 $287 $409 forward 7 unknown #
coedge $-1 $181 $180 $410 $411 reversed $71 $-1 #
coedge $-1 $412 $413 $180 $291 forward $403 $-1 #
edge $-1 $414 -29.52227899993969 $294 -10.523760485587154 $290 $415 forward 7 unknown #
edge $-1 $416 -1.8275308326538544e-014 $295 18.998518514352519 $285 $417 forward 7 unknown #
coedge $-1 $182 $407 $412 $418 forward $177 $-1 #
vertex $-1 $291 $419 #
vertex $-1 $183 $420 #
straight-curve $-1 -53.782391946978869 -7.7845073801297833 12.361266357885771 0 1 0 I I #
coedge $-1 $297 $297 $-1 $421 reversed $186 $-1 #
edge $-1 $422 0 $422 6.2831853071796004 $187 $423 forward 7 unknown #
vertex $-1 $190 $424 #
ellipse-curve $-1 -61.164702855413317 -16.90880407042561 6.3831887332426591 -0.62932039886446345 0 0.77714595512881146 0.38857297756440573 0 0.31466019943223172 1 I I #
coedge $-1 $301 $301 $-1 $425 reversed $193 $-1 #
edge $-1 $426 0 $426 6.2831853071796004 $194 $427 forward 7 unknown #
vertex $-1 $197 $428 #
ellipse-curve $-1 -61.164702855413317 -14.229225450093525 6.3831887332426591 -0.62932039886446345 0 0.77714595512881146 0.38857297756440573 0 0.31466019943223172 1 I I #
face $-1 $-1 $429 $41 $-1 $430 reversed single #
loop $-1 $-1 $431 $198 #
plane-surface $-1 0 28.273577374306718 0 0 -1 0 0 0 -1 forward_v I I I I #
coedge $-1 $432 $201 $203 $314 forward $125 $-1 #
coedge $-1 $201 $432 $431 $433 reversed $125 $-1 #
coedge $-1 $434 $204 $201 $311 forward $199 $-1 #
edge $-1 $317 9.4475261015722118 $435 15.699876215680408 $310 $436 forward 7 unknown #
coedge $-1 $437 $438 $202 $313 forward $429 $-1 #
edge $-1 $439 -53.0684789284335 $316 -41.112323679147266 $312 $440 forward 7 unknown #
edge $-1 $317 -18.998518514352519 $439 1.8275308326538544e-014 $203 $441 forward 7 unknown #
coedge $-1 $204 $434 $437 $442 forward $199 $-1 #
vertex $-1 $313 $443 #
vertex $-1 $205 $444 #
straight-curve $-1 -77.411540924756423 22.021227260198522 12.361266357885775 1 0 0 I I #
coedge $-1 $319 $319 $-1 $445 reversed $208 $-1 #
edge $-1 $446 0 $446 6.2831853071796004 $209 $447 forward 7 unknown #
vertex $-1 $212 $448 #
ellipse-curve $-1 -61.164702855413317 23.80761300708658 6.3831887332426591 -0.62932039886446345 0 0.77714595512881146 0.38857297756440573 0 0.31466019943223172 1 I I #
coedge $-1 $323 $323 $-1 $449 reversed $215 $-1 #
edge $-1 $450 0 $450 6.2831853071796004 $216 $451 forward 7 unknown #
vertex $-1 $219 $452 #
ellipse-curve $-1 -61.164702855413317 26.487191627418667 6.3831887332426591 -0.62932039886446345 0 0.77714595512881146 0.38857297756440573 0 0.31466019943223172 1 I I #
face $-1 $-1 $235 $33 $-1 $453 reversed single #
loop $-1 $-1 $343 $220 #
plane-surface $-1 0 28.273577374306718 0 0 -1 0 0 0 -1 forward_v I I I I #
coedge $-1 $454 $341 $344 $455 forward $221 $-1 #
coedge $-1 $347 $223 $224 $335 reversed $139 $-1 #
coedge $-1 $341 $454 $223 $333 reversed $221 $-1 #
edge $-1 $348 -12.361266357885773 $456 12.361266357885773 $332 $457 forward 7 unknown #
coedge $-1 $225 $224 $454 $458 forward $89 $-1 #
edge $-1 $339 -68.547013763847772 $456 68.547013763847772 $331 $459 forward 7 unknown #
coedge $-1 $344 $343 $225 $337 reversed $328 $-1 #
edge $-1 $460 -68.547013763847772 $338 68.547013763847772 $336 $461 forward 7 unknown #
vertex $-1 $227 $462 #
vertex $-1 $350 $463 #
straight-curve $-1 68.547013763847772 0 -12.361266357885773 0 -1 0 I I #
coedge $-1 $330 $332 $228 $342 reversed $221 $-1 #
edge $-1 $345 -28.273577374306718 $348 28.273577374306718 $341 $464 forward 7 unknown #
coedge $-1 $336 $229 $234 $351 forward $328 $-1 #
coedge $-1 $229 $336 $330 $455 reversed $328 $-1 #
vertex $-1 $230 $465 #
straight-curve $-1 0 28.273577374306718 12.361266357885773 -1 0 0 I I #
coedge $-1 $231 $331 $233 $350 reversed $139 $-1 #
vertex $-1 $342 $466 #
straight-curve $-1 0 -28.273577374306718 12.361266357885773 1 0 0 I I #
edge $-1 $236 -12.361266357885773 $339 12.361266357885773 $233 $467 forward 7 unknown #
edge $-1 $237 -12.361266357885773 $338 12.361266357885773 $234 $468 forward 7 unknown #
point $-1 68.547013763847772 -28.273577374306718 12.361266357885773 #
point $-1 68.547013763847772 28.273577374306718 12.361266357885773 #
face $-1 $-1 $254 $34 $-1 $469 reversed single #
loop $-1 $-1 $245 $239 #
plane-surface $-1 0 0 12.361266357885773 0 0 1 1 0 0 forward_v I I I I #
coedge $-1 $470 $242 $247 $366 forward $147 $-1 #
coedge $-1 $242 $470 $361 $471 reversed $147 $-1 #
edge $-1 $364 -7.571601020108651 $371 -2.0077296554456003 $242 $472 forward 7 unknown #
edge $-1 $256 2.0077296554456003 $363 7.571601020108651 $252 $473 forward 7 unknown #
coedge $-1 $474 $245 $358 $471 forward $355 $-1 #
coedge $-1 $245 $474 $373 $475 forward $355 $-1 #
vertex $-1 $360 $476 #
vertex $-1 $471 $477 #
straight-curve $-1 0 -18.695189817313668 12.361266357885773 -1 0 0 I I #
edge $-1 $371 6.9529980194085717 $369 16.531385576401622 $357 $478 forward 7 unknown #
coedge $-1 $479 $248 $253 $374 reversed $240 $-1 #
coedge $-1 $248 $479 $470 $480 forward $240 $-1 #
vertex $-1 $249 $481 #
straight-curve $-1 0 -28.273577374306718 6.797394993222726 1 0 0 I I #
vertex $-1 $366 $482 #
straight-curve $-1 0 -18.695189817313668 6.797394993222726 1 0 0 I I #
coedge $-1 $253 $252 $362 $475 reversed $254 $-1 #
edge $-1 $483 -12.361266357885773 $255 -6.797394993222726 $253 $484 forward 7 unknown #
point $-1 68.547013763847772 -28.273577374306718 6.797394993222726 #
point $-1 68.547013763847772 -18.695189817313668 6.797394993222726 #
plane-surface $-1 0 0 12.361266357885773 0 0 1 1 0 0 forward_v I I I I #
coedge $-1 $388 $387 $380 $485 forward $259 $-1 #
coedge $-1 $380 $261 $263 $384 reversed $155 $-1 #
coedge $-1 $261 $379 $378 $485 reversed $155 $-1 #
coedge $-1 $269 $264 $261 $382 forward $270 $-1 #
edge $-1 $385 23.495841965937423 $486 29.200051987193113 $381 $487 forward 7 unknown #
coedge $-1 $263 $262 $388 $488 reversed $97 $-1 #
edge $-1 $489 -137.09402752769552 $385 -128.56921929825268 $379 $490 forward 7 unknown #
vertex $-1 $265 $491 #
straight-curve $-1 62.842803742592061 -2.8785000473893305 12.361266357885768 0 -1 0 I I #
coedge $-1 $378 $266 $269 $392 reversed $259 $-1 #
coedge $-1 $266 $378 $383 $488 forward $259 $-1 #
vertex $-1 $267 $492 #
straight-curve $-1 68.547013763847772 -0.00094632672360539516 99.820312983330581 0 0 1 I I #
straight-curve $-1 -23.186794743055742 -0.00094632672360539516 107.90681745975763 0.66913059716165679 0 -0.74314483375859142 I I #
edge $-1 $486 -11.513053862833717 $271 -0.00094632672360539516 $387 $493 forward 7 unknown #
point $-1 68.547013763847772 -0.00094632672360539516 12.361266357885773 #
point $-1 62.842803742592082 -0.00094632672360539516 12.361266357885768 #
edge $-1 $494 1 $494 0 $274 $-1 forward 7 unknown #
vertex $-1 $275 $495 #
ellipse-curve $-1 64.232319343623118 -8.2238802810879719 7.8767613738671782 0.74314483375859142 0 0.66913059716165679 0.66913059716165679 0 -0.74314483375859142 1 I I #
point $-1 66.36403935038156 -8.2238802810879719 8.4505379268805871 #
edge $-1 $496 1 $496 0 $278 $-1 forward 7 unknown #
vertex $-1 $279 $497 #
ellipse-curve $-1 64.232319343623118 -3.2901199084693538 7.8767613738671782 0.74314483375859142 0 0.66913059716165679 0.66913059716165679 0 -0.74314483375859142 1 I I #
point $-1 66.36403935038156 -3.2901199084693538 8.4505379268805871 #
loop $-1 $-1 $290 $282 #
plane-surface $-1 0 -18.695189817313668 9.5793306755542513 0 -1 0 0 0 -1 forward_v I I I I #
coedge $-1 $410 $498 $286 $406 forward $283 $-1 #
edge $-1 $408 41.112323679147266 $416 53.0684789284335 $405 $499 forward 7 unknown #
coedge $-1 $293 $287 $498 $500 forward $177 $-1 #
vertex $-1 $500 $501 #
straight-curve $-1 -77.411540924756423 -12.442839703205468 12.361266357885775 -1 0 0 I I #
coedge $-1 $502 $405 $289 $411 forward $283 $-1 #
edge $-1 $416 4.658332323075685 $414 10.910682437183882 $410 $503 forward 7 unknown #
coedge $-1 $413 $290 $293 $418 reversed $403 $-1 #
coedge $-1 $290 $412 $502 $504 reversed $403 $-1 #
vertex $-1 $504 $505 #
straight-curve $-1 -45.60389405286039 -18.695189817313668 18.984083504229563 0.77714595512881146 0 0.62932039886446345 I I #
vertex $-1 $411 $506 #
straight-curve $-1 -68.547013763847758 -12.442839703205468 0.40511110859955579 0.77714595512881146 0 0.62932039886446345 I I #
edge $-1 $507 -68.547013763847772 $294 -53.782391946978862 $293 $508 forward 7 unknown #
point $-1 -53.782391946978862 -18.695189817313665 12.361266357885775 #
point $-1 -53.782391946978862 -12.442839703205468 12.361266357885775 #
edge $-1 $509 1 $509 0 $297 $-1 forward 7 unknown #
vertex $-1 $298 $510 #
ellipse-curve $-1 -60.03267708895104 -16.90880407042561 4.9852533618560679 -0.62932039886446345 0 0.77714595512881146 0.38857297756440573 0 0.31466019943223172 1 I I #
point $-1 -60.776129877848923 -16.90880407042561 6.697848932674904 #
edge $-1 $511 1 $511 0 $301 $-1 forward 7 unknown #
vertex $-1 $302 $512 #
ellipse-curve $-1 -60.03267708895104 -14.229225450093525 4.9852533618560679 -0.62932039886446345 0 0.77714595512881146 0.38857297756440573 0 0.31466019943223172 1 I I #
point $-1 -60.776129877848923 -14.229225450093525 6.697848932674904 #
loop $-1 $-1 $312 $305 #
plane-surface $-1 -68.547013763847772 0 0 1 0 0 0 0 -1 forward_v I I I I #
coedge $-1 $513 $514 $309 $433 forward $306 $-1 #
coedge $-1 $309 $308 $438 $515 reversed $125 $-1 #
edge $-1 $435 7.5095263847899609 $516 26.508044899142497 $431 $517 forward 7 unknown #
coedge $-1 $315 $310 $514 $518 forward $199 $-1 #
vertex $-1 $518 $519 #
straight-curve $-1 -53.782391946978869 12.57370115862631 12.361266357885771 0 1 0 I I #
coedge $-1 $520 $312 $315 $442 reversed $429 $-1 #
coedge $-1 $312 $520 $432 $515 forward $429 $-1 #
vertex $-1 $313 $521 #
straight-curve $-1 -68.547013763847772 22.021227260198522 53.473590037033041 0 0 1 I I #
straight-curve $-1 -68.547013763847758 22.021227260198522 0.40511110859955579 -0.77714595512881146 0 -0.62932039886446345 I I #
edge $-1 $522 -28.273577374306718 $316 -22.021227260198522 $437 $523 forward 7 unknown #
point $-1 -68.547013763847772 22.021227260198522 12.361266357885773 #
point $-1 -53.782391946978862 22.021227260198522 12.361266357885775 #
edge $-1 $524 1 $524 0 $319 $-1 forward 7 unknown #
vertex $-1 $320 $525 #
ellipse-curve $-1 -60.03267708895104 23.80761300708658 4.9852533618560679 -0.62932039886446345 0 0.77714595512881146 0.38857297756440573 0 0.31466019943223172 1 I I #
point $-1 -60.776129877848923 23.80761300708658 6.697848932674904 #
edge $-1 $526 1 $526 0 $323 $-1 forward 7 unknown #
vertex $-1 $324 $527 #
ellipse-curve $-1 -60.03267708895104 26.487191627418667 4.9852533618560679 -0.62932039886446345 0 0.77714595512881146 0.38857297756440573 0 0.31466019943223172 1 I I #
point $-1 -60.776129877848923 26.487191627418667 6.697848932674904 #
plane-surface $-1 68.547013763847772 0 0 -1 0 0 0 0 1 forward_v I I I I #
coedge $-1 $332 $330 $334 $458 reversed $221 $-1 #
edge $-1 $345 -12.361266357885773 $460 12.361266357885773 $344 $528 forward 7 unknown #
vertex $-1 $458 $529 #
straight-curve $-1 -68.547013763847772 -28.273577374306718 0 0 0 -1 I I #
edge $-1 $456 -28.273577374306718 $460 28.273577374306718 $454 $530 forward 7 unknown #
straight-curve $-1 0 -28.273577374306718 -12.361266357885773 -1 0 0 I I #
vertex $-1 $337 $531 #
straight-curve $-1 0 28.273577374306718 -12.361266357885773 1 0 0 I I #
point $-1 68.547013763847772 28.273577374306718 -12.361266357885773 #
point $-1 68.547013763847772 -28.273577374306718 -12.361266357885773 #
straight-curve $-1 -68.547013763847772 0 12.361266357885773 0 -1 0 I I #
point $-1 -68.547013763847772 28.273577374306718 12.361266357885773 #
point $-1 -68.547013763847772 -28.273577374306718 12.361266357885773 #
straight-curve $-1 68.547013763847772 -28.273577374306718 0 0 0 -1 I I #
straight-curve $-1 68.547013763847772 28.273577374306718 0 0 0 -1 I I #
plane-surface $-1 68.547013763847772 0 0 -1 0 0 0 0 1 forward_v I I I I #
coedge $-1 $358 $357 $368 $480 reversed $147 $-1 #
edge $-1 $364 18.695189817313668 $532 28.273577374306718 $358 $533 forward 7 unknown #
straight-curve $-1 -68.547013763847772 -18.695189817313668 4.7896653377771257 0 0 -1 I I #
straight-curve $-1 68.547013763847772 -18.695189817313668 4.7896653377771257 0 0 1 I I #
coedge $-1 $362 $361 $479 $534 forward $355 $-1 #
edge $-1 $483 -28.273577374306718 $363 -18.695189817313668 $373 $535 forward 7 unknown #
point $-1 68.547013763847772 -18.695189817313668 12.361266357885777 #
point $-1 -68.547013763847772 -18.695189817313668 12.361266357885777 #
straight-curve $-1 -68.547013763847772 -11.742191797905097 6.797394993222726 0 -1 0 I I #
coedge $-1 $368 $367 $474 $534 reversed $240 $-1 #
edge $-1 $532 -12.361266357885773 $369 -6.797394993222726 $470 $536 forward 7 unknown #
point $-1 -68.547013763847772 -28.273577374306718 6.797394993222726 #
point $-1 -68.547013763847772 -18.695189817313668 6.797394993222726 #
vertex $-1 $475 $537 #
straight-curve $-1 68.547013763847772 -28.273577374306718 0 0 0 -1 I I #
edge $-1 $486 87.459046625444813 $489 93.794213819937994 $378 $538 forward 7 unknown #
vertex $-1 $392 $539 #
straight-curve $-1 39.346961776654659 -11.513053862833717 12.361266357885768 1 0 0 I I #
edge $-1 $489 -8.6345538154443862 $389 2.8775537206657251 $388 $540 forward 7 unknown #
vertex $-1 $488 $541 #
straight-curve $-1 -23.186794743055742 -11.513053862833717 107.90681745975763 -0.66913059716165679 0 0.74314483375859142 I I #
point $-1 62.842803742592082 -11.513053862833717 12.361266357885768 #
point $-1 68.547013763847772 -0.00094632672360539516 6.0260991633925869 #
straight-curve $-1 68.547013763847772 0 12.361266357885773 0 1 0 I I #
vertex $-1 $395 $542 #
point $-1 64.901449940784786 -8.2238802810879719 7.1336165401085871 #
vertex $-1 $399 $543 #
point $-1 64.901449940784786 -3.2901199084693538 7.1336165401085871 #
coedge $-1 $405 $502 $407 $500 reversed $283 $-1 #
straight-curve $-1 -68.547013763847772 -12.442839703205468 53.473590037033041 0 0 -1 I I #
edge $-1 $408 12.442839703205468 $507 18.695189817313668 $498 $544 forward 7 unknown #
point $-1 -68.547013763847772 -12.442839703205468 12.361266357885773 #
coedge $-1 $498 $410 $413 $504 forward $283 $-1 #
straight-curve $-1 -68.547013763847772 -7.7845073801297833 0.40511110859953287 0 -1 0 I I #
edge $-1 $414 -53.0684789284335 $507 -41.112323679147266 $502 $545 forward 7 unknown #
point $-1 -68.547013763847772 -18.695189817313665 0.4051111085995443 #
point $-1 -68.547013763847772 -12.442839703205468 0.4051111085995443 #
vertex $-1 $504 $546 #
straight-curve $-1 0 -18.695189817313668 12.361266357885773 1 0 0 I I #
vertex $-1 $421 $547 #
point $-1 -59.644104111386639 -16.90880407042561 5.2999135612882995 #
vertex $-1 $425 $548 #
point $-1 -59.644104111386639 -14.229225450093525 5.2999135612882995 #
coedge $-1 $514 $431 $520 $549 reversed $306 $-1 #
coedge $-1 $431 $513 $434 $518 reversed $306 $-1 #
edge $-1 $516 -15.699876215680408 $439 -9.4475261015722118 $438 $550 forward 7 unknown #
vertex $-1 $433 $551 #
straight-curve $-1 -47.946393892106258 28.273577374306718 17.087164497645006 -0.77714595512881146 0 -0.62932039886446345 I I #
edge $-1 $435 53.782391946978862 $522 68.547013763847772 $514 $552 forward 7 unknown #
point $-1 -53.782391946978862 28.273577374306718 12.361266357885775 #
coedge $-1 $438 $437 $513 $549 forward $429 $-1 #
point $-1 -68.547013763847772 22.021227260198522 0.4051111085995443 #
vertex $-1 $518 $553 #
straight-curve $-1 -68.547013763847772 0 12.361266357885773 0 -1 0 I I #
vertex $-1 $445 $554 #
point $-1 -59.644104111386639 23.80761300708658 5.2999135612882995 #
vertex $-1 $449 $555 #
point $-1 -59.644104111386639 26.487191627418667 5.2999135612882995 #
straight-curve $-1 -68.547013763847772 28.273577374306718 0 0 0 -1 I I #
point $-1 -68.547013763847772 -28.273577374306718 -12.361266357885773 #
straight-curve $-1 -68.547013763847772 0 -12.361266357885773 0 1 0 I I #
point $-1 -68.547013763847772 28.273577374306718 -12.361266357885773 #
vertex $-1 $471 $556 #
straight-curve $-1 -68.547013763847772 0 12.361266357885773 0 -1 0 I I #
edge $-1 $532 -68.547013763847772 $483 68.547013763847772 $479 $557 forward 7 unknown #
straight-curve $-1 68.547013763847772 0 12.361266357885773 0 1 0 I I #
straight-curve $-1 -68.547013763847772 -28.273577374306718 0 0 0 -1 I I #
point $-1 68.547013763847772 -28.273577374306718 12.361266357885773 #
straight-curve $-1 68.547013763847772 -11.513053862833717 99.820312983330581 0 0 -1 I I #
point $-1 68.547013763847772 -11.513053862833717 12.361266357885773 #
straight-curve $-1 68.547013763847787 -2.8785000473893305 6.0260991633925869 0 1 0 I I #
point $-1 68.547013763847772 -11.513053862833717 6.0260991633925869 #
point $-1 63.489174509864533 -8.2238802810879719 7.2076307767055221 #
point $-1 63.489174509864533 -3.2901199084693538 7.2076307767055221 #
straight-curve $-1 -68.547013763847772 0 12.361266357885773 0 -1 0 I I #
straight-curve $-1 -68.547013763847772 -18.695189817313665 53.473590037033041 0 0 1 I I #
point $-1 -68.547013763847772 -18.695189817313668 12.361266357885777 #
point $-1 -59.718016889518815 -16.90880407042561 4.5966803842916617 #
point $-1 -59.718016889518815 -14.229225450093525 4.5966803842916617 #
edge $-1 $522 -12.361266357885773 $516 -0.4051111085995443 $513 $558 forward 7 unknown #
straight-curve $-1 -68.547013763847772 12.57370115862631 0.40511110859953287 0 -1 0 I I #
point $-1 -68.547013763847772 28.273577374306718 0.4051111085995443 #
straight-curve $-1 0 28.273577374306718 12.361266357885773 -1 0 0 I I #
point $-1 -68.547013763847772 28.273577374306718 12.361266357885773 #
point $-1 -59.718016889518815 23.80761300708658 4.5966803842916617 #
point $-1 -59.718016889518815 26.487191627418667 4.5966803842916617 #
point $-1 -68.547013763847772 -28.273577374306718 12.361266357885773 #
straight-curve $-1 0 -28.273577374306718 12.361266357885773 1 0 0 I I #
straight-curve $-1 -68.547013763847772 28.273577374306718 0 0 0 -1 I I #
End-of-ACIS-data 