500 0 4 0           
7 Unknown 11 ACIS 5.0 NT 24 Fri Mar 26 01:32:25 1999 
-1 9.9999999999999995e-007 1e-010 
body $-1 $4 $-1 $5 #
body $-1 $6 $-1 $7 #
body $-1 $8 $-1 $9 #
body $-1 $10 $-1 $11 #
lump $-1 $-1 $12 $0 #
transform $-1 1 0 0 0 1 0 0 0 1 66.692709128086193 34.416547943343843 10.618850003125459 1 rotate no_reflect no_shear #
lump $-1 $-1 $13 $1 #
transform $-1 1 0 0 0 1 0 0 0 1 66.692709128086193 34.416547943343843 10.618850003125459 1 rotate no_reflect no_shear #
lump $-1 $-1 $14 $2 #
transform $-1 1 0 0 0 1 0 0 0 1 66.692709128086193 34.416547943343843 10.618850003125459 1 rotate no_reflect no_shear #
lump $-1 $-1 $15 $3 #
transform $-1 1 0 0 0 1 0 0 0 1 66.692709128086193 34.416547943343843 10.618850003125459 1 rotate no_reflect no_shear #
shell $-1 $-1 $-1 $16 $-1 $4 #
shell $-1 $-1 $-1 $17 $-1 $6 #
shell $-1 $-1 $-1 $18 $-1 $8 #
shell $-1 $-1 $-1 $19 $-1 $10 #
face $-1 $20 $21 $12 $-1 $22 forward single #
face $-1 $23 $24 $13 $-1 $25 reversed single #
face $-1 $26 $27 $14 $-1 $28 forward single #
face $-1 $29 $30 $15 $-1 $31 reversed single #
face $-1 $32 $33 $12 $-1 $34 reversed single #
loop $-1 $-1 $35 $16 #
plane-surface $-1 0 0 10.618850003125459 0 0 1 1 0 0 forward_v I I I I #
face $-1 $36 $37 $13 $-1 $38 forward single #
loop $-1 $-1 $39 $17 #
plane-surface $-1 0 -30.608286825703285 -6.9860735888966374 0 0 1 1 0 0 forward_v I I I I #
face $-1 $40 $41 $14 $-1 $42 forward single #
loop $-1 $-1 $43 $18 #
plane-surface $-1 89.681592208013598 -13.426987106599865 187.40286393822672 0 -1 0 -0.78801076186113728 0 -0.61566146476048833 forward_v I I I I #
face $-1 $44 $45 $15 $-1 $46 reversed single #
loop $-1 $47 $48 $19 #
cone-surface $-1 61.30107857133315 -20.113506407331297 4.3717216696555168 -0.78801076186113728 0 -0.61566146476048833 0.9234921971407325 0 -1.182016142791706 1 I I 0 1 1.5 forward I I I I #
face $-1 $49 $50 $12 $-1 $51 reversed single #
loop $-1 $-1 $52 $20 #
plane-surface $-1 0 0 -10.618850003125459 0 0 1 1 0 0 forward_v I I I I #
coedge $-1 $53 $54 $55 $56 forward $21 $-1 #
face $-1 $57 $58 $13 $-1 $59 reversed single #
loop $-1 $-1 $60 $23 #
plane-surface $-1 0 -26.800025708062726 -8.8024617960110483 0 -1 0 0 0 -1 forward_v I I I I #
coedge $-1 $61 $62 $63 $64 reversed $24 $-1 #
face $-1 $65 $66 $14 $-1 $67 forward single #
loop $-1 $-1 $68 $26 #
plane-surface $-1 -15.427552853199259 -20.113506407331293 105.28260195694125 0.78801076186113728 0 0.61566146476048833 0.61566146476048833 0 -0.78801076186113728 forward_v I I I I #
coedge $-1 $69 $70 $71 $72 reversed $27 $-1 #
face $-1 $73 $74 $15 $-1 $75 forward single #
loop $-1 $76 $77 $29 #
cone-surface $-1 59.398857579429944 -20.113506407331297 2.8855437913137365 -0.78801076186113728 0 -0.61566146476048833 0.46174609857036625 0 -0.59100807139585299 1 I I -0.70710678118654757 0.70710678118654757 0.75 forward I I I I #
loop $-1 $-1 $78 $19 #
coedge $-1 $48 $48 $79 $80 reversed $30 $-1 #
face $-1 $81 $82 $12 $-1 $83 reversed single #
loop $-1 $-1 $84 $32 #
plane-surface $-1 0 -34.416547943343843 0 0 1 0 0 0 1 forward_v I I I I #
coedge $-1 $85 $86 $87 $88 forward $33 $-1 #
coedge $-1 $89 $35 $90 $91 forward $21 $-1 #
coedge $-1 $35 $89 $92 $93 forward $21 $-1 #
coedge $-1 $94 $95 $35 $56 reversed $96 $-1 #
edge $-1 $97 -34.416547943343843 $98 34.416547943343843 $55 $99 forward 7 unknown #
face $-1 $100 $101 $13 $-1 $102 reversed single #
loop $-1 $-1 $103 $36 #
plane-surface $-1 0 -34.416547943343843 0 0 1 0 0 0 1 forward_v I I I I #
coedge $-1 $104 $105 $106 $107 reversed $37 $-1 #
coedge $-1 $108 $39 $103 $109 reversed $24 $-1 #
coedge $-1 $39 $108 $104 $110 reversed $24 $-1 #
coedge $-1 $106 $111 $39 $64 forward $112 $-1 #
edge $-1 $113 -19.112404530492199 $114 -11.495882295211084 $63 $115 forward 7 unknown #
face $-1 $116 $117 $14 $-1 $118 forward single #
loop $-1 $-1 $119 $40 #
plane-surface $-1 89.681592208013598 -26.800025708062719 187.40286393822672 0 1 0 0.78801076186113728 0 0.61566146476048833 forward_v I I I I #
coedge $-1 $120 $121 $122 $123 reversed $41 $-1 #
coedge $-1 $70 $43 $121 $124 forward $27 $-1 #
coedge $-1 $43 $69 $125 $126 reversed $27 $-1 #
coedge $-1 $127 $122 $43 $72 forward $117 $-1 #
edge $-1 $128 13.691077751588026 $129 21.851913024079394 $71 $130 forward 7 unknown #
face $-1 $131 $132 $15 $-1 $133 forward single #
loop $-1 $-1 $134 $44 #
plane-surface $-1 89.681592208013598 -13.426987106599865 187.40286393822672 0 -1 0 -0.78801076186113728 0 -0.61566146476048833 forward_v I I I I #
loop $-1 $-1 $135 $29 #
coedge $-1 $77 $77 $78 $136 forward $45 $-1 #
coedge $-1 $78 $78 $77 $136 reversed $47 $-1 #
coedge $-1 $79 $79 $48 $80 forward $132 $-1 #
edge $-1 $137 0 $137 6.2831853071796004 $79 $138 forward 7 unknown #
face $-1 $139 $140 $12 $-1 $141 reversed single #
loop $-1 $-1 $142 $49 #
plane-surface $-1 -66.692709128086193 0 0 1 0 0 0 0 -1 forward_v I I I I #
coedge $-1 $143 $92 $144 $145 forward $50 $-1 #
coedge $-1 $146 $52 $143 $147 forward $33 $-1 #
coedge $-1 $52 $146 $148 $149 forward $33 $-1 #
coedge $-1 $95 $94 $52 $88 reversed $96 $-1 #
edge $-1 $150 -34.416547943343843 $151 34.416547943343843 $87 $152 forward 7 unknown #
coedge $-1 $54 $53 $153 $154 forward $21 $-1 #
coedge $-1 $155 $156 $53 $91 reversed $140 $-1 #
edge $-1 $98 -66.692709128086193 $157 66.692709128086193 $90 $158 forward 7 unknown #
coedge $-1 $84 $159 $54 $93 reversed $50 $-1 #
edge $-1 $160 -66.692709128086193 $97 66.692709128086193 $92 $161 forward 7 unknown #
coedge $-1 $87 $55 $159 $162 forward $96 $-1 #
coedge $-1 $55 $87 $155 $163 reversed $96 $-1 #
loop $-1 $-1 $94 $139 #
vertex $-1 $56 $164 #
vertex $-1 $56 $165 #
straight-curve $-1 66.692709128086193 0 10.618850003125459 0 1 0 I I #
face $-1 $166 $167 $13 $-1 $168 forward single #
loop $-1 $-1 $169 $57 #
plane-surface $-1 0 0 -10.618850003125459 0 0 1 1 0 0 forward_v I I I I #
coedge $-1 $170 $171 $61 $109 forward $58 $-1 #
coedge $-1 $172 $60 $62 $110 forward $37 $-1 #
coedge $-1 $60 $172 $169 $173 reversed $37 $-1 #
coedge $-1 $174 $63 $60 $107 forward $112 $-1 #
edge $-1 $114 2.5848426908911133 $175 6.217619105119935 $106 $176 forward 7 unknown #
coedge $-1 $62 $61 $177 $178 reversed $24 $-1 #
edge $-1 $179 -66.692709128086193 $113 66.692709128086193 $103 $180 forward 7 unknown #
edge $-1 $114 -66.692709128086193 $181 66.692709128086193 $104 $182 forward 7 unknown #
coedge $-1 $63 $183 $170 $184 forward $112 $-1 #
loop $-1 $-1 $106 $185 #
vertex $-1 $109 $186 #
vertex $-1 $64 $187 #
straight-curve $-1 66.692709128086193 -15.304143412851642 -6.9860735888966374 0 1 0 I I #
face $-1 $188 $189 $14 $-1 $190 reversed single #
loop $-1 $-1 $191 $65 #
plane-surface $-1 0 0 10.618850003125459 0 0 1 1 0 0 forward_v I I I I #
coedge $-1 $192 $193 $191 $194 reversed $66 $-1 #
coedge $-1 $195 $68 $193 $196 reversed $41 $-1 #
coedge $-1 $68 $195 $69 $124 reversed $41 $-1 #
coedge $-1 $71 $191 $68 $123 forward $117 $-1 #
edge $-1 $197 -16.743272504397073 $128 -3.3702339029342188 $122 $198 forward 7 unknown #
edge $-1 $128 120.13002427814226 $199 133.38541825617236 $69 $200 forward 7 unknown #
coedge $-1 $201 $202 $70 $126 forward $203 $-1 #
edge $-1 $129 83.082581965987899 $199 93.527975073384937 $125 $204 forward 7 unknown #
coedge $-1 $205 $71 $202 $206 forward $117 $-1 #
vertex $-1 $123 $207 #
vertex $-1 $206 $208 #
straight-curve $-1 44.840796104006799 -13.426987106599865 10.618850003125459 1 0 0 I I #
face $-1 $209 $210 $15 $-1 $211 forward single #
loop $-1 $212 $79 $73 #
plane-surface $-1 -15.427552853199259 -20.113506407331293 105.28260195694125 0.78801076186113728 0 0.61566146476048833 0.61566146476048833 0 -0.78801076186113728 forward_v I I I I #
coedge $-1 $213 $214 $215 $216 reversed $74 $-1 #
coedge $-1 $135 $135 $-1 $217 forward $76 $-1 #
edge $-1 $218 0 $218 6.2831853071796004 $77 $219 forward 7 unknown #
vertex $-1 $80 $220 #
ellipse-curve $-1 62.612291491840516 -20.113506407331297 5.396153449426941 -0.78801076186113728 0 -0.61566146476048833 0.9234921971407325 0 -1.182016142791706 1 I I #
face $-1 $-1 $96 $12 $-1 $221 reversed single #
loop $-1 $-1 $155 $81 #
plane-surface $-1 0 34.416547943343843 0 0 -1 0 0 0 -1 forward_v I I I I #
coedge $-1 $222 $153 $156 $223 forward $82 $-1 #
coedge $-1 $159 $84 $85 $147 reversed $50 $-1 #
coedge $-1 $153 $222 $84 $145 reversed $82 $-1 #
edge $-1 $160 -10.618850003125459 $224 10.618850003125459 $144 $225 forward 7 unknown #
coedge $-1 $86 $85 $222 $226 forward $33 $-1 #
edge $-1 $151 -66.692709128086193 $224 66.692709128086193 $143 $227 forward 7 unknown #
coedge $-1 $156 $155 $86 $149 reversed $140 $-1 #
edge $-1 $228 -66.692709128086193 $150 66.692709128086193 $148 $229 forward 7 unknown #
vertex $-1 $88 $230 #
vertex $-1 $162 $231 #
straight-curve $-1 66.692709128086193 0 -10.618850003125459 0 -1 0 I I #
coedge $-1 $142 $144 $89 $154 reversed $82 $-1 #
edge $-1 $157 -34.416547943343843 $160 34.416547943343843 $153 $232 forward 7 unknown #
coedge $-1 $148 $90 $95 $163 forward $140 $-1 #
coedge $-1 $90 $148 $142 $223 reversed $140 $-1 #
vertex $-1 $91 $233 #
straight-curve $-1 0 34.416547943343843 10.618850003125459 -1 0 0 I I #
coedge $-1 $92 $143 $94 $162 reversed $50 $-1 #
vertex $-1 $154 $234 #
straight-curve $-1 0 -34.416547943343843 10.618850003125459 1 0 0 I I #
edge $-1 $97 -10.618850003125459 $151 10.618850003125459 $94 $235 forward 7 unknown #
edge $-1 $98 -10.618850003125459 $150 10.618850003125459 $95 $236 forward 7 unknown #
point $-1 66.692709128086193 -34.416547943343843 10.618850003125459 #
point $-1 66.692709128086193 34.416547943343843 10.618850003125459 #
face $-1 $237 $238 $13 $-1 $239 reversed single #
loop $-1 $-1 $240 $100 #
plane-surface $-1 0 0 10.618850003125459 0 0 1 1 0 0 forward_v I I I I #
coedge $-1 $241 $242 $105 $173 forward $101 $-1 #
coedge $-1 $243 $103 $111 $184 reversed $58 $-1 #
coedge $-1 $103 $243 $244 $245 forward $58 $-1 #
coedge $-1 $105 $104 $246 $247 reversed $37 $-1 #
edge $-1 $175 -66.692709128086193 $248 66.692709128086193 $169 $249 forward 7 unknown #
coedge $-1 $250 $106 $242 $251 reversed $112 $-1 #
vertex $-1 $173 $252 #
straight-curve $-1 66.692709128086193 -26.800025708062726 -4.4012308980055241 0 0 -1 I I #
coedge $-1 $244 $246 $108 $178 forward $238 $-1 #
edge $-1 $181 11.495882295211084 $179 19.112404530492199 $177 $253 forward 7 unknown #
vertex $-1 $109 $254 #
straight-curve $-1 0 -34.416547943343843 -6.9860735888966374 1 0 0 I I #
vertex $-1 $178 $255 #
straight-curve $-1 0 -26.800025708062726 -6.9860735888966374 -1 0 0 I I #
coedge $-1 $111 $250 $240 $256 reversed $112 $-1 #
edge $-1 $257 -10.618850003125459 $113 6.9860735888966374 $111 $258 forward 7 unknown #
face $-1 $-1 $112 $13 $-1 $259 reversed single #
point $-1 66.692709128086193 -34.416547943343843 -6.9860735888966374 #
point $-1 66.692709128086193 -26.800025708062726 -6.9860735888966374 #
face $-1 $260 $261 $14 $-1 $262 forward single #
loop $-1 $-1 $263 $116 #
plane-surface $-1 0 -30.608286825703285 -6.9860735888966374 0 0 1 1 0 0 forward_v I I I I #
coedge $-1 $122 $264 $119 $194 forward $117 $-1 #
coedge $-1 $193 $119 $265 $266 reversed $66 $-1 #
coedge $-1 $119 $192 $120 $196 forward $66 $-1 #
edge $-1 $267 -21.851913024079394 $197 -13.691077751588026 $191 $268 forward 7 unknown #
coedge $-1 $121 $120 $201 $269 reversed $41 $-1 #
edge $-1 $270 -133.38541825617236 $197 -120.13002427814226 $193 $271 forward 7 unknown #
vertex $-1 $123 $272 #
straight-curve $-1 58.531873855594824 -10.056753203665647 10.618850003125459 0 1 0 I I #
vertex $-1 $269 $273 #
straight-curve $-1 -15.427552853199259 -13.426987106599865 105.28260195694125 0.61566146476048833 0 -0.78801076186113728 I I #
coedge $-1 $265 $125 $195 $269 forward $203 $-1 #
coedge $-1 $125 $274 $127 $206 reversed $203 $-1 #
loop $-1 $-1 $265 $275 #
straight-curve $-1 66.692709128086193 -13.426987106599865 93.701431969113358 0 0 -1 I I #
coedge $-1 $276 $127 $277 $278 forward $117 $-1 #
edge $-1 $129 -13.426987106599865 $279 34.416547943343843 $202 $280 forward 7 unknown #
point $-1 58.531873855594824 -13.426987106599865 10.618850003125459 #
point $-1 66.692709128086193 -13.426987106599865 10.618850003125459 #
face $-1 $281 $282 $15 $-1 $283 forward single #
loop $-1 $-1 $284 $131 #
plane-surface $-1 89.681592208013598 -26.800025708062719 187.40286393822672 0 1 0 0.78801076186113728 0 0.61566146476048833 forward_v I I I I #
loop $-1 $-1 $285 $73 #
coedge $-1 $214 $134 $286 $287 forward $74 $-1 #
coedge $-1 $134 $213 $288 $289 reversed $74 $-1 #
coedge $-1 $290 $291 $134 $216 forward $282 $-1 #
edge $-1 $292 13.691077751588026 $293 21.851913024079394 $215 $294 forward 7 unknown #
edge $-1 $295 1 $295 0 $135 $-1 forward 7 unknown #
vertex $-1 $136 $296 #
ellipse-curve $-1 59.989865650825799 -20.113506407331297 3.3472898898841028 0.78801076186113728 0 0.61566146476048833 0.9234921971407325 0 -1.182016142791706 1 I I #
point $-1 63.535783688981226 -20.113506407331297 4.2141373066352248 #
plane-surface $-1 66.692709128086193 0 0 -1 0 0 0 0 1 forward_v I I I I #
coedge $-1 $144 $142 $146 $226 reversed $82 $-1 #
edge $-1 $157 -10.618850003125459 $228 10.618850003125459 $156 $297 forward 7 unknown #
vertex $-1 $226 $298 #
straight-curve $-1 -66.692709128086193 -34.416547943343843 0 0 0 -1 I I #
edge $-1 $224 -34.416547943343843 $228 34.416547943343843 $222 $299 forward 7 unknown #
straight-curve $-1 0 -34.416547943343843 -10.618850003125459 -1 0 0 I I #
vertex $-1 $149 $300 #
straight-curve $-1 0 34.416547943343843 -10.618850003125459 1 0 0 I I #
point $-1 66.692709128086193 34.416547943343843 -10.618850003125459 #
point $-1 66.692709128086193 -34.416547943343843 -10.618850003125459 #
straight-curve $-1 -66.692709128086193 0 10.618850003125459 0 -1 0 I I #
point $-1 -66.692709128086193 34.416547943343843 10.618850003125459 #
point $-1 -66.692709128086193 -34.416547943343843 10.618850003125459 #
straight-curve $-1 66.692709128086193 -34.416547943343843 0 0 0 -1 I I #
straight-curve $-1 66.692709128086193 34.416547943343843 0 0 0 -1 I I #
face $-1 $185 $301 $13 $-1 $302 reversed single #
loop $-1 $-1 $177 $166 #
plane-surface $-1 -66.692709128086193 0 0 1 0 0 0 0 -1 forward_v I I I I #
coedge $-1 $303 $304 $183 $256 forward $167 $-1 #
coedge $-1 $305 $169 $306 $307 forward $101 $-1 #
coedge $-1 $169 $305 $174 $251 forward $101 $-1 #
coedge $-1 $171 $170 $304 $308 reversed $58 $-1 #
coedge $-1 $309 $177 $171 $245 reversed $238 $-1 #
edge $-1 $310 -10.618850003125459 $179 6.9860735888966374 $244 $311 forward 7 unknown #
coedge $-1 $177 $306 $172 $247 forward $238 $-1 #
edge $-1 $248 -6.217619105119935 $181 -2.5848426908911133 $246 $312 forward 7 unknown #
vertex $-1 $307 $313 #
straight-curve $-1 0 -26.800025708062726 -10.618850003125459 -1 0 0 I I #
coedge $-1 $183 $174 $314 $315 reversed $112 $-1 #
edge $-1 $316 -34.416547943343843 $175 26.800025708062726 $174 $317 forward 7 unknown #
point $-1 66.692709128086193 -26.800025708062726 -10.618850003125459 #
straight-curve $-1 -66.692709128086193 -15.304143412851642 -6.9860735888966374 0 -1 0 I I #
point $-1 -66.692709128086193 -34.416547943343843 -6.9860735888966374 #
point $-1 -66.692709128086193 -26.800025708062726 -6.9860735888966374 #
edge $-1 $257 -34.416547943343843 $318 34.416547943343843 $183 $319 forward 7 unknown #
vertex $-1 $256 $320 #
straight-curve $-1 66.692709128086193 -34.416547943343843 0 0 0 -1 I I #
plane-surface $-1 66.692709128086193 0 0 -1 0 0 0 0 1 forward_v I I I I #
face $-1 $321 $322 $14 $-1 $323 reversed single #
loop $-1 $-1 $324 $188 #
plane-surface $-1 0 -26.800025708062726 -8.8024617960110483 0 -1 0 0 0 -1 forward_v I I I I #
coedge $-1 $325 $326 $327 $328 reversed $189 $-1 #
coedge $-1 $191 $329 $330 $331 forward $117 $-1 #
coedge $-1 $330 $201 $192 $266 forward $203 $-1 #
edge $-1 $270 -93.527975073384937 $267 -83.082581965987899 $265 $332 forward 7 unknown #
vertex $-1 $266 $333 #
straight-curve $-1 44.840796104006799 -26.800025708062719 10.618850003125459 -1 0 0 I I #
edge $-1 $199 3.3702339029342188 $270 16.743272504397073 $201 $334 forward 7 unknown #
vertex $-1 $269 $335 #
straight-curve $-1 -15.427552853199259 -26.800025708062719 105.28260195694125 -0.61566146476048833 0 0.78801076186113728 I I #
point $-1 58.531873855594824 -26.800025708062719 10.618850003125459 #
point $-1 66.692709128086193 -13.426987106599865 0.17345689572842105 #
coedge $-1 $202 $336 $337 $338 reversed $203 $-1 #
face $-1 $-1 $203 $14 $-1 $339 reversed single #
coedge $-1 $329 $205 $340 $341 forward $117 $-1 #
coedge $-1 $337 $342 $205 $278 reversed $343 $-1 #
edge $-1 $279 -66.692709128086193 $344 66.692709128086193 $277 $345 forward 7 unknown #
vertex $-1 $206 $346 #
straight-curve $-1 66.692709128086193 0 10.618850003125459 0 1 0 I I #
face $-1 $347 $348 $15 $-1 $349 reversed single #
loop $-1 $-1 $350 $209 #
plane-surface $-1 0 0 10.618850003125459 0 0 1 1 0 0 forward_v I I I I #
coedge $-1 $351 $352 $350 $353 reversed $210 $-1 #
coedge $-1 $354 $286 $291 $355 reversed $212 $-1 #
coedge $-1 $285 $356 $213 $287 reversed $212 $-1 #
edge $-1 $292 120.13002427814226 $357 133.38541825617236 $213 $358 forward 7 unknown #
coedge $-1 $359 $360 $214 $289 forward $361 $-1 #
edge $-1 $293 83.082581965987899 $357 93.527975073384937 $288 $362 forward 7 unknown #
coedge $-1 $363 $215 $360 $364 forward $282 $-1 #
coedge $-1 $215 $350 $285 $355 forward $282 $-1 #
vertex $-1 $355 $365 #
vertex $-1 $364 $366 #
straight-curve $-1 44.840796104006799 -13.426987106599865 10.618850003125459 1 0 0 I I #
vertex $-1 $217 $367 #
point $-1 60.91335784796653 -20.113506407331297 2.1652737470923968 #
straight-curve $-1 -66.692709128086193 34.416547943343843 0 0 0 -1 I I #
point $-1 -66.692709128086193 -34.416547943343843 -10.618850003125459 #
straight-curve $-1 -66.692709128086193 0 -10.618850003125459 0 1 0 I I #
point $-1 -66.692709128086193 34.416547943343843 -10.618850003125459 #
loop $-1 $-1 $314 $237 #
plane-surface $-1 0 34.416547943343843 0 0 -1 0 0 0 -1 forward_v I I I I #
coedge $-1 $368 $240 $369 $370 forward $167 $-1 #
coedge $-1 $240 $368 $243 $308 forward $167 $-1 #
coedge $-1 $242 $241 $371 $372 forward $101 $-1 #
coedge $-1 $246 $373 $241 $307 reversed $238 $-1 #
edge $-1 $248 -26.800025708062726 $374 34.416547943343843 $306 $375 forward 7 unknown #
edge $-1 $310 -66.692709128086193 $257 66.692709128086193 $243 $376 forward 7 unknown #
coedge $-1 $373 $244 $368 $377 reversed $238 $-1 #
vertex $-1 $377 $378 #
straight-curve $-1 -66.692709128086193 -34.416547943343843 0 0 0 -1 I I #
straight-curve $-1 -66.692709128086193 -26.800025708062726 -4.4012308980055241 0 0 1 I I #
point $-1 -66.692709128086193 -26.800025708062726 -10.618850003125459 #
coedge $-1 $371 $369 $250 $315 forward $301 $-1 #
edge $-1 $318 -10.618850003125459 $316 10.618850003125459 $250 $379 forward 7 unknown #
vertex $-1 $251 $380 #
straight-curve $-1 66.692709128086193 0 -10.618850003125459 0 -1 0 I I #
vertex $-1 $256 $381 #
straight-curve $-1 66.692709128086193 0 10.618850003125459 0 1 0 I I #
point $-1 66.692709128086193 -34.416547943343843 10.618850003125459 #
face $-1 $382 $383 $14 $-1 $384 reversed single #
loop $-1 $-1 $385 $260 #
plane-surface $-1 0 -34.416547943343843 0 0 1 0 0 0 1 forward_v I I I I #
coedge $-1 $386 $387 $388 $389 reversed $261 $-1 #
coedge $-1 $390 $263 $385 $391 reversed $189 $-1 #
coedge $-1 $263 $390 $386 $392 reversed $189 $-1 #
coedge $-1 $388 $393 $263 $328 forward $203 $-1 #
edge $-1 $394 -19.112404530492199 $395 -11.495882295211084 $327 $396 forward 7 unknown #
coedge $-1 $264 $276 $397 $398 forward $117 $-1 #
coedge $-1 $393 $265 $264 $331 reversed $203 $-1 #
edge $-1 $399 -34.416547943343843 $267 -26.800025708062719 $330 $280 forward 7 unknown #
straight-curve $-1 66.692709128086193 -26.800025708062719 93.701431969113358 0 0 1 I I #
point $-1 66.692709128086193 -26.800025708062719 10.618850003125459 #
straight-curve $-1 66.692709128086193 -10.056753203665647 0.17345689572842105 0 -1 0 I I #
point $-1 66.692709128086193 -26.800025708062719 0.17345689572842105 #
coedge $-1 $274 $388 $400 $401 reversed $203 $-1 #
coedge $-1 $402 $277 $274 $338 forward $343 $-1 #
edge $-1 $279 -10.618850003125459 $403 10.618850003125459 $274 $404 forward 7 unknown #
plane-surface $-1 66.692709128086193 0 0 -1 0 0 0 0 1 forward_v I I I I #
coedge $-1 $405 $406 $276 $341 reversed $407 $-1 #
edge $-1 $344 -34.416547943343843 $408 34.416547943343843 $340 $409 forward 7 unknown #
coedge $-1 $277 $402 $405 $410 reversed $343 $-1 #
loop $-1 $-1 $337 $411 #
vertex $-1 $278 $412 #
straight-curve $-1 0 34.416547943343843 10.618850003125459 -1 0 0 I I #
point $-1 66.692709128086193 34.416547943343843 10.618850003125459 #
face $-1 $413 $414 $15 $-1 $415 forward single #
loop $-1 $-1 $416 $281 #
plane-surface $-1 0 -30.608286825703285 -6.9860735888966374 0 0 1 1 0 0 forward_v I I I I #
coedge $-1 $291 $417 $284 $353 forward $282 $-1 #
coedge $-1 $352 $284 $418 $419 reversed $210 $-1 #
coedge $-1 $284 $351 $354 $420 forward $210 $-1 #
edge $-1 $421 -21.851913024079394 $422 -13.691077751588026 $350 $423 forward 7 unknown #
coedge $-1 $356 $285 $352 $420 reversed $212 $-1 #
edge $-1 $422 -16.743272504397073 $292 -3.3702339029342188 $291 $424 forward 7 unknown #
coedge $-1 $286 $354 $359 $425 reversed $212 $-1 #
vertex $-1 $425 $426 #
straight-curve $-1 -15.427552853199259 -13.426987106599865 105.28260195694125 0.61566146476048833 0 -0.78801076186113728 I I #
coedge $-1 $418 $288 $356 $425 forward $361 $-1 #
coedge $-1 $288 $427 $290 $364 reversed $361 $-1 #
loop $-1 $-1 $418 $428 #
straight-curve $-1 66.692709128086193 -13.426987106599865 93.701431969113358 0 0 -1 I I #
coedge $-1 $429 $290 $430 $431 forward $282 $-1 #
edge $-1 $293 -13.426987106599865 $432 34.416547943343843 $360 $433 forward 7 unknown #
point $-1 58.531873855594824 -13.426987106599865 10.618850003125459 #
point $-1 66.692709128086193 -13.426987106599865 10.618850003125459 #
point $-1 58.807849508034089 -20.113506407331297 2.4237976927433702 #
coedge $-1 $304 $303 $309 $377 forward $167 $-1 #
coedge $-1 $314 $434 $303 $370 reversed $301 $-1 #
edge $-1 $318 -66.692709128086193 $435 66.692709128086193 $369 $436 forward 7 unknown #
coedge $-1 $434 $314 $305 $372 reversed $301 $-1 #
edge $-1 $374 -66.692709128086193 $316 66.692709128086193 $371 $437 forward 7 unknown #
coedge $-1 $306 $309 $434 $438 forward $238 $-1 #
vertex $-1 $372 $439 #
straight-curve $-1 -66.692709128086193 0 -10.618850003125459 0 1 0 I I #
straight-curve $-1 0 -34.416547943343843 10.618850003125459 1 0 0 I I #
edge $-1 $435 -34.416547943343843 $310 34.416547943343843 $309 $440 forward 7 unknown #
point $-1 -66.692709128086193 -34.416547943343843 10.618850003125459 #
straight-curve $-1 66.692709128086193 34.416547943343843 0 0 0 -1 I I #
point $-1 66.692709128086193 34.416547943343843 -10.618850003125459 #
point $-1 66.692709128086193 34.416547943343843 10.618850003125459 #
face $-1 $411 $407 $14 $-1 $441 reversed single #
loop $-1 $-1 $442 $321 #
plane-surface $-1 0 0 -10.618850003125459 0 0 1 1 0 0 forward_v I I I I #
coedge $-1 $443 $444 $325 $391 forward $322 $-1 #
coedge $-1 $445 $324 $326 $392 forward $261 $-1 #
coedge $-1 $324 $445 $442 $446 reversed $261 $-1 #
coedge $-1 $336 $327 $324 $389 forward $203 $-1 #
edge $-1 $395 2.5848426908911133 $447 6.217619105119935 $388 $448 forward 7 unknown #
coedge $-1 $326 $325 $449 $450 reversed $189 $-1 #
edge $-1 $451 -66.692709128086193 $394 66.692709128086193 $385 $452 forward 7 unknown #
edge $-1 $395 -66.692709128086193 $453 66.692709128086193 $386 $454 forward 7 unknown #
coedge $-1 $327 $330 $443 $455 forward $203 $-1 #
vertex $-1 $391 $456 #
vertex $-1 $328 $457 #
straight-curve $-1 66.692709128086193 -15.304143412851642 -6.9860735888966374 0 1 0 I I #
coedge $-1 $444 $443 $329 $398 reversed $322 $-1 #
edge $-1 $408 -66.692709128086193 $399 66.692709128086193 $397 $458 forward 7 unknown #
vertex $-1 $331 $459 #
coedge $-1 $442 $460 $336 $401 forward $383 $-1 #
edge $-1 $403 -34.416547943343843 $447 26.800025708062726 $336 $461 forward 7 unknown #
coedge $-1 $342 $337 $460 $462 reversed $343 $-1 #
vertex $-1 $401 $463 #
straight-curve $-1 66.692709128086193 34.416547943343843 0 0 0 -1 I I #
coedge $-1 $464 $340 $342 $410 forward $407 $-1 #
coedge $-1 $340 $449 $444 $465 reversed $407 $-1 #
loop $-1 $-1 $449 $382 #
vertex $-1 $341 $466 #
straight-curve $-1 -66.692709128086193 0 10.618850003125459 0 -1 0 I I #
edge $-1 $344 -10.618850003125459 $467 10.618850003125459 $342 $468 forward 7 unknown #
face $-1 $275 $343 $14 $-1 $469 reversed single #
point $-1 -66.692709128086193 34.416547943343843 10.618850003125459 #
face $-1 $470 $471 $15 $-1 $472 reversed single #
loop $-1 $-1 $473 $347 #
plane-surface $-1 0 -26.800025708062726 -8.8024617960110483 0 -1 0 0 0 -1 forward_v I I I I #
coedge $-1 $474 $475 $476 $477 reversed $348 $-1 #
coedge $-1 $350 $478 $479 $480 forward $282 $-1 #
coedge $-1 $479 $359 $351 $419 forward $361 $-1 #
edge $-1 $481 -93.527975073384937 $421 -83.082581965987899 $418 $482 forward 7 unknown #
edge $-1 $481 -133.38541825617236 $422 -120.13002427814226 $352 $483 forward 7 unknown #
vertex $-1 $419 $484 #
vertex $-1 $355 $485 #
straight-curve $-1 44.840796104006799 -26.800025708062719 10.618850003125459 -1 0 0 I I #
straight-curve $-1 58.531873855594824 -10.056753203665647 10.618850003125459 0 1 0 I I #
edge $-1 $357 3.3702339029342188 $481 16.743272504397073 $359 $486 forward 7 unknown #
point $-1 66.692709128086193 -13.426987106599865 0.17345689572842105 #
coedge $-1 $360 $487 $488 $489 reversed $361 $-1 #
face $-1 $-1 $361 $15 $-1 $490 reversed single #
coedge $-1 $478 $363 $491 $492 forward $282 $-1 #
coedge $-1 $488 $493 $363 $431 reversed $494 $-1 #
edge $-1 $432 -66.692709128086193 $495 66.692709128086193 $430 $496 forward 7 unknown #
vertex $-1 $364 $497 #
straight-curve $-1 66.692709128086193 0 10.618850003125459 0 1 0 I I #
coedge $-1 $369 $371 $373 $438 reversed $301 $-1 #
vertex $-1 $370 $498 #
straight-curve $-1 0 34.416547943343843 10.618850003125459 -1 0 0 I I #
straight-curve $-1 0 34.416547943343843 -10.618850003125459 1 0 0 I I #
edge $-1 $435 -10.618850003125459 $374 10.618850003125459 $434 $499 forward 7 unknown #
point $-1 -66.692709128086193 34.416547943343843 -10.618850003125459 #
straight-curve $-1 -66.692709128086193 0 10.618850003125459 0 -1 0 I I #
plane-surface $-1 -66.692709128086193 0 0 1 0 0 0 0 -1 forward_v I I I I #
coedge $-1 $500 $400 $387 $446 forward $383 $-1 #
coedge $-1 $397 $385 $393 $455 reversed $322 $-1 #
coedge $-1 $385 $397 $406 $465 forward $322 $-1 #
coedge $-1 $387 $386 $501 $502 reversed $261 $-1 #
edge $-1 $447 -66.692709128086193 $503 66.692709128086193 $442 $504 forward 7 unknown #
vertex $-1 $446 $505 #
straight-curve $-1 66.692709128086193 -26.800025708062726 -4.4012308980055241 0 0 -1 I I #
coedge $-1 $406 $501 $390 $450 forward $407 $-1 #
edge $-1 $453 11.495882295211084 $451 19.112404530492199 $449 $506 forward 7 unknown #
vertex $-1 $391 $507 #
straight-curve $-1 0 -34.416547943343843 -6.9860735888966374 1 0 0 I I #
vertex $-1 $450 $508 #
straight-curve $-1 0 -26.800025708062726 -6.9860735888966374 -1 0 0 I I #
edge $-1 $399 -10.618850003125459 $394 6.9860735888966374 $393 $509 forward 7 unknown #
point $-1 66.692709128086193 -34.416547943343843 -6.9860735888966374 #
point $-1 66.692709128086193 -26.800025708062726 -6.9860735888966374 #
straight-curve $-1 0 -34.416547943343843 10.618850003125459 1 0 0 I I #
point $-1 66.692709128086193 -34.416547943343843 10.618850003125459 #
coedge $-1 $400 $500 $402 $462 forward $383 $-1 #
straight-curve $-1 66.692709128086193 0 -10.618850003125459 0 -1 0 I I #
edge $-1 $467 -66.692709128086193 $403 66.692709128086193 $402 $510 forward 7 unknown #
point $-1 66.692709128086193 34.416547943343843 -10.618850003125459 #
coedge $-1 $501 $405 $500 $511 reversed $407 $-1 #
edge $-1 $408 -10.618850003125459 $451 6.9860735888966374 $406 $512 forward 7 unknown #
point $-1 -66.692709128086193 -34.416547943343843 10.618850003125459 #
vertex $-1 $462 $513 #
straight-curve $-1 -66.692709128086193 34.416547943343843 0 0 0 -1 I I #
plane-surface $-1 0 34.416547943343843 0 0 -1 0 0 0 -1 forward_v I I I I #
face $-1 $514 $515 $15 $-1 $516 reversed single #
loop $-1 $-1 $517 $413 #
plane-surface $-1 0 -34.416547943343843 0 0 1 0 0 0 1 forward_v I I I I #
coedge $-1 $518 $519 $520 $521 reversed $414 $-1 #
coedge $-1 $522 $416 $517 $523 reversed $348 $-1 #
coedge $-1 $416 $522 $518 $524 reversed $348 $-1 #
coedge $-1 $520 $525 $416 $477 forward $361 $-1 #
edge $-1 $526 -19.112404530492199 $527 -11.495882295211084 $476 $528 forward 7 unknown #
coedge $-1 $417 $429 $529 $530 forward $282 $-1 #
coedge $-1 $525 $418 $417 $480 reversed $361 $-1 #
edge $-1 $531 -34.416547943343843 $421 -26.800025708062719 $479 $433 forward 7 unknown #
vertex $-1 $425 $532 #
straight-curve $-1 66.692709128086193 -26.800025708062719 93.701431969113358 0 0 1 I I #
straight-curve $-1 -15.427552853199259 -26.800025708062719 105.28260195694125 -0.61566146476048833 0 0.78801076186113728 I I #
point $-1 66.692709128086193 -26.800025708062719 10.618850003125459 #
point $-1 58.531873855594824 -26.800025708062719 10.618850003125459 #
straight-curve $-1 66.692709128086193 -10.056753203665647 0.17345689572842105 0 -1 0 I I #
coedge $-1 $427 $520 $533 $534 reversed $361 $-1 #
coedge $-1 $535 $430 $427 $489 forward $494 $-1 #
edge $-1 $432 -10.618850003125459 $536 10.618850003125459 $427 $537 forward 7 unknown #
plane-surface $-1 66.692709128086193 0 0 -1 0 0 0 0 1 forward_v I I I I #
coedge $-1 $538 $539 $429 $492 reversed $540 $-1 #
edge $-1 $495 -34.416547943343843 $541 34.416547943343843 $491 $542 forward 7 unknown #
coedge $-1 $430 $535 $538 $543 reversed $494 $-1 #
loop $-1 $-1 $488 $544 #
vertex $-1 $431 $545 #
straight-curve $-1 0 34.416547943343843 10.618850003125459 -1 0 0 I I #
point $-1 66.692709128086193 34.416547943343843 10.618850003125459 #
point $-1 -66.692709128086193 34.416547943343843 10.618850003125459 #
straight-curve $-1 -66.692709128086193 34.416547943343843 0 0 0 -1 I I #
coedge $-1 $460 $442 $464 $511 forward $383 $-1 #
coedge $-1 $449 $464 $445 $502 forward $407 $-1 #
edge $-1 $503 -6.217619105119935 $453 -2.5848426908911133 $501 $546 forward 7 unknown #
vertex $-1 $511 $547 #
straight-curve $-1 0 -26.800025708062726 -10.618850003125459 -1 0 0 I I #
point $-1 66.692709128086193 -26.800025708062726 -10.618850003125459 #
straight-curve $-1 -66.692709128086193 -15.304143412851642 -6.9860735888966374 0 -1 0 I I #
point $-1 -66.692709128086193 -34.416547943343843 -6.9860735888966374 #
point $-1 -66.692709128086193 -26.800025708062726 -6.9860735888966374 #
straight-curve $-1 66.692709128086193 -34.416547943343843 0 0 0 -1 I I #
straight-curve $-1 0 34.416547943343843 -10.618850003125459 1 0 0 I I #
edge $-1 $503 -26.800025708062726 $467 34.416547943343843 $464 $548 forward 7 unknown #
straight-curve $-1 -66.692709128086193 -34.416547943343843 0 0 0 -1 I I #
point $-1 -66.692709128086193 34.416547943343843 -10.618850003125459 #
face $-1 $544 $540 $15 $-1 $549 reversed single #
loop $-1 $-1 $550 $470 #
plane-surface $-1 0 0 -10.618850003125459 0 0 1 1 0 0 forward_v I I I I #
coedge $-1 $551 $552 $474 $523 forward $471 $-1 #
coedge $-1 $553 $473 $475 $524 forward $414 $-1 #
coedge $-1 $473 $553 $550 $554 reversed $414 $-1 #
coedge $-1 $487 $476 $473 $521 forward $361 $-1 #
edge $-1 $527 2.5848426908911133 $555 6.217619105119935 $520 $556 forward 7 unknown #
coedge $-1 $475 $474 $557 $558 reversed $348 $-1 #
edge $-1 $559 -66.692709128086193 $526 66.692709128086193 $517 $560 forward 7 unknown #
edge $-1 $527 -66.692709128086193 $561 66.692709128086193 $518 $562 forward 7 unknown #
coedge $-1 $476 $479 $551 $563 forward $361 $-1 #
vertex $-1 $523 $564 #
vertex $-1 $477 $565 #
straight-curve $-1 66.692709128086193 -15.304143412851642 -6.9860735888966374 0 1 0 I I #
coedge $-1 $552 $551 $478 $530 reversed $471 $-1 #
edge $-1 $541 -66.692709128086193 $531 66.692709128086193 $529 $566 forward 7 unknown #
vertex $-1 $480 $567 #
point $-1 66.692709128086193 -26.800025708062719 0.17345689572842105 #
coedge $-1 $550 $568 $487 $534 forward $515 $-1 #
edge $-1 $536 -34.416547943343843 $555 26.800025708062726 $487 $569 forward 7 unknown #
coedge $-1 $493 $488 $568 $570 reversed $494 $-1 #
vertex $-1 $534 $571 #
straight-curve $-1 66.692709128086193 34.416547943343843 0 0 0 -1 I I #
coedge $-1 $572 $491 $493 $543 forward $540 $-1 #
coedge $-1 $491 $557 $552 $573 reversed $540 $-1 #
loop $-1 $-1 $557 $514 #
vertex $-1 $492 $574 #
straight-curve $-1 -66.692709128086193 0 10.618850003125459 0 -1 0 I I #
edge $-1 $495 -10.618850003125459 $575 10.618850003125459 $493 $576 forward 7 unknown #
face $-1 $428 $494 $15 $-1 $577 reversed single #
point $-1 -66.692709128086193 34.416547943343843 10.618850003125459 #
straight-curve $-1 -66.692709128086193 -26.800025708062726 -4.4012308980055241 0 0 1 I I #
point $-1 -66.692709128086193 -26.800025708062726 -10.618850003125459 #
straight-curve $-1 -66.692709128086193 0 -10.618850003125459 0 1 0 I I #
plane-surface $-1 -66.692709128086193 0 0 1 0 0 0 0 -1 forward_v I I I I #
coedge $-1 $578 $533 $519 $554 forward $515 $-1 #
coedge $-1 $529 $517 $525 $563 reversed $471 $-1 #
coedge $-1 $517 $529 $539 $573 forward $471 $-1 #
coedge $-1 $519 $518 $579 $580 reversed $414 $-1 #
edge $-1 $555 -66.692709128086193 $581 66.692709128086193 $550 $582 forward 7 unknown #
vertex $-1 $554 $583 #
straight-curve $-1 66.692709128086193 -26.800025708062726 -4.4012308980055241 0 0 -1 I I #
coedge $-1 $539 $579 $522 $558 forward $540 $-1 #
edge $-1 $561 11.495882295211084 $559 19.112404530492199 $557 $584 forward 7 unknown #
vertex $-1 $523 $585 #
straight-curve $-1 0 -34.416547943343843 -6.9860735888966374 1 0 0 I I #
vertex $-1 $558 $586 #
straight-curve $-1 0 -26.800025708062726 -6.9860735888966374 -1 0 0 I I #
edge $-1 $531 -10.618850003125459 $526 6.9860735888966374 $525 $587 forward 7 unknown #
point $-1 66.692709128086193 -34.416547943343843 -6.9860735888966374 #
point $-1 66.692709128086193 -26.800025708062726 -6.9860735888966374 #
straight-curve $-1 0 -34.416547943343843 10.618850003125459 1 0 0 I I #
point $-1 66.692709128086193 -34.416547943343843 10.618850003125459 #
coedge $-1 $533 $578 $535 $570 forward $515 $-1 #
straight-curve $-1 66.692709128086193 0 -10.618850003125459 0 -1 0 I I #
edge $-1 $575 -66.692709128086193 $536 66.692709128086193 $535 $588 forward 7 unknown #
point $-1 66.692709128086193 34.416547943343843 -10.618850003125459 #
coedge $-1 $579 $538 $578 $589 reversed $540 $-1 #
edge $-1 $541 -10.618850003125459 $559 6.9860735888966374 $539 $590 forward 7 unknown #
point $-1 -66.692709128086193 -34.416547943343843 10.618850003125459 #
vertex $-1 $570 $591 #
straight-curve $-1 -66.692709128086193 34.416547943343843 0 0 0 -1 I I #
plane-surface $-1 0 34.416547943343843 0 0 -1 0 0 0 -1 forward_v I I I I #
coedge $-1 $568 $550 $572 $589 forward $515 $-1 #
coedge $-1 $557 $572 $553 $580 forward $540 $-1 #
edge $-1 $581 -6.217619105119935 $561 -2.5848426908911133 $579 $592 forward 7 unknown #
vertex $-1 $589 $593 #
straight-curve $-1 0 -26.800025708062726 -10.618850003125459 -1 0 0 I I #
point $-1 66.692709128086193 -26.800025708062726 -10.618850003125459 #
straight-curve $-1 -66.692709128086193 -15.304143412851642 -6.9860735888966374 0 -1 0 I I #
point $-1 -66.692709128086193 -34.416547943343843 -6.9860735888966374 #
point $-1 -66.692709128086193 -26.800025708062726 -6.9860735888966374 #
straight-curve $-1 66.692709128086193 -34.416547943343843 0 0 0 -1 I I #
straight-curve $-1 0 34.416547943343843 -10.618850003125459 1 0 0 I I #
edge $-1 $581 -26.800025708062726 $575 34.416547943343843 $572 $594 forward 7 unknown #
straight-curve $-1 -66.692709128086193 -34.416547943343843 0 0 0 -1 I I #
point $-1 -66.692709128086193 34.416547943343843 -10.618850003125459 #
straight-curve $-1 -66.692709128086193 -26.800025708062726 -4.4012308980055241 0 0 1 I I #
point $-1 -66.692709128086193 -26.800025708062726 -10.618850003125459 #
straight-curve $-1 -66.692709128086193 0 -10.618850003125459 0 1 0 I I #
End-of-ACIS-data 