500 0 16 0           
7 Unknown 11 ACIS 5.0 NT 24 Thu Mar 25 15:25:44 1999 
-1 9.9999999999999995e-007 1e-010 
body $-1 $16 $-1 $17 #
body $-1 $18 $-1 $19 #
body $-1 $20 $-1 $21 #
body $-1 $22 $-1 $23 #
body $-1 $24 $-1 $25 #
body $-1 $26 $-1 $27 #
body $-1 $28 $-1 $29 #
body $-1 $30 $-1 $31 #
body $-1 $32 $-1 $33 #
body $-1 $34 $-1 $35 #
body $-1 $36 $-1 $37 #
body $-1 $38 $-1 $39 #
body $-1 $40 $-1 $41 #
body $-1 $42 $-1 $43 #
body $-1 $44 $-1 $45 #
body $-1 $46 $-1 $47 #
lump $-1 $-1 $48 $0 #
transform $-1 1 0 0 0 1 0 0 0 1 52.959379863887449 30.277048951390224 15.114685007237645 1 rotate no_reflect no_shear #
lump $-1 $-1 $49 $1 #
transform $-1 1 0 0 0 1 0 0 0 1 52.959379863887449 30.277048951390224 15.114685007237645 1 rotate no_reflect no_shear #
lump $-1 $-1 $50 $2 #
transform $-1 1 0 0 0 1 0 0 0 1 52.959379863887449 30.277048951390224 15.114685007237645 1 rotate no_reflect no_shear #
lump $-1 $-1 $51 $3 #
transform $-1 1 0 0 0 1 0 0 0 1 52.959379863887449 30.277048951390224 15.114685007237645 1 rotate no_reflect no_shear #
lump $-1 $-1 $52 $4 #
transform $-1 1 0 0 0 1 0 0 0 1 52.959379863887449 30.277048951390224 15.114685007237645 1 rotate no_reflect no_shear #
lump $-1 $-1 $53 $5 #
transform $-1 1 0 0 0 1 0 0 0 1 52.959379863887449 30.277048951390224 15.114685007237645 1 rotate no_reflect no_shear #
lump $-1 $-1 $54 $6 #
transform $-1 1 0 0 0 1 0 0 0 1 52.959379863887449 30.277048951390224 15.114685007237645 1 rotate no_reflect no_shear #
lump $-1 $-1 $55 $7 #
transform $-1 1 0 0 0 1 0 0 0 1 52.959379863887449 30.277048951390224 15.114685007237645 1 rotate no_reflect no_shear #
lump $-1 $-1 $56 $8 #
transform $-1 1 0 0 0 1 0 0 0 1 52.959379863887449 30.277048951390224 15.114685007237645 1 rotate no_reflect no_shear #
lump $-1 $-1 $57 $9 #
transform $-1 1 0 0 0 1 0 0 0 1 52.959379863887449 30.277048951390224 15.114685007237645 1 rotate no_reflect no_shear #
lump $-1 $-1 $58 $10 #
transform $-1 1 0 0 0 1 0 0 0 1 52.959379863887449 30.277048951390224 15.114685007237645 1 rotate no_reflect no_shear #
lump $-1 $-1 $59 $11 #
transform $-1 1 0 0 0 1 0 0 0 1 52.959379863887449 30.277048951390224 15.114685007237645 1 rotate no_reflect no_shear #
lump $-1 $-1 $60 $12 #
transform $-1 1 0 0 0 1 0 0 0 1 52.959379863887449 30.277048951390224 15.114685007237645 1 rotate no_reflect no_shear #
lump $-1 $-1 $61 $13 #
transform $-1 1 0 0 0 1 0 0 0 1 52.959379863887449 30.277048951390224 15.114685007237645 1 rotate no_reflect no_shear #
lump $-1 $-1 $62 $14 #
transform $-1 1 0 0 0 1 0 0 0 1 52.959379863887449 30.277048951390224 15.114685007237645 1 rotate no_reflect no_shear #
lump $-1 $-1 $63 $15 #
transform $-1 1 0 0 0 1 0 0 0 1 52.959379863887449 30.277048951390224 15.114685007237645 1 rotate no_reflect no_shear #
shell $-1 $-1 $-1 $64 $-1 $16 #
shell $-1 $-1 $-1 $65 $-1 $18 #
shell $-1 $-1 $-1 $66 $-1 $20 #
shell $-1 $-1 $-1 $67 $-1 $22 #
shell $-1 $-1 $-1 $68 $-1 $24 #
shell $-1 $-1 $-1 $69 $-1 $26 #
shell $-1 $-1 $-1 $70 $-1 $28 #
shell $-1 $-1 $-1 $71 $-1 $30 #
shell $-1 $-1 $-1 $72 $-1 $32 #
shell $-1 $-1 $-1 $73 $-1 $34 #
shell $-1 $-1 $-1 $74 $-1 $36 #
shell $-1 $-1 $-1 $75 $-1 $38 #
shell $-1 $-1 $-1 $76 $-1 $40 #
shell $-1 $-1 $-1 $77 $-1 $42 #
shell $-1 $-1 $-1 $78 $-1 $44 #
shell $-1 $-1 $-1 $79 $-1 $46 #
face $-1 $80 $81 $48 $-1 $82 forward single #
face $-1 $83 $84 $49 $-1 $85 forward single #
face $-1 $86 $87 $50 $-1 $88 reversed single #
face $-1 $89 $90 $51 $-1 $91 forward single #
face $-1 $92 $93 $52 $-1 $94 forward single #
face $-1 $95 $96 $53 $-1 $97 forward single #
face $-1 $98 $99 $54 $-1 $100 reversed single #
face $-1 $101 $102 $55 $-1 $103 forward single #
face $-1 $104 $105 $56 $-1 $106 forward single #
face $-1 $107 $108 $57 $-1 $109 forward single #
face $-1 $110 $111 $58 $-1 $112 reversed single #
face $-1 $113 $114 $59 $-1 $115 forward single #
face $-1 $116 $117 $60 $-1 $118 forward single #
face $-1 $119 $120 $61 $-1 $121 reversed single #
face $-1 $122 $123 $62 $-1 $124 forward single #
face $-1 $125 $126 $63 $-1 $127 forward single #
face $-1 $128 $129 $48 $-1 $130 reversed single #
loop $-1 $-1 $131 $64 #
plane-surface $-1 0 0 15.114685007237645 0 0 1 1 0 0 forward_v I I I I #
face $-1 $132 $133 $49 $-1 $134 reversed single #
loop $-1 $-1 $135 $65 #
plane-surface $-1 0 -30.277048951390224 0 0 1 0 0 0 1 forward_v I I I I #
face $-1 $136 $137 $50 $-1 $138 reversed single #
loop $-1 $-1 $139 $66 #
plane-surface $-1 -126.53673376179353 -3.3306905880784434 77.398721391793103 0 1 0 -0.69465837861970381 0 0.71933979245794832 forward_v I I I I #
face $-1 $140 $141 $51 $-1 $142 forward single #
loop $-1 $143 $144 $67 #
cone-surface $-1 -45.191016880890174 -1.997094941724189 7.573227297167703 0.69465837861970381 0 -0.71933979245794832 0.35966989622897416 0 0.3473291893098519 1 I I 0 1 0.5 forward I I I I #
face $-1 $145 $146 $52 $-1 $147 forward single #
loop $-1 $148 $149 $68 #
cone-surface $-1 -45.191016880890174 0.0032985278071926416 7.573227297167703 0.69465837861970381 0 -0.71933979245794832 0.35966989622897416 0 0.3473291893098519 1 I I 0 1 0.5 forward I I I I #
face $-1 $150 $151 $53 $-1 $152 forward single #
loop $-1 $153 $154 $69 #
cone-surface $-1 -45.191016880890174 2.0036919973385743 7.573227297167703 0.69465837861970381 0 -0.71933979245794832 0.35966989622897416 0 0.3473291893098519 1 I I 0 1 0.5 forward I I I I #
face $-1 $155 $156 $54 $-1 $157 reversed single #
loop $-1 $-1 $158 $70 #
plane-surface $-1 -126.53673376179353 15.209699835023862 77.398721391793103 0 1 0 -0.69465837861970381 0 0.71933979245794832 forward_v I I I I #
face $-1 $159 $160 $55 $-1 $161 forward single #
loop $-1 $162 $163 $71 #
cone-surface $-1 -45.191016880890174 16.54329548137812 7.573227297167703 0.69465837861970381 0 -0.71933979245794832 0.35966989622897416 0 0.3473291893098519 1 I I 0 1 0.5 forward I I I I #
face $-1 $164 $165 $56 $-1 $166 forward single #
loop $-1 $167 $168 $72 #
cone-surface $-1 -45.191016880890174 18.543688950909502 7.573227297167703 0.69465837861970381 0 -0.71933979245794832 0.35966989622897416 0 0.3473291893098519 1 I I 0 1 0.5 forward I I I I #
face $-1 $169 $170 $57 $-1 $171 forward single #
loop $-1 $172 $173 $73 #
cone-surface $-1 -45.191016880890174 20.544082420440883 7.573227297167703 0.69465837861970381 0 -0.71933979245794832 0.35966989622897416 0 0.3473291893098519 1 I I 0 1 0.5 forward I I I I #
face $-1 $174 $175 $58 $-1 $176 reversed single #
loop $-1 $-1 $177 $74 #
plane-surface $-1 34.704359525056788 1.3092739447403723 159.39938181104256 0 -1 0 -0.61566148304635926 0 -0.78801074757464917 forward_v I I I I #
face $-1 $178 $179 $59 $-1 $180 forward single #
loop $-1 $181 $182 $75 #
cone-surface $-1 49.528818778203117 -5.6288049834364635 12.124894540167675 -0.61566148304635926 0 -0.78801074757464917 0.78801074757464917 0 -0.61566148304635926 1 I I 0 1 1 forward I I I I #
face $-1 $183 $184 $60 $-1 $185 forward single #
loop $-1 $186 $187 $76 #
cone-surface $-1 49.528818778203117 -1.4659576265303578 12.124894540167675 -0.61566148304635926 0 -0.78801074757464917 0.78801074757464917 0 -0.61566148304635926 1 I I 0 1 1 forward I I I I #
face $-1 $188 $189 $61 $-1 $190 reversed single #
loop $-1 $-1 $191 $77 #
plane-surface $-1 34.704359525056788 26.951024033423895 159.39938181104256 0 -1 0 -0.61566148304635926 0 -0.78801074757464917 forward_v I I I I #
face $-1 $192 $193 $62 $-1 $194 forward single #
loop $-1 $195 $196 $78 #
cone-surface $-1 49.528818778203117 20.012945105247059 12.124894540167675 -0.61566148304635926 0 -0.78801074757464917 0.78801074757464917 0 -0.61566148304635926 1 I I 0 1 1 forward I I I I #
face $-1 $197 $198 $63 $-1 $199 forward single #
loop $-1 $200 $201 $79 #
cone-surface $-1 49.528818778203117 24.175792462153172 12.124894540167675 -0.61566148304635926 0 -0.78801074757464917 0.78801074757464917 0 -0.61566148304635926 1 I I 0 1 1 forward I I I I #
face $-1 $202 $203 $48 $-1 $204 reversed single #
loop $-1 $-1 $205 $80 #
plane-surface $-1 0 0 -15.114685007237645 0 0 1 1 0 0 forward_v I I I I #
coedge $-1 $206 $207 $208 $209 forward $81 $-1 #
face $-1 $210 $211 $49 $-1 $212 reversed single #
loop $-1 $-1 $213 $83 #
plane-surface $-1 0 0 -15.114685007237645 0 0 1 1 0 0 forward_v I I I I #
coedge $-1 $214 $215 $216 $217 forward $84 $-1 #
face $-1 $218 $219 $50 $-1 $220 reversed single #
loop $-1 $-1 $221 $86 #
plane-surface $-1 -52.959379863887435 0.0032985278071961943 1.2071427518122135 -0.69465837861970381 0 0.71933979245794832 0.71933979245794832 0 0.69465837861970381 forward_v I I I I #
coedge $-1 $222 $223 $224 $225 reversed $87 $-1 #
face $-1 $-1 $226 $51 $-1 $227 forward single #
loop $-1 $228 $229 $89 #
cone-surface $-1 -44.44982993766353 -1.997094941724189 6.8057057666959881 0.69465837861970381 0 -0.71933979245794832 0.17983494811448708 0 0.17366459465492595 1 I I -0.70710678118654746 0.70710678118654746 0.25 forward I I I I #
loop $-1 $-1 $230 $67 #
coedge $-1 $144 $144 $231 $232 reversed $90 $-1 #
face $-1 $-1 $233 $52 $-1 $234 forward single #
loop $-1 $235 $236 $92 #
cone-surface $-1 -44.44982993766353 0.0032985278071926416 6.8057057666959881 0.69465837861970381 0 -0.71933979245794832 0.17983494811448708 0 0.17366459465492595 1 I I -0.70710678118654746 0.70710678118654746 0.25 forward I I I I #
loop $-1 $-1 $237 $68 #
coedge $-1 $149 $149 $238 $239 reversed $93 $-1 #
face $-1 $-1 $240 $53 $-1 $241 forward single #
loop $-1 $242 $243 $95 #
cone-surface $-1 -44.44982993766353 2.0036919973385743 6.8057057666959881 0.69465837861970381 0 -0.71933979245794832 0.17983494811448708 0 0.17366459465492595 1 I I -0.70710678118654746 0.70710678118654746 0.25 forward I I I I #
loop $-1 $-1 $244 $69 #
coedge $-1 $154 $154 $245 $246 reversed $96 $-1 #
face $-1 $247 $248 $54 $-1 $249 reversed single #
loop $-1 $-1 $250 $98 #
plane-surface $-1 -52.959379863887435 18.543688950909502 1.2071427518122135 -0.69465837861970381 0 0.71933979245794832 0.71933979245794832 0 0.69465837861970381 forward_v I I I I #
coedge $-1 $251 $252 $253 $254 reversed $99 $-1 #
face $-1 $-1 $255 $55 $-1 $256 forward single #
loop $-1 $257 $258 $101 #
cone-surface $-1 -44.44982993766353 16.54329548137812 6.8057057666959881 0.69465837861970381 0 -0.71933979245794832 0.17983494811448708 0 0.17366459465492595 1 I I -0.70710678118654746 0.70710678118654746 0.25 forward I I I I #
loop $-1 $-1 $259 $71 #
coedge $-1 $163 $163 $260 $261 reversed $102 $-1 #
face $-1 $-1 $262 $56 $-1 $263 forward single #
loop $-1 $264 $265 $104 #
cone-surface $-1 -44.44982993766353 18.543688950909502 6.8057057666959881 0.69465837861970381 0 -0.71933979245794832 0.17983494811448708 0 0.17366459465492595 1 I I -0.70710678118654746 0.70710678118654746 0.25 forward I I I I #
loop $-1 $-1 $266 $72 #
coedge $-1 $168 $168 $267 $268 reversed $105 $-1 #
face $-1 $-1 $269 $57 $-1 $270 forward single #
loop $-1 $271 $272 $107 #
cone-surface $-1 -44.44982993766353 20.544082420440883 6.8057057666959881 0.69465837861970381 0 -0.71933979245794832 0.17983494811448708 0 0.17366459465492595 1 I I -0.70710678118654746 0.70710678118654746 0.25 forward I I I I #
loop $-1 $-1 $273 $73 #
coedge $-1 $173 $173 $274 $275 reversed $108 $-1 #
face $-1 $276 $277 $58 $-1 $278 reversed single #
loop $-1 $-1 $279 $110 #
plane-surface $-1 -30.505741171376101 -3.5473813049834142 75.934260775779023 0.61566148304635926 0 0.78801074757464917 0.78801074757464917 0 -0.61566148304635926 forward_v I I I I #
coedge $-1 $280 $281 $282 $283 reversed $111 $-1 #
face $-1 $-1 $284 $59 $-1 $285 forward single #
loop $-1 $286 $287 $113 #
cone-surface $-1 48.600234715445595 -5.6288049834364635 10.936361163256132 -0.61566148304635926 0 -0.78801074757464917 0.39400537378732459 0 -0.30783074152317963 1 I I -0.70710678118654746 0.70710678118654746 0.5 forward I I I I #
loop $-1 $-1 $288 $75 #
coedge $-1 $182 $182 $289 $290 reversed $114 $-1 #
face $-1 $-1 $291 $60 $-1 $292 forward single #
loop $-1 $293 $294 $116 #
cone-surface $-1 48.600234715445595 -1.4659576265303578 10.936361163256132 -0.61566148304635926 0 -0.78801074757464917 0.39400537378732459 0 -0.30783074152317963 1 I I -0.70710678118654746 0.70710678118654746 0.5 forward I I I I #
loop $-1 $-1 $295 $76 #
coedge $-1 $187 $187 $296 $297 reversed $117 $-1 #
face $-1 $298 $299 $61 $-1 $300 reversed single #
loop $-1 $-1 $301 $119 #
plane-surface $-1 -30.505741171376101 22.094368783700109 75.934260775779023 0.61566148304635926 0 0.78801074757464917 0.78801074757464917 0 -0.61566148304635926 forward_v I I I I #
coedge $-1 $302 $303 $304 $305 reversed $120 $-1 #
face $-1 $-1 $306 $62 $-1 $307 forward single #
loop $-1 $308 $309 $122 #
cone-surface $-1 48.600234715445595 20.012945105247059 10.936361163256132 -0.61566148304635926 0 -0.78801074757464917 0.39400537378732459 0 -0.30783074152317963 1 I I -0.70710678118654746 0.70710678118654746 0.5 forward I I I I #
loop $-1 $-1 $310 $78 #
coedge $-1 $196 $196 $311 $312 reversed $123 $-1 #
face $-1 $-1 $313 $63 $-1 $314 forward single #
loop $-1 $315 $316 $125 #
cone-surface $-1 48.600234715445595 24.175792462153172 10.936361163256132 -0.61566148304635926 0 -0.78801074757464917 0.39400537378732459 0 -0.30783074152317963 1 I I -0.70710678118654746 0.70710678118654746 0.5 forward I I I I #
loop $-1 $-1 $317 $79 #
coedge $-1 $201 $201 $318 $319 reversed $126 $-1 #
face $-1 $320 $321 $48 $-1 $322 reversed single #
loop $-1 $-1 $323 $128 #
plane-surface $-1 0 -30.277048951390224 0 0 1 0 0 0 1 forward_v I I I I #
coedge $-1 $324 $325 $326 $327 forward $129 $-1 #
coedge $-1 $328 $131 $329 $330 forward $81 $-1 #
coedge $-1 $131 $328 $331 $332 forward $81 $-1 #
coedge $-1 $333 $334 $131 $209 reversed $335 $-1 #
edge $-1 $336 -30.277048951390224 $337 30.277048951390224 $208 $338 forward 7 unknown #
face $-1 $339 $340 $49 $-1 $341 forward single #
loop $-1 $-1 $342 $132 #
plane-surface $-1 52.959379863887449 0 0 -1 0 0 0 0 1 forward_v I I I I #
coedge $-1 $343 $344 $345 $346 forward $133 $-1 #
coedge $-1 $345 $135 $342 $347 reversed $84 $-1 #
coedge $-1 $135 $345 $348 $349 reversed $84 $-1 #
coedge $-1 $350 $351 $135 $217 reversed $340 $-1 #
edge $-1 $352 -52.959379863887449 $353 52.959379863887449 $216 $354 forward 7 unknown #
face $-1 $355 $356 $50 $-1 $357 forward single #
loop $-1 $-1 $358 $136 #
plane-surface $-1 -126.53673376179353 3.3372876436928358 77.398721391793103 0 -1 0 0.69465837861970381 0 -0.71933979245794832 forward_v I I I I #
coedge $-1 $359 $360 $361 $362 reversed $137 $-1 #
coedge $-1 $223 $139 $363 $364 reversed $87 $-1 #
coedge $-1 $139 $222 $359 $365 reversed $87 $-1 #
coedge $-1 $361 $366 $139 $225 forward $356 $-1 #
edge $-1 $367 10.308987017009315 $368 24.71066828586045 $224 $369 forward 7 unknown #
loop $-1 $-1 $231 $140 #
plane-surface $-1 -52.959379863887435 0.0032985278071961943 1.2071427518122135 -0.69465837861970381 0 0.71933979245794832 0.71933979245794832 0 0.69465837861970381 forward_v I I I I #
loop $-1 $-1 $370 $89 #
coedge $-1 $229 $229 $230 $371 reversed $141 $-1 #
coedge $-1 $230 $230 $229 $371 forward $143 $-1 #
coedge $-1 $231 $231 $144 $232 forward $226 $-1 #
edge $-1 $372 0 $372 6.2831853071796004 $231 $373 forward 7 unknown #
loop $-1 $-1 $238 $145 #
plane-surface $-1 -52.959379863887435 0.0032985278071961943 1.2071427518122135 -0.69465837861970381 0 0.71933979245794832 0.71933979245794832 0 0.69465837861970381 forward_v I I I I #
loop $-1 $-1 $374 $92 #
coedge $-1 $236 $236 $237 $375 reversed $146 $-1 #
coedge $-1 $237 $237 $236 $375 forward $148 $-1 #
coedge $-1 $238 $238 $149 $239 forward $233 $-1 #
edge $-1 $376 0 $376 6.2831853071796004 $238 $377 forward 7 unknown #
loop $-1 $-1 $245 $150 #
plane-surface $-1 -52.959379863887435 0.0032985278071961943 1.2071427518122135 -0.69465837861970381 0 0.71933979245794832 0.71933979245794832 0 0.69465837861970381 forward_v I I I I #
loop $-1 $-1 $378 $95 #
coedge $-1 $243 $243 $244 $379 reversed $151 $-1 #
coedge $-1 $244 $244 $243 $379 forward $153 $-1 #
coedge $-1 $245 $245 $154 $246 forward $240 $-1 #
edge $-1 $380 0 $380 6.2831853071796004 $245 $381 forward 7 unknown #
face $-1 $382 $383 $54 $-1 $384 forward single #
loop $-1 $-1 $385 $155 #
plane-surface $-1 -126.53673376179353 21.877678066795141 77.398721391793103 0 -1 0 0.69465837861970381 0 -0.71933979245794832 forward_v I I I I #
coedge $-1 $386 $387 $388 $389 reversed $156 $-1 #
coedge $-1 $252 $158 $390 $391 reversed $99 $-1 #
coedge $-1 $158 $251 $386 $392 reversed $99 $-1 #
coedge $-1 $388 $393 $158 $254 forward $383 $-1 #
edge $-1 $394 10.308987017009315 $395 24.71066828586045 $253 $396 forward 7 unknown #
loop $-1 $-1 $260 $159 #
plane-surface $-1 -52.959379863887435 18.543688950909502 1.2071427518122135 -0.69465837861970381 0 0.71933979245794832 0.71933979245794832 0 0.69465837861970381 forward_v I I I I #
loop $-1 $-1 $397 $101 #
coedge $-1 $258 $258 $259 $398 reversed $160 $-1 #
coedge $-1 $259 $259 $258 $398 forward $162 $-1 #
coedge $-1 $260 $260 $163 $261 forward $255 $-1 #
edge $-1 $399 0 $399 6.2831853071796004 $260 $400 forward 7 unknown #
loop $-1 $-1 $267 $164 #
plane-surface $-1 -52.959379863887435 18.543688950909502 1.2071427518122135 -0.69465837861970381 0 0.71933979245794832 0.71933979245794832 0 0.69465837861970381 forward_v I I I I #
loop $-1 $-1 $401 $104 #
coedge $-1 $265 $265 $266 $402 reversed $165 $-1 #
coedge $-1 $266 $266 $265 $402 forward $167 $-1 #
coedge $-1 $267 $267 $168 $268 forward $262 $-1 #
edge $-1 $403 0 $403 6.2831853071796004 $267 $404 forward 7 unknown #
loop $-1 $-1 $274 $169 #
plane-surface $-1 -52.959379863887435 18.543688950909502 1.2071427518122135 -0.69465837861970381 0 0.71933979245794832 0.71933979245794832 0 0.69465837861970381 forward_v I I I I #
loop $-1 $-1 $405 $107 #
coedge $-1 $272 $272 $273 $406 reversed $170 $-1 #
coedge $-1 $273 $273 $272 $406 forward $172 $-1 #
coedge $-1 $274 $274 $173 $275 forward $269 $-1 #
edge $-1 $407 0 $407 6.2831853071796004 $274 $408 forward 7 unknown #
face $-1 $409 $410 $58 $-1 $411 reversed single #
loop $-1 $-1 $412 $174 #
plane-surface $-1 34.704359525056788 -8.4040365547072007 159.39938181104256 0 1 0 0.61566148304635926 0 0.78801074757464917 forward_v I I I I #
coedge $-1 $413 $414 $415 $416 reversed $175 $-1 #
coedge $-1 $281 $177 $417 $418 reversed $111 $-1 #
coedge $-1 $177 $280 $413 $419 reversed $111 $-1 #
coedge $-1 $415 $420 $177 $283 forward $421 $-1 #
edge $-1 $422 -35.607200101359055 $423 -29.987584572459056 $282 $424 forward 7 unknown #
loop $-1 $-1 $289 $178 #
plane-surface $-1 -30.505741171376101 -3.5473813049834142 75.934260775779023 0.61566148304635926 0 0.78801074757464917 0.78801074757464917 0 -0.61566148304635926 forward_v I I I I #
loop $-1 $-1 $425 $113 #
coedge $-1 $287 $287 $288 $426 reversed $179 $-1 #
coedge $-1 $288 $288 $287 $426 forward $181 $-1 #
coedge $-1 $289 $289 $182 $290 forward $284 $-1 #
edge $-1 $427 0 $427 6.2831853071796004 $289 $428 forward 7 unknown #
loop $-1 $-1 $296 $183 #
plane-surface $-1 -30.505741171376101 -3.5473813049834142 75.934260775779023 0.61566148304635926 0 0.78801074757464917 0.78801074757464917 0 -0.61566148304635926 forward_v I I I I #
loop $-1 $-1 $429 $116 #
coedge $-1 $294 $294 $295 $430 reversed $184 $-1 #
coedge $-1 $295 $295 $294 $430 forward $186 $-1 #
coedge $-1 $296 $296 $187 $297 forward $291 $-1 #
edge $-1 $431 0 $431 6.2831853071796004 $296 $432 forward 7 unknown #
face $-1 $433 $434 $61 $-1 $435 reversed single #
loop $-1 $-1 $436 $188 #
plane-surface $-1 34.704359525056788 17.237713533976322 159.39938181104256 0 1 0 0.61566148304635926 0 0.78801074757464917 forward_v I I I I #
coedge $-1 $437 $438 $439 $440 reversed $189 $-1 #
coedge $-1 $303 $191 $441 $442 reversed $120 $-1 #
coedge $-1 $191 $302 $437 $443 reversed $120 $-1 #
coedge $-1 $439 $444 $191 $305 forward $445 $-1 #
edge $-1 $446 -35.607200101359055 $447 -29.987584572459056 $304 $448 forward 7 unknown #
loop $-1 $-1 $311 $192 #
plane-surface $-1 -30.505741171376101 22.094368783700109 75.934260775779023 0.61566148304635926 0 0.78801074757464917 0.78801074757464917 0 -0.61566148304635926 forward_v I I I I #
loop $-1 $-1 $449 $122 #
coedge $-1 $309 $309 $310 $450 reversed $193 $-1 #
coedge $-1 $310 $310 $309 $450 forward $195 $-1 #
coedge $-1 $311 $311 $196 $312 forward $306 $-1 #
edge $-1 $451 0 $451 6.2831853071796004 $311 $452 forward 7 unknown #
loop $-1 $-1 $318 $197 #
plane-surface $-1 -30.505741171376101 22.094368783700109 75.934260775779023 0.61566148304635926 0 0.78801074757464917 0.78801074757464917 0 -0.61566148304635926 forward_v I I I I #
loop $-1 $-1 $453 $125 #
coedge $-1 $316 $316 $317 $454 reversed $198 $-1 #
coedge $-1 $317 $317 $316 $454 forward $200 $-1 #
coedge $-1 $318 $318 $201 $319 forward $313 $-1 #
edge $-1 $455 0 $455 6.2831853071796004 $318 $456 forward 7 unknown #
face $-1 $457 $458 $48 $-1 $459 reversed single #
loop $-1 $-1 $460 $202 #
plane-surface $-1 -52.959379863887449 0 0 1 0 0 0 0 -1 forward_v I I I I #
coedge $-1 $461 $331 $462 $463 forward $203 $-1 #
coedge $-1 $464 $205 $461 $465 forward $129 $-1 #
coedge $-1 $205 $464 $466 $467 forward $129 $-1 #
coedge $-1 $334 $333 $205 $327 reversed $335 $-1 #
edge $-1 $468 -30.277048951390224 $469 30.277048951390224 $326 $470 forward 7 unknown #
coedge $-1 $207 $206 $471 $472 forward $81 $-1 #
coedge $-1 $473 $474 $206 $330 reversed $458 $-1 #
edge $-1 $337 -52.959379863887449 $475 52.959379863887449 $329 $476 forward 7 unknown #
coedge $-1 $323 $477 $207 $332 reversed $203 $-1 #
edge $-1 $478 -52.959379863887449 $336 52.959379863887449 $331 $479 forward 7 unknown #
coedge $-1 $326 $208 $477 $480 forward $335 $-1 #
coedge $-1 $208 $326 $473 $481 reversed $335 $-1 #
loop $-1 $-1 $333 $457 #
vertex $-1 $209 $482 #
vertex $-1 $209 $483 #
straight-curve $-1 52.959379863887449 0 15.114685007237645 0 1 0 I I #
face $-1 $484 $485 $49 $-1 $486 reversed single #
loop $-1 $-1 $351 $210 #
plane-surface $-1 0 -39.550542690748578 -8.0531698577946624 0 0 1 1 0 0 forward_v I I I I #
coedge $-1 $487 $488 $214 $347 forward $211 $-1 #
coedge $-1 $489 $213 $488 $490 forward $133 $-1 #
coedge $-1 $213 $489 $491 $492 forward $133 $-1 #
coedge $-1 $215 $214 $213 $346 reversed $84 $-1 #
edge $-1 $493 -52.959379863887449 $494 52.959379863887449 $213 $495 forward 7 unknown #
edge $-1 $494 -15.114685007237645 $353 -8.0531698577946624 $342 $496 forward 7 unknown #
coedge $-1 $491 $497 $215 $349 forward $498 $-1 #
edge $-1 $352 8.0531698577946624 $493 15.114685007237645 $348 $499 forward 7 unknown #
coedge $-1 $500 $216 $497 $501 forward $340 $-1 #
coedge $-1 $216 $500 $487 $502 forward $340 $-1 #
vertex $-1 $349 $503 #
vertex $-1 $502 $504 #
straight-curve $-1 0 -30.277048951390224 -8.0531698577946624 1 0 0 I I #
face $-1 $-1 $505 $50 $-1 $506 reversed single #
loop $-1 $-1 $224 $218 #
plane-surface $-1 0 0 15.114685007237645 0 0 1 1 0 0 forward_v I I I I #
coedge $-1 $507 $508 $509 $510 reversed $219 $-1 #
coedge $-1 $511 $221 $223 $365 forward $137 $-1 #
coedge $-1 $221 $511 $507 $512 forward $137 $-1 #
coedge $-1 $509 $224 $221 $362 forward $356 $-1 #
edge $-1 $368 -3.3323398519820415 $513 3.3356383797892377 $361 $514 forward 7 unknown #
coedge $-1 $515 $516 $222 $364 forward $505 $-1 #
edge $-1 $517 -37.492217944084352 $367 -23.584675688658905 $363 $518 forward 7 unknown #
edge $-1 $368 -20.020693168719738 $517 1.9785632286268914e-014 $223 $519 forward 7 unknown #
coedge $-1 $224 $509 $515 $520 forward $356 $-1 #
vertex $-1 $364 $521 #
vertex $-1 $225 $522 #
straight-curve $-1 -63.268366880896764 -3.3306905880784434 15.114685007237647 1 0 0 I I #
coedge $-1 $370 $370 $-1 $523 reversed $228 $-1 #
edge $-1 $524 0 $524 6.2831853071796004 $229 $525 forward 7 unknown #
vertex $-1 $232 $526 #
ellipse-curve $-1 -45.758539229461881 -1.997094941724189 8.160913879524923 -0.69465837861970381 0 0.71933979245794832 0.35966989622897416 0 0.3473291893098519 1 I I #
coedge $-1 $374 $374 $-1 $527 reversed $235 $-1 #
edge $-1 $528 0 $528 6.2831853071796004 $236 $529 forward 7 unknown #
vertex $-1 $239 $530 #
ellipse-curve $-1 -45.758539229461881 0.0032985278071926416 8.160913879524923 -0.69465837861970381 0 0.71933979245794832 0.35966989622897416 0 0.3473291893098519 1 I I #
coedge $-1 $378 $378 $-1 $531 reversed $242 $-1 #
edge $-1 $532 0 $532 6.2831853071796004 $243 $533 forward 7 unknown #
vertex $-1 $246 $534 #
ellipse-curve $-1 -45.758539229461881 2.0036919973385743 8.160913879524923 -0.69465837861970381 0 0.71933979245794832 0.35966989622897416 0 0.3473291893098519 1 I I #
face $-1 $-1 $535 $54 $-1 $536 reversed single #
loop $-1 $-1 $253 $247 #
plane-surface $-1 0 0 15.114685007237645 0 0 1 1 0 0 forward_v I I I I #
coedge $-1 $537 $538 $539 $540 reversed $248 $-1 #
coedge $-1 $541 $250 $252 $392 forward $156 $-1 #
coedge $-1 $250 $541 $537 $542 forward $156 $-1 #
coedge $-1 $539 $253 $250 $389 forward $383 $-1 #
edge $-1 $395 5.9378553595691113 $543 12.60583359134039 $388 $544 forward 7 unknown #
coedge $-1 $545 $546 $251 $391 forward $535 $-1 #
edge $-1 $547 -37.492217944084352 $394 -23.584675688658905 $390 $548 forward 7 unknown #
edge $-1 $395 -20.020693168719738 $547 1.9785632286268914e-014 $252 $549 forward 7 unknown #
coedge $-1 $253 $539 $545 $550 forward $383 $-1 #
vertex $-1 $254 $551 #
vertex $-1 $254 $552 #
straight-curve $-1 -63.268366880896764 15.209699835023862 15.114685007237647 1 0 0 I I #
coedge $-1 $397 $397 $-1 $553 reversed $257 $-1 #
edge $-1 $554 0 $554 6.2831853071796004 $258 $555 forward 7 unknown #
vertex $-1 $261 $556 #
ellipse-curve $-1 -45.758539229461881 16.54329548137812 8.160913879524923 -0.69465837861970381 0 0.71933979245794832 0.35966989622897416 0 0.3473291893098519 1 I I #
coedge $-1 $401 $401 $-1 $557 reversed $264 $-1 #
edge $-1 $558 0 $558 6.2831853071796004 $265 $559 forward 7 unknown #
vertex $-1 $268 $560 #
ellipse-curve $-1 -45.758539229461881 18.543688950909502 8.160913879524923 -0.69465837861970381 0 0.71933979245794832 0.35966989622897416 0 0.3473291893098519 1 I I #
coedge $-1 $405 $405 $-1 $561 reversed $271 $-1 #
edge $-1 $562 0 $562 6.2831853071796004 $272 $563 forward 7 unknown #
vertex $-1 $275 $564 #
ellipse-curve $-1 -45.758539229461881 20.544082420440883 8.160913879524923 -0.69465837861970381 0 0.71933979245794832 0.35966989622897416 0 0.3473291893098519 1 I I #
face $-1 $-1 $421 $58 $-1 $565 forward single #
loop $-1 $-1 $566 $276 #
plane-surface $-1 52.959379863887449 0 0 -1 0 0 0 0 1 forward_v I I I I #
coedge $-1 $567 $568 $569 $570 reversed $277 $-1 #
coedge $-1 $571 $279 $281 $419 forward $175 $-1 #
coedge $-1 $279 $571 $567 $572 forward $175 $-1 #
coedge $-1 $569 $282 $279 $416 forward $421 $-1 #
edge $-1 $423 -3.0829645972320794 $573 6.6303459022154936 $415 $574 forward 7 unknown #
coedge $-1 $575 $576 $280 $418 forward $410 $-1 #
edge $-1 $577 -68.975530826175145 $422 -64.58500589828364 $417 $578 forward 7 unknown #
edge $-1 $423 98.7873652053066 $577 105.9187597277749 $281 $579 forward 7 unknown #
coedge $-1 $282 $569 $575 $580 forward $421 $-1 #
loop $-1 $-1 $569 $409 #
vertex $-1 $418 $581 #
vertex $-1 $283 $582 #
straight-curve $-1 17.352179762528394 1.3092739447403723 15.11468500723764 -1 0 0 I I #
coedge $-1 $425 $425 $-1 $583 reversed $286 $-1 #
edge $-1 $584 0 $584 6.2831853071796004 $287 $585 forward 7 unknown #
vertex $-1 $290 $586 #
ellipse-curve $-1 50.149572099437449 -5.6288049834364635 12.919422543291887 0.61566148304635926 0 0.78801074757464917 0.78801074757464917 0 -0.61566148304635926 1 I I #
coedge $-1 $429 $429 $-1 $587 reversed $293 $-1 #
edge $-1 $588 0 $588 6.2831853071796004 $294 $589 forward 7 unknown #
vertex $-1 $297 $590 #
ellipse-curve $-1 50.149572099437449 -1.4659576265303578 12.919422543291887 0.61566148304635926 0 0.78801074757464917 0.78801074757464917 0 -0.61566148304635926 1 I I #
face $-1 $-1 $445 $61 $-1 $591 forward single #
loop $-1 $-1 $592 $298 #
plane-surface $-1 52.959379863887449 0 0 -1 0 0 0 0 1 forward_v I I I I #
coedge $-1 $593 $594 $595 $596 reversed $299 $-1 #
coedge $-1 $597 $301 $303 $443 forward $189 $-1 #
coedge $-1 $301 $597 $593 $598 forward $189 $-1 #
coedge $-1 $595 $304 $301 $440 forward $445 $-1 #
edge $-1 $447 -15.903839641573841 $599 -6.1905291421262678 $439 $600 forward 7 unknown #
coedge $-1 $601 $602 $302 $442 forward $434 $-1 #
edge $-1 $603 -68.975530826175145 $446 -64.58500589828364 $441 $604 forward 7 unknown #
edge $-1 $447 98.7873652053066 $603 105.9187597277749 $303 $605 forward 7 unknown #
coedge $-1 $304 $595 $601 $606 forward $445 $-1 #
loop $-1 $-1 $595 $433 #
vertex $-1 $442 $607 #
vertex $-1 $305 $608 #
straight-curve $-1 17.352179762528394 26.951024033423895 15.11468500723764 -1 0 0 I I #
coedge $-1 $449 $449 $-1 $609 reversed $308 $-1 #
edge $-1 $610 0 $610 6.2831853071796004 $309 $611 forward 7 unknown #
vertex $-1 $312 $612 #
ellipse-curve $-1 50.149572099437449 20.012945105247059 12.919422543291887 0.61566148304635926 0 0.78801074757464917 0.78801074757464917 0 -0.61566148304635926 1 I I #
coedge $-1 $453 $453 $-1 $613 reversed $315 $-1 #
edge $-1 $614 0 $614 6.2831853071796004 $316 $615 forward 7 unknown #
vertex $-1 $319 $616 #
ellipse-curve $-1 50.149572099437449 24.175792462153172 12.919422543291887 0.61566148304635926 0 0.78801074757464917 0.78801074757464917 0 -0.61566148304635926 1 I I #
face $-1 $-1 $335 $48 $-1 $617 reversed single #
loop $-1 $-1 $473 $320 #
plane-surface $-1 0 30.277048951390224 0 0 -1 0 0 0 -1 forward_v I I I I #
coedge $-1 $618 $471 $474 $619 forward $321 $-1 #
coedge $-1 $477 $323 $324 $465 reversed $203 $-1 #
coedge $-1 $471 $618 $323 $463 reversed $321 $-1 #
edge $-1 $478 -15.114685007237645 $620 15.114685007237645 $462 $621 forward 7 unknown #
coedge $-1 $325 $324 $618 $622 forward $129 $-1 #
edge $-1 $469 -52.959379863887449 $620 52.959379863887449 $461 $623 forward 7 unknown #
coedge $-1 $474 $473 $325 $467 reversed $458 $-1 #
edge $-1 $624 -52.959379863887449 $468 52.959379863887449 $466 $625 forward 7 unknown #
vertex $-1 $327 $626 #
vertex $-1 $480 $627 #
straight-curve $-1 52.959379863887449 0 -15.114685007237645 0 -1 0 I I #
coedge $-1 $460 $462 $328 $472 reversed $321 $-1 #
edge $-1 $475 -30.277048951390224 $478 30.277048951390224 $471 $628 forward 7 unknown #
coedge $-1 $466 $329 $334 $481 forward $458 $-1 #
coedge $-1 $329 $466 $460 $619 reversed $458 $-1 #
vertex $-1 $330 $629 #
straight-curve $-1 0 30.277048951390224 15.114685007237645 -1 0 0 I I #
coedge $-1 $331 $461 $333 $480 reversed $203 $-1 #
vertex $-1 $472 $630 #
straight-curve $-1 0 -30.277048951390224 15.114685007237645 1 0 0 I I #
edge $-1 $336 -15.114685007237645 $469 15.114685007237645 $333 $631 forward 7 unknown #
edge $-1 $337 -15.114685007237645 $468 15.114685007237645 $334 $632 forward 7 unknown #
point $-1 52.959379863887449 -30.277048951390224 15.114685007237645 #
point $-1 52.959379863887449 30.277048951390224 15.114685007237645 #
face $-1 $-1 $498 $49 $-1 $633 reversed single #
loop $-1 $-1 $634 $339 #
plane-surface $-1 0 -48.824036430106929 -11.583927432516154 0 1 0 0 0 1 forward_v I I I I #
coedge $-1 $635 $342 $351 $502 reversed $211 $-1 #
coedge $-1 $342 $635 $343 $490 reversed $211 $-1 #
coedge $-1 $344 $343 $636 $637 forward $133 $-1 #
edge $-1 $494 30.277048951390224 $638 48.824036430106929 $488 $639 forward 7 unknown #
coedge $-1 $640 $348 $344 $492 reversed $498 $-1 #
edge $-1 $641 -48.824036430106929 $493 -30.277048951390224 $491 $642 forward 7 unknown #
vertex $-1 $349 $643 #
vertex $-1 $490 $644 #
straight-curve $-1 0 -30.277048951390224 -15.114685007237645 1 0 0 I I #
straight-curve $-1 52.959379863887449 -30.277048951390224 0 0 0 1 I I #
coedge $-1 $348 $640 $350 $501 reversed $498 $-1 #
loop $-1 $-1 $348 $484 #
straight-curve $-1 -52.959379863887449 -30.277048951390224 0 0 0 -1 I I #
coedge $-1 $351 $350 $645 $646 forward $340 $-1 #
edge $-1 $352 -9.2734937393583508 $647 9.2734937393583508 $497 $648 forward 7 unknown #
edge $-1 $649 -9.2734937393583508 $353 9.2734937393583508 $487 $650 forward 7 unknown #
point $-1 -52.959379863887449 -30.277048951390228 -8.0531698577946624 #
point $-1 52.959379863887449 -30.277048951390228 -8.0531698577946624 #
loop $-1 $-1 $363 $355 #
plane-surface $-1 -52.959379863887449 0 0 1 0 0 0 0 -1 forward_v I I I I #
coedge $-1 $508 $358 $360 $512 reversed $219 $-1 #
coedge $-1 $358 $507 $651 $652 reversed $219 $-1 #
coedge $-1 $366 $361 $358 $510 forward $356 $-1 #
edge $-1 $513 -24.71066828586045 $653 -10.308987017009315 $509 $654 forward 7 unknown #
coedge $-1 $360 $359 $516 $655 reversed $137 $-1 #
edge $-1 $656 -1.9785632286268914e-014 $513 20.020693168719738 $507 $657 forward 7 unknown #
vertex $-1 $362 $658 #
straight-curve $-1 -38.557698595036314 0.0016492639035980972 15.114685007237645 0 1 0 I I #
coedge $-1 $651 $363 $366 $520 reversed $505 $-1 #
coedge $-1 $363 $651 $511 $655 forward $505 $-1 #
vertex $-1 $364 $659 #
straight-curve $-1 -52.959379863887449 -3.3306905880784434 38.699360695896551 0 0 1 I I #
straight-curve $-1 -52.959379863887435 -3.3306905880784434 1.2071427518122135 -0.71933979245794832 0 -0.69465837861970381 I I #
edge $-1 $653 -3.3372876436928358 $367 3.3306905880784434 $515 $660 forward 7 unknown #
point $-1 -52.959379863887449 -3.3306905880784434 15.114685007237645 #
point $-1 -38.557698595036314 -3.3306905880784434 15.114685007237645 #
edge $-1 $661 1 $661 0 $370 $-1 forward 7 unknown #
vertex $-1 $371 $662 #
ellipse-curve $-1 -44.623494532318453 -1.997094941724189 6.9855407148104751 -0.69465837861970381 0 0.71933979245794832 0.35966989622897416 0 0.3473291893098519 1 I I #
point $-1 -45.398869333232916 -1.997094941724189 8.5082430688347817 #
edge $-1 $663 1 $663 0 $374 $-1 forward 7 unknown #
vertex $-1 $375 $664 #
ellipse-curve $-1 -44.623494532318453 0.0032985278071926416 6.9855407148104751 -0.69465837861970381 0 0.71933979245794832 0.35966989622897416 0 0.3473291893098519 1 I I #
point $-1 -45.398869333232916 0.0032985278071926416 8.5082430688347817 #
edge $-1 $665 1 $665 0 $378 $-1 forward 7 unknown #
vertex $-1 $379 $666 #
ellipse-curve $-1 -44.623494532318453 2.0036919973385743 6.9855407148104751 -0.69465837861970381 0 0.71933979245794832 0.35966989622897416 0 0.3473291893098519 1 I I #
point $-1 -45.398869333232916 2.0036919973385743 8.5082430688347817 #
loop $-1 $-1 $390 $382 #
plane-surface $-1 -52.959379863887449 0 0 1 0 0 0 0 -1 forward_v I I I I #
coedge $-1 $538 $385 $387 $542 reversed $248 $-1 #
coedge $-1 $385 $537 $667 $668 reversed $248 $-1 #
coedge $-1 $393 $388 $385 $540 forward $383 $-1 #
edge $-1 $543 -24.71066828586045 $669 -10.308987017009315 $539 $670 forward 7 unknown #
coedge $-1 $387 $386 $546 $671 reversed $156 $-1 #
edge $-1 $672 -1.9785632286268914e-014 $543 20.020693168719738 $537 $673 forward 7 unknown #
vertex $-1 $389 $674 #
straight-curve $-1 -38.557698595036314 9.2718444754547509 15.114685007237645 0 1 0 I I #
coedge $-1 $667 $390 $393 $550 reversed $535 $-1 #
coedge $-1 $390 $667 $541 $671 forward $535 $-1 #
vertex $-1 $391 $675 #
straight-curve $-1 -52.959379863887449 15.209699835023862 38.699360695896551 0 0 1 I I #
straight-curve $-1 -52.959379863887435 15.209699835023862 1.2071427518122135 -0.71933979245794832 0 -0.69465837861970381 I I #
edge $-1 $669 -21.877678066795141 $394 -15.209699835023862 $545 $676 forward 7 unknown #
point $-1 -52.959379863887449 15.209699835023862 15.114685007237645 #
point $-1 -38.557698595036314 15.209699835023862 15.114685007237645 #
edge $-1 $677 1 $677 0 $397 $-1 forward 7 unknown #
vertex $-1 $398 $678 #
ellipse-curve $-1 -44.623494532318453 16.54329548137812 6.9855407148104751 -0.69465837861970381 0 0.71933979245794832 0.35966989622897416 0 0.3473291893098519 1 I I #
point $-1 -45.398869333232916 16.54329548137812 8.5082430688347817 #
edge $-1 $679 1 $679 0 $401 $-1 forward 7 unknown #
vertex $-1 $402 $680 #
ellipse-curve $-1 -44.623494532318453 18.543688950909502 6.9855407148104751 -0.69465837861970381 0 0.71933979245794832 0.35966989622897416 0 0.3473291893098519 1 I I #
point $-1 -45.398869333232916 18.543688950909502 8.5082430688347817 #
edge $-1 $681 1 $681 0 $405 $-1 forward 7 unknown #
vertex $-1 $406 $682 #
ellipse-curve $-1 -44.623494532318453 20.544082420440883 6.9855407148104751 -0.69465837861970381 0 0.71933979245794832 0.35966989622897416 0 0.3473291893098519 1 I I #
point $-1 -45.398869333232916 20.544082420440883 8.5082430688347817 #
plane-surface $-1 0 0 15.114685007237645 0 0 1 1 0 0 forward_v I I I I #
coedge $-1 $576 $575 $568 $683 forward $410 $-1 #
coedge $-1 $568 $412 $414 $572 reversed $277 $-1 #
coedge $-1 $412 $567 $566 $683 reversed $277 $-1 #
coedge $-1 $420 $415 $412 $570 forward $421 $-1 #
edge $-1 $573 29.987584572459056 $684 35.607200101359055 $569 $685 forward 7 unknown #
coedge $-1 $414 $413 $576 $686 reversed $175 $-1 #
edge $-1 $687 -105.9187597277749 $573 -98.7873652053066 $567 $688 forward 7 unknown #
vertex $-1 $416 $689 #
straight-curve $-1 47.339764334987457 -1.7736906524917071 15.114685007237647 0 -1 0 I I #
coedge $-1 $566 $417 $420 $580 reversed $410 $-1 #
coedge $-1 $417 $566 $571 $686 forward $410 $-1 #
vertex $-1 $418 $690 #
straight-curve $-1 52.959379863887449 1.3092739447403723 79.69969090552128 0 0 1 I I #
straight-curve $-1 -30.505741171376101 1.3092739447403723 75.934260775779023 0.78801074757464917 0 -0.61566148304635926 I I #
edge $-1 $684 -8.4040365547072007 $422 1.3092739447403723 $575 $691 forward 7 unknown #
point $-1 52.959379863887449 1.3092739447403723 15.114685007237645 #
point $-1 47.33976433498745 1.3092739447403723 15.114685007237647 #
edge $-1 $692 1 $692 0 $425 $-1 forward 7 unknown #
vertex $-1 $426 $693 #
ellipse-curve $-1 48.908065456968771 -5.6288049834364635 11.330366537043457 0.61566148304635926 0 0.78801074757464917 0.78801074757464917 0 -0.61566148304635926 1 I I #
point $-1 50.937582847012102 -5.6288049834364635 12.303761060245535 #
edge $-1 $694 1 $694 0 $429 $-1 forward 7 unknown #
vertex $-1 $430 $695 #
ellipse-curve $-1 48.908065456968771 -1.4659576265303578 11.330366537043457 0.61566148304635926 0 0.78801074757464917 0.78801074757464917 0 -0.61566148304635926 1 I I #
point $-1 50.937582847012102 -1.4659576265303578 12.303761060245535 #
plane-surface $-1 0 0 15.114685007237645 0 0 1 1 0 0 forward_v I I I I #
coedge $-1 $602 $601 $594 $696 forward $434 $-1 #
coedge $-1 $594 $436 $438 $598 reversed $299 $-1 #
coedge $-1 $436 $593 $592 $696 reversed $299 $-1 #
coedge $-1 $444 $439 $436 $596 forward $445 $-1 #
edge $-1 $599 29.987584572459056 $697 35.607200101359055 $595 $698 forward 7 unknown #
coedge $-1 $438 $437 $602 $699 reversed $189 $-1 #
edge $-1 $700 -105.9187597277749 $599 -98.7873652053066 $593 $701 forward 7 unknown #
vertex $-1 $440 $702 #
straight-curve $-1 47.339764334987457 11.047184391850054 15.114685007237647 0 -1 0 I I #
coedge $-1 $592 $441 $444 $606 reversed $434 $-1 #
coedge $-1 $441 $592 $597 $699 forward $434 $-1 #
vertex $-1 $442 $703 #
straight-curve $-1 52.959379863887449 26.951024033423895 79.69969090552128 0 0 1 I I #
straight-curve $-1 -30.505741171376101 26.951024033423895 75.934260775779023 0.78801074757464917 0 -0.61566148304635926 I I #
edge $-1 $697 17.237713533976322 $446 26.951024033423895 $601 $704 forward 7 unknown #
point $-1 52.959379863887449 26.951024033423895 15.114685007237645 #
point $-1 47.33976433498745 26.951024033423895 15.114685007237647 #
edge $-1 $705 1 $705 0 $449 $-1 forward 7 unknown #
vertex $-1 $450 $706 #
ellipse-curve $-1 48.908065456968771 20.012945105247059 11.330366537043457 0.61566148304635926 0 0.78801074757464917 0.78801074757464917 0 -0.61566148304635926 1 I I #
point $-1 50.937582847012102 20.012945105247059 12.303761060245535 #
edge $-1 $707 1 $707 0 $453 $-1 forward 7 unknown #
vertex $-1 $454 $708 #
ellipse-curve $-1 48.908065456968771 24.175792462153172 11.330366537043457 0.61566148304635926 0 0.78801074757464917 0.78801074757464917 0 -0.61566148304635926 1 I I #
point $-1 50.937582847012102 24.175792462153172 12.303761060245535 #
plane-surface $-1 52.959379863887449 0 0 -1 0 0 0 0 1 forward_v I I I I #
coedge $-1 $462 $460 $464 $622 reversed $321 $-1 #
edge $-1 $475 -15.114685007237645 $624 15.114685007237645 $474 $709 forward 7 unknown #
vertex $-1 $622 $710 #
straight-curve $-1 -52.959379863887449 -30.277048951390224 0 0 0 -1 I I #
edge $-1 $620 -30.277048951390224 $624 30.277048951390224 $618 $711 forward 7 unknown #
straight-curve $-1 0 -30.277048951390224 -15.114685007237645 -1 0 0 I I #
vertex $-1 $467 $712 #
straight-curve $-1 0 30.277048951390224 -15.114685007237645 1 0 0 I I #
point $-1 52.959379863887449 30.277048951390224 -15.114685007237645 #
point $-1 52.959379863887449 -30.277048951390224 -15.114685007237645 #
straight-curve $-1 -52.959379863887449 0 15.114685007237645 0 -1 0 I I #
point $-1 -52.959379863887449 30.277048951390224 15.114685007237645 #
point $-1 -52.959379863887449 -30.277048951390224 15.114685007237645 #
straight-curve $-1 52.959379863887449 -30.277048951390224 0 0 0 -1 I I #
straight-curve $-1 52.959379863887449 30.277048951390224 0 0 0 -1 I I #
plane-surface $-1 -52.959379863887449 0 0 1 0 0 0 0 -1 forward_v I I I I #
coedge $-1 $636 $645 $640 $713 forward $485 $-1 #
coedge $-1 $488 $487 $714 $715 forward $211 $-1 #
coedge $-1 $714 $634 $489 $637 reversed $485 $-1 #
edge $-1 $638 -52.959379863887449 $641 52.959379863887449 $636 $716 forward 7 unknown #
vertex $-1 $715 $717 #
straight-curve $-1 52.959379863887449 0 -15.114685007237645 0 -1 0 I I #
coedge $-1 $497 $491 $634 $713 reversed $498 $-1 #
vertex $-1 $492 $718 #
straight-curve $-1 -52.959379863887449 0 -15.114685007237645 0 1 0 I I #
point $-1 -52.959379863887449 -30.277048951390224 -15.114685007237645 #
point $-1 52.959379863887449 -30.277048951390224 -15.114685007237645 #
coedge $-1 $634 $714 $500 $646 reversed $485 $-1 #
edge $-1 $647 -52.959379863887449 $649 52.959379863887449 $645 $719 forward 7 unknown #
vertex $-1 $501 $720 #
straight-curve $-1 -52.959379863887449 -39.550542690748578 -8.0531698577946624 0 -1 0 I I #
vertex $-1 $502 $721 #
straight-curve $-1 52.959379863887449 -39.550542690748578 -8.0531698577946624 0 1 0 I I #
coedge $-1 $516 $515 $508 $652 forward $505 $-1 #
edge $-1 $653 23.584675688658905 $656 37.492217944084352 $651 $722 forward 7 unknown #
vertex $-1 $520 $723 #
straight-curve $-1 -63.268366880896764 3.3372876436928358 15.114685007237647 -1 0 0 I I #
edge $-1 $656 -3.3356383797892377 $517 3.3323398519820415 $516 $724 forward 7 unknown #
vertex $-1 $655 $725 #
straight-curve $-1 -52.959379863887435 3.3372876436928358 1.2071427518122135 0.71933979245794832 0 0.69465837861970381 I I #
point $-1 -38.557698595036314 3.3372876436928358 15.114685007237645 #
point $-1 -52.959379863887449 -3.3306905880784434 1.2071427518121998 #
straight-curve $-1 -52.959379863887449 0 15.114685007237645 0 -1 0 I I #
vertex $-1 $523 $726 #
point $-1 -44.263824636089481 -1.997094941724189 7.3328699041203276 #
vertex $-1 $527 $727 #
point $-1 -44.263824636089481 0.0032985278071926416 7.3328699041203276 #
vertex $-1 $531 $728 #
point $-1 -44.263824636089481 2.0036919973385743 7.3328699041203276 #
coedge $-1 $546 $545 $538 $668 forward $535 $-1 #
edge $-1 $669 23.584675688658905 $672 37.492217944084352 $667 $729 forward 7 unknown #
vertex $-1 $550 $730 #
straight-curve $-1 -63.268366880896764 21.877678066795141 15.114685007237647 -1 0 0 I I #
edge $-1 $672 -12.60583359134039 $547 -5.9378553595691113 $546 $731 forward 7 unknown #
vertex $-1 $671 $732 #
straight-curve $-1 -52.959379863887435 21.877678066795141 1.2071427518122135 0.71933979245794832 0 0.69465837861970381 I I #
point $-1 -38.557698595036314 21.877678066795141 15.114685007237645 #
point $-1 -52.959379863887449 15.209699835023862 1.2071427518121998 #
straight-curve $-1 -52.959379863887449 0 15.114685007237645 0 -1 0 I I #
vertex $-1 $553 $733 #
point $-1 -44.263824636089481 16.54329548137812 7.3328699041203276 #
vertex $-1 $557 $734 #
point $-1 -44.263824636089481 18.543688950909502 7.3328699041203276 #
vertex $-1 $561 $735 #
point $-1 -44.263824636089481 20.544082420440883 7.3328699041203276 #
edge $-1 $684 64.58500589828364 $687 68.975530826175145 $566 $736 forward 7 unknown #
vertex $-1 $580 $737 #
straight-curve $-1 17.352179762528394 -8.4040365547072007 15.11468500723764 1 0 0 I I #
edge $-1 $687 -6.6303459022154936 $577 3.0829645972320794 $576 $738 forward 7 unknown #
vertex $-1 $686 $739 #
straight-curve $-1 -30.505741171376101 -8.4040365547072007 75.934260775779023 -0.78801074757464917 0 0.61566148304635926 I I #
point $-1 47.33976433498745 -8.4040365547072007 15.114685007237647 #
point $-1 52.959379863887449 1.3092739447403723 10.724160079346134 #
straight-curve $-1 52.959379863887449 0 15.114685007237645 0 1 0 I I #
vertex $-1 $583 $740 #
point $-1 49.696076204543424 -5.6288049834364635 10.714705053997097 #
vertex $-1 $587 $741 #
point $-1 49.696076204543424 -1.4659576265303578 10.714705053997097 #
edge $-1 $697 64.58500589828364 $700 68.975530826175145 $592 $742 forward 7 unknown #
vertex $-1 $606 $743 #
straight-curve $-1 17.352179762528394 17.237713533976322 15.11468500723764 1 0 0 I I #
edge $-1 $700 6.1905291421262678 $603 15.903839641573841 $602 $744 forward 7 unknown #
vertex $-1 $699 $745 #
straight-curve $-1 -30.505741171376101 17.237713533976322 75.934260775779023 -0.78801074757464917 0 0.61566148304635926 I I #
point $-1 47.33976433498745 17.237713533976322 15.114685007237647 #
point $-1 52.959379863887449 26.951024033423895 10.724160079346134 #
straight-curve $-1 52.959379863887449 0 15.114685007237645 0 1 0 I I #
vertex $-1 $609 $746 #
point $-1 49.696076204543424 20.012945105247059 10.714705053997097 #
vertex $-1 $613 $747 #
point $-1 49.696076204543424 24.175792462153172 10.714705053997097 #
straight-curve $-1 -52.959379863887449 30.277048951390224 0 0 0 -1 I I #
point $-1 -52.959379863887449 -30.277048951390224 -15.114685007237645 #
straight-curve $-1 -52.959379863887449 0 -15.114685007237645 0 1 0 I I #
point $-1 -52.959379863887449 30.277048951390224 -15.114685007237645 #
edge $-1 $647 -3.5307575747214912 $641 3.5307575747214912 $640 $748 forward 7 unknown #
coedge $-1 $645 $636 $635 $715 reversed $485 $-1 #
edge $-1 $649 -3.5307575747214912 $638 3.5307575747214912 $635 $749 forward 7 unknown #
straight-curve $-1 0 -48.824036430106929 -15.114685007237645 -1 0 0 I I #
point $-1 52.959379863887449 -48.824036430106929 -15.114685007237645 #
point $-1 -52.959379863887449 -48.824036430106929 -15.114685007237645 #
straight-curve $-1 0 -48.824036430106929 -8.0531698577946624 1 0 0 I I #
point $-1 -52.959379863887449 -48.824036430106929 -8.0531698577946624 #
point $-1 52.959379863887449 -48.824036430106929 -8.0531698577946624 #
straight-curve $-1 -52.959379863887449 3.3372876436928358 38.699360695896551 0 0 -1 I I #
point $-1 -52.959379863887449 3.3372876436928358 15.114685007237645 #
straight-curve $-1 -52.959379863887449 0.0016492639035980972 1.2071427518122002 0 -1 0 I I #
point $-1 -52.959379863887449 3.3372876436928358 1.2071427518121998 #
point $-1 -44.276165343008607 -1.997094941724189 6.6258708185815012 #
point $-1 -44.276165343008607 0.0032985278071926416 6.6258708185815012 #
point $-1 -44.276165343008607 2.0036919973385743 6.6258708185815012 #
straight-curve $-1 -52.959379863887449 21.877678066795141 38.699360695896551 0 0 -1 I I #
point $-1 -52.959379863887449 21.877678066795141 15.114685007237645 #
straight-curve $-1 -52.959379863887449 9.2718444754547509 1.2071427518122002 0 -1 0 I I #
point $-1 -52.959379863887449 21.877678066795141 1.2071427518121998 #
point $-1 -44.276165343008607 16.54329548137812 6.6258708185815012 #
point $-1 -44.276165343008607 18.543688950909502 6.6258708185815012 #
point $-1 -44.276165343008607 20.544082420440883 6.6258708185815012 #
straight-curve $-1 52.959379863887449 -8.4040365547072007 79.69969090552128 0 0 -1 I I #
point $-1 52.959379863887449 -8.4040365547072007 15.114685007237645 #
straight-curve $-1 52.959379863887449 -1.7736906524917071 10.724160079346124 0 1 0 I I #
point $-1 52.959379863887449 -8.4040365547072007 10.724160079346134 #
point $-1 48.292403973922418 -5.6288049834364635 10.542355789468807 #
point $-1 48.292403973922418 -1.4659576265303578 10.542355789468807 #
straight-curve $-1 52.959379863887449 17.237713533976322 79.69969090552128 0 0 -1 I I #
point $-1 52.959379863887449 17.237713533976322 15.114685007237645 #
straight-curve $-1 52.959379863887449 11.047184391850054 10.724160079346124 0 1 0 I I #
point $-1 52.959379863887449 17.237713533976322 10.724160079346134 #
point $-1 48.292403973922418 20.012945105247059 10.542355789468807 #
point $-1 48.292403973922418 24.175792462153172 10.542355789468807 #
straight-curve $-1 -52.959379863887449 -48.824036430106929 -11.583927432516154 0 0 -1 I I #
straight-curve $-1 52.959379863887449 -48.824036430106929 -11.583927432516154 0 0 -1 I I #
End-of-ACIS-data 