500 0 4 0           
7 Unknown 11 ACIS 5.0 NT 24 Thu Mar 25 22:14:32 1999 
-1 9.9999999999999995e-007 1e-010 
body $-1 $4 $-1 $5 #
body $-1 $6 $-1 $7 #
body $-1 $8 $-1 $9 #
body $-1 $10 $-1 $11 #
lump $-1 $-1 $12 $0 #
transform $-1 1 0 0 0 1 0 0 0 1 54.488967558824427 38.044996349919394 12.57852314697262 1 rotate no_reflect no_shear #
lump $-1 $-1 $13 $1 #
transform $-1 1 0 0 0 1 0 0 0 1 54.488967558824427 38.044996349919394 12.57852314697262 1 rotate no_reflect no_shear #
lump $-1 $-1 $14 $2 #
transform $-1 1 0 0 0 1 0 0 0 1 54.488967558824427 38.044996349919394 12.57852314697262 1 rotate no_reflect no_shear #
lump $-1 $-1 $15 $3 #
transform $-1 1 0 0 0 1 0 0 0 1 54.488967558824427 38.044996349919394 12.57852314697262 1 rotate no_reflect no_shear #
shell $-1 $-1 $-1 $16 $-1 $4 #
shell $-1 $-1 $-1 $17 $-1 $6 #
shell $-1 $-1 $-1 $18 $-1 $8 #
shell $-1 $-1 $-1 $19 $-1 $10 #
face $-1 $20 $21 $12 $-1 $22 forward single #
face $-1 $23 $24 $13 $-1 $25 forward single #
face $-1 $26 $27 $14 $-1 $28 reversed single #
face $-1 $29 $30 $15 $-1 $31 forward single #
face $-1 $32 $33 $12 $-1 $34 reversed single #
loop $-1 $-1 $35 $16 #
plane-surface $-1 0 0 12.57852314697262 0 0 1 1 0 0 forward_v I I I I #
face $-1 $36 $37 $13 $-1 $38 reversed single #
loop $-1 $-1 $39 $17 #
plane-surface $-1 0 -29.834000393935721 9.9946024558761639 0 0 1 1 0 0 forward_v I I I I #
face $-1 $40 $41 $14 $-1 $42 reversed single #
loop $-1 $-1 $43 $18 #
plane-surface $-1 -128.81174147569857 25.372244692988073 83.461848835726613 0 1 0 -0.68199836817093118 0 0.7313536940579346 forward_v I I I I #
face $-1 $44 $45 $15 $-1 $46 forward single #
loop $-1 $47 $48 $19 #
cone-surface $-1 -48.960189357799081 31.708620521453732 7.310879267456075 0.68199836817093118 0 -0.7313536940579346 0.7313536940579346 0 0.68199836817093118 1 I I 0 1 1 forward I I I I #
face $-1 $49 $50 $12 $-1 $51 reversed single #
loop $-1 $-1 $52 $20 #
plane-surface $-1 0 0 -12.57852314697262 0 0 1 1 0 0 forward_v I I I I #
coedge $-1 $53 $54 $55 $56 forward $21 $-1 #
face $-1 $57 $58 $13 $-1 $59 reversed single #
loop $-1 $-1 $60 $23 #
plane-surface $-1 0 -29.834000393935721 3.4090256256636327 0 0 1 1 0 0 forward_v I I I I #
coedge $-1 $61 $62 $63 $64 reversed $24 $-1 #
face $-1 $65 $66 $14 $-1 $67 forward single #
loop $-1 $-1 $68 $26 #
plane-surface $-1 -54.488967558824427 31.708620521453732 3.760433416628203 -0.68199836817093118 0 0.7313536940579346 0.7313536940579346 0 0.68199836817093118 forward_v I I I I #
coedge $-1 $69 $70 $71 $72 reversed $27 $-1 #
face $-1 $-1 $73 $15 $-1 $74 forward single #
loop $-1 $75 $76 $29 #
cone-surface $-1 -47.818533622097682 31.708620521453732 6.0866034060827783 0.68199836817093118 0 -0.7313536940579346 0.3656768470289673 0 0.34099918408546559 1 I I -0.70710678118654746 0.70710678118654746 0.5 forward I I I I #
loop $-1 $-1 $77 $19 #
coedge $-1 $48 $48 $78 $79 reversed $30 $-1 #
face $-1 $80 $81 $12 $-1 $82 reversed single #
loop $-1 $-1 $83 $32 #
plane-surface $-1 0 -38.044996349919394 0 0 1 0 0 0 1 forward_v I I I I #
coedge $-1 $84 $85 $86 $87 forward $33 $-1 #
coedge $-1 $88 $35 $89 $90 forward $21 $-1 #
coedge $-1 $35 $88 $91 $92 forward $21 $-1 #
coedge $-1 $93 $94 $35 $56 reversed $95 $-1 #
edge $-1 $96 -38.044996349919394 $97 38.044996349919394 $55 $98 forward 7 unknown #
face $-1 $99 $100 $13 $-1 $101 reversed single #
loop $-1 $-1 $102 $36 #
plane-surface $-1 0 -21.623004437952048 6.7018140407698983 0 -1 0 0 0 -1 forward_v I I I I #
coedge $-1 $103 $104 $105 $106 reversed $37 $-1 #
coedge $-1 $107 $39 $108 $109 forward $24 $-1 #
coedge $-1 $39 $107 $110 $111 reversed $24 $-1 #
coedge $-1 $112 $113 $39 $64 forward $114 $-1 #
edge $-1 $115 6.7060042409841873 $116 23.127996152951532 $63 $117 forward 7 unknown #
face $-1 $118 $119 $14 $-1 $120 reversed single #
loop $-1 $-1 $71 $40 #
plane-surface $-1 0 0 12.57852314697262 0 0 1 1 0 0 forward_v I I I I #
coedge $-1 $121 $122 $123 $124 reversed $41 $-1 #
coedge $-1 $70 $43 $125 $126 reversed $27 $-1 #
coedge $-1 $43 $69 $121 $127 reversed $27 $-1 #
coedge $-1 $123 $128 $43 $72 forward $66 $-1 #
edge $-1 $129 9.9169031790248567 $130 19.373146477843662 $71 $131 forward 7 unknown #
loop $-1 $-1 $78 $44 #
plane-surface $-1 -54.488967558824427 31.708620521453732 3.760433416628203 -0.68199836817093118 0 0.7313536940579346 0.7313536940579346 0 0.68199836817093118 forward_v I I I I #
loop $-1 $-1 $132 $29 #
coedge $-1 $76 $76 $77 $133 reversed $45 $-1 #
coedge $-1 $77 $77 $76 $133 forward $47 $-1 #
coedge $-1 $78 $78 $48 $79 forward $73 $-1 #
edge $-1 $134 0 $134 6.2831853071796004 $78 $135 forward 7 unknown #
face $-1 $136 $137 $12 $-1 $138 reversed single #
loop $-1 $-1 $139 $49 #
plane-surface $-1 -54.488967558824427 0 0 1 0 0 0 0 -1 forward_v I I I I #
coedge $-1 $140 $91 $141 $142 forward $50 $-1 #
coedge $-1 $143 $52 $140 $144 forward $33 $-1 #
coedge $-1 $52 $143 $145 $146 forward $33 $-1 #
coedge $-1 $94 $93 $52 $87 reversed $95 $-1 #
edge $-1 $147 -38.044996349919394 $148 38.044996349919394 $86 $149 forward 7 unknown #
coedge $-1 $54 $53 $150 $151 forward $21 $-1 #
coedge $-1 $152 $153 $53 $90 reversed $137 $-1 #
edge $-1 $97 -54.488967558824427 $154 54.488967558824427 $89 $155 forward 7 unknown #
coedge $-1 $83 $156 $54 $92 reversed $50 $-1 #
edge $-1 $157 -54.488967558824427 $96 54.488967558824427 $91 $158 forward 7 unknown #
coedge $-1 $86 $55 $156 $159 forward $95 $-1 #
coedge $-1 $55 $86 $152 $160 reversed $95 $-1 #
loop $-1 $-1 $93 $136 #
vertex $-1 $56 $161 #
vertex $-1 $56 $162 #
straight-curve $-1 54.488967558824427 0 12.57852314697262 0 1 0 I I #
face $-1 $163 $164 $13 $-1 $165 reversed single #
loop $-1 $-1 $166 $57 #
plane-surface $-1 -54.488967558824427 0 0 1 0 0 0 0 -1 forward_v I I I I #
coedge $-1 $167 $108 $113 $168 reversed $58 $-1 #
coedge $-1 $169 $60 $170 $171 reversed $37 $-1 #
coedge $-1 $60 $169 $167 $172 forward $37 $-1 #
coedge $-1 $113 $112 $60 $106 forward $114 $-1 #
edge $-1 $173 -23.127996152951532 $174 -6.7060042409841873 $105 $175 forward 7 unknown #
coedge $-1 $62 $61 $166 $176 reversed $24 $-1 #
coedge $-1 $102 $177 $61 $109 reversed $58 $-1 #
edge $-1 $115 -54.488967558824427 $178 54.488967558824427 $108 $179 forward 7 unknown #
coedge $-1 $180 $181 $62 $111 forward $164 $-1 #
edge $-1 $116 -54.488967558824427 $182 54.488967558824427 $110 $183 forward 7 unknown #
coedge $-1 $105 $63 $181 $184 forward $114 $-1 #
coedge $-1 $63 $105 $102 $168 forward $114 $-1 #
loop $-1 $-1 $63 $163 #
vertex $-1 $64 $185 #
vertex $-1 $184 $186 #
straight-curve $-1 54.488967558824427 -14.917000196967861 9.9946024558761639 0 -1 0 I I #
face $-1 $-1 $187 $14 $-1 $188 reversed single #
loop $-1 $-1 $189 $65 #
plane-surface $-1 0 38.044996349919394 0 0 -1 0 0 0 -1 forward_v I I I I #
coedge $-1 $190 $68 $70 $127 forward $41 $-1 #
coedge $-1 $68 $190 $189 $191 reversed $41 $-1 #
coedge $-1 $192 $71 $68 $124 forward $66 $-1 #
edge $-1 $130 9.5179344322612067 $193 22.190686089192521 $123 $194 forward 7 unknown #
coedge $-1 $195 $196 $69 $126 forward $187 $-1 #
edge $-1 $197 -37.970491001235104 $129 -29.152401270890685 $125 $198 forward 7 unknown #
edge $-1 $130 -12.929781274981462 $197 0 $70 $199 forward 7 unknown #
coedge $-1 $71 $192 $195 $200 forward $66 $-1 #
vertex $-1 $126 $201 #
vertex $-1 $72 $202 #
straight-curve $-1 -64.405870737849284 25.372244692988073 12.578523146972621 1 0 0 I I #
coedge $-1 $132 $132 $-1 $203 reversed $75 $-1 #
edge $-1 $204 0 $204 6.2831853071796004 $76 $205 forward 7 unknown #
vertex $-1 $79 $206 #
ellipse-curve $-1 -49.760845909415025 31.708620521453732 8.1694782818004121 -0.68199836817093118 0 0.7313536940579346 0.7313536940579346 0 0.68199836817093118 1 I I #
face $-1 $-1 $95 $12 $-1 $207 reversed single #
loop $-1 $-1 $152 $80 #
plane-surface $-1 0 38.044996349919394 0 0 -1 0 0 0 -1 forward_v I I I I #
coedge $-1 $208 $150 $153 $209 forward $81 $-1 #
coedge $-1 $156 $83 $84 $144 reversed $50 $-1 #
coedge $-1 $150 $208 $83 $142 reversed $81 $-1 #
edge $-1 $157 -12.57852314697262 $210 12.57852314697262 $141 $211 forward 7 unknown #
coedge $-1 $85 $84 $208 $212 forward $33 $-1 #
edge $-1 $148 -54.488967558824427 $210 54.488967558824427 $140 $213 forward 7 unknown #
coedge $-1 $153 $152 $85 $146 reversed $137 $-1 #
edge $-1 $214 -54.488967558824427 $147 54.488967558824427 $145 $215 forward 7 unknown #
vertex $-1 $87 $216 #
vertex $-1 $159 $217 #
straight-curve $-1 54.488967558824427 0 -12.57852314697262 0 -1 0 I I #
coedge $-1 $139 $141 $88 $151 reversed $81 $-1 #
edge $-1 $154 -38.044996349919394 $157 38.044996349919394 $150 $218 forward 7 unknown #
coedge $-1 $145 $89 $94 $160 forward $137 $-1 #
coedge $-1 $89 $145 $139 $209 reversed $137 $-1 #
vertex $-1 $90 $219 #
straight-curve $-1 0 38.044996349919394 12.57852314697262 -1 0 0 I I #
coedge $-1 $91 $140 $93 $159 reversed $50 $-1 #
vertex $-1 $151 $220 #
straight-curve $-1 0 -38.044996349919394 12.57852314697262 1 0 0 I I #
edge $-1 $96 -12.57852314697262 $148 12.57852314697262 $93 $221 forward 7 unknown #
edge $-1 $97 -12.57852314697262 $147 12.57852314697262 $94 $222 forward 7 unknown #
point $-1 54.488967558824427 -38.044996349919394 12.57852314697262 #
point $-1 54.488967558824427 38.044996349919394 12.57852314697262 #
face $-1 $-1 $114 $13 $-1 $223 reversed single #
loop $-1 $-1 $110 $99 #
plane-surface $-1 0 -38.044996349919394 0 0 1 0 0 0 1 forward_v I I I I #
coedge $-1 $224 $225 $107 $176 forward $100 $-1 #
coedge $-1 $177 $102 $104 $172 reversed $58 $-1 #
edge $-1 $174 0.058118605278683511 $115 6.6436954354912148 $113 $226 forward 7 unknown #
coedge $-1 $104 $103 $227 $228 reversed $37 $-1 #
coedge $-1 $181 $180 $103 $171 forward $164 $-1 #
edge $-1 $229 -54.488967558824427 $173 54.488967558824427 $170 $230 forward 7 unknown #
edge $-1 $231 -54.488967558824427 $174 54.488967558824427 $167 $232 forward 7 unknown #
vertex $-1 $171 $233 #
vertex $-1 $106 $234 #
straight-curve $-1 54.488967558824427 -14.917000196967861 3.4090256256636327 0 1 0 I I #
edge $-1 $182 -23.127996152951532 $178 -6.7060042409841873 $166 $235 forward 7 unknown #
coedge $-1 $108 $167 $224 $236 reversed $58 $-1 #
vertex $-1 $176 $237 #
straight-curve $-1 0 -21.623004437952048 9.9946024558761639 -1 0 0 I I #
coedge $-1 $170 $110 $225 $238 forward $164 $-1 #
coedge $-1 $110 $170 $112 $184 reversed $164 $-1 #
vertex $-1 $238 $239 #
straight-curve $-1 0 -38.044996349919394 9.9946024558761639 -1 0 0 I I #
edge $-1 $116 -9.9946024558761639 $173 -3.4090256256636327 $112 $240 forward 7 unknown #
point $-1 54.488967558824427 -21.623004437952048 9.9946024558761639 #
point $-1 54.488967558824427 -38.044996349919394 9.9946024558761639 #
loop $-1 $-1 $125 $118 #
plane-surface $-1 -54.488967558824427 0 0 1 0 0 0 0 -1 forward_v I I I I #
coedge $-1 $241 $242 $122 $191 forward $119 $-1 #
coedge $-1 $122 $121 $196 $243 reversed $41 $-1 #
edge $-1 $193 5.7132678529152061 $244 18.643049127896667 $189 $245 forward 7 unknown #
coedge $-1 $128 $123 $242 $246 forward $66 $-1 #
vertex $-1 $246 $247 #
straight-curve $-1 -45.032724260005629 15.854310260726866 12.57852314697262 0 1 0 I I #
coedge $-1 $248 $125 $128 $200 reversed $187 $-1 #
coedge $-1 $125 $248 $190 $243 forward $187 $-1 #
vertex $-1 $126 $249 #
straight-curve $-1 -54.488967558824427 25.372244692988073 41.730924417863307 0 0 1 I I #
straight-curve $-1 -54.488967558824427 25.372244692988073 3.760433416628203 -0.7313536940579346 0 -0.68199836817093118 I I #
edge $-1 $250 -38.044996349919394 $129 -25.372244692988073 $195 $251 forward 7 unknown #
point $-1 -54.488967558824427 25.372244692988073 12.57852314697262 #
point $-1 -45.032724260005622 25.372244692988073 12.57852314697262 #
edge $-1 $252 1 $252 0 $132 $-1 forward 7 unknown #
vertex $-1 $133 $253 #
ellipse-curve $-1 -48.159532806183151 31.708620521453732 6.4522802531117458 -0.68199836817093118 0 0.7313536940579346 0.7313536940579346 0 0.68199836817093118 1 I I #
point $-1 -49.029492215357088 31.708620521453732 8.8514766499713353 #
plane-surface $-1 54.488967558824427 0 0 -1 0 0 0 0 1 forward_v I I I I #
coedge $-1 $141 $139 $143 $212 reversed $81 $-1 #
edge $-1 $154 -12.57852314697262 $214 12.57852314697262 $153 $254 forward 7 unknown #
vertex $-1 $212 $255 #
straight-curve $-1 -54.488967558824427 -38.044996349919394 0 0 0 -1 I I #
edge $-1 $210 -38.044996349919394 $214 38.044996349919394 $208 $256 forward 7 unknown #
straight-curve $-1 0 -38.044996349919394 -12.57852314697262 -1 0 0 I I #
vertex $-1 $146 $257 #
straight-curve $-1 0 38.044996349919394 -12.57852314697262 1 0 0 I I #
point $-1 54.488967558824427 38.044996349919394 -12.57852314697262 #
point $-1 54.488967558824427 -38.044996349919394 -12.57852314697262 #
straight-curve $-1 -54.488967558824427 0 12.57852314697262 0 -1 0 I I #
point $-1 -54.488967558824427 38.044996349919394 12.57852314697262 #
point $-1 -54.488967558824427 -38.044996349919394 12.57852314697262 #
straight-curve $-1 54.488967558824427 -38.044996349919394 0 0 0 -1 I I #
straight-curve $-1 54.488967558824427 38.044996349919394 0 0 0 -1 I I #
plane-surface $-1 54.488967558824427 0 0 -1 0 0 0 0 1 forward_v I I I I #
coedge $-1 $227 $166 $177 $236 forward $100 $-1 #
coedge $-1 $166 $227 $180 $238 reversed $100 $-1 #
straight-curve $-1 54.488967558824427 -21.623004437952048 3.3509070203849491 0 0 1 I I #
coedge $-1 $225 $224 $169 $228 forward $100 $-1 #
edge $-1 $231 6.7060042409841873 $229 23.127996152951532 $227 $258 forward 7 unknown #
vertex $-1 $171 $259 #
straight-curve $-1 0 -38.044996349919394 3.4090256256636327 1 0 0 I I #
vertex $-1 $228 $260 #
straight-curve $-1 0 -21.623004437952048 3.4090256256636327 1 0 0 I I #
point $-1 54.488967558824427 -38.044996349919394 3.4090256256636327 #
point $-1 54.488967558824427 -21.623004437952048 3.4090256256636327 #
straight-curve $-1 -54.488967558824427 -14.917000196967861 9.9946024558761639 0 1 0 I I #
edge $-1 $178 -6.6436954354912148 $231 -0.058118605278683511 $224 $261 forward 7 unknown #
point $-1 -54.488967558824427 -21.623004437952048 9.9946024558761639 #
edge $-1 $182 -9.9946024558761639 $229 -3.4090256256636327 $225 $262 forward 7 unknown #
point $-1 -54.488967558824427 -38.044996349919394 9.9946024558761639 #
straight-curve $-1 54.488967558824427 -38.044996349919394 0 0 0 -1 I I #
coedge $-1 $242 $189 $248 $263 reversed $119 $-1 #
coedge $-1 $189 $241 $192 $246 reversed $119 $-1 #
edge $-1 $244 -22.190686089192521 $197 -9.5179344322612067 $196 $264 forward 7 unknown #
vertex $-1 $191 $265 #
straight-curve $-1 -40.854304710633642 38.044996349919394 16.47496249958423 -0.7313536940579346 0 -0.68199836817093118 I I #
edge $-1 $193 45.032724260005622 $250 54.488967558824427 $242 $266 forward 7 unknown #
point $-1 -45.032724260005622 38.044996349919387 12.57852314697262 #
coedge $-1 $196 $195 $241 $263 forward $187 $-1 #
point $-1 -54.488967558824427 25.372244692988073 3.760433416628203 #
vertex $-1 $246 $267 #
straight-curve $-1 -54.488967558824427 0 12.57852314697262 0 -1 0 I I #
vertex $-1 $203 $268 #
point $-1 -47.428179112125214 31.708620521453732 7.134278621282677 #
straight-curve $-1 -54.488967558824427 38.044996349919394 0 0 0 -1 I I #
point $-1 -54.488967558824427 -38.044996349919394 -12.57852314697262 #
straight-curve $-1 -54.488967558824427 0 -12.57852314697262 0 1 0 I I #
point $-1 -54.488967558824427 38.044996349919394 -12.57852314697262 #
straight-curve $-1 -54.488967558824427 -14.917000196967861 3.4090256256636327 0 -1 0 I I #
point $-1 -54.488967558824427 -38.044996349919394 3.4090256256636327 #
point $-1 -54.488967558824427 -21.623004437952048 3.4090256256636327 #
straight-curve $-1 -54.488967558824427 -21.623004437952048 3.3509070203849491 0 0 -1 I I #
straight-curve $-1 -54.488967558824427 -38.044996349919394 0 0 0 -1 I I #
edge $-1 $250 -12.57852314697262 $244 -3.760433416628203 $241 $269 forward 7 unknown #
straight-curve $-1 -54.488967558824427 15.854310260726866 3.760433416628203 0 -1 0 I I #
point $-1 -54.488967558824427 38.044996349919387 3.760433416628203 #
straight-curve $-1 0 38.044996349919394 12.57852314697262 -1 0 0 I I #
point $-1 -54.488967558824427 38.044996349919394 12.57852314697262 #
point $-1 -47.477534438012214 31.708620521453732 5.7209265590538108 #
straight-curve $-1 -54.488967558824427 38.044996349919394 0 0 0 -1 I I #
End-of-ACIS-data 