500 0 9 0           
7 Unknown 11 ACIS 5.0 NT 24 Thu Mar 25 16:50:11 1999 
-1 9.9999999999999995e-007 1e-010 
body $-1 $9 $-1 $10 #
body $-1 $11 $-1 $12 #
body $-1 $13 $-1 $14 #
body $-1 $15 $-1 $16 #
body $-1 $17 $-1 $18 #
body $-1 $19 $-1 $20 #
body $-1 $21 $-1 $22 #
body $-1 $23 $-1 $24 #
body $-1 $25 $-1 $26 #
lump $-1 $-1 $27 $0 #
transform $-1 1 0 0 0 1 0 0 0 1 48.85158848841823 22.378521032981482 10.406999156244854 1 rotate no_reflect no_shear #
lump $-1 $-1 $28 $1 #
transform $-1 1 0 0 0 1 0 0 0 1 48.85158848841823 22.378521032981482 10.406999156244854 1 rotate no_reflect no_shear #
lump $-1 $-1 $29 $2 #
transform $-1 1 0 0 0 1 0 0 0 1 48.85158848841823 22.378521032981482 10.406999156244854 1 rotate no_reflect no_shear #
lump $-1 $-1 $30 $3 #
transform $-1 1 0 0 0 1 0 0 0 1 48.85158848841823 22.378521032981482 10.406999156244854 1 rotate no_reflect no_shear #
lump $-1 $-1 $31 $4 #
transform $-1 1 0 0 0 1 0 0 0 1 48.85158848841823 22.378521032981482 10.406999156244854 1 rotate no_reflect no_shear #
lump $-1 $-1 $32 $5 #
transform $-1 1 0 0 0 1 0 0 0 1 48.85158848841823 22.378521032981482 10.406999156244854 1 rotate no_reflect no_shear #
lump $-1 $-1 $33 $6 #
transform $-1 1 0 0 0 1 0 0 0 1 48.85158848841823 22.378521032981482 10.406999156244854 1 rotate no_reflect no_shear #
lump $-1 $-1 $34 $7 #
transform $-1 1 0 0 0 1 0 0 0 1 48.85158848841823 22.378521032981482 10.406999156244854 1 rotate no_reflect no_shear #
lump $-1 $-1 $35 $8 #
transform $-1 1 0 0 0 1 0 0 0 1 48.85158848841823 22.378521032981482 10.406999156244854 1 rotate no_reflect no_shear #
shell $-1 $-1 $-1 $36 $-1 $9 #
shell $-1 $-1 $-1 $37 $-1 $11 #
shell $-1 $-1 $-1 $38 $-1 $13 #
shell $-1 $-1 $-1 $39 $-1 $15 #
shell $-1 $-1 $-1 $40 $-1 $17 #
shell $-1 $-1 $-1 $41 $-1 $19 #
shell $-1 $-1 $-1 $42 $-1 $21 #
shell $-1 $-1 $-1 $43 $-1 $23 #
shell $-1 $-1 $-1 $44 $-1 $25 #
face $-1 $45 $46 $27 $-1 $47 forward single #
face $-1 $48 $49 $28 $-1 $50 forward single #
face $-1 $51 $52 $29 $-1 $53 reversed single #
face $-1 $54 $55 $30 $-1 $56 forward single #
face $-1 $57 $58 $31 $-1 $59 forward single #
face $-1 $60 $61 $32 $-1 $62 reversed single #
face $-1 $63 $64 $33 $-1 $65 forward single #
face $-1 $66 $67 $34 $-1 $68 forward single #
face $-1 $69 $70 $35 $-1 $71 forward single #
face $-1 $72 $73 $27 $-1 $74 reversed single #
loop $-1 $-1 $75 $36 #
plane-surface $-1 0 0 10.406999156244854 0 0 1 1 0 0 forward_v I I I I #
face $-1 $76 $77 $28 $-1 $78 reversed single #
loop $-1 $-1 $79 $37 #
plane-surface $-1 0 -16.010369405663972 -5.0264341760530744 0 0 1 1 0 0 forward_v I I I I #
face $-1 $80 $81 $29 $-1 $82 reversed single #
loop $-1 $-1 $83 $38 #
plane-surface $-1 46.440135944141687 18.964018343642337 144.56087337545509 0 -1 0 -0.69465837861970381 0 -0.71933979245794832 forward_v I I I I #
face $-1 $84 $85 $30 $-1 $86 forward single #
loop $-1 $87 $88 $39 #
cone-surface $-1 46.086187542186117 13.188531979660219 7.687925007538932 -0.69465837861970381 0 -0.71933979245794832 0.71933979245794832 0 -0.69465837861970381 1 I I 0 1 1 forward I I I I #
face $-1 $89 $90 $31 $-1 $91 forward single #
loop $-1 $92 $93 $40 #
cone-surface $-1 46.086187542186117 16.653823798049487 7.687925007538932 -0.69465837861970381 0 -0.71933979245794832 0.71933979245794832 0 -0.69465837861970381 1 I I 0 1 1 forward I I I I #
face $-1 $94 $95 $32 $-1 $96 reversed single #
loop $-1 $-1 $97 $41 #
plane-surface $-1 -99.172445340550951 7.1589570244660159 87.68848168194468 0 1 0 -0.51503808176128008 0 0.85716729658548041 forward_v I I I I #
face $-1 $98 $99 $33 $-1 $100 forward single #
loop $-1 $101 $102 $42 #
cone-surface $-1 -43.211851419611996 8.7381237106391865 6.7431780728231105 0.51503808176128008 0 -0.85716729658548041 0.4285836482927402 0 0.25751904088064004 1 I I 0 1 0.5 forward I I I I #
face $-1 $103 $104 $34 $-1 $105 forward single #
loop $-1 $106 $107 $43 #
cone-surface $-1 -43.211851419611996 11.106873739898937 6.7431780728231105 0.51503808176128008 0 -0.85716729658548041 0.4285836482927402 0 0.25751904088064004 1 I I 0 1 0.5 forward I I I I #
face $-1 $108 $109 $35 $-1 $110 forward single #
loop $-1 $111 $112 $44 #
cone-surface $-1 -43.211851419611996 13.475623769158688 6.7431780728231105 0.51503808176128008 0 -0.85716729658548041 0.4285836482927402 0 0.25751904088064004 1 I I 0 1 0.5 forward I I I I #
face $-1 $113 $114 $27 $-1 $115 reversed single #
loop $-1 $-1 $116 $45 #
plane-surface $-1 0 0 -10.406999156244854 0 0 1 1 0 0 forward_v I I I I #
coedge $-1 $117 $118 $119 $120 forward $46 $-1 #
face $-1 $121 $122 $28 $-1 $123 reversed single #
loop $-1 $-1 $124 $48 #
plane-surface $-1 0 -9.6422177783464633 -7.7167166661489643 0 -1 0 0 0 -1 forward_v I I I I #
coedge $-1 $125 $126 $127 $128 reversed $49 $-1 #
face $-1 $129 $130 $29 $-1 $131 reversed single #
loop $-1 $-1 $132 $51 #
plane-surface $-1 -21.430194560581498 14.921177888854857 74.279090326455361 0.69465837861970381 0 0.71933979245794832 0.71933979245794832 0 -0.69465837861970381 forward_v I I I I #
coedge $-1 $133 $134 $135 $136 reversed $52 $-1 #
face $-1 $-1 $137 $30 $-1 $138 forward single #
loop $-1 $139 $140 $54 #
cone-surface $-1 45.04360637598387 13.188531979660219 6.608300629860377 -0.69465837861970381 0 -0.71933979245794832 0.35966989622897416 0 -0.3473291893098519 1 I I -0.70710678118654746 0.70710678118654746 0.5 forward I I I I #
loop $-1 $-1 $141 $39 #
coedge $-1 $88 $88 $142 $143 reversed $55 $-1 #
face $-1 $-1 $144 $31 $-1 $145 forward single #
loop $-1 $146 $147 $57 #
cone-surface $-1 45.04360637598387 16.653823798049487 6.608300629860377 -0.69465837861970381 0 -0.71933979245794832 0.35966989622897416 0 -0.3473291893098519 1 I I -0.70710678118654746 0.70710678118654746 0.5 forward I I I I #
loop $-1 $-1 $148 $40 #
coedge $-1 $93 $93 $149 $150 reversed $58 $-1 #
face $-1 $151 $152 $32 $-1 $153 reversed single #
loop $-1 $-1 $154 $60 #
plane-surface $-1 -48.851588488418237 11.10687373989893 3.9405136048970206 -0.51503808176128008 0 0.85716729658548041 0.85716729658548041 0 0.51503808176128008 forward_v I I I I #
coedge $-1 $155 $156 $157 $158 reversed $61 $-1 #
face $-1 $-1 $159 $33 $-1 $160 forward single #
loop $-1 $161 $162 $63 #
cone-surface $-1 -42.824374345954411 8.7381237106391865 6.0983079409289189 0.51503808176128008 0 -0.85716729658548041 0.2142918241463701 0 0.12875952044032002 1 I I -0.70710678118654746 0.70710678118654746 0.25 forward I I I I #
loop $-1 $-1 $163 $42 #
coedge $-1 $102 $102 $164 $165 reversed $64 $-1 #
face $-1 $-1 $166 $34 $-1 $167 forward single #
loop $-1 $168 $169 $66 #
cone-surface $-1 -42.824374345954411 11.106873739898937 6.0983079409289189 0.51503808176128008 0 -0.85716729658548041 0.2142918241463701 0 0.12875952044032002 1 I I -0.70710678118654746 0.70710678118654746 0.25 forward I I I I #
loop $-1 $-1 $170 $43 #
coedge $-1 $107 $107 $171 $172 reversed $67 $-1 #
face $-1 $-1 $173 $35 $-1 $174 forward single #
loop $-1 $175 $176 $69 #
cone-surface $-1 -42.824374345954411 13.475623769158688 6.0983079409289189 0.51503808176128008 0 -0.85716729658548041 0.2142918241463701 0 0.12875952044032002 1 I I -0.70710678118654746 0.70710678118654746 0.25 forward I I I I #
loop $-1 $-1 $177 $44 #
coedge $-1 $112 $112 $178 $179 reversed $70 $-1 #
face $-1 $180 $181 $27 $-1 $182 reversed single #
loop $-1 $-1 $183 $72 #
plane-surface $-1 0 -22.378521032981482 0 0 1 0 0 0 1 forward_v I I I I #
coedge $-1 $184 $185 $186 $187 forward $73 $-1 #
coedge $-1 $188 $75 $189 $190 forward $46 $-1 #
coedge $-1 $75 $188 $191 $192 forward $46 $-1 #
coedge $-1 $193 $194 $75 $120 reversed $195 $-1 #
edge $-1 $196 -22.378521032981482 $197 22.378521032981482 $119 $198 forward 7 unknown #
face $-1 $199 $200 $28 $-1 $201 reversed single #
loop $-1 $-1 $202 $76 #
plane-surface $-1 0 0 -10.406999156244854 0 0 1 1 0 0 forward_v I I I I #
coedge $-1 $203 $204 $205 $206 reversed $77 $-1 #
coedge $-1 $207 $79 $204 $208 forward $49 $-1 #
coedge $-1 $79 $207 $209 $210 reversed $49 $-1 #
coedge $-1 $211 $205 $79 $128 forward $200 $-1 #
edge $-1 $212 1.6370330755144771 $213 14.373336330149495 $127 $214 forward 7 unknown #
face $-1 $215 $216 $29 $-1 $217 reversed single #
loop $-1 $-1 $218 $80 #
plane-surface $-1 46.440135944141687 10.878337434067376 144.56087337545509 0 1 0 0.69465837861970381 0 0.71933979245794832 forward_v I I I I #
coedge $-1 $219 $220 $221 $222 reversed $81 $-1 #
coedge $-1 $134 $83 $223 $224 reversed $52 $-1 #
coedge $-1 $83 $133 $219 $225 reversed $52 $-1 #
coedge $-1 $221 $226 $83 $136 forward $227 $-1 #
edge $-1 $228 -25.631520516347386 $229 -21.491222577667962 $135 $230 forward 7 unknown #
loop $-1 $-1 $142 $84 #
plane-surface $-1 -21.430194560581498 14.921177888854857 74.279090326455361 0.69465837861970381 0 0.71933979245794832 0.71933979245794832 0 -0.69465837861970381 forward_v I I I I #
loop $-1 $-1 $231 $54 #
coedge $-1 $140 $140 $141 $232 reversed $85 $-1 #
coedge $-1 $141 $141 $140 $232 forward $87 $-1 #
coedge $-1 $142 $142 $88 $143 forward $137 $-1 #
edge $-1 $233 0 $233 6.2831853071796004 $142 $234 forward 7 unknown #
loop $-1 $-1 $149 $89 #
plane-surface $-1 -21.430194560581498 14.921177888854857 74.279090326455361 0.69465837861970381 0 0.71933979245794832 0.71933979245794832 0 -0.69465837861970381 forward_v I I I I #
loop $-1 $-1 $235 $57 #
coedge $-1 $147 $147 $148 $236 reversed $90 $-1 #
coedge $-1 $148 $148 $147 $236 forward $92 $-1 #
coedge $-1 $149 $149 $93 $150 forward $144 $-1 #
edge $-1 $237 0 $237 6.2831853071796004 $149 $238 forward 7 unknown #
face $-1 $239 $240 $32 $-1 $241 forward single #
loop $-1 $-1 $242 $94 #
plane-surface $-1 -99.172445340550951 15.054790455331844 87.68848168194468 0 -1 0 0.51503808176128008 0 -0.85716729658548041 forward_v I I I I #
coedge $-1 $243 $244 $245 $246 reversed $95 $-1 #
coedge $-1 $156 $97 $247 $248 reversed $61 $-1 #
coedge $-1 $97 $155 $243 $249 reversed $61 $-1 #
coedge $-1 $245 $250 $97 $158 forward $240 $-1 #
edge $-1 $251 0.73463418185724549 $252 11.496673213035137 $157 $253 forward 7 unknown #
loop $-1 $-1 $164 $98 #
plane-surface $-1 -48.851588488418237 11.10687373989893 3.9405136048970206 -0.51503808176128008 0 0.85716729658548041 0.85716729658548041 0 0.51503808176128008 forward_v I I I I #
loop $-1 $-1 $254 $63 #
coedge $-1 $162 $162 $163 $255 reversed $99 $-1 #
coedge $-1 $163 $163 $162 $255 forward $101 $-1 #
coedge $-1 $164 $164 $102 $165 forward $159 $-1 #
edge $-1 $256 0 $256 6.2831853071796004 $164 $257 forward 7 unknown #
loop $-1 $-1 $171 $103 #
plane-surface $-1 -48.851588488418237 11.10687373989893 3.9405136048970206 -0.51503808176128008 0 0.85716729658548041 0.85716729658548041 0 0.51503808176128008 forward_v I I I I #
loop $-1 $-1 $258 $66 #
coedge $-1 $169 $169 $170 $259 reversed $104 $-1 #
coedge $-1 $170 $170 $169 $259 forward $106 $-1 #
coedge $-1 $171 $171 $107 $172 forward $166 $-1 #
edge $-1 $260 0 $260 6.2831853071796004 $171 $261 forward 7 unknown #
loop $-1 $-1 $178 $108 #
plane-surface $-1 -48.851588488418237 11.10687373989893 3.9405136048970206 -0.51503808176128008 0 0.85716729658548041 0.85716729658548041 0 0.51503808176128008 forward_v I I I I #
loop $-1 $-1 $262 $69 #
coedge $-1 $176 $176 $177 $263 reversed $109 $-1 #
coedge $-1 $177 $177 $176 $263 forward $111 $-1 #
coedge $-1 $178 $178 $112 $179 forward $173 $-1 #
edge $-1 $264 0 $264 6.2831853071796004 $178 $265 forward 7 unknown #
face $-1 $266 $267 $27 $-1 $268 reversed single #
loop $-1 $-1 $269 $113 #
plane-surface $-1 -48.85158848841823 0 0 1 0 0 0 0 -1 forward_v I I I I #
coedge $-1 $270 $191 $271 $272 forward $114 $-1 #
coedge $-1 $273 $116 $270 $274 forward $73 $-1 #
coedge $-1 $116 $273 $275 $276 forward $73 $-1 #
coedge $-1 $194 $193 $116 $187 reversed $195 $-1 #
edge $-1 $277 -22.378521032981482 $278 22.378521032981482 $186 $279 forward 7 unknown #
coedge $-1 $118 $117 $280 $281 forward $46 $-1 #
coedge $-1 $282 $283 $117 $190 reversed $267 $-1 #
edge $-1 $197 -48.85158848841823 $284 48.85158848841823 $189 $285 forward 7 unknown #
coedge $-1 $183 $286 $118 $192 reversed $114 $-1 #
edge $-1 $287 -48.85158848841823 $196 48.85158848841823 $191 $288 forward 7 unknown #
coedge $-1 $186 $119 $286 $289 forward $195 $-1 #
coedge $-1 $119 $186 $282 $290 reversed $195 $-1 #
loop $-1 $-1 $193 $266 #
vertex $-1 $120 $291 #
vertex $-1 $120 $292 #
straight-curve $-1 48.85158848841823 0 10.406999156244854 0 1 0 I I #
face $-1 $293 $294 $28 $-1 $295 reversed single #
loop $-1 $-1 $205 $121 #
plane-surface $-1 48.85158848841823 0 0 -1 0 0 0 0 1 forward_v I I I I #
coedge $-1 $296 $297 $203 $298 forward $122 $-1 #
coedge $-1 $299 $124 $202 $298 reversed $77 $-1 #
coedge $-1 $124 $299 $125 $208 reversed $77 $-1 #
coedge $-1 $127 $300 $124 $206 forward $200 $-1 #
edge $-1 $301 -6.5486408231703717 $212 -1.1680758429785922 $205 $302 forward 7 unknown #
coedge $-1 $126 $125 $303 $304 reversed $49 $-1 #
edge $-1 $212 -48.85158848841823 $305 48.85158848841823 $204 $306 forward 7 unknown #
coedge $-1 $307 $308 $126 $210 forward $294 $-1 #
edge $-1 $213 -48.85158848841823 $309 48.85158848841823 $209 $310 forward 7 unknown #
coedge $-1 $300 $127 $308 $311 forward $200 $-1 #
vertex $-1 $128 $312 #
vertex $-1 $311 $313 #
straight-curve $-1 48.85158848841823 -8.0051847028319862 -5.0264341760530744 0 -1 0 I I #
face $-1 $-1 $227 $29 $-1 $314 forward single #
loop $-1 $-1 $315 $129 #
plane-surface $-1 48.85158848841823 0 0 -1 0 0 0 0 1 forward_v I I I I #
coedge $-1 $316 $317 $318 $319 reversed $130 $-1 #
coedge $-1 $320 $132 $134 $225 forward $81 $-1 #
coedge $-1 $132 $320 $316 $321 forward $81 $-1 #
coedge $-1 $318 $135 $132 $222 forward $227 $-1 #
edge $-1 $229 -11.503429399214909 $322 -3.4177484896399477 $221 $323 forward 7 unknown #
coedge $-1 $324 $325 $133 $224 forward $216 $-1 #
edge $-1 $326 -65.871676865995369 $228 -61.873437531482693 $223 $327 forward 7 unknown #
edge $-1 $229 91.94748546346662 $326 97.703176976836446 $134 $328 forward 7 unknown #
coedge $-1 $135 $318 $324 $329 forward $227 $-1 #
loop $-1 $-1 $318 $215 #
vertex $-1 $224 $330 #
vertex $-1 $136 $331 #
straight-curve $-1 23.220067972070844 18.964018343642337 10.406999156244851 -1 0 0 I I #
coedge $-1 $231 $231 $-1 $332 reversed $139 $-1 #
edge $-1 $333 0 $333 6.2831853071796004 $140 $334 forward 7 unknown #
vertex $-1 $143 $335 #
ellipse-curve $-1 46.781439519078518 13.188531979660219 8.4078794889885131 0.69465837861970381 0 0.71933979245794832 0.71933979245794832 0 -0.69465837861970381 1 I I #
coedge $-1 $235 $235 $-1 $336 reversed $146 $-1 #
edge $-1 $337 0 $337 6.2831853071796004 $147 $338 forward 7 unknown #
vertex $-1 $150 $339 #
ellipse-curve $-1 46.781439519078518 16.653823798049487 8.4078794889885131 0.69465837861970381 0 0.71933979245794832 0.71933979245794832 0 -0.69465837861970381 1 I I #
face $-1 $-1 $340 $32 $-1 $341 reversed single #
loop $-1 $-1 $157 $151 #
plane-surface $-1 0 0 10.406999156244854 0 0 1 1 0 0 forward_v I I I I #
coedge $-1 $342 $343 $344 $345 reversed $152 $-1 #
coedge $-1 $346 $154 $156 $249 forward $95 $-1 #
coedge $-1 $154 $346 $342 $347 forward $95 $-1 #
coedge $-1 $344 $157 $154 $246 forward $240 $-1 #
edge $-1 $252 1.6055201545165509 $348 9.501353585382379 $245 $349 forward 7 unknown #
coedge $-1 $350 $351 $155 $248 forward $340 $-1 #
edge $-1 $352 -39.903727236075312 $251 -33.437241684727482 $247 $353 forward 7 unknown #
edge $-1 $252 -12.555354216205405 $352 -8.3777685069199533e-015 $156 $354 forward 7 unknown #
coedge $-1 $157 $344 $350 $355 forward $240 $-1 #
vertex $-1 $248 $356 #
vertex $-1 $158 $357 #
straight-curve $-1 -49.586222670275475 7.1589570244660159 10.406999156244851 1 0 0 I I #
coedge $-1 $254 $254 $-1 $358 reversed $161 $-1 #
edge $-1 $359 0 $359 6.2831853071796004 $162 $360 forward 7 unknown #
vertex $-1 $165 $361 #
ellipse-curve $-1 -43.47056897282927 8.7381237106391865 7.1737563805709454 -0.51503808176128008 0 0.85716729658548041 0.4285836482927402 0 0.25751904088064004 1 I I #
coedge $-1 $258 $258 $-1 $362 reversed $168 $-1 #
edge $-1 $363 0 $363 6.2831853071796004 $169 $364 forward 7 unknown #
vertex $-1 $172 $365 #
ellipse-curve $-1 -43.47056897282927 11.106873739898937 7.1737563805709454 -0.51503808176128008 0 0.85716729658548041 0.4285836482927402 0 0.25751904088064004 1 I I #
coedge $-1 $262 $262 $-1 $366 reversed $175 $-1 #
edge $-1 $367 0 $367 6.2831853071796004 $176 $368 forward 7 unknown #
vertex $-1 $179 $369 #
ellipse-curve $-1 -43.47056897282927 13.475623769158688 7.1737563805709454 -0.51503808176128008 0 0.85716729658548041 0.4285836482927402 0 0.25751904088064004 1 I I #
face $-1 $-1 $195 $27 $-1 $370 reversed single #
loop $-1 $-1 $282 $180 #
plane-surface $-1 0 22.378521032981482 0 0 -1 0 0 0 -1 forward_v I I I I #
coedge $-1 $371 $280 $283 $372 forward $181 $-1 #
coedge $-1 $286 $183 $184 $274 reversed $114 $-1 #
coedge $-1 $280 $371 $183 $272 reversed $181 $-1 #
edge $-1 $287 -10.406999156244854 $373 10.406999156244854 $271 $374 forward 7 unknown #
coedge $-1 $185 $184 $371 $375 forward $73 $-1 #
edge $-1 $278 -48.85158848841823 $373 48.85158848841823 $270 $376 forward 7 unknown #
coedge $-1 $283 $282 $185 $276 reversed $267 $-1 #
edge $-1 $377 -48.85158848841823 $277 48.85158848841823 $275 $378 forward 7 unknown #
vertex $-1 $187 $379 #
vertex $-1 $289 $380 #
straight-curve $-1 48.85158848841823 0 -10.406999156244854 0 -1 0 I I #
coedge $-1 $269 $271 $188 $281 reversed $181 $-1 #
edge $-1 $284 -22.378521032981482 $287 22.378521032981482 $280 $381 forward 7 unknown #
coedge $-1 $275 $189 $194 $290 forward $267 $-1 #
coedge $-1 $189 $275 $269 $372 reversed $267 $-1 #
vertex $-1 $190 $382 #
straight-curve $-1 0 22.378521032981482 10.406999156244854 -1 0 0 I I #
coedge $-1 $191 $270 $193 $289 reversed $114 $-1 #
vertex $-1 $281 $383 #
straight-curve $-1 0 -22.378521032981482 10.406999156244854 1 0 0 I I #
edge $-1 $196 -10.406999156244854 $278 10.406999156244854 $193 $384 forward 7 unknown #
edge $-1 $197 -10.406999156244854 $277 10.406999156244854 $194 $385 forward 7 unknown #
point $-1 48.85158848841823 -22.378521032981482 10.406999156244854 #
point $-1 48.85158848841823 22.378521032981482 10.406999156244854 #
face $-1 $-1 $386 $28 $-1 $387 reversed single #
loop $-1 $-1 $209 $199 #
plane-surface $-1 0 -22.378521032981482 0 0 1 0 0 0 1 forward_v I I I I #
coedge $-1 $388 $202 $300 $389 forward $122 $-1 #
coedge $-1 $202 $388 $390 $391 forward $122 $-1 #
edge $-1 $392 -48.85158848841823 $301 48.85158848841823 $202 $393 forward 7 unknown #
coedge $-1 $204 $203 $394 $395 reversed $77 $-1 #
coedge $-1 $205 $211 $296 $389 reversed $200 $-1 #
vertex $-1 $389 $396 #
straight-curve $-1 48.85158848841823 -9.6422177783464633 -3.8583583330744822 0 0 1 I I #
coedge $-1 $394 $397 $207 $304 forward $386 $-1 #
edge $-1 $309 -14.373336330149495 $305 -1.6370330755144771 $303 $398 forward 7 unknown #
vertex $-1 $304 $399 #
straight-curve $-1 0 -9.6422177783464633 -5.0264341760530744 -1 0 0 I I #
coedge $-1 $400 $209 $397 $401 forward $294 $-1 #
coedge $-1 $209 $400 $211 $311 reversed $294 $-1 #
vertex $-1 $401 $402 #
straight-curve $-1 0 -22.378521032981482 -5.0264341760530744 -1 0 0 I I #
edge $-1 $213 5.0264341760530744 $403 10.406999156244854 $211 $404 forward 7 unknown #
point $-1 48.85158848841823 -9.6422177783464633 -5.0264341760530744 #
point $-1 48.85158848841823 -22.378521032981482 -5.0264341760530744 #
plane-surface $-1 0 0 10.406999156244854 0 0 1 1 0 0 forward_v I I I I #
coedge $-1 $325 $324 $317 $405 forward $216 $-1 #
coedge $-1 $317 $218 $220 $321 reversed $130 $-1 #
coedge $-1 $218 $316 $315 $405 reversed $130 $-1 #
coedge $-1 $226 $221 $218 $319 forward $227 $-1 #
edge $-1 $322 21.491222577667962 $406 25.631520516347386 $318 $407 forward 7 unknown #
coedge $-1 $220 $219 $325 $408 reversed $81 $-1 #
edge $-1 $409 -97.703176976836446 $322 -91.94748546346662 $316 $410 forward 7 unknown #
vertex $-1 $222 $411 #
straight-curve $-1 44.711290549738798 7.4605889444274283 10.406999156244851 0 -1 0 I I #
coedge $-1 $315 $223 $226 $329 reversed $216 $-1 #
coedge $-1 $223 $315 $320 $408 forward $216 $-1 #
vertex $-1 $224 $412 #
straight-curve $-1 48.85158848841823 18.964018343642337 72.280436687727544 0 0 1 I I #
straight-curve $-1 -21.430194560581498 18.964018343642337 74.279090326455361 0.71933979245794832 0 -0.69465837861970381 I I #
edge $-1 $406 10.878337434067376 $228 18.964018343642337 $324 $413 forward 7 unknown #
point $-1 48.85158848841823 18.964018343642337 10.406999156244854 #
point $-1 44.711290549738806 18.964018343642337 10.406999156244851 #
edge $-1 $414 1 $414 0 $231 $-1 forward 7 unknown #
vertex $-1 $232 $415 #
ellipse-curve $-1 45.390935565293724 13.188531979660219 6.967970526089351 0.69465837861970381 0 0.71933979245794832 0.71933979245794832 0 -0.69465837861970381 1 I I #
point $-1 47.500779311536462 13.188531979660219 7.7132211103688091 #
edge $-1 $416 1 $416 0 $235 $-1 forward 7 unknown #
vertex $-1 $236 $417 #
ellipse-curve $-1 45.390935565293724 16.653823798049487 6.967970526089351 0.69465837861970381 0 0.71933979245794832 0.71933979245794832 0 -0.69465837861970381 1 I I #
point $-1 47.500779311536462 16.653823798049487 7.7132211103688091 #
loop $-1 $-1 $247 $239 #
plane-surface $-1 -48.85158848841823 0 0 1 0 0 0 0 -1 forward_v I I I I #
coedge $-1 $343 $242 $244 $347 reversed $152 $-1 #
coedge $-1 $242 $342 $418 $419 reversed $152 $-1 #
coedge $-1 $250 $245 $242 $345 forward $240 $-1 #
edge $-1 $348 -11.496673213035137 $420 -0.73463418185724549 $344 $421 forward 7 unknown #
coedge $-1 $244 $243 $351 $422 reversed $95 $-1 #
edge $-1 $423 8.3777685069199533e-015 $348 12.555354216205405 $342 $424 forward 7 unknown #
vertex $-1 $246 $425 #
straight-curve $-1 -38.089549457240338 5.5534368699494649 10.406999156244854 0 1 0 I I #
coedge $-1 $418 $247 $250 $355 reversed $340 $-1 #
coedge $-1 $247 $418 $346 $422 forward $340 $-1 #
vertex $-1 $248 $426 #
straight-curve $-1 -48.85158848841823 7.1589570244660159 43.84424084097234 0 0 1 I I #
straight-curve $-1 -48.851588488418237 7.1589570244660159 3.9405136048970206 -0.85716729658548041 0 -0.51503808176128008 I I #
edge $-1 $420 -15.054790455331844 $251 -7.1589570244660159 $350 $427 forward 7 unknown #
point $-1 -48.85158848841823 7.1589570244660159 10.406999156244854 #
point $-1 -38.089549457240338 7.1589570244660159 10.406999156244854 #
edge $-1 $428 1 $428 0 $254 $-1 forward 7 unknown #
vertex $-1 $255 $429 #
ellipse-curve $-1 -42.95313386639473 8.7381237106391865 6.312599765075289 -0.51503808176128008 0 0.85716729658548041 0.4285836482927402 0 0.25751904088064004 1 I I #
point $-1 -43.041985324536526 8.7381237106391865 7.4312754214515717 #
edge $-1 $430 1 $430 0 $258 $-1 forward 7 unknown #
vertex $-1 $259 $431 #
ellipse-curve $-1 -42.95313386639473 11.106873739898937 6.312599765075289 -0.51503808176128008 0 0.85716729658548041 0.4285836482927402 0 0.25751904088064004 1 I I #
point $-1 -43.041985324536526 11.106873739898937 7.4312754214515717 #
edge $-1 $432 1 $432 0 $262 $-1 forward 7 unknown #
vertex $-1 $263 $433 #
ellipse-curve $-1 -42.95313386639473 13.475623769158688 6.312599765075289 -0.51503808176128008 0 0.85716729658548041 0.4285836482927402 0 0.25751904088064004 1 I I #
point $-1 -43.041985324536526 13.475623769158688 7.4312754214515717 #
plane-surface $-1 48.85158848841823 0 0 -1 0 0 0 0 1 forward_v I I I I #
coedge $-1 $271 $269 $273 $375 reversed $181 $-1 #
edge $-1 $284 -10.406999156244854 $377 10.406999156244854 $283 $434 forward 7 unknown #
vertex $-1 $375 $435 #
straight-curve $-1 -48.85158848841823 -22.378521032981482 0 0 0 -1 I I #
edge $-1 $373 -22.378521032981482 $377 22.378521032981482 $371 $436 forward 7 unknown #
straight-curve $-1 0 -22.378521032981482 -10.406999156244854 -1 0 0 I I #
vertex $-1 $276 $437 #
straight-curve $-1 0 22.378521032981482 -10.406999156244854 1 0 0 I I #
point $-1 48.85158848841823 22.378521032981482 -10.406999156244854 #
point $-1 48.85158848841823 -22.378521032981482 -10.406999156244854 #
straight-curve $-1 -48.85158848841823 0 10.406999156244854 0 -1 0 I I #
point $-1 -48.85158848841823 22.378521032981482 10.406999156244854 #
point $-1 -48.85158848841823 -22.378521032981482 10.406999156244854 #
straight-curve $-1 48.85158848841823 -22.378521032981482 0 0 0 -1 I I #
straight-curve $-1 48.85158848841823 22.378521032981482 0 0 0 -1 I I #
loop $-1 $-1 $394 $293 #
plane-surface $-1 -48.85158848841823 0 0 1 0 0 0 0 -1 forward_v I I I I #
coedge $-1 $297 $296 $400 $438 forward $122 $-1 #
edge $-1 $301 9.6422177783464633 $403 22.378521032981482 $300 $439 forward 7 unknown #
coedge $-1 $397 $394 $297 $391 reversed $386 $-1 #
edge $-1 $440 -22.378521032981482 $392 -9.6422177783464633 $390 $441 forward 7 unknown #
vertex $-1 $395 $442 #
straight-curve $-1 0 -9.6422177783464633 -10.406999156244854 1 0 0 I I #
coedge $-1 $390 $303 $299 $395 forward $386 $-1 #
edge $-1 $305 1.1680758429785922 $392 6.5486408231703717 $394 $443 forward 7 unknown #
point $-1 48.85158848841823 -9.6422177783464633 -10.406999156244854 #
coedge $-1 $303 $390 $307 $401 reversed $386 $-1 #
straight-curve $-1 -48.85158848841823 -8.0051847028319862 -5.0264341760530744 0 1 0 I I #
point $-1 -48.85158848841823 -9.6422177783464633 -5.0264341760530744 #
coedge $-1 $308 $307 $388 $438 reversed $294 $-1 #
edge $-1 $309 5.0264341760530744 $440 10.406999156244854 $397 $444 forward 7 unknown #
point $-1 -48.85158848841823 -22.378521032981482 -5.0264341760530744 #
vertex $-1 $311 $445 #
straight-curve $-1 48.85158848841823 -22.378521032981482 0 0 0 -1 I I #
edge $-1 $406 61.873437531482693 $409 65.871676865995369 $315 $446 forward 7 unknown #
vertex $-1 $329 $447 #
straight-curve $-1 23.220067972070844 10.878337434067376 10.406999156244851 1 0 0 I I #
edge $-1 $409 3.4177484896399477 $326 11.503429399214909 $325 $448 forward 7 unknown #
vertex $-1 $408 $449 #
straight-curve $-1 -21.430194560581498 10.878337434067376 74.279090326455361 -0.71933979245794832 0 0.69465837861970381 I I #
point $-1 44.711290549738806 10.878337434067376 10.406999156244851 #
point $-1 48.85158848841823 18.964018343642337 6.4087598217321755 #
straight-curve $-1 48.85158848841823 0 10.406999156244854 0 1 0 I I #
vertex $-1 $332 $450 #
point $-1 46.110275357751668 13.188531979660219 6.2733121474696478 #
vertex $-1 $336 $451 #
point $-1 46.110275357751668 16.653823798049487 6.2733121474696478 #
coedge $-1 $351 $350 $343 $419 forward $340 $-1 #
edge $-1 $420 33.437241684727482 $423 39.903727236075312 $418 $452 forward 7 unknown #
vertex $-1 $355 $453 #
straight-curve $-1 -49.586222670275475 15.054790455331844 10.406999156244851 -1 0 0 I I #
edge $-1 $423 -9.501353585382379 $352 -1.6055201545165509 $351 $454 forward 7 unknown #
vertex $-1 $422 $455 #
straight-curve $-1 -48.851588488418237 15.054790455331844 3.9405136048970206 0.85716729658548041 0 0.51503808176128008 I I #
point $-1 -38.089549457240338 15.054790455331844 10.406999156244854 #
point $-1 -48.85158848841823 7.1589570244660159 3.9405136048970251 #
straight-curve $-1 -48.85158848841823 0 10.406999156244854 0 -1 0 I I #
vertex $-1 $358 $456 #
point $-1 -42.524550218101993 8.7381237106391865 6.5701188059559295 #
vertex $-1 $362 $457 #
point $-1 -42.524550218101993 11.106873739898937 6.5701188059559295 #
vertex $-1 $366 $458 #
point $-1 -42.524550218101993 13.475623769158688 6.5701188059559295 #
straight-curve $-1 -48.85158848841823 22.378521032981482 0 0 0 -1 I I #
point $-1 -48.85158848841823 -22.378521032981482 -10.406999156244854 #
straight-curve $-1 -48.85158848841823 0 -10.406999156244854 0 1 0 I I #
point $-1 -48.85158848841823 22.378521032981482 -10.406999156244854 #
edge $-1 $403 -48.85158848841823 $440 48.85158848841823 $400 $459 forward 7 unknown #
straight-curve $-1 48.85158848841823 0 -10.406999156244854 0 -1 0 I I #
vertex $-1 $391 $460 #
straight-curve $-1 -48.85158848841823 0 -10.406999156244854 0 1 0 I I #
point $-1 -48.85158848841823 -9.6422177783464633 -10.406999156244854 #
straight-curve $-1 -48.85158848841823 -9.6422177783464633 -3.8583583330744822 0 0 -1 I I #
straight-curve $-1 -48.85158848841823 -22.378521032981482 0 0 0 -1 I I #
point $-1 48.85158848841823 -22.378521032981482 -10.406999156244854 #
straight-curve $-1 48.85158848841823 10.878337434067376 72.280436687727544 0 0 -1 I I #
point $-1 48.85158848841823 10.878337434067376 10.406999156244854 #
straight-curve $-1 48.851588488418223 7.4605889444274283 6.4087598217321826 0 1 0 I I #
point $-1 48.85158848841823 10.878337434067376 6.4087598217321755 #
point $-1 44.696277186674017 13.188531979660219 6.2486307336314031 #
point $-1 44.696277186674017 16.653823798049487 6.2486307336314031 #
straight-curve $-1 -48.85158848841823 15.054790455331844 43.84424084097234 0 0 -1 I I #
point $-1 -48.85158848841823 15.054790455331844 10.406999156244854 #
straight-curve $-1 -48.85158848841823 5.5534368699494649 3.9405136048970224 0 -1 0 I I #
point $-1 -48.85158848841823 15.054790455331844 3.9405136048970251 #
point $-1 -42.695614825514092 8.7381237106391865 5.8840161167825489 #
point $-1 -42.695614825514092 11.106873739898937 5.8840161167825489 #
point $-1 -42.695614825514092 13.475623769158688 5.8840161167825489 #
straight-curve $-1 0 -22.378521032981482 -10.406999156244854 -1 0 0 I I #
point $-1 -48.85158848841823 -22.378521032981482 -10.406999156244854 #
End-of-ACIS-data 