500 0 9 0           
7 Unknown 11 ACIS 5.0 NT 24 Fri Mar 26 00:07:15 1999 
-1 9.9999999999999995e-007 1e-010 
body $-1 $9 $-1 $10 #
body $-1 $11 $-1 $12 #
body $-1 $13 $-1 $14 #
body $-1 $15 $-1 $16 #
body $-1 $17 $-1 $18 #
body $-1 $19 $-1 $20 #
body $-1 $21 $-1 $22 #
body $-1 $23 $-1 $24 #
body $-1 $25 $-1 $26 #
lump $-1 $-1 $27 $0 #
transform $-1 1 0 0 0 1 0 0 0 1 55.231177709280679 36.536485123031341 9.062480020674375 1 rotate no_reflect no_shear #
lump $-1 $-1 $28 $1 #
transform $-1 1 0 0 0 1 0 0 0 1 55.231177709280679 36.536485123031341 9.062480020674375 1 rotate no_reflect no_shear #
lump $-1 $-1 $29 $2 #
transform $-1 1 0 0 0 1 0 0 0 1 55.231177709280679 36.536485123031341 9.062480020674375 1 rotate no_reflect no_shear #
lump $-1 $-1 $30 $3 #
transform $-1 1 0 0 0 1 0 0 0 1 55.231177709280679 36.536485123031341 9.062480020674375 1 rotate no_reflect no_shear #
lump $-1 $-1 $31 $4 #
transform $-1 1 0 0 0 1 0 0 0 1 55.231177709280679 36.536485123031341 9.062480020674375 1 rotate no_reflect no_shear #
lump $-1 $-1 $32 $5 #
transform $-1 1 0 0 0 1 0 0 0 1 55.231177709280679 36.536485123031341 9.062480020674375 1 rotate no_reflect no_shear #
lump $-1 $-1 $33 $6 #
transform $-1 1 0 0 0 1 0 0 0 1 55.231177709280679 36.536485123031341 9.062480020674375 1 rotate no_reflect no_shear #
lump $-1 $-1 $34 $7 #
transform $-1 1 0 0 0 1 0 0 0 1 55.231177709280679 36.536485123031341 9.062480020674375 1 rotate no_reflect no_shear #
lump $-1 $-1 $35 $8 #
transform $-1 1 0 0 0 1 0 0 0 1 55.231177709280679 36.536485123031341 9.062480020674375 1 rotate no_reflect no_shear #
shell $-1 $-1 $-1 $36 $-1 $9 #
shell $-1 $-1 $-1 $37 $-1 $11 #
shell $-1 $-1 $-1 $38 $-1 $13 #
shell $-1 $-1 $-1 $39 $-1 $15 #
shell $-1 $-1 $-1 $40 $-1 $17 #
shell $-1 $-1 $-1 $41 $-1 $19 #
shell $-1 $-1 $-1 $42 $-1 $21 #
shell $-1 $-1 $-1 $43 $-1 $23 #
shell $-1 $-1 $-1 $44 $-1 $25 #
face $-1 $45 $46 $27 $-1 $47 forward single #
face $-1 $48 $49 $28 $-1 $50 reversed single #
face $-1 $51 $52 $29 $-1 $53 reversed single #
face $-1 $54 $55 $30 $-1 $56 reversed single #
face $-1 $57 $58 $31 $-1 $59 forward single #
face $-1 $60 $61 $32 $-1 $62 forward single #
face $-1 $63 $64 $33 $-1 $65 reversed single #
face $-1 $66 $67 $34 $-1 $68 forward single #
face $-1 $69 $70 $35 $-1 $71 forward single #
face $-1 $72 $73 $27 $-1 $74 reversed single #
loop $-1 $-1 $75 $36 #
plane-surface $-1 0 0 9.062480020674375 0 0 1 1 0 0 forward_v I I I I #
face $-1 $76 $77 $28 $-1 $78 reversed single #
loop $-1 $-1 $79 $37 #
plane-surface $-1 0 -30.990602470601608 6.062480020674375 0 0 1 1 0 0 forward_v I I I I #
face $-1 $80 $81 $29 $-1 $82 reversed single #
loop $-1 $-1 $83 $38 #
plane-surface $-1 0 30.990602470601615 6.062480020674375 0 0 1 1 0 0 forward_v I I I I #
face $-1 $84 $85 $30 $-1 $86 reversed single #
loop $-1 $-1 $87 $39 #
plane-surface $-1 1.6779666468049186 21.06050677791719 97.434403095675577 0.87461971476443456 0 0.48480960649040278 0.48480960649040278 0 -0.87461971476443456 forward_v I I I I #
face $-1 $88 $89 $31 $-1 $90 forward single #
loop $-1 $91 $92 $40 #
cone-surface $-1 51.62473671108804 19.181558332093758 4.2090837724496186 -0.87461971476443456 0 -0.48480960649040278 0.48480960649040278 0 -0.87461971476443456 1 I I 0 1 1 forward I I I I #
face $-1 $93 $94 $32 $-1 $95 forward single #
loop $-1 $96 $97 $41 #
cone-surface $-1 51.62473671108804 22.93945522374063 4.2090837724496186 -0.87461971476443456 0 -0.48480960649040278 0.48480960649040278 0 -0.87461971476443456 1 I I 0 1 1 forward I I I I #
face $-1 $98 $99 $33 $-1 $100 reversed single #
loop $-1 $-1 $101 $42 #
plane-surface $-1 -151.8437314976704 16.676293737662505 54.375060369761584 0 1 0 -0.87461971476443456 0 0.48480960649040278 forward_v I I I I #
face $-1 $102 $103 $34 $-1 $104 forward single #
loop $-1 $105 $106 $43 #
cone-surface $-1 -51.624736711088048 19.181558332093758 4.2090837724496115 0.87461971476443456 0 -0.48480960649040278 0.48480960649040278 0 0.87461971476443456 1 I I 0 1 1 forward I I I I #
face $-1 $107 $108 $35 $-1 $109 forward single #
loop $-1 $110 $111 $44 #
cone-surface $-1 -51.624736711088048 22.93945522374063 4.2090837724496115 0.87461971476443456 0 -0.48480960649040278 0.48480960649040278 0 0.87461971476443456 1 I I 0 1 1 forward I I I I #
face $-1 $112 $113 $27 $-1 $114 reversed single #
loop $-1 $-1 $115 $45 #
plane-surface $-1 0 0 -9.062480020674375 0 0 1 1 0 0 forward_v I I I I #
coedge $-1 $116 $117 $118 $119 forward $46 $-1 #
face $-1 $120 $121 $28 $-1 $122 reversed single #
loop $-1 $-1 $123 $48 #
plane-surface $-1 0 -25.444719818171876 7.562480020674375 0 -1 0 0 0 -1 forward_v I I I I #
coedge $-1 $124 $125 $126 $127 reversed $49 $-1 #
face $-1 $128 $129 $29 $-1 $130 forward single #
loop $-1 $-1 $131 $51 #
plane-surface $-1 0 25.444719818171883 7.562480020674375 0 1 0 0 0 1 forward_v I I I I #
coedge $-1 $132 $133 $134 $135 reversed $52 $-1 #
face $-1 $136 $137 $30 $-1 $138 forward single #
loop $-1 $-1 $139 $54 #
plane-surface $-1 98.290520435194651 16.676293737662505 150.98761415815133 0 1 0 0.87461971476443456 0 0.48480960649040278 forward_v I I I I #
coedge $-1 $140 $141 $142 $143 reversed $55 $-1 #
face $-1 $-1 $144 $31 $-1 $145 forward single #
loop $-1 $146 $147 $57 #
cone-surface $-1 49.864913867853183 19.181558332093758 3.2335980776739142 -0.87461971476443456 0 -0.48480960649040278 0.24240480324520139 0 -0.43730985738221728 1 I I -0.70710678118654746 0.70710678118654746 0.5 forward I I I I #
loop $-1 $-1 $148 $40 #
coedge $-1 $92 $92 $149 $150 reversed $58 $-1 #
face $-1 $-1 $151 $32 $-1 $152 forward single #
loop $-1 $153 $154 $60 #
cone-surface $-1 49.864913867853183 22.93945522374063 3.2335980776739142 -0.87461971476443456 0 -0.48480960649040278 0.24240480324520139 0 -0.43730985738221728 1 I I -0.70710678118654746 0.70710678118654746 0.5 forward I I I I #
loop $-1 $-1 $155 $41 #
coedge $-1 $97 $97 $156 $157 reversed $61 $-1 #
face $-1 $158 $159 $33 $-1 $160 forward single #
loop $-1 $-1 $161 $63 #
plane-surface $-1 -55.231177709280672 21.06050677791719 0.82184930728583794 -0.87461971476443456 0 0.48480960649040278 0.48480960649040278 0 0.87461971476443456 forward_v I I I I #
coedge $-1 $162 $163 $164 $165 reversed $64 $-1 #
face $-1 $-1 $166 $34 $-1 $167 forward single #
loop $-1 $168 $169 $66 #
cone-surface $-1 -49.86491386785319 19.181558332093758 3.2335980776739071 0.87461971476443456 0 -0.48480960649040278 0.24240480324520139 0 0.43730985738221728 1 I I -0.70710678118654746 0.70710678118654746 0.5 forward I I I I #
loop $-1 $-1 $170 $43 #
coedge $-1 $106 $106 $171 $172 reversed $67 $-1 #
face $-1 $-1 $173 $35 $-1 $174 forward single #
loop $-1 $175 $176 $69 #
cone-surface $-1 -49.86491386785319 22.93945522374063 3.2335980776739071 0.87461971476443456 0 -0.48480960649040278 0.24240480324520139 0 0.43730985738221728 1 I I -0.70710678118654746 0.70710678118654746 0.5 forward I I I I #
loop $-1 $-1 $177 $44 #
coedge $-1 $111 $111 $178 $179 reversed $70 $-1 #
face $-1 $180 $181 $27 $-1 $182 reversed single #
loop $-1 $-1 $183 $72 #
plane-surface $-1 0 -36.536485123031341 0 0 1 0 0 0 1 forward_v I I I I #
coedge $-1 $184 $185 $186 $187 forward $73 $-1 #
coedge $-1 $188 $75 $189 $190 forward $46 $-1 #
coedge $-1 $75 $188 $191 $192 forward $46 $-1 #
coedge $-1 $193 $194 $75 $119 reversed $195 $-1 #
edge $-1 $196 -36.536485123031341 $197 36.536485123031341 $118 $198 forward 7 unknown #
face $-1 $199 $200 $28 $-1 $201 reversed single #
loop $-1 $-1 $202 $76 #
plane-surface $-1 -55.231177709280679 0 0 1 0 0 0 0 -1 forward_v I I I I #
coedge $-1 $203 $204 $205 $206 reversed $77 $-1 #
coedge $-1 $207 $79 $208 $209 reversed $49 $-1 #
coedge $-1 $79 $207 $203 $210 forward $49 $-1 #
coedge $-1 $205 $211 $79 $127 forward $212 $-1 #
edge $-1 $213 -21.041183887730536 $214 -9.9494185828710719 $126 $215 forward 7 unknown #
face $-1 $216 $217 $29 $-1 $218 reversed single #
loop $-1 $-1 $219 $80 #
plane-surface $-1 0 0 9.062480020674375 0 0 1 1 0 0 forward_v I I I I #
coedge $-1 $220 $221 $132 $222 reversed $81 $-1 #
coedge $-1 $223 $83 $131 $222 forward $52 $-1 #
coedge $-1 $83 $223 $224 $225 reversed $52 $-1 #
coedge $-1 $226 $227 $83 $135 forward $217 $-1 #
edge $-1 $228 9.9494185828710755 $229 21.04118388773054 $134 $230 forward 7 unknown #
face $-1 $231 $232 $30 $-1 $233 reversed single #
loop $-1 $-1 $142 $84 #
plane-surface $-1 0 0 9.062480020674375 0 0 1 1 0 0 forward_v I I I I #
coedge $-1 $234 $235 $236 $237 reversed $85 $-1 #
coedge $-1 $238 $87 $239 $240 reversed $55 $-1 #
coedge $-1 $87 $238 $234 $241 forward $55 $-1 #
coedge $-1 $236 $242 $87 $143 forward $137 $-1 #
edge $-1 $243 -14.914466429213288 $244 -6.1460403487039095 $142 $245 forward 7 unknown #
loop $-1 $-1 $149 $88 #
plane-surface $-1 1.6779666468049186 21.06050677791719 97.434403095675577 0.87461971476443456 0 0.48480960649040278 0.48480960649040278 0 -0.87461971476443456 forward_v I I I I #
loop $-1 $-1 $246 $57 #
coedge $-1 $147 $147 $148 $247 reversed $89 $-1 #
coedge $-1 $148 $148 $147 $247 forward $91 $-1 #
coedge $-1 $149 $149 $92 $150 forward $144 $-1 #
edge $-1 $248 0 $248 6.2831853071796004 $149 $249 forward 7 unknown #
loop $-1 $-1 $156 $93 #
plane-surface $-1 1.6779666468049186 21.06050677791719 97.434403095675577 0.87461971476443456 0 0.48480960649040278 0.48480960649040278 0 -0.87461971476443456 forward_v I I I I #
loop $-1 $-1 $250 $60 #
coedge $-1 $154 $154 $155 $251 reversed $94 $-1 #
coedge $-1 $155 $155 $154 $251 forward $96 $-1 #
coedge $-1 $156 $156 $97 $157 forward $151 $-1 #
edge $-1 $252 0 $252 6.2831853071796004 $156 $253 forward 7 unknown #
face $-1 $254 $255 $33 $-1 $256 forward single #
loop $-1 $-1 $257 $98 #
plane-surface $-1 0 25.444719818171883 7.562480020674375 0 1 0 0 0 1 forward_v I I I I #
coedge $-1 $258 $259 $260 $261 reversed $99 $-1 #
coedge $-1 $163 $101 $262 $263 reversed $64 $-1 #
coedge $-1 $101 $162 $258 $264 reversed $64 $-1 #
coedge $-1 $260 $265 $101 $165 forward $255 $-1 #
edge $-1 $266 20.690688039554523 $267 25.258544064234528 $164 $268 forward 7 unknown #
loop $-1 $-1 $171 $102 #
plane-surface $-1 -55.231177709280672 21.06050677791719 0.82184930728583794 -0.87461971476443456 0 0.48480960649040278 0.48480960649040278 0 0.87461971476443456 forward_v I I I I #
loop $-1 $-1 $269 $66 #
coedge $-1 $169 $169 $170 $270 reversed $103 $-1 #
coedge $-1 $170 $170 $169 $270 forward $105 $-1 #
coedge $-1 $171 $171 $106 $172 forward $166 $-1 #
edge $-1 $271 0 $271 6.2831853071796004 $171 $272 forward 7 unknown #
loop $-1 $-1 $178 $107 #
plane-surface $-1 -55.231177709280672 21.06050677791719 0.82184930728583794 -0.87461971476443456 0 0.48480960649040278 0.48480960649040278 0 0.87461971476443456 forward_v I I I I #
loop $-1 $-1 $273 $69 #
coedge $-1 $176 $176 $177 $274 reversed $108 $-1 #
coedge $-1 $177 $177 $176 $274 forward $110 $-1 #
coedge $-1 $178 $178 $111 $179 forward $173 $-1 #
edge $-1 $275 0 $275 6.2831853071796004 $178 $276 forward 7 unknown #
face $-1 $277 $278 $27 $-1 $279 reversed single #
loop $-1 $-1 $280 $112 #
plane-surface $-1 -55.231177709280679 0 0 1 0 0 0 0 -1 forward_v I I I I #
coedge $-1 $281 $191 $282 $283 forward $113 $-1 #
coedge $-1 $284 $115 $281 $285 forward $73 $-1 #
coedge $-1 $115 $284 $286 $287 forward $73 $-1 #
coedge $-1 $194 $193 $115 $187 reversed $195 $-1 #
edge $-1 $288 -36.536485123031341 $289 36.536485123031341 $186 $290 forward 7 unknown #
coedge $-1 $117 $116 $291 $292 forward $46 $-1 #
coedge $-1 $293 $294 $116 $190 reversed $278 $-1 #
edge $-1 $197 -55.231177709280679 $295 55.231177709280679 $189 $296 forward 7 unknown #
coedge $-1 $183 $297 $117 $192 reversed $113 $-1 #
edge $-1 $298 -55.231177709280679 $196 55.231177709280679 $191 $299 forward 7 unknown #
coedge $-1 $186 $118 $297 $300 forward $195 $-1 #
coedge $-1 $118 $186 $293 $301 reversed $195 $-1 #
loop $-1 $-1 $193 $277 #
vertex $-1 $119 $302 #
vertex $-1 $119 $303 #
straight-curve $-1 55.231177709280679 0 9.062480020674375 0 1 0 I I #
face $-1 $304 $305 $28 $-1 $306 forward single #
loop $-1 $-1 $208 $120 #
plane-surface $-1 0 -36.536485123031341 0 0 1 0 0 0 1 forward_v I I I I #
coedge $-1 $307 $308 $309 $310 forward $121 $-1 #
coedge $-1 $309 $123 $125 $210 reversed $77 $-1 #
coedge $-1 $123 $309 $311 $312 reversed $77 $-1 #
coedge $-1 $313 $126 $123 $206 forward $212 $-1 #
edge $-1 $214 2.2812400103371875 $314 5.2812400103371875 $205 $315 forward 7 unknown #
coedge $-1 $125 $124 $307 $316 reversed $49 $-1 #
coedge $-1 $317 $318 $124 $209 forward $200 $-1 #
edge $-1 $319 -55.231177709280679 $213 55.231177709280679 $208 $320 forward 7 unknown #
edge $-1 $321 -55.231177709280679 $214 55.231177709280679 $203 $322 forward 7 unknown #
coedge $-1 $126 $313 $317 $323 forward $212 $-1 #
loop $-1 $-1 $205 $304 #
vertex $-1 $209 $324 #
vertex $-1 $127 $325 #
straight-curve $-1 55.231177709280679 -15.495301235300804 6.062480020674375 0 1 0 I I #
face $-1 $326 $327 $29 $-1 $328 reversed single #
loop $-1 $-1 $227 $128 #
plane-surface $-1 55.231177709280679 0 0 -1 0 0 0 0 1 forward_v I I I I #
coedge $-1 $329 $330 $331 $332 forward $129 $-1 #
coedge $-1 $331 $131 $227 $333 reversed $81 $-1 #
coedge $-1 $131 $331 $334 $335 reversed $81 $-1 #
edge $-1 $228 -55.231177709280679 $336 55.231177709280679 $131 $337 forward 7 unknown #
coedge $-1 $133 $132 $338 $339 reversed $52 $-1 #
coedge $-1 $340 $341 $133 $225 forward $342 $-1 #
edge $-1 $229 -55.231177709280679 $343 55.231177709280679 $224 $344 forward 7 unknown #
coedge $-1 $345 $134 $341 $346 reversed $217 $-1 #
coedge $-1 $134 $345 $220 $333 forward $217 $-1 #
vertex $-1 $135 $347 #
vertex $-1 $225 $348 #
straight-curve $-1 55.231177709280679 15.495301235300808 6.062480020674375 0 1 0 I I #
face $-1 $-1 $349 $30 $-1 $350 forward single #
loop $-1 $-1 $351 $136 #
plane-surface $-1 55.231177709280679 0 0 -1 0 0 0 0 1 forward_v I I I I #
coedge $-1 $235 $139 $141 $241 reversed $85 $-1 #
coedge $-1 $139 $234 $351 $352 reversed $85 $-1 #
coedge $-1 $353 $142 $139 $237 forward $137 $-1 #
edge $-1 $244 1.5180614670033421 $354 6.0859174916833538 $236 $355 forward 7 unknown #
coedge $-1 $141 $140 $356 $357 reversed $55 $-1 #
coedge $-1 $358 $359 $140 $240 forward $349 $-1 #
edge $-1 $360 -71.567224730837779 $243 -62.145266164984918 $239 $361 forward 7 unknown #
edge $-1 $362 -110.4623554185614 $244 -101.04039685270854 $234 $363 forward 7 unknown #
coedge $-1 $142 $353 $358 $364 forward $137 $-1 #
vertex $-1 $240 $365 #
vertex $-1 $143 $366 #
straight-curve $-1 50.66332168460066 10.530253388958595 9.0624800206743856 0 -1 0 I I #
coedge $-1 $246 $246 $-1 $367 reversed $146 $-1 #
edge $-1 $368 0 $368 6.2831853071796004 $147 $369 forward 7 unknown #
vertex $-1 $150 $370 #
ellipse-curve $-1 52.947249696940666 19.181558332093758 4.9421646639801144 0.87461971476443456 0 0.48480960649040278 0.48480960649040278 0 -0.87461971476443456 1 I I #
coedge $-1 $250 $250 $-1 $371 reversed $153 $-1 #
edge $-1 $372 0 $372 6.2831853071796004 $154 $373 forward 7 unknown #
vertex $-1 $157 $374 #
ellipse-curve $-1 52.947249696940666 22.93945522374063 4.9421646639801144 0.87461971476443456 0 0.48480960649040278 0.48480960649040278 0 -0.87461971476443456 1 I I #
face $-1 $-1 $375 $33 $-1 $376 reversed single #
loop $-1 $-1 $260 $158 #
plane-surface $-1 0 0 9.062480020674375 0 0 1 1 0 0 forward_v I I I I #
coedge $-1 $377 $378 $259 $379 reversed $159 $-1 #
coedge $-1 $380 $161 $163 $264 forward $99 $-1 #
coedge $-1 $161 $380 $257 $379 forward $99 $-1 #
coedge $-1 $381 $164 $161 $261 forward $255 $-1 #
edge $-1 $267 6.1460403487039095 $382 14.914466429213288 $260 $383 forward 7 unknown #
coedge $-1 $384 $385 $162 $263 forward $375 $-1 #
edge $-1 $386 -26.365680877594968 $266 -18.125050164206417 $262 $387 forward 7 unknown #
edge $-1 $267 -9.4219585658528473 $386 1.4611543310094151e-014 $163 $388 forward 7 unknown #
coedge $-1 $164 $381 $384 $389 forward $255 $-1 #
vertex $-1 $263 $390 #
vertex $-1 $165 $391 #
straight-curve $-1 -75.921865748835202 16.676293737662505 9.062480020674375 1 0 0 I I #
coedge $-1 $269 $269 $-1 $392 reversed $168 $-1 #
edge $-1 $393 0 $393 6.2831853071796004 $169 $394 forward 7 unknown #
vertex $-1 $172 $395 #
ellipse-curve $-1 -52.947249696940673 19.181558332093758 4.9421646639801065 -0.87461971476443456 0 0.48480960649040278 0.48480960649040278 0 0.87461971476443456 1 I I #
coedge $-1 $273 $273 $-1 $396 reversed $175 $-1 #
edge $-1 $397 0 $397 6.2831853071796004 $176 $398 forward 7 unknown #
vertex $-1 $179 $399 #
ellipse-curve $-1 -52.947249696940673 22.93945522374063 4.9421646639801065 -0.87461971476443456 0 0.48480960649040278 0.48480960649040278 0 0.87461971476443456 1 I I #
face $-1 $-1 $195 $27 $-1 $400 reversed single #
loop $-1 $-1 $293 $180 #
plane-surface $-1 0 36.536485123031341 0 0 -1 0 0 0 -1 forward_v I I I I #
coedge $-1 $401 $291 $294 $402 forward $181 $-1 #
coedge $-1 $297 $183 $184 $285 reversed $113 $-1 #
coedge $-1 $291 $401 $183 $283 reversed $181 $-1 #
edge $-1 $298 -9.062480020674375 $403 9.062480020674375 $282 $404 forward 7 unknown #
coedge $-1 $185 $184 $401 $405 forward $73 $-1 #
edge $-1 $289 -55.231177709280679 $403 55.231177709280679 $281 $406 forward 7 unknown #
coedge $-1 $294 $293 $185 $287 reversed $278 $-1 #
edge $-1 $407 -55.231177709280679 $288 55.231177709280679 $286 $408 forward 7 unknown #
vertex $-1 $187 $409 #
vertex $-1 $300 $410 #
straight-curve $-1 55.231177709280679 0 -9.062480020674375 0 -1 0 I I #
coedge $-1 $280 $282 $188 $292 reversed $181 $-1 #
edge $-1 $295 -36.536485123031341 $298 36.536485123031341 $291 $411 forward 7 unknown #
coedge $-1 $286 $189 $194 $301 forward $278 $-1 #
coedge $-1 $189 $286 $280 $402 reversed $278 $-1 #
vertex $-1 $190 $412 #
straight-curve $-1 0 36.536485123031341 9.062480020674375 -1 0 0 I I #
coedge $-1 $191 $281 $193 $300 reversed $113 $-1 #
vertex $-1 $292 $413 #
straight-curve $-1 0 -36.536485123031341 9.062480020674375 1 0 0 I I #
edge $-1 $196 -9.062480020674375 $289 9.062480020674375 $193 $414 forward 7 unknown #
edge $-1 $197 -9.062480020674375 $288 9.062480020674375 $194 $415 forward 7 unknown #
point $-1 55.231177709280679 -36.536485123031341 9.062480020674375 #
point $-1 55.231177709280679 36.536485123031341 9.062480020674375 #
face $-1 $-1 $212 $28 $-1 $416 reversed single #
loop $-1 $-1 $311 $199 #
plane-surface $-1 0 0 9.062480020674375 0 0 1 1 0 0 forward_v I I I I #
coedge $-1 $417 $202 $207 $316 forward $121 $-1 #
coedge $-1 $202 $417 $418 $419 reversed $121 $-1 #
coedge $-1 $204 $203 $202 $310 reversed $77 $-1 #
edge $-1 $420 -5.2812400103371875 $321 -2.2812400103371875 $202 $421 forward 7 unknown #
coedge $-1 $418 $422 $204 $312 forward $305 $-1 #
edge $-1 $314 -55.231177709280679 $420 55.231177709280679 $311 $423 forward 7 unknown #
coedge $-1 $211 $205 $422 $424 reversed $212 $-1 #
vertex $-1 $206 $425 #
straight-curve $-1 55.231177709280679 -25.444719818171876 3.7812400103371875 0 0 1 I I #
edge $-1 $321 9.9494185828710719 $319 21.041183887730536 $307 $426 forward 7 unknown #
coedge $-1 $427 $208 $211 $323 reversed $200 $-1 #
coedge $-1 $208 $427 $417 $428 forward $200 $-1 #
vertex $-1 $209 $429 #
straight-curve $-1 0 -36.536485123031341 6.062480020674375 1 0 0 I I #
vertex $-1 $316 $430 #
straight-curve $-1 0 -25.444719818171876 6.062480020674375 1 0 0 I I #
edge $-1 $431 -9.062480020674375 $213 -6.062480020674375 $211 $432 forward 7 unknown #
point $-1 55.231177709280679 -36.536485123031341 6.062480020674375 #
point $-1 55.231177709280679 -25.444719818171876 6.062480020674375 #
face $-1 $-1 $342 $29 $-1 $433 reversed single #
loop $-1 $-1 $334 $216 #
plane-surface $-1 -55.231177709280679 0 0 1 0 0 0 0 -1 forward_v I I I I #
coedge $-1 $434 $219 $345 $435 forward $129 $-1 #
coedge $-1 $219 $434 $436 $437 forward $129 $-1 #
coedge $-1 $221 $220 $219 $332 reversed $81 $-1 #
edge $-1 $438 -55.231177709280679 $439 55.231177709280679 $219 $440 forward 7 unknown #
edge $-1 $439 -5.2812400103371875 $228 -2.2812400103371875 $227 $441 forward 7 unknown #
coedge $-1 $436 $338 $221 $335 forward $327 $-1 #
edge $-1 $336 2.2812400103371875 $438 5.2812400103371875 $334 $442 forward 7 unknown #
vertex $-1 $339 $443 #
straight-curve $-1 0 25.444719818171883 6.062480020674375 -1 0 0 I I #
coedge $-1 $334 $444 $223 $339 forward $327 $-1 #
edge $-1 $343 -21.04118388773054 $336 -9.9494185828710755 $338 $445 forward 7 unknown #
coedge $-1 $446 $224 $444 $447 reversed $342 $-1 #
coedge $-1 $224 $446 $226 $346 forward $342 $-1 #
loop $-1 $-1 $224 $326 #
vertex $-1 $225 $448 #
straight-curve $-1 0 36.536485123031341 6.062480020674375 -1 0 0 I I #
coedge $-1 $227 $226 $329 $435 reversed $217 $-1 #
edge $-1 $449 -9.062480020674375 $229 -6.062480020674375 $226 $450 forward 7 unknown #
point $-1 55.231177709280679 25.444719818171883 6.062480020674375 #
point $-1 55.231177709280679 36.536485123031348 6.062480020674375 #
loop $-1 $-1 $239 $231 #
plane-surface $-1 0 25.444719818171883 7.562480020674375 0 1 0 0 0 1 forward_v I I I I #
coedge $-1 $356 $451 $235 $352 forward $232 $-1 #
edge $-1 $354 66.431327058401294 $362 74.671957771789849 $351 $452 forward 7 unknown #
coedge $-1 $242 $236 $451 $453 forward $137 $-1 #
vertex $-1 $453 $454 #
straight-curve $-1 49.145260217597325 16.676293737662505 9.0624800206743714 1 0 0 I I #
coedge $-1 $455 $351 $238 $357 forward $232 $-1 #
edge $-1 $362 6.1460403487039095 $360 14.914466429213281 $356 $456 forward 7 unknown #
coedge $-1 $359 $239 $242 $364 reversed $349 $-1 #
coedge $-1 $239 $358 $455 $457 reversed $349 $-1 #
vertex $-1 $457 $458 #
straight-curve $-1 20.534699649912998 25.444719818171883 63.41595498785334 -0.48480960649040278 0 0.87461971476443456 I I #
vertex $-1 $357 $459 #
straight-curve $-1 1.6779666468049186 16.676293737662505 97.434403095675577 -0.48480960649040278 0 0.87461971476443456 I I #
edge $-1 $460 -55.231177709280679 $243 -50.663321684600668 $242 $461 forward 7 unknown #
point $-1 50.663321684600668 25.444719818171883 9.062480020674375 #
point $-1 50.663321684600668 16.676293737662505 9.0624800206743714 #
edge $-1 $462 1 $462 0 $246 $-1 forward 7 unknown #
vertex $-1 $247 $463 #
ellipse-curve $-1 50.3022237252354 19.181558332093758 3.4760028809191157 0.87461971476443456 0 0.48480960649040278 0.48480960649040278 0 -0.87461971476443456 1 I I #
point $-1 53.432059303431082 19.181558332093758 4.0675449492156872 #
edge $-1 $464 1 $464 0 $250 $-1 forward 7 unknown #
vertex $-1 $251 $465 #
ellipse-curve $-1 50.3022237252354 22.93945522374063 3.4760028809191157 0.87461971476443456 0 0.48480960649040278 0.48480960649040278 0 -0.87461971476443456 1 I I #
point $-1 53.432059303431082 22.93945522374063 4.0675449492156872 #
loop $-1 $-1 $262 $254 #
plane-surface $-1 -55.231177709280679 0 0 1 0 0 0 0 -1 forward_v I I I I #
coedge $-1 $378 $257 $466 $467 reversed $159 $-1 #
coedge $-1 $257 $377 $381 $468 reversed $159 $-1 #
edge $-1 $469 -1.4611543310094151e-014 $382 9.4219585658528473 $257 $470 forward 7 unknown #
coedge $-1 $259 $258 $385 $471 reversed $99 $-1 #
coedge $-1 $265 $260 $378 $468 forward $255 $-1 #
vertex $-1 $468 $472 #
straight-curve $-1 -50.663321684600675 10.530253388958595 9.062480020674375 0 1 0 I I #
coedge $-1 $466 $262 $265 $389 reversed $375 $-1 #
coedge $-1 $262 $466 $380 $471 forward $375 $-1 #
vertex $-1 $263 $473 #
straight-curve $-1 -55.231177709280679 16.676293737662505 27.187530184880792 0 0 1 I I #
straight-curve $-1 -55.231177709280672 16.676293737662505 0.82184930728583794 -0.48480960649040278 0 -0.87461971476443456 I I #
edge $-1 $474 -25.444719818171883 $266 -16.676293737662505 $384 $475 forward 7 unknown #
point $-1 -55.231177709280679 16.676293737662505 9.062480020674375 #
point $-1 -50.663321684600675 16.676293737662505 9.062480020674375 #
edge $-1 $476 1 $476 0 $269 $-1 forward 7 unknown #
vertex $-1 $270 $477 #
ellipse-curve $-1 -50.302223725235407 19.181558332093758 3.4760028809191086 -0.87461971476443456 0 0.48480960649040278 0.48480960649040278 0 0.87461971476443456 1 I I #
point $-1 -52.462440090450286 19.181558332093758 5.8167843787445488 #
edge $-1 $478 1 $478 0 $273 $-1 forward 7 unknown #
vertex $-1 $274 $479 #
ellipse-curve $-1 -50.302223725235407 22.93945522374063 3.4760028809191086 -0.87461971476443456 0 0.48480960649040278 0.48480960649040278 0 0.87461971476443456 1 I I #
point $-1 -52.462440090450286 22.93945522374063 5.8167843787445488 #
plane-surface $-1 55.231177709280679 0 0 -1 0 0 0 0 1 forward_v I I I I #
coedge $-1 $282 $280 $284 $405 reversed $181 $-1 #
edge $-1 $295 -9.062480020674375 $407 9.062480020674375 $294 $480 forward 7 unknown #
vertex $-1 $405 $481 #
straight-curve $-1 -55.231177709280679 -36.536485123031341 0 0 0 -1 I I #
edge $-1 $403 -36.536485123031341 $407 36.536485123031341 $401 $482 forward 7 unknown #
straight-curve $-1 0 -36.536485123031341 -9.062480020674375 -1 0 0 I I #
vertex $-1 $287 $483 #
straight-curve $-1 0 36.536485123031341 -9.062480020674375 1 0 0 I I #
point $-1 55.231177709280679 36.536485123031341 -9.062480020674375 #
point $-1 55.231177709280679 -36.536485123031341 -9.062480020674375 #
straight-curve $-1 -55.231177709280679 0 9.062480020674375 0 -1 0 I I #
point $-1 -55.231177709280679 36.536485123031341 9.062480020674375 #
point $-1 -55.231177709280679 -36.536485123031341 9.062480020674375 #
straight-curve $-1 55.231177709280679 -36.536485123031341 0 0 0 -1 I I #
straight-curve $-1 55.231177709280679 36.536485123031341 0 0 0 -1 I I #
plane-surface $-1 55.231177709280679 0 0 -1 0 0 0 0 1 forward_v I I I I #
coedge $-1 $308 $307 $318 $428 reversed $121 $-1 #
coedge $-1 $484 $311 $308 $419 forward $305 $-1 #
edge $-1 $420 25.444719818171876 $485 36.536485123031341 $308 $486 forward 7 unknown #
vertex $-1 $419 $487 #
straight-curve $-1 -55.231177709280679 -25.444719818171876 3.7812400103371875 0 0 -1 I I #
coedge $-1 $311 $484 $313 $424 forward $305 $-1 #
straight-curve $-1 0 -25.444719818171876 9.062480020674375 -1 0 0 I I #
edge $-1 $431 -36.536485123031341 $314 -25.444719818171876 $313 $488 forward 7 unknown #
point $-1 55.231177709280679 -25.444719818171876 9.062480020674375 #
straight-curve $-1 -55.231177709280679 -15.495301235300804 6.062480020674375 0 -1 0 I I #
coedge $-1 $318 $317 $484 $489 reversed $200 $-1 #
edge $-1 $485 -9.062480020674375 $319 -6.062480020674375 $417 $490 forward 7 unknown #
point $-1 -55.231177709280679 -36.536485123031341 6.062480020674375 #
point $-1 -55.231177709280679 -25.444719818171876 6.062480020674375 #
vertex $-1 $424 $491 #
straight-curve $-1 55.231177709280679 -36.536485123031341 0 0 0 -1 I I #
plane-surface $-1 0 36.536485123031341 0 0 -1 0 0 0 -1 forward_v I I I I #
coedge $-1 $330 $329 $446 $492 forward $129 $-1 #
edge $-1 $439 25.444719818171883 $449 36.536485123031341 $345 $493 forward 7 unknown #
coedge $-1 $444 $334 $330 $437 reversed $327 $-1 #
edge $-1 $494 -36.536485123031341 $438 -25.444719818171883 $436 $495 forward 7 unknown #
vertex $-1 $335 $496 #
vertex $-1 $435 $497 #
straight-curve $-1 0 25.444719818171883 9.062480020674375 1 0 0 I I #
straight-curve $-1 55.231177709280679 25.444719818171883 3.7812400103371875 0 0 -1 I I #
straight-curve $-1 -55.231177709280679 25.444719818171883 3.7812400103371875 0 0 1 I I #
point $-1 -55.231177709280679 25.444719818171883 6.062480020674375 #
coedge $-1 $338 $436 $340 $447 forward $327 $-1 #
straight-curve $-1 -55.231177709280679 15.495301235300808 6.062480020674375 0 -1 0 I I #
coedge $-1 $341 $340 $434 $492 reversed $342 $-1 #
edge $-1 $494 -9.062480020674375 $343 -6.062480020674375 $340 $498 forward 7 unknown #
point $-1 -55.231177709280679 36.536485123031348 6.062480020674375 #
vertex $-1 $435 $499 #
straight-curve $-1 55.231177709280679 36.536485123031341 0 0 0 -1 I I #
coedge $-1 $351 $455 $353 $453 reversed $232 $-1 #
straight-curve $-1 55.231177709280679 16.676293737662505 75.493807079075665 0 0 -1 I I #
edge $-1 $354 16.676293737662505 $460 25.444719818171883 $451 $500 forward 7 unknown #
point $-1 55.231177709280679 16.676293737662505 9.062480020674375 #
coedge $-1 $451 $356 $359 $457 forward $232 $-1 #
straight-curve $-1 55.231177709280679 10.530253388958595 0.82184930728582373 0 1 0 I I #
edge $-1 $360 -74.671957771789849 $460 -66.431327058401294 $455 $501 forward 7 unknown #
point $-1 55.231177709280679 25.444719818171876 0.82184930728581662 #
point $-1 55.231177709280679 16.676293737662505 0.82184930728581662 #
vertex $-1 $364 $502 #
straight-curve $-1 0 25.444719818171883 9.062480020674375 -1 0 0 I I #
vertex $-1 $367 $503 #
point $-1 50.787033331725802 19.181558332093758 2.6013831661546809 #
vertex $-1 $371 $504 #
point $-1 50.787033331725802 22.93945522374063 2.6013831661546809 #
coedge $-1 $385 $384 $377 $467 forward $375 $-1 #
edge $-1 $474 18.125050164206417 $469 26.365680877594968 $466 $505 forward 7 unknown #
edge $-1 $382 50.663321684600675 $474 55.231177709280679 $381 $506 forward 7 unknown #
vertex $-1 $467 $507 #
straight-curve $-1 -55.231177709280672 25.444719818171876 0.82184930728583794 0.48480960649040278 0 0.87461971476443456 I I #
edge $-1 $469 -14.914466429213281 $386 -6.1460403487039095 $385 $508 forward 7 unknown #
point $-1 -50.663321684600675 25.444719818171883 9.062480020674375 #
point $-1 -55.231177709280679 16.676293737662505 0.82184930728582517 #
vertex $-1 $389 $509 #
straight-curve $-1 -55.231177709280679 0 9.062480020674375 0 -1 0 I I #
vertex $-1 $392 $510 #
point $-1 -49.817414118745006 19.181558332093758 4.3506225956835429 #
vertex $-1 $396 $511 #
point $-1 -49.817414118745006 22.93945522374063 4.3506225956835429 #
straight-curve $-1 -55.231177709280679 36.536485123031341 0 0 0 -1 I I #
point $-1 -55.231177709280679 -36.536485123031341 -9.062480020674375 #
straight-curve $-1 -55.231177709280679 0 -9.062480020674375 0 1 0 I I #
point $-1 -55.231177709280679 36.536485123031341 -9.062480020674375 #
coedge $-1 $422 $418 $427 $489 forward $305 $-1 #
vertex $-1 $419 $512 #
straight-curve $-1 -55.231177709280679 0 9.062480020674375 0 -1 0 I I #
point $-1 -55.231177709280679 -25.444719818171876 9.062480020674375 #
straight-curve $-1 55.231177709280679 0 9.062480020674375 0 1 0 I I #
edge $-1 $485 -55.231177709280679 $431 55.231177709280679 $427 $513 forward 7 unknown #
straight-curve $-1 -55.231177709280679 -36.536485123031341 0 0 0 -1 I I #
point $-1 55.231177709280679 -36.536485123031341 9.062480020674375 #
edge $-1 $449 -55.231177709280679 $494 55.231177709280679 $446 $514 forward 7 unknown #
straight-curve $-1 55.231177709280679 0 9.062480020674375 0 1 0 I I #
vertex $-1 $492 $515 #
straight-curve $-1 -55.231177709280679 0 9.062480020674375 0 -1 0 I I #
point $-1 -55.231177709280679 25.444719818171883 9.062480020674375 #
point $-1 55.231177709280679 25.444719818171883 9.062480020674375 #
straight-curve $-1 -55.231177709280679 36.536485123031341 0 0 0 -1 I I #
point $-1 55.231177709280679 36.536485123031341 9.062480020674375 #
straight-curve $-1 55.231177709280679 0 9.062480020674375 0 1 0 I I #
straight-curve $-1 55.231177709280679 25.444719818171876 75.493807079075665 0 0 1 I I #
point $-1 55.231177709280679 25.444719818171883 9.062480020674375 #
point $-1 49.427604010470965 19.181558332093758 2.9911932744287126 #
point $-1 49.427604010470965 22.93945522374063 2.9911932744287126 #
straight-curve $-1 -55.231177709280679 25.444719818171876 27.187530184880792 0 0 -1 I I #
straight-curve $-1 0 25.444719818171883 9.062480020674375 -1 0 0 I I #
point $-1 -55.231177709280679 25.444719818171876 0.82184930728582517 #
straight-curve $-1 -55.231177709280679 10.530253388958595 0.82184930728581351 0 -1 0 I I #
point $-1 -55.231177709280679 25.444719818171883 9.062480020674375 #
point $-1 -49.427604010470972 19.181558332093758 2.9911932744287055 #
point $-1 -49.427604010470972 22.93945522374063 2.9911932744287055 #
point $-1 -55.231177709280679 -36.536485123031341 9.062480020674375 #
straight-curve $-1 0 -36.536485123031341 9.062480020674375 1 0 0 I I #
straight-curve $-1 0 36.536485123031341 9.062480020674375 -1 0 0 I I #
point $-1 -55.231177709280679 36.536485123031341 9.062480020674375 #
End-of-ACIS-data 