500 0 6 0           
7 Unknown 11 ACIS 5.0 NT 24 Fri Mar 26 17:49:12 1999 
-1 9.9999999999999995e-007 1e-010 
body $-1 $6 $-1 $7 #
body $-1 $8 $-1 $9 #
body $-1 $10 $-1 $11 #
body $-1 $12 $-1 $13 #
body $-1 $14 $-1 $15 #
body $-1 $16 $-1 $17 #
lump $-1 $-1 $18 $0 #
transform $-1 1 0 0 0 1 0 0 0 1 78.19940794091616 46.370743008929381 19.159790414856229 1 rotate no_reflect no_shear #
lump $-1 $-1 $19 $1 #
transform $-1 1 0 0 0 1 0 0 0 1 78.19940794091616 46.370743008929381 19.159790414856229 1 rotate no_reflect no_shear #
lump $-1 $-1 $20 $2 #
transform $-1 1 0 0 0 1 0 0 0 1 78.19940794091616 46.370743008929381 19.159790414856229 1 rotate no_reflect no_shear #
lump $-1 $-1 $21 $3 #
transform $-1 1 0 0 0 1 0 0 0 1 78.19940794091616 46.370743008929381 19.159790414856229 1 rotate no_reflect no_shear #
lump $-1 $-1 $22 $4 #
transform $-1 1 0 0 0 1 0 0 0 1 78.19940794091616 46.370743008929381 19.159790414856229 1 rotate no_reflect no_shear #
lump $-1 $-1 $23 $5 #
transform $-1 1 0 0 0 1 0 0 0 1 78.19940794091616 46.370743008929381 19.159790414856229 1 rotate no_reflect no_shear #
shell $-1 $-1 $-1 $24 $-1 $6 #
shell $-1 $-1 $-1 $25 $-1 $8 #
shell $-1 $-1 $-1 $26 $-1 $10 #
shell $-1 $-1 $-1 $27 $-1 $12 #
shell $-1 $-1 $-1 $28 $-1 $14 #
shell $-1 $-1 $-1 $29 $-1 $16 #
face $-1 $30 $31 $18 $-1 $32 forward single #
face $-1 $33 $34 $19 $-1 $35 reversed single #
face $-1 $36 $37 $20 $-1 $38 reversed single #
face $-1 $39 $40 $21 $-1 $41 forward single #
face $-1 $42 $43 $22 $-1 $44 reversed single #
face $-1 $45 $46 $23 $-1 $47 forward single #
face $-1 $48 $49 $18 $-1 $50 reversed single #
loop $-1 $-1 $51 $24 #
plane-surface $-1 0 0 19.159790414856229 0 0 1 1 0 0 forward_v I I I I #
face $-1 $52 $53 $19 $-1 $54 reversed single #
loop $-1 $-1 $55 $25 #
plane-surface $-1 -51.045680738450983 -35.314888459194314 0 1 0 0 0 0 -1 forward_v I I I I #
face $-1 $56 $57 $20 $-1 $58 reversed single #
loop $-1 $-1 $59 $26 #
plane-surface $-1 89.775146903074528 42.634270425524861 222.19448307635321 0 -1 0 -0.74314483375859142 0 -0.66913059716165679 forward_v I I I I #
face $-1 $60 $61 $21 $-1 $62 forward single #
loop $-1 $63 $64 $27 #
cone-surface $-1 69.061666003787977 36.967096806182795 9.2434868514712196 -0.74314483375859142 0 -0.66913059716165679 0.66913059716165679 0 -0.74314483375859142 1 I I 0 1 1 forward I I I I #
face $-1 $65 $66 $22 $-1 $67 reversed single #
loop $-1 $-1 $68 $28 #
plane-surface $-1 -213.64475682613829 28.01772873383878 90.463131796866747 0 1 0 -0.86602541151947299 0 0.49999998660252726 forward_v I I I I #
face $-1 $69 $70 $23 $-1 $71 forward single #
loop $-1 $72 $73 $29 #
cone-surface $-1 -74.503031619279184 35.186434461745847 14.726998390134016 0.86602541151947299 0 -0.49999998660252726 0.74999997990379086 0 1.2990381172792094 1 I I 0 1 1.5 forward I I I I #
face $-1 $74 $75 $18 $-1 $76 reversed single #
loop $-1 $-1 $77 $30 #
plane-surface $-1 0 0 -19.159790414856229 0 0 1 1 0 0 forward_v I I I I #
coedge $-1 $78 $79 $80 $81 forward $31 $-1 #
face $-1 $82 $83 $19 $-1 $84 reversed single #
loop $-1 $-1 $85 $33 #
plane-surface $-1 -45.462753924827339 -24.259033909459248 0 0 -1 0 0 0 -1 forward_v I I I I #
coedge $-1 $86 $87 $88 $89 forward $34 $-1 #
face $-1 $90 $91 $20 $-1 $92 reversed single #
loop $-1 $-1 $93 $36 #
plane-surface $-1 -26.451825125470293 36.967096806182795 117.54325000996674 0.74314483375859142 0 0.66913059716165679 0.66913059716165679 0 -0.74314483375859142 forward_v I I I I #
coedge $-1 $94 $95 $96 $97 reversed $37 $-1 #
face $-1 $-1 $98 $21 $-1 $99 forward single #
loop $-1 $100 $101 $39 #
cone-surface $-1 67.585536829618491 36.967096806182795 7.9143742062225364 -0.74314483375859142 0 -0.66913059716165679 0.3345652985808284 0 -0.37157241687929571 1 I I -0.70710678118654746 0.70710678118654746 0.5 forward I I I I #
loop $-1 $-1 $102 $27 #
coedge $-1 $64 $64 $103 $104 reversed $40 $-1 #
face $-1 $105 $106 $22 $-1 $107 reversed single #
loop $-1 $-1 $108 $42 #
plane-surface $-1 -78.19940794091616 35.186434461745847 12.263725951299463 -0.86602541151947299 0 0.49999998660252726 0.49999998660252726 0 0.86602541151947299 forward_v I I I I #
coedge $-1 $109 $110 $111 $112 reversed $43 $-1 #
face $-1 $-1 $113 $23 $-1 $114 forward single #
loop $-1 $115 $116 $45 #
cone-surface $-1 -72.147858505072634 35.186434461745847 13.367238607238281 0.86602541151947299 0 -0.49999998660252726 0.37499998995189543 0 0.64951905863960469 1 I I -0.70710678118654757 0.70710678118654757 0.75 forward I I I I #
loop $-1 $-1 $117 $29 #
coedge $-1 $73 $73 $118 $119 reversed $46 $-1 #
face $-1 $120 $121 $18 $-1 $122 reversed single #
loop $-1 $-1 $123 $48 #
plane-surface $-1 0 -46.370743008929381 0 0 1 0 0 0 1 forward_v I I I I #
coedge $-1 $124 $125 $126 $127 forward $49 $-1 #
coedge $-1 $128 $51 $129 $130 forward $31 $-1 #
coedge $-1 $51 $128 $131 $132 forward $31 $-1 #
coedge $-1 $133 $134 $51 $81 reversed $135 $-1 #
edge $-1 $136 -46.370743008929381 $137 46.370743008929381 $80 $138 forward 7 unknown #
face $-1 $139 $140 $19 $-1 $141 forward single #
loop $-1 $-1 $142 $52 #
plane-surface $-1 -39.879827111203696 -35.314888459194314 0 -1 0 0 0 0 1 forward_v I I I I #
coedge $-1 $143 $144 $145 $146 forward $53 $-1 #
coedge $-1 $147 $55 $148 $149 reversed $34 $-1 #
coedge $-1 $55 $147 $150 $151 reversed $34 $-1 #
coedge $-1 $144 $143 $55 $89 reversed $53 $-1 #
edge $-1 $152 -19.159790414856229 $153 19.159790414856229 $88 $154 forward 7 unknown #
face $-1 $155 $156 $20 $-1 $157 reversed single #
loop $-1 $-1 $158 $56 #
plane-surface $-1 89.775146903074528 31.299923186840729 222.19448307635321 0 1 0 0.74314483375859142 0 0.66913059716165679 forward_v I I I I #
coedge $-1 $159 $160 $161 $162 reversed $57 $-1 #
coedge $-1 $95 $59 $163 $164 reversed $37 $-1 #
coedge $-1 $59 $94 $159 $165 reversed $37 $-1 #
coedge $-1 $161 $166 $59 $97 forward $167 $-1 #
edge $-1 $168 -33.311834489378896 $169 -17.245464129702953 $96 $170 forward 7 unknown #
loop $-1 $-1 $103 $60 #
plane-surface $-1 -26.451825125470293 36.967096806182795 117.54325000996674 0.74314483375859142 0 0.66913059716165679 0.66913059716165679 0 -0.74314483375859142 forward_v I I I I #
loop $-1 $-1 $171 $39 #
coedge $-1 $101 $101 $102 $172 reversed $61 $-1 #
coedge $-1 $102 $102 $101 $172 forward $63 $-1 #
coedge $-1 $103 $103 $64 $104 forward $98 $-1 #
edge $-1 $173 0 $173 6.2831853071796004 $103 $174 forward 7 unknown #
face $-1 $175 $176 $22 $-1 $177 reversed single #
loop $-1 $-1 $178 $65 #
plane-surface $-1 -213.64475682613829 42.355140189652914 90.463131796866747 0 -1 0 0.86602541151947299 0 -0.49999998660252726 forward_v I I I I #
coedge $-1 $179 $180 $181 $182 reversed $66 $-1 #
coedge $-1 $110 $68 $183 $184 reversed $43 $-1 #
coedge $-1 $68 $109 $179 $185 reversed $43 $-1 #
coedge $-1 $181 $186 $68 $112 forward $187 $-1 #
edge $-1 $188 28.622970472152986 $189 32.604415004293045 $111 $190 forward 7 unknown #
loop $-1 $-1 $118 $69 #
plane-surface $-1 -78.19940794091616 35.186434461745847 12.263725951299463 -0.86602541151947299 0 0.49999998660252726 0.49999998660252726 0 0.86602541151947299 forward_v I I I I #
loop $-1 $-1 $191 $45 #
coedge $-1 $116 $116 $117 $192 reversed $70 $-1 #
coedge $-1 $117 $117 $116 $192 forward $72 $-1 #
coedge $-1 $118 $118 $73 $119 forward $113 $-1 #
edge $-1 $193 0 $193 6.2831853071796004 $118 $194 forward 7 unknown #
face $-1 $195 $196 $18 $-1 $197 reversed single #
loop $-1 $-1 $198 $74 #
plane-surface $-1 -78.19940794091616 0 0 1 0 0 0 0 -1 forward_v I I I I #
coedge $-1 $199 $131 $200 $201 forward $75 $-1 #
coedge $-1 $202 $77 $199 $203 forward $49 $-1 #
coedge $-1 $77 $202 $204 $205 forward $49 $-1 #
coedge $-1 $134 $133 $77 $127 reversed $135 $-1 #
edge $-1 $206 -46.370743008929381 $207 46.370743008929381 $126 $208 forward 7 unknown #
coedge $-1 $79 $78 $209 $210 forward $31 $-1 #
coedge $-1 $211 $212 $78 $130 reversed $196 $-1 #
edge $-1 $137 -78.19940794091616 $213 78.19940794091616 $129 $214 forward 7 unknown #
coedge $-1 $123 $215 $79 $132 reversed $75 $-1 #
edge $-1 $216 -78.19940794091616 $136 78.19940794091616 $131 $217 forward 7 unknown #
coedge $-1 $126 $80 $215 $218 forward $135 $-1 #
coedge $-1 $80 $126 $211 $219 reversed $135 $-1 #
loop $-1 $-1 $133 $195 #
vertex $-1 $81 $220 #
vertex $-1 $81 $221 #
straight-curve $-1 78.19940794091616 0 19.159790414856229 0 1 0 I I #
face $-1 $222 $223 $19 $-1 $224 reversed single #
loop $-1 $-1 $225 $82 #
plane-surface $-1 0 0 19.159790414856229 0 0 1 1 0 0 forward_v I I I I #
coedge $-1 $226 $227 $228 $229 reversed $83 $-1 #
coedge $-1 $88 $85 $230 $231 reversed $53 $-1 #
coedge $-1 $85 $88 $232 $233 reversed $53 $-1 #
coedge $-1 $227 $226 $85 $146 reversed $83 $-1 #
edge $-1 $234 -19.159790414856229 $235 19.159790414856229 $145 $236 forward 7 unknown #
coedge $-1 $87 $86 $237 $238 reversed $34 $-1 #
coedge $-1 $230 $239 $86 $149 forward $223 $-1 #
edge $-1 $240 -28.713298779332224 $153 -6.6015896798620908 $148 $241 forward 7 unknown #
coedge $-1 $242 $232 $87 $151 forward $140 $-1 #
edge $-1 $152 6.6015896798620908 $243 28.713298779332224 $150 $244 forward 7 unknown #
vertex $-1 $151 $245 #
vertex $-1 $149 $246 #
straight-curve $-1 -51.045680738450983 -24.259033909459248 0 0 0 -1 I I #
face $-1 $-1 $167 $20 $-1 $247 forward single #
loop $-1 $-1 $248 $90 #
plane-surface $-1 78.19940794091616 0 0 -1 0 0 0 0 1 forward_v I I I I #
coedge $-1 $249 $250 $251 $252 reversed $91 $-1 #
coedge $-1 $253 $93 $95 $165 forward $57 $-1 #
coedge $-1 $93 $253 $249 $254 forward $57 $-1 #
coedge $-1 $251 $96 $93 $162 forward $167 $-1 #
edge $-1 $169 -24.150722022433463 $255 -12.816374783749332 $161 $256 forward 7 unknown #
coedge $-1 $257 $258 $94 $164 forward $156 $-1 #
edge $-1 $259 -109.78096355675467 $168 -91.937451123320372 $163 $260 forward 7 unknown #
edge $-1 $169 132.38800180782806 $259 156.39881588183226 $95 $261 forward 7 unknown #
coedge $-1 $96 $251 $257 $262 forward $167 $-1 #
loop $-1 $-1 $251 $155 #
vertex $-1 $164 $263 #
vertex $-1 $97 $264 #
straight-curve $-1 44.887573451537264 42.634270425524861 19.159790414856232 -1 0 0 I I #
coedge $-1 $171 $171 $-1 $265 reversed $100 $-1 #
edge $-1 $266 0 $266 6.2831853071796004 $101 $267 forward 7 unknown #
vertex $-1 $104 $268 #
ellipse-curve $-1 70.166222761078188 36.967096806182795 10.238034198139093 0.74314483375859142 0 0.66913059716165679 0.66913059716165679 0 -0.74314483375859142 1 I I #
face $-1 $-1 $187 $22 $-1 $269 forward single #
loop $-1 $-1 $270 $105 #
plane-surface $-1 -78.19940794091616 0 0 1 0 0 0 0 -1 forward_v I I I I #
coedge $-1 $271 $272 $273 $274 reversed $106 $-1 #
coedge $-1 $275 $108 $110 $185 forward $66 $-1 #
coedge $-1 $108 $275 $271 $276 forward $66 $-1 #
coedge $-1 $273 $111 $108 $182 forward $187 $-1 #
edge $-1 $189 10.424511502965856 $277 24.761922958779991 $181 $278 forward 7 unknown #
coedge $-1 $279 $280 $109 $184 forward $176 $-1 #
edge $-1 $281 -32.967839947133911 $188 -26.071775483577145 $183 $282 forward 7 unknown #
edge $-1 $189 -7.9628892776452975 $281 0 $110 $283 forward 7 unknown #
coedge $-1 $111 $273 $279 $284 forward $187 $-1 #
loop $-1 $-1 $273 $175 #
vertex $-1 $184 $285 #
vertex $-1 $112 $286 #
straight-curve $-1 -106.82237841306915 28.01772873383878 19.159790414856225 1 0 0 I I #
coedge $-1 $191 $191 $-1 $287 reversed $115 $-1 #
edge $-1 $288 0 $288 6.2831853071796004 $116 $289 forward 7 unknown #
vertex $-1 $119 $290 #
ellipse-curve $-1 -76.208685674846123 35.186434461745847 15.711758183077853 -0.86602541151947299 0 0.49999998660252726 0.74999997990379086 0 1.2990381172792094 1 I I #
face $-1 $-1 $135 $18 $-1 $291 reversed single #
loop $-1 $-1 $211 $120 #
plane-surface $-1 0 46.370743008929381 0 0 -1 0 0 0 -1 forward_v I I I I #
coedge $-1 $292 $209 $212 $293 forward $121 $-1 #
coedge $-1 $215 $123 $124 $203 reversed $75 $-1 #
coedge $-1 $209 $292 $123 $201 reversed $121 $-1 #
edge $-1 $216 -19.159790414856229 $294 19.159790414856229 $200 $295 forward 7 unknown #
coedge $-1 $125 $124 $292 $296 forward $49 $-1 #
edge $-1 $207 -78.19940794091616 $294 78.19940794091616 $199 $297 forward 7 unknown #
coedge $-1 $212 $211 $125 $205 reversed $196 $-1 #
edge $-1 $298 -78.19940794091616 $206 78.19940794091616 $204 $299 forward 7 unknown #
vertex $-1 $127 $300 #
vertex $-1 $218 $301 #
straight-curve $-1 78.19940794091616 0 -19.159790414856229 0 -1 0 I I #
coedge $-1 $198 $200 $128 $210 reversed $121 $-1 #
edge $-1 $213 -46.370743008929381 $216 46.370743008929381 $209 $302 forward 7 unknown #
coedge $-1 $204 $129 $134 $219 forward $196 $-1 #
coedge $-1 $129 $204 $198 $293 reversed $196 $-1 #
vertex $-1 $130 $303 #
straight-curve $-1 0 46.370743008929381 19.159790414856229 -1 0 0 I I #
coedge $-1 $131 $199 $133 $218 reversed $75 $-1 #
vertex $-1 $210 $304 #
straight-curve $-1 0 -46.370743008929381 19.159790414856229 1 0 0 I I #
edge $-1 $136 -19.159790414856229 $207 19.159790414856229 $133 $305 forward 7 unknown #
edge $-1 $137 -19.159790414856229 $206 19.159790414856229 $134 $306 forward 7 unknown #
point $-1 78.19940794091616 -46.370743008929381 19.159790414856229 #
point $-1 78.19940794091616 46.370743008929381 19.159790414856229 #
face $-1 $-1 $307 $19 $-1 $308 reversed single #
loop $-1 $-1 $309 $139 #
plane-surface $-1 0 0 -19.159790414856229 0 0 1 1 0 0 forward_v I I I I #
coedge $-1 $232 $242 $227 $310 forward $140 $-1 #
coedge $-1 $145 $142 $309 $311 reversed $83 $-1 #
coedge $-1 $142 $145 $225 $310 reversed $83 $-1 #
coedge $-1 $312 $313 $142 $229 forward $307 $-1 #
edge $-1 $314 -19.159790414856229 $315 19.159790414856229 $228 $316 forward 7 unknown #
coedge $-1 $309 $148 $143 $231 forward $223 $-1 #
edge $-1 $153 -28.314303776037313 $235 -17.148450148790026 $230 $317 forward 7 unknown #
coedge $-1 $150 $225 $144 $233 forward $140 $-1 #
edge $-1 $234 17.148450148790026 $152 28.314303776037313 $232 $318 forward 7 unknown #
vertex $-1 $233 $319 #
vertex $-1 $231 $320 #
straight-curve $-1 -39.879827111203696 -24.259033909459248 0 0 0 -1 I I #
coedge $-1 $313 $312 $147 $238 forward $307 $-1 #
edge $-1 $243 -19.159790414856229 $240 19.159790414856229 $237 $321 forward 7 unknown #
coedge $-1 $148 $309 $313 $322 forward $223 $-1 #
vertex $-1 $149 $323 #
straight-curve $-1 -51.045680738450983 -17.657444229597157 -19.159790414856229 0 1 0 I I #
coedge $-1 $225 $150 $312 $324 forward $140 $-1 #
vertex $-1 $324 $325 #
straight-curve $-1 -51.045680738450983 -17.657444229597157 19.159790414856229 0 -1 0 I I #
point $-1 -51.045680738450983 -24.259033909459248 19.159790414856229 #
point $-1 -51.045680738450983 -24.259033909459248 -19.159790414856229 #
plane-surface $-1 0 0 19.159790414856229 0 0 1 1 0 0 forward_v I I I I #
coedge $-1 $258 $257 $250 $326 forward $156 $-1 #
coedge $-1 $250 $158 $160 $254 reversed $91 $-1 #
coedge $-1 $158 $249 $248 $326 reversed $91 $-1 #
coedge $-1 $166 $161 $158 $252 forward $167 $-1 #
edge $-1 $255 17.245464129702953 $327 33.311834489378896 $251 $328 forward 7 unknown #
coedge $-1 $160 $159 $258 $329 reversed $57 $-1 #
edge $-1 $330 -156.39881588183226 $255 -132.38800180782806 $249 $331 forward 7 unknown #
vertex $-1 $162 $332 #
straight-curve $-1 62.133037581240202 18.483548403091397 19.159790414856232 0 -1 0 I I #
coedge $-1 $248 $163 $166 $262 reversed $156 $-1 #
coedge $-1 $163 $248 $253 $329 forward $156 $-1 #
vertex $-1 $164 $333 #
straight-curve $-1 78.19940794091616 42.634270425524861 111.0972415381766 0 0 1 I I #
straight-curve $-1 -26.451825125470293 42.634270425524861 117.54325000996674 0.66913059716165679 0 -0.74314483375859142 I I #
edge $-1 $327 31.299923186840729 $168 42.634270425524861 $257 $334 forward 7 unknown #
point $-1 78.19940794091616 42.634270425524861 19.159790414856229 #
point $-1 62.133037581240217 42.634270425524861 19.159790414856232 #
edge $-1 $335 1 $335 0 $171 $-1 forward 7 unknown #
vertex $-1 $172 $336 #
ellipse-curve $-1 67.95710924649778 36.967096806182795 8.2489395048033654 0.74314483375859142 0 0.66913059716165679 0.66913059716165679 0 -0.74314483375859142 1 I I #
point $-1 70.835353358239828 36.967096806182795 9.4948893643804837 #
plane-surface $-1 0 0 19.159790414856229 0 0 1 1 0 0 forward_v I I I I #
coedge $-1 $280 $279 $272 $337 forward $176 $-1 #
coedge $-1 $272 $178 $180 $276 reversed $106 $-1 #
coedge $-1 $178 $271 $270 $337 reversed $106 $-1 #
coedge $-1 $186 $181 $178 $274 forward $187 $-1 #
edge $-1 $277 -32.604415004293045 $338 -28.622970472152986 $273 $339 forward 7 unknown #
coedge $-1 $180 $179 $280 $340 reversed $66 $-1 #
edge $-1 $341 0 $277 7.9628892776452975 $271 $342 forward 7 unknown #
vertex $-1 $182 $343 #
straight-curve $-1 -74.217963408776114 17.593217230872924 19.159790414856229 0 1 0 I I #
coedge $-1 $270 $183 $186 $284 reversed $176 $-1 #
coedge $-1 $183 $270 $275 $340 forward $176 $-1 #
vertex $-1 $184 $344 #
straight-curve $-1 -78.19940794091616 28.01772873383878 45.231565898433374 0 0 1 I I #
straight-curve $-1 -78.19940794091616 28.01772873383878 12.263725951299463 -0.49999998660252726 0 -0.86602541151947299 I I #
edge $-1 $338 -42.355140189652914 $188 -28.01772873383878 $279 $345 forward 7 unknown #
point $-1 -78.19940794091616 28.01772873383878 19.159790414856229 #
point $-1 -74.2179634087761 28.01772873383878 19.159790414856229 #
edge $-1 $346 1 $346 0 $191 $-1 forward 7 unknown #
vertex $-1 $192 $347 #
ellipse-curve $-1 -72.797377563712232 35.186434461745847 13.742238597190177 -0.86602541151947299 0 0.49999998660252726 0.74999997990379086 0 1.2990381172792094 1 I I #
point $-1 -75.458685694942332 35.186434461745847 17.010796300357065 #
plane-surface $-1 78.19940794091616 0 0 -1 0 0 0 0 1 forward_v I I I I #
coedge $-1 $200 $198 $202 $296 reversed $121 $-1 #
edge $-1 $213 -19.159790414856229 $298 19.159790414856229 $212 $348 forward 7 unknown #
vertex $-1 $296 $349 #
straight-curve $-1 -78.19940794091616 -46.370743008929381 0 0 0 -1 I I #
edge $-1 $294 -46.370743008929381 $298 46.370743008929381 $292 $350 forward 7 unknown #
straight-curve $-1 0 -46.370743008929381 -19.159790414856229 -1 0 0 I I #
vertex $-1 $205 $351 #
straight-curve $-1 0 46.370743008929381 -19.159790414856229 1 0 0 I I #
point $-1 78.19940794091616 46.370743008929381 -19.159790414856229 #
point $-1 78.19940794091616 -46.370743008929381 -19.159790414856229 #
straight-curve $-1 -78.19940794091616 0 19.159790414856229 0 -1 0 I I #
point $-1 -78.19940794091616 46.370743008929381 19.159790414856229 #
point $-1 -78.19940794091616 -46.370743008929381 19.159790414856229 #
straight-curve $-1 78.19940794091616 -46.370743008929381 0 0 0 -1 I I #
straight-curve $-1 78.19940794091616 46.370743008929381 0 0 0 -1 I I #
loop $-1 $-1 $228 $222 #
plane-surface $-1 0 -46.370743008929381 0 0 1 0 0 0 1 forward_v I I I I #
coedge $-1 $239 $230 $226 $311 forward $223 $-1 #
edge $-1 $315 -28.713298779332224 $234 -6.6015896798620908 $225 $352 forward 7 unknown #
edge $-1 $235 6.6015896798620908 $314 28.713298779332224 $309 $353 forward 7 unknown #
coedge $-1 $237 $228 $242 $324 reversed $307 $-1 #
coedge $-1 $228 $237 $239 $322 reversed $307 $-1 #
vertex $-1 $322 $354 #
vertex $-1 $229 $355 #
straight-curve $-1 -39.879827111203696 -46.370743008929381 0 0 0 1 I I #
straight-curve $-1 -22.73137696241367 -24.259033909459248 -19.159790414856229 1 0 0 I I #
straight-curve $-1 -22.73137696241367 -24.259033909459248 19.159790414856229 -1 0 0 I I #
point $-1 -39.879827111203696 -24.259033909459248 19.159790414856229 #
point $-1 -39.879827111203696 -24.259033909459248 -19.159790414856229 #
straight-curve $-1 -51.045680738450983 -46.370743008929381 0 0 0 -1 I I #
edge $-1 $314 39.879827111203696 $240 51.045680738450983 $313 $356 forward 7 unknown #
point $-1 -51.045680738450983 -46.370743008929381 -19.159790414856229 #
edge $-1 $243 -51.045680738450983 $315 -39.879827111203696 $312 $357 forward 7 unknown #
point $-1 -51.045680738450983 -46.370743008929381 19.159790414856229 #
edge $-1 $327 91.937451123320372 $330 109.78096355675467 $248 $358 forward 7 unknown #
vertex $-1 $262 $359 #
straight-curve $-1 44.887573451537264 31.299923186840729 19.159790414856232 1 0 0 I I #
edge $-1 $330 12.816374783749332 $259 24.150722022433463 $258 $360 forward 7 unknown #
vertex $-1 $329 $361 #
straight-curve $-1 -26.451825125470293 31.299923186840729 117.54325000996674 -0.66913059716165679 0 0.74314483375859142 I I #
point $-1 62.133037581240217 31.299923186840729 19.159790414856232 #
point $-1 78.19940794091616 42.634270425524861 1.3162779814219334 #
straight-curve $-1 78.19940794091616 0 19.159790414856229 0 1 0 I I #
vertex $-1 $265 $362 #
point $-1 68.626239843659448 36.967096806182795 7.5057946710447734 #
edge $-1 $338 26.071775483577145 $341 32.967839947133911 $270 $363 forward 7 unknown #
vertex $-1 $284 $364 #
straight-curve $-1 -106.82237841306915 42.355140189652914 19.159790414856225 -1 0 0 I I #
edge $-1 $341 -24.761922958779991 $281 -10.424511502965856 $280 $365 forward 7 unknown #
vertex $-1 $340 $366 #
straight-curve $-1 -78.19940794091616 42.355140189652914 12.263725951299463 0.49999998660252726 0 0.86602541151947299 I I #
point $-1 -74.2179634087761 42.355140189652914 19.159790414856229 #
point $-1 -78.19940794091616 28.01772873383878 12.263725951299463 #
straight-curve $-1 -78.19940794091616 0 19.159790414856229 0 -1 0 I I #
vertex $-1 $287 $367 #
point $-1 -72.047377583808441 35.186434461745847 15.041276714469387 #
straight-curve $-1 -78.19940794091616 46.370743008929381 0 0 0 -1 I I #
point $-1 -78.19940794091616 -46.370743008929381 -19.159790414856229 #
straight-curve $-1 -78.19940794091616 0 -19.159790414856229 0 1 0 I I #
point $-1 -78.19940794091616 46.370743008929381 -19.159790414856229 #
straight-curve $-1 -39.879827111203696 -17.657444229597157 19.159790414856229 0 1 0 I I #
straight-curve $-1 -39.879827111203696 -17.657444229597157 -19.159790414856229 0 -1 0 I I #
point $-1 -39.879827111203696 -46.370743008929381 -19.159790414856229 #
point $-1 -39.879827111203696 -46.370743008929381 19.159790414856229 #
straight-curve $-1 0 -46.370743008929381 -19.159790414856229 -1 0 0 I I #
straight-curve $-1 0 -46.370743008929381 19.159790414856229 1 0 0 I I #
straight-curve $-1 78.19940794091616 31.299923186840729 111.0972415381766 0 0 -1 I I #
point $-1 78.19940794091616 31.299923186840729 19.159790414856229 #
straight-curve $-1 78.19940794091616 18.483548403091397 1.3162779814219263 0 1 0 I I #
point $-1 78.19940794091616 31.299923186840729 1.3162779814219334 #
point $-1 67.213964412739202 36.967096806182795 7.5798089076417083 #
straight-curve $-1 -78.19940794091616 42.355140189652914 45.231565898433374 0 0 -1 I I #
point $-1 -78.19940794091616 42.355140189652914 19.159790414856229 #
straight-curve $-1 -78.19940794091616 17.593217230872924 12.263725951299456 0 -1 0 I I #
point $-1 -78.19940794091616 42.355140189652914 12.263725951299463 #
point $-1 -71.498339446433036 35.186434461745847 12.992238617286386 #
End-of-ACIS-data 