500 0 8 0           
7 Unknown 11 ACIS 5.0 NT 24 Thu Mar 25 22:40:03 1999 
-1 9.9999999999999995e-007 1e-010 
body $-1 $8 $-1 $9 #
body $-1 $10 $-1 $11 #
body $-1 $12 $-1 $13 #
body $-1 $14 $-1 $15 #
body $-1 $16 $-1 $17 #
body $-1 $18 $-1 $19 #
body $-1 $20 $-1 $21 #
body $-1 $22 $-1 $23 #
lump $-1 $-1 $24 $0 #
transform $-1 1 0 0 0 1 0 0 0 1 63.124485000152589 27.337889623452416 10.185359975343163 1 rotate no_reflect no_shear #
lump $-1 $-1 $25 $1 #
transform $-1 1 0 0 0 1 0 0 0 1 63.124485000152589 27.337889623452416 10.185359975343163 1 rotate no_reflect no_shear #
lump $-1 $-1 $26 $2 #
transform $-1 1 0 0 0 1 0 0 0 1 63.124485000152589 27.337889623452416 10.185359975343163 1 rotate no_reflect no_shear #
lump $-1 $-1 $27 $3 #
transform $-1 1 0 0 0 1 0 0 0 1 63.124485000152589 27.337889623452416 10.185359975343163 1 rotate no_reflect no_shear #
lump $-1 $-1 $28 $4 #
transform $-1 1 0 0 0 1 0 0 0 1 63.124485000152589 27.337889623452416 10.185359975343163 1 rotate no_reflect no_shear #
lump $-1 $-1 $29 $5 #
transform $-1 1 0 0 0 1 0 0 0 1 63.124485000152589 27.337889623452416 10.185359975343163 1 rotate no_reflect no_shear #
lump $-1 $-1 $30 $6 #
transform $-1 1 0 0 0 1 0 0 0 1 63.124485000152589 27.337889623452416 10.185359975343163 1 rotate no_reflect no_shear #
lump $-1 $-1 $31 $7 #
transform $-1 1 0 0 0 1 0 0 0 1 63.124485000152589 27.337889623452416 10.185359975343163 1 rotate no_reflect no_shear #
shell $-1 $-1 $-1 $32 $-1 $8 #
shell $-1 $-1 $-1 $33 $-1 $10 #
shell $-1 $-1 $-1 $34 $-1 $12 #
shell $-1 $-1 $-1 $35 $-1 $14 #
shell $-1 $-1 $-1 $36 $-1 $16 #
shell $-1 $-1 $-1 $37 $-1 $18 #
shell $-1 $-1 $-1 $38 $-1 $20 #
shell $-1 $-1 $-1 $39 $-1 $22 #
face $-1 $40 $41 $24 $-1 $42 reversed single #
face $-1 $43 $44 $25 $-1 $45 forward single #
face $-1 $46 $47 $26 $-1 $48 reversed single #
face $-1 $49 $50 $27 $-1 $51 forward single #
face $-1 $52 $53 $28 $-1 $54 forward single #
face $-1 $55 $56 $29 $-1 $57 reversed single #
face $-1 $58 $59 $30 $-1 $60 forward single #
face $-1 $61 $62 $31 $-1 $63 forward single #
face $-1 $64 $65 $24 $-1 $66 forward single #
loop $-1 $-1 $67 $32 #
plane-surface $-1 0 -27.337889623452416 0 0 1 0 0 0 1 forward_v I I I I #
face $-1 $68 $69 $25 $-1 $70 reversed single #
loop $-1 $-1 $71 $33 #
plane-surface $-1 0 -27.337889623452416 0 0 1 0 0 0 1 forward_v I I I I #
face $-1 $72 $73 $26 $-1 $74 reversed single #
loop $-1 $-1 $75 $34 #
plane-surface $-1 50.669956399935487 21.835218641199418 178.24755015265046 0 -1 0 -0.6560590369687036 0 -0.75470957328743171 forward_v I I I I #
face $-1 $76 $77 $27 $-1 $78 forward single #
loop $-1 $79 $80 $35 #
cone-surface $-1 56.830270206030434 12.699852940097234 4.5688511786184289 -0.6560590369687036 0 -0.75470957328743171 0.75470957328743171 0 -0.6560590369687036 1 I I 0 1 1 forward I I I I #
face $-1 $81 $82 $28 $-1 $83 forward single #
loop $-1 $84 $85 $36 #
cone-surface $-1 56.830270206030434 18.181072360758545 4.5688511786184289 -0.6560590369687036 0 -0.75470957328743171 0.75470957328743171 0 -0.6560590369687036 1 I I 0 1 1 forward I I I I #
face $-1 $86 $87 $29 $-1 $88 reversed single #
loop $-1 $-1 $89 $37 #
plane-surface $-1 -167.78962564611857 -8.9791957731493532 72.941918303648379 0 1 0 -0.82903758062907751 0 0.55919289150049634 forward_v I I I I #
face $-1 $90 $91 $30 $-1 $92 forward single #
loop $-1 $93 $94 $38 #
cone-surface $-1 -59.451169736740802 -5.0361007479394395 5.5708636611707192 0.82903758062907751 0 -0.55919289150049634 0.55919289150049634 0 0.82903758062907751 1 I I 0 1 1 forward I I I I #
face $-1 $95 $96 $31 $-1 $97 forward single #
loop $-1 $98 $99 $39 #
cone-surface $-1 -59.451169736740802 0.87854178987543108 5.5708636611707192 0.82903758062907751 0 -0.55919289150049634 0.55919289150049634 0 0.82903758062907751 1 I I 0 1 1 forward I I I I #
face $-1 $100 $101 $24 $-1 $102 reversed single #
loop $-1 $-1 $103 $40 #
plane-surface $-1 0 0 10.185359975343163 0 0 1 1 0 0 forward_v I I I I #
coedge $-1 $104 $105 $106 $107 reversed $41 $-1 #
face $-1 $108 $109 $25 $-1 $110 reversed single #
loop $-1 $-1 $111 $43 #
plane-surface $-1 0 0 -10.185359975343163 0 0 1 1 0 0 forward_v I I I I #
coedge $-1 $112 $113 $114 $115 forward $44 $-1 #
face $-1 $116 $117 $26 $-1 $118 reversed single #
loop $-1 $-1 $119 $46 #
plane-surface $-1 -32.156821276755494 15.440462650427886 82.966243875742364 0.6560590369687036 0 0.75470957328743171 0.75470957328743171 0 -0.6560590369687036 forward_v I I I I #
coedge $-1 $120 $121 $122 $123 reversed $47 $-1 #
face $-1 $-1 $124 $27 $-1 $125 forward single #
loop $-1 $126 $127 $49 #
cone-surface $-1 55.986265181329401 12.699852940097234 3.5979344833958447 -0.6560590369687036 0 -0.75470957328743171 0.37735478664371586 0 -0.3280295184843518 1 I I -0.70710678118654746 0.70710678118654746 0.5 forward I I I I #
loop $-1 $-1 $128 $35 #
coedge $-1 $80 $80 $129 $130 reversed $50 $-1 #
face $-1 $-1 $131 $28 $-1 $132 forward single #
loop $-1 $133 $134 $52 #
cone-surface $-1 55.986265181329401 18.181072360758545 3.5979344833958447 -0.6560590369687036 0 -0.75470957328743171 0.37735478664371586 0 -0.3280295184843518 1 I I -0.70710678118654746 0.70710678118654746 0.5 forward I I I I #
loop $-1 $-1 $135 $36 #
coedge $-1 $85 $85 $136 $137 reversed $53 $-1 #
face $-1 $138 $139 $29 $-1 $140 reversed single #
loop $-1 $-1 $141 $55 #
plane-surface $-1 -63.124485000152589 -2.0787794790320078 2.3443917202183115 -0.82903758062907751 0 0.55919289150049634 0.55919289150049634 0 0.82903758062907751 forward_v I I I I #
coedge $-1 $142 $143 $144 $145 reversed $56 $-1 #
face $-1 $-1 $146 $30 $-1 $147 forward single #
loop $-1 $148 $149 $58 #
cone-surface $-1 -58.007735534840137 -5.0361007479394395 4.5972550288104461 0.82903758062907751 0 -0.55919289150049634 0.27959644575024817 0 0.41451879031453875 1 I I -0.70710678118654746 0.70710678118654746 0.5 forward I I I I #
loop $-1 $-1 $150 $38 #
coedge $-1 $94 $94 $151 $152 reversed $59 $-1 #
face $-1 $-1 $153 $31 $-1 $154 forward single #
loop $-1 $155 $156 $61 #
cone-surface $-1 -58.007735534840137 0.87854178987543108 4.5972550288104461 0.82903758062907751 0 -0.55919289150049634 0.27959644575024817 0 0.41451879031453875 1 I I -0.70710678118654746 0.70710678118654746 0.5 forward I I I I #
loop $-1 $-1 $157 $39 #
coedge $-1 $99 $99 $158 $159 reversed $62 $-1 #
face $-1 $160 $161 $24 $-1 $162 reversed single #
loop $-1 $-1 $163 $64 #
plane-surface $-1 0 0 -10.185359975343163 0 0 1 1 0 0 forward_v I I I I #
coedge $-1 $164 $165 $166 $167 forward $65 $-1 #
coedge $-1 $168 $67 $169 $170 reversed $41 $-1 #
coedge $-1 $67 $168 $171 $172 forward $41 $-1 #
coedge $-1 $173 $163 $67 $107 forward $101 $-1 #
edge $-1 $174 -63.124485000152589 $175 63.124485000152589 $67 $176 forward 7 unknown #
face $-1 $177 $178 $25 $-1 $179 reversed single #
loop $-1 $-1 $180 $68 #
plane-surface $-1 -59.182482439343531 -35.967970277678873 0 0 1 0 0 0 1 forward_v I I I I #
coedge $-1 $181 $182 $113 $183 forward $69 $-1 #
coedge $-1 $184 $71 $185 $186 reversed $44 $-1 #
coedge $-1 $71 $184 $111 $183 reversed $44 $-1 #
coedge $-1 $187 $188 $71 $115 reversed $178 $-1 #
edge $-1 $189 -10.185359975343163 $190 10.185359975343163 $114 $191 forward 7 unknown #
face $-1 $192 $193 $26 $-1 $194 forward single #
loop $-1 $-1 $195 $72 #
plane-surface $-1 50.669956399935487 9.0457066596563536 178.24755015265046 0 1 0 0.6560590369687036 0 0.75470957328743171 forward_v I I I I #
coedge $-1 $196 $197 $198 $199 reversed $73 $-1 #
coedge $-1 $121 $75 $200 $201 reversed $47 $-1 #
coedge $-1 $75 $120 $196 $202 reversed $47 $-1 #
coedge $-1 $198 $203 $75 $123 forward $193 $-1 #
edge $-1 $204 -37.789506800184846 $205 -26.233028224373847 $122 $206 forward 7 unknown #
loop $-1 $-1 $129 $76 #
plane-surface $-1 -32.156821276755494 15.440462650427886 82.966243875742364 0.6560590369687036 0 0.75470957328743171 0.75470957328743171 0 -0.6560590369687036 forward_v I I I I #
loop $-1 $-1 $207 $49 #
coedge $-1 $127 $127 $128 $208 reversed $77 $-1 #
coedge $-1 $128 $128 $127 $208 forward $79 $-1 #
coedge $-1 $129 $129 $80 $130 forward $124 $-1 #
edge $-1 $209 0 $209 6.2831853071796004 $129 $210 forward 7 unknown #
loop $-1 $-1 $136 $81 #
plane-surface $-1 -32.156821276755494 15.440462650427886 82.966243875742364 0.6560590369687036 0 0.75470957328743171 0.75470957328743171 0 -0.6560590369687036 forward_v I I I I #
loop $-1 $-1 $211 $52 #
coedge $-1 $134 $134 $135 $212 reversed $82 $-1 #
coedge $-1 $135 $135 $134 $212 forward $84 $-1 #
coedge $-1 $136 $136 $85 $137 forward $131 $-1 #
edge $-1 $213 0 $213 6.2831853071796004 $136 $214 forward 7 unknown #
face $-1 $215 $216 $29 $-1 $217 reversed single #
loop $-1 $-1 $218 $86 #
plane-surface $-1 -167.78962564611857 4.8216368150853377 72.941918303648379 0 -1 0 0.82903758062907751 0 -0.55919289150049634 forward_v I I I I #
coedge $-1 $219 $220 $221 $222 reversed $87 $-1 #
coedge $-1 $143 $89 $223 $224 reversed $56 $-1 #
coedge $-1 $89 $142 $219 $225 reversed $56 $-1 #
coedge $-1 $221 $226 $89 $145 forward $227 $-1 #
edge $-1 $228 20.770327822906694 $229 26.059127526558008 $144 $230 forward 7 unknown #
loop $-1 $-1 $151 $90 #
plane-surface $-1 -63.124485000152589 -2.0787794790320078 2.3443917202183115 -0.82903758062907751 0 0.55919289150049634 0.55919289150049634 0 0.82903758062907751 forward_v I I I I #
loop $-1 $-1 $231 $58 #
coedge $-1 $149 $149 $150 $232 reversed $91 $-1 #
coedge $-1 $150 $150 $149 $232 forward $93 $-1 #
coedge $-1 $151 $151 $94 $152 forward $146 $-1 #
edge $-1 $233 0 $233 6.2831853071796004 $151 $234 forward 7 unknown #
loop $-1 $-1 $158 $95 #
plane-surface $-1 -63.124485000152589 -2.0787794790320078 2.3443917202183115 -0.82903758062907751 0 0.55919289150049634 0.55919289150049634 0 0.82903758062907751 forward_v I I I I #
loop $-1 $-1 $235 $61 #
coedge $-1 $156 $156 $157 $236 reversed $96 $-1 #
coedge $-1 $157 $157 $156 $236 forward $98 $-1 #
coedge $-1 $158 $158 $99 $159 forward $153 $-1 #
edge $-1 $237 0 $237 6.2831853071796004 $158 $238 forward 7 unknown #
face $-1 $239 $240 $24 $-1 $241 reversed single #
loop $-1 $-1 $242 $100 #
plane-surface $-1 -63.124485000152589 0 0 1 0 0 0 0 -1 forward_v I I I I #
coedge $-1 $106 $243 $244 $245 forward $101 $-1 #
coedge $-1 $246 $103 $247 $248 forward $65 $-1 #
coedge $-1 $103 $246 $168 $249 forward $65 $-1 #
coedge $-1 $169 $250 $103 $167 reversed $251 $-1 #
edge $-1 $252 -27.337889623452416 $253 27.337889623452416 $166 $254 forward 7 unknown #
coedge $-1 $105 $104 $165 $249 reversed $41 $-1 #
coedge $-1 $244 $166 $104 $170 forward $251 $-1 #
edge $-1 $252 -10.185359975343163 $174 10.185359975343163 $169 $255 forward 7 unknown #
coedge $-1 $256 $257 $105 $172 reversed $161 $-1 #
edge $-1 $258 -10.185359975343163 $175 10.185359975343163 $171 $259 forward 7 unknown #
coedge $-1 $243 $106 $257 $260 forward $101 $-1 #
vertex $-1 $170 $261 #
vertex $-1 $260 $262 #
straight-curve $-1 0 -27.337889623452416 -10.185359975343163 -1 0 0 I I #
face $-1 $263 $264 $25 $-1 $265 reversed single #
loop $-1 $-1 $114 $108 #
plane-surface $-1 -62.194013035648261 -31.652929950565646 0 1 0 0 0 0 -1 forward_v I I I I #
coedge $-1 $266 $267 $268 $269 forward $109 $-1 #
coedge $-1 $270 $111 $271 $272 forward $69 $-1 #
coedge $-1 $111 $270 $187 $273 forward $69 $-1 #
edge $-1 $189 -62.194013035648261 $274 -56.1709518430388 $111 $275 forward 7 unknown #
coedge $-1 $113 $112 $276 $277 forward $44 $-1 #
coedge $-1 $278 $279 $112 $186 forward $280 $-1 #
edge $-1 $281 56.1709518430388 $190 62.194013035648261 $185 $282 forward 7 unknown #
coedge $-1 $268 $114 $182 $273 reversed $178 $-1 #
coedge $-1 $114 $268 $278 $283 reversed $178 $-1 #
vertex $-1 $183 $284 #
vertex $-1 $283 $285 #
straight-curve $-1 -62.194013035648261 -27.337889623452416 0 0 0 1 I I #
face $-1 $-1 $286 $26 $-1 $287 reversed single #
loop $-1 $-1 $122 $116 #
plane-surface $-1 0 0 10.185359975343163 0 0 1 1 0 0 forward_v I I I I #
coedge $-1 $288 $289 $290 $291 reversed $117 $-1 #
coedge $-1 $292 $119 $121 $202 forward $73 $-1 #
coedge $-1 $119 $292 $288 $293 forward $73 $-1 #
coedge $-1 $290 $122 $119 $199 forward $193 $-1 #
edge $-1 $205 -14.114987315985475 $294 -1.3254753344424106 $198 $295 forward 7 unknown #
coedge $-1 $296 $297 $120 $201 forward $286 $-1 #
edge $-1 $298 -88.984308877273818 $204 -78.93841510098207 $200 $299 forward 7 unknown #
edge $-1 $205 110.93648558928565 $298 126.24897000030518 $121 $300 forward 7 unknown #
coedge $-1 $122 $290 $296 $301 forward $193 $-1 #
vertex $-1 $123 $302 #
vertex $-1 $123 $303 #
straight-curve $-1 25.334978199967743 21.835218641199418 10.185359975343161 -1 0 0 I I #
coedge $-1 $207 $207 $-1 $304 reversed $126 $-1 #
edge $-1 $305 0 $305 6.2831853071796004 $127 $306 forward 7 unknown #
vertex $-1 $130 $307 #
ellipse-curve $-1 57.346245712247097 12.699852940097234 5.1624130871972742 0.6560590369687036 0 0.75470957328743171 0.75470957328743171 0 -0.6560590369687036 1 I I #
coedge $-1 $211 $211 $-1 $308 reversed $133 $-1 #
edge $-1 $309 0 $309 6.2831853071796004 $134 $310 forward 7 unknown #
vertex $-1 $137 $311 #
ellipse-curve $-1 57.346245712247097 18.181072360758545 5.1624130871972742 0.6560590369687036 0 0.75470957328743171 0.75470957328743171 0 -0.6560590369687036 1 I I #
face $-1 $-1 $227 $29 $-1 $312 forward single #
loop $-1 $-1 $313 $138 #
plane-surface $-1 -63.124485000152589 0 0 1 0 0 0 0 -1 forward_v I I I I #
coedge $-1 $314 $315 $316 $317 reversed $139 $-1 #
coedge $-1 $318 $141 $143 $225 forward $87 $-1 #
coedge $-1 $141 $318 $314 $319 forward $87 $-1 #
coedge $-1 $316 $144 $141 $222 forward $227 $-1 #
edge $-1 $229 -7.9398060336333494 $320 5.8610265546013416 $221 $321 forward 7 unknown #
coedge $-1 $322 $323 $142 $224 forward $216 $-1 #
edge $-1 $324 -34.126567431605878 $228 -26.285599176481028 $223 $325 forward 7 unknown #
edge $-1 $229 -9.4579165508698537 $324 0 $143 $326 forward 7 unknown #
coedge $-1 $144 $316 $322 $327 forward $227 $-1 #
loop $-1 $-1 $316 $215 #
vertex $-1 $224 $328 #
vertex $-1 $145 $329 #
straight-curve $-1 -83.894812823059283 -8.9791957731493532 10.185359975343161 1 0 0 I I #
coedge $-1 $231 $231 $-1 $330 reversed $148 $-1 #
edge $-1 $331 0 $331 6.2831853071796004 $149 $332 forward 7 unknown #
vertex $-1 $152 $333 #
ellipse-curve $-1 -60.480085148326928 -5.0361007479394395 6.2648758477807425 -0.82903758062907751 0 0.55919289150049634 0.55919289150049634 0 0.82903758062907751 1 I I #
coedge $-1 $235 $235 $-1 $334 reversed $155 $-1 #
edge $-1 $335 0 $335 6.2831853071796004 $156 $336 forward 7 unknown #
vertex $-1 $159 $337 #
ellipse-curve $-1 -60.480085148326928 0.87854178987543108 6.2648758477807425 -0.82903758062907751 0 0.55919289150049634 0.55919289150049634 0 0.82903758062907751 1 I I #
face $-1 $-1 $251 $24 $-1 $338 reversed single #
loop $-1 $-1 $339 $160 #
plane-surface $-1 0 27.337889623452416 0 0 -1 0 0 0 -1 forward_v I I I I #
coedge $-1 $257 $256 $340 $341 forward $161 $-1 #
coedge $-1 $163 $173 $342 $343 forward $101 $-1 #
coedge $-1 $250 $169 $163 $245 reversed $251 $-1 #
edge $-1 $344 -27.337889623452416 $174 27.337889623452416 $244 $345 forward 7 unknown #
coedge $-1 $165 $164 $256 $346 forward $65 $-1 #
coedge $-1 $339 $340 $164 $248 reversed $240 $-1 #
edge $-1 $253 -63.124485000152589 $347 63.124485000152589 $247 $348 forward 7 unknown #
edge $-1 $258 -63.124485000152589 $252 63.124485000152589 $168 $349 forward 7 unknown #
coedge $-1 $166 $244 $339 $350 reversed $251 $-1 #
loop $-1 $-1 $169 $239 #
vertex $-1 $167 $351 #
vertex $-1 $167 $352 #
straight-curve $-1 63.124485000152589 0 10.185359975343163 0 1 0 I I #
straight-curve $-1 63.124485000152589 -27.337889623452416 0 0 0 -1 I I #
coedge $-1 $242 $171 $246 $346 reversed $161 $-1 #
coedge $-1 $171 $242 $173 $260 reversed $161 $-1 #
vertex $-1 $346 $353 #
straight-curve $-1 -63.124485000152589 -27.337889623452416 0 0 0 -1 I I #
edge $-1 $175 -27.337889623452416 $354 27.337889623452416 $257 $355 forward 7 unknown #
point $-1 63.124485000152589 -27.337889623452416 -10.185359975343163 #
point $-1 -63.124485000152589 -27.337889623452416 -10.185359975343163 #
face $-1 $-1 $280 $25 $-1 $356 forward single #
loop $-1 $-1 $357 $177 #
plane-surface $-1 -56.1709518430388 -31.652929950565646 0 -1 0 0 0 0 1 forward_v I I I I #
coedge $-1 $358 $180 $270 $359 reversed $109 $-1 #
coedge $-1 $180 $358 $360 $361 reversed $109 $-1 #
coedge $-1 $188 $187 $180 $269 reversed $178 $-1 #
edge $-1 $362 -10.185359975343163 $363 10.185359975343163 $268 $364 forward 7 unknown #
coedge $-1 $182 $181 $266 $359 forward $69 $-1 #
coedge $-1 $276 $357 $181 $272 reversed $264 $-1 #
edge $-1 $274 -4.3150403271132305 $365 4.3150403271132269 $271 $366 forward 7 unknown #
edge $-1 $363 -4.3150403271132269 $189 4.3150403271132305 $187 $367 forward 7 unknown #
vertex $-1 $272 $368 #
straight-curve $-1 0 -27.337889623452416 -10.185359975343163 1 0 0 I I #
coedge $-1 $369 $271 $184 $277 reversed $264 $-1 #
edge $-1 $281 -10.185359975343163 $274 10.185359975343163 $276 $370 forward 7 unknown #
coedge $-1 $360 $185 $188 $283 forward $280 $-1 #
coedge $-1 $185 $360 $369 $371 forward $280 $-1 #
loop $-1 $-1 $185 $263 #
vertex $-1 $186 $372 #
straight-curve $-1 0 -27.337889623452416 10.185359975343163 -1 0 0 I I #
edge $-1 $190 -4.3150403271132305 $362 4.3150403271132269 $188 $373 forward 7 unknown #
point $-1 -62.194013035648261 -27.337889623452416 -10.185359975343163 #
point $-1 -62.194013035648261 -27.337889623452416 10.185359975343163 #
loop $-1 $-1 $200 $192 #
plane-surface $-1 63.124485000152589 0 0 -1 0 0 0 0 1 forward_v I I I I #
coedge $-1 $289 $195 $197 $293 reversed $117 $-1 #
coedge $-1 $195 $288 $374 $375 reversed $117 $-1 #
coedge $-1 $203 $198 $195 $291 forward $193 $-1 #
edge $-1 $294 26.233028224373847 $376 37.789506800184846 $290 $377 forward 7 unknown #
coedge $-1 $197 $196 $297 $378 reversed $73 $-1 #
edge $-1 $379 -126.24897000030518 $294 -110.93648558928565 $288 $380 forward 7 unknown #
vertex $-1 $199 $381 #
straight-curve $-1 51.568006424341583 7.720231325213943 10.185359975343175 0 -1 0 I I #
coedge $-1 $374 $200 $203 $301 reversed $286 $-1 #
coedge $-1 $200 $374 $292 $378 forward $286 $-1 #
vertex $-1 $201 $382 #
straight-curve $-1 63.124485000152589 21.835218641199418 89.123775076325231 0 0 1 I I #
straight-curve $-1 -32.156821276755494 21.835218641199418 82.966243875742364 0.75470957328743171 0 -0.6560590369687036 I I #
edge $-1 $376 9.0457066596563536 $204 21.835218641199418 $296 $383 forward 7 unknown #
point $-1 63.124485000152589 21.835218641199418 10.185359975343163 #
point $-1 51.56800642434159 21.835218641199418 10.185359975343161 #
edge $-1 $384 1 $384 0 $207 $-1 forward 7 unknown #
vertex $-1 $208 $385 #
ellipse-curve $-1 56.31429469981375 12.699852940097234 3.9752892700395606 0.6560590369687036 0 0.75470957328743171 0.75470957328743171 0 -0.6560590369687036 1 I I #
point $-1 58.100955285534546 12.699852940097234 4.5063540502285928 #
edge $-1 $386 1 $386 0 $211 $-1 forward 7 unknown #
vertex $-1 $212 $387 #
ellipse-curve $-1 56.31429469981375 18.181072360758545 3.9752892700395606 0.6560590369687036 0 0.75470957328743171 0.75470957328743171 0 -0.6560590369687036 1 I I #
point $-1 58.100955285534546 18.181072360758545 4.5063540502285928 #
plane-surface $-1 0 0 10.185359975343163 0 0 1 1 0 0 forward_v I I I I #
coedge $-1 $323 $322 $315 $388 forward $216 $-1 #
coedge $-1 $315 $218 $220 $319 reversed $139 $-1 #
coedge $-1 $218 $314 $313 $388 reversed $139 $-1 #
coedge $-1 $226 $221 $218 $317 forward $227 $-1 #
edge $-1 $320 -26.059127526558008 $389 -20.770327822906694 $316 $390 forward 7 unknown #
coedge $-1 $220 $219 $323 $391 reversed $87 $-1 #
edge $-1 $392 0 $320 9.4579165508698537 $314 $393 forward 7 unknown #
vertex $-1 $222 $394 #
straight-curve $-1 -57.835685296501275 -1.0393897395160039 10.185359975343163 0 1 0 I I #
coedge $-1 $313 $223 $226 $327 reversed $216 $-1 #
coedge $-1 $223 $313 $318 $391 forward $216 $-1 #
vertex $-1 $224 $395 #
straight-curve $-1 -63.124485000152589 -8.9791957731493532 36.470959151824189 0 0 1 I I #
straight-curve $-1 -63.124485000152589 -8.9791957731493532 2.3443917202183115 -0.55919289150049634 0 -0.82903758062907751 I I #
edge $-1 $389 -4.8216368150853377 $228 8.9791957731493532 $322 $396 forward 7 unknown #
point $-1 -63.124485000152589 -8.9791957731493532 10.185359975343163 #
point $-1 -57.835685296501275 -8.9791957731493532 10.185359975343163 #
edge $-1 $397 1 $397 0 $231 $-1 forward 7 unknown #
vertex $-1 $232 $398 #
ellipse-curve $-1 -58.422254325154675 -5.0361007479394395 4.8768514745606941 -0.82903758062907751 0 0.55919289150049634 0.55919289150049634 0 0.82903758062907751 1 I I #
point $-1 -59.920892256826441 -5.0361007479394395 7.093913428409822 #
edge $-1 $399 1 $399 0 $235 $-1 forward 7 unknown #
vertex $-1 $236 $400 #
ellipse-curve $-1 -58.422254325154675 0.87854178987543108 4.8768514745606941 -0.82903758062907751 0 0.55919289150049634 0.55919289150049634 0 0.82903758062907751 1 I I #
point $-1 -59.920892256826441 0.87854178987543108 7.093913428409822 #
plane-surface $-1 63.124485000152589 0 0 -1 0 0 0 0 1 forward_v I I I I #
coedge $-1 $342 $247 $250 $350 forward $240 $-1 #
coedge $-1 $247 $342 $242 $341 reversed $240 $-1 #
edge $-1 $347 -10.185359975343163 $354 10.185359975343163 $340 $401 forward 7 unknown #
coedge $-1 $340 $339 $243 $343 reversed $240 $-1 #
edge $-1 $354 -63.124485000152589 $344 63.124485000152589 $342 $402 forward 7 unknown #
vertex $-1 $245 $403 #
straight-curve $-1 63.124485000152589 0 -10.185359975343163 0 -1 0 I I #
edge $-1 $347 -27.337889623452416 $258 27.337889623452416 $256 $404 forward 7 unknown #
vertex $-1 $248 $405 #
straight-curve $-1 0 27.337889623452416 10.185359975343163 -1 0 0 I I #
straight-curve $-1 0 -27.337889623452416 10.185359975343163 1 0 0 I I #
edge $-1 $253 -10.185359975343163 $344 10.185359975343163 $250 $406 forward 7 unknown #
point $-1 63.124485000152589 -27.337889623452416 10.185359975343163 #
point $-1 63.124485000152589 27.337889623452416 10.185359975343163 #
point $-1 -63.124485000152589 -27.337889623452416 10.185359975343163 #
vertex $-1 $343 $407 #
straight-curve $-1 -63.124485000152589 0 -10.185359975343163 0 1 0 I I #
plane-surface $-1 0 0 10.185359975343163 0 0 1 1 0 0 forward_v I I I I #
coedge $-1 $271 $369 $358 $408 forward $264 $-1 #
coedge $-1 $267 $266 $357 $408 reversed $109 $-1 #
edge $-1 $365 -3.0115305963047305 $363 3.0115305963047305 $266 $409 forward 7 unknown #
coedge $-1 $279 $278 $267 $361 forward $280 $-1 #
edge $-1 $362 -3.0115305963047305 $410 3.0115305963047305 $267 $411 forward 7 unknown #
vertex $-1 $283 $412 #
vertex $-1 $273 $413 #
straight-curve $-1 -62.194013035648261 -35.967970277678873 0 0 0 -1 I I #
vertex $-1 $408 $414 #
straight-curve $-1 -56.1709518430388 -31.652929950565646 -10.185359975343163 0 -1 0 I I #
straight-curve $-1 -62.194013035648261 -31.652929950565646 -10.185359975343163 0 1 0 I I #
point $-1 -56.1709518430388 -27.337889623452416 -10.185359975343163 #
coedge $-1 $357 $276 $279 $371 reversed $264 $-1 #
straight-curve $-1 -56.1709518430388 -27.337889623452416 0 0 0 -1 I I #
edge $-1 $410 -4.3150403271132269 $281 4.3150403271132305 $369 $415 forward 7 unknown #
point $-1 -56.1709518430388 -27.337889623452416 10.185359975343163 #
straight-curve $-1 -62.194013035648261 -31.652929950565646 10.185359975343163 0 -1 0 I I #
coedge $-1 $297 $296 $289 $375 forward $286 $-1 #
edge $-1 $376 78.93841510098207 $379 88.984308877273818 $374 $416 forward 7 unknown #
vertex $-1 $301 $417 #
straight-curve $-1 25.334978199967743 9.0457066596563536 10.185359975343161 1 0 0 I I #
edge $-1 $379 1.3254753344424106 $298 14.114987315985475 $297 $418 forward 7 unknown #
vertex $-1 $378 $419 #
straight-curve $-1 -32.156821276755494 9.0457066596563536 82.966243875742364 -0.75470957328743171 0 0.6560590369687036 I I #
point $-1 51.56800642434159 9.0457066596563536 10.185359975343161 #
point $-1 63.124485000152589 21.835218641199418 0.13946619905141233 #
straight-curve $-1 63.124485000152589 0 10.185359975343163 0 1 0 I I #
vertex $-1 $304 $420 #
point $-1 57.069004273101186 12.699852940097234 3.319230233070857 #
vertex $-1 $308 $421 #
point $-1 57.069004273101186 18.181072360758545 3.319230233070857 #
edge $-1 $389 26.285599176481028 $392 34.126567431605878 $313 $422 forward 7 unknown #
vertex $-1 $327 $423 #
straight-curve $-1 -83.894812823059283 4.8216368150853377 10.185359975343161 -1 0 0 I I #
edge $-1 $392 -5.8610265546013416 $324 7.9398060336333494 $323 $424 forward 7 unknown #
vertex $-1 $391 $425 #
straight-curve $-1 -63.124485000152589 4.8216368150853377 2.3443917202183115 0.55919289150049634 0 0.82903758062907751 I I #
point $-1 -57.835685296501275 4.8216368150853377 10.185359975343163 #
point $-1 -63.124485000152589 -8.9791957731493532 2.3443917202183115 #
straight-curve $-1 -63.124485000152589 0 10.185359975343163 0 -1 0 I I #
vertex $-1 $330 $426 #
point $-1 -57.863061433654181 -5.0361007479394395 5.7058890551897719 #
vertex $-1 $334 $427 #
point $-1 -57.863061433654181 0.87854178987543108 5.7058890551897719 #
straight-curve $-1 -63.124485000152589 27.337889623452416 0 0 0 -1 I I #
straight-curve $-1 0 27.337889623452416 -10.185359975343163 1 0 0 I I #
point $-1 63.124485000152589 27.337889623452416 -10.185359975343163 #
straight-curve $-1 -63.124485000152589 0 10.185359975343163 0 -1 0 I I #
point $-1 -63.124485000152589 27.337889623452416 10.185359975343163 #
straight-curve $-1 63.124485000152589 27.337889623452416 0 0 0 -1 I I #
point $-1 -63.124485000152589 27.337889623452416 -10.185359975343163 #
edge $-1 $410 -10.185359975343163 $365 10.185359975343163 $357 $428 forward 7 unknown #
straight-curve $-1 -59.182482439343531 -35.967970277678873 -10.185359975343163 -1 0 0 I I #
vertex $-1 $371 $429 #
straight-curve $-1 -59.182482439343531 -35.967970277678873 10.185359975343163 1 0 0 I I #
point $-1 -62.194013035648261 -35.967970277678873 10.185359975343163 #
point $-1 -62.194013035648261 -35.967970277678873 -10.185359975343163 #
point $-1 -56.1709518430388 -35.967970277678873 -10.185359975343163 #
straight-curve $-1 -56.1709518430388 -31.652929950565646 10.185359975343163 0 1 0 I I #
straight-curve $-1 63.124485000152589 9.0457066596563536 89.123775076325231 0 0 -1 I I #
point $-1 63.124485000152589 9.0457066596563536 10.185359975343163 #
straight-curve $-1 63.124485000152589 7.720231325213943 0.13946619905140523 0 1 0 I I #
point $-1 63.124485000152589 9.0457066596563536 0.13946619905141233 #
point $-1 55.658235662845051 12.699852940097234 3.2205796967521287 #
point $-1 55.658235662845051 18.181072360758545 3.2205796967521287 #
straight-curve $-1 -63.124485000152589 4.8216368150853377 36.470959151824189 0 0 -1 I I #
point $-1 -63.124485000152589 4.8216368150853377 10.185359975343163 #
straight-curve $-1 -63.124485000152589 -1.0393897395160039 2.3443917202183076 0 -1 0 I I #
point $-1 -63.124485000152589 4.8216368150853377 2.3443917202183115 #
point $-1 -57.593216744525598 -5.0361007479394395 4.3176585830601981 #
point $-1 -57.593216744525598 0.87854178987543108 4.3176585830601981 #
straight-curve $-1 -56.1709518430388 -35.967970277678873 0 0 0 -1 I I #
point $-1 -56.1709518430388 -35.967970277678873 10.185359975343163 #
End-of-ACIS-data 