500 0 9 0           
7 Unknown 11 ACIS 5.0 NT 24 Fri Mar 26 03:06:07 1999 
-1 9.9999999999999995e-007 1e-010 
body $-1 $9 $-1 $10 #
body $-1 $11 $-1 $12 #
body $-1 $13 $-1 $14 #
body $-1 $15 $-1 $16 #
body $-1 $17 $-1 $18 #
body $-1 $19 $-1 $20 #
body $-1 $21 $-1 $22 #
body $-1 $23 $-1 $24 #
body $-1 $25 $-1 $26 #
lump $-1 $-1 $27 $0 #
transform $-1 1 0 0 0 1 0 0 0 1 73.954893642994477 41.514454396226306 15.848013419174045 1 rotate no_reflect no_shear #
lump $-1 $-1 $28 $1 #
transform $-1 1 0 0 0 1 0 0 0 1 73.954893642994477 41.514454396226306 15.848013419174045 1 rotate no_reflect no_shear #
lump $-1 $-1 $29 $2 #
transform $-1 1 0 0 0 1 0 0 0 1 73.954893642994477 41.514454396226306 15.848013419174045 1 rotate no_reflect no_shear #
lump $-1 $-1 $30 $3 #
transform $-1 1 0 0 0 1 0 0 0 1 73.954893642994477 41.514454396226306 15.848013419174045 1 rotate no_reflect no_shear #
lump $-1 $-1 $31 $4 #
transform $-1 1 0 0 0 1 0 0 0 1 73.954893642994477 41.514454396226306 15.848013419174045 1 rotate no_reflect no_shear #
lump $-1 $-1 $32 $5 #
transform $-1 1 0 0 0 1 0 0 0 1 73.954893642994477 41.514454396226306 15.848013419174045 1 rotate no_reflect no_shear #
lump $-1 $-1 $33 $6 #
transform $-1 1 0 0 0 1 0 0 0 1 73.954893642994477 41.514454396226306 15.848013419174045 1 rotate no_reflect no_shear #
lump $-1 $-1 $34 $7 #
transform $-1 1 0 0 0 1 0 0 0 1 73.954893642994477 41.514454396226306 15.848013419174045 1 rotate no_reflect no_shear #
lump $-1 $-1 $35 $8 #
transform $-1 1 0 0 0 1 0 0 0 1 73.954893642994477 41.514454396226306 15.848013419174045 1 rotate no_reflect no_shear #
shell $-1 $-1 $-1 $36 $-1 $9 #
shell $-1 $-1 $-1 $37 $-1 $11 #
shell $-1 $-1 $-1 $38 $-1 $13 #
shell $-1 $-1 $-1 $39 $-1 $15 #
shell $-1 $-1 $-1 $40 $-1 $17 #
shell $-1 $-1 $-1 $41 $-1 $19 #
shell $-1 $-1 $-1 $42 $-1 $21 #
shell $-1 $-1 $-1 $43 $-1 $23 #
shell $-1 $-1 $-1 $44 $-1 $25 #
face $-1 $45 $46 $27 $-1 $47 forward single #
face $-1 $48 $49 $28 $-1 $50 forward single #
face $-1 $51 $52 $29 $-1 $53 reversed single #
face $-1 $54 $55 $30 $-1 $56 forward single #
face $-1 $57 $58 $31 $-1 $59 forward single #
face $-1 $60 $61 $32 $-1 $62 forward single #
face $-1 $63 $64 $33 $-1 $65 reversed single #
face $-1 $66 $67 $34 $-1 $68 forward single #
face $-1 $69 $70 $35 $-1 $71 forward single #
face $-1 $72 $73 $27 $-1 $74 reversed single #
loop $-1 $-1 $75 $36 #
plane-surface $-1 0 0 15.848013419174045 0 0 1 1 0 0 forward_v I I I I #
face $-1 $76 $77 $28 $-1 $78 reversed single #
loop $-1 $-1 $79 $37 #
plane-surface $-1 0 -33.13412627483099 -6.8358251430170078 0 0 1 1 0 0 forward_v I I I I #
face $-1 $80 $81 $29 $-1 $82 reversed single #
loop $-1 $-1 $83 $38 #
plane-surface $-1 -199.38950832590888 -12.729453981878283 80.018446847836913 0 1 0 -0.84804810408105047 0 0.52991925155115449 forward_v I I I I #
face $-1 $84 $85 $30 $-1 $86 forward single #
loop $-1 $87 $88 $39 #
cone-surface $-1 -67.947310675463925 -9.7118185673041459 7.7633471122957456 0.84804810408105047 0 -0.52991925155115449 0.52991925155115449 0 0.84804810408105047 1 I I 0 1 1 forward I I I I #
face $-1 $89 $90 $31 $-1 $91 forward single #
loop $-1 $92 $93 $40 #
cone-surface $-1 -67.947310675463925 -5.1853654454429474 7.7633471122957456 0.84804810408105047 0 -0.52991925155115449 0.52991925155115449 0 0.84804810408105047 1 I I 0 1 1 forward I I I I #
face $-1 $94 $95 $32 $-1 $96 forward single #
loop $-1 $97 $98 $41 #
cone-surface $-1 -67.947310675463925 -0.65891232358174534 7.7633471122957456 0.84804810408105047 0 -0.52991925155115449 0.52991925155115449 0 0.84804810408105047 1 I I 0 1 1 forward I I I I #
face $-1 $99 $100 $33 $-1 $101 reversed single #
loop $-1 $-1 $102 $42 #
plane-surface $-1 103.06657282381479 -15.876436949579926 214.8478933966494 0 -1 0 -0.79863551827123203 0 -0.60181501223851219 forward_v I I I I #
face $-1 $103 $104 $34 $-1 $105 forward single #
loop $-1 $106 $107 $43 #
cone-surface $-1 69.312018048434965 -22.217409238048319 10.590380147546753 -0.79863551827123203 0 -0.60181501223851219 0.60181501223851219 0 -0.79863551827123203 1 I I 0 1 1 forward I I I I #
face $-1 $108 $109 $35 $-1 $110 forward single #
loop $-1 $111 $112 $44 #
cone-surface $-1 69.312018048434965 -18.412825864967285 10.590380147546753 -0.79863551827123203 0 -0.60181501223851219 0.60181501223851219 0 -0.79863551827123203 1 I I 0 1 1 forward I I I I #
face $-1 $113 $114 $27 $-1 $115 reversed single #
loop $-1 $-1 $116 $45 #
plane-surface $-1 0 0 -15.848013419174045 0 0 1 1 0 0 forward_v I I I I #
coedge $-1 $117 $118 $119 $120 forward $46 $-1 #
face $-1 $121 $122 $28 $-1 $123 reversed single #
loop $-1 $-1 $124 $48 #
plane-surface $-1 0 -24.753798153435675 -11.341919281095526 0 -1 0 0 0 -1 forward_v I I I I #
coedge $-1 $125 $126 $127 $128 reversed $49 $-1 #
face $-1 $129 $130 $29 $-1 $131 reversed single #
loop $-1 $-1 $132 $51 #
plane-surface $-1 -73.954893642994477 -5.1853654454429474 1.6382030721551786 -0.84804810408105047 0 0.52991925155115449 0.52991925155115449 0 0.84804810408105047 forward_v I I I I #
coedge $-1 $133 $134 $135 $136 reversed $52 $-1 #
face $-1 $-1 $137 $30 $-1 $138 forward single #
loop $-1 $139 $140 $54 #
cone-surface $-1 -65.955340999304923 -9.7118185673041459 6.5186263531512978 0.84804810408105047 0 -0.52991925155115449 0.26495962577557725 0 0.42402405204052523 1 I I -0.70710678118654746 0.70710678118654746 0.5 forward I I I I #
loop $-1 $-1 $141 $39 #
coedge $-1 $88 $88 $142 $143 reversed $55 $-1 #
face $-1 $-1 $144 $31 $-1 $145 forward single #
loop $-1 $146 $147 $57 #
cone-surface $-1 -65.955340999304923 -5.1853654454429474 6.5186263531512978 0.84804810408105047 0 -0.52991925155115449 0.26495962577557725 0 0.42402405204052523 1 I I -0.70710678118654746 0.70710678118654746 0.5 forward I I I I #
loop $-1 $-1 $148 $40 #
coedge $-1 $93 $93 $149 $150 reversed $58 $-1 #
face $-1 $-1 $151 $32 $-1 $152 forward single #
loop $-1 $153 $154 $60 #
cone-surface $-1 -65.955340999304923 -0.65891232358174534 6.5186263531512978 0.84804810408105047 0 -0.52991925155115449 0.26495962577557725 0 0.42402405204052523 1 I I -0.70710678118654746 0.70710678118654746 0.5 forward I I I I #
loop $-1 $-1 $155 $41 #
coedge $-1 $98 $98 $156 $157 reversed $61 $-1 #
face $-1 $158 $159 $33 $-1 $160 reversed single #
loop $-1 $-1 $161 $63 #
plane-surface $-1 -15.059436802718679 -20.3151175515078 125.83356295093621 0.79863551827123203 0 0.60181501223851219 0.60181501223851219 0 -0.79863551827123203 forward_v I I I I #
coedge $-1 $162 $163 $164 $165 reversed $64 $-1 #
face $-1 $-1 $166 $34 $-1 $167 forward single #
loop $-1 $168 $169 $66 #
cone-surface $-1 67.336962944592955 -22.217409238048319 9.1020694171858523 -0.79863551827123203 0 -0.60181501223851219 0.3009075061192561 0 -0.39931775913561601 1 I I -0.70710678118654746 0.70710678118654746 0.5 forward I I I I #
loop $-1 $-1 $170 $43 #
coedge $-1 $107 $107 $171 $172 reversed $67 $-1 #
face $-1 $-1 $173 $35 $-1 $174 forward single #
loop $-1 $175 $176 $69 #
cone-surface $-1 67.336962944592955 -18.412825864967285 9.1020694171858523 -0.79863551827123203 0 -0.60181501223851219 0.3009075061192561 0 -0.39931775913561601 1 I I -0.70710678118654746 0.70710678118654746 0.5 forward I I I I #
loop $-1 $-1 $177 $44 #
coedge $-1 $112 $112 $178 $179 reversed $70 $-1 #
face $-1 $180 $181 $27 $-1 $182 reversed single #
loop $-1 $-1 $183 $72 #
plane-surface $-1 0 -41.514454396226306 0 0 1 0 0 0 1 forward_v I I I I #
coedge $-1 $184 $185 $186 $187 forward $73 $-1 #
coedge $-1 $188 $75 $189 $190 forward $46 $-1 #
coedge $-1 $75 $188 $191 $192 forward $46 $-1 #
coedge $-1 $193 $194 $75 $120 reversed $195 $-1 #
edge $-1 $196 -41.514454396226306 $197 41.514454396226306 $119 $198 forward 7 unknown #
face $-1 $199 $200 $28 $-1 $201 reversed single #
loop $-1 $-1 $202 $76 #
plane-surface $-1 0 0 -15.848013419174045 0 0 1 1 0 0 forward_v I I I I #
coedge $-1 $203 $204 $205 $206 reversed $77 $-1 #
coedge $-1 $207 $79 $204 $208 forward $49 $-1 #
coedge $-1 $79 $207 $209 $210 reversed $49 $-1 #
coedge $-1 $211 $205 $79 $128 forward $200 $-1 #
edge $-1 $212 8.1867350160201795 $213 24.947391258810811 $127 $214 forward 7 unknown #
face $-1 $215 $216 $29 $-1 $217 forward single #
loop $-1 $-1 $218 $80 #
plane-surface $-1 -199.38950832590888 2.3587230909923882 80.018446847836913 0 -1 0 0.84804810408105047 0 -0.52991925155115449 forward_v I I I I #
coedge $-1 $219 $220 $221 $222 reversed $81 $-1 #
coedge $-1 $134 $83 $223 $224 reversed $52 $-1 #
coedge $-1 $83 $133 $219 $225 reversed $52 $-1 #
coedge $-1 $221 $226 $83 $136 forward $216 $-1 #
edge $-1 $227 25.739860519959961 $228 34.619135206784122 $135 $229 forward 7 unknown #
loop $-1 $-1 $142 $84 #
plane-surface $-1 -73.954893642994477 -5.1853654454429474 1.6382030721551786 -0.84804810408105047 0 0.52991925155115449 0.52991925155115449 0 0.84804810408105047 forward_v I I I I #
loop $-1 $-1 $230 $54 #
coedge $-1 $140 $140 $141 $231 reversed $85 $-1 #
coedge $-1 $141 $141 $140 $231 forward $87 $-1 #
coedge $-1 $142 $142 $88 $143 forward $137 $-1 #
edge $-1 $232 0 $232 6.2831853071796004 $142 $233 forward 7 unknown #
loop $-1 $-1 $149 $89 #
plane-surface $-1 -73.954893642994477 -5.1853654454429474 1.6382030721551786 -0.84804810408105047 0 0.52991925155115449 0.52991925155115449 0 0.84804810408105047 forward_v I I I I #
loop $-1 $-1 $234 $57 #
coedge $-1 $147 $147 $148 $235 reversed $90 $-1 #
coedge $-1 $148 $148 $147 $235 forward $92 $-1 #
coedge $-1 $149 $149 $93 $150 forward $144 $-1 #
edge $-1 $236 0 $236 6.2831853071796004 $149 $237 forward 7 unknown #
loop $-1 $-1 $156 $94 #
plane-surface $-1 -73.954893642994477 -5.1853654454429474 1.6382030721551786 -0.84804810408105047 0 0.52991925155115449 0.52991925155115449 0 0.84804810408105047 forward_v I I I I #
loop $-1 $-1 $238 $60 #
coedge $-1 $154 $154 $155 $239 reversed $95 $-1 #
coedge $-1 $155 $155 $154 $239 forward $97 $-1 #
coedge $-1 $156 $156 $98 $157 forward $151 $-1 #
edge $-1 $240 0 $240 6.2831853071796004 $156 $241 forward 7 unknown #
face $-1 $242 $243 $33 $-1 $244 reversed single #
loop $-1 $-1 $245 $99 #
plane-surface $-1 103.06657282381479 -24.753798153435675 214.8478933966494 0 1 0 0.79863551827123203 0 0.60181501223851219 forward_v I I I I #
coedge $-1 $246 $247 $248 $249 reversed $100 $-1 #
coedge $-1 $163 $102 $250 $251 reversed $64 $-1 #
coedge $-1 $102 $162 $246 $252 reversed $64 $-1 #
coedge $-1 $248 $253 $102 $165 forward $254 $-1 #
edge $-1 $255 -22.42160723108708 $256 -16.287330731380891 $164 $257 forward 7 unknown #
loop $-1 $-1 $171 $103 #
plane-surface $-1 -15.059436802718679 -20.3151175515078 125.83356295093621 0.79863551827123203 0 0.60181501223851219 0.60181501223851219 0 -0.79863551827123203 forward_v I I I I #
loop $-1 $-1 $258 $66 #
coedge $-1 $169 $169 $170 $259 reversed $104 $-1 #
coedge $-1 $170 $170 $169 $259 forward $106 $-1 #
coedge $-1 $171 $171 $107 $172 forward $166 $-1 #
edge $-1 $260 0 $260 6.2831853071796004 $171 $261 forward 7 unknown #
loop $-1 $-1 $178 $108 #
plane-surface $-1 -15.059436802718679 -20.3151175515078 125.83356295093621 0.79863551827123203 0 0.60181501223851219 0.60181501223851219 0 -0.79863551827123203 forward_v I I I I #
loop $-1 $-1 $262 $69 #
coedge $-1 $176 $176 $177 $263 reversed $109 $-1 #
coedge $-1 $177 $177 $176 $263 forward $111 $-1 #
coedge $-1 $178 $178 $112 $179 forward $173 $-1 #
edge $-1 $264 0 $264 6.2831853071796004 $178 $265 forward 7 unknown #
face $-1 $266 $267 $27 $-1 $268 reversed single #
loop $-1 $-1 $269 $113 #
plane-surface $-1 -73.954893642994477 0 0 1 0 0 0 0 -1 forward_v I I I I #
coedge $-1 $270 $191 $271 $272 forward $114 $-1 #
coedge $-1 $273 $116 $270 $274 forward $73 $-1 #
coedge $-1 $116 $273 $275 $276 forward $73 $-1 #
coedge $-1 $194 $193 $116 $187 reversed $195 $-1 #
edge $-1 $277 -41.514454396226306 $278 41.514454396226306 $186 $279 forward 7 unknown #
coedge $-1 $118 $117 $280 $281 forward $46 $-1 #
coedge $-1 $282 $283 $117 $190 reversed $267 $-1 #
edge $-1 $197 -73.954893642994477 $284 73.954893642994477 $189 $285 forward 7 unknown #
coedge $-1 $183 $286 $118 $192 reversed $114 $-1 #
edge $-1 $287 -73.954893642994477 $196 73.954893642994477 $191 $288 forward 7 unknown #
coedge $-1 $186 $119 $286 $289 forward $195 $-1 #
coedge $-1 $119 $186 $282 $290 reversed $195 $-1 #
loop $-1 $-1 $193 $266 #
vertex $-1 $120 $291 #
vertex $-1 $120 $292 #
straight-curve $-1 73.954893642994477 0 15.848013419174045 0 1 0 I I #
face $-1 $293 $294 $28 $-1 $295 reversed single #
loop $-1 $-1 $205 $121 #
plane-surface $-1 73.954893642994477 0 0 -1 0 0 0 0 1 forward_v I I I I #
coedge $-1 $296 $297 $203 $298 forward $122 $-1 #
coedge $-1 $299 $124 $202 $298 reversed $77 $-1 #
coedge $-1 $124 $299 $125 $208 reversed $77 $-1 #
coedge $-1 $127 $300 $124 $206 forward $200 $-1 #
edge $-1 $301 -10.177053778626281 $212 -1.1648655024692447 $205 $302 forward 7 unknown #
coedge $-1 $126 $125 $303 $304 reversed $49 $-1 #
edge $-1 $212 -73.954893642994477 $305 73.954893642994477 $204 $306 forward 7 unknown #
coedge $-1 $307 $308 $126 $210 forward $294 $-1 #
edge $-1 $213 -73.954893642994477 $309 73.954893642994477 $209 $310 forward 7 unknown #
coedge $-1 $300 $127 $308 $311 forward $200 $-1 #
vertex $-1 $128 $312 #
vertex $-1 $311 $313 #
straight-curve $-1 73.954893642994477 -16.567063137415495 -6.8358251430170078 0 -1 0 I I #
face $-1 $-1 $314 $29 $-1 $315 reversed single #
loop $-1 $-1 $135 $129 #
plane-surface $-1 0 0 15.848013419174045 0 0 1 1 0 0 forward_v I I I I #
coedge $-1 $316 $317 $318 $319 reversed $130 $-1 #
coedge $-1 $320 $132 $134 $225 forward $81 $-1 #
coedge $-1 $132 $320 $316 $321 forward $81 $-1 #
coedge $-1 $318 $135 $132 $222 forward $216 $-1 #
edge $-1 $228 -10.136771259156809 $322 4.9514058137138619 $221 $323 forward 7 unknown #
coedge $-1 $324 $325 $133 $224 forward $314 $-1 #
edge $-1 $326 -38.371020351763278 $227 -24.161210004744412 $223 $327 forward 7 unknown #
edge $-1 $228 -16.755901320499614 $326 0 $134 $328 forward 7 unknown #
coedge $-1 $135 $318 $324 $329 forward $216 $-1 #
vertex $-1 $224 $330 #
vertex $-1 $136 $331 #
straight-curve $-1 -99.694754162954439 -12.729453981878283 15.848013419174045 1 0 0 I I #
coedge $-1 $230 $230 $-1 $332 reversed $139 $-1 #
edge $-1 $333 0 $333 6.2831853071796004 $140 $334 forward 7 unknown #
vertex $-1 $143 $335 #
ellipse-curve $-1 -69.515256299582404 -9.7118185673041459 8.7431082456646134 -0.84804810408105047 0 0.52991925155115449 0.52991925155115449 0 0.84804810408105047 1 I I #
coedge $-1 $234 $234 $-1 $336 reversed $146 $-1 #
edge $-1 $337 0 $337 6.2831853071796004 $147 $338 forward 7 unknown #
vertex $-1 $150 $339 #
ellipse-curve $-1 -69.515256299582404 -5.1853654454429474 8.7431082456646134 -0.84804810408105047 0 0.52991925155115449 0.52991925155115449 0 0.84804810408105047 1 I I #
coedge $-1 $238 $238 $-1 $340 reversed $153 $-1 #
edge $-1 $341 0 $341 6.2831853071796004 $154 $342 forward 7 unknown #
vertex $-1 $157 $343 #
ellipse-curve $-1 -69.515256299582404 -0.65891232358174534 8.7431082456646134 -0.84804810408105047 0 0.52991925155115449 0.52991925155115449 0 0.84804810408105047 1 I I #
face $-1 $-1 $254 $33 $-1 $344 forward single #
loop $-1 $-1 $345 $158 #
plane-surface $-1 73.954893642994477 0 0 -1 0 0 0 0 1 forward_v I I I I #
coedge $-1 $346 $347 $348 $349 reversed $159 $-1 #
coedge $-1 $350 $161 $163 $252 forward $100 $-1 #
coedge $-1 $161 $350 $346 $351 forward $100 $-1 #
coedge $-1 $348 $164 $161 $249 forward $254 $-1 #
edge $-1 $256 5.7188781738260257 $352 14.596239377681774 $248 $353 forward 7 unknown #
coedge $-1 $354 $355 $162 $251 forward $243 $-1 #
edge $-1 $356 -99.716393373921932 $255 -91.575933279150661 $250 $357 forward 7 unknown #
edge $-1 $256 137.71682703248987 $356 147.9097872859889 $163 $358 forward 7 unknown #
coedge $-1 $164 $348 $354 $359 forward $254 $-1 #
loop $-1 $-1 $348 $242 #
vertex $-1 $251 $360 #
vertex $-1 $165 $361 #
straight-curve $-1 51.533286411907397 -15.876436949579926 15.848013419174038 -1 0 0 I I #
coedge $-1 $258 $258 $-1 $362 reversed $168 $-1 #
edge $-1 $363 0 $363 6.2831853071796004 $169 $364 forward 7 unknown #
vertex $-1 $172 $365 #
ellipse-curve $-1 70.887755393141376 -22.217409238048319 11.777783371788415 0.79863551827123203 0 0.60181501223851219 0.60181501223851219 0 -0.79863551827123203 1 I I #
coedge $-1 $262 $262 $-1 $366 reversed $175 $-1 #
edge $-1 $367 0 $367 6.2831853071796004 $176 $368 forward 7 unknown #
vertex $-1 $179 $369 #
ellipse-curve $-1 70.887755393141376 -18.412825864967285 11.777783371788415 0.79863551827123203 0 0.60181501223851219 0.60181501223851219 0 -0.79863551827123203 1 I I #
face $-1 $-1 $195 $27 $-1 $370 reversed single #
loop $-1 $-1 $282 $180 #
plane-surface $-1 0 41.514454396226306 0 0 -1 0 0 0 -1 forward_v I I I I #
coedge $-1 $371 $280 $283 $372 forward $181 $-1 #
coedge $-1 $286 $183 $184 $274 reversed $114 $-1 #
coedge $-1 $280 $371 $183 $272 reversed $181 $-1 #
edge $-1 $287 -15.848013419174045 $373 15.848013419174045 $271 $374 forward 7 unknown #
coedge $-1 $185 $184 $371 $375 forward $73 $-1 #
edge $-1 $278 -73.954893642994477 $373 73.954893642994477 $270 $376 forward 7 unknown #
coedge $-1 $283 $282 $185 $276 reversed $267 $-1 #
edge $-1 $377 -73.954893642994477 $277 73.954893642994477 $275 $378 forward 7 unknown #
vertex $-1 $187 $379 #
vertex $-1 $289 $380 #
straight-curve $-1 73.954893642994477 0 -15.848013419174045 0 -1 0 I I #
coedge $-1 $269 $271 $188 $281 reversed $181 $-1 #
edge $-1 $284 -41.514454396226306 $287 41.514454396226306 $280 $381 forward 7 unknown #
coedge $-1 $275 $189 $194 $290 forward $267 $-1 #
coedge $-1 $189 $275 $269 $372 reversed $267 $-1 #
vertex $-1 $190 $382 #
straight-curve $-1 0 41.514454396226306 15.848013419174045 -1 0 0 I I #
coedge $-1 $191 $270 $193 $289 reversed $114 $-1 #
vertex $-1 $281 $383 #
straight-curve $-1 0 -41.514454396226306 15.848013419174045 1 0 0 I I #
edge $-1 $196 -15.848013419174045 $278 15.848013419174045 $193 $384 forward 7 unknown #
edge $-1 $197 -15.848013419174045 $277 15.848013419174045 $194 $385 forward 7 unknown #
point $-1 73.954893642994477 -41.514454396226306 15.848013419174045 #
point $-1 73.954893642994477 41.514454396226306 15.848013419174045 #
face $-1 $-1 $386 $28 $-1 $387 reversed single #
loop $-1 $-1 $209 $199 #
plane-surface $-1 0 -41.514454396226306 0 0 1 0 0 0 1 forward_v I I I I #
coedge $-1 $388 $202 $300 $389 forward $122 $-1 #
coedge $-1 $202 $388 $390 $391 forward $122 $-1 #
edge $-1 $392 -73.954893642994477 $301 73.954893642994477 $202 $393 forward 7 unknown #
coedge $-1 $204 $203 $394 $395 reversed $77 $-1 #
coedge $-1 $205 $211 $296 $389 reversed $200 $-1 #
vertex $-1 $389 $396 #
straight-curve $-1 73.954893642994477 -24.753798153435675 -5.6709596405477631 0 0 1 I I #
coedge $-1 $394 $397 $207 $304 forward $386 $-1 #
edge $-1 $309 -24.947391258810811 $305 -8.1867350160201795 $303 $398 forward 7 unknown #
vertex $-1 $304 $399 #
straight-curve $-1 0 -24.753798153435675 -6.8358251430170078 -1 0 0 I I #
coedge $-1 $400 $209 $397 $401 forward $294 $-1 #
coedge $-1 $209 $400 $211 $311 reversed $294 $-1 #
vertex $-1 $401 $402 #
straight-curve $-1 0 -41.514454396226306 -6.8358251430170078 -1 0 0 I I #
edge $-1 $213 6.8358251430170078 $403 15.848013419174045 $211 $404 forward 7 unknown #
point $-1 73.954893642994477 -24.753798153435675 -6.8358251430170078 #
point $-1 73.954893642994477 -41.514454396226306 -6.8358251430170078 #
loop $-1 $-1 $223 $215 #
plane-surface $-1 -73.954893642994477 0 0 1 0 0 0 0 -1 forward_v I I I I #
coedge $-1 $317 $218 $220 $321 reversed $130 $-1 #
coedge $-1 $218 $316 $405 $406 reversed $130 $-1 #
coedge $-1 $226 $221 $218 $319 forward $216 $-1 #
edge $-1 $322 -34.619135206784122 $407 -25.739860519959961 $318 $408 forward 7 unknown #
coedge $-1 $220 $219 $325 $409 reversed $81 $-1 #
edge $-1 $410 0 $322 16.755901320499614 $316 $411 forward 7 unknown #
vertex $-1 $222 $412 #
straight-curve $-1 -65.075618956170317 -2.5926827227214737 15.848013419174045 0 1 0 I I #
coedge $-1 $405 $223 $226 $329 reversed $314 $-1 #
coedge $-1 $223 $405 $320 $409 forward $314 $-1 #
vertex $-1 $224 $413 #
straight-curve $-1 -73.954893642994477 -12.729453981878283 40.009223423918456 0 0 1 I I #
straight-curve $-1 -73.954893642994477 -12.729453981878283 1.6382030721551786 -0.52991925155115449 0 -0.84804810408105047 I I #
edge $-1 $407 -2.3587230909923882 $227 12.729453981878283 $324 $414 forward 7 unknown #
point $-1 -73.954893642994477 -12.729453981878283 15.848013419174045 #
point $-1 -65.075618956170317 -12.729453981878283 15.848013419174043 #
edge $-1 $415 1 $415 0 $230 $-1 forward 7 unknown #
vertex $-1 $231 $416 #
ellipse-curve $-1 -66.379365051345445 -9.7118185673041459 6.7835859789268751 -0.84804810408105047 0 0.52991925155115449 0.52991925155115449 0 0.84804810408105047 1 I I #
point $-1 -68.985337048031255 -9.7118185673041459 9.5911563497456687 #
edge $-1 $417 1 $417 0 $234 $-1 forward 7 unknown #
vertex $-1 $235 $418 #
ellipse-curve $-1 -66.379365051345445 -5.1853654454429474 6.7835859789268751 -0.84804810408105047 0 0.52991925155115449 0.52991925155115449 0 0.84804810408105047 1 I I #
point $-1 -68.985337048031255 -5.1853654454429474 9.5911563497456687 #
edge $-1 $419 1 $419 0 $238 $-1 forward 7 unknown #
vertex $-1 $239 $420 #
ellipse-curve $-1 -66.379365051345445 -0.65891232358174534 6.7835859789268751 -0.84804810408105047 0 0.52991925155115449 0.52991925155115449 0 0.84804810408105047 1 I I #
point $-1 -68.985337048031255 -0.65891232358174534 9.5911563497456687 #
plane-surface $-1 0 0 15.848013419174045 0 0 1 1 0 0 forward_v I I I I #
coedge $-1 $355 $354 $347 $421 forward $243 $-1 #
coedge $-1 $347 $245 $247 $351 reversed $159 $-1 #
coedge $-1 $245 $346 $345 $421 reversed $159 $-1 #
coedge $-1 $253 $248 $245 $349 forward $254 $-1 #
edge $-1 $352 16.287330731380891 $422 22.42160723108708 $348 $423 forward 7 unknown #
coedge $-1 $247 $246 $355 $424 reversed $100 $-1 #
edge $-1 $425 -147.9097872859889 $352 -137.71682703248987 $346 $426 forward 7 unknown #
vertex $-1 $249 $427 #
straight-curve $-1 67.82061714328826 -10.1575587757539 15.848013419174052 0 -1 0 I I #
coedge $-1 $345 $250 $253 $359 reversed $243 $-1 #
coedge $-1 $250 $345 $350 $424 forward $243 $-1 #
vertex $-1 $251 $428 #
straight-curve $-1 73.954893642994477 -15.876436949579926 107.4239466983247 0 0 1 I I #
straight-curve $-1 -15.059436802718679 -15.876436949579926 125.83356295093621 0.60181501223851219 0 -0.79863551827123203 I I #
edge $-1 $422 -24.753798153435675 $255 -15.876436949579926 $354 $429 forward 7 unknown #
point $-1 73.954893642994477 -15.876436949579926 15.848013419174045 #
point $-1 67.820617143288288 -15.876436949579926 15.848013419174038 #
edge $-1 $430 1 $430 0 $258 $-1 forward 7 unknown #
vertex $-1 $259 $431 #
ellipse-curve $-1 67.736280703728568 -22.217409238048319 9.4029769233051077 0.79863551827123203 0 0.60181501223851219 0.60181501223851219 0 -0.79863551827123203 1 I I #
point $-1 71.489570405379865 -22.217409238048319 10.979147853517162 #
edge $-1 $432 1 $432 0 $262 $-1 forward 7 unknown #
vertex $-1 $263 $433 #
ellipse-curve $-1 67.736280703728568 -18.412825864967285 9.4029769233051077 0.79863551827123203 0 0.60181501223851219 0.60181501223851219 0 -0.79863551827123203 1 I I #
point $-1 71.489570405379865 -18.412825864967285 10.979147853517162 #
plane-surface $-1 73.954893642994477 0 0 -1 0 0 0 0 1 forward_v I I I I #
coedge $-1 $271 $269 $273 $375 reversed $181 $-1 #
edge $-1 $284 -15.848013419174045 $377 15.848013419174045 $283 $434 forward 7 unknown #
vertex $-1 $375 $435 #
straight-curve $-1 -73.954893642994477 -41.514454396226306 0 0 0 -1 I I #
edge $-1 $373 -41.514454396226306 $377 41.514454396226306 $371 $436 forward 7 unknown #
straight-curve $-1 0 -41.514454396226306 -15.848013419174045 -1 0 0 I I #
vertex $-1 $276 $437 #
straight-curve $-1 0 41.514454396226306 -15.848013419174045 1 0 0 I I #
point $-1 73.954893642994477 41.514454396226306 -15.848013419174045 #
point $-1 73.954893642994477 -41.514454396226306 -15.848013419174045 #
straight-curve $-1 -73.954893642994477 0 15.848013419174045 0 -1 0 I I #
point $-1 -73.954893642994477 41.514454396226306 15.848013419174045 #
point $-1 -73.954893642994477 -41.514454396226306 15.848013419174045 #
straight-curve $-1 73.954893642994477 -41.514454396226306 0 0 0 -1 I I #
straight-curve $-1 73.954893642994477 41.514454396226306 0 0 0 -1 I I #
loop $-1 $-1 $394 $293 #
plane-surface $-1 -73.954893642994477 0 0 1 0 0 0 0 -1 forward_v I I I I #
coedge $-1 $297 $296 $400 $438 forward $122 $-1 #
edge $-1 $301 24.753798153435675 $403 41.514454396226306 $300 $439 forward 7 unknown #
coedge $-1 $397 $394 $297 $391 reversed $386 $-1 #
edge $-1 $440 -41.514454396226306 $392 -24.753798153435675 $390 $441 forward 7 unknown #
vertex $-1 $395 $442 #
straight-curve $-1 0 -24.753798153435675 -15.848013419174045 1 0 0 I I #
coedge $-1 $390 $303 $299 $395 forward $386 $-1 #
edge $-1 $305 1.1648655024692447 $392 10.177053778626281 $394 $443 forward 7 unknown #
point $-1 73.954893642994477 -24.753798153435675 -15.848013419174045 #
coedge $-1 $303 $390 $307 $401 reversed $386 $-1 #
straight-curve $-1 -73.954893642994477 -16.567063137415495 -6.8358251430170078 0 1 0 I I #
point $-1 -73.954893642994477 -24.753798153435675 -6.8358251430170078 #
coedge $-1 $308 $307 $388 $438 reversed $294 $-1 #
edge $-1 $309 6.8358251430170078 $440 15.848013419174045 $397 $444 forward 7 unknown #
point $-1 -73.954893642994477 -41.514454396226306 -6.8358251430170078 #
vertex $-1 $311 $445 #
straight-curve $-1 73.954893642994477 -41.514454396226306 0 0 0 -1 I I #
coedge $-1 $325 $324 $317 $406 forward $314 $-1 #
edge $-1 $407 24.161210004744412 $410 38.371020351763278 $405 $446 forward 7 unknown #
vertex $-1 $329 $447 #
straight-curve $-1 -99.694754162954439 2.3587230909923882 15.848013419174045 -1 0 0 I I #
edge $-1 $410 -4.9514058137138619 $326 10.136771259156809 $325 $448 forward 7 unknown #
vertex $-1 $409 $449 #
straight-curve $-1 -73.954893642994477 2.3587230909923882 1.6382030721551786 0.52991925155115449 0 0.84804810408105047 I I #
point $-1 -65.075618956170317 2.3587230909923882 15.848013419174043 #
point $-1 -73.954893642994477 -12.729453981878283 1.6382030721551786 #
straight-curve $-1 -73.954893642994477 0 15.848013419174045 0 -1 0 I I #
vertex $-1 $332 $450 #
point $-1 -65.849445799794296 -9.7118185673041459 7.6316340830079259 #
vertex $-1 $336 $451 #
point $-1 -65.849445799794296 -5.1853654454429474 7.6316340830079259 #
vertex $-1 $340 $452 #
point $-1 -65.849445799794296 -0.65891232358174534 7.6316340830079259 #
edge $-1 $422 91.575933279150661 $425 99.716393373921932 $345 $453 forward 7 unknown #
vertex $-1 $359 $454 #
straight-curve $-1 51.533286411907397 -24.753798153435675 15.848013419174038 1 0 0 I I #
edge $-1 $425 -14.596239377681774 $356 -5.7188781738260257 $355 $455 forward 7 unknown #
vertex $-1 $424 $456 #
straight-curve $-1 -15.059436802718679 -24.753798153435675 125.83356295093621 -0.60181501223851219 0 0.79863551827123203 I I #
point $-1 67.820617143288288 -24.753798153435675 15.848013419174038 #
point $-1 73.954893642994477 -15.876436949579926 7.7075533244027667 #
straight-curve $-1 73.954893642994477 0 15.848013419174045 0 1 0 I I #
vertex $-1 $362 $457 #
point $-1 68.338095715967086 -22.217409238048319 8.6043414050338765 #
vertex $-1 $366 $458 #
point $-1 68.338095715967086 -18.412825864967285 8.6043414050338765 #
straight-curve $-1 -73.954893642994477 41.514454396226306 0 0 0 -1 I I #
point $-1 -73.954893642994477 -41.514454396226306 -15.848013419174045 #
straight-curve $-1 -73.954893642994477 0 -15.848013419174045 0 1 0 I I #
point $-1 -73.954893642994477 41.514454396226306 -15.848013419174045 #
edge $-1 $403 -73.954893642994477 $440 73.954893642994477 $400 $459 forward 7 unknown #
straight-curve $-1 73.954893642994477 0 -15.848013419174045 0 -1 0 I I #
vertex $-1 $391 $460 #
straight-curve $-1 -73.954893642994477 0 -15.848013419174045 0 1 0 I I #
point $-1 -73.954893642994477 -24.753798153435675 -15.848013419174045 #
straight-curve $-1 -73.954893642994477 -24.753798153435675 -5.6709596405477631 0 0 -1 I I #
straight-curve $-1 -73.954893642994477 -41.514454396226306 0 0 0 -1 I I #
point $-1 73.954893642994477 -41.514454396226306 -15.848013419174045 #
straight-curve $-1 -73.954893642994477 2.3587230909923882 40.009223423918456 0 0 -1 I I #
point $-1 -73.954893642994477 2.3587230909923882 15.848013419174045 #
straight-curve $-1 -73.954893642994477 -2.5926827227214737 1.6382030721551717 0 -1 0 I I #
point $-1 -73.954893642994477 2.3587230909923882 1.6382030721551786 #
point $-1 -65.531316947264401 -9.7118185673041459 6.2536667273757205 #
point $-1 -65.531316947264401 -5.1853654454429474 6.2536667273757205 #
point $-1 -65.531316947264401 -0.65891232358174534 6.2536667273757205 #
straight-curve $-1 73.954893642994477 -24.753798153435675 107.4239466983247 0 0 -1 I I #
point $-1 73.954893642994477 -24.753798153435675 15.848013419174045 #
straight-curve $-1 73.954893642994477 -10.1575587757539 7.707553324402781 0 1 0 I I #
point $-1 73.954893642994477 -24.753798153435675 7.7075533244027667 #
point $-1 66.937645185457342 -22.217409238048319 8.8011619110665968 #
point $-1 66.937645185457342 -18.412825864967285 8.8011619110665968 #
straight-curve $-1 0 -41.514454396226306 -15.848013419174045 -1 0 0 I I #
point $-1 -73.954893642994477 -41.514454396226306 -15.848013419174045 #
End-of-ACIS-data 