500 0 4 0           
7 Unknown 11 ACIS 5.0 NT 24 Thu Mar 25 22:24:20 1999 
-1 9.9999999999999995e-007 1e-010 
body $-1 $4 $-1 $5 #
body $-1 $6 $-1 $7 #
body $-1 $8 $-1 $9 #
body $-1 $10 $-1 $11 #
lump $-1 $-1 $12 $0 #
transform $-1 1 0 0 0 1 0 0 0 1 61.785332804345835 40.353457100513467 17.352590001628617 1 rotate no_reflect no_shear #
lump $-1 $-1 $13 $1 #
transform $-1 1 0 0 0 1 0 0 0 1 61.785332804345835 40.353457100513467 17.352590001628617 1 rotate no_reflect no_shear #
lump $-1 $-1 $14 $2 #
transform $-1 1 0 0 0 1 0 0 0 1 61.785332804345835 40.353457100513467 17.352590001628617 1 rotate no_reflect no_shear #
lump $-1 $-1 $15 $3 #
transform $-1 1 0 0 0 1 0 0 0 1 61.785332804345835 40.353457100513467 17.352590001628617 1 rotate no_reflect no_shear #
shell $-1 $-1 $-1 $16 $-1 $4 #
shell $-1 $-1 $-1 $17 $-1 $6 #
shell $-1 $-1 $-1 $18 $-1 $8 #
shell $-1 $-1 $-1 $19 $-1 $10 #
face $-1 $20 $21 $12 $-1 $22 forward single #
face $-1 $23 $24 $13 $-1 $25 reversed single #
face $-1 $26 $27 $14 $-1 $28 forward single #
face $-1 $29 $30 $15 $-1 $31 reversed single #
face $-1 $32 $33 $12 $-1 $34 reversed single #
loop $-1 $-1 $35 $16 #
plane-surface $-1 0 0 17.352590001628617 0 0 1 1 0 0 forward_v I I I I #
face $-1 $36 $37 $13 $-1 $38 reversed single #
loop $-1 $-1 $39 $17 #
plane-surface $-1 -39.742720011369059 -62.672381979661324 0 0 1 0 0 0 1 forward_v I I I I #
face $-1 $40 $41 $14 $-1 $42 forward single #
loop $-1 $-1 $43 $18 #
plane-surface $-1 37.464095884193135 33.273410487889784 174.33537423971902 0 1 0 0.6018150307709319 0 0.79863550430605224 forward_v I I I I #
face $-1 $44 $45 $15 $-1 $46 reversed single #
loop $-1 $47 $48 $19 #
cone-surface $-1 50.234851713893015 36.813433794201629 8.1402967296664119 -0.6018150307709319 0 -0.79863550430605224 1.1979532564590785 0 -0.90272254615639791 1 I I 0 1 1.5 forward I I I I #
face $-1 $49 $50 $12 $-1 $51 reversed single #
loop $-1 $-1 $52 $20 #
plane-surface $-1 0 0 -17.352590001628617 0 0 1 1 0 0 forward_v I I I I #
coedge $-1 $53 $54 $55 $56 forward $21 $-1 #
face $-1 $57 $58 $13 $-1 $59 reversed single #
loop $-1 $-1 $60 $23 #
plane-surface $-1 -43.284042213581365 -51.512919540087395 0 1 0 0 0 0 -1 forward_v I I I I #
coedge $-1 $61 $62 $63 $64 forward $24 $-1 #
face $-1 $65 $66 $14 $-1 $67 reversed single #
loop $-1 $-1 $68 $26 #
plane-surface $-1 -36.902588041486176 36.813433794201629 75.647453393887005 0.6018150307709319 0 0.79863550430605224 0.79863550430605224 0 -0.6018150307709319 forward_v I I I I #
coedge $-1 $69 $70 $71 $72 reversed $27 $-1 #
face $-1 $73 $74 $15 $-1 $75 forward single #
loop $-1 $76 $77 $29 #
cone-surface $-1 48.897022245140072 36.813433794201629 6.3649370961851339 -0.6018150307709319 0 -0.79863550430605224 0.59897662822953923 0 -0.45136127307819895 1 I I -0.70710678118654757 0.70710678118654757 0.75 forward I I I I #
loop $-1 $-1 $78 $19 #
coedge $-1 $48 $48 $79 $80 reversed $30 $-1 #
face $-1 $81 $82 $12 $-1 $83 reversed single #
loop $-1 $-1 $84 $32 #
plane-surface $-1 0 -40.353457100513467 0 0 1 0 0 0 1 forward_v I I I I #
coedge $-1 $85 $86 $87 $88 forward $33 $-1 #
coedge $-1 $89 $35 $90 $91 forward $21 $-1 #
coedge $-1 $35 $89 $92 $93 forward $21 $-1 #
coedge $-1 $94 $95 $35 $56 reversed $96 $-1 #
edge $-1 $97 -40.353457100513467 $98 40.353457100513467 $55 $99 forward 7 unknown #
face $-1 $100 $101 $13 $-1 $102 reversed single #
loop $-1 $-1 $103 $36 #
plane-surface $-1 -36.201397809156752 -51.512919540087395 0 -1 0 0 0 0 1 forward_v I I I I #
coedge $-1 $104 $105 $106 $107 reversed $37 $-1 #
coedge $-1 $108 $39 $109 $110 reversed $24 $-1 #
coedge $-1 $39 $108 $111 $112 reversed $24 $-1 #
coedge $-1 $105 $104 $39 $64 reversed $37 $-1 #
edge $-1 $113 -17.352590001628617 $114 17.352590001628617 $63 $115 forward 7 unknown #
face $-1 $116 $117 $14 $-1 $118 forward single #
loop $-1 $-1 $119 $40 #
plane-surface $-1 61.785332804345835 0 0 -1 0 0 0 0 1 forward_v I I I I #
coedge $-1 $120 $121 $119 $122 reversed $41 $-1 #
coedge $-1 $70 $43 $121 $123 forward $27 $-1 #
coedge $-1 $43 $69 $124 $125 reversed $27 $-1 #
coedge $-1 $126 $119 $43 $72 forward $66 $-1 #
edge $-1 $127 -85.886917651651814 $128 -69.815097118230895 $71 $129 forward 7 unknown #
face $-1 $130 $131 $15 $-1 $132 forward single #
loop $-1 $-1 $133 $44 #
plane-surface $-1 37.464095884193135 33.273410487889784 174.33537423971902 0 1 0 0.6018150307709319 0 0.79863550430605224 forward_v I I I I #
loop $-1 $-1 $134 $29 #
coedge $-1 $77 $77 $78 $135 forward $45 $-1 #
coedge $-1 $78 $78 $77 $135 reversed $47 $-1 #
coedge $-1 $79 $79 $48 $80 forward $131 $-1 #
edge $-1 $136 0 $136 6.2831853071796004 $79 $137 forward 7 unknown #
face $-1 $138 $139 $12 $-1 $140 reversed single #
loop $-1 $-1 $141 $49 #
plane-surface $-1 -61.785332804345835 0 0 1 0 0 0 0 -1 forward_v I I I I #
coedge $-1 $142 $92 $143 $144 forward $50 $-1 #
coedge $-1 $145 $52 $142 $146 forward $33 $-1 #
coedge $-1 $52 $145 $147 $148 forward $33 $-1 #
coedge $-1 $95 $94 $52 $88 reversed $96 $-1 #
edge $-1 $149 -40.353457100513467 $150 40.353457100513467 $87 $151 forward 7 unknown #
coedge $-1 $54 $53 $152 $153 forward $21 $-1 #
coedge $-1 $154 $155 $53 $91 reversed $139 $-1 #
edge $-1 $98 -61.785332804345835 $156 61.785332804345835 $90 $157 forward 7 unknown #
coedge $-1 $84 $158 $54 $93 reversed $50 $-1 #
edge $-1 $159 -61.785332804345835 $97 61.785332804345835 $92 $160 forward 7 unknown #
coedge $-1 $87 $55 $158 $161 forward $96 $-1 #
coedge $-1 $55 $87 $154 $162 reversed $96 $-1 #
loop $-1 $-1 $94 $138 #
vertex $-1 $56 $163 #
vertex $-1 $56 $164 #
straight-curve $-1 61.785332804345835 0 17.352590001628617 0 1 0 I I #
face $-1 $165 $166 $13 $-1 $102 reversed single #
loop $-1 $-1 $106 $57 #
plane-surface $-1 0 -40.353457100513467 0 0 1 0 0 0 1 forward_v I I I I #
coedge $-1 $167 $168 $108 $169 forward $58 $-1 #
coedge $-1 $63 $60 $170 $171 reversed $37 $-1 #
coedge $-1 $60 $63 $172 $173 reversed $37 $-1 #
coedge $-1 $174 $175 $60 $107 forward $101 $-1 #
edge $-1 $176 -17.352590001628617 $177 17.352590001628617 $106 $178 forward 7 unknown #
coedge $-1 $62 $61 $103 $169 reversed $24 $-1 #
coedge $-1 $170 $179 $61 $110 forward $180 $-1 #
edge $-1 $181 -3.5413222022123065 $114 3.5413222022123065 $61 $182 forward 7 unknown #
coedge $-1 $183 $172 $62 $112 forward $184 $-1 #
edge $-1 $113 -3.5413222022123065 $185 3.5413222022123065 $62 $186 forward 7 unknown #
vertex $-1 $173 $187 #
vertex $-1 $171 $188 #
straight-curve $-1 -43.284042213581365 -62.672381979661324 0 0 0 -1 I I #
face $-1 $189 $190 $14 $-1 $191 reversed single #
loop $-1 $-1 $124 $65 #
plane-surface $-1 0 0 17.352590001628617 0 0 1 1 0 0 forward_v I I I I #
coedge $-1 $71 $192 $68 $122 forward $66 $-1 #
coedge $-1 $193 $68 $194 $195 reversed $41 $-1 #
coedge $-1 $68 $193 $69 $123 reversed $41 $-1 #
edge $-1 $196 -21.946740203412652 $127 -14.866693590788969 $119 $197 forward 7 unknown #
edge $-1 $127 -123.57066560869168 $198 -96.865083807531377 $69 $199 forward 7 unknown #
coedge $-1 $200 $201 $70 $125 forward $117 $-1 #
edge $-1 $128 -43.053284862249271 $198 -21.725259072693088 $124 $202 forward 7 unknown #
coedge $-1 $203 $71 $201 $204 reversed $66 $-1 #
vertex $-1 $122 $205 #
vertex $-1 $125 $206 #
straight-curve $-1 61.785332804345835 33.273410487889784 87.167687119859508 0 0 1 I I #
face $-1 $207 $208 $15 $-1 $209 reversed single #
loop $-1 $210 $79 $73 #
plane-surface $-1 -36.902588041486176 36.813433794201629 75.647453393887005 0.6018150307709319 0 0.79863550430605224 0.79863550430605224 0 -0.6018150307709319 forward_v I I I I #
coedge $-1 $211 $212 $213 $214 reversed $74 $-1 #
coedge $-1 $134 $134 $-1 $215 forward $76 $-1 #
edge $-1 $216 0 $216 6.2831853071796004 $77 $217 forward 7 unknown #
vertex $-1 $80 $218 #
ellipse-curve $-1 51.12131990956776 36.813433794201629 9.3166797349181465 -0.6018150307709319 0 -0.79863550430605224 1.1979532564590785 0 -0.90272254615639791 1 I I #
face $-1 $-1 $96 $12 $-1 $219 reversed single #
loop $-1 $-1 $154 $81 #
plane-surface $-1 0 40.353457100513467 0 0 -1 0 0 0 -1 forward_v I I I I #
coedge $-1 $220 $152 $155 $221 forward $82 $-1 #
coedge $-1 $158 $84 $85 $146 reversed $50 $-1 #
coedge $-1 $152 $220 $84 $144 reversed $82 $-1 #
edge $-1 $159 -17.352590001628617 $222 17.352590001628617 $143 $223 forward 7 unknown #
coedge $-1 $86 $85 $220 $224 forward $33 $-1 #
edge $-1 $150 -61.785332804345835 $222 61.785332804345835 $142 $225 forward 7 unknown #
coedge $-1 $155 $154 $86 $148 reversed $139 $-1 #
edge $-1 $226 -61.785332804345835 $149 61.785332804345835 $147 $227 forward 7 unknown #
vertex $-1 $88 $228 #
vertex $-1 $161 $229 #
straight-curve $-1 61.785332804345835 0 -17.352590001628617 0 -1 0 I I #
coedge $-1 $141 $143 $89 $153 reversed $82 $-1 #
edge $-1 $156 -40.353457100513467 $159 40.353457100513467 $152 $230 forward 7 unknown #
coedge $-1 $147 $90 $95 $162 forward $139 $-1 #
coedge $-1 $90 $147 $141 $221 reversed $139 $-1 #
vertex $-1 $91 $231 #
straight-curve $-1 0 40.353457100513467 17.352590001628617 -1 0 0 I I #
coedge $-1 $92 $142 $94 $161 reversed $50 $-1 #
vertex $-1 $153 $232 #
straight-curve $-1 0 -40.353457100513467 17.352590001628617 1 0 0 I I #
edge $-1 $97 -17.352590001628617 $150 17.352590001628617 $94 $233 forward 7 unknown #
edge $-1 $98 -17.352590001628617 $149 17.352590001628617 $95 $234 forward 7 unknown #
point $-1 61.785332804345835 -40.353457100513467 17.352590001628617 #
point $-1 61.785332804345835 40.353457100513467 17.352590001628617 #
face $-1 $235 $184 $13 $-1 $236 forward single #
loop $-1 $-1 $237 $100 #
coedge $-1 $238 $103 $179 $239 reversed $58 $-1 #
coedge $-1 $103 $238 $183 $240 reversed $58 $-1 #
edge $-1 $185 -17.352590001628617 $181 17.352590001628617 $103 $241 forward 7 unknown #
coedge $-1 $242 $109 $104 $171 forward $180 $-1 #
edge $-1 $114 -11.159462439573929 $176 11.159462439573929 $104 $243 forward 7 unknown #
coedge $-1 $111 $244 $105 $173 forward $184 $-1 #
edge $-1 $177 -11.159462439573929 $113 11.159462439573929 $105 $245 forward 7 unknown #
coedge $-1 $246 $106 $244 $247 reversed $101 $-1 #
coedge $-1 $106 $246 $242 $248 reversed $101 $-1 #
vertex $-1 $248 $249 #
vertex $-1 $173 $250 #
straight-curve $-1 -43.284042213581365 -40.353457100513467 0 0 0 1 I I #
coedge $-1 $109 $251 $167 $239 forward $180 $-1 #
loop $-1 $-1 $252 $235 #
vertex $-1 $169 $253 #
straight-curve $-1 -39.742720011369059 -62.672381979661324 -17.352590001628617 -1 0 0 I I #
coedge $-1 $254 $111 $168 $240 forward $184 $-1 #
loop $-1 $-1 $255 $165 #
vertex $-1 $240 $256 #
straight-curve $-1 -39.742720011369059 -62.672381979661324 17.352590001628617 1 0 0 I I #
point $-1 -43.284042213581365 -62.672381979661324 17.352590001628617 #
point $-1 -43.284042213581365 -62.672381979661324 -17.352590001628617 #
face $-1 $257 $258 $14 $-1 $259 reversed single #
loop $-1 $-1 $260 $116 #
plane-surface $-1 -39.742720011369059 -62.672381979661324 0 0 1 0 0 0 1 forward_v I I I I #
coedge $-1 $119 $261 $262 $263 reversed $66 $-1 #
coedge $-1 $121 $120 $200 $264 reversed $41 $-1 #
coedge $-1 $262 $265 $120 $195 forward $266 $-1 #
edge $-1 $267 59.366338056183608 $196 86.0719198573439 $194 $268 forward 7 unknown #
vertex $-1 $263 $269 #
straight-curve $-1 61.785332804345828 18.406716897100814 1.2807694682077013 0 -1 0 I I #
vertex $-1 $264 $270 #
straight-curve $-1 -36.902588041486176 33.273410487889784 75.647453393887005 -0.79863550430605224 0 0.6018150307709319 I I #
coedge $-1 $271 $124 $193 $264 forward $117 $-1 #
coedge $-1 $124 $272 $126 $204 forward $117 $-1 #
straight-curve $-1 18.732047942096568 33.273410487889784 17.352590001628613 -1 0 0 I I #
coedge $-1 $261 $126 $273 $274 forward $66 $-1 #
edge $-1 $275 -40.353457100513467 $128 33.273410487889784 $126 $276 forward 7 unknown #
point $-1 61.785332804345835 33.273410487889784 1.2807694682076942 #
point $-1 61.785332804345835 33.273410487889784 17.352590001628617 #
face $-1 $277 $278 $15 $-1 $279 forward single #
loop $-1 $-1 $280 $130 #
plane-surface $-1 61.785332804345835 0 0 -1 0 0 0 0 1 forward_v I I I I #
loop $-1 $-1 $281 $73 #
coedge $-1 $212 $133 $282 $283 forward $74 $-1 #
coedge $-1 $133 $211 $284 $285 reversed $74 $-1 #
coedge $-1 $286 $280 $133 $214 forward $208 $-1 #
edge $-1 $287 -85.886917651651814 $288 -69.815097118230895 $213 $289 forward 7 unknown #
edge $-1 $290 1 $290 0 $134 $-1 forward 7 unknown #
vertex $-1 $135 $291 #
ellipse-curve $-1 49.34838351821827 36.813433794201629 6.9639137244146729 0.6018150307709319 0 0.79863550430605224 1.1979532564590785 0 -0.90272254615639791 1 I I #
point $-1 52.319273166026839 36.813433794201629 8.4139571887617546 #
plane-surface $-1 61.785332804345835 0 0 -1 0 0 0 0 1 forward_v I I I I #
coedge $-1 $143 $141 $145 $224 reversed $82 $-1 #
edge $-1 $156 -17.352590001628617 $226 17.352590001628617 $155 $292 forward 7 unknown #
vertex $-1 $224 $293 #
straight-curve $-1 -61.785332804345835 -40.353457100513467 0 0 0 -1 I I #
edge $-1 $222 -40.353457100513467 $226 40.353457100513467 $220 $294 forward 7 unknown #
straight-curve $-1 0 -40.353457100513467 -17.352590001628617 -1 0 0 I I #
vertex $-1 $148 $295 #
straight-curve $-1 0 40.353457100513467 -17.352590001628617 1 0 0 I I #
point $-1 61.785332804345835 40.353457100513467 -17.352590001628617 #
point $-1 61.785332804345835 -40.353457100513467 -17.352590001628617 #
straight-curve $-1 -61.785332804345835 0 17.352590001628617 0 -1 0 I I #
point $-1 -61.785332804345835 40.353457100513467 17.352590001628617 #
point $-1 -61.785332804345835 -40.353457100513467 17.352590001628617 #
straight-curve $-1 61.785332804345835 -40.353457100513467 0 0 0 -1 I I #
straight-curve $-1 61.785332804345835 40.353457100513467 0 0 0 -1 I I #
face $-1 $296 $180 $13 $-1 $297 reversed single #
plane-surface $-1 0 0 17.352590001628617 0 0 1 1 0 0 forward_v I I I I #
coedge $-1 $298 $299 $238 $300 forward $166 $-1 #
coedge $-1 $168 $167 $237 $300 reversed $58 $-1 #
edge $-1 $301 -11.159462439573929 $181 11.159462439573929 $167 $302 forward 7 unknown #
edge $-1 $185 -11.159462439573929 $303 11.159462439573929 $168 $304 forward 7 unknown #
straight-curve $-1 -36.201397809156752 -62.672381979661324 0 0 0 -1 I I #
coedge $-1 $305 $170 $175 $248 forward $180 $-1 #
straight-curve $-1 -43.284042213581365 -51.512919540087395 -17.352590001628617 0 1 0 I I #
coedge $-1 $172 $306 $174 $247 forward $184 $-1 #
straight-curve $-1 -43.284042213581365 -51.512919540087395 17.352590001628617 0 -1 0 I I #
coedge $-1 $175 $174 $307 $308 forward $101 $-1 #
edge $-1 $309 -61.785332804345835 $177 -43.284042213581365 $174 $310 forward 7 unknown #
edge $-1 $176 43.284042213581365 $311 61.785332804345835 $175 $312 forward 7 unknown #
point $-1 -43.284042213581365 -40.353457100513467 -17.352590001628617 #
point $-1 -43.284042213581365 -40.353457100513467 17.352590001628617 #
coedge $-1 $179 $252 $298 $313 forward $180 $-1 #
coedge $-1 $251 $314 $315 $316 forward $180 $-1 #
point $-1 -36.201397809156752 -62.672381979661324 -17.352590001628617 #
coedge $-1 $255 $183 $299 $317 forward $184 $-1 #
coedge $-1 $318 $254 $319 $320 forward $184 $-1 #
point $-1 -36.201397809156752 -62.672381979661324 17.352590001628617 #
face $-1 $321 $322 $14 $-1 $323 reversed single #
loop $-1 $-1 $324 $189 #
plane-surface $-1 -43.284042213581365 -51.512919540087395 0 1 0 0 0 0 -1 forward_v I I I I #
coedge $-1 $325 $326 $327 $328 forward $190 $-1 #
coedge $-1 $192 $203 $329 $330 reversed $66 $-1 #
coedge $-1 $331 $194 $192 $263 forward $266 $-1 #
edge $-1 $196 -1.2807694682077024 $332 17.352590001628617 $192 $333 forward 7 unknown #
edge $-1 $198 14.866693590788969 $267 21.946740203412659 $200 $334 forward 7 unknown #
coedge $-1 $194 $335 $271 $336 reversed $266 $-1 #
loop $-1 $-1 $194 $337 #
vertex $-1 $336 $338 #
straight-curve $-1 -6.9547583175141128 40.353457100513467 53.080144565668299 0.79863550430605224 0 -0.6018150307709319 I I #
point $-1 61.785332804345835 40.353457100513467 1.2807694682077024 #
point $-1 40.457307014789656 33.273410487889784 17.352590001628613 #
coedge $-1 $339 $200 $265 $336 forward $117 $-1 #
coedge $-1 $201 $340 $341 $342 forward $117 $-1 #
coedge $-1 $341 $343 $203 $274 reversed $344 $-1 #
edge $-1 $275 -17.352590001628617 $345 17.352590001628617 $203 $346 forward 7 unknown #
vertex $-1 $204 $347 #
straight-curve $-1 61.785332804345835 0 17.352590001628617 0 1 0 I I #
face $-1 $348 $349 $15 $-1 $350 reversed single #
loop $-1 $-1 $284 $207 #
plane-surface $-1 0 0 17.352590001628617 0 0 1 1 0 0 forward_v I I I I #
coedge $-1 $213 $351 $281 $352 forward $208 $-1 #
coedge $-1 $353 $282 $280 $352 reversed $210 $-1 #
coedge $-1 $281 $354 $211 $283 reversed $210 $-1 #
edge $-1 $287 -123.57066560869168 $355 -96.865083807531377 $211 $356 forward 7 unknown #
coedge $-1 $357 $358 $212 $285 forward $278 $-1 #
edge $-1 $288 -43.053284862249271 $355 -21.725259072693088 $284 $359 forward 7 unknown #
coedge $-1 $360 $213 $358 $361 reversed $208 $-1 #
vertex $-1 $352 $362 #
vertex $-1 $285 $363 #
straight-curve $-1 61.785332804345835 33.273410487889784 87.167687119859508 0 0 1 I I #
vertex $-1 $215 $364 #
point $-1 50.54633677467735 36.813433794201629 6.0611911782582748 #
straight-curve $-1 -61.785332804345835 40.353457100513467 0 0 0 -1 I I #
point $-1 -61.785332804345835 -40.353457100513467 -17.352590001628617 #
straight-curve $-1 -61.785332804345835 0 -17.352590001628617 0 1 0 I I #
point $-1 -61.785332804345835 40.353457100513467 -17.352590001628617 #
face $-1 $365 $366 $13 $-1 $367 reversed single #
plane-surface $-1 0 0 -17.352590001628617 0 0 1 1 0 0 forward_v I I I I #
coedge $-1 $368 $237 $251 $313 reversed $166 $-1 #
coedge $-1 $237 $368 $254 $317 reversed $166 $-1 #
edge $-1 $303 -17.352590001628617 $301 17.352590001628617 $237 $369 forward 7 unknown #
vertex $-1 $239 $370 #
straight-curve $-1 -36.201397809156752 -51.512919540087395 -17.352590001628617 0 -1 0 I I #
vertex $-1 $317 $371 #
straight-curve $-1 -36.201397809156752 -51.512919540087395 17.352590001628617 0 1 0 I I #
coedge $-1 $314 $242 $372 $373 forward $180 $-1 #
coedge $-1 $244 $318 $374 $375 forward $184 $-1 #
coedge $-1 $374 $372 $246 $308 reversed $366 $-1 #
edge $-1 $309 -17.352590001628617 $311 17.352590001628617 $307 $376 forward 7 unknown #
vertex $-1 $375 $377 #
straight-curve $-1 0 -40.353457100513467 17.352590001628617 1 0 0 I I #
vertex $-1 $373 $378 #
straight-curve $-1 0 -40.353457100513467 -17.352590001628617 -1 0 0 I I #
edge $-1 $379 -61.785332804345835 $301 36.201397809156752 $298 $312 forward 7 unknown #
coedge $-1 $252 $305 $380 $381 forward $180 $-1 #
coedge $-1 $382 $383 $252 $316 reversed $384 $-1 #
edge $-1 $385 -40.353457100513467 $379 40.353457100513467 $315 $386 forward 7 unknown #
edge $-1 $303 -36.201397809156752 $387 61.785332804345835 $299 $310 forward 7 unknown #
coedge $-1 $306 $255 $388 $389 forward $184 $-1 #
coedge $-1 $383 $382 $255 $320 reversed $384 $-1 #
edge $-1 $387 -40.353457100513467 $390 40.353457100513467 $319 $391 forward 7 unknown #
face $-1 $392 $393 $14 $-1 $394 reversed single #
loop $-1 $-1 $395 $257 #
plane-surface $-1 -36.201397809156752 -51.512919540087395 0 -1 0 0 0 0 1 forward_v I I I I #
coedge $-1 $396 $397 $398 $399 reversed $258 $-1 #
coedge $-1 $400 $260 $401 $402 reversed $190 $-1 #
coedge $-1 $260 $400 $403 $404 reversed $190 $-1 #
coedge $-1 $397 $396 $260 $328 reversed $258 $-1 #
edge $-1 $405 -17.352590001628617 $406 17.352590001628617 $327 $407 forward 7 unknown #
coedge $-1 $408 $409 $261 $330 forward $410 $-1 #
edge $-1 $332 -40.353457100513467 $345 40.353457100513467 $261 $411 forward 7 unknown #
coedge $-1 $335 $262 $409 $412 reversed $266 $-1 #
vertex $-1 $330 $413 #
straight-curve $-1 61.785332804345835 40.353457100513467 0 0 0 -1 I I #
straight-curve $-1 40.45730701478967 18.406716897100814 17.352590001628613 0 1 0 I I #
coedge $-1 $265 $331 $414 $415 reversed $266 $-1 #
edge $-1 $267 -40.457307014789656 $416 61.785332804345835 $265 $417 forward 7 unknown #
face $-1 $-1 $266 $14 $-1 $418 reversed single #
point $-1 40.457307014789656 40.353457100513474 17.352590001628613 #
coedge $-1 $419 $271 $420 $421 forward $117 $-1 #
coedge $-1 $272 $403 $422 $423 forward $117 $-1 #
coedge $-1 $424 $273 $272 $342 reversed $344 $-1 #
edge $-1 $425 -36.201397809156752 $275 61.785332804345835 $341 $426 forward 7 unknown #
coedge $-1 $273 $424 $408 $427 reversed $344 $-1 #
loop $-1 $-1 $424 $392 #
vertex $-1 $274 $428 #
straight-curve $-1 61.785332804345835 -40.353457100513467 0 0 0 -1 I I #
point $-1 61.785332804345835 -40.353457100513467 17.352590001628617 #
face $-1 $429 $430 $15 $-1 $431 reversed single #
loop $-1 $-1 $432 $277 #
plane-surface $-1 -39.742720011369059 -62.672381979661324 0 0 1 0 0 0 1 forward_v I I I I #
coedge $-1 $280 $433 $434 $435 reversed $208 $-1 #
edge $-1 $436 -21.946740203412652 $287 -14.866693590788969 $280 $437 forward 7 unknown #
coedge $-1 $354 $281 $438 $439 reversed $210 $-1 #
coedge $-1 $282 $353 $357 $440 reversed $210 $-1 #
vertex $-1 $440 $441 #
straight-curve $-1 -36.902588041486176 33.273410487889784 75.647453393887005 -0.79863550430605224 0 0.6018150307709319 I I #
coedge $-1 $442 $284 $354 $440 forward $278 $-1 #
coedge $-1 $284 $443 $286 $361 forward $278 $-1 #
straight-curve $-1 18.732047942096568 33.273410487889784 17.352590001628613 -1 0 0 I I #
coedge $-1 $433 $286 $444 $445 forward $208 $-1 #
edge $-1 $446 -40.353457100513467 $288 33.273410487889784 $286 $447 forward 7 unknown #
point $-1 61.785332804345835 33.273410487889784 1.2807694682076942 #
point $-1 61.785332804345835 33.273410487889784 17.352590001628617 #
point $-1 48.445660972061873 36.813433794201629 5.7659604679555949 #
face $-1 $448 $449 $13 $-1 $450 reversed single #
loop $-1 $-1 $451 $296 #
plane-surface $-1 -61.785332804345835 0 0 1 0 0 0 0 -1 forward_v I I I I #
coedge $-1 $299 $298 $383 $452 reversed $166 $-1 #
straight-curve $-1 -36.201397809156752 -40.353457100513467 0 0 0 -1 I I #
point $-1 -36.201397809156752 -40.353457100513467 -17.352590001628617 #
point $-1 -36.201397809156752 -40.353457100513467 17.352590001628617 #
coedge $-1 $307 $451 $305 $373 reversed $366 $-1 #
edge $-1 $311 -40.353457100513467 $453 40.353457100513467 $372 $454 forward 7 unknown #
coedge $-1 $451 $307 $306 $375 reversed $366 $-1 #
edge $-1 $455 -40.353457100513467 $309 40.353457100513467 $374 $456 forward 7 unknown #
straight-curve $-1 -61.785332804345835 -40.353457100513467 0 0 0 -1 I I #
point $-1 -61.785332804345835 -40.353457100513467 17.352590001628617 #
point $-1 -61.785332804345835 -40.353457100513467 -17.352590001628617 #
vertex $-1 $452 $457 #
coedge $-1 $458 $459 $314 $381 reversed $449 $-1 #
edge $-1 $453 -61.785332804345835 $385 61.785332804345835 $380 $460 forward 7 unknown #
coedge $-1 $319 $315 $459 $461 reversed $384 $-1 #
coedge $-1 $315 $319 $368 $452 forward $384 $-1 #
loop $-1 $-1 $383 $448 #
vertex $-1 $316 $462 #
straight-curve $-1 61.785332804345835 0 -17.352590001628617 0 -1 0 I I #
vertex $-1 $320 $463 #
coedge $-1 $459 $458 $318 $389 reversed $449 $-1 #
edge $-1 $390 -61.785332804345835 $455 61.785332804345835 $388 $464 forward 7 unknown #
vertex $-1 $320 $465 #
straight-curve $-1 61.785332804345835 0 17.352590001628617 0 1 0 I I #
face $-1 $466 $344 $14 $-1 $394 reversed single #
loop $-1 $-1 $398 $321 #
plane-surface $-1 0 -40.353457100513467 0 0 1 0 0 0 1 forward_v I I I I #
coedge $-1 $467 $422 $400 $468 forward $322 $-1 #
coedge $-1 $327 $324 $469 $470 reversed $258 $-1 #
coedge $-1 $324 $327 $471 $472 reversed $258 $-1 #
coedge $-1 $473 $474 $324 $399 forward $393 $-1 #
edge $-1 $475 -17.352590001628617 $476 17.352590001628617 $398 $477 forward 7 unknown #
coedge $-1 $326 $325 $395 $468 reversed $190 $-1 #
coedge $-1 $469 $478 $325 $402 forward $410 $-1 #
edge $-1 $479 -3.5413222022123065 $406 3.5413222022123065 $325 $480 forward 7 unknown #
coedge $-1 $340 $471 $326 $404 forward $117 $-1 #
edge $-1 $405 -3.5413222022123065 $481 3.5413222022123065 $326 $482 forward 7 unknown #
vertex $-1 $472 $483 #
vertex $-1 $470 $484 #
straight-curve $-1 -43.284042213581365 -62.672381979661324 0 0 0 -1 I I #
coedge $-1 $478 $329 $343 $427 forward $410 $-1 #
coedge $-1 $329 $485 $331 $412 forward $410 $-1 #
loop $-1 $-1 $329 $466 #
straight-curve $-1 61.785332804345835 0 -17.352590001628617 0 -1 0 I I #
edge $-1 $486 -61.785332804345835 $332 61.785332804345835 $331 $487 forward 7 unknown #
point $-1 61.785332804345835 40.353457100513467 -17.352590001628617 #
coedge $-1 $488 $420 $335 $415 forward $489 $-1 #
edge $-1 $416 -17.352590001628617 $486 17.352590001628617 $335 $490 forward 7 unknown #
vertex $-1 $336 $491 #
straight-curve $-1 0 40.353457100513467 17.352590001628617 -1 0 0 I I #
plane-surface $-1 0 40.353457100513467 0 0 -1 0 0 0 -1 forward_v I I I I #
coedge $-1 $471 $339 $473 $492 forward $117 $-1 #
coedge $-1 $414 $493 $339 $421 reversed $489 $-1 #
edge $-1 $416 -40.353457100513467 $494 40.353457100513467 $420 $495 forward 7 unknown #
coedge $-1 $395 $496 $340 $423 reversed $322 $-1 #
edge $-1 $481 -11.159462439573929 $425 11.159462439573929 $422 $497 forward 7 unknown #
coedge $-1 $343 $341 $496 $498 forward $344 $-1 #
vertex $-1 $342 $499 #
straight-curve $-1 0 -40.353457100513467 17.352590001628617 1 0 0 I I #
edge $-1 $345 -61.785332804345835 $500 36.201397809156752 $343 $501 forward 7 unknown #
point $-1 61.785332804345835 -40.353457100513467 -17.352590001628617 #
face $-1 $502 $503 $15 $-1 $504 reversed single #
loop $-1 $-1 $505 $348 #
plane-surface $-1 -43.284042213581365 -51.512919540087395 0 1 0 0 0 0 -1 forward_v I I I I #
coedge $-1 $506 $507 $508 $509 forward $349 $-1 #
coedge $-1 $351 $360 $510 $511 reversed $208 $-1 #
coedge $-1 $512 $438 $351 $435 forward $513 $-1 #
edge $-1 $436 -1.2807694682077024 $514 17.352590001628617 $351 $515 forward 7 unknown #
vertex $-1 $435 $516 #
straight-curve $-1 61.785332804345828 18.406716897100814 1.2807694682077013 0 -1 0 I I #
coedge $-1 $434 $517 $353 $439 forward $513 $-1 #
edge $-1 $518 59.366338056183608 $436 86.0719198573439 $438 $519 forward 7 unknown #
edge $-1 $355 14.866693590788969 $518 21.946740203412659 $357 $520 forward 7 unknown #
point $-1 40.457307014789656 33.273410487889784 17.352590001628613 #
coedge $-1 $521 $357 $517 $522 forward $278 $-1 #
coedge $-1 $358 $523 $524 $525 forward $278 $-1 #
coedge $-1 $524 $526 $360 $445 reversed $527 $-1 #
edge $-1 $446 -17.352590001628617 $528 17.352590001628617 $360 $529 forward 7 unknown #
vertex $-1 $361 $530 #
straight-curve $-1 61.785332804345835 0 17.352590001628617 0 1 0 I I #
face $-1 $-1 $384 $13 $-1 $531 reversed single #
loop $-1 $-1 $459 $365 #
plane-surface $-1 0 40.353457100513467 0 0 -1 0 0 0 -1 forward_v I I I I #
coedge $-1 $372 $374 $458 $532 forward $366 $-1 #
edge $-1 $387 -17.352590001628617 $379 17.352590001628617 $383 $533 forward 7 unknown #
vertex $-1 $381 $534 #
straight-curve $-1 -61.785332804345835 0 -17.352590001628617 0 1 0 I I #
vertex $-1 $389 $535 #
straight-curve $-1 -61.785332804345835 0 17.352590001628617 0 -1 0 I I #
point $-1 61.785332804345835 -40.353457100513467 -17.352590001628617 #
coedge $-1 $388 $380 $451 $532 reversed $449 $-1 #
coedge $-1 $380 $388 $382 $461 forward $449 $-1 #
straight-curve $-1 0 40.353457100513467 -17.352590001628617 1 0 0 I I #
edge $-1 $390 -17.352590001628617 $385 17.352590001628617 $382 $536 forward 7 unknown #
point $-1 61.785332804345835 40.353457100513467 -17.352590001628617 #
point $-1 61.785332804345835 -40.353457100513467 17.352590001628617 #
straight-curve $-1 0 40.353457100513467 17.352590001628617 -1 0 0 I I #
point $-1 61.785332804345835 40.353457100513467 17.352590001628617 #
face $-1 $537 $410 $14 $-1 $538 reversed single #
coedge $-1 $496 $395 $478 $539 reversed $322 $-1 #
edge $-1 $481 -17.352590001628617 $479 17.352590001628617 $395 $540 forward 7 unknown #
coedge $-1 $541 $401 $396 $470 forward $410 $-1 #
edge $-1 $406 -11.159462439573929 $475 11.159462439573929 $396 $542 forward 7 unknown #
coedge $-1 $403 $419 $397 $472 forward $117 $-1 #
edge $-1 $476 -11.159462439573929 $405 11.159462439573929 $397 $543 forward 7 unknown #
coedge $-1 $544 $398 $419 $492 reversed $393 $-1 #
coedge $-1 $398 $544 $541 $545 reversed $393 $-1 #
vertex $-1 $545 $546 #
vertex $-1 $472 $547 #
straight-curve $-1 -43.284042213581365 -40.353457100513467 0 0 0 1 I I #
coedge $-1 $401 $408 $467 $539 forward $410 $-1 #
vertex $-1 $468 $548 #
straight-curve $-1 -39.742720011369059 -62.672381979661324 -17.352590001628617 -1 0 0 I I #
vertex $-1 $423 $549 #
straight-curve $-1 -39.742720011369059 -62.672381979661324 17.352590001628617 1 0 0 I I #
point $-1 -43.284042213581365 -62.672381979661324 17.352590001628617 #
point $-1 -43.284042213581365 -62.672381979661324 -17.352590001628617 #
coedge $-1 $409 $541 $488 $550 forward $410 $-1 #
vertex $-1 $412 $551 #
straight-curve $-1 0 40.353457100513467 -17.352590001628617 1 0 0 I I #
coedge $-1 $493 $414 $485 $550 reversed $489 $-1 #
loop $-1 $-1 $414 $537 #
straight-curve $-1 -61.785332804345835 40.353457100513467 0 0 0 -1 I I #
point $-1 -61.785332804345835 40.353457100513467 17.352590001628617 #
edge $-1 $494 -61.785332804345835 $476 -43.284042213581365 $473 $426 forward 7 unknown #
coedge $-1 $420 $488 $544 $552 reversed $489 $-1 #
vertex $-1 $421 $553 #
straight-curve $-1 -61.785332804345835 0 17.352590001628617 0 -1 0 I I #
coedge $-1 $422 $467 $424 $498 reversed $322 $-1 #
straight-curve $-1 -36.201397809156752 -51.512919540087395 17.352590001628617 0 1 0 I I #
edge $-1 $425 -17.352590001628617 $500 17.352590001628617 $424 $554 forward 7 unknown #
point $-1 -36.201397809156752 -40.353457100513467 17.352590001628617 #
vertex $-1 $539 $555 #
straight-curve $-1 0 -40.353457100513467 -17.352590001628617 -1 0 0 I I #
face $-1 $556 $557 $15 $-1 $558 reversed single #
loop $-1 $-1 $559 $429 #
plane-surface $-1 -36.201397809156752 -51.512919540087395 0 -1 0 0 0 0 1 forward_v I I I I #
coedge $-1 $560 $561 $562 $563 reversed $430 $-1 #
coedge $-1 $564 $432 $565 $566 reversed $349 $-1 #
coedge $-1 $432 $564 $567 $568 reversed $349 $-1 #
coedge $-1 $561 $560 $432 $509 reversed $430 $-1 #
edge $-1 $569 -17.352590001628617 $570 17.352590001628617 $508 $571 forward 7 unknown #
coedge $-1 $572 $573 $433 $511 forward $574 $-1 #
edge $-1 $514 -40.353457100513467 $528 40.353457100513467 $433 $575 forward 7 unknown #
coedge $-1 $576 $434 $573 $577 reversed $513 $-1 #
loop $-1 $-1 $438 $578 #
vertex $-1 $511 $579 #
straight-curve $-1 61.785332804345835 40.353457100513467 0 0 0 -1 I I #
point $-1 61.785332804345835 40.353457100513467 1.2807694682077024 #
coedge $-1 $438 $576 $442 $522 reversed $513 $-1 #
vertex $-1 $522 $580 #
straight-curve $-1 -6.9547583175141128 40.353457100513467 53.080144565668299 0.79863550430605224 0 -0.6018150307709319 I I #
straight-curve $-1 40.45730701478967 18.406716897100814 17.352590001628613 0 1 0 I I #
coedge $-1 $581 $442 $582 $583 forward $278 $-1 #
edge $-1 $518 -40.457307014789656 $584 61.785332804345835 $517 $585 forward 7 unknown #
coedge $-1 $443 $567 $586 $587 forward $278 $-1 #
coedge $-1 $588 $444 $443 $525 reversed $527 $-1 #
edge $-1 $589 -36.201397809156752 $446 61.785332804345835 $524 $590 forward 7 unknown #
coedge $-1 $444 $588 $572 $591 reversed $527 $-1 #
loop $-1 $-1 $588 $556 #
vertex $-1 $445 $592 #
straight-curve $-1 61.785332804345835 -40.353457100513467 0 0 0 -1 I I #
point $-1 61.785332804345835 -40.353457100513467 17.352590001628617 #
plane-surface $-1 61.785332804345835 0 0 -1 0 0 0 0 1 forward_v I I I I #
edge $-1 $455 -17.352590001628617 $453 17.352590001628617 $458 $593 forward 7 unknown #
straight-curve $-1 61.785332804345835 -40.353457100513467 0 0 0 -1 I I #
point $-1 -61.785332804345835 40.353457100513467 -17.352590001628617 #
point $-1 -61.785332804345835 40.353457100513467 17.352590001628617 #
straight-curve $-1 61.785332804345835 40.353457100513467 0 0 0 -1 I I #
face $-1 $337 $489 $14 $-1 $594 reversed single #
plane-surface $-1 0 0 -17.352590001628617 0 0 1 1 0 0 forward_v I I I I #
edge $-1 $500 -11.159462439573929 $479 11.159462439573929 $467 $595 forward 7 unknown #
straight-curve $-1 -36.201397809156752 -62.672381979661324 0 0 0 -1 I I #
coedge $-1 $485 $469 $474 $545 forward $410 $-1 #
straight-curve $-1 -43.284042213581365 -51.512919540087395 -17.352590001628617 0 1 0 I I #
straight-curve $-1 -43.284042213581365 -51.512919540087395 17.352590001628617 0 -1 0 I I #
coedge $-1 $474 $473 $493 $552 forward $393 $-1 #
edge $-1 $475 43.284042213581365 $596 61.785332804345835 $474 $501 forward 7 unknown #
point $-1 -43.284042213581365 -40.353457100513467 -17.352590001628617 #
point $-1 -43.284042213581365 -40.353457100513467 17.352590001628617 #
point $-1 -36.201397809156752 -62.672381979661324 -17.352590001628617 #
point $-1 -36.201397809156752 -62.672381979661324 17.352590001628617 #
edge $-1 $596 -40.353457100513467 $486 40.353457100513467 $488 $597 forward 7 unknown #
point $-1 -61.785332804345835 40.353457100513467 -17.352590001628617 #
edge $-1 $494 -17.352590001628617 $596 17.352590001628617 $493 $598 forward 7 unknown #
point $-1 -61.785332804345835 -40.353457100513467 17.352590001628617 #
straight-curve $-1 -36.201397809156752 -40.353457100513467 0 0 0 -1 I I #
point $-1 -36.201397809156752 -40.353457100513467 -17.352590001628617 #
face $-1 $599 $527 $15 $-1 $558 reversed single #
loop $-1 $-1 $562 $502 #
plane-surface $-1 0 -40.353457100513467 0 0 1 0 0 0 1 forward_v I I I I #
coedge $-1 $600 $586 $564 $601 forward $503 $-1 #
coedge $-1 $508 $505 $602 $603 reversed $430 $-1 #
coedge $-1 $505 $508 $604 $605 reversed $430 $-1 #
coedge $-1 $606 $607 $505 $563 forward $557 $-1 #
edge $-1 $608 -17.352590001628617 $609 17.352590001628617 $562 $610 forward 7 unknown #
coedge $-1 $507 $506 $559 $601 reversed $349 $-1 #
coedge $-1 $602 $611 $506 $566 forward $574 $-1 #
edge $-1 $612 -3.5413222022123065 $570 3.5413222022123065 $506 $613 forward 7 unknown #
coedge $-1 $523 $604 $507 $568 forward $278 $-1 #
edge $-1 $569 -3.5413222022123065 $614 3.5413222022123065 $507 $615 forward 7 unknown #
vertex $-1 $605 $616 #
vertex $-1 $603 $617 #
straight-curve $-1 -43.284042213581365 -62.672381979661324 0 0 0 -1 I I #
coedge $-1 $611 $510 $526 $591 forward $574 $-1 #
coedge $-1 $510 $618 $512 $577 forward $574 $-1 #
loop $-1 $-1 $510 $599 #
straight-curve $-1 61.785332804345835 0 -17.352590001628617 0 -1 0 I I #
coedge $-1 $517 $512 $619 $620 reversed $513 $-1 #
edge $-1 $621 -61.785332804345835 $514 61.785332804345835 $512 $622 forward 7 unknown #
face $-1 $-1 $513 $15 $-1 $623 reversed single #
point $-1 61.785332804345835 40.353457100513467 -17.352590001628617 #
point $-1 40.457307014789656 40.353457100513474 17.352590001628613 #
coedge $-1 $604 $521 $606 $624 forward $278 $-1 #
coedge $-1 $619 $625 $521 $583 reversed $626 $-1 #
edge $-1 $584 -40.353457100513467 $627 40.353457100513467 $582 $628 forward 7 unknown #
vertex $-1 $522 $629 #
straight-curve $-1 0 40.353457100513467 17.352590001628617 -1 0 0 I I #
coedge $-1 $559 $630 $523 $587 reversed $503 $-1 #
edge $-1 $614 -11.159462439573929 $589 11.159462439573929 $586 $631 forward 7 unknown #
coedge $-1 $526 $524 $630 $632 forward $527 $-1 #
vertex $-1 $525 $633 #
straight-curve $-1 0 -40.353457100513467 17.352590001628617 1 0 0 I I #
edge $-1 $528 -61.785332804345835 $634 36.201397809156752 $526 $635 forward 7 unknown #
point $-1 61.785332804345835 -40.353457100513467 -17.352590001628617 #
straight-curve $-1 -61.785332804345835 40.353457100513467 0 0 0 -1 I I #
plane-surface $-1 -61.785332804345835 0 0 1 0 0 0 0 -1 forward_v I I I I #
straight-curve $-1 -36.201397809156752 -51.512919540087395 -17.352590001628617 0 -1 0 I I #
vertex $-1 $550 $636 #
straight-curve $-1 -61.785332804345835 0 -17.352590001628617 0 1 0 I I #
straight-curve $-1 -61.785332804345835 -40.353457100513467 0 0 0 -1 I I #
face $-1 $637 $574 $15 $-1 $638 reversed single #
coedge $-1 $630 $559 $611 $639 reversed $503 $-1 #
edge $-1 $614 -17.352590001628617 $612 17.352590001628617 $559 $640 forward 7 unknown #
coedge $-1 $641 $565 $560 $603 forward $574 $-1 #
edge $-1 $570 -11.159462439573929 $608 11.159462439573929 $560 $642 forward 7 unknown #
coedge $-1 $567 $581 $561 $605 forward $278 $-1 #
edge $-1 $609 -11.159462439573929 $569 11.159462439573929 $561 $643 forward 7 unknown #
coedge $-1 $644 $562 $581 $624 reversed $557 $-1 #
coedge $-1 $562 $644 $641 $645 reversed $557 $-1 #
vertex $-1 $645 $646 #
vertex $-1 $605 $647 #
straight-curve $-1 -43.284042213581365 -40.353457100513467 0 0 0 1 I I #
coedge $-1 $565 $572 $600 $639 forward $574 $-1 #
vertex $-1 $601 $648 #
straight-curve $-1 -39.742720011369059 -62.672381979661324 -17.352590001628617 -1 0 0 I I #
vertex $-1 $587 $649 #
straight-curve $-1 -39.742720011369059 -62.672381979661324 17.352590001628617 1 0 0 I I #
point $-1 -43.284042213581365 -62.672381979661324 17.352590001628617 #
point $-1 -43.284042213581365 -62.672381979661324 -17.352590001628617 #
coedge $-1 $573 $641 $650 $651 forward $574 $-1 #
coedge $-1 $650 $582 $576 $620 forward $626 $-1 #
edge $-1 $584 -17.352590001628617 $621 17.352590001628617 $576 $652 forward 7 unknown #
vertex $-1 $577 $653 #
straight-curve $-1 0 40.353457100513467 -17.352590001628617 1 0 0 I I #
plane-surface $-1 0 40.353457100513467 0 0 -1 0 0 0 -1 forward_v I I I I #
edge $-1 $627 -61.785332804345835 $609 -43.284042213581365 $606 $590 forward 7 unknown #
coedge $-1 $582 $650 $644 $654 reversed $626 $-1 #
loop $-1 $-1 $619 $637 #
vertex $-1 $583 $655 #
straight-curve $-1 -61.785332804345835 0 17.352590001628617 0 -1 0 I I #
point $-1 -61.785332804345835 40.353457100513467 17.352590001628617 #
coedge $-1 $586 $600 $588 $632 reversed $503 $-1 #
straight-curve $-1 -36.201397809156752 -51.512919540087395 17.352590001628617 0 1 0 I I #
edge $-1 $589 -17.352590001628617 $634 17.352590001628617 $588 $656 forward 7 unknown #
point $-1 -36.201397809156752 -40.353457100513467 17.352590001628617 #
vertex $-1 $639 $657 #
straight-curve $-1 0 -40.353457100513467 -17.352590001628617 -1 0 0 I I #
point $-1 -61.785332804345835 -40.353457100513467 -17.352590001628617 #
face $-1 $578 $626 $15 $-1 $658 reversed single #
plane-surface $-1 0 0 -17.352590001628617 0 0 1 1 0 0 forward_v I I I I #
edge $-1 $634 -11.159462439573929 $612 11.159462439573929 $600 $659 forward 7 unknown #
straight-curve $-1 -36.201397809156752 -62.672381979661324 0 0 0 -1 I I #
coedge $-1 $618 $602 $607 $645 forward $574 $-1 #
straight-curve $-1 -43.284042213581365 -51.512919540087395 -17.352590001628617 0 1 0 I I #
straight-curve $-1 -43.284042213581365 -51.512919540087395 17.352590001628617 0 -1 0 I I #
coedge $-1 $607 $606 $625 $654 forward $557 $-1 #
edge $-1 $608 43.284042213581365 $660 61.785332804345835 $607 $635 forward 7 unknown #
point $-1 -43.284042213581365 -40.353457100513467 -17.352590001628617 #
point $-1 -43.284042213581365 -40.353457100513467 17.352590001628617 #
point $-1 -36.201397809156752 -62.672381979661324 -17.352590001628617 #
point $-1 -36.201397809156752 -62.672381979661324 17.352590001628617 #
coedge $-1 $625 $619 $618 $651 reversed $626 $-1 #
edge $-1 $660 -40.353457100513467 $621 40.353457100513467 $650 $661 forward 7 unknown #
straight-curve $-1 -61.785332804345835 40.353457100513467 0 0 0 -1 I I #
point $-1 -61.785332804345835 40.353457100513467 -17.352590001628617 #
edge $-1 $627 -17.352590001628617 $660 17.352590001628617 $625 $662 forward 7 unknown #
point $-1 -61.785332804345835 -40.353457100513467 17.352590001628617 #
straight-curve $-1 -36.201397809156752 -40.353457100513467 0 0 0 -1 I I #
point $-1 -36.201397809156752 -40.353457100513467 -17.352590001628617 #
plane-surface $-1 -61.785332804345835 0 0 1 0 0 0 0 -1 forward_v I I I I #
straight-curve $-1 -36.201397809156752 -51.512919540087395 -17.352590001628617 0 -1 0 I I #
vertex $-1 $651 $663 #
straight-curve $-1 -61.785332804345835 0 -17.352590001628617 0 1 0 I I #
straight-curve $-1 -61.785332804345835 -40.353457100513467 0 0 0 -1 I I #
point $-1 -61.785332804345835 -40.353457100513467 -17.352590001628617 #
End-of-ACIS-data 