500 0 8 0           
7 Unknown 11 ACIS 5.0 NT 24 Fri Mar 26 19:58:28 1999 
-1 9.9999999999999995e-007 1e-010 
body $-1 $8 $-1 $9 #
body $-1 $10 $-1 $11 #
body $-1 $12 $-1 $13 #
body $-1 $14 $-1 $15 #
body $-1 $16 $-1 $17 #
body $-1 $18 $-1 $19 #
body $-1 $20 $-1 $21 #
body $-1 $22 $-1 $23 #
lump $-1 $-1 $24 $0 #
transform $-1 1 0 0 0 1 0 0 0 1 62.11127048554949 26.117744693903735 9.6927464392757035 1 rotate no_reflect no_shear #
lump $-1 $-1 $25 $1 #
transform $-1 1 0 0 0 1 0 0 0 1 62.11127048554949 26.117744693903735 9.6927464392757035 1 rotate no_reflect no_shear #
lump $-1 $-1 $26 $2 #
transform $-1 1 0 0 0 1 0 0 0 1 62.11127048554949 26.117744693903735 9.6927464392757035 1 rotate no_reflect no_shear #
lump $-1 $-1 $27 $3 #
transform $-1 1 0 0 0 1 0 0 0 1 62.11127048554949 26.117744693903735 9.6927464392757035 1 rotate no_reflect no_shear #
lump $-1 $-1 $28 $4 #
transform $-1 1 0 0 0 1 0 0 0 1 62.11127048554949 26.117744693903735 9.6927464392757035 1 rotate no_reflect no_shear #
lump $-1 $-1 $29 $5 #
transform $-1 1 0 0 0 1 0 0 0 1 62.11127048554949 26.117744693903735 9.6927464392757035 1 rotate no_reflect no_shear #
lump $-1 $-1 $30 $6 #
transform $-1 1 0 0 0 1 0 0 0 1 62.11127048554949 26.117744693903735 9.6927464392757035 1 rotate no_reflect no_shear #
lump $-1 $-1 $31 $7 #
transform $-1 1 0 0 0 1 0 0 0 1 62.11127048554949 26.117744693903735 9.6927464392757035 1 rotate no_reflect no_shear #
shell $-1 $-1 $-1 $32 $-1 $8 #
shell $-1 $-1 $-1 $33 $-1 $10 #
shell $-1 $-1 $-1 $34 $-1 $12 #
shell $-1 $-1 $-1 $35 $-1 $14 #
shell $-1 $-1 $-1 $36 $-1 $16 #
shell $-1 $-1 $-1 $37 $-1 $18 #
shell $-1 $-1 $-1 $38 $-1 $20 #
shell $-1 $-1 $-1 $39 $-1 $22 #
face $-1 $40 $41 $24 $-1 $42 forward single #
face $-1 $43 $44 $25 $-1 $45 forward single #
face $-1 $46 $47 $26 $-1 $48 reversed single #
face $-1 $49 $50 $27 $-1 $51 forward single #
face $-1 $52 $53 $28 $-1 $54 forward single #
face $-1 $55 $56 $29 $-1 $57 reversed single #
face $-1 $58 $59 $30 $-1 $60 forward single #
face $-1 $61 $62 $31 $-1 $63 forward single #
face $-1 $64 $65 $24 $-1 $66 reversed single #
loop $-1 $-1 $67 $32 #
plane-surface $-1 0 0 9.6927464392757035 0 0 1 1 0 0 forward_v I I I I #
face $-1 $68 $69 $25 $-1 $70 reversed single #
loop $-1 $-1 $71 $33 #
plane-surface $-1 -62.11127048554949 0 0 1 0 0 0 0 -1 forward_v I I I I #
face $-1 $72 $73 $26 $-1 $74 reversed single #
loop $-1 $-1 $75 $34 #
plane-surface $-1 46.79999524945152 -12.325027391941594 175.14064476801721 0 -1 0 -0.64278761758704617 0 -0.76604443648966558 forward_v I I I I #
face $-1 $76 $77 $27 $-1 $78 forward single #
loop $-1 $79 $80 $35 #
cone-surface $-1 54.956846681712598 -20.131576188217586 3.1755262808739633 -0.64278761758704617 0 -0.76604443648966558 1.1490666547344983 0 -0.96418142638056925 1 I I 0 1 1.5 forward I I I I #
face $-1 $81 $82 $28 $-1 $83 forward single #
loop $-1 $84 $85 $36 #
cone-surface $-1 54.956846681712598 -15.447646910451992 3.1755262808739633 -0.64278761758704617 0 -0.76604443648966558 1.1490666547344983 0 -0.96418142638056925 1 I I 0 1 1.5 forward I I I I #
face $-1 $86 $87 $29 $-1 $88 reversed single #
loop $-1 $-1 $89 $37 #
plane-surface $-1 46.79999524945152 13.792717301962144 175.14064476801721 0 -1 0 -0.64278761758704617 0 -0.76604443648966558 forward_v I I I I #
face $-1 $90 $91 $30 $-1 $92 forward single #
loop $-1 $93 $94 $38 #
cone-surface $-1 54.956846681712598 5.9861685056861482 3.1755262808739633 -0.64278761758704617 0 -0.76604443648966558 1.1490666547344983 0 -0.96418142638056925 1 I I 0 1 1.5 forward I I I I #
face $-1 $95 $96 $31 $-1 $97 forward single #
loop $-1 $98 $99 $39 #
cone-surface $-1 54.956846681712598 10.670097783451741 3.1755262808739633 -0.64278761758704617 0 -0.76604443648966558 1.1490666547344983 0 -0.96418142638056925 1 I I 0 1 1.5 forward I I I I #
face $-1 $100 $101 $24 $-1 $102 reversed single #
loop $-1 $-1 $103 $40 #
plane-surface $-1 0 0 -9.6927464392757035 0 0 1 1 0 0 forward_v I I I I #
coedge $-1 $104 $105 $106 $107 forward $41 $-1 #
face $-1 $108 $109 $25 $-1 $110 forward single #
loop $-1 $-1 $111 $43 #
plane-surface $-1 0 26.117744693903735 0 0 -1 0 0 0 -1 forward_v I I I I #
coedge $-1 $112 $113 $114 $115 forward $44 $-1 #
face $-1 $116 $117 $26 $-1 $118 reversed single #
loop $-1 $-1 $119 $46 #
plane-surface $-1 -33.048715911970412 -17.78961154933479 79.980658370497309 0.64278761758704617 0 0.76604443648966558 0.76604443648966558 0 -0.64278761758704617 forward_v I I I I #
coedge $-1 $120 $121 $122 $123 reversed $47 $-1 #
face $-1 $-1 $124 $27 $-1 $125 forward single #
loop $-1 $126 $127 $49 #
cone-surface $-1 53.017390460692376 -20.131576188217586 0.8641724102051338 -0.64278761758704617 0 -0.76604443648966558 0.57453332736724916 0 -0.48209071319028463 1 I I -0.70710678118654757 0.70710678118654757 0.75 forward I I I I #
loop $-1 $-1 $128 $35 #
coedge $-1 $80 $80 $129 $130 reversed $50 $-1 #
face $-1 $-1 $131 $28 $-1 $132 forward single #
loop $-1 $133 $134 $52 #
cone-surface $-1 53.017390460692376 -15.447646910451992 0.8641724102051338 -0.64278761758704617 0 -0.76604443648966558 0.57453332736724916 0 -0.48209071319028463 1 I I -0.70710678118654757 0.70710678118654757 0.75 forward I I I I #
loop $-1 $-1 $135 $36 #
coedge $-1 $85 $85 $136 $137 reversed $53 $-1 #
face $-1 $138 $139 $29 $-1 $140 reversed single #
loop $-1 $-1 $141 $55 #
plane-surface $-1 -33.048715911970412 8.3281331445689482 79.980658370497309 0.64278761758704617 0 0.76604443648966558 0.76604443648966558 0 -0.64278761758704617 forward_v I I I I #
coedge $-1 $142 $143 $144 $145 reversed $56 $-1 #
face $-1 $-1 $146 $30 $-1 $147 forward single #
loop $-1 $148 $149 $58 #
cone-surface $-1 53.017390460692376 5.9861685056861482 0.8641724102051338 -0.64278761758704617 0 -0.76604443648966558 0.57453332736724916 0 -0.48209071319028463 1 I I -0.70710678118654757 0.70710678118654757 0.75 forward I I I I #
loop $-1 $-1 $150 $38 #
coedge $-1 $94 $94 $151 $152 reversed $59 $-1 #
face $-1 $-1 $153 $31 $-1 $154 forward single #
loop $-1 $155 $156 $61 #
cone-surface $-1 53.017390460692376 10.670097783451741 0.8641724102051338 -0.64278761758704617 0 -0.76604443648966558 0.57453332736724916 0 -0.48209071319028463 1 I I -0.70710678118654757 0.70710678118654757 0.75 forward I I I I #
loop $-1 $-1 $157 $39 #
coedge $-1 $99 $99 $158 $159 reversed $62 $-1 #
face $-1 $160 $161 $24 $-1 $162 reversed single #
loop $-1 $-1 $163 $64 #
plane-surface $-1 0 -26.117744693903735 0 0 1 0 0 0 1 forward_v I I I I #
coedge $-1 $164 $165 $166 $167 forward $65 $-1 #
coedge $-1 $168 $67 $169 $170 forward $41 $-1 #
coedge $-1 $67 $168 $171 $172 forward $41 $-1 #
coedge $-1 $173 $174 $67 $107 reversed $175 $-1 #
edge $-1 $176 -26.117744693903735 $177 26.117744693903735 $106 $178 forward 7 unknown #
face $-1 $179 $180 $25 $-1 $181 reversed single #
loop $-1 $-1 $114 $68 #
plane-surface $-1 -67.770793752930174 0 1.8875737603612972 0 0 1 1 0 0 forward_v I I I I #
coedge $-1 $182 $183 $113 $184 forward $69 $-1 #
coedge $-1 $185 $71 $186 $187 reversed $44 $-1 #
coedge $-1 $71 $185 $111 $184 reversed $44 $-1 #
coedge $-1 $188 $189 $71 $115 reversed $109 $-1 #
edge $-1 $190 -26.117744693903735 $191 26.117744693903735 $114 $192 forward 7 unknown #
face $-1 $193 $194 $26 $-1 $195 forward single #
loop $-1 $-1 $196 $72 #
plane-surface $-1 46.79999524945152 -23.254195706727984 175.14064476801721 0 1 0 0.64278761758704617 0 0.76604443648966558 forward_v I I I I #
coedge $-1 $197 $198 $199 $200 reversed $73 $-1 #
coedge $-1 $121 $75 $201 $202 reversed $47 $-1 #
coedge $-1 $75 $120 $197 $203 reversed $47 $-1 #
coedge $-1 $199 $204 $75 $123 forward $194 $-1 #
edge $-1 $205 -38.711272860823726 $206 -27.317156268809828 $122 $207 forward 7 unknown #
loop $-1 $-1 $129 $76 #
plane-surface $-1 -33.048715911970412 -17.78961154933479 79.980658370497309 0.64278761758704617 0 0.76604443648966558 0.76604443648966558 0 -0.64278761758704617 forward_v I I I I #
loop $-1 $-1 $208 $49 #
coedge $-1 $127 $127 $128 $209 reversed $77 $-1 #
coedge $-1 $128 $128 $127 $209 forward $79 $-1 #
coedge $-1 $129 $129 $80 $130 forward $124 $-1 #
edge $-1 $210 0 $210 6.2831853071796004 $129 $211 forward 7 unknown #
loop $-1 $-1 $136 $81 #
plane-surface $-1 -33.048715911970412 -17.78961154933479 79.980658370497309 0.64278761758704617 0 0.76604443648966558 0.76604443648966558 0 -0.64278761758704617 forward_v I I I I #
loop $-1 $-1 $212 $52 #
coedge $-1 $134 $134 $135 $213 reversed $82 $-1 #
coedge $-1 $135 $135 $134 $213 forward $84 $-1 #
coedge $-1 $136 $136 $85 $137 forward $131 $-1 #
edge $-1 $214 0 $214 6.2831853071796004 $136 $215 forward 7 unknown #
face $-1 $216 $217 $29 $-1 $218 reversed single #
loop $-1 $-1 $219 $86 #
plane-surface $-1 46.79999524945152 2.8635489871757525 175.14064476801721 0 1 0 0.64278761758704617 0 0.76604443648966558 forward_v I I I I #
coedge $-1 $220 $221 $222 $223 reversed $87 $-1 #
coedge $-1 $143 $89 $224 $225 reversed $56 $-1 #
coedge $-1 $89 $142 $220 $226 reversed $56 $-1 #
coedge $-1 $222 $227 $89 $145 forward $228 $-1 #
edge $-1 $229 -38.711272860823726 $230 -27.317156268809828 $144 $231 forward 7 unknown #
loop $-1 $-1 $151 $90 #
plane-surface $-1 -33.048715911970412 8.3281331445689482 79.980658370497309 0.64278761758704617 0 0.76604443648966558 0.76604443648966558 0 -0.64278761758704617 forward_v I I I I #
loop $-1 $-1 $232 $58 #
coedge $-1 $149 $149 $150 $233 reversed $91 $-1 #
coedge $-1 $150 $150 $149 $233 forward $93 $-1 #
coedge $-1 $151 $151 $94 $152 forward $146 $-1 #
edge $-1 $234 0 $234 6.2831853071796004 $151 $235 forward 7 unknown #
loop $-1 $-1 $158 $95 #
plane-surface $-1 -33.048715911970412 8.3281331445689482 79.980658370497309 0.64278761758704617 0 0.76604443648966558 0.76604443648966558 0 -0.64278761758704617 forward_v I I I I #
loop $-1 $-1 $236 $61 #
coedge $-1 $156 $156 $157 $237 reversed $96 $-1 #
coedge $-1 $157 $157 $156 $237 forward $98 $-1 #
coedge $-1 $158 $158 $99 $159 forward $153 $-1 #
edge $-1 $238 0 $238 6.2831853071796004 $158 $239 forward 7 unknown #
face $-1 $240 $241 $24 $-1 $242 reversed single #
loop $-1 $-1 $243 $100 #
plane-surface $-1 -62.11127048554949 0 0 1 0 0 0 0 -1 forward_v I I I I #
coedge $-1 $244 $171 $243 $245 forward $101 $-1 #
coedge $-1 $246 $103 $244 $247 forward $65 $-1 #
coedge $-1 $103 $246 $248 $249 forward $65 $-1 #
coedge $-1 $174 $173 $103 $167 reversed $175 $-1 #
edge $-1 $250 -26.117744693903735 $251 26.117744693903735 $166 $252 forward 7 unknown #
coedge $-1 $105 $104 $253 $254 forward $41 $-1 #
coedge $-1 $255 $256 $104 $170 reversed $241 $-1 #
edge $-1 $177 -62.11127048554949 $257 62.11127048554949 $169 $258 forward 7 unknown #
coedge $-1 $163 $259 $105 $172 reversed $101 $-1 #
edge $-1 $260 -62.11127048554949 $176 62.11127048554949 $171 $261 forward 7 unknown #
coedge $-1 $166 $106 $259 $262 forward $175 $-1 #
coedge $-1 $106 $166 $255 $263 reversed $175 $-1 #
loop $-1 $-1 $173 $240 #
vertex $-1 $107 $264 #
vertex $-1 $107 $265 #
straight-curve $-1 62.11127048554949 0 9.6927464392757035 0 1 0 I I #
face $-1 $266 $267 $25 $-1 $268 reversed single #
loop $-1 $-1 $269 $108 #
plane-surface $-1 -67.770793752930174 0 -2.4297465399783409 0 0 1 1 0 0 forward_v I I I I #
coedge $-1 $270 $111 $271 $272 reversed $69 $-1 #
coedge $-1 $111 $270 $188 $273 reversed $69 $-1 #
edge $-1 $190 -1.8875737603612972 $274 2.4297465399783409 $111 $275 forward 7 unknown #
coedge $-1 $113 $112 $269 $276 forward $44 $-1 #
coedge $-1 $277 $278 $112 $187 forward $279 $-1 #
edge $-1 $280 -2.4297465399783409 $191 1.8875737603612972 $186 $281 forward 7 unknown #
coedge $-1 $282 $114 $183 $273 forward $109 $-1 #
coedge $-1 $114 $282 $277 $283 forward $109 $-1 #
vertex $-1 $184 $284 #
vertex $-1 $283 $285 #
straight-curve $-1 -62.11127048554949 0 1.8875737603612972 0 -1 0 I I #
face $-1 $-1 $286 $26 $-1 $287 reversed single #
loop $-1 $-1 $122 $116 #
plane-surface $-1 0 0 9.6927464392757035 0 0 1 1 0 0 forward_v I I I I #
coedge $-1 $288 $289 $290 $291 reversed $117 $-1 #
coedge $-1 $292 $119 $121 $203 forward $73 $-1 #
coedge $-1 $119 $292 $288 $293 forward $73 $-1 #
coedge $-1 $290 $122 $119 $200 forward $194 $-1 #
edge $-1 $206 3.4302216172741993 $294 14.359389932060589 $199 $295 forward 7 unknown #
coedge $-1 $296 $297 $120 $202 forward $286 $-1 #
edge $-1 $298 -87.438375174933228 $205 -77.877575944732897 $201 $299 forward 7 unknown #
edge $-1 $206 109.34857798766359 $298 124.22254097109897 $121 $300 forward 7 unknown #
coedge $-1 $122 $290 $296 $301 forward $194 $-1 #
vertex $-1 $202 $302 #
vertex $-1 $123 $303 #
straight-curve $-1 23.39999762472576 -12.325027391941594 9.6927464392757088 -1 0 0 I I #
coedge $-1 $208 $208 $-1 $304 reversed $126 $-1 #
edge $-1 $305 0 $305 6.2831853071796004 $127 $306 forward 7 unknown #
vertex $-1 $130 $307 #
ellipse-curve $-1 56.414212189542539 -20.131576188217586 4.9123468241755432 0.64278761758704617 0 0.76604443648966558 1.1490666547344983 0 -0.96418142638056925 1 I I #
coedge $-1 $212 $212 $-1 $308 reversed $133 $-1 #
edge $-1 $309 0 $309 6.2831853071796004 $134 $310 forward 7 unknown #
vertex $-1 $137 $311 #
ellipse-curve $-1 56.414212189542539 -15.447646910451992 4.9123468241755432 0.64278761758704617 0 0.76604443648966558 1.1490666547344983 0 -0.96418142638056925 1 I I #
face $-1 $-1 $228 $29 $-1 $312 forward single #
loop $-1 $-1 $313 $138 #
plane-surface $-1 62.11127048554949 0 0 -1 0 0 0 0 1 forward_v I I I I #
coedge $-1 $314 $315 $316 $317 reversed $139 $-1 #
coedge $-1 $318 $141 $143 $226 forward $87 $-1 #
coedge $-1 $141 $318 $314 $319 forward $87 $-1 #
coedge $-1 $316 $144 $141 $223 forward $228 $-1 #
edge $-1 $230 -9.6286507296776698 $320 1.3005175851087216 $222 $321 forward 7 unknown #
coedge $-1 $322 $323 $142 $225 forward $217 $-1 #
edge $-1 $324 -87.438375174933228 $229 -77.877575944732897 $224 $325 forward 7 unknown #
edge $-1 $230 109.34857798766359 $324 124.22254097109897 $143 $326 forward 7 unknown #
coedge $-1 $144 $316 $322 $327 forward $228 $-1 #
loop $-1 $-1 $316 $216 #
vertex $-1 $225 $328 #
vertex $-1 $145 $329 #
straight-curve $-1 23.39999762472576 13.792717301962144 9.6927464392757088 -1 0 0 I I #
coedge $-1 $232 $232 $-1 $330 reversed $148 $-1 #
edge $-1 $331 0 $331 6.2831853071796004 $149 $332 forward 7 unknown #
vertex $-1 $152 $333 #
ellipse-curve $-1 56.414212189542539 5.9861685056861482 4.9123468241755432 0.64278761758704617 0 0.76604443648966558 1.1490666547344983 0 -0.96418142638056925 1 I I #
coedge $-1 $236 $236 $-1 $334 reversed $155 $-1 #
edge $-1 $335 0 $335 6.2831853071796004 $156 $336 forward 7 unknown #
vertex $-1 $159 $337 #
ellipse-curve $-1 56.414212189542539 10.670097783451741 4.9123468241755432 0.64278761758704617 0 0.76604443648966558 1.1490666547344983 0 -0.96418142638056925 1 I I #
face $-1 $-1 $175 $24 $-1 $338 reversed single #
loop $-1 $-1 $255 $160 #
plane-surface $-1 0 26.117744693903735 0 0 -1 0 0 0 -1 forward_v I I I I #
coedge $-1 $253 $339 $163 $245 reversed $161 $-1 #
coedge $-1 $259 $163 $164 $247 reversed $101 $-1 #
edge $-1 $260 -9.6927464392757035 $340 9.6927464392757035 $243 $341 forward 7 unknown #
coedge $-1 $165 $164 $339 $342 forward $65 $-1 #
edge $-1 $251 -62.11127048554949 $340 62.11127048554949 $244 $343 forward 7 unknown #
coedge $-1 $256 $255 $165 $249 reversed $241 $-1 #
edge $-1 $344 -62.11127048554949 $250 62.11127048554949 $248 $345 forward 7 unknown #
vertex $-1 $167 $346 #
vertex $-1 $262 $347 #
straight-curve $-1 62.11127048554949 0 -9.6927464392757035 0 -1 0 I I #
coedge $-1 $348 $243 $168 $254 reversed $161 $-1 #
edge $-1 $257 -26.117744693903735 $260 26.117744693903735 $253 $349 forward 7 unknown #
coedge $-1 $248 $169 $174 $263 forward $241 $-1 #
coedge $-1 $169 $248 $348 $350 reversed $241 $-1 #
vertex $-1 $170 $351 #
straight-curve $-1 0 26.117744693903735 9.6927464392757035 -1 0 0 I I #
coedge $-1 $171 $244 $173 $262 reversed $101 $-1 #
vertex $-1 $254 $352 #
straight-curve $-1 0 -26.117744693903735 9.6927464392757035 1 0 0 I I #
edge $-1 $176 -9.6927464392757035 $251 9.6927464392757035 $173 $353 forward 7 unknown #
edge $-1 $177 -9.6927464392757035 $250 9.6927464392757035 $174 $354 forward 7 unknown #
point $-1 62.11127048554949 -26.117744693903735 9.6927464392757035 #
point $-1 62.11127048554949 26.117744693903735 9.6927464392757035 #
face $-1 $-1 $279 $25 $-1 $355 reversed single #
loop $-1 $-1 $356 $179 #
plane-surface $-1 -73.430317020310852 0 -0.27108638980852184 1 0 0 0 0 -1 forward_v I I I I #
coedge $-1 $357 $271 $185 $276 reversed $180 $-1 #
coedge $-1 $183 $182 $356 $358 reversed $69 $-1 #
coedge $-1 $269 $359 $182 $272 forward $180 $-1 #
edge $-1 $360 -5.6595232673806777 $274 5.6595232673806848 $182 $361 forward 7 unknown #
edge $-1 $190 -5.6595232673806848 $362 5.6595232673806777 $183 $363 forward 7 unknown #
vertex $-1 $184 $364 #
straight-curve $-1 -62.11127048554949 26.117744693903735 0 0 0 -1 I I #
edge $-1 $280 -26.117744693903735 $274 26.117744693903735 $269 $365 forward 7 unknown #
coedge $-1 $366 $186 $189 $283 reversed $279 $-1 #
coedge $-1 $186 $366 $357 $367 reversed $279 $-1 #
loop $-1 $-1 $186 $266 #
vertex $-1 $187 $368 #
straight-curve $-1 -62.11127048554949 -26.117744693903735 0 0 0 1 I I #
coedge $-1 $189 $188 $369 $370 forward $109 $-1 #
edge $-1 $371 -5.6595232673806777 $191 5.6595232673806848 $277 $372 forward 7 unknown #
point $-1 -62.11127048554949 26.117744693903735 1.8875737603612972 #
point $-1 -62.11127048554949 -26.117744693903735 1.8875737603612972 #
loop $-1 $-1 $201 $193 #
plane-surface $-1 62.11127048554949 0 0 -1 0 0 0 0 1 forward_v I I I I #
coedge $-1 $289 $196 $198 $293 reversed $117 $-1 #
coedge $-1 $196 $288 $373 $374 reversed $117 $-1 #
coedge $-1 $204 $199 $196 $291 forward $194 $-1 #
edge $-1 $294 27.317156268809828 $375 38.711272860823726 $290 $376 forward 7 unknown #
coedge $-1 $198 $197 $297 $377 reversed $73 $-1 #
edge $-1 $378 -124.22254097109897 $294 -109.34857798766359 $288 $379 forward 7 unknown #
vertex $-1 $200 $380 #
straight-curve $-1 50.717153893535595 -8.894805774667395 9.6927464392757017 0 -1 0 I I #
coedge $-1 $373 $201 $204 $301 reversed $286 $-1 #
coedge $-1 $201 $373 $292 $377 forward $286 $-1 #
vertex $-1 $202 $381 #
straight-curve $-1 62.11127048554949 -12.325027391941594 87.570322384008605 0 0 1 I I #
straight-curve $-1 -33.048715911970412 -12.325027391941594 79.980658370497309 0.76604443648966558 0 -0.64278761758704617 I I #
edge $-1 $375 -23.254195706727984 $205 -12.325027391941594 $296 $382 forward 7 unknown #
point $-1 62.11127048554949 -12.325027391941594 9.6927464392757035 #
point $-1 50.717153893535588 -12.325027391941594 9.6927464392757088 #
edge $-1 $383 1 $383 0 $208 $-1 forward 7 unknown #
vertex $-1 $209 $384 #
ellipse-curve $-1 53.499481173882657 -20.131576188217586 1.4387057375723828 0.64278761758704617 0 0.76604443648966558 1.1490666547344983 0 -0.96418142638056925 1 I I #
point $-1 57.563278844277036 -20.131576188217586 3.9481653977949742 #
edge $-1 $385 1 $385 0 $212 $-1 forward 7 unknown #
vertex $-1 $213 $386 #
ellipse-curve $-1 53.499481173882657 -15.447646910451992 1.4387057375723828 0.64278761758704617 0 0.76604443648966558 1.1490666547344983 0 -0.96418142638056925 1 I I #
point $-1 57.563278844277036 -15.447646910451992 3.9481653977949742 #
plane-surface $-1 0 0 9.6927464392757035 0 0 1 1 0 0 forward_v I I I I #
coedge $-1 $323 $322 $315 $387 forward $217 $-1 #
coedge $-1 $315 $219 $221 $319 reversed $139 $-1 #
coedge $-1 $219 $314 $313 $387 reversed $139 $-1 #
coedge $-1 $227 $222 $219 $317 forward $228 $-1 #
edge $-1 $320 27.317156268809828 $388 38.711272860823726 $316 $389 forward 7 unknown #
coedge $-1 $221 $220 $323 $390 reversed $87 $-1 #
edge $-1 $391 -124.22254097109897 $320 -109.34857798766359 $314 $392 forward 7 unknown #
vertex $-1 $223 $393 #
straight-curve $-1 50.717153893535595 4.1640665722844741 9.6927464392757017 0 -1 0 I I #
coedge $-1 $313 $224 $227 $327 reversed $217 $-1 #
coedge $-1 $224 $313 $318 $390 forward $217 $-1 #
vertex $-1 $225 $394 #
straight-curve $-1 62.11127048554949 13.792717301962144 87.570322384008605 0 0 1 I I #
straight-curve $-1 -33.048715911970412 13.792717301962144 79.980658370497309 0.76604443648966558 0 -0.64278761758704617 I I #
edge $-1 $388 2.8635489871757525 $229 13.792717301962144 $322 $395 forward 7 unknown #
point $-1 62.11127048554949 13.792717301962144 9.6927464392757035 #
point $-1 50.717153893535588 13.792717301962144 9.6927464392757088 #
edge $-1 $396 1 $396 0 $232 $-1 forward 7 unknown #
vertex $-1 $233 $397 #
ellipse-curve $-1 53.499481173882657 5.9861685056861482 1.4387057375723828 0.64278761758704617 0 0.76604443648966558 1.1490666547344983 0 -0.96418142638056925 1 I I #
point $-1 57.563278844277036 5.9861685056861482 3.9481653977949742 #
edge $-1 $398 1 $398 0 $236 $-1 forward 7 unknown #
vertex $-1 $237 $399 #
ellipse-curve $-1 53.499481173882657 10.670097783451741 1.4387057375723828 0.64278761758704617 0 0.76604443648966558 1.1490666547344983 0 -0.96418142638056925 1 I I #
point $-1 57.563278844277036 10.670097783451741 3.9481653977949742 #
plane-surface $-1 62.11127048554949 0 0 -1 0 0 0 0 1 forward_v I I I I #
coedge $-1 $243 $348 $246 $342 reversed $161 $-1 #
vertex $-1 $342 $400 #
straight-curve $-1 -62.11127048554949 -26.117744693903735 0 0 0 -1 I I #
edge $-1 $340 -26.117744693903735 $344 26.117744693903735 $339 $401 forward 7 unknown #
straight-curve $-1 0 -26.117744693903735 -9.6927464392757035 -1 0 0 I I #
vertex $-1 $249 $402 #
straight-curve $-1 0 26.117744693903735 -9.6927464392757035 1 0 0 I I #
point $-1 62.11127048554949 26.117744693903735 -9.6927464392757035 #
point $-1 62.11127048554949 -26.117744693903735 -9.6927464392757035 #
coedge $-1 $339 $253 $256 $350 forward $161 $-1 #
straight-curve $-1 -62.11127048554949 0 9.6927464392757035 0 -1 0 I I #
edge $-1 $257 -9.6927464392757035 $344 9.6927464392757035 $256 $403 forward 7 unknown #
point $-1 -62.11127048554949 26.117744693903735 9.6927464392757035 #
point $-1 -62.11127048554949 -26.117744693903735 9.6927464392757035 #
straight-curve $-1 62.11127048554949 -26.117744693903735 0 0 0 -1 I I #
straight-curve $-1 62.11127048554949 26.117744693903735 0 0 0 -1 I I #
plane-surface $-1 0 -26.117744693903735 0 0 1 0 0 0 1 forward_v I I I I #
coedge $-1 $404 $369 $270 $358 forward $267 $-1 #
coedge $-1 $359 $269 $278 $367 forward $180 $-1 #
edge $-1 $362 -2.158660150169819 $360 2.158660150169819 $270 $405 forward 7 unknown #
coedge $-1 $271 $357 $404 $406 forward $180 $-1 #
vertex $-1 $272 $407 #
straight-curve $-1 -67.770793752930174 26.117744693903735 -2.4297465399783409 1 0 0 I I #
vertex $-1 $273 $408 #
straight-curve $-1 -67.770793752930174 26.117744693903735 1.8875737603612972 -1 0 0 I I #
point $-1 -62.11127048554949 26.117744693903735 -2.4297465399783409 #
straight-curve $-1 -62.11127048554949 0 -2.4297465399783409 0 1 0 I I #
coedge $-1 $278 $277 $409 $410 forward $279 $-1 #
edge $-1 $280 -5.6595232673806848 $411 5.6595232673806777 $278 $412 forward 7 unknown #
point $-1 -62.11127048554949 -26.117744693903735 -2.4297465399783409 #
coedge $-1 $356 $409 $282 $370 reversed $267 $-1 #
edge $-1 $362 -26.117744693903735 $371 26.117744693903735 $369 $413 forward 7 unknown #
vertex $-1 $370 $414 #
straight-curve $-1 -67.770793752930174 -26.117744693903735 1.8875737603612972 1 0 0 I I #
coedge $-1 $297 $296 $289 $374 forward $286 $-1 #
edge $-1 $375 77.877575944732897 $378 87.438375174933228 $373 $415 forward 7 unknown #
vertex $-1 $301 $416 #
straight-curve $-1 23.39999762472576 -23.254195706727984 9.6927464392757088 1 0 0 I I #
edge $-1 $378 -14.359389932060589 $298 -3.4302216172741993 $297 $417 forward 7 unknown #
vertex $-1 $377 $418 #
straight-curve $-1 -33.048715911970412 -23.254195706727984 79.980658370497309 -0.76604443648966558 0 0.64278761758704617 I I #
point $-1 50.717153893535588 -23.254195706727984 9.6927464392757088 #
point $-1 62.11127048554949 -12.325027391941594 0.13194720907537771 #
straight-curve $-1 62.11127048554949 0 9.6927464392757035 0 1 0 I I #
vertex $-1 $304 $419 #
point $-1 54.648547828617161 -20.131576188217586 0.47452431119181371 #
vertex $-1 $308 $420 #
point $-1 54.648547828617161 -15.447646910451992 0.47452431119181371 #
edge $-1 $388 77.877575944732897 $391 87.438375174933228 $313 $421 forward 7 unknown #
vertex $-1 $327 $422 #
straight-curve $-1 23.39999762472576 2.8635489871757525 9.6927464392757088 1 0 0 I I #
edge $-1 $391 -1.3005175851087216 $324 9.6286507296776698 $323 $423 forward 7 unknown #
vertex $-1 $390 $424 #
straight-curve $-1 -33.048715911970412 2.8635489871757525 79.980658370497309 -0.76604443648966558 0 0.64278761758704617 I I #
point $-1 50.717153893535588 2.8635489871757525 9.6927464392757088 #
point $-1 62.11127048554949 13.792717301962144 0.13194720907537771 #
straight-curve $-1 62.11127048554949 0 9.6927464392757035 0 1 0 I I #
vertex $-1 $330 $425 #
point $-1 54.648547828617161 5.9861685056861482 0.47452431119181371 #
vertex $-1 $334 $426 #
point $-1 54.648547828617161 10.670097783451741 0.47452431119181371 #
point $-1 -62.11127048554949 -26.117744693903735 -9.6927464392757035 #
straight-curve $-1 -62.11127048554949 0 -9.6927464392757035 0 1 0 I I #
point $-1 -62.11127048554949 26.117744693903735 -9.6927464392757035 #
straight-curve $-1 -62.11127048554949 26.117744693903735 0 0 0 -1 I I #
coedge $-1 $409 $356 $359 $406 reversed $267 $-1 #
straight-curve $-1 -73.430317020310852 26.117744693903735 -0.27108638980852184 0 0 -1 I I #
edge $-1 $411 -26.117744693903735 $360 26.117744693903735 $404 $427 forward 7 unknown #
point $-1 -73.430317020310852 26.117744693903735 -2.4297465399783409 #
point $-1 -73.430317020310852 26.117744693903735 1.8875737603612972 #
coedge $-1 $369 $404 $366 $410 reversed $267 $-1 #
edge $-1 $371 -2.158660150169819 $411 2.158660150169819 $409 $428 forward 7 unknown #
vertex $-1 $406 $429 #
straight-curve $-1 -67.770793752930174 -26.117744693903735 -2.4297465399783409 -1 0 0 I I #
straight-curve $-1 -73.430317020310852 0 1.8875737603612972 0 -1 0 I I #
point $-1 -73.430317020310852 -26.117744693903735 1.8875737603612972 #
straight-curve $-1 62.11127048554949 -23.254195706727984 87.570322384008605 0 0 -1 I I #
point $-1 62.11127048554949 -23.254195706727984 9.6927464392757035 #
straight-curve $-1 62.111270485549483 -8.894805774667395 0.13194720907537771 0 1 0 I I #
point $-1 62.11127048554949 -23.254195706727984 0.13194720907537771 #
point $-1 52.535299747502094 -20.131576188217586 0.28963908283788464 #
point $-1 52.535299747502094 -15.447646910451992 0.28963908283788464 #
straight-curve $-1 62.11127048554949 2.8635489871757525 87.570322384008605 0 0 -1 I I #
point $-1 62.11127048554949 2.8635489871757525 9.6927464392757035 #
straight-curve $-1 62.111270485549483 4.1640665722844741 0.13194720907537771 0 1 0 I I #
point $-1 62.11127048554949 2.8635489871757525 0.13194720907537771 #
point $-1 52.535299747502094 5.9861685056861482 0.28963908283788464 #
point $-1 52.535299747502094 10.670097783451741 0.28963908283788464 #
straight-curve $-1 -73.430317020310852 0 -2.4297465399783409 0 1 0 I I #
straight-curve $-1 -73.430317020310852 -26.117744693903735 -0.27108638980852184 0 0 -1 I I #
point $-1 -73.430317020310852 -26.117744693903735 -2.4297465399783409 #
End-of-ACIS-data 