500 0 8 0           
7 Unknown 11 ACIS 5.0 NT 24 Fri Mar 26 02:16:55 1999 
-1 9.9999999999999995e-007 1e-010 
body $-1 $8 $-1 $9 #
body $-1 $10 $-1 $11 #
body $-1 $12 $-1 $13 #
body $-1 $14 $-1 $15 #
body $-1 $16 $-1 $17 #
body $-1 $18 $-1 $19 #
body $-1 $20 $-1 $21 #
body $-1 $22 $-1 $23 #
lump $-1 $-1 $24 $0 #
transform $-1 1 0 0 0 1 0 0 0 1 60.647602771080656 24.914250660144738 4.9906056591365102 1 rotate no_reflect no_shear #
lump $-1 $-1 $25 $1 #
transform $-1 1 0 0 0 1 0 0 0 1 60.647602771080656 24.914250660144738 4.9906056591365102 1 rotate no_reflect no_shear #
lump $-1 $-1 $26 $2 #
transform $-1 1 0 0 0 1 0 0 0 1 60.647602771080656 24.914250660144738 4.9906056591365102 1 rotate no_reflect no_shear #
lump $-1 $-1 $27 $3 #
transform $-1 1 0 0 0 1 0 0 0 1 60.647602771080656 24.914250660144738 4.9906056591365102 1 rotate no_reflect no_shear #
lump $-1 $-1 $28 $4 #
transform $-1 1 0 0 0 1 0 0 0 1 60.647602771080656 24.914250660144738 4.9906056591365102 1 rotate no_reflect no_shear #
lump $-1 $-1 $29 $5 #
transform $-1 1 0 0 0 1 0 0 0 1 60.647602771080656 24.914250660144738 4.9906056591365102 1 rotate no_reflect no_shear #
lump $-1 $-1 $30 $6 #
transform $-1 1 0 0 0 1 0 0 0 1 60.647602771080656 24.914250660144738 4.9906056591365102 1 rotate no_reflect no_shear #
lump $-1 $-1 $31 $7 #
transform $-1 1 0 0 0 1 0 0 0 1 60.647602771080656 24.914250660144738 4.9906056591365102 1 rotate no_reflect no_shear #
shell $-1 $-1 $-1 $32 $-1 $8 #
shell $-1 $-1 $-1 $33 $-1 $10 #
shell $-1 $-1 $-1 $34 $-1 $12 #
shell $-1 $-1 $-1 $35 $-1 $14 #
shell $-1 $-1 $-1 $36 $-1 $16 #
shell $-1 $-1 $-1 $37 $-1 $18 #
shell $-1 $-1 $-1 $38 $-1 $20 #
shell $-1 $-1 $-1 $39 $-1 $22 #
face $-1 $40 $41 $24 $-1 $42 forward single #
face $-1 $43 $44 $25 $-1 $45 reversed single #
face $-1 $46 $47 $26 $-1 $48 reversed single #
face $-1 $49 $50 $27 $-1 $51 forward single #
face $-1 $52 $53 $28 $-1 $54 forward single #
face $-1 $55 $56 $29 $-1 $57 reversed single #
face $-1 $58 $59 $30 $-1 $60 forward single #
face $-1 $61 $62 $31 $-1 $63 forward single #
face $-1 $64 $65 $24 $-1 $66 reversed single #
loop $-1 $-1 $67 $32 #
plane-surface $-1 0 0 4.9906056591365102 0 0 1 1 0 0 forward_v I I I I #
face $-1 $68 $69 $25 $-1 $70 reversed single #
loop $-1 $-1 $71 $33 #
plane-surface $-1 0 -21.761081005051992 1.9906056591365102 0 0 1 1 0 0 forward_v I I I I #
face $-1 $72 $73 $26 $-1 $74 reversed single #
loop $-1 $-1 $75 $34 #
plane-surface $-1 -126.7097073350584 -5.0749935089295786 102.54150161961736 0 1 0 -0.54463904215088732 0 0.83867056331134215 forward_v I I I I #
face $-1 $76 $77 $27 $-1 $78 forward single #
loop $-1 $79 $80 $35 #
cone-surface $-1 -56.729920155175058 -1.9557711418877233 1.820814040296167 0.54463904215088732 0 -0.83867056331134215 1.2580058449670133 0 0.81695856322633098 1 I I 0 1 1.5 forward I I I I #
face $-1 $81 $82 $28 $-1 $83 forward single #
loop $-1 $84 $85 $36 #
cone-surface $-1 -56.729920155175058 2.7230624086750552 1.820814040296167 0.54463904215088732 0 -0.83867056331134215 1.2580058449670133 0 0.81695856322633098 1 I I 0 1 1.5 forward I I I I #
face $-1 $86 $87 $29 $-1 $88 reversed single #
loop $-1 $-1 $89 $37 #
plane-surface $-1 54.661038373016225 -1.2469831330685315 171.71343460881172 0 -1 0 -0.68199836817093118 0 -0.7313536940579346 forward_v I I I I #
face $-1 $90 $91 $30 $-1 $92 forward single #
loop $-1 $93 $94 $38 #
cone-surface $-1 57.701131561311954 -9.100416924254402 2.1840923755826669 -0.68199836817093118 0 -0.7313536940579346 0.3656768470289673 0 -0.34099918408546559 1 I I 0 1 0.5 forward I I I I #
face $-1 $95 $96 $31 $-1 $97 forward single #
loop $-1 $98 $99 $39 #
cone-surface $-1 57.701131561311954 -4.3883566495428781 2.1840923755826669 -0.68199836817093118 0 -0.7313536940579346 0.3656768470289673 0 -0.34099918408546559 1 I I 0 1 0.5 forward I I I I #
face $-1 $100 $101 $24 $-1 $102 reversed single #
loop $-1 $-1 $103 $40 #
plane-surface $-1 0 0 -4.9906056591365102 0 0 1 1 0 0 forward_v I I I I #
coedge $-1 $104 $105 $106 $107 forward $41 $-1 #
face $-1 $108 $109 $25 $-1 $110 reversed single #
loop $-1 $-1 $111 $43 #
plane-surface $-1 0 -18.607911349959245 3.4906056591365102 0 -1 0 0 0 -1 forward_v I I I I #
coedge $-1 $112 $113 $114 $115 reversed $44 $-1 #
face $-1 $116 $117 $26 $-1 $118 reversed single #
loop $-1 $-1 $119 $46 #
plane-surface $-1 -60.647602771080656 0.38364563339366242 0.81478326060791062 -0.54463904215088732 0 0.83867056331134215 0.83867056331134215 0 0.54463904215088732 forward_v I I I I #
coedge $-1 $120 $121 $122 $123 reversed $47 $-1 #
face $-1 $-1 $124 $27 $-1 $125 forward single #
loop $-1 $126 $127 $49 #
cone-surface $-1 -55.618859501070169 -1.9557711418877233 0.10993069823662527 0.54463904215088732 0 -0.83867056331134215 0.62900292248350664 0 0.40847928161316549 1 I I -0.70710678118654768 0.70710678118654757 0.75 forward I I I I #
loop $-1 $-1 $128 $35 #
coedge $-1 $80 $80 $129 $130 reversed $50 $-1 #
face $-1 $-1 $131 $28 $-1 $132 forward single #
loop $-1 $133 $134 $52 #
cone-surface $-1 -55.618859501070169 2.7230624086750552 0.10993069823662527 0.54463904215088732 0 -0.83867056331134215 0.62900292248350664 0 0.40847928161316549 1 I I -0.70710678118654768 0.70710678118654757 0.75 forward I I I I #
loop $-1 $-1 $135 $36 #
coedge $-1 $85 $85 $136 $137 reversed $53 $-1 #
face $-1 $138 $139 $29 $-1 $140 reversed single #
loop $-1 $-1 $141 $55 #
plane-surface $-1 -28.062093873695474 -6.7443867868986409 83.003737964035579 0.68199836817093118 0 0.7313536940579346 0.7313536940579346 0 -0.68199836817093118 forward_v I I I I #
coedge $-1 $142 $143 $144 $145 reversed $56 $-1 #
face $-1 $-1 $146 $30 $-1 $147 forward single #
loop $-1 $148 $149 $58 #
cone-surface $-1 57.109588984274509 -9.100416924254402 1.5497406394206577 -0.68199836817093118 0 -0.7313536940579346 0.18283842351448365 0 -0.17049959204273279 1 I I -0.70710678118654779 0.70710678118654713 0.25 forward I I I I #
loop $-1 $-1 $150 $38 #
coedge $-1 $94 $94 $151 $152 reversed $59 $-1 #
face $-1 $-1 $153 $31 $-1 $154 forward single #
loop $-1 $155 $156 $61 #
cone-surface $-1 57.109588984274509 -4.3883566495428781 1.5497406394206577 -0.68199836817093118 0 -0.7313536940579346 0.18283842351448365 0 -0.17049959204273279 1 I I -0.70710678118654779 0.70710678118654713 0.25 forward I I I I #
loop $-1 $-1 $157 $39 #
coedge $-1 $99 $99 $158 $159 reversed $62 $-1 #
face $-1 $160 $161 $24 $-1 $162 reversed single #
loop $-1 $-1 $163 $64 #
plane-surface $-1 0 -24.914250660144738 0 0 1 0 0 0 1 forward_v I I I I #
coedge $-1 $164 $165 $166 $167 forward $65 $-1 #
coedge $-1 $168 $67 $169 $170 forward $41 $-1 #
coedge $-1 $67 $168 $171 $172 forward $41 $-1 #
coedge $-1 $173 $174 $67 $107 reversed $175 $-1 #
edge $-1 $176 -24.914250660144738 $177 24.914250660144738 $106 $178 forward 7 unknown #
face $-1 $179 $180 $25 $-1 $181 reversed single #
loop $-1 $-1 $182 $68 #
plane-surface $-1 -60.647602771080656 0 0 1 0 0 0 0 -1 forward_v I I I I #
coedge $-1 $183 $184 $185 $186 reversed $69 $-1 #
coedge $-1 $187 $71 $188 $189 reversed $44 $-1 #
coedge $-1 $71 $187 $183 $190 forward $44 $-1 #
coedge $-1 $185 $191 $71 $115 forward $192 $-1 #
edge $-1 $193 -14.033710157618742 $194 -7.7273708474332494 $114 $195 forward 7 unknown #
face $-1 $196 $197 $26 $-1 $198 forward single #
loop $-1 $-1 $199 $72 #
plane-surface $-1 -126.7097073350584 5.8422847757169034 102.54150161961736 0 -1 0 0.54463904215088732 0 -0.83867056331134215 forward_v I I I I #
coedge $-1 $200 $201 $202 $203 reversed $73 $-1 #
coedge $-1 $121 $75 $204 $205 reversed $47 $-1 #
coedge $-1 $75 $120 $200 $206 reversed $47 $-1 #
coedge $-1 $202 $207 $75 $123 forward $197 $-1 #
edge $-1 $208 2.7072508964485422 $209 9.1374533832762594 $122 $210 forward 7 unknown #
loop $-1 $-1 $129 $76 #
plane-surface $-1 -60.647602771080656 0.38364563339366242 0.81478326060791062 -0.54463904215088732 0 0.83867056331134215 0.83867056331134215 0 0.54463904215088732 forward_v I I I I #
loop $-1 $-1 $211 $49 #
coedge $-1 $127 $127 $128 $212 reversed $77 $-1 #
coedge $-1 $128 $128 $127 $212 forward $79 $-1 #
coedge $-1 $129 $129 $80 $130 forward $124 $-1 #
edge $-1 $213 0 $213 6.2831853071796004 $129 $214 forward 7 unknown #
loop $-1 $-1 $136 $81 #
plane-surface $-1 -60.647602771080656 0.38364563339366242 0.81478326060791062 -0.54463904215088732 0 0.83867056331134215 0.83867056331134215 0 0.54463904215088732 forward_v I I I I #
loop $-1 $-1 $215 $52 #
coedge $-1 $134 $134 $135 $216 reversed $82 $-1 #
coedge $-1 $135 $135 $134 $216 forward $84 $-1 #
coedge $-1 $136 $136 $85 $137 forward $131 $-1 #
edge $-1 $217 0 $217 6.2831853071796004 $136 $218 forward 7 unknown #
face $-1 $219 $220 $29 $-1 $221 reversed single #
loop $-1 $-1 $222 $86 #
plane-surface $-1 54.661038373016225 -12.241790440728749 171.71343460881172 0 1 0 0.68199836817093118 0 0.7313536940579346 forward_v I I I I #
coedge $-1 $223 $224 $225 $226 reversed $87 $-1 #
coedge $-1 $143 $89 $227 $228 reversed $56 $-1 #
coedge $-1 $89 $142 $223 $229 reversed $56 $-1 #
coedge $-1 $225 $230 $89 $145 forward $231 $-1 #
edge $-1 $232 -33.317083584572543 $233 -28.266227135024593 $144 $234 forward 7 unknown #
loop $-1 $-1 $151 $90 #
plane-surface $-1 -28.062093873695474 -6.7443867868986409 83.003737964035579 0.68199836817093118 0 0.7313536940579346 0.7313536940579346 0 -0.68199836817093118 forward_v I I I I #
loop $-1 $-1 $235 $58 #
coedge $-1 $149 $149 $150 $236 reversed $91 $-1 #
coedge $-1 $150 $150 $149 $236 forward $93 $-1 #
coedge $-1 $151 $151 $94 $152 forward $146 $-1 #
edge $-1 $237 0 $237 6.2831853071796004 $151 $238 forward 7 unknown #
loop $-1 $-1 $158 $95 #
plane-surface $-1 -28.062093873695474 -6.7443867868986409 83.003737964035579 0.68199836817093118 0 0.7313536940579346 0.7313536940579346 0 -0.68199836817093118 forward_v I I I I #
loop $-1 $-1 $239 $61 #
coedge $-1 $156 $156 $157 $240 reversed $96 $-1 #
coedge $-1 $157 $157 $156 $240 forward $98 $-1 #
coedge $-1 $158 $158 $99 $159 forward $153 $-1 #
edge $-1 $241 0 $241 6.2831853071796004 $158 $242 forward 7 unknown #
face $-1 $243 $244 $24 $-1 $245 reversed single #
loop $-1 $-1 $246 $100 #
plane-surface $-1 -60.647602771080656 0 0 1 0 0 0 0 -1 forward_v I I I I #
coedge $-1 $247 $171 $248 $249 forward $101 $-1 #
coedge $-1 $250 $103 $247 $251 forward $65 $-1 #
coedge $-1 $103 $250 $252 $253 forward $65 $-1 #
coedge $-1 $174 $173 $103 $167 reversed $175 $-1 #
edge $-1 $254 -24.914250660144738 $255 24.914250660144738 $166 $256 forward 7 unknown #
coedge $-1 $105 $104 $257 $258 forward $41 $-1 #
coedge $-1 $259 $260 $104 $170 reversed $244 $-1 #
edge $-1 $177 -60.647602771080656 $261 60.647602771080656 $169 $262 forward 7 unknown #
coedge $-1 $163 $263 $105 $172 reversed $101 $-1 #
edge $-1 $264 -60.647602771080656 $176 60.647602771080656 $171 $265 forward 7 unknown #
coedge $-1 $166 $106 $263 $266 forward $175 $-1 #
coedge $-1 $106 $166 $259 $267 reversed $175 $-1 #
loop $-1 $-1 $173 $243 #
vertex $-1 $107 $268 #
vertex $-1 $107 $269 #
straight-curve $-1 60.647602771080656 0 4.9906056591365102 0 1 0 I I #
face $-1 $270 $271 $25 $-1 $272 forward single #
loop $-1 $-1 $188 $108 #
plane-surface $-1 0 -24.914250660144738 0 0 1 0 0 0 1 forward_v I I I I #
coedge $-1 $273 $274 $275 $276 forward $109 $-1 #
coedge $-1 $275 $111 $113 $190 reversed $69 $-1 #
coedge $-1 $111 $275 $277 $278 reversed $69 $-1 #
coedge $-1 $279 $114 $111 $186 forward $192 $-1 #
edge $-1 $194 0.24530282956825511 $280 3.2453028295682551 $185 $281 forward 7 unknown #
coedge $-1 $113 $112 $273 $282 reversed $44 $-1 #
coedge $-1 $283 $284 $112 $189 forward $180 $-1 #
edge $-1 $285 -60.647602771080656 $193 60.647602771080656 $188 $286 forward 7 unknown #
edge $-1 $287 -60.647602771080656 $194 60.647602771080656 $183 $288 forward 7 unknown #
coedge $-1 $114 $279 $283 $289 forward $192 $-1 #
loop $-1 $-1 $185 $270 #
vertex $-1 $189 $290 #
vertex $-1 $115 $291 #
straight-curve $-1 60.647602771080656 -10.880540502525996 1.9906056591365102 0 1 0 I I #
face $-1 $-1 $292 $26 $-1 $293 reversed single #
loop $-1 $-1 $122 $116 #
plane-surface $-1 0 0 4.9906056591365102 0 0 1 1 0 0 forward_v I I I I #
coedge $-1 $294 $295 $296 $297 reversed $117 $-1 #
coedge $-1 $298 $119 $121 $206 forward $73 $-1 #
coedge $-1 $119 $298 $294 $299 forward $73 $-1 #
coedge $-1 $296 $122 $119 $203 forward $197 $-1 #
edge $-1 $209 -5.2668163256264098 $300 5.6504619590200722 $202 $301 forward 7 unknown #
coedge $-1 $302 $303 $120 $205 forward $292 $-1 #
edge $-1 $304 -50.455967549200771 $208 -46.280145150672169 $204 $305 forward 7 unknown #
edge $-1 $209 -7.6671374531606311 $304 0 $121 $306 forward 7 unknown #
coedge $-1 $122 $296 $302 $307 forward $197 $-1 #
vertex $-1 $205 $308 #
vertex $-1 $123 $309 #
straight-curve $-1 -63.354853667529198 -5.0749935089295786 4.9906056591365129 1 0 0 I I #
coedge $-1 $211 $211 $-1 $310 reversed $126 $-1 #
edge $-1 $311 0 $311 6.2831853071796004 $127 $312 forward 7 unknown #
vertex $-1 $130 $313 #
ellipse-curve $-1 -57.432501527666794 -1.9557711418877233 2.9026944598722144 -0.54463904215088732 0 0.83867056331134215 1.2580058449670133 0 0.81695856322633098 1 I I #
coedge $-1 $215 $215 $-1 $314 reversed $133 $-1 #
edge $-1 $315 0 $315 6.2831853071796004 $134 $316 forward 7 unknown #
vertex $-1 $137 $317 #
ellipse-curve $-1 -57.432501527666794 2.7230624086750552 2.9026944598722144 -0.54463904215088732 0 0.83867056331134215 1.2580058449670133 0 0.81695856322633098 1 I I #
face $-1 $-1 $231 $29 $-1 $318 forward single #
loop $-1 $-1 $319 $138 #
plane-surface $-1 60.647602771080656 0 0 -1 0 0 0 0 1 forward_v I I I I #
coedge $-1 $320 $321 $322 $323 reversed $139 $-1 #
coedge $-1 $324 $141 $143 $229 forward $87 $-1 #
coedge $-1 $141 $324 $320 $325 forward $87 $-1 #
coedge $-1 $322 $144 $141 $226 forward $231 $-1 #
edge $-1 $233 -2.125210260380789 $326 8.869597047279429 $225 $327 forward 7 unknown #
coedge $-1 $328 $329 $142 $228 forward $220 $-1 #
edge $-1 $330 -85.576111587081982 $232 -80.866111645269356 $227 $331 forward 7 unknown #
edge $-1 $233 114.38903074522668 $330 121.2952055421613 $143 $332 forward 7 unknown #
coedge $-1 $144 $322 $328 $333 forward $231 $-1 #
loop $-1 $-1 $322 $219 #
vertex $-1 $228 $334 #
vertex $-1 $145 $335 #
straight-curve $-1 27.330519186508113 -1.2469831330685315 4.9906056591365058 -1 0 0 I I #
coedge $-1 $235 $235 $-1 $336 reversed $148 $-1 #
edge $-1 $337 0 $337 6.2831853071796004 $149 $338 forward 7 unknown #
vertex $-1 $152 $339 #
ellipse-curve $-1 58.122174546306681 -9.100416924254402 2.6356056882302057 0.68199836817093118 0 0.7313536940579346 0.3656768470289673 0 -0.34099918408546559 1 I I #
coedge $-1 $239 $239 $-1 $340 reversed $155 $-1 #
edge $-1 $341 0 $341 6.2831853071796004 $156 $342 forward 7 unknown #
vertex $-1 $159 $343 #
ellipse-curve $-1 58.122174546306681 -4.3883566495428781 2.6356056882302057 0.68199836817093118 0 0.7313536940579346 0.3656768470289673 0 -0.34099918408546559 1 I I #
face $-1 $-1 $175 $24 $-1 $344 reversed single #
loop $-1 $-1 $259 $160 #
plane-surface $-1 0 24.914250660144738 0 0 -1 0 0 0 -1 forward_v I I I I #
coedge $-1 $345 $257 $260 $346 forward $161 $-1 #
coedge $-1 $263 $163 $164 $251 reversed $101 $-1 #
coedge $-1 $257 $345 $163 $249 reversed $161 $-1 #
edge $-1 $264 -4.9906056591365102 $347 4.9906056591365102 $248 $348 forward 7 unknown #
coedge $-1 $165 $164 $345 $349 forward $65 $-1 #
edge $-1 $255 -60.647602771080656 $347 60.647602771080656 $247 $350 forward 7 unknown #
coedge $-1 $260 $259 $165 $253 reversed $244 $-1 #
edge $-1 $351 -60.647602771080656 $254 60.647602771080656 $252 $352 forward 7 unknown #
vertex $-1 $167 $353 #
vertex $-1 $266 $354 #
straight-curve $-1 60.647602771080656 0 -4.9906056591365102 0 -1 0 I I #
coedge $-1 $246 $248 $168 $258 reversed $161 $-1 #
edge $-1 $261 -24.914250660144738 $264 24.914250660144738 $257 $355 forward 7 unknown #
coedge $-1 $252 $169 $174 $267 forward $244 $-1 #
coedge $-1 $169 $252 $246 $346 reversed $244 $-1 #
vertex $-1 $170 $356 #
straight-curve $-1 0 24.914250660144738 4.9906056591365102 -1 0 0 I I #
coedge $-1 $171 $247 $173 $266 reversed $101 $-1 #
vertex $-1 $258 $357 #
straight-curve $-1 0 -24.914250660144738 4.9906056591365102 1 0 0 I I #
edge $-1 $176 -4.9906056591365102 $255 4.9906056591365102 $173 $358 forward 7 unknown #
edge $-1 $177 -4.9906056591365102 $254 4.9906056591365102 $174 $359 forward 7 unknown #
point $-1 60.647602771080656 -24.914250660144738 4.9906056591365102 #
point $-1 60.647602771080656 24.914250660144738 4.9906056591365102 #
face $-1 $-1 $192 $25 $-1 $360 reversed single #
loop $-1 $-1 $277 $179 #
plane-surface $-1 0 0 4.9906056591365102 0 0 1 1 0 0 forward_v I I I I #
coedge $-1 $361 $182 $187 $282 forward $109 $-1 #
coedge $-1 $182 $361 $362 $363 reversed $109 $-1 #
coedge $-1 $184 $183 $182 $276 reversed $69 $-1 #
edge $-1 $364 -3.2453028295682551 $287 -0.24530282956825511 $182 $365 forward 7 unknown #
coedge $-1 $362 $366 $184 $278 forward $271 $-1 #
edge $-1 $280 -60.647602771080656 $364 60.647602771080656 $277 $367 forward 7 unknown #
coedge $-1 $191 $185 $366 $368 reversed $192 $-1 #
vertex $-1 $186 $369 #
straight-curve $-1 60.647602771080656 -18.607911349959245 1.7453028295682551 0 0 1 I I #
edge $-1 $287 7.7273708474332494 $285 14.033710157618742 $273 $370 forward 7 unknown #
coedge $-1 $371 $188 $191 $289 reversed $180 $-1 #
coedge $-1 $188 $371 $361 $372 forward $180 $-1 #
vertex $-1 $189 $373 #
straight-curve $-1 0 -24.914250660144738 1.9906056591365102 1 0 0 I I #
vertex $-1 $282 $374 #
straight-curve $-1 0 -18.607911349959245 1.9906056591365102 1 0 0 I I #
edge $-1 $375 -4.9906056591365102 $193 -1.9906056591365102 $191 $376 forward 7 unknown #
point $-1 60.647602771080656 -24.914250660144738 1.9906056591365102 #
point $-1 60.647602771080656 -18.607911349959245 1.9906056591365102 #
loop $-1 $-1 $204 $196 #
plane-surface $-1 -60.647602771080656 0 0 1 0 0 0 0 -1 forward_v I I I I #
coedge $-1 $295 $199 $201 $299 reversed $117 $-1 #
coedge $-1 $199 $294 $377 $378 reversed $117 $-1 #
coedge $-1 $207 $202 $199 $297 forward $197 $-1 #
edge $-1 $300 -9.1374533832762594 $379 -2.7072508964485422 $296 $380 forward 7 unknown #
coedge $-1 $201 $200 $303 $381 reversed $73 $-1 #
edge $-1 $382 0 $300 7.6671374531606311 $294 $383 forward 7 unknown #
vertex $-1 $203 $384 #
straight-curve $-1 -54.217400284252946 0.19182281669683121 4.9906056591365093 0 1 0 I I #
coedge $-1 $377 $204 $207 $307 reversed $292 $-1 #
coedge $-1 $204 $377 $298 $381 forward $292 $-1 #
vertex $-1 $205 $385 #
straight-curve $-1 -60.647602771080656 -5.0749935089295786 51.270750809808682 0 0 1 I I #
straight-curve $-1 -60.647602771080656 -5.0749935089295786 0.81478326060791062 -0.83867056331134215 0 -0.54463904215088732 I I #
edge $-1 $379 -5.8422847757169034 $208 5.0749935089295786 $302 $386 forward 7 unknown #
point $-1 -60.647602771080656 -5.0749935089295786 4.9906056591365102 #
point $-1 -54.217400284252939 -5.0749935089295786 4.9906056591365102 #
edge $-1 $387 1 $387 0 $211 $-1 forward 7 unknown #
vertex $-1 $212 $388 #
ellipse-curve $-1 -56.027338782683337 -1.9557711418877233 0.73893362072013169 -0.54463904215088732 0 0.83867056331134215 1.2580058449670133 0 0.81695856322633098 1 I I #
point $-1 -56.174495682699771 -1.9557711418877233 3.719653023098533 #
edge $-1 $389 1 $389 0 $215 $-1 forward 7 unknown #
vertex $-1 $216 $390 #
ellipse-curve $-1 -56.027338782683337 2.7230624086750552 0.73893362072013169 -0.54463904215088732 0 0.83867056331134215 1.2580058449670133 0 0.81695856322633098 1 I I #
point $-1 -56.174495682699771 2.7230624086750552 3.719653023098533 #
plane-surface $-1 0 0 4.9906056591365102 0 0 1 1 0 0 forward_v I I I I #
coedge $-1 $329 $328 $321 $391 forward $220 $-1 #
coedge $-1 $321 $222 $224 $325 reversed $139 $-1 #
coedge $-1 $222 $320 $319 $391 reversed $139 $-1 #
coedge $-1 $230 $225 $222 $323 forward $231 $-1 #
edge $-1 $326 28.266227135024593 $392 33.317083584572543 $322 $393 forward 7 unknown #
coedge $-1 $224 $223 $329 $394 reversed $87 $-1 #
edge $-1 $395 -121.2952055421613 $326 -114.38903074522668 $320 $396 forward 7 unknown #
vertex $-1 $226 $397 #
straight-curve $-1 55.59674632153272 -3.3721933934493205 4.9906056591365058 0 -1 0 I I #
coedge $-1 $319 $227 $230 $333 reversed $220 $-1 #
coedge $-1 $227 $319 $324 $394 forward $220 $-1 #
vertex $-1 $228 $398 #
straight-curve $-1 60.647602771080656 -1.2469831330685315 85.856717304405862 0 0 1 I I #
straight-curve $-1 -28.062093873695474 -1.2469831330685315 83.003737964035579 0.7313536940579346 0 -0.68199836817093118 I I #
edge $-1 $392 -12.241790440728749 $232 -1.2469831330685315 $328 $399 forward 7 unknown #
point $-1 60.647602771080656 -1.2469831330685315 4.9906056591365102 #
point $-1 55.596746321532706 -1.2469831330685315 4.9906056591365058 #
edge $-1 $400 1 $400 0 $235 $-1 forward 7 unknown #
vertex $-1 $236 $401 #
ellipse-curve $-1 57.28008857631724 -9.100416924254402 1.7325790629351412 0.68199836817093118 0 0.7313536940579346 0.3656768470289673 0 -0.34099918408546559 1 I I #
point $-1 58.487851393335639 -9.100416924254402 2.2946065041447277 #
edge $-1 $402 1 $402 0 $239 $-1 forward 7 unknown #
vertex $-1 $240 $403 #
ellipse-curve $-1 57.28008857631724 -4.3883566495428781 1.7325790629351412 0.68199836817093118 0 0.7313536940579346 0.3656768470289673 0 -0.34099918408546559 1 I I #
point $-1 58.487851393335639 -4.3883566495428781 2.2946065041447277 #
plane-surface $-1 60.647602771080656 0 0 -1 0 0 0 0 1 forward_v I I I I #
coedge $-1 $248 $246 $250 $349 reversed $161 $-1 #
edge $-1 $261 -4.9906056591365102 $351 4.9906056591365102 $260 $404 forward 7 unknown #
vertex $-1 $349 $405 #
straight-curve $-1 -60.647602771080656 -24.914250660144738 0 0 0 -1 I I #
edge $-1 $347 -24.914250660144738 $351 24.914250660144738 $345 $406 forward 7 unknown #
straight-curve $-1 0 -24.914250660144738 -4.9906056591365102 -1 0 0 I I #
vertex $-1 $253 $407 #
straight-curve $-1 0 24.914250660144738 -4.9906056591365102 1 0 0 I I #
point $-1 60.647602771080656 24.914250660144738 -4.9906056591365102 #
point $-1 60.647602771080656 -24.914250660144738 -4.9906056591365102 #
straight-curve $-1 -60.647602771080656 0 4.9906056591365102 0 -1 0 I I #
point $-1 -60.647602771080656 24.914250660144738 4.9906056591365102 #
point $-1 -60.647602771080656 -24.914250660144738 4.9906056591365102 #
straight-curve $-1 60.647602771080656 -24.914250660144738 0 0 0 -1 I I #
straight-curve $-1 60.647602771080656 24.914250660144738 0 0 0 -1 I I #
plane-surface $-1 60.647602771080656 0 0 -1 0 0 0 0 1 forward_v I I I I #
coedge $-1 $274 $273 $284 $372 reversed $109 $-1 #
coedge $-1 $408 $277 $274 $363 forward $271 $-1 #
edge $-1 $364 18.607911349959245 $409 24.914250660144738 $274 $410 forward 7 unknown #
vertex $-1 $363 $411 #
straight-curve $-1 -60.647602771080656 -18.607911349959245 1.7453028295682551 0 0 -1 I I #
coedge $-1 $277 $408 $279 $368 forward $271 $-1 #
straight-curve $-1 0 -18.607911349959245 4.9906056591365102 -1 0 0 I I #
edge $-1 $375 -24.914250660144738 $280 -18.607911349959245 $279 $412 forward 7 unknown #
point $-1 60.647602771080656 -18.607911349959245 4.9906056591365102 #
straight-curve $-1 -60.647602771080656 -10.880540502525996 1.9906056591365102 0 -1 0 I I #
coedge $-1 $284 $283 $408 $413 reversed $180 $-1 #
edge $-1 $409 -4.9906056591365102 $285 -1.9906056591365102 $361 $414 forward 7 unknown #
point $-1 -60.647602771080656 -24.914250660144738 1.9906056591365102 #
point $-1 -60.647602771080656 -18.607911349959245 1.9906056591365102 #
vertex $-1 $368 $415 #
straight-curve $-1 60.647602771080656 -24.914250660144738 0 0 0 -1 I I #
coedge $-1 $303 $302 $295 $378 forward $292 $-1 #
edge $-1 $379 46.280145150672169 $382 50.455967549200771 $377 $416 forward 7 unknown #
vertex $-1 $307 $417 #
straight-curve $-1 -63.354853667529198 5.8422847757169034 4.9906056591365129 -1 0 0 I I #
edge $-1 $382 -5.6504619590200722 $304 5.2668163256264098 $303 $418 forward 7 unknown #
vertex $-1 $381 $419 #
straight-curve $-1 -60.647602771080656 5.8422847757169034 0.81478326060791062 0.83867056331134215 0 0.54463904215088732 I I #
point $-1 -54.217400284252939 5.8422847757169034 4.9906056591365102 #
point $-1 -60.647602771080656 -5.0749935089295786 0.81478326060791062 #
straight-curve $-1 -60.647602771080656 0 4.9906056591365102 0 -1 0 I I #
vertex $-1 $310 $420 #
point $-1 -54.769332937716321 -1.9557711418877233 1.5558921839464626 #
vertex $-1 $314 $421 #
point $-1 -54.769332937716321 2.7230624086750552 1.5558921839464626 #
edge $-1 $392 80.866111645269356 $395 85.576111587081982 $319 $422 forward 7 unknown #
vertex $-1 $333 $423 #
straight-curve $-1 27.330519186508113 -12.241790440728749 4.9906056591365058 1 0 0 I I #
edge $-1 $395 -8.869597047279429 $330 2.125210260380789 $329 $424 forward 7 unknown #
vertex $-1 $394 $425 #
straight-curve $-1 -28.062093873695474 -12.241790440728749 83.003737964035579 -0.7313536940579346 0 0.68199836817093118 I I #
point $-1 55.596746321532706 -12.241790440728749 4.9906056591365058 #
point $-1 60.647602771080656 -1.2469831330685315 0.28060571732387984 #
straight-curve $-1 60.647602771080656 0 4.9906056591365102 0 1 0 I I #
vertex $-1 $336 $426 #
point $-1 57.645765423346212 -9.100416924254402 1.3915798788496756 #
vertex $-1 $340 $427 #
point $-1 57.645765423346212 -4.3883566495428781 1.3915798788496756 #
straight-curve $-1 -60.647602771080656 24.914250660144738 0 0 0 -1 I I #
point $-1 -60.647602771080656 -24.914250660144738 -4.9906056591365102 #
straight-curve $-1 -60.647602771080656 0 -4.9906056591365102 0 1 0 I I #
point $-1 -60.647602771080656 24.914250660144738 -4.9906056591365102 #
coedge $-1 $366 $362 $371 $413 forward $271 $-1 #
vertex $-1 $363 $428 #
straight-curve $-1 -60.647602771080656 0 4.9906056591365102 0 -1 0 I I #
point $-1 -60.647602771080656 -18.607911349959245 4.9906056591365102 #
straight-curve $-1 60.647602771080656 0 4.9906056591365102 0 1 0 I I #
edge $-1 $409 -60.647602771080656 $375 60.647602771080656 $371 $429 forward 7 unknown #
straight-curve $-1 -60.647602771080656 -24.914250660144738 0 0 0 -1 I I #
point $-1 60.647602771080656 -24.914250660144738 4.9906056591365102 #
straight-curve $-1 -60.647602771080656 5.8422847757169034 51.270750809808682 0 0 -1 I I #
point $-1 -60.647602771080656 5.8422847757169034 4.9906056591365102 #
straight-curve $-1 -60.647602771080656 0.19182281669683121 0.81478326060791262 0 -1 0 I I #
point $-1 -60.647602771080656 5.8422847757169034 0.81478326060791062 #
point $-1 -55.210380219457001 -1.9557711418877233 -0.51907222424688115 #
point $-1 -55.210380219457001 2.7230624086750552 -0.51907222424688115 #
straight-curve $-1 60.647602771080656 -12.241790440728749 85.856717304405862 0 0 -1 I I #
point $-1 60.647602771080656 -12.241790440728749 4.9906056591365102 #
straight-curve $-1 60.647602771080649 -3.3721933934493205 0.28060571732389405 0 1 0 I I #
point $-1 60.647602771080656 -12.241790440728749 0.28060571732387984 #
point $-1 56.939089392231779 -9.100416924254402 1.3669022159061741 #
point $-1 56.939089392231779 -4.3883566495428781 1.3669022159061741 #
point $-1 -60.647602771080656 -24.914250660144738 4.9906056591365102 #
straight-curve $-1 0 -24.914250660144738 4.9906056591365102 1 0 0 I I #
End-of-ACIS-data 