500 0 4 0           
7 Unknown 11 ACIS 5.0 NT 24 Thu Mar 25 21:11:56 1999 
-1 9.9999999999999995e-007 1e-010 
body $-1 $4 $-1 $5 #
body $-1 $6 $-1 $7 #
body $-1 $8 $-1 $9 #
body $-1 $10 $-1 $11 #
lump $-1 $-1 $12 $0 #
transform $-1 1 0 0 0 1 0 0 0 1 48.587908566545607 32.661863631785948 12.729624185799301 1 rotate no_reflect no_shear #
lump $-1 $-1 $13 $1 #
transform $-1 1 0 0 0 1 0 0 0 1 48.587908566545607 32.661863631785948 12.729624185799301 1 rotate no_reflect no_shear #
lump $-1 $-1 $14 $2 #
transform $-1 1 0 0 0 1 0 0 0 1 48.587908566545607 32.661863631785948 12.729624185799301 1 rotate no_reflect no_shear #
lump $-1 $-1 $15 $3 #
transform $-1 1 0 0 0 1 0 0 0 1 48.587908566545607 32.661863631785948 12.729624185799301 1 rotate no_reflect no_shear #
shell $-1 $-1 $-1 $16 $-1 $4 #
shell $-1 $-1 $-1 $17 $-1 $6 #
shell $-1 $-1 $-1 $18 $-1 $8 #
shell $-1 $-1 $-1 $19 $-1 $10 #
face $-1 $20 $21 $12 $-1 $22 forward single #
face $-1 $23 $24 $13 $-1 $25 forward single #
face $-1 $26 $27 $14 $-1 $28 reversed single #
face $-1 $29 $30 $15 $-1 $31 forward single #
face $-1 $32 $33 $12 $-1 $34 reversed single #
loop $-1 $-1 $35 $16 #
plane-surface $-1 0 0 12.729624185799301 0 0 1 1 0 0 forward_v I I I I #
face $-1 $36 $37 $13 $-1 $38 forward single #
loop $-1 $-1 $39 $17 #
plane-surface $-1 0 -32.661863631785948 0 0 1 0 0 0 1 forward_v I I I I #
face $-1 $40 $41 $14 $-1 $42 reversed single #
loop $-1 $-1 $43 $18 #
plane-surface $-1 -129.15031289821718 1.8944213162732098 56.47052494684683 0 1 0 -0.82903758062907751 0 0.55919289150049634 forward_v I I I I #
face $-1 $44 $45 $15 $-1 $46 forward single #
loop $-1 $47 $48 $19 #
cone-surface $-1 -42.562344548698611 10.018793242096152 5.7768654753544384 0.82903758062907751 0 -0.55919289150049634 0.83878933725074445 0 1.2435563709436162 1 I I 0 1 1.5 forward I I I I #
face $-1 $49 $50 $12 $-1 $51 reversed single #
loop $-1 $-1 $52 $20 #
plane-surface $-1 0 0 -12.729624185799301 0 0 1 1 0 0 forward_v I I I I #
coedge $-1 $53 $54 $55 $56 forward $21 $-1 #
face $-1 $57 $58 $13 $-1 $59 reversed single #
loop $-1 $-1 $60 $23 #
plane-surface $-1 0 0 12.729624185799301 0 0 1 1 0 0 forward_v I I I I #
coedge $-1 $61 $62 $63 $64 forward $24 $-1 #
face $-1 $65 $66 $14 $-1 $67 reversed single #
loop $-1 $-1 $68 $26 #
plane-surface $-1 -48.587908566545579 10.018793242096152 2.1304987802700808 -0.82903758062907751 0 0.55919289150049634 0.55919289150049634 0 0.82903758062907751 forward_v I I I I #
coedge $-1 $69 $70 $71 $72 reversed $27 $-1 #
face $-1 $-1 $73 $15 $-1 $74 forward single #
loop $-1 $75 $76 $29 #
cone-surface $-1 -39.489602412602849 10.018793242096152 3.7042747990488092 0.82903758062907751 0 -0.55919289150049634 0.41939466862537222 0 0.62177818547180808 1 I I -0.70710678118654768 0.70710678118654735 0.75 forward I I I I #
loop $-1 $-1 $77 $19 #
coedge $-1 $48 $48 $78 $79 reversed $30 $-1 #
face $-1 $80 $81 $12 $-1 $82 reversed single #
loop $-1 $-1 $83 $32 #
plane-surface $-1 0 -32.661863631785948 0 0 1 0 0 0 1 forward_v I I I I #
coedge $-1 $84 $85 $86 $87 forward $33 $-1 #
coedge $-1 $88 $35 $89 $90 forward $21 $-1 #
coedge $-1 $35 $88 $91 $92 forward $21 $-1 #
coedge $-1 $93 $94 $35 $56 reversed $95 $-1 #
edge $-1 $96 -32.661863631785948 $97 32.661863631785948 $55 $98 forward 7 unknown #
face $-1 $99 $100 $13 $-1 $101 reversed single #
loop $-1 $-1 $102 $36 #
plane-surface $-1 -48.587908566545607 0 0 1 0 0 0 0 -1 forward_v I I I I #
coedge $-1 $103 $104 $62 $105 forward $37 $-1 #
coedge $-1 $106 $39 $107 $108 reversed $24 $-1 #
coedge $-1 $39 $106 $60 $105 reversed $24 $-1 #
coedge $-1 $109 $110 $39 $64 reversed $111 $-1 #
edge $-1 $112 -12.729624185799301 $113 12.729624185799301 $63 $114 forward 7 unknown #
face $-1 $115 $116 $14 $-1 $117 reversed single #
loop $-1 $-1 $118 $40 #
plane-surface $-1 -129.15031289821718 18.143165167919094 56.47052494684683 0 -1 0 0.82903758062907751 0 -0.55919289150049634 forward_v I I I I #
coedge $-1 $119 $120 $121 $122 reversed $41 $-1 #
coedge $-1 $70 $43 $123 $124 reversed $27 $-1 #
coedge $-1 $43 $69 $119 $125 reversed $27 $-1 #
coedge $-1 $121 $126 $43 $72 forward $127 $-1 #
edge $-1 $128 15.987247882562983 $129 23.136448017009094 $71 $130 forward 7 unknown #
loop $-1 $-1 $78 $44 #
plane-surface $-1 -48.587908566545579 10.018793242096152 2.1304987802700808 -0.82903758062907751 0 0.55919289150049634 0.55919289150049634 0 0.82903758062907751 forward_v I I I I #
loop $-1 $-1 $131 $29 #
coedge $-1 $76 $76 $77 $132 reversed $45 $-1 #
coedge $-1 $77 $77 $76 $132 forward $47 $-1 #
coedge $-1 $78 $78 $48 $79 forward $73 $-1 #
edge $-1 $133 0 $133 6.2831853071796004 $78 $134 forward 7 unknown #
face $-1 $135 $136 $12 $-1 $137 reversed single #
loop $-1 $-1 $138 $49 #
plane-surface $-1 -48.587908566545607 0 0 1 0 0 0 0 -1 forward_v I I I I #
coedge $-1 $139 $91 $140 $141 forward $50 $-1 #
coedge $-1 $142 $52 $139 $143 forward $33 $-1 #
coedge $-1 $52 $142 $144 $145 forward $33 $-1 #
coedge $-1 $94 $93 $52 $87 reversed $95 $-1 #
edge $-1 $146 -32.661863631785948 $147 32.661863631785948 $86 $148 forward 7 unknown #
coedge $-1 $54 $53 $149 $150 forward $21 $-1 #
coedge $-1 $151 $152 $53 $90 reversed $136 $-1 #
edge $-1 $97 -48.587908566545607 $153 48.587908566545607 $89 $154 forward 7 unknown #
coedge $-1 $83 $155 $54 $92 reversed $50 $-1 #
edge $-1 $156 -48.587908566545607 $96 48.587908566545607 $91 $157 forward 7 unknown #
coedge $-1 $86 $55 $155 $158 forward $95 $-1 #
coedge $-1 $55 $86 $151 $159 reversed $95 $-1 #
loop $-1 $-1 $93 $135 #
vertex $-1 $56 $160 #
vertex $-1 $56 $161 #
straight-curve $-1 48.587908566545607 0 12.729624185799301 0 1 0 I I #
face $-1 $162 $111 $13 $-1 $163 reversed single #
loop $-1 $-1 $164 $57 #
plane-surface $-1 -45.879789506613712 -42.544654819490532 0 0 1 0 0 0 1 forward_v I I I I #
coedge $-1 $165 $166 $106 $167 forward $58 $-1 #
coedge $-1 $168 $60 $166 $169 forward $37 $-1 #
coedge $-1 $60 $168 $109 $170 forward $37 $-1 #
edge $-1 $112 43.171670446681816 $171 48.587908566545607 $60 $172 forward 7 unknown #
coedge $-1 $62 $61 $102 $167 reversed $24 $-1 #
coedge $-1 $173 $174 $61 $108 forward $175 $-1 #
edge $-1 $176 -48.587908566545607 $113 -43.171670446681816 $107 $177 forward 7 unknown #
coedge $-1 $178 $63 $104 $170 reversed $111 $-1 #
coedge $-1 $63 $178 $173 $179 reversed $111 $-1 #
loop $-1 $-1 $178 $99 #
vertex $-1 $105 $180 #
vertex $-1 $179 $181 #
straight-curve $-1 -43.171670446681816 -32.661863631785948 0 0 0 -1 I I #
face $-1 $-1 $127 $14 $-1 $182 forward single #
loop $-1 $-1 $183 $65 #
plane-surface $-1 -48.587908566545607 0 0 1 0 0 0 0 -1 forward_v I I I I #
coedge $-1 $184 $185 $186 $187 reversed $66 $-1 #
coedge $-1 $188 $68 $70 $125 forward $41 $-1 #
coedge $-1 $68 $188 $184 $189 forward $41 $-1 #
coedge $-1 $186 $71 $68 $122 forward $127 $-1 #
edge $-1 $129 -3.1149753047748661 $190 13.133768546871018 $121 $191 forward 7 unknown #
coedge $-1 $192 $193 $69 $124 forward $116 $-1 #
edge $-1 $194 -26.104763693153377 $128 -15.505638287624114 $123 $195 forward 7 unknown #
edge $-1 $129 -12.784855178080777 $194 5.0869049068944123e-014 $70 $196 forward 7 unknown #
coedge $-1 $71 $186 $192 $197 forward $127 $-1 #
loop $-1 $-1 $186 $115 #
vertex $-1 $124 $198 #
vertex $-1 $72 $199 #
straight-curve $-1 -64.57515644910859 1.8944213162732098 12.729624185799302 1 0 0 I I #
coedge $-1 $131 $131 $-1 $200 reversed $75 $-1 #
edge $-1 $201 0 $201 6.2831853071796004 $76 $202 forward 7 unknown #
vertex $-1 $79 $203 #
ellipse-curve $-1 -45.013308499322548 10.018793242096152 7.4300614830346801 -0.82903758062907751 0 0.55919289150049634 0.83878933725074445 0 1.2435563709436162 1 I I #
face $-1 $-1 $95 $12 $-1 $204 reversed single #
loop $-1 $-1 $151 $80 #
plane-surface $-1 0 32.661863631785948 0 0 -1 0 0 0 -1 forward_v I I I I #
coedge $-1 $205 $149 $152 $206 forward $81 $-1 #
coedge $-1 $155 $83 $84 $143 reversed $50 $-1 #
coedge $-1 $149 $205 $83 $141 reversed $81 $-1 #
edge $-1 $156 -12.729624185799301 $207 12.729624185799301 $140 $208 forward 7 unknown #
coedge $-1 $85 $84 $205 $209 forward $33 $-1 #
edge $-1 $147 -48.587908566545607 $207 48.587908566545607 $139 $210 forward 7 unknown #
coedge $-1 $152 $151 $85 $145 reversed $136 $-1 #
edge $-1 $211 -48.587908566545607 $146 48.587908566545607 $144 $212 forward 7 unknown #
vertex $-1 $87 $213 #
vertex $-1 $158 $214 #
straight-curve $-1 48.587908566545607 0 -12.729624185799301 0 -1 0 I I #
coedge $-1 $138 $140 $88 $150 reversed $81 $-1 #
edge $-1 $153 -32.661863631785948 $156 32.661863631785948 $149 $215 forward 7 unknown #
coedge $-1 $144 $89 $94 $159 forward $136 $-1 #
coedge $-1 $89 $144 $138 $206 reversed $136 $-1 #
vertex $-1 $90 $216 #
straight-curve $-1 0 32.661863631785948 12.729624185799301 -1 0 0 I I #
coedge $-1 $91 $139 $93 $158 reversed $50 $-1 #
vertex $-1 $150 $217 #
straight-curve $-1 0 -32.661863631785948 12.729624185799301 1 0 0 I I #
edge $-1 $96 -12.729624185799301 $147 12.729624185799301 $93 $218 forward 7 unknown #
edge $-1 $97 -12.729624185799301 $146 12.729624185799301 $94 $219 forward 7 unknown #
point $-1 48.587908566545607 -32.661863631785948 12.729624185799301 #
point $-1 48.587908566545607 32.661863631785948 12.729624185799301 #
face $-1 $-1 $175 $13 $-1 $220 reversed single #
plane-surface $-1 -43.171670446681816 -37.60325922563824 0 -1 0 0 0 0 1 forward_v I I I I #
coedge $-1 $221 $222 $223 $224 forward $100 $-1 #
coedge $-1 $223 $102 $174 $225 reversed $58 $-1 #
coedge $-1 $102 $223 $103 $169 reversed $58 $-1 #
edge $-1 $171 -12.729624185799301 $176 12.729624185799301 $102 $226 forward 7 unknown #
coedge $-1 $104 $103 $222 $227 forward $37 $-1 #
edge $-1 $171 32.661863631785948 $228 42.544654819490532 $166 $229 forward 7 unknown #
edge $-1 $230 -4.9413955938522918 $112 4.9413955938522918 $109 $231 forward 7 unknown #
vertex $-1 $169 $232 #
straight-curve $-1 0 -32.661863631785948 12.729624185799301 -1 0 0 I I #
coedge $-1 $233 $107 $110 $179 forward $175 $-1 #
coedge $-1 $107 $233 $165 $225 forward $175 $-1 #
loop $-1 $-1 $107 $162 #
vertex $-1 $167 $234 #
straight-curve $-1 0 -32.661863631785948 -12.729624185799301 1 0 0 I I #
coedge $-1 $110 $109 $235 $236 forward $111 $-1 #
edge $-1 $113 -4.9413955938522918 $237 4.9413955938522918 $110 $238 forward 7 unknown #
point $-1 -43.171670446681816 -32.661863631785948 12.729624185799301 #
point $-1 -43.171670446681816 -32.661863631785948 -12.729624185799301 #
plane-surface $-1 0 0 12.729624185799301 0 0 1 1 0 0 forward_v I I I I #
coedge $-1 $193 $192 $185 $239 forward $116 $-1 #
coedge $-1 $185 $118 $120 $189 reversed $66 $-1 #
coedge $-1 $118 $184 $183 $239 reversed $66 $-1 #
coedge $-1 $126 $121 $118 $187 forward $127 $-1 #
edge $-1 $190 -23.136448017009094 $240 -15.987247882562983 $186 $241 forward 7 unknown #
coedge $-1 $120 $119 $193 $242 reversed $41 $-1 #
edge $-1 $243 -5.0869049068944123e-014 $190 12.784855178080777 $184 $244 forward 7 unknown #
vertex $-1 $122 $245 #
straight-curve $-1 -41.438708432099503 5.0093966210480758 12.729624185799301 0 1 0 I I #
coedge $-1 $183 $123 $126 $197 reversed $116 $-1 #
coedge $-1 $123 $183 $188 $242 forward $116 $-1 #
vertex $-1 $124 $246 #
straight-curve $-1 -48.587908566545607 1.8944213162732098 28.235262473423415 0 0 1 I I #
straight-curve $-1 -48.587908566545579 1.8944213162732098 2.1304987802700808 -0.55919289150049634 0 -0.82903758062907751 I I #
edge $-1 $240 -18.143165167919094 $128 -1.8944213162732098 $192 $247 forward 7 unknown #
point $-1 -48.587908566545607 1.8944213162732098 12.729624185799301 #
point $-1 -41.438708432099496 1.8944213162732098 12.729624185799301 #
edge $-1 $248 1 $248 0 $131 $-1 forward 7 unknown #
vertex $-1 $132 $249 #
ellipse-curve $-1 -40.11138059807466 10.018793242096152 4.1236694676741816 -0.82903758062907751 0 0.55919289150049634 0.83878933725074445 0 1.2435563709436162 1 I I #
point $-1 -44.174519162071824 10.018793242096152 8.6736178539783104 #
plane-surface $-1 48.587908566545607 0 0 -1 0 0 0 0 1 forward_v I I I I #
coedge $-1 $140 $138 $142 $209 reversed $81 $-1 #
edge $-1 $153 -12.729624185799301 $211 12.729624185799301 $152 $250 forward 7 unknown #
vertex $-1 $209 $251 #
straight-curve $-1 -48.587908566545607 -32.661863631785948 0 0 0 -1 I I #
edge $-1 $207 -32.661863631785948 $211 32.661863631785948 $205 $252 forward 7 unknown #
straight-curve $-1 0 -32.661863631785948 -12.729624185799301 -1 0 0 I I #
vertex $-1 $145 $253 #
straight-curve $-1 0 32.661863631785948 -12.729624185799301 1 0 0 I I #
point $-1 48.587908566545607 32.661863631785948 -12.729624185799301 #
point $-1 48.587908566545607 -32.661863631785948 -12.729624185799301 #
straight-curve $-1 -48.587908566545607 0 12.729624185799301 0 -1 0 I I #
point $-1 -48.587908566545607 32.661863631785948 12.729624185799301 #
point $-1 -48.587908566545607 -32.661863631785948 12.729624185799301 #
straight-curve $-1 48.587908566545607 -32.661863631785948 0 0 0 -1 I I #
straight-curve $-1 48.587908566545607 32.661863631785948 0 0 0 -1 I I #
plane-surface $-1 0 0 -12.729624185799301 0 0 1 1 0 0 forward_v I I I I #
coedge $-1 $235 $164 $233 $254 reversed $100 $-1 #
coedge $-1 $164 $235 $168 $227 reversed $100 $-1 #
coedge $-1 $166 $165 $164 $224 reversed $58 $-1 #
edge $-1 $228 -12.729624185799301 $255 12.729624185799301 $223 $256 forward 7 unknown #
edge $-1 $255 -42.544654819490532 $176 -32.661863631785948 $165 $257 forward 7 unknown #
straight-curve $-1 -48.587908566545607 -32.661863631785948 0 0 0 -1 I I #
edge $-1 $228 -2.7081190599318958 $230 2.7081190599318958 $222 $258 forward 7 unknown #
vertex $-1 $169 $259 #
straight-curve $-1 -48.587908566545607 0 12.729624185799301 0 -1 0 I I #
vertex $-1 $170 $260 #
straight-curve $-1 -43.171670446681816 -37.60325922563824 12.729624185799301 0 1 0 I I #
point $-1 -48.587908566545607 -32.661863631785948 12.729624185799301 #
coedge $-1 $174 $173 $221 $254 forward $175 $-1 #
point $-1 -48.587908566545607 -32.661863631785948 -12.729624185799301 #
coedge $-1 $222 $221 $178 $236 reversed $100 $-1 #
edge $-1 $230 -12.729624185799301 $237 12.729624185799301 $178 $261 forward 7 unknown #
vertex $-1 $236 $262 #
straight-curve $-1 -43.171670446681816 -37.60325922563824 -12.729624185799301 0 -1 0 I I #
edge $-1 $240 15.505638287624114 $243 26.104763693153377 $183 $263 forward 7 unknown #
vertex $-1 $197 $264 #
straight-curve $-1 -64.57515644910859 18.143165167919094 12.729624185799302 -1 0 0 I I #
edge $-1 $243 -13.133768546871018 $194 3.1149753047748661 $193 $265 forward 7 unknown #
vertex $-1 $242 $266 #
straight-curve $-1 -48.587908566545579 18.143165167919094 2.1304987802700808 0.55919289150049634 0 0.82903758062907751 I I #
point $-1 -41.438708432099496 18.143165167919094 12.729624185799301 #
point $-1 -48.587908566545607 1.8944213162732098 2.1304987802700386 #
straight-curve $-1 -48.587908566545607 0 12.729624185799301 0 -1 0 I I #
vertex $-1 $200 $267 #
point $-1 -39.272591260823916 10.018793242096152 5.3672258386177969 #
straight-curve $-1 -48.587908566545607 32.661863631785948 0 0 0 -1 I I #
point $-1 -48.587908566545607 -32.661863631785948 -12.729624185799301 #
straight-curve $-1 -48.587908566545607 0 -12.729624185799301 0 1 0 I I #
point $-1 -48.587908566545607 32.661863631785948 -12.729624185799301 #
edge $-1 $237 -2.7081190599318958 $255 2.7081190599318958 $221 $268 forward 7 unknown #
vertex $-1 $225 $269 #
straight-curve $-1 -48.587908566545607 -42.544654819490532 0 0 0 -1 I I #
straight-curve $-1 -48.587908566545607 0 -12.729624185799301 0 1 0 I I #
straight-curve $-1 -45.879789506613712 -42.544654819490532 12.729624185799301 1 0 0 I I #
point $-1 -48.587908566545607 -42.544654819490532 12.729624185799301 #
point $-1 -43.171670446681816 -42.544654819490532 12.729624185799301 #
straight-curve $-1 -43.171670446681816 -42.544654819490532 0 0 0 -1 I I #
point $-1 -43.171670446681816 -42.544654819490532 -12.729624185799301 #
straight-curve $-1 -48.587908566545607 18.143165167919094 28.235262473423415 0 0 -1 I I #
point $-1 -48.587908566545607 18.143165167919094 12.729624185799301 #
straight-curve $-1 -48.587908566545607 5.0093966210480758 2.1304987802700381 0 -1 0 I I #
point $-1 -48.587908566545607 18.143165167919094 2.1304987802700386 #
point $-1 -38.867824227131038 10.018793242096152 3.2848801304234372 #
straight-curve $-1 -45.879789506613712 -42.544654819490532 -12.729624185799301 -1 0 0 I I #
point $-1 -48.587908566545607 -42.544654819490532 -12.729624185799301 #
End-of-ACIS-data 