500 0 3 0           
7 Unknown 11 ACIS 5.0 NT 24 Fri Mar 26 02:14:39 1999 
-1 9.9999999999999995e-007 1e-010 
body $-1 $3 $-1 $4 #
body $-1 $5 $-1 $6 #
body $-1 $7 $-1 $8 #
lump $-1 $-1 $9 $0 #
transform $-1 1 0 0 0 1 0 0 0 1 53.734550004577777 34.561514180928327 11.963787675057151 1 rotate no_reflect no_shear #
lump $-1 $-1 $10 $1 #
transform $-1 1 0 0 0 1 0 0 0 1 53.734550004577777 34.561514180928327 11.963787675057151 1 rotate no_reflect no_shear #
lump $-1 $-1 $11 $2 #
transform $-1 1 0 0 0 1 0 0 0 1 53.734550004577777 34.561514180928327 11.963787675057151 1 rotate no_reflect no_shear #
shell $-1 $-1 $-1 $12 $-1 $3 #
shell $-1 $-1 $-1 $13 $-1 $5 #
shell $-1 $-1 $-1 $14 $-1 $7 #
face $-1 $15 $16 $9 $-1 $17 forward single #
face $-1 $18 $19 $10 $-1 $20 forward single #
face $-1 $21 $22 $11 $-1 $23 reversed single #
face $-1 $24 $25 $9 $-1 $26 reversed single #
loop $-1 $-1 $27 $12 #
plane-surface $-1 0 0 11.963787675057151 0 0 1 1 0 0 forward_v I I I I #
face $-1 $28 $29 $10 $-1 $30 reversed single #
loop $-1 $-1 $31 $13 #
plane-surface $-1 -53.734550004577777 0 0 1 0 0 0 0 -1 forward_v I I I I #
face $-1 $32 $33 $11 $-1 $34 reversed single #
loop $-1 $-1 $35 $14 #
plane-surface $-1 47.687468183666375 0 6.3067384035400629 0 0 1 1 0 0 forward_v I I I I #
face $-1 $36 $37 $9 $-1 $38 reversed single #
loop $-1 $-1 $39 $15 #
plane-surface $-1 0 0 -11.963787675057151 0 0 1 1 0 0 forward_v I I I I #
coedge $-1 $40 $41 $42 $43 forward $16 $-1 #
face $-1 $44 $45 $10 $-1 $46 forward single #
loop $-1 $-1 $47 $18 #
plane-surface $-1 0 34.561514180928327 0 0 -1 0 0 0 -1 forward_v I I I I #
coedge $-1 $48 $49 $50 $51 forward $19 $-1 #
face $-1 $52 $53 $11 $-1 $54 reversed single #
loop $-1 $-1 $55 $21 #
plane-surface $-1 41.640386362754981 0 9.1352630392986072 1 0 0 0 0 -1 forward_v I I I I #
coedge $-1 $56 $57 $58 $59 reversed $22 $-1 #
face $-1 $60 $61 $9 $-1 $62 reversed single #
loop $-1 $-1 $63 $24 #
plane-surface $-1 0 -34.561514180928327 0 0 1 0 0 0 1 forward_v I I I I #
coedge $-1 $64 $65 $66 $67 forward $25 $-1 #
coedge $-1 $68 $27 $69 $70 forward $16 $-1 #
coedge $-1 $27 $68 $71 $72 forward $16 $-1 #
coedge $-1 $73 $74 $27 $43 reversed $75 $-1 #
edge $-1 $76 -34.561514180928327 $77 34.561514180928327 $42 $78 forward 7 unknown #
face $-1 $79 $80 $10 $-1 $81 reversed single #
loop $-1 $-1 $50 $28 #
plane-surface $-1 -57.9880385365339 0 0.44186588010111549 0 0 1 1 0 0 forward_v I I I I #
coedge $-1 $82 $83 $49 $84 forward $29 $-1 #
coedge $-1 $85 $31 $86 $87 reversed $19 $-1 #
coedge $-1 $31 $85 $47 $84 reversed $19 $-1 #
coedge $-1 $88 $89 $31 $51 reversed $45 $-1 #
edge $-1 $90 -34.561514180928327 $91 34.561514180928327 $50 $92 forward 7 unknown #
face $-1 $93 $94 $11 $-1 $95 reversed single #
loop $-1 $-1 $96 $32 #
plane-surface $-1 0 -34.561514180928327 0 0 1 0 0 0 1 forward_v I I I I #
coedge $-1 $97 $98 $99 $100 reversed $33 $-1 #
coedge $-1 $101 $35 $102 $103 reversed $22 $-1 #
coedge $-1 $35 $101 $104 $105 reversed $22 $-1 #
coedge $-1 $106 $107 $35 $59 forward $94 $-1 #
edge $-1 $108 -34.561514180928327 $109 34.561514180928327 $58 $110 forward 7 unknown #
face $-1 $111 $112 $9 $-1 $113 reversed single #
loop $-1 $-1 $114 $36 #
plane-surface $-1 -53.734550004577777 0 0 1 0 0 0 0 -1 forward_v I I I I #
coedge $-1 $115 $71 $114 $116 forward $37 $-1 #
coedge $-1 $117 $39 $115 $118 forward $25 $-1 #
coedge $-1 $39 $117 $119 $120 forward $25 $-1 #
coedge $-1 $74 $73 $39 $67 reversed $75 $-1 #
edge $-1 $121 -34.561514180928327 $122 34.561514180928327 $66 $123 forward 7 unknown #
coedge $-1 $41 $40 $124 $125 forward $16 $-1 #
coedge $-1 $126 $127 $40 $70 reversed $112 $-1 #
edge $-1 $77 -53.734550004577777 $128 53.734550004577777 $69 $129 forward 7 unknown #
coedge $-1 $63 $130 $41 $72 reversed $37 $-1 #
edge $-1 $131 -53.734550004577777 $76 53.734550004577777 $71 $132 forward 7 unknown #
coedge $-1 $66 $42 $130 $133 forward $75 $-1 #
coedge $-1 $42 $66 $126 $134 reversed $75 $-1 #
loop $-1 $-1 $73 $111 #
vertex $-1 $43 $135 #
vertex $-1 $43 $136 #
straight-curve $-1 53.734550004577777 0 11.963787675057151 0 1 0 I I #
face $-1 $137 $138 $10 $-1 $139 reversed single #
loop $-1 $-1 $140 $44 #
plane-surface $-1 -57.9880385365339 0 -6.5564770833343644 0 0 1 1 0 0 forward_v I I I I #
coedge $-1 $141 $47 $142 $143 reversed $29 $-1 #
coedge $-1 $47 $141 $88 $144 reversed $29 $-1 #
edge $-1 $90 -0.44186588010111549 $145 6.5564770833343644 $47 $146 forward 7 unknown #
coedge $-1 $49 $48 $140 $147 forward $19 $-1 #
coedge $-1 $148 $149 $48 $87 forward $150 $-1 #
edge $-1 $151 -6.5564770833343644 $91 0.44186588010111549 $86 $152 forward 7 unknown #
coedge $-1 $153 $50 $83 $144 forward $45 $-1 #
coedge $-1 $50 $153 $148 $154 forward $45 $-1 #
vertex $-1 $84 $155 #
vertex $-1 $154 $156 #
straight-curve $-1 -53.734550004577777 0 0.44186588010111549 0 -1 0 I I #
face $-1 $157 $158 $11 $-1 $159 forward single #
loop $-1 $-1 $58 $52 #
plane-surface $-1 53.734550004577777 0 0 -1 0 0 0 0 1 forward_v I I I I #
coedge $-1 $102 $160 $161 $162 forward $53 $-1 #
coedge $-1 $161 $55 $101 $163 reversed $33 $-1 #
coedge $-1 $55 $161 $164 $165 reversed $33 $-1 #
coedge $-1 $166 $104 $55 $100 forward $167 $-1 #
edge $-1 $168 1.7391068838907593 $169 7.3961561554078479 $99 $170 forward 7 unknown #
coedge $-1 $57 $56 $97 $163 forward $22 $-1 #
coedge $-1 $171 $96 $56 $103 forward $53 $-1 #
edge $-1 $172 17.796652270921793 $108 29.890815912744582 $102 $173 forward 7 unknown #
coedge $-1 $99 $174 $57 $105 forward $167 $-1 #
edge $-1 $109 -29.890815912744582 $168 -17.796652270921793 $104 $175 forward 7 unknown #
coedge $-1 $176 $58 $174 $177 reversed $94 $-1 #
coedge $-1 $58 $176 $171 $178 forward $94 $-1 #
vertex $-1 $59 $179 #
vertex $-1 $59 $180 #
straight-curve $-1 53.734550004577777 0 6.3067384035400629 0 1 0 I I #
face $-1 $-1 $75 $9 $-1 $181 reversed single #
loop $-1 $-1 $126 $60 #
plane-surface $-1 0 34.561514180928327 0 0 -1 0 0 0 -1 forward_v I I I I #
coedge $-1 $124 $182 $63 $116 reversed $61 $-1 #
coedge $-1 $130 $63 $64 $118 reversed $37 $-1 #
edge $-1 $131 -11.963787675057151 $183 11.963787675057151 $114 $184 forward 7 unknown #
coedge $-1 $65 $64 $182 $185 forward $25 $-1 #
edge $-1 $122 -53.734550004577777 $183 53.734550004577777 $115 $186 forward 7 unknown #
coedge $-1 $127 $126 $65 $120 reversed $112 $-1 #
edge $-1 $187 -53.734550004577777 $121 53.734550004577777 $119 $188 forward 7 unknown #
vertex $-1 $67 $189 #
vertex $-1 $133 $190 #
straight-curve $-1 53.734550004577777 0 -11.963787675057151 0 -1 0 I I #
coedge $-1 $191 $114 $68 $125 reversed $61 $-1 #
edge $-1 $128 -34.561514180928327 $131 34.561514180928327 $124 $192 forward 7 unknown #
coedge $-1 $119 $69 $74 $134 forward $112 $-1 #
coedge $-1 $69 $119 $191 $193 reversed $112 $-1 #
vertex $-1 $70 $194 #
straight-curve $-1 0 34.561514180928327 11.963787675057151 -1 0 0 I I #
coedge $-1 $71 $115 $73 $133 reversed $37 $-1 #
vertex $-1 $125 $195 #
straight-curve $-1 0 -34.561514180928327 11.963787675057151 1 0 0 I I #
edge $-1 $76 -11.963787675057151 $122 11.963787675057151 $73 $196 forward 7 unknown #
edge $-1 $77 -11.963787675057151 $121 11.963787675057151 $74 $197 forward 7 unknown #
point $-1 53.734550004577777 -34.561514180928327 11.963787675057151 #
point $-1 53.734550004577777 34.561514180928327 11.963787675057151 #
face $-1 $-1 $150 $10 $-1 $198 reversed single #
loop $-1 $-1 $199 $79 #
plane-surface $-1 -62.241527068490022 0 -3.0573056016166245 1 0 0 0 0 -1 forward_v I I I I #
coedge $-1 $200 $142 $85 $147 reversed $80 $-1 #
coedge $-1 $83 $82 $199 $201 reversed $29 $-1 #
coedge $-1 $140 $202 $82 $143 forward $80 $-1 #
edge $-1 $203 -4.2534885319561226 $145 4.2534885319561226 $82 $204 forward 7 unknown #
edge $-1 $90 -4.2534885319561226 $205 4.2534885319561226 $83 $206 forward 7 unknown #
vertex $-1 $84 $207 #
straight-curve $-1 -53.734550004577777 34.561514180928327 0 0 0 -1 I I #
edge $-1 $151 -34.561514180928327 $145 34.561514180928327 $140 $208 forward 7 unknown #
coedge $-1 $209 $86 $89 $154 reversed $150 $-1 #
coedge $-1 $86 $209 $200 $210 reversed $150 $-1 #
loop $-1 $-1 $86 $137 #
vertex $-1 $87 $211 #
straight-curve $-1 -53.734550004577777 -34.561514180928327 0 0 0 1 I I #
coedge $-1 $89 $88 $212 $213 forward $45 $-1 #
edge $-1 $214 -4.2534885319561226 $91 4.2534885319561226 $148 $215 forward 7 unknown #
point $-1 -53.734550004577777 34.561514180928327 0.44186588010111549 #
point $-1 -53.734550004577777 -34.561514180928327 0.44186588010111549 #
face $-1 $-1 $167 $11 $-1 $216 reversed single #
loop $-1 $-1 $164 $93 #
plane-surface $-1 0 0 11.963787675057151 0 0 1 1 0 0 forward_v I I I I #
coedge $-1 $96 $171 $217 $218 reversed $53 $-1 #
coedge $-1 $98 $97 $96 $162 reversed $33 $-1 #
edge $-1 $219 -7.3961561554078479 $172 -1.7391068838907593 $96 $220 forward 7 unknown #
edge $-1 $172 -34.561514180928327 $168 34.561514180928327 $97 $221 forward 7 unknown #
coedge $-1 $217 $222 $98 $165 forward $158 $-1 #
edge $-1 $169 -34.561514180928327 $219 34.561514180928327 $164 $223 forward 7 unknown #
coedge $-1 $174 $99 $222 $224 reversed $167 $-1 #
loop $-1 $-1 $99 $157 #
vertex $-1 $105 $225 #
vertex $-1 $100 $226 #
straight-curve $-1 41.640386362754981 34.561514180928327 4.5676315196493036 0 0 1 I I #
coedge $-1 $160 $102 $107 $178 reversed $53 $-1 #
vertex $-1 $103 $227 #
straight-curve $-1 23.843734091833188 -34.561514180928327 6.3067384035400629 1 0 0 I I #
coedge $-1 $104 $166 $106 $177 forward $167 $-1 #
straight-curve $-1 23.843734091833188 34.561514180928327 6.3067384035400629 -1 0 0 I I #
coedge $-1 $107 $106 $228 $229 reversed $94 $-1 #
edge $-1 $230 -11.963787675057151 $109 -6.3067384035400629 $106 $231 forward 7 unknown #
edge $-1 $232 -11.963787675057151 $108 -6.3067384035400629 $107 $233 forward 7 unknown #
point $-1 53.73455000457777 -34.561514180928327 6.3067384035400629 #
point $-1 53.73455000457777 34.561514180928327 6.3067384035400629 #
plane-surface $-1 53.734550004577777 0 0 -1 0 0 0 0 1 forward_v I I I I #
coedge $-1 $114 $191 $117 $185 reversed $61 $-1 #
vertex $-1 $185 $234 #
straight-curve $-1 -53.734550004577777 -34.561514180928327 0 0 0 -1 I I #
edge $-1 $183 -34.561514180928327 $187 34.561514180928327 $182 $235 forward 7 unknown #
straight-curve $-1 0 -34.561514180928327 -11.963787675057151 -1 0 0 I I #
vertex $-1 $120 $236 #
straight-curve $-1 0 34.561514180928327 -11.963787675057151 1 0 0 I I #
point $-1 53.734550004577777 34.561514180928327 -11.963787675057151 #
point $-1 53.734550004577777 -34.561514180928327 -11.963787675057151 #
coedge $-1 $182 $124 $127 $193 forward $61 $-1 #
straight-curve $-1 -53.734550004577777 0 11.963787675057151 0 -1 0 I I #
edge $-1 $128 -11.963787675057151 $187 11.963787675057151 $127 $237 forward 7 unknown #
point $-1 -53.734550004577777 34.561514180928327 11.963787675057151 #
point $-1 -53.734550004577777 -34.561514180928327 11.963787675057151 #
straight-curve $-1 53.734550004577777 -34.561514180928327 0 0 0 -1 I I #
straight-curve $-1 53.734550004577777 34.561514180928327 0 0 0 -1 I I #
plane-surface $-1 0 -34.561514180928327 0 0 1 0 0 0 1 forward_v I I I I #
coedge $-1 $238 $212 $141 $201 forward $138 $-1 #
coedge $-1 $202 $140 $149 $210 forward $80 $-1 #
edge $-1 $205 -3.49917148171774 $203 3.49917148171774 $141 $239 forward 7 unknown #
coedge $-1 $142 $200 $238 $240 forward $80 $-1 #
vertex $-1 $143 $241 #
straight-curve $-1 -57.9880385365339 34.561514180928327 -6.5564770833343644 1 0 0 I I #
vertex $-1 $144 $242 #
straight-curve $-1 -57.9880385365339 34.561514180928327 0.44186588010111549 -1 0 0 I I #
point $-1 -53.734550004577777 34.561514180928327 -6.5564770833343644 #
straight-curve $-1 -53.734550004577777 0 -6.5564770833343644 0 1 0 I I #
coedge $-1 $149 $148 $243 $244 forward $150 $-1 #
edge $-1 $151 -4.2534885319561226 $245 4.2534885319561226 $149 $246 forward 7 unknown #
point $-1 -53.734550004577777 -34.561514180928327 -6.5564770833343644 #
coedge $-1 $199 $243 $153 $213 reversed $138 $-1 #
edge $-1 $205 -34.561514180928327 $214 34.561514180928327 $212 $247 forward 7 unknown #
vertex $-1 $213 $248 #
straight-curve $-1 -57.9880385365339 -34.561514180928327 0.44186588010111549 1 0 0 I I #
plane-surface $-1 0 34.561514180928327 0 0 -1 0 0 0 -1 forward_v I I I I #
coedge $-1 $228 $164 $160 $218 forward $158 $-1 #
edge $-1 $219 41.640386362754981 $232 53.734550004577777 $160 $249 forward 7 unknown #
vertex $-1 $218 $250 #
straight-curve $-1 41.640386362754981 -34.561514180928327 4.5676315196493036 0 0 -1 I I #
straight-curve $-1 41.640386362754981 0 6.3067384035400629 0 1 0 I I #
coedge $-1 $164 $228 $166 $224 forward $158 $-1 #
straight-curve $-1 41.640386362754981 0 11.963787675057151 0 -1 0 I I #
edge $-1 $230 -53.734550004577777 $169 -41.640386362754981 $166 $251 forward 7 unknown #
point $-1 41.640386362754981 34.561514180928327 6.3067384035400629 #
point $-1 41.640386362754981 34.561514180928327 11.963787675057151 #
point $-1 41.640386362754981 -34.561514180928327 6.3067384035400629 #
coedge $-1 $222 $217 $176 $229 forward $158 $-1 #
edge $-1 $232 -34.561514180928327 $230 34.561514180928327 $176 $252 forward 7 unknown #
vertex $-1 $229 $253 #
straight-curve $-1 53.734550004577777 34.561514180928327 0 0 0 -1 I I #
vertex $-1 $229 $254 #
straight-curve $-1 53.734550004577777 -34.561514180928327 0 0 0 -1 I I #
point $-1 -53.734550004577777 -34.561514180928327 -11.963787675057151 #
straight-curve $-1 -53.734550004577777 0 -11.963787675057151 0 1 0 I I #
point $-1 -53.734550004577777 34.561514180928327 -11.963787675057151 #
straight-curve $-1 -53.734550004577777 34.561514180928327 0 0 0 -1 I I #
coedge $-1 $243 $199 $202 $240 reversed $138 $-1 #
straight-curve $-1 -62.241527068490022 34.561514180928327 -3.0573056016166245 0 0 -1 I I #
edge $-1 $245 -34.561514180928327 $203 34.561514180928327 $238 $255 forward 7 unknown #
point $-1 -62.241527068490022 34.561514180928327 -6.5564770833343644 #
point $-1 -62.241527068490022 34.561514180928327 0.44186588010111549 #
coedge $-1 $212 $238 $209 $244 reversed $138 $-1 #
edge $-1 $214 -3.49917148171774 $245 3.49917148171774 $243 $256 forward 7 unknown #
vertex $-1 $240 $257 #
straight-curve $-1 -57.9880385365339 -34.561514180928327 -6.5564770833343644 -1 0 0 I I #
straight-curve $-1 -62.241527068490022 0 0.44186588010111549 0 -1 0 I I #
point $-1 -62.241527068490022 -34.561514180928327 0.44186588010111549 #
straight-curve $-1 0 -34.561514180928327 11.963787675057151 1 0 0 I I #
point $-1 41.640386362754981 -34.561514180928327 11.963787675057151 #
straight-curve $-1 0 34.561514180928327 11.963787675057151 -1 0 0 I I #
straight-curve $-1 53.734550004577777 0 11.963787675057151 0 1 0 I I #
point $-1 53.734550004577777 34.561514180928327 11.963787675057151 #
point $-1 53.734550004577777 -34.561514180928327 11.963787675057151 #
straight-curve $-1 -62.241527068490022 0 -6.5564770833343644 0 1 0 I I #
straight-curve $-1 -62.241527068490022 -34.561514180928327 -3.0573056016166245 0 0 -1 I I #
point $-1 -62.241527068490022 -34.561514180928327 -6.5564770833343644 #
End-of-ACIS-data 