500 0 8 0           
7 Unknown 11 ACIS 5.0 NT 24 Fri Mar 26 20:28:25 1999 
-1 9.9999999999999995e-007 1e-010 
body $-1 $8 $-1 $9 #
body $-1 $10 $-1 $11 #
body $-1 $12 $-1 $13 #
body $-1 $14 $-1 $15 #
body $-1 $16 $-1 $17 #
body $-1 $18 $-1 $19 #
body $-1 $20 $-1 $21 #
body $-1 $22 $-1 $23 #
lump $-1 $-1 $24 $0 #
transform $-1 1 0 0 0 1 0 0 0 1 78.76827295754876 42.735880702679836 10.775071016976218 1 rotate no_reflect no_shear #
lump $-1 $-1 $25 $1 #
transform $-1 1 0 0 0 1 0 0 0 1 78.76827295754876 42.735880702679836 10.775071016976218 1 rotate no_reflect no_shear #
lump $-1 $-1 $26 $2 #
transform $-1 1 0 0 0 1 0 0 0 1 78.76827295754876 42.735880702679836 10.775071016976218 1 rotate no_reflect no_shear #
lump $-1 $-1 $27 $3 #
transform $-1 1 0 0 0 1 0 0 0 1 78.76827295754876 42.735880702679836 10.775071016976218 1 rotate no_reflect no_shear #
lump $-1 $-1 $28 $4 #
transform $-1 1 0 0 0 1 0 0 0 1 78.76827295754876 42.735880702679836 10.775071016976218 1 rotate no_reflect no_shear #
lump $-1 $-1 $29 $5 #
transform $-1 1 0 0 0 1 0 0 0 1 78.76827295754876 42.735880702679836 10.775071016976218 1 rotate no_reflect no_shear #
lump $-1 $-1 $30 $6 #
transform $-1 1 0 0 0 1 0 0 0 1 78.76827295754876 42.735880702679836 10.775071016976218 1 rotate no_reflect no_shear #
lump $-1 $-1 $31 $7 #
transform $-1 1 0 0 0 1 0 0 0 1 78.76827295754876 42.735880702679836 10.775071016976218 1 rotate no_reflect no_shear #
shell $-1 $-1 $-1 $32 $-1 $8 #
shell $-1 $-1 $-1 $33 $-1 $10 #
shell $-1 $-1 $-1 $34 $-1 $12 #
shell $-1 $-1 $-1 $35 $-1 $14 #
shell $-1 $-1 $-1 $36 $-1 $16 #
shell $-1 $-1 $-1 $37 $-1 $18 #
shell $-1 $-1 $-1 $38 $-1 $20 #
shell $-1 $-1 $-1 $39 $-1 $22 #
face $-1 $40 $41 $24 $-1 $42 forward single #
face $-1 $43 $44 $25 $-1 $45 reversed single #
face $-1 $46 $47 $26 $-1 $48 reversed single #
face $-1 $49 $50 $27 $-1 $51 forward single #
face $-1 $52 $53 $28 $-1 $54 forward single #
face $-1 $55 $56 $29 $-1 $57 reversed single #
face $-1 $58 $59 $30 $-1 $60 forward single #
face $-1 $61 $62 $31 $-1 $63 forward single #
face $-1 $64 $65 $24 $-1 $66 reversed single #
loop $-1 $-1 $67 $32 #
plane-surface $-1 0 0 10.775071016976218 0 0 1 1 0 0 forward_v I I I I #
face $-1 $68 $69 $25 $-1 $70 reversed single #
loop $-1 $-1 $71 $33 #
plane-surface $-1 -73.76694582659286 -38.726740078735915 0 0 -1 0 0 0 -1 forward_v I I I I #
face $-1 $72 $73 $26 $-1 $74 reversed single #
loop $-1 $-1 $75 $34 #
plane-surface $-1 -13.124895624175643 133.74984742205339 158.52443098896697 1 0 0 0 -0.85716730853699208 -0.51503806187062418 forward_v I I I I #
face $-1 $76 $77 $27 $-1 $78 forward single #
loop $-1 $79 $80 $35 #
cone-surface $-1 -7.945974836995191 40.003804510835714 7.0084128994331767 0 -0.85716730853699208 -0.51503806187062418 1 0 0 1 I I 0 1 1 forward I I I I #
face $-1 $81 $82 $28 $-1 $83 forward single #
loop $-1 $84 $85 $36 #
cone-surface $-1 -0.1775936562245306 40.003804510835714 7.0084128994331767 0 -0.85716730853699208 -0.51503806187062418 1 0 0 1 I I 0 1 1 forward I I I I #
face $-1 $86 $87 $29 $-1 $88 reversed single #
loop $-1 $-1 $89 $37 #
plane-surface $-1 60.642050202417217 133.74984742205339 158.52443098896697 1 0 0 0 -0.85716730853699208 -0.51503806187062418 forward_v I I I I #
face $-1 $90 $91 $30 $-1 $92 forward single #
loop $-1 $93 $94 $38 #
cone-surface $-1 65.820970989597669 40.003804510835714 7.0084128994331767 0 -0.85716730853699208 -0.51503806187062418 1 0 0 1 I I 0 1 1 forward I I I I #
face $-1 $95 $96 $31 $-1 $97 forward single #
loop $-1 $98 $99 $39 #
cone-surface $-1 73.589352170368329 40.003804510835714 7.0084128994331767 0 -0.85716730853699208 -0.51503806187062418 1 0 0 1 I I 0 1 1 forward I I I I #
face $-1 $100 $101 $24 $-1 $102 reversed single #
loop $-1 $-1 $103 $40 #
plane-surface $-1 0 0 -10.775071016976218 0 0 1 1 0 0 forward_v I I I I #
coedge $-1 $104 $105 $106 $107 forward $41 $-1 #
face $-1 $108 $109 $25 $-1 $110 forward single #
loop $-1 $-1 $111 $43 #
plane-surface $-1 -68.76561869563696 -40.731310390707876 0 -1 0 0 0 0 1 forward_v I I I I #
coedge $-1 $112 $113 $114 $115 forward $44 $-1 #
face $-1 $116 $117 $26 $-1 $118 reversed single #
loop $-1 $-1 $119 $46 #
plane-surface $-1 -4.061784246609875 -1.2853296362050344 77.387113707062554 0 0.85716730853699208 0.51503806187062418 1 0 0 forward_v I I I I #
coedge $-1 $120 $121 $122 $123 reversed $47 $-1 #
face $-1 $-1 $124 $27 $-1 $125 forward single #
loop $-1 $126 $127 $49 #
cone-surface $-1 -7.945974836995191 38.841473921017609 6.3100142457857107 0 -0.85716730853699208 -0.51503806187062418 0.5 0 0 1 I I -0.70710678118654691 0.70710678118654813 0.5 forward I I I I #
loop $-1 $-1 $128 $35 #
coedge $-1 $80 $80 $129 $130 reversed $50 $-1 #
face $-1 $-1 $131 $28 $-1 $132 forward single #
loop $-1 $133 $134 $52 #
cone-surface $-1 -0.1775936562245306 38.841473921017609 6.3100142457857107 0 -0.85716730853699208 -0.51503806187062418 0.5 0 0 1 I I -0.70710678118654691 0.70710678118654813 0.5 forward I I I I #
loop $-1 $-1 $135 $36 #
coedge $-1 $85 $85 $136 $137 reversed $53 $-1 #
face $-1 $138 $139 $29 $-1 $140 forward single #
loop $-1 $-1 $141 $55 #
plane-surface $-1 69.705161579982985 -1.2853296362050344 77.387113707062554 0 0.85716730853699208 0.51503806187062418 1 0 0 forward_v I I I I #
coedge $-1 $142 $143 $144 $145 reversed $56 $-1 #
face $-1 $-1 $146 $30 $-1 $147 forward single #
loop $-1 $148 $149 $58 #
cone-surface $-1 65.820970989597669 38.841473921017609 6.3100142457857107 0 -0.85716730853699208 -0.51503806187062418 0.5 0 0 1 I I -0.70710678118654691 0.70710678118654813 0.5 forward I I I I #
loop $-1 $-1 $150 $38 #
coedge $-1 $94 $94 $151 $152 reversed $59 $-1 #
face $-1 $-1 $153 $31 $-1 $154 forward single #
loop $-1 $155 $156 $61 #
cone-surface $-1 73.589352170368329 38.841473921017609 6.3100142457857107 0 -0.85716730853699208 -0.51503806187062418 0.5 0 0 1 I I -0.70710678118654691 0.70710678118654813 0.5 forward I I I I #
loop $-1 $-1 $157 $39 #
coedge $-1 $99 $99 $158 $159 reversed $62 $-1 #
face $-1 $160 $161 $24 $-1 $162 reversed single #
loop $-1 $-1 $163 $64 #
plane-surface $-1 0 -42.735880702679836 0 0 1 0 0 0 1 forward_v I I I I #
coedge $-1 $164 $165 $166 $167 forward $65 $-1 #
coedge $-1 $168 $67 $169 $170 forward $41 $-1 #
coedge $-1 $67 $168 $171 $172 forward $41 $-1 #
coedge $-1 $173 $174 $67 $107 reversed $175 $-1 #
edge $-1 $176 -42.735880702679836 $177 42.735880702679836 $106 $178 forward 7 unknown #
face $-1 $179 $180 $25 $-1 $181 reversed single #
loop $-1 $-1 $182 $68 #
plane-surface $-1 0 0 10.775071016976218 0 0 1 1 0 0 forward_v I I I I #
coedge $-1 $183 $184 $185 $186 reversed $69 $-1 #
coedge $-1 $187 $71 $188 $189 reversed $44 $-1 #
coedge $-1 $71 $187 $190 $191 reversed $44 $-1 #
coedge $-1 $184 $183 $71 $115 reversed $69 $-1 #
edge $-1 $192 -10.775071016976218 $193 10.775071016976218 $114 $194 forward 7 unknown #
face $-1 $195 $196 $26 $-1 $197 reversed single #
loop $-1 $-1 $198 $72 #
plane-surface $-1 5.0013271309558931 133.74984742205339 158.52443098896697 -1 0 0 0 0.85716730853699208 0.51503806187062418 forward_v I I I I #
coedge $-1 $199 $200 $201 $202 reversed $73 $-1 #
coedge $-1 $121 $75 $203 $204 reversed $47 $-1 #
coedge $-1 $75 $120 $199 $205 reversed $47 $-1 #
coedge $-1 $201 $206 $75 $123 forward $207 $-1 #
edge $-1 $208 24.13904300834686 $209 28.135701520935896 $122 $210 forward 7 unknown #
loop $-1 $-1 $129 $76 #
plane-surface $-1 -4.061784246609875 -1.2853296362050344 77.387113707062554 0 0.85716730853699208 0.51503806187062418 1 0 0 forward_v I I I I #
loop $-1 $-1 $211 $49 #
coedge $-1 $127 $127 $128 $212 reversed $77 $-1 #
coedge $-1 $128 $128 $127 $212 forward $79 $-1 #
coedge $-1 $129 $129 $80 $130 forward $124 $-1 #
edge $-1 $213 -9.0833949806864129e-016 $213 6.2831853071795996 $129 $214 forward 7 unknown #
loop $-1 $-1 $136 $81 #
plane-surface $-1 -4.061784246609875 -1.2853296362050344 77.387113707062554 0 0.85716730853699208 0.51503806187062418 1 0 0 forward_v I I I I #
loop $-1 $-1 $215 $52 #
coedge $-1 $134 $134 $135 $216 reversed $82 $-1 #
coedge $-1 $135 $135 $134 $216 forward $84 $-1 #
coedge $-1 $136 $136 $85 $137 forward $131 $-1 #
edge $-1 $217 -9.0833949806864129e-016 $217 6.2831853071795996 $136 $218 forward 7 unknown #
face $-1 $219 $220 $29 $-1 $221 reversed single #
loop $-1 $-1 $144 $86 #
plane-surface $-1 0 0 10.775071016976218 0 0 1 1 0 0 forward_v I I I I #
coedge $-1 $222 $223 $224 $225 reversed $87 $-1 #
coedge $-1 $143 $89 $226 $227 reversed $56 $-1 #
coedge $-1 $89 $142 $222 $228 reversed $56 $-1 #
coedge $-1 $224 $229 $89 $145 forward $139 $-1 #
edge $-1 $230 24.13904300834686 $231 28.135701520935896 $144 $232 forward 7 unknown #
loop $-1 $-1 $151 $90 #
plane-surface $-1 69.705161579982985 -1.2853296362050344 77.387113707062554 0 0.85716730853699208 0.51503806187062418 1 0 0 forward_v I I I I #
loop $-1 $-1 $233 $58 #
coedge $-1 $149 $149 $150 $234 reversed $91 $-1 #
coedge $-1 $150 $150 $149 $234 forward $93 $-1 #
coedge $-1 $151 $151 $94 $152 forward $146 $-1 #
edge $-1 $235 -9.0833949806864129e-016 $235 6.2831853071795996 $151 $236 forward 7 unknown #
loop $-1 $-1 $158 $95 #
plane-surface $-1 69.705161579982985 -1.2853296362050344 77.387113707062554 0 0.85716730853699208 0.51503806187062418 1 0 0 forward_v I I I I #
loop $-1 $-1 $237 $61 #
coedge $-1 $156 $156 $157 $238 reversed $96 $-1 #
coedge $-1 $157 $157 $156 $238 forward $98 $-1 #
coedge $-1 $158 $158 $99 $159 forward $153 $-1 #
edge $-1 $239 -9.0833949806864129e-016 $239 6.2831853071795996 $158 $240 forward 7 unknown #
face $-1 $241 $242 $24 $-1 $243 reversed single #
loop $-1 $-1 $244 $100 #
plane-surface $-1 -78.76827295754876 0 0 1 0 0 0 0 -1 forward_v I I I I #
coedge $-1 $245 $171 $246 $247 forward $101 $-1 #
coedge $-1 $248 $103 $245 $249 forward $65 $-1 #
coedge $-1 $103 $248 $250 $251 forward $65 $-1 #
coedge $-1 $174 $173 $103 $167 reversed $175 $-1 #
edge $-1 $252 -42.735880702679836 $253 42.735880702679836 $166 $254 forward 7 unknown #
coedge $-1 $105 $104 $255 $256 forward $41 $-1 #
coedge $-1 $257 $258 $104 $170 reversed $242 $-1 #
edge $-1 $177 -78.76827295754876 $259 78.76827295754876 $169 $260 forward 7 unknown #
coedge $-1 $163 $261 $105 $172 reversed $101 $-1 #
edge $-1 $262 -78.76827295754876 $176 78.76827295754876 $171 $263 forward 7 unknown #
coedge $-1 $166 $106 $261 $264 forward $175 $-1 #
coedge $-1 $106 $166 $257 $265 reversed $175 $-1 #
loop $-1 $-1 $173 $241 #
vertex $-1 $107 $266 #
vertex $-1 $107 $267 #
straight-curve $-1 78.76827295754876 0 10.775071016976218 0 1 0 I I #
face $-1 $268 $269 $25 $-1 $270 reversed single #
loop $-1 $-1 $271 $108 #
plane-surface $-1 -78.76827295754876 0 0 1 0 0 0 0 -1 forward_v I I I I #
coedge $-1 $190 $272 $184 $273 forward $109 $-1 #
coedge $-1 $114 $111 $274 $275 reversed $69 $-1 #
coedge $-1 $111 $114 $182 $273 reversed $69 $-1 #
coedge $-1 $276 $277 $111 $186 forward $278 $-1 #
edge $-1 $279 -10.775071016976218 $280 10.775071016976218 $185 $281 forward 7 unknown #
coedge $-1 $113 $112 $271 $282 reversed $44 $-1 #
coedge $-1 $274 $283 $112 $189 forward $269 $-1 #
edge $-1 $284 -41.88480004425233 $193 -31.88214578234053 $188 $285 forward 7 unknown #
coedge $-1 $286 $182 $113 $191 forward $109 $-1 #
edge $-1 $192 31.88214578234053 $287 41.88480004425233 $190 $288 forward 7 unknown #
vertex $-1 $191 $289 #
vertex $-1 $189 $290 #
straight-curve $-1 -68.76561869563696 -38.726740078735915 0 0 0 -1 I I #
face $-1 $-1 $207 $26 $-1 $291 forward single #
loop $-1 $-1 $292 $116 #
plane-surface $-1 0 42.735880702679836 0 0 -1 0 0 0 -1 forward_v I I I I #
coedge $-1 $293 $294 $295 $296 reversed $117 $-1 #
coedge $-1 $297 $119 $121 $205 forward $73 $-1 #
coedge $-1 $119 $297 $293 $298 forward $73 $-1 #
coedge $-1 $295 $122 $119 $202 forward $207 $-1 #
edge $-1 $209 -11.094003500870706 $299 7.0322192542608306 $201 $300 forward 7 unknown #
coedge $-1 $301 $302 $120 $204 forward $196 $-1 #
edge $-1 $303 -75.138701467169042 $208 -68.487144477507272 $203 $304 forward 7 unknown #
edge $-1 $209 77.711832948668317 $303 85.471761405359686 $121 $305 forward 7 unknown #
coedge $-1 $122 $295 $301 $306 forward $207 $-1 #
loop $-1 $-1 $295 $195 #
vertex $-1 $204 $307 #
vertex $-1 $123 $308 #
straight-curve $-1 -13.124895624175643 66.874923711026696 10.775071016976213 0 -1 0 I I #
coedge $-1 $211 $211 $-1 $309 reversed $126 $-1 #
edge $-1 $310 0 $310 6.2831853071796004 $127 $311 forward 7 unknown #
vertex $-1 $130 $312 #
ellipse-curve $-1 -7.945974836995191 40.737551446385318 7.449292522145325 0 0.85716730853699208 0.51503806187062418 1 0 0 1 I I #
coedge $-1 $215 $215 $-1 $313 reversed $133 $-1 #
edge $-1 $314 0 $314 6.2831853071796004 $134 $315 forward 7 unknown #
vertex $-1 $137 $316 #
ellipse-curve $-1 -0.1775936562245306 40.737551446385318 7.449292522145325 0 0.85716730853699208 0.51503806187062418 1 0 0 1 I I #
face $-1 $-1 $317 $29 $-1 $318 reversed single #
loop $-1 $-1 $319 $138 #
plane-surface $-1 78.76827295754876 0 0 -1 0 0 0 0 1 forward_v I I I I #
coedge $-1 $320 $141 $143 $228 forward $87 $-1 #
coedge $-1 $141 $320 $319 $321 reversed $87 $-1 #
coedge $-1 $322 $144 $141 $225 forward $139 $-1 #
edge $-1 $231 25.789469412425724 $323 43.915692167557268 $224 $324 forward 7 unknown #
coedge $-1 $325 $326 $142 $227 forward $317 $-1 #
edge $-1 $327 -75.138701467169042 $230 -68.487144477507272 $226 $328 forward 7 unknown #
edge $-1 $231 77.711832948668317 $327 85.471761405359686 $143 $329 forward 7 unknown #
coedge $-1 $144 $322 $325 $330 forward $139 $-1 #
vertex $-1 $227 $331 #
vertex $-1 $145 $332 #
straight-curve $-1 60.642050202417217 66.874923711026696 10.775071016976213 0 -1 0 I I #
coedge $-1 $233 $233 $-1 $333 reversed $148 $-1 #
edge $-1 $334 0 $334 6.2831853071796004 $149 $335 forward 7 unknown #
vertex $-1 $152 $336 #
ellipse-curve $-1 65.820970989597669 40.737551446385318 7.449292522145325 0 0.85716730853699208 0.51503806187062418 1 0 0 1 I I #
coedge $-1 $237 $237 $-1 $337 reversed $155 $-1 #
edge $-1 $338 0 $338 6.2831853071796004 $156 $339 forward 7 unknown #
vertex $-1 $159 $340 #
ellipse-curve $-1 73.589352170368329 40.737551446385318 7.449292522145325 0 0.85716730853699208 0.51503806187062418 1 0 0 1 I I #
face $-1 $-1 $175 $24 $-1 $341 reversed single #
loop $-1 $-1 $257 $160 #
plane-surface $-1 0 42.735880702679836 0 0 -1 0 0 0 -1 forward_v I I I I #
coedge $-1 $342 $255 $258 $343 forward $161 $-1 #
coedge $-1 $261 $163 $164 $249 reversed $101 $-1 #
coedge $-1 $255 $342 $163 $247 reversed $161 $-1 #
edge $-1 $262 -10.775071016976218 $344 10.775071016976218 $246 $345 forward 7 unknown #
coedge $-1 $165 $164 $342 $346 forward $65 $-1 #
edge $-1 $253 -78.76827295754876 $344 78.76827295754876 $245 $347 forward 7 unknown #
coedge $-1 $258 $257 $165 $251 reversed $242 $-1 #
edge $-1 $348 -78.76827295754876 $252 78.76827295754876 $250 $349 forward 7 unknown #
vertex $-1 $167 $350 #
vertex $-1 $264 $351 #
straight-curve $-1 78.76827295754876 0 -10.775071016976218 0 -1 0 I I #
coedge $-1 $244 $246 $168 $256 reversed $161 $-1 #
edge $-1 $259 -42.735880702679836 $262 42.735880702679836 $255 $352 forward 7 unknown #
coedge $-1 $250 $169 $174 $265 forward $242 $-1 #
coedge $-1 $169 $250 $244 $343 reversed $242 $-1 #
vertex $-1 $170 $353 #
straight-curve $-1 0 42.735880702679836 10.775071016976218 -1 0 0 I I #
coedge $-1 $171 $245 $173 $264 reversed $101 $-1 #
vertex $-1 $256 $354 #
straight-curve $-1 0 -42.735880702679836 10.775071016976218 1 0 0 I I #
edge $-1 $176 -10.775071016976218 $253 10.775071016976218 $173 $355 forward 7 unknown #
edge $-1 $177 -10.775071016976218 $252 10.775071016976218 $174 $356 forward 7 unknown #
point $-1 78.76827295754876 -42.735880702679836 10.775071016976218 #
point $-1 78.76827295754876 42.735880702679836 10.775071016976218 #
face $-1 $-1 $278 $25 $-1 $357 reversed single #
loop $-1 $-1 $274 $179 #
plane-surface $-1 0 0 -10.775071016976218 0 0 1 1 0 0 forward_v I I I I #
coedge $-1 $358 $359 $187 $282 forward $180 $-1 #
coedge $-1 $182 $286 $276 $360 forward $109 $-1 #
edge $-1 $280 -22.370225507325898 $192 -18.361084883381977 $182 $361 forward 7 unknown #
coedge $-1 $362 $188 $183 $275 forward $269 $-1 #
edge $-1 $193 18.361084883381977 $279 22.370225507325898 $274 $363 forward 7 unknown #
coedge $-1 $364 $185 $272 $360 reversed $278 $-1 #
coedge $-1 $185 $364 $362 $365 reversed $278 $-1 #
loop $-1 $-1 $185 $268 #
vertex $-1 $365 $366 #
vertex $-1 $186 $367 #
straight-curve $-1 -68.76561869563696 -42.735880702679836 0 0 0 1 I I #
edge $-1 $287 -10.775071016976218 $284 10.775071016976218 $271 $368 forward 7 unknown #
coedge $-1 $188 $362 $358 $369 forward $269 $-1 #
vertex $-1 $189 $370 #
straight-curve $-1 -36.88347291329643 -38.726740078735915 -10.775071016976218 1 0 0 I I #
coedge $-1 $272 $190 $359 $371 forward $109 $-1 #
vertex $-1 $371 $372 #
straight-curve $-1 -36.88347291329643 -38.726740078735915 10.775071016976218 -1 0 0 I I #
point $-1 -68.76561869563696 -38.726740078735915 10.775071016976218 #
point $-1 -68.76561869563696 -38.726740078735915 -10.775071016976218 #
plane-surface $-1 0 0 10.775071016976218 0 0 1 1 0 0 forward_v I I I I #
coedge $-1 $302 $301 $294 $373 forward $196 $-1 #
coedge $-1 $294 $198 $200 $298 reversed $117 $-1 #
coedge $-1 $198 $293 $292 $373 reversed $117 $-1 #
coedge $-1 $206 $201 $198 $296 forward $207 $-1 #
edge $-1 $299 -28.135701520935896 $374 -24.13904300834686 $295 $375 forward 7 unknown #
coedge $-1 $200 $199 $302 $376 reversed $73 $-1 #
edge $-1 $377 -85.471761405359686 $299 -77.711832948668317 $293 $378 forward 7 unknown #
vertex $-1 $202 $379 #
straight-curve $-1 -2.0308921233049375 38.7392221900908 10.77507101697622 1 0 0 I I #
coedge $-1 $292 $203 $206 $306 reversed $196 $-1 #
coedge $-1 $203 $292 $297 $376 forward $196 $-1 #
vertex $-1 $204 $380 #
straight-curve $-1 -13.124895624175643 42.735880702679836 79.262215494483485 0 0 1 I I #
straight-curve $-1 -13.124895624175643 -1.2853296362050344 77.387113707062554 0 0.51503806187062418 -0.85716730853699208 I I #
edge $-1 $374 -5.0013271309558931 $208 13.124895624175643 $301 $381 forward 7 unknown #
point $-1 -13.124895624175643 42.735880702679836 10.775071016976218 #
point $-1 -13.124895624175643 38.7392221900908 10.775071016976213 #
edge $-1 $382 1 $382 0 $211 $-1 forward 7 unknown #
vertex $-1 $212 $383 #
ellipse-curve $-1 -7.945974836995191 39.270057575286103 6.5675332767210231 0 0.85716730853699208 0.51503806187062418 1 0 0 1 I I #
point $-1 -6.945974836995191 40.737551446385325 7.4492925221453303 #
edge $-1 $384 1 $384 0 $215 $-1 forward 7 unknown #
vertex $-1 $216 $385 #
ellipse-curve $-1 -0.1775936562245306 39.270057575286103 6.5675332767210231 0 0.85716730853699208 0.51503806187062418 1 0 0 1 I I #
point $-1 0.8224063437754694 40.737551446385325 7.4492925221453303 #
loop $-1 $-1 $226 $219 #
plane-surface $-1 0 42.735880702679836 0 0 -1 0 0 0 -1 forward_v I I I I #
coedge $-1 $386 $387 $223 $321 forward $220 $-1 #
coedge $-1 $223 $222 $326 $388 reversed $87 $-1 #
edge $-1 $323 44.213984120455848 $389 51.973912577147232 $319 $390 forward 7 unknown #
coedge $-1 $229 $224 $387 $391 forward $139 $-1 #
vertex $-1 $391 $392 #
straight-curve $-1 34.852580789991492 38.7392221900908 10.77507101697622 1 0 0 I I #
coedge $-1 $393 $226 $229 $330 reversed $317 $-1 #
coedge $-1 $226 $393 $320 $388 forward $317 $-1 #
vertex $-1 $227 $394 #
straight-curve $-1 60.642050202417217 42.735880702679836 79.262215494483485 0 0 1 I I #
straight-curve $-1 60.642050202417217 -1.2853296362050344 77.387113707062554 0 0.51503806187062418 -0.85716730853699208 I I #
edge $-1 $395 -78.76827295754876 $230 -60.642050202417217 $325 $396 forward 7 unknown #
point $-1 60.642050202417217 42.735880702679836 10.775071016976218 #
point $-1 60.642050202417217 38.7392221900908 10.775071016976213 #
edge $-1 $397 1 $397 0 $233 $-1 forward 7 unknown #
vertex $-1 $234 $398 #
ellipse-curve $-1 65.820970989597669 39.270057575286103 6.5675332767210231 0 0.85716730853699208 0.51503806187062418 1 0 0 1 I I #
point $-1 66.820970989597669 40.737551446385325 7.4492925221453303 #
edge $-1 $399 1 $399 0 $237 $-1 forward 7 unknown #
vertex $-1 $238 $400 #
ellipse-curve $-1 73.589352170368329 39.270057575286103 6.5675332767210231 0 0.85716730853699208 0.51503806187062418 1 0 0 1 I I #
point $-1 74.589352170368329 40.737551446385325 7.4492925221453303 #
plane-surface $-1 78.76827295754876 0 0 -1 0 0 0 0 1 forward_v I I I I #
coedge $-1 $246 $244 $248 $346 reversed $161 $-1 #
edge $-1 $259 -10.775071016976218 $348 10.775071016976218 $258 $401 forward 7 unknown #
vertex $-1 $346 $402 #
straight-curve $-1 -78.76827295754876 -42.735880702679836 0 0 0 -1 I I #
edge $-1 $344 -42.735880702679836 $348 42.735880702679836 $342 $403 forward 7 unknown #
straight-curve $-1 0 -42.735880702679836 -10.775071016976218 -1 0 0 I I #
vertex $-1 $251 $404 #
straight-curve $-1 0 42.735880702679836 -10.775071016976218 1 0 0 I I #
point $-1 78.76827295754876 42.735880702679836 -10.775071016976218 #
point $-1 78.76827295754876 -42.735880702679836 -10.775071016976218 #
straight-curve $-1 -78.76827295754876 0 10.775071016976218 0 -1 0 I I #
point $-1 -78.76827295754876 42.735880702679836 10.775071016976218 #
point $-1 -78.76827295754876 -42.735880702679836 10.775071016976218 #
straight-curve $-1 78.76827295754876 -42.735880702679836 0 0 0 -1 I I #
straight-curve $-1 78.76827295754876 42.735880702679836 0 0 0 -1 I I #
plane-surface $-1 0 -42.735880702679836 0 0 1 0 0 0 1 forward_v I I I I #
coedge $-1 $405 $271 $283 $369 reversed $180 $-1 #
coedge $-1 $271 $405 $286 $371 reversed $180 $-1 #
edge $-1 $406 -78.76827295754876 $280 -68.76561869563696 $276 $407 forward 7 unknown #
straight-curve $-1 -68.76561869563696 -20.365655195353938 10.775071016976218 0 1 0 I I #
coedge $-1 $283 $274 $277 $365 forward $269 $-1 #
straight-curve $-1 -68.76561869563696 -20.365655195353938 -10.775071016976218 0 -1 0 I I #
coedge $-1 $277 $276 $405 $408 forward $278 $-1 #
edge $-1 $279 68.76561869563696 $409 78.76827295754876 $277 $410 forward 7 unknown #
point $-1 -68.76561869563696 -42.735880702679836 -10.775071016976218 #
point $-1 -68.76561869563696 -42.735880702679836 10.775071016976218 #
straight-curve $-1 -78.76827295754876 -38.726740078735915 0 0 0 -1 I I #
edge $-1 $409 -42.735880702679836 $284 -38.726740078735915 $358 $411 forward 7 unknown #
point $-1 -78.76827295754876 -38.726740078735915 -10.775071016976218 #
edge $-1 $287 38.726740078735915 $406 42.735880702679836 $359 $412 forward 7 unknown #
point $-1 -78.76827295754876 -38.726740078735915 10.775071016976218 #
edge $-1 $374 68.487144477507272 $377 75.138701467169042 $292 $413 forward 7 unknown #
vertex $-1 $306 $414 #
straight-curve $-1 5.0013271309558931 66.874923711026696 10.775071016976213 0 1 0 I I #
edge $-1 $377 -7.0322192542608306 $303 11.094003500870706 $302 $415 forward 7 unknown #
vertex $-1 $376 $416 #
straight-curve $-1 5.0013271309558931 -1.2853296362050344 77.387113707062554 0 -0.51503806187062418 0.85716730853699208 I I #
point $-1 5.0013271309558931 38.7392221900908 10.775071016976213 #
point $-1 -13.124895624175643 42.735880702679836 4.1235140273144424 #
straight-curve $-1 0 42.735880702679836 10.775071016976218 -1 0 0 I I #
vertex $-1 $309 $417 #
point $-1 -6.945974836995191 39.270057575286103 6.5675332767210231 #
vertex $-1 $313 $418 #
point $-1 0.8224063437754694 39.270057575286103 6.5675332767210231 #
coedge $-1 $387 $319 $393 $419 reversed $220 $-1 #
coedge $-1 $319 $386 $322 $391 reversed $220 $-1 #
edge $-1 $389 -43.915692167557268 $327 -25.789469412425724 $326 $420 forward 7 unknown #
vertex $-1 $321 $421 #
straight-curve $-1 78.76827295754876 15.967337501112663 48.673852785204652 0 0.51503806187062429 -0.85716730853699219 I I #
edge $-1 $323 38.7392221900908 $395 42.735880702679836 $387 $422 forward 7 unknown #
point $-1 78.76827295754876 38.7392221900908 10.775071016976213 #
coedge $-1 $326 $325 $386 $419 forward $317 $-1 #
point $-1 60.642050202417217 42.735880702679836 4.1235140273144424 #
vertex $-1 $391 $423 #
straight-curve $-1 0 42.735880702679836 10.775071016976218 -1 0 0 I I #
vertex $-1 $333 $424 #
point $-1 66.820970989597669 39.270057575286103 6.5675332767210231 #
vertex $-1 $337 $425 #
point $-1 74.589352170368329 39.270057575286103 6.5675332767210231 #
straight-curve $-1 -78.76827295754876 42.735880702679836 0 0 0 -1 I I #
point $-1 -78.76827295754876 -42.735880702679836 -10.775071016976218 #
straight-curve $-1 -78.76827295754876 0 -10.775071016976218 0 1 0 I I #
point $-1 -78.76827295754876 42.735880702679836 -10.775071016976218 #
coedge $-1 $359 $358 $364 $408 reversed $180 $-1 #
vertex $-1 $371 $426 #
straight-curve $-1 0 -42.735880702679836 10.775071016976218 1 0 0 I I #
edge $-1 $406 -10.775071016976218 $409 10.775071016976218 $405 $427 forward 7 unknown #
vertex $-1 $369 $428 #
straight-curve $-1 0 -42.735880702679836 -10.775071016976218 -1 0 0 I I #
straight-curve $-1 -78.76827295754876 0 -10.775071016976218 0 1 0 I I #
straight-curve $-1 -78.76827295754876 0 10.775071016976218 0 -1 0 I I #
straight-curve $-1 5.0013271309558931 42.735880702679836 79.262215494483485 0 0 -1 I I #
point $-1 5.0013271309558931 42.735880702679836 10.775071016976218 #
straight-curve $-1 -2.0308921233049375 42.735880702679836 4.1235140273144353 -1 0 0 I I #
point $-1 5.0013271309558931 42.735880702679836 4.1235140273144424 #
point $-1 -7.945974836995191 38.412890266749116 6.0524952148503983 #
point $-1 -0.1775936562245306 38.412890266749116 6.0524952148503983 #
edge $-1 $395 -10.775071016976218 $389 -4.1235140273144424 $386 $429 forward 7 unknown #
straight-curve $-1 34.852580789991492 42.735880702679836 4.1235140273144353 -1 0 0 I I #
point $-1 78.76827295754876 42.735880702679836 4.1235140273144424 #
straight-curve $-1 78.76827295754876 0 10.775071016976218 0 1 0 I I #
point $-1 78.76827295754876 42.735880702679836 10.775071016976218 #
point $-1 65.820970989597669 38.412890266749116 6.0524952148503983 #
point $-1 73.589352170368329 38.412890266749116 6.0524952148503983 #
point $-1 -78.76827295754876 -42.735880702679836 10.775071016976218 #
straight-curve $-1 -78.76827295754876 -42.735880702679836 0 0 0 -1 I I #
point $-1 -78.76827295754876 -42.735880702679836 -10.775071016976218 #
straight-curve $-1 78.76827295754876 42.735880702679836 0 0 0 -1 I I #
End-of-ACIS-data 