500 0 8 0           
7 Unknown 11 ACIS 5.0 NT 24 Fri Mar 26 00:56:15 1999 
-1 9.9999999999999995e-007 1e-010 
body $-1 $8 $-1 $9 #
body $-1 $10 $-1 $11 #
body $-1 $12 $-1 $13 #
body $-1 $14 $-1 $15 #
body $-1 $16 $-1 $17 #
body $-1 $18 $-1 $19 #
body $-1 $20 $-1 $21 #
body $-1 $22 $-1 $23 #
lump $-1 $-1 $24 $0 #
transform $-1 1 0 0 0 1 0 0 0 1 44.248176519058809 23.506615897708436 9.6648512637317232 1 rotate no_reflect no_shear #
lump $-1 $-1 $25 $1 #
transform $-1 1 0 0 0 1 0 0 0 1 44.248176519058809 23.506615897708436 9.6648512637317232 1 rotate no_reflect no_shear #
lump $-1 $-1 $26 $2 #
transform $-1 1 0 0 0 1 0 0 0 1 44.248176519058809 23.506615897708436 9.6648512637317232 1 rotate no_reflect no_shear #
lump $-1 $-1 $27 $3 #
transform $-1 1 0 0 0 1 0 0 0 1 44.248176519058809 23.506615897708436 9.6648512637317232 1 rotate no_reflect no_shear #
lump $-1 $-1 $28 $4 #
transform $-1 1 0 0 0 1 0 0 0 1 44.248176519058809 23.506615897708436 9.6648512637317232 1 rotate no_reflect no_shear #
lump $-1 $-1 $29 $5 #
transform $-1 1 0 0 0 1 0 0 0 1 44.248176519058809 23.506615897708436 9.6648512637317232 1 rotate no_reflect no_shear #
lump $-1 $-1 $30 $6 #
transform $-1 1 0 0 0 1 0 0 0 1 44.248176519058809 23.506615897708436 9.6648512637317232 1 rotate no_reflect no_shear #
lump $-1 $-1 $31 $7 #
transform $-1 1 0 0 0 1 0 0 0 1 44.248176519058809 23.506615897708436 9.6648512637317232 1 rotate no_reflect no_shear #
shell $-1 $-1 $-1 $32 $-1 $8 #
shell $-1 $-1 $-1 $33 $-1 $10 #
shell $-1 $-1 $-1 $34 $-1 $12 #
shell $-1 $-1 $-1 $35 $-1 $14 #
shell $-1 $-1 $-1 $36 $-1 $16 #
shell $-1 $-1 $-1 $37 $-1 $18 #
shell $-1 $-1 $-1 $38 $-1 $20 #
shell $-1 $-1 $-1 $39 $-1 $22 #
face $-1 $40 $41 $24 $-1 $42 forward single #
face $-1 $43 $44 $25 $-1 $45 forward single #
face $-1 $46 $47 $26 $-1 $48 reversed single #
face $-1 $49 $50 $27 $-1 $51 forward single #
face $-1 $52 $53 $28 $-1 $54 forward single #
face $-1 $55 $56 $29 $-1 $57 reversed single #
face $-1 $58 $59 $30 $-1 $60 forward single #
face $-1 $61 $62 $31 $-1 $63 forward single #
face $-1 $64 $65 $24 $-1 $66 reversed single #
loop $-1 $-1 $67 $32 #
plane-surface $-1 0 0 9.6648512637317232 0 0 1 1 0 0 forward_v I I I I #
face $-1 $68 $69 $25 $-1 $70 reversed single #
loop $-1 $-1 $71 $33 #
plane-surface $-1 0 -19.868107774305216 -5.555217404740235 0 0 1 1 0 0 forward_v I I I I #
face $-1 $72 $73 $26 $-1 $74 reversed single #
loop $-1 $-1 $75 $34 #
plane-surface $-1 -89.827168430679933 14.73546258809673 81.974898393575572 0 1 0 -0.51503808176128008 0 0.85716729658548041 forward_v I I I I #
face $-1 $76 $77 $27 $-1 $78 forward single #
loop $-1 $79 $80 $35 #
cone-surface $-1 -40.656695861419706 17.241506390842936 6.8256427741675463 0.51503808176128008 0 -0.85716729658548041 0.85716729658548041 0 0.51503808176128008 1 I I 0 1 1 forward I I I I #
face $-1 $81 $82 $28 $-1 $83 forward single #
loop $-1 $84 $85 $36 #
cone-surface $-1 -40.656695861419706 21.000572094962237 6.8256427741675463 0.51503808176128008 0 -0.85716729658548041 0.85716729658548041 0 0.51503808176128008 1 I I 0 1 1 forward I I I I #
face $-1 $86 $87 $29 $-1 $88 reversed single #
loop $-1 $-1 $89 $37 #
plane-surface $-1 13.970988739322394 14.73546258809673 127.55389030519669 0 1 0 0.51503808176128008 0 0.85716729658548041 forward_v I I I I #
face $-1 $90 $91 $30 $-1 $92 forward single #
loop $-1 $93 $94 $38 #
cone-surface $-1 40.656695861419713 17.241506390842936 6.8256427741675569 -0.51503808176128008 0 -0.85716729658548041 0.85716729658548041 0 -0.51503808176128008 1 I I 0 1 1 forward I I I I #
face $-1 $95 $96 $31 $-1 $97 forward single #
loop $-1 $98 $99 $39 #
cone-surface $-1 40.656695861419713 21.000572094962237 6.8256427741675569 -0.51503808176128008 0 -0.85716729658548041 0.85716729658548041 0 -0.51503808176128008 1 I I 0 1 1 forward I I I I #
face $-1 $100 $101 $24 $-1 $102 reversed single #
loop $-1 $-1 $103 $40 #
plane-surface $-1 0 0 -9.6648512637317232 0 0 1 1 0 0 forward_v I I I I #
coedge $-1 $104 $105 $106 $107 forward $41 $-1 #
face $-1 $108 $109 $25 $-1 $110 reversed single #
loop $-1 $-1 $111 $43 #
plane-surface $-1 0 -16.229599650901996 -7.6100343342359791 0 -1 0 0 0 -1 forward_v I I I I #
coedge $-1 $112 $113 $114 $115 reversed $44 $-1 #
face $-1 $116 $117 $26 $-1 $118 reversed single #
loop $-1 $-1 $119 $46 #
plane-surface $-1 -44.248176519058802 19.121039242902583 6.1187187022180325 -0.51503808176128008 0 0.85716729658548041 0.85716729658548041 0 0.51503808176128008 forward_v I I I I #
coedge $-1 $120 $121 $122 $123 reversed $47 $-1 #
face $-1 $-1 $124 $27 $-1 $125 forward single #
loop $-1 $126 $127 $49 #
cone-surface $-1 -39.758573941385592 17.241506390842936 5.3309169170674835 0.51503808176128008 0 -0.85716729658548041 0.4285836482927402 0 0.25751904088064004 1 I I -0.70710678118654746 0.70710678118654746 0.5 forward I I I I #
loop $-1 $-1 $128 $35 #
coedge $-1 $80 $80 $129 $130 reversed $50 $-1 #
face $-1 $-1 $131 $28 $-1 $132 forward single #
loop $-1 $133 $134 $52 #
cone-surface $-1 -39.758573941385592 21.000572094962237 5.3309169170674835 0.51503808176128008 0 -0.85716729658548041 0.4285836482927402 0 0.25751904088064004 1 I I -0.70710678118654746 0.70710678118654746 0.5 forward I I I I #
loop $-1 $-1 $135 $36 #
coedge $-1 $85 $85 $136 $137 reversed $53 $-1 #
face $-1 $138 $139 $29 $-1 $140 forward single #
loop $-1 $-1 $141 $55 #
plane-surface $-1 -31.608003172298737 19.121039242902583 51.697710613839149 0.51503808176128008 0 0.85716729658548041 0.85716729658548041 0 -0.51503808176128008 forward_v I I I I #
coedge $-1 $142 $143 $144 $145 reversed $56 $-1 #
face $-1 $-1 $146 $30 $-1 $147 forward single #
loop $-1 $148 $149 $58 #
cone-surface $-1 39.758573941385599 17.241506390842936 5.3309169170674942 -0.51503808176128008 0 -0.85716729658548041 0.4285836482927402 0 -0.25751904088064004 1 I I -0.70710678118654746 0.70710678118654746 0.5 forward I I I I #
loop $-1 $-1 $150 $38 #
coedge $-1 $94 $94 $151 $152 reversed $59 $-1 #
face $-1 $-1 $153 $31 $-1 $154 forward single #
loop $-1 $155 $156 $61 #
cone-surface $-1 39.758573941385599 21.000572094962237 5.3309169170674942 -0.51503808176128008 0 -0.85716729658548041 0.4285836482927402 0 -0.25751904088064004 1 I I -0.70710678118654746 0.70710678118654746 0.5 forward I I I I #
loop $-1 $-1 $157 $39 #
coedge $-1 $99 $99 $158 $159 reversed $62 $-1 #
face $-1 $160 $161 $24 $-1 $162 reversed single #
loop $-1 $-1 $163 $64 #
plane-surface $-1 0 -23.506615897708436 0 0 1 0 0 0 1 forward_v I I I I #
coedge $-1 $164 $165 $166 $167 forward $65 $-1 #
coedge $-1 $168 $67 $169 $170 forward $41 $-1 #
coedge $-1 $67 $168 $171 $172 forward $41 $-1 #
coedge $-1 $173 $174 $67 $107 reversed $175 $-1 #
edge $-1 $176 -23.506615897708436 $177 23.506615897708436 $106 $178 forward 7 unknown #
face $-1 $179 $180 $25 $-1 $181 reversed single #
loop $-1 $-1 $182 $68 #
plane-surface $-1 0 0 -9.6648512637317232 0 0 1 1 0 0 forward_v I I I I #
coedge $-1 $183 $184 $185 $186 reversed $69 $-1 #
coedge $-1 $187 $71 $184 $188 forward $44 $-1 #
coedge $-1 $71 $187 $189 $190 reversed $44 $-1 #
coedge $-1 $191 $185 $71 $115 forward $180 $-1 #
edge $-1 $192 6.2955457637493879 $193 13.572562010555828 $114 $194 forward 7 unknown #
face $-1 $195 $196 $26 $-1 $197 reversed single #
loop $-1 $-1 $198 $72 #
plane-surface $-1 0 23.506615897708436 0 0 -1 0 0 0 -1 forward_v I I I I #
coedge $-1 $199 $200 $201 $202 reversed $73 $-1 #
coedge $-1 $121 $75 $203 $204 reversed $47 $-1 #
coedge $-1 $75 $120 $199 $205 reversed $47 $-1 #
coedge $-1 $201 $206 $75 $123 forward $207 $-1 #
edge $-1 $208 0.66540769628115726 $209 6.5671632532523887 $122 $210 forward 7 unknown #
loop $-1 $-1 $129 $76 #
plane-surface $-1 -44.248176519058802 19.121039242902583 6.1187187022180325 -0.51503808176128008 0 0.85716729658548041 0.85716729658548041 0 0.51503808176128008 forward_v I I I I #
loop $-1 $-1 $211 $49 #
coedge $-1 $127 $127 $128 $212 reversed $77 $-1 #
coedge $-1 $128 $128 $127 $212 forward $79 $-1 #
coedge $-1 $129 $129 $80 $130 forward $124 $-1 #
edge $-1 $213 0 $213 6.2831853071796004 $129 $214 forward 7 unknown #
loop $-1 $-1 $136 $81 #
plane-surface $-1 -44.248176519058802 19.121039242902583 6.1187187022180325 -0.51503808176128008 0 0.85716729658548041 0.85716729658548041 0 0.51503808176128008 forward_v I I I I #
loop $-1 $-1 $215 $52 #
coedge $-1 $134 $134 $135 $216 reversed $82 $-1 #
coedge $-1 $135 $135 $134 $216 forward $84 $-1 #
coedge $-1 $136 $136 $85 $137 forward $131 $-1 #
edge $-1 $217 0 $217 6.2831853071796004 $136 $218 forward 7 unknown #
face $-1 $219 $220 $29 $-1 $221 reversed single #
loop $-1 $-1 $222 $86 #
plane-surface $-1 0 0 9.6648512637317232 0 0 1 1 0 0 forward_v I I I I #
coedge $-1 $223 $224 $225 $226 reversed $87 $-1 #
coedge $-1 $143 $89 $227 $228 reversed $56 $-1 #
coedge $-1 $89 $142 $223 $229 reversed $56 $-1 #
coedge $-1 $225 $230 $89 $145 forward $231 $-1 #
edge $-1 $232 54.112093888866625 $233 57.658226450380326 $144 $234 forward 7 unknown #
loop $-1 $-1 $151 $90 #
plane-surface $-1 -31.608003172298737 19.121039242902583 51.697710613839149 0.51503808176128008 0 0.85716729658548041 0.85716729658548041 0 -0.51503808176128008 forward_v I I I I #
loop $-1 $-1 $235 $58 #
coedge $-1 $149 $149 $150 $236 reversed $91 $-1 #
coedge $-1 $150 $150 $149 $236 forward $93 $-1 #
coedge $-1 $151 $151 $94 $152 forward $146 $-1 #
edge $-1 $237 0 $237 6.2831853071796004 $151 $238 forward 7 unknown #
loop $-1 $-1 $158 $95 #
plane-surface $-1 -31.608003172298737 19.121039242902583 51.697710613839149 0.51503808176128008 0 0.85716729658548041 0.85716729658548041 0 -0.51503808176128008 forward_v I I I I #
loop $-1 $-1 $239 $61 #
coedge $-1 $156 $156 $157 $240 reversed $96 $-1 #
coedge $-1 $157 $157 $156 $240 forward $98 $-1 #
coedge $-1 $158 $158 $99 $159 forward $153 $-1 #
edge $-1 $241 0 $241 6.2831853071796004 $158 $242 forward 7 unknown #
face $-1 $243 $244 $24 $-1 $245 reversed single #
loop $-1 $-1 $246 $100 #
plane-surface $-1 -44.248176519058809 0 0 1 0 0 0 0 -1 forward_v I I I I #
coedge $-1 $247 $171 $248 $249 forward $101 $-1 #
coedge $-1 $250 $103 $247 $251 forward $65 $-1 #
coedge $-1 $103 $250 $252 $253 forward $65 $-1 #
coedge $-1 $174 $173 $103 $167 reversed $175 $-1 #
edge $-1 $254 -23.506615897708436 $255 23.506615897708436 $166 $256 forward 7 unknown #
coedge $-1 $105 $104 $257 $258 forward $41 $-1 #
coedge $-1 $259 $260 $104 $170 reversed $244 $-1 #
edge $-1 $177 -44.248176519058809 $261 44.248176519058809 $169 $262 forward 7 unknown #
coedge $-1 $163 $263 $105 $172 reversed $101 $-1 #
edge $-1 $264 -44.248176519058809 $176 44.248176519058809 $171 $265 forward 7 unknown #
coedge $-1 $166 $106 $263 $266 forward $175 $-1 #
coedge $-1 $106 $166 $259 $267 reversed $175 $-1 #
loop $-1 $-1 $173 $243 #
vertex $-1 $107 $268 #
vertex $-1 $107 $269 #
straight-curve $-1 44.248176519058809 0 9.6648512637317232 0 1 0 I I #
face $-1 $270 $271 $25 $-1 $272 reversed single #
loop $-1 $-1 $185 $108 #
plane-surface $-1 44.248176519058809 0 0 -1 0 0 0 0 1 forward_v I I I I #
coedge $-1 $273 $274 $183 $275 forward $109 $-1 #
coedge $-1 $276 $111 $182 $275 reversed $69 $-1 #
coedge $-1 $111 $276 $112 $188 reversed $69 $-1 #
coedge $-1 $114 $277 $111 $186 forward $180 $-1 #
edge $-1 $278 -5.8598340966137332 $192 -1.7502002376222454 $185 $279 forward 7 unknown #
coedge $-1 $113 $112 $280 $281 reversed $44 $-1 #
edge $-1 $192 -44.248176519058809 $282 44.248176519058809 $184 $283 forward 7 unknown #
coedge $-1 $284 $285 $113 $190 forward $271 $-1 #
edge $-1 $193 -44.248176519058809 $286 44.248176519058809 $189 $287 forward 7 unknown #
coedge $-1 $277 $114 $285 $288 forward $180 $-1 #
vertex $-1 $115 $289 #
vertex $-1 $288 $290 #
straight-curve $-1 44.248176519058809 -9.9340538871526078 -5.555217404740235 0 -1 0 I I #
face $-1 $-1 $207 $26 $-1 $291 forward single #
loop $-1 $-1 $292 $116 #
plane-surface $-1 -44.248176519058809 0 0 1 0 0 0 0 -1 forward_v I I I I #
coedge $-1 $293 $294 $200 $295 forward $117 $-1 #
coedge $-1 $296 $119 $121 $205 forward $73 $-1 #
coedge $-1 $119 $296 $198 $295 reversed $73 $-1 #
coedge $-1 $297 $122 $119 $202 forward $207 $-1 #
edge $-1 $209 5.174942966645439 $298 13.946096276257144 $201 $299 forward 7 unknown #
coedge $-1 $300 $292 $120 $204 forward $196 $-1 #
edge $-1 $301 -34.86873049456976 $208 -31.322597933056063 $203 $302 forward 7 unknown #
edge $-1 $209 -6.8851851680305867 $301 8.3777685069199533e-015 $121 $303 forward 7 unknown #
coedge $-1 $122 $297 $300 $304 forward $207 $-1 #
loop $-1 $-1 $201 $195 #
vertex $-1 $204 $305 #
vertex $-1 $123 $306 #
straight-curve $-1 -44.913584215339966 14.73546258809673 9.6648512637317268 1 0 0 I I #
coedge $-1 $211 $211 $-1 $307 reversed $126 $-1 #
edge $-1 $308 0 $308 6.2831853071796004 $127 $309 forward 7 unknown #
vertex $-1 $130 $310 #
ellipse-curve $-1 -41.297298740573183 17.241506390842936 7.8917849829748796 -0.51503808176128008 0 0.85716729658548041 0.85716729658548041 0 0.51503808176128008 1 I I #
coedge $-1 $215 $215 $-1 $311 reversed $133 $-1 #
edge $-1 $312 0 $312 6.2831853071796004 $134 $313 forward 7 unknown #
vertex $-1 $137 $314 #
ellipse-curve $-1 -41.297298740573183 21.000572094962237 7.8917849829748796 -0.51503808176128008 0 0.85716729658548041 0.85716729658548041 0 0.51503808176128008 1 I I #
face $-1 $-1 $231 $29 $-1 $315 reversed single #
loop $-1 $-1 $316 $138 #
plane-surface $-1 0 23.506615897708436 0 0 -1 0 0 0 -1 forward_v I I I I #
coedge $-1 $227 $317 $318 $319 forward $139 $-1 #
coedge $-1 $318 $141 $143 $229 forward $87 $-1 #
coedge $-1 $141 $318 $316 $320 reversed $87 $-1 #
coedge $-1 $321 $144 $141 $226 forward $231 $-1 #
edge $-1 $233 5.174942966645439 $322 13.946096276257144 $225 $323 forward 7 unknown #
coedge $-1 $324 $222 $142 $228 forward $139 $-1 #
edge $-1 $325 31.360926592426367 $232 37.262682149397612 $227 $326 forward 7 unknown #
edge $-1 $233 -88.496353038117604 $325 -81.611167870087002 $143 $327 forward 7 unknown #
coedge $-1 $144 $321 $324 $328 reversed $231 $-1 #
loop $-1 $-1 $225 $219 #
vertex $-1 $328 $329 #
vertex $-1 $145 $330 #
straight-curve $-1 44.248176519058809 14.73546258809673 63.776945152598344 0 0 -1 I I #
coedge $-1 $235 $235 $-1 $331 reversed $148 $-1 #
edge $-1 $332 0 $332 6.2831853071796004 $149 $333 forward 7 unknown #
vertex $-1 $152 $334 #
ellipse-curve $-1 41.29729874057319 17.241506390842936 7.8917849829748796 0.51503808176128008 0 0.85716729658548041 0.85716729658548041 0 -0.51503808176128008 1 I I #
coedge $-1 $239 $239 $-1 $335 reversed $155 $-1 #
edge $-1 $336 0 $336 6.2831853071796004 $156 $337 forward 7 unknown #
vertex $-1 $159 $338 #
ellipse-curve $-1 41.29729874057319 21.000572094962237 7.8917849829748796 0.51503808176128008 0 0.85716729658548041 0.85716729658548041 0 -0.51503808176128008 1 I I #
face $-1 $-1 $175 $24 $-1 $339 reversed single #
loop $-1 $-1 $259 $160 #
plane-surface $-1 0 23.506615897708436 0 0 -1 0 0 0 -1 forward_v I I I I #
coedge $-1 $340 $257 $260 $341 forward $161 $-1 #
coedge $-1 $263 $163 $164 $251 reversed $101 $-1 #
coedge $-1 $257 $340 $163 $249 reversed $161 $-1 #
edge $-1 $264 -9.6648512637317232 $342 9.6648512637317232 $248 $343 forward 7 unknown #
coedge $-1 $165 $164 $340 $344 forward $65 $-1 #
edge $-1 $255 -44.248176519058809 $342 44.248176519058809 $247 $345 forward 7 unknown #
coedge $-1 $260 $259 $165 $253 reversed $244 $-1 #
edge $-1 $346 -44.248176519058809 $254 44.248176519058809 $252 $347 forward 7 unknown #
vertex $-1 $167 $348 #
vertex $-1 $266 $349 #
straight-curve $-1 44.248176519058809 0 -9.6648512637317232 0 -1 0 I I #
coedge $-1 $246 $248 $168 $258 reversed $161 $-1 #
edge $-1 $261 -23.506615897708436 $264 23.506615897708436 $257 $350 forward 7 unknown #
coedge $-1 $252 $169 $174 $267 forward $244 $-1 #
coedge $-1 $169 $252 $246 $341 reversed $244 $-1 #
vertex $-1 $170 $351 #
straight-curve $-1 0 23.506615897708436 9.6648512637317232 -1 0 0 I I #
coedge $-1 $171 $247 $173 $266 reversed $101 $-1 #
vertex $-1 $258 $352 #
straight-curve $-1 0 -23.506615897708436 9.6648512637317232 1 0 0 I I #
edge $-1 $176 -9.6648512637317232 $255 9.6648512637317232 $173 $353 forward 7 unknown #
edge $-1 $177 -9.6648512637317232 $254 9.6648512637317232 $174 $354 forward 7 unknown #
point $-1 44.248176519058809 -23.506615897708436 9.6648512637317232 #
point $-1 44.248176519058809 23.506615897708436 9.6648512637317232 #
face $-1 $-1 $355 $25 $-1 $356 reversed single #
loop $-1 $-1 $189 $179 #
plane-surface $-1 0 -23.506615897708436 0 0 1 0 0 0 1 forward_v I I I I #
coedge $-1 $357 $182 $277 $358 forward $109 $-1 #
coedge $-1 $182 $357 $359 $360 forward $109 $-1 #
edge $-1 $361 -44.248176519058809 $278 44.248176519058809 $182 $362 forward 7 unknown #
coedge $-1 $184 $183 $363 $364 reversed $69 $-1 #
coedge $-1 $185 $191 $273 $358 reversed $180 $-1 #
vertex $-1 $358 $365 #
straight-curve $-1 44.248176519058809 -16.229599650901996 -3.8050171671179895 0 0 1 I I #
coedge $-1 $363 $366 $187 $281 forward $355 $-1 #
edge $-1 $286 -13.572562010555828 $282 -6.2955457637493879 $280 $367 forward 7 unknown #
vertex $-1 $281 $368 #
straight-curve $-1 0 -16.229599650901996 -5.555217404740235 -1 0 0 I I #
coedge $-1 $369 $189 $366 $370 forward $271 $-1 #
coedge $-1 $189 $369 $191 $288 reversed $271 $-1 #
vertex $-1 $370 $371 #
straight-curve $-1 0 -23.506615897708436 -5.555217404740235 -1 0 0 I I #
edge $-1 $193 5.555217404740235 $372 9.6648512637317232 $191 $373 forward 7 unknown #
point $-1 44.248176519058809 -16.229599650901996 -5.555217404740235 #
point $-1 44.248176519058809 -23.506615897708436 -5.555217404740235 #
plane-surface $-1 0 0 9.6648512637317232 0 0 1 1 0 0 forward_v I I I I #
coedge $-1 $203 $374 $296 $375 forward $196 $-1 #
coedge $-1 $294 $198 $374 $376 reversed $117 $-1 #
coedge $-1 $198 $293 $297 $377 reversed $117 $-1 #
edge $-1 $298 10.503173183195175 $378 17.388358351225769 $198 $379 forward 7 unknown #
coedge $-1 $200 $199 $292 $375 reversed $73 $-1 #
coedge $-1 $206 $201 $294 $377 forward $207 $-1 #
vertex $-1 $377 $380 #
straight-curve $-1 -38.346420962087578 9.5605196214512915 9.6648512637317232 0 1 0 I I #
coedge $-1 $374 $203 $206 $304 reversed $196 $-1 #
vertex $-1 $204 $381 #
straight-curve $-1 -44.248176519058809 14.73546258809673 40.987449196787786 0 0 1 I I #
straight-curve $-1 -44.248176519058802 14.73546258809673 6.1187187022180325 -0.85716729658548041 0 -0.51503808176128008 I I #
edge $-1 $382 -23.506615897708436 $208 -14.73546258809673 $300 $383 forward 7 unknown #
point $-1 -44.248176519058809 14.73546258809673 9.6648512637317232 #
point $-1 -38.346420962087578 14.73546258809673 9.6648512637317232 #
edge $-1 $384 1 $384 0 $211 $-1 forward 7 unknown #
vertex $-1 $212 $385 #
ellipse-curve $-1 -40.01609298226623 17.241506390842936 5.7595005653602236 -0.51503808176128008 0 0.85716729658548041 0.85716729658548041 0 0.51503808176128008 1 I I #
point $-1 -40.440131443987696 17.241506390842936 8.4068230647361499 #
edge $-1 $386 1 $386 0 $215 $-1 forward 7 unknown #
vertex $-1 $216 $387 #
ellipse-curve $-1 -40.01609298226623 21.000572094962237 5.7595005653602236 -0.51503808176128008 0 0.85716729658548041 0.85716729658548041 0 0.51503808176128008 1 I I #
point $-1 -40.440131443987696 21.000572094962237 8.4068230647361499 #
plane-surface $-1 44.248176519058809 0 0 -1 0 0 0 0 1 forward_v I I I I #
coedge $-1 $388 $389 $224 $320 forward $220 $-1 #
coedge $-1 $222 $324 $388 $390 forward $139 $-1 #
coedge $-1 $224 $223 $222 $319 reversed $87 $-1 #
edge $-1 $391 -13.946096276257144 $325 -5.174942966645439 $222 $392 forward 7 unknown #
edge $-1 $322 -61.636534870284578 $391 -54.751349702253961 $316 $393 forward 7 unknown #
coedge $-1 $230 $225 $389 $394 reversed $231 $-1 #
vertex $-1 $226 $395 #
straight-curve $-1 44.248176519058802 9.5605196214512915 6.1187187022180254 0 1 0 I I #
coedge $-1 $317 $227 $230 $328 forward $139 $-1 #
vertex $-1 $228 $396 #
straight-curve $-1 6.9854943696611969 14.73546258809673 9.6648512637317197 1 0 0 I I #
straight-curve $-1 -31.608003172298737 14.73546258809673 51.697710613839149 -0.85716729658548041 0 0.51503808176128008 I I #
edge $-1 $232 14.73546258809673 $397 23.506615897708436 $230 $398 forward 7 unknown #
point $-1 44.248176519058809 14.73546258809673 9.6648512637317232 #
point $-1 44.248176519058802 14.73546258809673 6.1187187022180183 #
edge $-1 $399 1 $399 0 $235 $-1 forward 7 unknown #
vertex $-1 $236 $400 #
ellipse-curve $-1 40.016092982266237 17.241506390842936 5.7595005653602342 0.51503808176128008 0 0.85716729658548041 0.85716729658548041 0 -0.51503808176128008 1 I I #
point $-1 42.154466037158663 17.241506390842936 7.3767469012136004 #
edge $-1 $401 1 $401 0 $239 $-1 forward 7 unknown #
vertex $-1 $240 $402 #
ellipse-curve $-1 40.016092982266237 21.000572094962237 5.7595005653602342 0.51503808176128008 0 0.85716729658548041 0.85716729658548041 0 -0.51503808176128008 1 I I #
point $-1 42.154466037158663 21.000572094962237 7.3767469012136004 #
plane-surface $-1 44.248176519058809 0 0 -1 0 0 0 0 1 forward_v I I I I #
coedge $-1 $248 $246 $250 $344 reversed $161 $-1 #
edge $-1 $261 -9.6648512637317232 $346 9.6648512637317232 $260 $403 forward 7 unknown #
vertex $-1 $344 $404 #
straight-curve $-1 -44.248176519058809 -23.506615897708436 0 0 0 -1 I I #
edge $-1 $342 -23.506615897708436 $346 23.506615897708436 $340 $405 forward 7 unknown #
straight-curve $-1 0 -23.506615897708436 -9.6648512637317232 -1 0 0 I I #
vertex $-1 $253 $406 #
straight-curve $-1 0 23.506615897708436 -9.6648512637317232 1 0 0 I I #
point $-1 44.248176519058809 23.506615897708436 -9.6648512637317232 #
point $-1 44.248176519058809 -23.506615897708436 -9.6648512637317232 #
straight-curve $-1 -44.248176519058809 0 9.6648512637317232 0 -1 0 I I #
point $-1 -44.248176519058809 23.506615897708436 9.6648512637317232 #
point $-1 -44.248176519058809 -23.506615897708436 9.6648512637317232 #
straight-curve $-1 44.248176519058809 -23.506615897708436 0 0 0 -1 I I #
straight-curve $-1 44.248176519058809 23.506615897708436 0 0 0 -1 I I #
loop $-1 $-1 $363 $270 #
plane-surface $-1 -44.248176519058809 0 0 1 0 0 0 0 -1 forward_v I I I I #
coedge $-1 $274 $273 $369 $407 forward $109 $-1 #
edge $-1 $278 16.229599650901996 $372 23.506615897708436 $277 $408 forward 7 unknown #
coedge $-1 $366 $363 $274 $360 reversed $355 $-1 #
edge $-1 $409 -23.506615897708436 $361 -16.229599650901996 $359 $410 forward 7 unknown #
vertex $-1 $364 $411 #
straight-curve $-1 0 -16.229599650901996 -9.6648512637317232 1 0 0 I I #
coedge $-1 $359 $280 $276 $364 forward $355 $-1 #
edge $-1 $282 1.7502002376222454 $361 5.8598340966137332 $363 $412 forward 7 unknown #
point $-1 44.248176519058809 -16.229599650901996 -9.6648512637317232 #
coedge $-1 $280 $359 $284 $370 reversed $355 $-1 #
straight-curve $-1 -44.248176519058809 -9.9340538871526078 -5.555217404740235 0 1 0 I I #
point $-1 -44.248176519058809 -16.229599650901996 -5.555217404740235 #
coedge $-1 $285 $284 $357 $407 reversed $271 $-1 #
edge $-1 $286 5.555217404740235 $409 9.6648512637317232 $366 $413 forward 7 unknown #
point $-1 -44.248176519058809 -23.506615897708436 -5.555217404740235 #
vertex $-1 $288 $414 #
straight-curve $-1 44.248176519058809 -23.506615897708436 0 0 0 -1 I I #
coedge $-1 $292 $300 $293 $376 forward $196 $-1 #
edge $-1 $378 -13.946096276257144 $301 -5.174942966645439 $292 $415 forward 7 unknown #
edge $-1 $382 -9.6648512637317232 $378 -6.118718702218028 $293 $416 forward 7 unknown #
edge $-1 $298 38.346420962087578 $382 44.248176519058809 $294 $417 forward 7 unknown #
vertex $-1 $295 $418 #
straight-curve $-1 -29.343444399079054 23.506615897708436 15.074385432411084 -0.85716729658548041 0 -0.51503808176128008 I I #
point $-1 -38.346420962087578 23.506615897708436 9.6648512637317232 #
point $-1 -44.248176519058809 14.73546258809673 6.118718702218028 #
vertex $-1 $377 $419 #
straight-curve $-1 -44.248176519058809 0 9.6648512637317232 0 -1 0 I I #
vertex $-1 $307 $420 #
point $-1 -39.158925685680749 17.241506390842936 6.2745386471215037 #
vertex $-1 $311 $421 #
point $-1 -39.158925685680749 21.000572094962237 6.2745386471215037 #
coedge $-1 $389 $316 $317 $390 reversed $220 $-1 #
coedge $-1 $316 $388 $321 $394 forward $220 $-1 #
edge $-1 $397 -44.248176519058809 $391 -38.346420962087564 $388 $422 forward 7 unknown #
vertex $-1 $320 $423 #
straight-curve $-1 38.346420962087549 9.5605196214512915 9.6648512637317232 0 -1 0 I I #
straight-curve $-1 -8.5846454465997155 23.506615897708436 37.863881388221643 -0.85716729658548041 0 0.51503808176128008 I I #
edge $-1 $397 -9.6648512637317232 $322 -6.1187187022180254 $321 $424 forward 7 unknown #
point $-1 44.248176519058809 23.506615897708436 6.1187187022180254 #
point $-1 38.346420962087564 14.73546258809673 9.6648512637317197 #
vertex $-1 $328 $425 #
straight-curve $-1 44.248176519058809 0 9.6648512637317232 0 1 0 I I #
vertex $-1 $331 $426 #
point $-1 40.873260278851717 17.241506390842936 5.2444624835989542 #
vertex $-1 $335 $427 #
point $-1 40.873260278851717 21.000572094962237 5.2444624835989542 #
straight-curve $-1 -44.248176519058809 23.506615897708436 0 0 0 -1 I I #
point $-1 -44.248176519058809 -23.506615897708436 -9.6648512637317232 #
straight-curve $-1 -44.248176519058809 0 -9.6648512637317232 0 1 0 I I #
point $-1 -44.248176519058809 23.506615897708436 -9.6648512637317232 #
edge $-1 $372 -44.248176519058809 $409 44.248176519058809 $369 $428 forward 7 unknown #
straight-curve $-1 44.248176519058809 0 -9.6648512637317232 0 -1 0 I I #
vertex $-1 $360 $429 #
straight-curve $-1 -44.248176519058809 0 -9.6648512637317232 0 1 0 I I #
point $-1 -44.248176519058809 -16.229599650901996 -9.6648512637317232 #
straight-curve $-1 -44.248176519058809 -16.229599650901996 -3.8050171671179895 0 0 -1 I I #
straight-curve $-1 -44.248176519058809 -23.506615897708436 0 0 0 -1 I I #
point $-1 44.248176519058809 -23.506615897708436 -9.6648512637317232 #
straight-curve $-1 -44.248176519058809 9.5605196214512915 6.1187187022180272 0 -1 0 I I #
straight-curve $-1 -44.248176519058809 23.506615897708436 0 0 0 -1 I I #
straight-curve $-1 0 23.506615897708436 9.6648512637317232 -1 0 0 I I #
point $-1 -44.248176519058809 23.506615897708436 6.118718702218028 #
point $-1 -44.248176519058809 23.506615897708436 9.6648512637317232 #
point $-1 -39.501054900504954 17.241506390842936 4.9023332687747434 #
point $-1 -39.501054900504954 21.000572094962237 4.9023332687747434 #
straight-curve $-1 0 23.506615897708436 9.6648512637317232 -1 0 0 I I #
point $-1 38.346420962087564 23.506615897708436 9.6648512637317197 #
straight-curve $-1 44.248176519058809 23.506615897708436 0 0 0 -1 I I #
point $-1 44.248176519058809 23.506615897708436 9.6648512637317232 #
point $-1 39.501054900504961 17.241506390842936 4.9023332687747541 #
point $-1 39.501054900504961 21.000572094962237 4.9023332687747541 #
straight-curve $-1 0 -23.506615897708436 -9.6648512637317232 -1 0 0 I I #
point $-1 -44.248176519058809 -23.506615897708436 -9.6648512637317232 #
End-of-ACIS-data 