500 0 11 0           
7 Unknown 11 ACIS 5.0 NT 24 Fri Mar 26 19:54:26 1999 
-1 9.9999999999999995e-007 1e-010 
body $-1 $11 $-1 $12 #
body $-1 $13 $-1 $14 #
body $-1 $15 $-1 $16 #
body $-1 $17 $-1 $18 #
body $-1 $19 $-1 $20 #
body $-1 $21 $-1 $22 #
body $-1 $23 $-1 $24 #
body $-1 $25 $-1 $26 #
body $-1 $27 $-1 $28 #
body $-1 $29 $-1 $30 #
body $-1 $31 $-1 $32 #
lump $-1 $-1 $33 $0 #
transform $-1 1 0 0 0 1 0 0 0 1 66.982024597918638 38.737225499072188 8.0584825469046777 1 rotate no_reflect no_shear #
lump $-1 $-1 $34 $1 #
transform $-1 1 0 0 0 1 0 0 0 1 66.982024597918638 38.737225499072188 8.0584825469046777 1 rotate no_reflect no_shear #
lump $-1 $-1 $35 $2 #
transform $-1 1 0 0 0 1 0 0 0 1 66.982024597918638 38.737225499072188 8.0584825469046777 1 rotate no_reflect no_shear #
lump $-1 $-1 $36 $3 #
transform $-1 1 0 0 0 1 0 0 0 1 66.982024597918638 38.737225499072188 8.0584825469046777 1 rotate no_reflect no_shear #
lump $-1 $-1 $37 $4 #
transform $-1 1 0 0 0 1 0 0 0 1 66.982024597918638 38.737225499072188 8.0584825469046777 1 rotate no_reflect no_shear #
lump $-1 $-1 $38 $5 #
transform $-1 1 0 0 0 1 0 0 0 1 66.982024597918638 38.737225499072188 8.0584825469046777 1 rotate no_reflect no_shear #
lump $-1 $-1 $39 $6 #
transform $-1 1 0 0 0 1 0 0 0 1 66.982024597918638 38.737225499072188 8.0584825469046777 1 rotate no_reflect no_shear #
lump $-1 $-1 $40 $7 #
transform $-1 1 0 0 0 1 0 0 0 1 66.982024597918638 38.737225499072188 8.0584825469046777 1 rotate no_reflect no_shear #
lump $-1 $-1 $41 $8 #
transform $-1 1 0 0 0 1 0 0 0 1 66.982024597918638 38.737225499072188 8.0584825469046777 1 rotate no_reflect no_shear #
lump $-1 $-1 $42 $9 #
transform $-1 1 0 0 0 1 0 0 0 1 66.982024597918638 38.737225499072188 8.0584825469046777 1 rotate no_reflect no_shear #
lump $-1 $-1 $43 $10 #
transform $-1 1 0 0 0 1 0 0 0 1 66.982024597918638 38.737225499072188 8.0584825469046777 1 rotate no_reflect no_shear #
shell $-1 $-1 $-1 $44 $-1 $11 #
shell $-1 $-1 $-1 $45 $-1 $13 #
shell $-1 $-1 $-1 $46 $-1 $15 #
shell $-1 $-1 $-1 $47 $-1 $17 #
shell $-1 $-1 $-1 $48 $-1 $19 #
shell $-1 $-1 $-1 $49 $-1 $21 #
shell $-1 $-1 $-1 $50 $-1 $23 #
shell $-1 $-1 $-1 $51 $-1 $25 #
shell $-1 $-1 $-1 $52 $-1 $27 #
shell $-1 $-1 $-1 $53 $-1 $29 #
shell $-1 $-1 $-1 $54 $-1 $31 #
face $-1 $55 $56 $33 $-1 $57 forward single #
face $-1 $58 $59 $34 $-1 $60 reversed single #
face $-1 $61 $62 $35 $-1 $63 reversed single #
face $-1 $64 $65 $36 $-1 $66 reversed single #
face $-1 $67 $68 $37 $-1 $69 forward single #
face $-1 $70 $71 $38 $-1 $72 reversed single #
face $-1 $73 $74 $39 $-1 $75 forward single #
face $-1 $76 $77 $40 $-1 $78 reversed single #
face $-1 $79 $80 $41 $-1 $81 forward single #
face $-1 $82 $83 $42 $-1 $84 forward single #
face $-1 $85 $86 $43 $-1 $87 forward single #
face $-1 $88 $89 $33 $-1 $90 reversed single #
loop $-1 $-1 $91 $44 #
plane-surface $-1 0 0 8.0584825469046777 0 0 1 1 0 0 forward_v I I I I #
face $-1 $92 $93 $34 $-1 $94 reversed single #
loop $-1 $-1 $95 $45 #
plane-surface $-1 -61.794739516756906 -27.760677954900189 0 0 1 0 0 0 1 forward_v I I I I #
face $-1 $96 $97 $35 $-1 $98 reversed single #
loop $-1 $-1 $99 $46 #
plane-surface $-1 61.794739516756891 -27.760677954900189 0 0 1 0 0 0 1 forward_v I I I I #
face $-1 $100 $101 $36 $-1 $102 reversed single #
loop $-1 $-1 $103 $47 #
plane-surface $-1 -56.607454435595166 46.723735474896635 156.03844618524337 1 0 0 0 -0.54463904215088732 -0.83867056331134215 forward_v I I I I #
face $-1 $104 $105 $37 $-1 $106 forward single #
loop $-1 $107 $108 $48 #
cone-surface $-1 -46.784462220232328 32.776345335332941 3.3820560797418708 0 -0.54463904215088732 -0.83867056331134215 2 0 0 1 I I 0 1 2 forward I I I I #
face $-1 $109 $110 $38 $-1 $111 reversed single #
loop $-1 $-1 $112 $49 #
plane-surface $-1 5.3290705182007514e-015 46.723735474896635 156.03844618524337 1 0 0 0 -0.54463904215088732 -0.83867056331134215 forward_v I I I I #
face $-1 $113 $114 $39 $-1 $115 forward single #
loop $-1 $116 $117 $50 #
cone-surface $-1 9.8229922153628451 32.776345335332941 3.3820560797418708 0 -0.54463904215088732 -0.83867056331134215 2 0 0 1 I I 0 1 2 forward I I I I #
face $-1 $118 $119 $40 $-1 $120 reversed single #
loop $-1 $-1 $121 $51 #
plane-surface $-1 -38.914666452053666 -152.34518343462256 74.52783998088978 -1 0 0 0 -0.84804810408105047 0.52991925155115449 forward_v I I I I #
face $-1 $122 $123 $41 $-1 $124 forward single #
loop $-1 $125 $126 $52 #
cone-surface $-1 -53.068896838886864 -36.478957521347844 5.2695684917662078 0 0.84804810408105047 -0.52991925155115449 1 0 0 1 I I 0 1 1 forward I I I I #
face $-1 $127 $128 $42 $-1 $129 forward single #
loop $-1 $130 $131 $53 #
cone-surface $-1 -47.76106044382442 -36.478957521347844 5.2695684917662078 0 0.84804810408105047 -0.52991925155115449 1 0 0 1 I I 0 1 1 forward I I I I #
face $-1 $132 $133 $43 $-1 $134 forward single #
loop $-1 $135 $136 $54 #
cone-surface $-1 -42.453224048761967 -36.478957521347844 5.2695684917662078 0 0.84804810408105047 -0.52991925155115449 1 0 0 1 I I 0 1 1 forward I I I I #
face $-1 $137 $138 $33 $-1 $139 reversed single #
loop $-1 $-1 $140 $55 #
plane-surface $-1 0 0 -8.0584825469046777 0 0 1 1 0 0 forward_v I I I I #
coedge $-1 $141 $142 $143 $144 forward $56 $-1 #
face $-1 $145 $146 $34 $-1 $147 reversed single #
loop $-1 $-1 $148 $58 #
plane-surface $-1 -61.794739516756906 -23.896924913687975 0 0 -1 0 0 0 -1 forward_v I I I I #
coedge $-1 $149 $150 $151 $152 reversed $59 $-1 #
face $-1 $153 $154 $35 $-1 $155 reversed single #
loop $-1 $-1 $156 $61 #
plane-surface $-1 56.607454435595159 -25.828801434294082 0 1 0 0 0 0 -1 forward_v I I I I #
coedge $-1 $157 $158 $159 $160 forward $62 $-1 #
face $-1 $161 $162 $36 $-1 $163 reversed single #
loop $-1 $-1 $164 $64 #
plane-surface $-1 -46.784462220232328 -26.238315961778532 43.686741582702169 0 0.54463904215088732 0.83867056331134215 1 0 0 forward_v I I I I #
coedge $-1 $165 $166 $167 $168 reversed $65 $-1 #
face $-1 $-1 $169 $37 $-1 $170 forward single #
loop $-1 $171 $172 $67 #
cone-surface $-1 -46.784462220232328 31.327243465378452 1.150634922766578 0 -0.54463904215088732 -0.83867056331134215 1 0 0 1 I I -0.70710678118654746 0.70710678118654746 1 forward I I I I #
loop $-1 $-1 $173 $48 #
coedge $-1 $108 $108 $174 $175 reversed $68 $-1 #
face $-1 $176 $177 $38 $-1 $178 reversed single #
loop $-1 $-1 $179 $70 #
plane-surface $-1 9.8229922153628451 -26.238315961778532 43.686741582702169 0 0.54463904215088732 0.83867056331134215 1 0 0 forward_v I I I I #
coedge $-1 $180 $181 $182 $183 reversed $71 $-1 #
face $-1 $-1 $184 $39 $-1 $185 forward single #
loop $-1 $186 $187 $73 #
cone-surface $-1 9.8229922153628451 31.327243465378452 1.150634922766578 0 -0.54463904215088732 -0.83867056331134215 1 0 0 1 I I -0.70710678118654746 0.70710678118654746 1 forward I I I I #
loop $-1 $-1 $188 $50 #
coedge $-1 $117 $117 $189 $190 reversed $74 $-1 #
face $-1 $191 $192 $40 $-1 $193 reversed single #
loop $-1 $-1 $194 $76 #
plane-surface $-1 -47.76106044382442 -38.737225499072181 3.5377112962696486 0 -0.84804810408105047 0.52991925155115449 1 0 0 forward_v I I I I #
coedge $-1 $195 $196 $197 $198 reversed $77 $-1 #
face $-1 $-1 $199 $41 $-1 $200 forward single #
loop $-1 $201 $202 $79 #
cone-surface $-1 -53.068896838886864 -35.209111145338909 4.4760804361696742 0 0.84804810408105047 -0.52991925155115449 0.5 0 0 1 I I -0.70710678118654746 0.70710678118654746 0.5 forward I I I I #
loop $-1 $-1 $203 $52 #
coedge $-1 $126 $126 $204 $205 reversed $80 $-1 #
face $-1 $-1 $206 $42 $-1 $207 forward single #
loop $-1 $208 $209 $82 #
cone-surface $-1 -47.76106044382442 -35.209111145338909 4.4760804361696742 0 0.84804810408105047 -0.52991925155115449 0.5 0 0 1 I I -0.70710678118654746 0.70710678118654746 0.5 forward I I I I #
loop $-1 $-1 $210 $53 #
coedge $-1 $131 $131 $211 $212 reversed $83 $-1 #
face $-1 $-1 $213 $43 $-1 $214 forward single #
loop $-1 $215 $216 $85 #
cone-surface $-1 -42.453224048761967 -35.209111145338909 4.4760804361696742 0 0.84804810408105047 -0.52991925155115449 0.5 0 0 1 I I -0.70710678118654746 0.70710678118654746 0.5 forward I I I I #
loop $-1 $-1 $217 $54 #
coedge $-1 $136 $136 $218 $219 reversed $86 $-1 #
face $-1 $220 $221 $33 $-1 $222 reversed single #
loop $-1 $-1 $223 $88 #
plane-surface $-1 0 -38.737225499072188 0 0 1 0 0 0 1 forward_v I I I I #
coedge $-1 $224 $225 $226 $227 forward $89 $-1 #
coedge $-1 $228 $91 $229 $230 forward $56 $-1 #
coedge $-1 $91 $228 $231 $232 forward $56 $-1 #
coedge $-1 $233 $234 $91 $144 reversed $235 $-1 #
edge $-1 $236 -38.737225499072188 $237 38.737225499072188 $143 $238 forward 7 unknown #
face $-1 $239 $240 $34 $-1 $241 reversed single #
loop $-1 $-1 $242 $92 #
plane-surface $-1 -56.607454435595173 -25.828801434294082 0 -1 0 0 0 0 1 forward_v I I I I #
coedge $-1 $243 $244 $245 $246 forward $93 $-1 #
coedge $-1 $247 $95 $248 $249 reversed $59 $-1 #
coedge $-1 $95 $247 $250 $251 reversed $59 $-1 #
coedge $-1 $252 $253 $95 $152 forward $254 $-1 #
edge $-1 $255 -8.0584825469046777 $256 8.0584825469046777 $151 $257 forward 7 unknown #
face $-1 $258 $259 $35 $-1 $260 reversed single #
loop $-1 $-1 $261 $96 #
plane-surface $-1 61.794739516756891 -23.896924913687975 0 0 -1 0 0 0 -1 forward_v I I I I #
coedge $-1 $262 $263 $264 $265 forward $97 $-1 #
coedge $-1 $266 $99 $267 $268 reversed $62 $-1 #
coedge $-1 $99 $266 $269 $270 reversed $62 $-1 #
coedge $-1 $263 $262 $99 $160 reversed $97 $-1 #
edge $-1 $271 -8.0584825469046777 $272 8.0584825469046777 $159 $273 forward 7 unknown #
face $-1 $274 $275 $36 $-1 $276 reversed single #
loop $-1 $-1 $277 $100 #
plane-surface $-1 -36.96147000486949 46.723735474896635 156.03844618524337 -1 0 0 0 0.54463904215088732 0.83867056331134215 forward_v I I I I #
coedge $-1 $278 $279 $280 $281 reversed $101 $-1 #
coedge $-1 $166 $103 $282 $283 reversed $65 $-1 #
coedge $-1 $103 $165 $278 $284 reversed $65 $-1 #
coedge $-1 $280 $285 $103 $168 forward $286 $-1 #
edge $-1 $287 -15.375357761623871 $288 -5.2625230897525093 $167 $289 forward 7 unknown #
loop $-1 $-1 $174 $104 #
plane-surface $-1 -46.784462220232328 -26.238315961778532 43.686741582702169 0 0.54463904215088732 0.83867056331134215 1 0 0 forward_v I I I I #
loop $-1 $-1 $290 $67 #
coedge $-1 $172 $172 $173 $291 reversed $105 $-1 #
coedge $-1 $173 $173 $172 $291 forward $107 $-1 #
coedge $-1 $174 $174 $108 $175 forward $169 $-1 #
edge $-1 $292 -1.374073411597558e-015 $292 6.2831853071795987 $174 $293 forward 7 unknown #
face $-1 $294 $295 $38 $-1 $296 forward single #
loop $-1 $-1 $297 $109 #
plane-surface $-1 19.645984430725683 46.723735474896635 156.03844618524337 -1 0 0 0 0.54463904215088732 0.83867056331134215 forward_v I I I I #
coedge $-1 $298 $299 $300 $301 reversed $110 $-1 #
coedge $-1 $181 $112 $302 $303 reversed $71 $-1 #
coedge $-1 $112 $180 $298 $304 reversed $71 $-1 #
coedge $-1 $300 $305 $112 $183 forward $295 $-1 #
edge $-1 $306 -15.375357761623871 $307 -5.2625230897525093 $182 $308 forward 7 unknown #
loop $-1 $-1 $189 $113 #
plane-surface $-1 9.8229922153628451 -26.238315961778532 43.686741582702169 0 0.54463904215088732 0.83867056331134215 1 0 0 forward_v I I I I #
loop $-1 $-1 $309 $73 #
coedge $-1 $187 $187 $188 $310 reversed $114 $-1 #
coedge $-1 $188 $188 $187 $310 forward $116 $-1 #
coedge $-1 $189 $189 $117 $190 forward $184 $-1 #
edge $-1 $311 -1.374073411597558e-015 $311 6.2831853071795987 $189 $312 forward 7 unknown #
face $-1 $313 $314 $40 $-1 $315 forward single #
loop $-1 $-1 $316 $118 #
plane-surface $-1 -56.607454435595173 -152.34518343462256 74.52783998088978 1 0 0 0 0.84804810408105047 -0.52991925155115449 forward_v I I I I #
coedge $-1 $317 $318 $319 $320 reversed $119 $-1 #
coedge $-1 $196 $121 $321 $322 reversed $77 $-1 #
coedge $-1 $121 $195 $317 $323 reversed $77 $-1 #
coedge $-1 $319 $324 $121 $198 forward $314 $-1 #
edge $-1 $325 37.435366218239089 $326 40.26025752575098 $197 $327 forward 7 unknown #
loop $-1 $-1 $204 $122 #
plane-surface $-1 -47.76106044382442 -38.737225499072181 3.5377112962696486 0 -0.84804810408105047 0.52991925155115449 1 0 0 forward_v I I I I #
loop $-1 $-1 $328 $79 #
coedge $-1 $202 $202 $203 $329 reversed $123 $-1 #
coedge $-1 $203 $203 $202 $329 forward $125 $-1 #
coedge $-1 $204 $204 $126 $205 forward $199 $-1 #
edge $-1 $330 1.5072234270957425e-015 $330 6.2831853071796022 $204 $331 forward 7 unknown #
loop $-1 $-1 $211 $127 #
plane-surface $-1 -47.76106044382442 -38.737225499072181 3.5377112962696486 0 -0.84804810408105047 0.52991925155115449 1 0 0 forward_v I I I I #
loop $-1 $-1 $332 $82 #
coedge $-1 $209 $209 $210 $333 reversed $128 $-1 #
coedge $-1 $210 $210 $209 $333 forward $130 $-1 #
coedge $-1 $211 $211 $131 $212 forward $206 $-1 #
edge $-1 $334 1.5072234270957425e-015 $334 6.2831853071796022 $211 $335 forward 7 unknown #
loop $-1 $-1 $218 $132 #
plane-surface $-1 -47.76106044382442 -38.737225499072181 3.5377112962696486 0 -0.84804810408105047 0.52991925155115449 1 0 0 forward_v I I I I #
loop $-1 $-1 $336 $85 #
coedge $-1 $216 $216 $217 $337 reversed $133 $-1 #
coedge $-1 $217 $217 $216 $337 forward $135 $-1 #
coedge $-1 $218 $218 $136 $219 forward $213 $-1 #
edge $-1 $338 1.5072234270957425e-015 $338 6.2831853071796022 $218 $339 forward 7 unknown #
face $-1 $340 $341 $33 $-1 $342 reversed single #
loop $-1 $-1 $343 $137 #
plane-surface $-1 -66.982024597918638 0 0 1 0 0 0 0 -1 forward_v I I I I #
coedge $-1 $344 $231 $345 $346 forward $138 $-1 #
coedge $-1 $347 $140 $344 $348 forward $89 $-1 #
coedge $-1 $140 $347 $349 $350 forward $89 $-1 #
coedge $-1 $234 $233 $140 $227 reversed $235 $-1 #
edge $-1 $351 -38.737225499072188 $352 38.737225499072188 $226 $353 forward 7 unknown #
coedge $-1 $142 $141 $354 $355 forward $56 $-1 #
coedge $-1 $356 $357 $141 $230 reversed $341 $-1 #
edge $-1 $237 -66.982024597918638 $358 66.982024597918638 $229 $359 forward 7 unknown #
coedge $-1 $223 $360 $142 $232 reversed $138 $-1 #
edge $-1 $361 -66.982024597918638 $236 66.982024597918638 $231 $362 forward 7 unknown #
coedge $-1 $226 $143 $360 $363 forward $235 $-1 #
coedge $-1 $143 $226 $356 $364 reversed $235 $-1 #
loop $-1 $-1 $233 $340 #
vertex $-1 $144 $365 #
vertex $-1 $144 $366 #
straight-curve $-1 66.982024597918638 0 8.0584825469046777 0 1 0 I I #
face $-1 $367 $368 $34 $-1 $369 forward single #
loop $-1 $-1 $370 $145 #
plane-surface $-1 0 0 -8.0584825469046777 0 0 1 1 0 0 forward_v I I I I #
coedge $-1 $371 $372 $247 $373 forward $146 $-1 #
coedge $-1 $374 $148 $370 $375 reversed $93 $-1 #
coedge $-1 $148 $374 $376 $377 reversed $93 $-1 #
coedge $-1 $372 $371 $148 $246 reversed $146 $-1 #
edge $-1 $378 -8.0584825469046777 $379 8.0584825469046777 $245 $380 forward 7 unknown #
coedge $-1 $150 $149 $242 $373 reversed $59 $-1 #
coedge $-1 $381 $382 $149 $249 forward $240 $-1 #
edge $-1 $383 25.71008467721672 $255 36.084654839540185 $248 $384 forward 7 unknown #
coedge $-1 $385 $386 $150 $251 forward $368 $-1 #
edge $-1 $256 -36.084654839540185 $387 -25.71008467721672 $250 $388 forward 7 unknown #
coedge $-1 $389 $151 $386 $390 reversed $254 $-1 #
coedge $-1 $151 $389 $381 $391 reversed $254 $-1 #
loop $-1 $-1 $389 $367 #
vertex $-1 $391 $392 #
vertex $-1 $152 $393 #
straight-curve $-1 -66.982024597918638 -27.760677954900189 0 0 0 1 I I #
face $-1 $394 $395 $35 $-1 $396 forward single #
loop $-1 $-1 $267 $153 #
plane-surface $-1 0 0 -8.0584825469046777 0 0 1 1 0 0 forward_v I I I I #
coedge $-1 $397 $398 $399 $400 reversed $154 $-1 #
coedge $-1 $159 $156 $401 $402 reversed $97 $-1 #
coedge $-1 $156 $159 $403 $404 reversed $97 $-1 #
coedge $-1 $398 $397 $156 $265 reversed $154 $-1 #
edge $-1 $405 -8.0584825469046777 $406 8.0584825469046777 $264 $407 forward 7 unknown #
coedge $-1 $158 $157 $408 $409 reversed $62 $-1 #
coedge $-1 $401 $410 $157 $268 forward $259 $-1 #
edge $-1 $411 -36.084654839540178 $272 -25.710084677216713 $267 $412 forward 7 unknown #
coedge $-1 $413 $403 $158 $270 forward $395 $-1 #
edge $-1 $271 25.710084677216713 $414 36.084654839540178 $269 $415 forward 7 unknown #
vertex $-1 $270 $416 #
vertex $-1 $268 $417 #
straight-curve $-1 56.607454435595159 -27.760677954900189 0 0 0 -1 I I #
face $-1 $-1 $286 $36 $-1 $418 forward single #
loop $-1 $-1 $419 $161 #
plane-surface $-1 0 38.737225499072188 0 0 -1 0 0 0 -1 forward_v I I I I #
coedge $-1 $420 $421 $422 $423 reversed $162 $-1 #
coedge $-1 $424 $164 $166 $284 forward $101 $-1 #
coedge $-1 $164 $424 $420 $425 forward $101 $-1 #
coedge $-1 $422 $167 $164 $281 forward $286 $-1 #
edge $-1 $288 -33.215223325479002 $426 -13.569238894753326 $280 $427 forward 7 unknown #
coedge $-1 $428 $429 $165 $283 forward $275 $-1 #
edge $-1 $430 -76.528092292714717 $287 -69.960740545717016 $282 $431 forward 7 unknown #
edge $-1 $288 65.416278082258756 $430 77.474450998144377 $166 $432 forward 7 unknown #
coedge $-1 $167 $422 $428 $433 forward $286 $-1 #
loop $-1 $-1 $422 $274 #
vertex $-1 $283 $434 #
vertex $-1 $168 $435 #
straight-curve $-1 -56.607454435595166 23.361867737448318 8.0584825469046848 0 -1 0 I I #
coedge $-1 $290 $290 $-1 $436 reversed $171 $-1 #
edge $-1 $437 0 $437 6.2831853071796004 $172 $438 forward 7 unknown #
vertex $-1 $175 $439 #
ellipse-curve $-1 -46.784462220232328 33.680808163136533 4.7748066734058057 0 0.54463904215088732 0.83867056331134215 2 0 0 1 I I #
face $-1 $-1 $440 $38 $-1 $441 reversed single #
loop $-1 $-1 $182 $176 #
plane-surface $-1 0 0 8.0584825469046777 0 0 1 1 0 0 forward_v I I I I #
coedge $-1 $442 $443 $444 $445 reversed $177 $-1 #
coedge $-1 $446 $179 $181 $304 forward $110 $-1 #
coedge $-1 $179 $446 $442 $447 forward $110 $-1 #
coedge $-1 $444 $182 $179 $301 forward $295 $-1 #
edge $-1 $307 -4.9114961076814172 $448 14.73448832304426 $300 $449 forward 7 unknown #
coedge $-1 $450 $451 $180 $303 forward $440 $-1 #
edge $-1 $452 -76.528092292714717 $306 -69.960740545717016 $302 $453 forward 7 unknown #
edge $-1 $307 65.416278082258756 $452 77.474450998144377 $181 $454 forward 7 unknown #
coedge $-1 $182 $444 $450 $455 forward $295 $-1 #
vertex $-1 $303 $456 #
vertex $-1 $183 $457 #
straight-curve $-1 5.3290705182007514e-015 23.361867737448318 8.0584825469046848 0 -1 0 I I #
coedge $-1 $309 $309 $-1 $458 reversed $186 $-1 #
edge $-1 $459 0 $459 6.2831853071796004 $187 $460 forward 7 unknown #
vertex $-1 $190 $461 #
ellipse-curve $-1 9.8229922153628451 33.680808163136533 4.7748066734058057 0 0.54463904215088732 0.83867056331134215 2 0 0 1 I I #
face $-1 $-1 $462 $40 $-1 $463 reversed single #
loop $-1 $-1 $197 $191 #
plane-surface $-1 0 0 8.0584825469046777 0 0 1 1 0 0 forward_v I I I I #
coedge $-1 $464 $465 $466 $467 reversed $192 $-1 #
coedge $-1 $468 $194 $196 $323 forward $119 $-1 #
coedge $-1 $194 $468 $464 $469 forward $119 $-1 #
coedge $-1 $466 $197 $194 $320 forward $314 $-1 #
edge $-1 $326 15.034136230141456 $470 32.726924213682963 $319 $471 forward 7 unknown #
coedge $-1 $472 $473 $195 $322 forward $462 $-1 #
edge $-1 $474 -33.726208694175256 $325 -29.205437443540212 $321 $475 forward 7 unknown #
edge $-1 $326 -5.3307957754752149 $474 1.3557137071152151e-014 $196 $476 forward 7 unknown #
coedge $-1 $197 $466 $472 $477 forward $314 $-1 #
vertex $-1 $198 $478 #
vertex $-1 $198 $479 #
straight-curve $-1 -38.914666452053666 -76.172591717311278 8.0584825469046777 0 1 0 I I #
coedge $-1 $328 $328 $-1 $480 reversed $201 $-1 #
edge $-1 $481 0 $481 6.2831853071796004 $202 $482 forward 7 unknown #
vertex $-1 $205 $483 #
ellipse-curve $-1 -53.068896838886864 -37.324779845316243 5.7980969215871587 0 -0.84804810408105047 0.52991925155115449 1 0 0 1 I I #
coedge $-1 $332 $332 $-1 $484 reversed $208 $-1 #
edge $-1 $485 0 $485 6.2831853071796004 $209 $486 forward 7 unknown #
vertex $-1 $212 $487 #
ellipse-curve $-1 -47.76106044382442 -37.324779845316243 5.7980969215871587 0 -0.84804810408105047 0.52991925155115449 1 0 0 1 I I #
coedge $-1 $336 $336 $-1 $488 reversed $215 $-1 #
edge $-1 $489 0 $489 6.2831853071796004 $216 $490 forward 7 unknown #
vertex $-1 $219 $491 #
ellipse-curve $-1 -42.453224048761967 -37.324779845316243 5.7980969215871587 0 -0.84804810408105047 0.52991925155115449 1 0 0 1 I I #
face $-1 $-1 $235 $33 $-1 $492 reversed single #
loop $-1 $-1 $356 $220 #
plane-surface $-1 0 38.737225499072188 0 0 -1 0 0 0 -1 forward_v I I I I #
coedge $-1 $493 $354 $357 $494 forward $221 $-1 #
coedge $-1 $360 $223 $224 $348 reversed $138 $-1 #
coedge $-1 $354 $493 $223 $346 reversed $221 $-1 #
edge $-1 $361 -8.0584825469046777 $495 8.0584825469046777 $345 $496 forward 7 unknown #
coedge $-1 $225 $224 $493 $497 forward $89 $-1 #
edge $-1 $352 -66.982024597918638 $495 66.982024597918638 $344 $498 forward 7 unknown #
coedge $-1 $357 $356 $225 $350 reversed $341 $-1 #
edge $-1 $499 -66.982024597918638 $351 66.982024597918638 $349 $500 forward 7 unknown #
vertex $-1 $227 $501 #
vertex $-1 $363 $502 #
straight-curve $-1 66.982024597918638 0 -8.0584825469046777 0 -1 0 I I #
coedge $-1 $343 $345 $228 $355 reversed $221 $-1 #
edge $-1 $358 -38.737225499072188 $361 38.737225499072188 $354 $503 forward 7 unknown #
coedge $-1 $349 $229 $234 $364 forward $341 $-1 #
coedge $-1 $229 $349 $343 $494 reversed $341 $-1 #
vertex $-1 $230 $504 #
straight-curve $-1 0 38.737225499072188 8.0584825469046777 -1 0 0 I I #
coedge $-1 $231 $344 $233 $363 reversed $138 $-1 #
vertex $-1 $355 $505 #
straight-curve $-1 0 -38.737225499072188 8.0584825469046777 1 0 0 I I #
edge $-1 $236 -8.0584825469046777 $352 8.0584825469046777 $233 $506 forward 7 unknown #
edge $-1 $237 -8.0584825469046777 $351 8.0584825469046777 $234 $507 forward 7 unknown #
point $-1 66.982024597918638 -38.737225499072188 8.0584825469046777 #
point $-1 66.982024597918638 38.737225499072188 8.0584825469046777 #
face $-1 $-1 $254 $34 $-1 $508 reversed single #
loop $-1 $-1 $376 $239 #
plane-surface $-1 0 0 8.0584825469046777 0 0 1 1 0 0 forward_v I I I I #
coedge $-1 $382 $381 $243 $375 forward $240 $-1 #
coedge $-1 $245 $242 $382 $509 reversed $146 $-1 #
coedge $-1 $242 $245 $385 $510 reversed $146 $-1 #
edge $-1 $387 -8.0584825469046777 $383 8.0584825469046777 $242 $511 forward 7 unknown #
coedge $-1 $244 $243 $389 $512 reversed $93 $-1 #
edge $-1 $513 -36.084654839540185 $379 -25.71008467721672 $370 $514 forward 7 unknown #
coedge $-1 $386 $385 $244 $377 forward $368 $-1 #
edge $-1 $378 25.71008467721672 $515 36.084654839540185 $376 $516 forward 7 unknown #
vertex $-1 $377 $517 #
vertex $-1 $375 $518 #
straight-curve $-1 -56.607454435595173 -23.896924913687975 0 0 0 -1 I I #
coedge $-1 $370 $248 $253 $391 forward $240 $-1 #
coedge $-1 $248 $370 $371 $509 forward $240 $-1 #
vertex $-1 $249 $519 #
straight-curve $-1 -30.897369758378453 -27.760677954900189 -8.0584825469046777 -1 0 0 I I #
coedge $-1 $376 $250 $372 $510 forward $368 $-1 #
coedge $-1 $250 $376 $252 $390 forward $368 $-1 #
vertex $-1 $251 $520 #
straight-curve $-1 -30.897369758378453 -27.760677954900189 8.0584825469046777 1 0 0 I I #
coedge $-1 $253 $252 $374 $512 forward $254 $-1 #
edge $-1 $515 23.896924913687975 $256 27.760677954900189 $252 $521 forward 7 unknown #
edge $-1 $255 -27.760677954900189 $513 -23.896924913687975 $253 $522 forward 7 unknown #
point $-1 -66.982024597918638 -27.760677954900189 -8.0584825469046777 #
point $-1 -66.982024597918638 -27.760677954900189 8.0584825469046777 #
face $-1 $-1 $523 $35 $-1 $524 reversed single #
loop $-1 $-1 $269 $258 #
plane-surface $-1 0 0 8.0584825469046777 0 0 1 1 0 0 forward_v I I I I #
coedge $-1 $264 $261 $525 $526 reversed $154 $-1 #
coedge $-1 $261 $264 $527 $528 reversed $154 $-1 #
coedge $-1 $529 $530 $261 $400 forward $523 $-1 #
edge $-1 $531 -8.0584825469046777 $532 8.0584825469046777 $399 $533 forward 7 unknown #
coedge $-1 $525 $267 $262 $402 forward $259 $-1 #
edge $-1 $272 -14.846277237753148 $406 -10.982524196540934 $401 $534 forward 7 unknown #
coedge $-1 $269 $527 $263 $404 forward $395 $-1 #
edge $-1 $405 10.982524196540934 $271 14.846277237753148 $403 $535 forward 7 unknown #
vertex $-1 $404 $536 #
vertex $-1 $402 $537 #
straight-curve $-1 56.607454435595159 -23.896924913687975 0 0 0 -1 I I #
coedge $-1 $530 $529 $266 $409 forward $523 $-1 #
edge $-1 $414 -8.0584825469046777 $411 8.0584825469046777 $408 $538 forward 7 unknown #
coedge $-1 $267 $525 $530 $539 forward $259 $-1 #
vertex $-1 $409 $540 #
straight-curve $-1 30.897369758378446 -27.760677954900189 -8.0584825469046777 -1 0 0 I I #
coedge $-1 $527 $269 $529 $541 forward $395 $-1 #
vertex $-1 $541 $542 #
straight-curve $-1 30.897369758378446 -27.760677954900189 8.0584825469046777 1 0 0 I I #
point $-1 56.607454435595159 -27.760677954900189 8.0584825469046777 #
point $-1 56.607454435595159 -27.760677954900189 -8.0584825469046777 #
plane-surface $-1 0 0 8.0584825469046777 0 0 1 1 0 0 forward_v I I I I #
coedge $-1 $429 $428 $421 $543 forward $275 $-1 #
coedge $-1 $421 $277 $279 $425 reversed $162 $-1 #
coedge $-1 $277 $420 $419 $543 reversed $162 $-1 #
coedge $-1 $285 $280 $277 $423 forward $286 $-1 #
edge $-1 $426 5.2625230897525093 $544 15.375357761623871 $422 $545 forward 7 unknown #
coedge $-1 $279 $278 $429 $546 reversed $101 $-1 #
edge $-1 $547 -77.474450998144377 $426 -65.416278082258756 $420 $548 forward 7 unknown #
vertex $-1 $281 $549 #
straight-curve $-1 -23.392231110116164 28.624390827200827 8.0584825469046777 1 0 0 I I #
coedge $-1 $419 $282 $285 $433 reversed $275 $-1 #
coedge $-1 $282 $419 $424 $546 forward $275 $-1 #
vertex $-1 $283 $550 #
straight-curve $-1 -56.607454435595166 38.737225499072188 78.019223092621687 0 0 1 I I #
straight-curve $-1 -56.607454435595166 -26.238315961778532 43.686741582702169 0 0.83867056331134215 -0.54463904215088732 I I #
edge $-1 $544 36.96147000486949 $287 56.607454435595166 $428 $551 forward 7 unknown #
point $-1 -56.607454435595166 38.737225499072188 8.0584825469046777 #
point $-1 -56.607454435595166 28.624390827200827 8.0584825469046777 #
edge $-1 $552 1 $552 0 $290 $-1 forward 7 unknown #
vertex $-1 $291 $553 #
ellipse-curve $-1 -46.784462220232328 31.871882507529339 1.98930548607792 0 0.54463904215088732 0.83867056331134215 2 0 0 1 I I #
point $-1 -44.784462220232328 33.68080816313654 4.7748066734058217 #
loop $-1 $-1 $302 $294 #
plane-surface $-1 0 38.737225499072188 0 0 -1 0 0 0 -1 forward_v I I I I #
coedge $-1 $443 $297 $299 $447 reversed $177 $-1 #
coedge $-1 $297 $442 $554 $555 reversed $177 $-1 #
coedge $-1 $305 $300 $297 $445 forward $295 $-1 #
edge $-1 $448 5.2625230897525093 $556 15.375357761623871 $444 $557 forward 7 unknown #
coedge $-1 $299 $298 $451 $558 reversed $110 $-1 #
edge $-1 $559 -77.474450998144377 $448 -65.416278082258756 $442 $560 forward 7 unknown #
vertex $-1 $301 $561 #
straight-curve $-1 4.9114961076814225 28.624390827200827 8.0584825469046777 1 0 0 I I #
coedge $-1 $554 $302 $305 $455 reversed $440 $-1 #
coedge $-1 $302 $554 $446 $558 forward $440 $-1 #
vertex $-1 $303 $562 #
straight-curve $-1 5.3290705182007514e-015 38.737225499072188 78.019223092621687 0 0 1 I I #
straight-curve $-1 5.3290705182007514e-015 -26.238315961778532 43.686741582702169 0 0.83867056331134215 -0.54463904215088732 I I #
edge $-1 $556 -19.645984430725683 $306 -5.3290705182007514e-015 $450 $563 forward 7 unknown #
point $-1 5.3290705182007514e-015 38.737225499072188 8.0584825469046777 #
point $-1 5.3290705182007514e-015 28.624390827200827 8.0584825469046777 #
edge $-1 $564 1 $564 0 $309 $-1 forward 7 unknown #
vertex $-1 $310 $565 #
ellipse-curve $-1 9.8229922153628451 31.871882507529339 1.98930548607792 0 0.54463904215088732 0.83867056331134215 2 0 0 1 I I #
point $-1 11.822992215362845 33.68080816313654 4.7748066734058217 #
loop $-1 $-1 $321 $313 #
plane-surface $-1 0 -38.737225499072188 0 0 1 0 0 0 1 forward_v I I I I #
coedge $-1 $465 $316 $318 $469 reversed $192 $-1 #
coedge $-1 $316 $464 $566 $567 reversed $192 $-1 #
coedge $-1 $324 $319 $316 $467 forward $314 $-1 #
edge $-1 $470 -40.26025752575098 $568 -37.435366218239089 $466 $569 forward 7 unknown #
coedge $-1 $318 $317 $473 $570 reversed $119 $-1 #
edge $-1 $571 -1.3557137071152151e-014 $470 5.3307957754752149 $464 $572 forward 7 unknown #
vertex $-1 $320 $573 #
straight-curve $-1 -23.88053022191221 -35.912334191560305 8.0584825469046777 -1 0 0 I I #
coedge $-1 $566 $321 $324 $477 reversed $462 $-1 #
coedge $-1 $321 $566 $468 $570 forward $462 $-1 #
vertex $-1 $322 $574 #
straight-curve $-1 -38.914666452053666 -38.737225499072188 37.26391999044489 0 0 1 I I #
straight-curve $-1 -38.914666452053666 -38.737225499072181 3.5377112962696486 0 -0.52991925155115449 -0.84804810408105047 I I #
edge $-1 $568 -56.607454435595173 $325 -38.914666452053666 $472 $575 forward 7 unknown #
point $-1 -38.914666452053666 -38.737225499072188 8.0584825469046777 #
point $-1 -38.914666452053666 -35.912334191560298 8.0584825469046777 #
edge $-1 $576 1 $576 0 $328 $-1 forward 7 unknown #
vertex $-1 $329 $577 #
ellipse-curve $-1 -53.068896838886864 -35.633135197379431 4.7410400619452515 0 -0.84804810408105047 0.52991925155115449 1 0 0 1 I I #
point $-1 -52.068896838886864 -37.32477984531625 5.7980969215871649 #
edge $-1 $578 1 $578 0 $332 $-1 forward 7 unknown #
vertex $-1 $333 $579 #
ellipse-curve $-1 -47.76106044382442 -35.633135197379431 4.7410400619452515 0 -0.84804810408105047 0.52991925155115449 1 0 0 1 I I #
point $-1 -46.76106044382442 -37.32477984531625 5.7980969215871649 #
edge $-1 $580 1 $580 0 $336 $-1 forward 7 unknown #
vertex $-1 $337 $581 #
ellipse-curve $-1 -42.453224048761967 -35.633135197379431 4.7410400619452515 0 -0.84804810408105047 0.52991925155115449 1 0 0 1 I I #
point $-1 -41.453224048761967 -37.32477984531625 5.7980969215871649 #
plane-surface $-1 66.982024597918638 0 0 -1 0 0 0 0 1 forward_v I I I I #
coedge $-1 $345 $343 $347 $497 reversed $221 $-1 #
edge $-1 $358 -8.0584825469046777 $499 8.0584825469046777 $357 $582 forward 7 unknown #
vertex $-1 $497 $583 #
straight-curve $-1 -66.982024597918638 -38.737225499072188 0 0 0 -1 I I #
edge $-1 $495 -38.737225499072188 $499 38.737225499072188 $493 $584 forward 7 unknown #
straight-curve $-1 0 -38.737225499072188 -8.0584825469046777 -1 0 0 I I #
vertex $-1 $350 $585 #
straight-curve $-1 0 38.737225499072188 -8.0584825469046777 1 0 0 I I #
point $-1 66.982024597918638 38.737225499072188 -8.0584825469046777 #
point $-1 66.982024597918638 -38.737225499072188 -8.0584825469046777 #
straight-curve $-1 -66.982024597918638 0 8.0584825469046777 0 -1 0 I I #
point $-1 -66.982024597918638 38.737225499072188 8.0584825469046777 #
point $-1 -66.982024597918638 -38.737225499072188 8.0584825469046777 #
straight-curve $-1 66.982024597918638 -38.737225499072188 0 0 0 -1 I I #
straight-curve $-1 66.982024597918638 38.737225499072188 0 0 0 -1 I I #
plane-surface $-1 -66.982024597918638 0 0 1 0 0 0 0 -1 forward_v I I I I #
edge $-1 $379 10.982524196540934 $383 14.846277237753148 $382 $586 forward 7 unknown #
edge $-1 $387 -14.846277237753148 $378 -10.982524196540934 $385 $587 forward 7 unknown #
straight-curve $-1 -56.607454435595173 -27.760677954900189 0 0 0 -1 I I #
edge $-1 $515 -8.0584825469046777 $513 8.0584825469046777 $389 $588 forward 7 unknown #
vertex $-1 $512 $589 #
straight-curve $-1 -30.897369758378453 -23.896924913687975 -8.0584825469046777 1 0 0 I I #
vertex $-1 $390 $590 #
straight-curve $-1 -30.897369758378453 -23.896924913687975 8.0584825469046777 -1 0 0 I I #
point $-1 -56.607454435595173 -23.896924913687975 8.0584825469046777 #
point $-1 -56.607454435595173 -23.896924913687975 -8.0584825469046777 #
point $-1 -56.607454435595173 -27.760677954900189 -8.0584825469046777 #
point $-1 -56.607454435595173 -27.760677954900189 8.0584825469046777 #
straight-curve $-1 -66.982024597918638 0 8.0584825469046777 0 -1 0 I I #
straight-curve $-1 -66.982024597918638 0 -8.0584825469046777 0 1 0 I I #
loop $-1 $-1 $408 $394 #
plane-surface $-1 66.982024597918638 0 0 -1 0 0 0 0 1 forward_v I I I I #
coedge $-1 $410 $401 $397 $526 forward $259 $-1 #
edge $-1 $406 25.710084677216713 $531 36.084654839540178 $525 $591 forward 7 unknown #
coedge $-1 $403 $413 $398 $528 forward $395 $-1 #
edge $-1 $532 -36.084654839540178 $405 -25.710084677216713 $527 $592 forward 7 unknown #
coedge $-1 $408 $399 $413 $541 reversed $523 $-1 #
coedge $-1 $399 $408 $410 $539 reversed $523 $-1 #
vertex $-1 $539 $593 #
vertex $-1 $400 $594 #
straight-curve $-1 66.982024597918638 -23.896924913687975 0 0 0 1 I I #
straight-curve $-1 56.607454435595159 -12.914400717147041 -8.0584825469046777 0 1 0 I I #
straight-curve $-1 56.607454435595159 -12.914400717147041 8.0584825469046777 0 -1 0 I I #
point $-1 56.607454435595159 -23.896924913687975 8.0584825469046777 #
point $-1 56.607454435595159 -23.896924913687975 -8.0584825469046777 #
straight-curve $-1 66.982024597918638 -27.760677954900189 0 0 0 -1 I I #
edge $-1 $531 23.896924913687975 $411 27.760677954900189 $530 $595 forward 7 unknown #
point $-1 66.982024597918624 -27.760677954900189 -8.0584825469046777 #
edge $-1 $414 -27.760677954900189 $532 -23.896924913687975 $529 $596 forward 7 unknown #
point $-1 66.982024597918624 -27.760677954900189 8.0584825469046777 #
edge $-1 $544 69.960740545717016 $547 76.528092292714717 $419 $597 forward 7 unknown #
vertex $-1 $433 $598 #
straight-curve $-1 -36.96147000486949 23.361867737448318 8.0584825469046848 0 1 0 I I #
edge $-1 $547 13.569238894753326 $430 33.215223325479002 $429 $599 forward 7 unknown #
vertex $-1 $546 $600 #
straight-curve $-1 -36.96147000486949 -26.238315961778532 43.686741582702169 0 -0.83867056331134215 0.54463904215088732 I I #
point $-1 -36.96147000486949 28.624390827200827 8.0584825469046777 #
point $-1 -56.607454435595166 38.737225499072188 1.4911307999069621 #
straight-curve $-1 0 38.737225499072188 8.0584825469046777 -1 0 0 I I #
vertex $-1 $436 $601 #
point $-1 -44.784462220232328 31.871882507529339 1.98930548607792 #
coedge $-1 $451 $450 $443 $555 forward $440 $-1 #
edge $-1 $556 69.960740545717016 $559 76.528092292714717 $554 $602 forward 7 unknown #
vertex $-1 $455 $603 #
straight-curve $-1 19.645984430725683 23.361867737448318 8.0584825469046848 0 1 0 I I #
edge $-1 $559 -14.73448832304426 $452 4.9114961076814172 $451 $604 forward 7 unknown #
vertex $-1 $558 $605 #
straight-curve $-1 19.645984430725683 -26.238315961778532 43.686741582702169 0 -0.83867056331134215 0.54463904215088732 I I #
point $-1 19.645984430725683 28.624390827200827 8.0584825469046777 #
point $-1 5.3290705182007514e-015 38.737225499072188 1.4911307999069621 #
straight-curve $-1 0 38.737225499072188 8.0584825469046777 -1 0 0 I I #
vertex $-1 $458 $606 #
point $-1 11.822992215362845 31.871882507529339 1.98930548607792 #
coedge $-1 $473 $472 $465 $567 forward $462 $-1 #
edge $-1 $568 29.205437443540212 $571 33.726208694175256 $566 $607 forward 7 unknown #
vertex $-1 $477 $608 #
straight-curve $-1 -56.607454435595173 -76.172591717311278 8.0584825469046777 0 -1 0 I I #
edge $-1 $571 -32.726924213682963 $474 -15.034136230141456 $473 $609 forward 7 unknown #
vertex $-1 $570 $610 #
straight-curve $-1 -56.607454435595173 -38.737225499072181 3.5377112962696486 0 0.52991925155115449 0.84804810408105047 I I #
point $-1 -56.607454435595173 -35.912334191560298 8.0584825469046777 #
point $-1 -38.914666452053666 -38.737225499072188 3.5377112962696371 #
straight-curve $-1 0 -38.737225499072188 8.0584825469046777 1 0 0 I I #
vertex $-1 $480 $611 #
point $-1 -52.068896838886864 -35.633135197379431 4.7410400619452515 #
vertex $-1 $484 $612 #
point $-1 -46.76106044382442 -35.633135197379431 4.7410400619452515 #
vertex $-1 $488 $613 #
point $-1 -41.453224048761967 -35.633135197379431 4.7410400619452515 #
straight-curve $-1 -66.982024597918638 38.737225499072188 0 0 0 -1 I I #
point $-1 -66.982024597918638 -38.737225499072188 -8.0584825469046777 #
straight-curve $-1 -66.982024597918638 0 -8.0584825469046777 0 1 0 I I #
point $-1 -66.982024597918638 38.737225499072188 -8.0584825469046777 #
straight-curve $-1 -56.607454435595173 -12.914400717147041 -8.0584825469046777 0 -1 0 I I #
straight-curve $-1 -56.607454435595173 -12.914400717147041 8.0584825469046777 0 1 0 I I #
straight-curve $-1 -66.982024597918638 -23.896924913687975 0 0 0 -1 I I #
point $-1 -66.982024597918638 -23.896924913687975 -8.0584825469046777 #
point $-1 -66.982024597918638 -23.896924913687975 8.0584825469046777 #
straight-curve $-1 30.897369758378446 -23.896924913687975 -8.0584825469046777 1 0 0 I I #
straight-curve $-1 30.897369758378446 -23.896924913687975 8.0584825469046777 -1 0 0 I I #
point $-1 66.982024597918624 -23.896924913687975 -8.0584825469046777 #
point $-1 66.982024597918624 -23.896924913687975 8.0584825469046777 #
straight-curve $-1 66.982024597918638 0 -8.0584825469046777 0 -1 0 I I #
straight-curve $-1 66.982024597918638 0 8.0584825469046777 0 1 0 I I #
straight-curve $-1 -36.96147000486949 38.737225499072188 78.019223092621687 0 0 -1 I I #
point $-1 -36.96147000486949 38.737225499072188 8.0584825469046777 #
straight-curve $-1 -23.392231110116164 38.737225499072188 1.4911307999069585 -1 0 0 I I #
point $-1 -36.96147000486949 38.737225499072188 1.4911307999069621 #
point $-1 -46.784462220232328 30.782604423227564 0.31196435945523582 #
straight-curve $-1 19.645984430725683 38.737225499072188 78.019223092621687 0 0 -1 I I #
point $-1 19.645984430725683 38.737225499072188 8.0584825469046777 #
straight-curve $-1 4.9114961076814225 38.737225499072188 1.4911307999069585 -1 0 0 I I #
point $-1 19.645984430725683 38.737225499072188 1.4911307999069621 #
point $-1 9.8229922153628451 30.782604423227564 0.31196435945523582 #
straight-curve $-1 -56.607454435595173 -38.737225499072188 37.26391999044489 0 0 -1 I I #
point $-1 -56.607454435595173 -38.737225499072188 8.0584825469046777 #
straight-curve $-1 -23.88053022191221 -38.737225499072188 3.5377112962696287 1 0 0 I I #
point $-1 -56.607454435595173 -38.737225499072188 3.5377112962696371 #
point $-1 -53.068896838886864 -34.785087093298387 4.2111208103940969 #
point $-1 -47.76106044382442 -34.785087093298387 4.2111208103940969 #
point $-1 -42.453224048761967 -34.785087093298387 4.2111208103940969 #
End-of-ACIS-data 