500 0 4 0           
7 Unknown 11 ACIS 5.0 NT 24 Thu Mar 25 21:19:30 1999 
-1 9.9999999999999995e-007 1e-010 
body $-1 $4 $-1 $5 #
body $-1 $6 $-1 $7 #
body $-1 $8 $-1 $9 #
body $-1 $10 $-1 $11 #
lump $-1 $-1 $12 $0 #
transform $-1 1 0 0 0 1 0 0 0 1 65.211951048310794 32.493530831805487 13.297982699100571 1 rotate no_reflect no_shear #
lump $-1 $-1 $13 $1 #
transform $-1 1 0 0 0 1 0 0 0 1 65.211951048310794 32.493530831805487 13.297982699100571 1 rotate no_reflect no_shear #
lump $-1 $-1 $14 $2 #
transform $-1 1 0 0 0 1 0 0 0 1 65.211951048310794 32.493530831805487 13.297982699100571 1 rotate no_reflect no_shear #
lump $-1 $-1 $15 $3 #
transform $-1 1 0 0 0 1 0 0 0 1 65.211951048310794 32.493530831805487 13.297982699100571 1 rotate no_reflect no_shear #
shell $-1 $-1 $-1 $16 $-1 $4 #
shell $-1 $-1 $-1 $17 $-1 $6 #
shell $-1 $-1 $-1 $18 $-1 $8 #
shell $-1 $-1 $-1 $19 $-1 $10 #
face $-1 $20 $21 $12 $-1 $22 forward single #
face $-1 $23 $24 $13 $-1 $25 reversed single #
face $-1 $26 $27 $14 $-1 $28 forward single #
face $-1 $29 $30 $15 $-1 $31 reversed single #
face $-1 $32 $33 $12 $-1 $34 reversed single #
loop $-1 $-1 $35 $16 #
plane-surface $-1 0 0 13.297982699100571 0 0 1 1 0 0 forward_v I I I I #
face $-1 $36 $37 $13 $-1 $38 forward single #
loop $-1 $-1 $39 $17 #
plane-surface $-1 -58.589874650162969 0 0.96334143313874954 0 0 1 1 0 0 forward_v I I I I #
face $-1 $40 $41 $14 $-1 $42 forward single #
loop $-1 $-1 $43 $18 #
plane-surface $-1 48.959416283297486 59.083620720262331 144.26792831017772 1 0 0 0 -0.6018150307709319 -0.79863550430605224 forward_v I I I I #
face $-1 $44 $45 $15 $-1 $46 reversed single #
loop $-1 $47 $48 $19 #
cone-surface $-1 57.08568366580414 21.966991417296832 4.0097720243485391 0 -0.6018150307709319 -0.79863550430605224 2 0 0 1 I I 0 1 2 forward I I I I #
face $-1 $49 $50 $12 $-1 $51 reversed single #
loop $-1 $-1 $52 $20 #
plane-surface $-1 0 0 -13.297982699100571 0 0 1 1 0 0 forward_v I I I I #
coedge $-1 $53 $54 $55 $56 forward $21 $-1 #
face $-1 $57 $58 $13 $-1 $59 forward single #
loop $-1 $-1 $60 $23 #
plane-surface $-1 -58.589874650162969 0 -3.2223555779389645 0 0 1 1 0 0 forward_v I I I I #
coedge $-1 $61 $62 $63 $64 reversed $24 $-1 #
face $-1 $65 $66 $14 $-1 $67 forward single #
loop $-1 $-1 $68 $26 #
plane-surface $-1 57.08568366580414 -19.407443933281002 40.106769485679152 0 0.6018150307709319 0.79863550430605224 1 0 0 forward_v I I I I #
coedge $-1 $69 $70 $71 $72 reversed $27 $-1 #
face $-1 $73 $74 $15 $-1 $75 forward single #
loop $-1 $76 $77 $29 #
cone-surface $-1 57.08568366580414 19.000893868105521 0.07362770940039276 0 -0.6018150307709319 -0.79863550430605224 1 0 0 1 I I -0.70710678118654746 0.70710678118654746 1 forward I I I I #
loop $-1 $-1 $78 $19 #
coedge $-1 $48 $48 $79 $80 reversed $30 $-1 #
face $-1 $81 $82 $12 $-1 $83 reversed single #
loop $-1 $-1 $84 $32 #
plane-surface $-1 0 -32.493530831805487 0 0 1 0 0 0 1 forward_v I I I I #
coedge $-1 $85 $86 $87 $88 forward $33 $-1 #
coedge $-1 $89 $35 $90 $91 forward $21 $-1 #
coedge $-1 $35 $89 $92 $93 forward $21 $-1 #
coedge $-1 $94 $95 $35 $56 reversed $96 $-1 #
edge $-1 $97 -32.493530831805487 $98 32.493530831805487 $55 $99 forward 7 unknown #
face $-1 $100 $101 $13 $-1 $102 reversed single #
loop $-1 $-1 $103 $36 #
plane-surface $-1 -51.967798252015143 0 -1.1295070724001075 -1 0 0 0 0 1 forward_v I I I I #
coedge $-1 $104 $105 $106 $107 reversed $37 $-1 #
coedge $-1 $108 $39 $109 $110 reversed $24 $-1 #
coedge $-1 $39 $108 $111 $112 reversed $24 $-1 #
coedge $-1 $113 $103 $39 $64 forward $58 $-1 #
edge $-1 $114 -32.493530831805487 $115 32.493530831805487 $63 $116 forward 7 unknown #
face $-1 $117 $118 $14 $-1 $119 reversed single #
loop $-1 $-1 $120 $40 #
plane-surface $-1 0 0 13.297982699100571 0 0 1 1 0 0 forward_v I I I I #
coedge $-1 $121 $122 $120 $123 reversed $41 $-1 #
coedge $-1 $70 $43 $122 $124 forward $27 $-1 #
coedge $-1 $43 $69 $125 $126 reversed $27 $-1 #
coedge $-1 $127 $120 $43 $72 forward $66 $-1 #
edge $-1 $128 -13.372793320502289 $129 2.9517204716743208 $71 $130 forward 7 unknown #
face $-1 $131 $132 $15 $-1 $133 forward single #
loop $-1 $-1 $134 $44 #
plane-surface $-1 48.959416283297486 59.083620720262331 144.26792831017772 1 0 0 0 -0.6018150307709319 -0.79863550430605224 forward_v I I I I #
loop $-1 $-1 $135 $29 #
coedge $-1 $77 $77 $78 $136 forward $45 $-1 #
coedge $-1 $78 $78 $77 $136 reversed $47 $-1 #
coedge $-1 $79 $79 $48 $80 forward $132 $-1 #
edge $-1 $137 5.74855249120901e-016 $137 6.2831853071796013 $79 $138 forward 7 unknown #
face $-1 $139 $140 $12 $-1 $141 reversed single #
loop $-1 $-1 $142 $49 #
plane-surface $-1 -65.211951048310794 0 0 1 0 0 0 0 -1 forward_v I I I I #
coedge $-1 $143 $92 $144 $145 forward $50 $-1 #
coedge $-1 $146 $52 $143 $147 forward $33 $-1 #
coedge $-1 $52 $146 $148 $149 forward $33 $-1 #
coedge $-1 $95 $94 $52 $88 reversed $96 $-1 #
edge $-1 $150 -32.493530831805487 $151 32.493530831805487 $87 $152 forward 7 unknown #
coedge $-1 $54 $53 $153 $154 forward $21 $-1 #
coedge $-1 $155 $156 $53 $91 reversed $140 $-1 #
edge $-1 $98 -65.211951048310794 $157 65.211951048310794 $90 $158 forward 7 unknown #
coedge $-1 $84 $159 $54 $93 reversed $50 $-1 #
edge $-1 $160 -65.211951048310794 $97 65.211951048310794 $92 $161 forward 7 unknown #
coedge $-1 $87 $55 $159 $162 forward $96 $-1 #
coedge $-1 $55 $87 $155 $163 reversed $96 $-1 #
loop $-1 $-1 $94 $139 #
vertex $-1 $56 $164 #
vertex $-1 $56 $165 #
straight-curve $-1 65.211951048310794 0 13.297982699100571 0 1 0 I I #
face $-1 $166 $167 $13 $-1 $102 reversed single #
loop $-1 $-1 $168 $57 #
plane-surface $-1 -65.211951048310794 0 0 1 0 0 0 0 -1 forward_v I I I I #
coedge $-1 $63 $106 $169 $170 reversed $58 $-1 #
coedge $-1 $171 $60 $172 $173 reversed $37 $-1 #
coedge $-1 $60 $171 $174 $175 reversed $37 $-1 #
coedge $-1 $103 $113 $60 $107 forward $58 $-1 #
edge $-1 $176 -32.493530831805487 $177 32.493530831805487 $106 $178 forward 7 unknown #
coedge $-1 $62 $61 $179 $180 reversed $24 $-1 #
coedge $-1 $169 $181 $61 $110 forward $182 $-1 #
edge $-1 $183 -35.91701372322931 $114 -22.672860926933659 $109 $184 forward 7 unknown #
coedge $-1 $185 $186 $62 $112 forward $187 $-1 #
edge $-1 $115 22.672860926933659 $188 35.91701372322931 $111 $189 forward 7 unknown #
coedge $-1 $106 $63 $186 $190 reversed $58 $-1 #
vertex $-1 $110 $191 #
vertex $-1 $112 $192 #
straight-curve $-1 -51.967798252015143 0 0.96334143313874954 0 1 0 I I #
face $-1 $193 $194 $14 $-1 $195 reversed single #
loop $-1 $-1 $125 $65 #
plane-surface $-1 0 32.493530831805487 0 0 -1 0 0 0 -1 forward_v I I I I #
coedge $-1 $71 $196 $68 $123 forward $66 $-1 #
coedge $-1 $197 $68 $198 $199 reversed $41 $-1 #
coedge $-1 $68 $197 $69 $124 reversed $41 $-1 #
edge $-1 $200 -36.669109215408724 $128 -20.416574450395416 $120 $201 forward 7 unknown #
edge $-1 $128 44.546555695420608 $202 64.987061663611016 $69 $203 forward 7 unknown #
coedge $-1 $204 $205 $70 $126 forward $118 $-1 #
edge $-1 $129 58.835981455988289 $202 71.137385184208213 $125 $206 forward 7 unknown #
coedge $-1 $207 $71 $205 $208 forward $66 $-1 #
vertex $-1 $123 $209 #
vertex $-1 $208 $210 #
straight-curve $-1 48.959416283297486 29.541810360131166 13.297982699100572 0 1 0 I I #
face $-1 $211 $212 $15 $-1 $213 forward single #
loop $-1 $214 $79 $73 #
plane-surface $-1 57.08568366580414 -19.407443933281002 40.106769485679152 0 0.6018150307709319 0.79863550430605224 1 0 0 forward_v I I I I #
coedge $-1 $215 $216 $217 $218 reversed $74 $-1 #
coedge $-1 $135 $135 $-1 $219 forward $76 $-1 #
edge $-1 $220 0 $220 6.2831853071796004 $77 $221 forward 7 unknown #
vertex $-1 $80 $222 #
ellipse-curve $-1 57.08568366580414 24.331273935717189 7.1472808349906032 0 -0.6018150307709319 -0.79863550430605224 2 0 0 1 I I #
face $-1 $-1 $96 $12 $-1 $223 reversed single #
loop $-1 $-1 $155 $81 #
plane-surface $-1 0 32.493530831805487 0 0 -1 0 0 0 -1 forward_v I I I I #
coedge $-1 $224 $153 $156 $225 forward $82 $-1 #
coedge $-1 $159 $84 $85 $147 reversed $50 $-1 #
coedge $-1 $153 $224 $84 $145 reversed $82 $-1 #
edge $-1 $160 -13.297982699100571 $226 13.297982699100571 $144 $227 forward 7 unknown #
coedge $-1 $86 $85 $224 $228 forward $33 $-1 #
edge $-1 $151 -65.211951048310794 $226 65.211951048310794 $143 $229 forward 7 unknown #
coedge $-1 $156 $155 $86 $149 reversed $140 $-1 #
edge $-1 $230 -65.211951048310794 $150 65.211951048310794 $148 $231 forward 7 unknown #
vertex $-1 $88 $232 #
vertex $-1 $162 $233 #
straight-curve $-1 65.211951048310794 0 -13.297982699100571 0 -1 0 I I #
coedge $-1 $142 $144 $89 $154 reversed $82 $-1 #
edge $-1 $157 -32.493530831805487 $160 32.493530831805487 $153 $234 forward 7 unknown #
coedge $-1 $148 $90 $95 $163 forward $140 $-1 #
coedge $-1 $90 $148 $142 $225 reversed $140 $-1 #
vertex $-1 $91 $235 #
straight-curve $-1 0 32.493530831805487 13.297982699100571 -1 0 0 I I #
coedge $-1 $92 $143 $94 $162 reversed $50 $-1 #
vertex $-1 $154 $236 #
straight-curve $-1 0 -32.493530831805487 13.297982699100571 1 0 0 I I #
edge $-1 $97 -13.297982699100571 $151 13.297982699100571 $94 $237 forward 7 unknown #
edge $-1 $98 -13.297982699100571 $150 13.297982699100571 $95 $238 forward 7 unknown #
point $-1 65.211951048310794 -32.493530831805487 13.297982699100571 #
point $-1 65.211951048310794 32.493530831805487 13.297982699100571 #
face $-1 $239 $182 $13 $-1 $240 reversed single #
loop $-1 $-1 $179 $100 #
coedge $-1 $241 $242 $171 $243 forward $101 $-1 #
coedge $-1 $174 $109 $103 $170 forward $182 $-1 #
edge $-1 $114 -1.5280949693388033 $177 2.6576020417389108 $169 $244 forward 7 unknown #
coedge $-1 $105 $104 $168 $243 reversed $37 $-1 #
coedge $-1 $186 $245 $104 $173 forward $187 $-1 #
edge $-1 $246 -35.91701372322931 $176 -22.672860926933659 $172 $247 forward 7 unknown #
coedge $-1 $248 $169 $105 $175 forward $182 $-1 #
edge $-1 $177 22.672860926933659 $249 35.91701372322931 $174 $250 forward 7 unknown #
vertex $-1 $173 $251 #
vertex $-1 $175 $252 #
straight-curve $-1 -51.967798252015143 0 -3.2223555779389645 0 -1 0 I I #
coedge $-1 $253 $254 $108 $180 forward $167 $-1 #
edge $-1 $188 -32.493530831805487 $183 32.493530831805487 $179 $255 forward 7 unknown #
coedge $-1 $109 $256 $253 $257 forward $182 $-1 #
loop $-1 $-1 $109 $166 #
vertex $-1 $110 $258 #
straight-curve $-1 -29.294937325081484 -32.493530831805487 0.96334143313874954 1 0 0 I I #
coedge $-1 $259 $111 $254 $260 reversed $187 $-1 #
coedge $-1 $111 $172 $113 $190 forward $187 $-1 #
loop $-1 $-1 $111 $261 #
vertex $-1 $180 $262 #
straight-curve $-1 -29.294937325081484 32.493530831805487 0.96334143313874954 -1 0 0 I I #
edge $-1 $176 -2.6576020417389108 $115 1.5280949693388033 $186 $263 forward 7 unknown #
point $-1 -51.967798252015143 -32.493530831805487 0.96334143313874954 #
point $-1 -51.967798252015143 32.493530831805487 0.96334143313874954 #
face $-1 $264 $265 $14 $-1 $266 forward single #
loop $-1 $-1 $267 $117 #
plane-surface $-1 -58.589874650162969 0 0.96334143313874954 0 0 1 1 0 0 forward_v I I I I #
coedge $-1 $120 $268 $269 $270 forward $66 $-1 #
coedge $-1 $122 $121 $204 $271 reversed $41 $-1 #
coedge $-1 $269 $272 $121 $199 forward $273 $-1 #
edge $-1 $274 -45.168896421064019 $200 -24.728390452873619 $198 $275 forward 7 unknown #
vertex $-1 $199 $276 #
straight-curve $-1 28.54284183290207 16.169017039628869 13.297982699100569 -1 0 0 I I #
vertex $-1 $271 $277 #
straight-curve $-1 48.959416283297486 -19.407443933281002 40.106769485679152 0 0.79863550430605224 -0.6018150307709319 I I #
coedge $-1 $278 $125 $197 $271 forward $118 $-1 #
coedge $-1 $125 $279 $127 $208 reversed $118 $-1 #
straight-curve $-1 48.959416283297486 32.493530831805487 72.133964155088862 0 0 -1 I I #
coedge $-1 $268 $127 $280 $281 forward $66 $-1 #
edge $-1 $129 -48.959416283297486 $282 65.211951048310794 $205 $283 forward 7 unknown #
point $-1 48.959416283297486 16.169017039628876 13.297982699100572 #
point $-1 48.959416283297486 32.493530831805487 13.297982699100571 #
face $-1 $284 $285 $15 $-1 $286 reversed single #
loop $-1 $-1 $287 $131 #
plane-surface $-1 0 0 13.297982699100571 0 0 1 1 0 0 forward_v I I I I #
loop $-1 $-1 $288 $73 #
coedge $-1 $216 $134 $289 $290 forward $74 $-1 #
coedge $-1 $134 $215 $291 $292 reversed $74 $-1 #
coedge $-1 $293 $287 $134 $218 forward $212 $-1 #
edge $-1 $294 -13.372793320502289 $295 2.9517204716743208 $217 $296 forward 7 unknown #
edge $-1 $297 1 $297 0 $135 $-1 forward 7 unknown #
vertex $-1 $136 $298 #
ellipse-curve $-1 57.08568366580414 19.602708898876454 0.872263213706445 0 0.6018150307709319 0.79863550430605224 2 0 0 1 I I #
point $-1 59.08568366580414 24.33127393571721 7.1472808349906334 #
plane-surface $-1 65.211951048310794 0 0 -1 0 0 0 0 1 forward_v I I I I #
coedge $-1 $144 $142 $146 $228 reversed $82 $-1 #
edge $-1 $157 -13.297982699100571 $230 13.297982699100571 $156 $299 forward 7 unknown #
vertex $-1 $228 $300 #
straight-curve $-1 -65.211951048310794 -32.493530831805487 0 0 0 -1 I I #
edge $-1 $226 -32.493530831805487 $230 32.493530831805487 $224 $301 forward 7 unknown #
straight-curve $-1 0 -32.493530831805487 -13.297982699100571 -1 0 0 I I #
vertex $-1 $149 $302 #
straight-curve $-1 0 32.493530831805487 -13.297982699100571 1 0 0 I I #
point $-1 65.211951048310794 32.493530831805487 -13.297982699100571 #
point $-1 65.211951048310794 -32.493530831805487 -13.297982699100571 #
straight-curve $-1 -65.211951048310794 0 13.297982699100571 0 -1 0 I I #
point $-1 -65.211951048310794 32.493530831805487 13.297982699100571 #
point $-1 -65.211951048310794 -32.493530831805487 13.297982699100571 #
straight-curve $-1 65.211951048310794 -32.493530831805487 0 0 0 -1 I I #
straight-curve $-1 65.211951048310794 32.493530831805487 0 0 0 -1 I I #
face $-1 $303 $304 $13 $-1 $305 forward single #
plane-surface $-1 0 -32.493530831805487 0 0 1 0 0 0 1 forward_v I I I I #
coedge $-1 $306 $168 $245 $307 forward $101 $-1 #
coedge $-1 $168 $306 $248 $308 reversed $101 $-1 #
edge $-1 $249 -32.493530831805487 $246 32.493530831805487 $168 $309 forward 7 unknown #
straight-curve $-1 -51.967798252015143 -32.493530831805487 -0.56475353620005375 0 0 -1 I I #
coedge $-1 $172 $310 $241 $307 reversed $187 $-1 #
vertex $-1 $307 $311 #
straight-curve $-1 -29.294937325081484 32.493530831805487 -3.2223555779389645 1 0 0 I I #
coedge $-1 $312 $174 $242 $308 forward $182 $-1 #
vertex $-1 $308 $313 #
straight-curve $-1 -29.294937325081484 -32.493530831805487 -3.2223555779389645 -1 0 0 I I #
point $-1 -51.967798252015143 32.493530831805487 -3.2223555779389645 #
point $-1 -51.967798252015143 -32.493530831805487 -3.2223555779389645 #
coedge $-1 $314 $179 $181 $257 reversed $167 $-1 #
coedge $-1 $179 $314 $185 $260 forward $167 $-1 #
straight-curve $-1 -65.211951048310794 0 0.96334143313874954 0 -1 0 I I #
coedge $-1 $181 $315 $316 $317 reversed $182 $-1 #
edge $-1 $318 -13.297982699100571 $183 -0.96334143313874954 $253 $319 forward 7 unknown #
point $-1 -65.211951048310794 -32.493530831805487 0.96334143313874954 #
coedge $-1 $320 $185 $321 $322 reversed $187 $-1 #
edge $-1 $323 -13.297982699100571 $188 -0.96334143313874954 $185 $324 forward 7 unknown #
face $-1 $325 $187 $13 $-1 $326 reversed single #
point $-1 -65.211951048310794 32.493530831805487 0.96334143313874954 #
straight-curve $-1 -51.967798252015143 32.493530831805487 -0.56475353620005375 0 0 1 I I #
face $-1 $327 $328 $14 $-1 $329 forward single #
loop $-1 $-1 $330 $193 #
plane-surface $-1 -58.589874650162969 0 -3.2223555779389645 0 0 1 1 0 0 forward_v I I I I #
coedge $-1 $331 $332 $333 $334 reversed $194 $-1 #
coedge $-1 $196 $207 $335 $336 forward $66 $-1 #
coedge $-1 $337 $198 $196 $270 reversed $273 $-1 #
edge $-1 $338 -32.493530831805487 $200 16.169017039628876 $269 $339 forward 7 unknown #
edge $-1 $202 20.416574450395416 $274 36.669109215408724 $204 $340 forward 7 unknown #
coedge $-1 $198 $341 $278 $342 reversed $273 $-1 #
loop $-1 $-1 $198 $343 #
vertex $-1 $342 $344 #
straight-curve $-1 65.211951048310794 -3.5799535403788116 28.179899760412326 0 -0.79863550430605224 0.6018150307709319 I I #
point $-1 65.211951048310794 16.169017039628876 13.297982699100572 #
point $-1 48.959416283297486 32.493530831805487 0.99657897088064828 #
coedge $-1 $345 $204 $272 $342 forward $118 $-1 #
coedge $-1 $205 $346 $347 $348 reversed $118 $-1 #
coedge $-1 $347 $349 $207 $281 reversed $350 $-1 #
edge $-1 $282 -32.493530831805487 $351 32.493530831805487 $280 $352 forward 7 unknown #
vertex $-1 $208 $353 #
straight-curve $-1 0 32.493530831805487 13.297982699100571 -1 0 0 I I #
face $-1 $354 $355 $15 $-1 $356 reversed single #
loop $-1 $-1 $291 $211 #
plane-surface $-1 0 32.493530831805487 0 0 -1 0 0 0 -1 forward_v I I I I #
coedge $-1 $217 $357 $288 $358 forward $212 $-1 #
coedge $-1 $359 $289 $287 $358 reversed $214 $-1 #
coedge $-1 $288 $360 $215 $290 reversed $214 $-1 #
edge $-1 $294 44.546555695420608 $361 64.987061663611016 $215 $362 forward 7 unknown #
coedge $-1 $363 $364 $216 $292 forward $285 $-1 #
edge $-1 $295 58.835981455988289 $361 71.137385184208213 $291 $365 forward 7 unknown #
coedge $-1 $366 $217 $364 $367 forward $212 $-1 #
vertex $-1 $358 $368 #
vertex $-1 $367 $369 #
straight-curve $-1 48.959416283297486 29.541810360131166 13.297982699100572 0 1 0 I I #
vertex $-1 $219 $370 #
point $-1 59.08568366580414 19.602708898876454 0.872263213706445 #
straight-curve $-1 -65.211951048310794 32.493530831805487 0 0 0 -1 I I #
point $-1 -65.211951048310794 -32.493530831805487 -13.297982699100571 #
straight-curve $-1 -65.211951048310794 0 -13.297982699100571 0 1 0 I I #
point $-1 -65.211951048310794 32.493530831805487 -13.297982699100571 #
face $-1 $261 $371 $13 $-1 $372 reversed single #
loop $-1 $-1 $373 $239 #
plane-surface $-1 0 0 13.297982699100571 0 0 1 1 0 0 forward_v I I I I #
coedge $-1 $242 $241 $374 $375 reversed $101 $-1 #
edge $-1 $246 3.2223555779389645 $376 13.297982699100571 $245 $324 forward 7 unknown #
edge $-1 $249 3.2223555779389645 $377 13.297982699100571 $242 $319 forward 7 unknown #
straight-curve $-1 -65.211951048310794 0 -3.2223555779389645 0 1 0 I I #
coedge $-1 $245 $320 $378 $379 reversed $187 $-1 #
point $-1 -65.211951048310794 32.493530831805487 -3.2223555779389645 #
coedge $-1 $315 $248 $380 $381 reversed $182 $-1 #
point $-1 -65.211951048310794 -32.493530831805487 -3.2223555779389645 #
coedge $-1 $254 $253 $382 $383 reversed $167 $-1 #
coedge $-1 $256 $312 $384 $385 reversed $182 $-1 #
coedge $-1 $373 $382 $256 $317 forward $304 $-1 #
edge $-1 $318 -65.211951048310794 $386 65.211951048310794 $256 $387 forward 7 unknown #
vertex $-1 $383 $388 #
straight-curve $-1 -65.211951048310794 -32.493530831805487 0 0 0 -1 I I #
coedge $-1 $310 $259 $389 $390 forward $187 $-1 #
coedge $-1 $382 $373 $259 $322 forward $304 $-1 #
edge $-1 $391 -65.211951048310794 $323 65.211951048310794 $259 $392 forward 7 unknown #
vertex $-1 $322 $393 #
straight-curve $-1 -65.211951048310794 32.493530831805487 0 0 0 -1 I I #
face $-1 $-1 $394 $13 $-1 $395 reversed single #
plane-surface $-1 0 32.493530831805487 0 0 -1 0 0 0 -1 forward_v I I I I #
face $-1 $396 $397 $14 $-1 $398 reversed single #
loop $-1 $-1 $399 $264 #
plane-surface $-1 -51.967798252015143 0 -1.1295070724001075 -1 0 0 0 0 1 forward_v I I I I #
coedge $-1 $400 $401 $402 $403 reversed $265 $-1 #
coedge $-1 $404 $267 $405 $406 reversed $194 $-1 #
coedge $-1 $267 $404 $346 $407 reversed $194 $-1 #
coedge $-1 $408 $399 $267 $334 forward $328 $-1 #
edge $-1 $409 -32.493530831805487 $410 32.493530831805487 $333 $411 forward 7 unknown #
coedge $-1 $412 $413 $268 $336 reversed $414 $-1 #
edge $-1 $351 -65.211951048310794 $338 65.211951048310794 $335 $415 forward 7 unknown #
coedge $-1 $341 $269 $413 $416 forward $273 $-1 #
vertex $-1 $270 $417 #
straight-curve $-1 65.211951048310794 0 13.297982699100571 0 1 0 I I #
straight-curve $-1 28.54284183290207 32.493530831805479 0.99657897088064473 1 0 0 I I #
coedge $-1 $272 $337 $418 $419 reversed $273 $-1 #
edge $-1 $274 -0.99657897088064828 $420 13.297982699100571 $272 $421 forward 7 unknown #
face $-1 $-1 $273 $14 $-1 $422 reversed single #
point $-1 65.211951048310794 32.493530831805487 0.99657897088064828 #
coedge $-1 $423 $278 $424 $425 reversed $118 $-1 #
coedge $-1 $279 $426 $332 $407 forward $118 $-1 #
coedge $-1 $427 $280 $279 $348 forward $350 $-1 #
edge $-1 $282 -13.297982699100571 $428 -0.96334143313874954 $279 $429 forward 7 unknown #
coedge $-1 $280 $427 $412 $430 reversed $350 $-1 #
loop $-1 $-1 $427 $396 #
vertex $-1 $281 $431 #
straight-curve $-1 -65.211951048310794 0 13.297982699100571 0 -1 0 I I #
point $-1 -65.211951048310794 32.493530831805487 13.297982699100571 #
face $-1 $432 $433 $15 $-1 $434 forward single #
loop $-1 $-1 $435 $284 #
plane-surface $-1 -58.589874650162969 0 0.96334143313874954 0 0 1 1 0 0 forward_v I I I I #
coedge $-1 $287 $436 $437 $438 forward $212 $-1 #
edge $-1 $439 -36.669109215408724 $294 -20.416574450395416 $287 $440 forward 7 unknown #
coedge $-1 $360 $288 $441 $442 reversed $214 $-1 #
coedge $-1 $289 $359 $363 $443 reversed $214 $-1 #
vertex $-1 $443 $444 #
straight-curve $-1 48.959416283297486 -19.407443933281002 40.106769485679152 0 0.79863550430605224 -0.6018150307709319 I I #
coedge $-1 $445 $291 $360 $443 forward $285 $-1 #
coedge $-1 $291 $446 $293 $367 reversed $285 $-1 #
straight-curve $-1 48.959416283297486 32.493530831805487 72.133964155088862 0 0 -1 I I #
coedge $-1 $436 $293 $447 $448 forward $212 $-1 #
edge $-1 $295 -48.959416283297486 $449 65.211951048310794 $364 $450 forward 7 unknown #
point $-1 48.959416283297486 16.169017039628876 13.297982699100572 #
point $-1 48.959416283297486 32.493530831805487 13.297982699100571 #
point $-1 57.08568366580414 18.399078837334589 -0.72500779490565948 #
loop $-1 $-1 $451 $303 #
plane-surface $-1 0 0 -13.297982699100571 0 0 1 1 0 0 forward_v I I I I #
coedge $-1 $321 $316 $452 $453 forward $304 $-1 #
coedge $-1 $378 $380 $306 $375 forward $371 $-1 #
edge $-1 $377 -32.493530831805487 $376 32.493530831805487 $306 $454 forward 7 unknown #
vertex $-1 $379 $455 #
vertex $-1 $375 $456 #
coedge $-1 $451 $374 $310 $379 forward $371 $-1 #
edge $-1 $376 -65.211951048310794 $457 65.211951048310794 $310 $458 forward 7 unknown #
coedge $-1 $374 $451 $312 $381 forward $371 $-1 #
edge $-1 $459 -65.211951048310794 $377 65.211951048310794 $312 $460 forward 7 unknown #
coedge $-1 $316 $321 $314 $383 forward $304 $-1 #
edge $-1 $323 -32.493530831805487 $318 32.493530831805487 $314 $461 forward 7 unknown #
coedge $-1 $462 $452 $315 $385 forward $394 $-1 #
edge $-1 $386 -13.297982699100571 $459 13.297982699100571 $384 $463 forward 7 unknown #
vertex $-1 $453 $464 #
straight-curve $-1 0 -32.493530831805487 13.297982699100571 1 0 0 I I #
point $-1 -65.211951048310794 -32.493530831805487 13.297982699100571 #
coedge $-1 $452 $462 $320 $390 reversed $394 $-1 #
edge $-1 $391 -13.297982699100571 $457 13.297982699100571 $389 $465 forward 7 unknown #
vertex $-1 $453 $466 #
straight-curve $-1 0 32.493530831805487 13.297982699100571 -1 0 0 I I #
point $-1 -65.211951048310794 32.493530831805487 13.297982699100571 #
loop $-1 $-1 $384 $325 #
plane-surface $-1 65.211951048310794 0 0 -1 0 0 0 0 1 forward_v I I I I #
face $-1 $467 $350 $14 $-1 $398 reversed single #
loop $-1 $-1 $468 $327 #
plane-surface $-1 -65.211951048310794 0 0 1 0 0 0 0 -1 forward_v I I I I #
coedge $-1 $333 $402 $469 $470 reversed $328 $-1 #
coedge $-1 $471 $330 $472 $473 reversed $265 $-1 #
coedge $-1 $330 $471 $474 $475 reversed $265 $-1 #
coedge $-1 $399 $408 $330 $403 forward $328 $-1 #
edge $-1 $476 -32.493530831805487 $477 32.493530831805487 $402 $478 forward 7 unknown #
coedge $-1 $332 $331 $427 $479 reversed $194 $-1 #
coedge $-1 $469 $412 $331 $406 forward $414 $-1 #
edge $-1 $480 -35.91701372322931 $409 -22.672860926933659 $405 $481 forward 7 unknown #
edge $-1 $410 22.672860926933659 $428 35.91701372322931 $346 $482 forward 7 unknown #
coedge $-1 $402 $333 $426 $483 reversed $328 $-1 #
vertex $-1 $406 $484 #
vertex $-1 $407 $485 #
straight-curve $-1 -51.967798252015143 0 0.96334143313874954 0 1 0 I I #
coedge $-1 $405 $335 $349 $430 forward $414 $-1 #
coedge $-1 $335 $486 $337 $416 reversed $414 $-1 #
loop $-1 $-1 $405 $467 #
straight-curve $-1 0 -32.493530831805487 13.297982699100571 1 0 0 I I #
edge $-1 $338 -13.297982699100571 $487 13.297982699100571 $337 $488 forward 7 unknown #
point $-1 65.211951048310794 -32.493530831805487 13.297982699100571 #
coedge $-1 $489 $424 $341 $419 forward $490 $-1 #
edge $-1 $420 -32.493530831805487 $487 32.493530831805487 $341 $491 forward 7 unknown #
vertex $-1 $419 $492 #
straight-curve $-1 65.211951048310794 32.493530831805487 0 0 0 -1 I I #
plane-surface $-1 65.211951048310794 0 0 -1 0 0 0 0 1 forward_v I I I I #
coedge $-1 $472 $345 $493 $494 reversed $118 $-1 #
coedge $-1 $418 $495 $345 $425 forward $490 $-1 #
edge $-1 $496 -65.211951048310794 $420 65.211951048310794 $345 $497 forward 7 unknown #
coedge $-1 $346 $472 $408 $483 forward $118 $-1 #
coedge $-1 $349 $347 $404 $479 forward $350 $-1 #
vertex $-1 $479 $498 #
straight-curve $-1 -65.211951048310794 32.493530831805487 0 0 0 -1 I I #
edge $-1 $351 -13.297982699100571 $480 -0.96334143313874954 $349 $499 forward 7 unknown #
point $-1 -65.211951048310794 -32.493530831805487 13.297982699100571 #
face $-1 $500 $501 $15 $-1 $502 forward single #
loop $-1 $-1 $503 $354 #
plane-surface $-1 -58.589874650162969 0 -3.2223555779389645 0 0 1 1 0 0 forward_v I I I I #
coedge $-1 $504 $505 $506 $507 reversed $355 $-1 #
coedge $-1 $357 $366 $508 $509 forward $212 $-1 #
coedge $-1 $510 $441 $357 $438 reversed $511 $-1 #
edge $-1 $512 -32.493530831805487 $439 16.169017039628876 $437 $513 forward 7 unknown #
vertex $-1 $442 $514 #
straight-curve $-1 28.54284183290207 16.169017039628869 13.297982699100569 -1 0 0 I I #
coedge $-1 $437 $515 $359 $442 forward $511 $-1 #
edge $-1 $516 -45.168896421064019 $439 -24.728390452873619 $441 $517 forward 7 unknown #
edge $-1 $361 20.416574450395416 $516 36.669109215408724 $363 $518 forward 7 unknown #
point $-1 48.959416283297486 32.493530831805487 0.99657897088064828 #
coedge $-1 $519 $363 $515 $520 forward $285 $-1 #
coedge $-1 $364 $521 $522 $523 reversed $285 $-1 #
coedge $-1 $522 $524 $366 $448 reversed $525 $-1 #
edge $-1 $449 -32.493530831805487 $526 32.493530831805487 $447 $527 forward 7 unknown #
vertex $-1 $367 $528 #
straight-curve $-1 0 32.493530831805487 13.297982699100571 -1 0 0 I I #
coedge $-1 $380 $378 $462 $529 forward $371 $-1 #
coedge $-1 $384 $389 $373 $453 reversed $394 $-1 #
edge $-1 $386 -32.493530831805487 $391 32.493530831805487 $452 $530 forward 7 unknown #
straight-curve $-1 -65.211951048310794 0 -13.297982699100571 0 1 0 I I #
point $-1 -65.211951048310794 32.493530831805487 -13.297982699100571 #
point $-1 -65.211951048310794 -32.493530831805487 -13.297982699100571 #
vertex $-1 $529 $531 #
straight-curve $-1 0 32.493530831805487 -13.297982699100571 1 0 0 I I #
vertex $-1 $385 $532 #
straight-curve $-1 0 -32.493530831805487 -13.297982699100571 -1 0 0 I I #
straight-curve $-1 -65.211951048310794 0 13.297982699100571 0 -1 0 I I #
coedge $-1 $389 $384 $451 $529 reversed $394 $-1 #
straight-curve $-1 65.211951048310794 -32.493530831805487 0 0 0 -1 I I #
point $-1 65.211951048310794 -32.493530831805487 13.297982699100571 #
straight-curve $-1 65.211951048310794 32.493530831805487 0 0 0 -1 I I #
point $-1 65.211951048310794 32.493530831805487 13.297982699100571 #
face $-1 $533 $414 $14 $-1 $534 reversed single #
coedge $-1 $493 $535 $471 $536 forward $397 $-1 #
coedge $-1 $474 $405 $399 $470 forward $414 $-1 #
edge $-1 $409 -1.5280949693388033 $477 2.6576020417389108 $469 $537 forward 7 unknown #
coedge $-1 $401 $400 $468 $536 reversed $265 $-1 #
coedge $-1 $426 $423 $400 $473 forward $118 $-1 #
edge $-1 $538 -35.91701372322931 $476 -22.672860926933659 $472 $539 forward 7 unknown #
coedge $-1 $540 $469 $401 $475 forward $414 $-1 #
edge $-1 $477 22.672860926933659 $541 35.91701372322931 $474 $542 forward 7 unknown #
vertex $-1 $473 $543 #
vertex $-1 $475 $544 #
straight-curve $-1 -51.967798252015143 0 -3.2223555779389645 0 -1 0 I I #
edge $-1 $428 -32.493530831805487 $480 32.493530831805487 $427 $545 forward 7 unknown #
vertex $-1 $406 $546 #
straight-curve $-1 -29.294937325081484 -32.493530831805487 0.96334143313874954 1 0 0 I I #
straight-curve $-1 -29.294937325081484 32.493530831805487 0.96334143313874954 -1 0 0 I I #
edge $-1 $476 -2.6576020417389108 $410 1.5280949693388033 $426 $547 forward 7 unknown #
point $-1 -51.967798252015143 -32.493530831805487 0.96334143313874954 #
point $-1 -51.967798252015143 32.493530831805487 0.96334143313874954 #
coedge $-1 $413 $540 $489 $548 reversed $414 $-1 #
vertex $-1 $416 $549 #
straight-curve $-1 65.211951048310794 -32.493530831805487 0 0 0 -1 I I #
coedge $-1 $495 $418 $486 $548 forward $490 $-1 #
loop $-1 $-1 $418 $533 #
straight-curve $-1 65.211951048310794 0 -13.297982699100571 0 -1 0 I I #
point $-1 65.211951048310794 32.493530831805487 -13.297982699100571 #
coedge $-1 $550 $468 $423 $494 forward $397 $-1 #
edge $-1 $538 3.2223555779389645 $496 13.297982699100571 $423 $429 forward 7 unknown #
coedge $-1 $424 $489 $550 $551 forward $490 $-1 #
vertex $-1 $425 $552 #
straight-curve $-1 0 32.493530831805487 -13.297982699100571 1 0 0 I I #
point $-1 -65.211951048310794 32.493530831805487 0.96334143313874954 #
straight-curve $-1 -65.211951048310794 -32.493530831805487 0 0 0 -1 I I #
face $-1 $553 $554 $15 $-1 $555 reversed single #
loop $-1 $-1 $556 $432 #
plane-surface $-1 -51.967798252015143 0 -1.1295070724001075 -1 0 0 0 0 1 forward_v I I I I #
coedge $-1 $557 $558 $559 $560 reversed $433 $-1 #
coedge $-1 $561 $435 $562 $563 reversed $355 $-1 #
coedge $-1 $435 $561 $521 $564 reversed $355 $-1 #
coedge $-1 $565 $556 $435 $507 forward $501 $-1 #
edge $-1 $566 -32.493530831805487 $567 32.493530831805487 $506 $568 forward 7 unknown #
coedge $-1 $569 $570 $436 $509 reversed $571 $-1 #
edge $-1 $526 -65.211951048310794 $512 65.211951048310794 $508 $572 forward 7 unknown #
coedge $-1 $573 $437 $570 $574 forward $511 $-1 #
loop $-1 $-1 $441 $575 #
vertex $-1 $438 $576 #
straight-curve $-1 65.211951048310794 0 13.297982699100571 0 1 0 I I #
point $-1 65.211951048310794 16.169017039628876 13.297982699100572 #
coedge $-1 $441 $573 $445 $520 reversed $511 $-1 #
vertex $-1 $520 $577 #
straight-curve $-1 65.211951048310794 -3.5799535403788116 28.179899760412326 0 -0.79863550430605224 0.6018150307709319 I I #
straight-curve $-1 28.54284183290207 32.493530831805479 0.99657897088064473 1 0 0 I I #
coedge $-1 $578 $445 $579 $580 reversed $285 $-1 #
edge $-1 $516 -0.99657897088064828 $581 13.297982699100571 $515 $582 forward 7 unknown #
coedge $-1 $446 $583 $505 $564 forward $285 $-1 #
coedge $-1 $584 $447 $446 $523 forward $525 $-1 #
edge $-1 $449 -13.297982699100571 $585 -0.96334143313874954 $446 $586 forward 7 unknown #
coedge $-1 $447 $584 $569 $587 reversed $525 $-1 #
loop $-1 $-1 $584 $553 #
vertex $-1 $448 $588 #
straight-curve $-1 -65.211951048310794 0 13.297982699100571 0 -1 0 I I #
point $-1 -65.211951048310794 32.493530831805487 13.297982699100571 #
edge $-1 $457 -32.493530831805487 $459 32.493530831805487 $462 $589 forward 7 unknown #
straight-curve $-1 65.211951048310794 0 13.297982699100571 0 1 0 I I #
point $-1 65.211951048310794 32.493530831805487 -13.297982699100571 #
point $-1 65.211951048310794 -32.493530831805487 -13.297982699100571 #
face $-1 $343 $490 $14 $-1 $590 reversed single #
plane-surface $-1 0 -32.493530831805487 0 0 1 0 0 0 1 forward_v I I I I #
coedge $-1 $468 $550 $540 $591 reversed $397 $-1 #
edge $-1 $541 -32.493530831805487 $538 32.493530831805487 $468 $592 forward 7 unknown #
straight-curve $-1 -51.967798252015143 -32.493530831805487 -0.56475353620005375 0 0 -1 I I #
vertex $-1 $494 $593 #
straight-curve $-1 -29.294937325081484 32.493530831805487 -3.2223555779389645 1 0 0 I I #
coedge $-1 $486 $474 $535 $591 forward $414 $-1 #
vertex $-1 $591 $594 #
straight-curve $-1 -29.294937325081484 -32.493530831805487 -3.2223555779389645 -1 0 0 I I #
point $-1 -51.967798252015143 32.493530831805487 -3.2223555779389645 #
point $-1 -51.967798252015143 -32.493530831805487 -3.2223555779389645 #
straight-curve $-1 -65.211951048310794 0 0.96334143313874954 0 -1 0 I I #
point $-1 -65.211951048310794 -32.493530831805487 0.96334143313874954 #
straight-curve $-1 -51.967798252015143 32.493530831805487 -0.56475353620005375 0 0 1 I I #
edge $-1 $487 -65.211951048310794 $595 65.211951048310794 $486 $596 forward 7 unknown #
point $-1 65.211951048310794 -32.493530831805487 -13.297982699100571 #
coedge $-1 $535 $493 $495 $551 reversed $397 $-1 #
edge $-1 $595 -32.493530831805487 $496 32.493530831805487 $550 $597 forward 7 unknown #
point $-1 -65.211951048310794 32.493530831805487 -13.297982699100571 #
face $-1 $598 $525 $15 $-1 $555 reversed single #
loop $-1 $-1 $599 $500 #
plane-surface $-1 -65.211951048310794 0 0 1 0 0 0 0 -1 forward_v I I I I #
coedge $-1 $506 $559 $600 $601 reversed $501 $-1 #
coedge $-1 $602 $503 $603 $604 reversed $433 $-1 #
coedge $-1 $503 $602 $605 $606 reversed $433 $-1 #
coedge $-1 $556 $565 $503 $560 forward $501 $-1 #
edge $-1 $607 -32.493530831805487 $608 32.493530831805487 $559 $609 forward 7 unknown #
coedge $-1 $505 $504 $584 $610 reversed $355 $-1 #
coedge $-1 $600 $569 $504 $563 forward $571 $-1 #
edge $-1 $611 -35.91701372322931 $566 -22.672860926933659 $562 $612 forward 7 unknown #
edge $-1 $567 22.672860926933659 $585 35.91701372322931 $521 $613 forward 7 unknown #
coedge $-1 $559 $506 $583 $614 reversed $501 $-1 #
vertex $-1 $563 $615 #
vertex $-1 $564 $616 #
straight-curve $-1 -51.967798252015143 0 0.96334143313874954 0 1 0 I I #
coedge $-1 $562 $508 $524 $587 forward $571 $-1 #
coedge $-1 $508 $617 $510 $574 reversed $571 $-1 #
loop $-1 $-1 $562 $598 #
straight-curve $-1 0 -32.493530831805487 13.297982699100571 1 0 0 I I #
coedge $-1 $515 $510 $618 $619 reversed $511 $-1 #
edge $-1 $512 -13.297982699100571 $620 13.297982699100571 $510 $621 forward 7 unknown #
face $-1 $-1 $511 $15 $-1 $622 reversed single #
point $-1 65.211951048310794 -32.493530831805487 13.297982699100571 #
point $-1 65.211951048310794 32.493530831805487 0.99657897088064828 #
coedge $-1 $603 $519 $623 $624 reversed $285 $-1 #
coedge $-1 $618 $625 $519 $580 forward $626 $-1 #
edge $-1 $627 -65.211951048310794 $581 65.211951048310794 $519 $628 forward 7 unknown #
vertex $-1 $619 $629 #
straight-curve $-1 65.211951048310794 32.493530831805487 0 0 0 -1 I I #
coedge $-1 $521 $603 $565 $614 forward $285 $-1 #
coedge $-1 $524 $522 $561 $610 forward $525 $-1 #
vertex $-1 $610 $630 #
straight-curve $-1 -65.211951048310794 32.493530831805487 0 0 0 -1 I I #
edge $-1 $526 -13.297982699100571 $611 -0.96334143313874954 $524 $631 forward 7 unknown #
point $-1 -65.211951048310794 -32.493530831805487 13.297982699100571 #
straight-curve $-1 65.211951048310794 0 -13.297982699100571 0 -1 0 I I #
plane-surface $-1 0 0 -13.297982699100571 0 0 1 1 0 0 forward_v I I I I #
edge $-1 $541 3.2223555779389645 $595 13.297982699100571 $535 $499 forward 7 unknown #
straight-curve $-1 -65.211951048310794 0 -3.2223555779389645 0 1 0 I I #
point $-1 -65.211951048310794 32.493530831805487 -3.2223555779389645 #
point $-1 -65.211951048310794 -32.493530831805487 -3.2223555779389645 #
vertex $-1 $551 $632 #
straight-curve $-1 0 -32.493530831805487 -13.297982699100571 -1 0 0 I I #
straight-curve $-1 -65.211951048310794 0 -13.297982699100571 0 1 0 I I #
face $-1 $633 $571 $15 $-1 $634 reversed single #
coedge $-1 $623 $635 $602 $636 forward $554 $-1 #
coedge $-1 $605 $562 $556 $601 forward $571 $-1 #
edge $-1 $566 -1.5280949693388033 $608 2.6576020417389108 $600 $637 forward 7 unknown #
coedge $-1 $558 $557 $599 $636 reversed $433 $-1 #
coedge $-1 $583 $578 $557 $604 forward $285 $-1 #
edge $-1 $638 -35.91701372322931 $607 -22.672860926933659 $603 $639 forward 7 unknown #
coedge $-1 $640 $600 $558 $606 forward $571 $-1 #
edge $-1 $608 22.672860926933659 $641 35.91701372322931 $605 $642 forward 7 unknown #
vertex $-1 $604 $643 #
vertex $-1 $606 $644 #
straight-curve $-1 -51.967798252015143 0 -3.2223555779389645 0 -1 0 I I #
edge $-1 $585 -32.493530831805487 $611 32.493530831805487 $584 $645 forward 7 unknown #
vertex $-1 $563 $646 #
straight-curve $-1 -29.294937325081484 -32.493530831805487 0.96334143313874954 1 0 0 I I #
straight-curve $-1 -29.294937325081484 32.493530831805487 0.96334143313874954 -1 0 0 I I #
edge $-1 $607 -2.6576020417389108 $567 1.5280949693388033 $583 $647 forward 7 unknown #
point $-1 -51.967798252015143 -32.493530831805487 0.96334143313874954 #
point $-1 -51.967798252015143 32.493530831805487 0.96334143313874954 #
coedge $-1 $570 $640 $648 $649 reversed $571 $-1 #
coedge $-1 $648 $579 $573 $619 forward $626 $-1 #
edge $-1 $581 -32.493530831805487 $620 32.493530831805487 $573 $650 forward 7 unknown #
vertex $-1 $574 $651 #
straight-curve $-1 65.211951048310794 -32.493530831805487 0 0 0 -1 I I #
plane-surface $-1 65.211951048310794 0 0 -1 0 0 0 0 1 forward_v I I I I #
coedge $-1 $652 $599 $578 $624 forward $554 $-1 #
edge $-1 $638 3.2223555779389645 $627 13.297982699100571 $578 $586 forward 7 unknown #
coedge $-1 $579 $648 $652 $653 forward $626 $-1 #
loop $-1 $-1 $618 $633 #
vertex $-1 $580 $654 #
straight-curve $-1 0 32.493530831805487 -13.297982699100571 1 0 0 I I #
point $-1 65.211951048310794 32.493530831805487 -13.297982699100571 #
point $-1 -65.211951048310794 32.493530831805487 0.96334143313874954 #
straight-curve $-1 -65.211951048310794 -32.493530831805487 0 0 0 -1 I I #
point $-1 -65.211951048310794 -32.493530831805487 -13.297982699100571 #
face $-1 $575 $626 $15 $-1 $655 reversed single #
plane-surface $-1 0 -32.493530831805487 0 0 1 0 0 0 1 forward_v I I I I #
coedge $-1 $599 $652 $640 $656 reversed $554 $-1 #
edge $-1 $641 -32.493530831805487 $638 32.493530831805487 $599 $657 forward 7 unknown #
straight-curve $-1 -51.967798252015143 -32.493530831805487 -0.56475353620005375 0 0 -1 I I #
vertex $-1 $624 $658 #
straight-curve $-1 -29.294937325081484 32.493530831805487 -3.2223555779389645 1 0 0 I I #
coedge $-1 $617 $605 $635 $656 forward $571 $-1 #
vertex $-1 $656 $659 #
straight-curve $-1 -29.294937325081484 -32.493530831805487 -3.2223555779389645 -1 0 0 I I #
point $-1 -51.967798252015143 32.493530831805487 -3.2223555779389645 #
point $-1 -51.967798252015143 -32.493530831805487 -3.2223555779389645 #
straight-curve $-1 -65.211951048310794 0 0.96334143313874954 0 -1 0 I I #
point $-1 -65.211951048310794 -32.493530831805487 0.96334143313874954 #
straight-curve $-1 -51.967798252015143 32.493530831805487 -0.56475353620005375 0 0 1 I I #
coedge $-1 $625 $618 $617 $649 forward $626 $-1 #
edge $-1 $620 -65.211951048310794 $660 65.211951048310794 $617 $661 forward 7 unknown #
straight-curve $-1 65.211951048310794 0 -13.297982699100571 0 -1 0 I I #
point $-1 65.211951048310794 -32.493530831805487 -13.297982699100571 #
coedge $-1 $635 $623 $625 $653 reversed $554 $-1 #
edge $-1 $660 -32.493530831805487 $627 32.493530831805487 $652 $662 forward 7 unknown #
point $-1 -65.211951048310794 32.493530831805487 -13.297982699100571 #
plane-surface $-1 0 0 -13.297982699100571 0 0 1 1 0 0 forward_v I I I I #
edge $-1 $641 3.2223555779389645 $660 13.297982699100571 $635 $631 forward 7 unknown #
straight-curve $-1 -65.211951048310794 0 -3.2223555779389645 0 1 0 I I #
point $-1 -65.211951048310794 32.493530831805487 -3.2223555779389645 #
point $-1 -65.211951048310794 -32.493530831805487 -3.2223555779389645 #
vertex $-1 $653 $663 #
straight-curve $-1 0 -32.493530831805487 -13.297982699100571 -1 0 0 I I #
straight-curve $-1 -65.211951048310794 0 -13.297982699100571 0 1 0 I I #
point $-1 -65.211951048310794 -32.493530831805487 -13.297982699100571 #
End-of-ACIS-data 