500 0 9 0           
7 Unknown 11 ACIS 5.0 NT 24 Fri Mar 26 19:59:11 1999 
-1 9.9999999999999995e-007 1e-010 
body $-1 $9 $-1 $10 #
body $-1 $11 $-1 $12 #
body $-1 $13 $-1 $14 #
body $-1 $15 $-1 $16 #
body $-1 $17 $-1 $18 #
body $-1 $19 $-1 $20 #
body $-1 $21 $-1 $22 #
body $-1 $23 $-1 $24 #
body $-1 $25 $-1 $26 #
lump $-1 $-1 $27 $0 #
transform $-1 1 0 0 0 1 0 0 0 1 75.316019165623942 36.662055387906584 11.758777767241561 1 rotate no_reflect no_shear #
lump $-1 $-1 $28 $1 #
transform $-1 1 0 0 0 1 0 0 0 1 75.316019165623942 36.662055387906584 11.758777767241561 1 rotate no_reflect no_shear #
lump $-1 $-1 $29 $2 #
transform $-1 1 0 0 0 1 0 0 0 1 75.316019165623942 36.662055387906584 11.758777767241561 1 rotate no_reflect no_shear #
lump $-1 $-1 $30 $3 #
transform $-1 1 0 0 0 1 0 0 0 1 75.316019165623942 36.662055387906584 11.758777767241561 1 rotate no_reflect no_shear #
lump $-1 $-1 $31 $4 #
transform $-1 1 0 0 0 1 0 0 0 1 75.316019165623942 36.662055387906584 11.758777767241561 1 rotate no_reflect no_shear #
lump $-1 $-1 $32 $5 #
transform $-1 1 0 0 0 1 0 0 0 1 75.316019165623942 36.662055387906584 11.758777767241561 1 rotate no_reflect no_shear #
lump $-1 $-1 $33 $6 #
transform $-1 1 0 0 0 1 0 0 0 1 75.316019165623942 36.662055387906584 11.758777767241561 1 rotate no_reflect no_shear #
lump $-1 $-1 $34 $7 #
transform $-1 1 0 0 0 1 0 0 0 1 75.316019165623942 36.662055387906584 11.758777767241561 1 rotate no_reflect no_shear #
lump $-1 $-1 $35 $8 #
transform $-1 1 0 0 0 1 0 0 0 1 75.316019165623942 36.662055387906584 11.758777767241561 1 rotate no_reflect no_shear #
shell $-1 $-1 $-1 $36 $-1 $9 #
shell $-1 $-1 $-1 $37 $-1 $11 #
shell $-1 $-1 $-1 $38 $-1 $13 #
shell $-1 $-1 $-1 $39 $-1 $15 #
shell $-1 $-1 $-1 $40 $-1 $17 #
shell $-1 $-1 $-1 $41 $-1 $19 #
shell $-1 $-1 $-1 $42 $-1 $21 #
shell $-1 $-1 $-1 $43 $-1 $23 #
shell $-1 $-1 $-1 $44 $-1 $25 #
face $-1 $45 $46 $27 $-1 $47 forward single #
face $-1 $48 $49 $28 $-1 $50 forward single #
face $-1 $51 $52 $29 $-1 $53 reversed single #
face $-1 $54 $55 $30 $-1 $56 forward single #
face $-1 $57 $58 $31 $-1 $59 forward single #
face $-1 $60 $61 $32 $-1 $62 reversed single #
face $-1 $63 $64 $33 $-1 $65 forward single #
face $-1 $66 $67 $34 $-1 $68 reversed single #
face $-1 $69 $70 $35 $-1 $71 forward single #
face $-1 $72 $73 $27 $-1 $74 reversed single #
loop $-1 $-1 $75 $36 #
plane-surface $-1 0 0 11.758777767241561 0 0 1 1 0 0 forward_v I I I I #
face $-1 $76 $77 $28 $-1 $78 reversed single #
loop $-1 $-1 $79 $37 #
plane-surface $-1 -68.061488107231696 0 -8.5371446751783751 0 0 1 1 0 0 forward_v I I I I #
face $-1 $80 $81 $29 $-1 $82 reversed single #
loop $-1 $-1 $83 $38 #
plane-surface $-1 -40.368169988605786 -125.20134717291415 128.76515450367691 1 0 0 0 0.5877852598018023 -0.80901698891910034 forward_v I I I I #
face $-1 $84 $85 $30 $-1 $86 forward single #
loop $-1 $87 $88 $39 #
cone-surface $-1 -31.51945547202817 -32.720313725979615 8.5057763783333318 0 0.5877852598018023 -0.80901698891910034 1.5 0 0 1 I I 0 1 1.5 forward I I I I #
face $-1 $89 $90 $31 $-1 $91 forward single #
loop $-1 $92 $93 $40 #
cone-surface $-1 -18.24638369716174 -32.720313725979615 8.5057763783333318 0 0.5877852598018023 -0.80901698891910034 1.5 0 0 1 I I 0 1 1.5 forward I I I I #
face $-1 $94 $95 $32 $-1 $96 reversed single #
loop $-1 $-1 $97 $41 #
plane-surface $-1 -60.806957048839443 107.58077957208261 153.29202700405807 1 0 0 0 -0.77714596973225614 -0.62932038083071107 forward_v I I I I #
face $-1 $98 $99 $33 $-1 $100 forward single #
loop $-1 $101 $102 $42 #
cone-surface $-1 -46.514397659299647 28.265040607345711 3.1954002931113088 0 -0.77714596973225614 -0.62932038083071107 3 0 0 1 I I 0 1 3 forward I I I I #
face $-1 $103 $104 $34 $-1 $105 reversed single #
loop $-1 $-1 $106 $43 #
plane-surface $-1 7.2545310583922511 107.58077957208261 153.29202700405807 1 0 0 0 -0.77714596973225614 -0.62932038083071107 forward_v I I I I #
face $-1 $107 $108 $35 $-1 $109 forward single #
loop $-1 $110 $111 $44 #
cone-surface $-1 21.54709044793205 28.265040607345711 3.1954002931113088 0 -0.77714596973225614 -0.62932038083071107 3 0 0 1 I I 0 1 3 forward I I I I #
face $-1 $112 $113 $27 $-1 $114 reversed single #
loop $-1 $-1 $115 $45 #
plane-surface $-1 0 0 -11.758777767241561 0 0 1 1 0 0 forward_v I I I I #
coedge $-1 $116 $117 $118 $119 forward $46 $-1 #
face $-1 $120 $121 $28 $-1 $122 reversed single #
loop $-1 $-1 $123 $48 #
plane-surface $-1 -60.80695704883945 0 -10.147961221209968 -1 0 0 0 0 1 forward_v I I I I #
coedge $-1 $124 $125 $126 $127 forward $49 $-1 #
face $-1 $128 $129 $29 $-1 $130 reversed single #
loop $-1 $-1 $131 $51 #
plane-surface $-1 -24.882919584594951 -36.662055387906577 6.9012764181842385 0 -0.5877852598018023 0.80901698891910034 1 0 0 forward_v I I I I #
coedge $-1 $132 $133 $134 $135 reversed $52 $-1 #
face $-1 $-1 $136 $30 $-1 $137 forward single #
loop $-1 $138 $139 $54 #
cone-surface $-1 -31.51945547202817 -31.680621571703433 7.0747629222644406 0 0.5877852598018023 -0.80901698891910034 0.75 0 0 1 I I -0.70710678118654757 0.70710678118654757 0.75 forward I I I I #
loop $-1 $-1 $140 $39 #
coedge $-1 $88 $88 $141 $142 reversed $55 $-1 #
face $-1 $-1 $143 $31 $-1 $144 forward single #
loop $-1 $145 $146 $57 #
cone-surface $-1 -18.24638369716174 -31.680621571703433 7.0747629222644406 0 0.5877852598018023 -0.80901698891910034 0.75 0 0 1 I I -0.70710678118654757 0.70710678118654757 0.75 forward I I I I #
loop $-1 $-1 $147 $40 #
coedge $-1 $93 $93 $148 $149 reversed $58 $-1 #
face $-1 $150 $151 $32 $-1 $152 reversed single #
loop $-1 $-1 $153 $60 #
plane-surface $-1 -46.514397659299647 -9.4823019296014053 58.496215276130883 0 0.77714596973225614 0.62932038083071107 1 0 0 forward_v I I I I #
coedge $-1 $154 $155 $156 $157 reversed $61 $-1 #
face $-1 $-1 $158 $33 $-1 $159 forward single #
loop $-1 $160 $161 $63 #
cone-surface $-1 -46.514397659299647 22.850870716159157 -1.1889079198973249 0 -0.77714596973225614 -0.62932038083071107 1.5 0 0 1 I I -0.70710678118654757 0.70710678118654757 1.5 forward I I I I #
loop $-1 $-1 $162 $42 #
coedge $-1 $102 $102 $163 $164 reversed $64 $-1 #
face $-1 $165 $166 $34 $-1 $167 reversed single #
loop $-1 $-1 $168 $66 #
plane-surface $-1 21.54709044793205 -9.4823019296014053 58.496215276130883 0 0.77714596973225614 0.62932038083071107 1 0 0 forward_v I I I I #
coedge $-1 $169 $170 $171 $172 reversed $67 $-1 #
face $-1 $-1 $173 $35 $-1 $174 forward single #
loop $-1 $175 $176 $69 #
cone-surface $-1 21.54709044793205 22.850870716159157 -1.1889079198973249 0 -0.77714596973225614 -0.62932038083071107 1.5 0 0 1 I I -0.70710678118654757 0.70710678118654757 1.5 forward I I I I #
loop $-1 $-1 $177 $44 #
coedge $-1 $111 $111 $178 $179 reversed $70 $-1 #
face $-1 $180 $181 $27 $-1 $182 reversed single #
loop $-1 $-1 $183 $72 #
plane-surface $-1 0 -36.662055387906584 0 0 1 0 0 0 1 forward_v I I I I #
coedge $-1 $184 $185 $186 $187 forward $73 $-1 #
coedge $-1 $188 $75 $189 $190 forward $46 $-1 #
coedge $-1 $75 $188 $191 $192 forward $46 $-1 #
coedge $-1 $193 $194 $75 $119 reversed $195 $-1 #
edge $-1 $196 -36.662055387906584 $197 36.662055387906584 $118 $198 forward 7 unknown #
face $-1 $199 $200 $28 $-1 $201 reversed single #
loop $-1 $-1 $202 $76 #
plane-surface $-1 0 0 -11.758777767241561 0 0 1 1 0 0 forward_v I I I I #
coedge $-1 $203 $126 $204 $205 reversed $77 $-1 #
coedge $-1 $206 $79 $207 $208 reversed $49 $-1 #
coedge $-1 $79 $206 $209 $210 reversed $49 $-1 #
coedge $-1 $123 $211 $79 $127 reversed $77 $-1 #
edge $-1 $212 -36.662055387906584 $213 36.662055387906584 $126 $214 forward 7 unknown #
face $-1 $215 $216 $29 $-1 $217 forward single #
loop $-1 $-1 $218 $80 #
plane-surface $-1 -9.397669180584117 -125.20134717291415 128.76515450367691 -1 0 0 0 -0.5877852598018023 0.80901698891910034 forward_v I I I I #
coedge $-1 $219 $220 $221 $222 reversed $81 $-1 #
coedge $-1 $133 $83 $223 $224 reversed $52 $-1 #
coedge $-1 $83 $132 $219 $225 reversed $52 $-1 #
coedge $-1 $221 $226 $83 $135 forward $227 $-1 #
edge $-1 $228 52.623799484596894 $229 57.481300833654224 $134 $230 forward 7 unknown #
loop $-1 $-1 $141 $84 #
plane-surface $-1 -24.882919584594951 -36.662055387906577 6.9012764181842385 0 -0.5877852598018023 0.80901698891910034 1 0 0 forward_v I I I I #
loop $-1 $-1 $231 $54 #
coedge $-1 $139 $139 $140 $232 reversed $85 $-1 #
coedge $-1 $140 $140 $139 $232 forward $87 $-1 #
coedge $-1 $141 $141 $88 $142 forward $136 $-1 #
edge $-1 $233 3.1361967196547856e-015 $233 6.283185307179604 $141 $234 forward 7 unknown #
loop $-1 $-1 $148 $89 #
plane-surface $-1 -24.882919584594951 -36.662055387906577 6.9012764181842385 0 -0.5877852598018023 0.80901698891910034 1 0 0 forward_v I I I I #
loop $-1 $-1 $235 $57 #
coedge $-1 $146 $146 $147 $236 reversed $90 $-1 #
coedge $-1 $147 $147 $146 $236 forward $92 $-1 #
coedge $-1 $148 $148 $93 $149 forward $143 $-1 #
edge $-1 $237 3.1361967196547856e-015 $237 6.283185307179604 $148 $238 forward 7 unknown #
face $-1 $239 $240 $32 $-1 $241 reversed single #
loop $-1 $-1 $242 $94 #
plane-surface $-1 -32.22183826975985 107.58077957208261 153.29202700405807 -1 0 0 0 0.77714596973225614 0.62932038083071107 forward_v I I I I #
coedge $-1 $243 $244 $245 $246 reversed $95 $-1 #
coedge $-1 $155 $97 $247 $248 reversed $61 $-1 #
coedge $-1 $97 $154 $243 $249 reversed $61 $-1 #
coedge $-1 $245 $250 $97 $157 forward $251 $-1 #
edge $-1 $252 17.128334398134719 $253 25.425462086080124 $156 $254 forward 7 unknown #
loop $-1 $-1 $163 $98 #
plane-surface $-1 -46.514397659299647 -9.4823019296014053 58.496215276130883 0 0.77714596973225614 0.62932038083071107 1 0 0 forward_v I I I I #
loop $-1 $-1 $255 $63 #
coedge $-1 $161 $161 $162 $256 reversed $99 $-1 #
coedge $-1 $162 $162 $161 $256 forward $101 $-1 #
coedge $-1 $163 $163 $102 $164 forward $158 $-1 #
edge $-1 $257 -1.4905300835501383e-015 $257 6.2831853071795987 $163 $258 forward 7 unknown #
face $-1 $259 $260 $34 $-1 $261 forward single #
loop $-1 $-1 $262 $103 #
plane-surface $-1 35.839649837471846 107.58077957208261 153.29202700405807 -1 0 0 0 0.77714596973225614 0.62932038083071107 forward_v I I I I #
coedge $-1 $263 $264 $265 $266 reversed $104 $-1 #
coedge $-1 $170 $106 $267 $268 reversed $67 $-1 #
coedge $-1 $106 $169 $263 $269 reversed $67 $-1 #
coedge $-1 $265 $270 $106 $172 forward $260 $-1 #
edge $-1 $271 17.128334398134719 $272 25.425462086080124 $171 $273 forward 7 unknown #
loop $-1 $-1 $178 $107 #
plane-surface $-1 21.54709044793205 -9.4823019296014053 58.496215276130883 0 0.77714596973225614 0.62932038083071107 1 0 0 forward_v I I I I #
loop $-1 $-1 $274 $69 #
coedge $-1 $176 $176 $177 $275 reversed $108 $-1 #
coedge $-1 $177 $177 $176 $275 forward $110 $-1 #
coedge $-1 $178 $178 $111 $179 forward $173 $-1 #
edge $-1 $276 -1.4905300835501383e-015 $276 6.2831853071795987 $178 $277 forward 7 unknown #
face $-1 $278 $279 $27 $-1 $280 reversed single #
loop $-1 $-1 $281 $112 #
plane-surface $-1 -75.316019165623942 0 0 1 0 0 0 0 -1 forward_v I I I I #
coedge $-1 $282 $191 $283 $284 forward $113 $-1 #
coedge $-1 $285 $115 $282 $286 forward $73 $-1 #
coedge $-1 $115 $285 $287 $288 forward $73 $-1 #
coedge $-1 $194 $193 $115 $187 reversed $195 $-1 #
edge $-1 $289 -36.662055387906584 $290 36.662055387906584 $186 $291 forward 7 unknown #
coedge $-1 $117 $116 $292 $293 forward $46 $-1 #
coedge $-1 $294 $295 $116 $190 reversed $279 $-1 #
edge $-1 $197 -75.316019165623942 $296 75.316019165623942 $189 $297 forward 7 unknown #
coedge $-1 $183 $298 $117 $192 reversed $113 $-1 #
edge $-1 $299 -75.316019165623942 $196 75.316019165623942 $191 $300 forward 7 unknown #
coedge $-1 $186 $118 $298 $301 forward $195 $-1 #
coedge $-1 $118 $186 $294 $302 reversed $195 $-1 #
loop $-1 $-1 $193 $278 #
vertex $-1 $119 $303 #
vertex $-1 $119 $304 #
straight-curve $-1 75.316019165623942 0 11.758777767241561 0 1 0 I I #
face $-1 $305 $306 $28 $-1 $307 reversed single #
loop $-1 $-1 $204 $120 #
plane-surface $-1 0 -36.662055387906584 0 0 1 0 0 0 1 forward_v I I I I #
coedge $-1 $308 $309 $203 $310 forward $121 $-1 #
coedge $-1 $211 $123 $202 $310 reversed $77 $-1 #
coedge $-1 $209 $311 $123 $205 forward $200 $-1 #
edge $-1 $312 -6.6847971566365771 $212 -3.463164064573391 $204 $313 forward 7 unknown #
coedge $-1 $125 $124 $314 $315 reversed $49 $-1 #
coedge $-1 $316 $317 $124 $208 forward $318 $-1 #
edge $-1 $319 -41.285275112008094 $213 -26.776212995223602 $207 $320 forward 7 unknown #
coedge $-1 $321 $204 $125 $210 forward $200 $-1 #
edge $-1 $212 26.776212995223602 $322 41.285275112008094 $209 $323 forward 7 unknown #
coedge $-1 $126 $203 $316 $324 reversed $77 $-1 #
vertex $-1 $210 $325 #
vertex $-1 $208 $326 #
straight-curve $-1 -60.80695704883945 0 -8.5371446751783751 0 1 0 I I #
face $-1 $-1 $227 $29 $-1 $327 reversed single #
loop $-1 $-1 $328 $128 #
plane-surface $-1 0 0 11.758777767241561 0 0 1 1 0 0 forward_v I I I I #
coedge $-1 $329 $330 $331 $332 reversed $129 $-1 #
coedge $-1 $333 $131 $133 $225 forward $81 $-1 #
coedge $-1 $131 $333 $329 $334 forward $81 $-1 #
coedge $-1 $331 $134 $131 $222 forward $227 $-1 #
edge $-1 $229 -27.92671019630831 $335 3.0437906117133586 $221 $336 forward 7 unknown #
coedge $-1 $337 $338 $132 $224 forward $216 $-1 #
edge $-1 $339 -32.624395103554768 $228 -25.938618198550493 $223 $340 forward 7 unknown #
edge $-1 $229 -8.8807605448725156e-015 $339 8.2640747927146769 $133 $341 forward 7 unknown #
coedge $-1 $134 $331 $337 $342 reversed $227 $-1 #
loop $-1 $-1 $331 $215 #
vertex $-1 $342 $343 #
vertex $-1 $135 $344 #
straight-curve $-1 -40.368169988605786 -36.662055387906584 64.382577251838455 0 0 -1 I I #
coedge $-1 $231 $231 $-1 $345 reversed $138 $-1 #
edge $-1 $346 0 $346 6.2831853071796004 $139 $347 forward 7 unknown #
vertex $-1 $142 $348 #
ellipse-curve $-1 -31.51945547202817 -33.319166935404446 9.3300270927128981 0 -0.5877852598018023 0.80901698891910034 1.5 0 0 1 I I #
coedge $-1 $235 $235 $-1 $349 reversed $145 $-1 #
edge $-1 $350 0 $350 6.2831853071796004 $146 $351 forward 7 unknown #
vertex $-1 $149 $352 #
ellipse-curve $-1 -18.24638369716174 -33.319166935404446 9.3300270927128981 0 -0.5877852598018023 0.80901698891910034 1.5 0 0 1 I I #
face $-1 $-1 $251 $32 $-1 $353 forward single #
loop $-1 $-1 $354 $150 #
plane-surface $-1 0 36.662055387906584 0 0 -1 0 0 0 -1 forward_v I I I I #
coedge $-1 $355 $356 $357 $358 reversed $151 $-1 #
coedge $-1 $359 $153 $155 $249 forward $95 $-1 #
coedge $-1 $153 $359 $355 $360 forward $95 $-1 #
coedge $-1 $357 $156 $153 $246 forward $251 $-1 #
edge $-1 $253 -37.54975821918962 $361 -8.9646394401100267 $245 $362 forward 7 unknown #
coedge $-1 $363 $364 $154 $248 forward $240 $-1 #
edge $-1 $365 -75.133335399522849 $252 -64.887235734787481 $247 $366 forward 7 unknown #
edge $-1 $253 60.139844159510204 $365 73.324110775813168 $155 $367 forward 7 unknown #
coedge $-1 $156 $357 $363 $368 forward $251 $-1 #
loop $-1 $-1 $357 $239 #
vertex $-1 $248 $369 #
vertex $-1 $157 $370 #
straight-curve $-1 -60.806957048839443 53.790389786041303 11.758777767241554 0 -1 0 I I #
coedge $-1 $255 $255 $-1 $371 reversed $160 $-1 #
edge $-1 $372 0 $372 6.2831853071796004 $161 $373 forward 7 unknown #
vertex $-1 $164 $374 #
ellipse-curve $-1 -46.514397659299647 32.513491543933881 6.6357279348738762 0 0.77714596973225614 0.62932038083071107 3 0 0 1 I I #
face $-1 $-1 $375 $34 $-1 $376 reversed single #
loop $-1 $-1 $171 $165 #
plane-surface $-1 0 0 11.758777767241561 0 0 1 1 0 0 forward_v I I I I #
coedge $-1 $377 $378 $379 $380 reversed $166 $-1 #
coedge $-1 $381 $168 $170 $269 forward $104 $-1 #
coedge $-1 $168 $381 $377 $382 forward $104 $-1 #
coedge $-1 $379 $171 $168 $266 forward $260 $-1 #
edge $-1 $272 -3.5190141655737737 $383 25.066104613505821 $265 $384 forward 7 unknown #
coedge $-1 $385 $386 $169 $268 forward $375 $-1 #
edge $-1 $387 -75.133335399522849 $271 -64.887235734787481 $267 $388 forward 7 unknown #
edge $-1 $272 60.139844159510204 $387 73.324110775813168 $170 $389 forward 7 unknown #
coedge $-1 $171 $379 $385 $390 forward $260 $-1 #
vertex $-1 $268 $391 #
vertex $-1 $172 $392 #
straight-curve $-1 7.2545310583922511 53.790389786041303 11.758777767241554 0 -1 0 I I #
coedge $-1 $274 $274 $-1 $393 reversed $175 $-1 #
edge $-1 $394 0 $394 6.2831853071796004 $176 $395 forward 7 unknown #
vertex $-1 $179 $396 #
ellipse-curve $-1 21.54709044793205 32.513491543933881 6.6357279348738762 0 0.77714596973225614 0.62932038083071107 3 0 0 1 I I #
face $-1 $-1 $195 $27 $-1 $397 reversed single #
loop $-1 $-1 $294 $180 #
plane-surface $-1 0 36.662055387906584 0 0 -1 0 0 0 -1 forward_v I I I I #
coedge $-1 $398 $292 $295 $399 forward $181 $-1 #
coedge $-1 $298 $183 $184 $286 reversed $113 $-1 #
coedge $-1 $292 $398 $183 $284 reversed $181 $-1 #
edge $-1 $299 -11.758777767241561 $400 11.758777767241561 $283 $401 forward 7 unknown #
coedge $-1 $185 $184 $398 $402 forward $73 $-1 #
edge $-1 $290 -75.316019165623942 $400 75.316019165623942 $282 $403 forward 7 unknown #
coedge $-1 $295 $294 $185 $288 reversed $279 $-1 #
edge $-1 $404 -75.316019165623942 $289 75.316019165623942 $287 $405 forward 7 unknown #
vertex $-1 $187 $406 #
vertex $-1 $301 $407 #
straight-curve $-1 75.316019165623942 0 -11.758777767241561 0 -1 0 I I #
coedge $-1 $281 $283 $188 $293 reversed $181 $-1 #
edge $-1 $296 -36.662055387906584 $299 36.662055387906584 $292 $408 forward 7 unknown #
coedge $-1 $287 $189 $194 $302 forward $279 $-1 #
coedge $-1 $189 $287 $281 $399 reversed $279 $-1 #
vertex $-1 $190 $409 #
straight-curve $-1 0 36.662055387906584 11.758777767241561 -1 0 0 I I #
coedge $-1 $191 $282 $193 $301 reversed $113 $-1 #
vertex $-1 $293 $410 #
straight-curve $-1 0 -36.662055387906584 11.758777767241561 1 0 0 I I #
edge $-1 $196 -11.758777767241561 $290 11.758777767241561 $193 $411 forward 7 unknown #
edge $-1 $197 -11.758777767241561 $289 11.758777767241561 $194 $412 forward 7 unknown #
point $-1 75.316019165623942 -36.662055387906584 11.758777767241561 #
point $-1 75.316019165623942 36.662055387906584 11.758777767241561 #
face $-1 $-1 $318 $28 $-1 $413 reversed single #
loop $-1 $-1 $314 $199 #
plane-surface $-1 -75.316019165623942 0 0 1 0 0 0 0 -1 forward_v I I I I #
coedge $-1 $414 $202 $311 $415 forward $121 $-1 #
coedge $-1 $202 $414 $416 $417 forward $121 $-1 #
edge $-1 $418 -36.662055387906584 $312 36.662055387906584 $202 $419 forward 7 unknown #
coedge $-1 $204 $321 $308 $415 reversed $200 $-1 #
vertex $-1 $415 $420 #
straight-curve $-1 -60.80695704883945 -36.662055387906584 -5.0739806106049841 0 0 1 I I #
coedge $-1 $421 $422 $206 $315 forward $306 $-1 #
edge $-1 $322 -36.662055387906584 $319 36.662055387906584 $314 $423 forward 7 unknown #
coedge $-1 $416 $207 $211 $324 forward $318 $-1 #
coedge $-1 $207 $416 $421 $424 reversed $318 $-1 #
loop $-1 $-1 $316 $305 #
vertex $-1 $424 $425 #
straight-curve $-1 -34.030744053615848 36.662055387906584 -8.5371446751783751 1 0 0 I I #
coedge $-1 $311 $209 $422 $426 forward $200 $-1 #
vertex $-1 $426 $427 #
straight-curve $-1 -34.030744053615848 -36.662055387906584 -8.5371446751783751 -1 0 0 I I #
edge $-1 $213 3.463164064573391 $418 6.6847971566365771 $316 $428 forward 7 unknown #
point $-1 -60.80695704883945 -36.662055387906584 -8.5371446751783751 #
point $-1 -60.80695704883945 36.662055387906584 -8.5371446751783751 #
plane-surface $-1 0 -36.662055387906584 0 0 1 0 0 0 1 forward_v I I I I #
coedge $-1 $338 $337 $330 $429 forward $216 $-1 #
coedge $-1 $330 $218 $220 $334 reversed $129 $-1 #
coedge $-1 $218 $329 $328 $429 reversed $129 $-1 #
coedge $-1 $226 $221 $218 $332 forward $227 $-1 #
edge $-1 $335 -57.481300833654224 $430 -52.623799484596894 $331 $431 forward 7 unknown #
coedge $-1 $220 $219 $338 $432 reversed $81 $-1 #
edge $-1 $433 -8.2640747927146769 $335 8.8807605448725156e-015 $329 $434 forward 7 unknown #
vertex $-1 $222 $435 #
straight-curve $-1 -12.441459792297476 -36.662055387906584 6.9012764181842323 1 0 0 I I #
coedge $-1 $328 $223 $226 $342 forward $216 $-1 #
coedge $-1 $223 $328 $333 $432 forward $216 $-1 #
vertex $-1 $224 $436 #
straight-curve $-1 -40.368169988605786 -62.600673586457077 11.758777767241561 0 -1 0 I I #
straight-curve $-1 -40.368169988605786 -36.662055387906577 6.9012764181842385 0 0.80901698891910034 0.5877852598018023 I I #
edge $-1 $228 -40.368169988605786 $430 -9.397669180584117 $226 $437 forward 7 unknown #
point $-1 -40.368169988605786 -36.662055387906584 11.758777767241561 #
point $-1 -40.368169988605786 -36.662055387906584 6.9012764181842332 #
edge $-1 $438 1 $438 0 $231 $-1 forward 7 unknown #
vertex $-1 $232 $439 #
ellipse-curve $-1 -31.51945547202817 -32.121460516554784 7.6815256639537655 0 -0.5877852598018023 0.80901698891910034 1.5 0 0 1 I I #
point $-1 -30.01945547202817 -33.319166935404439 9.3300270927128963 #
edge $-1 $440 1 $440 0 $235 $-1 forward 7 unknown #
vertex $-1 $236 $441 #
ellipse-curve $-1 -18.24638369716174 -32.121460516554784 7.6815256639537655 0 -0.5877852598018023 0.80901698891910034 1.5 0 0 1 I I #
point $-1 -16.74638369716174 -33.319166935404439 9.3300270927128963 #
plane-surface $-1 0 0 11.758777767241561 0 0 1 1 0 0 forward_v I I I I #
coedge $-1 $364 $363 $356 $442 forward $240 $-1 #
coedge $-1 $356 $242 $244 $360 reversed $151 $-1 #
coedge $-1 $242 $355 $354 $442 reversed $151 $-1 #
coedge $-1 $250 $245 $242 $358 forward $251 $-1 #
edge $-1 $361 -25.425462086080124 $443 -17.128334398134719 $357 $444 forward 7 unknown #
coedge $-1 $244 $243 $364 $445 reversed $95 $-1 #
edge $-1 $446 -73.324110775813168 $361 -60.139844159510204 $355 $447 forward 7 unknown #
vertex $-1 $246 $448 #
straight-curve $-1 -23.257198829649823 28.364927699961171 11.758777767241561 1 0 0 I I #
coedge $-1 $354 $247 $250 $368 reversed $240 $-1 #
coedge $-1 $247 $354 $359 $445 forward $240 $-1 #
vertex $-1 $248 $449 #
straight-curve $-1 -60.806957048839443 36.662055387906584 76.646013502029035 0 0 1 I I #
straight-curve $-1 -60.806957048839443 -9.4823019296014053 58.496215276130883 0 0.62932038083071107 -0.77714596973225614 I I #
edge $-1 $443 32.22183826975985 $252 60.806957048839443 $363 $450 forward 7 unknown #
point $-1 -60.806957048839443 36.662055387906584 11.758777767241561 #
point $-1 -60.806957048839443 28.364927699961179 11.758777767241561 #
edge $-1 $451 1 $451 0 $255 $-1 forward 7 unknown #
vertex $-1 $256 $452 #
ellipse-curve $-1 -46.514397659299647 24.01658967075754 -0.24492734865125831 0 0.77714596973225614 0.62932038083071107 3 0 0 1 I I #
point $-1 -43.514397659299647 32.513491543933874 6.6357279348738762 #
loop $-1 $-1 $267 $259 #
plane-surface $-1 0 36.662055387906584 0 0 -1 0 0 0 -1 forward_v I I I I #
coedge $-1 $378 $262 $264 $382 reversed $166 $-1 #
coedge $-1 $262 $377 $453 $454 reversed $166 $-1 #
coedge $-1 $270 $265 $262 $380 forward $260 $-1 #
edge $-1 $383 -25.425462086080124 $455 -17.128334398134719 $379 $456 forward 7 unknown #
coedge $-1 $264 $263 $386 $457 reversed $104 $-1 #
edge $-1 $458 -73.324110775813168 $383 -60.139844159510204 $377 $459 forward 7 unknown #
vertex $-1 $266 $460 #
straight-curve $-1 10.773545223966025 28.364927699961171 11.758777767241561 1 0 0 I I #
coedge $-1 $453 $267 $270 $390 reversed $375 $-1 #
coedge $-1 $267 $453 $381 $457 forward $375 $-1 #
vertex $-1 $268 $461 #
straight-curve $-1 7.2545310583922511 36.662055387906584 76.646013502029035 0 0 1 I I #
straight-curve $-1 7.2545310583922511 -9.4823019296014053 58.496215276130883 0 0.62932038083071107 -0.77714596973225614 I I #
edge $-1 $455 -35.839649837471846 $271 -7.2545310583922511 $385 $462 forward 7 unknown #
point $-1 7.2545310583922511 36.662055387906584 11.758777767241561 #
point $-1 7.2545310583922511 28.364927699961179 11.758777767241561 #
edge $-1 $463 1 $463 0 $274 $-1 forward 7 unknown #
vertex $-1 $275 $464 #
ellipse-curve $-1 21.54709044793205 24.01658967075754 -0.24492734865125831 0 0.77714596973225614 0.62932038083071107 3 0 0 1 I I #
point $-1 24.54709044793205 32.513491543933874 6.6357279348738762 #
plane-surface $-1 75.316019165623942 0 0 -1 0 0 0 0 1 forward_v I I I I #
coedge $-1 $283 $281 $285 $402 reversed $181 $-1 #
edge $-1 $296 -11.758777767241561 $404 11.758777767241561 $295 $465 forward 7 unknown #
vertex $-1 $402 $466 #
straight-curve $-1 -75.316019165623942 -36.662055387906584 0 0 0 -1 I I #
edge $-1 $400 -36.662055387906584 $404 36.662055387906584 $398 $467 forward 7 unknown #
straight-curve $-1 0 -36.662055387906584 -11.758777767241561 -1 0 0 I I #
vertex $-1 $288 $468 #
straight-curve $-1 0 36.662055387906584 -11.758777767241561 1 0 0 I I #
point $-1 75.316019165623942 36.662055387906584 -11.758777767241561 #
point $-1 75.316019165623942 -36.662055387906584 -11.758777767241561 #
straight-curve $-1 -75.316019165623942 0 11.758777767241561 0 -1 0 I I #
point $-1 -75.316019165623942 36.662055387906584 11.758777767241561 #
point $-1 -75.316019165623942 -36.662055387906584 11.758777767241561 #
straight-curve $-1 75.316019165623942 -36.662055387906584 0 0 0 -1 I I #
straight-curve $-1 75.316019165623942 36.662055387906584 0 0 0 -1 I I #
plane-surface $-1 0 36.662055387906584 0 0 -1 0 0 0 -1 forward_v I I I I #
coedge $-1 $309 $308 $469 $470 forward $121 $-1 #
edge $-1 $312 60.80695704883945 $471 75.316019165623942 $311 $472 forward 7 unknown #
coedge $-1 $317 $316 $309 $417 reversed $318 $-1 #
edge $-1 $473 -75.316019165623942 $418 -60.80695704883945 $416 $474 forward 7 unknown #
vertex $-1 $324 $475 #
straight-curve $-1 -60.80695704883945 0 -11.758777767241561 0 -1 0 I I #
point $-1 -60.80695704883945 -36.662055387906584 -11.758777767241561 #
coedge $-1 $469 $314 $317 $424 forward $306 $-1 #
coedge $-1 $314 $469 $321 $426 reversed $306 $-1 #
straight-curve $-1 -75.316019165623942 0 -8.5371446751783751 0 1 0 I I #
edge $-1 $319 8.5371446751783751 $473 11.758777767241561 $317 $476 forward 7 unknown #
point $-1 -75.316019165623942 36.662055387906584 -8.5371446751783751 #
edge $-1 $322 8.5371446751783751 $471 11.758777767241561 $422 $477 forward 7 unknown #
point $-1 -75.316019165623942 -36.662055387906584 -8.5371446751783751 #
straight-curve $-1 -60.80695704883945 36.662055387906584 -5.0739806106049841 0 0 -1 I I #
edge $-1 $430 25.938618198550493 $433 32.624395103554768 $328 $478 forward 7 unknown #
vertex $-1 $332 $479 #
straight-curve $-1 -9.397669180584117 -36.662055387906584 64.382577251838455 0 0 1 I I #
edge $-1 $433 -3.0437906117133586 $339 27.92671019630831 $338 $480 forward 7 unknown #
vertex $-1 $432 $481 #
straight-curve $-1 -9.397669180584117 -36.662055387906577 6.9012764181842385 0 -0.80901698891910034 -0.5877852598018023 I I #
point $-1 -9.397669180584117 -36.662055387906584 6.9012764181842332 #
point $-1 -40.368169988605786 -29.976278482902309 11.758777767241561 #
straight-curve $-1 0 -36.662055387906584 11.758777767241561 1 0 0 I I #
vertex $-1 $345 $482 #
point $-1 -30.01945547202817 -32.121460516554784 7.6815256639537655 #
vertex $-1 $349 $483 #
point $-1 -16.74638369716174 -32.121460516554784 7.6815256639537655 #
edge $-1 $443 64.887235734787481 $446 75.133335399522849 $354 $484 forward 7 unknown #
vertex $-1 $368 $485 #
straight-curve $-1 -32.22183826975985 53.790389786041303 11.758777767241554 0 1 0 I I #
edge $-1 $446 8.9646394401100267 $365 37.54975821918962 $364 $486 forward 7 unknown #
vertex $-1 $445 $487 #
straight-curve $-1 -32.22183826975985 -9.4823019296014053 58.496215276130883 0 -0.62932038083071107 0.77714596973225614 I I #
point $-1 -32.22183826975985 28.364927699961179 11.758777767241561 #
point $-1 -60.806957048839443 36.662055387906584 1.512678102506186 #
straight-curve $-1 0 36.662055387906584 11.758777767241561 -1 0 0 I I #
vertex $-1 $371 $488 #
point $-1 -43.514397659299647 24.01658967075754 -0.24492734865125831 #
coedge $-1 $386 $385 $378 $454 forward $375 $-1 #
edge $-1 $455 64.887235734787481 $458 75.133335399522849 $453 $489 forward 7 unknown #
vertex $-1 $390 $490 #
straight-curve $-1 35.839649837471846 53.790389786041303 11.758777767241554 0 1 0 I I #
edge $-1 $458 -25.066104613505821 $387 3.5190141655737737 $386 $491 forward 7 unknown #
vertex $-1 $457 $492 #
straight-curve $-1 35.839649837471846 -9.4823019296014053 58.496215276130883 0 -0.62932038083071107 0.77714596973225614 I I #
point $-1 35.839649837471846 28.364927699961179 11.758777767241561 #
point $-1 7.2545310583922511 36.662055387906584 1.512678102506186 #
straight-curve $-1 0 36.662055387906584 11.758777767241561 -1 0 0 I I #
vertex $-1 $393 $493 #
point $-1 24.54709044793205 24.01658967075754 -0.24492734865125831 #
straight-curve $-1 -75.316019165623942 36.662055387906584 0 0 0 -1 I I #
point $-1 -75.316019165623942 -36.662055387906584 -11.758777767241561 #
straight-curve $-1 -75.316019165623942 0 -11.758777767241561 0 1 0 I I #
point $-1 -75.316019165623942 36.662055387906584 -11.758777767241561 #
coedge $-1 $422 $421 $414 $470 reversed $306 $-1 #
edge $-1 $471 -36.662055387906584 $473 36.662055387906584 $469 $494 forward 7 unknown #
vertex $-1 $470 $495 #
straight-curve $-1 0 -36.662055387906584 -11.758777767241561 -1 0 0 I I #
vertex $-1 $417 $496 #
straight-curve $-1 0 36.662055387906584 -11.758777767241561 1 0 0 I I #
point $-1 -60.80695704883945 36.662055387906584 -11.758777767241561 #
straight-curve $-1 -75.316019165623942 36.662055387906584 0 0 0 -1 I I #
straight-curve $-1 -75.316019165623942 -36.662055387906584 0 0 0 -1 I I #
straight-curve $-1 -9.397669180584117 -62.600673586457077 11.758777767241561 0 1 0 I I #
point $-1 -9.397669180584117 -36.662055387906584 11.758777767241561 #
straight-curve $-1 -12.441459792297476 -29.976278482902313 11.758777767241561 -1 0 0 I I #
point $-1 -9.397669180584117 -29.976278482902309 11.758777767241561 #
point $-1 -31.51945547202817 -31.239782626852083 6.4680001805751157 #
point $-1 -18.24638369716174 -31.239782626852083 6.4680001805751157 #
straight-curve $-1 -32.22183826975985 36.662055387906584 76.646013502029035 0 0 -1 I I #
point $-1 -32.22183826975985 36.662055387906584 11.758777767241561 #
straight-curve $-1 -23.257198829649823 36.662055387906584 1.5126781025061824 -1 0 0 I I #
point $-1 -32.22183826975985 36.662055387906584 1.512678102506186 #
point $-1 -46.514397659299647 21.685151761560775 -2.1328884911433916 #
straight-curve $-1 35.839649837471846 36.662055387906584 76.646013502029035 0 0 -1 I I #
point $-1 35.839649837471846 36.662055387906584 11.758777767241561 #
straight-curve $-1 10.773545223966025 36.662055387906584 1.5126781025061824 -1 0 0 I I #
point $-1 35.839649837471846 36.662055387906584 1.512678102506186 #
point $-1 21.54709044793205 21.685151761560775 -2.1328884911433916 #
straight-curve $-1 -75.316019165623942 0 -11.758777767241561 0 1 0 I I #
point $-1 -75.316019165623942 -36.662055387906584 -11.758777767241561 #
point $-1 -75.316019165623942 36.662055387906584 -11.758777767241561 #
End-of-ACIS-data 