500 0 10 0           
7 Unknown 11 ACIS 5.0 NT 24 Thu Mar 25 18:17:02 1999 
-1 9.9999999999999995e-007 1e-010 
body $-1 $10 $-1 $11 #
body $-1 $12 $-1 $13 #
body $-1 $14 $-1 $15 #
body $-1 $16 $-1 $17 #
body $-1 $18 $-1 $19 #
body $-1 $20 $-1 $21 #
body $-1 $22 $-1 $23 #
body $-1 $24 $-1 $25 #
body $-1 $26 $-1 $27 #
body $-1 $28 $-1 $29 #
lump $-1 $-1 $30 $0 #
transform $-1 1 0 0 0 1 0 0 0 1 47.892086550492877 32.853588435722635 7.115152591792417 1 rotate no_reflect no_shear #
lump $-1 $-1 $31 $1 #
transform $-1 1 0 0 0 1 0 0 0 1 2.8475962437491629 32.853588435722635 2.3009650933572727 1 rotate no_reflect no_shear #
lump $-1 $-1 $32 $2 #
transform $-1 1 0 0 0 0.77714595512881146 0.62932039886446345 0 -0.62932039886446345 0.77714595512881146 70.867438628629102 -60.278934020815164 82.291141094043809 1 rotate no_reflect no_shear #
lump $-1 $-1 $33 $3 #
transform $-1 1 0 0 0 -0.77714595512881146 -0.62932039886446345 0 0.62932039886446345 -0.77714595512881146 63.010668846527217 5.4134370739445146 9.2192543374790645 1 rotate no_reflect no_shear #
lump $-1 $-1 $34 $4 #
transform $-1 1 0 0 0 -0.77714595512881146 -0.62932039886446345 0 0.62932039886446345 -0.77714595512881146 70.867438628629102 5.4134370739445146 9.2192543374790645 1 rotate no_reflect no_shear #
lump $-1 $-1 $35 $5 #
transform $-1 1 0 0 0 -0.77714595512881146 -0.62932039886446345 0 0.62932039886446345 -0.77714595512881146 78.724208410730981 5.4134370739445146 9.2192543374790645 1 rotate no_reflect no_shear #
lump $-1 $-1 $36 $6 #
transform $-1 1 0 0 0 0.75470957328743171 -0.6560590369687036 0 0.6560590369687036 0.75470957328743171 43.530461068385513 78.957413814351327 123.79216837250405 1 rotate no_reflect no_shear #
lump $-1 $-1 $37 $7 #
transform $-1 1 0 0 0 -0.75470957328743171 0.6560590369687036 0 -0.6560590369687036 -0.75470957328743171 43.530461068385513 60.085594408257528 8.7068058288565027 1 rotate no_reflect no_shear #
lump $-1 $-1 $38 $8 #
transform $-1 1 0 0 0 0.75470957328743171 -0.6560590369687036 0 0.6560590369687036 0.75470957328743171 57.948904520098559 78.957413814351327 123.79216837250405 1 rotate no_reflect no_shear #
lump $-1 $-1 $39 $9 #
transform $-1 1 0 0 0 -0.75470957328743171 0.6560590369687036 0 -0.6560590369687036 -0.75470957328743171 57.948904520098559 60.085594408257528 8.7068058288565027 1 rotate no_reflect no_shear #
shell $-1 $-1 $-1 $40 $-1 $10 #
shell $-1 $-1 $-1 $41 $-1 $12 #
shell $-1 $-1 $-1 $42 $-1 $14 #
shell $-1 $-1 $-1 $43 $-1 $16 #
shell $-1 $-1 $-1 $44 $-1 $18 #
shell $-1 $-1 $-1 $45 $-1 $20 #
shell $-1 $-1 $-1 $46 $-1 $22 #
shell $-1 $-1 $-1 $47 $-1 $24 #
shell $-1 $-1 $-1 $48 $-1 $26 #
shell $-1 $-1 $-1 $49 $-1 $28 #
face $-1 $50 $51 $30 $-1 $52 forward single #
face $-1 $53 $54 $31 $-1 $55 forward single #
face $-1 $56 $57 $32 $-1 $58 forward single #
face $-1 $59 $60 $33 $-1 $61 forward single #
face $-1 $62 $63 $34 $-1 $64 forward single #
face $-1 $65 $66 $35 $-1 $67 forward single #
face $-1 $68 $69 $36 $-1 $70 forward single #
face $-1 $71 $72 $37 $-1 $73 forward single #
face $-1 $74 $75 $38 $-1 $76 forward single #
face $-1 $77 $78 $39 $-1 $79 forward single #
face $-1 $80 $81 $30 $-1 $82 reversed single #
loop $-1 $-1 $83 $40 #
plane-surface $-1 0 0 7.115152591792417 0 0 1 1 0 0 forward_v I I I I #
face $-1 $84 $85 $31 $-1 $86 reversed single #
loop $-1 $-1 $87 $41 #
plane-surface $-1 0 0 1.5 0 0 1 1 0 0 forward_v I I I I #
face $-1 $88 $89 $32 $-1 $90 reversed single #
loop $-1 $-1 $91 $42 #
plane-surface $-1 0 0 95.784173100985754 0 0 1 1 0 0 forward_v I I I I #
face $-1 $92 $93 $33 $-1 $94 forward single #
loop $-1 $95 $96 $43 #
cone-surface $-1 0 0 -1.5474486526078071 0 0 1 1.5 0 0 1 I I 0 1 1.5 forward I I I I #
face $-1 $97 $98 $34 $-1 $99 forward single #
loop $-1 $100 $101 $44 #
cone-surface $-1 0 0 -1.5474486526078071 0 0 1 1.5 0 0 1 I I 0 1 1.5 forward I I I I #
face $-1 $102 $103 $35 $-1 $104 forward single #
loop $-1 $105 $106 $45 #
cone-surface $-1 0 0 -1.5474486526078071 0 0 1 1.5 0 0 1 I I 0 1 1.5 forward I I I I #
face $-1 $107 $108 $36 $-1 $109 reversed single #
loop $-1 $-1 $110 $46 #
plane-surface $-1 0 0 95.784173100985754 0 0 1 1 0 0 forward_v I I I I #
face $-1 $111 $112 $37 $-1 $113 forward single #
loop $-1 $114 $115 $47 #
cone-surface $-1 0 0 -1.9764397106845299 0 0 1 1 0 0 1 I I 0 1 1 forward I I I I #
face $-1 $116 $117 $38 $-1 $118 reversed single #
loop $-1 $-1 $119 $48 #
plane-surface $-1 0 0 95.784173100985754 0 0 1 1 0 0 forward_v I I I I #
face $-1 $120 $121 $39 $-1 $122 forward single #
loop $-1 $123 $124 $49 #
cone-surface $-1 0 0 -1.9764397106845299 0 0 1 1 0 0 1 I I 0 1 1 forward I I I I #
face $-1 $125 $126 $30 $-1 $127 reversed single #
loop $-1 $-1 $128 $50 #
plane-surface $-1 0 0 -7.115152591792417 0 0 1 1 0 0 forward_v I I I I #
coedge $-1 $129 $130 $131 $132 forward $51 $-1 #
face $-1 $133 $134 $31 $-1 $135 reversed single #
loop $-1 $-1 $136 $53 #
plane-surface $-1 0 0 -1.5 0 0 1 1 0 0 forward_v I I I I #
coedge $-1 $137 $138 $139 $140 forward $54 $-1 #
face $-1 $141 $142 $32 $-1 $143 reversed single #
loop $-1 $-1 $144 $56 #
plane-surface $-1 0 0 -95.784173100985754 0 0 1 1 0 0 forward_v I I I I #
coedge $-1 $145 $146 $147 $148 forward $57 $-1 #
face $-1 $-1 $149 $33 $-1 $150 forward single #
loop $-1 $-1 $151 $59 #
plane-surface $-1 0 0 -2.3448973052156137 0 0 -1 -1 0 0 forward_v I I I I #
loop $-1 $-1 $152 $43 #
coedge $-1 $96 $96 $151 $153 reversed $60 $-1 #
face $-1 $-1 $154 $34 $-1 $155 forward single #
loop $-1 $-1 $156 $62 #
plane-surface $-1 0 0 -2.3448973052156137 0 0 -1 -1 0 0 forward_v I I I I #
loop $-1 $-1 $157 $44 #
coedge $-1 $101 $101 $156 $158 reversed $63 $-1 #
face $-1 $-1 $159 $35 $-1 $160 forward single #
loop $-1 $-1 $161 $65 #
plane-surface $-1 0 0 -2.3448973052156137 0 0 -1 -1 0 0 forward_v I I I I #
loop $-1 $-1 $162 $45 #
coedge $-1 $106 $106 $161 $163 reversed $66 $-1 #
face $-1 $164 $165 $36 $-1 $166 reversed single #
loop $-1 $-1 $167 $68 #
plane-surface $-1 0 0 -95.784173100985754 0 0 1 1 0 0 forward_v I I I I #
coedge $-1 $168 $169 $170 $171 forward $69 $-1 #
face $-1 $-1 $172 $37 $-1 $173 forward single #
loop $-1 $-1 $174 $71 #
plane-surface $-1 0 0 -3.4528794213690599 0 0 -1 -1 0 0 forward_v I I I I #
loop $-1 $-1 $175 $47 #
coedge $-1 $115 $115 $174 $176 reversed $72 $-1 #
face $-1 $177 $178 $38 $-1 $179 reversed single #
loop $-1 $-1 $180 $74 #
plane-surface $-1 0 0 -95.784173100985754 0 0 1 1 0 0 forward_v I I I I #
coedge $-1 $181 $182 $183 $184 forward $75 $-1 #
face $-1 $-1 $185 $39 $-1 $186 forward single #
loop $-1 $-1 $187 $77 #
plane-surface $-1 0 0 -3.4528794213690599 0 0 -1 -1 0 0 forward_v I I I I #
loop $-1 $-1 $188 $49 #
coedge $-1 $124 $124 $187 $189 reversed $78 $-1 #
face $-1 $190 $191 $30 $-1 $192 reversed single #
loop $-1 $-1 $193 $80 #
plane-surface $-1 0 -32.853588435722635 0 0 1 0 0 0 1 forward_v I I I I #
coedge $-1 $194 $195 $196 $197 forward $81 $-1 #
coedge $-1 $198 $83 $199 $200 forward $51 $-1 #
coedge $-1 $83 $198 $201 $202 forward $51 $-1 #
coedge $-1 $203 $204 $83 $132 reversed $205 $-1 #
edge $-1 $206 -32.853588435722635 $207 32.853588435722635 $131 $208 forward 7 unknown #
face $-1 $209 $210 $31 $-1 $211 reversed single #
loop $-1 $-1 $212 $84 #
plane-surface $-1 0 -32.853588435722635 0 0 1 0 0 0 1 forward_v I I I I #
coedge $-1 $213 $214 $215 $216 forward $85 $-1 #
coedge $-1 $217 $87 $218 $219 forward $54 $-1 #
coedge $-1 $87 $217 $220 $221 forward $54 $-1 #
coedge $-1 $222 $223 $87 $140 reversed $224 $-1 #
edge $-1 $225 -32.853588435722635 $226 32.853588435722635 $139 $227 forward 7 unknown #
face $-1 $228 $229 $32 $-1 $230 reversed single #
loop $-1 $-1 $231 $88 #
plane-surface $-1 0 -191.56834620197151 0 0 1 0 0 0 1 forward_v I I I I #
coedge $-1 $232 $233 $234 $235 forward $89 $-1 #
coedge $-1 $236 $91 $237 $238 forward $57 $-1 #
coedge $-1 $91 $236 $239 $240 forward $57 $-1 #
coedge $-1 $241 $242 $91 $148 reversed $243 $-1 #
edge $-1 $244 -191.56834620197151 $245 191.56834620197151 $147 $246 forward 7 unknown #
loop $-1 $247 $248 $92 #
cone-surface $-1 0 0 0 0 0 1 0.75 0 0 1 I I -0.70710678118654757 0.70710678118654757 0.75 forward I I I I #
coedge $-1 $151 $151 $96 $153 forward $93 $-1 #
coedge $-1 $152 $152 $248 $249 forward $95 $-1 #
edge $-1 $250 0 $250 6.2831853071796004 $151 $251 forward 7 unknown #
loop $-1 $252 $253 $97 #
cone-surface $-1 0 0 0 0 0 1 0.75 0 0 1 I I -0.70710678118654757 0.70710678118654757 0.75 forward I I I I #
coedge $-1 $156 $156 $101 $158 forward $98 $-1 #
coedge $-1 $157 $157 $253 $254 forward $100 $-1 #
edge $-1 $255 0 $255 6.2831853071796004 $156 $256 forward 7 unknown #
loop $-1 $257 $258 $102 #
cone-surface $-1 0 0 0 0 0 1 0.75 0 0 1 I I -0.70710678118654757 0.70710678118654757 0.75 forward I I I I #
coedge $-1 $161 $161 $106 $163 forward $103 $-1 #
coedge $-1 $162 $162 $258 $259 forward $105 $-1 #
edge $-1 $260 0 $260 6.2831853071796004 $161 $261 forward 7 unknown #
face $-1 $262 $263 $36 $-1 $264 reversed single #
loop $-1 $-1 $265 $107 #
plane-surface $-1 0 -191.56834620197151 0 0 1 0 0 0 1 forward_v I I I I #
coedge $-1 $266 $267 $268 $269 forward $108 $-1 #
coedge $-1 $270 $110 $271 $272 forward $69 $-1 #
coedge $-1 $110 $270 $273 $274 forward $69 $-1 #
coedge $-1 $275 $276 $110 $171 reversed $277 $-1 #
edge $-1 $278 -191.56834620197151 $279 191.56834620197151 $170 $280 forward 7 unknown #
loop $-1 $281 $282 $111 #
cone-surface $-1 0 0 0 0 0 1 0.5 0 0 1 I I -0.70710678118654746 0.70710678118654746 0.5 forward I I I I #
coedge $-1 $174 $174 $115 $176 forward $112 $-1 #
coedge $-1 $175 $175 $282 $283 forward $114 $-1 #
edge $-1 $284 0 $284 6.2831853071796004 $174 $285 forward 7 unknown #
face $-1 $286 $287 $38 $-1 $288 reversed single #
loop $-1 $-1 $289 $116 #
plane-surface $-1 0 -191.56834620197151 0 0 1 0 0 0 1 forward_v I I I I #
coedge $-1 $290 $291 $292 $293 forward $117 $-1 #
coedge $-1 $294 $119 $295 $296 forward $75 $-1 #
coedge $-1 $119 $294 $297 $298 forward $75 $-1 #
coedge $-1 $299 $300 $119 $184 reversed $301 $-1 #
edge $-1 $302 -191.56834620197151 $303 191.56834620197151 $183 $304 forward 7 unknown #
loop $-1 $305 $306 $120 #
cone-surface $-1 0 0 0 0 0 1 0.5 0 0 1 I I -0.70710678118654746 0.70710678118654746 0.5 forward I I I I #
coedge $-1 $187 $187 $124 $189 forward $121 $-1 #
coedge $-1 $188 $188 $306 $307 forward $123 $-1 #
edge $-1 $308 0 $308 6.2831853071796004 $187 $309 forward 7 unknown #
face $-1 $310 $311 $30 $-1 $312 reversed single #
loop $-1 $-1 $313 $125 #
plane-surface $-1 -47.892086550492877 0 0 1 0 0 0 0 -1 forward_v I I I I #
coedge $-1 $314 $201 $315 $316 forward $126 $-1 #
coedge $-1 $317 $128 $314 $318 forward $81 $-1 #
coedge $-1 $128 $317 $319 $320 forward $81 $-1 #
coedge $-1 $204 $203 $128 $197 reversed $205 $-1 #
edge $-1 $321 -32.853588435722635 $322 32.853588435722635 $196 $323 forward 7 unknown #
coedge $-1 $130 $129 $324 $325 forward $51 $-1 #
coedge $-1 $326 $327 $129 $200 reversed $311 $-1 #
edge $-1 $207 -47.892086550492877 $328 47.892086550492877 $199 $329 forward 7 unknown #
coedge $-1 $193 $330 $130 $202 reversed $126 $-1 #
edge $-1 $331 -47.892086550492877 $206 47.892086550492877 $201 $332 forward 7 unknown #
coedge $-1 $196 $131 $330 $333 forward $205 $-1 #
coedge $-1 $131 $196 $326 $334 reversed $205 $-1 #
loop $-1 $-1 $203 $310 #
vertex $-1 $132 $335 #
vertex $-1 $132 $336 #
straight-curve $-1 47.892086550492877 0 7.115152591792417 0 1 0 I I #
face $-1 $337 $338 $31 $-1 $339 reversed single #
loop $-1 $-1 $340 $133 #
plane-surface $-1 -2.8475962437491629 0 0 1 0 0 0 0 -1 forward_v I I I I #
coedge $-1 $341 $220 $342 $343 forward $134 $-1 #
coedge $-1 $344 $136 $341 $345 forward $85 $-1 #
coedge $-1 $136 $344 $346 $347 forward $85 $-1 #
coedge $-1 $223 $222 $136 $216 reversed $224 $-1 #
edge $-1 $348 -32.853588435722635 $349 32.853588435722635 $215 $350 forward 7 unknown #
coedge $-1 $138 $137 $351 $352 forward $54 $-1 #
coedge $-1 $353 $354 $137 $219 reversed $338 $-1 #
edge $-1 $226 -2.8475962437491629 $355 2.8475962437491629 $218 $356 forward 7 unknown #
coedge $-1 $212 $357 $138 $221 reversed $134 $-1 #
edge $-1 $358 -2.8475962437491629 $225 2.8475962437491629 $220 $359 forward 7 unknown #
coedge $-1 $215 $139 $357 $360 forward $224 $-1 #
coedge $-1 $139 $215 $353 $361 reversed $224 $-1 #
loop $-1 $-1 $222 $337 #
vertex $-1 $140 $362 #
vertex $-1 $140 $363 #
straight-curve $-1 2.8475962437491629 0 1.5 0 1 0 I I #
face $-1 $364 $365 $32 $-1 $366 reversed single #
loop $-1 $-1 $367 $141 #
plane-surface $-1 -13.094616303503134 0 0 1 0 0 0 0 -1 forward_v I I I I #
coedge $-1 $368 $239 $369 $370 forward $142 $-1 #
coedge $-1 $371 $144 $368 $372 forward $89 $-1 #
coedge $-1 $144 $371 $373 $374 forward $89 $-1 #
coedge $-1 $242 $241 $144 $235 reversed $243 $-1 #
edge $-1 $375 -191.56834620197151 $376 191.56834620197151 $234 $377 forward 7 unknown #
coedge $-1 $146 $145 $378 $379 forward $57 $-1 #
coedge $-1 $380 $381 $145 $238 reversed $365 $-1 #
edge $-1 $245 -13.094616303503134 $382 13.094616303503134 $237 $383 forward 7 unknown #
coedge $-1 $231 $384 $146 $240 reversed $142 $-1 #
edge $-1 $385 -13.094616303503134 $244 13.094616303503134 $239 $386 forward 7 unknown #
coedge $-1 $234 $147 $384 $387 forward $243 $-1 #
coedge $-1 $147 $234 $380 $388 reversed $243 $-1 #
loop $-1 $-1 $241 $364 #
vertex $-1 $148 $389 #
vertex $-1 $148 $390 #
straight-curve $-1 13.094616303503134 0 95.784173100985754 0 1 0 I I #
loop $-1 $-1 $391 $92 #
coedge $-1 $248 $248 $152 $249 reversed $149 $-1 #
edge $-1 $392 0 $392 6.2831853071796004 $248 $393 forward 7 unknown #
vertex $-1 $153 $394 #
ellipse-curve $-1 0 0 -2.3448973052156137 0 0 -1 1.5 0 0 1 I I #
loop $-1 $-1 $395 $97 #
coedge $-1 $253 $253 $157 $254 reversed $154 $-1 #
edge $-1 $396 0 $396 6.2831853071796004 $253 $397 forward 7 unknown #
vertex $-1 $158 $398 #
ellipse-curve $-1 0 0 -2.3448973052156137 0 0 -1 1.5 0 0 1 I I #
loop $-1 $-1 $399 $102 #
coedge $-1 $258 $258 $162 $259 reversed $159 $-1 #
edge $-1 $400 0 $400 6.2831853071796004 $258 $401 forward 7 unknown #
vertex $-1 $163 $402 #
ellipse-curve $-1 0 0 -2.3448973052156137 0 0 -1 1.5 0 0 1 I I #
face $-1 $403 $404 $36 $-1 $405 reversed single #
loop $-1 $-1 $406 $164 #
plane-surface $-1 -7.2092217258565228 0 0 1 0 0 0 0 -1 forward_v I I I I #
coedge $-1 $407 $273 $408 $409 forward $165 $-1 #
coedge $-1 $410 $167 $407 $411 forward $108 $-1 #
coedge $-1 $167 $410 $412 $413 forward $108 $-1 #
coedge $-1 $276 $275 $167 $269 reversed $277 $-1 #
edge $-1 $414 -191.56834620197151 $415 191.56834620197151 $268 $416 forward 7 unknown #
coedge $-1 $169 $168 $417 $418 forward $69 $-1 #
coedge $-1 $419 $420 $168 $272 reversed $404 $-1 #
edge $-1 $279 -7.2092217258565228 $421 7.2092217258565228 $271 $422 forward 7 unknown #
coedge $-1 $265 $423 $169 $274 reversed $165 $-1 #
edge $-1 $424 -7.2092217258565228 $278 7.2092217258565228 $273 $425 forward 7 unknown #
coedge $-1 $268 $170 $423 $426 forward $277 $-1 #
coedge $-1 $170 $268 $419 $427 reversed $277 $-1 #
loop $-1 $-1 $275 $403 #
vertex $-1 $171 $428 #
vertex $-1 $171 $429 #
straight-curve $-1 7.2092217258565228 0 95.784173100985754 0 1 0 I I #
loop $-1 $-1 $430 $111 #
coedge $-1 $282 $282 $175 $283 reversed $172 $-1 #
edge $-1 $431 0 $431 6.2831853071796004 $282 $432 forward 7 unknown #
vertex $-1 $176 $433 #
ellipse-curve $-1 0 0 -3.4528794213690599 0 0 -1 1 0 0 1 I I #
face $-1 $434 $435 $38 $-1 $436 reversed single #
loop $-1 $-1 $437 $177 #
plane-surface $-1 -7.2092217258565228 0 0 1 0 0 0 0 -1 forward_v I I I I #
coedge $-1 $438 $297 $439 $440 forward $178 $-1 #
coedge $-1 $441 $180 $438 $442 forward $117 $-1 #
coedge $-1 $180 $441 $443 $444 forward $117 $-1 #
coedge $-1 $300 $299 $180 $293 reversed $301 $-1 #
edge $-1 $445 -191.56834620197151 $446 191.56834620197151 $292 $447 forward 7 unknown #
coedge $-1 $182 $181 $448 $449 forward $75 $-1 #
coedge $-1 $450 $451 $181 $296 reversed $435 $-1 #
edge $-1 $303 -7.2092217258565228 $452 7.2092217258565228 $295 $453 forward 7 unknown #
coedge $-1 $289 $454 $182 $298 reversed $178 $-1 #
edge $-1 $455 -7.2092217258565228 $302 7.2092217258565228 $297 $456 forward 7 unknown #
coedge $-1 $292 $183 $454 $457 forward $301 $-1 #
coedge $-1 $183 $292 $450 $458 reversed $301 $-1 #
loop $-1 $-1 $299 $434 #
vertex $-1 $184 $459 #
vertex $-1 $184 $460 #
straight-curve $-1 7.2092217258565228 0 95.784173100985754 0 1 0 I I #
loop $-1 $-1 $461 $120 #
coedge $-1 $306 $306 $188 $307 reversed $185 $-1 #
edge $-1 $462 0 $462 6.2831853071796004 $306 $463 forward 7 unknown #
vertex $-1 $189 $464 #
ellipse-curve $-1 0 0 -3.4528794213690599 0 0 -1 1 0 0 1 I I #
face $-1 $-1 $205 $30 $-1 $465 reversed single #
loop $-1 $-1 $326 $190 #
plane-surface $-1 0 32.853588435722635 0 0 -1 0 0 0 -1 forward_v I I I I #
coedge $-1 $466 $324 $327 $467 forward $191 $-1 #
coedge $-1 $330 $193 $194 $318 reversed $126 $-1 #
coedge $-1 $324 $466 $193 $316 reversed $191 $-1 #
edge $-1 $331 -7.115152591792417 $468 7.115152591792417 $315 $469 forward 7 unknown #
coedge $-1 $195 $194 $466 $470 forward $81 $-1 #
edge $-1 $322 -47.892086550492877 $468 47.892086550492877 $314 $471 forward 7 unknown #
coedge $-1 $327 $326 $195 $320 reversed $311 $-1 #
edge $-1 $472 -47.892086550492877 $321 47.892086550492877 $319 $473 forward 7 unknown #
vertex $-1 $197 $474 #
vertex $-1 $333 $475 #
straight-curve $-1 47.892086550492877 0 -7.115152591792417 0 -1 0 I I #
coedge $-1 $313 $315 $198 $325 reversed $191 $-1 #
edge $-1 $328 -32.853588435722635 $331 32.853588435722635 $324 $476 forward 7 unknown #
coedge $-1 $319 $199 $204 $334 forward $311 $-1 #
coedge $-1 $199 $319 $313 $467 reversed $311 $-1 #
vertex $-1 $200 $477 #
straight-curve $-1 0 32.853588435722635 7.115152591792417 -1 0 0 I I #
coedge $-1 $201 $314 $203 $333 reversed $126 $-1 #
vertex $-1 $325 $478 #
straight-curve $-1 0 -32.853588435722635 7.115152591792417 1 0 0 I I #
edge $-1 $206 -7.115152591792417 $322 7.115152591792417 $203 $479 forward 7 unknown #
edge $-1 $207 -7.115152591792417 $321 7.115152591792417 $204 $480 forward 7 unknown #
point $-1 47.892086550492877 -32.853588435722635 7.115152591792417 #
point $-1 47.892086550492877 32.853588435722635 7.115152591792417 #
face $-1 $-1 $224 $31 $-1 $481 reversed single #
loop $-1 $-1 $353 $209 #
plane-surface $-1 0 32.853588435722635 0 0 -1 0 0 0 -1 forward_v I I I I #
coedge $-1 $482 $351 $354 $483 forward $210 $-1 #
coedge $-1 $357 $212 $213 $345 reversed $134 $-1 #
coedge $-1 $351 $482 $212 $343 reversed $210 $-1 #
edge $-1 $358 -1.5 $484 1.5 $342 $485 forward 7 unknown #
coedge $-1 $214 $213 $482 $486 forward $85 $-1 #
edge $-1 $349 -2.8475962437491629 $484 2.8475962437491629 $341 $487 forward 7 unknown #
coedge $-1 $354 $353 $214 $347 reversed $338 $-1 #
edge $-1 $488 -2.8475962437491629 $348 2.8475962437491629 $346 $489 forward 7 unknown #
vertex $-1 $216 $490 #
vertex $-1 $360 $491 #
straight-curve $-1 2.8475962437491629 0 -1.5 0 -1 0 I I #
coedge $-1 $340 $342 $217 $352 reversed $210 $-1 #
edge $-1 $355 -32.853588435722635 $358 32.853588435722635 $351 $492 forward 7 unknown #
coedge $-1 $346 $218 $223 $361 forward $338 $-1 #
coedge $-1 $218 $346 $340 $483 reversed $338 $-1 #
vertex $-1 $219 $493 #
straight-curve $-1 0 32.853588435722635 1.5 -1 0 0 I I #
coedge $-1 $220 $341 $222 $360 reversed $134 $-1 #
vertex $-1 $352 $494 #
straight-curve $-1 0 -32.853588435722635 1.5 1 0 0 I I #
edge $-1 $225 -1.5 $349 1.5 $222 $495 forward 7 unknown #
edge $-1 $226 -1.5 $348 1.5 $223 $496 forward 7 unknown #
point $-1 2.8475962437491629 -32.853588435722635 1.5 #
point $-1 2.8475962437491629 32.853588435722635 1.5 #
face $-1 $-1 $243 $32 $-1 $497 reversed single #
loop $-1 $-1 $380 $228 #
plane-surface $-1 0 191.56834620197151 0 0 -1 0 0 0 -1 forward_v I I I I #
coedge $-1 $498 $378 $381 $499 forward $229 $-1 #
coedge $-1 $384 $231 $232 $372 reversed $142 $-1 #
coedge $-1 $378 $498 $231 $370 reversed $229 $-1 #
edge $-1 $385 -95.784173100985754 $500 95.784173100985754 $369 $501 forward 7 unknown #
coedge $-1 $233 $232 $498 $502 forward $89 $-1 #
edge $-1 $376 -13.094616303503134 $500 13.094616303503134 $368 $503 forward 7 unknown #
coedge $-1 $381 $380 $233 $374 reversed $365 $-1 #
edge $-1 $504 -13.094616303503134 $375 13.094616303503134 $373 $505 forward 7 unknown #
vertex $-1 $235 $506 #
vertex $-1 $387 $507 #
straight-curve $-1 13.094616303503134 0 -95.784173100985754 0 -1 0 I I #
coedge $-1 $367 $369 $236 $379 reversed $229 $-1 #
edge $-1 $382 -191.56834620197151 $385 191.56834620197151 $378 $508 forward 7 unknown #
coedge $-1 $373 $237 $242 $388 forward $365 $-1 #
coedge $-1 $237 $373 $367 $499 reversed $365 $-1 #
vertex $-1 $238 $509 #
straight-curve $-1 0 191.56834620197151 95.784173100985754 -1 0 0 I I #
coedge $-1 $239 $368 $241 $387 reversed $142 $-1 #
vertex $-1 $379 $510 #
straight-curve $-1 0 -191.56834620197151 95.784173100985754 1 0 0 I I #
edge $-1 $244 -95.784173100985754 $376 95.784173100985754 $241 $511 forward 7 unknown #
edge $-1 $245 -95.784173100985754 $375 95.784173100985754 $242 $512 forward 7 unknown #
point $-1 13.094616303503134 -191.56834620197151 95.784173100985754 #
point $-1 13.094616303503134 191.56834620197151 95.784173100985754 #
coedge $-1 $391 $391 $-1 $513 reversed $247 $-1 #
vertex $-1 $249 $514 #
ellipse-curve $-1 0 0 -0.75 0 0 -1 1.5 0 0 1 I I #
point $-1 1.5 0 -2.3448973052156137 #
coedge $-1 $395 $395 $-1 $515 reversed $252 $-1 #
vertex $-1 $254 $516 #
ellipse-curve $-1 0 0 -0.75 0 0 -1 1.5 0 0 1 I I #
point $-1 1.5 0 -2.3448973052156137 #
coedge $-1 $399 $399 $-1 $517 reversed $257 $-1 #
vertex $-1 $259 $518 #
ellipse-curve $-1 0 0 -0.75 0 0 -1 1.5 0 0 1 I I #
point $-1 1.5 0 -2.3448973052156137 #
face $-1 $-1 $277 $36 $-1 $519 reversed single #
loop $-1 $-1 $419 $262 #
plane-surface $-1 0 191.56834620197151 0 0 -1 0 0 0 -1 forward_v I I I I #
coedge $-1 $520 $417 $420 $521 forward $263 $-1 #
coedge $-1 $423 $265 $266 $411 reversed $165 $-1 #
coedge $-1 $417 $520 $265 $409 reversed $263 $-1 #
edge $-1 $424 -95.784173100985754 $522 95.784173100985754 $408 $523 forward 7 unknown #
coedge $-1 $267 $266 $520 $524 forward $108 $-1 #
edge $-1 $415 -7.2092217258565228 $522 7.2092217258565228 $407 $525 forward 7 unknown #
coedge $-1 $420 $419 $267 $413 reversed $404 $-1 #
edge $-1 $526 -7.2092217258565228 $414 7.2092217258565228 $412 $527 forward 7 unknown #
vertex $-1 $269 $528 #
vertex $-1 $426 $529 #
straight-curve $-1 7.2092217258565228 0 -95.784173100985754 0 -1 0 I I #
coedge $-1 $406 $408 $270 $418 reversed $263 $-1 #
edge $-1 $421 -191.56834620197151 $424 191.56834620197151 $417 $530 forward 7 unknown #
coedge $-1 $412 $271 $276 $427 forward $404 $-1 #
coedge $-1 $271 $412 $406 $521 reversed $404 $-1 #
vertex $-1 $272 $531 #
straight-curve $-1 0 191.56834620197151 95.784173100985754 -1 0 0 I I #
coedge $-1 $273 $407 $275 $426 reversed $165 $-1 #
vertex $-1 $418 $532 #
straight-curve $-1 0 -191.56834620197151 95.784173100985754 1 0 0 I I #
edge $-1 $278 -95.784173100985754 $415 95.784173100985754 $275 $533 forward 7 unknown #
edge $-1 $279 -95.784173100985754 $414 95.784173100985754 $276 $534 forward 7 unknown #
point $-1 7.2092217258565228 -191.56834620197151 95.784173100985754 #
point $-1 7.2092217258565228 191.56834620197151 95.784173100985754 #
coedge $-1 $430 $430 $-1 $535 reversed $281 $-1 #
vertex $-1 $283 $536 #
ellipse-curve $-1 0 0 -0.5 0 0 -1 1 0 0 1 I I #
point $-1 1 0 -3.4528794213690599 #
face $-1 $-1 $301 $38 $-1 $537 reversed single #
loop $-1 $-1 $450 $286 #
plane-surface $-1 0 191.56834620197151 0 0 -1 0 0 0 -1 forward_v I I I I #
coedge $-1 $538 $448 $451 $539 forward $287 $-1 #
coedge $-1 $454 $289 $290 $442 reversed $178 $-1 #
coedge $-1 $448 $538 $289 $440 reversed $287 $-1 #
edge $-1 $455 -95.784173100985754 $540 95.784173100985754 $439 $541 forward 7 unknown #
coedge $-1 $291 $290 $538 $542 forward $117 $-1 #
edge $-1 $446 -7.2092217258565228 $540 7.2092217258565228 $438 $543 forward 7 unknown #
coedge $-1 $451 $450 $291 $444 reversed $435 $-1 #
edge $-1 $544 -7.2092217258565228 $445 7.2092217258565228 $443 $545 forward 7 unknown #
vertex $-1 $293 $546 #
vertex $-1 $457 $547 #
straight-curve $-1 7.2092217258565228 0 -95.784173100985754 0 -1 0 I I #
coedge $-1 $437 $439 $294 $449 reversed $287 $-1 #
edge $-1 $452 -191.56834620197151 $455 191.56834620197151 $448 $548 forward 7 unknown #
coedge $-1 $443 $295 $300 $458 forward $435 $-1 #
coedge $-1 $295 $443 $437 $539 reversed $435 $-1 #
vertex $-1 $296 $549 #
straight-curve $-1 0 191.56834620197151 95.784173100985754 -1 0 0 I I #
coedge $-1 $297 $438 $299 $457 reversed $178 $-1 #
vertex $-1 $449 $550 #
straight-curve $-1 0 -191.56834620197151 95.784173100985754 1 0 0 I I #
edge $-1 $302 -95.784173100985754 $446 95.784173100985754 $299 $551 forward 7 unknown #
edge $-1 $303 -95.784173100985754 $445 95.784173100985754 $300 $552 forward 7 unknown #
point $-1 7.2092217258565228 -191.56834620197151 95.784173100985754 #
point $-1 7.2092217258565228 191.56834620197151 95.784173100985754 #
coedge $-1 $461 $461 $-1 $553 reversed $305 $-1 #
vertex $-1 $307 $554 #
ellipse-curve $-1 0 0 -0.5 0 0 -1 1 0 0 1 I I #
point $-1 1 0 -3.4528794213690599 #
plane-surface $-1 47.892086550492877 0 0 -1 0 0 0 0 1 forward_v I I I I #
coedge $-1 $315 $313 $317 $470 reversed $191 $-1 #
edge $-1 $328 -7.115152591792417 $472 7.115152591792417 $327 $555 forward 7 unknown #
vertex $-1 $470 $556 #
straight-curve $-1 -47.892086550492877 -32.853588435722635 0 0 0 -1 I I #
edge $-1 $468 -32.853588435722635 $472 32.853588435722635 $466 $557 forward 7 unknown #
straight-curve $-1 0 -32.853588435722635 -7.115152591792417 -1 0 0 I I #
vertex $-1 $320 $558 #
straight-curve $-1 0 32.853588435722635 -7.115152591792417 1 0 0 I I #
point $-1 47.892086550492877 32.853588435722635 -7.115152591792417 #
point $-1 47.892086550492877 -32.853588435722635 -7.115152591792417 #
straight-curve $-1 -47.892086550492877 0 7.115152591792417 0 -1 0 I I #
point $-1 -47.892086550492877 32.853588435722635 7.115152591792417 #
point $-1 -47.892086550492877 -32.853588435722635 7.115152591792417 #
straight-curve $-1 47.892086550492877 -32.853588435722635 0 0 0 -1 I I #
straight-curve $-1 47.892086550492877 32.853588435722635 0 0 0 -1 I I #
plane-surface $-1 2.8475962437491629 0 0 -1 0 0 0 0 1 forward_v I I I I #
coedge $-1 $342 $340 $344 $486 reversed $210 $-1 #
edge $-1 $355 -1.5 $488 1.5 $354 $559 forward 7 unknown #
vertex $-1 $486 $560 #
straight-curve $-1 -2.8475962437491629 -32.853588435722635 0 0 0 -1 I I #
edge $-1 $484 -32.853588435722635 $488 32.853588435722635 $482 $561 forward 7 unknown #
straight-curve $-1 0 -32.853588435722635 -1.5 -1 0 0 I I #
vertex $-1 $347 $562 #
straight-curve $-1 0 32.853588435722635 -1.5 1 0 0 I I #
point $-1 2.8475962437491629 32.853588435722635 -1.5 #
point $-1 2.8475962437491629 -32.853588435722635 -1.5 #
straight-curve $-1 -2.8475962437491629 0 1.5 0 -1 0 I I #
point $-1 -2.8475962437491629 32.853588435722635 1.5 #
point $-1 -2.8475962437491629 -32.853588435722635 1.5 #
straight-curve $-1 2.8475962437491629 -32.853588435722635 0 0 0 -1 I I #
straight-curve $-1 2.8475962437491629 32.853588435722635 0 0 0 -1 I I #
plane-surface $-1 13.094616303503134 0 0 -1 0 0 0 0 1 forward_v I I I I #
coedge $-1 $369 $367 $371 $502 reversed $229 $-1 #
edge $-1 $382 -95.784173100985754 $504 95.784173100985754 $381 $563 forward 7 unknown #
vertex $-1 $502 $564 #
straight-curve $-1 -13.094616303503134 -191.56834620197151 0 0 0 -1 I I #
edge $-1 $500 -191.56834620197151 $504 191.56834620197151 $498 $565 forward 7 unknown #
straight-curve $-1 0 -191.56834620197151 -95.784173100985754 -1 0 0 I I #
vertex $-1 $374 $566 #
straight-curve $-1 0 191.56834620197151 -95.784173100985754 1 0 0 I I #
point $-1 13.094616303503134 191.56834620197151 -95.784173100985754 #
point $-1 13.094616303503134 -191.56834620197151 -95.784173100985754 #
straight-curve $-1 -13.094616303503134 0 95.784173100985754 0 -1 0 I I #
point $-1 -13.094616303503134 191.56834620197151 95.784173100985754 #
point $-1 -13.094616303503134 -191.56834620197151 95.784173100985754 #
straight-curve $-1 13.094616303503134 -191.56834620197151 0 0 0 -1 I I #
straight-curve $-1 13.094616303503134 191.56834620197151 0 0 0 -1 I I #
edge $-1 $567 1 $567 0 $391 $-1 forward 7 unknown #
point $-1 1.5 0 -0.75 #
edge $-1 $568 1 $568 0 $395 $-1 forward 7 unknown #
point $-1 1.5 0 -0.75 #
edge $-1 $569 1 $569 0 $399 $-1 forward 7 unknown #
point $-1 1.5 0 -0.75 #
plane-surface $-1 7.2092217258565228 0 0 -1 0 0 0 0 1 forward_v I I I I #
coedge $-1 $408 $406 $410 $524 reversed $263 $-1 #
edge $-1 $421 -95.784173100985754 $526 95.784173100985754 $420 $570 forward 7 unknown #
vertex $-1 $524 $571 #
straight-curve $-1 -7.2092217258565228 -191.56834620197151 0 0 0 -1 I I #
edge $-1 $522 -191.56834620197151 $526 191.56834620197151 $520 $572 forward 7 unknown #
straight-curve $-1 0 -191.56834620197151 -95.784173100985754 -1 0 0 I I #
vertex $-1 $413 $573 #
straight-curve $-1 0 191.56834620197151 -95.784173100985754 1 0 0 I I #
point $-1 7.2092217258565228 191.56834620197151 -95.784173100985754 #
point $-1 7.2092217258565228 -191.56834620197151 -95.784173100985754 #
straight-curve $-1 -7.2092217258565228 0 95.784173100985754 0 -1 0 I I #
point $-1 -7.2092217258565228 191.56834620197151 95.784173100985754 #
point $-1 -7.2092217258565228 -191.56834620197151 95.784173100985754 #
straight-curve $-1 7.2092217258565228 -191.56834620197151 0 0 0 -1 I I #
straight-curve $-1 7.2092217258565228 191.56834620197151 0 0 0 -1 I I #
edge $-1 $574 1 $574 0 $430 $-1 forward 7 unknown #
point $-1 1 0 -0.5 #
plane-surface $-1 7.2092217258565228 0 0 -1 0 0 0 0 1 forward_v I I I I #
coedge $-1 $439 $437 $441 $542 reversed $287 $-1 #
edge $-1 $452 -95.784173100985754 $544 95.784173100985754 $451 $575 forward 7 unknown #
vertex $-1 $542 $576 #
straight-curve $-1 -7.2092217258565228 -191.56834620197151 0 0 0 -1 I I #
edge $-1 $540 -191.56834620197151 $544 191.56834620197151 $538 $577 forward 7 unknown #
straight-curve $-1 0 -191.56834620197151 -95.784173100985754 -1 0 0 I I #
vertex $-1 $444 $578 #
straight-curve $-1 0 191.56834620197151 -95.784173100985754 1 0 0 I I #
point $-1 7.2092217258565228 191.56834620197151 -95.784173100985754 #
point $-1 7.2092217258565228 -191.56834620197151 -95.784173100985754 #
straight-curve $-1 -7.2092217258565228 0 95.784173100985754 0 -1 0 I I #
point $-1 -7.2092217258565228 191.56834620197151 95.784173100985754 #
point $-1 -7.2092217258565228 -191.56834620197151 95.784173100985754 #
straight-curve $-1 7.2092217258565228 -191.56834620197151 0 0 0 -1 I I #
straight-curve $-1 7.2092217258565228 191.56834620197151 0 0 0 -1 I I #
edge $-1 $579 1 $579 0 $461 $-1 forward 7 unknown #
point $-1 1 0 -0.5 #
straight-curve $-1 -47.892086550492877 32.853588435722635 0 0 0 -1 I I #
point $-1 -47.892086550492877 -32.853588435722635 -7.115152591792417 #
straight-curve $-1 -47.892086550492877 0 -7.115152591792417 0 1 0 I I #
point $-1 -47.892086550492877 32.853588435722635 -7.115152591792417 #
straight-curve $-1 -2.8475962437491629 32.853588435722635 0 0 0 -1 I I #
point $-1 -2.8475962437491629 -32.853588435722635 -1.5 #
straight-curve $-1 -2.8475962437491629 0 -1.5 0 1 0 I I #
point $-1 -2.8475962437491629 32.853588435722635 -1.5 #
straight-curve $-1 -13.094616303503134 191.56834620197151 0 0 0 -1 I I #
point $-1 -13.094616303503134 -191.56834620197151 -95.784173100985754 #
straight-curve $-1 -13.094616303503134 0 -95.784173100985754 0 1 0 I I #
point $-1 -13.094616303503134 191.56834620197151 -95.784173100985754 #
vertex $-1 $513 $580 #
vertex $-1 $515 $581 #
vertex $-1 $517 $582 #
straight-curve $-1 -7.2092217258565228 191.56834620197151 0 0 0 -1 I I #
point $-1 -7.2092217258565228 -191.56834620197151 -95.784173100985754 #
straight-curve $-1 -7.2092217258565228 0 -95.784173100985754 0 1 0 I I #
point $-1 -7.2092217258565228 191.56834620197151 -95.784173100985754 #
vertex $-1 $535 $583 #
straight-curve $-1 -7.2092217258565228 191.56834620197151 0 0 0 -1 I I #
point $-1 -7.2092217258565228 -191.56834620197151 -95.784173100985754 #
straight-curve $-1 -7.2092217258565228 0 -95.784173100985754 0 1 0 I I #
point $-1 -7.2092217258565228 191.56834620197151 -95.784173100985754 #
vertex $-1 $553 $584 #
point $-1 0 0 0.75 #
point $-1 0 0 0.75 #
point $-1 0 0 0.75 #
point $-1 0 0 0.5 #
point $-1 0 0 0.5 #
End-of-ACIS-data 