500 0 5 0           
7 Unknown 11 ACIS 5.0 NT 24 Thu Mar 25 23:54:48 1999 
-1 9.9999999999999995e-007 1e-010 
body $-1 $5 $-1 $6 #
body $-1 $7 $-1 $8 #
body $-1 $9 $-1 $10 #
body $-1 $11 $-1 $12 #
body $-1 $13 $-1 $14 #
lump $-1 $-1 $15 $0 #
transform $-1 1 0 0 0 1 0 0 0 1 47.702871791741693 21.741806344388781 6.6269811354284176 1 rotate no_reflect no_shear #
lump $-1 $-1 $16 $1 #
transform $-1 1 0 0 0 1 0 0 0 1 47.702871791741693 21.741806344388781 6.6269811354284176 1 rotate no_reflect no_shear #
lump $-1 $-1 $17 $2 #
transform $-1 1 0 0 0 1 0 0 0 1 47.702871791741693 21.741806344388781 6.6269811354284176 1 rotate no_reflect no_shear #
lump $-1 $-1 $18 $3 #
transform $-1 1 0 0 0 1 0 0 0 1 47.702871791741693 21.741806344388781 6.6269811354284176 1 rotate no_reflect no_shear #
lump $-1 $-1 $19 $4 #
transform $-1 1 0 0 0 1 0 0 0 1 47.702871791741693 21.741806344388781 6.6269811354284176 1 rotate no_reflect no_shear #
shell $-1 $-1 $-1 $20 $-1 $5 #
shell $-1 $-1 $-1 $21 $-1 $7 #
shell $-1 $-1 $-1 $22 $-1 $9 #
shell $-1 $-1 $-1 $23 $-1 $11 #
shell $-1 $-1 $-1 $24 $-1 $13 #
face $-1 $25 $26 $15 $-1 $27 forward single #
face $-1 $28 $29 $16 $-1 $30 reversed single #
face $-1 $31 $32 $17 $-1 $33 forward single #
face $-1 $34 $35 $18 $-1 $36 forward single #
face $-1 $37 $38 $19 $-1 $39 forward single #
face $-1 $40 $41 $15 $-1 $42 reversed single #
loop $-1 $-1 $43 $20 #
plane-surface $-1 0 0 6.6269811354284176 0 0 1 1 0 0 forward_v I I I I #
face $-1 $44 $45 $16 $-1 $46 reversed single #
loop $-1 $-1 $47 $21 #
plane-surface $-1 40.526113251999 -21.741806344388777 1.7630712462265024 0 -0.69465837861970381 0.71933979245794832 1 0 0 forward_v I I I I #
face $-1 $48 $49 $17 $-1 $50 forward single #
loop $-1 $51 $52 $22 #
cone-surface $-1 36.220058128153376 -18.531116949251139 3.478101247979497 0 0.69465837861970381 -0.71933979245794832 1 0 0 1 I I 0 1 1 forward I I I I #
face $-1 $53 $54 $18 $-1 $55 forward single #
loop $-1 $56 $57 $23 #
cone-surface $-1 40.526113251999 -18.531116949251139 3.478101247979497 0 0.69465837861970381 -0.71933979245794832 1 0 0 1 I I 0 1 1 forward I I I I #
face $-1 $58 $59 $19 $-1 $60 forward single #
loop $-1 $61 $62 $24 #
cone-surface $-1 44.832168375844624 -18.531116949251139 3.478101247979497 0 0.69465837861970381 -0.71933979245794832 1 0 0 1 I I 0 1 1 forward I I I I #
face $-1 $63 $64 $15 $-1 $65 reversed single #
loop $-1 $-1 $66 $25 #
plane-surface $-1 0 0 -6.6269811354284176 0 0 1 1 0 0 forward_v I I I I #
coedge $-1 $67 $68 $69 $70 forward $26 $-1 #
face $-1 $71 $72 $16 $-1 $73 reversed single #
loop $-1 $-1 $74 $28 #
plane-surface $-1 33.3493547122563 -88.016205493098553 70.392219034865676 1 0 0 0 0.69465837861970381 -0.71933979245794832 forward_v I I I I #
coedge $-1 $75 $76 $77 $78 reversed $29 $-1 #
face $-1 $-1 $79 $17 $-1 $80 forward single #
loop $-1 $81 $82 $31 #
cone-surface $-1 36.220058128153376 -17.491461374535735 2.4015064089025593 0 0.69465837861970381 -0.71933979245794832 0.5 0 0 1 I I -0.70710678118654746 0.70710678118654746 0.5 forward I I I I #
loop $-1 $-1 $83 $22 #
coedge $-1 $52 $52 $84 $85 reversed $32 $-1 #
face $-1 $-1 $86 $18 $-1 $87 forward single #
loop $-1 $88 $89 $34 #
cone-surface $-1 40.526113251999 -17.491461374535735 2.4015064089025593 0 0.69465837861970381 -0.71933979245794832 0.5 0 0 1 I I -0.70710678118654746 0.70710678118654746 0.5 forward I I I I #
loop $-1 $-1 $90 $23 #
coedge $-1 $57 $57 $91 $92 reversed $35 $-1 #
face $-1 $-1 $93 $19 $-1 $94 forward single #
loop $-1 $95 $96 $37 #
cone-surface $-1 44.832168375844624 -17.491461374535735 2.4015064089025593 0 0.69465837861970381 -0.71933979245794832 0.5 0 0 1 I I -0.70710678118654746 0.70710678118654746 0.5 forward I I I I #
loop $-1 $-1 $97 $24 #
coedge $-1 $62 $62 $98 $99 reversed $38 $-1 #
face $-1 $100 $101 $15 $-1 $102 reversed single #
loop $-1 $-1 $103 $40 #
plane-surface $-1 0 -21.741806344388781 0 0 1 0 0 0 1 forward_v I I I I #
coedge $-1 $104 $105 $106 $107 forward $41 $-1 #
coedge $-1 $108 $43 $109 $110 forward $26 $-1 #
coedge $-1 $43 $108 $111 $112 forward $26 $-1 #
coedge $-1 $113 $114 $43 $70 reversed $115 $-1 #
edge $-1 $116 -21.741806344388781 $117 21.741806344388781 $69 $118 forward 7 unknown #
face $-1 $119 $120 $16 $-1 $121 forward single #
loop $-1 $-1 $122 $44 #
plane-surface $-1 0 -21.741806344388781 0 0 1 0 0 0 1 forward_v I I I I #
coedge $-1 $123 $124 $125 $126 reversed $45 $-1 #
coedge $-1 $127 $47 $128 $129 reversed $29 $-1 #
coedge $-1 $47 $127 $123 $130 forward $29 $-1 #
coedge $-1 $125 $131 $47 $78 forward $120 $-1 #
edge $-1 $132 -27.4398151657422 $133 -13.0862980862568 $77 $134 forward 7 unknown #
loop $-1 $-1 $84 $48 #
plane-surface $-1 40.526113251999 -21.741806344388777 1.7630712462265024 0 -0.69465837861970381 0.71933979245794832 1 0 0 forward_v I I I I #
loop $-1 $-1 $135 $31 #
coedge $-1 $82 $82 $83 $136 reversed $49 $-1 #
coedge $-1 $83 $83 $82 $136 forward $51 $-1 #
coedge $-1 $84 $84 $52 $85 forward $79 $-1 #
edge $-1 $137 2.4679223238155992e-015 $137 6.2831853071796031 $84 $138 forward 7 unknown #
loop $-1 $-1 $91 $53 #
plane-surface $-1 40.526113251999 -21.741806344388777 1.7630712462265024 0 -0.69465837861970381 0.71933979245794832 1 0 0 forward_v I I I I #
loop $-1 $-1 $139 $34 #
coedge $-1 $89 $89 $90 $140 reversed $54 $-1 #
coedge $-1 $90 $90 $89 $140 forward $56 $-1 #
coedge $-1 $91 $91 $57 $92 forward $86 $-1 #
edge $-1 $141 2.4679223238155992e-015 $141 6.2831853071796031 $91 $142 forward 7 unknown #
loop $-1 $-1 $98 $58 #
plane-surface $-1 40.526113251999 -21.741806344388777 1.7630712462265024 0 -0.69465837861970381 0.71933979245794832 1 0 0 forward_v I I I I #
loop $-1 $-1 $143 $37 #
coedge $-1 $96 $96 $97 $144 reversed $59 $-1 #
coedge $-1 $97 $97 $96 $144 forward $61 $-1 #
coedge $-1 $98 $98 $62 $99 forward $93 $-1 #
edge $-1 $145 2.4679223238155992e-015 $145 6.2831853071796031 $98 $146 forward 7 unknown #
face $-1 $147 $148 $15 $-1 $149 reversed single #
loop $-1 $-1 $150 $63 #
plane-surface $-1 -47.702871791741693 0 0 1 0 0 0 0 -1 forward_v I I I I #
coedge $-1 $151 $111 $152 $153 forward $64 $-1 #
coedge $-1 $154 $66 $151 $155 forward $41 $-1 #
coedge $-1 $66 $154 $156 $157 forward $41 $-1 #
coedge $-1 $114 $113 $66 $107 reversed $115 $-1 #
edge $-1 $158 -21.741806344388781 $159 21.741806344388781 $106 $160 forward 7 unknown #
coedge $-1 $68 $67 $161 $162 forward $26 $-1 #
coedge $-1 $163 $164 $67 $110 reversed $148 $-1 #
edge $-1 $117 -47.702871791741693 $165 47.702871791741693 $109 $166 forward 7 unknown #
coedge $-1 $103 $167 $68 $112 reversed $64 $-1 #
edge $-1 $168 -47.702871791741693 $116 47.702871791741693 $111 $169 forward 7 unknown #
coedge $-1 $106 $69 $167 $170 forward $115 $-1 #
coedge $-1 $69 $106 $163 $171 reversed $115 $-1 #
loop $-1 $-1 $113 $147 #
vertex $-1 $70 $172 #
vertex $-1 $70 $173 #
straight-curve $-1 47.702871791741693 0 6.6269811354284176 0 1 0 I I #
face $-1 $-1 $174 $16 $-1 $175 reversed single #
loop $-1 $-1 $125 $71 #
plane-surface $-1 0 0 6.6269811354284176 0 0 1 1 0 0 forward_v I I I I #
coedge $-1 $176 $177 $124 $178 forward $72 $-1 #
coedge $-1 $124 $74 $76 $130 reversed $45 $-1 #
coedge $-1 $74 $123 $122 $178 reversed $45 $-1 #
coedge $-1 $179 $77 $74 $126 forward $120 $-1 #
edge $-1 $133 -27.303022421624689 $180 -22.266296402160496 $125 $181 forward 7 unknown #
coedge $-1 $76 $75 $176 $182 reversed $29 $-1 #
coedge $-1 $183 $184 $75 $129 forward $174 $-1 #
edge $-1 $185 -7.2075071250694078 $132 -0.20563391817513815 $128 $186 forward 7 unknown #
edge $-1 $187 -4.8692854989479908e-015 $133 7.0018732068942642 $123 $188 forward 7 unknown #
coedge $-1 $77 $179 $183 $189 forward $120 $-1 #
vertex $-1 $129 $190 #
vertex $-1 $78 $191 #
straight-curve $-1 20.2630566259995 -16.705080324924587 6.6269811354284176 -1 0 0 I I #
coedge $-1 $135 $135 $-1 $192 reversed $81 $-1 #
edge $-1 $193 0 $193 6.2831853071796004 $82 $194 forward 7 unknown #
vertex $-1 $85 $195 #
ellipse-curve $-1 36.220058128153376 -19.223443334656686 4.1950261908274573 0 -0.69465837861970381 0.71933979245794832 1 0 0 1 I I #
coedge $-1 $139 $139 $-1 $196 reversed $88 $-1 #
edge $-1 $197 0 $197 6.2831853071796004 $89 $198 forward 7 unknown #
vertex $-1 $92 $199 #
ellipse-curve $-1 40.526113251999 -19.223443334656686 4.1950261908274573 0 -0.69465837861970381 0.71933979245794832 1 0 0 1 I I #
coedge $-1 $143 $143 $-1 $200 reversed $95 $-1 #
edge $-1 $201 0 $201 6.2831853071796004 $96 $202 forward 7 unknown #
vertex $-1 $99 $203 #
ellipse-curve $-1 44.832168375844624 -19.223443334656686 4.1950261908274573 0 -0.69465837861970381 0.71933979245794832 1 0 0 1 I I #
face $-1 $-1 $115 $15 $-1 $204 reversed single #
loop $-1 $-1 $163 $100 #
plane-surface $-1 0 21.741806344388781 0 0 -1 0 0 0 -1 forward_v I I I I #
coedge $-1 $205 $161 $164 $206 forward $101 $-1 #
coedge $-1 $167 $103 $104 $155 reversed $64 $-1 #
coedge $-1 $161 $205 $103 $153 reversed $101 $-1 #
edge $-1 $168 -6.6269811354284176 $207 6.6269811354284176 $152 $208 forward 7 unknown #
coedge $-1 $105 $104 $205 $209 forward $41 $-1 #
edge $-1 $159 -47.702871791741693 $207 47.702871791741693 $151 $210 forward 7 unknown #
coedge $-1 $164 $163 $105 $157 reversed $148 $-1 #
edge $-1 $211 -47.702871791741693 $158 47.702871791741693 $156 $212 forward 7 unknown #
vertex $-1 $107 $213 #
vertex $-1 $170 $214 #
straight-curve $-1 47.702871791741693 0 -6.6269811354284176 0 -1 0 I I #
coedge $-1 $150 $152 $108 $162 reversed $101 $-1 #
edge $-1 $165 -21.741806344388781 $168 21.741806344388781 $161 $215 forward 7 unknown #
coedge $-1 $156 $109 $114 $171 forward $148 $-1 #
coedge $-1 $109 $156 $150 $206 reversed $148 $-1 #
vertex $-1 $110 $216 #
straight-curve $-1 0 21.741806344388781 6.6269811354284176 -1 0 0 I I #
coedge $-1 $111 $151 $113 $170 reversed $64 $-1 #
vertex $-1 $162 $217 #
straight-curve $-1 0 -21.741806344388781 6.6269811354284176 1 0 0 I I #
edge $-1 $116 -6.6269811354284176 $159 6.6269811354284176 $113 $218 forward 7 unknown #
edge $-1 $117 -6.6269811354284176 $158 6.6269811354284176 $114 $219 forward 7 unknown #
point $-1 47.702871791741693 -21.741806344388781 6.6269811354284176 #
point $-1 47.702871791741693 21.741806344388781 6.6269811354284176 #
loop $-1 $-1 $128 $119 #
plane-surface $-1 47.702871791741693 0 0 -1 0 0 0 0 1 forward_v I I I I #
coedge $-1 $220 $122 $127 $182 forward $72 $-1 #
coedge $-1 $122 $220 $179 $221 reversed $72 $-1 #
edge $-1 $180 28.569128382004422 $187 33.433038271206335 $122 $222 forward 7 unknown #
coedge $-1 $131 $125 $177 $221 forward $120 $-1 #
vertex $-1 $221 $223 #
straight-curve $-1 33.3493547122563 -44.008102746549277 6.6269811354284158 0 -1 0 I I #
edge $-1 $187 13.0862980862568 $185 27.4398151657422 $176 $224 forward 7 unknown #
coedge $-1 $184 $128 $131 $189 reversed $174 $-1 #
coedge $-1 $128 $183 $220 $225 forward $174 $-1 #
vertex $-1 $182 $226 #
straight-curve $-1 47.702871791741693 -16.557159664902169 6.7698264596171764 0 0.71933979245794832 0.69465837861970381 I I #
vertex $-1 $182 $227 #
straight-curve $-1 33.3493547122563 -21.741806344388777 1.7630712462265024 0 0.71933979245794832 0.69465837861970381 I I #
edge $-1 $228 -21.741806344388781 $132 -16.705080324924587 $183 $229 forward 7 unknown #
point $-1 47.7028717917417 -16.705080324924587 6.6269811354284176 #
point $-1 33.3493547122563 -16.705080324924587 6.6269811354284176 #
edge $-1 $230 1 $230 0 $135 $-1 forward 7 unknown #
vertex $-1 $136 $231 #
ellipse-curve $-1 36.220058128153376 -17.838790563845588 2.7611763051315332 0 -0.69465837861970381 0.71933979245794832 1 0 0 1 I I #
point $-1 37.220058128153376 -19.223443334656686 4.1950261908274609 #
edge $-1 $232 1 $232 0 $139 $-1 forward 7 unknown #
vertex $-1 $140 $233 #
ellipse-curve $-1 40.526113251999 -17.838790563845588 2.7611763051315332 0 -0.69465837861970381 0.71933979245794832 1 0 0 1 I I #
point $-1 41.526113251999 -19.223443334656686 4.1950261908274609 #
edge $-1 $234 1 $234 0 $143 $-1 forward 7 unknown #
vertex $-1 $144 $235 #
ellipse-curve $-1 44.832168375844624 -17.838790563845588 2.7611763051315332 0 -0.69465837861970381 0.71933979245794832 1 0 0 1 I I #
point $-1 45.832168375844624 -19.223443334656686 4.1950261908274609 #
plane-surface $-1 47.702871791741693 0 0 -1 0 0 0 0 1 forward_v I I I I #
coedge $-1 $152 $150 $154 $209 reversed $101 $-1 #
edge $-1 $165 -6.6269811354284176 $211 6.6269811354284176 $164 $236 forward 7 unknown #
vertex $-1 $209 $237 #
straight-curve $-1 -47.702871791741693 -21.741806344388781 0 0 0 -1 I I #
edge $-1 $207 -21.741806344388781 $211 21.741806344388781 $205 $238 forward 7 unknown #
straight-curve $-1 0 -21.741806344388781 -6.6269811354284176 -1 0 0 I I #
vertex $-1 $157 $239 #
straight-curve $-1 0 21.741806344388781 -6.6269811354284176 1 0 0 I I #
point $-1 47.702871791741693 21.741806344388781 -6.6269811354284176 #
point $-1 47.702871791741693 -21.741806344388781 -6.6269811354284176 #
straight-curve $-1 -47.702871791741693 0 6.6269811354284176 0 -1 0 I I #
point $-1 -47.702871791741693 21.741806344388781 6.6269811354284176 #
point $-1 -47.702871791741693 -21.741806344388781 6.6269811354284176 #
straight-curve $-1 47.702871791741693 -21.741806344388781 0 0 0 -1 I I #
straight-curve $-1 47.702871791741693 21.741806344388781 0 0 0 -1 I I #
coedge $-1 $177 $176 $184 $225 reversed $72 $-1 #
edge $-1 $180 33.3493547122563 $228 47.702871791741693 $177 $240 forward 7 unknown #
straight-curve $-1 33.3493547122563 -21.741806344388785 35.196109517432838 0 0 -1 I I #
point $-1 33.3493547122563 -21.741806344388781 6.6269811354284176 #
straight-curve $-1 20.2630566259995 -21.741806344388781 1.7630712462264979 1 0 0 I I #
edge $-1 $228 -6.6269811354284176 $185 -1.763071246226499 $184 $241 forward 7 unknown #
point $-1 47.7028717917417 -21.741806344388781 1.763071246226499 #
point $-1 33.3493547122563 -21.741806344388781 1.763071246226499 #
vertex $-1 $189 $242 #
straight-curve $-1 47.702871791741693 0 6.6269811354284176 0 1 0 I I #
vertex $-1 $192 $243 #
point $-1 37.220058128153376 -17.838790563845588 2.7611763051315332 #
vertex $-1 $196 $244 #
point $-1 41.526113251999 -17.838790563845588 2.7611763051315332 #
vertex $-1 $200 $245 #
point $-1 45.832168375844624 -17.838790563845588 2.7611763051315332 #
straight-curve $-1 -47.702871791741693 21.741806344388781 0 0 0 -1 I I #
point $-1 -47.702871791741693 -21.741806344388781 -6.6269811354284176 #
straight-curve $-1 -47.702871791741693 0 -6.6269811354284176 0 1 0 I I #
point $-1 -47.702871791741693 21.741806344388781 -6.6269811354284176 #
straight-curve $-1 0 -21.741806344388781 6.6269811354284176 1 0 0 I I #
straight-curve $-1 47.702871791741693 -21.741806344388781 0 0 0 -1 I I #
point $-1 47.702871791741693 -21.741806344388781 6.6269811354284176 #
point $-1 36.220058128153376 -17.144132185225882 2.0418365126735853 #
point $-1 40.526113251999 -17.144132185225882 2.0418365126735853 #
point $-1 44.832168375844624 -17.144132185225882 2.0418365126735853 #
End-of-ACIS-data 