500 0 8 0           
7 Unknown 11 ACIS 5.0 NT 24 Thu Mar 25 16:33:17 1999 
-1 9.9999999999999995e-007 1e-010 
body $-1 $8 $-1 $9 #
body $-1 $10 $-1 $11 #
body $-1 $12 $-1 $13 #
body $-1 $14 $-1 $15 #
body $-1 $16 $-1 $17 #
body $-1 $18 $-1 $19 #
body $-1 $20 $-1 $21 #
body $-1 $22 $-1 $23 #
lump $-1 $-1 $24 $0 #
transform $-1 1 0 0 0 1 0 0 0 1 74.848475600451678 33.937994217920185 9.4504786657915254 1 rotate no_reflect no_shear #
lump $-1 $-1 $25 $1 #
transform $-1 1 0 0 0 1 0 0 0 1 74.848475600451678 33.937994217920185 9.4504786657915254 1 rotate no_reflect no_shear #
lump $-1 $-1 $26 $2 #
transform $-1 1 0 0 0 1 0 0 0 1 74.848475600451678 33.937994217920185 9.4504786657915254 1 rotate no_reflect no_shear #
lump $-1 $-1 $27 $3 #
transform $-1 1 0 0 0 1 0 0 0 1 74.848475600451678 33.937994217920185 9.4504786657915254 1 rotate no_reflect no_shear #
lump $-1 $-1 $28 $4 #
transform $-1 1 0 0 0 1 0 0 0 1 74.848475600451678 33.937994217920185 9.4504786657915254 1 rotate no_reflect no_shear #
lump $-1 $-1 $29 $5 #
transform $-1 1 0 0 0 1 0 0 0 1 74.848475600451678 33.937994217920185 9.4504786657915254 1 rotate no_reflect no_shear #
lump $-1 $-1 $30 $6 #
transform $-1 1 0 0 0 1 0 0 0 1 74.848475600451678 33.937994217920185 9.4504786657915254 1 rotate no_reflect no_shear #
lump $-1 $-1 $31 $7 #
transform $-1 1 0 0 0 1 0 0 0 1 74.848475600451678 33.937994217920185 9.4504786657915254 1 rotate no_reflect no_shear #
shell $-1 $-1 $-1 $32 $-1 $8 #
shell $-1 $-1 $-1 $33 $-1 $10 #
shell $-1 $-1 $-1 $34 $-1 $12 #
shell $-1 $-1 $-1 $35 $-1 $14 #
shell $-1 $-1 $-1 $36 $-1 $16 #
shell $-1 $-1 $-1 $37 $-1 $18 #
shell $-1 $-1 $-1 $38 $-1 $20 #
shell $-1 $-1 $-1 $39 $-1 $22 #
face $-1 $40 $41 $24 $-1 $42 forward single #
face $-1 $43 $44 $25 $-1 $45 forward single #
face $-1 $46 $47 $26 $-1 $48 reversed single #
face $-1 $49 $50 $27 $-1 $51 forward single #
face $-1 $52 $53 $28 $-1 $54 forward single #
face $-1 $55 $56 $29 $-1 $57 reversed single #
face $-1 $58 $59 $30 $-1 $60 forward single #
face $-1 $61 $62 $31 $-1 $63 forward single #
face $-1 $64 $65 $24 $-1 $66 reversed single #
loop $-1 $-1 $67 $32 #
plane-surface $-1 0 0 9.4504786657915254 0 0 1 1 0 0 forward_v I I I I #
face $-1 $68 $69 $25 $-1 $70 forward single #
loop $-1 $-1 $71 $33 #
plane-surface $-1 0 -33.937994217920185 0 0 1 0 0 0 1 forward_v I I I I #
face $-1 $72 $73 $26 $-1 $74 reversed single #
loop $-1 $-1 $75 $34 #
plane-surface $-1 -182.53145182195499 16.898985956164765 105.46979969773943 0 1 0 -0.71933980857756763 0 0.69465836192734942 forward_v I I I I #
face $-1 $76 $77 $27 $-1 $78 forward single #
loop $-1 $79 $80 $35 #
cone-surface $-1 -70.244057233190119 19.007336362020538 4.7353108722384727 0.71933980857756763 0 -0.69465836192734942 0.69465836192734942 0 0.71933980857756763 1 I I 0 1 1 forward I I I I #
face $-1 $81 $82 $28 $-1 $83 forward single #
loop $-1 $84 $85 $36 #
cone-surface $-1 -70.244057233190119 22.169861970804199 4.7353108722384727 0.71933980857756763 0 -0.69465836192734942 0.69465836192734942 0 0.71933980857756763 1 I I 0 1 1 forward I I I I #
face $-1 $86 $87 $29 $-1 $88 reversed single #
loop $-1 $-1 $89 $37 #
plane-surface $-1 71.153743197538716 -2.3376538773296538 216.39386248691522 0 -1 0 -0.69465837861970381 0 -0.71933979245794832 forward_v I I I I #
face $-1 $90 $91 $30 $-1 $92 forward single #
loop $-1 $93 $94 $38 #
cone-surface $-1 71.142522553910695 -7.4941350291649513 5.7838174643124312 -0.69465837861970381 0 -0.71933979245794832 0.71933979245794832 0 -0.69465837861970381 1 I I 0 1 1 forward I I I I #
face $-1 $95 $96 $31 $-1 $97 forward single #
loop $-1 $98 $99 $39 #
cone-surface $-1 71.142522553910695 -4.4002463380637735 5.7838174643124312 -0.69465837861970381 0 -0.71933979245794832 0.71933979245794832 0 -0.69465837861970381 1 I I 0 1 1 forward I I I I #
face $-1 $100 $101 $24 $-1 $102 reversed single #
loop $-1 $-1 $103 $40 #
plane-surface $-1 0 0 -9.4504786657915254 0 0 1 1 0 0 forward_v I I I I #
coedge $-1 $104 $105 $106 $107 forward $41 $-1 #
face $-1 $108 $109 $25 $-1 $110 reversed single #
loop $-1 $-1 $111 $43 #
plane-surface $-1 0 0 9.4504786657915254 0 0 1 1 0 0 forward_v I I I I #
coedge $-1 $112 $113 $114 $115 forward $44 $-1 #
face $-1 $116 $117 $26 $-1 $118 reversed single #
loop $-1 $-1 $119 $46 #
plane-surface $-1 -74.848475600451678 20.588599166412365 1.4815607910015416 -0.71933980857756763 0 0.69465836192734942 0.69465836192734942 0 0.71933980857756763 forward_v I I I I #
coedge $-1 $120 $121 $122 $123 reversed $47 $-1 #
face $-1 $-1 $124 $27 $-1 $125 forward single #
loop $-1 $126 $127 $49 #
cone-surface $-1 -69.127716139834675 19.007336362020538 3.6572728351167463 0.71933980857756763 0 -0.69465836192734942 0.34732918096367471 0 0.35966990428878381 1 I I -0.70710678118654724 0.70710678118654791 0.5 forward I I I I #
loop $-1 $-1 $128 $35 #
coedge $-1 $80 $80 $129 $130 reversed $50 $-1 #
face $-1 $-1 $131 $28 $-1 $132 forward single #
loop $-1 $133 $134 $52 #
cone-surface $-1 -69.127716139834675 22.169861970804199 3.6572728351167463 0.71933980857756763 0 -0.69465836192734942 0.34732918096367471 0 0.35966990428878381 1 I I -0.70710678118654724 0.70710678118654791 0.5 forward I I I I #
loop $-1 $-1 $135 $36 #
coedge $-1 $85 $85 $136 $137 reversed $53 $-1 #
face $-1 $138 $139 $29 $-1 $140 reversed single #
loop $-1 $-1 $141 $55 #
plane-surface $-1 -32.834498207993732 -5.9471906836143624 108.71088867846979 0.69465837861970381 0 0.71933979245794832 0.71933979245794832 0 -0.69465837861970381 forward_v I I I I #
coedge $-1 $142 $143 $144 $145 reversed $56 $-1 #
face $-1 $-1 $146 $30 $-1 $147 forward single #
loop $-1 $148 $149 $58 #
cone-surface $-1 69.537146625379961 -7.4941350291649513 4.1214020630314359 -0.69465837861970381 0 -0.71933979245794832 0.35966989622897416 0 -0.3473291893098519 1 I I -0.70710678118654746 0.70710678118654746 0.5 forward I I I I #
loop $-1 $-1 $150 $38 #
coedge $-1 $94 $94 $151 $152 reversed $59 $-1 #
face $-1 $-1 $153 $31 $-1 $154 forward single #
loop $-1 $155 $156 $61 #
cone-surface $-1 69.537146625379961 -4.4002463380637735 4.1214020630314359 -0.69465837861970381 0 -0.71933979245794832 0.35966989622897416 0 -0.3473291893098519 1 I I -0.70710678118654746 0.70710678118654746 0.5 forward I I I I #
loop $-1 $-1 $157 $39 #
coedge $-1 $99 $99 $158 $159 reversed $62 $-1 #
face $-1 $160 $161 $24 $-1 $162 reversed single #
loop $-1 $-1 $163 $64 #
plane-surface $-1 0 -33.937994217920185 0 0 1 0 0 0 1 forward_v I I I I #
coedge $-1 $164 $165 $166 $167 forward $65 $-1 #
coedge $-1 $168 $67 $169 $170 forward $41 $-1 #
coedge $-1 $67 $168 $171 $172 forward $41 $-1 #
coedge $-1 $173 $174 $67 $107 reversed $175 $-1 #
edge $-1 $176 -33.937994217920185 $177 33.937994217920185 $106 $178 forward 7 unknown #
face $-1 $179 $180 $25 $-1 $181 reversed single #
loop $-1 $-1 $182 $68 #
plane-surface $-1 -74.848475600451678 0 0 1 0 0 0 0 -1 forward_v I I I I #
coedge $-1 $183 $184 $185 $186 forward $69 $-1 #
coedge $-1 $185 $71 $182 $187 reversed $44 $-1 #
coedge $-1 $71 $185 $188 $189 reversed $44 $-1 #
coedge $-1 $190 $191 $71 $115 reversed $180 $-1 #
edge $-1 $192 -74.848475600451678 $193 74.848475600451678 $114 $194 forward 7 unknown #
face $-1 $195 $196 $26 $-1 $197 forward single #
loop $-1 $-1 $198 $72 #
plane-surface $-1 -182.53145182195499 24.278212376659965 105.46979969773943 0 -1 0 0.71933980857756763 0 -0.69465836192734942 forward_v I I I I #
coedge $-1 $199 $200 $201 $202 reversed $73 $-1 #
coedge $-1 $121 $75 $203 $204 reversed $47 $-1 #
coedge $-1 $75 $120 $199 $205 reversed $47 $-1 #
coedge $-1 $201 $206 $75 $123 forward $196 $-1 #
edge $-1 $207 16.417250310525816 $208 24.112744666915603 $122 $209 forward 7 unknown #
loop $-1 $-1 $129 $76 #
plane-surface $-1 -74.848475600451678 20.588599166412365 1.4815607910015416 -0.71933980857756763 0 0.69465836192734942 0.69465836192734942 0 0.71933980857756763 forward_v I I I I #
loop $-1 $-1 $210 $49 #
coedge $-1 $127 $127 $128 $211 reversed $77 $-1 #
coedge $-1 $128 $128 $127 $211 forward $79 $-1 #
coedge $-1 $129 $129 $80 $130 forward $124 $-1 #
edge $-1 $212 0 $212 6.2831853071796004 $129 $213 forward 7 unknown #
loop $-1 $-1 $136 $81 #
plane-surface $-1 -74.848475600451678 20.588599166412365 1.4815607910015416 -0.71933980857756763 0 0.69465836192734942 0.69465836192734942 0 0.71933980857756763 forward_v I I I I #
loop $-1 $-1 $214 $52 #
coedge $-1 $134 $134 $135 $215 reversed $82 $-1 #
coedge $-1 $135 $135 $134 $215 forward $84 $-1 #
coedge $-1 $136 $136 $85 $137 forward $131 $-1 #
edge $-1 $216 0 $216 6.2831853071796004 $136 $217 forward 7 unknown #
face $-1 $218 $219 $29 $-1 $220 reversed single #
loop $-1 $-1 $221 $86 #
plane-surface $-1 71.153743197538716 -9.5567274898990711 216.39386248691522 0 1 0 0.69465837861970381 0 0.71933979245794832 forward_v I I I I #
coedge $-1 $222 $223 $224 $225 reversed $87 $-1 #
coedge $-1 $143 $89 $226 $227 reversed $56 $-1 #
coedge $-1 $89 $142 $222 $228 reversed $56 $-1 #
coedge $-1 $224 $229 $89 $145 forward $230 $-1 #
edge $-1 $231 -39.27160400168232 $232 -34.375791387042085 $144 $233 forward 7 unknown #
loop $-1 $-1 $151 $90 #
plane-surface $-1 -32.834498207993732 -5.9471906836143624 108.71088867846979 0.69465837861970381 0 0.71933979245794832 0.71933979245794832 0 -0.69465837861970381 forward_v I I I I #
loop $-1 $-1 $234 $58 #
coedge $-1 $149 $149 $150 $235 reversed $91 $-1 #
coedge $-1 $150 $150 $149 $235 forward $93 $-1 #
coedge $-1 $151 $151 $94 $152 forward $146 $-1 #
edge $-1 $236 0 $236 6.2831853071796004 $151 $237 forward 7 unknown #
loop $-1 $-1 $158 $95 #
plane-surface $-1 -32.834498207993732 -5.9471906836143624 108.71088867846979 0.69465837861970381 0 0.71933979245794832 0.71933979245794832 0 -0.69465837861970381 forward_v I I I I #
loop $-1 $-1 $238 $61 #
coedge $-1 $156 $156 $157 $239 reversed $96 $-1 #
coedge $-1 $157 $157 $156 $239 forward $98 $-1 #
coedge $-1 $158 $158 $99 $159 forward $153 $-1 #
edge $-1 $240 0 $240 6.2831853071796004 $158 $241 forward 7 unknown #
face $-1 $242 $243 $24 $-1 $244 reversed single #
loop $-1 $-1 $245 $100 #
plane-surface $-1 -74.848475600451678 0 0 1 0 0 0 0 -1 forward_v I I I I #
coedge $-1 $246 $171 $247 $248 forward $101 $-1 #
coedge $-1 $249 $103 $246 $250 forward $65 $-1 #
coedge $-1 $103 $249 $251 $252 forward $65 $-1 #
coedge $-1 $174 $173 $103 $167 reversed $175 $-1 #
edge $-1 $253 -33.937994217920185 $254 33.937994217920185 $166 $255 forward 7 unknown #
coedge $-1 $105 $104 $256 $257 forward $41 $-1 #
coedge $-1 $258 $259 $104 $170 reversed $243 $-1 #
edge $-1 $177 -74.848475600451678 $260 74.848475600451678 $169 $261 forward 7 unknown #
coedge $-1 $163 $262 $105 $172 reversed $101 $-1 #
edge $-1 $263 -74.848475600451678 $176 74.848475600451678 $171 $264 forward 7 unknown #
coedge $-1 $166 $106 $262 $265 forward $175 $-1 #
coedge $-1 $106 $166 $258 $266 reversed $175 $-1 #
loop $-1 $-1 $173 $242 #
vertex $-1 $107 $267 #
vertex $-1 $107 $268 #
straight-curve $-1 74.848475600451678 0 9.4504786657915254 0 1 0 I I #
face $-1 $269 $270 $25 $-1 $271 reversed single #
loop $-1 $-1 $190 $108 #
plane-surface $-1 0 -39.227349284084021 6.4504786657915254 0 0 1 1 0 0 forward_v I I I I #
coedge $-1 $272 $273 $112 $187 forward $109 $-1 #
coedge $-1 $274 $111 $273 $275 forward $69 $-1 #
coedge $-1 $111 $274 $276 $277 forward $69 $-1 #
coedge $-1 $113 $112 $111 $186 reversed $44 $-1 #
edge $-1 $278 -74.848475600451678 $279 74.848475600451678 $111 $280 forward 7 unknown #
edge $-1 $279 -9.4504786657915254 $193 -6.4504786657915254 $182 $281 forward 7 unknown #
coedge $-1 $276 $282 $113 $189 forward $283 $-1 #
edge $-1 $192 6.4504786657915254 $278 9.4504786657915254 $188 $284 forward 7 unknown #
coedge $-1 $285 $114 $282 $286 forward $180 $-1 #
coedge $-1 $114 $285 $272 $287 forward $180 $-1 #
vertex $-1 $189 $288 #
vertex $-1 $187 $289 #
straight-curve $-1 0 -33.937994217920185 6.4504786657915254 -1 0 0 I I #
face $-1 $-1 $290 $26 $-1 $291 reversed single #
loop $-1 $-1 $122 $116 #
plane-surface $-1 0 0 9.4504786657915254 0 0 1 1 0 0 forward_v I I I I #
coedge $-1 $292 $293 $294 $295 reversed $117 $-1 #
coedge $-1 $296 $119 $121 $205 forward $73 $-1 #
coedge $-1 $119 $296 $292 $297 forward $73 $-1 #
coedge $-1 $294 $122 $119 $202 forward $196 $-1 #
edge $-1 $208 6.6046863729585823 $298 13.983912793453783 $201 $299 forward 7 unknown #
coedge $-1 $300 $301 $120 $204 forward $290 $-1 #
edge $-1 $302 -51.253339057868175 $207 -43.284421183078194 $203 $303 forward 7 unknown #
edge $-1 $208 -11.078099362452676 $302 0 $121 $304 forward 7 unknown #
coedge $-1 $122 $294 $300 $305 forward $196 $-1 #
vertex $-1 $204 $306 #
vertex $-1 $123 $307 #
straight-curve $-1 -91.265725910977494 16.898985956164765 9.450478665791529 1 0 0 I I #
coedge $-1 $210 $210 $-1 $308 reversed $126 $-1 #
edge $-1 $309 0 $309 6.2831853071796004 $127 $310 forward 7 unknown #
vertex $-1 $130 $311 #
ellipse-curve $-1 -71.000728422256785 19.007336362020538 5.4660197283965299 -0.71933980857756763 0 0.69465836192734942 0.69465836192734942 0 0.71933980857756763 1 I I #
coedge $-1 $214 $214 $-1 $312 reversed $133 $-1 #
edge $-1 $313 0 $313 6.2831853071796004 $134 $314 forward 7 unknown #
vertex $-1 $137 $315 #
ellipse-curve $-1 -71.000728422256785 22.169861970804199 5.4660197283965299 -0.71933980857756763 0 0.69465836192734942 0.69465836192734942 0 0.71933980857756763 1 I I #
face $-1 $-1 $230 $29 $-1 $316 forward single #
loop $-1 $-1 $317 $138 #
plane-surface $-1 74.848475600451678 0 0 -1 0 0 0 0 1 forward_v I I I I #
coedge $-1 $318 $319 $320 $321 reversed $139 $-1 #
coedge $-1 $322 $141 $143 $228 forward $87 $-1 #
coedge $-1 $141 $322 $318 $323 forward $87 $-1 #
coedge $-1 $320 $144 $141 $225 forward $230 $-1 #
edge $-1 $232 -0.63594146447752742 $324 6.5831321480918898 $224 $325 forward 7 unknown #
coedge $-1 $326 $327 $142 $227 forward $219 $-1 #
edge $-1 $328 -103.47428397052026 $231 -98.746452577666091 $226 $329 forward 7 unknown #
edge $-1 $232 142.89097068102757 $328 149.69695120090333 $143 $330 forward 7 unknown #
coedge $-1 $144 $320 $326 $331 forward $230 $-1 #
loop $-1 $-1 $320 $218 #
vertex $-1 $227 $332 #
vertex $-1 $145 $333 #
straight-curve $-1 35.576871598769358 -2.3376538773296538 9.4504786657915218 -1 0 0 I I #
coedge $-1 $234 $234 $-1 $334 reversed $148 $-1 #
edge $-1 $335 0 $335 6.2831853071796004 $149 $336 forward 7 unknown #
vertex $-1 $152 $337 #
ellipse-curve $-1 72.400569293131554 -7.4941350291649513 7.0865629693644356 0.69465837861970381 0 0.71933979245794832 0.71933979245794832 0 -0.69465837861970381 1 I I #
coedge $-1 $238 $238 $-1 $338 reversed $155 $-1 #
edge $-1 $339 0 $339 6.2831853071796004 $156 $340 forward 7 unknown #
vertex $-1 $159 $341 #
ellipse-curve $-1 72.400569293131554 -4.4002463380637735 7.0865629693644356 0.69465837861970381 0 0.71933979245794832 0.71933979245794832 0 -0.69465837861970381 1 I I #
face $-1 $-1 $175 $24 $-1 $342 reversed single #
loop $-1 $-1 $258 $160 #
plane-surface $-1 0 33.937994217920185 0 0 -1 0 0 0 -1 forward_v I I I I #
coedge $-1 $343 $256 $259 $344 forward $161 $-1 #
coedge $-1 $262 $163 $164 $250 reversed $101 $-1 #
coedge $-1 $256 $343 $163 $248 reversed $161 $-1 #
edge $-1 $263 -9.4504786657915254 $345 9.4504786657915254 $247 $346 forward 7 unknown #
coedge $-1 $165 $164 $343 $347 forward $65 $-1 #
edge $-1 $254 -74.848475600451678 $345 74.848475600451678 $246 $348 forward 7 unknown #
coedge $-1 $259 $258 $165 $252 reversed $243 $-1 #
edge $-1 $349 -74.848475600451678 $253 74.848475600451678 $251 $350 forward 7 unknown #
vertex $-1 $167 $351 #
vertex $-1 $265 $352 #
straight-curve $-1 74.848475600451678 0 -9.4504786657915254 0 -1 0 I I #
coedge $-1 $245 $247 $168 $257 reversed $161 $-1 #
edge $-1 $260 -33.937994217920185 $263 33.937994217920185 $256 $353 forward 7 unknown #
coedge $-1 $251 $169 $174 $266 forward $243 $-1 #
coedge $-1 $169 $251 $245 $344 reversed $243 $-1 #
vertex $-1 $170 $354 #
straight-curve $-1 0 33.937994217920185 9.4504786657915254 -1 0 0 I I #
coedge $-1 $171 $246 $173 $265 reversed $101 $-1 #
vertex $-1 $257 $355 #
straight-curve $-1 0 -33.937994217920185 9.4504786657915254 1 0 0 I I #
edge $-1 $176 -9.4504786657915254 $254 9.4504786657915254 $173 $356 forward 7 unknown #
edge $-1 $177 -9.4504786657915254 $253 9.4504786657915254 $174 $357 forward 7 unknown #
point $-1 74.848475600451678 -33.937994217920185 9.4504786657915254 #
point $-1 74.848475600451678 33.937994217920185 9.4504786657915254 #
face $-1 $-1 $283 $25 $-1 $358 reversed single #
loop $-1 $-1 $359 $179 #
plane-surface $-1 0 -44.516704350247856 7.9504786657915254 0 1 0 0 0 1 forward_v I I I I #
coedge $-1 $360 $182 $191 $287 reversed $109 $-1 #
coedge $-1 $182 $360 $183 $275 reversed $109 $-1 #
coedge $-1 $184 $183 $361 $362 forward $69 $-1 #
edge $-1 $279 33.937994217920185 $363 44.516704350247856 $273 $364 forward 7 unknown #
coedge $-1 $365 $188 $184 $277 reversed $283 $-1 #
edge $-1 $366 -44.516704350247856 $278 -33.937994217920185 $276 $367 forward 7 unknown #
vertex $-1 $189 $368 #
vertex $-1 $275 $369 #
straight-curve $-1 0 -33.937994217920185 9.4504786657915254 -1 0 0 I I #
straight-curve $-1 -74.848475600451678 -33.937994217920185 0 0 0 -1 I I #
coedge $-1 $188 $365 $190 $286 reversed $283 $-1 #
loop $-1 $-1 $188 $269 #
straight-curve $-1 74.848475600451678 -33.937994217920185 0 0 0 1 I I #
coedge $-1 $191 $190 $370 $371 forward $180 $-1 #
edge $-1 $192 -5.2893550661638358 $372 5.2893550661638358 $282 $373 forward 7 unknown #
edge $-1 $374 -5.2893550661638358 $193 5.2893550661638358 $272 $375 forward 7 unknown #
point $-1 74.848475600451678 -33.937994217920185 6.4504786657915254 #
point $-1 -74.848475600451678 -33.937994217920185 6.4504786657915254 #
loop $-1 $-1 $203 $195 #
plane-surface $-1 -74.848475600451678 0 0 1 0 0 0 0 -1 forward_v I I I I #
coedge $-1 $293 $198 $200 $297 reversed $117 $-1 #
coedge $-1 $198 $292 $376 $377 reversed $117 $-1 #
coedge $-1 $206 $201 $198 $295 forward $196 $-1 #
edge $-1 $298 -24.112744666915603 $378 -16.417250310525816 $294 $379 forward 7 unknown #
coedge $-1 $200 $199 $301 $380 reversed $73 $-1 #
edge $-1 $381 0 $298 11.078099362452676 $292 $382 forward 7 unknown #
vertex $-1 $202 $383 #
straight-curve $-1 -67.152981244061891 10.294299583206183 9.4504786657915272 0 1 0 I I #
coedge $-1 $376 $203 $206 $305 reversed $290 $-1 #
coedge $-1 $203 $376 $296 $380 forward $290 $-1 #
vertex $-1 $204 $384 #
straight-curve $-1 -74.848475600451678 16.898985956164765 52.734899848869716 0 0 1 I I #
straight-curve $-1 -74.848475600451678 16.898985956164765 1.4815607910015416 -0.69465836192734942 0 -0.71933980857756763 I I #
edge $-1 $378 -24.278212376659965 $207 -16.898985956164765 $300 $385 forward 7 unknown #
point $-1 -74.848475600451678 16.898985956164765 9.4504786657915254 #
point $-1 -67.152981244061891 16.898985956164765 9.4504786657915254 #
edge $-1 $386 1 $386 0 $210 $-1 forward 7 unknown #
vertex $-1 $211 $387 #
ellipse-curve $-1 -69.487386044123454 19.007336362020538 4.0046020160804217 -0.71933980857756763 0 0.69465836192734942 0.69465836192734942 0 0.71933980857756763 1 I I #
point $-1 -70.306070060329432 19.007336362020538 6.1853595369740928 #
edge $-1 $388 1 $388 0 $214 $-1 forward 7 unknown #
vertex $-1 $215 $389 #
ellipse-curve $-1 -69.487386044123454 22.169861970804199 4.0046020160804217 -0.71933980857756763 0 0.69465836192734942 0.69465836192734942 0 0.71933980857756763 1 I I #
point $-1 -70.306070060329432 22.169861970804199 6.1853595369740928 #
plane-surface $-1 0 0 9.4504786657915254 0 0 1 1 0 0 forward_v I I I I #
coedge $-1 $327 $326 $319 $390 forward $219 $-1 #
coedge $-1 $319 $221 $223 $323 reversed $139 $-1 #
coedge $-1 $221 $318 $317 $390 reversed $139 $-1 #
coedge $-1 $229 $224 $221 $321 forward $230 $-1 #
edge $-1 $324 34.375791387042085 $391 39.27160400168232 $320 $392 forward 7 unknown #
coedge $-1 $223 $222 $327 $393 reversed $87 $-1 #
edge $-1 $394 -149.69695120090333 $324 -142.89097068102757 $318 $395 forward 7 unknown #
vertex $-1 $225 $396 #
straight-curve $-1 69.952662985811415 -2.9735953418071812 9.4504786657915218 0 -1 0 I I #
coedge $-1 $317 $226 $229 $331 reversed $219 $-1 #
coedge $-1 $226 $317 $322 $393 forward $219 $-1 #
vertex $-1 $227 $397 #
straight-curve $-1 74.848475600451678 -2.3376538773296538 108.19693124345761 0 0 1 I I #
straight-curve $-1 -32.834498207993732 -2.3376538773296538 108.71088867846979 0.71933979245794832 0 -0.69465837861970381 I I #
edge $-1 $391 -9.5567274898990711 $231 -2.3376538773296538 $326 $398 forward 7 unknown #
point $-1 74.848475600451678 -2.3376538773296538 9.4504786657915254 #
point $-1 69.952662985811443 -2.3376538773296538 9.4504786657915218 #
edge $-1 $399 1 $399 0 $234 $-1 forward 7 unknown #
vertex $-1 $235 $400 #
ellipse-curve $-1 69.884475814689807 -7.4941350291649513 4.4810719592604098 0.69465837861970381 0 0.71933979245794832 0.71933979245794832 0 -0.69465837861970381 1 I I #
point $-1 73.119909085589512 -7.4941350291649513 6.3919045907447485 #
edge $-1 $401 1 $401 0 $238 $-1 forward 7 unknown #
vertex $-1 $239 $402 #
ellipse-curve $-1 69.884475814689807 -4.4002463380637735 4.4810719592604098 0.69465837861970381 0 0.71933979245794832 0.71933979245794832 0 -0.69465837861970381 1 I I #
point $-1 73.119909085589512 -4.4002463380637735 6.3919045907447485 #
plane-surface $-1 74.848475600451678 0 0 -1 0 0 0 0 1 forward_v I I I I #
coedge $-1 $247 $245 $249 $347 reversed $161 $-1 #
edge $-1 $260 -9.4504786657915254 $349 9.4504786657915254 $259 $403 forward 7 unknown #
vertex $-1 $347 $404 #
straight-curve $-1 -74.848475600451678 -33.937994217920185 0 0 0 -1 I I #
edge $-1 $345 -33.937994217920185 $349 33.937994217920185 $343 $405 forward 7 unknown #
straight-curve $-1 0 -33.937994217920185 -9.4504786657915254 -1 0 0 I I #
vertex $-1 $252 $406 #
straight-curve $-1 0 33.937994217920185 -9.4504786657915254 1 0 0 I I #
point $-1 74.848475600451678 33.937994217920185 -9.4504786657915254 #
point $-1 74.848475600451678 -33.937994217920185 -9.4504786657915254 #
straight-curve $-1 -74.848475600451678 0 9.4504786657915254 0 -1 0 I I #
point $-1 -74.848475600451678 33.937994217920185 9.4504786657915254 #
point $-1 -74.848475600451678 -33.937994217920185 9.4504786657915254 #
straight-curve $-1 74.848475600451678 -33.937994217920185 0 0 0 -1 I I #
straight-curve $-1 74.848475600451678 33.937994217920185 0 0 0 -1 I I #
plane-surface $-1 74.848475600451678 0 0 -1 0 0 0 0 1 forward_v I I I I #
coedge $-1 $370 $361 $360 $407 forward $270 $-1 #
coedge $-1 $273 $272 $359 $407 reversed $109 $-1 #
coedge $-1 $359 $408 $274 $362 reversed $270 $-1 #
edge $-1 $363 -74.848475600451678 $366 74.848475600451678 $361 $409 forward 7 unknown #
vertex $-1 $275 $410 #
straight-curve $-1 -74.848475600451678 0 9.4504786657915254 0 -1 0 I I #
coedge $-1 $282 $276 $408 $411 forward $283 $-1 #
vertex $-1 $277 $412 #
straight-curve $-1 74.848475600451678 0 9.4504786657915254 0 1 0 I I #
point $-1 74.848475600451678 -33.937994217920185 9.4504786657915254 #
point $-1 -74.848475600451678 -33.937994217920185 9.4504786657915254 #
coedge $-1 $408 $359 $285 $371 reversed $270 $-1 #
edge $-1 $372 -74.848475600451678 $374 74.848475600451678 $370 $413 forward 7 unknown #
vertex $-1 $411 $414 #
straight-curve $-1 74.848475600451678 -39.227349284084021 6.4504786657915254 0 -1 0 I I #
vertex $-1 $287 $415 #
straight-curve $-1 -74.848475600451678 -39.227349284084021 6.4504786657915254 0 1 0 I I #
coedge $-1 $301 $300 $293 $377 forward $290 $-1 #
edge $-1 $378 43.284421183078194 $381 51.253339057868175 $376 $416 forward 7 unknown #
vertex $-1 $305 $417 #
straight-curve $-1 -91.265725910977494 24.278212376659965 9.450478665791529 -1 0 0 I I #
edge $-1 $381 -13.983912793453783 $302 -6.6046863729585823 $301 $418 forward 7 unknown #
vertex $-1 $380 $419 #
straight-curve $-1 -74.848475600451678 24.278212376659965 1.4815607910015416 0.69465836192734942 0 0.71933980857756763 I I #
point $-1 -67.152981244061891 24.278212376659965 9.4504786657915254 #
point $-1 -74.848475600451678 16.898985956164765 1.4815607910015416 #
straight-curve $-1 -74.848475600451678 0 9.4504786657915254 0 -1 0 I I #
vertex $-1 $308 $420 #
point $-1 -68.792727682196116 19.007336362020538 4.723941824657989 #
vertex $-1 $312 $421 #
point $-1 -68.792727682196116 22.169861970804199 4.723941824657989 #
edge $-1 $391 98.746452577666091 $394 103.47428397052026 $317 $422 forward 7 unknown #
vertex $-1 $331 $423 #
straight-curve $-1 35.576871598769358 -9.5567274898990711 9.4504786657915218 1 0 0 I I #
edge $-1 $394 -6.5831321480918898 $328 0.63594146447752742 $327 $424 forward 7 unknown #
vertex $-1 $393 $425 #
straight-curve $-1 -32.834498207993732 -9.5567274898990711 108.71088867846979 -0.71933979245794832 0 0.69465837861970381 I I #
point $-1 69.952662985811443 -9.5567274898990711 9.4504786657915218 #
point $-1 74.848475600451692 -2.3376538773296538 4.7226472729373512 #
straight-curve $-1 74.848475600451678 0 9.4504786657915254 0 1 0 I I #
vertex $-1 $334 $426 #
point $-1 70.603815607147766 -7.4941350291649513 3.7864135806407062 #
vertex $-1 $338 $427 #
point $-1 70.603815607147766 -4.4002463380637735 3.7864135806407062 #
straight-curve $-1 -74.848475600451678 33.937994217920185 0 0 0 -1 I I #
point $-1 -74.848475600451678 -33.937994217920185 -9.4504786657915254 #
straight-curve $-1 -74.848475600451678 0 -9.4504786657915254 0 1 0 I I #
point $-1 -74.848475600451678 33.937994217920185 -9.4504786657915254 #
edge $-1 $363 -1.5 $374 1.5 $360 $428 forward 7 unknown #
coedge $-1 $361 $370 $365 $411 reversed $270 $-1 #
straight-curve $-1 0 -44.516704350247856 9.4504786657915254 1 0 0 I I #
point $-1 -74.848475600451678 -44.516704350247856 9.4504786657915254 #
edge $-1 $366 -1.5 $372 1.5 $365 $429 forward 7 unknown #
point $-1 74.848475600451678 -44.516704350247856 9.4504786657915254 #
straight-curve $-1 0 -44.516704350247856 6.4504786657915254 -1 0 0 I I #
point $-1 74.848475600451678 -44.516704350247856 6.4504786657915254 #
point $-1 -74.848475600451678 -44.516704350247856 6.4504786657915254 #
straight-curve $-1 -74.848475600451678 24.278212376659965 52.734899848869716 0 0 -1 I I #
point $-1 -74.848475600451678 24.278212376659965 9.4504786657915254 #
straight-curve $-1 -74.848475600451678 10.294299583206183 1.4815607910015396 0 -1 0 I I #
point $-1 -74.848475600451678 24.278212376659965 1.4815607910015416 #
point $-1 -68.768046235545896 19.007336362020538 3.3099436541530713 #
point $-1 -68.768046235545896 22.169861970804199 3.3099436541530713 #
straight-curve $-1 74.848475600451678 -9.5567274898990711 108.19693124345761 0 0 -1 I I #
point $-1 74.848475600451678 -9.5567274898990711 9.4504786657915254 #
straight-curve $-1 74.848475600451678 -2.9735953418071812 4.7226472729373725 0 1 0 I I #
point $-1 74.848475600451692 -9.5567274898990711 4.7226472729373512 #
point $-1 69.189817436070115 -7.4941350291649513 3.7617321668024619 #
point $-1 69.189817436070115 -4.4002463380637735 3.7617321668024619 #
straight-curve $-1 -74.848475600451678 -44.516704350247856 7.9504786657915254 0 0 -1 I I #
straight-curve $-1 74.848475600451678 -44.516704350247856 7.9504786657915254 0 0 -1 I I #
End-of-ACIS-data 