500 0 6 0           
7 Unknown 11 ACIS 5.0 NT 24 Fri Mar 26 20:42:02 1999 
-1 9.9999999999999995e-007 1e-010 
body $-1 $6 $-1 $7 #
body $-1 $8 $-1 $9 #
body $-1 $10 $-1 $11 #
body $-1 $12 $-1 $13 #
body $-1 $14 $-1 $15 #
body $-1 $16 $-1 $17 #
lump $-1 $-1 $18 $0 #
transform $-1 1 0 0 0 1 0 0 0 1 67.525254066591387 29.517646691739508 11.773367463393669 1 rotate no_reflect no_shear #
lump $-1 $-1 $19 $1 #
transform $-1 1 0 0 0 1 0 0 0 1 67.525254066591387 29.517646691739508 11.773367463393669 1 rotate no_reflect no_shear #
lump $-1 $-1 $20 $2 #
transform $-1 1 0 0 0 1 0 0 0 1 67.525254066591387 29.517646691739508 11.773367463393669 1 rotate no_reflect no_shear #
lump $-1 $-1 $21 $3 #
transform $-1 1 0 0 0 1 0 0 0 1 67.525254066591387 29.517646691739508 11.773367463393669 1 rotate no_reflect no_shear #
lump $-1 $-1 $22 $4 #
transform $-1 1 0 0 0 1 0 0 0 1 67.525254066591387 29.517646691739508 11.773367463393669 1 rotate no_reflect no_shear #
lump $-1 $-1 $23 $5 #
transform $-1 1 0 0 0 1 0 0 0 1 67.525254066591387 29.517646691739508 11.773367463393669 1 rotate no_reflect no_shear #
shell $-1 $-1 $-1 $24 $-1 $6 #
shell $-1 $-1 $-1 $25 $-1 $8 #
shell $-1 $-1 $-1 $26 $-1 $10 #
shell $-1 $-1 $-1 $27 $-1 $12 #
shell $-1 $-1 $-1 $28 $-1 $14 #
shell $-1 $-1 $-1 $29 $-1 $16 #
face $-1 $30 $31 $18 $-1 $32 forward single #
face $-1 $33 $34 $19 $-1 $35 reversed single #
face $-1 $36 $37 $20 $-1 $38 reversed single #
face $-1 $39 $40 $21 $-1 $41 forward single #
face $-1 $42 $43 $22 $-1 $44 reversed single #
face $-1 $45 $46 $23 $-1 $47 forward single #
face $-1 $48 $49 $18 $-1 $50 reversed single #
loop $-1 $-1 $51 $24 #
plane-surface $-1 0 0 11.773367463393669 0 0 1 1 0 0 forward_v I I I I #
face $-1 $52 $53 $19 $-1 $54 reversed single #
loop $-1 $-1 $55 $25 #
plane-surface $-1 -61.990722186366995 -10.943342330029992 0 0 1 0 0 0 1 forward_v I I I I #
face $-1 $56 $57 $20 $-1 $58 reversed single #
loop $-1 $-1 $59 $26 #
plane-surface $-1 53.263055594153727 -29.517646691739515 5.4433594937221272 0 -0.52991927123019833 0.84804809178421925 1 0 0 forward_v I I I I #
face $-1 $60 $61 $21 $-1 $62 forward single #
loop $-1 $63 $64 $27 #
cone-surface $-1 53.263055594153727 -21.92567272921794 4.5644639979472421 0 0.52991927123019833 -0.84804809178421925 2.5 0 0 1 I I 0 1 2.5 forward I I I I #
face $-1 $65 $66 $22 $-1 $67 reversed single #
loop $-1 $-1 $68 $28 #
plane-surface $-1 53.263055594153727 -20.547121210041432 36.727299140356266 0 0.52991927123019833 0.84804809178421925 1 0 0 forward_v I I I I #
face $-1 $69 $70 $23 $-1 $71 forward single #
loop $-1 $72 $73 $29 #
cone-surface $-1 53.263055594153727 21.925672729217933 4.5644639979472457 0 -0.52991927123019833 -0.84804809178421925 2.5 0 0 1 I I 0 1 2.5 forward I I I I #
face $-1 $74 $75 $18 $-1 $76 reversed single #
loop $-1 $-1 $77 $30 #
plane-surface $-1 0 0 -11.773367463393669 0 0 1 1 0 0 forward_v I I I I #
coedge $-1 $78 $79 $80 $81 forward $31 $-1 #
face $-1 $82 $83 $19 $-1 $84 reversed single #
loop $-1 $-1 $85 $33 #
plane-surface $-1 -61.990722186366995 -5.9709117649521701 0 0 -1 0 0 0 -1 forward_v I I I I #
coedge $-1 $86 $87 $88 $89 reversed $34 $-1 #
face $-1 $90 $91 $20 $-1 $92 reversed single #
loop $-1 $-1 $93 $36 #
plane-surface $-1 39.000857121716066 -101.0835135409437 119.97268521055696 1 0 0 0 0.52991927123019833 -0.84804809178421925 forward_v I I I I #
coedge $-1 $94 $95 $96 $97 reversed $37 $-1 #
face $-1 $-1 $98 $21 $-1 $99 forward single #
loop $-1 $100 $101 $39 #
cone-surface $-1 53.263055594153727 -18.736364746151764 -0.53949559739369235 0 0.52991927123019833 -0.84804809178421925 1.25 0 0 1 I I -0.70710678118654746 0.70710678118654746 1.25 forward I I I I #
loop $-1 $-1 $102 $27 #
coedge $-1 $64 $64 $103 $104 reversed $40 $-1 #
face $-1 $105 $106 $22 $-1 $107 reversed single #
loop $-1 $-1 $108 $42 #
plane-surface $-1 39.000857121716066 51.018745639162752 151.2566248571911 1 0 0 0 -0.52991927123019833 -0.84804809178421925 forward_v I I I I #
coedge $-1 $109 $110 $111 $112 reversed $43 $-1 #
face $-1 $-1 $113 $23 $-1 $114 forward single #
loop $-1 $115 $116 $45 #
cone-surface $-1 53.263055594153727 18.736364746151757 -0.5394955973936888 0 -0.52991927123019833 -0.84804809178421925 1.25 0 0 1 I I -0.70710678118654746 0.70710678118654746 1.25 forward I I I I #
loop $-1 $-1 $117 $29 #
coedge $-1 $73 $73 $118 $119 reversed $46 $-1 #
face $-1 $120 $121 $18 $-1 $122 reversed single #
loop $-1 $-1 $123 $48 #
plane-surface $-1 0 -29.517646691739508 0 0 1 0 0 0 1 forward_v I I I I #
coedge $-1 $124 $125 $126 $127 forward $49 $-1 #
coedge $-1 $128 $51 $129 $130 forward $31 $-1 #
coedge $-1 $51 $128 $131 $132 forward $31 $-1 #
coedge $-1 $133 $134 $51 $81 reversed $135 $-1 #
edge $-1 $136 -29.517646691739508 $137 29.517646691739508 $80 $138 forward 7 unknown #
face $-1 $139 $140 $19 $-1 $141 reversed single #
loop $-1 $-1 $142 $52 #
plane-surface $-1 -56.456190306142602 -8.4571270474910811 0 -1 0 0 0 0 1 forward_v I I I I #
coedge $-1 $143 $144 $145 $146 forward $53 $-1 #
coedge $-1 $147 $55 $148 $149 reversed $34 $-1 #
coedge $-1 $55 $147 $150 $151 reversed $34 $-1 #
coedge $-1 $152 $153 $55 $89 forward $154 $-1 #
edge $-1 $155 -11.773367463393669 $156 11.773367463393669 $88 $157 forward 7 unknown #
face $-1 $158 $159 $20 $-1 $160 forward single #
loop $-1 $-1 $161 $56 #
plane-surface $-1 0 -29.517646691739508 0 0 1 0 0 0 1 forward_v I I I I #
coedge $-1 $162 $163 $164 $165 reversed $57 $-1 #
coedge $-1 $166 $59 $167 $168 reversed $37 $-1 #
coedge $-1 $59 $166 $162 $169 forward $37 $-1 #
coedge $-1 $164 $170 $59 $97 forward $159 $-1 #
edge $-1 $171 -40.893726269514524 $172 -12.369329324639203 $96 $173 forward 7 unknown #
loop $-1 $-1 $103 $60 #
plane-surface $-1 53.263055594153727 -29.517646691739515 5.4433594937221272 0 -0.52991927123019833 0.84804809178421925 1 0 0 forward_v I I I I #
loop $-1 $-1 $174 $39 #
coedge $-1 $101 $101 $102 $175 reversed $61 $-1 #
coedge $-1 $102 $102 $101 $175 forward $63 $-1 #
coedge $-1 $103 $103 $64 $104 forward $98 $-1 #
edge $-1 $176 -7.5557956249272362e-017 $176 6.2831853071796004 $103 $177 forward 7 unknown #
face $-1 $178 $179 $22 $-1 $180 reversed single #
loop $-1 $-1 $181 $65 #
plane-surface $-1 67.525254066591387 0 0 -1 0 0 0 0 1 forward_v I I I I #
coedge $-1 $182 $183 $184 $185 reversed $66 $-1 #
coedge $-1 $186 $68 $181 $187 reversed $43 $-1 #
coedge $-1 $68 $186 $182 $188 forward $43 $-1 #
coedge $-1 $184 $189 $68 $112 forward $179 $-1 #
edge $-1 $190 -40.893726269514524 $191 -12.369329324639203 $111 $192 forward 7 unknown #
loop $-1 $-1 $118 $69 #
plane-surface $-1 53.263055594153727 -20.547121210041432 36.727299140356266 0 0.52991927123019833 0.84804809178421925 1 0 0 forward_v I I I I #
loop $-1 $-1 $193 $45 #
coedge $-1 $116 $116 $117 $194 reversed $70 $-1 #
coedge $-1 $117 $117 $116 $194 forward $72 $-1 #
coedge $-1 $118 $118 $73 $119 forward $113 $-1 #
edge $-1 $195 -5.2638670867599041e-016 $195 6.2831853071795996 $118 $196 forward 7 unknown #
face $-1 $197 $198 $18 $-1 $199 reversed single #
loop $-1 $-1 $200 $74 #
plane-surface $-1 -67.525254066591387 0 0 1 0 0 0 0 -1 forward_v I I I I #
coedge $-1 $201 $131 $202 $203 forward $75 $-1 #
coedge $-1 $204 $77 $201 $205 forward $49 $-1 #
coedge $-1 $77 $204 $206 $207 forward $49 $-1 #
coedge $-1 $134 $133 $77 $127 reversed $135 $-1 #
edge $-1 $208 -29.517646691739508 $209 29.517646691739508 $126 $210 forward 7 unknown #
coedge $-1 $79 $78 $211 $212 forward $31 $-1 #
coedge $-1 $213 $214 $78 $130 reversed $198 $-1 #
edge $-1 $137 -67.525254066591387 $215 67.525254066591387 $129 $216 forward 7 unknown #
coedge $-1 $123 $217 $79 $132 reversed $75 $-1 #
edge $-1 $218 -67.525254066591387 $136 67.525254066591387 $131 $219 forward 7 unknown #
coedge $-1 $126 $80 $217 $220 forward $135 $-1 #
coedge $-1 $80 $126 $213 $221 reversed $135 $-1 #
loop $-1 $-1 $133 $197 #
vertex $-1 $81 $222 #
vertex $-1 $81 $223 #
straight-curve $-1 67.525254066591387 0 11.773367463393669 0 1 0 I I #
face $-1 $224 $225 $19 $-1 $226 forward single #
loop $-1 $-1 $227 $82 #
plane-surface $-1 0 0 -11.773367463393669 0 0 1 1 0 0 forward_v I I I I #
coedge $-1 $228 $229 $147 $230 forward $83 $-1 #
coedge $-1 $231 $85 $227 $232 reversed $53 $-1 #
coedge $-1 $85 $231 $233 $234 reversed $53 $-1 #
coedge $-1 $229 $228 $85 $146 reversed $83 $-1 #
edge $-1 $235 -11.773367463393669 $236 11.773367463393669 $145 $237 forward 7 unknown #
coedge $-1 $87 $86 $142 $230 reversed $34 $-1 #
coedge $-1 $238 $239 $86 $149 forward $140 $-1 #
edge $-1 $240 25.460829212959105 $155 36.52989297340789 $148 $241 forward 7 unknown #
coedge $-1 $242 $243 $87 $151 forward $225 $-1 #
edge $-1 $156 -36.52989297340789 $244 -25.460829212959105 $150 $245 forward 7 unknown #
coedge $-1 $246 $88 $243 $247 reversed $154 $-1 #
coedge $-1 $88 $246 $238 $248 reversed $154 $-1 #
loop $-1 $-1 $246 $224 #
vertex $-1 $248 $249 #
vertex $-1 $89 $250 #
straight-curve $-1 -67.525254066591387 -10.943342330029992 0 0 0 1 I I #
face $-1 $-1 $251 $20 $-1 $252 reversed single #
loop $-1 $-1 $164 $90 #
plane-surface $-1 0 0 11.773367463393669 0 0 1 1 0 0 forward_v I I I I #
coedge $-1 $253 $254 $163 $255 forward $91 $-1 #
coedge $-1 $163 $93 $95 $169 reversed $57 $-1 #
coedge $-1 $93 $162 $161 $255 reversed $57 $-1 #
coedge $-1 $256 $96 $93 $165 forward $159 $-1 #
edge $-1 $172 -31.154240215718637 $257 -21.024110078732342 $164 $258 forward 7 unknown #
coedge $-1 $95 $94 $253 $259 reversed $37 $-1 #
coedge $-1 $260 $261 $94 $168 forward $251 $-1 #
edge $-1 $262 -11.073921427466621 $171 0.87130931490010777 $167 $263 forward 7 unknown #
edge $-1 $264 8.3790584163743152e-015 $172 11.945230742366736 $162 $265 forward 7 unknown #
coedge $-1 $96 $256 $260 $266 forward $159 $-1 #
vertex $-1 $168 $267 #
vertex $-1 $97 $268 #
straight-curve $-1 26.631527797076863 -19.387516554753212 11.773367463393669 -1 0 0 I I #
coedge $-1 $174 $174 $-1 $269 reversed $100 $-1 #
edge $-1 $270 0 $270 6.2831853071796004 $101 $271 forward 7 unknown #
vertex $-1 $104 $272 #
ellipse-curve $-1 53.263055594153727 -24.452581623246363 8.608363478557898 0 -0.52991927123019833 0.84804809178421925 2.5 0 0 1 I I #
face $-1 $-1 $273 $22 $-1 $274 forward single #
loop $-1 $-1 $111 $105 #
plane-surface $-1 0 29.517646691739508 0 0 -1 0 0 0 -1 forward_v I I I I #
coedge $-1 $275 $276 $109 $187 forward $106 $-1 #
coedge $-1 $183 $108 $110 $188 reversed $66 $-1 #
coedge $-1 $108 $182 $277 $278 reversed $66 $-1 #
coedge $-1 $279 $111 $108 $185 forward $179 $-1 #
edge $-1 $191 -70.184952934873451 $280 -63.854944965201881 $184 $281 forward 7 unknown #
coedge $-1 $110 $109 $282 $283 reversed $43 $-1 #
edge $-1 $284 28.646337376839384 $190 40.591568119206144 $181 $285 forward 7 unknown #
edge $-1 $286 47.090062641112269 $191 59.035293383479036 $182 $287 forward 7 unknown #
coedge $-1 $111 $279 $275 $288 forward $179 $-1 #
vertex $-1 $112 $289 #
vertex $-1 $112 $290 #
straight-curve $-1 26.631527797076863 29.517646691739515 5.4433594937221059 -1 0 0 I I #
coedge $-1 $193 $193 $-1 $291 reversed $115 $-1 #
edge $-1 $292 0 $292 6.2831853071796004 $116 $293 forward 7 unknown #
vertex $-1 $119 $294 #
ellipse-curve $-1 53.263055594153727 24.452581623246349 8.6083634785578873 0 0.52991927123019833 0.84804809178421925 2.5 0 0 1 I I #
face $-1 $-1 $135 $18 $-1 $295 reversed single #
loop $-1 $-1 $213 $120 #
plane-surface $-1 0 29.517646691739508 0 0 -1 0 0 0 -1 forward_v I I I I #
coedge $-1 $296 $211 $214 $297 forward $121 $-1 #
coedge $-1 $217 $123 $124 $205 reversed $75 $-1 #
coedge $-1 $211 $296 $123 $203 reversed $121 $-1 #
edge $-1 $218 -11.773367463393669 $298 11.773367463393669 $202 $299 forward 7 unknown #
coedge $-1 $125 $124 $296 $300 forward $49 $-1 #
edge $-1 $209 -67.525254066591387 $298 67.525254066591387 $201 $301 forward 7 unknown #
coedge $-1 $214 $213 $125 $207 reversed $198 $-1 #
edge $-1 $302 -67.525254066591387 $208 67.525254066591387 $206 $303 forward 7 unknown #
vertex $-1 $127 $304 #
vertex $-1 $220 $305 #
straight-curve $-1 67.525254066591387 0 -11.773367463393669 0 -1 0 I I #
coedge $-1 $200 $202 $128 $212 reversed $121 $-1 #
edge $-1 $215 -29.517646691739508 $218 29.517646691739508 $211 $306 forward 7 unknown #
coedge $-1 $206 $129 $134 $221 forward $198 $-1 #
coedge $-1 $129 $206 $200 $297 reversed $198 $-1 #
vertex $-1 $130 $307 #
straight-curve $-1 0 29.517646691739508 11.773367463393669 -1 0 0 I I #
coedge $-1 $131 $201 $133 $220 reversed $75 $-1 #
vertex $-1 $212 $308 #
straight-curve $-1 0 -29.517646691739508 11.773367463393669 1 0 0 I I #
edge $-1 $136 -11.773367463393669 $209 11.773367463393669 $133 $309 forward 7 unknown #
edge $-1 $137 -11.773367463393669 $208 11.773367463393669 $134 $310 forward 7 unknown #
point $-1 67.525254066591387 -29.517646691739508 11.773367463393669 #
point $-1 67.525254066591387 29.517646691739508 11.773367463393669 #
face $-1 $-1 $154 $19 $-1 $311 reversed single #
loop $-1 $-1 $233 $139 #
plane-surface $-1 0 0 11.773367463393669 0 0 1 1 0 0 forward_v I I I I #
coedge $-1 $239 $238 $143 $232 forward $140 $-1 #
coedge $-1 $145 $142 $239 $312 reversed $83 $-1 #
coedge $-1 $142 $145 $242 $313 reversed $83 $-1 #
edge $-1 $244 -11.773367463393669 $240 11.773367463393669 $142 $314 forward 7 unknown #
coedge $-1 $144 $143 $246 $315 reversed $53 $-1 #
edge $-1 $316 -36.52989297340789 $236 -25.460829212959105 $227 $317 forward 7 unknown #
coedge $-1 $243 $242 $144 $234 forward $225 $-1 #
edge $-1 $235 25.460829212959105 $318 36.52989297340789 $233 $319 forward 7 unknown #
vertex $-1 $234 $320 #
vertex $-1 $232 $321 #
straight-curve $-1 -56.456190306142602 -5.9709117649521701 0 0 0 -1 I I #
coedge $-1 $227 $148 $153 $248 forward $140 $-1 #
coedge $-1 $148 $227 $228 $312 forward $140 $-1 #
vertex $-1 $149 $322 #
straight-curve $-1 -30.995361093183497 -10.943342330029992 -11.773367463393669 -1 0 0 I I #
coedge $-1 $233 $150 $229 $313 forward $225 $-1 #
coedge $-1 $150 $233 $152 $247 forward $225 $-1 #
vertex $-1 $151 $323 #
straight-curve $-1 -30.995361093183497 -10.943342330029992 11.773367463393669 1 0 0 I I #
coedge $-1 $153 $152 $231 $315 forward $154 $-1 #
edge $-1 $318 5.9709117649521701 $156 10.943342330029992 $152 $324 forward 7 unknown #
edge $-1 $155 -10.943342330029992 $316 -5.9709117649521701 $153 $325 forward 7 unknown #
point $-1 -67.525254066591387 -10.943342330029992 -11.773367463393669 #
point $-1 -67.525254066591387 -10.943342330029992 11.773367463393669 #
loop $-1 $-1 $167 $158 #
plane-surface $-1 67.525254066591387 0 0 -1 0 0 0 0 1 forward_v I I I I #
coedge $-1 $326 $161 $166 $259 forward $91 $-1 #
coedge $-1 $161 $326 $256 $327 reversed $91 $-1 #
edge $-1 $257 48.212975141884812 $264 54.542983111556346 $161 $328 forward 7 unknown #
coedge $-1 $170 $164 $254 $327 forward $159 $-1 #
vertex $-1 $327 $329 #
straight-curve $-1 39.000857121716066 -50.541756770471849 11.773367463393669 0 -1 0 I I #
edge $-1 $264 12.369329324639203 $262 40.893726269514524 $253 $330 forward 7 unknown #
coedge $-1 $261 $167 $170 $266 reversed $251 $-1 #
coedge $-1 $167 $260 $326 $331 forward $251 $-1 #
vertex $-1 $259 $332 #
straight-curve $-1 67.525254066591387 -20.126428756608064 11.311643866225721 0 0.84804809178421925 0.52991927123019833 I I #
vertex $-1 $259 $333 #
straight-curve $-1 39.000857121716066 -29.517646691739515 5.4433594937221272 0 0.84804809178421925 0.52991927123019833 I I #
edge $-1 $334 -29.517646691739508 $171 -19.387516554753212 $260 $335 forward 7 unknown #
point $-1 67.525254066591387 -19.387516554753212 11.773367463393669 #
point $-1 39.000857121716066 -19.387516554753212 11.773367463393669 #
edge $-1 $336 1 $336 0 $174 $-1 forward 7 unknown #
vertex $-1 $175 $337 #
ellipse-curve $-1 53.263055594153727 -19.398763835189513 0.52056451733658182 0 -0.52991927123019833 0.84804809178421925 2.5 0 0 1 I I #
point $-1 55.763055594153727 -24.452581623246367 8.6083634785579033 #
loop $-1 $-1 $282 $178 #
plane-surface $-1 0 0 11.773367463393669 0 0 1 1 0 0 forward_v I I I I #
coedge $-1 $276 $181 $189 $288 reversed $106 $-1 #
coedge $-1 $181 $275 $338 $339 reversed $106 $-1 #
coedge $-1 $282 $340 $183 $278 forward $273 $-1 #
edge $-1 $280 -4.0082738721581315 $286 6.1218562648281996 $277 $341 forward 7 unknown #
coedge $-1 $189 $184 $340 $342 reversed $179 $-1 #
vertex $-1 $185 $343 #
straight-curve $-1 39.000857121716066 29.517646691739508 75.628312428595549 0 0 1 I I #
coedge $-1 $338 $277 $186 $283 forward $273 $-1 #
edge $-1 $286 12.369329324639203 $284 40.893726269514524 $282 $344 forward 7 unknown #
vertex $-1 $339 $345 #
straight-curve $-1 67.525254066591387 -4.9059551942824156 26.953613689542781 0 0.84804809178421925 -0.52991927123019833 I I #
vertex $-1 $283 $346 #
straight-curve $-1 39.000857121716066 -20.547121210041432 36.727299140356266 0 0.84804809178421925 -0.52991927123019833 I I #
edge $-1 $347 -11.773367463393669 $190 -5.4433594937221068 $275 $348 forward 7 unknown #
point $-1 67.525254066591387 29.517646691739508 5.4433594937221068 #
point $-1 39.000857121716066 29.517646691739508 5.4433594937221059 #
edge $-1 $349 1 $349 0 $193 $-1 forward 7 unknown #
vertex $-1 $194 $350 #
ellipse-curve $-1 53.263055594153727 19.398763835189506 0.52056451733658538 0 0.52991927123019833 0.84804809178421925 2.5 0 0 1 I I #
point $-1 55.763055594153727 24.45258162324636 8.6083634785579068 #
plane-surface $-1 67.525254066591387 0 0 -1 0 0 0 0 1 forward_v I I I I #
coedge $-1 $202 $200 $204 $300 reversed $121 $-1 #
edge $-1 $215 -11.773367463393669 $302 11.773367463393669 $214 $351 forward 7 unknown #
vertex $-1 $300 $352 #
straight-curve $-1 -67.525254066591387 -29.517646691739508 0 0 0 -1 I I #
edge $-1 $298 -29.517646691739508 $302 29.517646691739508 $296 $353 forward 7 unknown #
straight-curve $-1 0 -29.517646691739508 -11.773367463393669 -1 0 0 I I #
vertex $-1 $207 $354 #
straight-curve $-1 0 29.517646691739508 -11.773367463393669 1 0 0 I I #
point $-1 67.525254066591387 29.517646691739508 -11.773367463393669 #
point $-1 67.525254066591387 -29.517646691739508 -11.773367463393669 #
straight-curve $-1 -67.525254066591387 0 11.773367463393669 0 -1 0 I I #
point $-1 -67.525254066591387 29.517646691739508 11.773367463393669 #
point $-1 -67.525254066591387 -29.517646691739508 11.773367463393669 #
straight-curve $-1 67.525254066591387 -29.517646691739508 0 0 0 -1 I I #
straight-curve $-1 67.525254066591387 29.517646691739508 0 0 0 -1 I I #
plane-surface $-1 -67.525254066591387 0 0 1 0 0 0 0 -1 forward_v I I I I #
edge $-1 $236 1.7423482412066296 $240 6.7147788062844516 $239 $355 forward 7 unknown #
edge $-1 $244 -6.7147788062844516 $235 -1.7423482412066296 $242 $356 forward 7 unknown #
straight-curve $-1 -56.456190306142602 -10.943342330029992 0 0 0 -1 I I #
edge $-1 $318 -11.773367463393669 $316 11.773367463393669 $246 $357 forward 7 unknown #
vertex $-1 $315 $358 #
straight-curve $-1 -30.995361093183497 -5.9709117649521701 -11.773367463393669 1 0 0 I I #
vertex $-1 $247 $359 #
straight-curve $-1 -30.995361093183497 -5.9709117649521701 11.773367463393669 -1 0 0 I I #
point $-1 -56.456190306142602 -5.9709117649521701 11.773367463393669 #
point $-1 -56.456190306142602 -5.9709117649521701 -11.773367463393669 #
point $-1 -56.456190306142602 -10.943342330029992 -11.773367463393669 #
point $-1 -56.456190306142602 -10.943342330029992 11.773367463393669 #
straight-curve $-1 -67.525254066591387 0 11.773367463393669 0 -1 0 I I #
straight-curve $-1 -67.525254066591387 0 -11.773367463393669 0 1 0 I I #
coedge $-1 $254 $253 $261 $331 reversed $91 $-1 #
edge $-1 $257 39.000857121716066 $334 67.525254066591387 $254 $360 forward 7 unknown #
straight-curve $-1 39.000857121716066 -29.517646691739508 59.98634260527848 0 0 -1 I I #
point $-1 39.000857121716066 -29.517646691739508 11.773367463393669 #
straight-curve $-1 26.631527797076863 -29.517646691739508 5.4433594937221317 1 0 0 I I #
edge $-1 $334 -11.773367463393669 $262 -5.4433594937221317 $261 $361 forward 7 unknown #
point $-1 67.525254066591387 -29.517646691739508 5.4433594937221317 #
point $-1 39.000857121716066 -29.517646691739508 5.4433594937221317 #
vertex $-1 $266 $362 #
straight-curve $-1 67.525254066591387 0 11.773367463393669 0 1 0 I I #
vertex $-1 $269 $363 #
point $-1 55.763055594153727 -19.398763835189513 0.52056451733658182 #
coedge $-1 $340 $282 $276 $339 forward $273 $-1 #
edge $-1 $284 19.387516554753176 $347 29.517646691739508 $276 $364 forward 7 unknown #
coedge $-1 $277 $338 $279 $342 forward $273 $-1 #
straight-curve $-1 39.000857121716066 25.509372819581376 11.773367463393669 0 -1 0 I I #
edge $-1 $347 -67.525254066591387 $280 -39.000857121716066 $279 $365 forward 7 unknown #
point $-1 39.000857121716066 29.517646691739508 11.773367463393669 #
straight-curve $-1 26.631527797076863 19.387516554753173 11.773367463393669 1 0 0 I I #
point $-1 67.525254066591387 19.387516554753176 11.773367463393669 #
point $-1 39.000857121716066 19.387516554753176 11.773367463393669 #
vertex $-1 $339 $366 #
straight-curve $-1 67.525254066591387 29.517646691739508 0 0 0 -1 I I #
vertex $-1 $291 $367 #
point $-1 55.763055594153727 19.398763835189506 0.52056451733658538 #
straight-curve $-1 -67.525254066591387 29.517646691739508 0 0 0 -1 I I #
point $-1 -67.525254066591387 -29.517646691739508 -11.773367463393669 #
straight-curve $-1 -67.525254066591387 0 -11.773367463393669 0 1 0 I I #
point $-1 -67.525254066591387 29.517646691739508 -11.773367463393669 #
straight-curve $-1 -56.456190306142602 -4.2285635237455406 -11.773367463393669 0 -1 0 I I #
straight-curve $-1 -56.456190306142602 -4.2285635237455406 11.773367463393669 0 1 0 I I #
straight-curve $-1 -67.525254066591387 -5.9709117649521701 0 0 0 -1 I I #
point $-1 -67.525254066591387 -5.9709117649521701 -11.773367463393669 #
point $-1 -67.525254066591387 -5.9709117649521701 11.773367463393669 #
straight-curve $-1 0 -29.517646691739508 11.773367463393669 1 0 0 I I #
straight-curve $-1 67.525254066591387 -29.517646691739508 0 0 0 -1 I I #
point $-1 67.525254066591387 -29.517646691739508 11.773367463393669 #
point $-1 53.263055594153727 -18.073965657114016 -1.5995557121239665 #
straight-curve $-1 67.525254066591387 0 11.773367463393669 0 1 0 I I #
straight-curve $-1 0 29.517646691739508 11.773367463393669 -1 0 0 I I #
point $-1 67.525254066591387 29.517646691739508 11.773367463393669 #
point $-1 53.263055594153727 18.073965657114009 -1.599555712123963 #
End-of-ACIS-data 