500 0 5 0           
7 Unknown 11 ACIS 5.0 NT 24 Thu Mar 25 23:53:31 1999 
-1 9.9999999999999995e-007 1e-010 
body $-1 $5 $-1 $6 #
body $-1 $7 $-1 $8 #
body $-1 $9 $-1 $10 #
body $-1 $11 $-1 $12 #
body $-1 $13 $-1 $14 #
lump $-1 $-1 $15 $0 #
transform $-1 1 0 0 0 1 0 0 0 1 73.367717520676294 45.88958506468424 22.688504374535874 1 rotate no_reflect no_shear #
lump $-1 $-1 $16 $1 #
transform $-1 1 0 0 0 1 0 0 0 1 73.367717520676294 45.88958506468424 22.688504374535874 1 rotate no_reflect no_shear #
lump $-1 $-1 $17 $2 #
transform $-1 1 0 0 0 1 0 0 0 1 73.367717520676294 45.88958506468424 22.688504374535874 1 rotate no_reflect no_shear #
lump $-1 $-1 $18 $3 #
transform $-1 1 0 0 0 1 0 0 0 1 73.367717520676294 45.88958506468424 22.688504374535874 1 rotate no_reflect no_shear #
lump $-1 $-1 $19 $4 #
transform $-1 1 0 0 0 1 0 0 0 1 73.367717520676294 45.88958506468424 22.688504374535874 1 rotate no_reflect no_shear #
shell $-1 $-1 $-1 $20 $-1 $5 #
shell $-1 $-1 $-1 $21 $-1 $7 #
shell $-1 $-1 $-1 $22 $-1 $9 #
shell $-1 $-1 $-1 $23 $-1 $11 #
shell $-1 $-1 $-1 $24 $-1 $13 #
face $-1 $25 $26 $15 $-1 $27 forward single #
face $-1 $28 $29 $16 $-1 $30 forward single #
face $-1 $31 $32 $17 $-1 $33 forward single #
face $-1 $34 $35 $18 $-1 $36 reversed single #
face $-1 $37 $38 $19 $-1 $39 forward single #
face $-1 $40 $41 $15 $-1 $42 reversed single #
loop $-1 $-1 $43 $20 #
plane-surface $-1 0 0 22.688504374535874 0 0 1 1 0 0 forward_v I I I I #
face $-1 $44 $45 $16 $-1 $46 reversed single #
loop $-1 $-1 $47 $21 #
plane-surface $-1 0 -33.805219697819332 6.1744772314365797 0 0 1 1 0 0 forward_v I I I I #
face $-1 $48 $49 $17 $-1 $50 reversed single #
loop $-1 $-1 $51 $22 #
plane-surface $-1 0 33.805219697819325 6.1744772314365797 0 0 1 1 0 0 forward_v I I I I #
face $-1 $52 $53 $18 $-1 $54 reversed single #
loop $-1 $-1 $55 $23 #
plane-surface $-1 91.45386526125391 -10.036590658211139 222.07344816589602 0 1 0 0.7660444514056185 0 0.64278759981090561 forward_v I I I I #
face $-1 $56 $57 $19 $-1 $58 forward single #
loop $-1 $59 $60 $24 #
cone-surface $-1 69.566035915671847 -6.6591782187265949 18.412423638149136 -0.7660444514056185 0 -0.64278759981090561 0.64278759981090561 0 -0.7660444514056185 1 I I 0 1 1 forward I I I I #
face $-1 $61 $62 $15 $-1 $63 reversed single #
loop $-1 $-1 $64 $25 #
plane-surface $-1 0 0 -22.688504374535874 0 0 1 1 0 0 forward_v I I I I #
coedge $-1 $65 $66 $67 $68 forward $26 $-1 #
face $-1 $69 $70 $16 $-1 $71 reversed single #
loop $-1 $-1 $72 $28 #
plane-surface $-1 0 -33.805219697819332 -5.8333204052810395 0 0 1 1 0 0 forward_v I I I I #
coedge $-1 $73 $74 $75 $76 reversed $29 $-1 #
face $-1 $77 $78 $17 $-1 $79 reversed single #
loop $-1 $-1 $80 $31 #
plane-surface $-1 0 33.805219697819325 -5.8333204052810395 0 0 1 1 0 0 forward_v I I I I #
coedge $-1 $81 $82 $83 $84 reversed $32 $-1 #
face $-1 $85 $86 $18 $-1 $87 reversed single #
loop $-1 $-1 $88 $34 #
plane-surface $-1 -20.952000576763822 -6.6591782187265949 127.75373006845592 0.7660444514056185 0 0.64278759981090561 0.64278759981090561 0 -0.7660444514056185 forward_v I I I I #
coedge $-1 $89 $90 $91 $92 reversed $35 $-1 #
face $-1 $-1 $93 $19 $-1 $94 forward single #
loop $-1 $95 $96 $37 #
cone-surface $-1 68.461096223091388 -6.6591782187265949 17.485269173905756 -0.7660444514056185 0 -0.64278759981090561 0.3213937999054528 0 -0.38302222570280925 1 I I -0.70710678118654746 0.70710678118654746 0.5 forward I I I I #
loop $-1 $-1 $97 $24 #
coedge $-1 $60 $60 $98 $99 reversed $38 $-1 #
face $-1 $100 $101 $15 $-1 $102 reversed single #
loop $-1 $-1 $103 $40 #
plane-surface $-1 0 -45.88958506468424 0 0 1 0 0 0 1 forward_v I I I I #
coedge $-1 $104 $105 $106 $107 forward $41 $-1 #
coedge $-1 $108 $43 $109 $110 forward $26 $-1 #
coedge $-1 $43 $108 $111 $112 forward $26 $-1 #
coedge $-1 $113 $114 $43 $68 reversed $115 $-1 #
edge $-1 $116 -45.88958506468424 $117 45.88958506468424 $67 $118 forward 7 unknown #
face $-1 $119 $120 $16 $-1 $121 reversed single #
loop $-1 $-1 $122 $44 #
plane-surface $-1 0 -21.720854330954424 0.17057841307777011 0 -1 0 0 0 -1 forward_v I I I I #
coedge $-1 $123 $124 $125 $126 reversed $45 $-1 #
coedge $-1 $127 $47 $128 $129 forward $29 $-1 #
coedge $-1 $47 $127 $130 $131 reversed $29 $-1 #
coedge $-1 $132 $133 $47 $76 forward $134 $-1 #
edge $-1 $135 4.8182444820447579 $136 28.986975215774574 $75 $137 forward 7 unknown #
face $-1 $138 $139 $17 $-1 $140 reversed single #
loop $-1 $-1 $141 $48 #
plane-surface $-1 0 21.720854330954417 0.17057841307777011 0 1 0 0 0 1 forward_v I I I I #
coedge $-1 $142 $143 $144 $145 reversed $49 $-1 #
coedge $-1 $146 $51 $147 $148 reversed $32 $-1 #
coedge $-1 $51 $146 $149 $150 forward $32 $-1 #
coedge $-1 $151 $152 $51 $84 forward $139 $-1 #
edge $-1 $153 -28.986975215774571 $154 -4.8182444820447543 $83 $155 forward 7 unknown #
face $-1 $156 $157 $18 $-1 $158 forward single #
loop $-1 $-1 $159 $52 #
plane-surface $-1 91.45386526125391 -3.2817657792420505 222.07344816589602 0 -1 0 -0.7660444514056185 0 -0.64278759981090561 forward_v I I I I #
coedge $-1 $160 $161 $162 $163 reversed $53 $-1 #
coedge $-1 $90 $55 $164 $165 reversed $35 $-1 #
coedge $-1 $55 $89 $160 $166 reversed $35 $-1 #
coedge $-1 $162 $167 $55 $92 forward $168 $-1 #
edge $-1 $169 88.348219708412131 $170 95.688859852509836 $91 $171 forward 7 unknown #
loop $-1 $-1 $98 $56 #
plane-surface $-1 -20.952000576763822 -6.6591782187265949 127.75373006845592 0.7660444514056185 0 0.64278759981090561 0.64278759981090561 0 -0.7660444514056185 forward_v I I I I #
loop $-1 $-1 $172 $37 #
coedge $-1 $96 $96 $97 $173 reversed $57 $-1 #
coedge $-1 $97 $97 $96 $173 forward $59 $-1 #
coedge $-1 $98 $98 $60 $99 forward $93 $-1 #
edge $-1 $174 0 $174 6.2831853071796004 $98 $175 forward 7 unknown #
face $-1 $176 $177 $15 $-1 $178 reversed single #
loop $-1 $-1 $179 $61 #
plane-surface $-1 -73.367717520676294 0 0 1 0 0 0 0 -1 forward_v I I I I #
coedge $-1 $180 $111 $181 $182 forward $62 $-1 #
coedge $-1 $183 $64 $180 $184 forward $41 $-1 #
coedge $-1 $64 $183 $185 $186 forward $41 $-1 #
coedge $-1 $114 $113 $64 $107 reversed $115 $-1 #
edge $-1 $187 -45.88958506468424 $188 45.88958506468424 $106 $189 forward 7 unknown #
coedge $-1 $66 $65 $190 $191 forward $26 $-1 #
coedge $-1 $192 $193 $65 $110 reversed $177 $-1 #
edge $-1 $117 -73.367717520676294 $194 73.367717520676294 $109 $195 forward 7 unknown #
coedge $-1 $103 $196 $66 $112 reversed $62 $-1 #
edge $-1 $197 -73.367717520676294 $116 73.367717520676294 $111 $198 forward 7 unknown #
coedge $-1 $106 $67 $196 $199 forward $115 $-1 #
coedge $-1 $67 $106 $192 $200 reversed $115 $-1 #
loop $-1 $-1 $113 $176 #
vertex $-1 $68 $201 #
vertex $-1 $68 $202 #
straight-curve $-1 73.367717520676294 0 22.688504374535874 0 1 0 I I #
face $-1 $203 $204 $16 $-1 $205 reversed single #
loop $-1 $-1 $206 $69 #
plane-surface $-1 -73.367717520676294 0 0 1 0 0 0 0 -1 forward_v I I I I #
coedge $-1 $207 $128 $133 $208 reversed $70 $-1 #
coedge $-1 $209 $72 $210 $211 reversed $45 $-1 #
coedge $-1 $72 $209 $207 $212 forward $45 $-1 #
coedge $-1 $133 $132 $72 $126 forward $134 $-1 #
edge $-1 $213 -28.986975215774574 $214 -4.8182444820447579 $125 $215 forward 7 unknown #
coedge $-1 $74 $73 $206 $216 reversed $29 $-1 #
coedge $-1 $122 $217 $73 $129 reversed $70 $-1 #
edge $-1 $135 -73.367717520676294 $218 73.367717520676294 $128 $219 forward 7 unknown #
coedge $-1 $220 $221 $74 $131 forward $204 $-1 #
edge $-1 $136 -73.367717520676294 $222 73.367717520676294 $130 $223 forward 7 unknown #
coedge $-1 $125 $75 $221 $224 forward $134 $-1 #
coedge $-1 $75 $125 $122 $208 forward $134 $-1 #
loop $-1 $-1 $75 $203 #
vertex $-1 $76 $225 #
vertex $-1 $224 $226 #
straight-curve $-1 73.367717520676294 -16.902609848909666 6.1744772314365797 0 -1 0 I I #
face $-1 $227 $228 $17 $-1 $229 reversed single #
loop $-1 $-1 $83 $77 #
plane-surface $-1 73.367717520676294 0 0 -1 0 0 0 0 1 forward_v I I I I #
coedge $-1 $230 $149 $231 $232 reversed $78 $-1 #
coedge $-1 $233 $80 $230 $234 forward $49 $-1 #
coedge $-1 $80 $233 $235 $236 reversed $49 $-1 #
coedge $-1 $152 $151 $80 $145 forward $139 $-1 #
edge $-1 $237 4.8182444820447543 $238 28.986975215774571 $144 $239 forward 7 unknown #
coedge $-1 $82 $81 $240 $241 reversed $32 $-1 #
coedge $-1 $242 $243 $81 $148 forward $244 $-1 #
edge $-1 $245 -73.367717520676294 $153 73.367717520676294 $147 $246 forward 7 unknown #
coedge $-1 $141 $247 $82 $150 reversed $78 $-1 #
edge $-1 $248 -73.367717520676294 $154 73.367717520676294 $149 $249 forward 7 unknown #
coedge $-1 $144 $83 $247 $250 forward $139 $-1 #
coedge $-1 $83 $144 $242 $251 reversed $139 $-1 #
vertex $-1 $251 $252 #
vertex $-1 $84 $253 #
straight-curve $-1 73.367717520676294 16.902609848909663 6.1744772314365797 0 -1 0 I I #
face $-1 $-1 $168 $18 $-1 $254 reversed single #
loop $-1 $-1 $255 $85 #
plane-surface $-1 0 0 22.688504374535874 0 0 1 1 0 0 forward_v I I I I #
coedge $-1 $256 $257 $258 $259 reversed $86 $-1 #
coedge $-1 $260 $88 $90 $166 forward $53 $-1 #
coedge $-1 $88 $260 $256 $261 forward $53 $-1 #
coedge $-1 $258 $91 $88 $163 forward $168 $-1 #
edge $-1 $170 -6.7070015488478418 $262 0.047823330121246954 $162 $263 forward 7 unknown #
coedge $-1 $264 $265 $89 $165 forward $157 $-1 #
edge $-1 $266 21.481256613795658 $169 27.640784890049339 $164 $267 forward 7 unknown #
edge $-1 $170 -146.73543504135267 $266 -137.15290999254077 $90 $268 forward 7 unknown #
coedge $-1 $91 $258 $264 $269 reversed $168 $-1 #
loop $-1 $-1 $258 $156 #
vertex $-1 $269 $270 #
vertex $-1 $92 $271 #
straight-curve $-1 73.367717520676294 -10.036590658211139 111.03672408294801 0 0 -1 I I #
coedge $-1 $172 $172 $-1 $272 reversed $95 $-1 #
edge $-1 $273 0 $273 6.2831853071796004 $96 $274 forward 7 unknown #
vertex $-1 $99 $275 #
ellipse-curve $-1 70.287953382549446 -6.6591782187265949 19.018184302487029 0.7660444514056185 0 0.64278759981090561 0.64278759981090561 0 -0.7660444514056185 1 I I #
face $-1 $-1 $115 $15 $-1 $276 reversed single #
loop $-1 $-1 $192 $100 #
plane-surface $-1 0 45.88958506468424 0 0 -1 0 0 0 -1 forward_v I I I I #
coedge $-1 $277 $190 $193 $278 forward $101 $-1 #
coedge $-1 $196 $103 $104 $184 reversed $62 $-1 #
coedge $-1 $190 $277 $103 $182 reversed $101 $-1 #
edge $-1 $197 -22.688504374535874 $279 22.688504374535874 $181 $280 forward 7 unknown #
coedge $-1 $105 $104 $277 $281 forward $41 $-1 #
edge $-1 $188 -73.367717520676294 $279 73.367717520676294 $180 $282 forward 7 unknown #
coedge $-1 $193 $192 $105 $186 reversed $177 $-1 #
edge $-1 $283 -73.367717520676294 $187 73.367717520676294 $185 $284 forward 7 unknown #
vertex $-1 $107 $285 #
vertex $-1 $199 $286 #
straight-curve $-1 73.367717520676294 0 -22.688504374535874 0 -1 0 I I #
coedge $-1 $179 $181 $108 $191 reversed $101 $-1 #
edge $-1 $194 -45.88958506468424 $197 45.88958506468424 $190 $287 forward 7 unknown #
coedge $-1 $185 $109 $114 $200 forward $177 $-1 #
coedge $-1 $109 $185 $179 $278 reversed $177 $-1 #
vertex $-1 $110 $288 #
straight-curve $-1 0 45.88958506468424 22.688504374535874 -1 0 0 I I #
coedge $-1 $111 $180 $113 $199 reversed $62 $-1 #
vertex $-1 $191 $289 #
straight-curve $-1 0 -45.88958506468424 22.688504374535874 1 0 0 I I #
edge $-1 $116 -22.688504374535874 $188 22.688504374535874 $113 $290 forward 7 unknown #
edge $-1 $117 -22.688504374535874 $187 22.688504374535874 $114 $291 forward 7 unknown #
point $-1 73.367717520676294 -45.88958506468424 22.688504374535874 #
point $-1 73.367717520676294 45.88958506468424 22.688504374535874 #
face $-1 $-1 $134 $16 $-1 $292 reversed single #
loop $-1 $-1 $130 $119 #
plane-surface $-1 0 -45.88958506468424 0 0 1 0 0 0 1 forward_v I I I I #
coedge $-1 $293 $294 $127 $216 forward $120 $-1 #
coedge $-1 $217 $122 $124 $212 reversed $70 $-1 #
edge $-1 $214 -5.9186096118199245 $135 6.0891880248976946 $133 $295 forward 7 unknown #
coedge $-1 $124 $123 $296 $297 reversed $45 $-1 #
coedge $-1 $221 $220 $123 $211 forward $204 $-1 #
edge $-1 $298 -73.367717520676294 $213 73.367717520676294 $210 $299 forward 7 unknown #
edge $-1 $300 -73.367717520676294 $214 73.367717520676294 $207 $301 forward 7 unknown #
vertex $-1 $211 $302 #
vertex $-1 $126 $303 #
straight-curve $-1 73.367717520676294 -16.902609848909666 -5.8333204052810395 0 1 0 I I #
edge $-1 $222 -28.986975215774574 $218 -4.8182444820447579 $206 $304 forward 7 unknown #
coedge $-1 $128 $207 $293 $305 reversed $70 $-1 #
vertex $-1 $216 $306 #
straight-curve $-1 0 -21.720854330954424 6.1744772314365797 -1 0 0 I I #
coedge $-1 $210 $130 $294 $307 forward $204 $-1 #
coedge $-1 $130 $210 $132 $224 reversed $204 $-1 #
vertex $-1 $307 $308 #
straight-curve $-1 0 -45.88958506468424 6.1744772314365797 -1 0 0 I I #
edge $-1 $136 -6.1744772314365797 $213 5.8333204052810395 $132 $309 forward 7 unknown #
point $-1 73.367717520676294 -21.720854330954424 6.1744772314365797 #
point $-1 73.367717520676294 -45.88958506468424 6.1744772314365797 #
face $-1 $-1 $244 $17 $-1 $310 reversed single #
loop $-1 $-1 $240 $138 #
plane-surface $-1 -73.367717520676294 0 0 1 0 0 0 0 -1 forward_v I I I I #
coedge $-1 $247 $141 $142 $234 reversed $78 $-1 #
coedge $-1 $240 $311 $141 $232 forward $228 $-1 #
edge $-1 $312 -5.9186096118199245 $248 6.0891880248976946 $231 $313 forward 7 unknown #
coedge $-1 $143 $142 $311 $314 reversed $49 $-1 #
edge $-1 $237 -73.367717520676294 $312 73.367717520676294 $230 $315 forward 7 unknown #
coedge $-1 $243 $242 $143 $236 forward $244 $-1 #
edge $-1 $238 -73.367717520676294 $316 73.367717520676294 $235 $317 forward 7 unknown #
vertex $-1 $145 $318 #
vertex $-1 $236 $319 #
straight-curve $-1 73.367717520676294 16.902609848909663 -5.8333204052810395 0 1 0 I I #
coedge $-1 $320 $231 $146 $241 forward $228 $-1 #
edge $-1 $248 4.8182444820447543 $245 28.986975215774571 $240 $321 forward 7 unknown #
coedge $-1 $235 $147 $152 $251 forward $244 $-1 #
coedge $-1 $147 $235 $320 $322 reversed $244 $-1 #
loop $-1 $-1 $147 $227 #
vertex $-1 $322 $323 #
straight-curve $-1 0 45.88958506468424 6.1744772314365797 1 0 0 I I #
coedge $-1 $149 $230 $151 $250 reversed $78 $-1 #
vertex $-1 $241 $324 #
straight-curve $-1 0 21.720854330954417 6.1744772314365797 1 0 0 I I #
edge $-1 $154 -6.0891880248976946 $237 5.9186096118199245 $151 $325 forward 7 unknown #
edge $-1 $153 -6.1744772314365797 $238 5.8333204052810395 $152 $326 forward 7 unknown #
point $-1 73.367717520676294 45.889585064684233 6.1744772314365797 #
point $-1 73.367717520676294 21.720854330954417 6.1744772314365797 #
plane-surface $-1 73.367717520676294 0 0 -1 0 0 0 0 1 forward_v I I I I #
coedge $-1 $265 $264 $257 $327 forward $157 $-1 #
coedge $-1 $257 $159 $161 $261 reversed $86 $-1 #
coedge $-1 $159 $256 $255 $327 reversed $86 $-1 #
coedge $-1 $167 $162 $159 $259 forward $168 $-1 #
edge $-1 $262 -95.688859852509836 $328 -88.348219708412131 $258 $329 forward 7 unknown #
coedge $-1 $161 $160 $265 $330 reversed $53 $-1 #
edge $-1 $331 137.15290999254077 $262 146.73543504135267 $256 $332 forward 7 unknown #
vertex $-1 $163 $333 #
straight-curve $-1 73.367717520676294 -3.3295891093632974 15.347864230438176 0 1 0 I I #
coedge $-1 $255 $164 $167 $269 forward $157 $-1 #
coedge $-1 $164 $255 $260 $330 forward $157 $-1 #
vertex $-1 $165 $334 #
straight-curve $-1 45.726932630626955 -10.036590658211139 22.688504374535867 1 0 0 I I #
straight-curve $-1 -20.952000576763822 -10.036590658211139 127.75373006845592 -0.64278759981090561 0 0.7660444514056185 I I #
edge $-1 $169 -10.036590658211139 $328 -3.2817657792420505 $167 $335 forward 7 unknown #
point $-1 73.367717520676294 -10.036590658211139 22.688504374535874 #
point $-1 73.367717520676294 -10.036590658211139 15.347864230438176 #
edge $-1 $336 1 $336 0 $172 $-1 forward 7 unknown #
vertex $-1 $173 $337 #
ellipse-curve $-1 68.844118448794191 -6.6591782187265949 17.806662973811211 0.7660444514056185 0 0.64278759981090561 0.64278759981090561 0 -0.7660444514056185 1 I I #
point $-1 70.93074098236039 -6.6591782187265949 18.252139851081449 #
plane-surface $-1 73.367717520676294 0 0 -1 0 0 0 0 1 forward_v I I I I #
coedge $-1 $181 $179 $183 $281 reversed $101 $-1 #
edge $-1 $194 -22.688504374535874 $283 22.688504374535874 $193 $338 forward 7 unknown #
vertex $-1 $281 $339 #
straight-curve $-1 -73.367717520676294 -45.88958506468424 0 0 0 -1 I I #
edge $-1 $279 -45.88958506468424 $283 45.88958506468424 $277 $340 forward 7 unknown #
straight-curve $-1 0 -45.88958506468424 -22.688504374535874 -1 0 0 I I #
vertex $-1 $186 $341 #
straight-curve $-1 0 45.88958506468424 -22.688504374535874 1 0 0 I I #
point $-1 73.367717520676294 45.88958506468424 -22.688504374535874 #
point $-1 73.367717520676294 -45.88958506468424 -22.688504374535874 #
straight-curve $-1 -73.367717520676294 0 22.688504374535874 0 -1 0 I I #
point $-1 -73.367717520676294 45.88958506468424 22.688504374535874 #
point $-1 -73.367717520676294 -45.88958506468424 22.688504374535874 #
straight-curve $-1 73.367717520676294 -45.88958506468424 0 0 0 -1 I I #
straight-curve $-1 73.367717520676294 45.88958506468424 0 0 0 -1 I I #
plane-surface $-1 73.367717520676294 0 0 -1 0 0 0 0 1 forward_v I I I I #
coedge $-1 $296 $206 $217 $305 forward $120 $-1 #
coedge $-1 $206 $296 $220 $307 reversed $120 $-1 #
straight-curve $-1 73.367717520676294 -21.720854330954424 0.085289206538885054 0 0 1 I I #
coedge $-1 $294 $293 $209 $297 forward $120 $-1 #
edge $-1 $300 4.8182444820447579 $298 28.986975215774574 $296 $342 forward 7 unknown #
vertex $-1 $211 $343 #
straight-curve $-1 0 -45.88958506468424 -5.8333204052810395 1 0 0 I I #
vertex $-1 $297 $344 #
straight-curve $-1 0 -21.720854330954424 -5.8333204052810395 1 0 0 I I #
point $-1 73.367717520676294 -45.88958506468424 -5.8333204052810395 #
point $-1 73.367717520676294 -21.720854330954424 -5.8333204052810395 #
straight-curve $-1 -73.367717520676294 -16.902609848909666 6.1744772314365797 0 1 0 I I #
edge $-1 $218 -6.0891880248976946 $300 5.9186096118199245 $293 $345 forward 7 unknown #
point $-1 -73.367717520676294 -21.720854330954424 6.1744772314365797 #
edge $-1 $222 -6.1744772314365797 $298 5.8333204052810395 $294 $346 forward 7 unknown #
point $-1 -73.367717520676294 -45.88958506468424 6.1744772314365797 #
straight-curve $-1 73.367717520676294 -45.88958506468424 0 0 0 -1 I I #
plane-surface $-1 0 45.88958506468424 0 0 -1 0 0 0 -1 forward_v I I I I #
coedge $-1 $231 $320 $233 $314 forward $228 $-1 #
vertex $-1 $314 $347 #
straight-curve $-1 -73.367717520676294 21.720854330954417 0.085289206538885054 0 0 1 I I #
edge $-1 $316 -28.986975215774571 $312 -4.8182444820447543 $311 $348 forward 7 unknown #
straight-curve $-1 0 21.720854330954417 -5.8333204052810395 -1 0 0 I I #
vertex $-1 $236 $349 #
straight-curve $-1 0 45.88958506468424 -5.8333204052810395 -1 0 0 I I #
point $-1 73.367717520676294 21.720854330954417 -5.8333204052810395 #
point $-1 73.367717520676294 45.889585064684233 -5.8333204052810395 #
coedge $-1 $311 $240 $243 $322 forward $228 $-1 #
straight-curve $-1 -73.367717520676294 16.902609848909663 6.1744772314365797 0 1 0 I I #
edge $-1 $245 -6.1744772314365797 $316 5.8333204052810395 $243 $350 forward 7 unknown #
point $-1 -73.367717520676294 45.889585064684233 6.1744772314365797 #
point $-1 -73.367717520676294 21.720854330954417 6.1744772314365797 #
straight-curve $-1 73.367717520676294 21.720854330954417 0.085289206538885054 0 0 -1 I I #
straight-curve $-1 73.367717520676294 45.88958506468424 0 0 0 -1 I I #
edge $-1 $328 -27.640784890049339 $331 -21.481256613795658 $255 $351 forward 7 unknown #
vertex $-1 $327 $352 #
straight-curve $-1 73.367717520676294 -3.2817657792420505 111.03672408294801 0 0 1 I I #
edge $-1 $331 -0.047823330121246954 $266 6.7070015488478418 $265 $353 forward 7 unknown #
vertex $-1 $330 $354 #
straight-curve $-1 -20.952000576763822 -3.2817657792420505 127.75373006845592 0.64278759981090561 0 -0.7660444514056185 I I #
point $-1 73.367717520676294 -3.2817657792420505 15.347864230438176 #
point $-1 67.208189244422613 -10.036590658211139 22.688504374535881 #
straight-curve $-1 73.367717520676294 0 22.688504374535874 0 1 0 I I #
vertex $-1 $272 $355 #
point $-1 69.486906048605107 -6.6591782187265949 17.040618522405591 #
straight-curve $-1 -73.367717520676294 45.88958506468424 0 0 0 -1 I I #
point $-1 -73.367717520676294 -45.88958506468424 -22.688504374535874 #
straight-curve $-1 -73.367717520676294 0 -22.688504374535874 0 1 0 I I #
point $-1 -73.367717520676294 45.88958506468424 -22.688504374535874 #
straight-curve $-1 -73.367717520676294 -16.902609848909666 -5.8333204052810395 0 -1 0 I I #
point $-1 -73.367717520676294 -45.88958506468424 -5.8333204052810395 #
point $-1 -73.367717520676294 -21.720854330954424 -5.8333204052810395 #
straight-curve $-1 -73.367717520676294 -21.720854330954424 0.085289206538885054 0 0 -1 I I #
straight-curve $-1 -73.367717520676294 -45.88958506468424 0 0 0 -1 I I #
point $-1 -73.367717520676294 21.720854330954417 -5.8333204052810395 #
straight-curve $-1 -73.367717520676294 16.902609848909663 -5.8333204052810395 0 -1 0 I I #
point $-1 -73.367717520676294 45.889585064684233 -5.8333204052810395 #
straight-curve $-1 -73.367717520676294 45.88958506468424 0 0 0 -1 I I #
straight-curve $-1 45.726932630626955 -3.2817657792420505 22.688504374535867 -1 0 0 I I #
point $-1 73.367717520676294 -3.2817657792420505 22.688504374535874 #
straight-curve $-1 67.208189244422613 -3.3295891093632974 22.688504374535867 0 -1 0 I I #
point $-1 67.208189244422613 -3.2817657792420505 22.688504374535881 #
point $-1 68.078073997388586 -6.6591782187265949 17.163875374000302 #
End-of-ACIS-data 