500 0 12 0           
7 Unknown 11 ACIS 5.0 NT 24 Fri Mar 26 18:37:54 1999 
-1 9.9999999999999995e-007 1e-010 
body $-1 $12 $-1 $13 #
body $-1 $14 $-1 $15 #
body $-1 $16 $-1 $17 #
body $-1 $18 $-1 $19 #
body $-1 $20 $-1 $21 #
body $-1 $22 $-1 $23 #
body $-1 $24 $-1 $25 #
body $-1 $26 $-1 $27 #
body $-1 $28 $-1 $29 #
body $-1 $30 $-1 $31 #
body $-1 $32 $-1 $33 #
body $-1 $34 $-1 $35 #
lump $-1 $-1 $36 $0 #
transform $-1 1 0 0 0 1 0 0 0 1 42.021546067690053 16.957509124987297 6.8554044046134592 1 rotate no_reflect no_shear #
lump $-1 $-1 $37 $1 #
transform $-1 1 0 0 0 1 0 0 0 1 42.021546067690053 16.957509124987297 6.8554044046134592 1 rotate no_reflect no_shear #
lump $-1 $-1 $38 $2 #
transform $-1 1 0 0 0 1 0 0 0 1 42.021546067690053 16.957509124987297 6.8554044046134592 1 rotate no_reflect no_shear #
lump $-1 $-1 $39 $3 #
transform $-1 1 0 0 0 1 0 0 0 1 42.021546067690053 16.957509124987297 6.8554044046134592 1 rotate no_reflect no_shear #
lump $-1 $-1 $40 $4 #
transform $-1 1 0 0 0 1 0 0 0 1 42.021546067690053 16.957509124987297 6.8554044046134592 1 rotate no_reflect no_shear #
lump $-1 $-1 $41 $5 #
transform $-1 1 0 0 0 1 0 0 0 1 42.021546067690053 16.957509124987297 6.8554044046134592 1 rotate no_reflect no_shear #
lump $-1 $-1 $42 $6 #
transform $-1 1 0 0 0 1 0 0 0 1 42.021546067690053 16.957509124987297 6.8554044046134592 1 rotate no_reflect no_shear #
lump $-1 $-1 $43 $7 #
transform $-1 1 0 0 0 1 0 0 0 1 42.021546067690053 16.957509124987297 6.8554044046134592 1 rotate no_reflect no_shear #
lump $-1 $-1 $44 $8 #
transform $-1 1 0 0 0 1 0 0 0 1 42.021546067690053 16.957509124987297 6.8554044046134592 1 rotate no_reflect no_shear #
lump $-1 $-1 $45 $9 #
transform $-1 1 0 0 0 1 0 0 0 1 42.021546067690053 16.957509124987297 6.8554044046134592 1 rotate no_reflect no_shear #
lump $-1 $-1 $46 $10 #
transform $-1 1 0 0 0 1 0 0 0 1 42.021546067690053 16.957509124987297 6.8554044046134592 1 rotate no_reflect no_shear #
lump $-1 $-1 $47 $11 #
transform $-1 1 0 0 0 1 0 0 0 1 42.021546067690053 16.957509124987297 6.8554044046134592 1 rotate no_reflect no_shear #
shell $-1 $-1 $-1 $48 $-1 $12 #
shell $-1 $-1 $-1 $49 $-1 $14 #
shell $-1 $-1 $-1 $50 $-1 $16 #
shell $-1 $-1 $-1 $51 $-1 $18 #
shell $-1 $-1 $-1 $52 $-1 $20 #
shell $-1 $-1 $-1 $53 $-1 $22 #
shell $-1 $-1 $-1 $54 $-1 $24 #
shell $-1 $-1 $-1 $55 $-1 $26 #
shell $-1 $-1 $-1 $56 $-1 $28 #
shell $-1 $-1 $-1 $57 $-1 $30 #
shell $-1 $-1 $-1 $58 $-1 $32 #
shell $-1 $-1 $-1 $59 $-1 $34 #
face $-1 $60 $61 $36 $-1 $62 forward single #
face $-1 $63 $64 $37 $-1 $65 reversed single #
face $-1 $66 $67 $38 $-1 $68 reversed single #
face $-1 $69 $70 $39 $-1 $71 forward single #
face $-1 $72 $73 $40 $-1 $74 reversed single #
face $-1 $75 $76 $41 $-1 $77 forward single #
face $-1 $78 $79 $42 $-1 $80 reversed single #
face $-1 $81 $82 $43 $-1 $83 forward single #
face $-1 $84 $85 $44 $-1 $86 forward single #
face $-1 $87 $88 $45 $-1 $89 reversed single #
face $-1 $90 $91 $46 $-1 $92 forward single #
face $-1 $93 $94 $47 $-1 $95 forward single #
face $-1 $96 $97 $36 $-1 $98 reversed single #
loop $-1 $-1 $99 $48 #
plane-surface $-1 0 0 6.8554044046134592 0 0 1 1 0 0 forward_v I I I I #
face $-1 $100 $101 $37 $-1 $102 reversed single #
loop $-1 $-1 $103 $49 #
plane-surface $-1 -38.478404353425148 0 3.8554044046134592 0 0 1 1 0 0 forward_v I I I I #
face $-1 $104 $105 $38 $-1 $106 reversed single #
loop $-1 $-1 $107 $50 #
plane-surface $-1 -26.18129941112462 -66.356799870328501 68.151720259200602 -1 0 0 0 -0.5877852598018023 0.80901698891910034 forward_v I I I I #
face $-1 $108 $109 $39 $-1 $110 forward single #
loop $-1 $111 $112 $51 #
cone-surface $-1 -30.558281025142431 -10.228372651415281 0.58807293244165759 0 0.5877852598018023 -0.80901698891910034 2 0 0 1 I I 0 1 2 forward I I I I #
face $-1 $113 $114 $40 $-1 $115 reversed single #
loop $-1 $-1 $116 $52 #
plane-surface $-1 12.29710494230053 -66.356799870328501 68.151720259200602 -1 0 0 0 -0.5877852598018023 0.80901698891910034 forward_v I I I I #
face $-1 $117 $118 $41 $-1 $119 forward single #
loop $-1 $120 $121 $53 #
cone-surface $-1 7.9201233282827133 -10.228372651415281 0.58807293244165759 0 0.5877852598018023 -0.80901698891910034 2 0 0 1 I I 0 1 2 forward I I I I #
face $-1 $122 $123 $42 $-1 $124 reversed single #
loop $-1 $-1 $125 $54 #
plane-surface $-1 -23.378864469961087 71.528974944023759 75.680047321070219 1 0 0 0 -0.85716730853699208 -0.51503806187062418 forward_v I I I I #
face $-1 $126 $127 $43 $-1 $128 forward single #
loop $-1 $129 $130 $55 #
cone-surface $-1 -20.202541130591989 15.439400943687906 4.8149480417133157 0 -0.85716730853699208 -0.51503806187062418 1 0 0 1 I I 0 1 1 forward I I I I #
face $-1 $131 $132 $44 $-1 $133 forward single #
loop $-1 $134 $135 $56 #
cone-surface $-1 -15.438056121538335 15.439400943687906 4.8149480417133157 0 -0.85716730853699208 -0.51503806187062418 1 0 0 1 I I 0 1 1 forward I I I I #
face $-1 $136 $137 $45 $-1 $138 reversed single #
loop $-1 $-1 $139 $57 #
plane-surface $-1 15.099539883464059 71.528974944023759 75.680047321070219 1 0 0 0 -0.85716730853699208 -0.51503806187062418 forward_v I I I I #
face $-1 $140 $141 $46 $-1 $142 forward single #
loop $-1 $143 $144 $58 #
cone-surface $-1 18.275863222833159 15.439400943687906 4.8149480417133157 0 -0.85716730853699208 -0.51503806187062418 1 0 0 1 I I 0 1 1 forward I I I I #
face $-1 $145 $146 $47 $-1 $147 forward single #
loop $-1 $148 $149 $59 #
cone-surface $-1 23.04034823188681 15.439400943687906 4.8149480417133157 0 -0.85716730853699208 -0.51503806187062418 1 0 0 1 I I 0 1 1 forward I I I I #
face $-1 $150 $151 $36 $-1 $152 reversed single #
loop $-1 $-1 $153 $60 #
plane-surface $-1 0 0 -6.8554044046134592 0 0 1 1 0 0 forward_v I I I I #
coedge $-1 $154 $155 $156 $157 forward $61 $-1 #
face $-1 $158 $159 $37 $-1 $160 reversed single #
loop $-1 $-1 $161 $63 #
plane-surface $-1 -34.935262639160243 0 5.3554044046134592 -1 0 0 0 0 1 forward_v I I I I #
coedge $-1 $162 $163 $161 $164 forward $64 $-1 #
face $-1 $165 $166 $38 $-1 $167 forward single #
loop $-1 $-1 $168 $66 #
plane-surface $-1 -30.558281025142428 -16.957509124987297 0.15943092038486384 0 -0.5877852598018023 0.80901698891910034 1 0 0 forward_v I I I I #
coedge $-1 $169 $170 $171 $172 reversed $67 $-1 #
face $-1 $-1 $173 $39 $-1 $174 forward single #
loop $-1 $175 $176 $69 #
cone-surface $-1 -30.558281025142431 -7.5195592499171049 -3.1402887865349531 0 0.5877852598018023 -0.80901698891910034 1 0 0 1 I I -0.70710678118654735 0.70710678118654768 1 forward I I I I #
loop $-1 $-1 $177 $51 #
coedge $-1 $112 $112 $178 $179 reversed $70 $-1 #
face $-1 $180 $181 $40 $-1 $182 reversed single #
loop $-1 $-1 $183 $72 #
plane-surface $-1 7.9201233282827204 -16.957509124987297 0.15943092038486384 0 -0.5877852598018023 0.80901698891910034 1 0 0 forward_v I I I I #
coedge $-1 $184 $185 $186 $187 reversed $73 $-1 #
face $-1 $-1 $188 $41 $-1 $189 forward single #
loop $-1 $190 $191 $75 #
cone-surface $-1 7.9201233282827133 -7.5195592499171049 -3.1402887865349531 0 0.5877852598018023 -0.80901698891910034 1 0 0 1 I I -0.70710678118654735 0.70710678118654768 1 forward I I I I #
loop $-1 $-1 $192 $53 #
coedge $-1 $121 $121 $193 $194 reversed $76 $-1 #
face $-1 $195 $196 $42 $-1 $197 reversed single #
loop $-1 $-1 $198 $78 #
plane-surface $-1 -17.82029862606516 -0.51001614278645491 32.394656034049753 0 0.85716730853699208 0.51503806187062418 1 0 0 forward_v I I I I #
coedge $-1 $199 $200 $201 $202 reversed $79 $-1 #
face $-1 $-1 $203 $43 $-1 $204 forward single #
loop $-1 $205 $206 $81 #
cone-surface $-1 -20.202541130591989 14.553706734611968 4.2827692893165548 0 -0.85716730853699208 -0.51503806187062418 0.5 0 0 1 I I -0.70710678118654746 0.70710678118654746 0.5 forward I I I I #
loop $-1 $-1 $207 $55 #
coedge $-1 $130 $130 $208 $209 reversed $82 $-1 #
face $-1 $-1 $210 $44 $-1 $211 forward single #
loop $-1 $212 $213 $84 #
cone-surface $-1 -15.438056121538335 14.553706734611968 4.2827692893165548 0 -0.85716730853699208 -0.51503806187062418 0.5 0 0 1 I I -0.70710678118654746 0.70710678118654746 0.5 forward I I I I #
loop $-1 $-1 $214 $56 #
coedge $-1 $135 $135 $215 $216 reversed $85 $-1 #
face $-1 $217 $218 $45 $-1 $219 reversed single #
loop $-1 $-1 $220 $87 #
plane-surface $-1 20.658105727359988 -0.51001614278645491 32.394656034049753 0 0.85716730853699208 0.51503806187062418 1 0 0 forward_v I I I I #
coedge $-1 $221 $222 $223 $224 reversed $88 $-1 #
face $-1 $-1 $225 $46 $-1 $226 forward single #
loop $-1 $227 $228 $90 #
cone-surface $-1 18.275863222833159 14.553706734611968 4.2827692893165548 0 -0.85716730853699208 -0.51503806187062418 0.5 0 0 1 I I -0.70710678118654746 0.70710678118654746 0.5 forward I I I I #
loop $-1 $-1 $229 $58 #
coedge $-1 $144 $144 $230 $231 reversed $91 $-1 #
face $-1 $-1 $232 $47 $-1 $233 forward single #
loop $-1 $234 $235 $93 #
cone-surface $-1 23.04034823188681 14.553706734611968 4.2827692893165548 0 -0.85716730853699208 -0.51503806187062418 0.5 0 0 1 I I -0.70710678118654746 0.70710678118654746 0.5 forward I I I I #
loop $-1 $-1 $236 $59 #
coedge $-1 $149 $149 $237 $238 reversed $94 $-1 #
face $-1 $239 $240 $36 $-1 $241 reversed single #
loop $-1 $-1 $242 $96 #
plane-surface $-1 0 -16.957509124987297 0 0 1 0 0 0 1 forward_v I I I I #
coedge $-1 $243 $244 $245 $246 forward $97 $-1 #
coedge $-1 $247 $99 $248 $249 forward $61 $-1 #
coedge $-1 $99 $247 $250 $251 forward $61 $-1 #
coedge $-1 $252 $253 $99 $157 reversed $254 $-1 #
edge $-1 $255 -16.957509124987297 $256 16.957509124987297 $156 $257 forward 7 unknown #
face $-1 $258 $259 $37 $-1 $260 reversed single #
loop $-1 $-1 $261 $100 #
plane-surface $-1 0 16.957509124987297 0 0 -1 0 0 0 -1 forward_v I I I I #
coedge $-1 $262 $263 $103 $164 reversed $101 $-1 #
coedge $-1 $264 $103 $265 $266 reversed $64 $-1 #
coedge $-1 $103 $264 $267 $268 reversed $64 $-1 #
edge $-1 $269 -16.957509124987297 $270 16.957509124987297 $161 $271 forward 7 unknown #
face $-1 $272 $273 $38 $-1 $274 forward single #
loop $-1 $-1 $275 $104 #
plane-surface $-1 -34.935262639160243 0 5.3554044046134592 -1 0 0 0 0 1 forward_v I I I I #
coedge $-1 $276 $277 $278 $279 reversed $105 $-1 #
coedge $-1 $170 $107 $280 $281 reversed $67 $-1 #
coedge $-1 $107 $169 $276 $282 reversed $67 $-1 #
coedge $-1 $278 $283 $107 $172 forward $273 $-1 #
edge $-1 $284 16.220890810176954 $285 25.437107473928251 $171 $286 forward 7 unknown #
loop $-1 $-1 $178 $108 #
plane-surface $-1 -30.558281025142428 -16.957509124987297 0.15943092038486384 0 -0.5877852598018023 0.80901698891910034 1 0 0 forward_v I I I I #
loop $-1 $-1 $287 $69 #
coedge $-1 $176 $176 $177 $288 reversed $109 $-1 #
coedge $-1 $177 $177 $176 $288 forward $111 $-1 #
coedge $-1 $178 $178 $112 $179 forward $173 $-1 #
edge $-1 $289 -6.7421559490991701e-017 $289 6.2831853071796004 $178 $290 forward 7 unknown #
face $-1 $291 $292 $40 $-1 $293 reversed single #
loop $-1 $-1 $294 $113 #
plane-surface $-1 3.5431417142649106 -66.356799870328501 68.151720259200602 1 0 0 0 0.5877852598018023 -0.80901698891910034 forward_v I I I I #
coedge $-1 $295 $296 $297 $298 reversed $114 $-1 #
coedge $-1 $185 $116 $299 $300 reversed $73 $-1 #
coedge $-1 $116 $184 $295 $301 reversed $73 $-1 #
coedge $-1 $297 $302 $116 $187 forward $303 $-1 #
edge $-1 $304 16.220890810176954 $305 25.437107473928251 $186 $306 forward 7 unknown #
loop $-1 $-1 $193 $117 #
plane-surface $-1 7.9201233282827204 -16.957509124987297 0.15943092038486384 0 -0.5877852598018023 0.80901698891910034 1 0 0 forward_v I I I I #
loop $-1 $-1 $307 $75 #
coedge $-1 $191 $191 $192 $308 reversed $118 $-1 #
coedge $-1 $192 $192 $191 $308 forward $120 $-1 #
coedge $-1 $193 $193 $121 $194 forward $188 $-1 #
edge $-1 $309 -6.7421559490991701e-017 $309 6.2831853071796004 $193 $310 forward 7 unknown #
face $-1 $311 $312 $42 $-1 $313 forward single #
loop $-1 $-1 $314 $122 #
plane-surface $-1 -12.261732782169231 71.528974944023759 75.680047321070219 -1 0 0 0 0.85716730853699208 0.51503806187062418 forward_v I I I I #
coedge $-1 $315 $316 $317 $318 reversed $123 $-1 #
coedge $-1 $200 $125 $319 $320 reversed $79 $-1 #
coedge $-1 $125 $199 $315 $321 reversed $79 $-1 #
coedge $-1 $317 $322 $125 $202 forward $312 $-1 #
edge $-1 $323 18.806978347024582 $324 20.928973600008476 $201 $325 forward 7 unknown #
loop $-1 $-1 $208 $126 #
plane-surface $-1 -17.82029862606516 -0.51001614278645491 32.394656034049753 0 0.85716730853699208 0.51503806187062418 1 0 0 forward_v I I I I #
loop $-1 $-1 $326 $81 #
coedge $-1 $206 $206 $207 $327 reversed $127 $-1 #
coedge $-1 $207 $207 $206 $327 forward $129 $-1 #
coedge $-1 $208 $208 $130 $209 forward $203 $-1 #
edge $-1 $328 -6.1429551296134909e-016 $328 6.2831853071795996 $208 $329 forward 7 unknown #
loop $-1 $-1 $215 $131 #
plane-surface $-1 -17.82029862606516 -0.51001614278645491 32.394656034049753 0 0.85716730853699208 0.51503806187062418 1 0 0 forward_v I I I I #
loop $-1 $-1 $330 $84 #
coedge $-1 $213 $213 $214 $331 reversed $132 $-1 #
coedge $-1 $214 $214 $213 $331 forward $134 $-1 #
coedge $-1 $215 $215 $135 $216 forward $210 $-1 #
edge $-1 $332 -6.1429551296134909e-016 $332 6.2831853071795996 $215 $333 forward 7 unknown #
face $-1 $334 $335 $45 $-1 $336 forward single #
loop $-1 $-1 $337 $136 #
plane-surface $-1 26.216671571255915 71.528974944023759 75.680047321070219 -1 0 0 0 0.85716730853699208 0.51503806187062418 forward_v I I I I #
coedge $-1 $338 $339 $340 $341 reversed $137 $-1 #
coedge $-1 $222 $139 $342 $343 reversed $88 $-1 #
coedge $-1 $139 $221 $338 $344 reversed $88 $-1 #
coedge $-1 $340 $345 $139 $224 forward $335 $-1 #
edge $-1 $346 18.806978347024582 $347 20.928973600008476 $223 $348 forward 7 unknown #
loop $-1 $-1 $230 $140 #
plane-surface $-1 20.658105727359988 -0.51001614278645491 32.394656034049753 0 0.85716730853699208 0.51503806187062418 1 0 0 forward_v I I I I #
loop $-1 $-1 $349 $90 #
coedge $-1 $228 $228 $229 $350 reversed $141 $-1 #
coedge $-1 $229 $229 $228 $350 forward $143 $-1 #
coedge $-1 $230 $230 $144 $231 forward $225 $-1 #
edge $-1 $351 -6.1429551296134909e-016 $351 6.2831853071795996 $230 $352 forward 7 unknown #
loop $-1 $-1 $237 $145 #
plane-surface $-1 20.658105727359988 -0.51001614278645491 32.394656034049753 0 0.85716730853699208 0.51503806187062418 1 0 0 forward_v I I I I #
loop $-1 $-1 $353 $93 #
coedge $-1 $235 $235 $236 $354 reversed $146 $-1 #
coedge $-1 $236 $236 $235 $354 forward $148 $-1 #
coedge $-1 $237 $237 $149 $238 forward $232 $-1 #
edge $-1 $355 -6.1429551296134909e-016 $355 6.2831853071795996 $237 $356 forward 7 unknown #
face $-1 $357 $358 $36 $-1 $359 reversed single #
loop $-1 $-1 $360 $150 #
plane-surface $-1 -42.021546067690053 0 0 1 0 0 0 0 -1 forward_v I I I I #
coedge $-1 $361 $250 $362 $363 forward $151 $-1 #
coedge $-1 $364 $153 $361 $365 forward $97 $-1 #
coedge $-1 $153 $364 $366 $367 forward $97 $-1 #
coedge $-1 $253 $252 $153 $246 reversed $254 $-1 #
edge $-1 $368 -16.957509124987297 $369 16.957509124987297 $245 $370 forward 7 unknown #
coedge $-1 $155 $154 $371 $372 forward $61 $-1 #
coedge $-1 $373 $374 $154 $249 reversed $358 $-1 #
edge $-1 $256 -42.021546067690053 $375 42.021546067690053 $248 $376 forward 7 unknown #
coedge $-1 $242 $377 $155 $251 reversed $151 $-1 #
edge $-1 $378 -42.021546067690053 $255 42.021546067690053 $250 $379 forward 7 unknown #
coedge $-1 $245 $156 $377 $380 forward $254 $-1 #
coedge $-1 $156 $245 $373 $381 reversed $254 $-1 #
loop $-1 $-1 $252 $357 #
vertex $-1 $157 $382 #
vertex $-1 $157 $383 #
straight-curve $-1 42.021546067690053 0 6.8554044046134592 0 1 0 I I #
face $-1 $384 $385 $37 $-1 $386 forward single #
loop $-1 $-1 $387 $158 #
plane-surface $-1 -42.021546067690053 0 0 1 0 0 0 0 -1 forward_v I I I I #
coedge $-1 $267 $388 $262 $389 forward $159 $-1 #
coedge $-1 $390 $161 $261 $389 reversed $101 $-1 #
coedge $-1 $161 $390 $391 $392 reversed $101 $-1 #
coedge $-1 $163 $162 $387 $393 reversed $64 $-1 #
coedge $-1 $391 $394 $162 $266 forward $395 $-1 #
edge $-1 $396 -22.782343890977479 $270 -15.696060462447669 $265 $397 forward 7 unknown #
coedge $-1 $398 $261 $163 $268 forward $159 $-1 #
edge $-1 $269 15.696060462447669 $399 22.782343890977479 $267 $400 forward 7 unknown #
vertex $-1 $268 $401 #
vertex $-1 $266 $402 #
straight-curve $-1 -34.935262639160243 0 3.8554044046134592 0 -1 0 I I #
face $-1 $-1 $403 $38 $-1 $404 reversed single #
loop $-1 $-1 $278 $165 #
plane-surface $-1 0 0 6.8554044046134592 0 0 1 1 0 0 forward_v I I I I #
coedge $-1 $405 $406 $277 $407 reversed $166 $-1 #
coedge $-1 $408 $168 $170 $282 forward $105 $-1 #
coedge $-1 $168 $408 $275 $407 forward $105 $-1 #
coedge $-1 $409 $171 $168 $279 forward $273 $-1 #
edge $-1 $285 10.902158898553406 $410 19.656122126589029 $278 $411 forward 7 unknown #
coedge $-1 $412 $413 $169 $281 forward $403 $-1 #
edge $-1 $414 -33.916429209215437 $284 -27.220455724986842 $280 $415 forward 7 unknown #
edge $-1 $285 -11.391870368587394 $414 0 $170 $416 forward 7 unknown #
coedge $-1 $171 $409 $412 $417 forward $273 $-1 #
vertex $-1 $281 $418 #
vertex $-1 $172 $419 #
straight-curve $-1 -26.18129941112462 -33.178399935164251 6.8554044046134592 0 1 0 I I #
coedge $-1 $287 $287 $-1 $420 reversed $175 $-1 #
edge $-1 $421 0 $421 6.2831853071796004 $176 $422 forward 7 unknown #
vertex $-1 $179 $423 #
ellipse-curve $-1 -30.558281025142431 -12.34940079311165 3.5074176624991602 0 -0.5877852598018023 0.80901698891910034 2 0 0 1 I I #
face $-1 $-1 $303 $40 $-1 $424 forward single #
loop $-1 $-1 $425 $180 #
plane-surface $-1 0 -16.957509124987297 0 0 1 0 0 0 1 forward_v I I I I #
coedge $-1 $426 $427 $428 $429 reversed $181 $-1 #
coedge $-1 $430 $183 $185 $301 forward $114 $-1 #
coedge $-1 $183 $430 $426 $431 forward $114 $-1 #
coedge $-1 $428 $186 $183 $298 forward $303 $-1 #
edge $-1 $305 -8.3370432781591699 $432 0.41691994987644954 $297 $433 forward 7 unknown #
coedge $-1 $434 $435 $184 $300 forward $292 $-1 #
edge $-1 $436 -33.916429209215437 $304 -27.220455724986842 $299 $437 forward 7 unknown #
edge $-1 $305 -11.391870368587394 $436 0 $185 $438 forward 7 unknown #
coedge $-1 $186 $428 $434 $439 forward $303 $-1 #
loop $-1 $-1 $428 $291 #
vertex $-1 $300 $440 #
vertex $-1 $187 $441 #
straight-curve $-1 12.29710494230053 -33.178399935164251 6.8554044046134592 0 1 0 I I #
coedge $-1 $307 $307 $-1 $442 reversed $190 $-1 #
edge $-1 $443 0 $443 6.2831853071796004 $191 $444 forward 7 unknown #
vertex $-1 $194 $445 #
ellipse-curve $-1 7.9201233282827133 -12.34940079311165 3.5074176624991602 0 -0.5877852598018023 0.80901698891910034 2 0 0 1 I I #
face $-1 $-1 $446 $42 $-1 $447 reversed single #
loop $-1 $-1 $201 $195 #
plane-surface $-1 0 0 6.8554044046134592 0 0 1 1 0 0 forward_v I I I I #
coedge $-1 $448 $449 $450 $451 reversed $196 $-1 #
coedge $-1 $452 $198 $200 $321 forward $123 $-1 #
coedge $-1 $198 $452 $448 $453 forward $123 $-1 #
coedge $-1 $450 $201 $198 $318 forward $312 $-1 #
edge $-1 $324 -14.468715156928507 $454 -3.3515834691366511 $317 $455 forward 7 unknown #
coedge $-1 $456 $457 $199 $320 forward $446 $-1 #
edge $-1 $458 -34.516212538799024 $323 -30.98461925592165 $319 $459 forward 7 unknown #
edge $-1 $324 29.794943618447764 $458 33.91501824997458 $200 $460 forward 7 unknown #
coedge $-1 $201 $450 $456 $461 forward $312 $-1 #
vertex $-1 $320 $462 #
vertex $-1 $202 $463 #
straight-curve $-1 -23.378864469961087 35.764487472011879 6.8554044046134592 0 -1 0 I I #
coedge $-1 $326 $326 $-1 $464 reversed $205 $-1 #
edge $-1 $465 0 $465 6.2831853071796004 $206 $466 forward 7 unknown #
vertex $-1 $209 $467 #
ellipse-curve $-1 -20.202541130591989 15.896511498495352 5.0896077631747678 0 0.85716730853699208 0.51503806187062418 1 0 0 1 I I #
coedge $-1 $330 $330 $-1 $468 reversed $212 $-1 #
edge $-1 $469 0 $469 6.2831853071796004 $213 $470 forward 7 unknown #
vertex $-1 $216 $471 #
ellipse-curve $-1 -15.438056121538335 15.896511498495352 5.0896077631747678 0 0.85716730853699208 0.51503806187062418 1 0 0 1 I I #
face $-1 $-1 $472 $45 $-1 $473 reversed single #
loop $-1 $-1 $223 $217 #
plane-surface $-1 0 0 6.8554044046134592 0 0 1 1 0 0 forward_v I I I I #
coedge $-1 $474 $475 $476 $477 reversed $218 $-1 #
coedge $-1 $478 $220 $222 $344 forward $137 $-1 #
coedge $-1 $220 $478 $474 $479 forward $137 $-1 #
coedge $-1 $476 $223 $220 $341 forward $335 $-1 #
edge $-1 $347 4.7704870197840652 $480 15.887618707575921 $340 $481 forward 7 unknown #
coedge $-1 $482 $483 $221 $343 forward $472 $-1 #
edge $-1 $484 -34.516212538799024 $346 -30.98461925592165 $342 $485 forward 7 unknown #
edge $-1 $347 29.794943618447764 $484 33.91501824997458 $222 $486 forward 7 unknown #
coedge $-1 $223 $476 $482 $487 forward $335 $-1 #
vertex $-1 $224 $488 #
vertex $-1 $224 $489 #
straight-curve $-1 15.099539883464059 35.764487472011879 6.8554044046134592 0 -1 0 I I #
coedge $-1 $349 $349 $-1 $490 reversed $227 $-1 #
edge $-1 $491 0 $491 6.2831853071796004 $228 $492 forward 7 unknown #
vertex $-1 $231 $493 #
ellipse-curve $-1 18.275863222833159 15.896511498495352 5.0896077631747678 0 0.85716730853699208 0.51503806187062418 1 0 0 1 I I #
coedge $-1 $353 $353 $-1 $494 reversed $234 $-1 #
edge $-1 $495 0 $495 6.2831853071796004 $235 $496 forward 7 unknown #
vertex $-1 $238 $497 #
ellipse-curve $-1 23.04034823188681 15.896511498495352 5.0896077631747678 0 0.85716730853699208 0.51503806187062418 1 0 0 1 I I #
face $-1 $-1 $254 $36 $-1 $498 reversed single #
loop $-1 $-1 $373 $239 #
plane-surface $-1 0 16.957509124987297 0 0 -1 0 0 0 -1 forward_v I I I I #
coedge $-1 $499 $371 $374 $500 forward $240 $-1 #
coedge $-1 $377 $242 $243 $365 reversed $151 $-1 #
coedge $-1 $371 $499 $242 $363 reversed $240 $-1 #
edge $-1 $378 -6.8554044046134592 $501 6.8554044046134592 $362 $502 forward 7 unknown #
coedge $-1 $244 $243 $499 $503 forward $97 $-1 #
edge $-1 $369 -42.021546067690053 $501 42.021546067690053 $361 $504 forward 7 unknown #
coedge $-1 $374 $373 $244 $367 reversed $358 $-1 #
edge $-1 $505 -42.021546067690053 $368 42.021546067690053 $366 $506 forward 7 unknown #
vertex $-1 $246 $507 #
vertex $-1 $380 $508 #
straight-curve $-1 42.021546067690053 0 -6.8554044046134592 0 -1 0 I I #
coedge $-1 $360 $362 $247 $372 reversed $240 $-1 #
edge $-1 $375 -16.957509124987297 $378 16.957509124987297 $371 $509 forward 7 unknown #
coedge $-1 $366 $248 $253 $381 forward $358 $-1 #
coedge $-1 $248 $366 $360 $500 reversed $358 $-1 #
vertex $-1 $249 $510 #
straight-curve $-1 0 16.957509124987297 6.8554044046134592 -1 0 0 I I #
coedge $-1 $250 $361 $252 $380 reversed $151 $-1 #
vertex $-1 $372 $511 #
straight-curve $-1 0 -16.957509124987297 6.8554044046134592 1 0 0 I I #
edge $-1 $255 -6.8554044046134592 $369 6.8554044046134592 $252 $512 forward 7 unknown #
edge $-1 $256 -6.8554044046134592 $368 6.8554044046134592 $253 $513 forward 7 unknown #
point $-1 42.021546067690053 -16.957509124987297 6.8554044046134592 #
point $-1 42.021546067690053 16.957509124987297 6.8554044046134592 #
face $-1 $-1 $395 $37 $-1 $514 reversed single #
loop $-1 $-1 $515 $258 #
plane-surface $-1 0 0 6.8554044046134592 0 0 1 1 0 0 forward_v I I I I #
coedge $-1 $516 $517 $264 $393 forward $259 $-1 #
coedge $-1 $261 $398 $518 $519 reversed $159 $-1 #
edge $-1 $520 -4.1777022023067296 $269 -1.1777022023067296 $261 $521 forward 7 unknown #
coedge $-1 $263 $262 $515 $522 reversed $101 $-1 #
coedge $-1 $523 $265 $263 $392 forward $395 $-1 #
edge $-1 $270 1.1777022023067296 $524 4.1777022023067296 $391 $525 forward 7 unknown #
edge $-1 $399 -16.957509124987297 $396 16.957509124987297 $387 $526 forward 7 unknown #
coedge $-1 $265 $523 $516 $527 forward $395 $-1 #
loop $-1 $-1 $391 $384 #
vertex $-1 $393 $528 #
straight-curve $-1 -19.239202176712574 -16.957509124987297 3.8554044046134592 1 0 0 I I #
coedge $-1 $388 $267 $517 $529 reversed $159 $-1 #
vertex $-1 $393 $530 #
straight-curve $-1 -19.239202176712574 16.957509124987297 3.8554044046134592 -1 0 0 I I #
point $-1 -34.935262639160243 16.957509124987297 3.8554044046134592 #
point $-1 -34.935262639160243 -16.957509124987297 3.8554044046134592 #
loop $-1 $-1 $280 $272 #
plane-surface $-1 0 -16.957509124987297 0 0 1 0 0 0 1 forward_v I I I I #
coedge $-1 $406 $275 $531 $532 reversed $166 $-1 #
coedge $-1 $275 $405 $409 $533 reversed $166 $-1 #
edge $-1 $534 0 $410 11.391870368587394 $275 $535 forward 7 unknown #
coedge $-1 $277 $276 $413 $536 reversed $105 $-1 #
coedge $-1 $283 $278 $406 $533 forward $273 $-1 #
vertex $-1 $533 $537 #
straight-curve $-1 -15.279140512571214 -7.7412924612360001 6.8554044046134592 -1 0 0 I I #
coedge $-1 $531 $280 $283 $417 reversed $403 $-1 #
coedge $-1 $280 $531 $408 $536 forward $403 $-1 #
vertex $-1 $281 $538 #
straight-curve $-1 -26.18129941112462 -16.957509124987297 34.075860129600301 0 0 1 I I #
straight-curve $-1 -26.18129941112462 -16.957509124987297 0.15943092038486384 0 -0.80901698891910034 -0.5877852598018023 I I #
edge $-1 $539 -34.935262639160243 $284 -26.18129941112462 $412 $540 forward 7 unknown #
point $-1 -26.18129941112462 -16.957509124987297 6.8554044046134592 #
point $-1 -26.18129941112462 -7.7412924612360001 6.8554044046134601 #
edge $-1 $541 1 $541 0 $287 $-1 forward 7 unknown #
vertex $-1 $288 $542 #
ellipse-curve $-1 -30.558281025142431 -8.1073445097189065 -2.3312717976158526 0 -0.5877852598018023 0.80901698891910034 2 0 0 1 I I #
point $-1 -28.558281025142431 -12.349400793111656 3.5074176624991673 #
plane-surface $-1 0 0 6.8554044046134592 0 0 1 1 0 0 forward_v I I I I #
coedge $-1 $435 $434 $427 $543 forward $292 $-1 #
coedge $-1 $427 $294 $296 $431 reversed $181 $-1 #
coedge $-1 $294 $426 $425 $543 reversed $181 $-1 #
coedge $-1 $302 $297 $294 $429 forward $303 $-1 #
edge $-1 $432 -25.437107473928251 $544 -16.220890810176954 $428 $545 forward 7 unknown #
coedge $-1 $296 $295 $435 $546 reversed $114 $-1 #
edge $-1 $547 0 $432 11.391870368587394 $426 $548 forward 7 unknown #
vertex $-1 $298 $549 #
straight-curve $-1 3.9600616641413602 -7.7412924612360001 6.8554044046134592 -1 0 0 I I #
coedge $-1 $425 $299 $302 $439 reversed $292 $-1 #
coedge $-1 $299 $425 $430 $546 forward $292 $-1 #
vertex $-1 $300 $550 #
straight-curve $-1 12.29710494230053 -16.957509124987297 34.075860129600301 0 0 1 I I #
straight-curve $-1 12.29710494230053 -16.957509124987297 0.15943092038486384 0 -0.80901698891910034 -0.5877852598018023 I I #
edge $-1 $544 3.5431417142649106 $304 12.29710494230053 $434 $551 forward 7 unknown #
point $-1 12.29710494230053 -16.957509124987297 6.8554044046134592 #
point $-1 12.29710494230053 -7.7412924612360001 6.8554044046134601 #
edge $-1 $552 1 $552 0 $307 $-1 forward 7 unknown #
vertex $-1 $308 $553 #
ellipse-curve $-1 7.9201233282827133 -8.1073445097189065 -2.3312717976158526 0 -0.5877852598018023 0.80901698891910034 2 0 0 1 I I #
point $-1 9.9201233282827133 -12.349400793111656 3.5074176624991673 #
loop $-1 $-1 $319 $311 #
plane-surface $-1 0 16.957509124987297 0 0 -1 0 0 0 -1 forward_v I I I I #
coedge $-1 $449 $314 $316 $453 reversed $196 $-1 #
coedge $-1 $314 $448 $554 $555 reversed $196 $-1 #
coedge $-1 $322 $317 $314 $451 forward $312 $-1 #
edge $-1 $454 -20.928973600008476 $556 -18.806978347024582 $450 $557 forward 7 unknown #
coedge $-1 $316 $315 $457 $558 reversed $123 $-1 #
edge $-1 $559 -33.91501824997458 $454 -29.794943618447764 $448 $560 forward 7 unknown #
vertex $-1 $318 $561 #
straight-curve $-1 -8.91014931303258 14.8355138720034 6.8554044046134592 1 0 0 I I #
coedge $-1 $554 $319 $322 $461 reversed $446 $-1 #
coedge $-1 $319 $554 $452 $558 forward $446 $-1 #
vertex $-1 $320 $562 #
straight-curve $-1 -23.378864469961087 16.957509124987297 37.84002366053511 0 0 1 I I #
straight-curve $-1 -23.378864469961087 -0.51001614278645491 32.394656034049753 0 0.51503806187062418 -0.85716730853699208 I I #
edge $-1 $556 12.261732782169231 $323 23.378864469961087 $456 $563 forward 7 unknown #
point $-1 -23.378864469961087 16.957509124987297 6.8554044046134592 #
point $-1 -23.378864469961087 14.835513872003402 6.8554044046134592 #
edge $-1 $564 1 $564 0 $326 $-1 forward 7 unknown #
vertex $-1 $327 $565 #
ellipse-curve $-1 -20.202541130591989 14.982290388880465 4.5402883202518671 0 0.85716730853699208 0.51503806187062418 1 0 0 1 I I #
point $-1 -19.202541130591989 15.896511498495345 5.0896077631747643 #
edge $-1 $566 1 $566 0 $330 $-1 forward 7 unknown #
vertex $-1 $331 $567 #
ellipse-curve $-1 -15.438056121538335 14.982290388880465 4.5402883202518671 0 0.85716730853699208 0.51503806187062418 1 0 0 1 I I #
point $-1 -14.438056121538335 15.896511498495345 5.0896077631747643 #
loop $-1 $-1 $342 $334 #
plane-surface $-1 0 16.957509124987297 0 0 -1 0 0 0 -1 forward_v I I I I #
coedge $-1 $475 $337 $339 $479 reversed $218 $-1 #
coedge $-1 $337 $474 $568 $569 reversed $218 $-1 #
coedge $-1 $345 $340 $337 $477 forward $335 $-1 #
edge $-1 $480 -20.928973600008476 $570 -18.806978347024582 $476 $571 forward 7 unknown #
coedge $-1 $339 $338 $483 $572 reversed $137 $-1 #
edge $-1 $573 -33.91501824997458 $480 -29.794943618447764 $474 $574 forward 7 unknown #
vertex $-1 $341 $575 #
straight-curve $-1 10.329052863679994 14.8355138720034 6.8554044046134592 1 0 0 I I #
coedge $-1 $568 $342 $345 $487 reversed $472 $-1 #
coedge $-1 $342 $568 $478 $572 forward $472 $-1 #
vertex $-1 $343 $576 #
straight-curve $-1 15.099539883464059 16.957509124987297 37.84002366053511 0 0 1 I I #
straight-curve $-1 15.099539883464059 -0.51001614278645491 32.394656034049753 0 0.51503806187062418 -0.85716730853699208 I I #
edge $-1 $570 -26.216671571255915 $346 -15.099539883464059 $482 $577 forward 7 unknown #
point $-1 15.099539883464059 16.957509124987297 6.8554044046134592 #
point $-1 15.099539883464059 14.835513872003402 6.8554044046134592 #
edge $-1 $578 1 $578 0 $349 $-1 forward 7 unknown #
vertex $-1 $350 $579 #
ellipse-curve $-1 18.275863222833159 14.982290388880465 4.5402883202518671 0 0.85716730853699208 0.51503806187062418 1 0 0 1 I I #
point $-1 19.275863222833159 15.896511498495345 5.0896077631747643 #
edge $-1 $580 1 $580 0 $353 $-1 forward 7 unknown #
vertex $-1 $354 $581 #
ellipse-curve $-1 23.04034823188681 14.982290388880465 4.5402883202518671 0 0.85716730853699208 0.51503806187062418 1 0 0 1 I I #
point $-1 24.04034823188681 15.896511498495345 5.0896077631747643 #
plane-surface $-1 42.021546067690053 0 0 -1 0 0 0 0 1 forward_v I I I I #
coedge $-1 $362 $360 $364 $503 reversed $240 $-1 #
edge $-1 $375 -6.8554044046134592 $505 6.8554044046134592 $374 $582 forward 7 unknown #
vertex $-1 $503 $583 #
straight-curve $-1 -42.021546067690053 -16.957509124987297 0 0 0 -1 I I #
edge $-1 $501 -16.957509124987297 $505 16.957509124987297 $499 $584 forward 7 unknown #
straight-curve $-1 0 -16.957509124987297 -6.8554044046134592 -1 0 0 I I #
vertex $-1 $367 $585 #
straight-curve $-1 0 16.957509124987297 -6.8554044046134592 1 0 0 I I #
point $-1 42.021546067690053 16.957509124987297 -6.8554044046134592 #
point $-1 42.021546067690053 -16.957509124987297 -6.8554044046134592 #
straight-curve $-1 -42.021546067690053 0 6.8554044046134592 0 -1 0 I I #
point $-1 -42.021546067690053 16.957509124987297 6.8554044046134592 #
point $-1 -42.021546067690053 -16.957509124987297 6.8554044046134592 #
straight-curve $-1 42.021546067690053 -16.957509124987297 0 0 0 -1 I I #
straight-curve $-1 42.021546067690053 16.957509124987297 0 0 0 -1 I I #
plane-surface $-1 0 -16.957509124987297 0 0 1 0 0 0 1 forward_v I I I I #
coedge $-1 $518 $586 $390 $522 forward $385 $-1 #
coedge $-1 $587 $387 $394 $527 reversed $259 $-1 #
coedge $-1 $387 $587 $398 $529 forward $259 $-1 #
coedge $-1 $588 $515 $388 $519 forward $385 $-1 #
edge $-1 $520 34.935262639160243 $589 42.021546067690053 $388 $590 forward 7 unknown #
vertex $-1 $519 $591 #
straight-curve $-1 -34.935262639160243 16.957509124987297 2.6777022023067296 0 0 -1 I I #
edge $-1 $524 -16.957509124987297 $520 16.957509124987297 $515 $592 forward 7 unknown #
coedge $-1 $394 $391 $586 $593 reversed $395 $-1 #
vertex $-1 $392 $594 #
straight-curve $-1 -34.935262639160243 -16.957509124987297 2.6777022023067296 0 0 1 I I #
straight-curve $-1 -42.021546067690053 0 3.8554044046134592 0 -1 0 I I #
edge $-1 $595 -6.8554044046134592 $396 -3.8554044046134592 $516 $596 forward 7 unknown #
point $-1 -42.021546067690053 -16.957509124987297 3.8554044046134592 #
edge $-1 $589 -6.8554044046134592 $399 -3.8554044046134592 $398 $597 forward 7 unknown #
point $-1 -42.021546067690053 16.957509124987297 3.8554044046134592 #
coedge $-1 $413 $412 $405 $532 forward $403 $-1 #
edge $-1 $539 27.220455724986842 $534 33.916429209215437 $531 $598 forward 7 unknown #
edge $-1 $410 7.741292461236001 $539 16.957509124987297 $409 $599 forward 7 unknown #
vertex $-1 $532 $600 #
straight-curve $-1 -34.935262639160236 -16.957509124987297 0.15943092038486384 0 0.80901698891910034 0.5877852598018023 I I #
edge $-1 $534 -19.656122126589022 $414 -10.902158898553406 $413 $601 forward 7 unknown #
point $-1 -34.935262639160243 -7.741292461236001 6.8554044046134592 #
point $-1 -26.18129941112462 -16.957509124987297 0.15943092038486384 #
vertex $-1 $417 $602 #
straight-curve $-1 0 -16.957509124987297 6.8554044046134592 1 0 0 I I #
vertex $-1 $420 $603 #
point $-1 -28.558281025142431 -8.1073445097189065 -2.3312717976158526 #
edge $-1 $544 27.220455724986842 $547 33.916429209215437 $425 $604 forward 7 unknown #
vertex $-1 $439 $605 #
straight-curve $-1 3.5431417142649106 -33.178399935164251 6.8554044046134592 0 -1 0 I I #
edge $-1 $547 -0.41691994987644954 $436 8.3370432781591699 $435 $606 forward 7 unknown #
vertex $-1 $546 $607 #
straight-curve $-1 3.5431417142649106 -16.957509124987297 0.15943092038486384 0 0.80901698891910034 0.5877852598018023 I I #
point $-1 3.5431417142649106 -7.7412924612360001 6.8554044046134601 #
point $-1 12.29710494230053 -16.957509124987297 0.15943092038486384 #
straight-curve $-1 0 -16.957509124987297 6.8554044046134592 1 0 0 I I #
vertex $-1 $442 $608 #
point $-1 9.9201233282827133 -8.1073445097189065 -2.3312717976158526 #
coedge $-1 $457 $456 $449 $555 forward $446 $-1 #
edge $-1 $556 30.98461925592165 $559 34.516212538799024 $554 $609 forward 7 unknown #
vertex $-1 $461 $610 #
straight-curve $-1 -12.261732782169231 35.764487472011879 6.8554044046134592 0 1 0 I I #
edge $-1 $559 3.3515834691366511 $458 14.468715156928507 $457 $611 forward 7 unknown #
vertex $-1 $558 $612 #
straight-curve $-1 -12.261732782169231 -0.51001614278645491 32.394656034049753 0 -0.51503806187062418 0.85716730853699208 I I #
point $-1 -12.261732782169231 14.835513872003402 6.8554044046134592 #
point $-1 -23.378864469961087 16.957509124987297 3.3238111217360817 #
straight-curve $-1 0 16.957509124987297 6.8554044046134592 -1 0 0 I I #
vertex $-1 $464 $613 #
point $-1 -19.202541130591989 14.982290388880465 4.5402883202518671 #
vertex $-1 $468 $614 #
point $-1 -14.438056121538335 14.982290388880465 4.5402883202518671 #
coedge $-1 $483 $482 $475 $569 forward $472 $-1 #
edge $-1 $570 30.98461925592165 $573 34.516212538799024 $568 $615 forward 7 unknown #
vertex $-1 $487 $616 #
straight-curve $-1 26.216671571255915 35.764487472011879 6.8554044046134592 0 1 0 I I #
edge $-1 $573 -15.887618707575921 $484 -4.7704870197840652 $483 $617 forward 7 unknown #
vertex $-1 $572 $618 #
straight-curve $-1 26.216671571255915 -0.51001614278645491 32.394656034049753 0 -0.51503806187062418 0.85716730853699208 I I #
point $-1 26.216671571255915 14.835513872003402 6.8554044046134592 #
point $-1 15.099539883464059 16.957509124987297 3.3238111217360817 #
straight-curve $-1 0 16.957509124987297 6.8554044046134592 -1 0 0 I I #
vertex $-1 $490 $619 #
point $-1 19.275863222833159 14.982290388880465 4.5402883202518671 #
vertex $-1 $494 $620 #
point $-1 24.04034823188681 14.982290388880465 4.5402883202518671 #
straight-curve $-1 -42.021546067690053 16.957509124987297 0 0 0 -1 I I #
point $-1 -42.021546067690053 -16.957509124987297 -6.8554044046134592 #
straight-curve $-1 -42.021546067690053 0 -6.8554044046134592 0 1 0 I I #
point $-1 -42.021546067690053 16.957509124987297 -6.8554044046134592 #
coedge $-1 $515 $588 $523 $593 forward $385 $-1 #
coedge $-1 $517 $516 $588 $621 reversed $259 $-1 #
coedge $-1 $586 $518 $587 $621 forward $385 $-1 #
vertex $-1 $519 $622 #
straight-curve $-1 0 16.957509124987297 6.8554044046134592 -1 0 0 I I #
point $-1 -34.935262639160243 16.957509124987297 6.8554044046134592 #
straight-curve $-1 -34.935262639160243 0 6.8554044046134592 0 1 0 I I #
edge $-1 $595 -42.021546067690053 $524 -34.935262639160243 $523 $623 forward 7 unknown #
point $-1 -34.935262639160243 -16.957509124987297 6.8554044046134592 #
vertex $-1 $621 $624 #
straight-curve $-1 -42.021546067690053 -16.957509124987297 0 0 0 -1 I I #
straight-curve $-1 -42.021546067690053 16.957509124987297 0 0 0 -1 I I #
straight-curve $-1 -34.935262639160236 -16.957509124987297 34.075860129600301 0 0 -1 I I #
straight-curve $-1 -34.935262639160243 0 6.8554044046134592 0 -1 0 I I #
point $-1 -34.935262639160236 -16.957509124987297 0.15943092038486384 #
straight-curve $-1 -15.279140512571214 -16.957509124987297 0.15943092038486478 1 0 0 I I #
point $-1 -34.935262639160243 -16.957509124987297 6.8554044046134592 #
point $-1 -30.558281025142431 -6.9317739901153024 -3.9493057754540537 #
straight-curve $-1 3.5431417142649106 -16.957509124987297 34.075860129600301 0 0 -1 I I #
point $-1 3.5431417142649106 -16.957509124987297 6.8554044046134592 #
straight-curve $-1 3.9600616641413602 -16.957509124987297 0.15943092038486478 1 0 0 I I #
point $-1 3.5431417142649106 -16.957509124987297 0.15943092038486384 #
point $-1 7.9201233282827133 -6.9317739901153024 -3.9493057754540537 #
straight-curve $-1 -12.261732782169231 16.957509124987297 37.84002366053511 0 0 -1 I I #
point $-1 -12.261732782169231 16.957509124987297 6.8554044046134592 #
straight-curve $-1 -8.91014931303258 16.957509124987297 3.3238111217360835 -1 0 0 I I #
point $-1 -12.261732782169231 16.957509124987297 3.3238111217360817 #
point $-1 -20.202541130591989 14.125123080343471 4.0252502583812424 #
point $-1 -15.438056121538335 14.125123080343471 4.0252502583812424 #
straight-curve $-1 26.216671571255915 16.957509124987297 37.84002366053511 0 0 -1 I I #
point $-1 26.216671571255915 16.957509124987297 6.8554044046134592 #
straight-curve $-1 10.329052863679994 16.957509124987297 3.3238111217360835 -1 0 0 I I #
point $-1 26.216671571255915 16.957509124987297 3.3238111217360817 #
point $-1 18.275863222833159 14.125123080343471 4.0252502583812424 #
point $-1 23.04034823188681 14.125123080343471 4.0252502583812424 #
edge $-1 $589 -16.957509124987297 $595 16.957509124987297 $587 $625 forward 7 unknown #
point $-1 -42.021546067690053 16.957509124987297 6.8554044046134592 #
straight-curve $-1 0 -16.957509124987297 6.8554044046134592 1 0 0 I I #
point $-1 -42.021546067690053 -16.957509124987297 6.8554044046134592 #
straight-curve $-1 -42.021546067690053 0 6.8554044046134592 0 -1 0 I I #
End-of-ACIS-data 