500 0 3 0           
7 Unknown 11 ACIS 5.0 NT 24 Fri Mar 26 19:43:50 1999 
-1 9.9999999999999995e-007 1e-010 
body $-1 $3 $-1 $4 #
body $-1 $5 $-1 $6 #
body $-1 $7 $-1 $8 #
lump $-1 $-1 $9 $0 #
transform $-1 1 0 0 0 1 0 0 0 1 78.718222602008126 43.341508151718159 9.6635148245131539 1 rotate no_reflect no_shear #
lump $-1 $-1 $10 $1 #
transform $-1 1 0 0 0 1 0 0 0 1 78.718222602008126 43.341508151718159 9.6635148245131539 1 rotate no_reflect no_shear #
lump $-1 $-1 $11 $2 #
transform $-1 1 0 0 0 1 0 0 0 1 78.718222602008126 43.341508151718159 9.6635148245131539 1 rotate no_reflect no_shear #
shell $-1 $-1 $-1 $12 $-1 $3 #
shell $-1 $-1 $-1 $13 $-1 $5 #
shell $-1 $-1 $-1 $14 $-1 $7 #
face $-1 $15 $16 $9 $-1 $17 forward single #
face $-1 $18 $19 $10 $-1 $20 forward single #
face $-1 $21 $22 $11 $-1 $23 reversed single #
face $-1 $24 $25 $9 $-1 $26 reversed single #
loop $-1 $-1 $27 $12 #
plane-surface $-1 0 0 9.6635148245131539 0 0 1 1 0 0 forward_v I I I I #
face $-1 $28 $29 $10 $-1 $30 forward single #
loop $-1 $-1 $31 $13 #
plane-surface $-1 -49.090842858317046 -154.6658874530292 111.36504882608043 -1 0 0 0 -0.70710678939079041 0.70710677298230451 forward_v I I I I #
face $-1 $32 $33 $11 $-1 $34 reversed single #
loop $-1 $35 $36 $14 #
cone-surface $-1 -63.904532730162586 -35.532581660025642 1.8545882907285227 0 0.70710678939079041 -0.70710677298230451 3 0 0 1 I I 0 1 3 forward I I I I #
face $-1 $37 $38 $9 $-1 $39 reversed single #
loop $-1 $-1 $40 $15 #
plane-surface $-1 0 0 -9.6635148245131539 0 0 1 1 0 0 forward_v I I I I #
coedge $-1 $41 $42 $43 $44 forward $16 $-1 #
face $-1 $45 $46 $10 $-1 $47 forward single #
loop $-1 $-1 $48 $18 #
plane-surface $-1 -63.904532730162586 -43.341508151718159 0.040672108063077417 0 -0.70710678939079041 0.70710677298230451 1 0 0 forward_v I I I I #
coedge $-1 $49 $50 $51 $52 reversed $19 $-1 #
face $-1 $53 $54 $11 $-1 $55 forward single #
loop $-1 $56 $57 $21 #
cone-surface $-1 -63.904532730162586 -31.474416230822445 -2.2035770443045228 0 0.70710678939079041 -0.70710677298230451 1.5 0 0 1 I I -0.70710678118654757 0.70710678118654757 1.5 forward I I I I #
loop $-1 $-1 $58 $14 #
coedge $-1 $36 $36 $59 $60 reversed $22 $-1 #
face $-1 $61 $62 $9 $-1 $63 reversed single #
loop $-1 $-1 $64 $24 #
plane-surface $-1 0 -43.341508151718159 0 0 1 0 0 0 1 forward_v I I I I #
coedge $-1 $65 $66 $67 $68 forward $25 $-1 #
coedge $-1 $69 $27 $70 $71 forward $16 $-1 #
coedge $-1 $27 $69 $72 $73 forward $16 $-1 #
coedge $-1 $74 $75 $27 $44 reversed $76 $-1 #
edge $-1 $77 -43.341508151718159 $78 43.341508151718159 $43 $79 forward 7 unknown #
face $-1 $80 $81 $10 $-1 $82 reversed single #
loop $-1 $-1 $83 $28 #
plane-surface $-1 0 0 9.6635148245131539 0 0 1 1 0 0 forward_v I I I I #
coedge $-1 $84 $85 $83 $86 reversed $29 $-1 #
coedge $-1 $50 $31 $85 $87 forward $19 $-1 #
coedge $-1 $31 $49 $88 $89 reversed $19 $-1 #
coedge $-1 $90 $83 $31 $52 forward $46 $-1 #
edge $-1 $91 -43.61427806794746 $92 -33.991435574796441 $51 $93 forward 7 unknown #
face $-1 $94 $95 $11 $-1 $96 forward single #
loop $-1 $-1 $97 $32 #
plane-surface $-1 -49.090842858317046 -154.6658874530292 111.36504882608043 -1 0 0 0 -0.70710678939079041 0.70710677298230451 forward_v I I I I #
loop $-1 $-1 $98 $21 #
coedge $-1 $57 $57 $58 $99 forward $33 $-1 #
coedge $-1 $58 $58 $57 $99 reversed $35 $-1 #
coedge $-1 $59 $59 $36 $60 forward $95 $-1 #
edge $-1 $100 -1.2560739426575815e-015 $100 6.2831853071795996 $59 $101 forward 7 unknown #
face $-1 $102 $103 $9 $-1 $104 reversed single #
loop $-1 $-1 $105 $37 #
plane-surface $-1 -78.718222602008126 0 0 1 0 0 0 0 -1 forward_v I I I I #
coedge $-1 $106 $72 $107 $108 forward $38 $-1 #
coedge $-1 $109 $40 $106 $110 forward $25 $-1 #
coedge $-1 $40 $109 $111 $112 forward $25 $-1 #
coedge $-1 $75 $74 $40 $68 reversed $76 $-1 #
edge $-1 $113 -43.341508151718159 $114 43.341508151718159 $67 $115 forward 7 unknown #
coedge $-1 $42 $41 $116 $117 forward $16 $-1 #
coedge $-1 $118 $119 $41 $71 reversed $103 $-1 #
edge $-1 $78 -78.718222602008126 $120 78.718222602008126 $70 $121 forward 7 unknown #
coedge $-1 $64 $122 $42 $73 reversed $38 $-1 #
edge $-1 $123 -78.718222602008126 $77 78.718222602008126 $72 $124 forward 7 unknown #
coedge $-1 $67 $43 $122 $125 forward $76 $-1 #
coedge $-1 $43 $67 $118 $126 reversed $76 $-1 #
loop $-1 $-1 $74 $102 #
vertex $-1 $44 $127 #
vertex $-1 $44 $128 #
straight-curve $-1 78.718222602008126 0 9.6635148245131539 0 1 0 I I #
face $-1 $129 $130 $10 $-1 $131 reversed single #
loop $-1 $-1 $88 $45 #
plane-surface $-1 0 -43.341508151718159 0 0 1 0 0 0 1 forward_v I I I I #
coedge $-1 $51 $132 $48 $86 forward $46 $-1 #
coedge $-1 $133 $48 $134 $135 reversed $29 $-1 #
coedge $-1 $48 $133 $49 $87 reversed $29 $-1 #
edge $-1 $136 -46.765956236926833 $91 -17.138576493235753 $83 $137 forward 7 unknown #
edge $-1 $91 -13.60875452029058 $138 0 $49 $139 forward 7 unknown #
coedge $-1 $140 $141 $50 $89 forward $81 $-1 #
edge $-1 $92 46.019009588527055 $138 55.641852304977135 $88 $142 forward 7 unknown #
coedge $-1 $143 $51 $141 $144 forward $46 $-1 #
vertex $-1 $86 $145 #
vertex $-1 $144 $146 #
straight-curve $-1 -49.090842858317046 -77.3329437265146 9.6635148245131575 0 -1 0 I I #
face $-1 $147 $148 $11 $-1 $149 forward single #
loop $-1 $150 $59 $53 #
plane-surface $-1 -63.904532730162586 -43.341508151718159 0.040672108063077417 0 -0.70710678939079041 0.70710677298230451 1 0 0 forward_v I I I I #
coedge $-1 $151 $152 $153 $154 reversed $54 $-1 #
coedge $-1 $98 $98 $-1 $155 forward $56 $-1 #
edge $-1 $156 0 $156 6.2831853071796004 $57 $157 forward 7 unknown #
vertex $-1 $60 $158 #
ellipse-curve $-1 -63.904532730162586 -38.530086905142653 4.8520934662881139 0 0.70710678939079041 -0.70710677298230451 3 0 0 1 I I #
face $-1 $-1 $76 $9 $-1 $159 reversed single #
loop $-1 $-1 $118 $61 #
plane-surface $-1 0 43.341508151718159 0 0 -1 0 0 0 -1 forward_v I I I I #
coedge $-1 $160 $116 $119 $161 forward $62 $-1 #
coedge $-1 $122 $64 $65 $110 reversed $38 $-1 #
coedge $-1 $116 $160 $64 $108 reversed $62 $-1 #
edge $-1 $123 -9.6635148245131539 $162 9.6635148245131539 $107 $163 forward 7 unknown #
coedge $-1 $66 $65 $160 $164 forward $25 $-1 #
edge $-1 $114 -78.718222602008126 $162 78.718222602008126 $106 $165 forward 7 unknown #
coedge $-1 $119 $118 $66 $112 reversed $103 $-1 #
edge $-1 $166 -78.718222602008126 $113 78.718222602008126 $111 $167 forward 7 unknown #
vertex $-1 $68 $168 #
vertex $-1 $125 $169 #
straight-curve $-1 78.718222602008126 0 -9.6635148245131539 0 -1 0 I I #
coedge $-1 $105 $107 $69 $117 reversed $62 $-1 #
edge $-1 $120 -43.341508151718159 $123 43.341508151718159 $116 $170 forward 7 unknown #
coedge $-1 $111 $70 $75 $126 forward $103 $-1 #
coedge $-1 $70 $111 $105 $161 reversed $103 $-1 #
vertex $-1 $71 $171 #
straight-curve $-1 0 43.341508151718159 9.6635148245131539 -1 0 0 I I #
coedge $-1 $72 $106 $74 $125 reversed $38 $-1 #
vertex $-1 $117 $172 #
straight-curve $-1 0 -43.341508151718159 9.6635148245131539 1 0 0 I I #
edge $-1 $77 -9.6635148245131539 $114 9.6635148245131539 $74 $173 forward 7 unknown #
edge $-1 $78 -9.6635148245131539 $113 9.6635148245131539 $75 $174 forward 7 unknown #
point $-1 78.718222602008126 -43.341508151718159 9.6635148245131539 #
point $-1 78.718222602008126 43.341508151718159 9.6635148245131539 #
face $-1 $175 $176 $10 $-1 $177 reversed single #
loop $-1 $-1 $178 $80 #
plane-surface $-1 0 0 -9.6635148245131539 0 0 1 1 0 0 forward_v I I I I #
coedge $-1 $83 $179 $180 $181 forward $46 $-1 #
coedge $-1 $85 $84 $140 $182 reversed $29 $-1 #
coedge $-1 $180 $183 $84 $135 forward $176 $-1 #
edge $-1 $184 -15.309157220798724 $136 -1.7004027005081446 $134 $185 forward 7 unknown #
vertex $-1 $135 $186 #
straight-curve $-1 -31.952266365081293 -33.71866565856714 9.6635148245131539 1 0 0 I I #
vertex $-1 $182 $187 #
straight-curve $-1 -49.090842858317046 -43.341508151718159 0.040672108063077417 0 -0.70710677298230451 -0.70710678939079041 I I #
coedge $-1 $188 $88 $133 $182 forward $81 $-1 #
coedge $-1 $88 $189 $90 $144 reversed $81 $-1 #
straight-curve $-1 -49.090842858317046 -43.341508151718159 55.682524413040213 0 0 -1 I I #
coedge $-1 $179 $90 $190 $191 forward $46 $-1 #
edge $-1 $92 -49.090842858317046 $192 78.718222602008126 $141 $193 forward 7 unknown #
point $-1 -49.090842858317046 -33.71866565856714 9.6635148245131539 #
point $-1 -49.090842858317046 -43.341508151718159 9.6635148245131539 #
face $-1 $194 $195 $11 $-1 $196 reversed single #
loop $-1 $-1 $197 $94 #
plane-surface $-1 0 0 9.6635148245131539 0 0 1 1 0 0 forward_v I I I I #
loop $-1 $-1 $198 $53 #
coedge $-1 $152 $97 $199 $200 forward $54 $-1 #
coedge $-1 $97 $151 $201 $202 reversed $54 $-1 #
coedge $-1 $203 $197 $97 $154 forward $148 $-1 #
edge $-1 $204 -43.61427806794746 $205 -33.991435574796441 $153 $206 forward 7 unknown #
edge $-1 $207 1 $207 0 $98 $-1 forward 7 unknown #
vertex $-1 $99 $208 #
ellipse-curve $-1 -63.904532730162586 -32.53507641490863 -1.142916884831066 0 -0.70710678939079041 0.70710677298230451 3 0 0 1 I I #
point $-1 -60.904532730162586 -38.530086905142646 4.8520934662881121 #
plane-surface $-1 78.718222602008126 0 0 -1 0 0 0 0 1 forward_v I I I I #
coedge $-1 $107 $105 $109 $164 reversed $62 $-1 #
edge $-1 $120 -9.6635148245131539 $166 9.6635148245131539 $119 $209 forward 7 unknown #
vertex $-1 $164 $210 #
straight-curve $-1 -78.718222602008126 -43.341508151718159 0 0 0 -1 I I #
edge $-1 $162 -43.341508151718159 $166 43.341508151718159 $160 $211 forward 7 unknown #
straight-curve $-1 0 -43.341508151718159 -9.6635148245131539 -1 0 0 I I #
vertex $-1 $112 $212 #
straight-curve $-1 0 43.341508151718159 -9.6635148245131539 1 0 0 I I #
point $-1 78.718222602008126 43.341508151718159 -9.6635148245131539 #
point $-1 78.718222602008126 -43.341508151718159 -9.6635148245131539 #
straight-curve $-1 -78.718222602008126 0 9.6635148245131539 0 -1 0 I I #
point $-1 -78.718222602008126 43.341508151718159 9.6635148245131539 #
point $-1 -78.718222602008126 -43.341508151718159 9.6635148245131539 #
straight-curve $-1 78.718222602008126 -43.341508151718159 0 0 0 -1 I I #
straight-curve $-1 78.718222602008126 43.341508151718159 0 0 0 -1 I I #
face $-1 $213 $214 $10 $-1 $215 reversed single #
loop $-1 $-1 $134 $129 #
plane-surface $-1 -78.718222602008126 0 0 1 0 0 0 0 -1 forward_v I I I I #
coedge $-1 $216 $217 $218 $219 forward $130 $-1 #
coedge $-1 $132 $143 $220 $221 forward $46 $-1 #
coedge $-1 $222 $134 $132 $181 reversed $176 $-1 #
edge $-1 $223 -43.341508151718159 $136 33.71866565856714 $180 $224 forward 7 unknown #
edge $-1 $138 17.138576493235753 $184 46.765956236926833 $140 $225 forward 7 unknown #
coedge $-1 $134 $226 $188 $227 reversed $176 $-1 #
vertex $-1 $227 $228 #
straight-curve $-1 -78.718222602008126 -32.516299392240427 10.865881118740894 0 0.70710677298230462 0.70710678939079052 I I #
point $-1 -78.718222602008126 -33.71866565856714 9.6635148245131539 #
point $-1 -49.090842858317046 -43.341508151718159 0.040672108063077417 #
coedge $-1 $229 $140 $183 $227 forward $81 $-1 #
coedge $-1 $141 $229 $230 $231 reversed $81 $-1 #
coedge $-1 $230 $232 $143 $191 reversed $233 $-1 #
edge $-1 $192 -43.341508151718159 $234 43.341508151718159 $190 $235 forward 7 unknown #
vertex $-1 $191 $236 #
straight-curve $-1 0 -43.341508151718159 9.6635148245131539 1 0 0 I I #
face $-1 $237 $238 $11 $-1 $239 reversed single #
loop $-1 $-1 $201 $147 #
plane-surface $-1 0 -43.341508151718159 0 0 1 0 0 0 1 forward_v I I I I #
coedge $-1 $153 $240 $198 $241 forward $148 $-1 #
coedge $-1 $242 $199 $197 $241 reversed $150 $-1 #
coedge $-1 $198 $243 $151 $200 reversed $150 $-1 #
edge $-1 $204 -13.60875452029058 $244 0 $151 $245 forward 7 unknown #
coedge $-1 $246 $247 $152 $202 forward $195 $-1 #
edge $-1 $205 46.019009588527055 $244 55.641852304977135 $201 $248 forward 7 unknown #
coedge $-1 $249 $153 $247 $250 forward $148 $-1 #
vertex $-1 $241 $251 #
vertex $-1 $250 $252 #
straight-curve $-1 -49.090842858317046 -77.3329437265146 9.6635148245131575 0 -1 0 I I #
vertex $-1 $155 $253 #
point $-1 -60.904532730162586 -32.53507641490863 -1.142916884831066 #
straight-curve $-1 -78.718222602008126 43.341508151718159 0 0 0 -1 I I #
point $-1 -78.718222602008126 -43.341508151718159 -9.6635148245131539 #
straight-curve $-1 -78.718222602008126 0 -9.6635148245131539 0 1 0 I I #
point $-1 -78.718222602008126 43.341508151718159 -9.6635148245131539 #
face $-1 $-1 $233 $10 $-1 $254 reversed single #
loop $-1 $-1 $255 $175 #
plane-surface $-1 0 43.341508151718159 0 0 -1 0 0 0 -1 forward_v I I I I #
coedge $-1 $256 $178 $229 $257 forward $130 $-1 #
coedge $-1 $178 $256 $258 $259 forward $130 $-1 #
coedge $-1 $232 $230 $178 $219 reversed $233 $-1 #
edge $-1 $260 -43.341508151718159 $261 43.341508151718159 $218 $262 forward 7 unknown #
coedge $-1 $255 $263 $179 $221 reversed $214 $-1 #
edge $-1 $234 -78.718222602008126 $223 78.718222602008126 $220 $264 forward 7 unknown #
coedge $-1 $226 $180 $263 $265 forward $176 $-1 #
vertex $-1 $221 $266 #
straight-curve $-1 -78.718222602008126 0 9.6635148245131539 0 -1 0 I I #
straight-curve $-1 -31.952266365081293 -43.341508151718159 0.040672108063073864 -1 0 0 I I #
coedge $-1 $183 $222 $256 $267 reversed $176 $-1 #
edge $-1 $184 -0.040672108063077417 $268 9.6635148245131539 $183 $269 forward 7 unknown #
point $-1 -78.718222602008126 -43.341508151718159 0.040672108063077417 #
coedge $-1 $189 $188 $216 $257 reversed $81 $-1 #
coedge $-1 $218 $190 $189 $231 forward $233 $-1 #
edge $-1 $192 -9.6635148245131539 $261 9.6635148245131539 $230 $270 forward 7 unknown #
coedge $-1 $190 $218 $255 $271 reversed $233 $-1 #
loop $-1 $-1 $230 $213 #
vertex $-1 $191 $272 #
straight-curve $-1 78.718222602008126 0 9.6635148245131539 0 1 0 I I #
point $-1 78.718222602008126 -43.341508151718159 9.6635148245131539 #
face $-1 $273 $274 $11 $-1 $275 reversed single #
loop $-1 $-1 $276 $194 #
plane-surface $-1 0 0 -9.6635148245131539 0 0 1 1 0 0 forward_v I I I I #
coedge $-1 $197 $277 $278 $279 forward $148 $-1 #
edge $-1 $280 -46.765956236926833 $204 -17.138576493235753 $197 $281 forward 7 unknown #
coedge $-1 $243 $198 $282 $283 reversed $150 $-1 #
coedge $-1 $199 $242 $246 $284 reversed $150 $-1 #
vertex $-1 $284 $285 #
straight-curve $-1 -49.090842858317046 -43.341508151718159 0.040672108063077417 0 -0.70710677298230451 -0.70710678939079041 I I #
coedge $-1 $286 $201 $243 $284 forward $195 $-1 #
coedge $-1 $201 $287 $203 $250 reversed $195 $-1 #
straight-curve $-1 -49.090842858317046 -43.341508151718159 55.682524413040213 0 0 -1 I I #
coedge $-1 $277 $203 $288 $289 forward $148 $-1 #
edge $-1 $205 -49.090842858317046 $290 78.718222602008126 $247 $291 forward 7 unknown #
point $-1 -49.090842858317046 -33.71866565856714 9.6635148245131539 #
point $-1 -49.090842858317046 -43.341508151718159 9.6635148245131539 #
point $-1 -63.904532730162586 -30.41375604673626 -3.2642372037779799 #
plane-surface $-1 78.718222602008126 0 0 -1 0 0 0 0 1 forward_v I I I I #
coedge $-1 $258 $220 $232 $271 forward $214 $-1 #
coedge $-1 $217 $216 $226 $267 forward $130 $-1 #
edge $-1 $261 -78.718222602008126 $268 78.718222602008126 $229 $292 forward 7 unknown #
coedge $-1 $263 $255 $217 $259 reversed $214 $-1 #
edge $-1 $293 -78.718222602008126 $260 78.718222602008126 $258 $294 forward 7 unknown #
vertex $-1 $219 $295 #
vertex $-1 $231 $296 #
straight-curve $-1 78.718222602008126 0 -9.6635148245131539 0 -1 0 I I #
coedge $-1 $220 $258 $222 $265 reversed $214 $-1 #
straight-curve $-1 0 43.341508151718159 9.6635148245131539 -1 0 0 I I #
edge $-1 $223 -9.6635148245131539 $293 9.6635148245131539 $263 $297 forward 7 unknown #
point $-1 -78.718222602008126 43.341508151718159 9.6635148245131539 #
edge $-1 $268 -43.341508151718159 $293 43.341508151718159 $226 $298 forward 7 unknown #
vertex $-1 $267 $299 #
straight-curve $-1 -78.718222602008126 -43.341508151718159 0 0 0 -1 I I #
straight-curve $-1 78.718222602008126 -43.341508151718159 0 0 0 -1 I I #
edge $-1 $234 -9.6635148245131539 $260 9.6635148245131539 $232 $300 forward 7 unknown #
point $-1 78.718222602008126 43.341508151718159 9.6635148245131539 #
face $-1 $301 $302 $11 $-1 $303 reversed single #
loop $-1 $-1 $282 $237 #
plane-surface $-1 -78.718222602008126 0 0 1 0 0 0 0 -1 forward_v I I I I #
coedge $-1 $304 $305 $306 $307 forward $238 $-1 #
coedge $-1 $240 $249 $308 $309 forward $148 $-1 #
coedge $-1 $310 $282 $240 $279 reversed $274 $-1 #
edge $-1 $311 -43.341508151718159 $280 33.71866565856714 $278 $312 forward 7 unknown #
vertex $-1 $283 $313 #
straight-curve $-1 -31.952266365081293 -33.71866565856714 9.6635148245131539 1 0 0 I I #
coedge $-1 $278 $314 $242 $283 forward $274 $-1 #
edge $-1 $315 -15.309157220798724 $280 -1.7004027005081446 $282 $316 forward 7 unknown #
edge $-1 $244 17.138576493235753 $315 46.765956236926833 $246 $317 forward 7 unknown #
point $-1 -49.090842858317046 -43.341508151718159 0.040672108063077417 #
coedge $-1 $318 $246 $314 $319 forward $195 $-1 #
coedge $-1 $247 $318 $320 $321 reversed $195 $-1 #
coedge $-1 $320 $322 $249 $289 reversed $323 $-1 #
edge $-1 $290 -43.341508151718159 $324 43.341508151718159 $288 $325 forward 7 unknown #
vertex $-1 $289 $326 #
straight-curve $-1 0 -43.341508151718159 9.6635148245131539 1 0 0 I I #
straight-curve $-1 0 -43.341508151718159 -9.6635148245131539 -1 0 0 I I #
vertex $-1 $259 $327 #
straight-curve $-1 0 43.341508151718159 -9.6635148245131539 1 0 0 I I #
point $-1 78.718222602008126 43.341508151718159 -9.6635148245131539 #
point $-1 78.718222602008126 -43.341508151718159 -9.6635148245131539 #
straight-curve $-1 -78.718222602008126 43.341508151718159 0 0 0 -1 I I #
straight-curve $-1 -78.718222602008126 0 -9.6635148245131539 0 1 0 I I #
point $-1 -78.718222602008126 -43.341508151718159 -9.6635148245131539 #
straight-curve $-1 78.718222602008126 43.341508151718159 0 0 0 -1 I I #
face $-1 $-1 $323 $11 $-1 $328 reversed single #
loop $-1 $-1 $329 $273 #
plane-surface $-1 0 43.341508151718159 0 0 -1 0 0 0 -1 forward_v I I I I #
coedge $-1 $330 $276 $318 $331 forward $238 $-1 #
coedge $-1 $276 $330 $332 $333 forward $238 $-1 #
coedge $-1 $322 $320 $276 $307 reversed $323 $-1 #
edge $-1 $334 -43.341508151718159 $335 43.341508151718159 $306 $336 forward 7 unknown #
coedge $-1 $329 $337 $277 $309 reversed $302 $-1 #
edge $-1 $324 -78.718222602008126 $311 78.718222602008126 $308 $338 forward 7 unknown #
coedge $-1 $339 $278 $337 $340 forward $274 $-1 #
vertex $-1 $309 $341 #
straight-curve $-1 -78.718222602008126 0 9.6635148245131539 0 -1 0 I I #
point $-1 -78.718222602008126 -33.71866565856714 9.6635148245131539 #
coedge $-1 $282 $339 $286 $319 reversed $274 $-1 #
vertex $-1 $319 $342 #
straight-curve $-1 -78.718222602008126 -32.516299392240427 10.865881118740894 0 0.70710677298230462 0.70710678939079052 I I #
straight-curve $-1 -31.952266365081293 -43.341508151718159 0.040672108063073864 -1 0 0 I I #
coedge $-1 $287 $286 $304 $331 reversed $195 $-1 #
edge $-1 $315 -0.040672108063077417 $343 9.6635148245131539 $314 $344 forward 7 unknown #
coedge $-1 $306 $288 $287 $321 forward $323 $-1 #
edge $-1 $290 -9.6635148245131539 $335 9.6635148245131539 $320 $345 forward 7 unknown #
coedge $-1 $288 $306 $329 $346 reversed $323 $-1 #
loop $-1 $-1 $320 $301 #
vertex $-1 $289 $347 #
straight-curve $-1 78.718222602008126 0 9.6635148245131539 0 1 0 I I #
point $-1 78.718222602008126 -43.341508151718159 9.6635148245131539 #
point $-1 -78.718222602008126 43.341508151718159 -9.6635148245131539 #
plane-surface $-1 78.718222602008126 0 0 -1 0 0 0 0 1 forward_v I I I I #
coedge $-1 $332 $308 $322 $346 forward $302 $-1 #
coedge $-1 $305 $304 $339 $348 forward $238 $-1 #
edge $-1 $335 -78.718222602008126 $343 78.718222602008126 $318 $349 forward 7 unknown #
coedge $-1 $337 $329 $305 $333 reversed $302 $-1 #
edge $-1 $350 -78.718222602008126 $334 78.718222602008126 $332 $351 forward 7 unknown #
vertex $-1 $307 $352 #
vertex $-1 $321 $353 #
straight-curve $-1 78.718222602008126 0 -9.6635148245131539 0 -1 0 I I #
coedge $-1 $308 $332 $310 $340 reversed $302 $-1 #
straight-curve $-1 0 43.341508151718159 9.6635148245131539 -1 0 0 I I #
coedge $-1 $314 $310 $330 $348 reversed $274 $-1 #
edge $-1 $311 -9.6635148245131539 $350 9.6635148245131539 $337 $354 forward 7 unknown #
point $-1 -78.718222602008126 43.341508151718159 9.6635148245131539 #
point $-1 -78.718222602008126 -43.341508151718159 0.040672108063077417 #
vertex $-1 $348 $355 #
straight-curve $-1 -78.718222602008126 -43.341508151718159 0 0 0 -1 I I #
straight-curve $-1 78.718222602008126 -43.341508151718159 0 0 0 -1 I I #
edge $-1 $324 -9.6635148245131539 $334 9.6635148245131539 $322 $356 forward 7 unknown #
point $-1 78.718222602008126 43.341508151718159 9.6635148245131539 #
edge $-1 $343 -43.341508151718159 $350 43.341508151718159 $339 $357 forward 7 unknown #
straight-curve $-1 0 -43.341508151718159 -9.6635148245131539 -1 0 0 I I #
vertex $-1 $333 $358 #
straight-curve $-1 0 43.341508151718159 -9.6635148245131539 1 0 0 I I #
point $-1 78.718222602008126 43.341508151718159 -9.6635148245131539 #
point $-1 78.718222602008126 -43.341508151718159 -9.6635148245131539 #
straight-curve $-1 -78.718222602008126 43.341508151718159 0 0 0 -1 I I #
point $-1 -78.718222602008126 -43.341508151718159 -9.6635148245131539 #
straight-curve $-1 78.718222602008126 43.341508151718159 0 0 0 -1 I I #
straight-curve $-1 -78.718222602008126 0 -9.6635148245131539 0 1 0 I I #
point $-1 -78.718222602008126 43.341508151718159 -9.6635148245131539 #
End-of-ACIS-data 