500 0 5 0           
7 Unknown 11 ACIS 5.0 NT 24 Fri Mar 26 02:56:45 1999 
-1 9.9999999999999995e-007 1e-010 
body $-1 $5 $-1 $6 #
body $-1 $7 $-1 $8 #
body $-1 $9 $-1 $10 #
body $-1 $11 $-1 $12 #
body $-1 $13 $-1 $14 #
lump $-1 $-1 $15 $0 #
transform $-1 1 0 0 0 1 0 0 0 1 61.74016541032136 40.942357500455145 13.195341849530216 1 rotate no_reflect no_shear #
lump $-1 $-1 $16 $1 #
transform $-1 1 0 0 0 1 0 0 0 1 61.74016541032136 40.942357500455145 13.195341849530216 1 rotate no_reflect no_shear #
lump $-1 $-1 $17 $2 #
transform $-1 1 0 0 0 1 0 0 0 1 61.74016541032136 40.942357500455145 13.195341849530216 1 rotate no_reflect no_shear #
lump $-1 $-1 $18 $3 #
transform $-1 1 0 0 0 1 0 0 0 1 61.74016541032136 40.942357500455145 13.195341849530216 1 rotate no_reflect no_shear #
lump $-1 $-1 $19 $4 #
transform $-1 1 0 0 0 1 0 0 0 1 61.74016541032136 40.942357500455145 13.195341849530216 1 rotate no_reflect no_shear #
shell $-1 $-1 $-1 $20 $-1 $5 #
shell $-1 $-1 $-1 $21 $-1 $7 #
shell $-1 $-1 $-1 $22 $-1 $9 #
shell $-1 $-1 $-1 $23 $-1 $11 #
shell $-1 $-1 $-1 $24 $-1 $13 #
face $-1 $25 $26 $15 $-1 $27 forward single #
face $-1 $28 $29 $16 $-1 $30 forward single #
face $-1 $31 $32 $17 $-1 $33 reversed single #
face $-1 $34 $35 $18 $-1 $36 forward single #
face $-1 $37 $38 $19 $-1 $39 forward single #
face $-1 $40 $41 $15 $-1 $42 reversed single #
loop $-1 $-1 $43 $20 #
plane-surface $-1 0 0 13.195341849530216 0 0 1 1 0 0 forward_v I I I I #
face $-1 $44 $45 $16 $-1 $46 reversed single #
loop $-1 $-1 $47 $21 #
plane-surface $-1 -61.74016541032136 0 0 1 0 0 0 0 -1 forward_v I I I I #
face $-1 $48 $49 $17 $-1 $50 reversed single #
loop $-1 $-1 $51 $22 #
plane-surface $-1 79.993718031640469 4.7411711949441298 176.10254122256811 0 -1 0 -0.77714596973225614 0 -0.62932038083071107 forward_v I I I I #
face $-1 $52 $53 $18 $-1 $54 forward single #
loop $-1 $55 $56 $23 #
cone-surface $-1 55.320333972766583 -3.378970520166483 6.1439585984146063 -0.77714596973225614 0 -0.62932038083071107 0.9439805712460666 0 -1.1657189545983841 1 I I 0 1 1.5 forward I I I I #
face $-1 $57 $58 $19 $-1 $59 forward single #
loop $-1 $60 $61 $24 #
cone-surface $-1 55.320333972766583 1.493114508899879 6.1439585984146063 -0.77714596973225614 0 -0.62932038083071107 0.9439805712460666 0 -1.1657189545983841 1 I I 0 1 1.5 forward I I I I #
face $-1 $62 $63 $15 $-1 $64 reversed single #
loop $-1 $-1 $65 $25 #
plane-surface $-1 0 0 -13.195341849530216 0 0 1 1 0 0 forward_v I I I I #
coedge $-1 $66 $67 $68 $69 forward $26 $-1 #
face $-1 $70 $71 $16 $-1 $72 forward single #
loop $-1 $-1 $73 $28 #
plane-surface $-1 0 40.942357500455145 0 0 -1 0 0 0 -1 forward_v I I I I #
coedge $-1 $74 $75 $76 $77 forward $29 $-1 #
face $-1 $78 $79 $17 $-1 $80 reversed single #
loop $-1 $-1 $81 $31 #
plane-surface $-1 -15.968523406827714 -0.94292800563329848 98.39385240541904 0.77714596973225614 0 0.62932038083071107 0.62932038083071107 0 -0.77714596973225614 forward_v I I I I #
coedge $-1 $82 $83 $84 $85 reversed $32 $-1 #
face $-1 $-1 $86 $18 $-1 $87 forward single #
loop $-1 $88 $89 $34 #
cone-surface $-1 52.675791643896964 -3.378970520166483 4.0024505029656368 -0.77714596973225614 0 -0.62932038083071107 0.4719902856230333 0 -0.58285947729919207 1 I I -0.70710678118654757 0.70710678118654757 0.75 forward I I I I #
loop $-1 $-1 $90 $23 #
coedge $-1 $56 $56 $91 $92 reversed $35 $-1 #
face $-1 $-1 $93 $19 $-1 $94 forward single #
loop $-1 $95 $96 $37 #
cone-surface $-1 52.675791643896964 1.493114508899879 4.0024505029656368 -0.77714596973225614 0 -0.62932038083071107 0.4719902856230333 0 -0.58285947729919207 1 I I -0.70710678118654757 0.70710678118654757 0.75 forward I I I I #
loop $-1 $-1 $97 $24 #
coedge $-1 $61 $61 $98 $99 reversed $38 $-1 #
face $-1 $100 $101 $15 $-1 $102 reversed single #
loop $-1 $-1 $103 $40 #
plane-surface $-1 0 -40.942357500455145 0 0 1 0 0 0 1 forward_v I I I I #
coedge $-1 $104 $105 $106 $107 forward $41 $-1 #
coedge $-1 $108 $43 $109 $110 forward $26 $-1 #
coedge $-1 $43 $108 $111 $112 forward $26 $-1 #
coedge $-1 $113 $114 $43 $69 reversed $115 $-1 #
edge $-1 $116 -40.942357500455145 $117 40.942357500455145 $68 $118 forward 7 unknown #
face $-1 $119 $120 $16 $-1 $121 reversed single #
loop $-1 $-1 $76 $44 #
plane-surface $-1 -68.870736137415093 0 -6.7947130942336322 0 0 1 1 0 0 forward_v I I I I #
coedge $-1 $122 $123 $75 $124 forward $45 $-1 #
coedge $-1 $125 $47 $126 $127 reversed $29 $-1 #
coedge $-1 $47 $125 $73 $124 reversed $29 $-1 #
coedge $-1 $128 $129 $47 $77 reversed $71 $-1 #
edge $-1 $130 -40.942357500455145 $131 40.942357500455145 $76 $132 forward 7 unknown #
face $-1 $133 $134 $17 $-1 $135 forward single #
loop $-1 $-1 $136 $48 #
plane-surface $-1 79.993718031640469 -6.6270272062107267 176.10254122256811 0 1 0 0.77714596973225614 0 0.62932038083071107 forward_v I I I I #
coedge $-1 $137 $138 $139 $140 reversed $49 $-1 #
coedge $-1 $83 $51 $141 $142 reversed $32 $-1 #
coedge $-1 $51 $82 $137 $143 reversed $32 $-1 #
coedge $-1 $139 $144 $51 $85 forward $134 $-1 #
edge $-1 $145 -21.743306394501126 $146 -13.027009222532428 $84 $147 forward 7 unknown #
loop $-1 $-1 $91 $52 #
plane-surface $-1 -15.968523406827714 -0.94292800563329848 98.39385240541904 0.77714596973225614 0 0.62932038083071107 0.62932038083071107 0 -0.77714596973225614 forward_v I I I I #
loop $-1 $-1 $148 $34 #
coedge $-1 $89 $89 $90 $149 reversed $53 $-1 #
coedge $-1 $90 $90 $89 $149 forward $55 $-1 #
coedge $-1 $91 $91 $56 $92 forward $86 $-1 #
edge $-1 $150 0 $150 6.2831853071796004 $91 $151 forward 7 unknown #
loop $-1 $-1 $98 $57 #
plane-surface $-1 -15.968523406827714 -0.94292800563329848 98.39385240541904 0.77714596973225614 0 0.62932038083071107 0.62932038083071107 0 -0.77714596973225614 forward_v I I I I #
loop $-1 $-1 $152 $37 #
coedge $-1 $96 $96 $97 $153 reversed $58 $-1 #
coedge $-1 $97 $97 $96 $153 forward $60 $-1 #
coedge $-1 $98 $98 $61 $99 forward $93 $-1 #
edge $-1 $154 0 $154 6.2831853071796004 $98 $155 forward 7 unknown #
face $-1 $156 $157 $15 $-1 $158 reversed single #
loop $-1 $-1 $159 $62 #
plane-surface $-1 -61.74016541032136 0 0 1 0 0 0 0 -1 forward_v I I I I #
coedge $-1 $160 $111 $159 $161 forward $63 $-1 #
coedge $-1 $162 $65 $160 $163 forward $41 $-1 #
coedge $-1 $65 $162 $164 $165 forward $41 $-1 #
coedge $-1 $114 $113 $65 $107 reversed $115 $-1 #
edge $-1 $166 -40.942357500455145 $167 40.942357500455145 $106 $168 forward 7 unknown #
coedge $-1 $67 $66 $169 $170 forward $26 $-1 #
coedge $-1 $171 $172 $66 $110 reversed $157 $-1 #
edge $-1 $117 -61.74016541032136 $173 61.74016541032136 $109 $174 forward 7 unknown #
coedge $-1 $103 $175 $67 $112 reversed $63 $-1 #
edge $-1 $176 -61.74016541032136 $116 61.74016541032136 $111 $177 forward 7 unknown #
coedge $-1 $106 $68 $175 $178 forward $115 $-1 #
coedge $-1 $68 $106 $171 $179 reversed $115 $-1 #
loop $-1 $-1 $113 $156 #
vertex $-1 $69 $180 #
vertex $-1 $69 $181 #
straight-curve $-1 61.74016541032136 0 13.195341849530216 0 1 0 I I #
face $-1 $182 $183 $16 $-1 $184 reversed single #
loop $-1 $-1 $185 $70 #
plane-surface $-1 -76.00130686450882 0 -9.9950274718819241 1 0 0 0 0 -1 forward_v I I I I #
coedge $-1 $186 $73 $187 $188 reversed $45 $-1 #
coedge $-1 $73 $186 $128 $189 reversed $45 $-1 #
edge $-1 $130 6.7947130942336322 $190 13.195341849530216 $73 $191 forward 7 unknown #
coedge $-1 $75 $74 $192 $193 reversed $29 $-1 #
coedge $-1 $194 $195 $74 $127 forward $196 $-1 #
edge $-1 $197 -13.195341849530216 $131 -6.7947130942336322 $126 $198 forward 7 unknown #
coedge $-1 $199 $76 $123 $189 forward $71 $-1 #
coedge $-1 $76 $199 $194 $200 forward $71 $-1 #
vertex $-1 $124 $201 #
vertex $-1 $200 $202 #
straight-curve $-1 -61.74016541032136 0 -6.7947130942336322 0 -1 0 I I #
face $-1 $-1 $203 $17 $-1 $204 reversed single #
loop $-1 $-1 $84 $78 #
plane-surface $-1 0 0 13.195341849530216 0 0 1 1 0 0 forward_v I I I I #
coedge $-1 $205 $206 $207 $208 reversed $79 $-1 #
coedge $-1 $209 $81 $83 $143 forward $49 $-1 #
coedge $-1 $81 $209 $205 $210 forward $49 $-1 #
coedge $-1 $207 $84 $81 $140 forward $134 $-1 #
edge $-1 $146 -5.212635197760779 $211 6.1555632033940775 $139 $212 forward 7 unknown #
coedge $-1 $213 $214 $82 $142 forward $203 $-1 #
edge $-1 $215 -85.619659644333197 $145 -74.85592876175383 $141 $216 forward 7 unknown #
edge $-1 $146 109.62999729026654 $215 123.48033082064273 $83 $217 forward 7 unknown #
coedge $-1 $84 $207 $213 $218 forward $134 $-1 #
vertex $-1 $142 $219 #
vertex $-1 $85 $220 #
straight-curve $-1 39.996859015820235 4.7411711949441298 13.195341849530223 -1 0 0 I I #
coedge $-1 $148 $148 $-1 $221 reversed $88 $-1 #
edge $-1 $222 0 $222 6.2831853071796004 $89 $223 forward 7 unknown #
vertex $-1 $92 $224 #
ellipse-curve $-1 57.382016824337008 -3.378970520166483 7.8134764082405388 0.77714596973225614 0 0.62932038083071107 0.9439805712460666 0 -1.1657189545983841 1 I I #
coedge $-1 $152 $152 $-1 $225 reversed $95 $-1 #
edge $-1 $226 0 $226 6.2831853071796004 $96 $227 forward 7 unknown #
vertex $-1 $99 $228 #
ellipse-curve $-1 57.382016824337008 1.493114508899879 7.8134764082405388 0.77714596973225614 0 0.62932038083071107 0.9439805712460666 0 -1.1657189545983841 1 I I #
face $-1 $-1 $115 $15 $-1 $229 reversed single #
loop $-1 $-1 $171 $100 #
plane-surface $-1 0 40.942357500455145 0 0 -1 0 0 0 -1 forward_v I I I I #
coedge $-1 $169 $230 $103 $161 reversed $101 $-1 #
coedge $-1 $175 $103 $104 $163 reversed $63 $-1 #
edge $-1 $176 -13.195341849530216 $231 13.195341849530216 $159 $232 forward 7 unknown #
coedge $-1 $105 $104 $230 $233 forward $41 $-1 #
edge $-1 $167 -61.74016541032136 $231 61.74016541032136 $160 $234 forward 7 unknown #
coedge $-1 $172 $171 $105 $165 reversed $157 $-1 #
edge $-1 $235 -61.74016541032136 $166 61.74016541032136 $164 $236 forward 7 unknown #
vertex $-1 $107 $237 #
vertex $-1 $178 $238 #
straight-curve $-1 61.74016541032136 0 -13.195341849530216 0 -1 0 I I #
coedge $-1 $239 $159 $108 $170 reversed $101 $-1 #
edge $-1 $173 -40.942357500455145 $176 40.942357500455145 $169 $240 forward 7 unknown #
coedge $-1 $164 $109 $114 $179 forward $157 $-1 #
coedge $-1 $109 $164 $239 $241 reversed $157 $-1 #
vertex $-1 $110 $242 #
straight-curve $-1 0 40.942357500455145 13.195341849530216 -1 0 0 I I #
coedge $-1 $111 $160 $113 $178 reversed $63 $-1 #
vertex $-1 $170 $243 #
straight-curve $-1 0 -40.942357500455145 13.195341849530216 1 0 0 I I #
edge $-1 $116 -13.195341849530216 $167 13.195341849530216 $113 $244 forward 7 unknown #
edge $-1 $117 -13.195341849530216 $166 13.195341849530216 $114 $245 forward 7 unknown #
point $-1 61.74016541032136 -40.942357500455145 13.195341849530216 #
point $-1 61.74016541032136 40.942357500455145 13.195341849530216 #
face $-1 $-1 $196 $16 $-1 $246 reversed single #
loop $-1 $-1 $192 $119 #
plane-surface $-1 0 0 -13.195341849530216 0 0 1 1 0 0 forward_v I I I I #
coedge $-1 $247 $248 $186 $249 forward $120 $-1 #
coedge $-1 $123 $122 $185 $249 reversed $45 $-1 #
coedge $-1 $192 $250 $122 $188 forward $183 $-1 #
edge $-1 $251 -76.00130686450882 $190 -61.74016541032136 $122 $252 forward 7 unknown #
edge $-1 $130 -7.1305707270937262 $253 7.1305707270937262 $123 $254 forward 7 unknown #
vertex $-1 $124 $255 #
straight-curve $-1 -61.74016541032136 40.942357500455145 0 0 0 -1 I I #
coedge $-1 $256 $187 $125 $193 forward $183 $-1 #
edge $-1 $190 -40.942357500455145 $197 40.942357500455145 $192 $257 forward 7 unknown #
coedge $-1 $258 $126 $129 $200 reversed $196 $-1 #
coedge $-1 $126 $258 $256 $259 reversed $196 $-1 #
loop $-1 $-1 $126 $182 #
vertex $-1 $259 $260 #
straight-curve $-1 -61.74016541032136 -40.942357500455145 0 0 0 1 I I #
coedge $-1 $129 $128 $248 $261 forward $71 $-1 #
edge $-1 $262 -7.1305707270937262 $131 7.1305707270937262 $194 $263 forward 7 unknown #
point $-1 -61.740165410321367 40.942357500455145 -6.7947130942336322 #
point $-1 -61.740165410321367 -40.942357500455145 -6.7947130942336322 #
loop $-1 $-1 $141 $133 #
plane-surface $-1 61.74016541032136 0 0 -1 0 0 0 0 1 forward_v I I I I #
coedge $-1 $206 $136 $138 $210 reversed $79 $-1 #
coedge $-1 $136 $205 $264 $265 reversed $79 $-1 #
coedge $-1 $144 $139 $136 $208 forward $134 $-1 #
edge $-1 $211 13.027009222532428 $266 21.743306394501126 $207 $267 forward 7 unknown #
coedge $-1 $138 $137 $214 $268 reversed $49 $-1 #
edge $-1 $269 -123.48033082064273 $211 -109.62999729026654 $205 $270 forward 7 unknown #
vertex $-1 $140 $271 #
straight-curve $-1 53.023868238352662 -0.47146400281664924 13.195341849530216 0 -1 0 I I #
coedge $-1 $264 $141 $144 $218 reversed $203 $-1 #
coedge $-1 $141 $264 $209 $268 forward $203 $-1 #
vertex $-1 $142 $272 #
straight-curve $-1 61.74016541032136 4.7411711949441298 88.051270611284053 0 0 1 I I #
straight-curve $-1 -15.968523406827714 4.7411711949441298 98.39385240541904 0.62932038083071107 0 -0.77714596973225614 I I #
edge $-1 $266 -6.6270272062107267 $145 4.7411711949441298 $213 $273 forward 7 unknown #
point $-1 61.74016541032136 4.7411711949441298 13.195341849530216 #
point $-1 53.023868238352662 4.7411711949441298 13.195341849530223 #
edge $-1 $274 1 $274 0 $148 $-1 forward 7 unknown #
vertex $-1 $149 $275 #
ellipse-curve $-1 53.258651121196159 -3.378970520166483 4.4744407885886703 0.77714596973225614 0 0.62932038083071107 0.9439805712460666 0 -1.1657189545983841 1 I I #
point $-1 58.32599739558308 -3.378970520166483 6.647757453642158 #
edge $-1 $276 1 $276 0 $152 $-1 forward 7 unknown #
vertex $-1 $153 $277 #
ellipse-curve $-1 53.258651121196159 1.493114508899879 4.4744407885886703 0.77714596973225614 0 0.62932038083071107 0.9439805712460666 0 -1.1657189545983841 1 I I #
point $-1 58.32599739558308 1.493114508899879 6.647757453642158 #
plane-surface $-1 61.74016541032136 0 0 -1 0 0 0 0 1 forward_v I I I I #
coedge $-1 $159 $239 $162 $233 reversed $101 $-1 #
vertex $-1 $233 $278 #
straight-curve $-1 -61.74016541032136 -40.942357500455145 0 0 0 -1 I I #
edge $-1 $231 -40.942357500455145 $235 40.942357500455145 $230 $279 forward 7 unknown #
straight-curve $-1 0 -40.942357500455145 -13.195341849530216 -1 0 0 I I #
vertex $-1 $165 $280 #
straight-curve $-1 0 40.942357500455145 -13.195341849530216 1 0 0 I I #
point $-1 61.74016541032136 40.942357500455145 -13.195341849530216 #
point $-1 61.74016541032136 -40.942357500455145 -13.195341849530216 #
coedge $-1 $230 $169 $172 $241 forward $101 $-1 #
straight-curve $-1 -61.74016541032136 0 13.195341849530216 0 -1 0 I I #
edge $-1 $173 -13.195341849530216 $235 13.195341849530216 $172 $281 forward 7 unknown #
point $-1 -61.74016541032136 40.942357500455145 13.195341849530216 #
point $-1 -61.74016541032136 -40.942357500455145 13.195341849530216 #
straight-curve $-1 61.74016541032136 -40.942357500455145 0 0 0 -1 I I #
straight-curve $-1 61.74016541032136 40.942357500455145 0 0 0 -1 I I #
plane-surface $-1 0 -40.942357500455145 0 0 1 0 0 0 1 forward_v I I I I #
coedge $-1 $282 $185 $250 $283 reversed $120 $-1 #
coedge $-1 $185 $282 $199 $261 reversed $120 $-1 #
edge $-1 $253 -3.2003143776482919 $251 3.2003143776482919 $186 $284 forward 7 unknown #
coedge $-1 $187 $256 $247 $283 forward $183 $-1 #
vertex $-1 $188 $285 #
straight-curve $-1 0 40.942357500455145 -13.195341849530216 1 0 0 I I #
vertex $-1 $189 $286 #
straight-curve $-1 -68.870736137415093 40.942357500455145 -6.7947130942336322 -1 0 0 I I #
point $-1 -61.74016541032136 40.942357500455145 -13.195341849530216 #
coedge $-1 $250 $192 $195 $259 forward $183 $-1 #
straight-curve $-1 -61.74016541032136 0 -13.195341849530216 0 -1 0 I I #
coedge $-1 $195 $194 $282 $287 forward $196 $-1 #
edge $-1 $197 -7.1305707270937333 $288 7.1305707270937262 $195 $289 forward 7 unknown #
point $-1 -61.74016541032136 -40.942357500455145 -13.195341849530216 #
edge $-1 $253 -40.942357500455145 $262 40.942357500455145 $248 $290 forward 7 unknown #
vertex $-1 $261 $291 #
straight-curve $-1 -68.870736137415093 -40.942357500455145 -6.7947130942336322 1 0 0 I I #
coedge $-1 $214 $213 $206 $265 forward $203 $-1 #
edge $-1 $266 74.85592876175383 $269 85.619659644333197 $264 $292 forward 7 unknown #
vertex $-1 $218 $293 #
straight-curve $-1 39.996859015820235 -6.6270272062107267 13.195341849530223 1 0 0 I I #
edge $-1 $269 -6.1555632033940775 $215 5.212635197760779 $214 $294 forward 7 unknown #
vertex $-1 $268 $295 #
straight-curve $-1 -15.968523406827714 -6.6270272062107267 98.39385240541904 -0.62932038083071107 0 0.77714596973225614 I I #
point $-1 53.023868238352662 -6.6270272062107267 13.195341849530223 #
point $-1 61.740165410321353 4.7411711949441298 2.4316109669508563 #
straight-curve $-1 61.74016541032136 0 13.195341849530216 0 1 0 I I #
vertex $-1 $221 $296 #
point $-1 54.202631692442225 -3.378970520166483 3.308721833990286 #
vertex $-1 $225 $297 #
point $-1 54.202631692442225 1.493114508899879 3.308721833990286 #
point $-1 -61.74016541032136 -40.942357500455145 -13.195341849530216 #
straight-curve $-1 -61.74016541032136 0 -13.195341849530216 0 1 0 I I #
point $-1 -61.74016541032136 40.942357500455145 -13.195341849530216 #
straight-curve $-1 -61.74016541032136 40.942357500455145 0 0 0 -1 I I #
coedge $-1 $248 $247 $258 $287 reversed $120 $-1 #
edge $-1 $288 -40.942357500455145 $251 40.942357500455145 $247 $298 forward 7 unknown #
straight-curve $-1 -76.00130686450882 40.942357500455145 -9.9950274718819241 0 0 -1 I I #
point $-1 -76.00130686450882 40.942357500455145 -13.195341849530216 #
point $-1 -76.00130686450882 40.942357500455145 -6.7947130942336322 #
edge $-1 $262 -3.2003143776482919 $288 3.2003143776482919 $282 $299 forward 7 unknown #
vertex $-1 $283 $300 #
straight-curve $-1 -68.870736137415093 -40.942357500455145 -13.195341849530216 -1 0 0 I I #
straight-curve $-1 -76.00130686450882 0 -6.7947130942336322 0 -1 0 I I #
point $-1 -76.00130686450882 -40.942357500455145 -6.7947130942336322 #
straight-curve $-1 61.74016541032136 -6.6270272062107267 88.051270611284053 0 0 -1 I I #
point $-1 61.74016541032136 -6.6270272062107267 13.195341849530216 #
straight-curve $-1 61.740165410321353 -0.47146400281664924 2.4316109669508634 0 1 0 I I #
point $-1 61.740165410321353 -6.6270272062107267 2.4316109669508563 #
point $-1 52.09293216659777 -3.378970520166483 3.5304602173426036 #
point $-1 52.09293216659777 1.493114508899879 3.5304602173426036 #
straight-curve $-1 -76.00130686450882 0 -13.195341849530216 0 1 0 I I #
straight-curve $-1 -76.00130686450882 -40.942357500455145 -9.9950274718819241 0 0 -1 I I #
point $-1 -76.00130686450882 -40.942357500455145 -13.195341849530216 #
End-of-ACIS-data 