500 0 5 0           
7 Unknown 11 ACIS 5.0 NT 24 Fri Mar 26 20:32:11 1999 
-1 9.9999999999999995e-007 1e-010 
body $-1 $5 $-1 $6 #
body $-1 $7 $-1 $8 #
body $-1 $9 $-1 $10 #
body $-1 $11 $-1 $12 #
body $-1 $13 $-1 $14 #
lump $-1 $-1 $15 $0 #
transform $-1 1 0 0 0 1 0 0 0 1 54.673299356059452 38.132152679027818 9.6415565949200577 1 rotate no_reflect no_shear #
lump $-1 $-1 $16 $1 #
transform $-1 1 0 0 0 1 0 0 0 1 54.673299356059452 38.132152679027818 9.6415565949200577 1 rotate no_reflect no_shear #
lump $-1 $-1 $17 $2 #
transform $-1 1 0 0 0 1 0 0 0 1 54.673299356059452 38.132152679027818 9.6415565949200577 1 rotate no_reflect no_shear #
lump $-1 $-1 $18 $3 #
transform $-1 1 0 0 0 1 0 0 0 1 54.673299356059452 38.132152679027818 9.6415565949200577 1 rotate no_reflect no_shear #
lump $-1 $-1 $19 $4 #
transform $-1 1 0 0 0 1 0 0 0 1 54.673299356059452 38.132152679027818 9.6415565949200577 1 rotate no_reflect no_shear #
shell $-1 $-1 $-1 $20 $-1 $5 #
shell $-1 $-1 $-1 $21 $-1 $7 #
shell $-1 $-1 $-1 $22 $-1 $9 #
shell $-1 $-1 $-1 $23 $-1 $11 #
shell $-1 $-1 $-1 $24 $-1 $13 #
face $-1 $25 $26 $15 $-1 $27 reversed single #
face $-1 $28 $29 $16 $-1 $30 forward single #
face $-1 $31 $32 $17 $-1 $33 reversed single #
face $-1 $34 $35 $18 $-1 $36 forward single #
face $-1 $37 $38 $19 $-1 $39 forward single #
face $-1 $40 $41 $15 $-1 $42 forward single #
loop $-1 $-1 $43 $20 #
plane-surface $-1 -54.673299356059452 0 0 1 0 0 0 0 -1 forward_v I I I I #
face $-1 $44 $45 $16 $-1 $46 reversed single #
loop $-1 $-1 $47 $21 #
plane-surface $-1 -54.673299356059452 0 0 1 0 0 0 0 -1 forward_v I I I I #
face $-1 $48 $49 $17 $-1 $50 reversed single #
loop $-1 $-1 $51 $22 #
plane-surface $-1 30.48236224988208 28.870905160175333 157.65710076474195 0 1 0 0.5877852598018023 0 0.80901698891910034 forward_v I I I I #
face $-1 $52 $53 $18 $-1 $54 forward single #
loop $-1 $55 $56 $23 #
cone-surface $-1 50.973123449284856 31.516975879847472 6.6595632446407684 -0.5877852598018023 0 -0.80901698891910034 0.80901698891910034 0 -0.5877852598018023 1 I I 0 1 1 forward I I I I #
face $-1 $57 $58 $19 $-1 $59 forward single #
loop $-1 $60 $61 $24 #
cone-surface $-1 50.973123449284856 35.48608195935568 6.6595632446407684 -0.5877852598018023 0 -0.80901698891910034 0.80901698891910034 0 -0.5877852598018023 1 I I 0 1 1 forward I I I I #
face $-1 $62 $63 $15 $-1 $64 reversed single #
loop $-1 $-1 $65 $25 #
plane-surface $-1 0 0 9.6415565949200577 0 0 1 1 0 0 forward_v I I I I #
coedge $-1 $66 $67 $68 $69 reversed $26 $-1 #
face $-1 $70 $71 $16 $-1 $72 reversed single #
loop $-1 $-1 $73 $28 #
plane-surface $-1 0 0 -9.6415565949200577 0 0 1 1 0 0 forward_v I I I I #
coedge $-1 $74 $75 $76 $77 forward $29 $-1 #
face $-1 $78 $79 $17 $-1 $80 reversed single #
loop $-1 $-1 $81 $31 #
plane-surface $-1 -33.789956682564146 33.501528919601576 69.193844726118343 0.5877852598018023 0 0.80901698891910034 0.80901698891910034 0 -0.5877852598018023 forward_v I I I I #
coedge $-1 $82 $83 $84 $85 reversed $32 $-1 #
face $-1 $-1 $86 $18 $-1 $87 forward single #
loop $-1 $88 $89 $34 #
cone-surface $-1 50.22733737865709 31.516975879847472 5.6330768005259095 -0.5877852598018023 0 -0.80901698891910034 0.40450849445955017 0 -0.29389262990090115 1 I I -0.70710678118654813 0.70710678118654691 0.5 forward I I I I #
loop $-1 $-1 $90 $23 #
coedge $-1 $56 $56 $91 $92 reversed $35 $-1 #
face $-1 $-1 $93 $19 $-1 $94 forward single #
loop $-1 $95 $96 $37 #
cone-surface $-1 50.22733737865709 35.48608195935568 5.6330768005259095 -0.5877852598018023 0 -0.80901698891910034 0.40450849445955017 0 -0.29389262990090115 1 I I -0.70710678118654813 0.70710678118654691 0.5 forward I I I I #
loop $-1 $-1 $97 $24 #
coedge $-1 $61 $61 $98 $99 reversed $38 $-1 #
face $-1 $100 $101 $15 $-1 $102 reversed single #
loop $-1 $-1 $103 $40 #
plane-surface $-1 0 0 -9.6415565949200577 0 0 1 1 0 0 forward_v I I I I #
coedge $-1 $104 $105 $106 $107 forward $41 $-1 #
coedge $-1 $108 $43 $109 $110 reversed $26 $-1 #
coedge $-1 $43 $108 $111 $112 forward $26 $-1 #
coedge $-1 $113 $114 $43 $69 forward $63 $-1 #
edge $-1 $115 -38.132152679027818 $116 38.132152679027818 $43 $117 forward 7 unknown #
face $-1 $118 $119 $16 $-1 $120 reversed single #
loop $-1 $-1 $121 $44 #
plane-surface $-1 -59.977061760749308 -29.792112628091559 0 0 1 0 0 0 1 forward_v I I I I #
coedge $-1 $122 $123 $75 $124 forward $45 $-1 #
coedge $-1 $125 $47 $126 $127 reversed $29 $-1 #
coedge $-1 $47 $125 $73 $124 reversed $29 $-1 #
coedge $-1 $128 $129 $47 $77 reversed $130 $-1 #
edge $-1 $131 -9.6415565949200577 $132 9.6415565949200577 $76 $133 forward 7 unknown #
face $-1 $134 $135 $17 $-1 $136 forward single #
loop $-1 $-1 $137 $48 #
plane-surface $-1 0 38.132152679027818 0 0 -1 0 0 0 -1 forward_v I I I I #
coedge $-1 $138 $139 $140 $141 reversed $49 $-1 #
coedge $-1 $83 $51 $142 $143 reversed $32 $-1 #
coedge $-1 $51 $82 $138 $144 reversed $32 $-1 #
coedge $-1 $140 $145 $51 $85 forward $146 $-1 #
edge $-1 $147 69.186993787450916 $148 73.90702458869886 $84 $149 forward 7 unknown #
loop $-1 $-1 $91 $52 #
plane-surface $-1 -33.789956682564146 33.501528919601576 69.193844726118343 0.5877852598018023 0 0.80901698891910034 0.80901698891910034 0 -0.5877852598018023 forward_v I I I I #
loop $-1 $-1 $150 $34 #
coedge $-1 $89 $89 $90 $151 reversed $53 $-1 #
coedge $-1 $90 $90 $89 $151 forward $55 $-1 #
coedge $-1 $91 $91 $56 $92 forward $86 $-1 #
edge $-1 $152 0 $152 6.2831853071796004 $91 $153 forward 7 unknown #
loop $-1 $-1 $98 $57 #
plane-surface $-1 -33.789956682564146 33.501528919601576 69.193844726118343 0.5877852598018023 0 0.80901698891910034 0.80901698891910034 0 -0.5877852598018023 forward_v I I I I #
loop $-1 $-1 $154 $37 #
coedge $-1 $96 $96 $97 $155 reversed $58 $-1 #
coedge $-1 $97 $97 $96 $155 forward $60 $-1 #
coedge $-1 $98 $98 $61 $99 forward $93 $-1 #
edge $-1 $156 0 $156 6.2831853071796004 $98 $157 forward 7 unknown #
face $-1 $158 $159 $15 $-1 $160 reversed single #
loop $-1 $-1 $109 $62 #
plane-surface $-1 0 -38.132152679027818 0 0 1 0 0 0 1 forward_v I I I I #
coedge $-1 $114 $113 $161 $162 forward $63 $-1 #
coedge $-1 $163 $65 $164 $165 forward $41 $-1 #
coedge $-1 $65 $163 $166 $167 forward $41 $-1 #
coedge $-1 $168 $169 $65 $107 reversed $170 $-1 #
edge $-1 $171 -38.132152679027818 $172 38.132152679027818 $106 $173 forward 7 unknown #
coedge $-1 $67 $66 $163 $174 reversed $26 $-1 #
coedge $-1 $175 $166 $66 $110 forward $101 $-1 #
edge $-1 $176 -9.6415565949200577 $115 9.6415565949200577 $66 $177 forward 7 unknown #
coedge $-1 $164 $178 $67 $112 reversed $159 $-1 #
edge $-1 $179 -9.6415565949200577 $116 9.6415565949200577 $111 $180 forward 7 unknown #
coedge $-1 $103 $68 $178 $181 forward $63 $-1 #
coedge $-1 $68 $103 $175 $182 forward $63 $-1 #
vertex $-1 $69 $183 #
vertex $-1 $181 $184 #
straight-curve $-1 -54.673299356059452 0 -9.6415565949200577 0 1 0 I I #
face $-1 $185 $130 $16 $-1 $186 reversed single #
loop $-1 $-1 $187 $70 #
plane-surface $-1 -65.280824165439157 -26.987978279694431 0 1 0 0 0 0 -1 forward_v I I I I #
coedge $-1 $188 $189 $190 $191 forward $71 $-1 #
coedge $-1 $192 $73 $188 $193 forward $45 $-1 #
coedge $-1 $73 $192 $128 $194 forward $45 $-1 #
edge $-1 $131 24.183843931297304 $195 29.792112628091559 $73 $196 forward 7 unknown #
coedge $-1 $75 $74 $197 $198 forward $29 $-1 #
coedge $-1 $199 $200 $74 $127 forward $201 $-1 #
edge $-1 $202 -29.792112628091559 $132 -24.183843931297304 $126 $203 forward 7 unknown #
coedge $-1 $204 $76 $123 $194 reversed $130 $-1 #
coedge $-1 $76 $204 $199 $205 reversed $130 $-1 #
loop $-1 $-1 $76 $118 #
vertex $-1 $124 $206 #
vertex $-1 $205 $207 #
straight-curve $-1 -54.673299356059452 -24.183843931297304 0 0 0 1 I I #
face $-1 $-1 $146 $17 $-1 $208 reversed single #
loop $-1 $-1 $209 $78 #
plane-surface $-1 0 0 9.6415565949200577 0 0 1 1 0 0 forward_v I I I I #
coedge $-1 $210 $211 $139 $212 forward $79 $-1 #
coedge $-1 $213 $81 $83 $144 forward $49 $-1 #
coedge $-1 $81 $213 $137 $212 reversed $49 $-1 #
coedge $-1 $214 $84 $81 $141 forward $146 $-1 #
edge $-1 $148 12.120140700374545 $215 21.381388219227031 $140 $216 forward 7 unknown #
coedge $-1 $217 $209 $82 $143 forward $135 $-1 #
edge $-1 $218 32.935553299022942 $147 39.432118231118409 $142 $219 forward 7 unknown #
edge $-1 $148 -109.34659871211888 $218 -101.31640278165357 $83 $220 forward 7 unknown #
coedge $-1 $84 $214 $217 $221 reversed $146 $-1 #
loop $-1 $-1 $140 $134 #
vertex $-1 $221 $222 #
vertex $-1 $85 $223 #
straight-curve $-1 54.673299356059452 28.870905160175333 78.828550382370977 0 0 -1 I I #
coedge $-1 $150 $150 $-1 $224 reversed $88 $-1 #
edge $-1 $225 0 $225 6.2831853071796004 $89 $226 forward 7 unknown #
vertex $-1 $92 $227 #
ellipse-curve $-1 51.425016890011726 31.516975879847472 7.2815411942960884 0.5877852598018023 0 0.80901698891910034 0.80901698891910034 0 -0.5877852598018023 1 I I #
coedge $-1 $154 $154 $-1 $228 reversed $95 $-1 #
edge $-1 $229 0 $229 6.2831853071796004 $96 $230 forward 7 unknown #
vertex $-1 $99 $231 #
ellipse-curve $-1 51.425016890011726 35.48608195935568 7.2815411942960884 0.5877852598018023 0 0.80901698891910034 0.80901698891910034 0 -0.5877852598018023 1 I I #
face $-1 $-1 $170 $15 $-1 $232 reversed single #
loop $-1 $-1 $233 $100 #
plane-surface $-1 0 38.132152679027818 0 0 -1 0 0 0 -1 forward_v I I I I #
coedge $-1 $169 $168 $103 $162 reversed $170 $-1 #
edge $-1 $234 -38.132152679027818 $235 38.132152679027818 $161 $236 forward 7 unknown #
coedge $-1 $105 $104 $108 $174 forward $41 $-1 #
coedge $-1 $233 $111 $104 $165 reversed $159 $-1 #
edge $-1 $172 -54.673299356059452 $179 54.673299356059452 $164 $237 forward 7 unknown #
coedge $-1 $109 $238 $105 $167 reversed $101 $-1 #
edge $-1 $176 -54.673299356059452 $171 54.673299356059452 $166 $239 forward 7 unknown #
coedge $-1 $161 $106 $238 $240 forward $170 $-1 #
coedge $-1 $106 $161 $233 $241 reversed $170 $-1 #
loop $-1 $-1 $168 $158 #
vertex $-1 $107 $242 #
vertex $-1 $107 $243 #
straight-curve $-1 54.673299356059452 0 9.6415565949200577 0 1 0 I I #
edge $-1 $179 -38.132152679027818 $176 38.132152679027818 $108 $244 forward 7 unknown #
coedge $-1 $238 $109 $114 $182 reversed $101 $-1 #
vertex $-1 $174 $245 #
straight-curve $-1 -54.673299356059452 -38.132152679027818 0 0 0 -1 I I #
coedge $-1 $111 $233 $113 $181 reversed $159 $-1 #
vertex $-1 $165 $246 #
straight-curve $-1 -54.673299356059452 38.132152679027818 0 0 0 -1 I I #
edge $-1 $116 -54.673299356059452 $234 54.673299356059452 $178 $247 forward 7 unknown #
edge $-1 $235 -54.673299356059452 $115 54.673299356059452 $175 $248 forward 7 unknown #
point $-1 -54.673299356059452 -38.132152679027818 -9.6415565949200577 #
point $-1 -54.673299356059452 38.132152679027818 -9.6415565949200577 #
face $-1 $-1 $201 $16 $-1 $249 forward single #
plane-surface $-1 -59.977061760749308 -24.183843931297304 0 0 -1 0 0 0 -1 forward_v I I I I #
coedge $-1 $250 $251 $204 $252 forward $119 $-1 #
coedge $-1 $197 $121 $122 $193 reversed $71 $-1 #
coedge $-1 $121 $197 $200 $253 reversed $71 $-1 #
coedge $-1 $251 $250 $121 $191 reversed $119 $-1 #
edge $-1 $254 -9.6415565949200577 $255 9.6415565949200577 $190 $256 forward 7 unknown #
coedge $-1 $123 $122 $250 $257 forward $45 $-1 #
edge $-1 $195 -5.3037624046898486 $255 5.3037624046898486 $188 $258 forward 7 unknown #
edge $-1 $259 -5.3037624046898486 $131 5.3037624046898486 $128 $260 forward 7 unknown #
vertex $-1 $193 $261 #
straight-curve $-1 -54.673299356059452 0 -9.6415565949200577 0 -1 0 I I #
coedge $-1 $189 $188 $125 $198 reversed $71 $-1 #
edge $-1 $202 -9.6415565949200577 $195 9.6415565949200577 $197 $262 forward 7 unknown #
coedge $-1 $263 $126 $129 $205 forward $201 $-1 #
coedge $-1 $126 $263 $189 $253 forward $201 $-1 #
loop $-1 $-1 $126 $185 #
vertex $-1 $127 $264 #
straight-curve $-1 -54.673299356059452 0 9.6415565949200577 0 1 0 I I #
coedge $-1 $129 $128 $187 $252 reversed $130 $-1 #
edge $-1 $132 -5.3037624046898486 $265 5.3037624046898486 $129 $266 forward 7 unknown #
point $-1 -54.673299356059459 -24.183843931297304 -9.6415565949200577 #
point $-1 -54.673299356059459 -24.183843931297304 9.6415565949200577 #
plane-surface $-1 54.673299356059452 0 0 -1 0 0 0 0 1 forward_v I I I I #
coedge $-1 $142 $267 $213 $268 forward $135 $-1 #
coedge $-1 $211 $137 $267 $269 reversed $79 $-1 #
coedge $-1 $137 $210 $214 $270 forward $79 $-1 #
edge $-1 $215 -75.342713207087925 $271 -67.3125172766226 $137 $272 forward 7 unknown #
coedge $-1 $139 $138 $209 $268 reversed $49 $-1 #
coedge $-1 $145 $140 $211 $270 reversed $146 $-1 #
vertex $-1 $141 $273 #
straight-curve $-1 54.673299356059452 16.750764459800788 4.9215257936721208 0 1 0 I I #
coedge $-1 $267 $142 $145 $221 forward $135 $-1 #
vertex $-1 $143 $274 #
straight-curve $-1 15.24118112494104 28.870905160175333 9.6415565949200612 1 0 0 I I #
straight-curve $-1 -33.789956682564146 28.870905160175333 69.193844726118343 -0.80901698891910034 0 0.5877852598018023 I I #
edge $-1 $147 28.870905160175333 $275 38.132152679027818 $145 $276 forward 7 unknown #
point $-1 54.673299356059452 28.870905160175333 9.6415565949200577 #
point $-1 54.673299356059452 28.870905160175333 4.9215257936721173 #
edge $-1 $277 1 $277 0 $150 $-1 forward 7 unknown #
vertex $-1 $151 $278 #
ellipse-curve $-1 50.521230008557993 31.516975879847472 6.0375852949854592 0.5877852598018023 0 0.80901698891910034 0.80901698891910034 0 -0.5877852598018023 1 I I #
point $-1 52.234033878930816 31.516975879847472 6.6937559344942752 #
edge $-1 $279 1 $279 0 $154 $-1 forward 7 unknown #
vertex $-1 $155 $280 #
ellipse-curve $-1 50.521230008557993 35.48608195935568 6.0375852949854592 0.5877852598018023 0 0.80901698891910034 0.80901698891910034 0 -0.5877852598018023 1 I I #
point $-1 52.234033878930816 35.48608195935568 6.6937559344942752 #
plane-surface $-1 54.673299356059452 0 0 -1 0 0 0 0 1 forward_v I I I I #
coedge $-1 $178 $164 $169 $241 forward $159 $-1 #
vertex $-1 $162 $281 #
vertex $-1 $240 $282 #
straight-curve $-1 54.673299356059452 0 -9.6415565949200577 0 -1 0 I I #
straight-curve $-1 0 38.132152679027818 9.6415565949200577 -1 0 0 I I #
coedge $-1 $166 $175 $168 $240 reversed $101 $-1 #
straight-curve $-1 0 -38.132152679027818 9.6415565949200577 1 0 0 I I #
edge $-1 $171 -9.6415565949200577 $235 9.6415565949200577 $168 $283 forward 7 unknown #
edge $-1 $172 -9.6415565949200577 $234 9.6415565949200577 $169 $284 forward 7 unknown #
point $-1 54.673299356059452 -38.132152679027818 9.6415565949200577 #
point $-1 54.673299356059452 38.132152679027818 9.6415565949200577 #
straight-curve $-1 -54.673299356059452 0 9.6415565949200577 0 -1 0 I I #
point $-1 -54.673299356059452 -38.132152679027818 9.6415565949200577 #
point $-1 -54.673299356059452 38.132152679027818 9.6415565949200577 #
straight-curve $-1 0 38.132152679027818 -9.6415565949200577 1 0 0 I I #
straight-curve $-1 0 -38.132152679027818 -9.6415565949200577 -1 0 0 I I #
plane-surface $-1 0 0 9.6415565949200577 0 0 1 1 0 0 forward_v I I I I #
coedge $-1 $190 $187 $192 $257 reversed $119 $-1 #
coedge $-1 $187 $190 $263 $285 reversed $119 $-1 #
edge $-1 $265 -9.6415565949200577 $259 9.6415565949200577 $204 $286 forward 7 unknown #
edge $-1 $254 -5.3037624046898486 $202 5.3037624046898486 $189 $287 forward 7 unknown #
vertex $-1 $285 $288 #
vertex $-1 $257 $289 #
straight-curve $-1 -65.280824165439157 -29.792112628091559 0 0 0 -1 I I #
edge $-1 $255 -2.8041343483971275 $259 2.8041343483971275 $250 $290 forward 7 unknown #
straight-curve $-1 -59.977061760749308 -29.792112628091559 -9.6415565949200577 -1 0 0 I I #
vertex $-1 $194 $291 #
straight-curve $-1 -59.977061760749308 -24.183843931297304 -9.6415565949200577 1 0 0 I I #
point $-1 -54.673299356059459 -29.792112628091559 -9.6415565949200577 #
straight-curve $-1 -54.673299356059452 -29.792112628091559 0 0 0 -1 I I #
coedge $-1 $200 $199 $251 $285 forward $201 $-1 #
point $-1 -54.673299356059459 -29.792112628091559 9.6415565949200577 #
vertex $-1 $205 $292 #
straight-curve $-1 -59.977061760749308 -24.183843931297304 9.6415565949200577 -1 0 0 I I #
coedge $-1 $209 $217 $210 $269 forward $135 $-1 #
edge $-1 $271 -21.381388219227031 $218 -12.120140700374545 $209 $293 forward 7 unknown #
edge $-1 $275 -54.673299356059452 $271 -48.176734423963985 $210 $294 forward 7 unknown #
edge $-1 $275 -9.6415565949200577 $215 -4.9215257936721271 $214 $295 forward 7 unknown #
vertex $-1 $268 $296 #
straight-curve $-1 -6.2802356197341567 38.132152679027818 49.206862050272981 -0.80901698891910034 0 0.5877852598018023 I I #
point $-1 54.673299356059452 38.132152679027818 4.9215257936721271 #
point $-1 48.176734423963985 28.870905160175333 9.6415565949200541 #
vertex $-1 $221 $297 #
straight-curve $-1 54.673299356059452 0 9.6415565949200577 0 1 0 I I #
vertex $-1 $224 $298 #
point $-1 51.33024699747709 31.516975879847472 5.4498000351836566 #
vertex $-1 $228 $299 #
point $-1 51.33024699747709 35.48608195935568 5.4498000351836566 #
point $-1 54.673299356059452 38.132152679027818 -9.6415565949200577 #
point $-1 54.673299356059452 -38.132152679027818 -9.6415565949200577 #
straight-curve $-1 54.673299356059452 -38.132152679027818 0 0 0 -1 I I #
straight-curve $-1 54.673299356059452 38.132152679027818 0 0 0 -1 I I #
edge $-1 $265 -2.8041343483971275 $254 2.8041343483971275 $251 $300 forward 7 unknown #
straight-curve $-1 -65.280824165439157 -24.183843931297304 0 0 0 -1 I I #
straight-curve $-1 -59.977061760749308 -29.792112628091559 9.6415565949200577 1 0 0 I I #
point $-1 -65.280824165439157 -29.792112628091559 9.6415565949200577 #
point $-1 -65.280824165439157 -29.792112628091559 -9.6415565949200577 #
straight-curve $-1 -65.280824165439157 -26.987978279694431 -9.6415565949200577 0 1 0 I I #
point $-1 -65.280824165439157 -24.183843931297304 -9.6415565949200577 #
point $-1 -65.280824165439157 -24.183843931297304 9.6415565949200577 #
straight-curve $-1 48.176734423963978 16.750764459800788 9.6415565949200541 0 -1 0 I I #
straight-curve $-1 0 38.132152679027818 9.6415565949200577 -1 0 0 I I #
straight-curve $-1 54.673299356059452 38.132152679027818 0 0 0 -1 I I #
point $-1 48.176734423963985 38.132152679027818 9.6415565949200541 #
point $-1 54.673299356059452 38.132152679027818 9.6415565949200577 #
point $-1 49.933444748756187 31.516975879847472 5.2285683060663599 #
point $-1 49.933444748756187 35.48608195935568 5.2285683060663599 #
straight-curve $-1 -65.280824165439157 -26.987978279694431 9.6415565949200577 0 -1 0 I I #
End-of-ACIS-data 