500 0 21 0           
7 Unknown 11 ACIS 5.0 NT 24 Thu Mar 25 20:01:05 1999 
-1 9.9999999999999995e-007 1e-010 
body $-1 $21 $-1 $22 #
body $-1 $23 $-1 $24 #
body $-1 $25 $-1 $26 #
body $-1 $27 $-1 $28 #
body $-1 $29 $-1 $30 #
body $-1 $31 $-1 $32 #
body $-1 $33 $-1 $34 #
body $-1 $35 $-1 $36 #
body $-1 $37 $-1 $38 #
body $-1 $39 $-1 $40 #
body $-1 $41 $-1 $42 #
body $-1 $43 $-1 $44 #
body $-1 $45 $-1 $46 #
body $-1 $47 $-1 $48 #
body $-1 $49 $-1 $50 #
body $-1 $51 $-1 $52 #
body $-1 $53 $-1 $54 #
body $-1 $55 $-1 $56 #
body $-1 $57 $-1 $58 #
body $-1 $59 $-1 $60 #
body $-1 $61 $-1 $62 #
lump $-1 $-1 $63 $0 #
transform $-1 1 0 0 0 1 0 0 0 1 61.264076662495803 30.338497267494375 8.1145550066239664 1 rotate no_reflect no_shear #
lump $-1 $-1 $64 $1 #
transform $-1 1 0 0 0 1 0 0 0 1 61.264076662495803 30.338497267494375 8.1145550066239664 1 rotate no_reflect no_shear #
lump $-1 $-1 $65 $2 #
transform $-1 1 0 0 0 1 0 0 0 1 61.264076662495803 30.338497267494375 8.1145550066239664 1 rotate no_reflect no_shear #
lump $-1 $-1 $66 $3 #
transform $-1 1 0 0 0 1 0 0 0 1 61.264076662495803 30.338497267494375 8.1145550066239664 1 rotate no_reflect no_shear #
lump $-1 $-1 $67 $4 #
transform $-1 1 0 0 0 1 0 0 0 1 61.264076662495803 30.338497267494375 8.1145550066239664 1 rotate no_reflect no_shear #
lump $-1 $-1 $68 $5 #
transform $-1 1 0 0 0 1 0 0 0 1 61.264076662495803 30.338497267494375 8.1145550066239664 1 rotate no_reflect no_shear #
lump $-1 $-1 $69 $6 #
transform $-1 1 0 0 0 1 0 0 0 1 61.264076662495803 30.338497267494375 8.1145550066239664 1 rotate no_reflect no_shear #
lump $-1 $-1 $70 $7 #
transform $-1 1 0 0 0 1 0 0 0 1 61.264076662495803 30.338497267494375 8.1145550066239664 1 rotate no_reflect no_shear #
lump $-1 $-1 $71 $8 #
transform $-1 1 0 0 0 1 0 0 0 1 61.264076662495803 30.338497267494375 8.1145550066239664 1 rotate no_reflect no_shear #
lump $-1 $-1 $72 $9 #
transform $-1 1 0 0 0 1 0 0 0 1 61.264076662495803 30.338497267494375 8.1145550066239664 1 rotate no_reflect no_shear #
lump $-1 $-1 $73 $10 #
transform $-1 1 0 0 0 1 0 0 0 1 61.264076662495803 30.338497267494375 8.1145550066239664 1 rotate no_reflect no_shear #
lump $-1 $-1 $74 $11 #
transform $-1 1 0 0 0 1 0 0 0 1 61.264076662495803 30.338497267494375 8.1145550066239664 1 rotate no_reflect no_shear #
lump $-1 $-1 $75 $12 #
transform $-1 1 0 0 0 1 0 0 0 1 61.264076662495803 30.338497267494375 8.1145550066239664 1 rotate no_reflect no_shear #
lump $-1 $-1 $76 $13 #
transform $-1 1 0 0 0 1 0 0 0 1 61.264076662495803 30.338497267494375 8.1145550066239664 1 rotate no_reflect no_shear #
lump $-1 $-1 $77 $14 #
transform $-1 1 0 0 0 1 0 0 0 1 61.264076662495803 30.338497267494375 8.1145550066239664 1 rotate no_reflect no_shear #
lump $-1 $-1 $78 $15 #
transform $-1 1 0 0 0 1 0 0 0 1 61.264076662495803 30.338497267494375 8.1145550066239664 1 rotate no_reflect no_shear #
lump $-1 $-1 $79 $16 #
transform $-1 1 0 0 0 1 0 0 0 1 61.264076662495803 30.338497267494375 8.1145550066239664 1 rotate no_reflect no_shear #
lump $-1 $-1 $80 $17 #
transform $-1 1 0 0 0 1 0 0 0 1 61.264076662495803 30.338497267494375 8.1145550066239664 1 rotate no_reflect no_shear #
lump $-1 $-1 $81 $18 #
transform $-1 1 0 0 0 1 0 0 0 1 61.264076662495803 30.338497267494375 8.1145550066239664 1 rotate no_reflect no_shear #
lump $-1 $-1 $82 $19 #
transform $-1 1 0 0 0 1 0 0 0 1 61.264076662495803 30.338497267494375 8.1145550066239664 1 rotate no_reflect no_shear #
lump $-1 $-1 $83 $20 #
transform $-1 1 0 0 0 1 0 0 0 1 61.264076662495803 30.338497267494375 8.1145550066239664 1 rotate no_reflect no_shear #
shell $-1 $-1 $-1 $84 $-1 $21 #
shell $-1 $-1 $-1 $85 $-1 $23 #
shell $-1 $-1 $-1 $86 $-1 $25 #
shell $-1 $-1 $-1 $87 $-1 $27 #
shell $-1 $-1 $-1 $88 $-1 $29 #
shell $-1 $-1 $-1 $89 $-1 $31 #
shell $-1 $-1 $-1 $90 $-1 $33 #
shell $-1 $-1 $-1 $91 $-1 $35 #
shell $-1 $-1 $-1 $92 $-1 $37 #
shell $-1 $-1 $-1 $93 $-1 $39 #
shell $-1 $-1 $-1 $94 $-1 $41 #
shell $-1 $-1 $-1 $95 $-1 $43 #
shell $-1 $-1 $-1 $96 $-1 $45 #
shell $-1 $-1 $-1 $97 $-1 $47 #
shell $-1 $-1 $-1 $98 $-1 $49 #
shell $-1 $-1 $-1 $99 $-1 $51 #
shell $-1 $-1 $-1 $100 $-1 $53 #
shell $-1 $-1 $-1 $101 $-1 $55 #
shell $-1 $-1 $-1 $102 $-1 $57 #
shell $-1 $-1 $-1 $103 $-1 $59 #
shell $-1 $-1 $-1 $104 $-1 $61 #
face $-1 $105 $106 $63 $-1 $107 forward single #
face $-1 $108 $109 $64 $-1 $110 reversed single #
face $-1 $111 $112 $65 $-1 $113 reversed single #
face $-1 $114 $115 $66 $-1 $116 forward single #
face $-1 $117 $118 $67 $-1 $119 forward single #
face $-1 $120 $121 $68 $-1 $122 reversed single #
face $-1 $123 $124 $69 $-1 $125 forward single #
face $-1 $126 $127 $70 $-1 $128 forward single #
face $-1 $129 $130 $71 $-1 $131 forward single #
face $-1 $132 $133 $72 $-1 $134 reversed single #
face $-1 $135 $136 $73 $-1 $137 forward single #
face $-1 $138 $139 $74 $-1 $140 forward single #
face $-1 $141 $142 $75 $-1 $143 forward single #
face $-1 $144 $145 $76 $-1 $146 reversed single #
face $-1 $147 $148 $77 $-1 $149 forward single #
face $-1 $150 $151 $78 $-1 $152 forward single #
face $-1 $153 $154 $79 $-1 $155 forward single #
face $-1 $156 $157 $80 $-1 $158 reversed single #
face $-1 $159 $160 $81 $-1 $161 forward single #
face $-1 $162 $163 $82 $-1 $164 forward single #
face $-1 $165 $166 $83 $-1 $167 forward single #
face $-1 $168 $169 $63 $-1 $170 reversed single #
loop $-1 $-1 $171 $84 #
plane-surface $-1 0 0 8.1145550066239664 0 0 1 1 0 0 forward_v I I I I #
face $-1 $172 $173 $64 $-1 $174 reversed single #
loop $-1 $-1 $175 $85 #
plane-surface $-1 -56.139173147473663 -26.522819337405988 0 0 1 0 0 0 1 forward_v I I I I #
face $-1 $176 $177 $65 $-1 $178 reversed single #
loop $-1 $-1 $179 $86 #
plane-surface $-1 17.169678560418575 64.930690885576851 132.97951346554925 1 0 0 0 -0.6560590369687036 -0.75470957328743171 forward_v I I I I #
face $-1 $180 $181 $66 $-1 $182 forward single #
loop $-1 $183 $184 $87 #
cone-surface $-1 26.288950233866551 25.297637632876874 3.5146659086975518 0 -0.6560590369687036 -0.75470957328743171 2 0 0 1 I I 0 1 2 forward I I I I #
face $-1 $185 $186 $67 $-1 $187 forward single #
loop $-1 $188 $189 $88 #
cone-surface $-1 39.967857744038533 25.297637632876874 3.5146659086975518 0 -0.6560590369687036 -0.75470957328743171 2 0 0 1 I I 0 1 2 forward I I I I #
face $-1 $190 $191 $68 $-1 $192 reversed single #
loop $-1 $-1 $193 $89 #
plane-surface $-1 -29.952560090474716 -137.50403577921145 62.36195338974472 -1 0 0 0 -0.87461971476443456 0.48480960649040278 forward_v I I I I #
face $-1 $194 $195 $69 $-1 $196 forward single #
loop $-1 $197 $198 $90 #
cone-surface $-1 -39.901942282985743 -27.642747264321038 4.8345871792094215 0 0.87461971476443456 -0.48480960649040278 1 0 0 1 I I 0 1 1 forward I I I I #
face $-1 $199 $200 $70 $-1 $201 forward single #
loop $-1 $202 $203 $91 #
cone-surface $-1 -36.170923960794113 -27.642747264321038 4.8345871792094215 0 0.87461971476443456 -0.48480960649040278 1 0 0 1 I I 0 1 1 forward I I I I #
face $-1 $204 $205 $71 $-1 $206 forward single #
loop $-1 $207 $208 $92 #
cone-surface $-1 -32.439905638602468 -27.642747264321038 4.8345871792094215 0 0.87461971476443456 -0.48480960649040278 1 0 0 1 I I 0 1 1 forward I I I I #
face $-1 $209 $210 $72 $-1 $211 reversed single #
loop $-1 $-1 $212 $93 #
plane-surface $-1 -1.8829735167378807 -137.50403577921145 62.36195338974472 -1 0 0 0 -0.87461971476443456 0.48480960649040278 forward_v I I I I #
face $-1 $213 $214 $73 $-1 $215 forward single #
loop $-1 $216 $217 $94 #
cone-surface $-1 -11.832355709248922 -27.642747264321038 4.8345871792094215 0 0.87461971476443456 -0.48480960649040278 1 0 0 1 I I 0 1 1 forward I I I I #
face $-1 $218 $219 $74 $-1 $220 forward single #
loop $-1 $221 $222 $95 #
cone-surface $-1 -8.1013373870572778 -27.642747264321038 4.8345871792094215 0 0.87461971476443456 -0.48480960649040278 1 0 0 1 I I 0 1 1 forward I I I I #
face $-1 $223 $224 $75 $-1 $225 forward single #
loop $-1 $226 $227 $96 #
cone-surface $-1 -4.3703190648656474 -27.642747264321038 4.8345871792094215 0 0.87461971476443456 -0.48480960649040278 1 0 0 1 I I 0 1 1 forward I I I I #
face $-1 $228 $229 $76 $-1 $230 reversed single #
loop $-1 $-1 $231 $97 #
plane-surface $-1 26.186613056998947 -137.50403577921145 62.36195338974472 -1 0 0 0 -0.87461971476443456 0.48480960649040278 forward_v I I I I #
face $-1 $232 $233 $77 $-1 $234 forward single #
loop $-1 $235 $236 $98 #
cone-surface $-1 16.237230864487906 -27.642747264321038 4.8345871792094215 0 0.87461971476443456 -0.48480960649040278 1 0 0 1 I I 0 1 1 forward I I I I #
face $-1 $237 $238 $78 $-1 $239 forward single #
loop $-1 $240 $241 $99 #
cone-surface $-1 19.96824918667955 -27.642747264321038 4.8345871792094215 0 0.87461971476443456 -0.48480960649040278 1 0 0 1 I I 0 1 1 forward I I I I #
face $-1 $242 $243 $79 $-1 $244 forward single #
loop $-1 $245 $246 $100 #
cone-surface $-1 23.699267508871181 -27.642747264321038 4.8345871792094215 0 0.87461971476443456 -0.48480960649040278 1 0 0 1 I I 0 1 1 forward I I I I #
face $-1 $247 $248 $80 $-1 $249 reversed single #
loop $-1 $-1 $250 $101 #
plane-surface $-1 54.256199630735779 -137.50403577921145 62.36195338974472 -1 0 0 0 -0.87461971476443456 0.48480960649040278 forward_v I I I I #
face $-1 $251 $252 $81 $-1 $253 forward single #
loop $-1 $254 $255 $102 #
cone-surface $-1 44.306817438224734 -27.642747264321038 4.8345871792094215 0 0.87461971476443456 -0.48480960649040278 1 0 0 1 I I 0 1 1 forward I I I I #
face $-1 $256 $257 $82 $-1 $258 forward single #
loop $-1 $259 $260 $103 #
cone-surface $-1 48.037835760416378 -27.642747264321038 4.8345871792094215 0 0.87461971476443456 -0.48480960649040278 1 0 0 1 I I 0 1 1 forward I I I I #
face $-1 $261 $262 $83 $-1 $263 forward single #
loop $-1 $264 $265 $104 #
cone-surface $-1 51.768854082608009 -27.642747264321038 4.8345871792094215 0 0.87461971476443456 -0.48480960649040278 1 0 0 1 I I 0 1 1 forward I I I I #
face $-1 $266 $267 $63 $-1 $268 reversed single #
loop $-1 $-1 $269 $105 #
plane-surface $-1 0 0 -8.1145550066239664 0 0 1 1 0 0 forward_v I I I I #
coedge $-1 $270 $271 $272 $273 forward $106 $-1 #
face $-1 $274 $275 $64 $-1 $276 reversed single #
loop $-1 $-1 $277 $108 #
plane-surface $-1 -56.139173147473663 -23.522819337405988 0 0 -1 0 0 0 -1 forward_v I I I I #
coedge $-1 $278 $279 $280 $281 reversed $109 $-1 #
face $-1 $282 $283 $65 $-1 $284 reversed single #
loop $-1 $-1 $285 $111 #
plane-surface $-1 33.128403988952549 -15.455011386370799 40.506343153947824 0 0.6560590369687036 0.75470957328743171 1 0 0 forward_v I I I I #
coedge $-1 $286 $287 $288 $289 reversed $112 $-1 #
face $-1 $-1 $290 $66 $-1 $291 forward single #
loop $-1 $292 $293 $114 #
cone-surface $-1 26.288950233866551 23.866228816965545 1.8680184642117865 0 -0.6560590369687036 -0.75470957328743171 1 0 0 1 I I -0.70710678118654746 0.70710678118654746 1 forward I I I I #
loop $-1 $-1 $294 $87 #
coedge $-1 $184 $184 $295 $296 reversed $115 $-1 #
face $-1 $-1 $297 $67 $-1 $298 forward single #
loop $-1 $299 $300 $117 #
cone-surface $-1 39.967857744038533 23.866228816965545 1.8680184642117865 0 -0.6560590369687036 -0.75470957328743171 1 0 0 1 I I -0.70710678118654746 0.70710678118654746 1 forward I I I I #
loop $-1 $-1 $301 $88 #
coedge $-1 $189 $189 $302 $303 reversed $118 $-1 #
face $-1 $304 $305 $68 $-1 $306 reversed single #
loop $-1 $-1 $307 $120 #
plane-surface $-1 -36.170923960794113 -30.33849726749439 2.9591275922598044 0 -0.87461971476443456 0.48480960649040278 1 0 0 forward_v I I I I #
coedge $-1 $308 $309 $310 $311 reversed $121 $-1 #
face $-1 $-1 $312 $69 $-1 $313 forward single #
loop $-1 $314 $315 $123 #
cone-surface $-1 -39.901942282985743 -25.938537390711467 3.8899282557317534 0 0.87461971476443456 -0.48480960649040278 0.5 0 0 1 I I -0.70710678118654724 0.70710678118654791 0.5 forward I I I I #
loop $-1 $-1 $316 $90 #
coedge $-1 $198 $198 $317 $318 reversed $124 $-1 #
face $-1 $-1 $319 $70 $-1 $320 forward single #
loop $-1 $321 $322 $126 #
cone-surface $-1 -36.170923960794113 -25.938537390711467 3.8899282557317534 0 0.87461971476443456 -0.48480960649040278 0.5 0 0 1 I I -0.70710678118654724 0.70710678118654791 0.5 forward I I I I #
loop $-1 $-1 $323 $91 #
coedge $-1 $203 $203 $324 $325 reversed $127 $-1 #
face $-1 $-1 $326 $71 $-1 $327 forward single #
loop $-1 $328 $329 $129 #
cone-surface $-1 -32.439905638602468 -25.938537390711467 3.8899282557317534 0 0.87461971476443456 -0.48480960649040278 0.5 0 0 1 I I -0.70710678118654724 0.70710678118654791 0.5 forward I I I I #
loop $-1 $-1 $330 $92 #
coedge $-1 $208 $208 $331 $332 reversed $130 $-1 #
face $-1 $333 $334 $72 $-1 $335 reversed single #
loop $-1 $-1 $336 $132 #
plane-surface $-1 -8.1013373870572778 -30.33849726749439 2.9591275922598044 0 -0.87461971476443456 0.48480960649040278 1 0 0 forward_v I I I I #
coedge $-1 $337 $338 $339 $340 reversed $133 $-1 #
face $-1 $-1 $341 $73 $-1 $342 forward single #
loop $-1 $343 $344 $135 #
cone-surface $-1 -11.832355709248922 -25.938537390711467 3.8899282557317534 0 0.87461971476443456 -0.48480960649040278 0.5 0 0 1 I I -0.70710678118654724 0.70710678118654791 0.5 forward I I I I #
loop $-1 $-1 $345 $94 #
coedge $-1 $217 $217 $346 $347 reversed $136 $-1 #
face $-1 $-1 $348 $74 $-1 $349 forward single #
loop $-1 $350 $351 $138 #
cone-surface $-1 -8.1013373870572778 -25.938537390711467 3.8899282557317534 0 0.87461971476443456 -0.48480960649040278 0.5 0 0 1 I I -0.70710678118654724 0.70710678118654791 0.5 forward I I I I #
loop $-1 $-1 $352 $95 #
coedge $-1 $222 $222 $353 $354 reversed $139 $-1 #
face $-1 $-1 $355 $75 $-1 $356 forward single #
loop $-1 $357 $358 $141 #
cone-surface $-1 -4.3703190648656474 -25.938537390711467 3.8899282557317534 0 0.87461971476443456 -0.48480960649040278 0.5 0 0 1 I I -0.70710678118654724 0.70710678118654791 0.5 forward I I I I #
loop $-1 $-1 $359 $96 #
coedge $-1 $227 $227 $360 $361 reversed $142 $-1 #
face $-1 $362 $363 $76 $-1 $364 reversed single #
loop $-1 $-1 $365 $144 #
plane-surface $-1 19.96824918667955 -30.33849726749439 2.9591275922598044 0 -0.87461971476443456 0.48480960649040278 1 0 0 forward_v I I I I #
coedge $-1 $366 $367 $368 $369 reversed $145 $-1 #
face $-1 $-1 $370 $77 $-1 $371 forward single #
loop $-1 $372 $373 $147 #
cone-surface $-1 16.237230864487906 -25.938537390711467 3.8899282557317534 0 0.87461971476443456 -0.48480960649040278 0.5 0 0 1 I I -0.70710678118654724 0.70710678118654791 0.5 forward I I I I #
loop $-1 $-1 $374 $98 #
coedge $-1 $236 $236 $375 $376 reversed $148 $-1 #
face $-1 $-1 $377 $78 $-1 $378 forward single #
loop $-1 $379 $380 $150 #
cone-surface $-1 19.96824918667955 -25.938537390711467 3.8899282557317534 0 0.87461971476443456 -0.48480960649040278 0.5 0 0 1 I I -0.70710678118654724 0.70710678118654791 0.5 forward I I I I #
loop $-1 $-1 $381 $99 #
coedge $-1 $241 $241 $382 $383 reversed $151 $-1 #
face $-1 $-1 $384 $79 $-1 $385 forward single #
loop $-1 $386 $387 $153 #
cone-surface $-1 23.699267508871181 -25.938537390711467 3.8899282557317534 0 0.87461971476443456 -0.48480960649040278 0.5 0 0 1 I I -0.70710678118654724 0.70710678118654791 0.5 forward I I I I #
loop $-1 $-1 $388 $100 #
coedge $-1 $246 $246 $389 $390 reversed $154 $-1 #
face $-1 $391 $392 $80 $-1 $393 reversed single #
loop $-1 $-1 $394 $156 #
plane-surface $-1 48.037835760416378 -30.33849726749439 2.9591275922598044 0 -0.87461971476443456 0.48480960649040278 1 0 0 forward_v I I I I #
coedge $-1 $395 $396 $397 $398 reversed $157 $-1 #
face $-1 $-1 $399 $81 $-1 $400 forward single #
loop $-1 $401 $402 $159 #
cone-surface $-1 44.306817438224734 -25.938537390711467 3.8899282557317534 0 0.87461971476443456 -0.48480960649040278 0.5 0 0 1 I I -0.70710678118654724 0.70710678118654791 0.5 forward I I I I #
loop $-1 $-1 $403 $102 #
coedge $-1 $255 $255 $404 $405 reversed $160 $-1 #
face $-1 $-1 $406 $82 $-1 $407 forward single #
loop $-1 $408 $409 $162 #
cone-surface $-1 48.037835760416378 -25.938537390711467 3.8899282557317534 0 0.87461971476443456 -0.48480960649040278 0.5 0 0 1 I I -0.70710678118654724 0.70710678118654791 0.5 forward I I I I #
loop $-1 $-1 $410 $103 #
coedge $-1 $260 $260 $411 $412 reversed $163 $-1 #
face $-1 $-1 $413 $83 $-1 $414 forward single #
loop $-1 $415 $416 $165 #
cone-surface $-1 51.768854082608009 -25.938537390711467 3.8899282557317534 0 0.87461971476443456 -0.48480960649040278 0.5 0 0 1 I I -0.70710678118654724 0.70710678118654791 0.5 forward I I I I #
loop $-1 $-1 $417 $104 #
coedge $-1 $265 $265 $418 $419 reversed $166 $-1 #
face $-1 $420 $421 $63 $-1 $422 reversed single #
loop $-1 $-1 $423 $168 #
plane-surface $-1 0 -30.338497267494375 0 0 1 0 0 0 1 forward_v I I I I #
coedge $-1 $424 $425 $426 $427 forward $169 $-1 #
coedge $-1 $428 $171 $429 $430 forward $106 $-1 #
coedge $-1 $171 $428 $431 $432 forward $106 $-1 #
coedge $-1 $433 $434 $171 $273 reversed $435 $-1 #
edge $-1 $436 -30.338497267494375 $437 30.338497267494375 $272 $438 forward 7 unknown #
face $-1 $439 $440 $64 $-1 $441 reversed single #
loop $-1 $-1 $442 $172 #
plane-surface $-1 -51.014269632451523 -25.022819337405988 0 -1 0 0 0 0 1 forward_v I I I I #
coedge $-1 $443 $444 $445 $446 forward $173 $-1 #
coedge $-1 $447 $175 $448 $449 reversed $109 $-1 #
coedge $-1 $175 $447 $450 $451 reversed $109 $-1 #
coedge $-1 $452 $453 $175 $281 forward $454 $-1 #
edge $-1 $455 -8.1145550066239664 $456 8.1145550066239664 $280 $457 forward 7 unknown #
face $-1 $458 $459 $65 $-1 $460 reversed single #
loop $-1 $-1 $461 $176 #
plane-surface $-1 49.087129417486523 64.930690885576851 132.97951346554925 -1 0 0 0 0.6560590369687036 0.75470957328743171 forward_v I I I I #
coedge $-1 $462 $463 $464 $465 reversed $177 $-1 #
coedge $-1 $287 $179 $466 $467 reversed $112 $-1 #
coedge $-1 $179 $286 $462 $468 reversed $112 $-1 #
coedge $-1 $464 $469 $179 $289 forward $470 $-1 #
edge $-1 $471 2.1268481752940502 $472 10.657867886643736 $288 $473 forward 7 unknown #
loop $-1 $-1 $295 $180 #
plane-surface $-1 33.128403988952549 -15.455011386370799 40.506343153947824 0 0.6560590369687036 0.75470957328743171 1 0 0 forward_v I I I I #
loop $-1 $-1 $474 $114 #
coedge $-1 $293 $293 $294 $475 reversed $181 $-1 #
coedge $-1 $294 $294 $293 $475 forward $183 $-1 #
coedge $-1 $295 $295 $184 $296 forward $290 $-1 #
edge $-1 $476 8.7189966155317087e-016 $476 6.2831853071796013 $295 $477 forward 7 unknown #
loop $-1 $-1 $302 $185 #
plane-surface $-1 33.128403988952549 -15.455011386370799 40.506343153947824 0 0.6560590369687036 0.75470957328743171 1 0 0 forward_v I I I I #
loop $-1 $-1 $478 $117 #
coedge $-1 $300 $300 $301 $479 reversed $186 $-1 #
coedge $-1 $301 $301 $300 $479 forward $188 $-1 #
coedge $-1 $302 $302 $189 $303 forward $297 $-1 #
edge $-1 $480 8.7189966155317087e-016 $480 6.2831853071796013 $302 $481 forward 7 unknown #
face $-1 $482 $483 $68 $-1 $484 forward single #
loop $-1 $-1 $485 $190 #
plane-surface $-1 -42.389287831113506 -137.50403577921145 62.36195338974472 1 0 0 0 0.87461971476443456 -0.48480960649040278 forward_v I I I I #
coedge $-1 $486 $487 $488 $489 reversed $191 $-1 #
coedge $-1 $309 $193 $490 $491 reversed $121 $-1 #
coedge $-1 $193 $308 $486 $492 reversed $121 $-1 #
coedge $-1 $488 $493 $193 $311 forward $483 $-1 #
edge $-1 $494 38.413520622111349 $495 41.271220596003303 $310 $496 forward 7 unknown #
loop $-1 $-1 $317 $194 #
plane-surface $-1 -36.170923960794113 -30.33849726749439 2.9591275922598044 0 -0.87461971476443456 0.48480960649040278 1 0 0 forward_v I I I I #
loop $-1 $-1 $497 $123 #
coedge $-1 $315 $315 $316 $498 reversed $195 $-1 #
coedge $-1 $316 $316 $315 $498 forward $197 $-1 #
coedge $-1 $317 $317 $198 $318 forward $312 $-1 #
edge $-1 $499 -1.9929490515016641e-015 $499 6.2831853071795987 $317 $500 forward 7 unknown #
loop $-1 $-1 $324 $199 #
plane-surface $-1 -36.170923960794113 -30.33849726749439 2.9591275922598044 0 -0.87461971476443456 0.48480960649040278 1 0 0 forward_v I I I I #
loop $-1 $-1 $501 $126 #
coedge $-1 $322 $322 $323 $502 reversed $200 $-1 #
coedge $-1 $323 $323 $322 $502 forward $202 $-1 #
coedge $-1 $324 $324 $203 $325 forward $319 $-1 #
edge $-1 $503 -1.9929490515016641e-015 $503 6.2831853071795987 $324 $504 forward 7 unknown #
loop $-1 $-1 $331 $204 #
plane-surface $-1 -36.170923960794113 -30.33849726749439 2.9591275922598044 0 -0.87461971476443456 0.48480960649040278 1 0 0 forward_v I I I I #
loop $-1 $-1 $505 $129 #
coedge $-1 $329 $329 $330 $506 reversed $205 $-1 #
coedge $-1 $330 $330 $329 $506 forward $207 $-1 #
coedge $-1 $331 $331 $208 $332 forward $326 $-1 #
edge $-1 $507 -1.9929490515016641e-015 $507 6.2831853071795987 $331 $508 forward 7 unknown #
face $-1 $509 $510 $72 $-1 $511 reversed single #
loop $-1 $-1 $512 $209 #
plane-surface $-1 -14.319701257376675 -137.50403577921145 62.36195338974472 1 0 0 0 0.87461971476443456 -0.48480960649040278 forward_v I I I I #
coedge $-1 $513 $514 $515 $516 reversed $210 $-1 #
coedge $-1 $338 $212 $517 $518 reversed $133 $-1 #
coedge $-1 $212 $337 $513 $519 reversed $133 $-1 #
coedge $-1 $515 $520 $212 $340 forward $521 $-1 #
edge $-1 $522 38.413520622111349 $523 41.271220596003303 $339 $524 forward 7 unknown #
loop $-1 $-1 $346 $213 #
plane-surface $-1 -8.1013373870572778 -30.33849726749439 2.9591275922598044 0 -0.87461971476443456 0.48480960649040278 1 0 0 forward_v I I I I #
loop $-1 $-1 $525 $135 #
coedge $-1 $344 $344 $345 $526 reversed $214 $-1 #
coedge $-1 $345 $345 $344 $526 forward $216 $-1 #
coedge $-1 $346 $346 $217 $347 forward $341 $-1 #
edge $-1 $527 -1.9929490515016641e-015 $527 6.2831853071795987 $346 $528 forward 7 unknown #
loop $-1 $-1 $353 $218 #
plane-surface $-1 -8.1013373870572778 -30.33849726749439 2.9591275922598044 0 -0.87461971476443456 0.48480960649040278 1 0 0 forward_v I I I I #
loop $-1 $-1 $529 $138 #
coedge $-1 $351 $351 $352 $530 reversed $219 $-1 #
coedge $-1 $352 $352 $351 $530 forward $221 $-1 #
coedge $-1 $353 $353 $222 $354 forward $348 $-1 #
edge $-1 $531 -1.9929490515016641e-015 $531 6.2831853071795987 $353 $532 forward 7 unknown #
loop $-1 $-1 $360 $223 #
plane-surface $-1 -8.1013373870572778 -30.33849726749439 2.9591275922598044 0 -0.87461971476443456 0.48480960649040278 1 0 0 forward_v I I I I #
loop $-1 $-1 $533 $141 #
coedge $-1 $358 $358 $359 $534 reversed $224 $-1 #
coedge $-1 $359 $359 $358 $534 forward $226 $-1 #
coedge $-1 $360 $360 $227 $361 forward $355 $-1 #
edge $-1 $535 -1.9929490515016641e-015 $535 6.2831853071795987 $360 $536 forward 7 unknown #
face $-1 $537 $538 $76 $-1 $539 reversed single #
loop $-1 $-1 $540 $228 #
plane-surface $-1 13.749885316360153 -137.50403577921145 62.36195338974472 1 0 0 0 0.87461971476443456 -0.48480960649040278 forward_v I I I I #
coedge $-1 $541 $542 $543 $544 reversed $229 $-1 #
coedge $-1 $367 $231 $545 $546 reversed $145 $-1 #
coedge $-1 $231 $366 $541 $547 reversed $145 $-1 #
coedge $-1 $543 $548 $231 $369 forward $549 $-1 #
edge $-1 $550 38.413520622111349 $551 41.271220596003303 $368 $552 forward 7 unknown #
loop $-1 $-1 $375 $232 #
plane-surface $-1 19.96824918667955 -30.33849726749439 2.9591275922598044 0 -0.87461971476443456 0.48480960649040278 1 0 0 forward_v I I I I #
loop $-1 $-1 $553 $147 #
coedge $-1 $373 $373 $374 $554 reversed $233 $-1 #
coedge $-1 $374 $374 $373 $554 forward $235 $-1 #
coedge $-1 $375 $375 $236 $376 forward $370 $-1 #
edge $-1 $555 -1.9929490515016641e-015 $555 6.2831853071795987 $375 $556 forward 7 unknown #
loop $-1 $-1 $382 $237 #
plane-surface $-1 19.96824918667955 -30.33849726749439 2.9591275922598044 0 -0.87461971476443456 0.48480960649040278 1 0 0 forward_v I I I I #
loop $-1 $-1 $557 $150 #
coedge $-1 $380 $380 $381 $558 reversed $238 $-1 #
coedge $-1 $381 $381 $380 $558 forward $240 $-1 #
coedge $-1 $382 $382 $241 $383 forward $377 $-1 #
edge $-1 $559 -1.9929490515016641e-015 $559 6.2831853071795987 $382 $560 forward 7 unknown #
loop $-1 $-1 $389 $242 #
plane-surface $-1 19.96824918667955 -30.33849726749439 2.9591275922598044 0 -0.87461971476443456 0.48480960649040278 1 0 0 forward_v I I I I #
loop $-1 $-1 $561 $153 #
coedge $-1 $387 $387 $388 $562 reversed $243 $-1 #
coedge $-1 $388 $388 $387 $562 forward $245 $-1 #
coedge $-1 $389 $389 $246 $390 forward $384 $-1 #
edge $-1 $563 -1.9929490515016641e-015 $563 6.2831853071795987 $389 $564 forward 7 unknown #
face $-1 $565 $566 $80 $-1 $567 reversed single #
loop $-1 $-1 $568 $247 #
plane-surface $-1 41.819471890096978 -137.50403577921145 62.36195338974472 1 0 0 0 0.87461971476443456 -0.48480960649040278 forward_v I I I I #
coedge $-1 $569 $570 $571 $572 reversed $248 $-1 #
coedge $-1 $396 $250 $573 $574 reversed $157 $-1 #
coedge $-1 $250 $395 $569 $575 reversed $157 $-1 #
coedge $-1 $571 $576 $250 $398 forward $577 $-1 #
edge $-1 $578 38.413520622111349 $579 41.271220596003303 $397 $580 forward 7 unknown #
loop $-1 $-1 $404 $251 #
plane-surface $-1 48.037835760416378 -30.33849726749439 2.9591275922598044 0 -0.87461971476443456 0.48480960649040278 1 0 0 forward_v I I I I #
loop $-1 $-1 $581 $159 #
coedge $-1 $402 $402 $403 $582 reversed $252 $-1 #
coedge $-1 $403 $403 $402 $582 forward $254 $-1 #
coedge $-1 $404 $404 $255 $405 forward $399 $-1 #
edge $-1 $583 -1.9929490515016641e-015 $583 6.2831853071795987 $404 $584 forward 7 unknown #
loop $-1 $-1 $411 $256 #
plane-surface $-1 48.037835760416378 -30.33849726749439 2.9591275922598044 0 -0.87461971476443456 0.48480960649040278 1 0 0 forward_v I I I I #
loop $-1 $-1 $585 $162 #
coedge $-1 $409 $409 $410 $586 reversed $257 $-1 #
coedge $-1 $410 $410 $409 $586 forward $259 $-1 #
coedge $-1 $411 $411 $260 $412 forward $406 $-1 #
edge $-1 $587 -1.9929490515016641e-015 $587 6.2831853071795987 $411 $588 forward 7 unknown #
loop $-1 $-1 $418 $261 #
plane-surface $-1 48.037835760416378 -30.33849726749439 2.9591275922598044 0 -0.87461971476443456 0.48480960649040278 1 0 0 forward_v I I I I #
loop $-1 $-1 $589 $165 #
coedge $-1 $416 $416 $417 $590 reversed $262 $-1 #
coedge $-1 $417 $417 $416 $590 forward $264 $-1 #
coedge $-1 $418 $418 $265 $419 forward $413 $-1 #
edge $-1 $591 -1.9929490515016641e-015 $591 6.2831853071795987 $418 $592 forward 7 unknown #
face $-1 $593 $594 $63 $-1 $595 reversed single #
loop $-1 $-1 $596 $266 #
plane-surface $-1 -61.264076662495803 0 0 1 0 0 0 0 -1 forward_v I I I I #
coedge $-1 $597 $431 $598 $599 forward $267 $-1 #
coedge $-1 $600 $269 $597 $601 forward $169 $-1 #
coedge $-1 $269 $600 $602 $603 forward $169 $-1 #
coedge $-1 $434 $433 $269 $427 reversed $435 $-1 #
edge $-1 $604 -30.338497267494375 $605 30.338497267494375 $426 $606 forward 7 unknown #
coedge $-1 $271 $270 $607 $608 forward $106 $-1 #
coedge $-1 $609 $610 $270 $430 reversed $594 $-1 #
edge $-1 $437 -61.264076662495803 $611 61.264076662495803 $429 $612 forward 7 unknown #
coedge $-1 $423 $613 $271 $432 reversed $267 $-1 #
edge $-1 $614 -61.264076662495803 $436 61.264076662495803 $431 $615 forward 7 unknown #
coedge $-1 $426 $272 $613 $616 forward $435 $-1 #
coedge $-1 $272 $426 $609 $617 reversed $435 $-1 #
loop $-1 $-1 $433 $593 #
vertex $-1 $273 $618 #
vertex $-1 $273 $619 #
straight-curve $-1 61.264076662495803 0 8.1145550066239664 0 1 0 I I #
face $-1 $620 $621 $64 $-1 $622 forward single #
loop $-1 $-1 $623 $274 #
plane-surface $-1 0 0 -8.1145550066239664 0 0 1 1 0 0 forward_v I I I I #
coedge $-1 $624 $625 $447 $626 forward $275 $-1 #
coedge $-1 $627 $277 $623 $628 reversed $173 $-1 #
coedge $-1 $277 $627 $629 $630 reversed $173 $-1 #
coedge $-1 $625 $624 $277 $446 reversed $275 $-1 #
edge $-1 $631 -8.1145550066239664 $632 8.1145550066239664 $445 $633 forward 7 unknown #
coedge $-1 $279 $278 $442 $626 reversed $109 $-1 #
coedge $-1 $634 $635 $278 $449 forward $440 $-1 #
edge $-1 $636 22.944683058714691 $455 33.194490088758968 $448 $637 forward 7 unknown #
coedge $-1 $638 $639 $279 $451 forward $621 $-1 #
edge $-1 $456 -33.194490088758968 $640 -22.944683058714691 $450 $641 forward 7 unknown #
coedge $-1 $642 $280 $639 $643 reversed $454 $-1 #
coedge $-1 $280 $642 $634 $644 reversed $454 $-1 #
loop $-1 $-1 $642 $620 #
vertex $-1 $644 $645 #
vertex $-1 $281 $646 #
straight-curve $-1 -61.264076662495803 -26.522819337405988 0 0 0 1 I I #
face $-1 $-1 $470 $65 $-1 $647 forward single #
loop $-1 $-1 $648 $282 #
plane-surface $-1 0 30.338497267494375 0 0 -1 0 0 0 -1 forward_v I I I I #
coedge $-1 $649 $650 $651 $652 reversed $283 $-1 #
coedge $-1 $653 $285 $287 $468 forward $177 $-1 #
coedge $-1 $285 $653 $649 $654 forward $177 $-1 #
coedge $-1 $651 $288 $285 $465 forward $470 $-1 #
edge $-1 $472 0.60547656594230048 $655 32.522927423010245 $464 $656 forward 7 unknown #
coedge $-1 $657 $658 $286 $467 forward $459 $-1 #
edge $-1 $659 -65.791104179606805 $471 -58.375201726150657 $466 $660 forward 7 unknown #
edge $-1 $472 49.37328246706106 $659 60.676994534988737 $287 $661 forward 7 unknown #
coedge $-1 $288 $651 $657 $662 forward $470 $-1 #
loop $-1 $-1 $651 $458 #
vertex $-1 $467 $663 #
vertex $-1 $289 $664 #
straight-curve $-1 17.169678560418575 32.465345442788426 8.1145550066239664 0 -1 0 I I #
coedge $-1 $474 $474 $-1 $665 reversed $292 $-1 #
edge $-1 $666 0 $666 6.2831853071796004 $293 $667 forward 7 unknown #
vertex $-1 $296 $668 #
ellipse-curve $-1 26.288950233866551 26.072987411819522 4.4066037798959083 0 0.6560590369687036 0.75470957328743171 2 0 0 1 I I #
coedge $-1 $478 $478 $-1 $669 reversed $299 $-1 #
edge $-1 $670 0 $670 6.2831853071796004 $300 $671 forward 7 unknown #
vertex $-1 $303 $672 #
ellipse-curve $-1 39.967857744038533 26.072987411819522 4.4066037798959083 0 0.6560590369687036 0.75470957328743171 2 0 0 1 I I #
face $-1 $-1 $673 $68 $-1 $674 reversed single #
loop $-1 $-1 $310 $304 #
plane-surface $-1 0 0 8.1145550066239664 0 0 1 1 0 0 forward_v I I I I #
coedge $-1 $675 $676 $677 $678 reversed $305 $-1 #
coedge $-1 $679 $307 $309 $492 forward $191 $-1 #
coedge $-1 $307 $679 $675 $680 forward $191 $-1 #
coedge $-1 $677 $310 $307 $489 forward $483 $-1 #
edge $-1 $495 11.867098110077659 $681 24.30382585071645 $488 $682 forward 7 unknown #
coedge $-1 $683 $684 $308 $491 forward $673 $-1 #
edge $-1 $685 -28.221849102612531 $494 -23.066421688248393 $490 $686 forward 7 unknown #
edge $-1 $495 -5.8944788544501288 $685 -2.9417291209212814e-014 $309 $687 forward 7 unknown #
coedge $-1 $310 $677 $683 $688 forward $483 $-1 #
vertex $-1 $491 $689 #
vertex $-1 $311 $690 #
straight-curve $-1 -29.952560090474716 -68.752017889605725 8.1145550066239664 0 1 0 I I #
coedge $-1 $497 $497 $-1 $691 reversed $314 $-1 #
edge $-1 $692 0 $692 6.2831853071796004 $315 $693 forward 7 unknown #
vertex $-1 $318 $694 #
ellipse-curve $-1 -39.901942282985743 -28.909647280548402 5.5368412994418934 0 -0.87461971476443456 0.48480960649040278 1 0 0 1 I I #
coedge $-1 $501 $501 $-1 $695 reversed $321 $-1 #
edge $-1 $696 0 $696 6.2831853071796004 $322 $697 forward 7 unknown #
vertex $-1 $325 $698 #
ellipse-curve $-1 -36.170923960794113 -28.909647280548402 5.5368412994418934 0 -0.87461971476443456 0.48480960649040278 1 0 0 1 I I #
coedge $-1 $505 $505 $-1 $699 reversed $328 $-1 #
edge $-1 $700 0 $700 6.2831853071796004 $329 $701 forward 7 unknown #
vertex $-1 $332 $702 #
ellipse-curve $-1 -32.439905638602468 -28.909647280548402 5.5368412994418934 0 -0.87461971476443456 0.48480960649040278 1 0 0 1 I I #
face $-1 $-1 $521 $72 $-1 $703 forward single #
loop $-1 $-1 $704 $333 #
plane-surface $-1 0 -30.338497267494375 0 0 1 0 0 0 1 forward_v I I I I #
coedge $-1 $705 $706 $707 $708 reversed $334 $-1 #
coedge $-1 $709 $336 $338 $519 forward $210 $-1 #
coedge $-1 $336 $709 $705 $710 forward $210 $-1 #
coedge $-1 $707 $339 $336 $516 forward $521 $-1 #
edge $-1 $523 -2.1676951767907582 $711 10.269032563848036 $515 $712 forward 7 unknown #
coedge $-1 $713 $714 $337 $518 forward $510 $-1 #
edge $-1 $715 -28.221849102612531 $522 -23.066421688248393 $517 $716 forward 7 unknown #
edge $-1 $523 -5.8944788544501288 $715 -2.9417291209212814e-014 $338 $717 forward 7 unknown #
coedge $-1 $339 $707 $713 $718 forward $521 $-1 #
loop $-1 $-1 $707 $509 #
vertex $-1 $518 $719 #
vertex $-1 $340 $720 #
straight-curve $-1 -1.8829735167378807 -68.752017889605725 8.1145550066239664 0 1 0 I I #
coedge $-1 $525 $525 $-1 $721 reversed $343 $-1 #
edge $-1 $722 0 $722 6.2831853071796004 $344 $723 forward 7 unknown #
vertex $-1 $347 $724 #
ellipse-curve $-1 -11.832355709248922 -28.909647280548402 5.5368412994418934 0 -0.87461971476443456 0.48480960649040278 1 0 0 1 I I #
coedge $-1 $529 $529 $-1 $725 reversed $350 $-1 #
edge $-1 $726 0 $726 6.2831853071796004 $351 $727 forward 7 unknown #
vertex $-1 $354 $728 #
ellipse-curve $-1 -8.1013373870572778 -28.909647280548402 5.5368412994418934 0 -0.87461971476443456 0.48480960649040278 1 0 0 1 I I #
coedge $-1 $533 $533 $-1 $729 reversed $357 $-1 #
edge $-1 $730 0 $730 6.2831853071796004 $358 $731 forward 7 unknown #
vertex $-1 $361 $732 #
ellipse-curve $-1 -4.3703190648656474 -28.909647280548402 5.5368412994418934 0 -0.87461971476443456 0.48480960649040278 1 0 0 1 I I #
face $-1 $-1 $549 $76 $-1 $733 forward single #
loop $-1 $-1 $734 $362 #
plane-surface $-1 0 -30.338497267494375 0 0 1 0 0 0 1 forward_v I I I I #
coedge $-1 $735 $736 $737 $738 reversed $363 $-1 #
coedge $-1 $739 $365 $367 $547 forward $229 $-1 #
coedge $-1 $365 $739 $735 $740 forward $229 $-1 #
coedge $-1 $737 $368 $365 $544 forward $549 $-1 #
edge $-1 $551 -16.202488463659172 $741 -3.765760723020378 $543 $742 forward 7 unknown #
coedge $-1 $743 $744 $366 $546 forward $538 $-1 #
edge $-1 $745 -28.221849102612531 $550 -23.066421688248393 $545 $746 forward 7 unknown #
edge $-1 $551 -5.8944788544501288 $745 -2.9417291209212814e-014 $367 $747 forward 7 unknown #
coedge $-1 $368 $737 $743 $748 forward $549 $-1 #
loop $-1 $-1 $737 $537 #
vertex $-1 $546 $749 #
vertex $-1 $369 $750 #
straight-curve $-1 26.186613056998947 -68.752017889605725 8.1145550066239664 0 1 0 I I #
coedge $-1 $553 $553 $-1 $751 reversed $372 $-1 #
edge $-1 $752 0 $752 6.2831853071796004 $373 $753 forward 7 unknown #
vertex $-1 $376 $754 #
ellipse-curve $-1 16.237230864487906 -28.909647280548402 5.5368412994418934 0 -0.87461971476443456 0.48480960649040278 1 0 0 1 I I #
coedge $-1 $557 $557 $-1 $755 reversed $379 $-1 #
edge $-1 $756 0 $756 6.2831853071796004 $380 $757 forward 7 unknown #
vertex $-1 $383 $758 #
ellipse-curve $-1 19.96824918667955 -28.909647280548402 5.5368412994418934 0 -0.87461971476443456 0.48480960649040278 1 0 0 1 I I #
coedge $-1 $561 $561 $-1 $759 reversed $386 $-1 #
edge $-1 $760 0 $760 6.2831853071796004 $387 $761 forward 7 unknown #
vertex $-1 $390 $762 #
ellipse-curve $-1 23.699267508871181 -28.909647280548402 5.5368412994418934 0 -0.87461971476443456 0.48480960649040278 1 0 0 1 I I #
face $-1 $-1 $577 $80 $-1 $763 forward single #
loop $-1 $-1 $764 $391 #
plane-surface $-1 0 -30.338497267494375 0 0 1 0 0 0 1 forward_v I I I I #
coedge $-1 $765 $766 $767 $768 reversed $392 $-1 #
coedge $-1 $769 $394 $396 $575 forward $248 $-1 #
coedge $-1 $394 $769 $765 $770 forward $248 $-1 #
coedge $-1 $767 $397 $394 $572 forward $577 $-1 #
edge $-1 $579 -30.23728175052759 $771 -17.800554009888788 $571 $772 forward 7 unknown #
coedge $-1 $773 $774 $395 $574 forward $566 $-1 #
edge $-1 $775 -28.221849102612531 $578 -23.066421688248393 $573 $776 forward 7 unknown #
edge $-1 $579 -5.8944788544501288 $775 -2.9417291209212814e-014 $396 $777 forward 7 unknown #
coedge $-1 $397 $767 $773 $778 forward $577 $-1 #
loop $-1 $-1 $767 $565 #
vertex $-1 $574 $779 #
vertex $-1 $398 $780 #
straight-curve $-1 54.256199630735779 -68.752017889605725 8.1145550066239664 0 1 0 I I #
coedge $-1 $581 $581 $-1 $781 reversed $401 $-1 #
edge $-1 $782 0 $782 6.2831853071796004 $402 $783 forward 7 unknown #
vertex $-1 $405 $784 #
ellipse-curve $-1 44.306817438224734 -28.909647280548402 5.5368412994418934 0 -0.87461971476443456 0.48480960649040278 1 0 0 1 I I #
coedge $-1 $585 $585 $-1 $785 reversed $408 $-1 #
edge $-1 $786 0 $786 6.2831853071796004 $409 $787 forward 7 unknown #
vertex $-1 $412 $788 #
ellipse-curve $-1 48.037835760416378 -28.909647280548402 5.5368412994418934 0 -0.87461971476443456 0.48480960649040278 1 0 0 1 I I #
coedge $-1 $589 $589 $-1 $789 reversed $415 $-1 #
edge $-1 $790 0 $790 6.2831853071796004 $416 $791 forward 7 unknown #
vertex $-1 $419 $792 #
ellipse-curve $-1 51.768854082608009 -28.909647280548402 5.5368412994418934 0 -0.87461971476443456 0.48480960649040278 1 0 0 1 I I #
face $-1 $-1 $435 $63 $-1 $793 reversed single #
loop $-1 $-1 $609 $420 #
plane-surface $-1 0 30.338497267494375 0 0 -1 0 0 0 -1 forward_v I I I I #
coedge $-1 $794 $607 $610 $795 forward $421 $-1 #
coedge $-1 $613 $423 $424 $601 reversed $267 $-1 #
coedge $-1 $607 $794 $423 $599 reversed $421 $-1 #
edge $-1 $614 -8.1145550066239664 $796 8.1145550066239664 $598 $797 forward 7 unknown #
coedge $-1 $425 $424 $794 $798 forward $169 $-1 #
edge $-1 $605 -61.264076662495803 $796 61.264076662495803 $597 $799 forward 7 unknown #
coedge $-1 $610 $609 $425 $603 reversed $594 $-1 #
edge $-1 $800 -61.264076662495803 $604 61.264076662495803 $602 $801 forward 7 unknown #
vertex $-1 $427 $802 #
vertex $-1 $616 $803 #
straight-curve $-1 61.264076662495803 0 -8.1145550066239664 0 -1 0 I I #
coedge $-1 $596 $598 $428 $608 reversed $421 $-1 #
edge $-1 $611 -30.338497267494375 $614 30.338497267494375 $607 $804 forward 7 unknown #
coedge $-1 $602 $429 $434 $617 forward $594 $-1 #
coedge $-1 $429 $602 $596 $795 reversed $594 $-1 #
vertex $-1 $430 $805 #
straight-curve $-1 0 30.338497267494375 8.1145550066239664 -1 0 0 I I #
coedge $-1 $431 $597 $433 $616 reversed $267 $-1 #
vertex $-1 $608 $806 #
straight-curve $-1 0 -30.338497267494375 8.1145550066239664 1 0 0 I I #
edge $-1 $436 -8.1145550066239664 $605 8.1145550066239664 $433 $807 forward 7 unknown #
edge $-1 $437 -8.1145550066239664 $604 8.1145550066239664 $434 $808 forward 7 unknown #
point $-1 61.264076662495803 -30.338497267494375 8.1145550066239664 #
point $-1 61.264076662495803 30.338497267494375 8.1145550066239664 #
face $-1 $-1 $454 $64 $-1 $809 reversed single #
loop $-1 $-1 $629 $439 #
plane-surface $-1 0 0 8.1145550066239664 0 0 1 1 0 0 forward_v I I I I #
coedge $-1 $635 $634 $443 $628 forward $440 $-1 #
coedge $-1 $445 $442 $635 $810 reversed $275 $-1 #
coedge $-1 $442 $445 $638 $811 reversed $275 $-1 #
edge $-1 $640 -8.1145550066239664 $636 8.1145550066239664 $442 $812 forward 7 unknown #
coedge $-1 $444 $443 $642 $813 reversed $173 $-1 #
edge $-1 $814 -33.194490088758968 $632 -22.944683058714691 $623 $815 forward 7 unknown #
coedge $-1 $639 $638 $444 $630 forward $621 $-1 #
edge $-1 $631 22.944683058714691 $816 33.194490088758968 $629 $817 forward 7 unknown #
vertex $-1 $630 $818 #
vertex $-1 $628 $819 #
straight-curve $-1 -51.014269632451523 -23.522819337405988 0 0 0 -1 I I #
coedge $-1 $623 $448 $453 $644 forward $440 $-1 #
coedge $-1 $448 $623 $624 $810 forward $440 $-1 #
vertex $-1 $449 $820 #
straight-curve $-1 -28.069586573736832 -26.522819337405988 -8.1145550066239664 -1 0 0 I I #
coedge $-1 $629 $450 $625 $811 forward $621 $-1 #
coedge $-1 $450 $629 $452 $643 forward $621 $-1 #
vertex $-1 $451 $821 #
straight-curve $-1 -28.069586573736832 -26.522819337405988 8.1145550066239664 1 0 0 I I #
coedge $-1 $453 $452 $627 $813 forward $454 $-1 #
edge $-1 $816 23.522819337405988 $456 26.522819337405988 $452 $822 forward 7 unknown #
edge $-1 $455 -26.522819337405988 $814 -23.522819337405988 $453 $823 forward 7 unknown #
point $-1 -61.264076662495803 -26.522819337405988 -8.1145550066239664 #
point $-1 -61.264076662495803 -26.522819337405988 8.1145550066239664 #
plane-surface $-1 0 0 8.1145550066239664 0 0 1 1 0 0 forward_v I I I I #
coedge $-1 $658 $657 $650 $824 forward $459 $-1 #
coedge $-1 $650 $461 $463 $654 reversed $283 $-1 #
coedge $-1 $461 $649 $648 $824 reversed $283 $-1 #
coedge $-1 $469 $464 $461 $652 forward $470 $-1 #
edge $-1 $655 -10.657867886643736 $825 -2.1268481752940502 $651 $826 forward 7 unknown #
coedge $-1 $463 $462 $658 $827 reversed $177 $-1 #
edge $-1 $828 -60.676994534988737 $655 -49.37328246706106 $649 $829 forward 7 unknown #
vertex $-1 $465 $830 #
straight-curve $-1 16.564201994476274 21.807477556144686 8.1145550066239664 1 0 0 I I #
coedge $-1 $648 $466 $469 $662 reversed $459 $-1 #
coedge $-1 $466 $648 $653 $827 forward $459 $-1 #
vertex $-1 $467 $831 #
straight-curve $-1 17.169678560418575 30.338497267494375 66.489756732774623 0 0 1 I I #
straight-curve $-1 17.169678560418575 -15.455011386370799 40.506343153947824 0 0.75470957328743171 -0.6560590369687036 I I #
edge $-1 $825 -49.087129417486523 $471 -17.169678560418575 $657 $832 forward 7 unknown #
point $-1 17.169678560418575 30.338497267494375 8.1145550066239664 #
point $-1 17.169678560418575 21.80747755614469 8.1145550066239664 #
edge $-1 $833 1 $833 0 $474 $-1 forward 7 unknown #
vertex $-1 $475 $834 #
ellipse-curve $-1 26.288950233866551 24.522287853934248 2.6227280374992183 0 0.6560590369687036 0.75470957328743171 2 0 0 1 I I #
point $-1 28.288950233866551 26.072987411819504 4.4066037798958853 #
edge $-1 $835 1 $835 0 $478 $-1 forward 7 unknown #
vertex $-1 $479 $836 #
ellipse-curve $-1 39.967857744038533 24.522287853934248 2.6227280374992183 0 0.6560590369687036 0.75470957328743171 2 0 0 1 I I #
point $-1 41.967857744038533 26.072987411819504 4.4066037798958853 #
loop $-1 $-1 $490 $482 #
plane-surface $-1 0 -30.338497267494375 0 0 1 0 0 0 1 forward_v I I I I #
coedge $-1 $676 $485 $487 $680 reversed $305 $-1 #
coedge $-1 $485 $675 $837 $838 reversed $305 $-1 #
coedge $-1 $493 $488 $485 $678 forward $483 $-1 #
edge $-1 $681 -41.271220596003303 $839 -38.413520622111349 $677 $840 forward 7 unknown #
coedge $-1 $487 $486 $684 $841 reversed $191 $-1 #
edge $-1 $842 2.9417291209212814e-014 $681 5.8944788544501288 $675 $843 forward 7 unknown #
vertex $-1 $489 $844 #
straight-curve $-1 -18.085461980397056 -27.480797293602421 8.1145550066239664 -1 0 0 I I #
coedge $-1 $837 $490 $493 $688 reversed $673 $-1 #
coedge $-1 $490 $837 $679 $841 forward $673 $-1 #
vertex $-1 $491 $845 #
straight-curve $-1 -29.952560090474716 -30.338497267494375 31.18097669487236 0 0 1 I I #
straight-curve $-1 -29.952560090474716 -30.33849726749439 2.9591275922598044 0 -0.48480960649040278 -0.87461971476443456 I I #
edge $-1 $839 -42.389287831113506 $494 -29.952560090474716 $683 $846 forward 7 unknown #
point $-1 -29.952560090474716 -30.338497267494375 8.1145550066239664 #
point $-1 -29.952560090474716 -27.480797293602421 8.1145550066239664 #
edge $-1 $847 1 $847 0 $497 $-1 forward 7 unknown #
vertex $-1 $498 $848 #
ellipse-curve $-1 -39.901942282985743 -26.375847248093685 4.1323330589769549 0 -0.87461971476443456 0.48480960649040278 1 0 0 1 I I #
point $-1 -38.901942282985743 -28.909647280548395 5.5368412994418872 #
edge $-1 $849 1 $849 0 $501 $-1 forward 7 unknown #
vertex $-1 $502 $850 #
ellipse-curve $-1 -36.170923960794113 -26.375847248093685 4.1323330589769549 0 -0.87461971476443456 0.48480960649040278 1 0 0 1 I I #
point $-1 -35.170923960794113 -28.909647280548395 5.5368412994418872 #
edge $-1 $851 1 $851 0 $505 $-1 forward 7 unknown #
vertex $-1 $506 $852 #
ellipse-curve $-1 -32.439905638602468 -26.375847248093685 4.1323330589769549 0 -0.87461971476443456 0.48480960649040278 1 0 0 1 I I #
point $-1 -31.439905638602468 -28.909647280548395 5.5368412994418872 #
plane-surface $-1 0 0 8.1145550066239664 0 0 1 1 0 0 forward_v I I I I #
coedge $-1 $714 $713 $706 $853 forward $510 $-1 #
coedge $-1 $706 $512 $514 $710 reversed $334 $-1 #
coedge $-1 $512 $705 $704 $853 reversed $334 $-1 #
coedge $-1 $520 $515 $512 $708 forward $521 $-1 #
edge $-1 $711 -41.271220596003303 $854 -38.413520622111349 $707 $855 forward 7 unknown #
coedge $-1 $514 $513 $714 $856 reversed $210 $-1 #
edge $-1 $857 2.9417291209212814e-014 $711 5.8944788544501288 $705 $858 forward 7 unknown #
vertex $-1 $516 $859 #
straight-curve $-1 -4.0506686935286389 -27.480797293602421 8.1145550066239664 -1 0 0 I I #
coedge $-1 $704 $517 $520 $718 reversed $510 $-1 #
coedge $-1 $517 $704 $709 $856 forward $510 $-1 #
vertex $-1 $518 $860 #
straight-curve $-1 -1.8829735167378807 -30.338497267494375 31.18097669487236 0 0 1 I I #
straight-curve $-1 -1.8829735167378807 -30.33849726749439 2.9591275922598044 0 -0.48480960649040278 -0.87461971476443456 I I #
edge $-1 $854 -14.319701257376675 $522 -1.8829735167378807 $713 $861 forward 7 unknown #
point $-1 -1.8829735167378807 -30.338497267494375 8.1145550066239664 #
point $-1 -1.8829735167378807 -27.480797293602421 8.1145550066239664 #
edge $-1 $862 1 $862 0 $525 $-1 forward 7 unknown #
vertex $-1 $526 $863 #
ellipse-curve $-1 -11.832355709248922 -26.375847248093685 4.1323330589769549 0 -0.87461971476443456 0.48480960649040278 1 0 0 1 I I #
point $-1 -10.832355709248922 -28.909647280548395 5.5368412994418872 #
edge $-1 $864 1 $864 0 $529 $-1 forward 7 unknown #
vertex $-1 $530 $865 #
ellipse-curve $-1 -8.1013373870572778 -26.375847248093685 4.1323330589769549 0 -0.87461971476443456 0.48480960649040278 1 0 0 1 I I #
point $-1 -7.1013373870572778 -28.909647280548395 5.5368412994418872 #
edge $-1 $866 1 $866 0 $533 $-1 forward 7 unknown #
vertex $-1 $534 $867 #
ellipse-curve $-1 -4.3703190648656474 -26.375847248093685 4.1323330589769549 0 -0.87461971476443456 0.48480960649040278 1 0 0 1 I I #
point $-1 -3.3703190648656474 -28.909647280548395 5.5368412994418872 #
plane-surface $-1 0 0 8.1145550066239664 0 0 1 1 0 0 forward_v I I I I #
coedge $-1 $744 $743 $736 $868 forward $538 $-1 #
coedge $-1 $736 $540 $542 $740 reversed $363 $-1 #
coedge $-1 $540 $735 $734 $868 reversed $363 $-1 #
coedge $-1 $548 $543 $540 $738 forward $549 $-1 #
edge $-1 $741 -41.271220596003303 $869 -38.413520622111349 $737 $870 forward 7 unknown #
coedge $-1 $542 $541 $744 $871 reversed $229 $-1 #
edge $-1 $872 2.9417291209212814e-014 $741 5.8944788544501288 $735 $873 forward 7 unknown #
vertex $-1 $544 $874 #
straight-curve $-1 9.9841245933397751 -27.480797293602421 8.1145550066239664 -1 0 0 I I #
coedge $-1 $734 $545 $548 $748 reversed $538 $-1 #
coedge $-1 $545 $734 $739 $871 forward $538 $-1 #
vertex $-1 $546 $875 #
straight-curve $-1 26.186613056998947 -30.338497267494375 31.18097669487236 0 0 1 I I #
straight-curve $-1 26.186613056998947 -30.33849726749439 2.9591275922598044 0 -0.48480960649040278 -0.87461971476443456 I I #
edge $-1 $869 13.749885316360153 $550 26.186613056998947 $743 $876 forward 7 unknown #
point $-1 26.186613056998947 -30.338497267494375 8.1145550066239664 #
point $-1 26.186613056998947 -27.480797293602421 8.1145550066239664 #
edge $-1 $877 1 $877 0 $553 $-1 forward 7 unknown #
vertex $-1 $554 $878 #
ellipse-curve $-1 16.237230864487906 -26.375847248093685 4.1323330589769549 0 -0.87461971476443456 0.48480960649040278 1 0 0 1 I I #
point $-1 17.237230864487906 -28.909647280548395 5.5368412994418872 #
edge $-1 $879 1 $879 0 $557 $-1 forward 7 unknown #
vertex $-1 $558 $880 #
ellipse-curve $-1 19.96824918667955 -26.375847248093685 4.1323330589769549 0 -0.87461971476443456 0.48480960649040278 1 0 0 1 I I #
point $-1 20.96824918667955 -28.909647280548395 5.5368412994418872 #
edge $-1 $881 1 $881 0 $561 $-1 forward 7 unknown #
vertex $-1 $562 $882 #
ellipse-curve $-1 23.699267508871181 -26.375847248093685 4.1323330589769549 0 -0.87461971476443456 0.48480960649040278 1 0 0 1 I I #
point $-1 24.699267508871181 -28.909647280548395 5.5368412994418872 #
plane-surface $-1 0 0 8.1145550066239664 0 0 1 1 0 0 forward_v I I I I #
coedge $-1 $774 $773 $766 $883 forward $566 $-1 #
coedge $-1 $766 $568 $570 $770 reversed $392 $-1 #
coedge $-1 $568 $765 $764 $883 reversed $392 $-1 #
coedge $-1 $576 $571 $568 $768 forward $577 $-1 #
edge $-1 $771 -41.271220596003303 $884 -38.413520622111349 $767 $885 forward 7 unknown #
coedge $-1 $570 $569 $774 $886 reversed $248 $-1 #
edge $-1 $887 2.9417291209212814e-014 $771 5.8944788544501288 $765 $888 forward 7 unknown #
vertex $-1 $572 $889 #
straight-curve $-1 24.018917880208189 -27.480797293602421 8.1145550066239664 -1 0 0 I I #
coedge $-1 $764 $573 $576 $778 reversed $566 $-1 #
coedge $-1 $573 $764 $769 $886 forward $566 $-1 #
vertex $-1 $574 $890 #
straight-curve $-1 54.256199630735779 -30.338497267494375 31.18097669487236 0 0 1 I I #
straight-curve $-1 54.256199630735779 -30.33849726749439 2.9591275922598044 0 -0.48480960649040278 -0.87461971476443456 I I #
edge $-1 $884 41.819471890096978 $578 54.256199630735779 $773 $891 forward 7 unknown #
point $-1 54.256199630735779 -30.338497267494375 8.1145550066239664 #
point $-1 54.256199630735779 -27.480797293602421 8.1145550066239664 #
edge $-1 $892 1 $892 0 $581 $-1 forward 7 unknown #
vertex $-1 $582 $893 #
ellipse-curve $-1 44.306817438224734 -26.375847248093685 4.1323330589769549 0 -0.87461971476443456 0.48480960649040278 1 0 0 1 I I #
point $-1 45.306817438224734 -28.909647280548395 5.5368412994418872 #
edge $-1 $894 1 $894 0 $585 $-1 forward 7 unknown #
vertex $-1 $586 $895 #
ellipse-curve $-1 48.037835760416378 -26.375847248093685 4.1323330589769549 0 -0.87461971476443456 0.48480960649040278 1 0 0 1 I I #
point $-1 49.037835760416378 -28.909647280548395 5.5368412994418872 #
edge $-1 $896 1 $896 0 $589 $-1 forward 7 unknown #
vertex $-1 $590 $897 #
ellipse-curve $-1 51.768854082608009 -26.375847248093685 4.1323330589769549 0 -0.87461971476443456 0.48480960649040278 1 0 0 1 I I #
point $-1 52.768854082608009 -28.909647280548395 5.5368412994418872 #
plane-surface $-1 61.264076662495803 0 0 -1 0 0 0 0 1 forward_v I I I I #
coedge $-1 $598 $596 $600 $798 reversed $421 $-1 #
edge $-1 $611 -8.1145550066239664 $800 8.1145550066239664 $610 $898 forward 7 unknown #
vertex $-1 $798 $899 #
straight-curve $-1 -61.264076662495803 -30.338497267494375 0 0 0 -1 I I #
edge $-1 $796 -30.338497267494375 $800 30.338497267494375 $794 $900 forward 7 unknown #
straight-curve $-1 0 -30.338497267494375 -8.1145550066239664 -1 0 0 I I #
vertex $-1 $603 $901 #
straight-curve $-1 0 30.338497267494375 -8.1145550066239664 1 0 0 I I #
point $-1 61.264076662495803 30.338497267494375 -8.1145550066239664 #
point $-1 61.264076662495803 -30.338497267494375 -8.1145550066239664 #
straight-curve $-1 -61.264076662495803 0 8.1145550066239664 0 -1 0 I I #
point $-1 -61.264076662495803 30.338497267494375 8.1145550066239664 #
point $-1 -61.264076662495803 -30.338497267494375 8.1145550066239664 #
straight-curve $-1 61.264076662495803 -30.338497267494375 0 0 0 -1 I I #
straight-curve $-1 61.264076662495803 30.338497267494375 0 0 0 -1 I I #
plane-surface $-1 -61.264076662495803 0 0 1 0 0 0 0 -1 forward_v I I I I #
edge $-1 $632 11.011409668702994 $636 14.011409668702994 $635 $902 forward 7 unknown #
edge $-1 $640 -14.011409668702994 $631 -11.011409668702994 $638 $903 forward 7 unknown #
straight-curve $-1 -51.014269632451523 -26.522819337405988 0 0 0 -1 I I #
edge $-1 $816 -8.1145550066239664 $814 8.1145550066239664 $642 $904 forward 7 unknown #
vertex $-1 $813 $905 #
straight-curve $-1 -28.069586573736832 -23.522819337405988 -8.1145550066239664 1 0 0 I I #
vertex $-1 $643 $906 #
straight-curve $-1 -28.069586573736832 -23.522819337405988 8.1145550066239664 -1 0 0 I I #
point $-1 -51.014269632451523 -23.522819337405988 8.1145550066239664 #
point $-1 -51.014269632451523 -23.522819337405988 -8.1145550066239664 #
point $-1 -51.014269632451523 -26.522819337405988 -8.1145550066239664 #
point $-1 -51.014269632451523 -26.522819337405988 8.1145550066239664 #
straight-curve $-1 -61.264076662495803 0 8.1145550066239664 0 -1 0 I I #
straight-curve $-1 -61.264076662495803 0 -8.1145550066239664 0 1 0 I I #
edge $-1 $825 58.375201726150657 $828 65.791104179606805 $648 $907 forward 7 unknown #
vertex $-1 $662 $908 #
straight-curve $-1 49.087129417486523 32.465345442788426 8.1145550066239664 0 1 0 I I #
edge $-1 $828 -32.522927423010245 $659 -0.60547656594230048 $658 $909 forward 7 unknown #
vertex $-1 $827 $910 #
straight-curve $-1 49.087129417486523 -15.455011386370799 40.506343153947824 0 -0.75470957328743171 0.6560590369687036 I I #
point $-1 49.087129417486523 21.80747755614469 8.1145550066239664 #
point $-1 17.169678560418575 30.338497267494375 0.69865255316782537 #
straight-curve $-1 0 30.338497267494375 8.1145550066239664 -1 0 0 I I #
vertex $-1 $665 $911 #
point $-1 28.288950233866551 24.522287853934248 2.6227280374992183 #
vertex $-1 $669 $912 #
point $-1 41.967857744038533 24.522287853934248 2.6227280374992183 #
coedge $-1 $684 $683 $676 $838 forward $673 $-1 #
edge $-1 $839 23.066421688248393 $842 28.221849102612531 $837 $913 forward 7 unknown #
vertex $-1 $688 $914 #
straight-curve $-1 -42.389287831113506 -68.752017889605725 8.1145550066239664 0 -1 0 I I #
edge $-1 $842 -24.30382585071645 $685 -11.867098110077659 $684 $915 forward 7 unknown #
vertex $-1 $841 $916 #
straight-curve $-1 -42.389287831113506 -30.33849726749439 2.9591275922598044 0 0.48480960649040278 0.87461971476443456 I I #
point $-1 -42.389287831113506 -27.480797293602421 8.1145550066239664 #
point $-1 -29.952560090474716 -30.338497267494375 2.9591275922598301 #
straight-curve $-1 0 -30.338497267494375 8.1145550066239664 1 0 0 I I #
vertex $-1 $691 $917 #
point $-1 -38.901942282985743 -26.375847248093685 4.1323330589769549 #
vertex $-1 $695 $918 #
point $-1 -35.170923960794113 -26.375847248093685 4.1323330589769549 #
vertex $-1 $699 $919 #
point $-1 -31.439905638602468 -26.375847248093685 4.1323330589769549 #
edge $-1 $854 23.066421688248393 $857 28.221849102612531 $704 $920 forward 7 unknown #
vertex $-1 $718 $921 #
straight-curve $-1 -14.319701257376675 -68.752017889605725 8.1145550066239664 0 -1 0 I I #
edge $-1 $857 -10.269032563848036 $715 2.1676951767907582 $714 $922 forward 7 unknown #
vertex $-1 $856 $923 #
straight-curve $-1 -14.319701257376675 -30.33849726749439 2.9591275922598044 0 0.48480960649040278 0.87461971476443456 I I #
point $-1 -14.319701257376675 -27.480797293602421 8.1145550066239664 #
point $-1 -1.8829735167378807 -30.338497267494375 2.9591275922598301 #
straight-curve $-1 0 -30.338497267494375 8.1145550066239664 1 0 0 I I #
vertex $-1 $721 $924 #
point $-1 -10.832355709248922 -26.375847248093685 4.1323330589769549 #
vertex $-1 $725 $925 #
point $-1 -7.1013373870572778 -26.375847248093685 4.1323330589769549 #
vertex $-1 $729 $926 #
point $-1 -3.3703190648656474 -26.375847248093685 4.1323330589769549 #
edge $-1 $869 23.066421688248393 $872 28.221849102612531 $734 $927 forward 7 unknown #
vertex $-1 $748 $928 #
straight-curve $-1 13.749885316360153 -68.752017889605725 8.1145550066239664 0 -1 0 I I #
edge $-1 $872 3.765760723020378 $745 16.202488463659172 $744 $929 forward 7 unknown #
vertex $-1 $871 $930 #
straight-curve $-1 13.749885316360153 -30.33849726749439 2.9591275922598044 0 0.48480960649040278 0.87461971476443456 I I #
point $-1 13.749885316360153 -27.480797293602421 8.1145550066239664 #
point $-1 26.186613056998947 -30.338497267494375 2.9591275922598301 #
straight-curve $-1 0 -30.338497267494375 8.1145550066239664 1 0 0 I I #
vertex $-1 $751 $931 #
point $-1 17.237230864487906 -26.375847248093685 4.1323330589769549 #
vertex $-1 $755 $932 #
point $-1 20.96824918667955 -26.375847248093685 4.1323330589769549 #
vertex $-1 $759 $933 #
point $-1 24.699267508871181 -26.375847248093685 4.1323330589769549 #
edge $-1 $884 23.066421688248393 $887 28.221849102612531 $764 $934 forward 7 unknown #
vertex $-1 $778 $935 #
straight-curve $-1 41.819471890096978 -68.752017889605725 8.1145550066239664 0 -1 0 I I #
edge $-1 $887 17.800554009888788 $775 30.23728175052759 $774 $936 forward 7 unknown #
vertex $-1 $886 $937 #
straight-curve $-1 41.819471890096978 -30.33849726749439 2.9591275922598044 0 0.48480960649040278 0.87461971476443456 I I #
point $-1 41.819471890096978 -27.480797293602421 8.1145550066239664 #
point $-1 54.256199630735779 -30.338497267494375 2.9591275922598301 #
straight-curve $-1 0 -30.338497267494375 8.1145550066239664 1 0 0 I I #
vertex $-1 $781 $938 #
point $-1 45.306817438224734 -26.375847248093685 4.1323330589769549 #
vertex $-1 $785 $939 #
point $-1 49.037835760416378 -26.375847248093685 4.1323330589769549 #
vertex $-1 $789 $940 #
point $-1 52.768854082608009 -26.375847248093685 4.1323330589769549 #
straight-curve $-1 -61.264076662495803 30.338497267494375 0 0 0 -1 I I #
point $-1 -61.264076662495803 -30.338497267494375 -8.1145550066239664 #
straight-curve $-1 -61.264076662495803 0 -8.1145550066239664 0 1 0 I I #
point $-1 -61.264076662495803 30.338497267494375 -8.1145550066239664 #
straight-curve $-1 -51.014269632451523 -12.511409668702994 -8.1145550066239664 0 -1 0 I I #
straight-curve $-1 -51.014269632451523 -12.511409668702994 8.1145550066239664 0 1 0 I I #
straight-curve $-1 -61.264076662495803 -23.522819337405988 0 0 0 -1 I I #
point $-1 -61.264076662495803 -23.522819337405988 -8.1145550066239664 #
point $-1 -61.264076662495803 -23.522819337405988 8.1145550066239664 #
straight-curve $-1 49.087129417486523 30.338497267494375 66.489756732774623 0 0 -1 I I #
point $-1 49.087129417486523 30.338497267494375 8.1145550066239664 #
straight-curve $-1 16.564201994476274 30.338497267494375 0.69865255316782537 -1 0 0 I I #
point $-1 49.087129417486523 30.338497267494375 0.69865255316782537 #
point $-1 26.288950233866551 23.210169779996843 1.1133088909243547 #
point $-1 39.967857744038533 23.210169779996843 1.1133088909243547 #
straight-curve $-1 -42.389287831113506 -30.338497267494375 31.18097669487236 0 0 -1 I I #
point $-1 -42.389287831113506 -30.338497267494375 8.1145550066239664 #
straight-curve $-1 -18.085461980397056 -30.338497267494375 2.959127592259831 1 0 0 I I #
point $-1 -42.389287831113506 -30.338497267494375 2.9591275922598301 #
point $-1 -39.901942282985743 -25.501227533329249 3.6475234524865519 #
point $-1 -36.170923960794113 -25.501227533329249 3.6475234524865519 #
point $-1 -32.439905638602468 -25.501227533329249 3.6475234524865519 #
straight-curve $-1 -14.319701257376675 -30.338497267494375 31.18097669487236 0 0 -1 I I #
point $-1 -14.319701257376675 -30.338497267494375 8.1145550066239664 #
straight-curve $-1 -4.0506686935286389 -30.338497267494375 2.959127592259831 1 0 0 I I #
point $-1 -14.319701257376675 -30.338497267494375 2.9591275922598301 #
point $-1 -11.832355709248922 -25.501227533329249 3.6475234524865519 #
point $-1 -8.1013373870572778 -25.501227533329249 3.6475234524865519 #
point $-1 -4.3703190648656474 -25.501227533329249 3.6475234524865519 #
straight-curve $-1 13.749885316360153 -30.338497267494375 31.18097669487236 0 0 -1 I I #
point $-1 13.749885316360153 -30.338497267494375 8.1145550066239664 #
straight-curve $-1 9.9841245933397751 -30.338497267494375 2.959127592259831 1 0 0 I I #
point $-1 13.749885316360153 -30.338497267494375 2.9591275922598301 #
point $-1 16.237230864487906 -25.501227533329249 3.6475234524865519 #
point $-1 19.96824918667955 -25.501227533329249 3.6475234524865519 #
point $-1 23.699267508871181 -25.501227533329249 3.6475234524865519 #
straight-curve $-1 41.819471890096978 -30.338497267494375 31.18097669487236 0 0 -1 I I #
point $-1 41.819471890096978 -30.338497267494375 8.1145550066239664 #
straight-curve $-1 24.018917880208189 -30.338497267494375 2.959127592259831 1 0 0 I I #
point $-1 41.819471890096978 -30.338497267494375 2.9591275922598301 #
point $-1 44.306817438224734 -25.501227533329249 3.6475234524865519 #
point $-1 48.037835760416378 -25.501227533329249 3.6475234524865519 #
point $-1 51.768854082608009 -25.501227533329249 3.6475234524865519 #
End-of-ACIS-data 