500 0 7 0           
7 Unknown 11 ACIS 5.0 NT 24 Thu Mar 25 22:04:43 1999 
-1 9.9999999999999995e-007 1e-010 
body $-1 $7 $-1 $8 #
body $-1 $9 $-1 $10 #
body $-1 $11 $-1 $12 #
body $-1 $13 $-1 $14 #
body $-1 $15 $-1 $16 #
body $-1 $17 $-1 $18 #
body $-1 $19 $-1 $20 #
lump $-1 $-1 $21 $0 #
transform $-1 1 0 0 0 1 0 0 0 1 53.268227179784539 29.843505175888261 9.1387594511204213 1 rotate no_reflect no_shear #
lump $-1 $-1 $22 $1 #
transform $-1 1 0 0 0 1 0 0 0 1 53.268227179784539 29.843505175888261 9.1387594511204213 1 rotate no_reflect no_shear #
lump $-1 $-1 $23 $2 #
transform $-1 1 0 0 0 1 0 0 0 1 53.268227179784539 29.843505175888261 9.1387594511204213 1 rotate no_reflect no_shear #
lump $-1 $-1 $24 $3 #
transform $-1 1 0 0 0 1 0 0 0 1 53.268227179784539 29.843505175888261 9.1387594511204213 1 rotate no_reflect no_shear #
lump $-1 $-1 $25 $4 #
transform $-1 1 0 0 0 1 0 0 0 1 53.268227179784539 29.843505175888261 9.1387594511204213 1 rotate no_reflect no_shear #
lump $-1 $-1 $26 $5 #
transform $-1 1 0 0 0 1 0 0 0 1 53.268227179784539 29.843505175888261 9.1387594511204213 1 rotate no_reflect no_shear #
lump $-1 $-1 $27 $6 #
transform $-1 1 0 0 0 1 0 0 0 1 53.268227179784539 29.843505175888261 9.1387594511204213 1 rotate no_reflect no_shear #
shell $-1 $-1 $-1 $28 $-1 $7 #
shell $-1 $-1 $-1 $29 $-1 $9 #
shell $-1 $-1 $-1 $30 $-1 $11 #
shell $-1 $-1 $-1 $31 $-1 $13 #
shell $-1 $-1 $-1 $32 $-1 $15 #
shell $-1 $-1 $-1 $33 $-1 $17 #
shell $-1 $-1 $-1 $34 $-1 $19 #
face $-1 $35 $36 $21 $-1 $37 forward single #
face $-1 $38 $39 $22 $-1 $40 forward single #
face $-1 $41 $42 $23 $-1 $43 forward single #
face $-1 $44 $45 $24 $-1 $46 reversed single #
face $-1 $47 $48 $25 $-1 $49 forward single #
face $-1 $50 $51 $26 $-1 $52 forward single #
face $-1 $53 $54 $27 $-1 $55 forward single #
face $-1 $56 $57 $21 $-1 $58 reversed single #
loop $-1 $-1 $59 $28 #
plane-surface $-1 0 0 9.1387594511204213 0 0 1 1 0 0 forward_v I I I I #
face $-1 $60 $61 $22 $-1 $62 reversed single #
loop $-1 $-1 $63 $29 #
plane-surface $-1 0 -29.843505175888261 0 0 1 0 0 0 1 forward_v I I I I #
face $-1 $64 $65 $23 $-1 $66 reversed single #
loop $-1 $-1 $67 $30 #
plane-surface $-1 0 29.843505175888261 0 0 -1 0 0 0 -1 forward_v I I I I #
face $-1 $68 $69 $24 $-1 $70 reversed single #
loop $-1 $-1 $71 $31 #
plane-surface $-1 -134.87988691436033 8.6807897643499459 73.400012195633295 0 1 0 -0.7660444514056185 0 0.64278759981090561 forward_v I I I I #
face $-1 $72 $73 $25 $-1 $74 forward single #
loop $-1 $75 $76 $32 #
cone-surface $-1 -50.751557494330285 10.639051023221874 6.4027881266268203 0.7660444514056185 0 -0.64278759981090561 0.3213937999054528 0 0.38302222570280925 1 I I 0 1 0.5 forward I I I I #
face $-1 $77 $78 $26 $-1 $79 forward single #
loop $-1 $80 $81 $33 #
cone-surface $-1 -50.751557494330285 13.57644291152976 6.4027881266268203 0.7660444514056185 0 -0.64278759981090561 0.3213937999054528 0 0.38302222570280925 1 I I 0 1 0.5 forward I I I I #
face $-1 $82 $83 $27 $-1 $84 forward single #
loop $-1 $85 $86 $34 #
cone-surface $-1 -50.751557494330285 16.513834799837646 6.4027881266268203 0.7660444514056185 0 -0.64278759981090561 0.3213937999054528 0 0.38302222570280925 1 I I 0 1 0.5 forward I I I I #
face $-1 $87 $88 $21 $-1 $89 reversed single #
loop $-1 $-1 $90 $35 #
plane-surface $-1 0 0 -9.1387594511204213 0 0 1 1 0 0 forward_v I I I I #
coedge $-1 $91 $92 $93 $94 forward $36 $-1 #
face $-1 $95 $96 $22 $-1 $97 reversed single #
loop $-1 $-1 $98 $38 #
plane-surface $-1 0 0 -9.1387594511204213 0 0 1 1 0 0 forward_v I I I I #
coedge $-1 $99 $100 $101 $102 forward $39 $-1 #
face $-1 $103 $104 $23 $-1 $105 reversed single #
loop $-1 $-1 $106 $41 #
plane-surface $-1 0 0 -9.1387594511204213 0 0 1 1 0 0 forward_v I I I I #
coedge $-1 $107 $108 $109 $110 forward $42 $-1 #
face $-1 $111 $112 $24 $-1 $113 reversed single #
loop $-1 $-1 $114 $44 #
plane-surface $-1 -53.268227179784517 13.57644291152976 4.919700405481791 -0.7660444514056185 0 0.64278759981090561 0.64278759981090561 0 0.7660444514056185 forward_v I I I I #
coedge $-1 $115 $116 $117 $118 reversed $45 $-1 #
face $-1 $-1 $119 $25 $-1 $120 forward single #
loop $-1 $121 $122 $47 #
cone-surface $-1 -49.813482094236406 10.639051023221874 5.6156494249998019 0.7660444514056185 0 -0.64278759981090561 0.1606968999527264 0 0.19151111285140462 1 I I -0.70710678118654746 0.70710678118654746 0.25 forward I I I I #
loop $-1 $-1 $123 $32 #
coedge $-1 $76 $76 $124 $125 reversed $48 $-1 #
face $-1 $-1 $126 $26 $-1 $127 forward single #
loop $-1 $128 $129 $50 #
cone-surface $-1 -49.813482094236406 13.57644291152976 5.6156494249998019 0.7660444514056185 0 -0.64278759981090561 0.1606968999527264 0 0.19151111285140462 1 I I -0.70710678118654746 0.70710678118654746 0.25 forward I I I I #
loop $-1 $-1 $130 $33 #
coedge $-1 $81 $81 $131 $132 reversed $51 $-1 #
face $-1 $-1 $133 $27 $-1 $134 forward single #
loop $-1 $135 $136 $53 #
cone-surface $-1 -49.813482094236406 16.513834799837646 5.6156494249998019 0.7660444514056185 0 -0.64278759981090561 0.1606968999527264 0 0.19151111285140462 1 I I -0.70710678118654746 0.70710678118654746 0.25 forward I I I I #
loop $-1 $-1 $137 $34 #
coedge $-1 $86 $86 $138 $139 reversed $54 $-1 #
face $-1 $140 $141 $21 $-1 $142 reversed single #
loop $-1 $-1 $143 $56 #
plane-surface $-1 0 -29.843505175888261 0 0 1 0 0 0 1 forward_v I I I I #
coedge $-1 $144 $145 $146 $147 forward $57 $-1 #
coedge $-1 $148 $59 $149 $150 forward $36 $-1 #
coedge $-1 $59 $148 $151 $152 forward $36 $-1 #
coedge $-1 $153 $154 $59 $94 reversed $155 $-1 #
edge $-1 $156 -29.843505175888261 $157 29.843505175888261 $93 $158 forward 7 unknown #
face $-1 $159 $160 $22 $-1 $161 reversed single #
loop $-1 $-1 $162 $60 #
plane-surface $-1 -44.610335989596159 -41.214914293066947 0 0 1 0 0 0 1 forward_v I I I I #
coedge $-1 $163 $164 $100 $165 forward $61 $-1 #
coedge $-1 $166 $63 $167 $168 reversed $39 $-1 #
coedge $-1 $63 $166 $98 $165 reversed $39 $-1 #
coedge $-1 $169 $170 $63 $102 reversed $160 $-1 #
edge $-1 $171 -9.1387594511204213 $172 9.1387594511204213 $101 $173 forward 7 unknown #
face $-1 $174 $175 $23 $-1 $176 reversed single #
loop $-1 $-1 $177 $64 #
plane-surface $-1 -47.325691320879564 35.529209734477597 0 1 0 0 0 0 -1 forward_v I I I I #
coedge $-1 $178 $179 $108 $180 forward $65 $-1 #
coedge $-1 $181 $67 $182 $183 reversed $42 $-1 #
coedge $-1 $67 $181 $106 $180 reversed $42 $-1 #
coedge $-1 $184 $185 $67 $110 reversed $186 $-1 #
edge $-1 $187 -9.1387594511204213 $188 9.1387594511204213 $109 $189 forward 7 unknown #
face $-1 $190 $191 $24 $-1 $192 reversed single #
loop $-1 $-1 $193 $68 #
plane-surface $-1 -134.87988691436033 18.472096058709575 73.400012195633295 0 -1 0 0.7660444514056185 0 -0.64278759981090561 forward_v I I I I #
coedge $-1 $194 $195 $196 $197 reversed $69 $-1 #
coedge $-1 $116 $71 $198 $199 reversed $45 $-1 #
coedge $-1 $71 $115 $194 $200 reversed $45 $-1 #
coedge $-1 $196 $201 $71 $118 forward $202 $-1 #
edge $-1 $203 14.171716277395625 $204 17.711927073819218 $117 $205 forward 7 unknown #
loop $-1 $-1 $124 $72 #
plane-surface $-1 -53.268227179784517 13.57644291152976 4.919700405481791 -0.7660444514056185 0 0.64278759981090561 0.64278759981090561 0 0.7660444514056185 forward_v I I I I #
loop $-1 $-1 $206 $47 #
coedge $-1 $122 $122 $123 $207 reversed $73 $-1 #
coedge $-1 $123 $123 $122 $207 forward $75 $-1 #
coedge $-1 $124 $124 $76 $125 forward $119 $-1 #
edge $-1 $208 0 $208 6.2831853071796004 $124 $209 forward 7 unknown #
loop $-1 $-1 $131 $77 #
plane-surface $-1 -53.268227179784517 13.57644291152976 4.919700405481791 -0.7660444514056185 0 0.64278759981090561 0.64278759981090561 0 0.7660444514056185 forward_v I I I I #
loop $-1 $-1 $210 $50 #
coedge $-1 $129 $129 $130 $211 reversed $78 $-1 #
coedge $-1 $130 $130 $129 $211 forward $80 $-1 #
coedge $-1 $131 $131 $81 $132 forward $126 $-1 #
edge $-1 $212 0 $212 6.2831853071796004 $131 $213 forward 7 unknown #
loop $-1 $-1 $138 $82 #
plane-surface $-1 -53.268227179784517 13.57644291152976 4.919700405481791 -0.7660444514056185 0 0.64278759981090561 0.64278759981090561 0 0.7660444514056185 forward_v I I I I #
loop $-1 $-1 $214 $53 #
coedge $-1 $136 $136 $137 $215 reversed $83 $-1 #
coedge $-1 $137 $137 $136 $215 forward $85 $-1 #
coedge $-1 $138 $138 $86 $139 forward $133 $-1 #
edge $-1 $216 0 $216 6.2831853071796004 $138 $217 forward 7 unknown #
face $-1 $218 $219 $21 $-1 $220 reversed single #
loop $-1 $-1 $221 $87 #
plane-surface $-1 -53.268227179784539 0 0 1 0 0 0 0 -1 forward_v I I I I #
coedge $-1 $222 $151 $223 $224 forward $88 $-1 #
coedge $-1 $225 $90 $222 $226 forward $57 $-1 #
coedge $-1 $90 $225 $227 $228 forward $57 $-1 #
coedge $-1 $154 $153 $90 $147 reversed $155 $-1 #
edge $-1 $229 -29.843505175888261 $230 29.843505175888261 $146 $231 forward 7 unknown #
coedge $-1 $92 $91 $232 $233 forward $36 $-1 #
coedge $-1 $234 $235 $91 $150 reversed $219 $-1 #
edge $-1 $157 -53.268227179784539 $236 53.268227179784539 $149 $237 forward 7 unknown #
coedge $-1 $143 $238 $92 $152 reversed $88 $-1 #
edge $-1 $239 -53.268227179784539 $156 53.268227179784539 $151 $240 forward 7 unknown #
coedge $-1 $146 $93 $238 $241 forward $155 $-1 #
coedge $-1 $93 $146 $234 $242 reversed $155 $-1 #
loop $-1 $-1 $153 $218 #
vertex $-1 $94 $243 #
vertex $-1 $94 $244 #
straight-curve $-1 53.268227179784539 0 9.1387594511204213 0 1 0 I I #
face $-1 $245 $246 $22 $-1 $247 reversed single #
loop $-1 $-1 $101 $95 #
plane-surface $-1 -47.325691320879564 -35.529209734477604 0 1 0 0 0 0 -1 forward_v I I I I #
coedge $-1 $248 $249 $250 $251 forward $96 $-1 #
coedge $-1 $252 $98 $253 $254 forward $61 $-1 #
coedge $-1 $98 $252 $169 $255 forward $61 $-1 #
edge $-1 $171 -47.325691320879564 $256 -41.894980658312754 $98 $257 forward 7 unknown #
coedge $-1 $100 $99 $258 $259 forward $39 $-1 #
coedge $-1 $260 $261 $99 $168 forward $262 $-1 #
edge $-1 $263 41.894980658312754 $172 47.325691320879564 $167 $264 forward 7 unknown #
coedge $-1 $250 $101 $164 $255 reversed $160 $-1 #
coedge $-1 $101 $250 $260 $265 reversed $160 $-1 #
vertex $-1 $165 $266 #
vertex $-1 $265 $267 #
straight-curve $-1 -47.325691320879564 -29.843505175888261 0 0 0 1 I I #
face $-1 $268 $186 $23 $-1 $269 reversed single #
loop $-1 $-1 $270 $103 #
plane-surface $-1 -44.610335989596159 41.21491429306694 0 0 -1 0 0 0 -1 forward_v I I I I #
coedge $-1 $271 $272 $273 $274 forward $104 $-1 #
coedge $-1 $275 $106 $271 $276 forward $65 $-1 #
coedge $-1 $106 $275 $184 $277 forward $65 $-1 #
edge $-1 $187 41.894980658312754 $278 47.325691320879564 $106 $279 forward 7 unknown #
coedge $-1 $108 $107 $280 $281 forward $42 $-1 #
coedge $-1 $282 $283 $107 $183 forward $284 $-1 #
edge $-1 $285 -47.325691320879564 $188 -41.894980658312754 $182 $286 forward 7 unknown #
coedge $-1 $287 $109 $179 $277 reversed $186 $-1 #
coedge $-1 $109 $287 $282 $288 reversed $186 $-1 #
loop $-1 $-1 $109 $174 #
vertex $-1 $180 $289 #
vertex $-1 $288 $290 #
straight-curve $-1 -41.894980658312754 29.843505175888261 0 0 0 1 I I #
face $-1 $-1 $202 $24 $-1 $291 forward single #
loop $-1 $-1 $292 $111 #
plane-surface $-1 -53.268227179784539 0 0 1 0 0 0 0 -1 forward_v I I I I #
coedge $-1 $293 $294 $295 $296 reversed $112 $-1 #
coedge $-1 $297 $114 $116 $200 forward $69 $-1 #
coedge $-1 $114 $297 $293 $298 forward $69 $-1 #
coedge $-1 $295 $117 $114 $197 forward $202 $-1 #
edge $-1 $204 1.8925683085850658 $299 11.683874602944694 $196 $300 forward 7 unknown #
coedge $-1 $301 $302 $115 $199 forward $191 $-1 #
edge $-1 $303 -31.780305692334881 $203 -27.561246646696226 $198 $304 forward 7 unknown #
edge $-1 $204 -5.5075903727219222 $303 3.3432982148284547e-014 $116 $305 forward 7 unknown #
coedge $-1 $117 $295 $301 $306 forward $202 $-1 #
loop $-1 $-1 $295 $190 #
vertex $-1 $199 $307 #
vertex $-1 $118 $308 #
straight-curve $-1 -67.439943457180163 8.6807897643499459 9.1387594511204213 1 0 0 I I #
coedge $-1 $206 $206 $-1 $309 reversed $121 $-1 #
edge $-1 $310 0 $310 6.2831853071796004 $122 $311 forward 7 unknown #
vertex $-1 $125 $312 #
ellipse-curve $-1 -51.498121781572742 10.639051023221874 7.0292299283010946 -0.7660444514056185 0 0.64278759981090561 0.3213937999054528 0 0.38302222570280925 1 I I #
coedge $-1 $210 $210 $-1 $313 reversed $128 $-1 #
edge $-1 $314 0 $314 6.2831853071796004 $129 $315 forward 7 unknown #
vertex $-1 $132 $316 #
ellipse-curve $-1 -51.498121781572742 13.57644291152976 7.0292299283010946 -0.7660444514056185 0 0.64278759981090561 0.3213937999054528 0 0.38302222570280925 1 I I #
coedge $-1 $214 $214 $-1 $317 reversed $135 $-1 #
edge $-1 $318 0 $318 6.2831853071796004 $136 $319 forward 7 unknown #
vertex $-1 $139 $320 #
ellipse-curve $-1 -51.498121781572742 16.513834799837646 7.0292299283010946 -0.7660444514056185 0 0.64278759981090561 0.3213937999054528 0 0.38302222570280925 1 I I #
face $-1 $-1 $155 $21 $-1 $321 reversed single #
loop $-1 $-1 $234 $140 #
plane-surface $-1 0 29.843505175888261 0 0 -1 0 0 0 -1 forward_v I I I I #
coedge $-1 $322 $232 $235 $323 forward $141 $-1 #
coedge $-1 $238 $143 $144 $226 reversed $88 $-1 #
coedge $-1 $232 $322 $143 $224 reversed $141 $-1 #
edge $-1 $239 -9.1387594511204213 $324 9.1387594511204213 $223 $325 forward 7 unknown #
coedge $-1 $145 $144 $322 $326 forward $57 $-1 #
edge $-1 $230 -53.268227179784539 $324 53.268227179784539 $222 $327 forward 7 unknown #
coedge $-1 $235 $234 $145 $228 reversed $219 $-1 #
edge $-1 $328 -53.268227179784539 $229 53.268227179784539 $227 $329 forward 7 unknown #
vertex $-1 $147 $330 #
vertex $-1 $241 $331 #
straight-curve $-1 53.268227179784539 0 -9.1387594511204213 0 -1 0 I I #
coedge $-1 $221 $223 $148 $233 reversed $141 $-1 #
edge $-1 $236 -29.843505175888261 $239 29.843505175888261 $232 $332 forward 7 unknown #
coedge $-1 $227 $149 $154 $242 forward $219 $-1 #
coedge $-1 $149 $227 $221 $323 reversed $219 $-1 #
vertex $-1 $150 $333 #
straight-curve $-1 0 29.843505175888261 9.1387594511204213 -1 0 0 I I #
coedge $-1 $151 $222 $153 $241 reversed $88 $-1 #
vertex $-1 $233 $334 #
straight-curve $-1 0 -29.843505175888261 9.1387594511204213 1 0 0 I I #
edge $-1 $156 -9.1387594511204213 $230 9.1387594511204213 $153 $335 forward 7 unknown #
edge $-1 $157 -9.1387594511204213 $229 9.1387594511204213 $154 $336 forward 7 unknown #
point $-1 53.268227179784539 -29.843505175888261 9.1387594511204213 #
point $-1 53.268227179784539 29.843505175888261 9.1387594511204213 #
face $-1 $-1 $262 $22 $-1 $337 forward single #
loop $-1 $-1 $338 $159 #
plane-surface $-1 -41.894980658312754 -35.529209734477604 0 -1 0 0 0 0 1 forward_v I I I I #
coedge $-1 $339 $162 $252 $340 reversed $96 $-1 #
coedge $-1 $162 $339 $341 $342 reversed $96 $-1 #
coedge $-1 $170 $169 $162 $251 reversed $160 $-1 #
edge $-1 $343 -9.1387594511204213 $344 9.1387594511204213 $250 $345 forward 7 unknown #
coedge $-1 $164 $163 $248 $340 forward $61 $-1 #
coedge $-1 $258 $338 $163 $254 reversed $246 $-1 #
edge $-1 $256 -5.6857045585893431 $346 5.6857045585893431 $253 $347 forward 7 unknown #
edge $-1 $344 -5.6857045585893431 $171 5.6857045585893431 $169 $348 forward 7 unknown #
vertex $-1 $254 $349 #
straight-curve $-1 0 -29.843505175888261 -9.1387594511204213 1 0 0 I I #
coedge $-1 $350 $253 $166 $259 reversed $246 $-1 #
edge $-1 $263 -9.1387594511204213 $256 9.1387594511204213 $258 $351 forward 7 unknown #
coedge $-1 $341 $167 $170 $265 forward $262 $-1 #
coedge $-1 $167 $341 $350 $352 forward $262 $-1 #
loop $-1 $-1 $167 $245 #
vertex $-1 $168 $353 #
straight-curve $-1 0 -29.843505175888261 9.1387594511204213 -1 0 0 I I #
edge $-1 $172 -5.6857045585893431 $343 5.6857045585893431 $170 $354 forward 7 unknown #
point $-1 -47.325691320879564 -29.843505175888261 -9.1387594511204213 #
point $-1 -47.325691320879564 -29.843505175888261 9.1387594511204213 #
face $-1 $-1 $284 $23 $-1 $355 forward single #
plane-surface $-1 -41.894980658312754 35.529209734477597 0 -1 0 0 0 0 1 forward_v I I I I #
coedge $-1 $356 $357 $287 $358 forward $175 $-1 #
coedge $-1 $280 $177 $178 $276 reversed $104 $-1 #
coedge $-1 $177 $280 $283 $359 reversed $104 $-1 #
coedge $-1 $357 $356 $177 $274 reversed $175 $-1 #
edge $-1 $360 -9.1387594511204213 $361 9.1387594511204213 $273 $362 forward 7 unknown #
coedge $-1 $179 $178 $356 $363 forward $65 $-1 #
edge $-1 $278 -5.6857045585893431 $361 5.6857045585893431 $271 $364 forward 7 unknown #
edge $-1 $365 -5.6857045585893431 $187 5.6857045585893431 $184 $366 forward 7 unknown #
vertex $-1 $276 $367 #
straight-curve $-1 0 29.843505175888261 -9.1387594511204213 -1 0 0 I I #
coedge $-1 $272 $271 $181 $281 reversed $104 $-1 #
edge $-1 $285 -9.1387594511204213 $278 9.1387594511204213 $280 $368 forward 7 unknown #
coedge $-1 $369 $182 $185 $288 forward $284 $-1 #
coedge $-1 $182 $369 $272 $359 forward $284 $-1 #
loop $-1 $-1 $182 $268 #
vertex $-1 $183 $370 #
straight-curve $-1 0 29.843505175888261 9.1387594511204213 1 0 0 I I #
coedge $-1 $185 $184 $270 $358 reversed $186 $-1 #
edge $-1 $188 -5.6857045585893431 $371 5.6857045585893431 $185 $372 forward 7 unknown #
point $-1 -41.894980658312754 29.843505175888254 -9.1387594511204213 #
point $-1 -41.894980658312754 29.843505175888254 9.1387594511204213 #
plane-surface $-1 0 0 9.1387594511204213 0 0 1 1 0 0 forward_v I I I I #
coedge $-1 $302 $301 $294 $373 forward $191 $-1 #
coedge $-1 $294 $193 $195 $298 reversed $112 $-1 #
coedge $-1 $193 $293 $292 $373 reversed $112 $-1 #
coedge $-1 $201 $196 $193 $296 forward $202 $-1 #
edge $-1 $299 -17.711927073819218 $374 -14.171716277395625 $295 $375 forward 7 unknown #
coedge $-1 $195 $194 $302 $376 reversed $69 $-1 #
edge $-1 $377 -3.3432982148284547e-014 $299 5.5075903727219222 $293 $378 forward 7 unknown #
vertex $-1 $197 $379 #
straight-curve $-1 -49.728016383360945 6.7882214557648801 9.1387594511204213 0 1 0 I I #
coedge $-1 $292 $198 $201 $306 reversed $191 $-1 #
coedge $-1 $198 $292 $297 $376 forward $191 $-1 #
vertex $-1 $199 $380 #
straight-curve $-1 -53.268227179784539 8.6807897643499459 36.700006097816647 0 0 1 I I #
straight-curve $-1 -53.268227179784517 8.6807897643499459 4.919700405481791 -0.64278759981090561 0 -0.7660444514056185 I I #
edge $-1 $374 -18.472096058709575 $203 -8.6807897643499459 $301 $381 forward 7 unknown #
point $-1 -53.268227179784539 8.6807897643499459 9.1387594511204213 #
point $-1 -49.728016383360945 8.6807897643499459 9.1387594511204213 #
edge $-1 $382 1 $382 0 $206 $-1 forward 7 unknown #
vertex $-1 $207 $383 #
ellipse-curve $-1 -50.004993207087807 10.639051023221874 5.7763463249525282 -0.7660444514056185 0 0.64278759981090561 0.3213937999054528 0 0.38302222570280925 1 I I #
point $-1 -51.176727981667305 10.639051023221874 7.4122521540039212 #
edge $-1 $384 1 $384 0 $210 $-1 forward 7 unknown #
vertex $-1 $211 $385 #
ellipse-curve $-1 -50.004993207087807 13.57644291152976 5.7763463249525282 -0.7660444514056185 0 0.64278759981090561 0.3213937999054528 0 0.38302222570280925 1 I I #
point $-1 -51.176727981667305 13.57644291152976 7.4122521540039212 #
edge $-1 $386 1 $386 0 $214 $-1 forward 7 unknown #
vertex $-1 $215 $387 #
ellipse-curve $-1 -50.004993207087807 16.513834799837646 5.7763463249525282 -0.7660444514056185 0 0.64278759981090561 0.3213937999054528 0 0.38302222570280925 1 I I #
point $-1 -51.176727981667305 16.513834799837646 7.4122521540039212 #
plane-surface $-1 53.268227179784539 0 0 -1 0 0 0 0 1 forward_v I I I I #
coedge $-1 $223 $221 $225 $326 reversed $141 $-1 #
edge $-1 $236 -9.1387594511204213 $328 9.1387594511204213 $235 $388 forward 7 unknown #
vertex $-1 $326 $389 #
straight-curve $-1 -53.268227179784539 -29.843505175888261 0 0 0 -1 I I #
edge $-1 $324 -29.843505175888261 $328 29.843505175888261 $322 $390 forward 7 unknown #
straight-curve $-1 0 -29.843505175888261 -9.1387594511204213 -1 0 0 I I #
vertex $-1 $228 $391 #
straight-curve $-1 0 29.843505175888261 -9.1387594511204213 1 0 0 I I #
point $-1 53.268227179784539 29.843505175888261 -9.1387594511204213 #
point $-1 53.268227179784539 -29.843505175888261 -9.1387594511204213 #
straight-curve $-1 -53.268227179784539 0 9.1387594511204213 0 -1 0 I I #
point $-1 -53.268227179784539 29.843505175888261 9.1387594511204213 #
point $-1 -53.268227179784539 -29.843505175888261 9.1387594511204213 #
straight-curve $-1 53.268227179784539 -29.843505175888261 0 0 0 -1 I I #
straight-curve $-1 53.268227179784539 29.843505175888261 0 0 0 -1 I I #
plane-surface $-1 0 0 9.1387594511204213 0 0 1 1 0 0 forward_v I I I I #
coedge $-1 $253 $350 $339 $392 forward $246 $-1 #
coedge $-1 $249 $248 $338 $392 reversed $96 $-1 #
edge $-1 $346 -2.7153553312834049 $344 2.7153553312834049 $248 $393 forward 7 unknown #
coedge $-1 $261 $260 $249 $342 forward $262 $-1 #
edge $-1 $343 -2.7153553312834049 $394 2.7153553312834049 $249 $395 forward 7 unknown #
vertex $-1 $265 $396 #
vertex $-1 $255 $397 #
straight-curve $-1 -47.325691320879564 -41.214914293066947 0 0 0 -1 I I #
vertex $-1 $392 $398 #
straight-curve $-1 -41.894980658312754 -35.529209734477604 -9.1387594511204213 0 -1 0 I I #
straight-curve $-1 -47.325691320879564 -35.529209734477604 -9.1387594511204213 0 1 0 I I #
point $-1 -41.894980658312754 -29.843505175888261 -9.1387594511204213 #
coedge $-1 $338 $258 $261 $352 reversed $246 $-1 #
straight-curve $-1 -41.894980658312754 -29.843505175888261 0 0 0 -1 I I #
edge $-1 $394 -5.6857045585893431 $263 5.6857045585893431 $350 $399 forward 7 unknown #
point $-1 -41.894980658312754 -29.843505175888261 9.1387594511204213 #
straight-curve $-1 -47.325691320879564 -35.529209734477604 9.1387594511204213 0 -1 0 I I #
plane-surface $-1 0 0 9.1387594511204213 0 0 1 1 0 0 forward_v I I I I #
coedge $-1 $273 $270 $275 $363 reversed $175 $-1 #
coedge $-1 $270 $273 $369 $400 reversed $175 $-1 #
edge $-1 $371 -9.1387594511204213 $365 9.1387594511204213 $287 $401 forward 7 unknown #
edge $-1 $360 -5.6857045585893431 $285 5.6857045585893431 $272 $402 forward 7 unknown #
vertex $-1 $400 $403 #
vertex $-1 $363 $404 #
straight-curve $-1 -47.325691320879564 41.21491429306694 0 0 0 -1 I I #
edge $-1 $361 -2.7153553312834049 $365 2.7153553312834049 $356 $405 forward 7 unknown #
straight-curve $-1 -47.325691320879564 35.529209734477597 -9.1387594511204213 0 1 0 I I #
vertex $-1 $277 $406 #
straight-curve $-1 -41.894980658312754 35.529209734477597 -9.1387594511204213 0 -1 0 I I #
point $-1 -47.325691320879564 29.843505175888254 -9.1387594511204213 #
straight-curve $-1 -47.325691320879564 29.843505175888261 0 0 0 -1 I I #
coedge $-1 $283 $282 $357 $400 forward $284 $-1 #
point $-1 -47.325691320879564 29.843505175888254 9.1387594511204213 #
vertex $-1 $288 $407 #
straight-curve $-1 -41.894980658312754 35.529209734477597 9.1387594511204213 0 1 0 I I #
edge $-1 $374 27.561246646696226 $377 31.780305692334881 $292 $408 forward 7 unknown #
vertex $-1 $306 $409 #
straight-curve $-1 -67.439943457180163 18.472096058709575 9.1387594511204213 -1 0 0 I I #
edge $-1 $377 -11.683874602944694 $303 -1.8925683085850658 $302 $410 forward 7 unknown #
vertex $-1 $376 $411 #
straight-curve $-1 -53.268227179784517 18.472096058709575 4.919700405481791 0.64278759981090561 0 0.7660444514056185 I I #
point $-1 -49.728016383360945 18.472096058709575 9.1387594511204213 #
point $-1 -53.268227179784539 8.6807897643499459 4.9197004054817652 #
straight-curve $-1 -53.268227179784539 0 9.1387594511204213 0 -1 0 I I #
vertex $-1 $309 $412 #
point $-1 -49.683599407182356 10.639051023221874 6.1593685506553371 #
vertex $-1 $313 $413 #
point $-1 -49.683599407182356 13.57644291152976 6.1593685506553371 #
vertex $-1 $317 $414 #
point $-1 -49.683599407182356 16.513834799837646 6.1593685506553371 #
straight-curve $-1 -53.268227179784539 29.843505175888261 0 0 0 -1 I I #
point $-1 -53.268227179784539 -29.843505175888261 -9.1387594511204213 #
straight-curve $-1 -53.268227179784539 0 -9.1387594511204213 0 1 0 I I #
point $-1 -53.268227179784539 29.843505175888261 -9.1387594511204213 #
edge $-1 $394 -9.1387594511204213 $346 9.1387594511204213 $338 $415 forward 7 unknown #
straight-curve $-1 -44.610335989596159 -41.214914293066947 -9.1387594511204213 -1 0 0 I I #
vertex $-1 $352 $416 #
straight-curve $-1 -44.610335989596159 -41.214914293066947 9.1387594511204213 1 0 0 I I #
point $-1 -47.325691320879564 -41.214914293066947 9.1387594511204213 #
point $-1 -47.325691320879564 -41.214914293066947 -9.1387594511204213 #
point $-1 -41.894980658312754 -41.214914293066947 -9.1387594511204213 #
straight-curve $-1 -41.894980658312754 -35.529209734477604 9.1387594511204213 0 1 0 I I #
edge $-1 $371 -2.7153553312834049 $360 2.7153553312834049 $357 $417 forward 7 unknown #
straight-curve $-1 -41.894980658312754 41.21491429306694 0 0 0 -1 I I #
straight-curve $-1 -47.325691320879564 35.529209734477597 9.1387594511204213 0 -1 0 I I #
point $-1 -47.325691320879564 41.21491429306694 9.1387594511204213 #
point $-1 -47.325691320879564 41.21491429306694 -9.1387594511204213 #
straight-curve $-1 -44.610335989596159 41.21491429306694 -9.1387594511204213 1 0 0 I I #
point $-1 -41.894980658312754 41.21491429306694 -9.1387594511204213 #
point $-1 -41.894980658312754 41.21491429306694 9.1387594511204213 #
straight-curve $-1 -53.268227179784539 18.472096058709575 36.700006097816647 0 0 -1 I I #
point $-1 -53.268227179784539 18.472096058709575 9.1387594511204213 #
straight-curve $-1 -53.268227179784539 6.7882214557648801 4.9197004054817697 0 -1 0 I I #
point $-1 -53.268227179784539 18.472096058709575 4.9197004054817652 #
point $-1 -49.621970981385005 10.639051023221874 5.4549525250470756 #
point $-1 -49.621970981385005 13.57644291152976 5.4549525250470756 #
point $-1 -49.621970981385005 16.513834799837646 5.4549525250470756 #
straight-curve $-1 -41.894980658312754 -41.214914293066947 0 0 0 -1 I I #
point $-1 -41.894980658312754 -41.214914293066947 9.1387594511204213 #
straight-curve $-1 -44.610335989596159 41.21491429306694 9.1387594511204213 -1 0 0 I I #
End-of-ACIS-data 