500 0 7 0           
7 Unknown 11 ACIS 5.0 NT 24 Fri Mar 26 02:13:06 1999 
-1 9.9999999999999995e-007 1e-010 
body $-1 $7 $-1 $8 #
body $-1 $9 $-1 $10 #
body $-1 $11 $-1 $12 #
body $-1 $13 $-1 $14 #
body $-1 $15 $-1 $16 #
body $-1 $17 $-1 $18 #
body $-1 $19 $-1 $20 #
lump $-1 $-1 $21 $0 #
transform $-1 1 0 0 0 1 0 0 0 1 77.839289529099403 53.142709988634195 14.029532715405173 1 rotate no_reflect no_shear #
lump $-1 $-1 $22 $1 #
transform $-1 1 0 0 0 1 0 0 0 1 77.839289529099403 53.142709988634195 14.029532715405173 1 rotate no_reflect no_shear #
lump $-1 $-1 $23 $2 #
transform $-1 1 0 0 0 1 0 0 0 1 77.839289529099403 53.142709988634195 14.029532715405173 1 rotate no_reflect no_shear #
lump $-1 $-1 $24 $3 #
transform $-1 1 0 0 0 1 0 0 0 1 77.839289529099403 53.142709988634195 14.029532715405173 1 rotate no_reflect no_shear #
lump $-1 $-1 $25 $4 #
transform $-1 1 0 0 0 1 0 0 0 1 77.839289529099403 53.142709988634195 14.029532715405173 1 rotate no_reflect no_shear #
lump $-1 $-1 $26 $5 #
transform $-1 1 0 0 0 1 0 0 0 1 77.839289529099403 53.142709988634195 14.029532715405173 1 rotate no_reflect no_shear #
lump $-1 $-1 $27 $6 #
transform $-1 1 0 0 0 1 0 0 0 1 77.839289529099403 53.142709988634195 14.029532715405173 1 rotate no_reflect no_shear #
shell $-1 $-1 $-1 $28 $-1 $7 #
shell $-1 $-1 $-1 $29 $-1 $9 #
shell $-1 $-1 $-1 $30 $-1 $11 #
shell $-1 $-1 $-1 $31 $-1 $13 #
shell $-1 $-1 $-1 $32 $-1 $15 #
shell $-1 $-1 $-1 $33 $-1 $17 #
shell $-1 $-1 $-1 $34 $-1 $19 #
face $-1 $35 $36 $21 $-1 $37 forward single #
face $-1 $38 $39 $22 $-1 $40 forward single #
face $-1 $41 $42 $23 $-1 $43 reversed single #
face $-1 $44 $45 $24 $-1 $46 forward single #
face $-1 $47 $48 $25 $-1 $49 reversed single #
face $-1 $50 $51 $26 $-1 $52 forward single #
face $-1 $53 $54 $27 $-1 $55 forward single #
face $-1 $56 $57 $21 $-1 $58 reversed single #
loop $-1 $-1 $59 $28 #
plane-surface $-1 0 0 14.029532715405173 0 0 1 1 0 0 forward_v I I I I #
face $-1 $60 $61 $22 $-1 $62 reversed single #
loop $-1 $-1 $63 $29 #
plane-surface $-1 0 -46.077356476467507 5.5332357548978042 0 0 1 1 0 0 forward_v I I I I #
face $-1 $64 $65 $23 $-1 $66 reversed single #
loop $-1 $-1 $67 $30 #
plane-surface $-1 108.48002623778888 0.89242778481185425 221.80897337072261 0 1 0 0.79863551827123203 0 0.60181501223851219 forward_v I I I I #
face $-1 $68 $69 $24 $-1 $70 forward single #
loop $-1 $71 $72 $31 #
cone-surface $-1 72.379490891371503 12.896277331308923 7.7024860896576337 -0.79863551827123203 0 -0.60181501223851219 0.90272251835776829 0 -1.197953277406848 1 I I 0 1 1.5 forward I I I I #
face $-1 $73 $74 $25 $-1 $75 reversed single #
loop $-1 $-1 $76 $32 #
plane-surface $-1 -202.16973219897298 23.790564690675801 100.67863347270355 0 1 0 -0.79863551827123203 0 0.60181501223851219 forward_v I I I I #
face $-1 $77 $78 $26 $-1 $79 forward single #
loop $-1 $80 $81 $33 #
cone-surface $-1 -74.086712222085907 30.374611109524594 9.6804419293971566 0.79863551827123203 0 -0.60181501223851219 0.60181501223851219 0 0.79863551827123203 1 I I 0 1 1 forward I I I I #
face $-1 $82 $83 $27 $-1 $84 forward single #
loop $-1 $85 $86 $34 #
cone-surface $-1 -74.086712222085907 40.250680737797765 9.6804419293971566 0.79863551827123203 0 -0.60181501223851219 0.60181501223851219 0 0.79863551827123203 1 I I 0 1 1 forward I I I I #
face $-1 $87 $88 $21 $-1 $89 reversed single #
loop $-1 $-1 $90 $35 #
plane-surface $-1 0 0 -14.029532715405173 0 0 1 1 0 0 forward_v I I I I #
coedge $-1 $91 $92 $93 $94 forward $36 $-1 #
face $-1 $95 $96 $22 $-1 $97 reversed single #
loop $-1 $-1 $98 $38 #
plane-surface $-1 0 -46.077356476467507 -2.4986256974257426 0 0 1 1 0 0 forward_v I I I I #
coedge $-1 $99 $100 $101 $102 reversed $39 $-1 #
face $-1 $103 $104 $23 $-1 $105 reversed single #
loop $-1 $-1 $106 $41 #
plane-surface $-1 -15.8504164320847 12.896277331308923 128.11926740953851 0.79863551827123203 0 0.60181501223851219 0.60181501223851219 0 -0.79863551827123203 forward_v I I I I #
coedge $-1 $107 $108 $109 $110 reversed $42 $-1 #
face $-1 $-1 $111 $24 $-1 $112 forward single #
loop $-1 $113 $114 $44 #
cone-surface $-1 70.179178990756441 12.896277331308923 6.0444321926013291 -0.79863551827123203 0 -0.60181501223851219 0.45136125917888414 0 -0.59897663870342399 1 I I -0.70710678118654757 0.70710678118654757 0.75 forward I I I I #
loop $-1 $-1 $115 $31 #
coedge $-1 $72 $72 $116 $117 reversed $45 $-1 #
face $-1 $118 $119 $25 $-1 $120 reversed single #
loop $-1 $-1 $121 $47 #
plane-surface $-1 -77.839289529099403 35.312645923661179 6.9889275115194494 -0.79863551827123203 0 0.60181501223851219 0.60181501223851219 0 0.79863551827123203 forward_v I I I I #
coedge $-1 $122 $123 $124 $125 reversed $48 $-1 #
face $-1 $-1 $126 $26 $-1 $127 forward single #
loop $-1 $128 $129 $50 #
cone-surface $-1 -72.587555363795985 30.374611109524594 8.5507462392127476 0.79863551827123203 0 -0.60181501223851219 0.3009075061192561 0 0.39931775913561601 1 I I -0.70710678118654746 0.70710678118654746 0.5 forward I I I I #
loop $-1 $-1 $130 $33 #
coedge $-1 $81 $81 $131 $132 reversed $51 $-1 #
face $-1 $-1 $133 $27 $-1 $134 forward single #
loop $-1 $135 $136 $53 #
cone-surface $-1 -72.587555363795985 40.250680737797765 8.5507462392127476 0.79863551827123203 0 -0.60181501223851219 0.3009075061192561 0 0.39931775913561601 1 I I -0.70710678118654746 0.70710678118654746 0.5 forward I I I I #
loop $-1 $-1 $137 $34 #
coedge $-1 $86 $86 $138 $139 reversed $54 $-1 #
face $-1 $140 $141 $21 $-1 $142 reversed single #
loop $-1 $-1 $143 $56 #
plane-surface $-1 0 -53.142709988634195 0 0 1 0 0 0 1 forward_v I I I I #
coedge $-1 $144 $145 $146 $147 forward $57 $-1 #
coedge $-1 $148 $59 $149 $150 forward $36 $-1 #
coedge $-1 $59 $148 $151 $152 forward $36 $-1 #
coedge $-1 $153 $154 $59 $94 reversed $155 $-1 #
edge $-1 $156 -53.142709988634195 $157 53.142709988634195 $93 $158 forward 7 unknown #
face $-1 $159 $160 $22 $-1 $161 reversed single #
loop $-1 $-1 $162 $60 #
plane-surface $-1 0 -39.012002964300819 1.5173050287360308 0 -1 0 0 0 -1 forward_v I I I I #
coedge $-1 $163 $164 $165 $166 reversed $61 $-1 #
coedge $-1 $167 $63 $168 $169 forward $39 $-1 #
coedge $-1 $63 $167 $170 $171 reversed $39 $-1 #
coedge $-1 $172 $173 $63 $102 forward $174 $-1 #
edge $-1 $175 15.973324726067066 $176 30.104031750400441 $101 $177 forward 7 unknown #
face $-1 $178 $179 $23 $-1 $180 forward single #
loop $-1 $-1 $181 $64 #
plane-surface $-1 108.48002623778888 24.900126877805992 221.80897337072261 0 -1 0 -0.79863551827123203 0 -0.60181501223851219 forward_v I I I I #
coedge $-1 $182 $183 $184 $185 reversed $65 $-1 #
coedge $-1 $108 $67 $186 $187 reversed $42 $-1 #
coedge $-1 $67 $107 $182 $188 reversed $42 $-1 #
coedge $-1 $184 $189 $67 $110 forward $190 $-1 #
edge $-1 $191 96.874953969956138 $192 107.11566194569637 $109 $193 forward 7 unknown #
loop $-1 $-1 $116 $68 #
plane-surface $-1 -15.8504164320847 12.896277331308923 128.11926740953851 0.79863551827123203 0 0.60181501223851219 0.60181501223851219 0 -0.79863551827123203 forward_v I I I I #
loop $-1 $-1 $194 $44 #
coedge $-1 $114 $114 $115 $195 reversed $69 $-1 #
coedge $-1 $115 $115 $114 $195 forward $71 $-1 #
coedge $-1 $116 $116 $72 $117 forward $111 $-1 #
edge $-1 $196 0 $196 6.2831853071796004 $116 $197 forward 7 unknown #
face $-1 $198 $199 $25 $-1 $200 reversed single #
loop $-1 $-1 $201 $73 #
plane-surface $-1 -202.16973219897298 46.834727156646558 100.67863347270355 0 -1 0 0.79863551827123203 0 -0.60181501223851219 forward_v I I I I #
coedge $-1 $202 $203 $204 $205 reversed $74 $-1 #
coedge $-1 $123 $76 $206 $207 reversed $48 $-1 #
coedge $-1 $76 $122 $202 $208 reversed $48 $-1 #
coedge $-1 $204 $209 $76 $125 forward $210 $-1 #
edge $-1 $211 23.245576570387087 $212 28.551052986105432 $124 $213 forward 7 unknown #
loop $-1 $-1 $131 $77 #
plane-surface $-1 -77.839289529099403 35.312645923661179 6.9889275115194494 -0.79863551827123203 0 0.60181501223851219 0.60181501223851219 0 0.79863551827123203 forward_v I I I I #
loop $-1 $-1 $214 $50 #
coedge $-1 $129 $129 $130 $215 reversed $78 $-1 #
coedge $-1 $130 $130 $129 $215 forward $80 $-1 #
coedge $-1 $131 $131 $81 $132 forward $126 $-1 #
edge $-1 $216 0 $216 6.2831853071796004 $131 $217 forward 7 unknown #
loop $-1 $-1 $138 $82 #
plane-surface $-1 -77.839289529099403 35.312645923661179 6.9889275115194494 -0.79863551827123203 0 0.60181501223851219 0.60181501223851219 0 0.79863551827123203 forward_v I I I I #
loop $-1 $-1 $218 $53 #
coedge $-1 $136 $136 $137 $219 reversed $83 $-1 #
coedge $-1 $137 $137 $136 $219 forward $85 $-1 #
coedge $-1 $138 $138 $86 $139 forward $133 $-1 #
edge $-1 $220 0 $220 6.2831853071796004 $138 $221 forward 7 unknown #
face $-1 $222 $223 $21 $-1 $224 reversed single #
loop $-1 $-1 $225 $87 #
plane-surface $-1 -77.839289529099403 0 0 1 0 0 0 0 -1 forward_v I I I I #
coedge $-1 $226 $151 $227 $228 forward $88 $-1 #
coedge $-1 $229 $90 $226 $230 forward $57 $-1 #
coedge $-1 $90 $229 $231 $232 forward $57 $-1 #
coedge $-1 $154 $153 $90 $147 reversed $155 $-1 #
edge $-1 $233 -53.142709988634195 $234 53.142709988634195 $146 $235 forward 7 unknown #
coedge $-1 $92 $91 $236 $237 forward $36 $-1 #
coedge $-1 $238 $239 $91 $150 reversed $223 $-1 #
edge $-1 $157 -77.839289529099403 $240 77.839289529099403 $149 $241 forward 7 unknown #
coedge $-1 $143 $242 $92 $152 reversed $88 $-1 #
edge $-1 $243 -77.839289529099403 $156 77.839289529099403 $151 $244 forward 7 unknown #
coedge $-1 $146 $93 $242 $245 forward $155 $-1 #
coedge $-1 $93 $146 $238 $246 reversed $155 $-1 #
loop $-1 $-1 $153 $222 #
vertex $-1 $94 $247 #
vertex $-1 $94 $248 #
straight-curve $-1 77.839289529099403 0 14.029532715405173 0 1 0 I I #
face $-1 $249 $250 $22 $-1 $251 reversed single #
loop $-1 $-1 $252 $95 #
plane-surface $-1 -77.839289529099403 0 0 1 0 0 0 0 -1 forward_v I I I I #
coedge $-1 $253 $168 $173 $254 reversed $96 $-1 #
coedge $-1 $255 $98 $256 $257 reversed $61 $-1 #
coedge $-1 $98 $255 $253 $258 forward $61 $-1 #
coedge $-1 $173 $172 $98 $166 forward $174 $-1 #
edge $-1 $259 -30.104031750400441 $260 -15.973324726067066 $165 $261 forward 7 unknown #
coedge $-1 $100 $99 $252 $262 reversed $39 $-1 #
coedge $-1 $162 $263 $99 $169 reversed $96 $-1 #
edge $-1 $175 -77.839289529099403 $264 77.839289529099403 $168 $265 forward 7 unknown #
coedge $-1 $266 $267 $100 $171 forward $250 $-1 #
edge $-1 $176 -77.839289529099403 $268 77.839289529099403 $170 $269 forward 7 unknown #
coedge $-1 $165 $101 $267 $270 forward $174 $-1 #
coedge $-1 $101 $165 $162 $254 forward $174 $-1 #
loop $-1 $-1 $101 $249 #
vertex $-1 $102 $271 #
vertex $-1 $270 $272 #
straight-curve $-1 77.839289529099403 -23.038678238233754 5.5332357548978042 0 -1 0 I I #
face $-1 $-1 $190 $23 $-1 $273 reversed single #
loop $-1 $-1 $274 $103 #
plane-surface $-1 0 0 14.029532715405173 0 0 1 1 0 0 forward_v I I I I #
coedge $-1 $275 $276 $277 $278 reversed $104 $-1 #
coedge $-1 $279 $106 $108 $188 forward $65 $-1 #
coedge $-1 $106 $279 $275 $280 forward $65 $-1 #
coedge $-1 $277 $109 $106 $185 forward $190 $-1 #
edge $-1 $192 -5.5557108808426072 $281 18.45198821215153 $184 $282 forward 7 unknown #
coedge $-1 $283 $284 $107 $187 forward $179 $-1 #
edge $-1 $285 15.882349658572494 $191 23.599276410204965 $186 $286 forward 7 unknown #
edge $-1 $192 -155.67857905819881 $285 -142.85582356905178 $108 $287 forward 7 unknown #
coedge $-1 $109 $277 $283 $288 reversed $190 $-1 #
loop $-1 $-1 $277 $178 #
vertex $-1 $288 $289 #
vertex $-1 $110 $290 #
straight-curve $-1 77.839289529099403 0.89242778481185425 110.90448668536131 0 0 -1 I I #
coedge $-1 $194 $194 $-1 $291 reversed $113 $-1 #
edge $-1 $292 0 $292 6.2831853071796004 $114 $293 forward 7 unknown #
vertex $-1 $117 $294 #
ellipse-curve $-1 73.980826153283161 12.896277331308923 8.9091787275350676 0.79863551827123203 0 0.60181501223851219 0.90272251835776829 0 -1.197953277406848 1 I I #
face $-1 $-1 $210 $25 $-1 $295 forward single #
loop $-1 $-1 $296 $118 #
plane-surface $-1 -77.839289529099403 0 0 1 0 0 0 0 -1 forward_v I I I I #
coedge $-1 $297 $298 $299 $300 reversed $119 $-1 #
coedge $-1 $301 $121 $123 $208 forward $74 $-1 #
coedge $-1 $121 $301 $297 $302 forward $74 $-1 #
coedge $-1 $299 $124 $121 $205 forward $210 $-1 #
edge $-1 $212 6.1342417288452111 $303 29.178404194815968 $204 $304 forward 7 unknown #
coedge $-1 $305 $306 $122 $207 forward $199 $-1 #
edge $-1 $307 -43.350389224832327 $211 -36.309784020946601 $206 $308 forward 7 unknown #
edge $-1 $212 -8.8157927400050831 $307 0 $123 $309 forward 7 unknown #
coedge $-1 $124 $299 $305 $310 forward $210 $-1 #
loop $-1 $-1 $299 $198 #
vertex $-1 $207 $311 #
vertex $-1 $125 $312 #
straight-curve $-1 -101.08486609948649 23.790564690675801 14.029532715405175 1 0 0 I I #
coedge $-1 $214 $214 $-1 $313 reversed $128 $-1 #
edge $-1 $314 0 $314 6.2831853071796004 $129 $315 forward 7 unknown #
vertex $-1 $132 $316 #
ellipse-curve $-1 -75.186551321240231 30.374611109524594 10.509230113462316 -0.79863551827123203 0 0.60181501223851219 0.60181501223851219 0 0.79863551827123203 1 I I #
coedge $-1 $218 $218 $-1 $317 reversed $135 $-1 #
edge $-1 $318 0 $318 6.2831853071796004 $136 $319 forward 7 unknown #
vertex $-1 $139 $320 #
ellipse-curve $-1 -75.186551321240231 40.250680737797765 10.509230113462316 -0.79863551827123203 0 0.60181501223851219 0.60181501223851219 0 0.79863551827123203 1 I I #
face $-1 $-1 $155 $21 $-1 $321 reversed single #
loop $-1 $-1 $238 $140 #
plane-surface $-1 0 53.142709988634195 0 0 -1 0 0 0 -1 forward_v I I I I #
coedge $-1 $322 $236 $239 $323 forward $141 $-1 #
coedge $-1 $242 $143 $144 $230 reversed $88 $-1 #
coedge $-1 $236 $322 $143 $228 reversed $141 $-1 #
edge $-1 $243 -14.029532715405173 $324 14.029532715405173 $227 $325 forward 7 unknown #
coedge $-1 $145 $144 $322 $326 forward $57 $-1 #
edge $-1 $234 -77.839289529099403 $324 77.839289529099403 $226 $327 forward 7 unknown #
coedge $-1 $239 $238 $145 $232 reversed $223 $-1 #
edge $-1 $328 -77.839289529099403 $233 77.839289529099403 $231 $329 forward 7 unknown #
vertex $-1 $147 $330 #
vertex $-1 $245 $331 #
straight-curve $-1 77.839289529099403 0 -14.029532715405173 0 -1 0 I I #
coedge $-1 $225 $227 $148 $237 reversed $141 $-1 #
edge $-1 $240 -53.142709988634195 $243 53.142709988634195 $236 $332 forward 7 unknown #
coedge $-1 $231 $149 $154 $246 forward $223 $-1 #
coedge $-1 $149 $231 $225 $323 reversed $223 $-1 #
vertex $-1 $150 $333 #
straight-curve $-1 0 53.142709988634195 14.029532715405173 -1 0 0 I I #
coedge $-1 $151 $226 $153 $245 reversed $88 $-1 #
vertex $-1 $237 $334 #
straight-curve $-1 0 -53.142709988634195 14.029532715405173 1 0 0 I I #
edge $-1 $156 -14.029532715405173 $234 14.029532715405173 $153 $335 forward 7 unknown #
edge $-1 $157 -14.029532715405173 $233 14.029532715405173 $154 $336 forward 7 unknown #
point $-1 77.839289529099403 -53.142709988634195 14.029532715405173 #
point $-1 77.839289529099403 53.142709988634195 14.029532715405173 #
face $-1 $-1 $174 $22 $-1 $337 reversed single #
loop $-1 $-1 $170 $159 #
plane-surface $-1 0 -53.142709988634195 0 0 1 0 0 0 1 forward_v I I I I #
coedge $-1 $338 $339 $167 $262 forward $160 $-1 #
coedge $-1 $263 $162 $164 $258 reversed $96 $-1 #
edge $-1 $260 -3.257278211793758 $175 4.7745832405297888 $173 $340 forward 7 unknown #
coedge $-1 $164 $163 $341 $342 reversed $61 $-1 #
coedge $-1 $267 $266 $163 $257 forward $250 $-1 #
edge $-1 $343 -77.839289529099403 $259 77.839289529099403 $256 $344 forward 7 unknown #
edge $-1 $345 -77.839289529099403 $260 77.839289529099403 $253 $346 forward 7 unknown #
vertex $-1 $257 $347 #
vertex $-1 $166 $348 #
straight-curve $-1 77.839289529099403 -23.038678238233754 -2.4986256974257426 0 1 0 I I #
edge $-1 $268 -30.104031750400441 $264 -15.973324726067066 $252 $349 forward 7 unknown #
coedge $-1 $168 $253 $338 $350 reversed $96 $-1 #
vertex $-1 $262 $351 #
straight-curve $-1 0 -39.012002964300819 5.5332357548978042 -1 0 0 I I #
coedge $-1 $256 $170 $339 $352 forward $250 $-1 #
coedge $-1 $170 $256 $172 $270 reversed $250 $-1 #
vertex $-1 $352 $353 #
straight-curve $-1 0 -53.142709988634195 5.5332357548978042 -1 0 0 I I #
edge $-1 $176 -5.5332357548978042 $259 2.4986256974257426 $172 $354 forward 7 unknown #
point $-1 77.839289529099403 -39.012002964300819 5.5332357548978042 #
point $-1 77.839289529099403 -53.142709988634195 5.5332357548978042 #
plane-surface $-1 77.839289529099403 0 0 -1 0 0 0 0 1 forward_v I I I I #
coedge $-1 $284 $283 $276 $355 forward $179 $-1 #
coedge $-1 $276 $181 $183 $280 reversed $104 $-1 #
coedge $-1 $181 $275 $274 $355 reversed $104 $-1 #
coedge $-1 $189 $184 $181 $278 forward $190 $-1 #
edge $-1 $281 -107.11566194569637 $356 -96.874953969956138 $277 $357 forward 7 unknown #
coedge $-1 $183 $182 $284 $358 reversed $65 $-1 #
edge $-1 $359 142.85582356905178 $281 155.67857905819881 $275 $360 forward 7 unknown #
vertex $-1 $185 $361 #
straight-curve $-1 77.839289529099403 6.4481386656544615 3.7888247396649177 0 1 0 I I #
coedge $-1 $274 $186 $189 $288 forward $179 $-1 #
coedge $-1 $186 $274 $279 $358 forward $179 $-1 #
vertex $-1 $187 $362 #
straight-curve $-1 54.240013118894439 0.89242778481185425 14.029532715405168 1 0 0 I I #
straight-curve $-1 -15.8504164320847 0.89242778481185425 128.11926740953851 -0.60181501223851219 0 0.79863551827123203 I I #
edge $-1 $191 0.89242778481185425 $356 24.900126877805992 $189 $363 forward 7 unknown #
point $-1 77.839289529099403 0.89242778481185425 14.029532715405173 #
point $-1 77.839289529099403 0.89242778481185425 3.7888247396649319 #
edge $-1 $364 1 $364 0 $194 $-1 forward 7 unknown #
vertex $-1 $195 $365 #
ellipse-curve $-1 70.77815562945986 12.896277331308923 6.4957934517802132 0.79863551827123203 0 0.60181501223851219 0.90272251835776829 0 -1.197953277406848 1 I I #
point $-1 74.883548671640909 12.896277331308923 7.7112254501282056 #
plane-surface $-1 0 0 14.029532715405173 0 0 1 1 0 0 forward_v I I I I #
coedge $-1 $306 $305 $298 $366 forward $199 $-1 #
coedge $-1 $298 $201 $203 $302 reversed $119 $-1 #
coedge $-1 $201 $297 $296 $366 reversed $119 $-1 #
coedge $-1 $209 $204 $201 $300 forward $210 $-1 #
edge $-1 $303 -28.551052986105432 $367 -23.245576570387087 $299 $368 forward 7 unknown #
coedge $-1 $203 $202 $306 $369 reversed $74 $-1 #
edge $-1 $370 0 $303 8.8157927400050831 $297 $371 forward 7 unknown #
vertex $-1 $205 $372 #
straight-curve $-1 -72.533813113381058 17.65632296183059 14.029532715405175 0 1 0 I I #
coedge $-1 $296 $206 $209 $310 reversed $199 $-1 #
coedge $-1 $206 $296 $301 $369 forward $199 $-1 #
vertex $-1 $207 $373 #
straight-curve $-1 -77.839289529099403 23.790564690675801 50.339316736351776 0 0 1 I I #
straight-curve $-1 -77.839289529099403 23.790564690675801 6.9889275115194494 -0.60181501223851219 0 -0.79863551827123203 I I #
edge $-1 $367 -46.834727156646558 $211 -23.790564690675801 $305 $374 forward 7 unknown #
point $-1 -77.839289529099403 23.790564690675801 14.029532715405173 #
point $-1 -72.533813113381058 23.790564690675801 14.029532715405175 #
edge $-1 $375 1 $375 0 $214 $-1 forward 7 unknown #
vertex $-1 $215 $376 #
ellipse-curve $-1 -72.986873122931598 30.374611109524594 8.851653745332003 -0.79863551827123203 0 0.60181501223851219 0.60181501223851219 0 0.79863551827123203 1 I I #
point $-1 -74.584736309001713 30.374611109524594 11.307865631733542 #
edge $-1 $377 1 $377 0 $218 $-1 forward 7 unknown #
vertex $-1 $219 $378 #
ellipse-curve $-1 -72.986873122931598 40.250680737797765 8.851653745332003 -0.79863551827123203 0 0.60181501223851219 0.60181501223851219 0 0.79863551827123203 1 I I #
point $-1 -74.584736309001713 40.250680737797765 11.307865631733542 #
plane-surface $-1 77.839289529099403 0 0 -1 0 0 0 0 1 forward_v I I I I #
coedge $-1 $227 $225 $229 $326 reversed $141 $-1 #
edge $-1 $240 -14.029532715405173 $328 14.029532715405173 $239 $379 forward 7 unknown #
vertex $-1 $326 $380 #
straight-curve $-1 -77.839289529099403 -53.142709988634195 0 0 0 -1 I I #
edge $-1 $324 -53.142709988634195 $328 53.142709988634195 $322 $381 forward 7 unknown #
straight-curve $-1 0 -53.142709988634195 -14.029532715405173 -1 0 0 I I #
vertex $-1 $232 $382 #
straight-curve $-1 0 53.142709988634195 -14.029532715405173 1 0 0 I I #
point $-1 77.839289529099403 53.142709988634195 -14.029532715405173 #
point $-1 77.839289529099403 -53.142709988634195 -14.029532715405173 #
straight-curve $-1 -77.839289529099403 0 14.029532715405173 0 -1 0 I I #
point $-1 -77.839289529099403 53.142709988634195 14.029532715405173 #
point $-1 -77.839289529099403 -53.142709988634195 14.029532715405173 #
straight-curve $-1 77.839289529099403 -53.142709988634195 0 0 0 -1 I I #
straight-curve $-1 77.839289529099403 53.142709988634195 0 0 0 -1 I I #
plane-surface $-1 77.839289529099403 0 0 -1 0 0 0 0 1 forward_v I I I I #
coedge $-1 $341 $252 $263 $350 forward $160 $-1 #
coedge $-1 $252 $341 $266 $352 reversed $160 $-1 #
straight-curve $-1 77.839289529099403 -39.012002964300819 0.7586525143680154 0 0 1 I I #
coedge $-1 $339 $338 $255 $342 forward $160 $-1 #
edge $-1 $345 15.973324726067066 $343 30.104031750400441 $341 $383 forward 7 unknown #
vertex $-1 $257 $384 #
straight-curve $-1 0 -53.142709988634195 -2.4986256974257426 1 0 0 I I #
vertex $-1 $342 $385 #
straight-curve $-1 0 -39.012002964300819 -2.4986256974257426 1 0 0 I I #
point $-1 77.839289529099403 -53.142709988634195 -2.4986256974257426 #
point $-1 77.839289529099403 -39.012002964300819 -2.4986256974257426 #
straight-curve $-1 -77.839289529099403 -23.038678238233754 5.5332357548978042 0 1 0 I I #
edge $-1 $264 -4.7745832405297888 $345 3.257278211793758 $338 $386 forward 7 unknown #
point $-1 -77.839289529099403 -39.012002964300819 5.5332357548978042 #
edge $-1 $268 -5.5332357548978042 $343 2.4986256974257426 $339 $387 forward 7 unknown #
point $-1 -77.839289529099403 -53.142709988634195 5.5332357548978042 #
straight-curve $-1 77.839289529099403 -53.142709988634195 0 0 0 -1 I I #
edge $-1 $356 -23.599276410204965 $359 -15.882349658572494 $274 $388 forward 7 unknown #
vertex $-1 $355 $389 #
straight-curve $-1 77.839289529099403 24.900126877805992 110.90448668536131 0 0 1 I I #
edge $-1 $359 -18.45198821215153 $285 5.5557108808426072 $284 $390 forward 7 unknown #
vertex $-1 $358 $391 #
straight-curve $-1 -15.8504164320847 24.900126877805992 128.11926740953851 0.60181501223851219 0 -0.79863551827123203 I I #
point $-1 77.839289529099403 24.900126877805992 3.7888247396649319 #
point $-1 70.122362777466932 0.89242778481185425 14.029532715405153 #
straight-curve $-1 77.839289529099403 0 14.029532715405173 0 1 0 I I #
vertex $-1 $291 $392 #
point $-1 71.680878147817637 12.896277331308923 5.2978401743733654 #
edge $-1 $367 36.309784020946601 $370 43.350389224832327 $296 $393 forward 7 unknown #
vertex $-1 $310 $394 #
straight-curve $-1 -101.08486609948649 46.834727156646558 14.029532715405175 -1 0 0 I I #
edge $-1 $370 -29.178404194815968 $307 -6.1342417288452111 $306 $395 forward 7 unknown #
vertex $-1 $369 $396 #
straight-curve $-1 -77.839289529099403 46.834727156646558 6.9889275115194494 0.60181501223851219 0 0.79863551827123203 I I #
point $-1 -72.533813113381058 46.834727156646558 14.029532715405175 #
point $-1 -77.839289529099403 23.790564690675801 6.9889275115194494 #
straight-curve $-1 -77.839289529099403 0 14.029532715405173 0 -1 0 I I #
vertex $-1 $313 $397 #
point $-1 -72.385058110693095 30.374611109524594 9.650289263603236 #
vertex $-1 $317 $398 #
point $-1 -72.385058110693095 40.250680737797765 9.650289263603236 #
straight-curve $-1 -77.839289529099403 53.142709988634195 0 0 0 -1 I I #
point $-1 -77.839289529099403 -53.142709988634195 -14.029532715405173 #
straight-curve $-1 -77.839289529099403 0 -14.029532715405173 0 1 0 I I #
point $-1 -77.839289529099403 53.142709988634195 -14.029532715405173 #
straight-curve $-1 -77.839289529099403 -23.038678238233754 -2.4986256974257426 0 -1 0 I I #
point $-1 -77.839289529099403 -53.142709988634195 -2.4986256974257426 #
point $-1 -77.839289529099403 -39.012002964300819 -2.4986256974257426 #
straight-curve $-1 -77.839289529099403 -39.012002964300819 0.7586525143680154 0 0 -1 I I #
straight-curve $-1 -77.839289529099403 -53.142709988634195 0 0 0 -1 I I #
straight-curve $-1 54.240013118894439 24.900126877805992 14.029532715405168 -1 0 0 I I #
point $-1 77.839289529099403 24.900126877805992 14.029532715405173 #
straight-curve $-1 70.122362777466932 6.4481386656544615 14.029532715405168 0 -1 0 I I #
point $-1 70.122362777466932 24.900126877805992 14.029532715405153 #
point $-1 69.580202352053021 12.896277331308923 5.5930709334224451 #
straight-curve $-1 -77.839289529099403 46.834727156646558 50.339316736351776 0 0 -1 I I #
point $-1 -77.839289529099403 46.834727156646558 14.029532715405173 #
straight-curve $-1 -77.839289529099403 17.65632296183059 6.988927511519444 0 -1 0 I I #
point $-1 -77.839289529099403 46.834727156646558 6.9889275115194494 #
point $-1 -72.188237604660372 30.374611109524594 8.2498387330934921 #
point $-1 -72.188237604660372 40.250680737797765 8.2498387330934921 #
End-of-ACIS-data 