500 0 12 0           
7 Unknown 11 ACIS 5.0 NT 24 Fri Mar 26 20:37:20 1999 
-1 9.9999999999999995e-007 1e-010 
body $-1 $12 $-1 $13 #
body $-1 $14 $-1 $15 #
body $-1 $16 $-1 $17 #
body $-1 $18 $-1 $19 #
body $-1 $20 $-1 $21 #
body $-1 $22 $-1 $23 #
body $-1 $24 $-1 $25 #
body $-1 $26 $-1 $27 #
body $-1 $28 $-1 $29 #
body $-1 $30 $-1 $31 #
body $-1 $32 $-1 $33 #
body $-1 $34 $-1 $35 #
lump $-1 $-1 $36 $0 #
transform $-1 1 0 0 0 1 0 0 0 1 77.772148808252211 41.162963419042221 12.438458387930071 1 rotate no_reflect no_shear #
lump $-1 $-1 $37 $1 #
transform $-1 1 0 0 0 1 0 0 0 1 77.772148808252211 41.162963419042221 12.438458387930071 1 rotate no_reflect no_shear #
lump $-1 $-1 $38 $2 #
transform $-1 1 0 0 0 1 0 0 0 1 77.772148808252211 41.162963419042221 12.438458387930071 1 rotate no_reflect no_shear #
lump $-1 $-1 $39 $3 #
transform $-1 1 0 0 0 1 0 0 0 1 77.772148808252211 41.162963419042221 12.438458387930071 1 rotate no_reflect no_shear #
lump $-1 $-1 $40 $4 #
transform $-1 1 0 0 0 1 0 0 0 1 77.772148808252211 41.162963419042221 12.438458387930071 1 rotate no_reflect no_shear #
lump $-1 $-1 $41 $5 #
transform $-1 1 0 0 0 1 0 0 0 1 77.772148808252211 41.162963419042221 12.438458387930071 1 rotate no_reflect no_shear #
lump $-1 $-1 $42 $6 #
transform $-1 1 0 0 0 1 0 0 0 1 77.772148808252211 41.162963419042221 12.438458387930071 1 rotate no_reflect no_shear #
lump $-1 $-1 $43 $7 #
transform $-1 1 0 0 0 1 0 0 0 1 77.772148808252211 41.162963419042221 12.438458387930071 1 rotate no_reflect no_shear #
lump $-1 $-1 $44 $8 #
transform $-1 1 0 0 0 1 0 0 0 1 77.772148808252211 41.162963419042221 12.438458387930071 1 rotate no_reflect no_shear #
lump $-1 $-1 $45 $9 #
transform $-1 1 0 0 0 1 0 0 0 1 77.772148808252211 41.162963419042221 12.438458387930071 1 rotate no_reflect no_shear #
lump $-1 $-1 $46 $10 #
transform $-1 1 0 0 0 1 0 0 0 1 77.772148808252211 41.162963419042221 12.438458387930071 1 rotate no_reflect no_shear #
lump $-1 $-1 $47 $11 #
transform $-1 1 0 0 0 1 0 0 0 1 77.772148808252211 41.162963419042221 12.438458387930071 1 rotate no_reflect no_shear #
shell $-1 $-1 $-1 $48 $-1 $12 #
shell $-1 $-1 $-1 $49 $-1 $14 #
shell $-1 $-1 $-1 $50 $-1 $16 #
shell $-1 $-1 $-1 $51 $-1 $18 #
shell $-1 $-1 $-1 $52 $-1 $20 #
shell $-1 $-1 $-1 $53 $-1 $22 #
shell $-1 $-1 $-1 $54 $-1 $24 #
shell $-1 $-1 $-1 $55 $-1 $26 #
shell $-1 $-1 $-1 $56 $-1 $28 #
shell $-1 $-1 $-1 $57 $-1 $30 #
shell $-1 $-1 $-1 $58 $-1 $32 #
shell $-1 $-1 $-1 $59 $-1 $34 #
face $-1 $60 $61 $36 $-1 $62 forward single #
face $-1 $63 $64 $37 $-1 $65 forward single #
face $-1 $66 $67 $38 $-1 $68 forward single #
face $-1 $69 $70 $39 $-1 $71 reversed single #
face $-1 $72 $73 $40 $-1 $74 forward single #
face $-1 $75 $76 $41 $-1 $77 forward single #
face $-1 $78 $79 $42 $-1 $80 reversed single #
face $-1 $81 $82 $43 $-1 $83 forward single #
face $-1 $84 $85 $44 $-1 $86 forward single #
face $-1 $87 $88 $45 $-1 $89 reversed single #
face $-1 $90 $91 $46 $-1 $92 forward single #
face $-1 $93 $94 $47 $-1 $95 forward single #
face $-1 $96 $97 $36 $-1 $98 reversed single #
loop $-1 $-1 $99 $48 #
plane-surface $-1 0 0 12.438458387930071 0 0 1 1 0 0 forward_v I I I I #
face $-1 $100 $101 $37 $-1 $102 reversed single #
loop $-1 $-1 $103 $49 #
plane-surface $-1 0 -35.640852744378016 -8.6271662370924762 0 0 1 1 0 0 forward_v I I I I #
face $-1 $104 $105 $38 $-1 $106 reversed single #
loop $-1 $-1 $107 $50 #
plane-surface $-1 0 37.048250626276577 11.938458387930067 0 0 1 1 0 0 forward_v I I I I #
face $-1 $108 $109 $39 $-1 $110 reversed single #
loop $-1 $-1 $111 $51 #
plane-surface $-1 -171.38104506457182 0.94936111950468849 128.30252983784322 0 -1 0 0.6018150307709319 0 -0.79863550430605224 forward_v I I I I #
face $-1 $112 $113 $40 $-1 $114 forward single #
loop $-1 $115 $116 $52 #
cone-surface $-1 -70.5096988581695 -11.749253531950021 5.981710003243224 0.6018150307709319 0 -0.79863550430605224 1.5972710086121045 0 1.2036300615418638 1 I I 0 1 2 forward I I I I #
face $-1 $117 $118 $41 $-1 $119 forward single #
loop $-1 $120 $121 $53 #
cone-surface $-1 -70.5096988581695 -4.1300847410771979 5.981710003243224 0.6018150307709319 0 -0.79863550430605224 1.5972710086121045 0 1.2036300615418638 1 I I 0 1 2 forward I I I I #
face $-1 $122 $123 $42 $-1 $124 reversed single #
loop $-1 $-1 $125 $54 #
plane-surface $-1 112.18348776593513 -10.884033701970743 220.03477844332602 0 -1 0 -0.80901700255871778 0 -0.5877852410284794 forward_v I I I I #
face $-1 $126 $127 $43 $-1 $128 forward single #
loop $-1 $129 $130 $55 #
cone-surface $-1 73.122809636763492 -19.559429686022074 6.7781387705986678 -0.80901700255871778 0 -0.5877852410284794 0.8816778615427191 0 -1.2135255038380768 1 I I 0 1 1.5 forward I I I I #
face $-1 $131 $132 $44 $-1 $133 forward single #
loop $-1 $134 $135 $56 #
cone-surface $-1 73.122809636763492 -14.354192095591277 6.7781387705986678 -0.80901700255871778 0 -0.5877852410284794 0.8816778615427191 0 -1.2135255038380768 1 I I 0 1 1.5 forward I I I I #
face $-1 $136 $137 $45 $-1 $138 reversed single #
loop $-1 $-1 $139 $57 #
plane-surface $-1 112.18348776593513 20.642106249641625 220.03477844332602 0 -1 0 -0.80901700255871778 0 -0.5877852410284794 forward_v I I I I #
face $-1 $140 $141 $46 $-1 $142 forward single #
loop $-1 $143 $144 $58 #
cone-surface $-1 73.122809636763492 11.966710265590301 6.7781387705986678 -0.80901700255871778 0 -0.5877852410284794 0.8816778615427191 0 -1.2135255038380768 1 I I 0 1 1.5 forward I I I I #
face $-1 $145 $146 $47 $-1 $147 forward single #
loop $-1 $148 $149 $59 #
cone-surface $-1 73.122809636763492 17.171947856021099 6.7781387705986678 -0.80901700255871778 0 -0.5877852410284794 0.8816778615427191 0 -1.2135255038380768 1 I I 0 1 1.5 forward I I I I #
face $-1 $150 $151 $36 $-1 $152 reversed single #
loop $-1 $-1 $153 $60 #
plane-surface $-1 0 0 -12.438458387930071 0 0 1 1 0 0 forward_v I I I I #
coedge $-1 $154 $155 $156 $157 forward $61 $-1 #
face $-1 $158 $159 $37 $-1 $160 reversed single #
loop $-1 $-1 $161 $63 #
plane-surface $-1 0 -30.118742069713811 -10.532812312511274 0 -1 0 0 0 -1 forward_v I I I I #
coedge $-1 $162 $163 $164 $165 reversed $64 $-1 #
face $-1 $166 $167 $38 $-1 $168 reversed single #
loop $-1 $-1 $169 $66 #
plane-surface $-1 0 37.048250626276577 4.9011463157086137 0 0 1 1 0 0 forward_v I I I I #
coedge $-1 $170 $171 $172 $173 reversed $67 $-1 #
face $-1 $174 $175 $39 $-1 $176 reversed single #
loop $-1 $-1 $177 $69 #
plane-surface $-1 -77.772148808252226 -7.9396691365136078 4.0793312689555421 -0.6018150307709319 0 0.79863550430605224 0.79863550430605224 0 0.6018150307709319 forward_v I I I I #
coedge $-1 $178 $179 $180 $181 reversed $70 $-1 #
face $-1 $-1 $182 $40 $-1 $183 forward single #
loop $-1 $184 $185 $72 #
cone-surface $-1 -68.191901945476872 -11.749253531950021 2.9058896737375974 0.6018150307709319 0 -0.79863550430605224 0.79863550430605224 0 0.6018150307709319 1 I I -0.70710678118654746 0.70710678118654746 1 forward I I I I #
loop $-1 $-1 $186 $52 #
coedge $-1 $116 $116 $187 $188 reversed $73 $-1 #
face $-1 $-1 $189 $41 $-1 $190 forward single #
loop $-1 $191 $192 $75 #
cone-surface $-1 -68.191901945476872 -4.1300847410771979 2.9058896737375974 0.6018150307709319 0 -0.79863550430605224 0.79863550430605224 0 0.6018150307709319 1 I I -0.70710678118654746 0.70710678118654746 1 forward I I I I #
loop $-1 $-1 $193 $53 #
coedge $-1 $121 $121 $194 $195 reversed $76 $-1 #
face $-1 $196 $197 $42 $-1 $198 reversed single #
loop $-1 $-1 $199 $78 #
plane-surface $-1 -13.654493656870386 -16.956810890806675 128.60813597820345 0.80901700255871778 0 0.5877852410284794 0.5877852410284794 0 -0.80901700255871778 forward_v I I I I #
coedge $-1 $200 $201 $202 $203 reversed $79 $-1 #
face $-1 $-1 $204 $43 $-1 $205 forward single #
loop $-1 $206 $207 $81 #
cone-surface $-1 71.378924564526926 -19.559429686022074 5.5111321387619778 -0.80901700255871778 0 -0.5877852410284794 0.44083893077135955 0 -0.60676275191903839 1 I I -0.70710678118654757 0.70710678118654757 0.75 forward I I I I #
loop $-1 $-1 $208 $55 #
coedge $-1 $130 $130 $209 $210 reversed $82 $-1 #
face $-1 $-1 $211 $44 $-1 $212 forward single #
loop $-1 $213 $214 $84 #
cone-surface $-1 71.378924564526926 -14.354192095591277 5.5111321387619778 -0.80901700255871778 0 -0.5877852410284794 0.44083893077135955 0 -0.60676275191903839 1 I I -0.70710678118654757 0.70710678118654757 0.75 forward I I I I #
loop $-1 $-1 $215 $56 #
coedge $-1 $135 $135 $216 $217 reversed $85 $-1 #
face $-1 $218 $219 $45 $-1 $220 reversed single #
loop $-1 $-1 $221 $87 #
plane-surface $-1 -13.654493656870386 14.569329060805693 128.60813597820345 0.80901700255871778 0 0.5877852410284794 0.5877852410284794 0 -0.80901700255871778 forward_v I I I I #
coedge $-1 $222 $223 $224 $225 reversed $88 $-1 #
face $-1 $-1 $226 $46 $-1 $227 forward single #
loop $-1 $228 $229 $90 #
cone-surface $-1 71.378924564526926 11.966710265590301 5.5111321387619778 -0.80901700255871778 0 -0.5877852410284794 0.44083893077135955 0 -0.60676275191903839 1 I I -0.70710678118654757 0.70710678118654757 0.75 forward I I I I #
loop $-1 $-1 $230 $58 #
coedge $-1 $144 $144 $231 $232 reversed $91 $-1 #
face $-1 $-1 $233 $47 $-1 $234 forward single #
loop $-1 $235 $236 $93 #
cone-surface $-1 71.378924564526926 17.171947856021099 5.5111321387619778 -0.80901700255871778 0 -0.5877852410284794 0.44083893077135955 0 -0.60676275191903839 1 I I -0.70710678118654757 0.70710678118654757 0.75 forward I I I I #
loop $-1 $-1 $237 $59 #
coedge $-1 $149 $149 $238 $239 reversed $94 $-1 #
face $-1 $240 $241 $36 $-1 $242 reversed single #
loop $-1 $-1 $243 $96 #
plane-surface $-1 0 -41.162963419042221 0 0 1 0 0 0 1 forward_v I I I I #
coedge $-1 $244 $245 $246 $247 forward $97 $-1 #
coedge $-1 $248 $99 $249 $250 forward $61 $-1 #
coedge $-1 $99 $248 $251 $252 forward $61 $-1 #
coedge $-1 $253 $254 $99 $157 reversed $255 $-1 #
edge $-1 $256 -41.162963419042221 $257 41.162963419042221 $156 $258 forward 7 unknown #
face $-1 $259 $260 $37 $-1 $261 reversed single #
loop $-1 $-1 $262 $100 #
plane-surface $-1 0 0 -12.438458387930071 0 0 1 1 0 0 forward_v I I I I #
coedge $-1 $263 $264 $265 $266 reversed $101 $-1 #
coedge $-1 $267 $103 $264 $268 forward $64 $-1 #
coedge $-1 $103 $267 $269 $270 reversed $64 $-1 #
coedge $-1 $271 $265 $103 $165 forward $260 $-1 #
edge $-1 $272 12.298315697524803 $273 23.342537046853213 $164 $274 forward 7 unknown #
face $-1 $275 $276 $38 $-1 $277 reversed single #
loop $-1 $-1 $278 $104 #
plane-surface $-1 0 32.933537833510933 8.4198023518193406 0 1 0 0 0 1 forward_v I I I I #
coedge $-1 $279 $280 $281 $282 reversed $105 $-1 #
coedge $-1 $283 $107 $284 $285 reversed $67 $-1 #
coedge $-1 $107 $283 $286 $287 forward $67 $-1 #
coedge $-1 $288 $289 $107 $173 forward $276 $-1 #
edge $-1 $290 -22.638838105903933 $291 -14.409412520372644 $172 $292 forward 7 unknown #
face $-1 $293 $294 $39 $-1 $295 reversed single #
loop $-1 $-1 $296 $108 #
plane-surface $-1 -171.38104506457182 -16.828699392531902 128.30252983784322 0 1 0 -0.6018150307709319 0 0.79863550430605224 forward_v I I I I #
coedge $-1 $297 $298 $299 $300 reversed $109 $-1 #
coedge $-1 $179 $111 $301 $302 reversed $70 $-1 #
coedge $-1 $111 $178 $297 $303 reversed $70 $-1 #
coedge $-1 $299 $304 $111 $181 forward $294 $-1 #
edge $-1 $305 51.712806530991543 $306 60.071933649966056 $180 $307 forward 7 unknown #
loop $-1 $-1 $187 $112 #
plane-surface $-1 -77.772148808252226 -7.9396691365136078 4.0793312689555421 -0.6018150307709319 0 0.79863550430605224 0.79863550430605224 0 0.6018150307709319 forward_v I I I I #
loop $-1 $-1 $308 $72 #
coedge $-1 $185 $185 $186 $309 reversed $113 $-1 #
coedge $-1 $186 $186 $185 $309 forward $115 $-1 #
coedge $-1 $187 $187 $116 $188 forward $182 $-1 #
edge $-1 $310 0 $310 6.2831853071796004 $187 $311 forward 7 unknown #
loop $-1 $-1 $194 $117 #
plane-surface $-1 -77.772148808252226 -7.9396691365136078 4.0793312689555421 -0.6018150307709319 0 0.79863550430605224 0.79863550430605224 0 0.6018150307709319 forward_v I I I I #
loop $-1 $-1 $312 $75 #
coedge $-1 $192 $192 $193 $313 reversed $118 $-1 #
coedge $-1 $193 $193 $192 $313 forward $120 $-1 #
coedge $-1 $194 $194 $121 $195 forward $189 $-1 #
edge $-1 $314 0 $314 6.2831853071796004 $194 $315 forward 7 unknown #
face $-1 $316 $317 $42 $-1 $318 forward single #
loop $-1 $-1 $319 $122 #
plane-surface $-1 112.18348776593513 -23.029588079642608 220.03477844332602 0 1 0 0.80901700255871778 0 0.5877852410284794 forward_v I I I I #
coedge $-1 $320 $321 $322 $323 reversed $123 $-1 #
coedge $-1 $201 $125 $324 $325 reversed $79 $-1 #
coedge $-1 $125 $200 $320 $326 reversed $79 $-1 #
coedge $-1 $322 $327 $125 $203 forward $317 $-1 #
edge $-1 $328 -21.680404925284648 $329 -14.655971222942256 $202 $330 forward 7 unknown #
loop $-1 $-1 $209 $126 #
plane-surface $-1 -13.654493656870386 -16.956810890806675 128.60813597820345 0.80901700255871778 0 0.5877852410284794 0.5877852410284794 0 -0.80901700255871778 forward_v I I I I #
loop $-1 $-1 $331 $81 #
coedge $-1 $207 $207 $208 $332 reversed $127 $-1 #
coedge $-1 $208 $208 $207 $332 forward $129 $-1 #
coedge $-1 $209 $209 $130 $210 forward $204 $-1 #
edge $-1 $333 0 $333 6.2831853071796004 $209 $334 forward 7 unknown #
loop $-1 $-1 $216 $131 #
plane-surface $-1 -13.654493656870386 -16.956810890806675 128.60813597820345 0.80901700255871778 0 0.5877852410284794 0.5877852410284794 0 -0.80901700255871778 forward_v I I I I #
loop $-1 $-1 $335 $84 #
coedge $-1 $214 $214 $215 $336 reversed $132 $-1 #
coedge $-1 $215 $215 $214 $336 forward $134 $-1 #
coedge $-1 $216 $216 $135 $217 forward $211 $-1 #
edge $-1 $337 0 $337 6.2831853071796004 $216 $338 forward 7 unknown #
face $-1 $339 $340 $45 $-1 $341 forward single #
loop $-1 $-1 $342 $136 #
plane-surface $-1 112.18348776593513 8.4965518719697606 220.03477844332602 0 1 0 0.80901700255871778 0 0.5877852410284794 forward_v I I I I #
coedge $-1 $343 $344 $345 $346 reversed $137 $-1 #
coedge $-1 $223 $139 $347 $348 reversed $88 $-1 #
coedge $-1 $139 $222 $343 $349 reversed $88 $-1 #
coedge $-1 $345 $350 $139 $225 forward $340 $-1 #
edge $-1 $351 -21.680404925284648 $352 -14.655971222942256 $224 $353 forward 7 unknown #
loop $-1 $-1 $231 $140 #
plane-surface $-1 -13.654493656870386 14.569329060805693 128.60813597820345 0.80901700255871778 0 0.5877852410284794 0.5877852410284794 0 -0.80901700255871778 forward_v I I I I #
loop $-1 $-1 $354 $90 #
coedge $-1 $229 $229 $230 $355 reversed $141 $-1 #
coedge $-1 $230 $230 $229 $355 forward $143 $-1 #
coedge $-1 $231 $231 $144 $232 forward $226 $-1 #
edge $-1 $356 0 $356 6.2831853071796004 $231 $357 forward 7 unknown #
loop $-1 $-1 $238 $145 #
plane-surface $-1 -13.654493656870386 14.569329060805693 128.60813597820345 0.80901700255871778 0 0.5877852410284794 0.5877852410284794 0 -0.80901700255871778 forward_v I I I I #
loop $-1 $-1 $358 $93 #
coedge $-1 $236 $236 $237 $359 reversed $146 $-1 #
coedge $-1 $237 $237 $236 $359 forward $148 $-1 #
coedge $-1 $238 $238 $149 $239 forward $233 $-1 #
edge $-1 $360 0 $360 6.2831853071796004 $238 $361 forward 7 unknown #
face $-1 $362 $363 $36 $-1 $364 reversed single #
loop $-1 $-1 $365 $150 #
plane-surface $-1 -77.772148808252211 0 0 1 0 0 0 0 -1 forward_v I I I I #
coedge $-1 $366 $251 $367 $368 forward $151 $-1 #
coedge $-1 $369 $153 $366 $370 forward $97 $-1 #
coedge $-1 $153 $369 $371 $372 forward $97 $-1 #
coedge $-1 $254 $253 $153 $247 reversed $255 $-1 #
edge $-1 $373 -41.162963419042221 $374 41.162963419042221 $246 $375 forward 7 unknown #
coedge $-1 $155 $154 $376 $377 forward $61 $-1 #
coedge $-1 $378 $379 $154 $250 reversed $363 $-1 #
edge $-1 $257 -77.772148808252211 $380 77.772148808252211 $249 $381 forward 7 unknown #
coedge $-1 $243 $382 $155 $252 reversed $151 $-1 #
edge $-1 $383 -77.772148808252211 $256 77.772148808252211 $251 $384 forward 7 unknown #
coedge $-1 $246 $156 $382 $385 forward $255 $-1 #
coedge $-1 $156 $246 $378 $386 reversed $255 $-1 #
loop $-1 $-1 $253 $362 #
vertex $-1 $157 $387 #
vertex $-1 $157 $388 #
straight-curve $-1 77.772148808252211 0 12.438458387930071 0 1 0 I I #
face $-1 $389 $390 $37 $-1 $391 reversed single #
loop $-1 $-1 $265 $158 #
plane-surface $-1 77.772148808252211 0 0 -1 0 0 0 0 1 forward_v I I I I #
coedge $-1 $392 $393 $263 $394 forward $159 $-1 #
coedge $-1 $395 $161 $262 $394 reversed $101 $-1 #
coedge $-1 $161 $395 $162 $268 reversed $101 $-1 #
coedge $-1 $164 $396 $161 $266 forward $260 $-1 #
edge $-1 $397 -7.1720522316744342 $272 -3.3607600808368394 $265 $398 forward 7 unknown #
coedge $-1 $163 $162 $399 $400 reversed $64 $-1 #
edge $-1 $272 -77.772148808252211 $401 77.772148808252211 $264 $402 forward 7 unknown #
coedge $-1 $403 $404 $163 $270 forward $390 $-1 #
edge $-1 $273 -77.772148808252211 $405 77.772148808252211 $269 $406 forward 7 unknown #
coedge $-1 $396 $164 $404 $407 forward $260 $-1 #
vertex $-1 $165 $408 #
vertex $-1 $407 $409 #
straight-curve $-1 77.772148808252211 -17.820426372189008 -8.6271662370924762 0 -1 0 I I #
face $-1 $410 $411 $38 $-1 $412 reversed single #
loop $-1 $-1 $172 $166 #
plane-surface $-1 77.772148808252211 0 0 -1 0 0 0 0 1 forward_v I I I I #
coedge $-1 $413 $286 $414 $415 reversed $167 $-1 #
coedge $-1 $416 $169 $413 $417 forward $105 $-1 #
coedge $-1 $169 $416 $418 $419 reversed $105 $-1 #
coedge $-1 $289 $288 $169 $282 forward $276 $-1 #
edge $-1 $420 14.409412520372644 $421 22.638838105903933 $281 $422 forward 7 unknown #
coedge $-1 $171 $170 $423 $424 reversed $67 $-1 #
coedge $-1 $425 $426 $170 $285 forward $427 $-1 #
edge $-1 $428 -77.772148808252211 $290 77.772148808252211 $284 $429 forward 7 unknown #
coedge $-1 $278 $430 $171 $287 reversed $167 $-1 #
edge $-1 $431 -77.772148808252211 $291 77.772148808252211 $286 $432 forward 7 unknown #
coedge $-1 $281 $172 $430 $433 forward $276 $-1 #
coedge $-1 $172 $281 $425 $434 reversed $276 $-1 #
vertex $-1 $434 $435 #
vertex $-1 $173 $436 #
straight-curve $-1 77.772148808252211 18.524125313138288 11.938458387930067 0 -1 0 I I #
face $-1 $-1 $437 $39 $-1 $438 forward single #
loop $-1 $-1 $180 $174 #
plane-surface $-1 -77.772148808252211 0 0 1 0 0 0 0 -1 forward_v I I I I #
coedge $-1 $439 $440 $441 $442 reversed $175 $-1 #
coedge $-1 $443 $177 $179 $303 forward $109 $-1 #
coedge $-1 $177 $443 $439 $444 forward $109 $-1 #
coedge $-1 $441 $180 $177 $300 forward $294 $-1 #
edge $-1 $306 -4.9191956877614924 $445 12.858864824275098 $299 $446 forward 7 unknown #
coedge $-1 $447 $448 $178 $302 forward $437 $-1 #
edge $-1 $449 -19.011309860355709 $305 -7.9183737240336995 $301 $450 forward 7 unknown #
edge $-1 $306 1.7763522597878294e-014 $449 13.889860989790158 $179 $451 forward 7 unknown #
coedge $-1 $180 $441 $447 $452 reversed $294 $-1 #
vertex $-1 $452 $453 #
vertex $-1 $181 $454 #
straight-curve $-1 -77.772148808252211 0.94936111950468849 64.151264918921612 0 0 -1 I I #
coedge $-1 $308 $308 $-1 $455 reversed $184 $-1 #
edge $-1 $456 0 $456 6.2831853071796004 $185 $457 forward 7 unknown #
vertex $-1 $188 $458 #
ellipse-curve $-1 -72.225680740091207 -11.749253531950021 8.2588948284428128 -0.6018150307709319 0 0.79863550430605224 1.5972710086121045 0 1.2036300615418638 1 I I #
coedge $-1 $312 $312 $-1 $459 reversed $191 $-1 #
edge $-1 $460 0 $460 6.2831853071796004 $192 $461 forward 7 unknown #
vertex $-1 $195 $462 #
ellipse-curve $-1 -72.225680740091207 -4.1300847410771979 8.2588948284428128 -0.6018150307709319 0 0.79863550430605224 1.5972710086121045 0 1.2036300615418638 1 I I #
face $-1 $-1 $463 $42 $-1 $464 reversed single #
loop $-1 $-1 $202 $196 #
plane-surface $-1 0 0 12.438458387930071 0 0 1 1 0 0 forward_v I I I I #
coedge $-1 $465 $466 $467 $468 reversed $197 $-1 #
coedge $-1 $469 $199 $201 $326 forward $123 $-1 #
coedge $-1 $199 $469 $465 $470 forward $123 $-1 #
coedge $-1 $467 $202 $199 $323 forward $317 $-1 #
edge $-1 $329 2.4056282565674056 $471 14.55118263423927 $322 $472 forward 7 unknown #
coedge $-1 $473 $474 $200 $325 forward $463 $-1 #
edge $-1 $475 -107.2472346662651 $328 -97.57893083373294 $324 $476 forward 7 unknown #
edge $-1 $329 143.59361697326241 $475 155.54429761650445 $201 $477 forward 7 unknown #
coedge $-1 $202 $467 $473 $478 forward $317 $-1 #
vertex $-1 $203 $479 #
vertex $-1 $203 $480 #
straight-curve $-1 56.091743882967563 -10.884033701970743 12.438458387930069 -1 0 0 I I #
coedge $-1 $331 $331 $-1 $481 reversed $206 $-1 #
edge $-1 $482 0 $482 6.2831853071796004 $207 $483 forward 7 unknown #
vertex $-1 $210 $484 #
ellipse-curve $-1 74.259931957081008 -19.559429686022074 7.6043064716639908 0.80901700255871778 0 0.5877852410284794 0.8816778615427191 0 -1.2135255038380768 1 I I #
coedge $-1 $335 $335 $-1 $485 reversed $213 $-1 #
edge $-1 $486 0 $486 6.2831853071796004 $214 $487 forward 7 unknown #
vertex $-1 $217 $488 #
ellipse-curve $-1 74.259931957081008 -14.354192095591277 7.6043064716639908 0.80901700255871778 0 0.5877852410284794 0.8816778615427191 0 -1.2135255038380768 1 I I #
face $-1 $-1 $489 $45 $-1 $490 reversed single #
loop $-1 $-1 $224 $218 #
plane-surface $-1 0 0 12.438458387930071 0 0 1 1 0 0 forward_v I I I I #
coedge $-1 $491 $492 $493 $494 reversed $219 $-1 #
coedge $-1 $495 $221 $223 $349 forward $137 $-1 #
coedge $-1 $221 $495 $491 $496 forward $137 $-1 #
coedge $-1 $493 $224 $221 $346 forward $340 $-1 #
edge $-1 $352 -13.357441719238778 $497 -1.2118873415669142 $345 $498 forward 7 unknown #
coedge $-1 $499 $500 $222 $348 forward $489 $-1 #
edge $-1 $501 -107.2472346662651 $351 -97.57893083373294 $347 $502 forward 7 unknown #
edge $-1 $352 143.59361697326241 $501 155.54429761650445 $223 $503 forward 7 unknown #
coedge $-1 $224 $493 $499 $504 forward $340 $-1 #
vertex $-1 $348 $505 #
vertex $-1 $225 $506 #
straight-curve $-1 56.091743882967563 20.642106249641625 12.438458387930069 -1 0 0 I I #
coedge $-1 $354 $354 $-1 $507 reversed $228 $-1 #
edge $-1 $508 0 $508 6.2831853071796004 $229 $509 forward 7 unknown #
vertex $-1 $232 $510 #
ellipse-curve $-1 74.259931957081008 11.966710265590301 7.6043064716639908 0.80901700255871778 0 0.5877852410284794 0.8816778615427191 0 -1.2135255038380768 1 I I #
coedge $-1 $358 $358 $-1 $511 reversed $235 $-1 #
edge $-1 $512 0 $512 6.2831853071796004 $236 $513 forward 7 unknown #
vertex $-1 $239 $514 #
ellipse-curve $-1 74.259931957081008 17.171947856021099 7.6043064716639908 0.80901700255871778 0 0.5877852410284794 0.8816778615427191 0 -1.2135255038380768 1 I I #
face $-1 $-1 $255 $36 $-1 $515 reversed single #
loop $-1 $-1 $378 $240 #
plane-surface $-1 0 41.162963419042221 0 0 -1 0 0 0 -1 forward_v I I I I #
coedge $-1 $516 $376 $379 $517 forward $241 $-1 #
coedge $-1 $382 $243 $244 $370 reversed $151 $-1 #
coedge $-1 $376 $516 $243 $368 reversed $241 $-1 #
edge $-1 $383 -12.438458387930071 $518 12.438458387930071 $367 $519 forward 7 unknown #
coedge $-1 $245 $244 $516 $520 forward $97 $-1 #
edge $-1 $374 -77.772148808252211 $518 77.772148808252211 $366 $521 forward 7 unknown #
coedge $-1 $379 $378 $245 $372 reversed $363 $-1 #
edge $-1 $522 -77.772148808252211 $373 77.772148808252211 $371 $523 forward 7 unknown #
vertex $-1 $247 $524 #
vertex $-1 $385 $525 #
straight-curve $-1 77.772148808252211 0 -12.438458387930071 0 -1 0 I I #
coedge $-1 $365 $367 $248 $377 reversed $241 $-1 #
edge $-1 $380 -41.162963419042221 $383 41.162963419042221 $376 $526 forward 7 unknown #
coedge $-1 $371 $249 $254 $386 forward $363 $-1 #
coedge $-1 $249 $371 $365 $517 reversed $363 $-1 #
vertex $-1 $250 $527 #
straight-curve $-1 0 41.162963419042221 12.438458387930071 -1 0 0 I I #
coedge $-1 $251 $366 $253 $385 reversed $151 $-1 #
vertex $-1 $377 $528 #
straight-curve $-1 0 -41.162963419042221 12.438458387930071 1 0 0 I I #
edge $-1 $256 -12.438458387930071 $374 12.438458387930071 $253 $529 forward 7 unknown #
edge $-1 $257 -12.438458387930071 $373 12.438458387930071 $254 $530 forward 7 unknown #
point $-1 77.772148808252211 -41.162963419042221 12.438458387930071 #
point $-1 77.772148808252211 41.162963419042221 12.438458387930071 #
face $-1 $-1 $531 $37 $-1 $532 reversed single #
loop $-1 $-1 $269 $259 #
plane-surface $-1 0 -41.162963419042221 0 0 1 0 0 0 1 forward_v I I I I #
coedge $-1 $533 $262 $396 $534 forward $159 $-1 #
coedge $-1 $262 $533 $535 $536 forward $159 $-1 #
edge $-1 $537 -77.772148808252211 $397 77.772148808252211 $262 $538 forward 7 unknown #
coedge $-1 $264 $263 $539 $540 reversed $101 $-1 #
coedge $-1 $265 $271 $392 $534 reversed $260 $-1 #
vertex $-1 $534 $541 #
straight-curve $-1 77.772148808252211 -30.118742069713811 -5.2664061562556368 0 0 1 I I #
coedge $-1 $539 $542 $267 $400 forward $531 $-1 #
edge $-1 $405 -23.342537046853213 $401 -12.298315697524803 $399 $543 forward 7 unknown #
vertex $-1 $400 $544 #
straight-curve $-1 0 -30.118742069713811 -8.6271662370924762 -1 0 0 I I #
coedge $-1 $545 $269 $542 $546 forward $390 $-1 #
coedge $-1 $269 $545 $271 $407 reversed $390 $-1 #
vertex $-1 $546 $547 #
straight-curve $-1 0 -41.162963419042221 -8.6271662370924762 -1 0 0 I I #
edge $-1 $273 8.6271662370924762 $548 12.438458387930071 $271 $549 forward 7 unknown #
point $-1 77.772148808252211 -30.118742069713811 -8.6271662370924762 #
point $-1 77.772148808252211 -41.162963419042221 -8.6271662370924762 #
face $-1 $-1 $427 $38 $-1 $550 reversed single #
loop $-1 $-1 $423 $275 #
plane-surface $-1 -77.772148808252211 0 0 1 0 0 0 0 -1 forward_v I I I I #
coedge $-1 $430 $278 $279 $417 reversed $167 $-1 #
coedge $-1 $423 $551 $278 $415 forward $411 $-1 #
edge $-1 $552 0.69124513979894342 $431 7.7285572120203971 $414 $553 forward 7 unknown #
coedge $-1 $280 $279 $551 $554 reversed $105 $-1 #
edge $-1 $420 -77.772148808252211 $552 77.772148808252211 $413 $555 forward 7 unknown #
coedge $-1 $426 $425 $280 $419 forward $427 $-1 #
edge $-1 $421 -77.772148808252211 $556 77.772148808252211 $418 $557 forward 7 unknown #
vertex $-1 $282 $558 #
vertex $-1 $419 $559 #
straight-curve $-1 77.772148808252211 18.524125313138288 4.9011463157086137 0 1 0 I I #
coedge $-1 $560 $414 $283 $424 forward $411 $-1 #
edge $-1 $431 14.409412520372644 $428 22.638838105903933 $423 $561 forward 7 unknown #
coedge $-1 $418 $284 $289 $434 forward $427 $-1 #
coedge $-1 $284 $418 $560 $562 reversed $427 $-1 #
loop $-1 $-1 $284 $410 #
vertex $-1 $562 $563 #
straight-curve $-1 0 41.162963419042221 11.938458387930067 1 0 0 I I #
coedge $-1 $286 $413 $288 $433 reversed $167 $-1 #
vertex $-1 $424 $564 #
straight-curve $-1 0 32.933537833510933 11.938458387930067 1 0 0 I I #
edge $-1 $291 -7.7285572120203971 $420 -0.69124513979894342 $288 $565 forward 7 unknown #
edge $-1 $290 -11.938458387930067 $421 -4.9011463157086137 $289 $566 forward 7 unknown #
point $-1 77.772148808252211 41.162963419042221 11.938458387930067 #
point $-1 77.772148808252211 32.933537833510933 11.938458387930067 #
loop $-1 $-1 $301 $293 #
plane-surface $-1 0 0 12.438458387930071 0 0 1 1 0 0 forward_v I I I I #
coedge $-1 $440 $296 $298 $444 reversed $175 $-1 #
coedge $-1 $296 $439 $567 $568 reversed $175 $-1 #
coedge $-1 $304 $299 $296 $442 forward $294 $-1 #
edge $-1 $445 -60.071933649966056 $569 -51.712806530991543 $441 $570 forward 7 unknown #
coedge $-1 $298 $297 $448 $571 reversed $109 $-1 #
edge $-1 $572 -13.889860989790158 $445 -1.7763522597878294e-014 $439 $573 forward 7 unknown #
vertex $-1 $300 $574 #
straight-curve $-1 -77.772148808252211 -3.9698345682568039 4.079331268955551 0 -1 0 I I #
coedge $-1 $567 $301 $304 $452 forward $437 $-1 #
coedge $-1 $301 $567 $443 $571 forward $437 $-1 #
vertex $-1 $302 $575 #
straight-curve $-1 -85.690522532285911 0.94936111950468849 12.438458387930069 -1 0 0 I I #
straight-curve $-1 -77.772148808252226 0.94936111950468849 4.0793312689555421 0.79863550430605224 0 0.6018150307709319 I I #
edge $-1 $305 -0.94936111950468849 $569 16.828699392531902 $304 $576 forward 7 unknown #
point $-1 -77.772148808252211 0.94936111950468849 12.438458387930071 #
point $-1 -77.772148808252211 0.94936111950468849 4.0793312689555528 #
edge $-1 $577 1 $577 0 $308 $-1 forward 7 unknown #
vertex $-1 $309 $578 #
ellipse-curve $-1 -68.793716976247808 -11.749253531950021 3.7045251780436494 -0.6018150307709319 0 0.79863550430605224 1.5972710086121045 0 1.2036300615418638 1 I I #
point $-1 -70.628409731479081 -11.749253531950021 9.4625248899846603 #
edge $-1 $579 1 $579 0 $312 $-1 forward 7 unknown #
vertex $-1 $313 $580 #
ellipse-curve $-1 -68.793716976247808 -4.1300847410771979 3.7045251780436494 -0.6018150307709319 0 0.79863550430605224 1.5972710086121045 0 1.2036300615418638 1 I I #
point $-1 -70.628409731479081 -4.1300847410771979 9.4625248899846603 #
loop $-1 $-1 $324 $316 #
plane-surface $-1 77.772148808252211 0 0 -1 0 0 0 0 1 forward_v I I I I #
coedge $-1 $466 $319 $321 $470 reversed $197 $-1 #
coedge $-1 $319 $465 $581 $582 reversed $197 $-1 #
coedge $-1 $327 $322 $319 $468 forward $317 $-1 #
edge $-1 $471 14.655971222942256 $583 21.680404925284648 $467 $584 forward 7 unknown #
coedge $-1 $321 $320 $474 $585 reversed $123 $-1 #
edge $-1 $586 -155.54429761650445 $471 -143.59361697326241 $465 $587 forward 7 unknown #
vertex $-1 $323 $588 #
straight-curve $-1 70.747715105909805 -8.4784054454033377 12.438458387930083 0 -1 0 I I #
coedge $-1 $581 $324 $327 $478 reversed $463 $-1 #
coedge $-1 $324 $581 $469 $585 forward $463 $-1 #
vertex $-1 $325 $589 #
straight-curve $-1 77.772148808252211 -10.884033701970743 110.01738922166301 0 0 1 I I #
straight-curve $-1 -13.654493656870386 -10.884033701970743 128.60813597820345 0.5877852410284794 0 -0.80901700255871778 I I #
edge $-1 $583 -23.029588079642608 $328 -10.884033701970743 $473 $590 forward 7 unknown #
point $-1 77.772148808252211 -10.884033701970743 12.438458387930071 #
point $-1 70.747715105909819 -10.884033701970743 12.438458387930069 #
edge $-1 $591 1 $591 0 $331 $-1 forward 7 unknown #
vertex $-1 $332 $592 #
ellipse-curve $-1 71.985687316445961 -19.559429686022074 5.9519710695333377 0.80901700255871778 0 0.5877852410284794 0.8816778615427191 0 -1.2135255038380768 1 I I #
point $-1 75.141609818623735 -19.559429686022074 6.3907809678259202 #
edge $-1 $593 1 $593 0 $335 $-1 forward 7 unknown #
vertex $-1 $336 $594 #
ellipse-curve $-1 71.985687316445961 -14.354192095591277 5.9519710695333377 0.80901700255871778 0 0.5877852410284794 0.8816778615427191 0 -1.2135255038380768 1 I I #
point $-1 75.141609818623735 -14.354192095591277 6.3907809678259202 #
loop $-1 $-1 $347 $339 #
plane-surface $-1 77.772148808252211 0 0 -1 0 0 0 0 1 forward_v I I I I #
coedge $-1 $492 $342 $344 $496 reversed $219 $-1 #
coedge $-1 $342 $491 $595 $596 reversed $219 $-1 #
coedge $-1 $350 $345 $342 $494 forward $340 $-1 #
edge $-1 $497 14.655971222942256 $597 21.680404925284648 $493 $598 forward 7 unknown #
coedge $-1 $344 $343 $500 $599 reversed $137 $-1 #
edge $-1 $600 -155.54429761650445 $497 -143.59361697326241 $491 $601 forward 7 unknown #
vertex $-1 $346 $602 #
straight-curve $-1 70.747715105909805 7.2846645304028463 12.438458387930083 0 -1 0 I I #
coedge $-1 $595 $347 $350 $504 reversed $489 $-1 #
coedge $-1 $347 $595 $495 $599 forward $489 $-1 #
vertex $-1 $348 $603 #
straight-curve $-1 77.772148808252211 20.642106249641625 110.01738922166301 0 0 1 I I #
straight-curve $-1 -13.654493656870386 20.642106249641625 128.60813597820345 0.5877852410284794 0 -0.80901700255871778 I I #
edge $-1 $597 8.4965518719697606 $351 20.642106249641625 $499 $604 forward 7 unknown #
point $-1 77.772148808252211 20.642106249641625 12.438458387930071 #
point $-1 70.747715105909819 20.642106249641625 12.438458387930069 #
edge $-1 $605 1 $605 0 $354 $-1 forward 7 unknown #
vertex $-1 $355 $606 #
ellipse-curve $-1 71.985687316445961 11.966710265590301 5.9519710695333377 0.80901700255871778 0 0.5877852410284794 0.8816778615427191 0 -1.2135255038380768 1 I I #
point $-1 75.141609818623735 11.966710265590301 6.3907809678259202 #
edge $-1 $607 1 $607 0 $358 $-1 forward 7 unknown #
vertex $-1 $359 $608 #
ellipse-curve $-1 71.985687316445961 17.171947856021099 5.9519710695333377 0.80901700255871778 0 0.5877852410284794 0.8816778615427191 0 -1.2135255038380768 1 I I #
point $-1 75.141609818623735 17.171947856021099 6.3907809678259202 #
plane-surface $-1 77.772148808252211 0 0 -1 0 0 0 0 1 forward_v I I I I #
coedge $-1 $367 $365 $369 $520 reversed $241 $-1 #
edge $-1 $380 -12.438458387930071 $522 12.438458387930071 $379 $609 forward 7 unknown #
vertex $-1 $520 $610 #
straight-curve $-1 -77.772148808252211 -41.162963419042221 0 0 0 -1 I I #
edge $-1 $518 -41.162963419042221 $522 41.162963419042221 $516 $611 forward 7 unknown #
straight-curve $-1 0 -41.162963419042221 -12.438458387930071 -1 0 0 I I #
vertex $-1 $372 $612 #
straight-curve $-1 0 41.162963419042221 -12.438458387930071 1 0 0 I I #
point $-1 77.772148808252211 41.162963419042221 -12.438458387930071 #
point $-1 77.772148808252211 -41.162963419042221 -12.438458387930071 #
straight-curve $-1 -77.772148808252211 0 12.438458387930071 0 -1 0 I I #
point $-1 -77.772148808252211 41.162963419042221 12.438458387930071 #
point $-1 -77.772148808252211 -41.162963419042221 12.438458387930071 #
straight-curve $-1 77.772148808252211 -41.162963419042221 0 0 0 -1 I I #
straight-curve $-1 77.772148808252211 41.162963419042221 0 0 0 -1 I I #
loop $-1 $-1 $539 $389 #
plane-surface $-1 -77.772148808252211 0 0 1 0 0 0 0 -1 forward_v I I I I #
coedge $-1 $393 $392 $545 $613 forward $159 $-1 #
edge $-1 $397 30.118742069713811 $548 41.162963419042221 $396 $614 forward 7 unknown #
coedge $-1 $542 $539 $393 $536 reversed $531 $-1 #
edge $-1 $615 -41.162963419042221 $537 -30.118742069713811 $535 $616 forward 7 unknown #
vertex $-1 $540 $617 #
straight-curve $-1 0 -30.118742069713811 -12.438458387930071 1 0 0 I I #
coedge $-1 $535 $399 $395 $540 forward $531 $-1 #
edge $-1 $401 3.3607600808368394 $537 7.1720522316744342 $539 $618 forward 7 unknown #
point $-1 77.772148808252211 -30.118742069713811 -12.438458387930071 #
coedge $-1 $399 $535 $403 $546 reversed $531 $-1 #
straight-curve $-1 -77.772148808252211 -17.820426372189008 -8.6271662370924762 0 1 0 I I #
point $-1 -77.772148808252211 -30.118742069713811 -8.6271662370924762 #
coedge $-1 $404 $403 $533 $613 reversed $390 $-1 #
edge $-1 $405 8.6271662370924762 $615 12.438458387930071 $542 $619 forward 7 unknown #
point $-1 -77.772148808252211 -41.162963419042221 -8.6271662370924762 #
vertex $-1 $407 $620 #
straight-curve $-1 77.772148808252211 -41.162963419042221 0 0 0 -1 I I #
plane-surface $-1 0 41.162963419042221 0 0 -1 0 0 0 -1 forward_v I I I I #
coedge $-1 $414 $560 $416 $554 forward $411 $-1 #
vertex $-1 $554 $621 #
straight-curve $-1 -77.772148808252211 32.933537833510933 4.2099011759096703 0 0 1 I I #
edge $-1 $556 -22.638838105903933 $552 -14.409412520372644 $551 $622 forward 7 unknown #
straight-curve $-1 0 32.933537833510933 4.9011463157086137 -1 0 0 I I #
vertex $-1 $419 $623 #
straight-curve $-1 0 41.162963419042221 4.9011463157086137 -1 0 0 I I #
point $-1 77.772148808252211 32.933537833510933 4.9011463157086137 #
point $-1 77.772148808252211 41.162963419042221 4.9011463157086137 #
coedge $-1 $551 $423 $426 $562 forward $411 $-1 #
straight-curve $-1 -77.772148808252211 18.524125313138288 11.938458387930067 0 1 0 I I #
edge $-1 $428 -11.938458387930067 $556 -4.9011463157086137 $426 $624 forward 7 unknown #
point $-1 -77.772148808252211 41.162963419042221 11.938458387930067 #
point $-1 -77.772148808252211 32.933537833510933 11.938458387930067 #
straight-curve $-1 77.772148808252211 32.933537833510933 4.2099011759096703 0 0 -1 I I #
straight-curve $-1 77.772148808252211 41.162963419042221 0 0 0 -1 I I #
coedge $-1 $448 $447 $440 $568 forward $437 $-1 #
edge $-1 $569 7.9183737240336995 $572 19.011309860355709 $567 $625 forward 7 unknown #
vertex $-1 $568 $626 #
straight-curve $-1 -77.772148808252211 -16.828699392531902 64.151264918921612 0 0 1 I I #
edge $-1 $572 -12.858864824275098 $449 4.9191956877614924 $448 $627 forward 7 unknown #
vertex $-1 $571 $628 #
straight-curve $-1 -77.772148808252226 -16.828699392531902 4.0793312689555421 -0.79863550430605224 0 -0.6018150307709319 I I #
point $-1 -77.772148808252211 -16.828699392531902 4.0793312689555528 #
point $-1 -66.679212671930202 0.94936111950468849 12.438458387930071 #
straight-curve $-1 -77.772148808252211 0 12.438458387930071 0 -1 0 I I #
vertex $-1 $455 $629 #
point $-1 -67.196445967635697 -11.749253531950021 4.908155239585513 #
vertex $-1 $459 $630 #
point $-1 -67.196445967635697 -4.1300847410771979 4.908155239585513 #
coedge $-1 $474 $473 $466 $582 forward $463 $-1 #
edge $-1 $583 97.57893083373294 $586 107.2472346662651 $581 $631 forward 7 unknown #
vertex $-1 $478 $632 #
straight-curve $-1 56.091743882967563 -23.029588079642608 12.438458387930069 1 0 0 I I #
edge $-1 $586 -14.55118263423927 $475 -2.4056282565674056 $474 $633 forward 7 unknown #
vertex $-1 $585 $634 #
straight-curve $-1 -13.654493656870386 -23.029588079642608 128.60813597820345 -0.5877852410284794 0 0.80901700255871778 I I #
point $-1 70.747715105909819 -23.029588079642608 12.438458387930069 #
point $-1 77.772148808252211 -10.884033701970743 2.7701545553979088 #
straight-curve $-1 77.772148808252211 0 12.438458387930071 0 1 0 I I #
vertex $-1 $481 $635 #
point $-1 72.867365177988688 -19.559429686022074 4.7384455656952609 #
vertex $-1 $485 $636 #
point $-1 72.867365177988688 -14.354192095591277 4.7384455656952609 #
coedge $-1 $500 $499 $492 $596 forward $489 $-1 #
edge $-1 $597 97.57893083373294 $600 107.2472346662651 $595 $637 forward 7 unknown #
vertex $-1 $504 $638 #
straight-curve $-1 56.091743882967563 8.4965518719697606 12.438458387930069 1 0 0 I I #
edge $-1 $600 1.2118873415669142 $501 13.357441719238778 $500 $639 forward 7 unknown #
vertex $-1 $599 $640 #
straight-curve $-1 -13.654493656870386 8.4965518719697606 128.60813597820345 -0.5877852410284794 0 0.80901700255871778 I I #
point $-1 70.747715105909819 8.4965518719697606 12.438458387930069 #
point $-1 77.772148808252211 20.642106249641625 2.7701545553979088 #
straight-curve $-1 77.772148808252211 0 12.438458387930071 0 1 0 I I #
vertex $-1 $507 $641 #
point $-1 72.867365177988688 11.966710265590301 4.7384455656952609 #
vertex $-1 $511 $642 #
point $-1 72.867365177988688 17.171947856021099 4.7384455656952609 #
straight-curve $-1 -77.772148808252211 41.162963419042221 0 0 0 -1 I I #
point $-1 -77.772148808252211 -41.162963419042221 -12.438458387930071 #
straight-curve $-1 -77.772148808252211 0 -12.438458387930071 0 1 0 I I #
point $-1 -77.772148808252211 41.162963419042221 -12.438458387930071 #
edge $-1 $548 -77.772148808252211 $615 77.772148808252211 $545 $643 forward 7 unknown #
straight-curve $-1 77.772148808252211 0 -12.438458387930071 0 -1 0 I I #
vertex $-1 $536 $644 #
straight-curve $-1 -77.772148808252211 0 -12.438458387930071 0 1 0 I I #
point $-1 -77.772148808252211 -30.118742069713811 -12.438458387930071 #
straight-curve $-1 -77.772148808252211 -30.118742069713811 -5.2664061562556368 0 0 -1 I I #
straight-curve $-1 -77.772148808252211 -41.162963419042221 0 0 0 -1 I I #
point $-1 77.772148808252211 -41.162963419042221 -12.438458387930071 #
point $-1 -77.772148808252211 32.933537833510933 4.9011463157086137 #
straight-curve $-1 -77.772148808252211 18.524125313138288 4.9011463157086137 0 -1 0 I I #
point $-1 -77.772148808252211 41.162963419042221 4.9011463157086137 #
straight-curve $-1 -77.772148808252211 41.162963419042221 0 0 0 -1 I I #
straight-curve $-1 -85.690522532285911 -16.828699392531902 12.438458387930069 1 0 0 I I #
point $-1 -77.772148808252211 -16.828699392531902 12.438458387930071 #
straight-curve $-1 -66.679212671930202 -3.9698345682568039 12.438458387930071 0 1 0 I I #
point $-1 -66.679212671930202 -16.828699392531902 12.438458387930071 #
point $-1 -67.590086914705935 -11.749253531950021 2.1072541694315454 #
point $-1 -67.590086914705935 -4.1300847410771979 2.1072541694315454 #
straight-curve $-1 77.772148808252211 -23.029588079642608 110.01738922166301 0 0 -1 I I #
point $-1 77.772148808252211 -23.029588079642608 12.438458387930071 #
straight-curve $-1 77.772148808252211 -8.4784054454033377 2.770154555397923 0 1 0 I I #
point $-1 77.772148808252211 -23.029588079642608 2.7701545553979088 #
point $-1 70.772161812607891 -19.559429686022074 5.070293207990618 #
point $-1 70.772161812607891 -14.354192095591277 5.070293207990618 #
straight-curve $-1 77.772148808252211 8.4965518719697606 110.01738922166301 0 0 -1 I I #
point $-1 77.772148808252211 8.4965518719697606 12.438458387930071 #
straight-curve $-1 77.772148808252211 7.2846645304028463 2.770154555397923 0 1 0 I I #
point $-1 77.772148808252211 8.4965518719697606 2.7701545553979088 #
point $-1 70.772161812607891 11.966710265590301 5.070293207990618 #
point $-1 70.772161812607891 17.171947856021099 5.070293207990618 #
straight-curve $-1 0 -41.162963419042221 -12.438458387930071 -1 0 0 I I #
point $-1 -77.772148808252211 -41.162963419042221 -12.438458387930071 #
End-of-ACIS-data 