500 0 8 0           
7 Unknown 11 ACIS 5.0 NT 24 Fri Mar 26 15:51:28 1999 
-1 9.9999999999999995e-007 1e-010 
body $-1 $8 $-1 $9 #
body $-1 $10 $-1 $11 #
body $-1 $12 $-1 $13 #
body $-1 $14 $-1 $15 #
body $-1 $16 $-1 $17 #
body $-1 $18 $-1 $19 #
body $-1 $20 $-1 $21 #
body $-1 $22 $-1 $23 #
lump $-1 $-1 $24 $0 #
transform $-1 1 0 0 0 1 0 0 0 1 40.151371807000949 20.020789774561184 8.8715432969365082 1 rotate no_reflect no_shear #
lump $-1 $-1 $25 $1 #
transform $-1 1 0 0 0 1 0 0 0 1 40.151371807000949 20.020789774561184 8.8715432969365082 1 rotate no_reflect no_shear #
lump $-1 $-1 $26 $2 #
transform $-1 1 0 0 0 1 0 0 0 1 40.151371807000949 20.020789774561184 8.8715432969365082 1 rotate no_reflect no_shear #
lump $-1 $-1 $27 $3 #
transform $-1 1 0 0 0 1 0 0 0 1 40.151371807000949 20.020789774561184 8.8715432969365082 1 rotate no_reflect no_shear #
lump $-1 $-1 $28 $4 #
transform $-1 1 0 0 0 1 0 0 0 1 40.151371807000949 20.020789774561184 8.8715432969365082 1 rotate no_reflect no_shear #
lump $-1 $-1 $29 $5 #
transform $-1 1 0 0 0 1 0 0 0 1 40.151371807000949 20.020789774561184 8.8715432969365082 1 rotate no_reflect no_shear #
lump $-1 $-1 $30 $6 #
transform $-1 1 0 0 0 1 0 0 0 1 40.151371807000949 20.020789774561184 8.8715432969365082 1 rotate no_reflect no_shear #
lump $-1 $-1 $31 $7 #
transform $-1 1 0 0 0 1 0 0 0 1 40.151371807000949 20.020789774561184 8.8715432969365082 1 rotate no_reflect no_shear #
shell $-1 $-1 $-1 $32 $-1 $8 #
shell $-1 $-1 $-1 $33 $-1 $10 #
shell $-1 $-1 $-1 $34 $-1 $12 #
shell $-1 $-1 $-1 $35 $-1 $14 #
shell $-1 $-1 $-1 $36 $-1 $16 #
shell $-1 $-1 $-1 $37 $-1 $18 #
shell $-1 $-1 $-1 $38 $-1 $20 #
shell $-1 $-1 $-1 $39 $-1 $22 #
face $-1 $40 $41 $24 $-1 $42 forward single #
face $-1 $43 $44 $25 $-1 $45 forward single #
face $-1 $46 $47 $26 $-1 $48 reversed single #
face $-1 $49 $50 $27 $-1 $51 reversed single #
face $-1 $52 $53 $28 $-1 $54 forward single #
face $-1 $55 $56 $29 $-1 $57 reversed single #
face $-1 $58 $59 $30 $-1 $60 forward single #
face $-1 $61 $62 $31 $-1 $63 forward single #
face $-1 $64 $65 $24 $-1 $66 reversed single #
loop $-1 $-1 $67 $32 #
plane-surface $-1 0 0 8.8715432969365082 0 0 1 1 0 0 forward_v I I I I #
face $-1 $68 $69 $25 $-1 $70 reversed single #
loop $-1 $-1 $71 $33 #
plane-surface $-1 -35.04701929920914 0 7.2243238377193313 0 0 1 1 0 0 forward_v I I I I #
face $-1 $72 $73 $26 $-1 $74 forward single #
loop $-1 $-1 $75 $34 #
plane-surface $-1 29.942666791417338 0 5.7243238377193322 1 0 0 0 0 -1 forward_v I I I I #
face $-1 $76 $77 $27 $-1 $78 reversed single #
loop $-1 $-1 $79 $35 #
plane-surface $-1 22.785435838409704 -60.172162119489045 71.127365926750429 1 0 0 0 0.50000000669873634 -0.8660253999169214 forward_v I I I I #
face $-1 $80 $81 $28 $-1 $82 forward single #
loop $-1 $83 $84 $36 #
cone-surface $-1 26.364051314913517 -13.010714944565903 4.0181303757615083 0 0.50000000669873634 -0.8660253999169214 1 0 0 1 I I 0 1 1 forward I I I I #
face $-1 $85 $86 $29 $-1 $87 reversed single #
loop $-1 $-1 $88 $37 #
plane-surface $-1 -18.481778450112063 61.451225223960293 79.619276926167473 -1 0 0 0 0.80901700255871778 0.5877852410284794 forward_v I I I I #
face $-1 $89 $90 $30 $-1 $91 forward single #
loop $-1 $92 $93 $38 #
cone-surface $-1 -23.969170371968023 15.665555377144383 3.618703621992954 0 -0.80901700255871778 -0.5877852410284794 1 0 0 1 I I 0 1 1 forward I I I I #
face $-1 $94 $95 $31 $-1 $96 forward single #
loop $-1 $97 $98 $39 #
cone-surface $-1 -20.67673521885445 15.665555377144383 3.618703621992954 0 -0.80901700255871778 -0.5877852410284794 1 0 0 1 I I 0 1 1 forward I I I I #
face $-1 $99 $100 $24 $-1 $101 reversed single #
loop $-1 $-1 $102 $40 #
plane-surface $-1 0 0 -8.8715432969365082 0 0 1 1 0 0 forward_v I I I I #
coedge $-1 $103 $104 $105 $106 forward $41 $-1 #
face $-1 $107 $108 $25 $-1 $109 reversed single #
loop $-1 $-1 $110 $43 #
plane-surface $-1 -35.04701929920914 0 4.2243238377193331 0 0 1 1 0 0 forward_v I I I I #
coedge $-1 $111 $112 $113 $114 forward $44 $-1 #
face $-1 $115 $116 $26 $-1 $117 reversed single #
loop $-1 $-1 $118 $46 #
plane-surface $-1 35.047019299209147 0 7.2243238377193313 0 0 1 1 0 0 forward_v I I I I #
coedge $-1 $119 $120 $121 $122 reversed $47 $-1 #
face $-1 $123 $124 $27 $-1 $125 forward single #
loop $-1 $-1 $126 $49 #
plane-surface $-1 26.364051314913517 -20.020789774561187 1.5831502740084318 0 -0.50000000669873634 0.8660253999169214 1 0 0 forward_v I I I I #
coedge $-1 $127 $128 $129 $130 reversed $50 $-1 #
face $-1 $-1 $131 $28 $-1 $132 forward single #
loop $-1 $133 $134 $52 #
cone-surface $-1 26.364051314913517 -12.062573509090292 2.3759012660920877 0 0.50000000669873634 -0.8660253999169214 0.5 0 0 1 I I -0.70710678118654746 0.70710678118654746 0.5 forward I I I I #
loop $-1 $-1 $135 $36 #
coedge $-1 $84 $84 $136 $137 reversed $53 $-1 #
face $-1 $138 $139 $29 $-1 $140 reversed single #
loop $-1 $-1 $141 $55 #
plane-surface $-1 -22.322952795411233 -3.5150597118807383 32.418509415763182 0 0.80901700255871778 0.5877852410284794 1 0 0 forward_v I I I I #
coedge $-1 $142 $143 $144 $145 reversed $56 $-1 #
face $-1 $-1 $146 $30 $-1 $147 forward single #
loop $-1 $148 $149 $58 #
cone-surface $-1 -23.969170371968023 14.119801326706675 2.4956475993955394 0 -0.80901700255871778 -0.5877852410284794 0.5 0 0 1 I I -0.70710678118654746 0.70710678118654746 0.5 forward I I I I #
loop $-1 $-1 $150 $38 #
coedge $-1 $93 $93 $151 $152 reversed $59 $-1 #
face $-1 $-1 $153 $31 $-1 $154 forward single #
loop $-1 $155 $156 $61 #
cone-surface $-1 -20.67673521885445 14.119801326706675 2.4956475993955394 0 -0.80901700255871778 -0.5877852410284794 0.5 0 0 1 I I -0.70710678118654746 0.70710678118654746 0.5 forward I I I I #
loop $-1 $-1 $157 $39 #
coedge $-1 $98 $98 $158 $159 reversed $62 $-1 #
face $-1 $160 $161 $24 $-1 $162 reversed single #
loop $-1 $-1 $163 $64 #
plane-surface $-1 0 -20.020789774561184 0 0 1 0 0 0 1 forward_v I I I I #
coedge $-1 $164 $165 $166 $167 forward $65 $-1 #
coedge $-1 $168 $67 $169 $170 forward $41 $-1 #
coedge $-1 $67 $168 $171 $172 forward $41 $-1 #
coedge $-1 $173 $174 $67 $106 reversed $175 $-1 #
edge $-1 $176 -20.020789774561184 $177 20.020789774561184 $105 $178 forward 7 unknown #
face $-1 $179 $180 $25 $-1 $181 reversed single #
loop $-1 $-1 $182 $68 #
plane-surface $-1 -29.942666791417327 0 5.7243238377193322 -1 0 0 0 0 1 forward_v I I I I #
coedge $-1 $183 $184 $185 $186 forward $69 $-1 #
coedge $-1 $187 $71 $188 $189 reversed $44 $-1 #
coedge $-1 $71 $187 $190 $191 reversed $44 $-1 #
coedge $-1 $182 $192 $71 $114 reversed $108 $-1 #
edge $-1 $193 -20.020789774561184 $194 20.020789774561184 $113 $195 forward 7 unknown #
face $-1 $196 $197 $26 $-1 $198 reversed single #
loop $-1 $-1 $199 $72 #
plane-surface $-1 35.047019299209147 0 4.2243238377193331 0 0 1 1 0 0 forward_v I I I I #
coedge $-1 $200 $201 $202 $203 reversed $73 $-1 #
coedge $-1 $204 $75 $205 $206 reversed $47 $-1 #
coedge $-1 $75 $204 $207 $208 reversed $47 $-1 #
coedge $-1 $201 $200 $75 $122 forward $73 $-1 #
edge $-1 $209 -20.020789774561184 $210 20.020789774561184 $75 $211 forward 7 unknown #
face $-1 $212 $213 $27 $-1 $214 reversed single #
loop $-1 $-1 $215 $76 #
plane-surface $-1 0 0 8.8715432969365082 0 0 1 1 0 0 forward_v I I I I #
coedge $-1 $216 $217 $218 $219 reversed $77 $-1 #
coedge $-1 $128 $79 $220 $221 reversed $50 $-1 #
coedge $-1 $79 $127 $216 $222 reversed $50 $-1 #
coedge $-1 $218 $223 $79 $130 forward $213 $-1 #
edge $-1 $224 26.692139666438706 $225 33.980532689366783 $129 $226 forward 7 unknown #
loop $-1 $-1 $136 $80 #
plane-surface $-1 26.364051314913517 -20.020789774561187 1.5831502740084318 0 -0.50000000669873634 0.8660253999169214 1 0 0 forward_v I I I I #
loop $-1 $-1 $227 $52 #
coedge $-1 $134 $134 $135 $228 reversed $81 $-1 #
coedge $-1 $135 $135 $134 $228 forward $83 $-1 #
coedge $-1 $136 $136 $84 $137 forward $131 $-1 #
edge $-1 $229 -1.5702543683613894e-015 $229 6.2831853071795987 $136 $230 forward 7 unknown #
face $-1 $231 $232 $29 $-1 $233 reversed single #
loop $-1 $-1 $234 $85 #
plane-surface $-1 -26.164127140710402 61.451225223960293 79.619276926167473 1 0 0 0 -0.80901700255871778 -0.5877852410284794 forward_v I I I I #
coedge $-1 $235 $236 $237 $238 reversed $86 $-1 #
coedge $-1 $143 $88 $239 $240 reversed $56 $-1 #
coedge $-1 $88 $142 $235 $241 reversed $56 $-1 #
coedge $-1 $237 $242 $88 $145 forward $232 $-1 #
edge $-1 $243 30.938095166147228 $244 39.785447711867988 $144 $245 forward 7 unknown #
loop $-1 $-1 $151 $89 #
plane-surface $-1 -22.322952795411233 -3.5150597118807383 32.418509415763182 0 0.80901700255871778 0.5877852410284794 1 0 0 forward_v I I I I #
loop $-1 $-1 $246 $58 #
coedge $-1 $149 $149 $150 $247 reversed $90 $-1 #
coedge $-1 $150 $150 $149 $247 forward $92 $-1 #
coedge $-1 $151 $151 $93 $152 forward $146 $-1 #
edge $-1 $248 6.5112978031266002e-016 $248 6.2831853071796013 $151 $249 forward 7 unknown #
loop $-1 $-1 $158 $94 #
plane-surface $-1 -22.322952795411233 -3.5150597118807383 32.418509415763182 0 0.80901700255871778 0.5877852410284794 1 0 0 forward_v I I I I #
loop $-1 $-1 $250 $61 #
coedge $-1 $156 $156 $157 $251 reversed $95 $-1 #
coedge $-1 $157 $157 $156 $251 forward $97 $-1 #
coedge $-1 $158 $158 $98 $159 forward $153 $-1 #
edge $-1 $252 6.5112978031266002e-016 $252 6.2831853071796013 $158 $253 forward 7 unknown #
face $-1 $254 $255 $24 $-1 $256 reversed single #
loop $-1 $-1 $257 $99 #
plane-surface $-1 -40.151371807000949 0 0 1 0 0 0 0 -1 forward_v I I I I #
coedge $-1 $258 $171 $259 $260 forward $100 $-1 #
coedge $-1 $261 $102 $258 $262 forward $65 $-1 #
coedge $-1 $102 $261 $263 $264 forward $65 $-1 #
coedge $-1 $174 $173 $102 $167 reversed $175 $-1 #
edge $-1 $265 -20.020789774561184 $266 20.020789774561184 $166 $267 forward 7 unknown #
coedge $-1 $104 $103 $268 $269 forward $41 $-1 #
coedge $-1 $270 $271 $103 $170 reversed $255 $-1 #
edge $-1 $177 -40.151371807000949 $272 40.151371807000949 $169 $273 forward 7 unknown #
coedge $-1 $163 $274 $104 $172 reversed $100 $-1 #
edge $-1 $275 -40.151371807000949 $176 40.151371807000949 $171 $276 forward 7 unknown #
coedge $-1 $166 $105 $274 $277 forward $175 $-1 #
coedge $-1 $105 $166 $270 $278 reversed $175 $-1 #
loop $-1 $-1 $173 $254 #
vertex $-1 $106 $279 #
vertex $-1 $106 $280 #
straight-curve $-1 40.151371807000949 0 8.8715432969365082 0 1 0 I I #
face $-1 $281 $282 $25 $-1 $283 reversed single #
loop $-1 $-1 $284 $107 #
plane-surface $-1 0 -20.020789774561184 0 0 1 0 0 0 1 forward_v I I I I #
coedge $-1 $185 $113 $285 $286 reversed $108 $-1 #
coedge $-1 $287 $110 $284 $288 reversed $69 $-1 #
coedge $-1 $110 $287 $289 $290 reversed $69 $-1 #
coedge $-1 $192 $182 $110 $186 reversed $108 $-1 #
edge $-1 $291 -20.020789774561184 $292 20.020789774561184 $185 $293 forward 7 unknown #
coedge $-1 $112 $111 $294 $295 reversed $44 $-1 #
coedge $-1 $296 $297 $111 $189 forward $298 $-1 #
edge $-1 $299 -22.627862157396379 $194 -12.419157141812757 $188 $300 forward 7 unknown #
coedge $-1 $301 $285 $112 $191 forward $180 $-1 #
edge $-1 $193 12.419157141812757 $302 22.627862157396379 $190 $303 forward 7 unknown #
coedge $-1 $113 $185 $296 $304 reversed $108 $-1 #
vertex $-1 $191 $305 #
vertex $-1 $189 $306 #
straight-curve $-1 -29.942666791417327 0 7.2243238377193313 0 1 0 I I #
face $-1 $307 $308 $26 $-1 $309 reversed single #
loop $-1 $-1 $310 $115 #
plane-surface $-1 0 -20.020789774561184 0 0 1 0 0 0 1 forward_v I I I I #
coedge $-1 $311 $312 $313 $314 reversed $116 $-1 #
coedge $-1 $121 $118 $315 $316 reversed $73 $-1 #
coedge $-1 $118 $121 $310 $317 reversed $73 $-1 #
coedge $-1 $318 $319 $118 $203 forward $320 $-1 #
edge $-1 $321 -20.020789774561184 $322 20.020789774561184 $202 $323 forward 7 unknown #
coedge $-1 $120 $119 $324 $325 reversed $47 $-1 #
coedge $-1 $315 $326 $119 $206 forward $308 $-1 #
edge $-1 $327 1.362161918859667 $209 4.3621619188596652 $205 $328 forward 7 unknown #
coedge $-1 $329 $310 $120 $208 forward $197 $-1 #
edge $-1 $210 -4.3621619188596652 $330 -1.362161918859667 $207 $331 forward 7 unknown #
vertex $-1 $316 $332 #
vertex $-1 $317 $333 #
straight-curve $-1 29.942666791417338 0 7.2243238377193313 0 -1 0 I I #
face $-1 $-1 $334 $27 $-1 $335 forward single #
loop $-1 $-1 $336 $123 #
plane-surface $-1 0 -20.020789774561184 0 0 1 0 0 0 1 forward_v I I I I #
coedge $-1 $337 $338 $339 $340 forward $124 $-1 #
coedge $-1 $341 $126 $128 $222 forward $77 $-1 #
coedge $-1 $126 $341 $342 $343 forward $77 $-1 #
coedge $-1 $336 $129 $126 $219 forward $213 $-1 #
edge $-1 $225 9.6034101809529453 $344 16.760641133960572 $218 $345 forward 7 unknown #
coedge $-1 $338 $337 $127 $221 forward $124 $-1 #
edge $-1 $346 -22.689158080921398 $224 -10.065291285183338 $220 $347 forward 7 unknown #
edge $-1 $225 4.0759410200229262e-015 $346 14.576785850564063 $128 $348 forward 7 unknown #
coedge $-1 $129 $336 $338 $349 reversed $213 $-1 #
vertex $-1 $349 $350 #
vertex $-1 $130 $351 #
straight-curve $-1 22.785435838409704 -20.020789774561184 35.563682963375214 0 0 -1 I I #
coedge $-1 $227 $227 $-1 $352 reversed $133 $-1 #
edge $-1 $353 0 $353 6.2831853071796004 $134 $354 forward 7 unknown #
vertex $-1 $137 $355 #
ellipse-curve $-1 26.364051314913517 -13.708856376692149 5.2273467854724736 0 -0.50000000669873634 0.8660253999169214 1 0 0 1 I I #
face $-1 $-1 $356 $29 $-1 $357 forward single #
loop $-1 $-1 $144 $138 #
plane-surface $-1 0 20.020789774561184 0 0 -1 0 0 0 -1 forward_v I I I I #
coedge $-1 $358 $359 $360 $361 reversed $139 $-1 #
coedge $-1 $362 $141 $143 $241 forward $86 $-1 #
coedge $-1 $141 $362 $358 $363 forward $86 $-1 #
coedge $-1 $360 $144 $141 $238 forward $232 $-1 #
edge $-1 $244 7.320302052406447 $364 15.002650743004786 $237 $365 forward 7 unknown #
coedge $-1 $366 $367 $142 $240 forward $356 $-1 #
edge $-1 $368 -17.132800533935878 $243 -10.704822837418963 $239 $369 forward 7 unknown #
edge $-1 $244 -40.041579549122368 $368 -29.105650492330234 $143 $370 forward 7 unknown #
coedge $-1 $144 $360 $366 $371 reversed $232 $-1 #
vertex $-1 $371 $372 #
vertex $-1 $145 $373 #
straight-curve $-1 -18.481778450112063 20.020789774561184 39.809638463083736 0 0 -1 I I #
coedge $-1 $246 $246 $-1 $374 reversed $148 $-1 #
edge $-1 $375 0 $375 6.2831853071796004 $149 $376 forward 7 unknown #
vertex $-1 $152 $377 #
ellipse-curve $-1 -23.969170371968023 16.806800926302728 4.4478670240761273 0 0.80901700255871778 0.5877852410284794 1 0 0 1 I I #
coedge $-1 $250 $250 $-1 $378 reversed $155 $-1 #
edge $-1 $379 0 $379 6.2831853071796004 $156 $380 forward 7 unknown #
vertex $-1 $159 $381 #
ellipse-curve $-1 -20.67673521885445 16.806800926302728 4.4478670240761273 0 0.80901700255871778 0.5877852410284794 1 0 0 1 I I #
face $-1 $-1 $175 $24 $-1 $382 reversed single #
loop $-1 $-1 $270 $160 #
plane-surface $-1 0 20.020789774561184 0 0 -1 0 0 0 -1 forward_v I I I I #
coedge $-1 $383 $268 $271 $384 forward $161 $-1 #
coedge $-1 $274 $163 $164 $262 reversed $100 $-1 #
coedge $-1 $268 $383 $163 $260 reversed $161 $-1 #
edge $-1 $275 -8.8715432969365082 $385 8.8715432969365082 $259 $386 forward 7 unknown #
coedge $-1 $165 $164 $383 $387 forward $65 $-1 #
edge $-1 $266 -40.151371807000949 $385 40.151371807000949 $258 $388 forward 7 unknown #
coedge $-1 $271 $270 $165 $264 reversed $255 $-1 #
edge $-1 $389 -40.151371807000949 $265 40.151371807000949 $263 $390 forward 7 unknown #
vertex $-1 $167 $391 #
vertex $-1 $277 $392 #
straight-curve $-1 40.151371807000949 0 -8.8715432969365082 0 -1 0 I I #
coedge $-1 $257 $259 $168 $269 reversed $161 $-1 #
edge $-1 $272 -20.020789774561184 $275 20.020789774561184 $268 $393 forward 7 unknown #
coedge $-1 $263 $169 $174 $278 forward $255 $-1 #
coedge $-1 $169 $263 $257 $384 reversed $255 $-1 #
vertex $-1 $170 $394 #
straight-curve $-1 0 20.020789774561184 8.8715432969365082 -1 0 0 I I #
coedge $-1 $171 $258 $173 $277 reversed $100 $-1 #
vertex $-1 $269 $395 #
straight-curve $-1 0 -20.020789774561184 8.8715432969365082 1 0 0 I I #
edge $-1 $176 -8.8715432969365082 $266 8.8715432969365082 $173 $396 forward 7 unknown #
edge $-1 $177 -8.8715432969365082 $265 8.8715432969365082 $174 $397 forward 7 unknown #
point $-1 40.151371807000949 -20.020789774561184 8.8715432969365082 #
point $-1 40.151371807000949 20.020789774561184 8.8715432969365082 #
face $-1 $-1 $298 $25 $-1 $398 reversed single #
loop $-1 $-1 $399 $179 #
plane-surface $-1 -40.151371807000949 0 0 1 0 0 0 0 -1 forward_v I I I I #
coedge $-1 $285 $301 $183 $288 forward $180 $-1 #
coedge $-1 $190 $284 $182 $286 forward $180 $-1 #
edge $-1 $292 1.362161918859667 $193 4.3621619188596652 $285 $400 forward 7 unknown #
coedge $-1 $184 $183 $399 $401 reversed $69 $-1 #
edge $-1 $402 -22.627862157396379 $292 -12.419157141812757 $284 $403 forward 7 unknown #
coedge $-1 $297 $296 $184 $290 forward $298 $-1 #
edge $-1 $291 12.419157141812757 $404 22.627862157396379 $289 $405 forward 7 unknown #
vertex $-1 $290 $406 #
vertex $-1 $288 $407 #
straight-curve $-1 -29.942666791417327 0 4.2243238377193331 0 -1 0 I I #
coedge $-1 $408 $409 $187 $295 forward $282 $-1 #
edge $-1 $302 -20.020789774561184 $299 20.020789774561184 $294 $410 forward 7 unknown #
coedge $-1 $289 $188 $192 $304 forward $298 $-1 #
coedge $-1 $188 $289 $408 $411 reversed $298 $-1 #
loop $-1 $-1 $289 $281 #
vertex $-1 $411 $412 #
straight-curve $-1 -17.52350964960457 20.020789774561184 7.2243238377193313 1 0 0 I I #
coedge $-1 $284 $190 $409 $413 forward $180 $-1 #
vertex $-1 $413 $414 #
straight-curve $-1 -17.52350964960457 -20.020789774561184 7.2243238377193313 -1 0 0 I I #
edge $-1 $194 -4.3621619188596652 $291 -1.362161918859667 $296 $415 forward 7 unknown #
point $-1 -29.942666791417327 -20.020789774561184 7.2243238377193313 #
point $-1 -29.942666791417327 20.020789774561184 7.2243238377193313 #
face $-1 $-1 $320 $26 $-1 $416 reversed single #
loop $-1 $-1 $315 $196 #
plane-surface $-1 0 20.020789774561184 0 0 -1 0 0 0 -1 forward_v I I I I #
coedge $-1 $207 $417 $201 $317 forward $197 $-1 #
coedge $-1 $324 $199 $329 $418 reversed $116 $-1 #
coedge $-1 $199 $324 $326 $419 reversed $116 $-1 #
coedge $-1 $319 $318 $199 $314 forward $320 $-1 #
edge $-1 $420 -20.020789774561184 $421 20.020789774561184 $313 $422 forward 7 unknown #
coedge $-1 $423 $205 $200 $316 forward $308 $-1 #
edge $-1 $209 12.419157141812764 $321 22.627862157396383 $315 $424 forward 7 unknown #
edge $-1 $322 -22.627862157396383 $210 -12.419157141812764 $310 $425 forward 7 unknown #
coedge $-1 $313 $202 $417 $426 forward $320 $-1 #
coedge $-1 $202 $313 $423 $427 reversed $320 $-1 #
loop $-1 $-1 $202 $307 #
vertex $-1 $427 $428 #
vertex $-1 $426 $429 #
straight-curve $-1 40.151371807000949 0 7.2243238377193313 0 -1 0 I I #
coedge $-1 $312 $311 $204 $325 forward $116 $-1 #
edge $-1 $330 -20.020789774561184 $327 20.020789774561184 $204 $430 forward 7 unknown #
coedge $-1 $205 $423 $312 $419 forward $308 $-1 #
vertex $-1 $419 $431 #
straight-curve $-1 29.942666791417338 20.020789774561184 2.8621619188596661 0 0 1 I I #
coedge $-1 $417 $207 $311 $418 forward $197 $-1 #
vertex $-1 $418 $432 #
straight-curve $-1 29.942666791417338 -20.020789774561184 2.8621619188596661 0 0 -1 I I #
point $-1 29.942666791417338 20.020789774561184 7.2243238377193313 #
point $-1 29.942666791417338 -20.020789774561184 7.2243238377193313 #
loop $-1 $-1 $342 $212 #
plane-surface $-1 29.942666791417338 0 5.7243238377193322 1 0 0 0 0 -1 forward_v I I I I #
coedge $-1 $223 $218 $433 $434 forward $213 $-1 #
coedge $-1 $220 $215 $341 $435 forward $124 $-1 #
coedge $-1 $215 $220 $223 $349 forward $124 $-1 #
coedge $-1 $433 $342 $215 $340 reversed $334 $-1 #
edge $-1 $436 10.065291285183338 $437 22.689158080921398 $215 $438 forward 7 unknown #
coedge $-1 $217 $216 $337 $435 reversed $77 $-1 #
coedge $-1 $339 $433 $217 $343 reversed $334 $-1 #
edge $-1 $437 -14.576785850564063 $344 -4.0759410200229262e-015 $342 $439 forward 7 unknown #
vertex $-1 $434 $440 #
straight-curve $-1 13.182025657456759 -20.020789774561184 1.5831502740084338 1 0 0 I I #
vertex $-1 $221 $441 #
straight-curve $-1 22.785435838409704 -30.086081059744522 8.8715432969365082 0 -1 0 I I #
straight-curve $-1 22.785435838409704 -20.020789774561187 1.5831502740084318 0 0.8660253999169214 0.50000000669873634 I I #
edge $-1 $224 22.785435838409704 $436 29.942666791417331 $223 $442 forward 7 unknown #
point $-1 22.785435838409704 -20.020789774561184 8.8715432969365082 #
point $-1 22.785435838409704 -20.020789774561184 1.5831502740084338 #
edge $-1 $443 1 $443 0 $227 $-1 forward 7 unknown #
vertex $-1 $228 $444 #
ellipse-curve $-1 26.364051314913517 -12.312573512439661 2.8089139660505484 0 -0.50000000669873634 0.8660253999169214 1 0 0 1 I I #
point $-1 27.364051314913517 -13.708856376692147 5.2273467854724673 #
loop $-1 $-1 $239 $231 #
plane-surface $-1 0 0 8.8715432969365082 0 0 1 1 0 0 forward_v I I I I #
coedge $-1 $359 $234 $236 $363 reversed $139 $-1 #
coedge $-1 $234 $358 $445 $446 reversed $139 $-1 #
coedge $-1 $242 $237 $234 $361 forward $232 $-1 #
edge $-1 $364 -39.785447711867988 $447 -30.938095166147228 $360 $448 forward 7 unknown #
coedge $-1 $236 $235 $367 $449 reversed $86 $-1 #
edge $-1 $450 29.105650492330234 $364 40.041579549122368 $358 $451 forward 7 unknown #
vertex $-1 $238 $452 #
straight-curve $-1 -11.161476397705616 20.020789774561187 0.024190751215748207 -1 0 0 I I #
coedge $-1 $445 $239 $242 $371 forward $356 $-1 #
coedge $-1 $239 $445 $362 $449 forward $356 $-1 #
vertex $-1 $240 $453 #
straight-curve $-1 -18.481778450112063 30.725612611980146 8.8715432969365082 0 1 0 I I #
straight-curve $-1 -18.481778450112063 -3.5150597118807383 32.418509415763182 0 -0.5877852410284794 0.80901700255871778 I I #
edge $-1 $243 18.481778450112063 $447 26.164127140710402 $242 $454 forward 7 unknown #
point $-1 -18.481778450112063 20.020789774561184 8.8715432969365082 #
point $-1 -18.481778450112063 20.020789774561184 0.024190751215748207 #
edge $-1 $455 1 $455 0 $246 $-1 forward 7 unknown #
vertex $-1 $247 $456 #
ellipse-curve $-1 -23.969170371968023 14.524309827986034 2.789540219909779 0 0.80901700255871778 0.5877852410284794 1 0 0 1 I I #
point $-1 -22.969170371968023 16.806800926302731 4.4478670240761291 #
edge $-1 $457 1 $457 0 $250 $-1 forward 7 unknown #
vertex $-1 $251 $458 #
ellipse-curve $-1 -20.67673521885445 14.524309827986034 2.789540219909779 0 0.80901700255871778 0.5877852410284794 1 0 0 1 I I #
point $-1 -19.67673521885445 16.806800926302731 4.4478670240761291 #
plane-surface $-1 40.151371807000949 0 0 -1 0 0 0 0 1 forward_v I I I I #
coedge $-1 $259 $257 $261 $387 reversed $161 $-1 #
edge $-1 $272 -8.8715432969365082 $389 8.8715432969365082 $271 $459 forward 7 unknown #
vertex $-1 $387 $460 #
straight-curve $-1 -40.151371807000949 -20.020789774561184 0 0 0 -1 I I #
edge $-1 $385 -20.020789774561184 $389 20.020789774561184 $383 $461 forward 7 unknown #
straight-curve $-1 0 -20.020789774561184 -8.8715432969365082 -1 0 0 I I #
vertex $-1 $264 $462 #
straight-curve $-1 0 20.020789774561184 -8.8715432969365082 1 0 0 I I #
point $-1 40.151371807000949 20.020789774561184 -8.8715432969365082 #
point $-1 40.151371807000949 -20.020789774561184 -8.8715432969365082 #
straight-curve $-1 -40.151371807000949 0 8.8715432969365082 0 -1 0 I I #
point $-1 -40.151371807000949 20.020789774561184 8.8715432969365082 #
point $-1 -40.151371807000949 -20.020789774561184 8.8715432969365082 #
straight-curve $-1 40.151371807000949 -20.020789774561184 0 0 0 -1 I I #
straight-curve $-1 40.151371807000949 20.020789774561184 0 0 0 -1 I I #
plane-surface $-1 0 20.020789774561184 0 0 -1 0 0 0 -1 forward_v I I I I #
coedge $-1 $409 $408 $287 $401 forward $282 $-1 #
straight-curve $-1 -29.942666791417327 -20.020789774561184 2.8621619188596661 0 0 1 I I #
edge $-1 $404 -20.020789774561184 $402 20.020789774561184 $399 $463 forward 7 unknown #
vertex $-1 $288 $464 #
straight-curve $-1 -17.52350964960457 -20.020789774561184 4.2243238377193331 1 0 0 I I #
vertex $-1 $290 $465 #
straight-curve $-1 -17.52350964960457 20.020789774561184 4.2243238377193331 -1 0 0 I I #
point $-1 -29.942666791417327 20.020789774561184 4.2243238377193331 #
point $-1 -29.942666791417327 -20.020789774561184 4.2243238377193331 #
coedge $-1 $399 $294 $297 $411 forward $282 $-1 #
coedge $-1 $294 $399 $301 $413 reversed $282 $-1 #
straight-curve $-1 -40.151371807000949 0 7.2243238377193313 0 1 0 I I #
edge $-1 $299 -7.2243238377193313 $404 -4.2243238377193331 $297 $466 forward 7 unknown #
point $-1 -40.151371807000949 20.020789774561184 7.2243238377193313 #
edge $-1 $302 -7.2243238377193313 $402 -4.2243238377193331 $409 $467 forward 7 unknown #
point $-1 -40.151371807000949 -20.020789774561184 7.2243238377193313 #
straight-curve $-1 -29.942666791417327 20.020789774561184 2.8621619188596661 0 0 -1 I I #
plane-surface $-1 40.151371807000949 0 0 -1 0 0 0 0 1 forward_v I I I I #
coedge $-1 $310 $329 $318 $426 reversed $197 $-1 #
edge $-1 $330 12.419157141812764 $420 22.627862157396383 $329 $468 forward 7 unknown #
edge $-1 $421 -22.627862157396383 $327 -12.419157141812764 $326 $469 forward 7 unknown #
vertex $-1 $314 $470 #
vertex $-1 $314 $471 #
straight-curve $-1 40.151371807000949 0 4.2243238377193331 0 1 0 I I #
coedge $-1 $326 $315 $319 $427 forward $308 $-1 #
straight-curve $-1 17.523509649604573 20.020789774561184 7.2243238377193313 1 0 0 I I #
straight-curve $-1 17.523509649604573 -20.020789774561184 7.2243238377193313 -1 0 0 I I #
edge $-1 $322 -7.2243238377193313 $420 -4.2243238377193331 $318 $472 forward 7 unknown #
edge $-1 $321 -7.2243238377193313 $421 -4.2243238377193331 $319 $473 forward 7 unknown #
point $-1 40.151371807000956 20.020789774561184 7.2243238377193313 #
point $-1 40.151371807000956 -20.020789774561184 7.2243238377193313 #
straight-curve $-1 29.942666791417338 0 4.2243238377193331 0 1 0 I I #
point $-1 29.942666791417338 20.020789774561184 4.2243238377193331 #
point $-1 29.942666791417338 -20.020789774561184 4.2243238377193331 #
coedge $-1 $342 $339 $336 $434 reversed $334 $-1 #
edge $-1 $344 -33.980532689366783 $436 -26.692139666438706 $336 $474 forward 7 unknown #
edge $-1 $437 -16.760641133960572 $346 -9.6034101809529453 $337 $475 forward 7 unknown #
vertex $-1 $340 $476 #
vertex $-1 $340 $477 #
straight-curve $-1 29.942666791417331 -30.086081059744522 8.8715432969365082 0 1 0 I I #
straight-curve $-1 29.942666791417331 -20.020789774561187 1.5831502740084318 0 -0.8660253999169214 -0.50000000669873634 I I #
point $-1 29.942666791417331 -20.020789774561184 1.5831502740084338 #
point $-1 22.785435838409704 -7.3969229788231239 8.8715432969365082 #
straight-curve $-1 0 -20.020789774561184 8.8715432969365082 1 0 0 I I #
vertex $-1 $352 $478 #
point $-1 27.364051314913517 -12.312573512439661 2.8089139660505484 #
coedge $-1 $367 $366 $359 $446 forward $356 $-1 #
edge $-1 $447 10.704822837418963 $450 17.132800533935878 $445 $479 forward 7 unknown #
vertex $-1 $446 $480 #
straight-curve $-1 -26.164127140710402 20.020789774561184 39.809638463083736 0 0 1 I I #
edge $-1 $450 -15.002650743004786 $368 -7.320302052406447 $367 $481 forward 7 unknown #
vertex $-1 $449 $482 #
straight-curve $-1 -26.164127140710402 -3.5150597118807383 32.418509415763182 0 0.5877852410284794 -0.80901700255871778 I I #
point $-1 -26.164127140710402 20.020789774561184 0.024190751215748207 #
point $-1 -18.481778450112063 13.592812078044268 8.8715432969365082 #
straight-curve $-1 0 20.020789774561184 8.8715432969365082 -1 0 0 I I #
vertex $-1 $374 $483 #
point $-1 -22.969170371968023 14.524309827986034 2.789540219909779 #
vertex $-1 $378 $484 #
point $-1 -19.67673521885445 14.524309827986034 2.789540219909779 #
straight-curve $-1 -40.151371807000949 20.020789774561184 0 0 0 -1 I I #
point $-1 -40.151371807000949 -20.020789774561184 -8.8715432969365082 #
straight-curve $-1 -40.151371807000949 0 -8.8715432969365082 0 1 0 I I #
point $-1 -40.151371807000949 20.020789774561184 -8.8715432969365082 #
straight-curve $-1 -40.151371807000949 0 4.2243238377193331 0 -1 0 I I #
point $-1 -40.151371807000949 -20.020789774561184 4.2243238377193331 #
point $-1 -40.151371807000949 20.020789774561184 4.2243238377193331 #
straight-curve $-1 -40.151371807000949 20.020789774561184 0 0 0 -1 I I #
straight-curve $-1 -40.151371807000949 -20.020789774561184 0 0 0 -1 I I #
straight-curve $-1 17.523509649604573 -20.020789774561184 4.2243238377193331 1 0 0 I I #
straight-curve $-1 17.523509649604573 20.020789774561184 4.2243238377193331 -1 0 0 I I #
point $-1 40.151371807000956 -20.020789774561184 4.2243238377193331 #
point $-1 40.151371807000956 20.020789774561184 4.2243238377193331 #
straight-curve $-1 40.151371807000949 -20.020789774561184 0 0 0 -1 I I #
straight-curve $-1 40.151371807000949 20.020789774561184 0 0 0 -1 I I #
straight-curve $-1 29.942666791417331 -20.020789774561184 35.563682963375214 0 0 1 I I #
straight-curve $-1 13.182025657456759 -7.3969229788231257 8.8715432969365082 -1 0 0 I I #
point $-1 29.942666791417331 -20.020789774561184 8.8715432969365082 #
point $-1 29.942666791417331 -7.3969229788231239 8.8715432969365082 #
point $-1 26.364051314913517 -11.812573505740923 1.942888566133627 #
straight-curve $-1 -26.164127140710402 30.725612611980146 8.8715432969365082 0 -1 0 I I #
point $-1 -26.164127140710402 20.020789774561184 8.8715432969365082 #
straight-curve $-1 -11.161476397705616 13.592812078044268 8.8715432969365082 1 0 0 I I #
point $-1 -26.164127140710402 13.592812078044268 8.8715432969365082 #
point $-1 -23.969170371968023 13.715292825427316 2.2017549788812998 #
point $-1 -20.67673521885445 13.715292825427316 2.2017549788812998 #
End-of-ACIS-data 