500 0 12 0           
7 Unknown 11 ACIS 5.0 NT 24 Fri Mar 26 00:07:51 1999 
-1 9.9999999999999995e-007 1e-010 
body $-1 $12 $-1 $13 #
body $-1 $14 $-1 $15 #
body $-1 $16 $-1 $17 #
body $-1 $18 $-1 $19 #
body $-1 $20 $-1 $21 #
body $-1 $22 $-1 $23 #
body $-1 $24 $-1 $25 #
body $-1 $26 $-1 $27 #
body $-1 $28 $-1 $29 #
body $-1 $30 $-1 $31 #
body $-1 $32 $-1 $33 #
body $-1 $34 $-1 $35 #
lump $-1 $-1 $36 $0 #
transform $-1 1 0 0 0 1 0 0 0 1 40.820337534714803 28.55966069676332 12.674607804199129 1 rotate no_reflect no_shear #
lump $-1 $-1 $37 $1 #
transform $-1 1 0 0 0 1 0 0 0 1 40.820337534714803 28.55966069676332 12.674607804199129 1 rotate no_reflect no_shear #
lump $-1 $-1 $38 $2 #
transform $-1 1 0 0 0 1 0 0 0 1 40.820337534714803 28.55966069676332 12.674607804199129 1 rotate no_reflect no_shear #
lump $-1 $-1 $39 $3 #
transform $-1 1 0 0 0 1 0 0 0 1 40.820337534714803 28.55966069676332 12.674607804199129 1 rotate no_reflect no_shear #
lump $-1 $-1 $40 $4 #
transform $-1 1 0 0 0 1 0 0 0 1 40.820337534714803 28.55966069676332 12.674607804199129 1 rotate no_reflect no_shear #
lump $-1 $-1 $41 $5 #
transform $-1 1 0 0 0 1 0 0 0 1 40.820337534714803 28.55966069676332 12.674607804199129 1 rotate no_reflect no_shear #
lump $-1 $-1 $42 $6 #
transform $-1 1 0 0 0 1 0 0 0 1 40.820337534714803 28.55966069676332 12.674607804199129 1 rotate no_reflect no_shear #
lump $-1 $-1 $43 $7 #
transform $-1 1 0 0 0 1 0 0 0 1 40.820337534714803 28.55966069676332 12.674607804199129 1 rotate no_reflect no_shear #
lump $-1 $-1 $44 $8 #
transform $-1 1 0 0 0 1 0 0 0 1 40.820337534714803 28.55966069676332 12.674607804199129 1 rotate no_reflect no_shear #
lump $-1 $-1 $45 $9 #
transform $-1 1 0 0 0 1 0 0 0 1 40.820337534714803 28.55966069676332 12.674607804199129 1 rotate no_reflect no_shear #
lump $-1 $-1 $46 $10 #
transform $-1 1 0 0 0 1 0 0 0 1 40.820337534714803 28.55966069676332 12.674607804199129 1 rotate no_reflect no_shear #
lump $-1 $-1 $47 $11 #
transform $-1 1 0 0 0 1 0 0 0 1 40.820337534714803 28.55966069676332 12.674607804199129 1 rotate no_reflect no_shear #
shell $-1 $-1 $-1 $48 $-1 $12 #
shell $-1 $-1 $-1 $49 $-1 $14 #
shell $-1 $-1 $-1 $50 $-1 $16 #
shell $-1 $-1 $-1 $51 $-1 $18 #
shell $-1 $-1 $-1 $52 $-1 $20 #
shell $-1 $-1 $-1 $53 $-1 $22 #
shell $-1 $-1 $-1 $54 $-1 $24 #
shell $-1 $-1 $-1 $55 $-1 $26 #
shell $-1 $-1 $-1 $56 $-1 $28 #
shell $-1 $-1 $-1 $57 $-1 $30 #
shell $-1 $-1 $-1 $58 $-1 $32 #
shell $-1 $-1 $-1 $59 $-1 $34 #
face $-1 $60 $61 $36 $-1 $62 forward single #
face $-1 $63 $64 $37 $-1 $65 forward single #
face $-1 $66 $67 $38 $-1 $68 reversed single #
face $-1 $69 $70 $39 $-1 $71 forward single #
face $-1 $72 $73 $40 $-1 $74 forward single #
face $-1 $75 $76 $41 $-1 $77 reversed single #
face $-1 $78 $79 $42 $-1 $80 forward single #
face $-1 $81 $82 $43 $-1 $83 forward single #
face $-1 $84 $85 $44 $-1 $86 reversed single #
face $-1 $87 $88 $45 $-1 $89 forward single #
face $-1 $90 $91 $46 $-1 $92 reversed single #
face $-1 $93 $94 $47 $-1 $95 forward single #
face $-1 $96 $97 $36 $-1 $98 reversed single #
loop $-1 $-1 $99 $48 #
plane-surface $-1 0 0 12.674607804199129 0 0 1 1 0 0 forward_v I I I I #
face $-1 $100 $101 $37 $-1 $102 reversed single #
loop $-1 $-1 $103 $49 #
plane-surface $-1 -35.730016684309476 0 8.6839681370181108 0 0 1 1 0 0 forward_v I I I I #
face $-1 $104 $105 $38 $-1 $106 reversed single #
loop $-1 $-1 $107 $50 #
plane-surface $-1 -5.4192131564727717 -70.607717378218297 79.511716568270359 1 0 0 0 0.51503808176128008 -0.85716729658548041 forward_v I I I I #
face $-1 $108 $109 $39 $-1 $110 forward single #
loop $-1 $111 $112 $51 #
cone-surface $-1 -2.4164891545076017 -25.324433966029758 10.071221234768013 0 0.51503808176128008 -0.85716729658548041 1 0 0 1 I I 0 1 1 forward I I I I #
face $-1 $113 $114 $40 $-1 $115 forward single #
loop $-1 $116 $117 $52 #
cone-surface $-1 2.0875968484401568 -25.324433966029758 10.071221234768013 0 0.51503808176128008 -0.85716729658548041 1 0 0 1 I I 0 1 1 forward I I I I #
face $-1 $118 $119 $41 $-1 $120 reversed single #
loop $-1 $-1 $121 $53 #
plane-surface $-1 15.599854857283432 -70.607717378218297 79.511716568270359 -1 0 0 0 -0.51503808176128008 0.85716729658548041 forward_v I I I I #
face $-1 $122 $123 $42 $-1 $124 forward single #
loop $-1 $125 $126 $54 #
cone-surface $-1 8.0930448523705039 -25.324433966029758 10.071221234768013 0 0.51503808176128008 -0.85716729658548041 1 0 0 1 I I 0 1 1 forward I I I I #
face $-1 $127 $128 $43 $-1 $129 forward single #
loop $-1 $130 $131 $55 #
cone-surface $-1 12.597130855318262 -25.324433966029758 10.071221234768013 0 0.51503808176128008 -0.85716729658548041 1 0 0 1 I I 0 1 1 forward I I I I #
face $-1 $132 $133 $44 $-1 $134 reversed single #
loop $-1 $-1 $135 $56 #
plane-surface $-1 -22.984050119830343 35.547753314339005 105.20427575945084 1 0 0 0 -0.62932039886446345 -0.77714595512881146 forward_v I I I I #
face $-1 $136 $137 $45 $-1 $138 forward single #
loop $-1 $139 $140 $57 #
cone-surface $-1 -14.579530630858223 23.600226498427588 8.3517611870536683 0 -0.62932039886446345 -0.77714595512881146 1.5 0 0 1 I I 0 1 1.5 forward I I I I #
face $-1 $141 $142 $46 $-1 $143 reversed single #
loop $-1 $-1 $144 $58 #
plane-surface $-1 16.355652842696767 35.547753314339005 105.20427575945084 1 0 0 0 -0.62932039886446345 -0.77714595512881146 forward_v I I I I #
face $-1 $145 $146 $47 $-1 $147 forward single #
loop $-1 $148 $149 $59 #
cone-surface $-1 24.76017233166889 23.600226498427588 8.3517611870536683 0 -0.62932039886446345 -0.77714595512881146 1.5 0 0 1 I I 0 1 1.5 forward I I I I #
face $-1 $150 $151 $36 $-1 $152 reversed single #
loop $-1 $-1 $153 $60 #
plane-surface $-1 0 0 -12.674607804199129 0 0 1 1 0 0 forward_v I I I I #
coedge $-1 $154 $155 $156 $157 forward $61 $-1 #
face $-1 $158 $159 $37 $-1 $160 reversed single #
loop $-1 $-1 $161 $63 #
plane-surface $-1 -35.730016684309476 0 1.5822113584440824 0 0 1 1 0 0 forward_v I I I I #
coedge $-1 $162 $163 $164 $165 forward $64 $-1 #
face $-1 $166 $167 $38 $-1 $168 reversed single #
loop $-1 $-1 $169 $66 #
plane-surface $-1 -0.16444615303372245 -28.559660696763309 9.5319998275937508 0 -0.51503808176128008 0.85716729658548041 1 0 0 forward_v I I I I #
coedge $-1 $170 $171 $172 $173 reversed $67 $-1 #
face $-1 $-1 $174 $39 $-1 $175 forward single #
loop $-1 $176 $177 $69 #
cone-surface $-1 -2.4164891545076017 -24.446777135337154 8.6105550053468445 0 0.51503808176128008 -0.85716729658548041 0.5 0 0 1 I I -0.70710678118654746 0.70710678118654746 0.5 forward I I I I #
loop $-1 $-1 $178 $51 #
coedge $-1 $112 $112 $179 $180 reversed $70 $-1 #
face $-1 $-1 $181 $40 $-1 $182 forward single #
loop $-1 $183 $184 $72 #
cone-surface $-1 2.0875968484401568 -24.446777135337154 8.6105550053468445 0 0.51503808176128008 -0.85716729658548041 0.5 0 0 1 I I -0.70710678118654746 0.70710678118654746 0.5 forward I I I I #
loop $-1 $-1 $185 $52 #
coedge $-1 $117 $117 $186 $187 reversed $73 $-1 #
face $-1 $188 $189 $41 $-1 $190 reversed single #
loop $-1 $-1 $191 $75 #
plane-surface $-1 -0.16444615303372245 -28.559660696763309 9.5319998275937508 0 -0.51503808176128008 0.85716729658548041 1 0 0 forward_v I I I I #
coedge $-1 $192 $193 $194 $195 reversed $76 $-1 #
face $-1 $-1 $196 $42 $-1 $197 forward single #
loop $-1 $198 $199 $78 #
cone-surface $-1 8.0930448523705039 -24.446777135337154 8.6105550053468445 0 0.51503808176128008 -0.85716729658548041 0.5 0 0 1 I I -0.70710678118654746 0.70710678118654746 0.5 forward I I I I #
loop $-1 $-1 $200 $54 #
coedge $-1 $126 $126 $201 $202 reversed $79 $-1 #
face $-1 $-1 $203 $43 $-1 $204 forward single #
loop $-1 $205 $206 $81 #
cone-surface $-1 12.597130855318262 -24.446777135337154 8.6105550053468445 0 0.51503808176128008 -0.85716729658548041 0.5 0 0 1 I I -0.70710678118654746 0.70710678118654746 0.5 forward I I I I #
loop $-1 $-1 $207 $55 #
coedge $-1 $131 $131 $208 $209 reversed $82 $-1 #
face $-1 $210 $211 $44 $-1 $212 reversed single #
loop $-1 $-1 $213 $84 #
plane-surface $-1 -14.579530630858219 -15.830388883918495 41.75755535525802 0 0.62932039886446345 0.77714595512881146 1 0 0 forward_v I I I I #
coedge $-1 $214 $215 $216 $217 reversed $85 $-1 #
face $-1 $-1 $218 $45 $-1 $219 forward single #
loop $-1 $220 $221 $87 #
cone-surface $-1 -14.579530630858223 22.406602543261481 6.8777583891529854 0 -0.62932039886446345 -0.77714595512881146 0.75 0 0 1 I I -0.70710678118654713 0.70710678118654802 0.75 forward I I I I #
loop $-1 $-1 $222 $57 #
coedge $-1 $140 $140 $223 $224 reversed $88 $-1 #
face $-1 $225 $226 $46 $-1 $227 reversed single #
loop $-1 $-1 $228 $90 #
plane-surface $-1 24.76017233166889 -15.830388883918495 41.75755535525802 0 0.62932039886446345 0.77714595512881146 1 0 0 forward_v I I I I #
coedge $-1 $229 $230 $231 $232 reversed $91 $-1 #
face $-1 $-1 $233 $47 $-1 $234 forward single #
loop $-1 $235 $236 $93 #
cone-surface $-1 24.76017233166889 22.406602543261481 6.8777583891529854 0 -0.62932039886446345 -0.77714595512881146 0.75 0 0 1 I I -0.70710678118654713 0.70710678118654802 0.75 forward I I I I #
loop $-1 $-1 $237 $59 #
coedge $-1 $149 $149 $238 $239 reversed $94 $-1 #
face $-1 $240 $241 $36 $-1 $242 reversed single #
loop $-1 $-1 $243 $96 #
plane-surface $-1 0 -28.55966069676332 0 0 1 0 0 0 1 forward_v I I I I #
coedge $-1 $244 $245 $246 $247 forward $97 $-1 #
coedge $-1 $248 $99 $249 $250 forward $61 $-1 #
coedge $-1 $99 $248 $251 $252 forward $61 $-1 #
coedge $-1 $253 $254 $99 $157 reversed $255 $-1 #
edge $-1 $256 -28.55966069676332 $257 28.55966069676332 $156 $258 forward 7 unknown #
face $-1 $259 $260 $37 $-1 $261 reversed single #
loop $-1 $-1 $262 $100 #
plane-surface $-1 -30.639695833904145 0 5.1330897477310966 -1 0 0 0 0 1 forward_v I I I I #
coedge $-1 $263 $264 $265 $266 forward $101 $-1 #
coedge $-1 $267 $103 $268 $269 reversed $64 $-1 #
coedge $-1 $103 $267 $270 $271 reversed $64 $-1 #
coedge $-1 $262 $272 $103 $165 reversed $159 $-1 #
edge $-1 $273 -28.55966069676332 $274 28.55966069676332 $164 $275 forward 7 unknown #
face $-1 $276 $277 $38 $-1 $278 forward single #
loop $-1 $-1 $279 $104 #
plane-surface $-1 5.0903208504053268 -70.607717378218297 79.511716568270359 -1 0 0 0 -0.51503808176128008 0.85716729658548041 forward_v I I I I #
coedge $-1 $280 $281 $282 $283 reversed $105 $-1 #
coedge $-1 $171 $107 $284 $285 reversed $67 $-1 #
coedge $-1 $107 $170 $280 $286 reversed $67 $-1 #
coedge $-1 $282 $287 $107 $173 forward $288 $-1 #
edge $-1 $289 27.081250479936052 $290 30.223858456541436 $172 $291 forward 7 unknown #
loop $-1 $-1 $179 $108 #
plane-surface $-1 -0.16444615303372245 -28.559660696763309 9.5319998275937508 0 -0.51503808176128008 0.85716729658548041 1 0 0 forward_v I I I I #
loop $-1 $-1 $292 $69 #
coedge $-1 $177 $177 $178 $293 reversed $109 $-1 #
coedge $-1 $178 $178 $177 $293 forward $111 $-1 #
coedge $-1 $179 $179 $112 $180 forward $174 $-1 #
edge $-1 $294 1.5291871158414943e-015 $294 6.2831853071796022 $179 $295 forward 7 unknown #
loop $-1 $-1 $186 $113 #
plane-surface $-1 -0.16444615303372245 -28.559660696763309 9.5319998275937508 0 -0.51503808176128008 0.85716729658548041 1 0 0 forward_v I I I I #
loop $-1 $-1 $296 $72 #
coedge $-1 $184 $184 $185 $297 reversed $114 $-1 #
coedge $-1 $185 $185 $184 $297 forward $116 $-1 #
coedge $-1 $186 $186 $117 $187 forward $181 $-1 #
edge $-1 $298 1.5291871158414943e-015 $298 6.2831853071796022 $186 $299 forward 7 unknown #
face $-1 $300 $301 $41 $-1 $302 forward single #
loop $-1 $-1 $303 $118 #
plane-surface $-1 0 -28.55966069676332 0 0 1 0 0 0 1 forward_v I I I I #
coedge $-1 $304 $305 $306 $307 reversed $119 $-1 #
coedge $-1 $193 $121 $308 $309 reversed $76 $-1 #
coedge $-1 $121 $192 $310 $311 reversed $76 $-1 #
coedge $-1 $312 $303 $121 $195 forward $189 $-1 #
edge $-1 $313 -30.223858456541436 $314 -27.081250479936052 $194 $315 forward 7 unknown #
loop $-1 $-1 $201 $122 #
plane-surface $-1 -0.16444615303372245 -28.559660696763309 9.5319998275937508 0 -0.51503808176128008 0.85716729658548041 1 0 0 forward_v I I I I #
loop $-1 $-1 $316 $78 #
coedge $-1 $199 $199 $200 $317 reversed $123 $-1 #
coedge $-1 $200 $200 $199 $317 forward $125 $-1 #
coedge $-1 $201 $201 $126 $202 forward $196 $-1 #
edge $-1 $318 1.5291871158414943e-015 $318 6.2831853071796022 $201 $319 forward 7 unknown #
loop $-1 $-1 $208 $127 #
plane-surface $-1 -0.16444615303372245 -28.559660696763309 9.5319998275937508 0 -0.51503808176128008 0.85716729658548041 1 0 0 forward_v I I I I #
loop $-1 $-1 $320 $81 #
coedge $-1 $206 $206 $207 $321 reversed $128 $-1 #
coedge $-1 $207 $207 $206 $321 forward $130 $-1 #
coedge $-1 $208 $208 $131 $209 forward $203 $-1 #
edge $-1 $322 1.5291871158414943e-015 $322 6.2831853071796022 $208 $323 forward 7 unknown #
face $-1 $324 $325 $44 $-1 $326 reversed single #
loop $-1 $-1 $327 $132 #
plane-surface $-1 -6.1750111418860953 35.547753314339005 105.20427575945084 -1 0 0 0 0.62932039886446345 0.77714595512881146 forward_v I I I I #
coedge $-1 $328 $329 $330 $331 reversed $133 $-1 #
coedge $-1 $215 $135 $332 $333 reversed $85 $-1 #
coedge $-1 $135 $214 $328 $334 reversed $85 $-1 #
coedge $-1 $330 $335 $135 $217 forward $336 $-1 #
edge $-1 $337 -10.785784039593818 $338 -2.3101829549578312 $216 $339 forward 7 unknown #
loop $-1 $-1 $223 $136 #
plane-surface $-1 -14.579530630858219 -15.830388883918495 41.75755535525802 0 0.62932039886446345 0.77714595512881146 1 0 0 forward_v I I I I #
loop $-1 $-1 $340 $87 #
coedge $-1 $221 $221 $222 $341 reversed $137 $-1 #
coedge $-1 $222 $222 $221 $341 forward $139 $-1 #
coedge $-1 $223 $223 $140 $224 forward $218 $-1 #
edge $-1 $342 -1.5355526883051096e-015 $342 6.2831853071795987 $223 $343 forward 7 unknown #
face $-1 $344 $345 $46 $-1 $346 forward single #
loop $-1 $-1 $347 $141 #
plane-surface $-1 33.164691820641011 35.547753314339005 105.20427575945084 -1 0 0 0 0.62932039886446345 0.77714595512881146 forward_v I I I I #
coedge $-1 $348 $349 $350 $351 reversed $142 $-1 #
coedge $-1 $230 $144 $352 $353 reversed $91 $-1 #
coedge $-1 $144 $229 $348 $354 reversed $91 $-1 #
coedge $-1 $350 $355 $144 $232 forward $345 $-1 #
edge $-1 $356 -10.785784039593818 $357 -2.3101829549578312 $231 $358 forward 7 unknown #
loop $-1 $-1 $238 $145 #
plane-surface $-1 24.76017233166889 -15.830388883918495 41.75755535525802 0 0.62932039886446345 0.77714595512881146 1 0 0 forward_v I I I I #
loop $-1 $-1 $359 $93 #
coedge $-1 $236 $236 $237 $360 reversed $146 $-1 #
coedge $-1 $237 $237 $236 $360 forward $148 $-1 #
coedge $-1 $238 $238 $149 $239 forward $233 $-1 #
edge $-1 $361 -1.5355526883051096e-015 $361 6.2831853071795987 $238 $362 forward 7 unknown #
face $-1 $363 $364 $36 $-1 $365 reversed single #
loop $-1 $-1 $366 $150 #
plane-surface $-1 -40.820337534714803 0 0 1 0 0 0 0 -1 forward_v I I I I #
coedge $-1 $367 $251 $368 $369 forward $151 $-1 #
coedge $-1 $370 $153 $367 $371 forward $97 $-1 #
coedge $-1 $153 $370 $372 $373 forward $97 $-1 #
coedge $-1 $254 $253 $153 $247 reversed $255 $-1 #
edge $-1 $374 -28.55966069676332 $375 28.55966069676332 $246 $376 forward 7 unknown #
coedge $-1 $155 $154 $377 $378 forward $61 $-1 #
coedge $-1 $379 $380 $154 $250 reversed $364 $-1 #
edge $-1 $257 -40.820337534714803 $381 40.820337534714803 $249 $382 forward 7 unknown #
coedge $-1 $243 $383 $155 $252 reversed $151 $-1 #
edge $-1 $384 -40.820337534714803 $256 40.820337534714803 $251 $385 forward 7 unknown #
coedge $-1 $246 $156 $383 $386 forward $255 $-1 #
coedge $-1 $156 $246 $379 $387 reversed $255 $-1 #
loop $-1 $-1 $253 $363 #
vertex $-1 $157 $388 #
vertex $-1 $157 $389 #
straight-curve $-1 40.820337534714803 0 12.674607804199129 0 1 0 I I #
face $-1 $390 $391 $37 $-1 $392 reversed single #
loop $-1 $-1 $393 $158 #
plane-surface $-1 0 -28.55966069676332 0 0 1 0 0 0 1 forward_v I I I I #
coedge $-1 $265 $164 $394 $395 reversed $159 $-1 #
coedge $-1 $396 $161 $393 $397 reversed $101 $-1 #
coedge $-1 $161 $396 $398 $399 reversed $101 $-1 #
coedge $-1 $272 $262 $161 $266 reversed $159 $-1 #
edge $-1 $400 -28.55966069676332 $401 28.55966069676332 $265 $402 forward 7 unknown #
coedge $-1 $163 $162 $403 $404 reversed $64 $-1 #
coedge $-1 $405 $406 $162 $269 forward $407 $-1 #
edge $-1 $408 -22.955329192560072 $274 -12.774687491749408 $268 $409 forward 7 unknown #
coedge $-1 $410 $394 $163 $271 forward $260 $-1 #
edge $-1 $273 12.774687491749408 $411 22.955329192560072 $270 $412 forward 7 unknown #
coedge $-1 $164 $265 $405 $413 reversed $159 $-1 #
vertex $-1 $271 $414 #
vertex $-1 $269 $415 #
straight-curve $-1 -30.639695833904145 0 8.6839681370181108 0 1 0 I I #
face $-1 $-1 $288 $38 $-1 $416 reversed single #
loop $-1 $-1 $417 $166 #
plane-surface $-1 0 0 12.674607804199129 0 0 1 1 0 0 forward_v I I I I #
coedge $-1 $418 $419 $420 $421 reversed $167 $-1 #
coedge $-1 $422 $169 $171 $286 forward $105 $-1 #
coedge $-1 $169 $422 $418 $423 forward $105 $-1 #
coedge $-1 $420 $172 $169 $283 forward $288 $-1 #
edge $-1 $290 -5.3369900799559105 $424 5.172543926922188 $282 $425 forward 7 unknown #
coedge $-1 $426 $427 $170 $285 forward $277 $-1 #
edge $-1 $428 -11.974375874189043 $289 -6.7441979923458284 $284 $429 forward 7 unknown #
edge $-1 $290 -1.2795375615151988e-014 $428 6.1017002196392456 $171 $430 forward 7 unknown #
coedge $-1 $172 $420 $426 $431 reversed $288 $-1 #
loop $-1 $-1 $420 $276 #
vertex $-1 $431 $432 #
vertex $-1 $173 $433 #
straight-curve $-1 -5.4192131564727717 -28.55966069676332 39.755858284135179 0 0 -1 I I #
coedge $-1 $292 $292 $-1 $434 reversed $176 $-1 #
edge $-1 $435 0 $435 6.2831853071796004 $177 $436 forward 7 unknown #
vertex $-1 $180 $437 #
ellipse-curve $-1 -2.4164891545076017 -25.944571755841718 11.103303815896433 0 -0.51503808176128008 0.85716729658548041 1 0 0 1 I I #
coedge $-1 $296 $296 $-1 $438 reversed $183 $-1 #
edge $-1 $439 0 $439 6.2831853071796004 $184 $440 forward 7 unknown #
vertex $-1 $187 $441 #
ellipse-curve $-1 2.0875968484401568 -25.944571755841718 11.103303815896433 0 -0.51503808176128008 0.85716729658548041 1 0 0 1 I I #
face $-1 $-1 $442 $41 $-1 $443 forward single #
loop $-1 $-1 $444 $188 #
plane-surface $-1 5.0903208504053268 -70.607717378218297 79.511716568270359 -1 0 0 0 -0.51503808176128008 0.85716729658548041 forward_v I I I I #
coedge $-1 $194 $445 $305 $446 forward $189 $-1 #
coedge $-1 $308 $191 $447 $448 reversed $119 $-1 #
coedge $-1 $191 $308 $303 $446 reversed $119 $-1 #
coedge $-1 $444 $449 $191 $307 forward $301 $-1 #
edge $-1 $450 -6.1017002196392456 $451 1.2795375615151988e-014 $306 $452 forward 7 unknown #
coedge $-1 $305 $304 $192 $309 forward $119 $-1 #
edge $-1 $453 -6.1017002196392456 $313 1.2795375615151988e-014 $192 $454 forward 7 unknown #
coedge $-1 $447 $455 $193 $311 forward $442 $-1 #
edge $-1 $314 6.7441979923458284 $453 11.974375874189043 $310 $456 forward 7 unknown #
coedge $-1 $445 $194 $455 $457 reversed $189 $-1 #
vertex $-1 $195 $458 #
vertex $-1 $311 $459 #
straight-curve $-1 15.599854857283432 -28.55966069676332 39.755858284135179 0 0 1 I I #
coedge $-1 $316 $316 $-1 $460 reversed $198 $-1 #
edge $-1 $461 0 $461 6.2831853071796004 $199 $462 forward 7 unknown #
vertex $-1 $202 $463 #
ellipse-curve $-1 8.0930448523705039 -25.944571755841718 11.103303815896433 0 -0.51503808176128008 0.85716729658548041 1 0 0 1 I I #
coedge $-1 $320 $320 $-1 $464 reversed $205 $-1 #
edge $-1 $465 0 $465 6.2831853071796004 $206 $466 forward 7 unknown #
vertex $-1 $209 $467 #
ellipse-curve $-1 12.597130855318262 -25.944571755841718 11.103303815896433 0 -0.51503808176128008 0.85716729658548041 1 0 0 1 I I #
face $-1 $-1 $336 $44 $-1 $468 forward single #
loop $-1 $-1 $469 $210 #
plane-surface $-1 0 28.55966069676332 0 0 -1 0 0 0 -1 forward_v I I I I #
coedge $-1 $470 $471 $472 $473 reversed $211 $-1 #
coedge $-1 $474 $213 $215 $334 forward $133 $-1 #
coedge $-1 $213 $474 $470 $475 forward $133 $-1 #
coedge $-1 $472 $216 $213 $331 forward $336 $-1 #
edge $-1 $338 -15.694284804401233 $476 1.1147541735430142 $330 $477 forward 7 unknown #
coedge $-1 $478 $479 $214 $333 forward $325 $-1 #
edge $-1 $480 -46.790936646709071 $337 -39.927530075526292 $332 $481 forward 7 unknown #
edge $-1 $338 46.213260532370697 $480 57.119321393526647 $215 $482 forward 7 unknown #
coedge $-1 $216 $472 $478 $483 forward $336 $-1 #
loop $-1 $-1 $472 $324 #
vertex $-1 $333 $484 #
vertex $-1 $217 $485 #
straight-curve $-1 -22.984050119830343 17.773876657169502 12.674607804199127 0 -1 0 I I #
coedge $-1 $340 $340 $-1 $486 reversed $220 $-1 #
edge $-1 $487 0 $487 6.2831853071796004 $221 $488 forward 7 unknown #
vertex $-1 $224 $489 #
ellipse-curve $-1 -14.579530630858223 24.321860154445339 9.2429045186077321 0 0.62932039886446345 0.77714595512881146 1.5 0 0 1 I I #
face $-1 $-1 $490 $46 $-1 $491 reversed single #
loop $-1 $-1 $231 $225 #
plane-surface $-1 0 0 12.674607804199129 0 0 1 1 0 0 forward_v I I I I #
coedge $-1 $492 $493 $494 $495 reversed $226 $-1 #
coedge $-1 $496 $228 $230 $354 forward $142 $-1 #
coedge $-1 $228 $496 $492 $497 forward $142 $-1 #
coedge $-1 $494 $231 $228 $351 forward $345 $-1 #
edge $-1 $357 3.9755666768623215 $498 20.784605654806565 $350 $499 forward 7 unknown #
coedge $-1 $500 $501 $229 $353 forward $490 $-1 #
edge $-1 $502 -46.790936646709071 $356 -39.927530075526292 $352 $503 forward 7 unknown #
edge $-1 $357 46.213260532370697 $502 57.119321393526647 $230 $504 forward 7 unknown #
coedge $-1 $231 $494 $500 $505 forward $345 $-1 #
vertex $-1 $232 $506 #
vertex $-1 $232 $507 #
straight-curve $-1 16.355652842696767 17.773876657169502 12.674607804199127 0 -1 0 I I #
coedge $-1 $359 $359 $-1 $508 reversed $235 $-1 #
edge $-1 $509 0 $509 6.2831853071796004 $236 $510 forward 7 unknown #
vertex $-1 $239 $511 #
ellipse-curve $-1 24.76017233166889 24.321860154445339 9.2429045186077321 0 0.62932039886446345 0.77714595512881146 1.5 0 0 1 I I #
face $-1 $-1 $255 $36 $-1 $512 reversed single #
loop $-1 $-1 $379 $240 #
plane-surface $-1 0 28.55966069676332 0 0 -1 0 0 0 -1 forward_v I I I I #
coedge $-1 $513 $377 $380 $514 forward $241 $-1 #
coedge $-1 $383 $243 $244 $371 reversed $151 $-1 #
coedge $-1 $377 $513 $243 $369 reversed $241 $-1 #
edge $-1 $384 -12.674607804199129 $515 12.674607804199129 $368 $516 forward 7 unknown #
coedge $-1 $245 $244 $513 $517 forward $97 $-1 #
edge $-1 $375 -40.820337534714803 $515 40.820337534714803 $367 $518 forward 7 unknown #
coedge $-1 $380 $379 $245 $373 reversed $364 $-1 #
edge $-1 $519 -40.820337534714803 $374 40.820337534714803 $372 $520 forward 7 unknown #
vertex $-1 $247 $521 #
vertex $-1 $386 $522 #
straight-curve $-1 40.820337534714803 0 -12.674607804199129 0 -1 0 I I #
coedge $-1 $366 $368 $248 $378 reversed $241 $-1 #
edge $-1 $381 -28.55966069676332 $384 28.55966069676332 $377 $523 forward 7 unknown #
coedge $-1 $372 $249 $254 $387 forward $364 $-1 #
coedge $-1 $249 $372 $366 $514 reversed $364 $-1 #
vertex $-1 $250 $524 #
straight-curve $-1 0 28.55966069676332 12.674607804199129 -1 0 0 I I #
coedge $-1 $251 $367 $253 $386 reversed $151 $-1 #
vertex $-1 $378 $525 #
straight-curve $-1 0 -28.55966069676332 12.674607804199129 1 0 0 I I #
edge $-1 $256 -12.674607804199129 $375 12.674607804199129 $253 $526 forward 7 unknown #
edge $-1 $257 -12.674607804199129 $374 12.674607804199129 $254 $527 forward 7 unknown #
point $-1 40.820337534714803 -28.55966069676332 12.674607804199129 #
point $-1 40.820337534714803 28.55966069676332 12.674607804199129 #
face $-1 $-1 $407 $37 $-1 $528 reversed single #
loop $-1 $-1 $529 $259 #
plane-surface $-1 -40.820337534714803 0 0 1 0 0 0 0 -1 forward_v I I I I #
coedge $-1 $394 $410 $263 $397 forward $260 $-1 #
coedge $-1 $270 $393 $262 $395 forward $260 $-1 #
edge $-1 $401 -0.98433351542146585 $273 6.1174232631525625 $394 $530 forward 7 unknown #
coedge $-1 $264 $263 $529 $531 reversed $101 $-1 #
edge $-1 $532 -22.955329192560072 $401 -12.774687491749408 $393 $533 forward 7 unknown #
coedge $-1 $406 $405 $264 $399 forward $407 $-1 #
edge $-1 $400 12.774687491749408 $534 22.955329192560072 $398 $535 forward 7 unknown #
vertex $-1 $399 $536 #
vertex $-1 $397 $537 #
straight-curve $-1 -30.639695833904145 0 1.5822113584440824 0 -1 0 I I #
coedge $-1 $538 $539 $267 $404 forward $391 $-1 #
edge $-1 $411 -28.55966069676332 $408 28.55966069676332 $403 $540 forward 7 unknown #
coedge $-1 $398 $268 $272 $413 forward $407 $-1 #
coedge $-1 $268 $398 $538 $541 reversed $407 $-1 #
loop $-1 $-1 $398 $390 #
vertex $-1 $541 $542 #
straight-curve $-1 -17.865008342154738 28.55966069676332 8.6839681370181108 1 0 0 I I #
coedge $-1 $393 $270 $539 $543 forward $260 $-1 #
vertex $-1 $543 $544 #
straight-curve $-1 -17.865008342154738 -28.55966069676332 8.6839681370181108 -1 0 0 I I #
edge $-1 $274 -6.1174232631525625 $400 0.98433351542146585 $405 $545 forward 7 unknown #
point $-1 -30.639695833904145 -28.55966069676332 8.6839681370181108 #
point $-1 -30.639695833904145 28.55966069676332 8.6839681370181108 #
plane-surface $-1 0 -28.55966069676332 0 0 1 0 0 0 1 forward_v I I I I #
coedge $-1 $427 $426 $419 $546 forward $277 $-1 #
coedge $-1 $419 $279 $281 $423 reversed $167 $-1 #
coedge $-1 $279 $418 $417 $546 reversed $167 $-1 #
coedge $-1 $287 $282 $279 $421 forward $288 $-1 #
edge $-1 $424 -30.223858456541436 $547 -27.081250479936052 $420 $548 forward 7 unknown #
coedge $-1 $281 $280 $427 $549 reversed $105 $-1 #
edge $-1 $550 -6.1017002196392456 $424 1.2795375615151988e-014 $418 $551 forward 7 unknown #
vertex $-1 $283 $552 #
straight-curve $-1 -0.082223076516861227 -28.55966069676332 9.5319998275937454 1 0 0 I I #
coedge $-1 $417 $284 $287 $431 forward $277 $-1 #
coedge $-1 $284 $417 $422 $549 forward $277 $-1 #
vertex $-1 $285 $553 #
straight-curve $-1 -5.4192131564727717 -35.303858689109148 12.674607804199127 0 -1 0 I I #
straight-curve $-1 -5.4192131564727717 -28.559660696763309 9.5319998275937508 0 0.85716729658548041 0.51503808176128008 I I #
edge $-1 $289 -5.4192131564727717 $547 5.0903208504053268 $287 $554 forward 7 unknown #
point $-1 -5.4192131564727717 -28.55966069676332 12.674607804199129 #
point $-1 -5.4192131564727717 -28.55966069676332 9.5319998275937436 #
edge $-1 $555 1 $555 0 $292 $-1 forward 7 unknown #
vertex $-1 $293 $556 #
ellipse-curve $-1 -2.4164891545076017 -24.704296176217795 9.0391386536395846 0 -0.51503808176128008 0.85716729658548041 1 0 0 1 I I #
point $-1 -1.4164891545076017 -25.944571755841721 11.103303815896442 #
edge $-1 $557 1 $557 0 $296 $-1 forward 7 unknown #
vertex $-1 $297 $558 #
ellipse-curve $-1 2.0875968484401568 -24.704296176217795 9.0391386536395846 0 -0.51503808176128008 0.85716729658548041 1 0 0 1 I I #
point $-1 3.0875968484401568 -25.944571755841721 11.103303815896442 #
loop $-1 $-1 $447 $300 #
plane-surface $-1 0 0 12.674607804199129 0 0 1 1 0 0 forward_v I I I I #
coedge $-1 $449 $306 $445 $559 reversed $301 $-1 #
coedge $-1 $303 $312 $444 $559 forward $189 $-1 #
edge $-1 $451 5.172543926922188 $313 15.682077933800294 $303 $560 forward 7 unknown #
coedge $-1 $561 $310 $304 $448 forward $442 $-1 #
edge $-1 $453 -15.682077933800294 $450 -5.172543926922188 $447 $562 forward 7 unknown #
coedge $-1 $306 $444 $561 $563 reversed $301 $-1 #
vertex $-1 $448 $564 #
vertex $-1 $446 $565 #
straight-curve $-1 5.0903208504053268 -28.559660696763309 9.5319998275937508 0 -0.85716729658548041 -0.51503808176128008 I I #
vertex $-1 $311 $566 #
straight-curve $-1 15.599854857283432 -28.559660696763309 9.5319998275937508 0 -0.85716729658548041 -0.51503808176128008 I I #
coedge $-1 $310 $561 $312 $457 forward $442 $-1 #
straight-curve $-1 15.599854857283432 -35.303858689109148 12.674607804199127 0 1 0 I I #
edge $-1 $567 5.0903208504053268 $314 15.599854857283432 $312 $568 forward 7 unknown #
point $-1 15.599854857283432 -28.55966069676332 9.5319998275937436 #
point $-1 15.599854857283432 -28.55966069676332 12.674607804199129 #
edge $-1 $569 1 $569 0 $316 $-1 forward 7 unknown #
vertex $-1 $317 $570 #
ellipse-curve $-1 8.0930448523705039 -24.704296176217795 9.0391386536395846 0 -0.51503808176128008 0.85716729658548041 1 0 0 1 I I #
point $-1 9.0930448523705039 -25.944571755841721 11.103303815896442 #
edge $-1 $571 1 $571 0 $320 $-1 forward 7 unknown #
vertex $-1 $321 $572 #
ellipse-curve $-1 12.597130855318262 -24.704296176217795 9.0391386536395846 0 -0.51503808176128008 0.85716729658548041 1 0 0 1 I I #
point $-1 13.597130855318262 -25.944571755841721 11.103303815896442 #
plane-surface $-1 0 0 12.674607804199129 0 0 1 1 0 0 forward_v I I I I #
coedge $-1 $479 $478 $471 $573 forward $325 $-1 #
coedge $-1 $471 $327 $329 $475 reversed $211 $-1 #
coedge $-1 $327 $470 $469 $573 reversed $211 $-1 #
coedge $-1 $335 $330 $327 $473 forward $336 $-1 #
edge $-1 $476 2.3101829549578312 $574 10.785784039593818 $472 $575 forward 7 unknown #
coedge $-1 $329 $328 $479 $576 reversed $133 $-1 #
edge $-1 $577 -57.119321393526647 $476 -46.213260532370697 $470 $578 forward 7 unknown #
vertex $-1 $331 $579 #
straight-curve $-1 -7.2897653154291095 20.084059612127337 12.674607804199127 1 0 0 I I #
coedge $-1 $469 $332 $335 $483 reversed $325 $-1 #
coedge $-1 $332 $469 $474 $576 forward $325 $-1 #
vertex $-1 $333 $580 #
straight-curve $-1 -22.984050119830343 28.55966069676332 52.602137879725419 0 0 1 I I #
straight-curve $-1 -22.984050119830343 -15.830388883918495 41.75755535525802 0 0.77714595512881146 -0.62932039886446345 I I #
edge $-1 $574 6.1750111418860953 $337 22.984050119830343 $478 $581 forward 7 unknown #
point $-1 -22.984050119830343 28.55966069676332 12.674607804199129 #
point $-1 -22.984050119830343 20.084059612127334 12.674607804199127 #
edge $-1 $582 1 $582 0 $340 $-1 forward 7 unknown #
vertex $-1 $341 $583 #
ellipse-curve $-1 -14.579530630858223 22.87859284240983 7.4606178554995948 0 0.62932039886446345 0.77714595512881146 1.5 0 0 1 I I #
point $-1 -13.079530630858223 24.321860154445346 9.2429045186077445 #
loop $-1 $-1 $352 $344 #
plane-surface $-1 0 28.55966069676332 0 0 -1 0 0 0 -1 forward_v I I I I #
coedge $-1 $493 $347 $349 $497 reversed $226 $-1 #
coedge $-1 $347 $492 $584 $585 reversed $226 $-1 #
coedge $-1 $355 $350 $347 $495 forward $345 $-1 #
edge $-1 $498 2.3101829549578312 $586 10.785784039593818 $494 $587 forward 7 unknown #
coedge $-1 $349 $348 $501 $588 reversed $142 $-1 #
edge $-1 $589 -57.119321393526647 $498 -46.213260532370697 $492 $590 forward 7 unknown #
vertex $-1 $351 $591 #
straight-curve $-1 12.380086165834445 20.084059612127337 12.674607804199127 1 0 0 I I #
coedge $-1 $584 $352 $355 $505 reversed $490 $-1 #
coedge $-1 $352 $584 $496 $588 forward $490 $-1 #
vertex $-1 $353 $592 #
straight-curve $-1 16.355652842696767 28.55966069676332 52.602137879725419 0 0 1 I I #
straight-curve $-1 16.355652842696767 -15.830388883918495 41.75755535525802 0 0.77714595512881146 -0.62932039886446345 I I #
edge $-1 $586 -33.164691820641011 $356 -16.355652842696767 $500 $593 forward 7 unknown #
point $-1 16.355652842696767 28.55966069676332 12.674607804199129 #
point $-1 16.355652842696767 20.084059612127334 12.674607804199127 #
edge $-1 $594 1 $594 0 $359 $-1 forward 7 unknown #
vertex $-1 $360 $595 #
ellipse-curve $-1 24.76017233166889 22.87859284240983 7.4606178554995948 0 0.62932039886446345 0.77714595512881146 1.5 0 0 1 I I #
point $-1 26.26017233166889 24.321860154445346 9.2429045186077445 #
plane-surface $-1 40.820337534714803 0 0 -1 0 0 0 0 1 forward_v I I I I #
coedge $-1 $368 $366 $370 $517 reversed $241 $-1 #
edge $-1 $381 -12.674607804199129 $519 12.674607804199129 $380 $596 forward 7 unknown #
vertex $-1 $517 $597 #
straight-curve $-1 -40.820337534714803 -28.55966069676332 0 0 0 -1 I I #
edge $-1 $515 -28.55966069676332 $519 28.55966069676332 $513 $598 forward 7 unknown #
straight-curve $-1 0 -28.55966069676332 -12.674607804199129 -1 0 0 I I #
vertex $-1 $373 $599 #
straight-curve $-1 0 28.55966069676332 -12.674607804199129 1 0 0 I I #
point $-1 40.820337534714803 28.55966069676332 -12.674607804199129 #
point $-1 40.820337534714803 -28.55966069676332 -12.674607804199129 #
straight-curve $-1 -40.820337534714803 0 12.674607804199129 0 -1 0 I I #
point $-1 -40.820337534714803 28.55966069676332 12.674607804199129 #
point $-1 -40.820337534714803 -28.55966069676332 12.674607804199129 #
straight-curve $-1 40.820337534714803 -28.55966069676332 0 0 0 -1 I I #
straight-curve $-1 40.820337534714803 28.55966069676332 0 0 0 -1 I I #
plane-surface $-1 0 28.55966069676332 0 0 -1 0 0 0 -1 forward_v I I I I #
coedge $-1 $539 $538 $396 $531 forward $391 $-1 #
straight-curve $-1 -30.639695833904145 -28.55966069676332 2.5665448738655483 0 0 1 I I #
edge $-1 $534 -28.55966069676332 $532 28.55966069676332 $529 $600 forward 7 unknown #
vertex $-1 $397 $601 #
straight-curve $-1 -17.865008342154738 -28.55966069676332 1.5822113584440824 1 0 0 I I #
vertex $-1 $399 $602 #
straight-curve $-1 -17.865008342154738 28.55966069676332 1.5822113584440824 -1 0 0 I I #
point $-1 -30.639695833904145 28.55966069676332 1.5822113584440824 #
point $-1 -30.639695833904145 -28.55966069676332 1.5822113584440824 #
coedge $-1 $529 $403 $406 $541 forward $391 $-1 #
coedge $-1 $403 $529 $410 $543 reversed $391 $-1 #
straight-curve $-1 -40.820337534714803 0 8.6839681370181108 0 1 0 I I #
edge $-1 $408 -8.6839681370181108 $534 -1.5822113584440824 $406 $603 forward 7 unknown #
point $-1 -40.82033753471481 28.55966069676332 8.6839681370181108 #
edge $-1 $411 -8.6839681370181108 $532 -1.5822113584440824 $539 $604 forward 7 unknown #
point $-1 -40.82033753471481 -28.55966069676332 8.6839681370181108 #
straight-curve $-1 -30.639695833904145 28.55966069676332 2.5665448738655483 0 0 -1 I I #
edge $-1 $547 6.7441979923458284 $550 11.974375874189043 $417 $605 forward 7 unknown #
vertex $-1 $546 $606 #
straight-curve $-1 5.0903208504053268 -28.55966069676332 39.755858284135179 0 0 1 I I #
edge $-1 $550 -5.172543926922188 $428 5.3369900799559105 $427 $607 forward 7 unknown #
vertex $-1 $549 $608 #
straight-curve $-1 5.0903208504053268 -28.559660696763309 9.5319998275937508 0 -0.85716729658548041 -0.51503808176128008 I I #
point $-1 5.0903208504053268 -28.55966069676332 9.5319998275937436 #
point $-1 -5.4192131564727717 -23.329482814920105 12.674607804199129 #
straight-curve $-1 0 -28.55966069676332 12.674607804199129 1 0 0 I I #
vertex $-1 $434 $609 #
point $-1 -1.4164891545076017 -24.704296176217795 9.0391386536395846 #
vertex $-1 $438 $610 #
point $-1 3.0875968484401568 -24.704296176217795 9.0391386536395846 #
edge $-1 $567 27.081250479936052 $451 30.223858456541436 $445 $611 forward 7 unknown #
straight-curve $-1 -0.082223076516861227 -28.55966069676332 9.5319998275937454 1 0 0 I I #
coedge $-1 $455 $447 $449 $563 forward $442 $-1 #
straight-curve $-1 -0.082223076516861227 -23.329482814920105 12.674607804199129 -1 0 0 I I #
edge $-1 $450 -11.974375874189043 $567 -6.7441979923458284 $561 $612 forward 7 unknown #
point $-1 5.0903208504053268 -23.329482814920105 12.674607804199129 #
point $-1 5.0903208504053268 -28.55966069676332 9.5319998275937436 #
point $-1 15.599854857283432 -23.329482814920105 12.674607804199129 #
vertex $-1 $457 $613 #
straight-curve $-1 0 -28.55966069676332 12.674607804199129 1 0 0 I I #
vertex $-1 $460 $614 #
point $-1 9.0930448523705039 -24.704296176217795 9.0391386536395846 #
vertex $-1 $464 $615 #
point $-1 13.597130855318262 -24.704296176217795 9.0391386536395846 #
edge $-1 $574 39.927530075526292 $577 46.790936646709071 $469 $616 forward 7 unknown #
vertex $-1 $483 $617 #
straight-curve $-1 -6.1750111418860953 17.773876657169502 12.674607804199127 0 1 0 I I #
edge $-1 $577 -1.1147541735430142 $480 15.694284804401233 $479 $618 forward 7 unknown #
vertex $-1 $576 $619 #
straight-curve $-1 -6.1750111418860953 -15.830388883918495 41.75755535525802 0 -0.77714595512881146 0.62932039886446345 I I #
point $-1 -6.1750111418860953 20.084059612127334 12.674607804199127 #
point $-1 -22.984050119830343 28.559660696763324 5.8112012330163481 #
straight-curve $-1 0 28.55966069676332 12.674607804199129 -1 0 0 I I #
vertex $-1 $486 $620 #
point $-1 -13.079530630858223 22.87859284240983 7.4606178554995948 #
coedge $-1 $501 $500 $493 $585 forward $490 $-1 #
edge $-1 $586 39.927530075526292 $589 46.790936646709071 $584 $621 forward 7 unknown #
vertex $-1 $505 $622 #
straight-curve $-1 33.164691820641011 17.773876657169502 12.674607804199127 0 1 0 I I #
edge $-1 $589 -20.784605654806565 $502 -3.9755666768623215 $501 $623 forward 7 unknown #
vertex $-1 $588 $624 #
straight-curve $-1 33.164691820641011 -15.830388883918495 41.75755535525802 0 -0.77714595512881146 0.62932039886446345 I I #
point $-1 33.164691820641011 20.084059612127334 12.674607804199127 #
point $-1 16.355652842696767 28.559660696763324 5.8112012330163481 #
straight-curve $-1 0 28.55966069676332 12.674607804199129 -1 0 0 I I #
vertex $-1 $508 $625 #
point $-1 26.26017233166889 22.87859284240983 7.4606178554995948 #
straight-curve $-1 -40.820337534714803 28.55966069676332 0 0 0 -1 I I #
point $-1 -40.820337534714803 -28.55966069676332 -12.674607804199129 #
straight-curve $-1 -40.820337534714803 0 -12.674607804199129 0 1 0 I I #
point $-1 -40.820337534714803 28.55966069676332 -12.674607804199129 #
straight-curve $-1 -40.820337534714803 0 1.5822113584440824 0 -1 0 I I #
point $-1 -40.82033753471481 -28.55966069676332 1.5822113584440824 #
point $-1 -40.82033753471481 28.55966069676332 1.5822113584440824 #
straight-curve $-1 -40.820337534714803 28.55966069676332 0 0 0 -1 I I #
straight-curve $-1 -40.820337534714803 -28.55966069676332 0 0 0 -1 I I #
straight-curve $-1 5.0903208504053268 -35.303858689109148 12.674607804199127 0 1 0 I I #
point $-1 5.0903208504053268 -28.55966069676332 12.674607804199129 #
straight-curve $-1 -0.082223076516861227 -23.329482814920105 12.674607804199129 -1 0 0 I I #
point $-1 5.0903208504053268 -23.329482814920105 12.674607804199129 #
point $-1 -2.4164891545076017 -24.189258094456513 8.1819713570541044 #
point $-1 2.0875968484401568 -24.189258094456513 8.1819713570541044 #
straight-curve $-1 5.0903208504053268 -28.55966069676332 39.755858284135179 0 0 -1 I I #
straight-curve $-1 5.0903208504053268 -35.303858689109148 12.674607804199127 0 -1 0 I I #
point $-1 5.0903208504053268 -28.55966069676332 12.674607804199129 #
point $-1 8.0930448523705039 -24.189258094456513 8.1819713570541044 #
point $-1 12.597130855318262 -24.189258094456513 8.1819713570541044 #
straight-curve $-1 -6.1750111418860953 28.55966069676332 52.602137879725419 0 0 -1 I I #
point $-1 -6.1750111418860953 28.55966069676332 12.674607804199129 #
straight-curve $-1 -7.2897653154291095 28.55966069676332 5.8112012330163516 -1 0 0 I I #
point $-1 -6.1750111418860953 28.559660696763324 5.8112012330163481 #
point $-1 -14.579530630858223 21.934612244113133 6.2948989228063761 #
straight-curve $-1 33.164691820641011 28.55966069676332 52.602137879725419 0 0 -1 I I #
point $-1 33.164691820641011 28.55966069676332 12.674607804199129 #
straight-curve $-1 12.380086165834445 28.55966069676332 5.8112012330163516 -1 0 0 I I #
point $-1 33.164691820641011 28.559660696763324 5.8112012330163481 #
point $-1 24.76017233166889 21.934612244113133 6.2948989228063761 #
End-of-ACIS-data 