500 0 8 0           
7 Unknown 11 ACIS 5.0 NT 24 Thu Mar 25 21:58:48 1999 
-1 9.9999999999999995e-007 1e-010 
body $-1 $8 $-1 $9 #
body $-1 $10 $-1 $11 #
body $-1 $12 $-1 $13 #
body $-1 $14 $-1 $15 #
body $-1 $16 $-1 $17 #
body $-1 $18 $-1 $19 #
body $-1 $20 $-1 $21 #
body $-1 $22 $-1 $23 #
lump $-1 $-1 $24 $0 #
transform $-1 1 0 0 0 1 0 0 0 1 57.032990508743552 39.385259740983251 15.620804378424765 1 rotate no_reflect no_shear #
lump $-1 $-1 $25 $1 #
transform $-1 1 0 0 0 1 0 0 0 1 57.032990508743552 39.385259740983251 15.620804378424765 1 rotate no_reflect no_shear #
lump $-1 $-1 $26 $2 #
transform $-1 1 0 0 0 1 0 0 0 1 57.032990508743552 39.385259740983251 15.620804378424765 1 rotate no_reflect no_shear #
lump $-1 $-1 $27 $3 #
transform $-1 1 0 0 0 1 0 0 0 1 57.032990508743552 39.385259740983251 15.620804378424765 1 rotate no_reflect no_shear #
lump $-1 $-1 $28 $4 #
transform $-1 1 0 0 0 1 0 0 0 1 57.032990508743552 39.385259740983251 15.620804378424765 1 rotate no_reflect no_shear #
lump $-1 $-1 $29 $5 #
transform $-1 1 0 0 0 1 0 0 0 1 57.032990508743552 39.385259740983251 15.620804378424765 1 rotate no_reflect no_shear #
lump $-1 $-1 $30 $6 #
transform $-1 1 0 0 0 1 0 0 0 1 57.032990508743552 39.385259740983251 15.620804378424765 1 rotate no_reflect no_shear #
lump $-1 $-1 $31 $7 #
transform $-1 1 0 0 0 1 0 0 0 1 57.032990508743552 39.385259740983251 15.620804378424765 1 rotate no_reflect no_shear #
shell $-1 $-1 $-1 $32 $-1 $8 #
shell $-1 $-1 $-1 $33 $-1 $10 #
shell $-1 $-1 $-1 $34 $-1 $12 #
shell $-1 $-1 $-1 $35 $-1 $14 #
shell $-1 $-1 $-1 $36 $-1 $16 #
shell $-1 $-1 $-1 $37 $-1 $18 #
shell $-1 $-1 $-1 $38 $-1 $20 #
shell $-1 $-1 $-1 $39 $-1 $22 #
face $-1 $40 $41 $24 $-1 $42 forward single #
face $-1 $43 $44 $25 $-1 $45 forward single #
face $-1 $46 $47 $26 $-1 $48 reversed single #
face $-1 $49 $50 $27 $-1 $51 forward single #
face $-1 $52 $53 $28 $-1 $54 forward single #
face $-1 $55 $56 $29 $-1 $57 reversed single #
face $-1 $58 $59 $30 $-1 $60 forward single #
face $-1 $61 $62 $31 $-1 $63 forward single #
face $-1 $64 $65 $24 $-1 $66 reversed single #
loop $-1 $-1 $67 $32 #
plane-surface $-1 0 0 15.620804378424765 0 0 1 1 0 0 forward_v I I I I #
face $-1 $68 $69 $25 $-1 $70 reversed single #
loop $-1 $-1 $71 $33 #
plane-surface $-1 0 -31.018101516202318 -10.452071042087688 0 0 1 1 0 0 forward_v I I I I #
face $-1 $72 $73 $26 $-1 $74 reversed single #
loop $-1 $-1 $75 $34 #
plane-surface $-1 -140.45556889741522 -15.41546512533993 82.173328215587958 0 1 0 -0.73135370988377701 0 0.68199835119979291 forward_v I I I I #
face $-1 $76 $77 $27 $-1 $78 forward single #
loop $-1 $79 $80 $35 #
cone-surface $-1 -50.516030606680346 -11.713264052097845 8.8106863887047542 0.73135370988377701 0 -0.68199835119979291 0.68199835119979291 0 0.73135370988377701 1 I I 0 1 1 forward I I I I #
face $-1 $81 $82 $28 $-1 $83 forward single #
loop $-1 $84 $85 $36 #
cone-surface $-1 -50.516030606680346 -6.1599624422347148 8.8106863887047542 0.73135370988377701 0 -0.68199835119979291 0.68199835119979291 0 0.73135370988377701 1 I I 0 1 1 forward I I I I #
face $-1 $86 $87 $29 $-1 $88 reversed single #
loop $-1 $-1 $89 $37 #
plane-surface $-1 -140.45556889741522 19.192077818554495 82.173328215587958 0 1 0 -0.73135370988377701 0 0.68199835119979291 forward_v I I I I #
face $-1 $90 $91 $30 $-1 $92 forward single #
loop $-1 $93 $94 $38 #
cone-surface $-1 -50.516030606680346 22.894278891796581 8.8106863887047542 0.73135370988377701 0 -0.68199835119979291 0.68199835119979291 0 0.73135370988377701 1 I I 0 1 1 forward I I I I #
face $-1 $95 $96 $31 $-1 $97 forward single #
loop $-1 $98 $99 $39 #
cone-surface $-1 -50.516030606680346 28.447580501659708 8.8106863887047542 0.73135370988377701 0 -0.68199835119979291 0.68199835119979291 0 0.73135370988377701 1 I I 0 1 1 forward I I I I #
face $-1 $100 $101 $24 $-1 $102 reversed single #
loop $-1 $-1 $103 $40 #
plane-surface $-1 0 0 -15.620804378424765 0 0 1 1 0 0 forward_v I I I I #
coedge $-1 $104 $105 $106 $107 forward $41 $-1 #
face $-1 $108 $109 $25 $-1 $110 reversed single #
loop $-1 $-1 $111 $43 #
plane-surface $-1 0 -22.650943291421385 -13.036437710256227 0 -1 0 0 0 -1 forward_v I I I I #
coedge $-1 $112 $113 $114 $115 reversed $44 $-1 #
face $-1 $116 $117 $26 $-1 $118 reversed single #
loop $-1 $-1 $119 $46 #
plane-surface $-1 -57.032990508743538 -8.936613247166278 4.3805172336748797 -0.73135370988377701 0 0.68199835119979291 0.68199835119979291 0 0.73135370988377701 forward_v I I I I #
coedge $-1 $120 $121 $122 $123 reversed $47 $-1 #
face $-1 $-1 $124 $27 $-1 $125 forward single #
loop $-1 $126 $127 $49 #
cone-surface $-1 -48.874262389844318 -11.713264052097845 7.2797127957597922 0.73135370988377701 0 -0.68199835119979291 0.34099917559989645 0 0.36567685494188851 1 I I -0.70710678118654746 0.70710678118654746 0.5 forward I I I I #
loop $-1 $-1 $128 $35 #
coedge $-1 $80 $80 $129 $130 reversed $50 $-1 #
face $-1 $-1 $131 $28 $-1 $132 forward single #
loop $-1 $133 $134 $52 #
cone-surface $-1 -48.874262389844318 -6.1599624422347148 7.2797127957597922 0.73135370988377701 0 -0.68199835119979291 0.34099917559989645 0 0.36567685494188851 1 I I -0.70710678118654746 0.70710678118654746 0.5 forward I I I I #
loop $-1 $-1 $135 $36 #
coedge $-1 $85 $85 $136 $137 reversed $53 $-1 #
face $-1 $138 $139 $29 $-1 $140 reversed single #
loop $-1 $-1 $141 $55 #
plane-surface $-1 -57.032990508743538 25.670929696728145 4.3805172336748797 -0.73135370988377701 0 0.68199835119979291 0.68199835119979291 0 0.73135370988377701 forward_v I I I I #
coedge $-1 $142 $143 $144 $145 reversed $56 $-1 #
face $-1 $-1 $146 $30 $-1 $147 forward single #
loop $-1 $148 $149 $58 #
cone-surface $-1 -48.874262389844318 22.894278891796581 7.2797127957597922 0.73135370988377701 0 -0.68199835119979291 0.34099917559989645 0 0.36567685494188851 1 I I -0.70710678118654746 0.70710678118654746 0.5 forward I I I I #
loop $-1 $-1 $150 $38 #
coedge $-1 $94 $94 $151 $152 reversed $59 $-1 #
face $-1 $-1 $153 $31 $-1 $154 forward single #
loop $-1 $155 $156 $61 #
cone-surface $-1 -48.874262389844318 28.447580501659708 7.2797127957597922 0.73135370988377701 0 -0.68199835119979291 0.34099917559989645 0 0.36567685494188851 1 I I -0.70710678118654746 0.70710678118654746 0.5 forward I I I I #
loop $-1 $-1 $157 $39 #
coedge $-1 $99 $99 $158 $159 reversed $62 $-1 #
face $-1 $160 $161 $24 $-1 $162 reversed single #
loop $-1 $-1 $163 $64 #
plane-surface $-1 0 -39.385259740983251 0 0 1 0 0 0 1 forward_v I I I I #
coedge $-1 $164 $165 $166 $167 forward $65 $-1 #
coedge $-1 $168 $67 $169 $170 forward $41 $-1 #
coedge $-1 $67 $168 $171 $172 forward $41 $-1 #
coedge $-1 $173 $174 $67 $107 reversed $175 $-1 #
edge $-1 $176 -39.385259740983251 $177 39.385259740983251 $106 $178 forward 7 unknown #
face $-1 $179 $180 $25 $-1 $181 reversed single #
loop $-1 $-1 $182 $68 #
plane-surface $-1 0 0 -15.620804378424765 0 0 1 1 0 0 forward_v I I I I #
coedge $-1 $183 $184 $185 $186 reversed $69 $-1 #
coedge $-1 $187 $71 $184 $188 forward $44 $-1 #
coedge $-1 $71 $187 $189 $190 reversed $44 $-1 #
coedge $-1 $191 $185 $71 $115 forward $180 $-1 #
edge $-1 $192 7.1418925333202257 $193 23.87620898288209 $114 $194 forward 7 unknown #
face $-1 $195 $196 $26 $-1 $197 forward single #
loop $-1 $-1 $198 $72 #
plane-surface $-1 -140.45556889741522 -2.4577613689926263 82.173328215587958 0 -1 0 0.73135370988377701 0 -0.68199835119979291 forward_v I I I I #
coedge $-1 $199 $200 $201 $202 reversed $73 $-1 #
coedge $-1 $121 $75 $203 $204 reversed $47 $-1 #
coedge $-1 $75 $120 $199 $205 reversed $47 $-1 #
coedge $-1 $201 $206 $75 $123 forward $196 $-1 #
edge $-1 $207 13.194793939964057 $208 23.676531020302214 $122 $209 forward 7 unknown #
loop $-1 $-1 $129 $76 #
plane-surface $-1 -57.032990508743538 -8.936613247166278 4.3805172336748797 -0.73135370988377701 0 0.68199835119979291 0.68199835119979291 0 0.73135370988377701 forward_v I I I I #
loop $-1 $-1 $210 $49 #
coedge $-1 $127 $127 $128 $211 reversed $77 $-1 #
coedge $-1 $128 $128 $127 $211 forward $79 $-1 #
coedge $-1 $129 $129 $80 $130 forward $124 $-1 #
edge $-1 $212 0 $212 6.2831853071796004 $129 $213 forward 7 unknown #
loop $-1 $-1 $136 $81 #
plane-surface $-1 -57.032990508743538 -8.936613247166278 4.3805172336748797 -0.73135370988377701 0 0.68199835119979291 0.68199835119979291 0 0.73135370988377701 forward_v I I I I #
loop $-1 $-1 $214 $52 #
coedge $-1 $134 $134 $135 $215 reversed $82 $-1 #
coedge $-1 $135 $135 $134 $215 forward $84 $-1 #
coedge $-1 $136 $136 $85 $137 forward $131 $-1 #
edge $-1 $216 0 $216 6.2831853071796004 $136 $217 forward 7 unknown #
face $-1 $218 $219 $29 $-1 $220 forward single #
loop $-1 $-1 $221 $86 #
plane-surface $-1 -140.45556889741522 32.149781574901795 82.173328215587958 0 -1 0 0.73135370988377701 0 -0.68199835119979291 forward_v I I I I #
coedge $-1 $222 $223 $224 $225 reversed $87 $-1 #
coedge $-1 $143 $89 $226 $227 reversed $56 $-1 #
coedge $-1 $89 $142 $222 $228 reversed $56 $-1 #
coedge $-1 $224 $229 $89 $145 forward $219 $-1 #
edge $-1 $230 13.194793939964057 $231 23.676531020302214 $144 $232 forward 7 unknown #
loop $-1 $-1 $151 $90 #
plane-surface $-1 -57.032990508743538 25.670929696728145 4.3805172336748797 -0.73135370988377701 0 0.68199835119979291 0.68199835119979291 0 0.73135370988377701 forward_v I I I I #
loop $-1 $-1 $233 $58 #
coedge $-1 $149 $149 $150 $234 reversed $91 $-1 #
coedge $-1 $150 $150 $149 $234 forward $93 $-1 #
coedge $-1 $151 $151 $94 $152 forward $146 $-1 #
edge $-1 $235 0 $235 6.2831853071796004 $151 $236 forward 7 unknown #
loop $-1 $-1 $158 $95 #
plane-surface $-1 -57.032990508743538 25.670929696728145 4.3805172336748797 -0.73135370988377701 0 0.68199835119979291 0.68199835119979291 0 0.73135370988377701 forward_v I I I I #
loop $-1 $-1 $237 $61 #
coedge $-1 $156 $156 $157 $238 reversed $96 $-1 #
coedge $-1 $157 $157 $156 $238 forward $98 $-1 #
coedge $-1 $158 $158 $99 $159 forward $153 $-1 #
edge $-1 $239 0 $239 6.2831853071796004 $158 $240 forward 7 unknown #
face $-1 $241 $242 $24 $-1 $243 reversed single #
loop $-1 $-1 $244 $100 #
plane-surface $-1 -57.032990508743552 0 0 1 0 0 0 0 -1 forward_v I I I I #
coedge $-1 $245 $171 $246 $247 forward $101 $-1 #
coedge $-1 $248 $103 $245 $249 forward $65 $-1 #
coedge $-1 $103 $248 $250 $251 forward $65 $-1 #
coedge $-1 $174 $173 $103 $167 reversed $175 $-1 #
edge $-1 $252 -39.385259740983251 $253 39.385259740983251 $166 $254 forward 7 unknown #
coedge $-1 $105 $104 $255 $256 forward $41 $-1 #
coedge $-1 $257 $258 $104 $170 reversed $242 $-1 #
edge $-1 $177 -57.032990508743552 $259 57.032990508743552 $169 $260 forward 7 unknown #
coedge $-1 $163 $261 $105 $172 reversed $101 $-1 #
edge $-1 $262 -57.032990508743552 $176 57.032990508743552 $171 $263 forward 7 unknown #
coedge $-1 $166 $106 $261 $264 forward $175 $-1 #
coedge $-1 $106 $166 $257 $265 reversed $175 $-1 #
loop $-1 $-1 $173 $241 #
vertex $-1 $107 $266 #
vertex $-1 $107 $267 #
straight-curve $-1 57.032990508743552 0 15.620804378424765 0 1 0 I I #
face $-1 $268 $269 $25 $-1 $270 reversed single #
loop $-1 $-1 $185 $108 #
plane-surface $-1 57.032990508743552 0 0 -1 0 0 0 0 1 forward_v I I I I #
coedge $-1 $271 $272 $183 $273 forward $109 $-1 #
coedge $-1 $274 $111 $182 $273 reversed $69 $-1 #
coedge $-1 $111 $274 $112 $188 reversed $69 $-1 #
coedge $-1 $114 $275 $111 $186 forward $180 $-1 #
edge $-1 $276 -9.1025855232966517 $192 -3.9338521869595748 $185 $277 forward 7 unknown #
coedge $-1 $113 $112 $278 $279 reversed $44 $-1 #
edge $-1 $192 -57.032990508743552 $280 57.032990508743552 $184 $281 forward 7 unknown #
coedge $-1 $282 $283 $113 $190 forward $269 $-1 #
edge $-1 $193 -57.032990508743552 $284 57.032990508743552 $189 $285 forward 7 unknown #
coedge $-1 $275 $114 $283 $286 forward $180 $-1 #
vertex $-1 $115 $287 #
vertex $-1 $286 $288 #
straight-curve $-1 57.032990508743552 -15.509050758101159 -10.452071042087688 0 -1 0 I I #
face $-1 $-1 $289 $26 $-1 $290 reversed single #
loop $-1 $-1 $122 $116 #
plane-surface $-1 0 0 15.620804378424765 0 0 1 1 0 0 forward_v I I I I #
coedge $-1 $291 $292 $293 $294 reversed $117 $-1 #
coedge $-1 $295 $119 $121 $205 forward $73 $-1 #
coedge $-1 $119 $295 $291 $296 forward $73 $-1 #
coedge $-1 $293 $122 $119 $202 forward $196 $-1 #
edge $-1 $208 -10.947158501756791 $297 2.0105452545905127 $201 $298 forward 7 unknown #
coedge $-1 $299 $300 $120 $204 forward $289 $-1 #
edge $-1 $301 -36.706146874119113 $207 -25.465859729369214 $203 $302 forward 7 unknown #
edge $-1 $208 -15.3691531099721 $301 2.0734513383776317e-014 $121 $303 forward 7 unknown #
coedge $-1 $122 $293 $299 $304 forward $196 $-1 #
vertex $-1 $204 $305 #
vertex $-1 $123 $306 #
straight-curve $-1 -70.227784448707609 -15.41546512533993 15.620804378424765 1 0 0 I I #
coedge $-1 $210 $210 $-1 $307 reversed $126 $-1 #
edge $-1 $308 0 $308 6.2831853071796004 $127 $309 forward 7 unknown #
vertex $-1 $130 $310 #
ellipse-curve $-1 -51.792121968574477 -11.713264052097845 10.000660806049813 -0.73135370988377701 0 0.68199835119979291 0.68199835119979291 0 0.73135370988377701 1 I I #
coedge $-1 $214 $214 $-1 $311 reversed $133 $-1 #
edge $-1 $312 0 $312 6.2831853071796004 $134 $313 forward 7 unknown #
vertex $-1 $137 $314 #
ellipse-curve $-1 -51.792121968574477 -6.1599624422347148 10.000660806049813 -0.73135370988377701 0 0.68199835119979291 0.68199835119979291 0 0.73135370988377701 1 I I #
face $-1 $-1 $315 $29 $-1 $316 reversed single #
loop $-1 $-1 $144 $138 #
plane-surface $-1 0 0 15.620804378424765 0 0 1 1 0 0 forward_v I I I I #
coedge $-1 $317 $318 $319 $320 reversed $139 $-1 #
coedge $-1 $321 $141 $143 $228 forward $87 $-1 #
coedge $-1 $141 $321 $317 $322 forward $87 $-1 #
coedge $-1 $319 $144 $141 $225 forward $219 $-1 #
edge $-1 $231 6.3566129701904224 $323 19.314316726537722 $224 $324 forward 7 unknown #
coedge $-1 $325 $326 $142 $227 forward $315 $-1 #
edge $-1 $327 -36.706146874119113 $230 -25.465859729369214 $226 $328 forward 7 unknown #
edge $-1 $231 -15.3691531099721 $327 2.0734513383776317e-014 $143 $329 forward 7 unknown #
coedge $-1 $144 $319 $325 $330 forward $219 $-1 #
vertex $-1 $145 $331 #
vertex $-1 $145 $332 #
straight-curve $-1 -70.227784448707609 19.192077818554495 15.620804378424765 1 0 0 I I #
coedge $-1 $233 $233 $-1 $333 reversed $148 $-1 #
edge $-1 $334 0 $334 6.2831853071796004 $149 $335 forward 7 unknown #
vertex $-1 $152 $336 #
ellipse-curve $-1 -51.792121968574477 22.894278891796581 10.000660806049813 -0.73135370988377701 0 0.68199835119979291 0.68199835119979291 0 0.73135370988377701 1 I I #
coedge $-1 $237 $237 $-1 $337 reversed $155 $-1 #
edge $-1 $338 0 $338 6.2831853071796004 $156 $339 forward 7 unknown #
vertex $-1 $159 $340 #
ellipse-curve $-1 -51.792121968574477 28.447580501659708 10.000660806049813 -0.73135370988377701 0 0.68199835119979291 0.68199835119979291 0 0.73135370988377701 1 I I #
face $-1 $-1 $175 $24 $-1 $341 reversed single #
loop $-1 $-1 $257 $160 #
plane-surface $-1 0 39.385259740983251 0 0 -1 0 0 0 -1 forward_v I I I I #
coedge $-1 $342 $255 $258 $343 forward $161 $-1 #
coedge $-1 $261 $163 $164 $249 reversed $101 $-1 #
coedge $-1 $255 $342 $163 $247 reversed $161 $-1 #
edge $-1 $262 -15.620804378424765 $344 15.620804378424765 $246 $345 forward 7 unknown #
coedge $-1 $165 $164 $342 $346 forward $65 $-1 #
edge $-1 $253 -57.032990508743552 $344 57.032990508743552 $245 $347 forward 7 unknown #
coedge $-1 $258 $257 $165 $251 reversed $242 $-1 #
edge $-1 $348 -57.032990508743552 $252 57.032990508743552 $250 $349 forward 7 unknown #
vertex $-1 $167 $350 #
vertex $-1 $264 $351 #
straight-curve $-1 57.032990508743552 0 -15.620804378424765 0 -1 0 I I #
coedge $-1 $244 $246 $168 $256 reversed $161 $-1 #
edge $-1 $259 -39.385259740983251 $262 39.385259740983251 $255 $352 forward 7 unknown #
coedge $-1 $250 $169 $174 $265 forward $242 $-1 #
coedge $-1 $169 $250 $244 $343 reversed $242 $-1 #
vertex $-1 $170 $353 #
straight-curve $-1 0 39.385259740983251 15.620804378424765 -1 0 0 I I #
coedge $-1 $171 $245 $173 $264 reversed $101 $-1 #
vertex $-1 $256 $354 #
straight-curve $-1 0 -39.385259740983251 15.620804378424765 1 0 0 I I #
edge $-1 $176 -15.620804378424765 $253 15.620804378424765 $173 $355 forward 7 unknown #
edge $-1 $177 -15.620804378424765 $252 15.620804378424765 $174 $356 forward 7 unknown #
point $-1 57.032990508743552 -39.385259740983251 15.620804378424765 #
point $-1 57.032990508743552 39.385259740983251 15.620804378424765 #
face $-1 $-1 $357 $25 $-1 $358 reversed single #
loop $-1 $-1 $189 $179 #
plane-surface $-1 0 -39.385259740983251 0 0 1 0 0 0 1 forward_v I I I I #
coedge $-1 $359 $182 $275 $360 forward $109 $-1 #
coedge $-1 $182 $359 $361 $362 forward $109 $-1 #
edge $-1 $363 -57.032990508743552 $276 57.032990508743552 $182 $364 forward 7 unknown #
coedge $-1 $184 $183 $365 $366 reversed $69 $-1 #
coedge $-1 $185 $191 $271 $360 reversed $180 $-1 #
vertex $-1 $360 $367 #
straight-curve $-1 57.032990508743552 -22.650943291421385 -6.5182188551281133 0 0 1 I I #
coedge $-1 $365 $368 $187 $279 forward $357 $-1 #
edge $-1 $284 -23.87620898288209 $280 -7.1418925333202257 $278 $369 forward 7 unknown #
vertex $-1 $279 $370 #
straight-curve $-1 0 -22.650943291421385 -10.452071042087688 -1 0 0 I I #
coedge $-1 $371 $189 $368 $372 forward $269 $-1 #
coedge $-1 $189 $371 $191 $286 reversed $269 $-1 #
vertex $-1 $372 $373 #
straight-curve $-1 0 -39.385259740983251 -10.452071042087688 -1 0 0 I I #
edge $-1 $193 10.452071042087688 $374 15.620804378424765 $191 $375 forward 7 unknown #
point $-1 57.032990508743552 -22.650943291421385 -10.452071042087688 #
point $-1 57.032990508743552 -39.385259740983251 -10.452071042087688 #
loop $-1 $-1 $203 $195 #
plane-surface $-1 -57.032990508743552 0 0 1 0 0 0 0 -1 forward_v I I I I #
coedge $-1 $292 $198 $200 $296 reversed $117 $-1 #
coedge $-1 $198 $291 $376 $377 reversed $117 $-1 #
coedge $-1 $206 $201 $198 $294 forward $196 $-1 #
edge $-1 $297 -23.676531020302214 $378 -13.194793939964057 $293 $379 forward 7 unknown #
coedge $-1 $200 $199 $300 $380 reversed $73 $-1 #
edge $-1 $381 -2.0734513383776317e-014 $297 15.3691531099721 $291 $382 forward 7 unknown #
vertex $-1 $202 $383 #
straight-curve $-1 -46.551253428405396 -4.468306623583139 15.620804378424765 0 1 0 I I #
coedge $-1 $376 $203 $206 $304 reversed $289 $-1 #
coedge $-1 $203 $376 $295 $380 forward $289 $-1 #
vertex $-1 $204 $384 #
straight-curve $-1 -57.032990508743552 -15.41546512533993 41.086664107793979 0 0 1 I I #
straight-curve $-1 -57.032990508743538 -15.41546512533993 4.3805172336748797 -0.68199835119979291 0 -0.73135370988377701 I I #
edge $-1 $378 2.4577613689926263 $207 15.41546512533993 $299 $385 forward 7 unknown #
point $-1 -57.032990508743552 -15.41546512533993 15.620804378424765 #
point $-1 -46.551253428405396 -15.41546512533993 15.620804378424765 #
edge $-1 $386 1 $386 0 $210 $-1 forward 7 unknown #
vertex $-1 $211 $387 #
ellipse-curve $-1 -49.239939244786207 -11.713264052097845 7.6207119713596887 -0.73135370988377701 0 0.68199835119979291 0.68199835119979291 0 0.73135370988377701 1 I I #
point $-1 -51.11012361737469 -11.713264052097845 10.732014515933596 #
edge $-1 $388 1 $388 0 $214 $-1 forward 7 unknown #
vertex $-1 $215 $389 #
ellipse-curve $-1 -49.239939244786207 -6.1599624422347148 7.6207119713596887 -0.73135370988377701 0 0.68199835119979291 0.68199835119979291 0 0.73135370988377701 1 I I #
point $-1 -51.11012361737469 -6.1599624422347148 10.732014515933596 #
loop $-1 $-1 $226 $218 #
plane-surface $-1 -57.032990508743552 0 0 1 0 0 0 0 -1 forward_v I I I I #
coedge $-1 $318 $221 $223 $322 reversed $139 $-1 #
coedge $-1 $221 $317 $390 $391 reversed $139 $-1 #
coedge $-1 $229 $224 $221 $320 forward $219 $-1 #
edge $-1 $323 -23.676531020302214 $392 -13.194793939964057 $319 $393 forward 7 unknown #
coedge $-1 $223 $222 $326 $394 reversed $87 $-1 #
edge $-1 $395 -2.0734513383776317e-014 $323 15.3691531099721 $317 $396 forward 7 unknown #
vertex $-1 $225 $397 #
straight-curve $-1 -46.551253428405396 12.835464848364072 15.620804378424765 0 1 0 I I #
coedge $-1 $390 $226 $229 $330 reversed $315 $-1 #
coedge $-1 $226 $390 $321 $394 forward $315 $-1 #
vertex $-1 $227 $398 #
straight-curve $-1 -57.032990508743552 19.192077818554495 41.086664107793979 0 0 1 I I #
straight-curve $-1 -57.032990508743538 19.192077818554495 4.3805172336748797 -0.68199835119979291 0 -0.73135370988377701 I I #
edge $-1 $392 -32.149781574901795 $230 -19.192077818554495 $325 $399 forward 7 unknown #
point $-1 -57.032990508743552 19.192077818554495 15.620804378424765 #
point $-1 -46.551253428405396 19.192077818554495 15.620804378424765 #
edge $-1 $400 1 $400 0 $233 $-1 forward 7 unknown #
vertex $-1 $234 $401 #
ellipse-curve $-1 -49.239939244786207 22.894278891796581 7.6207119713596887 -0.73135370988377701 0 0.68199835119979291 0.68199835119979291 0 0.73135370988377701 1 I I #
point $-1 -51.11012361737469 22.894278891796581 10.732014515933596 #
edge $-1 $402 1 $402 0 $237 $-1 forward 7 unknown #
vertex $-1 $238 $403 #
ellipse-curve $-1 -49.239939244786207 28.447580501659708 7.6207119713596887 -0.73135370988377701 0 0.68199835119979291 0.68199835119979291 0 0.73135370988377701 1 I I #
point $-1 -51.11012361737469 28.447580501659708 10.732014515933596 #
plane-surface $-1 57.032990508743552 0 0 -1 0 0 0 0 1 forward_v I I I I #
coedge $-1 $246 $244 $248 $346 reversed $161 $-1 #
edge $-1 $259 -15.620804378424765 $348 15.620804378424765 $258 $404 forward 7 unknown #
vertex $-1 $346 $405 #
straight-curve $-1 -57.032990508743552 -39.385259740983251 0 0 0 -1 I I #
edge $-1 $344 -39.385259740983251 $348 39.385259740983251 $342 $406 forward 7 unknown #
straight-curve $-1 0 -39.385259740983251 -15.620804378424765 -1 0 0 I I #
vertex $-1 $251 $407 #
straight-curve $-1 0 39.385259740983251 -15.620804378424765 1 0 0 I I #
point $-1 57.032990508743552 39.385259740983251 -15.620804378424765 #
point $-1 57.032990508743552 -39.385259740983251 -15.620804378424765 #
straight-curve $-1 -57.032990508743552 0 15.620804378424765 0 -1 0 I I #
point $-1 -57.032990508743552 39.385259740983251 15.620804378424765 #
point $-1 -57.032990508743552 -39.385259740983251 15.620804378424765 #
straight-curve $-1 57.032990508743552 -39.385259740983251 0 0 0 -1 I I #
straight-curve $-1 57.032990508743552 39.385259740983251 0 0 0 -1 I I #
loop $-1 $-1 $365 $268 #
plane-surface $-1 -57.032990508743552 0 0 1 0 0 0 0 -1 forward_v I I I I #
coedge $-1 $272 $271 $371 $408 forward $109 $-1 #
edge $-1 $276 22.650943291421385 $374 39.385259740983251 $275 $409 forward 7 unknown #
coedge $-1 $368 $365 $272 $362 reversed $357 $-1 #
edge $-1 $410 -39.385259740983251 $363 -22.650943291421385 $361 $411 forward 7 unknown #
vertex $-1 $366 $412 #
straight-curve $-1 0 -22.650943291421385 -15.620804378424765 1 0 0 I I #
coedge $-1 $361 $278 $274 $366 forward $357 $-1 #
edge $-1 $280 3.9338521869595748 $363 9.1025855232966517 $365 $413 forward 7 unknown #
point $-1 57.032990508743552 -22.650943291421385 -15.620804378424765 #
coedge $-1 $278 $361 $282 $372 reversed $357 $-1 #
straight-curve $-1 -57.032990508743552 -15.509050758101159 -10.452071042087688 0 1 0 I I #
point $-1 -57.032990508743552 -22.650943291421385 -10.452071042087688 #
coedge $-1 $283 $282 $359 $408 reversed $269 $-1 #
edge $-1 $284 10.452071042087688 $410 15.620804378424765 $368 $414 forward 7 unknown #
point $-1 -57.032990508743552 -39.385259740983251 -10.452071042087688 #
vertex $-1 $286 $415 #
straight-curve $-1 57.032990508743552 -39.385259740983251 0 0 0 -1 I I #
coedge $-1 $300 $299 $292 $377 forward $289 $-1 #
edge $-1 $378 25.465859729369214 $381 36.706146874119113 $376 $416 forward 7 unknown #
vertex $-1 $304 $417 #
straight-curve $-1 -70.227784448707609 -2.4577613689926263 15.620804378424765 -1 0 0 I I #
edge $-1 $381 -2.0105452545905127 $301 10.947158501756791 $300 $418 forward 7 unknown #
vertex $-1 $380 $419 #
straight-curve $-1 -57.032990508743538 -2.4577613689926263 4.3805172336748797 0.68199835119979291 0 0.73135370988377701 I I #
point $-1 -46.551253428405396 -2.4577613689926263 15.620804378424765 #
point $-1 -57.032990508743552 -15.41546512533993 4.3805172336748646 #
straight-curve $-1 -57.032990508743552 0 15.620804378424765 0 -1 0 I I #
vertex $-1 $307 $420 #
point $-1 -48.557940893586412 -11.713264052097845 8.3520656812434666 #
vertex $-1 $311 $421 #
point $-1 -48.557940893586412 -6.1599624422347148 8.3520656812434666 #
coedge $-1 $326 $325 $318 $391 forward $315 $-1 #
edge $-1 $392 25.465859729369214 $395 36.706146874119113 $390 $422 forward 7 unknown #
vertex $-1 $330 $423 #
straight-curve $-1 -70.227784448707609 32.149781574901795 15.620804378424765 -1 0 0 I I #
edge $-1 $395 -19.314316726537722 $327 -6.3566129701904224 $326 $424 forward 7 unknown #
vertex $-1 $394 $425 #
straight-curve $-1 -57.032990508743538 32.149781574901795 4.3805172336748797 0.68199835119979291 0 0.73135370988377701 I I #
point $-1 -46.551253428405396 32.149781574901795 15.620804378424765 #
point $-1 -57.032990508743552 19.192077818554495 4.3805172336748646 #
straight-curve $-1 -57.032990508743552 0 15.620804378424765 0 -1 0 I I #
vertex $-1 $333 $426 #
point $-1 -48.557940893586412 22.894278891796581 8.3520656812434666 #
vertex $-1 $337 $427 #
point $-1 -48.557940893586412 28.447580501659708 8.3520656812434666 #
straight-curve $-1 -57.032990508743552 39.385259740983251 0 0 0 -1 I I #
point $-1 -57.032990508743552 -39.385259740983251 -15.620804378424765 #
straight-curve $-1 -57.032990508743552 0 -15.620804378424765 0 1 0 I I #
point $-1 -57.032990508743552 39.385259740983251 -15.620804378424765 #
edge $-1 $374 -57.032990508743552 $410 57.032990508743552 $371 $428 forward 7 unknown #
straight-curve $-1 57.032990508743552 0 -15.620804378424765 0 -1 0 I I #
vertex $-1 $362 $429 #
straight-curve $-1 -57.032990508743552 0 -15.620804378424765 0 1 0 I I #
point $-1 -57.032990508743552 -22.650943291421385 -15.620804378424765 #
straight-curve $-1 -57.032990508743552 -22.650943291421385 -6.5182188551281133 0 0 -1 I I #
straight-curve $-1 -57.032990508743552 -39.385259740983251 0 0 0 -1 I I #
point $-1 57.032990508743552 -39.385259740983251 -15.620804378424765 #
straight-curve $-1 -57.032990508743552 -2.4577613689926263 41.086664107793979 0 0 -1 I I #
point $-1 -57.032990508743552 -2.4577613689926263 15.620804378424765 #
straight-curve $-1 -57.032990508743552 -4.468306623583139 4.3805172336748672 0 -1 0 I I #
point $-1 -57.032990508743552 -2.4577613689926263 4.3805172336748646 #
point $-1 -48.50858553490243 -11.713264052097845 6.9387136201598958 #
point $-1 -48.50858553490243 -6.1599624422347148 6.9387136201598958 #
straight-curve $-1 -57.032990508743552 32.149781574901795 41.086664107793979 0 0 -1 I I #
point $-1 -57.032990508743552 32.149781574901795 15.620804378424765 #
straight-curve $-1 -57.032990508743552 12.835464848364072 4.3805172336748672 0 -1 0 I I #
point $-1 -57.032990508743552 32.149781574901795 4.3805172336748646 #
point $-1 -48.50858553490243 22.894278891796581 6.9387136201598958 #
point $-1 -48.50858553490243 28.447580501659708 6.9387136201598958 #
straight-curve $-1 0 -39.385259740983251 -15.620804378424765 -1 0 0 I I #
point $-1 -57.032990508743552 -39.385259740983251 -15.620804378424765 #
End-of-ACIS-data 