500 0 10 0           
7 Unknown 11 ACIS 5.0 NT 24 Thu Mar 25 20:56:05 1999 
-1 9.9999999999999995e-007 1e-010 
body $-1 $10 $-1 $11 #
body $-1 $12 $-1 $13 #
body $-1 $14 $-1 $15 #
body $-1 $16 $-1 $17 #
body $-1 $18 $-1 $19 #
body $-1 $20 $-1 $21 #
body $-1 $22 $-1 $23 #
body $-1 $24 $-1 $25 #
body $-1 $26 $-1 $27 #
body $-1 $28 $-1 $29 #
lump $-1 $-1 $30 $0 #
transform $-1 1 0 0 0 1 0 0 0 1 65.127719962157045 40.136420797870478 17.533394602581797 1 rotate no_reflect no_shear #
lump $-1 $-1 $31 $1 #
transform $-1 1 0 0 0 1 0 0 0 1 65.127719962157045 40.136420797870478 17.533394602581797 1 rotate no_reflect no_shear #
lump $-1 $-1 $32 $2 #
transform $-1 1 0 0 0 1 0 0 0 1 65.127719962157045 40.136420797870478 17.533394602581797 1 rotate no_reflect no_shear #
lump $-1 $-1 $33 $3 #
transform $-1 1 0 0 0 1 0 0 0 1 65.127719962157045 40.136420797870478 17.533394602581797 1 rotate no_reflect no_shear #
lump $-1 $-1 $34 $4 #
transform $-1 1 0 0 0 1 0 0 0 1 65.127719962157045 40.136420797870478 17.533394602581797 1 rotate no_reflect no_shear #
lump $-1 $-1 $35 $5 #
transform $-1 1 0 0 0 1 0 0 0 1 65.127719962157045 40.136420797870478 17.533394602581797 1 rotate no_reflect no_shear #
lump $-1 $-1 $36 $6 #
transform $-1 1 0 0 0 1 0 0 0 1 65.127719962157045 40.136420797870478 17.533394602581797 1 rotate no_reflect no_shear #
lump $-1 $-1 $37 $7 #
transform $-1 1 0 0 0 1 0 0 0 1 65.127719962157045 40.136420797870478 17.533394602581797 1 rotate no_reflect no_shear #
lump $-1 $-1 $38 $8 #
transform $-1 1 0 0 0 1 0 0 0 1 65.127719962157045 40.136420797870478 17.533394602581797 1 rotate no_reflect no_shear #
lump $-1 $-1 $39 $9 #
transform $-1 1 0 0 0 1 0 0 0 1 65.127719962157045 40.136420797870478 17.533394602581797 1 rotate no_reflect no_shear #
shell $-1 $-1 $-1 $40 $-1 $10 #
shell $-1 $-1 $-1 $41 $-1 $12 #
shell $-1 $-1 $-1 $42 $-1 $14 #
shell $-1 $-1 $-1 $43 $-1 $16 #
shell $-1 $-1 $-1 $44 $-1 $18 #
shell $-1 $-1 $-1 $45 $-1 $20 #
shell $-1 $-1 $-1 $46 $-1 $22 #
shell $-1 $-1 $-1 $47 $-1 $24 #
shell $-1 $-1 $-1 $48 $-1 $26 #
shell $-1 $-1 $-1 $49 $-1 $28 #
face $-1 $50 $51 $30 $-1 $52 forward single #
face $-1 $53 $54 $31 $-1 $55 forward single #
face $-1 $56 $57 $32 $-1 $58 reversed single #
face $-1 $59 $60 $33 $-1 $61 forward single #
face $-1 $62 $63 $34 $-1 $64 forward single #
face $-1 $65 $66 $35 $-1 $67 forward single #
face $-1 $68 $69 $36 $-1 $70 reversed single #
face $-1 $71 $72 $37 $-1 $73 forward single #
face $-1 $74 $75 $38 $-1 $76 forward single #
face $-1 $77 $78 $39 $-1 $79 forward single #
face $-1 $80 $81 $30 $-1 $82 reversed single #
loop $-1 $-1 $83 $40 #
plane-surface $-1 0 0 17.533394602581797 0 0 1 1 0 0 forward_v I I I I #
face $-1 $84 $85 $31 $-1 $86 reversed single #
loop $-1 $-1 $87 $41 #
plane-surface $-1 0 -28.95162186350651 13.2009429107276 0 0 1 1 0 0 forward_v I I I I #
face $-1 $88 $89 $32 $-1 $90 reversed single #
loop $-1 $-1 $91 $42 #
plane-surface $-1 -145.32097728081624 28.693331306691547 106.97826605269466 0 1 0 -0.61566148304635926 0 0.78801074757464917 forward_v I I I I #
face $-1 $92 $93 $33 $-1 $94 forward single #
loop $-1 $95 $96 $43 #
cone-surface $-1 -56.373672865171898 30.981949204927339 10.540481658639122 0.61566148304635926 0 -0.78801074757464917 0.19700268689366229 0 0.15391537076158981 1 I I 0 1 0.25 forward I I I I #
face $-1 $97 $98 $34 $-1 $99 forward single #
loop $-1 $100 $101 $44 #
cone-surface $-1 -56.373672865171898 34.414876052281009 10.540481658639122 0.61566148304635926 0 -0.78801074757464917 0.19700268689366229 0 0.15391537076158981 1 I I 0 1 0.25 forward I I I I #
face $-1 $102 $103 $35 $-1 $104 forward single #
loop $-1 $105 $106 $45 #
cone-surface $-1 -56.373672865171898 37.847802899634694 10.540481658639122 0.61566148304635926 0 -0.78801074757464917 0.19700268689366229 0 0.15391537076158981 1 I I 0 1 0.25 forward I I I I #
face $-1 $107 $108 $36 $-1 $109 reversed single #
loop $-1 $-1 $110 $46 #
plane-surface $-1 36.311083760766707 28.080694266102505 193.47972052085558 0 -1 0 -0.5877852598018023 0 -0.80901698891910034 forward_v I I I I #
face $-1 $111 $112 $37 $-1 $113 forward single #
loop $-1 $114 $115 $47 #
cone-surface $-1 60.455627109608606 18.20274463865443 13.783750996180519 -0.5877852598018023 0 -0.80901698891910034 0.40450849445955017 0 -0.29389262990090115 1 I I 0 1 0.5 forward I I I I #
face $-1 $116 $117 $38 $-1 $118 forward single #
loop $-1 $119 $120 $48 #
cone-surface $-1 60.455627109608606 21.906975748947453 13.783750996180519 -0.5877852598018023 0 -0.80901698891910034 0.40450849445955017 0 -0.29389262990090115 1 I I 0 1 0.5 forward I I I I #
face $-1 $121 $122 $39 $-1 $123 forward single #
loop $-1 $124 $125 $49 #
cone-surface $-1 60.455627109608606 25.611206859240475 13.783750996180519 -0.5877852598018023 0 -0.80901698891910034 0.40450849445955017 0 -0.29389262990090115 1 I I 0 1 0.5 forward I I I I #
face $-1 $126 $127 $30 $-1 $128 reversed single #
loop $-1 $-1 $129 $50 #
plane-surface $-1 0 0 -17.533394602581797 0 0 1 1 0 0 forward_v I I I I #
coedge $-1 $130 $131 $132 $133 forward $51 $-1 #
face $-1 $134 $135 $31 $-1 $136 reversed single #
loop $-1 $-1 $137 $53 #
plane-surface $-1 0 -28.95162186350651 6.3066967869266914 0 0 1 1 0 0 forward_v I I I I #
coedge $-1 $138 $139 $140 $141 reversed $54 $-1 #
face $-1 $142 $143 $32 $-1 $144 forward single #
loop $-1 $-1 $145 $56 #
plane-surface $-1 -65.127719962157073 34.414876052281009 4.335579462271113 -0.61566148304635926 0 0.78801074757464917 0.78801074757464917 0 0.61566148304635926 forward_v I I I I #
coedge $-1 $146 $147 $148 $149 reversed $57 $-1 #
face $-1 $-1 $150 $33 $-1 $151 forward single #
loop $-1 $152 $153 $59 #
cone-surface $-1 -55.988884438267924 30.981949204927339 10.047974941404966 0.61566148304635926 0 -0.78801074757464917 0.098501343446831147 0 0.076957685380794907 1 I I -0.70710678118654746 0.70710678118654746 0.125 forward I I I I #
loop $-1 $-1 $154 $43 #
coedge $-1 $96 $96 $155 $156 reversed $60 $-1 #
face $-1 $-1 $157 $34 $-1 $158 forward single #
loop $-1 $159 $160 $62 #
cone-surface $-1 -55.988884438267924 34.414876052281009 10.047974941404966 0.61566148304635926 0 -0.78801074757464917 0.098501343446831147 0 0.076957685380794907 1 I I -0.70710678118654746 0.70710678118654746 0.125 forward I I I I #
loop $-1 $-1 $161 $44 #
coedge $-1 $101 $101 $162 $163 reversed $63 $-1 #
face $-1 $-1 $164 $35 $-1 $165 forward single #
loop $-1 $166 $167 $65 #
cone-surface $-1 -55.988884438267924 37.847802899634694 10.047974941404966 0.61566148304635926 0 -0.78801074757464917 0.098501343446831147 0 0.076957685380794907 1 I I -0.70710678118654746 0.70710678118654746 0.125 forward I I I I #
loop $-1 $-1 $168 $45 #
coedge $-1 $106 $106 $169 $170 reversed $66 $-1 #
face $-1 $171 $172 $36 $-1 $173 reversed single #
loop $-1 $-1 $174 $68 #
plane-surface $-1 -40.251143835744301 21.90697574894746 88.100856722954234 0.5877852598018023 0 0.80901698891910034 0.80901698891910034 0 -0.5877852598018023 forward_v I I I I #
coedge $-1 $175 $176 $177 $178 reversed $69 $-1 #
face $-1 $-1 $179 $37 $-1 $180 forward single #
loop $-1 $181 $182 $71 #
cone-surface $-1 59.762131270992384 18.20274463865443 12.82923588061875 -0.5877852598018023 0 -0.80901698891910034 0.20225424722977509 0 -0.14694631495045057 1 I I -0.70710678118654746 0.70710678118654746 0.25 forward I I I I #
loop $-1 $-1 $183 $47 #
coedge $-1 $115 $115 $184 $185 reversed $72 $-1 #
face $-1 $-1 $186 $38 $-1 $187 forward single #
loop $-1 $188 $189 $74 #
cone-surface $-1 59.762131270992384 21.906975748947453 12.82923588061875 -0.5877852598018023 0 -0.80901698891910034 0.20225424722977509 0 -0.14694631495045057 1 I I -0.70710678118654746 0.70710678118654746 0.25 forward I I I I #
loop $-1 $-1 $190 $48 #
coedge $-1 $120 $120 $191 $192 reversed $75 $-1 #
face $-1 $-1 $193 $39 $-1 $194 forward single #
loop $-1 $195 $196 $77 #
cone-surface $-1 59.762131270992384 25.611206859240475 12.82923588061875 -0.5877852598018023 0 -0.80901698891910034 0.20225424722977509 0 -0.14694631495045057 1 I I -0.70710678118654746 0.70710678118654746 0.25 forward I I I I #
loop $-1 $-1 $197 $49 #
coedge $-1 $125 $125 $198 $199 reversed $78 $-1 #
face $-1 $200 $201 $30 $-1 $202 reversed single #
loop $-1 $-1 $203 $80 #
plane-surface $-1 0 -40.136420797870478 0 0 1 0 0 0 1 forward_v I I I I #
coedge $-1 $204 $205 $206 $207 forward $81 $-1 #
coedge $-1 $208 $83 $209 $210 forward $51 $-1 #
coedge $-1 $83 $208 $211 $212 forward $51 $-1 #
coedge $-1 $213 $214 $83 $133 reversed $215 $-1 #
edge $-1 $216 -40.136420797870478 $217 40.136420797870478 $132 $218 forward 7 unknown #
face $-1 $219 $220 $31 $-1 $221 reversed single #
loop $-1 $-1 $222 $84 #
plane-surface $-1 0 -17.766822929142542 9.7538198488271455 0 -1 0 0 0 -1 forward_v I I I I #
coedge $-1 $223 $224 $225 $226 reversed $85 $-1 #
coedge $-1 $227 $87 $228 $229 forward $54 $-1 #
coedge $-1 $87 $227 $230 $231 reversed $54 $-1 #
coedge $-1 $232 $233 $87 $141 forward $234 $-1 #
edge $-1 $235 3.2910119973892868 $236 25.660609866117223 $140 $237 forward 7 unknown #
face $-1 $238 $239 $32 $-1 $240 reversed single #
loop $-1 $-1 $148 $88 #
plane-surface $-1 0 0 17.533394602581797 0 0 1 1 0 0 forward_v I I I I #
coedge $-1 $241 $242 $243 $244 reversed $89 $-1 #
coedge $-1 $147 $91 $245 $246 reversed $57 $-1 #
coedge $-1 $91 $146 $241 $247 reversed $57 $-1 #
coedge $-1 $243 $248 $91 $149 forward $143 $-1 #
edge $-1 $249 7.5327686782510739 $250 24.425201389174958 $148 $251 forward 7 unknown #
loop $-1 $-1 $155 $92 #
plane-surface $-1 -65.127719962157073 34.414876052281009 4.335579462271113 -0.61566148304635926 0 0.78801074757464917 0.78801074757464917 0 0.61566148304635926 forward_v I I I I #
loop $-1 $-1 $252 $59 #
coedge $-1 $153 $153 $154 $253 reversed $93 $-1 #
coedge $-1 $154 $154 $153 $253 forward $95 $-1 #
coedge $-1 $155 $155 $96 $156 forward $150 $-1 #
edge $-1 $254 0 $254 6.2831853071796004 $155 $255 forward 7 unknown #
loop $-1 $-1 $162 $97 #
plane-surface $-1 -65.127719962157073 34.414876052281009 4.335579462271113 -0.61566148304635926 0 0.78801074757464917 0.78801074757464917 0 0.61566148304635926 forward_v I I I I #
loop $-1 $-1 $256 $62 #
coedge $-1 $160 $160 $161 $257 reversed $98 $-1 #
coedge $-1 $161 $161 $160 $257 forward $100 $-1 #
coedge $-1 $162 $162 $101 $163 forward $157 $-1 #
edge $-1 $258 0 $258 6.2831853071796004 $162 $259 forward 7 unknown #
loop $-1 $-1 $169 $102 #
plane-surface $-1 -65.127719962157073 34.414876052281009 4.335579462271113 -0.61566148304635926 0 0.78801074757464917 0.78801074757464917 0 0.61566148304635926 forward_v I I I I #
loop $-1 $-1 $260 $65 #
coedge $-1 $167 $167 $168 $261 reversed $103 $-1 #
coedge $-1 $168 $168 $167 $261 forward $105 $-1 #
coedge $-1 $169 $169 $106 $170 forward $164 $-1 #
edge $-1 $262 0 $262 6.2831853071796004 $169 $263 forward 7 unknown #
face $-1 $264 $265 $36 $-1 $266 reversed single #
loop $-1 $-1 $267 $107 #
plane-surface $-1 36.311083760766707 15.733257231792415 193.47972052085558 0 1 0 0.5877852598018023 0 0.80901698891910034 forward_v I I I I #
coedge $-1 $268 $269 $270 $271 reversed $108 $-1 #
coedge $-1 $176 $110 $272 $273 reversed $69 $-1 #
coedge $-1 $110 $175 $268 $274 reversed $69 $-1 #
coedge $-1 $270 $275 $110 $178 forward $276 $-1 #
edge $-1 $277 -46.972178081773691 $278 -38.721091424008335 $177 $279 forward 7 unknown #
loop $-1 $-1 $184 $111 #
plane-surface $-1 -40.251143835744301 21.90697574894746 88.100856722954234 0.5877852598018023 0 0.80901698891910034 0.80901698891910034 0 -0.5877852598018023 forward_v I I I I #
loop $-1 $-1 $280 $71 #
coedge $-1 $182 $182 $183 $281 reversed $112 $-1 #
coedge $-1 $183 $183 $182 $281 forward $114 $-1 #
coedge $-1 $184 $184 $115 $185 forward $179 $-1 #
edge $-1 $282 0 $282 6.2831853071796004 $184 $283 forward 7 unknown #
loop $-1 $-1 $191 $116 #
plane-surface $-1 -40.251143835744301 21.90697574894746 88.100856722954234 0.5877852598018023 0 0.80901698891910034 0.80901698891910034 0 -0.5877852598018023 forward_v I I I I #
loop $-1 $-1 $284 $74 #
coedge $-1 $189 $189 $190 $285 reversed $117 $-1 #
coedge $-1 $190 $190 $189 $285 forward $119 $-1 #
coedge $-1 $191 $191 $120 $192 forward $186 $-1 #
edge $-1 $286 0 $286 6.2831853071796004 $191 $287 forward 7 unknown #
loop $-1 $-1 $198 $121 #
plane-surface $-1 -40.251143835744301 21.90697574894746 88.100856722954234 0.5877852598018023 0 0.80901698891910034 0.80901698891910034 0 -0.5877852598018023 forward_v I I I I #
loop $-1 $-1 $288 $77 #
coedge $-1 $196 $196 $197 $289 reversed $122 $-1 #
coedge $-1 $197 $197 $196 $289 forward $124 $-1 #
coedge $-1 $198 $198 $125 $199 forward $193 $-1 #
edge $-1 $290 0 $290 6.2831853071796004 $198 $291 forward 7 unknown #
face $-1 $292 $293 $30 $-1 $294 reversed single #
loop $-1 $-1 $295 $126 #
plane-surface $-1 -65.127719962157045 0 0 1 0 0 0 0 -1 forward_v I I I I #
coedge $-1 $296 $211 $297 $298 forward $127 $-1 #
coedge $-1 $299 $129 $296 $300 forward $81 $-1 #
coedge $-1 $129 $299 $301 $302 forward $81 $-1 #
coedge $-1 $214 $213 $129 $207 reversed $215 $-1 #
edge $-1 $303 -40.136420797870478 $304 40.136420797870478 $206 $305 forward 7 unknown #
coedge $-1 $131 $130 $306 $307 forward $51 $-1 #
coedge $-1 $308 $309 $130 $210 reversed $293 $-1 #
edge $-1 $217 -65.127719962157045 $310 65.127719962157045 $209 $311 forward 7 unknown #
coedge $-1 $203 $312 $131 $212 reversed $127 $-1 #
edge $-1 $313 -65.127719962157045 $216 65.127719962157045 $211 $314 forward 7 unknown #
coedge $-1 $206 $132 $312 $315 forward $215 $-1 #
coedge $-1 $132 $206 $308 $316 reversed $215 $-1 #
loop $-1 $-1 $213 $292 #
vertex $-1 $133 $317 #
vertex $-1 $133 $318 #
straight-curve $-1 65.127719962157045 0 17.533394602581797 0 1 0 I I #
face $-1 $319 $320 $31 $-1 $321 reversed single #
loop $-1 $-1 $322 $134 #
plane-surface $-1 -65.127719962157045 0 0 1 0 0 0 0 -1 forward_v I I I I #
coedge $-1 $323 $228 $233 $324 reversed $135 $-1 #
coedge $-1 $325 $137 $326 $327 reversed $85 $-1 #
coedge $-1 $137 $325 $323 $328 forward $85 $-1 #
coedge $-1 $233 $232 $137 $226 forward $234 $-1 #
edge $-1 $329 -25.660609866117223 $330 -3.2910119973892868 $225 $331 forward 7 unknown #
coedge $-1 $139 $138 $322 $332 reversed $54 $-1 #
coedge $-1 $222 $333 $138 $229 reversed $135 $-1 #
edge $-1 $235 -65.127719962157045 $334 65.127719962157045 $228 $335 forward 7 unknown #
coedge $-1 $336 $337 $139 $231 forward $320 $-1 #
edge $-1 $236 -65.127719962157045 $338 65.127719962157045 $230 $339 forward 7 unknown #
coedge $-1 $225 $140 $337 $340 forward $234 $-1 #
coedge $-1 $140 $225 $222 $324 forward $234 $-1 #
loop $-1 $-1 $140 $319 #
vertex $-1 $141 $341 #
vertex $-1 $340 $342 #
straight-curve $-1 65.127719962157045 -14.475810931753255 13.2009429107276 0 -1 0 I I #
face $-1 $-1 $343 $32 $-1 $344 reversed single #
loop $-1 $-1 $345 $142 #
plane-surface $-1 0 40.136420797870478 0 0 -1 0 0 0 -1 forward_v I I I I #
coedge $-1 $346 $145 $147 $247 forward $89 $-1 #
coedge $-1 $145 $346 $345 $347 reversed $89 $-1 #
coedge $-1 $348 $148 $145 $244 forward $143 $-1 #
edge $-1 $250 11.485893280551043 $349 22.928982771729967 $243 $350 forward 7 unknown #
coedge $-1 $351 $352 $146 $246 forward $343 $-1 #
edge $-1 $353 -49.153553564076198 $249 -35.955738423765538 $245 $354 forward 7 unknown #
edge $-1 $250 -21.43680497114498 $353 -3.606704357266089e-014 $147 $355 forward 7 unknown #
coedge $-1 $148 $348 $351 $356 forward $143 $-1 #
vertex $-1 $246 $357 #
vertex $-1 $149 $358 #
straight-curve $-1 -72.660488640408118 28.693331306691547 17.533394602581801 1 0 0 I I #
coedge $-1 $252 $252 $-1 $359 reversed $152 $-1 #
edge $-1 $360 0 $360 6.2831853071796004 $153 $361 forward 7 unknown #
vertex $-1 $156 $362 #
ellipse-curve $-1 -56.681503606695095 30.981949204927339 10.934487032426471 -0.61566148304635926 0 0.78801074757464917 0.19700268689366229 0 0.15391537076158981 1 I I #
coedge $-1 $256 $256 $-1 $363 reversed $159 $-1 #
edge $-1 $364 0 $364 6.2831853071796004 $160 $365 forward 7 unknown #
vertex $-1 $163 $366 #
ellipse-curve $-1 -56.681503606695095 34.414876052281009 10.934487032426471 -0.61566148304635926 0 0.78801074757464917 0.19700268689366229 0 0.15391537076158981 1 I I #
coedge $-1 $260 $260 $-1 $367 reversed $166 $-1 #
edge $-1 $368 0 $368 6.2831853071796004 $167 $369 forward 7 unknown #
vertex $-1 $170 $370 #
ellipse-curve $-1 -56.681503606695095 37.847802899634694 10.934487032426471 -0.61566148304635926 0 0.78801074757464917 0.19700268689366229 0 0.15391537076158981 1 I I #
face $-1 $-1 $276 $36 $-1 $371 forward single #
loop $-1 $-1 $372 $171 #
plane-surface $-1 65.127719962157045 0 0 -1 0 0 0 0 1 forward_v I I I I #
coedge $-1 $373 $374 $375 $376 reversed $172 $-1 #
coedge $-1 $377 $174 $176 $274 forward $108 $-1 #
coedge $-1 $174 $377 $373 $378 forward $108 $-1 #
coedge $-1 $375 $177 $174 $271 forward $276 $-1 #
edge $-1 $278 -17.127206391628775 $379 -4.7797693573186848 $270 $380 forward 7 unknown #
coedge $-1 $381 $382 $175 $273 forward $265 $-1 #
edge $-1 $383 -85.201231133984564 $277 -79.206465657845996 $272 $384 forward 7 unknown #
edge $-1 $278 120.05653585829521 $383 130.25543992431409 $176 $385 forward 7 unknown #
coedge $-1 $177 $375 $381 $386 forward $276 $-1 #
loop $-1 $-1 $375 $264 #
vertex $-1 $273 $387 #
vertex $-1 $178 $388 #
straight-curve $-1 18.155541880383353 28.080694266102505 17.533394602581794 -1 0 0 I I #
coedge $-1 $280 $280 $-1 $389 reversed $181 $-1 #
edge $-1 $390 0 $390 6.2831853071796004 $182 $391 forward 7 unknown #
vertex $-1 $185 $392 #
ellipse-curve $-1 61.002176633274374 18.20274463865443 14.536011864512513 0.5877852598018023 0 0.80901698891910034 0.40450849445955017 0 -0.29389262990090115 1 I I #
coedge $-1 $284 $284 $-1 $393 reversed $188 $-1 #
edge $-1 $394 0 $394 6.2831853071796004 $189 $395 forward 7 unknown #
vertex $-1 $192 $396 #
ellipse-curve $-1 61.002176633274374 21.906975748947453 14.536011864512513 0.5877852598018023 0 0.80901698891910034 0.40450849445955017 0 -0.29389262990090115 1 I I #
coedge $-1 $288 $288 $-1 $397 reversed $195 $-1 #
edge $-1 $398 0 $398 6.2831853071796004 $196 $399 forward 7 unknown #
vertex $-1 $199 $400 #
ellipse-curve $-1 61.002176633274374 25.611206859240475 14.536011864512513 0.5877852598018023 0 0.80901698891910034 0.40450849445955017 0 -0.29389262990090115 1 I I #
face $-1 $-1 $215 $30 $-1 $401 reversed single #
loop $-1 $-1 $308 $200 #
plane-surface $-1 0 40.136420797870478 0 0 -1 0 0 0 -1 forward_v I I I I #
coedge $-1 $402 $306 $309 $403 forward $201 $-1 #
coedge $-1 $312 $203 $204 $300 reversed $127 $-1 #
coedge $-1 $306 $402 $203 $298 reversed $201 $-1 #
edge $-1 $313 -17.533394602581797 $404 17.533394602581797 $297 $405 forward 7 unknown #
coedge $-1 $205 $204 $402 $406 forward $81 $-1 #
edge $-1 $304 -65.127719962157045 $404 65.127719962157045 $296 $407 forward 7 unknown #
coedge $-1 $309 $308 $205 $302 reversed $293 $-1 #
edge $-1 $408 -65.127719962157045 $303 65.127719962157045 $301 $409 forward 7 unknown #
vertex $-1 $207 $410 #
vertex $-1 $315 $411 #
straight-curve $-1 65.127719962157045 0 -17.533394602581797 0 -1 0 I I #
coedge $-1 $295 $297 $208 $307 reversed $201 $-1 #
edge $-1 $310 -40.136420797870478 $313 40.136420797870478 $306 $412 forward 7 unknown #
coedge $-1 $301 $209 $214 $316 forward $293 $-1 #
coedge $-1 $209 $301 $295 $403 reversed $293 $-1 #
vertex $-1 $210 $413 #
straight-curve $-1 0 40.136420797870478 17.533394602581797 -1 0 0 I I #
coedge $-1 $211 $296 $213 $315 reversed $127 $-1 #
vertex $-1 $307 $414 #
straight-curve $-1 0 -40.136420797870478 17.533394602581797 1 0 0 I I #
edge $-1 $216 -17.533394602581797 $304 17.533394602581797 $213 $415 forward 7 unknown #
edge $-1 $217 -17.533394602581797 $303 17.533394602581797 $214 $416 forward 7 unknown #
point $-1 65.127719962157045 -40.136420797870478 17.533394602581797 #
point $-1 65.127719962157045 40.136420797870478 17.533394602581797 #
face $-1 $-1 $234 $31 $-1 $417 reversed single #
loop $-1 $-1 $230 $219 #
plane-surface $-1 0 -40.136420797870478 0 0 1 0 0 0 1 forward_v I I I I #
coedge $-1 $418 $419 $227 $332 forward $220 $-1 #
coedge $-1 $333 $222 $224 $328 reversed $135 $-1 #
edge $-1 $330 1.4297868625131187 $235 8.3240329863140268 $233 $420 forward 7 unknown #
coedge $-1 $224 $223 $421 $422 reversed $85 $-1 #
coedge $-1 $337 $336 $223 $327 forward $320 $-1 #
edge $-1 $423 -65.127719962157045 $329 65.127719962157045 $326 $424 forward 7 unknown #
edge $-1 $425 -65.127719962157045 $330 65.127719962157045 $323 $426 forward 7 unknown #
vertex $-1 $327 $427 #
vertex $-1 $226 $428 #
straight-curve $-1 65.127719962157045 -14.475810931753255 6.3066967869266914 0 1 0 I I #
edge $-1 $338 -25.660609866117223 $334 -3.2910119973892868 $322 $429 forward 7 unknown #
coedge $-1 $228 $323 $418 $430 reversed $135 $-1 #
vertex $-1 $332 $431 #
straight-curve $-1 0 -17.766822929142542 13.2009429107276 -1 0 0 I I #
coedge $-1 $326 $230 $419 $432 forward $320 $-1 #
coedge $-1 $230 $326 $232 $340 reversed $320 $-1 #
vertex $-1 $432 $433 #
straight-curve $-1 0 -40.136420797870478 13.2009429107276 -1 0 0 I I #
edge $-1 $236 -13.2009429107276 $329 -6.3066967869266914 $232 $434 forward 7 unknown #
point $-1 65.127719962157045 -17.766822929142542 13.2009429107276 #
point $-1 65.127719962157045 -40.136420797870478 13.2009429107276 #
loop $-1 $-1 $245 $238 #
plane-surface $-1 -65.127719962157045 0 0 1 0 0 0 0 -1 forward_v I I I I #
coedge $-1 $435 $436 $242 $347 forward $239 $-1 #
coedge $-1 $242 $241 $352 $437 reversed $89 $-1 #
edge $-1 $349 2.8892420356573307 $438 24.326047006802277 $345 $439 forward 7 unknown #
coedge $-1 $248 $243 $436 $440 forward $143 $-1 #
vertex $-1 $440 $441 #
straight-curve $-1 -48.235287251233167 17.207438026140505 17.533394602581797 0 1 0 I I #
coedge $-1 $442 $245 $248 $356 reversed $343 $-1 #
coedge $-1 $245 $442 $346 $437 forward $343 $-1 #
vertex $-1 $246 $443 #
straight-curve $-1 -65.127719962157045 28.693331306691547 53.489133026347332 0 0 1 I I #
straight-curve $-1 -65.127719962157073 28.693331306691547 4.335579462271113 -0.78801074757464917 0 -0.61566148304635926 I I #
edge $-1 $444 -40.136420797870478 $249 -28.693331306691547 $351 $445 forward 7 unknown #
point $-1 -65.127719962157045 28.693331306691547 17.533394602581797 #
point $-1 -48.23528725123316 28.693331306691547 17.533394602581797 #
edge $-1 $446 1 $446 0 $252 $-1 forward 7 unknown #
vertex $-1 $253 $447 #
ellipse-curve $-1 -56.065842123648721 30.981949204927339 10.146476284851797 -0.61566148304635926 0 0.78801074757464917 0.19700268689366229 0 0.15391537076158981 1 I I #
point $-1 -56.484500919801413 30.981949204927339 11.088402403188036 #
edge $-1 $448 1 $448 0 $256 $-1 forward 7 unknown #
vertex $-1 $257 $449 #
ellipse-curve $-1 -56.065842123648721 34.414876052281009 10.146476284851797 -0.61566148304635926 0 0.78801074757464917 0.19700268689366229 0 0.15391537076158981 1 I I #
point $-1 -56.484500919801413 34.414876052281009 11.088402403188036 #
edge $-1 $450 1 $450 0 $260 $-1 forward 7 unknown #
vertex $-1 $261 $451 #
ellipse-curve $-1 -56.065842123648721 37.847802899634694 10.146476284851797 -0.61566148304635926 0 0.78801074757464917 0.19700268689366229 0 0.15391537076158981 1 I I #
point $-1 -56.484500919801413 37.847802899634694 11.088402403188036 #
plane-surface $-1 0 0 17.533394602581797 0 0 1 1 0 0 forward_v I I I I #
coedge $-1 $382 $381 $374 $452 forward $265 $-1 #
coedge $-1 $374 $267 $269 $378 reversed $172 $-1 #
coedge $-1 $267 $373 $372 $452 reversed $172 $-1 #
coedge $-1 $275 $270 $267 $376 forward $276 $-1 #
edge $-1 $379 38.721091424008335 $453 46.972178081773691 $375 $454 forward 7 unknown #
coedge $-1 $269 $268 $382 $455 reversed $108 $-1 #
edge $-1 $456 -130.25543992431409 $379 -120.05653585829521 $373 $457 forward 7 unknown #
vertex $-1 $271 $458 #
straight-curve $-1 56.876633304391689 10.95348787447373 17.533394602581794 0 -1 0 I I #
coedge $-1 $372 $272 $275 $386 reversed $265 $-1 #
coedge $-1 $272 $372 $377 $455 forward $265 $-1 #
vertex $-1 $273 $459 #
straight-curve $-1 65.127719962157045 28.080694266102505 96.73986026042779 0 0 1 I I #
straight-curve $-1 -40.251143835744301 28.080694266102505 88.100856722954234 0.80901698891910034 0 -0.5877852598018023 I I #
edge $-1 $453 15.733257231792415 $277 28.080694266102505 $381 $460 forward 7 unknown #
point $-1 65.127719962157045 28.080694266102505 17.533394602581797 #
point $-1 56.876633304391689 28.080694266102505 17.533394602581794 #
edge $-1 $461 1 $461 0 $280 $-1 forward 7 unknown #
vertex $-1 $281 $462 #
ellipse-curve $-1 59.909077585942832 18.20274463865443 13.031490127848524 0.5877852598018023 0 0.80901698891910034 0.40450849445955017 0 -0.29389262990090115 1 I I #
point $-1 61.406685127733923 18.20274463865443 14.242119234611609 #
edge $-1 $463 1 $463 0 $284 $-1 forward 7 unknown #
vertex $-1 $285 $464 #
ellipse-curve $-1 59.909077585942832 21.906975748947453 13.031490127848524 0.5877852598018023 0 0.80901698891910034 0.40450849445955017 0 -0.29389262990090115 1 I I #
point $-1 61.406685127733923 21.906975748947453 14.242119234611609 #
edge $-1 $465 1 $465 0 $288 $-1 forward 7 unknown #
vertex $-1 $289 $466 #
ellipse-curve $-1 59.909077585942832 25.611206859240475 13.031490127848524 0.5877852598018023 0 0.80901698891910034 0.40450849445955017 0 -0.29389262990090115 1 I I #
point $-1 61.406685127733923 25.611206859240475 14.242119234611609 #
plane-surface $-1 65.127719962157045 0 0 -1 0 0 0 0 1 forward_v I I I I #
coedge $-1 $297 $295 $299 $406 reversed $201 $-1 #
edge $-1 $310 -17.533394602581797 $408 17.533394602581797 $309 $467 forward 7 unknown #
vertex $-1 $406 $468 #
straight-curve $-1 -65.127719962157045 -40.136420797870478 0 0 0 -1 I I #
edge $-1 $404 -40.136420797870478 $408 40.136420797870478 $402 $469 forward 7 unknown #
straight-curve $-1 0 -40.136420797870478 -17.533394602581797 -1 0 0 I I #
vertex $-1 $302 $470 #
straight-curve $-1 0 40.136420797870478 -17.533394602581797 1 0 0 I I #
point $-1 65.127719962157045 40.136420797870478 -17.533394602581797 #
point $-1 65.127719962157045 -40.136420797870478 -17.533394602581797 #
straight-curve $-1 -65.127719962157045 0 17.533394602581797 0 -1 0 I I #
point $-1 -65.127719962157045 40.136420797870478 17.533394602581797 #
point $-1 -65.127719962157045 -40.136420797870478 17.533394602581797 #
straight-curve $-1 65.127719962157045 -40.136420797870478 0 0 0 -1 I I #
straight-curve $-1 65.127719962157045 40.136420797870478 0 0 0 -1 I I #
plane-surface $-1 65.127719962157045 0 0 -1 0 0 0 0 1 forward_v I I I I #
coedge $-1 $421 $322 $333 $430 forward $220 $-1 #
coedge $-1 $322 $421 $336 $432 reversed $220 $-1 #
straight-curve $-1 65.127719962157045 -17.766822929142542 4.8769099244135727 0 0 1 I I #
coedge $-1 $419 $418 $325 $422 forward $220 $-1 #
edge $-1 $425 3.2910119973892868 $423 25.660609866117223 $421 $471 forward 7 unknown #
vertex $-1 $327 $472 #
straight-curve $-1 0 -40.136420797870478 6.3066967869266914 1 0 0 I I #
vertex $-1 $422 $473 #
straight-curve $-1 0 -17.766822929142542 6.3066967869266914 1 0 0 I I #
point $-1 65.127719962157045 -40.136420797870478 6.3066967869266914 #
point $-1 65.127719962157045 -17.766822929142542 6.3066967869266914 #
straight-curve $-1 -65.127719962157045 -14.475810931753255 13.2009429107276 0 1 0 I I #
edge $-1 $334 -8.3240329863140268 $425 -1.4297868625131187 $418 $474 forward 7 unknown #
point $-1 -65.127719962157045 -17.766822929142542 13.2009429107276 #
edge $-1 $338 -13.2009429107276 $423 -6.3066967869266914 $419 $475 forward 7 unknown #
point $-1 -65.127719962157045 -40.136420797870478 13.2009429107276 #
straight-curve $-1 65.127719962157045 -40.136420797870478 0 0 0 -1 I I #
coedge $-1 $436 $345 $442 $476 reversed $239 $-1 #
coedge $-1 $345 $435 $348 $440 reversed $239 $-1 #
edge $-1 $438 -22.928982771729967 $353 -11.485893280551043 $352 $477 forward 7 unknown #
vertex $-1 $347 $478 #
straight-curve $-1 -45.958533474790727 40.136420797870478 19.312189639134473 -0.78801074757464917 0 -0.61566148304635926 I I #
edge $-1 $349 48.23528725123316 $444 65.127719962157045 $436 $479 forward 7 unknown #
point $-1 -48.23528725123316 40.136420797870471 17.533394602581797 #
coedge $-1 $352 $351 $435 $476 forward $343 $-1 #
point $-1 -65.127719962157045 28.693331306691547 4.3355794622711352 #
vertex $-1 $440 $480 #
straight-curve $-1 -65.127719962157045 0 17.533394602581797 0 -1 0 I I #
vertex $-1 $359 $481 #
point $-1 -55.868839436755053 30.981949204927339 10.300391655613387 #
vertex $-1 $363 $482 #
point $-1 -55.868839436755053 34.414876052281009 10.300391655613387 #
vertex $-1 $367 $483 #
point $-1 -55.868839436755053 37.847802899634694 10.300391655613387 #
edge $-1 $453 79.206465657845996 $456 85.201231133984564 $372 $484 forward 7 unknown #
vertex $-1 $386 $485 #
straight-curve $-1 18.155541880383353 15.733257231792415 17.533394602581794 1 0 0 I I #
edge $-1 $456 4.7797693573186848 $383 17.127206391628775 $382 $486 forward 7 unknown #
vertex $-1 $455 $487 #
straight-curve $-1 -40.251143835744301 15.733257231792415 88.100856722954234 -0.80901698891910034 0 0.5877852598018023 I I #
point $-1 56.876633304391689 15.733257231792415 17.533394602581794 #
point $-1 65.127719962157045 28.080694266102505 11.538629126443226 #
straight-curve $-1 65.127719962157045 0 17.533394602581797 0 1 0 I I #
vertex $-1 $389 $488 #
point $-1 60.313586080402388 18.20274463865443 12.737597497947624 #
vertex $-1 $393 $489 #
point $-1 60.313586080402388 21.906975748947453 12.737597497947624 #
vertex $-1 $397 $490 #
point $-1 60.313586080402388 25.611206859240475 12.737597497947624 #
straight-curve $-1 -65.127719962157045 40.136420797870478 0 0 0 -1 I I #
point $-1 -65.127719962157045 -40.136420797870478 -17.533394602581797 #
straight-curve $-1 -65.127719962157045 0 -17.533394602581797 0 1 0 I I #
point $-1 -65.127719962157045 40.136420797870478 -17.533394602581797 #
straight-curve $-1 -65.127719962157045 -14.475810931753255 6.3066967869266914 0 -1 0 I I #
point $-1 -65.127719962157045 -40.136420797870478 6.3066967869266914 #
point $-1 -65.127719962157045 -17.766822929142542 6.3066967869266914 #
straight-curve $-1 -65.127719962157045 -17.766822929142542 4.8769099244135727 0 0 -1 I I #
straight-curve $-1 -65.127719962157045 -40.136420797870478 0 0 0 -1 I I #
edge $-1 $444 -17.533394602581797 $438 -4.3355794622711352 $435 $491 forward 7 unknown #
straight-curve $-1 -65.127719962157045 17.207438026140505 4.3355794622711352 0 -1 0 I I #
point $-1 -65.127719962157045 40.136420797870471 4.3355794622711352 #
straight-curve $-1 0 40.136420797870478 17.533394602581797 -1 0 0 I I #
point $-1 -65.127719962157045 40.136420797870478 17.533394602581797 #
point $-1 -55.911926752887126 30.981949204927339 9.9494735979581357 #
point $-1 -55.911926752887126 34.414876052281009 9.9494735979581357 #
point $-1 -55.911926752887126 37.847802899634694 9.9494735979581357 #
straight-curve $-1 65.127719962157045 15.733257231792415 96.73986026042779 0 0 -1 I I #
point $-1 65.127719962157045 15.733257231792415 17.533394602581797 #
straight-curve $-1 65.12771996215703 10.95348787447373 11.53862912644324 0 1 0 I I #
point $-1 65.127719962157045 15.733257231792415 11.538629126443226 #
point $-1 59.615184956041936 18.20274463865443 12.626981633388976 #
point $-1 59.615184956041936 21.906975748947453 12.626981633388976 #
point $-1 59.615184956041936 25.611206859240475 12.626981633388976 #
straight-curve $-1 -65.127719962157045 40.136420797870478 0 0 0 -1 I I #
End-of-ACIS-data 