500 0 8 0           
7 Unknown 11 ACIS 5.0 NT 24 Thu Mar 25 17:35:14 1999 
-1 9.9999999999999995e-007 1e-010 
body $-1 $8 $-1 $9 #
body $-1 $10 $-1 $11 #
body $-1 $12 $-1 $13 #
body $-1 $14 $-1 $15 #
body $-1 $16 $-1 $17 #
body $-1 $18 $-1 $19 #
body $-1 $20 $-1 $21 #
body $-1 $22 $-1 $23 #
lump $-1 $-1 $24 $0 #
transform $-1 1 0 0 0 1 0 0 0 1 50.973235267189551 35.261245352881218 15.559628484673896 1 rotate no_reflect no_shear #
lump $-1 $-1 $25 $1 #
transform $-1 1 0 0 0 1 0 0 0 1 50.973235267189551 35.261245352881218 15.559628484673896 1 rotate no_reflect no_shear #
lump $-1 $-1 $26 $2 #
transform $-1 1 0 0 0 1 0 0 0 1 50.973235267189551 35.261245352881218 15.559628484673896 1 rotate no_reflect no_shear #
lump $-1 $-1 $27 $3 #
transform $-1 1 0 0 0 1 0 0 0 1 50.973235267189551 35.261245352881218 15.559628484673896 1 rotate no_reflect no_shear #
lump $-1 $-1 $28 $4 #
transform $-1 1 0 0 0 1 0 0 0 1 50.973235267189551 35.261245352881218 15.559628484673896 1 rotate no_reflect no_shear #
lump $-1 $-1 $29 $5 #
transform $-1 1 0 0 0 1 0 0 0 1 50.973235267189551 35.261245352881218 15.559628484673896 1 rotate no_reflect no_shear #
lump $-1 $-1 $30 $6 #
transform $-1 1 0 0 0 1 0 0 0 1 50.973235267189551 35.261245352881218 15.559628484673896 1 rotate no_reflect no_shear #
lump $-1 $-1 $31 $7 #
transform $-1 1 0 0 0 1 0 0 0 1 50.973235267189551 35.261245352881218 15.559628484673896 1 rotate no_reflect no_shear #
shell $-1 $-1 $-1 $32 $-1 $8 #
shell $-1 $-1 $-1 $33 $-1 $10 #
shell $-1 $-1 $-1 $34 $-1 $12 #
shell $-1 $-1 $-1 $35 $-1 $14 #
shell $-1 $-1 $-1 $36 $-1 $16 #
shell $-1 $-1 $-1 $37 $-1 $18 #
shell $-1 $-1 $-1 $38 $-1 $20 #
shell $-1 $-1 $-1 $39 $-1 $22 #
face $-1 $40 $41 $24 $-1 $42 forward single #
face $-1 $43 $44 $25 $-1 $45 reversed single #
face $-1 $46 $47 $26 $-1 $48 reversed single #
face $-1 $49 $50 $27 $-1 $51 forward single #
face $-1 $52 $53 $28 $-1 $54 forward single #
face $-1 $55 $56 $29 $-1 $57 reversed single #
face $-1 $58 $59 $30 $-1 $60 forward single #
face $-1 $61 $62 $31 $-1 $63 forward single #
face $-1 $64 $65 $24 $-1 $66 reversed single #
loop $-1 $-1 $67 $32 #
plane-surface $-1 0 0 15.559628484673896 0 0 1 1 0 0 forward_v I I I I #
face $-1 $68 $69 $25 $-1 $70 reversed single #
loop $-1 $-1 $71 $33 #
plane-surface $-1 0 -27.083558204427185 6.2255608778792304 0 0 1 1 0 0 forward_v I I I I #
face $-1 $72 $73 $26 $-1 $74 reversed single #
loop $-1 $-1 $75 $34 #
plane-surface $-1 -50.973235267189537 -11.278654778134708 0.99734956868560687 -0.6560590369687036 0 0.75470957328743171 0.75470957328743171 0 0.6560590369687036 forward_v I I I I #
face $-1 $76 $77 $27 $-1 $78 forward single #
loop $-1 $79 $80 $35 #
cone-surface $-1 -42.269213126487607 -14.547461754351183 7.9011342400360371 0.6560590369687036 0 -0.75470957328743171 0.37735478664371586 0 0.3280295184843518 1 I I 0 1 0.5 forward I I I I #
face $-1 $81 $82 $28 $-1 $83 forward single #
loop $-1 $84 $85 $36 #
cone-surface $-1 -42.269213126487607 -8.0098478019182338 7.9011342400360371 0.6560590369687036 0 -0.75470957328743171 0.37735478664371586 0 0.3280295184843518 1 I I 0 1 0.5 forward I I I I #
face $-1 $86 $87 $29 $-1 $88 reversed single #
loop $-1 $-1 $89 $37 #
plane-surface $-1 63.538836256450281 24.239257885889117 154.12445674829786 0 -1 0 -0.7660444514056185 0 -0.64278759981090561 forward_v I I I I #
face $-1 $90 $91 $30 $-1 $92 forward single #
loop $-1 $93 $94 $38 #
cone-surface $-1 47.771493210014938 17.926030634425686 12.12429824723136 -0.7660444514056185 0 -0.64278759981090561 0.64278759981090561 0 -0.7660444514056185 1 I I 0 1 1 forward I I I I #
face $-1 $95 $96 $31 $-1 $97 forward single #
loop $-1 $98 $99 $39 #
cone-surface $-1 47.771493210014938 21.713966985303749 12.12429824723136 -0.7660444514056185 0 -0.64278759981090561 0.64278759981090561 0 -0.7660444514056185 1 I I 0 1 1 forward I I I I #
face $-1 $100 $101 $24 $-1 $102 reversed single #
loop $-1 $-1 $103 $40 #
plane-surface $-1 0 0 -15.559628484673896 0 0 1 1 0 0 forward_v I I I I #
coedge $-1 $104 $105 $106 $107 forward $41 $-1 #
face $-1 $108 $109 $25 $-1 $110 reversed single #
loop $-1 $-1 $111 $43 #
plane-surface $-1 0 -18.905871055973151 10.892594681276565 0 -1 0 0 0 -1 forward_v I I I I #
coedge $-1 $112 $113 $114 $115 reversed $44 $-1 #
face $-1 $116 $117 $26 $-1 $118 forward single #
loop $-1 $-1 $119 $46 #
plane-surface $-1 -117.85613854833261 -3.6514385002962673 77.937326843846591 0 -1 0 0.6560590369687036 0 -0.75470957328743171 forward_v I I I I #
coedge $-1 $120 $121 $122 $123 reversed $47 $-1 #
face $-1 $-1 $124 $27 $-1 $125 forward single #
loop $-1 $126 $127 $49 #
cone-surface $-1 -41.777168848761079 -14.547461754351183 7.3351020600704633 0.6560590369687036 0 -0.75470957328743171 0.18867739332185793 0 0.1640147592421759 1 I I -0.70710678118654746 0.70710678118654746 0.25 forward I I I I #
loop $-1 $-1 $128 $35 #
coedge $-1 $80 $80 $129 $130 reversed $50 $-1 #
face $-1 $-1 $131 $28 $-1 $132 forward single #
loop $-1 $133 $134 $52 #
cone-surface $-1 -41.777168848761079 -8.0098478019182338 7.3351020600704633 0.6560590369687036 0 -0.75470957328743171 0.18867739332185793 0 0.1640147592421759 1 I I -0.70710678118654746 0.70710678118654746 0.25 forward I I I I #
loop $-1 $-1 $135 $36 #
coedge $-1 $85 $85 $136 $137 reversed $53 $-1 #
face $-1 $138 $139 $29 $-1 $140 reversed single #
loop $-1 $-1 $141 $55 #
plane-surface $-1 -14.556691836797214 19.819998809864714 88.594529644311109 0.7660444514056185 0 0.64278759981090561 0.64278759981090561 0 -0.7660444514056185 forward_v I I I I #
coedge $-1 $142 $143 $144 $145 reversed $56 $-1 #
face $-1 $-1 $146 $30 $-1 $147 forward single #
loop $-1 $148 $149 $58 #
cone-surface $-1 46.309913968309061 17.926030634425686 10.897887676688489 -0.7660444514056185 0 -0.64278759981090561 0.3213937999054528 0 -0.38302222570280925 1 I I -0.70710678118654746 0.70710678118654746 0.5 forward I I I I #
loop $-1 $-1 $150 $38 #
coedge $-1 $94 $94 $151 $152 reversed $59 $-1 #
face $-1 $-1 $153 $31 $-1 $154 forward single #
loop $-1 $155 $156 $61 #
cone-surface $-1 46.309913968309061 21.713966985303749 10.897887676688489 -0.7660444514056185 0 -0.64278759981090561 0.3213937999054528 0 -0.38302222570280925 1 I I -0.70710678118654746 0.70710678118654746 0.5 forward I I I I #
loop $-1 $-1 $157 $39 #
coedge $-1 $99 $99 $158 $159 reversed $62 $-1 #
face $-1 $160 $161 $24 $-1 $162 reversed single #
loop $-1 $-1 $163 $64 #
plane-surface $-1 0 -35.261245352881218 0 0 1 0 0 0 1 forward_v I I I I #
coedge $-1 $164 $165 $166 $167 forward $65 $-1 #
coedge $-1 $168 $67 $169 $170 forward $41 $-1 #
coedge $-1 $67 $168 $171 $172 forward $41 $-1 #
coedge $-1 $173 $174 $67 $107 reversed $175 $-1 #
edge $-1 $176 -35.261245352881218 $177 35.261245352881218 $106 $178 forward 7 unknown #
face $-1 $179 $180 $25 $-1 $181 reversed single #
loop $-1 $-1 $182 $68 #
plane-surface $-1 -50.973235267189551 0 0 1 0 0 0 0 -1 forward_v I I I I #
coedge $-1 $183 $184 $185 $186 reversed $69 $-1 #
coedge $-1 $187 $71 $188 $189 reversed $44 $-1 #
coedge $-1 $71 $187 $183 $190 forward $44 $-1 #
coedge $-1 $185 $191 $71 $115 forward $192 $-1 #
edge $-1 $193 -21.719466250667626 $194 -5.3640919537595586 $114 $195 forward 7 unknown #
face $-1 $196 $197 $26 $-1 $198 reversed single #
loop $-1 $-1 $122 $72 #
plane-surface $-1 0 0 15.559628484673896 0 0 1 1 0 0 forward_v I I I I #
coedge $-1 $199 $200 $201 $202 reversed $73 $-1 #
coedge $-1 $203 $75 $204 $205 reversed $47 $-1 #
coedge $-1 $75 $203 $199 $206 forward $47 $-1 #
coedge $-1 $201 $207 $75 $123 forward $117 $-1 #
edge $-1 $208 -13.266543666905797 $209 1.9878888887710868 $122 $210 forward 7 unknown #
loop $-1 $-1 $129 $76 #
plane-surface $-1 -50.973235267189537 -11.278654778134708 0.99734956868560687 -0.6560590369687036 0 0.75470957328743171 0.75470957328743171 0 0.6560590369687036 forward_v I I I I #
loop $-1 $-1 $211 $49 #
coedge $-1 $127 $127 $128 $212 reversed $77 $-1 #
coedge $-1 $128 $128 $127 $212 forward $79 $-1 #
coedge $-1 $129 $129 $80 $130 forward $124 $-1 #
edge $-1 $213 0 $213 6.2831853071796004 $129 $214 forward 7 unknown #
loop $-1 $-1 $136 $81 #
plane-surface $-1 -50.973235267189537 -11.278654778134708 0.99734956868560687 -0.6560590369687036 0 0.75470957328743171 0.75470957328743171 0 0.6560590369687036 forward_v I I I I #
loop $-1 $-1 $215 $52 #
coedge $-1 $134 $134 $135 $216 reversed $82 $-1 #
coedge $-1 $135 $135 $134 $216 forward $84 $-1 #
coedge $-1 $136 $136 $85 $137 forward $131 $-1 #
edge $-1 $217 0 $217 6.2831853071796004 $136 $218 forward 7 unknown #
face $-1 $219 $220 $29 $-1 $221 reversed single #
loop $-1 $-1 $222 $86 #
plane-surface $-1 63.538836256450281 15.400739733840311 154.12445674829786 0 1 0 0.7660444514056185 0 0.64278759981090561 forward_v I I I I #
coedge $-1 $223 $224 $225 $226 reversed $87 $-1 #
coedge $-1 $143 $89 $227 $228 reversed $56 $-1 #
coedge $-1 $89 $142 $223 $229 reversed $56 $-1 #
coedge $-1 $225 $230 $89 $145 forward $231 $-1 #
edge $-1 $232 -19.203817138964411 $233 -14.957447056621277 $144 $234 forward 7 unknown #
loop $-1 $-1 $151 $90 #
plane-surface $-1 -14.556691836797214 19.819998809864714 88.594529644311109 0.7660444514056185 0 0.64278759981090561 0.64278759981090561 0 -0.7660444514056185 forward_v I I I I #
loop $-1 $-1 $235 $58 #
coedge $-1 $149 $149 $150 $236 reversed $91 $-1 #
coedge $-1 $150 $150 $149 $236 forward $93 $-1 #
coedge $-1 $151 $151 $94 $152 forward $146 $-1 #
edge $-1 $237 0 $237 6.2831853071796004 $151 $238 forward 7 unknown #
loop $-1 $-1 $158 $95 #
plane-surface $-1 -14.556691836797214 19.819998809864714 88.594529644311109 0.7660444514056185 0 0.64278759981090561 0.64278759981090561 0 -0.7660444514056185 forward_v I I I I #
loop $-1 $-1 $239 $61 #
coedge $-1 $156 $156 $157 $240 reversed $96 $-1 #
coedge $-1 $157 $157 $156 $240 forward $98 $-1 #
coedge $-1 $158 $158 $99 $159 forward $153 $-1 #
edge $-1 $241 0 $241 6.2831853071796004 $158 $242 forward 7 unknown #
face $-1 $243 $244 $24 $-1 $245 reversed single #
loop $-1 $-1 $246 $100 #
plane-surface $-1 -50.973235267189551 0 0 1 0 0 0 0 -1 forward_v I I I I #
coedge $-1 $247 $171 $248 $249 forward $101 $-1 #
coedge $-1 $250 $103 $247 $251 forward $65 $-1 #
coedge $-1 $103 $250 $252 $253 forward $65 $-1 #
coedge $-1 $174 $173 $103 $167 reversed $175 $-1 #
edge $-1 $254 -35.261245352881218 $255 35.261245352881218 $166 $256 forward 7 unknown #
coedge $-1 $105 $104 $257 $258 forward $41 $-1 #
coedge $-1 $259 $260 $104 $170 reversed $244 $-1 #
edge $-1 $177 -50.973235267189551 $261 50.973235267189551 $169 $262 forward 7 unknown #
coedge $-1 $163 $263 $105 $172 reversed $101 $-1 #
edge $-1 $264 -50.973235267189551 $176 50.973235267189551 $171 $265 forward 7 unknown #
coedge $-1 $166 $106 $263 $266 forward $175 $-1 #
coedge $-1 $106 $166 $259 $267 reversed $175 $-1 #
loop $-1 $-1 $173 $243 #
vertex $-1 $107 $268 #
vertex $-1 $107 $269 #
straight-curve $-1 50.973235267189551 0 15.559628484673896 0 1 0 I I #
face $-1 $270 $271 $25 $-1 $272 forward single #
loop $-1 $-1 $188 $108 #
plane-surface $-1 0 -35.261245352881218 0 0 1 0 0 0 1 forward_v I I I I #
coedge $-1 $273 $274 $275 $276 forward $109 $-1 #
coedge $-1 $275 $111 $113 $190 reversed $69 $-1 #
coedge $-1 $111 $275 $277 $278 reversed $69 $-1 #
coedge $-1 $279 $114 $111 $186 forward $192 $-1 #
edge $-1 $194 0.77926353724094799 $280 10.113331144035616 $185 $281 forward 7 unknown #
coedge $-1 $113 $112 $273 $282 reversed $44 $-1 #
coedge $-1 $283 $284 $112 $189 forward $180 $-1 #
edge $-1 $285 -50.973235267189551 $193 50.973235267189551 $188 $286 forward 7 unknown #
edge $-1 $287 -50.973235267189551 $194 50.973235267189551 $183 $288 forward 7 unknown #
coedge $-1 $114 $279 $283 $289 forward $192 $-1 #
loop $-1 $-1 $185 $270 #
vertex $-1 $189 $290 #
vertex $-1 $115 $291 #
straight-curve $-1 50.973235267189551 -13.541779102213592 6.2255608778792304 0 1 0 I I #
face $-1 $-1 $292 $26 $-1 $293 forward single #
loop $-1 $-1 $294 $116 #
plane-surface $-1 -50.973235267189551 0 0 1 0 0 0 0 -1 forward_v I I I I #
coedge $-1 $200 $119 $121 $206 reversed $73 $-1 #
coedge $-1 $119 $199 $294 $295 reversed $73 $-1 #
coedge $-1 $296 $122 $119 $202 forward $117 $-1 #
edge $-1 $209 -24.706819251411957 $297 -7.9548340069767534 $201 $298 forward 7 unknown #
coedge $-1 $121 $120 $299 $300 reversed $47 $-1 #
coedge $-1 $301 $302 $120 $205 forward $292 $-1 #
edge $-1 $303 -22.480926808358106 $208 -0.28432849112012454 $204 $304 forward 7 unknown #
edge $-1 $305 -1.8809995614912076e-014 $209 22.196598317237967 $199 $306 forward 7 unknown #
coedge $-1 $122 $296 $301 $307 forward $117 $-1 #
vertex $-1 $205 $308 #
vertex $-1 $123 $309 #
straight-curve $-1 -34.221250022754347 -5.6393273890673541 15.559628484673896 0 1 0 I I #
coedge $-1 $211 $211 $-1 $310 reversed $126 $-1 #
edge $-1 $311 0 $311 6.2831853071796004 $127 $312 forward 7 unknown #
vertex $-1 $130 $313 #
ellipse-curve $-1 -42.597242644971949 -14.547461754351183 8.2784890266797433 -0.6560590369687036 0 0.75470957328743171 0.37735478664371586 0 0.3280295184843518 1 I I #
coedge $-1 $215 $215 $-1 $314 reversed $133 $-1 #
edge $-1 $315 0 $315 6.2831853071796004 $134 $316 forward 7 unknown #
vertex $-1 $137 $317 #
ellipse-curve $-1 -42.597242644971949 -8.0098478019182338 8.2784890266797433 -0.6560590369687036 0 0.75470957328743171 0.37735478664371586 0 0.3280295184843518 1 I I #
face $-1 $-1 $231 $29 $-1 $318 forward single #
loop $-1 $-1 $319 $138 #
plane-surface $-1 50.973235267189551 0 0 -1 0 0 0 0 1 forward_v I I I I #
coedge $-1 $320 $321 $322 $323 reversed $139 $-1 #
coedge $-1 $324 $141 $143 $229 forward $87 $-1 #
coedge $-1 $141 $324 $320 $325 forward $87 $-1 #
coedge $-1 $322 $144 $141 $226 forward $231 $-1 #
edge $-1 $233 -14.32925848095676 $326 -5.4907403289079539 $225 $327 forward 7 unknown #
coedge $-1 $328 $329 $142 $228 forward $220 $-1 #
edge $-1 $330 -66.563226823085316 $232 -61.502599889475036 $227 $331 forward 7 unknown #
edge $-1 $233 95.340291318114978 $330 101.94647053437915 $143 $332 forward 7 unknown #
coedge $-1 $144 $322 $328 $333 forward $231 $-1 #
loop $-1 $-1 $322 $219 #
vertex $-1 $228 $334 #
vertex $-1 $145 $335 #
straight-curve $-1 31.769418128225141 24.239257885889117 15.559628484673894 -1 0 0 I I #
coedge $-1 $235 $235 $-1 $336 reversed $148 $-1 #
edge $-1 $337 0 $337 6.2831853071796004 $149 $338 forward 7 unknown #
vertex $-1 $152 $339 #
ellipse-curve $-1 48.850050226017977 17.926030634425686 13.02931501786875 0.7660444514056185 0 0.64278759981090561 0.64278759981090561 0 -0.7660444514056185 1 I I #
coedge $-1 $239 $239 $-1 $340 reversed $155 $-1 #
edge $-1 $341 0 $341 6.2831853071796004 $156 $342 forward 7 unknown #
vertex $-1 $159 $343 #
ellipse-curve $-1 48.850050226017977 21.713966985303749 13.02931501786875 0.7660444514056185 0 0.64278759981090561 0.64278759981090561 0 -0.7660444514056185 1 I I #
face $-1 $-1 $175 $24 $-1 $344 reversed single #
loop $-1 $-1 $259 $160 #
plane-surface $-1 0 35.261245352881218 0 0 -1 0 0 0 -1 forward_v I I I I #
coedge $-1 $345 $257 $260 $346 forward $161 $-1 #
coedge $-1 $263 $163 $164 $251 reversed $101 $-1 #
coedge $-1 $257 $345 $163 $249 reversed $161 $-1 #
edge $-1 $264 -15.559628484673896 $347 15.559628484673896 $248 $348 forward 7 unknown #
coedge $-1 $165 $164 $345 $349 forward $65 $-1 #
edge $-1 $255 -50.973235267189551 $347 50.973235267189551 $247 $350 forward 7 unknown #
coedge $-1 $260 $259 $165 $253 reversed $244 $-1 #
edge $-1 $351 -50.973235267189551 $254 50.973235267189551 $252 $352 forward 7 unknown #
vertex $-1 $167 $353 #
vertex $-1 $266 $354 #
straight-curve $-1 50.973235267189551 0 -15.559628484673896 0 -1 0 I I #
coedge $-1 $246 $248 $168 $258 reversed $161 $-1 #
edge $-1 $261 -35.261245352881218 $264 35.261245352881218 $257 $355 forward 7 unknown #
coedge $-1 $252 $169 $174 $267 forward $244 $-1 #
coedge $-1 $169 $252 $246 $346 reversed $244 $-1 #
vertex $-1 $170 $356 #
straight-curve $-1 0 35.261245352881218 15.559628484673896 -1 0 0 I I #
coedge $-1 $171 $247 $173 $266 reversed $101 $-1 #
vertex $-1 $258 $357 #
straight-curve $-1 0 -35.261245352881218 15.559628484673896 1 0 0 I I #
edge $-1 $176 -15.559628484673896 $255 15.559628484673896 $173 $358 forward 7 unknown #
edge $-1 $177 -15.559628484673896 $254 15.559628484673896 $174 $359 forward 7 unknown #
point $-1 50.973235267189551 -35.261245352881218 15.559628484673896 #
point $-1 50.973235267189551 35.261245352881218 15.559628484673896 #
face $-1 $-1 $192 $25 $-1 $360 reversed single #
loop $-1 $-1 $277 $179 #
plane-surface $-1 0 0 15.559628484673896 0 0 1 1 0 0 forward_v I I I I #
coedge $-1 $361 $182 $187 $282 forward $109 $-1 #
coedge $-1 $182 $361 $362 $363 reversed $109 $-1 #
coedge $-1 $184 $183 $182 $276 reversed $69 $-1 #
edge $-1 $364 -10.113331144035616 $287 -0.77926353724094799 $182 $365 forward 7 unknown #
coedge $-1 $362 $366 $184 $278 forward $271 $-1 #
edge $-1 $280 -50.973235267189551 $364 50.973235267189551 $277 $367 forward 7 unknown #
coedge $-1 $191 $185 $366 $368 reversed $192 $-1 #
vertex $-1 $186 $369 #
straight-curve $-1 50.973235267189551 -18.905871055973151 5.4462973406382824 0 0 1 I I #
edge $-1 $287 5.3640919537595586 $285 21.719466250667626 $273 $370 forward 7 unknown #
coedge $-1 $371 $188 $191 $289 reversed $180 $-1 #
coedge $-1 $188 $371 $361 $372 forward $180 $-1 #
vertex $-1 $189 $373 #
straight-curve $-1 0 -35.261245352881218 6.2255608778792304 1 0 0 I I #
vertex $-1 $282 $374 #
straight-curve $-1 0 -18.905871055973151 6.2255608778792304 1 0 0 I I #
edge $-1 $375 -15.559628484673896 $193 -6.2255608778792304 $191 $376 forward 7 unknown #
point $-1 50.973235267189551 -35.261245352881218 6.2255608778792304 #
point $-1 50.973235267189551 -18.905871055973151 6.2255608778792304 #
loop $-1 $-1 $204 $196 #
plane-surface $-1 0 -18.905871055973151 10.892594681276565 0 -1 0 0 0 -1 forward_v I I I I #
coedge $-1 $299 $377 $200 $295 forward $197 $-1 #
edge $-1 $297 23.409034937249402 $305 37.971313853237703 $294 $378 forward 7 unknown #
coedge $-1 $207 $201 $377 $379 forward $117 $-1 #
vertex $-1 $379 $380 #
straight-curve $-1 -58.928069274166305 -3.6514385002962673 15.559628484673894 -1 0 0 I I #
coedge $-1 $381 $294 $203 $300 forward $197 $-1 #
edge $-1 $305 -1.9878888887710868 $303 13.266543666905797 $299 $382 forward 7 unknown #
coedge $-1 $302 $204 $207 $307 reversed $292 $-1 #
coedge $-1 $204 $301 $381 $383 reversed $292 $-1 #
vertex $-1 $383 $384 #
straight-curve $-1 -34.006664588547622 -18.905871055973151 15.746164760740925 0.75470957328743171 0 0.6560590369687036 I I #
vertex $-1 $300 $385 #
straight-curve $-1 -50.973235267189537 -3.6514385002962673 0.99734956868560687 0.75470957328743171 0 0.6560590369687036 I I #
edge $-1 $386 -50.973235267189551 $208 -34.221250022754354 $207 $387 forward 7 unknown #
point $-1 -34.221250022754354 -18.905871055973151 15.559628484673896 #
point $-1 -34.221250022754347 -3.6514385002962673 15.559628484673894 #
edge $-1 $388 1 $388 0 $211 $-1 forward 7 unknown #
vertex $-1 $212 $389 #
ellipse-curve $-1 -41.941183608003257 -14.547461754351183 7.5237794533923212 -0.6560590369687036 0 0.75470957328743171 0.37735478664371586 0 0.3280295184843518 1 I I #
point $-1 -42.219887858328242 -14.547461754351183 8.6065185451641053 #
edge $-1 $390 1 $390 0 $215 $-1 forward 7 unknown #
vertex $-1 $216 $391 #
ellipse-curve $-1 -41.941183608003257 -8.0098478019182338 7.5237794533923212 -0.6560590369687036 0 0.75470957328743171 0.37735478664371586 0 0.3280295184843518 1 I I #
point $-1 -42.219887858328242 -8.0098478019182338 8.6065185451641053 #
plane-surface $-1 0 0 15.559628484673896 0 0 1 1 0 0 forward_v I I I I #
coedge $-1 $329 $328 $321 $392 forward $220 $-1 #
coedge $-1 $321 $222 $224 $325 reversed $139 $-1 #
coedge $-1 $222 $320 $319 $392 reversed $139 $-1 #
coedge $-1 $230 $225 $222 $323 forward $231 $-1 #
edge $-1 $326 14.957447056621277 $393 19.203817138964411 $322 $394 forward 7 unknown #
coedge $-1 $224 $223 $329 $395 reversed $87 $-1 #
edge $-1 $396 -101.94647053437915 $326 -95.340291318114978 $320 $397 forward 7 unknown #
vertex $-1 $226 $398 #
straight-curve $-1 46.726865184846417 9.909999404932357 15.559628484673887 0 -1 0 I I #
coedge $-1 $319 $227 $230 $333 reversed $220 $-1 #
coedge $-1 $227 $319 $324 $395 forward $220 $-1 #
vertex $-1 $228 $399 #
straight-curve $-1 50.973235267189551 24.239257885889117 77.06222837414893 0 0 1 I I #
straight-curve $-1 -14.556691836797214 24.239257885889117 88.594529644311109 0.64278759981090561 0 -0.7660444514056185 I I #
edge $-1 $393 15.400739733840311 $232 24.239257885889117 $328 $400 forward 7 unknown #
point $-1 50.973235267189551 24.239257885889117 15.559628484673896 #
point $-1 46.726865184846417 24.239257885889117 15.559628484673894 #
edge $-1 $401 1 $401 0 $235 $-1 forward 7 unknown #
vertex $-1 $236 $402 #
ellipse-curve $-1 46.692936194011871 17.926030634425686 11.219281476593942 0.7660444514056185 0 0.64278759981090561 0.64278759981090561 0 -0.7660444514056185 1 I I #
point $-1 49.492837825828914 17.926030634425686 12.263270566463159 #
edge $-1 $403 1 $403 0 $239 $-1 forward 7 unknown #
vertex $-1 $240 $404 #
ellipse-curve $-1 46.692936194011871 21.713966985303749 11.219281476593942 0.7660444514056185 0 0.64278759981090561 0.64278759981090561 0 -0.7660444514056185 1 I I #
point $-1 49.492837825828914 21.713966985303749 12.263270566463159 #
plane-surface $-1 50.973235267189551 0 0 -1 0 0 0 0 1 forward_v I I I I #
coedge $-1 $248 $246 $250 $349 reversed $161 $-1 #
edge $-1 $261 -15.559628484673896 $351 15.559628484673896 $260 $405 forward 7 unknown #
vertex $-1 $349 $406 #
straight-curve $-1 -50.973235267189551 -35.261245352881218 0 0 0 -1 I I #
edge $-1 $347 -35.261245352881218 $351 35.261245352881218 $345 $407 forward 7 unknown #
straight-curve $-1 0 -35.261245352881218 -15.559628484673896 -1 0 0 I I #
vertex $-1 $253 $408 #
straight-curve $-1 0 35.261245352881218 -15.559628484673896 1 0 0 I I #
point $-1 50.973235267189551 35.261245352881218 -15.559628484673896 #
point $-1 50.973235267189551 -35.261245352881218 -15.559628484673896 #
straight-curve $-1 -50.973235267189551 0 15.559628484673896 0 -1 0 I I #
point $-1 -50.973235267189551 35.261245352881218 15.559628484673896 #
point $-1 -50.973235267189551 -35.261245352881218 15.559628484673896 #
straight-curve $-1 50.973235267189551 -35.261245352881218 0 0 0 -1 I I #
straight-curve $-1 50.973235267189551 35.261245352881218 0 0 0 -1 I I #
plane-surface $-1 50.973235267189551 0 0 -1 0 0 0 0 1 forward_v I I I I #
coedge $-1 $274 $273 $284 $372 reversed $109 $-1 #
coedge $-1 $409 $277 $274 $363 forward $271 $-1 #
edge $-1 $364 18.905871055973151 $410 35.261245352881218 $274 $411 forward 7 unknown #
vertex $-1 $363 $412 #
straight-curve $-1 -50.973235267189551 -18.905871055973151 5.4462973406382824 0 0 -1 I I #
coedge $-1 $277 $409 $279 $368 forward $271 $-1 #
straight-curve $-1 0 -18.905871055973151 15.559628484673896 -1 0 0 I I #
edge $-1 $375 -35.261245352881218 $280 -18.905871055973151 $279 $413 forward 7 unknown #
point $-1 50.973235267189551 -18.905871055973151 15.559628484673899 #
straight-curve $-1 -50.973235267189551 -13.541779102213592 6.2255608778792304 0 -1 0 I I #
coedge $-1 $284 $283 $409 $414 reversed $180 $-1 #
edge $-1 $410 -15.559628484673896 $285 -6.2255608778792304 $361 $415 forward 7 unknown #
point $-1 -50.973235267189551 -35.261245352881218 6.2255608778792304 #
point $-1 -50.973235267189551 -18.905871055973151 6.2255608778792304 #
vertex $-1 $368 $416 #
straight-curve $-1 50.973235267189551 -35.261245352881218 0 0 0 -1 I I #
coedge $-1 $294 $381 $296 $379 reversed $197 $-1 #
straight-curve $-1 -50.973235267189551 -3.6514385002962673 38.968663421923296 0 0 -1 I I #
edge $-1 $297 3.6514385002962673 $386 18.905871055973151 $377 $417 forward 7 unknown #
point $-1 -50.973235267189551 -3.6514385002962673 15.559628484673896 #
coedge $-1 $377 $299 $302 $383 forward $197 $-1 #
straight-curve $-1 -50.973235267189551 -5.6393273890673541 0.99734956868559599 0 -1 0 I I #
edge $-1 $303 -37.971313853237703 $386 -23.409034937249395 $381 $418 forward 7 unknown #
point $-1 -50.973235267189551 -18.905871055973151 0.99734956868559455 #
point $-1 -50.973235267189551 -3.6514385002962673 0.99734956868559455 #
vertex $-1 $383 $419 #
straight-curve $-1 0 -18.905871055973151 15.559628484673896 1 0 0 I I #
vertex $-1 $310 $420 #
point $-1 -41.563828821359536 -14.547461754351183 7.8518089718766735 #
vertex $-1 $314 $421 #
point $-1 -41.563828821359536 -8.0098478019182338 7.8518089718766735 #
edge $-1 $393 61.502599889475036 $396 66.563226823085316 $319 $422 forward 7 unknown #
vertex $-1 $333 $423 #
straight-curve $-1 31.769418128225141 15.400739733840311 15.559628484673894 1 0 0 I I #
edge $-1 $396 5.4907403289079539 $330 14.32925848095676 $329 $424 forward 7 unknown #
vertex $-1 $395 $425 #
straight-curve $-1 -14.556691836797214 15.400739733840311 88.594529644311109 -0.64278759981090561 0 0.7660444514056185 I I #
point $-1 46.726865184846417 15.400739733840311 15.559628484673894 #
point $-1 50.973235267189551 24.239257885889117 10.499001551063614 #
straight-curve $-1 50.973235267189551 0 15.559628484673896 0 1 0 I I #
vertex $-1 $336 $426 #
point $-1 47.33572379382278 17.926030634425686 10.453237025188324 #
vertex $-1 $340 $427 #
point $-1 47.33572379382278 21.713966985303749 10.453237025188324 #
straight-curve $-1 -50.973235267189551 35.261245352881218 0 0 0 -1 I I #
point $-1 -50.973235267189551 -35.261245352881218 -15.559628484673896 #
straight-curve $-1 -50.973235267189551 0 -15.559628484673896 0 1 0 I I #
point $-1 -50.973235267189551 35.261245352881218 -15.559628484673896 #
coedge $-1 $366 $362 $371 $414 forward $271 $-1 #
vertex $-1 $363 $428 #
straight-curve $-1 -50.973235267189551 0 15.559628484673896 0 -1 0 I I #
point $-1 -50.973235267189551 -18.905871055973151 15.559628484673899 #
straight-curve $-1 50.973235267189551 0 15.559628484673896 0 1 0 I I #
edge $-1 $410 -50.973235267189551 $375 50.973235267189551 $371 $429 forward 7 unknown #
straight-curve $-1 -50.973235267189551 -35.261245352881218 0 0 0 -1 I I #
point $-1 50.973235267189551 -35.261245352881218 15.559628484673896 #
straight-curve $-1 -50.973235267189551 0 15.559628484673896 0 -1 0 I I #
straight-curve $-1 -50.973235267189551 -18.905871055973151 38.968663421923296 0 0 1 I I #
point $-1 -50.973235267189551 -18.905871055973151 15.559628484673899 #
point $-1 -41.6131540895189 -14.547461754351183 7.1464246667486053 #
point $-1 -41.6131540895189 -8.0098478019182338 7.1464246667486053 #
straight-curve $-1 50.973235267189551 15.400739733840311 77.06222837414893 0 0 -1 I I #
point $-1 50.973235267189551 15.400739733840311 15.559628484673896 #
straight-curve $-1 50.973235267189551 9.909999404932357 10.499001551063607 0 1 0 I I #
point $-1 50.973235267189551 15.400739733840311 10.499001551063614 #
point $-1 45.926891742606252 17.926030634425686 10.576493876783037 #
point $-1 45.926891742606252 21.713966985303749 10.576493876783037 #
point $-1 -50.973235267189551 -35.261245352881218 15.559628484673896 #
straight-curve $-1 0 -35.261245352881218 15.559628484673896 1 0 0 I I #
End-of-ACIS-data 