500 0 10 0           
7 Unknown 11 ACIS 5.0 NT 24 Thu Mar 25 23:16:34 1999 
-1 9.9999999999999995e-007 1e-010 
body $-1 $10 $-1 $11 #
body $-1 $12 $-1 $13 #
body $-1 $14 $-1 $15 #
body $-1 $16 $-1 $17 #
body $-1 $18 $-1 $19 #
body $-1 $20 $-1 $21 #
body $-1 $22 $-1 $23 #
body $-1 $24 $-1 $25 #
body $-1 $26 $-1 $27 #
body $-1 $28 $-1 $29 #
lump $-1 $-1 $30 $0 #
transform $-1 1 0 0 0 1 0 0 0 1 66.087221900082397 39.774757968972899 14.958110599818792 1 rotate no_reflect no_shear #
lump $-1 $-1 $31 $1 #
transform $-1 1 0 0 0 1 0 0 0 1 66.087221900082397 39.774757968972899 14.958110599818792 1 rotate no_reflect no_shear #
lump $-1 $-1 $32 $2 #
transform $-1 1 0 0 0 1 0 0 0 1 66.087221900082397 39.774757968972899 14.958110599818792 1 rotate no_reflect no_shear #
lump $-1 $-1 $33 $3 #
transform $-1 1 0 0 0 1 0 0 0 1 66.087221900082397 39.774757968972899 14.958110599818792 1 rotate no_reflect no_shear #
lump $-1 $-1 $34 $4 #
transform $-1 1 0 0 0 1 0 0 0 1 66.087221900082397 39.774757968972899 14.958110599818792 1 rotate no_reflect no_shear #
lump $-1 $-1 $35 $5 #
transform $-1 1 0 0 0 1 0 0 0 1 66.087221900082397 39.774757968972899 14.958110599818792 1 rotate no_reflect no_shear #
lump $-1 $-1 $36 $6 #
transform $-1 1 0 0 0 1 0 0 0 1 66.087221900082397 39.774757968972899 14.958110599818792 1 rotate no_reflect no_shear #
lump $-1 $-1 $37 $7 #
transform $-1 1 0 0 0 1 0 0 0 1 66.087221900082397 39.774757968972899 14.958110599818792 1 rotate no_reflect no_shear #
lump $-1 $-1 $38 $8 #
transform $-1 1 0 0 0 1 0 0 0 1 66.087221900082397 39.774757968972899 14.958110599818792 1 rotate no_reflect no_shear #
lump $-1 $-1 $39 $9 #
transform $-1 1 0 0 0 1 0 0 0 1 66.087221900082397 39.774757968972899 14.958110599818792 1 rotate no_reflect no_shear #
shell $-1 $-1 $-1 $40 $-1 $10 #
shell $-1 $-1 $-1 $41 $-1 $12 #
shell $-1 $-1 $-1 $42 $-1 $14 #
shell $-1 $-1 $-1 $43 $-1 $16 #
shell $-1 $-1 $-1 $44 $-1 $18 #
shell $-1 $-1 $-1 $45 $-1 $20 #
shell $-1 $-1 $-1 $46 $-1 $22 #
shell $-1 $-1 $-1 $47 $-1 $24 #
shell $-1 $-1 $-1 $48 $-1 $26 #
shell $-1 $-1 $-1 $49 $-1 $28 #
face $-1 $50 $51 $30 $-1 $52 forward single #
face $-1 $53 $54 $31 $-1 $55 reversed single #
face $-1 $56 $57 $32 $-1 $58 reversed single #
face $-1 $59 $60 $33 $-1 $61 forward single #
face $-1 $62 $63 $34 $-1 $64 forward single #
face $-1 $65 $66 $35 $-1 $67 forward single #
face $-1 $68 $69 $36 $-1 $70 reversed single #
face $-1 $71 $72 $37 $-1 $73 forward single #
face $-1 $74 $75 $38 $-1 $76 reversed single #
face $-1 $77 $78 $39 $-1 $79 forward single #
face $-1 $80 $81 $30 $-1 $82 reversed single #
loop $-1 $-1 $83 $40 #
plane-surface $-1 0 0 14.958110599818792 0 0 1 1 0 0 forward_v I I I I #
face $-1 $84 $85 $31 $-1 $86 reversed single #
loop $-1 $-1 $87 $41 #
plane-surface $-1 -61.117150333565988 -16.114676254984801 0 0 1 0 0 0 1 forward_v I I I I #
face $-1 $88 $89 $32 $-1 $90 reversed single #
loop $-1 $-1 $91 $42 #
plane-surface $-1 50.591290833575457 -39.774757968972921 7.0930459797380934 0 -0.68199836817093118 0.7313536940579346 1 0 0 forward_v I I I I #
face $-1 $92 $93 $33 $-1 $94 forward single #
loop $-1 $95 $96 $43 #
cone-surface $-1 41.293732193671289 -33.927670474885296 9.2776570224694996 0 0.68199836817093118 -0.7313536940579346 2.5 0 0 1 I I 0 1 2.5 forward I I I I #
face $-1 $97 $98 $34 $-1 $99 forward single #
loop $-1 $100 $101 $44 #
cone-surface $-1 50.591290833575457 -33.927670474885296 9.2776570224694996 0 0.68199836817093118 -0.7313536940579346 2.5 0 0 1 I I 0 1 2.5 forward I I I I #
face $-1 $102 $103 $35 $-1 $104 forward single #
loop $-1 $105 $106 $45 #
cone-surface $-1 59.888849473479624 -33.927670474885296 9.2776570224694996 0 0.68199836817093118 -0.7313536940579346 2.5 0 0 1 I I 0 1 2.5 forward I I I I #
face $-1 $107 $108 $36 $-1 $109 reversed single #
loop $-1 $-1 $110 $46 #
plane-surface $-1 -46.269110282077477 47.736232721651923 157.37771321066651 1 0 0 0 -0.55919291073839883 -0.82903756765294845 forward_v I I I I #
face $-1 $111 $112 $37 $-1 $113 forward single #
loop $-1 $114 $115 $47 #
cone-surface $-1 -39.925457090086311 28.159523724949651 4.7110017759318685 0 -0.55919291073839883 -0.82903756765294845 3 0 0 1 I I 0 1 3 forward I I I I #
face $-1 $116 $117 $38 $-1 $118 reversed single #
loop $-1 $-1 $119 $48 #
plane-surface $-1 43.521947031127951 47.736232721651923 157.37771321066651 1 0 0 0 -0.55919291073839883 -0.82903756765294845 forward_v I I I I #
face $-1 $120 $121 $39 $-1 $122 forward single #
loop $-1 $123 $124 $49 #
cone-surface $-1 49.865600223119117 28.159523724949651 4.7110017759318685 0 -0.55919291073839883 -0.82903756765294845 3 0 0 1 I I 0 1 3 forward I I I I #
face $-1 $125 $126 $30 $-1 $127 reversed single #
loop $-1 $-1 $128 $50 #
plane-surface $-1 0 0 -14.958110599818792 0 0 1 1 0 0 forward_v I I I I #
coedge $-1 $129 $130 $131 $132 forward $51 $-1 #
face $-1 $133 $134 $31 $-1 $135 reversed single #
loop $-1 $-1 $136 $53 #
plane-surface $-1 -61.117150333565988 -9.8585367693353163 0 0 -1 0 0 0 -1 forward_v I I I I #
coedge $-1 $137 $138 $139 $140 reversed $54 $-1 #
face $-1 $141 $142 $32 $-1 $143 reversed single #
loop $-1 $-1 $144 $56 #
plane-surface $-1 35.095359767068516 -129.91751295458576 103.75931371304149 1 0 0 0 0.68199836817093118 -0.7313536940579346 forward_v I I I I #
coedge $-1 $145 $146 $147 $148 reversed $57 $-1 #
face $-1 $-1 $149 $33 $-1 $150 forward single #
loop $-1 $151 $152 $59 #
cone-surface $-1 41.293732193671289 -31.445209527294512 6.6155436375881429 0 0.68199836817093118 -0.7313536940579346 1.25 0 0 1 I I -0.70710678118654746 0.70710678118654746 1.25 forward I I I I #
loop $-1 $-1 $153 $43 #
coedge $-1 $96 $96 $154 $155 reversed $60 $-1 #
face $-1 $-1 $156 $34 $-1 $157 forward single #
loop $-1 $158 $159 $62 #
cone-surface $-1 50.591290833575457 -31.445209527294512 6.6155436375881429 0 0.68199836817093118 -0.7313536940579346 1.25 0 0 1 I I -0.70710678118654746 0.70710678118654746 1.25 forward I I I I #
loop $-1 $-1 $160 $44 #
coedge $-1 $101 $101 $161 $162 reversed $63 $-1 #
face $-1 $-1 $163 $35 $-1 $164 forward single #
loop $-1 $165 $166 $65 #
cone-surface $-1 59.888849473479624 -31.445209527294512 6.6155436375881429 0 0.68199836817093118 -0.7313536940579346 1.25 0 0 1 I I -0.70710678118654746 0.70710678118654746 1.25 forward I I I I #
loop $-1 $-1 $167 $45 #
coedge $-1 $106 $106 $168 $169 reversed $66 $-1 #
face $-1 $170 $171 $36 $-1 $172 reversed single #
loop $-1 $-1 $173 $68 #
plane-surface $-1 -39.925457090086311 -26.174779232191135 47.800133816696558 0 0.55919291073839883 0.82903756765294845 1 0 0 forward_v I I I I #
coedge $-1 $174 $175 $176 $177 reversed $69 $-1 #
face $-1 $-1 $178 $37 $-1 $179 forward single #
loop $-1 $180 $181 $71 #
cone-surface $-1 -39.925457090086311 24.33511830159356 -0.95891232528808601 0 -0.55919291073839883 -0.82903756765294845 1.5 0 0 1 I I -0.70710678118654757 0.70710678118654757 1.5 forward I I I I #
loop $-1 $-1 $182 $47 #
coedge $-1 $115 $115 $183 $184 reversed $72 $-1 #
face $-1 $185 $186 $38 $-1 $187 reversed single #
loop $-1 $-1 $188 $74 #
plane-surface $-1 49.865600223119117 -26.174779232191135 47.800133816696558 0 0.55919291073839883 0.82903756765294845 1 0 0 forward_v I I I I #
coedge $-1 $189 $190 $191 $192 reversed $75 $-1 #
face $-1 $-1 $193 $39 $-1 $194 forward single #
loop $-1 $195 $196 $77 #
cone-surface $-1 49.865600223119117 24.33511830159356 -0.95891232528808601 0 -0.55919291073839883 -0.82903756765294845 1.5 0 0 1 I I -0.70710678118654757 0.70710678118654757 1.5 forward I I I I #
loop $-1 $-1 $197 $49 #
coedge $-1 $124 $124 $198 $199 reversed $78 $-1 #
face $-1 $200 $201 $30 $-1 $202 reversed single #
loop $-1 $-1 $203 $80 #
plane-surface $-1 0 -39.774757968972899 0 0 1 0 0 0 1 forward_v I I I I #
coedge $-1 $204 $205 $206 $207 forward $81 $-1 #
coedge $-1 $208 $83 $209 $210 forward $51 $-1 #
coedge $-1 $83 $208 $211 $212 forward $51 $-1 #
coedge $-1 $213 $214 $83 $132 reversed $215 $-1 #
edge $-1 $216 -39.774757968972899 $217 39.774757968972899 $131 $218 forward 7 unknown #
face $-1 $219 $220 $31 $-1 $221 reversed single #
loop $-1 $-1 $222 $84 #
plane-surface $-1 -56.147078767049578 -12.986606512160058 0 -1 0 0 0 0 1 forward_v I I I I #
coedge $-1 $223 $224 $225 $226 forward $85 $-1 #
coedge $-1 $227 $87 $228 $229 reversed $54 $-1 #
coedge $-1 $87 $227 $230 $231 reversed $54 $-1 #
coedge $-1 $232 $233 $87 $140 forward $234 $-1 #
edge $-1 $235 -14.958110599818792 $236 14.958110599818792 $139 $237 forward 7 unknown #
face $-1 $238 $239 $32 $-1 $240 forward single #
loop $-1 $-1 $241 $88 #
plane-surface $-1 0 -39.774757968972899 0 0 1 0 0 0 1 forward_v I I I I #
coedge $-1 $242 $243 $244 $245 reversed $89 $-1 #
coedge $-1 $246 $91 $247 $248 reversed $57 $-1 #
coedge $-1 $91 $246 $242 $249 forward $57 $-1 #
coedge $-1 $244 $250 $91 $148 forward $239 $-1 #
edge $-1 $251 -40.791576483294669 $252 -9.7997143502807873 $147 $253 forward 7 unknown #
loop $-1 $-1 $154 $92 #
plane-surface $-1 50.591290833575457 -39.774757968972921 7.0930459797380934 0 -0.68199836817093118 0.7313536940579346 1 0 0 forward_v I I I I #
loop $-1 $-1 $254 $59 #
coedge $-1 $152 $152 $153 $255 reversed $93 $-1 #
coedge $-1 $153 $153 $152 $255 forward $95 $-1 #
coedge $-1 $154 $154 $96 $155 forward $149 $-1 #
edge $-1 $256 7.6514153254475914e-016 $256 6.2831853071796013 $154 $257 forward 7 unknown #
loop $-1 $-1 $161 $97 #
plane-surface $-1 50.591290833575457 -39.774757968972921 7.0930459797380934 0 -0.68199836817093118 0.7313536940579346 1 0 0 forward_v I I I I #
loop $-1 $-1 $258 $62 #
coedge $-1 $159 $159 $160 $259 reversed $98 $-1 #
coedge $-1 $160 $160 $159 $259 forward $100 $-1 #
coedge $-1 $161 $161 $101 $162 forward $156 $-1 #
edge $-1 $260 7.6514153254475914e-016 $260 6.2831853071796013 $161 $261 forward 7 unknown #
loop $-1 $-1 $168 $102 #
plane-surface $-1 50.591290833575457 -39.774757968972921 7.0930459797380934 0 -0.68199836817093118 0.7313536940579346 1 0 0 forward_v I I I I #
loop $-1 $-1 $262 $65 #
coedge $-1 $166 $166 $167 $263 reversed $103 $-1 #
coedge $-1 $167 $167 $166 $263 forward $105 $-1 #
coedge $-1 $168 $168 $106 $169 forward $163 $-1 #
edge $-1 $264 7.6514153254475914e-016 $264 6.2831853071796013 $168 $265 forward 7 unknown #
face $-1 $266 $267 $36 $-1 $268 forward single #
loop $-1 $-1 $269 $107 #
plane-surface $-1 -33.581803898095146 47.736232721651923 157.37771321066651 -1 0 0 0 0.55919291073839883 0.82903756765294845 forward_v I I I I #
coedge $-1 $270 $271 $272 $273 reversed $108 $-1 #
coedge $-1 $175 $110 $274 $275 reversed $69 $-1 #
coedge $-1 $110 $174 $270 $276 reversed $69 $-1 #
coedge $-1 $272 $277 $110 $177 forward $267 $-1 #
edge $-1 $278 -15.906641608146938 $279 1.3525947654026318 $176 $280 forward 7 unknown #
loop $-1 $-1 $183 $111 #
plane-surface $-1 -39.925457090086311 -26.174779232191135 47.800133816696558 0 0.55919291073839883 0.82903756765294845 1 0 0 forward_v I I I I #
loop $-1 $-1 $281 $71 #
coedge $-1 $181 $181 $182 $282 reversed $112 $-1 #
coedge $-1 $182 $182 $181 $282 forward $114 $-1 #
coedge $-1 $183 $183 $115 $184 forward $178 $-1 #
edge $-1 $283 9.4713235451730216e-016 $283 6.2831853071796013 $183 $284 forward 7 unknown #
face $-1 $285 $286 $38 $-1 $287 forward single #
loop $-1 $-1 $288 $116 #
plane-surface $-1 56.209253415110283 47.736232721651923 157.37771321066651 -1 0 0 0 0.55919291073839883 0.82903756765294845 forward_v I I I I #
coedge $-1 $289 $290 $291 $292 reversed $117 $-1 #
coedge $-1 $190 $119 $293 $294 reversed $75 $-1 #
coedge $-1 $119 $189 $289 $295 reversed $75 $-1 #
coedge $-1 $291 $296 $119 $192 forward $286 $-1 #
edge $-1 $297 -15.906641608146938 $298 1.3525947654026318 $191 $299 forward 7 unknown #
loop $-1 $-1 $198 $120 #
plane-surface $-1 49.865600223119117 -26.174779232191135 47.800133816696558 0 0.55919291073839883 0.82903756765294845 1 0 0 forward_v I I I I #
loop $-1 $-1 $300 $77 #
coedge $-1 $196 $196 $197 $301 reversed $121 $-1 #
coedge $-1 $197 $197 $196 $301 forward $123 $-1 #
coedge $-1 $198 $198 $124 $199 forward $193 $-1 #
edge $-1 $302 9.4713235451730216e-016 $302 6.2831853071796013 $198 $303 forward 7 unknown #
face $-1 $304 $305 $30 $-1 $306 reversed single #
loop $-1 $-1 $307 $125 #
plane-surface $-1 -66.087221900082397 0 0 1 0 0 0 0 -1 forward_v I I I I #
coedge $-1 $308 $211 $309 $310 forward $126 $-1 #
coedge $-1 $311 $128 $308 $312 forward $81 $-1 #
coedge $-1 $128 $311 $313 $314 forward $81 $-1 #
coedge $-1 $214 $213 $128 $207 reversed $215 $-1 #
edge $-1 $315 -39.774757968972899 $316 39.774757968972899 $206 $317 forward 7 unknown #
coedge $-1 $130 $129 $318 $319 forward $51 $-1 #
coedge $-1 $320 $321 $129 $210 reversed $305 $-1 #
edge $-1 $217 -66.087221900082397 $322 66.087221900082397 $209 $323 forward 7 unknown #
coedge $-1 $203 $324 $130 $212 reversed $126 $-1 #
edge $-1 $325 -66.087221900082397 $216 66.087221900082397 $211 $326 forward 7 unknown #
coedge $-1 $206 $131 $324 $327 forward $215 $-1 #
coedge $-1 $131 $206 $320 $328 reversed $215 $-1 #
loop $-1 $-1 $213 $304 #
vertex $-1 $132 $329 #
vertex $-1 $132 $330 #
straight-curve $-1 66.087221900082397 0 14.958110599818792 0 1 0 I I #
face $-1 $331 $332 $31 $-1 $333 forward single #
loop $-1 $-1 $334 $133 #
plane-surface $-1 0 0 -14.958110599818792 0 0 1 1 0 0 forward_v I I I I #
coedge $-1 $335 $336 $227 $337 forward $134 $-1 #
coedge $-1 $338 $136 $334 $339 reversed $85 $-1 #
coedge $-1 $136 $338 $340 $341 reversed $85 $-1 #
coedge $-1 $336 $335 $136 $226 reversed $134 $-1 #
edge $-1 $342 -14.958110599818792 $343 14.958110599818792 $225 $344 forward 7 unknown #
coedge $-1 $138 $137 $222 $337 reversed $54 $-1 #
coedge $-1 $345 $346 $137 $229 forward $220 $-1 #
edge $-1 $347 25.588503600266584 $235 35.528646733299404 $228 $348 forward 7 unknown #
coedge $-1 $349 $350 $138 $231 forward $332 $-1 #
edge $-1 $236 -35.528646733299404 $351 -25.588503600266584 $230 $352 forward 7 unknown #
coedge $-1 $353 $139 $350 $354 reversed $234 $-1 #
coedge $-1 $139 $353 $345 $355 reversed $234 $-1 #
loop $-1 $-1 $353 $331 #
vertex $-1 $355 $356 #
vertex $-1 $140 $357 #
straight-curve $-1 -66.087221900082397 -16.114676254984801 0 0 0 1 I I #
face $-1 $-1 $358 $32 $-1 $359 reversed single #
loop $-1 $-1 $244 $141 #
plane-surface $-1 0 0 14.958110599818792 0 0 1 1 0 0 forward_v I I I I #
coedge $-1 $360 $361 $243 $362 forward $142 $-1 #
coedge $-1 $243 $144 $146 $249 reversed $89 $-1 #
coedge $-1 $144 $242 $241 $362 reversed $89 $-1 #
coedge $-1 $363 $147 $144 $245 forward $239 $-1 #
edge $-1 $252 -33.618247521740926 $364 -25.183998508319981 $244 $365 forward 7 unknown #
coedge $-1 $146 $145 $360 $366 reversed $57 $-1 #
coedge $-1 $367 $368 $145 $248 forward $358 $-1 #
edge $-1 $369 -12.125985193662899 $251 -0.59360478463905231 $247 $370 forward 7 unknown #
edge $-1 $371 2.8915938760888084e-014 $252 11.532380409023876 $242 $372 forward 7 unknown #
coedge $-1 $147 $363 $367 $373 forward $239 $-1 #
vertex $-1 $248 $374 #
vertex $-1 $148 $375 #
straight-curve $-1 25.295645416787728 -31.340508955551954 14.958110599818792 -1 0 0 I I #
coedge $-1 $254 $254 $-1 $376 reversed $151 $-1 #
edge $-1 $377 0 $377 6.2831853071796004 $152 $378 forward 7 unknown #
vertex $-1 $155 $379 #
ellipse-curve $-1 41.293732193671289 -35.55763346226243 11.025578289778451 0 -0.68199836817093118 0.7313536940579346 2.5 0 0 1 I I #
coedge $-1 $258 $258 $-1 $380 reversed $158 $-1 #
edge $-1 $381 0 $381 6.2831853071796004 $159 $382 forward 7 unknown #
vertex $-1 $162 $383 #
ellipse-curve $-1 50.591290833575457 -35.55763346226243 11.025578289778451 0 -0.68199836817093118 0.7313536940579346 2.5 0 0 1 I I #
coedge $-1 $262 $262 $-1 $384 reversed $165 $-1 #
edge $-1 $385 0 $385 6.2831853071796004 $166 $386 forward 7 unknown #
vertex $-1 $169 $387 #
ellipse-curve $-1 59.888849473479624 -35.55763346226243 11.025578289778451 0 -0.68199836817093118 0.7313536940579346 2.5 0 0 1 I I #
face $-1 $-1 $388 $36 $-1 $389 reversed single #
loop $-1 $-1 $176 $170 #
plane-surface $-1 0 0 14.958110599818792 0 0 1 1 0 0 forward_v I I I I #
coedge $-1 $390 $391 $392 $393 reversed $171 $-1 #
coedge $-1 $394 $173 $175 $276 forward $108 $-1 #
coedge $-1 $173 $394 $390 $395 forward $108 $-1 #
coedge $-1 $392 $176 $173 $273 forward $267 $-1 #
edge $-1 $279 -26.306381737034322 $396 -13.61907535305199 $272 $397 forward 7 unknown #
coedge $-1 $398 $399 $174 $275 forward $388 $-1 #
edge $-1 $400 -75.372248153807249 $278 -63.730746005514462 $274 $401 forward 7 unknown #
edge $-1 $279 58.731115123599793 $400 79.549515937945785 $175 $402 forward 7 unknown #
coedge $-1 $176 $392 $398 $403 forward $267 $-1 #
vertex $-1 $275 $404 #
vertex $-1 $177 $405 #
straight-curve $-1 -46.269110282077477 23.868116360825962 14.958110599818795 0 -1 0 I I #
coedge $-1 $281 $281 $-1 $406 reversed $180 $-1 #
edge $-1 $407 0 $407 6.2831853071796004 $181 $408 forward 7 unknown #
vertex $-1 $184 $409 #
ellipse-curve $-1 -39.925457090086311 31.145139782198132 9.1373595256723839 0 0.55919291073839883 0.82903756765294845 3 0 0 1 I I #
face $-1 $-1 $410 $38 $-1 $411 reversed single #
loop $-1 $-1 $191 $185 #
plane-surface $-1 0 0 14.958110599818792 0 0 1 1 0 0 forward_v I I I I #
coedge $-1 $412 $413 $414 $415 reversed $186 $-1 #
coedge $-1 $416 $188 $190 $295 forward $117 $-1 #
coedge $-1 $188 $416 $412 $417 forward $117 $-1 #
coedge $-1 $414 $191 $188 $292 forward $286 $-1 #
edge $-1 $298 18.589146919568392 $418 31.276453303550724 $291 $419 forward 7 unknown #
coedge $-1 $420 $421 $189 $294 forward $410 $-1 #
edge $-1 $422 -75.372248153807249 $297 -63.730746005514462 $293 $423 forward 7 unknown #
edge $-1 $298 58.731115123599793 $422 79.549515937945785 $190 $424 forward 7 unknown #
coedge $-1 $191 $414 $420 $425 forward $286 $-1 #
vertex $-1 $192 $426 #
vertex $-1 $192 $427 #
straight-curve $-1 43.521947031127951 23.868116360825962 14.958110599818795 0 -1 0 I I #
coedge $-1 $300 $300 $-1 $428 reversed $195 $-1 #
edge $-1 $429 0 $429 6.2831853071796004 $196 $430 forward 7 unknown #
vertex $-1 $199 $431 #
ellipse-curve $-1 49.865600223119117 31.145139782198132 9.1373595256723839 0 0.55919291073839883 0.82903756765294845 3 0 0 1 I I #
face $-1 $-1 $215 $30 $-1 $432 reversed single #
loop $-1 $-1 $320 $200 #
plane-surface $-1 0 39.774757968972899 0 0 -1 0 0 0 -1 forward_v I I I I #
coedge $-1 $433 $318 $321 $434 forward $201 $-1 #
coedge $-1 $324 $203 $204 $312 reversed $126 $-1 #
coedge $-1 $318 $433 $203 $310 reversed $201 $-1 #
edge $-1 $325 -14.958110599818792 $435 14.958110599818792 $309 $436 forward 7 unknown #
coedge $-1 $205 $204 $433 $437 forward $81 $-1 #
edge $-1 $316 -66.087221900082397 $435 66.087221900082397 $308 $438 forward 7 unknown #
coedge $-1 $321 $320 $205 $314 reversed $305 $-1 #
edge $-1 $439 -66.087221900082397 $315 66.087221900082397 $313 $440 forward 7 unknown #
vertex $-1 $207 $441 #
vertex $-1 $327 $442 #
straight-curve $-1 66.087221900082397 0 -14.958110599818792 0 -1 0 I I #
coedge $-1 $307 $309 $208 $319 reversed $201 $-1 #
edge $-1 $322 -39.774757968972899 $325 39.774757968972899 $318 $443 forward 7 unknown #
coedge $-1 $313 $209 $214 $328 forward $305 $-1 #
coedge $-1 $209 $313 $307 $434 reversed $305 $-1 #
vertex $-1 $210 $444 #
straight-curve $-1 0 39.774757968972899 14.958110599818792 -1 0 0 I I #
coedge $-1 $211 $308 $213 $327 reversed $126 $-1 #
vertex $-1 $319 $445 #
straight-curve $-1 0 -39.774757968972899 14.958110599818792 1 0 0 I I #
edge $-1 $216 -14.958110599818792 $316 14.958110599818792 $213 $446 forward 7 unknown #
edge $-1 $217 -14.958110599818792 $315 14.958110599818792 $214 $447 forward 7 unknown #
point $-1 66.087221900082397 -39.774757968972899 14.958110599818792 #
point $-1 66.087221900082397 39.774757968972899 14.958110599818792 #
face $-1 $-1 $234 $31 $-1 $448 reversed single #
loop $-1 $-1 $340 $219 #
plane-surface $-1 0 0 14.958110599818792 0 0 1 1 0 0 forward_v I I I I #
coedge $-1 $346 $345 $223 $339 forward $220 $-1 #
coedge $-1 $225 $222 $346 $449 reversed $134 $-1 #
coedge $-1 $222 $225 $349 $450 reversed $134 $-1 #
edge $-1 $351 -14.958110599818792 $347 14.958110599818792 $222 $451 forward 7 unknown #
coedge $-1 $224 $223 $353 $452 reversed $85 $-1 #
edge $-1 $453 -35.528646733299404 $343 -25.588503600266584 $334 $454 forward 7 unknown #
coedge $-1 $350 $349 $224 $341 forward $332 $-1 #
edge $-1 $342 25.588503600266584 $455 35.528646733299404 $340 $456 forward 7 unknown #
vertex $-1 $341 $457 #
vertex $-1 $339 $458 #
straight-curve $-1 -56.147078767049578 -9.8585367693353163 0 0 0 -1 I I #
coedge $-1 $334 $228 $233 $355 forward $220 $-1 #
coedge $-1 $228 $334 $335 $449 forward $220 $-1 #
vertex $-1 $229 $459 #
straight-curve $-1 -30.558575166782994 -16.114676254984801 -14.958110599818792 -1 0 0 I I #
coedge $-1 $340 $230 $336 $450 forward $332 $-1 #
coedge $-1 $230 $340 $232 $354 forward $332 $-1 #
vertex $-1 $231 $460 #
straight-curve $-1 -30.558575166782994 -16.114676254984801 14.958110599818792 1 0 0 I I #
coedge $-1 $233 $232 $338 $452 forward $234 $-1 #
edge $-1 $455 9.8585367693353163 $236 16.114676254984801 $232 $461 forward 7 unknown #
edge $-1 $235 -16.114676254984801 $453 -9.8585367693353163 $233 $462 forward 7 unknown #
point $-1 -66.087221900082397 -16.114676254984801 -14.958110599818792 #
point $-1 -66.087221900082397 -16.114676254984801 14.958110599818792 #
loop $-1 $-1 $247 $238 #
plane-surface $-1 66.087221900082397 0 0 -1 0 0 0 0 1 forward_v I I I I #
coedge $-1 $463 $241 $246 $366 forward $142 $-1 #
coedge $-1 $241 $463 $363 $464 reversed $142 $-1 #
edge $-1 $364 36.921546256701959 $371 44.786610876782632 $241 $465 forward 7 unknown #
coedge $-1 $250 $244 $361 $464 forward $239 $-1 #
vertex $-1 $464 $466 #
straight-curve $-1 35.095359767068516 -64.95875647729288 14.958110599818795 0 -1 0 I I #
edge $-1 $371 9.7997143502807873 $369 40.791576483294669 $360 $467 forward 7 unknown #
coedge $-1 $368 $247 $250 $373 reversed $358 $-1 #
coedge $-1 $247 $367 $463 $468 forward $358 $-1 #
vertex $-1 $366 $469 #
straight-curve $-1 66.087221900082397 -30.906373903495719 15.362948094281084 0 0.7313536940579346 0.68199836817093118 I I #
vertex $-1 $366 $470 #
straight-curve $-1 35.095359767068516 -39.774757968972921 7.0930459797380934 0 0.7313536940579346 0.68199836817093118 I I #
edge $-1 $471 -39.774757968972899 $251 -31.340508955551954 $367 $472 forward 7 unknown #
point $-1 66.087221900082397 -31.340508955551954 14.958110599818792 #
point $-1 35.095359767068516 -31.340508955551954 14.958110599818792 #
edge $-1 $473 1 $473 0 $254 $-1 forward 7 unknown #
vertex $-1 $255 $474 #
ellipse-curve $-1 41.293732193671289 -32.297707487508177 7.5297357551605613 0 -0.68199836817093118 0.7313536940579346 2.5 0 0 1 I I #
point $-1 43.793732193671289 -35.557633462262416 11.025578289778439 #
edge $-1 $475 1 $475 0 $258 $-1 forward 7 unknown #
vertex $-1 $259 $476 #
ellipse-curve $-1 50.591290833575457 -32.297707487508177 7.5297357551605613 0 -0.68199836817093118 0.7313536940579346 2.5 0 0 1 I I #
point $-1 53.091290833575457 -35.557633462262416 11.025578289778439 #
edge $-1 $477 1 $477 0 $262 $-1 forward 7 unknown #
vertex $-1 $263 $478 #
ellipse-curve $-1 59.888849473479624 -32.297707487508177 7.5297357551605613 0 -0.68199836817093118 0.7313536940579346 2.5 0 0 1 I I #
point $-1 62.388849473479624 -35.557633462262416 11.025578289778439 #
loop $-1 $-1 $274 $266 #
plane-surface $-1 0 39.774757968972899 0 0 -1 0 0 0 -1 forward_v I I I I #
coedge $-1 $391 $269 $271 $395 reversed $171 $-1 #
coedge $-1 $269 $390 $479 $480 reversed $171 $-1 #
coedge $-1 $277 $272 $269 $393 forward $267 $-1 #
edge $-1 $396 -1.3525947654026318 $481 15.906641608146938 $392 $482 forward 7 unknown #
coedge $-1 $271 $270 $399 $483 reversed $108 $-1 #
edge $-1 $484 -79.549515937945785 $396 -58.731115123599793 $390 $485 forward 7 unknown #
vertex $-1 $273 $486 #
straight-curve $-1 -19.962728545043156 22.515521595423333 14.958110599818788 1 0 0 I I #
coedge $-1 $479 $274 $277 $403 reversed $388 $-1 #
coedge $-1 $274 $479 $394 $483 forward $388 $-1 #
vertex $-1 $275 $487 #
straight-curve $-1 -46.269110282077477 39.774757968972899 78.688856605333257 0 0 1 I I #
straight-curve $-1 -46.269110282077477 -26.174779232191135 47.800133816696558 0 0.82903756765294845 -0.55919291073839883 I I #
edge $-1 $481 33.581803898095146 $278 46.269110282077477 $398 $488 forward 7 unknown #
point $-1 -46.269110282077477 39.774757968972899 14.958110599818792 #
point $-1 -46.269110282077477 22.51552159542333 14.958110599818795 #
edge $-1 $489 1 $489 0 $281 $-1 forward 7 unknown #
vertex $-1 $282 $490 #
ellipse-curve $-1 -39.925457090086311 25.173907667701158 0.28464402619133677 0 0.55919291073839883 0.82903756765294845 3 0 0 1 I I #
point $-1 -36.925457090086311 31.145139782198147 9.1373595256723998 #
loop $-1 $-1 $293 $285 #
plane-surface $-1 0 39.774757968972899 0 0 -1 0 0 0 -1 forward_v I I I I #
coedge $-1 $413 $288 $290 $417 reversed $186 $-1 #
coedge $-1 $288 $412 $491 $492 reversed $186 $-1 #
coedge $-1 $296 $291 $288 $415 forward $286 $-1 #
edge $-1 $418 -1.3525947654026318 $493 15.906641608146938 $414 $494 forward 7 unknown #
coedge $-1 $290 $289 $421 $495 reversed $117 $-1 #
edge $-1 $496 -79.549515937945785 $418 -58.731115123599793 $412 $497 forward 7 unknown #
vertex $-1 $292 $498 #
straight-curve $-1 24.932800111559558 22.515521595423333 14.958110599818788 1 0 0 I I #
coedge $-1 $491 $293 $296 $425 reversed $410 $-1 #
coedge $-1 $293 $491 $416 $495 forward $410 $-1 #
vertex $-1 $294 $499 #
straight-curve $-1 43.521947031127951 39.774757968972899 78.688856605333257 0 0 1 I I #
straight-curve $-1 43.521947031127951 -26.174779232191135 47.800133816696558 0 0.82903756765294845 -0.55919291073839883 I I #
edge $-1 $493 -56.209253415110283 $297 -43.521947031127951 $420 $500 forward 7 unknown #
point $-1 43.521947031127951 39.774757968972899 14.958110599818792 #
point $-1 43.521947031127951 22.51552159542333 14.958110599818795 #
edge $-1 $501 1 $501 0 $300 $-1 forward 7 unknown #
vertex $-1 $301 $502 #
ellipse-curve $-1 49.865600223119117 25.173907667701158 0.28464402619133677 0 0.55919291073839883 0.82903756765294845 3 0 0 1 I I #
point $-1 52.865600223119117 31.145139782198147 9.1373595256723998 #
plane-surface $-1 66.087221900082397 0 0 -1 0 0 0 0 1 forward_v I I I I #
coedge $-1 $309 $307 $311 $437 reversed $201 $-1 #
edge $-1 $322 -14.958110599818792 $439 14.958110599818792 $321 $503 forward 7 unknown #
vertex $-1 $437 $504 #
straight-curve $-1 -66.087221900082397 -39.774757968972899 0 0 0 -1 I I #
edge $-1 $435 -39.774757968972899 $439 39.774757968972899 $433 $505 forward 7 unknown #
straight-curve $-1 0 -39.774757968972899 -14.958110599818792 -1 0 0 I I #
vertex $-1 $314 $506 #
straight-curve $-1 0 39.774757968972899 -14.958110599818792 1 0 0 I I #
point $-1 66.087221900082397 39.774757968972899 -14.958110599818792 #
point $-1 66.087221900082397 -39.774757968972899 -14.958110599818792 #
straight-curve $-1 -66.087221900082397 0 14.958110599818792 0 -1 0 I I #
point $-1 -66.087221900082397 39.774757968972899 14.958110599818792 #
point $-1 -66.087221900082397 -39.774757968972899 14.958110599818792 #
straight-curve $-1 66.087221900082397 -39.774757968972899 0 0 0 -1 I I #
straight-curve $-1 66.087221900082397 39.774757968972899 0 0 0 -1 I I #
plane-surface $-1 -66.087221900082397 0 0 1 0 0 0 0 -1 forward_v I I I I #
edge $-1 $343 3.3652335132552871 $347 9.6213729989047714 $346 $507 forward 7 unknown #
edge $-1 $351 -9.6213729989047714 $342 -3.3652335132552871 $349 $508 forward 7 unknown #
straight-curve $-1 -56.147078767049578 -16.114676254984801 0 0 0 -1 I I #
edge $-1 $455 -14.958110599818792 $453 14.958110599818792 $353 $509 forward 7 unknown #
vertex $-1 $452 $510 #
straight-curve $-1 -30.558575166782994 -9.8585367693353163 -14.958110599818792 1 0 0 I I #
vertex $-1 $354 $511 #
straight-curve $-1 -30.558575166782994 -9.8585367693353163 14.958110599818792 -1 0 0 I I #
point $-1 -56.147078767049578 -9.8585367693353163 14.958110599818792 #
point $-1 -56.147078767049578 -9.8585367693353163 -14.958110599818792 #
point $-1 -56.147078767049578 -16.114676254984801 -14.958110599818792 #
point $-1 -56.147078767049578 -16.114676254984801 14.958110599818792 #
straight-curve $-1 -66.087221900082397 0 14.958110599818792 0 -1 0 I I #
straight-curve $-1 -66.087221900082397 0 -14.958110599818792 0 1 0 I I #
coedge $-1 $361 $360 $368 $468 reversed $142 $-1 #
edge $-1 $364 35.095359767068516 $471 66.087221900082397 $361 $512 forward 7 unknown #
straight-curve $-1 35.095359767068516 -39.774757968972899 51.879656856520747 0 0 -1 I I #
point $-1 35.095359767068516 -39.774757968972899 14.958110599818792 #
straight-curve $-1 25.295645416787728 -39.774757968972899 7.0930459797381102 1 0 0 I I #
edge $-1 $471 -14.958110599818792 $369 -7.0930459797381129 $368 $513 forward 7 unknown #
point $-1 66.087221900082397 -39.774757968972899 7.0930459797381129 #
point $-1 35.095359767068516 -39.774757968972899 7.0930459797381129 #
vertex $-1 $373 $514 #
straight-curve $-1 66.087221900082397 0 14.958110599818792 0 1 0 I I #
vertex $-1 $376 $515 #
point $-1 43.793732193671289 -32.297707487508177 7.5297357551605613 #
vertex $-1 $380 $516 #
point $-1 53.091290833575457 -32.297707487508177 7.5297357551605613 #
vertex $-1 $384 $517 #
point $-1 62.388849473479624 -32.297707487508177 7.5297357551605613 #
coedge $-1 $399 $398 $391 $480 forward $388 $-1 #
edge $-1 $481 63.730746005514462 $484 75.372248153807249 $479 $518 forward 7 unknown #
vertex $-1 $403 $519 #
straight-curve $-1 -33.581803898095146 23.868116360825962 14.958110599818795 0 1 0 I I #
edge $-1 $484 13.61907535305199 $400 26.306381737034322 $399 $520 forward 7 unknown #
vertex $-1 $483 $521 #
straight-curve $-1 -33.581803898095146 -26.174779232191135 47.800133816696558 0 -0.82903756765294845 0.55919291073839883 I I #
point $-1 -33.581803898095146 22.51552159542333 14.958110599818795 #
point $-1 -46.269110282077477 39.774757968972899 3.3166084515260081 #
straight-curve $-1 0 39.774757968972899 14.958110599818792 -1 0 0 I I #
vertex $-1 $406 $522 #
point $-1 -36.925457090086311 25.173907667701158 0.28464402619133677 #
coedge $-1 $421 $420 $413 $492 forward $410 $-1 #
edge $-1 $493 63.730746005514462 $496 75.372248153807249 $491 $523 forward 7 unknown #
vertex $-1 $425 $524 #
straight-curve $-1 56.209253415110283 23.868116360825962 14.958110599818795 0 1 0 I I #
edge $-1 $496 -31.276453303550724 $422 -18.589146919568392 $421 $525 forward 7 unknown #
vertex $-1 $495 $526 #
straight-curve $-1 56.209253415110283 -26.174779232191135 47.800133816696558 0 -0.82903756765294845 0.55919291073839883 I I #
point $-1 56.209253415110283 22.51552159542333 14.958110599818795 #
point $-1 43.521947031127951 39.774757968972899 3.3166084515260081 #
straight-curve $-1 0 39.774757968972899 14.958110599818792 -1 0 0 I I #
vertex $-1 $428 $527 #
point $-1 52.865600223119117 25.173907667701158 0.28464402619133677 #
straight-curve $-1 -66.087221900082397 39.774757968972899 0 0 0 -1 I I #
point $-1 -66.087221900082397 -39.774757968972899 -14.958110599818792 #
straight-curve $-1 -66.087221900082397 0 -14.958110599818792 0 1 0 I I #
point $-1 -66.087221900082397 39.774757968972899 -14.958110599818792 #
straight-curve $-1 -56.147078767049578 -6.4933032560800292 -14.958110599818792 0 -1 0 I I #
straight-curve $-1 -56.147078767049578 -6.4933032560800292 14.958110599818792 0 1 0 I I #
straight-curve $-1 -66.087221900082397 -9.8585367693353163 0 0 0 -1 I I #
point $-1 -66.087221900082397 -9.8585367693353163 -14.958110599818792 #
point $-1 -66.087221900082397 -9.8585367693353163 14.958110599818792 #
straight-curve $-1 0 -39.774757968972899 14.958110599818792 1 0 0 I I #
straight-curve $-1 66.087221900082397 -39.774757968972899 0 0 0 -1 I I #
point $-1 66.087221900082397 -39.774757968972899 14.958110599818792 #
point $-1 41.293732193671289 -30.592711567080848 5.7013515200157245 #
point $-1 50.591290833575457 -30.592711567080848 5.7013515200157245 #
point $-1 59.888849473479624 -30.592711567080848 5.7013515200157245 #
straight-curve $-1 -33.581803898095146 39.774757968972899 78.688856605333257 0 0 -1 I I #
point $-1 -33.581803898095146 39.774757968972899 14.958110599818792 #
straight-curve $-1 -19.962728545043156 39.774757968972899 3.316608451526001 -1 0 0 I I #
point $-1 -33.581803898095146 39.774757968972899 3.3166084515260081 #
point $-1 -39.925457090086311 23.496328935485963 -2.2024686767675088 #
straight-curve $-1 56.209253415110283 39.774757968972899 78.688856605333257 0 0 -1 I I #
point $-1 56.209253415110283 39.774757968972899 14.958110599818792 #
straight-curve $-1 24.932800111559558 39.774757968972899 3.316608451526001 -1 0 0 I I #
point $-1 56.209253415110283 39.774757968972899 3.3166084515260081 #
point $-1 49.865600223119117 23.496328935485963 -2.2024686767675088 #
End-of-ACIS-data 