500 0 7 0           
7 Unknown 11 ACIS 5.0 NT 24 Thu Mar 25 20:08:41 1999 
-1 9.9999999999999995e-007 1e-010 
body $-1 $7 $-1 $8 #
body $-1 $9 $-1 $10 #
body $-1 $11 $-1 $12 #
body $-1 $13 $-1 $14 #
body $-1 $15 $-1 $16 #
body $-1 $17 $-1 $18 #
body $-1 $19 $-1 $20 #
lump $-1 $-1 $21 $0 #
transform $-1 1 0 0 0 1 0 0 0 1 40.177007354960786 17.313743472265504 8.1928927895402559 1 rotate no_reflect no_shear #
lump $-1 $-1 $22 $1 #
transform $-1 1 0 0 0 1 0 0 0 1 40.177007354960786 17.313743472265504 8.1928927895402559 1 rotate no_reflect no_shear #
lump $-1 $-1 $23 $2 #
transform $-1 1 0 0 0 1 0 0 0 1 40.177007354960786 17.313743472265504 8.1928927895402559 1 rotate no_reflect no_shear #
lump $-1 $-1 $24 $3 #
transform $-1 1 0 0 0 1 0 0 0 1 40.177007354960786 17.313743472265504 8.1928927895402559 1 rotate no_reflect no_shear #
lump $-1 $-1 $25 $4 #
transform $-1 1 0 0 0 1 0 0 0 1 40.177007354960786 17.313743472265504 8.1928927895402559 1 rotate no_reflect no_shear #
lump $-1 $-1 $26 $5 #
transform $-1 1 0 0 0 1 0 0 0 1 40.177007354960786 17.313743472265504 8.1928927895402559 1 rotate no_reflect no_shear #
lump $-1 $-1 $27 $6 #
transform $-1 1 0 0 0 1 0 0 0 1 40.177007354960786 17.313743472265504 8.1928927895402559 1 rotate no_reflect no_shear #
shell $-1 $-1 $-1 $28 $-1 $7 #
shell $-1 $-1 $-1 $29 $-1 $9 #
shell $-1 $-1 $-1 $30 $-1 $11 #
shell $-1 $-1 $-1 $31 $-1 $13 #
shell $-1 $-1 $-1 $32 $-1 $15 #
shell $-1 $-1 $-1 $33 $-1 $17 #
shell $-1 $-1 $-1 $34 $-1 $19 #
face $-1 $35 $36 $21 $-1 $37 forward single #
face $-1 $38 $39 $22 $-1 $40 reversed single #
face $-1 $41 $42 $23 $-1 $43 reversed single #
face $-1 $44 $45 $24 $-1 $46 forward single #
face $-1 $47 $48 $25 $-1 $49 reversed single #
face $-1 $50 $51 $26 $-1 $52 forward single #
face $-1 $53 $54 $27 $-1 $55 forward single #
face $-1 $56 $57 $21 $-1 $58 reversed single #
loop $-1 $-1 $59 $28 #
plane-surface $-1 0 0 8.1928927895402559 0 0 1 1 0 0 forward_v I I I I #
face $-1 $60 $61 $22 $-1 $62 reversed single #
loop $-1 $-1 $63 $29 #
plane-surface $-1 -36.952870134649977 0 4.6231448615558124 0 0 1 1 0 0 forward_v I I I I #
face $-1 $64 $65 $23 $-1 $66 reversed single #
loop $-1 $-1 $67 $30 #
plane-surface $-1 32.360596243072031 60.647972175986084 76.273057938189581 1 0 0 0 -0.79863551827123203 -0.60181501223851219 forward_v I I I I #
face $-1 $68 $69 $24 $-1 $70 forward single #
loop $-1 $71 $72 $31 #
cone-surface $-1 36.268801799016408 13.041022308782159 3.259055603438167 0 -0.79863551827123203 -0.60181501223851219 1.5 0 0 1 I I 0 1 1.5 forward I I I I #
face $-1 $73 $74 $25 $-1 $75 reversed single #
loop $-1 $-1 $76 $32 #
plane-surface $-1 -12.540856895302431 -71.081074705136984 63.079978606411757 -1 0 0 0 -0.66913061440640931 0.74314481823134659 forward_v I I I I #
face $-1 $77 $78 $26 $-1 $79 forward single #
loop $-1 $80 $81 $33 #
cone-surface $-1 -27.675054051757247 -13.755267067248628 4.8043285599167795 0 0.66913061440640931 -0.74314481823134659 1 0 0 1 I I 0 1 1 forward I I I I #
face $-1 $82 $83 $27 $-1 $84 forward single #
loop $-1 $85 $86 $34 #
cone-surface $-1 -18.594535757884358 -13.755267067248628 4.8043285599167795 0 0.66913061440640931 -0.74314481823134659 1 0 0 1 I I 0 1 1 forward I I I I #
face $-1 $87 $88 $21 $-1 $89 reversed single #
loop $-1 $-1 $90 $35 #
plane-surface $-1 0 0 -8.1928927895402559 0 0 1 1 0 0 forward_v I I I I #
coedge $-1 $91 $92 $93 $94 forward $36 $-1 #
face $-1 $95 $96 $22 $-1 $97 reversed single #
loop $-1 $-1 $98 $38 #
plane-surface $-1 -33.728732914339169 0 6.4080188255480337 -1 0 0 0 0 1 forward_v I I I I #
coedge $-1 $99 $100 $101 $102 forward $39 $-1 #
face $-1 $103 $104 $23 $-1 $105 forward single #
loop $-1 $-1 $106 $41 #
plane-surface $-1 36.268801799016408 -3.5255980070463266 27.914805592124544 0 0.79863551827123203 0.60181501223851219 1 0 0 forward_v I I I I #
coedge $-1 $107 $108 $109 $110 reversed $42 $-1 #
face $-1 $-1 $111 $24 $-1 $112 forward single #
loop $-1 $113 $114 $44 #
cone-surface $-1 36.268801799016408 11.158231823440953 1.8402712480529715 0 -0.79863551827123203 -0.60181501223851219 0.75 0 0 1 I I -0.70710678118654757 0.70710678118654757 0.75 forward I I I I #
loop $-1 $-1 $115 $31 #
coedge $-1 $72 $72 $116 $117 reversed $45 $-1 #
face $-1 $118 $119 $25 $-1 $120 forward single #
loop $-1 $-1 $121 $47 #
plane-surface $-1 -23.134794904820801 -17.313743472265514 3.3653089506481422 0 -0.66913061440640931 0.74314481823134659 1 0 0 forward_v I I I I #
coedge $-1 $122 $123 $124 $125 reversed $48 $-1 #
face $-1 $-1 $126 $26 $-1 $127 forward single #
loop $-1 $128 $129 $50 #
cone-surface $-1 -27.675054051757247 -12.543012810578354 3.4579838406236938 0 0.66913061440640931 -0.74314481823134659 0.5 0 0 1 I I -0.70710678118654746 0.70710678118654746 0.5 forward I I I I #
loop $-1 $-1 $130 $33 #
coedge $-1 $81 $81 $131 $132 reversed $51 $-1 #
face $-1 $-1 $133 $27 $-1 $134 forward single #
loop $-1 $135 $136 $53 #
cone-surface $-1 -18.594535757884358 -12.543012810578354 3.4579838406236938 0 0.66913061440640931 -0.74314481823134659 0.5 0 0 1 I I -0.70710678118654746 0.70710678118654746 0.5 forward I I I I #
loop $-1 $-1 $137 $34 #
coedge $-1 $86 $86 $138 $139 reversed $54 $-1 #
face $-1 $140 $141 $21 $-1 $142 reversed single #
loop $-1 $-1 $143 $56 #
plane-surface $-1 0 -17.313743472265504 0 0 1 0 0 0 1 forward_v I I I I #
coedge $-1 $144 $145 $146 $147 forward $57 $-1 #
coedge $-1 $148 $59 $149 $150 forward $36 $-1 #
coedge $-1 $59 $148 $151 $152 forward $36 $-1 #
coedge $-1 $153 $154 $59 $94 reversed $155 $-1 #
edge $-1 $156 -17.313743472265504 $157 17.313743472265504 $93 $158 forward 7 unknown #
face $-1 $159 $160 $22 $-1 $161 reversed single #
loop $-1 $-1 $162 $60 #
plane-surface $-1 0 17.313743472265504 0 0 -1 0 0 0 -1 forward_v I I I I #
coedge $-1 $101 $163 $164 $165 reversed $61 $-1 #
coedge $-1 $166 $63 $167 $168 reversed $39 $-1 #
coedge $-1 $63 $166 $169 $170 reversed $39 $-1 #
coedge $-1 $171 $98 $63 $102 reversed $61 $-1 #
edge $-1 $172 -17.313743472265504 $173 17.313743472265504 $101 $174 forward 7 unknown #
face $-1 $175 $176 $23 $-1 $177 reversed single #
loop $-1 $-1 $109 $64 #
plane-surface $-1 0 0 8.1928927895402559 0 0 1 1 0 0 forward_v I I I I #
coedge $-1 $178 $179 $180 $181 reversed $65 $-1 #
coedge $-1 $108 $67 $182 $183 reversed $42 $-1 #
coedge $-1 $67 $107 $178 $184 reversed $42 $-1 #
coedge $-1 $180 $185 $67 $110 forward $104 $-1 #
edge $-1 $186 13.010242615727538 $187 18.988057249418645 $109 $188 forward 7 unknown #
loop $-1 $-1 $116 $68 #
plane-surface $-1 36.268801799016408 -3.5255980070463266 27.914805592124544 0 0.79863551827123203 0.60181501223851219 1 0 0 forward_v I I I I #
loop $-1 $-1 $189 $44 #
coedge $-1 $114 $114 $115 $190 reversed $69 $-1 #
coedge $-1 $115 $115 $114 $190 forward $71 $-1 #
coedge $-1 $116 $116 $72 $117 forward $111 $-1 #
edge $-1 $191 -2.5997277730670132e-016 $191 6.2831853071796004 $116 $192 forward 7 unknown #
face $-1 $193 $194 $25 $-1 $195 forward single #
loop $-1 $-1 $196 $73 #
plane-surface $-1 -33.728732914339169 0 6.4080188255480337 -1 0 0 0 0 1 forward_v I I I I #
coedge $-1 $197 $198 $199 $200 reversed $74 $-1 #
coedge $-1 $123 $76 $201 $202 reversed $48 $-1 #
coedge $-1 $76 $122 $197 $203 reversed $48 $-1 #
coedge $-1 $199 $204 $76 $125 forward $194 $-1 #
edge $-1 $205 18.226793880302989 $206 23.58836879140258 $124 $207 forward 7 unknown #
loop $-1 $-1 $131 $77 #
plane-surface $-1 -23.134794904820801 -17.313743472265514 3.3653089506481422 0 -0.66913061440640931 0.74314481823134659 1 0 0 forward_v I I I I #
loop $-1 $-1 $208 $50 #
coedge $-1 $129 $129 $130 $209 reversed $78 $-1 #
coedge $-1 $130 $130 $129 $209 forward $80 $-1 #
coedge $-1 $131 $131 $81 $132 forward $126 $-1 #
edge $-1 $210 1.9454645138669056e-016 $210 6.2831853071796004 $131 $211 forward 7 unknown #
loop $-1 $-1 $138 $82 #
plane-surface $-1 -23.134794904820801 -17.313743472265514 3.3653089506481422 0 -0.66913061440640931 0.74314481823134659 1 0 0 forward_v I I I I #
loop $-1 $-1 $212 $53 #
coedge $-1 $136 $136 $137 $213 reversed $83 $-1 #
coedge $-1 $137 $137 $136 $213 forward $85 $-1 #
coedge $-1 $138 $138 $86 $139 forward $133 $-1 #
edge $-1 $214 1.9454645138669056e-016 $214 6.2831853071796004 $138 $215 forward 7 unknown #
face $-1 $216 $217 $21 $-1 $218 reversed single #
loop $-1 $-1 $219 $87 #
plane-surface $-1 -40.177007354960786 0 0 1 0 0 0 0 -1 forward_v I I I I #
coedge $-1 $220 $151 $221 $222 forward $88 $-1 #
coedge $-1 $223 $90 $220 $224 forward $57 $-1 #
coedge $-1 $90 $223 $225 $226 forward $57 $-1 #
coedge $-1 $154 $153 $90 $147 reversed $155 $-1 #
edge $-1 $227 -17.313743472265504 $228 17.313743472265504 $146 $229 forward 7 unknown #
coedge $-1 $92 $91 $230 $231 forward $36 $-1 #
coedge $-1 $232 $233 $91 $150 reversed $217 $-1 #
edge $-1 $157 -40.177007354960786 $234 40.177007354960786 $149 $235 forward 7 unknown #
coedge $-1 $143 $236 $92 $152 reversed $88 $-1 #
edge $-1 $237 -40.177007354960786 $156 40.177007354960786 $151 $238 forward 7 unknown #
coedge $-1 $146 $93 $236 $239 forward $155 $-1 #
coedge $-1 $93 $146 $232 $240 reversed $155 $-1 #
loop $-1 $-1 $153 $216 #
vertex $-1 $94 $241 #
vertex $-1 $94 $242 #
straight-curve $-1 40.177007354960786 0 8.1928927895402559 0 1 0 I I #
face $-1 $243 $244 $22 $-1 $245 forward single #
loop $-1 $-1 $246 $95 #
plane-surface $-1 -40.177007354960786 0 0 1 0 0 0 0 -1 forward_v I I I I #
coedge $-1 $169 $247 $171 $248 forward $96 $-1 #
coedge $-1 $98 $171 $249 $250 reversed $61 $-1 #
coedge $-1 $251 $167 $98 $165 forward $252 $-1 #
edge $-1 $173 1.4191354487817955 $253 4.9888833767662391 $164 $254 forward 7 unknown #
coedge $-1 $100 $99 $246 $255 reversed $39 $-1 #
coedge $-1 $164 $256 $99 $168 forward $252 $-1 #
edge $-1 $257 -21.700572287635797 $173 -15.25229784701418 $167 $258 forward 7 unknown #
coedge $-1 $259 $162 $100 $170 forward $96 $-1 #
edge $-1 $172 15.25229784701418 $260 21.700572287635797 $169 $261 forward 7 unknown #
coedge $-1 $163 $101 $162 $248 reversed $61 $-1 #
vertex $-1 $170 $262 #
vertex $-1 $168 $263 #
straight-curve $-1 -33.728732914339169 0 4.6231448615558124 0 -1 0 I I #
face $-1 $-1 $264 $23 $-1 $265 reversed single #
loop $-1 $-1 $266 $103 #
plane-surface $-1 40.177007354960786 0 0 -1 0 0 0 0 1 forward_v I I I I #
coedge $-1 $267 $106 $108 $184 forward $65 $-1 #
coedge $-1 $106 $267 $266 $268 reversed $65 $-1 #
coedge $-1 $269 $109 $106 $181 forward $104 $-1 #
edge $-1 $187 14.226195343563827 $270 22.042606455452582 $180 $271 forward 7 unknown #
coedge $-1 $272 $273 $107 $183 forward $264 $-1 #
edge $-1 $274 -37.876464359346066 $186 -29.943636179554534 $182 $275 forward 7 unknown #
edge $-1 $187 24.694510012872161 $274 34.627486944530979 $108 $276 forward 7 unknown #
coedge $-1 $109 $269 $272 $277 forward $104 $-1 #
vertex $-1 $183 $278 #
vertex $-1 $110 $279 #
straight-curve $-1 32.360596243072031 30.323986087993042 8.1928927895402595 0 -1 0 I I #
coedge $-1 $189 $189 $-1 $280 reversed $113 $-1 #
edge $-1 $281 0 $281 6.2831853071796004 $114 $282 forward 7 unknown #
vertex $-1 $117 $283 #
ellipse-curve $-1 36.268801799016408 14.324836155419952 4.2264786996444874 0 0.79863551827123203 0.60181501223851219 1.5 0 0 1 I I #
face $-1 $-1 $284 $25 $-1 $285 reversed single #
loop $-1 $-1 $199 $118 #
plane-surface $-1 0 0 8.1928927895402559 0 0 1 1 0 0 forward_v I I I I #
coedge $-1 $286 $287 $198 $288 reversed $119 $-1 #
coedge $-1 $289 $121 $123 $203 forward $74 $-1 #
coedge $-1 $121 $289 $196 $288 forward $74 $-1 #
coedge $-1 $290 $124 $121 $200 forward $194 $-1 #
edge $-1 $206 0.97345944289203068 $291 22.161335461928768 $199 $292 forward 7 unknown #
coedge $-1 $293 $294 $122 $202 forward $284 $-1 #
edge $-1 $295 -28.174680352557726 $205 -23.347096513665623 $201 $296 forward 7 unknown #
edge $-1 $206 -7.2147107529591938 $295 -1.4457923371621692e-014 $123 $297 forward 7 unknown #
coedge $-1 $124 $290 $293 $298 forward $194 $-1 #
vertex $-1 $202 $299 #
vertex $-1 $125 $300 #
straight-curve $-1 -12.540856895302431 -35.540537352568492 8.1928927895402559 0 1 0 I I #
coedge $-1 $208 $208 $-1 $301 reversed $128 $-1 #
edge $-1 $302 0 $302 6.2831853071796004 $129 $303 forward 7 unknown #
vertex $-1 $132 $304 #
ellipse-curve $-1 -27.675054051757247 -14.632956016715708 5.7791008700942035 0 -0.66913061440640931 0.74314481823134659 1 0 0 1 I I #
coedge $-1 $212 $212 $-1 $305 reversed $135 $-1 #
edge $-1 $306 0 $306 6.2831853071796004 $136 $307 forward 7 unknown #
vertex $-1 $139 $308 #
ellipse-curve $-1 -18.594535757884358 -14.632956016715708 5.7791008700942035 0 -0.66913061440640931 0.74314481823134659 1 0 0 1 I I #
face $-1 $-1 $155 $21 $-1 $309 reversed single #
loop $-1 $-1 $232 $140 #
plane-surface $-1 0 17.313743472265504 0 0 -1 0 0 0 -1 forward_v I I I I #
coedge $-1 $310 $230 $233 $311 forward $141 $-1 #
coedge $-1 $236 $143 $144 $224 reversed $88 $-1 #
coedge $-1 $230 $310 $143 $222 reversed $141 $-1 #
edge $-1 $237 -8.1928927895402559 $312 8.1928927895402559 $221 $313 forward 7 unknown #
coedge $-1 $145 $144 $310 $314 forward $57 $-1 #
edge $-1 $228 -40.177007354960786 $312 40.177007354960786 $220 $315 forward 7 unknown #
coedge $-1 $233 $232 $145 $226 reversed $217 $-1 #
edge $-1 $316 -40.177007354960786 $227 40.177007354960786 $225 $317 forward 7 unknown #
vertex $-1 $147 $318 #
vertex $-1 $239 $319 #
straight-curve $-1 40.177007354960786 0 -8.1928927895402559 0 -1 0 I I #
coedge $-1 $219 $221 $148 $231 reversed $141 $-1 #
edge $-1 $234 -17.313743472265504 $237 17.313743472265504 $230 $320 forward 7 unknown #
coedge $-1 $225 $149 $154 $240 forward $217 $-1 #
coedge $-1 $149 $225 $219 $311 reversed $217 $-1 #
vertex $-1 $150 $321 #
straight-curve $-1 0 17.313743472265504 8.1928927895402559 -1 0 0 I I #
coedge $-1 $151 $220 $153 $239 reversed $88 $-1 #
vertex $-1 $231 $322 #
straight-curve $-1 0 -17.313743472265504 8.1928927895402559 1 0 0 I I #
edge $-1 $156 -8.1928927895402559 $228 8.1928927895402559 $153 $323 forward 7 unknown #
edge $-1 $157 -8.1928927895402559 $227 8.1928927895402559 $154 $324 forward 7 unknown #
point $-1 40.177007354960786 -17.313743472265504 8.1928927895402559 #
point $-1 40.177007354960786 17.313743472265504 8.1928927895402559 #
face $-1 $-1 $252 $22 $-1 $325 reversed single #
loop $-1 $-1 $249 $159 #
plane-surface $-1 0 0 8.1928927895402559 0 0 1 1 0 0 forward_v I I I I #
coedge $-1 $326 $327 $166 $255 forward $160 $-1 #
coedge $-1 $162 $259 $328 $329 reversed $96 $-1 #
edge $-1 $330 -4.9888833767662391 $172 -1.4191354487817955 $162 $331 forward 7 unknown #
coedge $-1 $328 $332 $163 $250 forward $244 $-1 #
edge $-1 $253 -17.313743472265504 $330 17.313743472265504 $249 $333 forward 7 unknown #
coedge $-1 $256 $164 $332 $334 reversed $252 $-1 #
loop $-1 $-1 $164 $243 #
vertex $-1 $165 $335 #
straight-curve $-1 -33.728732914339169 -17.313743472265504 3.2040094127740169 0 0 1 I I #
edge $-1 $260 -17.313743472265504 $257 17.313743472265504 $246 $336 forward 7 unknown #
coedge $-1 $167 $251 $326 $337 forward $252 $-1 #
vertex $-1 $255 $338 #
straight-curve $-1 -18.476435067324989 -17.313743472265504 4.6231448615558124 1 0 0 I I #
coedge $-1 $247 $169 $327 $339 reversed $96 $-1 #
vertex $-1 $255 $340 #
straight-curve $-1 -18.476435067324989 17.313743472265504 4.6231448615558124 -1 0 0 I I #
point $-1 -33.728732914339169 17.313743472265504 4.6231448615558124 #
point $-1 -33.728732914339169 -17.313743472265504 4.6231448615558124 #
loop $-1 $-1 $182 $175 #
plane-surface $-1 0 17.313743472265504 0 0 -1 0 0 0 -1 forward_v I I I I #
coedge $-1 $341 $342 $179 $268 forward $176 $-1 #
coedge $-1 $179 $178 $273 $343 reversed $65 $-1 #
edge $-1 $270 12.486753493239295 $344 22.419730424898113 $266 $345 forward 7 unknown #
coedge $-1 $185 $180 $342 $346 forward $104 $-1 #
vertex $-1 $346 $347 #
straight-curve $-1 18.134400899508204 11.335928838574397 8.1928927895402559 1 0 0 I I #
coedge $-1 $348 $182 $185 $277 reversed $264 $-1 #
coedge $-1 $182 $348 $267 $343 forward $264 $-1 #
vertex $-1 $183 $349 #
straight-curve $-1 32.360596243072031 17.313743472265504 38.13652896909479 0 0 1 I I #
straight-curve $-1 32.360596243072031 -3.5255980070463266 27.914805592124544 0 0.60181501223851219 -0.79863551827123203 I I #
edge $-1 $350 -40.177007354960786 $186 -32.360596243072031 $272 $351 forward 7 unknown #
point $-1 32.360596243072031 17.313743472265504 8.1928927895402559 #
point $-1 32.360596243072031 11.335928838574395 8.1928927895402559 #
edge $-1 $352 1 $352 0 $189 $-1 forward 7 unknown #
vertex $-1 $190 $353 #
ellipse-curve $-1 36.268801799016408 11.757208462144378 2.2916325072318555 0 0.79863551827123203 0.60181501223851219 1.5 0 0 1 I I #
point $-1 37.768801799016408 14.324836155419939 4.2264786996444785 #
loop $-1 $-1 $201 $193 #
plane-surface $-1 0 -17.313743472265504 0 0 1 0 0 0 1 forward_v I I I I #
coedge $-1 $287 $196 $354 $355 reversed $119 $-1 #
coedge $-1 $196 $286 $290 $356 reversed $119 $-1 #
edge $-1 $357 1.4457923371621692e-014 $291 7.2147107529591938 $196 $358 forward 7 unknown #
coedge $-1 $198 $197 $294 $359 reversed $74 $-1 #
coedge $-1 $204 $199 $287 $356 forward $194 $-1 #
vertex $-1 $356 $360 #
straight-curve $-1 -11.5673974524104 -11.952168561165912 8.1928927895402559 -1 0 0 I I #
coedge $-1 $354 $201 $204 $298 reversed $284 $-1 #
coedge $-1 $201 $354 $289 $359 forward $284 $-1 #
vertex $-1 $202 $361 #
straight-curve $-1 -12.540856895302431 -17.313743472265504 31.539989303205878 0 0 1 I I #
straight-curve $-1 -12.540856895302431 -17.313743472265514 3.3653089506481422 0 -0.74314481823134659 -0.66913061440640931 I I #
edge $-1 $362 -33.728732914339169 $205 -12.540856895302431 $293 $363 forward 7 unknown #
point $-1 -12.540856895302431 -17.313743472265504 8.1928927895402559 #
point $-1 -12.540856895302431 -11.952168561165912 8.1928927895402559 #
edge $-1 $364 1 $364 0 $208 $-1 forward 7 unknown #
vertex $-1 $209 $365 #
ellipse-curve $-1 -27.675054051757247 -12.877578117781558 3.8295562497393671 0 -0.66913061440640931 0.74314481823134659 1 0 0 1 I I #
point $-1 -26.675054051757247 -14.632956016715697 5.7791008700941919 #
edge $-1 $366 1 $366 0 $212 $-1 forward 7 unknown #
vertex $-1 $213 $367 #
ellipse-curve $-1 -18.594535757884358 -12.877578117781558 3.8295562497393671 0 -0.66913061440640931 0.74314481823134659 1 0 0 1 I I #
point $-1 -17.594535757884358 -14.632956016715697 5.7791008700941919 #
plane-surface $-1 40.177007354960786 0 0 -1 0 0 0 0 1 forward_v I I I I #
coedge $-1 $221 $219 $223 $314 reversed $141 $-1 #
edge $-1 $234 -8.1928927895402559 $316 8.1928927895402559 $233 $368 forward 7 unknown #
vertex $-1 $314 $369 #
straight-curve $-1 -40.177007354960786 -17.313743472265504 0 0 0 -1 I I #
edge $-1 $312 -17.313743472265504 $316 17.313743472265504 $310 $370 forward 7 unknown #
straight-curve $-1 0 -17.313743472265504 -8.1928927895402559 -1 0 0 I I #
vertex $-1 $226 $371 #
straight-curve $-1 0 17.313743472265504 -8.1928927895402559 1 0 0 I I #
point $-1 40.177007354960786 17.313743472265504 -8.1928927895402559 #
point $-1 40.177007354960786 -17.313743472265504 -8.1928927895402559 #
straight-curve $-1 -40.177007354960786 0 8.1928927895402559 0 -1 0 I I #
point $-1 -40.177007354960786 17.313743472265504 8.1928927895402559 #
point $-1 -40.177007354960786 -17.313743472265504 8.1928927895402559 #
straight-curve $-1 40.177007354960786 -17.313743472265504 0 0 0 -1 I I #
straight-curve $-1 40.177007354960786 17.313743472265504 0 0 0 -1 I I #
plane-surface $-1 0 -17.313743472265504 0 0 1 0 0 0 1 forward_v I I I I #
coedge $-1 $372 $246 $256 $337 reversed $160 $-1 #
coedge $-1 $246 $372 $259 $339 forward $160 $-1 #
coedge $-1 $373 $249 $247 $329 forward $244 $-1 #
edge $-1 $330 33.728732914339169 $374 40.177007354960786 $247 $375 forward 7 unknown #
vertex $-1 $329 $376 #
straight-curve $-1 -33.728732914339169 17.313743472265504 3.2040094127740169 0 0 -1 I I #
coedge $-1 $249 $373 $251 $334 forward $244 $-1 #
straight-curve $-1 -33.728732914339169 0 8.1928927895402559 0 1 0 I I #
edge $-1 $377 -40.177007354960786 $253 -33.728732914339169 $251 $378 forward 7 unknown #
point $-1 -33.728732914339169 -17.313743472265504 8.1928927895402559 #
straight-curve $-1 -40.177007354960786 0 4.6231448615558124 0 -1 0 I I #
edge $-1 $377 -8.1928927895402559 $257 -4.6231448615558124 $326 $379 forward 7 unknown #
point $-1 -40.177007354960786 -17.313743472265504 4.6231448615558124 #
edge $-1 $374 -8.1928927895402559 $260 -4.6231448615558124 $259 $380 forward 7 unknown #
point $-1 -40.177007354960786 17.313743472265504 4.6231448615558124 #
coedge $-1 $342 $266 $348 $381 reversed $176 $-1 #
coedge $-1 $266 $341 $269 $346 reversed $176 $-1 #
edge $-1 $344 -22.042606455452582 $274 -14.226195343563827 $273 $382 forward 7 unknown #
vertex $-1 $268 $383 #
straight-curve $-1 40.177007354960786 3.8212131322213025 18.165257637138538 0 0.60181501223851219 -0.79863551827123203 I I #
edge $-1 $270 11.335928838574395 $350 17.313743472265504 $342 $384 forward 7 unknown #
point $-1 40.177007354960786 11.335928838574395 8.1928927895402559 #
coedge $-1 $273 $272 $341 $381 forward $264 $-1 #
point $-1 32.360596243072031 17.313743472265507 0.26006460974872425 #
vertex $-1 $346 $385 #
straight-curve $-1 0 17.313743472265504 8.1928927895402559 -1 0 0 I I #
vertex $-1 $280 $386 #
point $-1 37.768801799016408 11.757208462144378 2.2916325072318555 #
coedge $-1 $294 $293 $286 $355 forward $284 $-1 #
edge $-1 $362 23.347096513665623 $357 28.174680352557726 $354 $387 forward 7 unknown #
edge $-1 $291 11.952168561165912 $362 17.313743472265504 $290 $388 forward 7 unknown #
vertex $-1 $355 $389 #
straight-curve $-1 -33.728732914339169 -17.313743472265514 3.3653089506481422 0 0.74314481823134659 0.66913061440640931 I I #
edge $-1 $357 -22.161335461928768 $295 -0.97345944289203068 $294 $390 forward 7 unknown #
point $-1 -33.728732914339169 -11.952168561165912 8.1928927895402559 #
point $-1 -12.540856895302431 -17.313743472265504 3.3653089506481519 #
vertex $-1 $298 $391 #
straight-curve $-1 0 -17.313743472265504 8.1928927895402559 1 0 0 I I #
vertex $-1 $301 $392 #
point $-1 -26.675054051757247 -12.877578117781558 3.8295562497393671 #
vertex $-1 $305 $393 #
point $-1 -17.594535757884358 -12.877578117781558 3.8295562497393671 #
straight-curve $-1 -40.177007354960786 17.313743472265504 0 0 0 -1 I I #
point $-1 -40.177007354960786 -17.313743472265504 -8.1928927895402559 #
straight-curve $-1 -40.177007354960786 0 -8.1928927895402559 0 1 0 I I #
point $-1 -40.177007354960786 17.313743472265504 -8.1928927895402559 #
coedge $-1 $327 $326 $373 $394 reversed $160 $-1 #
coedge $-1 $332 $328 $372 $394 forward $244 $-1 #
vertex $-1 $329 $395 #
straight-curve $-1 0 17.313743472265504 8.1928927895402559 -1 0 0 I I #
point $-1 -33.728732914339169 17.313743472265504 8.1928927895402559 #
vertex $-1 $394 $396 #
straight-curve $-1 0 -17.313743472265504 8.1928927895402559 1 0 0 I I #
straight-curve $-1 -40.177007354960786 -17.313743472265504 0 0 0 -1 I I #
straight-curve $-1 -40.177007354960786 17.313743472265504 0 0 0 -1 I I #
edge $-1 $350 -8.1928927895402559 $344 -0.26006460974872425 $341 $397 forward 7 unknown #
straight-curve $-1 18.134400899508204 17.313743472265504 0.2600646097487278 -1 0 0 I I #
point $-1 40.177007354960786 17.313743472265507 0.26006460974872425 #
straight-curve $-1 40.177007354960786 0 8.1928927895402559 0 1 0 I I #
point $-1 40.177007354960786 17.313743472265504 8.1928927895402559 #
point $-1 36.268801799016408 10.559255184737529 1.3889099888740875 #
straight-curve $-1 -33.728732914339169 -17.313743472265504 31.539989303205878 0 0 -1 I I #
straight-curve $-1 -33.728732914339169 0 8.1928927895402559 0 -1 0 I I #
point $-1 -33.728732914339169 -17.313743472265504 3.3653089506481519 #
straight-curve $-1 -11.5673974524104 -17.313743472265504 3.3653089506481511 1 0 0 I I #
point $-1 -33.728732914339169 -17.313743472265504 8.1928927895402559 #
point $-1 -27.675054051757247 -12.208447503375149 3.0864114315080204 #
point $-1 -18.594535757884358 -12.208447503375149 3.0864114315080204 #
edge $-1 $374 -17.313743472265504 $377 17.313743472265504 $372 $398 forward 7 unknown #
point $-1 -40.177007354960786 17.313743472265504 8.1928927895402559 #
point $-1 -40.177007354960786 -17.313743472265504 8.1928927895402559 #
straight-curve $-1 40.177007354960786 17.313743472265504 0 0 0 -1 I I #
straight-curve $-1 -40.177007354960786 0 8.1928927895402559 0 -1 0 I I #
End-of-ACIS-data 