500 0 10 0           
7 Unknown 11 ACIS 5.0 NT 24 Fri Mar 26 14:34:30 1999 
-1 9.9999999999999995e-007 1e-010 
body $-1 $10 $-1 $11 #
body $-1 $12 $-1 $13 #
body $-1 $14 $-1 $15 #
body $-1 $16 $-1 $17 #
body $-1 $18 $-1 $19 #
body $-1 $20 $-1 $21 #
body $-1 $22 $-1 $23 #
body $-1 $24 $-1 $25 #
body $-1 $26 $-1 $27 #
body $-1 $28 $-1 $29 #
lump $-1 $-1 $30 $0 #
transform $-1 1 0 0 0 1 0 0 0 1 79.415265358439896 44.765032936291284 14.281038706510433 1 rotate no_reflect no_shear #
lump $-1 $-1 $31 $1 #
transform $-1 1 0 0 0 1 0 0 0 1 79.415265358439896 44.765032936291284 14.281038706510433 1 rotate no_reflect no_shear #
lump $-1 $-1 $32 $2 #
transform $-1 1 0 0 0 1 0 0 0 1 79.415265358439896 44.765032936291284 14.281038706510433 1 rotate no_reflect no_shear #
lump $-1 $-1 $33 $3 #
transform $-1 1 0 0 0 1 0 0 0 1 79.415265358439896 44.765032936291284 14.281038706510433 1 rotate no_reflect no_shear #
lump $-1 $-1 $34 $4 #
transform $-1 1 0 0 0 1 0 0 0 1 79.415265358439896 44.765032936291284 14.281038706510433 1 rotate no_reflect no_shear #
lump $-1 $-1 $35 $5 #
transform $-1 1 0 0 0 1 0 0 0 1 79.415265358439896 44.765032936291284 14.281038706510433 1 rotate no_reflect no_shear #
lump $-1 $-1 $36 $6 #
transform $-1 1 0 0 0 1 0 0 0 1 79.415265358439896 44.765032936291284 14.281038706510433 1 rotate no_reflect no_shear #
lump $-1 $-1 $37 $7 #
transform $-1 1 0 0 0 1 0 0 0 1 79.415265358439896 44.765032936291284 14.281038706510433 1 rotate no_reflect no_shear #
lump $-1 $-1 $38 $8 #
transform $-1 1 0 0 0 1 0 0 0 1 79.415265358439896 44.765032936291284 14.281038706510433 1 rotate no_reflect no_shear #
lump $-1 $-1 $39 $9 #
transform $-1 1 0 0 0 1 0 0 0 1 79.415265358439896 44.765032936291284 14.281038706510433 1 rotate no_reflect no_shear #
shell $-1 $-1 $-1 $40 $-1 $10 #
shell $-1 $-1 $-1 $41 $-1 $12 #
shell $-1 $-1 $-1 $42 $-1 $14 #
shell $-1 $-1 $-1 $43 $-1 $16 #
shell $-1 $-1 $-1 $44 $-1 $18 #
shell $-1 $-1 $-1 $45 $-1 $20 #
shell $-1 $-1 $-1 $46 $-1 $22 #
shell $-1 $-1 $-1 $47 $-1 $24 #
shell $-1 $-1 $-1 $48 $-1 $26 #
shell $-1 $-1 $-1 $49 $-1 $28 #
face $-1 $50 $51 $30 $-1 $52 forward single #
face $-1 $53 $54 $31 $-1 $55 forward single #
face $-1 $56 $57 $32 $-1 $58 reversed single #
face $-1 $59 $60 $33 $-1 $61 forward single #
face $-1 $62 $63 $34 $-1 $64 forward single #
face $-1 $65 $66 $35 $-1 $67 reversed single #
face $-1 $68 $69 $36 $-1 $70 forward single #
face $-1 $71 $72 $37 $-1 $73 forward single #
face $-1 $74 $75 $38 $-1 $76 reversed single #
face $-1 $77 $78 $39 $-1 $79 forward single #
face $-1 $80 $81 $30 $-1 $82 reversed single #
loop $-1 $-1 $83 $40 #
plane-surface $-1 0 0 14.281038706510433 0 0 1 1 0 0 forward_v I I I I #
face $-1 $84 $85 $31 $-1 $86 reversed single #
loop $-1 $-1 $87 $41 #
plane-surface $-1 -73.27260563681763 0 -10.026146025575994 0 0 1 1 0 0 forward_v I I I I #
face $-1 $88 $89 $32 $-1 $90 reversed single #
loop $-1 $-1 $91 $42 #
plane-surface $-1 -38.132244801162855 -177.97152561102084 88.209493431873582 1 0 0 0 0.83867057594974714 -0.54463902268945019 forward_v I I I I #
face $-1 $92 $93 $33 $-1 $94 forward single #
loop $-1 $95 $96 $43 #
cone-surface $-1 -27.754623772709138 -39.328382789678905 7.1140305485826607 0 0.83867057594974714 -0.54463902268945019 2 0 0 1 I I 0 1 2 forward I I I I #
face $-1 $97 $98 $34 $-1 $99 forward single #
loop $-1 $100 $101 $44 #
cone-surface $-1 -12.188192230028548 -39.328382789678905 7.1140305485826607 0 0.83867057594974714 -0.54463902268945019 2 0 0 1 I I 0 1 2 forward I I I I #
face $-1 $102 $103 $35 $-1 $104 reversed single #
loop $-1 $-1 $105 $45 #
plane-surface $-1 14.095890644819374 -177.97152561102084 88.209493431873582 1 0 0 0 0.83867057594974714 -0.54463902268945019 forward_v I I I I #
face $-1 $106 $107 $36 $-1 $108 forward single #
loop $-1 $109 $110 $46 #
cone-surface $-1 24.47351167327308 -39.328382789678905 7.1140305485826607 0 0.83867057594974714 -0.54463902268945019 2 0 0 1 I I 0 1 2 forward I I I I #
face $-1 $111 $112 $37 $-1 $113 forward single #
loop $-1 $114 $115 $47 #
cone-surface $-1 40.03994321595367 -39.328382789678905 7.1140305485826607 0 0.83867057594974714 -0.54463902268945019 2 0 0 1 I I 0 1 2 forward I I I I #
face $-1 $116 $117 $38 $-1 $118 reversed single #
loop $-1 $-1 $119 $48 #
plane-surface $-1 -50.641710609216474 105.89895018850598 181.33689045728292 1 0 0 0 -0.75470958851134928 -0.65605901945558964 forward_v I I I I #
face $-1 $120 $121 $39 $-1 $122 forward single #
loop $-1 $123 $124 $49 #
cone-surface $-1 -36.346542114862885 41.487190510268213 10.855553698185629 0 -0.75470958851134928 -0.65605901945558964 1 0 0 1 I I 0 1 1 forward I I I I #
face $-1 $125 $126 $30 $-1 $127 reversed single #
loop $-1 $-1 $128 $50 #
plane-surface $-1 0 0 -14.281038706510433 0 0 1 1 0 0 forward_v I I I I #
coedge $-1 $129 $130 $131 $132 forward $51 $-1 #
face $-1 $133 $134 $31 $-1 $135 reversed single #
loop $-1 $-1 $136 $53 #
plane-surface $-1 -67.129945915195364 0 -12.153592366043213 -1 0 0 0 0 1 forward_v I I I I #
coedge $-1 $137 $138 $139 $140 forward $54 $-1 #
face $-1 $141 $142 $32 $-1 $143 reversed single #
loop $-1 $-1 $144 $56 #
plane-surface $-1 -19.971408001368843 -44.765032936291249 1.7041884089854733 0 -0.83867057594974714 0.54463902268945019 1 0 0 forward_v I I I I #
coedge $-1 $145 $146 $147 $148 reversed $57 $-1 #
face $-1 $-1 $149 $33 $-1 $150 forward single #
loop $-1 $151 $152 $59 #
cone-surface $-1 -27.754623772709138 -37.136812976583499 5.6908085167279232 0 0.83867057594974714 -0.54463902268945019 1 0 0 1 I I -0.70710678118654746 0.70710678118654746 1 forward I I I I #
loop $-1 $-1 $153 $43 #
coedge $-1 $96 $96 $154 $155 reversed $60 $-1 #
face $-1 $-1 $156 $34 $-1 $157 forward single #
loop $-1 $158 $159 $62 #
cone-surface $-1 -12.188192230028548 -37.136812976583499 5.6908085167279232 0 0.83867057594974714 -0.54463902268945019 1 0 0 1 I I -0.70710678118654746 0.70710678118654746 1 forward I I I I #
loop $-1 $-1 $160 $44 #
coedge $-1 $101 $101 $161 $162 reversed $63 $-1 #
face $-1 $163 $164 $35 $-1 $165 reversed single #
loop $-1 $-1 $166 $65 #
plane-surface $-1 32.256727444613389 -44.765032936291249 1.7041884089854733 0 -0.83867057594974714 0.54463902268945019 1 0 0 forward_v I I I I #
coedge $-1 $167 $168 $169 $170 reversed $66 $-1 #
face $-1 $-1 $171 $36 $-1 $172 forward single #
loop $-1 $173 $174 $68 #
cone-surface $-1 24.47351167327308 -37.136812976583499 5.6908085167279232 0 0.83867057594974714 -0.54463902268945019 1 0 0 1 I I -0.70710678118654746 0.70710678118654746 1 forward I I I I #
loop $-1 $-1 $175 $46 #
coedge $-1 $110 $110 $176 $177 reversed $69 $-1 #
face $-1 $-1 $178 $37 $-1 $179 forward single #
loop $-1 $180 $181 $71 #
cone-surface $-1 40.03994321595367 -37.136812976583499 5.6908085167279232 0 0.83867057594974714 -0.54463902268945019 1 0 0 1 I I -0.70710678118654746 0.70710678118654746 1 forward I I I I #
loop $-1 $-1 $182 $47 #
coedge $-1 $115 $115 $183 $184 reversed $72 $-1 #
face $-1 $185 $186 $38 $-1 $187 reversed single #
loop $-1 $-1 $188 $74 #
plane-surface $-1 -36.346542114862885 -13.971974291869572 77.134688215555869 0 0.75470958851134928 0.65605901945558964 1 0 0 forward_v I I I I #
coedge $-1 $189 $190 $191 $192 reversed $75 $-1 #
face $-1 $-1 $193 $39 $-1 $194 forward single #
loop $-1 $195 $196 $77 #
cone-surface $-1 -36.346542114862885 39.881575630360977 9.4598140126557091 0 -0.75470958851134928 -0.65605901945558964 0.5 0 0 1 I I -0.70710678118654746 0.70710678118654746 0.5 forward I I I I #
loop $-1 $-1 $197 $49 #
coedge $-1 $124 $124 $198 $199 reversed $78 $-1 #
face $-1 $200 $201 $30 $-1 $202 reversed single #
loop $-1 $-1 $203 $80 #
plane-surface $-1 0 -44.765032936291284 0 0 1 0 0 0 1 forward_v I I I I #
coedge $-1 $204 $205 $206 $207 forward $81 $-1 #
coedge $-1 $208 $83 $209 $210 forward $51 $-1 #
coedge $-1 $83 $208 $211 $212 forward $51 $-1 #
coedge $-1 $213 $214 $83 $132 reversed $215 $-1 #
edge $-1 $216 -44.765032936291284 $217 44.765032936291284 $131 $218 forward 7 unknown #
face $-1 $219 $220 $31 $-1 $221 reversed single #
loop $-1 $-1 $222 $84 #
plane-surface $-1 0 0 -14.281038706510433 0 0 1 1 0 0 forward_v I I I I #
coedge $-1 $223 $139 $224 $225 reversed $85 $-1 #
coedge $-1 $226 $87 $227 $228 reversed $54 $-1 #
coedge $-1 $87 $226 $229 $230 reversed $54 $-1 #
coedge $-1 $136 $231 $87 $140 reversed $85 $-1 #
edge $-1 $232 -44.765032936291284 $233 44.765032936291284 $139 $234 forward 7 unknown #
face $-1 $235 $236 $32 $-1 $237 forward single #
loop $-1 $-1 $238 $88 #
plane-surface $-1 -1.8105712015748274 -177.97152561102084 88.209493431873582 -1 0 0 0 -0.83867057594974714 0.54463902268945019 forward_v I I I I #
coedge $-1 $239 $240 $241 $242 reversed $89 $-1 #
coedge $-1 $146 $91 $243 $244 reversed $57 $-1 #
coedge $-1 $91 $145 $239 $245 reversed $57 $-1 #
coedge $-1 $241 $246 $91 $148 forward $247 $-1 #
edge $-1 $248 29.823708009426358 $249 42.400558306951375 $147 $250 forward 7 unknown #
loop $-1 $-1 $154 $92 #
plane-surface $-1 -19.971408001368843 -44.765032936291249 1.7041884089854733 0 -0.83867057594974714 0.54463902268945019 1 0 0 forward_v I I I I #
loop $-1 $-1 $251 $59 #
coedge $-1 $152 $152 $153 $252 reversed $93 $-1 #
coedge $-1 $153 $153 $152 $252 forward $95 $-1 #
coedge $-1 $154 $154 $96 $155 forward $149 $-1 #
edge $-1 $253 -2.1817121678173651e-016 $253 6.2831853071796004 $154 $254 forward 7 unknown #
loop $-1 $-1 $161 $97 #
plane-surface $-1 -19.971408001368843 -44.765032936291249 1.7041884089854733 0 -0.83867057594974714 0.54463902268945019 1 0 0 forward_v I I I I #
loop $-1 $-1 $255 $62 #
coedge $-1 $159 $159 $160 $256 reversed $98 $-1 #
coedge $-1 $160 $160 $159 $256 forward $100 $-1 #
coedge $-1 $161 $161 $101 $162 forward $156 $-1 #
edge $-1 $257 -2.1817121678173651e-016 $257 6.2831853071796004 $161 $258 forward 7 unknown #
face $-1 $259 $260 $35 $-1 $261 reversed single #
loop $-1 $-1 $262 $102 #
plane-surface $-1 50.417564244407401 -177.97152561102084 88.209493431873582 -1 0 0 0 -0.83867057594974714 0.54463902268945019 forward_v I I I I #
coedge $-1 $263 $264 $265 $266 reversed $103 $-1 #
coedge $-1 $168 $105 $267 $268 reversed $66 $-1 #
coedge $-1 $105 $167 $263 $269 reversed $66 $-1 #
coedge $-1 $265 $270 $105 $170 forward $260 $-1 #
edge $-1 $271 29.823708009426358 $272 42.400558306951375 $169 $273 forward 7 unknown #
loop $-1 $-1 $176 $106 #
plane-surface $-1 32.256727444613389 -44.765032936291249 1.7041884089854733 0 -0.83867057594974714 0.54463902268945019 1 0 0 forward_v I I I I #
loop $-1 $-1 $274 $68 #
coedge $-1 $174 $174 $175 $275 reversed $107 $-1 #
coedge $-1 $175 $175 $174 $275 forward $109 $-1 #
coedge $-1 $176 $176 $110 $177 forward $171 $-1 #
edge $-1 $276 -2.1817121678173651e-016 $276 6.2831853071796004 $176 $277 forward 7 unknown #
loop $-1 $-1 $183 $111 #
plane-surface $-1 32.256727444613389 -44.765032936291249 1.7041884089854733 0 -0.83867057594974714 0.54463902268945019 1 0 0 forward_v I I I I #
loop $-1 $-1 $278 $71 #
coedge $-1 $181 $181 $182 $279 reversed $112 $-1 #
coedge $-1 $182 $182 $181 $279 forward $114 $-1 #
coedge $-1 $183 $183 $115 $184 forward $178 $-1 #
edge $-1 $280 -2.1817121678173651e-016 $280 6.2831853071796004 $183 $281 forward 7 unknown #
face $-1 $282 $283 $38 $-1 $284 reversed single #
loop $-1 $-1 $285 $116 #
plane-surface $-1 -22.051373620509295 105.89895018850598 181.33689045728292 -1 0 0 0 0.75470958851134928 0.65605901945558964 forward_v I I I I #
coedge $-1 $286 $287 $288 $289 reversed $117 $-1 #
coedge $-1 $190 $119 $290 $291 reversed $75 $-1 #
coedge $-1 $119 $189 $286 $292 reversed $75 $-1 #
coedge $-1 $288 $293 $119 $192 forward $294 $-1 #
edge $-1 $295 8.1844421579617048 $296 12.283606838704657 $191 $297 forward 7 unknown #
loop $-1 $-1 $198 $120 #
plane-surface $-1 -36.346542114862885 -13.971974291869572 77.134688215555869 0 0.75470958851134928 0.65605901945558964 1 0 0 forward_v I I I I #
loop $-1 $-1 $298 $77 #
coedge $-1 $196 $196 $197 $299 reversed $121 $-1 #
coedge $-1 $197 $197 $196 $299 forward $123 $-1 #
coedge $-1 $198 $198 $124 $199 forward $193 $-1 #
edge $-1 $300 2.1028633566351041e-015 $300 6.2831853071796022 $198 $301 forward 7 unknown #
face $-1 $302 $303 $30 $-1 $304 reversed single #
loop $-1 $-1 $305 $125 #
plane-surface $-1 -79.415265358439896 0 0 1 0 0 0 0 -1 forward_v I I I I #
coedge $-1 $306 $211 $307 $308 forward $126 $-1 #
coedge $-1 $309 $128 $306 $310 forward $81 $-1 #
coedge $-1 $128 $309 $311 $312 forward $81 $-1 #
coedge $-1 $214 $213 $128 $207 reversed $215 $-1 #
edge $-1 $313 -44.765032936291284 $314 44.765032936291284 $206 $315 forward 7 unknown #
coedge $-1 $130 $129 $316 $317 forward $51 $-1 #
coedge $-1 $318 $319 $129 $210 reversed $303 $-1 #
edge $-1 $217 -79.415265358439896 $320 79.415265358439896 $209 $321 forward 7 unknown #
coedge $-1 $203 $322 $130 $212 reversed $126 $-1 #
edge $-1 $323 -79.415265358439896 $216 79.415265358439896 $211 $324 forward 7 unknown #
coedge $-1 $206 $131 $322 $325 forward $215 $-1 #
coedge $-1 $131 $206 $318 $326 reversed $215 $-1 #
loop $-1 $-1 $213 $302 #
vertex $-1 $132 $327 #
vertex $-1 $132 $328 #
straight-curve $-1 79.415265358439896 0 14.281038706510433 0 1 0 I I #
face $-1 $329 $330 $31 $-1 $331 reversed single #
loop $-1 $-1 $224 $133 #
plane-surface $-1 0 -44.765032936291284 0 0 1 0 0 0 1 forward_v I I I I #
coedge $-1 $332 $333 $223 $334 forward $134 $-1 #
coedge $-1 $231 $136 $222 $334 reversed $85 $-1 #
coedge $-1 $229 $335 $136 $225 forward $220 $-1 #
edge $-1 $336 -8.2042425234888263 $232 -3.9493498425543869 $224 $337 forward 7 unknown #
coedge $-1 $138 $137 $338 $339 reversed $54 $-1 #
coedge $-1 $340 $341 $137 $228 forward $342 $-1 #
edge $-1 $343 -42.778962540031081 $233 -30.493643096786549 $227 $344 forward 7 unknown #
coedge $-1 $345 $224 $138 $230 forward $220 $-1 #
edge $-1 $232 30.493643096786549 $346 42.778962540031081 $229 $347 forward 7 unknown #
coedge $-1 $139 $223 $340 $348 reversed $85 $-1 #
vertex $-1 $230 $349 #
vertex $-1 $228 $350 #
straight-curve $-1 -67.129945915195364 0 -10.026146025575994 0 1 0 I I #
face $-1 $-1 $247 $32 $-1 $351 reversed single #
loop $-1 $-1 $352 $141 #
plane-surface $-1 0 0 14.281038706510433 0 0 1 1 0 0 forward_v I I I I #
coedge $-1 $353 $354 $355 $356 reversed $142 $-1 #
coedge $-1 $357 $144 $146 $245 forward $89 $-1 #
coedge $-1 $144 $357 $353 $358 forward $89 $-1 #
coedge $-1 $355 $147 $144 $242 forward $247 $-1 #
edge $-1 $249 -28.146540800478434 $359 8.1751327991095941 $241 $360 forward 7 unknown #
coedge $-1 $361 $362 $145 $244 forward $236 $-1 #
edge $-1 $363 -52.388231688152608 $248 -44.220729869219134 $243 $364 forward 7 unknown #
edge $-1 $249 -6.5160145127129936e-014 $363 14.996174491137221 $146 $365 forward 7 unknown #
coedge $-1 $147 $355 $361 $366 reversed $247 $-1 #
loop $-1 $-1 $355 $235 #
vertex $-1 $366 $367 #
vertex $-1 $148 $368 #
straight-curve $-1 -38.132244801162855 -44.765032936291291 44.104746715936791 0 0 -1 I I #
coedge $-1 $251 $251 $-1 $369 reversed $151 $-1 #
edge $-1 $370 0 $370 6.2831853071796004 $152 $371 forward 7 unknown #
vertex $-1 $155 $372 #
ellipse-curve $-1 -27.754623772709138 -40.68128202682454 7.9926135577479345 0 -0.83867057594974714 0.54463902268945019 2 0 0 1 I I #
coedge $-1 $255 $255 $-1 $373 reversed $158 $-1 #
edge $-1 $374 0 $374 6.2831853071796004 $159 $375 forward 7 unknown #
vertex $-1 $162 $376 #
ellipse-curve $-1 -12.188192230028548 -40.68128202682454 7.9926135577479345 0 -0.83867057594974714 0.54463902268945019 2 0 0 1 I I #
face $-1 $-1 $377 $35 $-1 $378 forward single #
loop $-1 $-1 $169 $163 #
plane-surface $-1 0 -44.765032936291284 0 0 1 0 0 0 1 forward_v I I I I #
coedge $-1 $379 $380 $381 $382 reversed $164 $-1 #
coedge $-1 $383 $166 $168 $269 forward $103 $-1 #
coedge $-1 $166 $383 $379 $384 forward $103 $-1 #
coedge $-1 $381 $169 $166 $266 forward $260 $-1 #
edge $-1 $272 -2.032473077487321 $385 34.289200522100707 $265 $386 forward 7 unknown #
coedge $-1 $387 $388 $167 $268 forward $377 $-1 #
edge $-1 $389 -52.388231688152608 $271 -44.220729869219134 $267 $390 forward 7 unknown #
edge $-1 $272 -6.5160145127129936e-014 $389 14.996174491137221 $168 $391 forward 7 unknown #
coedge $-1 $169 $381 $387 $392 reversed $260 $-1 #
vertex $-1 $392 $393 #
vertex $-1 $170 $394 #
straight-curve $-1 14.095890644819374 -44.765032936291291 44.104746715936791 0 0 -1 I I #
coedge $-1 $274 $274 $-1 $395 reversed $173 $-1 #
edge $-1 $396 0 $396 6.2831853071796004 $174 $397 forward 7 unknown #
vertex $-1 $177 $398 #
ellipse-curve $-1 24.47351167327308 -40.68128202682454 7.9926135577479345 0 -0.83867057594974714 0.54463902268945019 2 0 0 1 I I #
coedge $-1 $278 $278 $-1 $399 reversed $180 $-1 #
edge $-1 $400 0 $400 6.2831853071796004 $181 $401 forward 7 unknown #
vertex $-1 $184 $402 #
ellipse-curve $-1 40.03994321595367 -40.68128202682454 7.9926135577479345 0 -0.83867057594974714 0.54463902268945019 2 0 0 1 I I #
face $-1 $-1 $294 $38 $-1 $403 forward single #
loop $-1 $-1 $404 $185 #
plane-surface $-1 0 44.765032936291284 0 0 -1 0 0 0 -1 forward_v I I I I #
coedge $-1 $405 $406 $407 $408 reversed $186 $-1 #
coedge $-1 $409 $188 $190 $292 forward $117 $-1 #
coedge $-1 $188 $409 $405 $410 forward $117 $-1 #
coedge $-1 $407 $191 $188 $289 forward $294 $-1 #
edge $-1 $296 -32.468439551785032 $411 -3.8781025630778529 $288 $412 forward 7 unknown #
coedge $-1 $413 $414 $189 $291 forward $283 $-1 #
edge $-1 $415 -81.10295618717636 $295 -76.38740652213103 $290 $416 forward 7 unknown #
edge $-1 $296 83.281901364236163 $415 89.530065872582568 $190 $417 forward 7 unknown #
coedge $-1 $191 $407 $413 $418 forward $294 $-1 #
loop $-1 $-1 $407 $282 #
vertex $-1 $291 $419 #
vertex $-1 $192 $420 #
straight-curve $-1 -50.641710609216474 52.949475094252989 14.281038706510429 0 -1 0 I I #
coedge $-1 $298 $298 $-1 $421 reversed $195 $-1 #
edge $-1 $422 0 $422 6.2831853071796004 $196 $423 forward 7 unknown #
vertex $-1 $199 $424 #
ellipse-curve $-1 -36.346542114862885 42.715450595919798 11.923263873987775 0 0.75470958851134928 0.65605901945558964 1 0 0 1 I I #
face $-1 $-1 $215 $30 $-1 $425 reversed single #
loop $-1 $-1 $318 $200 #
plane-surface $-1 0 44.765032936291284 0 0 -1 0 0 0 -1 forward_v I I I I #
coedge $-1 $426 $316 $319 $427 forward $201 $-1 #
coedge $-1 $322 $203 $204 $310 reversed $126 $-1 #
coedge $-1 $316 $426 $203 $308 reversed $201 $-1 #
edge $-1 $323 -14.281038706510433 $428 14.281038706510433 $307 $429 forward 7 unknown #
coedge $-1 $205 $204 $426 $430 forward $81 $-1 #
edge $-1 $314 -79.415265358439896 $428 79.415265358439896 $306 $431 forward 7 unknown #
coedge $-1 $319 $318 $205 $312 reversed $303 $-1 #
edge $-1 $432 -79.415265358439896 $313 79.415265358439896 $311 $433 forward 7 unknown #
vertex $-1 $207 $434 #
vertex $-1 $325 $435 #
straight-curve $-1 79.415265358439896 0 -14.281038706510433 0 -1 0 I I #
coedge $-1 $305 $307 $208 $317 reversed $201 $-1 #
edge $-1 $320 -44.765032936291284 $323 44.765032936291284 $316 $436 forward 7 unknown #
coedge $-1 $311 $209 $214 $326 forward $303 $-1 #
coedge $-1 $209 $311 $305 $427 reversed $303 $-1 #
vertex $-1 $210 $437 #
straight-curve $-1 0 44.765032936291284 14.281038706510433 -1 0 0 I I #
coedge $-1 $211 $306 $213 $325 reversed $126 $-1 #
vertex $-1 $317 $438 #
straight-curve $-1 0 -44.765032936291284 14.281038706510433 1 0 0 I I #
edge $-1 $216 -14.281038706510433 $314 14.281038706510433 $213 $439 forward 7 unknown #
edge $-1 $217 -14.281038706510433 $313 14.281038706510433 $214 $440 forward 7 unknown #
point $-1 79.415265358439896 -44.765032936291284 14.281038706510433 #
point $-1 79.415265358439896 44.765032936291284 14.281038706510433 #
face $-1 $-1 $342 $31 $-1 $441 reversed single #
loop $-1 $-1 $338 $219 #
plane-surface $-1 -79.415265358439896 0 0 1 0 0 0 0 -1 forward_v I I I I #
coedge $-1 $442 $222 $335 $443 forward $134 $-1 #
coedge $-1 $222 $442 $444 $445 forward $134 $-1 #
edge $-1 $446 -44.765032936291284 $336 44.765032936291284 $222 $447 forward 7 unknown #
coedge $-1 $224 $345 $332 $443 reversed $220 $-1 #
vertex $-1 $443 $448 #
straight-curve $-1 -67.129945915195364 -44.765032936291284 -6.0767961830216066 0 0 1 I I #
coedge $-1 $449 $450 $226 $339 forward $330 $-1 #
edge $-1 $346 -44.765032936291284 $343 44.765032936291284 $338 $451 forward 7 unknown #
coedge $-1 $444 $227 $231 $348 forward $342 $-1 #
coedge $-1 $227 $444 $449 $452 reversed $342 $-1 #
loop $-1 $-1 $340 $329 #
vertex $-1 $452 $453 #
straight-curve $-1 -36.636302818408815 44.765032936291284 -10.026146025575994 1 0 0 I I #
coedge $-1 $335 $229 $450 $454 forward $220 $-1 #
vertex $-1 $454 $455 #
straight-curve $-1 -36.636302818408815 -44.765032936291284 -10.026146025575994 -1 0 0 I I #
edge $-1 $233 3.9493498425543869 $446 8.2042425234888263 $340 $456 forward 7 unknown #
point $-1 -67.129945915195364 -44.765032936291284 -10.026146025575994 #
point $-1 -67.129945915195364 44.765032936291284 -10.026146025575994 #
plane-surface $-1 0 -44.765032936291284 0 0 1 0 0 0 1 forward_v I I I I #
coedge $-1 $362 $361 $354 $457 forward $236 $-1 #
coedge $-1 $354 $238 $240 $358 reversed $142 $-1 #
coedge $-1 $238 $353 $352 $457 reversed $142 $-1 #
coedge $-1 $246 $241 $238 $356 forward $247 $-1 #
edge $-1 $359 -42.400558306951375 $458 -29.823708009426358 $355 $459 forward 7 unknown #
coedge $-1 $240 $239 $362 $460 reversed $89 $-1 #
edge $-1 $461 -14.996174491137221 $359 6.5160145127129936e-014 $353 $462 forward 7 unknown #
vertex $-1 $242 $463 #
straight-curve $-1 -9.9857040006844215 -44.765032936291284 1.7041884089854107 1 0 0 I I #
coedge $-1 $352 $243 $246 $366 forward $236 $-1 #
coedge $-1 $243 $352 $357 $460 forward $236 $-1 #
vertex $-1 $244 $464 #
straight-curve $-1 -38.132244801162855 -88.985762805510419 14.281038706510436 0 -1 0 I I #
straight-curve $-1 -38.132244801162855 -44.765032936291249 1.7041884089854733 0 0.54463902268945019 0.83867057594974714 I I #
edge $-1 $248 -38.132244801162855 $458 -1.8105712015748274 $246 $465 forward 7 unknown #
point $-1 -38.132244801162855 -44.765032936291284 14.281038706510433 #
point $-1 -38.132244801162855 -44.765032936291284 1.7041884089854187 #
edge $-1 $466 1 $466 0 $251 $-1 forward 7 unknown #
vertex $-1 $252 $467 #
ellipse-curve $-1 -27.754623772709138 -37.975483552533248 6.2354475394173736 0 -0.83867057594974714 0.54463902268945019 2 0 0 1 I I #
point $-1 -25.754623772709138 -40.681282026824562 7.9926135577479478 #
edge $-1 $468 1 $468 0 $255 $-1 forward 7 unknown #
vertex $-1 $256 $469 #
ellipse-curve $-1 -12.188192230028548 -37.975483552533248 6.2354475394173736 0 -0.83867057594974714 0.54463902268945019 2 0 0 1 I I #
point $-1 -10.188192230028548 -40.681282026824562 7.9926135577479478 #
loop $-1 $-1 $267 $259 #
plane-surface $-1 0 0 14.281038706510433 0 0 1 1 0 0 forward_v I I I I #
coedge $-1 $380 $262 $264 $384 reversed $164 $-1 #
coedge $-1 $262 $379 $470 $471 reversed $164 $-1 #
coedge $-1 $270 $265 $262 $382 forward $260 $-1 #
edge $-1 $385 -42.400558306951375 $472 -29.823708009426358 $381 $473 forward 7 unknown #
coedge $-1 $264 $263 $388 $474 reversed $103 $-1 #
edge $-1 $475 -14.996174491137221 $385 6.5160145127129936e-014 $379 $476 forward 7 unknown #
vertex $-1 $266 $477 #
straight-curve $-1 16.128363722306695 -44.765032936291284 1.7041884089854107 1 0 0 I I #
coedge $-1 $470 $267 $270 $392 forward $377 $-1 #
coedge $-1 $267 $470 $383 $474 forward $377 $-1 #
vertex $-1 $268 $478 #
straight-curve $-1 14.095890644819374 -88.985762805510419 14.281038706510436 0 -1 0 I I #
straight-curve $-1 14.095890644819374 -44.765032936291249 1.7041884089854733 0 0.54463902268945019 0.83867057594974714 I I #
edge $-1 $271 14.095890644819374 $472 50.417564244407401 $270 $479 forward 7 unknown #
point $-1 14.095890644819374 -44.765032936291284 14.281038706510433 #
point $-1 14.095890644819374 -44.765032936291284 1.7041884089854187 #
edge $-1 $480 1 $480 0 $274 $-1 forward 7 unknown #
vertex $-1 $275 $481 #
ellipse-curve $-1 24.47351167327308 -37.975483552533248 6.2354475394173736 0 -0.83867057594974714 0.54463902268945019 2 0 0 1 I I #
point $-1 26.47351167327308 -40.681282026824562 7.9926135577479478 #
edge $-1 $482 1 $482 0 $278 $-1 forward 7 unknown #
vertex $-1 $279 $483 #
ellipse-curve $-1 40.03994321595367 -37.975483552533248 6.2354475394173736 0 -0.83867057594974714 0.54463902268945019 2 0 0 1 I I #
point $-1 42.03994321595367 -40.681282026824562 7.9926135577479478 #
plane-surface $-1 0 0 14.281038706510433 0 0 1 1 0 0 forward_v I I I I #
coedge $-1 $414 $413 $406 $484 forward $283 $-1 #
coedge $-1 $406 $285 $287 $410 reversed $186 $-1 #
coedge $-1 $285 $405 $404 $484 reversed $186 $-1 #
coedge $-1 $293 $288 $285 $408 forward $294 $-1 #
edge $-1 $411 -12.283606838704657 $485 -8.1844421579617048 $407 $486 forward 7 unknown #
coedge $-1 $287 $286 $414 $487 reversed $117 $-1 #
edge $-1 $488 -89.530065872582568 $411 -83.281901364236163 $405 $489 forward 7 unknown #
vertex $-1 $289 $490 #
straight-curve $-1 -18.173271057431442 40.665868255548332 14.281038706510429 1 0 0 I I #
coedge $-1 $404 $290 $293 $418 reversed $283 $-1 #
coedge $-1 $290 $404 $409 $487 forward $283 $-1 #
vertex $-1 $291 $491 #
straight-curve $-1 -50.641710609216474 44.765032936291284 90.66844522864146 0 0 1 I I #
straight-curve $-1 -50.641710609216474 -13.971974291869572 77.134688215555869 0 0.65605901945558964 -0.75470958851134928 I I #
edge $-1 $485 22.051373620509295 $295 50.641710609216474 $413 $492 forward 7 unknown #
point $-1 -50.641710609216474 44.765032936291284 14.281038706510433 #
point $-1 -50.641710609216474 40.665868255548332 14.281038706510429 #
edge $-1 $493 1 $493 0 $298 $-1 forward 7 unknown #
vertex $-1 $299 $494 #
ellipse-curve $-1 -36.346542114862885 40.258930424616651 9.7878435223835041 0 0.75470958851134928 0.65605901945558964 1 0 0 1 I I #
point $-1 -35.346542114862885 42.715450595919776 11.923263873987754 #
plane-surface $-1 79.415265358439896 0 0 -1 0 0 0 0 1 forward_v I I I I #
coedge $-1 $307 $305 $309 $430 reversed $201 $-1 #
edge $-1 $320 -14.281038706510433 $432 14.281038706510433 $319 $495 forward 7 unknown #
vertex $-1 $430 $496 #
straight-curve $-1 -79.415265358439896 -44.765032936291284 0 0 0 -1 I I #
edge $-1 $428 -44.765032936291284 $432 44.765032936291284 $426 $497 forward 7 unknown #
straight-curve $-1 0 -44.765032936291284 -14.281038706510433 -1 0 0 I I #
vertex $-1 $312 $498 #
straight-curve $-1 0 44.765032936291284 -14.281038706510433 1 0 0 I I #
point $-1 79.415265358439896 44.765032936291284 -14.281038706510433 #
point $-1 79.415265358439896 -44.765032936291284 -14.281038706510433 #
straight-curve $-1 -79.415265358439896 0 14.281038706510433 0 -1 0 I I #
point $-1 -79.415265358439896 44.765032936291284 14.281038706510433 #
point $-1 -79.415265358439896 -44.765032936291284 14.281038706510433 #
straight-curve $-1 79.415265358439896 -44.765032936291284 0 0 0 -1 I I #
straight-curve $-1 79.415265358439896 44.765032936291284 0 0 0 -1 I I #
plane-surface $-1 0 44.765032936291284 0 0 -1 0 0 0 -1 forward_v I I I I #
coedge $-1 $333 $332 $499 $500 forward $134 $-1 #
edge $-1 $336 67.129945915195364 $501 79.415265358439896 $335 $502 forward 7 unknown #
coedge $-1 $341 $340 $333 $445 reversed $342 $-1 #
edge $-1 $503 -79.415265358439896 $446 -67.129945915195364 $444 $504 forward 7 unknown #
vertex $-1 $348 $505 #
straight-curve $-1 -67.129945915195364 0 -14.281038706510433 0 -1 0 I I #
point $-1 -67.129945915195364 -44.765032936291284 -14.281038706510433 #
coedge $-1 $499 $338 $341 $452 forward $330 $-1 #
coedge $-1 $338 $499 $345 $454 reversed $330 $-1 #
straight-curve $-1 -79.415265358439896 0 -10.026146025575994 0 1 0 I I #
edge $-1 $343 10.026146025575994 $503 14.281038706510433 $341 $506 forward 7 unknown #
point $-1 -79.415265358439896 44.765032936291284 -10.026146025575994 #
edge $-1 $346 10.026146025575994 $501 14.281038706510433 $450 $507 forward 7 unknown #
point $-1 -79.415265358439896 -44.765032936291284 -10.026146025575994 #
straight-curve $-1 -67.129945915195364 44.765032936291284 -6.0767961830216066 0 0 -1 I I #
edge $-1 $458 44.220729869219134 $461 52.388231688152608 $352 $508 forward 7 unknown #
vertex $-1 $356 $509 #
straight-curve $-1 -1.8105712015748274 -44.765032936291291 44.104746715936791 0 0 1 I I #
edge $-1 $461 -8.1751327991095941 $363 28.146540800478434 $362 $510 forward 7 unknown #
vertex $-1 $460 $511 #
straight-curve $-1 -1.8105712015748274 -44.765032936291249 1.7041884089854733 0 -0.54463902268945019 -0.83867057594974714 I I #
point $-1 -1.8105712015748274 -44.765032936291284 1.7041884089854187 #
point $-1 -38.132244801162855 -36.597531117357811 14.281038706510433 #
straight-curve $-1 0 -44.765032936291284 14.281038706510433 1 0 0 I I #
vertex $-1 $369 $512 #
point $-1 -25.754623772709138 -37.975483552533248 6.2354475394173736 #
vertex $-1 $373 $513 #
point $-1 -10.188192230028548 -37.975483552533248 6.2354475394173736 #
coedge $-1 $388 $387 $380 $471 forward $377 $-1 #
edge $-1 $472 44.220729869219134 $475 52.388231688152608 $470 $514 forward 7 unknown #
vertex $-1 $471 $515 #
straight-curve $-1 50.417564244407401 -44.765032936291291 44.104746715936791 0 0 1 I I #
edge $-1 $475 -34.289200522100707 $389 2.032473077487321 $388 $516 forward 7 unknown #
vertex $-1 $474 $517 #
straight-curve $-1 50.417564244407401 -44.765032936291249 1.7041884089854733 0 -0.54463902268945019 -0.83867057594974714 I I #
point $-1 50.417564244407401 -44.765032936291284 1.7041884089854187 #
point $-1 14.095890644819374 -36.597531117357811 14.281038706510433 #
straight-curve $-1 0 -44.765032936291284 14.281038706510433 1 0 0 I I #
vertex $-1 $395 $518 #
point $-1 26.47351167327308 -37.975483552533248 6.2354475394173736 #
vertex $-1 $399 $519 #
point $-1 42.03994321595367 -37.975483552533248 6.2354475394173736 #
edge $-1 $485 76.38740652213103 $488 81.10295618717636 $404 $520 forward 7 unknown #
vertex $-1 $418 $521 #
straight-curve $-1 -22.051373620509295 52.949475094252989 14.281038706510429 0 1 0 I I #
edge $-1 $488 3.8781025630778529 $415 32.468439551785032 $414 $522 forward 7 unknown #
vertex $-1 $487 $523 #
straight-curve $-1 -22.051373620509295 -13.971974291869572 77.134688215555869 0 -0.65605901945558964 0.75470958851134928 I I #
point $-1 -22.051373620509295 40.665868255548332 14.281038706510429 #
point $-1 -50.641710609216474 44.765032936291277 9.5654890414650993 #
straight-curve $-1 0 44.765032936291284 14.281038706510433 -1 0 0 I I #
vertex $-1 $421 $524 #
point $-1 -35.346542114862885 40.258930424616651 9.7878435223835041 #
straight-curve $-1 -79.415265358439896 44.765032936291284 0 0 0 -1 I I #
point $-1 -79.415265358439896 -44.765032936291284 -14.281038706510433 #
straight-curve $-1 -79.415265358439896 0 -14.281038706510433 0 1 0 I I #
point $-1 -79.415265358439896 44.765032936291284 -14.281038706510433 #
coedge $-1 $450 $449 $442 $500 reversed $330 $-1 #
edge $-1 $501 -44.765032936291284 $503 44.765032936291284 $499 $525 forward 7 unknown #
vertex $-1 $500 $526 #
straight-curve $-1 0 -44.765032936291284 -14.281038706510433 -1 0 0 I I #
vertex $-1 $445 $527 #
straight-curve $-1 0 44.765032936291284 -14.281038706510433 1 0 0 I I #
point $-1 -67.129945915195364 44.765032936291284 -14.281038706510433 #
straight-curve $-1 -79.415265358439896 44.765032936291284 0 0 0 -1 I I #
straight-curve $-1 -79.415265358439896 -44.765032936291284 0 0 0 -1 I I #
straight-curve $-1 -1.8105712015748274 -88.985762805510419 14.281038706510436 0 1 0 I I #
point $-1 -1.8105712015748274 -44.765032936291284 14.281038706510433 #
straight-curve $-1 -9.9857040006844215 -36.597531117357811 14.281038706510433 -1 0 0 I I #
point $-1 -1.8105712015748274 -36.597531117357811 14.281038706510433 #
point $-1 -27.754623772709138 -36.298142400633751 5.1461694940384728 #
point $-1 -12.188192230028548 -36.298142400633751 5.1461694940384728 #
straight-curve $-1 50.417564244407401 -88.985762805510419 14.281038706510436 0 1 0 I I #
point $-1 50.417564244407401 -44.765032936291284 14.281038706510433 #
straight-curve $-1 16.128363722306695 -36.597531117357811 14.281038706510433 -1 0 0 I I #
point $-1 50.417564244407401 -36.597531117357811 14.281038706510433 #
point $-1 24.47351167327308 -36.298142400633751 5.1461694940384728 #
point $-1 40.03994321595367 -36.298142400633751 5.1461694940384728 #
straight-curve $-1 -22.051373620509295 44.765032936291284 90.66844522864146 0 0 -1 I I #
point $-1 -22.051373620509295 44.765032936291284 14.281038706510433 #
straight-curve $-1 -18.173271057431442 44.765032936291277 9.5654890414650993 -1 0 0 I I #
point $-1 -22.051373620509295 44.765032936291277 9.5654890414650993 #
point $-1 -36.346542114862885 39.504220836105304 9.1317845029279141 #
straight-curve $-1 -79.415265358439896 0 -14.281038706510433 0 1 0 I I #
point $-1 -79.415265358439896 -44.765032936291284 -14.281038706510433 #
point $-1 -79.415265358439896 44.765032936291284 -14.281038706510433 #
End-of-ACIS-data 