500 0 7 0           
7 Unknown 11 ACIS 5.0 NT 24 Fri Mar 26 18:50:23 1999 
-1 9.9999999999999995e-007 1e-010 
body $-1 $7 $-1 $8 #
body $-1 $9 $-1 $10 #
body $-1 $11 $-1 $12 #
body $-1 $13 $-1 $14 #
body $-1 $15 $-1 $16 #
body $-1 $17 $-1 $18 #
body $-1 $19 $-1 $20 #
lump $-1 $-1 $21 $0 #
transform $-1 1 0 0 0 1 0 0 0 1 60.669576097903374 32.47480379814926 14.120449449572178 1 rotate no_reflect no_shear #
lump $-1 $-1 $22 $1 #
transform $-1 1 0 0 0 1 0 0 0 1 60.669576097903374 32.47480379814926 14.120449449572178 1 rotate no_reflect no_shear #
lump $-1 $-1 $23 $2 #
transform $-1 1 0 0 0 1 0 0 0 1 60.669576097903374 32.47480379814926 14.120449449572178 1 rotate no_reflect no_shear #
lump $-1 $-1 $24 $3 #
transform $-1 1 0 0 0 1 0 0 0 1 60.669576097903374 32.47480379814926 14.120449449572178 1 rotate no_reflect no_shear #
lump $-1 $-1 $25 $4 #
transform $-1 1 0 0 0 1 0 0 0 1 60.669576097903374 32.47480379814926 14.120449449572178 1 rotate no_reflect no_shear #
lump $-1 $-1 $26 $5 #
transform $-1 1 0 0 0 1 0 0 0 1 60.669576097903374 32.47480379814926 14.120449449572178 1 rotate no_reflect no_shear #
lump $-1 $-1 $27 $6 #
transform $-1 1 0 0 0 1 0 0 0 1 60.669576097903374 32.47480379814926 14.120449449572178 1 rotate no_reflect no_shear #
shell $-1 $-1 $-1 $28 $-1 $7 #
shell $-1 $-1 $-1 $29 $-1 $9 #
shell $-1 $-1 $-1 $30 $-1 $11 #
shell $-1 $-1 $-1 $31 $-1 $13 #
shell $-1 $-1 $-1 $32 $-1 $15 #
shell $-1 $-1 $-1 $33 $-1 $17 #
shell $-1 $-1 $-1 $34 $-1 $19 #
face $-1 $35 $36 $21 $-1 $37 forward single #
face $-1 $38 $39 $22 $-1 $40 reversed single #
face $-1 $41 $42 $23 $-1 $43 forward single #
face $-1 $44 $45 $24 $-1 $46 reversed single #
face $-1 $47 $48 $25 $-1 $49 forward single #
face $-1 $50 $51 $26 $-1 $52 forward single #
face $-1 $53 $54 $27 $-1 $55 forward single #
face $-1 $56 $57 $21 $-1 $58 reversed single #
loop $-1 $-1 $59 $28 #
plane-surface $-1 0 0 14.120449449572178 0 0 1 1 0 0 forward_v I I I I #
face $-1 $60 $61 $22 $-1 $62 reversed single #
loop $-1 $-1 $63 $29 #
plane-surface $-1 -40.627906407939903 -23.507842214418211 0 1 0 0 0 0 -1 forward_v I I I I #
face $-1 $64 $65 $23 $-1 $66 reversed single #
loop $-1 $-1 $67 $30 #
plane-surface $-1 0 32.47480379814926 0 0 -1 0 0 0 -1 forward_v I I I I #
face $-1 $68 $69 $24 $-1 $70 reversed single #
loop $-1 $-1 $71 $31 #
plane-surface $-1 22.068094722826544 -3.8203612072593245 177.42486090198054 0 -1 0 -0.52991927123019833 0 -0.84804809178421925 forward_v I I I I #
face $-1 $72 $73 $25 $-1 $74 forward single #
loop $-1 $75 $76 $32 #
cone-surface $-1 57.114913287971035 -9.1086365270222487 11.473530300657158 -0.52991927123019833 0 -0.84804809178421925 0.42402404589210962 0 -0.26495963561509916 1 I I 0 1 0.5 forward I I I I #
face $-1 $77 $78 $26 $-1 $79 forward single #
loop $-1 $80 $81 $33 #
cone-surface $-1 57.114913287971035 -7.125533282111153 11.473530300657158 -0.52991927123019833 0 -0.84804809178421925 0.42402404589210962 0 -0.26495963561509916 1 I I 0 1 0.5 forward I I I I #
face $-1 $82 $83 $27 $-1 $84 forward single #
loop $-1 $85 $86 $34 #
cone-surface $-1 57.114913287971035 -5.1424300372000573 11.473530300657158 -0.52991927123019833 0 -0.84804809178421925 0.42402404589210962 0 -0.26495963561509916 1 I I 0 1 0.5 forward I I I I #
face $-1 $87 $88 $21 $-1 $89 reversed single #
loop $-1 $-1 $90 $35 #
plane-surface $-1 0 0 -14.120449449572178 0 0 1 1 0 0 forward_v I I I I #
coedge $-1 $91 $92 $93 $94 forward $36 $-1 #
face $-1 $95 $96 $22 $-1 $97 reversed single #
loop $-1 $-1 $98 $38 #
plane-surface $-1 -36.528291803349461 -14.540880630687161 0 0 -1 0 0 0 -1 forward_v I I I I #
coedge $-1 $99 $100 $101 $102 forward $39 $-1 #
face $-1 $103 $104 $23 $-1 $105 forward single #
loop $-1 $-1 $106 $41 #
plane-surface $-1 60.669576097903374 0 0 -1 0 0 0 0 1 forward_v I I I I #
coedge $-1 $107 $108 $109 $110 forward $42 $-1 #
face $-1 $111 $112 $24 $-1 $113 reversed single #
loop $-1 $-1 $114 $44 #
plane-surface $-1 -42.231860380465491 -7.125533282111153 74.523424423611672 0.52991927123019833 0 0.84804809178421925 0.84804809178421925 0 -0.52991927123019833 forward_v I I I I #
coedge $-1 $115 $116 $117 $118 reversed $45 $-1 #
face $-1 $-1 $119 $25 $-1 $120 forward single #
loop $-1 $121 $122 $47 #
cone-surface $-1 56.546006532896783 -9.1086365270222487 10.563089193422371 -0.52991927123019833 0 -0.84804809178421925 0.21201202294605481 0 -0.13247981780754958 1 I I -0.70710678118654746 0.70710678118654746 0.25 forward I I I I #
loop $-1 $-1 $123 $32 #
coedge $-1 $76 $76 $124 $125 reversed $48 $-1 #
face $-1 $-1 $126 $26 $-1 $127 forward single #
loop $-1 $128 $129 $50 #
cone-surface $-1 56.546006532896783 -7.125533282111153 10.563089193422371 -0.52991927123019833 0 -0.84804809178421925 0.21201202294605481 0 -0.13247981780754958 1 I I -0.70710678118654746 0.70710678118654746 0.25 forward I I I I #
loop $-1 $-1 $130 $33 #
coedge $-1 $81 $81 $131 $132 reversed $51 $-1 #
face $-1 $-1 $133 $27 $-1 $134 forward single #
loop $-1 $135 $136 $53 #
cone-surface $-1 56.546006532896783 -5.1424300372000573 10.563089193422371 -0.52991927123019833 0 -0.84804809178421925 0.21201202294605481 0 -0.13247981780754958 1 I I -0.70710678118654746 0.70710678118654746 0.25 forward I I I I #
loop $-1 $-1 $137 $34 #
coedge $-1 $86 $86 $138 $139 reversed $54 $-1 #
face $-1 $140 $141 $21 $-1 $142 reversed single #
loop $-1 $-1 $143 $56 #
plane-surface $-1 0 -32.47480379814926 0 0 1 0 0 0 1 forward_v I I I I #
coedge $-1 $144 $145 $146 $147 forward $57 $-1 #
coedge $-1 $148 $59 $149 $150 forward $36 $-1 #
coedge $-1 $59 $148 $151 $152 forward $36 $-1 #
coedge $-1 $153 $154 $59 $94 reversed $155 $-1 #
edge $-1 $156 -32.47480379814926 $157 32.47480379814926 $93 $158 forward 7 unknown #
face $-1 $159 $160 $22 $-1 $161 forward single #
loop $-1 $-1 $162 $60 #
plane-surface $-1 -32.428677198759019 -23.507842214418211 0 -1 0 0 0 0 1 forward_v I I I I #
coedge $-1 $163 $164 $165 $166 forward $61 $-1 #
coedge $-1 $167 $63 $168 $169 reversed $39 $-1 #
coedge $-1 $63 $167 $170 $171 reversed $39 $-1 #
coedge $-1 $164 $163 $63 $102 reversed $61 $-1 #
edge $-1 $172 -14.120449449572178 $173 14.120449449572178 $101 $174 forward 7 unknown #
face $-1 $175 $176 $23 $-1 $177 reversed single #
loop $-1 $-1 $178 $64 #
plane-surface $-1 0 41.166591792719736 -4.1261717953363473 0 0 1 1 0 0 forward_v I I I I #
coedge $-1 $179 $180 $108 $181 forward $65 $-1 #
coedge $-1 $182 $67 $183 $184 reversed $42 $-1 #
coedge $-1 $67 $182 $106 $181 reversed $42 $-1 #
coedge $-1 $178 $185 $67 $110 reversed $104 $-1 #
edge $-1 $186 -60.669576097903374 $187 60.669576097903374 $109 $188 forward 7 unknown #
face $-1 $189 $190 $24 $-1 $191 forward single #
loop $-1 $-1 $192 $68 #
plane-surface $-1 22.068094722826544 -10.430705356962982 177.42486090198054 0 1 0 0.52991927123019833 0 0.84804809178421925 forward_v I I I I #
coedge $-1 $193 $194 $195 $196 reversed $69 $-1 #
coedge $-1 $116 $71 $197 $198 reversed $45 $-1 #
coedge $-1 $71 $115 $193 $199 reversed $45 $-1 #
coedge $-1 $195 $200 $71 $118 forward $190 $-1 #
edge $-1 $201 -49.635528736490102 $202 -43.399056991158901 $117 $203 forward 7 unknown #
loop $-1 $-1 $124 $72 #
plane-surface $-1 -42.231860380465491 -7.125533282111153 74.523424423611672 0.52991927123019833 0 0.84804809178421925 0.84804809178421925 0 -0.52991927123019833 forward_v I I I I #
loop $-1 $-1 $204 $47 #
coedge $-1 $122 $122 $123 $205 reversed $73 $-1 #
coedge $-1 $123 $123 $122 $205 forward $75 $-1 #
coedge $-1 $124 $124 $76 $125 forward $119 $-1 #
edge $-1 $206 0 $206 6.2831853071796004 $124 $207 forward 7 unknown #
loop $-1 $-1 $131 $77 #
plane-surface $-1 -42.231860380465491 -7.125533282111153 74.523424423611672 0.52991927123019833 0 0.84804809178421925 0.84804809178421925 0 -0.52991927123019833 forward_v I I I I #
loop $-1 $-1 $208 $50 #
coedge $-1 $129 $129 $130 $209 reversed $78 $-1 #
coedge $-1 $130 $130 $129 $209 forward $80 $-1 #
coedge $-1 $131 $131 $81 $132 forward $126 $-1 #
edge $-1 $210 0 $210 6.2831853071796004 $131 $211 forward 7 unknown #
loop $-1 $-1 $138 $82 #
plane-surface $-1 -42.231860380465491 -7.125533282111153 74.523424423611672 0.52991927123019833 0 0.84804809178421925 0.84804809178421925 0 -0.52991927123019833 forward_v I I I I #
loop $-1 $-1 $212 $53 #
coedge $-1 $136 $136 $137 $213 reversed $83 $-1 #
coedge $-1 $137 $137 $136 $213 forward $85 $-1 #
coedge $-1 $138 $138 $86 $139 forward $133 $-1 #
edge $-1 $214 0 $214 6.2831853071796004 $138 $215 forward 7 unknown #
face $-1 $216 $217 $21 $-1 $218 reversed single #
loop $-1 $-1 $219 $87 #
plane-surface $-1 -60.669576097903374 0 0 1 0 0 0 0 -1 forward_v I I I I #
coedge $-1 $220 $151 $221 $222 forward $88 $-1 #
coedge $-1 $223 $90 $220 $224 forward $57 $-1 #
coedge $-1 $90 $223 $225 $226 forward $57 $-1 #
coedge $-1 $154 $153 $90 $147 reversed $155 $-1 #
edge $-1 $227 -32.47480379814926 $228 32.47480379814926 $146 $229 forward 7 unknown #
coedge $-1 $92 $91 $230 $231 forward $36 $-1 #
coedge $-1 $232 $233 $91 $150 reversed $217 $-1 #
edge $-1 $157 -60.669576097903374 $234 60.669576097903374 $149 $235 forward 7 unknown #
coedge $-1 $143 $236 $92 $152 reversed $88 $-1 #
edge $-1 $237 -60.669576097903374 $156 60.669576097903374 $151 $238 forward 7 unknown #
coedge $-1 $146 $93 $236 $239 forward $155 $-1 #
coedge $-1 $93 $146 $232 $240 reversed $155 $-1 #
loop $-1 $-1 $153 $216 #
vertex $-1 $94 $241 #
vertex $-1 $94 $242 #
straight-curve $-1 60.669576097903374 0 14.120449449572178 0 1 0 I I #
face $-1 $243 $244 $22 $-1 $245 reversed single #
loop $-1 $-1 $246 $95 #
plane-surface $-1 0 0 14.120449449572178 0 0 1 1 0 0 forward_v I I I I #
coedge $-1 $247 $248 $249 $250 reversed $96 $-1 #
coedge $-1 $101 $98 $251 $252 reversed $61 $-1 #
coedge $-1 $98 $101 $253 $254 reversed $61 $-1 #
coedge $-1 $248 $247 $98 $166 reversed $96 $-1 #
edge $-1 $255 -14.120449449572178 $256 14.120449449572178 $165 $257 forward 7 unknown #
coedge $-1 $100 $99 $258 $259 reversed $39 $-1 #
coedge $-1 $251 $260 $99 $169 forward $244 $-1 #
edge $-1 $261 -20.720882690940154 $173 -2.7869595234780551 $168 $262 forward 7 unknown #
coedge $-1 $263 $253 $100 $171 forward $160 $-1 #
edge $-1 $172 2.7869595234780551 $264 20.720882690940154 $170 $265 forward 7 unknown #
vertex $-1 $171 $266 #
vertex $-1 $169 $267 #
straight-curve $-1 -40.627906407939903 -14.540880630687161 0 0 0 -1 I I #
face $-1 $268 $269 $23 $-1 $270 reversed single #
loop $-1 $-1 $271 $103 #
plane-surface $-1 0 41.166591792719736 -11.111887846462015 0 0 1 1 0 0 forward_v I I I I #
coedge $-1 $272 $109 $180 $273 forward $104 $-1 #
coedge $-1 $274 $106 $271 $275 reversed $65 $-1 #
coedge $-1 $106 $274 $178 $273 reversed $65 $-1 #
edge $-1 $186 4.1261717953363473 $276 11.111887846462015 $106 $277 forward 7 unknown #
coedge $-1 $108 $107 $278 $279 forward $42 $-1 #
coedge $-1 $280 $281 $107 $184 forward $282 $-1 #
edge $-1 $283 -11.111887846462015 $187 -4.1261717953363473 $183 $284 forward 7 unknown #
coedge $-1 $109 $272 $280 $285 forward $104 $-1 #
vertex $-1 $181 $286 #
vertex $-1 $285 $287 #
straight-curve $-1 0 32.47480379814926 -4.1261717953363473 -1 0 0 I I #
face $-1 $-1 $288 $24 $-1 $289 reversed single #
loop $-1 $-1 $117 $111 #
plane-surface $-1 0 0 14.120449449572178 0 0 1 1 0 0 forward_v I I I I #
coedge $-1 $290 $291 $292 $293 reversed $112 $-1 #
coedge $-1 $294 $114 $116 $199 forward $69 $-1 #
coedge $-1 $114 $294 $290 $295 forward $69 $-1 #
coedge $-1 $292 $117 $114 $196 forward $190 $-1 #
edge $-1 $202 0.25759456620374799 $296 6.867938715907405 $195 $297 forward 7 unknown #
coedge $-1 $298 $299 $115 $198 forward $288 $-1 #
edge $-1 $300 -78.488961130670631 $201 -74.591981001418091 $197 $301 forward 7 unknown #
edge $-1 $202 113.98523936262035 $300 121.33915219580675 $116 $302 forward 7 unknown #
coedge $-1 $117 $292 $298 $303 forward $190 $-1 #
vertex $-1 $198 $304 #
vertex $-1 $118 $305 #
straight-curve $-1 11.034047361413272 -3.8203612072593245 14.120449449572178 -1 0 0 I I #
coedge $-1 $204 $204 $-1 $306 reversed $121 $-1 #
edge $-1 $307 0 $307 6.2831853071796004 $122 $308 forward 7 unknown #
vertex $-1 $125 $309 #
ellipse-curve $-1 57.551340225237759 -9.1086365270222487 12.17195938494592 0.52991927123019833 0 0.84804809178421925 0.42402404589210962 0 -0.26495963561509916 1 I I #
coedge $-1 $208 $208 $-1 $310 reversed $128 $-1 #
edge $-1 $311 0 $311 6.2831853071796004 $129 $312 forward 7 unknown #
vertex $-1 $132 $313 #
ellipse-curve $-1 57.551340225237759 -7.125533282111153 12.17195938494592 0.52991927123019833 0 0.84804809178421925 0.42402404589210962 0 -0.26495963561509916 1 I I #
coedge $-1 $212 $212 $-1 $314 reversed $135 $-1 #
edge $-1 $315 0 $315 6.2831853071796004 $136 $316 forward 7 unknown #
vertex $-1 $139 $317 #
ellipse-curve $-1 57.551340225237759 -5.1424300372000573 12.17195938494592 0.52991927123019833 0 0.84804809178421925 0.42402404589210962 0 -0.26495963561509916 1 I I #
face $-1 $-1 $155 $21 $-1 $318 reversed single #
loop $-1 $-1 $233 $140 #
plane-surface $-1 0 32.47480379814926 0 0 -1 0 0 0 -1 forward_v I I I I #
coedge $-1 $319 $230 $233 $320 forward $141 $-1 #
coedge $-1 $236 $143 $144 $224 reversed $88 $-1 #
coedge $-1 $230 $319 $143 $222 reversed $141 $-1 #
edge $-1 $237 -14.120449449572178 $321 14.120449449572178 $221 $322 forward 7 unknown #
coedge $-1 $145 $144 $319 $323 forward $57 $-1 #
edge $-1 $228 -60.669576097903374 $321 60.669576097903374 $220 $324 forward 7 unknown #
coedge $-1 $233 $232 $145 $226 reversed $217 $-1 #
edge $-1 $325 -60.669576097903374 $227 60.669576097903374 $225 $326 forward 7 unknown #
vertex $-1 $147 $327 #
vertex $-1 $239 $328 #
straight-curve $-1 60.669576097903374 0 -14.120449449572178 0 -1 0 I I #
coedge $-1 $219 $221 $148 $231 reversed $141 $-1 #
edge $-1 $234 -32.47480379814926 $237 32.47480379814926 $230 $329 forward 7 unknown #
coedge $-1 $225 $149 $154 $240 forward $217 $-1 #
coedge $-1 $149 $225 $219 $320 reversed $217 $-1 #
vertex $-1 $150 $330 #
straight-curve $-1 0 32.47480379814926 14.120449449572178 -1 0 0 I I #
coedge $-1 $151 $220 $153 $239 reversed $88 $-1 #
vertex $-1 $231 $331 #
straight-curve $-1 0 -32.47480379814926 14.120449449572178 1 0 0 I I #
edge $-1 $156 -14.120449449572178 $228 14.120449449572178 $153 $332 forward 7 unknown #
edge $-1 $157 -14.120449449572178 $227 14.120449449572178 $154 $333 forward 7 unknown #
point $-1 60.669576097903374 -32.47480379814926 14.120449449572178 #
point $-1 60.669576097903374 32.47480379814926 14.120449449572178 #
face $-1 $-1 $334 $22 $-1 $335 reversed single #
loop $-1 $-1 $336 $159 #
plane-surface $-1 0 0 -14.120449449572178 0 0 1 1 0 0 forward_v I I I I #
coedge $-1 $253 $263 $248 $337 forward $160 $-1 #
coedge $-1 $165 $162 $336 $338 reversed $96 $-1 #
coedge $-1 $162 $165 $246 $337 reversed $96 $-1 #
coedge $-1 $339 $340 $162 $250 forward $334 $-1 #
edge $-1 $341 -14.120449449572178 $342 14.120449449572178 $249 $343 forward 7 unknown #
coedge $-1 $336 $168 $163 $252 forward $244 $-1 #
edge $-1 $173 -22.363760506265173 $256 -14.164531297084288 $251 $344 forward 7 unknown #
coedge $-1 $170 $246 $164 $254 forward $160 $-1 #
edge $-1 $255 14.164531297084288 $172 22.363760506265173 $253 $345 forward 7 unknown #
vertex $-1 $254 $346 #
vertex $-1 $252 $347 #
straight-curve $-1 -32.428677198759019 -14.540880630687161 0 0 0 -1 I I #
coedge $-1 $340 $339 $167 $259 forward $334 $-1 #
edge $-1 $264 -14.120449449572178 $261 14.120449449572178 $258 $348 forward 7 unknown #
coedge $-1 $168 $336 $340 $349 forward $244 $-1 #
vertex $-1 $169 $350 #
straight-curve $-1 -40.627906407939903 -11.753921107209106 -14.120449449572178 0 1 0 I I #
coedge $-1 $246 $170 $339 $351 forward $160 $-1 #
vertex $-1 $351 $352 #
straight-curve $-1 -40.627906407939903 -11.753921107209106 14.120449449572178 0 -1 0 I I #
point $-1 -40.627906407939903 -14.540880630687161 14.120449449572178 #
point $-1 -40.627906407939903 -14.540880630687161 -14.120449449572178 #
face $-1 $-1 $282 $23 $-1 $353 reversed single #
loop $-1 $-1 $354 $175 #
plane-surface $-1 0 49.858379787290218 -7.6190298208991809 0 -1 0 0 0 -1 forward_v I I I I #
coedge $-1 $278 $355 $179 $275 forward $176 $-1 #
coedge $-1 $185 $178 $356 $357 forward $104 $-1 #
edge $-1 $186 -8.6917879945704826 $358 8.6917879945704826 $180 $359 forward 7 unknown #
coedge $-1 $180 $179 $354 $360 reversed $65 $-1 #
edge $-1 $361 -8.6917879945704826 $276 8.6917879945704826 $179 $362 forward 7 unknown #
vertex $-1 $181 $363 #
straight-curve $-1 60.669576097903374 32.47480379814926 0 0 0 -1 I I #
coedge $-1 $364 $271 $182 $279 reversed $176 $-1 #
edge $-1 $283 -60.669576097903374 $276 60.669576097903374 $278 $365 forward 7 unknown #
coedge $-1 $366 $183 $185 $285 reversed $282 $-1 #
coedge $-1 $183 $366 $364 $367 reversed $282 $-1 #
loop $-1 $-1 $183 $268 #
vertex $-1 $184 $368 #
straight-curve $-1 -60.669576097903374 32.47480379814926 0 0 0 1 I I #
edge $-1 $369 -8.6917879945704826 $187 8.6917879945704826 $280 $370 forward 7 unknown #
point $-1 60.669576097903374 32.474803798149253 -4.1261717953363473 #
point $-1 -60.669576097903374 32.474803798149253 -4.1261717953363473 #
loop $-1 $-1 $197 $189 #
plane-surface $-1 60.669576097903374 0 0 -1 0 0 0 0 1 forward_v I I I I #
coedge $-1 $291 $192 $194 $295 reversed $112 $-1 #
coedge $-1 $192 $290 $371 $372 reversed $112 $-1 #
coedge $-1 $200 $195 $192 $293 forward $190 $-1 #
edge $-1 $296 43.399056991158901 $373 49.635528736490102 $292 $374 forward 7 unknown #
coedge $-1 $194 $193 $299 $375 reversed $69 $-1 #
edge $-1 $376 -121.33915219580675 $296 -113.98523936262035 $290 $377 forward 7 unknown #
vertex $-1 $196 $378 #
straight-curve $-1 54.433104352572194 -3.5627666410555765 14.12044944957217 0 -1 0 I I #
coedge $-1 $371 $197 $200 $303 reversed $288 $-1 #
coedge $-1 $197 $371 $294 $375 forward $288 $-1 #
vertex $-1 $198 $379 #
straight-curve $-1 60.669576097903374 -3.8203612072593245 88.712430450990269 0 0 1 I I #
straight-curve $-1 -42.231860380465491 -3.8203612072593245 74.523424423611672 0.84804809178421925 0 -0.52991927123019833 I I #
edge $-1 $373 -10.430705356962982 $201 -3.8203612072593245 $298 $380 forward 7 unknown #
point $-1 60.669576097903374 -3.8203612072593245 14.120449449572178 #
point $-1 54.433104352572173 -3.8203612072593245 14.120449449572185 #
edge $-1 $381 1 $381 0 $204 $-1 forward 7 unknown #
vertex $-1 $205 $382 #
ellipse-curve $-1 56.678486350704333 -9.1086365270222487 10.775101216368427 0.52991927123019833 0 0.84804809178421925 0.42402404589210962 0 -0.26495963561509916 1 I I #
point $-1 57.975364271129848 -9.1086365270222487 11.906999749330792 #
edge $-1 $383 1 $383 0 $208 $-1 forward 7 unknown #
vertex $-1 $209 $384 #
ellipse-curve $-1 56.678486350704333 -7.125533282111153 10.775101216368427 0.52991927123019833 0 0.84804809178421925 0.42402404589210962 0 -0.26495963561509916 1 I I #
point $-1 57.975364271129848 -7.125533282111153 11.906999749330792 #
edge $-1 $385 1 $385 0 $212 $-1 forward 7 unknown #
vertex $-1 $213 $386 #
ellipse-curve $-1 56.678486350704333 -5.1424300372000573 10.775101216368427 0.52991927123019833 0 0.84804809178421925 0.42402404589210962 0 -0.26495963561509916 1 I I #
point $-1 57.975364271129848 -5.1424300372000573 11.906999749330792 #
plane-surface $-1 60.669576097903374 0 0 -1 0 0 0 0 1 forward_v I I I I #
coedge $-1 $221 $219 $223 $323 reversed $141 $-1 #
edge $-1 $234 -14.120449449572178 $325 14.120449449572178 $233 $387 forward 7 unknown #
vertex $-1 $323 $388 #
straight-curve $-1 -60.669576097903374 -32.47480379814926 0 0 0 -1 I I #
edge $-1 $321 -32.47480379814926 $325 32.47480379814926 $319 $389 forward 7 unknown #
straight-curve $-1 0 -32.47480379814926 -14.120449449572178 -1 0 0 I I #
vertex $-1 $226 $390 #
straight-curve $-1 0 32.47480379814926 -14.120449449572178 1 0 0 I I #
point $-1 60.669576097903374 32.47480379814926 -14.120449449572178 #
point $-1 60.669576097903374 -32.47480379814926 -14.120449449572178 #
straight-curve $-1 -60.669576097903374 0 14.120449449572178 0 -1 0 I I #
point $-1 -60.669576097903374 32.47480379814926 14.120449449572178 #
point $-1 -60.669576097903374 -32.47480379814926 14.120449449572178 #
straight-curve $-1 60.669576097903374 -32.47480379814926 0 0 0 -1 I I #
straight-curve $-1 60.669576097903374 32.47480379814926 0 0 0 -1 I I #
loop $-1 $-1 $249 $243 #
plane-surface $-1 0 -32.47480379814926 0 0 1 0 0 0 1 forward_v I I I I #
coedge $-1 $260 $251 $247 $338 forward $244 $-1 #
edge $-1 $342 -20.720882690940154 $255 -2.7869595234780551 $246 $391 forward 7 unknown #
edge $-1 $256 2.7869595234780551 $341 20.720882690940154 $336 $392 forward 7 unknown #
coedge $-1 $258 $249 $263 $351 reversed $334 $-1 #
coedge $-1 $249 $258 $260 $349 reversed $334 $-1 #
vertex $-1 $349 $393 #
vertex $-1 $250 $394 #
straight-curve $-1 -32.428677198759019 -32.47480379814926 0 0 0 1 I I #
straight-curve $-1 -18.264145901674731 -14.540880630687161 -14.120449449572178 1 0 0 I I #
straight-curve $-1 -18.264145901674731 -14.540880630687161 14.120449449572178 -1 0 0 I I #
point $-1 -32.428677198759019 -14.540880630687161 14.120449449572178 #
point $-1 -32.428677198759019 -14.540880630687161 -14.120449449572178 #
straight-curve $-1 -40.627906407939903 -32.47480379814926 0 0 0 -1 I I #
edge $-1 $341 32.428677198759019 $261 40.627906407939903 $340 $395 forward 7 unknown #
point $-1 -40.627906407939903 -32.47480379814926 -14.120449449572178 #
edge $-1 $264 -40.627906407939903 $342 -32.428677198759019 $339 $396 forward 7 unknown #
point $-1 -40.627906407939903 -32.47480379814926 14.120449449572178 #
plane-surface $-1 -60.669576097903374 0 0 1 0 0 0 0 -1 forward_v I I I I #
coedge $-1 $397 $356 $274 $360 forward $269 $-1 #
coedge $-1 $271 $364 $397 $398 forward $176 $-1 #
coedge $-1 $354 $399 $272 $357 reversed $269 $-1 #
edge $-1 $358 -60.669576097903374 $369 60.669576097903374 $356 $400 forward 7 unknown #
vertex $-1 $273 $401 #
straight-curve $-1 60.669576097903374 41.166591792719736 -4.1261717953363473 0 1 0 I I #
edge $-1 $358 -3.4928580255628336 $361 3.4928580255628336 $274 $402 forward 7 unknown #
vertex $-1 $275 $403 #
straight-curve $-1 60.669576097903374 41.166591792719736 -11.111887846462015 0 -1 0 I I #
point $-1 60.669576097903374 32.474803798149253 -11.111887846462015 #
coedge $-1 $355 $278 $281 $367 forward $176 $-1 #
straight-curve $-1 0 32.47480379814926 -11.111887846462015 1 0 0 I I #
coedge $-1 $281 $280 $399 $404 forward $282 $-1 #
edge $-1 $283 -8.6917879945704826 $405 8.6917879945704826 $281 $406 forward 7 unknown #
point $-1 -60.669576097903374 32.474803798149253 -11.111887846462015 #
vertex $-1 $357 $407 #
straight-curve $-1 -60.669576097903374 41.166591792719736 -4.1261717953363473 0 -1 0 I I #
coedge $-1 $299 $298 $291 $372 forward $288 $-1 #
edge $-1 $373 74.591981001418091 $376 78.488961130670631 $371 $408 forward 7 unknown #
vertex $-1 $303 $409 #
straight-curve $-1 11.034047361413272 -10.430705356962982 14.120449449572178 1 0 0 I I #
edge $-1 $376 -6.867938715907405 $300 -0.25759456620374799 $299 $410 forward 7 unknown #
vertex $-1 $375 $411 #
straight-curve $-1 -42.231860380465491 -10.430705356962982 74.523424423611672 -0.84804809178421925 0 0.52991927123019833 I I #
point $-1 54.433104352572173 -10.430705356962982 14.120449449572185 #
point $-1 60.669576097903374 -3.8203612072593245 10.223469320319637 #
straight-curve $-1 60.669576097903374 0 14.120449449572178 0 1 0 I I #
vertex $-1 $306 $412 #
point $-1 57.102510396596443 -9.1086365270222487 10.510141580753327 #
vertex $-1 $310 $413 #
point $-1 57.102510396596443 -7.125533282111153 10.510141580753327 #
vertex $-1 $314 $414 #
point $-1 57.102510396596443 -5.1424300372000573 10.510141580753327 #
straight-curve $-1 -60.669576097903374 32.47480379814926 0 0 0 -1 I I #
point $-1 -60.669576097903374 -32.47480379814926 -14.120449449572178 #
straight-curve $-1 -60.669576097903374 0 -14.120449449572178 0 1 0 I I #
point $-1 -60.669576097903374 32.47480379814926 -14.120449449572178 #
straight-curve $-1 -32.428677198759019 -11.753921107209106 14.120449449572178 0 1 0 I I #
straight-curve $-1 -32.428677198759019 -11.753921107209106 -14.120449449572178 0 -1 0 I I #
point $-1 -32.428677198759019 -32.47480379814926 -14.120449449572178 #
point $-1 -32.428677198759019 -32.47480379814926 14.120449449572178 #
straight-curve $-1 0 -32.47480379814926 -14.120449449572178 -1 0 0 I I #
straight-curve $-1 0 -32.47480379814926 14.120449449572178 1 0 0 I I #
coedge $-1 $399 $354 $355 $398 reversed $269 $-1 #
edge $-1 $405 -60.669576097903374 $361 60.669576097903374 $397 $415 forward 7 unknown #
coedge $-1 $356 $397 $366 $404 reversed $269 $-1 #
straight-curve $-1 0 49.858379787290218 -4.1261717953363473 -1 0 0 I I #
point $-1 60.669576097903374 49.858379787290218 -4.1261717953363473 #
straight-curve $-1 60.669576097903374 49.858379787290218 -7.6190298208991809 0 0 -1 I I #
point $-1 60.669576097903374 49.858379787290218 -11.111887846462015 #
edge $-1 $369 -3.4928580255628336 $405 3.4928580255628336 $399 $416 forward 7 unknown #
vertex $-1 $398 $417 #
straight-curve $-1 -60.669576097903374 41.166591792719736 -11.111887846462015 0 1 0 I I #
point $-1 -60.669576097903374 49.858379787290218 -4.1261717953363473 #
straight-curve $-1 60.669576097903374 -10.430705356962982 88.712430450990269 0 0 -1 I I #
point $-1 60.669576097903374 -10.430705356962982 14.120449449572178 #
straight-curve $-1 60.669576097903381 -3.5627666410555765 10.223469320319637 0 1 0 I I #
point $-1 60.669576097903374 -10.430705356962982 10.223469320319637 #
point $-1 56.413526715089233 -9.1086365270222487 10.351077170476316 #
point $-1 56.413526715089233 -7.125533282111153 10.351077170476316 #
point $-1 56.413526715089233 -5.1424300372000573 10.351077170476316 #
straight-curve $-1 0 49.858379787290218 -11.111887846462015 1 0 0 I I #
straight-curve $-1 -60.669576097903374 49.858379787290218 -7.6190298208991809 0 0 -1 I I #
point $-1 -60.669576097903374 49.858379787290218 -11.111887846462015 #
End-of-ACIS-data 