500 0 12 0           
7 Unknown 11 ACIS 5.0 NT 24 Fri Mar 26 19:10:30 1999 
-1 9.9999999999999995e-007 1e-010 
body $-1 $12 $-1 $13 #
body $-1 $14 $-1 $15 #
body $-1 $16 $-1 $17 #
body $-1 $18 $-1 $19 #
body $-1 $20 $-1 $21 #
body $-1 $22 $-1 $23 #
body $-1 $24 $-1 $25 #
body $-1 $26 $-1 $27 #
body $-1 $28 $-1 $29 #
body $-1 $30 $-1 $31 #
body $-1 $32 $-1 $33 #
body $-1 $34 $-1 $35 #
lump $-1 $-1 $36 $0 #
transform $-1 1 0 0 0 1 0 0 0 1 42.235175634022035 24.145599981671943 9.194074416679058 1 rotate no_reflect no_shear #
lump $-1 $-1 $37 $1 #
transform $-1 1 0 0 0 1 0 0 0 1 42.235175634022035 24.145599981671943 9.194074416679058 1 rotate no_reflect no_shear #
lump $-1 $-1 $38 $2 #
transform $-1 1 0 0 0 1 0 0 0 1 42.235175634022035 24.145599981671943 9.194074416679058 1 rotate no_reflect no_shear #
lump $-1 $-1 $39 $3 #
transform $-1 1 0 0 0 1 0 0 0 1 42.235175634022035 24.145599981671943 9.194074416679058 1 rotate no_reflect no_shear #
lump $-1 $-1 $40 $4 #
transform $-1 1 0 0 0 1 0 0 0 1 42.235175634022035 24.145599981671943 9.194074416679058 1 rotate no_reflect no_shear #
lump $-1 $-1 $41 $5 #
transform $-1 1 0 0 0 1 0 0 0 1 42.235175634022035 24.145599981671943 9.194074416679058 1 rotate no_reflect no_shear #
lump $-1 $-1 $42 $6 #
transform $-1 1 0 0 0 1 0 0 0 1 42.235175634022035 24.145599981671943 9.194074416679058 1 rotate no_reflect no_shear #
lump $-1 $-1 $43 $7 #
transform $-1 1 0 0 0 1 0 0 0 1 42.235175634022035 24.145599981671943 9.194074416679058 1 rotate no_reflect no_shear #
lump $-1 $-1 $44 $8 #
transform $-1 1 0 0 0 1 0 0 0 1 42.235175634022035 24.145599981671943 9.194074416679058 1 rotate no_reflect no_shear #
lump $-1 $-1 $45 $9 #
transform $-1 1 0 0 0 1 0 0 0 1 42.235175634022035 24.145599981671943 9.194074416679058 1 rotate no_reflect no_shear #
lump $-1 $-1 $46 $10 #
transform $-1 1 0 0 0 1 0 0 0 1 42.235175634022035 24.145599981671943 9.194074416679058 1 rotate no_reflect no_shear #
lump $-1 $-1 $47 $11 #
transform $-1 1 0 0 0 1 0 0 0 1 42.235175634022035 24.145599981671943 9.194074416679058 1 rotate no_reflect no_shear #
shell $-1 $-1 $-1 $48 $-1 $12 #
shell $-1 $-1 $-1 $49 $-1 $14 #
shell $-1 $-1 $-1 $50 $-1 $16 #
shell $-1 $-1 $-1 $51 $-1 $18 #
shell $-1 $-1 $-1 $52 $-1 $20 #
shell $-1 $-1 $-1 $53 $-1 $22 #
shell $-1 $-1 $-1 $54 $-1 $24 #
shell $-1 $-1 $-1 $55 $-1 $26 #
shell $-1 $-1 $-1 $56 $-1 $28 #
shell $-1 $-1 $-1 $57 $-1 $30 #
shell $-1 $-1 $-1 $58 $-1 $32 #
shell $-1 $-1 $-1 $59 $-1 $34 #
face $-1 $60 $61 $36 $-1 $62 forward single #
face $-1 $63 $64 $37 $-1 $65 forward single #
face $-1 $66 $67 $38 $-1 $68 reversed single #
face $-1 $69 $70 $39 $-1 $71 forward single #
face $-1 $72 $73 $40 $-1 $74 forward single #
face $-1 $75 $76 $41 $-1 $77 reversed single #
face $-1 $78 $79 $42 $-1 $80 forward single #
face $-1 $81 $82 $43 $-1 $83 forward single #
face $-1 $84 $85 $44 $-1 $86 reversed single #
face $-1 $87 $88 $45 $-1 $89 forward single #
face $-1 $90 $91 $46 $-1 $92 forward single #
face $-1 $93 $94 $47 $-1 $95 forward single #
face $-1 $96 $97 $36 $-1 $98 reversed single #
loop $-1 $-1 $99 $48 #
plane-surface $-1 0 0 9.194074416679058 0 0 1 1 0 0 forward_v I I I I #
face $-1 $100 $101 $37 $-1 $102 reversed single #
loop $-1 $-1 $103 $49 #
plane-surface $-1 -38.46898622602248 0 -4.1737546961948322 0 0 1 1 0 0 forward_v I I I I #
face $-1 $104 $105 $38 $-1 $106 reversed single #
loop $-1 $-1 $107 $50 #
plane-surface $-1 -28.389836486399794 -94.988398130319922 49.267629829418773 1 0 0 0 0.83867057594974714 -0.54463902268945019 forward_v I I I I #
face $-1 $108 $109 $39 $-1 $110 forward single #
loop $-1 $111 $112 $51 #
cone-surface $-1 -22.954443737553255 -20.735518477263227 5.2643083753215647 0 0.83867057594974714 -0.54463902268945019 1 0 0 1 I I 0 1 1 forward I I I I #
face $-1 $113 $114 $40 $-1 $115 forward single #
loop $-1 $116 $117 $52 #
cone-surface $-1 -14.801354614283447 -20.735518477263227 5.2643083753215647 0 0.83867057594974714 -0.54463902268945019 1 0 0 1 I I 0 1 1 forward I I I I #
face $-1 $118 $119 $41 $-1 $120 reversed single #
loop $-1 $-1 $121 $53 #
plane-surface $-1 16.898340681436018 -94.988398130319922 49.267629829418773 1 0 0 0 0.83867057594974714 -0.54463902268945019 forward_v I I I I #
face $-1 $122 $123 $42 $-1 $124 forward single #
loop $-1 $125 $126 $54 #
cone-surface $-1 22.333733430282557 -20.735518477263227 5.2643083753215647 0 0.83867057594974714 -0.54463902268945019 1 0 0 1 I I 0 1 1 forward I I I I #
face $-1 $127 $128 $43 $-1 $129 forward single #
loop $-1 $130 $131 $55 #
cone-surface $-1 30.486822553552365 -20.735518477263227 5.2643083753215647 0 0.83867057594974714 -0.54463902268945019 1 0 0 1 I I 0 1 1 forward I I I I #
face $-1 $132 $133 $44 $-1 $134 reversed single #
loop $-1 $-1 $135 $56 #
plane-surface $-1 -6.6798979531381093 70.190084684514744 86.463544077633173 1 0 0 0 -0.84804810408105047 -0.52991925155115449 forward_v I I I I #
face $-1 $136 $137 $45 $-1 $138 forward single #
loop $-1 $139 $140 $57 #
cone-surface $-1 -3.0053683773727613 20.937479357346596 4.6152598145348147 0 -0.84804810408105047 -0.52991925155115449 1 0 0 1 I I 0 1 1 forward I I I I #
face $-1 $141 $142 $46 $-1 $143 forward single #
loop $-1 $144 $145 $58 #
cone-surface $-1 2.5064259862752678 20.937479357346596 4.6152598145348147 0 -0.84804810408105047 -0.52991925155115449 1 0 0 1 I I 0 1 1 forward I I I I #
face $-1 $146 $147 $47 $-1 $148 forward single #
loop $-1 $149 $150 $59 #
cone-surface $-1 8.0182203499232898 20.937479357346596 4.6152598145348147 0 -0.84804810408105047 -0.52991925155115449 1 0 0 1 I I 0 1 1 forward I I I I #
face $-1 $151 $152 $36 $-1 $153 reversed single #
loop $-1 $-1 $154 $60 #
plane-surface $-1 0 0 -9.194074416679058 0 0 1 1 0 0 forward_v I I I I #
coedge $-1 $155 $156 $157 $158 forward $61 $-1 #
face $-1 $159 $160 $37 $-1 $161 reversed single #
loop $-1 $-1 $162 $63 #
plane-surface $-1 -38.46898622602248 0 -7.1737546961948322 0 0 1 1 0 0 forward_v I I I I #
coedge $-1 $163 $164 $165 $166 forward $64 $-1 #
face $-1 $167 $168 $38 $-1 $169 reversed single #
loop $-1 $-1 $170 $66 #
plane-surface $-1 -18.877899175918351 -24.14559998167195 3.2617802685566915 0 -0.83867057594974714 0.54463902268945019 1 0 0 forward_v I I I I #
coedge $-1 $171 $172 $173 $174 reversed $67 $-1 #
face $-1 $-1 $175 $39 $-1 $176 forward single #
loop $-1 $177 $178 $69 #
cone-surface $-1 -22.954443737553255 -18.832340055339241 4.0283698966805304 0 0.83867057594974714 -0.54463902268945019 0.5 0 0 1 I I -0.70710678118654746 0.70710678118654746 0.5 forward I I I I #
loop $-1 $-1 $179 $51 #
coedge $-1 $112 $112 $180 $181 reversed $70 $-1 #
face $-1 $-1 $182 $40 $-1 $183 forward single #
loop $-1 $184 $185 $72 #
cone-surface $-1 -14.801354614283447 -18.832340055339241 4.0283698966805304 0 0.83867057594974714 -0.54463902268945019 0.5 0 0 1 I I -0.70710678118654746 0.70710678118654746 0.5 forward I I I I #
loop $-1 $-1 $186 $52 #
coedge $-1 $117 $117 $187 $188 reversed $73 $-1 #
face $-1 $189 $190 $41 $-1 $191 reversed single #
loop $-1 $-1 $192 $75 #
plane-surface $-1 26.410277991917461 -24.14559998167195 3.2617802685566915 0 -0.83867057594974714 0.54463902268945019 1 0 0 forward_v I I I I #
coedge $-1 $193 $194 $195 $196 reversed $76 $-1 #
face $-1 $-1 $197 $42 $-1 $198 forward single #
loop $-1 $199 $200 $78 #
cone-surface $-1 22.333733430282557 -18.832340055339241 4.0283698966805304 0 0.83867057594974714 -0.54463902268945019 0.5 0 0 1 I I -0.70710678118654746 0.70710678118654746 0.5 forward I I I I #
loop $-1 $-1 $201 $54 #
coedge $-1 $126 $126 $202 $203 reversed $79 $-1 #
face $-1 $-1 $204 $43 $-1 $205 forward single #
loop $-1 $206 $207 $81 #
cone-surface $-1 30.486822553552365 -18.832340055339241 4.0283698966805304 0 0.83867057594974714 -0.54463902268945019 0.5 0 0 1 I I -0.70710678118654746 0.70710678118654746 0.5 forward I I I I #
loop $-1 $-1 $208 $55 #
coedge $-1 $131 $131 $209 $210 reversed $82 $-1 #
face $-1 $211 $212 $44 $-1 $213 reversed single #
loop $-1 $-1 $214 $84 #
plane-surface $-1 2.5064259862752678 -1.4448365594103905 41.701078755408147 0 0.84804810408105047 0.52991925155115449 1 0 0 forward_v I I I I #
coedge $-1 $215 $216 $217 $218 reversed $85 $-1 #
face $-1 $-1 $219 $45 $-1 $220 forward single #
loop $-1 $221 $222 $87 #
cone-surface $-1 -3.0053683773727613 19.944237922661749 3.9946137036067881 0 -0.84804810408105047 -0.52991925155115449 0.5 0 0 1 I I -0.70710678118654724 0.70710678118654791 0.5 forward I I I I #
loop $-1 $-1 $223 $57 #
coedge $-1 $140 $140 $224 $225 reversed $88 $-1 #
face $-1 $-1 $226 $46 $-1 $227 forward single #
loop $-1 $228 $229 $90 #
cone-surface $-1 2.5064259862752678 19.944237922661749 3.9946137036067881 0 -0.84804810408105047 -0.52991925155115449 0.5 0 0 1 I I -0.70710678118654724 0.70710678118654791 0.5 forward I I I I #
loop $-1 $-1 $230 $58 #
coedge $-1 $145 $145 $231 $232 reversed $91 $-1 #
face $-1 $-1 $233 $47 $-1 $234 forward single #
loop $-1 $235 $236 $93 #
cone-surface $-1 8.0182203499232898 19.944237922661749 3.9946137036067881 0 -0.84804810408105047 -0.52991925155115449 0.5 0 0 1 I I -0.70710678118654724 0.70710678118654791 0.5 forward I I I I #
loop $-1 $-1 $237 $59 #
coedge $-1 $150 $150 $238 $239 reversed $94 $-1 #
face $-1 $240 $241 $36 $-1 $242 reversed single #
loop $-1 $-1 $243 $96 #
plane-surface $-1 0 -24.145599981671943 0 0 1 0 0 0 1 forward_v I I I I #
coedge $-1 $244 $245 $246 $247 forward $97 $-1 #
coedge $-1 $248 $99 $249 $250 forward $61 $-1 #
coedge $-1 $99 $248 $251 $252 forward $61 $-1 #
coedge $-1 $253 $254 $99 $158 reversed $255 $-1 #
edge $-1 $256 -24.145599981671943 $257 24.145599981671943 $157 $258 forward 7 unknown #
face $-1 $259 $260 $37 $-1 $261 reversed single #
loop $-1 $-1 $262 $100 #
plane-surface $-1 -34.702796818022925 0 -5.6737546961948322 -1 0 0 0 0 1 forward_v I I I I #
coedge $-1 $263 $264 $265 $266 forward $101 $-1 #
coedge $-1 $267 $103 $268 $269 reversed $64 $-1 #
coedge $-1 $103 $267 $270 $271 reversed $64 $-1 #
coedge $-1 $262 $272 $103 $166 reversed $160 $-1 #
edge $-1 $273 -24.145599981671943 $274 24.145599981671943 $165 $275 forward 7 unknown #
face $-1 $276 $277 $38 $-1 $278 forward single #
loop $-1 $-1 $279 $104 #
plane-surface $-1 -9.3659618654369083 -94.988398130319922 49.267629829418773 -1 0 0 0 -0.83867057594974714 0.54463902268945019 forward_v I I I I #
coedge $-1 $280 $281 $282 $283 reversed $105 $-1 #
coedge $-1 $172 $107 $284 $285 reversed $67 $-1 #
coedge $-1 $107 $171 $280 $286 reversed $67 $-1 #
coedge $-1 $282 $287 $107 $174 forward $288 $-1 #
edge $-1 $289 15.439740498030329 $290 21.372034646152684 $173 $291 forward 7 unknown #
loop $-1 $-1 $180 $108 #
plane-surface $-1 -18.877899175918351 -24.14559998167195 3.2617802685566915 0 -0.83867057594974714 0.54463902268945019 1 0 0 forward_v I I I I #
loop $-1 $-1 $292 $69 #
coedge $-1 $178 $178 $179 $293 reversed $109 $-1 #
coedge $-1 $179 $179 $178 $293 forward $111 $-1 #
coedge $-1 $180 $180 $112 $181 forward $175 $-1 #
edge $-1 $294 8.9033658465053147e-016 $294 6.2831853071796013 $180 $295 forward 7 unknown #
loop $-1 $-1 $187 $113 #
plane-surface $-1 -18.877899175918351 -24.14559998167195 3.2617802685566915 0 -0.83867057594974714 0.54463902268945019 1 0 0 forward_v I I I I #
loop $-1 $-1 $296 $72 #
coedge $-1 $185 $185 $186 $297 reversed $114 $-1 #
coedge $-1 $186 $186 $185 $297 forward $116 $-1 #
coedge $-1 $187 $187 $117 $188 forward $182 $-1 #
edge $-1 $298 8.9033658465053147e-016 $298 6.2831853071796013 $187 $299 forward 7 unknown #
face $-1 $300 $301 $41 $-1 $302 reversed single #
loop $-1 $-1 $303 $118 #
plane-surface $-1 35.922215302398904 -94.988398130319922 49.267629829418773 -1 0 0 0 -0.83867057594974714 0.54463902268945019 forward_v I I I I #
coedge $-1 $304 $305 $306 $307 reversed $119 $-1 #
coedge $-1 $194 $121 $308 $309 reversed $76 $-1 #
coedge $-1 $121 $193 $304 $310 reversed $76 $-1 #
coedge $-1 $306 $311 $121 $196 forward $301 $-1 #
edge $-1 $312 15.439740498030329 $313 21.372034646152684 $195 $314 forward 7 unknown #
loop $-1 $-1 $202 $122 #
plane-surface $-1 26.410277991917461 -24.14559998167195 3.2617802685566915 0 -0.83867057594974714 0.54463902268945019 1 0 0 forward_v I I I I #
loop $-1 $-1 $315 $78 #
coedge $-1 $200 $200 $201 $316 reversed $123 $-1 #
coedge $-1 $201 $201 $200 $316 forward $125 $-1 #
coedge $-1 $202 $202 $126 $203 forward $197 $-1 #
edge $-1 $317 8.9033658465053147e-016 $317 6.2831853071796013 $202 $318 forward 7 unknown #
loop $-1 $-1 $209 $127 #
plane-surface $-1 26.410277991917461 -24.14559998167195 3.2617802685566915 0 -0.83867057594974714 0.54463902268945019 1 0 0 forward_v I I I I #
loop $-1 $-1 $319 $81 #
coedge $-1 $207 $207 $208 $320 reversed $128 $-1 #
coedge $-1 $208 $208 $207 $320 forward $130 $-1 #
coedge $-1 $209 $209 $131 $210 forward $204 $-1 #
edge $-1 $321 8.9033658465053147e-016 $321 6.2831853071796013 $209 $322 forward 7 unknown #
face $-1 $323 $324 $44 $-1 $325 reversed single #
loop $-1 $-1 $326 $132 #
plane-surface $-1 11.692749925688645 70.190084684514744 86.463544077633173 -1 0 0 0 0.84804810408105047 0.52991925155115449 forward_v I I I I #
coedge $-1 $327 $328 $329 $330 reversed $133 $-1 #
coedge $-1 $216 $135 $331 $332 reversed $85 $-1 #
coedge $-1 $135 $215 $327 $333 reversed $85 $-1 #
coedge $-1 $329 $334 $135 $218 forward $335 $-1 #
edge $-1 $336 10.949442360585429 $337 16.227248843947471 $217 $338 forward 7 unknown #
loop $-1 $-1 $224 $136 #
plane-surface $-1 2.5064259862752678 -1.4448365594103905 41.701078755408147 0 0.84804810408105047 0.52991925155115449 1 0 0 forward_v I I I I #
loop $-1 $-1 $339 $87 #
coedge $-1 $222 $222 $223 $340 reversed $137 $-1 #
coedge $-1 $223 $223 $222 $340 forward $139 $-1 #
coedge $-1 $224 $224 $140 $225 forward $219 $-1 #
edge $-1 $341 -3.7700270109167406e-016 $341 6.2831853071796004 $224 $342 forward 7 unknown #
loop $-1 $-1 $231 $141 #
plane-surface $-1 2.5064259862752678 -1.4448365594103905 41.701078755408147 0 0.84804810408105047 0.52991925155115449 1 0 0 forward_v I I I I #
loop $-1 $-1 $343 $90 #
coedge $-1 $229 $229 $230 $344 reversed $142 $-1 #
coedge $-1 $230 $230 $229 $344 forward $144 $-1 #
coedge $-1 $231 $231 $145 $232 forward $226 $-1 #
edge $-1 $345 -3.7700270109167406e-016 $345 6.2831853071796004 $231 $346 forward 7 unknown #
loop $-1 $-1 $238 $146 #
plane-surface $-1 2.5064259862752678 -1.4448365594103905 41.701078755408147 0 0.84804810408105047 0.52991925155115449 1 0 0 forward_v I I I I #
loop $-1 $-1 $347 $93 #
coedge $-1 $236 $236 $237 $348 reversed $147 $-1 #
coedge $-1 $237 $237 $236 $348 forward $149 $-1 #
coedge $-1 $238 $238 $150 $239 forward $233 $-1 #
edge $-1 $349 -3.7700270109167406e-016 $349 6.2831853071796004 $238 $350 forward 7 unknown #
face $-1 $351 $352 $36 $-1 $353 reversed single #
loop $-1 $-1 $354 $151 #
plane-surface $-1 -42.235175634022035 0 0 1 0 0 0 0 -1 forward_v I I I I #
coedge $-1 $355 $251 $356 $357 forward $152 $-1 #
coedge $-1 $358 $154 $355 $359 forward $97 $-1 #
coedge $-1 $154 $358 $360 $361 forward $97 $-1 #
coedge $-1 $254 $253 $154 $247 reversed $255 $-1 #
edge $-1 $362 -24.145599981671943 $363 24.145599981671943 $246 $364 forward 7 unknown #
coedge $-1 $156 $155 $365 $366 forward $61 $-1 #
coedge $-1 $367 $368 $155 $250 reversed $352 $-1 #
edge $-1 $257 -42.235175634022035 $369 42.235175634022035 $249 $370 forward 7 unknown #
coedge $-1 $243 $371 $156 $252 reversed $152 $-1 #
edge $-1 $372 -42.235175634022035 $256 42.235175634022035 $251 $373 forward 7 unknown #
coedge $-1 $246 $157 $371 $374 forward $255 $-1 #
coedge $-1 $157 $246 $367 $375 reversed $255 $-1 #
loop $-1 $-1 $253 $351 #
vertex $-1 $158 $376 #
vertex $-1 $158 $377 #
straight-curve $-1 42.235175634022035 0 9.194074416679058 0 1 0 I I #
face $-1 $378 $379 $37 $-1 $380 reversed single #
loop $-1 $-1 $381 $159 #
plane-surface $-1 0 -24.145599981671943 0 0 1 0 0 0 1 forward_v I I I I #
coedge $-1 $265 $165 $382 $383 reversed $160 $-1 #
coedge $-1 $384 $162 $381 $385 reversed $101 $-1 #
coedge $-1 $162 $384 $386 $387 reversed $101 $-1 #
coedge $-1 $272 $262 $162 $266 reversed $160 $-1 #
edge $-1 $388 -24.145599981671943 $389 24.145599981671943 $265 $390 forward 7 unknown #
coedge $-1 $164 $163 $391 $392 reversed $64 $-1 #
coedge $-1 $393 $394 $163 $269 forward $395 $-1 #
edge $-1 $396 -23.000682521010795 $274 -15.468303705011685 $268 $397 forward 7 unknown #
coedge $-1 $398 $382 $164 $271 forward $260 $-1 #
edge $-1 $273 15.468303705011685 $399 23.000682521010795 $270 $400 forward 7 unknown #
coedge $-1 $165 $265 $393 $401 reversed $160 $-1 #
vertex $-1 $271 $402 #
vertex $-1 $269 $403 #
straight-curve $-1 -34.702796818022925 0 -4.1737546961948322 0 1 0 I I #
face $-1 $-1 $288 $38 $-1 $404 reversed single #
loop $-1 $-1 $405 $167 #
plane-surface $-1 0 0 9.194074416679058 0 0 1 1 0 0 forward_v I I I I #
coedge $-1 $406 $407 $408 $409 reversed $168 $-1 #
coedge $-1 $410 $170 $172 $286 forward $105 $-1 #
coedge $-1 $170 $410 $406 $411 forward $105 $-1 #
coedge $-1 $408 $173 $170 $283 forward $288 $-1 #
edge $-1 $290 -18.950886898440618 $412 0.072987722522267262 $282 $413 forward 7 unknown #
coedge $-1 $414 $415 $171 $285 forward $277 $-1 #
edge $-1 $416 -27.201075824407212 $289 -23.348599083488018 $284 $417 forward 7 unknown #
edge $-1 $290 1.3181006846785195e-014 $416 7.0734497170171711 $172 $418 forward 7 unknown #
coedge $-1 $173 $408 $414 $419 reversed $288 $-1 #
loop $-1 $-1 $408 $276 #
vertex $-1 $419 $420 #
vertex $-1 $174 $421 #
straight-curve $-1 -28.389836486399794 -24.145599981671943 24.633814914709387 0 0 -1 I I #
coedge $-1 $292 $292 $-1 $422 reversed $177 $-1 #
edge $-1 $423 0 $423 6.2831853071796004 $178 $424 forward 7 unknown #
vertex $-1 $181 $425 #
ellipse-curve $-1 -22.954443737553255 -22.219361611212349 6.2279273426178783 0 -0.83867057594974714 0.54463902268945019 1 0 0 1 I I #
coedge $-1 $296 $296 $-1 $426 reversed $184 $-1 #
edge $-1 $427 0 $427 6.2831853071796004 $185 $428 forward 7 unknown #
vertex $-1 $188 $429 #
ellipse-curve $-1 -14.801354614283447 -22.219361611212349 6.2279273426178783 0 -0.83867057594974714 0.54463902268945019 1 0 0 1 I I #
face $-1 $-1 $430 $41 $-1 $431 forward single #
loop $-1 $-1 $195 $189 #
plane-surface $-1 0 -24.145599981671943 0 0 1 0 0 0 1 forward_v I I I I #
coedge $-1 $432 $433 $434 $435 reversed $190 $-1 #
coedge $-1 $436 $192 $194 $310 forward $119 $-1 #
coedge $-1 $192 $436 $432 $437 forward $119 $-1 #
coedge $-1 $434 $195 $192 $307 forward $301 $-1 #
edge $-1 $313 3.6932016854772876 $438 22.717076306440173 $306 $439 forward 7 unknown #
coedge $-1 $440 $441 $193 $309 forward $430 $-1 #
edge $-1 $442 -27.201075824407212 $312 -23.348599083488018 $308 $443 forward 7 unknown #
edge $-1 $313 1.3181006846785195e-014 $442 7.0734497170171711 $194 $444 forward 7 unknown #
coedge $-1 $195 $434 $440 $445 reversed $301 $-1 #
vertex $-1 $445 $446 #
vertex $-1 $196 $447 #
straight-curve $-1 16.898340681436018 -24.145599981671943 24.633814914709387 0 0 -1 I I #
coedge $-1 $315 $315 $-1 $448 reversed $199 $-1 #
edge $-1 $449 0 $449 6.2831853071796004 $200 $450 forward 7 unknown #
vertex $-1 $203 $451 #
ellipse-curve $-1 22.333733430282557 -22.219361611212349 6.2279273426178783 0 -0.83867057594974714 0.54463902268945019 1 0 0 1 I I #
coedge $-1 $319 $319 $-1 $452 reversed $206 $-1 #
edge $-1 $453 0 $453 6.2831853071796004 $207 $454 forward 7 unknown #
vertex $-1 $210 $455 #
ellipse-curve $-1 30.486822553552365 -22.219361611212349 6.2279273426178783 0 -0.83867057594974714 0.54463902268945019 1 0 0 1 I I #
face $-1 $-1 $335 $44 $-1 $456 forward single #
loop $-1 $-1 $457 $211 #
plane-surface $-1 0 24.145599981671943 0 0 -1 0 0 0 -1 forward_v I I I I #
coedge $-1 $458 $459 $460 $461 reversed $212 $-1 #
coedge $-1 $462 $214 $216 $333 forward $133 $-1 #
coedge $-1 $214 $462 $458 $463 forward $133 $-1 #
coedge $-1 $460 $217 $214 $330 forward $335 $-1 #
edge $-1 $337 -7.9331109462757432 $464 10.439536932551011 $329 $465 forward 7 unknown #
coedge $-1 $466 $467 $215 $332 forward $324 $-1 #
edge $-1 $468 -42.483953856121119 $336 -34.037697622137529 $331 $469 forward 7 unknown #
edge $-1 $337 38.331557116036308 $468 48.291199963343892 $216 $470 forward 7 unknown #
coedge $-1 $217 $460 $466 $471 forward $335 $-1 #
loop $-1 $-1 $460 $323 #
vertex $-1 $332 $472 #
vertex $-1 $218 $473 #
straight-curve $-1 -6.6798979531381093 35.095042342257372 9.194074416679058 0 -1 0 I I #
coedge $-1 $339 $339 $-1 $474 reversed $221 $-1 #
edge $-1 $475 0 $475 6.2831853071796004 $222 $476 forward 7 unknown #
vertex $-1 $225 $477 #
ellipse-curve $-1 -3.0053683773727613 21.506696739990918 4.9709462996872613 0 0.84804810408105047 0.52991925155115449 1 0 0 1 I I #
coedge $-1 $343 $343 $-1 $478 reversed $228 $-1 #
edge $-1 $479 0 $479 6.2831853071796004 $229 $480 forward 7 unknown #
vertex $-1 $232 $481 #
ellipse-curve $-1 2.5064259862752678 21.506696739990918 4.9709462996872613 0 0.84804810408105047 0.52991925155115449 1 0 0 1 I I #
coedge $-1 $347 $347 $-1 $482 reversed $235 $-1 #
edge $-1 $483 0 $483 6.2831853071796004 $236 $484 forward 7 unknown #
vertex $-1 $239 $485 #
ellipse-curve $-1 8.0182203499232898 21.506696739990918 4.9709462996872613 0 0.84804810408105047 0.52991925155115449 1 0 0 1 I I #
face $-1 $-1 $255 $36 $-1 $486 reversed single #
loop $-1 $-1 $367 $240 #
plane-surface $-1 0 24.145599981671943 0 0 -1 0 0 0 -1 forward_v I I I I #
coedge $-1 $487 $365 $368 $488 forward $241 $-1 #
coedge $-1 $371 $243 $244 $359 reversed $152 $-1 #
coedge $-1 $365 $487 $243 $357 reversed $241 $-1 #
edge $-1 $372 -9.194074416679058 $489 9.194074416679058 $356 $490 forward 7 unknown #
coedge $-1 $245 $244 $487 $491 forward $97 $-1 #
edge $-1 $363 -42.235175634022035 $489 42.235175634022035 $355 $492 forward 7 unknown #
coedge $-1 $368 $367 $245 $361 reversed $352 $-1 #
edge $-1 $493 -42.235175634022035 $362 42.235175634022035 $360 $494 forward 7 unknown #
vertex $-1 $247 $495 #
vertex $-1 $374 $496 #
straight-curve $-1 42.235175634022035 0 -9.194074416679058 0 -1 0 I I #
coedge $-1 $354 $356 $248 $366 reversed $241 $-1 #
edge $-1 $369 -24.145599981671943 $372 24.145599981671943 $365 $497 forward 7 unknown #
coedge $-1 $360 $249 $254 $375 forward $352 $-1 #
coedge $-1 $249 $360 $354 $488 reversed $352 $-1 #
vertex $-1 $250 $498 #
straight-curve $-1 0 24.145599981671943 9.194074416679058 -1 0 0 I I #
coedge $-1 $251 $355 $253 $374 reversed $152 $-1 #
vertex $-1 $366 $499 #
straight-curve $-1 0 -24.145599981671943 9.194074416679058 1 0 0 I I #
edge $-1 $256 -9.194074416679058 $363 9.194074416679058 $253 $500 forward 7 unknown #
edge $-1 $257 -9.194074416679058 $362 9.194074416679058 $254 $501 forward 7 unknown #
point $-1 42.235175634022035 -24.145599981671943 9.194074416679058 #
point $-1 42.235175634022035 24.145599981671943 9.194074416679058 #
face $-1 $-1 $395 $37 $-1 $502 reversed single #
loop $-1 $-1 $503 $259 #
plane-surface $-1 -42.235175634022035 0 0 1 0 0 0 0 -1 forward_v I I I I #
coedge $-1 $382 $398 $263 $385 forward $260 $-1 #
coedge $-1 $270 $381 $262 $383 forward $260 $-1 #
edge $-1 $389 -4.3368773480974161 $273 -1.3368773480974161 $382 $504 forward 7 unknown #
coedge $-1 $264 $263 $503 $505 reversed $101 $-1 #
edge $-1 $506 -23.000682521010795 $389 -15.468303705011685 $381 $507 forward 7 unknown #
coedge $-1 $394 $393 $264 $387 forward $395 $-1 #
edge $-1 $388 15.468303705011685 $508 23.000682521010795 $386 $509 forward 7 unknown #
vertex $-1 $387 $510 #
vertex $-1 $385 $511 #
straight-curve $-1 -34.702796818022925 0 -7.1737546961948322 0 -1 0 I I #
coedge $-1 $512 $513 $267 $392 forward $379 $-1 #
edge $-1 $399 -24.145599981671943 $396 24.145599981671943 $391 $514 forward 7 unknown #
coedge $-1 $386 $268 $272 $401 forward $395 $-1 #
coedge $-1 $268 $386 $512 $515 reversed $395 $-1 #
loop $-1 $-1 $386 $378 #
vertex $-1 $515 $516 #
straight-curve $-1 -19.23449311301124 24.145599981671943 -4.1737546961948322 1 0 0 I I #
coedge $-1 $381 $270 $513 $517 forward $260 $-1 #
vertex $-1 $517 $518 #
straight-curve $-1 -19.23449311301124 -24.145599981671943 -4.1737546961948322 -1 0 0 I I #
edge $-1 $274 1.3368773480974161 $388 4.3368773480974161 $393 $519 forward 7 unknown #
point $-1 -34.702796818022925 -24.145599981671943 -4.1737546961948322 #
point $-1 -34.702796818022925 24.145599981671943 -4.1737546961948322 #
plane-surface $-1 0 -24.145599981671943 0 0 1 0 0 0 1 forward_v I I I I #
coedge $-1 $415 $414 $407 $520 forward $277 $-1 #
coedge $-1 $407 $279 $281 $411 reversed $168 $-1 #
coedge $-1 $279 $406 $405 $520 reversed $168 $-1 #
coedge $-1 $287 $282 $279 $409 forward $288 $-1 #
edge $-1 $412 -21.372034646152684 $521 -15.439740498030329 $408 $522 forward 7 unknown #
coedge $-1 $281 $280 $415 $523 reversed $105 $-1 #
edge $-1 $524 -7.0734497170171711 $412 -1.3181006846785195e-014 $406 $525 forward 7 unknown #
vertex $-1 $283 $526 #
straight-curve $-1 -9.4389495879591756 -24.145599981671943 3.2617802685567048 1 0 0 I I #
coedge $-1 $405 $284 $287 $419 forward $277 $-1 #
coedge $-1 $284 $405 $410 $523 forward $277 $-1 #
vertex $-1 $285 $527 #
straight-curve $-1 -28.389836486399794 -47.494199065159961 9.194074416679058 0 -1 0 I I #
straight-curve $-1 -28.389836486399794 -24.14559998167195 3.2617802685566915 0 0.54463902268945019 0.83867057594974714 I I #
edge $-1 $289 -28.389836486399794 $521 -9.3659618654369083 $287 $528 forward 7 unknown #
point $-1 -28.389836486399794 -24.145599981671943 9.194074416679058 #
point $-1 -28.389836486399794 -24.145599981671943 3.2617802685567026 #
edge $-1 $529 1 $529 0 $292 $-1 forward 7 unknown #
vertex $-1 $293 $530 #
ellipse-curve $-1 -22.954443737553255 -19.251675343314115 4.3006894080252556 0 -0.83867057594974714 0.54463902268945019 1 0 0 1 I I #
point $-1 -21.954443737553255 -22.219361611212342 6.2279273426178747 #
edge $-1 $531 1 $531 0 $296 $-1 forward 7 unknown #
vertex $-1 $297 $532 #
ellipse-curve $-1 -14.801354614283447 -19.251675343314115 4.3006894080252556 0 -0.83867057594974714 0.54463902268945019 1 0 0 1 I I #
point $-1 -13.801354614283447 -22.219361611212342 6.2279273426178747 #
loop $-1 $-1 $308 $300 #
plane-surface $-1 0 0 9.194074416679058 0 0 1 1 0 0 forward_v I I I I #
coedge $-1 $433 $303 $305 $437 reversed $190 $-1 #
coedge $-1 $303 $432 $533 $534 reversed $190 $-1 #
coedge $-1 $311 $306 $303 $435 forward $301 $-1 #
edge $-1 $438 -21.372034646152684 $535 -15.439740498030329 $434 $536 forward 7 unknown #
coedge $-1 $305 $304 $441 $537 reversed $119 $-1 #
edge $-1 $538 -7.0734497170171711 $438 -1.3181006846785195e-014 $432 $539 forward 7 unknown #
vertex $-1 $307 $540 #
straight-curve $-1 13.20513899595873 -24.145599981671943 3.2617802685567048 1 0 0 I I #
coedge $-1 $533 $308 $311 $445 forward $430 $-1 #
coedge $-1 $308 $533 $436 $537 forward $430 $-1 #
vertex $-1 $309 $541 #
straight-curve $-1 16.898340681436018 -47.494199065159961 9.194074416679058 0 -1 0 I I #
straight-curve $-1 16.898340681436018 -24.14559998167195 3.2617802685566915 0 0.54463902268945019 0.83867057594974714 I I #
edge $-1 $312 16.898340681436018 $535 35.922215302398904 $311 $542 forward 7 unknown #
point $-1 16.898340681436018 -24.145599981671943 9.194074416679058 #
point $-1 16.898340681436018 -24.145599981671943 3.2617802685567026 #
edge $-1 $543 1 $543 0 $315 $-1 forward 7 unknown #
vertex $-1 $316 $544 #
ellipse-curve $-1 22.333733430282557 -19.251675343314115 4.3006894080252556 0 -0.83867057594974714 0.54463902268945019 1 0 0 1 I I #
point $-1 23.333733430282557 -22.219361611212342 6.2279273426178747 #
edge $-1 $545 1 $545 0 $319 $-1 forward 7 unknown #
vertex $-1 $320 $546 #
ellipse-curve $-1 30.486822553552365 -19.251675343314115 4.3006894080252556 0 -0.83867057594974714 0.54463902268945019 1 0 0 1 I I #
point $-1 31.486822553552365 -22.219361611212342 6.2279273426178747 #
plane-surface $-1 0 0 9.194074416679058 0 0 1 1 0 0 forward_v I I I I #
coedge $-1 $467 $466 $459 $547 forward $324 $-1 #
coedge $-1 $459 $326 $328 $463 reversed $212 $-1 #
coedge $-1 $326 $458 $457 $547 reversed $212 $-1 #
coedge $-1 $334 $329 $326 $461 forward $335 $-1 #
edge $-1 $464 -16.227248843947471 $548 -10.949442360585429 $460 $549 forward 7 unknown #
coedge $-1 $328 $327 $467 $550 reversed $133 $-1 #
edge $-1 $551 -48.291199963343892 $464 -38.331557116036308 $458 $552 forward 7 unknown #
vertex $-1 $330 $553 #
straight-curve $-1 1.2532129931376339 18.867793498309897 9.1940744166790616 1 0 0 I I #
coedge $-1 $457 $331 $334 $471 reversed $324 $-1 #
coedge $-1 $331 $457 $462 $550 forward $324 $-1 #
vertex $-1 $332 $554 #
straight-curve $-1 -6.6798979531381093 24.145599981671943 43.231772038816587 0 0 1 I I #
straight-curve $-1 -6.6798979531381093 -1.4448365594103905 41.701078755408147 0 0.52991925155115449 -0.84804810408105047 I I #
edge $-1 $548 -11.692749925688645 $336 6.6798979531381093 $466 $555 forward 7 unknown #
point $-1 -6.6798979531381093 24.145599981671943 9.194074416679058 #
point $-1 -6.6798979531381093 18.867793498309901 9.194074416679058 #
edge $-1 $556 1 $556 0 $339 $-1 forward 7 unknown #
vertex $-1 $340 $557 #
ellipse-curve $-1 -3.0053683773727613 20.368261974702275 4.2595733293823654 0 0.84804810408105047 0.52991925155115449 1 0 0 1 I I #
point $-1 -2.0053683773727613 21.506696739990922 4.970946299687264 #
edge $-1 $558 1 $558 0 $343 $-1 forward 7 unknown #
vertex $-1 $344 $559 #
ellipse-curve $-1 2.5064259862752678 20.368261974702275 4.2595733293823654 0 0.84804810408105047 0.52991925155115449 1 0 0 1 I I #
point $-1 3.5064259862752678 21.506696739990922 4.970946299687264 #
edge $-1 $560 1 $560 0 $347 $-1 forward 7 unknown #
vertex $-1 $348 $561 #
ellipse-curve $-1 8.0182203499232898 20.368261974702275 4.2595733293823654 0 0.84804810408105047 0.52991925155115449 1 0 0 1 I I #
point $-1 9.0182203499232898 21.506696739990922 4.970946299687264 #
plane-surface $-1 42.235175634022035 0 0 -1 0 0 0 0 1 forward_v I I I I #
coedge $-1 $356 $354 $358 $491 reversed $241 $-1 #
edge $-1 $369 -9.194074416679058 $493 9.194074416679058 $368 $562 forward 7 unknown #
vertex $-1 $491 $563 #
straight-curve $-1 -42.235175634022035 -24.145599981671943 0 0 0 -1 I I #
edge $-1 $489 -24.145599981671943 $493 24.145599981671943 $487 $564 forward 7 unknown #
straight-curve $-1 0 -24.145599981671943 -9.194074416679058 -1 0 0 I I #
vertex $-1 $361 $565 #
straight-curve $-1 0 24.145599981671943 -9.194074416679058 1 0 0 I I #
point $-1 42.235175634022035 24.145599981671943 -9.194074416679058 #
point $-1 42.235175634022035 -24.145599981671943 -9.194074416679058 #
straight-curve $-1 -42.235175634022035 0 9.194074416679058 0 -1 0 I I #
point $-1 -42.235175634022035 24.145599981671943 9.194074416679058 #
point $-1 -42.235175634022035 -24.145599981671943 9.194074416679058 #
straight-curve $-1 42.235175634022035 -24.145599981671943 0 0 0 -1 I I #
straight-curve $-1 42.235175634022035 24.145599981671943 0 0 0 -1 I I #
plane-surface $-1 0 24.145599981671943 0 0 -1 0 0 0 -1 forward_v I I I I #
coedge $-1 $513 $512 $384 $505 forward $379 $-1 #
straight-curve $-1 -34.702796818022925 -24.145599981671943 -2.8368773480974161 0 0 1 I I #
edge $-1 $508 -24.145599981671943 $506 24.145599981671943 $503 $566 forward 7 unknown #
vertex $-1 $385 $567 #
straight-curve $-1 -19.23449311301124 -24.145599981671943 -7.1737546961948322 1 0 0 I I #
vertex $-1 $387 $568 #
straight-curve $-1 -19.23449311301124 24.145599981671943 -7.1737546961948322 -1 0 0 I I #
point $-1 -34.702796818022925 24.145599981671943 -7.1737546961948322 #
point $-1 -34.702796818022925 -24.145599981671943 -7.1737546961948322 #
coedge $-1 $503 $391 $394 $515 forward $379 $-1 #
coedge $-1 $391 $503 $398 $517 reversed $379 $-1 #
straight-curve $-1 -42.235175634022035 0 -4.1737546961948322 0 1 0 I I #
edge $-1 $396 4.1737546961948322 $508 7.1737546961948322 $394 $569 forward 7 unknown #
point $-1 -42.235175634022035 24.145599981671943 -4.1737546961948322 #
edge $-1 $399 4.1737546961948322 $506 7.1737546961948322 $513 $570 forward 7 unknown #
point $-1 -42.235175634022035 -24.145599981671943 -4.1737546961948322 #
straight-curve $-1 -34.702796818022925 24.145599981671943 -2.8368773480974161 0 0 -1 I I #
edge $-1 $521 23.348599083488018 $524 27.201075824407212 $405 $571 forward 7 unknown #
vertex $-1 $520 $572 #
straight-curve $-1 -9.3659618654369083 -24.145599981671943 24.633814914709387 0 0 1 I I #
edge $-1 $524 -0.072987722522267262 $416 18.950886898440618 $415 $573 forward 7 unknown #
vertex $-1 $523 $574 #
straight-curve $-1 -9.3659618654369083 -24.14559998167195 3.2617802685566915 0 -0.54463902268945019 -0.83867057594974714 I I #
point $-1 -9.3659618654369083 -24.145599981671943 3.2617802685567026 #
point $-1 -28.389836486399794 -20.293123240752749 9.194074416679058 #
straight-curve $-1 0 -24.145599981671943 9.194074416679058 1 0 0 I I #
vertex $-1 $422 $575 #
point $-1 -21.954443737553255 -19.251675343314115 4.3006894080252556 #
vertex $-1 $426 $576 #
point $-1 -13.801354614283447 -19.251675343314115 4.3006894080252556 #
coedge $-1 $441 $440 $433 $534 forward $430 $-1 #
edge $-1 $535 23.348599083488018 $538 27.201075824407212 $533 $577 forward 7 unknown #
vertex $-1 $534 $578 #
straight-curve $-1 35.922215302398904 -24.145599981671943 24.633814914709387 0 0 1 I I #
edge $-1 $538 -22.717076306440173 $442 -3.6932016854772876 $441 $579 forward 7 unknown #
vertex $-1 $537 $580 #
straight-curve $-1 35.922215302398904 -24.14559998167195 3.2617802685566915 0 -0.54463902268945019 -0.83867057594974714 I I #
point $-1 35.922215302398904 -24.145599981671943 3.2617802685567026 #
point $-1 16.898340681436018 -20.293123240752749 9.194074416679058 #
straight-curve $-1 0 -24.145599981671943 9.194074416679058 1 0 0 I I #
vertex $-1 $448 $581 #
point $-1 23.333733430282557 -19.251675343314115 4.3006894080252556 #
vertex $-1 $452 $582 #
point $-1 31.486822553552365 -19.251675343314115 4.3006894080252556 #
edge $-1 $548 34.037697622137529 $551 42.483953856121119 $457 $583 forward 7 unknown #
vertex $-1 $471 $584 #
straight-curve $-1 11.692749925688645 35.095042342257372 9.194074416679058 0 1 0 I I #
edge $-1 $551 -10.439536932551011 $468 7.9331109462757432 $467 $585 forward 7 unknown #
vertex $-1 $550 $586 #
straight-curve $-1 11.692749925688645 -1.4448365594103905 41.701078755408147 0 -0.52991925155115449 0.84804810408105047 I I #
point $-1 11.692749925688645 18.867793498309901 9.194074416679058 #
point $-1 -6.6798979531381093 24.145599981671943 0.74781818269546818 #
straight-curve $-1 0 24.145599981671943 9.194074416679058 -1 0 0 I I #
vertex $-1 $474 $587 #
point $-1 -2.0053683773727613 20.368261974702275 4.2595733293823654 #
vertex $-1 $478 $588 #
point $-1 3.5064259862752678 20.368261974702275 4.2595733293823654 #
vertex $-1 $482 $589 #
point $-1 9.0182203499232898 20.368261974702275 4.2595733293823654 #
straight-curve $-1 -42.235175634022035 24.145599981671943 0 0 0 -1 I I #
point $-1 -42.235175634022035 -24.145599981671943 -9.194074416679058 #
straight-curve $-1 -42.235175634022035 0 -9.194074416679058 0 1 0 I I #
point $-1 -42.235175634022035 24.145599981671943 -9.194074416679058 #
straight-curve $-1 -42.235175634022035 0 -7.1737546961948322 0 -1 0 I I #
point $-1 -42.235175634022035 -24.145599981671943 -7.1737546961948322 #
point $-1 -42.235175634022035 24.145599981671943 -7.1737546961948322 #
straight-curve $-1 -42.235175634022035 24.145599981671943 0 0 0 -1 I I #
straight-curve $-1 -42.235175634022035 -24.145599981671943 0 0 0 -1 I I #
straight-curve $-1 -9.3659618654369083 -47.494199065159961 9.194074416679058 0 1 0 I I #
point $-1 -9.3659618654369083 -24.145599981671943 9.194074416679058 #
straight-curve $-1 -9.4389495879591756 -20.293123240752749 9.194074416679058 -1 0 0 I I #
point $-1 -9.3659618654369083 -20.293123240752749 9.194074416679058 #
point $-1 -22.954443737553255 -18.413004767364367 3.7560503853358052 #
point $-1 -14.801354614283447 -18.413004767364367 3.7560503853358052 #
straight-curve $-1 35.922215302398904 -47.494199065159961 9.194074416679058 0 1 0 I I #
point $-1 35.922215302398904 -24.145599981671943 9.194074416679058 #
straight-curve $-1 13.20513899595873 -20.293123240752749 9.194074416679058 -1 0 0 I I #
point $-1 35.922215302398904 -20.293123240752749 9.194074416679058 #
point $-1 22.333733430282557 -18.413004767364367 3.7560503853358052 #
point $-1 30.486822553552365 -18.413004767364367 3.7560503853358052 #
straight-curve $-1 11.692749925688645 24.145599981671943 43.231772038816587 0 0 -1 I I #
point $-1 11.692749925688645 24.145599981671943 9.194074416679058 #
straight-curve $-1 1.2532129931376339 24.145599981671943 0.74781818269547529 -1 0 0 I I #
point $-1 11.692749925688645 24.145599981671943 0.74781818269546818 #
point $-1 -3.0053683773727613 19.520213870621223 3.7296540778312108 #
point $-1 2.5064259862752678 19.520213870621223 3.7296540778312108 #
point $-1 8.0182203499232898 19.520213870621223 3.7296540778312108 #
End-of-ACIS-data 