500 0 5 0           
7 Unknown 11 ACIS 5.0 NT 24 Thu Mar 25 15:12:32 1999 
-1 9.9999999999999995e-007 1e-010 
body $-1 $5 $-1 $6 #
body $-1 $7 $-1 $8 #
body $-1 $9 $-1 $10 #
body $-1 $11 $-1 $12 #
body $-1 $13 $-1 $14 #
lump $-1 $-1 $15 $0 #
transform $-1 1 0 0 0 1 0 0 0 1 57.395550401318403 37.984023879286767 9.4330025914886377 1 rotate no_reflect no_shear #
lump $-1 $-1 $16 $1 #
transform $-1 1 0 0 0 1 0 0 0 1 57.395550401318403 37.984023879286767 9.4330025914886377 1 rotate no_reflect no_shear #
lump $-1 $-1 $17 $2 #
transform $-1 1 0 0 0 1 0 0 0 1 57.395550401318403 37.984023879286767 9.4330025914886377 1 rotate no_reflect no_shear #
lump $-1 $-1 $18 $3 #
transform $-1 1 0 0 0 1 0 0 0 1 57.395550401318403 37.984023879286767 9.4330025914886377 1 rotate no_reflect no_shear #
lump $-1 $-1 $19 $4 #
transform $-1 1 0 0 0 1 0 0 0 1 57.395550401318403 37.984023879286767 9.4330025914886377 1 rotate no_reflect no_shear #
shell $-1 $-1 $-1 $20 $-1 $5 #
shell $-1 $-1 $-1 $21 $-1 $7 #
shell $-1 $-1 $-1 $22 $-1 $9 #
shell $-1 $-1 $-1 $23 $-1 $11 #
shell $-1 $-1 $-1 $24 $-1 $13 #
face $-1 $25 $26 $15 $-1 $27 forward single #
face $-1 $28 $29 $16 $-1 $30 forward single #
face $-1 $31 $32 $17 $-1 $33 reversed single #
face $-1 $34 $35 $18 $-1 $36 forward single #
face $-1 $37 $38 $19 $-1 $39 forward single #
face $-1 $40 $41 $15 $-1 $42 reversed single #
loop $-1 $-1 $43 $20 #
plane-surface $-1 0 0 9.4330025914886377 0 0 1 1 0 0 forward_v I I I I #
face $-1 $44 $45 $16 $-1 $46 reversed single #
loop $-1 $-1 $47 $21 #
plane-surface $-1 -54.03480248746466 0 -6.4330025914886377 0 0 1 1 0 0 forward_v I I I I #
face $-1 $48 $49 $17 $-1 $50 reversed single #
loop $-1 $-1 $51 $22 #
plane-surface $-1 -37.909741346797013 65.436069518143327 138.29019602907977 1 0 0 0 -0.70710678939079041 -0.70710677298230451 forward_v I I I I #
face $-1 $52 $53 $18 $-1 $54 forward single #
loop $-1 $55 $56 $23 #
cone-surface $-1 -31.105147661648086 34.37606291925897 5.8250415752596316 0 -0.70710678939079041 -0.70710677298230451 1.5 0 0 1 I I 0 1 1.5 forward I I I I #
face $-1 $57 $58 $19 $-1 $59 forward single #
loop $-1 $60 $61 $24 #
cone-surface $-1 -20.898257133924702 34.37606291925897 5.8250415752596316 0 -0.70710678939079041 -0.70710677298230451 1.5 0 0 1 I I 0 1 1.5 forward I I I I #
face $-1 $62 $63 $15 $-1 $64 reversed single #
loop $-1 $-1 $65 $25 #
plane-surface $-1 0 0 -9.4330025914886377 0 0 1 1 0 0 forward_v I I I I #
coedge $-1 $66 $67 $68 $69 forward $26 $-1 #
face $-1 $70 $71 $16 $-1 $72 reversed single #
loop $-1 $-1 $73 $28 #
plane-surface $-1 -50.674054573610917 0 -7.9330025914886377 -1 0 0 0 0 1 forward_v I I I I #
coedge $-1 $74 $75 $76 $77 forward $29 $-1 #
face $-1 $78 $79 $17 $-1 $80 reversed single #
loop $-1 $-1 $81 $31 #
plane-surface $-1 -26.001702397786392 -15.733497221043763 57.120631173440827 0 0.70710678939079041 0.70710677298230451 1 0 0 forward_v I I I I #
coedge $-1 $82 $83 $84 $85 reversed $32 $-1 #
face $-1 $-1 $86 $18 $-1 $87 forward single #
loop $-1 $88 $89 $34 #
cone-surface $-1 -31.105147661648086 33.252718679675397 4.7016973617433777 0 -0.70710678939079041 -0.70710677298230451 0.75 0 0 1 I I -0.70710678118654757 0.70710678118654757 0.75 forward I I I I #
loop $-1 $-1 $90 $23 #
coedge $-1 $56 $56 $91 $92 reversed $35 $-1 #
face $-1 $-1 $93 $19 $-1 $94 forward single #
loop $-1 $95 $96 $37 #
cone-surface $-1 -20.898257133924702 33.252718679675397 4.7016973617433777 0 -0.70710678939079041 -0.70710677298230451 0.75 0 0 1 I I -0.70710678118654757 0.70710678118654757 0.75 forward I I I I #
loop $-1 $-1 $97 $24 #
coedge $-1 $61 $61 $98 $99 reversed $38 $-1 #
face $-1 $100 $101 $15 $-1 $102 reversed single #
loop $-1 $-1 $103 $40 #
plane-surface $-1 0 -37.984023879286767 0 0 1 0 0 0 1 forward_v I I I I #
coedge $-1 $104 $105 $106 $107 forward $41 $-1 #
coedge $-1 $108 $43 $109 $110 forward $26 $-1 #
coedge $-1 $43 $108 $111 $112 forward $26 $-1 #
coedge $-1 $113 $114 $43 $69 reversed $115 $-1 #
edge $-1 $116 -37.984023879286767 $117 37.984023879286767 $68 $118 forward 7 unknown #
face $-1 $119 $120 $16 $-1 $121 reversed single #
loop $-1 $-1 $122 $44 #
plane-surface $-1 0 0 -9.4330025914886377 0 0 1 1 0 0 forward_v I I I I #
coedge $-1 $123 $76 $124 $125 reversed $45 $-1 #
coedge $-1 $126 $47 $127 $128 reversed $29 $-1 #
coedge $-1 $47 $126 $129 $130 reversed $29 $-1 #
coedge $-1 $73 $131 $47 $77 reversed $45 $-1 #
edge $-1 $132 -37.984023879286767 $133 37.984023879286767 $76 $134 forward 7 unknown #
face $-1 $135 $136 $17 $-1 $137 reversed single #
loop $-1 $-1 $138 $48 #
plane-surface $-1 -14.093663448775771 65.436069518143327 138.29019602907977 -1 0 0 0 0.70710678939079041 0.70710677298230451 forward_v I I I I #
coedge $-1 $139 $140 $141 $142 reversed $49 $-1 #
coedge $-1 $83 $51 $143 $144 reversed $32 $-1 #
coedge $-1 $51 $82 $139 $145 reversed $32 $-1 #
coedge $-1 $141 $146 $51 $85 forward $147 $-1 #
edge $-1 $148 -5.265989120215103 $149 0.76390450475957294 $84 $150 forward 7 unknown #
loop $-1 $-1 $91 $52 #
plane-surface $-1 -26.001702397786392 -15.733497221043763 57.120631173440827 0 0.70710678939079041 0.70710677298230451 1 0 0 forward_v I I I I #
loop $-1 $-1 $151 $34 #
coedge $-1 $89 $89 $90 $152 reversed $53 $-1 #
coedge $-1 $90 $90 $89 $152 forward $55 $-1 #
coedge $-1 $91 $91 $56 $92 forward $86 $-1 #
edge $-1 $153 -1.2560741369730886e-015 $153 6.2831853071795996 $91 $154 forward 7 unknown #
loop $-1 $-1 $98 $57 #
plane-surface $-1 -26.001702397786392 -15.733497221043763 57.120631173440827 0 0.70710678939079041 0.70710677298230451 1 0 0 forward_v I I I I #
loop $-1 $-1 $155 $37 #
coedge $-1 $96 $96 $97 $156 reversed $58 $-1 #
coedge $-1 $97 $97 $96 $156 forward $60 $-1 #
coedge $-1 $98 $98 $61 $99 forward $93 $-1 #
edge $-1 $157 -1.2560741369730886e-015 $157 6.2831853071795996 $98 $158 forward 7 unknown #
face $-1 $159 $160 $15 $-1 $161 reversed single #
loop $-1 $-1 $162 $62 #
plane-surface $-1 -57.395550401318403 0 0 1 0 0 0 0 -1 forward_v I I I I #
coedge $-1 $163 $111 $164 $165 forward $63 $-1 #
coedge $-1 $166 $65 $163 $167 forward $41 $-1 #
coedge $-1 $65 $166 $168 $169 forward $41 $-1 #
coedge $-1 $114 $113 $65 $107 reversed $115 $-1 #
edge $-1 $170 -37.984023879286767 $171 37.984023879286767 $106 $172 forward 7 unknown #
coedge $-1 $67 $66 $173 $174 forward $26 $-1 #
coedge $-1 $175 $176 $66 $110 reversed $160 $-1 #
edge $-1 $117 -57.395550401318403 $177 57.395550401318403 $109 $178 forward 7 unknown #
coedge $-1 $103 $179 $67 $112 reversed $63 $-1 #
edge $-1 $180 -57.395550401318403 $116 57.395550401318403 $111 $181 forward 7 unknown #
coedge $-1 $106 $68 $179 $182 forward $115 $-1 #
coedge $-1 $68 $106 $175 $183 reversed $115 $-1 #
loop $-1 $-1 $113 $159 #
vertex $-1 $69 $184 #
vertex $-1 $69 $185 #
straight-curve $-1 57.395550401318403 0 9.4330025914886377 0 1 0 I I #
face $-1 $186 $187 $16 $-1 $188 reversed single #
loop $-1 $-1 $124 $70 #
plane-surface $-1 0 -37.984023879286767 0 0 1 0 0 0 1 forward_v I I I I #
coedge $-1 $189 $190 $123 $191 forward $71 $-1 #
coedge $-1 $131 $73 $122 $191 reversed $45 $-1 #
coedge $-1 $129 $192 $73 $125 forward $120 $-1 #
edge $-1 $193 -5.4665012957443189 $132 -2.4665012957443189 $124 $194 forward 7 unknown #
coedge $-1 $75 $74 $195 $196 reversed $29 $-1 #
coedge $-1 $197 $198 $74 $128 forward $199 $-1 #
edge $-1 $200 -30.378149157586073 $133 -23.656653329878587 $127 $201 forward 7 unknown #
coedge $-1 $202 $124 $75 $130 forward $120 $-1 #
edge $-1 $132 23.656653329878587 $203 30.378149157586073 $129 $204 forward 7 unknown #
coedge $-1 $76 $123 $197 $205 reversed $45 $-1 #
vertex $-1 $130 $206 #
vertex $-1 $128 $207 #
straight-curve $-1 -50.674054573610917 0 -6.4330025914886377 0 1 0 I I #
face $-1 $-1 $147 $17 $-1 $208 forward single #
loop $-1 $-1 $209 $78 #
plane-surface $-1 0 37.984023879286767 0 0 -1 0 0 0 -1 forward_v I I I I #
coedge $-1 $210 $211 $212 $213 reversed $79 $-1 #
coedge $-1 $214 $81 $83 $145 forward $49 $-1 #
coedge $-1 $81 $214 $210 $215 forward $49 $-1 #
coedge $-1 $212 $84 $81 $142 forward $147 $-1 #
edge $-1 $149 -24.908890147903819 $216 -1.0928122498825754 $141 $217 forward 7 unknown #
coedge $-1 $218 $219 $82 $144 forward $136 $-1 #
edge $-1 $220 -65.741989187950225 $148 -59.712095423051245 $143 $221 forward 7 unknown #
edge $-1 $149 67.440490315525878 $220 75.968047758573562 $83 $222 forward 7 unknown #
coedge $-1 $84 $212 $218 $223 forward $147 $-1 #
loop $-1 $-1 $212 $135 #
vertex $-1 $144 $224 #
vertex $-1 $85 $225 #
straight-curve $-1 -37.909741346797013 32.718034759071664 9.4330025914886306 0 -1 0 I I #
coedge $-1 $151 $151 $-1 $226 reversed $88 $-1 #
edge $-1 $227 0 $227 6.2831853071796004 $89 $228 forward 7 unknown #
vertex $-1 $92 $229 #
ellipse-curve $-1 -31.105147661648086 34.969077066799436 6.418055709039141 0 0.70710678939079041 0.70710677298230451 1.5 0 0 1 I I #
coedge $-1 $155 $155 $-1 $230 reversed $95 $-1 #
edge $-1 $231 0 $231 6.2831853071796004 $96 $232 forward 7 unknown #
vertex $-1 $99 $233 #
ellipse-curve $-1 -20.898257133924702 34.969077066799436 6.418055709039141 0 0.70710678939079041 0.70710677298230451 1.5 0 0 1 I I #
face $-1 $-1 $115 $15 $-1 $234 reversed single #
loop $-1 $-1 $175 $100 #
plane-surface $-1 0 37.984023879286767 0 0 -1 0 0 0 -1 forward_v I I I I #
coedge $-1 $235 $173 $176 $236 forward $101 $-1 #
coedge $-1 $179 $103 $104 $167 reversed $63 $-1 #
coedge $-1 $173 $235 $103 $165 reversed $101 $-1 #
edge $-1 $180 -9.4330025914886377 $237 9.4330025914886377 $164 $238 forward 7 unknown #
coedge $-1 $105 $104 $235 $239 forward $41 $-1 #
edge $-1 $171 -57.395550401318403 $237 57.395550401318403 $163 $240 forward 7 unknown #
coedge $-1 $176 $175 $105 $169 reversed $160 $-1 #
edge $-1 $241 -57.395550401318403 $170 57.395550401318403 $168 $242 forward 7 unknown #
vertex $-1 $107 $243 #
vertex $-1 $182 $244 #
straight-curve $-1 57.395550401318403 0 -9.4330025914886377 0 -1 0 I I #
coedge $-1 $162 $164 $108 $174 reversed $101 $-1 #
edge $-1 $177 -37.984023879286767 $180 37.984023879286767 $173 $245 forward 7 unknown #
coedge $-1 $168 $109 $114 $183 forward $160 $-1 #
coedge $-1 $109 $168 $162 $236 reversed $160 $-1 #
vertex $-1 $110 $246 #
straight-curve $-1 0 37.984023879286767 9.4330025914886377 -1 0 0 I I #
coedge $-1 $111 $163 $113 $182 reversed $63 $-1 #
vertex $-1 $174 $247 #
straight-curve $-1 0 -37.984023879286767 9.4330025914886377 1 0 0 I I #
edge $-1 $116 -9.4330025914886377 $171 9.4330025914886377 $113 $248 forward 7 unknown #
edge $-1 $117 -9.4330025914886377 $170 9.4330025914886377 $114 $249 forward 7 unknown #
point $-1 57.395550401318403 -37.984023879286767 9.4330025914886377 #
point $-1 57.395550401318403 37.984023879286767 9.4330025914886377 #
face $-1 $-1 $199 $16 $-1 $250 reversed single #
loop $-1 $-1 $195 $119 #
plane-surface $-1 -57.395550401318403 0 0 1 0 0 0 0 -1 forward_v I I I I #
coedge $-1 $251 $122 $192 $252 forward $71 $-1 #
coedge $-1 $122 $251 $253 $254 forward $71 $-1 #
edge $-1 $255 -37.984023879286767 $193 37.984023879286767 $122 $256 forward 7 unknown #
coedge $-1 $124 $202 $189 $252 reversed $120 $-1 #
vertex $-1 $252 $257 #
straight-curve $-1 -50.674054573610917 -37.984023879286767 -3.9665012957443189 0 0 1 I I #
coedge $-1 $258 $259 $126 $196 forward $187 $-1 #
edge $-1 $203 -37.984023879286767 $200 37.984023879286767 $195 $260 forward 7 unknown #
coedge $-1 $253 $127 $131 $205 forward $199 $-1 #
coedge $-1 $127 $253 $258 $261 reversed $199 $-1 #
loop $-1 $-1 $197 $186 #
vertex $-1 $261 $262 #
straight-curve $-1 -27.01740124373233 37.984023879286767 -6.4330025914886377 1 0 0 I I #
coedge $-1 $192 $129 $259 $263 forward $120 $-1 #
vertex $-1 $263 $264 #
straight-curve $-1 -27.01740124373233 -37.984023879286767 -6.4330025914886377 -1 0 0 I I #
edge $-1 $133 2.4665012957443189 $255 5.4665012957443189 $197 $265 forward 7 unknown #
point $-1 -50.674054573610917 -37.984023879286767 -6.4330025914886377 #
point $-1 -50.674054573610917 37.984023879286767 -6.4330025914886377 #
plane-surface $-1 0 0 9.4330025914886377 0 0 1 1 0 0 forward_v I I I I #
coedge $-1 $219 $218 $211 $266 forward $136 $-1 #
coedge $-1 $211 $138 $140 $215 reversed $79 $-1 #
coedge $-1 $138 $210 $209 $266 reversed $79 $-1 #
coedge $-1 $146 $141 $138 $213 forward $147 $-1 #
edge $-1 $216 -0.76390450475957294 $267 5.265989120215103 $212 $268 forward 7 unknown #
coedge $-1 $140 $139 $219 $269 reversed $49 $-1 #
edge $-1 $270 -75.968047758573562 $216 -67.440490315525878 $210 $271 forward 7 unknown #
vertex $-1 $142 $272 #
straight-curve $-1 -13.000851198893196 31.954130254312091 9.4330025914886342 1 0 0 I I #
coedge $-1 $209 $143 $146 $223 reversed $136 $-1 #
coedge $-1 $143 $209 $214 $269 forward $136 $-1 #
vertex $-1 $144 $273 #
straight-curve $-1 -37.909741346797013 37.984023879286767 69.145098014539883 0 0 1 I I #
straight-curve $-1 -37.909741346797013 -15.733497221043763 57.120631173440827 0 0.70710677298230451 -0.70710678939079041 I I #
edge $-1 $267 14.093663448775771 $148 37.909741346797013 $218 $274 forward 7 unknown #
point $-1 -37.909741346797013 37.984023879286767 9.4330025914886377 #
point $-1 -37.909741346797013 31.954130254312091 9.4330025914886448 #
edge $-1 $275 1 $275 0 $151 $-1 forward 7 unknown #
vertex $-1 $152 $276 #
ellipse-curve $-1 -31.105147661648086 33.783048771718491 5.2320274414801062 0 0.70710678939079041 0.70710677298230451 1.5 0 0 1 I I #
point $-1 -29.605147661648086 34.96907706679945 6.4180557090391579 #
edge $-1 $277 1 $277 0 $155 $-1 forward 7 unknown #
vertex $-1 $156 $278 #
ellipse-curve $-1 -20.898257133924702 33.783048771718491 5.2320274414801062 0 0.70710678939079041 0.70710677298230451 1.5 0 0 1 I I #
point $-1 -19.398257133924702 34.96907706679945 6.4180557090391579 #
plane-surface $-1 57.395550401318403 0 0 -1 0 0 0 0 1 forward_v I I I I #
coedge $-1 $164 $162 $166 $239 reversed $101 $-1 #
edge $-1 $177 -9.4330025914886377 $241 9.4330025914886377 $176 $279 forward 7 unknown #
vertex $-1 $239 $280 #
straight-curve $-1 -57.395550401318403 -37.984023879286767 0 0 0 -1 I I #
edge $-1 $237 -37.984023879286767 $241 37.984023879286767 $235 $281 forward 7 unknown #
straight-curve $-1 0 -37.984023879286767 -9.4330025914886377 -1 0 0 I I #
vertex $-1 $169 $282 #
straight-curve $-1 0 37.984023879286767 -9.4330025914886377 1 0 0 I I #
point $-1 57.395550401318403 37.984023879286767 -9.4330025914886377 #
point $-1 57.395550401318403 -37.984023879286767 -9.4330025914886377 #
straight-curve $-1 -57.395550401318403 0 9.4330025914886377 0 -1 0 I I #
point $-1 -57.395550401318403 37.984023879286767 9.4330025914886377 #
point $-1 -57.395550401318403 -37.984023879286767 9.4330025914886377 #
straight-curve $-1 57.395550401318403 -37.984023879286767 0 0 0 -1 I I #
straight-curve $-1 57.395550401318403 37.984023879286767 0 0 0 -1 I I #
plane-surface $-1 0 37.984023879286767 0 0 -1 0 0 0 -1 forward_v I I I I #
coedge $-1 $190 $189 $283 $284 forward $71 $-1 #
edge $-1 $193 50.674054573610917 $285 57.395550401318403 $192 $286 forward 7 unknown #
coedge $-1 $198 $197 $190 $254 reversed $199 $-1 #
edge $-1 $287 -57.395550401318403 $255 -50.674054573610917 $253 $288 forward 7 unknown #
vertex $-1 $205 $289 #
straight-curve $-1 -50.674054573610917 0 -9.4330025914886377 0 -1 0 I I #
point $-1 -50.674054573610917 -37.984023879286767 -9.4330025914886377 #
coedge $-1 $283 $195 $198 $261 forward $187 $-1 #
coedge $-1 $195 $283 $202 $263 reversed $187 $-1 #
straight-curve $-1 -57.395550401318403 0 -6.4330025914886377 0 1 0 I I #
edge $-1 $200 6.4330025914886377 $287 9.4330025914886377 $198 $290 forward 7 unknown #
point $-1 -57.395550401318403 37.984023879286767 -6.4330025914886377 #
edge $-1 $203 6.4330025914886377 $285 9.4330025914886377 $259 $291 forward 7 unknown #
point $-1 -57.395550401318403 -37.984023879286767 -6.4330025914886377 #
straight-curve $-1 -50.674054573610917 37.984023879286767 -3.9665012957443189 0 0 -1 I I #
edge $-1 $267 59.712095423051245 $270 65.741989187950225 $209 $292 forward 7 unknown #
vertex $-1 $223 $293 #
straight-curve $-1 -14.093663448775771 32.718034759071664 9.4330025914886306 0 1 0 I I #
edge $-1 $270 1.0928122498825754 $220 24.908890147903819 $219 $294 forward 7 unknown #
vertex $-1 $269 $295 #
straight-curve $-1 -14.093663448775771 -15.733497221043763 57.120631173440827 0 -0.70710677298230451 0.70710678939079041 I I #
point $-1 -14.093663448775771 31.954130254312091 9.4330025914886448 #
point $-1 -37.909741346797013 37.984023879286767 3.4031088265896585 #
straight-curve $-1 0 37.984023879286767 9.4330025914886377 -1 0 0 I I #
vertex $-1 $226 $296 #
point $-1 -29.605147661648086 33.783048771718491 5.2320274414801062 #
vertex $-1 $230 $297 #
point $-1 -19.398257133924702 33.783048771718491 5.2320274414801062 #
straight-curve $-1 -57.395550401318403 37.984023879286767 0 0 0 -1 I I #
point $-1 -57.395550401318403 -37.984023879286767 -9.4330025914886377 #
straight-curve $-1 -57.395550401318403 0 -9.4330025914886377 0 1 0 I I #
point $-1 -57.395550401318403 37.984023879286767 -9.4330025914886377 #
coedge $-1 $259 $258 $251 $284 reversed $187 $-1 #
edge $-1 $285 -37.984023879286767 $287 37.984023879286767 $283 $298 forward 7 unknown #
vertex $-1 $284 $299 #
straight-curve $-1 0 -37.984023879286767 -9.4330025914886377 -1 0 0 I I #
vertex $-1 $254 $300 #
straight-curve $-1 0 37.984023879286767 -9.4330025914886377 1 0 0 I I #
point $-1 -50.674054573610917 37.984023879286767 -9.4330025914886377 #
straight-curve $-1 -57.395550401318403 37.984023879286767 0 0 0 -1 I I #
straight-curve $-1 -57.395550401318403 -37.984023879286767 0 0 0 -1 I I #
straight-curve $-1 -14.093663448775771 37.984023879286767 69.145098014539883 0 0 -1 I I #
point $-1 -14.093663448775771 37.984023879286767 9.4330025914886377 #
straight-curve $-1 -13.000851198893196 37.984023879286767 3.4031088265896585 -1 0 0 I I #
point $-1 -14.093663448775771 37.984023879286767 3.4031088265896585 #
point $-1 -31.105147661648086 32.722388587632302 4.1713672820066492 #
point $-1 -20.898257133924702 32.722388587632302 4.1713672820066492 #
straight-curve $-1 -57.395550401318403 0 -9.4330025914886377 0 1 0 I I #
point $-1 -57.395550401318403 -37.984023879286767 -9.4330025914886377 #
point $-1 -57.395550401318403 37.984023879286767 -9.4330025914886377 #
End-of-ACIS-data 