500 0 9 0           
7 Unknown 11 ACIS 5.0 NT 24 Fri Mar 26 19:15:28 1999 
-1 9.9999999999999995e-007 1e-010 
body $-1 $9 $-1 $10 #
body $-1 $11 $-1 $12 #
body $-1 $13 $-1 $14 #
body $-1 $15 $-1 $16 #
body $-1 $17 $-1 $18 #
body $-1 $19 $-1 $20 #
body $-1 $21 $-1 $22 #
body $-1 $23 $-1 $24 #
body $-1 $25 $-1 $26 #
lump $-1 $-1 $27 $0 #
transform $-1 1 0 0 0 1 0 0 0 1 50.791344950712606 29.23102587394477 13.102354390648793 1 rotate no_reflect no_shear #
lump $-1 $-1 $28 $1 #
transform $-1 1 0 0 0 1 0 0 0 1 50.791344950712606 29.23102587394477 13.102354390648793 1 rotate no_reflect no_shear #
lump $-1 $-1 $29 $2 #
transform $-1 1 0 0 0 1 0 0 0 1 50.791344950712606 29.23102587394477 13.102354390648793 1 rotate no_reflect no_shear #
lump $-1 $-1 $30 $3 #
transform $-1 1 0 0 0 1 0 0 0 1 50.791344950712606 29.23102587394477 13.102354390648793 1 rotate no_reflect no_shear #
lump $-1 $-1 $31 $4 #
transform $-1 1 0 0 0 1 0 0 0 1 50.791344950712606 29.23102587394477 13.102354390648793 1 rotate no_reflect no_shear #
lump $-1 $-1 $32 $5 #
transform $-1 1 0 0 0 1 0 0 0 1 50.791344950712606 29.23102587394477 13.102354390648793 1 rotate no_reflect no_shear #
lump $-1 $-1 $33 $6 #
transform $-1 1 0 0 0 1 0 0 0 1 50.791344950712606 29.23102587394477 13.102354390648793 1 rotate no_reflect no_shear #
lump $-1 $-1 $34 $7 #
transform $-1 1 0 0 0 1 0 0 0 1 50.791344950712606 29.23102587394477 13.102354390648793 1 rotate no_reflect no_shear #
lump $-1 $-1 $35 $8 #
transform $-1 1 0 0 0 1 0 0 0 1 50.791344950712606 29.23102587394477 13.102354390648793 1 rotate no_reflect no_shear #
shell $-1 $-1 $-1 $36 $-1 $9 #
shell $-1 $-1 $-1 $37 $-1 $11 #
shell $-1 $-1 $-1 $38 $-1 $13 #
shell $-1 $-1 $-1 $39 $-1 $15 #
shell $-1 $-1 $-1 $40 $-1 $17 #
shell $-1 $-1 $-1 $41 $-1 $19 #
shell $-1 $-1 $-1 $42 $-1 $21 #
shell $-1 $-1 $-1 $43 $-1 $23 #
shell $-1 $-1 $-1 $44 $-1 $25 #
face $-1 $45 $46 $27 $-1 $47 forward single #
face $-1 $48 $49 $28 $-1 $50 forward single #
face $-1 $51 $52 $29 $-1 $53 forward single #
face $-1 $54 $55 $30 $-1 $56 reversed single #
face $-1 $57 $58 $31 $-1 $59 forward single #
face $-1 $60 $61 $32 $-1 $62 forward single #
face $-1 $63 $64 $33 $-1 $65 reversed single #
face $-1 $66 $67 $34 $-1 $68 forward single #
face $-1 $69 $70 $35 $-1 $71 forward single #
face $-1 $72 $73 $27 $-1 $74 reversed single #
loop $-1 $-1 $75 $36 #
plane-surface $-1 0 0 13.102354390648793 0 0 1 1 0 0 forward_v I I I I #
face $-1 $76 $77 $28 $-1 $78 reversed single #
loop $-1 $-1 $79 $37 #
plane-surface $-1 -43.988525137354117 0 -5.5503008470901687 0 0 1 1 0 0 forward_v I I I I #
face $-1 $80 $81 $29 $-1 $82 reversed single #
loop $-1 $-1 $83 $38 #
plane-surface $-1 50.791344950712606 0 0 -1 0 0 0 0 1 forward_v I I I I #
face $-1 $84 $85 $30 $-1 $86 reversed single #
loop $-1 $-1 $87 $39 #
plane-surface $-1 -21.613144278492122 71.384243255272352 118.60285290999758 1 0 0 0 -0.77714596973225614 -0.62932038083071107 forward_v I I I I #
face $-1 $88 $89 $31 $-1 $90 forward single #
loop $-1 $91 $92 $40 #
cone-surface $-1 -16.832697598617031 26.322589699388576 10.082556606751151 0 -0.77714596973225614 -0.62932038083071107 1 0 0 1 I I 0 1 1 forward I I I I #
face $-1 $93 $94 $32 $-1 $95 forward single #
loop $-1 $96 $97 $41 #
cone-surface $-1 -9.6620275788043912 26.322589699388576 10.082556606751151 0 -0.77714596973225614 -0.62932038083071107 1 0 0 1 I I 0 1 1 forward I I I I #
face $-1 $98 $99 $33 $-1 $100 reversed single #
loop $-1 $-1 $101 $42 #
plane-surface $-1 -4.8815808989292933 -108.17560392539893 73.169305011846632 -1 0 0 0 -0.77714596973225614 0.62932038083071107 forward_v I I I I #
face $-1 $102 $103 $34 $-1 $104 forward single #
loop $-1 $105 $106 $43 #
cone-surface $-1 -16.832697598617031 -26.322589699388573 10.082556606751151 0 0.77714596973225614 -0.62932038083071107 1 0 0 1 I I 0 1 1 forward I I I I #
face $-1 $107 $108 $35 $-1 $109 forward single #
loop $-1 $110 $111 $44 #
cone-surface $-1 -9.6620275788043912 -26.322589699388573 10.082556606751151 0 0.77714596973225614 -0.62932038083071107 1 0 0 1 I I 0 1 1 forward I I I I #
face $-1 $112 $113 $27 $-1 $114 reversed single #
loop $-1 $-1 $115 $45 #
plane-surface $-1 0 0 -13.102354390648793 0 0 1 1 0 0 forward_v I I I I #
coedge $-1 $116 $117 $118 $119 forward $46 $-1 #
face $-1 $120 $121 $28 $-1 $122 reversed single #
loop $-1 $-1 $123 $48 #
plane-surface $-1 -43.988525137354117 0 -9.4226669590296517 0 0 1 1 0 0 forward_v I I I I #
coedge $-1 $124 $125 $126 $127 forward $49 $-1 #
face $-1 $128 $129 $29 $-1 $130 forward single #
loop $-1 $-1 $131 $51 #
plane-surface $-1 0 29.23102587394477 0 0 -1 0 0 0 -1 forward_v I I I I #
coedge $-1 $132 $133 $134 $135 forward $52 $-1 #
face $-1 $136 $137 $30 $-1 $138 reversed single #
loop $-1 $-1 $139 $54 #
plane-surface $-1 -13.247362588710708 -7.5603347961818059 54.674795815424638 0 0.77714596973225614 0.62932038083071107 1 0 0 forward_v I I I I #
coedge $-1 $140 $141 $142 $143 reversed $55 $-1 #
face $-1 $-1 $144 $31 $-1 $145 forward single #
loop $-1 $146 $147 $57 #
cone-surface $-1 -16.832697598617031 24.588911684236027 8.6786518691257069 0 -0.77714596973225614 -0.62932038083071107 0.5 0 0 1 I I -0.70710678118654746 0.70710678118654746 0.5 forward I I I I #
loop $-1 $-1 $148 $40 #
coedge $-1 $92 $92 $149 $150 reversed $58 $-1 #
face $-1 $-1 $151 $32 $-1 $152 forward single #
loop $-1 $153 $154 $60 #
cone-surface $-1 -9.6620275788043912 24.588911684236027 8.6786518691257069 0 -0.77714596973225614 -0.62932038083071107 0.5 0 0 1 I I -0.70710678118654746 0.70710678118654746 0.5 forward I I I I #
loop $-1 $-1 $155 $41 #
coedge $-1 $97 $97 $156 $157 reversed $61 $-1 #
face $-1 $158 $159 $33 $-1 $160 reversed single #
loop $-1 $-1 $161 $63 #
plane-surface $-1 -13.247362588710708 -29.231025873944773 9.2412479172736894 0 -0.77714596973225614 0.62932038083071107 1 0 0 forward_v I I I I #
coedge $-1 $162 $163 $164 $165 reversed $64 $-1 #
face $-1 $-1 $166 $34 $-1 $167 forward single #
loop $-1 $168 $169 $66 #
cone-surface $-1 -16.832697598617031 -24.588911684236024 8.6786518691257069 0 0.77714596973225614 -0.62932038083071107 0.5 0 0 1 I I -0.70710678118654746 0.70710678118654746 0.5 forward I I I I #
loop $-1 $-1 $170 $43 #
coedge $-1 $106 $106 $171 $172 reversed $67 $-1 #
face $-1 $-1 $173 $35 $-1 $174 forward single #
loop $-1 $175 $176 $69 #
cone-surface $-1 -9.6620275788043912 -24.588911684236024 8.6786518691257069 0 0.77714596973225614 -0.62932038083071107 0.5 0 0 1 I I -0.70710678118654746 0.70710678118654746 0.5 forward I I I I #
loop $-1 $-1 $177 $44 #
coedge $-1 $111 $111 $178 $179 reversed $70 $-1 #
face $-1 $180 $181 $27 $-1 $182 reversed single #
loop $-1 $-1 $183 $72 #
plane-surface $-1 0 -29.23102587394477 0 0 1 0 0 0 1 forward_v I I I I #
coedge $-1 $184 $185 $186 $187 forward $73 $-1 #
coedge $-1 $188 $75 $189 $190 forward $46 $-1 #
coedge $-1 $75 $188 $191 $192 forward $46 $-1 #
coedge $-1 $193 $194 $75 $119 reversed $195 $-1 #
edge $-1 $196 -29.23102587394477 $197 29.23102587394477 $118 $198 forward 7 unknown #
face $-1 $199 $200 $28 $-1 $201 reversed single #
loop $-1 $-1 $202 $76 #
plane-surface $-1 -37.185705323995627 0 -7.4864839030599102 -1 0 0 0 0 1 forward_v I I I I #
coedge $-1 $203 $204 $205 $206 forward $77 $-1 #
coedge $-1 $207 $79 $208 $209 reversed $49 $-1 #
coedge $-1 $79 $207 $210 $211 reversed $49 $-1 #
coedge $-1 $202 $212 $79 $127 reversed $121 $-1 #
edge $-1 $213 -29.23102587394477 $214 29.23102587394477 $126 $215 forward 7 unknown #
face $-1 $216 $217 $29 $-1 $218 reversed single #
loop $-1 $-1 $219 $80 #
plane-surface $-1 55.688335409135753 0 -3.1814461566788435 0 0 1 1 0 0 forward_v I I I I #
coedge $-1 $220 $221 $133 $222 forward $81 $-1 #
coedge $-1 $223 $83 $224 $225 reversed $52 $-1 #
coedge $-1 $83 $223 $131 $222 reversed $52 $-1 #
coedge $-1 $226 $227 $83 $135 reversed $217 $-1 #
edge $-1 $228 -29.23102587394477 $229 29.23102587394477 $134 $230 forward 7 unknown #
face $-1 $231 $232 $30 $-1 $233 reversed single #
loop $-1 $-1 $234 $84 #
plane-surface $-1 -4.8815808989292933 71.384243255272352 118.60285290999758 -1 0 0 0 0.77714596973225614 0.62932038083071107 forward_v I I I I #
coedge $-1 $235 $236 $237 $238 reversed $85 $-1 #
coedge $-1 $141 $87 $239 $240 reversed $55 $-1 #
coedge $-1 $87 $140 $235 $241 reversed $55 $-1 #
coedge $-1 $237 $242 $87 $143 forward $243 $-1 #
edge $-1 $244 6.4610957536914064 $245 9.5877580422309521 $142 $246 forward 7 unknown #
loop $-1 $-1 $149 $88 #
plane-surface $-1 -13.247362588710708 -7.5603347961818059 54.674795815424638 0 0.77714596973225614 0.62932038083071107 1 0 0 forward_v I I I I #
loop $-1 $-1 $247 $57 #
coedge $-1 $147 $147 $148 $248 reversed $89 $-1 #
coedge $-1 $148 $148 $147 $248 forward $91 $-1 #
coedge $-1 $149 $149 $92 $150 forward $144 $-1 #
edge $-1 $249 -8.5530656677897454e-016 $249 6.2831853071795996 $149 $250 forward 7 unknown #
loop $-1 $-1 $156 $93 #
plane-surface $-1 -13.247362588710708 -7.5603347961818059 54.674795815424638 0 0.77714596973225614 0.62932038083071107 1 0 0 forward_v I I I I #
loop $-1 $-1 $251 $60 #
coedge $-1 $154 $154 $155 $252 reversed $94 $-1 #
coedge $-1 $155 $155 $154 $252 forward $96 $-1 #
coedge $-1 $156 $156 $97 $157 forward $151 $-1 #
edge $-1 $253 -8.5530656677897454e-016 $253 6.2831853071795996 $156 $254 forward 7 unknown #
face $-1 $255 $256 $33 $-1 $257 forward single #
loop $-1 $-1 $258 $98 #
plane-surface $-1 -21.613144278492122 -108.17560392539893 73.169305011846632 1 0 0 0 0.77714596973225614 -0.62932038083071107 forward_v I I I I #
coedge $-1 $259 $260 $261 $262 reversed $99 $-1 #
coedge $-1 $163 $101 $263 $264 reversed $64 $-1 #
coedge $-1 $101 $162 $259 $265 reversed $64 $-1 #
coedge $-1 $261 $266 $101 $165 forward $256 $-1 #
edge $-1 $267 24.856776088754696 $268 27.983438377294242 $164 $269 forward 7 unknown #
loop $-1 $-1 $171 $102 #
plane-surface $-1 -13.247362588710708 -29.231025873944773 9.2412479172736894 0 -0.77714596973225614 0.62932038083071107 1 0 0 forward_v I I I I #
loop $-1 $-1 $270 $66 #
coedge $-1 $169 $169 $170 $271 reversed $103 $-1 #
coedge $-1 $170 $170 $169 $271 forward $105 $-1 #
coedge $-1 $171 $171 $106 $172 forward $166 $-1 #
edge $-1 $272 -5.2518199176725898e-016 $272 6.2831853071795996 $171 $273 forward 7 unknown #
loop $-1 $-1 $178 $107 #
plane-surface $-1 -13.247362588710708 -29.231025873944773 9.2412479172736894 0 -0.77714596973225614 0.62932038083071107 1 0 0 forward_v I I I I #
loop $-1 $-1 $274 $69 #
coedge $-1 $176 $176 $177 $275 reversed $108 $-1 #
coedge $-1 $177 $177 $176 $275 forward $110 $-1 #
coedge $-1 $178 $178 $111 $179 forward $173 $-1 #
edge $-1 $276 -5.2518199176725898e-016 $276 6.2831853071795996 $178 $277 forward 7 unknown #
face $-1 $278 $279 $27 $-1 $280 reversed single #
loop $-1 $-1 $281 $112 #
plane-surface $-1 -50.791344950712606 0 0 1 0 0 0 0 -1 forward_v I I I I #
coedge $-1 $282 $191 $283 $284 forward $113 $-1 #
coedge $-1 $285 $115 $282 $286 forward $73 $-1 #
coedge $-1 $115 $285 $287 $288 forward $73 $-1 #
coedge $-1 $194 $193 $115 $187 reversed $195 $-1 #
edge $-1 $289 -29.23102587394477 $290 29.23102587394477 $186 $291 forward 7 unknown #
coedge $-1 $117 $116 $292 $293 forward $46 $-1 #
coedge $-1 $294 $295 $116 $190 reversed $279 $-1 #
edge $-1 $197 -50.791344950712606 $296 50.791344950712606 $189 $297 forward 7 unknown #
coedge $-1 $183 $298 $117 $192 reversed $113 $-1 #
edge $-1 $299 -50.791344950712606 $196 50.791344950712606 $191 $300 forward 7 unknown #
coedge $-1 $186 $118 $298 $301 forward $195 $-1 #
coedge $-1 $118 $186 $294 $302 reversed $195 $-1 #
loop $-1 $-1 $193 $278 #
vertex $-1 $119 $303 #
vertex $-1 $119 $304 #
straight-curve $-1 50.791344950712606 0 13.102354390648793 0 1 0 I I #
face $-1 $305 $306 $28 $-1 $307 reversed single #
loop $-1 $-1 $308 $120 #
plane-surface $-1 0 -29.23102587394477 0 0 1 0 0 0 1 forward_v I I I I #
coedge $-1 $205 $126 $309 $310 reversed $121 $-1 #
coedge $-1 $311 $123 $308 $312 reversed $77 $-1 #
coedge $-1 $123 $311 $313 $314 reversed $77 $-1 #
coedge $-1 $212 $202 $123 $206 reversed $121 $-1 #
edge $-1 $315 -29.23102587394477 $316 29.23102587394477 $205 $317 forward 7 unknown #
coedge $-1 $125 $124 $318 $319 reversed $49 $-1 #
coedge $-1 $320 $321 $124 $209 forward $322 $-1 #
edge $-1 $323 -28.797082382035548 $214 -15.191442755318569 $208 $324 forward 7 unknown #
coedge $-1 $325 $309 $125 $211 forward $200 $-1 #
edge $-1 $213 15.191442755318569 $326 28.797082382035548 $210 $327 forward 7 unknown #
coedge $-1 $126 $205 $320 $328 reversed $121 $-1 #
vertex $-1 $211 $329 #
vertex $-1 $209 $330 #
straight-curve $-1 -37.185705323995627 0 -5.5503008470901687 0 1 0 I I #
face $-1 $331 $332 $29 $-1 $333 reversed single #
loop $-1 $-1 $334 $128 #
plane-surface $-1 55.688335409135753 0 -10.805179435319909 0 0 1 1 0 0 forward_v I I I I #
coedge $-1 $335 $336 $337 $338 forward $129 $-1 #
coedge $-1 $339 $131 $335 $340 reversed $81 $-1 #
coedge $-1 $131 $339 $226 $341 reversed $81 $-1 #
edge $-1 $228 -10.805179435319909 $342 -3.1814461566788435 $131 $343 forward 7 unknown #
coedge $-1 $133 $132 $344 $345 forward $52 $-1 #
coedge $-1 $346 $347 $132 $225 forward $348 $-1 #
edge $-1 $349 3.1814461566788435 $229 10.805179435319909 $224 $350 forward 7 unknown #
coedge $-1 $334 $134 $221 $341 forward $217 $-1 #
coedge $-1 $134 $334 $346 $351 forward $217 $-1 #
vertex $-1 $222 $352 #
vertex $-1 $225 $353 #
straight-curve $-1 50.791344950712606 0 -10.805179435319909 0 -1 0 I I #
face $-1 $-1 $243 $30 $-1 $354 forward single #
loop $-1 $-1 $355 $136 #
plane-surface $-1 0 29.23102587394477 0 0 -1 0 0 0 -1 forward_v I I I I #
coedge $-1 $356 $357 $358 $359 reversed $137 $-1 #
coedge $-1 $360 $139 $141 $241 forward $85 $-1 #
coedge $-1 $139 $360 $356 $361 forward $85 $-1 #
coedge $-1 $358 $142 $139 $238 forward $243 $-1 #
edge $-1 $245 -14.989462984136768 $362 1.7421003954260605 $237 $363 forward 7 unknown #
coedge $-1 $364 $365 $140 $240 forward $232 $-1 #
edge $-1 $366 -50.060178537725101 $244 -46.199072064349998 $239 $367 forward 7 unknown #
edge $-1 $245 53.493736111246214 $366 58.462051747889532 $141 $368 forward 7 unknown #
coedge $-1 $142 $358 $364 $369 forward $243 $-1 #
loop $-1 $-1 $358 $231 #
vertex $-1 $240 $370 #
vertex $-1 $143 $371 #
straight-curve $-1 -21.613144278492122 35.692121627636176 13.102354390648792 0 -1 0 I I #
coedge $-1 $247 $247 $-1 $372 reversed $146 $-1 #
edge $-1 $373 0 $373 6.2831853071796004 $147 $374 forward 7 unknown #
vertex $-1 $150 $375 #
ellipse-curve $-1 -16.832697598617031 27.667694729675002 11.171801153961241 0 0.77714596973225614 0.62932038083071107 1 0 0 1 I I #
coedge $-1 $251 $251 $-1 $376 reversed $153 $-1 #
edge $-1 $377 0 $377 6.2831853071796004 $154 $378 forward 7 unknown #
vertex $-1 $157 $379 #
ellipse-curve $-1 -9.6620275788043912 27.667694729675002 11.171801153961241 0 0.77714596973225614 0.62932038083071107 1 0 0 1 I I #
face $-1 $-1 $380 $33 $-1 $381 reversed single #
loop $-1 $-1 $164 $158 #
plane-surface $-1 0 0 13.102354390648793 0 0 1 1 0 0 forward_v I I I I #
coedge $-1 $382 $383 $384 $385 reversed $159 $-1 #
coedge $-1 $386 $161 $163 $265 forward $99 $-1 #
coedge $-1 $161 $386 $382 $387 forward $99 $-1 #
coedge $-1 $384 $164 $161 $262 forward $256 $-1 #
edge $-1 $268 -1.7421003954260605 $388 14.989462984136768 $261 $389 forward 7 unknown #
coedge $-1 $390 $391 $162 $264 forward $380 $-1 #
edge $-1 $392 -27.343404588649623 $267 -23.482298115274524 $263 $393 forward 7 unknown #
edge $-1 $268 -4.968315636643319 $392 -4.9967722424176738e-015 $163 $394 forward 7 unknown #
coedge $-1 $164 $384 $390 $395 forward $256 $-1 #
vertex $-1 $165 $396 #
vertex $-1 $165 $397 #
straight-curve $-1 -4.8815808989292933 -54.087801962699466 13.102354390648792 0 1 0 I I #
coedge $-1 $270 $270 $-1 $398 reversed $168 $-1 #
edge $-1 $399 0 $399 6.2831853071796004 $169 $400 forward 7 unknown #
vertex $-1 $172 $401 #
ellipse-curve $-1 -16.832697598617031 -27.667694729674999 11.171801153961242 0 -0.77714596973225614 0.62932038083071107 1 0 0 1 I I #
coedge $-1 $274 $274 $-1 $402 reversed $175 $-1 #
edge $-1 $403 0 $403 6.2831853071796004 $176 $404 forward 7 unknown #
vertex $-1 $179 $405 #
ellipse-curve $-1 -9.6620275788043912 -27.667694729674999 11.171801153961242 0 -0.77714596973225614 0.62932038083071107 1 0 0 1 I I #
face $-1 $-1 $195 $27 $-1 $406 reversed single #
loop $-1 $-1 $294 $180 #
plane-surface $-1 0 29.23102587394477 0 0 -1 0 0 0 -1 forward_v I I I I #
coedge $-1 $407 $292 $295 $408 forward $181 $-1 #
coedge $-1 $298 $183 $184 $286 reversed $113 $-1 #
coedge $-1 $292 $407 $183 $284 reversed $181 $-1 #
edge $-1 $299 -13.102354390648793 $409 13.102354390648793 $283 $410 forward 7 unknown #
coedge $-1 $185 $184 $407 $411 forward $73 $-1 #
edge $-1 $290 -50.791344950712606 $409 50.791344950712606 $282 $412 forward 7 unknown #
coedge $-1 $295 $294 $185 $288 reversed $279 $-1 #
edge $-1 $413 -50.791344950712606 $289 50.791344950712606 $287 $414 forward 7 unknown #
vertex $-1 $187 $415 #
vertex $-1 $301 $416 #
straight-curve $-1 50.791344950712606 0 -13.102354390648793 0 -1 0 I I #
coedge $-1 $281 $283 $188 $293 reversed $181 $-1 #
edge $-1 $296 -29.23102587394477 $299 29.23102587394477 $292 $417 forward 7 unknown #
coedge $-1 $287 $189 $194 $302 forward $279 $-1 #
coedge $-1 $189 $287 $281 $408 reversed $279 $-1 #
vertex $-1 $190 $418 #
straight-curve $-1 0 29.23102587394477 13.102354390648793 -1 0 0 I I #
coedge $-1 $191 $282 $193 $301 reversed $113 $-1 #
vertex $-1 $293 $419 #
straight-curve $-1 0 -29.23102587394477 13.102354390648793 1 0 0 I I #
edge $-1 $196 -13.102354390648793 $290 13.102354390648793 $193 $420 forward 7 unknown #
edge $-1 $197 -13.102354390648793 $289 13.102354390648793 $194 $421 forward 7 unknown #
point $-1 50.791344950712606 -29.23102587394477 13.102354390648793 #
point $-1 50.791344950712606 29.23102587394477 13.102354390648793 #
face $-1 $-1 $322 $28 $-1 $422 reversed single #
loop $-1 $-1 $423 $199 #
plane-surface $-1 -50.791344950712606 0 0 1 0 0 0 0 -1 forward_v I I I I #
coedge $-1 $309 $325 $203 $312 forward $200 $-1 #
coedge $-1 $210 $308 $202 $310 forward $200 $-1 #
edge $-1 $316 -5.679425007499697 $213 -1.8070588955602136 $309 $424 forward 7 unknown #
coedge $-1 $204 $203 $423 $425 reversed $77 $-1 #
edge $-1 $426 -28.797082382035548 $316 -15.191442755318569 $308 $427 forward 7 unknown #
coedge $-1 $321 $320 $204 $314 forward $322 $-1 #
edge $-1 $315 15.191442755318569 $428 28.797082382035548 $313 $429 forward 7 unknown #
vertex $-1 $314 $430 #
vertex $-1 $312 $431 #
straight-curve $-1 -37.185705323995627 0 -9.4226669590296517 0 -1 0 I I #
coedge $-1 $432 $433 $207 $319 forward $306 $-1 #
edge $-1 $326 -29.23102587394477 $323 29.23102587394477 $318 $434 forward 7 unknown #
coedge $-1 $313 $208 $212 $328 forward $322 $-1 #
coedge $-1 $208 $313 $432 $435 reversed $322 $-1 #
loop $-1 $-1 $313 $305 #
vertex $-1 $435 $436 #
straight-curve $-1 -21.994262568677058 29.23102587394477 -5.5503008470901687 1 0 0 I I #
coedge $-1 $308 $210 $433 $437 forward $200 $-1 #
vertex $-1 $437 $438 #
straight-curve $-1 -21.994262568677058 -29.23102587394477 -5.5503008470901687 -1 0 0 I I #
edge $-1 $214 1.8070588955602136 $315 5.679425007499697 $320 $439 forward 7 unknown #
point $-1 -37.185705323995627 -29.23102587394477 -5.5503008470901687 #
point $-1 -37.185705323995627 29.23102587394477 -5.5503008470901687 #
face $-1 $-1 $348 $29 $-1 $440 reversed single #
loop $-1 $-1 $441 $216 #
plane-surface $-1 60.5853258675589 0 -6.9933127959993762 -1 0 0 0 0 1 forward_v I I I I #
coedge $-1 $227 $226 $442 $443 forward $217 $-1 #
coedge $-1 $344 $219 $220 $340 forward $129 $-1 #
coedge $-1 $219 $344 $347 $444 forward $129 $-1 #
coedge $-1 $441 $445 $219 $338 reversed $332 $-1 #
edge $-1 $446 -29.23102587394477 $447 29.23102587394477 $337 $448 forward 7 unknown #
coedge $-1 $221 $220 $445 $449 forward $81 $-1 #
edge $-1 $447 -4.8969904584231472 $342 4.8969904584231472 $220 $450 forward 7 unknown #
edge $-1 $228 -4.8969904584231472 $451 4.8969904584231472 $221 $452 forward 7 unknown #
vertex $-1 $340 $453 #
straight-curve $-1 50.791344950712606 29.23102587394477 0 0 0 1 I I #
coedge $-1 $336 $335 $223 $345 reversed $129 $-1 #
edge $-1 $349 -29.23102587394477 $342 29.23102587394477 $344 $454 forward 7 unknown #
coedge $-1 $455 $224 $227 $351 reversed $348 $-1 #
coedge $-1 $224 $455 $336 $444 reversed $348 $-1 #
loop $-1 $-1 $224 $331 #
vertex $-1 $225 $456 #
straight-curve $-1 50.791344950712606 -29.23102587394477 0 0 0 -1 I I #
edge $-1 $457 -4.8969904584231472 $229 4.8969904584231472 $346 $458 forward 7 unknown #
point $-1 50.791344950712606 29.23102587394477 -10.805179435319909 #
point $-1 50.791344950712606 -29.23102587394477 -10.805179435319909 #
plane-surface $-1 0 0 13.102354390648793 0 0 1 1 0 0 forward_v I I I I #
coedge $-1 $365 $364 $357 $459 forward $232 $-1 #
coedge $-1 $357 $234 $236 $361 reversed $137 $-1 #
coedge $-1 $234 $356 $355 $459 reversed $137 $-1 #
coedge $-1 $242 $237 $234 $359 forward $243 $-1 #
edge $-1 $362 -9.5877580422309521 $460 -6.4610957536914064 $358 $461 forward 7 unknown #
coedge $-1 $236 $235 $365 $462 reversed $85 $-1 #
edge $-1 $463 -58.462051747889532 $362 -53.493736111246214 $356 $464 forward 7 unknown #
vertex $-1 $238 $465 #
straight-curve $-1 -6.6236812943553538 26.104363585405221 13.102354390648792 1 0 0 I I #
coedge $-1 $355 $239 $242 $369 reversed $232 $-1 #
coedge $-1 $239 $355 $360 $462 forward $232 $-1 #
vertex $-1 $240 $466 #
straight-curve $-1 -21.613144278492122 29.23102587394477 59.30142645499879 0 0 1 I I #
straight-curve $-1 -21.613144278492122 -7.5603347961818059 54.674795815424638 0 0.62932038083071107 -0.77714596973225614 I I #
edge $-1 $460 4.8815808989292933 $244 21.613144278492122 $364 $467 forward 7 unknown #
point $-1 -21.613144278492122 29.23102587394477 13.102354390648793 #
point $-1 -21.613144278492122 26.104363585405224 13.102354390648792 #
edge $-1 $468 1 $468 0 $247 $-1 forward 7 unknown #
vertex $-1 $248 $469 #
ellipse-curve $-1 -16.832697598617031 24.977484669102154 8.9933120595410632 0 0.77714596973225614 0.62932038083071107 1 0 0 1 I I #
point $-1 -15.832697598617031 27.667694729674999 11.171801153961239 #
edge $-1 $470 1 $470 0 $251 $-1 forward 7 unknown #
vertex $-1 $252 $471 #
ellipse-curve $-1 -9.6620275788043912 24.977484669102154 8.9933120595410632 0 0.77714596973225614 0.62932038083071107 1 0 0 1 I I #
point $-1 -8.6620275788043912 27.667694729674999 11.171801153961239 #
loop $-1 $-1 $263 $255 #
plane-surface $-1 0 -29.23102587394477 0 0 1 0 0 0 1 forward_v I I I I #
coedge $-1 $383 $258 $260 $387 reversed $159 $-1 #
coedge $-1 $258 $382 $472 $473 reversed $159 $-1 #
coedge $-1 $266 $261 $258 $385 forward $256 $-1 #
edge $-1 $388 -27.983438377294242 $474 -24.856776088754696 $384 $475 forward 7 unknown #
coedge $-1 $260 $259 $391 $476 reversed $99 $-1 #
edge $-1 $477 4.9967722424176738e-015 $388 4.968315636643319 $382 $478 forward 7 unknown #
vertex $-1 $262 $479 #
straight-curve $-1 -6.6236812943553538 -26.104363585405224 13.102354390648793 -1 0 0 I I #
coedge $-1 $472 $263 $266 $395 reversed $380 $-1 #
coedge $-1 $263 $472 $386 $476 forward $380 $-1 #
vertex $-1 $264 $480 #
straight-curve $-1 -4.8815808989292933 -29.231025873944773 36.584652505923316 0 0 1 I I #
straight-curve $-1 -4.8815808989292933 -29.231025873944773 9.2412479172736894 0 -0.62932038083071107 -0.77714596973225614 I I #
edge $-1 $474 -21.613144278492122 $267 -4.8815808989292933 $390 $481 forward 7 unknown #
point $-1 -4.8815808989292933 -29.23102587394477 13.102354390648793 #
point $-1 -4.8815808989292933 -26.104363585405224 13.102354390648793 #
edge $-1 $482 1 $482 0 $270 $-1 forward 7 unknown #
vertex $-1 $271 $483 #
ellipse-curve $-1 -16.832697598617031 -24.97748466910215 8.9933120595410632 0 -0.77714596973225614 0.62932038083071107 1 0 0 1 I I #
point $-1 -15.832697598617031 -27.667694729674995 11.171801153961239 #
edge $-1 $484 1 $484 0 $274 $-1 forward 7 unknown #
vertex $-1 $275 $485 #
ellipse-curve $-1 -9.6620275788043912 -24.97748466910215 8.9933120595410632 0 -0.77714596973225614 0.62932038083071107 1 0 0 1 I I #
point $-1 -8.6620275788043912 -27.667694729674995 11.171801153961239 #
plane-surface $-1 50.791344950712606 0 0 -1 0 0 0 0 1 forward_v I I I I #
coedge $-1 $283 $281 $285 $411 reversed $181 $-1 #
edge $-1 $296 -13.102354390648793 $413 13.102354390648793 $295 $486 forward 7 unknown #
vertex $-1 $411 $487 #
straight-curve $-1 -50.791344950712606 -29.23102587394477 0 0 0 -1 I I #
edge $-1 $409 -29.23102587394477 $413 29.23102587394477 $407 $488 forward 7 unknown #
straight-curve $-1 0 -29.23102587394477 -13.102354390648793 -1 0 0 I I #
vertex $-1 $288 $489 #
straight-curve $-1 0 29.23102587394477 -13.102354390648793 1 0 0 I I #
point $-1 50.791344950712606 29.23102587394477 -13.102354390648793 #
point $-1 50.791344950712606 -29.23102587394477 -13.102354390648793 #
straight-curve $-1 -50.791344950712606 0 13.102354390648793 0 -1 0 I I #
point $-1 -50.791344950712606 29.23102587394477 13.102354390648793 #
point $-1 -50.791344950712606 -29.23102587394477 13.102354390648793 #
straight-curve $-1 50.791344950712606 -29.23102587394477 0 0 0 -1 I I #
straight-curve $-1 50.791344950712606 29.23102587394477 0 0 0 -1 I I #
plane-surface $-1 0 29.23102587394477 0 0 -1 0 0 0 -1 forward_v I I I I #
coedge $-1 $433 $432 $311 $425 forward $306 $-1 #
straight-curve $-1 -37.185705323995627 -29.23102587394477 -3.7432419515299551 0 0 1 I I #
edge $-1 $428 -29.23102587394477 $426 29.23102587394477 $423 $490 forward 7 unknown #
vertex $-1 $312 $491 #
straight-curve $-1 -21.994262568677058 -29.23102587394477 -9.4226669590296517 1 0 0 I I #
vertex $-1 $314 $492 #
straight-curve $-1 -21.994262568677058 29.23102587394477 -9.4226669590296517 -1 0 0 I I #
point $-1 -37.185705323995627 29.23102587394477 -9.4226669590296517 #
point $-1 -37.185705323995627 -29.23102587394477 -9.4226669590296517 #
coedge $-1 $423 $318 $321 $435 forward $306 $-1 #
coedge $-1 $318 $423 $325 $437 reversed $306 $-1 #
straight-curve $-1 -50.791344950712606 0 -5.5503008470901687 0 1 0 I I #
edge $-1 $323 5.5503008470901687 $428 9.4226669590296517 $321 $493 forward 7 unknown #
point $-1 -50.791344950712606 29.23102587394477 -5.5503008470901687 #
edge $-1 $326 5.5503008470901687 $426 9.4226669590296517 $433 $494 forward 7 unknown #
point $-1 -50.791344950712606 -29.23102587394477 -5.5503008470901687 #
straight-curve $-1 -37.185705323995627 29.23102587394477 -3.7432419515299551 0 0 -1 I I #
plane-surface $-1 0 -29.23102587394477 0 0 1 0 0 0 1 forward_v I I I I #
coedge $-1 $442 $337 $455 $495 forward $332 $-1 #
coedge $-1 $445 $441 $334 $443 reversed $332 $-1 #
edge $-1 $451 -29.23102587394477 $457 29.23102587394477 $442 $496 forward 7 unknown #
edge $-1 $349 -4.8969904584231472 $446 4.8969904584231472 $347 $497 forward 7 unknown #
coedge $-1 $337 $442 $339 $449 reversed $332 $-1 #
vertex $-1 $338 $498 #
vertex $-1 $338 $499 #
straight-curve $-1 60.5853258675589 0 -3.1814461566788435 0 1 0 I I #
edge $-1 $447 -3.8118666393205327 $451 3.8118666393205327 $445 $500 forward 7 unknown #
straight-curve $-1 55.688335409135753 29.23102587394477 -3.1814461566788435 -1 0 0 I I #
vertex $-1 $443 $501 #
straight-curve $-1 55.688335409135753 29.23102587394477 -10.805179435319909 1 0 0 I I #
point $-1 50.791344950712606 29.23102587394477 -3.1814461566788435 #
straight-curve $-1 50.791344950712606 0 -3.1814461566788435 0 1 0 I I #
coedge $-1 $347 $346 $441 $495 reversed $348 $-1 #
point $-1 50.791344950712606 -29.23102587394477 -3.1814461566788435 #
vertex $-1 $495 $502 #
straight-curve $-1 55.688335409135753 -29.23102587394477 -10.805179435319909 -1 0 0 I I #
edge $-1 $460 46.199072064349998 $463 50.060178537725101 $355 $503 forward 7 unknown #
vertex $-1 $369 $504 #
straight-curve $-1 -4.8815808989292933 35.692121627636176 13.102354390648792 0 1 0 I I #
edge $-1 $463 -1.7421003954260605 $366 14.989462984136768 $365 $505 forward 7 unknown #
vertex $-1 $462 $506 #
straight-curve $-1 -4.8815808989292933 -7.5603347961818059 54.674795815424638 0 -0.62932038083071107 0.77714596973225614 I I #
point $-1 -4.8815808989292933 26.104363585405224 13.102354390648792 #
point $-1 -21.613144278492122 29.231025873944773 9.2412479172736894 #
straight-curve $-1 0 29.23102587394477 13.102354390648793 -1 0 0 I I #
vertex $-1 $372 $507 #
point $-1 -15.832697598617031 24.977484669102154 8.9933120595410632 #
vertex $-1 $376 $508 #
point $-1 -8.6620275788043912 24.977484669102154 8.9933120595410632 #
coedge $-1 $391 $390 $383 $473 forward $380 $-1 #
edge $-1 $474 23.482298115274524 $477 27.343404588649623 $472 $509 forward 7 unknown #
vertex $-1 $395 $510 #
straight-curve $-1 -21.613144278492122 -54.087801962699466 13.102354390648792 0 -1 0 I I #
edge $-1 $477 -14.989462984136768 $392 1.7421003954260605 $391 $511 forward 7 unknown #
vertex $-1 $476 $512 #
straight-curve $-1 -21.613144278492122 -29.231025873944773 9.2412479172736894 0 0.62932038083071107 0.77714596973225614 I I #
point $-1 -21.613144278492122 -26.104363585405224 13.102354390648793 #
point $-1 -4.8815808989292933 -29.23102587394477 9.241247917273693 #
straight-curve $-1 0 -29.23102587394477 13.102354390648793 1 0 0 I I #
vertex $-1 $398 $513 #
point $-1 -15.832697598617031 -24.97748466910215 8.9933120595410632 #
vertex $-1 $402 $514 #
point $-1 -8.6620275788043912 -24.97748466910215 8.9933120595410632 #
straight-curve $-1 -50.791344950712606 29.23102587394477 0 0 0 -1 I I #
point $-1 -50.791344950712606 -29.23102587394477 -13.102354390648793 #
straight-curve $-1 -50.791344950712606 0 -13.102354390648793 0 1 0 I I #
point $-1 -50.791344950712606 29.23102587394477 -13.102354390648793 #
straight-curve $-1 -50.791344950712606 0 -9.4226669590296517 0 -1 0 I I #
point $-1 -50.791344950712606 -29.23102587394477 -9.4226669590296517 #
point $-1 -50.791344950712606 29.23102587394477 -9.4226669590296517 #
straight-curve $-1 -50.791344950712606 29.23102587394477 0 0 0 -1 I I #
straight-curve $-1 -50.791344950712606 -29.23102587394477 0 0 0 -1 I I #
edge $-1 $446 -3.8118666393205327 $457 3.8118666393205327 $441 $515 forward 7 unknown #
straight-curve $-1 60.5853258675589 0 -10.805179435319909 0 -1 0 I I #
straight-curve $-1 55.688335409135753 -29.23102587394477 -3.1814461566788435 1 0 0 I I #
point $-1 60.5853258675589 -29.23102587394477 -3.1814461566788435 #
point $-1 60.5853258675589 29.23102587394477 -3.1814461566788435 #
straight-curve $-1 60.5853258675589 29.23102587394477 -6.9933127959993762 0 0 -1 I I #
point $-1 60.5853258675589 29.23102587394477 -10.805179435319909 #
point $-1 60.5853258675589 -29.23102587394477 -10.805179435319909 #
straight-curve $-1 -4.8815808989292933 29.23102587394477 59.30142645499879 0 0 -1 I I #
point $-1 -4.8815808989292933 29.23102587394477 13.102354390648793 #
straight-curve $-1 -6.6236812943553538 29.23102587394477 9.2412479172736894 -1 0 0 I I #
point $-1 -4.8815808989292933 29.231025873944773 9.2412479172736894 #
point $-1 -16.832697598617031 24.200338699369901 8.3639916787103505 #
point $-1 -9.6620275788043912 24.200338699369901 8.3639916787103505 #
straight-curve $-1 -21.613144278492122 -29.231025873944773 36.584652505923316 0 0 -1 I I #
point $-1 -21.613144278492122 -29.23102587394477 13.102354390648793 #
straight-curve $-1 -6.6236812943553538 -29.23102587394477 9.2412479172736948 1 0 0 I I #
point $-1 -21.613144278492122 -29.23102587394477 9.241247917273693 #
point $-1 -16.832697598617031 -24.200338699369897 8.3639916787103505 #
point $-1 -9.6620275788043912 -24.200338699369897 8.3639916787103505 #
straight-curve $-1 60.5853258675589 -29.23102587394477 -6.9933127959993762 0 0 -1 I I #
End-of-ACIS-data 