500 0 6 0           
7 Unknown 11 ACIS 5.0 NT 24 Fri Mar 26 01:03:05 1999 
-1 9.9999999999999995e-007 1e-010 
body $-1 $6 $-1 $7 #
body $-1 $8 $-1 $9 #
body $-1 $10 $-1 $11 #
body $-1 $12 $-1 $13 #
body $-1 $14 $-1 $15 #
body $-1 $16 $-1 $17 #
lump $-1 $-1 $18 $0 #
transform $-1 1 0 0 0 1 0 0 0 1 73.28470717490157 51.017490978605366 12.272721667829186 1 rotate no_reflect no_shear #
lump $-1 $-1 $19 $1 #
transform $-1 1 0 0 0 1 0 0 0 1 73.28470717490157 51.017490978605366 12.272721667829186 1 rotate no_reflect no_shear #
lump $-1 $-1 $20 $2 #
transform $-1 1 0 0 0 1 0 0 0 1 73.28470717490157 51.017490978605366 12.272721667829186 1 rotate no_reflect no_shear #
lump $-1 $-1 $21 $3 #
transform $-1 1 0 0 0 1 0 0 0 1 73.28470717490157 51.017490978605366 12.272721667829186 1 rotate no_reflect no_shear #
lump $-1 $-1 $22 $4 #
transform $-1 1 0 0 0 1 0 0 0 1 73.28470717490157 51.017490978605366 12.272721667829186 1 rotate no_reflect no_shear #
lump $-1 $-1 $23 $5 #
transform $-1 1 0 0 0 1 0 0 0 1 73.28470717490157 51.017490978605366 12.272721667829186 1 rotate no_reflect no_shear #
shell $-1 $-1 $-1 $24 $-1 $6 #
shell $-1 $-1 $-1 $25 $-1 $8 #
shell $-1 $-1 $-1 $26 $-1 $10 #
shell $-1 $-1 $-1 $27 $-1 $12 #
shell $-1 $-1 $-1 $28 $-1 $14 #
shell $-1 $-1 $-1 $29 $-1 $16 #
face $-1 $30 $31 $18 $-1 $32 forward single #
face $-1 $33 $34 $19 $-1 $35 forward single #
face $-1 $36 $37 $20 $-1 $38 reversed single #
face $-1 $39 $40 $21 $-1 $41 forward single #
face $-1 $42 $43 $22 $-1 $44 reversed single #
face $-1 $45 $46 $23 $-1 $47 forward single #
face $-1 $48 $49 $18 $-1 $50 reversed single #
loop $-1 $-1 $51 $24 #
plane-surface $-1 0 0 12.272721667829186 0 0 1 1 0 0 forward_v I I I I #
face $-1 $52 $53 $19 $-1 $54 reversed single #
loop $-1 $-1 $55 $25 #
plane-surface $-1 -73.28470717490157 0 0 1 0 0 0 0 -1 forward_v I I I I #
face $-1 $56 $57 $20 $-1 $58 reversed single #
loop $-1 $-1 $59 $26 #
plane-surface $-1 67.305156743698504 -135.08625442289537 125.6632826823718 -1 0 0 0 -0.57357644374324357 0.81915203911291934 forward_v I I I I #
face $-1 $60 $61 $21 $-1 $62 forward single #
loop $-1 $63 $64 $27 #
cone-surface $-1 54.801065710738357 -44.642293159593834 6.6361618408024983 0 0.57357644374324357 -0.81915203911291934 1.5 0 0 1 I I 0 1 1.5 forward I I I I #
face $-1 $65 $66 $22 $-1 $67 reversed single #
loop $-1 $-1 $68 $28 #
plane-surface $-1 42.296974677778209 51.504090891796267 184.18814477079476 1 0 0 0 -0.57357644374324357 -0.81915203911291934 forward_v I I I I #
face $-1 $69 $70 $23 $-1 $71 forward single #
loop $-1 $72 $73 $29 #
cone-surface $-1 54.801065710738357 44.642293159593848 6.6361618408025054 0 -0.57357644374324357 -0.81915203911291934 1.5 0 0 1 I I 0 1 1.5 forward I I I I #
face $-1 $74 $75 $18 $-1 $76 reversed single #
loop $-1 $-1 $77 $30 #
plane-surface $-1 0 0 -12.272721667829186 0 0 1 1 0 0 forward_v I I I I #
coedge $-1 $78 $79 $80 $81 forward $31 $-1 #
face $-1 $82 $83 $19 $-1 $84 reversed single #
loop $-1 $-1 $85 $33 #
plane-surface $-1 0 0 -12.272721667829186 0 0 1 1 0 0 forward_v I I I I #
coedge $-1 $86 $87 $88 $89 forward $34 $-1 #
face $-1 $90 $91 $20 $-1 $92 reversed single #
loop $-1 $-1 $93 $36 #
plane-surface $-1 54.801065710738357 -51.017490978605352 5.6006480461441726 0 -0.57357644374324357 0.81915203911291934 1 0 0 forward_v I I I I #
coedge $-1 $94 $95 $96 $97 reversed $37 $-1 #
face $-1 $-1 $98 $21 $-1 $99 forward single #
loop $-1 $100 $101 $39 #
cone-surface $-1 54.801065710738357 -42.601267238090259 3.7212747952836072 0 0.57357644374324357 -0.81915203911291934 0.75 0 0 1 I I -0.70710678118654757 0.70710678118654757 0.75 forward I I I I #
loop $-1 $-1 $102 $27 #
coedge $-1 $64 $64 $103 $104 reversed $40 $-1 #
face $-1 $105 $106 $22 $-1 $107 reversed single #
loop $-1 $-1 $108 $42 #
plane-surface $-1 54.801065710738357 -32.564672552493747 64.125510134567136 0 0.57357644374324357 0.81915203911291934 1 0 0 forward_v I I I I #
coedge $-1 $109 $110 $111 $112 reversed $43 $-1 #
face $-1 $-1 $113 $23 $-1 $114 forward single #
loop $-1 $115 $116 $45 #
cone-surface $-1 54.801065710738357 42.601267238090273 3.7212747952836143 0 -0.57357644374324357 -0.81915203911291934 0.75 0 0 1 I I -0.70710678118654757 0.70710678118654757 0.75 forward I I I I #
loop $-1 $-1 $117 $29 #
coedge $-1 $73 $73 $118 $119 reversed $46 $-1 #
face $-1 $120 $121 $18 $-1 $122 reversed single #
loop $-1 $-1 $123 $48 #
plane-surface $-1 0 -51.017490978605366 0 0 1 0 0 0 1 forward_v I I I I #
coedge $-1 $124 $125 $126 $127 forward $49 $-1 #
coedge $-1 $128 $51 $129 $130 forward $31 $-1 #
coedge $-1 $51 $128 $131 $132 forward $31 $-1 #
coedge $-1 $133 $134 $51 $81 reversed $135 $-1 #
edge $-1 $136 -51.017490978605366 $137 51.017490978605366 $80 $138 forward 7 unknown #
face $-1 $139 $140 $19 $-1 $141 reversed single #
loop $-1 $-1 $142 $52 #
plane-surface $-1 -77.505520396662817 -31.569682349923184 0 0 1 0 0 0 1 forward_v I I I I #
coedge $-1 $143 $144 $87 $145 forward $53 $-1 #
coedge $-1 $146 $55 $147 $148 reversed $34 $-1 #
coedge $-1 $55 $146 $85 $145 reversed $34 $-1 #
coedge $-1 $149 $150 $55 $89 reversed $151 $-1 #
edge $-1 $152 -12.272721667829186 $153 12.272721667829186 $88 $154 forward 7 unknown #
face $-1 $155 $156 $20 $-1 $157 forward single #
loop $-1 $-1 $158 $56 #
plane-surface $-1 42.296974677778209 -135.08625442289537 125.6632826823718 1 0 0 0 0.57357644374324357 -0.81915203911291934 forward_v I I I I #
coedge $-1 $159 $160 $161 $162 reversed $57 $-1 #
coedge $-1 $95 $59 $163 $164 reversed $37 $-1 #
coedge $-1 $59 $94 $159 $165 reversed $37 $-1 #
coedge $-1 $161 $166 $59 $97 forward $156 $-1 #
edge $-1 $167 16.525636232842317 $168 26.054344693473183 $96 $169 forward 7 unknown #
loop $-1 $-1 $103 $60 #
plane-surface $-1 54.801065710738357 -51.017490978605352 5.6006480461441726 0 -0.57357644374324357 0.81915203911291934 1 0 0 forward_v I I I I #
loop $-1 $-1 $170 $39 #
coedge $-1 $101 $101 $102 $171 reversed $61 $-1 #
coedge $-1 $102 $102 $101 $171 forward $63 $-1 #
coedge $-1 $103 $103 $64 $104 forward $98 $-1 #
edge $-1 $172 1.9441685660006169e-015 $172 6.2831853071796022 $103 $173 forward 7 unknown #
face $-1 $174 $175 $22 $-1 $176 reversed single #
loop $-1 $-1 $177 $65 #
plane-surface $-1 67.305156743698504 51.504090891796267 184.18814477079476 -1 0 0 0 0.57357644374324357 0.81915203911291934 forward_v I I I I #
coedge $-1 $178 $179 $180 $181 reversed $66 $-1 #
coedge $-1 $110 $68 $182 $183 reversed $43 $-1 #
coedge $-1 $68 $109 $178 $184 reversed $43 $-1 #
coedge $-1 $180 $185 $68 $112 forward $186 $-1 #
edge $-1 $187 -25.265445532707233 $188 -15.73673707207638 $111 $189 forward 7 unknown #
loop $-1 $-1 $118 $69 #
plane-surface $-1 54.801065710738357 -32.564672552493747 64.125510134567136 0 0.57357644374324357 0.81915203911291934 1 0 0 forward_v I I I I #
loop $-1 $-1 $190 $45 #
coedge $-1 $116 $116 $117 $191 reversed $70 $-1 #
coedge $-1 $117 $117 $116 $191 forward $72 $-1 #
coedge $-1 $118 $118 $73 $119 forward $113 $-1 #
edge $-1 $192 -2.6234195251754068e-015 $192 6.2831853071795978 $118 $193 forward 7 unknown #
face $-1 $194 $195 $18 $-1 $196 reversed single #
loop $-1 $-1 $197 $74 #
plane-surface $-1 -73.28470717490157 0 0 1 0 0 0 0 -1 forward_v I I I I #
coedge $-1 $198 $131 $199 $200 forward $75 $-1 #
coedge $-1 $201 $77 $198 $202 forward $49 $-1 #
coedge $-1 $77 $201 $203 $204 forward $49 $-1 #
coedge $-1 $134 $133 $77 $127 reversed $135 $-1 #
edge $-1 $205 -51.017490978605366 $206 51.017490978605366 $126 $207 forward 7 unknown #
coedge $-1 $79 $78 $208 $209 forward $31 $-1 #
coedge $-1 $210 $211 $78 $130 reversed $195 $-1 #
edge $-1 $137 -73.28470717490157 $212 73.28470717490157 $129 $213 forward 7 unknown #
coedge $-1 $123 $214 $79 $132 reversed $75 $-1 #
edge $-1 $215 -73.28470717490157 $136 73.28470717490157 $131 $216 forward 7 unknown #
coedge $-1 $126 $80 $214 $217 forward $135 $-1 #
coedge $-1 $80 $126 $210 $218 reversed $135 $-1 #
loop $-1 $-1 $133 $194 #
vertex $-1 $81 $219 #
vertex $-1 $81 $220 #
straight-curve $-1 73.28470717490157 0 12.272721667829186 0 1 0 I I #
face $-1 $221 $151 $19 $-1 $222 reversed single #
loop $-1 $-1 $223 $82 #
plane-surface $-1 -81.726333618424064 -29.02086499643509 0 1 0 0 0 0 -1 forward_v I I I I #
coedge $-1 $224 $225 $226 $227 forward $83 $-1 #
coedge $-1 $228 $85 $224 $229 forward $53 $-1 #
coedge $-1 $85 $228 $149 $230 forward $53 $-1 #
edge $-1 $152 26.472047642946997 $231 31.569682349923184 $85 $232 forward 7 unknown #
coedge $-1 $87 $86 $233 $234 forward $34 $-1 #
coedge $-1 $235 $236 $86 $148 forward $237 $-1 #
edge $-1 $238 -31.569682349923184 $153 -26.472047642946997 $147 $239 forward 7 unknown #
coedge $-1 $240 $88 $144 $230 reversed $151 $-1 #
coedge $-1 $88 $240 $235 $241 reversed $151 $-1 #
loop $-1 $-1 $88 $139 #
vertex $-1 $145 $242 #
vertex $-1 $241 $243 #
straight-curve $-1 -73.28470717490157 -26.472047642946997 0 0 0 1 I I #
face $-1 $-1 $244 $20 $-1 $245 reversed single #
loop $-1 $-1 $96 $90 #
plane-surface $-1 0 0 12.272721667829186 0 0 1 1 0 0 forward_v I I I I #
coedge $-1 $246 $247 $248 $249 reversed $91 $-1 #
coedge $-1 $250 $93 $95 $165 forward $57 $-1 #
coedge $-1 $93 $250 $246 $251 forward $57 $-1 #
coedge $-1 $248 $96 $93 $162 forward $156 $-1 #
edge $-1 $168 -39.904623888329326 $252 -14.896441822409031 $161 $253 forward 7 unknown #
coedge $-1 $254 $255 $94 $164 forward $244 $-1 #
edge $-1 $256 -57.230993295041735 $167 -50.558919673356712 $163 $257 forward 7 unknown #
edge $-1 $168 -11.632405225957482 $256 1.7244671030687178e-014 $95 $258 forward 7 unknown #
coedge $-1 $96 $248 $254 $259 forward $156 $-1 #
vertex $-1 $97 $260 #
vertex $-1 $97 $261 #
straight-curve $-1 67.305156743698504 -67.543127211447683 12.272721667829188 0 1 0 I I #
coedge $-1 $170 $170 $-1 $262 reversed $100 $-1 #
edge $-1 $263 0 $263 6.2831853071796004 $101 $264 forward 7 unknown #
vertex $-1 $104 $265 #
ellipse-curve $-1 54.801065710738357 -46.253136748289947 8.9366848569866644 0 -0.57357644374324357 0.81915203911291934 1.5 0 0 1 I I #
face $-1 $-1 $186 $22 $-1 $266 forward single #
loop $-1 $-1 $267 $105 #
plane-surface $-1 0 51.017490978605366 0 0 -1 0 0 0 -1 forward_v I I I I #
coedge $-1 $268 $269 $270 $271 reversed $106 $-1 #
coedge $-1 $272 $108 $110 $184 forward $66 $-1 #
coedge $-1 $108 $272 $268 $273 forward $66 $-1 #
coedge $-1 $270 $111 $108 $181 forward $186 $-1 #
edge $-1 $188 14.896441822409031 $274 39.904623888329326 $180 $275 forward 7 unknown #
coedge $-1 $276 $277 $109 $183 forward $175 $-1 #
edge $-1 $278 -86.49342433925321 $187 -79.821350717568194 $182 $279 forward 7 unknown #
edge $-1 $188 90.402576731253248 $278 102.03498195721075 $110 $280 forward 7 unknown #
coedge $-1 $111 $270 $276 $281 forward $186 $-1 #
loop $-1 $-1 $270 $174 #
vertex $-1 $183 $282 #
vertex $-1 $112 $283 #
straight-curve $-1 42.296974677778209 25.752045445898133 12.272721667829188 0 -1 0 I I #
coedge $-1 $190 $190 $-1 $284 reversed $115 $-1 #
edge $-1 $285 0 $285 6.2831853071796004 $116 $286 forward 7 unknown #
vertex $-1 $119 $287 #
ellipse-curve $-1 54.801065710738357 46.253136748289961 8.9366848569866697 0 0.57357644374324357 0.81915203911291934 1.5 0 0 1 I I #
face $-1 $-1 $135 $18 $-1 $288 reversed single #
loop $-1 $-1 $210 $120 #
plane-surface $-1 0 51.017490978605366 0 0 -1 0 0 0 -1 forward_v I I I I #
coedge $-1 $289 $208 $211 $290 forward $121 $-1 #
coedge $-1 $214 $123 $124 $202 reversed $75 $-1 #
coedge $-1 $208 $289 $123 $200 reversed $121 $-1 #
edge $-1 $215 -12.272721667829186 $291 12.272721667829186 $199 $292 forward 7 unknown #
coedge $-1 $125 $124 $289 $293 forward $49 $-1 #
edge $-1 $206 -73.28470717490157 $291 73.28470717490157 $198 $294 forward 7 unknown #
coedge $-1 $211 $210 $125 $204 reversed $195 $-1 #
edge $-1 $295 -73.28470717490157 $205 73.28470717490157 $203 $296 forward 7 unknown #
vertex $-1 $127 $297 #
vertex $-1 $217 $298 #
straight-curve $-1 73.28470717490157 0 -12.272721667829186 0 -1 0 I I #
coedge $-1 $197 $199 $128 $209 reversed $121 $-1 #
edge $-1 $212 -51.017490978605366 $215 51.017490978605366 $208 $299 forward 7 unknown #
coedge $-1 $203 $129 $134 $218 forward $195 $-1 #
coedge $-1 $129 $203 $197 $290 reversed $195 $-1 #
vertex $-1 $130 $300 #
straight-curve $-1 0 51.017490978605366 12.272721667829186 -1 0 0 I I #
coedge $-1 $131 $198 $133 $217 reversed $75 $-1 #
vertex $-1 $209 $301 #
straight-curve $-1 0 -51.017490978605366 12.272721667829186 1 0 0 I I #
edge $-1 $136 -12.272721667829186 $206 12.272721667829186 $133 $302 forward 7 unknown #
edge $-1 $137 -12.272721667829186 $205 12.272721667829186 $134 $303 forward 7 unknown #
point $-1 73.28470717490157 -51.017490978605366 12.272721667829186 #
point $-1 73.28470717490157 51.017490978605366 12.272721667829186 #
face $-1 $-1 $237 $19 $-1 $304 forward single #
plane-surface $-1 -77.505520396662817 -26.472047642946997 0 0 -1 0 0 0 -1 forward_v I I I I #
coedge $-1 $305 $306 $240 $307 forward $140 $-1 #
coedge $-1 $233 $142 $143 $229 reversed $83 $-1 #
coedge $-1 $142 $233 $236 $308 reversed $83 $-1 #
coedge $-1 $306 $305 $142 $227 reversed $140 $-1 #
edge $-1 $309 -12.272721667829186 $310 12.272721667829186 $226 $311 forward 7 unknown #
coedge $-1 $144 $143 $305 $312 forward $53 $-1 #
edge $-1 $231 -4.2208132217612473 $310 4.2208132217612473 $224 $313 forward 7 unknown #
edge $-1 $314 -4.2208132217612473 $152 4.2208132217612473 $149 $315 forward 7 unknown #
vertex $-1 $229 $316 #
straight-curve $-1 -73.28470717490157 0 -12.272721667829186 0 -1 0 I I #
coedge $-1 $225 $224 $146 $234 reversed $83 $-1 #
edge $-1 $238 -12.272721667829186 $231 12.272721667829186 $233 $317 forward 7 unknown #
coedge $-1 $318 $147 $150 $241 forward $237 $-1 #
coedge $-1 $147 $318 $225 $308 forward $237 $-1 #
loop $-1 $-1 $147 $221 #
vertex $-1 $148 $319 #
straight-curve $-1 -73.28470717490157 0 12.272721667829186 0 1 0 I I #
coedge $-1 $150 $149 $223 $307 reversed $151 $-1 #
edge $-1 $153 -4.2208132217612473 $320 4.2208132217612473 $150 $321 forward 7 unknown #
point $-1 -73.28470717490157 -26.472047642946997 -12.272721667829186 #
point $-1 -73.28470717490157 -26.472047642946997 12.272721667829186 #
loop $-1 $-1 $163 $155 #
plane-surface $-1 0 -51.017490978605366 0 0 1 0 0 0 1 forward_v I I I I #
coedge $-1 $247 $158 $160 $251 reversed $91 $-1 #
coedge $-1 $158 $246 $322 $323 reversed $91 $-1 #
coedge $-1 $166 $161 $158 $249 forward $156 $-1 #
edge $-1 $252 -26.054344693473183 $324 -16.525636232842317 $248 $325 forward 7 unknown #
coedge $-1 $160 $159 $255 $326 reversed $57 $-1 #
edge $-1 $327 -1.7244671030687178e-014 $252 11.632405225957482 $246 $328 forward 7 unknown #
vertex $-1 $162 $329 #
straight-curve $-1 27.400532855369178 -41.488782517974499 12.272721667829188 -1 0 0 I I #
coedge $-1 $322 $163 $166 $259 reversed $244 $-1 #
coedge $-1 $163 $322 $250 $326 forward $244 $-1 #
vertex $-1 $164 $330 #
straight-curve $-1 67.305156743698504 -51.017490978605366 62.8316413411859 0 0 1 I I #
straight-curve $-1 67.305156743698504 -51.017490978605352 5.6006480461441726 0 -0.81915203911291934 -0.57357644374324357 I I #
edge $-1 $324 42.296974677778209 $167 67.305156743698504 $254 $331 forward 7 unknown #
point $-1 67.305156743698504 -51.017490978605366 12.272721667829186 #
point $-1 67.305156743698504 -41.488782517974499 12.272721667829185 #
edge $-1 $332 1 $332 0 $170 $-1 forward 7 unknown #
vertex $-1 $171 $333 #
ellipse-curve $-1 54.801065710738357 -43.031449570897692 4.3356388246182966 0 -0.57357644374324357 0.81915203911291934 1.5 0 0 1 I I #
point $-1 56.301065710738357 -46.253136748289968 8.9366848569866999 #
plane-surface $-1 0 0 12.272721667829186 0 0 1 1 0 0 forward_v I I I I #
coedge $-1 $277 $276 $269 $334 forward $175 $-1 #
coedge $-1 $269 $177 $179 $273 reversed $106 $-1 #
coedge $-1 $177 $268 $267 $334 reversed $106 $-1 #
coedge $-1 $185 $180 $177 $271 forward $186 $-1 #
edge $-1 $274 15.73673707207638 $335 25.265445532707233 $270 $336 forward 7 unknown #
coedge $-1 $179 $178 $277 $337 reversed $66 $-1 #
edge $-1 $338 -102.03498195721075 $274 -90.402576731253248 $268 $339 forward 7 unknown #
vertex $-1 $181 $340 #
straight-curve $-1 27.400532855369178 41.488782517974514 12.272721667829195 1 0 0 I I #
coedge $-1 $267 $182 $185 $281 reversed $175 $-1 #
coedge $-1 $182 $267 $272 $337 forward $175 $-1 #
vertex $-1 $183 $341 #
straight-curve $-1 42.296974677778209 51.017490978605366 92.094072385397382 0 0 1 I I #
straight-curve $-1 42.296974677778209 -32.564672552493747 64.125510134567136 0 0.81915203911291934 -0.57357644374324357 I I #
edge $-1 $335 -67.305156743698504 $187 -42.296974677778209 $276 $342 forward 7 unknown #
point $-1 42.296974677778209 51.017490978605366 12.272721667829186 #
point $-1 42.296974677778209 41.488782517974514 12.272721667829188 #
edge $-1 $343 1 $343 0 $190 $-1 forward 7 unknown #
vertex $-1 $191 $344 #
ellipse-curve $-1 54.801065710738357 43.031449570897706 4.3356388246183037 0 0.57357644374324357 0.81915203911291934 1.5 0 0 1 I I #
point $-1 56.301065710738357 46.253136748289982 8.936684856986707 #
plane-surface $-1 73.28470717490157 0 0 -1 0 0 0 0 1 forward_v I I I I #
coedge $-1 $199 $197 $201 $293 reversed $121 $-1 #
edge $-1 $212 -12.272721667829186 $295 12.272721667829186 $211 $345 forward 7 unknown #
vertex $-1 $293 $346 #
straight-curve $-1 -73.28470717490157 -51.017490978605366 0 0 0 -1 I I #
edge $-1 $291 -51.017490978605366 $295 51.017490978605366 $289 $347 forward 7 unknown #
straight-curve $-1 0 -51.017490978605366 -12.272721667829186 -1 0 0 I I #
vertex $-1 $204 $348 #
straight-curve $-1 0 51.017490978605366 -12.272721667829186 1 0 0 I I #
point $-1 73.28470717490157 51.017490978605366 -12.272721667829186 #
point $-1 73.28470717490157 -51.017490978605366 -12.272721667829186 #
straight-curve $-1 -73.28470717490157 0 12.272721667829186 0 -1 0 I I #
point $-1 -73.28470717490157 51.017490978605366 12.272721667829186 #
point $-1 -73.28470717490157 -51.017490978605366 12.272721667829186 #
straight-curve $-1 73.28470717490157 -51.017490978605366 0 0 0 -1 I I #
straight-curve $-1 73.28470717490157 51.017490978605366 0 0 0 -1 I I #
plane-surface $-1 0 0 12.272721667829186 0 0 1 1 0 0 forward_v I I I I #
coedge $-1 $226 $223 $228 $312 reversed $140 $-1 #
coedge $-1 $223 $226 $318 $349 reversed $140 $-1 #
edge $-1 $320 -12.272721667829186 $314 12.272721667829186 $240 $350 forward 7 unknown #
edge $-1 $309 -4.2208132217612473 $238 4.2208132217612473 $225 $351 forward 7 unknown #
vertex $-1 $349 $352 #
vertex $-1 $312 $353 #
straight-curve $-1 -81.726333618424064 -31.569682349923184 0 0 0 -1 I I #
edge $-1 $310 -2.5488173534880936 $314 2.5488173534880936 $305 $354 forward 7 unknown #
straight-curve $-1 -77.505520396662817 -31.569682349923184 -12.272721667829186 -1 0 0 I I #
vertex $-1 $230 $355 #
straight-curve $-1 -77.505520396662817 -26.472047642946997 -12.272721667829186 1 0 0 I I #
point $-1 -73.28470717490157 -31.569682349923184 -12.272721667829186 #
straight-curve $-1 -73.28470717490157 -31.569682349923184 0 0 0 -1 I I #
coedge $-1 $236 $235 $306 $349 forward $237 $-1 #
point $-1 -73.28470717490157 -31.569682349923184 12.272721667829186 #
vertex $-1 $241 $356 #
straight-curve $-1 -77.505520396662817 -26.472047642946997 12.272721667829186 -1 0 0 I I #
coedge $-1 $255 $254 $247 $323 forward $244 $-1 #
edge $-1 $324 50.558919673356712 $327 57.230993295041735 $322 $357 forward 7 unknown #
vertex $-1 $259 $358 #
straight-curve $-1 42.296974677778209 -67.543127211447683 12.272721667829188 0 -1 0 I I #
edge $-1 $327 14.896441822409031 $256 39.904623888329326 $255 $359 forward 7 unknown #
vertex $-1 $326 $360 #
straight-curve $-1 42.296974677778209 -51.017490978605352 5.6006480461441726 0 0.81915203911291934 0.57357644374324357 I I #
point $-1 42.296974677778209 -41.488782517974499 12.272721667829185 #
point $-1 67.305156743698504 -51.017490978605366 5.6006480461441628 #
straight-curve $-1 0 -51.017490978605366 12.272721667829186 1 0 0 I I #
vertex $-1 $262 $361 #
point $-1 56.301065710738357 -43.031449570897692 4.3356388246182966 #
edge $-1 $335 79.821350717568194 $338 86.49342433925321 $267 $362 forward 7 unknown #
vertex $-1 $281 $363 #
straight-curve $-1 67.305156743698504 25.752045445898133 12.272721667829188 0 1 0 I I #
edge $-1 $338 -39.904623888329326 $278 -14.896441822409031 $277 $364 forward 7 unknown #
vertex $-1 $337 $365 #
straight-curve $-1 67.305156743698504 -32.564672552493747 64.125510134567136 0 -0.81915203911291934 0.57357644374324357 I I #
point $-1 67.305156743698504 41.488782517974514 12.272721667829188 #
point $-1 42.296974677778209 51.017490978605366 5.6006480461441726 #
straight-curve $-1 0 51.017490978605366 12.272721667829186 -1 0 0 I I #
vertex $-1 $284 $366 #
point $-1 56.301065710738357 43.031449570897706 4.3356388246183037 #
straight-curve $-1 -73.28470717490157 51.017490978605366 0 0 0 -1 I I #
point $-1 -73.28470717490157 -51.017490978605366 -12.272721667829186 #
straight-curve $-1 -73.28470717490157 0 -12.272721667829186 0 1 0 I I #
point $-1 -73.28470717490157 51.017490978605366 -12.272721667829186 #
edge $-1 $320 -2.5488173534880936 $309 2.5488173534880936 $306 $367 forward 7 unknown #
straight-curve $-1 -81.726333618424064 -26.472047642946997 0 0 0 -1 I I #
straight-curve $-1 -77.505520396662817 -31.569682349923184 12.272721667829186 1 0 0 I I #
point $-1 -81.726333618424064 -31.569682349923184 12.272721667829186 #
point $-1 -81.726333618424064 -31.569682349923184 -12.272721667829186 #
straight-curve $-1 -81.726333618424064 -29.02086499643509 -12.272721667829186 0 1 0 I I #
point $-1 -81.726333618424064 -26.472047642946997 -12.272721667829186 #
point $-1 -81.726333618424064 -26.472047642946997 12.272721667829186 #
straight-curve $-1 42.296974677778209 -51.017490978605366 62.8316413411859 0 0 -1 I I #
point $-1 42.296974677778209 -51.017490978605366 12.272721667829186 #
straight-curve $-1 27.400532855369178 -51.017490978605366 5.6006480461441654 1 0 0 I I #
point $-1 42.296974677778209 -51.017490978605366 5.6006480461441628 #
point $-1 54.801065710738357 -42.171084905282825 3.1069107659489177 #
straight-curve $-1 67.305156743698504 51.017490978605366 92.094072385397382 0 0 -1 I I #
point $-1 67.305156743698504 51.017490978605366 12.272721667829186 #
straight-curve $-1 27.400532855369178 51.017490978605366 5.6006480461441797 -1 0 0 I I #
point $-1 67.305156743698504 51.017490978605366 5.6006480461441726 #
point $-1 54.801065710738357 42.171084905282839 3.1069107659489248 #
straight-curve $-1 -81.726333618424064 -29.02086499643509 12.272721667829186 0 -1 0 I I #
End-of-ACIS-data 