500 0 17 0           
7 Unknown 11 ACIS 5.0 NT 24 Thu Mar 25 19:40:08 1999 
-1 9.9999999999999995e-007 1e-010 
body $-1 $17 $-1 $18 #
body $-1 $19 $-1 $20 #
body $-1 $21 $-1 $22 #
body $-1 $23 $-1 $24 #
body $-1 $25 $-1 $26 #
body $-1 $27 $-1 $28 #
body $-1 $29 $-1 $30 #
body $-1 $31 $-1 $32 #
body $-1 $33 $-1 $34 #
body $-1 $35 $-1 $36 #
body $-1 $37 $-1 $38 #
body $-1 $39 $-1 $40 #
body $-1 $41 $-1 $42 #
body $-1 $43 $-1 $44 #
body $-1 $45 $-1 $46 #
body $-1 $47 $-1 $48 #
body $-1 $49 $-1 $50 #
lump $-1 $-1 $51 $0 #
transform $-1 1 0 0 0 1 0 0 0 1 78.157902768028805 49.354424553190441 12.503010430420195 1 rotate no_reflect no_shear #
lump $-1 $-1 $52 $1 #
transform $-1 1 0 0 0 1 0 0 0 1 78.157902768028805 49.354424553190441 12.503010430420195 1 rotate no_reflect no_shear #
lump $-1 $-1 $53 $2 #
transform $-1 1 0 0 0 1 0 0 0 1 78.157902768028805 49.354424553190441 12.503010430420195 1 rotate no_reflect no_shear #
lump $-1 $-1 $54 $3 #
transform $-1 1 0 0 0 1 0 0 0 1 78.157902768028805 49.354424553190441 12.503010430420195 1 rotate no_reflect no_shear #
lump $-1 $-1 $55 $4 #
transform $-1 1 0 0 0 1 0 0 0 1 78.157902768028805 49.354424553190441 12.503010430420195 1 rotate no_reflect no_shear #
lump $-1 $-1 $56 $5 #
transform $-1 1 0 0 0 1 0 0 0 1 78.157902768028805 49.354424553190441 12.503010430420195 1 rotate no_reflect no_shear #
lump $-1 $-1 $57 $6 #
transform $-1 1 0 0 0 1 0 0 0 1 78.157902768028805 49.354424553190441 12.503010430420195 1 rotate no_reflect no_shear #
lump $-1 $-1 $58 $7 #
transform $-1 1 0 0 0 1 0 0 0 1 78.157902768028805 49.354424553190441 12.503010430420195 1 rotate no_reflect no_shear #
lump $-1 $-1 $59 $8 #
transform $-1 1 0 0 0 1 0 0 0 1 78.157902768028805 49.354424553190441 12.503010430420195 1 rotate no_reflect no_shear #
lump $-1 $-1 $60 $9 #
transform $-1 1 0 0 0 1 0 0 0 1 78.157902768028805 49.354424553190441 12.503010430420195 1 rotate no_reflect no_shear #
lump $-1 $-1 $61 $10 #
transform $-1 1 0 0 0 1 0 0 0 1 78.157902768028805 49.354424553190441 12.503010430420195 1 rotate no_reflect no_shear #
lump $-1 $-1 $62 $11 #
transform $-1 1 0 0 0 1 0 0 0 1 78.157902768028805 49.354424553190441 12.503010430420195 1 rotate no_reflect no_shear #
lump $-1 $-1 $63 $12 #
transform $-1 1 0 0 0 1 0 0 0 1 78.157902768028805 49.354424553190441 12.503010430420195 1 rotate no_reflect no_shear #
lump $-1 $-1 $64 $13 #
transform $-1 1 0 0 0 1 0 0 0 1 78.157902768028805 49.354424553190441 12.503010430420195 1 rotate no_reflect no_shear #
lump $-1 $-1 $65 $14 #
transform $-1 1 0 0 0 1 0 0 0 1 78.157902768028805 49.354424553190441 12.503010430420195 1 rotate no_reflect no_shear #
lump $-1 $-1 $66 $15 #
transform $-1 1 0 0 0 1 0 0 0 1 78.157902768028805 49.354424553190441 12.503010430420195 1 rotate no_reflect no_shear #
lump $-1 $-1 $67 $16 #
transform $-1 1 0 0 0 1 0 0 0 1 78.157902768028805 49.354424553190441 12.503010430420195 1 rotate no_reflect no_shear #
shell $-1 $-1 $-1 $68 $-1 $17 #
shell $-1 $-1 $-1 $69 $-1 $19 #
shell $-1 $-1 $-1 $70 $-1 $21 #
shell $-1 $-1 $-1 $71 $-1 $23 #
shell $-1 $-1 $-1 $72 $-1 $25 #
shell $-1 $-1 $-1 $73 $-1 $27 #
shell $-1 $-1 $-1 $74 $-1 $29 #
shell $-1 $-1 $-1 $75 $-1 $31 #
shell $-1 $-1 $-1 $76 $-1 $33 #
shell $-1 $-1 $-1 $77 $-1 $35 #
shell $-1 $-1 $-1 $78 $-1 $37 #
shell $-1 $-1 $-1 $79 $-1 $39 #
shell $-1 $-1 $-1 $80 $-1 $41 #
shell $-1 $-1 $-1 $81 $-1 $43 #
shell $-1 $-1 $-1 $82 $-1 $45 #
shell $-1 $-1 $-1 $83 $-1 $47 #
shell $-1 $-1 $-1 $84 $-1 $49 #
face $-1 $85 $86 $51 $-1 $87 forward single #
face $-1 $88 $89 $52 $-1 $90 forward single #
face $-1 $91 $92 $53 $-1 $93 reversed single #
face $-1 $94 $95 $54 $-1 $96 forward single #
face $-1 $97 $98 $55 $-1 $99 forward single #
face $-1 $100 $101 $56 $-1 $102 reversed single #
face $-1 $103 $104 $57 $-1 $105 forward single #
face $-1 $106 $107 $58 $-1 $108 forward single #
face $-1 $109 $110 $59 $-1 $111 reversed single #
face $-1 $112 $113 $60 $-1 $114 forward single #
face $-1 $115 $116 $61 $-1 $117 forward single #
face $-1 $118 $119 $62 $-1 $120 reversed single #
face $-1 $121 $122 $63 $-1 $123 forward single #
face $-1 $124 $125 $64 $-1 $126 forward single #
face $-1 $127 $128 $65 $-1 $129 reversed single #
face $-1 $130 $131 $66 $-1 $132 forward single #
face $-1 $133 $134 $67 $-1 $135 forward single #
face $-1 $136 $137 $51 $-1 $138 reversed single #
loop $-1 $-1 $139 $68 #
plane-surface $-1 0 0 12.503010430420195 0 0 1 1 0 0 forward_v I I I I #
face $-1 $140 $141 $52 $-1 $142 reversed single #
loop $-1 $-1 $143 $69 #
plane-surface $-1 0 -49.354424553190441 0 0 1 0 0 0 1 forward_v I I I I #
face $-1 $144 $145 $53 $-1 $146 reversed single #
loop $-1 $-1 $147 $70 #
plane-surface $-1 105.09882197789005 35.576695694759579 226.60540392210615 0 1 0 0.78801076186113728 0 0.61566146476048833 forward_v I I I I #
face $-1 $148 $149 $54 $-1 $150 forward single #
loop $-1 $151 $152 $71 #
cone-surface $-1 73.938424017494924 39.513189654311262 8.1712908371027968 -0.78801076186113728 0 -0.61566146476048833 0.9234921971407325 0 -1.182016142791706 1 I I 0 1 1.5 forward I I I I #
face $-1 $153 $154 $55 $-1 $155 forward single #
loop $-1 $156 $157 $72 #
cone-surface $-1 73.938424017494924 45.417930593638772 8.1712908371027968 -0.78801076186113728 0 -0.61566146476048833 0.9234921971407325 0 -1.182016142791706 1 I I 0 1 1.5 forward I I I I #
face $-1 $158 $159 $56 $-1 $160 reversed single #
loop $-1 $-1 $161 $73 #
plane-surface $-1 -212.14670108116314 -33.138031328656623 81.418665109164579 0 1 0 -0.85716730853699208 0 0.51503806187062418 forward_v I I I I #
face $-1 $162 $163 $57 $-1 $164 forward single #
loop $-1 $165 $166 $74 #
cone-surface $-1 -72.976878898869685 -28.93992021575793 5.6861885875043834 0.85716730853699208 0 -0.51503806187062418 0.77255709280593621 0 1.2857509628054882 1 I I 0 1 1.5 forward I I I I #
face $-1 $167 $168 $58 $-1 $169 forward single #
loop $-1 $170 $171 $75 #
cone-surface $-1 -72.976878898869685 -22.642753546409892 5.6861885875043834 0.85716730853699208 0 -0.51503806187062418 0.77255709280593621 0 1.2857509628054882 1 I I 0 1 1.5 forward I I I I #
face $-1 $172 $173 $59 $-1 $174 reversed single #
loop $-1 $-1 $175 $76 #
plane-surface $-1 -212.14670108116314 -11.647140688282828 81.418665109164579 0 1 0 -0.85716730853699208 0 0.51503806187062418 forward_v I I I I #
face $-1 $176 $177 $60 $-1 $178 forward single #
loop $-1 $179 $180 $77 #
cone-surface $-1 -72.976878898869685 -7.4490295753841309 5.6861885875043834 0.85716730853699208 0 -0.51503806187062418 0.77255709280593621 0 1.2857509628054882 1 I I 0 1 1.5 forward I I I I #
face $-1 $181 $182 $61 $-1 $183 forward single #
loop $-1 $184 $185 $78 #
cone-surface $-1 -72.976878898869685 -1.1518629060360936 5.6861885875043834 0.85716730853699208 0 -0.51503806187062418 0.77255709280593621 0 1.2857509628054882 1 I I 0 1 1.5 forward I I I I #
face $-1 $186 $187 $62 $-1 $188 reversed single #
loop $-1 $-1 $189 $79 #
plane-surface $-1 -212.14670108116314 9.8437499520909775 81.418665109164579 0 1 0 -0.85716730853699208 0 0.51503806187062418 forward_v I I I I #
face $-1 $190 $191 $63 $-1 $192 forward single #
loop $-1 $193 $194 $80 #
cone-surface $-1 -72.976878898869685 14.041861064989668 5.6861885875043834 0.85716730853699208 0 -0.51503806187062418 0.77255709280593621 0 1.2857509628054882 1 I I 0 1 1.5 forward I I I I #
face $-1 $195 $196 $64 $-1 $197 forward single #
loop $-1 $198 $199 $81 #
cone-surface $-1 -72.976878898869685 20.339027734337705 5.6861885875043834 0.85716730853699208 0 -0.51503806187062418 0.77255709280593621 0 1.2857509628054882 1 I I 0 1 1.5 forward I I I I #
face $-1 $200 $201 $65 $-1 $202 reversed single #
loop $-1 $-1 $203 $82 #
plane-surface $-1 -212.14670108116314 31.334640592464783 81.418665109164579 0 1 0 -0.85716730853699208 0 0.51503806187062418 forward_v I I I I #
face $-1 $204 $205 $66 $-1 $206 forward single #
loop $-1 $207 $208 $83 #
cone-surface $-1 -72.976878898869685 35.532751705363466 5.6861885875043834 0.85716730853699208 0 -0.51503806187062418 0.77255709280593621 0 1.2857509628054882 1 I I 0 1 1.5 forward I I I I #
face $-1 $209 $210 $67 $-1 $211 forward single #
loop $-1 $212 $213 $84 #
cone-surface $-1 -72.976878898869685 41.829918374711511 5.6861885875043834 0.85716730853699208 0 -0.51503806187062418 0.77255709280593621 0 1.2857509628054882 1 I I 0 1 1.5 forward I I I I #
face $-1 $214 $215 $51 $-1 $216 reversed single #
loop $-1 $-1 $217 $85 #
plane-surface $-1 0 0 -12.503010430420195 0 0 1 1 0 0 forward_v I I I I #
coedge $-1 $218 $219 $220 $221 forward $86 $-1 #
face $-1 $222 $223 $52 $-1 $224 reversed single #
loop $-1 $-1 $225 $88 #
plane-surface $-1 0 0 -12.503010430420195 0 0 1 1 0 0 forward_v I I I I #
coedge $-1 $226 $227 $228 $229 forward $89 $-1 #
face $-1 $230 $231 $53 $-1 $232 forward single #
loop $-1 $-1 $233 $91 #
plane-surface $-1 -18.079715033516081 42.46556012397501 130.36778612056128 0.78801076186113728 0 0.61566146476048833 0.61566146476048833 0 -0.78801076186113728 forward_v I I I I #
coedge $-1 $234 $235 $236 $237 reversed $92 $-1 #
face $-1 $-1 $238 $54 $-1 $239 forward single #
loop $-1 $240 $241 $94 #
cone-surface $-1 71.203719809695372 39.513189654311262 6.03470580584756 -0.78801076186113728 0 -0.61566146476048833 0.46174609857036625 0 -0.59100807139585299 1 I I -0.70710678118654757 0.70710678118654757 0.75 forward I I I I #
loop $-1 $-1 $242 $71 #
coedge $-1 $152 $152 $243 $244 reversed $95 $-1 #
face $-1 $-1 $245 $55 $-1 $246 forward single #
loop $-1 $247 $248 $97 #
cone-surface $-1 71.203719809695372 45.417930593638772 6.03470580584756 -0.78801076186113728 0 -0.61566146476048833 0.46174609857036625 0 -0.59100807139585299 1 I I -0.70710678118654757 0.70710678118654757 0.75 forward I I I I #
loop $-1 $-1 $249 $72 #
coedge $-1 $157 $157 $250 $251 reversed $98 $-1 #
face $-1 $252 $253 $56 $-1 $254 reversed single #
loop $-1 $-1 $255 $100 #
plane-surface $-1 -78.157902768028805 -25.791336881083911 0.91007558612808737 -0.85716730853699208 0 0.51503806187062418 0.51503806187062418 0 0.85716730853699208 forward_v I I I I #
coedge $-1 $256 $257 $258 $259 reversed $101 $-1 #
face $-1 $-1 $260 $57 $-1 $261 forward single #
loop $-1 $262 $263 $103 #
cone-surface $-1 -70.635848431739433 -28.93992021575793 4.2795556203316618 0.85716730853699208 0 -0.51503806187062418 0.3862785464029681 0 0.64287548140274409 1 I I -0.70710678118654724 0.70710678118654768 0.75 forward I I I I #
loop $-1 $-1 $264 $74 #
coedge $-1 $166 $166 $265 $266 reversed $104 $-1 #
face $-1 $-1 $267 $58 $-1 $268 forward single #
loop $-1 $269 $270 $106 #
cone-surface $-1 -70.635848431739433 -22.642753546409892 4.2795556203316618 0.85716730853699208 0 -0.51503806187062418 0.3862785464029681 0 0.64287548140274409 1 I I -0.70710678118654724 0.70710678118654768 0.75 forward I I I I #
loop $-1 $-1 $271 $75 #
coedge $-1 $171 $171 $272 $273 reversed $107 $-1 #
face $-1 $274 $275 $59 $-1 $276 reversed single #
loop $-1 $-1 $277 $109 #
plane-surface $-1 -78.157902768028805 -4.3004462407101158 0.91007558612808737 -0.85716730853699208 0 0.51503806187062418 0.51503806187062418 0 0.85716730853699208 forward_v I I I I #
coedge $-1 $278 $279 $280 $281 reversed $110 $-1 #
face $-1 $-1 $282 $60 $-1 $283 forward single #
loop $-1 $284 $285 $112 #
cone-surface $-1 -70.635848431739433 -7.4490295753841309 4.2795556203316618 0.85716730853699208 0 -0.51503806187062418 0.3862785464029681 0 0.64287548140274409 1 I I -0.70710678118654724 0.70710678118654768 0.75 forward I I I I #
loop $-1 $-1 $286 $77 #
coedge $-1 $180 $180 $287 $288 reversed $113 $-1 #
face $-1 $-1 $289 $61 $-1 $290 forward single #
loop $-1 $291 $292 $115 #
cone-surface $-1 -70.635848431739433 -1.1518629060360936 4.2795556203316618 0.85716730853699208 0 -0.51503806187062418 0.3862785464029681 0 0.64287548140274409 1 I I -0.70710678118654724 0.70710678118654768 0.75 forward I I I I #
loop $-1 $-1 $293 $78 #
coedge $-1 $185 $185 $294 $295 reversed $116 $-1 #
face $-1 $296 $297 $62 $-1 $298 reversed single #
loop $-1 $-1 $299 $118 #
plane-surface $-1 -78.157902768028805 17.19044439966369 0.91007558612808737 -0.85716730853699208 0 0.51503806187062418 0.51503806187062418 0 0.85716730853699208 forward_v I I I I #
coedge $-1 $300 $301 $302 $303 reversed $119 $-1 #
face $-1 $-1 $304 $63 $-1 $305 forward single #
loop $-1 $306 $307 $121 #
cone-surface $-1 -70.635848431739433 14.041861064989668 4.2795556203316618 0.85716730853699208 0 -0.51503806187062418 0.3862785464029681 0 0.64287548140274409 1 I I -0.70710678118654724 0.70710678118654768 0.75 forward I I I I #
loop $-1 $-1 $308 $80 #
coedge $-1 $194 $194 $309 $310 reversed $122 $-1 #
face $-1 $-1 $311 $64 $-1 $312 forward single #
loop $-1 $313 $314 $124 #
cone-surface $-1 -70.635848431739433 20.339027734337705 4.2795556203316618 0.85716730853699208 0 -0.51503806187062418 0.3862785464029681 0 0.64287548140274409 1 I I -0.70710678118654724 0.70710678118654768 0.75 forward I I I I #
loop $-1 $-1 $315 $81 #
coedge $-1 $199 $199 $316 $317 reversed $125 $-1 #
face $-1 $318 $319 $65 $-1 $320 reversed single #
loop $-1 $-1 $321 $127 #
plane-surface $-1 -78.157902768028805 38.681335040037496 0.91007558612808737 -0.85716730853699208 0 0.51503806187062418 0.51503806187062418 0 0.85716730853699208 forward_v I I I I #
coedge $-1 $322 $323 $324 $325 reversed $128 $-1 #
face $-1 $-1 $326 $66 $-1 $327 forward single #
loop $-1 $328 $329 $130 #
cone-surface $-1 -70.635848431739433 35.532751705363466 4.2795556203316618 0.85716730853699208 0 -0.51503806187062418 0.3862785464029681 0 0.64287548140274409 1 I I -0.70710678118654724 0.70710678118654768 0.75 forward I I I I #
loop $-1 $-1 $330 $83 #
coedge $-1 $208 $208 $331 $332 reversed $131 $-1 #
face $-1 $-1 $333 $67 $-1 $334 forward single #
loop $-1 $335 $336 $133 #
cone-surface $-1 -70.635848431739433 41.829918374711511 4.2795556203316618 0.85716730853699208 0 -0.51503806187062418 0.3862785464029681 0 0.64287548140274409 1 I I -0.70710678118654724 0.70710678118654768 0.75 forward I I I I #
loop $-1 $-1 $337 $84 #
coedge $-1 $213 $213 $338 $339 reversed $134 $-1 #
face $-1 $340 $341 $51 $-1 $342 reversed single #
loop $-1 $-1 $343 $136 #
plane-surface $-1 0 -49.354424553190441 0 0 1 0 0 0 1 forward_v I I I I #
coedge $-1 $344 $345 $346 $347 forward $137 $-1 #
coedge $-1 $348 $139 $349 $350 forward $86 $-1 #
coedge $-1 $139 $348 $351 $352 forward $86 $-1 #
coedge $-1 $353 $354 $139 $221 reversed $355 $-1 #
edge $-1 $356 -49.354424553190441 $357 49.354424553190441 $220 $358 forward 7 unknown #
face $-1 $359 $360 $52 $-1 $361 forward single #
loop $-1 $-1 $362 $140 #
plane-surface $-1 78.157902768028805 0 0 -1 0 0 0 0 1 forward_v I I I I #
coedge $-1 $363 $364 $365 $366 forward $141 $-1 #
coedge $-1 $365 $143 $362 $367 reversed $89 $-1 #
coedge $-1 $143 $365 $368 $369 reversed $89 $-1 #
coedge $-1 $370 $371 $143 $229 reversed $360 $-1 #
edge $-1 $372 -78.157902768028805 $373 78.157902768028805 $228 $374 forward 7 unknown #
face $-1 $375 $376 $53 $-1 $377 reversed single #
loop $-1 $-1 $378 $144 #
plane-surface $-1 0 0 12.503010430420195 0 0 1 1 0 0 forward_v I I I I #
coedge $-1 $379 $380 $381 $382 reversed $145 $-1 #
coedge $-1 $235 $147 $383 $384 reversed $92 $-1 #
coedge $-1 $147 $234 $379 $385 reversed $92 $-1 #
coedge $-1 $381 $386 $147 $237 forward $387 $-1 #
edge $-1 $388 100.79969153063288 $389 106.11345285189793 $236 $390 forward 7 unknown #
loop $-1 $-1 $243 $148 #
plane-surface $-1 -18.079715033516081 42.46556012397501 130.36778612056128 0.78801076186113728 0 0.61566146476048833 0.61566146476048833 0 -0.78801076186113728 forward_v I I I I #
loop $-1 $-1 $391 $94 #
coedge $-1 $241 $241 $242 $392 reversed $149 $-1 #
coedge $-1 $242 $242 $241 $392 forward $151 $-1 #
coedge $-1 $243 $243 $152 $244 forward $238 $-1 #
edge $-1 $393 0 $393 6.2831853071796004 $243 $394 forward 7 unknown #
loop $-1 $-1 $250 $153 #
plane-surface $-1 -18.079715033516081 42.46556012397501 130.36778612056128 0.78801076186113728 0 0.61566146476048833 0.61566146476048833 0 -0.78801076186113728 forward_v I I I I #
loop $-1 $-1 $395 $97 #
coedge $-1 $248 $248 $249 $396 reversed $154 $-1 #
coedge $-1 $249 $249 $248 $396 forward $156 $-1 #
coedge $-1 $250 $250 $157 $251 forward $245 $-1 #
edge $-1 $397 0 $397 6.2831853071796004 $250 $398 forward 7 unknown #
face $-1 $399 $400 $56 $-1 $401 reversed single #
loop $-1 $-1 $402 $158 #
plane-surface $-1 -212.14670108116314 -18.444642433511198 81.418665109164579 0 -1 0 0.85716730853699208 0 -0.51503806187062418 forward_v I I I I #
coedge $-1 $403 $404 $405 $406 reversed $159 $-1 #
coedge $-1 $257 $161 $407 $408 reversed $101 $-1 #
coedge $-1 $161 $256 $403 $409 reversed $101 $-1 #
coedge $-1 $405 $410 $161 $259 forward $411 $-1 #
edge $-1 $412 27.915447772552767 $413 34.881185539415995 $258 $414 forward 7 unknown #
loop $-1 $-1 $265 $162 #
plane-surface $-1 -78.157902768028805 -25.791336881083911 0.91007558612808737 -0.85716730853699208 0 0.51503806187062418 0.51503806187062418 0 0.85716730853699208 forward_v I I I I #
loop $-1 $-1 $415 $103 #
coedge $-1 $263 $263 $264 $416 reversed $163 $-1 #
coedge $-1 $264 $264 $263 $416 forward $165 $-1 #
coedge $-1 $265 $265 $166 $266 forward $260 $-1 #
edge $-1 $417 0 $417 6.2831853071796004 $265 $418 forward 7 unknown #
loop $-1 $-1 $272 $167 #
plane-surface $-1 -78.157902768028805 -25.791336881083911 0.91007558612808737 -0.85716730853699208 0 0.51503806187062418 0.51503806187062418 0 0.85716730853699208 forward_v I I I I #
loop $-1 $-1 $419 $106 #
coedge $-1 $270 $270 $271 $420 reversed $168 $-1 #
coedge $-1 $271 $271 $270 $420 forward $170 $-1 #
coedge $-1 $272 $272 $171 $273 forward $267 $-1 #
edge $-1 $421 0 $421 6.2831853071796004 $272 $422 forward 7 unknown #
face $-1 $423 $424 $59 $-1 $425 forward single #
loop $-1 $-1 $426 $172 #
plane-surface $-1 -212.14670108116314 3.0462482068625967 81.418665109164579 0 -1 0 0.85716730853699208 0 -0.51503806187062418 forward_v I I I I #
coedge $-1 $427 $428 $429 $430 reversed $173 $-1 #
coedge $-1 $279 $175 $431 $432 reversed $110 $-1 #
coedge $-1 $175 $278 $427 $433 reversed $110 $-1 #
coedge $-1 $429 $434 $175 $281 forward $424 $-1 #
edge $-1 $435 27.915447772552767 $436 34.881185539415995 $280 $437 forward 7 unknown #
loop $-1 $-1 $287 $176 #
plane-surface $-1 -78.157902768028805 -4.3004462407101158 0.91007558612808737 -0.85716730853699208 0 0.51503806187062418 0.51503806187062418 0 0.85716730853699208 forward_v I I I I #
loop $-1 $-1 $438 $112 #
coedge $-1 $285 $285 $286 $439 reversed $177 $-1 #
coedge $-1 $286 $286 $285 $439 forward $179 $-1 #
coedge $-1 $287 $287 $180 $288 forward $282 $-1 #
edge $-1 $440 0 $440 6.2831853071796004 $287 $441 forward 7 unknown #
loop $-1 $-1 $294 $181 #
plane-surface $-1 -78.157902768028805 -4.3004462407101158 0.91007558612808737 -0.85716730853699208 0 0.51503806187062418 0.51503806187062418 0 0.85716730853699208 forward_v I I I I #
loop $-1 $-1 $442 $115 #
coedge $-1 $292 $292 $293 $443 reversed $182 $-1 #
coedge $-1 $293 $293 $292 $443 forward $184 $-1 #
coedge $-1 $294 $294 $185 $295 forward $289 $-1 #
edge $-1 $444 0 $444 6.2831853071796004 $294 $445 forward 7 unknown #
face $-1 $446 $447 $62 $-1 $448 forward single #
loop $-1 $-1 $449 $186 #
plane-surface $-1 -212.14670108116314 24.537138847236402 81.418665109164579 0 -1 0 0.85716730853699208 0 -0.51503806187062418 forward_v I I I I #
coedge $-1 $450 $451 $452 $453 reversed $187 $-1 #
coedge $-1 $301 $189 $454 $455 reversed $119 $-1 #
coedge $-1 $189 $300 $450 $456 reversed $119 $-1 #
coedge $-1 $452 $457 $189 $303 forward $447 $-1 #
edge $-1 $458 27.915447772552767 $459 34.881185539415995 $302 $460 forward 7 unknown #
loop $-1 $-1 $309 $190 #
plane-surface $-1 -78.157902768028805 17.19044439966369 0.91007558612808737 -0.85716730853699208 0 0.51503806187062418 0.51503806187062418 0 0.85716730853699208 forward_v I I I I #
loop $-1 $-1 $461 $121 #
coedge $-1 $307 $307 $308 $462 reversed $191 $-1 #
coedge $-1 $308 $308 $307 $462 forward $193 $-1 #
coedge $-1 $309 $309 $194 $310 forward $304 $-1 #
edge $-1 $463 0 $463 6.2831853071796004 $309 $464 forward 7 unknown #
loop $-1 $-1 $316 $195 #
plane-surface $-1 -78.157902768028805 17.19044439966369 0.91007558612808737 -0.85716730853699208 0 0.51503806187062418 0.51503806187062418 0 0.85716730853699208 forward_v I I I I #
loop $-1 $-1 $465 $124 #
coedge $-1 $314 $314 $315 $466 reversed $196 $-1 #
coedge $-1 $315 $315 $314 $466 forward $198 $-1 #
coedge $-1 $316 $316 $199 $317 forward $311 $-1 #
edge $-1 $467 0 $467 6.2831853071796004 $316 $468 forward 7 unknown #
face $-1 $469 $470 $65 $-1 $471 forward single #
loop $-1 $-1 $472 $200 #
plane-surface $-1 -212.14670108116314 46.028029487610212 81.418665109164579 0 -1 0 0.85716730853699208 0 -0.51503806187062418 forward_v I I I I #
coedge $-1 $473 $474 $475 $476 reversed $201 $-1 #
coedge $-1 $323 $203 $477 $478 reversed $128 $-1 #
coedge $-1 $203 $322 $473 $479 reversed $128 $-1 #
coedge $-1 $475 $480 $203 $325 forward $470 $-1 #
edge $-1 $481 27.915447772552767 $482 34.881185539415995 $324 $483 forward 7 unknown #
loop $-1 $-1 $331 $204 #
plane-surface $-1 -78.157902768028805 38.681335040037496 0.91007558612808737 -0.85716730853699208 0 0.51503806187062418 0.51503806187062418 0 0.85716730853699208 forward_v I I I I #
loop $-1 $-1 $484 $130 #
coedge $-1 $329 $329 $330 $485 reversed $205 $-1 #
coedge $-1 $330 $330 $329 $485 forward $207 $-1 #
coedge $-1 $331 $331 $208 $332 forward $326 $-1 #
edge $-1 $486 0 $486 6.2831853071796004 $331 $487 forward 7 unknown #
loop $-1 $-1 $338 $209 #
plane-surface $-1 -78.157902768028805 38.681335040037496 0.91007558612808737 -0.85716730853699208 0 0.51503806187062418 0.51503806187062418 0 0.85716730853699208 forward_v I I I I #
loop $-1 $-1 $488 $133 #
coedge $-1 $336 $336 $337 $489 reversed $210 $-1 #
coedge $-1 $337 $337 $336 $489 forward $212 $-1 #
coedge $-1 $338 $338 $213 $339 forward $333 $-1 #
edge $-1 $490 0 $490 6.2831853071796004 $338 $491 forward 7 unknown #
face $-1 $492 $493 $51 $-1 $494 reversed single #
loop $-1 $-1 $495 $214 #
plane-surface $-1 -78.157902768028805 0 0 1 0 0 0 0 -1 forward_v I I I I #
coedge $-1 $496 $351 $497 $498 forward $215 $-1 #
coedge $-1 $499 $217 $496 $500 forward $137 $-1 #
coedge $-1 $217 $499 $501 $502 forward $137 $-1 #
coedge $-1 $354 $353 $217 $347 reversed $355 $-1 #
edge $-1 $503 -49.354424553190441 $504 49.354424553190441 $346 $505 forward 7 unknown #
coedge $-1 $219 $218 $506 $507 forward $86 $-1 #
coedge $-1 $508 $509 $218 $350 reversed $493 $-1 #
edge $-1 $357 -78.157902768028805 $510 78.157902768028805 $349 $511 forward 7 unknown #
coedge $-1 $343 $512 $219 $352 reversed $215 $-1 #
edge $-1 $513 -78.157902768028805 $356 78.157902768028805 $351 $514 forward 7 unknown #
coedge $-1 $346 $220 $512 $515 forward $355 $-1 #
coedge $-1 $220 $346 $508 $516 reversed $355 $-1 #
loop $-1 $-1 $353 $492 #
vertex $-1 $221 $517 #
vertex $-1 $221 $518 #
straight-curve $-1 78.157902768028805 0 12.503010430420195 0 1 0 I I #
face $-1 $519 $520 $52 $-1 $521 reversed single #
loop $-1 $-1 $371 $222 #
plane-surface $-1 0 -55.727067825633284 -9.5030104304201952 0 0 1 1 0 0 forward_v I I I I #
coedge $-1 $522 $523 $226 $367 forward $223 $-1 #
coedge $-1 $524 $225 $523 $525 forward $141 $-1 #
coedge $-1 $225 $524 $526 $527 forward $141 $-1 #
coedge $-1 $227 $226 $225 $366 reversed $89 $-1 #
edge $-1 $528 -78.157902768028805 $529 78.157902768028805 $225 $530 forward 7 unknown #
edge $-1 $529 -12.503010430420195 $373 -9.5030104304201952 $362 $531 forward 7 unknown #
coedge $-1 $526 $532 $227 $369 forward $533 $-1 #
edge $-1 $372 9.5030104304201952 $528 12.503010430420195 $368 $534 forward 7 unknown #
coedge $-1 $535 $228 $532 $536 forward $360 $-1 #
coedge $-1 $228 $535 $522 $537 forward $360 $-1 #
vertex $-1 $369 $538 #
vertex $-1 $537 $539 #
straight-curve $-1 0 -49.354424553190441 -9.5030104304201952 1 0 0 I I #
face $-1 $-1 $387 $53 $-1 $540 reversed single #
loop $-1 $-1 $541 $230 #
plane-surface $-1 0 49.354424553190441 0 0 -1 0 0 0 -1 forward_v I I I I #
coedge $-1 $383 $542 $543 $544 forward $231 $-1 #
coedge $-1 $543 $233 $235 $385 forward $145 $-1 #
coedge $-1 $233 $543 $541 $545 reversed $145 $-1 #
coedge $-1 $546 $236 $233 $382 forward $387 $-1 #
edge $-1 $389 14.343915632772074 $547 28.121644491202936 $381 $548 forward 7 unknown #
coedge $-1 $549 $378 $234 $384 forward $231 $-1 #
edge $-1 $550 21.456926550823383 $388 25.608491779083778 $383 $551 forward 7 unknown #
edge $-1 $389 -156.31580553605761 $550 -149.57254569945979 $235 $552 forward 7 unknown #
coedge $-1 $236 $546 $549 $553 reversed $387 $-1 #
loop $-1 $-1 $381 $375 #
vertex $-1 $553 $554 #
vertex $-1 $237 $555 #
straight-curve $-1 78.157902768028805 35.576695694759579 113.30270196105307 0 0 -1 I I #
coedge $-1 $391 $391 $-1 $556 reversed $240 $-1 #
edge $-1 $557 0 $557 6.2831853071796004 $241 $558 forward 7 unknown #
vertex $-1 $244 $559 #
ellipse-curve $-1 76.082120153898614 39.513189654311262 9.8461297697876642 0.78801076186113728 0 0.61566146476048833 0.9234921971407325 0 -1.182016142791706 1 I I #
coedge $-1 $395 $395 $-1 $560 reversed $247 $-1 #
edge $-1 $561 0 $561 6.2831853071796004 $248 $562 forward 7 unknown #
vertex $-1 $251 $563 #
ellipse-curve $-1 76.082120153898614 45.417930593638772 9.8461297697876642 0.78801076186113728 0 0.61566146476048833 0.9234921971407325 0 -1.182016142791706 1 I I #
face $-1 $-1 $411 $56 $-1 $564 forward single #
loop $-1 $-1 $565 $252 #
plane-surface $-1 -78.157902768028805 0 0 1 0 0 0 0 -1 forward_v I I I I #
coedge $-1 $566 $567 $568 $569 reversed $253 $-1 #
coedge $-1 $570 $255 $257 $409 forward $159 $-1 #
coedge $-1 $255 $570 $566 $571 forward $159 $-1 #
coedge $-1 $568 $258 $255 $406 forward $411 $-1 #
edge $-1 $413 -20.24236288811467 $572 -5.548973992969243 $405 $573 forward 7 unknown #
coedge $-1 $574 $575 $256 $408 forward $400 $-1 #
edge $-1 $576 -39.799256968454202 $412 -28.206322124162092 $407 $577 forward 7 unknown #
edge $-1 $413 -13.52470483747083 $576 0 $257 $578 forward 7 unknown #
coedge $-1 $258 $568 $574 $579 forward $411 $-1 #
loop $-1 $-1 $568 $399 #
vertex $-1 $408 $580 #
vertex $-1 $259 $581 #
straight-curve $-1 -106.07335054058157 -33.138031328656623 12.503010430420197 1 0 0 I I #
coedge $-1 $415 $415 $-1 $582 reversed $262 $-1 #
edge $-1 $583 0 $583 6.2831853071796004 $263 $584 forward 7 unknown #
vertex $-1 $266 $585 #
ellipse-curve $-1 -74.675033884597198 -28.93992021575793 6.7065430082741377 -0.85716730853699208 0 0.51503806187062418 0.77255709280593621 0 1.2857509628054882 1 I I #
coedge $-1 $419 $419 $-1 $586 reversed $269 $-1 #
edge $-1 $587 0 $587 6.2831853071796004 $270 $588 forward 7 unknown #
vertex $-1 $273 $589 #
ellipse-curve $-1 -74.675033884597198 -22.642753546409892 6.7065430082741377 -0.85716730853699208 0 0.51503806187062418 0.77255709280593621 0 1.2857509628054882 1 I I #
face $-1 $-1 $590 $59 $-1 $591 reversed single #
loop $-1 $-1 $280 $274 #
plane-surface $-1 0 0 12.503010430420195 0 0 1 1 0 0 forward_v I I I I #
coedge $-1 $592 $593 $594 $595 reversed $275 $-1 #
coedge $-1 $596 $277 $279 $433 forward $173 $-1 #
coedge $-1 $277 $596 $592 $597 forward $173 $-1 #
coedge $-1 $594 $280 $277 $430 forward $424 $-1 #
edge $-1 $436 -9.4969175679277704 $598 5.1964713272176546 $429 $599 forward 7 unknown #
coedge $-1 $600 $601 $278 $432 forward $590 $-1 #
edge $-1 $602 -39.799256968454202 $435 -28.206322124162092 $431 $603 forward 7 unknown #
edge $-1 $436 -13.52470483747083 $602 0 $279 $604 forward 7 unknown #
coedge $-1 $280 $594 $600 $605 forward $424 $-1 #
vertex $-1 $432 $606 #
vertex $-1 $281 $607 #
straight-curve $-1 -106.07335054058157 -11.647140688282828 12.503010430420197 1 0 0 I I #
coedge $-1 $438 $438 $-1 $608 reversed $284 $-1 #
edge $-1 $609 0 $609 6.2831853071796004 $285 $610 forward 7 unknown #
vertex $-1 $288 $611 #
ellipse-curve $-1 -74.675033884597198 -7.4490295753841309 6.7065430082741377 -0.85716730853699208 0 0.51503806187062418 0.77255709280593621 0 1.2857509628054882 1 I I #
coedge $-1 $442 $442 $-1 $612 reversed $291 $-1 #
edge $-1 $613 0 $613 6.2831853071796004 $292 $614 forward 7 unknown #
vertex $-1 $295 $615 #
ellipse-curve $-1 -74.675033884597198 -1.1518629060360936 6.7065430082741377 -0.85716730853699208 0 0.51503806187062418 0.77255709280593621 0 1.2857509628054882 1 I I #
face $-1 $-1 $616 $62 $-1 $617 reversed single #
loop $-1 $-1 $302 $296 #
plane-surface $-1 0 0 12.503010430420195 0 0 1 1 0 0 forward_v I I I I #
coedge $-1 $618 $619 $620 $621 reversed $297 $-1 #
coedge $-1 $622 $299 $301 $456 forward $187 $-1 #
coedge $-1 $299 $622 $618 $623 forward $187 $-1 #
coedge $-1 $620 $302 $299 $453 forward $447 $-1 #
edge $-1 $459 1.2485277522591325 $624 15.941916647404557 $452 $625 forward 7 unknown #
coedge $-1 $626 $627 $300 $455 forward $616 $-1 #
edge $-1 $628 -39.799256968454202 $458 -28.206322124162092 $454 $629 forward 7 unknown #
edge $-1 $459 -13.52470483747083 $628 0 $301 $630 forward 7 unknown #
coedge $-1 $302 $620 $626 $631 forward $447 $-1 #
vertex $-1 $303 $632 #
vertex $-1 $303 $633 #
straight-curve $-1 -106.07335054058157 9.8437499520909775 12.503010430420197 1 0 0 I I #
coedge $-1 $461 $461 $-1 $634 reversed $306 $-1 #
edge $-1 $635 0 $635 6.2831853071796004 $307 $636 forward 7 unknown #
vertex $-1 $310 $637 #
ellipse-curve $-1 -74.675033884597198 14.041861064989668 6.7065430082741377 -0.85716730853699208 0 0.51503806187062418 0.77255709280593621 0 1.2857509628054882 1 I I #
coedge $-1 $465 $465 $-1 $638 reversed $313 $-1 #
edge $-1 $639 0 $639 6.2831853071796004 $314 $640 forward 7 unknown #
vertex $-1 $317 $641 #
ellipse-curve $-1 -74.675033884597198 20.339027734337705 6.7065430082741377 -0.85716730853699208 0 0.51503806187062418 0.77255709280593621 0 1.2857509628054882 1 I I #
face $-1 $-1 $642 $65 $-1 $643 reversed single #
loop $-1 $-1 $324 $318 #
plane-surface $-1 0 0 12.503010430420195 0 0 1 1 0 0 forward_v I I I I #
coedge $-1 $644 $645 $646 $647 reversed $319 $-1 #
coedge $-1 $648 $321 $323 $479 forward $201 $-1 #
coedge $-1 $321 $648 $644 $649 forward $201 $-1 #
coedge $-1 $646 $324 $321 $476 forward $470 $-1 #
edge $-1 $482 11.993973072446035 $650 26.687361967591464 $475 $651 forward 7 unknown #
coedge $-1 $652 $653 $322 $478 forward $642 $-1 #
edge $-1 $654 -39.799256968454202 $481 -28.206322124162092 $477 $655 forward 7 unknown #
edge $-1 $482 -13.52470483747083 $654 0 $323 $656 forward 7 unknown #
coedge $-1 $324 $646 $652 $657 forward $470 $-1 #
vertex $-1 $325 $658 #
vertex $-1 $325 $659 #
straight-curve $-1 -106.07335054058157 31.334640592464783 12.503010430420197 1 0 0 I I #
coedge $-1 $484 $484 $-1 $660 reversed $328 $-1 #
edge $-1 $661 0 $661 6.2831853071796004 $329 $662 forward 7 unknown #
vertex $-1 $332 $663 #
ellipse-curve $-1 -74.675033884597198 35.532751705363466 6.7065430082741377 -0.85716730853699208 0 0.51503806187062418 0.77255709280593621 0 1.2857509628054882 1 I I #
coedge $-1 $488 $488 $-1 $664 reversed $335 $-1 #
edge $-1 $665 0 $665 6.2831853071796004 $336 $666 forward 7 unknown #
vertex $-1 $339 $667 #
ellipse-curve $-1 -74.675033884597198 41.829918374711511 6.7065430082741377 -0.85716730853699208 0 0.51503806187062418 0.77255709280593621 0 1.2857509628054882 1 I I #
face $-1 $-1 $355 $51 $-1 $668 reversed single #
loop $-1 $-1 $508 $340 #
plane-surface $-1 0 49.354424553190441 0 0 -1 0 0 0 -1 forward_v I I I I #
coedge $-1 $669 $506 $509 $670 forward $341 $-1 #
coedge $-1 $512 $343 $344 $500 reversed $215 $-1 #
coedge $-1 $506 $669 $343 $498 reversed $341 $-1 #
edge $-1 $513 -12.503010430420195 $671 12.503010430420195 $497 $672 forward 7 unknown #
coedge $-1 $345 $344 $669 $673 forward $137 $-1 #
edge $-1 $504 -78.157902768028805 $671 78.157902768028805 $496 $674 forward 7 unknown #
coedge $-1 $509 $508 $345 $502 reversed $493 $-1 #
edge $-1 $675 -78.157902768028805 $503 78.157902768028805 $501 $676 forward 7 unknown #
vertex $-1 $347 $677 #
vertex $-1 $515 $678 #
straight-curve $-1 78.157902768028805 0 -12.503010430420195 0 -1 0 I I #
coedge $-1 $495 $497 $348 $507 reversed $341 $-1 #
edge $-1 $510 -49.354424553190441 $513 49.354424553190441 $506 $679 forward 7 unknown #
coedge $-1 $501 $349 $354 $516 forward $493 $-1 #
coedge $-1 $349 $501 $495 $670 reversed $493 $-1 #
vertex $-1 $350 $680 #
straight-curve $-1 0 49.354424553190441 12.503010430420195 -1 0 0 I I #
coedge $-1 $351 $496 $353 $515 reversed $215 $-1 #
vertex $-1 $507 $681 #
straight-curve $-1 0 -49.354424553190441 12.503010430420195 1 0 0 I I #
edge $-1 $356 -12.503010430420195 $504 12.503010430420195 $353 $682 forward 7 unknown #
edge $-1 $357 -12.503010430420195 $503 12.503010430420195 $354 $683 forward 7 unknown #
point $-1 78.157902768028805 -49.354424553190441 12.503010430420195 #
point $-1 78.157902768028805 49.354424553190441 12.503010430420195 #
face $-1 $-1 $533 $52 $-1 $684 reversed single #
loop $-1 $-1 $685 $359 #
plane-surface $-1 0 -62.099711098076128 -11.003010430420195 0 1 0 0 0 1 forward_v I I I I #
coedge $-1 $686 $362 $371 $537 reversed $223 $-1 #
coedge $-1 $362 $686 $363 $525 reversed $223 $-1 #
coedge $-1 $364 $363 $687 $688 forward $141 $-1 #
edge $-1 $529 49.354424553190441 $689 62.099711098076128 $523 $690 forward 7 unknown #
coedge $-1 $691 $368 $364 $527 reversed $533 $-1 #
edge $-1 $692 -62.099711098076128 $528 -49.354424553190441 $526 $693 forward 7 unknown #
vertex $-1 $369 $694 #
vertex $-1 $525 $695 #
straight-curve $-1 0 -49.354424553190441 -12.503010430420195 1 0 0 I I #
straight-curve $-1 78.157902768028805 -49.354424553190441 0 0 0 1 I I #
coedge $-1 $368 $691 $370 $536 reversed $533 $-1 #
loop $-1 $-1 $368 $519 #
straight-curve $-1 -78.157902768028805 -49.354424553190441 0 0 0 -1 I I #
coedge $-1 $371 $370 $696 $697 forward $360 $-1 #
edge $-1 $372 -6.3726432724428435 $698 6.3726432724428435 $532 $699 forward 7 unknown #
edge $-1 $700 -6.3726432724428435 $373 6.3726432724428435 $522 $701 forward 7 unknown #
point $-1 -78.157902768028805 -49.354424553190441 -9.5030104304201952 #
point $-1 78.157902768028805 -49.354424553190441 -9.5030104304201952 #
plane-surface $-1 78.157902768028805 0 0 -1 0 0 0 0 1 forward_v I I I I #
coedge $-1 $702 $703 $380 $545 forward $376 $-1 #
coedge $-1 $378 $549 $702 $704 forward $231 $-1 #
coedge $-1 $380 $379 $378 $544 reversed $145 $-1 #
edge $-1 $705 -28.121644491202936 $550 -14.343915632772074 $378 $706 forward 7 unknown #
edge $-1 $547 -99.384704384557608 $705 -92.641444547959779 $541 $707 forward 7 unknown #
coedge $-1 $386 $381 $703 $708 reversed $387 $-1 #
vertex $-1 $382 $709 #
straight-curve $-1 78.157902768028805 21.232780061987505 7.1892491091551278 0 1 0 I I #
coedge $-1 $542 $383 $386 $553 forward $231 $-1 #
vertex $-1 $384 $710 #
straight-curve $-1 52.549410988945027 35.576695694759579 12.50301043042019 1 0 0 I I #
straight-curve $-1 -18.079715033516081 35.576695694759579 130.36778612056128 -0.61566146476048833 0 0.78801076186113728 I I #
edge $-1 $388 35.576695694759579 $711 49.354424553190441 $386 $712 forward 7 unknown #
point $-1 78.157902768028805 35.576695694759579 12.503010430420195 #
point $-1 78.157902768028805 35.576695694759579 7.189249109155142 #
edge $-1 $713 1 $713 0 $391 $-1 forward 7 unknown #
vertex $-1 $392 $714 #
ellipse-curve $-1 71.79472788109122 39.513189654311262 6.4964519044179259 0.78801076186113728 0 0.61566146476048833 0.9234921971407325 0 -1.182016142791706 1 I I #
point $-1 77.005612351039346 39.513189654311262 8.6641136269959613 #
edge $-1 $715 1 $715 0 $395 $-1 forward 7 unknown #
vertex $-1 $396 $716 #
ellipse-curve $-1 71.79472788109122 45.417930593638772 6.4964519044179259 0.78801076186113728 0 0.61566146476048833 0.9234921971407325 0 -1.182016142791706 1 I I #
point $-1 77.005612351039346 45.417930593638772 8.6641136269959613 #
plane-surface $-1 0 0 12.503010430420195 0 0 1 1 0 0 forward_v I I I I #
coedge $-1 $575 $574 $567 $717 forward $400 $-1 #
coedge $-1 $567 $402 $404 $571 reversed $253 $-1 #
coedge $-1 $402 $566 $565 $717 reversed $253 $-1 #
coedge $-1 $410 $405 $402 $569 forward $411 $-1 #
edge $-1 $572 -34.881185539415995 $718 -27.915447772552767 $568 $719 forward 7 unknown #
coedge $-1 $404 $403 $575 $720 reversed $159 $-1 #
edge $-1 $721 0 $572 13.52470483747083 $566 $722 forward 7 unknown #
vertex $-1 $406 $723 #
straight-curve $-1 -71.192165001165563 -12.895668440541955 12.503010430420195 0 1 0 I I #
coedge $-1 $565 $407 $410 $579 reversed $400 $-1 #
coedge $-1 $407 $565 $570 $720 forward $400 $-1 #
vertex $-1 $408 $724 #
straight-curve $-1 -78.157902768028805 -33.138031328656623 40.709332554582289 0 0 1 I I #
straight-curve $-1 -78.157902768028805 -33.138031328656623 0.91007558612808737 -0.51503806187062418 0 -0.85716730853699208 I I #
edge $-1 $718 18.444642433511198 $412 33.138031328656623 $574 $725 forward 7 unknown #
point $-1 -78.157902768028805 -33.138031328656623 12.503010430420195 #
point $-1 -71.192165001165577 -33.138031328656623 12.503010430420195 #
edge $-1 $726 1 $726 0 $415 $-1 forward 7 unknown #
vertex $-1 $416 $727 #
ellipse-curve $-1 -71.278723913142173 -28.93992021575793 4.6658341667346299 -0.85716730853699208 0 0.51503806187062418 0.77255709280593621 0 1.2857509628054882 1 I I #
point $-1 -73.902476791791244 -28.93992021575793 7.9922939710796248 #
edge $-1 $728 1 $728 0 $419 $-1 forward 7 unknown #
vertex $-1 $420 $729 #
ellipse-curve $-1 -71.278723913142173 -22.642753546409892 4.6658341667346299 -0.85716730853699208 0 0.51503806187062418 0.77255709280593621 0 1.2857509628054882 1 I I #
point $-1 -73.902476791791244 -22.642753546409892 7.9922939710796248 #
loop $-1 $-1 $431 $423 #
plane-surface $-1 -78.157902768028805 0 0 1 0 0 0 0 -1 forward_v I I I I #
coedge $-1 $593 $426 $428 $597 reversed $275 $-1 #
coedge $-1 $426 $592 $730 $731 reversed $275 $-1 #
coedge $-1 $434 $429 $426 $595 forward $424 $-1 #
edge $-1 $598 -34.881185539415995 $732 -27.915447772552767 $594 $733 forward 7 unknown #
coedge $-1 $428 $427 $601 $734 reversed $173 $-1 #
edge $-1 $735 0 $598 13.52470483747083 $592 $736 forward 7 unknown #
vertex $-1 $430 $737 #
straight-curve $-1 -71.192165001165563 -2.1502231203550579 12.503010430420195 0 1 0 I I #
coedge $-1 $730 $431 $434 $605 reversed $590 $-1 #
coedge $-1 $431 $730 $596 $734 forward $590 $-1 #
vertex $-1 $432 $738 #
straight-curve $-1 -78.157902768028805 -11.647140688282828 40.709332554582289 0 0 1 I I #
straight-curve $-1 -78.157902768028805 -11.647140688282828 0.91007558612808737 -0.51503806187062418 0 -0.85716730853699208 I I #
edge $-1 $732 -3.0462482068625967 $435 11.647140688282828 $600 $739 forward 7 unknown #
point $-1 -78.157902768028805 -11.647140688282828 12.503010430420195 #
point $-1 -71.192165001165577 -11.647140688282828 12.503010430420195 #
edge $-1 $740 1 $740 0 $438 $-1 forward 7 unknown #
vertex $-1 $439 $741 #
ellipse-curve $-1 -71.278723913142173 -7.4490295753841309 4.6658341667346299 -0.85716730853699208 0 0.51503806187062418 0.77255709280593621 0 1.2857509628054882 1 I I #
point $-1 -73.902476791791244 -7.4490295753841309 7.9922939710796248 #
edge $-1 $742 1 $742 0 $442 $-1 forward 7 unknown #
vertex $-1 $443 $743 #
ellipse-curve $-1 -71.278723913142173 -1.1518629060360936 4.6658341667346299 -0.85716730853699208 0 0.51503806187062418 0.77255709280593621 0 1.2857509628054882 1 I I #
point $-1 -73.902476791791244 -1.1518629060360936 7.9922939710796248 #
loop $-1 $-1 $454 $446 #
plane-surface $-1 -78.157902768028805 0 0 1 0 0 0 0 -1 forward_v I I I I #
coedge $-1 $619 $449 $451 $623 reversed $297 $-1 #
coedge $-1 $449 $618 $744 $745 reversed $297 $-1 #
coedge $-1 $457 $452 $449 $621 forward $447 $-1 #
edge $-1 $624 -34.881185539415995 $746 -27.915447772552767 $620 $747 forward 7 unknown #
coedge $-1 $451 $450 $627 $748 reversed $187 $-1 #
edge $-1 $749 0 $624 13.52470483747083 $618 $750 forward 7 unknown #
vertex $-1 $453 $751 #
straight-curve $-1 -71.192165001165563 8.595222199831845 12.503010430420195 0 1 0 I I #
coedge $-1 $744 $454 $457 $631 reversed $616 $-1 #
coedge $-1 $454 $744 $622 $748 forward $616 $-1 #
vertex $-1 $455 $752 #
straight-curve $-1 -78.157902768028805 9.8437499520909775 40.709332554582289 0 0 1 I I #
straight-curve $-1 -78.157902768028805 9.8437499520909775 0.91007558612808737 -0.51503806187062418 0 -0.85716730853699208 I I #
edge $-1 $746 -24.537138847236402 $458 -9.8437499520909775 $626 $753 forward 7 unknown #
point $-1 -78.157902768028805 9.8437499520909775 12.503010430420195 #
point $-1 -71.192165001165577 9.8437499520909775 12.503010430420195 #
edge $-1 $754 1 $754 0 $461 $-1 forward 7 unknown #
vertex $-1 $462 $755 #
ellipse-curve $-1 -71.278723913142173 14.041861064989668 4.6658341667346299 -0.85716730853699208 0 0.51503806187062418 0.77255709280593621 0 1.2857509628054882 1 I I #
point $-1 -73.902476791791244 14.041861064989668 7.9922939710796248 #
edge $-1 $756 1 $756 0 $465 $-1 forward 7 unknown #
vertex $-1 $466 $757 #
ellipse-curve $-1 -71.278723913142173 20.339027734337705 4.6658341667346299 -0.85716730853699208 0 0.51503806187062418 0.77255709280593621 0 1.2857509628054882 1 I I #
point $-1 -73.902476791791244 20.339027734337705 7.9922939710796248 #
loop $-1 $-1 $477 $469 #
plane-surface $-1 -78.157902768028805 0 0 1 0 0 0 0 -1 forward_v I I I I #
coedge $-1 $645 $472 $474 $649 reversed $319 $-1 #
coedge $-1 $472 $644 $758 $759 reversed $319 $-1 #
coedge $-1 $480 $475 $472 $647 forward $470 $-1 #
edge $-1 $650 -34.881185539415995 $760 -27.915447772552767 $646 $761 forward 7 unknown #
coedge $-1 $474 $473 $653 $762 reversed $201 $-1 #
edge $-1 $763 0 $650 13.52470483747083 $644 $764 forward 7 unknown #
vertex $-1 $476 $765 #
straight-curve $-1 -71.192165001165563 19.340667520018748 12.503010430420195 0 1 0 I I #
coedge $-1 $758 $477 $480 $657 reversed $642 $-1 #
coedge $-1 $477 $758 $648 $762 forward $642 $-1 #
vertex $-1 $478 $766 #
straight-curve $-1 -78.157902768028805 31.334640592464783 40.709332554582289 0 0 1 I I #
straight-curve $-1 -78.157902768028805 31.334640592464783 0.91007558612808737 -0.51503806187062418 0 -0.85716730853699208 I I #
edge $-1 $760 -46.028029487610212 $481 -31.334640592464783 $652 $767 forward 7 unknown #
point $-1 -78.157902768028805 31.334640592464783 12.503010430420195 #
point $-1 -71.192165001165577 31.334640592464783 12.503010430420195 #
edge $-1 $768 1 $768 0 $484 $-1 forward 7 unknown #
vertex $-1 $485 $769 #
ellipse-curve $-1 -71.278723913142173 35.532751705363466 4.6658341667346299 -0.85716730853699208 0 0.51503806187062418 0.77255709280593621 0 1.2857509628054882 1 I I #
point $-1 -73.902476791791244 35.532751705363466 7.9922939710796248 #
edge $-1 $770 1 $770 0 $488 $-1 forward 7 unknown #
vertex $-1 $489 $771 #
ellipse-curve $-1 -71.278723913142173 41.829918374711511 4.6658341667346299 -0.85716730853699208 0 0.51503806187062418 0.77255709280593621 0 1.2857509628054882 1 I I #
point $-1 -73.902476791791244 41.829918374711511 7.9922939710796248 #
plane-surface $-1 78.157902768028805 0 0 -1 0 0 0 0 1 forward_v I I I I #
coedge $-1 $497 $495 $499 $673 reversed $341 $-1 #
edge $-1 $510 -12.503010430420195 $675 12.503010430420195 $509 $772 forward 7 unknown #
vertex $-1 $673 $773 #
straight-curve $-1 -78.157902768028805 -49.354424553190441 0 0 0 -1 I I #
edge $-1 $671 -49.354424553190441 $675 49.354424553190441 $669 $774 forward 7 unknown #
straight-curve $-1 0 -49.354424553190441 -12.503010430420195 -1 0 0 I I #
vertex $-1 $502 $775 #
straight-curve $-1 0 49.354424553190441 -12.503010430420195 1 0 0 I I #
point $-1 78.157902768028805 49.354424553190441 -12.503010430420195 #
point $-1 78.157902768028805 -49.354424553190441 -12.503010430420195 #
straight-curve $-1 -78.157902768028805 0 12.503010430420195 0 -1 0 I I #
point $-1 -78.157902768028805 49.354424553190441 12.503010430420195 #
point $-1 -78.157902768028805 -49.354424553190441 12.503010430420195 #
straight-curve $-1 78.157902768028805 -49.354424553190441 0 0 0 -1 I I #
straight-curve $-1 78.157902768028805 49.354424553190441 0 0 0 -1 I I #
plane-surface $-1 -78.157902768028805 0 0 1 0 0 0 0 -1 forward_v I I I I #
coedge $-1 $687 $696 $691 $776 forward $520 $-1 #
coedge $-1 $523 $522 $777 $778 forward $223 $-1 #
coedge $-1 $777 $685 $524 $688 reversed $520 $-1 #
edge $-1 $689 -78.157902768028805 $692 78.157902768028805 $687 $779 forward 7 unknown #
vertex $-1 $778 $780 #
straight-curve $-1 78.157902768028805 0 -12.503010430420195 0 -1 0 I I #
coedge $-1 $532 $526 $685 $776 reversed $533 $-1 #
vertex $-1 $527 $781 #
straight-curve $-1 -78.157902768028805 0 -12.503010430420195 0 1 0 I I #
point $-1 -78.157902768028805 -49.354424553190441 -12.503010430420195 #
point $-1 78.157902768028805 -49.354424553190441 -12.503010430420195 #
coedge $-1 $685 $777 $535 $697 reversed $520 $-1 #
edge $-1 $698 -78.157902768028805 $700 78.157902768028805 $696 $782 forward 7 unknown #
vertex $-1 $536 $783 #
straight-curve $-1 -78.157902768028805 -55.727067825633284 -9.5030104304201952 0 -1 0 I I #
vertex $-1 $537 $784 #
straight-curve $-1 78.157902768028805 -55.727067825633284 -9.5030104304201952 0 1 0 I I #
coedge $-1 $703 $541 $542 $704 reversed $376 $-1 #
coedge $-1 $541 $702 $546 $708 forward $376 $-1 #
edge $-1 $711 -78.157902768028805 $705 -74.00633753976841 $702 $785 forward 7 unknown #
vertex $-1 $544 $786 #
straight-curve $-1 74.006337539768438 21.232780061987505 12.50301043042019 0 -1 0 I I #
straight-curve $-1 16.970570091843943 49.354424553190441 85.505465728574279 -0.61566146476048833 0 0.78801076186113728 I I #
edge $-1 $711 -12.503010430420195 $547 -7.1892491091551269 $546 $787 forward 7 unknown #
point $-1 78.157902768028805 49.354424553190441 7.1892491091551269 #
point $-1 74.00633753976841 35.576695694759579 12.50301043042019 #
vertex $-1 $553 $788 #
straight-curve $-1 78.157902768028805 0 12.503010430420195 0 1 0 I I #
vertex $-1 $556 $789 #
point $-1 72.718220078231951 39.513189654311262 5.3144357616262203 #
vertex $-1 $560 $790 #
point $-1 72.718220078231951 45.417930593638772 5.3144357616262203 #
edge $-1 $718 28.206322124162092 $721 39.799256968454202 $565 $791 forward 7 unknown #
vertex $-1 $579 $792 #
straight-curve $-1 -106.07335054058157 -18.444642433511198 12.503010430420197 -1 0 0 I I #
edge $-1 $721 5.548973992969243 $576 20.24236288811467 $575 $793 forward 7 unknown #
vertex $-1 $720 $794 #
straight-curve $-1 -78.157902768028805 -18.444642433511198 0.91007558612808737 0.51503806187062418 0 0.85716730853699208 I I #
point $-1 -71.192165001165577 -18.444642433511198 12.503010430420195 #
point $-1 -78.157902768028805 -33.138031328656623 0.91007558612808737 #
straight-curve $-1 -78.157902768028805 0 12.503010430420195 0 -1 0 I I #
vertex $-1 $582 $795 #
point $-1 -70.506166820336247 -28.93992021575793 5.9515851295401188 #
vertex $-1 $586 $796 #
point $-1 -70.506166820336247 -22.642753546409892 5.9515851295401188 #
coedge $-1 $601 $600 $593 $731 forward $590 $-1 #
edge $-1 $732 28.206322124162092 $735 39.799256968454202 $730 $797 forward 7 unknown #
vertex $-1 $605 $798 #
straight-curve $-1 -106.07335054058157 3.0462482068625967 12.503010430420197 -1 0 0 I I #
edge $-1 $735 -5.1964713272176546 $602 9.4969175679277704 $601 $799 forward 7 unknown #
vertex $-1 $734 $800 #
straight-curve $-1 -78.157902768028805 3.0462482068625967 0.91007558612808737 0.51503806187062418 0 0.85716730853699208 I I #
point $-1 -71.192165001165577 3.0462482068625967 12.503010430420195 #
point $-1 -78.157902768028805 -11.647140688282828 0.91007558612808737 #
straight-curve $-1 -78.157902768028805 0 12.503010430420195 0 -1 0 I I #
vertex $-1 $608 $801 #
point $-1 -70.506166820336247 -7.4490295753841309 5.9515851295401188 #
vertex $-1 $612 $802 #
point $-1 -70.506166820336247 -1.1518629060360936 5.9515851295401188 #
coedge $-1 $627 $626 $619 $745 forward $616 $-1 #
edge $-1 $746 28.206322124162092 $749 39.799256968454202 $744 $803 forward 7 unknown #
vertex $-1 $631 $804 #
straight-curve $-1 -106.07335054058157 24.537138847236402 12.503010430420197 -1 0 0 I I #
edge $-1 $749 -15.941916647404557 $628 -1.2485277522591325 $627 $805 forward 7 unknown #
vertex $-1 $748 $806 #
straight-curve $-1 -78.157902768028805 24.537138847236402 0.91007558612808737 0.51503806187062418 0 0.85716730853699208 I I #
point $-1 -71.192165001165577 24.537138847236402 12.503010430420195 #
point $-1 -78.157902768028805 9.8437499520909775 0.91007558612808737 #
straight-curve $-1 -78.157902768028805 0 12.503010430420195 0 -1 0 I I #
vertex $-1 $634 $807 #
point $-1 -70.506166820336247 14.041861064989668 5.9515851295401188 #
vertex $-1 $638 $808 #
point $-1 -70.506166820336247 20.339027734337705 5.9515851295401188 #
coedge $-1 $653 $652 $645 $759 forward $642 $-1 #
edge $-1 $760 28.206322124162092 $763 39.799256968454202 $758 $809 forward 7 unknown #
vertex $-1 $657 $810 #
straight-curve $-1 -106.07335054058157 46.028029487610212 12.503010430420197 -1 0 0 I I #
edge $-1 $763 -26.687361967591464 $654 -11.993973072446035 $653 $811 forward 7 unknown #
vertex $-1 $762 $812 #
straight-curve $-1 -78.157902768028805 46.028029487610212 0.91007558612808737 0.51503806187062418 0 0.85716730853699208 I I #
point $-1 -71.192165001165577 46.028029487610212 12.503010430420195 #
point $-1 -78.157902768028805 31.334640592464783 0.91007558612808737 #
straight-curve $-1 -78.157902768028805 0 12.503010430420195 0 -1 0 I I #
vertex $-1 $660 $813 #
point $-1 -70.506166820336247 35.532751705363466 5.9515851295401188 #
vertex $-1 $664 $814 #
point $-1 -70.506166820336247 41.829918374711511 5.9515851295401188 #
straight-curve $-1 -78.157902768028805 49.354424553190441 0 0 0 -1 I I #
point $-1 -78.157902768028805 -49.354424553190441 -12.503010430420195 #
straight-curve $-1 -78.157902768028805 0 -12.503010430420195 0 1 0 I I #
point $-1 -78.157902768028805 49.354424553190441 -12.503010430420195 #
edge $-1 $698 -1.5 $692 1.5 $691 $815 forward 7 unknown #
coedge $-1 $696 $687 $686 $778 reversed $520 $-1 #
edge $-1 $700 -1.5 $689 1.5 $686 $816 forward 7 unknown #
straight-curve $-1 0 -62.099711098076128 -12.503010430420195 -1 0 0 I I #
point $-1 78.157902768028805 -62.099711098076128 -12.503010430420195 #
point $-1 -78.157902768028805 -62.099711098076128 -12.503010430420195 #
straight-curve $-1 0 -62.099711098076128 -9.5030104304201952 1 0 0 I I #
point $-1 -78.157902768028805 -62.099711098076128 -9.5030104304201952 #
point $-1 78.157902768028805 -62.099711098076128 -9.5030104304201952 #
straight-curve $-1 0 49.354424553190441 12.503010430420195 -1 0 0 I I #
point $-1 74.00633753976841 49.354424553190441 12.50301043042019 #
straight-curve $-1 78.157902768028805 49.354424553190441 0 0 0 -1 I I #
point $-1 78.157902768028805 49.354424553190441 12.503010430420195 #
point $-1 70.612711738299524 39.513189654311262 5.5729597072771941 #
point $-1 70.612711738299524 45.417930593638772 5.5729597072771941 #
straight-curve $-1 -78.157902768028805 -18.444642433511198 40.709332554582289 0 0 -1 I I #
point $-1 -78.157902768028805 -18.444642433511198 12.503010430420195 #
straight-curve $-1 -78.157902768028805 -12.895668440541955 0.91007558612809181 0 -1 0 I I #
point $-1 -78.157902768028805 -18.444642433511198 0.91007558612808737 #
point $-1 -69.992972950336693 -28.93992021575793 3.8932770739286933 #
point $-1 -69.992972950336693 -22.642753546409892 3.8932770739286933 #
straight-curve $-1 -78.157902768028805 3.0462482068625967 40.709332554582289 0 0 -1 I I #
point $-1 -78.157902768028805 3.0462482068625967 12.503010430420195 #
straight-curve $-1 -78.157902768028805 -2.1502231203550579 0.91007558612809181 0 -1 0 I I #
point $-1 -78.157902768028805 3.0462482068625967 0.91007558612808737 #
point $-1 -69.992972950336693 -7.4490295753841309 3.8932770739286933 #
point $-1 -69.992972950336693 -1.1518629060360936 3.8932770739286933 #
straight-curve $-1 -78.157902768028805 24.537138847236402 40.709332554582289 0 0 -1 I I #
point $-1 -78.157902768028805 24.537138847236402 12.503010430420195 #
straight-curve $-1 -78.157902768028805 8.595222199831845 0.91007558612809181 0 -1 0 I I #
point $-1 -78.157902768028805 24.537138847236402 0.91007558612808737 #
point $-1 -69.992972950336693 14.041861064989668 3.8932770739286933 #
point $-1 -69.992972950336693 20.339027734337705 3.8932770739286933 #
straight-curve $-1 -78.157902768028805 46.028029487610212 40.709332554582289 0 0 -1 I I #
point $-1 -78.157902768028805 46.028029487610212 12.503010430420195 #
straight-curve $-1 -78.157902768028805 19.340667520018748 0.91007558612809181 0 -1 0 I I #
point $-1 -78.157902768028805 46.028029487610212 0.91007558612808737 #
point $-1 -69.992972950336693 35.532751705363466 3.8932770739286933 #
point $-1 -69.992972950336693 41.829918374711511 3.8932770739286933 #
straight-curve $-1 -78.157902768028805 -62.099711098076128 -11.003010430420195 0 0 -1 I I #
straight-curve $-1 78.157902768028805 -62.099711098076128 -11.003010430420195 0 0 -1 I I #
End-of-ACIS-data 