500 0 21 0           
7 Unknown 11 ACIS 5.0 NT 24 Fri Mar 26 14:47:01 1999 
-1 9.9999999999999995e-007 1e-010 
body $-1 $21 $-1 $22 #
body $-1 $23 $-1 $24 #
body $-1 $25 $-1 $26 #
body $-1 $27 $-1 $28 #
body $-1 $29 $-1 $30 #
body $-1 $31 $-1 $32 #
body $-1 $33 $-1 $34 #
body $-1 $35 $-1 $36 #
body $-1 $37 $-1 $38 #
body $-1 $39 $-1 $40 #
body $-1 $41 $-1 $42 #
body $-1 $43 $-1 $44 #
body $-1 $45 $-1 $46 #
body $-1 $47 $-1 $48 #
body $-1 $49 $-1 $50 #
body $-1 $51 $-1 $52 #
body $-1 $53 $-1 $54 #
body $-1 $55 $-1 $56 #
body $-1 $57 $-1 $58 #
body $-1 $59 $-1 $60 #
body $-1 $61 $-1 $62 #
lump $-1 $-1 $63 $0 #
transform $-1 1 0 0 0 1 0 0 0 1 62.221137119663076 31.834427853328521 12.790703343614346 1 rotate no_reflect no_shear #
lump $-1 $-1 $64 $1 #
transform $-1 1 0 0 0 1 0 0 0 1 62.221137119663076 31.834427853328521 12.790703343614346 1 rotate no_reflect no_shear #
lump $-1 $-1 $65 $2 #
transform $-1 1 0 0 0 1 0 0 0 1 62.221137119663076 31.834427853328521 12.790703343614346 1 rotate no_reflect no_shear #
lump $-1 $-1 $66 $3 #
transform $-1 1 0 0 0 1 0 0 0 1 62.221137119663076 31.834427853328521 12.790703343614346 1 rotate no_reflect no_shear #
lump $-1 $-1 $67 $4 #
transform $-1 1 0 0 0 1 0 0 0 1 62.221137119663076 31.834427853328521 12.790703343614346 1 rotate no_reflect no_shear #
lump $-1 $-1 $68 $5 #
transform $-1 1 0 0 0 1 0 0 0 1 62.221137119663076 31.834427853328521 12.790703343614346 1 rotate no_reflect no_shear #
lump $-1 $-1 $69 $6 #
transform $-1 1 0 0 0 1 0 0 0 1 62.221137119663076 31.834427853328521 12.790703343614346 1 rotate no_reflect no_shear #
lump $-1 $-1 $70 $7 #
transform $-1 1 0 0 0 1 0 0 0 1 62.221137119663076 31.834427853328521 12.790703343614346 1 rotate no_reflect no_shear #
lump $-1 $-1 $71 $8 #
transform $-1 1 0 0 0 1 0 0 0 1 62.221137119663076 31.834427853328521 12.790703343614346 1 rotate no_reflect no_shear #
lump $-1 $-1 $72 $9 #
transform $-1 1 0 0 0 1 0 0 0 1 62.221137119663076 31.834427853328521 12.790703343614346 1 rotate no_reflect no_shear #
lump $-1 $-1 $73 $10 #
transform $-1 1 0 0 0 1 0 0 0 1 62.221137119663076 31.834427853328521 12.790703343614346 1 rotate no_reflect no_shear #
lump $-1 $-1 $74 $11 #
transform $-1 1 0 0 0 1 0 0 0 1 62.221137119663076 31.834427853328521 12.790703343614346 1 rotate no_reflect no_shear #
lump $-1 $-1 $75 $12 #
transform $-1 1 0 0 0 1 0 0 0 1 62.221137119663076 31.834427853328521 12.790703343614346 1 rotate no_reflect no_shear #
lump $-1 $-1 $76 $13 #
transform $-1 1 0 0 0 1 0 0 0 1 62.221137119663076 31.834427853328521 12.790703343614346 1 rotate no_reflect no_shear #
lump $-1 $-1 $77 $14 #
transform $-1 1 0 0 0 1 0 0 0 1 62.221137119663076 31.834427853328521 12.790703343614346 1 rotate no_reflect no_shear #
lump $-1 $-1 $78 $15 #
transform $-1 1 0 0 0 1 0 0 0 1 62.221137119663076 31.834427853328521 12.790703343614346 1 rotate no_reflect no_shear #
lump $-1 $-1 $79 $16 #
transform $-1 1 0 0 0 1 0 0 0 1 62.221137119663076 31.834427853328521 12.790703343614346 1 rotate no_reflect no_shear #
lump $-1 $-1 $80 $17 #
transform $-1 1 0 0 0 1 0 0 0 1 62.221137119663076 31.834427853328521 12.790703343614346 1 rotate no_reflect no_shear #
lump $-1 $-1 $81 $18 #
transform $-1 1 0 0 0 1 0 0 0 1 62.221137119663076 31.834427853328521 12.790703343614346 1 rotate no_reflect no_shear #
lump $-1 $-1 $82 $19 #
transform $-1 1 0 0 0 1 0 0 0 1 62.221137119663076 31.834427853328521 12.790703343614346 1 rotate no_reflect no_shear #
lump $-1 $-1 $83 $20 #
transform $-1 1 0 0 0 1 0 0 0 1 62.221137119663076 31.834427853328521 12.790703343614346 1 rotate no_reflect no_shear #
shell $-1 $-1 $-1 $84 $-1 $21 #
shell $-1 $-1 $-1 $85 $-1 $23 #
shell $-1 $-1 $-1 $86 $-1 $25 #
shell $-1 $-1 $-1 $87 $-1 $27 #
shell $-1 $-1 $-1 $88 $-1 $29 #
shell $-1 $-1 $-1 $89 $-1 $31 #
shell $-1 $-1 $-1 $90 $-1 $33 #
shell $-1 $-1 $-1 $91 $-1 $35 #
shell $-1 $-1 $-1 $92 $-1 $37 #
shell $-1 $-1 $-1 $93 $-1 $39 #
shell $-1 $-1 $-1 $94 $-1 $41 #
shell $-1 $-1 $-1 $95 $-1 $43 #
shell $-1 $-1 $-1 $96 $-1 $45 #
shell $-1 $-1 $-1 $97 $-1 $47 #
shell $-1 $-1 $-1 $98 $-1 $49 #
shell $-1 $-1 $-1 $99 $-1 $51 #
shell $-1 $-1 $-1 $100 $-1 $53 #
shell $-1 $-1 $-1 $101 $-1 $55 #
shell $-1 $-1 $-1 $102 $-1 $57 #
shell $-1 $-1 $-1 $103 $-1 $59 #
shell $-1 $-1 $-1 $104 $-1 $61 #
face $-1 $105 $106 $63 $-1 $107 forward single #
face $-1 $108 $109 $64 $-1 $110 forward single #
face $-1 $111 $112 $65 $-1 $113 reversed single #
face $-1 $114 $115 $66 $-1 $116 forward single #
face $-1 $117 $118 $67 $-1 $119 forward single #
face $-1 $120 $121 $68 $-1 $122 forward single #
face $-1 $123 $124 $69 $-1 $125 reversed single #
face $-1 $126 $127 $70 $-1 $128 forward single #
face $-1 $129 $130 $71 $-1 $131 forward single #
face $-1 $132 $133 $72 $-1 $134 forward single #
face $-1 $135 $136 $73 $-1 $137 reversed single #
face $-1 $138 $139 $74 $-1 $140 forward single #
face $-1 $141 $142 $75 $-1 $143 forward single #
face $-1 $144 $145 $76 $-1 $146 forward single #
face $-1 $147 $148 $77 $-1 $149 reversed single #
face $-1 $150 $151 $78 $-1 $152 forward single #
face $-1 $153 $154 $79 $-1 $155 forward single #
face $-1 $156 $157 $80 $-1 $158 forward single #
face $-1 $159 $160 $81 $-1 $161 reversed single #
face $-1 $162 $163 $82 $-1 $164 forward single #
face $-1 $165 $166 $83 $-1 $167 forward single #
face $-1 $168 $169 $63 $-1 $170 reversed single #
loop $-1 $-1 $171 $84 #
plane-surface $-1 0 0 12.790703343614346 0 0 1 1 0 0 forward_v I I I I #
face $-1 $172 $173 $64 $-1 $174 reversed single #
loop $-1 $-1 $175 $85 #
plane-surface $-1 -56.921881622688367 0 -7.3451981162792572 0 0 1 1 0 0 forward_v I I I I #
face $-1 $176 $177 $65 $-1 $178 reversed single #
loop $-1 $-1 $179 $86 #
plane-surface $-1 -42.198522817079159 58.277000382548522 142.83438226694747 1 0 0 0 -0.61566148304635926 -0.78801074757464917 forward_v I I I I #
face $-1 $180 $181 $66 $-1 $182 forward single #
loop $-1 $183 $184 $87 #
cone-surface $-1 -39.00191974656488 26.499669661039977 8.2655341630835508 0 -0.61566148304635926 -0.78801074757464917 1 0 0 1 I I 0 1 1 forward I I I I #
face $-1 $185 $186 $67 $-1 $187 forward single #
loop $-1 $188 $189 $88 #
cone-surface $-1 -34.207015140793466 26.499669661039977 8.2655341630835508 0 -0.61566148304635926 -0.78801074757464917 1 0 0 1 I I 0 1 1 forward I I I I #
face $-1 $190 $191 $68 $-1 $192 forward single #
loop $-1 $193 $194 $89 #
cone-surface $-1 -29.412110535022052 26.499669661039977 8.2655341630835508 0 -0.61566148304635926 -0.78801074757464917 1 0 0 1 I I 0 1 1 forward I I I I #
face $-1 $195 $196 $69 $-1 $197 reversed single #
loop $-1 $-1 $198 $90 #
plane-surface $-1 -15.861009058567042 58.277000382548522 142.83438226694747 1 0 0 0 -0.61566148304635926 -0.78801074757464917 forward_v I I I I #
face $-1 $199 $200 $70 $-1 $201 forward single #
loop $-1 $202 $203 $91 #
cone-surface $-1 -12.664405988052764 26.499669661039977 8.2655341630835508 0 -0.61566148304635926 -0.78801074757464917 1 0 0 1 I I 0 1 1 forward I I I I #
face $-1 $204 $205 $71 $-1 $206 forward single #
loop $-1 $207 $208 $92 #
cone-surface $-1 -7.8695013822813493 26.499669661039977 8.2655341630835508 0 -0.61566148304635926 -0.78801074757464917 1 0 0 1 I I 0 1 1 forward I I I I #
face $-1 $209 $210 $72 $-1 $211 forward single #
loop $-1 $212 $213 $93 #
cone-surface $-1 -3.0745967765099351 26.499669661039977 8.2655341630835508 0 -0.61566148304635926 -0.78801074757464917 1 0 0 1 I I 0 1 1 forward I I I I #
face $-1 $214 $215 $73 $-1 $216 reversed single #
loop $-1 $-1 $217 $94 #
plane-surface $-1 10.476504699945075 58.277000382548522 142.83438226694747 1 0 0 0 -0.61566148304635926 -0.78801074757464917 forward_v I I I I #
face $-1 $218 $219 $74 $-1 $220 forward single #
loop $-1 $221 $222 $95 #
cone-surface $-1 13.673107770459346 26.499669661039977 8.2655341630835508 0 -0.61566148304635926 -0.78801074757464917 1 0 0 1 I I 0 1 1 forward I I I I #
face $-1 $223 $224 $75 $-1 $225 forward single #
loop $-1 $226 $227 $96 #
cone-surface $-1 18.468012376230767 26.499669661039977 8.2655341630835508 0 -0.61566148304635926 -0.78801074757464917 1 0 0 1 I I 0 1 1 forward I I I I #
face $-1 $228 $229 $76 $-1 $230 forward single #
loop $-1 $231 $232 $97 #
cone-surface $-1 23.262916982002189 26.499669661039977 8.2655341630835508 0 -0.61566148304635926 -0.78801074757464917 1 0 0 1 I I 0 1 1 forward I I I I #
face $-1 $233 $234 $77 $-1 $235 reversed single #
loop $-1 $-1 $236 $98 #
plane-surface $-1 36.814018458457191 58.277000382548522 142.83438226694747 1 0 0 0 -0.61566148304635926 -0.78801074757464917 forward_v I I I I #
face $-1 $237 $238 $78 $-1 $239 forward single #
loop $-1 $240 $241 $99 #
cone-surface $-1 40.010621528971463 26.499669661039977 8.2655341630835508 0 -0.61566148304635926 -0.78801074757464917 1 0 0 1 I I 0 1 1 forward I I I I #
face $-1 $242 $243 $79 $-1 $244 forward single #
loop $-1 $245 $246 $100 #
cone-surface $-1 44.805526134742884 26.499669661039977 8.2655341630835508 0 -0.61566148304635926 -0.78801074757464917 1 0 0 1 I I 0 1 1 forward I I I I #
face $-1 $247 $248 $80 $-1 $249 forward single #
loop $-1 $250 $251 $101 #
cone-surface $-1 49.600430740514305 26.499669661039977 8.2655341630835508 0 -0.61566148304635926 -0.78801074757464917 1 0 0 1 I I 0 1 1 forward I I I I #
face $-1 $252 $253 $81 $-1 $254 reversed single #
loop $-1 $-1 $255 $102 #
plane-surface $-1 48.214848629436652 -31.834427853328535 4.3104552273623256 0 -0.70710678939079041 0.70710677298230451 1 0 0 forward_v I I I I #
face $-1 $256 $257 $82 $-1 $258 forward single #
loop $-1 $259 $260 $103 #
cone-surface $-1 42.21215356219674 -24.707621943772551 5.6638974026516156 0 0.70710678939079041 -0.70710677298230451 2.5 0 0 1 I I 0 1 2.5 forward I I I I #
face $-1 $261 $262 $83 $-1 $263 forward single #
loop $-1 $264 $265 $104 #
cone-surface $-1 54.217543696676536 -24.707621943772551 5.6638974026516156 0 0.70710678939079041 -0.70710677298230451 2.5 0 0 1 I I 0 1 2.5 forward I I I I #
face $-1 $266 $267 $63 $-1 $268 reversed single #
loop $-1 $-1 $269 $105 #
plane-surface $-1 0 0 -12.790703343614346 0 0 1 1 0 0 forward_v I I I I #
coedge $-1 $270 $271 $272 $273 forward $106 $-1 #
face $-1 $274 $275 $64 $-1 $276 reversed single #
loop $-1 $-1 $277 $108 #
plane-surface $-1 -51.622626125713658 0 -10.067950729946801 -1 0 0 0 0 1 forward_v I I I I #
coedge $-1 $278 $279 $280 $281 forward $109 $-1 #
face $-1 $282 $283 $65 $-1 $284 reversed single #
loop $-1 $-1 $285 $111 #
plane-surface $-1 -34.207015140793466 -18.337314729296764 44.772532713726562 0 0.61566148304635926 0.78801074757464917 1 0 0 forward_v I I I I #
coedge $-1 $286 $287 $288 $289 reversed $112 $-1 #
face $-1 $-1 $290 $66 $-1 $291 forward single #
loop $-1 $292 $293 $114 #
cone-surface $-1 -39.00191974656488 25.475514989636096 6.9546759878218865 0 -0.61566148304635926 -0.78801074757464917 0.5 0 0 1 I I -0.70710678118654813 0.70710678118654691 0.5 forward I I I I #
loop $-1 $-1 $294 $87 #
coedge $-1 $184 $184 $295 $296 reversed $115 $-1 #
face $-1 $-1 $297 $67 $-1 $298 forward single #
loop $-1 $299 $300 $117 #
cone-surface $-1 -34.207015140793466 25.475514989636096 6.9546759878218865 0 -0.61566148304635926 -0.78801074757464917 0.5 0 0 1 I I -0.70710678118654813 0.70710678118654691 0.5 forward I I I I #
loop $-1 $-1 $301 $88 #
coedge $-1 $189 $189 $302 $303 reversed $118 $-1 #
face $-1 $-1 $304 $68 $-1 $305 forward single #
loop $-1 $306 $307 $120 #
cone-surface $-1 -29.412110535022052 25.475514989636096 6.9546759878218865 0 -0.61566148304635926 -0.78801074757464917 0.5 0 0 1 I I -0.70710678118654813 0.70710678118654691 0.5 forward I I I I #
loop $-1 $-1 $308 $89 #
coedge $-1 $194 $194 $309 $310 reversed $121 $-1 #
face $-1 $311 $312 $69 $-1 $313 reversed single #
loop $-1 $-1 $314 $123 #
plane-surface $-1 -7.8695013822813493 -18.337314729296764 44.772532713726562 0 0.61566148304635926 0.78801074757464917 1 0 0 forward_v I I I I #
coedge $-1 $315 $316 $317 $318 reversed $124 $-1 #
face $-1 $-1 $319 $70 $-1 $320 forward single #
loop $-1 $321 $322 $126 #
cone-surface $-1 -12.664405988052764 25.475514989636096 6.9546759878218865 0 -0.61566148304635926 -0.78801074757464917 0.5 0 0 1 I I -0.70710678118654813 0.70710678118654691 0.5 forward I I I I #
loop $-1 $-1 $323 $91 #
coedge $-1 $203 $203 $324 $325 reversed $127 $-1 #
face $-1 $-1 $326 $71 $-1 $327 forward single #
loop $-1 $328 $329 $129 #
cone-surface $-1 -7.8695013822813493 25.475514989636096 6.9546759878218865 0 -0.61566148304635926 -0.78801074757464917 0.5 0 0 1 I I -0.70710678118654813 0.70710678118654691 0.5 forward I I I I #
loop $-1 $-1 $330 $92 #
coedge $-1 $208 $208 $331 $332 reversed $130 $-1 #
face $-1 $-1 $333 $72 $-1 $334 forward single #
loop $-1 $335 $336 $132 #
cone-surface $-1 -3.0745967765099351 25.475514989636096 6.9546759878218865 0 -0.61566148304635926 -0.78801074757464917 0.5 0 0 1 I I -0.70710678118654813 0.70710678118654691 0.5 forward I I I I #
loop $-1 $-1 $337 $93 #
coedge $-1 $213 $213 $338 $339 reversed $133 $-1 #
face $-1 $340 $341 $73 $-1 $342 reversed single #
loop $-1 $-1 $343 $135 #
plane-surface $-1 18.468012376230767 -18.337314729296764 44.772532713726562 0 0.61566148304635926 0.78801074757464917 1 0 0 forward_v I I I I #
coedge $-1 $344 $345 $346 $347 reversed $136 $-1 #
face $-1 $-1 $348 $74 $-1 $349 forward single #
loop $-1 $350 $351 $138 #
cone-surface $-1 13.673107770459346 25.475514989636096 6.9546759878218865 0 -0.61566148304635926 -0.78801074757464917 0.5 0 0 1 I I -0.70710678118654813 0.70710678118654691 0.5 forward I I I I #
loop $-1 $-1 $352 $95 #
coedge $-1 $222 $222 $353 $354 reversed $139 $-1 #
face $-1 $-1 $355 $75 $-1 $356 forward single #
loop $-1 $357 $358 $141 #
cone-surface $-1 18.468012376230767 25.475514989636096 6.9546759878218865 0 -0.61566148304635926 -0.78801074757464917 0.5 0 0 1 I I -0.70710678118654813 0.70710678118654691 0.5 forward I I I I #
loop $-1 $-1 $359 $96 #
coedge $-1 $227 $227 $360 $361 reversed $142 $-1 #
face $-1 $-1 $362 $76 $-1 $363 forward single #
loop $-1 $364 $365 $144 #
cone-surface $-1 23.262916982002189 25.475514989636096 6.9546759878218865 0 -0.61566148304635926 -0.78801074757464917 0.5 0 0 1 I I -0.70710678118654813 0.70710678118654691 0.5 forward I I I I #
loop $-1 $-1 $366 $97 #
coedge $-1 $232 $232 $367 $368 reversed $145 $-1 #
face $-1 $369 $370 $77 $-1 $371 reversed single #
loop $-1 $-1 $372 $147 #
plane-surface $-1 44.805526134742884 -18.337314729296764 44.772532713726562 0 0.61566148304635926 0.78801074757464917 1 0 0 forward_v I I I I #
coedge $-1 $373 $374 $375 $376 reversed $148 $-1 #
face $-1 $-1 $377 $78 $-1 $378 forward single #
loop $-1 $379 $380 $150 #
cone-surface $-1 40.010621528971463 25.475514989636096 6.9546759878218865 0 -0.61566148304635926 -0.78801074757464917 0.5 0 0 1 I I -0.70710678118654813 0.70710678118654691 0.5 forward I I I I #
loop $-1 $-1 $381 $99 #
coedge $-1 $241 $241 $382 $383 reversed $151 $-1 #
face $-1 $-1 $384 $79 $-1 $385 forward single #
loop $-1 $386 $387 $153 #
cone-surface $-1 44.805526134742884 25.475514989636096 6.9546759878218865 0 -0.61566148304635926 -0.78801074757464917 0.5 0 0 1 I I -0.70710678118654813 0.70710678118654691 0.5 forward I I I I #
loop $-1 $-1 $388 $100 #
coedge $-1 $246 $246 $389 $390 reversed $154 $-1 #
face $-1 $-1 $391 $80 $-1 $392 forward single #
loop $-1 $393 $394 $156 #
cone-surface $-1 49.600430740514305 25.475514989636096 6.9546759878218865 0 -0.61566148304635926 -0.78801074757464917 0.5 0 0 1 I I -0.70710678118654813 0.70710678118654691 0.5 forward I I I I #
loop $-1 $-1 $395 $101 #
coedge $-1 $251 $251 $396 $397 reversed $157 $-1 #
face $-1 $398 $399 $81 $-1 $400 reversed single #
loop $-1 $-1 $401 $159 #
plane-surface $-1 34.208560139210221 -119.82840485518672 92.304430187311198 1 0 0 0 0.70710678939079041 -0.70710677298230451 forward_v I I I I #
coedge $-1 $402 $403 $404 $405 reversed $160 $-1 #
face $-1 $-1 $406 $82 $-1 $407 forward single #
loop $-1 $408 $409 $162 #
cone-surface $-1 42.21215356219674 -20.937056507211604 1.8933320535870273 0 0.70710678939079041 -0.70710677298230451 1.25 0 0 1 I I -0.70710678118654746 0.70710678118654746 1.25 forward I I I I #
loop $-1 $-1 $410 $103 #
coedge $-1 $260 $260 $411 $412 reversed $163 $-1 #
face $-1 $-1 $413 $83 $-1 $414 forward single #
loop $-1 $415 $416 $165 #
cone-surface $-1 54.217543696676536 -20.937056507211604 1.8933320535870273 0 0.70710678939079041 -0.70710677298230451 1.25 0 0 1 I I -0.70710678118654746 0.70710678118654746 1.25 forward I I I I #
loop $-1 $-1 $417 $104 #
coedge $-1 $265 $265 $418 $419 reversed $166 $-1 #
face $-1 $420 $421 $63 $-1 $422 reversed single #
loop $-1 $-1 $423 $168 #
plane-surface $-1 0 -31.834427853328521 0 0 1 0 0 0 1 forward_v I I I I #
coedge $-1 $424 $425 $426 $427 forward $169 $-1 #
coedge $-1 $428 $171 $429 $430 forward $106 $-1 #
coedge $-1 $171 $428 $431 $432 forward $106 $-1 #
coedge $-1 $433 $434 $171 $273 reversed $435 $-1 #
edge $-1 $436 -31.834427853328521 $437 31.834427853328521 $272 $438 forward 7 unknown #
face $-1 $439 $440 $64 $-1 $441 reversed single #
loop $-1 $-1 $442 $172 #
plane-surface $-1 0 0 -12.790703343614346 0 0 1 1 0 0 forward_v I I I I #
coedge $-1 $443 $280 $444 $445 reversed $173 $-1 #
coedge $-1 $446 $175 $447 $448 reversed $109 $-1 #
coedge $-1 $175 $446 $449 $450 reversed $109 $-1 #
coedge $-1 $277 $451 $175 $281 reversed $173 $-1 #
edge $-1 $452 -31.834427853328521 $453 31.834427853328521 $280 $454 forward 7 unknown #
face $-1 $455 $456 $65 $-1 $457 reversed single #
loop $-1 $-1 $458 $176 #
plane-surface $-1 -26.215507464507773 58.277000382548522 142.83438226694747 -1 0 0 0 0.61566148304635926 0.78801074757464917 forward_v I I I I #
coedge $-1 $459 $460 $461 $462 reversed $177 $-1 #
coedge $-1 $287 $179 $463 $464 reversed $112 $-1 #
coedge $-1 $179 $286 $459 $465 reversed $112 $-1 #
coedge $-1 $461 $466 $179 $289 forward $467 $-1 #
edge $-1 $468 -2.6959276620542596 $469 6.5409408627614241 $288 $470 forward 7 unknown #
loop $-1 $-1 $295 $180 #
plane-surface $-1 -34.207015140793466 -18.337314729296764 44.772532713726562 0 0.61566148304635926 0.78801074757464917 1 0 0 forward_v I I I I #
loop $-1 $-1 $471 $114 #
coedge $-1 $293 $293 $294 $472 reversed $181 $-1 #
coedge $-1 $294 $294 $293 $472 forward $183 $-1 #
coedge $-1 $295 $295 $184 $296 forward $290 $-1 #
edge $-1 $473 0 $473 6.2831853071796004 $295 $474 forward 7 unknown #
loop $-1 $-1 $302 $185 #
plane-surface $-1 -34.207015140793466 -18.337314729296764 44.772532713726562 0 0.61566148304635926 0.78801074757464917 1 0 0 forward_v I I I I #
loop $-1 $-1 $475 $117 #
coedge $-1 $300 $300 $301 $476 reversed $186 $-1 #
coedge $-1 $301 $301 $300 $476 forward $188 $-1 #
coedge $-1 $302 $302 $189 $303 forward $297 $-1 #
edge $-1 $477 0 $477 6.2831853071796004 $302 $478 forward 7 unknown #
loop $-1 $-1 $309 $190 #
plane-surface $-1 -34.207015140793466 -18.337314729296764 44.772532713726562 0 0.61566148304635926 0.78801074757464917 1 0 0 forward_v I I I I #
loop $-1 $-1 $479 $120 #
coedge $-1 $307 $307 $308 $480 reversed $191 $-1 #
coedge $-1 $308 $308 $307 $480 forward $193 $-1 #
coedge $-1 $309 $309 $194 $310 forward $304 $-1 #
edge $-1 $481 0 $481 6.2831853071796004 $309 $482 forward 7 unknown #
face $-1 $483 $484 $69 $-1 $485 forward single #
loop $-1 $-1 $486 $195 #
plane-surface $-1 0.12200629400434337 58.277000382548522 142.83438226694747 -1 0 0 0 0.61566148304635926 0.78801074757464917 forward_v I I I I #
coedge $-1 $487 $488 $489 $490 reversed $196 $-1 #
coedge $-1 $316 $198 $491 $492 reversed $124 $-1 #
coedge $-1 $198 $315 $487 $493 reversed $124 $-1 #
coedge $-1 $489 $494 $198 $318 forward $484 $-1 #
edge $-1 $495 -2.6959276620542596 $496 6.5409408627614241 $317 $497 forward 7 unknown #
loop $-1 $-1 $324 $199 #
plane-surface $-1 -7.8695013822813493 -18.337314729296764 44.772532713726562 0 0.61566148304635926 0.78801074757464917 1 0 0 forward_v I I I I #
loop $-1 $-1 $498 $126 #
coedge $-1 $322 $322 $323 $499 reversed $200 $-1 #
coedge $-1 $323 $323 $322 $499 forward $202 $-1 #
coedge $-1 $324 $324 $203 $325 forward $319 $-1 #
edge $-1 $500 0 $500 6.2831853071796004 $324 $501 forward 7 unknown #
loop $-1 $-1 $331 $204 #
plane-surface $-1 -7.8695013822813493 -18.337314729296764 44.772532713726562 0 0.61566148304635926 0.78801074757464917 1 0 0 forward_v I I I I #
loop $-1 $-1 $502 $129 #
coedge $-1 $329 $329 $330 $503 reversed $205 $-1 #
coedge $-1 $330 $330 $329 $503 forward $207 $-1 #
coedge $-1 $331 $331 $208 $332 forward $326 $-1 #
edge $-1 $504 0 $504 6.2831853071796004 $331 $505 forward 7 unknown #
loop $-1 $-1 $338 $209 #
plane-surface $-1 -7.8695013822813493 -18.337314729296764 44.772532713726562 0 0.61566148304635926 0.78801074757464917 1 0 0 forward_v I I I I #
loop $-1 $-1 $506 $132 #
coedge $-1 $336 $336 $337 $507 reversed $210 $-1 #
coedge $-1 $337 $337 $336 $507 forward $212 $-1 #
coedge $-1 $338 $338 $213 $339 forward $333 $-1 #
edge $-1 $508 0 $508 6.2831853071796004 $338 $509 forward 7 unknown #
face $-1 $510 $511 $73 $-1 $512 forward single #
loop $-1 $-1 $513 $214 #
plane-surface $-1 26.45952005251646 58.277000382548522 142.83438226694747 -1 0 0 0 0.61566148304635926 0.78801074757464917 forward_v I I I I #
coedge $-1 $514 $515 $516 $517 reversed $215 $-1 #
coedge $-1 $345 $217 $518 $519 reversed $136 $-1 #
coedge $-1 $217 $344 $514 $520 reversed $136 $-1 #
coedge $-1 $516 $521 $217 $347 forward $511 $-1 #
edge $-1 $522 -2.6959276620542596 $523 6.5409408627614241 $346 $524 forward 7 unknown #
loop $-1 $-1 $353 $218 #
plane-surface $-1 18.468012376230767 -18.337314729296764 44.772532713726562 0 0.61566148304635926 0.78801074757464917 1 0 0 forward_v I I I I #
loop $-1 $-1 $525 $138 #
coedge $-1 $351 $351 $352 $526 reversed $219 $-1 #
coedge $-1 $352 $352 $351 $526 forward $221 $-1 #
coedge $-1 $353 $353 $222 $354 forward $348 $-1 #
edge $-1 $527 0 $527 6.2831853071796004 $353 $528 forward 7 unknown #
loop $-1 $-1 $360 $223 #
plane-surface $-1 18.468012376230767 -18.337314729296764 44.772532713726562 0 0.61566148304635926 0.78801074757464917 1 0 0 forward_v I I I I #
loop $-1 $-1 $529 $141 #
coedge $-1 $358 $358 $359 $530 reversed $224 $-1 #
coedge $-1 $359 $359 $358 $530 forward $226 $-1 #
coedge $-1 $360 $360 $227 $361 forward $355 $-1 #
edge $-1 $531 0 $531 6.2831853071796004 $360 $532 forward 7 unknown #
loop $-1 $-1 $367 $228 #
plane-surface $-1 18.468012376230767 -18.337314729296764 44.772532713726562 0 0.61566148304635926 0.78801074757464917 1 0 0 forward_v I I I I #
loop $-1 $-1 $533 $144 #
coedge $-1 $365 $365 $366 $534 reversed $229 $-1 #
coedge $-1 $366 $366 $365 $534 forward $231 $-1 #
coedge $-1 $367 $367 $232 $368 forward $362 $-1 #
edge $-1 $535 0 $535 6.2831853071796004 $367 $536 forward 7 unknown #
face $-1 $537 $538 $77 $-1 $539 forward single #
loop $-1 $-1 $540 $233 #
plane-surface $-1 52.797033811028577 58.277000382548522 142.83438226694747 -1 0 0 0 0.61566148304635926 0.78801074757464917 forward_v I I I I #
coedge $-1 $541 $542 $543 $544 reversed $234 $-1 #
coedge $-1 $374 $236 $545 $546 reversed $148 $-1 #
coedge $-1 $236 $373 $541 $547 reversed $148 $-1 #
coedge $-1 $543 $548 $236 $376 forward $538 $-1 #
edge $-1 $549 -2.6959276620542596 $550 6.5409408627614241 $375 $551 forward 7 unknown #
loop $-1 $-1 $382 $237 #
plane-surface $-1 44.805526134742884 -18.337314729296764 44.772532713726562 0 0.61566148304635926 0.78801074757464917 1 0 0 forward_v I I I I #
loop $-1 $-1 $552 $150 #
coedge $-1 $380 $380 $381 $553 reversed $238 $-1 #
coedge $-1 $381 $381 $380 $553 forward $240 $-1 #
coedge $-1 $382 $382 $241 $383 forward $377 $-1 #
edge $-1 $554 0 $554 6.2831853071796004 $382 $555 forward 7 unknown #
loop $-1 $-1 $389 $242 #
plane-surface $-1 44.805526134742884 -18.337314729296764 44.772532713726562 0 0.61566148304635926 0.78801074757464917 1 0 0 forward_v I I I I #
loop $-1 $-1 $556 $153 #
coedge $-1 $387 $387 $388 $557 reversed $243 $-1 #
coedge $-1 $388 $388 $387 $557 forward $245 $-1 #
coedge $-1 $389 $389 $246 $390 forward $384 $-1 #
edge $-1 $558 0 $558 6.2831853071796004 $389 $559 forward 7 unknown #
loop $-1 $-1 $396 $247 #
plane-surface $-1 44.805526134742884 -18.337314729296764 44.772532713726562 0 0.61566148304635926 0.78801074757464917 1 0 0 forward_v I I I I #
loop $-1 $-1 $560 $156 #
coedge $-1 $394 $394 $395 $561 reversed $248 $-1 #
coedge $-1 $395 $395 $394 $561 forward $250 $-1 #
coedge $-1 $396 $396 $251 $397 forward $391 $-1 #
edge $-1 $562 0 $562 6.2831853071796004 $396 $563 forward 7 unknown #
face $-1 $564 $565 $81 $-1 $566 forward single #
loop $-1 $-1 $567 $252 #
plane-surface $-1 62.221137119663076 0 0 -1 0 0 0 0 1 forward_v I I I I #
coedge $-1 $568 $569 $570 $571 reversed $253 $-1 #
coedge $-1 $572 $255 $567 $573 reversed $160 $-1 #
coedge $-1 $255 $572 $568 $574 forward $160 $-1 #
coedge $-1 $570 $575 $255 $405 forward $565 $-1 #
edge $-1 $576 -38.113712804944754 $577 -10.101135824491895 $404 $578 forward 7 unknown #
loop $-1 $-1 $411 $256 #
plane-surface $-1 48.214848629436652 -31.834427853328535 4.3104552273623256 0 -0.70710678939079041 0.70710677298230451 1 0 0 forward_v I I I I #
loop $-1 $-1 $579 $162 #
coedge $-1 $409 $409 $410 $580 reversed $257 $-1 #
coedge $-1 $410 $410 $409 $580 forward $259 $-1 #
coedge $-1 $411 $411 $260 $412 forward $406 $-1 #
edge $-1 $581 5.0242945270110763e-016 $581 6.2831853071796013 $411 $582 forward 7 unknown #
loop $-1 $-1 $418 $261 #
plane-surface $-1 48.214848629436652 -31.834427853328535 4.3104552273623256 0 -0.70710678939079041 0.70710677298230451 1 0 0 forward_v I I I I #
loop $-1 $-1 $583 $165 #
coedge $-1 $416 $416 $417 $584 reversed $262 $-1 #
coedge $-1 $417 $417 $416 $584 forward $264 $-1 #
coedge $-1 $418 $418 $265 $419 forward $413 $-1 #
edge $-1 $585 5.0242945270110763e-016 $585 6.2831853071796013 $418 $586 forward 7 unknown #
face $-1 $587 $588 $63 $-1 $589 reversed single #
loop $-1 $-1 $590 $266 #
plane-surface $-1 -62.221137119663076 0 0 1 0 0 0 0 -1 forward_v I I I I #
coedge $-1 $591 $431 $592 $593 forward $267 $-1 #
coedge $-1 $594 $269 $591 $595 forward $169 $-1 #
coedge $-1 $269 $594 $596 $597 forward $169 $-1 #
coedge $-1 $434 $433 $269 $427 reversed $435 $-1 #
edge $-1 $598 -31.834427853328521 $599 31.834427853328521 $426 $600 forward 7 unknown #
coedge $-1 $271 $270 $601 $602 forward $106 $-1 #
coedge $-1 $603 $604 $270 $430 reversed $588 $-1 #
edge $-1 $437 -62.221137119663076 $605 62.221137119663076 $429 $606 forward 7 unknown #
coedge $-1 $423 $607 $271 $432 reversed $267 $-1 #
edge $-1 $608 -62.221137119663076 $436 62.221137119663076 $431 $609 forward 7 unknown #
coedge $-1 $426 $272 $607 $610 forward $435 $-1 #
coedge $-1 $272 $426 $603 $611 reversed $435 $-1 #
loop $-1 $-1 $433 $587 #
vertex $-1 $273 $612 #
vertex $-1 $273 $613 #
straight-curve $-1 62.221137119663076 0 12.790703343614346 0 1 0 I I #
face $-1 $614 $615 $64 $-1 $616 reversed single #
loop $-1 $-1 $444 $274 #
plane-surface $-1 0 -31.834427853328521 0 0 1 0 0 0 1 forward_v I I I I #
coedge $-1 $617 $618 $443 $619 forward $275 $-1 #
coedge $-1 $451 $277 $442 $619 reversed $173 $-1 #
coedge $-1 $449 $620 $277 $445 forward $440 $-1 #
edge $-1 $621 -7.7567279786409458 $452 -2.3112227513058565 $444 $622 forward 7 unknown #
coedge $-1 $279 $278 $623 $624 reversed $109 $-1 #
coedge $-1 $625 $626 $278 $448 forward $627 $-1 #
edge $-1 $628 -33.760196308318896 $453 -23.161685314369475 $447 $629 forward 7 unknown #
coedge $-1 $630 $444 $279 $450 forward $440 $-1 #
edge $-1 $452 23.161685314369475 $631 33.760196308318896 $449 $632 forward 7 unknown #
coedge $-1 $280 $443 $625 $633 reversed $173 $-1 #
vertex $-1 $450 $634 #
vertex $-1 $448 $635 #
straight-curve $-1 -51.622626125713658 0 -7.3451981162792572 0 1 0 I I #
face $-1 $-1 $467 $65 $-1 $636 forward single #
loop $-1 $-1 $637 $282 #
plane-surface $-1 0 31.834427853328521 0 0 -1 0 0 0 -1 forward_v I I I I #
coedge $-1 $638 $639 $640 $641 reversed $283 $-1 #
coedge $-1 $642 $285 $287 $465 forward $177 $-1 #
coedge $-1 $285 $642 $638 $643 forward $177 $-1 #
coedge $-1 $640 $288 $285 $462 forward $467 $-1 #
edge $-1 $469 -25.095015246682426 $644 -9.1119998941110403 $461 $645 forward 7 unknown #
coedge $-1 $646 $647 $286 $464 forward $456 $-1 #
edge $-1 $648 -65.843120547972305 $468 -58.626487789859389 $463 $649 forward 7 unknown #
edge $-1 $469 51.947101208707551 $648 63.668855706657041 $287 $650 forward 7 unknown #
coedge $-1 $288 $640 $646 $651 forward $467 $-1 #
loop $-1 $-1 $640 $455 #
vertex $-1 $464 $652 #
vertex $-1 $289 $653 #
straight-curve $-1 -42.198522817079159 29.138500191274261 12.790703343614354 0 -1 0 I I #
coedge $-1 $471 $471 $-1 $654 reversed $292 $-1 #
edge $-1 $655 0 $655 6.2831853071796004 $293 $656 forward 7 unknown #
vertex $-1 $296 $657 #
ellipse-curve $-1 -39.00191974656488 27.215993590920679 9.1823869645578924 0 0.61566148304635926 0.78801074757464917 1 0 0 1 I I #
coedge $-1 $475 $475 $-1 $658 reversed $299 $-1 #
edge $-1 $659 0 $659 6.2831853071796004 $300 $660 forward 7 unknown #
vertex $-1 $303 $661 #
ellipse-curve $-1 -34.207015140793466 27.215993590920679 9.1823869645578924 0 0.61566148304635926 0.78801074757464917 1 0 0 1 I I #
coedge $-1 $479 $479 $-1 $662 reversed $306 $-1 #
edge $-1 $663 0 $663 6.2831853071796004 $307 $664 forward 7 unknown #
vertex $-1 $310 $665 #
ellipse-curve $-1 -29.412110535022052 27.215993590920679 9.1823869645578924 0 0.61566148304635926 0.78801074757464917 1 0 0 1 I I #
face $-1 $-1 $666 $69 $-1 $667 reversed single #
loop $-1 $-1 $317 $311 #
plane-surface $-1 0 0 12.790703343614346 0 0 1 1 0 0 forward_v I I I I #
coedge $-1 $668 $669 $670 $671 reversed $312 $-1 #
coedge $-1 $672 $314 $316 $493 forward $196 $-1 #
coedge $-1 $314 $672 $668 $673 forward $196 $-1 #
coedge $-1 $670 $317 $314 $490 forward $484 $-1 #
edge $-1 $496 -11.926258367426367 $674 4.056756985145018 $489 $675 forward 7 unknown #
coedge $-1 $676 $677 $315 $492 forward $666 $-1 #
edge $-1 $678 -65.843120547972305 $495 -58.626487789859389 $491 $679 forward 7 unknown #
edge $-1 $496 51.947101208707551 $678 63.668855706657041 $316 $680 forward 7 unknown #
coedge $-1 $317 $670 $676 $681 forward $484 $-1 #
vertex $-1 $318 $682 #
vertex $-1 $318 $683 #
straight-curve $-1 -15.861009058567042 29.138500191274261 12.790703343614354 0 -1 0 I I #
coedge $-1 $498 $498 $-1 $684 reversed $321 $-1 #
edge $-1 $685 0 $685 6.2831853071796004 $322 $686 forward 7 unknown #
vertex $-1 $325 $687 #
ellipse-curve $-1 -12.664405988052764 27.215993590920679 9.1823869645578924 0 0.61566148304635926 0.78801074757464917 1 0 0 1 I I #
coedge $-1 $502 $502 $-1 $688 reversed $328 $-1 #
edge $-1 $689 0 $689 6.2831853071796004 $329 $690 forward 7 unknown #
vertex $-1 $332 $691 #
ellipse-curve $-1 -7.8695013822813493 27.215993590920679 9.1823869645578924 0 0.61566148304635926 0.78801074757464917 1 0 0 1 I I #
coedge $-1 $506 $506 $-1 $692 reversed $335 $-1 #
edge $-1 $693 0 $693 6.2831853071796004 $336 $694 forward 7 unknown #
vertex $-1 $339 $695 #
ellipse-curve $-1 -3.0745967765099351 27.215993590920679 9.1823869645578924 0 0.61566148304635926 0.78801074757464917 1 0 0 1 I I #
face $-1 $-1 $696 $73 $-1 $697 reversed single #
loop $-1 $-1 $346 $340 #
plane-surface $-1 0 0 12.790703343614346 0 0 1 1 0 0 forward_v I I I I #
coedge $-1 $698 $699 $700 $701 reversed $341 $-1 #
coedge $-1 $702 $343 $345 $520 forward $215 $-1 #
coedge $-1 $343 $702 $698 $703 forward $215 $-1 #
coedge $-1 $700 $346 $343 $517 forward $511 $-1 #
edge $-1 $523 1.242498511829691 $704 17.225513864401076 $516 $705 forward 7 unknown #
coedge $-1 $706 $707 $344 $519 forward $696 $-1 #
edge $-1 $708 -65.843120547972305 $522 -58.626487789859389 $518 $709 forward 7 unknown #
edge $-1 $523 51.947101208707551 $708 63.668855706657041 $345 $710 forward 7 unknown #
coedge $-1 $346 $700 $706 $711 forward $511 $-1 #
vertex $-1 $347 $712 #
vertex $-1 $347 $713 #
straight-curve $-1 10.476504699945075 29.138500191274261 12.790703343614354 0 -1 0 I I #
coedge $-1 $525 $525 $-1 $714 reversed $350 $-1 #
edge $-1 $715 0 $715 6.2831853071796004 $351 $716 forward 7 unknown #
vertex $-1 $354 $717 #
ellipse-curve $-1 13.673107770459346 27.215993590920679 9.1823869645578924 0 0.61566148304635926 0.78801074757464917 1 0 0 1 I I #
coedge $-1 $529 $529 $-1 $718 reversed $357 $-1 #
edge $-1 $719 0 $719 6.2831853071796004 $358 $720 forward 7 unknown #
vertex $-1 $361 $721 #
ellipse-curve $-1 18.468012376230767 27.215993590920679 9.1823869645578924 0 0.61566148304635926 0.78801074757464917 1 0 0 1 I I #
coedge $-1 $533 $533 $-1 $722 reversed $364 $-1 #
edge $-1 $723 0 $723 6.2831853071796004 $365 $724 forward 7 unknown #
vertex $-1 $368 $725 #
ellipse-curve $-1 23.262916982002189 27.215993590920679 9.1823869645578924 0 0.61566148304635926 0.78801074757464917 1 0 0 1 I I #
face $-1 $-1 $726 $77 $-1 $727 reversed single #
loop $-1 $-1 $375 $369 #
plane-surface $-1 0 0 12.790703343614346 0 0 1 1 0 0 forward_v I I I I #
coedge $-1 $728 $729 $730 $731 reversed $370 $-1 #
coedge $-1 $732 $372 $374 $547 forward $234 $-1 #
coedge $-1 $372 $732 $728 $733 forward $234 $-1 #
coedge $-1 $730 $375 $372 $544 forward $538 $-1 #
edge $-1 $550 14.411255391085749 $734 30.394270743657135 $543 $735 forward 7 unknown #
coedge $-1 $736 $737 $373 $546 forward $726 $-1 #
edge $-1 $738 -65.843120547972305 $549 -58.626487789859389 $545 $739 forward 7 unknown #
edge $-1 $550 51.947101208707551 $738 63.668855706657041 $374 $740 forward 7 unknown #
coedge $-1 $375 $730 $736 $741 forward $538 $-1 #
vertex $-1 $376 $742 #
vertex $-1 $376 $743 #
straight-curve $-1 36.814018458457191 29.138500191274261 12.790703343614354 0 -1 0 I I #
coedge $-1 $552 $552 $-1 $744 reversed $379 $-1 #
edge $-1 $745 0 $745 6.2831853071796004 $380 $746 forward 7 unknown #
vertex $-1 $383 $747 #
ellipse-curve $-1 40.010621528971463 27.215993590920679 9.1823869645578924 0 0.61566148304635926 0.78801074757464917 1 0 0 1 I I #
coedge $-1 $556 $556 $-1 $748 reversed $386 $-1 #
edge $-1 $749 0 $749 6.2831853071796004 $387 $750 forward 7 unknown #
vertex $-1 $390 $751 #
ellipse-curve $-1 44.805526134742884 27.215993590920679 9.1823869645578924 0 0.61566148304635926 0.78801074757464917 1 0 0 1 I I #
coedge $-1 $560 $560 $-1 $752 reversed $393 $-1 #
edge $-1 $753 0 $753 6.2831853071796004 $394 $754 forward 7 unknown #
vertex $-1 $397 $755 #
ellipse-curve $-1 49.600430740514305 27.215993590920679 9.1823869645578924 0 0.61566148304635926 0.78801074757464917 1 0 0 1 I I #
face $-1 $-1 $756 $81 $-1 $757 reversed single #
loop $-1 $-1 $404 $398 #
plane-surface $-1 0 0 12.790703343614346 0 0 1 1 0 0 forward_v I I I I #
coedge $-1 $758 $759 $402 $573 forward $399 $-1 #
coedge $-1 $569 $401 $403 $574 reversed $253 $-1 #
coedge $-1 $401 $568 $760 $761 reversed $253 $-1 #
coedge $-1 $762 $404 $401 $571 forward $565 $-1 #
edge $-1 $577 -36.560022493731815 $763 -28.079774574264839 $570 $764 forward 7 unknown #
coedge $-1 $403 $402 $765 $766 reversed $160 $-1 #
edge $-1 $767 -9.731193696236085 $576 2.2616880629083669 $567 $768 forward 7 unknown #
edge $-1 $769 2.0097183471152325e-014 $577 11.992881759144474 $568 $770 forward 7 unknown #
coedge $-1 $404 $762 $758 $771 forward $565 $-1 #
vertex $-1 $405 $772 #
vertex $-1 $405 $773 #
straight-curve $-1 24.107424314718326 -23.354179933861545 12.790703343614346 -1 0 0 I I #
coedge $-1 $579 $579 $-1 $774 reversed $408 $-1 #
edge $-1 $775 0 $775 6.2831853071796004 $409 $776 forward 7 unknown #
vertex $-1 $412 $777 #
ellipse-curve $-1 42.21215356219674 -27.594303893595033 8.5505792854883431 0 -0.70710678939079041 0.70710677298230451 2.5 0 0 1 I I #
coedge $-1 $583 $583 $-1 $778 reversed $415 $-1 #
edge $-1 $779 0 $779 6.2831853071796004 $416 $780 forward 7 unknown #
vertex $-1 $419 $781 #
ellipse-curve $-1 54.217543696676536 -27.594303893595033 8.5505792854883431 0 -0.70710678939079041 0.70710677298230451 2.5 0 0 1 I I #
face $-1 $-1 $435 $63 $-1 $782 reversed single #
loop $-1 $-1 $603 $420 #
plane-surface $-1 0 31.834427853328521 0 0 -1 0 0 0 -1 forward_v I I I I #
coedge $-1 $783 $601 $604 $784 forward $421 $-1 #
coedge $-1 $607 $423 $424 $595 reversed $267 $-1 #
coedge $-1 $601 $783 $423 $593 reversed $421 $-1 #
edge $-1 $608 -12.790703343614346 $785 12.790703343614346 $592 $786 forward 7 unknown #
coedge $-1 $425 $424 $783 $787 forward $169 $-1 #
edge $-1 $599 -62.221137119663076 $785 62.221137119663076 $591 $788 forward 7 unknown #
coedge $-1 $604 $603 $425 $597 reversed $588 $-1 #
edge $-1 $789 -62.221137119663076 $598 62.221137119663076 $596 $790 forward 7 unknown #
vertex $-1 $427 $791 #
vertex $-1 $610 $792 #
straight-curve $-1 62.221137119663076 0 -12.790703343614346 0 -1 0 I I #
coedge $-1 $590 $592 $428 $602 reversed $421 $-1 #
edge $-1 $605 -31.834427853328521 $608 31.834427853328521 $601 $793 forward 7 unknown #
coedge $-1 $596 $429 $434 $611 forward $588 $-1 #
coedge $-1 $429 $596 $590 $784 reversed $588 $-1 #
vertex $-1 $430 $794 #
straight-curve $-1 0 31.834427853328521 12.790703343614346 -1 0 0 I I #
coedge $-1 $431 $591 $433 $610 reversed $267 $-1 #
vertex $-1 $602 $795 #
straight-curve $-1 0 -31.834427853328521 12.790703343614346 1 0 0 I I #
edge $-1 $436 -12.790703343614346 $599 12.790703343614346 $433 $796 forward 7 unknown #
edge $-1 $437 -12.790703343614346 $598 12.790703343614346 $434 $797 forward 7 unknown #
point $-1 62.221137119663076 -31.834427853328521 12.790703343614346 #
point $-1 62.221137119663076 31.834427853328521 12.790703343614346 #
face $-1 $-1 $627 $64 $-1 $798 reversed single #
loop $-1 $-1 $623 $439 #
plane-surface $-1 -62.221137119663076 0 0 1 0 0 0 0 -1 forward_v I I I I #
coedge $-1 $799 $442 $620 $800 forward $275 $-1 #
coedge $-1 $442 $799 $801 $802 forward $275 $-1 #
edge $-1 $803 -31.834427853328521 $621 31.834427853328521 $442 $804 forward 7 unknown #
coedge $-1 $444 $630 $617 $800 reversed $440 $-1 #
vertex $-1 $800 $805 #
straight-curve $-1 -51.622626125713658 -31.834427853328521 -5.0339753649734007 0 0 1 I I #
coedge $-1 $806 $807 $446 $624 forward $615 $-1 #
edge $-1 $631 -31.834427853328521 $628 31.834427853328521 $623 $808 forward 7 unknown #
coedge $-1 $801 $447 $451 $633 forward $627 $-1 #
coedge $-1 $447 $801 $806 $809 reversed $627 $-1 #
loop $-1 $-1 $625 $614 #
vertex $-1 $809 $810 #
straight-curve $-1 -28.460940811344184 31.834427853328521 -7.3451981162792572 1 0 0 I I #
coedge $-1 $620 $449 $807 $811 forward $440 $-1 #
vertex $-1 $811 $812 #
straight-curve $-1 -28.460940811344184 -31.834427853328521 -7.3451981162792572 -1 0 0 I I #
edge $-1 $453 2.3112227513058565 $803 7.7567279786409458 $625 $813 forward 7 unknown #
point $-1 -51.622626125713658 -31.834427853328521 -7.3451981162792572 #
point $-1 -51.622626125713658 31.834427853328521 -7.3451981162792572 #
plane-surface $-1 0 0 12.790703343614346 0 0 1 1 0 0 forward_v I I I I #
coedge $-1 $647 $646 $639 $814 forward $456 $-1 #
coedge $-1 $639 $458 $460 $643 reversed $283 $-1 #
coedge $-1 $458 $638 $637 $814 reversed $283 $-1 #
coedge $-1 $466 $461 $458 $641 forward $467 $-1 #
edge $-1 $644 -6.5409408627614241 $815 2.6959276620542596 $640 $816 forward 7 unknown #
coedge $-1 $460 $459 $647 $817 reversed $177 $-1 #
edge $-1 $818 -63.668855706657041 $644 -51.947101208707551 $638 $819 forward 7 unknown #
vertex $-1 $462 $820 #
straight-curve $-1 -17.103507570396733 22.597559328512837 12.790703343614346 1 0 0 I I #
coedge $-1 $637 $463 $466 $651 reversed $456 $-1 #
coedge $-1 $463 $637 $642 $817 forward $456 $-1 #
vertex $-1 $464 $821 #
straight-curve $-1 -42.198522817079159 31.834427853328521 71.417191133473736 0 0 1 I I #
straight-curve $-1 -42.198522817079159 -18.337314729296764 44.772532713726562 0 0.78801074757464917 -0.61566148304635926 I I #
edge $-1 $815 26.215507464507773 $468 42.198522817079159 $646 $822 forward 7 unknown #
point $-1 -42.198522817079159 31.834427853328521 12.790703343614346 #
point $-1 -42.198522817079159 22.597559328512837 12.790703343614346 #
edge $-1 $823 1 $823 0 $471 $-1 forward 7 unknown #
vertex $-1 $472 $824 #
ellipse-curve $-1 -39.00191974656488 25.783345731159276 7.3486813616092101 0 0.61566148304635926 0.78801074757464917 1 0 0 1 I I #
point $-1 -38.00191974656488 27.215993590920679 9.1823869645578924 #
edge $-1 $825 1 $825 0 $475 $-1 forward 7 unknown #
vertex $-1 $476 $826 #
ellipse-curve $-1 -34.207015140793466 25.783345731159276 7.3486813616092101 0 0.61566148304635926 0.78801074757464917 1 0 0 1 I I #
point $-1 -33.207015140793466 27.215993590920679 9.1823869645578924 #
edge $-1 $827 1 $827 0 $479 $-1 forward 7 unknown #
vertex $-1 $480 $828 #
ellipse-curve $-1 -29.412110535022052 25.783345731159276 7.3486813616092101 0 0.61566148304635926 0.78801074757464917 1 0 0 1 I I #
point $-1 -28.412110535022052 27.215993590920679 9.1823869645578924 #
loop $-1 $-1 $491 $483 #
plane-surface $-1 0 31.834427853328521 0 0 -1 0 0 0 -1 forward_v I I I I #
coedge $-1 $669 $486 $488 $673 reversed $312 $-1 #
coedge $-1 $486 $668 $829 $830 reversed $312 $-1 #
coedge $-1 $494 $489 $486 $671 forward $484 $-1 #
edge $-1 $674 -6.5409408627614241 $831 2.6959276620542596 $670 $832 forward 7 unknown #
coedge $-1 $488 $487 $677 $833 reversed $196 $-1 #
edge $-1 $834 -63.668855706657041 $674 -51.947101208707551 $668 $835 forward 7 unknown #
vertex $-1 $490 $836 #
straight-curve $-1 -3.9347506911406747 22.597559328512837 12.790703343614346 1 0 0 I I #
coedge $-1 $829 $491 $494 $681 reversed $666 $-1 #
coedge $-1 $491 $829 $672 $833 forward $666 $-1 #
vertex $-1 $492 $837 #
straight-curve $-1 -15.861009058567042 31.834427853328521 71.417191133473736 0 0 1 I I #
straight-curve $-1 -15.861009058567042 -18.337314729296764 44.772532713726562 0 0.78801074757464917 -0.61566148304635926 I I #
edge $-1 $831 -0.12200629400434337 $495 15.861009058567042 $676 $838 forward 7 unknown #
point $-1 -15.861009058567042 31.834427853328521 12.790703343614346 #
point $-1 -15.861009058567042 22.597559328512837 12.790703343614346 #
edge $-1 $839 1 $839 0 $498 $-1 forward 7 unknown #
vertex $-1 $499 $840 #
ellipse-curve $-1 -12.664405988052764 25.783345731159276 7.3486813616092101 0 0.61566148304635926 0.78801074757464917 1 0 0 1 I I #
point $-1 -11.664405988052764 27.215993590920679 9.1823869645578924 #
edge $-1 $841 1 $841 0 $502 $-1 forward 7 unknown #
vertex $-1 $503 $842 #
ellipse-curve $-1 -7.8695013822813493 25.783345731159276 7.3486813616092101 0 0.61566148304635926 0.78801074757464917 1 0 0 1 I I #
point $-1 -6.8695013822813493 27.215993590920679 9.1823869645578924 #
edge $-1 $843 1 $843 0 $506 $-1 forward 7 unknown #
vertex $-1 $507 $844 #
ellipse-curve $-1 -3.0745967765099351 25.783345731159276 7.3486813616092101 0 0.61566148304635926 0.78801074757464917 1 0 0 1 I I #
point $-1 -2.0745967765099351 27.215993590920679 9.1823869645578924 #
loop $-1 $-1 $518 $510 #
plane-surface $-1 0 31.834427853328521 0 0 -1 0 0 0 -1 forward_v I I I I #
coedge $-1 $699 $513 $515 $703 reversed $341 $-1 #
coedge $-1 $513 $698 $845 $846 reversed $341 $-1 #
coedge $-1 $521 $516 $513 $701 forward $511 $-1 #
edge $-1 $704 -6.5409408627614241 $847 2.6959276620542596 $700 $848 forward 7 unknown #
coedge $-1 $515 $514 $707 $849 reversed $215 $-1 #
edge $-1 $850 -63.668855706657041 $704 -51.947101208707551 $698 $851 forward 7 unknown #
vertex $-1 $517 $852 #
straight-curve $-1 9.2340061881153837 22.597559328512837 12.790703343614346 1 0 0 I I #
coedge $-1 $845 $518 $521 $711 reversed $696 $-1 #
coedge $-1 $518 $845 $702 $849 forward $696 $-1 #
vertex $-1 $519 $853 #
straight-curve $-1 10.476504699945075 31.834427853328521 71.417191133473736 0 0 1 I I #
straight-curve $-1 10.476504699945075 -18.337314729296764 44.772532713726562 0 0.78801074757464917 -0.61566148304635926 I I #
edge $-1 $847 -26.45952005251646 $522 -10.476504699945075 $706 $854 forward 7 unknown #
point $-1 10.476504699945075 31.834427853328521 12.790703343614346 #
point $-1 10.476504699945075 22.597559328512837 12.790703343614346 #
edge $-1 $855 1 $855 0 $525 $-1 forward 7 unknown #
vertex $-1 $526 $856 #
ellipse-curve $-1 13.673107770459346 25.783345731159276 7.3486813616092101 0 0.61566148304635926 0.78801074757464917 1 0 0 1 I I #
point $-1 14.673107770459346 27.215993590920679 9.1823869645578924 #
edge $-1 $857 1 $857 0 $529 $-1 forward 7 unknown #
vertex $-1 $530 $858 #
ellipse-curve $-1 18.468012376230767 25.783345731159276 7.3486813616092101 0 0.61566148304635926 0.78801074757464917 1 0 0 1 I I #
point $-1 19.468012376230767 27.215993590920679 9.1823869645578924 #
edge $-1 $859 1 $859 0 $533 $-1 forward 7 unknown #
vertex $-1 $534 $860 #
ellipse-curve $-1 23.262916982002189 25.783345731159276 7.3486813616092101 0 0.61566148304635926 0.78801074757464917 1 0 0 1 I I #
point $-1 24.262916982002189 27.215993590920679 9.1823869645578924 #
loop $-1 $-1 $545 $537 #
plane-surface $-1 0 31.834427853328521 0 0 -1 0 0 0 -1 forward_v I I I I #
coedge $-1 $729 $540 $542 $733 reversed $370 $-1 #
coedge $-1 $540 $728 $861 $862 reversed $370 $-1 #
coedge $-1 $548 $543 $540 $731 forward $538 $-1 #
edge $-1 $734 -6.5409408627614241 $863 2.6959276620542596 $730 $864 forward 7 unknown #
coedge $-1 $542 $541 $737 $865 reversed $234 $-1 #
edge $-1 $866 -63.668855706657041 $734 -51.947101208707551 $728 $867 forward 7 unknown #
vertex $-1 $544 $868 #
straight-curve $-1 22.402763067371442 22.597559328512837 12.790703343614346 1 0 0 I I #
coedge $-1 $861 $545 $548 $741 reversed $726 $-1 #
coedge $-1 $545 $861 $732 $865 forward $726 $-1 #
vertex $-1 $546 $869 #
straight-curve $-1 36.814018458457191 31.834427853328521 71.417191133473736 0 0 1 I I #
straight-curve $-1 36.814018458457191 -18.337314729296764 44.772532713726562 0 0.78801074757464917 -0.61566148304635926 I I #
edge $-1 $863 -52.797033811028577 $549 -36.814018458457191 $736 $870 forward 7 unknown #
point $-1 36.814018458457191 31.834427853328521 12.790703343614346 #
point $-1 36.814018458457191 22.597559328512837 12.790703343614346 #
edge $-1 $871 1 $871 0 $552 $-1 forward 7 unknown #
vertex $-1 $553 $872 #
ellipse-curve $-1 40.010621528971463 25.783345731159276 7.3486813616092101 0 0.61566148304635926 0.78801074757464917 1 0 0 1 I I #
point $-1 41.010621528971463 27.215993590920679 9.1823869645578924 #
edge $-1 $873 1 $873 0 $556 $-1 forward 7 unknown #
vertex $-1 $557 $874 #
ellipse-curve $-1 44.805526134742884 25.783345731159276 7.3486813616092101 0 0.61566148304635926 0.78801074757464917 1 0 0 1 I I #
point $-1 45.805526134742884 27.215993590920679 9.1823869645578924 #
edge $-1 $875 1 $875 0 $560 $-1 forward 7 unknown #
vertex $-1 $561 $876 #
ellipse-curve $-1 49.600430740514305 25.783345731159276 7.3486813616092101 0 0.61566148304635926 0.78801074757464917 1 0 0 1 I I #
point $-1 50.600430740514305 27.215993590920679 9.1823869645578924 #
loop $-1 $-1 $765 $564 #
plane-surface $-1 0 -31.834427853328521 0 0 1 0 0 0 1 forward_v I I I I #
coedge $-1 $759 $567 $575 $771 reversed $399 $-1 #
coedge $-1 $567 $758 $877 $878 forward $399 $-1 #
coedge $-1 $765 $879 $569 $761 forward $756 $-1 #
edge $-1 $763 33.361511750041252 $769 41.841759866293259 $760 $880 forward 7 unknown #
coedge $-1 $575 $570 $879 $881 forward $565 $-1 #
vertex $-1 $881 $882 #
straight-curve $-1 34.208560139210221 -59.914202427593359 12.790703343614346 0 -1 0 I I #
coedge $-1 $877 $760 $572 $766 forward $756 $-1 #
edge $-1 $769 10.101135824491895 $767 38.113712804944754 $765 $883 forward 7 unknown #
vertex $-1 $766 $884 #
straight-curve $-1 62.221137119663076 -24.953434881517278 11.191448358847735 0 0.70710677298230462 0.70710678939079052 I I #
vertex $-1 $766 $885 #
straight-curve $-1 34.208560139210221 -31.834427853328535 4.3104552273623256 0 0.70710677298230451 0.70710678939079041 I I #
edge $-1 $886 -31.834427853328521 $576 -23.354179933861545 $758 $887 forward 7 unknown #
point $-1 62.221137119663084 -23.354179933861545 12.790703343614346 #
point $-1 34.208560139210221 -23.354179933861545 12.790703343614346 #
edge $-1 $888 1 $888 0 $579 $-1 forward 7 unknown #
vertex $-1 $580 $889 #
ellipse-curve $-1 42.21215356219674 -21.820939993950091 2.777215519814908 0 -0.70710678939079041 0.70710677298230451 2.5 0 0 1 I I #
point $-1 44.71215356219674 -27.594303893595011 8.5505792854883236 #
edge $-1 $890 1 $890 0 $583 $-1 forward 7 unknown #
vertex $-1 $584 $891 #
ellipse-curve $-1 54.217543696676536 -21.820939993950091 2.777215519814908 0 -0.70710678939079041 0.70710677298230451 2.5 0 0 1 I I #
point $-1 56.717543696676536 -27.594303893595011 8.5505792854883236 #
plane-surface $-1 62.221137119663076 0 0 -1 0 0 0 0 1 forward_v I I I I #
coedge $-1 $592 $590 $594 $787 reversed $421 $-1 #
edge $-1 $605 -12.790703343614346 $789 12.790703343614346 $604 $892 forward 7 unknown #
vertex $-1 $787 $893 #
straight-curve $-1 -62.221137119663076 -31.834427853328521 0 0 0 -1 I I #
edge $-1 $785 -31.834427853328521 $789 31.834427853328521 $783 $894 forward 7 unknown #
straight-curve $-1 0 -31.834427853328521 -12.790703343614346 -1 0 0 I I #
vertex $-1 $597 $895 #
straight-curve $-1 0 31.834427853328521 -12.790703343614346 1 0 0 I I #
point $-1 62.221137119663076 31.834427853328521 -12.790703343614346 #
point $-1 62.221137119663076 -31.834427853328521 -12.790703343614346 #
straight-curve $-1 -62.221137119663076 0 12.790703343614346 0 -1 0 I I #
point $-1 -62.221137119663076 31.834427853328521 12.790703343614346 #
point $-1 -62.221137119663076 -31.834427853328521 12.790703343614346 #
straight-curve $-1 62.221137119663076 -31.834427853328521 0 0 0 -1 I I #
straight-curve $-1 62.221137119663076 31.834427853328521 0 0 0 -1 I I #
plane-surface $-1 0 31.834427853328521 0 0 -1 0 0 0 -1 forward_v I I I I #
coedge $-1 $618 $617 $896 $897 forward $275 $-1 #
edge $-1 $621 51.622626125713658 $898 62.221137119663076 $620 $899 forward 7 unknown #
coedge $-1 $626 $625 $618 $802 reversed $627 $-1 #
edge $-1 $900 -62.221137119663076 $803 -51.622626125713658 $801 $901 forward 7 unknown #
vertex $-1 $633 $902 #
straight-curve $-1 -51.622626125713658 0 -12.790703343614346 0 -1 0 I I #
point $-1 -51.622626125713658 -31.834427853328521 -12.790703343614346 #
coedge $-1 $896 $623 $626 $809 forward $615 $-1 #
coedge $-1 $623 $896 $630 $811 reversed $615 $-1 #
straight-curve $-1 -62.221137119663076 0 -7.3451981162792572 0 1 0 I I #
edge $-1 $628 7.3451981162792572 $900 12.790703343614346 $626 $903 forward 7 unknown #
point $-1 -62.221137119663076 31.834427853328521 -7.3451981162792572 #
edge $-1 $631 7.3451981162792572 $898 12.790703343614346 $807 $904 forward 7 unknown #
point $-1 -62.221137119663076 -31.834427853328521 -7.3451981162792572 #
straight-curve $-1 -51.622626125713658 31.834427853328521 -5.0339753649734007 0 0 -1 I I #
edge $-1 $815 58.626487789859389 $818 65.843120547972305 $637 $905 forward 7 unknown #
vertex $-1 $651 $906 #
straight-curve $-1 -26.215507464507773 29.138500191274261 12.790703343614354 0 1 0 I I #
edge $-1 $818 9.1119998941110403 $648 25.095015246682426 $647 $907 forward 7 unknown #
vertex $-1 $817 $908 #
straight-curve $-1 -26.215507464507773 -18.337314729296764 44.772532713726562 0 -0.78801074757464917 0.61566148304635926 I I #
point $-1 -26.215507464507773 22.597559328512837 12.790703343614346 #
point $-1 -42.198522817079159 31.834427853328521 5.5740705855014312 #
straight-curve $-1 0 31.834427853328521 12.790703343614346 -1 0 0 I I #
vertex $-1 $654 $909 #
point $-1 -38.00191974656488 25.783345731159276 7.3486813616092101 #
vertex $-1 $658 $910 #
point $-1 -33.207015140793466 25.783345731159276 7.3486813616092101 #
vertex $-1 $662 $911 #
point $-1 -28.412110535022052 25.783345731159276 7.3486813616092101 #
coedge $-1 $677 $676 $669 $830 forward $666 $-1 #
edge $-1 $831 58.626487789859389 $834 65.843120547972305 $829 $912 forward 7 unknown #
vertex $-1 $681 $913 #
straight-curve $-1 0.12200629400434337 29.138500191274261 12.790703343614354 0 1 0 I I #
edge $-1 $834 -4.056756985145018 $678 11.926258367426367 $677 $914 forward 7 unknown #
vertex $-1 $833 $915 #
straight-curve $-1 0.12200629400434337 -18.337314729296764 44.772532713726562 0 -0.78801074757464917 0.61566148304635926 I I #
point $-1 0.12200629400434337 22.597559328512837 12.790703343614346 #
point $-1 -15.861009058567042 31.834427853328521 5.5740705855014312 #
straight-curve $-1 0 31.834427853328521 12.790703343614346 -1 0 0 I I #
vertex $-1 $684 $916 #
point $-1 -11.664405988052764 25.783345731159276 7.3486813616092101 #
vertex $-1 $688 $917 #
point $-1 -6.8695013822813493 25.783345731159276 7.3486813616092101 #
vertex $-1 $692 $918 #
point $-1 -2.0745967765099351 25.783345731159276 7.3486813616092101 #
coedge $-1 $707 $706 $699 $846 forward $696 $-1 #
edge $-1 $847 58.626487789859389 $850 65.843120547972305 $845 $919 forward 7 unknown #
vertex $-1 $711 $920 #
straight-curve $-1 26.45952005251646 29.138500191274261 12.790703343614354 0 1 0 I I #
edge $-1 $850 -17.225513864401076 $708 -1.242498511829691 $707 $921 forward 7 unknown #
vertex $-1 $849 $922 #
straight-curve $-1 26.45952005251646 -18.337314729296764 44.772532713726562 0 -0.78801074757464917 0.61566148304635926 I I #
point $-1 26.45952005251646 22.597559328512837 12.790703343614346 #
point $-1 10.476504699945075 31.834427853328521 5.5740705855014312 #
straight-curve $-1 0 31.834427853328521 12.790703343614346 -1 0 0 I I #
vertex $-1 $714 $923 #
point $-1 14.673107770459346 25.783345731159276 7.3486813616092101 #
vertex $-1 $718 $924 #
point $-1 19.468012376230767 25.783345731159276 7.3486813616092101 #
vertex $-1 $722 $925 #
point $-1 24.262916982002189 25.783345731159276 7.3486813616092101 #
coedge $-1 $737 $736 $729 $862 forward $726 $-1 #
edge $-1 $863 58.626487789859389 $866 65.843120547972305 $861 $926 forward 7 unknown #
vertex $-1 $741 $927 #
straight-curve $-1 52.797033811028577 29.138500191274261 12.790703343614354 0 1 0 I I #
edge $-1 $866 -30.394270743657135 $738 -14.411255391085749 $737 $928 forward 7 unknown #
vertex $-1 $865 $929 #
straight-curve $-1 52.797033811028577 -18.337314729296764 44.772532713726562 0 -0.78801074757464917 0.61566148304635926 I I #
point $-1 52.797033811028577 22.597559328512837 12.790703343614346 #
point $-1 36.814018458457191 31.834427853328521 5.5740705855014312 #
straight-curve $-1 0 31.834427853328521 12.790703343614346 -1 0 0 I I #
vertex $-1 $744 $930 #
point $-1 41.010621528971463 25.783345731159276 7.3486813616092101 #
vertex $-1 $748 $931 #
point $-1 45.805526134742884 25.783345731159276 7.3486813616092101 #
vertex $-1 $752 $932 #
point $-1 50.600430740514305 25.783345731159276 7.3486813616092101 #
coedge $-1 $879 $765 $759 $878 reversed $756 $-1 #
edge $-1 $886 -12.790703343614346 $767 -4.3104552273623398 $759 $933 forward 7 unknown #
coedge $-1 $760 $877 $762 $881 reversed $756 $-1 #
straight-curve $-1 34.208560139210221 -31.834427853328521 46.152215093655599 0 0 -1 I I #
edge $-1 $763 34.208560139210221 $886 62.221137119663076 $879 $934 forward 7 unknown #
point $-1 34.208560139210221 -31.834427853328521 12.790703343614346 #
straight-curve $-1 24.107424314718326 -31.834427853328521 4.3104552273623362 1 0 0 I I #
point $-1 62.221137119663084 -31.834427853328521 4.3104552273623398 #
point $-1 34.208560139210221 -31.834427853328521 4.3104552273623398 #
vertex $-1 $771 $935 #
straight-curve $-1 62.221137119663076 0 12.790703343614346 0 1 0 I I #
vertex $-1 $774 $936 #
point $-1 44.71215356219674 -21.820939993950091 2.777215519814908 #
vertex $-1 $778 $937 #
point $-1 56.717543696676536 -21.820939993950091 2.777215519814908 #
straight-curve $-1 -62.221137119663076 31.834427853328521 0 0 0 -1 I I #
point $-1 -62.221137119663076 -31.834427853328521 -12.790703343614346 #
straight-curve $-1 -62.221137119663076 0 -12.790703343614346 0 1 0 I I #
point $-1 -62.221137119663076 31.834427853328521 -12.790703343614346 #
coedge $-1 $807 $806 $799 $897 reversed $615 $-1 #
edge $-1 $898 -31.834427853328521 $900 31.834427853328521 $896 $938 forward 7 unknown #
vertex $-1 $897 $939 #
straight-curve $-1 0 -31.834427853328521 -12.790703343614346 -1 0 0 I I #
vertex $-1 $802 $940 #
straight-curve $-1 0 31.834427853328521 -12.790703343614346 1 0 0 I I #
point $-1 -51.622626125713658 31.834427853328521 -12.790703343614346 #
straight-curve $-1 -62.221137119663076 31.834427853328521 0 0 0 -1 I I #
straight-curve $-1 -62.221137119663076 -31.834427853328521 0 0 0 -1 I I #
straight-curve $-1 -26.215507464507773 31.834427853328521 71.417191133473736 0 0 -1 I I #
point $-1 -26.215507464507773 31.834427853328521 12.790703343614346 #
straight-curve $-1 -17.103507570396733 31.834427853328524 5.5740705855014312 -1 0 0 I I #
point $-1 -26.215507464507773 31.834427853328521 5.5740705855014312 #
point $-1 -39.00191974656488 25.167684248112916 6.5606706140345628 #
point $-1 -34.207015140793466 25.167684248112916 6.5606706140345628 #
point $-1 -29.412110535022052 25.167684248112916 6.5606706140345628 #
straight-curve $-1 0.12200629400434337 31.834427853328521 71.417191133473736 0 0 -1 I I #
point $-1 0.12200629400434337 31.834427853328521 12.790703343614346 #
straight-curve $-1 -3.9347506911406747 31.834427853328524 5.5740705855014312 -1 0 0 I I #
point $-1 0.12200629400434337 31.834427853328521 5.5740705855014312 #
point $-1 -12.664405988052764 25.167684248112916 6.5606706140345628 #
point $-1 -7.8695013822813493 25.167684248112916 6.5606706140345628 #
point $-1 -3.0745967765099351 25.167684248112916 6.5606706140345628 #
straight-curve $-1 26.45952005251646 31.834427853328521 71.417191133473736 0 0 -1 I I #
point $-1 26.45952005251646 31.834427853328521 12.790703343614346 #
straight-curve $-1 9.2340061881153837 31.834427853328524 5.5740705855014312 -1 0 0 I I #
point $-1 26.45952005251646 31.834427853328521 5.5740705855014312 #
point $-1 13.673107770459346 25.167684248112916 6.5606706140345628 #
point $-1 18.468012376230767 25.167684248112916 6.5606706140345628 #
point $-1 23.262916982002189 25.167684248112916 6.5606706140345628 #
straight-curve $-1 52.797033811028577 31.834427853328521 71.417191133473736 0 0 -1 I I #
point $-1 52.797033811028577 31.834427853328521 12.790703343614346 #
straight-curve $-1 22.402763067371442 31.834427853328524 5.5740705855014312 -1 0 0 I I #
point $-1 52.797033811028577 31.834427853328521 5.5740705855014312 #
point $-1 40.010621528971463 25.167684248112916 6.5606706140345628 #
point $-1 44.805526134742884 25.167684248112916 6.5606706140345628 #
point $-1 49.600430740514305 25.167684248112916 6.5606706140345628 #
straight-curve $-1 62.221137119663076 -31.834427853328521 0 0 0 -1 I I #
straight-curve $-1 0 -31.834427853328521 12.790703343614346 1 0 0 I I #
point $-1 62.221137119663076 -31.834427853328521 12.790703343614346 #
point $-1 42.21215356219674 -20.053173020473118 1.0094485873591466 #
point $-1 54.217543696676536 -20.053173020473118 1.0094485873591466 #
straight-curve $-1 -62.221137119663076 0 -12.790703343614346 0 1 0 I I #
point $-1 -62.221137119663076 -31.834427853328521 -12.790703343614346 #
point $-1 -62.221137119663076 31.834427853328521 -12.790703343614346 #
End-of-ACIS-data 