500 0 10 0           
7 Unknown 11 ACIS 5.0 NT 24 Thu Mar 25 15:46:52 1999 
-1 9.9999999999999995e-007 1e-010 
body $-1 $10 $-1 $11 #
body $-1 $12 $-1 $13 #
body $-1 $14 $-1 $15 #
body $-1 $16 $-1 $17 #
body $-1 $18 $-1 $19 #
body $-1 $20 $-1 $21 #
body $-1 $22 $-1 $23 #
body $-1 $24 $-1 $25 #
body $-1 $26 $-1 $27 #
body $-1 $28 $-1 $29 #
lump $-1 $-1 $30 $0 #
transform $-1 1 0 0 0 1 0 0 0 1 49.112826929532758 25.504136493043106 12.031940462978246 1 rotate no_reflect no_shear #
lump $-1 $-1 $31 $1 #
transform $-1 1 0 0 0 1 0 0 0 1 49.112826929532758 25.504136493043106 12.031940462978246 1 rotate no_reflect no_shear #
lump $-1 $-1 $32 $2 #
transform $-1 1 0 0 0 1 0 0 0 1 49.112826929532758 25.504136493043106 12.031940462978246 1 rotate no_reflect no_shear #
lump $-1 $-1 $33 $3 #
transform $-1 1 0 0 0 1 0 0 0 1 49.112826929532758 25.504136493043106 12.031940462978246 1 rotate no_reflect no_shear #
lump $-1 $-1 $34 $4 #
transform $-1 1 0 0 0 1 0 0 0 1 49.112826929532758 25.504136493043106 12.031940462978246 1 rotate no_reflect no_shear #
lump $-1 $-1 $35 $5 #
transform $-1 1 0 0 0 1 0 0 0 1 49.112826929532758 25.504136493043106 12.031940462978246 1 rotate no_reflect no_shear #
lump $-1 $-1 $36 $6 #
transform $-1 1 0 0 0 1 0 0 0 1 49.112826929532758 25.504136493043106 12.031940462978246 1 rotate no_reflect no_shear #
lump $-1 $-1 $37 $7 #
transform $-1 1 0 0 0 1 0 0 0 1 49.112826929532758 25.504136493043106 12.031940462978246 1 rotate no_reflect no_shear #
lump $-1 $-1 $38 $8 #
transform $-1 1 0 0 0 1 0 0 0 1 49.112826929532758 25.504136493043106 12.031940462978246 1 rotate no_reflect no_shear #
lump $-1 $-1 $39 $9 #
transform $-1 1 0 0 0 1 0 0 0 1 49.112826929532758 25.504136493043106 12.031940462978246 1 rotate no_reflect no_shear #
shell $-1 $-1 $-1 $40 $-1 $10 #
shell $-1 $-1 $-1 $41 $-1 $12 #
shell $-1 $-1 $-1 $42 $-1 $14 #
shell $-1 $-1 $-1 $43 $-1 $16 #
shell $-1 $-1 $-1 $44 $-1 $18 #
shell $-1 $-1 $-1 $45 $-1 $20 #
shell $-1 $-1 $-1 $46 $-1 $22 #
shell $-1 $-1 $-1 $47 $-1 $24 #
shell $-1 $-1 $-1 $48 $-1 $26 #
shell $-1 $-1 $-1 $49 $-1 $28 #
face $-1 $50 $51 $30 $-1 $52 forward single #
face $-1 $53 $54 $31 $-1 $55 reversed single #
face $-1 $56 $57 $32 $-1 $58 reversed single #
face $-1 $59 $60 $33 $-1 $61 forward single #
face $-1 $62 $63 $34 $-1 $64 forward single #
face $-1 $65 $66 $35 $-1 $67 reversed single #
face $-1 $68 $69 $36 $-1 $70 forward single #
face $-1 $71 $72 $37 $-1 $73 forward single #
face $-1 $74 $75 $38 $-1 $76 reversed single #
face $-1 $77 $78 $39 $-1 $79 forward single #
face $-1 $80 $81 $30 $-1 $82 reversed single #
loop $-1 $-1 $83 $40 #
plane-surface $-1 0 0 12.031940462978246 0 0 1 1 0 0 forward_v I I I I #
face $-1 $84 $85 $31 $-1 $86 reversed single #
loop $-1 $-1 $87 $41 #
plane-surface $-1 -45.53320805678446 -11.755866363155313 0 0 -1 0 0 0 -1 forward_v I I I I #
face $-1 $88 $89 $32 $-1 $90 reversed single #
loop $-1 $-1 $91 $42 #
plane-surface $-1 22.607159063725931 1.7019846962512997 138.94646497500054 0 -1 0 -0.55919291073839883 0 -0.82903756765294845 forward_v I I I I #
face $-1 $92 $93 $33 $-1 $94 forward single #
loop $-1 $95 $96 $43 #
cone-surface $-1 41.831597788590152 -3.1463730931533327 6.8947607116261977 -0.55919291073839883 0 -0.82903756765294845 0.41451878382647422 0 -0.27959645536919941 1 I I 0 1 0.5 forward I I I I #
face $-1 $97 $98 $34 $-1 $99 forward single #
loop $-1 $100 $101 $44 #
cone-surface $-1 41.831597788590152 -0.23735841951055292 6.8947607116261977 -0.55919291073839883 0 -0.82903756765294845 0.41451878382647422 0 -0.27959645536919941 1 I I 0 1 0.5 forward I I I I #
face $-1 $102 $103 $35 $-1 $104 reversed single #
loop $-1 $-1 $105 $45 #
plane-surface $-1 22.607159063725931 20.331986124350514 138.94646497500054 0 -1 0 -0.55919291073839883 0 -0.82903756765294845 forward_v I I I I #
face $-1 $106 $107 $36 $-1 $108 forward single #
loop $-1 $109 $110 $46 #
cone-surface $-1 41.831597788590152 15.483628334945877 6.8947607116261977 -0.55919291073839883 0 -0.82903756765294845 0.41451878382647422 0 -0.27959645536919941 1 I I 0 1 0.5 forward I I I I #
face $-1 $111 $112 $37 $-1 $113 forward single #
loop $-1 $114 $115 $47 #
cone-surface $-1 41.831597788590152 18.392643008588657 6.8947607116261977 -0.55919291073839883 0 -0.82903756765294845 0.41451878382647422 0 -0.27959645536919941 1 I I 0 1 0.5 forward I I I I #
face $-1 $116 $117 $38 $-1 $118 reversed single #
loop $-1 $-1 $119 $48 #
plane-surface $-1 -131.49179262455573 15.055894477608707 54.407691893554819 0 1 0 -0.83867057594974714 0 0.54463902268945019 forward_v I I I I #
face $-1 $120 $121 $39 $-1 $122 forward single #
loop $-1 $123 $124 $49 #
cone-surface $-1 -44.410277834992215 20.280015485325904 5.7623768092347092 0.83867057594974714 0 -0.54463902268945019 0.81695853403417529 0 1.2580058639246208 1 I I 0 1 1.5 forward I I I I #
face $-1 $125 $126 $30 $-1 $127 reversed single #
loop $-1 $-1 $128 $50 #
plane-surface $-1 0 0 -12.031940462978246 0 0 1 1 0 0 forward_v I I I I #
coedge $-1 $129 $130 $131 $132 forward $51 $-1 #
face $-1 $133 $134 $31 $-1 $135 forward single #
loop $-1 $-1 $136 $53 #
plane-surface $-1 -41.953589184036161 -18.630001428099209 0 -1 0 0 0 0 1 forward_v I I I I #
coedge $-1 $137 $138 $139 $140 forward $54 $-1 #
face $-1 $141 $142 $32 $-1 $143 reversed single #
loop $-1 $-1 $144 $56 #
plane-surface $-1 -32.319930226907353 -1.6918657563319428 57.51370781856042 0.55919291073839883 0 0.82903756765294845 0.82903756765294845 0 -0.55919291073839883 forward_v I I I I #
coedge $-1 $145 $146 $147 $148 reversed $57 $-1 #
face $-1 $-1 $149 $33 $-1 $150 forward single #
loop $-1 $151 $152 $59 #
cone-surface $-1 41.412203105536349 -3.1463730931533327 6.2729825358864861 -0.55919291073839883 0 -0.82903756765294845 0.20725939191323711 0 -0.13979822768459971 1 I I -0.70710678118654746 0.70710678118654746 0.25 forward I I I I #
loop $-1 $-1 $153 $43 #
coedge $-1 $96 $96 $154 $155 reversed $60 $-1 #
face $-1 $-1 $156 $34 $-1 $157 forward single #
loop $-1 $158 $159 $62 #
cone-surface $-1 41.412203105536349 -0.23735841951055292 6.2729825358864861 -0.55919291073839883 0 -0.82903756765294845 0.20725939191323711 0 -0.13979822768459971 1 I I -0.70710678118654746 0.70710678118654746 0.25 forward I I I I #
loop $-1 $-1 $160 $44 #
coedge $-1 $101 $101 $161 $162 reversed $63 $-1 #
face $-1 $163 $164 $35 $-1 $165 reversed single #
loop $-1 $-1 $166 $65 #
plane-surface $-1 -32.319930226907353 16.93813567176727 57.51370781856042 0.55919291073839883 0 0.82903756765294845 0.82903756765294845 0 -0.55919291073839883 forward_v I I I I #
coedge $-1 $167 $168 $169 $170 reversed $66 $-1 #
face $-1 $-1 $171 $36 $-1 $172 forward single #
loop $-1 $173 $174 $68 #
cone-surface $-1 41.412203105536349 15.483628334945877 6.2729825358864861 -0.55919291073839883 0 -0.82903756765294845 0.20725939191323711 0 -0.13979822768459971 1 I I -0.70710678118654746 0.70710678118654746 0.25 forward I I I I #
loop $-1 $-1 $175 $46 #
coedge $-1 $110 $110 $176 $177 reversed $69 $-1 #
face $-1 $-1 $178 $37 $-1 $179 forward single #
loop $-1 $180 $181 $71 #
cone-surface $-1 41.412203105536349 18.392643008588657 6.2729825358864861 -0.55919291073839883 0 -0.82903756765294845 0.20725939191323711 0 -0.13979822768459971 1 I I -0.70710678118654746 0.70710678118654746 0.25 forward I I I I #
loop $-1 $-1 $182 $47 #
coedge $-1 $115 $115 $183 $184 reversed $72 $-1 #
face $-1 $185 $186 $38 $-1 $187 reversed single #
loop $-1 $-1 $188 $74 #
plane-surface $-1 -49.112826929532744 20.280015485325904 0.91016777272115235 -0.83867057594974714 0 0.54463902268945019 0.54463902268945019 0 0.83867057594974714 forward_v I I I I #
coedge $-1 $189 $190 $191 $192 reversed $75 $-1 #
face $-1 $-1 $193 $39 $-1 $194 forward single #
loop $-1 $195 $196 $77 #
cone-surface $-1 -42.69000750973197 20.280015485325904 4.6452202336026307 0.83867057594974714 0 -0.54463902268945019 0.40847926701708764 0 0.62900293196231039 1 I I -0.70710678118654757 0.70710678118654757 0.75 forward I I I I #
loop $-1 $-1 $197 $49 #
coedge $-1 $124 $124 $198 $199 reversed $78 $-1 #
face $-1 $200 $201 $30 $-1 $202 reversed single #
loop $-1 $-1 $203 $80 #
plane-surface $-1 0 -25.504136493043106 0 0 1 0 0 0 1 forward_v I I I I #
coedge $-1 $204 $205 $206 $207 forward $81 $-1 #
coedge $-1 $208 $83 $209 $210 forward $51 $-1 #
coedge $-1 $83 $208 $211 $212 forward $51 $-1 #
coedge $-1 $213 $214 $83 $132 reversed $215 $-1 #
edge $-1 $216 -25.504136493043106 $217 25.504136493043106 $131 $218 forward 7 unknown #
face $-1 $219 $220 $31 $-1 $221 reversed single #
loop $-1 $-1 $222 $84 #
plane-surface $-1 0 0 12.031940462978246 0 0 1 1 0 0 forward_v I I I I #
coedge $-1 $223 $224 $225 $226 reversed $85 $-1 #
coedge $-1 $227 $87 $228 $229 reversed $54 $-1 #
coedge $-1 $87 $227 $230 $231 reversed $54 $-1 #
coedge $-1 $224 $223 $87 $140 reversed $85 $-1 #
edge $-1 $232 -12.031940462978246 $233 12.031940462978246 $139 $234 forward 7 unknown #
face $-1 $235 $236 $32 $-1 $237 reversed single #
loop $-1 $-1 $238 $88 #
plane-surface $-1 22.607159063725931 -5.0857162089151853 138.94646497500054 0 1 0 0.55919291073839883 0 0.82903756765294845 forward_v I I I I #
coedge $-1 $239 $240 $241 $242 reversed $89 $-1 #
coedge $-1 $146 $91 $243 $244 reversed $57 $-1 #
coedge $-1 $91 $145 $239 $245 reversed $57 $-1 #
coedge $-1 $241 $246 $91 $148 forward $247 $-1 #
edge $-1 $248 -37.809247397669793 $249 -23.80598202652299 $147 $250 forward 7 unknown #
loop $-1 $-1 $154 $92 #
plane-surface $-1 -32.319930226907353 -1.6918657563319428 57.51370781856042 0.55919291073839883 0 0.82903756765294845 0.82903756765294845 0 -0.55919291073839883 forward_v I I I I #
loop $-1 $-1 $251 $59 #
coedge $-1 $152 $152 $153 $252 reversed $93 $-1 #
coedge $-1 $153 $153 $152 $252 forward $95 $-1 #
coedge $-1 $154 $154 $96 $155 forward $149 $-1 #
edge $-1 $253 0 $253 6.2831853071796004 $154 $254 forward 7 unknown #
loop $-1 $-1 $161 $97 #
plane-surface $-1 -32.319930226907353 -1.6918657563319428 57.51370781856042 0.55919291073839883 0 0.82903756765294845 0.82903756765294845 0 -0.55919291073839883 forward_v I I I I #
loop $-1 $-1 $255 $62 #
coedge $-1 $159 $159 $160 $256 reversed $98 $-1 #
coedge $-1 $160 $160 $159 $256 forward $100 $-1 #
coedge $-1 $161 $161 $101 $162 forward $156 $-1 #
edge $-1 $257 0 $257 6.2831853071796004 $161 $258 forward 7 unknown #
face $-1 $259 $260 $35 $-1 $261 reversed single #
loop $-1 $-1 $262 $102 #
plane-surface $-1 22.607159063725931 13.544285219184028 138.94646497500054 0 1 0 0.55919291073839883 0 0.82903756765294845 forward_v I I I I #
coedge $-1 $263 $264 $265 $266 reversed $103 $-1 #
coedge $-1 $168 $105 $267 $268 reversed $66 $-1 #
coedge $-1 $105 $167 $263 $269 reversed $66 $-1 #
coedge $-1 $265 $270 $105 $170 forward $271 $-1 #
edge $-1 $272 -37.809247397669793 $273 -23.80598202652299 $169 $274 forward 7 unknown #
loop $-1 $-1 $176 $106 #
plane-surface $-1 -32.319930226907353 16.93813567176727 57.51370781856042 0.55919291073839883 0 0.82903756765294845 0.82903756765294845 0 -0.55919291073839883 forward_v I I I I #
loop $-1 $-1 $275 $68 #
coedge $-1 $174 $174 $175 $276 reversed $107 $-1 #
coedge $-1 $175 $175 $174 $276 forward $109 $-1 #
coedge $-1 $176 $176 $110 $177 forward $171 $-1 #
edge $-1 $277 0 $277 6.2831853071796004 $176 $278 forward 7 unknown #
loop $-1 $-1 $183 $111 #
plane-surface $-1 -32.319930226907353 16.93813567176727 57.51370781856042 0.55919291073839883 0 0.82903756765294845 0.82903756765294845 0 -0.55919291073839883 forward_v I I I I #
loop $-1 $-1 $279 $71 #
coedge $-1 $181 $181 $182 $280 reversed $112 $-1 #
coedge $-1 $182 $182 $181 $280 forward $114 $-1 #
coedge $-1 $183 $183 $115 $184 forward $178 $-1 #
edge $-1 $281 0 $281 6.2831853071796004 $183 $282 forward 7 unknown #
face $-1 $283 $284 $38 $-1 $285 reversed single #
loop $-1 $-1 $286 $116 #
plane-surface $-1 0 25.504136493043106 0 0 -1 0 0 0 -1 forward_v I I I I #
coedge $-1 $287 $288 $289 $290 reversed $117 $-1 #
coedge $-1 $190 $119 $291 $292 reversed $75 $-1 #
coedge $-1 $119 $189 $287 $293 reversed $75 $-1 #
coedge $-1 $289 $294 $119 $192 forward $295 $-1 #
edge $-1 $296 16.633069382745106 $297 23.855632785230334 $191 $298 forward 7 unknown #
loop $-1 $-1 $198 $120 #
plane-surface $-1 -49.112826929532744 20.280015485325904 0.91016777272115235 -0.83867057594974714 0 0.54463902268945019 0.54463902268945019 0 0.83867057594974714 forward_v I I I I #
loop $-1 $-1 $299 $77 #
coedge $-1 $196 $196 $197 $300 reversed $121 $-1 #
coedge $-1 $197 $197 $196 $300 forward $123 $-1 #
coedge $-1 $198 $198 $124 $199 forward $193 $-1 #
edge $-1 $301 0 $301 6.2831853071796004 $198 $302 forward 7 unknown #
face $-1 $303 $304 $30 $-1 $305 reversed single #
loop $-1 $-1 $306 $125 #
plane-surface $-1 -49.112826929532758 0 0 1 0 0 0 0 -1 forward_v I I I I #
coedge $-1 $307 $211 $308 $309 forward $126 $-1 #
coedge $-1 $310 $128 $307 $311 forward $81 $-1 #
coedge $-1 $128 $310 $312 $313 forward $81 $-1 #
coedge $-1 $214 $213 $128 $207 reversed $215 $-1 #
edge $-1 $314 -25.504136493043106 $315 25.504136493043106 $206 $316 forward 7 unknown #
coedge $-1 $130 $129 $317 $318 forward $51 $-1 #
coedge $-1 $319 $320 $129 $210 reversed $304 $-1 #
edge $-1 $217 -49.112826929532758 $321 49.112826929532758 $209 $322 forward 7 unknown #
coedge $-1 $203 $323 $130 $212 reversed $126 $-1 #
edge $-1 $324 -49.112826929532758 $216 49.112826929532758 $211 $325 forward 7 unknown #
coedge $-1 $206 $131 $323 $326 forward $215 $-1 #
coedge $-1 $131 $206 $319 $327 reversed $215 $-1 #
loop $-1 $-1 $213 $303 #
vertex $-1 $132 $328 #
vertex $-1 $132 $329 #
straight-curve $-1 49.112826929532758 0 12.031940462978246 0 1 0 I I #
face $-1 $330 $331 $31 $-1 $332 reversed single #
loop $-1 $-1 $333 $133 #
plane-surface $-1 -49.112826929532758 0 0 1 0 0 0 0 -1 forward_v I I I I #
coedge $-1 $230 $334 $224 $335 forward $134 $-1 #
coedge $-1 $139 $136 $336 $337 reversed $85 $-1 #
coedge $-1 $136 $139 $222 $335 reversed $85 $-1 #
coedge $-1 $338 $339 $136 $226 forward $340 $-1 #
edge $-1 $341 -12.031940462978246 $342 12.031940462978246 $225 $343 forward 7 unknown #
coedge $-1 $138 $137 $333 $344 reversed $54 $-1 #
coedge $-1 $336 $345 $137 $229 forward $331 $-1 #
edge $-1 $346 -26.346222901140528 $233 -19.186985155643931 $228 $347 forward 7 unknown #
coedge $-1 $348 $222 $138 $231 forward $134 $-1 #
edge $-1 $232 19.186985155643931 $349 26.346222901140528 $230 $350 forward 7 unknown #
vertex $-1 $231 $351 #
vertex $-1 $229 $352 #
straight-curve $-1 -41.953589184036161 -11.755866363155313 0 0 0 -1 I I #
face $-1 $-1 $247 $32 $-1 $353 forward single #
loop $-1 $-1 $354 $141 #
plane-surface $-1 49.112826929532758 0 0 -1 0 0 0 0 1 forward_v I I I I #
coedge $-1 $355 $356 $357 $358 reversed $142 $-1 #
coedge $-1 $359 $144 $146 $245 forward $89 $-1 #
coedge $-1 $144 $359 $355 $360 forward $89 $-1 #
coedge $-1 $357 $147 $144 $242 forward $247 $-1 #
edge $-1 $249 -2.5479175744172711 $361 4.2397833307492139 $241 $362 forward 7 unknown #
coedge $-1 $363 $364 $145 $244 forward $236 $-1 #
edge $-1 $365 -66.886613959573125 $248 -57.441292024522021 $243 $366 forward 7 unknown #
edge $-1 $249 81.334663730848717 $365 98.225653859065503 $146 $367 forward 7 unknown #
coedge $-1 $147 $357 $363 $368 forward $247 $-1 #
loop $-1 $-1 $357 $235 #
vertex $-1 $244 $369 #
vertex $-1 $148 $370 #
straight-curve $-1 11.303579531862965 1.7019846962512997 12.031940462978248 -1 0 0 I I #
coedge $-1 $251 $251 $-1 $371 reversed $151 $-1 #
edge $-1 $372 0 $372 6.2831853071796004 $152 $373 forward 7 unknown #
vertex $-1 $155 $374 #
ellipse-curve $-1 42.111194243959361 -3.1463730931533327 7.3092794954526896 0.55919291073839883 0 0.82903756765294845 0.41451878382647422 0 -0.27959645536919941 1 I I #
coedge $-1 $255 $255 $-1 $375 reversed $158 $-1 #
edge $-1 $376 0 $376 6.2831853071796004 $159 $377 forward 7 unknown #
vertex $-1 $162 $378 #
ellipse-curve $-1 42.111194243959361 -0.23735841951055292 7.3092794954526896 0.55919291073839883 0 0.82903756765294845 0.41451878382647422 0 -0.27959645536919941 1 I I #
face $-1 $-1 $271 $35 $-1 $379 forward single #
loop $-1 $-1 $380 $163 #
plane-surface $-1 49.112826929532758 0 0 -1 0 0 0 0 1 forward_v I I I I #
coedge $-1 $381 $382 $383 $384 reversed $164 $-1 #
coedge $-1 $385 $166 $168 $269 forward $103 $-1 #
coedge $-1 $166 $385 $381 $386 forward $103 $-1 #
coedge $-1 $383 $169 $166 $266 forward $271 $-1 #
edge $-1 $273 -11.862918288466879 $387 -5.0752173833003926 $265 $388 forward 7 unknown #
coedge $-1 $389 $390 $167 $268 forward $260 $-1 #
edge $-1 $391 -66.886613959573125 $272 -57.441292024522021 $267 $392 forward 7 unknown #
edge $-1 $273 81.334663730848717 $391 98.225653859065503 $168 $393 forward 7 unknown #
coedge $-1 $169 $383 $389 $394 forward $271 $-1 #
loop $-1 $-1 $383 $259 #
vertex $-1 $268 $395 #
vertex $-1 $170 $396 #
straight-curve $-1 11.303579531862965 20.331986124350514 12.031940462978248 -1 0 0 I I #
coedge $-1 $275 $275 $-1 $397 reversed $173 $-1 #
edge $-1 $398 0 $398 6.2831853071796004 $174 $399 forward 7 unknown #
vertex $-1 $177 $400 #
ellipse-curve $-1 42.111194243959361 15.483628334945877 7.3092794954526896 0.55919291073839883 0 0.82903756765294845 0.41451878382647422 0 -0.27959645536919941 1 I I #
coedge $-1 $279 $279 $-1 $401 reversed $180 $-1 #
edge $-1 $402 0 $402 6.2831853071796004 $181 $403 forward 7 unknown #
vertex $-1 $184 $404 #
ellipse-curve $-1 42.111194243959361 18.392643008588657 7.3092794954526896 0.55919291073839883 0 0.82903756765294845 0.41451878382647422 0 -0.27959645536919941 1 I I #
face $-1 $-1 $295 $38 $-1 $405 forward single #
loop $-1 $-1 $406 $185 #
plane-surface $-1 -49.112826929532758 0 0 1 0 0 0 0 -1 forward_v I I I I #
coedge $-1 $407 $408 $288 $409 forward $186 $-1 #
coedge $-1 $410 $188 $190 $293 forward $117 $-1 #
coedge $-1 $188 $410 $286 $409 reversed $117 $-1 #
coedge $-1 $411 $191 $188 $290 forward $295 $-1 #
edge $-1 $297 4.9158867349457545 $412 15.36412875038015 $289 $413 forward 7 unknown #
coedge $-1 $414 $406 $189 $292 forward $284 $-1 #
edge $-1 $415 -26.293678174056279 $296 -15.171905483799163 $291 $416 forward 7 unknown #
edge $-1 $297 -13.261193380562224 $415 2.6082680278521875e-014 $190 $417 forward 7 unknown #
coedge $-1 $191 $411 $414 $418 forward $295 $-1 #
loop $-1 $-1 $289 $283 #
vertex $-1 $292 $419 #
vertex $-1 $192 $420 #
straight-curve $-1 -65.745896312277864 15.055894477608707 12.031940462978248 1 0 0 I I #
coedge $-1 $299 $299 $-1 $421 reversed $195 $-1 #
edge $-1 $422 0 $422 6.2831853071796004 $196 $423 forward 7 unknown #
vertex $-1 $199 $424 #
ellipse-curve $-1 -45.501545228290141 20.280015485325904 6.4710541178496941 -0.83867057594974714 0 0.54463902268945019 0.81695853403417529 0 1.2580058639246208 1 I I #
face $-1 $-1 $215 $30 $-1 $425 reversed single #
loop $-1 $-1 $319 $200 #
plane-surface $-1 0 25.504136493043106 0 0 -1 0 0 0 -1 forward_v I I I I #
coedge $-1 $426 $317 $320 $427 forward $201 $-1 #
coedge $-1 $323 $203 $204 $311 reversed $126 $-1 #
coedge $-1 $317 $426 $203 $309 reversed $201 $-1 #
edge $-1 $324 -12.031940462978246 $428 12.031940462978246 $308 $429 forward 7 unknown #
coedge $-1 $205 $204 $426 $430 forward $81 $-1 #
edge $-1 $315 -49.112826929532758 $428 49.112826929532758 $307 $431 forward 7 unknown #
coedge $-1 $320 $319 $205 $313 reversed $304 $-1 #
edge $-1 $432 -49.112826929532758 $314 49.112826929532758 $312 $433 forward 7 unknown #
vertex $-1 $207 $434 #
vertex $-1 $326 $435 #
straight-curve $-1 49.112826929532758 0 -12.031940462978246 0 -1 0 I I #
coedge $-1 $306 $308 $208 $318 reversed $201 $-1 #
edge $-1 $321 -25.504136493043106 $324 25.504136493043106 $317 $436 forward 7 unknown #
coedge $-1 $312 $209 $214 $327 forward $304 $-1 #
coedge $-1 $209 $312 $306 $427 reversed $304 $-1 #
vertex $-1 $210 $437 #
straight-curve $-1 0 25.504136493043106 12.031940462978246 -1 0 0 I I #
coedge $-1 $211 $307 $213 $326 reversed $126 $-1 #
vertex $-1 $318 $438 #
straight-curve $-1 0 -25.504136493043106 12.031940462978246 1 0 0 I I #
edge $-1 $216 -12.031940462978246 $315 12.031940462978246 $213 $439 forward 7 unknown #
edge $-1 $217 -12.031940462978246 $314 12.031940462978246 $214 $440 forward 7 unknown #
point $-1 49.112826929532758 -25.504136493043106 12.031940462978246 #
point $-1 49.112826929532758 25.504136493043106 12.031940462978246 #
face $-1 $-1 $340 $31 $-1 $441 reversed single #
loop $-1 $-1 $336 $219 #
plane-surface $-1 0 0 -12.031940462978246 0 0 1 1 0 0 forward_v I I I I #
coedge $-1 $442 $443 $227 $344 forward $220 $-1 #
coedge $-1 $222 $348 $338 $444 forward $134 $-1 #
edge $-1 $342 -16.189135778993503 $232 -2.4408656491057084 $222 $445 forward 7 unknown #
coedge $-1 $446 $228 $223 $337 forward $331 $-1 #
edge $-1 $233 2.4408656491057084 $341 16.189135778993503 $336 $447 forward 7 unknown #
coedge $-1 $448 $225 $334 $444 reversed $340 $-1 #
coedge $-1 $225 $448 $446 $449 reversed $340 $-1 #
loop $-1 $-1 $225 $330 #
vertex $-1 $449 $450 #
vertex $-1 $226 $451 #
straight-curve $-1 -41.953589184036161 -25.504136493043106 0 0 0 1 I I #
edge $-1 $349 -12.031940462978246 $346 12.031940462978246 $333 $452 forward 7 unknown #
coedge $-1 $228 $446 $442 $453 forward $331 $-1 #
vertex $-1 $229 $454 #
straight-curve $-1 -22.76660402839223 -11.755866363155313 -12.031940462978246 1 0 0 I I #
coedge $-1 $334 $230 $443 $455 forward $134 $-1 #
vertex $-1 $455 $456 #
straight-curve $-1 -22.76660402839223 -11.755866363155313 12.031940462978246 -1 0 0 I I #
point $-1 -41.953589184036161 -11.755866363155313 12.031940462978246 #
point $-1 -41.953589184036161 -11.755866363155313 -12.031940462978246 #
plane-surface $-1 0 0 12.031940462978246 0 0 1 1 0 0 forward_v I I I I #
coedge $-1 $364 $363 $356 $457 forward $236 $-1 #
coedge $-1 $356 $238 $240 $360 reversed $142 $-1 #
coedge $-1 $238 $355 $354 $457 reversed $142 $-1 #
coedge $-1 $246 $241 $238 $358 forward $247 $-1 #
edge $-1 $361 23.80598202652299 $458 37.809247397669793 $357 $459 forward 7 unknown #
coedge $-1 $240 $239 $364 $460 reversed $89 $-1 #
edge $-1 $461 -98.225653859065503 $361 -81.334663730848717 $355 $462 forward 7 unknown #
vertex $-1 $242 $463 #
straight-curve $-1 35.109561558385955 -0.8459328781659714 12.031940462978252 0 -1 0 I I #
coedge $-1 $354 $243 $246 $368 reversed $236 $-1 #
coedge $-1 $243 $354 $359 $460 forward $236 $-1 #
vertex $-1 $244 $464 #
straight-curve $-1 49.112826929532758 1.7019846962512997 69.473232487500269 0 0 1 I I #
straight-curve $-1 -32.319930226907353 1.7019846962512997 57.51370781856042 0.82903756765294845 0 -0.55919291073839883 I I #
edge $-1 $458 -5.0857162089151853 $248 1.7019846962512997 $363 $465 forward 7 unknown #
point $-1 49.112826929532758 1.7019846962512997 12.031940462978246 #
point $-1 35.109561558385955 1.7019846962512997 12.031940462978248 #
edge $-1 $466 1 $466 0 $251 $-1 forward 7 unknown #
vertex $-1 $252 $467 #
ellipse-curve $-1 41.55200133322095 -3.1463730931533327 6.4802419277997236 0.55919291073839883 0 0.82903756765294845 0.41451878382647422 0 -0.27959645536919941 1 I I #
point $-1 42.52571302778582 -3.1463730931533327 7.029683040083472 #
edge $-1 $468 1 $468 0 $255 $-1 forward 7 unknown #
vertex $-1 $256 $469 #
ellipse-curve $-1 41.55200133322095 -0.23735841951055292 6.4802419277997236 0.55919291073839883 0 0.82903756765294845 0.41451878382647422 0 -0.27959645536919941 1 I I #
point $-1 42.52571302778582 -0.23735841951055292 7.029683040083472 #
plane-surface $-1 0 0 12.031940462978246 0 0 1 1 0 0 forward_v I I I I #
coedge $-1 $390 $389 $382 $470 forward $260 $-1 #
coedge $-1 $382 $262 $264 $386 reversed $164 $-1 #
coedge $-1 $262 $381 $380 $470 reversed $164 $-1 #
coedge $-1 $270 $265 $262 $384 forward $271 $-1 #
edge $-1 $387 23.80598202652299 $471 37.809247397669793 $383 $472 forward 7 unknown #
coedge $-1 $264 $263 $390 $473 reversed $103 $-1 #
edge $-1 $474 -98.225653859065503 $387 -81.334663730848717 $381 $475 forward 7 unknown #
vertex $-1 $266 $476 #
straight-curve $-1 35.109561558385955 8.4690678358836351 12.031940462978252 0 -1 0 I I #
coedge $-1 $380 $267 $270 $394 reversed $260 $-1 #
coedge $-1 $267 $380 $385 $473 forward $260 $-1 #
vertex $-1 $268 $477 #
straight-curve $-1 49.112826929532758 20.331986124350514 69.473232487500269 0 0 1 I I #
straight-curve $-1 -32.319930226907353 20.331986124350514 57.51370781856042 0.82903756765294845 0 -0.55919291073839883 I I #
edge $-1 $471 13.544285219184028 $272 20.331986124350514 $389 $478 forward 7 unknown #
point $-1 49.112826929532758 20.331986124350514 12.031940462978246 #
point $-1 35.109561558385955 20.331986124350514 12.031940462978248 #
edge $-1 $479 1 $479 0 $275 $-1 forward 7 unknown #
vertex $-1 $276 $480 #
ellipse-curve $-1 41.55200133322095 15.483628334945877 6.4802419277997236 0.55919291073839883 0 0.82903756765294845 0.41451878382647422 0 -0.27959645536919941 1 I I #
point $-1 42.52571302778582 15.483628334945877 7.029683040083472 #
edge $-1 $481 1 $481 0 $279 $-1 forward 7 unknown #
vertex $-1 $280 $482 #
ellipse-curve $-1 41.55200133322095 18.392643008588657 6.4802419277997236 0.55919291073839883 0 0.82903756765294845 0.41451878382647422 0 -0.27959645536919941 1 I I #
point $-1 42.52571302778582 18.392643008588657 7.029683040083472 #
plane-surface $-1 0 0 12.031940462978246 0 0 1 1 0 0 forward_v I I I I #
coedge $-1 $291 $483 $410 $484 forward $284 $-1 #
coedge $-1 $408 $286 $483 $485 reversed $186 $-1 #
coedge $-1 $286 $407 $411 $486 reversed $186 $-1 #
edge $-1 $412 -0.26847781543328247 $487 12.992715565128965 $286 $488 forward 7 unknown #
coedge $-1 $288 $287 $406 $484 reversed $117 $-1 #
coedge $-1 $294 $289 $408 $486 forward $295 $-1 #
vertex $-1 $486 $489 #
straight-curve $-1 -41.890263527047523 10.140007742662952 12.031940462978246 0 1 0 I I #
coedge $-1 $483 $291 $294 $418 reversed $284 $-1 #
vertex $-1 $292 $490 #
straight-curve $-1 -49.112826929532758 15.055894477608707 27.20384594677741 0 0 1 I I #
straight-curve $-1 -49.112826929532744 15.055894477608707 0.91016777272115235 -0.54463902268945019 0 -0.83867057594974714 I I #
edge $-1 $491 -25.504136493043106 $296 -15.055894477608707 $414 $492 forward 7 unknown #
point $-1 -49.112826929532758 15.055894477608707 12.031940462978246 #
point $-1 -41.89026352704753 15.055894477608707 12.031940462978246 #
edge $-1 $493 1 $493 0 $299 $-1 forward 7 unknown #
vertex $-1 $300 $494 #
ellipse-curve $-1 -43.319010441694282 20.280015485325904 5.0536995006197181 -0.83867057594974714 0 0.54463902268945019 0.81695853403417529 0 1.2580058639246208 1 I I #
point $-1 -44.684586694255977 20.280015485325904 7.7290599817743209 #
plane-surface $-1 49.112826929532758 0 0 -1 0 0 0 0 1 forward_v I I I I #
coedge $-1 $308 $306 $310 $430 reversed $201 $-1 #
edge $-1 $321 -12.031940462978246 $432 12.031940462978246 $320 $495 forward 7 unknown #
vertex $-1 $430 $496 #
straight-curve $-1 -49.112826929532758 -25.504136493043106 0 0 0 -1 I I #
edge $-1 $428 -25.504136493043106 $432 25.504136493043106 $426 $497 forward 7 unknown #
straight-curve $-1 0 -25.504136493043106 -12.031940462978246 -1 0 0 I I #
vertex $-1 $313 $498 #
straight-curve $-1 0 25.504136493043106 -12.031940462978246 1 0 0 I I #
point $-1 49.112826929532758 25.504136493043106 -12.031940462978246 #
point $-1 49.112826929532758 -25.504136493043106 -12.031940462978246 #
straight-curve $-1 -49.112826929532758 0 12.031940462978246 0 -1 0 I I #
point $-1 -49.112826929532758 25.504136493043106 12.031940462978246 #
point $-1 -49.112826929532758 -25.504136493043106 12.031940462978246 #
straight-curve $-1 49.112826929532758 -25.504136493043106 0 0 0 -1 I I #
straight-curve $-1 49.112826929532758 25.504136493043106 0 0 0 -1 I I #
plane-surface $-1 0 -25.504136493043106 0 0 1 0 0 0 1 forward_v I I I I #
coedge $-1 $499 $333 $345 $453 reversed $220 $-1 #
coedge $-1 $333 $499 $348 $455 reversed $220 $-1 #
edge $-1 $500 -49.112826929532758 $342 -41.953589184036161 $338 $501 forward 7 unknown #
straight-curve $-1 -41.953589184036161 -9.3150007140496047 12.031940462978246 0 1 0 I I #
coedge $-1 $345 $336 $339 $449 forward $331 $-1 #
straight-curve $-1 -41.953589184036161 -9.3150007140496047 -12.031940462978246 0 -1 0 I I #
coedge $-1 $339 $338 $499 $502 forward $340 $-1 #
edge $-1 $341 41.953589184036161 $503 49.112826929532758 $339 $504 forward 7 unknown #
point $-1 -41.953589184036161 -25.504136493043106 -12.031940462978246 #
point $-1 -41.953589184036161 -25.504136493043106 12.031940462978246 #
straight-curve $-1 -49.112826929532758 -11.755866363155313 0 0 0 -1 I I #
edge $-1 $503 -25.504136493043106 $346 -11.755866363155313 $442 $505 forward 7 unknown #
point $-1 -49.112826929532758 -11.755866363155313 -12.031940462978246 #
edge $-1 $349 11.755866363155313 $500 25.504136493043106 $443 $506 forward 7 unknown #
point $-1 -49.112826929532758 -11.755866363155313 12.031940462978246 #
edge $-1 $458 57.441292024522021 $461 66.886613959573125 $354 $507 forward 7 unknown #
vertex $-1 $368 $508 #
straight-curve $-1 11.303579531862965 -5.0857162089151853 12.031940462978248 1 0 0 I I #
edge $-1 $461 -4.2397833307492139 $365 2.5479175744172711 $364 $509 forward 7 unknown #
vertex $-1 $460 $510 #
straight-curve $-1 -32.319930226907353 -5.0857162089151853 57.51370781856042 -0.82903756765294845 0 0.55919291073839883 I I #
point $-1 35.109561558385955 -5.0857162089151853 12.031940462978248 #
point $-1 49.112826929532766 1.7019846962512997 2.5866185279271434 #
straight-curve $-1 49.112826929532758 0 12.031940462978246 0 1 0 I I #
vertex $-1 $371 $511 #
point $-1 41.966520117047423 -3.1463730931533327 6.2006454724305238 #
vertex $-1 $375 $512 #
point $-1 41.966520117047423 -0.23735841951055292 6.2006454724305238 #
edge $-1 $471 57.441292024522021 $474 66.886613959573125 $380 $513 forward 7 unknown #
vertex $-1 $394 $514 #
straight-curve $-1 11.303579531862965 13.544285219184028 12.031940462978248 1 0 0 I I #
edge $-1 $474 5.0752173833003926 $391 11.862918288466879 $390 $515 forward 7 unknown #
vertex $-1 $473 $516 #
straight-curve $-1 -32.319930226907353 13.544285219184028 57.51370781856042 -0.82903756765294845 0 0.55919291073839883 I I #
point $-1 35.109561558385955 13.544285219184028 12.031940462978248 #
point $-1 49.112826929532766 20.331986124350514 2.5866185279271434 #
straight-curve $-1 49.112826929532758 0 12.031940462978246 0 1 0 I I #
vertex $-1 $397 $517 #
point $-1 41.966520117047423 15.483628334945877 6.2006454724305238 #
vertex $-1 $401 $518 #
point $-1 41.966520117047423 18.392643008588657 6.2006454724305238 #
coedge $-1 $406 $414 $407 $485 forward $284 $-1 #
edge $-1 $487 -15.36412875038015 $415 -4.9158867349457545 $406 $519 forward 7 unknown #
edge $-1 $491 -12.031940462978246 $487 -0.91016777272113047 $407 $520 forward 7 unknown #
edge $-1 $412 41.89026352704753 $491 49.112826929532758 $408 $521 forward 7 unknown #
vertex $-1 $484 $522 #
straight-curve $-1 -42.036487022058907 25.504136493043106 11.806776018879082 -0.54463902268945019 0 -0.83867057594974714 I I #
point $-1 -41.89026352704753 25.504136493043102 12.031940462978246 #
point $-1 -49.112826929532758 15.055894477608707 0.91016777272113047 #
vertex $-1 $486 $523 #
straight-curve $-1 -49.112826929532758 0 12.031940462978246 0 -1 0 I I #
vertex $-1 $421 $524 #
point $-1 -42.502051907660103 20.280015485325904 6.3117053645443395 #
straight-curve $-1 -49.112826929532758 25.504136493043106 0 0 0 -1 I I #
point $-1 -49.112826929532758 -25.504136493043106 -12.031940462978246 #
straight-curve $-1 -49.112826929532758 0 -12.031940462978246 0 1 0 I I #
point $-1 -49.112826929532758 25.504136493043106 -12.031940462978246 #
coedge $-1 $443 $442 $448 $502 reversed $220 $-1 #
vertex $-1 $455 $525 #
straight-curve $-1 0 -25.504136493043106 12.031940462978246 1 0 0 I I #
edge $-1 $500 -12.031940462978246 $503 12.031940462978246 $499 $526 forward 7 unknown #
vertex $-1 $453 $527 #
straight-curve $-1 0 -25.504136493043106 -12.031940462978246 -1 0 0 I I #
straight-curve $-1 -49.112826929532758 0 -12.031940462978246 0 1 0 I I #
straight-curve $-1 -49.112826929532758 0 12.031940462978246 0 -1 0 I I #
straight-curve $-1 49.112826929532758 -5.0857162089151853 69.473232487500269 0 0 -1 I I #
point $-1 49.112826929532758 -5.0857162089151853 12.031940462978246 #
straight-curve $-1 49.112826929532758 -0.8459328781659714 2.5866185279271399 0 1 0 I I #
point $-1 49.112826929532766 -5.0857162089151853 2.5866185279271434 #
point $-1 41.272404877851748 -3.1463730931533327 6.0657231439732486 #
point $-1 41.272404877851748 -0.23735841951055292 6.0657231439732486 #
straight-curve $-1 49.112826929532758 13.544285219184028 69.473232487500269 0 0 -1 I I #
point $-1 49.112826929532758 13.544285219184028 12.031940462978246 #
straight-curve $-1 49.112826929532758 8.4690678358836351 2.5866185279271399 0 1 0 I I #
point $-1 49.112826929532766 13.544285219184028 2.5866185279271434 #
point $-1 41.272404877851748 15.483628334945877 6.0657231439732486 #
point $-1 41.272404877851748 18.392643008588657 6.0657231439732486 #
straight-curve $-1 -49.112826929532758 10.140007742662952 0.91016777272113047 0 -1 0 I I #
straight-curve $-1 -49.112826929532758 25.504136493043106 0 0 0 -1 I I #
straight-curve $-1 0 25.504136493043106 12.031940462978246 -1 0 0 I I #
point $-1 -49.112826929532758 25.504136493043102 0.91016777272113047 #
point $-1 -49.112826929532758 25.504136493043106 12.031940462978246 #
point $-1 -42.061004577769658 20.280015485325904 4.2367409665855433 #
point $-1 -49.112826929532758 -25.504136493043106 12.031940462978246 #
straight-curve $-1 -49.112826929532758 -25.504136493043106 0 0 0 -1 I I #
point $-1 -49.112826929532758 -25.504136493043106 -12.031940462978246 #
End-of-ACIS-data 