500 0 7 0           
7 Unknown 11 ACIS 5.0 NT 24 Fri Mar 26 16:36:45 1999 
-1 9.9999999999999995e-007 1e-010 
body $-1 $7 $-1 $8 #
body $-1 $9 $-1 $10 #
body $-1 $11 $-1 $12 #
body $-1 $13 $-1 $14 #
body $-1 $15 $-1 $16 #
body $-1 $17 $-1 $18 #
body $-1 $19 $-1 $20 #
lump $-1 $-1 $21 $0 #
transform $-1 1 0 0 0 1 0 0 0 1 72.138431958983119 41.817042089862142 11.131472759929611 1 rotate no_reflect no_shear #
lump $-1 $-1 $22 $1 #
transform $-1 1 0 0 0 1 0 0 0 1 72.138431958983119 41.817042089862142 11.131472759929611 1 rotate no_reflect no_shear #
lump $-1 $-1 $23 $2 #
transform $-1 1 0 0 0 1 0 0 0 1 72.138431958983119 41.817042089862142 11.131472759929611 1 rotate no_reflect no_shear #
lump $-1 $-1 $24 $3 #
transform $-1 1 0 0 0 1 0 0 0 1 72.138431958983119 41.817042089862142 11.131472759929611 1 rotate no_reflect no_shear #
lump $-1 $-1 $25 $4 #
transform $-1 1 0 0 0 1 0 0 0 1 72.138431958983119 41.817042089862142 11.131472759929611 1 rotate no_reflect no_shear #
lump $-1 $-1 $26 $5 #
transform $-1 1 0 0 0 1 0 0 0 1 72.138431958983119 41.817042089862142 11.131472759929611 1 rotate no_reflect no_shear #
lump $-1 $-1 $27 $6 #
transform $-1 1 0 0 0 1 0 0 0 1 72.138431958983119 41.817042089862142 11.131472759929611 1 rotate no_reflect no_shear #
shell $-1 $-1 $-1 $28 $-1 $7 #
shell $-1 $-1 $-1 $29 $-1 $9 #
shell $-1 $-1 $-1 $30 $-1 $11 #
shell $-1 $-1 $-1 $31 $-1 $13 #
shell $-1 $-1 $-1 $32 $-1 $15 #
shell $-1 $-1 $-1 $33 $-1 $17 #
shell $-1 $-1 $-1 $34 $-1 $19 #
face $-1 $35 $36 $21 $-1 $37 forward single #
face $-1 $38 $39 $22 $-1 $40 reversed single #
face $-1 $41 $42 $23 $-1 $43 forward single #
face $-1 $44 $45 $24 $-1 $46 reversed single #
face $-1 $47 $48 $25 $-1 $49 forward single #
face $-1 $50 $51 $26 $-1 $52 reversed single #
face $-1 $53 $54 $27 $-1 $55 forward single #
face $-1 $56 $57 $21 $-1 $58 reversed single #
loop $-1 $-1 $59 $28 #
plane-surface $-1 0 0 11.131472759929611 0 0 1 1 0 0 forward_v I I I I #
face $-1 $60 $61 $22 $-1 $62 reversed single #
loop $-1 $-1 $63 $29 #
plane-surface $-1 -18.039586588157661 -130.64275009887501 117.52703881584577 -1 0 0 0 -0.61566148304635926 0.78801074757464917 forward_v I I I I #
face $-1 $64 $65 $23 $-1 $66 forward single #
loop $-1 $67 $68 $30 #
cone-surface $-1 -25.529945395923043 -35.421165775648312 5.2735113713978663 0 0.61566148304635926 -0.78801074757464917 2.5 0 0 1 I I 0 1 2.5 forward I I I I #
face $-1 $69 $70 $24 $-1 $71 reversed single #
loop $-1 $-1 $72 $31 #
plane-surface $-1 -53.603299889954073 73.351738505182936 164.55485554675639 -1 0 0 0 0.6560590369687036 0.75470957328743171 forward_v I I I I #
face $-1 $73 $74 $25 $-1 $75 forward single #
loop $-1 $76 $77 $32 #
cone-surface $-1 -62.870865924468596 32.389179210957415 1.9564743110740137 0 -0.6560590369687036 -0.75470957328743171 3 0 0 1 I I 0 1 3 forward I I I I #
face $-1 $78 $79 $26 $-1 $80 reversed single #
loop $-1 $-1 $81 $33 #
plane-surface $-1 18.535132069029039 73.351738505182936 164.55485554675639 -1 0 0 0 0.6560590369687036 0.75470957328743171 forward_v I I I I #
face $-1 $82 $83 $27 $-1 $84 forward single #
loop $-1 $85 $86 $34 #
cone-surface $-1 9.2675660345145161 32.389179210957415 1.9564743110740137 0 -0.6560590369687036 -0.75470957328743171 3 0 0 1 I I 0 1 3 forward I I I I #
face $-1 $87 $88 $21 $-1 $89 reversed single #
loop $-1 $-1 $90 $35 #
plane-surface $-1 0 0 -11.131472759929611 0 0 1 1 0 0 forward_v I I I I #
coedge $-1 $91 $92 $93 $94 forward $36 $-1 #
face $-1 $95 $96 $22 $-1 $97 reversed single #
loop $-1 $-1 $98 $38 #
plane-surface $-1 -25.529945395923043 -41.817042089862156 3.8353194221232627 0 -0.61566148304635926 0.78801074757464917 1 0 0 forward_v I I I I #
coedge $-1 $99 $100 $101 $102 reversed $39 $-1 #
face $-1 $-1 $103 $23 $-1 $104 forward single #
loop $-1 $105 $106 $41 #
cone-surface $-1 -25.529945395923043 -32.925037719289513 2.0786132173009957 0 0.61566148304635926 -0.78801074757464917 1.25 0 0 1 I I -0.70710678118654746 0.70710678118654746 1.25 forward I I I I #
loop $-1 $-1 $107 $30 #
coedge $-1 $68 $68 $108 $109 reversed $42 $-1 #
face $-1 $110 $111 $24 $-1 $112 reversed single #
loop $-1 $-1 $113 $44 #
plane-surface $-1 -62.870865924468596 -21.302401893702694 55.667725143979226 0 0.6560590369687036 0.75470957328743171 1 0 0 forward_v I I I I #
coedge $-1 $114 $115 $116 $117 reversed $45 $-1 #
face $-1 $-1 $118 $25 $-1 $119 forward single #
loop $-1 $120 $121 $47 #
cone-surface $-1 -62.870865924468596 27.920401455984646 -3.1842663273828187 0 -0.6560590369687036 -0.75470957328743171 1.5 0 0 1 I I -0.70710678118654757 0.70710678118654757 1.5 forward I I I I #
loop $-1 $-1 $122 $32 #
coedge $-1 $77 $77 $123 $124 reversed $48 $-1 #
face $-1 $125 $126 $26 $-1 $127 reversed single #
loop $-1 $-1 $128 $50 #
plane-surface $-1 9.2675660345145161 -21.302401893702694 55.667725143979226 0 0.6560590369687036 0.75470957328743171 1 0 0 forward_v I I I I #
coedge $-1 $129 $130 $131 $132 reversed $51 $-1 #
face $-1 $-1 $133 $27 $-1 $134 forward single #
loop $-1 $135 $136 $53 #
cone-surface $-1 9.2675660345145161 27.920401455984646 -3.1842663273828187 0 -0.6560590369687036 -0.75470957328743171 1.5 0 0 1 I I -0.70710678118654757 0.70710678118654757 1.5 forward I I I I #
loop $-1 $-1 $137 $34 #
coedge $-1 $86 $86 $138 $139 reversed $54 $-1 #
face $-1 $140 $141 $21 $-1 $142 reversed single #
loop $-1 $-1 $143 $56 #
plane-surface $-1 0 -41.817042089862142 0 0 1 0 0 0 1 forward_v I I I I #
coedge $-1 $144 $145 $146 $147 forward $57 $-1 #
coedge $-1 $148 $59 $149 $150 forward $36 $-1 #
coedge $-1 $59 $148 $151 $152 forward $36 $-1 #
coedge $-1 $153 $154 $59 $94 reversed $155 $-1 #
edge $-1 $156 -41.817042089862142 $157 41.817042089862142 $93 $158 forward 7 unknown #
face $-1 $159 $160 $22 $-1 $161 reversed single #
loop $-1 $-1 $162 $60 #
plane-surface $-1 -33.020304203688426 -130.64275009887501 117.52703881584577 1 0 0 0 0.61566148304635926 -0.78801074757464917 forward_v I I I I #
coedge $-1 $163 $164 $165 $166 reversed $61 $-1 #
coedge $-1 $100 $63 $167 $168 reversed $39 $-1 #
coedge $-1 $63 $99 $163 $169 reversed $39 $-1 #
coedge $-1 $165 $170 $63 $102 forward $171 $-1 #
edge $-1 $172 23.504332959575365 $173 32.842983182901278 $101 $174 forward 7 unknown #
loop $-1 $-1 $108 $64 #
plane-surface $-1 -25.529945395923043 -41.817042089862156 3.8353194221232627 0 -0.61566148304635926 0.78801074757464917 1 0 0 forward_v I I I I #
loop $-1 $-1 $175 $41 #
coedge $-1 $106 $106 $107 $176 reversed $65 $-1 #
coedge $-1 $107 $107 $106 $176 forward $67 $-1 #
coedge $-1 $108 $108 $68 $109 forward $103 $-1 #
edge $-1 $177 -9.8884993170308393e-016 $177 6.2831853071795996 $108 $178 forward 7 unknown #
face $-1 $179 $180 $24 $-1 $181 forward single #
loop $-1 $-1 $116 $69 #
plane-surface $-1 0 41.817042089862142 0 0 -1 0 0 0 -1 forward_v I I I I #
coedge $-1 $182 $183 $184 $185 reversed $70 $-1 #
coedge $-1 $115 $72 $186 $187 reversed $45 $-1 #
coedge $-1 $72 $114 $182 $188 reversed $45 $-1 #
coedge $-1 $184 $189 $72 $117 forward $111 $-1 #
edge $-1 $190 71.145955013448585 $191 81.478599354108354 $116 $192 forward 7 unknown #
loop $-1 $-1 $123 $73 #
plane-surface $-1 -62.870865924468596 -21.302401893702694 55.667725143979226 0 0.6560590369687036 0.75470957328743171 1 0 0 forward_v I I I I #
loop $-1 $-1 $193 $47 #
coedge $-1 $121 $121 $122 $194 reversed $74 $-1 #
coedge $-1 $122 $122 $121 $194 forward $76 $-1 #
coedge $-1 $123 $123 $77 $124 forward $118 $-1 #
edge $-1 $195 2.7020824487364655e-016 $195 6.2831853071796004 $123 $196 forward 7 unknown #
face $-1 $197 $198 $26 $-1 $199 forward single #
loop $-1 $-1 $200 $78 #
plane-surface $-1 -7.1054273576010019e-015 73.351738505182936 164.55485554675639 1 0 0 0 -0.6560590369687036 -0.75470957328743171 forward_v I I I I #
coedge $-1 $201 $202 $203 $204 reversed $79 $-1 #
coedge $-1 $130 $81 $205 $206 reversed $51 $-1 #
coedge $-1 $81 $129 $201 $207 reversed $51 $-1 #
coedge $-1 $203 $208 $81 $132 forward $209 $-1 #
edge $-1 $210 71.145955013448585 $211 81.478599354108354 $131 $212 forward 7 unknown #
loop $-1 $-1 $138 $82 #
plane-surface $-1 9.2675660345145161 -21.302401893702694 55.667725143979226 0 0.6560590369687036 0.75470957328743171 1 0 0 forward_v I I I I #
loop $-1 $-1 $213 $53 #
coedge $-1 $136 $136 $137 $214 reversed $83 $-1 #
coedge $-1 $137 $137 $136 $214 forward $85 $-1 #
coedge $-1 $138 $138 $86 $139 forward $133 $-1 #
edge $-1 $215 2.7020824487364655e-016 $215 6.2831853071796004 $138 $216 forward 7 unknown #
face $-1 $217 $218 $21 $-1 $219 reversed single #
loop $-1 $-1 $220 $87 #
plane-surface $-1 -72.138431958983119 0 0 1 0 0 0 0 -1 forward_v I I I I #
coedge $-1 $221 $151 $222 $223 forward $88 $-1 #
coedge $-1 $224 $90 $221 $225 forward $57 $-1 #
coedge $-1 $90 $224 $226 $227 forward $57 $-1 #
coedge $-1 $154 $153 $90 $147 reversed $155 $-1 #
edge $-1 $228 -41.817042089862142 $229 41.817042089862142 $146 $230 forward 7 unknown #
coedge $-1 $92 $91 $231 $232 forward $36 $-1 #
coedge $-1 $233 $234 $91 $150 reversed $218 $-1 #
edge $-1 $157 -72.138431958983119 $235 72.138431958983119 $149 $236 forward 7 unknown #
coedge $-1 $143 $237 $92 $152 reversed $88 $-1 #
edge $-1 $238 -72.138431958983119 $156 72.138431958983119 $151 $239 forward 7 unknown #
coedge $-1 $146 $93 $237 $240 forward $155 $-1 #
coedge $-1 $93 $146 $233 $241 reversed $155 $-1 #
loop $-1 $-1 $153 $217 #
vertex $-1 $94 $242 #
vertex $-1 $94 $243 #
straight-curve $-1 72.138431958983119 0 11.131472759929611 0 1 0 I I #
face $-1 $-1 $171 $22 $-1 $244 forward single #
loop $-1 $-1 $245 $95 #
plane-surface $-1 0 -41.817042089862142 0 0 1 0 0 0 1 forward_v I I I I #
coedge $-1 $246 $247 $248 $249 reversed $96 $-1 #
coedge $-1 $250 $98 $100 $169 forward $61 $-1 #
coedge $-1 $98 $250 $246 $251 forward $61 $-1 #
coedge $-1 $248 $101 $98 $166 forward $171 $-1 #
edge $-1 $173 5.2746138901961395 $252 20.255331505726904 $165 $253 forward 7 unknown #
coedge $-1 $254 $255 $99 $168 forward $160 $-1 #
edge $-1 $256 -54.928199985799608 $172 -47.632046647993278 $167 $257 forward 7 unknown #
edge $-1 $173 -11.850917328308729 $256 -1.8033521786330445e-014 $100 $258 forward 7 unknown #
coedge $-1 $101 $248 $254 $259 forward $171 $-1 #
loop $-1 $-1 $248 $159 #
vertex $-1 $168 $260 #
vertex $-1 $102 $261 #
straight-curve $-1 -18.039586588157661 -65.321375049437506 11.131472759929608 0 1 0 I I #
coedge $-1 $175 $175 $-1 $262 reversed $105 $-1 #
edge $-1 $263 0 $263 6.2831853071796004 $106 $264 forward 7 unknown #
vertex $-1 $109 $265 #
ellipse-curve $-1 -25.529945395923043 -37.147716978199178 7.4833960910264468 0 -0.61566148304635926 0.78801074757464917 2.5 0 0 1 I I #
face $-1 $-1 $266 $24 $-1 $267 reversed single #
loop $-1 $-1 $186 $110 #
plane-surface $-1 0 0 11.131472759929611 0 0 1 1 0 0 forward_v I I I I #
coedge $-1 $268 $113 $115 $188 forward $70 $-1 #
coedge $-1 $113 $268 $269 $270 reversed $70 $-1 #
coedge $-1 $271 $116 $113 $185 forward $111 $-1 #
edge $-1 $191 22.167866927719775 $272 40.702998996748818 $184 $273 forward 7 unknown #
coedge $-1 $274 $275 $114 $187 forward $180 $-1 #
edge $-1 $276 -6.7451745214993082 $190 5.1411728372706733 $186 $277 forward 7 unknown #
edge $-1 $191 -83.634084179724255 $276 -67.884519341167405 $115 $278 forward 7 unknown #
coedge $-1 $116 $271 $274 $279 reversed $111 $-1 #
vertex $-1 $279 $280 #
vertex $-1 $117 $281 #
straight-curve $-1 -53.603299889954073 41.817042089862142 82.277427773378193 0 0 -1 I I #
coedge $-1 $193 $193 $-1 $282 reversed $120 $-1 #
edge $-1 $283 0 $283 6.2831853071796004 $121 $284 forward 7 unknown #
vertex $-1 $124 $285 #
ellipse-curve $-1 -62.870865924468596 35.873868410477158 5.9651505895997241 0 0.6560590369687036 0.75470957328743171 3 0 0 1 I I #
face $-1 $-1 $209 $26 $-1 $286 reversed single #
loop $-1 $-1 $287 $125 #
plane-surface $-1 0 0 11.131472759929611 0 0 1 1 0 0 forward_v I I I I #
coedge $-1 $288 $289 $290 $291 reversed $126 $-1 #
coedge $-1 $292 $128 $130 $207 forward $79 $-1 #
coedge $-1 $128 $292 $288 $293 forward $79 $-1 #
coedge $-1 $290 $131 $128 $204 forward $209 $-1 #
edge $-1 $211 -13.901349051771781 $294 4.6337830172572652 $203 $295 forward 7 unknown #
coedge $-1 $296 $297 $129 $206 forward $198 $-1 #
edge $-1 $298 -6.7451745214993082 $210 5.1411728372706733 $205 $299 forward 7 unknown #
edge $-1 $211 -83.634084179724255 $298 -67.884519341167405 $130 $300 forward 7 unknown #
coedge $-1 $131 $290 $296 $301 reversed $209 $-1 #
loop $-1 $-1 $290 $197 #
vertex $-1 $301 $302 #
vertex $-1 $132 $303 #
straight-curve $-1 18.535132069029039 41.817042089862142 82.277427773378193 0 0 -1 I I #
coedge $-1 $213 $213 $-1 $304 reversed $135 $-1 #
edge $-1 $305 0 $305 6.2831853071796004 $136 $306 forward 7 unknown #
vertex $-1 $139 $307 #
ellipse-curve $-1 9.2675660345145161 35.873868410477158 5.9651505895997241 0 0.6560590369687036 0.75470957328743171 3 0 0 1 I I #
face $-1 $-1 $155 $21 $-1 $308 reversed single #
loop $-1 $-1 $233 $140 #
plane-surface $-1 0 41.817042089862142 0 0 -1 0 0 0 -1 forward_v I I I I #
coedge $-1 $309 $231 $234 $310 forward $141 $-1 #
coedge $-1 $237 $143 $144 $225 reversed $88 $-1 #
coedge $-1 $231 $309 $143 $223 reversed $141 $-1 #
edge $-1 $238 -11.131472759929611 $311 11.131472759929611 $222 $312 forward 7 unknown #
coedge $-1 $145 $144 $309 $313 forward $57 $-1 #
edge $-1 $229 -72.138431958983119 $311 72.138431958983119 $221 $314 forward 7 unknown #
coedge $-1 $234 $233 $145 $227 reversed $218 $-1 #
edge $-1 $315 -72.138431958983119 $228 72.138431958983119 $226 $316 forward 7 unknown #
vertex $-1 $147 $317 #
vertex $-1 $240 $318 #
straight-curve $-1 72.138431958983119 0 -11.131472759929611 0 -1 0 I I #
coedge $-1 $220 $222 $148 $232 reversed $141 $-1 #
edge $-1 $235 -41.817042089862142 $238 41.817042089862142 $231 $319 forward 7 unknown #
coedge $-1 $226 $149 $154 $241 forward $218 $-1 #
coedge $-1 $149 $226 $220 $310 reversed $218 $-1 #
vertex $-1 $150 $320 #
straight-curve $-1 0 41.817042089862142 11.131472759929611 -1 0 0 I I #
coedge $-1 $151 $221 $153 $240 reversed $88 $-1 #
vertex $-1 $232 $321 #
straight-curve $-1 0 -41.817042089862142 11.131472759929611 1 0 0 I I #
edge $-1 $156 -11.131472759929611 $229 11.131472759929611 $153 $322 forward 7 unknown #
edge $-1 $157 -11.131472759929611 $228 11.131472759929611 $154 $323 forward 7 unknown #
point $-1 72.138431958983119 -41.817042089862142 11.131472759929611 #
point $-1 72.138431958983119 41.817042089862142 11.131472759929611 #
plane-surface $-1 0 0 11.131472759929611 0 0 1 1 0 0 forward_v I I I I #
coedge $-1 $255 $254 $247 $324 forward $160 $-1 #
coedge $-1 $247 $162 $164 $251 reversed $96 $-1 #
coedge $-1 $162 $246 $245 $324 reversed $96 $-1 #
coedge $-1 $170 $165 $162 $249 forward $171 $-1 #
edge $-1 $252 -32.842983182901278 $325 -23.504332959575365 $248 $326 forward 7 unknown #
coedge $-1 $164 $163 $255 $327 reversed $61 $-1 #
edge $-1 $328 1.8033521786330445e-014 $252 11.850917328308729 $246 $329 forward 7 unknown #
vertex $-1 $166 $330 #
straight-curve $-1 -12.764972697961522 -32.478391866536228 11.131472759929611 -1 0 0 I I #
coedge $-1 $245 $167 $170 $259 reversed $160 $-1 #
coedge $-1 $167 $245 $250 $327 forward $160 $-1 #
vertex $-1 $168 $331 #
straight-curve $-1 -18.039586588157661 -41.817042089862142 58.763519407922885 0 0 1 I I #
straight-curve $-1 -18.039586588157661 -41.817042089862156 3.8353194221232627 0 -0.78801074757464917 -0.61566148304635926 I I #
edge $-1 $325 -33.020304203688426 $172 -18.039586588157661 $254 $332 forward 7 unknown #
point $-1 -18.039586588157661 -41.817042089862142 11.131472759929611 #
point $-1 -18.039586588157661 -32.478391866536228 11.131472759929611 #
edge $-1 $333 1 $333 0 $175 $-1 forward 7 unknown #
vertex $-1 $176 $334 #
ellipse-curve $-1 -25.529945395923043 -33.694614573097461 3.0636266517693072 0 -0.61566148304635926 0.78801074757464917 2.5 0 0 1 I I #
point $-1 -23.029945395923043 -37.147716978199163 7.4833960910264246 #
loop $-1 $-1 $269 $179 #
plane-surface $-1 -72.138431958983119 0 0 1 0 0 0 0 -1 forward_v I I I I #
coedge $-1 $183 $182 $275 $335 reversed $70 $-1 #
coedge $-1 $336 $337 $183 $270 forward $266 $-1 #
edge $-1 $272 -57.334863784028634 $338 -41.585298945471784 $269 $339 forward 7 unknown #
coedge $-1 $189 $184 $337 $340 reversed $111 $-1 #
vertex $-1 $185 $341 #
straight-curve $-1 -31.435432962234298 41.817042089862142 0.79882841926984227 -1 0 0 I I #
coedge $-1 $342 $186 $189 $279 forward $180 $-1 #
coedge $-1 $186 $342 $268 $335 forward $180 $-1 #
vertex $-1 $187 $343 #
straight-curve $-1 -53.603299889954073 36.675869252591468 11.131472759929608 0 1 0 I I #
straight-curve $-1 -53.603299889954073 -21.302401893702694 55.667725143979226 0 -0.75470957328743171 0.6560590369687036 I I #
edge $-1 $190 53.603299889954073 $344 72.138431958983119 $189 $345 forward 7 unknown #
point $-1 -53.603299889954073 41.817042089862142 11.131472759929611 #
point $-1 -53.603299889954073 41.817042089862142 0.79882841926983872 #
edge $-1 $346 1 $346 0 $193 $-1 forward 7 unknown #
vertex $-1 $194 $347 #
ellipse-curve $-1 -62.870865924468596 28.904490011437701 -2.0522019674516709 0 0.6560590369687036 0.75470957328743171 3 0 0 1 I I #
point $-1 -59.870865924468596 35.873868410477137 5.9651505895996983 #
plane-surface $-1 0 41.817042089862142 0 0 -1 0 0 0 -1 forward_v I I I I #
coedge $-1 $297 $296 $289 $348 forward $198 $-1 #
coedge $-1 $289 $200 $202 $293 reversed $126 $-1 #
coedge $-1 $200 $288 $287 $348 reversed $126 $-1 #
coedge $-1 $208 $203 $200 $291 forward $209 $-1 #
edge $-1 $294 -81.478599354108354 $349 -71.145955013448585 $290 $350 forward 7 unknown #
coedge $-1 $202 $201 $297 $351 reversed $79 $-1 #
edge $-1 $352 67.884519341167405 $294 83.634084179724255 $288 $353 forward 7 unknown #
vertex $-1 $204 $354 #
straight-curve $-1 4.6337830172572581 41.817042089862142 0.79882841926984227 -1 0 0 I I #
coedge $-1 $287 $205 $208 $301 forward $198 $-1 #
coedge $-1 $205 $287 $292 $351 forward $198 $-1 #
vertex $-1 $206 $355 #
straight-curve $-1 18.535132069029039 36.675869252591468 11.131472759929608 0 1 0 I I #
straight-curve $-1 18.535132069029039 -21.302401893702694 55.667725143979226 0 -0.75470957328743171 0.6560590369687036 I I #
edge $-1 $210 -18.535132069029039 $349 7.1054273576010019e-015 $208 $356 forward 7 unknown #
point $-1 18.535132069029039 41.817042089862142 11.131472759929611 #
point $-1 18.535132069029039 41.817042089862142 0.79882841926983872 #
edge $-1 $357 1 $357 0 $213 $-1 forward 7 unknown #
vertex $-1 $214 $358 #
ellipse-curve $-1 9.2675660345145161 28.904490011437701 -2.0522019674516709 0 0.6560590369687036 0.75470957328743171 3 0 0 1 I I #
point $-1 12.267566034514516 35.873868410477137 5.9651505895996983 #
plane-surface $-1 72.138431958983119 0 0 -1 0 0 0 0 1 forward_v I I I I #
coedge $-1 $222 $220 $224 $313 reversed $141 $-1 #
edge $-1 $235 -11.131472759929611 $315 11.131472759929611 $234 $359 forward 7 unknown #
vertex $-1 $313 $360 #
straight-curve $-1 -72.138431958983119 -41.817042089862142 0 0 0 -1 I I #
edge $-1 $311 -41.817042089862142 $315 41.817042089862142 $309 $361 forward 7 unknown #
straight-curve $-1 0 -41.817042089862142 -11.131472759929611 -1 0 0 I I #
vertex $-1 $227 $362 #
straight-curve $-1 0 41.817042089862142 -11.131472759929611 1 0 0 I I #
point $-1 72.138431958983119 41.817042089862142 -11.131472759929611 #
point $-1 72.138431958983119 -41.817042089862142 -11.131472759929611 #
straight-curve $-1 -72.138431958983119 0 11.131472759929611 0 -1 0 I I #
point $-1 -72.138431958983119 41.817042089862142 11.131472759929611 #
point $-1 -72.138431958983119 -41.817042089862142 11.131472759929611 #
straight-curve $-1 72.138431958983119 -41.817042089862142 0 0 0 -1 I I #
straight-curve $-1 72.138431958983119 41.817042089862142 0 0 0 -1 I I #
edge $-1 $325 47.632046647993278 $328 54.928199985799608 $245 $363 forward 7 unknown #
vertex $-1 $259 $364 #
straight-curve $-1 -33.020304203688426 -65.321375049437506 11.131472759929608 0 -1 0 I I #
edge $-1 $328 -20.255331505726904 $256 -5.2746138901961395 $255 $365 forward 7 unknown #
vertex $-1 $327 $366 #
straight-curve $-1 -33.020304203688426 -41.817042089862156 3.8353194221232627 0 0.78801074757464917 0.61566148304635926 I I #
point $-1 -33.020304203688426 -32.478391866536228 11.131472759929611 #
point $-1 -18.039586588157661 -41.817042089862142 3.8353194221232738 #
straight-curve $-1 0 -41.817042089862142 11.131472759929611 1 0 0 I I #
vertex $-1 $262 $367 #
point $-1 -23.029945395923043 -33.694614573097461 3.0636266517693072 #
edge $-1 $338 -40.702998996748818 $276 -22.167866927719775 $275 $368 forward 7 unknown #
coedge $-1 $337 $269 $342 $369 reversed $266 $-1 #
coedge $-1 $269 $336 $271 $340 forward $266 $-1 #
vertex $-1 $270 $370 #
straight-curve $-1 -72.138431958983119 -1.4541284910751333 38.413883938151471 0 -0.75470957328743171 0.6560590369687036 I I #
edge $-1 $344 -11.131472759929611 $272 -0.79882841926984249 $271 $371 forward 7 unknown #
point $-1 -72.138431958983119 41.817042089862142 0.79882841926984249 #
coedge $-1 $275 $274 $336 $369 forward $180 $-1 #
point $-1 -53.603299889954073 29.93069473109216 11.131472759929608 #
vertex $-1 $279 $372 #
straight-curve $-1 0 41.817042089862142 11.131472759929611 -1 0 0 I I #
vertex $-1 $282 $373 #
point $-1 -59.870865924468596 28.904490011437701 -2.0522019674516709 #
edge $-1 $349 -5.1411728372706733 $352 6.7451745214993082 $287 $374 forward 7 unknown #
vertex $-1 $348 $375 #
straight-curve $-1 -7.1054273576010019e-015 41.817042089862142 82.277427773378193 0 0 1 I I #
edge $-1 $352 -4.6337830172572652 $298 13.901349051771781 $297 $376 forward 7 unknown #
vertex $-1 $351 $377 #
straight-curve $-1 -7.1054273576010019e-015 -21.302401893702694 55.667725143979226 0 0.75470957328743171 -0.6560590369687036 I I #
point $-1 -7.1054273576010019e-015 41.817042089862142 0.79882841926983872 #
point $-1 18.535132069029039 29.93069473109216 11.131472759929608 #
straight-curve $-1 0 41.817042089862142 11.131472759929611 -1 0 0 I I #
vertex $-1 $304 $378 #
point $-1 12.267566034514516 28.904490011437701 -2.0522019674516709 #
straight-curve $-1 -72.138431958983119 41.817042089862142 0 0 0 -1 I I #
point $-1 -72.138431958983119 -41.817042089862142 -11.131472759929611 #
straight-curve $-1 -72.138431958983119 0 -11.131472759929611 0 1 0 I I #
point $-1 -72.138431958983119 41.817042089862142 -11.131472759929611 #
straight-curve $-1 -33.020304203688426 -41.817042089862142 58.763519407922885 0 0 -1 I I #
point $-1 -33.020304203688426 -41.817042089862142 11.131472759929611 #
straight-curve $-1 -12.764972697961522 -41.817042089862142 3.8353194221232743 1 0 0 I I #
point $-1 -33.020304203688426 -41.817042089862142 3.8353194221232738 #
point $-1 -25.529945395923043 -32.155460865481565 1.0935997828326842 #
straight-curve $-1 -31.435432962234298 29.930694731092149 11.131472759929615 1 0 0 I I #
edge $-1 $344 -41.817042089862142 $338 -29.93069473109216 $336 $379 forward 7 unknown #
point $-1 -72.138431958983119 29.93069473109216 11.131472759929608 #
straight-curve $-1 -72.138431958983119 41.817042089862142 0 0 0 -1 I I #
point $-1 -72.138431958983119 41.817042089862142 11.131472759929611 #
point $-1 -62.870865924468596 26.93631290053159 -4.3163306873139664 #
straight-curve $-1 -7.1054273576010019e-015 36.675869252591468 11.131472759929608 0 -1 0 I I #
point $-1 -7.1054273576010019e-015 41.817042089862142 11.131472759929611 #
straight-curve $-1 4.6337830172572581 29.930694731092149 11.131472759929615 1 0 0 I I #
point $-1 -7.1054273576010019e-015 29.93069473109216 11.131472759929608 #
point $-1 9.2675660345145161 26.93631290053159 -4.3163306873139664 #
straight-curve $-1 -72.138431958983119 0 11.131472759929611 0 -1 0 I I #
End-of-ACIS-data 