500 0 17 0           
7 Unknown 11 ACIS 5.0 NT 24 Fri Mar 26 16:30:56 1999 
-1 9.9999999999999995e-007 1e-010 
body $-1 $17 $-1 $18 #
body $-1 $19 $-1 $20 #
body $-1 $21 $-1 $22 #
body $-1 $23 $-1 $24 #
body $-1 $25 $-1 $26 #
body $-1 $27 $-1 $28 #
body $-1 $29 $-1 $30 #
body $-1 $31 $-1 $32 #
body $-1 $33 $-1 $34 #
body $-1 $35 $-1 $36 #
body $-1 $37 $-1 $38 #
body $-1 $39 $-1 $40 #
body $-1 $41 $-1 $42 #
body $-1 $43 $-1 $44 #
body $-1 $45 $-1 $46 #
body $-1 $47 $-1 $48 #
body $-1 $49 $-1 $50 #
lump $-1 $-1 $51 $0 #
transform $-1 1 0 0 0 1 0 0 0 1 52.513809625537888 25.531227973313285 12.528588944709504 1 rotate no_reflect no_shear #
lump $-1 $-1 $52 $1 #
transform $-1 1 0 0 0 1 0 0 0 1 52.513809625537888 25.531227973313285 12.528588944709504 1 rotate no_reflect no_shear #
lump $-1 $-1 $53 $2 #
transform $-1 1 0 0 0 1 0 0 0 1 52.513809625537888 25.531227973313285 12.528588944709504 1 rotate no_reflect no_shear #
lump $-1 $-1 $54 $3 #
transform $-1 1 0 0 0 1 0 0 0 1 52.513809625537888 25.531227973313285 12.528588944709504 1 rotate no_reflect no_shear #
lump $-1 $-1 $55 $4 #
transform $-1 1 0 0 0 1 0 0 0 1 52.513809625537888 25.531227973313285 12.528588944709504 1 rotate no_reflect no_shear #
lump $-1 $-1 $56 $5 #
transform $-1 1 0 0 0 1 0 0 0 1 52.513809625537888 25.531227973313285 12.528588944709504 1 rotate no_reflect no_shear #
lump $-1 $-1 $57 $6 #
transform $-1 1 0 0 0 1 0 0 0 1 52.513809625537888 25.531227973313285 12.528588944709504 1 rotate no_reflect no_shear #
lump $-1 $-1 $58 $7 #
transform $-1 1 0 0 0 1 0 0 0 1 52.513809625537888 25.531227973313285 12.528588944709504 1 rotate no_reflect no_shear #
lump $-1 $-1 $59 $8 #
transform $-1 1 0 0 0 1 0 0 0 1 52.513809625537888 25.531227973313285 12.528588944709504 1 rotate no_reflect no_shear #
lump $-1 $-1 $60 $9 #
transform $-1 1 0 0 0 1 0 0 0 1 52.513809625537888 25.531227973313285 12.528588944709504 1 rotate no_reflect no_shear #
lump $-1 $-1 $61 $10 #
transform $-1 1 0 0 0 1 0 0 0 1 52.513809625537888 25.531227973313285 12.528588944709504 1 rotate no_reflect no_shear #
lump $-1 $-1 $62 $11 #
transform $-1 1 0 0 0 1 0 0 0 1 52.513809625537888 25.531227973313285 12.528588944709504 1 rotate no_reflect no_shear #
lump $-1 $-1 $63 $12 #
transform $-1 1 0 0 0 1 0 0 0 1 52.513809625537888 25.531227973313285 12.528588944709504 1 rotate no_reflect no_shear #
lump $-1 $-1 $64 $13 #
transform $-1 1 0 0 0 1 0 0 0 1 52.513809625537888 25.531227973313285 12.528588944709504 1 rotate no_reflect no_shear #
lump $-1 $-1 $65 $14 #
transform $-1 1 0 0 0 1 0 0 0 1 52.513809625537888 25.531227973313285 12.528588944709504 1 rotate no_reflect no_shear #
lump $-1 $-1 $66 $15 #
transform $-1 1 0 0 0 1 0 0 0 1 52.513809625537888 25.531227973313285 12.528588944709504 1 rotate no_reflect no_shear #
lump $-1 $-1 $67 $16 #
transform $-1 1 0 0 0 1 0 0 0 1 52.513809625537888 25.531227973313285 12.528588944709504 1 rotate no_reflect no_shear #
shell $-1 $-1 $-1 $68 $-1 $17 #
shell $-1 $-1 $-1 $69 $-1 $19 #
shell $-1 $-1 $-1 $70 $-1 $21 #
shell $-1 $-1 $-1 $71 $-1 $23 #
shell $-1 $-1 $-1 $72 $-1 $25 #
shell $-1 $-1 $-1 $73 $-1 $27 #
shell $-1 $-1 $-1 $74 $-1 $29 #
shell $-1 $-1 $-1 $75 $-1 $31 #
shell $-1 $-1 $-1 $76 $-1 $33 #
shell $-1 $-1 $-1 $77 $-1 $35 #
shell $-1 $-1 $-1 $78 $-1 $37 #
shell $-1 $-1 $-1 $79 $-1 $39 #
shell $-1 $-1 $-1 $80 $-1 $41 #
shell $-1 $-1 $-1 $81 $-1 $43 #
shell $-1 $-1 $-1 $82 $-1 $45 #
shell $-1 $-1 $-1 $83 $-1 $47 #
shell $-1 $-1 $-1 $84 $-1 $49 #
face $-1 $85 $86 $51 $-1 $87 forward single #
face $-1 $88 $89 $52 $-1 $90 reversed single #
face $-1 $91 $92 $53 $-1 $93 reversed single #
face $-1 $94 $95 $54 $-1 $96 forward single #
face $-1 $97 $98 $55 $-1 $99 forward single #
face $-1 $100 $101 $56 $-1 $102 reversed single #
face $-1 $103 $104 $57 $-1 $105 forward single #
face $-1 $106 $107 $58 $-1 $108 forward single #
face $-1 $109 $110 $59 $-1 $111 reversed single #
face $-1 $112 $113 $60 $-1 $114 forward single #
face $-1 $115 $116 $61 $-1 $117 forward single #
face $-1 $118 $119 $62 $-1 $120 reversed single #
face $-1 $121 $122 $63 $-1 $123 forward single #
face $-1 $124 $125 $64 $-1 $126 forward single #
face $-1 $127 $128 $65 $-1 $129 reversed single #
face $-1 $130 $131 $66 $-1 $132 forward single #
face $-1 $133 $134 $67 $-1 $135 forward single #
face $-1 $136 $137 $51 $-1 $138 reversed single #
loop $-1 $-1 $139 $68 #
plane-surface $-1 0 0 12.528588944709504 0 0 1 1 0 0 forward_v I I I I #
face $-1 $140 $141 $52 $-1 $142 reversed single #
loop $-1 $-1 $143 $69 #
plane-surface $-1 0 -17.904599049169267 7.7802892935736239 0 0 1 1 0 0 forward_v I I I I #
face $-1 $144 $145 $53 $-1 $146 reversed single #
loop $-1 $-1 $147 $70 #
plane-surface $-1 65.459183304913736 -3.8628796636593465 150.31708997978535 0 -1 0 -0.7660444514056185 0 -0.64278759981090561 forward_v I I I I #
face $-1 $148 $149 $54 $-1 $150 forward single #
loop $-1 $151 $152 $71 #
cone-surface $-1 47.547431424303028 -8.4450871360635631 6.8554408096925474 -0.7660444514056185 0 -0.64278759981090561 0.3213937999054528 0 -0.38302222570280925 1 I I 0 1 0.5 forward I I I I #
face $-1 $153 $154 $55 $-1 $155 forward single #
loop $-1 $156 $157 $72 #
cone-surface $-1 47.547431424303028 -5.6957626526210312 6.8554408096925474 -0.7660444514056185 0 -0.64278759981090561 0.3213937999054528 0 -0.38302222570280925 1 I I 0 1 0.5 forward I I I I #
face $-1 $158 $159 $56 $-1 $160 reversed single #
loop $-1 $-1 $161 $73 #
plane-surface $-1 65.459183304913736 8.0735197024535026 150.31708997978535 0 -1 0 -0.7660444514056185 0 -0.64278759981090561 forward_v I I I I #
face $-1 $162 $163 $57 $-1 $164 forward single #
loop $-1 $165 $166 $74 #
cone-surface $-1 47.547431424303028 3.4913122300492816 6.8554408096925474 -0.7660444514056185 0 -0.64278759981090561 0.3213937999054528 0 -0.38302222570280925 1 I I 0 1 0.5 forward I I I I #
face $-1 $167 $168 $58 $-1 $169 forward single #
loop $-1 $170 $171 $75 #
cone-surface $-1 47.547431424303028 6.240636713491817 6.8554408096925474 -0.7660444514056185 0 -0.64278759981090561 0.3213937999054528 0 -0.38302222570280925 1 I I 0 1 0.5 forward I I I I #
face $-1 $172 $173 $59 $-1 $174 reversed single #
loop $-1 $-1 $175 $76 #
plane-surface $-1 65.459183304913736 20.009919068566347 150.31708997978535 0 -1 0 -0.7660444514056185 0 -0.64278759981090561 forward_v I I I I #
face $-1 $176 $177 $60 $-1 $178 forward single #
loop $-1 $179 $180 $77 #
cone-surface $-1 47.547431424303028 15.427711596162126 6.8554408096925474 -0.7660444514056185 0 -0.64278759981090561 0.3213937999054528 0 -0.38302222570280925 1 I I 0 1 0.5 forward I I I I #
face $-1 $181 $182 $61 $-1 $183 forward single #
loop $-1 $184 $185 $78 #
cone-surface $-1 47.547431424303028 18.177036079604662 6.8554408096925474 -0.7660444514056185 0 -0.64278759981090561 0.3213937999054528 0 -0.38302222570280925 1 I I 0 1 0.5 forward I I I I #
face $-1 $186 $187 $62 $-1 $188 reversed single #
loop $-1 $-1 $189 $79 #
plane-surface $-1 -139.58565298868166 1.3568701797790652 66.303377460086324 0 1 0 -0.82903758062907751 0 0.55919289150049634 forward_v I I I I #
face $-1 $190 $191 $63 $-1 $192 forward single #
loop $-1 $193 $194 $80 #
cone-surface $-1 -50.427889276721665 3.1482298210261952 9.7710377084365305 0.82903758062907751 0 -0.55919289150049634 0.27959644575024817 0 0.41451879031453875 1 I I 0 1 0.5 forward I I I I #
face $-1 $195 $196 $64 $-1 $197 forward single #
loop $-1 $198 $199 $81 #
cone-surface $-1 -50.427889276721665 5.8352692828968884 9.7710377084365305 0.82903758062907751 0 -0.55919289150049634 0.27959644575024817 0 0.41451879031453875 1 I I 0 1 0.5 forward I I I I #
face $-1 $200 $201 $65 $-1 $202 reversed single #
loop $-1 $-1 $203 $82 #
plane-surface $-1 -52.513809625537874 4.49174955196154 7.572679363664065 -0.82903758062907751 0 0.55919289150049634 0.55919289150049634 0 0.82903758062907751 forward_v I I I I #
face $-1 $204 $205 $66 $-1 $206 forward single #
loop $-1 $207 $208 $83 #
cone-surface $-1 -50.427889276721665 9.4179885653911484 9.7710377084365305 0.82903758062907751 0 -0.55919289150049634 0.27959644575024817 0 0.41451879031453875 1 I I 0 1 0.5 forward I I I I #
face $-1 $209 $210 $67 $-1 $211 forward single #
loop $-1 $212 $213 $84 #
cone-surface $-1 -50.427889276721665 12.105028027261845 9.7710377084365305 0.82903758062907751 0 -0.55919289150049634 0.27959644575024817 0 0.41451879031453875 1 I I 0 1 0.5 forward I I I I #
face $-1 $214 $215 $51 $-1 $216 reversed single #
loop $-1 $-1 $217 $85 #
plane-surface $-1 0 0 -12.528588944709504 0 0 1 1 0 0 forward_v I I I I #
coedge $-1 $218 $219 $220 $221 forward $86 $-1 #
face $-1 $222 $223 $52 $-1 $224 reversed single #
loop $-1 $-1 $225 $88 #
plane-surface $-1 0 -10.277970125025249 10.154439119141564 0 -1 0 0 0 -1 forward_v I I I I #
coedge $-1 $226 $227 $228 $229 reversed $89 $-1 #
face $-1 $230 $231 $53 $-1 $232 forward single #
loop $-1 $-1 $233 $91 #
plane-surface $-1 -14.99664166671478 -7.0704248943422989 82.806638687532683 0.7660444514056185 0 0.64278759981090561 0.64278759981090561 0 -0.7660444514056185 forward_v I I I I #
coedge $-1 $234 $235 $236 $237 reversed $92 $-1 #
face $-1 $-1 $238 $54 $-1 $239 forward single #
loop $-1 $240 $241 $94 #
cone-surface $-1 46.659625718768766 -8.4450871360635631 6.110483389125541 -0.7660444514056185 0 -0.64278759981090561 0.1606968999527264 0 -0.19151111285140462 1 I I -0.70710678118654746 0.70710678118654746 0.25 forward I I I I #
loop $-1 $-1 $242 $71 #
coedge $-1 $152 $152 $243 $244 reversed $95 $-1 #
face $-1 $-1 $245 $55 $-1 $246 forward single #
loop $-1 $247 $248 $97 #
cone-surface $-1 46.659625718768766 -5.6957626526210312 6.110483389125541 -0.7660444514056185 0 -0.64278759981090561 0.1606968999527264 0 -0.19151111285140462 1 I I -0.70710678118654746 0.70710678118654746 0.25 forward I I I I #
loop $-1 $-1 $249 $72 #
coedge $-1 $157 $157 $250 $251 reversed $98 $-1 #
face $-1 $252 $253 $56 $-1 $254 reversed single #
loop $-1 $-1 $255 $100 #
plane-surface $-1 -14.99664166671478 4.8659744717705493 82.806638687532683 0.7660444514056185 0 0.64278759981090561 0.64278759981090561 0 -0.7660444514056185 forward_v I I I I #
coedge $-1 $256 $257 $258 $259 reversed $101 $-1 #
face $-1 $-1 $260 $57 $-1 $261 forward single #
loop $-1 $262 $263 $103 #
cone-surface $-1 46.659625718768766 3.4913122300492816 6.110483389125541 -0.7660444514056185 0 -0.64278759981090561 0.1606968999527264 0 -0.19151111285140462 1 I I -0.70710678118654746 0.70710678118654746 0.25 forward I I I I #
loop $-1 $-1 $264 $74 #
coedge $-1 $166 $166 $265 $266 reversed $104 $-1 #
face $-1 $-1 $267 $58 $-1 $268 forward single #
loop $-1 $269 $270 $106 #
cone-surface $-1 46.659625718768766 6.240636713491817 6.110483389125541 -0.7660444514056185 0 -0.64278759981090561 0.1606968999527264 0 -0.19151111285140462 1 I I -0.70710678118654746 0.70710678118654746 0.25 forward I I I I #
loop $-1 $-1 $271 $75 #
coedge $-1 $171 $171 $272 $273 reversed $107 $-1 #
face $-1 $274 $275 $59 $-1 $276 reversed single #
loop $-1 $-1 $277 $109 #
plane-surface $-1 -14.99664166671478 16.802373837883394 82.806638687532683 0.7660444514056185 0 0.64278759981090561 0.64278759981090561 0 -0.7660444514056185 forward_v I I I I #
coedge $-1 $278 $279 $280 $281 reversed $110 $-1 #
face $-1 $-1 $282 $60 $-1 $283 forward single #
loop $-1 $284 $285 $112 #
cone-surface $-1 46.659625718768766 15.427711596162126 6.110483389125541 -0.7660444514056185 0 -0.64278759981090561 0.1606968999527264 0 -0.19151111285140462 1 I I -0.70710678118654746 0.70710678118654746 0.25 forward I I I I #
loop $-1 $-1 $286 $77 #
coedge $-1 $180 $180 $287 $288 reversed $113 $-1 #
face $-1 $-1 $289 $61 $-1 $290 forward single #
loop $-1 $291 $292 $115 #
cone-surface $-1 46.659625718768766 18.177036079604662 6.110483389125541 -0.7660444514056185 0 -0.64278759981090561 0.1606968999527264 0 -0.19151111285140462 1 I I -0.70710678118654746 0.70710678118654746 0.25 forward I I I I #
loop $-1 $-1 $293 $78 #
coedge $-1 $185 $185 $294 $295 reversed $116 $-1 #
face $-1 $296 $297 $62 $-1 $298 reversed single #
loop $-1 $-1 $299 $118 #
plane-surface $-1 -52.513809625537874 4.49174955196154 7.572679363664065 -0.82903758062907751 0 0.55919289150049634 0.55919289150049634 0 0.82903758062907751 forward_v I I I I #
coedge $-1 $300 $301 $302 $303 reversed $119 $-1 #
face $-1 $-1 $304 $63 $-1 $305 forward single #
loop $-1 $306 $307 $121 #
cone-surface $-1 -49.806111091249853 3.1482298210261952 9.3516430398111581 0.82903758062907751 0 -0.55919289150049634 0.13979822287512408 0 0.20725939515726938 1 I I -0.70710678118654746 0.70710678118654746 0.25 forward I I I I #
loop $-1 $-1 $308 $80 #
coedge $-1 $194 $194 $309 $310 reversed $122 $-1 #
face $-1 $-1 $311 $64 $-1 $312 forward single #
loop $-1 $313 $314 $124 #
cone-surface $-1 -49.806111091249853 5.8352692828968884 9.3516430398111581 0.82903758062907751 0 -0.55919289150049634 0.13979822287512408 0 0.20725939515726938 1 I I -0.70710678118654746 0.70710678118654746 0.25 forward I I I I #
loop $-1 $-1 $315 $81 #
coedge $-1 $199 $199 $316 $317 reversed $125 $-1 #
face $-1 $318 $319 $65 $-1 $320 forward single #
loop $-1 $-1 $321 $127 #
plane-surface $-1 -139.58565298868166 13.896387668508964 66.303377460086324 0 -1 0 0.82903758062907751 0 -0.55919289150049634 forward_v I I I I #
coedge $-1 $322 $323 $324 $325 reversed $128 $-1 #
face $-1 $-1 $326 $66 $-1 $327 forward single #
loop $-1 $328 $329 $130 #
cone-surface $-1 -49.806111091249853 9.4179885653911484 9.3516430398111581 0.82903758062907751 0 -0.55919289150049634 0.13979822287512408 0 0.20725939515726938 1 I I -0.70710678118654746 0.70710678118654746 0.25 forward I I I I #
loop $-1 $-1 $330 $83 #
coedge $-1 $208 $208 $331 $332 reversed $131 $-1 #
face $-1 $-1 $333 $67 $-1 $334 forward single #
loop $-1 $335 $336 $133 #
cone-surface $-1 -49.806111091249853 12.105028027261845 9.3516430398111581 0.82903758062907751 0 -0.55919289150049634 0.13979822287512408 0 0.20725939515726938 1 I I -0.70710678118654746 0.70710678118654746 0.25 forward I I I I #
loop $-1 $-1 $337 $84 #
coedge $-1 $213 $213 $338 $339 reversed $134 $-1 #
face $-1 $340 $341 $51 $-1 $342 reversed single #
loop $-1 $-1 $343 $136 #
plane-surface $-1 0 -25.531227973313285 0 0 1 0 0 0 1 forward_v I I I I #
coedge $-1 $344 $345 $346 $347 forward $137 $-1 #
coedge $-1 $348 $139 $349 $350 forward $86 $-1 #
coedge $-1 $139 $348 $351 $352 forward $86 $-1 #
coedge $-1 $353 $354 $139 $221 reversed $355 $-1 #
edge $-1 $356 -25.531227973313285 $357 25.531227973313285 $220 $358 forward 7 unknown #
face $-1 $359 $360 $52 $-1 $361 reversed single #
loop $-1 $-1 $362 $140 #
plane-surface $-1 -52.513809625537888 0 0 1 0 0 0 0 -1 forward_v I I I I #
coedge $-1 $363 $364 $365 $366 reversed $141 $-1 #
coedge $-1 $367 $143 $368 $369 reversed $89 $-1 #
coedge $-1 $143 $367 $363 $370 forward $89 $-1 #
coedge $-1 $365 $371 $143 $229 forward $372 $-1 #
edge $-1 $373 -16.578928448728654 $374 -1.3256706004406151 $228 $375 forward 7 unknown #
face $-1 $376 $377 $53 $-1 $378 forward single #
loop $-1 $-1 $379 $144 #
plane-surface $-1 0 -10.277970125025249 10.154439119141564 0 -1 0 0 0 -1 forward_v I I I I #
coedge $-1 $380 $381 $382 $383 reversed $145 $-1 #
coedge $-1 $235 $147 $384 $385 reversed $92 $-1 #
coedge $-1 $147 $234 $380 $386 reversed $92 $-1 #
coedge $-1 $382 $387 $147 $237 forward $377 $-1 #
edge $-1 $388 -19.78421797308102 $389 -11.244050755977028 $236 $390 forward 7 unknown #
loop $-1 $-1 $243 $148 #
plane-surface $-1 -14.99664166671478 -7.0704248943422989 82.806638687532683 0.7660444514056185 0 0.64278759981090561 0.64278759981090561 0 -0.7660444514056185 forward_v I I I I #
loop $-1 $-1 $391 $94 #
coedge $-1 $241 $241 $242 $392 reversed $149 $-1 #
coedge $-1 $242 $242 $241 $392 forward $151 $-1 #
coedge $-1 $243 $243 $152 $244 forward $238 $-1 #
edge $-1 $393 0 $393 6.2831853071796004 $243 $394 forward 7 unknown #
loop $-1 $-1 $250 $153 #
plane-surface $-1 -14.99664166671478 -7.0704248943422989 82.806638687532683 0.7660444514056185 0 0.64278759981090561 0.64278759981090561 0 -0.7660444514056185 forward_v I I I I #
loop $-1 $-1 $395 $97 #
coedge $-1 $248 $248 $249 $396 reversed $154 $-1 #
coedge $-1 $249 $249 $248 $396 forward $156 $-1 #
coedge $-1 $250 $250 $157 $251 forward $245 $-1 #
edge $-1 $397 0 $397 6.2831853071796004 $250 $398 forward 7 unknown #
face $-1 $399 $400 $56 $-1 $401 reversed single #
loop $-1 $-1 $402 $158 #
plane-surface $-1 65.459183304913736 1.6584292410875969 150.31708997978535 0 1 0 0.7660444514056185 0 0.64278759981090561 forward_v I I I I #
coedge $-1 $403 $404 $405 $406 reversed $159 $-1 #
coedge $-1 $257 $161 $407 $408 reversed $101 $-1 #
coedge $-1 $161 $256 $403 $409 reversed $101 $-1 #
coedge $-1 $405 $410 $161 $259 forward $411 $-1 #
edge $-1 $412 -19.78421797308102 $413 -11.244050755977028 $258 $414 forward 7 unknown #
loop $-1 $-1 $265 $162 #
plane-surface $-1 -14.99664166671478 4.8659744717705493 82.806638687532683 0.7660444514056185 0 0.64278759981090561 0.64278759981090561 0 -0.7660444514056185 forward_v I I I I #
loop $-1 $-1 $415 $103 #
coedge $-1 $263 $263 $264 $416 reversed $163 $-1 #
coedge $-1 $264 $264 $263 $416 forward $165 $-1 #
coedge $-1 $265 $265 $166 $266 forward $260 $-1 #
edge $-1 $417 0 $417 6.2831853071796004 $265 $418 forward 7 unknown #
loop $-1 $-1 $272 $167 #
plane-surface $-1 -14.99664166671478 4.8659744717705493 82.806638687532683 0.7660444514056185 0 0.64278759981090561 0.64278759981090561 0 -0.7660444514056185 forward_v I I I I #
loop $-1 $-1 $419 $106 #
coedge $-1 $270 $270 $271 $420 reversed $168 $-1 #
coedge $-1 $271 $271 $270 $420 forward $170 $-1 #
coedge $-1 $272 $272 $171 $273 forward $267 $-1 #
edge $-1 $421 0 $421 6.2831853071796004 $272 $422 forward 7 unknown #
face $-1 $423 $424 $59 $-1 $425 reversed single #
loop $-1 $-1 $426 $172 #
plane-surface $-1 65.459183304913736 13.594828607200441 150.31708997978535 0 1 0 0.7660444514056185 0 0.64278759981090561 forward_v I I I I #
coedge $-1 $427 $428 $429 $430 reversed $173 $-1 #
coedge $-1 $279 $175 $431 $432 reversed $110 $-1 #
coedge $-1 $175 $278 $427 $433 reversed $110 $-1 #
coedge $-1 $429 $434 $175 $281 forward $435 $-1 #
edge $-1 $436 -19.78421797308102 $437 -11.244050755977028 $280 $438 forward 7 unknown #
loop $-1 $-1 $287 $176 #
plane-surface $-1 -14.99664166671478 16.802373837883394 82.806638687532683 0.7660444514056185 0 0.64278759981090561 0.64278759981090561 0 -0.7660444514056185 forward_v I I I I #
loop $-1 $-1 $439 $112 #
coedge $-1 $285 $285 $286 $440 reversed $177 $-1 #
coedge $-1 $286 $286 $285 $440 forward $179 $-1 #
coedge $-1 $287 $287 $180 $288 forward $282 $-1 #
edge $-1 $441 0 $441 6.2831853071796004 $287 $442 forward 7 unknown #
loop $-1 $-1 $294 $181 #
plane-surface $-1 -14.99664166671478 16.802373837883394 82.806638687532683 0.7660444514056185 0 0.64278759981090561 0.64278759981090561 0 -0.7660444514056185 forward_v I I I I #
loop $-1 $-1 $443 $115 #
coedge $-1 $292 $292 $293 $444 reversed $182 $-1 #
coedge $-1 $293 $293 $292 $444 forward $184 $-1 #
coedge $-1 $294 $294 $185 $295 forward $289 $-1 #
edge $-1 $445 0 $445 6.2831853071796004 $294 $446 forward 7 unknown #
face $-1 $447 $448 $62 $-1 $449 forward single #
loop $-1 $-1 $450 $186 #
plane-surface $-1 -139.58565298868166 7.6266289241440148 66.303377460086324 0 -1 0 0.82903758062907751 0 -0.55919289150049634 forward_v I I I I #
coedge $-1 $451 $452 $453 $454 reversed $187 $-1 #
coedge $-1 $301 $189 $455 $456 reversed $119 $-1 #
coedge $-1 $189 $300 $451 $457 reversed $119 $-1 #
coedge $-1 $453 $458 $189 $303 forward $448 $-1 #
edge $-1 $459 17.279016868802941 $460 20.621819985806326 $302 $461 forward 7 unknown #
loop $-1 $-1 $309 $190 #
plane-surface $-1 -52.513809625537874 4.49174955196154 7.572679363664065 -0.82903758062907751 0 0.55919289150049634 0.55919289150049634 0 0.82903758062907751 forward_v I I I I #
loop $-1 $-1 $462 $121 #
coedge $-1 $307 $307 $308 $463 reversed $191 $-1 #
coedge $-1 $308 $308 $307 $463 forward $193 $-1 #
coedge $-1 $309 $309 $194 $310 forward $304 $-1 #
edge $-1 $464 0 $464 6.2831853071796004 $309 $465 forward 7 unknown #
loop $-1 $-1 $316 $195 #
plane-surface $-1 -52.513809625537874 4.49174955196154 7.572679363664065 -0.82903758062907751 0 0.55919289150049634 0.55919289150049634 0 0.82903758062907751 forward_v I I I I #
loop $-1 $-1 $466 $124 #
coedge $-1 $314 $314 $315 $467 reversed $196 $-1 #
coedge $-1 $315 $315 $314 $467 forward $198 $-1 #
coedge $-1 $316 $316 $199 $317 forward $311 $-1 #
edge $-1 $468 0 $468 6.2831853071796004 $316 $469 forward 7 unknown #
face $-1 $470 $471 $65 $-1 $472 forward single #
loop $-1 $-1 $473 $200 #
plane-surface $-1 0 0 12.528588944709504 0 0 1 1 0 0 forward_v I I I I #
coedge $-1 $474 $475 $476 $477 reversed $201 $-1 #
coedge $-1 $478 $203 $479 $480 reversed $128 $-1 #
coedge $-1 $203 $478 $473 $481 reversed $128 $-1 #
coedge $-1 $482 $483 $203 $325 forward $471 $-1 #
edge $-1 $484 -2.5618607856530852e-014 $485 5.9779070296003631 $324 $486 forward 7 unknown #
loop $-1 $-1 $331 $204 #
plane-surface $-1 -52.513809625537874 4.49174955196154 7.572679363664065 -0.82903758062907751 0 0.55919289150049634 0.55919289150049634 0 0.82903758062907751 forward_v I I I I #
loop $-1 $-1 $487 $130 #
coedge $-1 $329 $329 $330 $488 reversed $205 $-1 #
coedge $-1 $330 $330 $329 $488 forward $207 $-1 #
coedge $-1 $331 $331 $208 $332 forward $326 $-1 #
edge $-1 $489 0 $489 6.2831853071796004 $331 $490 forward 7 unknown #
loop $-1 $-1 $338 $209 #
plane-surface $-1 -52.513809625537874 4.49174955196154 7.572679363664065 -0.82903758062907751 0 0.55919289150049634 0.55919289150049634 0 0.82903758062907751 forward_v I I I I #
loop $-1 $-1 $491 $133 #
coedge $-1 $336 $336 $337 $492 reversed $210 $-1 #
coedge $-1 $337 $337 $336 $492 forward $212 $-1 #
coedge $-1 $338 $338 $213 $339 forward $333 $-1 #
edge $-1 $493 0 $493 6.2831853071796004 $338 $494 forward 7 unknown #
face $-1 $495 $496 $51 $-1 $497 reversed single #
loop $-1 $-1 $498 $214 #
plane-surface $-1 -52.513809625537888 0 0 1 0 0 0 0 -1 forward_v I I I I #
coedge $-1 $499 $351 $500 $501 forward $215 $-1 #
coedge $-1 $502 $217 $499 $503 forward $137 $-1 #
coedge $-1 $217 $502 $504 $505 forward $137 $-1 #
coedge $-1 $354 $353 $217 $347 reversed $355 $-1 #
edge $-1 $506 -25.531227973313285 $507 25.531227973313285 $346 $508 forward 7 unknown #
coedge $-1 $219 $218 $509 $510 forward $86 $-1 #
coedge $-1 $511 $512 $218 $350 reversed $496 $-1 #
edge $-1 $357 -52.513809625537888 $513 52.513809625537888 $349 $514 forward 7 unknown #
coedge $-1 $343 $515 $219 $352 reversed $215 $-1 #
edge $-1 $516 -52.513809625537888 $356 52.513809625537888 $351 $517 forward 7 unknown #
coedge $-1 $346 $220 $515 $518 forward $355 $-1 #
coedge $-1 $220 $346 $511 $519 reversed $355 $-1 #
loop $-1 $-1 $353 $495 #
vertex $-1 $221 $520 #
vertex $-1 $221 $521 #
straight-curve $-1 52.513809625537888 0 12.528588944709504 0 1 0 I I #
face $-1 $522 $523 $52 $-1 $524 forward single #
loop $-1 $-1 $368 $222 #
plane-surface $-1 0 -25.531227973313285 0 0 1 0 0 0 1 forward_v I I I I #
coedge $-1 $525 $526 $527 $528 forward $223 $-1 #
coedge $-1 $527 $225 $227 $370 reversed $141 $-1 #
coedge $-1 $225 $527 $529 $530 reversed $141 $-1 #
coedge $-1 $531 $228 $225 $366 forward $372 $-1 #
edge $-1 $374 2.7030697340028418 $532 7.4513693851387224 $365 $533 forward 7 unknown #
coedge $-1 $227 $226 $525 $534 reversed $89 $-1 #
coedge $-1 $535 $536 $226 $369 forward $360 $-1 #
edge $-1 $537 -52.513809625537888 $373 52.513809625537888 $368 $538 forward 7 unknown #
edge $-1 $539 -52.513809625537888 $374 52.513809625537888 $363 $540 forward 7 unknown #
coedge $-1 $228 $531 $535 $541 forward $372 $-1 #
loop $-1 $-1 $365 $522 #
vertex $-1 $369 $542 #
vertex $-1 $229 $543 #
straight-curve $-1 52.513809625537888 -8.9522995245846335 7.7802892935736239 0 1 0 I I #
face $-1 $-1 $544 $53 $-1 $545 reversed single #
loop $-1 $-1 $382 $230 #
plane-surface $-1 0 0 12.528588944709504 0 0 1 1 0 0 forward_v I I I I #
coedge $-1 $546 $547 $381 $548 reversed $231 $-1 #
coedge $-1 $549 $233 $235 $386 forward $145 $-1 #
coedge $-1 $233 $549 $379 $548 forward $145 $-1 #
coedge $-1 $550 $236 $233 $383 forward $377 $-1 #
edge $-1 $389 0.32766721648819708 $551 6.7427576778540992 $382 $552 forward 7 unknown #
coedge $-1 $553 $554 $234 $385 forward $544 $-1 #
edge $-1 $555 -72.807731273988509 $388 -62.629956045183171 $384 $556 forward 7 unknown #
edge $-1 $389 91.741477421929872 $555 105.02761925107581 $235 $557 forward 7 unknown #
coedge $-1 $236 $550 $553 $558 forward $377 $-1 #
vertex $-1 $385 $559 #
vertex $-1 $237 $560 #
straight-curve $-1 32.729591652456868 -3.8628796636593465 12.528588944709497 -1 0 0 I I #
coedge $-1 $391 $391 $-1 $561 reversed $240 $-1 #
edge $-1 $562 0 $562 6.2831853071796004 $241 $563 forward 7 unknown #
vertex $-1 $244 $564 #
ellipse-curve $-1 48.243726016985889 -8.4450871360635631 7.4397013303068285 0.7660444514056185 0 0.64278759981090561 0.3213937999054528 0 -0.38302222570280925 1 I I #
coedge $-1 $395 $395 $-1 $565 reversed $247 $-1 #
edge $-1 $566 0 $566 6.2831853071796004 $248 $567 forward 7 unknown #
vertex $-1 $251 $568 #
ellipse-curve $-1 48.243726016985889 -5.6957626526210312 7.4397013303068285 0.7660444514056185 0 0.64278759981090561 0.3213937999054528 0 -0.38302222570280925 1 I I #
face $-1 $-1 $411 $56 $-1 $569 forward single #
loop $-1 $-1 $570 $252 #
plane-surface $-1 52.513809625537888 0 0 -1 0 0 0 0 1 forward_v I I I I #
coedge $-1 $571 $572 $573 $574 reversed $253 $-1 #
coedge $-1 $575 $255 $257 $409 forward $159 $-1 #
coedge $-1 $255 $575 $571 $576 forward $159 $-1 #
coedge $-1 $573 $258 $255 $406 forward $411 $-1 #
edge $-1 $413 -5.6405324665682279 $577 0.77455799479767773 $405 $578 forward 7 unknown #
coedge $-1 $579 $580 $256 $408 forward $400 $-1 #
edge $-1 $581 -72.807731273988509 $412 -62.629956045183171 $407 $582 forward 7 unknown #
edge $-1 $413 91.741477421929872 $581 105.02761925107581 $257 $583 forward 7 unknown #
coedge $-1 $258 $573 $579 $584 forward $411 $-1 #
loop $-1 $-1 $573 $399 #
vertex $-1 $408 $585 #
vertex $-1 $259 $586 #
straight-curve $-1 32.729591652456868 8.0735197024535026 12.528588944709497 -1 0 0 I I #
coedge $-1 $415 $415 $-1 $587 reversed $262 $-1 #
edge $-1 $588 0 $588 6.2831853071796004 $263 $589 forward 7 unknown #
vertex $-1 $266 $590 #
ellipse-curve $-1 48.243726016985889 3.4913122300492816 7.4397013303068285 0.7660444514056185 0 0.64278759981090561 0.3213937999054528 0 -0.38302222570280925 1 I I #
coedge $-1 $419 $419 $-1 $591 reversed $269 $-1 #
edge $-1 $592 0 $592 6.2831853071796004 $270 $593 forward 7 unknown #
vertex $-1 $273 $594 #
ellipse-curve $-1 48.243726016985889 6.240636713491817 7.4397013303068285 0.7660444514056185 0 0.64278759981090561 0.3213937999054528 0 -0.38302222570280925 1 I I #
face $-1 $-1 $435 $59 $-1 $595 forward single #
loop $-1 $-1 $596 $274 #
plane-surface $-1 52.513809625537888 0 0 -1 0 0 0 0 1 forward_v I I I I #
coedge $-1 $597 $598 $599 $600 reversed $275 $-1 #
coedge $-1 $601 $277 $279 $433 forward $173 $-1 #
coedge $-1 $277 $601 $597 $602 forward $173 $-1 #
coedge $-1 $599 $280 $277 $430 forward $435 $-1 #
edge $-1 $437 -11.60873214962465 $603 -5.1936416882587437 $429 $604 forward 7 unknown #
coedge $-1 $605 $606 $278 $432 forward $424 $-1 #
edge $-1 $607 -72.807731273988509 $436 -62.629956045183171 $431 $608 forward 7 unknown #
edge $-1 $437 91.741477421929872 $607 105.02761925107581 $279 $609 forward 7 unknown #
coedge $-1 $280 $599 $605 $610 forward $435 $-1 #
loop $-1 $-1 $599 $423 #
vertex $-1 $432 $611 #
vertex $-1 $281 $612 #
straight-curve $-1 32.729591652456868 20.009919068566347 12.528588944709497 -1 0 0 I I #
coedge $-1 $439 $439 $-1 $613 reversed $284 $-1 #
edge $-1 $614 0 $614 6.2831853071796004 $285 $615 forward 7 unknown #
vertex $-1 $288 $616 #
ellipse-curve $-1 48.243726016985889 15.427711596162126 7.4397013303068285 0.7660444514056185 0 0.64278759981090561 0.3213937999054528 0 -0.38302222570280925 1 I I #
coedge $-1 $443 $443 $-1 $617 reversed $291 $-1 #
edge $-1 $618 0 $618 6.2831853071796004 $292 $619 forward 7 unknown #
vertex $-1 $295 $620 #
ellipse-curve $-1 48.243726016985889 18.177036079604662 7.4397013303068285 0.7660444514056185 0 0.64278759981090561 0.3213937999054528 0 -0.38302222570280925 1 I I #
face $-1 $-1 $621 $62 $-1 $622 reversed single #
loop $-1 $-1 $302 $296 #
plane-surface $-1 0 0 12.528588944709504 0 0 1 1 0 0 forward_v I I I I #
coedge $-1 $623 $624 $625 $626 reversed $297 $-1 #
coedge $-1 $627 $299 $301 $457 forward $187 $-1 #
coedge $-1 $299 $627 $623 $628 forward $187 $-1 #
coedge $-1 $625 $302 $299 $454 forward $448 $-1 #
edge $-1 $460 -0.8890045962017048 $629 5.3807541481632448 $453 $630 forward 7 unknown #
coedge $-1 $631 $632 $300 $456 forward $621 $-1 #
edge $-1 $633 -25.579009366379118 $459 -20.623099785333658 $455 $634 forward 7 unknown #
edge $-1 $460 -5.9779070296003631 $633 2.5618607856530852e-014 $301 $635 forward 7 unknown #
coedge $-1 $302 $625 $631 $636 forward $448 $-1 #
vertex $-1 $456 $637 #
vertex $-1 $303 $638 #
straight-curve $-1 -69.792826494340829 1.3568701797790652 12.528588944709504 1 0 0 I I #
coedge $-1 $462 $462 $-1 $639 reversed $306 $-1 #
edge $-1 $640 0 $640 6.2831853071796004 $307 $641 forward 7 unknown #
vertex $-1 $310 $642 #
ellipse-curve $-1 -50.842408067036196 3.1482298210261952 10.050634154186774 -0.82903758062907751 0 0.55919289150049634 0.27959644575024817 0 0.41451879031453875 1 I I #
coedge $-1 $466 $466 $-1 $643 reversed $313 $-1 #
edge $-1 $644 0 $644 6.2831853071796004 $314 $645 forward 7 unknown #
vertex $-1 $317 $646 #
ellipse-curve $-1 -50.842408067036196 5.8352692828968884 10.050634154186774 -0.82903758062907751 0 0.55919289150049634 0.27959644575024817 0 0.41451879031453875 1 I I #
face $-1 $-1 $647 $65 $-1 $648 reversed single #
loop $-1 $-1 $482 $318 #
plane-surface $-1 -139.58565298868166 7.6266289241440148 66.303377460086324 0 -1 0 0.82903758062907751 0 -0.55919289150049634 forward_v I I I I #
coedge $-1 $476 $649 $323 $481 forward $319 $-1 #
coedge $-1 $475 $321 $478 $650 reversed $201 $-1 #
coedge $-1 $321 $474 $651 $652 reversed $201 $-1 #
coedge $-1 $653 $473 $321 $477 forward $319 $-1 #
edge $-1 $654 -20.621819985806326 $655 -17.279016868802941 $476 $656 forward 7 unknown #
coedge $-1 $323 $322 $474 $650 forward $128 $-1 #
coedge $-1 $657 $651 $322 $480 forward $647 $-1 #
edge $-1 $658 -11.650512892528194 $484 -5.3807541481632448 $479 $659 forward 7 unknown #
edge $-1 $485 5.3807541481632448 $654 11.650512892528194 $473 $660 forward 7 unknown #
coedge $-1 $483 $324 $649 $661 reversed $471 $-1 #
coedge $-1 $324 $482 $657 $662 reversed $471 $-1 #
vertex $-1 $480 $663 #
vertex $-1 $481 $664 #
straight-curve $-1 -52.513809625537874 7.6266289241440148 7.572679363664065 0.55919289150049634 0 0.82903758062907751 I I #
coedge $-1 $487 $487 $-1 $665 reversed $328 $-1 #
edge $-1 $666 0 $666 6.2831853071796004 $329 $667 forward 7 unknown #
vertex $-1 $332 $668 #
ellipse-curve $-1 -50.842408067036196 9.4179885653911484 10.050634154186774 -0.82903758062907751 0 0.55919289150049634 0.27959644575024817 0 0.41451879031453875 1 I I #
coedge $-1 $491 $491 $-1 $669 reversed $335 $-1 #
edge $-1 $670 0 $670 6.2831853071796004 $336 $671 forward 7 unknown #
vertex $-1 $339 $672 #
ellipse-curve $-1 -50.842408067036196 12.105028027261845 10.050634154186774 -0.82903758062907751 0 0.55919289150049634 0.27959644575024817 0 0.41451879031453875 1 I I #
face $-1 $-1 $355 $51 $-1 $673 reversed single #
loop $-1 $-1 $511 $340 #
plane-surface $-1 0 25.531227973313285 0 0 -1 0 0 0 -1 forward_v I I I I #
coedge $-1 $674 $509 $512 $675 forward $341 $-1 #
coedge $-1 $515 $343 $344 $503 reversed $215 $-1 #
coedge $-1 $509 $674 $343 $501 reversed $341 $-1 #
edge $-1 $516 -12.528588944709504 $676 12.528588944709504 $500 $677 forward 7 unknown #
coedge $-1 $345 $344 $674 $678 forward $137 $-1 #
edge $-1 $507 -52.513809625537888 $676 52.513809625537888 $499 $679 forward 7 unknown #
coedge $-1 $512 $511 $345 $505 reversed $496 $-1 #
edge $-1 $680 -52.513809625537888 $506 52.513809625537888 $504 $681 forward 7 unknown #
vertex $-1 $347 $682 #
vertex $-1 $518 $683 #
straight-curve $-1 52.513809625537888 0 -12.528588944709504 0 -1 0 I I #
coedge $-1 $498 $500 $348 $510 reversed $341 $-1 #
edge $-1 $513 -25.531227973313285 $516 25.531227973313285 $509 $684 forward 7 unknown #
coedge $-1 $504 $349 $354 $519 forward $496 $-1 #
coedge $-1 $349 $504 $498 $675 reversed $496 $-1 #
vertex $-1 $350 $685 #
straight-curve $-1 0 25.531227973313285 12.528588944709504 -1 0 0 I I #
coedge $-1 $351 $499 $353 $518 reversed $215 $-1 #
vertex $-1 $510 $686 #
straight-curve $-1 0 -25.531227973313285 12.528588944709504 1 0 0 I I #
edge $-1 $356 -12.528588944709504 $507 12.528588944709504 $353 $687 forward 7 unknown #
edge $-1 $357 -12.528588944709504 $506 12.528588944709504 $354 $688 forward 7 unknown #
point $-1 52.513809625537888 -25.531227973313285 12.528588944709504 #
point $-1 52.513809625537888 25.531227973313285 12.528588944709504 #
face $-1 $-1 $372 $52 $-1 $689 reversed single #
loop $-1 $-1 $529 $359 #
plane-surface $-1 0 0 12.528588944709504 0 0 1 1 0 0 forward_v I I I I #
coedge $-1 $690 $362 $367 $534 forward $223 $-1 #
coedge $-1 $362 $690 $691 $692 reversed $223 $-1 #
coedge $-1 $364 $363 $362 $528 reversed $141 $-1 #
edge $-1 $693 -7.4513693851387224 $539 -2.7030697340028418 $362 $694 forward 7 unknown #
coedge $-1 $691 $695 $364 $530 forward $523 $-1 #
edge $-1 $532 -52.513809625537888 $693 52.513809625537888 $529 $696 forward 7 unknown #
coedge $-1 $371 $365 $695 $697 reversed $372 $-1 #
vertex $-1 $366 $698 #
straight-curve $-1 52.513809625537888 -10.277970125025249 5.0772195595707821 0 0 1 I I #
edge $-1 $539 1.3256706004406151 $537 16.578928448728654 $525 $699 forward 7 unknown #
coedge $-1 $700 $368 $371 $541 reversed $360 $-1 #
coedge $-1 $368 $700 $690 $701 forward $360 $-1 #
vertex $-1 $369 $702 #
straight-curve $-1 0 -25.531227973313285 7.7802892935736239 1 0 0 I I #
vertex $-1 $534 $703 #
straight-curve $-1 0 -10.277970125025249 7.7802892935736239 1 0 0 I I #
edge $-1 $704 -12.528588944709504 $373 -7.7802892935736239 $371 $705 forward 7 unknown #
point $-1 52.513809625537888 -25.531227973313285 7.7802892935736239 #
point $-1 52.513809625537888 -10.277970125025249 7.7802892935736239 #
loop $-1 $-1 $384 $376 #
plane-surface $-1 52.513809625537888 0 0 -1 0 0 0 0 1 forward_v I I I I #
coedge $-1 $547 $379 $706 $707 reversed $231 $-1 #
coedge $-1 $379 $546 $550 $708 reversed $231 $-1 #
edge $-1 $709 -105.02761925107581 $551 -91.741477421929872 $379 $710 forward 7 unknown #
coedge $-1 $381 $380 $554 $711 reversed $145 $-1 #
coedge $-1 $387 $382 $547 $708 forward $377 $-1 #
vertex $-1 $708 $712 #
straight-curve $-1 43.973642408433889 -3.5352124471711495 12.528588944709504 0 -1 0 I I #
coedge $-1 $706 $384 $387 $558 reversed $544 $-1 #
coedge $-1 $384 $706 $549 $711 forward $544 $-1 #
vertex $-1 $385 $713 #
straight-curve $-1 52.513809625537888 -3.8628796636593465 75.158544989892675 0 0 1 I I #
straight-curve $-1 -14.99664166671478 -3.8628796636593465 82.806638687532683 0.64278759981090561 0 -0.7660444514056185 I I #
edge $-1 $714 -10.277970125025249 $388 -3.8628796636593465 $553 $715 forward 7 unknown #
point $-1 52.513809625537888 -3.8628796636593465 12.528588944709504 #
point $-1 43.973642408433896 -3.8628796636593465 12.528588944709497 #
edge $-1 $716 1 $716 0 $391 $-1 forward 7 unknown #
vertex $-1 $392 $717 #
ellipse-curve $-1 46.851136831620167 -8.4450871360635631 6.2711802890782673 0.7660444514056185 0 0.64278759981090561 0.3213937999054528 0 -0.38302222570280925 1 I I #
point $-1 48.56511981689134 -8.4450871360635631 7.0566791046040187 #
edge $-1 $718 1 $718 0 $395 $-1 forward 7 unknown #
vertex $-1 $396 $719 #
ellipse-curve $-1 46.851136831620167 -5.6957626526210312 6.2711802890782673 0.7660444514056185 0 0.64278759981090561 0.3213937999054528 0 -0.38302222570280925 1 I I #
point $-1 48.56511981689134 -5.6957626526210312 7.0566791046040187 #
plane-surface $-1 0 0 12.528588944709504 0 0 1 1 0 0 forward_v I I I I #
coedge $-1 $580 $579 $572 $720 forward $400 $-1 #
coedge $-1 $572 $402 $404 $576 reversed $253 $-1 #
coedge $-1 $402 $571 $570 $720 reversed $253 $-1 #
coedge $-1 $410 $405 $402 $574 forward $411 $-1 #
edge $-1 $577 11.244050755977028 $721 19.78421797308102 $573 $722 forward 7 unknown #
coedge $-1 $404 $403 $580 $723 reversed $159 $-1 #
edge $-1 $724 -105.02761925107581 $577 -91.741477421929872 $571 $725 forward 7 unknown #
vertex $-1 $406 $726 #
straight-curve $-1 43.973642408433889 2.4329872358852747 12.528588944709504 0 -1 0 I I #
coedge $-1 $570 $407 $410 $584 reversed $400 $-1 #
coedge $-1 $407 $570 $575 $723 forward $400 $-1 #
vertex $-1 $408 $727 #
straight-curve $-1 52.513809625537888 8.0735197024535026 75.158544989892675 0 0 1 I I #
straight-curve $-1 -14.99664166671478 8.0735197024535026 82.806638687532683 0.64278759981090561 0 -0.7660444514056185 I I #
edge $-1 $721 1.6584292410875969 $412 8.0735197024535026 $579 $728 forward 7 unknown #
point $-1 52.513809625537888 8.0735197024535026 12.528588944709504 #
point $-1 43.973642408433896 8.0735197024535026 12.528588944709497 #
edge $-1 $729 1 $729 0 $415 $-1 forward 7 unknown #
vertex $-1 $416 $730 #
ellipse-curve $-1 46.851136831620167 3.4913122300492816 6.2711802890782673 0.7660444514056185 0 0.64278759981090561 0.3213937999054528 0 -0.38302222570280925 1 I I #
point $-1 48.56511981689134 3.4913122300492816 7.0566791046040187 #
edge $-1 $731 1 $731 0 $419 $-1 forward 7 unknown #
vertex $-1 $420 $732 #
ellipse-curve $-1 46.851136831620167 6.240636713491817 6.2711802890782673 0.7660444514056185 0 0.64278759981090561 0.3213937999054528 0 -0.38302222570280925 1 I I #
point $-1 48.56511981689134 6.240636713491817 7.0566791046040187 #
plane-surface $-1 0 0 12.528588944709504 0 0 1 1 0 0 forward_v I I I I #
coedge $-1 $606 $605 $598 $733 forward $424 $-1 #
coedge $-1 $598 $426 $428 $602 reversed $275 $-1 #
coedge $-1 $426 $597 $596 $733 reversed $275 $-1 #
coedge $-1 $434 $429 $426 $600 forward $435 $-1 #
edge $-1 $603 11.244050755977028 $734 19.78421797308102 $599 $735 forward 7 unknown #
coedge $-1 $428 $427 $606 $736 reversed $173 $-1 #
edge $-1 $737 -105.02761925107581 $603 -91.741477421929872 $597 $738 forward 7 unknown #
vertex $-1 $430 $739 #
straight-curve $-1 43.973642408433889 8.401186918941697 12.528588944709504 0 -1 0 I I #
coedge $-1 $596 $431 $434 $610 reversed $424 $-1 #
coedge $-1 $431 $596 $601 $736 forward $424 $-1 #
vertex $-1 $432 $740 #
straight-curve $-1 52.513809625537888 20.009919068566347 75.158544989892675 0 0 1 I I #
straight-curve $-1 -14.99664166671478 20.009919068566347 82.806638687532683 0.64278759981090561 0 -0.7660444514056185 I I #
edge $-1 $734 13.594828607200441 $436 20.009919068566347 $605 $741 forward 7 unknown #
point $-1 52.513809625537888 20.009919068566347 12.528588944709504 #
point $-1 43.973642408433896 20.009919068566347 12.528588944709497 #
edge $-1 $742 1 $742 0 $439 $-1 forward 7 unknown #
vertex $-1 $440 $743 #
ellipse-curve $-1 46.851136831620167 15.427711596162126 6.2711802890782673 0.7660444514056185 0 0.64278759981090561 0.3213937999054528 0 -0.38302222570280925 1 I I #
point $-1 48.56511981689134 15.427711596162126 7.0566791046040187 #
edge $-1 $744 1 $744 0 $443 $-1 forward 7 unknown #
vertex $-1 $444 $745 #
ellipse-curve $-1 46.851136831620167 18.177036079604662 6.2711802890782673 0.7660444514056185 0 0.64278759981090561 0.3213937999054528 0 -0.38302222570280925 1 I I #
point $-1 48.56511981689134 18.177036079604662 7.0566791046040187 #
loop $-1 $-1 $455 $447 #
plane-surface $-1 -52.513809625537888 0 0 1 0 0 0 0 -1 forward_v I I I I #
coedge $-1 $624 $450 $452 $628 reversed $297 $-1 #
coedge $-1 $450 $623 $746 $747 reversed $297 $-1 #
coedge $-1 $458 $453 $450 $626 forward $448 $-1 #
edge $-1 $629 -20.621819985806326 $748 -17.279016868802941 $625 $749 forward 7 unknown #
coedge $-1 $452 $451 $632 $750 reversed $187 $-1 #
edge $-1 $751 -2.5618607856530852e-014 $629 5.9779070296003631 $623 $752 forward 7 unknown #
vertex $-1 $454 $753 #
straight-curve $-1 -49.171006508534504 2.24587477598077 12.528588944709504 0 1 0 I I #
coedge $-1 $746 $455 $458 $636 reversed $621 $-1 #
coedge $-1 $455 $746 $627 $750 forward $621 $-1 #
vertex $-1 $456 $754 #
straight-curve $-1 -52.513809625537888 1.3568701797790652 33.151688730043162 0 0 1 I I #
straight-curve $-1 -52.513809625537874 1.3568701797790652 7.572679363664065 -0.55919289150049634 0 -0.82903758062907751 I I #
edge $-1 $748 -7.6266289241440148 $459 -1.3568701797790652 $631 $755 forward 7 unknown #
point $-1 -52.513809625537888 1.3568701797790652 12.528588944709504 #
point $-1 -49.171006508534504 1.3568701797790652 12.528588944709504 #
edge $-1 $756 1 $756 0 $462 $-1 forward 7 unknown #
vertex $-1 $463 $757 #
ellipse-curve $-1 -50.013370486407126 3.1482298210261952 9.4914412626862816 -0.82903758062907751 0 0.55919289150049634 0.27959644575024817 0 0.41451879031453875 1 I I #
point $-1 -50.562811621285952 3.1482298210261952 10.465152944501318 #
edge $-1 $758 1 $758 0 $466 $-1 forward 7 unknown #
vertex $-1 $467 $759 #
ellipse-curve $-1 -50.013370486407126 5.8352692828968884 9.4914412626862816 -0.82903758062907751 0 0.55919289150049634 0.27959644575024817 0 0.41451879031453875 1 I I #
point $-1 -50.562811621285952 5.8352692828968884 10.465152944501318 #
loop $-1 $-1 $479 $470 #
plane-surface $-1 -52.513809625537888 0 0 1 0 0 0 0 -1 forward_v I I I I #
coedge $-1 $473 $653 $482 $661 forward $319 $-1 #
edge $-1 $658 -2.5618607856530852e-014 $654 5.9779070296003631 $474 $760 forward 7 unknown #
coedge $-1 $479 $761 $475 $652 forward $647 $-1 #
edge $-1 $655 20.623099785333658 $658 25.579009366379118 $651 $762 forward 7 unknown #
coedge $-1 $649 $476 $761 $763 forward $319 $-1 #
vertex $-1 $477 $764 #
vertex $-1 $763 $765 #
straight-curve $-1 -69.792826494340829 13.896387668508964 12.528588944709504 -1 0 0 I I #
coedge $-1 $761 $479 $483 $662 forward $647 $-1 #
vertex $-1 $652 $766 #
straight-curve $-1 -52.513809625537888 2.24587477598077 7.5726793636640419 0 -1 0 I I #
straight-curve $-1 -49.171006508534504 2.24587477598077 12.528588944709504 0 1 0 I I #
edge $-1 $767 17.279016868802941 $485 20.621819985806326 $649 $768 forward 7 unknown #
edge $-1 $484 -25.579009366379118 $767 -20.623099785333658 $657 $769 forward 7 unknown #
point $-1 -52.513809625537888 7.6266289241440148 7.5726793636640437 #
point $-1 -49.171006508534504 7.6266289241440148 12.528588944709504 #
edge $-1 $770 1 $770 0 $487 $-1 forward 7 unknown #
vertex $-1 $488 $771 #
ellipse-curve $-1 -50.013370486407126 9.4179885653911484 9.4914412626862816 -0.82903758062907751 0 0.55919289150049634 0.27959644575024817 0 0.41451879031453875 1 I I #
point $-1 -50.562811621285952 9.4179885653911484 10.465152944501318 #
edge $-1 $772 1 $772 0 $491 $-1 forward 7 unknown #
vertex $-1 $492 $773 #
ellipse-curve $-1 -50.013370486407126 12.105028027261845 9.4914412626862816 -0.82903758062907751 0 0.55919289150049634 0.27959644575024817 0 0.41451879031453875 1 I I #
point $-1 -50.562811621285952 12.105028027261845 10.465152944501318 #
plane-surface $-1 52.513809625537888 0 0 -1 0 0 0 0 1 forward_v I I I I #
coedge $-1 $500 $498 $502 $678 reversed $341 $-1 #
edge $-1 $513 -12.528588944709504 $680 12.528588944709504 $512 $774 forward 7 unknown #
vertex $-1 $678 $775 #
straight-curve $-1 -52.513809625537888 -25.531227973313285 0 0 0 -1 I I #
edge $-1 $676 -25.531227973313285 $680 25.531227973313285 $674 $776 forward 7 unknown #
straight-curve $-1 0 -25.531227973313285 -12.528588944709504 -1 0 0 I I #
vertex $-1 $505 $777 #
straight-curve $-1 0 25.531227973313285 -12.528588944709504 1 0 0 I I #
point $-1 52.513809625537888 25.531227973313285 -12.528588944709504 #
point $-1 52.513809625537888 -25.531227973313285 -12.528588944709504 #
straight-curve $-1 -52.513809625537888 0 12.528588944709504 0 -1 0 I I #
point $-1 -52.513809625537888 25.531227973313285 12.528588944709504 #
point $-1 -52.513809625537888 -25.531227973313285 12.528588944709504 #
straight-curve $-1 52.513809625537888 -25.531227973313285 0 0 0 -1 I I #
straight-curve $-1 52.513809625537888 25.531227973313285 0 0 0 -1 I I #
plane-surface $-1 52.513809625537888 0 0 -1 0 0 0 0 1 forward_v I I I I #
coedge $-1 $526 $525 $536 $701 reversed $223 $-1 #
coedge $-1 $778 $529 $526 $692 forward $523 $-1 #
edge $-1 $693 10.277970125025249 $779 25.531227973313285 $526 $780 forward 7 unknown #
vertex $-1 $692 $781 #
straight-curve $-1 -52.513809625537888 -10.277970125025249 5.0772195595707821 0 0 -1 I I #
coedge $-1 $529 $778 $531 $697 forward $523 $-1 #
straight-curve $-1 0 -10.277970125025249 12.528588944709504 -1 0 0 I I #
edge $-1 $704 -25.531227973313285 $532 -10.277970125025249 $531 $782 forward 7 unknown #
point $-1 52.513809625537888 -10.277970125025249 12.528588944709504 #
straight-curve $-1 -52.513809625537888 -8.9522995245846335 7.7802892935736239 0 -1 0 I I #
coedge $-1 $536 $535 $778 $783 reversed $360 $-1 #
edge $-1 $779 -12.528588944709504 $537 -7.7802892935736239 $690 $784 forward 7 unknown #
point $-1 -52.513809625537888 -25.531227973313285 7.7802892935736239 #
point $-1 -52.513809625537888 -10.277970125025249 7.7802892935736239 #
vertex $-1 $697 $785 #
straight-curve $-1 52.513809625537888 -25.531227973313285 0 0 0 -1 I I #
coedge $-1 $554 $553 $546 $707 forward $544 $-1 #
edge $-1 $714 62.629956045183171 $709 72.807731273988509 $706 $786 forward 7 unknown #
edge $-1 $551 43.973642408433896 $714 52.513809625537888 $550 $787 forward 7 unknown #
vertex $-1 $707 $788 #
straight-curve $-1 -14.99664166671478 -10.277970125025252 82.806638687532683 -0.64278759981090561 0 0.7660444514056185 I I #
edge $-1 $709 -6.7427576778541027 $555 -0.32766721648819708 $554 $789 forward 7 unknown #
point $-1 43.973642408433896 -10.277970125025249 12.528588944709504 #
point $-1 52.513809625537888 -3.8628796636593465 2.3508137159041667 #
vertex $-1 $558 $790 #
straight-curve $-1 52.513809625537888 0 12.528588944709504 0 1 0 I I #
vertex $-1 $561 $791 #
point $-1 47.172530631525625 -8.4450871360635631 5.8881580633754584 #
vertex $-1 $565 $792 #
point $-1 47.172530631525625 -5.6957626526210312 5.8881580633754584 #
edge $-1 $721 62.629956045183171 $724 72.807731273988509 $570 $793 forward 7 unknown #
vertex $-1 $584 $794 #
straight-curve $-1 32.729591652456868 1.6584292410875969 12.528588944709497 1 0 0 I I #
edge $-1 $724 -0.77455799479767773 $581 5.6405324665682279 $580 $795 forward 7 unknown #
vertex $-1 $723 $796 #
straight-curve $-1 -14.99664166671478 1.6584292410875969 82.806638687532683 -0.64278759981090561 0 0.7660444514056185 I I #
point $-1 43.973642408433896 1.6584292410875969 12.528588944709497 #
point $-1 52.513809625537888 8.0735197024535026 2.3508137159041667 #
straight-curve $-1 52.513809625537888 0 12.528588944709504 0 1 0 I I #
vertex $-1 $587 $797 #
point $-1 47.172530631525625 3.4913122300492816 5.8881580633754584 #
vertex $-1 $591 $798 #
point $-1 47.172530631525625 6.240636713491817 5.8881580633754584 #
edge $-1 $734 62.629956045183171 $737 72.807731273988509 $596 $799 forward 7 unknown #
vertex $-1 $610 $800 #
straight-curve $-1 32.729591652456868 13.594828607200441 12.528588944709497 1 0 0 I I #
edge $-1 $737 5.1936416882587437 $607 11.60873214962465 $606 $801 forward 7 unknown #
vertex $-1 $736 $802 #
straight-curve $-1 -14.99664166671478 13.594828607200441 82.806638687532683 -0.64278759981090561 0 0.7660444514056185 I I #
point $-1 43.973642408433896 13.594828607200441 12.528588944709497 #
point $-1 52.513809625537888 20.009919068566347 2.3508137159041667 #
straight-curve $-1 52.513809625537888 0 12.528588944709504 0 1 0 I I #
vertex $-1 $613 $803 #
point $-1 47.172530631525625 15.427711596162126 5.8881580633754584 #
vertex $-1 $617 $804 #
point $-1 47.172530631525625 18.177036079604662 5.8881580633754584 #
coedge $-1 $632 $631 $624 $747 forward $621 $-1 #
edge $-1 $748 20.623099785333658 $751 25.579009366379118 $746 $805 forward 7 unknown #
vertex $-1 $636 $806 #
straight-curve $-1 -69.792826494340829 7.6266289241440148 12.528588944709504 -1 0 0 I I #
edge $-1 $751 -5.3807541481632448 $633 0.8890045962017048 $632 $807 forward 7 unknown #
vertex $-1 $750 $808 #
straight-curve $-1 -52.513809625537874 7.6266289241440148 7.572679363664065 0.55919289150049634 0 0.82903758062907751 I I #
point $-1 -49.171006508534504 7.6266289241440148 12.528588944709504 #
point $-1 -52.513809625537888 1.3568701797790652 7.5726793636640437 #
straight-curve $-1 -52.513809625537888 0 12.528588944709504 0 -1 0 I I #
vertex $-1 $639 $809 #
point $-1 -49.733774040656876 3.1482298210261952 9.9059600530008218 #
vertex $-1 $643 $810 #
point $-1 -49.733774040656876 5.8352692828968884 9.9059600530008218 #
straight-curve $-1 -52.513809625537874 13.896387668508964 7.572679363664065 0.55919289150049634 0 0.82903758062907751 I I #
coedge $-1 $651 $657 $653 $763 reversed $647 $-1 #
straight-curve $-1 -52.513809625537888 13.896387668508964 33.151688730043162 0 0 -1 I I #
edge $-1 $655 -13.896387668508964 $767 -7.6266289241440148 $761 $811 forward 7 unknown #
point $-1 -49.171006508534504 13.896387668508964 12.528588944709504 #
point $-1 -52.513809625537888 13.896387668508964 12.528588944709504 #
point $-1 -52.513809625537888 13.896387668508964 7.5726793636640437 #
vertex $-1 $662 $812 #
straight-curve $-1 -69.792826494340829 7.6266289241440148 12.528588944709504 1 0 0 I I #
straight-curve $-1 -52.513809625537888 7.6266289241440148 33.151688730043162 0 0 1 I I #
vertex $-1 $665 $813 #
point $-1 -49.733774040656876 9.4179885653911484 9.9059600530008218 #
vertex $-1 $669 $814 #
point $-1 -49.733774040656876 12.105028027261845 9.9059600530008218 #
straight-curve $-1 -52.513809625537888 25.531227973313285 0 0 0 -1 I I #
point $-1 -52.513809625537888 -25.531227973313285 -12.528588944709504 #
straight-curve $-1 -52.513809625537888 0 -12.528588944709504 0 1 0 I I #
point $-1 -52.513809625537888 25.531227973313285 -12.528588944709504 #
coedge $-1 $695 $691 $700 $783 forward $523 $-1 #
vertex $-1 $692 $815 #
straight-curve $-1 -52.513809625537888 0 12.528588944709504 0 -1 0 I I #
point $-1 -52.513809625537888 -10.277970125025249 12.528588944709504 #
straight-curve $-1 52.513809625537888 0 12.528588944709504 0 1 0 I I #
edge $-1 $779 -52.513809625537888 $704 52.513809625537888 $700 $816 forward 7 unknown #
straight-curve $-1 -52.513809625537888 -25.531227973313285 0 0 0 -1 I I #
point $-1 52.513809625537888 -25.531227973313285 12.528588944709504 #
straight-curve $-1 52.513809625537888 -10.277970125025252 75.158544989892675 0 0 -1 I I #
straight-curve $-1 0 -10.277970125025249 12.528588944709504 1 0 0 I I #
point $-1 52.513809625537888 -10.277970125025252 2.3508137159041667 #
straight-curve $-1 52.513809625537888 -3.5352124471711495 2.3508137159041453 0 1 0 I I #
point $-1 52.513809625537888 -10.277970125025249 12.528588944709504 #
point $-1 46.468114605917364 -8.4450871360635631 5.9497864891728147 #
point $-1 46.468114605917364 -5.6957626526210312 5.9497864891728147 #
straight-curve $-1 52.513809625537888 1.6584292410875969 75.158544989892675 0 0 -1 I I #
point $-1 52.513809625537888 1.6584292410875969 12.528588944709504 #
straight-curve $-1 52.513809625537888 2.4329872358852747 2.3508137159041453 0 1 0 I I #
point $-1 52.513809625537888 1.6584292410875969 2.3508137159041667 #
point $-1 46.468114605917364 3.4913122300492816 5.9497864891728147 #
point $-1 46.468114605917364 6.240636713491817 5.9497864891728147 #
straight-curve $-1 52.513809625537888 13.594828607200441 75.158544989892675 0 0 -1 I I #
point $-1 52.513809625537888 13.594828607200441 12.528588944709504 #
straight-curve $-1 52.513809625537888 8.401186918941697 2.3508137159041453 0 1 0 I I #
point $-1 52.513809625537888 13.594828607200441 2.3508137159041667 #
point $-1 46.468114605917364 15.427711596162126 5.9497864891728147 #
point $-1 46.468114605917364 18.177036079604662 5.9497864891728147 #
straight-curve $-1 -52.513809625537888 7.6266289241440148 33.151688730043162 0 0 -1 I I #
point $-1 -52.513809625537888 7.6266289241440148 12.528588944709504 #
straight-curve $-1 -52.513809625537888 2.24587477598077 7.5726793636640419 0 -1 0 I I #
point $-1 -52.513809625537888 7.6266289241440148 7.5726793636640437 #
point $-1 -49.598851696092581 3.1482298210261952 9.2118448169360345 #
point $-1 -49.598851696092581 5.8352692828968884 9.2118448169360345 #
straight-curve $-1 -52.513809625537888 0 12.528588944709504 0 -1 0 I I #
point $-1 -52.513809625537888 7.6266289241440148 12.528588944709504 #
point $-1 -49.598851696092581 9.4179885653911484 9.2118448169360345 #
point $-1 -49.598851696092581 12.105028027261845 9.2118448169360345 #
point $-1 -52.513809625537888 -25.531227973313285 12.528588944709504 #
straight-curve $-1 0 -25.531227973313285 12.528588944709504 1 0 0 I I #
End-of-ACIS-data 