500 0 9 0           
7 Unknown 11 ACIS 5.0 NT 24 Thu Mar 25 21:56:00 1999 
-1 9.9999999999999995e-007 1e-010 
body $-1 $9 $-1 $10 #
body $-1 $11 $-1 $12 #
body $-1 $13 $-1 $14 #
body $-1 $15 $-1 $16 #
body $-1 $17 $-1 $18 #
body $-1 $19 $-1 $20 #
body $-1 $21 $-1 $22 #
body $-1 $23 $-1 $24 #
body $-1 $25 $-1 $26 #
lump $-1 $-1 $27 $0 #
transform $-1 1 0 0 0 1 0 0 0 1 50.36896877956481 30.087799817287387 14.485245853989998 1 rotate no_reflect no_shear #
lump $-1 $-1 $28 $1 #
transform $-1 1 0 0 0 1 0 0 0 1 50.36896877956481 30.087799817287387 14.485245853989998 1 rotate no_reflect no_shear #
lump $-1 $-1 $29 $2 #
transform $-1 1 0 0 0 1 0 0 0 1 50.36896877956481 30.087799817287387 14.485245853989998 1 rotate no_reflect no_shear #
lump $-1 $-1 $30 $3 #
transform $-1 1 0 0 0 1 0 0 0 1 50.36896877956481 30.087799817287387 14.485245853989998 1 rotate no_reflect no_shear #
lump $-1 $-1 $31 $4 #
transform $-1 1 0 0 0 1 0 0 0 1 50.36896877956481 30.087799817287387 14.485245853989998 1 rotate no_reflect no_shear #
lump $-1 $-1 $32 $5 #
transform $-1 1 0 0 0 1 0 0 0 1 50.36896877956481 30.087799817287387 14.485245853989998 1 rotate no_reflect no_shear #
lump $-1 $-1 $33 $6 #
transform $-1 1 0 0 0 1 0 0 0 1 50.36896877956481 30.087799817287387 14.485245853989998 1 rotate no_reflect no_shear #
lump $-1 $-1 $34 $7 #
transform $-1 1 0 0 0 1 0 0 0 1 50.36896877956481 30.087799817287387 14.485245853989998 1 rotate no_reflect no_shear #
lump $-1 $-1 $35 $8 #
transform $-1 1 0 0 0 1 0 0 0 1 50.36896877956481 30.087799817287387 14.485245853989998 1 rotate no_reflect no_shear #
shell $-1 $-1 $-1 $36 $-1 $9 #
shell $-1 $-1 $-1 $37 $-1 $11 #
shell $-1 $-1 $-1 $38 $-1 $13 #
shell $-1 $-1 $-1 $39 $-1 $15 #
shell $-1 $-1 $-1 $40 $-1 $17 #
shell $-1 $-1 $-1 $41 $-1 $19 #
shell $-1 $-1 $-1 $42 $-1 $21 #
shell $-1 $-1 $-1 $43 $-1 $23 #
shell $-1 $-1 $-1 $44 $-1 $25 #
face $-1 $45 $46 $27 $-1 $47 forward single #
face $-1 $48 $49 $28 $-1 $50 reversed single #
face $-1 $51 $52 $29 $-1 $53 reversed single #
face $-1 $54 $55 $30 $-1 $56 reversed single #
face $-1 $57 $58 $31 $-1 $59 forward single #
face $-1 $60 $61 $32 $-1 $62 forward single #
face $-1 $63 $64 $33 $-1 $65 reversed single #
face $-1 $66 $67 $34 $-1 $68 forward single #
face $-1 $69 $70 $35 $-1 $71 forward single #
face $-1 $72 $73 $27 $-1 $74 reversed single #
loop $-1 $-1 $75 $36 #
plane-surface $-1 0 0 14.485245853989998 0 0 1 1 0 0 forward_v I I I I #
face $-1 $76 $77 $28 $-1 $78 reversed single #
loop $-1 $-1 $79 $37 #
plane-surface $-1 -43.165146170835285 0 7.7694354970868567 0 0 1 1 0 0 forward_v I I I I #
face $-1 $80 $81 $29 $-1 $82 reversed single #
loop $-1 $-1 $83 $38 #
plane-surface $-1 43.165146170835285 0 7.7694354970868567 0 0 1 1 0 0 forward_v I I I I #
face $-1 $84 $85 $30 $-1 $86 reversed single #
loop $-1 $-1 $87 $39 #
plane-surface $-1 -4.1156741133895025 46.71901500932168 117.43157579785074 1 0 0 0 -0.62932039886446345 -0.77714595512881146 forward_v I I I I #
face $-1 $88 $89 $31 $-1 $90 forward single #
loop $-1 $91 $92 $40 #
cone-surface $-1 1.9815190743187046 19.431429367167603 4.7935468111183432 0 -0.62932039886446345 -0.77714595512881146 2 0 0 1 I I 0 1 2 forward I I I I #
face $-1 $93 $94 $32 $-1 $95 forward single #
loop $-1 $96 $97 $41 #
cone-surface $-1 11.127308855881012 19.431429367167603 4.7935468111183432 0 -0.62932039886446345 -0.77714595512881146 2 0 0 1 I I 0 1 2 forward I I I I #
face $-1 $98 $99 $33 $-1 $100 reversed single #
loop $-1 $-1 $101 $42 #
plane-surface $-1 17.224502043589212 -93.484238862782263 79.561843433911903 -1 0 0 0 -0.62932039886446345 0.77714595512881146 forward_v I I I I #
face $-1 $102 $103 $34 $-1 $104 forward single #
loop $-1 $105 $106 $43 #
cone-surface $-1 1.9815190743187046 -19.431429367167603 4.7935468111183468 0 0.62932039886446345 -0.77714595512881146 2 0 0 1 I I 0 1 2 forward I I I I #
face $-1 $107 $108 $35 $-1 $109 forward single #
loop $-1 $110 $111 $44 #
cone-surface $-1 11.127308855881012 -19.431429367167603 4.7935468111183468 0 0.62932039886446345 -0.77714595512881146 2 0 0 1 I I 0 1 2 forward I I I I #
face $-1 $112 $113 $27 $-1 $114 reversed single #
loop $-1 $-1 $115 $45 #
plane-surface $-1 0 0 -14.485245853989998 0 0 1 1 0 0 forward_v I I I I #
coedge $-1 $116 $117 $118 $119 forward $46 $-1 #
face $-1 $120 $121 $28 $-1 $122 reversed single #
loop $-1 $-1 $123 $48 #
plane-surface $-1 -35.961323562105761 0 11.127340675538427 -1 0 0 0 0 1 forward_v I I I I #
coedge $-1 $124 $125 $126 $127 forward $49 $-1 #
face $-1 $128 $129 $29 $-1 $130 forward single #
loop $-1 $-1 $131 $51 #
plane-surface $-1 35.961323562105761 0 11.127340675538427 1 0 0 0 0 -1 forward_v I I I I #
coedge $-1 $132 $133 $134 $135 reversed $52 $-1 #
face $-1 $136 $137 $30 $-1 $138 reversed single #
loop $-1 $-1 $139 $54 #
plane-surface $-1 6.5544139650998545 -16.677424036173186 39.143495095754389 0 0.62932039886446345 0.77714595512881146 1 0 0 forward_v I I I I #
coedge $-1 $140 $141 $142 $143 reversed $55 $-1 #
face $-1 $-1 $144 $31 $-1 $145 forward single #
loop $-1 $146 $147 $57 #
cone-surface $-1 1.9815190743187046 16.303149821055886 0.93044337420510814 0 -0.62932039886446345 -0.77714595512881146 1 0 0 1 I I -0.70710678118654746 0.70710678118654746 1 forward I I I I #
loop $-1 $-1 $148 $40 #
coedge $-1 $92 $92 $149 $150 reversed $58 $-1 #
face $-1 $-1 $151 $32 $-1 $152 forward single #
loop $-1 $153 $154 $60 #
cone-surface $-1 11.127308855881012 16.303149821055886 0.93044337420510814 0 -0.62932039886446345 -0.77714595512881146 1 0 0 1 I I -0.70710678118654746 0.70710678118654746 1 forward I I I I #
loop $-1 $-1 $155 $41 #
coedge $-1 $97 $97 $156 $157 reversed $61 $-1 #
face $-1 $158 $159 $33 $-1 $160 reversed single #
loop $-1 $-1 $161 $63 #
plane-surface $-1 6.5544139650998545 -30.087799817287397 1.2737627318155518 0 -0.62932039886446345 0.77714595512881146 1 0 0 forward_v I I I I #
coedge $-1 $162 $163 $164 $165 reversed $64 $-1 #
face $-1 $-1 $166 $34 $-1 $167 forward single #
loop $-1 $168 $169 $66 #
cone-surface $-1 1.9815190743187046 -16.303149821055886 0.9304433742051117 0 0.62932039886446345 -0.77714595512881146 1 0 0 1 I I -0.70710678118654746 0.70710678118654746 1 forward I I I I #
loop $-1 $-1 $170 $43 #
coedge $-1 $106 $106 $171 $172 reversed $67 $-1 #
face $-1 $-1 $173 $35 $-1 $174 forward single #
loop $-1 $175 $176 $69 #
cone-surface $-1 11.127308855881012 -16.303149821055886 0.9304433742051117 0 0.62932039886446345 -0.77714595512881146 1 0 0 1 I I -0.70710678118654746 0.70710678118654746 1 forward I I I I #
loop $-1 $-1 $177 $44 #
coedge $-1 $111 $111 $178 $179 reversed $70 $-1 #
face $-1 $180 $181 $27 $-1 $182 reversed single #
loop $-1 $-1 $183 $72 #
plane-surface $-1 0 -30.087799817287387 0 0 1 0 0 0 1 forward_v I I I I #
coedge $-1 $184 $185 $186 $187 forward $73 $-1 #
coedge $-1 $188 $75 $189 $190 forward $46 $-1 #
coedge $-1 $75 $188 $191 $192 forward $46 $-1 #
coedge $-1 $193 $194 $75 $119 reversed $195 $-1 #
edge $-1 $196 -30.087799817287387 $197 30.087799817287387 $118 $198 forward 7 unknown #
face $-1 $199 $200 $28 $-1 $201 reversed single #
loop $-1 $-1 $202 $76 #
plane-surface $-1 0 30.087799817287387 0 0 -1 0 0 0 -1 forward_v I I I I #
coedge $-1 $126 $203 $204 $205 reversed $77 $-1 #
coedge $-1 $206 $79 $207 $208 reversed $49 $-1 #
coedge $-1 $79 $206 $209 $210 reversed $49 $-1 #
coedge $-1 $211 $123 $79 $127 reversed $77 $-1 #
edge $-1 $212 -30.087799817287387 $213 30.087799817287387 $126 $214 forward 7 unknown #
face $-1 $215 $216 $29 $-1 $217 reversed single #
loop $-1 $-1 $218 $80 #
plane-surface $-1 0 0 14.485245853989998 0 0 1 1 0 0 forward_v I I I I #
coedge $-1 $219 $220 $221 $222 reversed $81 $-1 #
coedge $-1 $223 $83 $224 $225 reversed $52 $-1 #
coedge $-1 $83 $223 $226 $227 reversed $52 $-1 #
coedge $-1 $228 $229 $83 $135 forward $230 $-1 #
edge $-1 $231 -30.087799817287387 $232 30.087799817287387 $134 $233 forward 7 unknown #
face $-1 $234 $235 $30 $-1 $236 reversed single #
loop $-1 $-1 $237 $84 #
plane-surface $-1 17.224502043589212 46.71901500932168 117.43157579785074 -1 0 0 0 0.62932039886446345 0.77714595512881146 forward_v I I I I #
coedge $-1 $238 $239 $240 $241 reversed $85 $-1 #
coedge $-1 $141 $87 $242 $243 reversed $55 $-1 #
coedge $-1 $87 $140 $238 $244 reversed $55 $-1 #
coedge $-1 $240 $245 $87 $143 forward $246 $-1 #
edge $-1 $247 -6.7282923126265466 $248 9.5865302931185177 $142 $249 forward 7 unknown #
loop $-1 $-1 $149 $88 #
plane-surface $-1 6.5544139650998545 -16.677424036173186 39.143495095754389 0 0.62932039886446345 0.77714595512881146 1 0 0 forward_v I I I I #
loop $-1 $-1 $250 $57 #
coedge $-1 $147 $147 $148 $251 reversed $89 $-1 #
coedge $-1 $148 $148 $147 $251 forward $91 $-1 #
coedge $-1 $149 $149 $92 $150 forward $144 $-1 #
edge $-1 $252 -2.963578594401707e-016 $252 6.2831853071796004 $149 $253 forward 7 unknown #
loop $-1 $-1 $156 $93 #
plane-surface $-1 6.5544139650998545 -16.677424036173186 39.143495095754389 0 0.62932039886446345 0.77714595512881146 1 0 0 forward_v I I I I #
loop $-1 $-1 $254 $60 #
coedge $-1 $154 $154 $155 $255 reversed $94 $-1 #
coedge $-1 $155 $155 $154 $255 forward $96 $-1 #
coedge $-1 $156 $156 $97 $157 forward $151 $-1 #
edge $-1 $256 -2.963578594401707e-016 $256 6.2831853071796004 $156 $257 forward 7 unknown #
face $-1 $258 $259 $33 $-1 $260 forward single #
loop $-1 $-1 $261 $98 #
plane-surface $-1 -4.1156741133895025 -93.484238862782263 79.561843433911903 1 0 0 0 0.62932039886446345 -0.77714595512881146 forward_v I I I I #
coedge $-1 $262 $263 $264 $265 reversed $99 $-1 #
coedge $-1 $163 $101 $266 $267 reversed $64 $-1 #
coedge $-1 $101 $162 $262 $268 reversed $64 $-1 #
coedge $-1 $264 $269 $101 $165 forward $259 $-1 #
edge $-1 $270 16.654319614103745 $271 32.969142219848777 $164 $272 forward 7 unknown #
loop $-1 $-1 $171 $102 #
plane-surface $-1 6.5544139650998545 -30.087799817287397 1.2737627318155518 0 -0.62932039886446345 0.77714595512881146 1 0 0 forward_v I I I I #
loop $-1 $-1 $273 $66 #
coedge $-1 $169 $169 $170 $274 reversed $103 $-1 #
coedge $-1 $170 $170 $169 $274 forward $105 $-1 #
coedge $-1 $171 $171 $106 $172 forward $166 $-1 #
edge $-1 $275 -3.3012478097202036e-016 $275 6.2831853071796004 $171 $276 forward 7 unknown #
loop $-1 $-1 $178 $107 #
plane-surface $-1 6.5544139650998545 -30.087799817287397 1.2737627318155518 0 -0.62932039886446345 0.77714595512881146 1 0 0 forward_v I I I I #
loop $-1 $-1 $277 $69 #
coedge $-1 $176 $176 $177 $278 reversed $108 $-1 #
coedge $-1 $177 $177 $176 $278 forward $110 $-1 #
coedge $-1 $178 $178 $111 $179 forward $173 $-1 #
edge $-1 $279 -3.3012478097202036e-016 $279 6.2831853071796004 $178 $280 forward 7 unknown #
face $-1 $281 $282 $27 $-1 $283 reversed single #
loop $-1 $-1 $284 $112 #
plane-surface $-1 -50.36896877956481 0 0 1 0 0 0 0 -1 forward_v I I I I #
coedge $-1 $285 $191 $286 $287 forward $113 $-1 #
coedge $-1 $288 $115 $285 $289 forward $73 $-1 #
coedge $-1 $115 $288 $290 $291 forward $73 $-1 #
coedge $-1 $194 $193 $115 $187 reversed $195 $-1 #
edge $-1 $292 -30.087799817287387 $293 30.087799817287387 $186 $294 forward 7 unknown #
coedge $-1 $117 $116 $295 $296 forward $46 $-1 #
coedge $-1 $297 $298 $116 $190 reversed $282 $-1 #
edge $-1 $197 -50.36896877956481 $299 50.36896877956481 $189 $300 forward 7 unknown #
coedge $-1 $183 $301 $117 $192 reversed $113 $-1 #
edge $-1 $302 -50.36896877956481 $196 50.36896877956481 $191 $303 forward 7 unknown #
coedge $-1 $186 $118 $301 $304 forward $195 $-1 #
coedge $-1 $118 $186 $297 $305 reversed $195 $-1 #
loop $-1 $-1 $193 $281 #
vertex $-1 $119 $306 #
vertex $-1 $119 $307 #
straight-curve $-1 50.36896877956481 0 14.485245853989998 0 1 0 I I #
face $-1 $308 $309 $28 $-1 $310 forward single #
loop $-1 $-1 $311 $120 #
plane-surface $-1 -50.36896877956481 0 0 1 0 0 0 0 -1 forward_v I I I I #
coedge $-1 $209 $312 $211 $313 forward $121 $-1 #
coedge $-1 $123 $211 $314 $315 reversed $77 $-1 #
coedge $-1 $316 $207 $123 $205 forward $317 $-1 #
edge $-1 $213 2.2057651593176431 $318 8.9215755162207842 $204 $319 forward 7 unknown #
coedge $-1 $125 $124 $311 $320 reversed $49 $-1 #
coedge $-1 $204 $321 $124 $208 forward $317 $-1 #
edge $-1 $322 -28.786395694147167 $213 -14.378750476688118 $207 $323 forward 7 unknown #
coedge $-1 $324 $202 $125 $210 forward $121 $-1 #
edge $-1 $212 14.378750476688118 $325 28.786395694147167 $209 $326 forward 7 unknown #
coedge $-1 $203 $126 $202 $313 reversed $77 $-1 #
vertex $-1 $210 $327 #
vertex $-1 $208 $328 #
straight-curve $-1 -35.961323562105761 0 7.7694354970868567 0 -1 0 I I #
face $-1 $329 $330 $29 $-1 $331 reversed single #
loop $-1 $-1 $332 $128 #
plane-surface $-1 0 -30.087799817287387 0 0 1 0 0 0 1 forward_v I I I I #
coedge $-1 $333 $334 $220 $335 forward $129 $-1 #
coedge $-1 $336 $131 $223 $337 reversed $81 $-1 #
coedge $-1 $131 $336 $218 $335 reversed $81 $-1 #
coedge $-1 $338 $226 $131 $222 forward $330 $-1 #
edge $-1 $339 2.2057651593176431 $340 8.9215755162207842 $221 $341 forward 7 unknown #
coedge $-1 $133 $132 $219 $337 forward $52 $-1 #
coedge $-1 $342 $332 $132 $225 forward $216 $-1 #
edge $-1 $343 14.378750476688118 $231 28.786395694147167 $224 $344 forward 7 unknown #
coedge $-1 $221 $345 $133 $227 forward $330 $-1 #
edge $-1 $232 -28.786395694147167 $339 -14.378750476688118 $226 $346 forward 7 unknown #
coedge $-1 $347 $134 $345 $348 reversed $230 $-1 #
coedge $-1 $134 $347 $342 $349 forward $230 $-1 #
loop $-1 $-1 $134 $329 #
vertex $-1 $225 $350 #
vertex $-1 $135 $351 #
straight-curve $-1 50.36896877956481 0 7.7694354970868567 0 1 0 I I #
face $-1 $-1 $246 $30 $-1 $352 forward single #
loop $-1 $-1 $353 $136 #
plane-surface $-1 0 30.087799817287387 0 0 -1 0 0 0 -1 forward_v I I I I #
coedge $-1 $354 $355 $356 $357 reversed $137 $-1 #
coedge $-1 $358 $139 $141 $244 forward $85 $-1 #
coedge $-1 $139 $358 $354 $359 forward $85 $-1 #
coedge $-1 $356 $142 $139 $241 forward $246 $-1 #
edge $-1 $248 -7.3928810959394298 $360 13.947295061039284 $240 $361 forward 7 unknown #
coedge $-1 $362 $363 $140 $243 forward $235 $-1 #
edge $-1 $364 -57.44202516710984 $247 -44.230542044935376 $242 $365 forward 7 unknown #
edge $-1 $248 39.182345409837936 $364 60.175599634574773 $141 $366 forward 7 unknown #
coedge $-1 $142 $356 $362 $367 forward $246 $-1 #
loop $-1 $-1 $356 $234 #
vertex $-1 $243 $368 #
vertex $-1 $143 $369 #
straight-curve $-1 -4.1156741133895025 23.35950750466084 14.485245853989994 0 -1 0 I I #
coedge $-1 $250 $250 $-1 $370 reversed $146 $-1 #
edge $-1 $371 0 $371 6.2831853071796004 $147 $372 forward 7 unknown #
vertex $-1 $150 $373 #
ellipse-curve $-1 1.9815190743187046 21.930388514414854 7.8795042929027606 0 0.62932039886446345 0.77714595512881146 2 0 0 1 I I #
coedge $-1 $254 $254 $-1 $374 reversed $153 $-1 #
edge $-1 $375 0 $375 6.2831853071796004 $154 $376 forward 7 unknown #
vertex $-1 $157 $377 #
ellipse-curve $-1 11.127308855881012 21.930388514414854 7.8795042929027606 0 0.62932039886446345 0.77714595512881146 2 0 0 1 I I #
face $-1 $-1 $378 $33 $-1 $379 reversed single #
loop $-1 $-1 $164 $158 #
plane-surface $-1 0 0 14.485245853989998 0 0 1 1 0 0 forward_v I I I I #
coedge $-1 $380 $381 $382 $383 reversed $159 $-1 #
coedge $-1 $384 $161 $163 $268 forward $99 $-1 #
coedge $-1 $161 $384 $380 $385 forward $99 $-1 #
coedge $-1 $382 $164 $161 $265 forward $259 $-1 #
edge $-1 $271 -13.947295061039284 $386 7.3928810959394298 $264 $387 forward 7 unknown #
coedge $-1 $388 $389 $162 $267 forward $378 $-1 #
edge $-1 $390 -38.507158985140393 $270 -25.295675862965954 $266 $391 forward 7 unknown #
edge $-1 $271 -20.993254224736802 $390 -1.3732681969779619e-014 $163 $392 forward 7 unknown #
coedge $-1 $164 $382 $388 $393 forward $259 $-1 #
vertex $-1 $267 $394 #
vertex $-1 $165 $395 #
straight-curve $-1 17.224502043589212 -46.742119431391131 14.485245853990001 0 1 0 I I #
coedge $-1 $273 $273 $-1 $396 reversed $168 $-1 #
edge $-1 $397 0 $397 6.2831853071796004 $169 $398 forward 7 unknown #
vertex $-1 $172 $399 #
ellipse-curve $-1 1.9815190743187046 -21.930388514414869 7.8795042929027836 0 -0.62932039886446345 0.77714595512881146 2 0 0 1 I I #
coedge $-1 $277 $277 $-1 $400 reversed $175 $-1 #
edge $-1 $401 0 $401 6.2831853071796004 $176 $402 forward 7 unknown #
vertex $-1 $179 $403 #
ellipse-curve $-1 11.127308855881012 -21.930388514414869 7.8795042929027836 0 -0.62932039886446345 0.77714595512881146 2 0 0 1 I I #
face $-1 $-1 $195 $27 $-1 $404 reversed single #
loop $-1 $-1 $297 $180 #
plane-surface $-1 0 30.087799817287387 0 0 -1 0 0 0 -1 forward_v I I I I #
coedge $-1 $405 $295 $298 $406 forward $181 $-1 #
coedge $-1 $301 $183 $184 $289 reversed $113 $-1 #
coedge $-1 $295 $405 $183 $287 reversed $181 $-1 #
edge $-1 $302 -14.485245853989998 $407 14.485245853989998 $286 $408 forward 7 unknown #
coedge $-1 $185 $184 $405 $409 forward $73 $-1 #
edge $-1 $293 -50.36896877956481 $407 50.36896877956481 $285 $410 forward 7 unknown #
coedge $-1 $298 $297 $185 $291 reversed $282 $-1 #
edge $-1 $411 -50.36896877956481 $292 50.36896877956481 $290 $412 forward 7 unknown #
vertex $-1 $187 $413 #
vertex $-1 $304 $414 #
straight-curve $-1 50.36896877956481 0 -14.485245853989998 0 -1 0 I I #
coedge $-1 $284 $286 $188 $296 reversed $181 $-1 #
edge $-1 $299 -30.087799817287387 $302 30.087799817287387 $295 $415 forward 7 unknown #
coedge $-1 $290 $189 $194 $305 forward $282 $-1 #
coedge $-1 $189 $290 $284 $406 reversed $282 $-1 #
vertex $-1 $190 $416 #
straight-curve $-1 0 30.087799817287387 14.485245853989998 -1 0 0 I I #
coedge $-1 $191 $285 $193 $304 reversed $113 $-1 #
vertex $-1 $296 $417 #
straight-curve $-1 0 -30.087799817287387 14.485245853989998 1 0 0 I I #
edge $-1 $196 -14.485245853989998 $293 14.485245853989998 $193 $418 forward 7 unknown #
edge $-1 $197 -14.485245853989998 $292 14.485245853989998 $194 $419 forward 7 unknown #
point $-1 50.36896877956481 -30.087799817287387 14.485245853989998 #
point $-1 50.36896877956481 30.087799817287387 14.485245853989998 #
face $-1 $-1 $317 $28 $-1 $420 reversed single #
loop $-1 $-1 $314 $199 #
plane-surface $-1 0 0 14.485245853989998 0 0 1 1 0 0 forward_v I I I I #
coedge $-1 $421 $422 $206 $320 forward $200 $-1 #
coedge $-1 $202 $324 $423 $424 reversed $121 $-1 #
edge $-1 $425 -8.9215755162207842 $212 -2.2057651593176431 $202 $426 forward 7 unknown #
coedge $-1 $423 $427 $203 $315 forward $309 $-1 #
edge $-1 $318 -30.087799817287387 $425 30.087799817287387 $314 $428 forward 7 unknown #
coedge $-1 $321 $204 $427 $429 reversed $317 $-1 #
loop $-1 $-1 $204 $308 #
vertex $-1 $205 $430 #
straight-curve $-1 -35.961323562105761 -30.087799817287387 5.5636703377692136 0 0 1 I I #
edge $-1 $325 -30.087799817287387 $322 30.087799817287387 $311 $431 forward 7 unknown #
coedge $-1 $207 $316 $421 $432 forward $317 $-1 #
vertex $-1 $320 $433 #
straight-curve $-1 -21.582573085417643 -30.087799817287387 7.7694354970868567 1 0 0 I I #
coedge $-1 $312 $209 $422 $434 reversed $121 $-1 #
vertex $-1 $320 $435 #
straight-curve $-1 -21.582573085417643 30.087799817287387 7.7694354970868567 -1 0 0 I I #
point $-1 -35.961323562105761 30.087799817287387 7.7694354970868567 #
point $-1 -35.961323562105761 -30.087799817287387 7.7694354970868567 #
face $-1 $-1 $230 $29 $-1 $436 reversed single #
loop $-1 $-1 $221 $215 #
plane-surface $-1 0 30.087799817287387 0 0 -1 0 0 0 -1 forward_v I I I I #
coedge $-1 $224 $437 $336 $438 forward $216 $-1 #
coedge $-1 $439 $218 $437 $440 forward $129 $-1 #
coedge $-1 $218 $439 $338 $441 forward $129 $-1 #
edge $-1 $340 -30.087799817287387 $442 30.087799817287387 $218 $443 forward 7 unknown #
coedge $-1 $220 $219 $332 $438 reversed $81 $-1 #
edge $-1 $343 -30.087799817287387 $339 30.087799817287387 $219 $444 forward 7 unknown #
coedge $-1 $345 $221 $334 $441 reversed $330 $-1 #
vertex $-1 $227 $445 #
vertex $-1 $222 $446 #
straight-curve $-1 35.961323562105761 30.087799817287387 5.5636703377692136 0 0 1 I I #
coedge $-1 $437 $224 $229 $349 reversed $216 $-1 #
vertex $-1 $225 $447 #
straight-curve $-1 21.582573085417643 -30.087799817287387 7.7694354970868567 1 0 0 I I #
coedge $-1 $226 $338 $228 $348 forward $330 $-1 #
straight-curve $-1 21.582573085417643 30.087799817287387 7.7694354970868567 -1 0 0 I I #
coedge $-1 $229 $228 $439 $448 reversed $230 $-1 #
edge $-1 $449 -14.485245853989998 $232 -7.7694354970868567 $228 $450 forward 7 unknown #
edge $-1 $451 -14.485245853989998 $231 -7.7694354970868567 $229 $452 forward 7 unknown #
point $-1 50.36896877956481 -30.087799817287387 7.7694354970868567 #
point $-1 50.36896877956481 30.087799817287387 7.7694354970868567 #
plane-surface $-1 0 0 14.485245853989998 0 0 1 1 0 0 forward_v I I I I #
coedge $-1 $363 $362 $355 $453 forward $235 $-1 #
coedge $-1 $355 $237 $239 $359 reversed $137 $-1 #
coedge $-1 $237 $354 $353 $453 reversed $137 $-1 #
coedge $-1 $245 $240 $237 $357 forward $246 $-1 #
edge $-1 $360 -9.5865302931185177 $454 6.7282923126265466 $356 $455 forward 7 unknown #
coedge $-1 $239 $238 $363 $456 reversed $85 $-1 #
edge $-1 $457 -60.175599634574773 $360 -39.182345409837936 $354 $458 forward 7 unknown #
vertex $-1 $241 $459 #
straight-curve $-1 3.2772069825499273 13.772977211542324 14.485245853989996 1 0 0 I I #
coedge $-1 $353 $242 $245 $367 reversed $235 $-1 #
coedge $-1 $242 $353 $358 $456 forward $235 $-1 #
vertex $-1 $243 $460 #
straight-curve $-1 -4.1156741133895025 30.087799817287387 58.71578789892537 0 0 1 I I #
straight-curve $-1 -4.1156741133895025 -16.677424036173186 39.143495095754389 0 0.77714595512881146 -0.62932039886446345 I I #
edge $-1 $454 -17.224502043589212 $247 4.1156741133895025 $362 $461 forward 7 unknown #
point $-1 -4.1156741133895025 30.087799817287387 14.485245853989998 #
point $-1 -4.1156741133895025 13.772977211542322 14.485245853989998 #
edge $-1 $462 1 $462 0 $250 $-1 forward 7 unknown #
vertex $-1 $251 $463 #
ellipse-curve $-1 1.9815190743187046 16.932470219920351 1.7075893293339197 0 0.62932039886446345 0.77714595512881146 2 0 0 1 I I #
point $-1 3.9815190743187046 21.930388514414858 7.8795042929027659 #
edge $-1 $464 1 $464 0 $254 $-1 forward 7 unknown #
vertex $-1 $255 $465 #
ellipse-curve $-1 11.127308855881012 16.932470219920351 1.7075893293339197 0 0.62932039886446345 0.77714595512881146 2 0 0 1 I I #
point $-1 13.127308855881012 21.930388514414858 7.8795042929027659 #
loop $-1 $-1 $266 $258 #
plane-surface $-1 0 -30.087799817287387 0 0 1 0 0 0 1 forward_v I I I I #
coedge $-1 $381 $261 $263 $385 reversed $159 $-1 #
coedge $-1 $261 $380 $466 $467 reversed $159 $-1 #
coedge $-1 $269 $264 $261 $383 forward $259 $-1 #
edge $-1 $386 -32.969142219848777 $468 -16.654319614103745 $382 $469 forward 7 unknown #
coedge $-1 $263 $262 $389 $470 reversed $99 $-1 #
edge $-1 $471 1.3732681969779619e-014 $386 20.993254224736802 $380 $472 forward 7 unknown #
vertex $-1 $265 $473 #
straight-curve $-1 3.2772069825499273 -13.772977211542361 14.485245853989998 -1 0 0 I I #
coedge $-1 $466 $266 $269 $393 reversed $378 $-1 #
coedge $-1 $266 $466 $384 $470 forward $378 $-1 #
vertex $-1 $267 $474 #
straight-curve $-1 17.224502043589212 -30.087799817287387 39.780921716955952 0 0 1 I I #
straight-curve $-1 17.224502043589212 -30.087799817287397 1.2737627318155518 0 -0.77714595512881146 -0.62932039886446345 I I #
edge $-1 $468 -4.1156741133895025 $270 17.224502043589212 $388 $475 forward 7 unknown #
point $-1 17.224502043589212 -30.087799817287387 14.485245853989998 #
point $-1 17.224502043589212 -13.772977211542358 14.485245853989998 #
edge $-1 $476 1 $476 0 $273 $-1 forward 7 unknown #
vertex $-1 $274 $477 #
ellipse-curve $-1 1.9815190743187046 -16.932470219920351 1.7075893293339233 0 -0.62932039886446345 0.77714595512881146 2 0 0 1 I I #
point $-1 3.9815190743187046 -21.930388514414858 7.8795042929027694 #
edge $-1 $478 1 $478 0 $277 $-1 forward 7 unknown #
vertex $-1 $278 $479 #
ellipse-curve $-1 11.127308855881012 -16.932470219920351 1.7075893293339233 0 -0.62932039886446345 0.77714595512881146 2 0 0 1 I I #
point $-1 13.127308855881012 -21.930388514414858 7.8795042929027694 #
plane-surface $-1 50.36896877956481 0 0 -1 0 0 0 0 1 forward_v I I I I #
coedge $-1 $286 $284 $288 $409 reversed $181 $-1 #
edge $-1 $299 -14.485245853989998 $411 14.485245853989998 $298 $480 forward 7 unknown #
vertex $-1 $409 $481 #
straight-curve $-1 -50.36896877956481 -30.087799817287387 0 0 0 -1 I I #
edge $-1 $407 -30.087799817287387 $411 30.087799817287387 $405 $482 forward 7 unknown #
straight-curve $-1 0 -30.087799817287387 -14.485245853989998 -1 0 0 I I #
vertex $-1 $291 $483 #
straight-curve $-1 0 30.087799817287387 -14.485245853989998 1 0 0 I I #
point $-1 50.36896877956481 30.087799817287387 -14.485245853989998 #
point $-1 50.36896877956481 -30.087799817287387 -14.485245853989998 #
straight-curve $-1 -50.36896877956481 0 14.485245853989998 0 -1 0 I I #
point $-1 -50.36896877956481 30.087799817287387 14.485245853989998 #
point $-1 -50.36896877956481 -30.087799817287387 14.485245853989998 #
straight-curve $-1 50.36896877956481 -30.087799817287387 0 0 0 -1 I I #
straight-curve $-1 50.36896877956481 30.087799817287387 0 0 0 -1 I I #
plane-surface $-1 0 -30.087799817287387 0 0 1 0 0 0 1 forward_v I I I I #
coedge $-1 $484 $311 $321 $432 reversed $200 $-1 #
coedge $-1 $311 $484 $324 $434 forward $200 $-1 #
coedge $-1 $485 $314 $312 $424 forward $309 $-1 #
edge $-1 $425 35.961323562105761 $486 50.36896877956481 $312 $487 forward 7 unknown #
vertex $-1 $424 $488 #
straight-curve $-1 -35.961323562105761 30.087799817287387 5.5636703377692136 0 0 -1 I I #
coedge $-1 $314 $485 $316 $429 forward $309 $-1 #
straight-curve $-1 -35.961323562105761 0 14.485245853989998 0 1 0 I I #
edge $-1 $489 -50.36896877956481 $318 -35.961323562105761 $316 $490 forward 7 unknown #
point $-1 -35.961323562105761 -30.087799817287387 14.485245853989998 #
straight-curve $-1 -50.36896877956481 0 7.7694354970868567 0 -1 0 I I #
edge $-1 $489 -14.485245853989998 $322 -7.7694354970868567 $421 $491 forward 7 unknown #
point $-1 -50.36896877956481 -30.087799817287387 7.7694354970868567 #
edge $-1 $486 -14.485245853989998 $325 -7.7694354970868567 $324 $492 forward 7 unknown #
point $-1 -50.36896877956481 30.087799817287387 7.7694354970868567 #
plane-surface $-1 50.36896877956481 0 0 -1 0 0 0 0 1 forward_v I I I I #
coedge $-1 $332 $342 $333 $440 reversed $216 $-1 #
edge $-1 $442 -8.9215755162207842 $343 -2.2057651593176431 $332 $493 forward 7 unknown #
coedge $-1 $334 $333 $347 $448 forward $129 $-1 #
edge $-1 $442 35.961323562105761 $451 50.36896877956481 $437 $494 forward 7 unknown #
edge $-1 $449 -50.36896877956481 $340 -35.961323562105761 $338 $495 forward 7 unknown #
vertex $-1 $440 $496 #
straight-curve $-1 35.961323562105761 0 14.485245853989998 0 -1 0 I I #
straight-curve $-1 35.961323562105761 0 7.7694354970868567 0 1 0 I I #
point $-1 35.961323562105761 30.087799817287387 7.7694354970868567 #
point $-1 35.961323562105761 30.087799817287387 14.485245853989998 #
point $-1 35.961323562105761 -30.087799817287387 7.7694354970868567 #
edge $-1 $451 -30.087799817287387 $449 30.087799817287387 $347 $497 forward 7 unknown #
vertex $-1 $448 $498 #
straight-curve $-1 50.36896877956481 30.087799817287387 0 0 0 -1 I I #
vertex $-1 $448 $499 #
straight-curve $-1 50.36896877956481 -30.087799817287387 0 0 0 -1 I I #
edge $-1 $454 44.230542044935376 $457 57.44202516710984 $353 $500 forward 7 unknown #
vertex $-1 $367 $501 #
straight-curve $-1 17.224502043589212 23.35950750466084 14.485245853989994 0 1 0 I I #
edge $-1 $457 -13.947295061039284 $364 7.3928810959394298 $363 $502 forward 7 unknown #
vertex $-1 $456 $503 #
straight-curve $-1 17.224502043589212 -16.677424036173186 39.143495095754389 0 -0.77714595512881146 0.62932039886446345 I I #
point $-1 17.224502043589212 13.772977211542322 14.485245853989998 #
point $-1 -4.1156741133895025 30.087799817287383 1.2737627318155305 #
straight-curve $-1 0 30.087799817287387 14.485245853989998 -1 0 0 I I #
vertex $-1 $370 $504 #
point $-1 3.9815190743187046 16.932470219920351 1.7075893293339197 #
vertex $-1 $374 $505 #
point $-1 13.127308855881012 16.932470219920351 1.7075893293339197 #
coedge $-1 $389 $388 $381 $467 forward $378 $-1 #
edge $-1 $468 25.295675862965954 $471 38.507158985140393 $466 $506 forward 7 unknown #
vertex $-1 $393 $507 #
straight-curve $-1 -4.1156741133895025 -46.742119431391131 14.485245853990001 0 -1 0 I I #
edge $-1 $471 -7.3928810959394298 $390 13.947295061039284 $389 $508 forward 7 unknown #
vertex $-1 $470 $509 #
straight-curve $-1 -4.1156741133895025 -30.087799817287397 1.2737627318155518 0 0.77714595512881146 0.62932039886446345 I I #
point $-1 -4.1156741133895025 -13.772977211542358 14.485245853989998 #
point $-1 17.224502043589212 -30.087799817287387 1.2737627318155604 #
straight-curve $-1 0 -30.087799817287387 14.485245853989998 1 0 0 I I #
vertex $-1 $396 $510 #
point $-1 3.9815190743187046 -16.932470219920351 1.7075893293339233 #
vertex $-1 $400 $511 #
point $-1 13.127308855881012 -16.932470219920351 1.7075893293339233 #
straight-curve $-1 -50.36896877956481 30.087799817287387 0 0 0 -1 I I #
point $-1 -50.36896877956481 -30.087799817287387 -14.485245853989998 #
straight-curve $-1 -50.36896877956481 0 -14.485245853989998 0 1 0 I I #
point $-1 -50.36896877956481 30.087799817287387 -14.485245853989998 #
coedge $-1 $422 $421 $485 $512 reversed $200 $-1 #
coedge $-1 $427 $423 $484 $512 forward $309 $-1 #
vertex $-1 $424 $513 #
straight-curve $-1 0 30.087799817287387 14.485245853989998 -1 0 0 I I #
point $-1 -35.961323562105761 30.087799817287387 14.485245853989998 #
vertex $-1 $512 $514 #
straight-curve $-1 0 -30.087799817287387 14.485245853989998 1 0 0 I I #
straight-curve $-1 -50.36896877956481 -30.087799817287387 0 0 0 -1 I I #
straight-curve $-1 -50.36896877956481 30.087799817287387 0 0 0 -1 I I #
straight-curve $-1 35.961323562105761 -30.087799817287387 5.5636703377692136 0 0 -1 I I #
straight-curve $-1 0 -30.087799817287387 14.485245853989998 1 0 0 I I #
straight-curve $-1 0 30.087799817287387 14.485245853989998 -1 0 0 I I #
point $-1 35.961323562105761 -30.087799817287387 14.485245853989998 #
straight-curve $-1 50.36896877956481 0 14.485245853989998 0 1 0 I I #
point $-1 50.36896877956481 30.087799817287387 14.485245853989998 #
point $-1 50.36896877956481 -30.087799817287387 14.485245853989998 #
straight-curve $-1 17.224502043589212 30.087799817287387 58.71578789892537 0 0 -1 I I #
point $-1 17.224502043589212 30.087799817287387 14.485245853989998 #
straight-curve $-1 3.2772069825499273 30.087799817287387 1.273762731815534 -1 0 0 I I #
point $-1 17.224502043589212 30.087799817287383 1.2737627318155305 #
point $-1 1.9815190743187046 15.673829422191423 0.15329741907629668 #
point $-1 11.127308855881012 15.673829422191423 0.15329741907629668 #
straight-curve $-1 -4.1156741133895025 -30.087799817287387 39.780921716955952 0 0 -1 I I #
point $-1 -4.1156741133895025 -30.087799817287387 14.485245853989998 #
straight-curve $-1 3.2772069825499273 -30.087799817287387 1.2737627318155584 1 0 0 I I #
point $-1 -4.1156741133895025 -30.087799817287387 1.2737627318155604 #
point $-1 1.9815190743187046 -15.673829422191423 0.15329741907630023 #
point $-1 11.127308855881012 -15.673829422191423 0.15329741907630023 #
edge $-1 $486 -30.087799817287387 $489 30.087799817287387 $484 $515 forward 7 unknown #
point $-1 -50.36896877956481 30.087799817287387 14.485245853989998 #
point $-1 -50.36896877956481 -30.087799817287387 14.485245853989998 #
straight-curve $-1 -50.36896877956481 0 14.485245853989998 0 -1 0 I I #
End-of-ACIS-data 