500 0 5 0           
7 Unknown 11 ACIS 5.0 NT 24 Thu Mar 25 21:16:18 1999 
-1 9.9999999999999995e-007 1e-010 
body $-1 $5 $-1 $6 #
body $-1 $7 $-1 $8 #
body $-1 $9 $-1 $10 #
body $-1 $11 $-1 $12 #
body $-1 $13 $-1 $14 #
lump $-1 $-1 $15 $0 #
transform $-1 1 0 0 0 1 0 0 0 1 69.991149632251961 31.115270777857329 11.135196988506376 1 rotate no_reflect no_shear #
lump $-1 $-1 $16 $1 #
transform $-1 1 0 0 0 1 0 0 0 1 69.991149632251961 31.115270777857329 11.135196988506376 1 rotate no_reflect no_shear #
lump $-1 $-1 $17 $2 #
transform $-1 1 0 0 0 1 0 0 0 1 69.991149632251961 31.115270777857329 11.135196988506376 1 rotate no_reflect no_shear #
lump $-1 $-1 $18 $3 #
transform $-1 1 0 0 0 1 0 0 0 1 69.991149632251961 31.115270777857329 11.135196988506376 1 rotate no_reflect no_shear #
lump $-1 $-1 $19 $4 #
transform $-1 1 0 0 0 1 0 0 0 1 69.991149632251961 31.115270777857329 11.135196988506376 1 rotate no_reflect no_shear #
shell $-1 $-1 $-1 $20 $-1 $5 #
shell $-1 $-1 $-1 $21 $-1 $7 #
shell $-1 $-1 $-1 $22 $-1 $9 #
shell $-1 $-1 $-1 $23 $-1 $11 #
shell $-1 $-1 $-1 $24 $-1 $13 #
face $-1 $25 $26 $15 $-1 $27 forward single #
face $-1 $28 $29 $16 $-1 $30 forward single #
face $-1 $31 $32 $17 $-1 $33 forward single #
face $-1 $34 $35 $18 $-1 $36 reversed single #
face $-1 $37 $38 $19 $-1 $39 reversed single #
face $-1 $40 $41 $15 $-1 $42 reversed single #
loop $-1 $-1 $43 $20 #
plane-surface $-1 0 0 11.135196988506376 0 0 1 1 0 0 forward_v I I I I #
face $-1 $44 $45 $16 $-1 $46 forward single #
loop $-1 $-1 $47 $21 #
plane-surface $-1 -64.350654287325696 -24.981278264598938 0 0 -1 0 0 0 -1 forward_v I I I I #
face $-1 $48 $49 $17 $-1 $50 forward single #
loop $-1 $-1 $51 $22 #
plane-surface $-1 -25.418755355013122 -131.81011113503337 103.05346071264478 -1 0 0 0 -0.71933980857756763 0.69465836192734942 forward_v I I I I #
face $-1 $52 $53 $18 $-1 $54 reversed single #
loop $-1 $55 $56 $23 #
cone-surface $-1 -49.198329346003348 -28.159483687403153 8.1013679920448673 0 0.71933980857756763 -0.69465836192734942 1 0 0 1 I I 0 1 1 forward I I I I #
face $-1 $57 $58 $19 $-1 $59 reversed single #
loop $-1 $60 $61 $24 #
cone-surface $-1 -34.930584951409216 -28.159483687403153 8.1013679920448673 0 0.71933980857756763 -0.69465836192734942 1 0 0 1 I I 0 1 1 forward I I I I #
face $-1 $62 $63 $15 $-1 $64 reversed single #
loop $-1 $-1 $65 $25 #
plane-surface $-1 0 0 -11.135196988506376 0 0 1 1 0 0 forward_v I I I I #
coedge $-1 $66 $67 $68 $69 forward $26 $-1 #
face $-1 $70 $71 $16 $-1 $72 forward single #
loop $-1 $-1 $73 $28 #
plane-surface $-1 -58.710158942399438 -28.048274521228134 0 -1 0 0 0 0 1 forward_v I I I I #
coedge $-1 $74 $75 $76 $77 reversed $29 $-1 #
face $-1 $78 $79 $17 $-1 $80 reversed single #
loop $-1 $-1 $81 $31 #
plane-surface $-1 -42.064457148706282 -31.115270777857333 5.8135860067404792 0 -0.71933980857756763 0.69465836192734942 1 0 0 forward_v I I I I #
coedge $-1 $82 $83 $84 $85 reversed $32 $-1 #
face $-1 $86 $87 $18 $-1 $88 forward single #
loop $-1 $89 $90 $34 #
cone-surface $-1 -49.198329346003348 -27.413536626162966 7.3810153055026326 0 0.71933980857756763 -0.69465836192734942 0.5 0 0 1 I I -0.70710678118654746 0.70710678118654746 0.5 forward I I I I #
loop $-1 $-1 $91 $23 #
coedge $-1 $56 $56 $92 $93 reversed $35 $-1 #
face $-1 $94 $95 $19 $-1 $96 reversed single #
loop $-1 $97 $98 $37 #
cone-surface $-1 -34.930584951409216 -27.413536626162966 7.3810153055026326 0 0.71933980857756763 -0.69465836192734942 0.5 0 0 1 I I -0.70710678118654746 0.70710678118654746 0.5 forward I I I I #
loop $-1 $-1 $99 $24 #
coedge $-1 $61 $61 $100 $101 reversed $38 $-1 #
face $-1 $102 $103 $15 $-1 $104 reversed single #
loop $-1 $-1 $105 $40 #
plane-surface $-1 0 -31.115270777857329 0 0 1 0 0 0 1 forward_v I I I I #
coedge $-1 $106 $107 $108 $109 forward $41 $-1 #
coedge $-1 $110 $43 $111 $112 forward $26 $-1 #
coedge $-1 $43 $110 $113 $114 forward $26 $-1 #
coedge $-1 $115 $116 $43 $69 reversed $117 $-1 #
edge $-1 $118 -31.115270777857329 $119 31.115270777857329 $68 $120 forward 7 unknown #
face $-1 $121 $122 $16 $-1 $123 reversed single #
loop $-1 $-1 $124 $44 #
plane-surface $-1 0 0 11.135196988506376 0 0 1 1 0 0 forward_v I I I I #
coedge $-1 $125 $126 $127 $128 reversed $45 $-1 #
coedge $-1 $129 $47 $124 $130 reversed $29 $-1 #
coedge $-1 $47 $129 $131 $132 reversed $29 $-1 #
coedge $-1 $126 $125 $47 $77 forward $45 $-1 #
edge $-1 $133 -11.135196988506376 $134 11.135196988506376 $76 $135 forward 7 unknown #
face $-1 $136 $137 $17 $-1 $138 forward single #
loop $-1 $-1 $139 $48 #
plane-surface $-1 0 -31.115270777857329 0 0 1 0 0 0 1 forward_v I I I I #
coedge $-1 $140 $141 $142 $143 reversed $49 $-1 #
coedge $-1 $83 $51 $141 $144 forward $32 $-1 #
coedge $-1 $51 $82 $139 $145 reversed $32 $-1 #
coedge $-1 $146 $142 $51 $85 forward $147 $-1 #
edge $-1 $148 -39.928804656664902 $149 -34.78978478965935 $84 $150 forward 7 unknown #
face $-1 $151 $152 $18 $-1 $153 forward single #
loop $-1 $-1 $154 $52 #
plane-surface $-1 -25.418755355013122 -131.81011113503337 103.05346071264478 -1 0 0 0 -0.71933980857756763 0.69465836192734942 forward_v I I I I #
loop $-1 $-1 $155 $34 #
coedge $-1 $90 $90 $91 $156 forward $53 $-1 #
coedge $-1 $91 $91 $90 $156 reversed $55 $-1 #
coedge $-1 $92 $92 $56 $93 forward $152 $-1 #
edge $-1 $157 -2.4679222645124434e-015 $157 6.2831853071795978 $92 $158 forward 7 unknown #
face $-1 $159 $160 $19 $-1 $161 reversed single #
loop $-1 $162 $163 $57 #
cone-surface $-1 -49.198329346003348 -28.159483687403153 8.1013679920448673 0 0.71933980857756763 -0.69465836192734942 1 0 0 1 I I 0 1 1 forward I I I I #
loop $-1 $-1 $164 $37 #
coedge $-1 $98 $98 $99 $165 forward $58 $-1 #
coedge $-1 $99 $99 $98 $165 reversed $60 $-1 #
coedge $-1 $100 $100 $61 $101 forward $166 $-1 #
edge $-1 $167 -2.4679222645124434e-015 $167 6.2831853071795978 $100 $168 forward 7 unknown #
face $-1 $169 $170 $15 $-1 $171 reversed single #
loop $-1 $-1 $172 $62 #
plane-surface $-1 -69.991149632251961 0 0 1 0 0 0 0 -1 forward_v I I I I #
coedge $-1 $173 $113 $174 $175 forward $63 $-1 #
coedge $-1 $176 $65 $173 $177 forward $41 $-1 #
coedge $-1 $65 $176 $178 $179 forward $41 $-1 #
coedge $-1 $116 $115 $65 $109 reversed $117 $-1 #
edge $-1 $180 -31.115270777857329 $181 31.115270777857329 $108 $182 forward 7 unknown #
coedge $-1 $67 $66 $183 $184 forward $26 $-1 #
coedge $-1 $185 $186 $66 $112 reversed $170 $-1 #
edge $-1 $119 -69.991149632251961 $187 69.991149632251961 $111 $188 forward 7 unknown #
coedge $-1 $105 $189 $67 $114 reversed $63 $-1 #
edge $-1 $190 -69.991149632251961 $118 69.991149632251961 $113 $191 forward 7 unknown #
coedge $-1 $108 $68 $189 $192 forward $117 $-1 #
coedge $-1 $68 $108 $185 $193 reversed $117 $-1 #
loop $-1 $-1 $115 $169 #
vertex $-1 $69 $194 #
vertex $-1 $69 $195 #
straight-curve $-1 69.991149632251961 0 11.135196988506376 0 1 0 I I #
face $-1 $196 $197 $16 $-1 $198 reversed single #
loop $-1 $-1 $127 $70 #
plane-surface $-1 0 -31.115270777857329 0 0 1 0 0 0 1 forward_v I I I I #
coedge $-1 $199 $200 $74 $130 forward $71 $-1 #
coedge $-1 $76 $73 $199 $201 reversed $45 $-1 #
coedge $-1 $73 $76 $202 $203 reversed $45 $-1 #
coedge $-1 $204 $205 $73 $128 forward $122 $-1 #
edge $-1 $206 -11.135196988506376 $207 11.135196988506376 $127 $208 forward 7 unknown #
coedge $-1 $75 $74 $209 $210 reversed $29 $-1 #
edge $-1 $211 -37.815822488589113 $133 -26.53483179873659 $124 $212 forward 7 unknown #
coedge $-1 $213 $202 $75 $132 forward $197 $-1 #
edge $-1 $134 26.53483179873659 $214 37.815822488589113 $131 $215 forward 7 unknown #
vertex $-1 $130 $216 #
vertex $-1 $132 $217 #
straight-curve $-1 -58.710158942399438 -24.981278264598938 0 0 0 -1 I I #
face $-1 $218 $219 $17 $-1 $220 forward single #
loop $-1 $-1 $221 $78 #
plane-surface $-1 -64.350654287325696 -24.981278264598938 0 0 -1 0 0 0 -1 forward_v I I I I #
coedge $-1 $222 $223 $83 $145 forward $79 $-1 #
coedge $-1 $224 $81 $225 $226 reversed $49 $-1 #
coedge $-1 $81 $224 $82 $144 reversed $49 $-1 #
coedge $-1 $84 $227 $81 $143 forward $147 $-1 #
edge $-1 $228 -37.677930368046297 $148 -4.386526780659981 $142 $229 forward 7 unknown #
edge $-1 $148 -7.3979097476739435 $230 -5.0235306421517022e-015 $82 $231 forward 7 unknown #
edge $-1 $149 40.39153336781601 $230 45.71314434958191 $139 $232 forward 7 unknown #
coedge $-1 $233 $84 $223 $234 forward $147 $-1 #
loop $-1 $-1 $84 $218 #
vertex $-1 $143 $235 #
vertex $-1 $234 $236 #
straight-curve $-1 -25.418755355013122 -65.905055567516683 11.13519698850638 0 -1 0 I I #
face $-1 $237 $238 $18 $-1 $239 reversed single #
loop $-1 $240 $92 $86 #
plane-surface $-1 -42.064457148706282 -31.115270777857333 5.8135860067404792 0 -0.71933980857756763 0.69465836192734942 1 0 0 forward_v I I I I #
coedge $-1 $241 $242 $243 $244 reversed $87 $-1 #
coedge $-1 $155 $155 $-1 $245 forward $89 $-1 #
edge $-1 $246 0 $246 6.2831853071796004 $90 $247 forward 7 unknown #
vertex $-1 $93 $248 #
ellipse-curve $-1 -49.198329346003348 -28.545760844354557 8.4743914976234276 0 0.71933980857756763 -0.69465836192734942 1 0 0 1 I I #
face $-1 $249 $250 $19 $-1 $251 forward single #
loop $-1 $252 $253 $94 #
cone-surface $-1 -49.198329346003348 -27.413536626162966 7.3810153055026326 0 0.71933980857756763 -0.69465836192734942 0.5 0 0 1 I I -0.70710678118654746 0.70710678118654746 0.5 forward I I I I #
loop $-1 $-1 $254 $57 #
coedge $-1 $163 $163 $255 $256 reversed $95 $-1 #
coedge $-1 $164 $164 $-1 $257 forward $97 $-1 #
edge $-1 $258 0 $258 6.2831853071796004 $98 $259 forward 7 unknown #
loop $-1 $260 $100 $249 #
vertex $-1 $101 $261 #
ellipse-curve $-1 -34.930584951409216 -28.545760844354557 8.4743914976234276 0 0.71933980857756763 -0.69465836192734942 1 0 0 1 I I #
face $-1 $-1 $117 $15 $-1 $262 reversed single #
loop $-1 $-1 $185 $102 #
plane-surface $-1 0 31.115270777857329 0 0 -1 0 0 0 -1 forward_v I I I I #
coedge $-1 $263 $183 $186 $264 forward $103 $-1 #
coedge $-1 $189 $105 $106 $177 reversed $63 $-1 #
coedge $-1 $183 $263 $105 $175 reversed $103 $-1 #
edge $-1 $190 -11.135196988506376 $265 11.135196988506376 $174 $266 forward 7 unknown #
coedge $-1 $107 $106 $263 $267 forward $41 $-1 #
edge $-1 $181 -69.991149632251961 $265 69.991149632251961 $173 $268 forward 7 unknown #
coedge $-1 $186 $185 $107 $179 reversed $170 $-1 #
edge $-1 $269 -69.991149632251961 $180 69.991149632251961 $178 $270 forward 7 unknown #
vertex $-1 $109 $271 #
vertex $-1 $192 $272 #
straight-curve $-1 69.991149632251961 0 -11.135196988506376 0 -1 0 I I #
coedge $-1 $172 $174 $110 $184 reversed $103 $-1 #
edge $-1 $187 -31.115270777857329 $190 31.115270777857329 $183 $273 forward 7 unknown #
coedge $-1 $178 $111 $116 $193 forward $170 $-1 #
coedge $-1 $111 $178 $172 $264 reversed $170 $-1 #
vertex $-1 $112 $274 #
straight-curve $-1 0 31.115270777857329 11.135196988506376 -1 0 0 I I #
coedge $-1 $113 $173 $115 $192 reversed $63 $-1 #
vertex $-1 $184 $275 #
straight-curve $-1 0 -31.115270777857329 11.135196988506376 1 0 0 I I #
edge $-1 $118 -11.135196988506376 $181 11.135196988506376 $115 $276 forward 7 unknown #
edge $-1 $119 -11.135196988506376 $180 11.135196988506376 $116 $277 forward 7 unknown #
point $-1 69.991149632251961 -31.115270777857329 11.135196988506376 #
point $-1 69.991149632251961 31.115270777857329 11.135196988506376 #
face $-1 $278 $279 $16 $-1 $280 reversed single #
loop $-1 $-1 $131 $121 #
plane-surface $-1 0 0 -11.135196988506376 0 0 1 1 0 0 forward_v I I I I #
coedge $-1 $281 $124 $125 $201 forward $71 $-1 #
coedge $-1 $124 $282 $283 $284 forward $71 $-1 #
edge $-1 $133 10.957141003984871 $206 17.091133517243264 $199 $285 forward 7 unknown #
coedge $-1 $131 $286 $126 $203 forward $197 $-1 #
edge $-1 $207 -17.091133517243264 $134 -10.957141003984871 $202 $287 forward 7 unknown #
coedge $-1 $288 $127 $286 $289 reversed $122 $-1 #
coedge $-1 $127 $288 $281 $290 reversed $122 $-1 #
vertex $-1 $290 $291 #
vertex $-1 $128 $292 #
straight-curve $-1 -58.710158942399438 -31.115270777857329 0 0 0 -1 I I #
coedge $-1 $283 $293 $129 $210 forward $279 $-1 #
edge $-1 $214 -11.135196988506376 $211 11.135196988506376 $209 $294 forward 7 unknown #
vertex $-1 $210 $295 #
straight-curve $-1 -32.175327143662848 -24.981278264598938 11.135196988506376 1 0 0 I I #
coedge $-1 $296 $131 $293 $297 forward $197 $-1 #
vertex $-1 $297 $298 #
straight-curve $-1 -32.175327143662848 -24.981278264598938 -11.135196988506376 -1 0 0 I I #
point $-1 -58.710158942399438 -24.981278264598938 11.135196988506376 #
point $-1 -58.710158942399438 -24.981278264598938 -11.135196988506376 #
face $-1 $299 $147 $17 $-1 $300 forward single #
loop $-1 $-1 $225 $136 #
plane-surface $-1 -58.710158942399438 -28.048274521228134 0 -1 0 0 0 0 1 forward_v I I I I #
coedge $-1 $301 $302 $303 $304 reversed $137 $-1 #
coedge $-1 $305 $139 $224 $306 forward $79 $-1 #
coedge $-1 $139 $307 $146 $234 reversed $79 $-1 #
coedge $-1 $141 $140 $222 $306 reversed $49 $-1 #
coedge $-1 $308 $309 $140 $226 forward $219 $-1 #
edge $-1 $310 1.0257146247852913 $228 8.4236243724592317 $225 $311 forward 7 unknown #
coedge $-1 $142 $312 $308 $313 forward $147 $-1 #
vertex $-1 $226 $314 #
straight-curve $-1 -21.032228574353141 -25.976250910851782 11.135196988506376 1 0 0 I I #
vertex $-1 $306 $315 #
straight-curve $-1 -25.418755355013122 -31.115270777857333 5.8135860067404792 0 -0.69465836192734942 -0.71933980857756763 I I #
straight-curve $-1 -25.418755355013122 -31.115270777857333 51.526730356322389 0 0 -1 I I #
coedge $-1 $316 $146 $317 $318 forward $147 $-1 #
edge $-1 $149 -25.418755355013122 $319 69.991149632251961 $223 $320 forward 7 unknown #
point $-1 -25.418755355013122 -25.976250910851782 11.135196988506376 #
point $-1 -25.418755355013122 -31.115270777857329 11.135196988506376 #
face $-1 $321 $322 $18 $-1 $323 forward single #
loop $-1 $-1 $324 $151 #
plane-surface $-1 0 -31.115270777857329 0 0 1 0 0 0 1 forward_v I I I I #
loop $-1 $-1 $325 $86 #
coedge $-1 $242 $154 $326 $327 forward $87 $-1 #
coedge $-1 $154 $241 $324 $328 reversed $87 $-1 #
coedge $-1 $329 $330 $154 $244 forward $331 $-1 #
edge $-1 $332 -39.928804656664902 $333 -34.78978478965935 $243 $334 forward 7 unknown #
edge $-1 $335 1 $335 0 $155 $-1 forward 7 unknown #
vertex $-1 $156 $336 #
ellipse-curve $-1 -49.198329346003348 -27.773206530451748 7.7283444864663071 0 -0.71933980857756763 0.69465836192734942 1 0 0 1 I I #
point $-1 -48.198329346003348 -28.545760844354554 8.4743914976234276 #
face $-1 $337 $166 $19 $-1 $338 forward single #
loop $-1 $-1 $339 $159 #
plane-surface $-1 -25.418755355013122 -131.81011113503337 103.05346071264478 -1 0 0 0 -0.71933980857756763 0.69465836192734942 forward_v I I I I #
loop $-1 $-1 $340 $94 #
coedge $-1 $253 $253 $254 $341 forward $160 $-1 #
coedge $-1 $254 $254 $253 $341 reversed $162 $-1 #
coedge $-1 $255 $255 $163 $256 forward $260 $-1 #
edge $-1 $342 -2.4679222645124434e-015 $342 6.2831853071795978 $255 $343 forward 7 unknown #
edge $-1 $344 1 $344 0 $164 $-1 forward 7 unknown #
vertex $-1 $165 $345 #
ellipse-curve $-1 -34.930584951409216 -27.773206530451748 7.7283444864663071 0 -0.71933980857756763 0.69465836192734942 1 0 0 1 I I #
loop $-1 $346 $255 $249 #
point $-1 -33.930584951409216 -28.545760844354554 8.4743914976234276 #
plane-surface $-1 69.991149632251961 0 0 -1 0 0 0 0 1 forward_v I I I I #
coedge $-1 $174 $172 $176 $267 reversed $103 $-1 #
edge $-1 $187 -11.135196988506376 $269 11.135196988506376 $186 $347 forward 7 unknown #
vertex $-1 $267 $348 #
straight-curve $-1 -69.991149632251961 -31.115270777857329 0 0 0 -1 I I #
edge $-1 $265 -31.115270777857329 $269 31.115270777857329 $263 $349 forward 7 unknown #
straight-curve $-1 0 -31.115270777857329 -11.135196988506376 -1 0 0 I I #
vertex $-1 $179 $350 #
straight-curve $-1 0 31.115270777857329 -11.135196988506376 1 0 0 I I #
point $-1 69.991149632251961 31.115270777857329 -11.135196988506376 #
point $-1 69.991149632251961 -31.115270777857329 -11.135196988506376 #
straight-curve $-1 -69.991149632251961 0 11.135196988506376 0 -1 0 I I #
point $-1 -69.991149632251961 31.115270777857329 11.135196988506376 #
point $-1 -69.991149632251961 -31.115270777857329 11.135196988506376 #
straight-curve $-1 69.991149632251961 -31.115270777857329 0 0 0 -1 I I #
straight-curve $-1 69.991149632251961 31.115270777857329 0 0 0 -1 I I #
face $-1 $351 $352 $16 $-1 $353 reversed single #
loop $-1 $-1 $209 $196 #
plane-surface $-1 -69.991149632251961 0 0 1 0 0 0 0 -1 forward_v I I I I #
coedge $-1 $354 $199 $205 $290 forward $71 $-1 #
coedge $-1 $200 $354 $355 $356 forward $71 $-1 #
coedge $-1 $357 $209 $200 $284 reversed $279 $-1 #
edge $-1 $358 -31.115270777857329 $211 24.981278264598938 $283 $359 forward 7 unknown #
straight-curve $-1 -58.710158942399438 -14.024137260614067 11.135196988506376 0 -1 0 I I #
coedge $-1 $202 $360 $204 $289 forward $197 $-1 #
straight-curve $-1 -58.710158942399438 -14.024137260614067 -11.135196988506376 0 1 0 I I #
coedge $-1 $205 $204 $361 $362 reversed $122 $-1 #
edge $-1 $363 -69.991149632251961 $207 58.710158942399438 $204 $364 forward 7 unknown #
edge $-1 $206 -58.710158942399438 $365 69.991149632251961 $205 $366 forward 7 unknown #
point $-1 -58.710158942399438 -31.115270777857329 11.135196988506376 #
point $-1 -58.710158942399438 -31.115270777857329 -11.135196988506376 #
coedge $-1 $209 $357 $213 $297 reversed $279 $-1 #
straight-curve $-1 -69.991149632251961 -24.981278264598938 0 0 0 1 I I #
point $-1 -69.991149632251961 -24.981278264598938 11.135196988506376 #
coedge $-1 $360 $213 $367 $368 forward $197 $-1 #
edge $-1 $214 -24.981278264598938 $369 31.115270777857329 $293 $370 forward 7 unknown #
point $-1 -69.991149632251961 -24.981278264598938 -11.135196988506376 #
face $-1 $371 $372 $17 $-1 $373 reversed single #
plane-surface $-1 0 0 11.135196988506376 0 0 1 1 0 0 forward_v I I I I #
coedge $-1 $374 $221 $312 $375 reversed $137 $-1 #
coedge $-1 $221 $374 $376 $377 reversed $137 $-1 #
coedge $-1 $378 $308 $221 $304 forward $219 $-1 #
edge $-1 $379 -11.135196988506376 $380 11.135196988506376 $303 $381 forward 7 unknown #
coedge $-1 $382 $222 $309 $383 forward $79 $-1 #
edge $-1 $230 4.386526780659981 $310 37.677930368046297 $222 $384 forward 7 unknown #
coedge $-1 $223 $382 $385 $386 reversed $79 $-1 #
coedge $-1 $303 $225 $227 $313 reversed $219 $-1 #
coedge $-1 $225 $378 $305 $383 reversed $219 $-1 #
vertex $-1 $383 $387 #
straight-curve $-1 -58.710158942399438 -31.827792018915606 5.0757486448922204 0 0.69465836192734942 0.71933980857756763 I I #
coedge $-1 $227 $388 $301 $375 forward $147 $-1 #
edge $-1 $379 10.957141003984871 $228 11.952113650237711 $227 $389 forward 7 unknown #
point $-1 -58.710158942399438 -25.976250910851778 11.135196988506376 #
point $-1 -25.418755355013122 -31.115270777857329 5.8135860067404828 #
coedge $-1 $388 $233 $390 $391 forward $147 $-1 #
coedge $-1 $385 $392 $233 $318 reversed $393 $-1 #
edge $-1 $319 -31.115270777857329 $394 31.115270777857329 $317 $395 forward 7 unknown #
vertex $-1 $318 $396 #
straight-curve $-1 0 -31.115270777857329 11.135196988506376 1 0 0 I I #
face $-1 $397 $398 $18 $-1 $399 forward single #
loop $-1 $-1 $400 $237 #
plane-surface $-1 -64.350654287325696 -24.981278264598938 0 0 -1 0 0 0 -1 forward_v I I I I #
coedge $-1 $401 $402 $242 $328 forward $238 $-1 #
coedge $-1 $403 $326 $330 $404 reversed $240 $-1 #
coedge $-1 $325 $405 $241 $327 reversed $240 $-1 #
edge $-1 $332 -7.3979097476739435 $406 -5.0235306421517022e-015 $241 $407 forward 7 unknown #
edge $-1 $333 40.39153336781601 $406 45.71314434958191 $324 $408 forward 7 unknown #
coedge $-1 $409 $243 $402 $410 forward $331 $-1 #
coedge $-1 $243 $411 $325 $404 forward $331 $-1 #
loop $-1 $-1 $243 $397 #
vertex $-1 $404 $412 #
vertex $-1 $410 $413 #
straight-curve $-1 -25.418755355013122 -65.905055567516683 11.13519698850638 0 -1 0 I I #
vertex $-1 $245 $414 #
point $-1 -48.198329346003348 -27.773206530451748 7.7283444864663071 #
face $-1 $415 $416 $19 $-1 $417 reversed single #
plane-surface $-1 -42.064457148706282 -31.115270777857333 5.8135860067404792 0 -0.71933980857756763 0.69465836192734942 1 0 0 forward_v I I I I #
coedge $-1 $418 $419 $420 $421 reversed $250 $-1 #
coedge $-1 $340 $340 $-1 $422 forward $252 $-1 #
edge $-1 $423 0 $423 6.2831853071796004 $253 $424 forward 7 unknown #
vertex $-1 $256 $425 #
ellipse-curve $-1 -49.198329346003348 -28.545760844354557 8.4743914976234276 0 0.71933980857756763 -0.69465836192734942 1 0 0 1 I I #
vertex $-1 $257 $426 #
point $-1 -33.930584951409216 -27.773206530451748 7.7283444864663071 #
loop $-1 $-1 $427 $249 #
straight-curve $-1 -69.991149632251961 31.115270777857329 0 0 0 -1 I I #
point $-1 -69.991149632251961 -31.115270777857329 -11.135196988506376 #
straight-curve $-1 -69.991149632251961 0 -11.135196988506376 0 1 0 I I #
point $-1 -69.991149632251961 31.115270777857329 -11.135196988506376 #
face $-1 $-1 $428 $16 $-1 $429 reversed single #
loop $-1 $-1 $430 $278 #
plane-surface $-1 0 31.115270777857329 0 0 -1 0 0 0 -1 forward_v I I I I #
coedge $-1 $282 $281 $431 $432 forward $71 $-1 #
coedge $-1 $430 $433 $282 $356 reversed $352 $-1 #
edge $-1 $434 -69.991149632251961 $358 69.991149632251961 $355 $435 forward 7 unknown #
coedge $-1 $293 $283 $433 $436 forward $279 $-1 #
vertex $-1 $356 $437 #
straight-curve $-1 -69.991149632251961 0 11.135196988506376 0 -1 0 I I #
coedge $-1 $286 $296 $438 $439 forward $197 $-1 #
coedge $-1 $438 $431 $288 $362 forward $428 $-1 #
edge $-1 $365 -11.135196988506376 $363 11.135196988506376 $361 $440 forward 7 unknown #
vertex $-1 $362 $441 #
straight-curve $-1 0 -31.115270777857329 -11.135196988506376 -1 0 0 I I #
vertex $-1 $432 $442 #
straight-curve $-1 0 -31.115270777857329 11.135196988506376 1 0 0 I I #
coedge $-1 $433 $430 $296 $368 reversed $352 $-1 #
edge $-1 $369 -69.991149632251961 $443 69.991149632251961 $367 $444 forward 7 unknown #
vertex $-1 $368 $445 #
straight-curve $-1 -69.991149632251961 0 -11.135196988506376 0 1 0 I I #
face $-1 $446 $447 $17 $-1 $448 reversed single #
loop $-1 $-1 $376 $299 #
plane-surface $-1 0 0 -11.135196988506376 0 0 1 1 0 0 forward_v I I I I #
coedge $-1 $302 $301 $449 $450 reversed $137 $-1 #
edge $-1 $451 -37.815822488589113 $379 -26.53483179873659 $312 $452 forward 7 unknown #
coedge $-1 $453 $454 $302 $377 forward $372 $-1 #
edge $-1 $380 26.53483179873659 $455 37.815822488589113 $376 $456 forward 7 unknown #
coedge $-1 $309 $303 $454 $457 reversed $219 $-1 #
vertex $-1 $375 $458 #
vertex $-1 $377 $459 #
straight-curve $-1 -58.710158942399438 -24.981278264598938 0 0 0 -1 I I #
coedge $-1 $307 $305 $460 $461 reversed $79 $-1 #
edge $-1 $310 -5.8135860067404836 $462 11.135196988506376 $305 $463 forward 7 unknown #
straight-curve $-1 -21.032228574353141 -31.115270777857329 5.8135860067404819 -1 0 0 I I #
coedge $-1 $464 $317 $307 $386 forward $393 $-1 #
edge $-1 $319 -11.135196988506376 $465 11.135196988506376 $385 $466 forward 7 unknown #
point $-1 -58.710158942399438 -31.115270777857329 5.8135860067404836 #
coedge $-1 $312 $316 $467 $468 forward $147 $-1 #
straight-curve $-1 -58.710158942399438 -14.024137260614067 11.135196988506376 0 -1 0 I I #
coedge $-1 $469 $470 $316 $391 reversed $471 $-1 #
edge $-1 $394 -69.991149632251961 $472 69.991149632251961 $390 $473 forward 7 unknown #
coedge $-1 $317 $464 $469 $474 reversed $393 $-1 #
loop $-1 $-1 $385 $475 #
vertex $-1 $318 $476 #
straight-curve $-1 69.991149632251961 0 11.135196988506376 0 1 0 I I #
point $-1 69.991149632251961 -31.115270777857329 11.135196988506376 #
face $-1 $477 $331 $18 $-1 $478 forward single #
loop $-1 $-1 $479 $321 #
plane-surface $-1 -58.710158942399438 -28.048274521228134 0 -1 0 0 0 0 1 forward_v I I I I #
coedge $-1 $480 $481 $482 $483 reversed $322 $-1 #
coedge $-1 $484 $324 $405 $485 forward $238 $-1 #
coedge $-1 $324 $486 $329 $410 reversed $238 $-1 #
coedge $-1 $405 $325 $479 $487 reversed $240 $-1 #
edge $-1 $488 -37.677930368046297 $332 -4.386526780659981 $330 $489 forward 7 unknown #
coedge $-1 $326 $403 $401 $485 reversed $240 $-1 #
vertex $-1 $485 $490 #
straight-curve $-1 -25.418755355013122 -31.115270777857333 5.8135860067404792 0 -0.69465836192734942 -0.71933980857756763 I I #
straight-curve $-1 -25.418755355013122 -31.115270777857333 51.526730356322389 0 0 -1 I I #
coedge $-1 $491 $329 $492 $493 forward $331 $-1 #
edge $-1 $333 -25.418755355013122 $494 69.991149632251961 $402 $495 forward 7 unknown #
coedge $-1 $330 $496 $497 $498 forward $331 $-1 #
point $-1 -25.418755355013122 -25.976250910851782 11.135196988506376 #
point $-1 -25.418755355013122 -31.115270777857329 11.135196988506376 #
point $-1 -49.198329346003348 -27.053866721874183 7.0336861245389581 #
face $-1 $499 $500 $19 $-1 $501 forward single #
loop $-1 $-1 $502 $337 #
plane-surface $-1 0 -31.115270777857329 0 0 1 0 0 0 1 forward_v I I I I #
coedge $-1 $419 $339 $503 $504 forward $250 $-1 #
coedge $-1 $339 $418 $502 $505 reversed $250 $-1 #
coedge $-1 $506 $507 $339 $421 forward $508 $-1 #
edge $-1 $509 -39.928804656664902 $510 -34.78978478965935 $420 $511 forward 7 unknown #
edge $-1 $512 1 $512 0 $340 $-1 forward 7 unknown #
vertex $-1 $341 $513 #
ellipse-curve $-1 -49.198329346003348 -27.773206530451748 7.7283444864663071 0 -0.71933980857756763 0.69465836192734942 1 0 0 1 I I #
point $-1 -48.198329346003348 -28.545760844354554 8.4743914976234276 #
point $-1 -34.930584951409216 -27.053866721874183 7.0336861245389581 #
coedge $-1 $514 $503 $507 $515 reversed $346 $-1 #
loop $-1 $-1 $361 $351 #
plane-surface $-1 69.991149632251961 0 0 -1 0 0 0 0 1 forward_v I I I I #
coedge $-1 $367 $355 $516 $517 forward $352 $-1 #
coedge $-1 $361 $516 $354 $432 reversed $428 $-1 #
edge $-1 $365 -31.115270777857329 $434 31.115270777857329 $431 $518 forward 7 unknown #
coedge $-1 $355 $367 $357 $436 reversed $352 $-1 #
vertex $-1 $432 $519 #
straight-curve $-1 0 31.115270777857329 11.135196988506376 -1 0 0 I I #
edge $-1 $358 -11.135196988506376 $369 11.135196988506376 $433 $520 forward 7 unknown #
point $-1 -69.991149632251961 31.115270777857329 11.135196988506376 #
coedge $-1 $516 $361 $360 $439 reversed $428 $-1 #
edge $-1 $443 -31.115270777857329 $363 31.115270777857329 $438 $521 forward 7 unknown #
straight-curve $-1 69.991149632251961 -31.115270777857329 0 0 0 -1 I I #
point $-1 69.991149632251961 -31.115270777857329 -11.135196988506376 #
point $-1 69.991149632251961 -31.115270777857329 11.135196988506376 #
vertex $-1 $439 $522 #
straight-curve $-1 0 31.115270777857329 -11.135196988506376 1 0 0 I I #
point $-1 -69.991149632251961 31.115270777857329 -11.135196988506376 #
face $-1 $475 $471 $17 $-1 $523 reversed single #
loop $-1 $-1 $449 $371 #
plane-surface $-1 -69.991149632251961 0 0 1 0 0 0 0 -1 forward_v I I I I #
coedge $-1 $467 $524 $374 $450 forward $447 $-1 #
edge $-1 $455 -11.135196988506376 $451 11.135196988506376 $449 $525 forward 7 unknown #
vertex $-1 $450 $526 #
straight-curve $-1 -32.175327143662848 -24.981278264598938 11.135196988506376 1 0 0 I I #
coedge $-1 $527 $376 $524 $528 forward $372 $-1 #
coedge $-1 $376 $460 $378 $457 forward $372 $-1 #
vertex $-1 $528 $529 #
straight-curve $-1 -32.175327143662848 -24.981278264598938 -11.135196988506376 -1 0 0 I I #
edge $-1 $462 -17.091133517243264 $380 -10.957141003984871 $454 $530 forward 7 unknown #
point $-1 -58.710158942399438 -24.981278264598938 11.135196988506376 #
point $-1 -58.710158942399438 -24.981278264598938 -11.135196988506376 #
coedge $-1 $454 $531 $382 $461 forward $372 $-1 #
edge $-1 $465 -69.991149632251961 $462 58.710158942399438 $382 $532 forward 7 unknown #
vertex $-1 $383 $533 #
straight-curve $-1 -58.710158942399438 -31.115270777857329 0 0 0 -1 I I #
coedge $-1 $392 $385 $531 $534 reversed $393 $-1 #
vertex $-1 $386 $535 #
straight-curve $-1 69.991149632251961 -31.115270777857329 0 0 0 -1 I I #
coedge $-1 $536 $449 $388 $468 reversed $447 $-1 #
edge $-1 $472 -31.115270777857329 $451 24.981278264598938 $467 $537 forward 7 unknown #
coedge $-1 $538 $390 $392 $474 forward $471 $-1 #
coedge $-1 $390 $538 $536 $539 reversed $471 $-1 #
loop $-1 $-1 $469 $446 #
vertex $-1 $391 $540 #
straight-curve $-1 0 31.115270777857329 11.135196988506376 -1 0 0 I I #
edge $-1 $394 -11.135196988506376 $541 11.135196988506376 $392 $542 forward 7 unknown #
face $-1 $-1 $393 $17 $-1 $543 reversed single #
point $-1 69.991149632251961 31.115270777857329 11.135196988506376 #
face $-1 $544 $545 $18 $-1 $546 reversed single #
plane-surface $-1 0 0 11.135196988506376 0 0 1 1 0 0 forward_v I I I I #
coedge $-1 $497 $547 $403 $487 forward $398 $-1 #
coedge $-1 $548 $400 $496 $549 reversed $322 $-1 #
coedge $-1 $400 $548 $550 $551 reversed $322 $-1 #
coedge $-1 $552 $497 $400 $483 forward $398 $-1 #
edge $-1 $553 -11.135196988506376 $554 11.135196988506376 $482 $555 forward 7 unknown #
coedge $-1 $556 $401 $547 $557 forward $238 $-1 #
edge $-1 $406 4.386526780659981 $558 37.677930368046297 $401 $559 forward 7 unknown #
coedge $-1 $402 $556 $560 $561 reversed $238 $-1 #
edge $-1 $558 1.0257146247852913 $488 8.4236243724592317 $479 $562 forward 7 unknown #
vertex $-1 $487 $563 #
straight-curve $-1 -21.032228574353141 -25.976250910851782 11.135196988506376 1 0 0 I I #
point $-1 -25.418755355013122 -31.115270777857329 5.8135860067404828 #
coedge $-1 $564 $409 $565 $566 forward $331 $-1 #
coedge $-1 $560 $567 $409 $493 reversed $568 $-1 #
edge $-1 $494 -31.115270777857329 $569 31.115270777857329 $492 $570 forward 7 unknown #
vertex $-1 $493 $571 #
straight-curve $-1 0 -31.115270777857329 11.135196988506376 1 0 0 I I #
coedge $-1 $411 $564 $480 $549 forward $331 $-1 #
coedge $-1 $482 $479 $411 $498 reversed $398 $-1 #
edge $-1 $553 10.957141003984871 $488 11.952113650237711 $411 $572 forward 7 unknown #
face $-1 $573 $574 $19 $-1 $575 forward single #
loop $-1 $-1 $576 $415 #
plane-surface $-1 -64.350654287325696 -24.981278264598938 0 0 -1 0 0 0 -1 forward_v I I I I #
coedge $-1 $577 $578 $419 $505 forward $416 $-1 #
coedge $-1 $427 $579 $418 $504 reversed $346 $-1 #
edge $-1 $509 -7.3979097476739435 $580 -5.0235306421517022e-015 $418 $581 forward 7 unknown #
edge $-1 $510 40.39153336781601 $580 45.71314434958191 $502 $582 forward 7 unknown #
coedge $-1 $583 $420 $578 $584 forward $508 $-1 #
coedge $-1 $420 $585 $427 $515 forward $508 $-1 #
loop $-1 $-1 $420 $573 #
vertex $-1 $515 $586 #
vertex $-1 $584 $587 #
straight-curve $-1 -25.418755355013122 -65.905055567516683 11.13519698850638 0 -1 0 I I #
vertex $-1 $422 $588 #
point $-1 -48.198329346003348 -27.773206530451748 7.7283444864663071 #
coedge $-1 $579 $427 $589 $590 reversed $346 $-1 #
edge $-1 $591 -37.677930368046297 $509 -4.386526780659981 $507 $592 forward 7 unknown #
coedge $-1 $431 $438 $430 $517 reversed $428 $-1 #
edge $-1 $434 -11.135196988506376 $443 11.135196988506376 $516 $593 forward 7 unknown #
straight-curve $-1 69.991149632251961 0 11.135196988506376 0 1 0 I I #
point $-1 69.991149632251961 31.115270777857329 11.135196988506376 #
straight-curve $-1 -69.991149632251961 31.115270777857329 0 0 0 -1 I I #
straight-curve $-1 69.991149632251961 0 -11.135196988506376 0 -1 0 I I #
point $-1 69.991149632251961 31.115270777857329 -11.135196988506376 #
plane-surface $-1 0 31.115270777857329 0 0 -1 0 0 0 -1 forward_v I I I I #
coedge $-1 $449 $536 $453 $528 reversed $447 $-1 #
straight-curve $-1 -69.991149632251961 -24.981278264598938 0 0 0 1 I I #
point $-1 -69.991149632251961 -24.981278264598938 11.135196988506376 #
coedge $-1 $531 $453 $538 $594 forward $372 $-1 #
edge $-1 $455 -24.981278264598938 $595 31.115270777857329 $524 $596 forward 7 unknown #
point $-1 -69.991149632251961 -24.981278264598938 -11.135196988506376 #
straight-curve $-1 -58.710158942399438 -14.024137260614067 -11.135196988506376 0 1 0 I I #
coedge $-1 $460 $527 $464 $534 forward $372 $-1 #
straight-curve $-1 0 -31.115270777857329 -11.135196988506376 -1 0 0 I I #
point $-1 -58.710158942399438 -31.115270777857329 -11.135196988506376 #
edge $-1 $541 -31.115270777857329 $465 31.115270777857329 $464 $597 forward 7 unknown #
point $-1 69.991149632251961 -31.115270777857329 -11.135196988506376 #
coedge $-1 $524 $467 $470 $539 forward $447 $-1 #
straight-curve $-1 -69.991149632251961 0 11.135196988506376 0 -1 0 I I #
coedge $-1 $470 $469 $527 $594 reversed $471 $-1 #
edge $-1 $472 -11.135196988506376 $595 11.135196988506376 $470 $598 forward 7 unknown #
point $-1 -69.991149632251961 31.115270777857329 11.135196988506376 #
vertex $-1 $534 $599 #
straight-curve $-1 69.991149632251961 31.115270777857329 0 0 0 -1 I I #
plane-surface $-1 69.991149632251961 0 0 -1 0 0 0 0 1 forward_v I I I I #
face $-1 $600 $601 $18 $-1 $602 reversed single #
loop $-1 $-1 $550 $477 #
plane-surface $-1 0 0 -11.135196988506376 0 0 1 1 0 0 forward_v I I I I #
coedge $-1 $479 $552 $484 $557 reversed $398 $-1 #
coedge $-1 $481 $480 $603 $604 reversed $322 $-1 #
edge $-1 $605 -37.815822488589113 $553 -26.53483179873659 $496 $606 forward 7 unknown #
coedge $-1 $607 $608 $481 $551 forward $545 $-1 #
edge $-1 $554 26.53483179873659 $609 37.815822488589113 $550 $610 forward 7 unknown #
coedge $-1 $547 $482 $608 $611 reversed $398 $-1 #
vertex $-1 $549 $612 #
vertex $-1 $551 $613 #
straight-curve $-1 -58.710158942399438 -24.981278264598938 0 0 0 -1 I I #
coedge $-1 $486 $484 $614 $615 reversed $238 $-1 #
edge $-1 $558 -5.8135860067404836 $616 11.135196988506376 $484 $617 forward 7 unknown #
vertex $-1 $557 $618 #
straight-curve $-1 -21.032228574353141 -31.115270777857329 5.8135860067404819 -1 0 0 I I #
coedge $-1 $619 $492 $486 $561 forward $568 $-1 #
edge $-1 $494 -11.135196988506376 $620 11.135196988506376 $560 $621 forward 7 unknown #
straight-curve $-1 -58.710158942399438 -31.827792018915606 5.0757486448922204 0 0.69465836192734942 0.71933980857756763 I I #
point $-1 -58.710158942399438 -25.976250910851778 11.135196988506376 #
coedge $-1 $496 $491 $622 $623 forward $331 $-1 #
coedge $-1 $624 $625 $491 $566 reversed $626 $-1 #
edge $-1 $569 -69.991149632251961 $627 69.991149632251961 $565 $628 forward 7 unknown #
coedge $-1 $492 $619 $624 $629 reversed $568 $-1 #
loop $-1 $-1 $560 $630 #
vertex $-1 $493 $631 #
straight-curve $-1 69.991149632251961 0 11.135196988506376 0 1 0 I I #
point $-1 69.991149632251961 -31.115270777857329 11.135196988506376 #
straight-curve $-1 -58.710158942399438 -14.024137260614067 11.135196988506376 0 -1 0 I I #
face $-1 $632 $508 $19 $-1 $633 forward single #
loop $-1 $-1 $589 $499 #
plane-surface $-1 -58.710158942399438 -28.048274521228134 0 -1 0 0 0 0 1 forward_v I I I I #
coedge $-1 $634 $635 $636 $637 reversed $500 $-1 #
coedge $-1 $638 $502 $579 $639 forward $416 $-1 #
coedge $-1 $502 $640 $506 $584 reversed $416 $-1 #
coedge $-1 $503 $514 $577 $639 reversed $346 $-1 #
vertex $-1 $639 $641 #
straight-curve $-1 -25.418755355013122 -31.115270777857333 5.8135860067404792 0 -0.69465836192734942 -0.71933980857756763 I I #
straight-curve $-1 -25.418755355013122 -31.115270777857333 51.526730356322389 0 0 -1 I I #
coedge $-1 $642 $506 $643 $644 forward $508 $-1 #
edge $-1 $510 -25.418755355013122 $645 69.991149632251961 $578 $646 forward 7 unknown #
coedge $-1 $507 $647 $648 $649 forward $508 $-1 #
point $-1 -25.418755355013122 -25.976250910851782 11.135196988506376 #
point $-1 -25.418755355013122 -31.115270777857329 11.135196988506376 #
point $-1 -49.198329346003348 -27.053866721874183 7.0336861245389581 #
coedge $-1 $648 $650 $514 $590 forward $574 $-1 #
edge $-1 $651 1.0257146247852913 $591 8.4236243724592317 $589 $652 forward 7 unknown #
vertex $-1 $590 $653 #
straight-curve $-1 -21.032228574353141 -25.976250910851782 11.135196988506376 1 0 0 I I #
straight-curve $-1 69.991149632251961 31.115270777857329 0 0 0 -1 I I #
edge $-1 $595 -69.991149632251961 $541 69.991149632251961 $538 $654 forward 7 unknown #
vertex $-1 $594 $655 #
straight-curve $-1 -69.991149632251961 0 -11.135196988506376 0 1 0 I I #
straight-curve $-1 69.991149632251961 0 -11.135196988506376 0 -1 0 I I #
straight-curve $-1 -69.991149632251961 31.115270777857329 0 0 0 -1 I I #
point $-1 69.991149632251961 31.115270777857329 -11.135196988506376 #
face $-1 $630 $626 $18 $-1 $656 reversed single #
loop $-1 $-1 $603 $544 #
plane-surface $-1 -69.991149632251961 0 0 1 0 0 0 0 -1 forward_v I I I I #
coedge $-1 $622 $657 $548 $604 forward $601 $-1 #
edge $-1 $609 -11.135196988506376 $605 11.135196988506376 $603 $658 forward 7 unknown #
vertex $-1 $604 $659 #
straight-curve $-1 -32.175327143662848 -24.981278264598938 11.135196988506376 1 0 0 I I #
coedge $-1 $660 $550 $657 $661 forward $545 $-1 #
coedge $-1 $550 $614 $552 $611 forward $545 $-1 #
vertex $-1 $661 $662 #
straight-curve $-1 -32.175327143662848 -24.981278264598938 -11.135196988506376 -1 0 0 I I #
edge $-1 $616 -17.091133517243264 $554 -10.957141003984871 $608 $663 forward 7 unknown #
point $-1 -58.710158942399438 -24.981278264598938 11.135196988506376 #
point $-1 -58.710158942399438 -24.981278264598938 -11.135196988506376 #
coedge $-1 $608 $664 $556 $615 forward $545 $-1 #
edge $-1 $620 -69.991149632251961 $616 58.710158942399438 $556 $665 forward 7 unknown #
vertex $-1 $557 $666 #
straight-curve $-1 -58.710158942399438 -31.115270777857329 0 0 0 -1 I I #
point $-1 -58.710158942399438 -31.115270777857329 5.8135860067404836 #
coedge $-1 $567 $560 $664 $667 reversed $568 $-1 #
vertex $-1 $561 $668 #
straight-curve $-1 69.991149632251961 -31.115270777857329 0 0 0 -1 I I #
coedge $-1 $669 $603 $564 $623 reversed $601 $-1 #
edge $-1 $627 -31.115270777857329 $605 24.981278264598938 $622 $670 forward 7 unknown #
coedge $-1 $671 $565 $567 $629 forward $626 $-1 #
coedge $-1 $565 $671 $669 $672 reversed $626 $-1 #
loop $-1 $-1 $624 $600 #
vertex $-1 $566 $673 #
straight-curve $-1 0 31.115270777857329 11.135196988506376 -1 0 0 I I #
edge $-1 $569 -11.135196988506376 $674 11.135196988506376 $567 $675 forward 7 unknown #
face $-1 $-1 $568 $18 $-1 $676 reversed single #
point $-1 69.991149632251961 31.115270777857329 11.135196988506376 #
face $-1 $677 $678 $19 $-1 $679 reversed single #
plane-surface $-1 0 0 11.135196988506376 0 0 1 1 0 0 forward_v I I I I #
coedge $-1 $680 $576 $647 $681 reversed $500 $-1 #
coedge $-1 $576 $680 $682 $683 reversed $500 $-1 #
coedge $-1 $684 $648 $576 $637 forward $574 $-1 #
edge $-1 $685 -11.135196988506376 $686 11.135196988506376 $636 $687 forward 7 unknown #
coedge $-1 $688 $577 $650 $689 forward $416 $-1 #
edge $-1 $580 4.386526780659981 $651 37.677930368046297 $577 $690 forward 7 unknown #
coedge $-1 $578 $688 $691 $692 reversed $416 $-1 #
point $-1 -25.418755355013122 -31.115270777857329 5.8135860067404828 #
coedge $-1 $693 $583 $694 $695 forward $508 $-1 #
coedge $-1 $691 $696 $583 $644 reversed $697 $-1 #
edge $-1 $645 -31.115270777857329 $698 31.115270777857329 $643 $699 forward 7 unknown #
vertex $-1 $644 $700 #
straight-curve $-1 0 -31.115270777857329 11.135196988506376 1 0 0 I I #
coedge $-1 $585 $693 $634 $681 forward $508 $-1 #
coedge $-1 $636 $589 $585 $649 reversed $574 $-1 #
edge $-1 $685 10.957141003984871 $591 11.952113650237711 $585 $701 forward 7 unknown #
coedge $-1 $589 $684 $638 $689 reversed $574 $-1 #
vertex $-1 $689 $702 #
straight-curve $-1 -58.710158942399438 -31.827792018915606 5.0757486448922204 0 0.69465836192734942 0.71933980857756763 I I #
point $-1 -58.710158942399438 -25.976250910851778 11.135196988506376 #
straight-curve $-1 0 31.115270777857329 -11.135196988506376 1 0 0 I I #
point $-1 -69.991149632251961 31.115270777857329 -11.135196988506376 #
plane-surface $-1 0 31.115270777857329 0 0 -1 0 0 0 -1 forward_v I I I I #
coedge $-1 $603 $669 $607 $661 reversed $601 $-1 #
straight-curve $-1 -69.991149632251961 -24.981278264598938 0 0 0 1 I I #
point $-1 -69.991149632251961 -24.981278264598938 11.135196988506376 #
coedge $-1 $664 $607 $671 $703 forward $545 $-1 #
edge $-1 $609 -24.981278264598938 $704 31.115270777857329 $657 $705 forward 7 unknown #
point $-1 -69.991149632251961 -24.981278264598938 -11.135196988506376 #
straight-curve $-1 -58.710158942399438 -14.024137260614067 -11.135196988506376 0 1 0 I I #
coedge $-1 $614 $660 $619 $667 forward $545 $-1 #
straight-curve $-1 0 -31.115270777857329 -11.135196988506376 -1 0 0 I I #
point $-1 -58.710158942399438 -31.115270777857329 -11.135196988506376 #
edge $-1 $674 -31.115270777857329 $620 31.115270777857329 $619 $706 forward 7 unknown #
point $-1 69.991149632251961 -31.115270777857329 -11.135196988506376 #
coedge $-1 $657 $622 $625 $672 forward $601 $-1 #
straight-curve $-1 -69.991149632251961 0 11.135196988506376 0 -1 0 I I #
coedge $-1 $625 $624 $660 $703 reversed $626 $-1 #
edge $-1 $627 -11.135196988506376 $704 11.135196988506376 $625 $707 forward 7 unknown #
point $-1 -69.991149632251961 31.115270777857329 11.135196988506376 #
vertex $-1 $667 $708 #
straight-curve $-1 69.991149632251961 31.115270777857329 0 0 0 -1 I I #
plane-surface $-1 69.991149632251961 0 0 -1 0 0 0 0 1 forward_v I I I I #
face $-1 $709 $710 $19 $-1 $711 reversed single #
loop $-1 $-1 $682 $632 #
plane-surface $-1 0 0 -11.135196988506376 0 0 1 1 0 0 forward_v I I I I #
coedge $-1 $635 $634 $712 $713 reversed $500 $-1 #
edge $-1 $714 -37.815822488589113 $685 -26.53483179873659 $647 $715 forward 7 unknown #
coedge $-1 $716 $717 $635 $683 forward $678 $-1 #
edge $-1 $686 26.53483179873659 $718 37.815822488589113 $682 $719 forward 7 unknown #
coedge $-1 $650 $636 $717 $720 reversed $574 $-1 #
vertex $-1 $681 $721 #
vertex $-1 $683 $722 #
straight-curve $-1 -58.710158942399438 -24.981278264598938 0 0 0 -1 I I #
coedge $-1 $640 $638 $723 $724 reversed $416 $-1 #
edge $-1 $651 -5.8135860067404836 $725 11.135196988506376 $638 $726 forward 7 unknown #
straight-curve $-1 -21.032228574353141 -31.115270777857329 5.8135860067404819 -1 0 0 I I #
coedge $-1 $727 $643 $640 $692 forward $697 $-1 #
edge $-1 $645 -11.135196988506376 $728 11.135196988506376 $691 $729 forward 7 unknown #
coedge $-1 $647 $642 $730 $731 forward $508 $-1 #
coedge $-1 $732 $733 $642 $695 reversed $734 $-1 #
edge $-1 $698 -69.991149632251961 $735 69.991149632251961 $694 $736 forward 7 unknown #
coedge $-1 $643 $727 $732 $737 reversed $697 $-1 #
loop $-1 $-1 $691 $738 #
vertex $-1 $644 $739 #
straight-curve $-1 69.991149632251961 0 11.135196988506376 0 1 0 I I #
point $-1 69.991149632251961 -31.115270777857329 11.135196988506376 #
straight-curve $-1 -58.710158942399438 -14.024137260614067 11.135196988506376 0 -1 0 I I #
point $-1 -58.710158942399438 -31.115270777857329 5.8135860067404836 #
edge $-1 $704 -69.991149632251961 $674 69.991149632251961 $671 $740 forward 7 unknown #
vertex $-1 $703 $741 #
straight-curve $-1 -69.991149632251961 0 -11.135196988506376 0 1 0 I I #
straight-curve $-1 69.991149632251961 0 -11.135196988506376 0 -1 0 I I #
straight-curve $-1 -69.991149632251961 31.115270777857329 0 0 0 -1 I I #
point $-1 69.991149632251961 31.115270777857329 -11.135196988506376 #
face $-1 $738 $734 $19 $-1 $742 reversed single #
loop $-1 $-1 $712 $677 #
plane-surface $-1 -69.991149632251961 0 0 1 0 0 0 0 -1 forward_v I I I I #
coedge $-1 $730 $743 $680 $713 forward $710 $-1 #
edge $-1 $718 -11.135196988506376 $714 11.135196988506376 $712 $744 forward 7 unknown #
vertex $-1 $713 $745 #
straight-curve $-1 -32.175327143662848 -24.981278264598938 11.135196988506376 1 0 0 I I #
coedge $-1 $746 $682 $743 $747 forward $678 $-1 #
coedge $-1 $682 $723 $684 $720 forward $678 $-1 #
vertex $-1 $747 $748 #
straight-curve $-1 -32.175327143662848 -24.981278264598938 -11.135196988506376 -1 0 0 I I #
edge $-1 $725 -17.091133517243264 $686 -10.957141003984871 $717 $749 forward 7 unknown #
point $-1 -58.710158942399438 -24.981278264598938 11.135196988506376 #
point $-1 -58.710158942399438 -24.981278264598938 -11.135196988506376 #
coedge $-1 $717 $750 $688 $724 forward $678 $-1 #
edge $-1 $728 -69.991149632251961 $725 58.710158942399438 $688 $751 forward 7 unknown #
vertex $-1 $689 $752 #
straight-curve $-1 -58.710158942399438 -31.115270777857329 0 0 0 -1 I I #
coedge $-1 $696 $691 $750 $753 reversed $697 $-1 #
vertex $-1 $692 $754 #
straight-curve $-1 69.991149632251961 -31.115270777857329 0 0 0 -1 I I #
coedge $-1 $755 $712 $693 $731 reversed $710 $-1 #
edge $-1 $735 -31.115270777857329 $714 24.981278264598938 $730 $756 forward 7 unknown #
coedge $-1 $757 $694 $696 $737 forward $734 $-1 #
coedge $-1 $694 $757 $755 $758 reversed $734 $-1 #
loop $-1 $-1 $732 $709 #
vertex $-1 $695 $759 #
straight-curve $-1 0 31.115270777857329 11.135196988506376 -1 0 0 I I #
edge $-1 $698 -11.135196988506376 $760 11.135196988506376 $696 $761 forward 7 unknown #
face $-1 $-1 $697 $19 $-1 $762 reversed single #
point $-1 69.991149632251961 31.115270777857329 11.135196988506376 #
straight-curve $-1 0 31.115270777857329 -11.135196988506376 1 0 0 I I #
point $-1 -69.991149632251961 31.115270777857329 -11.135196988506376 #
plane-surface $-1 0 31.115270777857329 0 0 -1 0 0 0 -1 forward_v I I I I #
coedge $-1 $712 $755 $716 $747 reversed $710 $-1 #
straight-curve $-1 -69.991149632251961 -24.981278264598938 0 0 0 1 I I #
point $-1 -69.991149632251961 -24.981278264598938 11.135196988506376 #
coedge $-1 $750 $716 $757 $763 forward $678 $-1 #
edge $-1 $718 -24.981278264598938 $764 31.115270777857329 $743 $765 forward 7 unknown #
point $-1 -69.991149632251961 -24.981278264598938 -11.135196988506376 #
straight-curve $-1 -58.710158942399438 -14.024137260614067 -11.135196988506376 0 1 0 I I #
coedge $-1 $723 $746 $727 $753 forward $678 $-1 #
straight-curve $-1 0 -31.115270777857329 -11.135196988506376 -1 0 0 I I #
point $-1 -58.710158942399438 -31.115270777857329 -11.135196988506376 #
edge $-1 $760 -31.115270777857329 $728 31.115270777857329 $727 $766 forward 7 unknown #
point $-1 69.991149632251961 -31.115270777857329 -11.135196988506376 #
coedge $-1 $743 $730 $733 $758 forward $710 $-1 #
straight-curve $-1 -69.991149632251961 0 11.135196988506376 0 -1 0 I I #
coedge $-1 $733 $732 $746 $763 reversed $734 $-1 #
edge $-1 $735 -11.135196988506376 $764 11.135196988506376 $733 $767 forward 7 unknown #
point $-1 -69.991149632251961 31.115270777857329 11.135196988506376 #
vertex $-1 $753 $768 #
straight-curve $-1 69.991149632251961 31.115270777857329 0 0 0 -1 I I #
plane-surface $-1 69.991149632251961 0 0 -1 0 0 0 0 1 forward_v I I I I #
edge $-1 $764 -69.991149632251961 $760 69.991149632251961 $757 $769 forward 7 unknown #
vertex $-1 $763 $770 #
straight-curve $-1 -69.991149632251961 0 -11.135196988506376 0 1 0 I I #
straight-curve $-1 69.991149632251961 0 -11.135196988506376 0 -1 0 I I #
straight-curve $-1 -69.991149632251961 31.115270777857329 0 0 0 -1 I I #
point $-1 69.991149632251961 31.115270777857329 -11.135196988506376 #
straight-curve $-1 0 31.115270777857329 -11.135196988506376 1 0 0 I I #
point $-1 -69.991149632251961 31.115270777857329 -11.135196988506376 #
End-of-ACIS-data 