500 0 17 0           
7 Unknown 11 ACIS 5.0 NT 24 Fri Mar 26 17:39:57 1999 
-1 9.9999999999999995e-007 1e-010 
body $-1 $17 $-1 $18 #
body $-1 $19 $-1 $20 #
body $-1 $21 $-1 $22 #
body $-1 $23 $-1 $24 #
body $-1 $25 $-1 $26 #
body $-1 $27 $-1 $28 #
body $-1 $29 $-1 $30 #
body $-1 $31 $-1 $32 #
body $-1 $33 $-1 $34 #
body $-1 $35 $-1 $36 #
body $-1 $37 $-1 $38 #
body $-1 $39 $-1 $40 #
body $-1 $41 $-1 $42 #
body $-1 $43 $-1 $44 #
body $-1 $45 $-1 $46 #
body $-1 $47 $-1 $48 #
body $-1 $49 $-1 $50 #
lump $-1 $-1 $51 $0 #
transform $-1 1 0 0 0 1 0 0 0 1 73.506881923886837 33.633879512822141 9.1314540706813894 1 rotate no_reflect no_shear #
lump $-1 $-1 $52 $1 #
transform $-1 1 0 0 0 1 0 0 0 1 73.506881923886837 33.633879512822141 9.1314540706813894 1 rotate no_reflect no_shear #
lump $-1 $-1 $53 $2 #
transform $-1 1 0 0 0 1 0 0 0 1 73.506881923886837 33.633879512822141 9.1314540706813894 1 rotate no_reflect no_shear #
lump $-1 $-1 $54 $3 #
transform $-1 1 0 0 0 1 0 0 0 1 73.506881923886837 33.633879512822141 9.1314540706813894 1 rotate no_reflect no_shear #
lump $-1 $-1 $55 $4 #
transform $-1 1 0 0 0 1 0 0 0 1 73.506881923886837 33.633879512822141 9.1314540706813894 1 rotate no_reflect no_shear #
lump $-1 $-1 $56 $5 #
transform $-1 1 0 0 0 1 0 0 0 1 73.506881923886837 33.633879512822141 9.1314540706813894 1 rotate no_reflect no_shear #
lump $-1 $-1 $57 $6 #
transform $-1 1 0 0 0 1 0 0 0 1 73.506881923886837 33.633879512822141 9.1314540706813894 1 rotate no_reflect no_shear #
lump $-1 $-1 $58 $7 #
transform $-1 1 0 0 0 1 0 0 0 1 73.506881923886837 33.633879512822141 9.1314540706813894 1 rotate no_reflect no_shear #
lump $-1 $-1 $59 $8 #
transform $-1 1 0 0 0 1 0 0 0 1 73.506881923886837 33.633879512822141 9.1314540706813894 1 rotate no_reflect no_shear #
lump $-1 $-1 $60 $9 #
transform $-1 1 0 0 0 1 0 0 0 1 73.506881923886837 33.633879512822141 9.1314540706813894 1 rotate no_reflect no_shear #
lump $-1 $-1 $61 $10 #
transform $-1 1 0 0 0 1 0 0 0 1 73.506881923886837 33.633879512822141 9.1314540706813894 1 rotate no_reflect no_shear #
lump $-1 $-1 $62 $11 #
transform $-1 1 0 0 0 1 0 0 0 1 73.506881923886837 33.633879512822141 9.1314540706813894 1 rotate no_reflect no_shear #
lump $-1 $-1 $63 $12 #
transform $-1 1 0 0 0 1 0 0 0 1 73.506881923886837 33.633879512822141 9.1314540706813894 1 rotate no_reflect no_shear #
lump $-1 $-1 $64 $13 #
transform $-1 1 0 0 0 1 0 0 0 1 73.506881923886837 33.633879512822141 9.1314540706813894 1 rotate no_reflect no_shear #
lump $-1 $-1 $65 $14 #
transform $-1 1 0 0 0 1 0 0 0 1 73.506881923886837 33.633879512822141 9.1314540706813894 1 rotate no_reflect no_shear #
lump $-1 $-1 $66 $15 #
transform $-1 1 0 0 0 1 0 0 0 1 73.506881923886837 33.633879512822141 9.1314540706813894 1 rotate no_reflect no_shear #
lump $-1 $-1 $67 $16 #
transform $-1 1 0 0 0 1 0 0 0 1 73.506881923886837 33.633879512822141 9.1314540706813894 1 rotate no_reflect no_shear #
shell $-1 $-1 $-1 $68 $-1 $17 #
shell $-1 $-1 $-1 $69 $-1 $19 #
shell $-1 $-1 $-1 $70 $-1 $21 #
shell $-1 $-1 $-1 $71 $-1 $23 #
shell $-1 $-1 $-1 $72 $-1 $25 #
shell $-1 $-1 $-1 $73 $-1 $27 #
shell $-1 $-1 $-1 $74 $-1 $29 #
shell $-1 $-1 $-1 $75 $-1 $31 #
shell $-1 $-1 $-1 $76 $-1 $33 #
shell $-1 $-1 $-1 $77 $-1 $35 #
shell $-1 $-1 $-1 $78 $-1 $37 #
shell $-1 $-1 $-1 $79 $-1 $39 #
shell $-1 $-1 $-1 $80 $-1 $41 #
shell $-1 $-1 $-1 $81 $-1 $43 #
shell $-1 $-1 $-1 $82 $-1 $45 #
shell $-1 $-1 $-1 $83 $-1 $47 #
shell $-1 $-1 $-1 $84 $-1 $49 #
face $-1 $85 $86 $51 $-1 $87 reversed single #
face $-1 $88 $89 $52 $-1 $90 forward single #
face $-1 $91 $92 $53 $-1 $93 forward single #
face $-1 $94 $95 $54 $-1 $96 reversed single #
face $-1 $97 $98 $55 $-1 $99 forward single #
face $-1 $100 $101 $56 $-1 $102 forward single #
face $-1 $103 $104 $57 $-1 $105 reversed single #
face $-1 $106 $107 $58 $-1 $108 forward single #
face $-1 $109 $110 $59 $-1 $111 forward single #
face $-1 $112 $113 $60 $-1 $114 reversed single #
face $-1 $115 $116 $61 $-1 $117 forward single #
face $-1 $118 $119 $62 $-1 $120 forward single #
face $-1 $121 $122 $63 $-1 $123 reversed single #
face $-1 $124 $125 $64 $-1 $126 forward single #
face $-1 $127 $128 $65 $-1 $129 forward single #
face $-1 $130 $131 $66 $-1 $132 reversed single #
face $-1 $133 $134 $67 $-1 $135 forward single #
face $-1 $136 $137 $51 $-1 $138 forward single #
loop $-1 $-1 $139 $68 #
plane-surface $-1 73.506881923886837 0 0 -1 0 0 0 0 1 forward_v I I I I #
face $-1 $140 $141 $52 $-1 $142 reversed single #
loop $-1 $-1 $143 $69 #
plane-surface $-1 -70.374592807896832 0 6.0972283027599214 0 0 1 1 0 0 forward_v I I I I #
face $-1 $144 $145 $53 $-1 $146 reversed single #
loop $-1 $-1 $147 $70 #
plane-surface $-1 73.506881923886837 0 0 -1 0 0 0 0 1 forward_v I I I I #
face $-1 $148 $149 $54 $-1 $150 reversed single #
loop $-1 $-1 $151 $71 #
plane-surface $-1 -64.471223170032786 -162.21501571580791 72.017124039685839 1 0 0 0 0.87461971476443456 -0.48480960649040278 forward_v I I I I #
face $-1 $152 $153 $55 $-1 $154 forward single #
loop $-1 $155 $156 $72 #
cone-surface $-1 -58.252925457801787 -27.825198293542343 3.0062865633129907 0 0.87461971476443456 -0.48480960649040278 2 0 0 1 I I 0 1 2 forward I I I I #
face $-1 $157 $158 $56 $-1 $159 forward single #
loop $-1 $160 $161 $73 #
cone-surface $-1 -48.925478889455277 -27.825198293542343 3.0062865633129907 0 0.87461971476443456 -0.48480960649040278 2 0 0 1 I I 0 1 2 forward I I I I #
face $-1 $162 $163 $57 $-1 $164 reversed single #
loop $-1 $-1 $165 $74 #
plane-surface $-1 -30.833701756767397 -162.21501571580791 72.017124039685839 1 0 0 0 0.87461971476443456 -0.48480960649040278 forward_v I I I I #
face $-1 $166 $167 $58 $-1 $168 forward single #
loop $-1 $169 $170 $75 #
cone-surface $-1 -24.61540404453639 -27.825198293542343 3.0062865633129907 0 0.87461971476443456 -0.48480960649040278 2 0 0 1 I I 0 1 2 forward I I I I #
face $-1 $171 $172 $59 $-1 $173 forward single #
loop $-1 $174 $175 $76 #
cone-surface $-1 -15.287957476189881 -27.825198293542343 3.0062865633129907 0 0.87461971476443456 -0.48480960649040278 2 0 0 1 I I 0 1 2 forward I I I I #
face $-1 $176 $177 $60 $-1 $178 reversed single #
loop $-1 $-1 $179 $77 #
plane-surface $-1 2.8038196564979945 -162.21501571580791 72.017124039685839 1 0 0 0 0.87461971476443456 -0.48480960649040278 forward_v I I I I #
face $-1 $180 $181 $61 $-1 $182 forward single #
loop $-1 $183 $184 $78 #
cone-surface $-1 9.0221173687290133 -27.825198293542343 3.0062865633129907 0 0.87461971476443456 -0.48480960649040278 2 0 0 1 I I 0 1 2 forward I I I I #
face $-1 $185 $186 $62 $-1 $187 forward single #
loop $-1 $188 $189 $79 #
cone-surface $-1 18.349563937075516 -27.825198293542343 3.0062865633129907 0 0.87461971476443456 -0.48480960649040278 2 0 0 1 I I 0 1 2 forward I I I I #
face $-1 $190 $191 $63 $-1 $192 reversed single #
loop $-1 $-1 $193 $80 #
plane-surface $-1 36.441341069763396 -162.21501571580791 72.017124039685839 1 0 0 0 0.87461971476443456 -0.48480960649040278 forward_v I I I I #
face $-1 $194 $195 $64 $-1 $196 forward single #
loop $-1 $197 $198 $81 #
cone-surface $-1 42.659638781994417 -27.825198293542343 3.0062865633129907 0 0.87461971476443456 -0.48480960649040278 2 0 0 1 I I 0 1 2 forward I I I I #
face $-1 $199 $200 $65 $-1 $201 forward single #
loop $-1 $202 $203 $82 #
cone-surface $-1 51.987085350340905 -27.825198293542343 3.0062865633129907 0 0.87461971476443456 -0.48480960649040278 2 0 0 1 I I 0 1 2 forward I I I I #
face $-1 $204 $205 $66 $-1 $206 reversed single #
loop $-1 $-1 $207 $83 #
plane-surface $-1 -53.064591947336794 90.022822053102658 153.1097128940026 -1 0 0 0 0.70710678939079041 0.70710677298230451 forward_v I I I I #
face $-1 $208 $209 $67 $-1 $210 forward single #
loop $-1 $211 $212 $84 #
cone-surface $-1 -60.153447819621803 28.365517024424239 3.8630915295314132 0 -0.70710678939079041 -0.70710677298230451 2.5 0 0 1 I I 0 1 2.5 forward I I I I #
face $-1 $213 $214 $51 $-1 $215 reversed single #
loop $-1 $-1 $216 $85 #
plane-surface $-1 0 0 9.1314540706813894 0 0 1 1 0 0 forward_v I I I I #
coedge $-1 $217 $218 $219 $220 reversed $86 $-1 #
face $-1 $221 $222 $52 $-1 $223 reversed single #
loop $-1 $-1 $224 $88 #
plane-surface $-1 -70.374592807896832 0 0.90762400590506864 0 0 1 1 0 0 forward_v I I I I #
coedge $-1 $225 $226 $227 $228 forward $89 $-1 #
face $-1 $229 $230 $53 $-1 $231 forward single #
loop $-1 $-1 $232 $91 #
plane-surface $-1 0 33.633879512822141 0 0 -1 0 0 0 -1 forward_v I I I I #
coedge $-1 $233 $234 $235 $236 forward $92 $-1 #
face $-1 $237 $238 $54 $-1 $239 reversed single #
loop $-1 $-1 $240 $94 #
plane-surface $-1 -53.589202173628529 -33.633879512822148 0.74343903997367988 0 -0.87461971476443456 0.48480960649040278 1 0 0 forward_v I I I I #
coedge $-1 $241 $242 $243 $244 reversed $95 $-1 #
face $-1 $-1 $245 $55 $-1 $246 forward single #
loop $-1 $247 $248 $97 #
cone-surface $-1 -58.252925457801787 -23.46667360088907 0.59031696480804996 0 0.87461971476443456 -0.48480960649040278 1 0 0 1 I I -0.70710678118654735 0.70710678118654768 1 forward I I I I #
loop $-1 $-1 $249 $72 #
coedge $-1 $156 $156 $250 $251 reversed $98 $-1 #
face $-1 $-1 $252 $56 $-1 $253 forward single #
loop $-1 $254 $255 $100 #
cone-surface $-1 -48.925478889455277 -23.46667360088907 0.59031696480804996 0 0.87461971476443456 -0.48480960649040278 1 0 0 1 I I -0.70710678118654735 0.70710678118654768 1 forward I I I I #
loop $-1 $-1 $256 $73 #
coedge $-1 $161 $161 $257 $258 reversed $101 $-1 #
face $-1 $259 $260 $57 $-1 $261 reversed single #
loop $-1 $-1 $262 $103 #
plane-surface $-1 -19.951680760363132 -33.633879512822148 0.74343903997367988 0 -0.87461971476443456 0.48480960649040278 1 0 0 forward_v I I I I #
coedge $-1 $263 $264 $265 $266 reversed $104 $-1 #
face $-1 $-1 $267 $58 $-1 $268 forward single #
loop $-1 $269 $270 $106 #
cone-surface $-1 -24.61540404453639 -23.46667360088907 0.59031696480804996 0 0.87461971476443456 -0.48480960649040278 1 0 0 1 I I -0.70710678118654735 0.70710678118654768 1 forward I I I I #
loop $-1 $-1 $271 $75 #
coedge $-1 $170 $170 $272 $273 reversed $107 $-1 #
face $-1 $-1 $274 $59 $-1 $275 forward single #
loop $-1 $276 $277 $109 #
cone-surface $-1 -15.287957476189881 -23.46667360088907 0.59031696480804996 0 0.87461971476443456 -0.48480960649040278 1 0 0 1 I I -0.70710678118654735 0.70710678118654768 1 forward I I I I #
loop $-1 $-1 $278 $76 #
coedge $-1 $175 $175 $279 $280 reversed $110 $-1 #
face $-1 $281 $282 $60 $-1 $283 reversed single #
loop $-1 $-1 $284 $112 #
plane-surface $-1 13.685840652902257 -33.633879512822148 0.74343903997367988 0 -0.87461971476443456 0.48480960649040278 1 0 0 forward_v I I I I #
coedge $-1 $285 $286 $287 $288 reversed $113 $-1 #
face $-1 $-1 $289 $61 $-1 $290 forward single #
loop $-1 $291 $292 $115 #
cone-surface $-1 9.0221173687290133 -23.46667360088907 0.59031696480804996 0 0.87461971476443456 -0.48480960649040278 1 0 0 1 I I -0.70710678118654735 0.70710678118654768 1 forward I I I I #
loop $-1 $-1 $293 $78 #
coedge $-1 $184 $184 $294 $295 reversed $116 $-1 #
face $-1 $-1 $296 $62 $-1 $297 forward single #
loop $-1 $298 $299 $118 #
cone-surface $-1 18.349563937075516 -23.46667360088907 0.59031696480804996 0 0.87461971476443456 -0.48480960649040278 1 0 0 1 I I -0.70710678118654735 0.70710678118654768 1 forward I I I I #
loop $-1 $-1 $300 $79 #
coedge $-1 $189 $189 $301 $302 reversed $119 $-1 #
face $-1 $303 $304 $63 $-1 $305 reversed single #
loop $-1 $-1 $306 $121 #
plane-surface $-1 47.323362066167661 -33.633879512822148 0.74343903997367988 0 -0.87461971476443456 0.48480960649040278 1 0 0 forward_v I I I I #
coedge $-1 $307 $308 $309 $310 reversed $122 $-1 #
face $-1 $-1 $311 $64 $-1 $312 forward single #
loop $-1 $313 $314 $124 #
cone-surface $-1 42.659638781994417 -23.46667360088907 0.59031696480804996 0 0.87461971476443456 -0.48480960649040278 1 0 0 1 I I -0.70710678118654735 0.70710678118654768 1 forward I I I I #
loop $-1 $-1 $315 $81 #
coedge $-1 $198 $198 $316 $317 reversed $125 $-1 #
face $-1 $-1 $318 $65 $-1 $319 forward single #
loop $-1 $320 $321 $127 #
cone-surface $-1 51.987085350340905 -23.46667360088907 0.59031696480804996 0 0.87461971476443456 -0.48480960649040278 1 0 0 1 I I -0.70710678118654735 0.70710678118654768 1 forward I I I I #
loop $-1 $-1 $322 $82 #
coedge $-1 $203 $203 $323 $324 reversed $128 $-1 #
face $-1 $325 $326 $66 $-1 $327 forward single #
loop $-1 $-1 $328 $130 #
plane-surface $-1 -60.153447819621803 -13.931608497552446 49.155284755620769 0 0.70710678939079041 0.70710677298230451 1 0 0 forward_v I I I I #
coedge $-1 $329 $330 $331 $332 reversed $131 $-1 #
face $-1 $-1 $333 $67 $-1 $334 forward single #
loop $-1 $335 $336 $133 #
cone-surface $-1 -60.153447819621803 25.984100176384018 1.4816747367522147 0 -0.70710678939079041 -0.70710677298230451 1.25 0 0 1 I I -0.70710678118654746 0.70710678118654746 1.25 forward I I I I #
loop $-1 $-1 $337 $84 #
coedge $-1 $212 $212 $338 $339 reversed $134 $-1 #
face $-1 $340 $341 $51 $-1 $342 reversed single #
loop $-1 $-1 $343 $136 #
plane-surface $-1 0 0 -9.1314540706813894 0 0 1 1 0 0 forward_v I I I I #
coedge $-1 $344 $345 $217 $346 forward $137 $-1 #
coedge $-1 $347 $139 $216 $346 reversed $86 $-1 #
coedge $-1 $139 $347 $343 $348 reversed $86 $-1 #
coedge $-1 $349 $350 $139 $220 forward $351 $-1 #
edge $-1 $352 -9.1314540706813894 $353 9.1314540706813894 $139 $354 forward 7 unknown #
face $-1 $355 $356 $52 $-1 $357 reversed single #
loop $-1 $-1 $227 $140 #
plane-surface $-1 -67.242303691906827 0 3.502426154332495 -1 0 0 0 0 1 forward_v I I I I #
coedge $-1 $358 $359 $360 $361 forward $141 $-1 #
coedge $-1 $362 $143 $363 $364 reversed $89 $-1 #
coedge $-1 $143 $362 $365 $366 reversed $89 $-1 #
coedge $-1 $367 $368 $143 $228 reversed $222 $-1 #
edge $-1 $369 -33.633879512822141 $370 33.633879512822141 $227 $371 forward 7 unknown #
face $-1 $372 $373 $53 $-1 $374 reversed single #
loop $-1 $-1 $375 $144 #
plane-surface $-1 76.606431905252876 0 7.1363512554342998 0 0 1 1 0 0 forward_v I I I I #
coedge $-1 $376 $377 $234 $378 forward $145 $-1 #
coedge $-1 $379 $147 $380 $381 reversed $92 $-1 #
coedge $-1 $147 $379 $232 $378 reversed $92 $-1 #
coedge $-1 $382 $383 $147 $236 reversed $373 $-1 #
edge $-1 $384 -33.633879512822141 $385 33.633879512822141 $235 $386 forward 7 unknown #
face $-1 $387 $388 $54 $-1 $389 forward single #
loop $-1 $-1 $390 $148 #
plane-surface $-1 -42.707181177224264 -162.21501571580791 72.017124039685839 -1 0 0 0 -0.87461971476443456 0.48480960649040278 forward_v I I I I #
coedge $-1 $391 $392 $393 $394 reversed $149 $-1 #
coedge $-1 $242 $151 $395 $396 reversed $95 $-1 #
coedge $-1 $151 $241 $391 $397 reversed $95 $-1 #
coedge $-1 $393 $398 $151 $244 forward $399 $-1 #
edge $-1 $400 26.87710794916153 $401 35.265122979869226 $243 $402 forward 7 unknown #
loop $-1 $-1 $250 $152 #
plane-surface $-1 -53.589202173628529 -33.633879512822148 0.74343903997367988 0 -0.87461971476443456 0.48480960649040278 1 0 0 forward_v I I I I #
loop $-1 $-1 $403 $97 #
coedge $-1 $248 $248 $249 $404 reversed $153 $-1 #
coedge $-1 $249 $249 $248 $404 forward $155 $-1 #
coedge $-1 $250 $250 $156 $251 forward $245 $-1 #
edge $-1 $405 2.5312951259436396e-016 $405 6.2831853071796004 $250 $406 forward 7 unknown #
loop $-1 $-1 $257 $157 #
plane-surface $-1 -53.589202173628529 -33.633879512822148 0.74343903997367988 0 -0.87461971476443456 0.48480960649040278 1 0 0 forward_v I I I I #
loop $-1 $-1 $407 $100 #
coedge $-1 $255 $255 $256 $408 reversed $158 $-1 #
coedge $-1 $256 $256 $255 $408 forward $160 $-1 #
coedge $-1 $257 $257 $161 $258 forward $252 $-1 #
edge $-1 $409 2.5312951259436396e-016 $409 6.2831853071796004 $257 $410 forward 7 unknown #
face $-1 $411 $412 $57 $-1 $413 reversed single #
loop $-1 $-1 $414 $162 #
plane-surface $-1 -9.0696597639588692 -162.21501571580791 72.017124039685839 -1 0 0 0 -0.87461971476443456 0.48480960649040278 forward_v I I I I #
coedge $-1 $415 $416 $417 $418 reversed $163 $-1 #
coedge $-1 $264 $165 $419 $420 reversed $104 $-1 #
coedge $-1 $165 $263 $415 $421 reversed $104 $-1 #
coedge $-1 $417 $422 $165 $266 forward $412 $-1 #
edge $-1 $423 26.87710794916153 $424 35.265122979869226 $265 $425 forward 7 unknown #
loop $-1 $-1 $272 $166 #
plane-surface $-1 -19.951680760363132 -33.633879512822148 0.74343903997367988 0 -0.87461971476443456 0.48480960649040278 1 0 0 forward_v I I I I #
loop $-1 $-1 $426 $106 #
coedge $-1 $270 $270 $271 $427 reversed $167 $-1 #
coedge $-1 $271 $271 $270 $427 forward $169 $-1 #
coedge $-1 $272 $272 $170 $273 forward $267 $-1 #
edge $-1 $428 2.5312951259436396e-016 $428 6.2831853071796004 $272 $429 forward 7 unknown #
loop $-1 $-1 $279 $171 #
plane-surface $-1 -19.951680760363132 -33.633879512822148 0.74343903997367988 0 -0.87461971476443456 0.48480960649040278 1 0 0 forward_v I I I I #
loop $-1 $-1 $430 $109 #
coedge $-1 $277 $277 $278 $431 reversed $172 $-1 #
coedge $-1 $278 $278 $277 $431 forward $174 $-1 #
coedge $-1 $279 $279 $175 $280 forward $274 $-1 #
edge $-1 $432 2.5312951259436396e-016 $432 6.2831853071796004 $279 $433 forward 7 unknown #
face $-1 $434 $435 $60 $-1 $436 reversed single #
loop $-1 $-1 $437 $176 #
plane-surface $-1 24.567861649306522 -162.21501571580791 72.017124039685839 -1 0 0 0 -0.87461971476443456 0.48480960649040278 forward_v I I I I #
coedge $-1 $438 $439 $440 $441 reversed $177 $-1 #
coedge $-1 $286 $179 $442 $443 reversed $113 $-1 #
coedge $-1 $179 $285 $438 $444 reversed $113 $-1 #
coedge $-1 $440 $445 $179 $288 forward $435 $-1 #
edge $-1 $446 26.87710794916153 $447 35.265122979869226 $287 $448 forward 7 unknown #
loop $-1 $-1 $294 $180 #
plane-surface $-1 13.685840652902257 -33.633879512822148 0.74343903997367988 0 -0.87461971476443456 0.48480960649040278 1 0 0 forward_v I I I I #
loop $-1 $-1 $449 $115 #
coedge $-1 $292 $292 $293 $450 reversed $181 $-1 #
coedge $-1 $293 $293 $292 $450 forward $183 $-1 #
coedge $-1 $294 $294 $184 $295 forward $289 $-1 #
edge $-1 $451 2.5312951259436396e-016 $451 6.2831853071796004 $294 $452 forward 7 unknown #
loop $-1 $-1 $301 $185 #
plane-surface $-1 13.685840652902257 -33.633879512822148 0.74343903997367988 0 -0.87461971476443456 0.48480960649040278 1 0 0 forward_v I I I I #
loop $-1 $-1 $453 $118 #
coedge $-1 $299 $299 $300 $454 reversed $186 $-1 #
coedge $-1 $300 $300 $299 $454 forward $188 $-1 #
coedge $-1 $301 $301 $189 $302 forward $296 $-1 #
edge $-1 $455 2.5312951259436396e-016 $455 6.2831853071796004 $301 $456 forward 7 unknown #
face $-1 $457 $458 $63 $-1 $459 reversed single #
loop $-1 $-1 $460 $190 #
plane-surface $-1 58.205383062571926 -162.21501571580791 72.017124039685839 -1 0 0 0 -0.87461971476443456 0.48480960649040278 forward_v I I I I #
coedge $-1 $461 $462 $463 $464 reversed $191 $-1 #
coedge $-1 $308 $193 $465 $466 reversed $122 $-1 #
coedge $-1 $193 $307 $461 $467 reversed $122 $-1 #
coedge $-1 $463 $468 $193 $310 forward $458 $-1 #
edge $-1 $469 26.87710794916153 $470 35.265122979869226 $309 $471 forward 7 unknown #
loop $-1 $-1 $316 $194 #
plane-surface $-1 47.323362066167661 -33.633879512822148 0.74343903997367988 0 -0.87461971476443456 0.48480960649040278 1 0 0 forward_v I I I I #
loop $-1 $-1 $472 $124 #
coedge $-1 $314 $314 $315 $473 reversed $195 $-1 #
coedge $-1 $315 $315 $314 $473 forward $197 $-1 #
coedge $-1 $316 $316 $198 $317 forward $311 $-1 #
edge $-1 $474 2.5312951259436396e-016 $474 6.2831853071796004 $316 $475 forward 7 unknown #
loop $-1 $-1 $323 $199 #
plane-surface $-1 47.323362066167661 -33.633879512822148 0.74343903997367988 0 -0.87461971476443456 0.48480960649040278 1 0 0 forward_v I I I I #
loop $-1 $-1 $476 $127 #
coedge $-1 $321 $321 $322 $477 reversed $200 $-1 #
coedge $-1 $322 $322 $321 $477 forward $202 $-1 #
coedge $-1 $323 $323 $203 $324 forward $318 $-1 #
edge $-1 $478 2.5312951259436396e-016 $478 6.2831853071796004 $323 $479 forward 7 unknown #
face $-1 $480 $481 $66 $-1 $482 forward single #
loop $-1 $-1 $483 $204 #
plane-surface $-1 0 0 9.1314540706813894 0 0 1 1 0 0 forward_v I I I I #
coedge $-1 $484 $485 $486 $487 reversed $205 $-1 #
coedge $-1 $330 $207 $488 $489 reversed $131 $-1 #
coedge $-1 $207 $329 $484 $490 reversed $131 $-1 #
coedge $-1 $486 $491 $207 $332 forward $492 $-1 #
edge $-1 $493 67.423402376319913 $494 74.965060805517197 $331 $495 forward 7 unknown #
loop $-1 $-1 $338 $208 #
plane-surface $-1 -60.153447819621803 -13.931608497552446 49.155284755620769 0 0.70710678939079041 0.70710677298230451 1 0 0 forward_v I I I I #
loop $-1 $-1 $496 $133 #
coedge $-1 $336 $336 $337 $497 reversed $209 $-1 #
coedge $-1 $337 $337 $336 $497 forward $211 $-1 #
coedge $-1 $338 $338 $212 $339 forward $333 $-1 #
edge $-1 $498 7.5364445886599247e-016 $498 6.2831853071796013 $338 $499 forward 7 unknown #
face $-1 $500 $501 $51 $-1 $502 reversed single #
loop $-1 $-1 $503 $213 #
plane-surface $-1 0 -33.633879512822141 0 0 1 0 0 0 1 forward_v I I I I #
coedge $-1 $504 $505 $218 $348 forward $214 $-1 #
coedge $-1 $506 $216 $350 $507 forward $137 $-1 #
coedge $-1 $216 $506 $508 $509 forward $137 $-1 #
edge $-1 $510 -33.633879512822141 $352 33.633879512822141 $217 $511 forward 7 unknown #
coedge $-1 $218 $217 $512 $513 forward $86 $-1 #
edge $-1 $353 -33.633879512822141 $514 33.633879512822141 $218 $515 forward 7 unknown #
coedge $-1 $516 $219 $505 $517 reversed $351 $-1 #
coedge $-1 $219 $516 $344 $507 reversed $351 $-1 #
loop $-1 $-1 $219 $500 #
vertex $-1 $346 $518 #
vertex $-1 $348 $519 #
straight-curve $-1 73.506881923886837 33.633879512822141 0 0 0 -1 I I #
face $-1 $520 $521 $52 $-1 $522 reversed single #
loop $-1 $-1 $523 $221 #
plane-surface $-1 0 -33.633879512822141 0 0 1 0 0 0 1 forward_v I I I I #
coedge $-1 $524 $224 $523 $525 reversed $141 $-1 #
coedge $-1 $224 $524 $526 $527 reversed $141 $-1 #
coedge $-1 $368 $367 $224 $361 reversed $222 $-1 #
edge $-1 $528 -33.633879512822141 $529 33.633879512822141 $360 $530 forward 7 unknown #
coedge $-1 $226 $225 $531 $532 reversed $89 $-1 #
coedge $-1 $533 $534 $225 $364 forward $535 $-1 #
edge $-1 $536 -38.319585519938421 $370 -32.055007287958411 $363 $537 forward 7 unknown #
coedge $-1 $538 $539 $226 $366 forward $356 $-1 #
edge $-1 $369 32.055007287958411 $540 38.319585519938421 $365 $541 forward 7 unknown #
coedge $-1 $360 $227 $539 $542 reversed $222 $-1 #
coedge $-1 $227 $360 $533 $543 reversed $222 $-1 #
vertex $-1 $366 $544 #
vertex $-1 $364 $545 #
straight-curve $-1 -67.242303691906827 0 6.0972283027599214 0 1 0 I I #
face $-1 $546 $547 $53 $-1 $548 reversed single #
loop $-1 $-1 $549 $229 #
plane-surface $-1 76.606431905252876 0 1.8521077849473349 0 0 1 1 0 0 forward_v I I I I #
coedge $-1 $550 $551 $552 $553 forward $230 $-1 #
coedge $-1 $554 $232 $550 $555 reversed $145 $-1 #
coedge $-1 $232 $554 $382 $556 reversed $145 $-1 #
edge $-1 $384 1.8521077849473349 $557 7.1363512554342998 $232 $558 forward 7 unknown #
coedge $-1 $234 $233 $559 $560 forward $92 $-1 #
coedge $-1 $561 $562 $233 $381 forward $563 $-1 #
edge $-1 $564 -7.1363512554342998 $385 -1.8521077849473349 $380 $565 forward 7 unknown #
coedge $-1 $549 $235 $377 $556 forward $373 $-1 #
coedge $-1 $235 $549 $561 $566 forward $373 $-1 #
vertex $-1 $378 $567 #
vertex $-1 $381 $568 #
straight-curve $-1 73.506881923886837 0 1.8521077849473349 0 -1 0 I I #
face $-1 $-1 $399 $54 $-1 $569 reversed single #
loop $-1 $-1 $570 $237 #
plane-surface $-1 0 0 9.1314540706813894 0 0 1 1 0 0 forward_v I I I I #
coedge $-1 $571 $572 $573 $574 reversed $238 $-1 #
coedge $-1 $575 $240 $242 $397 forward $149 $-1 #
coedge $-1 $240 $575 $571 $576 forward $149 $-1 #
coedge $-1 $573 $243 $240 $394 forward $399 $-1 #
edge $-1 $401 -37.676622083218518 $577 -15.91258009041 $393 $578 forward 7 unknown #
coedge $-1 $579 $580 $241 $396 forward $388 $-1 #
edge $-1 $581 -52.12318082786372 $400 -47.473628345081814 $395 $582 forward 7 unknown #
edge $-1 $401 1.4611543310094151e-014 $581 9.590471023131343 $242 $583 forward 7 unknown #
coedge $-1 $243 $573 $579 $584 reversed $399 $-1 #
loop $-1 $-1 $573 $387 #
vertex $-1 $584 $585 #
vertex $-1 $244 $586 #
straight-curve $-1 -64.471223170032786 -33.633879512822148 36.00856201984292 0 0 -1 I I #
coedge $-1 $403 $403 $-1 $587 reversed $247 $-1 #
edge $-1 $588 0 $588 6.2831853071796004 $248 $589 forward 7 unknown #
vertex $-1 $251 $590 #
ellipse-curve $-1 -58.252925457801787 -31.309103271431191 4.9374465553275337 0 -0.87461971476443456 0.48480960649040278 2 0 0 1 I I #
coedge $-1 $407 $407 $-1 $591 reversed $254 $-1 #
edge $-1 $592 0 $592 6.2831853071796004 $255 $593 forward 7 unknown #
vertex $-1 $258 $594 #
ellipse-curve $-1 -48.925478889455277 -31.309103271431191 4.9374465553275337 0 -0.87461971476443456 0.48480960649040278 2 0 0 1 I I #
face $-1 $-1 $595 $57 $-1 $596 forward single #
loop $-1 $-1 $265 $259 #
plane-surface $-1 0 -33.633879512822141 0 0 1 0 0 0 1 forward_v I I I I #
coedge $-1 $597 $598 $599 $600 reversed $260 $-1 #
coedge $-1 $601 $262 $264 $421 forward $163 $-1 #
coedge $-1 $262 $601 $597 $602 forward $163 $-1 #
coedge $-1 $599 $265 $262 $418 forward $412 $-1 #
edge $-1 $424 -20.857861376585831 $603 0.90618061622269686 $417 $604 forward 7 unknown #
coedge $-1 $605 $606 $263 $420 forward $595 $-1 #
edge $-1 $607 -52.12318082786372 $423 -47.473628345081814 $419 $608 forward 7 unknown #
edge $-1 $424 1.4611543310094151e-014 $607 9.590471023131343 $264 $609 forward 7 unknown #
coedge $-1 $265 $599 $605 $610 reversed $412 $-1 #
vertex $-1 $610 $611 #
vertex $-1 $266 $612 #
straight-curve $-1 -30.833701756767397 -33.633879512822148 36.00856201984292 0 0 -1 I I #
coedge $-1 $426 $426 $-1 $613 reversed $269 $-1 #
edge $-1 $614 0 $614 6.2831853071796004 $270 $615 forward 7 unknown #
vertex $-1 $273 $616 #
ellipse-curve $-1 -24.61540404453639 -31.309103271431191 4.9374465553275337 0 -0.87461971476443456 0.48480960649040278 2 0 0 1 I I #
coedge $-1 $430 $430 $-1 $617 reversed $276 $-1 #
edge $-1 $618 0 $618 6.2831853071796004 $277 $619 forward 7 unknown #
vertex $-1 $280 $620 #
ellipse-curve $-1 -15.287957476189881 -31.309103271431191 4.9374465553275337 0 -0.87461971476443456 0.48480960649040278 2 0 0 1 I I #
face $-1 $-1 $621 $60 $-1 $622 forward single #
loop $-1 $-1 $287 $281 #
plane-surface $-1 0 -33.633879512822141 0 0 1 0 0 0 1 forward_v I I I I #
coedge $-1 $623 $624 $625 $626 reversed $282 $-1 #
coedge $-1 $627 $284 $286 $444 forward $177 $-1 #
coedge $-1 $284 $627 $623 $628 forward $177 $-1 #
coedge $-1 $625 $287 $284 $441 forward $435 $-1 #
edge $-1 $447 -4.0391006699531342 $629 17.724941322855393 $440 $630 forward 7 unknown #
coedge $-1 $631 $632 $285 $443 forward $621 $-1 #
edge $-1 $633 -52.12318082786372 $446 -47.473628345081814 $442 $634 forward 7 unknown #
edge $-1 $447 1.4611543310094151e-014 $633 9.590471023131343 $286 $635 forward 7 unknown #
coedge $-1 $287 $625 $631 $636 reversed $435 $-1 #
vertex $-1 $636 $637 #
vertex $-1 $288 $638 #
straight-curve $-1 2.8038196564979945 -33.633879512822148 36.00856201984292 0 0 -1 I I #
coedge $-1 $449 $449 $-1 $639 reversed $291 $-1 #
edge $-1 $640 0 $640 6.2831853071796004 $292 $641 forward 7 unknown #
vertex $-1 $295 $642 #
ellipse-curve $-1 9.0221173687290133 -31.309103271431191 4.9374465553275337 0 -0.87461971476443456 0.48480960649040278 2 0 0 1 I I #
coedge $-1 $453 $453 $-1 $643 reversed $298 $-1 #
edge $-1 $644 0 $644 6.2831853071796004 $299 $645 forward 7 unknown #
vertex $-1 $302 $646 #
ellipse-curve $-1 18.349563937075516 -31.309103271431191 4.9374465553275337 0 -0.87461971476443456 0.48480960649040278 2 0 0 1 I I #
face $-1 $-1 $647 $63 $-1 $648 forward single #
loop $-1 $-1 $309 $303 #
plane-surface $-1 0 -33.633879512822141 0 0 1 0 0 0 1 forward_v I I I I #
coedge $-1 $649 $650 $651 $652 reversed $304 $-1 #
coedge $-1 $653 $306 $308 $467 forward $191 $-1 #
coedge $-1 $306 $653 $649 $654 forward $191 $-1 #
coedge $-1 $651 $309 $306 $464 forward $458 $-1 #
edge $-1 $470 12.779660036679566 $655 34.543702029488095 $463 $656 forward 7 unknown #
coedge $-1 $657 $658 $307 $466 forward $647 $-1 #
edge $-1 $659 -52.12318082786372 $469 -47.473628345081814 $465 $660 forward 7 unknown #
edge $-1 $470 1.4611543310094151e-014 $659 9.590471023131343 $308 $661 forward 7 unknown #
coedge $-1 $309 $651 $657 $662 reversed $458 $-1 #
vertex $-1 $662 $663 #
vertex $-1 $310 $664 #
straight-curve $-1 36.441341069763396 -33.633879512822148 36.00856201984292 0 0 -1 I I #
coedge $-1 $472 $472 $-1 $665 reversed $313 $-1 #
edge $-1 $666 0 $666 6.2831853071796004 $314 $667 forward 7 unknown #
vertex $-1 $317 $668 #
ellipse-curve $-1 42.659638781994417 -31.309103271431191 4.9374465553275337 0 -0.87461971476443456 0.48480960649040278 2 0 0 1 I I #
coedge $-1 $476 $476 $-1 $669 reversed $320 $-1 #
edge $-1 $670 0 $670 6.2831853071796004 $321 $671 forward 7 unknown #
vertex $-1 $324 $672 #
ellipse-curve $-1 51.987085350340905 -31.309103271431191 4.9374465553275337 0 -0.87461971476443456 0.48480960649040278 2 0 0 1 I I #
face $-1 $-1 $492 $66 $-1 $673 reversed single #
loop $-1 $-1 $674 $325 #
plane-surface $-1 -67.242303691906827 0 3.502426154332495 -1 0 0 0 0 1 forward_v I I I I #
coedge $-1 $675 $676 $677 $678 forward $326 $-1 #
coedge $-1 $679 $328 $330 $490 forward $205 $-1 #
coedge $-1 $328 $679 $674 $680 forward $205 $-1 #
coedge $-1 $681 $331 $328 $487 forward $492 $-1 #
edge $-1 $494 22.987868037525892 $682 37.165579782095925 $486 $683 forward 7 unknown #
coedge $-1 $676 $675 $329 $489 forward $326 $-1 #
edge $-1 $684 -18.919189767921509 $493 -11.377531513729188 $488 $685 forward 7 unknown #
edge $-1 $494 -67.267759025644253 $684 -56.60224351603528 $330 $686 forward 7 unknown #
coedge $-1 $331 $681 $676 $687 reversed $492 $-1 #
loop $-1 $-1 $681 $480 #
vertex $-1 $687 $688 #
vertex $-1 $332 $689 #
straight-curve $-1 -53.064591947336794 33.633879512822141 76.554856447001299 0 0 -1 I I #
coedge $-1 $496 $496 $-1 $690 reversed $335 $-1 #
edge $-1 $691 0 $691 6.2831853071796004 $336 $692 forward 7 unknown #
vertex $-1 $339 $693 #
ellipse-curve $-1 -60.153447819621803 29.863050385725984 5.3606248560827439 0 0.70710678939079041 0.70710677298230451 2.5 0 0 1 I I #
face $-1 $-1 $351 $51 $-1 $694 reversed single #
loop $-1 $-1 $695 $340 #
plane-surface $-1 -73.506881923886837 0 0 1 0 0 0 0 -1 forward_v I I I I #
coedge $-1 $696 $508 $697 $698 forward $341 $-1 #
coedge $-1 $699 $343 $696 $700 forward $214 $-1 #
coedge $-1 $343 $699 $349 $517 forward $214 $-1 #
coedge $-1 $345 $344 $701 $702 forward $137 $-1 #
edge $-1 $352 -73.506881923886837 $703 73.506881923886837 $350 $704 forward 7 unknown #
coedge $-1 $503 $512 $345 $509 reversed $341 $-1 #
edge $-1 $705 -73.506881923886837 $510 73.506881923886837 $508 $706 forward 7 unknown #
vertex $-1 $346 $707 #
straight-curve $-1 73.506881923886837 0 9.1314540706813894 0 1 0 I I #
coedge $-1 $508 $696 $347 $513 reversed $341 $-1 #
edge $-1 $510 -9.1314540706813894 $514 9.1314540706813894 $347 $708 forward 7 unknown #
vertex $-1 $513 $709 #
straight-curve $-1 73.506881923886837 0 -9.1314540706813894 0 -1 0 I I #
coedge $-1 $350 $349 $695 $710 reversed $351 $-1 #
edge $-1 $711 -73.506881923886837 $353 73.506881923886837 $349 $712 forward 7 unknown #
point $-1 73.506881923886837 33.633879512822141 9.1314540706813894 #
point $-1 73.506881923886837 33.633879512822141 -9.1314540706813894 #
face $-1 $-1 $535 $52 $-1 $713 reversed single #
loop $-1 $-1 $714 $355 #
plane-surface $-1 -73.506881923886837 0 0 1 0 0 0 0 -1 forward_v I I I I #
coedge $-1 $539 $538 $358 $525 forward $356 $-1 #
coedge $-1 $359 $358 $714 $715 reversed $141 $-1 #
edge $-1 $716 -38.319585519938421 $529 -32.055007287958411 $523 $717 forward 7 unknown #
coedge $-1 $534 $533 $359 $527 forward $535 $-1 #
edge $-1 $528 32.055007287958411 $718 38.319585519938421 $526 $719 forward 7 unknown #
vertex $-1 $527 $720 #
vertex $-1 $525 $721 #
straight-curve $-1 -67.242303691906827 0 0.90762400590506864 0 -1 0 I I #
coedge $-1 $722 $723 $362 $532 forward $521 $-1 #
edge $-1 $540 -33.633879512822141 $536 33.633879512822141 $531 $724 forward 7 unknown #
coedge $-1 $526 $363 $368 $543 forward $535 $-1 #
coedge $-1 $363 $526 $722 $725 reversed $535 $-1 #
loop $-1 $-1 $526 $520 #
vertex $-1 $725 $726 #
straight-curve $-1 -35.187296403948416 33.633879512822141 6.0972283027599214 1 0 0 I I #
coedge $-1 $523 $365 $723 $727 forward $356 $-1 #
coedge $-1 $365 $523 $367 $542 forward $356 $-1 #
vertex $-1 $727 $728 #
straight-curve $-1 -35.187296403948416 -33.633879512822141 6.0972283027599214 -1 0 0 I I #
edge $-1 $529 -0.84358907126117888 $369 4.3460152255936739 $539 $729 forward 7 unknown #
edge $-1 $370 -4.3460152255936739 $528 0.84358907126117888 $533 $730 forward 7 unknown #
point $-1 -67.242303691906827 -33.633879512822141 6.0972283027599214 #
point $-1 -67.242303691906827 33.633879512822141 6.0972283027599214 #
face $-1 $-1 $563 $53 $-1 $731 reversed single #
loop $-1 $-1 $732 $372 #
plane-surface $-1 79.705981886618915 0 4.4942295201908173 -1 0 0 0 0 1 forward_v I I I I #
coedge $-1 $383 $382 $733 $734 forward $373 $-1 #
coedge $-1 $559 $375 $376 $555 forward $230 $-1 #
coedge $-1 $375 $559 $562 $735 forward $230 $-1 #
coedge $-1 $732 $736 $375 $553 reversed $547 $-1 #
edge $-1 $737 -33.633879512822141 $738 33.633879512822141 $552 $739 forward 7 unknown #
coedge $-1 $377 $376 $736 $740 forward $145 $-1 #
edge $-1 $738 -3.0995499813660388 $557 3.0995499813660388 $376 $741 forward 7 unknown #
edge $-1 $384 -3.0995499813660388 $742 3.0995499813660388 $377 $743 forward 7 unknown #
vertex $-1 $555 $744 #
straight-curve $-1 73.506881923886837 33.633879512822141 0 0 0 1 I I #
coedge $-1 $551 $550 $379 $560 reversed $230 $-1 #
edge $-1 $564 -33.633879512822141 $557 33.633879512822141 $559 $745 forward 7 unknown #
coedge $-1 $746 $380 $383 $566 reversed $563 $-1 #
coedge $-1 $380 $746 $551 $735 reversed $563 $-1 #
loop $-1 $-1 $380 $546 #
vertex $-1 $381 $747 #
straight-curve $-1 73.506881923886837 -33.633879512822141 0 0 0 -1 I I #
edge $-1 $748 -3.0995499813660388 $385 3.0995499813660388 $561 $749 forward 7 unknown #
point $-1 73.506881923886837 33.633879512822141 1.8521077849473349 #
point $-1 73.506881923886837 -33.633879512822141 1.8521077849473349 #
plane-surface $-1 0 -33.633879512822141 0 0 1 0 0 0 1 forward_v I I I I #
coedge $-1 $580 $579 $572 $750 forward $388 $-1 #
coedge $-1 $572 $390 $392 $576 reversed $238 $-1 #
coedge $-1 $390 $571 $570 $750 reversed $238 $-1 #
coedge $-1 $398 $393 $390 $574 forward $399 $-1 #
edge $-1 $577 -35.265122979869226 $751 -26.87710794916153 $573 $752 forward 7 unknown #
coedge $-1 $392 $391 $580 $753 reversed $149 $-1 #
edge $-1 $754 -9.590471023131343 $577 -1.4611543310094151e-014 $571 $755 forward 7 unknown #
vertex $-1 $394 $756 #
straight-curve $-1 -26.794601086814264 -33.633879512822141 0.74343903997369776 1 0 0 I I #
coedge $-1 $570 $395 $398 $584 forward $388 $-1 #
coedge $-1 $395 $570 $575 $753 forward $388 $-1 #
vertex $-1 $396 $757 #
straight-curve $-1 -64.471223170032786 -81.107507857903954 9.1314540706813894 0 -1 0 I I #
straight-curve $-1 -64.471223170032786 -33.633879512822148 0.74343903997367988 0 0.48480960649040278 0.87461971476443456 I I #
edge $-1 $400 -64.471223170032786 $751 -42.707181177224264 $398 $758 forward 7 unknown #
point $-1 -64.471223170032786 -33.633879512822141 9.1314540706813894 #
point $-1 -64.471223170032786 -33.633879512822141 0.74343903997369265 #
edge $-1 $759 1 $759 0 $403 $-1 forward 7 unknown #
vertex $-1 $404 $760 #
ellipse-curve $-1 -58.252925457801787 -24.341293315653505 1.075126571298453 0 -0.87461971476443456 0.48480960649040278 2 0 0 1 I I #
point $-1 -56.252925457801787 -31.30910327143118 4.9374465553275284 #
edge $-1 $761 1 $761 0 $407 $-1 forward 7 unknown #
vertex $-1 $408 $762 #
ellipse-curve $-1 -48.925478889455277 -24.341293315653505 1.075126571298453 0 -0.87461971476443456 0.48480960649040278 2 0 0 1 I I #
point $-1 -46.925478889455277 -31.30910327143118 4.9374465553275284 #
loop $-1 $-1 $419 $411 #
plane-surface $-1 0 0 9.1314540706813894 0 0 1 1 0 0 forward_v I I I I #
coedge $-1 $598 $414 $416 $602 reversed $260 $-1 #
coedge $-1 $414 $597 $763 $764 reversed $260 $-1 #
coedge $-1 $422 $417 $414 $600 forward $412 $-1 #
edge $-1 $603 -35.265122979869226 $765 -26.87710794916153 $599 $766 forward 7 unknown #
coedge $-1 $416 $415 $606 $767 reversed $163 $-1 #
edge $-1 $768 -9.590471023131343 $603 -1.4611543310094151e-014 $597 $769 forward 7 unknown #
vertex $-1 $418 $770 #
straight-curve $-1 -9.975840380181566 -33.633879512822141 0.74343903997369776 1 0 0 I I #
coedge $-1 $763 $419 $422 $610 forward $595 $-1 #
coedge $-1 $419 $763 $601 $767 forward $595 $-1 #
vertex $-1 $420 $771 #
straight-curve $-1 -30.833701756767397 -81.107507857903954 9.1314540706813894 0 -1 0 I I #
straight-curve $-1 -30.833701756767397 -33.633879512822148 0.74343903997367988 0 0.48480960649040278 0.87461971476443456 I I #
edge $-1 $423 -30.833701756767397 $765 -9.0696597639588692 $422 $772 forward 7 unknown #
point $-1 -30.833701756767397 -33.633879512822141 9.1314540706813894 #
point $-1 -30.833701756767397 -33.633879512822141 0.74343903997369265 #
edge $-1 $773 1 $773 0 $426 $-1 forward 7 unknown #
vertex $-1 $427 $774 #
ellipse-curve $-1 -24.61540404453639 -24.341293315653505 1.075126571298453 0 -0.87461971476443456 0.48480960649040278 2 0 0 1 I I #
point $-1 -22.61540404453639 -31.30910327143118 4.9374465553275284 #
edge $-1 $775 1 $775 0 $430 $-1 forward 7 unknown #
vertex $-1 $431 $776 #
ellipse-curve $-1 -15.287957476189881 -24.341293315653505 1.075126571298453 0 -0.87461971476443456 0.48480960649040278 2 0 0 1 I I #
point $-1 -13.287957476189881 -31.30910327143118 4.9374465553275284 #
loop $-1 $-1 $442 $434 #
plane-surface $-1 0 0 9.1314540706813894 0 0 1 1 0 0 forward_v I I I I #
coedge $-1 $624 $437 $439 $628 reversed $282 $-1 #
coedge $-1 $437 $623 $777 $778 reversed $282 $-1 #
coedge $-1 $445 $440 $437 $626 forward $435 $-1 #
edge $-1 $629 -35.265122979869226 $779 -26.87710794916153 $625 $780 forward 7 unknown #
coedge $-1 $439 $438 $632 $781 reversed $177 $-1 #
edge $-1 $782 -9.590471023131343 $629 -1.4611543310094151e-014 $623 $783 forward 7 unknown #
vertex $-1 $441 $784 #
straight-curve $-1 6.8429203264511287 -33.633879512822141 0.74343903997369776 1 0 0 I I #
coedge $-1 $777 $442 $445 $636 forward $621 $-1 #
coedge $-1 $442 $777 $627 $781 forward $621 $-1 #
vertex $-1 $443 $785 #
straight-curve $-1 2.8038196564979945 -81.107507857903954 9.1314540706813894 0 -1 0 I I #
straight-curve $-1 2.8038196564979945 -33.633879512822148 0.74343903997367988 0 0.48480960649040278 0.87461971476443456 I I #
edge $-1 $446 2.8038196564979945 $779 24.567861649306522 $445 $786 forward 7 unknown #
point $-1 2.8038196564979945 -33.633879512822141 9.1314540706813894 #
point $-1 2.8038196564979945 -33.633879512822141 0.74343903997369265 #
edge $-1 $787 1 $787 0 $449 $-1 forward 7 unknown #
vertex $-1 $450 $788 #
ellipse-curve $-1 9.0221173687290133 -24.341293315653505 1.075126571298453 0 -0.87461971476443456 0.48480960649040278 2 0 0 1 I I #
point $-1 11.022117368729013 -31.30910327143118 4.9374465553275284 #
edge $-1 $789 1 $789 0 $453 $-1 forward 7 unknown #
vertex $-1 $454 $790 #
ellipse-curve $-1 18.349563937075516 -24.341293315653505 1.075126571298453 0 -0.87461971476443456 0.48480960649040278 2 0 0 1 I I #
point $-1 20.349563937075516 -31.30910327143118 4.9374465553275284 #
loop $-1 $-1 $465 $457 #
plane-surface $-1 0 0 9.1314540706813894 0 0 1 1 0 0 forward_v I I I I #
coedge $-1 $650 $460 $462 $654 reversed $304 $-1 #
coedge $-1 $460 $649 $791 $792 reversed $304 $-1 #
coedge $-1 $468 $463 $460 $652 forward $458 $-1 #
edge $-1 $655 -35.265122979869226 $793 -26.87710794916153 $651 $794 forward 7 unknown #
coedge $-1 $462 $461 $658 $795 reversed $191 $-1 #
edge $-1 $796 -9.590471023131343 $655 -1.4611543310094151e-014 $649 $797 forward 7 unknown #
vertex $-1 $464 $798 #
straight-curve $-1 23.661681033083831 -33.633879512822141 0.74343903997369776 1 0 0 I I #
coedge $-1 $791 $465 $468 $662 forward $647 $-1 #
coedge $-1 $465 $791 $653 $795 forward $647 $-1 #
vertex $-1 $466 $799 #
straight-curve $-1 36.441341069763396 -81.107507857903954 9.1314540706813894 0 -1 0 I I #
straight-curve $-1 36.441341069763396 -33.633879512822148 0.74343903997367988 0 0.48480960649040278 0.87461971476443456 I I #
edge $-1 $469 36.441341069763396 $793 58.205383062571926 $468 $800 forward 7 unknown #
point $-1 36.441341069763396 -33.633879512822141 9.1314540706813894 #
point $-1 36.441341069763396 -33.633879512822141 0.74343903997369265 #
edge $-1 $801 1 $801 0 $472 $-1 forward 7 unknown #
vertex $-1 $473 $802 #
ellipse-curve $-1 42.659638781994417 -24.341293315653505 1.075126571298453 0 -0.87461971476443456 0.48480960649040278 2 0 0 1 I I #
point $-1 44.659638781994417 -31.30910327143118 4.9374465553275284 #
edge $-1 $803 1 $803 0 $476 $-1 forward 7 unknown #
vertex $-1 $477 $804 #
ellipse-curve $-1 51.987085350340905 -24.341293315653505 1.075126571298453 0 -0.87461971476443456 0.48480960649040278 2 0 0 1 I I #
point $-1 53.987085350340905 -31.30910327143118 4.9374465553275284 #
plane-surface $-1 0 33.633879512822141 0 0 -1 0 0 0 -1 forward_v I I I I #
coedge $-1 $677 $805 $485 $680 reversed $481 $-1 #
coedge $-1 $488 $483 $679 $806 forward $326 $-1 #
coedge $-1 $483 $488 $491 $687 forward $326 $-1 #
coedge $-1 $805 $674 $483 $678 reversed $481 $-1 #
edge $-1 $807 11.377531513729188 $808 18.919189767921509 $483 $809 forward 7 unknown #
coedge $-1 $485 $484 $675 $806 reversed $205 $-1 #
edge $-1 $808 56.60224351603528 $682 67.267759025644253 $674 $810 forward 7 unknown #
coedge $-1 $491 $486 $805 $811 forward $492 $-1 #
vertex $-1 $811 $812 #
straight-curve $-1 -30.076723909810902 33.633879512822141 1.5897956414841055 -1 0 0 I I #
vertex $-1 $489 $813 #
straight-curve $-1 -53.064591947336794 45.011411026551329 9.1314540706813858 0 1 0 I I #
straight-curve $-1 -53.064591947336794 -13.931608497552446 49.155284755620769 0 -0.70710677298230451 0.70710678939079041 I I #
edge $-1 $493 53.064591947336794 $807 67.242303691906812 $491 $814 forward 7 unknown #
point $-1 -53.064591947336794 33.633879512822141 9.1314540706813894 #
point $-1 -53.064591947336794 33.633879512822141 1.589795641484109 #
edge $-1 $815 1 $815 0 $496 $-1 forward 7 unknown #
vertex $-1 $497 $816 #
ellipse-curve $-1 -60.153447819621803 26.867983663122505 2.3655582029800954 0 0.70710678939079041 0.70710677298230451 2.5 0 0 1 I I #
point $-1 -57.653447819621803 29.863050385725973 5.3606248560827305 #
plane-surface $-1 0 33.633879512822141 0 0 -1 0 0 0 -1 forward_v I I I I #
coedge $-1 $817 $701 $516 $710 forward $501 $-1 #
coedge $-1 $512 $503 $504 $700 reversed $341 $-1 #
coedge $-1 $701 $817 $503 $698 reversed $501 $-1 #
edge $-1 $705 -9.1314540706813894 $818 9.1314540706813894 $697 $819 forward 7 unknown #
coedge $-1 $505 $504 $817 $820 forward $214 $-1 #
edge $-1 $514 -73.506881923886837 $818 73.506881923886837 $696 $821 forward 7 unknown #
coedge $-1 $695 $697 $506 $702 reversed $501 $-1 #
edge $-1 $703 -33.633879512822141 $705 33.633879512822141 $701 $822 forward 7 unknown #
vertex $-1 $507 $823 #
straight-curve $-1 0 33.633879512822141 9.1314540706813894 -1 0 0 I I #
vertex $-1 $702 $824 #
straight-curve $-1 0 -33.633879512822141 9.1314540706813894 1 0 0 I I #
point $-1 73.506881923886837 -33.633879512822141 9.1314540706813894 #
straight-curve $-1 73.506881923886837 -33.633879512822141 0 0 0 -1 I I #
point $-1 73.506881923886837 -33.633879512822141 -9.1314540706813894 #
edge $-1 $703 -9.1314540706813894 $711 9.1314540706813894 $516 $825 forward 7 unknown #
vertex $-1 $517 $826 #
straight-curve $-1 0 33.633879512822141 -9.1314540706813894 1 0 0 I I #
plane-surface $-1 0 33.633879512822141 0 0 -1 0 0 0 -1 forward_v I I I I #
coedge $-1 $723 $722 $524 $715 forward $521 $-1 #
edge $-1 $718 -33.633879512822141 $716 33.633879512822141 $714 $827 forward 7 unknown #
vertex $-1 $525 $828 #
straight-curve $-1 -35.187296403948416 -33.633879512822141 0.90762400590506864 1 0 0 I I #
vertex $-1 $527 $829 #
straight-curve $-1 -35.187296403948416 33.633879512822141 0.90762400590506864 -1 0 0 I I #
point $-1 -67.242303691906827 33.633879512822141 0.90762400590506864 #
point $-1 -67.242303691906827 -33.633879512822141 0.90762400590506864 #
coedge $-1 $714 $531 $534 $725 forward $521 $-1 #
coedge $-1 $531 $714 $538 $727 reversed $521 $-1 #
straight-curve $-1 -73.506881923886837 0 6.0972283027599214 0 1 0 I I #
edge $-1 $536 -6.0972283027599214 $718 -0.90762400590506864 $534 $830 forward 7 unknown #
point $-1 -73.506881923886837 33.633879512822141 6.0972283027599214 #
edge $-1 $540 -6.0972283027599214 $716 -0.90762400590506864 $723 $831 forward 7 unknown #
point $-1 -73.506881923886837 -33.633879512822141 6.0972283027599214 #
straight-curve $-1 -67.242303691906827 -33.633879512822141 1.7512130771662475 0 0 1 I I #
straight-curve $-1 -67.242303691906827 33.633879512822141 1.7512130771662475 0 0 -1 I I #
plane-surface $-1 0 -33.633879512822141 0 0 1 0 0 0 1 forward_v I I I I #
coedge $-1 $733 $552 $746 $832 forward $547 $-1 #
coedge $-1 $736 $732 $549 $734 reversed $547 $-1 #
edge $-1 $742 -33.633879512822141 $748 33.633879512822141 $733 $833 forward 7 unknown #
edge $-1 $564 -3.0995499813660388 $737 3.0995499813660388 $562 $834 forward 7 unknown #
coedge $-1 $552 $733 $554 $740 reversed $547 $-1 #
vertex $-1 $553 $835 #
vertex $-1 $553 $836 #
straight-curve $-1 79.705981886618915 0 7.1363512554342998 0 1 0 I I #
edge $-1 $738 -2.6421217352434825 $742 2.6421217352434825 $736 $837 forward 7 unknown #
straight-curve $-1 76.606431905252876 33.633879512822141 7.1363512554342998 -1 0 0 I I #
vertex $-1 $734 $838 #
straight-curve $-1 76.606431905252876 33.633879512822141 1.8521077849473349 1 0 0 I I #
point $-1 73.506881923886837 33.633879512822141 7.1363512554342998 #
straight-curve $-1 73.506881923886837 0 7.1363512554342998 0 1 0 I I #
coedge $-1 $562 $561 $732 $832 reversed $563 $-1 #
point $-1 73.506881923886837 -33.633879512822141 7.1363512554342998 #
vertex $-1 $832 $839 #
straight-curve $-1 76.606431905252876 -33.633879512822141 1.8521077849473349 -1 0 0 I I #
edge $-1 $751 47.473628345081814 $754 52.12318082786372 $570 $840 forward 7 unknown #
vertex $-1 $574 $841 #
straight-curve $-1 -42.707181177224264 -33.633879512822148 36.00856201984292 0 0 1 I I #
edge $-1 $754 15.91258009041 $581 37.676622083218518 $580 $842 forward 7 unknown #
vertex $-1 $753 $843 #
straight-curve $-1 -42.707181177224264 -33.633879512822148 0.74343903997367988 0 -0.48480960649040278 -0.87461971476443456 I I #
point $-1 -42.707181177224264 -33.633879512822141 0.74343903997369265 #
point $-1 -64.471223170032786 -28.98432703004023 9.1314540706813894 #
straight-curve $-1 0 -33.633879512822141 9.1314540706813894 1 0 0 I I #
vertex $-1 $587 $844 #
point $-1 -56.252925457801787 -24.341293315653505 1.075126571298453 #
vertex $-1 $591 $845 #
point $-1 -46.925478889455277 -24.341293315653505 1.075126571298453 #
coedge $-1 $606 $605 $598 $764 forward $595 $-1 #
edge $-1 $765 47.473628345081814 $768 52.12318082786372 $763 $846 forward 7 unknown #
vertex $-1 $764 $847 #
straight-curve $-1 -9.0696597639588692 -33.633879512822148 36.00856201984292 0 0 1 I I #
edge $-1 $768 -0.90618061622269686 $607 20.857861376585831 $606 $848 forward 7 unknown #
vertex $-1 $767 $849 #
straight-curve $-1 -9.0696597639588692 -33.633879512822148 0.74343903997367988 0 -0.48480960649040278 -0.87461971476443456 I I #
point $-1 -9.0696597639588692 -33.633879512822141 0.74343903997369265 #
point $-1 -30.833701756767397 -28.98432703004023 9.1314540706813894 #
straight-curve $-1 0 -33.633879512822141 9.1314540706813894 1 0 0 I I #
vertex $-1 $613 $850 #
point $-1 -22.61540404453639 -24.341293315653505 1.075126571298453 #
vertex $-1 $617 $851 #
point $-1 -13.287957476189881 -24.341293315653505 1.075126571298453 #
coedge $-1 $632 $631 $624 $778 forward $621 $-1 #
edge $-1 $779 47.473628345081814 $782 52.12318082786372 $777 $852 forward 7 unknown #
vertex $-1 $778 $853 #
straight-curve $-1 24.567861649306522 -33.633879512822148 36.00856201984292 0 0 1 I I #
edge $-1 $782 -17.724941322855393 $633 4.0391006699531342 $632 $854 forward 7 unknown #
vertex $-1 $781 $855 #
straight-curve $-1 24.567861649306522 -33.633879512822148 0.74343903997367988 0 -0.48480960649040278 -0.87461971476443456 I I #
point $-1 24.567861649306522 -33.633879512822141 0.74343903997369265 #
point $-1 2.8038196564979945 -28.98432703004023 9.1314540706813894 #
straight-curve $-1 0 -33.633879512822141 9.1314540706813894 1 0 0 I I #
vertex $-1 $639 $856 #
point $-1 11.022117368729013 -24.341293315653505 1.075126571298453 #
vertex $-1 $643 $857 #
point $-1 20.349563937075516 -24.341293315653505 1.075126571298453 #
coedge $-1 $658 $657 $650 $792 forward $647 $-1 #
edge $-1 $793 47.473628345081814 $796 52.12318082786372 $791 $858 forward 7 unknown #
vertex $-1 $792 $859 #
straight-curve $-1 58.205383062571926 -33.633879512822148 36.00856201984292 0 0 1 I I #
edge $-1 $796 -34.543702029488095 $659 -12.779660036679566 $658 $860 forward 7 unknown #
vertex $-1 $795 $861 #
straight-curve $-1 58.205383062571926 -33.633879512822148 0.74343903997367988 0 -0.48480960649040278 -0.87461971476443456 I I #
point $-1 58.205383062571926 -33.633879512822141 0.74343903997369265 #
point $-1 36.441341069763396 -28.98432703004023 9.1314540706813894 #
straight-curve $-1 0 -33.633879512822141 9.1314540706813894 1 0 0 I I #
vertex $-1 $665 $862 #
point $-1 44.659638781994417 -24.341293315653505 1.075126571298453 #
vertex $-1 $669 $863 #
point $-1 53.987085350340905 -24.341293315653505 1.075126571298453 #
coedge $-1 $674 $677 $681 $811 reversed $481 $-1 #
edge $-1 $808 -37.165579782095911 $684 -22.987868037525892 $675 $864 forward 7 unknown #
vertex $-1 $811 $865 #
vertex $-1 $806 $866 #
straight-curve $-1 -67.242303691906812 45.011411026551329 9.1314540706813858 0 -1 0 I I #
straight-curve $-1 -67.242303691906812 -13.931608497552446 49.155284755620769 0 0.70710677298230451 -0.70710678939079041 I I #
edge $-1 $682 -74.965060805517197 $807 -67.423402376319913 $681 $867 forward 7 unknown #
point $-1 -67.242303691906827 33.633879512822141 1.5897956414841066 #
point $-1 -53.064591947336794 26.09222125862982 9.1314540706813858 #
straight-curve $-1 0 33.633879512822141 9.1314540706813894 -1 0 0 I I #
vertex $-1 $690 $868 #
point $-1 -57.653447819621803 26.867983663122505 2.3655582029800954 #
coedge $-1 $697 $695 $699 $820 reversed $501 $-1 #
vertex $-1 $820 $869 #
straight-curve $-1 -73.506881923886837 -33.633879512822141 0 0 0 -1 I I #
edge $-1 $818 -33.633879512822141 $711 33.633879512822141 $817 $870 forward 7 unknown #
straight-curve $-1 0 -33.633879512822141 -9.1314540706813894 -1 0 0 I I #
straight-curve $-1 -73.506881923886837 0 9.1314540706813894 0 -1 0 I I #
point $-1 -73.506881923886837 33.633879512822141 9.1314540706813894 #
point $-1 -73.506881923886837 -33.633879512822141 9.1314540706813894 #
straight-curve $-1 -73.506881923886837 33.633879512822141 0 0 0 -1 I I #
point $-1 -73.506881923886837 33.633879512822141 -9.1314540706813894 #
straight-curve $-1 -73.506881923886837 0 0.90762400590506864 0 -1 0 I I #
point $-1 -73.506881923886837 -33.633879512822141 0.90762400590506864 #
point $-1 -73.506881923886837 33.633879512822141 0.90762400590506864 #
straight-curve $-1 -73.506881923886837 33.633879512822141 0 0 0 -1 I I #
straight-curve $-1 -73.506881923886837 -33.633879512822141 0 0 0 -1 I I #
edge $-1 $737 -2.6421217352434825 $748 2.6421217352434825 $732 $871 forward 7 unknown #
straight-curve $-1 79.705981886618915 0 1.8521077849473349 0 -1 0 I I #
straight-curve $-1 76.606431905252876 -33.633879512822141 7.1363512554342998 1 0 0 I I #
point $-1 79.705981886618915 -33.633879512822141 7.1363512554342998 #
point $-1 79.705981886618915 33.633879512822141 7.1363512554342998 #
straight-curve $-1 79.705981886618915 33.633879512822141 4.4942295201908173 0 0 -1 I I #
point $-1 79.705981886618915 33.633879512822141 1.8521077849473349 #
point $-1 79.705981886618915 -33.633879512822141 1.8521077849473349 #
straight-curve $-1 -42.707181177224264 -81.107507857903954 9.1314540706813894 0 1 0 I I #
point $-1 -42.707181177224264 -33.633879512822141 9.1314540706813894 #
straight-curve $-1 -26.794601086814264 -28.984327030040234 9.1314540706813894 -1 0 0 I I #
point $-1 -42.707181177224264 -28.98432703004023 9.1314540706813894 #
point $-1 -58.252925457801787 -22.592053886124635 0.10550735831764696 #
point $-1 -48.925478889455277 -22.592053886124635 0.10550735831764696 #
straight-curve $-1 -9.0696597639588692 -81.107507857903954 9.1314540706813894 0 1 0 I I #
point $-1 -9.0696597639588692 -33.633879512822141 9.1314540706813894 #
straight-curve $-1 -9.975840380181566 -28.984327030040234 9.1314540706813894 -1 0 0 I I #
point $-1 -9.0696597639588692 -28.98432703004023 9.1314540706813894 #
point $-1 -24.61540404453639 -22.592053886124635 0.10550735831764696 #
point $-1 -15.287957476189881 -22.592053886124635 0.10550735831764696 #
straight-curve $-1 24.567861649306522 -81.107507857903954 9.1314540706813894 0 1 0 I I #
point $-1 24.567861649306522 -33.633879512822141 9.1314540706813894 #
straight-curve $-1 6.8429203264511287 -28.984327030040234 9.1314540706813894 -1 0 0 I I #
point $-1 24.567861649306522 -28.98432703004023 9.1314540706813894 #
point $-1 9.0221173687290133 -22.592053886124635 0.10550735831764696 #
point $-1 18.349563937075516 -22.592053886124635 0.10550735831764696 #
straight-curve $-1 58.205383062571926 -81.107507857903954 9.1314540706813894 0 1 0 I I #
point $-1 58.205383062571926 -33.633879512822141 9.1314540706813894 #
straight-curve $-1 23.661681033083831 -28.984327030040234 9.1314540706813894 -1 0 0 I I #
point $-1 58.205383062571926 -28.98432703004023 9.1314540706813894 #
point $-1 42.659638781994417 -22.592053886124635 0.10550735831764696 #
point $-1 51.987085350340905 -22.592053886124635 0.10550735831764696 #
straight-curve $-1 -30.076723909810902 26.09222125862982 9.1314540706813894 1 0 0 I I #
point $-1 -67.242303691906812 33.633879512822141 9.1314540706813894 #
point $-1 -67.242303691906812 26.09222125862982 9.1314540706813858 #
straight-curve $-1 -67.242303691906812 33.633879512822141 76.554856447001299 0 0 1 I I #
point $-1 -60.153447819621803 25.100216689645531 0.59779127052433412 #
point $-1 -73.506881923886837 -33.633879512822141 -9.1314540706813894 #
straight-curve $-1 -73.506881923886837 0 -9.1314540706813894 0 1 0 I I #
straight-curve $-1 79.705981886618915 -33.633879512822141 4.4942295201908173 0 0 -1 I I #
End-of-ACIS-data 