500 0 8 0           
7 Unknown 11 ACIS 5.0 NT 24 Fri Mar 26 16:49:11 1999 
-1 9.9999999999999995e-007 1e-010 
body $-1 $8 $-1 $9 #
body $-1 $10 $-1 $11 #
body $-1 $12 $-1 $13 #
body $-1 $14 $-1 $15 #
body $-1 $16 $-1 $17 #
body $-1 $18 $-1 $19 #
body $-1 $20 $-1 $21 #
body $-1 $22 $-1 $23 #
lump $-1 $-1 $24 $0 #
transform $-1 1 0 0 0 1 0 0 0 1 62.306588946195873 27.968274895935608 6.087092270283053 1 rotate no_reflect no_shear #
lump $-1 $-1 $25 $1 #
transform $-1 1 0 0 0 1 0 0 0 1 62.306588946195873 27.968274895935608 6.087092270283053 1 rotate no_reflect no_shear #
lump $-1 $-1 $26 $2 #
transform $-1 1 0 0 0 1 0 0 0 1 62.306588946195873 27.968274895935608 6.087092270283053 1 rotate no_reflect no_shear #
lump $-1 $-1 $27 $3 #
transform $-1 1 0 0 0 1 0 0 0 1 62.306588946195873 27.968274895935608 6.087092270283053 1 rotate no_reflect no_shear #
lump $-1 $-1 $28 $4 #
transform $-1 1 0 0 0 1 0 0 0 1 62.306588946195873 27.968274895935608 6.087092270283053 1 rotate no_reflect no_shear #
lump $-1 $-1 $29 $5 #
transform $-1 1 0 0 0 1 0 0 0 1 62.306588946195873 27.968274895935608 6.087092270283053 1 rotate no_reflect no_shear #
lump $-1 $-1 $30 $6 #
transform $-1 1 0 0 0 1 0 0 0 1 62.306588946195873 27.968274895935608 6.087092270283053 1 rotate no_reflect no_shear #
lump $-1 $-1 $31 $7 #
transform $-1 1 0 0 0 1 0 0 0 1 62.306588946195873 27.968274895935608 6.087092270283053 1 rotate no_reflect no_shear #
shell $-1 $-1 $-1 $32 $-1 $8 #
shell $-1 $-1 $-1 $33 $-1 $10 #
shell $-1 $-1 $-1 $34 $-1 $12 #
shell $-1 $-1 $-1 $35 $-1 $14 #
shell $-1 $-1 $-1 $36 $-1 $16 #
shell $-1 $-1 $-1 $37 $-1 $18 #
shell $-1 $-1 $-1 $38 $-1 $20 #
shell $-1 $-1 $-1 $39 $-1 $22 #
face $-1 $40 $41 $24 $-1 $42 forward single #
face $-1 $43 $44 $25 $-1 $45 forward single #
face $-1 $46 $47 $26 $-1 $48 reversed single #
face $-1 $49 $50 $27 $-1 $51 forward single #
face $-1 $52 $53 $28 $-1 $54 forward single #
face $-1 $55 $56 $29 $-1 $57 reversed single #
face $-1 $58 $59 $30 $-1 $60 forward single #
face $-1 $61 $62 $31 $-1 $63 forward single #
face $-1 $64 $65 $24 $-1 $66 reversed single #
loop $-1 $-1 $67 $32 #
plane-surface $-1 0 0 6.087092270283053 0 0 1 1 0 0 forward_v I I I I #
face $-1 $68 $69 $25 $-1 $70 reversed single #
loop $-1 $-1 $71 $33 #
plane-surface $-1 -59.420285109136515 0 3.8345149992986807 0 0 1 1 0 0 forward_v I I I I #
face $-1 $72 $73 $26 $-1 $74 reversed single #
loop $-1 $-1 $75 $34 #
plane-surface $-1 35.171682052001913 -117.60749442729106 89.478644531283962 1 0 0 0 0.71933980857756763 -0.69465836192734942 forward_v I I I I #
face $-1 $76 $77 $27 $-1 $78 forward single #
loop $-1 $79 $80 $35 #
cone-surface $-1 42.924512593200191 -26.077006326326671 4.1537462051747065 0 0.71933980857756763 -0.69465836192734942 0.5 0 0 1 I I 0 1 0.5 forward I I I I #
face $-1 $81 $82 $28 $-1 $83 forward single #
loop $-1 $84 $85 $36 #
cone-surface $-1 54.553758404997595 -26.077006326326671 4.1537462051747065 0 0.71933980857756763 -0.69465836192734942 0.5 0 0 1 I I 0 1 0.5 forward I I I I #
face $-1 $86 $87 $29 $-1 $88 reversed single #
loop $-1 $-1 $89 $37 #
plane-surface $-1 2.5695081654240397 51.277579375593106 135.10122603960056 1 0 0 0 -0.55919291073839883 -0.82903756765294845 forward_v I I I I #
face $-1 $90 $91 $30 $-1 $92 forward single #
loop $-1 $93 $94 $38 #
cone-surface $-1 8.753472614774978 23.429258486169783 2.6966297792074085 0 -0.55919291073839883 -0.82903756765294845 1 0 0 1 I I 0 1 1 forward I I I I #
face $-1 $95 $96 $31 $-1 $97 forward single #
loop $-1 $98 $99 $39 #
cone-surface $-1 18.029419288801392 23.429258486169783 2.6966297792074085 0 -0.55919291073839883 -0.82903756765294845 1 0 0 1 I I 0 1 1 forward I I I I #
face $-1 $100 $101 $24 $-1 $102 reversed single #
loop $-1 $-1 $103 $40 #
plane-surface $-1 0 0 -6.087092270283053 0 0 1 1 0 0 forward_v I I I I #
coedge $-1 $104 $105 $106 $107 forward $41 $-1 #
face $-1 $108 $109 $25 $-1 $110 reversed single #
loop $-1 $-1 $111 $43 #
plane-surface $-1 -59.420285109136515 0 0.40250734353003192 0 0 1 1 0 0 forward_v I I I I #
coedge $-1 $112 $113 $114 $115 forward $44 $-1 #
face $-1 $116 $117 $26 $-1 $118 forward single #
loop $-1 $-1 $119 $46 #
plane-surface $-1 48.739135499098893 -27.968274895935593 2.9150585019937125 0 -0.71933980857756763 0.69465836192734942 1 0 0 forward_v I I I I #
coedge $-1 $120 $121 $122 $123 reversed $47 $-1 #
face $-1 $-1 $124 $27 $-1 $125 forward single #
loop $-1 $126 $127 $49 #
cone-surface $-1 42.924512593200191 -25.537501469893495 3.6327524337291948 0 0.71933980857756763 -0.69465836192734942 0.25 0 0 1 I I -0.70710678118654746 0.70710678118654746 0.25 forward I I I I #
loop $-1 $-1 $128 $35 #
coedge $-1 $80 $80 $129 $130 reversed $50 $-1 #
face $-1 $-1 $131 $28 $-1 $132 forward single #
loop $-1 $133 $134 $52 #
cone-surface $-1 54.553758404997595 -25.537501469893495 3.6327524337291948 0 0.71933980857756763 -0.69465836192734942 0.25 0 0 1 I I -0.70710678118654746 0.70710678118654746 0.25 forward I I I I #
loop $-1 $-1 $135 $36 #
coedge $-1 $85 $85 $136 $137 reversed $53 $-1 #
face $-1 $138 $139 $29 $-1 $140 reversed single #
loop $-1 $-1 $141 $55 #
plane-surface $-1 13.391445951788185 -18.405226286415328 31.792220142187944 0 0.55919291073839883 0.82903756765294845 1 0 0 forward_v I I I I #
coedge $-1 $142 $143 $144 $145 reversed $56 $-1 #
face $-1 $-1 $146 $30 $-1 $147 forward single #
loop $-1 $148 $149 $58 #
cone-surface $-1 8.753472614774978 22.742686935771012 1.6787456157427716 0 -0.55919291073839883 -0.82903756765294845 0.5 0 0 1 I I -0.70710678118654746 0.70710678118654746 0.5 forward I I I I #
loop $-1 $-1 $150 $38 #
coedge $-1 $94 $94 $151 $152 reversed $59 $-1 #
face $-1 $-1 $153 $31 $-1 $154 forward single #
loop $-1 $155 $156 $61 #
cone-surface $-1 18.029419288801392 22.742686935771012 1.6787456157427716 0 -0.55919291073839883 -0.82903756765294845 0.5 0 0 1 I I -0.70710678118654746 0.70710678118654746 0.5 forward I I I I #
loop $-1 $-1 $157 $39 #
coedge $-1 $99 $99 $158 $159 reversed $62 $-1 #
face $-1 $160 $161 $24 $-1 $162 reversed single #
loop $-1 $-1 $163 $64 #
plane-surface $-1 0 -27.968274895935608 0 0 1 0 0 0 1 forward_v I I I I #
coedge $-1 $164 $165 $166 $167 forward $65 $-1 #
coedge $-1 $168 $67 $169 $170 forward $41 $-1 #
coedge $-1 $67 $168 $171 $172 forward $41 $-1 #
coedge $-1 $173 $174 $67 $107 reversed $175 $-1 #
edge $-1 $176 -27.968274895935608 $177 27.968274895935608 $106 $178 forward 7 unknown #
face $-1 $179 $180 $25 $-1 $181 reversed single #
loop $-1 $-1 $182 $68 #
plane-surface $-1 -56.533981272077156 0 2.1185111714143563 -1 0 0 0 0 1 forward_v I I I I #
coedge $-1 $183 $184 $185 $186 forward $69 $-1 #
coedge $-1 $187 $71 $188 $189 reversed $44 $-1 #
coedge $-1 $71 $187 $190 $191 reversed $44 $-1 #
coedge $-1 $182 $192 $71 $115 reversed $109 $-1 #
edge $-1 $193 -27.968274895935608 $194 27.968274895935608 $114 $195 forward 7 unknown #
face $-1 $196 $197 $26 $-1 $198 reversed single #
loop $-1 $-1 $199 $72 #
plane-surface $-1 0 0 6.087092270283053 0 0 1 1 0 0 forward_v I I I I #
coedge $-1 $200 $201 $202 $203 reversed $73 $-1 #
coedge $-1 $121 $75 $204 $205 reversed $47 $-1 #
coedge $-1 $75 $120 $200 $206 reversed $47 $-1 #
coedge $-1 $202 $207 $75 $123 forward $197 $-1 #
edge $-1 $208 38.65222999535893 $209 41.824263763648283 $122 $210 forward 7 unknown #
loop $-1 $-1 $129 $76 #
plane-surface $-1 48.739135499098893 -27.968274895935593 2.9150585019937125 0 -0.71933980857756763 0.69465836192734942 1 0 0 forward_v I I I I #
loop $-1 $-1 $211 $49 #
coedge $-1 $127 $127 $128 $212 reversed $77 $-1 #
coedge $-1 $128 $128 $127 $212 forward $79 $-1 #
coedge $-1 $129 $129 $80 $130 forward $124 $-1 #
edge $-1 $213 4.0087847927125175e-015 $213 6.2831853071796049 $129 $214 forward 7 unknown #
loop $-1 $-1 $136 $81 #
plane-surface $-1 48.739135499098893 -27.968274895935593 2.9150585019937125 0 -0.71933980857756763 0.69465836192734942 1 0 0 forward_v I I I I #
loop $-1 $-1 $215 $52 #
coedge $-1 $134 $134 $135 $216 reversed $82 $-1 #
coedge $-1 $135 $135 $134 $216 forward $84 $-1 #
coedge $-1 $136 $136 $85 $137 forward $131 $-1 #
edge $-1 $217 4.0087847927125175e-015 $217 6.2831853071796049 $136 $218 forward 7 unknown #
face $-1 $219 $220 $29 $-1 $221 reversed single #
loop $-1 $-1 $222 $86 #
plane-surface $-1 24.213383738152331 51.277579375593106 135.10122603960056 -1 0 0 0 0.55919291073839883 0.82903756765294845 forward_v I I I I #
coedge $-1 $223 $224 $225 $226 reversed $87 $-1 #
coedge $-1 $143 $89 $227 $228 reversed $56 $-1 #
coedge $-1 $89 $142 $223 $229 reversed $56 $-1 #
coedge $-1 $225 $230 $89 $145 forward $231 $-1 #
edge $-1 $232 -2.3294852081390545 $233 5.9345974213334216 $144 $234 forward 7 unknown #
loop $-1 $-1 $151 $90 #
plane-surface $-1 13.391445951788185 -18.405226286415328 31.792220142187944 0 0.55919291073839883 0.82903756765294845 1 0 0 forward_v I I I I #
loop $-1 $-1 $235 $58 #
coedge $-1 $149 $149 $150 $236 reversed $91 $-1 #
coedge $-1 $150 $150 $149 $236 forward $93 $-1 #
coedge $-1 $151 $151 $94 $152 forward $146 $-1 #
edge $-1 $237 1.0626168470597688e-015 $237 6.2831853071796013 $151 $238 forward 7 unknown #
loop $-1 $-1 $158 $95 #
plane-surface $-1 13.391445951788185 -18.405226286415328 31.792220142187944 0 0.55919291073839883 0.82903756765294845 1 0 0 forward_v I I I I #
loop $-1 $-1 $239 $61 #
coedge $-1 $156 $156 $157 $240 reversed $96 $-1 #
coedge $-1 $157 $157 $156 $240 forward $98 $-1 #
coedge $-1 $158 $158 $99 $159 forward $153 $-1 #
edge $-1 $241 1.0626168470597688e-015 $241 6.2831853071796013 $158 $242 forward 7 unknown #
face $-1 $243 $244 $24 $-1 $245 reversed single #
loop $-1 $-1 $246 $100 #
plane-surface $-1 -62.306588946195873 0 0 1 0 0 0 0 -1 forward_v I I I I #
coedge $-1 $247 $171 $248 $249 forward $101 $-1 #
coedge $-1 $250 $103 $247 $251 forward $65 $-1 #
coedge $-1 $103 $250 $252 $253 forward $65 $-1 #
coedge $-1 $174 $173 $103 $167 reversed $175 $-1 #
edge $-1 $254 -27.968274895935608 $255 27.968274895935608 $166 $256 forward 7 unknown #
coedge $-1 $105 $104 $257 $258 forward $41 $-1 #
coedge $-1 $259 $260 $104 $170 reversed $244 $-1 #
edge $-1 $177 -62.306588946195873 $261 62.306588946195873 $169 $262 forward 7 unknown #
coedge $-1 $163 $263 $105 $172 reversed $101 $-1 #
edge $-1 $264 -62.306588946195873 $176 62.306588946195873 $171 $265 forward 7 unknown #
coedge $-1 $166 $106 $263 $266 forward $175 $-1 #
coedge $-1 $106 $166 $259 $267 reversed $175 $-1 #
loop $-1 $-1 $173 $243 #
vertex $-1 $107 $268 #
vertex $-1 $107 $269 #
straight-curve $-1 62.306588946195873 0 6.087092270283053 0 1 0 I I #
face $-1 $270 $271 $25 $-1 $272 reversed single #
loop $-1 $-1 $273 $108 #
plane-surface $-1 0 -27.968274895935608 0 0 1 0 0 0 1 forward_v I I I I #
coedge $-1 $185 $114 $274 $275 reversed $109 $-1 #
coedge $-1 $276 $111 $273 $277 reversed $69 $-1 #
coedge $-1 $111 $276 $278 $279 reversed $69 $-1 #
coedge $-1 $192 $182 $111 $186 reversed $109 $-1 #
edge $-1 $280 -27.968274895935608 $281 27.968274895935608 $185 $282 forward 7 unknown #
coedge $-1 $113 $112 $283 $284 reversed $44 $-1 #
coedge $-1 $285 $286 $112 $189 forward $287 $-1 #
edge $-1 $288 -32.596446391627616 $194 -26.823838717508899 $188 $289 forward 7 unknown #
coedge $-1 $290 $274 $113 $191 forward $180 $-1 #
edge $-1 $193 26.823838717508899 $291 32.596446391627616 $190 $292 forward 7 unknown #
coedge $-1 $114 $185 $285 $293 reversed $109 $-1 #
vertex $-1 $191 $294 #
vertex $-1 $189 $295 #
straight-curve $-1 -56.533981272077156 0 3.8345149992986807 0 1 0 I I #
face $-1 $-1 $296 $26 $-1 $297 reversed single #
loop $-1 $-1 $122 $116 #
plane-surface $-1 0 -27.968274895935608 0 0 1 0 0 0 1 forward_v I I I I #
coedge $-1 $204 $298 $299 $300 forward $117 $-1 #
coedge $-1 $299 $119 $121 $206 forward $73 $-1 #
coedge $-1 $119 $299 $301 $302 reversed $73 $-1 #
coedge $-1 $303 $122 $119 $203 forward $197 $-1 #
edge $-1 $209 10.802114302452466 $304 37.937021196646427 $202 $305 forward 7 unknown #
coedge $-1 $306 $199 $120 $205 forward $117 $-1 #
edge $-1 $307 -33.898669648350236 $208 -30.835472317709922 $204 $308 forward 7 unknown #
edge $-1 $209 -2.0413573615811715e-014 $307 4.4096458036456543 $121 $309 forward 7 unknown #
coedge $-1 $122 $303 $306 $310 reversed $197 $-1 #
vertex $-1 $310 $311 #
vertex $-1 $123 $312 #
straight-curve $-1 35.171682052001913 -27.968274895935608 44.739322265641981 0 0 -1 I I #
coedge $-1 $211 $211 $-1 $313 reversed $126 $-1 #
edge $-1 $314 0 $314 6.2831853071796004 $127 $315 forward 7 unknown #
vertex $-1 $130 $316 #
ellipse-curve $-1 42.924512593200191 -26.436676230615451 4.5010753861383757 0 -0.71933980857756763 0.69465836192734942 0.5 0 0 1 I I #
coedge $-1 $215 $215 $-1 $317 reversed $133 $-1 #
edge $-1 $318 0 $318 6.2831853071796004 $134 $319 forward 7 unknown #
vertex $-1 $137 $320 #
ellipse-curve $-1 54.553758404997595 -26.436676230615451 4.5010753861383757 0 -0.71933980857756763 0.69465836192734942 0.5 0 0 1 I I #
face $-1 $-1 $231 $29 $-1 $321 forward single #
loop $-1 $-1 $322 $138 #
plane-surface $-1 0 27.968274895935608 0 0 -1 0 0 0 -1 forward_v I I I I #
coedge $-1 $323 $324 $325 $326 reversed $139 $-1 #
coedge $-1 $327 $141 $143 $229 forward $87 $-1 #
coedge $-1 $141 $327 $323 $328 forward $87 $-1 #
coedge $-1 $325 $144 $141 $226 forward $231 $-1 #
edge $-1 $233 -4.1262148104700529 $329 17.517660762258238 $225 $330 forward 7 unknown #
coedge $-1 $331 $332 $142 $228 forward $220 $-1 #
edge $-1 $333 -67.037714972392166 $232 -61.46352074951723 $227 $334 forward 7 unknown #
edge $-1 $233 45.96826493733974 $333 55.936549791871194 $143 $335 forward 7 unknown #
coedge $-1 $144 $325 $331 $336 forward $231 $-1 #
loop $-1 $-1 $325 $219 #
vertex $-1 $228 $337 #
vertex $-1 $145 $338 #
straight-curve $-1 2.5695081654240397 25.638789687796553 6.0870922702830512 0 -1 0 I I #
coedge $-1 $235 $235 $-1 $339 reversed $148 $-1 #
edge $-1 $340 0 $340 6.2831853071796004 $149 $341 forward 7 unknown #
vertex $-1 $152 $342 #
ellipse-curve $-1 8.753472614774978 23.836233581199362 3.2999951588455838 0 0.55919291073839883 0.82903756765294845 1 0 0 1 I I #
coedge $-1 $239 $239 $-1 $343 reversed $155 $-1 #
edge $-1 $344 0 $344 6.2831853071796004 $156 $345 forward 7 unknown #
vertex $-1 $159 $346 #
ellipse-curve $-1 18.029419288801392 23.836233581199362 3.2999951588455838 0 0.55919291073839883 0.82903756765294845 1 0 0 1 I I #
face $-1 $-1 $175 $24 $-1 $347 reversed single #
loop $-1 $-1 $259 $160 #
plane-surface $-1 0 27.968274895935608 0 0 -1 0 0 0 -1 forward_v I I I I #
coedge $-1 $348 $257 $260 $349 forward $161 $-1 #
coedge $-1 $263 $163 $164 $251 reversed $101 $-1 #
coedge $-1 $257 $348 $163 $249 reversed $161 $-1 #
edge $-1 $264 -6.087092270283053 $350 6.087092270283053 $248 $351 forward 7 unknown #
coedge $-1 $165 $164 $348 $352 forward $65 $-1 #
edge $-1 $255 -62.306588946195873 $350 62.306588946195873 $247 $353 forward 7 unknown #
coedge $-1 $260 $259 $165 $253 reversed $244 $-1 #
edge $-1 $354 -62.306588946195873 $254 62.306588946195873 $252 $355 forward 7 unknown #
vertex $-1 $167 $356 #
vertex $-1 $266 $357 #
straight-curve $-1 62.306588946195873 0 -6.087092270283053 0 -1 0 I I #
coedge $-1 $246 $248 $168 $258 reversed $161 $-1 #
edge $-1 $261 -27.968274895935608 $264 27.968274895935608 $257 $358 forward 7 unknown #
coedge $-1 $252 $169 $174 $267 forward $244 $-1 #
coedge $-1 $169 $252 $246 $349 reversed $244 $-1 #
vertex $-1 $170 $359 #
straight-curve $-1 0 27.968274895935608 6.087092270283053 -1 0 0 I I #
coedge $-1 $171 $247 $173 $266 reversed $101 $-1 #
vertex $-1 $258 $360 #
straight-curve $-1 0 -27.968274895935608 6.087092270283053 1 0 0 I I #
edge $-1 $176 -6.087092270283053 $255 6.087092270283053 $173 $361 forward 7 unknown #
edge $-1 $177 -6.087092270283053 $254 6.087092270283053 $174 $362 forward 7 unknown #
point $-1 62.306588946195873 -27.968274895935608 6.087092270283053 #
point $-1 62.306588946195873 27.968274895935608 6.087092270283053 #
face $-1 $-1 $287 $25 $-1 $363 reversed single #
loop $-1 $-1 $364 $179 #
plane-surface $-1 -62.306588946195873 0 0 1 0 0 0 0 -1 forward_v I I I I #
coedge $-1 $274 $290 $183 $277 forward $180 $-1 #
coedge $-1 $190 $273 $182 $275 forward $180 $-1 #
edge $-1 $281 -0.65674824217714622 $193 2.7752594135915025 $274 $365 forward 7 unknown #
coedge $-1 $184 $183 $364 $366 reversed $69 $-1 #
edge $-1 $367 -32.596446391627616 $281 -26.823838717508899 $273 $368 forward 7 unknown #
coedge $-1 $286 $285 $184 $279 forward $287 $-1 #
edge $-1 $280 26.823838717508899 $369 32.596446391627616 $278 $370 forward 7 unknown #
vertex $-1 $279 $371 #
vertex $-1 $277 $372 #
straight-curve $-1 -56.533981272077156 0 0.40250734353003192 0 -1 0 I I #
coedge $-1 $373 $374 $187 $284 forward $271 $-1 #
edge $-1 $291 -27.968274895935608 $288 27.968274895935608 $283 $375 forward 7 unknown #
coedge $-1 $278 $188 $192 $293 forward $287 $-1 #
coedge $-1 $188 $278 $373 $376 reversed $287 $-1 #
loop $-1 $-1 $278 $270 #
vertex $-1 $376 $377 #
straight-curve $-1 -29.710142554568257 27.968274895935608 3.8345149992986807 1 0 0 I I #
coedge $-1 $273 $190 $374 $378 forward $180 $-1 #
vertex $-1 $378 $379 #
straight-curve $-1 -29.710142554568257 -27.968274895935608 3.8345149992986807 -1 0 0 I I #
edge $-1 $194 -2.7752594135915025 $280 0.65674824217714622 $285 $380 forward 7 unknown #
point $-1 -56.533981272077156 -27.968274895935608 3.8345149992986807 #
point $-1 -56.533981272077156 27.968274895935608 3.8345149992986807 #
loop $-1 $-1 $301 $196 #
plane-surface $-1 62.306588946195873 0 0 -1 0 0 0 0 1 forward_v I I I I #
coedge $-1 $199 $306 $381 $382 forward $117 $-1 #
coedge $-1 $201 $200 $199 $300 reversed $73 $-1 #
edge $-1 $383 -37.937021196646427 $307 -10.802114302452466 $199 $384 forward 7 unknown #
coedge $-1 $381 $385 $201 $302 forward $296 $-1 #
edge $-1 $304 -8.6657392001639479 $383 -4.2560933965182741 $301 $386 forward 7 unknown #
coedge $-1 $207 $202 $385 $387 reversed $197 $-1 #
vertex $-1 $203 $388 #
straight-curve $-1 24.369567749549446 -27.968274895935608 2.9150585019936992 1 0 0 I I #
coedge $-1 $298 $204 $207 $310 forward $117 $-1 #
vertex $-1 $205 $389 #
straight-curve $-1 35.171682052001913 -58.803747213645529 6.0870922702830512 0 -1 0 I I #
straight-curve $-1 35.171682052001913 -27.968274895935593 2.9150585019937125 0 0.69465836192734942 0.71933980857756763 I I #
edge $-1 $208 35.171682052001913 $390 62.306588946195873 $207 $391 forward 7 unknown #
point $-1 35.171682052001913 -27.968274895935608 6.087092270283053 #
point $-1 35.171682052001913 -27.968274895935608 2.9150585019936979 #
edge $-1 $392 1 $392 0 $211 $-1 forward 7 unknown #
vertex $-1 $212 $393 #
ellipse-curve $-1 42.924512593200191 -25.717336422037889 3.806417024211032 0 -0.71933980857756763 0.69465836192734942 0.5 0 0 1 I I #
point $-1 43.424512593200191 -26.436676230615454 4.5010753861383819 #
edge $-1 $394 1 $394 0 $215 $-1 forward 7 unknown #
vertex $-1 $216 $395 #
ellipse-curve $-1 54.553758404997595 -25.717336422037889 3.806417024211032 0 -0.71933980857756763 0.69465836192734942 0.5 0 0 1 I I #
point $-1 55.053758404997595 -26.436676230615454 4.5010753861383819 #
plane-surface $-1 0 0 6.087092270283053 0 0 1 1 0 0 forward_v I I I I #
coedge $-1 $332 $331 $324 $396 forward $220 $-1 #
coedge $-1 $324 $222 $224 $328 reversed $139 $-1 #
coedge $-1 $222 $323 $322 $396 reversed $139 $-1 #
coedge $-1 $230 $225 $222 $326 forward $231 $-1 #
edge $-1 $329 -5.9345974213334216 $397 2.3294852081390545 $325 $398 forward 7 unknown #
coedge $-1 $224 $223 $332 $399 reversed $87 $-1 #
edge $-1 $400 -55.936549791871194 $329 -45.96826493733974 $323 $401 forward 7 unknown #
vertex $-1 $226 $402 #
straight-curve $-1 6.6957229758940926 19.704192266463128 6.0870922702830512 1 0 0 I I #
coedge $-1 $322 $227 $230 $336 reversed $220 $-1 #
coedge $-1 $227 $322 $327 $399 forward $220 $-1 #
vertex $-1 $228 $403 #
straight-curve $-1 2.5695081654240397 27.968274895935608 67.550613019800281 0 0 1 I I #
straight-curve $-1 2.5695081654240397 -18.405226286415328 31.792220142187944 0 0.82903756765294845 -0.55919291073839883 I I #
edge $-1 $397 -24.213383738152331 $232 -2.5695081654240397 $331 $404 forward 7 unknown #
point $-1 2.5695081654240397 27.968274895935608 6.087092270283053 #
point $-1 2.5695081654240397 19.704192266463131 6.0870922702830512 #
edge $-1 $405 1 $405 0 $235 $-1 forward 7 unknown #
vertex $-1 $236 $406 #
ellipse-curve $-1 8.753472614774978 23.02228339114021 2.0932643995692457 0 0.55919291073839883 0.82903756765294845 1 0 0 1 I I #
point $-1 9.753472614774978 23.836233581199355 3.2999951588455714 #
edge $-1 $407 1 $407 0 $239 $-1 forward 7 unknown #
vertex $-1 $240 $408 #
ellipse-curve $-1 18.029419288801392 23.02228339114021 2.0932643995692457 0 0.55919291073839883 0.82903756765294845 1 0 0 1 I I #
point $-1 19.029419288801392 23.836233581199355 3.2999951588455714 #
plane-surface $-1 62.306588946195873 0 0 -1 0 0 0 0 1 forward_v I I I I #
coedge $-1 $248 $246 $250 $352 reversed $161 $-1 #
edge $-1 $261 -6.087092270283053 $354 6.087092270283053 $260 $409 forward 7 unknown #
vertex $-1 $352 $410 #
straight-curve $-1 -62.306588946195873 -27.968274895935608 0 0 0 -1 I I #
edge $-1 $350 -27.968274895935608 $354 27.968274895935608 $348 $411 forward 7 unknown #
straight-curve $-1 0 -27.968274895935608 -6.087092270283053 -1 0 0 I I #
vertex $-1 $253 $412 #
straight-curve $-1 0 27.968274895935608 -6.087092270283053 1 0 0 I I #
point $-1 62.306588946195873 27.968274895935608 -6.087092270283053 #
point $-1 62.306588946195873 -27.968274895935608 -6.087092270283053 #
straight-curve $-1 -62.306588946195873 0 6.087092270283053 0 -1 0 I I #
point $-1 -62.306588946195873 27.968274895935608 6.087092270283053 #
point $-1 -62.306588946195873 -27.968274895935608 6.087092270283053 #
straight-curve $-1 62.306588946195873 -27.968274895935608 0 0 0 -1 I I #
straight-curve $-1 62.306588946195873 27.968274895935608 0 0 0 -1 I I #
plane-surface $-1 0 27.968274895935608 0 0 -1 0 0 0 -1 forward_v I I I I #
coedge $-1 $374 $373 $276 $366 forward $271 $-1 #
straight-curve $-1 -56.533981272077156 -27.968274895935608 1.0592555857071781 0 0 1 I I #
edge $-1 $369 -27.968274895935608 $367 27.968274895935608 $364 $413 forward 7 unknown #
vertex $-1 $277 $414 #
straight-curve $-1 -29.710142554568257 -27.968274895935608 0.40250734353003192 1 0 0 I I #
vertex $-1 $279 $415 #
straight-curve $-1 -29.710142554568257 27.968274895935608 0.40250734353003192 -1 0 0 I I #
point $-1 -56.533981272077156 27.968274895935608 0.40250734353003192 #
point $-1 -56.533981272077156 -27.968274895935608 0.40250734353003192 #
coedge $-1 $364 $283 $286 $376 forward $271 $-1 #
coedge $-1 $283 $364 $290 $378 reversed $271 $-1 #
straight-curve $-1 -62.306588946195873 0 3.8345149992986807 0 1 0 I I #
edge $-1 $288 -3.8345149992986807 $369 -0.40250734353003192 $286 $416 forward 7 unknown #
point $-1 -62.306588946195873 27.968274895935608 3.8345149992986807 #
edge $-1 $291 -3.8345149992986807 $367 -0.40250734353003192 $374 $417 forward 7 unknown #
point $-1 -62.306588946195873 -27.968274895935608 3.8345149992986807 #
straight-curve $-1 -56.533981272077156 27.968274895935608 1.0592555857071781 0 0 -1 I I #
coedge $-1 $385 $301 $298 $382 reversed $296 $-1 #
edge $-1 $390 -27.968274895935608 $383 -24.905077565295294 $381 $418 forward 7 unknown #
vertex $-1 $302 $419 #
straight-curve $-1 24.369567749549446 -24.905077565295294 6.0870922702830539 -1 0 0 I I #
coedge $-1 $301 $381 $303 $387 forward $296 $-1 #
straight-curve $-1 62.306588946195873 -21.948546698260099 9.1486696794227562 0 0.69465836192734942 0.71933980857756763 I I #
edge $-1 $390 -6.087092270283053 $304 -2.9150585019936979 $385 $420 forward 7 unknown #
point $-1 62.306588946195873 -27.968274895935608 2.9150585019936979 #
point $-1 35.171682052001913 -24.905077565295294 6.087092270283053 #
vertex $-1 $382 $421 #
straight-curve $-1 0 -27.968274895935608 6.087092270283053 1 0 0 I I #
vertex $-1 $313 $422 #
point $-1 43.424512593200191 -25.717336422037889 3.806417024211032 #
vertex $-1 $317 $423 #
point $-1 55.053758404997595 -25.717336422037889 3.806417024211032 #
edge $-1 $397 61.46352074951723 $400 67.037714972392166 $322 $424 forward 7 unknown #
vertex $-1 $336 $425 #
straight-curve $-1 24.213383738152331 25.638789687796553 6.0870922702830512 0 1 0 I I #
edge $-1 $400 -17.517660762258238 $333 4.1262148104700529 $332 $426 forward 7 unknown #
vertex $-1 $399 $427 #
straight-curve $-1 24.213383738152331 -18.405226286415328 31.792220142187944 0 -0.82903756765294845 0.55919291073839883 I I #
point $-1 24.213383738152331 19.704192266463131 6.0870922702830512 #
point $-1 2.5695081654240397 27.968274895935608 0.51289804740811462 #
straight-curve $-1 0 27.968274895935608 6.087092270283053 -1 0 0 I I #
vertex $-1 $339 $428 #
point $-1 9.753472614774978 23.02228339114021 2.0932643995692457 #
vertex $-1 $343 $429 #
point $-1 19.029419288801392 23.02228339114021 2.0932643995692457 #
straight-curve $-1 -62.306588946195873 27.968274895935608 0 0 0 -1 I I #
point $-1 -62.306588946195873 -27.968274895935608 -6.087092270283053 #
straight-curve $-1 -62.306588946195873 0 -6.087092270283053 0 1 0 I I #
point $-1 -62.306588946195873 27.968274895935608 -6.087092270283053 #
straight-curve $-1 -62.306588946195873 0 0.40250734353003192 0 -1 0 I I #
point $-1 -62.306588946195873 -27.968274895935608 0.40250734353003192 #
point $-1 -62.306588946195873 27.968274895935608 0.40250734353003192 #
straight-curve $-1 -62.306588946195873 27.968274895935608 0 0 0 -1 I I #
straight-curve $-1 -62.306588946195873 -27.968274895935608 0 0 0 -1 I I #
straight-curve $-1 62.306588946195873 0 6.087092270283053 0 1 0 I I #
point $-1 62.306588946195873 -24.905077565295294 6.087092270283053 #
straight-curve $-1 62.306588946195873 -27.968274895935608 0 0 0 -1 I I #
point $-1 62.306588946195873 -27.968274895935608 6.087092270283053 #
point $-1 42.924512593200191 -25.357666517749102 3.4590878432473575 #
point $-1 54.553758404997595 -25.357666517749102 3.4590878432473575 #
straight-curve $-1 24.213383738152331 27.968274895935608 67.550613019800281 0 0 -1 I I #
point $-1 24.213383738152331 27.968274895935608 6.087092270283053 #
straight-curve $-1 6.6957229758940926 27.968274895935608 0.51289804740810929 -1 0 0 I I #
point $-1 24.213383738152331 27.968274895935608 0.51289804740811462 #
point $-1 8.753472614774978 22.463090480401814 1.2642268319162975 #
point $-1 18.029419288801392 22.463090480401814 1.2642268319162975 #
End-of-ACIS-data 