500 0 10 0           
7 Unknown 11 ACIS 5.0 NT 24 Thu Mar 25 17:44:45 1999 
-1 9.9999999999999995e-007 1e-010 
body $-1 $10 $-1 $11 #
body $-1 $12 $-1 $13 #
body $-1 $14 $-1 $15 #
body $-1 $16 $-1 $17 #
body $-1 $18 $-1 $19 #
body $-1 $20 $-1 $21 #
body $-1 $22 $-1 $23 #
body $-1 $24 $-1 $25 #
body $-1 $26 $-1 $27 #
body $-1 $28 $-1 $29 #
lump $-1 $-1 $30 $0 #
transform $-1 1 0 0 0 1 0 0 0 1 59.793084505752738 30.601460876631126 9.8003683673598232 1 rotate no_reflect no_shear #
lump $-1 $-1 $31 $1 #
transform $-1 1 0 0 0 1 0 0 0 1 59.793084505752738 30.601460876631126 9.8003683673598232 1 rotate no_reflect no_shear #
lump $-1 $-1 $32 $2 #
transform $-1 1 0 0 0 1 0 0 0 1 59.793084505752738 30.601460876631126 9.8003683673598232 1 rotate no_reflect no_shear #
lump $-1 $-1 $33 $3 #
transform $-1 1 0 0 0 1 0 0 0 1 59.793084505752738 30.601460876631126 9.8003683673598232 1 rotate no_reflect no_shear #
lump $-1 $-1 $34 $4 #
transform $-1 1 0 0 0 1 0 0 0 1 59.793084505752738 30.601460876631126 9.8003683673598232 1 rotate no_reflect no_shear #
lump $-1 $-1 $35 $5 #
transform $-1 1 0 0 0 1 0 0 0 1 59.793084505752738 30.601460876631126 9.8003683673598232 1 rotate no_reflect no_shear #
lump $-1 $-1 $36 $6 #
transform $-1 1 0 0 0 1 0 0 0 1 59.793084505752738 30.601460876631126 9.8003683673598232 1 rotate no_reflect no_shear #
lump $-1 $-1 $37 $7 #
transform $-1 1 0 0 0 1 0 0 0 1 59.793084505752738 30.601460876631126 9.8003683673598232 1 rotate no_reflect no_shear #
lump $-1 $-1 $38 $8 #
transform $-1 1 0 0 0 1 0 0 0 1 59.793084505752738 30.601460876631126 9.8003683673598232 1 rotate no_reflect no_shear #
lump $-1 $-1 $39 $9 #
transform $-1 1 0 0 0 1 0 0 0 1 59.793084505752738 30.601460876631126 9.8003683673598232 1 rotate no_reflect no_shear #
shell $-1 $-1 $-1 $40 $-1 $10 #
shell $-1 $-1 $-1 $41 $-1 $12 #
shell $-1 $-1 $-1 $42 $-1 $14 #
shell $-1 $-1 $-1 $43 $-1 $16 #
shell $-1 $-1 $-1 $44 $-1 $18 #
shell $-1 $-1 $-1 $45 $-1 $20 #
shell $-1 $-1 $-1 $46 $-1 $22 #
shell $-1 $-1 $-1 $47 $-1 $24 #
shell $-1 $-1 $-1 $48 $-1 $26 #
shell $-1 $-1 $-1 $49 $-1 $28 #
face $-1 $50 $51 $30 $-1 $52 forward single #
face $-1 $53 $54 $31 $-1 $55 reversed single #
face $-1 $56 $57 $32 $-1 $58 reversed single #
face $-1 $59 $60 $33 $-1 $61 reversed single #
face $-1 $62 $63 $34 $-1 $64 forward single #
face $-1 $65 $66 $35 $-1 $67 forward single #
face $-1 $68 $69 $36 $-1 $70 forward single #
face $-1 $71 $72 $37 $-1 $73 reversed single #
face $-1 $74 $75 $38 $-1 $76 forward single #
face $-1 $77 $78 $39 $-1 $79 forward single #
face $-1 $80 $81 $30 $-1 $82 reversed single #
loop $-1 $-1 $83 $40 #
plane-surface $-1 0 0 9.8003683673598232 0 0 1 1 0 0 forward_v I I I I #
face $-1 $84 $85 $31 $-1 $86 reversed single #
loop $-1 $-1 $87 $41 #
plane-surface $-1 -57.694859944226224 -20.430367188328205 0 0 -1 0 0 0 -1 forward_v I I I I #
face $-1 $88 $89 $32 $-1 $90 reversed single #
loop $-1 $-1 $91 $42 #
plane-surface $-1 -57.694859944226224 20.430367188328205 0 0 1 0 0 0 1 forward_v I I I I #
face $-1 $92 $93 $33 $-1 $94 reversed single #
loop $-1 $-1 $95 $43 #
plane-surface $-1 -59.793084505752745 -17.275568532250929 6.585152387961287 -0.61566148304635926 0 0.78801074757464917 0.78801074757464917 0 0.61566148304635926 forward_v I I I I #
face $-1 $96 $97 $34 $-1 $98 forward single #
loop $-1 $99 $100 $44 #
cone-surface $-1 -57.427609411521999 -19.168447725897295 7.7987550038732234 0.61566148304635926 0 -0.78801074757464917 0.19700268689366229 0 0.15391537076158981 1 I I 0 1 0.25 forward I I I I #
face $-1 $101 $102 $35 $-1 $103 forward single #
loop $-1 $104 $105 $45 #
cone-surface $-1 -57.427609411521999 -17.275568532250933 7.7987550038732234 0.61566148304635926 0 -0.78801074757464917 0.19700268689366229 0 0.15391537076158981 1 I I 0 1 0.25 forward I I I I #
face $-1 $106 $107 $36 $-1 $108 forward single #
loop $-1 $109 $110 $46 #
cone-surface $-1 -57.427609411521999 -15.382689338604569 7.7987550038732234 0.61566148304635926 0 -0.78801074757464917 0.19700268689366229 0 0.15391537076158981 1 I I 0 1 0.25 forward I I I I #
face $-1 $111 $112 $37 $-1 $113 reversed single #
loop $-1 $-1 $114 $47 #
plane-surface $-1 77.47098036435824 20.430367188328201 174.02156465680227 0 -1 0 -0.77714596973225614 0 -0.62932038083071107 forward_v I I I I #
face $-1 $115 $116 $38 $-1 $117 forward single #
loop $-1 $118 $119 $48 #
cone-surface $-1 57.451758858689381 15.80359655274771 7.2205950464720647 -0.77714596973225614 0 -0.62932038083071107 0.31466019041535553 0 -0.38857298486612807 1 I I 0 1 0.5 forward I I I I #
face $-1 $120 $121 $39 $-1 $122 forward single #
loop $-1 $123 $124 $49 #
cone-surface $-1 57.451758858689381 18.579658934096006 7.2205950464720647 -0.77714596973225614 0 -0.62932038083071107 0.31466019041535553 0 -0.38857298486612807 1 I I 0 1 0.5 forward I I I I #
face $-1 $125 $126 $30 $-1 $127 reversed single #
loop $-1 $-1 $128 $50 #
plane-surface $-1 0 0 -9.8003683673598232 0 0 1 1 0 0 forward_v I I I I #
coedge $-1 $129 $130 $131 $132 forward $51 $-1 #
face $-1 $133 $134 $31 $-1 $135 forward single #
loop $-1 $-1 $136 $53 #
plane-surface $-1 -55.596635382699709 -25.515914032479664 0 -1 0 0 0 0 1 forward_v I I I I #
coedge $-1 $137 $138 $139 $140 forward $54 $-1 #
face $-1 $141 $142 $32 $-1 $143 reversed single #
loop $-1 $-1 $144 $56 #
plane-surface $-1 -55.596635382699709 25.515914032479667 0 -1 0 0 0 0 1 forward_v I I I I #
coedge $-1 $145 $146 $147 $148 reversed $57 $-1 #
face $-1 $149 $150 $33 $-1 $151 forward single #
loop $-1 $-1 $152 $59 #
plane-surface $-1 -133.41768267120878 -14.120769876173656 100.82033883030606 0 -1 0 0.61566148304635926 0 -0.78801074757464917 forward_v I I I I #
coedge $-1 $153 $154 $155 $156 reversed $60 $-1 #
face $-1 $-1 $157 $34 $-1 $158 forward single #
loop $-1 $159 $160 $62 #
cone-surface $-1 -57.042820984618025 -19.168447725897295 7.3062482866390681 0.61566148304635926 0 -0.78801074757464917 0.098501343446831147 0 0.076957685380794907 1 I I -0.70710678118654746 0.70710678118654746 0.125 forward I I I I #
loop $-1 $-1 $161 $44 #
coedge $-1 $100 $100 $162 $163 reversed $63 $-1 #
face $-1 $-1 $164 $35 $-1 $165 forward single #
loop $-1 $166 $167 $65 #
cone-surface $-1 -57.042820984618025 -17.275568532250933 7.3062482866390681 0.61566148304635926 0 -0.78801074757464917 0.098501343446831147 0 0.076957685380794907 1 I I -0.70710678118654746 0.70710678118654746 0.125 forward I I I I #
loop $-1 $-1 $168 $45 #
coedge $-1 $105 $105 $169 $170 reversed $66 $-1 #
face $-1 $-1 $171 $36 $-1 $172 forward single #
loop $-1 $173 $174 $68 #
cone-surface $-1 -57.042820984618025 -15.382689338604569 7.3062482866390681 0.61566148304635926 0 -0.78801074757464917 0.098501343446831147 0 0.076957685380794907 1 I I -0.70710678118654746 0.70710678118654746 0.125 forward I I I I #
loop $-1 $-1 $175 $46 #
coedge $-1 $110 $110 $176 $177 reversed $69 $-1 #
face $-1 $178 $179 $37 $-1 $180 reversed single #
loop $-1 $-1 $181 $71 #
plane-surface $-1 -15.464928918653655 17.191627743421858 98.763551232395869 0.77714596973225614 0 0.62932038083071107 0.62932038083071107 0 -0.77714596973225614 forward_v I I I I #
coedge $-1 $182 $183 $184 $185 reversed $72 $-1 #
face $-1 $-1 $186 $38 $-1 $187 forward single #
loop $-1 $188 $189 $74 #
cone-surface $-1 56.52467188670952 15.80359655274771 6.4698548393645581 -0.77714596973225614 0 -0.62932038083071107 0.15733009520767777 0 -0.19428649243306403 1 I I -0.70710678118654746 0.70710678118654746 0.25 forward I I I I #
loop $-1 $-1 $190 $48 #
coedge $-1 $119 $119 $191 $192 reversed $75 $-1 #
face $-1 $-1 $193 $39 $-1 $194 forward single #
loop $-1 $195 $196 $77 #
cone-surface $-1 56.52467188670952 18.579658934096006 6.4698548393645581 -0.77714596973225614 0 -0.62932038083071107 0.15733009520767777 0 -0.19428649243306403 1 I I -0.70710678118654746 0.70710678118654746 0.25 forward I I I I #
loop $-1 $-1 $197 $49 #
coedge $-1 $124 $124 $198 $199 reversed $78 $-1 #
face $-1 $200 $201 $30 $-1 $202 reversed single #
loop $-1 $-1 $203 $80 #
plane-surface $-1 0 -30.601460876631126 0 0 1 0 0 0 1 forward_v I I I I #
coedge $-1 $204 $205 $206 $207 forward $81 $-1 #
coedge $-1 $208 $83 $209 $210 forward $51 $-1 #
coedge $-1 $83 $208 $211 $212 forward $51 $-1 #
coedge $-1 $213 $214 $83 $132 reversed $215 $-1 #
edge $-1 $216 -30.601460876631126 $217 30.601460876631126 $131 $218 forward 7 unknown #
face $-1 $219 $220 $31 $-1 $221 reversed single #
loop $-1 $-1 $222 $84 #
plane-surface $-1 0 0 9.8003683673598232 0 0 1 1 0 0 forward_v I I I I #
coedge $-1 $223 $224 $225 $226 reversed $85 $-1 #
coedge $-1 $227 $87 $228 $229 reversed $54 $-1 #
coedge $-1 $87 $227 $230 $231 reversed $54 $-1 #
coedge $-1 $224 $223 $87 $140 reversed $85 $-1 #
edge $-1 $232 -9.8003683673598232 $233 9.8003683673598232 $139 $234 forward 7 unknown #
face $-1 $235 $236 $32 $-1 $237 reversed single #
loop $-1 $-1 $238 $88 #
plane-surface $-1 0 0 -9.8003683673598232 0 0 1 1 0 0 forward_v I I I I #
coedge $-1 $239 $240 $241 $242 forward $89 $-1 #
coedge $-1 $241 $91 $243 $244 reversed $57 $-1 #
coedge $-1 $91 $241 $245 $246 reversed $57 $-1 #
coedge $-1 $247 $248 $91 $148 forward $236 $-1 #
edge $-1 $249 -9.8003683673598232 $250 9.8003683673598232 $147 $251 forward 7 unknown #
face $-1 $252 $253 $33 $-1 $254 reversed single #
loop $-1 $-1 $155 $92 #
plane-surface $-1 0 0 9.8003683673598232 0 0 1 1 0 0 forward_v I I I I #
coedge $-1 $255 $256 $257 $258 reversed $93 $-1 #
coedge $-1 $259 $95 $260 $261 reversed $60 $-1 #
coedge $-1 $95 $259 $255 $262 forward $60 $-1 #
coedge $-1 $257 $263 $95 $156 forward $150 $-1 #
edge $-1 $264 -11.79258292220274 $265 -5.4829856100481908 $155 $266 forward 7 unknown #
loop $-1 $-1 $162 $96 #
plane-surface $-1 -59.793084505752745 -17.275568532250929 6.585152387961287 -0.61566148304635926 0 0.78801074757464917 0.78801074757464917 0 0.61566148304635926 forward_v I I I I #
loop $-1 $-1 $267 $62 #
coedge $-1 $160 $160 $161 $268 reversed $97 $-1 #
coedge $-1 $161 $161 $160 $268 forward $99 $-1 #
coedge $-1 $162 $162 $100 $163 forward $157 $-1 #
edge $-1 $269 0 $269 6.2831853071796004 $162 $270 forward 7 unknown #
loop $-1 $-1 $169 $101 #
plane-surface $-1 -59.793084505752745 -17.275568532250929 6.585152387961287 -0.61566148304635926 0 0.78801074757464917 0.78801074757464917 0 0.61566148304635926 forward_v I I I I #
loop $-1 $-1 $271 $65 #
coedge $-1 $167 $167 $168 $272 reversed $102 $-1 #
coedge $-1 $168 $168 $167 $272 forward $104 $-1 #
coedge $-1 $169 $169 $105 $170 forward $164 $-1 #
edge $-1 $273 0 $273 6.2831853071796004 $169 $274 forward 7 unknown #
loop $-1 $-1 $176 $106 #
plane-surface $-1 -59.793084505752745 -17.275568532250929 6.585152387961287 -0.61566148304635926 0 0.78801074757464917 0.78801074757464917 0 0.61566148304635926 forward_v I I I I #
loop $-1 $-1 $275 $68 #
coedge $-1 $174 $174 $175 $276 reversed $107 $-1 #
coedge $-1 $175 $175 $174 $276 forward $109 $-1 #
coedge $-1 $176 $176 $110 $177 forward $171 $-1 #
edge $-1 $277 0 $277 6.2831853071796004 $176 $278 forward 7 unknown #
face $-1 $279 $280 $37 $-1 $281 reversed single #
loop $-1 $-1 $282 $111 #
plane-surface $-1 77.47098036435824 13.952888298515514 174.02156465680227 0 1 0 0.77714596973225614 0 0.62932038083071107 forward_v I I I I #
coedge $-1 $283 $284 $285 $286 reversed $112 $-1 #
coedge $-1 $183 $114 $287 $288 reversed $72 $-1 #
coedge $-1 $114 $182 $283 $289 reversed $72 $-1 #
coedge $-1 $285 $290 $114 $185 forward $291 $-1 #
edge $-1 $292 -21.057594323573618 $293 -17.840543988540503 $184 $294 forward 7 unknown #
loop $-1 $-1 $191 $115 #
plane-surface $-1 -15.464928918653655 17.191627743421858 98.763551232395869 0.77714596973225614 0 0.62932038083071107 0.62932038083071107 0 -0.77714596973225614 forward_v I I I I #
loop $-1 $-1 $295 $74 #
coedge $-1 $189 $189 $190 $296 reversed $116 $-1 #
coedge $-1 $190 $190 $189 $296 forward $118 $-1 #
coedge $-1 $191 $191 $119 $192 forward $186 $-1 #
edge $-1 $297 0 $297 6.2831853071796004 $191 $298 forward 7 unknown #
loop $-1 $-1 $198 $120 #
plane-surface $-1 -15.464928918653655 17.191627743421858 98.763551232395869 0.77714596973225614 0 0.62932038083071107 0.62932038083071107 0 -0.77714596973225614 forward_v I I I I #
loop $-1 $-1 $299 $77 #
coedge $-1 $196 $196 $197 $300 reversed $121 $-1 #
coedge $-1 $197 $197 $196 $300 forward $123 $-1 #
coedge $-1 $198 $198 $124 $199 forward $193 $-1 #
edge $-1 $301 0 $301 6.2831853071796004 $198 $302 forward 7 unknown #
face $-1 $303 $304 $30 $-1 $305 reversed single #
loop $-1 $-1 $306 $125 #
plane-surface $-1 -59.793084505752738 0 0 1 0 0 0 0 -1 forward_v I I I I #
coedge $-1 $307 $211 $308 $309 forward $126 $-1 #
coedge $-1 $310 $128 $307 $311 forward $81 $-1 #
coedge $-1 $128 $310 $312 $313 forward $81 $-1 #
coedge $-1 $214 $213 $128 $207 reversed $215 $-1 #
edge $-1 $314 -30.601460876631126 $315 30.601460876631126 $206 $316 forward 7 unknown #
coedge $-1 $130 $129 $317 $318 forward $51 $-1 #
coedge $-1 $319 $320 $129 $210 reversed $304 $-1 #
edge $-1 $217 -59.793084505752738 $321 59.793084505752738 $209 $322 forward 7 unknown #
coedge $-1 $203 $323 $130 $212 reversed $126 $-1 #
edge $-1 $324 -59.793084505752738 $216 59.793084505752738 $211 $325 forward 7 unknown #
coedge $-1 $206 $131 $323 $326 forward $215 $-1 #
coedge $-1 $131 $206 $319 $327 reversed $215 $-1 #
loop $-1 $-1 $213 $303 #
vertex $-1 $132 $328 #
vertex $-1 $132 $329 #
straight-curve $-1 59.793084505752738 0 9.8003683673598232 0 1 0 I I #
face $-1 $330 $331 $31 $-1 $332 reversed single #
loop $-1 $-1 $333 $133 #
plane-surface $-1 -59.793084505752738 0 0 1 0 0 0 0 -1 forward_v I I I I #
coedge $-1 $230 $334 $224 $335 forward $134 $-1 #
coedge $-1 $139 $136 $336 $337 reversed $85 $-1 #
coedge $-1 $136 $139 $222 $335 reversed $85 $-1 #
coedge $-1 $338 $339 $136 $226 forward $340 $-1 #
edge $-1 $341 -9.8003683673598232 $342 9.8003683673598232 $225 $343 forward 7 unknown #
coedge $-1 $138 $137 $333 $344 reversed $54 $-1 #
coedge $-1 $336 $345 $137 $229 forward $331 $-1 #
edge $-1 $346 -30.945654533639626 $233 -26.749205410586598 $228 $347 forward 7 unknown #
coedge $-1 $348 $222 $138 $231 forward $134 $-1 #
edge $-1 $232 26.749205410586598 $349 30.945654533639626 $230 $350 forward 7 unknown #
vertex $-1 $231 $351 #
vertex $-1 $229 $352 #
straight-curve $-1 -55.596635382699709 -20.430367188328205 0 0 0 -1 I I #
face $-1 $353 $354 $32 $-1 $355 forward single #
loop $-1 $-1 $147 $141 #
plane-surface $-1 -59.793084505752738 0 0 1 0 0 0 0 -1 forward_v I I I I #
coedge $-1 $243 $356 $239 $357 forward $142 $-1 #
coedge $-1 $358 $144 $238 $357 reversed $89 $-1 #
coedge $-1 $144 $358 $359 $360 reversed $89 $-1 #
coedge $-1 $146 $145 $144 $242 reversed $57 $-1 #
edge $-1 $361 -9.8003683673598232 $362 9.8003683673598232 $144 $363 forward 7 unknown #
coedge $-1 $364 $238 $145 $244 forward $142 $-1 #
edge $-1 $362 26.749205410586598 $249 30.945654533639626 $243 $365 forward 7 unknown #
coedge $-1 $359 $366 $146 $246 forward $354 $-1 #
edge $-1 $250 -30.945654533639626 $361 -26.749205410586598 $245 $367 forward 7 unknown #
coedge $-1 $368 $147 $366 $369 reversed $236 $-1 #
coedge $-1 $147 $368 $364 $370 reversed $236 $-1 #
vertex $-1 $370 $371 #
vertex $-1 $148 $372 #
straight-curve $-1 -59.793084505752738 20.430367188328205 0 0 0 1 I I #
face $-1 $-1 $373 $33 $-1 $374 forward single #
loop $-1 $-1 $375 $149 #
plane-surface $-1 -59.793084505752738 0 0 1 0 0 0 0 -1 forward_v I I I I #
coedge $-1 $256 $152 $154 $262 reversed $93 $-1 #
coedge $-1 $152 $255 $376 $377 reversed $93 $-1 #
coedge $-1 $378 $155 $152 $258 forward $150 $-1 #
edge $-1 $265 -11.031045535266756 $379 -6.9157568298516523 $257 $380 forward 7 unknown #
coedge $-1 $154 $153 $375 $381 reversed $60 $-1 #
coedge $-1 $382 $383 $153 $261 forward $373 $-1 #
edge $-1 $384 1.2004005899752646 $264 6.422776957405782 $260 $385 forward 7 unknown #
edge $-1 $386 8.8800565823946346e-015 $265 5.2223763674305266 $255 $387 forward 7 unknown #
coedge $-1 $155 $378 $382 $388 forward $150 $-1 #
vertex $-1 $156 $389 #
vertex $-1 $156 $390 #
straight-curve $-1 -55.677795800337634 -8.6377842661254647 9.8003683673598214 0 1 0 I I #
coedge $-1 $267 $267 $-1 $391 reversed $159 $-1 #
edge $-1 $392 0 $392 6.2831853071796004 $160 $393 forward 7 unknown #
vertex $-1 $163 $394 #
ellipse-curve $-1 -57.73544015304519 -19.168447725897295 8.1927603776605586 -0.61566148304635926 0 0.78801074757464917 0.19700268689366229 0 0.15391537076158981 1 I I #
coedge $-1 $271 $271 $-1 $395 reversed $166 $-1 #
edge $-1 $396 0 $396 6.2831853071796004 $167 $397 forward 7 unknown #
vertex $-1 $170 $398 #
ellipse-curve $-1 -57.73544015304519 -17.275568532250933 8.1927603776605586 -0.61566148304635926 0 0.78801074757464917 0.19700268689366229 0 0.15391537076158981 1 I I #
coedge $-1 $275 $275 $-1 $399 reversed $173 $-1 #
edge $-1 $400 0 $400 6.2831853071796004 $174 $401 forward 7 unknown #
vertex $-1 $177 $402 #
ellipse-curve $-1 -57.73544015304519 -15.382689338604569 8.1927603776605586 -0.61566148304635926 0 0.78801074757464917 0.19700268689366229 0 0.15391537076158981 1 I I #
face $-1 $-1 $291 $37 $-1 $403 forward single #
loop $-1 $-1 $404 $178 #
plane-surface $-1 59.793084505752738 0 0 -1 0 0 0 0 1 forward_v I I I I #
coedge $-1 $405 $406 $407 $408 reversed $179 $-1 #
coedge $-1 $409 $181 $183 $289 forward $112 $-1 #
coedge $-1 $181 $409 $405 $410 forward $112 $-1 #
coedge $-1 $407 $184 $181 $286 forward $291 $-1 #
edge $-1 $293 -11.834553316617273 $411 -5.3570744268045853 $285 $412 forward 7 unknown #
coedge $-1 $413 $414 $182 $288 forward $280 $-1 #
edge $-1 $415 -81.183140379017146 $292 -77.210413961041311 $287 $416 forward 7 unknown #
edge $-1 $293 114.47422534493207 $415 119.58616901150546 $183 $417 forward 7 unknown #
coedge $-1 $184 $407 $413 $418 forward $291 $-1 #
loop $-1 $-1 $407 $279 #
vertex $-1 $288 $419 #
vertex $-1 $185 $420 #
straight-curve $-1 38.73549018217912 20.430367188328201 9.8003683673598232 -1 0 0 I I #
coedge $-1 $295 $295 $-1 $421 reversed $188 $-1 #
edge $-1 $422 0 $422 6.2831853071796004 $189 $423 forward 7 unknown #
vertex $-1 $192 $424 #
ellipse-curve $-1 58.184559338236184 15.80359655274771 7.8140051583718941 0.77714596973225614 0 0.62932038083071107 0.31466019041535553 0 -0.38857298486612807 1 I I #
coedge $-1 $299 $299 $-1 $425 reversed $195 $-1 #
edge $-1 $426 0 $426 6.2831853071796004 $196 $427 forward 7 unknown #
vertex $-1 $199 $428 #
ellipse-curve $-1 58.184559338236184 18.579658934096006 7.8140051583718941 0.77714596973225614 0 0.62932038083071107 0.31466019041535553 0 -0.38857298486612807 1 I I #
face $-1 $-1 $215 $30 $-1 $429 reversed single #
loop $-1 $-1 $319 $200 #
plane-surface $-1 0 30.601460876631126 0 0 -1 0 0 0 -1 forward_v I I I I #
coedge $-1 $430 $317 $320 $431 forward $201 $-1 #
coedge $-1 $323 $203 $204 $311 reversed $126 $-1 #
coedge $-1 $317 $430 $203 $309 reversed $201 $-1 #
edge $-1 $324 -9.8003683673598232 $432 9.8003683673598232 $308 $433 forward 7 unknown #
coedge $-1 $205 $204 $430 $434 forward $81 $-1 #
edge $-1 $315 -59.793084505752738 $432 59.793084505752738 $307 $435 forward 7 unknown #
coedge $-1 $320 $319 $205 $313 reversed $304 $-1 #
edge $-1 $436 -59.793084505752738 $314 59.793084505752738 $312 $437 forward 7 unknown #
vertex $-1 $207 $438 #
vertex $-1 $326 $439 #
straight-curve $-1 59.793084505752738 0 -9.8003683673598232 0 -1 0 I I #
coedge $-1 $306 $308 $208 $318 reversed $201 $-1 #
edge $-1 $321 -30.601460876631126 $324 30.601460876631126 $317 $440 forward 7 unknown #
coedge $-1 $312 $209 $214 $327 forward $304 $-1 #
coedge $-1 $209 $312 $306 $431 reversed $304 $-1 #
vertex $-1 $210 $441 #
straight-curve $-1 0 30.601460876631126 9.8003683673598232 -1 0 0 I I #
coedge $-1 $211 $307 $213 $326 reversed $126 $-1 #
vertex $-1 $318 $442 #
straight-curve $-1 0 -30.601460876631126 9.8003683673598232 1 0 0 I I #
edge $-1 $216 -9.8003683673598232 $315 9.8003683673598232 $213 $443 forward 7 unknown #
edge $-1 $217 -9.8003683673598232 $314 9.8003683673598232 $214 $444 forward 7 unknown #
point $-1 59.793084505752738 -30.601460876631126 9.8003683673598232 #
point $-1 59.793084505752738 30.601460876631126 9.8003683673598232 #
face $-1 $-1 $340 $31 $-1 $445 reversed single #
loop $-1 $-1 $336 $219 #
plane-surface $-1 0 0 -9.8003683673598232 0 0 1 1 0 0 forward_v I I I I #
coedge $-1 $446 $447 $227 $344 forward $220 $-1 #
coedge $-1 $222 $348 $338 $448 forward $134 $-1 #
edge $-1 $342 -17.843503860391291 $232 -7.6724101720883731 $222 $449 forward 7 unknown #
coedge $-1 $450 $228 $223 $337 forward $331 $-1 #
edge $-1 $233 7.6724101720883731 $341 17.843503860391291 $336 $451 forward 7 unknown #
coedge $-1 $452 $225 $334 $448 reversed $340 $-1 #
coedge $-1 $225 $452 $450 $453 reversed $340 $-1 #
loop $-1 $-1 $225 $330 #
vertex $-1 $453 $454 #
vertex $-1 $226 $455 #
straight-curve $-1 -55.596635382699709 -30.601460876631126 0 0 0 1 I I #
edge $-1 $349 -9.8003683673598232 $346 9.8003683673598232 $333 $456 forward 7 unknown #
coedge $-1 $228 $450 $446 $457 forward $331 $-1 #
vertex $-1 $229 $458 #
straight-curve $-1 -28.847429972113112 -20.430367188328205 -9.8003683673598232 1 0 0 I I #
coedge $-1 $334 $230 $447 $459 forward $134 $-1 #
vertex $-1 $459 $460 #
straight-curve $-1 -28.847429972113112 -20.430367188328205 9.8003683673598232 -1 0 0 I I #
point $-1 -55.596635382699709 -20.430367188328205 9.8003683673598232 #
point $-1 -55.596635382699709 -20.430367188328205 -9.8003683673598232 #
face $-1 $-1 $461 $32 $-1 $462 reversed single #
loop $-1 $-1 $359 $235 #
plane-surface $-1 0 0 9.8003683673598232 0 0 1 1 0 0 forward_v I I I I #
coedge $-1 $238 $364 $463 $464 forward $142 $-1 #
edge $-1 $465 -17.843503860391294 $362 -7.6724101720883713 $238 $466 forward 7 unknown #
coedge $-1 $240 $239 $467 $468 reversed $89 $-1 #
coedge $-1 $469 $245 $240 $360 forward $354 $-1 #
edge $-1 $361 7.6724101720883713 $470 17.843503860391294 $359 $471 forward 7 unknown #
vertex $-1 $246 $472 #
vertex $-1 $244 $473 #
straight-curve $-1 -55.596635382699709 20.430367188328205 0 0 0 -1 I I #
coedge $-1 $356 $243 $248 $370 forward $142 $-1 #
straight-curve $-1 -28.847429972113112 20.430367188328205 -9.8003683673598232 -1 0 0 I I #
coedge $-1 $245 $469 $247 $369 forward $354 $-1 #
straight-curve $-1 -28.847429972113112 20.430367188328205 9.8003683673598232 1 0 0 I I #
coedge $-1 $248 $247 $474 $475 forward $236 $-1 #
edge $-1 $476 -30.601460876631126 $250 -20.430367188328205 $247 $477 forward 7 unknown #
edge $-1 $249 20.430367188328205 $478 30.601460876631126 $248 $479 forward 7 unknown #
point $-1 -59.793084505752738 20.430367188328205 -9.8003683673598232 #
point $-1 -59.793084505752738 20.430367188328205 9.8003683673598232 #
loop $-1 $-1 $260 $252 #
plane-surface $-1 -57.694859944226224 -20.430367188328205 0 0 -1 0 0 0 -1 forward_v I I I I #
coedge $-1 $480 $376 $259 $381 forward $253 $-1 #
coedge $-1 $375 $481 $256 $377 forward $253 $-1 #
edge $-1 $379 40.609801047793205 $386 43.825017027191734 $376 $482 forward 7 unknown #
coedge $-1 $263 $257 $481 $483 forward $150 $-1 #
vertex $-1 $483 $484 #
straight-curve $-1 -66.70884133560439 -14.120769876173656 9.8003683673598232 -1 0 0 I I #
edge $-1 $386 5.4829856100481908 $384 11.79258292220274 $375 $485 forward 7 unknown #
coedge $-1 $383 $260 $263 $388 reversed $373 $-1 #
coedge $-1 $260 $382 $480 $486 reversed $373 $-1 #
vertex $-1 $486 $487 #
straight-curve $-1 -60.739013072048195 -20.430367188328205 5.8461119804873949 0.78801074757464917 0 0.61566148304635926 I I #
vertex $-1 $381 $488 #
straight-curve $-1 -59.793084505752745 -14.120769876173656 6.585152387961287 0.78801074757464917 0 0.61566148304635926 I I #
edge $-1 $489 -30.945654533639626 $264 -26.830365828224522 $263 $490 forward 7 unknown #
point $-1 -55.677795800337634 -20.430367188328205 9.8003683673598232 #
point $-1 -55.677795800337634 -14.120769876173656 9.8003683673598232 #
edge $-1 $491 1 $491 0 $267 $-1 forward 7 unknown #
vertex $-1 $268 $492 #
ellipse-curve $-1 -57.119778669998823 -19.168447725897295 7.4047496300858988 -0.61566148304635926 0 0.78801074757464917 0.19700268689366229 0 0.15391537076158981 1 I I #
point $-1 -57.538437466151514 -19.168447725897295 8.3466757484221379 #
edge $-1 $493 1 $493 0 $271 $-1 forward 7 unknown #
vertex $-1 $272 $494 #
ellipse-curve $-1 -57.119778669998823 -17.275568532250933 7.4047496300858988 -0.61566148304635926 0 0.78801074757464917 0.19700268689366229 0 0.15391537076158981 1 I I #
point $-1 -57.538437466151514 -17.275568532250933 8.3466757484221379 #
edge $-1 $495 1 $495 0 $275 $-1 forward 7 unknown #
vertex $-1 $276 $496 #
ellipse-curve $-1 -57.119778669998823 -15.382689338604569 7.4047496300858988 -0.61566148304635926 0 0.78801074757464917 0.19700268689366229 0 0.15391537076158981 1 I I #
point $-1 -57.538437466151514 -15.382689338604569 8.3466757484221379 #
plane-surface $-1 0 0 9.8003683673598232 0 0 1 1 0 0 forward_v I I I I #
coedge $-1 $414 $413 $406 $497 forward $280 $-1 #
coedge $-1 $406 $282 $284 $410 reversed $179 $-1 #
coedge $-1 $282 $405 $404 $497 reversed $179 $-1 #
coedge $-1 $290 $285 $282 $408 forward $291 $-1 #
edge $-1 $411 17.840543988540503 $498 21.057594323573618 $407 $499 forward 7 unknown #
coedge $-1 $284 $283 $414 $500 reversed $112 $-1 #
edge $-1 $501 -119.58616901150546 $411 -114.47422534493207 $405 $502 forward 7 unknown #
vertex $-1 $286 $503 #
straight-curve $-1 56.576034170719623 8.5958138717109289 9.8003683673598303 0 -1 0 I I #
coedge $-1 $404 $287 $290 $418 reversed $280 $-1 #
coedge $-1 $287 $404 $409 $500 forward $280 $-1 #
vertex $-1 $288 $504 #
straight-curve $-1 59.793084505752738 20.430367188328201 87.010782328401135 0 0 1 I I #
straight-curve $-1 -15.464928918653655 20.430367188328201 98.763551232395869 0.62932038083071107 0 -0.77714596973225614 I I #
edge $-1 $498 13.952888298515514 $292 20.430367188328201 $413 $505 forward 7 unknown #
point $-1 59.793084505752738 20.430367188328201 9.8003683673598232 #
point $-1 56.576034170719623 20.430367188328201 9.8003683673598232 #
edge $-1 $506 1 $506 0 $295 $-1 forward 7 unknown #
vertex $-1 $296 $507 #
ellipse-curve $-1 56.718958379142585 15.80359655274771 6.6271849345722362 0.77714596973225614 0 0.62932038083071107 0.31466019041535553 0 -0.38857298486612807 1 I I #
point $-1 58.499219528651537 15.80359655274771 7.4254321735057651 #
edge $-1 $508 1 $508 0 $299 $-1 forward 7 unknown #
vertex $-1 $300 $509 #
ellipse-curve $-1 56.718958379142585 18.579658934096006 6.6271849345722362 0.77714596973225614 0 0.62932038083071107 0.31466019041535553 0 -0.38857298486612807 1 I I #
point $-1 58.499219528651537 18.579658934096006 7.4254321735057651 #
plane-surface $-1 59.793084505752738 0 0 -1 0 0 0 0 1 forward_v I I I I #
coedge $-1 $308 $306 $310 $434 reversed $201 $-1 #
edge $-1 $321 -9.8003683673598232 $436 9.8003683673598232 $320 $510 forward 7 unknown #
vertex $-1 $434 $511 #
straight-curve $-1 -59.793084505752738 -30.601460876631126 0 0 0 -1 I I #
edge $-1 $432 -30.601460876631126 $436 30.601460876631126 $430 $512 forward 7 unknown #
straight-curve $-1 0 -30.601460876631126 -9.8003683673598232 -1 0 0 I I #
vertex $-1 $313 $513 #
straight-curve $-1 0 30.601460876631126 -9.8003683673598232 1 0 0 I I #
point $-1 59.793084505752738 30.601460876631126 -9.8003683673598232 #
point $-1 59.793084505752738 -30.601460876631126 -9.8003683673598232 #
straight-curve $-1 -59.793084505752738 0 9.8003683673598232 0 -1 0 I I #
point $-1 -59.793084505752738 30.601460876631126 9.8003683673598232 #
point $-1 -59.793084505752738 -30.601460876631126 9.8003683673598232 #
straight-curve $-1 59.793084505752738 -30.601460876631126 0 0 0 -1 I I #
straight-curve $-1 59.793084505752738 30.601460876631126 0 0 0 -1 I I #
plane-surface $-1 0 -30.601460876631126 0 0 1 0 0 0 1 forward_v I I I I #
coedge $-1 $514 $333 $345 $457 reversed $220 $-1 #
coedge $-1 $333 $514 $348 $459 reversed $220 $-1 #
edge $-1 $515 -59.793084505752738 $342 -55.596635382699709 $338 $516 forward 7 unknown #
straight-curve $-1 -55.596635382699709 -12.757957016239832 9.8003683673598232 0 1 0 I I #
coedge $-1 $345 $336 $339 $453 forward $331 $-1 #
straight-curve $-1 -55.596635382699709 -12.757957016239832 -9.8003683673598232 0 -1 0 I I #
coedge $-1 $339 $338 $514 $517 forward $340 $-1 #
edge $-1 $341 55.596635382699709 $518 59.793084505752738 $339 $519 forward 7 unknown #
point $-1 -55.596635382699709 -30.601460876631123 -9.8003683673598232 #
point $-1 -55.596635382699709 -30.601460876631123 9.8003683673598232 #
straight-curve $-1 -59.793084505752738 -20.430367188328205 0 0 0 -1 I I #
edge $-1 $518 -30.601460876631126 $346 -20.430367188328205 $446 $520 forward 7 unknown #
point $-1 -59.793084505752738 -20.430367188328205 -9.8003683673598232 #
edge $-1 $349 20.430367188328205 $515 30.601460876631126 $447 $521 forward 7 unknown #
point $-1 -59.793084505752738 -20.430367188328205 9.8003683673598232 #
loop $-1 $-1 $467 $353 #
plane-surface $-1 0 30.601460876631126 0 0 -1 0 0 0 -1 forward_v I I I I #
coedge $-1 $474 $467 $356 $464 reversed $461 $-1 #
edge $-1 $478 -59.793084505752738 $465 -55.596635382699709 $463 $522 forward 7 unknown #
vertex $-1 $357 $523 #
straight-curve $-1 -55.596635382699709 12.757957016239834 -9.8003683673598232 0 -1 0 I I #
coedge $-1 $463 $524 $358 $468 forward $461 $-1 #
edge $-1 $470 -9.8003683673598232 $465 9.8003683673598232 $467 $525 forward 7 unknown #
coedge $-1 $366 $359 $524 $526 forward $354 $-1 #
vertex $-1 $526 $527 #
straight-curve $-1 -55.596635382699709 12.757957016239834 9.8003683673598232 0 1 0 I I #
point $-1 -55.596635382699709 20.430367188328205 9.8003683673598232 #
point $-1 -55.596635382699709 20.430367188328205 -9.8003683673598232 #
coedge $-1 $524 $463 $368 $475 reversed $461 $-1 #
edge $-1 $476 -9.8003683673598232 $478 9.8003683673598232 $474 $528 forward 7 unknown #
vertex $-1 $526 $529 #
straight-curve $-1 -59.793084505752738 0 9.8003683673598232 0 -1 0 I I #
vertex $-1 $464 $530 #
straight-curve $-1 -59.793084505752738 0 -9.8003683673598232 0 1 0 I I #
coedge $-1 $481 $375 $383 $486 forward $253 $-1 #
coedge $-1 $376 $480 $378 $483 reversed $253 $-1 #
straight-curve $-1 -59.793084505752738 -14.120769876173656 50.410169415153028 0 0 -1 I I #
edge $-1 $379 14.120769876173656 $489 20.430367188328205 $481 $531 forward 7 unknown #
point $-1 -59.793084505752738 -14.120769876173656 9.8003683673598232 #
straight-curve $-1 -59.793084505752738 -8.6377842661254647 6.585152387961295 0 -1 0 I I #
edge $-1 $384 6.5851523879612923 $489 9.8003683673598232 $480 $532 forward 7 unknown #
point $-1 -59.793084505752738 -20.430367188328205 6.5851523879612923 #
point $-1 -59.793084505752738 -14.120769876173656 6.5851523879612923 #
vertex $-1 $486 $533 #
straight-curve $-1 -28.847429972113112 -20.430367188328205 9.8003683673598232 1 0 0 I I #
vertex $-1 $391 $534 #
point $-1 -56.922775983105154 -19.168447725897295 7.5586650008474887 #
vertex $-1 $395 $535 #
point $-1 -56.922775983105154 -17.275568532250933 7.5586650008474887 #
vertex $-1 $399 $536 #
point $-1 -56.922775983105154 -15.382689338604569 7.5586650008474887 #
edge $-1 $498 77.210413961041311 $501 81.183140379017146 $404 $537 forward 7 unknown #
vertex $-1 $418 $538 #
straight-curve $-1 38.73549018217912 13.952888298515514 9.8003683673598232 1 0 0 I I #
edge $-1 $501 5.3570744268045853 $415 11.834553316617273 $414 $539 forward 7 unknown #
vertex $-1 $500 $540 #
straight-curve $-1 -15.464928918653655 13.952888298515514 98.763551232395869 -0.62932038083071107 0 0.77714596973225614 I I #
point $-1 56.576034170719623 13.952888298515514 9.8003683673598232 #
point $-1 59.793084505752731 20.430367188328201 5.8276419493839882 #
straight-curve $-1 59.793084505752738 0 9.8003683673598232 0 1 0 I I #
vertex $-1 $421 $541 #
point $-1 57.033618569557937 15.80359655274771 6.2386119497061081 #
vertex $-1 $425 $542 #
point $-1 57.033618569557937 18.579658934096006 6.2386119497061081 #
straight-curve $-1 -59.793084505752738 30.601460876631126 0 0 0 -1 I I #
point $-1 -59.793084505752738 -30.601460876631126 -9.8003683673598232 #
straight-curve $-1 -59.793084505752738 0 -9.8003683673598232 0 1 0 I I #
point $-1 -59.793084505752738 30.601460876631126 -9.8003683673598232 #
coedge $-1 $447 $446 $452 $517 reversed $220 $-1 #
vertex $-1 $459 $543 #
straight-curve $-1 0 -30.601460876631126 9.8003683673598232 1 0 0 I I #
edge $-1 $515 -9.8003683673598232 $518 9.8003683673598232 $514 $544 forward 7 unknown #
vertex $-1 $457 $545 #
straight-curve $-1 0 -30.601460876631126 -9.8003683673598232 -1 0 0 I I #
straight-curve $-1 -59.793084505752738 0 -9.8003683673598232 0 1 0 I I #
straight-curve $-1 -59.793084505752738 0 9.8003683673598232 0 -1 0 I I #
straight-curve $-1 0 30.601460876631126 -9.8003683673598232 1 0 0 I I #
point $-1 -55.596635382699709 30.60146087663113 -9.8003683673598232 #
coedge $-1 $467 $474 $469 $526 reversed $461 $-1 #
straight-curve $-1 -55.596635382699709 30.601460876631126 0 0 0 -1 I I #
edge $-1 $470 55.596635382699709 $476 59.793084505752738 $524 $546 forward 7 unknown #
point $-1 -55.596635382699709 30.60146087663113 9.8003683673598232 #
straight-curve $-1 -59.793084505752738 30.601460876631126 0 0 0 -1 I I #
point $-1 -59.793084505752738 30.601460876631126 9.8003683673598232 #
point $-1 -59.793084505752738 30.601460876631126 -9.8003683673598232 #
straight-curve $-1 -59.793084505752738 0 9.8003683673598232 0 -1 0 I I #
straight-curve $-1 -59.793084505752738 -20.430367188328205 0 0 0 1 I I #
point $-1 -59.793084505752738 -20.430367188328205 9.8003683673598232 #
point $-1 -56.965863299237228 -19.168447725897295 7.2077469431922374 #
point $-1 -56.965863299237228 -17.275568532250933 7.2077469431922374 #
point $-1 -56.965863299237228 -15.382689338604569 7.2077469431922374 #
straight-curve $-1 59.793084505752738 13.952888298515514 87.010782328401135 0 0 -1 I I #
point $-1 59.793084505752738 13.952888298515514 9.8003683673598232 #
straight-curve $-1 59.793084505752738 8.5958138717109289 5.8276419493839953 0 1 0 I I #
point $-1 59.793084505752731 13.952888298515514 5.8276419493839882 #
point $-1 56.330385394276455 15.80359655274771 6.3125247441568799 #
point $-1 56.330385394276455 18.579658934096006 6.3125247441568799 #
point $-1 -59.793084505752738 -30.601460876631126 9.8003683673598232 #
straight-curve $-1 -59.793084505752738 -30.601460876631126 0 0 0 -1 I I #
point $-1 -59.793084505752738 -30.601460876631126 -9.8003683673598232 #
straight-curve $-1 0 30.601460876631126 9.8003683673598232 -1 0 0 I I #
End-of-ACIS-data 