500 0 6 0           
7 Unknown 11 ACIS 5.0 NT 24 Fri Mar 26 18:56:51 1999 
-1 9.9999999999999995e-007 1e-010 
body $-1 $6 $-1 $7 #
body $-1 $8 $-1 $9 #
body $-1 $10 $-1 $11 #
body $-1 $12 $-1 $13 #
body $-1 $14 $-1 $15 #
body $-1 $16 $-1 $17 #
lump $-1 $-1 $18 $0 #
transform $-1 1 0 0 0 1 0 0 0 1 43.907589953306683 25.568831329570326 12.061758885271779 1 rotate no_reflect no_shear #
lump $-1 $-1 $19 $1 #
transform $-1 1 0 0 0 1 0 0 0 1 43.907589953306683 25.568831329570326 12.061758885271779 1 rotate no_reflect no_shear #
lump $-1 $-1 $20 $2 #
transform $-1 1 0 0 0 1 0 0 0 1 43.907589953306683 25.568831329570326 12.061758885271779 1 rotate no_reflect no_shear #
lump $-1 $-1 $21 $3 #
transform $-1 1 0 0 0 1 0 0 0 1 43.907589953306683 25.568831329570326 12.061758885271779 1 rotate no_reflect no_shear #
lump $-1 $-1 $22 $4 #
transform $-1 1 0 0 0 1 0 0 0 1 43.907589953306683 25.568831329570326 12.061758885271779 1 rotate no_reflect no_shear #
lump $-1 $-1 $23 $5 #
transform $-1 1 0 0 0 1 0 0 0 1 43.907589953306683 25.568831329570326 12.061758885271779 1 rotate no_reflect no_shear #
shell $-1 $-1 $-1 $24 $-1 $6 #
shell $-1 $-1 $-1 $25 $-1 $8 #
shell $-1 $-1 $-1 $26 $-1 $10 #
shell $-1 $-1 $-1 $27 $-1 $12 #
shell $-1 $-1 $-1 $28 $-1 $14 #
shell $-1 $-1 $-1 $29 $-1 $16 #
face $-1 $30 $31 $18 $-1 $32 forward single #
face $-1 $33 $34 $19 $-1 $35 forward single #
face $-1 $36 $37 $20 $-1 $38 reversed single #
face $-1 $39 $40 $21 $-1 $41 reversed single #
face $-1 $42 $43 $22 $-1 $44 forward single #
face $-1 $45 $46 $23 $-1 $47 forward single #
face $-1 $48 $49 $18 $-1 $50 reversed single #
loop $-1 $-1 $51 $24 #
plane-surface $-1 0 0 12.061758885271779 0 0 1 1 0 0 forward_v I I I I #
face $-1 $52 $53 $19 $-1 $54 reversed single #
loop $-1 $-1 $55 $25 #
plane-surface $-1 0 -18.345182451808594 -7.1305251934819367 0 0 1 1 0 0 forward_v I I I I #
face $-1 $56 $57 $20 $-1 $58 reversed single #
loop $-1 $-1 $59 $26 #
plane-surface $-1 0 17.617059635858244 5.6131885399863393 0 0 1 1 0 0 forward_v I I I I #
face $-1 $60 $61 $21 $-1 $62 reversed single #
loop $-1 $-1 $63 $27 #
plane-surface $-1 30.926262135157756 5.0617545516299991 126.65735675479425 0 -1 0 -0.62932039886446345 0 -0.77714595512881146 forward_v I I I I #
face $-1 $64 $65 $22 $-1 $66 forward single #
loop $-1 $67 $68 $28 #
cone-surface $-1 38.061161700367997 0.71296597419258845 7.1816850613486647 -0.62932039886446345 0 -0.77714595512881146 0.38857297756440573 0 -0.31466019943223172 1 I I 0 1 0.5 forward I I I I #
face $-1 $69 $70 $23 $-1 $71 forward single #
loop $-1 $72 $73 $29 #
cone-surface $-1 38.061161700367997 3.3222391206550341 7.1816850613486647 -0.62932039886446345 0 -0.77714595512881146 0.38857297756440573 0 -0.31466019943223172 1 I I 0 1 0.5 forward I I I I #
face $-1 $74 $75 $18 $-1 $76 reversed single #
loop $-1 $-1 $77 $30 #
plane-surface $-1 0 0 -12.061758885271779 0 0 1 1 0 0 forward_v I I I I #
coedge $-1 $78 $79 $80 $81 forward $31 $-1 #
face $-1 $82 $83 $19 $-1 $84 reversed single #
loop $-1 $-1 $85 $33 #
plane-surface $-1 0 -11.121533574046861 -9.5961420393768577 0 -1 0 0 0 -1 forward_v I I I I #
coedge $-1 $86 $87 $88 $89 reversed $34 $-1 #
face $-1 $90 $91 $20 $-1 $92 reversed single #
loop $-1 $-1 $93 $36 #
plane-surface $-1 0 9.6652879421461577 8.837473712629059 0 1 0 0 0 1 forward_v I I I I #
coedge $-1 $94 $95 $96 $97 reversed $37 $-1 #
face $-1 $98 $99 $21 $-1 $100 reversed single #
loop $-1 $-1 $101 $39 #
plane-surface $-1 -24.337621910026783 2.0176025474238131 58.412144891460798 0.62932039886446345 0 0.77714595512881146 0.77714595512881146 0 -0.62932039886446345 forward_v I I I I #
coedge $-1 $102 $103 $104 $105 reversed $40 $-1 #
face $-1 $-1 $106 $22 $-1 $107 forward single #
loop $-1 $108 $109 $42 #
cone-surface $-1 37.561029926124704 0.71296597419258845 6.5640737681411139 -0.62932039886446345 0 -0.77714595512881146 0.19428648878220287 0 -0.15733009971611586 1 I I -0.70710678118654746 0.70710678118654746 0.25 forward I I I I #
loop $-1 $-1 $110 $28 #
coedge $-1 $68 $68 $111 $112 reversed $43 $-1 #
face $-1 $-1 $113 $23 $-1 $114 forward single #
loop $-1 $115 $116 $45 #
cone-surface $-1 37.561029926124704 3.3222391206550341 6.5640737681411139 -0.62932039886446345 0 -0.77714595512881146 0.19428648878220287 0 -0.15733009971611586 1 I I -0.70710678118654746 0.70710678118654746 0.25 forward I I I I #
loop $-1 $-1 $117 $29 #
coedge $-1 $73 $73 $118 $119 reversed $46 $-1 #
face $-1 $120 $121 $18 $-1 $122 reversed single #
loop $-1 $-1 $123 $48 #
plane-surface $-1 0 -25.568831329570326 0 0 1 0 0 0 1 forward_v I I I I #
coedge $-1 $124 $125 $126 $127 forward $49 $-1 #
coedge $-1 $128 $51 $129 $130 forward $31 $-1 #
coedge $-1 $51 $128 $131 $132 forward $31 $-1 #
coedge $-1 $133 $134 $51 $81 reversed $135 $-1 #
edge $-1 $136 -25.568831329570326 $137 25.568831329570326 $80 $138 forward 7 unknown #
face $-1 $139 $140 $19 $-1 $141 reversed single #
loop $-1 $-1 $142 $52 #
plane-surface $-1 0 0 -12.061758885271779 0 0 1 1 0 0 forward_v I I I I #
coedge $-1 $143 $144 $145 $146 reversed $53 $-1 #
coedge $-1 $147 $55 $144 $148 forward $34 $-1 #
coedge $-1 $55 $147 $149 $150 reversed $34 $-1 #
coedge $-1 $151 $145 $55 $89 forward $140 $-1 #
edge $-1 $152 1.9489423481425643 $153 16.396240103666031 $88 $154 forward 7 unknown #
face $-1 $155 $156 $20 $-1 $157 reversed single #
loop $-1 $-1 $158 $56 #
plane-surface $-1 0 25.568831329570326 0 0 -1 0 0 0 -1 forward_v I I I I #
coedge $-1 $159 $160 $161 $162 reversed $57 $-1 #
coedge $-1 $163 $59 $159 $164 forward $37 $-1 #
coedge $-1 $59 $163 $158 $165 reversed $37 $-1 #
coedge $-1 $166 $167 $59 $97 forward $168 $-1 #
edge $-1 $169 0.8567581242170359 $170 16.76030151164121 $96 $171 forward 7 unknown #
face $-1 $172 $173 $21 $-1 $174 forward single #
loop $-1 $-1 $175 $60 #
plane-surface $-1 30.926262135157756 -1.026549456782373 126.65735675479425 0 1 0 0.62932039886446345 0 0.77714595512881146 forward_v I I I I #
coedge $-1 $176 $177 $178 $179 reversed $61 $-1 #
coedge $-1 $103 $63 $180 $181 reversed $40 $-1 #
coedge $-1 $63 $102 $176 $182 reversed $40 $-1 #
coedge $-1 $178 $183 $63 $105 forward $173 $-1 #
edge $-1 $184 -28.444458885727805 $185 -17.437205728904814 $104 $186 forward 7 unknown #
loop $-1 $-1 $111 $64 #
plane-surface $-1 -24.337621910026783 2.0176025474238131 58.412144891460798 0.62932039886446345 0 0.77714595512881146 0.77714595512881146 0 -0.62932039886446345 forward_v I I I I #
loop $-1 $-1 $187 $42 #
coedge $-1 $109 $109 $110 $188 reversed $65 $-1 #
coedge $-1 $110 $110 $109 $188 forward $67 $-1 #
coedge $-1 $111 $111 $68 $112 forward $106 $-1 #
edge $-1 $189 0 $189 6.2831853071796004 $111 $190 forward 7 unknown #
loop $-1 $-1 $118 $69 #
plane-surface $-1 -24.337621910026783 2.0176025474238131 58.412144891460798 0.62932039886446345 0 0.77714595512881146 0.77714595512881146 0 -0.62932039886446345 forward_v I I I I #
loop $-1 $-1 $191 $45 #
coedge $-1 $116 $116 $117 $192 reversed $70 $-1 #
coedge $-1 $117 $117 $116 $192 forward $72 $-1 #
coedge $-1 $118 $118 $73 $119 forward $113 $-1 #
edge $-1 $193 0 $193 6.2831853071796004 $118 $194 forward 7 unknown #
face $-1 $195 $196 $18 $-1 $197 reversed single #
loop $-1 $-1 $198 $74 #
plane-surface $-1 -43.907589953306683 0 0 1 0 0 0 0 -1 forward_v I I I I #
coedge $-1 $199 $131 $200 $201 forward $75 $-1 #
coedge $-1 $202 $77 $199 $203 forward $49 $-1 #
coedge $-1 $77 $202 $204 $205 forward $49 $-1 #
coedge $-1 $134 $133 $77 $127 reversed $135 $-1 #
edge $-1 $206 -25.568831329570326 $207 25.568831329570326 $126 $208 forward 7 unknown #
coedge $-1 $79 $78 $209 $210 forward $31 $-1 #
coedge $-1 $211 $212 $78 $130 reversed $196 $-1 #
edge $-1 $137 -43.907589953306683 $213 43.907589953306683 $129 $214 forward 7 unknown #
coedge $-1 $123 $215 $79 $132 reversed $75 $-1 #
edge $-1 $216 -43.907589953306683 $136 43.907589953306683 $131 $217 forward 7 unknown #
coedge $-1 $126 $80 $215 $218 forward $135 $-1 #
coedge $-1 $80 $126 $211 $219 reversed $135 $-1 #
loop $-1 $-1 $133 $195 #
vertex $-1 $81 $220 #
vertex $-1 $81 $221 #
straight-curve $-1 43.907589953306683 0 12.061758885271779 0 1 0 I I #
face $-1 $222 $223 $19 $-1 $224 reversed single #
loop $-1 $-1 $145 $82 #
plane-surface $-1 43.907589953306683 0 0 -1 0 0 0 0 1 forward_v I I I I #
coedge $-1 $225 $226 $143 $227 forward $83 $-1 #
coedge $-1 $228 $85 $142 $227 reversed $53 $-1 #
coedge $-1 $85 $228 $86 $148 reversed $53 $-1 #
coedge $-1 $88 $229 $85 $146 forward $140 $-1 #
edge $-1 $230 -7.2636878655833499 $152 -2.3324541737935078 $145 $231 forward 7 unknown #
coedge $-1 $87 $86 $232 $233 reversed $34 $-1 #
edge $-1 $152 -43.907589953306683 $234 43.907589953306683 $144 $235 forward 7 unknown #
coedge $-1 $236 $237 $87 $150 forward $223 $-1 #
edge $-1 $153 -43.907589953306683 $238 43.907589953306683 $149 $239 forward 7 unknown #
coedge $-1 $229 $88 $237 $240 forward $140 $-1 #
vertex $-1 $89 $241 #
vertex $-1 $240 $242 #
straight-curve $-1 43.907589953306683 -9.1725912259042968 -7.1305251934819367 0 -1 0 I I #
face $-1 $243 $244 $20 $-1 $245 forward single #
loop $-1 $-1 $246 $90 #
plane-surface $-1 -43.907589953306683 0 0 1 0 0 0 0 -1 forward_v I I I I #
coedge $-1 $247 $248 $95 $165 forward $91 $-1 #
coedge $-1 $249 $93 $94 $164 reversed $57 $-1 #
coedge $-1 $93 $249 $250 $251 reversed $57 $-1 #
coedge $-1 $252 $246 $93 $162 forward $156 $-1 #
edge $-1 $253 1.1944516836718098 $254 7.6430220289572492 $161 $255 forward 7 unknown #
coedge $-1 $95 $94 $246 $256 reversed $37 $-1 #
edge $-1 $169 -43.907589953306683 $253 43.907589953306683 $159 $257 forward 7 unknown #
edge $-1 $170 -43.907589953306683 $258 43.907589953306683 $158 $259 forward 7 unknown #
coedge $-1 $260 $96 $248 $261 reversed $168 $-1 #
coedge $-1 $96 $260 $249 $262 forward $168 $-1 #
loop $-1 $-1 $96 $243 #
vertex $-1 $97 $263 #
vertex $-1 $165 $264 #
straight-curve $-1 43.907589953306683 8.8085298179291218 5.6131885399863393 0 1 0 I I #
face $-1 $-1 $265 $21 $-1 $266 reversed single #
loop $-1 $-1 $104 $98 #
plane-surface $-1 0 0 12.061758885271779 0 0 1 1 0 0 forward_v I I I I #
coedge $-1 $267 $268 $269 $270 reversed $99 $-1 #
coedge $-1 $271 $101 $103 $182 forward $61 $-1 #
coedge $-1 $101 $271 $267 $272 forward $61 $-1 #
coedge $-1 $269 $104 $101 $179 forward $173 $-1 #
edge $-1 $185 -4.0529532779180926 $273 2.0353507304942795 $178 $274 forward 7 unknown #
coedge $-1 $275 $276 $102 $181 forward $265 $-1 #
edge $-1 $277 -60.180417531120874 $184 -51.266919492125346 $180 $278 forward 7 unknown #
edge $-1 $185 73.651491497531268 $277 87.81517990661338 $103 $279 forward 7 unknown #
coedge $-1 $104 $269 $275 $280 forward $173 $-1 #
vertex $-1 $181 $281 #
vertex $-1 $105 $282 #
straight-curve $-1 15.463131067578878 5.0617545516299991 12.061758885271779 -1 0 0 I I #
coedge $-1 $187 $187 $-1 $283 reversed $108 $-1 #
edge $-1 $284 0 $284 6.2831853071796004 $109 $285 forward 7 unknown #
vertex $-1 $112 $286 #
ellipse-curve $-1 38.403963374895184 0.71296597419258845 7.6050098657740222 0.62932039886446345 0 0.77714595512881146 0.38857297756440573 0 -0.31466019943223172 1 I I #
coedge $-1 $191 $191 $-1 $287 reversed $115 $-1 #
edge $-1 $288 0 $288 6.2831853071796004 $116 $289 forward 7 unknown #
vertex $-1 $119 $290 #
ellipse-curve $-1 38.403963374895184 3.3222391206550341 7.6050098657740222 0.62932039886446345 0 0.77714595512881146 0.38857297756440573 0 -0.31466019943223172 1 I I #
face $-1 $-1 $135 $18 $-1 $291 reversed single #
loop $-1 $-1 $211 $120 #
plane-surface $-1 0 25.568831329570326 0 0 -1 0 0 0 -1 forward_v I I I I #
coedge $-1 $292 $209 $212 $293 forward $121 $-1 #
coedge $-1 $215 $123 $124 $203 reversed $75 $-1 #
coedge $-1 $209 $292 $123 $201 reversed $121 $-1 #
edge $-1 $216 -12.061758885271779 $294 12.061758885271779 $200 $295 forward 7 unknown #
coedge $-1 $125 $124 $292 $296 forward $49 $-1 #
edge $-1 $207 -43.907589953306683 $294 43.907589953306683 $199 $297 forward 7 unknown #
coedge $-1 $212 $211 $125 $205 reversed $196 $-1 #
edge $-1 $298 -43.907589953306683 $206 43.907589953306683 $204 $299 forward 7 unknown #
vertex $-1 $127 $300 #
vertex $-1 $218 $301 #
straight-curve $-1 43.907589953306683 0 -12.061758885271779 0 -1 0 I I #
coedge $-1 $198 $200 $128 $210 reversed $121 $-1 #
edge $-1 $213 -25.568831329570326 $216 25.568831329570326 $209 $302 forward 7 unknown #
coedge $-1 $204 $129 $134 $219 forward $196 $-1 #
coedge $-1 $129 $204 $198 $293 reversed $196 $-1 #
vertex $-1 $130 $303 #
straight-curve $-1 0 25.568831329570326 12.061758885271779 -1 0 0 I I #
coedge $-1 $131 $199 $133 $218 reversed $75 $-1 #
vertex $-1 $210 $304 #
straight-curve $-1 0 -25.568831329570326 12.061758885271779 1 0 0 I I #
edge $-1 $136 -12.061758885271779 $207 12.061758885271779 $133 $305 forward 7 unknown #
edge $-1 $137 -12.061758885271779 $206 12.061758885271779 $134 $306 forward 7 unknown #
point $-1 43.907589953306683 -25.568831329570326 12.061758885271779 #
point $-1 43.907589953306683 25.568831329570326 12.061758885271779 #
face $-1 $-1 $307 $19 $-1 $308 reversed single #
loop $-1 $-1 $149 $139 #
plane-surface $-1 0 -25.568831329570326 0 0 1 0 0 0 1 forward_v I I I I #
coedge $-1 $309 $142 $229 $310 forward $83 $-1 #
coedge $-1 $142 $309 $311 $312 forward $83 $-1 #
edge $-1 $313 -43.907589953306683 $230 43.907589953306683 $142 $314 forward 7 unknown #
coedge $-1 $144 $143 $315 $316 reversed $53 $-1 #
coedge $-1 $145 $151 $225 $310 reversed $140 $-1 #
vertex $-1 $310 $317 #
straight-curve $-1 43.907589953306683 -11.121533574046861 -4.7980710196884289 0 0 1 I I #
coedge $-1 $315 $318 $147 $233 forward $307 $-1 #
edge $-1 $238 -16.396240103666031 $234 -1.9489423481425643 $232 $319 forward 7 unknown #
vertex $-1 $233 $320 #
straight-curve $-1 0 -11.121533574046861 -7.1305251934819367 -1 0 0 I I #
coedge $-1 $321 $149 $318 $322 forward $223 $-1 #
coedge $-1 $149 $321 $151 $240 reversed $223 $-1 #
vertex $-1 $322 $323 #
straight-curve $-1 0 -25.568831329570326 -7.1305251934819367 -1 0 0 I I #
edge $-1 $153 7.1305251934819367 $324 12.061758885271779 $151 $325 forward 7 unknown #
point $-1 43.907589953306683 -11.121533574046861 -7.1305251934819367 #
point $-1 43.907589953306683 -25.568831329570326 -7.1305251934819367 #
face $-1 $-1 $168 $20 $-1 $326 reversed single #
loop $-1 $-1 $250 $155 #
plane-surface $-1 0 0 12.061758885271779 0 0 1 1 0 0 forward_v I I I I #
coedge $-1 $161 $327 $163 $256 forward $156 $-1 #
coedge $-1 $328 $158 $327 $329 reversed $91 $-1 #
coedge $-1 $158 $328 $166 $261 forward $91 $-1 #
coedge $-1 $160 $159 $167 $262 reversed $57 $-1 #
coedge $-1 $330 $331 $160 $251 forward $244 $-1 #
edge $-1 $254 -43.907589953306683 $332 43.907589953306683 $250 $333 forward 7 unknown #
coedge $-1 $327 $161 $331 $334 reversed $156 $-1 #
vertex $-1 $256 $335 #
vertex $-1 $162 $336 #
straight-curve $-1 -43.907589953306683 9.6652879421461577 4.4187368563145295 0 0 1 I I #
edge $-1 $258 -16.76030151164121 $253 -0.8567581242170359 $246 $337 forward 7 unknown #
straight-curve $-1 0 9.6652879421461577 5.6131885399863393 -1 0 0 I I #
vertex $-1 $165 $338 #
straight-curve $-1 0 25.568831329570326 5.6131885399863393 -1 0 0 I I #
coedge $-1 $167 $166 $330 $339 reversed $168 $-1 #
edge $-1 $340 -12.061758885271779 $170 -5.6131885399863393 $166 $341 forward 7 unknown #
edge $-1 $332 -7.6430220289572492 $169 -1.1944516836718098 $167 $342 forward 7 unknown #
point $-1 43.907589953306683 9.6652879421461577 5.6131885399863393 #
point $-1 43.907589953306683 25.56883132957033 5.6131885399863393 #
loop $-1 $-1 $180 $172 #
plane-surface $-1 43.907589953306683 0 0 -1 0 0 0 0 1 forward_v I I I I #
coedge $-1 $268 $175 $177 $272 reversed $99 $-1 #
coedge $-1 $175 $267 $343 $344 reversed $99 $-1 #
coedge $-1 $183 $178 $175 $270 forward $173 $-1 #
edge $-1 $273 17.437205728904814 $345 28.444458885727805 $269 $346 forward 7 unknown #
coedge $-1 $177 $176 $276 $347 reversed $61 $-1 #
edge $-1 $348 -87.81517990661338 $273 -73.651491497531268 $267 $349 forward 7 unknown #
vertex $-1 $179 $350 #
straight-curve $-1 32.9003367964837 1.0088012737119065 12.061758885271779 0 -1 0 I I #
coedge $-1 $343 $180 $183 $280 reversed $265 $-1 #
coedge $-1 $180 $343 $271 $347 forward $265 $-1 #
vertex $-1 $181 $351 #
straight-curve $-1 43.907589953306683 5.0617545516299991 63.328678377397125 0 0 1 I I #
straight-curve $-1 -24.337621910026783 5.0617545516299991 58.412144891460798 0.77714595512881146 0 -0.62932039886446345 I I #
edge $-1 $345 -1.026549456782373 $184 5.0617545516299991 $275 $352 forward 7 unknown #
point $-1 43.907589953306683 5.0617545516299991 12.061758885271779 #
point $-1 32.900336796483693 5.0617545516299991 12.061758885271786 #
edge $-1 $353 1 $353 0 $187 $-1 forward 7 unknown #
vertex $-1 $188 $354 #
ellipse-curve $-1 37.718360025840816 0.71296597419258845 6.758360256923317 0.62932039886446345 0 0.77714595512881146 0.38857297756440573 0 -0.31466019943223172 1 I I #
point $-1 38.792536352459585 0.71296597419258845 7.2903496663417817 #
edge $-1 $355 1 $355 0 $191 $-1 forward 7 unknown #
vertex $-1 $192 $356 #
ellipse-curve $-1 37.718360025840816 3.3222391206550341 6.758360256923317 0.62932039886446345 0 0.77714595512881146 0.38857297756440573 0 -0.31466019943223172 1 I I #
point $-1 38.792536352459585 3.3222391206550341 7.2903496663417817 #
plane-surface $-1 43.907589953306683 0 0 -1 0 0 0 0 1 forward_v I I I I #
coedge $-1 $200 $198 $202 $296 reversed $121 $-1 #
edge $-1 $213 -12.061758885271779 $298 12.061758885271779 $212 $357 forward 7 unknown #
vertex $-1 $296 $358 #
straight-curve $-1 -43.907589953306683 -25.568831329570326 0 0 0 -1 I I #
edge $-1 $294 -25.568831329570326 $298 25.568831329570326 $292 $359 forward 7 unknown #
straight-curve $-1 0 -25.568831329570326 -12.061758885271779 -1 0 0 I I #
vertex $-1 $205 $360 #
straight-curve $-1 0 25.568831329570326 -12.061758885271779 1 0 0 I I #
point $-1 43.907589953306683 25.568831329570326 -12.061758885271779 #
point $-1 43.907589953306683 -25.568831329570326 -12.061758885271779 #
straight-curve $-1 -43.907589953306683 0 12.061758885271779 0 -1 0 I I #
point $-1 -43.907589953306683 25.568831329570326 12.061758885271779 #
point $-1 -43.907589953306683 -25.568831329570326 12.061758885271779 #
straight-curve $-1 43.907589953306683 -25.568831329570326 0 0 0 -1 I I #
straight-curve $-1 43.907589953306683 25.568831329570326 0 0 0 -1 I I #
loop $-1 $-1 $315 $222 #
plane-surface $-1 -43.907589953306683 0 0 1 0 0 0 0 -1 forward_v I I I I #
coedge $-1 $226 $225 $321 $361 forward $83 $-1 #
edge $-1 $230 11.121533574046861 $324 25.568831329570326 $229 $362 forward 7 unknown #
coedge $-1 $318 $315 $226 $312 reversed $307 $-1 #
edge $-1 $363 -25.568831329570326 $313 -11.121533574046861 $311 $364 forward 7 unknown #
vertex $-1 $316 $365 #
straight-curve $-1 0 -11.121533574046861 -12.061758885271779 1 0 0 I I #
coedge $-1 $311 $232 $228 $316 forward $307 $-1 #
edge $-1 $234 2.3324541737935078 $313 7.2636878655833499 $315 $366 forward 7 unknown #
point $-1 43.907589953306683 -11.121533574046861 -12.061758885271779 #
coedge $-1 $232 $311 $236 $322 reversed $307 $-1 #
straight-curve $-1 -43.907589953306683 -9.1725912259042968 -7.1305251934819367 0 1 0 I I #
point $-1 -43.907589953306683 -11.121533574046861 -7.1305251934819367 #
coedge $-1 $237 $236 $309 $361 reversed $223 $-1 #
edge $-1 $238 7.1305251934819367 $363 12.061758885271779 $318 $367 forward 7 unknown #
point $-1 -43.907589953306683 -25.568831329570326 -7.1305251934819367 #
vertex $-1 $240 $368 #
straight-curve $-1 43.907589953306683 -25.568831329570326 0 0 0 -1 I I #
plane-surface $-1 43.907589953306683 0 0 -1 0 0 0 0 1 forward_v I I I I #
coedge $-1 $246 $252 $247 $329 forward $156 $-1 #
coedge $-1 $248 $247 $369 $370 reversed $91 $-1 #
edge $-1 $371 -12.061758885271779 $258 -5.6131885399863393 $247 $372 forward 7 unknown #
coedge $-1 $369 $250 $260 $339 forward $244 $-1 #
coedge $-1 $250 $369 $252 $334 forward $244 $-1 #
vertex $-1 $339 $373 #
straight-curve $-1 0 9.6652879421461577 12.061758885271779 1 0 0 I I #
edge $-1 $371 -25.568831329570326 $254 -9.6652879421461577 $252 $374 forward 7 unknown #
point $-1 -43.907589953306683 9.6652879421461577 5.6131885399863393 #
point $-1 -43.907589953306683 9.6652879421461577 12.061758885271779 #
straight-curve $-1 -43.907589953306683 8.8085298179291218 5.6131885399863393 0 -1 0 I I #
point $-1 -43.907589953306683 25.56883132957033 5.6131885399863393 #
edge $-1 $332 9.6652879421461577 $340 25.568831329570326 $260 $375 forward 7 unknown #
vertex $-1 $339 $376 #
straight-curve $-1 43.907589953306683 25.568831329570326 0 0 0 -1 I I #
straight-curve $-1 43.907589953306683 9.6652879421461577 4.4187368563145295 0 0 -1 I I #
coedge $-1 $276 $275 $268 $344 forward $265 $-1 #
edge $-1 $345 51.266919492125346 $348 60.180417531120874 $343 $377 forward 7 unknown #
vertex $-1 $280 $378 #
straight-curve $-1 15.463131067578878 -1.026549456782373 12.061758885271779 1 0 0 I I #
edge $-1 $348 -2.0353507304942795 $277 4.0529532779180926 $276 $379 forward 7 unknown #
vertex $-1 $347 $380 #
straight-curve $-1 -24.337621910026783 -1.026549456782373 58.412144891460798 -0.77714595512881146 0 0.62932039886446345 I I #
point $-1 32.900336796483693 -1.026549456782373 12.061758885271786 #
point $-1 43.907589953306683 5.0617545516299991 3.1482608462762514 #
straight-curve $-1 43.907589953306683 0 12.061758885271779 0 1 0 I I #
vertex $-1 $283 $381 #
point $-1 38.106933003405224 0.71296597419258845 6.4437000574910854 #
vertex $-1 $287 $382 #
point $-1 38.106933003405224 3.3222391206550341 6.4437000574910854 #
straight-curve $-1 -43.907589953306683 25.568831329570326 0 0 0 -1 I I #
point $-1 -43.907589953306683 -25.568831329570326 -12.061758885271779 #
straight-curve $-1 -43.907589953306683 0 -12.061758885271779 0 1 0 I I #
point $-1 -43.907589953306683 25.568831329570326 -12.061758885271779 #
edge $-1 $324 -43.907589953306683 $363 43.907589953306683 $321 $383 forward 7 unknown #
straight-curve $-1 43.907589953306683 0 -12.061758885271779 0 -1 0 I I #
vertex $-1 $312 $384 #
straight-curve $-1 -43.907589953306683 0 -12.061758885271779 0 1 0 I I #
point $-1 -43.907589953306683 -11.121533574046861 -12.061758885271779 #
straight-curve $-1 -43.907589953306683 -11.121533574046861 -4.7980710196884289 0 0 -1 I I #
straight-curve $-1 -43.907589953306683 -25.568831329570326 0 0 0 -1 I I #
point $-1 43.907589953306683 -25.568831329570326 -12.061758885271779 #
coedge $-1 $331 $330 $328 $370 forward $244 $-1 #
edge $-1 $340 -43.907589953306683 $371 43.907589953306683 $328 $385 forward 7 unknown #
vertex $-1 $370 $386 #
straight-curve $-1 -43.907589953306683 25.568831329570326 0 0 0 -1 I I #
point $-1 43.907589953306683 9.6652879421461577 12.061758885271779 #
straight-curve $-1 -43.907589953306683 0 12.061758885271779 0 -1 0 I I #
straight-curve $-1 43.907589953306683 0 12.061758885271779 0 1 0 I I #
point $-1 43.907589953306683 25.568831329570326 12.061758885271779 #
straight-curve $-1 43.907589953306683 -1.026549456782373 63.328678377397125 0 0 -1 I I #
point $-1 43.907589953306683 -1.026549456782373 12.061758885271779 #
straight-curve $-1 43.907589953306683 1.0088012737119065 3.1482608462762549 0 1 0 I I #
point $-1 43.907589953306683 -1.026549456782373 3.1482608462762514 #
point $-1 37.403699826408591 0.71296597419258845 6.3697872793589108 #
point $-1 37.403699826408591 3.3222391206550341 6.3697872793589108 #
straight-curve $-1 0 -25.568831329570326 -12.061758885271779 -1 0 0 I I #
point $-1 -43.907589953306683 -25.568831329570326 -12.061758885271779 #
straight-curve $-1 0 25.568831329570326 12.061758885271779 -1 0 0 I I #
point $-1 -43.907589953306683 25.568831329570326 12.061758885271779 #
End-of-ACIS-data 