500 0 8 0           
7 Unknown 11 ACIS 5.0 NT 24 Thu Mar 25 18:05:34 1999 
-1 9.9999999999999995e-007 1e-010 
body $-1 $8 $-1 $9 #
body $-1 $10 $-1 $11 #
body $-1 $12 $-1 $13 #
body $-1 $14 $-1 $15 #
body $-1 $16 $-1 $17 #
body $-1 $18 $-1 $19 #
body $-1 $20 $-1 $21 #
body $-1 $22 $-1 $23 #
lump $-1 $-1 $24 $0 #
transform $-1 1 0 0 0 1 0 0 0 1 65.568407238990446 30.619867877141878 14.085400875849093 1 rotate no_reflect no_shear #
lump $-1 $-1 $25 $1 #
transform $-1 1 0 0 0 1 0 0 0 1 65.568407238990446 30.619867877141878 14.085400875849093 1 rotate no_reflect no_shear #
lump $-1 $-1 $26 $2 #
transform $-1 1 0 0 0 1 0 0 0 1 65.568407238990446 30.619867877141878 14.085400875849093 1 rotate no_reflect no_shear #
lump $-1 $-1 $27 $3 #
transform $-1 1 0 0 0 1 0 0 0 1 65.568407238990446 30.619867877141878 14.085400875849093 1 rotate no_reflect no_shear #
lump $-1 $-1 $28 $4 #
transform $-1 1 0 0 0 1 0 0 0 1 65.568407238990446 30.619867877141878 14.085400875849093 1 rotate no_reflect no_shear #
lump $-1 $-1 $29 $5 #
transform $-1 1 0 0 0 1 0 0 0 1 65.568407238990446 30.619867877141878 14.085400875849093 1 rotate no_reflect no_shear #
lump $-1 $-1 $30 $6 #
transform $-1 1 0 0 0 1 0 0 0 1 65.568407238990446 30.619867877141878 14.085400875849093 1 rotate no_reflect no_shear #
lump $-1 $-1 $31 $7 #
transform $-1 1 0 0 0 1 0 0 0 1 65.568407238990446 30.619867877141878 14.085400875849093 1 rotate no_reflect no_shear #
shell $-1 $-1 $-1 $32 $-1 $8 #
shell $-1 $-1 $-1 $33 $-1 $10 #
shell $-1 $-1 $-1 $34 $-1 $12 #
shell $-1 $-1 $-1 $35 $-1 $14 #
shell $-1 $-1 $-1 $36 $-1 $16 #
shell $-1 $-1 $-1 $37 $-1 $18 #
shell $-1 $-1 $-1 $38 $-1 $20 #
shell $-1 $-1 $-1 $39 $-1 $22 #
face $-1 $40 $41 $24 $-1 $42 forward single #
face $-1 $43 $44 $25 $-1 $45 forward single #
face $-1 $46 $47 $26 $-1 $48 reversed single #
face $-1 $49 $50 $27 $-1 $51 forward single #
face $-1 $52 $53 $28 $-1 $54 reversed single #
face $-1 $55 $56 $29 $-1 $57 forward single #
face $-1 $58 $59 $30 $-1 $60 reversed single #
face $-1 $61 $62 $31 $-1 $63 forward single #
face $-1 $64 $65 $24 $-1 $66 reversed single #
loop $-1 $-1 $67 $32 #
plane-surface $-1 0 0 14.085400875849093 0 0 1 1 0 0 forward_v I I I I #
face $-1 $68 $69 $25 $-1 $70 reversed single #
loop $-1 $-1 $71 $33 #
plane-surface $-1 0 -30.619867877141878 0 0 1 0 0 0 1 forward_v I I I I #
face $-1 $72 $73 $26 $-1 $74 reversed single #
loop $-1 $-1 $75 $34 #
plane-surface $-1 97.77241276743645 7.9847677445274812 185.95984094994634 0 -1 0 -0.81915205242281985 0 -0.57357642473473569 forward_v I I I I #
face $-1 $76 $77 $27 $-1 $78 forward single #
loop $-1 $79 $80 $35 #
cone-surface $-1 60.965026273940545 4.4066320558400989 8.1189410416109133 -0.81915205242281985 0 -0.57357642473473569 0.86036463710210354 0 -1.2287280786342298 1 I I 0 1 1.5 forward I I I I #
face $-1 $81 $82 $28 $-1 $83 reversed single #
loop $-1 $-1 $84 $36 #
plane-surface $-1 97.77241276743645 23.463596499767114 185.95984094994634 0 1 0 0.81915205242281985 0 0.57357642473473569 forward_v I I I I #
face $-1 $85 $86 $29 $-1 $87 forward single #
loop $-1 $88 $89 $37 #
cone-surface $-1 60.965026273940545 27.041732188454496 8.1189410416109133 -0.81915205242281985 0 -0.57357642473473569 0.86036463710210354 0 -1.2287280786342298 1 I I 0 1 1.5 forward I I I I #
face $-1 $90 $91 $30 $-1 $92 reversed single #
loop $-1 $-1 $93 $38 #
plane-surface $-1 -158.29613909545122 -2.7761051435320159 101.56776769676749 0 1 0 -0.70710678939079041 0 0.70710677298230451 forward_v I I I I #
face $-1 $94 $95 $31 $-1 $96 forward single #
loop $-1 $97 $98 $39 #
cone-surface $-1 -61.246345414085525 3.795324463031335 9.7633390295188729 0.70710678939079041 0 -0.70710677298230451 1.0606601594734568 0 1.0606601840861856 1 I I 0 1 1.5 forward I I I I #
face $-1 $99 $100 $24 $-1 $101 reversed single #
loop $-1 $-1 $102 $40 #
plane-surface $-1 0 0 -14.085400875849093 0 0 1 1 0 0 forward_v I I I I #
coedge $-1 $103 $104 $105 $106 forward $41 $-1 #
face $-1 $107 $108 $25 $-1 $109 reversed single #
loop $-1 $-1 $110 $43 #
plane-surface $-1 0 0 -14.085400875849093 0 0 1 1 0 0 forward_v I I I I #
coedge $-1 $111 $112 $113 $114 forward $44 $-1 #
face $-1 $115 $116 $26 $-1 $117 reversed single #
loop $-1 $-1 $118 $46 #
plane-surface $-1 -9.64857796039216 4.4066320558400989 110.74285575056373 0.81915205242281985 0 0.57357642473473569 0.57357642473473569 0 -0.81915205242281985 forward_v I I I I #
coedge $-1 $119 $120 $121 $122 reversed $47 $-1 #
face $-1 $-1 $123 $27 $-1 $124 forward single #
loop $-1 $125 $126 $49 #
cone-surface $-1 59.515635626907525 4.4066320558400989 7.104066815378669 -0.81915205242281985 0 -0.57357642473473569 0.43018231855105177 0 -0.61436403931711492 1 I I -0.70710678118654757 0.70710678118654757 0.75 forward I I I I #
loop $-1 $-1 $127 $35 #
coedge $-1 $80 $80 $128 $129 reversed $50 $-1 #
face $-1 $130 $131 $28 $-1 $132 reversed single #
loop $-1 $-1 $133 $52 #
plane-surface $-1 -9.64857796039216 27.041732188454496 110.74285575056373 0.81915205242281985 0 0.57357642473473569 0.57357642473473569 0 -0.81915205242281985 forward_v I I I I #
coedge $-1 $134 $135 $136 $137 reversed $53 $-1 #
face $-1 $-1 $138 $29 $-1 $139 forward single #
loop $-1 $140 $141 $55 #
cone-surface $-1 59.515635626907525 27.041732188454496 7.104066815378669 -0.81915205242281985 0 -0.57357642473473569 0.43018231855105177 0 -0.61436403931711492 1 I I -0.70710678118654757 0.70710678118654757 0.75 forward I I I I #
loop $-1 $-1 $142 $37 #
coedge $-1 $89 $89 $143 $144 reversed $56 $-1 #
face $-1 $145 $146 $30 $-1 $147 reversed single #
loop $-1 $-1 $148 $58 #
plane-surface $-1 -65.568407238990432 3.795324463031335 8.840037992063273 -0.70710678939079041 0 0.70710677298230451 0.70710677298230451 0 0.70710678939079041 forward_v I I I I #
coedge $-1 $149 $150 $151 $152 reversed $59 $-1 #
face $-1 $-1 $153 $31 $-1 $154 forward single #
loop $-1 $155 $156 $61 #
cone-surface $-1 -59.016634878170834 3.795324463031335 7.5336285453448433 0.70710678939079041 0 -0.70710677298230451 0.53033007973672841 0 0.53033009204309278 1 I I -0.70710678118654757 0.70710678118654757 0.75 forward I I I I #
loop $-1 $-1 $157 $39 #
coedge $-1 $98 $98 $158 $159 reversed $62 $-1 #
face $-1 $160 $161 $24 $-1 $162 reversed single #
loop $-1 $-1 $163 $64 #
plane-surface $-1 0 -30.619867877141878 0 0 1 0 0 0 1 forward_v I I I I #
coedge $-1 $164 $165 $166 $167 forward $65 $-1 #
coedge $-1 $168 $67 $169 $170 forward $41 $-1 #
coedge $-1 $67 $168 $171 $172 forward $41 $-1 #
coedge $-1 $173 $174 $67 $106 reversed $175 $-1 #
edge $-1 $176 -30.619867877141878 $177 30.619867877141878 $105 $178 forward 7 unknown #
face $-1 $179 $180 $25 $-1 $181 forward single #
loop $-1 $-1 $182 $68 #
plane-surface $-1 65.568407238990446 0 0 -1 0 0 0 0 1 forward_v I I I I #
coedge $-1 $183 $184 $185 $186 forward $69 $-1 #
coedge $-1 $185 $71 $182 $187 reversed $44 $-1 #
coedge $-1 $71 $185 $188 $189 reversed $44 $-1 #
coedge $-1 $190 $191 $71 $114 reversed $180 $-1 #
edge $-1 $192 -65.568407238990446 $193 65.568407238990446 $113 $194 forward 7 unknown #
face $-1 $195 $196 $26 $-1 $197 reversed single #
loop $-1 $-1 $198 $72 #
plane-surface $-1 97.77241276743645 0.82849636715271657 185.95984094994634 0 1 0 0.81915205242281985 0 0.57357642473473569 forward_v I I I I #
coedge $-1 $199 $200 $201 $202 reversed $73 $-1 #
coedge $-1 $120 $75 $203 $204 reversed $47 $-1 #
coedge $-1 $75 $119 $199 $205 reversed $47 $-1 #
coedge $-1 $201 $206 $75 $122 forward $207 $-1 #
edge $-1 $208 -16.682200855272221 $209 -9.1454921406042118 $121 $210 forward 7 unknown #
loop $-1 $-1 $128 $76 #
plane-surface $-1 -9.64857796039216 4.4066320558400989 110.74285575056373 0.81915205242281985 0 0.57357642473473569 0.57357642473473569 0 -0.81915205242281985 forward_v I I I I #
loop $-1 $-1 $211 $49 #
coedge $-1 $126 $126 $127 $212 reversed $77 $-1 #
coedge $-1 $127 $127 $126 $212 forward $79 $-1 #
coedge $-1 $128 $128 $80 $129 forward $123 $-1 #
edge $-1 $213 0 $213 6.2831853071796004 $128 $214 forward 7 unknown #
face $-1 $215 $216 $28 $-1 $217 forward single #
loop $-1 $-1 $136 $81 #
plane-surface $-1 65.568407238990446 0 0 -1 0 0 0 0 1 forward_v I I I I #
coedge $-1 $218 $219 $220 $221 reversed $82 $-1 #
coedge $-1 $135 $84 $222 $223 reversed $53 $-1 #
coedge $-1 $84 $134 $218 $224 reversed $53 $-1 #
coedge $-1 $220 $225 $84 $137 forward $131 $-1 #
edge $-1 $226 78.894519599124081 $227 89.658055452238045 $136 $228 forward 7 unknown #
loop $-1 $-1 $143 $85 #
plane-surface $-1 -9.64857796039216 27.041732188454496 110.74285575056373 0.81915205242281985 0 0.57357642473473569 0.57357642473473569 0 -0.81915205242281985 forward_v I I I I #
loop $-1 $-1 $229 $55 #
coedge $-1 $141 $141 $142 $230 reversed $86 $-1 #
coedge $-1 $142 $142 $141 $230 forward $88 $-1 #
coedge $-1 $143 $143 $89 $144 forward $138 $-1 #
edge $-1 $231 0 $231 6.2831853071796004 $143 $232 forward 7 unknown #
face $-1 $233 $234 $30 $-1 $235 reversed single #
loop $-1 $-1 $236 $90 #
plane-surface $-1 -158.29613909545122 10.366754069594686 101.56776769676749 0 -1 0 0.70710678939079041 0 -0.70710677298230451 forward_v I I I I #
coedge $-1 $237 $238 $239 $240 reversed $91 $-1 #
coedge $-1 $150 $93 $241 $242 reversed $59 $-1 #
coedge $-1 $93 $149 $237 $243 reversed $59 $-1 #
coedge $-1 $239 $244 $93 $152 forward $245 $-1 #
edge $-1 $246 13.579662308735166 $247 18.825025070801814 $151 $248 forward 7 unknown #
loop $-1 $-1 $158 $94 #
plane-surface $-1 -65.568407238990432 3.795324463031335 8.840037992063273 -0.70710678939079041 0 0.70710677298230451 0.70710677298230451 0 0.70710678939079041 forward_v I I I I #
loop $-1 $-1 $249 $61 #
coedge $-1 $156 $156 $157 $250 reversed $95 $-1 #
coedge $-1 $157 $157 $156 $250 forward $97 $-1 #
coedge $-1 $158 $158 $98 $159 forward $153 $-1 #
edge $-1 $251 0 $251 6.2831853071796004 $158 $252 forward 7 unknown #
face $-1 $253 $254 $24 $-1 $255 reversed single #
loop $-1 $-1 $256 $99 #
plane-surface $-1 -65.568407238990446 0 0 1 0 0 0 0 -1 forward_v I I I I #
coedge $-1 $171 $257 $173 $258 reversed $100 $-1 #
coedge $-1 $259 $102 $257 $260 forward $65 $-1 #
coedge $-1 $102 $259 $261 $262 forward $65 $-1 #
coedge $-1 $174 $173 $102 $167 reversed $175 $-1 #
edge $-1 $263 -30.619867877141878 $264 30.619867877141878 $166 $265 forward 7 unknown #
coedge $-1 $104 $103 $266 $267 forward $41 $-1 #
coedge $-1 $268 $269 $103 $170 reversed $254 $-1 #
edge $-1 $177 -65.568407238990446 $270 65.568407238990446 $169 $271 forward 7 unknown #
coedge $-1 $272 $163 $104 $172 reversed $100 $-1 #
edge $-1 $273 -65.568407238990446 $176 65.568407238990446 $171 $274 forward 7 unknown #
coedge $-1 $166 $105 $163 $258 forward $175 $-1 #
coedge $-1 $105 $166 $268 $275 reversed $175 $-1 #
loop $-1 $-1 $173 $253 #
vertex $-1 $106 $276 #
vertex $-1 $106 $277 #
straight-curve $-1 65.568407238990446 0 14.085400875849093 0 1 0 I I #
face $-1 $278 $279 $25 $-1 $280 reversed single #
loop $-1 $-1 $191 $107 #
plane-surface $-1 0 -38.60463562166936 -7.1085988098923094 0 0 1 1 0 0 forward_v I I I I #
coedge $-1 $281 $282 $111 $187 forward $108 $-1 #
coedge $-1 $283 $110 $282 $284 forward $69 $-1 #
coedge $-1 $110 $283 $285 $286 forward $69 $-1 #
coedge $-1 $112 $111 $110 $186 reversed $44 $-1 #
edge $-1 $287 -65.568407238990446 $288 65.568407238990446 $110 $289 forward 7 unknown #
edge $-1 $288 -14.085400875849093 $193 -7.1085988098923094 $182 $290 forward 7 unknown #
coedge $-1 $285 $291 $112 $189 forward $292 $-1 #
edge $-1 $192 7.1085988098923094 $287 14.085400875849093 $188 $293 forward 7 unknown #
coedge $-1 $294 $113 $291 $295 forward $180 $-1 #
coedge $-1 $113 $294 $281 $296 forward $180 $-1 #
vertex $-1 $189 $297 #
vertex $-1 $296 $298 #
straight-curve $-1 0 -30.619867877141878 -7.1085988098923094 1 0 0 I I #
face $-1 $-1 $207 $26 $-1 $299 forward single #
loop $-1 $-1 $300 $115 #
plane-surface $-1 65.568407238990446 0 0 -1 0 0 0 0 1 forward_v I I I I #
coedge $-1 $301 $302 $303 $304 reversed $116 $-1 #
coedge $-1 $305 $118 $120 $205 forward $73 $-1 #
coedge $-1 $118 $305 $301 $306 forward $73 $-1 #
coedge $-1 $303 $121 $118 $202 forward $207 $-1 #
edge $-1 $209 -5.7814517166074317 $307 1.3748196607673329 $201 $308 forward 7 unknown #
coedge $-1 $309 $310 $119 $204 forward $196 $-1 #
edge $-1 $311 -89.658055452238045 $208 -78.894519599124081 $203 $312 forward 7 unknown #
edge $-1 $209 117.99696355374959 $311 131.13681447798092 $120 $313 forward 7 unknown #
coedge $-1 $121 $303 $309 $314 forward $207 $-1 #
loop $-1 $-1 $303 $195 #
vertex $-1 $204 $315 #
vertex $-1 $122 $316 #
straight-curve $-1 48.886206383718225 7.9847677445274812 14.085400875849089 -1 0 0 I I #
coedge $-1 $211 $211 $-1 $317 reversed $125 $-1 #
edge $-1 $318 0 $318 6.2831853071796004 $126 $319 forward 7 unknown #
vertex $-1 $129 $320 #
ellipse-curve $-1 61.800052881656441 4.4066320558400989 8.7036329492921016 0.81915205242281985 0 0.57357642473473569 0.86036463710210354 0 -1.2287280786342298 1 I I #
face $-1 $-1 $321 $28 $-1 $322 reversed single #
loop $-1 $-1 $222 $130 #
plane-surface $-1 0 0 14.085400875849093 0 0 1 1 0 0 forward_v I I I I #
coedge $-1 $323 $133 $135 $224 forward $82 $-1 #
coedge $-1 $133 $323 $324 $325 reversed $82 $-1 #
coedge $-1 $326 $136 $133 $221 forward $131 $-1 #
edge $-1 $227 9.9427304055398658 $327 17.09900178291463 $220 $328 forward 7 unknown #
coedge $-1 $329 $330 $134 $223 forward $216 $-1 #
edge $-1 $331 9.1454921406042118 $226 16.682200855272221 $222 $332 forward 7 unknown #
edge $-1 $227 -131.13681447798092 $331 -117.99696355374959 $135 $333 forward 7 unknown #
coedge $-1 $136 $326 $329 $334 reversed $131 $-1 #
vertex $-1 $334 $335 #
vertex $-1 $137 $336 #
straight-curve $-1 65.568407238990446 23.463596499767114 92.97992047497317 0 0 -1 I I #
coedge $-1 $229 $229 $-1 $337 reversed $140 $-1 #
edge $-1 $338 0 $338 6.2831853071796004 $141 $339 forward 7 unknown #
vertex $-1 $144 $340 #
ellipse-curve $-1 61.800052881656441 27.041732188454496 8.7036329492921016 0.81915205242281985 0 0.57357642473473569 0.86036463710210354 0 -1.2287280786342298 1 I I #
face $-1 $-1 $245 $30 $-1 $341 forward single #
loop $-1 $-1 $342 $145 #
plane-surface $-1 -65.568407238990446 0 0 1 0 0 0 0 -1 forward_v I I I I #
coedge $-1 $343 $344 $345 $346 reversed $146 $-1 #
coedge $-1 $347 $148 $150 $243 forward $91 $-1 #
coedge $-1 $148 $347 $343 $348 forward $91 $-1 #
coedge $-1 $345 $151 $148 $240 forward $245 $-1 #
edge $-1 $247 -4.6737673750476834 $349 8.4690918380790183 $239 $350 forward 7 unknown #
coedge $-1 $351 $352 $149 $242 forward $234 $-1 #
edge $-1 $353 -41.943845856320486 $246 -36.698482972534649 $241 $354 forward 7 unknown #
edge $-1 $247 -7.4180632437498959 $353 2.0097183471152325e-014 $150 $355 forward 7 unknown #
coedge $-1 $151 $345 $351 $356 forward $245 $-1 #
loop $-1 $-1 $345 $233 #
vertex $-1 $242 $357 #
vertex $-1 $152 $358 #
straight-curve $-1 -79.148069547725612 -2.7761051435320159 14.085400875849089 1 0 0 I I #
coedge $-1 $249 $249 $-1 $359 reversed $155 $-1 #
edge $-1 $360 0 $360 6.2831853071796004 $156 $361 forward 7 unknown #
vertex $-1 $159 $362 #
ellipse-curve $-1 -62.945725857957122 3.795324463031335 11.462719433956174 -0.70710678939079041 0 0.70710677298230451 1.0606601594734568 0 1.0606601840861856 1 I I #
face $-1 $-1 $175 $24 $-1 $363 reversed single #
loop $-1 $-1 $268 $160 #
plane-surface $-1 0 30.619867877141878 0 0 -1 0 0 0 -1 forward_v I I I I #
coedge $-1 $364 $266 $269 $365 forward $161 $-1 #
coedge $-1 $163 $272 $164 $260 reversed $100 $-1 #
edge $-1 $176 -14.085400875849093 $264 14.085400875849093 $173 $366 forward 7 unknown #
coedge $-1 $165 $164 $364 $367 forward $65 $-1 #
edge $-1 $264 -65.568407238990446 $368 65.568407238990446 $257 $369 forward 7 unknown #
coedge $-1 $269 $268 $165 $262 reversed $254 $-1 #
edge $-1 $370 -65.568407238990446 $263 65.568407238990446 $261 $371 forward 7 unknown #
vertex $-1 $167 $372 #
vertex $-1 $258 $373 #
straight-curve $-1 65.568407238990446 0 -14.085400875849093 0 -1 0 I I #
coedge $-1 $256 $374 $168 $267 reversed $161 $-1 #
edge $-1 $270 -30.619867877141878 $273 30.619867877141878 $266 $375 forward 7 unknown #
coedge $-1 $261 $169 $174 $275 forward $254 $-1 #
coedge $-1 $169 $261 $256 $365 reversed $254 $-1 #
vertex $-1 $170 $376 #
straight-curve $-1 0 30.619867877141878 14.085400875849093 -1 0 0 I I #
coedge $-1 $257 $171 $374 $377 forward $100 $-1 #
vertex $-1 $267 $378 #
straight-curve $-1 0 -30.619867877141878 14.085400875849093 1 0 0 I I #
edge $-1 $177 -14.085400875849093 $263 14.085400875849093 $174 $379 forward 7 unknown #
point $-1 65.568407238990446 -30.619867877141878 14.085400875849093 #
point $-1 65.568407238990446 30.619867877141878 14.085400875849093 #
face $-1 $-1 $292 $25 $-1 $380 reversed single #
loop $-1 $-1 $381 $179 #
plane-surface $-1 0 -46.589403366196841 -10.596999842870702 0 1 0 0 0 1 forward_v I I I I #
coedge $-1 $382 $182 $191 $296 reversed $108 $-1 #
coedge $-1 $182 $382 $183 $284 reversed $108 $-1 #
coedge $-1 $184 $183 $383 $384 forward $69 $-1 #
edge $-1 $288 30.619867877141878 $385 46.589403366196841 $282 $386 forward 7 unknown #
coedge $-1 $387 $188 $184 $286 reversed $292 $-1 #
edge $-1 $388 -46.589403366196841 $287 -30.619867877141878 $285 $389 forward 7 unknown #
vertex $-1 $189 $390 #
vertex $-1 $284 $391 #
straight-curve $-1 0 -30.619867877141878 -14.085400875849093 1 0 0 I I #
straight-curve $-1 65.568407238990446 -30.619867877141878 0 0 0 1 I I #
coedge $-1 $188 $387 $190 $295 reversed $292 $-1 #
loop $-1 $-1 $188 $278 #
straight-curve $-1 -65.568407238990446 -30.619867877141878 0 0 0 -1 I I #
coedge $-1 $191 $190 $392 $393 forward $180 $-1 #
edge $-1 $192 -7.9847677445274812 $394 7.9847677445274812 $291 $395 forward 7 unknown #
edge $-1 $396 -7.9847677445274812 $193 7.9847677445274812 $281 $397 forward 7 unknown #
point $-1 -65.568407238990446 -30.619867877141878 -7.1085988098923094 #
point $-1 65.568407238990446 -30.619867877141878 -7.1085988098923094 #
plane-surface $-1 0 0 14.085400875849093 0 0 1 1 0 0 forward_v I I I I #
coedge $-1 $310 $309 $302 $398 forward $196 $-1 #
coedge $-1 $302 $198 $200 $306 reversed $116 $-1 #
coedge $-1 $198 $301 $300 $398 reversed $116 $-1 #
coedge $-1 $206 $201 $198 $304 forward $207 $-1 #
edge $-1 $307 9.1454921406042118 $399 16.682200855272221 $303 $400 forward 7 unknown #
coedge $-1 $200 $199 $310 $401 reversed $73 $-1 #
edge $-1 $402 -131.13681447798092 $307 -117.99696355374959 $301 $403 forward 7 unknown #
vertex $-1 $202 $404 #
straight-curve $-1 58.031698524322451 2.2033160279200494 14.085400875849089 0 -1 0 I I #
coedge $-1 $300 $203 $206 $314 reversed $196 $-1 #
coedge $-1 $203 $300 $305 $401 forward $196 $-1 #
vertex $-1 $204 $405 #
straight-curve $-1 65.568407238990446 7.9847677445274812 92.97992047497317 0 0 1 I I #
straight-curve $-1 -9.64857796039216 7.9847677445274812 110.74285575056373 0.57357642473473569 0 -0.81915205242281985 I I #
edge $-1 $399 0.82849636715271657 $208 7.9847677445274812 $309 $406 forward 7 unknown #
point $-1 65.568407238990446 7.9847677445274812 14.085400875849093 #
point $-1 58.031698524322437 7.9847677445274812 14.085400875849089 #
edge $-1 $407 1 $407 0 $211 $-1 forward 7 unknown #
vertex $-1 $212 $408 #
ellipse-curve $-1 60.129999666224641 4.4066320558400989 7.5342491339297206 0.81915205242281985 0 0.57357642473473569 0.86036463710210354 0 -1.2287280786342298 1 I I #
point $-1 62.66041751875855 4.4066320558400989 7.474904870657876 #
loop $-1 $-1 $324 $215 #
plane-surface $-1 0 30.619867877141878 0 0 -1 0 0 0 -1 forward_v I I I I #
coedge $-1 $219 $218 $330 $409 reversed $82 $-1 #
coedge $-1 $410 $411 $219 $325 forward $321 $-1 #
edge $-1 $327 -83.012097263213576 $412 -69.872246338982265 $324 $413 forward 7 unknown #
coedge $-1 $225 $220 $411 $414 reversed $131 $-1 #
vertex $-1 $221 $415 #
straight-curve $-1 65.56840723899046 13.520866094227248 3.3218650227351034 0 1 0 I I #
coedge $-1 $416 $222 $225 $334 forward $216 $-1 #
coedge $-1 $222 $416 $323 $409 forward $216 $-1 #
vertex $-1 $223 $417 #
straight-curve $-1 48.886206383718225 23.463596499767114 14.085400875849089 1 0 0 I I #
straight-curve $-1 -9.64857796039216 23.463596499767114 110.74285575056373 -0.57357642473473569 0 0.81915205242281985 I I #
edge $-1 $226 23.463596499767114 $418 30.619867877141878 $225 $419 forward 7 unknown #
point $-1 65.568407238990446 23.463596499767114 14.085400875849093 #
point $-1 65.568407238990446 23.463596499767114 3.3218650227351247 #
edge $-1 $420 1 $420 0 $229 $-1 forward 7 unknown #
vertex $-1 $230 $421 #
ellipse-curve $-1 60.129999666224641 27.041732188454496 7.5342491339297206 0.81915205242281985 0 0.57357642473473569 0.86036463710210354 0 -1.2287280786342298 1 I I #
point $-1 62.66041751875855 27.041732188454496 7.474904870657876 #
plane-surface $-1 0 0 14.085400875849093 0 0 1 1 0 0 forward_v I I I I #
coedge $-1 $352 $351 $344 $422 forward $234 $-1 #
coedge $-1 $344 $236 $238 $348 reversed $146 $-1 #
coedge $-1 $236 $343 $342 $422 reversed $146 $-1 #
coedge $-1 $244 $239 $236 $346 forward $245 $-1 #
edge $-1 $349 -18.825025070801814 $423 -13.579662308735166 $345 $424 forward 7 unknown #
coedge $-1 $238 $237 $352 $425 reversed $91 $-1 #
edge $-1 $426 -2.0097183471152325e-014 $349 7.4180632437498959 $343 $427 forward 7 unknown #
vertex $-1 $240 $428 #
straight-curve $-1 -60.323044476923798 1.8976622315156675 14.085400875849091 0 1 0 I I #
coedge $-1 $342 $241 $244 $356 reversed $234 $-1 #
coedge $-1 $241 $342 $347 $425 forward $234 $-1 #
vertex $-1 $242 $429 #
straight-curve $-1 -65.568407238990446 -2.7761051435320159 50.783883848383745 0 0 1 I I #
straight-curve $-1 -65.568407238990432 -2.7761051435320159 8.840037992063273 -0.70710677298230451 0 -0.70710678939079041 I I #
edge $-1 $423 -10.366754069594686 $246 2.7761051435320159 $351 $430 forward 7 unknown #
point $-1 -65.568407238990446 -2.7761051435320159 14.085400875849093 #
point $-1 -60.323044476923798 -2.7761051435320159 14.085400875849093 #
edge $-1 $431 1 $431 0 $249 $-1 forward 7 unknown #
vertex $-1 $250 $432 #
ellipse-curve $-1 -59.546964970213928 3.795324463031335 8.0639586250815718 -0.70710678939079041 0 0.70710677298230451 1.0606601594734568 0 1.0606601840861856 1 I I #
point $-1 -61.885065698483672 3.795324463031335 12.523379618042359 #
plane-surface $-1 65.568407238990446 0 0 -1 0 0 0 0 1 forward_v I I I I #
coedge $-1 $374 $256 $259 $367 reversed $161 $-1 #
edge $-1 $270 -14.085400875849093 $370 14.085400875849093 $269 $433 forward 7 unknown #
straight-curve $-1 65.568407238990446 -30.619867877141878 0 0 0 -1 I I #
edge $-1 $368 -30.619867877141878 $370 30.619867877141878 $364 $434 forward 7 unknown #
vertex $-1 $367 $435 #
straight-curve $-1 0 -30.619867877141878 -14.085400875849093 -1 0 0 I I #
vertex $-1 $262 $436 #
straight-curve $-1 0 30.619867877141878 -14.085400875849093 1 0 0 I I #
point $-1 65.568407238990446 30.619867877141878 -14.085400875849093 #
point $-1 65.568407238990446 -30.619867877141878 -14.085400875849093 #
coedge $-1 $266 $364 $272 $377 reversed $161 $-1 #
straight-curve $-1 -65.568407238990446 0 14.085400875849093 0 -1 0 I I #
point $-1 -65.568407238990446 30.619867877141878 14.085400875849093 #
edge $-1 $273 -14.085400875849093 $368 14.085400875849093 $374 $437 forward 7 unknown #
point $-1 -65.568407238990446 -30.619867877141878 14.085400875849093 #
straight-curve $-1 65.568407238990446 30.619867877141878 0 0 0 -1 I I #
plane-surface $-1 -65.568407238990446 0 0 1 0 0 0 0 -1 forward_v I I I I #
coedge $-1 $383 $392 $387 $438 forward $279 $-1 #
coedge $-1 $282 $281 $439 $440 forward $108 $-1 #
coedge $-1 $439 $381 $283 $384 reversed $279 $-1 #
edge $-1 $385 -65.568407238990446 $388 65.568407238990446 $383 $441 forward 7 unknown #
vertex $-1 $440 $442 #
straight-curve $-1 65.568407238990446 0 -14.085400875849093 0 -1 0 I I #
coedge $-1 $291 $285 $381 $438 reversed $292 $-1 #
vertex $-1 $286 $443 #
straight-curve $-1 -65.568407238990446 0 -14.085400875849093 0 1 0 I I #
point $-1 -65.568407238990446 -30.619867877141878 -14.085400875849093 #
point $-1 65.568407238990446 -30.619867877141878 -14.085400875849093 #
coedge $-1 $381 $439 $294 $393 reversed $279 $-1 #
edge $-1 $394 -65.568407238990446 $396 65.568407238990446 $392 $444 forward 7 unknown #
vertex $-1 $295 $445 #
straight-curve $-1 -65.568407238990446 -38.60463562166936 -7.1085988098923094 0 -1 0 I I #
vertex $-1 $296 $446 #
straight-curve $-1 65.568407238990446 -38.60463562166936 -7.1085988098923094 0 1 0 I I #
edge $-1 $399 78.894519599124081 $402 89.658055452238045 $300 $447 forward 7 unknown #
vertex $-1 $314 $448 #
straight-curve $-1 48.886206383718225 0.82849636715271657 14.085400875849089 1 0 0 I I #
edge $-1 $402 -1.3748196607673329 $311 5.7814517166074317 $310 $449 forward 7 unknown #
vertex $-1 $401 $450 #
straight-curve $-1 -9.64857796039216 0.82849636715271657 110.74285575056373 -0.57357642473473569 0 0.81915205242281985 I I #
point $-1 58.031698524322437 0.82849636715271657 14.085400875849089 #
point $-1 65.568407238990446 7.9847677445274812 3.3218650227351247 #
straight-curve $-1 65.568407238990446 0 14.085400875849093 0 1 0 I I #
vertex $-1 $317 $451 #
point $-1 60.990364303326743 4.4066320558400989 6.3055210552954915 #
edge $-1 $412 -17.09900178291463 $331 -9.9427304055398658 $330 $452 forward 7 unknown #
coedge $-1 $411 $324 $416 $453 reversed $321 $-1 #
coedge $-1 $324 $410 $326 $414 forward $321 $-1 #
vertex $-1 $325 $454 #
straight-curve $-1 17.954625281024274 30.619867877141878 71.321394871819265 -0.57357642473473569 0 0.81915205242281985 I I #
edge $-1 $418 -14.085400875849093 $327 -3.3218650227351239 $326 $455 forward 7 unknown #
point $-1 65.568407238990446 30.619867877141878 3.3218650227351239 #
coedge $-1 $330 $329 $410 $453 forward $216 $-1 #
point $-1 58.031698524322437 23.463596499767114 14.085400875849089 #
vertex $-1 $334 $456 #
straight-curve $-1 65.568407238990446 0 14.085400875849093 0 1 0 I I #
vertex $-1 $337 $457 #
point $-1 60.990364303326743 27.041732188454496 6.3055210552954915 #
edge $-1 $423 36.698482972534649 $426 41.943845856320486 $342 $458 forward 7 unknown #
vertex $-1 $356 $459 #
straight-curve $-1 -79.148069547725612 10.366754069594686 14.085400875849089 -1 0 0 I I #
edge $-1 $426 -8.4690918380790183 $353 4.6737673750476834 $352 $460 forward 7 unknown #
vertex $-1 $425 $461 #
straight-curve $-1 -65.568407238990432 10.366754069594686 8.840037992063273 0.70710677298230451 0 0.70710678939079041 I I #
point $-1 -60.323044476923798 10.366754069594686 14.085400875849093 #
point $-1 -65.568407238990446 -2.7761051435320159 8.8400379920632588 #
straight-curve $-1 -65.568407238990446 0 14.085400875849093 0 -1 0 I I #
vertex $-1 $359 $462 #
point $-1 -58.486304810740471 3.795324463031335 9.1246188091677567 #
straight-curve $-1 -65.568407238990446 30.619867877141878 0 0 0 -1 I I #
straight-curve $-1 -65.568407238990446 0 -14.085400875849093 0 1 0 I I #
point $-1 -65.568407238990446 -30.619867877141878 -14.085400875849093 #
point $-1 -65.568407238990446 30.619867877141878 -14.085400875849093 #
straight-curve $-1 -65.568407238990446 -30.619867877141878 0 0 0 -1 I I #
edge $-1 $394 -3.4884010329783921 $388 3.4884010329783912 $387 $463 forward 7 unknown #
coedge $-1 $392 $383 $382 $440 reversed $279 $-1 #
edge $-1 $396 -3.4884010329783921 $385 3.4884010329783912 $382 $464 forward 7 unknown #
straight-curve $-1 0 -46.589403366196841 -14.085400875849093 -1 0 0 I I #
point $-1 65.568407238990446 -46.589403366196841 -14.085400875849093 #
point $-1 -65.568407238990446 -46.589403366196841 -14.085400875849093 #
straight-curve $-1 0 -46.589403366196841 -7.1085988098923094 1 0 0 I I #
point $-1 -65.568407238990446 -46.589403366196841 -7.1085988098923094 #
point $-1 65.568407238990446 -46.589403366196841 -7.1085988098923094 #
straight-curve $-1 65.568407238990446 0.82849636715271657 92.97992047497317 0 0 -1 I I #
point $-1 65.568407238990446 0.82849636715271657 14.085400875849093 #
straight-curve $-1 65.56840723899046 2.2033160279200494 3.3218650227351034 0 1 0 I I #
point $-1 65.568407238990446 0.82849636715271657 3.3218650227351247 #
point $-1 58.901271587590408 4.4066320558400989 6.6738844968276174 #
straight-curve $-1 58.031698524322451 13.520866094227248 14.085400875849089 0 -1 0 I I #
edge $-1 $418 -65.568407238990446 $412 -58.031698524322437 $410 $465 forward 7 unknown #
point $-1 58.031698524322437 30.619867877141878 14.085400875849089 #
straight-curve $-1 65.568407238990446 30.619867877141878 0 0 0 -1 I I #
point $-1 65.568407238990446 30.619867877141878 14.085400875849093 #
point $-1 58.901271587590408 27.041732188454496 6.6738844968276174 #
straight-curve $-1 -65.568407238990446 10.366754069594686 50.783883848383745 0 0 -1 I I #
point $-1 -65.568407238990446 10.366754069594686 14.085400875849093 #
straight-curve $-1 -65.568407238990446 1.8976622315156675 8.8400379920632446 0 -1 0 I I #
point $-1 -65.568407238990446 10.366754069594686 8.8400379920632588 #
point $-1 -58.486304786127739 3.795324463031335 7.0032984656081148 #
straight-curve $-1 -65.568407238990446 -46.589403366196841 -10.596999842870702 0 0 -1 I I #
straight-curve $-1 65.568407238990446 -46.589403366196841 -10.596999842870702 0 0 -1 I I #
straight-curve $-1 0 30.619867877141878 14.085400875849093 -1 0 0 I I #
End-of-ACIS-data 