500 0 9 0           
7 Unknown 11 ACIS 5.0 NT 24 Thu Mar 25 19:56:31 1999 
-1 9.9999999999999995e-007 1e-010 
body $-1 $9 $-1 $10 #
body $-1 $11 $-1 $12 #
body $-1 $13 $-1 $14 #
body $-1 $15 $-1 $16 #
body $-1 $17 $-1 $18 #
body $-1 $19 $-1 $20 #
body $-1 $21 $-1 $22 #
body $-1 $23 $-1 $24 #
body $-1 $25 $-1 $26 #
lump $-1 $-1 $27 $0 #
transform $-1 1 0 0 0 1 0 0 0 1 68.366344187749874 41.066960032308209 18.973494507800762 1 rotate no_reflect no_shear #
lump $-1 $-1 $28 $1 #
transform $-1 1 0 0 0 1 0 0 0 1 68.366344187749874 41.066960032308209 18.973494507800762 1 rotate no_reflect no_shear #
lump $-1 $-1 $29 $2 #
transform $-1 1 0 0 0 1 0 0 0 1 68.366344187749874 41.066960032308209 18.973494507800762 1 rotate no_reflect no_shear #
lump $-1 $-1 $30 $3 #
transform $-1 1 0 0 0 1 0 0 0 1 68.366344187749874 41.066960032308209 18.973494507800762 1 rotate no_reflect no_shear #
lump $-1 $-1 $31 $4 #
transform $-1 1 0 0 0 1 0 0 0 1 68.366344187749874 41.066960032308209 18.973494507800762 1 rotate no_reflect no_shear #
lump $-1 $-1 $32 $5 #
transform $-1 1 0 0 0 1 0 0 0 1 68.366344187749874 41.066960032308209 18.973494507800762 1 rotate no_reflect no_shear #
lump $-1 $-1 $33 $6 #
transform $-1 1 0 0 0 1 0 0 0 1 68.366344187749874 41.066960032308209 18.973494507800762 1 rotate no_reflect no_shear #
lump $-1 $-1 $34 $7 #
transform $-1 1 0 0 0 1 0 0 0 1 68.366344187749874 41.066960032308209 18.973494507800762 1 rotate no_reflect no_shear #
lump $-1 $-1 $35 $8 #
transform $-1 1 0 0 0 1 0 0 0 1 68.366344187749874 41.066960032308209 18.973494507800762 1 rotate no_reflect no_shear #
shell $-1 $-1 $-1 $36 $-1 $9 #
shell $-1 $-1 $-1 $37 $-1 $11 #
shell $-1 $-1 $-1 $38 $-1 $13 #
shell $-1 $-1 $-1 $39 $-1 $15 #
shell $-1 $-1 $-1 $40 $-1 $17 #
shell $-1 $-1 $-1 $41 $-1 $19 #
shell $-1 $-1 $-1 $42 $-1 $21 #
shell $-1 $-1 $-1 $43 $-1 $23 #
shell $-1 $-1 $-1 $44 $-1 $25 #
face $-1 $45 $46 $27 $-1 $47 forward single #
face $-1 $48 $49 $28 $-1 $50 reversed single #
face $-1 $51 $52 $29 $-1 $53 reversed single #
face $-1 $54 $55 $30 $-1 $56 reversed single #
face $-1 $57 $58 $31 $-1 $59 forward single #
face $-1 $60 $61 $32 $-1 $62 forward single #
face $-1 $63 $64 $33 $-1 $65 reversed single #
face $-1 $66 $67 $34 $-1 $68 forward single #
face $-1 $69 $70 $35 $-1 $71 forward single #
face $-1 $72 $73 $27 $-1 $74 reversed single #
loop $-1 $-1 $75 $36 #
plane-surface $-1 0 0 18.973494507800762 0 0 1 1 0 0 forward_v I I I I #
face $-1 $76 $77 $28 $-1 $78 reversed single #
loop $-1 $-1 $79 $37 #
plane-surface $-1 0 -29.370128116936566 11.221617302877149 0 0 1 1 0 0 forward_v I I I I #
face $-1 $80 $81 $29 $-1 $82 reversed single #
loop $-1 $-1 $83 $38 #
plane-surface $-1 0 29.370128116936563 11.221617302877149 0 0 1 1 0 0 forward_v I I I I #
face $-1 $84 $85 $30 $-1 $86 reversed single #
loop $-1 $-1 $87 $39 #
plane-surface $-1 58.246183120793987 10.666397914141221 205.41960686380082 0 -1 0 -0.66913061440640931 0 -0.74314481823134659 forward_v I I I I #
face $-1 $88 $89 $31 $-1 $90 forward single #
loop $-1 $91 $92 $40 #
cone-surface $-1 64.334491994508554 5.7066536946994901 15.272869961068936 -0.66913061440640931 0 -0.74314481823134659 0.18578620455783665 0 -0.16728265360160233 1 I I 0 1 0.25 forward I I I I #
face $-1 $93 $94 $32 $-1 $95 forward single #
loop $-1 $96 $97 $41 #
cone-surface $-1 64.334491994508554 8.6825002263645317 15.272869961068936 -0.66913061440640931 0 -0.74314481823134659 0.18578620455783665 0 -0.16728265360160233 1 I I 0 1 0.25 forward I I I I #
face $-1 $98 $99 $33 $-1 $100 reversed single #
loop $-1 $-1 $101 $42 #
plane-surface $-1 -138.78888572273013 6.8495970392081134 127.53020610326301 0 1 0 -0.51503808176128008 0 0.85716729658548041 forward_v I I I I #
face $-1 $102 $103 $34 $-1 $104 forward single #
loop $-1 $105 $106 $43 #
cone-surface $-1 -60.737679420405307 9.3273551346509791 13.928291059940504 0.51503808176128008 0 -0.85716729658548041 0.4285836482927402 0 0.25751904088064004 1 I I 0 1 0.5 forward I I I I #
face $-1 $107 $108 $35 $-1 $109 forward single #
loop $-1 $110 $111 $44 #
cone-surface $-1 -60.737679420405307 13.043992277815271 13.928291059940504 0.51503808176128008 0 -0.85716729658548041 0.4285836482927402 0 0.25751904088064004 1 I I 0 1 0.5 forward I I I I #
face $-1 $112 $113 $27 $-1 $114 reversed single #
loop $-1 $-1 $115 $45 #
plane-surface $-1 0 0 -18.973494507800762 0 0 1 1 0 0 forward_v I I I I #
coedge $-1 $116 $117 $118 $119 forward $46 $-1 #
face $-1 $120 $121 $28 $-1 $122 reversed single #
loop $-1 $-1 $123 $48 #
plane-surface $-1 0 -17.673296201564924 15.097555905338954 0 -1 0 0 0 -1 forward_v I I I I #
coedge $-1 $124 $125 $126 $127 reversed $49 $-1 #
face $-1 $128 $129 $29 $-1 $130 forward single #
loop $-1 $-1 $131 $51 #
plane-surface $-1 0 17.67329620156492 15.097555905338954 0 1 0 0 0 1 forward_v I I I I #
coedge $-1 $132 $133 $134 $135 reversed $52 $-1 #
face $-1 $136 $137 $30 $-1 $138 reversed single #
loop $-1 $-1 $139 $54 #
plane-surface $-1 -33.245844661344265 7.1945769605320109 103.8074180147067 0.66913061440640931 0 0.74314481823134659 0.74314481823134659 0 -0.66913061440640931 forward_v I I I I #
coedge $-1 $140 $141 $142 $143 reversed $55 $-1 #
face $-1 $-1 $144 $31 $-1 $145 forward single #
loop $-1 $146 $147 $57 #
cone-surface $-1 63.916285360504546 5.7066536946994901 14.808404449674345 -0.66913061440640931 0 -0.74314481823134659 0.092893102278918324 0 -0.083641326800801163 1 I I -0.70710678118654746 0.70710678118654746 0.125 forward I I I I #
loop $-1 $-1 $148 $40 #
coedge $-1 $92 $92 $149 $150 reversed $58 $-1 #
face $-1 $-1 $151 $32 $-1 $152 forward single #
loop $-1 $153 $154 $60 #
cone-surface $-1 63.916285360504546 8.6825002263645317 14.808404449674345 -0.66913061440640931 0 -0.74314481823134659 0.092893102278918324 0 -0.083641326800801163 1 I I -0.70710678118654746 0.70710678118654746 0.125 forward I I I I #
loop $-1 $-1 $155 $41 #
coedge $-1 $97 $97 $156 $157 reversed $61 $-1 #
face $-1 $158 $159 $33 $-1 $160 reversed single #
loop $-1 $-1 $161 $63 #
plane-surface $-1 -68.36634418774986 11.185673706233125 10.327417253570957 -0.51503808176128008 0 0.85716729658548041 0.85716729658548041 0 0.51503808176128008 forward_v I I I I #
coedge $-1 $162 $163 $164 $165 reversed $64 $-1 #
face $-1 $-1 $166 $34 $-1 $167 forward single #
loop $-1 $168 $169 $66 #
cone-surface $-1 -60.174999490875891 9.3273551346509791 12.991834415048782 0.51503808176128008 0 -0.85716729658548041 0.2142918241463701 0 0.12875952044032002 1 I I -0.70710678118654746 0.70710678118654746 0.25 forward I I I I #
loop $-1 $-1 $170 $43 #
coedge $-1 $106 $106 $171 $172 reversed $67 $-1 #
face $-1 $-1 $173 $35 $-1 $174 forward single #
loop $-1 $175 $176 $69 #
cone-surface $-1 -60.174999490875891 13.043992277815271 12.991834415048782 0.51503808176128008 0 -0.85716729658548041 0.2142918241463701 0 0.12875952044032002 1 I I -0.70710678118654746 0.70710678118654746 0.25 forward I I I I #
loop $-1 $-1 $177 $44 #
coedge $-1 $111 $111 $178 $179 reversed $70 $-1 #
face $-1 $180 $181 $27 $-1 $182 reversed single #
loop $-1 $-1 $183 $72 #
plane-surface $-1 0 -41.066960032308209 0 0 1 0 0 0 1 forward_v I I I I #
coedge $-1 $184 $185 $186 $187 forward $73 $-1 #
coedge $-1 $188 $75 $189 $190 forward $46 $-1 #
coedge $-1 $75 $188 $191 $192 forward $46 $-1 #
coedge $-1 $193 $194 $75 $119 reversed $195 $-1 #
edge $-1 $196 -41.066960032308209 $197 41.066960032308209 $118 $198 forward 7 unknown #
face $-1 $199 $200 $28 $-1 $201 reversed single #
loop $-1 $-1 $202 $76 #
plane-surface $-1 -68.366344187749874 0 0 1 0 0 0 0 -1 forward_v I I I I #
coedge $-1 $203 $204 $205 $206 reversed $77 $-1 #
coedge $-1 $207 $79 $208 $209 reversed $49 $-1 #
coedge $-1 $79 $207 $203 $210 forward $49 $-1 #
coedge $-1 $205 $211 $79 $127 forward $212 $-1 #
edge $-1 $213 -26.381895973839924 $214 -2.9882321430966403 $126 $215 forward 7 unknown #
face $-1 $216 $217 $29 $-1 $218 reversed single #
loop $-1 $-1 $219 $80 #
plane-surface $-1 0 0 18.973494507800762 0 0 1 1 0 0 forward_v I I I I #
coedge $-1 $220 $221 $222 $223 reversed $81 $-1 #
coedge $-1 $224 $83 $220 $225 forward $52 $-1 #
coedge $-1 $83 $224 $226 $227 reversed $52 $-1 #
coedge $-1 $228 $229 $83 $135 forward $217 $-1 #
edge $-1 $230 2.9882321430966385 $231 26.381895973839921 $134 $232 forward 7 unknown #
face $-1 $233 $234 $30 $-1 $235 forward single #
loop $-1 $-1 $236 $84 #
plane-surface $-1 58.246183120793987 3.7227560069228005 205.41960686380082 0 1 0 0.66913061440640931 0 0.74314481823134659 forward_v I I I I #
coedge $-1 $237 $238 $239 $240 reversed $85 $-1 #
coedge $-1 $141 $87 $241 $242 reversed $55 $-1 #
coedge $-1 $87 $140 $237 $243 reversed $55 $-1 #
coedge $-1 $239 $244 $87 $143 forward $234 $-1 #
edge $-1 $245 -39.243252627352881 $246 -31.848678855276667 $142 $247 forward 7 unknown #
loop $-1 $-1 $149 $88 #
plane-surface $-1 -33.245844661344265 7.1945769605320109 103.8074180147067 0.66913061440640931 0 0.74314481823134659 0.74314481823134659 0 -0.66913061440640931 forward_v I I I I #
loop $-1 $-1 $248 $57 #
coedge $-1 $147 $147 $148 $249 reversed $89 $-1 #
coedge $-1 $148 $148 $147 $249 forward $91 $-1 #
coedge $-1 $149 $149 $92 $150 forward $144 $-1 #
edge $-1 $250 0 $250 6.2831853071796004 $149 $251 forward 7 unknown #
loop $-1 $-1 $156 $93 #
plane-surface $-1 -33.245844661344265 7.1945769605320109 103.8074180147067 0.66913061440640931 0 0.74314481823134659 0.74314481823134659 0 -0.66913061440640931 forward_v I I I I #
loop $-1 $-1 $252 $60 #
coedge $-1 $154 $154 $155 $253 reversed $94 $-1 #
coedge $-1 $155 $155 $154 $253 forward $96 $-1 #
coedge $-1 $156 $156 $97 $157 forward $151 $-1 #
edge $-1 $254 0 $254 6.2831853071796004 $156 $255 forward 7 unknown #
face $-1 $256 $257 $33 $-1 $258 reversed single #
loop $-1 $-1 $259 $98 #
plane-surface $-1 -138.78888572273013 15.521750373258136 127.53020610326301 0 -1 0 0.51503808176128008 0 -0.85716729658548041 forward_v I I I I #
coedge $-1 $260 $261 $262 $263 reversed $99 $-1 #
coedge $-1 $163 $101 $264 $265 reversed $64 $-1 #
coedge $-1 $101 $162 $260 $266 reversed $64 $-1 #
coedge $-1 $262 $267 $101 $165 forward $268 $-1 #
edge $-1 $269 1.0280986736151903 $270 15.417587390126137 $164 $271 forward 7 unknown #
loop $-1 $-1 $171 $102 #
plane-surface $-1 -68.36634418774986 11.185673706233125 10.327417253570957 -0.51503808176128008 0 0.85716729658548041 0.85716729658548041 0 0.51503808176128008 forward_v I I I I #
loop $-1 $-1 $272 $66 #
coedge $-1 $169 $169 $170 $273 reversed $103 $-1 #
coedge $-1 $170 $170 $169 $273 forward $105 $-1 #
coedge $-1 $171 $171 $106 $172 forward $166 $-1 #
edge $-1 $274 0 $274 6.2831853071796004 $171 $275 forward 7 unknown #
loop $-1 $-1 $178 $107 #
plane-surface $-1 -68.36634418774986 11.185673706233125 10.327417253570957 -0.51503808176128008 0 0.85716729658548041 0.85716729658548041 0 0.51503808176128008 forward_v I I I I #
loop $-1 $-1 $276 $69 #
coedge $-1 $176 $176 $177 $277 reversed $108 $-1 #
coedge $-1 $177 $177 $176 $277 forward $110 $-1 #
coedge $-1 $178 $178 $111 $179 forward $173 $-1 #
edge $-1 $278 0 $278 6.2831853071796004 $178 $279 forward 7 unknown #
face $-1 $280 $281 $27 $-1 $282 reversed single #
loop $-1 $-1 $283 $112 #
plane-surface $-1 -68.366344187749874 0 0 1 0 0 0 0 -1 forward_v I I I I #
coedge $-1 $284 $191 $285 $286 forward $113 $-1 #
coedge $-1 $287 $115 $284 $288 forward $73 $-1 #
coedge $-1 $115 $287 $289 $290 forward $73 $-1 #
coedge $-1 $194 $193 $115 $187 reversed $195 $-1 #
edge $-1 $291 -41.066960032308209 $292 41.066960032308209 $186 $293 forward 7 unknown #
coedge $-1 $117 $116 $294 $295 forward $46 $-1 #
coedge $-1 $296 $297 $116 $190 reversed $281 $-1 #
edge $-1 $197 -68.366344187749874 $298 68.366344187749874 $189 $299 forward 7 unknown #
coedge $-1 $183 $300 $117 $192 reversed $113 $-1 #
edge $-1 $301 -68.366344187749874 $196 68.366344187749874 $191 $302 forward 7 unknown #
coedge $-1 $186 $118 $300 $303 forward $195 $-1 #
coedge $-1 $118 $186 $296 $304 reversed $195 $-1 #
loop $-1 $-1 $193 $280 #
vertex $-1 $119 $305 #
vertex $-1 $119 $306 #
straight-curve $-1 68.366344187749874 0 18.973494507800762 0 1 0 I I #
face $-1 $307 $308 $28 $-1 $309 forward single #
loop $-1 $-1 $208 $120 #
plane-surface $-1 0 -41.066960032308209 0 0 1 0 0 0 1 forward_v I I I I #
coedge $-1 $310 $311 $312 $313 forward $121 $-1 #
coedge $-1 $312 $123 $125 $210 reversed $77 $-1 #
coedge $-1 $123 $312 $314 $315 reversed $77 $-1 #
coedge $-1 $316 $126 $123 $206 forward $212 $-1 #
edge $-1 $214 3.6728393502076724 $317 11.424716555131281 $205 $318 forward 7 unknown #
coedge $-1 $125 $124 $310 $319 reversed $49 $-1 #
coedge $-1 $320 $321 $124 $209 forward $200 $-1 #
edge $-1 $322 -68.366344187749874 $213 68.366344187749874 $208 $323 forward 7 unknown #
edge $-1 $324 -68.366344187749874 $214 68.366344187749874 $203 $325 forward 7 unknown #
coedge $-1 $126 $316 $320 $326 forward $212 $-1 #
loop $-1 $-1 $205 $307 #
vertex $-1 $209 $327 #
vertex $-1 $127 $328 #
straight-curve $-1 68.366344187749874 -14.685064058468283 11.221617302877149 0 1 0 I I #
face $-1 $329 $330 $29 $-1 $331 reversed single #
loop $-1 $-1 $229 $128 #
plane-surface $-1 68.366344187749874 0 0 -1 0 0 0 0 1 forward_v I I I I #
coedge $-1 $332 $333 $221 $334 forward $129 $-1 #
coedge $-1 $335 $131 $132 $225 reversed $81 $-1 #
coedge $-1 $131 $335 $219 $334 reversed $81 $-1 #
coedge $-1 $336 $337 $131 $223 forward $330 $-1 #
edge $-1 $338 3.6728393502076724 $339 11.424716555131281 $222 $340 forward 7 unknown #
coedge $-1 $133 $132 $337 $341 reversed $52 $-1 #
edge $-1 $230 -68.366344187749874 $338 68.366344187749874 $220 $342 forward 7 unknown #
coedge $-1 $343 $344 $133 $227 forward $345 $-1 #
edge $-1 $231 -68.366344187749874 $346 68.366344187749874 $226 $347 forward 7 unknown #
coedge $-1 $348 $134 $344 $349 reversed $217 $-1 #
coedge $-1 $134 $348 $335 $350 forward $217 $-1 #
vertex $-1 $135 $351 #
vertex $-1 $227 $352 #
straight-curve $-1 68.366344187749874 14.685064058468281 11.221617302877149 0 1 0 I I #
face $-1 $-1 $353 $30 $-1 $354 reversed single #
loop $-1 $-1 $142 $136 #
plane-surface $-1 0 0 18.973494507800762 0 0 1 1 0 0 forward_v I I I I #
coedge $-1 $355 $356 $357 $358 reversed $137 $-1 #
coedge $-1 $359 $139 $141 $243 forward $85 $-1 #
coedge $-1 $139 $359 $355 $360 forward $85 $-1 #
coedge $-1 $357 $142 $139 $240 forward $234 $-1 #
edge $-1 $246 -7.0691094338752158 $361 -0.12546752665679506 $239 $362 forward 7 unknown #
coedge $-1 $363 $364 $140 $242 forward $353 $-1 #
edge $-1 $365 -90.394413199331979 $245 -83.736308924099646 $241 $366 forward 7 unknown #
edge $-1 $246 126.78230778928378 $365 136.73268837549978 $141 $367 forward 7 unknown #
coedge $-1 $142 $357 $363 $368 forward $234 $-1 #
vertex $-1 $242 $369 #
vertex $-1 $143 $370 #
straight-curve $-1 29.123091560396993 10.666397914141221 18.973494507800766 -1 0 0 I I #
coedge $-1 $248 $248 $-1 $371 reversed $146 $-1 #
edge $-1 $372 0 $372 6.2831853071796004 $147 $373 forward 7 unknown #
vertex $-1 $150 $374 #
ellipse-curve $-1 64.66905730171176 5.7066536946994901 15.64444237018461 0.66913061440640931 0 0.74314481823134659 0.18578620455783665 0 -0.16728265360160233 1 I I #
coedge $-1 $252 $252 $-1 $375 reversed $153 $-1 #
edge $-1 $376 0 $376 6.2831853071796004 $154 $377 forward 7 unknown #
vertex $-1 $157 $378 #
ellipse-curve $-1 64.66905730171176 8.6825002263645317 15.64444237018461 0.66913061440640931 0 0.74314481823134659 0.18578620455783665 0 -0.16728265360160233 1 I I #
face $-1 $-1 $268 $33 $-1 $379 forward single #
loop $-1 $-1 $380 $158 #
plane-surface $-1 -68.366344187749874 0 0 1 0 0 0 0 -1 forward_v I I I I #
coedge $-1 $381 $382 $383 $384 reversed $159 $-1 #
coedge $-1 $385 $161 $163 $266 forward $99 $-1 #
coedge $-1 $161 $385 $381 $386 forward $99 $-1 #
coedge $-1 $383 $164 $161 $263 forward $268 $-1 #
edge $-1 $270 1.2567601860915509 $387 9.9289135201415739 $262 $388 forward 7 unknown #
coedge $-1 $389 $390 $162 $265 forward $257 $-1 #
edge $-1 $391 -53.437685798060556 $269 -44.791608543830748 $264 $392 forward 7 unknown #
edge $-1 $270 -16.787258186157302 $391 1.6755537013839907e-014 $163 $393 forward 7 unknown #
coedge $-1 $164 $383 $389 $394 forward $268 $-1 #
loop $-1 $-1 $383 $256 #
vertex $-1 $265 $395 #
vertex $-1 $165 $396 #
straight-curve $-1 -69.394442861365064 6.8495970392081134 18.973494507800766 1 0 0 I I #
coedge $-1 $272 $272 $-1 $397 reversed $168 $-1 #
edge $-1 $398 0 $398 6.2831853071796004 $169 $399 forward 7 unknown #
vertex $-1 $172 $400 #
ellipse-curve $-1 -61.171599829494397 9.3273551346509791 14.650455880685854 -0.51503808176128008 0 0.85716729658548041 0.4285836482927402 0 0.25751904088064004 1 I I #
coedge $-1 $276 $276 $-1 $401 reversed $175 $-1 #
edge $-1 $402 0 $402 6.2831853071796004 $176 $403 forward 7 unknown #
vertex $-1 $179 $404 #
ellipse-curve $-1 -61.171599829494397 13.043992277815271 14.650455880685854 -0.51503808176128008 0 0.85716729658548041 0.4285836482927402 0 0.25751904088064004 1 I I #
face $-1 $-1 $195 $27 $-1 $405 reversed single #
loop $-1 $-1 $296 $180 #
plane-surface $-1 0 41.066960032308209 0 0 -1 0 0 0 -1 forward_v I I I I #
coedge $-1 $406 $294 $297 $407 forward $181 $-1 #
coedge $-1 $300 $183 $184 $288 reversed $113 $-1 #
coedge $-1 $294 $406 $183 $286 reversed $181 $-1 #
edge $-1 $301 -18.973494507800762 $408 18.973494507800762 $285 $409 forward 7 unknown #
coedge $-1 $185 $184 $406 $410 forward $73 $-1 #
edge $-1 $292 -68.366344187749874 $408 68.366344187749874 $284 $411 forward 7 unknown #
coedge $-1 $297 $296 $185 $290 reversed $281 $-1 #
edge $-1 $412 -68.366344187749874 $291 68.366344187749874 $289 $413 forward 7 unknown #
vertex $-1 $187 $414 #
vertex $-1 $303 $415 #
straight-curve $-1 68.366344187749874 0 -18.973494507800762 0 -1 0 I I #
coedge $-1 $283 $285 $188 $295 reversed $181 $-1 #
edge $-1 $298 -41.066960032308209 $301 41.066960032308209 $294 $416 forward 7 unknown #
coedge $-1 $289 $189 $194 $304 forward $281 $-1 #
coedge $-1 $189 $289 $283 $407 reversed $281 $-1 #
vertex $-1 $190 $417 #
straight-curve $-1 0 41.066960032308209 18.973494507800762 -1 0 0 I I #
coedge $-1 $191 $284 $193 $303 reversed $113 $-1 #
vertex $-1 $295 $418 #
straight-curve $-1 0 -41.066960032308209 18.973494507800762 1 0 0 I I #
edge $-1 $196 -18.973494507800762 $292 18.973494507800762 $193 $419 forward 7 unknown #
edge $-1 $197 -18.973494507800762 $291 18.973494507800762 $194 $420 forward 7 unknown #
point $-1 68.366344187749874 -41.066960032308209 18.973494507800762 #
point $-1 68.366344187749874 41.066960032308209 18.973494507800762 #
face $-1 $-1 $212 $28 $-1 $421 reversed single #
loop $-1 $-1 $314 $199 #
plane-surface $-1 0 0 18.973494507800762 0 0 1 1 0 0 forward_v I I I I #
coedge $-1 $422 $202 $207 $319 forward $121 $-1 #
coedge $-1 $202 $422 $423 $424 reversed $121 $-1 #
coedge $-1 $204 $203 $202 $313 reversed $77 $-1 #
edge $-1 $425 -11.424716555131281 $324 -3.6728393502076724 $202 $426 forward 7 unknown #
coedge $-1 $423 $427 $204 $315 forward $308 $-1 #
edge $-1 $317 -68.366344187749874 $425 68.366344187749874 $314 $428 forward 7 unknown #
coedge $-1 $211 $205 $427 $429 reversed $212 $-1 #
vertex $-1 $206 $430 #
straight-curve $-1 68.366344187749874 -17.673296201564924 7.5487779526694769 0 0 1 I I #
edge $-1 $324 2.9882321430966403 $322 26.381895973839924 $310 $431 forward 7 unknown #
coedge $-1 $432 $208 $211 $326 reversed $200 $-1 #
coedge $-1 $208 $432 $422 $433 forward $200 $-1 #
vertex $-1 $209 $434 #
straight-curve $-1 0 -41.066960032308209 11.221617302877149 1 0 0 I I #
vertex $-1 $319 $435 #
straight-curve $-1 0 -17.673296201564924 11.221617302877149 1 0 0 I I #
edge $-1 $436 -18.973494507800762 $213 -11.221617302877149 $211 $437 forward 7 unknown #
point $-1 68.366344187749874 -41.066960032308209 11.221617302877149 #
point $-1 68.366344187749874 -17.673296201564924 11.221617302877149 #
face $-1 $-1 $345 $29 $-1 $438 reversed single #
loop $-1 $-1 $222 $216 #
plane-surface $-1 -68.366344187749874 0 0 1 0 0 0 0 -1 forward_v I I I I #
coedge $-1 $439 $219 $348 $440 forward $129 $-1 #
coedge $-1 $219 $439 $336 $441 forward $129 $-1 #
edge $-1 $339 -68.366344187749874 $442 68.366344187749874 $219 $443 forward 7 unknown #
coedge $-1 $221 $220 $229 $350 reversed $81 $-1 #
coedge $-1 $444 $222 $333 $441 reversed $330 $-1 #
coedge $-1 $222 $444 $224 $341 forward $330 $-1 #
vertex $-1 $341 $445 #
vertex $-1 $223 $446 #
straight-curve $-1 -68.366344187749874 17.67329620156492 7.5487779526694769 0 0 1 I I #
edge $-1 $346 -26.381895973839921 $338 -2.9882321430966385 $337 $447 forward 7 unknown #
straight-curve $-1 0 17.67329620156492 11.221617302877149 -1 0 0 I I #
coedge $-1 $448 $226 $444 $449 reversed $345 $-1 #
coedge $-1 $226 $448 $228 $349 forward $345 $-1 #
loop $-1 $-1 $226 $329 #
vertex $-1 $227 $450 #
straight-curve $-1 0 41.066960032308209 11.221617302877149 -1 0 0 I I #
coedge $-1 $229 $228 $332 $440 reversed $217 $-1 #
edge $-1 $451 -18.973494507800762 $231 -11.221617302877149 $228 $452 forward 7 unknown #
edge $-1 $442 -11.424716555131281 $230 -3.6728393502076724 $229 $453 forward 7 unknown #
point $-1 68.366344187749874 17.67329620156492 11.221617302877149 #
point $-1 68.366344187749874 41.066960032308202 11.221617302877149 #
loop $-1 $-1 $241 $233 #
plane-surface $-1 68.366344187749874 0 0 -1 0 0 0 0 1 forward_v I I I I #
coedge $-1 $356 $236 $238 $360 reversed $137 $-1 #
coedge $-1 $236 $355 $454 $455 reversed $137 $-1 #
coedge $-1 $244 $239 $236 $358 forward $234 $-1 #
edge $-1 $361 31.848678855276667 $456 39.243252627352881 $357 $457 forward 7 unknown #
coedge $-1 $238 $237 $364 $458 reversed $85 $-1 #
edge $-1 $459 -136.73268837549978 $361 -126.78230778928378 $355 $460 forward 7 unknown #
vertex $-1 $240 $461 #
straight-curve $-1 60.97177041567366 3.5972884802660055 18.973494507800751 0 -1 0 I I #
coedge $-1 $454 $241 $244 $368 reversed $353 $-1 #
coedge $-1 $241 $454 $359 $458 forward $353 $-1 #
vertex $-1 $242 $462 #
straight-curve $-1 68.366344187749874 10.666397914141221 102.70980343190041 0 0 1 I I #
straight-curve $-1 -33.245844661344265 10.666397914141221 103.8074180147067 0.74314481823134659 0 -0.66913061440640931 I I #
edge $-1 $456 3.7227560069228005 $245 10.666397914141221 $363 $463 forward 7 unknown #
point $-1 68.366344187749874 10.666397914141221 18.973494507800762 #
point $-1 60.97177041567366 10.666397914141221 18.973494507800766 #
edge $-1 $464 1 $464 0 $248 $-1 forward 7 unknown #
vertex $-1 $249 $465 #
ellipse-curve $-1 63.999926687305347 5.7066536946994901 14.901297551953263 0.66913061440640931 0 0.74314481823134659 0.18578620455783665 0 -0.16728265360160233 1 I I #
point $-1 64.854843506269589 5.7066536946994901 15.477159716583008 #
edge $-1 $466 1 $466 0 $252 $-1 forward 7 unknown #
vertex $-1 $253 $467 #
ellipse-curve $-1 63.999926687305347 8.6825002263645317 14.901297551953263 0.66913061440640931 0 0.74314481823134659 0.18578620455783665 0 -0.16728265360160233 1 I I #
point $-1 64.854843506269589 8.6825002263645317 15.477159716583008 #
plane-surface $-1 0 0 18.973494507800762 0 0 1 1 0 0 forward_v I I I I #
coedge $-1 $390 $389 $382 $468 forward $257 $-1 #
coedge $-1 $382 $259 $261 $386 reversed $159 $-1 #
coedge $-1 $259 $381 $380 $468 reversed $159 $-1 #
coedge $-1 $267 $262 $259 $384 forward $268 $-1 #
edge $-1 $387 -15.417587390126137 $469 -1.0280986736151903 $383 $470 forward 7 unknown #
coedge $-1 $261 $260 $390 $471 reversed $99 $-1 #
edge $-1 $472 -1.6755537013839907e-014 $387 16.787258186157302 $381 $473 forward 7 unknown #
vertex $-1 $263 $474 #
straight-curve $-1 -53.976855471238927 5.5928368531165624 18.973494507800762 0 1 0 I I #
coedge $-1 $380 $264 $267 $394 reversed $257 $-1 #
coedge $-1 $264 $380 $385 $471 forward $257 $-1 #
vertex $-1 $265 $475 #
straight-curve $-1 -68.366344187749874 6.8495970392081134 63.765103051631506 0 0 1 I I #
straight-curve $-1 -68.36634418774986 6.8495970392081134 10.327417253570957 -0.85716729658548041 0 -0.51503808176128008 I I #
edge $-1 $469 -15.521750373258136 $269 -6.8495970392081134 $389 $476 forward 7 unknown #
point $-1 -68.366344187749874 6.8495970392081134 18.973494507800762 #
point $-1 -53.976855471238927 6.8495970392081134 18.973494507800762 #
edge $-1 $477 1 $477 0 $272 $-1 forward 7 unknown #
vertex $-1 $273 $478 #
ellipse-curve $-1 -60.30375901131621 9.3273551346509791 13.206126239195152 -0.51503808176128008 0 0.85716729658548041 0.4285836482927402 0 0.25751904088064004 1 I I #
point $-1 -60.743016181201661 9.3273551346509791 14.907974921566495 #
edge $-1 $479 1 $479 0 $276 $-1 forward 7 unknown #
vertex $-1 $277 $480 #
ellipse-curve $-1 -60.30375901131621 13.043992277815271 13.206126239195152 -0.51503808176128008 0 0.85716729658548041 0.4285836482927402 0 0.25751904088064004 1 I I #
point $-1 -60.743016181201661 13.043992277815271 14.907974921566495 #
plane-surface $-1 68.366344187749874 0 0 -1 0 0 0 0 1 forward_v I I I I #
coedge $-1 $285 $283 $287 $410 reversed $181 $-1 #
edge $-1 $298 -18.973494507800762 $412 18.973494507800762 $297 $481 forward 7 unknown #
vertex $-1 $410 $482 #
straight-curve $-1 -68.366344187749874 -41.066960032308209 0 0 0 -1 I I #
edge $-1 $408 -41.066960032308209 $412 41.066960032308209 $406 $483 forward 7 unknown #
straight-curve $-1 0 -41.066960032308209 -18.973494507800762 -1 0 0 I I #
vertex $-1 $290 $484 #
straight-curve $-1 0 41.066960032308209 -18.973494507800762 1 0 0 I I #
point $-1 68.366344187749874 41.066960032308209 -18.973494507800762 #
point $-1 68.366344187749874 -41.066960032308209 -18.973494507800762 #
straight-curve $-1 -68.366344187749874 0 18.973494507800762 0 -1 0 I I #
point $-1 -68.366344187749874 41.066960032308209 18.973494507800762 #
point $-1 -68.366344187749874 -41.066960032308209 18.973494507800762 #
straight-curve $-1 68.366344187749874 -41.066960032308209 0 0 0 -1 I I #
straight-curve $-1 68.366344187749874 41.066960032308209 0 0 0 -1 I I #
plane-surface $-1 68.366344187749874 0 0 -1 0 0 0 0 1 forward_v I I I I #
coedge $-1 $311 $310 $321 $433 reversed $121 $-1 #
coedge $-1 $485 $314 $311 $424 forward $308 $-1 #
edge $-1 $425 17.673296201564924 $486 41.066960032308209 $311 $487 forward 7 unknown #
vertex $-1 $424 $488 #
straight-curve $-1 -68.366344187749874 -17.673296201564924 7.5487779526694769 0 0 -1 I I #
coedge $-1 $314 $485 $316 $429 forward $308 $-1 #
straight-curve $-1 0 -17.673296201564924 18.973494507800762 -1 0 0 I I #
edge $-1 $436 -41.066960032308209 $317 -17.673296201564924 $316 $489 forward 7 unknown #
point $-1 68.366344187749874 -17.673296201564924 18.973494507800758 #
straight-curve $-1 -68.366344187749874 -14.685064058468283 11.221617302877149 0 -1 0 I I #
coedge $-1 $321 $320 $485 $490 reversed $200 $-1 #
edge $-1 $486 -18.973494507800762 $322 -11.221617302877149 $422 $491 forward 7 unknown #
point $-1 -68.366344187749874 -41.066960032308209 11.221617302877149 #
point $-1 -68.366344187749874 -17.673296201564924 11.221617302877149 #
vertex $-1 $429 $492 #
straight-curve $-1 68.366344187749874 -41.066960032308209 0 0 0 -1 I I #
plane-surface $-1 0 41.066960032308209 0 0 -1 0 0 0 -1 forward_v I I I I #
coedge $-1 $333 $332 $448 $493 forward $129 $-1 #
edge $-1 $442 17.67329620156492 $451 41.066960032308209 $348 $494 forward 7 unknown #
edge $-1 $495 -41.066960032308209 $339 -17.67329620156492 $336 $496 forward 7 unknown #
vertex $-1 $440 $497 #
straight-curve $-1 0 17.67329620156492 18.973494507800762 1 0 0 I I #
coedge $-1 $337 $336 $343 $449 forward $330 $-1 #
point $-1 -68.366344187749874 17.67329620156492 11.221617302877149 #
point $-1 -68.366344187749874 17.67329620156492 18.973494507800758 #
straight-curve $-1 -68.366344187749874 14.685064058468281 11.221617302877149 0 -1 0 I I #
coedge $-1 $344 $343 $439 $493 reversed $345 $-1 #
edge $-1 $495 -18.973494507800762 $346 -11.221617302877149 $343 $498 forward 7 unknown #
point $-1 -68.366344187749874 41.066960032308202 11.221617302877149 #
vertex $-1 $440 $499 #
straight-curve $-1 68.366344187749874 41.066960032308209 0 0 0 -1 I I #
straight-curve $-1 68.366344187749874 17.67329620156492 7.5487779526694769 0 0 -1 I I #
coedge $-1 $364 $363 $356 $455 forward $353 $-1 #
edge $-1 $456 83.736308924099646 $459 90.394413199331979 $454 $500 forward 7 unknown #
vertex $-1 $368 $501 #
straight-curve $-1 29.123091560396993 3.7227560069228005 18.973494507800766 1 0 0 I I #
edge $-1 $459 0.12546752665679506 $365 7.0691094338752158 $364 $502 forward 7 unknown #
vertex $-1 $458 $503 #
straight-curve $-1 -33.245844661344265 3.7227560069228005 103.8074180147067 -0.74314481823134659 0 0.66913061440640931 I I #
point $-1 60.97177041567366 3.7227560069228005 18.973494507800766 #
point $-1 68.366344187749874 10.666397914141221 12.315390232568433 #
straight-curve $-1 68.366344187749874 0 18.973494507800762 0 1 0 I I #
vertex $-1 $371 $504 #
point $-1 64.18571289186319 5.7066536946994901 14.734014898351662 #
vertex $-1 $375 $505 #
point $-1 64.18571289186319 8.6825002263645317 14.734014898351662 #
edge $-1 $469 44.791608543830748 $472 53.437685798060556 $380 $506 forward 7 unknown #
vertex $-1 $394 $507 #
straight-curve $-1 -69.394442861365064 15.521750373258136 18.973494507800766 -1 0 0 I I #
edge $-1 $472 -9.9289135201415739 $391 -1.2567601860915509 $390 $508 forward 7 unknown #
vertex $-1 $471 $509 #
straight-curve $-1 -68.36634418774986 15.521750373258136 10.327417253570957 0.85716729658548041 0 0.51503808176128008 I I #
point $-1 -53.976855471238927 15.521750373258136 18.973494507800762 #
point $-1 -68.366344187749874 6.8495970392081134 10.327417253570948 #
straight-curve $-1 -68.366344187749874 0 18.973494507800762 0 -1 0 I I #
vertex $-1 $397 $510 #
point $-1 -59.875175363023473 9.3273551346509791 13.463645280075792 #
vertex $-1 $401 $511 #
point $-1 -59.875175363023473 13.043992277815271 13.463645280075792 #
straight-curve $-1 -68.366344187749874 41.066960032308209 0 0 0 -1 I I #
point $-1 -68.366344187749874 -41.066960032308209 -18.973494507800762 #
straight-curve $-1 -68.366344187749874 0 -18.973494507800762 0 1 0 I I #
point $-1 -68.366344187749874 41.066960032308209 -18.973494507800762 #
coedge $-1 $427 $423 $432 $490 forward $308 $-1 #
vertex $-1 $424 $512 #
straight-curve $-1 -68.366344187749874 0 18.973494507800762 0 -1 0 I I #
point $-1 -68.366344187749874 -17.673296201564924 18.973494507800758 #
straight-curve $-1 68.366344187749874 0 18.973494507800762 0 1 0 I I #
edge $-1 $486 -68.366344187749874 $436 68.366344187749874 $432 $513 forward 7 unknown #
straight-curve $-1 -68.366344187749874 -41.066960032308209 0 0 0 -1 I I #
point $-1 68.366344187749874 -41.066960032308209 18.973494507800762 #
edge $-1 $451 -68.366344187749874 $495 68.366344187749874 $448 $514 forward 7 unknown #
straight-curve $-1 68.366344187749874 0 18.973494507800762 0 1 0 I I #
vertex $-1 $493 $515 #
straight-curve $-1 -68.366344187749874 0 18.973494507800762 0 -1 0 I I #
point $-1 68.366344187749874 17.67329620156492 18.973494507800758 #
straight-curve $-1 -68.366344187749874 41.066960032308209 0 0 0 -1 I I #
point $-1 68.366344187749874 41.066960032308209 18.973494507800762 #
straight-curve $-1 68.366344187749874 3.7227560069228005 102.70980343190041 0 0 -1 I I #
point $-1 68.366344187749874 3.7227560069228005 18.973494507800762 #
straight-curve $-1 68.366344187749874 3.5972884802660055 12.31539023256844 0 1 0 I I #
point $-1 68.366344187749874 3.7227560069228005 12.315390232568433 #
point $-1 63.832644033703744 5.7066536946994901 14.715511347395427 #
point $-1 63.832644033703744 8.6825002263645317 14.715511347395427 #
straight-curve $-1 -68.366344187749874 15.521750373258136 63.765103051631506 0 0 -1 I I #
point $-1 -68.366344187749874 15.521750373258136 18.973494507800762 #
straight-curve $-1 -68.366344187749874 5.5928368531165624 10.327417253570943 0 -1 0 I I #
point $-1 -68.366344187749874 15.521750373258136 10.327417253570948 #
point $-1 -60.046239970435572 9.3273551346509791 12.777542590902412 #
point $-1 -60.046239970435572 13.043992277815271 12.777542590902412 #
point $-1 -68.366344187749874 -41.066960032308209 18.973494507800762 #
straight-curve $-1 0 -41.066960032308209 18.973494507800762 1 0 0 I I #
straight-curve $-1 0 41.066960032308209 18.973494507800762 -1 0 0 I I #
point $-1 -68.366344187749874 41.066960032308209 18.973494507800762 #
End-of-ACIS-data 