500 0 18 0           
7 Unknown 11 ACIS 5.0 NT 24 Thu Mar 25 19:00:58 1999 
-1 9.9999999999999995e-007 1e-010 
body $-1 $18 $-1 $19 #
body $-1 $20 $-1 $21 #
body $-1 $22 $-1 $23 #
body $-1 $24 $-1 $25 #
body $-1 $26 $-1 $27 #
body $-1 $28 $-1 $29 #
body $-1 $30 $-1 $31 #
body $-1 $32 $-1 $33 #
body $-1 $34 $-1 $35 #
body $-1 $36 $-1 $37 #
body $-1 $38 $-1 $39 #
body $-1 $40 $-1 $41 #
body $-1 $42 $-1 $43 #
body $-1 $44 $-1 $45 #
body $-1 $46 $-1 $47 #
body $-1 $48 $-1 $49 #
body $-1 $50 $-1 $51 #
body $-1 $52 $-1 $53 #
lump $-1 $-1 $54 $0 #
transform $-1 1 0 0 0 1 0 0 0 1 48.750267036957915 21.066744932093773 4.5342974733141439 1 rotate no_reflect no_shear #
lump $-1 $-1 $55 $1 #
transform $-1 1 0 0 0 1 0 0 0 1 48.750267036957915 21.066744932093773 4.5342974733141439 1 rotate no_reflect no_shear #
lump $-1 $-1 $56 $2 #
transform $-1 1 0 0 0 1 0 0 0 1 48.750267036957915 21.066744932093773 4.5342974733141439 1 rotate no_reflect no_shear #
lump $-1 $-1 $57 $3 #
transform $-1 1 0 0 0 1 0 0 0 1 48.750267036957915 21.066744932093773 4.5342974733141439 1 rotate no_reflect no_shear #
lump $-1 $-1 $58 $4 #
transform $-1 1 0 0 0 1 0 0 0 1 48.750267036957915 21.066744932093773 4.5342974733141439 1 rotate no_reflect no_shear #
lump $-1 $-1 $59 $5 #
transform $-1 1 0 0 0 1 0 0 0 1 48.750267036957915 21.066744932093773 4.5342974733141439 1 rotate no_reflect no_shear #
lump $-1 $-1 $60 $6 #
transform $-1 1 0 0 0 1 0 0 0 1 48.750267036957915 21.066744932093773 4.5342974733141439 1 rotate no_reflect no_shear #
lump $-1 $-1 $61 $7 #
transform $-1 1 0 0 0 1 0 0 0 1 48.750267036957915 21.066744932093773 4.5342974733141439 1 rotate no_reflect no_shear #
lump $-1 $-1 $62 $8 #
transform $-1 1 0 0 0 1 0 0 0 1 48.750267036957915 21.066744932093773 4.5342974733141439 1 rotate no_reflect no_shear #
lump $-1 $-1 $63 $9 #
transform $-1 1 0 0 0 1 0 0 0 1 48.750267036957915 21.066744932093773 4.5342974733141439 1 rotate no_reflect no_shear #
lump $-1 $-1 $64 $10 #
transform $-1 1 0 0 0 1 0 0 0 1 48.750267036957915 21.066744932093773 4.5342974733141439 1 rotate no_reflect no_shear #
lump $-1 $-1 $65 $11 #
transform $-1 1 0 0 0 1 0 0 0 1 48.750267036957915 21.066744932093773 4.5342974733141439 1 rotate no_reflect no_shear #
lump $-1 $-1 $66 $12 #
transform $-1 1 0 0 0 1 0 0 0 1 48.750267036957915 21.066744932093773 4.5342974733141439 1 rotate no_reflect no_shear #
lump $-1 $-1 $67 $13 #
transform $-1 1 0 0 0 1 0 0 0 1 48.750267036957915 21.066744932093773 4.5342974733141439 1 rotate no_reflect no_shear #
lump $-1 $-1 $68 $14 #
transform $-1 1 0 0 0 1 0 0 0 1 48.750267036957915 21.066744932093773 4.5342974733141439 1 rotate no_reflect no_shear #
lump $-1 $-1 $69 $15 #
transform $-1 1 0 0 0 1 0 0 0 1 48.750267036957915 21.066744932093773 4.5342974733141439 1 rotate no_reflect no_shear #
lump $-1 $-1 $70 $16 #
transform $-1 1 0 0 0 1 0 0 0 1 48.750267036957915 21.066744932093773 4.5342974733141439 1 rotate no_reflect no_shear #
lump $-1 $-1 $71 $17 #
transform $-1 1 0 0 0 1 0 0 0 1 48.750267036957915 21.066744932093773 4.5342974733141439 1 rotate no_reflect no_shear #
shell $-1 $-1 $-1 $72 $-1 $18 #
shell $-1 $-1 $-1 $73 $-1 $20 #
shell $-1 $-1 $-1 $74 $-1 $22 #
shell $-1 $-1 $-1 $75 $-1 $24 #
shell $-1 $-1 $-1 $76 $-1 $26 #
shell $-1 $-1 $-1 $77 $-1 $28 #
shell $-1 $-1 $-1 $78 $-1 $30 #
shell $-1 $-1 $-1 $79 $-1 $32 #
shell $-1 $-1 $-1 $80 $-1 $34 #
shell $-1 $-1 $-1 $81 $-1 $36 #
shell $-1 $-1 $-1 $82 $-1 $38 #
shell $-1 $-1 $-1 $83 $-1 $40 #
shell $-1 $-1 $-1 $84 $-1 $42 #
shell $-1 $-1 $-1 $85 $-1 $44 #
shell $-1 $-1 $-1 $86 $-1 $46 #
shell $-1 $-1 $-1 $87 $-1 $48 #
shell $-1 $-1 $-1 $88 $-1 $50 #
shell $-1 $-1 $-1 $89 $-1 $52 #
face $-1 $90 $91 $54 $-1 $92 forward single #
face $-1 $93 $94 $55 $-1 $95 forward single #
face $-1 $96 $97 $56 $-1 $98 forward single #
face $-1 $99 $100 $57 $-1 $101 reversed single #
face $-1 $102 $103 $58 $-1 $104 forward single #
face $-1 $105 $106 $59 $-1 $107 forward single #
face $-1 $108 $109 $60 $-1 $110 forward single #
face $-1 $111 $112 $61 $-1 $113 reversed single #
face $-1 $114 $115 $62 $-1 $116 forward single #
face $-1 $117 $118 $63 $-1 $119 forward single #
face $-1 $120 $121 $64 $-1 $122 forward single #
face $-1 $123 $124 $65 $-1 $125 reversed single #
face $-1 $126 $127 $66 $-1 $128 forward single #
face $-1 $129 $130 $67 $-1 $131 forward single #
face $-1 $132 $133 $68 $-1 $134 forward single #
face $-1 $135 $136 $69 $-1 $137 reversed single #
face $-1 $138 $139 $70 $-1 $140 forward single #
face $-1 $141 $142 $71 $-1 $143 forward single #
face $-1 $144 $145 $54 $-1 $146 reversed single #
loop $-1 $-1 $147 $72 #
plane-surface $-1 0 0 4.5342974733141439 0 0 1 1 0 0 forward_v I I I I #
face $-1 $148 $149 $55 $-1 $150 reversed single #
loop $-1 $-1 $151 $73 #
plane-surface $-1 0 -18.297184079361458 1.3504473885493837 0 0 1 1 0 0 forward_v I I I I #
face $-1 $152 $153 $56 $-1 $154 reversed single #
loop $-1 $-1 $155 $74 #
plane-surface $-1 0 18.297184079361454 1.3504473885493837 0 0 1 1 0 0 forward_v I I I I #
face $-1 $156 $157 $57 $-1 $158 reversed single #
loop $-1 $-1 $159 $75 #
plane-surface $-1 -107.42755395083387 -7.3274985803151393 78.369533837726863 0 -1 0 0.6018150307709319 0 -0.79863550430605224 forward_v I I I I #
face $-1 $160 $161 $58 $-1 $162 forward single #
loop $-1 $163 $164 $76 #
cone-surface $-1 -45.720811373167635 -12.27880843278832 2.0484044228934373 0.6018150307709319 0 -0.79863550430605224 0.39931775215302612 0 0.30090751538546595 1 I I 0 1 0.5 forward I I I I #
face $-1 $165 $166 $59 $-1 $167 forward single #
loop $-1 $168 $169 $77 #
cone-surface $-1 -45.720811373167635 -10.422067238110877 2.0484044228934373 0.6018150307709319 0 -0.79863550430605224 0.39931775215302612 0 0.30090751538546595 1 I I 0 1 0.5 forward I I I I #
face $-1 $170 $171 $60 $-1 $172 forward single #
loop $-1 $173 $174 $78 #
cone-surface $-1 -45.720811373167635 -8.5653260434334335 2.0484044228934373 0.6018150307709319 0 -0.79863550430605224 0.39931775215302612 0 0.30090751538546595 1 I I 0 1 0.5 forward I I I I #
face $-1 $175 $176 $61 $-1 $177 reversed single #
loop $-1 $-1 $178 $79 #
plane-surface $-1 -107.42755395083387 3.0945686577957341 78.369533837726863 0 -1 0 0.6018150307709319 0 -0.79863550430605224 forward_v I I I I #
face $-1 $179 $180 $62 $-1 $181 forward single #
loop $-1 $182 $183 $80 #
cone-surface $-1 -45.720811373167635 -1.8567411946774435 2.0484044228934373 0.6018150307709319 0 -0.79863550430605224 0.39931775215302612 0 0.30090751538546595 1 I I 0 1 0.5 forward I I I I #
face $-1 $184 $185 $63 $-1 $186 forward single #
loop $-1 $187 $188 $81 #
cone-surface $-1 -45.720811373167635 -3.5527136788005009e-015 2.0484044228934373 0.6018150307709319 0 -0.79863550430605224 0.39931775215302612 0 0.30090751538546595 1 I I 0 1 0.5 forward I I I I #
face $-1 $189 $190 $64 $-1 $191 forward single #
loop $-1 $192 $193 $82 #
cone-surface $-1 -45.720811373167635 1.8567411946774435 2.0484044228934373 0.6018150307709319 0 -0.79863550430605224 0.39931775215302612 0 0.30090751538546595 1 I I 0 1 0.5 forward I I I I #
face $-1 $194 $195 $65 $-1 $196 reversed single #
loop $-1 $-1 $197 $83 #
plane-surface $-1 -107.42755395083387 13.51663589590661 78.369533837726863 0 -1 0 0.6018150307709319 0 -0.79863550430605224 forward_v I I I I #
face $-1 $198 $199 $66 $-1 $200 forward single #
loop $-1 $201 $202 $84 #
cone-surface $-1 -45.720811373167635 8.5653260434334335 2.0484044228934373 0.6018150307709319 0 -0.79863550430605224 0.39931775215302612 0 0.30090751538546595 1 I I 0 1 0.5 forward I I I I #
face $-1 $203 $204 $67 $-1 $205 forward single #
loop $-1 $206 $207 $85 #
cone-surface $-1 -45.720811373167635 10.422067238110873 2.0484044228934373 0.6018150307709319 0 -0.79863550430605224 0.39931775215302612 0 0.30090751538546595 1 I I 0 1 0.5 forward I I I I #
face $-1 $208 $209 $68 $-1 $210 forward single #
loop $-1 $211 $212 $86 #
cone-surface $-1 -45.720811373167635 12.27880843278832 2.0484044228934373 0.6018150307709319 0 -0.79863550430605224 0.39931775215302612 0 0.30090751538546595 1 I I 0 1 0.5 forward I I I I #
face $-1 $213 $214 $69 $-1 $215 reversed single #
loop $-1 $-1 $216 $87 #
plane-surface $-1 86.756960781086974 -12.672129152164189 133.40571865304935 0 1 0 0.87461971476443456 0 0.48480960649040278 forward_v I I I I #
face $-1 $217 $218 $70 $-1 $219 forward single #
loop $-1 $220 $221 $88 #
cone-surface $-1 46.758273692825838 -10.409045443528369 2.1576679328411599 -0.87461971476443456 0 -0.48480960649040278 0.48480960649040278 0 -0.87461971476443456 1 I I 0 1 1 forward I I I I #
face $-1 $222 $223 $71 $-1 $224 forward single #
loop $-1 $225 $226 $89 #
cone-surface $-1 46.758273692825838 -7.0144198805746392 2.1576679328411599 -0.87461971476443456 0 -0.48480960649040278 0.48480960649040278 0 -0.87461971476443456 1 I I 0 1 1 forward I I I I #
face $-1 $227 $228 $54 $-1 $229 reversed single #
loop $-1 $-1 $230 $90 #
plane-surface $-1 0 0 -4.5342974733141439 0 0 1 1 0 0 forward_v I I I I #
coedge $-1 $231 $232 $233 $234 forward $91 $-1 #
face $-1 $235 $236 $55 $-1 $237 reversed single #
loop $-1 $-1 $238 $93 #
plane-surface $-1 0 -18.297184079361458 -1.6495526114506163 0 0 1 1 0 0 forward_v I I I I #
coedge $-1 $239 $240 $241 $242 reversed $94 $-1 #
face $-1 $243 $244 $56 $-1 $245 reversed single #
loop $-1 $-1 $246 $96 #
plane-surface $-1 0 18.297184079361454 -1.6495526114506163 0 0 1 1 0 0 forward_v I I I I #
coedge $-1 $247 $248 $249 $250 reversed $97 $-1 #
face $-1 $251 $252 $57 $-1 $253 reversed single #
loop $-1 $-1 $254 $99 #
plane-surface $-1 -48.750267036957922 -10.422067238110877 0.50214563749565855 -0.6018150307709319 0 0.79863550430605224 0.79863550430605224 0 0.6018150307709319 forward_v I I I I #
coedge $-1 $255 $256 $257 $258 reversed $100 $-1 #
face $-1 $-1 $259 $58 $-1 $260 forward single #
loop $-1 $261 $262 $102 #
cone-surface $-1 -45.216325005436126 -12.27880843278832 1.3789284143054505 0.6018150307709319 0 -0.79863550430605224 0.19965887607651306 0 0.15045375769273298 1 I I -0.70710678118654746 0.70710678118654746 0.25 forward I I I I #
loop $-1 $-1 $263 $76 #
coedge $-1 $164 $164 $264 $265 reversed $103 $-1 #
face $-1 $-1 $266 $59 $-1 $267 forward single #
loop $-1 $268 $269 $105 #
cone-surface $-1 -45.216325005436126 -10.422067238110877 1.3789284143054505 0.6018150307709319 0 -0.79863550430605224 0.19965887607651306 0 0.15045375769273298 1 I I -0.70710678118654746 0.70710678118654746 0.25 forward I I I I #
loop $-1 $-1 $270 $77 #
coedge $-1 $169 $169 $271 $272 reversed $106 $-1 #
face $-1 $-1 $273 $60 $-1 $274 forward single #
loop $-1 $275 $276 $108 #
cone-surface $-1 -45.216325005436126 -8.5653260434334335 1.3789284143054505 0.6018150307709319 0 -0.79863550430605224 0.19965887607651306 0 0.15045375769273298 1 I I -0.70710678118654746 0.70710678118654746 0.25 forward I I I I #
loop $-1 $-1 $277 $78 #
coedge $-1 $174 $174 $278 $279 reversed $109 $-1 #
face $-1 $280 $281 $61 $-1 $282 reversed single #
loop $-1 $-1 $283 $111 #
plane-surface $-1 -48.750267036957922 -3.5527136788005009e-015 0.50214563749565855 -0.6018150307709319 0 0.79863550430605224 0.79863550430605224 0 0.6018150307709319 forward_v I I I I #
coedge $-1 $284 $285 $286 $287 reversed $112 $-1 #
face $-1 $-1 $288 $62 $-1 $289 forward single #
loop $-1 $290 $291 $114 #
cone-surface $-1 -45.216325005436126 -1.8567411946774435 1.3789284143054505 0.6018150307709319 0 -0.79863550430605224 0.19965887607651306 0 0.15045375769273298 1 I I -0.70710678118654746 0.70710678118654746 0.25 forward I I I I #
loop $-1 $-1 $292 $80 #
coedge $-1 $183 $183 $293 $294 reversed $115 $-1 #
face $-1 $-1 $295 $63 $-1 $296 forward single #
loop $-1 $297 $298 $117 #
cone-surface $-1 -45.216325005436126 -3.5527136788005009e-015 1.3789284143054505 0.6018150307709319 0 -0.79863550430605224 0.19965887607651306 0 0.15045375769273298 1 I I -0.70710678118654746 0.70710678118654746 0.25 forward I I I I #
loop $-1 $-1 $299 $81 #
coedge $-1 $188 $188 $300 $301 reversed $118 $-1 #
face $-1 $-1 $302 $64 $-1 $303 forward single #
loop $-1 $304 $305 $120 #
cone-surface $-1 -45.216325005436126 1.8567411946774435 1.3789284143054505 0.6018150307709319 0 -0.79863550430605224 0.19965887607651306 0 0.15045375769273298 1 I I -0.70710678118654746 0.70710678118654746 0.25 forward I I I I #
loop $-1 $-1 $306 $82 #
coedge $-1 $193 $193 $307 $308 reversed $121 $-1 #
face $-1 $309 $310 $65 $-1 $311 reversed single #
loop $-1 $-1 $312 $123 #
plane-surface $-1 -48.750267036957922 10.422067238110873 0.50214563749565855 -0.6018150307709319 0 0.79863550430605224 0.79863550430605224 0 0.6018150307709319 forward_v I I I I #
coedge $-1 $313 $314 $315 $316 reversed $124 $-1 #
face $-1 $-1 $317 $66 $-1 $318 forward single #
loop $-1 $319 $320 $126 #
cone-surface $-1 -45.216325005436126 8.5653260434334335 1.3789284143054505 0.6018150307709319 0 -0.79863550430605224 0.19965887607651306 0 0.15045375769273298 1 I I -0.70710678118654746 0.70710678118654746 0.25 forward I I I I #
loop $-1 $-1 $321 $84 #
coedge $-1 $202 $202 $322 $323 reversed $127 $-1 #
face $-1 $-1 $324 $67 $-1 $325 forward single #
loop $-1 $326 $327 $129 #
cone-surface $-1 -45.216325005436126 10.422067238110873 1.3789284143054505 0.6018150307709319 0 -0.79863550430605224 0.19965887607651306 0 0.15045375769273298 1 I I -0.70710678118654746 0.70710678118654746 0.25 forward I I I I #
loop $-1 $-1 $328 $85 #
coedge $-1 $207 $207 $329 $330 reversed $130 $-1 #
face $-1 $-1 $331 $68 $-1 $332 forward single #
loop $-1 $333 $334 $132 #
cone-surface $-1 -45.216325005436126 12.27880843278832 1.3789284143054505 0.6018150307709319 0 -0.79863550430605224 0.19965887607651306 0 0.15045375769273298 1 I I -0.70710678118654746 0.70710678118654746 0.25 forward I I I I #
loop $-1 $-1 $335 $86 #
coedge $-1 $212 $212 $336 $337 reversed $133 $-1 #
face $-1 $338 $339 $69 $-1 $340 reversed single #
loop $-1 $-1 $341 $135 #
plane-surface $-1 1.4810714799786808 -8.711732662051503 86.136523096070107 0.87461971476443456 0 0.48480960649040278 0.48480960649040278 0 -0.87461971476443456 forward_v I I I I #
coedge $-1 $342 $343 $344 $345 reversed $136 $-1 #
face $-1 $-1 $346 $70 $-1 $347 forward single #
loop $-1 $348 $349 $138 #
cone-surface $-1 45.347142967997463 -10.409045443528369 1.3754654282991474 -0.87461971476443456 0 -0.48480960649040278 0.24240480324520139 0 -0.43730985738221728 1 I I -0.70710678118654746 0.70710678118654746 0.5 forward I I I I #
loop $-1 $-1 $350 $88 #
coedge $-1 $221 $221 $351 $352 reversed $139 $-1 #
face $-1 $-1 $353 $71 $-1 $354 forward single #
loop $-1 $355 $356 $141 #
cone-surface $-1 45.347142967997463 -7.0144198805746392 1.3754654282991474 -0.87461971476443456 0 -0.48480960649040278 0.24240480324520139 0 -0.43730985738221728 1 I I -0.70710678118654746 0.70710678118654746 0.5 forward I I I I #
loop $-1 $-1 $357 $89 #
coedge $-1 $226 $226 $358 $359 reversed $142 $-1 #
face $-1 $360 $361 $54 $-1 $362 reversed single #
loop $-1 $-1 $363 $144 #
plane-surface $-1 0 -21.066744932093773 0 0 1 0 0 0 1 forward_v I I I I #
coedge $-1 $364 $365 $366 $367 forward $145 $-1 #
coedge $-1 $368 $147 $369 $370 forward $91 $-1 #
coedge $-1 $147 $368 $371 $372 forward $91 $-1 #
coedge $-1 $373 $374 $147 $234 reversed $375 $-1 #
edge $-1 $376 -21.066744932093773 $377 21.066744932093773 $233 $378 forward 7 unknown #
face $-1 $379 $380 $55 $-1 $381 reversed single #
loop $-1 $-1 $382 $148 #
plane-surface $-1 0 -15.527623226629142 -0.14955261145061627 0 -1 0 0 0 -1 forward_v I I I I #
coedge $-1 $383 $384 $385 $386 reversed $149 $-1 #
coedge $-1 $387 $151 $388 $389 forward $94 $-1 #
coedge $-1 $151 $387 $390 $391 reversed $94 $-1 #
coedge $-1 $392 $393 $151 $242 forward $394 $-1 #
edge $-1 $395 6.3790311869484135 $396 11.918152892413044 $241 $397 forward 7 unknown #
face $-1 $398 $399 $56 $-1 $400 reversed single #
loop $-1 $-1 $401 $152 #
plane-surface $-1 0 15.527623226629139 -0.14955261145061627 0 1 0 0 0 1 forward_v I I I I #
coedge $-1 $402 $403 $404 $405 reversed $153 $-1 #
coedge $-1 $406 $155 $407 $408 reversed $97 $-1 #
coedge $-1 $155 $406 $409 $410 forward $97 $-1 #
coedge $-1 $411 $412 $155 $250 forward $399 $-1 #
edge $-1 $413 -11.918152892413042 $414 -6.3790311869484118 $249 $415 forward 7 unknown #
face $-1 $416 $417 $57 $-1 $418 reversed single #
loop $-1 $-1 $419 $156 #
plane-surface $-1 -107.42755395083387 -13.516635895906614 78.369533837726863 0 1 0 -0.6018150307709319 0 0.79863550430605224 forward_v I I I I #
coedge $-1 $420 $421 $422 $423 reversed $157 $-1 #
coedge $-1 $256 $159 $424 $425 reversed $100 $-1 #
coedge $-1 $159 $255 $420 $426 reversed $100 $-1 #
coedge $-1 $422 $427 $159 $258 forward $417 $-1 #
edge $-1 $428 34.650469445549291 $429 38.682621281367766 $257 $430 forward 7 unknown #
loop $-1 $-1 $264 $160 #
plane-surface $-1 -48.750267036957922 -10.422067238110877 0.50214563749565855 -0.6018150307709319 0 0.79863550430605224 0.79863550430605224 0 0.6018150307709319 forward_v I I I I #
loop $-1 $-1 $431 $102 #
coedge $-1 $262 $262 $263 $432 reversed $161 $-1 #
coedge $-1 $263 $263 $262 $432 forward $163 $-1 #
coedge $-1 $264 $264 $164 $265 forward $259 $-1 #
edge $-1 $433 0 $433 6.2831853071796004 $264 $434 forward 7 unknown #
loop $-1 $-1 $271 $165 #
plane-surface $-1 -48.750267036957922 -10.422067238110877 0.50214563749565855 -0.6018150307709319 0 0.79863550430605224 0.79863550430605224 0 0.6018150307709319 forward_v I I I I #
loop $-1 $-1 $435 $105 #
coedge $-1 $269 $269 $270 $436 reversed $166 $-1 #
coedge $-1 $270 $270 $269 $436 forward $168 $-1 #
coedge $-1 $271 $271 $169 $272 forward $266 $-1 #
edge $-1 $437 0 $437 6.2831853071796004 $271 $438 forward 7 unknown #
loop $-1 $-1 $278 $170 #
plane-surface $-1 -48.750267036957922 -10.422067238110877 0.50214563749565855 -0.6018150307709319 0 0.79863550430605224 0.79863550430605224 0 0.6018150307709319 forward_v I I I I #
loop $-1 $-1 $439 $108 #
coedge $-1 $276 $276 $277 $440 reversed $171 $-1 #
coedge $-1 $277 $277 $276 $440 forward $173 $-1 #
coedge $-1 $278 $278 $174 $279 forward $273 $-1 #
edge $-1 $441 0 $441 6.2831853071796004 $278 $442 forward 7 unknown #
face $-1 $443 $444 $61 $-1 $445 forward single #
loop $-1 $-1 $446 $175 #
plane-surface $-1 -107.42755395083387 -3.0945686577957412 78.369533837726863 0 1 0 -0.6018150307709319 0 0.79863550430605224 forward_v I I I I #
coedge $-1 $447 $448 $449 $450 reversed $176 $-1 #
coedge $-1 $285 $178 $451 $452 reversed $112 $-1 #
coedge $-1 $178 $284 $447 $453 reversed $112 $-1 #
coedge $-1 $449 $454 $178 $287 forward $455 $-1 #
edge $-1 $456 34.650469445549291 $457 38.682621281367766 $286 $458 forward 7 unknown #
loop $-1 $-1 $293 $179 #
plane-surface $-1 -48.750267036957922 -3.5527136788005009e-015 0.50214563749565855 -0.6018150307709319 0 0.79863550430605224 0.79863550430605224 0 0.6018150307709319 forward_v I I I I #
loop $-1 $-1 $459 $114 #
coedge $-1 $291 $291 $292 $460 reversed $180 $-1 #
coedge $-1 $292 $292 $291 $460 forward $182 $-1 #
coedge $-1 $293 $293 $183 $294 forward $288 $-1 #
edge $-1 $461 0 $461 6.2831853071796004 $293 $462 forward 7 unknown #
loop $-1 $-1 $300 $184 #
plane-surface $-1 -48.750267036957922 -3.5527136788005009e-015 0.50214563749565855 -0.6018150307709319 0 0.79863550430605224 0.79863550430605224 0 0.6018150307709319 forward_v I I I I #
loop $-1 $-1 $463 $117 #
coedge $-1 $298 $298 $299 $464 reversed $185 $-1 #
coedge $-1 $299 $299 $298 $464 forward $187 $-1 #
coedge $-1 $300 $300 $188 $301 forward $295 $-1 #
edge $-1 $465 0 $465 6.2831853071796004 $300 $466 forward 7 unknown #
loop $-1 $-1 $307 $189 #
plane-surface $-1 -48.750267036957922 -3.5527136788005009e-015 0.50214563749565855 -0.6018150307709319 0 0.79863550430605224 0.79863550430605224 0 0.6018150307709319 forward_v I I I I #
loop $-1 $-1 $467 $120 #
coedge $-1 $305 $305 $306 $468 reversed $190 $-1 #
coedge $-1 $306 $306 $305 $468 forward $192 $-1 #
coedge $-1 $307 $307 $193 $308 forward $302 $-1 #
edge $-1 $469 0 $469 6.2831853071796004 $307 $470 forward 7 unknown #
face $-1 $471 $472 $65 $-1 $473 forward single #
loop $-1 $-1 $474 $194 #
plane-surface $-1 -107.42755395083387 7.3274985803151358 78.369533837726863 0 1 0 -0.6018150307709319 0 0.79863550430605224 forward_v I I I I #
coedge $-1 $475 $476 $477 $478 reversed $195 $-1 #
coedge $-1 $314 $197 $479 $480 reversed $124 $-1 #
coedge $-1 $197 $313 $475 $481 reversed $124 $-1 #
coedge $-1 $477 $482 $197 $316 forward $483 $-1 #
edge $-1 $484 34.650469445549291 $485 38.682621281367766 $315 $486 forward 7 unknown #
loop $-1 $-1 $322 $198 #
plane-surface $-1 -48.750267036957922 10.422067238110873 0.50214563749565855 -0.6018150307709319 0 0.79863550430605224 0.79863550430605224 0 0.6018150307709319 forward_v I I I I #
loop $-1 $-1 $487 $126 #
coedge $-1 $320 $320 $321 $488 reversed $199 $-1 #
coedge $-1 $321 $321 $320 $488 forward $201 $-1 #
coedge $-1 $322 $322 $202 $323 forward $317 $-1 #
edge $-1 $489 0 $489 6.2831853071796004 $322 $490 forward 7 unknown #
loop $-1 $-1 $329 $203 #
plane-surface $-1 -48.750267036957922 10.422067238110873 0.50214563749565855 -0.6018150307709319 0 0.79863550430605224 0.79863550430605224 0 0.6018150307709319 forward_v I I I I #
loop $-1 $-1 $491 $129 #
coedge $-1 $327 $327 $328 $492 reversed $204 $-1 #
coedge $-1 $328 $328 $327 $492 forward $206 $-1 #
coedge $-1 $329 $329 $207 $330 forward $324 $-1 #
edge $-1 $493 0 $493 6.2831853071796004 $329 $494 forward 7 unknown #
loop $-1 $-1 $336 $208 #
plane-surface $-1 -48.750267036957922 10.422067238110873 0.50214563749565855 -0.6018150307709319 0 0.79863550430605224 0.79863550430605224 0 0.6018150307709319 forward_v I I I I #
loop $-1 $-1 $495 $132 #
coedge $-1 $334 $334 $335 $496 reversed $209 $-1 #
coedge $-1 $335 $335 $334 $496 forward $211 $-1 #
coedge $-1 $336 $336 $212 $337 forward $331 $-1 #
edge $-1 $497 0 $497 6.2831853071796004 $336 $498 forward 7 unknown #
face $-1 $499 $500 $69 $-1 $501 forward single #
loop $-1 $-1 $502 $213 #
plane-surface $-1 86.756960781086974 -4.7513361719388172 133.40571865304935 0 -1 0 -0.87461971476443456 0 -0.48480960649040278 forward_v I I I I #
coedge $-1 $503 $504 $505 $506 reversed $214 $-1 #
coedge $-1 $343 $216 $507 $508 reversed $136 $-1 #
coedge $-1 $216 $342 $503 $509 reversed $136 $-1 #
coedge $-1 $505 $510 $216 $345 forward $511 $-1 #
edge $-1 $512 62.168561853210534 $513 65.842225531562846 $344 $514 forward 7 unknown #
loop $-1 $-1 $351 $217 #
plane-surface $-1 1.4810714799786808 -8.711732662051503 86.136523096070107 0.87461971476443456 0 0.48480960649040278 0.48480960649040278 0 -0.87461971476443456 forward_v I I I I #
loop $-1 $-1 $515 $138 #
coedge $-1 $349 $349 $350 $516 reversed $218 $-1 #
coedge $-1 $350 $350 $349 $516 forward $220 $-1 #
coedge $-1 $351 $351 $221 $352 forward $346 $-1 #
edge $-1 $517 0 $517 6.2831853071796004 $351 $518 forward 7 unknown #
loop $-1 $-1 $358 $222 #
plane-surface $-1 1.4810714799786808 -8.711732662051503 86.136523096070107 0.87461971476443456 0 0.48480960649040278 0.48480960649040278 0 -0.87461971476443456 forward_v I I I I #
loop $-1 $-1 $519 $141 #
coedge $-1 $356 $356 $357 $520 reversed $223 $-1 #
coedge $-1 $357 $357 $356 $520 forward $225 $-1 #
coedge $-1 $358 $358 $226 $359 forward $353 $-1 #
edge $-1 $521 0 $521 6.2831853071796004 $358 $522 forward 7 unknown #
face $-1 $523 $524 $54 $-1 $525 reversed single #
loop $-1 $-1 $526 $227 #
plane-surface $-1 -48.750267036957915 0 0 1 0 0 0 0 -1 forward_v I I I I #
coedge $-1 $527 $371 $528 $529 forward $228 $-1 #
coedge $-1 $530 $230 $527 $531 forward $145 $-1 #
coedge $-1 $230 $530 $532 $533 forward $145 $-1 #
coedge $-1 $374 $373 $230 $367 reversed $375 $-1 #
edge $-1 $534 -21.066744932093773 $535 21.066744932093773 $366 $536 forward 7 unknown #
coedge $-1 $232 $231 $537 $538 forward $91 $-1 #
coedge $-1 $539 $540 $231 $370 reversed $524 $-1 #
edge $-1 $377 -48.750267036957915 $541 48.750267036957915 $369 $542 forward 7 unknown #
coedge $-1 $363 $543 $232 $372 reversed $228 $-1 #
edge $-1 $544 -48.750267036957915 $376 48.750267036957915 $371 $545 forward 7 unknown #
coedge $-1 $366 $233 $543 $546 forward $375 $-1 #
coedge $-1 $233 $366 $539 $547 reversed $375 $-1 #
loop $-1 $-1 $373 $523 #
vertex $-1 $234 $548 #
vertex $-1 $234 $549 #
straight-curve $-1 48.750267036957915 0 4.5342974733141439 0 1 0 I I #
face $-1 $550 $551 $55 $-1 $552 reversed single #
loop $-1 $-1 $553 $235 #
plane-surface $-1 -48.750267036957915 0 0 1 0 0 0 0 -1 forward_v I I I I #
coedge $-1 $554 $388 $393 $555 reversed $236 $-1 #
coedge $-1 $556 $238 $557 $558 reversed $149 $-1 #
coedge $-1 $238 $556 $554 $559 forward $149 $-1 #
coedge $-1 $393 $392 $238 $386 forward $394 $-1 #
edge $-1 $560 -11.918152892413044 $561 -6.3790311869484135 $385 $562 forward 7 unknown #
coedge $-1 $240 $239 $553 $563 reversed $94 $-1 #
coedge $-1 $382 $564 $239 $389 reversed $236 $-1 #
edge $-1 $395 -48.750267036957915 $565 48.750267036957915 $388 $566 forward 7 unknown #
coedge $-1 $567 $568 $240 $391 forward $551 $-1 #
edge $-1 $396 -48.750267036957915 $569 48.750267036957915 $390 $570 forward 7 unknown #
coedge $-1 $385 $241 $568 $571 forward $394 $-1 #
coedge $-1 $241 $385 $382 $555 forward $394 $-1 #
loop $-1 $-1 $241 $550 #
vertex $-1 $242 $572 #
vertex $-1 $571 $573 #
straight-curve $-1 48.750267036957915 -9.1485920396807288 1.3504473885493837 0 -1 0 I I #
face $-1 $574 $575 $56 $-1 $576 reversed single #
loop $-1 $-1 $249 $243 #
plane-surface $-1 48.750267036957915 0 0 -1 0 0 0 0 1 forward_v I I I I #
coedge $-1 $577 $409 $578 $579 reversed $244 $-1 #
coedge $-1 $580 $246 $577 $581 forward $153 $-1 #
coedge $-1 $246 $580 $582 $583 reversed $153 $-1 #
coedge $-1 $412 $411 $246 $405 forward $399 $-1 #
edge $-1 $584 6.3790311869484118 $585 11.918152892413042 $404 $586 forward 7 unknown #
coedge $-1 $248 $247 $587 $588 reversed $97 $-1 #
coedge $-1 $589 $590 $247 $408 forward $591 $-1 #
edge $-1 $592 -48.750267036957915 $413 48.750267036957915 $407 $593 forward 7 unknown #
coedge $-1 $401 $594 $248 $410 reversed $244 $-1 #
edge $-1 $595 -48.750267036957915 $414 48.750267036957915 $409 $596 forward 7 unknown #
coedge $-1 $404 $249 $594 $597 forward $399 $-1 #
coedge $-1 $249 $404 $589 $598 reversed $399 $-1 #
vertex $-1 $598 $599 #
vertex $-1 $250 $600 #
straight-curve $-1 48.750267036957915 9.148592039680727 1.3504473885493837 0 -1 0 I I #
face $-1 $-1 $601 $57 $-1 $602 forward single #
loop $-1 $-1 $257 $251 #
plane-surface $-1 -48.750267036957915 0 0 1 0 0 0 0 -1 forward_v I I I I #
coedge $-1 $603 $604 $605 $606 reversed $252 $-1 #
coedge $-1 $607 $254 $256 $426 forward $157 $-1 #
coedge $-1 $254 $607 $603 $608 forward $157 $-1 #
coedge $-1 $605 $257 $254 $423 forward $417 $-1 #
edge $-1 $429 2.1164649612597008 $609 8.3056022768511752 $422 $610 forward 7 unknown #
coedge $-1 $611 $612 $255 $425 forward $601 $-1 #
edge $-1 $613 -10.314356045962064 $428 -4.9635099384590191 $424 $614 forward 7 unknown #
edge $-1 $429 8.8817612989391469e-015 $613 6.6999852606759482 $256 $615 forward 7 unknown #
coedge $-1 $257 $605 $611 $616 reversed $417 $-1 #
vertex $-1 $616 $617 #
vertex $-1 $258 $618 #
straight-curve $-1 -48.750267036957915 -7.3274985803151393 39.184766918863431 0 0 -1 I I #
coedge $-1 $431 $431 $-1 $619 reversed $261 $-1 #
edge $-1 $620 0 $620 6.2831853071796004 $262 $621 forward 7 unknown #
vertex $-1 $265 $622 #
ellipse-curve $-1 -46.074843983206399 -12.27880843278832 2.518221555404899 -0.6018150307709319 0 0.79863550430605224 0.39931775215302612 0 0.30090751538546595 1 I I #
coedge $-1 $435 $435 $-1 $623 reversed $268 $-1 #
edge $-1 $624 0 $624 6.2831853071796004 $269 $625 forward 7 unknown #
vertex $-1 $272 $626 #
ellipse-curve $-1 -46.074843983206399 -10.422067238110877 2.518221555404899 -0.6018150307709319 0 0.79863550430605224 0.39931775215302612 0 0.30090751538546595 1 I I #
coedge $-1 $439 $439 $-1 $627 reversed $275 $-1 #
edge $-1 $628 0 $628 6.2831853071796004 $276 $629 forward 7 unknown #
vertex $-1 $279 $630 #
ellipse-curve $-1 -46.074843983206399 -8.5653260434334335 2.518221555404899 -0.6018150307709319 0 0.79863550430605224 0.39931775215302612 0 0.30090751538546595 1 I I #
face $-1 $-1 $455 $61 $-1 $631 reversed single #
loop $-1 $-1 $632 $280 #
plane-surface $-1 0 0 4.5342974733141439 0 0 1 1 0 0 forward_v I I I I #
coedge $-1 $633 $634 $635 $636 reversed $281 $-1 #
coedge $-1 $637 $283 $285 $453 forward $176 $-1 #
coedge $-1 $283 $637 $633 $638 forward $176 $-1 #
coedge $-1 $635 $286 $283 $450 forward $455 $-1 #
edge $-1 $457 -3.0945686577957359 $639 3.0945686577957394 $449 $640 forward 7 unknown #
coedge $-1 $641 $642 $284 $452 forward $444 $-1 #
edge $-1 $643 -10.314356045962064 $456 -4.9635099384590191 $451 $644 forward 7 unknown #
edge $-1 $457 8.8817612989391469e-015 $643 6.6999852606759482 $285 $645 forward 7 unknown #
coedge $-1 $286 $635 $641 $646 reversed $455 $-1 #
loop $-1 $-1 $635 $443 #
vertex $-1 $646 $647 #
vertex $-1 $287 $648 #
straight-curve $-1 -48.750267036957915 3.0945686577957341 39.184766918863431 0 0 -1 I I #
coedge $-1 $459 $459 $-1 $649 reversed $290 $-1 #
edge $-1 $650 0 $650 6.2831853071796004 $291 $651 forward 7 unknown #
vertex $-1 $294 $652 #
ellipse-curve $-1 -46.074843983206399 -1.8567411946774435 2.518221555404899 -0.6018150307709319 0 0.79863550430605224 0.39931775215302612 0 0.30090751538546595 1 I I #
coedge $-1 $463 $463 $-1 $653 reversed $297 $-1 #
edge $-1 $654 0 $654 6.2831853071796004 $298 $655 forward 7 unknown #
vertex $-1 $301 $656 #
ellipse-curve $-1 -46.074843983206399 -3.5527136788005009e-015 2.518221555404899 -0.6018150307709319 0 0.79863550430605224 0.39931775215302612 0 0.30090751538546595 1 I I #
coedge $-1 $467 $467 $-1 $657 reversed $304 $-1 #
edge $-1 $658 0 $658 6.2831853071796004 $305 $659 forward 7 unknown #
vertex $-1 $308 $660 #
ellipse-curve $-1 -46.074843983206399 1.8567411946774435 2.518221555404899 -0.6018150307709319 0 0.79863550430605224 0.39931775215302612 0 0.30090751538546595 1 I I #
face $-1 $-1 $483 $65 $-1 $661 reversed single #
loop $-1 $-1 $662 $309 #
plane-surface $-1 0 0 4.5342974733141439 0 0 1 1 0 0 forward_v I I I I #
coedge $-1 $663 $664 $665 $666 reversed $310 $-1 #
coedge $-1 $667 $312 $314 $481 forward $195 $-1 #
coedge $-1 $312 $667 $663 $668 forward $195 $-1 #
coedge $-1 $665 $315 $312 $478 forward $483 $-1 #
edge $-1 $485 -8.3056022768511735 $669 -2.1164649612596991 $477 $670 forward 7 unknown #
coedge $-1 $671 $672 $313 $480 forward $472 $-1 #
edge $-1 $673 -10.314356045962064 $484 -4.9635099384590191 $479 $674 forward 7 unknown #
edge $-1 $485 8.8817612989391469e-015 $673 6.6999852606759482 $314 $675 forward 7 unknown #
coedge $-1 $315 $665 $671 $676 reversed $483 $-1 #
loop $-1 $-1 $665 $471 #
vertex $-1 $676 $677 #
vertex $-1 $316 $678 #
straight-curve $-1 -48.750267036957915 13.51663589590661 39.184766918863431 0 0 -1 I I #
coedge $-1 $487 $487 $-1 $679 reversed $319 $-1 #
edge $-1 $680 0 $680 6.2831853071796004 $320 $681 forward 7 unknown #
vertex $-1 $323 $682 #
ellipse-curve $-1 -46.074843983206399 8.5653260434334335 2.518221555404899 -0.6018150307709319 0 0.79863550430605224 0.39931775215302612 0 0.30090751538546595 1 I I #
coedge $-1 $491 $491 $-1 $683 reversed $326 $-1 #
edge $-1 $684 0 $684 6.2831853071796004 $327 $685 forward 7 unknown #
vertex $-1 $330 $686 #
ellipse-curve $-1 -46.074843983206399 10.422067238110873 2.518221555404899 -0.6018150307709319 0 0.79863550430605224 0.39931775215302612 0 0.30090751538546595 1 I I #
coedge $-1 $495 $495 $-1 $687 reversed $333 $-1 #
edge $-1 $688 0 $688 6.2831853071796004 $334 $689 forward 7 unknown #
vertex $-1 $337 $690 #
ellipse-curve $-1 -46.074843983206399 12.27880843278832 2.518221555404899 -0.6018150307709319 0 0.79863550430605224 0.39931775215302612 0 0.30090751538546595 1 I I #
face $-1 $-1 $511 $69 $-1 $691 reversed single #
loop $-1 $-1 $692 $338 #
plane-surface $-1 0 0 4.5342974733141439 0 0 1 1 0 0 forward_v I I I I #
coedge $-1 $693 $694 $695 $696 reversed $339 $-1 #
coedge $-1 $697 $341 $343 $509 forward $214 $-1 #
coedge $-1 $341 $697 $693 $698 forward $214 $-1 #
coedge $-1 $695 $344 $341 $506 forward $511 $-1 #
edge $-1 $513 -8.3162628211384373 $699 -0.3954698409130657 $505 $700 forward 7 unknown #
coedge $-1 $701 $702 $342 $508 forward $500 $-1 #
edge $-1 $703 3.3354416930425899 $512 5.3717866464144279 $507 $704 forward 7 unknown #
edge $-1 $513 -97.500534073915816 $703 -93.300235799891936 $343 $705 forward 7 unknown #
coedge $-1 $344 $695 $701 $706 reversed $511 $-1 #
loop $-1 $-1 $695 $499 #
vertex $-1 $706 $707 #
vertex $-1 $345 $708 #
straight-curve $-1 48.750267036957915 -12.672129152164189 66.702859326524674 0 0 -1 I I #
coedge $-1 $515 $515 $-1 $709 reversed $348 $-1 #
edge $-1 $710 0 $710 6.2831853071796004 $349 $711 forward 7 unknown #
vertex $-1 $352 $712 #
ellipse-curve $-1 47.732094560272003 -10.409045443528369 2.697465634137973 0.87461971476443456 0 0.48480960649040278 0.48480960649040278 0 -0.87461971476443456 1 I I #
coedge $-1 $519 $519 $-1 $713 reversed $355 $-1 #
edge $-1 $714 0 $714 6.2831853071796004 $356 $715 forward 7 unknown #
vertex $-1 $359 $716 #
ellipse-curve $-1 47.732094560272003 -7.0144198805746392 2.697465634137973 0.87461971476443456 0 0.48480960649040278 0.48480960649040278 0 -0.87461971476443456 1 I I #
face $-1 $-1 $375 $54 $-1 $717 reversed single #
loop $-1 $-1 $539 $360 #
plane-surface $-1 0 21.066744932093773 0 0 -1 0 0 0 -1 forward_v I I I I #
coedge $-1 $718 $537 $540 $719 forward $361 $-1 #
coedge $-1 $543 $363 $364 $531 reversed $228 $-1 #
coedge $-1 $537 $718 $363 $529 reversed $361 $-1 #
edge $-1 $544 -4.5342974733141439 $720 4.5342974733141439 $528 $721 forward 7 unknown #
coedge $-1 $365 $364 $718 $722 forward $145 $-1 #
edge $-1 $535 -48.750267036957915 $720 48.750267036957915 $527 $723 forward 7 unknown #
coedge $-1 $540 $539 $365 $533 reversed $524 $-1 #
edge $-1 $724 -48.750267036957915 $534 48.750267036957915 $532 $725 forward 7 unknown #
vertex $-1 $367 $726 #
vertex $-1 $546 $727 #
straight-curve $-1 48.750267036957915 0 -4.5342974733141439 0 -1 0 I I #
coedge $-1 $526 $528 $368 $538 reversed $361 $-1 #
edge $-1 $541 -21.066744932093773 $544 21.066744932093773 $537 $728 forward 7 unknown #
coedge $-1 $532 $369 $374 $547 forward $524 $-1 #
coedge $-1 $369 $532 $526 $719 reversed $524 $-1 #
vertex $-1 $370 $729 #
straight-curve $-1 0 21.066744932093773 4.5342974733141439 -1 0 0 I I #
coedge $-1 $371 $527 $373 $546 reversed $228 $-1 #
vertex $-1 $538 $730 #
straight-curve $-1 0 -21.066744932093773 4.5342974733141439 1 0 0 I I #
edge $-1 $376 -4.5342974733141439 $535 4.5342974733141439 $373 $731 forward 7 unknown #
edge $-1 $377 -4.5342974733141439 $534 4.5342974733141439 $374 $732 forward 7 unknown #
point $-1 48.750267036957915 -21.066744932093773 4.5342974733141439 #
point $-1 48.750267036957915 21.066744932093773 4.5342974733141439 #
face $-1 $-1 $394 $55 $-1 $733 reversed single #
loop $-1 $-1 $390 $379 #
plane-surface $-1 0 -21.066744932093773 0 0 1 0 0 0 1 forward_v I I I I #
coedge $-1 $734 $735 $387 $563 forward $380 $-1 #
coedge $-1 $564 $382 $384 $559 reversed $236 $-1 #
edge $-1 $561 -1.5747763057253081 $395 1.4252236942746919 $393 $736 forward 7 unknown #
coedge $-1 $384 $383 $737 $738 reversed $149 $-1 #
coedge $-1 $568 $567 $383 $558 forward $551 $-1 #
edge $-1 $739 -48.750267036957915 $560 48.750267036957915 $557 $740 forward 7 unknown #
edge $-1 $741 -48.750267036957915 $561 48.750267036957915 $554 $742 forward 7 unknown #
vertex $-1 $558 $743 #
vertex $-1 $386 $744 #
straight-curve $-1 48.750267036957915 -9.1485920396807288 -1.6495526114506163 0 1 0 I I #
edge $-1 $569 -11.918152892413044 $565 -6.3790311869484135 $553 $745 forward 7 unknown #
coedge $-1 $388 $554 $734 $746 reversed $236 $-1 #
vertex $-1 $563 $747 #
straight-curve $-1 0 -15.527623226629142 1.3504473885493837 -1 0 0 I I #
coedge $-1 $557 $390 $735 $748 forward $551 $-1 #
coedge $-1 $390 $557 $392 $571 reversed $551 $-1 #
vertex $-1 $748 $749 #
straight-curve $-1 0 -21.066744932093773 1.3504473885493837 -1 0 0 I I #
edge $-1 $396 -1.3504473885493837 $560 1.6495526114506163 $392 $750 forward 7 unknown #
point $-1 48.750267036957915 -15.527623226629142 1.3504473885493837 #
point $-1 48.750267036957915 -21.066744932093773 1.3504473885493837 #
face $-1 $-1 $591 $56 $-1 $751 reversed single #
loop $-1 $-1 $587 $398 #
plane-surface $-1 -48.750267036957915 0 0 1 0 0 0 0 -1 forward_v I I I I #
coedge $-1 $594 $401 $402 $581 reversed $244 $-1 #
coedge $-1 $587 $752 $401 $579 forward $575 $-1 #
edge $-1 $753 -1.5747763057253081 $595 1.4252236942746919 $578 $754 forward 7 unknown #
coedge $-1 $403 $402 $752 $755 reversed $153 $-1 #
edge $-1 $584 -48.750267036957915 $753 48.750267036957915 $577 $756 forward 7 unknown #
coedge $-1 $590 $589 $403 $583 forward $591 $-1 #
edge $-1 $585 -48.750267036957915 $757 48.750267036957915 $582 $758 forward 7 unknown #
vertex $-1 $405 $759 #
vertex $-1 $583 $760 #
straight-curve $-1 48.750267036957915 9.148592039680727 -1.6495526114506163 0 1 0 I I #
coedge $-1 $761 $578 $406 $588 forward $575 $-1 #
edge $-1 $595 6.3790311869484118 $592 11.918152892413042 $587 $762 forward 7 unknown #
coedge $-1 $582 $407 $412 $598 forward $591 $-1 #
coedge $-1 $407 $582 $761 $763 reversed $591 $-1 #
loop $-1 $-1 $407 $574 #
vertex $-1 $763 $764 #
straight-curve $-1 0 21.066744932093773 1.3504473885493837 1 0 0 I I #
coedge $-1 $409 $577 $411 $597 reversed $244 $-1 #
vertex $-1 $588 $765 #
straight-curve $-1 0 15.527623226629139 1.3504473885493837 1 0 0 I I #
edge $-1 $414 -1.4252236942746919 $584 1.5747763057253081 $411 $766 forward 7 unknown #
edge $-1 $413 -1.3504473885493837 $585 1.6495526114506163 $412 $767 forward 7 unknown #
point $-1 48.750267036957915 21.066744932093769 1.3504473885493837 #
point $-1 48.750267036957915 15.527623226629139 1.3504473885493837 #
loop $-1 $-1 $424 $416 #
plane-surface $-1 0 0 4.5342974733141439 0 0 1 1 0 0 forward_v I I I I #
coedge $-1 $604 $419 $421 $608 reversed $252 $-1 #
coedge $-1 $419 $603 $768 $769 reversed $252 $-1 #
coedge $-1 $427 $422 $419 $606 forward $417 $-1 #
edge $-1 $609 -38.682621281367766 $770 -34.650469445549291 $605 $771 forward 7 unknown #
coedge $-1 $421 $420 $612 $772 reversed $157 $-1 #
edge $-1 $773 -6.6999852606759482 $609 -8.8817612989391469e-015 $603 $774 forward 7 unknown #
vertex $-1 $423 $775 #
straight-curve $-1 -48.750267036957915 -5.2110336190554385 0.50214563749566821 0 -1 0 I I #
coedge $-1 $768 $424 $427 $616 forward $601 $-1 #
coedge $-1 $424 $768 $607 $772 forward $601 $-1 #
vertex $-1 $425 $776 #
straight-curve $-1 -53.713776975416934 -7.3274985803151393 4.5342974733141475 -1 0 0 I I #
straight-curve $-1 -48.750267036957922 -7.3274985803151393 0.50214563749565855 0.79863550430605224 0 0.6018150307709319 I I #
edge $-1 $428 7.3274985803151393 $770 13.516635895906614 $427 $777 forward 7 unknown #
point $-1 -48.750267036957915 -7.3274985803151393 4.5342974733141439 #
point $-1 -48.750267036957915 -7.3274985803151393 0.50214563749566388 #
edge $-1 $778 1 $778 0 $431 $-1 forward 7 unknown #
vertex $-1 $432 $779 #
ellipse-curve $-1 -45.366778763128856 -12.27880843278832 1.5785872903819635 -0.6018150307709319 0 0.79863550430605224 0.39931775215302612 0 0.30090751538546595 1 I I #
point $-1 -45.675526231053382 -12.27880843278832 2.8191290707903769 #
edge $-1 $780 1 $780 0 $435 $-1 forward 7 unknown #
vertex $-1 $436 $781 #
ellipse-curve $-1 -45.366778763128856 -10.422067238110877 1.5785872903819635 -0.6018150307709319 0 0.79863550430605224 0.39931775215302612 0 0.30090751538546595 1 I I #
point $-1 -45.675526231053382 -10.422067238110877 2.8191290707903769 #
edge $-1 $782 1 $782 0 $439 $-1 forward 7 unknown #
vertex $-1 $440 $783 #
ellipse-curve $-1 -45.366778763128856 -8.5653260434334335 1.5785872903819635 -0.6018150307709319 0 0.79863550430605224 0.39931775215302612 0 0.30090751538546595 1 I I #
point $-1 -45.675526231053382 -8.5653260434334335 2.8191290707903769 #
plane-surface $-1 -48.750267036957915 0 0 1 0 0 0 0 -1 forward_v I I I I #
coedge $-1 $642 $641 $634 $784 forward $444 $-1 #
coedge $-1 $634 $446 $448 $638 reversed $281 $-1 #
coedge $-1 $446 $633 $632 $784 reversed $281 $-1 #
coedge $-1 $454 $449 $446 $636 forward $455 $-1 #
edge $-1 $639 -38.682621281367766 $785 -34.650469445549291 $635 $786 forward 7 unknown #
coedge $-1 $448 $447 $642 $787 reversed $176 $-1 #
edge $-1 $788 -6.6999852606759482 $639 -8.8817612989391469e-015 $633 $789 forward 7 unknown #
vertex $-1 $450 $790 #
straight-curve $-1 -48.750267036957915 -1.7763568394002505e-015 0.50214563749566821 0 -1 0 I I #
coedge $-1 $632 $451 $454 $646 forward $444 $-1 #
coedge $-1 $451 $632 $637 $787 forward $444 $-1 #
vertex $-1 $452 $791 #
straight-curve $-1 -53.713776975416934 3.0945686577957341 4.5342974733141475 -1 0 0 I I #
straight-curve $-1 -48.750267036957922 3.0945686577957341 0.50214563749565855 0.79863550430605224 0 0.6018150307709319 I I #
edge $-1 $456 -3.0945686577957341 $785 3.0945686577957412 $454 $792 forward 7 unknown #
point $-1 -48.750267036957915 3.0945686577957341 4.5342974733141439 #
point $-1 -48.750267036957915 3.0945686577957341 0.50214563749566388 #
edge $-1 $793 1 $793 0 $459 $-1 forward 7 unknown #
vertex $-1 $460 $794 #
ellipse-curve $-1 -45.366778763128856 -1.8567411946774435 1.5785872903819635 -0.6018150307709319 0 0.79863550430605224 0.39931775215302612 0 0.30090751538546595 1 I I #
point $-1 -45.675526231053382 -1.8567411946774435 2.8191290707903769 #
edge $-1 $795 1 $795 0 $463 $-1 forward 7 unknown #
vertex $-1 $464 $796 #
ellipse-curve $-1 -45.366778763128856 -3.5527136788005009e-015 1.5785872903819635 -0.6018150307709319 0 0.79863550430605224 0.39931775215302612 0 0.30090751538546595 1 I I #
point $-1 -45.675526231053382 -3.5527136788005009e-015 2.8191290707903769 #
edge $-1 $797 1 $797 0 $467 $-1 forward 7 unknown #
vertex $-1 $468 $798 #
ellipse-curve $-1 -45.366778763128856 1.8567411946774435 1.5785872903819635 -0.6018150307709319 0 0.79863550430605224 0.39931775215302612 0 0.30090751538546595 1 I I #
point $-1 -45.675526231053382 1.8567411946774435 2.8191290707903769 #
plane-surface $-1 -48.750267036957915 0 0 1 0 0 0 0 -1 forward_v I I I I #
coedge $-1 $672 $671 $664 $799 forward $472 $-1 #
coedge $-1 $664 $474 $476 $668 reversed $310 $-1 #
coedge $-1 $474 $663 $662 $799 reversed $310 $-1 #
coedge $-1 $482 $477 $474 $666 forward $483 $-1 #
edge $-1 $669 -38.682621281367766 $800 -34.650469445549291 $665 $801 forward 7 unknown #
coedge $-1 $476 $475 $672 $802 reversed $195 $-1 #
edge $-1 $803 -6.6999852606759482 $669 -8.8817612989391469e-015 $663 $804 forward 7 unknown #
vertex $-1 $478 $805 #
straight-curve $-1 -48.750267036957915 5.2110336190554367 0.50214563749566821 0 -1 0 I I #
coedge $-1 $662 $479 $482 $676 forward $472 $-1 #
coedge $-1 $479 $662 $667 $802 forward $472 $-1 #
vertex $-1 $480 $806 #
straight-curve $-1 -53.713776975416934 13.51663589590661 4.5342974733141475 -1 0 0 I I #
straight-curve $-1 -48.750267036957922 13.51663589590661 0.50214563749565855 0.79863550430605224 0 0.6018150307709319 I I #
edge $-1 $484 -13.51663589590661 $800 -7.3274985803151358 $482 $807 forward 7 unknown #
point $-1 -48.750267036957915 13.51663589590661 4.5342974733141439 #
point $-1 -48.750267036957915 13.51663589590661 0.50214563749566388 #
edge $-1 $808 1 $808 0 $487 $-1 forward 7 unknown #
vertex $-1 $488 $809 #
ellipse-curve $-1 -45.366778763128856 8.5653260434334335 1.5785872903819635 -0.6018150307709319 0 0.79863550430605224 0.39931775215302612 0 0.30090751538546595 1 I I #
point $-1 -45.675526231053382 8.5653260434334335 2.8191290707903769 #
edge $-1 $810 1 $810 0 $491 $-1 forward 7 unknown #
vertex $-1 $492 $811 #
ellipse-curve $-1 -45.366778763128856 10.422067238110873 1.5785872903819635 -0.6018150307709319 0 0.79863550430605224 0.39931775215302612 0 0.30090751538546595 1 I I #
point $-1 -45.675526231053382 10.422067238110873 2.8191290707903769 #
edge $-1 $812 1 $812 0 $495 $-1 forward 7 unknown #
vertex $-1 $496 $813 #
ellipse-curve $-1 -45.366778763128856 12.27880843278832 1.5785872903819635 -0.6018150307709319 0 0.79863550430605224 0.39931775215302612 0 0.30090751538546595 1 I I #
point $-1 -45.675526231053382 12.27880843278832 2.8191290707903769 #
plane-surface $-1 48.750267036957915 0 0 -1 0 0 0 0 1 forward_v I I I I #
coedge $-1 $702 $701 $694 $814 forward $500 $-1 #
coedge $-1 $694 $502 $504 $698 reversed $339 $-1 #
coedge $-1 $502 $693 $692 $814 reversed $339 $-1 #
coedge $-1 $510 $505 $502 $696 forward $511 $-1 #
edge $-1 $699 -65.842225531562846 $815 -62.168561853210534 $695 $816 forward 7 unknown #
coedge $-1 $504 $503 $702 $817 reversed $214 $-1 #
edge $-1 $818 93.300235799891936 $699 97.500534073915816 $693 $819 forward 7 unknown #
vertex $-1 $506 $820 #
straight-curve $-1 48.750267036957908 -4.3558663310257515 0.8606337949618208 0 1 0 I I #
coedge $-1 $692 $507 $510 $706 forward $500 $-1 #
coedge $-1 $507 $692 $697 $817 forward $500 $-1 #
vertex $-1 $508 $821 #
straight-curve $-1 43.378480390543487 -12.672129152164189 4.5342974733141403 1 0 0 I I #
straight-curve $-1 1.4810714799786808 -12.672129152164189 86.136523096070107 -0.48480960649040278 0 0.87461971476443456 I I #
edge $-1 $512 -12.672129152164189 $815 -4.7513361719388172 $510 $822 forward 7 unknown #
point $-1 48.750267036957915 -12.672129152164189 4.5342974733141439 #
point $-1 48.750267036957915 -12.672129152164189 0.8606337949618279 #
edge $-1 $823 1 $823 0 $515 $-1 forward 7 unknown #
vertex $-1 $516 $824 #
ellipse-curve $-1 45.784452825379681 -10.409045443528369 1.6178702315443487 0.87461971476443456 0 0.48480960649040278 0.48480960649040278 0 -0.87461971476443456 1 I I #
point $-1 48.216904166762397 -10.409045443528369 1.8228459193735362 #
edge $-1 $825 1 $825 0 $519 $-1 forward 7 unknown #
vertex $-1 $520 $826 #
ellipse-curve $-1 45.784452825379681 -7.0144198805746392 1.6178702315443487 0.87461971476443456 0 0.48480960649040278 0.48480960649040278 0 -0.87461971476443456 1 I I #
point $-1 48.216904166762397 -7.0144198805746392 1.8228459193735362 #
plane-surface $-1 48.750267036957915 0 0 -1 0 0 0 0 1 forward_v I I I I #
coedge $-1 $528 $526 $530 $722 reversed $361 $-1 #
edge $-1 $541 -4.5342974733141439 $724 4.5342974733141439 $540 $827 forward 7 unknown #
vertex $-1 $722 $828 #
straight-curve $-1 -48.750267036957915 -21.066744932093773 0 0 0 -1 I I #
edge $-1 $720 -21.066744932093773 $724 21.066744932093773 $718 $829 forward 7 unknown #
straight-curve $-1 0 -21.066744932093773 -4.5342974733141439 -1 0 0 I I #
vertex $-1 $533 $830 #
straight-curve $-1 0 21.066744932093773 -4.5342974733141439 1 0 0 I I #
point $-1 48.750267036957915 21.066744932093773 -4.5342974733141439 #
point $-1 48.750267036957915 -21.066744932093773 -4.5342974733141439 #
straight-curve $-1 -48.750267036957915 0 4.5342974733141439 0 -1 0 I I #
point $-1 -48.750267036957915 21.066744932093773 4.5342974733141439 #
point $-1 -48.750267036957915 -21.066744932093773 4.5342974733141439 #
straight-curve $-1 48.750267036957915 -21.066744932093773 0 0 0 -1 I I #
straight-curve $-1 48.750267036957915 21.066744932093773 0 0 0 -1 I I #
plane-surface $-1 48.750267036957915 0 0 -1 0 0 0 0 1 forward_v I I I I #
coedge $-1 $737 $553 $564 $746 forward $380 $-1 #
coedge $-1 $553 $737 $567 $748 reversed $380 $-1 #
straight-curve $-1 48.750267036957915 -15.527623226629142 -0.074776305725308134 0 0 1 I I #
coedge $-1 $735 $734 $556 $738 forward $380 $-1 #
edge $-1 $741 6.3790311869484135 $739 11.918152892413044 $737 $831 forward 7 unknown #
vertex $-1 $558 $832 #
straight-curve $-1 0 -21.066744932093773 -1.6495526114506163 1 0 0 I I #
vertex $-1 $738 $833 #
straight-curve $-1 0 -15.527623226629142 -1.6495526114506163 1 0 0 I I #
point $-1 48.750267036957915 -21.066744932093773 -1.6495526114506163 #
point $-1 48.750267036957915 -15.527623226629142 -1.6495526114506163 #
straight-curve $-1 -48.750267036957915 -9.1485920396807288 1.3504473885493837 0 1 0 I I #
edge $-1 $565 -1.4252236942746919 $741 1.5747763057253081 $734 $834 forward 7 unknown #
point $-1 -48.750267036957915 -15.527623226629142 1.3504473885493837 #
edge $-1 $569 -1.3504473885493837 $739 1.6495526114506163 $735 $835 forward 7 unknown #
point $-1 -48.750267036957915 -21.066744932093773 1.3504473885493837 #
straight-curve $-1 48.750267036957915 -21.066744932093773 0 0 0 -1 I I #
plane-surface $-1 0 21.066744932093773 0 0 -1 0 0 0 -1 forward_v I I I I #
coedge $-1 $578 $761 $580 $755 forward $575 $-1 #
vertex $-1 $755 $836 #
straight-curve $-1 -48.750267036957915 15.527623226629139 -0.074776305725308134 0 0 1 I I #
edge $-1 $757 -11.918152892413042 $753 -6.3790311869484118 $752 $837 forward 7 unknown #
straight-curve $-1 0 15.527623226629139 -1.6495526114506163 -1 0 0 I I #
vertex $-1 $583 $838 #
straight-curve $-1 0 21.066744932093773 -1.6495526114506163 -1 0 0 I I #
point $-1 48.750267036957915 15.527623226629139 -1.6495526114506163 #
point $-1 48.750267036957915 21.066744932093769 -1.6495526114506163 #
coedge $-1 $752 $587 $590 $763 forward $575 $-1 #
straight-curve $-1 -48.750267036957915 9.148592039680727 1.3504473885493837 0 1 0 I I #
edge $-1 $592 -1.3504473885493837 $757 1.6495526114506163 $590 $839 forward 7 unknown #
point $-1 -48.750267036957915 21.066744932093769 1.3504473885493837 #
point $-1 -48.750267036957915 15.527623226629139 1.3504473885493837 #
straight-curve $-1 48.750267036957915 15.527623226629139 -0.074776305725308134 0 0 -1 I I #
straight-curve $-1 48.750267036957915 21.066744932093773 0 0 0 -1 I I #
coedge $-1 $612 $611 $604 $769 forward $601 $-1 #
edge $-1 $770 4.9635099384590191 $773 10.314356045962064 $768 $840 forward 7 unknown #
vertex $-1 $769 $841 #
straight-curve $-1 -48.750267036957915 -13.516635895906614 39.184766918863431 0 0 1 I I #
edge $-1 $773 -8.3056022768511752 $613 -2.1164649612597008 $612 $842 forward 7 unknown #
vertex $-1 $772 $843 #
straight-curve $-1 -48.750267036957922 -13.516635895906614 0.50214563749565855 -0.79863550430605224 0 -0.6018150307709319 I I #
point $-1 -48.750267036957915 -13.516635895906614 0.50214563749566388 #
point $-1 -43.39942092945487 -7.3274985803151393 4.5342974733141439 #
straight-curve $-1 -48.750267036957915 0 4.5342974733141439 0 -1 0 I I #
vertex $-1 $619 $844 #
point $-1 -44.967461010975832 -12.27880843278832 1.8794948057674294 #
vertex $-1 $623 $845 #
point $-1 -44.967461010975832 -10.422067238110877 1.8794948057674294 #
vertex $-1 $627 $846 #
point $-1 -44.967461010975832 -8.5653260434334335 1.8794948057674294 #
edge $-1 $785 4.9635099384590191 $788 10.314356045962064 $632 $847 forward 7 unknown #
vertex $-1 $784 $848 #
straight-curve $-1 -48.750267036957915 -3.0945686577957412 39.184766918863431 0 0 1 I I #
edge $-1 $788 -3.0945686577957394 $643 3.0945686577957359 $642 $849 forward 7 unknown #
vertex $-1 $787 $850 #
straight-curve $-1 -48.750267036957922 -3.0945686577957412 0.50214563749565855 -0.79863550430605224 0 -0.6018150307709319 I I #
point $-1 -48.750267036957915 -3.0945686577957412 0.50214563749566388 #
point $-1 -43.39942092945487 3.0945686577957341 4.5342974733141439 #
straight-curve $-1 -48.750267036957915 0 4.5342974733141439 0 -1 0 I I #
vertex $-1 $649 $851 #
point $-1 -44.967461010975832 -1.8567411946774435 1.8794948057674294 #
vertex $-1 $653 $852 #
point $-1 -44.967461010975832 -3.5527136788005009e-015 1.8794948057674294 #
vertex $-1 $657 $853 #
point $-1 -44.967461010975832 1.8567411946774435 1.8794948057674294 #
edge $-1 $800 4.9635099384590191 $803 10.314356045962064 $662 $854 forward 7 unknown #
vertex $-1 $666 $855 #
straight-curve $-1 -48.750267036957915 7.3274985803151358 39.184766918863431 0 0 1 I I #
edge $-1 $803 2.1164649612596991 $673 8.3056022768511735 $672 $856 forward 7 unknown #
vertex $-1 $802 $857 #
straight-curve $-1 -48.750267036957922 7.3274985803151358 0.50214563749565855 -0.79863550430605224 0 -0.6018150307709319 I I #
point $-1 -48.750267036957915 7.3274985803151358 0.50214563749566388 #
point $-1 -43.39942092945487 13.51663589590661 4.5342974733141439 #
straight-curve $-1 -48.750267036957915 0 4.5342974733141439 0 -1 0 I I #
vertex $-1 $679 $858 #
point $-1 -44.967461010975832 8.5653260434334335 1.8794948057674294 #
vertex $-1 $683 $859 #
point $-1 -44.967461010975832 10.422067238110873 1.8794948057674294 #
vertex $-1 $687 $860 #
point $-1 -44.967461010975832 12.27880843278832 1.8794948057674294 #
edge $-1 $815 -5.3717866464144279 $818 -3.3354416930425899 $692 $861 forward 7 unknown #
vertex $-1 $696 $862 #
straight-curve $-1 48.750267036957915 -4.7513361719388172 66.702859326524674 0 0 1 I I #
edge $-1 $818 0.3954698409130657 $703 8.3162628211384373 $702 $863 forward 7 unknown #
vertex $-1 $817 $864 #
straight-curve $-1 1.4810714799786808 -4.7513361719388172 86.136523096070107 0.48480960649040278 0 -0.87461971476443456 I I #
point $-1 48.750267036957915 -4.7513361719388172 0.8606337949618279 #
point $-1 46.713922083586077 -12.672129152164189 4.5342974733141403 #
straight-curve $-1 48.750267036957915 0 4.5342974733141439 0 1 0 I I #
vertex $-1 $709 $865 #
point $-1 46.269262431870082 -10.409045443528369 0.74325051677991427 #
vertex $-1 $713 $866 #
point $-1 46.269262431870082 -7.0144198805746392 0.74325051677991427 #
straight-curve $-1 -48.750267036957915 21.066744932093773 0 0 0 -1 I I #
point $-1 -48.750267036957915 -21.066744932093773 -4.5342974733141439 #
straight-curve $-1 -48.750267036957915 0 -4.5342974733141439 0 1 0 I I #
point $-1 -48.750267036957915 21.066744932093773 -4.5342974733141439 #
straight-curve $-1 -48.750267036957915 -9.1485920396807288 -1.6495526114506163 0 -1 0 I I #
point $-1 -48.750267036957915 -21.066744932093773 -1.6495526114506163 #
point $-1 -48.750267036957915 -15.527623226629142 -1.6495526114506163 #
straight-curve $-1 -48.750267036957915 -15.527623226629142 -0.074776305725308134 0 0 -1 I I #
straight-curve $-1 -48.750267036957915 -21.066744932093773 0 0 0 -1 I I #
point $-1 -48.750267036957915 15.527623226629139 -1.6495526114506163 #
straight-curve $-1 -48.750267036957915 9.148592039680727 -1.6495526114506163 0 -1 0 I I #
point $-1 -48.750267036957915 21.066744932093769 -1.6495526114506163 #
straight-curve $-1 -48.750267036957915 21.066744932093773 0 0 0 -1 I I #
straight-curve $-1 -53.713776975416934 -13.516635895906614 4.5342974733141475 1 0 0 I I #
point $-1 -48.750267036957915 -13.516635895906614 4.5342974733141439 #
straight-curve $-1 -43.39942092945487 -5.2110336190554385 4.5342974733141457 0 1 0 I I #
point $-1 -43.39942092945487 -13.516635895906614 4.5342974733141439 #
point $-1 -45.065871247743395 -12.27880843278832 1.1792695382289375 #
point $-1 -45.065871247743395 -10.422067238110877 1.1792695382289375 #
point $-1 -45.065871247743395 -8.5653260434334335 1.1792695382289375 #
straight-curve $-1 -53.713776975416934 -3.0945686577957412 4.5342974733141475 1 0 0 I I #
point $-1 -48.750267036957915 -3.0945686577957412 4.5342974733141439 #
straight-curve $-1 -43.39942092945487 -1.7763568394002505e-015 4.5342974733141457 0 1 0 I I #
point $-1 -43.39942092945487 -3.0945686577957412 4.5342974733141439 #
point $-1 -45.065871247743395 -1.8567411946774435 1.1792695382289375 #
point $-1 -45.065871247743395 -3.5527136788005009e-015 1.1792695382289375 #
point $-1 -45.065871247743395 1.8567411946774435 1.1792695382289375 #
straight-curve $-1 -53.713776975416934 7.3274985803151358 4.5342974733141475 1 0 0 I I #
point $-1 -48.750267036957915 7.3274985803151358 4.5342974733141439 #
straight-curve $-1 -43.39942092945487 5.2110336190554367 4.5342974733141457 0 1 0 I I #
point $-1 -43.39942092945487 7.3274985803151358 4.5342974733141439 #
point $-1 -45.065871247743395 8.5653260434334335 1.1792695382289375 #
point $-1 -45.065871247743395 10.422067238110873 1.1792695382289375 #
point $-1 -45.065871247743395 12.27880843278832 1.1792695382289375 #
straight-curve $-1 43.378480390543487 -4.7513361719388172 4.5342974733141403 -1 0 0 I I #
point $-1 48.750267036957915 -4.7513361719388172 4.5342974733141439 #
straight-curve $-1 46.713922083586077 -4.3558663310257515 4.5342974733141403 0 -1 0 I I #
point $-1 46.713922083586077 -4.7513361719388172 4.5342974733141403 #
point $-1 44.909833110615246 -10.409045443528369 1.1330606250539461 #
point $-1 44.909833110615246 -7.0144198805746392 1.1330606250539461 #
End-of-ACIS-data 