500 0 8 0           
7 Unknown 11 ACIS 5.0 NT 24 Thu Mar 25 21:31:15 1999 
-1 9.9999999999999995e-007 1e-010 
body $-1 $8 $-1 $9 #
body $-1 $10 $-1 $11 #
body $-1 $12 $-1 $13 #
body $-1 $14 $-1 $15 #
body $-1 $16 $-1 $17 #
body $-1 $18 $-1 $19 #
body $-1 $20 $-1 $21 #
body $-1 $22 $-1 $23 #
lump $-1 $-1 $24 $0 #
transform $-1 1 0 0 0 1 0 0 0 1 60.687887203588971 38.524871564896777 8.6033432317921132 1 rotate no_reflect no_shear #
lump $-1 $-1 $25 $1 #
transform $-1 1 0 0 0 1 0 0 0 1 60.687887203588971 38.524871564896777 8.6033432317921132 1 rotate no_reflect no_shear #
lump $-1 $-1 $26 $2 #
transform $-1 1 0 0 0 1 0 0 0 1 60.687887203588971 38.524871564896777 8.6033432317921132 1 rotate no_reflect no_shear #
lump $-1 $-1 $27 $3 #
transform $-1 1 0 0 0 1 0 0 0 1 60.687887203588971 38.524871564896777 8.6033432317921132 1 rotate no_reflect no_shear #
lump $-1 $-1 $28 $4 #
transform $-1 1 0 0 0 1 0 0 0 1 60.687887203588971 38.524871564896777 8.6033432317921132 1 rotate no_reflect no_shear #
lump $-1 $-1 $29 $5 #
transform $-1 1 0 0 0 1 0 0 0 1 60.687887203588971 38.524871564896777 8.6033432317921132 1 rotate no_reflect no_shear #
lump $-1 $-1 $30 $6 #
transform $-1 1 0 0 0 1 0 0 0 1 60.687887203588971 38.524871564896777 8.6033432317921132 1 rotate no_reflect no_shear #
lump $-1 $-1 $31 $7 #
transform $-1 1 0 0 0 1 0 0 0 1 60.687887203588971 38.524871564896777 8.6033432317921132 1 rotate no_reflect no_shear #
shell $-1 $-1 $-1 $32 $-1 $8 #
shell $-1 $-1 $-1 $33 $-1 $10 #
shell $-1 $-1 $-1 $34 $-1 $12 #
shell $-1 $-1 $-1 $35 $-1 $14 #
shell $-1 $-1 $-1 $36 $-1 $16 #
shell $-1 $-1 $-1 $37 $-1 $18 #
shell $-1 $-1 $-1 $38 $-1 $20 #
shell $-1 $-1 $-1 $39 $-1 $22 #
face $-1 $40 $41 $24 $-1 $42 reversed single #
face $-1 $43 $44 $25 $-1 $45 forward single #
face $-1 $46 $47 $26 $-1 $48 forward single #
face $-1 $49 $50 $27 $-1 $51 reversed single #
face $-1 $52 $53 $28 $-1 $54 forward single #
face $-1 $55 $56 $29 $-1 $57 forward single #
face $-1 $58 $59 $30 $-1 $60 reversed single #
face $-1 $61 $62 $31 $-1 $63 forward single #
face $-1 $64 $65 $24 $-1 $66 reversed single #
loop $-1 $-1 $67 $32 #
plane-surface $-1 0 38.524871564896777 0 0 -1 0 0 0 -1 forward_v I I I I #
face $-1 $68 $69 $25 $-1 $70 reversed single #
loop $-1 $-1 $71 $33 #
plane-surface $-1 0 -38.524871564896777 0 0 1 0 0 0 1 forward_v I I I I #
face $-1 $72 $73 $26 $-1 $74 reversed single #
loop $-1 $-1 $75 $34 #
plane-surface $-1 0 38.524871564896777 0 0 -1 0 0 0 -1 forward_v I I I I #
face $-1 $76 $77 $27 $-1 $78 reversed single #
loop $-1 $-1 $79 $35 #
plane-surface $-1 -128.56035978746604 3.2234334110751384 103.36698191602675 0 1 0 -0.55919291073839883 0 0.82903756765294845 forward_v I I I I #
face $-1 $80 $81 $28 $-1 $82 forward single #
loop $-1 $83 $84 $36 #
cone-surface $-1 -55.524820447393815 7.5982918646281234 4.4597452805931681 0.55919291073839883 0 -0.82903756765294845 1.6580751353058969 0 1.1183858214767977 1 I I 0 1 2 forward I I I I #
face $-1 $85 $86 $29 $-1 $87 forward single #
loop $-1 $88 $89 $37 #
cone-surface $-1 -55.524820447393815 14.160579544957599 4.4597452805931681 0.55919291073839883 0 -0.82903756765294845 1.6580751353058969 0 1.1183858214767977 1 I I 0 1 2 forward I I I I #
face $-1 $90 $91 $30 $-1 $92 reversed single #
loop $-1 $-1 $93 $38 #
plane-surface $-1 90.494819189759014 28.641256516061809 170.52697175843542 0 -1 0 -0.81915205242281985 0 -0.57357642473473569 forward_v I I I I #
face $-1 $94 $95 $31 $-1 $96 forward single #
loop $-1 $97 $98 $39 #
cone-surface $-1 56.081728538096336 20.083387615576143 3.5635441322814163 -0.81915205242281985 0 -0.57357642473473569 1.1471528494694714 0 -1.6383041048456397 1 I I 0 1 2 forward I I I I #
face $-1 $99 $100 $24 $-1 $101 forward single #
loop $-1 $-1 $102 $40 #
plane-surface $-1 0 -38.524871564896777 0 0 1 0 0 0 1 forward_v I I I I #
coedge $-1 $103 $104 $105 $106 reversed $41 $-1 #
face $-1 $107 $108 $25 $-1 $109 reversed single #
loop $-1 $-1 $110 $43 #
plane-surface $-1 0 0 -8.6033432317921132 0 0 1 1 0 0 forward_v I I I I #
coedge $-1 $111 $112 $113 $114 forward $44 $-1 #
face $-1 $115 $116 $26 $-1 $117 reversed single #
loop $-1 $-1 $118 $46 #
plane-surface $-1 0 0 -8.6033432317921132 0 0 1 1 0 0 forward_v I I I I #
coedge $-1 $119 $120 $121 $122 forward $47 $-1 #
face $-1 $123 $124 $27 $-1 $125 reversed single #
loop $-1 $-1 $126 $49 #
plane-surface $-1 -60.687887203588957 10.879435704792861 2.7419051295069465 -0.55919291073839883 0 0.82903756765294845 0.82903756765294845 0 0.55919291073839883 forward_v I I I I #
coedge $-1 $127 $128 $129 $130 reversed $50 $-1 #
face $-1 $-1 $131 $28 $-1 $132 forward single #
loop $-1 $133 $134 $52 #
cone-surface $-1 -54.147530373198968 7.5982918646281234 2.417828812883851 0.55919291073839883 0 -0.82903756765294845 0.82903756765294845 0 0.55919291073839883 1 I I -0.70710678118654746 0.70710678118654746 1 forward I I I I #
loop $-1 $-1 $135 $36 #
coedge $-1 $84 $84 $136 $137 reversed $53 $-1 #
face $-1 $-1 $138 $29 $-1 $139 forward single #
loop $-1 $140 $141 $55 #
cone-surface $-1 -54.147530373198968 14.160579544957599 2.417828812883851 0.55919291073839883 0 -0.82903756765294845 0.82903756765294845 0 0.55919291073839883 1 I I -0.70710678118654746 0.70710678118654746 1 forward I I I I #
loop $-1 $-1 $142 $37 #
coedge $-1 $89 $89 $143 $144 reversed $56 $-1 #
face $-1 $145 $146 $30 $-1 $147 reversed single #
loop $-1 $-1 $148 $58 #
plane-surface $-1 -8.9303955302899709 20.083387615576143 100.90868902455647 0.81915205242281985 0 0.57357642473473569 0.57357642473473569 0 -0.81915205242281985 forward_v I I I I #
coedge $-1 $149 $150 $151 $152 reversed $59 $-1 #
face $-1 $-1 $153 $31 $-1 $154 forward single #
loop $-1 $155 $156 $61 #
cone-surface $-1 53.149110691921337 20.083387615576143 1.5101030716782979 -0.81915205242281985 0 -0.57357642473473569 0.57357642473473569 0 -0.81915205242281985 1 I I -0.70710678118654746 0.70710678118654746 1 forward I I I I #
loop $-1 $-1 $157 $39 #
coedge $-1 $98 $98 $158 $159 reversed $62 $-1 #
face $-1 $160 $161 $24 $-1 $162 reversed single #
loop $-1 $-1 $163 $64 #
plane-surface $-1 0 0 8.6033432317921132 0 0 1 1 0 0 forward_v I I I I #
coedge $-1 $164 $165 $166 $167 reversed $65 $-1 #
coedge $-1 $168 $67 $169 $170 reversed $41 $-1 #
coedge $-1 $67 $168 $171 $172 forward $41 $-1 #
coedge $-1 $173 $174 $67 $106 forward $161 $-1 #
edge $-1 $175 -60.687887203588971 $176 60.687887203588971 $67 $177 forward 7 unknown #
face $-1 $178 $179 $25 $-1 $180 reversed single #
loop $-1 $-1 $181 $68 #
plane-surface $-1 -56.244369342907454 -45.362564163500103 0 0 1 0 0 0 1 forward_v I I I I #
coedge $-1 $182 $183 $112 $184 forward $69 $-1 #
coedge $-1 $185 $71 $186 $187 reversed $44 $-1 #
coedge $-1 $71 $185 $110 $184 reversed $44 $-1 #
coedge $-1 $188 $189 $71 $114 reversed $179 $-1 #
edge $-1 $190 -8.6033432317921132 $191 8.6033432317921132 $113 $192 forward 7 unknown #
face $-1 $193 $194 $26 $-1 $195 reversed single #
loop $-1 $-1 $196 $72 #
plane-surface $-1 -57.863085470667748 41.94371786419844 0 1 0 0 0 0 -1 forward_v I I I I #
coedge $-1 $197 $198 $120 $199 forward $73 $-1 #
coedge $-1 $200 $75 $201 $202 reversed $47 $-1 #
coedge $-1 $75 $200 $118 $199 reversed $47 $-1 #
coedge $-1 $203 $204 $75 $122 reversed $205 $-1 #
edge $-1 $206 -8.6033432317921132 $207 8.6033432317921132 $121 $208 forward 7 unknown #
face $-1 $209 $210 $27 $-1 $211 reversed single #
loop $-1 $-1 $212 $76 #
plane-surface $-1 -128.56035978746604 18.535437998510584 103.36698191602675 0 -1 0 0.55919291073839883 0 -0.82903756765294845 forward_v I I I I #
coedge $-1 $213 $214 $215 $216 reversed $77 $-1 #
coedge $-1 $128 $79 $217 $218 reversed $50 $-1 #
coedge $-1 $79 $127 $213 $219 reversed $50 $-1 #
coedge $-1 $215 $220 $79 $130 forward $221 $-1 #
edge $-1 $222 3.5922926901440491 $223 12.28223187562152 $129 $224 forward 7 unknown #
loop $-1 $-1 $136 $80 #
plane-surface $-1 -60.687887203588957 10.879435704792861 2.7419051295069465 -0.55919291073839883 0 0.82903756765294845 0.82903756765294845 0 0.55919291073839883 forward_v I I I I #
loop $-1 $-1 $225 $52 #
coedge $-1 $134 $134 $135 $226 reversed $81 $-1 #
coedge $-1 $135 $135 $134 $226 forward $83 $-1 #
coedge $-1 $136 $136 $84 $137 forward $131 $-1 #
edge $-1 $227 0 $227 6.2831853071796004 $136 $228 forward 7 unknown #
loop $-1 $-1 $143 $85 #
plane-surface $-1 -60.687887203588957 10.879435704792861 2.7419051295069465 -0.55919291073839883 0 0.82903756765294845 0.82903756765294845 0 0.55919291073839883 forward_v I I I I #
loop $-1 $-1 $229 $55 #
coedge $-1 $141 $141 $142 $230 reversed $86 $-1 #
coedge $-1 $142 $142 $141 $230 forward $88 $-1 #
coedge $-1 $143 $143 $89 $144 forward $138 $-1 #
edge $-1 $231 0 $231 6.2831853071796004 $143 $232 forward 7 unknown #
face $-1 $233 $234 $30 $-1 $235 forward single #
loop $-1 $-1 $236 $90 #
plane-surface $-1 90.494819189759014 11.525518715090477 170.52697175843542 0 1 0 0.81915205242281985 0 0.57357642473473569 forward_v I I I I #
coedge $-1 $237 $238 $239 $240 reversed $91 $-1 #
coedge $-1 $150 $93 $241 $242 reversed $59 $-1 #
coedge $-1 $93 $149 $237 $243 reversed $59 $-1 #
coedge $-1 $239 $244 $93 $152 forward $234 $-1 #
edge $-1 $245 -15.440477608709465 $246 -10.45509186522856 $151 $247 forward 7 unknown #
loop $-1 $-1 $158 $94 #
plane-surface $-1 -8.9303955302899709 20.083387615576143 100.90868902455647 0.81915205242281985 0 0.57357642473473569 0.57357642473473569 0 -0.81915205242281985 forward_v I I I I #
loop $-1 $-1 $248 $61 #
coedge $-1 $156 $156 $157 $249 reversed $95 $-1 #
coedge $-1 $157 $157 $156 $249 forward $97 $-1 #
coedge $-1 $158 $158 $98 $159 forward $153 $-1 #
edge $-1 $250 0 $250 6.2831853071796004 $158 $251 forward 7 unknown #
face $-1 $252 $253 $24 $-1 $254 reversed single #
loop $-1 $-1 $173 $99 #
plane-surface $-1 0 0 -8.6033432317921132 0 0 1 1 0 0 forward_v I I I I #
coedge $-1 $255 $256 $257 $258 forward $100 $-1 #
coedge $-1 $259 $102 $260 $261 reversed $65 $-1 #
coedge $-1 $102 $259 $262 $263 forward $65 $-1 #
coedge $-1 $174 $173 $102 $167 forward $161 $-1 #
edge $-1 $264 -60.687887203588971 $265 60.687887203588971 $102 $266 forward 7 unknown #
coedge $-1 $104 $103 $255 $267 reversed $41 $-1 #
coedge $-1 $268 $269 $103 $170 forward $253 $-1 #
edge $-1 $270 -8.6033432317921132 $175 8.6033432317921132 $103 $271 forward 7 unknown #
coedge $-1 $257 $272 $104 $172 reversed $273 $-1 #
edge $-1 $274 -8.6033432317921132 $176 8.6033432317921132 $171 $275 forward 7 unknown #
coedge $-1 $166 $105 $272 $276 forward $161 $-1 #
coedge $-1 $105 $166 $268 $277 forward $161 $-1 #
vertex $-1 $106 $278 #
vertex $-1 $276 $279 #
straight-curve $-1 0 38.524871564896777 -8.6033432317921132 1 0 0 I I #
face $-1 $280 $281 $25 $-1 $282 reversed single #
loop $-1 $-1 $113 $107 #
plane-surface $-1 -57.863085470667748 -41.94371786419844 0 1 0 0 0 0 -1 forward_v I I I I #
coedge $-1 $283 $284 $285 $286 forward $108 $-1 #
coedge $-1 $287 $110 $288 $289 forward $69 $-1 #
coedge $-1 $110 $287 $188 $290 forward $69 $-1 #
edge $-1 $190 -57.863085470667748 $291 -54.62565321514716 $110 $292 forward 7 unknown #
coedge $-1 $112 $111 $293 $294 forward $44 $-1 #
coedge $-1 $295 $296 $111 $187 forward $297 $-1 #
edge $-1 $298 54.62565321514716 $191 57.863085470667748 $186 $299 forward 7 unknown #
coedge $-1 $285 $113 $183 $290 reversed $179 $-1 #
coedge $-1 $113 $285 $295 $300 reversed $179 $-1 #
vertex $-1 $184 $301 #
vertex $-1 $300 $302 #
straight-curve $-1 -57.863085470667748 -38.524871564896777 0 0 0 1 I I #
face $-1 $303 $205 $26 $-1 $304 reversed single #
loop $-1 $-1 $305 $115 #
plane-surface $-1 -56.244369342907454 45.362564163500103 0 0 -1 0 0 0 -1 forward_v I I I I #
coedge $-1 $306 $307 $308 $309 forward $116 $-1 #
coedge $-1 $310 $118 $306 $311 forward $73 $-1 #
coedge $-1 $118 $310 $203 $312 forward $73 $-1 #
edge $-1 $206 54.62565321514716 $313 57.863085470667748 $118 $314 forward 7 unknown #
coedge $-1 $120 $119 $315 $316 forward $47 $-1 #
coedge $-1 $317 $318 $119 $202 forward $319 $-1 #
edge $-1 $320 -57.863085470667748 $207 -54.62565321514716 $201 $321 forward 7 unknown #
coedge $-1 $322 $121 $198 $312 reversed $205 $-1 #
coedge $-1 $121 $322 $317 $323 reversed $205 $-1 #
loop $-1 $-1 $121 $193 #
vertex $-1 $199 $324 #
vertex $-1 $323 $325 #
straight-curve $-1 -54.62565321514716 38.524871564896777 0 0 0 1 I I #
face $-1 $-1 $221 $27 $-1 $326 forward single #
loop $-1 $-1 $327 $123 #
plane-surface $-1 -60.687887203588971 0 0 1 0 0 0 0 -1 forward_v I I I I #
coedge $-1 $328 $329 $330 $331 reversed $124 $-1 #
coedge $-1 $332 $126 $128 $219 forward $77 $-1 #
coedge $-1 $126 $332 $328 $333 forward $77 $-1 #
coedge $-1 $330 $129 $126 $216 forward $221 $-1 #
edge $-1 $223 -2.2162844413212923 $334 13.095720146114154 $215 $335 forward 7 unknown #
coedge $-1 $336 $337 $127 $218 forward $210 $-1 #
edge $-1 $338 -48.941585828506433 $222 -43.080147726221256 $217 $339 forward 7 unknown #
edge $-1 $223 -10.481960678910074 $338 1.7244626260799089e-014 $128 $340 forward 7 unknown #
coedge $-1 $129 $330 $336 $341 forward $221 $-1 #
loop $-1 $-1 $330 $209 #
vertex $-1 $218 $342 #
vertex $-1 $130 $343 #
straight-curve $-1 -64.28017989373302 3.2234334110751384 8.6033432317921168 1 0 0 I I #
coedge $-1 $225 $225 $-1 $344 reversed $133 $-1 #
edge $-1 $345 0 $345 6.2831853071796004 $134 $346 forward 7 unknown #
vertex $-1 $137 $347 #
ellipse-curve $-1 -56.34291761085025 7.5982918646281234 5.6726241806495175 -0.55919291073839883 0 0.82903756765294845 1.6580751353058969 0 1.1183858214767977 1 I I #
coedge $-1 $229 $229 $-1 $348 reversed $140 $-1 #
edge $-1 $349 0 $349 6.2831853071796004 $141 $350 forward 7 unknown #
vertex $-1 $144 $351 #
ellipse-curve $-1 -56.34291761085025 14.160579544957599 5.6726241806495175 -0.55919291073839883 0 0.82903756765294845 1.6580751353058969 0 1.1183858214767977 1 I I #
face $-1 $-1 $352 $30 $-1 $353 reversed single #
loop $-1 $-1 $151 $145 #
plane-surface $-1 0 0 8.6033432317921132 0 0 1 1 0 0 forward_v I I I I #
coedge $-1 $354 $355 $356 $357 reversed $146 $-1 #
coedge $-1 $358 $148 $150 $243 forward $91 $-1 #
coedge $-1 $148 $358 $354 $359 forward $91 $-1 #
coedge $-1 $356 $151 $148 $240 forward $234 $-1 #
edge $-1 $246 -18.599562708273737 $360 -1.4838249073024059 $239 $361 forward 7 unknown #
coedge $-1 $362 $363 $149 $242 forward $352 $-1 #
edge $-1 $364 -83.780011574710201 $245 -76.660142647425602 $241 $365 forward 7 unknown #
edge $-1 $246 112.68401943174199 $364 121.37577440717793 $150 $366 forward 7 unknown #
coedge $-1 $151 $356 $362 $367 forward $234 $-1 #
vertex $-1 $152 $368 #
vertex $-1 $152 $369 #
straight-curve $-1 45.247409594879507 28.641256516061809 8.6033432317921097 -1 0 0 I I #
coedge $-1 $248 $248 $-1 $370 reversed $155 $-1 #
edge $-1 $371 0 $371 6.2831853071796004 $156 $372 forward 7 unknown #
vertex $-1 $159 $373 #
ellipse-curve $-1 58.195194331848526 20.083387615576143 5.0434087681498099 0.81915205242281985 0 0.57357642473473569 1.1471528494694714 0 -1.6383041048456397 1 I I #
face $-1 $-1 $273 $24 $-1 $374 reversed single #
loop $-1 $-1 $169 $160 #
plane-surface $-1 -60.687887203588971 0 0 1 0 0 0 0 -1 forward_v I I I I #
coedge $-1 $375 $163 $168 $267 forward $100 $-1 #
coedge $-1 $163 $375 $259 $376 forward $100 $-1 #
coedge $-1 $260 $171 $163 $258 reversed $273 $-1 #
edge $-1 $377 -38.524871564896777 $274 38.524871564896777 $257 $378 forward 7 unknown #
coedge $-1 $165 $164 $256 $376 reversed $65 $-1 #
coedge $-1 $272 $257 $164 $261 forward $273 $-1 #
edge $-1 $377 -8.6033432317921132 $264 8.6033432317921132 $260 $379 forward 7 unknown #
coedge $-1 $269 $268 $165 $263 reversed $253 $-1 #
edge $-1 $380 -8.6033432317921132 $265 8.6033432317921132 $262 $381 forward 7 unknown #
vertex $-1 $261 $382 #
vertex $-1 $277 $383 #
straight-curve $-1 0 -38.524871564896777 -8.6033432317921132 -1 0 0 I I #
edge $-1 $274 -60.687887203588971 $270 60.687887203588971 $168 $384 forward 7 unknown #
coedge $-1 $262 $169 $174 $277 reversed $253 $-1 #
coedge $-1 $169 $262 $375 $385 reversed $253 $-1 #
vertex $-1 $267 $386 #
straight-curve $-1 -60.687887203588971 38.524871564896777 0 0 0 -1 I I #
coedge $-1 $171 $260 $173 $276 reversed $273 $-1 #
loop $-1 $-1 $260 $252 #
vertex $-1 $258 $387 #
straight-curve $-1 60.687887203588971 38.524871564896777 0 0 0 -1 I I #
edge $-1 $176 -38.524871564896777 $264 38.524871564896777 $272 $388 forward 7 unknown #
edge $-1 $265 -38.524871564896777 $175 38.524871564896777 $268 $389 forward 7 unknown #
point $-1 -60.687887203588971 38.524871564896777 -8.6033432317921132 #
point $-1 60.687887203588971 38.524871564896777 -8.6033432317921132 #
face $-1 $-1 $297 $25 $-1 $390 forward single #
loop $-1 $-1 $391 $178 #
plane-surface $-1 -54.62565321514716 -41.94371786419844 0 -1 0 0 0 0 1 forward_v I I I I #
coedge $-1 $392 $181 $287 $393 reversed $108 $-1 #
coedge $-1 $181 $392 $394 $395 reversed $108 $-1 #
coedge $-1 $189 $188 $181 $286 reversed $179 $-1 #
edge $-1 $396 -8.6033432317921132 $397 8.6033432317921132 $285 $398 forward 7 unknown #
coedge $-1 $183 $182 $283 $393 forward $69 $-1 #
coedge $-1 $293 $391 $182 $289 reversed $281 $-1 #
edge $-1 $291 -3.4188462993016628 $399 3.4188462993016628 $288 $400 forward 7 unknown #
edge $-1 $397 -3.4188462993016628 $190 3.4188462993016628 $188 $401 forward 7 unknown #
vertex $-1 $289 $402 #
straight-curve $-1 0 -38.524871564896777 -8.6033432317921132 1 0 0 I I #
coedge $-1 $403 $288 $185 $294 reversed $281 $-1 #
edge $-1 $298 -8.6033432317921132 $291 8.6033432317921132 $293 $404 forward 7 unknown #
coedge $-1 $394 $186 $189 $300 forward $297 $-1 #
coedge $-1 $186 $394 $403 $405 forward $297 $-1 #
loop $-1 $-1 $186 $280 #
vertex $-1 $187 $406 #
straight-curve $-1 0 -38.524871564896777 8.6033432317921132 -1 0 0 I I #
edge $-1 $191 -3.4188462993016628 $396 3.4188462993016628 $189 $407 forward 7 unknown #
point $-1 -57.863085470667748 -38.524871564896777 -8.6033432317921132 #
point $-1 -57.863085470667748 -38.524871564896777 8.6033432317921132 #
face $-1 $-1 $319 $26 $-1 $408 forward single #
plane-surface $-1 -54.62565321514716 41.94371786419844 0 -1 0 0 0 0 1 forward_v I I I I #
coedge $-1 $409 $410 $322 $411 forward $194 $-1 #
coedge $-1 $315 $196 $197 $311 reversed $116 $-1 #
coedge $-1 $196 $315 $318 $412 reversed $116 $-1 #
coedge $-1 $410 $409 $196 $309 reversed $194 $-1 #
edge $-1 $413 -8.6033432317921132 $414 8.6033432317921132 $308 $415 forward 7 unknown #
coedge $-1 $198 $197 $409 $416 forward $73 $-1 #
edge $-1 $313 -3.4188462993016628 $414 3.4188462993016628 $306 $417 forward 7 unknown #
edge $-1 $418 -3.4188462993016628 $206 3.4188462993016628 $203 $419 forward 7 unknown #
vertex $-1 $311 $420 #
straight-curve $-1 0 38.524871564896777 -8.6033432317921132 -1 0 0 I I #
coedge $-1 $307 $306 $200 $316 reversed $116 $-1 #
edge $-1 $320 -8.6033432317921132 $313 8.6033432317921132 $315 $421 forward 7 unknown #
coedge $-1 $422 $201 $204 $323 forward $319 $-1 #
coedge $-1 $201 $422 $307 $412 forward $319 $-1 #
loop $-1 $-1 $201 $303 #
vertex $-1 $202 $423 #
straight-curve $-1 0 38.524871564896777 8.6033432317921132 1 0 0 I I #
coedge $-1 $204 $203 $305 $411 reversed $205 $-1 #
edge $-1 $207 -3.4188462993016628 $424 3.4188462993016628 $204 $425 forward 7 unknown #
point $-1 -54.62565321514716 38.524871564896777 -8.6033432317921132 #
point $-1 -54.62565321514716 38.524871564896777 8.6033432317921132 #
plane-surface $-1 0 0 8.6033432317921132 0 0 1 1 0 0 forward_v I I I I #
coedge $-1 $337 $336 $329 $426 forward $210 $-1 #
coedge $-1 $329 $212 $214 $333 reversed $124 $-1 #
coedge $-1 $212 $328 $327 $426 reversed $124 $-1 #
coedge $-1 $220 $215 $212 $331 forward $221 $-1 #
edge $-1 $334 -12.28223187562152 $427 -3.5922926901440491 $330 $428 forward 7 unknown #
coedge $-1 $214 $213 $337 $429 reversed $77 $-1 #
edge $-1 $430 -1.7244626260799089e-014 $334 10.481960678910074 $328 $431 forward 7 unknown #
vertex $-1 $216 $432 #
straight-curve $-1 -51.997948018111494 5.4397178523964307 8.6033432317921132 0 1 0 I I #
coedge $-1 $327 $217 $220 $341 reversed $210 $-1 #
coedge $-1 $217 $327 $332 $429 forward $210 $-1 #
vertex $-1 $218 $433 #
straight-curve $-1 -60.687887203588971 3.2234334110751384 51.683490958013373 0 0 1 I I #
straight-curve $-1 -60.687887203588957 3.2234334110751384 2.7419051295069465 -0.82903756765294845 0 -0.55919291073839883 I I #
edge $-1 $427 -18.535437998510584 $222 -3.2234334110751384 $336 $434 forward 7 unknown #
point $-1 -60.687887203588971 3.2234334110751384 8.6033432317921132 #
point $-1 -51.997948018111501 3.2234334110751384 8.6033432317921132 #
edge $-1 $435 1 $435 0 $225 $-1 forward 7 unknown #
vertex $-1 $226 $436 #
ellipse-curve $-1 -54.706723283937364 7.5982918646281234 3.2468663805367992 -0.55919291073839883 0 0.82903756765294845 1.6580751353058969 0 1.1183858214767977 1 I I #
point $-1 -54.684842475544365 7.5982918646281234 6.7910100021263347 #
edge $-1 $437 1 $437 0 $229 $-1 forward 7 unknown #
vertex $-1 $230 $438 #
ellipse-curve $-1 -54.706723283937364 14.160579544957599 3.2468663805367992 -0.55919291073839883 0 0.82903756765294845 1.6580751353058969 0 1.1183858214767977 1 I I #
point $-1 -54.684842475544365 14.160579544957599 6.7910100021263347 #
loop $-1 $-1 $241 $233 #
plane-surface $-1 60.687887203588971 0 0 -1 0 0 0 0 1 forward_v I I I I #
coedge $-1 $355 $236 $238 $359 reversed $146 $-1 #
coedge $-1 $236 $354 $439 $440 reversed $146 $-1 #
coedge $-1 $244 $239 $236 $357 forward $234 $-1 #
edge $-1 $360 10.45509186522856 $441 15.440477608709465 $356 $442 forward 7 unknown #
coedge $-1 $238 $237 $363 $443 reversed $91 $-1 #
edge $-1 $444 -121.37577440717793 $360 -112.68401943174199 $354 $445 forward 7 unknown #
vertex $-1 $240 $446 #
straight-curve $-1 55.702501460108081 10.041693807788072 8.6033432317921026 0 -1 0 I I #
coedge $-1 $439 $241 $244 $367 reversed $352 $-1 #
coedge $-1 $241 $439 $358 $443 forward $352 $-1 #
vertex $-1 $242 $447 #
straight-curve $-1 60.687887203588971 28.641256516061809 85.263485879217711 0 0 1 I I #
straight-curve $-1 -8.9303955302899709 28.641256516061809 100.90868902455647 0.57357642473473569 0 -0.81915205242281985 I I #
edge $-1 $441 11.525518715090477 $245 28.641256516061809 $362 $448 forward 7 unknown #
point $-1 60.687887203588971 28.641256516061809 8.6033432317921132 #
point $-1 55.702501460108067 28.641256516061809 8.6033432317921097 #
edge $-1 $449 1 $449 0 $248 $-1 forward 7 unknown #
vertex $-1 $249 $450 #
ellipse-curve $-1 53.968262744344159 20.083387615576143 2.0836794964130334 0.81915205242281985 0 0.57357642473473569 1.1471528494694714 0 -1.6383041048456397 1 I I #
point $-1 59.342347181317983 20.083387615576143 3.4051046633041597 #
plane-surface $-1 60.687887203588971 0 0 -1 0 0 0 0 1 forward_v I I I I #
coedge $-1 $256 $255 $269 $385 forward $100 $-1 #
edge $-1 $380 -60.687887203588971 $377 60.687887203588971 $259 $451 forward 7 unknown #
vertex $-1 $258 $452 #
straight-curve $-1 60.687887203588971 0 8.6033432317921132 0 1 0 I I #
straight-curve $-1 60.687887203588971 -38.524871564896777 0 0 0 -1 I I #
vertex $-1 $385 $453 #
straight-curve $-1 -60.687887203588971 -38.524871564896777 0 0 0 -1 I I #
point $-1 60.687887203588971 -38.524871564896777 -8.6033432317921132 #
point $-1 -60.687887203588971 -38.524871564896777 -8.6033432317921132 #
straight-curve $-1 0 38.524871564896777 8.6033432317921132 -1 0 0 I I #
edge $-1 $270 -38.524871564896777 $380 38.524871564896777 $269 $454 forward 7 unknown #
point $-1 -60.687887203588971 38.524871564896777 8.6033432317921132 #
point $-1 60.687887203588971 38.524871564896777 8.6033432317921132 #
straight-curve $-1 60.687887203588971 0 -8.6033432317921132 0 -1 0 I I #
straight-curve $-1 -60.687887203588971 0 -8.6033432317921132 0 1 0 I I #
plane-surface $-1 0 0 8.6033432317921132 0 0 1 1 0 0 forward_v I I I I #
coedge $-1 $288 $403 $392 $455 forward $281 $-1 #
coedge $-1 $284 $283 $391 $455 reversed $108 $-1 #
edge $-1 $399 -1.6187161277602939 $397 1.6187161277602939 $283 $456 forward 7 unknown #
coedge $-1 $296 $295 $284 $395 forward $297 $-1 #
edge $-1 $396 -1.6187161277602939 $457 1.6187161277602939 $284 $458 forward 7 unknown #
vertex $-1 $300 $459 #
vertex $-1 $290 $460 #
straight-curve $-1 -57.863085470667748 -45.362564163500103 0 0 0 -1 I I #
vertex $-1 $455 $461 #
straight-curve $-1 -54.62565321514716 -41.94371786419844 -8.6033432317921132 0 -1 0 I I #
straight-curve $-1 -57.863085470667748 -41.94371786419844 -8.6033432317921132 0 1 0 I I #
point $-1 -54.62565321514716 -38.524871564896777 -8.6033432317921132 #
coedge $-1 $391 $293 $296 $405 reversed $281 $-1 #
straight-curve $-1 -54.62565321514716 -38.524871564896777 0 0 0 -1 I I #
edge $-1 $457 -3.4188462993016628 $298 3.4188462993016628 $403 $462 forward 7 unknown #
point $-1 -54.62565321514716 -38.524871564896777 8.6033432317921132 #
straight-curve $-1 -57.863085470667748 -41.94371786419844 8.6033432317921132 0 -1 0 I I #
plane-surface $-1 0 0 8.6033432317921132 0 0 1 1 0 0 forward_v I I I I #
coedge $-1 $308 $305 $310 $416 reversed $194 $-1 #
coedge $-1 $305 $308 $422 $463 reversed $194 $-1 #
edge $-1 $424 -8.6033432317921132 $418 8.6033432317921132 $322 $464 forward 7 unknown #
edge $-1 $413 -3.4188462993016628 $320 3.4188462993016628 $307 $465 forward 7 unknown #
vertex $-1 $463 $466 #
vertex $-1 $416 $467 #
straight-curve $-1 -57.863085470667748 45.362564163500103 0 0 0 -1 I I #
edge $-1 $414 -1.6187161277602939 $418 1.6187161277602939 $409 $468 forward 7 unknown #
straight-curve $-1 -57.863085470667748 41.94371786419844 -8.6033432317921132 0 1 0 I I #
vertex $-1 $312 $469 #
straight-curve $-1 -54.62565321514716 41.94371786419844 -8.6033432317921132 0 -1 0 I I #
point $-1 -57.863085470667748 38.524871564896777 -8.6033432317921132 #
straight-curve $-1 -57.863085470667748 38.524871564896777 0 0 0 -1 I I #
coedge $-1 $318 $317 $410 $463 forward $319 $-1 #
point $-1 -57.863085470667748 38.524871564896777 8.6033432317921132 #
vertex $-1 $323 $470 #
straight-curve $-1 -54.62565321514716 41.94371786419844 8.6033432317921132 0 1 0 I I #
edge $-1 $427 43.080147726221256 $430 48.941585828506433 $327 $471 forward 7 unknown #
vertex $-1 $341 $472 #
straight-curve $-1 -64.28017989373302 18.535437998510584 8.6033432317921168 -1 0 0 I I #
edge $-1 $430 -13.095720146114154 $338 2.2162844413212923 $337 $473 forward 7 unknown #
vertex $-1 $429 $474 #
straight-curve $-1 -60.687887203588957 18.535437998510584 2.7419051295069465 0.82903756765294845 0 0.55919291073839883 I I #
point $-1 -51.997948018111501 18.535437998510584 8.6033432317921132 #
point $-1 -60.687887203588971 3.2234334110751384 2.7419051295069368 #
straight-curve $-1 -60.687887203588971 0 8.6033432317921132 0 -1 0 I I #
vertex $-1 $344 $475 #
point $-1 -53.048648148631472 7.5982918646281234 4.3652522020135969 #
vertex $-1 $348 $476 #
point $-1 -53.048648148631472 14.160579544957599 4.3652522020135969 #
coedge $-1 $363 $362 $355 $440 forward $352 $-1 #
edge $-1 $441 76.660142647425602 $444 83.780011574710201 $439 $477 forward 7 unknown #
vertex $-1 $367 $478 #
straight-curve $-1 45.247409594879507 11.525518715090477 8.6033432317921097 1 0 0 I I #
edge $-1 $444 1.4838249073024059 $364 18.599562708273737 $363 $479 forward 7 unknown #
vertex $-1 $443 $480 #
straight-curve $-1 -8.9303955302899709 11.525518715090477 100.90868902455647 -0.57357642473473569 0 0.81915205242281985 I I #
point $-1 55.702501460108067 11.525518715090477 8.6033432317921097 #
point $-1 60.687887203588971 28.641256516061809 1.4834743045075101 #
straight-curve $-1 60.687887203588971 0 8.6033432317921132 0 1 0 I I #
vertex $-1 $370 $481 #
point $-1 55.11541559381363 20.083387615576143 0.44537539156739392 #
straight-curve $-1 0 -38.524871564896777 8.6033432317921132 1 0 0 I I #
point $-1 60.687887203588971 -38.524871564896777 8.6033432317921132 #
point $-1 -60.687887203588971 -38.524871564896777 8.6033432317921132 #
straight-curve $-1 -60.687887203588971 0 8.6033432317921132 0 -1 0 I I #
edge $-1 $457 -8.6033432317921132 $399 8.6033432317921132 $391 $482 forward 7 unknown #
straight-curve $-1 -56.244369342907454 -45.362564163500103 -8.6033432317921132 -1 0 0 I I #
vertex $-1 $405 $483 #
straight-curve $-1 -56.244369342907454 -45.362564163500103 8.6033432317921132 1 0 0 I I #
point $-1 -57.863085470667748 -45.362564163500103 8.6033432317921132 #
point $-1 -57.863085470667748 -45.362564163500103 -8.6033432317921132 #
point $-1 -54.62565321514716 -45.362564163500103 -8.6033432317921132 #
straight-curve $-1 -54.62565321514716 -41.94371786419844 8.6033432317921132 0 1 0 I I #
edge $-1 $424 -1.6187161277602939 $413 1.6187161277602939 $410 $484 forward 7 unknown #
straight-curve $-1 -54.62565321514716 45.362564163500103 0 0 0 -1 I I #
straight-curve $-1 -57.863085470667748 41.94371786419844 8.6033432317921132 0 -1 0 I I #
point $-1 -57.863085470667748 45.362564163500103 8.6033432317921132 #
point $-1 -57.863085470667748 45.362564163500103 -8.6033432317921132 #
straight-curve $-1 -56.244369342907454 45.362564163500103 -8.6033432317921132 1 0 0 I I #
point $-1 -54.62565321514716 45.362564163500103 -8.6033432317921132 #
point $-1 -54.62565321514716 45.362564163500103 8.6033432317921132 #
straight-curve $-1 -60.687887203588971 18.535437998510584 51.683490958013373 0 0 -1 I I #
point $-1 -60.687887203588971 18.535437998510584 8.6033432317921132 #
straight-curve $-1 -60.687887203588971 5.4397178523964307 2.741905129506939 0 -1 0 I I #
point $-1 -60.687887203588971 18.535437998510584 2.7419051295069368 #
point $-1 -53.588337462460572 7.5982918646281234 1.5887912452309025 #
point $-1 -53.588337462460572 14.160579544957599 1.5887912452309025 #
straight-curve $-1 60.687887203588971 11.525518715090477 85.263485879217711 0 0 -1 I I #
point $-1 60.687887203588971 11.525518715090477 8.6033432317921132 #
straight-curve $-1 60.687887203588986 10.041693807788072 1.4834743045074958 0 1 0 I I #
point $-1 60.687887203588971 11.525518715090477 1.4834743045075101 #
point $-1 52.329958639498514 20.083387615576143 0.93652664694356225 #
straight-curve $-1 -54.62565321514716 -45.362564163500103 0 0 0 -1 I I #
point $-1 -54.62565321514716 -45.362564163500103 8.6033432317921132 #
straight-curve $-1 -56.244369342907454 45.362564163500103 8.6033432317921132 -1 0 0 I I #
End-of-ACIS-data 