500 0 5 0           
7 Unknown 11 ACIS 5.0 NT 24 Thu Mar 25 22:39:08 1999 
-1 9.9999999999999995e-007 1e-010 
body $-1 $5 $-1 $6 #
body $-1 $7 $-1 $8 #
body $-1 $9 $-1 $10 #
body $-1 $11 $-1 $12 #
body $-1 $13 $-1 $14 #
lump $-1 $-1 $15 $0 #
transform $-1 1 0 0 0 1 0 0 0 1 64.818872646259962 44.685992725690156 17.241617140182363 1 rotate no_reflect no_shear #
lump $-1 $-1 $16 $1 #
transform $-1 1 0 0 0 1 0 0 0 1 64.818872646259962 44.685992725690156 17.241617140182363 1 rotate no_reflect no_shear #
lump $-1 $-1 $17 $2 #
transform $-1 1 0 0 0 1 0 0 0 1 64.818872646259962 44.685992725690156 17.241617140182363 1 rotate no_reflect no_shear #
lump $-1 $-1 $18 $3 #
transform $-1 1 0 0 0 1 0 0 0 1 64.818872646259962 44.685992725690156 17.241617140182363 1 rotate no_reflect no_shear #
lump $-1 $-1 $19 $4 #
transform $-1 1 0 0 0 1 0 0 0 1 64.818872646259962 44.685992725690156 17.241617140182363 1 rotate no_reflect no_shear #
shell $-1 $-1 $-1 $20 $-1 $5 #
shell $-1 $-1 $-1 $21 $-1 $7 #
shell $-1 $-1 $-1 $22 $-1 $9 #
shell $-1 $-1 $-1 $23 $-1 $11 #
shell $-1 $-1 $-1 $24 $-1 $13 #
face $-1 $25 $26 $15 $-1 $27 forward single #
face $-1 $28 $29 $16 $-1 $30 forward single #
face $-1 $31 $32 $17 $-1 $33 reversed single #
face $-1 $34 $35 $18 $-1 $36 forward single #
face $-1 $37 $38 $19 $-1 $39 forward single #
face $-1 $40 $41 $15 $-1 $42 reversed single #
loop $-1 $-1 $43 $20 #
plane-surface $-1 0 0 17.241617140182363 0 0 1 1 0 0 forward_v I I I I #
face $-1 $44 $45 $16 $-1 $46 reversed single #
loop $-1 $-1 $47 $21 #
plane-surface $-1 -56.314399081922218 0 -10.56817942717608 0 0 1 1 0 0 forward_v I I I I #
face $-1 $48 $49 $17 $-1 $50 reversed single #
loop $-1 $-1 $51 $22 #
plane-surface $-1 23.577369637068031 -22.750621205696387 182.77081043563888 0 -1 0 -0.52991927123019833 0 -0.84804809178421925 forward_v I I I I #
face $-1 $52 $53 $18 $-1 $54 forward single #
loop $-1 $55 $56 $23 #
cone-surface $-1 53.428045253644534 -38.418743719977648 9.2432620959984515 -0.52991927123019833 0 -0.84804809178421925 1.6960961835684385 0 -1.0598385424603967 1 I I 0 1 2 forward I I I I #
face $-1 $57 $58 $19 $-1 $59 forward single #
loop $-1 $60 $61 $24 #
cone-surface $-1 53.428045253644534 -29.017870211408891 9.2432620959984515 -0.52991927123019833 0 -0.84804809178421925 1.6960961835684385 0 -1.0598385424603967 1 I I 0 1 2 forward I I I I #
face $-1 $62 $63 $15 $-1 $64 reversed single #
loop $-1 $-1 $65 $25 #
plane-surface $-1 0 0 -17.241617140182363 0 0 1 1 0 0 forward_v I I I I #
coedge $-1 $66 $67 $68 $69 forward $26 $-1 #
face $-1 $70 $71 $16 $-1 $72 reversed single #
loop $-1 $-1 $73 $28 #
plane-surface $-1 -47.809925517584475 0 -13.904898283679222 -1 0 0 0 0 1 forward_v I I I I #
coedge $-1 $74 $75 $76 $77 forward $29 $-1 #
face $-1 $78 $79 $17 $-1 $80 forward single #
loop $-1 $-1 $81 $31 #
plane-surface $-1 -45.120169872270196 -33.718306965693273 72.831767917108706 0.52991927123019833 0 0.84804809178421925 0.84804809178421925 0 -0.52991927123019833 forward_v I I I I #
coedge $-1 $82 $83 $84 $85 reversed $32 $-1 #
face $-1 $-1 $86 $18 $-1 $87 forward single #
loop $-1 $88 $89 $34 #
cone-surface $-1 51.995401784263805 -38.418743719977648 6.9505533262362889 -0.52991927123019833 0 -0.84804809178421925 0.84804809178421925 0 -0.52991927123019833 1 I I -0.70710678118654746 0.70710678118654746 1 forward I I I I #
loop $-1 $-1 $90 $23 #
coedge $-1 $56 $56 $91 $92 reversed $35 $-1 #
face $-1 $-1 $93 $19 $-1 $94 forward single #
loop $-1 $95 $96 $37 #
cone-surface $-1 51.995401784263805 -29.017870211408891 6.9505533262362889 -0.52991927123019833 0 -0.84804809178421925 0.84804809178421925 0 -0.52991927123019833 1 I I -0.70710678118654746 0.70710678118654746 1 forward I I I I #
loop $-1 $-1 $97 $24 #
coedge $-1 $61 $61 $98 $99 reversed $38 $-1 #
face $-1 $100 $101 $15 $-1 $102 reversed single #
loop $-1 $-1 $103 $40 #
plane-surface $-1 0 -44.685992725690156 0 0 1 0 0 0 1 forward_v I I I I #
coedge $-1 $104 $105 $106 $107 forward $41 $-1 #
coedge $-1 $108 $43 $109 $110 forward $26 $-1 #
coedge $-1 $43 $108 $111 $112 forward $26 $-1 #
coedge $-1 $113 $114 $43 $69 reversed $115 $-1 #
edge $-1 $116 -44.685992725690156 $117 44.685992725690156 $68 $118 forward 7 unknown #
face $-1 $119 $120 $16 $-1 $121 reversed single #
loop $-1 $-1 $122 $44 #
plane-surface $-1 0 0 -17.241617140182363 0 0 1 1 0 0 forward_v I I I I #
coedge $-1 $123 $76 $124 $125 reversed $45 $-1 #
coedge $-1 $126 $47 $127 $128 reversed $29 $-1 #
coedge $-1 $47 $126 $129 $130 reversed $29 $-1 #
coedge $-1 $73 $131 $47 $77 reversed $45 $-1 #
edge $-1 $132 -44.685992725690156 $133 44.685992725690156 $76 $134 forward 7 unknown #
face $-1 $135 $136 $17 $-1 $137 reversed single #
loop $-1 $-1 $84 $48 #
plane-surface $-1 0 0 17.241617140182363 0 0 1 1 0 0 forward_v I I I I #
coedge $-1 $138 $139 $140 $141 reversed $49 $-1 #
coedge $-1 $83 $51 $142 $143 reversed $32 $-1 #
coedge $-1 $51 $82 $138 $144 reversed $32 $-1 #
coedge $-1 $140 $145 $51 $85 forward $79 $-1 #
edge $-1 $146 -53.030187827725946 $147 -32.053981438796221 $84 $148 forward 7 unknown #
loop $-1 $-1 $91 $52 #
plane-surface $-1 -45.120169872270196 -33.718306965693273 72.831767917108706 0.52991927123019833 0 0.84804809178421925 0.84804809178421925 0 -0.52991927123019833 forward_v I I I I #
loop $-1 $-1 $149 $34 #
coedge $-1 $89 $89 $90 $150 reversed $53 $-1 #
coedge $-1 $90 $90 $89 $150 forward $55 $-1 #
coedge $-1 $91 $91 $56 $92 forward $86 $-1 #
edge $-1 $151 0 $151 6.2831853071796004 $91 $152 forward 7 unknown #
loop $-1 $-1 $98 $57 #
plane-surface $-1 -45.120169872270196 -33.718306965693273 72.831767917108706 0.52991927123019833 0 0.84804809178421925 0.84804809178421925 0 -0.52991927123019833 forward_v I I I I #
loop $-1 $-1 $153 $37 #
coedge $-1 $96 $96 $97 $154 reversed $58 $-1 #
coedge $-1 $97 $97 $96 $154 forward $60 $-1 #
coedge $-1 $98 $98 $61 $99 forward $93 $-1 #
edge $-1 $155 0 $155 6.2831853071796004 $98 $156 forward 7 unknown #
face $-1 $157 $158 $15 $-1 $159 reversed single #
loop $-1 $-1 $160 $62 #
plane-surface $-1 -64.818872646259962 0 0 1 0 0 0 0 -1 forward_v I I I I #
coedge $-1 $161 $111 $162 $163 forward $63 $-1 #
coedge $-1 $164 $65 $161 $165 forward $41 $-1 #
coedge $-1 $65 $164 $166 $167 forward $41 $-1 #
coedge $-1 $114 $113 $65 $107 reversed $115 $-1 #
edge $-1 $168 -44.685992725690156 $169 44.685992725690156 $106 $170 forward 7 unknown #
coedge $-1 $67 $66 $171 $172 forward $26 $-1 #
coedge $-1 $173 $174 $66 $110 reversed $158 $-1 #
edge $-1 $117 -64.818872646259962 $175 64.818872646259962 $109 $176 forward 7 unknown #
coedge $-1 $103 $177 $67 $112 reversed $63 $-1 #
edge $-1 $178 -64.818872646259962 $116 64.818872646259962 $111 $179 forward 7 unknown #
coedge $-1 $106 $68 $177 $180 forward $115 $-1 #
coedge $-1 $68 $106 $173 $181 reversed $115 $-1 #
loop $-1 $-1 $113 $157 #
vertex $-1 $69 $182 #
vertex $-1 $69 $183 #
straight-curve $-1 64.818872646259962 0 17.241617140182363 0 1 0 I I #
face $-1 $184 $185 $16 $-1 $186 reversed single #
loop $-1 $-1 $124 $70 #
plane-surface $-1 0 -44.685992725690156 0 0 1 0 0 0 1 forward_v I I I I #
coedge $-1 $187 $188 $123 $189 forward $71 $-1 #
coedge $-1 $131 $73 $122 $189 reversed $45 $-1 #
coedge $-1 $129 $190 $73 $125 forward $120 $-1 #
edge $-1 $191 -10.289167998342752 $132 -3.6157302853364692 $124 $192 forward 7 unknown #
coedge $-1 $75 $74 $193 $194 reversed $29 $-1 #
coedge $-1 $195 $196 $74 $128 forward $197 $-1 #
edge $-1 $198 -36.661673105298853 $133 -19.652725976623366 $127 $199 forward 7 unknown #
coedge $-1 $200 $124 $75 $130 forward $120 $-1 #
edge $-1 $132 19.652725976623366 $201 36.661673105298853 $129 $202 forward 7 unknown #
coedge $-1 $76 $123 $195 $203 reversed $45 $-1 #
vertex $-1 $130 $204 #
vertex $-1 $128 $205 #
straight-curve $-1 -47.809925517584475 0 -10.56817942717608 0 1 0 I I #
face $-1 $-1 $206 $17 $-1 $207 reversed single #
loop $-1 $-1 $208 $78 #
plane-surface $-1 0 -44.685992725690156 0 0 1 0 0 0 1 forward_v I I I I #
coedge $-1 $209 $81 $83 $144 forward $49 $-1 #
coedge $-1 $81 $209 $208 $210 reversed $49 $-1 #
coedge $-1 $211 $84 $81 $141 forward $79 $-1 #
edge $-1 $147 5.8914677228497503 $212 27.826839242843519 $140 $213 forward 7 unknown #
coedge $-1 $214 $215 $82 $143 forward $206 $-1 #
edge $-1 $216 -87.251176810048946 $146 -74.143788077637083 $142 $217 forward 7 unknown #
edge $-1 $147 104.90305560670549 $216 129.6377452925199 $83 $218 forward 7 unknown #
coedge $-1 $84 $211 $214 $219 forward $79 $-1 #
vertex $-1 $85 $220 #
vertex $-1 $85 $221 #
straight-curve $-1 11.788684818534016 -22.750621205696387 17.241617140182356 -1 0 0 I I #
coedge $-1 $149 $149 $-1 $222 reversed $88 $-1 #
edge $-1 $223 0 $223 6.2831853071796004 $89 $224 forward 7 unknown #
vertex $-1 $92 $225 #
ellipse-curve $-1 54.330769451795085 -38.418743719977648 10.687922773976428 0.52991927123019833 0 0.84804809178421925 1.6960961835684385 0 -1.0598385424603967 1 I I #
coedge $-1 $153 $153 $-1 $226 reversed $95 $-1 #
edge $-1 $227 0 $227 6.2831853071796004 $96 $228 forward 7 unknown #
vertex $-1 $99 $229 #
ellipse-curve $-1 54.330769451795085 -29.017870211408891 10.687922773976428 0.52991927123019833 0 0.84804809178421925 1.6960961835684385 0 -1.0598385424603967 1 I I #
face $-1 $-1 $115 $15 $-1 $230 reversed single #
loop $-1 $-1 $173 $100 #
plane-surface $-1 0 44.685992725690156 0 0 -1 0 0 0 -1 forward_v I I I I #
coedge $-1 $231 $171 $174 $232 forward $101 $-1 #
coedge $-1 $177 $103 $104 $165 reversed $63 $-1 #
coedge $-1 $171 $231 $103 $163 reversed $101 $-1 #
edge $-1 $178 -17.241617140182363 $233 17.241617140182363 $162 $234 forward 7 unknown #
coedge $-1 $105 $104 $231 $235 forward $41 $-1 #
edge $-1 $169 -64.818872646259962 $233 64.818872646259962 $161 $236 forward 7 unknown #
coedge $-1 $174 $173 $105 $167 reversed $158 $-1 #
edge $-1 $237 -64.818872646259962 $168 64.818872646259962 $166 $238 forward 7 unknown #
vertex $-1 $107 $239 #
vertex $-1 $180 $240 #
straight-curve $-1 64.818872646259962 0 -17.241617140182363 0 -1 0 I I #
coedge $-1 $160 $162 $108 $172 reversed $101 $-1 #
edge $-1 $175 -44.685992725690156 $178 44.685992725690156 $171 $241 forward 7 unknown #
coedge $-1 $166 $109 $114 $181 forward $158 $-1 #
coedge $-1 $109 $166 $160 $232 reversed $158 $-1 #
vertex $-1 $110 $242 #
straight-curve $-1 0 44.685992725690156 17.241617140182363 -1 0 0 I I #
coedge $-1 $111 $161 $113 $180 reversed $63 $-1 #
vertex $-1 $172 $243 #
straight-curve $-1 0 -44.685992725690156 17.241617140182363 1 0 0 I I #
edge $-1 $116 -17.241617140182363 $169 17.241617140182363 $113 $244 forward 7 unknown #
edge $-1 $117 -17.241617140182363 $168 17.241617140182363 $114 $245 forward 7 unknown #
point $-1 64.818872646259962 -44.685992725690156 17.241617140182363 #
point $-1 64.818872646259962 44.685992725690156 17.241617140182363 #
face $-1 $-1 $197 $16 $-1 $246 reversed single #
loop $-1 $-1 $193 $119 #
plane-surface $-1 -64.818872646259962 0 0 1 0 0 0 0 -1 forward_v I I I I #
coedge $-1 $247 $122 $190 $248 forward $71 $-1 #
coedge $-1 $122 $247 $249 $250 forward $71 $-1 #
edge $-1 $251 -44.685992725690156 $191 44.685992725690156 $122 $252 forward 7 unknown #
coedge $-1 $124 $200 $187 $248 reversed $120 $-1 #
vertex $-1 $248 $253 #
straight-curve $-1 -47.809925517584475 -44.685992725690156 -6.9524491418396108 0 0 1 I I #
coedge $-1 $254 $255 $126 $194 forward $185 $-1 #
edge $-1 $201 -44.685992725690156 $198 44.685992725690156 $193 $256 forward 7 unknown #
coedge $-1 $249 $127 $131 $203 forward $197 $-1 #
coedge $-1 $127 $249 $254 $257 reversed $197 $-1 #
loop $-1 $-1 $195 $184 #
vertex $-1 $257 $258 #
straight-curve $-1 -28.157199540961109 44.685992725690156 -10.56817942717608 1 0 0 I I #
coedge $-1 $190 $129 $255 $259 forward $120 $-1 #
vertex $-1 $259 $260 #
straight-curve $-1 -28.157199540961109 -44.685992725690156 -10.56817942717608 -1 0 0 I I #
edge $-1 $133 3.6157302853364692 $251 10.289167998342752 $195 $261 forward 7 unknown #
point $-1 -47.809925517584475 -44.685992725690156 -10.56817942717608 #
point $-1 -47.809925517584475 44.685992725690156 -10.56817942717608 #
loop $-1 $-1 $142 $135 #
plane-surface $-1 64.818872646259962 0 0 -1 0 0 0 0 1 forward_v I I I I #
coedge $-1 $262 $263 $139 $210 forward $136 $-1 #
coedge $-1 $139 $138 $215 $264 reversed $49 $-1 #
edge $-1 $212 66.473539937605636 $265 91.208229623420038 $208 $266 forward 7 unknown #
coedge $-1 $145 $140 $263 $267 forward $79 $-1 #
vertex $-1 $267 $268 #
straight-curve $-1 43.842666257330237 -16.859153482846637 17.241617140182363 0 -1 0 I I #
coedge $-1 $269 $142 $145 $219 reversed $206 $-1 #
coedge $-1 $142 $269 $209 $264 forward $206 $-1 #
vertex $-1 $143 $270 #
straight-curve $-1 64.818872646259962 -22.750621205696387 91.385405217819439 0 0 1 I I #
straight-curve $-1 -45.120169872270196 -22.750621205696387 72.831767917108706 0.84804809178421925 0 -0.52991927123019833 I I #
edge $-1 $271 -44.685992725690156 $146 -22.750621205696387 $214 $272 forward 7 unknown #
point $-1 64.818872646259962 -22.750621205696387 17.241617140182363 #
point $-1 43.842666257330237 -22.750621205696387 17.241617140182363 #
edge $-1 $273 1 $273 0 $149 $-1 forward 7 unknown #
vertex $-1 $150 $274 #
ellipse-curve $-1 52.525321055494004 -38.418743719977648 7.7986014180205085 0.52991927123019833 0 0.84804809178421925 1.6960961835684385 0 -1.0598385424603967 1 I I #
point $-1 56.0268656353635 -38.418743719977648 9.6280842315160005 #
edge $-1 $275 1 $275 0 $153 $-1 forward 7 unknown #
vertex $-1 $154 $276 #
ellipse-curve $-1 52.525321055494004 -29.017870211408891 7.7986014180205085 0.52991927123019833 0 0.84804809178421925 1.6960961835684385 0 -1.0598385424603967 1 I I #
point $-1 56.0268656353635 -29.017870211408891 9.6280842315160005 #
plane-surface $-1 64.818872646259962 0 0 -1 0 0 0 0 1 forward_v I I I I #
coedge $-1 $162 $160 $164 $235 reversed $101 $-1 #
edge $-1 $175 -17.241617140182363 $237 17.241617140182363 $174 $277 forward 7 unknown #
vertex $-1 $235 $278 #
straight-curve $-1 -64.818872646259962 -44.685992725690156 0 0 0 -1 I I #
edge $-1 $233 -44.685992725690156 $237 44.685992725690156 $231 $279 forward 7 unknown #
straight-curve $-1 0 -44.685992725690156 -17.241617140182363 -1 0 0 I I #
vertex $-1 $167 $280 #
straight-curve $-1 0 44.685992725690156 -17.241617140182363 1 0 0 I I #
point $-1 64.818872646259962 44.685992725690156 -17.241617140182363 #
point $-1 64.818872646259962 -44.685992725690156 -17.241617140182363 #
straight-curve $-1 -64.818872646259962 0 17.241617140182363 0 -1 0 I I #
point $-1 -64.818872646259962 44.685992725690156 17.241617140182363 #
point $-1 -64.818872646259962 -44.685992725690156 17.241617140182363 #
straight-curve $-1 64.818872646259962 -44.685992725690156 0 0 0 -1 I I #
straight-curve $-1 64.818872646259962 44.685992725690156 0 0 0 -1 I I #
plane-surface $-1 0 44.685992725690156 0 0 -1 0 0 0 -1 forward_v I I I I #
coedge $-1 $188 $187 $281 $282 forward $71 $-1 #
edge $-1 $191 47.809925517584475 $283 64.818872646259962 $190 $284 forward 7 unknown #
coedge $-1 $196 $195 $188 $250 reversed $197 $-1 #
edge $-1 $285 -64.818872646259962 $251 -47.809925517584475 $249 $286 forward 7 unknown #
vertex $-1 $203 $287 #
straight-curve $-1 -47.809925517584475 0 -17.241617140182363 0 -1 0 I I #
point $-1 -47.809925517584475 -44.685992725690156 -17.241617140182363 #
coedge $-1 $281 $193 $196 $257 forward $185 $-1 #
coedge $-1 $193 $281 $200 $259 reversed $185 $-1 #
straight-curve $-1 -64.818872646259962 0 -10.56817942717608 0 1 0 I I #
edge $-1 $198 10.56817942717608 $285 17.241617140182363 $196 $288 forward 7 unknown #
point $-1 -64.818872646259962 44.685992725690156 -10.56817942717608 #
edge $-1 $201 10.56817942717608 $283 17.241617140182363 $255 $289 forward 7 unknown #
point $-1 -64.818872646259962 -44.685992725690156 -10.56817942717608 #
straight-curve $-1 -47.809925517584475 44.685992725690156 -6.9524491418396108 0 0 -1 I I #
coedge $-1 $263 $208 $269 $290 reversed $136 $-1 #
coedge $-1 $208 $262 $211 $267 reversed $136 $-1 #
edge $-1 $265 -27.826839242843519 $216 -5.8914677228497503 $215 $291 forward 7 unknown #
vertex $-1 $210 $292 #
straight-curve $-1 -12.530092440898295 -44.685992725690156 52.467226980009819 0.84804809178421925 0 -0.52991927123019833 I I #
edge $-1 $212 43.842666257330244 $271 64.818872646259962 $263 $293 forward 7 unknown #
point $-1 43.842666257330244 -44.685992725690156 17.241617140182363 #
coedge $-1 $215 $214 $262 $290 forward $206 $-1 #
point $-1 64.818872646259948 -22.750621205696387 4.1342284077704932 #
vertex $-1 $219 $294 #
straight-curve $-1 64.818872646259962 0 17.241617140182363 0 1 0 I I #
vertex $-1 $222 $295 #
point $-1 54.22141723906244 -38.418743719977648 6.738762875560111 #
vertex $-1 $226 $296 #
point $-1 54.22141723906244 -29.017870211408891 6.738762875560111 #
straight-curve $-1 -64.818872646259962 44.685992725690156 0 0 0 -1 I I #
point $-1 -64.818872646259962 -44.685992725690156 -17.241617140182363 #
straight-curve $-1 -64.818872646259962 0 -17.241617140182363 0 1 0 I I #
point $-1 -64.818872646259962 44.685992725690156 -17.241617140182363 #
coedge $-1 $255 $254 $247 $282 reversed $185 $-1 #
edge $-1 $283 -44.685992725690156 $285 44.685992725690156 $281 $297 forward 7 unknown #
vertex $-1 $282 $298 #
straight-curve $-1 0 -44.685992725690156 -17.241617140182363 -1 0 0 I I #
vertex $-1 $250 $299 #
straight-curve $-1 0 44.685992725690156 -17.241617140182363 1 0 0 I I #
point $-1 -47.809925517584475 44.685992725690156 -17.241617140182363 #
straight-curve $-1 -64.818872646259962 44.685992725690156 0 0 0 -1 I I #
straight-curve $-1 -64.818872646259962 -44.685992725690156 0 0 0 -1 I I #
edge $-1 $271 -17.241617140182363 $265 -4.1342284077704914 $269 $300 forward 7 unknown #
straight-curve $-1 64.818872646259976 -16.859153482846637 4.1342284077704861 0 1 0 I I #
point $-1 64.818872646259962 -44.685992725690156 4.1342284077704914 #
straight-curve $-1 0 -44.685992725690156 17.241617140182363 1 0 0 I I #
point $-1 64.818872646259962 -44.685992725690156 17.241617140182363 #
point $-1 51.465482513033606 -38.418743719977648 6.1025052344520692 #
point $-1 51.465482513033606 -29.017870211408891 6.1025052344520692 #
straight-curve $-1 -64.818872646259962 0 -17.241617140182363 0 1 0 I I #
point $-1 -64.818872646259962 -44.685992725690156 -17.241617140182363 #
point $-1 -64.818872646259962 44.685992725690156 -17.241617140182363 #
straight-curve $-1 64.818872646259962 -44.685992725690156 0 0 0 -1 I I #
End-of-ACIS-data 