500 0 18 0           
7 Unknown 11 ACIS 5.0 NT 24 Fri Mar 26 15:04:49 1999 
-1 9.9999999999999995e-007 1e-010 
body $-1 $18 $-1 $19 #
body $-1 $20 $-1 $21 #
body $-1 $22 $-1 $23 #
body $-1 $24 $-1 $25 #
body $-1 $26 $-1 $27 #
body $-1 $28 $-1 $29 #
body $-1 $30 $-1 $31 #
body $-1 $32 $-1 $33 #
body $-1 $34 $-1 $35 #
body $-1 $36 $-1 $37 #
body $-1 $38 $-1 $39 #
body $-1 $40 $-1 $41 #
body $-1 $42 $-1 $43 #
body $-1 $44 $-1 $45 #
body $-1 $46 $-1 $47 #
body $-1 $48 $-1 $49 #
body $-1 $50 $-1 $51 #
body $-1 $52 $-1 $53 #
lump $-1 $-1 $54 $0 #
transform $-1 1 0 0 0 1 0 0 0 1 50.566728720969266 24.865151418091902 10.139414874354587 1 rotate no_reflect no_shear #
lump $-1 $-1 $55 $1 #
transform $-1 1 0 0 0 1 0 0 0 1 50.566728720969266 24.865151418091902 10.139414874354587 1 rotate no_reflect no_shear #
lump $-1 $-1 $56 $2 #
transform $-1 1 0 0 0 1 0 0 0 1 50.566728720969266 24.865151418091902 10.139414874354587 1 rotate no_reflect no_shear #
lump $-1 $-1 $57 $3 #
transform $-1 1 0 0 0 1 0 0 0 1 50.566728720969266 24.865151418091902 10.139414874354587 1 rotate no_reflect no_shear #
lump $-1 $-1 $58 $4 #
transform $-1 1 0 0 0 1 0 0 0 1 50.566728720969266 24.865151418091902 10.139414874354587 1 rotate no_reflect no_shear #
lump $-1 $-1 $59 $5 #
transform $-1 1 0 0 0 1 0 0 0 1 50.566728720969266 24.865151418091902 10.139414874354587 1 rotate no_reflect no_shear #
lump $-1 $-1 $60 $6 #
transform $-1 1 0 0 0 1 0 0 0 1 50.566728720969266 24.865151418091902 10.139414874354587 1 rotate no_reflect no_shear #
lump $-1 $-1 $61 $7 #
transform $-1 1 0 0 0 1 0 0 0 1 50.566728720969266 24.865151418091902 10.139414874354587 1 rotate no_reflect no_shear #
lump $-1 $-1 $62 $8 #
transform $-1 1 0 0 0 1 0 0 0 1 50.566728720969266 24.865151418091902 10.139414874354587 1 rotate no_reflect no_shear #
lump $-1 $-1 $63 $9 #
transform $-1 1 0 0 0 1 0 0 0 1 50.566728720969266 24.865151418091902 10.139414874354587 1 rotate no_reflect no_shear #
lump $-1 $-1 $64 $10 #
transform $-1 1 0 0 0 1 0 0 0 1 50.566728720969266 24.865151418091902 10.139414874354587 1 rotate no_reflect no_shear #
lump $-1 $-1 $65 $11 #
transform $-1 1 0 0 0 1 0 0 0 1 50.566728720969266 24.865151418091902 10.139414874354587 1 rotate no_reflect no_shear #
lump $-1 $-1 $66 $12 #
transform $-1 1 0 0 0 1 0 0 0 1 50.566728720969266 24.865151418091902 10.139414874354587 1 rotate no_reflect no_shear #
lump $-1 $-1 $67 $13 #
transform $-1 1 0 0 0 1 0 0 0 1 50.566728720969266 24.865151418091902 10.139414874354587 1 rotate no_reflect no_shear #
lump $-1 $-1 $68 $14 #
transform $-1 1 0 0 0 1 0 0 0 1 50.566728720969266 24.865151418091902 10.139414874354587 1 rotate no_reflect no_shear #
lump $-1 $-1 $69 $15 #
transform $-1 1 0 0 0 1 0 0 0 1 50.566728720969266 24.865151418091902 10.139414874354587 1 rotate no_reflect no_shear #
lump $-1 $-1 $70 $16 #
transform $-1 1 0 0 0 1 0 0 0 1 50.566728720969266 24.865151418091902 10.139414874354587 1 rotate no_reflect no_shear #
lump $-1 $-1 $71 $17 #
transform $-1 1 0 0 0 1 0 0 0 1 50.566728720969266 24.865151418091902 10.139414874354587 1 rotate no_reflect no_shear #
shell $-1 $-1 $-1 $72 $-1 $18 #
shell $-1 $-1 $-1 $73 $-1 $20 #
shell $-1 $-1 $-1 $74 $-1 $22 #
shell $-1 $-1 $-1 $75 $-1 $24 #
shell $-1 $-1 $-1 $76 $-1 $26 #
shell $-1 $-1 $-1 $77 $-1 $28 #
shell $-1 $-1 $-1 $78 $-1 $30 #
shell $-1 $-1 $-1 $79 $-1 $32 #
shell $-1 $-1 $-1 $80 $-1 $34 #
shell $-1 $-1 $-1 $81 $-1 $36 #
shell $-1 $-1 $-1 $82 $-1 $38 #
shell $-1 $-1 $-1 $83 $-1 $40 #
shell $-1 $-1 $-1 $84 $-1 $42 #
shell $-1 $-1 $-1 $85 $-1 $44 #
shell $-1 $-1 $-1 $86 $-1 $46 #
shell $-1 $-1 $-1 $87 $-1 $48 #
shell $-1 $-1 $-1 $88 $-1 $50 #
shell $-1 $-1 $-1 $89 $-1 $52 #
face $-1 $90 $91 $54 $-1 $92 forward single #
face $-1 $93 $94 $55 $-1 $95 reversed single #
face $-1 $96 $97 $56 $-1 $98 reversed single #
face $-1 $99 $100 $57 $-1 $101 forward single #
face $-1 $102 $103 $58 $-1 $104 forward single #
face $-1 $105 $106 $59 $-1 $107 reversed single #
face $-1 $108 $109 $60 $-1 $110 forward single #
face $-1 $111 $112 $61 $-1 $113 forward single #
face $-1 $114 $115 $62 $-1 $116 reversed single #
face $-1 $117 $118 $63 $-1 $119 forward single #
face $-1 $120 $121 $64 $-1 $122 forward single #
face $-1 $123 $124 $65 $-1 $125 reversed single #
face $-1 $126 $127 $66 $-1 $128 forward single #
face $-1 $129 $130 $67 $-1 $131 forward single #
face $-1 $132 $133 $68 $-1 $134 reversed single #
face $-1 $135 $136 $69 $-1 $137 forward single #
face $-1 $138 $139 $70 $-1 $140 reversed single #
face $-1 $141 $142 $71 $-1 $143 forward single #
face $-1 $144 $145 $54 $-1 $146 reversed single #
loop $-1 $-1 $147 $72 #
plane-surface $-1 0 0 10.139414874354587 0 0 1 1 0 0 forward_v I I I I #
face $-1 $148 $149 $55 $-1 $150 reversed single #
loop $-1 $-1 $151 $73 #
plane-surface $-1 -46.109096359802045 -10.31153277022592 0 0 1 0 0 0 1 forward_v I I I I #
face $-1 $152 $153 $56 $-1 $154 reversed single #
loop $-1 $-1 $155 $74 #
plane-surface $-1 -18.596915818733805 -106.68383801616865 60.812849181368094 -1 0 0 0 -0.80901700255871778 0.5877852410284794 forward_v I I I I #
face $-1 $156 $157 $57 $-1 $158 forward single #
loop $-1 $159 $160 $75 #
cone-surface $-1 -25.53853916975476 -20.809855972865044 5.1224426011502056 0 0.80901700255871778 -0.5877852410284794 1 0 0 1 I I 0 1 1 forward I I I I #
face $-1 $161 $162 $58 $-1 $163 forward single #
loop $-1 $164 $165 $76 #
cone-surface $-1 -21.373565159142188 -20.809855972865044 5.1224426011502056 0 0.80901700255871778 -0.5877852410284794 1 0 0 1 I I 0 1 1 forward I I I I #
face $-1 $166 $167 $59 $-1 $168 reversed single #
loop $-1 $-1 $169 $77 #
plane-surface $-1 4.4576323611672208 -106.68383801616865 60.812849181368094 -1 0 0 0 -0.80901700255871778 0.5877852410284794 forward_v I I I I #
face $-1 $170 $171 $60 $-1 $172 forward single #
loop $-1 $173 $174 $78 #
cone-surface $-1 -2.4839909898537371 -20.809855972865044 5.1224426011502056 0 0.80901700255871778 -0.5877852410284794 1 0 0 1 I I 0 1 1 forward I I I I #
face $-1 $175 $176 $61 $-1 $177 forward single #
loop $-1 $178 $179 $79 #
cone-surface $-1 1.6809830207588305 -20.809855972865044 5.1224426011502056 0 0.80901700255871778 -0.5877852410284794 1 0 0 1 I I 0 1 1 forward I I I I #
face $-1 $180 $181 $62 $-1 $182 reversed single #
loop $-1 $-1 $183 $80 #
plane-surface $-1 27.51218054106824 -106.68383801616865 60.812849181368094 -1 0 0 0 -0.80901700255871778 0.5877852410284794 forward_v I I I I #
face $-1 $184 $185 $63 $-1 $186 forward single #
loop $-1 $187 $188 $81 #
cone-surface $-1 20.570557190047282 -20.809855972865044 5.1224426011502056 0 0.80901700255871778 -0.5877852410284794 1 0 0 1 I I 0 1 1 forward I I I I #
face $-1 $189 $190 $64 $-1 $191 forward single #
loop $-1 $192 $193 $82 #
cone-surface $-1 24.73553120065985 -20.809855972865044 5.1224426011502056 0 0.80901700255871778 -0.5877852410284794 1 0 0 1 I I 0 1 1 forward I I I I #
face $-1 $194 $195 $65 $-1 $196 reversed single #
loop $-1 $-1 $197 $83 #
plane-surface $-1 45.707592375254592 -24.865151418091884 1.3680955228147909 0 -0.80901700255871778 0.5877852410284794 1 0 0 forward_v I I I I #
face $-1 $198 $199 $66 $-1 $200 forward single #
loop $-1 $201 $202 $84 #
cone-surface $-1 43.625105369948301 -20.809855972865044 5.1224426011502056 0 0.80901700255871778 -0.5877852410284794 1 0 0 1 I I 0 1 1 forward I I I I #
face $-1 $203 $204 $67 $-1 $205 forward single #
loop $-1 $206 $207 $85 #
cone-surface $-1 47.790079380560869 -20.809855972865044 5.1224426011502056 0 0.80901700255871778 -0.5877852410284794 1 0 0 1 I I 0 1 1 forward I I I I #
face $-1 $208 $209 $68 $-1 $210 reversed single #
loop $-1 $-1 $211 $86 #
plane-surface $-1 -23.614150643854426 49.862795497523805 116.14350562984571 1 0 0 0 -0.62932039886446345 -0.77714595512881146 forward_v I I I I #
face $-1 $212 $213 $69 $-1 $214 forward single #
loop $-1 $215 $216 $87 #
cone-surface $-1 -14.982643757005164 21.848575794991692 7.4347086917456355 0 -0.62932039886446345 -0.77714595512881146 1 0 0 1 I I 0 1 1 forward I I I I #
face $-1 $217 $218 $70 $-1 $219 reversed single #
loop $-1 $-1 $220 $88 #
plane-surface $-1 15.266401592490329 49.862795497523805 116.14350562984571 1 0 0 0 -0.62932039886446345 -0.77714595512881146 forward_v I I I I #
face $-1 $221 $222 $71 $-1 $223 forward single #
loop $-1 $224 $225 $89 #
cone-surface $-1 23.897908479339591 21.848575794991692 7.4347086917456355 0 -0.62932039886446345 -0.77714595512881146 1 0 0 1 I I 0 1 1 forward I I I I #
face $-1 $226 $227 $54 $-1 $228 reversed single #
loop $-1 $-1 $229 $90 #
plane-surface $-1 0 0 -10.139414874354587 0 0 1 1 0 0 forward_v I I I I #
coedge $-1 $230 $231 $232 $233 forward $91 $-1 #
face $-1 $234 $235 $55 $-1 $236 reversed single #
loop $-1 $-1 $237 $93 #
plane-surface $-1 -46.109096359802045 -7.3115327702259192 0 0 -1 0 0 0 -1 forward_v I I I I #
coedge $-1 $238 $239 $240 $241 reversed $94 $-1 #
face $-1 $242 $243 $56 $-1 $244 reversed single #
loop $-1 $-1 $245 $96 #
plane-surface $-1 -23.456052164448472 -24.865151418091884 1.3680955228147909 0 -0.80901700255871778 0.5877852410284794 1 0 0 forward_v I I I I #
coedge $-1 $246 $247 $248 $249 reversed $97 $-1 #
face $-1 $-1 $250 $57 $-1 $251 forward single #
loop $-1 $252 $253 $99 #
cone-surface $-1 -25.53853916975476 -19.536420200869713 4.1972373832014807 0 0.80901700255871778 -0.5877852410284794 0.5 0 0 1 I I -0.70710678118654746 0.70710678118654746 0.5 forward I I I I #
loop $-1 $-1 $254 $75 #
coedge $-1 $160 $160 $255 $256 reversed $100 $-1 #
face $-1 $-1 $257 $58 $-1 $258 forward single #
loop $-1 $259 $260 $102 #
cone-surface $-1 -21.373565159142188 -19.536420200869713 4.1972373832014807 0 0.80901700255871778 -0.5877852410284794 0.5 0 0 1 I I -0.70710678118654746 0.70710678118654746 0.5 forward I I I I #
loop $-1 $-1 $261 $76 #
coedge $-1 $165 $165 $262 $263 reversed $103 $-1 #
face $-1 $264 $265 $59 $-1 $266 reversed single #
loop $-1 $-1 $267 $105 #
plane-surface $-1 -0.40150398454744618 -24.865151418091884 1.3680955228147909 0 -0.80901700255871778 0.5877852410284794 1 0 0 forward_v I I I I #
coedge $-1 $268 $269 $270 $271 reversed $106 $-1 #
face $-1 $-1 $272 $60 $-1 $273 forward single #
loop $-1 $274 $275 $108 #
cone-surface $-1 -2.4839909898537371 -19.536420200869713 4.1972373832014807 0 0.80901700255871778 -0.5877852410284794 0.5 0 0 1 I I -0.70710678118654746 0.70710678118654746 0.5 forward I I I I #
loop $-1 $-1 $276 $78 #
coedge $-1 $174 $174 $277 $278 reversed $109 $-1 #
face $-1 $-1 $279 $61 $-1 $280 forward single #
loop $-1 $281 $282 $111 #
cone-surface $-1 1.6809830207588305 -19.536420200869713 4.1972373832014807 0 0.80901700255871778 -0.5877852410284794 0.5 0 0 1 I I -0.70710678118654746 0.70710678118654746 0.5 forward I I I I #
loop $-1 $-1 $283 $79 #
coedge $-1 $179 $179 $284 $285 reversed $112 $-1 #
face $-1 $286 $287 $62 $-1 $288 reversed single #
loop $-1 $-1 $289 $114 #
plane-surface $-1 22.653044195353573 -24.865151418091884 1.3680955228147909 0 -0.80901700255871778 0.5877852410284794 1 0 0 forward_v I I I I #
coedge $-1 $290 $291 $292 $293 reversed $115 $-1 #
face $-1 $-1 $294 $63 $-1 $295 forward single #
loop $-1 $296 $297 $117 #
cone-surface $-1 20.570557190047282 -19.536420200869713 4.1972373832014807 0 0.80901700255871778 -0.5877852410284794 0.5 0 0 1 I I -0.70710678118654746 0.70710678118654746 0.5 forward I I I I #
loop $-1 $-1 $298 $81 #
coedge $-1 $188 $188 $299 $300 reversed $118 $-1 #
face $-1 $-1 $301 $64 $-1 $302 forward single #
loop $-1 $303 $304 $120 #
cone-surface $-1 24.73553120065985 -19.536420200869713 4.1972373832014807 0 0.80901700255871778 -0.5877852410284794 0.5 0 0 1 I I -0.70710678118654746 0.70710678118654746 0.5 forward I I I I #
loop $-1 $-1 $305 $82 #
coedge $-1 $193 $193 $306 $307 reversed $121 $-1 #
face $-1 $308 $309 $65 $-1 $310 reversed single #
loop $-1 $-1 $311 $123 #
plane-surface $-1 40.848456029539925 -106.68383801616865 60.812849181368094 1 0 0 0 0.80901700255871778 -0.5877852410284794 forward_v I I I I #
coedge $-1 $312 $313 $314 $315 reversed $124 $-1 #
face $-1 $-1 $316 $66 $-1 $317 forward single #
loop $-1 $318 $319 $126 #
cone-surface $-1 43.625105369948301 -19.536420200869713 4.1972373832014807 0 0.80901700255871778 -0.5877852410284794 0.5 0 0 1 I I -0.70710678118654746 0.70710678118654746 0.5 forward I I I I #
loop $-1 $-1 $320 $84 #
coedge $-1 $202 $202 $321 $322 reversed $127 $-1 #
face $-1 $-1 $323 $67 $-1 $324 forward single #
loop $-1 $325 $326 $129 #
cone-surface $-1 47.790079380560869 -19.536420200869713 4.1972373832014807 0 0.80901700255871778 -0.5877852410284794 0.5 0 0 1 I I -0.70710678118654746 0.70710678118654746 0.5 forward I I I I #
loop $-1 $-1 $327 $85 #
coedge $-1 $207 $207 $328 $329 reversed $130 $-1 #
face $-1 $330 $331 $68 $-1 $332 reversed single #
loop $-1 $-1 $333 $132 #
plane-surface $-1 -14.982643757005164 -13.782552278379193 37.548048250651377 0 0.62932039886446345 0.77714595512881146 1 0 0 forward_v I I I I #
coedge $-1 $334 $335 $336 $337 reversed $133 $-1 #
face $-1 $-1 $338 $69 $-1 $339 forward single #
loop $-1 $340 $341 $135 #
cone-surface $-1 -14.982643757005164 20.917770458196539 6.285259851682758 0 -0.62932039886446345 -0.77714595512881146 0.5 0 0 1 I I -0.70710678118654691 0.70710678118654813 0.5 forward I I I I #
loop $-1 $-1 $342 $87 #
coedge $-1 $216 $216 $343 $344 reversed $136 $-1 #
face $-1 $345 $346 $70 $-1 $347 reversed single #
loop $-1 $-1 $348 $138 #
plane-surface $-1 23.897908479339591 -13.782552278379193 37.548048250651377 0 0.62932039886446345 0.77714595512881146 1 0 0 forward_v I I I I #
coedge $-1 $349 $350 $351 $352 reversed $139 $-1 #
face $-1 $-1 $353 $71 $-1 $354 forward single #
loop $-1 $355 $356 $141 #
cone-surface $-1 23.897908479339591 20.917770458196539 6.285259851682758 0 -0.62932039886446345 -0.77714595512881146 0.5 0 0 1 I I -0.70710678118654691 0.70710678118654813 0.5 forward I I I I #
loop $-1 $-1 $357 $89 #
coedge $-1 $225 $225 $358 $359 reversed $142 $-1 #
face $-1 $360 $361 $54 $-1 $362 reversed single #
loop $-1 $-1 $363 $144 #
plane-surface $-1 0 -24.865151418091902 0 0 1 0 0 0 1 forward_v I I I I #
coedge $-1 $364 $365 $366 $367 forward $145 $-1 #
coedge $-1 $368 $147 $369 $370 forward $91 $-1 #
coedge $-1 $147 $368 $371 $372 forward $91 $-1 #
coedge $-1 $373 $374 $147 $233 reversed $375 $-1 #
edge $-1 $376 -24.865151418091902 $377 24.865151418091902 $232 $378 forward 7 unknown #
face $-1 $379 $380 $55 $-1 $381 reversed single #
loop $-1 $-1 $382 $148 #
plane-surface $-1 -41.651463998634824 -8.8115327702259201 0 -1 0 0 0 0 1 forward_v I I I I #
coedge $-1 $383 $384 $385 $386 forward $149 $-1 #
coedge $-1 $387 $151 $388 $389 reversed $94 $-1 #
coedge $-1 $151 $387 $390 $391 reversed $94 $-1 #
coedge $-1 $392 $393 $151 $241 forward $394 $-1 #
edge $-1 $395 -10.139414874354587 $396 10.139414874354587 $240 $397 forward 7 unknown #
face $-1 $398 $399 $56 $-1 $400 reversed single #
loop $-1 $-1 $401 $152 #
plane-surface $-1 -28.315188510163139 -106.68383801616865 60.812849181368094 1 0 0 0 0.80901700255871778 -0.5877852410284794 forward_v I I I I #
coedge $-1 $402 $403 $404 $405 reversed $153 $-1 #
coedge $-1 $247 $155 $406 $407 reversed $97 $-1 #
coedge $-1 $155 $246 $402 $408 reversed $97 $-1 #
coedge $-1 $404 $409 $155 $249 forward $410 $-1 #
edge $-1 $411 28.476767589992424 $412 34.84950393901422 $248 $413 forward 7 unknown #
loop $-1 $-1 $255 $156 #
plane-surface $-1 -23.456052164448472 -24.865151418091884 1.3680955228147909 0 -0.80901700255871778 0.5877852410284794 1 0 0 forward_v I I I I #
loop $-1 $-1 $414 $99 #
coedge $-1 $253 $253 $254 $415 reversed $157 $-1 #
coedge $-1 $254 $254 $253 $415 forward $159 $-1 #
coedge $-1 $255 $255 $160 $256 forward $250 $-1 #
edge $-1 $416 2.6968665012189657e-016 $416 6.2831853071796004 $255 $417 forward 7 unknown #
loop $-1 $-1 $262 $161 #
plane-surface $-1 -23.456052164448472 -24.865151418091884 1.3680955228147909 0 -0.80901700255871778 0.5877852410284794 1 0 0 forward_v I I I I #
loop $-1 $-1 $418 $102 #
coedge $-1 $260 $260 $261 $419 reversed $162 $-1 #
coedge $-1 $261 $261 $260 $419 forward $164 $-1 #
coedge $-1 $262 $262 $165 $263 forward $257 $-1 #
edge $-1 $420 2.6968665012189657e-016 $420 6.2831853071796004 $262 $421 forward 7 unknown #
face $-1 $422 $423 $59 $-1 $424 reversed single #
loop $-1 $-1 $425 $166 #
plane-surface $-1 -5.2606403302621132 -106.68383801616865 60.812849181368094 1 0 0 0 0.80901700255871778 -0.5877852410284794 forward_v I I I I #
coedge $-1 $426 $427 $428 $429 reversed $167 $-1 #
coedge $-1 $269 $169 $430 $431 reversed $106 $-1 #
coedge $-1 $169 $268 $426 $432 reversed $106 $-1 #
coedge $-1 $428 $433 $169 $271 forward $434 $-1 #
edge $-1 $435 28.476767589992424 $436 34.84950393901422 $270 $437 forward 7 unknown #
loop $-1 $-1 $277 $170 #
plane-surface $-1 -0.40150398454744618 -24.865151418091884 1.3680955228147909 0 -0.80901700255871778 0.5877852410284794 1 0 0 forward_v I I I I #
loop $-1 $-1 $438 $108 #
coedge $-1 $275 $275 $276 $439 reversed $171 $-1 #
coedge $-1 $276 $276 $275 $439 forward $173 $-1 #
coedge $-1 $277 $277 $174 $278 forward $272 $-1 #
edge $-1 $440 2.6968665012189657e-016 $440 6.2831853071796004 $277 $441 forward 7 unknown #
loop $-1 $-1 $284 $175 #
plane-surface $-1 -0.40150398454744618 -24.865151418091884 1.3680955228147909 0 -0.80901700255871778 0.5877852410284794 1 0 0 forward_v I I I I #
loop $-1 $-1 $442 $111 #
coedge $-1 $282 $282 $283 $443 reversed $176 $-1 #
coedge $-1 $283 $283 $282 $443 forward $178 $-1 #
coedge $-1 $284 $284 $179 $285 forward $279 $-1 #
edge $-1 $444 2.6968665012189657e-016 $444 6.2831853071796004 $284 $445 forward 7 unknown #
face $-1 $446 $447 $62 $-1 $448 reversed single #
loop $-1 $-1 $449 $180 #
plane-surface $-1 17.793907849638906 -106.68383801616865 60.812849181368094 1 0 0 0 0.80901700255871778 -0.5877852410284794 forward_v I I I I #
coedge $-1 $450 $451 $452 $453 reversed $181 $-1 #
coedge $-1 $291 $183 $454 $455 reversed $115 $-1 #
coedge $-1 $183 $290 $450 $456 reversed $115 $-1 #
coedge $-1 $452 $457 $183 $293 forward $458 $-1 #
edge $-1 $459 28.476767589992424 $460 34.84950393901422 $292 $461 forward 7 unknown #
loop $-1 $-1 $299 $184 #
plane-surface $-1 22.653044195353573 -24.865151418091884 1.3680955228147909 0 -0.80901700255871778 0.5877852410284794 1 0 0 forward_v I I I I #
loop $-1 $-1 $462 $117 #
coedge $-1 $297 $297 $298 $463 reversed $185 $-1 #
coedge $-1 $298 $298 $297 $463 forward $187 $-1 #
coedge $-1 $299 $299 $188 $300 forward $294 $-1 #
edge $-1 $464 2.6968665012189657e-016 $464 6.2831853071796004 $299 $465 forward 7 unknown #
loop $-1 $-1 $306 $189 #
plane-surface $-1 22.653044195353573 -24.865151418091884 1.3680955228147909 0 -0.80901700255871778 0.5877852410284794 1 0 0 forward_v I I I I #
loop $-1 $-1 $466 $120 #
coedge $-1 $304 $304 $305 $467 reversed $190 $-1 #
coedge $-1 $305 $305 $304 $467 forward $192 $-1 #
coedge $-1 $306 $306 $193 $307 forward $301 $-1 #
edge $-1 $468 2.6968665012189657e-016 $468 6.2831853071796004 $306 $469 forward 7 unknown #
face $-1 $470 $471 $65 $-1 $472 forward single #
loop $-1 $-1 $473 $194 #
plane-surface $-1 0 -24.865151418091902 0 0 1 0 0 0 1 forward_v I I I I #
coedge $-1 $474 $475 $476 $477 reversed $195 $-1 #
coedge $-1 $478 $197 $479 $480 reversed $124 $-1 #
coedge $-1 $197 $478 $474 $481 forward $124 $-1 #
coedge $-1 $476 $482 $197 $315 forward $471 $-1 #
edge $-1 $483 -27.712932533341963 $484 -17.994659841912629 $314 $485 forward 7 unknown #
loop $-1 $-1 $321 $198 #
plane-surface $-1 45.707592375254592 -24.865151418091884 1.3680955228147909 0 -0.80901700255871778 0.5877852410284794 1 0 0 forward_v I I I I #
loop $-1 $-1 $486 $126 #
coedge $-1 $319 $319 $320 $487 reversed $199 $-1 #
coedge $-1 $320 $320 $319 $487 forward $201 $-1 #
coedge $-1 $321 $321 $202 $322 forward $316 $-1 #
edge $-1 $488 2.6968665012189657e-016 $488 6.2831853071796004 $321 $489 forward 7 unknown #
loop $-1 $-1 $328 $203 #
plane-surface $-1 45.707592375254592 -24.865151418091884 1.3680955228147909 0 -0.80901700255871778 0.5877852410284794 1 0 0 forward_v I I I I #
loop $-1 $-1 $490 $129 #
coedge $-1 $326 $326 $327 $491 reversed $204 $-1 #
coedge $-1 $327 $327 $326 $491 forward $206 $-1 #
coedge $-1 $328 $328 $207 $329 forward $323 $-1 #
edge $-1 $492 2.6968665012189657e-016 $492 6.2831853071796004 $328 $493 forward 7 unknown #
face $-1 $494 $495 $68 $-1 $496 forward single #
loop $-1 $-1 $497 $208 #
plane-surface $-1 -6.3511368701559014 49.862795497523805 116.14350562984571 -1 0 0 0 0.62932039886446345 0.77714595512881146 forward_v I I I I #
coedge $-1 $498 $499 $500 $501 reversed $209 $-1 #
coedge $-1 $335 $211 $502 $503 reversed $133 $-1 #
coedge $-1 $211 $334 $498 $504 reversed $133 $-1 #
coedge $-1 $500 $505 $211 $337 forward $495 $-1 #
edge $-1 $506 0.066246330670001186 $507 4.8671073021445466 $336 $508 forward 7 unknown #
loop $-1 $-1 $343 $212 #
plane-surface $-1 -14.982643757005164 -13.782552278379193 37.548048250651377 0 0.62932039886446345 0.77714595512881146 1 0 0 forward_v I I I I #
loop $-1 $-1 $509 $135 #
coedge $-1 $341 $341 $342 $510 reversed $213 $-1 #
coedge $-1 $342 $342 $341 $510 forward $215 $-1 #
coedge $-1 $343 $343 $216 $344 forward $338 $-1 #
edge $-1 $511 6.7533843063698478e-017 $511 6.2831853071796004 $343 $512 forward 7 unknown #
face $-1 $513 $514 $70 $-1 $515 forward single #
loop $-1 $-1 $516 $217 #
plane-surface $-1 32.529415366188857 49.862795497523805 116.14350562984571 -1 0 0 0 0.62932039886446345 0.77714595512881146 forward_v I I I I #
coedge $-1 $517 $518 $519 $520 reversed $218 $-1 #
coedge $-1 $350 $220 $521 $522 reversed $139 $-1 #
coedge $-1 $220 $349 $517 $523 reversed $139 $-1 #
coedge $-1 $519 $524 $220 $352 forward $514 $-1 #
edge $-1 $525 0.066246330670001186 $526 4.8671073021445466 $351 $527 forward 7 unknown #
loop $-1 $-1 $358 $221 #
plane-surface $-1 23.897908479339591 -13.782552278379193 37.548048250651377 0 0.62932039886446345 0.77714595512881146 1 0 0 forward_v I I I I #
loop $-1 $-1 $528 $141 #
coedge $-1 $356 $356 $357 $529 reversed $222 $-1 #
coedge $-1 $357 $357 $356 $529 forward $224 $-1 #
coedge $-1 $358 $358 $225 $359 forward $353 $-1 #
edge $-1 $530 6.7533843063698478e-017 $530 6.2831853071796004 $358 $531 forward 7 unknown #
face $-1 $532 $533 $54 $-1 $534 reversed single #
loop $-1 $-1 $535 $226 #
plane-surface $-1 -50.566728720969266 0 0 1 0 0 0 0 -1 forward_v I I I I #
coedge $-1 $536 $371 $537 $538 forward $227 $-1 #
coedge $-1 $539 $229 $536 $540 forward $145 $-1 #
coedge $-1 $229 $539 $541 $542 forward $145 $-1 #
coedge $-1 $374 $373 $229 $367 reversed $375 $-1 #
edge $-1 $543 -24.865151418091902 $544 24.865151418091902 $366 $545 forward 7 unknown #
coedge $-1 $231 $230 $546 $547 forward $91 $-1 #
coedge $-1 $548 $549 $230 $370 reversed $533 $-1 #
edge $-1 $377 -50.566728720969266 $550 50.566728720969266 $369 $551 forward 7 unknown #
coedge $-1 $363 $552 $231 $372 reversed $227 $-1 #
edge $-1 $553 -50.566728720969266 $376 50.566728720969266 $371 $554 forward 7 unknown #
coedge $-1 $366 $232 $552 $555 forward $375 $-1 #
coedge $-1 $232 $366 $548 $556 reversed $375 $-1 #
loop $-1 $-1 $373 $532 #
vertex $-1 $233 $557 #
vertex $-1 $233 $558 #
straight-curve $-1 50.566728720969266 0 10.139414874354587 0 1 0 I I #
face $-1 $559 $560 $55 $-1 $561 forward single #
loop $-1 $-1 $562 $234 #
plane-surface $-1 0 0 -10.139414874354587 0 0 1 1 0 0 forward_v I I I I #
coedge $-1 $563 $564 $387 $565 forward $235 $-1 #
coedge $-1 $566 $237 $562 $567 reversed $149 $-1 #
coedge $-1 $237 $566 $568 $569 reversed $149 $-1 #
coedge $-1 $564 $563 $237 $386 reversed $235 $-1 #
edge $-1 $570 -10.139414874354587 $571 10.139414874354587 $385 $572 forward 7 unknown #
coedge $-1 $239 $238 $382 $565 reversed $94 $-1 #
coedge $-1 $573 $574 $238 $389 forward $380 $-1 #
edge $-1 $575 18.596915818733802 $395 27.512180541068243 $388 $576 forward 7 unknown #
coedge $-1 $577 $578 $239 $391 forward $560 $-1 #
edge $-1 $396 -27.512180541068243 $579 -18.596915818733802 $390 $580 forward 7 unknown #
coedge $-1 $581 $240 $578 $582 reversed $394 $-1 #
coedge $-1 $240 $581 $573 $583 reversed $394 $-1 #
loop $-1 $-1 $581 $559 #
vertex $-1 $583 $584 #
vertex $-1 $241 $585 #
straight-curve $-1 -50.566728720969266 -10.31153277022592 0 0 0 1 I I #
face $-1 $-1 $410 $56 $-1 $586 forward single #
loop $-1 $-1 $587 $242 #
plane-surface $-1 0 -24.865151418091902 0 0 1 0 0 0 1 forward_v I I I I #
coedge $-1 $588 $589 $590 $591 reversed $243 $-1 #
coedge $-1 $592 $245 $247 $408 forward $153 $-1 #
coedge $-1 $245 $592 $588 $593 forward $153 $-1 #
coedge $-1 $590 $248 $245 $405 forward $410 $-1 #
edge $-1 $412 6.8688897365095691 $594 16.587162427938903 $404 $595 forward 7 unknown #
coedge $-1 $596 $597 $246 $407 forward $399 $-1 #
edge $-1 $598 -29.038329067869281 $411 -20.267009716329461 $406 $599 forward 7 unknown #
edge $-1 $412 -10.84194686118872 $598 3.0201328008180829e-014 $247 $600 forward 7 unknown #
coedge $-1 $248 $590 $596 $601 forward $410 $-1 #
loop $-1 $-1 $590 $398 #
vertex $-1 $407 $602 #
vertex $-1 $249 $603 #
straight-curve $-1 -18.596915818733805 -53.341919008084325 10.139414874354586 0 1 0 I I #
coedge $-1 $414 $414 $-1 $604 reversed $252 $-1 #
edge $-1 $605 0 $605 6.2831853071796004 $253 $606 forward 7 unknown #
vertex $-1 $256 $607 #
ellipse-curve $-1 -25.53853916975476 -21.678783243581002 5.7537551985846802 0 -0.80901700255871778 0.5877852410284794 1 0 0 1 I I #
coedge $-1 $418 $418 $-1 $608 reversed $259 $-1 #
edge $-1 $609 0 $609 6.2831853071796004 $260 $610 forward 7 unknown #
vertex $-1 $263 $611 #
ellipse-curve $-1 -21.373565159142188 -21.678783243581002 5.7537551985846802 0 -0.80901700255871778 0.5877852410284794 1 0 0 1 I I #
face $-1 $-1 $434 $59 $-1 $612 forward single #
loop $-1 $-1 $613 $264 #
plane-surface $-1 0 -24.865151418091902 0 0 1 0 0 0 1 forward_v I I I I #
coedge $-1 $614 $615 $616 $617 reversed $265 $-1 #
coedge $-1 $618 $267 $269 $432 forward $167 $-1 #
coedge $-1 $267 $618 $614 $619 forward $167 $-1 #
coedge $-1 $616 $270 $267 $429 forward $434 $-1 #
edge $-1 $436 -4.6583843534409439 $620 5.0598883379883901 $428 $621 forward 7 unknown #
coedge $-1 $622 $623 $268 $431 forward $423 $-1 #
edge $-1 $624 -29.038329067869281 $435 -20.267009716329461 $430 $625 forward 7 unknown #
edge $-1 $436 -10.84194686118872 $624 3.0201328008180829e-014 $269 $626 forward 7 unknown #
coedge $-1 $270 $616 $622 $627 forward $434 $-1 #
loop $-1 $-1 $616 $422 #
vertex $-1 $431 $628 #
vertex $-1 $271 $629 #
straight-curve $-1 4.4576323611672208 -53.341919008084325 10.139414874354586 0 1 0 I I #
coedge $-1 $438 $438 $-1 $630 reversed $274 $-1 #
edge $-1 $631 0 $631 6.2831853071796004 $275 $632 forward 7 unknown #
vertex $-1 $278 $633 #
ellipse-curve $-1 -2.4839909898537371 -21.678783243581002 5.7537551985846802 0 -0.80901700255871778 0.5877852410284794 1 0 0 1 I I #
coedge $-1 $442 $442 $-1 $634 reversed $281 $-1 #
edge $-1 $635 0 $635 6.2831853071796004 $282 $636 forward 7 unknown #
vertex $-1 $285 $637 #
ellipse-curve $-1 1.6809830207588305 -21.678783243581002 5.7537551985846802 0 -0.80901700255871778 0.5877852410284794 1 0 0 1 I I #
face $-1 $-1 $458 $62 $-1 $638 forward single #
loop $-1 $-1 $639 $286 #
plane-surface $-1 0 -24.865151418091902 0 0 1 0 0 0 1 forward_v I I I I #
coedge $-1 $640 $641 $642 $643 reversed $287 $-1 #
coedge $-1 $644 $289 $291 $456 forward $181 $-1 #
coedge $-1 $289 $644 $640 $645 forward $181 $-1 #
coedge $-1 $642 $292 $289 $453 forward $458 $-1 #
edge $-1 $460 -16.185658443391453 $646 -6.4673857519621194 $452 $647 forward 7 unknown #
coedge $-1 $648 $649 $290 $455 forward $447 $-1 #
edge $-1 $650 -29.038329067869281 $459 -20.267009716329461 $454 $651 forward 7 unknown #
edge $-1 $460 -10.84194686118872 $650 3.0201328008180829e-014 $291 $652 forward 7 unknown #
coedge $-1 $292 $642 $648 $653 forward $458 $-1 #
loop $-1 $-1 $642 $446 #
vertex $-1 $455 $654 #
vertex $-1 $293 $655 #
straight-curve $-1 27.51218054106824 -53.341919008084325 10.139414874354586 0 1 0 I I #
coedge $-1 $462 $462 $-1 $656 reversed $296 $-1 #
edge $-1 $657 0 $657 6.2831853071796004 $297 $658 forward 7 unknown #
vertex $-1 $300 $659 #
ellipse-curve $-1 20.570557190047282 -21.678783243581002 5.7537551985846802 0 -0.80901700255871778 0.5877852410284794 1 0 0 1 I I #
coedge $-1 $466 $466 $-1 $660 reversed $303 $-1 #
edge $-1 $661 0 $661 6.2831853071796004 $304 $662 forward 7 unknown #
vertex $-1 $307 $663 #
ellipse-curve $-1 24.73553120065985 -21.678783243581002 5.7537551985846802 0 -0.80901700255871778 0.5877852410284794 1 0 0 1 I I #
face $-1 $-1 $664 $65 $-1 $665 reversed single #
loop $-1 $-1 $476 $308 #
plane-surface $-1 0 0 10.139414874354587 0 0 1 1 0 0 forward_v I I I I #
coedge $-1 $666 $667 $475 $668 forward $309 $-1 #
coedge $-1 $475 $311 $313 $481 reversed $195 $-1 #
coedge $-1 $311 $474 $473 $668 reversed $195 $-1 #
coedge $-1 $669 $314 $311 $477 forward $471 $-1 #
edge $-1 $484 -34.84950393901422 $670 -28.476767589992424 $476 $671 forward 7 unknown #
coedge $-1 $313 $312 $666 $672 reversed $124 $-1 #
coedge $-1 $673 $674 $312 $480 forward $664 $-1 #
edge $-1 $675 -6.7542782402056041 $483 4.0876686209831457 $479 $676 forward 7 unknown #
edge $-1 $677 -3.0201328008180829e-014 $484 10.84194686118872 $474 $678 forward 7 unknown #
coedge $-1 $314 $669 $673 $679 forward $471 $-1 #
vertex $-1 $480 $680 #
vertex $-1 $315 $681 #
straight-curve $-1 22.853796187627296 -18.492415069070109 10.139414874354587 -1 0 0 I I #
coedge $-1 $486 $486 $-1 $682 reversed $318 $-1 #
edge $-1 $683 0 $683 6.2831853071796004 $319 $684 forward 7 unknown #
vertex $-1 $322 $685 #
ellipse-curve $-1 43.625105369948301 -21.678783243581002 5.7537551985846802 0 -0.80901700255871778 0.5877852410284794 1 0 0 1 I I #
coedge $-1 $490 $490 $-1 $686 reversed $325 $-1 #
edge $-1 $687 0 $687 6.2831853071796004 $326 $688 forward 7 unknown #
vertex $-1 $329 $689 #
ellipse-curve $-1 47.790079380560869 -21.678783243581002 5.7537551985846802 0 -0.80901700255871778 0.5877852410284794 1 0 0 1 I I #
face $-1 $-1 $690 $68 $-1 $691 reversed single #
loop $-1 $-1 $336 $330 #
plane-surface $-1 0 0 10.139414874354587 0 0 1 1 0 0 forward_v I I I I #
coedge $-1 $692 $693 $694 $695 reversed $331 $-1 #
coedge $-1 $696 $333 $335 $504 forward $209 $-1 #
coedge $-1 $333 $696 $692 $697 forward $209 $-1 #
coedge $-1 $694 $336 $333 $501 forward $495 $-1 #
edge $-1 $507 -16.122828765351844 $698 1.1401850083466805 $500 $699 forward 7 unknown #
coedge $-1 $700 $701 $334 $503 forward $690 $-1 #
edge $-1 $702 -51.819998580789218 $506 -47.932337940568267 $502 $703 forward 7 unknown #
edge $-1 $507 43.55274900631305 $702 49.730302836183796 $335 $704 forward 7 unknown #
coedge $-1 $336 $694 $700 $705 forward $495 $-1 #
vertex $-1 $503 $706 #
vertex $-1 $337 $707 #
straight-curve $-1 -23.614150643854426 24.931397748761903 10.139414874354586 0 -1 0 I I #
coedge $-1 $509 $509 $-1 $708 reversed $340 $-1 #
edge $-1 $709 0 $709 6.2831853071796004 $341 $710 forward 7 unknown #
vertex $-1 $344 $711 #
ellipse-curve $-1 -14.982643757005164 22.46472093235462 8.1955845542441157 0 0.62932039886446345 0.77714595512881146 1 0 0 1 I I #
face $-1 $-1 $712 $70 $-1 $713 reversed single #
loop $-1 $-1 $351 $345 #
plane-surface $-1 0 0 10.139414874354587 0 0 1 1 0 0 forward_v I I I I #
coedge $-1 $714 $715 $716 $717 reversed $346 $-1 #
coedge $-1 $718 $348 $350 $523 forward $218 $-1 #
coedge $-1 $348 $718 $714 $719 forward $218 $-1 #
coedge $-1 $716 $351 $348 $520 forward $514 $-1 #
edge $-1 $526 3.3174473528205333 $720 20.580461126519062 $519 $721 forward 7 unknown #
coedge $-1 $722 $723 $349 $522 forward $712 $-1 #
edge $-1 $724 -51.819998580789218 $525 -47.932337940568267 $521 $725 forward 7 unknown #
edge $-1 $526 43.55274900631305 $724 49.730302836183796 $350 $726 forward 7 unknown #
coedge $-1 $351 $716 $722 $727 forward $514 $-1 #
vertex $-1 $352 $728 #
vertex $-1 $352 $729 #
straight-curve $-1 15.266401592490329 24.931397748761903 10.139414874354586 0 -1 0 I I #
coedge $-1 $528 $528 $-1 $730 reversed $355 $-1 #
edge $-1 $731 0 $731 6.2831853071796004 $356 $732 forward 7 unknown #
vertex $-1 $359 $733 #
ellipse-curve $-1 23.897908479339591 22.46472093235462 8.1955845542441157 0 0.62932039886446345 0.77714595512881146 1 0 0 1 I I #
face $-1 $-1 $375 $54 $-1 $734 reversed single #
loop $-1 $-1 $548 $360 #
plane-surface $-1 0 24.865151418091902 0 0 -1 0 0 0 -1 forward_v I I I I #
coedge $-1 $735 $546 $549 $736 forward $361 $-1 #
coedge $-1 $552 $363 $364 $540 reversed $227 $-1 #
coedge $-1 $546 $735 $363 $538 reversed $361 $-1 #
edge $-1 $553 -10.139414874354587 $737 10.139414874354587 $537 $738 forward 7 unknown #
coedge $-1 $365 $364 $735 $739 forward $145 $-1 #
edge $-1 $544 -50.566728720969266 $737 50.566728720969266 $536 $740 forward 7 unknown #
coedge $-1 $549 $548 $365 $542 reversed $533 $-1 #
edge $-1 $741 -50.566728720969266 $543 50.566728720969266 $541 $742 forward 7 unknown #
vertex $-1 $367 $743 #
vertex $-1 $555 $744 #
straight-curve $-1 50.566728720969266 0 -10.139414874354587 0 -1 0 I I #
coedge $-1 $535 $537 $368 $547 reversed $361 $-1 #
edge $-1 $550 -24.865151418091902 $553 24.865151418091902 $546 $745 forward 7 unknown #
coedge $-1 $541 $369 $374 $556 forward $533 $-1 #
coedge $-1 $369 $541 $535 $736 reversed $533 $-1 #
vertex $-1 $370 $746 #
straight-curve $-1 0 24.865151418091902 10.139414874354587 -1 0 0 I I #
coedge $-1 $371 $536 $373 $555 reversed $227 $-1 #
vertex $-1 $547 $747 #
straight-curve $-1 0 -24.865151418091902 10.139414874354587 1 0 0 I I #
edge $-1 $376 -10.139414874354587 $544 10.139414874354587 $373 $748 forward 7 unknown #
edge $-1 $377 -10.139414874354587 $543 10.139414874354587 $374 $749 forward 7 unknown #
point $-1 50.566728720969266 -24.865151418091902 10.139414874354587 #
point $-1 50.566728720969266 24.865151418091902 10.139414874354587 #
face $-1 $-1 $394 $55 $-1 $750 reversed single #
loop $-1 $-1 $568 $379 #
plane-surface $-1 0 0 10.139414874354587 0 0 1 1 0 0 forward_v I I I I #
coedge $-1 $574 $573 $383 $567 forward $380 $-1 #
coedge $-1 $385 $382 $574 $751 reversed $235 $-1 #
coedge $-1 $382 $385 $577 $752 reversed $235 $-1 #
edge $-1 $579 -10.139414874354587 $575 10.139414874354587 $382 $753 forward 7 unknown #
coedge $-1 $384 $383 $581 $754 reversed $149 $-1 #
edge $-1 $755 -27.512180541068243 $571 -18.596915818733802 $562 $756 forward 7 unknown #
coedge $-1 $578 $577 $384 $569 forward $560 $-1 #
edge $-1 $570 18.596915818733802 $757 27.512180541068243 $568 $758 forward 7 unknown #
vertex $-1 $569 $759 #
vertex $-1 $567 $760 #
straight-curve $-1 -41.651463998634824 -7.3115327702259192 0 0 0 -1 I I #
coedge $-1 $562 $388 $393 $583 forward $380 $-1 #
coedge $-1 $388 $562 $563 $751 forward $380 $-1 #
vertex $-1 $389 $761 #
straight-curve $-1 -23.054548179901023 -10.31153277022592 -10.139414874354587 -1 0 0 I I #
coedge $-1 $568 $390 $564 $752 forward $560 $-1 #
coedge $-1 $390 $568 $392 $582 forward $560 $-1 #
vertex $-1 $391 $762 #
straight-curve $-1 -23.054548179901023 -10.31153277022592 10.139414874354587 1 0 0 I I #
coedge $-1 $393 $392 $566 $754 forward $394 $-1 #
edge $-1 $757 7.3115327702259192 $396 10.31153277022592 $392 $763 forward 7 unknown #
edge $-1 $395 -10.31153277022592 $755 -7.3115327702259192 $393 $764 forward 7 unknown #
point $-1 -50.566728720969266 -10.31153277022592 -10.139414874354587 #
point $-1 -50.566728720969266 -10.31153277022592 10.139414874354587 #
plane-surface $-1 0 0 10.139414874354587 0 0 1 1 0 0 forward_v I I I I #
coedge $-1 $597 $596 $589 $765 forward $399 $-1 #
coedge $-1 $589 $401 $403 $593 reversed $243 $-1 #
coedge $-1 $401 $588 $587 $765 reversed $243 $-1 #
coedge $-1 $409 $404 $401 $591 forward $410 $-1 #
edge $-1 $594 -34.84950393901422 $766 -28.476767589992424 $590 $767 forward 7 unknown #
coedge $-1 $403 $402 $597 $768 reversed $153 $-1 #
edge $-1 $769 -3.0201328008180829e-014 $594 10.84194686118872 $588 $770 forward 7 unknown #
vertex $-1 $405 $771 #
straight-curve $-1 -11.728026082224236 -18.492415069070109 10.139414874354587 -1 0 0 I I #
coedge $-1 $587 $406 $409 $601 reversed $399 $-1 #
coedge $-1 $406 $587 $592 $768 forward $399 $-1 #
vertex $-1 $407 $772 #
straight-curve $-1 -18.596915818733805 -24.865151418091898 30.406424590684047 0 0 1 I I #
straight-curve $-1 -18.596915818733805 -24.865151418091884 1.3680955228147909 0 -0.5877852410284794 -0.80901700255871778 I I #
edge $-1 $766 -28.315188510163139 $411 -18.596915818733805 $596 $773 forward 7 unknown #
point $-1 -18.596915818733805 -24.865151418091902 10.139414874354587 #
point $-1 -18.596915818733805 -18.492415069070105 10.139414874354587 #
edge $-1 $774 1 $774 0 $414 $-1 forward 7 unknown #
vertex $-1 $415 $775 #
ellipse-curve $-1 -25.53853916975476 -19.940928702149073 4.4911300037157202 0 -0.80901700255871778 0.5877852410284794 1 0 0 1 I I #
point $-1 -24.53853916975476 -21.678783243581016 5.7537551985846909 #
edge $-1 $776 1 $776 0 $418 $-1 forward 7 unknown #
vertex $-1 $419 $777 #
ellipse-curve $-1 -21.373565159142188 -19.940928702149073 4.4911300037157202 0 -0.80901700255871778 0.5877852410284794 1 0 0 1 I I #
point $-1 -20.373565159142188 -21.678783243581016 5.7537551985846909 #
plane-surface $-1 0 0 10.139414874354587 0 0 1 1 0 0 forward_v I I I I #
coedge $-1 $623 $622 $615 $778 forward $423 $-1 #
coedge $-1 $615 $425 $427 $619 reversed $265 $-1 #
coedge $-1 $425 $614 $613 $778 reversed $265 $-1 #
coedge $-1 $433 $428 $425 $617 forward $434 $-1 #
edge $-1 $620 -34.84950393901422 $779 -28.476767589992424 $616 $780 forward 7 unknown #
coedge $-1 $427 $426 $623 $781 reversed $167 $-1 #
edge $-1 $782 -3.0201328008180829e-014 $620 10.84194686118872 $614 $783 forward 7 unknown #
vertex $-1 $429 $784 #
straight-curve $-1 -0.20075199227372309 -18.492415069070109 10.139414874354587 -1 0 0 I I #
coedge $-1 $613 $430 $433 $627 reversed $423 $-1 #
coedge $-1 $430 $613 $618 $781 forward $423 $-1 #
vertex $-1 $431 $785 #
straight-curve $-1 4.4576323611672208 -24.865151418091898 30.406424590684047 0 0 1 I I #
straight-curve $-1 4.4576323611672208 -24.865151418091884 1.3680955228147909 0 -0.5877852410284794 -0.80901700255871778 I I #
edge $-1 $779 -5.2606403302621132 $435 4.4576323611672208 $622 $786 forward 7 unknown #
point $-1 4.4576323611672208 -24.865151418091902 10.139414874354587 #
point $-1 4.4576323611672208 -18.492415069070105 10.139414874354587 #
edge $-1 $787 1 $787 0 $438 $-1 forward 7 unknown #
vertex $-1 $439 $788 #
ellipse-curve $-1 -2.4839909898537371 -19.940928702149073 4.4911300037157202 0 -0.80901700255871778 0.5877852410284794 1 0 0 1 I I #
point $-1 -1.4839909898537371 -21.678783243581016 5.7537551985846909 #
edge $-1 $789 1 $789 0 $442 $-1 forward 7 unknown #
vertex $-1 $443 $790 #
ellipse-curve $-1 1.6809830207588305 -19.940928702149073 4.4911300037157202 0 -0.80901700255871778 0.5877852410284794 1 0 0 1 I I #
point $-1 2.6809830207588305 -21.678783243581016 5.7537551985846909 #
plane-surface $-1 0 0 10.139414874354587 0 0 1 1 0 0 forward_v I I I I #
coedge $-1 $649 $648 $641 $791 forward $447 $-1 #
coedge $-1 $641 $449 $451 $645 reversed $287 $-1 #
coedge $-1 $449 $640 $639 $791 reversed $287 $-1 #
coedge $-1 $457 $452 $449 $643 forward $458 $-1 #
edge $-1 $646 -34.84950393901422 $792 -28.476767589992424 $642 $793 forward 7 unknown #
coedge $-1 $451 $450 $649 $794 reversed $181 $-1 #
edge $-1 $795 -3.0201328008180829e-014 $646 10.84194686118872 $640 $796 forward 7 unknown #
vertex $-1 $453 $797 #
straight-curve $-1 11.326522097676786 -18.492415069070109 10.139414874354587 -1 0 0 I I #
coedge $-1 $639 $454 $457 $653 reversed $447 $-1 #
coedge $-1 $454 $639 $644 $794 forward $447 $-1 #
vertex $-1 $455 $798 #
straight-curve $-1 27.51218054106824 -24.865151418091898 30.406424590684047 0 0 1 I I #
straight-curve $-1 27.51218054106824 -24.865151418091884 1.3680955228147909 0 -0.5877852410284794 -0.80901700255871778 I I #
edge $-1 $792 17.793907849638906 $459 27.51218054106824 $648 $799 forward 7 unknown #
point $-1 27.51218054106824 -24.865151418091902 10.139414874354587 #
point $-1 27.51218054106824 -18.492415069070105 10.139414874354587 #
edge $-1 $800 1 $800 0 $462 $-1 forward 7 unknown #
vertex $-1 $463 $801 #
ellipse-curve $-1 20.570557190047282 -19.940928702149073 4.4911300037157202 0 -0.80901700255871778 0.5877852410284794 1 0 0 1 I I #
point $-1 21.570557190047282 -21.678783243581016 5.7537551985846909 #
edge $-1 $802 1 $802 0 $466 $-1 forward 7 unknown #
vertex $-1 $467 $803 #
ellipse-curve $-1 24.73553120065985 -19.940928702149073 4.4911300037157202 0 -0.80901700255871778 0.5877852410284794 1 0 0 1 I I #
point $-1 25.73553120065985 -21.678783243581016 5.7537551985846909 #
loop $-1 $-1 $479 $470 #
plane-surface $-1 50.566728720969266 0 0 -1 0 0 0 0 1 forward_v I I I I #
coedge $-1 $804 $473 $478 $672 forward $309 $-1 #
coedge $-1 $473 $804 $669 $805 reversed $309 $-1 #
edge $-1 $670 20.267009716329461 $677 29.038329067869281 $473 $806 forward 7 unknown #
coedge $-1 $482 $476 $667 $805 forward $471 $-1 #
vertex $-1 $805 $807 #
straight-curve $-1 40.848456029539925 -53.341919008084325 10.139414874354586 0 -1 0 I I #
edge $-1 $677 17.994659841912629 $675 27.712932533341963 $666 $808 forward 7 unknown #
coedge $-1 $674 $479 $482 $679 reversed $664 $-1 #
coedge $-1 $479 $673 $804 $809 forward $664 $-1 #
vertex $-1 $672 $810 #
straight-curve $-1 50.566728720969266 -20.895086354699238 6.8324214591534771 0 0.5877852410284794 0.80901700255871778 I I #
vertex $-1 $672 $811 #
straight-curve $-1 40.848456029539925 -24.865151418091884 1.3680955228147909 0 0.5877852410284794 0.80901700255871778 I I #
edge $-1 $812 -24.865151418091902 $483 -18.492415069070105 $673 $813 forward 7 unknown #
point $-1 50.566728720969259 -18.492415069070105 10.139414874354587 #
point $-1 40.848456029539925 -18.492415069070105 10.139414874354587 #
edge $-1 $814 1 $814 0 $486 $-1 forward 7 unknown #
vertex $-1 $487 $815 #
ellipse-curve $-1 43.625105369948301 -19.940928702149073 4.4911300037157202 0 -0.80901700255871778 0.5877852410284794 1 0 0 1 I I #
point $-1 44.625105369948301 -21.678783243581016 5.7537551985846909 #
edge $-1 $816 1 $816 0 $490 $-1 forward 7 unknown #
vertex $-1 $491 $817 #
ellipse-curve $-1 47.790079380560869 -19.940928702149073 4.4911300037157202 0 -0.80901700255871778 0.5877852410284794 1 0 0 1 I I #
point $-1 48.790079380560869 -21.678783243581016 5.7537551985846909 #
loop $-1 $-1 $502 $494 #
plane-surface $-1 0 24.865151418091902 0 0 -1 0 0 0 -1 forward_v I I I I #
coedge $-1 $693 $497 $499 $697 reversed $331 $-1 #
coedge $-1 $497 $692 $818 $819 reversed $331 $-1 #
coedge $-1 $505 $500 $497 $695 forward $495 $-1 #
edge $-1 $698 -4.8671073021445466 $820 -0.066246330670001186 $694 $821 forward 7 unknown #
coedge $-1 $499 $498 $701 $822 reversed $209 $-1 #
edge $-1 $823 -49.730302836183796 $698 -43.55274900631305 $692 $824 forward 7 unknown #
vertex $-1 $501 $825 #
straight-curve $-1 -7.4913218785025819 20.06429044661736 10.139414874354582 1 0 0 I I #
coedge $-1 $818 $502 $505 $705 reversed $690 $-1 #
coedge $-1 $502 $818 $696 $822 forward $690 $-1 #
vertex $-1 $503 $826 #
straight-curve $-1 -23.614150643854426 24.865151418091902 58.071752814922853 0 0 1 I I #
straight-curve $-1 -23.614150643854426 -13.782552278379193 37.548048250651377 0 0.77714595512881146 -0.62932039886446345 I I #
edge $-1 $820 6.3511368701559014 $506 23.614150643854426 $700 $827 forward 7 unknown #
point $-1 -23.614150643854426 24.865151418091902 10.139414874354587 #
point $-1 -23.614150643854426 20.064290446617356 10.139414874354586 #
edge $-1 $828 1 $828 0 $509 $-1 forward 7 unknown #
vertex $-1 $510 $829 #
ellipse-curve $-1 -14.982643757005164 21.232430657628772 6.6738328292471643 0 0.62932039886446345 0.77714595512881146 1 0 0 1 I I #
point $-1 -13.982643757005164 22.464720932354613 8.1955845542441068 #
loop $-1 $-1 $521 $513 #
plane-surface $-1 0 24.865151418091902 0 0 -1 0 0 0 -1 forward_v I I I I #
coedge $-1 $715 $516 $518 $719 reversed $346 $-1 #
coedge $-1 $516 $714 $830 $831 reversed $346 $-1 #
coedge $-1 $524 $519 $516 $717 forward $514 $-1 #
edge $-1 $720 -4.8671073021445466 $832 -0.066246330670001186 $716 $833 forward 7 unknown #
coedge $-1 $518 $517 $723 $834 reversed $218 $-1 #
edge $-1 $835 -49.730302836183796 $720 -43.55274900631305 $714 $836 forward 7 unknown #
vertex $-1 $520 $837 #
straight-curve $-1 11.948954239669796 20.06429044661736 10.139414874354582 1 0 0 I I #
coedge $-1 $830 $521 $524 $727 reversed $712 $-1 #
coedge $-1 $521 $830 $718 $834 forward $712 $-1 #
vertex $-1 $522 $838 #
straight-curve $-1 15.266401592490329 24.865151418091902 58.071752814922853 0 0 1 I I #
straight-curve $-1 15.266401592490329 -13.782552278379193 37.548048250651377 0 0.77714595512881146 -0.62932039886446345 I I #
edge $-1 $832 -32.529415366188857 $525 -15.266401592490329 $722 $839 forward 7 unknown #
point $-1 15.266401592490329 24.865151418091902 10.139414874354587 #
point $-1 15.266401592490329 20.064290446617356 10.139414874354586 #
edge $-1 $840 1 $840 0 $528 $-1 forward 7 unknown #
vertex $-1 $529 $841 #
ellipse-curve $-1 23.897908479339591 21.232430657628772 6.6738328292471643 0 0.62932039886446345 0.77714595512881146 1 0 0 1 I I #
point $-1 24.897908479339591 22.464720932354613 8.1955845542441068 #
plane-surface $-1 50.566728720969266 0 0 -1 0 0 0 0 1 forward_v I I I I #
coedge $-1 $537 $535 $539 $739 reversed $361 $-1 #
edge $-1 $550 -10.139414874354587 $741 10.139414874354587 $549 $842 forward 7 unknown #
vertex $-1 $739 $843 #
straight-curve $-1 -50.566728720969266 -24.865151418091902 0 0 0 -1 I I #
edge $-1 $737 -24.865151418091902 $741 24.865151418091902 $735 $844 forward 7 unknown #
straight-curve $-1 0 -24.865151418091902 -10.139414874354587 -1 0 0 I I #
vertex $-1 $542 $845 #
straight-curve $-1 0 24.865151418091902 -10.139414874354587 1 0 0 I I #
point $-1 50.566728720969266 24.865151418091902 -10.139414874354587 #
point $-1 50.566728720969266 -24.865151418091902 -10.139414874354587 #
straight-curve $-1 -50.566728720969266 0 10.139414874354587 0 -1 0 I I #
point $-1 -50.566728720969266 24.865151418091902 10.139414874354587 #
point $-1 -50.566728720969266 -24.865151418091902 10.139414874354587 #
straight-curve $-1 50.566728720969266 -24.865151418091902 0 0 0 -1 I I #
straight-curve $-1 50.566728720969266 24.865151418091902 0 0 0 -1 I I #
plane-surface $-1 -50.566728720969266 0 0 1 0 0 0 0 -1 forward_v I I I I #
edge $-1 $571 2.9057663851129591 $575 5.90576638511296 $574 $846 forward 7 unknown #
edge $-1 $579 -5.90576638511296 $570 -2.9057663851129591 $577 $847 forward 7 unknown #
straight-curve $-1 -41.651463998634824 -10.31153277022592 0 0 0 -1 I I #
edge $-1 $757 -10.139414874354587 $755 10.139414874354587 $581 $848 forward 7 unknown #
vertex $-1 $754 $849 #
straight-curve $-1 -23.054548179901023 -7.3115327702259192 -10.139414874354587 1 0 0 I I #
vertex $-1 $582 $850 #
straight-curve $-1 -23.054548179901023 -7.3115327702259192 10.139414874354587 -1 0 0 I I #
point $-1 -41.651463998634824 -7.3115327702259192 10.139414874354587 #
point $-1 -41.651463998634824 -7.3115327702259192 -10.139414874354587 #
point $-1 -41.651463998634824 -10.31153277022592 -10.139414874354587 #
point $-1 -41.651463998634824 -10.31153277022592 10.139414874354587 #
straight-curve $-1 -50.566728720969266 0 10.139414874354587 0 -1 0 I I #
straight-curve $-1 -50.566728720969266 0 -10.139414874354587 0 1 0 I I #
edge $-1 $766 20.267009716329461 $769 29.038329067869281 $587 $851 forward 7 unknown #
vertex $-1 $601 $852 #
straight-curve $-1 -28.315188510163139 -53.341919008084325 10.139414874354586 0 -1 0 I I #
edge $-1 $769 -16.587162427938903 $598 -6.8688897365095691 $597 $853 forward 7 unknown #
vertex $-1 $768 $854 #
straight-curve $-1 -28.315188510163139 -24.865151418091884 1.3680955228147909 0 0.5877852410284794 0.80901700255871778 I I #
point $-1 -28.315188510163139 -18.492415069070105 10.139414874354587 #
point $-1 -18.596915818733805 -24.865151418091902 1.3680955228147664 #
straight-curve $-1 0 -24.865151418091902 10.139414874354587 1 0 0 I I #
vertex $-1 $604 $855 #
point $-1 -24.53853916975476 -19.940928702149073 4.4911300037157202 #
vertex $-1 $608 $856 #
point $-1 -20.373565159142188 -19.940928702149073 4.4911300037157202 #
edge $-1 $779 20.267009716329461 $782 29.038329067869281 $613 $857 forward 7 unknown #
vertex $-1 $627 $858 #
straight-curve $-1 -5.2606403302621132 -53.341919008084325 10.139414874354586 0 -1 0 I I #
edge $-1 $782 -5.0598883379883901 $624 4.6583843534409439 $623 $859 forward 7 unknown #
vertex $-1 $781 $860 #
straight-curve $-1 -5.2606403302621132 -24.865151418091884 1.3680955228147909 0 0.5877852410284794 0.80901700255871778 I I #
point $-1 -5.2606403302621132 -18.492415069070105 10.139414874354587 #
point $-1 4.4576323611672208 -24.865151418091902 1.3680955228147664 #
straight-curve $-1 0 -24.865151418091902 10.139414874354587 1 0 0 I I #
vertex $-1 $630 $861 #
point $-1 -1.4839909898537371 -19.940928702149073 4.4911300037157202 #
vertex $-1 $634 $862 #
point $-1 2.6809830207588305 -19.940928702149073 4.4911300037157202 #
edge $-1 $792 20.267009716329461 $795 29.038329067869281 $639 $863 forward 7 unknown #
vertex $-1 $653 $864 #
straight-curve $-1 17.793907849638906 -53.341919008084325 10.139414874354586 0 -1 0 I I #
edge $-1 $795 6.4673857519621194 $650 16.185658443391453 $649 $865 forward 7 unknown #
vertex $-1 $794 $866 #
straight-curve $-1 17.793907849638906 -24.865151418091884 1.3680955228147909 0 0.5877852410284794 0.80901700255871778 I I #
point $-1 17.793907849638906 -18.492415069070105 10.139414874354587 #
point $-1 27.51218054106824 -24.865151418091902 1.3680955228147664 #
straight-curve $-1 0 -24.865151418091902 10.139414874354587 1 0 0 I I #
vertex $-1 $656 $867 #
point $-1 21.570557190047282 -19.940928702149073 4.4911300037157202 #
vertex $-1 $660 $868 #
point $-1 25.73553120065985 -19.940928702149073 4.4911300037157202 #
coedge $-1 $667 $666 $674 $809 reversed $309 $-1 #
edge $-1 $670 40.848456029539925 $812 50.566728720969266 $667 $869 forward 7 unknown #
straight-curve $-1 40.848456029539925 -24.865151418091898 30.406424590684047 0 0 -1 I I #
point $-1 40.848456029539925 -24.865151418091902 10.139414874354587 #
straight-curve $-1 22.853796187627296 -24.865151418091902 1.3680955228147624 1 0 0 I I #
edge $-1 $812 -10.139414874354587 $675 -1.3680955228147664 $674 $870 forward 7 unknown #
point $-1 50.566728720969259 -24.865151418091902 1.3680955228147664 #
point $-1 40.848456029539925 -24.865151418091902 1.3680955228147664 #
vertex $-1 $679 $871 #
straight-curve $-1 50.566728720969266 0 10.139414874354587 0 1 0 I I #
vertex $-1 $682 $872 #
point $-1 44.625105369948301 -19.940928702149073 4.4911300037157202 #
vertex $-1 $686 $873 #
point $-1 48.790079380560869 -19.940928702149073 4.4911300037157202 #
coedge $-1 $701 $700 $693 $819 forward $690 $-1 #
edge $-1 $820 47.932337940568267 $823 51.819998580789218 $818 $874 forward 7 unknown #
vertex $-1 $705 $875 #
straight-curve $-1 -6.3511368701559014 24.931397748761903 10.139414874354586 0 1 0 I I #
edge $-1 $823 -1.1401850083466805 $702 16.122828765351844 $701 $876 forward 7 unknown #
vertex $-1 $822 $877 #
straight-curve $-1 -6.3511368701559014 -13.782552278379193 37.548048250651377 0 -0.77714595512881146 0.62932039886446345 I I #
point $-1 -6.3511368701559014 20.064290446617356 10.139414874354586 #
point $-1 -23.614150643854426 24.865151418091905 6.2517542341336316 #
straight-curve $-1 0 24.865151418091902 10.139414874354587 -1 0 0 I I #
vertex $-1 $708 $878 #
point $-1 -13.982643757005164 21.232430657628772 6.6738328292471643 #
coedge $-1 $723 $722 $715 $831 forward $712 $-1 #
edge $-1 $832 47.932337940568267 $835 51.819998580789218 $830 $879 forward 7 unknown #
vertex $-1 $727 $880 #
straight-curve $-1 32.529415366188857 24.931397748761903 10.139414874354586 0 1 0 I I #
edge $-1 $835 -20.580461126519062 $724 -3.3174473528205333 $723 $881 forward 7 unknown #
vertex $-1 $834 $882 #
straight-curve $-1 32.529415366188857 -13.782552278379193 37.548048250651377 0 -0.77714595512881146 0.62932039886446345 I I #
point $-1 32.529415366188857 20.064290446617356 10.139414874354586 #
point $-1 15.266401592490329 24.865151418091905 6.2517542341336316 #
straight-curve $-1 0 24.865151418091902 10.139414874354587 -1 0 0 I I #
vertex $-1 $730 $883 #
point $-1 24.897908479339591 21.232430657628772 6.6738328292471643 #
straight-curve $-1 -50.566728720969266 24.865151418091902 0 0 0 -1 I I #
point $-1 -50.566728720969266 -24.865151418091902 -10.139414874354587 #
straight-curve $-1 -50.566728720969266 0 -10.139414874354587 0 1 0 I I #
point $-1 -50.566728720969266 24.865151418091902 -10.139414874354587 #
straight-curve $-1 -41.651463998634824 -4.40576638511296 -10.139414874354587 0 -1 0 I I #
straight-curve $-1 -41.651463998634824 -4.40576638511296 10.139414874354587 0 1 0 I I #
straight-curve $-1 -50.566728720969266 -7.3115327702259192 0 0 0 -1 I I #
point $-1 -50.566728720969266 -7.3115327702259192 -10.139414874354587 #
point $-1 -50.566728720969266 -7.3115327702259192 10.139414874354587 #
straight-curve $-1 -28.315188510163139 -24.865151418091898 30.406424590684047 0 0 -1 I I #
point $-1 -28.315188510163139 -24.865151418091902 10.139414874354587 #
straight-curve $-1 -11.728026082224236 -24.865151418091902 1.3680955228147624 1 0 0 I I #
point $-1 -28.315188510163139 -24.865151418091902 1.3680955228147664 #
point $-1 -25.53853916975476 -19.131911699590354 3.9033447626872411 #
point $-1 -21.373565159142188 -19.131911699590354 3.9033447626872411 #
straight-curve $-1 -5.2606403302621132 -24.865151418091898 30.406424590684047 0 0 -1 I I #
point $-1 -5.2606403302621132 -24.865151418091902 10.139414874354587 #
straight-curve $-1 -0.20075199227372309 -24.865151418091902 1.3680955228147624 1 0 0 I I #
point $-1 -5.2606403302621132 -24.865151418091902 1.3680955228147664 #
point $-1 -2.4839909898537371 -19.131911699590354 3.9033447626872411 #
point $-1 1.6809830207588305 -19.131911699590354 3.9033447626872411 #
straight-curve $-1 17.793907849638906 -24.865151418091898 30.406424590684047 0 0 -1 I I #
point $-1 17.793907849638906 -24.865151418091902 10.139414874354587 #
straight-curve $-1 11.326522097676786 -24.865151418091902 1.3680955228147624 1 0 0 I I #
point $-1 17.793907849638906 -24.865151418091902 1.3680955228147664 #
point $-1 20.570557190047282 -19.131911699590354 3.9033447626872411 #
point $-1 24.73553120065985 -19.131911699590354 3.9033447626872411 #
straight-curve $-1 0 -24.865151418091902 10.139414874354587 1 0 0 I I #
straight-curve $-1 50.566728720969266 -24.865151418091902 0 0 0 -1 I I #
point $-1 50.566728720969266 -24.865151418091902 10.139414874354587 #
point $-1 43.625105369948301 -19.131911699590354 3.9033447626872411 #
point $-1 47.790079380560869 -19.131911699590354 3.9033447626872411 #
straight-curve $-1 -6.3511368701559014 24.865151418091902 58.071752814922853 0 0 -1 I I #
point $-1 -6.3511368701559014 24.865151418091902 10.139414874354587 #
straight-curve $-1 -7.4913218785025819 24.865151418091898 6.2517542341336334 -1 0 0 I I #
point $-1 -6.3511368701559014 24.865151418091905 6.2517542341336316 #
point $-1 -14.982643757005164 20.603110258764307 5.8966868741183518 #
straight-curve $-1 32.529415366188857 24.865151418091902 58.071752814922853 0 0 -1 I I #
point $-1 32.529415366188857 24.865151418091902 10.139414874354587 #
straight-curve $-1 11.948954239669796 24.865151418091898 6.2517542341336334 -1 0 0 I I #
point $-1 32.529415366188857 24.865151418091905 6.2517542341336316 #
point $-1 23.897908479339591 20.603110258764307 5.8966868741183518 #
End-of-ACIS-data 