500 0 17 0           
7 Unknown 11 ACIS 5.0 NT 24 Fri Mar 26 20:15:25 1999 
-1 9.9999999999999995e-007 1e-010 
body $-1 $17 $-1 $18 #
body $-1 $19 $-1 $20 #
body $-1 $21 $-1 $22 #
body $-1 $23 $-1 $24 #
body $-1 $25 $-1 $26 #
body $-1 $27 $-1 $28 #
body $-1 $29 $-1 $30 #
body $-1 $31 $-1 $32 #
body $-1 $33 $-1 $34 #
body $-1 $35 $-1 $36 #
body $-1 $37 $-1 $38 #
body $-1 $39 $-1 $40 #
body $-1 $41 $-1 $42 #
body $-1 $43 $-1 $44 #
body $-1 $45 $-1 $46 #
body $-1 $47 $-1 $48 #
body $-1 $49 $-1 $50 #
lump $-1 $-1 $51 $0 #
transform $-1 1 0 0 0 1 0 0 0 1 49.537644581438641 23.245215057552603 6.0119601894203099 1 rotate no_reflect no_shear #
lump $-1 $-1 $52 $1 #
transform $-1 1 0 0 0 1 0 0 0 1 49.537644581438641 23.245215057552603 6.0119601894203099 1 rotate no_reflect no_shear #
lump $-1 $-1 $53 $2 #
transform $-1 1 0 0 0 1 0 0 0 1 49.537644581438641 23.245215057552603 6.0119601894203099 1 rotate no_reflect no_shear #
lump $-1 $-1 $54 $3 #
transform $-1 1 0 0 0 1 0 0 0 1 49.537644581438641 23.245215057552603 6.0119601894203099 1 rotate no_reflect no_shear #
lump $-1 $-1 $55 $4 #
transform $-1 1 0 0 0 1 0 0 0 1 49.537644581438641 23.245215057552603 6.0119601894203099 1 rotate no_reflect no_shear #
lump $-1 $-1 $56 $5 #
transform $-1 1 0 0 0 1 0 0 0 1 49.537644581438641 23.245215057552603 6.0119601894203099 1 rotate no_reflect no_shear #
lump $-1 $-1 $57 $6 #
transform $-1 1 0 0 0 1 0 0 0 1 49.537644581438641 23.245215057552603 6.0119601894203099 1 rotate no_reflect no_shear #
lump $-1 $-1 $58 $7 #
transform $-1 1 0 0 0 1 0 0 0 1 49.537644581438641 23.245215057552603 6.0119601894203099 1 rotate no_reflect no_shear #
lump $-1 $-1 $59 $8 #
transform $-1 1 0 0 0 1 0 0 0 1 49.537644581438641 23.245215057552603 6.0119601894203099 1 rotate no_reflect no_shear #
lump $-1 $-1 $60 $9 #
transform $-1 1 0 0 0 1 0 0 0 1 49.537644581438641 23.245215057552603 6.0119601894203099 1 rotate no_reflect no_shear #
lump $-1 $-1 $61 $10 #
transform $-1 1 0 0 0 1 0 0 0 1 49.537644581438641 23.245215057552603 6.0119601894203099 1 rotate no_reflect no_shear #
lump $-1 $-1 $62 $11 #
transform $-1 1 0 0 0 1 0 0 0 1 49.537644581438641 23.245215057552603 6.0119601894203099 1 rotate no_reflect no_shear #
lump $-1 $-1 $63 $12 #
transform $-1 1 0 0 0 1 0 0 0 1 49.537644581438641 23.245215057552603 6.0119601894203099 1 rotate no_reflect no_shear #
lump $-1 $-1 $64 $13 #
transform $-1 1 0 0 0 1 0 0 0 1 49.537644581438641 23.245215057552603 6.0119601894203099 1 rotate no_reflect no_shear #
lump $-1 $-1 $65 $14 #
transform $-1 1 0 0 0 1 0 0 0 1 49.537644581438641 23.245215057552603 6.0119601894203099 1 rotate no_reflect no_shear #
lump $-1 $-1 $66 $15 #
transform $-1 1 0 0 0 1 0 0 0 1 49.537644581438641 23.245215057552603 6.0119601894203099 1 rotate no_reflect no_shear #
lump $-1 $-1 $67 $16 #
transform $-1 1 0 0 0 1 0 0 0 1 49.537644581438641 23.245215057552603 6.0119601894203099 1 rotate no_reflect no_shear #
shell $-1 $-1 $-1 $68 $-1 $17 #
shell $-1 $-1 $-1 $69 $-1 $19 #
shell $-1 $-1 $-1 $70 $-1 $21 #
shell $-1 $-1 $-1 $71 $-1 $23 #
shell $-1 $-1 $-1 $72 $-1 $25 #
shell $-1 $-1 $-1 $73 $-1 $27 #
shell $-1 $-1 $-1 $74 $-1 $29 #
shell $-1 $-1 $-1 $75 $-1 $31 #
shell $-1 $-1 $-1 $76 $-1 $33 #
shell $-1 $-1 $-1 $77 $-1 $35 #
shell $-1 $-1 $-1 $78 $-1 $37 #
shell $-1 $-1 $-1 $79 $-1 $39 #
shell $-1 $-1 $-1 $80 $-1 $41 #
shell $-1 $-1 $-1 $81 $-1 $43 #
shell $-1 $-1 $-1 $82 $-1 $45 #
shell $-1 $-1 $-1 $83 $-1 $47 #
shell $-1 $-1 $-1 $84 $-1 $49 #
face $-1 $85 $86 $51 $-1 $87 forward single #
face $-1 $88 $89 $52 $-1 $90 reversed single #
face $-1 $91 $92 $53 $-1 $93 reversed single #
face $-1 $94 $95 $54 $-1 $96 forward single #
face $-1 $97 $98 $55 $-1 $99 forward single #
face $-1 $100 $101 $56 $-1 $102 reversed single #
face $-1 $103 $104 $57 $-1 $105 forward single #
face $-1 $106 $107 $58 $-1 $108 forward single #
face $-1 $109 $110 $59 $-1 $111 reversed single #
face $-1 $112 $113 $60 $-1 $114 forward single #
face $-1 $115 $116 $61 $-1 $117 forward single #
face $-1 $118 $119 $62 $-1 $120 reversed single #
face $-1 $121 $122 $63 $-1 $123 forward single #
face $-1 $124 $125 $64 $-1 $126 forward single #
face $-1 $127 $128 $65 $-1 $129 reversed single #
face $-1 $130 $131 $66 $-1 $132 forward single #
face $-1 $133 $134 $67 $-1 $135 forward single #
face $-1 $136 $137 $51 $-1 $138 reversed single #
loop $-1 $-1 $139 $68 #
plane-surface $-1 0 0 6.0119601894203099 0 0 1 1 0 0 forward_v I I I I #
face $-1 $140 $141 $52 $-1 $142 reversed single #
loop $-1 $-1 $143 $69 #
plane-surface $-1 0 -20.370378149114977 3.0119601894203099 0 0 1 1 0 0 forward_v I I I I #
face $-1 $144 $145 $53 $-1 $146 reversed single #
loop $-1 $-1 $147 $70 #
plane-surface $-1 49.537646207114122 -6.9927962837667828 142.52074069546691 0 -1 0 -0.70710678939079041 0 -0.70710677298230451 forward_v I I I I #
face $-1 $148 $149 $54 $-1 $150 forward single #
loop $-1 $151 $152 $71 #
cone-surface $-1 46.734601006605125 -14.494756967274331 3.2089165959810866 -0.70710678939079041 0 -0.70710677298230451 0.70710677298230451 0 -0.70710678939079041 1 I I 0 1 1 forward I I I I #
face $-1 $153 $154 $55 $-1 $155 forward single #
loop $-1 $156 $157 $72 #
cone-surface $-1 46.734601006605125 -9.9935805571698015 3.2089165959810866 -0.70710678939079041 0 -0.70710677298230451 0.70710677298230451 0 -0.70710678939079041 1 I I 0 1 1 forward I I I I #
face $-1 $158 $159 $56 $-1 $160 reversed single #
loop $-1 $-1 $161 $73 #
plane-surface $-1 -106.36489660231531 -15.440218845478626 81.686819746283902 0 1 0 -0.57357644374324357 0 0.81915203911291934 forward_v I I I I #
face $-1 $162 $163 $57 $-1 $164 forward single #
loop $-1 $165 $166 $74 #
cone-surface $-1 -45.117847439465592 -13.691606353407392 2.5498475968191192 0.57357644374324357 0 -0.81915203911291934 0.40957601955645967 0 0.28678822187162178 1 I I 0 1 0.5 forward I I I I #
face $-1 $167 $168 $58 $-1 $169 forward single #
loop $-1 $170 $171 $75 #
cone-surface $-1 -45.117847439465592 -11.068687615300547 2.5498475968191192 0.57357644374324357 0 -0.81915203911291934 0.40957601955645967 0 0.28678822187162178 1 I I 0 1 0.5 forward I I I I #
face $-1 $172 $173 $59 $-1 $174 reversed single #
loop $-1 $-1 $175 $76 #
plane-surface $-1 -106.36489660231531 -5.2702295836175592 81.686819746283902 0 1 0 -0.57357644374324357 0 0.81915203911291934 forward_v I I I I #
face $-1 $176 $177 $60 $-1 $178 forward single #
loop $-1 $179 $180 $77 #
cone-surface $-1 -45.117847439465592 -3.5216170915463287 2.5498475968191192 0.57357644374324357 0 -0.81915203911291934 0.40957601955645967 0 0.28678822187162178 1 I I 0 1 0.5 forward I I I I #
face $-1 $181 $182 $61 $-1 $183 forward single #
loop $-1 $184 $185 $78 #
cone-surface $-1 -45.117847439465592 -0.89869835343948168 2.5498475968191192 0.57357644374324357 0 -0.81915203911291934 0.40957601955645967 0 0.28678822187162178 1 I I 0 1 0.5 forward I I I I #
face $-1 $186 $187 $62 $-1 $188 reversed single #
loop $-1 $-1 $189 $79 #
plane-surface $-1 -106.36489660231531 4.8997596782435027 81.686819746283902 0 1 0 -0.57357644374324357 0 0.81915203911291934 forward_v I I I I #
face $-1 $190 $191 $63 $-1 $192 forward single #
loop $-1 $193 $194 $80 #
cone-surface $-1 -45.117847439465592 6.6483721703147332 2.5498475968191192 0.57357644374324357 0 -0.81915203911291934 0.40957601955645967 0 0.28678822187162178 1 I I 0 1 0.5 forward I I I I #
face $-1 $195 $196 $64 $-1 $197 forward single #
loop $-1 $198 $199 $81 #
cone-surface $-1 -45.117847439465592 9.2712909084215802 2.5498475968191192 0.57357644374324357 0 -0.81915203911291934 0.40957601955645967 0 0.28678822187162178 1 I I 0 1 0.5 forward I I I I #
face $-1 $200 $201 $65 $-1 $202 reversed single #
loop $-1 $-1 $203 $82 #
plane-surface $-1 -106.36489660231531 15.069748940104564 81.686819746283902 0 1 0 -0.57357644374324357 0 0.81915203911291934 forward_v I I I I #
face $-1 $204 $205 $66 $-1 $206 forward single #
loop $-1 $207 $208 $83 #
cone-surface $-1 -45.117847439465592 16.818361432175795 2.5498475968191192 0.57357644374324357 0 -0.81915203911291934 0.40957601955645967 0 0.28678822187162178 1 I I 0 1 0.5 forward I I I I #
face $-1 $209 $210 $67 $-1 $211 forward single #
loop $-1 $212 $213 $84 #
cone-surface $-1 -45.117847439465592 19.441280170282642 2.5498475968191192 0.57357644374324357 0 -0.81915203911291934 0.40957601955645967 0 0.28678822187162178 1 I I 0 1 0.5 forward I I I I #
face $-1 $214 $215 $51 $-1 $216 reversed single #
loop $-1 $-1 $217 $85 #
plane-surface $-1 0 0 -6.0119601894203099 0 0 1 1 0 0 forward_v I I I I #
coedge $-1 $218 $219 $220 $221 forward $86 $-1 #
face $-1 $222 $223 $52 $-1 $224 reversed single #
loop $-1 $-1 $225 $88 #
plane-surface $-1 0 -17.495541240677351 4.5119601894203099 0 -1 0 0 0 -1 forward_v I I I I #
coedge $-1 $226 $227 $228 $229 reversed $89 $-1 #
face $-1 $230 $231 $53 $-1 $232 forward single #
loop $-1 $-1 $233 $91 #
plane-surface $-1 -20.519163420812205 -12.244168762222067 72.463932693216066 0.70710678939079041 0 0.70710677298230451 0.70710677298230451 0 -0.70710678939079041 forward_v I I I I #
coedge $-1 $234 $235 $236 $237 reversed $92 $-1 #
face $-1 $-1 $238 $54 $-1 $239 forward single #
loop $-1 $240 $241 $94 #
cone-surface $-1 45.38042255731618 -14.494756967274331 1.8547381781159915 -0.70710678939079041 0 -0.70710677298230451 0.35355338649115226 0 -0.35355339469539521 1 I I -0.70710678118654746 0.70710678118654746 0.5 forward I I I I #
loop $-1 $-1 $242 $71 #
coedge $-1 $152 $152 $243 $244 reversed $95 $-1 #
face $-1 $-1 $245 $55 $-1 $246 forward single #
loop $-1 $247 $248 $97 #
cone-surface $-1 45.38042255731618 -9.9935805571698015 1.8547381781159915 -0.70710678939079041 0 -0.70710677298230451 0.35355338649115226 0 -0.35355339469539521 1 I I -0.70710678118654746 0.70710678118654746 0.5 forward I I I I #
loop $-1 $-1 $249 $72 #
coedge $-1 $157 $157 $250 $251 reversed $98 $-1 #
face $-1 $252 $253 $56 $-1 $254 reversed single #
loop $-1 $-1 $255 $100 #
plane-surface $-1 -49.537644581438641 -12.380146984353971 0.52909460281085785 -0.57357644374324357 0 0.81915203911291934 0.81915203911291934 0 0.57357644374324357 forward_v I I I I #
coedge $-1 $256 $257 $258 $259 reversed $101 $-1 #
face $-1 $-1 $260 $57 $-1 $261 forward single #
loop $-1 $262 $263 $103 #
cone-surface $-1 -44.469827890734734 -13.691606353407392 1.6243797877444255 0.57357644374324357 0 -0.81915203911291934 0.20478800977822983 0 0.14339411093581089 1 I I -0.70710678118654746 0.70710678118654746 0.25 forward I I I I #
loop $-1 $-1 $264 $74 #
coedge $-1 $166 $166 $265 $266 reversed $104 $-1 #
face $-1 $-1 $267 $58 $-1 $268 forward single #
loop $-1 $269 $270 $106 #
cone-surface $-1 -44.469827890734734 -11.068687615300547 1.6243797877444255 0.57357644374324357 0 -0.81915203911291934 0.20478800977822983 0 0.14339411093581089 1 I I -0.70710678118654746 0.70710678118654746 0.25 forward I I I I #
loop $-1 $-1 $271 $75 #
coedge $-1 $171 $171 $272 $273 reversed $107 $-1 #
face $-1 $274 $275 $59 $-1 $276 reversed single #
loop $-1 $-1 $277 $109 #
plane-surface $-1 -49.537644581438641 -2.2101577224929052 0.52909460281085785 -0.57357644374324357 0 0.81915203911291934 0.81915203911291934 0 0.57357644374324357 forward_v I I I I #
coedge $-1 $278 $279 $280 $281 reversed $110 $-1 #
face $-1 $-1 $282 $60 $-1 $283 forward single #
loop $-1 $284 $285 $112 #
cone-surface $-1 -44.469827890734734 -3.5216170915463287 1.6243797877444255 0.57357644374324357 0 -0.81915203911291934 0.20478800977822983 0 0.14339411093581089 1 I I -0.70710678118654746 0.70710678118654746 0.25 forward I I I I #
loop $-1 $-1 $286 $77 #
coedge $-1 $180 $180 $287 $288 reversed $113 $-1 #
face $-1 $-1 $289 $61 $-1 $290 forward single #
loop $-1 $291 $292 $115 #
cone-surface $-1 -44.469827890734734 -0.89869835343948168 1.6243797877444255 0.57357644374324357 0 -0.81915203911291934 0.20478800977822983 0 0.14339411093581089 1 I I -0.70710678118654746 0.70710678118654746 0.25 forward I I I I #
loop $-1 $-1 $293 $78 #
coedge $-1 $185 $185 $294 $295 reversed $116 $-1 #
face $-1 $296 $297 $62 $-1 $298 reversed single #
loop $-1 $-1 $299 $118 #
plane-surface $-1 -49.537644581438641 7.9598315393681567 0.52909460281085785 -0.57357644374324357 0 0.81915203911291934 0.81915203911291934 0 0.57357644374324357 forward_v I I I I #
coedge $-1 $300 $301 $302 $303 reversed $119 $-1 #
face $-1 $-1 $304 $63 $-1 $305 forward single #
loop $-1 $306 $307 $121 #
cone-surface $-1 -44.469827890734734 6.6483721703147332 1.6243797877444255 0.57357644374324357 0 -0.81915203911291934 0.20478800977822983 0 0.14339411093581089 1 I I -0.70710678118654746 0.70710678118654746 0.25 forward I I I I #
loop $-1 $-1 $308 $80 #
coedge $-1 $194 $194 $309 $310 reversed $122 $-1 #
face $-1 $-1 $311 $64 $-1 $312 forward single #
loop $-1 $313 $314 $124 #
cone-surface $-1 -44.469827890734734 9.2712909084215802 1.6243797877444255 0.57357644374324357 0 -0.81915203911291934 0.20478800977822983 0 0.14339411093581089 1 I I -0.70710678118654746 0.70710678118654746 0.25 forward I I I I #
loop $-1 $-1 $315 $81 #
coedge $-1 $199 $199 $316 $317 reversed $125 $-1 #
face $-1 $318 $319 $65 $-1 $320 reversed single #
loop $-1 $-1 $321 $127 #
plane-surface $-1 -49.537644581438641 18.129820801229219 0.52909460281085785 -0.57357644374324357 0 0.81915203911291934 0.81915203911291934 0 0.57357644374324357 forward_v I I I I #
coedge $-1 $322 $323 $324 $325 reversed $128 $-1 #
face $-1 $-1 $326 $66 $-1 $327 forward single #
loop $-1 $328 $329 $130 #
cone-surface $-1 -44.469827890734734 16.818361432175795 1.6243797877444255 0.57357644374324357 0 -0.81915203911291934 0.20478800977822983 0 0.14339411093581089 1 I I -0.70710678118654746 0.70710678118654746 0.25 forward I I I I #
loop $-1 $-1 $330 $83 #
coedge $-1 $208 $208 $331 $332 reversed $131 $-1 #
face $-1 $-1 $333 $67 $-1 $334 forward single #
loop $-1 $335 $336 $133 #
cone-surface $-1 -44.469827890734734 19.441280170282642 1.6243797877444255 0.57357644374324357 0 -0.81915203911291934 0.20478800977822983 0 0.14339411093581089 1 I I -0.70710678118654746 0.70710678118654746 0.25 forward I I I I #
loop $-1 $-1 $337 $84 #
coedge $-1 $213 $213 $338 $339 reversed $134 $-1 #
face $-1 $340 $341 $51 $-1 $342 reversed single #
loop $-1 $-1 $343 $136 #
plane-surface $-1 0 -23.245215057552603 0 0 1 0 0 0 1 forward_v I I I I #
coedge $-1 $344 $345 $346 $347 forward $137 $-1 #
coedge $-1 $348 $139 $349 $350 forward $86 $-1 #
coedge $-1 $139 $348 $351 $352 forward $86 $-1 #
coedge $-1 $353 $354 $139 $221 reversed $355 $-1 #
edge $-1 $356 -23.245215057552603 $357 23.245215057552603 $220 $358 forward 7 unknown #
face $-1 $359 $360 $52 $-1 $361 reversed single #
loop $-1 $-1 $362 $140 #
plane-surface $-1 -49.537644581438641 0 0 1 0 0 0 0 -1 forward_v I I I I #
coedge $-1 $363 $364 $365 $366 reversed $141 $-1 #
coedge $-1 $367 $143 $368 $369 reversed $89 $-1 #
coedge $-1 $143 $367 $363 $370 forward $89 $-1 #
coedge $-1 $365 $371 $143 $229 forward $372 $-1 #
edge $-1 $373 -13.060025982995114 $374 -7.3103521661198627 $228 $375 forward 7 unknown #
face $-1 $376 $377 $53 $-1 $378 forward single #
loop $-1 $-1 $379 $144 #
plane-surface $-1 0 -17.495541240677351 4.5119601894203099 0 -1 0 0 0 -1 forward_v I I I I #
coedge $-1 $380 $381 $382 $383 reversed $145 $-1 #
coedge $-1 $235 $147 $384 $385 reversed $92 $-1 #
coedge $-1 $147 $234 $380 $386 reversed $92 $-1 #
coedge $-1 $382 $387 $147 $237 forward $377 $-1 #
edge $-1 $388 -24.768821477881581 $389 -21.163984437401631 $236 $390 forward 7 unknown #
loop $-1 $-1 $243 $148 #
plane-surface $-1 -20.519163420812205 -12.244168762222067 72.463932693216066 0.70710678939079041 0 0.70710677298230451 0.70710677298230451 0 -0.70710678939079041 forward_v I I I I #
loop $-1 $-1 $391 $94 #
coedge $-1 $241 $241 $242 $392 reversed $149 $-1 #
coedge $-1 $242 $242 $241 $392 forward $151 $-1 #
coedge $-1 $243 $243 $152 $244 forward $238 $-1 #
edge $-1 $393 0 $393 6.2831853071796004 $243 $394 forward 7 unknown #
loop $-1 $-1 $250 $153 #
plane-surface $-1 -20.519163420812205 -12.244168762222067 72.463932693216066 0.70710678939079041 0 0.70710677298230451 0.70710677298230451 0 -0.70710678939079041 forward_v I I I I #
loop $-1 $-1 $395 $97 #
coedge $-1 $248 $248 $249 $396 reversed $154 $-1 #
coedge $-1 $249 $249 $248 $396 forward $156 $-1 #
coedge $-1 $250 $250 $157 $251 forward $245 $-1 #
edge $-1 $397 0 $397 6.2831853071796004 $250 $398 forward 7 unknown #
face $-1 $399 $400 $56 $-1 $401 forward single #
loop $-1 $-1 $402 $158 #
plane-surface $-1 -106.36489660231531 -9.3200751232293157 81.686819746283902 0 -1 0 0.57357644374324357 0 -0.81915203911291934 forward_v I I I I #
coedge $-1 $403 $404 $405 $406 reversed $159 $-1 #
coedge $-1 $257 $161 $407 $408 reversed $101 $-1 #
coedge $-1 $161 $256 $403 $409 reversed $101 $-1 #
coedge $-1 $405 $410 $161 $259 forward $400 $-1 #
edge $-1 $411 3.6448037197190146 $412 11.475147128075015 $258 $413 forward 7 unknown #
loop $-1 $-1 $265 $162 #
plane-surface $-1 -49.537644581438641 -12.380146984353971 0.52909460281085785 -0.57357644374324357 0 0.81915203911291934 0.81915203911291934 0 0.57357644374324357 forward_v I I I I #
loop $-1 $-1 $414 $103 #
coedge $-1 $263 $263 $264 $415 reversed $163 $-1 #
coedge $-1 $264 $264 $263 $415 forward $165 $-1 #
coedge $-1 $265 $265 $166 $266 forward $260 $-1 #
edge $-1 $416 0 $416 6.2831853071796004 $265 $417 forward 7 unknown #
loop $-1 $-1 $272 $167 #
plane-surface $-1 -49.537644581438641 -12.380146984353971 0.52909460281085785 -0.57357644374324357 0 0.81915203911291934 0.81915203911291934 0 0.57357644374324357 forward_v I I I I #
loop $-1 $-1 $418 $106 #
coedge $-1 $270 $270 $271 $419 reversed $168 $-1 #
coedge $-1 $271 $271 $270 $419 forward $170 $-1 #
coedge $-1 $272 $272 $171 $273 forward $267 $-1 #
edge $-1 $420 0 $420 6.2831853071796004 $272 $421 forward 7 unknown #
face $-1 $422 $423 $59 $-1 $424 forward single #
loop $-1 $-1 $425 $172 #
plane-surface $-1 -106.36489660231531 0.84991413863174881 81.686819746283902 0 -1 0 0.57357644374324357 0 -0.81915203911291934 forward_v I I I I #
coedge $-1 $426 $427 $428 $429 reversed $173 $-1 #
coedge $-1 $279 $175 $430 $431 reversed $110 $-1 #
coedge $-1 $175 $278 $426 $432 reversed $110 $-1 #
coedge $-1 $428 $433 $175 $281 forward $423 $-1 #
edge $-1 $434 3.6448037197190146 $435 11.475147128075015 $280 $436 forward 7 unknown #
loop $-1 $-1 $287 $176 #
plane-surface $-1 -49.537644581438641 -2.2101577224929052 0.52909460281085785 -0.57357644374324357 0 0.81915203911291934 0.81915203911291934 0 0.57357644374324357 forward_v I I I I #
loop $-1 $-1 $437 $112 #
coedge $-1 $285 $285 $286 $438 reversed $177 $-1 #
coedge $-1 $286 $286 $285 $438 forward $179 $-1 #
coedge $-1 $287 $287 $180 $288 forward $282 $-1 #
edge $-1 $439 0 $439 6.2831853071796004 $287 $440 forward 7 unknown #
loop $-1 $-1 $294 $181 #
plane-surface $-1 -49.537644581438641 -2.2101577224929052 0.52909460281085785 -0.57357644374324357 0 0.81915203911291934 0.81915203911291934 0 0.57357644374324357 forward_v I I I I #
loop $-1 $-1 $441 $115 #
coedge $-1 $292 $292 $293 $442 reversed $182 $-1 #
coedge $-1 $293 $293 $292 $442 forward $184 $-1 #
coedge $-1 $294 $294 $185 $295 forward $289 $-1 #
edge $-1 $443 0 $443 6.2831853071796004 $294 $444 forward 7 unknown #
face $-1 $445 $446 $62 $-1 $447 forward single #
loop $-1 $-1 $448 $186 #
plane-surface $-1 -106.36489660231531 11.019903400492812 81.686819746283902 0 -1 0 0.57357644374324357 0 -0.81915203911291934 forward_v I I I I #
coedge $-1 $449 $450 $451 $452 reversed $187 $-1 #
coedge $-1 $301 $189 $453 $454 reversed $119 $-1 #
coedge $-1 $189 $300 $449 $455 reversed $119 $-1 #
coedge $-1 $451 $456 $189 $303 forward $446 $-1 #
edge $-1 $457 3.6448037197190146 $458 11.475147128075015 $302 $459 forward 7 unknown #
loop $-1 $-1 $309 $190 #
plane-surface $-1 -49.537644581438641 7.9598315393681567 0.52909460281085785 -0.57357644374324357 0 0.81915203911291934 0.81915203911291934 0 0.57357644374324357 forward_v I I I I #
loop $-1 $-1 $460 $121 #
coedge $-1 $307 $307 $308 $461 reversed $191 $-1 #
coedge $-1 $308 $308 $307 $461 forward $193 $-1 #
coedge $-1 $309 $309 $194 $310 forward $304 $-1 #
edge $-1 $462 0 $462 6.2831853071796004 $309 $463 forward 7 unknown #
loop $-1 $-1 $316 $195 #
plane-surface $-1 -49.537644581438641 7.9598315393681567 0.52909460281085785 -0.57357644374324357 0 0.81915203911291934 0.81915203911291934 0 0.57357644374324357 forward_v I I I I #
loop $-1 $-1 $464 $124 #
coedge $-1 $314 $314 $315 $465 reversed $196 $-1 #
coedge $-1 $315 $315 $314 $465 forward $198 $-1 #
coedge $-1 $316 $316 $199 $317 forward $311 $-1 #
edge $-1 $466 0 $466 6.2831853071796004 $316 $467 forward 7 unknown #
face $-1 $468 $469 $65 $-1 $470 forward single #
loop $-1 $-1 $471 $200 #
plane-surface $-1 -106.36489660231531 21.189892662353873 81.686819746283902 0 -1 0 0.57357644374324357 0 -0.81915203911291934 forward_v I I I I #
coedge $-1 $472 $473 $474 $475 reversed $201 $-1 #
coedge $-1 $323 $203 $476 $477 reversed $128 $-1 #
coedge $-1 $203 $322 $472 $478 reversed $128 $-1 #
coedge $-1 $474 $479 $203 $325 forward $469 $-1 #
edge $-1 $480 3.6448037197190146 $481 11.475147128075015 $324 $482 forward 7 unknown #
loop $-1 $-1 $331 $204 #
plane-surface $-1 -49.537644581438641 18.129820801229219 0.52909460281085785 -0.57357644374324357 0 0.81915203911291934 0.81915203911291934 0 0.57357644374324357 forward_v I I I I #
loop $-1 $-1 $483 $130 #
coedge $-1 $329 $329 $330 $484 reversed $205 $-1 #
coedge $-1 $330 $330 $329 $484 forward $207 $-1 #
coedge $-1 $331 $331 $208 $332 forward $326 $-1 #
edge $-1 $485 0 $485 6.2831853071796004 $331 $486 forward 7 unknown #
loop $-1 $-1 $338 $209 #
plane-surface $-1 -49.537644581438641 18.129820801229219 0.52909460281085785 -0.57357644374324357 0 0.81915203911291934 0.81915203911291934 0 0.57357644374324357 forward_v I I I I #
loop $-1 $-1 $487 $133 #
coedge $-1 $336 $336 $337 $488 reversed $210 $-1 #
coedge $-1 $337 $337 $336 $488 forward $212 $-1 #
coedge $-1 $338 $338 $213 $339 forward $333 $-1 #
edge $-1 $489 0 $489 6.2831853071796004 $338 $490 forward 7 unknown #
face $-1 $491 $492 $51 $-1 $493 reversed single #
loop $-1 $-1 $494 $214 #
plane-surface $-1 -49.537644581438641 0 0 1 0 0 0 0 -1 forward_v I I I I #
coedge $-1 $495 $351 $496 $497 forward $215 $-1 #
coedge $-1 $498 $217 $495 $499 forward $137 $-1 #
coedge $-1 $217 $498 $500 $501 forward $137 $-1 #
coedge $-1 $354 $353 $217 $347 reversed $355 $-1 #
edge $-1 $502 -23.245215057552603 $503 23.245215057552603 $346 $504 forward 7 unknown #
coedge $-1 $219 $218 $505 $506 forward $86 $-1 #
coedge $-1 $507 $508 $218 $350 reversed $492 $-1 #
edge $-1 $357 -49.537644581438641 $509 49.537644581438641 $349 $510 forward 7 unknown #
coedge $-1 $343 $511 $219 $352 reversed $215 $-1 #
edge $-1 $512 -49.537644581438641 $356 49.537644581438641 $351 $513 forward 7 unknown #
coedge $-1 $346 $220 $511 $514 forward $355 $-1 #
coedge $-1 $220 $346 $507 $515 reversed $355 $-1 #
loop $-1 $-1 $353 $491 #
vertex $-1 $221 $516 #
vertex $-1 $221 $517 #
straight-curve $-1 49.537644581438641 0 6.0119601894203099 0 1 0 I I #
face $-1 $518 $519 $52 $-1 $520 forward single #
loop $-1 $-1 $368 $222 #
plane-surface $-1 0 -23.245215057552603 0 0 1 0 0 0 1 forward_v I I I I #
coedge $-1 $521 $522 $523 $524 forward $223 $-1 #
coedge $-1 $523 $225 $227 $370 reversed $141 $-1 #
coedge $-1 $225 $523 $525 $526 reversed $141 $-1 #
coedge $-1 $527 $228 $225 $366 forward $372 $-1 #
edge $-1 $374 0.75598009471015493 $528 3.7559800947101549 $365 $529 forward 7 unknown #
coedge $-1 $227 $226 $521 $530 reversed $89 $-1 #
coedge $-1 $531 $532 $226 $369 forward $360 $-1 #
edge $-1 $533 -49.537644581438641 $373 49.537644581438641 $368 $534 forward 7 unknown #
edge $-1 $535 -49.537644581438641 $374 49.537644581438641 $363 $536 forward 7 unknown #
coedge $-1 $228 $527 $531 $537 forward $372 $-1 #
loop $-1 $-1 $365 $518 #
vertex $-1 $369 $538 #
vertex $-1 $229 $539 #
straight-curve $-1 49.537644581438641 -10.185189074557488 3.0119601894203099 0 1 0 I I #
face $-1 $-1 $540 $53 $-1 $541 reversed single #
loop $-1 $-1 $382 $230 #
plane-surface $-1 0 0 6.0119601894203099 0 0 1 1 0 0 forward_v I I I I #
coedge $-1 $542 $543 $381 $544 reversed $231 $-1 #
coedge $-1 $545 $233 $235 $386 forward $145 $-1 #
coedge $-1 $233 $545 $379 $544 forward $145 $-1 #
coedge $-1 $546 $236 $233 $383 forward $377 $-1 #
edge $-1 $389 0.87071190265574927 $547 11.373456859566318 $382 $548 forward 7 unknown #
coedge $-1 $549 $550 $234 $385 forward $540 $-1 #
edge $-1 $551 -68.853247282443718 $388 -65.248410158313149 $384 $552 forward 7 unknown #
edge $-1 $389 93.977279670935758 $551 99.075289162877311 $235 $553 forward 7 unknown #
coedge $-1 $236 $546 $549 $554 forward $377 $-1 #
vertex $-1 $385 $555 #
vertex $-1 $237 $556 #
straight-curve $-1 24.768823103557061 -6.9927962837667828 6.0119601894203072 -1 0 0 I I #
coedge $-1 $391 $391 $-1 $557 reversed $240 $-1 #
edge $-1 $558 0 $558 6.2831853071796004 $241 $559 forward 7 unknown #
vertex $-1 $244 $560 #
ellipse-curve $-1 47.735226061198659 -14.494756967274331 4.2095416273550157 0.70710678939079041 0 0.70710677298230451 0.70710677298230451 0 -0.70710678939079041 1 I I #
coedge $-1 $395 $395 $-1 $561 reversed $247 $-1 #
edge $-1 $562 0 $562 6.2831853071796004 $248 $563 forward 7 unknown #
vertex $-1 $251 $564 #
ellipse-curve $-1 47.735226061198659 -9.9935805571698015 4.2095416273550157 0.70710678939079041 0 0.70710677298230451 0.70710677298230451 0 -0.70710678939079041 1 I I #
face $-1 $-1 $565 $56 $-1 $566 reversed single #
loop $-1 $-1 $258 $252 #
plane-surface $-1 0 0 6.0119601894203099 0 0 1 1 0 0 forward_v I I I I #
coedge $-1 $567 $568 $569 $570 reversed $253 $-1 #
coedge $-1 $571 $255 $257 $409 forward $159 $-1 #
coedge $-1 $255 $571 $567 $572 forward $159 $-1 #
coedge $-1 $569 $258 $255 $406 forward $400 $-1 #
edge $-1 $412 -9.2501453533016402 $573 -3.1300016310523304 $405 $574 forward 7 unknown #
coedge $-1 $575 $576 $256 $408 forward $565 $-1 #
edge $-1 $577 -40.314315270331093 $411 -34.831449683721644 $407 $578 forward 7 unknown #
edge $-1 $412 -9.5590843145988877 $577 0 $257 $579 forward 7 unknown #
coedge $-1 $258 $569 $575 $580 forward $400 $-1 #
vertex $-1 $408 $581 #
vertex $-1 $259 $582 #
straight-curve $-1 -53.182448301157656 -15.440218845478626 6.0119601894203072 1 0 0 I I #
coedge $-1 $414 $414 $-1 $583 reversed $262 $-1 #
edge $-1 $584 0 $584 6.2831853071796004 $263 $585 forward 7 unknown #
vertex $-1 $266 $586 #
ellipse-curve $-1 -45.622472877260641 -13.691606353407392 3.2705273961155852 -0.57357644374324357 0 0.81915203911291934 0.40957601955645967 0 0.28678822187162178 1 I I #
coedge $-1 $418 $418 $-1 $587 reversed $269 $-1 #
edge $-1 $588 0 $588 6.2831853071796004 $270 $589 forward 7 unknown #
vertex $-1 $273 $590 #
ellipse-curve $-1 -45.622472877260641 -11.068687615300547 3.2705273961155852 -0.57357644374324357 0 0.81915203911291934 0.40957601955645967 0 0.28678822187162178 1 I I #
face $-1 $-1 $591 $59 $-1 $592 reversed single #
loop $-1 $-1 $280 $274 #
plane-surface $-1 0 0 6.0119601894203099 0 0 1 1 0 0 forward_v I I I I #
coedge $-1 $593 $594 $595 $596 reversed $275 $-1 #
coedge $-1 $597 $277 $279 $432 forward $173 $-1 #
coedge $-1 $277 $597 $593 $598 forward $173 $-1 #
coedge $-1 $595 $280 $277 $429 forward $423 $-1 #
edge $-1 $435 -4.1651507223711066 $599 1.9549929998782014 $428 $600 forward 7 unknown #
coedge $-1 $601 $602 $278 $431 forward $591 $-1 #
edge $-1 $603 -40.314315270331093 $434 -34.831449683721644 $430 $604 forward 7 unknown #
edge $-1 $435 -9.5590843145988877 $603 0 $279 $605 forward 7 unknown #
coedge $-1 $280 $595 $601 $606 forward $423 $-1 #
vertex $-1 $281 $607 #
vertex $-1 $281 $608 #
straight-curve $-1 -53.182448301157656 -5.2702295836175592 6.0119601894203072 1 0 0 I I #
coedge $-1 $437 $437 $-1 $609 reversed $284 $-1 #
edge $-1 $610 0 $610 6.2831853071796004 $285 $611 forward 7 unknown #
vertex $-1 $288 $612 #
ellipse-curve $-1 -45.622472877260641 -3.5216170915463287 3.2705273961155852 -0.57357644374324357 0 0.81915203911291934 0.40957601955645967 0 0.28678822187162178 1 I I #
coedge $-1 $441 $441 $-1 $613 reversed $291 $-1 #
edge $-1 $614 0 $614 6.2831853071796004 $292 $615 forward 7 unknown #
vertex $-1 $295 $616 #
ellipse-curve $-1 -45.622472877260641 -0.89869835343948168 3.2705273961155852 -0.57357644374324357 0 0.81915203911291934 0.40957601955645967 0 0.28678822187162178 1 I I #
face $-1 $-1 $617 $62 $-1 $618 reversed single #
loop $-1 $-1 $302 $296 #
plane-surface $-1 0 0 6.0119601894203099 0 0 1 1 0 0 forward_v I I I I #
coedge $-1 $619 $620 $621 $622 reversed $297 $-1 #
coedge $-1 $623 $299 $301 $455 forward $187 $-1 #
coedge $-1 $299 $623 $619 $624 forward $187 $-1 #
coedge $-1 $621 $302 $299 $452 forward $446 $-1 #
edge $-1 $458 0.91984390855942433 $625 7.0399876308087332 $451 $626 forward 7 unknown #
coedge $-1 $627 $628 $300 $454 forward $617 $-1 #
edge $-1 $629 -40.314315270331093 $457 -34.831449683721644 $453 $630 forward 7 unknown #
edge $-1 $458 -9.5590843145988877 $629 0 $301 $631 forward 7 unknown #
coedge $-1 $302 $621 $627 $632 forward $446 $-1 #
vertex $-1 $303 $633 #
vertex $-1 $303 $634 #
straight-curve $-1 -53.182448301157656 4.8997596782435027 6.0119601894203072 1 0 0 I I #
coedge $-1 $460 $460 $-1 $635 reversed $306 $-1 #
edge $-1 $636 0 $636 6.2831853071796004 $307 $637 forward 7 unknown #
vertex $-1 $310 $638 #
ellipse-curve $-1 -45.622472877260641 6.6483721703147332 3.2705273961155852 -0.57357644374324357 0 0.81915203911291934 0.40957601955645967 0 0.28678822187162178 1 I I #
coedge $-1 $464 $464 $-1 $639 reversed $313 $-1 #
edge $-1 $640 0 $640 6.2831853071796004 $314 $641 forward 7 unknown #
vertex $-1 $317 $642 #
ellipse-curve $-1 -45.622472877260641 9.2712909084215802 3.2705273961155852 -0.57357644374324357 0 0.81915203911291934 0.40957601955645967 0 0.28678822187162178 1 I I #
face $-1 $-1 $643 $65 $-1 $644 reversed single #
loop $-1 $-1 $324 $318 #
plane-surface $-1 0 0 6.0119601894203099 0 0 1 1 0 0 forward_v I I I I #
coedge $-1 $645 $646 $647 $648 reversed $319 $-1 #
coedge $-1 $649 $321 $323 $478 forward $201 $-1 #
coedge $-1 $321 $649 $645 $650 forward $201 $-1 #
coedge $-1 $647 $324 $321 $475 forward $469 $-1 #
edge $-1 $481 6.0048385394899544 $651 12.124982261739264 $474 $652 forward 7 unknown #
coedge $-1 $653 $654 $322 $477 forward $643 $-1 #
edge $-1 $655 -40.314315270331093 $480 -34.831449683721644 $476 $656 forward 7 unknown #
edge $-1 $481 -9.5590843145988877 $655 0 $323 $657 forward 7 unknown #
coedge $-1 $324 $647 $653 $658 forward $469 $-1 #
vertex $-1 $325 $659 #
vertex $-1 $325 $660 #
straight-curve $-1 -53.182448301157656 15.069748940104564 6.0119601894203072 1 0 0 I I #
coedge $-1 $483 $483 $-1 $661 reversed $328 $-1 #
edge $-1 $662 0 $662 6.2831853071796004 $329 $663 forward 7 unknown #
vertex $-1 $332 $664 #
ellipse-curve $-1 -45.622472877260641 16.818361432175795 3.2705273961155852 -0.57357644374324357 0 0.81915203911291934 0.40957601955645967 0 0.28678822187162178 1 I I #
coedge $-1 $487 $487 $-1 $665 reversed $335 $-1 #
edge $-1 $666 0 $666 6.2831853071796004 $336 $667 forward 7 unknown #
vertex $-1 $339 $668 #
ellipse-curve $-1 -45.622472877260641 19.441280170282642 3.2705273961155852 -0.57357644374324357 0 0.81915203911291934 0.40957601955645967 0 0.28678822187162178 1 I I #
face $-1 $-1 $355 $51 $-1 $669 reversed single #
loop $-1 $-1 $507 $340 #
plane-surface $-1 0 23.245215057552603 0 0 -1 0 0 0 -1 forward_v I I I I #
coedge $-1 $670 $505 $508 $671 forward $341 $-1 #
coedge $-1 $511 $343 $344 $499 reversed $215 $-1 #
coedge $-1 $505 $670 $343 $497 reversed $341 $-1 #
edge $-1 $512 -6.0119601894203099 $672 6.0119601894203099 $496 $673 forward 7 unknown #
coedge $-1 $345 $344 $670 $674 forward $137 $-1 #
edge $-1 $503 -49.537644581438641 $672 49.537644581438641 $495 $675 forward 7 unknown #
coedge $-1 $508 $507 $345 $501 reversed $492 $-1 #
edge $-1 $676 -49.537644581438641 $502 49.537644581438641 $500 $677 forward 7 unknown #
vertex $-1 $347 $678 #
vertex $-1 $514 $679 #
straight-curve $-1 49.537644581438641 0 -6.0119601894203099 0 -1 0 I I #
coedge $-1 $494 $496 $348 $506 reversed $341 $-1 #
edge $-1 $509 -23.245215057552603 $512 23.245215057552603 $505 $680 forward 7 unknown #
coedge $-1 $500 $349 $354 $515 forward $492 $-1 #
coedge $-1 $349 $500 $494 $671 reversed $492 $-1 #
vertex $-1 $350 $681 #
straight-curve $-1 0 23.245215057552603 6.0119601894203099 -1 0 0 I I #
coedge $-1 $351 $495 $353 $514 reversed $215 $-1 #
vertex $-1 $506 $682 #
straight-curve $-1 0 -23.245215057552603 6.0119601894203099 1 0 0 I I #
edge $-1 $356 -6.0119601894203099 $503 6.0119601894203099 $353 $683 forward 7 unknown #
edge $-1 $357 -6.0119601894203099 $502 6.0119601894203099 $354 $684 forward 7 unknown #
point $-1 49.537644581438641 -23.245215057552603 6.0119601894203099 #
point $-1 49.537644581438641 23.245215057552603 6.0119601894203099 #
face $-1 $-1 $372 $52 $-1 $685 reversed single #
loop $-1 $-1 $525 $359 #
plane-surface $-1 0 0 6.0119601894203099 0 0 1 1 0 0 forward_v I I I I #
coedge $-1 $686 $362 $367 $530 forward $223 $-1 #
coedge $-1 $362 $686 $687 $688 reversed $223 $-1 #
coedge $-1 $364 $363 $362 $524 reversed $141 $-1 #
edge $-1 $689 -3.7559800947101549 $535 -0.75598009471015493 $362 $690 forward 7 unknown #
coedge $-1 $687 $691 $364 $526 forward $519 $-1 #
edge $-1 $528 -49.537644581438641 $689 49.537644581438641 $525 $692 forward 7 unknown #
coedge $-1 $371 $365 $691 $693 reversed $372 $-1 #
vertex $-1 $366 $694 #
straight-curve $-1 49.537644581438641 -17.495541240677351 2.2559800947101549 0 0 1 I I #
edge $-1 $535 7.3103521661198627 $533 13.060025982995114 $521 $695 forward 7 unknown #
coedge $-1 $696 $368 $371 $537 reversed $360 $-1 #
coedge $-1 $368 $696 $686 $697 forward $360 $-1 #
vertex $-1 $369 $698 #
straight-curve $-1 0 -23.245215057552603 3.0119601894203099 1 0 0 I I #
vertex $-1 $530 $699 #
straight-curve $-1 0 -17.495541240677351 3.0119601894203099 1 0 0 I I #
edge $-1 $700 -6.0119601894203099 $373 -3.0119601894203099 $371 $701 forward 7 unknown #
point $-1 49.537644581438641 -23.245215057552603 3.0119601894203099 #
point $-1 49.537644581438641 -17.495541240677351 3.0119601894203099 #
loop $-1 $-1 $384 $376 #
plane-surface $-1 49.537644581438641 0 0 -1 0 0 0 0 1 forward_v I I I I #
coedge $-1 $543 $379 $702 $703 reversed $231 $-1 #
coedge $-1 $379 $542 $546 $704 reversed $231 $-1 #
edge $-1 $705 -99.075289162877311 $547 -93.977279670935758 $379 $706 forward 7 unknown #
coedge $-1 $381 $380 $550 $707 reversed $145 $-1 #
coedge $-1 $387 $382 $543 $704 forward $377 $-1 #
vertex $-1 $704 $708 #
straight-curve $-1 45.932807540958692 -6.1220843811110335 6.0119601894203072 0 -1 0 I I #
coedge $-1 $702 $384 $387 $554 reversed $540 $-1 #
coedge $-1 $384 $702 $545 $707 forward $540 $-1 #
vertex $-1 $385 $709 #
straight-curve $-1 49.537644581438641 -6.9927962837667828 71.260370347733456 0 0 1 I I #
straight-curve $-1 -20.519163420812205 -6.9927962837667828 72.463932693216066 0.70710677298230451 0 -0.70710678939079041 I I #
edge $-1 $710 -17.495541240677351 $388 -6.9927962837667828 $549 $711 forward 7 unknown #
point $-1 49.537644581438641 -6.9927962837667828 6.0119601894203099 #
point $-1 45.932807540958692 -6.9927962837667828 6.0119601894203072 #
edge $-1 $712 1 $712 0 $391 $-1 forward 7 unknown #
vertex $-1 $392 $713 #
ellipse-curve $-1 45.733975952011576 -14.494756967274331 2.2082915646071437 0.70710678939079041 0 0.70710677298230451 0.70710677298230451 0 -0.70710678939079041 1 I I #
point $-1 48.442332834180981 -14.494756967274331 3.5024348379642385 #
edge $-1 $714 1 $714 0 $395 $-1 forward 7 unknown #
vertex $-1 $396 $715 #
ellipse-curve $-1 45.733975952011576 -9.9935805571698015 2.2082915646071437 0.70710678939079041 0 0.70710677298230451 0.70710677298230451 0 -0.70710678939079041 1 I I #
point $-1 48.442332834180981 -9.9935805571698015 3.5024348379642385 #
loop $-1 $-1 $407 $399 #
plane-surface $-1 -49.537644581438641 0 0 1 0 0 0 0 -1 forward_v I I I I #
coedge $-1 $568 $402 $404 $572 reversed $253 $-1 #
coedge $-1 $402 $567 $716 $717 reversed $253 $-1 #
coedge $-1 $410 $405 $402 $570 forward $400 $-1 #
edge $-1 $573 -11.475147128075015 $718 -3.6448037197190146 $569 $719 forward 7 unknown #
coedge $-1 $404 $403 $576 $720 reversed $159 $-1 #
edge $-1 $721 0 $573 9.5590843145988877 $567 $722 forward 7 unknown #
vertex $-1 $406 $723 #
straight-curve $-1 -41.707301173082641 -6.1900734921769853 6.0119601894203107 0 1 0 I I #
coedge $-1 $716 $407 $410 $580 reversed $565 $-1 #
coedge $-1 $407 $716 $571 $720 forward $565 $-1 #
vertex $-1 $408 $724 #
straight-curve $-1 -49.537644581438641 -15.440218845478626 40.843409873141951 0 0 1 I I #
straight-curve $-1 -49.537644581438641 -15.440218845478626 0.52909460281085785 -0.81915203911291934 0 -0.57357644374324357 I I #
edge $-1 $718 9.3200751232293157 $411 15.440218845478626 $575 $725 forward 7 unknown #
point $-1 -49.537644581438641 -15.440218845478626 6.0119601894203099 #
point $-1 -41.707301173082641 -15.440218845478626 6.0119601894203099 #
edge $-1 $726 1 $726 0 $414 $-1 forward 7 unknown #
vertex $-1 $415 $727 #
ellipse-curve $-1 -44.613222001670543 -13.691606353407392 1.8291677975226552 -0.57357644374324357 0 0.81915203911291934 0.40957601955645967 0 0.28678822187162178 1 I I #
point $-1 -45.212896857704173 -13.691606353407392 3.557315617987205 #
edge $-1 $728 1 $728 0 $418 $-1 forward 7 unknown #
vertex $-1 $419 $729 #
ellipse-curve $-1 -44.613222001670543 -11.068687615300547 1.8291677975226552 -0.57357644374324357 0 0.81915203911291934 0.40957601955645967 0 0.28678822187162178 1 I I #
point $-1 -45.212896857704173 -11.068687615300547 3.557315617987205 #
loop $-1 $-1 $430 $422 #
plane-surface $-1 -49.537644581438641 0 0 1 0 0 0 0 -1 forward_v I I I I #
coedge $-1 $594 $425 $427 $598 reversed $275 $-1 #
coedge $-1 $425 $593 $730 $731 reversed $275 $-1 #
coedge $-1 $433 $428 $425 $596 forward $423 $-1 #
edge $-1 $599 -11.475147128075015 $732 -3.6448037197190146 $595 $733 forward 7 unknown #
coedge $-1 $427 $426 $602 $734 reversed $173 $-1 #
edge $-1 $735 0 $599 9.5590843145988877 $593 $736 forward 7 unknown #
vertex $-1 $429 $737 #
straight-curve $-1 -41.707301173082641 -1.1050788612464526 6.0119601894203107 0 1 0 I I #
coedge $-1 $730 $430 $433 $606 reversed $591 $-1 #
coedge $-1 $430 $730 $597 $734 forward $591 $-1 #
vertex $-1 $431 $738 #
straight-curve $-1 -49.537644581438641 -5.2702295836175592 40.843409873141951 0 0 1 I I #
straight-curve $-1 -49.537644581438641 -5.2702295836175592 0.52909460281085785 -0.81915203911291934 0 -0.57357644374324357 I I #
edge $-1 $732 -0.84991413863174881 $434 5.2702295836175592 $601 $739 forward 7 unknown #
point $-1 -49.537644581438641 -5.2702295836175592 6.0119601894203099 #
point $-1 -41.707301173082641 -5.2702295836175592 6.0119601894203099 #
edge $-1 $740 1 $740 0 $437 $-1 forward 7 unknown #
vertex $-1 $438 $741 #
ellipse-curve $-1 -44.613222001670543 -3.5216170915463287 1.8291677975226552 -0.57357644374324357 0 0.81915203911291934 0.40957601955645967 0 0.28678822187162178 1 I I #
point $-1 -45.212896857704173 -3.5216170915463287 3.557315617987205 #
edge $-1 $742 1 $742 0 $441 $-1 forward 7 unknown #
vertex $-1 $442 $743 #
ellipse-curve $-1 -44.613222001670543 -0.89869835343948168 1.8291677975226552 -0.57357644374324357 0 0.81915203911291934 0.40957601955645967 0 0.28678822187162178 1 I I #
point $-1 -45.212896857704173 -0.89869835343948168 3.557315617987205 #
loop $-1 $-1 $453 $445 #
plane-surface $-1 -49.537644581438641 0 0 1 0 0 0 0 -1 forward_v I I I I #
coedge $-1 $620 $448 $450 $624 reversed $297 $-1 #
coedge $-1 $448 $619 $744 $745 reversed $297 $-1 #
coedge $-1 $456 $451 $448 $622 forward $446 $-1 #
edge $-1 $625 -11.475147128075015 $746 -3.6448037197190146 $621 $747 forward 7 unknown #
coedge $-1 $450 $449 $628 $748 reversed $187 $-1 #
edge $-1 $749 0 $625 9.5590843145988877 $619 $750 forward 7 unknown #
vertex $-1 $452 $751 #
straight-curve $-1 -41.707301173082641 3.9799157696840783 6.0119601894203107 0 1 0 I I #
coedge $-1 $744 $453 $456 $632 reversed $617 $-1 #
coedge $-1 $453 $744 $623 $748 forward $617 $-1 #
vertex $-1 $454 $752 #
straight-curve $-1 -49.537644581438641 4.8997596782435027 40.843409873141951 0 0 1 I I #
straight-curve $-1 -49.537644581438641 4.8997596782435027 0.52909460281085785 -0.81915203911291934 0 -0.57357644374324357 I I #
edge $-1 $746 -11.019903400492812 $457 -4.8997596782435027 $627 $753 forward 7 unknown #
point $-1 -49.537644581438641 4.8997596782435027 6.0119601894203099 #
point $-1 -41.707301173082641 4.8997596782435027 6.0119601894203099 #
edge $-1 $754 1 $754 0 $460 $-1 forward 7 unknown #
vertex $-1 $461 $755 #
ellipse-curve $-1 -44.613222001670543 6.6483721703147332 1.8291677975226552 -0.57357644374324357 0 0.81915203911291934 0.40957601955645967 0 0.28678822187162178 1 I I #
point $-1 -45.212896857704173 6.6483721703147332 3.557315617987205 #
edge $-1 $756 1 $756 0 $464 $-1 forward 7 unknown #
vertex $-1 $465 $757 #
ellipse-curve $-1 -44.613222001670543 9.2712909084215802 1.8291677975226552 -0.57357644374324357 0 0.81915203911291934 0.40957601955645967 0 0.28678822187162178 1 I I #
point $-1 -45.212896857704173 9.2712909084215802 3.557315617987205 #
loop $-1 $-1 $476 $468 #
plane-surface $-1 -49.537644581438641 0 0 1 0 0 0 0 -1 forward_v I I I I #
coedge $-1 $646 $471 $473 $650 reversed $319 $-1 #
coedge $-1 $471 $645 $758 $759 reversed $319 $-1 #
coedge $-1 $479 $474 $471 $648 forward $469 $-1 #
edge $-1 $651 -11.475147128075015 $760 -3.6448037197190146 $647 $761 forward 7 unknown #
coedge $-1 $473 $472 $654 $762 reversed $201 $-1 #
edge $-1 $763 0 $651 9.5590843145988877 $645 $764 forward 7 unknown #
vertex $-1 $475 $765 #
straight-curve $-1 -41.707301173082641 9.0649104006146093 6.0119601894203107 0 1 0 I I #
coedge $-1 $758 $476 $479 $658 reversed $643 $-1 #
coedge $-1 $476 $758 $649 $762 forward $643 $-1 #
vertex $-1 $477 $766 #
straight-curve $-1 -49.537644581438641 15.069748940104564 40.843409873141951 0 0 1 I I #
straight-curve $-1 -49.537644581438641 15.069748940104564 0.52909460281085785 -0.81915203911291934 0 -0.57357644374324357 I I #
edge $-1 $760 -21.189892662353873 $480 -15.069748940104564 $653 $767 forward 7 unknown #
point $-1 -49.537644581438641 15.069748940104564 6.0119601894203099 #
point $-1 -41.707301173082641 15.069748940104564 6.0119601894203099 #
edge $-1 $768 1 $768 0 $483 $-1 forward 7 unknown #
vertex $-1 $484 $769 #
ellipse-curve $-1 -44.613222001670543 16.818361432175795 1.8291677975226552 -0.57357644374324357 0 0.81915203911291934 0.40957601955645967 0 0.28678822187162178 1 I I #
point $-1 -45.212896857704173 16.818361432175795 3.557315617987205 #
edge $-1 $770 1 $770 0 $487 $-1 forward 7 unknown #
vertex $-1 $488 $771 #
ellipse-curve $-1 -44.613222001670543 19.441280170282642 1.8291677975226552 -0.57357644374324357 0 0.81915203911291934 0.40957601955645967 0 0.28678822187162178 1 I I #
point $-1 -45.212896857704173 19.441280170282642 3.557315617987205 #
plane-surface $-1 49.537644581438641 0 0 -1 0 0 0 0 1 forward_v I I I I #
coedge $-1 $496 $494 $498 $674 reversed $341 $-1 #
edge $-1 $509 -6.0119601894203099 $676 6.0119601894203099 $508 $772 forward 7 unknown #
vertex $-1 $674 $773 #
straight-curve $-1 -49.537644581438641 -23.245215057552603 0 0 0 -1 I I #
edge $-1 $672 -23.245215057552603 $676 23.245215057552603 $670 $774 forward 7 unknown #
straight-curve $-1 0 -23.245215057552603 -6.0119601894203099 -1 0 0 I I #
vertex $-1 $501 $775 #
straight-curve $-1 0 23.245215057552603 -6.0119601894203099 1 0 0 I I #
point $-1 49.537644581438641 23.245215057552603 -6.0119601894203099 #
point $-1 49.537644581438641 -23.245215057552603 -6.0119601894203099 #
straight-curve $-1 -49.537644581438641 0 6.0119601894203099 0 -1 0 I I #
point $-1 -49.537644581438641 23.245215057552603 6.0119601894203099 #
point $-1 -49.537644581438641 -23.245215057552603 6.0119601894203099 #
straight-curve $-1 49.537644581438641 -23.245215057552603 0 0 0 -1 I I #
straight-curve $-1 49.537644581438641 23.245215057552603 0 0 0 -1 I I #
plane-surface $-1 49.537644581438641 0 0 -1 0 0 0 0 1 forward_v I I I I #
coedge $-1 $522 $521 $532 $697 reversed $223 $-1 #
coedge $-1 $776 $525 $522 $688 forward $519 $-1 #
edge $-1 $689 17.495541240677351 $777 23.245215057552603 $522 $778 forward 7 unknown #
vertex $-1 $688 $779 #
straight-curve $-1 -49.537644581438641 -17.495541240677351 2.2559800947101549 0 0 -1 I I #
coedge $-1 $525 $776 $527 $693 forward $519 $-1 #
straight-curve $-1 0 -17.495541240677351 6.0119601894203099 -1 0 0 I I #
edge $-1 $700 -23.245215057552603 $528 -17.495541240677351 $527 $780 forward 7 unknown #
point $-1 49.537644581438641 -17.495541240677351 6.0119601894203099 #
straight-curve $-1 -49.537644581438641 -10.185189074557488 3.0119601894203099 0 -1 0 I I #
coedge $-1 $532 $531 $776 $781 reversed $360 $-1 #
edge $-1 $777 -6.0119601894203099 $533 -3.0119601894203099 $686 $782 forward 7 unknown #
point $-1 -49.537644581438641 -23.245215057552603 3.0119601894203099 #
point $-1 -49.537644581438641 -17.495541240677351 3.0119601894203099 #
vertex $-1 $693 $783 #
straight-curve $-1 49.537644581438641 -23.245215057552603 0 0 0 -1 I I #
coedge $-1 $550 $549 $542 $703 forward $540 $-1 #
edge $-1 $710 65.248410158313149 $705 68.853247282443718 $702 $784 forward 7 unknown #
edge $-1 $547 45.932807540958692 $710 49.537644581438641 $546 $785 forward 7 unknown #
vertex $-1 $703 $786 #
straight-curve $-1 -20.519163420812205 -17.495541240677351 72.463932693216066 -0.70710677298230451 0 0.70710678939079041 I I #
edge $-1 $705 -11.373456859566318 $551 -0.87071190265574927 $550 $787 forward 7 unknown #
point $-1 45.932807540958692 -17.495541240677351 6.0119601894203099 #
point $-1 49.537644581438641 -6.9927962837667828 2.4071230652897384 #
vertex $-1 $554 $788 #
straight-curve $-1 49.537644581438641 0 6.0119601894203099 0 1 0 I I #
vertex $-1 $557 $789 #
point $-1 46.441082724993876 -14.494756967274331 1.5011847752163534 #
vertex $-1 $561 $790 #
point $-1 46.441082724993876 -9.9935805571698015 1.5011847752163534 #
coedge $-1 $576 $575 $568 $717 forward $565 $-1 #
edge $-1 $718 34.831449683721644 $721 40.314315270331093 $716 $791 forward 7 unknown #
vertex $-1 $580 $792 #
straight-curve $-1 -53.182448301157656 -9.3200751232293157 6.0119601894203072 -1 0 0 I I #
edge $-1 $721 3.1300016310523304 $577 9.2501453533016402 $576 $793 forward 7 unknown #
vertex $-1 $720 $794 #
straight-curve $-1 -49.537644581438641 -9.3200751232293157 0.52909460281085785 0.81915203911291934 0 0.57357644374324357 I I #
point $-1 -41.707301173082641 -9.3200751232293157 6.0119601894203099 #
point $-1 -49.537644581438641 -15.440218845478626 0.52909460281085785 #
straight-curve $-1 -49.537644581438641 0 6.0119601894203099 0 -1 0 I I #
vertex $-1 $583 $795 #
point $-1 -44.203645982114082 -13.691606353407392 2.115956019394277 #
vertex $-1 $587 $796 #
point $-1 -44.203645982114082 -11.068687615300547 2.115956019394277 #
coedge $-1 $602 $601 $594 $731 forward $591 $-1 #
edge $-1 $732 34.831449683721644 $735 40.314315270331093 $730 $797 forward 7 unknown #
vertex $-1 $606 $798 #
straight-curve $-1 -53.182448301157656 0.84991413863174881 6.0119601894203072 -1 0 0 I I #
edge $-1 $735 -1.9549929998782014 $603 4.1651507223711066 $602 $799 forward 7 unknown #
vertex $-1 $734 $800 #
straight-curve $-1 -49.537644581438641 0.84991413863174881 0.52909460281085785 0.81915203911291934 0 0.57357644374324357 I I #
point $-1 -41.707301173082641 0.84991413863174881 6.0119601894203099 #
point $-1 -49.537644581438641 -5.2702295836175592 0.52909460281085785 #
straight-curve $-1 -49.537644581438641 0 6.0119601894203099 0 -1 0 I I #
vertex $-1 $609 $801 #
point $-1 -44.203645982114082 -3.5216170915463287 2.115956019394277 #
vertex $-1 $613 $802 #
point $-1 -44.203645982114082 -0.89869835343948168 2.115956019394277 #
coedge $-1 $628 $627 $620 $745 forward $617 $-1 #
edge $-1 $746 34.831449683721644 $749 40.314315270331093 $744 $803 forward 7 unknown #
vertex $-1 $632 $804 #
straight-curve $-1 -53.182448301157656 11.019903400492812 6.0119601894203072 -1 0 0 I I #
edge $-1 $749 -7.0399876308087332 $629 -0.91984390855942433 $628 $805 forward 7 unknown #
vertex $-1 $748 $806 #
straight-curve $-1 -49.537644581438641 11.019903400492812 0.52909460281085785 0.81915203911291934 0 0.57357644374324357 I I #
point $-1 -41.707301173082641 11.019903400492812 6.0119601894203099 #
point $-1 -49.537644581438641 4.8997596782435027 0.52909460281085785 #
straight-curve $-1 -49.537644581438641 0 6.0119601894203099 0 -1 0 I I #
vertex $-1 $635 $807 #
point $-1 -44.203645982114082 6.6483721703147332 2.115956019394277 #
vertex $-1 $639 $808 #
point $-1 -44.203645982114082 9.2712909084215802 2.115956019394277 #
coedge $-1 $654 $653 $646 $759 forward $643 $-1 #
edge $-1 $760 34.831449683721644 $763 40.314315270331093 $758 $809 forward 7 unknown #
vertex $-1 $658 $810 #
straight-curve $-1 -53.182448301157656 21.189892662353873 6.0119601894203072 -1 0 0 I I #
edge $-1 $763 -12.124982261739264 $655 -6.0048385394899544 $654 $811 forward 7 unknown #
vertex $-1 $762 $812 #
straight-curve $-1 -49.537644581438641 21.189892662353873 0.52909460281085785 0.81915203911291934 0 0.57357644374324357 I I #
point $-1 -41.707301173082641 21.189892662353873 6.0119601894203099 #
point $-1 -49.537644581438641 15.069748940104564 0.52909460281085785 #
straight-curve $-1 -49.537644581438641 0 6.0119601894203099 0 -1 0 I I #
vertex $-1 $661 $813 #
point $-1 -44.203645982114082 16.818361432175795 2.115956019394277 #
vertex $-1 $665 $814 #
point $-1 -44.203645982114082 19.441280170282642 2.115956019394277 #
straight-curve $-1 -49.537644581438641 23.245215057552603 0 0 0 -1 I I #
point $-1 -49.537644581438641 -23.245215057552603 -6.0119601894203099 #
straight-curve $-1 -49.537644581438641 0 -6.0119601894203099 0 1 0 I I #
point $-1 -49.537644581438641 23.245215057552603 -6.0119601894203099 #
coedge $-1 $691 $687 $696 $781 forward $519 $-1 #
vertex $-1 $688 $815 #
straight-curve $-1 -49.537644581438641 0 6.0119601894203099 0 -1 0 I I #
point $-1 -49.537644581438641 -17.495541240677351 6.0119601894203099 #
straight-curve $-1 49.537644581438641 0 6.0119601894203099 0 1 0 I I #
edge $-1 $777 -49.537644581438641 $700 49.537644581438641 $696 $816 forward 7 unknown #
straight-curve $-1 -49.537644581438641 -23.245215057552603 0 0 0 -1 I I #
point $-1 49.537644581438641 -23.245215057552603 6.0119601894203099 #
straight-curve $-1 49.537644581438641 -17.495541240677351 71.260370347733456 0 0 -1 I I #
straight-curve $-1 0 -17.495541240677351 6.0119601894203099 1 0 0 I I #
point $-1 49.537644581438641 -17.495541240677351 2.4071230652897384 #
straight-curve $-1 49.537644581438649 -6.1220843811110335 2.4071230652897313 0 1 0 I I #
point $-1 49.537644581438641 -17.495541240677351 6.0119601894203099 #
point $-1 45.026869162620784 -14.494756967274331 1.5011847916248393 #
point $-1 45.026869162620784 -9.9935805571698015 1.5011847916248393 #
straight-curve $-1 -49.537644581438641 -9.3200751232293157 40.843409873141951 0 0 -1 I I #
point $-1 -49.537644581438641 -9.3200751232293157 6.0119601894203099 #
straight-curve $-1 -49.537644581438641 -6.1900734921769853 0.52909460281085985 0 -1 0 I I #
point $-1 -49.537644581438641 -9.3200751232293157 0.52909460281085785 #
point $-1 -44.326433779798926 -13.691606353407392 1.4195917779661957 #
point $-1 -44.326433779798926 -11.068687615300547 1.4195917779661957 #
straight-curve $-1 -49.537644581438641 0.84991413863174881 40.843409873141951 0 0 -1 I I #
point $-1 -49.537644581438641 0.84991413863174881 6.0119601894203099 #
straight-curve $-1 -49.537644581438641 -1.1050788612464526 0.52909460281085985 0 -1 0 I I #
point $-1 -49.537644581438641 0.84991413863174881 0.52909460281085785 #
point $-1 -44.326433779798926 -3.5216170915463287 1.4195917779661957 #
point $-1 -44.326433779798926 -0.89869835343948168 1.4195917779661957 #
straight-curve $-1 -49.537644581438641 11.019903400492812 40.843409873141951 0 0 -1 I I #
point $-1 -49.537644581438641 11.019903400492812 6.0119601894203099 #
straight-curve $-1 -49.537644581438641 3.9799157696840783 0.52909460281085985 0 -1 0 I I #
point $-1 -49.537644581438641 11.019903400492812 0.52909460281085785 #
point $-1 -44.326433779798926 6.6483721703147332 1.4195917779661957 #
point $-1 -44.326433779798926 9.2712909084215802 1.4195917779661957 #
straight-curve $-1 -49.537644581438641 21.189892662353873 40.843409873141951 0 0 -1 I I #
point $-1 -49.537644581438641 21.189892662353873 6.0119601894203099 #
straight-curve $-1 -49.537644581438641 9.0649104006146093 0.52909460281085985 0 -1 0 I I #
point $-1 -49.537644581438641 21.189892662353873 0.52909460281085785 #
point $-1 -44.326433779798926 16.818361432175795 1.4195917779661957 #
point $-1 -44.326433779798926 19.441280170282642 1.4195917779661957 #
point $-1 -49.537644581438641 -23.245215057552603 6.0119601894203099 #
straight-curve $-1 0 -23.245215057552603 6.0119601894203099 1 0 0 I I #
End-of-ACIS-data 