500 0 10 0           
7 Unknown 11 ACIS 5.0 NT 24 Fri Mar 26 15:03:54 1999 
-1 9.9999999999999995e-007 1e-010 
body $-1 $10 $-1 $11 #
body $-1 $12 $-1 $13 #
body $-1 $14 $-1 $15 #
body $-1 $16 $-1 $17 #
body $-1 $18 $-1 $19 #
body $-1 $20 $-1 $21 #
body $-1 $22 $-1 $23 #
body $-1 $24 $-1 $25 #
body $-1 $26 $-1 $27 #
body $-1 $28 $-1 $29 #
lump $-1 $-1 $30 $0 #
transform $-1 1 0 0 0 1 0 0 0 1 50.779137546922207 26.980804420092763 11.727390633037176 1 rotate no_reflect no_shear #
lump $-1 $-1 $31 $1 #
transform $-1 1 0 0 0 1 0 0 0 1 50.779137546922207 26.980804420092763 11.727390633037176 1 rotate no_reflect no_shear #
lump $-1 $-1 $32 $2 #
transform $-1 1 0 0 0 1 0 0 0 1 50.779137546922207 26.980804420092763 11.727390633037176 1 rotate no_reflect no_shear #
lump $-1 $-1 $33 $3 #
transform $-1 1 0 0 0 1 0 0 0 1 50.779137546922207 26.980804420092763 11.727390633037176 1 rotate no_reflect no_shear #
lump $-1 $-1 $34 $4 #
transform $-1 1 0 0 0 1 0 0 0 1 50.779137546922207 26.980804420092763 11.727390633037176 1 rotate no_reflect no_shear #
lump $-1 $-1 $35 $5 #
transform $-1 1 0 0 0 1 0 0 0 1 50.779137546922207 26.980804420092763 11.727390633037176 1 rotate no_reflect no_shear #
lump $-1 $-1 $36 $6 #
transform $-1 1 0 0 0 1 0 0 0 1 50.779137546922207 26.980804420092763 11.727390633037176 1 rotate no_reflect no_shear #
lump $-1 $-1 $37 $7 #
transform $-1 1 0 0 0 1 0 0 0 1 50.779137546922207 26.980804420092763 11.727390633037176 1 rotate no_reflect no_shear #
lump $-1 $-1 $38 $8 #
transform $-1 1 0 0 0 1 0 0 0 1 50.779137546922207 26.980804420092763 11.727390633037176 1 rotate no_reflect no_shear #
lump $-1 $-1 $39 $9 #
transform $-1 1 0 0 0 1 0 0 0 1 50.779137546922207 26.980804420092763 11.727390633037176 1 rotate no_reflect no_shear #
shell $-1 $-1 $-1 $40 $-1 $10 #
shell $-1 $-1 $-1 $41 $-1 $12 #
shell $-1 $-1 $-1 $42 $-1 $14 #
shell $-1 $-1 $-1 $43 $-1 $16 #
shell $-1 $-1 $-1 $44 $-1 $18 #
shell $-1 $-1 $-1 $45 $-1 $20 #
shell $-1 $-1 $-1 $46 $-1 $22 #
shell $-1 $-1 $-1 $47 $-1 $24 #
shell $-1 $-1 $-1 $48 $-1 $26 #
shell $-1 $-1 $-1 $49 $-1 $28 #
face $-1 $50 $51 $30 $-1 $52 forward single #
face $-1 $53 $54 $31 $-1 $55 forward single #
face $-1 $56 $57 $32 $-1 $58 reversed single #
face $-1 $59 $60 $33 $-1 $61 forward single #
face $-1 $62 $63 $34 $-1 $64 reversed single #
face $-1 $65 $66 $35 $-1 $67 forward single #
face $-1 $68 $69 $36 $-1 $70 reversed single #
face $-1 $71 $72 $37 $-1 $73 forward single #
face $-1 $74 $75 $38 $-1 $76 reversed single #
face $-1 $77 $78 $39 $-1 $79 forward single #
face $-1 $80 $81 $30 $-1 $82 reversed single #
loop $-1 $-1 $83 $40 #
plane-surface $-1 0 0 11.727390633037176 0 0 1 1 0 0 forward_v I I I I #
face $-1 $84 $85 $31 $-1 $86 reversed single #
loop $-1 $-1 $87 $41 #
plane-surface $-1 0 -26.980804420092763 0 0 1 0 0 0 1 forward_v I I I I #
face $-1 $88 $89 $32 $-1 $90 reversed single #
loop $-1 $-1 $91 $42 #
plane-surface $-1 -134.97476422358528 -9.1801467764428875 59.315368279984469 0 1 0 -0.82903758062907751 0 0.55919289150049634 forward_v I I I I #
face $-1 $92 $93 $33 $-1 $94 forward single #
loop $-1 $95 $96 $43 #
cone-surface $-1 -45.787595258986336 -5.7824121171109546 5.8526443299693582 0.82903758062907751 0 -0.55919289150049634 0.83878933725074445 0 1.2435563709436162 1 I I 0 1 1.5 forward I I I I #
face $-1 $97 $98 $34 $-1 $99 reversed single #
loop $-1 $-1 $100 $44 #
plane-surface $-1 -134.97476422358528 15.878023360255549 59.315368279984469 0 1 0 -0.82903758062907751 0 0.55919289150049634 forward_v I I I I #
face $-1 $101 $102 $35 $-1 $103 forward single #
loop $-1 $104 $105 $45 #
cone-surface $-1 -45.787595258986336 19.275758019587482 5.8526443299693582 0.82903758062907751 0 -0.55919289150049634 0.83878933725074445 0 1.2435563709436162 1 I I 0 1 1.5 forward I I I I #
face $-1 $106 $107 $36 $-1 $108 reversed single #
loop $-1 $-1 $109 $46 #
plane-surface $-1 60.797919177251337 3.0126338629357523 148.35472913634794 0 -1 0 -0.75470958851134928 0 -0.65605901945558964 forward_v I I I I #
face $-1 $110 $111 $37 $-1 $112 forward single #
loop $-1 $113 $114 $47 #
cone-surface $-1 46.94689485749678 -0.16534470125432676 7.5838984955542159 -0.75470958851134928 0 -0.65605901945558964 0.65605901945558964 0 -0.75470958851134928 1 I I 0 1 1 forward I I I I #
face $-1 $115 $116 $38 $-1 $117 reversed single #
loop $-1 $-1 $118 $48 #
plane-surface $-1 60.797919177251337 23.24676533179025 148.35472913634794 0 -1 0 -0.75470958851134928 0 -0.65605901945558964 forward_v I I I I #
face $-1 $119 $120 $39 $-1 $121 forward single #
loop $-1 $122 $123 $49 #
cone-surface $-1 46.94689485749678 20.068786767600169 7.5838984955542159 -0.75470958851134928 0 -0.65605901945558964 0.65605901945558964 0 -0.75470958851134928 1 I I 0 1 1 forward I I I I #
face $-1 $124 $125 $30 $-1 $126 reversed single #
loop $-1 $-1 $127 $50 #
plane-surface $-1 0 0 -11.727390633037176 0 0 1 1 0 0 forward_v I I I I #
coedge $-1 $128 $129 $130 $131 forward $51 $-1 #
face $-1 $132 $133 $31 $-1 $134 reversed single #
loop $-1 $-1 $135 $53 #
plane-surface $-1 0 0 -11.727390633037176 0 0 1 1 0 0 forward_v I I I I #
coedge $-1 $136 $137 $138 $139 forward $54 $-1 #
face $-1 $140 $141 $32 $-1 $142 reversed single #
loop $-1 $-1 $143 $56 #
plane-surface $-1 -50.779137546922215 -5.7824121171109546 2.5247027744547665 -0.82903758062907751 0 0.55919289150049634 0.55919289150049634 0 0.82903758062907751 forward_v I I I I #
coedge $-1 $144 $145 $146 $147 reversed $57 $-1 #
face $-1 $-1 $148 $33 $-1 $149 forward single #
loop $-1 $150 $151 $59 #
cone-surface $-1 -43.277920358142651 -5.7824121171109546 4.1598472875673718 0.82903758062907751 0 -0.55919289150049634 0.41939466862537222 0 0.62177818547180808 1 I I -0.70710678118654757 0.70710678118654757 0.75 forward I I I I #
loop $-1 $-1 $152 $43 #
coedge $-1 $96 $96 $153 $154 reversed $60 $-1 #
face $-1 $155 $156 $34 $-1 $157 reversed single #
loop $-1 $-1 $158 $62 #
plane-surface $-1 -50.779137546922215 19.275758019587482 2.5247027744547665 -0.82903758062907751 0 0.55919289150049634 0.55919289150049634 0 0.82903758062907751 forward_v I I I I #
coedge $-1 $159 $160 $161 $162 reversed $63 $-1 #
face $-1 $-1 $163 $35 $-1 $164 forward single #
loop $-1 $165 $166 $65 #
cone-surface $-1 -43.277920358142651 19.275758019587482 4.1598472875673718 0.82903758062907751 0 -0.55919289150049634 0.41939466862537222 0 0.62177818547180808 1 I I -0.70710678118654757 0.70710678118654757 0.75 forward I I I I #
loop $-1 $-1 $167 $45 #
coedge $-1 $105 $105 $168 $169 reversed $66 $-1 #
face $-1 $170 $171 $36 $-1 $172 reversed single #
loop $-1 $-1 $173 $68 #
plane-surface $-1 -15.849084828746392 -0.16534470125432321 81.726506760679342 0.75470958851134928 0 0.65605901945558964 0.65605901945558964 0 -0.75470958851134928 forward_v I I I I #
coedge $-1 $174 $175 $176 $177 reversed $69 $-1 #
face $-1 $-1 $178 $37 $-1 $179 forward single #
loop $-1 $180 $181 $71 #
cone-surface $-1 45.626757683659797 -0.16534470125432676 6.4363207875212378 -0.75470958851134928 0 -0.65605901945558964 0.32802950972779482 0 -0.37735479425567464 1 I I -0.70710678118654746 0.70710678118654746 0.5 forward I I I I #
loop $-1 $-1 $182 $47 #
coedge $-1 $114 $114 $183 $184 reversed $72 $-1 #
face $-1 $185 $186 $38 $-1 $187 reversed single #
loop $-1 $-1 $188 $74 #
plane-surface $-1 -15.849084828746392 20.068786767600177 81.726506760679342 0.75470958851134928 0 0.65605901945558964 0.65605901945558964 0 -0.75470958851134928 forward_v I I I I #
coedge $-1 $189 $190 $191 $192 reversed $75 $-1 #
face $-1 $-1 $193 $39 $-1 $194 forward single #
loop $-1 $195 $196 $77 #
cone-surface $-1 45.626757683659797 20.068786767600169 6.4363207875212378 -0.75470958851134928 0 -0.65605901945558964 0.32802950972779482 0 -0.37735479425567464 1 I I -0.70710678118654746 0.70710678118654746 0.5 forward I I I I #
loop $-1 $-1 $197 $49 #
coedge $-1 $123 $123 $198 $199 reversed $78 $-1 #
face $-1 $200 $201 $30 $-1 $202 reversed single #
loop $-1 $-1 $203 $80 #
plane-surface $-1 0 -26.980804420092763 0 0 1 0 0 0 1 forward_v I I I I #
coedge $-1 $204 $205 $206 $207 forward $81 $-1 #
coedge $-1 $208 $83 $209 $210 forward $51 $-1 #
coedge $-1 $83 $208 $211 $212 forward $51 $-1 #
coedge $-1 $213 $214 $83 $131 reversed $215 $-1 #
edge $-1 $216 -26.980804420092763 $217 26.980804420092763 $130 $218 forward 7 unknown #
face $-1 $219 $220 $31 $-1 $221 forward single #
loop $-1 $-1 $222 $84 #
plane-surface $-1 50.779137546922207 0 0 -1 0 0 0 0 1 forward_v I I I I #
coedge $-1 $223 $224 $225 $226 forward $85 $-1 #
coedge $-1 $225 $87 $222 $227 reversed $54 $-1 #
coedge $-1 $87 $225 $228 $229 reversed $54 $-1 #
coedge $-1 $230 $231 $87 $139 reversed $220 $-1 #
edge $-1 $232 -50.779137546922207 $233 50.779137546922207 $138 $234 forward 7 unknown #
face $-1 $235 $236 $32 $-1 $237 forward single #
loop $-1 $-1 $238 $88 #
plane-surface $-1 -134.97476422358528 -2.3846774577790217 59.315368279984469 0 -1 0 0.82903758062907751 0 -0.55919289150049634 forward_v I I I I #
coedge $-1 $239 $240 $241 $242 reversed $89 $-1 #
coedge $-1 $145 $91 $243 $244 reversed $57 $-1 #
coedge $-1 $91 $144 $239 $245 reversed $57 $-1 #
coedge $-1 $241 $246 $91 $147 forward $236 $-1 #
edge $-1 $247 16.708244564870434 $248 22.915535709998423 $146 $249 forward 7 unknown #
loop $-1 $-1 $153 $92 #
plane-surface $-1 -50.779137546922215 -5.7824121171109546 2.5247027744547665 -0.82903758062907751 0 0.55919289150049634 0.55919289150049634 0 0.82903758062907751 forward_v I I I I #
loop $-1 $-1 $250 $59 #
coedge $-1 $151 $151 $152 $251 reversed $93 $-1 #
coedge $-1 $152 $152 $151 $251 forward $95 $-1 #
coedge $-1 $153 $153 $96 $154 forward $148 $-1 #
edge $-1 $252 0 $252 6.2831853071796004 $153 $253 forward 7 unknown #
face $-1 $254 $255 $34 $-1 $256 forward single #
loop $-1 $-1 $257 $97 #
plane-surface $-1 -134.97476422358528 22.673492678919416 59.315368279984469 0 -1 0 0.82903758062907751 0 -0.55919289150049634 forward_v I I I I #
coedge $-1 $258 $259 $260 $261 reversed $98 $-1 #
coedge $-1 $160 $100 $262 $263 reversed $63 $-1 #
coedge $-1 $100 $159 $258 $264 reversed $63 $-1 #
coedge $-1 $260 $265 $100 $162 forward $255 $-1 #
edge $-1 $266 16.708244564870434 $267 22.915535709998423 $161 $268 forward 7 unknown #
loop $-1 $-1 $168 $101 #
plane-surface $-1 -50.779137546922215 19.275758019587482 2.5247027744547665 -0.82903758062907751 0 0.55919289150049634 0.55919289150049634 0 0.82903758062907751 forward_v I I I I #
loop $-1 $-1 $269 $65 #
coedge $-1 $166 $166 $167 $270 reversed $102 $-1 #
coedge $-1 $167 $167 $166 $270 forward $104 $-1 #
coedge $-1 $168 $168 $105 $169 forward $163 $-1 #
edge $-1 $271 0 $271 6.2831853071796004 $168 $272 forward 7 unknown #
face $-1 $273 $274 $36 $-1 $275 reversed single #
loop $-1 $-1 $276 $106 #
plane-surface $-1 60.797919177251337 -3.3433232654443987 148.35472913634794 0 1 0 0.75470958851134928 0 0.65605901945558964 forward_v I I I I #
coedge $-1 $277 $278 $279 $280 reversed $107 $-1 #
coedge $-1 $175 $109 $281 $282 reversed $69 $-1 #
coedge $-1 $109 $174 $277 $283 reversed $69 $-1 #
coedge $-1 $279 $284 $109 $177 forward $285 $-1 #
edge $-1 $286 -20.380177958296539 $287 -14.601257338608317 $176 $288 forward 7 unknown #
loop $-1 $-1 $183 $110 #
plane-surface $-1 -15.849084828746392 -0.16534470125432321 81.726506760679342 0.75470958851134928 0 0.65605901945558964 0.65605901945558964 0 -0.75470958851134928 forward_v I I I I #
loop $-1 $-1 $289 $71 #
coedge $-1 $181 $181 $182 $290 reversed $111 $-1 #
coedge $-1 $182 $182 $181 $290 forward $113 $-1 #
coedge $-1 $183 $183 $114 $184 forward $178 $-1 #
edge $-1 $291 0 $291 6.2831853071796004 $183 $292 forward 7 unknown #
face $-1 $293 $294 $38 $-1 $295 reversed single #
loop $-1 $-1 $296 $115 #
plane-surface $-1 60.797919177251337 16.890808203410103 148.35472913634794 0 1 0 0.75470958851134928 0 0.65605901945558964 forward_v I I I I #
coedge $-1 $297 $298 $299 $300 reversed $116 $-1 #
coedge $-1 $190 $118 $301 $302 reversed $75 $-1 #
coedge $-1 $118 $189 $297 $303 reversed $75 $-1 #
coedge $-1 $299 $304 $118 $192 forward $305 $-1 #
edge $-1 $306 -20.380177958296539 $307 -14.601257338608317 $191 $308 forward 7 unknown #
loop $-1 $-1 $198 $119 #
plane-surface $-1 -15.849084828746392 20.068786767600177 81.726506760679342 0.75470958851134928 0 0.65605901945558964 0.65605901945558964 0 -0.75470958851134928 forward_v I I I I #
loop $-1 $-1 $309 $77 #
coedge $-1 $196 $196 $197 $310 reversed $120 $-1 #
coedge $-1 $197 $197 $196 $310 forward $122 $-1 #
coedge $-1 $198 $198 $123 $199 forward $193 $-1 #
edge $-1 $311 0 $311 6.2831853071796004 $198 $312 forward 7 unknown #
face $-1 $313 $314 $30 $-1 $315 reversed single #
loop $-1 $-1 $316 $124 #
plane-surface $-1 -50.779137546922207 0 0 1 0 0 0 0 -1 forward_v I I I I #
coedge $-1 $317 $211 $318 $319 forward $125 $-1 #
coedge $-1 $320 $127 $317 $321 forward $81 $-1 #
coedge $-1 $127 $320 $322 $323 forward $81 $-1 #
coedge $-1 $214 $213 $127 $207 reversed $215 $-1 #
edge $-1 $324 -26.980804420092763 $325 26.980804420092763 $206 $326 forward 7 unknown #
coedge $-1 $129 $128 $327 $328 forward $51 $-1 #
coedge $-1 $329 $330 $128 $210 reversed $314 $-1 #
edge $-1 $217 -50.779137546922207 $331 50.779137546922207 $209 $332 forward 7 unknown #
coedge $-1 $203 $333 $129 $212 reversed $125 $-1 #
edge $-1 $334 -50.779137546922207 $216 50.779137546922207 $211 $335 forward 7 unknown #
coedge $-1 $206 $130 $333 $336 forward $215 $-1 #
coedge $-1 $130 $206 $329 $337 reversed $215 $-1 #
loop $-1 $-1 $213 $313 #
vertex $-1 $131 $338 #
vertex $-1 $131 $339 #
straight-curve $-1 50.779137546922207 0 11.727390633037176 0 1 0 I I #
face $-1 $340 $341 $31 $-1 $342 reversed single #
loop $-1 $-1 $231 $132 #
plane-surface $-1 0 -33.727477371331027 -7.535565181446918 0 0 1 1 0 0 forward_v I I I I #
coedge $-1 $343 $344 $136 $227 forward $133 $-1 #
coedge $-1 $345 $135 $344 $346 forward $85 $-1 #
coedge $-1 $135 $345 $347 $348 forward $85 $-1 #
coedge $-1 $137 $136 $135 $226 reversed $54 $-1 #
edge $-1 $349 -50.779137546922207 $350 50.779137546922207 $135 $351 forward 7 unknown #
edge $-1 $350 -11.727390633037176 $233 -7.535565181446918 $222 $352 forward 7 unknown #
coedge $-1 $347 $353 $137 $229 forward $354 $-1 #
edge $-1 $232 7.535565181446918 $349 11.727390633037176 $228 $355 forward 7 unknown #
coedge $-1 $356 $138 $353 $357 forward $220 $-1 #
coedge $-1 $138 $356 $343 $358 forward $220 $-1 #
vertex $-1 $229 $359 #
vertex $-1 $358 $360 #
straight-curve $-1 0 -26.980804420092763 -7.535565181446918 1 0 0 I I #
face $-1 $-1 $361 $32 $-1 $362 reversed single #
loop $-1 $-1 $146 $140 #
plane-surface $-1 0 0 11.727390633037176 0 0 1 1 0 0 forward_v I I I I #
coedge $-1 $363 $364 $365 $366 reversed $141 $-1 #
coedge $-1 $367 $143 $145 $245 forward $89 $-1 #
coedge $-1 $143 $367 $363 $368 forward $89 $-1 #
coedge $-1 $365 $146 $143 $242 forward $236 $-1 #
edge $-1 $248 -6.2889407178874102 $369 0.50652860077645556 $241 $370 forward 7 unknown #
coedge $-1 $371 $372 $144 $244 forward $361 $-1 #
edge $-1 $373 -27.132981365537457 $247 -17.93029350695506 $243 $374 forward 7 unknown #
edge $-1 $248 -11.100447161393298 $373 -1.2809303928265426e-014 $145 $375 forward 7 unknown #
coedge $-1 $146 $365 $371 $376 forward $236 $-1 #
vertex $-1 $244 $377 #
vertex $-1 $147 $378 #
straight-curve $-1 -67.487382111792641 -9.1801467764428875 11.727390633037174 1 0 0 I I #
coedge $-1 $250 $250 $-1 $379 reversed $150 $-1 #
edge $-1 $380 0 $380 6.2831853071796004 $151 $381 forward 7 unknown #
vertex $-1 $154 $382 #
ellipse-curve $-1 -47.675491974358216 -5.7824121171109546 7.1260467037459749 -0.82903758062907751 0 0.55919289150049634 0.83878933725074445 0 1.2435563709436162 1 I I #
face $-1 $-1 $383 $34 $-1 $384 reversed single #
loop $-1 $-1 $161 $155 #
plane-surface $-1 0 0 11.727390633037176 0 0 1 1 0 0 forward_v I I I I #
coedge $-1 $385 $386 $387 $388 reversed $156 $-1 #
coedge $-1 $389 $158 $160 $264 forward $98 $-1 #
coedge $-1 $158 $389 $385 $390 forward $98 $-1 #
coedge $-1 $387 $161 $158 $261 forward $255 $-1 #
edge $-1 $267 6.2401443504618079 $391 13.035613669125675 $260 $392 forward 7 unknown #
coedge $-1 $393 $394 $159 $263 forward $383 $-1 #
edge $-1 $395 -27.132981365537457 $266 -17.93029350695506 $262 $396 forward 7 unknown #
edge $-1 $267 -11.100447161393298 $395 -1.2809303928265426e-014 $160 $397 forward 7 unknown #
coedge $-1 $161 $387 $393 $398 forward $255 $-1 #
vertex $-1 $162 $399 #
vertex $-1 $162 $400 #
straight-curve $-1 -67.487382111792641 15.878023360255549 11.727390633037174 1 0 0 I I #
coedge $-1 $269 $269 $-1 $401 reversed $165 $-1 #
edge $-1 $402 0 $402 6.2831853071796004 $166 $403 forward 7 unknown #
vertex $-1 $169 $404 #
ellipse-curve $-1 -47.675491974358216 19.275758019587482 7.1260467037459749 -0.82903758062907751 0 0.55919289150049634 0.83878933725074445 0 1.2435563709436162 1 I I #
face $-1 $-1 $285 $36 $-1 $405 forward single #
loop $-1 $-1 $406 $170 #
plane-surface $-1 50.779137546922207 0 0 -1 0 0 0 0 1 forward_v I I I I #
coedge $-1 $407 $408 $409 $410 reversed $171 $-1 #
coedge $-1 $411 $173 $175 $283 forward $107 $-1 #
coedge $-1 $173 $411 $407 $412 forward $107 $-1 #
coedge $-1 $409 $176 $173 $280 forward $285 $-1 #
edge $-1 $287 -3.0953062135629139 $413 3.2606509148172371 $279 $414 forward 7 unknown #
coedge $-1 $415 $416 $174 $282 forward $274 $-1 #
edge $-1 $417 -69.097861813492358 $286 -62.449973935136796 $281 $418 forward 7 unknown #
edge $-1 $287 92.749737373436787 $417 101.55827509384444 $175 $419 forward 7 unknown #
coedge $-1 $176 $409 $415 $420 forward $285 $-1 #
loop $-1 $-1 $409 $273 #
vertex $-1 $282 $421 #
vertex $-1 $177 $422 #
straight-curve $-1 30.398959588625669 3.0126338629357523 11.727390633037174 -1 0 0 I I #
coedge $-1 $289 $289 $-1 $423 reversed $180 $-1 #
edge $-1 $424 0 $424 6.2831853071796004 $181 $425 forward 7 unknown #
vertex $-1 $184 $426 #
ellipse-curve $-1 47.889677237078082 -0.16534470125432676 8.4034466938593937 0.75470958851134928 0 0.65605901945558964 0.65605901945558964 0 -0.75470958851134928 1 I I #
face $-1 $-1 $305 $38 $-1 $427 forward single #
loop $-1 $-1 $428 $185 #
plane-surface $-1 50.779137546922207 0 0 -1 0 0 0 0 1 forward_v I I I I #
coedge $-1 $429 $430 $431 $432 reversed $186 $-1 #
coedge $-1 $433 $188 $190 $303 forward $116 $-1 #
coedge $-1 $188 $433 $429 $434 forward $116 $-1 #
coedge $-1 $431 $191 $188 $300 forward $305 $-1 #
edge $-1 $307 -13.212371947990162 $435 -6.8564148196100145 $299 $436 forward 7 unknown #
coedge $-1 $437 $438 $189 $302 forward $294 $-1 #
edge $-1 $439 -69.097861813492358 $306 -62.449973935136796 $301 $440 forward 7 unknown #
edge $-1 $307 92.749737373436787 $439 101.55827509384444 $190 $441 forward 7 unknown #
coedge $-1 $191 $431 $437 $442 forward $305 $-1 #
loop $-1 $-1 $431 $293 #
vertex $-1 $302 $443 #
vertex $-1 $192 $444 #
straight-curve $-1 30.398959588625669 23.24676533179025 11.727390633037174 -1 0 0 I I #
coedge $-1 $309 $309 $-1 $445 reversed $195 $-1 #
edge $-1 $446 0 $446 6.2831853071796004 $196 $447 forward 7 unknown #
vertex $-1 $199 $448 #
ellipse-curve $-1 47.889677237078082 20.068786767600169 8.4034466938593937 0.75470958851134928 0 0.65605901945558964 0.65605901945558964 0 -0.75470958851134928 1 I I #
face $-1 $-1 $215 $30 $-1 $449 reversed single #
loop $-1 $-1 $329 $200 #
plane-surface $-1 0 26.980804420092763 0 0 -1 0 0 0 -1 forward_v I I I I #
coedge $-1 $450 $327 $330 $451 forward $201 $-1 #
coedge $-1 $333 $203 $204 $321 reversed $125 $-1 #
coedge $-1 $327 $450 $203 $319 reversed $201 $-1 #
edge $-1 $334 -11.727390633037176 $452 11.727390633037176 $318 $453 forward 7 unknown #
coedge $-1 $205 $204 $450 $454 forward $81 $-1 #
edge $-1 $325 -50.779137546922207 $452 50.779137546922207 $317 $455 forward 7 unknown #
coedge $-1 $330 $329 $205 $323 reversed $314 $-1 #
edge $-1 $456 -50.779137546922207 $324 50.779137546922207 $322 $457 forward 7 unknown #
vertex $-1 $207 $458 #
vertex $-1 $336 $459 #
straight-curve $-1 50.779137546922207 0 -11.727390633037176 0 -1 0 I I #
coedge $-1 $316 $318 $208 $328 reversed $201 $-1 #
edge $-1 $331 -26.980804420092763 $334 26.980804420092763 $327 $460 forward 7 unknown #
coedge $-1 $322 $209 $214 $337 forward $314 $-1 #
coedge $-1 $209 $322 $316 $451 reversed $314 $-1 #
vertex $-1 $210 $461 #
straight-curve $-1 0 26.980804420092763 11.727390633037176 -1 0 0 I I #
coedge $-1 $211 $317 $213 $336 reversed $125 $-1 #
vertex $-1 $328 $462 #
straight-curve $-1 0 -26.980804420092763 11.727390633037176 1 0 0 I I #
edge $-1 $216 -11.727390633037176 $325 11.727390633037176 $213 $463 forward 7 unknown #
edge $-1 $217 -11.727390633037176 $324 11.727390633037176 $214 $464 forward 7 unknown #
point $-1 50.779137546922207 -26.980804420092763 11.727390633037176 #
point $-1 50.779137546922207 26.980804420092763 11.727390633037176 #
face $-1 $-1 $354 $31 $-1 $465 reversed single #
loop $-1 $-1 $466 $219 #
plane-surface $-1 0 -40.474150322569294 -9.6314779072420471 0 1 0 0 0 1 forward_v I I I I #
coedge $-1 $467 $222 $231 $358 reversed $133 $-1 #
coedge $-1 $222 $467 $223 $346 reversed $133 $-1 #
coedge $-1 $224 $223 $468 $469 forward $85 $-1 #
edge $-1 $350 26.980804420092763 $470 40.474150322569294 $344 $471 forward 7 unknown #
coedge $-1 $472 $228 $224 $348 reversed $354 $-1 #
edge $-1 $473 -40.474150322569294 $349 -26.980804420092763 $347 $474 forward 7 unknown #
vertex $-1 $229 $475 #
vertex $-1 $346 $476 #
straight-curve $-1 0 -26.980804420092763 -11.727390633037176 1 0 0 I I #
straight-curve $-1 50.779137546922207 -26.980804420092763 0 0 0 1 I I #
coedge $-1 $228 $472 $230 $357 reversed $354 $-1 #
loop $-1 $-1 $228 $340 #
straight-curve $-1 -50.779137546922207 -26.980804420092763 0 0 0 -1 I I #
coedge $-1 $231 $230 $477 $478 forward $220 $-1 #
edge $-1 $232 -6.746672951238267 $479 6.746672951238267 $353 $480 forward 7 unknown #
edge $-1 $481 -6.746672951238267 $233 6.746672951238267 $343 $482 forward 7 unknown #
point $-1 -50.779137546922207 -26.98080442009276 -7.535565181446918 #
point $-1 50.779137546922207 -26.98080442009276 -7.535565181446918 #
loop $-1 $-1 $243 $235 #
plane-surface $-1 -50.779137546922207 0 0 1 0 0 0 0 -1 forward_v I I I I #
coedge $-1 $364 $238 $240 $368 reversed $141 $-1 #
coedge $-1 $238 $363 $483 $484 reversed $141 $-1 #
coedge $-1 $246 $241 $238 $366 forward $236 $-1 #
edge $-1 $369 -22.915535709998423 $485 -16.708244564870434 $365 $486 forward 7 unknown #
coedge $-1 $240 $239 $372 $487 reversed $89 $-1 #
edge $-1 $488 1.2809303928265426e-014 $369 11.100447161393298 $363 $489 forward 7 unknown #
vertex $-1 $242 $490 #
straight-curve $-1 -44.571846401794218 -2.8912060585554773 11.727390633037176 0 1 0 I I #
coedge $-1 $483 $243 $246 $376 reversed $361 $-1 #
coedge $-1 $243 $483 $367 $487 forward $361 $-1 #
vertex $-1 $244 $491 #
straight-curve $-1 -50.779137546922207 -9.1801467764428875 29.657684139992234 0 0 1 I I #
straight-curve $-1 -50.779137546922215 -9.1801467764428875 2.5247027744547665 -0.55919289150049634 0 -0.82903758062907751 I I #
edge $-1 $485 2.3846774577790217 $247 9.1801467764428875 $371 $492 forward 7 unknown #
point $-1 -50.779137546922207 -9.1801467764428875 11.727390633037176 #
point $-1 -44.571846401794218 -9.1801467764428875 11.727390633037176 #
edge $-1 $493 1 $493 0 $250 $-1 forward 7 unknown #
vertex $-1 $251 $494 #
ellipse-curve $-1 -43.899698543614463 -5.7824121171109546 4.5792419561927442 -0.82903758062907751 0 0.55919289150049634 0.83878933725074445 0 1.2435563709436162 1 I I #
point $-1 -46.836702637107464 -5.7824121171109546 8.3696030746895875 #
loop $-1 $-1 $262 $254 #
plane-surface $-1 -50.779137546922207 0 0 1 0 0 0 0 -1 forward_v I I I I #
coedge $-1 $386 $257 $259 $390 reversed $156 $-1 #
coedge $-1 $257 $385 $495 $496 reversed $156 $-1 #
coedge $-1 $265 $260 $257 $388 forward $255 $-1 #
edge $-1 $391 -22.915535709998423 $497 -16.708244564870434 $387 $498 forward 7 unknown #
coedge $-1 $259 $258 $394 $499 reversed $98 $-1 #
edge $-1 $500 1.2809303928265426e-014 $391 11.100447161393298 $385 $501 forward 7 unknown #
vertex $-1 $261 $502 #
straight-curve $-1 -44.571846401794218 9.6378790097937408 11.727390633037176 0 1 0 I I #
coedge $-1 $495 $262 $265 $398 reversed $383 $-1 #
coedge $-1 $262 $495 $389 $499 forward $383 $-1 #
vertex $-1 $263 $503 #
straight-curve $-1 -50.779137546922207 15.878023360255549 29.657684139992234 0 0 1 I I #
straight-curve $-1 -50.779137546922215 15.878023360255549 2.5247027744547665 -0.55919289150049634 0 -0.82903758062907751 I I #
edge $-1 $497 -22.673492678919416 $266 -15.878023360255549 $393 $504 forward 7 unknown #
point $-1 -50.779137546922207 15.878023360255549 11.727390633037176 #
point $-1 -44.571846401794218 15.878023360255549 11.727390633037176 #
edge $-1 $505 1 $505 0 $269 $-1 forward 7 unknown #
vertex $-1 $270 $506 #
ellipse-curve $-1 -43.899698543614463 19.275758019587482 4.5792419561927442 -0.82903758062907751 0 0.55919289150049634 0.83878933725074445 0 1.2435563709436162 1 I I #
point $-1 -46.836702637107464 19.275758019587482 8.3696030746895875 #
plane-surface $-1 0 0 11.727390633037176 0 0 1 1 0 0 forward_v I I I I #
coedge $-1 $416 $415 $408 $507 forward $274 $-1 #
coedge $-1 $408 $276 $278 $412 reversed $171 $-1 #
coedge $-1 $276 $407 $406 $507 reversed $171 $-1 #
coedge $-1 $284 $279 $276 $410 forward $285 $-1 #
edge $-1 $413 14.601257338608317 $508 20.380177958296539 $409 $509 forward 7 unknown #
coedge $-1 $278 $277 $416 $510 reversed $107 $-1 #
edge $-1 $511 -101.55827509384444 $413 -92.749737373436787 $407 $512 forward 7 unknown #
vertex $-1 $280 $513 #
straight-curve $-1 45.000216927233986 -0.082672350627161606 11.727390633037174 0 -1 0 I I #
coedge $-1 $406 $281 $284 $420 reversed $274 $-1 #
coedge $-1 $281 $406 $411 $510 forward $274 $-1 #
vertex $-1 $282 $514 #
straight-curve $-1 50.779137546922207 3.0126338629357523 74.177364568173971 0 0 1 I I #
straight-curve $-1 -15.849084828746392 3.0126338629357523 81.726506760679342 0.65605901945558964 0 -0.75470958851134928 I I #
edge $-1 $508 -3.3433232654443987 $286 3.0126338629357523 $415 $515 forward 7 unknown #
point $-1 50.779137546922207 3.0126338629357523 11.727390633037176 #
point $-1 45.000216927233986 3.0126338629357523 11.727390633037174 #
edge $-1 $516 1 $516 0 $289 $-1 forward 7 unknown #
vertex $-1 $290 $517 #
ellipse-curve $-1 46.00411247791547 -0.16534470125432676 6.7643502972490328 0.75470958851134928 0 0.65605901945558964 0.65605901945558964 0 -0.75470958851134928 1 I I #
point $-1 48.545736256533679 -0.16534470125432676 7.6487371053480491 #
plane-surface $-1 0 0 11.727390633037176 0 0 1 1 0 0 forward_v I I I I #
coedge $-1 $438 $437 $430 $518 forward $294 $-1 #
coedge $-1 $430 $296 $298 $434 reversed $186 $-1 #
coedge $-1 $296 $429 $428 $518 reversed $186 $-1 #
coedge $-1 $304 $299 $296 $432 forward $305 $-1 #
edge $-1 $435 14.601257338608317 $519 20.380177958296539 $431 $520 forward 7 unknown #
coedge $-1 $298 $297 $438 $521 reversed $116 $-1 #
edge $-1 $522 -101.55827509384444 $435 -92.749737373436787 $429 $523 forward 7 unknown #
vertex $-1 $300 $524 #
straight-curve $-1 45.000216927233986 10.034393383800088 11.727390633037174 0 -1 0 I I #
coedge $-1 $428 $301 $304 $442 reversed $294 $-1 #
coedge $-1 $301 $428 $433 $521 forward $294 $-1 #
vertex $-1 $302 $525 #
straight-curve $-1 50.779137546922207 23.24676533179025 74.177364568173971 0 0 1 I I #
straight-curve $-1 -15.849084828746392 23.24676533179025 81.726506760679342 0.65605901945558964 0 -0.75470958851134928 I I #
edge $-1 $519 16.890808203410103 $306 23.24676533179025 $437 $526 forward 7 unknown #
point $-1 50.779137546922207 23.24676533179025 11.727390633037176 #
point $-1 45.000216927233986 23.24676533179025 11.727390633037174 #
edge $-1 $527 1 $527 0 $309 $-1 forward 7 unknown #
vertex $-1 $310 $528 #
ellipse-curve $-1 46.00411247791547 20.068786767600169 6.7643502972490328 0.75470958851134928 0 0.65605901945558964 0.65605901945558964 0 -0.75470958851134928 1 I I #
point $-1 48.545736256533679 20.068786767600169 7.6487371053480491 #
plane-surface $-1 50.779137546922207 0 0 -1 0 0 0 0 1 forward_v I I I I #
coedge $-1 $318 $316 $320 $454 reversed $201 $-1 #
edge $-1 $331 -11.727390633037176 $456 11.727390633037176 $330 $529 forward 7 unknown #
vertex $-1 $454 $530 #
straight-curve $-1 -50.779137546922207 -26.980804420092763 0 0 0 -1 I I #
edge $-1 $452 -26.980804420092763 $456 26.980804420092763 $450 $531 forward 7 unknown #
straight-curve $-1 0 -26.980804420092763 -11.727390633037176 -1 0 0 I I #
vertex $-1 $323 $532 #
straight-curve $-1 0 26.980804420092763 -11.727390633037176 1 0 0 I I #
point $-1 50.779137546922207 26.980804420092763 -11.727390633037176 #
point $-1 50.779137546922207 -26.980804420092763 -11.727390633037176 #
straight-curve $-1 -50.779137546922207 0 11.727390633037176 0 -1 0 I I #
point $-1 -50.779137546922207 26.980804420092763 11.727390633037176 #
point $-1 -50.779137546922207 -26.980804420092763 11.727390633037176 #
straight-curve $-1 50.779137546922207 -26.980804420092763 0 0 0 -1 I I #
straight-curve $-1 50.779137546922207 26.980804420092763 0 0 0 -1 I I #
plane-surface $-1 -50.779137546922207 0 0 1 0 0 0 0 -1 forward_v I I I I #
coedge $-1 $468 $477 $472 $533 forward $341 $-1 #
coedge $-1 $344 $343 $534 $535 forward $133 $-1 #
coedge $-1 $534 $466 $345 $469 reversed $341 $-1 #
edge $-1 $470 -50.779137546922207 $473 50.779137546922207 $468 $536 forward 7 unknown #
vertex $-1 $535 $537 #
straight-curve $-1 50.779137546922207 0 -11.727390633037176 0 -1 0 I I #
coedge $-1 $353 $347 $466 $533 reversed $354 $-1 #
vertex $-1 $348 $538 #
straight-curve $-1 -50.779137546922207 0 -11.727390633037176 0 1 0 I I #
point $-1 -50.779137546922207 -26.980804420092763 -11.727390633037176 #
point $-1 50.779137546922207 -26.980804420092763 -11.727390633037176 #
coedge $-1 $466 $534 $356 $478 reversed $341 $-1 #
edge $-1 $479 -50.779137546922207 $481 50.779137546922207 $477 $539 forward 7 unknown #
vertex $-1 $357 $540 #
straight-curve $-1 -50.779137546922207 -33.727477371331027 -7.535565181446918 0 -1 0 I I #
vertex $-1 $358 $541 #
straight-curve $-1 50.779137546922207 -33.727477371331027 -7.535565181446918 0 1 0 I I #
coedge $-1 $372 $371 $364 $484 forward $361 $-1 #
edge $-1 $485 17.93029350695506 $488 27.132981365537457 $483 $542 forward 7 unknown #
vertex $-1 $376 $543 #
straight-curve $-1 -67.487382111792641 -2.3846774577790217 11.727390633037174 -1 0 0 I I #
edge $-1 $488 -0.50652860077645556 $373 6.2889407178874102 $372 $544 forward 7 unknown #
vertex $-1 $487 $545 #
straight-curve $-1 -50.779137546922215 -2.3846774577790217 2.5247027744547665 0.55919289150049634 0 0.82903758062907751 I I #
point $-1 -44.571846401794218 -2.3846774577790217 11.727390633037176 #
point $-1 -50.779137546922207 -9.1801467764428875 2.5247027744547772 #
straight-curve $-1 -50.779137546922207 0 11.727390633037176 0 -1 0 I I #
vertex $-1 $379 $546 #
point $-1 -43.060909206363718 -5.7824121171109546 5.8227983271363604 #
coedge $-1 $394 $393 $386 $496 forward $383 $-1 #
edge $-1 $497 17.93029350695506 $500 27.132981365537457 $495 $547 forward 7 unknown #
vertex $-1 $398 $548 #
straight-curve $-1 -67.487382111792641 22.673492678919416 11.727390633037174 -1 0 0 I I #
edge $-1 $500 -13.035613669125675 $395 -6.2401443504618079 $394 $549 forward 7 unknown #
vertex $-1 $499 $550 #
straight-curve $-1 -50.779137546922215 22.673492678919416 2.5247027744547665 0.55919289150049634 0 0.82903758062907751 I I #
point $-1 -44.571846401794218 22.673492678919416 11.727390633037176 #
point $-1 -50.779137546922207 15.878023360255549 2.5247027744547772 #
straight-curve $-1 -50.779137546922207 0 11.727390633037176 0 -1 0 I I #
vertex $-1 $401 $551 #
point $-1 -43.060909206363718 19.275758019587482 5.8227983271363604 #
edge $-1 $508 62.449973935136796 $511 69.097861813492358 $406 $552 forward 7 unknown #
vertex $-1 $420 $553 #
straight-curve $-1 30.398959588625669 -3.3433232654443987 11.727390633037174 1 0 0 I I #
edge $-1 $511 -3.2606509148172371 $417 3.0953062135629139 $416 $554 forward 7 unknown #
vertex $-1 $510 $555 #
straight-curve $-1 -15.849084828746392 -3.3433232654443987 81.726506760679342 -0.65605901945558964 0 0.75470958851134928 I I #
point $-1 45.000216927233986 -3.3433232654443987 11.727390633037174 #
point $-1 50.779137546922207 3.0126338629357523 5.0795027546816129 #
straight-curve $-1 50.779137546922207 0 11.727390633037176 0 1 0 I I #
vertex $-1 $423 $556 #
point $-1 46.66017149737106 -0.16534470125432676 6.0096407087376837 #
edge $-1 $519 62.449973935136796 $522 69.097861813492358 $428 $557 forward 7 unknown #
vertex $-1 $442 $558 #
straight-curve $-1 30.398959588625669 16.890808203410103 11.727390633037174 1 0 0 I I #
edge $-1 $522 6.8564148196100145 $439 13.212371947990162 $438 $559 forward 7 unknown #
vertex $-1 $521 $560 #
straight-curve $-1 -15.849084828746392 16.890808203410103 81.726506760679342 -0.65605901945558964 0 0.75470958851134928 I I #
point $-1 45.000216927233986 16.890808203410103 11.727390633037174 #
point $-1 50.779137546922207 23.24676533179025 5.0795027546816129 #
straight-curve $-1 50.779137546922207 0 11.727390633037176 0 1 0 I I #
vertex $-1 $445 $561 #
point $-1 46.66017149737106 20.068786767600169 6.0096407087376837 #
straight-curve $-1 -50.779137546922207 26.980804420092763 0 0 0 -1 I I #
point $-1 -50.779137546922207 -26.980804420092763 -11.727390633037176 #
straight-curve $-1 -50.779137546922207 0 -11.727390633037176 0 1 0 I I #
point $-1 -50.779137546922207 26.980804420092763 -11.727390633037176 #
edge $-1 $479 -2.0959127257951291 $473 2.0959127257951291 $472 $562 forward 7 unknown #
coedge $-1 $477 $468 $467 $535 reversed $341 $-1 #
edge $-1 $481 -2.0959127257951291 $470 2.0959127257951291 $467 $563 forward 7 unknown #
straight-curve $-1 0 -40.474150322569294 -11.727390633037176 -1 0 0 I I #
point $-1 50.779137546922207 -40.474150322569294 -11.727390633037176 #
point $-1 -50.779137546922207 -40.474150322569294 -11.727390633037176 #
straight-curve $-1 0 -40.474150322569294 -7.535565181446918 1 0 0 I I #
point $-1 -50.779137546922207 -40.474150322569294 -7.535565181446918 #
point $-1 50.779137546922207 -40.474150322569294 -7.535565181446918 #
straight-curve $-1 -50.779137546922207 -2.3846774577790217 29.657684139992234 0 0 -1 I I #
point $-1 -50.779137546922207 -2.3846774577790217 11.727390633037176 #
straight-curve $-1 -50.779137546922207 -2.8912060585554773 2.5247027744547843 0 -1 0 I I #
point $-1 -50.779137546922207 -2.3846774577790217 2.5247027744547772 #
point $-1 -42.65614217267084 -5.7824121171109546 3.7404526189419993 #
straight-curve $-1 -50.779137546922207 22.673492678919416 29.657684139992234 0 0 -1 I I #
point $-1 -50.779137546922207 22.673492678919416 11.727390633037176 #
straight-curve $-1 -50.779137546922207 9.6378790097937408 2.5247027744547843 0 -1 0 I I #
point $-1 -50.779137546922207 22.673492678919416 2.5247027744547772 #
point $-1 -42.65614217267084 19.275758019587482 3.7404526189419993 #
straight-curve $-1 50.779137546922207 -3.3433232654443987 74.177364568173971 0 0 -1 I I #
point $-1 50.779137546922207 -3.3433232654443987 11.727390633037176 #
straight-curve $-1 50.779137546922207 -0.082672350627161606 5.0795027546816058 0 1 0 I I #
point $-1 50.779137546922207 -3.3433232654443987 5.0795027546816129 #
point $-1 45.249402889404124 -0.16534470125432676 6.1082912777934428 #
straight-curve $-1 50.779137546922207 16.890808203410103 74.177364568173971 0 0 -1 I I #
point $-1 50.779137546922207 16.890808203410103 11.727390633037176 #
straight-curve $-1 50.779137546922207 10.034393383800088 5.0795027546816058 0 1 0 I I #
point $-1 50.779137546922207 16.890808203410103 5.0795027546816129 #
point $-1 45.249402889404124 20.068786767600169 6.1082912777934428 #
straight-curve $-1 -50.779137546922207 -40.474150322569294 -9.6314779072420471 0 0 -1 I I #
straight-curve $-1 50.779137546922207 -40.474150322569294 -9.6314779072420471 0 0 -1 I I #
End-of-ACIS-data 