500 0 8 0           
7 Unknown 11 ACIS 5.0 NT 24 Fri Mar 26 19:59:02 1999 
-1 9.9999999999999995e-007 1e-010 
body $-1 $8 $-1 $9 #
body $-1 $10 $-1 $11 #
body $-1 $12 $-1 $13 #
body $-1 $14 $-1 $15 #
body $-1 $16 $-1 $17 #
body $-1 $18 $-1 $19 #
body $-1 $20 $-1 $21 #
body $-1 $22 $-1 $23 #
lump $-1 $-1 $24 $0 #
transform $-1 1 0 0 0 1 0 0 0 1 54.906460768456071 24.66258065237017 9.5880514668542478 1 rotate no_reflect no_shear #
lump $-1 $-1 $25 $1 #
transform $-1 1 0 0 0 1 0 0 0 1 54.906460768456071 24.66258065237017 9.5880514668542478 1 rotate no_reflect no_shear #
lump $-1 $-1 $26 $2 #
transform $-1 1 0 0 0 1 0 0 0 1 54.906460768456071 24.66258065237017 9.5880514668542478 1 rotate no_reflect no_shear #
lump $-1 $-1 $27 $3 #
transform $-1 1 0 0 0 1 0 0 0 1 54.906460768456071 24.66258065237017 9.5880514668542478 1 rotate no_reflect no_shear #
lump $-1 $-1 $28 $4 #
transform $-1 1 0 0 0 1 0 0 0 1 54.906460768456071 24.66258065237017 9.5880514668542478 1 rotate no_reflect no_shear #
lump $-1 $-1 $29 $5 #
transform $-1 1 0 0 0 1 0 0 0 1 54.906460768456071 24.66258065237017 9.5880514668542478 1 rotate no_reflect no_shear #
lump $-1 $-1 $30 $6 #
transform $-1 1 0 0 0 1 0 0 0 1 54.906460768456071 24.66258065237017 9.5880514668542478 1 rotate no_reflect no_shear #
lump $-1 $-1 $31 $7 #
transform $-1 1 0 0 0 1 0 0 0 1 54.906460768456071 24.66258065237017 9.5880514668542478 1 rotate no_reflect no_shear #
shell $-1 $-1 $-1 $32 $-1 $8 #
shell $-1 $-1 $-1 $33 $-1 $10 #
shell $-1 $-1 $-1 $34 $-1 $12 #
shell $-1 $-1 $-1 $35 $-1 $14 #
shell $-1 $-1 $-1 $36 $-1 $16 #
shell $-1 $-1 $-1 $37 $-1 $18 #
shell $-1 $-1 $-1 $38 $-1 $20 #
shell $-1 $-1 $-1 $39 $-1 $22 #
face $-1 $40 $41 $24 $-1 $42 forward single #
face $-1 $43 $44 $25 $-1 $45 reversed single #
face $-1 $46 $47 $26 $-1 $48 reversed single #
face $-1 $49 $50 $27 $-1 $51 forward single #
face $-1 $52 $53 $28 $-1 $54 forward single #
face $-1 $55 $56 $29 $-1 $57 reversed single #
face $-1 $58 $59 $30 $-1 $60 forward single #
face $-1 $61 $62 $31 $-1 $63 forward single #
face $-1 $64 $65 $24 $-1 $66 reversed single #
loop $-1 $-1 $67 $32 #
plane-surface $-1 0 0 9.5880514668542478 0 0 1 1 0 0 forward_v I I I I #
face $-1 $68 $69 $25 $-1 $70 reversed single #
loop $-1 $-1 $71 $33 #
plane-surface $-1 0 -20.916542667821769 4.2109357295207417 0 0 1 1 0 0 forward_v I I I I #
face $-1 $72 $73 $26 $-1 $74 reversed single #
loop $-1 $-1 $75 $34 #
plane-surface $-1 87.194924656005441 -7.9604074750599274 157.9197028042538 0 -1 0 -0.83867057594974714 0 -0.54463902268945019 forward_v I I I I #
face $-1 $76 $77 $27 $-1 $78 forward single #
loop $-1 $79 $80 $35 #
cone-surface $-1 53.013962283891019 -14.539048338069531 7.3257911945684731 -0.83867057594974714 0 -0.54463902268945019 0.2723195113447251 0 -0.41933528797487357 1 I I 0 1 0.5 forward I I I I #
face $-1 $81 $82 $28 $-1 $83 forward single #
loop $-1 $84 $85 $36 #
cone-surface $-1 53.013962283891019 -10.59186382026377 7.3257911945684731 -0.83867057594974714 0 -0.54463902268945019 0.2723195113447251 0 -0.41933528797487357 1 I I 0 1 0.5 forward I I I I #
face $-1 $86 $87 $29 $-1 $88 reversed single #
loop $-1 $-1 $89 $37 #
plane-surface $-1 -147.00332692054258 -7.9604074750599274 65.822836652167283 0 -1 0 0.83867057594974714 0 -0.54463902268945019 forward_v I I I I #
face $-1 $90 $91 $30 $-1 $92 forward single #
loop $-1 $93 $94 $38 #
cone-surface $-1 -53.013962283891026 -14.539048338069531 7.3257911945684731 0.83867057594974714 0 -0.54463902268945019 0.2723195113447251 0 0.41933528797487357 1 I I 0 1 0.5 forward I I I I #
face $-1 $95 $96 $31 $-1 $97 forward single #
loop $-1 $98 $99 $39 #
cone-surface $-1 -53.013962283891026 -10.59186382026377 7.3257911945684731 0.83867057594974714 0 -0.54463902268945019 0.2723195113447251 0 0.41933528797487357 1 I I 0 1 0.5 forward I I I I #
face $-1 $100 $101 $24 $-1 $102 reversed single #
loop $-1 $-1 $103 $40 #
plane-surface $-1 0 0 -9.5880514668542478 0 0 1 1 0 0 forward_v I I I I #
coedge $-1 $104 $105 $106 $107 forward $41 $-1 #
face $-1 $108 $109 $25 $-1 $110 reversed single #
loop $-1 $-1 $111 $43 #
plane-surface $-1 0 -17.170504683273368 6.8994935981874956 0 -1 0 0 0 -1 forward_v I I I I #
coedge $-1 $112 $113 $114 $115 reversed $44 $-1 #
face $-1 $116 $117 $26 $-1 $118 forward single #
loop $-1 $-1 $119 $46 #
plane-surface $-1 -4.901941496081065 -12.565456079166649 98.111300539716694 0.83867057594974714 0 0.54463902268945019 0.54463902268945019 0 -0.83867057594974714 forward_v I I I I #
coedge $-1 $120 $121 $122 $123 reversed $47 $-1 #
face $-1 $-1 $124 $27 $-1 $125 forward single #
loop $-1 $126 $127 $49 #
cone-surface $-1 52.072163151218177 -14.539048338069531 6.7141797062223727 -0.83867057594974714 0 -0.54463902268945019 0.13615975567236255 0 -0.20966764398743679 1 I I -0.70710678118654746 0.70710678118654746 0.25 forward I I I I #
loop $-1 $-1 $128 $35 #
coedge $-1 $80 $80 $129 $130 reversed $50 $-1 #
face $-1 $-1 $131 $28 $-1 $132 forward single #
loop $-1 $133 $134 $52 #
cone-surface $-1 52.072163151218177 -10.59186382026377 6.7141797062223727 -0.83867057594974714 0 -0.54463902268945019 0.13615975567236255 0 -0.20966764398743679 1 I I -0.70710678118654746 0.70710678118654746 0.25 forward I I I I #
loop $-1 $-1 $135 $36 #
coedge $-1 $85 $85 $136 $137 reversed $53 $-1 #
face $-1 $138 $139 $29 $-1 $140 forward single #
loop $-1 $-1 $141 $55 #
plane-surface $-1 -54.906460768456071 -12.565456079166649 6.0144343876301747 -0.83867057594974714 0 0.54463902268945019 0.54463902268945019 0 0.83867057594974714 forward_v I I I I #
coedge $-1 $142 $143 $144 $145 reversed $56 $-1 #
face $-1 $-1 $146 $30 $-1 $147 forward single #
loop $-1 $148 $149 $58 #
cone-surface $-1 -52.072163151218184 -14.539048338069531 6.7141797062223727 0.83867057594974714 0 -0.54463902268945019 0.13615975567236255 0 0.20966764398743679 1 I I -0.70710678118654746 0.70710678118654746 0.25 forward I I I I #
loop $-1 $-1 $150 $38 #
coedge $-1 $94 $94 $151 $152 reversed $59 $-1 #
face $-1 $-1 $153 $31 $-1 $154 forward single #
loop $-1 $155 $156 $61 #
cone-surface $-1 -52.072163151218184 -10.59186382026377 6.7141797062223727 0.83867057594974714 0 -0.54463902268945019 0.13615975567236255 0 0.20966764398743679 1 I I -0.70710678118654746 0.70710678118654746 0.25 forward I I I I #
loop $-1 $-1 $157 $39 #
coedge $-1 $99 $99 $158 $159 reversed $62 $-1 #
face $-1 $160 $161 $24 $-1 $162 reversed single #
loop $-1 $-1 $163 $64 #
plane-surface $-1 0 -24.66258065237017 0 0 1 0 0 0 1 forward_v I I I I #
coedge $-1 $164 $165 $166 $167 forward $65 $-1 #
coedge $-1 $168 $67 $169 $170 forward $41 $-1 #
coedge $-1 $67 $168 $171 $172 forward $41 $-1 #
coedge $-1 $173 $174 $67 $107 reversed $175 $-1 #
edge $-1 $176 -24.66258065237017 $177 24.66258065237017 $106 $178 forward 7 unknown #
face $-1 $179 $180 $25 $-1 $181 reversed single #
loop $-1 $-1 $182 $68 #
plane-surface $-1 -54.906460768456071 0 0 1 0 0 0 0 -1 forward_v I I I I #
coedge $-1 $183 $184 $185 $186 reversed $69 $-1 #
coedge $-1 $187 $71 $188 $189 reversed $44 $-1 #
coedge $-1 $71 $187 $190 $191 forward $44 $-1 #
coedge $-1 $192 $193 $71 $115 forward $194 $-1 #
edge $-1 $195 -14.204309318459286 $196 -6.7122333493624833 $114 $197 forward 7 unknown #
face $-1 $198 $199 $26 $-1 $200 reversed single #
loop $-1 $-1 $201 $72 #
plane-surface $-1 0 -17.170504683273368 6.8994935981874956 0 -1 0 0 0 -1 forward_v I I I I #
coedge $-1 $202 $203 $204 $205 reversed $73 $-1 #
coedge $-1 $121 $75 $206 $207 reversed $47 $-1 #
coedge $-1 $75 $120 $202 $208 reversed $47 $-1 #
coedge $-1 $204 $209 $75 $123 forward $210 $-1 #
edge $-1 $211 -11.308998440453351 $212 -8.9882644486940322 $122 $213 forward 7 unknown #
loop $-1 $-1 $129 $76 #
plane-surface $-1 -4.901941496081065 -12.565456079166649 98.111300539716694 0.83867057594974714 0 0.54463902268945019 0.54463902268945019 0 -0.83867057594974714 forward_v I I I I #
loop $-1 $-1 $214 $49 #
coedge $-1 $127 $127 $128 $215 reversed $77 $-1 #
coedge $-1 $128 $128 $127 $215 forward $79 $-1 #
coedge $-1 $129 $129 $80 $130 forward $124 $-1 #
edge $-1 $216 0 $216 6.2831853071796004 $129 $217 forward 7 unknown #
loop $-1 $-1 $136 $81 #
plane-surface $-1 -4.901941496081065 -12.565456079166649 98.111300539716694 0.83867057594974714 0 0.54463902268945019 0.54463902268945019 0 -0.83867057594974714 forward_v I I I I #
loop $-1 $-1 $218 $52 #
coedge $-1 $134 $134 $135 $219 reversed $82 $-1 #
coedge $-1 $135 $135 $134 $219 forward $84 $-1 #
coedge $-1 $136 $136 $85 $137 forward $131 $-1 #
edge $-1 $220 0 $220 6.2831853071796004 $136 $221 forward 7 unknown #
face $-1 $222 $223 $29 $-1 $224 forward single #
loop $-1 $-1 $225 $86 #
plane-surface $-1 0 0 9.5880514668542478 0 0 1 1 0 0 forward_v I I I I #
coedge $-1 $226 $227 $228 $229 reversed $87 $-1 #
coedge $-1 $143 $89 $230 $231 reversed $56 $-1 #
coedge $-1 $89 $142 $226 $232 reversed $56 $-1 #
coedge $-1 $228 $233 $89 $145 forward $234 $-1 #
edge $-1 $235 23.323366859229395 $236 26.896983938453467 $144 $237 forward 7 unknown #
loop $-1 $-1 $151 $90 #
plane-surface $-1 -54.906460768456071 -12.565456079166649 6.0144343876301747 -0.83867057594974714 0 0.54463902268945019 0.54463902268945019 0 0.83867057594974714 forward_v I I I I #
loop $-1 $-1 $238 $58 #
coedge $-1 $149 $149 $150 $239 reversed $91 $-1 #
coedge $-1 $150 $150 $149 $239 forward $93 $-1 #
coedge $-1 $151 $151 $94 $152 forward $146 $-1 #
edge $-1 $240 0 $240 6.2831853071796004 $151 $241 forward 7 unknown #
loop $-1 $-1 $158 $95 #
plane-surface $-1 -54.906460768456071 -12.565456079166649 6.0144343876301747 -0.83867057594974714 0 0.54463902268945019 0.54463902268945019 0 0.83867057594974714 forward_v I I I I #
loop $-1 $-1 $242 $61 #
coedge $-1 $156 $156 $157 $243 reversed $96 $-1 #
coedge $-1 $157 $157 $156 $243 forward $98 $-1 #
coedge $-1 $158 $158 $99 $159 forward $153 $-1 #
edge $-1 $244 0 $244 6.2831853071796004 $158 $245 forward 7 unknown #
face $-1 $246 $247 $24 $-1 $248 reversed single #
loop $-1 $-1 $249 $100 #
plane-surface $-1 -54.906460768456071 0 0 1 0 0 0 0 -1 forward_v I I I I #
coedge $-1 $250 $171 $251 $252 forward $101 $-1 #
coedge $-1 $253 $103 $250 $254 forward $65 $-1 #
coedge $-1 $103 $253 $255 $256 forward $65 $-1 #
coedge $-1 $174 $173 $103 $167 reversed $175 $-1 #
edge $-1 $257 -24.66258065237017 $258 24.66258065237017 $166 $259 forward 7 unknown #
coedge $-1 $105 $104 $260 $261 forward $41 $-1 #
coedge $-1 $262 $263 $104 $170 reversed $247 $-1 #
edge $-1 $177 -54.906460768456071 $264 54.906460768456071 $169 $265 forward 7 unknown #
coedge $-1 $163 $266 $105 $172 reversed $101 $-1 #
edge $-1 $267 -54.906460768456071 $176 54.906460768456071 $171 $268 forward 7 unknown #
coedge $-1 $166 $106 $266 $269 forward $175 $-1 #
coedge $-1 $106 $166 $262 $270 reversed $175 $-1 #
loop $-1 $-1 $173 $246 #
vertex $-1 $107 $271 #
vertex $-1 $107 $272 #
straight-curve $-1 54.906460768456071 0 9.5880514668542478 0 1 0 I I #
face $-1 $273 $274 $25 $-1 $275 forward single #
loop $-1 $-1 $188 $108 #
plane-surface $-1 0 -24.66258065237017 0 0 1 0 0 0 1 forward_v I I I I #
coedge $-1 $276 $277 $184 $278 forward $109 $-1 #
coedge $-1 $190 $111 $192 $279 reversed $69 $-1 #
coedge $-1 $111 $190 $182 $278 reversed $69 $-1 #
coedge $-1 $280 $281 $111 $186 forward $274 $-1 #
edge $-1 $282 -54.906460768456071 $283 54.906460768456071 $185 $284 forward 7 unknown #
coedge $-1 $113 $112 $276 $285 reversed $44 $-1 #
coedge $-1 $286 $287 $112 $189 forward $180 $-1 #
edge $-1 $288 -54.906460768456071 $195 54.906460768456071 $188 $289 forward 7 unknown #
coedge $-1 $184 $183 $113 $191 reversed $69 $-1 #
edge $-1 $290 -54.906460768456071 $196 54.906460768456071 $190 $291 forward 7 unknown #
coedge $-1 $292 $114 $183 $279 forward $194 $-1 #
coedge $-1 $114 $292 $286 $293 forward $194 $-1 #
loop $-1 $-1 $192 $273 #
vertex $-1 $189 $294 #
vertex $-1 $115 $295 #
straight-curve $-1 54.906460768456071 -10.458271333910885 4.2109357295207417 0 1 0 I I #
face $-1 $-1 $210 $26 $-1 $296 forward single #
loop $-1 $-1 $297 $116 #
plane-surface $-1 54.906460768456071 0 0 -1 0 0 0 0 1 forward_v I I I I #
coedge $-1 $298 $299 $203 $300 forward $117 $-1 #
coedge $-1 $301 $119 $121 $208 forward $73 $-1 #
coedge $-1 $119 $301 $201 $300 reversed $73 $-1 #
coedge $-1 $302 $122 $119 $205 forward $210 $-1 #
edge $-1 $212 1.6776794354766027 $303 10.887776643690042 $204 $304 forward 7 unknown #
coedge $-1 $305 $297 $120 $207 forward $199 $-1 #
edge $-1 $306 -72.945417014496755 $211 -69.371799935272648 $206 $307 forward 7 unknown #
edge $-1 $212 105.55187174966147 $306 109.8129215369122 $121 $308 forward 7 unknown #
coedge $-1 $122 $302 $305 $309 forward $210 $-1 #
loop $-1 $-1 $204 $198 #
vertex $-1 $207 $310 #
vertex $-1 $123 $311 #
straight-curve $-1 43.59746232800272 -7.9604074750599274 9.5880514668542531 -1 0 0 I I #
coedge $-1 $214 $214 $-1 $312 reversed $126 $-1 #
edge $-1 $313 0 $313 6.2831853071796004 $127 $314 forward 7 unknown #
vertex $-1 $130 $315 #
ellipse-curve $-1 53.746093772576408 -14.539048338069531 7.801242927242205 0.83867057594974714 0 0.54463902268945019 0.2723195113447251 0 -0.41933528797487357 1 I I #
coedge $-1 $218 $218 $-1 $316 reversed $133 $-1 #
edge $-1 $317 0 $317 6.2831853071796004 $134 $318 forward 7 unknown #
vertex $-1 $137 $319 #
ellipse-curve $-1 53.746093772576408 -10.59186382026377 7.801242927242205 0.83867057594974714 0 0.54463902268945019 0.2723195113447251 0 -0.41933528797487357 1 I I #
face $-1 $-1 $234 $29 $-1 $320 reversed single #
loop $-1 $-1 $321 $138 #
plane-surface $-1 0 -17.170504683273368 6.8994935981874956 0 -1 0 0 0 -1 forward_v I I I I #
coedge $-1 $230 $322 $323 $324 forward $139 $-1 #
coedge $-1 $323 $141 $143 $232 forward $87 $-1 #
coedge $-1 $141 $323 $321 $325 reversed $87 $-1 #
coedge $-1 $326 $144 $141 $229 forward $234 $-1 #
edge $-1 $236 1.6776794354766027 $327 10.887776643690042 $228 $328 forward 7 unknown #
coedge $-1 $329 $225 $142 $231 forward $139 $-1 #
edge $-1 $330 -20.915936683574515 $235 -18.595202691815217 $230 $331 forward 7 unknown #
edge $-1 $236 0 $330 4.261049787250677 $143 $332 forward 7 unknown #
coedge $-1 $144 $326 $329 $333 reversed $234 $-1 #
loop $-1 $-1 $228 $222 #
vertex $-1 $333 $334 #
vertex $-1 $145 $335 #
straight-curve $-1 -54.906460768456071 -7.9604074750599274 32.911418326083641 0 0 -1 I I #
coedge $-1 $238 $238 $-1 $336 reversed $148 $-1 #
edge $-1 $337 0 $337 6.2831853071796004 $149 $338 forward 7 unknown #
vertex $-1 $152 $339 #
ellipse-curve $-1 -53.746093772576423 -14.539048338069531 7.8012429272422086 -0.83867057594974714 0 0.54463902268945019 0.2723195113447251 0 0.41933528797487357 1 I I #
coedge $-1 $242 $242 $-1 $340 reversed $155 $-1 #
edge $-1 $341 0 $341 6.2831853071796004 $156 $342 forward 7 unknown #
vertex $-1 $159 $343 #
ellipse-curve $-1 -53.746093772576423 -10.59186382026377 7.8012429272422086 -0.83867057594974714 0 0.54463902268945019 0.2723195113447251 0 0.41933528797487357 1 I I #
face $-1 $-1 $175 $24 $-1 $344 reversed single #
loop $-1 $-1 $262 $160 #
plane-surface $-1 0 24.66258065237017 0 0 -1 0 0 0 -1 forward_v I I I I #
coedge $-1 $345 $260 $263 $346 forward $161 $-1 #
coedge $-1 $266 $163 $164 $254 reversed $101 $-1 #
coedge $-1 $260 $345 $163 $252 reversed $161 $-1 #
edge $-1 $267 -9.5880514668542478 $347 9.5880514668542478 $251 $348 forward 7 unknown #
coedge $-1 $165 $164 $345 $349 forward $65 $-1 #
edge $-1 $258 -54.906460768456071 $347 54.906460768456071 $250 $350 forward 7 unknown #
coedge $-1 $263 $262 $165 $256 reversed $247 $-1 #
edge $-1 $351 -54.906460768456071 $257 54.906460768456071 $255 $352 forward 7 unknown #
vertex $-1 $167 $353 #
vertex $-1 $269 $354 #
straight-curve $-1 54.906460768456071 0 -9.5880514668542478 0 -1 0 I I #
coedge $-1 $249 $251 $168 $261 reversed $161 $-1 #
edge $-1 $264 -24.66258065237017 $267 24.66258065237017 $260 $355 forward 7 unknown #
coedge $-1 $255 $169 $174 $270 forward $247 $-1 #
coedge $-1 $169 $255 $249 $346 reversed $247 $-1 #
vertex $-1 $170 $356 #
straight-curve $-1 0 24.66258065237017 9.5880514668542478 -1 0 0 I I #
coedge $-1 $171 $250 $173 $269 reversed $101 $-1 #
vertex $-1 $261 $357 #
straight-curve $-1 0 -24.66258065237017 9.5880514668542478 1 0 0 I I #
edge $-1 $176 -9.5880514668542478 $258 9.5880514668542478 $173 $358 forward 7 unknown #
edge $-1 $177 -9.5880514668542478 $257 9.5880514668542478 $174 $359 forward 7 unknown #
point $-1 54.906460768456071 -24.66258065237017 9.5880514668542478 #
point $-1 54.906460768456071 24.66258065237017 9.5880514668542478 #
face $-1 $-1 $194 $25 $-1 $360 reversed single #
loop $-1 $-1 $185 $179 #
plane-surface $-1 0 0 9.5880514668542478 0 0 1 1 0 0 forward_v I I I I #
coedge $-1 $361 $182 $187 $285 forward $109 $-1 #
coedge $-1 $182 $361 $280 $362 reversed $109 $-1 #
edge $-1 $283 -6.1383046677605018 $290 -0.76118893042699387 $182 $363 forward 7 unknown #
edge $-1 $196 0.76118893042699387 $282 6.1383046677605018 $192 $364 forward 7 unknown #
coedge $-1 $365 $185 $277 $362 forward $274 $-1 #
coedge $-1 $185 $365 $292 $366 forward $274 $-1 #
vertex $-1 $279 $367 #
vertex $-1 $362 $368 #
straight-curve $-1 0 -17.170504683273368 9.5880514668542478 -1 0 0 I I #
edge $-1 $290 6.7122333493624833 $288 14.204309318459286 $276 $369 forward 7 unknown #
coedge $-1 $370 $188 $193 $293 reversed $180 $-1 #
coedge $-1 $188 $370 $361 $371 forward $180 $-1 #
vertex $-1 $189 $372 #
straight-curve $-1 0 -24.66258065237017 4.2109357295207417 1 0 0 I I #
vertex $-1 $285 $373 #
straight-curve $-1 0 -17.170504683273368 4.2109357295207417 1 0 0 I I #
coedge $-1 $193 $192 $281 $366 reversed $194 $-1 #
edge $-1 $374 -9.5880514668542478 $195 -4.2109357295207417 $193 $375 forward 7 unknown #
point $-1 54.906460768456071 -24.66258065237017 4.2109357295207417 #
point $-1 54.906460768456071 -17.170504683273368 4.2109357295207417 #
plane-surface $-1 0 0 9.5880514668542478 0 0 1 1 0 0 forward_v I I I I #
coedge $-1 $206 $376 $301 $377 forward $199 $-1 #
coedge $-1 $299 $201 $376 $378 reversed $117 $-1 #
coedge $-1 $201 $298 $302 $379 reversed $117 $-1 #
edge $-1 $303 65.968648106273548 $380 70.229697893524246 $201 $381 forward 7 unknown #
coedge $-1 $203 $202 $297 $377 reversed $73 $-1 #
coedge $-1 $209 $204 $299 $379 forward $210 $-1 #
vertex $-1 $379 $382 #
straight-curve $-1 52.58572677669676 -6.2827280395833247 9.5880514668542389 0 -1 0 I I #
coedge $-1 $376 $206 $209 $309 reversed $199 $-1 #
vertex $-1 $207 $383 #
straight-curve $-1 54.906460768456071 -7.9604074750599274 78.959851402126901 0 0 1 I I #
straight-curve $-1 -4.901941496081065 -7.9604074750599274 98.111300539716694 0.54463902268945019 0 -0.83867057594974714 I I #
edge $-1 $384 -17.170504683273368 $211 -7.9604074750599274 $305 $385 forward 7 unknown #
point $-1 54.906460768456071 -7.9604074750599274 9.5880514668542478 #
point $-1 52.585726776696752 -7.9604074750599274 9.5880514668542531 #
edge $-1 $386 1 $386 0 $214 $-1 forward 7 unknown #
vertex $-1 $215 $387 #
ellipse-curve $-1 52.281830795205614 -14.539048338069531 6.8503394618947349 0.83867057594974714 0 0.54463902268945019 0.2723195113447251 0 -0.41933528797487357 1 I I #
point $-1 54.018413283921141 -14.539048338069531 7.3819076392673377 #
edge $-1 $388 1 $388 0 $218 $-1 forward 7 unknown #
vertex $-1 $219 $389 #
ellipse-curve $-1 52.281830795205614 -10.59186382026377 6.8503394618947349 0.83867057594974714 0 0.54463902268945019 0.2723195113447251 0 -0.41933528797487357 1 I I #
point $-1 54.018413283921141 -10.59186382026377 7.3819076392673377 #
plane-surface $-1 -54.906460768456071 0 0 1 0 0 0 0 -1 forward_v I I I I #
coedge $-1 $390 $391 $227 $325 forward $223 $-1 #
coedge $-1 $225 $329 $390 $392 forward $139 $-1 #
coedge $-1 $227 $226 $225 $324 reversed $87 $-1 #
edge $-1 $393 -10.887776643690042 $330 -1.6776794354766027 $225 $394 forward 7 unknown #
edge $-1 $327 -15.323237125068147 $393 -11.062187337817473 $321 $395 forward 7 unknown #
coedge $-1 $233 $228 $391 $396 forward $234 $-1 #
vertex $-1 $396 $397 #
straight-curve $-1 -54.906460768456071 -6.2827280395833247 6.0144343876301782 0 -1 0 I I #
coedge $-1 $322 $230 $233 $333 forward $139 $-1 #
vertex $-1 $231 $398 #
straight-curve $-1 -73.501663460271288 -7.9604074750599274 9.588051466854246 -1 0 0 I I #
straight-curve $-1 -54.906460768456071 -7.9604074750599274 6.0144343876301747 0.54463902268945019 0 0.83867057594974714 I I #
edge $-1 $235 7.9604074750599274 $399 17.170504683273368 $233 $400 forward 7 unknown #
point $-1 -54.906460768456071 -7.9604074750599274 9.5880514668542478 #
point $-1 -54.906460768456071 -7.9604074750599274 6.0144343876301747 #
edge $-1 $401 1 $401 0 $238 $-1 forward 7 unknown #
vertex $-1 $239 $402 #
ellipse-curve $-1 -52.281830795205622 -14.539048338069531 6.8503394618947349 -0.83867057594974714 0 0.54463902268945019 0.2723195113447251 0 0.41933528797487357 1 I I #
point $-1 -53.473774261231696 -14.539048338069531 8.2205782152170848 #
edge $-1 $403 1 $403 0 $242 $-1 forward 7 unknown #
vertex $-1 $243 $404 #
ellipse-curve $-1 -52.281830795205622 -10.59186382026377 6.8503394618947349 -0.83867057594974714 0 0.54463902268945019 0.2723195113447251 0 0.41933528797487357 1 I I #
point $-1 -53.473774261231696 -10.59186382026377 8.2205782152170848 #
plane-surface $-1 54.906460768456071 0 0 -1 0 0 0 0 1 forward_v I I I I #
coedge $-1 $251 $249 $253 $349 reversed $161 $-1 #
edge $-1 $264 -9.5880514668542478 $351 9.5880514668542478 $263 $405 forward 7 unknown #
vertex $-1 $349 $406 #
straight-curve $-1 -54.906460768456071 -24.66258065237017 0 0 0 -1 I I #
edge $-1 $347 -24.66258065237017 $351 24.66258065237017 $345 $407 forward 7 unknown #
straight-curve $-1 0 -24.66258065237017 -9.5880514668542478 -1 0 0 I I #
vertex $-1 $256 $408 #
straight-curve $-1 0 24.66258065237017 -9.5880514668542478 1 0 0 I I #
point $-1 54.906460768456071 24.66258065237017 -9.5880514668542478 #
point $-1 54.906460768456071 -24.66258065237017 -9.5880514668542478 #
straight-curve $-1 -54.906460768456071 0 9.5880514668542478 0 -1 0 I I #
point $-1 -54.906460768456071 24.66258065237017 9.5880514668542478 #
point $-1 -54.906460768456071 -24.66258065237017 9.5880514668542478 #
straight-curve $-1 54.906460768456071 -24.66258065237017 0 0 0 -1 I I #
straight-curve $-1 54.906460768456071 24.66258065237017 0 0 0 -1 I I #
plane-surface $-1 54.906460768456071 0 0 -1 0 0 0 0 1 forward_v I I I I #
coedge $-1 $277 $276 $287 $371 reversed $109 $-1 #
edge $-1 $283 17.170504683273368 $409 24.66258065237017 $277 $410 forward 7 unknown #
straight-curve $-1 -54.906460768456071 -17.170504683273368 3.4497467990937478 0 0 -1 I I #
straight-curve $-1 54.906460768456071 -17.170504683273368 3.4497467990937478 0 0 1 I I #
coedge $-1 $281 $280 $370 $411 forward $274 $-1 #
edge $-1 $374 -24.66258065237017 $282 -17.170504683273368 $292 $412 forward 7 unknown #
point $-1 54.906460768456071 -17.170504683273368 9.5880514668542496 #
point $-1 -54.906460768456071 -17.170504683273368 9.5880514668542496 #
straight-curve $-1 -54.906460768456071 -10.458271333910885 4.2109357295207417 0 -1 0 I I #
coedge $-1 $287 $286 $365 $411 reversed $180 $-1 #
edge $-1 $409 -9.5880514668542478 $288 -4.2109357295207417 $361 $413 forward 7 unknown #
point $-1 -54.906460768456071 -24.66258065237017 4.2109357295207417 #
point $-1 -54.906460768456071 -17.170504683273368 4.2109357295207417 #
vertex $-1 $366 $414 #
straight-curve $-1 54.906460768456071 -24.66258065237017 0 0 0 -1 I I #
coedge $-1 $297 $305 $298 $378 forward $199 $-1 #
edge $-1 $380 -10.887776643690042 $306 -1.6776794354766027 $297 $415 forward 7 unknown #
edge $-1 $384 -6.1383046677605018 $380 -2.5646875885364055 $376 $416 forward 7 unknown #
edge $-1 $303 52.585726776696752 $384 54.906460768456071 $302 $417 forward 7 unknown #
vertex $-1 $300 $418 #
straight-curve $-1 16.656626743951684 -17.170504683273368 64.914015568768875 0.54463902268945019 0 -0.83867057594974714 I I #
point $-1 52.585726776696752 -17.170504683273368 9.5880514668542478 #
point $-1 54.906460768456071 -7.9604074750599274 6.0144343876301463 #
vertex $-1 $309 $419 #
straight-curve $-1 54.906460768456071 0 9.5880514668542478 0 1 0 I I #
vertex $-1 $312 $420 #
point $-1 52.554150306550341 -14.539048338069531 6.4310041739198613 #
vertex $-1 $316 $421 #
point $-1 52.554150306550341 -10.59186382026377 6.4310041739198613 #
coedge $-1 $391 $321 $322 $392 reversed $223 $-1 #
coedge $-1 $321 $390 $326 $396 reversed $223 $-1 #
edge $-1 $399 -54.906460768456071 $393 -52.585726776696781 $322 $422 forward 7 unknown #
vertex $-1 $325 $423 #
straight-curve $-1 -52.585726776696781 -6.2827280395833247 9.5880514668542478 0 1 0 I I #
straight-curve $-1 -46.560827876220259 -17.170504683273368 18.865582492725625 0.54463902268945019 0 0.83867057594974714 I I #
edge $-1 $327 2.5646875885364269 $399 6.1383046677605018 $326 $424 forward 7 unknown #
point $-1 -54.906460768456071 -17.170504683273368 6.0144343876301747 #
point $-1 -52.585726776696774 -7.9604074750599274 9.5880514668542478 #
vertex $-1 $396 $425 #
straight-curve $-1 -54.906460768456071 0 9.5880514668542478 0 -1 0 I I #
vertex $-1 $336 $426 #
point $-1 -52.009511283860896 -14.539048338069531 7.2696747498696084 #
vertex $-1 $340 $427 #
point $-1 -52.009511283860896 -10.59186382026377 7.2696747498696084 #
straight-curve $-1 -54.906460768456071 24.66258065237017 0 0 0 -1 I I #
point $-1 -54.906460768456071 -24.66258065237017 -9.5880514668542478 #
straight-curve $-1 -54.906460768456071 0 -9.5880514668542478 0 1 0 I I #
point $-1 -54.906460768456071 24.66258065237017 -9.5880514668542478 #
vertex $-1 $362 $428 #
straight-curve $-1 -54.906460768456071 0 9.5880514668542478 0 -1 0 I I #
edge $-1 $409 -54.906460768456071 $374 54.906460768456071 $370 $429 forward 7 unknown #
straight-curve $-1 54.906460768456071 0 9.5880514668542478 0 1 0 I I #
straight-curve $-1 -54.906460768456071 -24.66258065237017 0 0 0 -1 I I #
point $-1 54.906460768456071 -24.66258065237017 9.5880514668542478 #
straight-curve $-1 54.906460768456071 -6.2827280395833247 6.0144343876301463 0 1 0 I I #
straight-curve $-1 54.906460768456071 -17.170504683273368 3.4497467990937478 0 0 -1 I I #
straight-curve $-1 0 -17.170504683273368 9.5880514668542478 1 0 0 I I #
point $-1 54.906460768456071 -17.170504683273368 6.0144343876301534 #
point $-1 54.906460768456071 -17.170504683273368 9.5880514668542496 #
point $-1 51.86249550723074 -14.539048338069531 6.5780199505500105 #
point $-1 51.86249550723074 -10.59186382026377 6.5780199505500105 #
straight-curve $-1 0 -17.170504683273368 9.5880514668542478 1 0 0 I I #
point $-1 -52.585726776696781 -17.170504683273368 9.5880514668542478 #
straight-curve $-1 -54.906460768456071 -17.170504683273368 3.4497467990937478 0 0 1 I I #
point $-1 -54.906460768456071 -17.170504683273368 9.5880514668542496 #
point $-1 -51.862495507230747 -14.539048338069531 6.5780199505500105 #
point $-1 -51.862495507230747 -10.59186382026377 6.5780199505500105 #
point $-1 -54.906460768456071 -24.66258065237017 9.5880514668542478 #
straight-curve $-1 0 -24.66258065237017 9.5880514668542478 1 0 0 I I #
End-of-ACIS-data 