500 0 11 0           
7 Unknown 11 ACIS 5.0 NT 24 Fri Mar 26 01:08:17 1999 
-1 9.9999999999999995e-007 1e-010 
body $-1 $11 $-1 $12 #
body $-1 $13 $-1 $14 #
body $-1 $15 $-1 $16 #
body $-1 $17 $-1 $18 #
body $-1 $19 $-1 $20 #
body $-1 $21 $-1 $22 #
body $-1 $23 $-1 $24 #
body $-1 $25 $-1 $26 #
body $-1 $27 $-1 $28 #
body $-1 $29 $-1 $30 #
body $-1 $31 $-1 $32 #
lump $-1 $-1 $33 $0 #
transform $-1 1 0 0 0 1 0 0 0 1 49.422894985808895 20.684100714084039 4.7106245054103439 1 rotate no_reflect no_shear #
lump $-1 $-1 $34 $1 #
transform $-1 1 0 0 0 1 0 0 0 1 49.422894985808895 20.684100714084039 4.7106245054103439 1 rotate no_reflect no_shear #
lump $-1 $-1 $35 $2 #
transform $-1 1 0 0 0 1 0 0 0 1 49.422894985808895 20.684100714084039 4.7106245054103439 1 rotate no_reflect no_shear #
lump $-1 $-1 $36 $3 #
transform $-1 1 0 0 0 1 0 0 0 1 49.422894985808895 20.684100714084039 4.7106245054103439 1 rotate no_reflect no_shear #
lump $-1 $-1 $37 $4 #
transform $-1 1 0 0 0 1 0 0 0 1 49.422894985808895 20.684100714084039 4.7106245054103439 1 rotate no_reflect no_shear #
lump $-1 $-1 $38 $5 #
transform $-1 1 0 0 0 1 0 0 0 1 49.422894985808895 20.684100714084039 4.7106245054103439 1 rotate no_reflect no_shear #
lump $-1 $-1 $39 $6 #
transform $-1 1 0 0 0 1 0 0 0 1 49.422894985808895 20.684100714084039 4.7106245054103439 1 rotate no_reflect no_shear #
lump $-1 $-1 $40 $7 #
transform $-1 1 0 0 0 1 0 0 0 1 49.422894985808895 20.684100714084039 4.7106245054103439 1 rotate no_reflect no_shear #
lump $-1 $-1 $41 $8 #
transform $-1 1 0 0 0 1 0 0 0 1 49.422894985808895 20.684100714084039 4.7106245054103439 1 rotate no_reflect no_shear #
lump $-1 $-1 $42 $9 #
transform $-1 1 0 0 0 1 0 0 0 1 49.422894985808895 20.684100714084039 4.7106245054103439 1 rotate no_reflect no_shear #
lump $-1 $-1 $43 $10 #
transform $-1 1 0 0 0 1 0 0 0 1 49.422894985808895 20.684100714084039 4.7106245054103439 1 rotate no_reflect no_shear #
shell $-1 $-1 $-1 $44 $-1 $11 #
shell $-1 $-1 $-1 $45 $-1 $13 #
shell $-1 $-1 $-1 $46 $-1 $15 #
shell $-1 $-1 $-1 $47 $-1 $17 #
shell $-1 $-1 $-1 $48 $-1 $19 #
shell $-1 $-1 $-1 $49 $-1 $21 #
shell $-1 $-1 $-1 $50 $-1 $23 #
shell $-1 $-1 $-1 $51 $-1 $25 #
shell $-1 $-1 $-1 $52 $-1 $27 #
shell $-1 $-1 $-1 $53 $-1 $29 #
shell $-1 $-1 $-1 $54 $-1 $31 #
face $-1 $55 $56 $33 $-1 $57 forward single #
face $-1 $58 $59 $34 $-1 $60 reversed single #
face $-1 $61 $62 $35 $-1 $63 reversed single #
face $-1 $64 $65 $36 $-1 $66 reversed single #
face $-1 $67 $68 $37 $-1 $69 forward single #
face $-1 $70 $71 $38 $-1 $72 forward single #
face $-1 $73 $74 $39 $-1 $75 forward single #
face $-1 $76 $77 $40 $-1 $78 reversed single #
face $-1 $79 $80 $41 $-1 $81 forward single #
face $-1 $82 $83 $42 $-1 $84 forward single #
face $-1 $85 $86 $43 $-1 $87 forward single #
face $-1 $88 $89 $33 $-1 $90 reversed single #
loop $-1 $-1 $91 $44 #
plane-surface $-1 0 0 4.7106245054103439 0 0 1 1 0 0 forward_v I I I I #
face $-1 $92 $93 $34 $-1 $94 reversed single #
loop $-1 $-1 $95 $45 #
plane-surface $-1 -47.577621730655679 -18.970957647810213 0 0 1 0 0 0 1 forward_v I I I I #
face $-1 $96 $97 $35 $-1 $98 reversed single #
loop $-1 $-1 $99 $46 #
plane-surface $-1 47.577621730655679 -18.970957647810213 0 0 1 0 0 0 1 forward_v I I I I #
face $-1 $100 $101 $36 $-1 $102 reversed single #
loop $-1 $-1 $103 $47 #
plane-surface $-1 5.5641791710504833 66.460109545144775 97.498186498331506 1 0 0 0 -0.74314483375859142 -0.66913059716165679 forward_v I I I I #
face $-1 $104 $105 $37 $-1 $106 forward single #
loop $-1 $107 $108 $48 #
cone-surface $-1 8.3169687104999923 17.870790537593408 1.789902498924874 0 -0.74314483375859142 -0.66913059716165679 1 0 0 1 I I 0 1 1 forward I I I I #
face $-1 $109 $110 $38 $-1 $111 forward single #
loop $-1 $112 $113 $49 #
cone-surface $-1 12.446153019674256 17.870790537593408 1.789902498924874 0 -0.74314483375859142 -0.66913059716165679 1 0 0 1 I I 0 1 1 forward I I I I #
face $-1 $114 $115 $39 $-1 $116 forward single #
loop $-1 $117 $118 $50 #
cone-surface $-1 16.575337328848519 17.870790537593408 1.789902498924874 0 -0.74314483375859142 -0.66913059716165679 1 0 0 1 I I 0 1 1 forward I I I I #
face $-1 $119 $120 $40 $-1 $121 reversed single #
loop $-1 $-1 $122 $51 #
plane-surface $-1 -9.7512663536404123 -89.348156909151839 71.327829157320679 -1 0 0 0 -0.69465837861970381 0.71933979245794832 forward_v I I I I #
face $-1 $123 $124 $41 $-1 $125 forward single #
loop $-1 $126 $127 $52 #
cone-surface $-1 -25.606449796050882 -17.005450943742581 1.0635099654271916 0 0.69465837861970381 -0.71933979245794832 1.5 0 0 1 I I 0 1 1.5 forward I I I I #
face $-1 $128 $129 $42 $-1 $130 forward single #
loop $-1 $131 $132 $53 #
cone-surface $-1 -19.660756005146954 -17.005450943742581 1.0635099654271916 0 0.69465837861970381 -0.71933979245794832 1.5 0 0 1 I I 0 1 1.5 forward I I I I #
face $-1 $133 $134 $43 $-1 $135 forward single #
loop $-1 $136 $137 $54 #
cone-surface $-1 -13.715062214243027 -17.005450943742581 1.0635099654271916 0 0.69465837861970381 -0.71933979245794832 1.5 0 0 1 I I 0 1 1.5 forward I I I I #
face $-1 $138 $139 $33 $-1 $140 reversed single #
loop $-1 $-1 $141 $55 #
plane-surface $-1 0 0 -4.7106245054103439 0 0 1 1 0 0 forward_v I I I I #
coedge $-1 $142 $143 $144 $145 forward $56 $-1 #
face $-1 $146 $147 $34 $-1 $148 reversed single #
loop $-1 $-1 $149 $58 #
plane-surface $-1 -47.577621730655679 -15.970957647810213 0 0 -1 0 0 0 -1 forward_v I I I I #
coedge $-1 $150 $151 $152 $153 reversed $59 $-1 #
face $-1 $154 $155 $35 $-1 $156 reversed single #
loop $-1 $-1 $157 $61 #
plane-surface $-1 45.732348475502462 -17.470957647810213 0 1 0 0 0 0 -1 forward_v I I I I #
coedge $-1 $158 $159 $160 $161 forward $62 $-1 #
face $-1 $162 $163 $36 $-1 $164 reversed single #
loop $-1 $-1 $165 $64 #
plane-surface $-1 12.446153019674256 -6.996628611049772 31.357444027707189 0 0.74314483375859142 0.66913059716165679 1 0 0 forward_v I I I I #
coedge $-1 $166 $167 $168 $169 reversed $65 $-1 #
face $-1 $-1 $170 $37 $-1 $171 forward single #
loop $-1 $172 $173 $67 #
cone-surface $-1 8.3169687104999923 16.529820872588147 0.58248801932409577 0 -0.74314483375859142 -0.66913059716165679 0.5 0 0 1 I I -0.70710678118654746 0.70710678118654746 0.5 forward I I I I #
loop $-1 $-1 $174 $48 #
coedge $-1 $108 $108 $175 $176 reversed $68 $-1 #
face $-1 $-1 $177 $38 $-1 $178 forward single #
loop $-1 $179 $180 $70 #
cone-surface $-1 12.446153019674256 16.529820872588147 0.58248801932409577 0 -0.74314483375859142 -0.66913059716165679 0.5 0 0 1 I I -0.70710678118654746 0.70710678118654746 0.5 forward I I I I #
loop $-1 $-1 $181 $49 #
coedge $-1 $113 $113 $182 $183 reversed $71 $-1 #
face $-1 $-1 $184 $39 $-1 $185 forward single #
loop $-1 $186 $187 $73 #
cone-surface $-1 16.575337328848519 16.529820872588147 0.58248801932409577 0 -0.74314483375859142 -0.66913059716165679 0.5 0 0 1 I I -0.70710678118654746 0.70710678118654746 0.5 forward I I I I #
loop $-1 $-1 $188 $50 #
coedge $-1 $118 $118 $189 $190 reversed $74 $-1 #
face $-1 $191 $192 $40 $-1 $193 reversed single #
loop $-1 $-1 $194 $76 #
plane-surface $-1 -19.660756005146958 -20.684100714084053 0.22411911379518301 0 -0.69465837861970381 0.71933979245794832 1 0 0 forward_v I I I I #
coedge $-1 $195 $196 $197 $198 reversed $77 $-1 #
face $-1 $-1 $199 $41 $-1 $200 forward single #
loop $-1 $201 $202 $79 #
cone-surface $-1 -25.606449796050882 -15.128763504698828 -0.87985672309183904 0 0.69465837861970381 -0.71933979245794832 0.75 0 0 1 I I -0.70710678118654757 0.70710678118654757 0.75 forward I I I I #
loop $-1 $-1 $203 $52 #
coedge $-1 $127 $127 $204 $205 reversed $80 $-1 #
face $-1 $-1 $206 $42 $-1 $207 forward single #
loop $-1 $208 $209 $82 #
cone-surface $-1 -19.660756005146954 -15.128763504698828 -0.87985672309183904 0 0.69465837861970381 -0.71933979245794832 0.75 0 0 1 I I -0.70710678118654757 0.70710678118654757 0.75 forward I I I I #
loop $-1 $-1 $210 $53 #
coedge $-1 $132 $132 $211 $212 reversed $83 $-1 #
face $-1 $-1 $213 $43 $-1 $214 forward single #
loop $-1 $215 $216 $85 #
cone-surface $-1 -13.715062214243027 -15.128763504698828 -0.87985672309183904 0 0.69465837861970381 -0.71933979245794832 0.75 0 0 1 I I -0.70710678118654757 0.70710678118654757 0.75 forward I I I I #
loop $-1 $-1 $217 $54 #
coedge $-1 $137 $137 $218 $219 reversed $86 $-1 #
face $-1 $220 $221 $33 $-1 $222 reversed single #
loop $-1 $-1 $223 $88 #
plane-surface $-1 0 -20.684100714084039 0 0 1 0 0 0 1 forward_v I I I I #
coedge $-1 $224 $225 $226 $227 forward $89 $-1 #
coedge $-1 $228 $91 $229 $230 forward $56 $-1 #
coedge $-1 $91 $228 $231 $232 forward $56 $-1 #
coedge $-1 $233 $234 $91 $145 reversed $235 $-1 #
edge $-1 $236 -20.684100714084039 $237 20.684100714084039 $144 $238 forward 7 unknown #
face $-1 $239 $240 $34 $-1 $241 reversed single #
loop $-1 $-1 $242 $92 #
plane-surface $-1 -45.732348475502462 -17.470957647810213 0 -1 0 0 0 0 1 forward_v I I I I #
coedge $-1 $243 $244 $245 $246 forward $93 $-1 #
coedge $-1 $247 $95 $248 $249 reversed $59 $-1 #
coedge $-1 $95 $247 $250 $251 reversed $59 $-1 #
coedge $-1 $252 $253 $95 $153 forward $254 $-1 #
edge $-1 $255 -4.7106245054103439 $256 4.7106245054103439 $152 $257 forward 7 unknown #
face $-1 $258 $259 $35 $-1 $260 reversed single #
loop $-1 $-1 $261 $96 #
plane-surface $-1 47.577621730655679 -15.970957647810213 0 0 -1 0 0 0 -1 forward_v I I I I #
coedge $-1 $262 $263 $264 $265 forward $97 $-1 #
coedge $-1 $266 $99 $267 $268 reversed $62 $-1 #
coedge $-1 $99 $266 $269 $270 reversed $62 $-1 #
coedge $-1 $263 $262 $99 $161 reversed $97 $-1 #
edge $-1 $271 -4.7106245054103439 $272 4.7106245054103439 $160 $273 forward 7 unknown #
face $-1 $274 $275 $36 $-1 $276 reversed single #
loop $-1 $-1 $277 $100 #
plane-surface $-1 19.328126868298028 66.460109545144775 97.498186498331506 -1 0 0 0 0.74314483375859142 0.66913059716165679 forward_v I I I I #
coedge $-1 $278 $279 $280 $281 reversed $101 $-1 #
coedge $-1 $167 $103 $282 $283 reversed $65 $-1 #
coedge $-1 $103 $166 $278 $284 reversed $65 $-1 #
coedge $-1 $280 $285 $103 $169 forward $286 $-1 #
edge $-1 $287 12.545954058488348 $288 16.233779915217678 $168 $289 forward 7 unknown #
loop $-1 $-1 $175 $104 #
plane-surface $-1 12.446153019674256 -6.996628611049772 31.357444027707189 0 0.74314483375859142 0.66913059716165679 1 0 0 forward_v I I I I #
loop $-1 $-1 $290 $67 #
coedge $-1 $173 $173 $174 $291 reversed $105 $-1 #
coedge $-1 $174 $174 $173 $291 forward $107 $-1 #
coedge $-1 $175 $175 $108 $176 forward $170 $-1 #
edge $-1 $292 -6.60045204056018e-016 $292 6.2831853071795996 $175 $293 forward 7 unknown #
loop $-1 $-1 $182 $109 #
plane-surface $-1 12.446153019674256 -6.996628611049772 31.357444027707189 0 0.74314483375859142 0.66913059716165679 1 0 0 forward_v I I I I #
loop $-1 $-1 $294 $70 #
coedge $-1 $180 $180 $181 $295 reversed $110 $-1 #
coedge $-1 $181 $181 $180 $295 forward $112 $-1 #
coedge $-1 $182 $182 $113 $183 forward $177 $-1 #
edge $-1 $296 -6.60045204056018e-016 $296 6.2831853071795996 $182 $297 forward 7 unknown #
loop $-1 $-1 $189 $114 #
plane-surface $-1 12.446153019674256 -6.996628611049772 31.357444027707189 0 0.74314483375859142 0.66913059716165679 1 0 0 forward_v I I I I #
loop $-1 $-1 $298 $73 #
coedge $-1 $187 $187 $188 $299 reversed $115 $-1 #
coedge $-1 $188 $188 $187 $299 forward $117 $-1 #
coedge $-1 $189 $189 $118 $190 forward $184 $-1 #
edge $-1 $300 -6.60045204056018e-016 $300 6.2831853071795996 $189 $301 forward 7 unknown #
face $-1 $302 $303 $40 $-1 $304 forward single #
loop $-1 $-1 $305 $119 #
plane-surface $-1 -29.570245656653505 -89.348156909151839 71.327829157320679 1 0 0 0 0.69465837861970381 -0.71933979245794832 forward_v I I I I #
coedge $-1 $306 $307 $308 $309 reversed $120 $-1 #
coedge $-1 $196 $122 $310 $311 reversed $77 $-1 #
coedge $-1 $122 $195 $306 $312 reversed $77 $-1 #
coedge $-1 $308 $313 $122 $198 forward $303 $-1 #
edge $-1 $314 23.989977740491881 $315 28.63588997101682 $197 $316 forward 7 unknown #
loop $-1 $-1 $204 $123 #
plane-surface $-1 -19.660756005146958 -20.684100714084053 0.22411911379518301 0 -0.69465837861970381 0.71933979245794832 1 0 0 forward_v I I I I #
loop $-1 $-1 $317 $79 #
coedge $-1 $202 $202 $203 $318 reversed $124 $-1 #
coedge $-1 $203 $203 $202 $318 forward $126 $-1 #
coedge $-1 $204 $204 $127 $205 forward $199 $-1 #
edge $-1 $319 1.7537199311053425e-016 $319 6.2831853071796004 $204 $320 forward 7 unknown #
loop $-1 $-1 $211 $128 #
plane-surface $-1 -19.660756005146958 -20.684100714084053 0.22411911379518301 0 -0.69465837861970381 0.71933979245794832 1 0 0 forward_v I I I I #
loop $-1 $-1 $321 $82 #
coedge $-1 $209 $209 $210 $322 reversed $129 $-1 #
coedge $-1 $210 $210 $209 $322 forward $131 $-1 #
coedge $-1 $211 $211 $132 $212 forward $206 $-1 #
edge $-1 $323 1.7537199311053425e-016 $323 6.2831853071796004 $211 $324 forward 7 unknown #
loop $-1 $-1 $218 $133 #
plane-surface $-1 -19.660756005146958 -20.684100714084053 0.22411911379518301 0 -0.69465837861970381 0.71933979245794832 1 0 0 forward_v I I I I #
loop $-1 $-1 $325 $85 #
coedge $-1 $216 $216 $217 $326 reversed $134 $-1 #
coedge $-1 $217 $217 $216 $326 forward $136 $-1 #
coedge $-1 $218 $218 $137 $219 forward $213 $-1 #
edge $-1 $327 1.7537199311053425e-016 $327 6.2831853071796004 $218 $328 forward 7 unknown #
face $-1 $329 $330 $33 $-1 $331 reversed single #
loop $-1 $-1 $332 $138 #
plane-surface $-1 -49.422894985808895 0 0 1 0 0 0 0 -1 forward_v I I I I #
coedge $-1 $333 $231 $334 $335 forward $139 $-1 #
coedge $-1 $336 $141 $333 $337 forward $89 $-1 #
coedge $-1 $141 $336 $338 $339 forward $89 $-1 #
coedge $-1 $234 $233 $141 $227 reversed $235 $-1 #
edge $-1 $340 -20.684100714084039 $341 20.684100714084039 $226 $342 forward 7 unknown #
coedge $-1 $143 $142 $343 $344 forward $56 $-1 #
coedge $-1 $345 $346 $142 $230 reversed $330 $-1 #
edge $-1 $237 -49.422894985808895 $347 49.422894985808895 $229 $348 forward 7 unknown #
coedge $-1 $223 $349 $143 $232 reversed $139 $-1 #
edge $-1 $350 -49.422894985808895 $236 49.422894985808895 $231 $351 forward 7 unknown #
coedge $-1 $226 $144 $349 $352 forward $235 $-1 #
coedge $-1 $144 $226 $345 $353 reversed $235 $-1 #
loop $-1 $-1 $233 $329 #
vertex $-1 $145 $354 #
vertex $-1 $145 $355 #
straight-curve $-1 49.422894985808895 0 4.7106245054103439 0 1 0 I I #
face $-1 $356 $357 $34 $-1 $358 forward single #
loop $-1 $-1 $359 $146 #
plane-surface $-1 0 0 -4.7106245054103439 0 0 1 1 0 0 forward_v I I I I #
coedge $-1 $360 $361 $247 $362 forward $147 $-1 #
coedge $-1 $363 $149 $359 $364 reversed $93 $-1 #
coedge $-1 $149 $363 $365 $366 reversed $93 $-1 #
coedge $-1 $361 $360 $149 $246 reversed $147 $-1 #
edge $-1 $367 -4.7106245054103439 $368 4.7106245054103439 $245 $369 forward 7 unknown #
coedge $-1 $151 $150 $242 $362 reversed $59 $-1 #
coedge $-1 $370 $371 $150 $249 forward $240 $-1 #
edge $-1 $372 21.943537610174623 $255 25.634084120481056 $248 $373 forward 7 unknown #
coedge $-1 $374 $375 $151 $251 forward $357 $-1 #
edge $-1 $256 -25.634084120481056 $376 -21.943537610174623 $250 $377 forward 7 unknown #
coedge $-1 $378 $152 $375 $379 reversed $254 $-1 #
coedge $-1 $152 $378 $370 $380 reversed $254 $-1 #
loop $-1 $-1 $378 $356 #
vertex $-1 $380 $381 #
vertex $-1 $153 $382 #
straight-curve $-1 -49.422894985808895 -18.970957647810213 0 0 0 1 I I #
face $-1 $383 $384 $35 $-1 $385 forward single #
loop $-1 $-1 $267 $154 #
plane-surface $-1 0 0 -4.7106245054103439 0 0 1 1 0 0 forward_v I I I I #
coedge $-1 $386 $387 $388 $389 reversed $155 $-1 #
coedge $-1 $160 $157 $390 $391 reversed $97 $-1 #
coedge $-1 $157 $160 $392 $393 reversed $97 $-1 #
coedge $-1 $387 $386 $157 $265 reversed $155 $-1 #
edge $-1 $394 -4.7106245054103439 $395 4.7106245054103439 $264 $396 forward 7 unknown #
coedge $-1 $159 $158 $397 $398 reversed $62 $-1 #
coedge $-1 $390 $399 $158 $268 forward $259 $-1 #
edge $-1 $400 -25.634084120481056 $272 -21.943537610174623 $267 $401 forward 7 unknown #
coedge $-1 $402 $392 $159 $270 forward $384 $-1 #
edge $-1 $271 21.943537610174623 $403 25.634084120481056 $269 $404 forward 7 unknown #
vertex $-1 $270 $405 #
vertex $-1 $268 $406 #
straight-curve $-1 45.732348475502462 -18.970957647810213 0 0 0 -1 I I #
face $-1 $-1 $286 $36 $-1 $407 forward single #
loop $-1 $-1 $408 $162 #
plane-surface $-1 0 20.684100714084039 0 0 -1 0 0 0 -1 forward_v I I I I #
coedge $-1 $409 $410 $411 $412 reversed $163 $-1 #
coedge $-1 $413 $165 $167 $284 forward $101 $-1 #
coedge $-1 $165 $413 $409 $414 forward $101 $-1 #
coedge $-1 $411 $168 $165 $281 forward $286 $-1 #
edge $-1 $288 -0.65889733878664458 $415 13.1050503584609 $280 $416 forward 7 unknown #
coedge $-1 $417 $418 $166 $283 forward $275 $-1 #
edge $-1 $419 -48.134214394686452 $287 -44.038468743755409 $282 $420 forward 7 unknown #
edge $-1 $288 35.85683208954795 $419 41.368201428168078 $167 $421 forward 7 unknown #
coedge $-1 $168 $411 $417 $422 forward $286 $-1 #
loop $-1 $-1 $411 $274 #
vertex $-1 $283 $423 #
vertex $-1 $169 $424 #
straight-curve $-1 5.5641791710504833 33.230054772572387 4.7106245054103439 0 -1 0 I I #
coedge $-1 $290 $290 $-1 $425 reversed $172 $-1 #
edge $-1 $426 0 $426 6.2831853071796004 $173 $427 forward 7 unknown #
vertex $-1 $176 $428 #
ellipse-curve $-1 8.3169687104999923 18.840187785719372 2.6627516799448228 0 0.74314483375859142 0.66913059716165679 1 0 0 1 I I #
coedge $-1 $294 $294 $-1 $429 reversed $179 $-1 #
edge $-1 $430 0 $430 6.2831853071796004 $180 $431 forward 7 unknown #
vertex $-1 $183 $432 #
ellipse-curve $-1 12.446153019674256 18.840187785719372 2.6627516799448228 0 0.74314483375859142 0.66913059716165679 1 0 0 1 I I #
coedge $-1 $298 $298 $-1 $433 reversed $186 $-1 #
edge $-1 $434 0 $434 6.2831853071796004 $187 $435 forward 7 unknown #
vertex $-1 $190 $436 #
ellipse-curve $-1 16.575337328848519 18.840187785719372 2.6627516799448228 0 0.74314483375859142 0.66913059716165679 1 0 0 1 I I #
face $-1 $-1 $437 $40 $-1 $438 reversed single #
loop $-1 $-1 $197 $191 #
plane-surface $-1 0 0 4.7106245054103439 0 0 1 1 0 0 forward_v I I I I #
coedge $-1 $439 $440 $441 $442 reversed $192 $-1 #
coedge $-1 $443 $194 $196 $312 forward $120 $-1 #
coedge $-1 $194 $443 $439 $444 forward $120 $-1 #
coedge $-1 $441 $197 $194 $309 forward $303 $-1 #
edge $-1 $315 -0.079111648933066547 $445 19.739867654080026 $308 $446 forward 7 unknown #
coedge $-1 $447 $448 $195 $311 forward $437 $-1 #
edge $-1 $449 -35.439795464865142 $314 -30.953290073249995 $310 $450 forward 7 unknown #
edge $-1 $315 -6.4585781006916108 $449 -1.9747070999959293e-014 $196 $451 forward 7 unknown #
coedge $-1 $197 $441 $447 $452 forward $303 $-1 #
vertex $-1 $198 $453 #
vertex $-1 $198 $454 #
straight-curve $-1 -9.7512663536404123 -44.67407845457592 4.7106245054103439 0 1 0 I I #
coedge $-1 $317 $317 $-1 $455 reversed $201 $-1 #
edge $-1 $456 0 $456 6.2831853071796004 $202 $457 forward 7 unknown #
vertex $-1 $205 $458 #
ellipse-curve $-1 -25.606449796050882 -18.361144598821568 2.4673718096027715 0 -0.69465837861970381 0.71933979245794832 1.5 0 0 1 I I #
coedge $-1 $321 $321 $-1 $459 reversed $208 $-1 #
edge $-1 $460 0 $460 6.2831853071796004 $209 $461 forward 7 unknown #
vertex $-1 $212 $462 #
ellipse-curve $-1 -19.660756005146954 -18.361144598821568 2.4673718096027715 0 -0.69465837861970381 0.71933979245794832 1.5 0 0 1 I I #
coedge $-1 $325 $325 $-1 $463 reversed $215 $-1 #
edge $-1 $464 0 $464 6.2831853071796004 $216 $465 forward 7 unknown #
vertex $-1 $219 $466 #
ellipse-curve $-1 -13.715062214243027 -18.361144598821568 2.4673718096027715 0 -0.69465837861970381 0.71933979245794832 1.5 0 0 1 I I #
face $-1 $-1 $235 $33 $-1 $467 reversed single #
loop $-1 $-1 $345 $220 #
plane-surface $-1 0 20.684100714084039 0 0 -1 0 0 0 -1 forward_v I I I I #
coedge $-1 $468 $343 $346 $469 forward $221 $-1 #
coedge $-1 $349 $223 $224 $337 reversed $139 $-1 #
coedge $-1 $343 $468 $223 $335 reversed $221 $-1 #
edge $-1 $350 -4.7106245054103439 $470 4.7106245054103439 $334 $471 forward 7 unknown #
coedge $-1 $225 $224 $468 $472 forward $89 $-1 #
edge $-1 $341 -49.422894985808895 $470 49.422894985808895 $333 $473 forward 7 unknown #
coedge $-1 $346 $345 $225 $339 reversed $330 $-1 #
edge $-1 $474 -49.422894985808895 $340 49.422894985808895 $338 $475 forward 7 unknown #
vertex $-1 $227 $476 #
vertex $-1 $352 $477 #
straight-curve $-1 49.422894985808895 0 -4.7106245054103439 0 -1 0 I I #
coedge $-1 $332 $334 $228 $344 reversed $221 $-1 #
edge $-1 $347 -20.684100714084039 $350 20.684100714084039 $343 $478 forward 7 unknown #
coedge $-1 $338 $229 $234 $353 forward $330 $-1 #
coedge $-1 $229 $338 $332 $469 reversed $330 $-1 #
vertex $-1 $230 $479 #
straight-curve $-1 0 20.684100714084039 4.7106245054103439 -1 0 0 I I #
coedge $-1 $231 $333 $233 $352 reversed $139 $-1 #
vertex $-1 $344 $480 #
straight-curve $-1 0 -20.684100714084039 4.7106245054103439 1 0 0 I I #
edge $-1 $236 -4.7106245054103439 $341 4.7106245054103439 $233 $481 forward 7 unknown #
edge $-1 $237 -4.7106245054103439 $340 4.7106245054103439 $234 $482 forward 7 unknown #
point $-1 49.422894985808895 -20.684100714084039 4.7106245054103439 #
point $-1 49.422894985808895 20.684100714084039 4.7106245054103439 #
face $-1 $-1 $254 $34 $-1 $483 reversed single #
loop $-1 $-1 $365 $239 #
plane-surface $-1 0 0 4.7106245054103439 0 0 1 1 0 0 forward_v I I I I #
coedge $-1 $371 $370 $243 $364 forward $240 $-1 #
coedge $-1 $245 $242 $371 $484 reversed $147 $-1 #
coedge $-1 $242 $245 $374 $485 reversed $147 $-1 #
edge $-1 $376 -4.7106245054103439 $372 4.7106245054103439 $242 $486 forward 7 unknown #
coedge $-1 $244 $243 $378 $487 reversed $93 $-1 #
edge $-1 $488 -25.634084120481056 $368 -21.943537610174623 $359 $489 forward 7 unknown #
coedge $-1 $375 $374 $244 $366 forward $357 $-1 #
edge $-1 $367 21.943537610174623 $490 25.634084120481056 $365 $491 forward 7 unknown #
vertex $-1 $366 $492 #
vertex $-1 $364 $493 #
straight-curve $-1 -45.732348475502462 -15.970957647810213 0 0 0 -1 I I #
coedge $-1 $359 $248 $253 $380 forward $240 $-1 #
coedge $-1 $248 $359 $360 $484 forward $240 $-1 #
vertex $-1 $249 $494 #
straight-curve $-1 -23.788810865327839 -18.970957647810213 -4.7106245054103439 -1 0 0 I I #
coedge $-1 $365 $250 $361 $485 forward $357 $-1 #
coedge $-1 $250 $365 $252 $379 forward $357 $-1 #
vertex $-1 $251 $495 #
straight-curve $-1 -23.788810865327839 -18.970957647810213 4.7106245054103439 1 0 0 I I #
coedge $-1 $253 $252 $363 $487 forward $254 $-1 #
edge $-1 $490 15.970957647810213 $256 18.970957647810213 $252 $496 forward 7 unknown #
edge $-1 $255 -18.970957647810213 $488 -15.970957647810213 $253 $497 forward 7 unknown #
point $-1 -49.422894985808895 -18.970957647810213 -4.7106245054103439 #
point $-1 -49.422894985808895 -18.970957647810213 4.7106245054103439 #
face $-1 $-1 $498 $35 $-1 $499 reversed single #
loop $-1 $-1 $269 $258 #
plane-surface $-1 0 0 4.7106245054103439 0 0 1 1 0 0 forward_v I I I I #
coedge $-1 $264 $261 $500 $501 reversed $155 $-1 #
coedge $-1 $261 $264 $502 $503 reversed $155 $-1 #
coedge $-1 $504 $505 $261 $389 forward $498 $-1 #
edge $-1 $506 -4.7106245054103439 $507 4.7106245054103439 $388 $508 forward 7 unknown #
coedge $-1 $500 $267 $262 $391 forward $259 $-1 #
edge $-1 $272 -10.235478823905106 $395 -7.2354788239051064 $390 $509 forward 7 unknown #
coedge $-1 $269 $502 $263 $393 forward $384 $-1 #
edge $-1 $394 7.2354788239051064 $271 10.235478823905106 $392 $510 forward 7 unknown #
vertex $-1 $393 $511 #
vertex $-1 $391 $512 #
straight-curve $-1 45.732348475502462 -15.970957647810213 0 0 0 -1 I I #
coedge $-1 $505 $504 $266 $398 forward $498 $-1 #
edge $-1 $403 -4.7106245054103439 $400 4.7106245054103439 $397 $513 forward 7 unknown #
coedge $-1 $267 $500 $505 $514 forward $259 $-1 #
vertex $-1 $398 $515 #
straight-curve $-1 23.788810865327839 -18.970957647810213 -4.7106245054103439 -1 0 0 I I #
coedge $-1 $502 $269 $504 $516 forward $384 $-1 #
vertex $-1 $516 $517 #
straight-curve $-1 23.788810865327839 -18.970957647810213 4.7106245054103439 1 0 0 I I #
point $-1 45.732348475502462 -18.970957647810213 4.7106245054103439 #
point $-1 45.732348475502462 -18.970957647810213 -4.7106245054103439 #
plane-surface $-1 0 0 4.7106245054103439 0 0 1 1 0 0 forward_v I I I I #
coedge $-1 $418 $417 $410 $518 forward $275 $-1 #
coedge $-1 $410 $277 $279 $414 reversed $163 $-1 #
coedge $-1 $277 $409 $408 $518 reversed $163 $-1 #
coedge $-1 $285 $280 $277 $412 forward $286 $-1 #
edge $-1 $415 -16.233779915217678 $519 -12.545954058488348 $411 $520 forward 7 unknown #
coedge $-1 $279 $278 $418 $521 reversed $101 $-1 #
edge $-1 $522 -41.368201428168078 $415 -35.85683208954795 $409 $523 forward 7 unknown #
vertex $-1 $281 $524 #
straight-curve $-1 6.2230765098371279 16.996274857354713 4.7106245054103439 1 0 0 I I #
coedge $-1 $408 $282 $285 $422 reversed $275 $-1 #
coedge $-1 $282 $408 $413 $521 forward $275 $-1 #
vertex $-1 $283 $525 #
straight-curve $-1 5.5641791710504833 20.684100714084039 48.749093249165753 0 0 1 I I #
straight-curve $-1 5.5641791710504833 -6.996628611049772 31.357444027707189 0 0.66913059716165679 -0.74314483375859142 I I #
edge $-1 $519 -19.328126868298028 $287 -5.5641791710504833 $417 $526 forward 7 unknown #
point $-1 5.5641791710504833 20.684100714084039 4.7106245054103439 #
point $-1 5.5641791710504833 16.99627485735471 4.7106245054103475 #
edge $-1 $527 1 $527 0 $290 $-1 forward 7 unknown #
vertex $-1 $291 $528 #
ellipse-curve $-1 8.3169687104999923 16.901393289467443 0.91705331790492417 0 0.74314483375859142 0.66913059716165679 1 0 0 1 I I #
point $-1 9.3169687104999923 18.840187785719372 2.6627516799448236 #
edge $-1 $529 1 $529 0 $294 $-1 forward 7 unknown #
vertex $-1 $295 $530 #
ellipse-curve $-1 12.446153019674256 16.901393289467443 0.91705331790492417 0 0.74314483375859142 0.66913059716165679 1 0 0 1 I I #
point $-1 13.446153019674256 18.840187785719372 2.6627516799448236 #
edge $-1 $531 1 $531 0 $298 $-1 forward 7 unknown #
vertex $-1 $299 $532 #
ellipse-curve $-1 16.575337328848519 16.901393289467443 0.91705331790492417 0 0.74314483375859142 0.66913059716165679 1 0 0 1 I I #
point $-1 17.575337328848519 18.840187785719372 2.6627516799448236 #
loop $-1 $-1 $310 $302 #
plane-surface $-1 0 -20.684100714084039 0 0 1 0 0 0 1 forward_v I I I I #
coedge $-1 $440 $305 $307 $444 reversed $192 $-1 #
coedge $-1 $305 $439 $533 $534 reversed $192 $-1 #
coedge $-1 $313 $308 $305 $442 forward $303 $-1 #
edge $-1 $445 -28.63588997101682 $535 -23.989977740491881 $441 $536 forward 7 unknown #
coedge $-1 $307 $306 $448 $537 reversed $120 $-1 #
edge $-1 $538 1.9747070999959293e-014 $445 6.4585781006916108 $439 $539 forward 7 unknown #
vertex $-1 $309 $540 #
straight-curve $-1 -9.8303780025734788 -16.0381884835591 4.7106245054103439 -1 0 0 I I #
coedge $-1 $533 $310 $313 $452 reversed $437 $-1 #
coedge $-1 $310 $533 $443 $537 forward $437 $-1 #
vertex $-1 $311 $541 #
straight-curve $-1 -9.7512663536404123 -20.684100714084039 35.663914578660339 0 0 1 I I #
straight-curve $-1 -9.7512663536404123 -20.684100714084053 0.22411911379518301 0 -0.71933979245794832 -0.69465837861970381 I I #
edge $-1 $535 -29.570245656653505 $314 -9.7512663536404123 $447 $542 forward 7 unknown #
point $-1 -9.7512663536404123 -20.684100714084039 4.7106245054103439 #
point $-1 -9.7512663536404123 -16.0381884835591 4.7106245054103439 #
edge $-1 $543 1 $543 0 $317 $-1 forward 7 unknown #
vertex $-1 $318 $544 #
ellipse-curve $-1 -25.606449796050882 -15.649757288663606 -0.3403518787483778 0 -0.69465837861970381 0.71933979245794832 1.5 0 0 1 I I #
point $-1 -24.106449796050882 -18.361144598821557 2.4673718096027608 #
edge $-1 $545 1 $545 0 $321 $-1 forward 7 unknown #
vertex $-1 $322 $546 #
ellipse-curve $-1 -19.660756005146954 -15.649757288663606 -0.3403518787483778 0 -0.69465837861970381 0.71933979245794832 1.5 0 0 1 I I #
point $-1 -18.160756005146954 -18.361144598821557 2.4673718096027608 #
edge $-1 $547 1 $547 0 $325 $-1 forward 7 unknown #
vertex $-1 $326 $548 #
ellipse-curve $-1 -13.715062214243027 -15.649757288663606 -0.3403518787483778 0 -0.69465837861970381 0.71933979245794832 1.5 0 0 1 I I #
point $-1 -12.215062214243027 -18.361144598821557 2.4673718096027608 #
plane-surface $-1 49.422894985808895 0 0 -1 0 0 0 0 1 forward_v I I I I #
coedge $-1 $334 $332 $336 $472 reversed $221 $-1 #
edge $-1 $347 -4.7106245054103439 $474 4.7106245054103439 $346 $549 forward 7 unknown #
vertex $-1 $472 $550 #
straight-curve $-1 -49.422894985808895 -20.684100714084039 0 0 0 -1 I I #
edge $-1 $470 -20.684100714084039 $474 20.684100714084039 $468 $551 forward 7 unknown #
straight-curve $-1 0 -20.684100714084039 -4.7106245054103439 -1 0 0 I I #
vertex $-1 $339 $552 #
straight-curve $-1 0 20.684100714084039 -4.7106245054103439 1 0 0 I I #
point $-1 49.422894985808895 20.684100714084039 -4.7106245054103439 #
point $-1 49.422894985808895 -20.684100714084039 -4.7106245054103439 #
straight-curve $-1 -49.422894985808895 0 4.7106245054103439 0 -1 0 I I #
point $-1 -49.422894985808895 20.684100714084039 4.7106245054103439 #
point $-1 -49.422894985808895 -20.684100714084039 4.7106245054103439 #
straight-curve $-1 49.422894985808895 -20.684100714084039 0 0 0 -1 I I #
straight-curve $-1 49.422894985808895 20.684100714084039 0 0 0 -1 I I #
plane-surface $-1 -49.422894985808895 0 0 1 0 0 0 0 -1 forward_v I I I I #
edge $-1 $368 7.2354788239051064 $372 10.235478823905106 $371 $553 forward 7 unknown #
edge $-1 $376 -10.235478823905106 $367 -7.2354788239051064 $374 $554 forward 7 unknown #
straight-curve $-1 -45.732348475502462 -18.970957647810213 0 0 0 -1 I I #
edge $-1 $490 -4.7106245054103439 $488 4.7106245054103439 $378 $555 forward 7 unknown #
vertex $-1 $487 $556 #
straight-curve $-1 -23.788810865327839 -15.970957647810213 -4.7106245054103439 1 0 0 I I #
vertex $-1 $379 $557 #
straight-curve $-1 -23.788810865327839 -15.970957647810213 4.7106245054103439 -1 0 0 I I #
point $-1 -45.732348475502462 -15.970957647810213 4.7106245054103439 #
point $-1 -45.732348475502462 -15.970957647810213 -4.7106245054103439 #
point $-1 -45.732348475502462 -18.970957647810213 -4.7106245054103439 #
point $-1 -45.732348475502462 -18.970957647810213 4.7106245054103439 #
straight-curve $-1 -49.422894985808895 0 4.7106245054103439 0 -1 0 I I #
straight-curve $-1 -49.422894985808895 0 -4.7106245054103439 0 1 0 I I #
loop $-1 $-1 $397 $383 #
plane-surface $-1 49.422894985808895 0 0 -1 0 0 0 0 1 forward_v I I I I #
coedge $-1 $399 $390 $386 $501 forward $259 $-1 #
edge $-1 $395 21.943537610174623 $506 25.634084120481056 $500 $558 forward 7 unknown #
coedge $-1 $392 $402 $387 $503 forward $384 $-1 #
edge $-1 $507 -25.634084120481056 $394 -21.943537610174623 $502 $559 forward 7 unknown #
coedge $-1 $397 $388 $402 $516 reversed $498 $-1 #
coedge $-1 $388 $397 $399 $514 reversed $498 $-1 #
vertex $-1 $514 $560 #
vertex $-1 $389 $561 #
straight-curve $-1 49.422894985808895 -15.970957647810213 0 0 0 1 I I #
straight-curve $-1 45.732348475502462 -8.7354788239051064 -4.7106245054103439 0 1 0 I I #
straight-curve $-1 45.732348475502462 -8.7354788239051064 4.7106245054103439 0 -1 0 I I #
point $-1 45.732348475502462 -15.970957647810213 4.7106245054103439 #
point $-1 45.732348475502462 -15.970957647810213 -4.7106245054103439 #
straight-curve $-1 49.422894985808895 -18.970957647810213 0 0 0 -1 I I #
edge $-1 $506 15.970957647810213 $400 18.970957647810213 $505 $562 forward 7 unknown #
point $-1 49.422894985808895 -18.970957647810213 -4.7106245054103439 #
edge $-1 $403 -18.970957647810213 $507 -15.970957647810213 $504 $563 forward 7 unknown #
point $-1 49.422894985808895 -18.970957647810213 4.7106245054103439 #
edge $-1 $519 44.038468743755409 $522 48.134214394686452 $408 $564 forward 7 unknown #
vertex $-1 $422 $565 #
straight-curve $-1 19.328126868298028 33.230054772572387 4.7106245054103439 0 1 0 I I #
edge $-1 $522 -13.1050503584609 $419 0.65889733878664458 $418 $566 forward 7 unknown #
vertex $-1 $521 $567 #
straight-curve $-1 19.328126868298028 -6.996628611049772 31.357444027707189 0 -0.66913059716165679 0.74314483375859142 I I #
point $-1 19.328126868298028 16.99627485735471 4.7106245054103475 #
point $-1 5.5641791710504833 20.684100714084039 0.61487885447929713 #
straight-curve $-1 0 20.684100714084039 4.7106245054103439 -1 0 0 I I #
vertex $-1 $425 $568 #
point $-1 9.3169687104999923 16.901393289467443 0.91705331790492417 #
vertex $-1 $429 $569 #
point $-1 13.446153019674256 16.901393289467443 0.91705331790492417 #
vertex $-1 $433 $570 #
point $-1 17.575337328848519 16.901393289467443 0.91705331790492417 #
coedge $-1 $448 $447 $440 $534 forward $437 $-1 #
edge $-1 $535 30.953290073249995 $538 35.439795464865142 $533 $571 forward 7 unknown #
vertex $-1 $452 $572 #
straight-curve $-1 -29.570245656653505 -44.67407845457592 4.7106245054103439 0 -1 0 I I #
edge $-1 $538 -19.739867654080026 $449 0.079111648933066547 $448 $573 forward 7 unknown #
vertex $-1 $537 $574 #
straight-curve $-1 -29.570245656653505 -20.684100714084053 0.22411911379518301 0 0.71933979245794832 0.69465837861970381 I I #
point $-1 -29.570245656653505 -16.0381884835591 4.7106245054103439 #
point $-1 -9.7512663536404123 -20.684100714084039 0.22411911379519672 #
straight-curve $-1 0 -20.684100714084039 4.7106245054103439 1 0 0 I I #
vertex $-1 $455 $575 #
point $-1 -24.106449796050882 -15.649757288663606 -0.3403518787483778 #
vertex $-1 $459 $576 #
point $-1 -18.160756005146954 -15.649757288663606 -0.3403518787483778 #
vertex $-1 $463 $577 #
point $-1 -12.215062214243027 -15.649757288663606 -0.3403518787483778 #
straight-curve $-1 -49.422894985808895 20.684100714084039 0 0 0 -1 I I #
point $-1 -49.422894985808895 -20.684100714084039 -4.7106245054103439 #
straight-curve $-1 -49.422894985808895 0 -4.7106245054103439 0 1 0 I I #
point $-1 -49.422894985808895 20.684100714084039 -4.7106245054103439 #
straight-curve $-1 -45.732348475502462 -8.7354788239051064 -4.7106245054103439 0 -1 0 I I #
straight-curve $-1 -45.732348475502462 -8.7354788239051064 4.7106245054103439 0 1 0 I I #
straight-curve $-1 -49.422894985808895 -15.970957647810213 0 0 0 -1 I I #
point $-1 -49.422894985808895 -15.970957647810213 -4.7106245054103439 #
point $-1 -49.422894985808895 -15.970957647810213 4.7106245054103439 #
straight-curve $-1 23.788810865327839 -15.970957647810213 -4.7106245054103439 1 0 0 I I #
straight-curve $-1 23.788810865327839 -15.970957647810213 4.7106245054103439 -1 0 0 I I #
point $-1 49.422894985808895 -15.970957647810213 -4.7106245054103439 #
point $-1 49.422894985808895 -15.970957647810213 4.7106245054103439 #
straight-curve $-1 49.422894985808895 0 -4.7106245054103439 0 -1 0 I I #
straight-curve $-1 49.422894985808895 0 4.7106245054103439 0 1 0 I I #
straight-curve $-1 19.328126868298028 20.684100714084039 48.749093249165753 0 0 -1 I I #
point $-1 19.328126868298028 20.684100714084039 4.7106245054103439 #
straight-curve $-1 6.2230765098371279 20.684100714084039 0.61487885447929713 -1 0 0 I I #
point $-1 19.328126868298028 20.684100714084039 0.61487885447929713 #
point $-1 8.3169687104999923 16.158248455708851 0.24792272074326738 #
point $-1 12.446153019674256 16.158248455708851 0.24792272074326738 #
point $-1 16.575337328848519 16.158248455708851 0.24792272074326738 #
straight-curve $-1 -29.570245656653505 -20.684100714084039 35.663914578660339 0 0 -1 I I #
point $-1 -29.570245656653505 -20.684100714084039 4.7106245054103439 #
straight-curve $-1 -9.8303780025734788 -20.684100714084039 0.22411911379519645 1 0 0 I I #
point $-1 -29.570245656653505 -20.684100714084039 0.22411911379519672 #
point $-1 -25.606449796050882 -14.60776972073405 -1.4193615674353004 #
point $-1 -19.660756005146954 -14.60776972073405 -1.4193615674353004 #
point $-1 -13.715062214243027 -14.60776972073405 -1.4193615674353004 #
End-of-ACIS-data 