500 0 9 0           
7 Unknown 11 ACIS 5.0 NT 24 Fri Mar 26 15:44:34 1999 
-1 9.9999999999999995e-007 1e-010 
body $-1 $9 $-1 $10 #
body $-1 $11 $-1 $12 #
body $-1 $13 $-1 $14 #
body $-1 $15 $-1 $16 #
body $-1 $17 $-1 $18 #
body $-1 $19 $-1 $20 #
body $-1 $21 $-1 $22 #
body $-1 $23 $-1 $24 #
body $-1 $25 $-1 $26 #
lump $-1 $-1 $27 $0 #
transform $-1 1 0 0 0 1 0 0 0 1 65.409710989715265 34.450937656871361 14.116399711789837 1 rotate no_reflect no_shear #
lump $-1 $-1 $28 $1 #
transform $-1 1 0 0 0 1 0 0 0 1 65.409710989715265 34.450937656871361 14.116399711789837 1 rotate no_reflect no_shear #
lump $-1 $-1 $29 $2 #
transform $-1 1 0 0 0 1 0 0 0 1 65.409710989715265 34.450937656871361 14.116399711789837 1 rotate no_reflect no_shear #
lump $-1 $-1 $30 $3 #
transform $-1 1 0 0 0 1 0 0 0 1 65.409710989715265 34.450937656871361 14.116399711789837 1 rotate no_reflect no_shear #
lump $-1 $-1 $31 $4 #
transform $-1 1 0 0 0 1 0 0 0 1 65.409710989715265 34.450937656871361 14.116399711789837 1 rotate no_reflect no_shear #
lump $-1 $-1 $32 $5 #
transform $-1 1 0 0 0 1 0 0 0 1 65.409710989715265 34.450937656871361 14.116399711789837 1 rotate no_reflect no_shear #
lump $-1 $-1 $33 $6 #
transform $-1 1 0 0 0 1 0 0 0 1 65.409710989715265 34.450937656871361 14.116399711789837 1 rotate no_reflect no_shear #
lump $-1 $-1 $34 $7 #
transform $-1 1 0 0 0 1 0 0 0 1 65.409710989715265 34.450937656871361 14.116399711789837 1 rotate no_reflect no_shear #
lump $-1 $-1 $35 $8 #
transform $-1 1 0 0 0 1 0 0 0 1 65.409710989715265 34.450937656871361 14.116399711789837 1 rotate no_reflect no_shear #
shell $-1 $-1 $-1 $36 $-1 $9 #
shell $-1 $-1 $-1 $37 $-1 $11 #
shell $-1 $-1 $-1 $38 $-1 $13 #
shell $-1 $-1 $-1 $39 $-1 $15 #
shell $-1 $-1 $-1 $40 $-1 $17 #
shell $-1 $-1 $-1 $41 $-1 $19 #
shell $-1 $-1 $-1 $42 $-1 $21 #
shell $-1 $-1 $-1 $43 $-1 $23 #
shell $-1 $-1 $-1 $44 $-1 $25 #
face $-1 $45 $46 $27 $-1 $47 forward single #
face $-1 $48 $49 $28 $-1 $50 forward single #
face $-1 $51 $52 $29 $-1 $53 forward single #
face $-1 $54 $55 $30 $-1 $56 reversed single #
face $-1 $57 $58 $31 $-1 $59 forward single #
face $-1 $60 $61 $32 $-1 $62 forward single #
face $-1 $63 $64 $33 $-1 $65 reversed single #
face $-1 $66 $67 $34 $-1 $68 forward single #
face $-1 $69 $70 $35 $-1 $71 forward single #
face $-1 $72 $73 $27 $-1 $74 reversed single #
loop $-1 $-1 $75 $36 #
plane-surface $-1 0 0 14.116399711789837 0 0 1 1 0 0 forward_v I I I I #
face $-1 $76 $77 $28 $-1 $78 forward single #
loop $-1 $-1 $79 $37 #
plane-surface $-1 0 -34.450937656871361 0 0 1 0 0 0 1 forward_v I I I I #
face $-1 $80 $81 $29 $-1 $82 reversed single #
loop $-1 $-1 $83 $38 #
plane-surface $-1 0 27.947045697737558 -5.9696684934943516 0 0 1 1 0 0 forward_v I I I I #
face $-1 $84 $85 $30 $-1 $86 reversed single #
loop $-1 $-1 $87 $39 #
plane-surface $-1 -176.3508737763502 -0.66536403715649328 74.142521696688107 0 -1 0 0.84804810408105047 0 -0.52991925155115449 forward_v I I I I #
face $-1 $88 $89 $31 $-1 $90 forward single #
loop $-1 $91 $92 $40 #
cone-surface $-1 -62.000670215831313 -6.8000571690802971 9.1525704474154619 0.84804810408105047 0 -0.52991925155115449 0.26495962577557725 0 0.42402405204052523 1 I I 0 1 0.5 forward I I I I #
face $-1 $93 $94 $32 $-1 $95 forward single #
loop $-1 $96 $97 $41 #
cone-surface $-1 -62.000670215831313 -3.1192412899260127 9.1525704474154619 0.84804810408105047 0 -0.52991925155115449 0.26495962577557725 0 0.42402405204052523 1 I I 0 1 0.5 forward I I I I #
face $-1 $98 $99 $33 $-1 $100 reversed single #
loop $-1 $-1 $101 $42 #
plane-surface $-1 107.02714359265572 -0.66536403715649328 185.08368448332311 0 -1 0 -0.84804810408105047 0 -0.52991925155115449 forward_v I I I I #
face $-1 $102 $103 $34 $-1 $104 forward single #
loop $-1 $105 $106 $43 #
cone-surface $-1 62.000670215831299 -6.8000571690802971 9.1525704474154725 -0.84804810408105047 0 -0.52991925155115449 0.26495962577557725 0 -0.42402405204052523 1 I I 0 1 0.5 forward I I I I #
face $-1 $107 $108 $35 $-1 $109 forward single #
loop $-1 $110 $111 $44 #
cone-surface $-1 62.000670215831299 -3.1192412899260127 9.1525704474154725 -0.84804810408105047 0 -0.52991925155115449 0.26495962577557725 0 -0.42402405204052523 1 I I 0 1 0.5 forward I I I I #
face $-1 $112 $113 $27 $-1 $114 reversed single #
loop $-1 $-1 $115 $45 #
plane-surface $-1 0 0 -14.116399711789837 0 0 1 1 0 0 forward_v I I I I #
coedge $-1 $116 $117 $118 $119 forward $46 $-1 #
face $-1 $120 $121 $28 $-1 $122 reversed single #
loop $-1 $-1 $123 $48 #
plane-surface $-1 0 0 14.116399711789837 0 0 1 1 0 0 forward_v I I I I #
coedge $-1 $124 $125 $126 $127 forward $49 $-1 #
face $-1 $128 $129 $29 $-1 $130 reversed single #
loop $-1 $-1 $131 $51 #
plane-surface $-1 0 21.443153738603755 -10.043034102642094 0 1 0 0 0 1 forward_v I I I I #
coedge $-1 $132 $133 $134 $135 reversed $52 $-1 #
face $-1 $136 $137 $30 $-1 $138 reversed single #
loop $-1 $-1 $139 $54 #
plane-surface $-1 -65.409710989715236 -4.9596492295031567 4.8187915129936272 -0.84804810408105047 0 0.52991925155115449 0.52991925155115449 0 0.84804810408105047 forward_v I I I I #
coedge $-1 $140 $141 $142 $143 reversed $55 $-1 #
face $-1 $-1 $144 $31 $-1 $145 forward single #
loop $-1 $146 $147 $57 #
cone-surface $-1 -61.284512524006402 -6.8000571690802971 8.7050654695513909 0.84804810408105047 0 -0.52991925155115449 0.13247981288778862 0 0.21201202602026262 1 I I -0.70710678118654746 0.70710678118654746 0.25 forward I I I I #
loop $-1 $-1 $148 $40 #
coedge $-1 $92 $92 $149 $150 reversed $58 $-1 #
face $-1 $-1 $151 $32 $-1 $152 forward single #
loop $-1 $153 $154 $60 #
cone-surface $-1 -61.284512524006402 -3.1192412899260127 8.7050654695513909 0.84804810408105047 0 -0.52991925155115449 0.13247981288778862 0 0.21201202602026262 1 I I -0.70710678118654746 0.70710678118654746 0.25 forward I I I I #
loop $-1 $-1 $155 $41 #
coedge $-1 $97 $97 $156 $157 reversed $61 $-1 #
face $-1 $158 $159 $33 $-1 $160 reversed single #
loop $-1 $-1 $161 $63 #
plane-surface $-1 -3.914019193979243 -4.9596492295031567 115.75995429962863 0.84804810408105047 0 0.52991925155115449 0.52991925155115449 0 -0.84804810408105047 forward_v I I I I #
coedge $-1 $162 $163 $164 $165 reversed $64 $-1 #
face $-1 $-1 $166 $34 $-1 $167 forward single #
loop $-1 $168 $169 $66 #
cone-surface $-1 61.284512524006388 -6.8000571690802971 8.7050654695514016 -0.84804810408105047 0 -0.52991925155115449 0.13247981288778862 0 -0.21201202602026262 1 I I -0.70710678118654746 0.70710678118654746 0.25 forward I I I I #
loop $-1 $-1 $170 $43 #
coedge $-1 $106 $106 $171 $172 reversed $67 $-1 #
face $-1 $-1 $173 $35 $-1 $174 forward single #
loop $-1 $175 $176 $69 #
cone-surface $-1 61.284512524006388 -3.1192412899260127 8.7050654695514016 -0.84804810408105047 0 -0.52991925155115449 0.13247981288778862 0 -0.21201202602026262 1 I I -0.70710678118654746 0.70710678118654746 0.25 forward I I I I #
loop $-1 $-1 $177 $44 #
coedge $-1 $111 $111 $178 $179 reversed $70 $-1 #
face $-1 $180 $181 $27 $-1 $182 reversed single #
loop $-1 $-1 $183 $72 #
plane-surface $-1 0 -34.450937656871361 0 0 1 0 0 0 1 forward_v I I I I #
coedge $-1 $184 $185 $186 $187 forward $73 $-1 #
coedge $-1 $188 $75 $189 $190 forward $46 $-1 #
coedge $-1 $75 $188 $191 $192 forward $46 $-1 #
coedge $-1 $193 $194 $75 $119 reversed $195 $-1 #
edge $-1 $196 -34.450937656871361 $197 34.450937656871361 $118 $198 forward 7 unknown #
face $-1 $199 $200 $28 $-1 $201 reversed single #
loop $-1 $-1 $202 $76 #
plane-surface $-1 -65.409710989715265 0 0 1 0 0 0 0 -1 forward_v I I I I #
coedge $-1 $203 $204 $205 $206 forward $77 $-1 #
coedge $-1 $205 $79 $202 $207 reversed $49 $-1 #
coedge $-1 $79 $205 $208 $209 reversed $49 $-1 #
coedge $-1 $210 $211 $79 $127 reversed $200 $-1 #
edge $-1 $212 -65.409710989715265 $213 65.409710989715265 $126 $214 forward 7 unknown #
face $-1 $215 $216 $29 $-1 $217 reversed single #
loop $-1 $-1 $134 $80 #
plane-surface $-1 65.409710989715265 0 0 -1 0 0 0 0 1 forward_v I I I I #
coedge $-1 $218 $219 $220 $221 reversed $81 $-1 #
coedge $-1 $222 $83 $223 $224 reversed $52 $-1 #
coedge $-1 $83 $222 $219 $225 forward $52 $-1 #
coedge $-1 $226 $227 $83 $135 forward $129 $-1 #
edge $-1 $228 -20.477414808002582 $229 -7.4696308897349759 $134 $230 forward 7 unknown #
face $-1 $231 $232 $30 $-1 $233 reversed single #
loop $-1 $-1 $234 $84 #
plane-surface $-1 -176.3508737763502 -9.2539344218498201 74.142521696688107 0 1 0 -0.84804810408105047 0 0.52991925155115449 forward_v I I I I #
coedge $-1 $235 $236 $237 $238 reversed $85 $-1 #
coedge $-1 $141 $87 $239 $240 reversed $55 $-1 #
coedge $-1 $87 $140 $235 $241 reversed $55 $-1 #
coedge $-1 $237 $242 $87 $143 forward $232 $-1 #
edge $-1 $243 22.954861136554214 $244 32.252469335350469 $142 $245 forward 7 unknown #
loop $-1 $-1 $149 $88 #
plane-surface $-1 -65.409710989715236 -4.9596492295031567 4.8187915129936272 -0.84804810408105047 0 0.52991925155115449 0.52991925155115449 0 0.84804810408105047 forward_v I I I I #
loop $-1 $-1 $246 $57 #
coedge $-1 $147 $147 $148 $247 reversed $89 $-1 #
coedge $-1 $148 $148 $147 $247 forward $91 $-1 #
coedge $-1 $149 $149 $92 $150 forward $144 $-1 #
edge $-1 $248 0 $248 6.2831853071796004 $149 $249 forward 7 unknown #
loop $-1 $-1 $156 $93 #
plane-surface $-1 -65.409710989715236 -4.9596492295031567 4.8187915129936272 -0.84804810408105047 0 0.52991925155115449 0.52991925155115449 0 0.84804810408105047 forward_v I I I I #
loop $-1 $-1 $250 $60 #
coedge $-1 $154 $154 $155 $251 reversed $94 $-1 #
coedge $-1 $155 $155 $154 $251 forward $96 $-1 #
coedge $-1 $156 $156 $97 $157 forward $151 $-1 #
edge $-1 $252 0 $252 6.2831853071796004 $156 $253 forward 7 unknown #
face $-1 $254 $255 $33 $-1 $256 forward single #
loop $-1 $-1 $257 $98 #
plane-surface $-1 107.02714359265572 -9.2539344218498201 185.08368448332311 0 1 0 0.84804810408105047 0 0.52991925155115449 forward_v I I I I #
coedge $-1 $258 $259 $260 $261 reversed $99 $-1 #
coedge $-1 $163 $101 $262 $263 reversed $64 $-1 #
coedge $-1 $101 $162 $258 $264 reversed $64 $-1 #
coedge $-1 $260 $265 $101 $165 forward $255 $-1 #
edge $-1 $266 -11.896139193387405 $267 -6.0863489772287664 $164 $268 forward 7 unknown #
loop $-1 $-1 $171 $102 #
plane-surface $-1 -3.914019193979243 -4.9596492295031567 115.75995429962863 0.84804810408105047 0 0.52991925155115449 0.52991925155115449 0 -0.84804810408105047 forward_v I I I I #
loop $-1 $-1 $269 $66 #
coedge $-1 $169 $169 $170 $270 reversed $103 $-1 #
coedge $-1 $170 $170 $169 $270 forward $105 $-1 #
coedge $-1 $171 $171 $106 $172 forward $166 $-1 #
edge $-1 $271 0 $271 6.2831853071796004 $171 $272 forward 7 unknown #
loop $-1 $-1 $178 $107 #
plane-surface $-1 -3.914019193979243 -4.9596492295031567 115.75995429962863 0.84804810408105047 0 0.52991925155115449 0.52991925155115449 0 -0.84804810408105047 forward_v I I I I #
loop $-1 $-1 $273 $69 #
coedge $-1 $176 $176 $177 $274 reversed $108 $-1 #
coedge $-1 $177 $177 $176 $274 forward $110 $-1 #
coedge $-1 $178 $178 $111 $179 forward $173 $-1 #
edge $-1 $275 0 $275 6.2831853071796004 $178 $276 forward 7 unknown #
face $-1 $277 $278 $27 $-1 $279 reversed single #
loop $-1 $-1 $280 $112 #
plane-surface $-1 -65.409710989715265 0 0 1 0 0 0 0 -1 forward_v I I I I #
coedge $-1 $281 $191 $282 $283 forward $113 $-1 #
coedge $-1 $284 $115 $281 $285 forward $73 $-1 #
coedge $-1 $115 $284 $286 $287 forward $73 $-1 #
coedge $-1 $194 $193 $115 $187 reversed $195 $-1 #
edge $-1 $288 -34.450937656871361 $289 34.450937656871361 $186 $290 forward 7 unknown #
coedge $-1 $117 $116 $291 $292 forward $46 $-1 #
coedge $-1 $293 $294 $116 $190 reversed $278 $-1 #
edge $-1 $197 -65.409710989715265 $295 65.409710989715265 $189 $296 forward 7 unknown #
coedge $-1 $183 $297 $117 $192 reversed $113 $-1 #
edge $-1 $298 -65.409710989715265 $196 65.409710989715265 $191 $299 forward 7 unknown #
coedge $-1 $186 $118 $297 $300 forward $195 $-1 #
coedge $-1 $118 $186 $293 $301 reversed $195 $-1 #
loop $-1 $-1 $193 $277 #
vertex $-1 $119 $302 #
vertex $-1 $119 $303 #
straight-curve $-1 65.409710989715265 0 14.116399711789837 0 1 0 I I #
face $-1 $304 $305 $28 $-1 $306 reversed single #
loop $-1 $-1 $210 $120 #
plane-surface $-1 0 -42.98612296898461 8.6886058957908077 0 0 1 1 0 0 forward_v I I I I #
coedge $-1 $307 $308 $124 $207 forward $121 $-1 #
coedge $-1 $309 $123 $308 $310 forward $77 $-1 #
coedge $-1 $123 $309 $311 $312 forward $77 $-1 #
coedge $-1 $125 $124 $123 $206 reversed $49 $-1 #
edge $-1 $313 -65.409710989715265 $314 65.409710989715265 $123 $315 forward 7 unknown #
edge $-1 $314 -14.116399711789837 $213 -8.6886058957908077 $202 $316 forward 7 unknown #
coedge $-1 $311 $317 $125 $209 forward $318 $-1 #
edge $-1 $212 8.6886058957908077 $313 14.116399711789837 $208 $319 forward 7 unknown #
coedge $-1 $320 $126 $317 $321 forward $200 $-1 #
coedge $-1 $126 $320 $307 $322 forward $200 $-1 #
vertex $-1 $209 $323 #
vertex $-1 $207 $324 #
straight-curve $-1 0 -34.450937656871361 8.6886058957908077 -1 0 0 I I #
face $-1 $325 $326 $29 $-1 $327 reversed single #
loop $-1 $-1 $328 $128 #
plane-surface $-1 0 0 -14.116399711789837 0 0 1 1 0 0 forward_v I I I I #
coedge $-1 $329 $131 $328 $330 reversed $81 $-1 #
coedge $-1 $131 $329 $133 $225 reversed $81 $-1 #
coedge $-1 $331 $332 $131 $221 forward $326 $-1 #
edge $-1 $333 -9.0948826604687909 $334 -0.94815144217330438 $220 $335 forward 7 unknown #
coedge $-1 $133 $132 $331 $336 reversed $52 $-1 #
coedge $-1 $337 $338 $132 $224 forward $339 $-1 #
edge $-1 $340 -65.409710989715265 $228 65.409710989715265 $223 $341 forward 7 unknown #
edge $-1 $334 -65.409710989715265 $229 65.409710989715265 $219 $342 forward 7 unknown #
coedge $-1 $343 $134 $329 $344 forward $129 $-1 #
coedge $-1 $134 $343 $337 $345 reversed $129 $-1 #
vertex $-1 $345 $346 #
vertex $-1 $135 $347 #
straight-curve $-1 65.409710989715265 13.973522848868779 -5.9696684934943516 0 -1 0 I I #
face $-1 $-1 $348 $30 $-1 $349 forward single #
loop $-1 $-1 $142 $136 #
plane-surface $-1 -65.409710989715265 0 0 1 0 0 0 0 -1 forward_v I I I I #
coedge $-1 $350 $351 $352 $353 reversed $137 $-1 #
coedge $-1 $354 $139 $141 $241 forward $85 $-1 #
coedge $-1 $139 $354 $350 $355 forward $85 $-1 #
coedge $-1 $352 $142 $139 $238 forward $232 $-1 #
edge $-1 $244 -1.8144605775950851 $356 6.7741098070982417 $237 $357 forward 7 unknown #
coedge $-1 $358 $359 $140 $240 forward $348 $-1 #
edge $-1 $360 -28.575516114618495 $243 -22.765725898459834 $239 $361 forward 7 unknown #
edge $-1 $244 -5.3475330259696214e-014 $360 10.963538688493559 $141 $362 forward 7 unknown #
coedge $-1 $142 $352 $358 $363 reversed $232 $-1 #
vertex $-1 $363 $364 #
vertex $-1 $143 $365 #
straight-curve $-1 -65.409710989715265 -0.66536403715649328 37.071260848344053 0 0 -1 I I #
coedge $-1 $246 $246 $-1 $366 reversed $146 $-1 #
edge $-1 $367 0 $367 6.2831853071796004 $147 $368 forward 7 unknown #
vertex $-1 $150 $369 #
ellipse-curve $-1 -62.504815881635928 -6.8000571690802971 9.4675956123917224 -0.84804810408105047 0 0.52991925155115449 0.26495962577557725 0 0.42402405204052523 1 I I #
coedge $-1 $250 $250 $-1 $370 reversed $153 $-1 #
edge $-1 $371 0 $371 6.2831853071796004 $154 $372 forward 7 unknown #
vertex $-1 $157 $373 #
ellipse-curve $-1 -62.504815881635928 -3.1192412899260127 9.4675956123917224 -0.84804810408105047 0 0.52991925155115449 0.26495962577557725 0 0.42402405204052523 1 I I #
face $-1 $-1 $374 $33 $-1 $375 reversed single #
loop $-1 $-1 $164 $158 #
plane-surface $-1 0 0 14.116399711789837 0 0 1 1 0 0 forward_v I I I I #
coedge $-1 $376 $377 $378 $379 reversed $159 $-1 #
coedge $-1 $380 $161 $163 $264 forward $99 $-1 #
coedge $-1 $161 $380 $376 $381 forward $99 $-1 #
coedge $-1 $378 $164 $161 $261 forward $255 $-1 #
edge $-1 $267 -1.8144605775950851 $382 6.7741098070982417 $260 $383 forward 7 unknown #
coedge $-1 $384 $385 $162 $263 forward $374 $-1 #
edge $-1 $386 -87.723050728667928 $266 -78.425442529871717 $262 $387 forward 7 unknown #
edge $-1 $267 119.85588329093702 $386 130.81942197943059 $163 $388 forward 7 unknown #
coedge $-1 $164 $378 $384 $389 forward $255 $-1 #
vertex $-1 $165 $390 #
vertex $-1 $165 $391 #
straight-curve $-1 53.513571796327859 -0.66536403715649328 14.116399711789839 -1 0 0 I I #
coedge $-1 $269 $269 $-1 $392 reversed $168 $-1 #
edge $-1 $393 0 $393 6.2831853071796004 $169 $394 forward 7 unknown #
vertex $-1 $172 $395 #
ellipse-curve $-1 62.504815881635935 -6.8000571690802971 9.4675956123917491 0.84804810408105047 0 0.52991925155115449 0.26495962577557725 0 -0.42402405204052523 1 I I #
coedge $-1 $273 $273 $-1 $396 reversed $175 $-1 #
edge $-1 $397 0 $397 6.2831853071796004 $176 $398 forward 7 unknown #
vertex $-1 $179 $399 #
ellipse-curve $-1 62.504815881635935 -3.1192412899260127 9.4675956123917491 0.84804810408105047 0 0.52991925155115449 0.26495962577557725 0 -0.42402405204052523 1 I I #
face $-1 $-1 $195 $27 $-1 $400 reversed single #
loop $-1 $-1 $293 $180 #
plane-surface $-1 0 34.450937656871361 0 0 -1 0 0 0 -1 forward_v I I I I #
coedge $-1 $401 $291 $294 $402 forward $181 $-1 #
coedge $-1 $297 $183 $184 $285 reversed $113 $-1 #
coedge $-1 $291 $401 $183 $283 reversed $181 $-1 #
edge $-1 $298 -14.116399711789837 $403 14.116399711789837 $282 $404 forward 7 unknown #
coedge $-1 $185 $184 $401 $405 forward $73 $-1 #
edge $-1 $289 -65.409710989715265 $403 65.409710989715265 $281 $406 forward 7 unknown #
coedge $-1 $294 $293 $185 $287 reversed $278 $-1 #
edge $-1 $407 -65.409710989715265 $288 65.409710989715265 $286 $408 forward 7 unknown #
vertex $-1 $187 $409 #
vertex $-1 $300 $410 #
straight-curve $-1 65.409710989715265 0 -14.116399711789837 0 -1 0 I I #
coedge $-1 $280 $282 $188 $292 reversed $181 $-1 #
edge $-1 $295 -34.450937656871361 $298 34.450937656871361 $291 $411 forward 7 unknown #
coedge $-1 $286 $189 $194 $301 forward $278 $-1 #
coedge $-1 $189 $286 $280 $402 reversed $278 $-1 #
vertex $-1 $190 $412 #
straight-curve $-1 0 34.450937656871361 14.116399711789837 -1 0 0 I I #
coedge $-1 $191 $281 $193 $300 reversed $113 $-1 #
vertex $-1 $292 $413 #
straight-curve $-1 0 -34.450937656871361 14.116399711789837 1 0 0 I I #
edge $-1 $196 -14.116399711789837 $289 14.116399711789837 $193 $414 forward 7 unknown #
edge $-1 $197 -14.116399711789837 $288 14.116399711789837 $194 $415 forward 7 unknown #
point $-1 65.409710989715265 -34.450937656871361 14.116399711789837 #
point $-1 65.409710989715265 34.450937656871361 14.116399711789837 #
face $-1 $-1 $318 $28 $-1 $416 reversed single #
loop $-1 $-1 $417 $199 #
plane-surface $-1 0 -51.521308281097859 11.402502803790322 0 1 0 0 0 1 forward_v I I I I #
coedge $-1 $418 $202 $211 $322 reversed $121 $-1 #
coedge $-1 $202 $418 $203 $310 reversed $121 $-1 #
coedge $-1 $204 $203 $419 $420 forward $77 $-1 #
edge $-1 $314 34.450937656871361 $421 51.521308281097859 $308 $422 forward 7 unknown #
coedge $-1 $423 $208 $204 $312 reversed $318 $-1 #
edge $-1 $424 -51.521308281097859 $313 -34.450937656871361 $311 $425 forward 7 unknown #
vertex $-1 $209 $426 #
vertex $-1 $310 $427 #
straight-curve $-1 0 -34.450937656871361 14.116399711789837 -1 0 0 I I #
straight-curve $-1 -65.409710989715265 -34.450937656871361 0 0 0 -1 I I #
coedge $-1 $208 $423 $210 $321 reversed $318 $-1 #
loop $-1 $-1 $208 $304 #
straight-curve $-1 65.409710989715265 -34.450937656871361 0 0 0 1 I I #
coedge $-1 $211 $210 $428 $429 forward $200 $-1 #
edge $-1 $212 -8.5351853121132493 $430 8.5351853121132493 $317 $431 forward 7 unknown #
edge $-1 $432 -8.5351853121132493 $213 8.5351853121132493 $307 $433 forward 7 unknown #
point $-1 65.409710989715265 -34.450937656871361 8.6886058957908077 #
point $-1 -65.409710989715265 -34.450937656871361 8.6886058957908077 #
face $-1 $-1 $339 $29 $-1 $434 reversed single #
loop $-1 $-1 $331 $215 #
plane-surface $-1 -65.409710989715265 0 0 1 0 0 0 0 -1 forward_v I I I I #
coedge $-1 $435 $436 $218 $330 forward $216 $-1 #
coedge $-1 $219 $218 $226 $344 reversed $81 $-1 #
edge $-1 $437 -65.409710989715265 $333 65.409710989715265 $328 $438 forward 7 unknown #
coedge $-1 $439 $220 $222 $336 forward $326 $-1 #
coedge $-1 $220 $439 $435 $440 reversed $326 $-1 #
vertex $-1 $440 $441 #
vertex $-1 $336 $442 #
straight-curve $-1 -65.409710989715265 21.443153738603755 -5.0215170513210472 0 0 1 I I #
edge $-1 $334 7.4696308897349759 $340 20.477414808002582 $331 $443 forward 7 unknown #
coedge $-1 $444 $223 $227 $345 forward $339 $-1 #
coedge $-1 $223 $444 $439 $445 reversed $339 $-1 #
loop $-1 $-1 $223 $325 #
vertex $-1 $445 $446 #
straight-curve $-1 0 34.450937656871361 -5.9696684934943516 1 0 0 I I #
straight-curve $-1 0 21.443153738603755 -5.9696684934943516 1 0 0 I I #
coedge $-1 $227 $226 $436 $447 reversed $129 $-1 #
edge $-1 $229 0.94815144217330438 $437 9.0948826604687909 $226 $448 forward 7 unknown #
edge $-1 $228 5.9696684934943516 $449 14.116399711789837 $227 $450 forward 7 unknown #
point $-1 65.409710989715265 34.450937656871361 -5.9696684934943516 #
point $-1 65.409710989715265 21.443153738603755 -5.9696684934943516 #
loop $-1 $-1 $239 $231 #
plane-surface $-1 0 0 14.116399711789837 0 0 1 1 0 0 forward_v I I I I #
coedge $-1 $351 $234 $236 $355 reversed $137 $-1 #
coedge $-1 $234 $350 $451 $452 reversed $137 $-1 #
coedge $-1 $242 $237 $234 $353 forward $232 $-1 #
edge $-1 $356 -32.252469335350469 $453 -22.954861136554214 $352 $454 forward 7 unknown #
coedge $-1 $236 $235 $359 $455 reversed $85 $-1 #
edge $-1 $456 -10.963538688493559 $356 5.3475330259696214e-014 $350 $457 forward 7 unknown #
vertex $-1 $238 $458 #
straight-curve $-1 -65.409710989715265 -2.4798246147515783 4.818791512993573 0 -1 0 I I #
coedge $-1 $451 $239 $242 $363 forward $348 $-1 #
coedge $-1 $239 $451 $354 $455 forward $348 $-1 #
vertex $-1 $240 $459 #
straight-curve $-1 -88.175436888175099 -0.66536403715649328 14.116399711789839 -1 0 0 I I #
straight-curve $-1 -65.409710989715236 -0.66536403715649328 4.8187915129936272 0.52991925155115449 0 0.84804810408105047 I I #
edge $-1 $243 0.66536403715649328 $453 9.2539344218498201 $242 $460 forward 7 unknown #
point $-1 -65.409710989715265 -0.66536403715649328 14.116399711789837 #
point $-1 -65.409710989715265 -0.66536403715649328 4.8187915129935819 #
edge $-1 $461 1 $461 0 $246 $-1 forward 7 unknown #
vertex $-1 $247 $462 #
ellipse-curve $-1 -61.496524550026663 -6.8000571690802971 8.83754528243918 -0.84804810408105047 0 0.52991925155115449 0.26495962577557725 0 0.42402405204052523 1 I I #
point $-1 -62.239856255860381 -6.8000571690802971 9.8916196644322696 #
edge $-1 $463 1 $463 0 $250 $-1 forward 7 unknown #
vertex $-1 $251 $464 #
ellipse-curve $-1 -61.496524550026663 -3.1192412899260127 8.83754528243918 -0.84804810408105047 0 0.52991925155115449 0.26495962577557725 0 0.42402405204052523 1 I I #
point $-1 -62.239856255860381 -3.1192412899260127 9.8916196644322696 #
loop $-1 $-1 $262 $254 #
plane-surface $-1 65.409710989715265 0 0 -1 0 0 0 0 1 forward_v I I I I #
coedge $-1 $377 $257 $259 $381 reversed $159 $-1 #
coedge $-1 $257 $376 $465 $466 reversed $159 $-1 #
coedge $-1 $265 $260 $257 $379 forward $255 $-1 #
edge $-1 $382 6.0863489772287664 $467 11.896139193387405 $378 $468 forward 7 unknown #
coedge $-1 $259 $258 $385 $469 reversed $99 $-1 #
edge $-1 $470 -130.81942197943059 $382 -119.85588329093702 $376 $471 forward 7 unknown #
vertex $-1 $261 $472 #
straight-curve $-1 59.599920773556619 -2.4798246147515783 14.116399711789839 0 -1 0 I I #
coedge $-1 $465 $262 $265 $389 reversed $374 $-1 #
coedge $-1 $262 $465 $380 $469 forward $374 $-1 #
vertex $-1 $263 $473 #
straight-curve $-1 65.409710989715265 -0.66536403715649328 92.541842241661556 0 0 1 I I #
straight-curve $-1 -3.914019193979243 -0.66536403715649328 115.75995429962863 0.52991925155115449 0 -0.84804810408105047 I I #
edge $-1 $467 -9.2539344218498201 $266 -0.66536403715649328 $384 $474 forward 7 unknown #
point $-1 65.409710989715265 -0.66536403715649328 14.116399711789837 #
point $-1 59.599920773556626 -0.66536403715649328 14.116399711789839 #
edge $-1 $475 1 $475 0 $269 $-1 forward 7 unknown #
vertex $-1 $270 $476 #
ellipse-curve $-1 61.496524550026649 -6.8000571690802971 8.8375452824391907 0.84804810408105047 0 0.52991925155115449 0.26495962577557725 0 -0.42402405204052523 1 I I #
point $-1 62.769775507411516 -6.8000571690802971 9.0435715603512303 #
edge $-1 $477 1 $477 0 $273 $-1 forward 7 unknown #
vertex $-1 $274 $478 #
ellipse-curve $-1 61.496524550026649 -3.1192412899260127 8.8375452824391907 0.84804810408105047 0 0.52991925155115449 0.26495962577557725 0 -0.42402405204052523 1 I I #
point $-1 62.769775507411516 -3.1192412899260127 9.0435715603512303 #
plane-surface $-1 65.409710989715265 0 0 -1 0 0 0 0 1 forward_v I I I I #
coedge $-1 $282 $280 $284 $405 reversed $181 $-1 #
edge $-1 $295 -14.116399711789837 $407 14.116399711789837 $294 $479 forward 7 unknown #
vertex $-1 $405 $480 #
straight-curve $-1 -65.409710989715265 -34.450937656871361 0 0 0 -1 I I #
edge $-1 $403 -34.450937656871361 $407 34.450937656871361 $401 $481 forward 7 unknown #
straight-curve $-1 0 -34.450937656871361 -14.116399711789837 -1 0 0 I I #
vertex $-1 $287 $482 #
straight-curve $-1 0 34.450937656871361 -14.116399711789837 1 0 0 I I #
point $-1 65.409710989715265 34.450937656871361 -14.116399711789837 #
point $-1 65.409710989715265 -34.450937656871361 -14.116399711789837 #
straight-curve $-1 -65.409710989715265 0 14.116399711789837 0 -1 0 I I #
point $-1 -65.409710989715265 34.450937656871361 14.116399711789837 #
point $-1 -65.409710989715265 -34.450937656871361 14.116399711789837 #
straight-curve $-1 65.409710989715265 -34.450937656871361 0 0 0 -1 I I #
straight-curve $-1 65.409710989715265 34.450937656871361 0 0 0 -1 I I #
plane-surface $-1 65.409710989715265 0 0 -1 0 0 0 0 1 forward_v I I I I #
coedge $-1 $428 $419 $418 $483 forward $305 $-1 #
coedge $-1 $308 $307 $417 $483 reversed $121 $-1 #
coedge $-1 $417 $484 $309 $420 reversed $305 $-1 #
edge $-1 $421 -65.409710989715265 $424 65.409710989715265 $419 $485 forward 7 unknown #
vertex $-1 $310 $486 #
straight-curve $-1 -65.409710989715265 0 14.116399711789837 0 -1 0 I I #
coedge $-1 $317 $311 $484 $487 forward $318 $-1 #
vertex $-1 $312 $488 #
straight-curve $-1 65.409710989715265 0 14.116399711789837 0 1 0 I I #
point $-1 65.409710989715265 -34.450937656871361 14.116399711789837 #
point $-1 -65.409710989715265 -34.450937656871361 14.116399711789837 #
coedge $-1 $484 $417 $320 $429 reversed $305 $-1 #
edge $-1 $430 -65.409710989715265 $432 65.409710989715265 $428 $489 forward 7 unknown #
vertex $-1 $487 $490 #
straight-curve $-1 65.409710989715265 -42.98612296898461 8.6886058957908077 0 -1 0 I I #
vertex $-1 $322 $491 #
straight-curve $-1 -65.409710989715265 -42.98612296898461 8.6886058957908077 0 1 0 I I #
plane-surface $-1 0 34.450937656871361 0 0 -1 0 0 0 -1 forward_v I I I I #
coedge $-1 $492 $328 $332 $440 forward $216 $-1 #
coedge $-1 $328 $492 $343 $447 forward $216 $-1 #
vertex $-1 $330 $493 #
straight-curve $-1 0 21.443153738603755 -14.116399711789837 -1 0 0 I I #
coedge $-1 $332 $331 $338 $445 forward $326 $-1 #
edge $-1 $333 21.443153738603755 $494 34.450937656871361 $332 $495 forward 7 unknown #
point $-1 -65.409710989715265 21.443153738603755 -14.116399711789837 #
point $-1 -65.409710989715265 21.443153738603755 -5.9696684934943516 #
straight-curve $-1 -65.409710989715265 13.973522848868779 -5.9696684934943516 0 1 0 I I #
coedge $-1 $338 $337 $492 $496 reversed $339 $-1 #
edge $-1 $340 5.9696684934943516 $494 14.116399711789837 $338 $497 forward 7 unknown #
point $-1 -65.409710989715265 34.450937656871361 -5.9696684934943516 #
edge $-1 $449 -34.450937656871361 $437 -21.443153738603755 $343 $498 forward 7 unknown #
straight-curve $-1 65.409710989715265 21.443153738603755 -5.0215170513210472 0 0 -1 I I #
vertex $-1 $447 $499 #
straight-curve $-1 65.409710989715265 34.450937656871361 0 0 0 -1 I I #
coedge $-1 $359 $358 $351 $452 forward $348 $-1 #
edge $-1 $453 22.765725898459834 $456 28.575516114618495 $451 $500 forward 7 unknown #
vertex $-1 $452 $501 #
straight-curve $-1 -65.409710989715265 -9.2539344218498201 37.071260848344053 0 0 1 I I #
edge $-1 $456 -6.7741098070982417 $360 1.8144605775950851 $359 $502 forward 7 unknown #
vertex $-1 $455 $503 #
straight-curve $-1 -65.409710989715236 -9.2539344218498201 4.8187915129936272 -0.52991925155115449 0 -0.84804810408105047 I I #
point $-1 -65.409710989715265 -9.2539344218498201 4.8187915129935819 #
point $-1 -59.599920773556605 -0.66536403715649328 14.116399711789837 #
straight-curve $-1 -65.409710989715265 0 14.116399711789837 0 -1 0 I I #
vertex $-1 $366 $504 #
point $-1 -61.231564924251089 -6.8000571690802971 9.2615693344797041 #
vertex $-1 $370 $505 #
point $-1 -61.231564924251089 -3.1192412899260127 9.2615693344797041 #
coedge $-1 $385 $384 $377 $466 forward $374 $-1 #
edge $-1 $467 78.425442529871717 $470 87.723050728667928 $465 $506 forward 7 unknown #
vertex $-1 $389 $507 #
straight-curve $-1 53.513571796327859 -9.2539344218498201 14.116399711789839 1 0 0 I I #
edge $-1 $470 -6.7741098070982417 $386 1.8144605775950851 $385 $508 forward 7 unknown #
vertex $-1 $469 $509 #
straight-curve $-1 -3.914019193979243 -9.2539344218498201 115.75995429962863 -0.52991925155115449 0 0.84804810408105047 I I #
point $-1 59.599920773556626 -9.2539344218498201 14.116399711789839 #
point $-1 65.409710989715265 -0.66536403715649328 4.8187915129936272 #
straight-curve $-1 65.409710989715265 0 14.116399711789837 0 1 0 I I #
vertex $-1 $392 $510 #
point $-1 61.761484175802231 -6.8000571690802971 8.4135212303986648 #
vertex $-1 $396 $511 #
point $-1 61.761484175802231 -3.1192412899260127 8.4135212303986648 #
straight-curve $-1 -65.409710989715265 34.450937656871361 0 0 0 -1 I I #
point $-1 -65.409710989715265 -34.450937656871361 -14.116399711789837 #
straight-curve $-1 -65.409710989715265 0 -14.116399711789837 0 1 0 I I #
point $-1 -65.409710989715265 34.450937656871361 -14.116399711789837 #
edge $-1 $421 -2.7138969079995139 $432 2.7138969079995139 $418 $512 forward 7 unknown #
coedge $-1 $419 $428 $423 $487 reversed $305 $-1 #
straight-curve $-1 0 -51.521308281097859 14.116399711789835 1 0 0 I I #
point $-1 -65.409710989715265 -51.521308281097859 14.116399711789835 #
edge $-1 $424 -2.7138969079995139 $430 2.7138969079995139 $423 $513 forward 7 unknown #
point $-1 65.409710989715265 -51.521308281097859 14.116399711789835 #
straight-curve $-1 0 -51.521308281097859 8.6886058957908077 -1 0 0 I I #
point $-1 65.409710989715265 -51.521308281097859 8.6886058957908077 #
point $-1 -65.409710989715265 -51.521308281097859 8.6886058957908077 #
coedge $-1 $436 $435 $444 $496 forward $216 $-1 #
point $-1 65.409710989715265 21.443153738603755 -14.116399711789837 #
vertex $-1 $496 $514 #
straight-curve $-1 -65.409710989715265 0 -14.116399711789837 0 1 0 I I #
edge $-1 $494 -65.409710989715265 $449 65.409710989715265 $444 $515 forward 7 unknown #
straight-curve $-1 -65.409710989715265 34.450937656871361 0 0 0 -1 I I #
straight-curve $-1 65.409710989715265 0 -14.116399711789837 0 -1 0 I I #
point $-1 65.409710989715265 34.450937656871361 -14.116399711789837 #
straight-curve $-1 -88.175436888175099 -9.2539344218498201 14.116399711789839 1 0 0 I I #
point $-1 -65.409710989715265 -9.2539344218498201 14.116399711789837 #
straight-curve $-1 -59.599920773556605 -2.4798246147515783 14.116399711789837 0 1 0 I I #
point $-1 -59.599920773556605 -9.2539344218498201 14.116399711789837 #
point $-1 -61.072500497986141 -6.8000571690802971 8.5725856566636018 #
point $-1 -61.072500497986141 -3.1192412899260127 8.5725856566636018 #
straight-curve $-1 65.409710989715265 -9.2539344218498201 92.541842241661556 0 0 -1 I I #
point $-1 65.409710989715265 -9.2539344218498201 14.116399711789837 #
straight-curve $-1 65.409710989715251 -2.4798246147515783 4.8187915129936272 0 1 0 I I #
point $-1 65.409710989715265 -9.2539344218498201 4.8187915129936272 #
point $-1 61.072500497986127 -6.8000571690802971 8.5725856566636125 #
point $-1 61.072500497986127 -3.1192412899260127 8.5725856566636125 #
straight-curve $-1 -65.409710989715265 -51.521308281097859 11.402502803790322 0 0 -1 I I #
straight-curve $-1 65.409710989715265 -51.521308281097859 11.402502803790322 0 0 -1 I I #
point $-1 -65.409710989715265 34.450937656871361 -14.116399711789837 #
straight-curve $-1 0 34.450937656871361 -14.116399711789837 1 0 0 I I #
End-of-ACIS-data 