500 0 6 0           
7 Unknown 11 ACIS 5.0 NT 24 Thu Mar 25 22:35:29 1999 
-1 9.9999999999999995e-007 1e-010 
body $-1 $6 $-1 $7 #
body $-1 $8 $-1 $9 #
body $-1 $10 $-1 $11 #
body $-1 $12 $-1 $13 #
body $-1 $14 $-1 $15 #
body $-1 $16 $-1 $17 #
lump $-1 $-1 $18 $0 #
transform $-1 1 0 0 0 1 0 0 0 1 45.293130283516952 21.14112527262861 8.4147059516632474 1 rotate no_reflect no_shear #
lump $-1 $-1 $19 $1 #
transform $-1 1 0 0 0 1 0 0 0 1 45.293130283516952 21.14112527262861 8.4147059516632474 1 rotate no_reflect no_shear #
lump $-1 $-1 $20 $2 #
transform $-1 1 0 0 0 1 0 0 0 1 45.293130283516952 21.14112527262861 8.4147059516632474 1 rotate no_reflect no_shear #
lump $-1 $-1 $21 $3 #
transform $-1 1 0 0 0 1 0 0 0 1 45.293130283516952 21.14112527262861 8.4147059516632474 1 rotate no_reflect no_shear #
lump $-1 $-1 $22 $4 #
transform $-1 1 0 0 0 1 0 0 0 1 45.293130283516952 21.14112527262861 8.4147059516632474 1 rotate no_reflect no_shear #
lump $-1 $-1 $23 $5 #
transform $-1 1 0 0 0 1 0 0 0 1 45.293130283516952 21.14112527262861 8.4147059516632474 1 rotate no_reflect no_shear #
shell $-1 $-1 $-1 $24 $-1 $6 #
shell $-1 $-1 $-1 $25 $-1 $8 #
shell $-1 $-1 $-1 $26 $-1 $10 #
shell $-1 $-1 $-1 $27 $-1 $12 #
shell $-1 $-1 $-1 $28 $-1 $14 #
shell $-1 $-1 $-1 $29 $-1 $16 #
face $-1 $30 $31 $18 $-1 $32 forward single #
face $-1 $33 $34 $19 $-1 $35 reversed single #
face $-1 $36 $37 $20 $-1 $38 reversed single #
face $-1 $39 $40 $21 $-1 $41 forward single #
face $-1 $42 $43 $22 $-1 $44 reversed single #
face $-1 $45 $46 $23 $-1 $47 forward single #
face $-1 $48 $49 $18 $-1 $50 reversed single #
loop $-1 $-1 $51 $24 #
plane-surface $-1 0 0 8.4147059516632474 0 0 1 1 0 0 forward_v I I I I #
face $-1 $52 $53 $19 $-1 $54 reversed single #
loop $-1 $-1 $55 $25 #
plane-surface $-1 -40.863148538386461 -8.0571545410886607 0 0 1 0 0 0 1 forward_v I I I I #
face $-1 $56 $57 $20 $-1 $58 reversed single #
loop $-1 $-1 $59 $26 #
plane-surface $-1 -13.29031070890402 78.450004152051036 82.941949977619117 1 0 0 0 -0.86602541151947299 -0.49999998660252726 forward_v I I I I #
face $-1 $60 $61 $21 $-1 $62 forward single #
loop $-1 $63 $64 $27 #
cone-surface $-1 -4.4301644818867629 18.09390552412513 4.1942632937246591 0 -0.86602541151947299 -0.49999998660252726 2 0 0 1 I I 0 1 2 forward I I I I #
face $-1 $65 $66 $22 $-1 $67 reversed single #
loop $-1 $-1 $68 $28 #
plane-surface $-1 -4.43016448188677 5.6647530755071784e-007 37.648820907729132 0 0.86602541151947299 0.49999998660252726 1 0 0 forward_v I I I I #
face $-1 $69 $70 $23 $-1 $71 forward single #
loop $-1 $72 $73 $29 #
cone-surface $-1 13.290127972147737 18.09390552412513 4.1942632937246591 0 -0.86602541151947299 -0.49999998660252726 2 0 0 1 I I 0 1 2 forward I I I I #
face $-1 $74 $75 $18 $-1 $76 reversed single #
loop $-1 $-1 $77 $30 #
plane-surface $-1 0 0 -8.4147059516632474 0 0 1 1 0 0 forward_v I I I I #
coedge $-1 $78 $79 $80 $81 forward $31 $-1 #
face $-1 $82 $83 $19 $-1 $84 reversed single #
loop $-1 $-1 $85 $33 #
plane-surface $-1 -40.863148538386461 -4.8117133693021144 0 0 -1 0 0 0 -1 forward_v I I I I #
coedge $-1 $86 $87 $88 $89 reversed $34 $-1 #
face $-1 $90 $91 $20 $-1 $92 reversed single #
loop $-1 $-1 $93 $36 #
plane-surface $-1 -4.43016448188677 5.6647530755071784e-007 37.648820907729132 0 0.86602541151947299 0.49999998660252726 1 0 0 forward_v I I I I #
coedge $-1 $94 $95 $96 $97 reversed $37 $-1 #
face $-1 $-1 $98 $21 $-1 $99 forward single #
loop $-1 $100 $101 $39 #
cone-surface $-1 -4.4301644818867629 16.3120609489788 3.1655148853635282 0 -0.86602541151947299 -0.49999998660252726 1 0 0 1 I I -0.70710678118654746 0.70710678118654746 1 forward I I I I #
loop $-1 $-1 $102 $27 #
coedge $-1 $64 $64 $103 $104 reversed $40 $-1 #
face $-1 $105 $106 $22 $-1 $107 reversed single #
loop $-1 $-1 $108 $42 #
plane-surface $-1 22.150274199164979 78.450004152051036 82.941949977619117 -1 0 0 0 0.86602541151947299 0.49999998660252726 forward_v I I I I #
coedge $-1 $109 $110 $111 $112 reversed $43 $-1 #
face $-1 $-1 $113 $23 $-1 $114 forward single #
loop $-1 $115 $116 $45 #
cone-surface $-1 13.290127972147737 16.3120609489788 3.1655148853635282 0 -0.86602541151947299 -0.49999998660252726 1 0 0 1 I I -0.70710678118654746 0.70710678118654746 1 forward I I I I #
loop $-1 $-1 $117 $29 #
coedge $-1 $73 $73 $118 $119 reversed $46 $-1 #
face $-1 $120 $121 $18 $-1 $122 reversed single #
loop $-1 $-1 $123 $48 #
plane-surface $-1 0 -21.14112527262861 0 0 1 0 0 0 1 forward_v I I I I #
coedge $-1 $124 $125 $126 $127 forward $49 $-1 #
coedge $-1 $128 $51 $129 $130 forward $31 $-1 #
coedge $-1 $51 $128 $131 $132 forward $31 $-1 #
coedge $-1 $133 $134 $51 $81 reversed $135 $-1 #
edge $-1 $136 -21.14112527262861 $137 21.14112527262861 $80 $138 forward 7 unknown #
face $-1 $139 $140 $19 $-1 $141 reversed single #
loop $-1 $-1 $142 $52 #
plane-surface $-1 -36.433166793255971 -6.434433955195388 0 -1 0 0 0 0 1 forward_v I I I I #
coedge $-1 $143 $144 $145 $146 forward $53 $-1 #
coedge $-1 $147 $55 $148 $149 reversed $34 $-1 #
coedge $-1 $55 $147 $150 $151 reversed $34 $-1 #
coedge $-1 $152 $153 $55 $89 forward $154 $-1 #
edge $-1 $155 -8.4147059516632474 $156 8.4147059516632474 $88 $157 forward 7 unknown #
face $-1 $158 $159 $20 $-1 $160 reversed single #
loop $-1 $-1 $161 $56 #
plane-surface $-1 4.4299817451304797 78.450004152051036 82.941949977619117 -1 0 0 0 0.86602541151947299 0.49999998660252726 forward_v I I I I #
coedge $-1 $162 $163 $164 $165 reversed $57 $-1 #
coedge $-1 $95 $59 $166 $167 reversed $37 $-1 #
coedge $-1 $59 $94 $162 $168 reversed $37 $-1 #
coedge $-1 $164 $169 $59 $97 forward $170 $-1 #
edge $-1 $171 18.083876803396908 $172 22.346677973150133 $96 $173 forward 7 unknown #
loop $-1 $-1 $103 $60 #
plane-surface $-1 -4.43016448188677 5.6647530755071784e-007 37.648820907729132 0 0.86602541151947299 0.49999998660252726 1 0 0 forward_v I I I I #
loop $-1 $-1 $174 $39 #
coedge $-1 $101 $101 $102 $175 reversed $61 $-1 #
coedge $-1 $102 $102 $101 $175 forward $63 $-1 #
coedge $-1 $103 $103 $64 $104 forward $98 $-1 #
edge $-1 $176 9.1579099317944083e-016 $176 6.2831853071796013 $103 $177 forward 7 unknown #
face $-1 $178 $179 $22 $-1 $180 forward single #
loop $-1 $-1 $181 $65 #
plane-surface $-1 0 21.14112527262861 0 0 -1 0 0 0 -1 forward_v I I I I #
coedge $-1 $182 $183 $184 $185 reversed $66 $-1 #
coedge $-1 $186 $68 $187 $188 reversed $43 $-1 #
coedge $-1 $68 $186 $189 $190 reversed $43 $-1 #
coedge $-1 $191 $192 $68 $112 forward $179 $-1 #
edge $-1 $193 -42.282250545257206 $194 -33.756647977307701 $111 $195 forward 7 unknown #
loop $-1 $-1 $118 $69 #
plane-surface $-1 -4.43016448188677 5.6647530755071784e-007 37.648820907729132 0 0.86602541151947299 0.49999998660252726 1 0 0 forward_v I I I I #
loop $-1 $-1 $196 $45 #
coedge $-1 $116 $116 $117 $197 reversed $70 $-1 #
coedge $-1 $117 $117 $116 $197 forward $72 $-1 #
coedge $-1 $118 $118 $73 $119 forward $113 $-1 #
edge $-1 $198 9.1579099317944083e-016 $198 6.2831853071796013 $118 $199 forward 7 unknown #
face $-1 $200 $201 $18 $-1 $202 reversed single #
loop $-1 $-1 $203 $74 #
plane-surface $-1 -45.293130283516952 0 0 1 0 0 0 0 -1 forward_v I I I I #
coedge $-1 $204 $131 $205 $206 forward $75 $-1 #
coedge $-1 $207 $77 $204 $208 forward $49 $-1 #
coedge $-1 $77 $207 $209 $210 forward $49 $-1 #
coedge $-1 $134 $133 $77 $127 reversed $135 $-1 #
edge $-1 $211 -21.14112527262861 $212 21.14112527262861 $126 $213 forward 7 unknown #
coedge $-1 $79 $78 $214 $215 forward $31 $-1 #
coedge $-1 $216 $217 $78 $130 reversed $201 $-1 #
edge $-1 $137 -45.293130283516952 $218 45.293130283516952 $129 $219 forward 7 unknown #
coedge $-1 $123 $220 $79 $132 reversed $75 $-1 #
edge $-1 $221 -45.293130283516952 $136 45.293130283516952 $131 $222 forward 7 unknown #
coedge $-1 $126 $80 $220 $223 forward $135 $-1 #
coedge $-1 $80 $126 $216 $224 reversed $135 $-1 #
loop $-1 $-1 $133 $200 #
vertex $-1 $81 $225 #
vertex $-1 $81 $226 #
straight-curve $-1 45.293130283516952 0 8.4147059516632474 0 1 0 I I #
face $-1 $227 $228 $19 $-1 $229 forward single #
loop $-1 $-1 $230 $82 #
plane-surface $-1 0 0 -8.4147059516632474 0 0 1 1 0 0 forward_v I I I I #
coedge $-1 $231 $232 $147 $233 forward $83 $-1 #
coedge $-1 $234 $85 $230 $235 reversed $53 $-1 #
coedge $-1 $85 $234 $236 $237 reversed $53 $-1 #
coedge $-1 $232 $231 $85 $146 reversed $83 $-1 #
edge $-1 $238 -8.4147059516632474 $239 8.4147059516632474 $145 $240 forward 7 unknown #
coedge $-1 $87 $86 $142 $233 reversed $34 $-1 #
coedge $-1 $241 $242 $86 $149 forward $140 $-1 #
edge $-1 $243 16.00159252406274 $155 24.861556014323721 $148 $244 forward 7 unknown #
coedge $-1 $245 $246 $87 $151 forward $228 $-1 #
edge $-1 $156 -24.861556014323721 $247 -16.00159252406274 $150 $248 forward 7 unknown #
coedge $-1 $249 $88 $246 $250 reversed $154 $-1 #
coedge $-1 $88 $249 $241 $251 reversed $154 $-1 #
loop $-1 $-1 $249 $227 #
vertex $-1 $251 $252 #
vertex $-1 $89 $253 #
straight-curve $-1 -45.293130283516952 -8.0571545410886607 0 0 0 1 I I #
face $-1 $-1 $170 $20 $-1 $254 forward single #
loop $-1 $-1 $255 $90 #
plane-surface $-1 0 21.14112527262861 0 0 -1 0 0 0 -1 forward_v I I I I #
coedge $-1 $256 $257 $258 $259 reversed $91 $-1 #
coedge $-1 $260 $93 $95 $168 forward $57 $-1 #
coedge $-1 $93 $260 $256 $261 forward $57 $-1 #
coedge $-1 $258 $96 $93 $165 forward $170 $-1 #
edge $-1 $172 -11.075228467960635 $262 6.6450639860738647 $164 $263 forward 7 unknown #
coedge $-1 $264 $265 $94 $167 forward $159 $-1 #
edge $-1 $266 -40.439657509506262 $171 -33.056269037146308 $166 $267 forward 7 unknown #
edge $-1 $172 33.756647977307701 $266 42.282250545257206 $95 $268 forward 7 unknown #
coedge $-1 $96 $258 $264 $269 forward $170 $-1 #
loop $-1 $-1 $258 $158 #
vertex $-1 $167 $270 #
vertex $-1 $97 $271 #
straight-curve $-1 -13.29031070890402 39.225002076025518 8.414705951663251 0 -1 0 I I #
coedge $-1 $174 $174 $-1 $272 reversed $100 $-1 #
edge $-1 $273 0 $273 6.2831853071796004 $101 $274 forward 7 unknown #
vertex $-1 $104 $275 #
ellipse-curve $-1 -4.4301644818867629 19.009724687751998 4.7230117154832696 0 0.86602541151947299 0.49999998660252726 2 0 0 1 I I #
face $-1 $-1 $276 $22 $-1 $277 forward single #
loop $-1 $-1 $191 $105 #
plane-surface $-1 4.4299817451304797 78.450004152051036 82.941949977619117 -1 0 0 0 0.86602541151947299 0.49999998660252726 forward_v I I I I #
coedge $-1 $187 $278 $183 $279 forward $106 $-1 #
coedge $-1 $183 $108 $186 $280 reversed $66 $-1 #
coedge $-1 $108 $182 $181 $279 reversed $66 $-1 #
coedge $-1 $281 $189 $108 $185 forward $276 $-1 #
edge $-1 $282 -22.346677973150133 $283 -18.083876803396908 $184 $284 forward 7 unknown #
coedge $-1 $110 $109 $182 $280 forward $43 $-1 #
coedge $-1 $285 $181 $109 $188 forward $106 $-1 #
edge $-1 $286 -24.365356440108364 $193 -6.6450639860738647 $187 $287 forward 7 unknown #
coedge $-1 $184 $288 $110 $190 forward $276 $-1 #
edge $-1 $194 6.6450639860738647 $282 24.365356440108364 $189 $289 forward 7 unknown #
coedge $-1 $192 $111 $288 $290 reversed $179 $-1 #
coedge $-1 $111 $191 $285 $291 reversed $179 $-1 #
vertex $-1 $188 $292 #
vertex $-1 $190 $293 #
straight-curve $-1 4.4299817451304797 5.6647530755071784e-007 37.648820907729132 0 -0.49999998660252726 0.86602541151947299 I I #
coedge $-1 $196 $196 $-1 $294 reversed $115 $-1 #
edge $-1 $295 0 $295 6.2831853071796004 $116 $296 forward 7 unknown #
vertex $-1 $119 $297 #
ellipse-curve $-1 13.290127972147737 19.009724687751998 4.7230117154832696 0 0.86602541151947299 0.49999998660252726 2 0 0 1 I I #
face $-1 $-1 $135 $18 $-1 $298 reversed single #
loop $-1 $-1 $216 $120 #
plane-surface $-1 0 21.14112527262861 0 0 -1 0 0 0 -1 forward_v I I I I #
coedge $-1 $299 $214 $217 $300 forward $121 $-1 #
coedge $-1 $220 $123 $124 $208 reversed $75 $-1 #
coedge $-1 $214 $299 $123 $206 reversed $121 $-1 #
edge $-1 $221 -8.4147059516632474 $301 8.4147059516632474 $205 $302 forward 7 unknown #
coedge $-1 $125 $124 $299 $303 forward $49 $-1 #
edge $-1 $212 -45.293130283516952 $301 45.293130283516952 $204 $304 forward 7 unknown #
coedge $-1 $217 $216 $125 $210 reversed $201 $-1 #
edge $-1 $305 -45.293130283516952 $211 45.293130283516952 $209 $306 forward 7 unknown #
vertex $-1 $127 $307 #
vertex $-1 $223 $308 #
straight-curve $-1 45.293130283516952 0 -8.4147059516632474 0 -1 0 I I #
coedge $-1 $203 $205 $128 $215 reversed $121 $-1 #
edge $-1 $218 -21.14112527262861 $221 21.14112527262861 $214 $309 forward 7 unknown #
coedge $-1 $209 $129 $134 $224 forward $201 $-1 #
coedge $-1 $129 $209 $203 $300 reversed $201 $-1 #
vertex $-1 $130 $310 #
straight-curve $-1 0 21.14112527262861 8.4147059516632474 -1 0 0 I I #
coedge $-1 $131 $204 $133 $223 reversed $75 $-1 #
vertex $-1 $215 $311 #
straight-curve $-1 0 -21.14112527262861 8.4147059516632474 1 0 0 I I #
edge $-1 $136 -8.4147059516632474 $212 8.4147059516632474 $133 $312 forward 7 unknown #
edge $-1 $137 -8.4147059516632474 $211 8.4147059516632474 $134 $313 forward 7 unknown #
point $-1 45.293130283516952 -21.14112527262861 8.4147059516632474 #
point $-1 45.293130283516952 21.14112527262861 8.4147059516632474 #
face $-1 $-1 $154 $19 $-1 $314 reversed single #
loop $-1 $-1 $236 $139 #
plane-surface $-1 0 0 8.4147059516632474 0 0 1 1 0 0 forward_v I I I I #
coedge $-1 $242 $241 $143 $235 forward $140 $-1 #
coedge $-1 $145 $142 $242 $315 reversed $83 $-1 #
coedge $-1 $142 $145 $245 $316 reversed $83 $-1 #
edge $-1 $247 -8.4147059516632474 $243 8.4147059516632474 $142 $317 forward 7 unknown #
coedge $-1 $144 $143 $249 $318 reversed $53 $-1 #
edge $-1 $319 -24.861556014323721 $239 -16.00159252406274 $230 $320 forward 7 unknown #
coedge $-1 $246 $245 $144 $237 forward $228 $-1 #
edge $-1 $238 16.00159252406274 $321 24.861556014323721 $236 $322 forward 7 unknown #
vertex $-1 $237 $323 #
vertex $-1 $235 $324 #
straight-curve $-1 -36.433166793255971 -4.8117133693021144 0 0 0 -1 I I #
coedge $-1 $230 $148 $153 $251 forward $140 $-1 #
coedge $-1 $148 $230 $231 $315 forward $140 $-1 #
vertex $-1 $149 $325 #
straight-curve $-1 -20.431574269193231 -8.0571545410886607 -8.4147059516632474 -1 0 0 I I #
coedge $-1 $236 $150 $232 $316 forward $228 $-1 #
coedge $-1 $150 $236 $152 $250 forward $228 $-1 #
vertex $-1 $151 $326 #
straight-curve $-1 -20.431574269193231 -8.0571545410886607 8.4147059516632474 1 0 0 I I #
coedge $-1 $153 $152 $234 $318 forward $154 $-1 #
edge $-1 $321 4.8117133693021144 $156 8.0571545410886607 $152 $327 forward 7 unknown #
edge $-1 $155 -8.0571545410886607 $319 -4.8117133693021144 $153 $328 forward 7 unknown #
point $-1 -45.293130283516952 -8.0571545410886607 -8.4147059516632474 #
point $-1 -45.293130283516952 -8.0571545410886607 8.4147059516632474 #
plane-surface $-1 0 0 8.4147059516632474 0 0 1 1 0 0 forward_v I I I I #
coedge $-1 $265 $264 $257 $329 forward $159 $-1 #
coedge $-1 $257 $161 $163 $261 reversed $91 $-1 #
coedge $-1 $161 $256 $255 $329 reversed $91 $-1 #
coedge $-1 $169 $164 $161 $259 forward $170 $-1 #
edge $-1 $262 -22.346677973150133 $330 -18.083876803396908 $258 $331 forward 7 unknown #
coedge $-1 $163 $162 $265 $332 reversed $57 $-1 #
edge $-1 $333 -42.282250545257206 $262 -33.756647977307701 $256 $334 forward 7 unknown #
vertex $-1 $165 $335 #
straight-curve $-1 -2.215082240943385 16.878324102875386 8.4147059516632474 1 0 0 I I #
coedge $-1 $255 $166 $169 $269 reversed $159 $-1 #
coedge $-1 $166 $255 $260 $332 forward $159 $-1 #
vertex $-1 $167 $336 #
straight-curve $-1 -13.29031070890402 21.14112527262861 41.470974988809559 0 0 1 I I #
straight-curve $-1 -13.29031070890402 5.6647530755071784e-007 37.648820907729132 0 0.49999998660252726 -0.86602541151947299 I I #
edge $-1 $330 -4.4299817451304797 $171 13.29031070890402 $264 $337 forward 7 unknown #
point $-1 -13.29031070890402 21.14112527262861 8.4147059516632474 #
point $-1 -13.29031070890402 16.878324102875386 8.4147059516632439 #
edge $-1 $338 1 $338 0 $174 $-1 forward 7 unknown #
vertex $-1 $175 $339 #
ellipse-curve $-1 -4.4301644818867629 17.178086360498273 3.6655148719660553 0 0.86602541151947299 0.49999998660252726 2 0 0 1 I I #
point $-1 -2.4301644818867629 19.009724687751991 4.7230117154832634 #
loop $-1 $-1 $184 $178 #
plane-surface $-1 0 0 8.4147059516632474 0 0 1 1 0 0 forward_v I I I I #
coedge $-1 $181 $285 $281 $340 reversed $106 $-1 #
edge $-1 $283 33.056269037146308 $286 40.439657509506262 $181 $341 forward 7 unknown #
edge $-1 $286 -42.282250545257206 $282 -33.756647977307701 $182 $342 forward 7 unknown #
coedge $-1 $288 $184 $278 $340 forward $276 $-1 #
vertex $-1 $185 $343 #
vertex $-1 $340 $344 #
straight-curve $-1 22.150274199164979 39.225002076025518 8.414705951663251 0 1 0 I I #
coedge $-1 $278 $187 $192 $291 forward $106 $-1 #
vertex $-1 $279 $345 #
straight-curve $-1 -2.215082240943385 21.14112527262861 1.0313174793033006 -1 0 0 I I #
coedge $-1 $189 $281 $191 $290 forward $276 $-1 #
straight-curve $-1 -2.215082240943385 16.878324102875386 8.4147059516632474 1 0 0 I I #
edge $-1 $346 18.083876803396908 $194 22.346677973150133 $288 $347 forward 7 unknown #
edge $-1 $193 -40.439657509506262 $346 -33.056269037146308 $285 $348 forward 7 unknown #
point $-1 4.4299817451304797 21.14112527262861 1.0313174793032971 #
point $-1 4.4299817451304797 16.878324102875386 8.4147059516632439 #
edge $-1 $349 1 $349 0 $196 $-1 forward 7 unknown #
vertex $-1 $197 $350 #
ellipse-curve $-1 13.290127972147737 17.178086360498273 3.6655148719660553 0 0.86602541151947299 0.49999998660252726 2 0 0 1 I I #
point $-1 15.290127972147737 19.009724687751991 4.7230117154832634 #
plane-surface $-1 45.293130283516952 0 0 -1 0 0 0 0 1 forward_v I I I I #
coedge $-1 $205 $203 $207 $303 reversed $121 $-1 #
edge $-1 $218 -8.4147059516632474 $305 8.4147059516632474 $217 $351 forward 7 unknown #
vertex $-1 $303 $352 #
straight-curve $-1 -45.293130283516952 -21.14112527262861 0 0 0 -1 I I #
edge $-1 $301 -21.14112527262861 $305 21.14112527262861 $299 $353 forward 7 unknown #
straight-curve $-1 0 -21.14112527262861 -8.4147059516632474 -1 0 0 I I #
vertex $-1 $210 $354 #
straight-curve $-1 0 21.14112527262861 -8.4147059516632474 1 0 0 I I #
point $-1 45.293130283516952 21.14112527262861 -8.4147059516632474 #
point $-1 45.293130283516952 -21.14112527262861 -8.4147059516632474 #
straight-curve $-1 -45.293130283516952 0 8.4147059516632474 0 -1 0 I I #
point $-1 -45.293130283516952 21.14112527262861 8.4147059516632474 #
point $-1 -45.293130283516952 -21.14112527262861 8.4147059516632474 #
straight-curve $-1 45.293130283516952 -21.14112527262861 0 0 0 -1 I I #
straight-curve $-1 45.293130283516952 21.14112527262861 0 0 0 -1 I I #
plane-surface $-1 -45.293130283516952 0 0 1 0 0 0 0 -1 forward_v I I I I #
edge $-1 $239 1.5944963917044204 $243 4.8399375634909667 $242 $355 forward 7 unknown #
edge $-1 $247 -4.8399375634909667 $238 -1.5944963917044204 $245 $356 forward 7 unknown #
straight-curve $-1 -36.433166793255971 -8.0571545410886607 0 0 0 -1 I I #
edge $-1 $321 -8.4147059516632474 $319 8.4147059516632474 $249 $357 forward 7 unknown #
vertex $-1 $318 $358 #
straight-curve $-1 -20.431574269193231 -4.8117133693021144 -8.4147059516632474 1 0 0 I I #
vertex $-1 $250 $359 #
straight-curve $-1 -20.431574269193231 -4.8117133693021144 8.4147059516632474 -1 0 0 I I #
point $-1 -36.433166793255971 -4.8117133693021144 8.4147059516632474 #
point $-1 -36.433166793255971 -4.8117133693021144 -8.4147059516632474 #
point $-1 -36.433166793255971 -8.0571545410886607 -8.4147059516632474 #
point $-1 -36.433166793255971 -8.0571545410886607 8.4147059516632474 #
straight-curve $-1 -45.293130283516952 0 8.4147059516632474 0 -1 0 I I #
straight-curve $-1 -45.293130283516952 0 -8.4147059516632474 0 1 0 I I #
edge $-1 $330 33.056269037146308 $333 40.439657509506262 $255 $360 forward 7 unknown #
vertex $-1 $269 $361 #
straight-curve $-1 4.4299817451304797 39.225002076025518 8.414705951663251 0 1 0 I I #
edge $-1 $333 -6.6450639860738647 $266 11.075228467960635 $265 $362 forward 7 unknown #
vertex $-1 $332 $363 #
straight-curve $-1 4.4299817451304797 5.6647530755071784e-007 37.648820907729132 0 -0.49999998660252726 0.86602541151947299 I I #
point $-1 4.4299817451304797 16.878324102875386 8.4147059516632439 #
point $-1 -13.29031070890402 21.14112527262861 1.0313174793032971 #
straight-curve $-1 0 21.14112527262861 8.4147059516632474 -1 0 0 I I #
vertex $-1 $272 $364 #
point $-1 -2.4301644818867629 17.178086360498273 3.6655148719660553 #
edge $-1 $283 -22.150274199164979 $346 -4.4299817451304797 $278 $365 forward 7 unknown #
straight-curve $-1 22.150274199164979 21.14112527262861 41.470974988809559 0 0 -1 I I #
straight-curve $-1 22.150274199164979 5.6647530755071784e-007 37.648820907729132 0 -0.49999998660252726 0.86602541151947299 I I #
point $-1 22.150274199164979 16.878324102875386 8.4147059516632439 #
point $-1 22.150274199164979 21.14112527262861 8.4147059516632474 #
point $-1 22.150274199164979 21.14112527262861 1.0313174793032971 #
vertex $-1 $291 $366 #
straight-curve $-1 4.4299817451304797 39.225002076025518 8.414705951663251 0 -1 0 I I #
straight-curve $-1 4.4299817451304797 21.14112527262861 41.470974988809559 0 0 1 I I #
vertex $-1 $294 $367 #
point $-1 15.290127972147737 17.178086360498273 3.6655148719660553 #
straight-curve $-1 -45.293130283516952 21.14112527262861 0 0 0 -1 I I #
point $-1 -45.293130283516952 -21.14112527262861 -8.4147059516632474 #
straight-curve $-1 -45.293130283516952 0 -8.4147059516632474 0 1 0 I I #
point $-1 -45.293130283516952 21.14112527262861 -8.4147059516632474 #
straight-curve $-1 -36.433166793255971 -3.217216977597694 -8.4147059516632474 0 -1 0 I I #
straight-curve $-1 -36.433166793255971 -3.217216977597694 8.4147059516632474 0 1 0 I I #
straight-curve $-1 -45.293130283516952 -4.8117133693021144 0 0 0 -1 I I #
point $-1 -45.293130283516952 -4.8117133693021144 -8.4147059516632474 #
point $-1 -45.293130283516952 -4.8117133693021144 8.4147059516632474 #
straight-curve $-1 4.4299817451304797 21.14112527262861 41.470974988809559 0 0 -1 I I #
point $-1 4.4299817451304797 21.14112527262861 8.4147059516632474 #
straight-curve $-1 -2.215082240943385 21.14112527262861 1.0313174793033006 -1 0 0 I I #
point $-1 4.4299817451304797 21.14112527262861 1.0313174793032971 #
point $-1 -4.4301644818867629 15.446035537459327 2.6655148987610011 #
straight-curve $-1 0 21.14112527262861 8.4147059516632474 -1 0 0 I I #
point $-1 4.4299817451304797 21.14112527262861 8.4147059516632474 #
point $-1 13.290127972147737 15.446035537459327 2.6655148987610011 #
End-of-ACIS-data 