500 0 14 0           
7 Unknown 11 ACIS 5.0 NT 24 Fri Mar 26 02:53:07 1999 
-1 9.9999999999999995e-007 1e-010 
body $-1 $14 $-1 $15 #
body $-1 $16 $-1 $17 #
body $-1 $18 $-1 $19 #
body $-1 $20 $-1 $21 #
body $-1 $22 $-1 $23 #
body $-1 $24 $-1 $25 #
body $-1 $26 $-1 $27 #
body $-1 $28 $-1 $29 #
body $-1 $30 $-1 $31 #
body $-1 $32 $-1 $33 #
body $-1 $34 $-1 $35 #
body $-1 $36 $-1 $37 #
body $-1 $38 $-1 $39 #
body $-1 $40 $-1 $41 #
lump $-1 $-1 $42 $0 #
transform $-1 1 0 0 0 1 0 0 0 1 66.575518051698353 30.781145157616496 11.697624251417217 1 rotate no_reflect no_shear #
lump $-1 $-1 $43 $1 #
transform $-1 1 0 0 0 1 0 0 0 1 66.575518051698353 30.781145157616496 11.697624251417217 1 rotate no_reflect no_shear #
lump $-1 $-1 $44 $2 #
transform $-1 1 0 0 0 1 0 0 0 1 66.575518051698353 30.781145157616496 11.697624251417217 1 rotate no_reflect no_shear #
lump $-1 $-1 $45 $3 #
transform $-1 1 0 0 0 1 0 0 0 1 66.575518051698353 30.781145157616496 11.697624251417217 1 rotate no_reflect no_shear #
lump $-1 $-1 $46 $4 #
transform $-1 1 0 0 0 1 0 0 0 1 66.575518051698353 30.781145157616496 11.697624251417217 1 rotate no_reflect no_shear #
lump $-1 $-1 $47 $5 #
transform $-1 1 0 0 0 1 0 0 0 1 66.575518051698353 30.781145157616496 11.697624251417217 1 rotate no_reflect no_shear #
lump $-1 $-1 $48 $6 #
transform $-1 1 0 0 0 1 0 0 0 1 66.575518051698353 30.781145157616496 11.697624251417217 1 rotate no_reflect no_shear #
lump $-1 $-1 $49 $7 #
transform $-1 1 0 0 0 1 0 0 0 1 66.575518051698353 30.781145157616496 11.697624251417217 1 rotate no_reflect no_shear #
lump $-1 $-1 $50 $8 #
transform $-1 1 0 0 0 1 0 0 0 1 66.575518051698353 30.781145157616496 11.697624251417217 1 rotate no_reflect no_shear #
lump $-1 $-1 $51 $9 #
transform $-1 1 0 0 0 1 0 0 0 1 66.575518051698353 30.781145157616496 11.697624251417217 1 rotate no_reflect no_shear #
lump $-1 $-1 $52 $10 #
transform $-1 1 0 0 0 1 0 0 0 1 66.575518051698353 30.781145157616496 11.697624251417217 1 rotate no_reflect no_shear #
lump $-1 $-1 $53 $11 #
transform $-1 1 0 0 0 1 0 0 0 1 66.575518051698353 30.781145157616496 11.697624251417217 1 rotate no_reflect no_shear #
lump $-1 $-1 $54 $12 #
transform $-1 1 0 0 0 1 0 0 0 1 66.575518051698353 30.781145157616496 11.697624251417217 1 rotate no_reflect no_shear #
lump $-1 $-1 $55 $13 #
transform $-1 1 0 0 0 1 0 0 0 1 66.575518051698353 30.781145157616496 11.697624251417217 1 rotate no_reflect no_shear #
shell $-1 $-1 $-1 $56 $-1 $14 #
shell $-1 $-1 $-1 $57 $-1 $16 #
shell $-1 $-1 $-1 $58 $-1 $18 #
shell $-1 $-1 $-1 $59 $-1 $20 #
shell $-1 $-1 $-1 $60 $-1 $22 #
shell $-1 $-1 $-1 $61 $-1 $24 #
shell $-1 $-1 $-1 $62 $-1 $26 #
shell $-1 $-1 $-1 $63 $-1 $28 #
shell $-1 $-1 $-1 $64 $-1 $30 #
shell $-1 $-1 $-1 $65 $-1 $32 #
shell $-1 $-1 $-1 $66 $-1 $34 #
shell $-1 $-1 $-1 $67 $-1 $36 #
shell $-1 $-1 $-1 $68 $-1 $38 #
shell $-1 $-1 $-1 $69 $-1 $40 #
face $-1 $70 $71 $42 $-1 $72 forward single #
face $-1 $73 $74 $43 $-1 $75 forward single #
face $-1 $76 $77 $44 $-1 $78 reversed single #
face $-1 $79 $80 $45 $-1 $81 forward single #
face $-1 $82 $83 $46 $-1 $84 forward single #
face $-1 $85 $86 $47 $-1 $87 reversed single #
face $-1 $88 $89 $48 $-1 $90 forward single #
face $-1 $91 $92 $49 $-1 $93 forward single #
face $-1 $94 $95 $50 $-1 $96 reversed single #
face $-1 $97 $98 $51 $-1 $99 forward single #
face $-1 $100 $101 $52 $-1 $102 forward single #
face $-1 $103 $104 $53 $-1 $105 reversed single #
face $-1 $106 $107 $54 $-1 $108 forward single #
face $-1 $109 $110 $55 $-1 $111 forward single #
face $-1 $112 $113 $42 $-1 $114 reversed single #
loop $-1 $-1 $115 $56 #
plane-surface $-1 0 0 11.697624251417217 0 0 1 1 0 0 forward_v I I I I #
face $-1 $116 $117 $43 $-1 $118 forward single #
loop $-1 $-1 $119 $57 #
plane-surface $-1 -66.575518051698353 0 0 1 0 0 0 0 -1 forward_v I I I I #
face $-1 $120 $121 $44 $-1 $122 reversed single #
loop $-1 $-1 $123 $58 #
plane-surface $-1 7.1826383094252293 -119.87657975433233 106.44701743397812 -1 0 0 0 -0.66913061440640931 0.74314481823134659 forward_v I I I I #
face $-1 $124 $125 $45 $-1 $126 forward single #
loop $-1 $127 $128 $59 #
cone-surface $-1 -12.924465097343429 -26.510690432688399 7.445199605662653 0 0.66913061440640931 -0.74314481823134659 1.5 0 0 1 I I 0 1 1.5 forward I I I I #
face $-1 $129 $130 $46 $-1 $131 forward single #
loop $-1 $132 $133 $60 #
cone-surface $-1 -0.86020305328223401 -26.510690432688399 7.445199605662653 0 0.66913061440640931 -0.74314481823134659 1.5 0 0 1 I I 0 1 1.5 forward I I I I #
face $-1 $134 $135 $47 $-1 $136 reversed single #
loop $-1 $-1 $137 $61 #
plane-surface $-1 52.500545666960292 -30.781145157616507 7.49651491160391 0 -0.66913061440640931 0.74314481823134659 1 0 0 forward_v I I I I #
face $-1 $138 $139 $48 $-1 $140 forward single #
loop $-1 $141 $142 $62 #
cone-surface $-1 46.468414644929695 -26.510690432688399 7.445199605662653 0 0.66913061440640931 -0.74314481823134659 1.5 0 0 1 I I 0 1 1.5 forward I I I I #
face $-1 $143 $144 $49 $-1 $145 forward single #
loop $-1 $146 $147 $63 #
cone-surface $-1 58.53267668899089 -26.510690432688399 7.445199605662653 0 0.66913061440640931 -0.74314481823134659 1.5 0 0 1 I I 0 1 1.5 forward I I I I #
face $-1 $148 $149 $50 $-1 $150 reversed single #
loop $-1 $-1 $151 $64 #
plane-surface $-1 -20.967306460050892 74.126882708113129 147.64023057687572 1 0 0 0 -0.66913061440640931 -0.74314481823134659 forward_v I I I I #
face $-1 $152 $153 $51 $-1 $154 forward single #
loop $-1 $155 $156 $65 #
cone-surface $-1 -12.924465097343429 26.510690432688396 7.445199605662653 0 -0.66913061440640931 -0.74314481823134659 1.5 0 0 1 I I 0 1 1.5 forward I I I I #
face $-1 $157 $158 $52 $-1 $159 forward single #
loop $-1 $160 $161 $66 #
cone-surface $-1 -0.86020305328223401 26.510690432688396 7.445199605662653 0 -0.66913061440640931 -0.74314481823134659 1.5 0 0 1 I I 0 1 1.5 forward I I I I #
face $-1 $162 $163 $53 $-1 $164 reversed single #
loop $-1 $-1 $165 $67 #
plane-surface $-1 52.500545666960292 -14.96855188860269 48.689728054501515 0 0.66913061440640931 0.74314481823134659 1 0 0 forward_v I I I I #
face $-1 $166 $167 $54 $-1 $168 forward single #
loop $-1 $169 $170 $68 #
cone-surface $-1 46.468414644929695 26.510690432688396 7.445199605662653 0 -0.66913061440640931 -0.74314481823134659 1.5 0 0 1 I I 0 1 1.5 forward I I I I #
face $-1 $171 $172 $55 $-1 $173 forward single #
loop $-1 $174 $175 $69 #
cone-surface $-1 58.53267668899089 26.510690432688396 7.445199605662653 0 -0.66913061440640931 -0.74314481823134659 1.5 0 0 1 I I 0 1 1.5 forward I I I I #
face $-1 $176 $177 $42 $-1 $178 reversed single #
loop $-1 $-1 $179 $70 #
plane-surface $-1 0 0 -11.697624251417217 0 0 1 1 0 0 forward_v I I I I #
coedge $-1 $180 $181 $182 $183 forward $71 $-1 #
face $-1 $184 $185 $43 $-1 $186 reversed single #
loop $-1 $-1 $187 $73 #
plane-surface $-1 0 0 11.697624251417217 0 0 1 1 0 0 forward_v I I I I #
coedge $-1 $188 $189 $190 $191 forward $74 $-1 #
face $-1 $192 $193 $44 $-1 $194 reversed single #
loop $-1 $-1 $195 $76 #
plane-surface $-1 -6.8923340753128315 -30.781145157616507 7.49651491160391 0 -0.66913061440640931 0.74314481823134659 1 0 0 forward_v I I I I #
coedge $-1 $196 $197 $198 $199 reversed $77 $-1 #
face $-1 $-1 $200 $45 $-1 $201 forward single #
loop $-1 $202 $203 $79 #
cone-surface $-1 -12.924465097343429 -24.071290000632196 4.7359710161412352 0 0.66913061440640931 -0.74314481823134659 0.75 0 0 1 I I -0.70710678118654757 0.70710678118654757 0.75 forward I I I I #
loop $-1 $-1 $204 $59 #
coedge $-1 $128 $128 $205 $206 reversed $80 $-1 #
face $-1 $-1 $207 $46 $-1 $208 forward single #
loop $-1 $209 $210 $82 #
cone-surface $-1 -0.86020305328223401 -24.071290000632196 4.7359710161412352 0 0.66913061440640931 -0.74314481823134659 0.75 0 0 1 I I -0.70710678118654757 0.70710678118654757 0.75 forward I I I I #
loop $-1 $-1 $211 $60 #
coedge $-1 $133 $133 $212 $213 reversed $83 $-1 #
face $-1 $214 $215 $47 $-1 $216 reversed single #
loop $-1 $-1 $217 $85 #
plane-surface $-1 38.425573282222231 -119.87657975433233 106.44701743397812 1 0 0 0 0.66913061440640931 -0.74314481823134659 forward_v I I I I #
coedge $-1 $218 $219 $220 $221 reversed $86 $-1 #
face $-1 $-1 $222 $48 $-1 $223 forward single #
loop $-1 $224 $225 $88 #
cone-surface $-1 46.468414644929695 -24.071290000632196 4.7359710161412352 0 0.66913061440640931 -0.74314481823134659 0.75 0 0 1 I I -0.70710678118654757 0.70710678118654757 0.75 forward I I I I #
loop $-1 $-1 $226 $62 #
coedge $-1 $142 $142 $227 $228 reversed $89 $-1 #
face $-1 $-1 $229 $49 $-1 $230 forward single #
loop $-1 $231 $232 $91 #
cone-surface $-1 58.53267668899089 -24.071290000632196 4.7359710161412352 0 0.66913061440640931 -0.74314481823134659 0.75 0 0 1 I I -0.70710678118654757 0.70710678118654757 0.75 forward I I I I #
loop $-1 $-1 $233 $63 #
coedge $-1 $147 $147 $234 $235 reversed $92 $-1 #
face $-1 $236 $237 $50 $-1 $238 reversed single #
loop $-1 $-1 $239 $94 #
plane-surface $-1 -6.8923340753128315 -14.96855188860269 48.689728054501515 0 0.66913061440640931 0.74314481823134659 1 0 0 forward_v I I I I #
coedge $-1 $240 $241 $242 $243 reversed $95 $-1 #
face $-1 $-1 $244 $51 $-1 $245 forward single #
loop $-1 $246 $247 $97 #
cone-surface $-1 -12.924465097343429 24.071290000632192 4.7359710161412352 0 -0.66913061440640931 -0.74314481823134659 0.75 0 0 1 I I -0.70710678118654757 0.70710678118654757 0.75 forward I I I I #
loop $-1 $-1 $248 $65 #
coedge $-1 $156 $156 $249 $250 reversed $98 $-1 #
face $-1 $-1 $251 $52 $-1 $252 forward single #
loop $-1 $253 $254 $100 #
cone-surface $-1 -0.86020305328223401 24.071290000632192 4.7359710161412352 0 -0.66913061440640931 -0.74314481823134659 0.75 0 0 1 I I -0.70710678118654757 0.70710678118654757 0.75 forward I I I I #
loop $-1 $-1 $255 $66 #
coedge $-1 $161 $161 $256 $257 reversed $101 $-1 #
face $-1 $258 $259 $53 $-1 $260 forward single #
loop $-1 $-1 $261 $103 #
plane-surface $-1 38.425573282222231 74.126882708113129 147.64023057687572 1 0 0 0 -0.66913061440640931 -0.74314481823134659 forward_v I I I I #
coedge $-1 $262 $263 $264 $265 reversed $104 $-1 #
face $-1 $-1 $266 $54 $-1 $267 forward single #
loop $-1 $268 $269 $106 #
cone-surface $-1 46.468414644929695 24.071290000632192 4.7359710161412352 0 -0.66913061440640931 -0.74314481823134659 0.75 0 0 1 I I -0.70710678118654757 0.70710678118654757 0.75 forward I I I I #
loop $-1 $-1 $270 $68 #
coedge $-1 $170 $170 $271 $272 reversed $107 $-1 #
face $-1 $-1 $273 $55 $-1 $274 forward single #
loop $-1 $275 $276 $109 #
cone-surface $-1 58.53267668899089 24.071290000632192 4.7359710161412352 0 -0.66913061440640931 -0.74314481823134659 0.75 0 0 1 I I -0.70710678118654757 0.70710678118654757 0.75 forward I I I I #
loop $-1 $-1 $277 $69 #
coedge $-1 $175 $175 $278 $279 reversed $110 $-1 #
face $-1 $280 $281 $42 $-1 $282 reversed single #
loop $-1 $-1 $283 $112 #
plane-surface $-1 0 -30.781145157616496 0 0 1 0 0 0 1 forward_v I I I I #
coedge $-1 $284 $285 $286 $287 forward $113 $-1 #
coedge $-1 $288 $115 $289 $290 forward $71 $-1 #
coedge $-1 $115 $288 $291 $292 forward $71 $-1 #
coedge $-1 $293 $294 $115 $183 reversed $295 $-1 #
edge $-1 $296 -30.781145157616496 $297 30.781145157616496 $182 $298 forward 7 unknown #
face $-1 $299 $300 $43 $-1 $301 reversed single #
loop $-1 $-1 $302 $116 #
plane-surface $-1 -80.940794670548811 -29.059112926970993 0 1 0 0 0 0 -1 forward_v I I I I #
coedge $-1 $303 $304 $188 $305 forward $117 $-1 #
coedge $-1 $306 $119 $187 $305 reversed $74 $-1 #
coedge $-1 $119 $306 $307 $308 reversed $74 $-1 #
coedge $-1 $309 $310 $119 $191 reversed $300 $-1 #
edge $-1 $311 -11.697624251417217 $312 11.697624251417217 $190 $313 forward 7 unknown #
face $-1 $314 $315 $44 $-1 $316 forward single #
loop $-1 $-1 $317 $120 #
plane-surface $-1 -20.967306460050892 -119.87657975433233 106.44701743397812 1 0 0 0 0.66913061440640931 -0.74314481823134659 forward_v I I I I #
coedge $-1 $318 $319 $320 $321 reversed $121 $-1 #
coedge $-1 $197 $123 $322 $323 reversed $77 $-1 #
coedge $-1 $123 $196 $318 $324 reversed $77 $-1 #
coedge $-1 $320 $325 $123 $199 forward $315 $-1 #
edge $-1 $326 29.157144719549667 $327 33.822949226903049 $198 $328 forward 7 unknown #
loop $-1 $-1 $205 $124 #
plane-surface $-1 -6.8923340753128315 -30.781145157616507 7.49651491160391 0 -0.66913061440640931 0.74314481823134659 1 0 0 forward_v I I I I #
loop $-1 $-1 $329 $79 #
coedge $-1 $203 $203 $204 $330 reversed $125 $-1 #
coedge $-1 $204 $204 $203 $330 forward $127 $-1 #
coedge $-1 $205 $205 $128 $206 forward $200 $-1 #
edge $-1 $331 -4.4180812976276716e-016 $331 6.2831853071796004 $205 $332 forward 7 unknown #
loop $-1 $-1 $212 $129 #
plane-surface $-1 -6.8923340753128315 -30.781145157616507 7.49651491160391 0 -0.66913061440640931 0.74314481823134659 1 0 0 forward_v I I I I #
loop $-1 $-1 $333 $82 #
coedge $-1 $210 $210 $211 $334 reversed $130 $-1 #
coedge $-1 $211 $211 $210 $334 forward $132 $-1 #
coedge $-1 $212 $212 $133 $213 forward $207 $-1 #
edge $-1 $335 -4.4180812976276716e-016 $335 6.2831853071796004 $212 $336 forward 7 unknown #
face $-1 $337 $338 $47 $-1 $339 forward single #
loop $-1 $-1 $340 $134 #
plane-surface $-1 0 -30.781145157616496 0 0 1 0 0 0 1 forward_v I I I I #
coedge $-1 $341 $342 $343 $344 reversed $135 $-1 #
coedge $-1 $345 $137 $346 $347 reversed $86 $-1 #
coedge $-1 $137 $345 $341 $348 forward $86 $-1 #
coedge $-1 $343 $349 $137 $221 forward $338 $-1 #
edge $-1 $350 -40.325245218218207 $351 -12.175300448742085 $220 $352 forward 7 unknown #
loop $-1 $-1 $227 $138 #
plane-surface $-1 52.500545666960292 -30.781145157616507 7.49651491160391 0 -0.66913061440640931 0.74314481823134659 1 0 0 forward_v I I I I #
loop $-1 $-1 $353 $88 #
coedge $-1 $225 $225 $226 $354 reversed $139 $-1 #
coedge $-1 $226 $226 $225 $354 forward $141 $-1 #
coedge $-1 $227 $227 $142 $228 forward $222 $-1 #
edge $-1 $355 -4.4180812976276716e-016 $355 6.2831853071796004 $227 $356 forward 7 unknown #
loop $-1 $-1 $234 $143 #
plane-surface $-1 52.500545666960292 -30.781145157616507 7.49651491160391 0 -0.66913061440640931 0.74314481823134659 1 0 0 forward_v I I I I #
loop $-1 $-1 $357 $91 #
coedge $-1 $232 $232 $233 $358 reversed $144 $-1 #
coedge $-1 $233 $233 $232 $358 forward $146 $-1 #
coedge $-1 $234 $234 $147 $235 forward $229 $-1 #
edge $-1 $359 -4.4180812976276716e-016 $359 6.2831853071796004 $234 $360 forward 7 unknown #
face $-1 $361 $362 $50 $-1 $363 forward single #
loop $-1 $-1 $364 $148 #
plane-surface $-1 7.1826383094252293 74.126882708113129 147.64023057687572 -1 0 0 0 0.66913061440640931 0.74314481823134659 forward_v I I I I #
coedge $-1 $365 $366 $367 $368 reversed $149 $-1 #
coedge $-1 $241 $151 $369 $370 reversed $95 $-1 #
coedge $-1 $151 $240 $365 $371 reversed $95 $-1 #
coedge $-1 $367 $372 $151 $243 forward $362 $-1 #
edge $-1 $373 6.2822961964400683 $374 10.948100703793429 $242 $375 forward 7 unknown #
loop $-1 $-1 $249 $152 #
plane-surface $-1 -6.8923340753128315 -14.96855188860269 48.689728054501515 0 0.66913061440640931 0.74314481823134659 1 0 0 forward_v I I I I #
loop $-1 $-1 $376 $97 #
coedge $-1 $247 $247 $248 $377 reversed $153 $-1 #
coedge $-1 $248 $248 $247 $377 forward $155 $-1 #
coedge $-1 $249 $249 $156 $250 forward $244 $-1 #
edge $-1 $378 1.3254243892883023e-015 $378 6.2831853071796013 $249 $379 forward 7 unknown #
loop $-1 $-1 $256 $157 #
plane-surface $-1 -6.8923340753128315 -14.96855188860269 48.689728054501515 0 0.66913061440640931 0.74314481823134659 1 0 0 forward_v I I I I #
loop $-1 $-1 $380 $100 #
coedge $-1 $254 $254 $255 $381 reversed $158 $-1 #
coedge $-1 $255 $255 $254 $381 forward $160 $-1 #
coedge $-1 $256 $256 $161 $257 forward $251 $-1 #
edge $-1 $382 1.3254243892883023e-015 $382 6.2831853071796013 $256 $383 forward 7 unknown #
face $-1 $384 $385 $53 $-1 $386 reversed single #
loop $-1 $-1 $387 $162 #
plane-surface $-1 0 0 11.697624251417217 0 0 1 1 0 0 forward_v I I I I #
coedge $-1 $388 $389 $390 $391 reversed $163 $-1 #
coedge $-1 $392 $165 $393 $394 reversed $104 $-1 #
coedge $-1 $165 $392 $388 $395 forward $104 $-1 #
coedge $-1 $390 $396 $165 $265 forward $397 $-1 #
edge $-1 $398 -40.325245218218207 $399 -12.175300448742085 $264 $400 forward 7 unknown #
loop $-1 $-1 $271 $166 #
plane-surface $-1 52.500545666960292 -14.96855188860269 48.689728054501515 0 0.66913061440640931 0.74314481823134659 1 0 0 forward_v I I I I #
loop $-1 $-1 $401 $106 #
coedge $-1 $269 $269 $270 $402 reversed $167 $-1 #
coedge $-1 $270 $270 $269 $402 forward $169 $-1 #
coedge $-1 $271 $271 $170 $272 forward $266 $-1 #
edge $-1 $403 1.3254243892883023e-015 $403 6.2831853071796013 $271 $404 forward 7 unknown #
loop $-1 $-1 $278 $171 #
plane-surface $-1 52.500545666960292 -14.96855188860269 48.689728054501515 0 0.66913061440640931 0.74314481823134659 1 0 0 forward_v I I I I #
loop $-1 $-1 $405 $109 #
coedge $-1 $276 $276 $277 $406 reversed $172 $-1 #
coedge $-1 $277 $277 $276 $406 forward $174 $-1 #
coedge $-1 $278 $278 $175 $279 forward $273 $-1 #
edge $-1 $407 1.3254243892883023e-015 $407 6.2831853071796013 $278 $408 forward 7 unknown #
face $-1 $409 $410 $42 $-1 $411 reversed single #
loop $-1 $-1 $412 $176 #
plane-surface $-1 -66.575518051698353 0 0 1 0 0 0 0 -1 forward_v I I I I #
coedge $-1 $413 $291 $414 $415 forward $177 $-1 #
coedge $-1 $416 $179 $413 $417 forward $113 $-1 #
coedge $-1 $179 $416 $418 $419 forward $113 $-1 #
coedge $-1 $294 $293 $179 $287 reversed $295 $-1 #
edge $-1 $420 -30.781145157616496 $421 30.781145157616496 $286 $422 forward 7 unknown #
coedge $-1 $181 $180 $412 $423 forward $71 $-1 #
coedge $-1 $424 $425 $180 $290 reversed $410 $-1 #
edge $-1 $297 -66.575518051698353 $426 66.575518051698353 $289 $427 forward 7 unknown #
coedge $-1 $283 $428 $181 $292 reversed $177 $-1 #
edge $-1 $429 -66.575518051698353 $296 66.575518051698353 $291 $430 forward 7 unknown #
coedge $-1 $286 $182 $428 $431 forward $295 $-1 #
coedge $-1 $182 $286 $424 $432 reversed $295 $-1 #
loop $-1 $-1 $293 $409 #
vertex $-1 $183 $433 #
vertex $-1 $183 $434 #
straight-curve $-1 66.575518051698353 0 11.697624251417217 0 1 0 I I #
face $-1 $435 $436 $43 $-1 $437 reversed single #
loop $-1 $-1 $190 $184 #
plane-surface $-1 -73.758156361123582 -27.33708069632549 0 0 -1 0 0 0 -1 forward_v I I I I #
coedge $-1 $438 $439 $440 $441 forward $185 $-1 #
coedge $-1 $442 $187 $310 $443 forward $117 $-1 #
coedge $-1 $187 $442 $444 $445 forward $117 $-1 #
edge $-1 $446 -30.781145157616496 $312 -27.33708069632549 $187 $447 forward 7 unknown #
coedge $-1 $189 $188 $448 $449 reversed $74 $-1 #
coedge $-1 $450 $451 $189 $308 forward $436 $-1 #
edge $-1 $311 27.33708069632549 $452 30.781145157616496 $307 $453 forward 7 unknown #
coedge $-1 $440 $190 $451 $454 reversed $300 $-1 #
coedge $-1 $190 $440 $303 $443 reversed $300 $-1 #
vertex $-1 $308 $455 #
vertex $-1 $443 $456 #
straight-curve $-1 -66.575518051698353 -27.33708069632549 0 0 0 1 I I #
face $-1 $-1 $457 $44 $-1 $458 reversed single #
loop $-1 $-1 $198 $192 #
plane-surface $-1 0 0 11.697624251417217 0 0 1 1 0 0 forward_v I I I I #
coedge $-1 $459 $460 $461 $462 reversed $193 $-1 #
coedge $-1 $463 $195 $197 $324 forward $121 $-1 #
coedge $-1 $195 $463 $459 $464 forward $121 $-1 #
coedge $-1 $461 $198 $195 $321 forward $315 $-1 #
edge $-1 $327 -10.628805347081645 $465 17.521139422394477 $320 $466 forward 7 unknown #
coedge $-1 $467 $468 $196 $323 forward $457 $-1 #
edge $-1 $469 -45.726993805385142 $326 -41.525884465571842 $322 $470 forward 7 unknown #
edge $-1 $327 -6.2784593162579201 $469 -1.4457923371621692e-014 $197 $471 forward 7 unknown #
coedge $-1 $198 $461 $467 $472 forward $315 $-1 #
vertex $-1 $199 $473 #
vertex $-1 $199 $474 #
straight-curve $-1 7.1826383094252293 -59.938289877166163 11.697624251417217 0 1 0 I I #
coedge $-1 $329 $329 $-1 $475 reversed $202 $-1 #
edge $-1 $476 0 $476 6.2831853071796004 $203 $477 forward 7 unknown #
vertex $-1 $206 $478 #
ellipse-curve $-1 -12.924465097343429 -28.448242903939803 9.5970695815105689 0 -0.66913061440640931 0.74314481823134659 1.5 0 0 1 I I #
coedge $-1 $333 $333 $-1 $479 reversed $209 $-1 #
edge $-1 $480 0 $480 6.2831853071796004 $210 $481 forward 7 unknown #
vertex $-1 $213 $482 #
ellipse-curve $-1 -0.86020305328223401 -28.448242903939803 9.5970695815105689 0 -0.66913061440640931 0.74314481823134659 1.5 0 0 1 I I #
face $-1 $-1 $483 $47 $-1 $484 reversed single #
loop $-1 $-1 $343 $214 #
plane-surface $-1 0 0 11.697624251417217 0 0 1 1 0 0 forward_v I I I I #
coedge $-1 $485 $486 $342 $487 forward $215 $-1 #
coedge $-1 $342 $217 $219 $348 reversed $135 $-1 #
coedge $-1 $217 $341 $340 $487 reversed $135 $-1 #
coedge $-1 $488 $220 $217 $344 forward $338 $-1 #
edge $-1 $351 -33.822949226903049 $489 -29.157144719549667 $343 $490 forward 7 unknown #
coedge $-1 $219 $218 $485 $491 reversed $86 $-1 #
coedge $-1 $492 $493 $218 $347 forward $483 $-1 #
edge $-1 $494 -8.9293504472006262 $350 -2.6508911309427194 $346 $495 forward 7 unknown #
edge $-1 $496 1.4457923371621692e-014 $351 6.2784593162579201 $341 $497 forward 7 unknown #
coedge $-1 $220 $488 $492 $498 forward $338 $-1 #
vertex $-1 $347 $499 #
vertex $-1 $221 $500 #
straight-curve $-1 26.250272833480146 -26.115340650263107 11.697624251417217 -1 0 0 I I #
coedge $-1 $353 $353 $-1 $501 reversed $224 $-1 #
edge $-1 $502 0 $502 6.2831853071796004 $225 $503 forward 7 unknown #
vertex $-1 $228 $504 #
ellipse-curve $-1 46.468414644929695 -28.448242903939803 9.5970695815105689 0 -0.66913061440640931 0.74314481823134659 1.5 0 0 1 I I #
coedge $-1 $357 $357 $-1 $505 reversed $231 $-1 #
edge $-1 $506 0 $506 6.2831853071796004 $232 $507 forward 7 unknown #
vertex $-1 $235 $508 #
ellipse-curve $-1 58.53267668899089 -28.448242903939803 9.5970695815105689 0 -0.66913061440640931 0.74314481823134659 1.5 0 0 1 I I #
face $-1 $-1 $509 $50 $-1 $510 reversed single #
loop $-1 $-1 $242 $236 #
plane-surface $-1 0 0 11.697624251417217 0 0 1 1 0 0 forward_v I I I I #
coedge $-1 $511 $512 $513 $514 reversed $237 $-1 #
coedge $-1 $515 $239 $241 $371 forward $149 $-1 #
coedge $-1 $239 $515 $511 $516 forward $149 $-1 #
coedge $-1 $513 $242 $239 $368 forward $362 $-1 #
edge $-1 $374 -17.521139422394477 $517 10.628805347081645 $367 $518 forward 7 unknown #
coedge $-1 $519 $520 $240 $370 forward $509 $-1 #
edge $-1 $521 -66.323600376833923 $373 -62.122491037020644 $369 $522 forward 7 unknown #
edge $-1 $374 55.283830998975084 $521 61.562290315232957 $241 $523 forward 7 unknown #
coedge $-1 $242 $513 $519 $524 forward $362 $-1 #
vertex $-1 $370 $525 #
vertex $-1 $243 $526 #
straight-curve $-1 -20.967306460050892 37.063441354056565 11.697624251417224 0 -1 0 I I #
coedge $-1 $376 $376 $-1 $527 reversed $246 $-1 #
edge $-1 $528 0 $528 6.2831853071796004 $247 $529 forward 7 unknown #
vertex $-1 $250 $530 #
ellipse-curve $-1 -12.924465097343429 28.448242903939814 9.5970695815105866 0 0.66913061440640931 0.74314481823134659 1.5 0 0 1 I I #
coedge $-1 $380 $380 $-1 $531 reversed $253 $-1 #
edge $-1 $532 0 $532 6.2831853071796004 $254 $533 forward 7 unknown #
vertex $-1 $257 $534 #
ellipse-curve $-1 -0.86020305328223401 28.448242903939814 9.5970695815105866 0 0.66913061440640931 0.74314481823134659 1.5 0 0 1 I I #
face $-1 $-1 $397 $53 $-1 $535 reversed single #
loop $-1 $-1 $393 $258 #
plane-surface $-1 66.575518051698353 0 0 -1 0 0 0 0 1 forward_v I I I I #
coedge $-1 $536 $537 $389 $538 forward $259 $-1 #
coedge $-1 $389 $261 $263 $395 reversed $163 $-1 #
coedge $-1 $261 $388 $387 $538 reversed $163 $-1 #
coedge $-1 $539 $264 $261 $391 forward $397 $-1 #
edge $-1 $399 -66.323600376833923 $540 -62.122491037020644 $390 $541 forward 7 unknown #
coedge $-1 $263 $262 $536 $542 reversed $104 $-1 #
coedge $-1 $543 $544 $262 $394 forward $385 $-1 #
edge $-1 $545 33.432036288559232 $398 39.710495604817098 $393 $546 forward 7 unknown #
edge $-1 $547 55.283830998975084 $399 61.562290315232957 $388 $548 forward 7 unknown #
coedge $-1 $264 $539 $543 $549 forward $397 $-1 #
loop $-1 $-1 $390 $384 #
vertex $-1 $265 $550 #
vertex $-1 $265 $551 #
straight-curve $-1 26.250272833480146 30.781145157616493 7.4965149116039491 -1 0 0 I I #
coedge $-1 $401 $401 $-1 $552 reversed $268 $-1 #
edge $-1 $553 0 $553 6.2831853071796004 $269 $554 forward 7 unknown #
vertex $-1 $272 $555 #
ellipse-curve $-1 46.468414644929695 28.448242903939814 9.5970695815105866 0 0.66913061440640931 0.74314481823134659 1.5 0 0 1 I I #
coedge $-1 $405 $405 $-1 $556 reversed $275 $-1 #
edge $-1 $557 0 $557 6.2831853071796004 $276 $558 forward 7 unknown #
vertex $-1 $279 $559 #
ellipse-curve $-1 58.53267668899089 28.448242903939814 9.5970695815105866 0 0.66913061440640931 0.74314481823134659 1.5 0 0 1 I I #
face $-1 $-1 $295 $42 $-1 $560 reversed single #
loop $-1 $-1 $424 $280 #
plane-surface $-1 0 30.781145157616496 0 0 -1 0 0 0 -1 forward_v I I I I #
coedge $-1 $561 $414 $288 $423 reversed $281 $-1 #
coedge $-1 $428 $283 $284 $417 reversed $177 $-1 #
coedge $-1 $412 $562 $283 $415 reversed $281 $-1 #
edge $-1 $429 -11.697624251417217 $563 11.697624251417217 $414 $564 forward 7 unknown #
coedge $-1 $285 $284 $562 $565 forward $113 $-1 #
edge $-1 $421 -66.575518051698353 $563 66.575518051698353 $413 $566 forward 7 unknown #
coedge $-1 $425 $424 $285 $419 reversed $410 $-1 #
edge $-1 $567 -66.575518051698353 $420 66.575518051698353 $418 $568 forward 7 unknown #
vertex $-1 $287 $569 #
vertex $-1 $431 $570 #
straight-curve $-1 66.575518051698353 0 -11.697624251417217 0 -1 0 I I #
edge $-1 $426 -30.781145157616496 $429 30.781145157616496 $412 $571 forward 7 unknown #
coedge $-1 $418 $289 $294 $432 forward $410 $-1 #
coedge $-1 $289 $418 $561 $572 reversed $410 $-1 #
vertex $-1 $290 $573 #
straight-curve $-1 0 30.781145157616496 11.697624251417217 -1 0 0 I I #
coedge $-1 $291 $413 $293 $431 reversed $177 $-1 #
vertex $-1 $423 $574 #
straight-curve $-1 0 -30.781145157616496 11.697624251417217 1 0 0 I I #
edge $-1 $296 -11.697624251417217 $421 11.697624251417217 $293 $575 forward 7 unknown #
edge $-1 $297 -11.697624251417217 $420 11.697624251417217 $294 $576 forward 7 unknown #
point $-1 66.575518051698353 -30.781145157616496 11.697624251417217 #
point $-1 66.575518051698353 30.781145157616496 11.697624251417217 #
face $-1 $-1 $577 $43 $-1 $578 reversed single #
loop $-1 $-1 $307 $299 #
plane-surface $-1 0 0 -11.697624251417217 0 0 1 1 0 0 forward_v I I I I #
coedge $-1 $579 $302 $580 $581 reversed $185 $-1 #
coedge $-1 $302 $579 $442 $582 reversed $185 $-1 #
coedge $-1 $310 $309 $302 $441 reversed $300 $-1 #
edge $-1 $583 -11.697624251417217 $584 11.697624251417217 $440 $585 forward 7 unknown #
coedge $-1 $304 $303 $439 $582 forward $117 $-1 #
edge $-1 $312 -7.1826383094252293 $583 7.1826383094252293 $310 $586 forward 7 unknown #
coedge $-1 $587 $448 $304 $445 reversed $577 $-1 #
edge $-1 $588 -80.940794670548811 $446 -66.575518051698353 $444 $589 forward 7 unknown #
vertex $-1 $449 $590 #
straight-curve $-1 -66.575518051698353 0 11.697624251417217 0 1 0 I I #
coedge $-1 $444 $591 $306 $449 forward $577 $-1 #
edge $-1 $452 -11.697624251417217 $446 11.697624251417217 $448 $592 forward 7 unknown #
coedge $-1 $580 $307 $591 $593 forward $436 $-1 #
coedge $-1 $307 $580 $309 $454 forward $436 $-1 #
vertex $-1 $593 $594 #
straight-curve $-1 -66.575518051698353 0 -11.697624251417217 0 -1 0 I I #
edge $-1 $584 -7.1826383094252293 $311 7.1826383094252293 $309 $595 forward 7 unknown #
point $-1 -66.575518051698353 -27.33708069632549 -11.697624251417217 #
point $-1 -66.575518051698353 -27.33708069632549 11.697624251417217 #
loop $-1 $-1 $322 $314 #
plane-surface $-1 0 -30.781145157616496 0 0 1 0 0 0 1 forward_v I I I I #
coedge $-1 $460 $317 $319 $464 reversed $193 $-1 #
coedge $-1 $317 $459 $596 $597 reversed $193 $-1 #
coedge $-1 $325 $320 $317 $462 forward $315 $-1 #
edge $-1 $465 -33.822949226903049 $598 -29.157144719549667 $461 $599 forward 7 unknown #
coedge $-1 $319 $318 $468 $600 reversed $121 $-1 #
edge $-1 $601 1.4457923371621692e-014 $465 6.2784593162579201 $459 $602 forward 7 unknown #
vertex $-1 $321 $603 #
straight-curve $-1 -3.4461670376564157 -26.115340650263107 11.697624251417217 -1 0 0 I I #
coedge $-1 $596 $322 $325 $472 reversed $457 $-1 #
coedge $-1 $322 $596 $463 $600 forward $457 $-1 #
vertex $-1 $323 $604 #
straight-curve $-1 7.1826383094252293 -30.781145157616493 53.223508716989059 0 0 1 I I #
straight-curve $-1 7.1826383094252293 -30.781145157616507 7.49651491160391 0 -0.74314481823134659 -0.66913061440640931 I I #
edge $-1 $598 -20.967306460050892 $326 7.1826383094252293 $467 $605 forward 7 unknown #
point $-1 7.1826383094252293 -30.781145157616496 11.697624251417217 #
point $-1 7.1826383094252293 -26.115340650263111 11.697624251417217 #
edge $-1 $606 1 $606 0 $329 $-1 forward 7 unknown #
vertex $-1 $330 $607 #
ellipse-curve $-1 -12.924465097343429 -24.573137961437002 5.2933296298147452 0 -0.66913061440640931 0.74314481823134659 1.5 0 0 1 I I #
point $-1 -11.424465097343429 -28.448242903939796 9.59706958151056 #
edge $-1 $608 1 $608 0 $333 $-1 forward 7 unknown #
vertex $-1 $334 $609 #
ellipse-curve $-1 -0.86020305328223401 -24.573137961437002 5.2933296298147452 0 -0.66913061440640931 0.74314481823134659 1.5 0 0 1 I I #
point $-1 0.63979694671776599 -28.448242903939796 9.59706958151056 #
loop $-1 $-1 $346 $337 #
plane-surface $-1 66.575518051698353 0 0 -1 0 0 0 0 1 forward_v I I I I #
coedge $-1 $610 $340 $345 $491 forward $215 $-1 #
coedge $-1 $340 $610 $488 $611 reversed $215 $-1 #
edge $-1 $489 41.525884465571842 $496 45.726993805385142 $340 $612 forward 7 unknown #
coedge $-1 $349 $343 $486 $611 forward $338 $-1 #
vertex $-1 $611 $613 #
straight-curve $-1 38.425573282222231 -59.938289877166163 11.697624251417217 0 -1 0 I I #
edge $-1 $496 12.175300448742085 $494 40.325245218218207 $485 $614 forward 7 unknown #
coedge $-1 $493 $346 $349 $498 reversed $483 $-1 #
coedge $-1 $346 $492 $610 $615 forward $483 $-1 #
vertex $-1 $491 $616 #
straight-curve $-1 66.575518051698353 -24.145344642607593 13.471416662589419 0 0.74314481823134659 0.66913061440640931 I I #
vertex $-1 $491 $617 #
straight-curve $-1 38.425573282222231 -30.781145157616507 7.49651491160391 0 0.74314481823134659 0.66913061440640931 I I #
edge $-1 $618 -30.781145157616496 $350 -26.115340650263111 $492 $619 forward 7 unknown #
point $-1 66.575518051698353 -26.115340650263111 11.697624251417217 #
point $-1 38.425573282222231 -26.115340650263111 11.697624251417217 #
edge $-1 $620 1 $620 0 $353 $-1 forward 7 unknown #
vertex $-1 $354 $621 #
ellipse-curve $-1 46.468414644929695 -24.573137961437002 5.2933296298147452 0 -0.66913061440640931 0.74314481823134659 1.5 0 0 1 I I #
point $-1 47.968414644929695 -28.448242903939796 9.59706958151056 #
edge $-1 $622 1 $622 0 $357 $-1 forward 7 unknown #
vertex $-1 $358 $623 #
ellipse-curve $-1 58.53267668899089 -24.573137961437002 5.2933296298147452 0 -0.66913061440640931 0.74314481823134659 1.5 0 0 1 I I #
point $-1 60.03267668899089 -28.448242903939796 9.59706958151056 #
loop $-1 $-1 $369 $361 #
plane-surface $-1 0 30.781145157616496 0 0 -1 0 0 0 -1 forward_v I I I I #
coedge $-1 $512 $364 $366 $516 reversed $237 $-1 #
coedge $-1 $364 $511 $624 $625 reversed $237 $-1 #
coedge $-1 $372 $367 $364 $514 forward $362 $-1 #
edge $-1 $517 -10.948100703793429 $626 -6.2822961964400683 $513 $627 forward 7 unknown #
coedge $-1 $366 $365 $520 $628 reversed $149 $-1 #
edge $-1 $629 -61.562290315232957 $517 -55.283830998975084 $511 $630 forward 7 unknown #
vertex $-1 $368 $631 #
straight-curve $-1 -3.4461670376564157 26.115340650263139 11.697624251417214 1 0 0 I I #
coedge $-1 $624 $369 $372 $524 reversed $509 $-1 #
coedge $-1 $369 $624 $515 $628 forward $509 $-1 #
vertex $-1 $370 $632 #
straight-curve $-1 -20.967306460050892 30.781145157616496 73.820115288437862 0 0 1 I I #
straight-curve $-1 -20.967306460050892 -14.96855188860269 48.689728054501515 0 0.74314481823134659 -0.66913061440640931 I I #
edge $-1 $626 -7.1826383094252293 $373 20.967306460050892 $519 $633 forward 7 unknown #
point $-1 -20.967306460050892 30.781145157616496 11.697624251417217 #
point $-1 -20.967306460050892 26.115340650263136 11.697624251417217 #
edge $-1 $634 1 $634 0 $376 $-1 forward 7 unknown #
vertex $-1 $377 $635 #
ellipse-curve $-1 -12.924465097343429 24.573137961436998 5.2933296298147452 0 0.66913061440640931 0.74314481823134659 1.5 0 0 1 I I #
point $-1 -11.424465097343429 28.448242903939793 9.59706958151056 #
edge $-1 $636 1 $636 0 $380 $-1 forward 7 unknown #
vertex $-1 $381 $637 #
ellipse-curve $-1 -0.86020305328223401 24.573137961436998 5.2933296298147452 0 0.66913061440640931 0.74314481823134659 1.5 0 0 1 I I #
point $-1 0.63979694671776599 28.448242903939793 9.59706958151056 #
plane-surface $-1 0 30.781145157616496 0 0 -1 0 0 0 -1 forward_v I I I I #
coedge $-1 $638 $387 $392 $542 forward $259 $-1 #
coedge $-1 $387 $638 $539 $639 forward $259 $-1 #
edge $-1 $540 6.2822961964400683 $547 10.948100703793429 $387 $640 forward 7 unknown #
coedge $-1 $396 $390 $537 $639 reversed $397 $-1 #
vertex $-1 $391 $641 #
straight-curve $-1 38.425573282222231 30.781145157616496 73.820115288437862 0 0 1 I I #
edge $-1 $547 12.175300448742085 $545 40.325245218218207 $536 $642 forward 7 unknown #
coedge $-1 $544 $393 $396 $549 reversed $385 $-1 #
coedge $-1 $393 $543 $638 $643 reversed $385 $-1 #
vertex $-1 $643 $644 #
straight-curve $-1 66.575518051698353 1.2704961194980022 34.068023234038229 0 0.74314481823134659 -0.66913061440640931 I I #
vertex $-1 $542 $645 #
straight-curve $-1 38.425573282222231 -14.96855188860269 48.689728054501515 0 0.74314481823134659 -0.66913061440640931 I I #
edge $-1 $646 -11.697624251417217 $398 -7.4965149116039465 $543 $647 forward 7 unknown #
point $-1 66.575518051698353 30.781145157616496 7.4965149116039465 #
point $-1 38.425573282222231 30.781145157616493 7.4965149116039456 #
edge $-1 $648 1 $648 0 $401 $-1 forward 7 unknown #
vertex $-1 $402 $649 #
ellipse-curve $-1 46.468414644929695 24.573137961436998 5.2933296298147452 0 0.66913061440640931 0.74314481823134659 1.5 0 0 1 I I #
point $-1 47.968414644929695 28.448242903939793 9.59706958151056 #
edge $-1 $650 1 $650 0 $405 $-1 forward 7 unknown #
vertex $-1 $406 $651 #
ellipse-curve $-1 58.53267668899089 24.573137961436998 5.2933296298147452 0 0.66913061440640931 0.74314481823134659 1.5 0 0 1 I I #
point $-1 60.03267668899089 28.448242903939793 9.59706958151056 #
plane-surface $-1 66.575518051698353 0 0 -1 0 0 0 0 1 forward_v I I I I #
coedge $-1 $562 $412 $425 $572 forward $281 $-1 #
coedge $-1 $414 $561 $416 $565 reversed $281 $-1 #
vertex $-1 $565 $652 #
straight-curve $-1 -66.575518051698353 -30.781145157616496 0 0 0 -1 I I #
edge $-1 $563 -30.781145157616496 $567 30.781145157616496 $562 $653 forward 7 unknown #
straight-curve $-1 0 -30.781145157616496 -11.697624251417217 -1 0 0 I I #
vertex $-1 $419 $654 #
straight-curve $-1 0 30.781145157616496 -11.697624251417217 1 0 0 I I #
point $-1 66.575518051698353 30.781145157616496 -11.697624251417217 #
point $-1 66.575518051698353 -30.781145157616496 -11.697624251417217 #
straight-curve $-1 -66.575518051698353 0 11.697624251417217 0 -1 0 I I #
edge $-1 $426 -11.697624251417217 $567 11.697624251417217 $425 $655 forward 7 unknown #
point $-1 -66.575518051698353 30.781145157616496 11.697624251417217 #
point $-1 -66.575518051698353 -30.781145157616496 11.697624251417217 #
straight-curve $-1 66.575518051698353 -30.781145157616496 0 0 0 -1 I I #
straight-curve $-1 66.575518051698353 30.781145157616496 0 0 0 -1 I I #
loop $-1 $-1 $448 $435 #
plane-surface $-1 0 -30.781145157616496 0 0 1 0 0 0 1 forward_v I I I I #
coedge $-1 $439 $438 $587 $656 reversed $185 $-1 #
coedge $-1 $451 $450 $438 $581 forward $436 $-1 #
edge $-1 $657 -1.7220322306455031 $584 1.7220322306455031 $438 $658 forward 7 unknown #
edge $-1 $583 -1.7220322306455031 $588 1.7220322306455031 $439 $659 forward 7 unknown #
vertex $-1 $443 $660 #
vertex $-1 $454 $661 #
straight-curve $-1 -80.940794670548811 -27.33708069632549 0 0 0 -1 I I #
straight-curve $-1 -73.758156361123582 -27.33708069632549 11.697624251417217 -1 0 0 I I #
coedge $-1 $591 $444 $579 $656 forward $577 $-1 #
vertex $-1 $582 $662 #
straight-curve $-1 0 -30.781145157616496 11.697624251417217 1 0 0 I I #
point $-1 -66.575518051698353 -30.781145157616496 11.697624251417217 #
coedge $-1 $448 $587 $450 $593 reversed $577 $-1 #
straight-curve $-1 -66.575518051698353 -30.781145157616496 0 0 0 1 I I #
edge $-1 $452 -7.1826383094252293 $657 7.1826383094252293 $591 $663 forward 7 unknown #
point $-1 -66.575518051698353 -30.781145157616496 -11.697624251417217 #
straight-curve $-1 -73.758156361123582 -27.33708069632549 -11.697624251417217 1 0 0 I I #
coedge $-1 $468 $467 $460 $597 forward $457 $-1 #
edge $-1 $598 41.525884465571842 $601 45.726993805385142 $596 $664 forward 7 unknown #
vertex $-1 $472 $665 #
straight-curve $-1 -20.967306460050892 -59.938289877166163 11.697624251417217 0 -1 0 I I #
edge $-1 $601 -17.521139422394477 $469 10.628805347081645 $468 $666 forward 7 unknown #
vertex $-1 $600 $667 #
straight-curve $-1 -20.967306460050892 -30.781145157616507 7.49651491160391 0 0.74314481823134659 0.66913061440640931 I I #
point $-1 -20.967306460050892 -26.115340650263111 11.697624251417217 #
point $-1 7.1826383094252293 -30.781145157616496 7.4965149116039198 #
straight-curve $-1 0 -30.781145157616496 11.697624251417217 1 0 0 I I #
vertex $-1 $475 $668 #
point $-1 -11.424465097343429 -24.573137961437002 5.2933296298147452 #
vertex $-1 $479 $669 #
point $-1 0.63979694671776599 -24.573137961437002 5.2933296298147452 #
coedge $-1 $486 $485 $493 $615 reversed $215 $-1 #
edge $-1 $489 38.425573282222231 $618 66.575518051698353 $486 $670 forward 7 unknown #
straight-curve $-1 38.425573282222231 -30.781145157616493 53.223508716989059 0 0 -1 I I #
point $-1 38.425573282222231 -30.781145157616496 11.697624251417217 #
straight-curve $-1 26.250272833480146 -30.781145157616496 7.4965149116039171 1 0 0 I I #
edge $-1 $618 -11.697624251417217 $494 -7.4965149116039198 $493 $671 forward 7 unknown #
point $-1 66.575518051698353 -30.781145157616496 7.4965149116039198 #
point $-1 38.425573282222231 -30.781145157616496 7.4965149116039198 #
vertex $-1 $498 $672 #
straight-curve $-1 66.575518051698353 0 11.697624251417217 0 1 0 I I #
vertex $-1 $501 $673 #
point $-1 47.968414644929695 -24.573137961437002 5.2933296298147452 #
vertex $-1 $505 $674 #
point $-1 60.03267668899089 -24.573137961437002 5.2933296298147452 #
coedge $-1 $520 $519 $512 $625 forward $509 $-1 #
edge $-1 $626 62.122491037020644 $629 66.323600376833923 $624 $675 forward 7 unknown #
vertex $-1 $524 $676 #
straight-curve $-1 7.1826383094252293 37.063441354056565 11.697624251417224 0 1 0 I I #
edge $-1 $629 -10.628805347081645 $521 17.521139422394477 $520 $677 forward 7 unknown #
vertex $-1 $628 $678 #
straight-curve $-1 7.1826383094252293 -14.96855188860269 48.689728054501515 0 -0.74314481823134659 0.66913061440640931 I I #
point $-1 7.1826383094252293 26.115340650263136 11.697624251417217 #
point $-1 -20.967306460050892 30.781145157616493 7.4965149116039456 #
straight-curve $-1 0 30.781145157616496 11.697624251417217 -1 0 0 I I #
vertex $-1 $527 $679 #
point $-1 -11.424465097343429 24.573137961436998 5.2933296298147452 #
vertex $-1 $531 $680 #
point $-1 0.63979694671776599 24.573137961436998 5.2933296298147452 #
coedge $-1 $537 $536 $544 $643 forward $259 $-1 #
edge $-1 $646 -66.575518051698353 $540 -38.425573282222231 $539 $681 forward 7 unknown #
straight-curve $-1 38.425573282222231 37.063441354056565 11.697624251417224 0 -1 0 I I #
point $-1 38.425573282222231 30.781145157616496 11.697624251417217 #
straight-curve $-1 26.250272833480146 26.115340650263139 11.697624251417214 1 0 0 I I #
edge $-1 $545 26.115340650263136 $646 30.781145157616496 $544 $682 forward 7 unknown #
point $-1 66.575518051698353 26.115340650263136 11.697624251417217 #
point $-1 38.425573282222231 26.115340650263136 11.697624251417217 #
vertex $-1 $643 $683 #
straight-curve $-1 66.575518051698353 30.781145157616496 0 0 0 -1 I I #
vertex $-1 $552 $684 #
point $-1 47.968414644929695 24.573137961436998 5.2933296298147452 #
vertex $-1 $556 $685 #
point $-1 60.03267668899089 24.573137961436998 5.2933296298147452 #
point $-1 -66.575518051698353 -30.781145157616496 -11.697624251417217 #
straight-curve $-1 -66.575518051698353 0 -11.697624251417217 0 1 0 I I #
point $-1 -66.575518051698353 30.781145157616496 -11.697624251417217 #
straight-curve $-1 -66.575518051698353 30.781145157616496 0 0 0 -1 I I #
edge $-1 $588 -11.697624251417217 $657 11.697624251417217 $579 $686 forward 7 unknown #
vertex $-1 $581 $687 #
straight-curve $-1 -80.940794670548811 -29.059112926970993 -11.697624251417217 0 1 0 I I #
straight-curve $-1 -80.940794670548811 -29.059112926970993 11.697624251417217 0 -1 0 I I #
point $-1 -80.940794670548811 -27.33708069632549 11.697624251417217 #
point $-1 -80.940794670548811 -27.33708069632549 -11.697624251417217 #
point $-1 -80.940794670548811 -30.781145157616496 11.697624251417217 #
straight-curve $-1 -73.758156361123582 -30.781145157616496 -11.697624251417217 -1 0 0 I I #
straight-curve $-1 -20.967306460050892 -30.781145157616493 53.223508716989059 0 0 -1 I I #
point $-1 -20.967306460050892 -30.781145157616496 11.697624251417217 #
straight-curve $-1 -3.4461670376564157 -30.781145157616496 7.4965149116039171 1 0 0 I I #
point $-1 -20.967306460050892 -30.781145157616496 7.4965149116039198 #
point $-1 -12.924465097343429 -23.56944203982739 4.1786124024677251 #
point $-1 -0.86020305328223401 -23.56944203982739 4.1786124024677251 #
straight-curve $-1 0 -30.781145157616496 11.697624251417217 1 0 0 I I #
straight-curve $-1 66.575518051698353 -30.781145157616496 0 0 0 -1 I I #
point $-1 66.575518051698353 -30.781145157616496 11.697624251417217 #
point $-1 46.468414644929695 -23.56944203982739 4.1786124024677251 #
point $-1 58.53267668899089 -23.56944203982739 4.1786124024677251 #
straight-curve $-1 7.1826383094252293 30.781145157616496 73.820115288437862 0 0 -1 I I #
point $-1 7.1826383094252293 30.781145157616496 11.697624251417217 #
straight-curve $-1 -3.4461670376564157 30.781145157616493 7.4965149116039491 -1 0 0 I I #
point $-1 7.1826383094252293 30.781145157616493 7.4965149116039456 #
point $-1 -12.924465097343429 23.569442039827386 4.1786124024677251 #
point $-1 -0.86020305328223401 23.569442039827386 4.1786124024677251 #
straight-curve $-1 0 30.781145157616496 11.697624251417217 -1 0 0 I I #
straight-curve $-1 66.575518051698353 0 11.697624251417217 0 1 0 I I #
point $-1 66.575518051698353 30.781145157616496 11.697624251417217 #
point $-1 46.468414644929695 23.569442039827386 4.1786124024677251 #
point $-1 58.53267668899089 23.569442039827386 4.1786124024677251 #
straight-curve $-1 -80.940794670548811 -30.781145157616496 0 0 0 -1 I I #
point $-1 -80.940794670548811 -30.781145157616496 -11.697624251417217 #
End-of-ACIS-data 