500 0 5 0           
7 Unknown 11 ACIS 5.0 NT 24 Fri Mar 26 17:13:05 1999 
-1 9.9999999999999995e-007 1e-010 
body $-1 $5 $-1 $6 #
body $-1 $7 $-1 $8 #
body $-1 $9 $-1 $10 #
body $-1 $11 $-1 $12 #
body $-1 $13 $-1 $14 #
lump $-1 $-1 $15 $0 #
transform $-1 1 0 0 0 1 0 0 0 1 63.178197576830343 41.636258118018283 15.596792097042867 1 rotate no_reflect no_shear #
lump $-1 $-1 $16 $1 #
transform $-1 1 0 0 0 1 0 0 0 1 63.178197576830343 41.636258118018283 15.596792097042867 1 rotate no_reflect no_shear #
lump $-1 $-1 $17 $2 #
transform $-1 1 0 0 0 1 0 0 0 1 63.178197576830343 41.636258118018283 15.596792097042867 1 rotate no_reflect no_shear #
lump $-1 $-1 $18 $3 #
transform $-1 1 0 0 0 1 0 0 0 1 63.178197576830343 41.636258118018283 15.596792097042867 1 rotate no_reflect no_shear #
lump $-1 $-1 $19 $4 #
transform $-1 1 0 0 0 1 0 0 0 1 63.178197576830343 41.636258118018283 15.596792097042867 1 rotate no_reflect no_shear #
shell $-1 $-1 $-1 $20 $-1 $5 #
shell $-1 $-1 $-1 $21 $-1 $7 #
shell $-1 $-1 $-1 $22 $-1 $9 #
shell $-1 $-1 $-1 $23 $-1 $11 #
shell $-1 $-1 $-1 $24 $-1 $13 #
face $-1 $25 $26 $15 $-1 $27 forward single #
face $-1 $28 $29 $16 $-1 $30 forward single #
face $-1 $31 $32 $17 $-1 $33 reversed single #
face $-1 $34 $35 $18 $-1 $36 forward single #
face $-1 $37 $38 $19 $-1 $39 forward single #
face $-1 $40 $41 $15 $-1 $42 reversed single #
loop $-1 $-1 $43 $20 #
plane-surface $-1 0 0 15.596792097042867 0 0 1 1 0 0 forward_v I I I I #
face $-1 $44 $45 $16 $-1 $46 forward single #
loop $-1 $-1 $47 $21 #
plane-surface $-1 -63.178197576830343 0 0 1 0 0 0 0 -1 forward_v I I I I #
face $-1 $48 $49 $17 $-1 $50 reversed single #
loop $-1 $-1 $51 $22 #
plane-surface $-1 41.400765803650913 -14.85606000418872 189.08824026748189 0 -1 0 -0.61566148304635926 0 -0.78801074757464917 forward_v I I I I #
face $-1 $52 $53 $18 $-1 $54 forward single #
loop $-1 $55 $56 $23 #
cone-surface $-1 60.179247722249222 -31.904001012579943 12.993809583291748 -0.61566148304635926 0 -0.78801074757464917 0.78801074757464917 0 -0.61566148304635926 1 I I 0 1 1 forward I I I I #
face $-1 $57 $58 $19 $-1 $59 forward single #
loop $-1 $60 $61 $24 #
cone-surface $-1 60.179247722249222 -21.67523640754521 12.993809583291748 -0.61566148304635926 0 -0.78801074757464917 0.78801074757464917 0 -0.61566148304635926 1 I I 0 1 1 forward I I I I #
face $-1 $62 $63 $15 $-1 $64 reversed single #
loop $-1 $-1 $65 $25 #
plane-surface $-1 0 0 -15.596792097042867 0 0 1 1 0 0 forward_v I I I I #
coedge $-1 $66 $67 $68 $69 forward $26 $-1 #
face $-1 $70 $71 $16 $-1 $72 reversed single #
loop $-1 $-1 $73 $28 #
plane-surface $-1 0 0 15.596792097042867 0 0 1 1 0 0 forward_v I I I I #
coedge $-1 $74 $75 $76 $77 forward $29 $-1 #
face $-1 $78 $79 $17 $-1 $80 reversed single #
loop $-1 $-1 $81 $31 #
plane-surface $-1 -36.391999829043613 -26.789618710062577 89.518042861607967 0.61566148304635926 0 0.78801074757464917 0.78801074757464917 0 -0.61566148304635926 forward_v I I I I #
coedge $-1 $82 $83 $84 $85 reversed $32 $-1 #
face $-1 $-1 $86 $18 $-1 $87 forward single #
loop $-1 $88 $89 $34 #
cone-surface $-1 59.350123605794565 -31.904001012579943 11.932579129818008 -0.61566148304635926 0 -0.78801074757464917 0.39400537378732459 0 -0.30783074152317963 1 I I -0.70710678118654879 0.70710678118654635 0.5 forward I I I I #
loop $-1 $-1 $90 $23 #
coedge $-1 $56 $56 $91 $92 reversed $35 $-1 #
face $-1 $-1 $93 $19 $-1 $94 forward single #
loop $-1 $95 $96 $37 #
cone-surface $-1 59.350123605794565 -21.67523640754521 11.932579129818008 -0.61566148304635926 0 -0.78801074757464917 0.39400537378732459 0 -0.30783074152317963 1 I I -0.70710678118654879 0.70710678118654635 0.5 forward I I I I #
loop $-1 $-1 $97 $24 #
coedge $-1 $61 $61 $98 $99 reversed $38 $-1 #
face $-1 $100 $101 $15 $-1 $102 reversed single #
loop $-1 $-1 $103 $40 #
plane-surface $-1 0 -41.636258118018283 0 0 1 0 0 0 1 forward_v I I I I #
coedge $-1 $104 $105 $106 $107 forward $41 $-1 #
coedge $-1 $108 $43 $109 $110 forward $26 $-1 #
coedge $-1 $43 $108 $111 $112 forward $26 $-1 #
coedge $-1 $113 $114 $43 $69 reversed $115 $-1 #
edge $-1 $116 -41.636258118018283 $117 41.636258118018283 $68 $118 forward 7 unknown #
face $-1 $119 $120 $16 $-1 $121 reversed single #
loop $-1 $-1 $122 $44 #
plane-surface $-1 -76.680848901064479 -37.505561945120313 0 1 0 0 0 0 -1 forward_v I I I I #
coedge $-1 $123 $124 $74 $125 forward $45 $-1 #
coedge $-1 $126 $47 $73 $125 reversed $29 $-1 #
coedge $-1 $47 $126 $127 $128 reversed $29 $-1 #
coedge $-1 $129 $130 $47 $77 reversed $120 $-1 #
edge $-1 $131 -15.596792097042867 $132 15.596792097042867 $76 $133 forward 7 unknown #
face $-1 $134 $135 $17 $-1 $136 forward single #
loop $-1 $-1 $137 $48 #
plane-surface $-1 41.400765803650913 -38.723177415936433 189.08824026748189 0 1 0 0.61566148304635926 0 0.78801074757464917 forward_v I I I I #
coedge $-1 $138 $139 $140 $141 reversed $49 $-1 #
coedge $-1 $83 $51 $142 $143 reversed $32 $-1 #
coedge $-1 $51 $82 $138 $144 reversed $32 $-1 #
coedge $-1 $140 $145 $51 $85 forward $135 $-1 #
edge $-1 $146 -42.477814675004886 $147 -37.522501715705566 $84 $148 forward 7 unknown #
loop $-1 $-1 $91 $52 #
plane-surface $-1 -36.391999829043613 -26.789618710062577 89.518042861607967 0.61566148304635926 0 0.78801074757464917 0.78801074757464917 0 -0.61566148304635926 forward_v I I I I #
loop $-1 $-1 $149 $34 #
coedge $-1 $89 $89 $90 $150 reversed $53 $-1 #
coedge $-1 $90 $90 $89 $150 forward $55 $-1 #
coedge $-1 $91 $91 $56 $92 forward $86 $-1 #
edge $-1 $151 0 $151 6.2831853071796004 $91 $152 forward 7 unknown #
loop $-1 $-1 $98 $57 #
plane-surface $-1 -36.391999829043613 -26.789618710062577 89.518042861607967 0.61566148304635926 0 0.78801074757464917 0.78801074757464917 0 -0.61566148304635926 forward_v I I I I #
loop $-1 $-1 $153 $37 #
coedge $-1 $96 $96 $97 $154 reversed $58 $-1 #
coedge $-1 $97 $97 $96 $154 forward $60 $-1 #
coedge $-1 $98 $98 $61 $99 forward $93 $-1 #
edge $-1 $155 0 $155 6.2831853071796004 $98 $156 forward 7 unknown #
face $-1 $157 $158 $15 $-1 $159 reversed single #
loop $-1 $-1 $160 $62 #
plane-surface $-1 -63.178197576830343 0 0 1 0 0 0 0 -1 forward_v I I I I #
coedge $-1 $161 $111 $162 $163 forward $63 $-1 #
coedge $-1 $164 $65 $161 $165 forward $41 $-1 #
coedge $-1 $65 $164 $166 $167 forward $41 $-1 #
coedge $-1 $114 $113 $65 $107 reversed $115 $-1 #
edge $-1 $168 -41.636258118018283 $169 41.636258118018283 $106 $170 forward 7 unknown #
coedge $-1 $67 $66 $171 $172 forward $26 $-1 #
coedge $-1 $173 $174 $66 $110 reversed $158 $-1 #
edge $-1 $117 -63.178197576830343 $175 63.178197576830343 $109 $176 forward 7 unknown #
coedge $-1 $103 $177 $67 $112 reversed $63 $-1 #
edge $-1 $178 -63.178197576830343 $116 63.178197576830343 $111 $179 forward 7 unknown #
coedge $-1 $106 $68 $177 $180 forward $115 $-1 #
coedge $-1 $68 $106 $173 $181 reversed $115 $-1 #
loop $-1 $-1 $113 $157 #
vertex $-1 $69 $182 #
vertex $-1 $69 $183 #
straight-curve $-1 63.178197576830343 0 15.596792097042867 0 1 0 I I #
face $-1 $184 $185 $16 $-1 $186 reversed single #
loop $-1 $-1 $76 $70 #
plane-surface $-1 -69.929523238947411 -33.374865772222343 0 0 -1 0 0 0 -1 forward_v I I I I #
coedge $-1 $187 $188 $189 $190 forward $71 $-1 #
coedge $-1 $191 $73 $130 $192 forward $45 $-1 #
coedge $-1 $73 $191 $193 $194 forward $45 $-1 #
edge $-1 $195 -41.636258118018283 $132 -33.374865772222343 $73 $196 forward 7 unknown #
coedge $-1 $75 $74 $197 $198 reversed $29 $-1 #
coedge $-1 $199 $200 $75 $128 forward $185 $-1 #
edge $-1 $131 33.374865772222343 $201 41.636258118018283 $127 $202 forward 7 unknown #
coedge $-1 $189 $76 $200 $203 reversed $120 $-1 #
coedge $-1 $76 $189 $123 $192 reversed $120 $-1 #
vertex $-1 $128 $204 #
vertex $-1 $192 $205 #
straight-curve $-1 -63.178197576830343 -33.374865772222343 0 0 0 1 I I #
face $-1 $-1 $206 $17 $-1 $207 reversed single #
loop $-1 $-1 $84 $78 #
plane-surface $-1 0 0 15.596792097042867 0 0 1 1 0 0 forward_v I I I I #
coedge $-1 $208 $209 $210 $211 reversed $79 $-1 #
coedge $-1 $212 $81 $83 $144 forward $49 $-1 #
coedge $-1 $81 $212 $208 $213 forward $49 $-1 #
coedge $-1 $210 $84 $81 $141 forward $135 $-1 #
edge $-1 $147 1.4612506491574315 $214 25.328368060905145 $140 $215 forward 7 unknown #
coedge $-1 $216 $217 $82 $143 forward $206 $-1 #
edge $-1 $218 -82.818842904827534 $146 -78.947328036698082 $142 $219 forward 7 unknown #
edge $-1 $147 120.06801269878829 $218 126.35639515366071 $83 $220 forward 7 unknown #
coedge $-1 $84 $210 $216 $221 forward $135 $-1 #
vertex $-1 $85 $222 #
vertex $-1 $85 $223 #
straight-curve $-1 20.700382901825456 -14.85606000418872 15.596792097042865 -1 0 0 I I #
coedge $-1 $149 $149 $-1 $224 reversed $88 $-1 #
edge $-1 $225 0 $225 6.2831853071796004 $89 $226 forward 7 unknown #
vertex $-1 $92 $227 #
ellipse-curve $-1 60.700541097180682 -31.904001012579943 13.661034662978146 0.61566148304635926 0 0.78801074757464917 0.78801074757464917 0 -0.61566148304635926 1 I I #
coedge $-1 $153 $153 $-1 $228 reversed $95 $-1 #
edge $-1 $229 0 $229 6.2831853071796004 $96 $230 forward 7 unknown #
vertex $-1 $99 $231 #
ellipse-curve $-1 60.700541097180682 -21.67523640754521 13.661034662978146 0.61566148304635926 0 0.78801074757464917 0.78801074757464917 0 -0.61566148304635926 1 I I #
face $-1 $-1 $115 $15 $-1 $232 reversed single #
loop $-1 $-1 $173 $100 #
plane-surface $-1 0 41.636258118018283 0 0 -1 0 0 0 -1 forward_v I I I I #
coedge $-1 $233 $171 $174 $234 forward $101 $-1 #
coedge $-1 $177 $103 $104 $165 reversed $63 $-1 #
coedge $-1 $171 $233 $103 $163 reversed $101 $-1 #
edge $-1 $178 -15.596792097042867 $235 15.596792097042867 $162 $236 forward 7 unknown #
coedge $-1 $105 $104 $233 $237 forward $41 $-1 #
edge $-1 $169 -63.178197576830343 $235 63.178197576830343 $161 $238 forward 7 unknown #
coedge $-1 $174 $173 $105 $167 reversed $158 $-1 #
edge $-1 $239 -63.178197576830343 $168 63.178197576830343 $166 $240 forward 7 unknown #
vertex $-1 $107 $241 #
vertex $-1 $180 $242 #
straight-curve $-1 63.178197576830343 0 -15.596792097042867 0 -1 0 I I #
coedge $-1 $160 $162 $108 $172 reversed $101 $-1 #
edge $-1 $175 -41.636258118018283 $178 41.636258118018283 $171 $243 forward 7 unknown #
coedge $-1 $166 $109 $114 $181 forward $158 $-1 #
coedge $-1 $109 $166 $160 $234 reversed $158 $-1 #
vertex $-1 $110 $244 #
straight-curve $-1 0 41.636258118018283 15.596792097042867 -1 0 0 I I #
coedge $-1 $111 $161 $113 $180 reversed $63 $-1 #
vertex $-1 $172 $245 #
straight-curve $-1 0 -41.636258118018283 15.596792097042867 1 0 0 I I #
edge $-1 $116 -15.596792097042867 $169 15.596792097042867 $113 $246 forward 7 unknown #
edge $-1 $117 -15.596792097042867 $168 15.596792097042867 $114 $247 forward 7 unknown #
point $-1 63.178197576830343 -41.636258118018283 15.596792097042867 #
point $-1 63.178197576830343 41.636258118018283 15.596792097042867 #
face $-1 $-1 $248 $16 $-1 $249 reversed single #
loop $-1 $-1 $127 $119 #
plane-surface $-1 0 0 -15.596792097042867 0 0 1 1 0 0 forward_v I I I I #
coedge $-1 $250 $122 $251 $252 reversed $71 $-1 #
coedge $-1 $122 $250 $191 $253 reversed $71 $-1 #
coedge $-1 $130 $129 $122 $190 reversed $120 $-1 #
edge $-1 $254 -15.596792097042867 $255 15.596792097042867 $189 $256 forward 7 unknown #
coedge $-1 $124 $123 $188 $253 forward $45 $-1 #
edge $-1 $132 -6.7513256621170612 $254 6.7513256621170683 $130 $257 forward 7 unknown #
coedge $-1 $258 $197 $124 $194 reversed $248 $-1 #
edge $-1 $259 -76.680848901064479 $195 -63.178197576830343 $193 $260 forward 7 unknown #
vertex $-1 $198 $261 #
straight-curve $-1 -63.178197576830343 0 15.596792097042867 0 1 0 I I #
coedge $-1 $193 $262 $126 $198 forward $248 $-1 #
edge $-1 $201 -15.596792097042867 $195 15.596792097042867 $197 $263 forward 7 unknown #
coedge $-1 $251 $127 $262 $264 forward $185 $-1 #
coedge $-1 $127 $251 $129 $203 forward $185 $-1 #
vertex $-1 $264 $265 #
straight-curve $-1 -63.178197576830343 0 -15.596792097042867 0 -1 0 I I #
edge $-1 $255 -6.7513256621170683 $131 6.7513256621170612 $129 $266 forward 7 unknown #
point $-1 -63.17819757683035 -33.374865772222343 -15.596792097042867 #
point $-1 -63.17819757683035 -33.374865772222343 15.596792097042867 #
loop $-1 $-1 $142 $134 #
plane-surface $-1 63.178197576830343 0 0 -1 0 0 0 0 1 forward_v I I I I #
coedge $-1 $209 $137 $139 $213 reversed $79 $-1 #
coedge $-1 $137 $208 $267 $268 reversed $79 $-1 #
coedge $-1 $145 $140 $137 $211 forward $135 $-1 #
edge $-1 $214 37.522501715705566 $269 42.477814675004886 $210 $270 forward 7 unknown #
coedge $-1 $139 $138 $217 $271 reversed $49 $-1 #
edge $-1 $272 -126.35639515366071 $214 -120.06801269878829 $208 $273 forward 7 unknown #
vertex $-1 $141 $274 #
straight-curve $-1 58.222884617531037 -13.394809355031288 15.596792097042865 0 -1 0 I I #
coedge $-1 $267 $142 $145 $221 reversed $206 $-1 #
coedge $-1 $142 $267 $212 $271 forward $206 $-1 #
vertex $-1 $143 $275 #
straight-curve $-1 63.178197576830343 -14.85606000418872 94.544120133740947 0 0 1 I I #
straight-curve $-1 -36.391999829043613 -14.85606000418872 89.518042861607967 0.78801074757464917 0 -0.61566148304635926 I I #
edge $-1 $269 -38.723177415936433 $146 -14.85606000418872 $216 $276 forward 7 unknown #
point $-1 63.178197576830343 -14.85606000418872 15.596792097042867 #
point $-1 58.222884617531022 -14.85606000418872 15.596792097042865 #
edge $-1 $277 1 $277 0 $149 $-1 forward 7 unknown #
vertex $-1 $150 $278 #
ellipse-curve $-1 59.657954347317741 -31.904001012579943 12.32658450360533 0.61566148304635926 0 0.78801074757464917 0.78801074757464917 0 -0.61566148304635926 1 I I #
point $-1 61.488551844755349 -31.904001012579943 13.045373179931808 #
edge $-1 $279 1 $279 0 $153 $-1 forward 7 unknown #
vertex $-1 $154 $280 #
ellipse-curve $-1 59.657954347317741 -21.67523640754521 12.32658450360533 0.61566148304635926 0 0.78801074757464917 0.78801074757464917 0 -0.61566148304635926 1 I I #
point $-1 61.488551844755349 -21.67523640754521 13.045373179931808 #
plane-surface $-1 63.178197576830343 0 0 -1 0 0 0 0 1 forward_v I I I I #
coedge $-1 $162 $160 $164 $237 reversed $101 $-1 #
edge $-1 $175 -15.596792097042867 $239 15.596792097042867 $174 $281 forward 7 unknown #
vertex $-1 $237 $282 #
straight-curve $-1 -63.178197576830343 -41.636258118018283 0 0 0 -1 I I #
edge $-1 $235 -41.636258118018283 $239 41.636258118018283 $233 $283 forward 7 unknown #
straight-curve $-1 0 -41.636258118018283 -15.596792097042867 -1 0 0 I I #
vertex $-1 $167 $284 #
straight-curve $-1 0 41.636258118018283 -15.596792097042867 1 0 0 I I #
point $-1 63.178197576830343 41.636258118018283 -15.596792097042867 #
point $-1 63.178197576830343 -41.636258118018283 -15.596792097042867 #
straight-curve $-1 -63.178197576830343 0 15.596792097042867 0 -1 0 I I #
point $-1 -63.178197576830343 41.636258118018283 15.596792097042867 #
point $-1 -63.178197576830343 -41.636258118018283 15.596792097042867 #
straight-curve $-1 63.178197576830343 -41.636258118018283 0 0 0 -1 I I #
straight-curve $-1 63.178197576830343 41.636258118018283 0 0 0 -1 I I #
loop $-1 $-1 $197 $184 #
plane-surface $-1 0 -41.636258118018283 0 0 1 0 0 0 1 forward_v I I I I #
coedge $-1 $188 $187 $258 $285 reversed $71 $-1 #
coedge $-1 $200 $199 $187 $252 forward $185 $-1 #
edge $-1 $286 -4.1306961728979701 $255 4.1306961728979701 $187 $287 forward 7 unknown #
edge $-1 $254 -4.1306961728979701 $259 4.1306961728979701 $188 $288 forward 7 unknown #
vertex $-1 $192 $289 #
vertex $-1 $203 $290 #
straight-curve $-1 -76.680848901064479 -33.374865772222343 0 0 0 -1 I I #
straight-curve $-1 -69.929523238947411 -33.374865772222343 15.596792097042867 -1 0 0 I I #
coedge $-1 $262 $193 $250 $285 forward $248 $-1 #
vertex $-1 $253 $291 #
straight-curve $-1 0 -41.636258118018283 15.596792097042867 1 0 0 I I #
point $-1 -63.178197576830343 -41.636258118018283 15.596792097042867 #
coedge $-1 $197 $258 $199 $264 reversed $248 $-1 #
straight-curve $-1 -63.178197576830343 -41.636258118018283 0 0 0 1 I I #
edge $-1 $201 -6.7513256621170683 $286 6.7513256621170683 $262 $292 forward 7 unknown #
point $-1 -63.178197576830343 -41.636258118018283 -15.596792097042867 #
straight-curve $-1 -69.929523238947411 -33.374865772222343 -15.596792097042867 1 0 0 I I #
coedge $-1 $217 $216 $209 $268 forward $206 $-1 #
edge $-1 $269 78.947328036698082 $272 82.818842904827534 $267 $293 forward 7 unknown #
vertex $-1 $221 $294 #
straight-curve $-1 20.700382901825456 -38.723177415936433 15.596792097042865 1 0 0 I I #
edge $-1 $272 -25.328368060905145 $218 -1.4612506491574315 $217 $295 forward 7 unknown #
vertex $-1 $271 $296 #
straight-curve $-1 -36.391999829043613 -38.723177415936433 89.518042861607967 -0.78801074757464917 0 0.61566148304635926 I I #
point $-1 58.222884617531022 -38.723177415936433 15.596792097042865 #
point $-1 63.178197576830343 -14.85606000418872 11.725277228913413 #
straight-curve $-1 63.178197576830343 0 15.596792097042867 0 1 0 I I #
vertex $-1 $224 $297 #
point $-1 60.445965094892394 -31.904001012579943 11.710923020558971 #
vertex $-1 $228 $298 #
point $-1 60.445965094892394 -21.67523640754521 11.710923020558971 #
straight-curve $-1 -63.178197576830343 41.636258118018283 0 0 0 -1 I I #
point $-1 -63.178197576830343 -41.636258118018283 -15.596792097042867 #
straight-curve $-1 -63.178197576830343 0 -15.596792097042867 0 1 0 I I #
point $-1 -63.178197576830343 41.636258118018283 -15.596792097042867 #
edge $-1 $259 -15.596792097042867 $286 15.596792097042867 $250 $299 forward 7 unknown #
vertex $-1 $252 $300 #
straight-curve $-1 -76.680848901064479 -37.505561945120313 -15.596792097042867 0 1 0 I I #
straight-curve $-1 -76.680848901064479 -37.505561945120313 15.596792097042867 0 -1 0 I I #
point $-1 -76.680848901064479 -33.374865772222343 15.596792097042867 #
point $-1 -76.680848901064479 -33.374865772222343 -15.596792097042867 #
point $-1 -76.680848901064479 -41.636258118018283 15.596792097042867 #
straight-curve $-1 -69.929523238947411 -41.636258118018283 -15.596792097042867 -1 0 0 I I #
straight-curve $-1 63.178197576830343 -38.723177415936433 94.544120133740947 0 0 -1 I I #
point $-1 63.178197576830343 -38.723177415936433 15.596792097042867 #
straight-curve $-1 63.17819757683035 -13.394809355031288 11.725277228913406 0 1 0 I I #
point $-1 63.178197576830343 -38.723177415936433 11.725277228913413 #
point $-1 59.042292864271388 -31.904001012579943 11.538573756030685 #
point $-1 59.042292864271388 -21.67523640754521 11.538573756030685 #
straight-curve $-1 -76.680848901064479 -41.636258118018283 0 0 0 -1 I I #
point $-1 -76.680848901064479 -41.636258118018283 -15.596792097042867 #
End-of-ACIS-data 