500 0 9 0           
7 Unknown 11 ACIS 5.0 NT 24 Fri Mar 26 17:25:54 1999 
-1 9.9999999999999995e-007 1e-010 
body $-1 $9 $-1 $10 #
body $-1 $11 $-1 $12 #
body $-1 $13 $-1 $14 #
body $-1 $15 $-1 $16 #
body $-1 $17 $-1 $18 #
body $-1 $19 $-1 $20 #
body $-1 $21 $-1 $22 #
body $-1 $23 $-1 $24 #
body $-1 $25 $-1 $26 #
lump $-1 $-1 $27 $0 #
transform $-1 1 0 0 0 1 0 0 0 1 69.812921536912143 32.613523784355458 8.5304564637042422 1 rotate no_reflect no_shear #
lump $-1 $-1 $28 $1 #
transform $-1 1 0 0 0 1 0 0 0 1 69.812921536912143 32.613523784355458 8.5304564637042422 1 rotate no_reflect no_shear #
lump $-1 $-1 $29 $2 #
transform $-1 1 0 0 0 1 0 0 0 1 69.812921536912143 32.613523784355458 8.5304564637042422 1 rotate no_reflect no_shear #
lump $-1 $-1 $30 $3 #
transform $-1 1 0 0 0 1 0 0 0 1 69.812921536912143 32.613523784355458 8.5304564637042422 1 rotate no_reflect no_shear #
lump $-1 $-1 $31 $4 #
transform $-1 1 0 0 0 1 0 0 0 1 69.812921536912143 32.613523784355458 8.5304564637042422 1 rotate no_reflect no_shear #
lump $-1 $-1 $32 $5 #
transform $-1 1 0 0 0 1 0 0 0 1 69.812921536912143 32.613523784355458 8.5304564637042422 1 rotate no_reflect no_shear #
lump $-1 $-1 $33 $6 #
transform $-1 1 0 0 0 1 0 0 0 1 69.812921536912143 32.613523784355458 8.5304564637042422 1 rotate no_reflect no_shear #
lump $-1 $-1 $34 $7 #
transform $-1 1 0 0 0 1 0 0 0 1 69.812921536912143 32.613523784355458 8.5304564637042422 1 rotate no_reflect no_shear #
lump $-1 $-1 $35 $8 #
transform $-1 1 0 0 0 1 0 0 0 1 69.812921536912143 32.613523784355458 8.5304564637042422 1 rotate no_reflect no_shear #
shell $-1 $-1 $-1 $36 $-1 $9 #
shell $-1 $-1 $-1 $37 $-1 $11 #
shell $-1 $-1 $-1 $38 $-1 $13 #
shell $-1 $-1 $-1 $39 $-1 $15 #
shell $-1 $-1 $-1 $40 $-1 $17 #
shell $-1 $-1 $-1 $41 $-1 $19 #
shell $-1 $-1 $-1 $42 $-1 $21 #
shell $-1 $-1 $-1 $43 $-1 $23 #
shell $-1 $-1 $-1 $44 $-1 $25 #
face $-1 $45 $46 $27 $-1 $47 forward single #
face $-1 $48 $49 $28 $-1 $50 forward single #
face $-1 $51 $52 $29 $-1 $53 reversed single #
face $-1 $54 $55 $30 $-1 $56 forward single #
face $-1 $57 $58 $31 $-1 $59 forward single #
face $-1 $60 $61 $32 $-1 $62 reversed single #
face $-1 $63 $64 $33 $-1 $65 forward single #
face $-1 $66 $67 $34 $-1 $68 forward single #
face $-1 $69 $70 $35 $-1 $71 forward single #
face $-1 $72 $73 $27 $-1 $74 reversed single #
loop $-1 $-1 $75 $36 #
plane-surface $-1 0 0 8.5304564637042422 0 0 1 1 0 0 forward_v I I I I #
face $-1 $76 $77 $28 $-1 $78 reversed single #
loop $-1 $-1 $79 $37 #
plane-surface $-1 -69.812921536912143 0 0 1 0 0 0 0 -1 forward_v I I I I #
face $-1 $80 $81 $29 $-1 $82 reversed single #
loop $-1 $-1 $83 $38 #
plane-surface $-1 -59.516223727639961 64.549818800813995 154.37703036273291 1 0 0 0 -0.6018150307709319 -0.79863550430605224 forward_v I I I I #
face $-1 $84 $85 $30 $-1 $86 forward single #
loop $-1 $87 $88 $39 #
cone-surface $-1 -53.466145884296154 28.333290488268947 4.7218877567151241 0 -0.6018150307709319 -0.79863550430605224 1 0 0 1 I I 0 1 1 forward I I I I #
face $-1 $89 $90 $31 $-1 $91 forward single #
loop $-1 $92 $93 $40 #
cone-surface $-1 -44.391029119280446 28.333290488268947 4.7218877567151241 0 -0.6018150307709319 -0.79863550430605224 1 0 0 1 I I 0 1 1 forward I I I I #
face $-1 $94 $95 $32 $-1 $96 reversed single #
loop $-1 $-1 $97 $41 #
plane-surface $-1 17.372261321709843 -131.34390539626969 100.68267247909385 -1 0 0 0 -0.70710678939079041 0.70710677298230451 forward_v I I I I #
face $-1 $98 $99 $33 $-1 $100 forward single #
loop $-1 $101 $102 $42 #
cone-surface $-1 5.9692547048676374 -28.820078064698027 4.7370106794271534 0 0.70710678939079041 -0.70710677298230451 1 0 0 1 I I 0 1 1 forward I I I I #
face $-1 $103 $104 $34 $-1 $105 forward single #
loop $-1 $106 $107 $43 #
cone-surface $-1 10.245382186183463 -28.820078064698027 4.7370106794271534 0 0.70710678939079041 -0.70710677298230451 1 0 0 1 I I 0 1 1 forward I I I I #
face $-1 $108 $109 $35 $-1 $110 forward single #
loop $-1 $111 $112 $44 #
cone-surface $-1 14.521509667499288 -28.820078064698027 4.7370106794271534 0 0.70710678939079041 -0.70710677298230451 1 0 0 1 I I 0 1 1 forward I I I I #
face $-1 $113 $114 $27 $-1 $115 reversed single #
loop $-1 $-1 $116 $45 #
plane-surface $-1 0 0 -8.5304564637042422 0 0 1 1 0 0 forward_v I I I I #
coedge $-1 $117 $118 $119 $120 forward $46 $-1 #
face $-1 $121 $122 $28 $-1 $123 forward single #
loop $-1 $-1 $124 $48 #
plane-surface $-1 0 32.613523784355458 0 0 -1 0 0 0 -1 forward_v I I I I #
coedge $-1 $125 $126 $127 $128 forward $49 $-1 #
face $-1 $129 $130 $29 $-1 $131 reversed single #
loop $-1 $-1 $132 $51 #
plane-surface $-1 -48.9285875017883 -19.479112245076877 42.866874765311536 0 0.6018150307709319 0.79863550430605224 1 0 0 forward_v I I I I #
coedge $-1 $133 $134 $135 $136 reversed $52 $-1 #
face $-1 $-1 $137 $30 $-1 $138 forward single #
loop $-1 $139 $140 $54 #
cone-surface $-1 -53.466145884296154 27.015485093654554 2.9731009665997217 0 -0.6018150307709319 -0.79863550430605224 0.5 0 0 1 I I -0.70710678118654746 0.70710678118654746 0.5 forward I I I I #
loop $-1 $-1 $141 $39 #
coedge $-1 $88 $88 $142 $143 reversed $55 $-1 #
face $-1 $-1 $144 $31 $-1 $145 forward single #
loop $-1 $146 $147 $57 #
cone-surface $-1 -44.391029119280446 27.015485093654554 2.9731009665997217 0 -0.6018150307709319 -0.79863550430605224 0.5 0 0 1 I I -0.70710678118654746 0.70710678118654746 0.5 forward I I I I #
loop $-1 $-1 $148 $40 #
coedge $-1 $93 $93 $149 $150 reversed $58 $-1 #
face $-1 $151 $152 $32 $-1 $153 reversed single #
loop $-1 $-1 $154 $60 #
plane-surface $-1 10.245382186183463 -32.613523784355465 1.952293158228315 0 -0.70710678939079041 0.70710677298230451 1 0 0 forward_v I I I I #
coedge $-1 $155 $156 $157 $158 reversed $61 $-1 #
face $-1 $-1 $159 $33 $-1 $160 forward single #
loop $-1 $161 $162 $63 #
cone-surface $-1 5.9692547048676374 -27.962160526759689 3.8790931613968791 0 0.70710678939079041 -0.70710677298230451 0.5 0 0 1 I I -0.70710678118654746 0.70710678118654746 0.5 forward I I I I #
loop $-1 $-1 $163 $42 #
coedge $-1 $102 $102 $164 $165 reversed $64 $-1 #
face $-1 $-1 $166 $34 $-1 $167 forward single #
loop $-1 $168 $169 $66 #
cone-surface $-1 10.245382186183463 -27.962160526759689 3.8790931613968791 0 0.70710678939079041 -0.70710677298230451 0.5 0 0 1 I I -0.70710678118654746 0.70710678118654746 0.5 forward I I I I #
loop $-1 $-1 $170 $43 #
coedge $-1 $107 $107 $171 $172 reversed $67 $-1 #
face $-1 $-1 $173 $35 $-1 $174 forward single #
loop $-1 $175 $176 $69 #
cone-surface $-1 14.521509667499288 -27.962160526759689 3.8790931613968791 0 0.70710678939079041 -0.70710677298230451 0.5 0 0 1 I I -0.70710678118654746 0.70710678118654746 0.5 forward I I I I #
loop $-1 $-1 $177 $44 #
coedge $-1 $112 $112 $178 $179 reversed $70 $-1 #
face $-1 $180 $181 $27 $-1 $182 reversed single #
loop $-1 $-1 $183 $72 #
plane-surface $-1 0 -32.613523784355458 0 0 1 0 0 0 1 forward_v I I I I #
coedge $-1 $184 $185 $186 $187 forward $73 $-1 #
coedge $-1 $188 $75 $189 $190 forward $46 $-1 #
coedge $-1 $75 $188 $191 $192 forward $46 $-1 #
coedge $-1 $193 $194 $75 $120 reversed $195 $-1 #
edge $-1 $196 -32.613523784355458 $197 32.613523784355458 $119 $198 forward 7 unknown #
face $-1 $199 $200 $28 $-1 $201 reversed single #
loop $-1 $-1 $127 $76 #
plane-surface $-1 -72.6686940547593 0 -5.5226810888526963 0 0 1 1 0 0 forward_v I I I I #
coedge $-1 $202 $203 $126 $204 forward $77 $-1 #
coedge $-1 $205 $79 $206 $207 reversed $49 $-1 #
coedge $-1 $79 $205 $124 $204 reversed $49 $-1 #
coedge $-1 $208 $209 $79 $128 reversed $122 $-1 #
edge $-1 $210 -32.613523784355458 $211 32.613523784355458 $127 $212 forward 7 unknown #
face $-1 $213 $214 $29 $-1 $215 forward single #
loop $-1 $-1 $216 $80 #
plane-surface $-1 -38.340951275936639 64.549818800813995 154.37703036273291 -1 0 0 0 0.6018150307709319 0.79863550430605224 forward_v I I I I #
coedge $-1 $217 $218 $219 $220 reversed $81 $-1 #
coedge $-1 $134 $83 $221 $222 reversed $52 $-1 #
coedge $-1 $83 $133 $217 $223 reversed $52 $-1 #
coedge $-1 $219 $224 $83 $136 forward $214 $-1 #
edge $-1 $225 -0.33861438394846033 $226 6.1880564497667621 $135 $227 forward 7 unknown #
loop $-1 $-1 $142 $84 #
plane-surface $-1 -48.9285875017883 -19.479112245076877 42.866874765311536 0 0.6018150307709319 0.79863550430605224 1 0 0 forward_v I I I I #
loop $-1 $-1 $228 $54 #
coedge $-1 $140 $140 $141 $229 reversed $85 $-1 #
coedge $-1 $141 $141 $140 $229 forward $87 $-1 #
coedge $-1 $142 $142 $88 $143 forward $137 $-1 #
edge $-1 $230 -6.1519137525989308e-016 $230 6.2831853071795996 $142 $231 forward 7 unknown #
loop $-1 $-1 $149 $89 #
plane-surface $-1 -48.9285875017883 -19.479112245076877 42.866874765311536 0 0.6018150307709319 0.79863550430605224 1 0 0 forward_v I I I I #
loop $-1 $-1 $232 $57 #
coedge $-1 $147 $147 $148 $233 reversed $90 $-1 #
coedge $-1 $148 $148 $147 $233 forward $92 $-1 #
coedge $-1 $149 $149 $93 $150 forward $144 $-1 #
edge $-1 $234 -6.1519137525989308e-016 $234 6.2831853071795996 $149 $235 forward 7 unknown #
face $-1 $236 $237 $32 $-1 $238 reversed single #
loop $-1 $-1 $239 $94 #
plane-surface $-1 3.1185030506570826 -131.34390539626969 100.68267247909385 1 0 0 0 0.70710678939079041 -0.70710677298230451 forward_v I I I I #
coedge $-1 $240 $241 $242 $243 reversed $95 $-1 #
coedge $-1 $156 $97 $244 $245 reversed $61 $-1 #
coedge $-1 $97 $155 $240 $246 reversed $61 $-1 #
coedge $-1 $242 $247 $97 $158 forward $248 $-1 #
edge $-1 $249 33.058428913779387 $250 39.636592066608351 $157 $251 forward 7 unknown #
loop $-1 $-1 $164 $98 #
plane-surface $-1 10.245382186183463 -32.613523784355465 1.952293158228315 0 -0.70710678939079041 0.70710677298230451 1 0 0 forward_v I I I I #
loop $-1 $-1 $252 $63 #
coedge $-1 $162 $162 $163 $253 reversed $99 $-1 #
coedge $-1 $163 $163 $162 $253 forward $101 $-1 #
coedge $-1 $164 $164 $102 $165 forward $159 $-1 #
edge $-1 $254 -1.2560740398153353e-015 $254 6.2831853071795996 $164 $255 forward 7 unknown #
loop $-1 $-1 $171 $103 #
plane-surface $-1 10.245382186183463 -32.613523784355465 1.952293158228315 0 -0.70710678939079041 0.70710677298230451 1 0 0 forward_v I I I I #
loop $-1 $-1 $256 $66 #
coedge $-1 $169 $169 $170 $257 reversed $104 $-1 #
coedge $-1 $170 $170 $169 $257 forward $106 $-1 #
coedge $-1 $171 $171 $107 $172 forward $166 $-1 #
edge $-1 $258 -1.2560740398153353e-015 $258 6.2831853071795996 $171 $259 forward 7 unknown #
loop $-1 $-1 $178 $108 #
plane-surface $-1 10.245382186183463 -32.613523784355465 1.952293158228315 0 -0.70710678939079041 0.70710677298230451 1 0 0 forward_v I I I I #
loop $-1 $-1 $260 $69 #
coedge $-1 $176 $176 $177 $261 reversed $109 $-1 #
coedge $-1 $177 $177 $176 $261 forward $111 $-1 #
coedge $-1 $178 $178 $112 $179 forward $173 $-1 #
edge $-1 $262 -1.2560740398153353e-015 $262 6.2831853071795996 $178 $263 forward 7 unknown #
face $-1 $264 $265 $27 $-1 $266 reversed single #
loop $-1 $-1 $267 $113 #
plane-surface $-1 -69.812921536912143 0 0 1 0 0 0 0 -1 forward_v I I I I #
coedge $-1 $268 $191 $267 $269 forward $114 $-1 #
coedge $-1 $270 $116 $268 $271 forward $73 $-1 #
coedge $-1 $116 $270 $272 $273 forward $73 $-1 #
coedge $-1 $194 $193 $116 $187 reversed $195 $-1 #
edge $-1 $274 -32.613523784355458 $275 32.613523784355458 $186 $276 forward 7 unknown #
coedge $-1 $118 $117 $277 $278 forward $46 $-1 #
coedge $-1 $279 $280 $117 $190 reversed $265 $-1 #
edge $-1 $197 -69.812921536912143 $281 69.812921536912143 $189 $282 forward 7 unknown #
coedge $-1 $183 $283 $118 $192 reversed $114 $-1 #
edge $-1 $284 -69.812921536912143 $196 69.812921536912143 $191 $285 forward 7 unknown #
coedge $-1 $186 $119 $283 $286 forward $195 $-1 #
coedge $-1 $119 $186 $279 $287 reversed $195 $-1 #
loop $-1 $-1 $193 $264 #
vertex $-1 $120 $288 #
vertex $-1 $120 $289 #
straight-curve $-1 69.812921536912143 0 8.5304564637042422 0 1 0 I I #
face $-1 $290 $291 $28 $-1 $292 reversed single #
loop $-1 $-1 $293 $121 #
plane-surface $-1 -75.524466572606457 0 -7.0265687762784692 1 0 0 0 0 -1 forward_v I I I I #
coedge $-1 $294 $124 $295 $296 reversed $77 $-1 #
coedge $-1 $124 $294 $208 $297 reversed $77 $-1 #
edge $-1 $210 5.5226810888526963 $298 8.5304564637042422 $124 $299 forward 7 unknown #
coedge $-1 $126 $125 $300 $301 reversed $49 $-1 #
coedge $-1 $302 $303 $125 $207 forward $304 $-1 #
edge $-1 $305 -8.5304564637042422 $211 -5.5226810888526963 $206 $306 forward 7 unknown #
coedge $-1 $307 $127 $203 $297 forward $122 $-1 #
coedge $-1 $127 $307 $302 $308 forward $122 $-1 #
vertex $-1 $204 $309 #
vertex $-1 $308 $310 #
straight-curve $-1 -69.812921536912143 0 -5.5226810888526963 0 -1 0 I I #
face $-1 $-1 $311 $29 $-1 $312 reversed single #
loop $-1 $-1 $135 $129 #
plane-surface $-1 0 0 8.5304564637042422 0 0 1 1 0 0 forward_v I I I I #
coedge $-1 $313 $314 $315 $316 reversed $130 $-1 #
coedge $-1 $317 $132 $134 $223 forward $81 $-1 #
coedge $-1 $132 $317 $313 $318 forward $81 $-1 #
coedge $-1 $315 $135 $132 $220 forward $214 $-1 #
edge $-1 $226 -35.051929976745811 $319 -13.876657525042489 $219 $320 forward 7 unknown #
coedge $-1 $321 $322 $133 $222 forward $311 $-1 #
edge $-1 $323 -73.576258055715741 $225 -68.658058717662215 $221 $324 forward 7 unknown #
edge $-1 $226 57.054770230018946 $323 65.227047568710958 $134 $325 forward 7 unknown #
coedge $-1 $135 $315 $321 $326 forward $214 $-1 #
vertex $-1 $222 $327 #
vertex $-1 $136 $328 #
straight-curve $-1 -59.516223727639961 32.274909400406997 8.5304564637042404 0 -1 0 I I #
coedge $-1 $228 $228 $-1 $329 reversed $139 $-1 #
edge $-1 $330 0 $330 6.2831853071796004 $140 $331 forward 7 unknown #
vertex $-1 $143 $332 #
ellipse-curve $-1 -53.466145884296154 29.35018836749785 6.0713567946774711 0 0.6018150307709319 0.79863550430605224 1 0 0 1 I I #
coedge $-1 $232 $232 $-1 $333 reversed $146 $-1 #
edge $-1 $334 0 $334 6.2831853071796004 $147 $335 forward 7 unknown #
vertex $-1 $150 $336 #
ellipse-curve $-1 -44.391029119280446 29.35018836749785 6.0713567946774711 0 0.6018150307709319 0.79863550430605224 1 0 0 1 I I #
face $-1 $-1 $248 $32 $-1 $337 forward single #
loop $-1 $-1 $338 $151 #
plane-surface $-1 0 -32.613523784355458 0 0 1 0 0 0 1 forward_v I I I I #
coedge $-1 $339 $340 $341 $342 reversed $152 $-1 #
coedge $-1 $343 $154 $156 $246 forward $95 $-1 #
coedge $-1 $154 $343 $339 $344 forward $95 $-1 #
coedge $-1 $341 $157 $154 $243 forward $248 $-1 #
edge $-1 $250 -12.249570228618111 $345 2.0041880424346488 $242 $346 forward 7 unknown #
coedge $-1 $347 $348 $155 $245 forward $237 $-1 #
edge $-1 $349 -48.389043081318604 $249 -41.810879775842686 $244 $350 forward 7 unknown #
edge $-1 $250 -9.3029276541713894 $349 -1.0048591735576163e-014 $156 $351 forward 7 unknown #
coedge $-1 $157 $341 $347 $352 forward $248 $-1 #
loop $-1 $-1 $341 $236 #
vertex $-1 $245 $353 #
vertex $-1 $158 $354 #
straight-curve $-1 17.372261321709843 -65.671952698134845 8.5304564637042404 0 1 0 I I #
coedge $-1 $252 $252 $-1 $355 reversed $161 $-1 #
edge $-1 $356 0 $356 6.2831853071796004 $162 $357 forward 7 unknown #
vertex $-1 $165 $358 #
ellipse-curve $-1 5.9692547048676374 -29.324442207940976 5.2413748109662812 0 -0.70710678939079041 0.70710677298230451 1 0 0 1 I I #
coedge $-1 $256 $256 $-1 $359 reversed $168 $-1 #
edge $-1 $360 0 $360 6.2831853071796004 $169 $361 forward 7 unknown #
vertex $-1 $172 $362 #
ellipse-curve $-1 10.245382186183463 -29.324442207940976 5.2413748109662812 0 -0.70710678939079041 0.70710677298230451 1 0 0 1 I I #
coedge $-1 $260 $260 $-1 $363 reversed $175 $-1 #
edge $-1 $364 0 $364 6.2831853071796004 $176 $365 forward 7 unknown #
vertex $-1 $179 $366 #
ellipse-curve $-1 14.521509667499288 -29.324442207940976 5.2413748109662812 0 -0.70710678939079041 0.70710677298230451 1 0 0 1 I I #
face $-1 $-1 $195 $27 $-1 $367 reversed single #
loop $-1 $-1 $279 $180 #
plane-surface $-1 0 32.613523784355458 0 0 -1 0 0 0 -1 forward_v I I I I #
coedge $-1 $277 $368 $183 $269 reversed $181 $-1 #
coedge $-1 $283 $183 $184 $271 reversed $114 $-1 #
edge $-1 $284 -8.5304564637042422 $369 8.5304564637042422 $267 $370 forward 7 unknown #
coedge $-1 $185 $184 $368 $371 forward $73 $-1 #
edge $-1 $275 -69.812921536912143 $369 69.812921536912143 $268 $372 forward 7 unknown #
coedge $-1 $280 $279 $185 $273 reversed $265 $-1 #
edge $-1 $373 -69.812921536912143 $274 69.812921536912143 $272 $374 forward 7 unknown #
vertex $-1 $187 $375 #
vertex $-1 $286 $376 #
straight-curve $-1 69.812921536912143 0 -8.5304564637042422 0 -1 0 I I #
coedge $-1 $377 $267 $188 $278 reversed $181 $-1 #
edge $-1 $281 -32.613523784355458 $284 32.613523784355458 $277 $378 forward 7 unknown #
coedge $-1 $272 $189 $194 $287 forward $265 $-1 #
coedge $-1 $189 $272 $377 $379 reversed $265 $-1 #
vertex $-1 $190 $380 #
straight-curve $-1 0 32.613523784355458 8.5304564637042422 -1 0 0 I I #
coedge $-1 $191 $268 $193 $286 reversed $114 $-1 #
vertex $-1 $278 $381 #
straight-curve $-1 0 -32.613523784355458 8.5304564637042422 1 0 0 I I #
edge $-1 $196 -8.5304564637042422 $275 8.5304564637042422 $193 $382 forward 7 unknown #
edge $-1 $197 -8.5304564637042422 $274 8.5304564637042422 $194 $383 forward 7 unknown #
point $-1 69.812921536912143 -32.613523784355458 8.5304564637042422 #
point $-1 69.812921536912143 32.613523784355458 8.5304564637042422 #
face $-1 $-1 $304 $28 $-1 $384 reversed single #
loop $-1 $-1 $300 $199 #
plane-surface $-1 0 0 -8.5304564637042422 0 0 1 1 0 0 forward_v I I I I #
coedge $-1 $385 $386 $294 $387 forward $200 $-1 #
coedge $-1 $203 $202 $293 $387 reversed $77 $-1 #
coedge $-1 $300 $388 $202 $296 forward $291 $-1 #
edge $-1 $389 -75.524466572606457 $298 -69.812921536912143 $202 $390 forward 7 unknown #
edge $-1 $210 -2.8557725178471571 $391 2.8557725178471571 $203 $392 forward 7 unknown #
vertex $-1 $204 $393 #
straight-curve $-1 -69.812921536912143 32.613523784355458 0 0 0 -1 I I #
coedge $-1 $394 $295 $205 $301 forward $291 $-1 #
edge $-1 $298 -32.613523784355458 $305 32.613523784355458 $300 $395 forward 7 unknown #
coedge $-1 $396 $206 $209 $308 reversed $304 $-1 #
coedge $-1 $206 $396 $394 $397 reversed $304 $-1 #
loop $-1 $-1 $206 $290 #
vertex $-1 $397 $398 #
straight-curve $-1 -69.812921536912143 -32.613523784355458 0 0 0 1 I I #
coedge $-1 $209 $208 $386 $399 forward $122 $-1 #
edge $-1 $400 -2.8557725178471571 $211 2.8557725178471571 $302 $401 forward 7 unknown #
point $-1 -69.812921536912143 32.613523784355458 -5.5226810888526963 #
point $-1 -69.812921536912143 -32.613523784355458 -5.5226810888526963 #
loop $-1 $-1 $221 $213 #
plane-surface $-1 0 32.613523784355458 0 0 -1 0 0 0 -1 forward_v I I I I #
coedge $-1 $314 $216 $218 $318 reversed $130 $-1 #
coedge $-1 $216 $313 $402 $403 reversed $130 $-1 #
coedge $-1 $224 $219 $216 $316 forward $214 $-1 #
edge $-1 $319 -6.1880564497667621 $404 0.33861438394846033 $315 $405 forward 7 unknown #
coedge $-1 $218 $217 $322 $406 reversed $81 $-1 #
edge $-1 $407 -65.227047568710958 $319 -57.054770230018946 $313 $408 forward 7 unknown #
vertex $-1 $220 $409 #
straight-curve $-1 -24.46429375089415 26.086852950640228 8.5304564637042439 1 0 0 I I #
coedge $-1 $402 $221 $224 $326 reversed $311 $-1 #
coedge $-1 $221 $402 $317 $406 forward $311 $-1 #
vertex $-1 $222 $410 #
straight-curve $-1 -59.516223727639961 32.613523784355458 77.188515181366455 0 0 1 I I #
straight-curve $-1 -59.516223727639961 -19.479112245076877 42.866874765311536 0 0.79863550430605224 -0.6018150307709319 I I #
edge $-1 $404 38.340951275936639 $225 59.516223727639961 $321 $411 forward 7 unknown #
point $-1 -59.516223727639961 32.613523784355458 8.5304564637042422 #
point $-1 -59.516223727639961 26.086852950640235 8.5304564637042404 #
edge $-1 $412 1 $412 0 $228 $-1 forward 7 unknown #
vertex $-1 $229 $413 #
ellipse-curve $-1 -53.466145884296154 27.316392609040019 3.3724187187527477 0 0.6018150307709319 0.79863550430605224 1 0 0 1 I I #
point $-1 -52.466145884296154 29.350188367497871 6.0713567946775004 #
edge $-1 $414 1 $414 0 $232 $-1 forward 7 unknown #
vertex $-1 $233 $415 #
ellipse-curve $-1 -44.391029119280446 27.316392609040019 3.3724187187527477 0 0.6018150307709319 0.79863550430605224 1 0 0 1 I I #
point $-1 -43.391029119280446 29.350188367497871 6.0713567946775004 #
plane-surface $-1 0 0 8.5304564637042422 0 0 1 1 0 0 forward_v I I I I #
coedge $-1 $348 $347 $340 $416 forward $237 $-1 #
coedge $-1 $340 $239 $241 $344 reversed $152 $-1 #
coedge $-1 $239 $339 $338 $416 reversed $152 $-1 #
coedge $-1 $247 $242 $239 $342 forward $248 $-1 #
edge $-1 $345 -39.636592066608351 $417 -33.058428913779387 $341 $418 forward 7 unknown #
coedge $-1 $241 $240 $348 $419 reversed $95 $-1 #
edge $-1 $420 1.0048591735576163e-014 $345 9.3029276541713894 $339 $421 forward 7 unknown #
vertex $-1 $243 $422 #
straight-curve $-1 5.1226910930917313 -26.035360631526498 8.5304564637042422 -1 0 0 I I #
coedge $-1 $338 $244 $247 $352 reversed $237 $-1 #
coedge $-1 $244 $338 $343 $419 forward $237 $-1 #
vertex $-1 $245 $423 #
straight-curve $-1 17.372261321709843 -32.613523784355458 50.341336239546926 0 0 1 I I #
straight-curve $-1 17.372261321709843 -32.613523784355465 1.952293158228315 0 -0.70710677298230451 -0.70710678939079041 I I #
edge $-1 $417 3.1185030506570826 $249 17.372261321709843 $347 $424 forward 7 unknown #
point $-1 17.372261321709843 -32.613523784355458 8.5304564637042422 #
point $-1 17.372261321709843 -26.035360631526494 8.5304564637042422 #
edge $-1 $425 1 $425 0 $252 $-1 forward 7 unknown #
vertex $-1 $253 $426 #
ellipse-curve $-1 5.9692547048676374 -28.315713921455085 4.2326465478880317 0 -0.70710678939079041 0.70710677298230451 1 0 0 1 I I #
point $-1 6.9692547048676374 -29.324442207940972 5.2413748109662759 #
edge $-1 $427 1 $427 0 $256 $-1 forward 7 unknown #
vertex $-1 $257 $428 #
ellipse-curve $-1 10.245382186183463 -28.315713921455085 4.2326465478880317 0 -0.70710678939079041 0.70710677298230451 1 0 0 1 I I #
point $-1 11.245382186183463 -29.324442207940972 5.2413748109662759 #
edge $-1 $429 1 $429 0 $260 $-1 forward 7 unknown #
vertex $-1 $261 $430 #
ellipse-curve $-1 14.521509667499288 -28.315713921455085 4.2326465478880317 0 -0.70710678939079041 0.70710677298230451 1 0 0 1 I I #
point $-1 15.521509667499288 -29.324442207940972 5.2413748109662759 #
plane-surface $-1 69.812921536912143 0 0 -1 0 0 0 0 1 forward_v I I I I #
coedge $-1 $267 $377 $270 $371 reversed $181 $-1 #
vertex $-1 $371 $431 #
straight-curve $-1 -69.812921536912143 -32.613523784355458 0 0 0 -1 I I #
edge $-1 $369 -32.613523784355458 $373 32.613523784355458 $368 $432 forward 7 unknown #
straight-curve $-1 0 -32.613523784355458 -8.5304564637042422 -1 0 0 I I #
vertex $-1 $273 $433 #
straight-curve $-1 0 32.613523784355458 -8.5304564637042422 1 0 0 I I #
point $-1 69.812921536912143 32.613523784355458 -8.5304564637042422 #
point $-1 69.812921536912143 -32.613523784355458 -8.5304564637042422 #
coedge $-1 $368 $277 $280 $379 forward $181 $-1 #
straight-curve $-1 -69.812921536912143 0 8.5304564637042422 0 -1 0 I I #
edge $-1 $281 -8.5304564637042422 $373 8.5304564637042422 $280 $434 forward 7 unknown #
point $-1 -69.812921536912143 32.613523784355458 8.5304564637042422 #
point $-1 -69.812921536912143 -32.613523784355458 8.5304564637042422 #
straight-curve $-1 69.812921536912143 -32.613523784355458 0 0 0 -1 I I #
straight-curve $-1 69.812921536912143 32.613523784355458 0 0 0 -1 I I #
plane-surface $-1 0 -32.613523784355458 0 0 1 0 0 0 1 forward_v I I I I #
coedge $-1 $435 $293 $388 $436 reversed $200 $-1 #
coedge $-1 $293 $435 $307 $399 reversed $200 $-1 #
edge $-1 $391 -1.5038876874257729 $389 1.5038876874257729 $294 $437 forward 7 unknown #
coedge $-1 $295 $394 $385 $436 forward $291 $-1 #
vertex $-1 $296 $438 #
straight-curve $-1 0 32.613523784355458 -8.5304564637042422 1 0 0 I I #
vertex $-1 $297 $439 #
straight-curve $-1 -72.6686940547593 32.613523784355458 -5.5226810888526963 -1 0 0 I I #
point $-1 -69.812921536912143 32.613523784355458 -8.5304564637042422 #
coedge $-1 $388 $300 $303 $397 forward $291 $-1 #
straight-curve $-1 -69.812921536912143 0 -8.5304564637042422 0 -1 0 I I #
coedge $-1 $303 $302 $435 $440 forward $304 $-1 #
edge $-1 $305 -2.8557725178471571 $441 2.8557725178471571 $303 $442 forward 7 unknown #
point $-1 -69.812921536912143 -32.613523784355458 -8.5304564637042422 #
edge $-1 $391 -32.613523784355458 $400 32.613523784355458 $386 $443 forward 7 unknown #
vertex $-1 $399 $444 #
straight-curve $-1 -72.6686940547593 -32.613523784355458 -5.5226810888526963 1 0 0 I I #
coedge $-1 $322 $321 $314 $403 forward $311 $-1 #
edge $-1 $404 68.658058717662215 $407 73.576258055715741 $402 $445 forward 7 unknown #
vertex $-1 $326 $446 #
straight-curve $-1 -38.340951275936639 32.274909400406997 8.5304564637042404 0 1 0 I I #
edge $-1 $407 13.876657525042489 $323 35.051929976745811 $322 $447 forward 7 unknown #
vertex $-1 $406 $448 #
straight-curve $-1 -38.340951275936639 -19.479112245076877 42.866874765311536 0 -0.79863550430605224 0.6018150307709319 I I #
point $-1 -38.340951275936639 26.086852950640235 8.5304564637042404 #
point $-1 -59.516223727639961 32.613523784355458 3.6122571256507143 #
straight-curve $-1 0 32.613523784355458 8.5304564637042422 -1 0 0 I I #
vertex $-1 $329 $449 #
point $-1 -52.466145884296154 27.316392609040019 3.3724187187527477 #
vertex $-1 $333 $450 #
point $-1 -43.391029119280446 27.316392609040019 3.3724187187527477 #
edge $-1 $417 41.810879775842686 $420 48.389043081318604 $338 $451 forward 7 unknown #
vertex $-1 $352 $452 #
straight-curve $-1 3.1185030506570826 -65.671952698134845 8.5304564637042404 0 -1 0 I I #
edge $-1 $420 -2.0041880424346488 $349 12.249570228618111 $348 $453 forward 7 unknown #
vertex $-1 $419 $454 #
straight-curve $-1 3.1185030506570826 -32.613523784355465 1.952293158228315 0 0.70710677298230451 0.70710678939079041 I I #
point $-1 3.1185030506570826 -26.035360631526494 8.5304564637042422 #
point $-1 17.372261321709843 -32.613523784355458 1.9522931582283221 #
straight-curve $-1 0 -32.613523784355458 8.5304564637042422 1 0 0 I I #
vertex $-1 $355 $455 #
point $-1 6.9692547048676374 -28.315713921455085 4.2326465478880317 #
vertex $-1 $359 $456 #
point $-1 11.245382186183463 -28.315713921455085 4.2326465478880317 #
vertex $-1 $363 $457 #
point $-1 15.521509667499288 -28.315713921455085 4.2326465478880317 #
point $-1 -69.812921536912143 -32.613523784355458 -8.5304564637042422 #
straight-curve $-1 -69.812921536912143 0 -8.5304564637042422 0 1 0 I I #
point $-1 -69.812921536912143 32.613523784355458 -8.5304564637042422 #
straight-curve $-1 -69.812921536912143 32.613523784355458 0 0 0 -1 I I #
coedge $-1 $386 $385 $396 $440 reversed $200 $-1 #
edge $-1 $441 -32.613523784355458 $389 32.613523784355458 $385 $458 forward 7 unknown #
straight-curve $-1 -75.524466572606457 32.613523784355458 -7.0265687762784692 0 0 -1 I I #
point $-1 -75.524466572606457 32.613523784355458 -8.5304564637042422 #
point $-1 -75.524466572606457 32.613523784355458 -5.5226810888526963 #
edge $-1 $400 -1.5038876874257729 $441 1.5038876874257729 $435 $459 forward 7 unknown #
vertex $-1 $436 $460 #
straight-curve $-1 -72.6686940547593 -32.613523784355458 -8.5304564637042422 -1 0 0 I I #
straight-curve $-1 -75.524466572606457 0 -5.5226810888526963 0 -1 0 I I #
point $-1 -75.524466572606457 -32.613523784355458 -5.5226810888526963 #
straight-curve $-1 -38.340951275936639 32.613523784355458 77.188515181366455 0 0 -1 I I #
point $-1 -38.340951275936639 32.613523784355458 8.5304564637042422 #
straight-curve $-1 -24.46429375089415 32.613523784355451 3.6122571256507143 -1 0 0 I I #
point $-1 -38.340951275936639 32.613523784355458 3.6122571256507143 #
point $-1 -53.466145884296154 26.71457757826909 2.5737832144466957 #
point $-1 -44.391029119280446 26.71457757826909 2.5737832144466957 #
straight-curve $-1 3.1185030506570826 -32.613523784355458 50.341336239546926 0 0 -1 I I #
point $-1 3.1185030506570826 -32.613523784355458 8.5304564637042422 #
straight-curve $-1 5.1226910930917313 -32.613523784355458 1.9522931582283241 1 0 0 I I #
point $-1 3.1185030506570826 -32.613523784355458 1.9522931582283221 #
point $-1 5.9692547048676374 -27.608607132064293 3.5255397749057269 #
point $-1 10.245382186183463 -27.608607132064293 3.5255397749057269 #
point $-1 14.521509667499288 -27.608607132064293 3.5255397749057269 #
straight-curve $-1 -75.524466572606457 0 -8.5304564637042422 0 1 0 I I #
straight-curve $-1 -75.524466572606457 -32.613523784355458 -7.0265687762784692 0 0 -1 I I #
point $-1 -75.524466572606457 -32.613523784355458 -8.5304564637042422 #
End-of-ACIS-data 