500 0 5 0           
7 Unknown 11 ACIS 5.0 NT 24 Thu Mar 25 22:40:37 1999 
-1 9.9999999999999995e-007 1e-010 
body $-1 $5 $-1 $6 #
body $-1 $7 $-1 $8 #
body $-1 $9 $-1 $10 #
body $-1 $11 $-1 $12 #
body $-1 $13 $-1 $14 #
lump $-1 $-1 $15 $0 #
transform $-1 1 0 0 0 1 0 0 0 1 59.838251899777219 39.720568425442799 17.286272097038388 1 rotate no_reflect no_shear #
lump $-1 $-1 $16 $1 #
transform $-1 1 0 0 0 1 0 0 0 1 59.838251899777219 39.720568425442799 17.286272097038388 1 rotate no_reflect no_shear #
lump $-1 $-1 $17 $2 #
transform $-1 1 0 0 0 1 0 0 0 1 59.838251899777219 39.720568425442799 17.286272097038388 1 rotate no_reflect no_shear #
lump $-1 $-1 $18 $3 #
transform $-1 1 0 0 0 1 0 0 0 1 59.838251899777219 39.720568425442799 17.286272097038388 1 rotate no_reflect no_shear #
lump $-1 $-1 $19 $4 #
transform $-1 1 0 0 0 1 0 0 0 1 59.838251899777219 39.720568425442799 17.286272097038388 1 rotate no_reflect no_shear #
shell $-1 $-1 $-1 $20 $-1 $5 #
shell $-1 $-1 $-1 $21 $-1 $7 #
shell $-1 $-1 $-1 $22 $-1 $9 #
shell $-1 $-1 $-1 $23 $-1 $11 #
shell $-1 $-1 $-1 $24 $-1 $13 #
face $-1 $25 $26 $15 $-1 $27 forward single #
face $-1 $28 $29 $16 $-1 $30 forward single #
face $-1 $31 $32 $17 $-1 $33 forward single #
face $-1 $34 $35 $18 $-1 $36 reversed single #
face $-1 $37 $38 $19 $-1 $39 reversed single #
face $-1 $40 $41 $15 $-1 $42 reversed single #
loop $-1 $-1 $43 $20 #
plane-surface $-1 0 0 17.286272097038388 0 0 1 1 0 0 forward_v I I I I #
face $-1 $44 $45 $16 $-1 $46 reversed single #
loop $-1 $-1 $47 $21 #
plane-surface $-1 -71.074840487573212 0 -9.1000481937642554 0 0 1 1 0 0 forward_v I I I I #
face $-1 $48 $49 $17 $-1 $50 forward single #
loop $-1 $-1 $51 $22 #
plane-surface $-1 -21.48438990788706 60.763511737706715 142.84469101628738 1 0 0 0 -0.66913061440640931 -0.74314481823134659 forward_v I I I I #
face $-1 $52 $53 $18 $-1 $54 reversed single #
loop $-1 $55 $56 $23 #
cone-surface $-1 -18.089441812963322 29.320298199602956 7.6657394972379249 0 -0.66913061440640931 -0.74314481823134659 1.5 0 0 1 I I 0 1 1.5 forward I I I I #
face $-1 $57 $58 $19 $-1 $59 reversed single #
loop $-1 $60 $61 $24 #
cone-surface $-1 -12.997019670577714 29.320298199602956 7.6657394972379249 0 -0.66913061440640931 -0.74314481823134659 1.5 0 0 1 I I 0 1 1.5 forward I I I I #
face $-1 $62 $63 $15 $-1 $64 reversed single #
loop $-1 $-1 $65 $25 #
plane-surface $-1 0 0 -17.286272097038388 0 0 1 1 0 0 forward_v I I I I #
coedge $-1 $66 $67 $68 $69 forward $26 $-1 #
face $-1 $70 $71 $16 $-1 $72 forward single #
loop $-1 $-1 $73 $28 #
plane-surface $-1 -82.311429075369205 0 -13.193160145401322 1 0 0 0 0 -1 forward_v I I I I #
coedge $-1 $74 $75 $76 $77 reversed $29 $-1 #
face $-1 $78 $79 $17 $-1 $80 forward single #
loop $-1 $-1 $81 $31 #
plane-surface $-1 -15.543230741770515 -19.315700779700116 53.907717353604454 0 0.66913061440640931 0.74314481823134659 1 0 0 forward_v I I I I #
coedge $-1 $82 $83 $84 $85 reversed $32 $-1 #
face $-1 $86 $87 $18 $-1 $88 forward single #
loop $-1 $89 $90 $34 #
cone-surface $-1 -18.089441812963322 27.600197351860167 5.7553740105692661 0 -0.66913061440640931 -0.74314481823134659 0.75 0 0 1 I I -0.70710678118654757 0.70710678118654757 0.75 forward I I I I #
loop $-1 $-1 $91 $23 #
coedge $-1 $56 $56 $92 $93 reversed $35 $-1 #
face $-1 $94 $95 $19 $-1 $96 reversed single #
loop $-1 $97 $98 $37 #
cone-surface $-1 -12.997019670577714 27.600197351860167 5.7553740105692661 0 -0.66913061440640931 -0.74314481823134659 0.75 0 0 1 I I -0.70710678118654757 0.70710678118654757 0.75 forward I I I I #
loop $-1 $-1 $99 $24 #
coedge $-1 $61 $61 $100 $101 reversed $38 $-1 #
face $-1 $102 $103 $15 $-1 $104 reversed single #
loop $-1 $-1 $105 $40 #
plane-surface $-1 0 -39.720568425442799 0 0 1 0 0 0 1 forward_v I I I I #
coedge $-1 $106 $107 $108 $109 forward $41 $-1 #
coedge $-1 $110 $43 $111 $112 forward $26 $-1 #
coedge $-1 $43 $110 $113 $114 forward $26 $-1 #
coedge $-1 $115 $116 $43 $69 reversed $117 $-1 #
edge $-1 $118 -39.720568425442799 $119 39.720568425442799 $68 $120 forward 7 unknown #
face $-1 $121 $122 $16 $-1 $123 reversed single #
loop $-1 $-1 $124 $44 #
plane-surface $-1 0 0 17.286272097038388 0 0 1 1 0 0 forward_v I I I I #
coedge $-1 $125 $126 $127 $128 forward $45 $-1 #
coedge $-1 $129 $47 $130 $131 forward $29 $-1 #
coedge $-1 $47 $129 $132 $133 forward $29 $-1 #
coedge $-1 $134 $135 $47 $77 forward $136 $-1 #
edge $-1 $137 -39.720568425442799 $138 39.720568425442799 $76 $139 forward 7 unknown #
face $-1 $140 $141 $17 $-1 $142 forward single #
loop $-1 $-1 $143 $48 #
plane-surface $-1 -9.6020715756539694 60.763511737706715 142.84469101628738 -1 0 0 0 0.66913061440640931 0.74314481823134659 forward_v I I I I #
coedge $-1 $144 $145 $146 $147 reversed $49 $-1 #
coedge $-1 $83 $51 $145 $148 forward $32 $-1 #
coedge $-1 $51 $82 $149 $150 reversed $32 $-1 #
coedge $-1 $151 $146 $51 $85 forward $141 $-1 #
edge $-1 $152 -9.0252221212143589 $153 9.338812556589442 $84 $154 forward 7 unknown #
face $-1 $155 $156 $18 $-1 $157 forward single #
loop $-1 $-1 $158 $52 #
plane-surface $-1 -21.48438990788706 60.763511737706715 142.84469101628738 1 0 0 0 -0.66913061440640931 -0.74314481823134659 forward_v I I I I #
loop $-1 $-1 $159 $34 #
coedge $-1 $90 $90 $91 $160 forward $53 $-1 #
coedge $-1 $91 $91 $90 $160 reversed $55 $-1 #
coedge $-1 $92 $92 $56 $93 forward $156 $-1 #
edge $-1 $161 -2.5939526851558742e-016 $161 6.2831853071796004 $92 $162 forward 7 unknown #
face $-1 $163 $164 $19 $-1 $165 reversed single #
loop $-1 $166 $167 $57 #
cone-surface $-1 -18.089441812963322 29.320298199602956 7.6657394972379249 0 -0.66913061440640931 -0.74314481823134659 1.5 0 0 1 I I 0 1 1.5 forward I I I I #
loop $-1 $-1 $168 $37 #
coedge $-1 $98 $98 $99 $169 forward $58 $-1 #
coedge $-1 $99 $99 $98 $169 reversed $60 $-1 #
coedge $-1 $100 $100 $61 $101 forward $170 $-1 #
edge $-1 $171 -2.5939526851558742e-016 $171 6.2831853071796004 $100 $172 forward 7 unknown #
face $-1 $173 $174 $15 $-1 $175 reversed single #
loop $-1 $-1 $176 $62 #
plane-surface $-1 -59.838251899777219 0 0 1 0 0 0 0 -1 forward_v I I I I #
coedge $-1 $177 $113 $178 $179 forward $63 $-1 #
coedge $-1 $180 $65 $177 $181 forward $41 $-1 #
coedge $-1 $65 $180 $182 $183 forward $41 $-1 #
coedge $-1 $116 $115 $65 $109 reversed $117 $-1 #
edge $-1 $184 -39.720568425442799 $185 39.720568425442799 $108 $186 forward 7 unknown #
coedge $-1 $67 $66 $187 $188 forward $26 $-1 #
coedge $-1 $189 $190 $66 $112 reversed $174 $-1 #
edge $-1 $119 -59.838251899777219 $191 59.838251899777219 $111 $192 forward 7 unknown #
coedge $-1 $105 $193 $67 $114 reversed $63 $-1 #
edge $-1 $194 -59.838251899777219 $118 59.838251899777219 $113 $195 forward 7 unknown #
coedge $-1 $108 $68 $193 $196 forward $117 $-1 #
coedge $-1 $68 $108 $189 $197 reversed $117 $-1 #
loop $-1 $-1 $115 $173 #
vertex $-1 $69 $198 #
vertex $-1 $69 $199 #
straight-curve $-1 59.838251899777219 0 17.286272097038388 0 1 0 I I #
face $-1 $200 $201 $16 $-1 $202 reversed single #
loop $-1 $-1 $203 $70 #
plane-surface $-1 0 0 -17.286272097038388 0 0 1 1 0 0 forward_v I I I I #
coedge $-1 $204 $205 $206 $207 forward $71 $-1 #
coedge $-1 $208 $73 $209 $210 reversed $45 $-1 #
coedge $-1 $73 $208 $129 $211 reversed $45 $-1 #
coedge $-1 $130 $212 $73 $128 reversed $213 $-1 #
edge $-1 $214 -4.0931119516370664 $215 4.0931119516370664 $127 $216 forward 7 unknown #
coedge $-1 $75 $74 $126 $211 forward $29 $-1 #
coedge $-1 $217 $127 $74 $131 reversed $213 $-1 #
edge $-1 $137 -11.236588587795985 $214 11.236588587795993 $130 $218 forward 7 unknown #
coedge $-1 $219 $220 $75 $133 reversed $201 $-1 #
edge $-1 $221 -11.236588587795993 $138 11.236588587795985 $132 $222 forward 7 unknown #
coedge $-1 $223 $76 $220 $224 reversed $136 $-1 #
coedge $-1 $76 $223 $217 $225 forward $136 $-1 #
loop $-1 $-1 $76 $200 #
vertex $-1 $225 $226 #
vertex $-1 $133 $227 #
straight-curve $-1 -59.838251899777219 0 -9.1000481937642554 0 -1 0 I I #
face $-1 $228 $229 $17 $-1 $230 forward single #
loop $-1 $-1 $231 $78 #
plane-surface $-1 0 0 17.286272097038388 0 0 1 1 0 0 forward_v I I I I #
coedge $-1 $232 $233 $231 $234 reversed $79 $-1 #
coedge $-1 $235 $81 $233 $236 reversed $49 $-1 #
coedge $-1 $81 $235 $82 $148 reversed $49 $-1 #
coedge $-1 $84 $231 $81 $147 forward $141 $-1 #
edge $-1 $237 1.8304562047687121 $152 13.712774537001803 $146 $238 forward 7 unknown #
edge $-1 $152 54.729890499858854 $239 79.441136850885613 $82 $240 forward 7 unknown #
coedge $-1 $241 $242 $83 $150 forward $243 $-1 #
edge $-1 $153 54.136073411105301 $239 70.671124864715978 $149 $244 forward 7 unknown #
coedge $-1 $245 $84 $242 $246 forward $141 $-1 #
vertex $-1 $147 $247 #
vertex $-1 $246 $248 #
straight-curve $-1 -21.48438990788706 30.381755868853357 17.286272097038392 0 1 0 I I #
face $-1 $249 $250 $18 $-1 $251 forward single #
loop $-1 $252 $92 $86 #
plane-surface $-1 -15.543230741770515 -19.315700779700116 53.907717353604454 0 0.66913061440640931 0.74314481823134659 1 0 0 forward_v I I I I #
coedge $-1 $253 $254 $255 $256 reversed $87 $-1 #
coedge $-1 $159 $159 $-1 $257 forward $89 $-1 #
edge $-1 $258 0 $258 6.2831853071796004 $90 $259 forward 7 unknown #
vertex $-1 $93 $260 #
ellipse-curve $-1 -18.089441812963322 30.538551086540913 9.0187463702330497 0 -0.66913061440640931 -0.74314481823134659 1.5 0 0 1 I I #
face $-1 $261 $262 $19 $-1 $263 forward single #
loop $-1 $264 $265 $94 #
cone-surface $-1 -18.089441812963322 27.600197351860167 5.7553740105692661 0 -0.66913061440640931 -0.74314481823134659 0.75 0 0 1 I I -0.70710678118654757 0.70710678118654757 0.75 forward I I I I #
loop $-1 $-1 $266 $57 #
coedge $-1 $167 $167 $267 $268 reversed $95 $-1 #
coedge $-1 $168 $168 $-1 $269 forward $97 $-1 #
edge $-1 $270 0 $270 6.2831853071796004 $98 $271 forward 7 unknown #
loop $-1 $272 $100 $261 #
vertex $-1 $101 $273 #
ellipse-curve $-1 -12.997019670577714 30.538551086540913 9.0187463702330497 0 -0.66913061440640931 -0.74314481823134659 1.5 0 0 1 I I #
face $-1 $-1 $117 $15 $-1 $274 reversed single #
loop $-1 $-1 $189 $102 #
plane-surface $-1 0 39.720568425442799 0 0 -1 0 0 0 -1 forward_v I I I I #
coedge $-1 $275 $187 $190 $276 forward $103 $-1 #
coedge $-1 $193 $105 $106 $181 reversed $63 $-1 #
coedge $-1 $187 $275 $105 $179 reversed $103 $-1 #
edge $-1 $194 -17.286272097038388 $277 17.286272097038388 $178 $278 forward 7 unknown #
coedge $-1 $107 $106 $275 $279 forward $41 $-1 #
edge $-1 $185 -59.838251899777219 $277 59.838251899777219 $177 $280 forward 7 unknown #
coedge $-1 $190 $189 $107 $183 reversed $174 $-1 #
edge $-1 $281 -59.838251899777219 $184 59.838251899777219 $182 $282 forward 7 unknown #
vertex $-1 $109 $283 #
vertex $-1 $196 $284 #
straight-curve $-1 59.838251899777219 0 -17.286272097038388 0 -1 0 I I #
coedge $-1 $176 $178 $110 $188 reversed $103 $-1 #
edge $-1 $191 -39.720568425442799 $194 39.720568425442799 $187 $285 forward 7 unknown #
coedge $-1 $182 $111 $116 $197 forward $174 $-1 #
coedge $-1 $111 $182 $176 $276 reversed $174 $-1 #
vertex $-1 $112 $286 #
straight-curve $-1 0 39.720568425442799 17.286272097038388 -1 0 0 I I #
coedge $-1 $113 $177 $115 $196 reversed $63 $-1 #
vertex $-1 $188 $287 #
straight-curve $-1 0 -39.720568425442799 17.286272097038388 1 0 0 I I #
edge $-1 $118 -17.286272097038388 $185 17.286272097038388 $115 $288 forward 7 unknown #
edge $-1 $119 -17.286272097038388 $184 17.286272097038388 $116 $289 forward 7 unknown #
point $-1 59.838251899777219 -39.720568425442799 17.286272097038388 #
point $-1 59.838251899777219 39.720568425442799 17.286272097038388 #
face $-1 $290 $136 $16 $-1 $291 reversed single #
loop $-1 $-1 $220 $121 #
plane-surface $-1 0 -39.720568425442799 0 0 1 0 0 0 1 forward_v I I I I #
coedge $-1 $292 $293 $294 $295 forward $122 $-1 #
coedge $-1 $296 $124 $297 $298 forward $71 $-1 #
coedge $-1 $124 $296 $299 $300 forward $71 $-1 #
coedge $-1 $301 $302 $124 $207 reversed $303 $-1 #
edge $-1 $304 -39.720568425442799 $305 39.720568425442799 $206 $306 forward 7 unknown #
coedge $-1 $126 $125 $219 $307 reversed $45 $-1 #
coedge $-1 $293 $292 $125 $210 forward $122 $-1 #
edge $-1 $308 -39.720568425442799 $215 39.720568425442799 $125 $309 forward 7 unknown #
edge $-1 $214 -39.720568425442799 $221 39.720568425442799 $126 $310 forward 7 unknown #
coedge $-1 $127 $311 $293 $312 reversed $213 $-1 #
loop $-1 $-1 $311 $290 #
vertex $-1 $131 $313 #
vertex $-1 $312 $314 #
straight-curve $-1 -82.311429075369205 39.720568425442799 -13.193160145401322 0 0 -1 I I #
coedge $-1 $297 $130 $135 $225 reversed $213 $-1 #
straight-curve $-1 -71.074840487573212 39.720568425442799 -9.1000481937642554 -1 0 0 I I #
coedge $-1 $315 $132 $208 $307 forward $201 $-1 #
coedge $-1 $132 $299 $134 $224 forward $201 $-1 #
vertex $-1 $211 $316 #
straight-curve $-1 -71.074840487573212 -39.720568425442799 -9.1000481937642554 1 0 0 I I #
coedge $-1 $135 $134 $296 $317 reversed $136 $-1 #
edge $-1 $318 -17.286272097038388 $138 9.1000481937642554 $134 $319 forward 7 unknown #
edge $-1 $320 -17.286272097038388 $137 9.1000481937642554 $217 $321 forward 7 unknown #
point $-1 -59.838251899777227 39.720568425442799 -9.1000481937642554 #
point $-1 -59.838251899777227 -39.720568425442799 -9.1000481937642554 #
face $-1 $322 $323 $17 $-1 $324 reversed single #
loop $-1 $-1 $325 $140 #
plane-surface $-1 -71.074840487573212 0 -9.1000481937642554 0 0 1 1 0 0 forward_v I I I I #
coedge $-1 $146 $326 $143 $234 forward $141 $-1 #
coedge $-1 $233 $143 $327 $328 reversed $79 $-1 #
coedge $-1 $143 $232 $144 $236 forward $79 $-1 #
edge $-1 $329 -9.338812556589442 $237 9.0252221212143589 $231 $330 forward 7 unknown #
coedge $-1 $145 $144 $241 $331 reversed $49 $-1 #
edge $-1 $332 -79.441136850885613 $237 -54.729890499858854 $233 $333 forward 7 unknown #
vertex $-1 $147 $334 #
straight-curve $-1 -7.7716153708852573 21.356533747639013 17.286272097038385 -1 0 0 I I #
vertex $-1 $331 $335 #
straight-curve $-1 -21.48438990788706 -19.315700779700116 53.907717353604454 0 0.74314481823134659 -0.66913061440640931 I I #
coedge $-1 $327 $149 $235 $331 forward $243 $-1 #
coedge $-1 $149 $336 $151 $246 reversed $243 $-1 #
loop $-1 $-1 $327 $337 #
straight-curve $-1 -21.48438990788706 39.720568425442799 71.422345508143692 0 0 -1 I I #
coedge $-1 $338 $151 $339 $340 forward $141 $-1 #
edge $-1 $153 21.48438990788706 $341 59.838251899777219 $242 $342 forward 7 unknown #
point $-1 -21.48438990788706 21.356533747638998 17.286272097038392 #
point $-1 -21.48438990788706 39.720568425442799 17.286272097038388 #
face $-1 $343 $344 $18 $-1 $345 forward single #
loop $-1 $-1 $346 $155 #
plane-surface $-1 -9.6020715756539694 60.763511737706715 142.84469101628738 -1 0 0 0 0.66913061440640931 0.74314481823134659 forward_v I I I I #
loop $-1 $-1 $347 $86 #
coedge $-1 $254 $158 $348 $349 forward $87 $-1 #
coedge $-1 $158 $253 $350 $351 reversed $87 $-1 #
coedge $-1 $352 $353 $158 $256 forward $344 $-1 #
edge $-1 $354 -9.0252221212143589 $355 9.338812556589442 $255 $356 forward 7 unknown #
edge $-1 $357 1 $357 0 $159 $-1 forward 7 unknown #
vertex $-1 $160 $358 #
ellipse-curve $-1 -18.089441812963322 28.102045312664973 6.3127326242427761 0 0.66913061440640931 0.74314481823134659 1.5 0 0 1 I I #
point $-1 -16.589441812963322 30.538551086540934 9.0187463702330728 #
face $-1 $359 $170 $19 $-1 $360 forward single #
loop $-1 $-1 $361 $163 #
plane-surface $-1 -21.48438990788706 60.763511737706715 142.84469101628738 1 0 0 0 -0.66913061440640931 -0.74314481823134659 forward_v I I I I #
loop $-1 $-1 $362 $94 #
coedge $-1 $265 $265 $266 $363 forward $164 $-1 #
coedge $-1 $266 $266 $265 $363 reversed $166 $-1 #
coedge $-1 $267 $267 $167 $268 forward $272 $-1 #
edge $-1 $364 -2.5939526851558742e-016 $364 6.2831853071796004 $267 $365 forward 7 unknown #
edge $-1 $366 1 $366 0 $168 $-1 forward 7 unknown #
vertex $-1 $169 $367 #
ellipse-curve $-1 -12.997019670577714 28.102045312664973 6.3127326242427761 0 0.66913061440640931 0.74314481823134659 1.5 0 0 1 I I #
loop $-1 $368 $267 $261 #
point $-1 -11.497019670577714 30.538551086540934 9.0187463702330728 #
plane-surface $-1 59.838251899777219 0 0 -1 0 0 0 0 1 forward_v I I I I #
coedge $-1 $178 $176 $180 $279 reversed $103 $-1 #
edge $-1 $191 -17.286272097038388 $281 17.286272097038388 $190 $369 forward 7 unknown #
vertex $-1 $279 $370 #
straight-curve $-1 -59.838251899777219 -39.720568425442799 0 0 0 -1 I I #
edge $-1 $277 -39.720568425442799 $281 39.720568425442799 $275 $371 forward 7 unknown #
straight-curve $-1 0 -39.720568425442799 -17.286272097038388 -1 0 0 I I #
vertex $-1 $183 $372 #
straight-curve $-1 0 39.720568425442799 -17.286272097038388 1 0 0 I I #
point $-1 59.838251899777219 39.720568425442799 -17.286272097038388 #
point $-1 59.838251899777219 -39.720568425442799 -17.286272097038388 #
straight-curve $-1 -59.838251899777219 0 17.286272097038388 0 -1 0 I I #
point $-1 -59.838251899777219 39.720568425442799 17.286272097038388 #
point $-1 -59.838251899777219 -39.720568425442799 17.286272097038388 #
straight-curve $-1 59.838251899777219 -39.720568425442799 0 0 0 -1 I I #
straight-curve $-1 59.838251899777219 39.720568425442799 0 0 0 -1 I I #
face $-1 $373 $213 $16 $-1 $374 reversed single #
plane-surface $-1 -59.838251899777219 0 0 1 0 0 0 0 -1 forward_v I I I I #
coedge $-1 $209 $203 $315 $375 forward $122 $-1 #
coedge $-1 $203 $209 $212 $312 forward $122 $-1 #
coedge $-1 $302 $301 $203 $295 reversed $303 $-1 #
edge $-1 $376 -39.720568425442799 $377 39.720568425442799 $294 $378 forward 7 unknown #
coedge $-1 $205 $204 $223 $317 forward $71 $-1 #
coedge $-1 $311 $217 $204 $298 reversed $213 $-1 #
edge $-1 $305 -59.838251899777219 $320 59.838251899777219 $297 $379 forward 7 unknown #
coedge $-1 $220 $380 $205 $300 reversed $201 $-1 #
edge $-1 $318 -59.838251899777219 $304 59.838251899777219 $299 $381 forward 7 unknown #
coedge $-1 $294 $206 $380 $382 forward $303 $-1 #
coedge $-1 $206 $294 $311 $383 reversed $303 $-1 #
loop $-1 $-1 $301 $373 #
vertex $-1 $207 $384 #
vertex $-1 $207 $385 #
straight-curve $-1 59.838251899777219 0 17.286272097038388 0 1 0 I I #
edge $-1 $221 -4.0931119516370664 $308 4.0931119516370664 $208 $386 forward 7 unknown #
vertex $-1 $210 $387 #
straight-curve $-1 -82.311429075369205 0 -17.286272097038388 0 1 0 I I #
straight-curve $-1 -82.311429075369205 0 -9.1000481937642554 0 -1 0 I I #
coedge $-1 $212 $297 $302 $383 forward $213 $-1 #
edge $-1 $215 -82.311429075369205 $376 59.838251899777219 $212 $388 forward 7 unknown #
point $-1 -82.311429075369205 39.720568425442799 -9.1000481937642554 #
point $-1 -82.311429075369205 39.720568425442799 -17.286272097038388 #
coedge $-1 $380 $219 $292 $375 reversed $201 $-1 #
point $-1 -82.311429075369205 -39.720568425442799 -9.1000481937642554 #
edge $-1 $320 -39.720568425442799 $318 39.720568425442799 $223 $389 forward 7 unknown #
vertex $-1 $317 $390 #
straight-curve $-1 -59.838251899777219 -39.720568425442799 0 0 0 -1 I I #
vertex $-1 $298 $391 #
straight-curve $-1 -59.838251899777219 39.720568425442799 0 0 0 -1 I I #
face $-1 $392 $393 $17 $-1 $394 reversed single #
loop $-1 $-1 $395 $228 #
plane-surface $-1 -82.311429075369205 0 -13.193160145401322 1 0 0 0 0 -1 forward_v I I I I #
coedge $-1 $396 $397 $398 $399 reversed $229 $-1 #
coedge $-1 $231 $400 $401 $402 forward $141 $-1 #
coedge $-1 $401 $241 $232 $328 forward $243 $-1 #
edge $-1 $332 -70.671124864715978 $329 -54.136073411105301 $327 $403 forward 7 unknown #
vertex $-1 $328 $404 #
straight-curve $-1 -9.6020715756539694 30.381755868853357 17.286272097038392 0 -1 0 I I #
edge $-1 $239 -13.712774537001803 $332 -1.8304562047687121 $241 $405 forward 7 unknown #
vertex $-1 $331 $406 #
straight-curve $-1 -9.6020715756539694 -19.315700779700116 53.907717353604454 0 -0.74314481823134659 0.66913061440640931 I I #
point $-1 -9.6020715756539694 21.356533747638998 17.286272097038392 #
point $-1 -21.48438990788706 39.720568425442799 0.75122064342772177 #
coedge $-1 $242 $407 $408 $409 reversed $243 $-1 #
face $-1 $410 $243 $17 $-1 $411 reversed single #
coedge $-1 $400 $245 $412 $413 forward $141 $-1 #
coedge $-1 $408 $414 $245 $340 reversed $415 $-1 #
edge $-1 $341 -39.720568425442799 $416 39.720568425442799 $339 $417 forward 7 unknown #
vertex $-1 $246 $418 #
straight-curve $-1 0 39.720568425442799 17.286272097038388 -1 0 0 I I #
face $-1 $419 $420 $18 $-1 $421 forward single #
loop $-1 $-1 $422 $249 #
plane-surface $-1 0 0 17.286272097038388 0 0 1 1 0 0 forward_v I I I I #
coedge $-1 $423 $424 $422 $425 reversed $250 $-1 #
coedge $-1 $426 $348 $353 $427 reversed $252 $-1 #
coedge $-1 $347 $428 $253 $349 reversed $252 $-1 #
edge $-1 $354 54.729890499858854 $429 79.441136850885613 $253 $430 forward 7 unknown #
coedge $-1 $431 $432 $254 $351 forward $433 $-1 #
edge $-1 $355 54.136073411105301 $429 70.671124864715978 $350 $434 forward 7 unknown #
coedge $-1 $435 $255 $432 $436 forward $344 $-1 #
coedge $-1 $255 $422 $347 $427 forward $344 $-1 #
vertex $-1 $427 $437 #
vertex $-1 $436 $438 #
straight-curve $-1 -21.48438990788706 30.381755868853357 17.286272097038392 0 1 0 I I #
vertex $-1 $257 $439 #
point $-1 -16.589441812963322 28.102045312664973 6.3127326242427761 #
face $-1 $440 $441 $19 $-1 $442 forward single #
plane-surface $-1 -15.543230741770515 -19.315700779700116 53.907717353604454 0 0.66913061440640931 0.74314481823134659 1 0 0 forward_v I I I I #
coedge $-1 $443 $444 $445 $446 reversed $262 $-1 #
coedge $-1 $362 $362 $-1 $447 forward $264 $-1 #
edge $-1 $448 0 $448 6.2831853071796004 $265 $449 forward 7 unknown #
vertex $-1 $268 $450 #
ellipse-curve $-1 -18.089441812963322 30.538551086540913 9.0187463702330497 0 -0.66913061440640931 -0.74314481823134659 1.5 0 0 1 I I #
vertex $-1 $269 $451 #
point $-1 -11.497019670577714 28.102045312664973 6.3127326242427761 #
loop $-1 $-1 $452 $261 #
straight-curve $-1 -59.838251899777219 39.720568425442799 0 0 0 -1 I I #
point $-1 -59.838251899777219 -39.720568425442799 -17.286272097038388 #
straight-curve $-1 -59.838251899777219 0 -17.286272097038388 0 1 0 I I #
point $-1 -59.838251899777219 39.720568425442799 -17.286272097038388 #
face $-1 $-1 $303 $16 $-1 $453 reversed single #
plane-surface $-1 0 39.720568425442799 0 0 -1 0 0 0 -1 forward_v I I I I #
edge $-1 $377 -130.91309238735045 $308 11.236588587795993 $315 $454 forward 7 unknown #
vertex $-1 $295 $455 #
vertex $-1 $382 $456 #
straight-curve $-1 59.838251899777219 0 -17.286272097038388 0 -1 0 I I #
straight-curve $-1 0 39.720568425442799 17.286272097038388 -1 0 0 I I #
coedge $-1 $299 $315 $301 $382 reversed $201 $-1 #
straight-curve $-1 0 -39.720568425442799 17.286272097038388 1 0 0 I I #
edge $-1 $304 -17.286272097038388 $377 17.286272097038388 $301 $457 forward 7 unknown #
edge $-1 $305 -17.286272097038388 $376 17.286272097038388 $302 $458 forward 7 unknown #
point $-1 59.838251899777219 -39.720568425442799 17.286272097038388 #
point $-1 59.838251899777219 39.720568425442799 17.286272097038388 #
straight-curve $-1 -82.311429075369205 -39.720568425442799 -13.193160145401322 0 0 -1 I I #
point $-1 -82.311429075369205 -39.720568425442799 -17.286272097038388 #
straight-curve $-1 0 39.720568425442799 -17.286272097038388 1 0 0 I I #
straight-curve $-1 -59.838251899777219 0 17.286272097038388 0 -1 0 I I #
point $-1 -59.838251899777219 -39.720568425442799 17.286272097038388 #
point $-1 -59.838251899777219 39.720568425442799 17.286272097038388 #
face $-1 $459 $460 $17 $-1 $461 reversed single #
loop $-1 $-1 $462 $322 #
plane-surface $-1 0 0 -17.286272097038388 0 0 1 1 0 0 forward_v I I I I #
coedge $-1 $463 $464 $465 $466 forward $323 $-1 #
coedge $-1 $467 $325 $407 $468 forward $229 $-1 #
coedge $-1 $325 $467 $469 $470 forward $229 $-1 #
coedge $-1 $414 $408 $325 $399 forward $415 $-1 #
edge $-1 $471 -39.720568425442799 $472 39.720568425442799 $398 $473 forward 7 unknown #
coedge $-1 $326 $338 $474 $475 forward $141 $-1 #
coedge $-1 $476 $327 $326 $402 reversed $243 $-1 #
edge $-1 $477 -59.838251899777219 $329 9.6020715756539694 $401 $342 forward 7 unknown #
straight-curve $-1 -9.6020715756539694 39.720568425442799 71.422345508143692 0 0 1 I I #
point $-1 -9.6020715756539694 39.720568425442799 17.286272097038388 #
straight-curve $-1 -7.7716153708852573 39.720568425442806 0.75122064342772177 1 0 0 I I #
point $-1 -9.6020715756539694 39.720568425442799 0.75122064342772177 #
coedge $-1 $336 $465 $396 $468 reversed $243 $-1 #
coedge $-1 $398 $339 $336 $409 forward $415 $-1 #
edge $-1 $341 -17.286272097038388 $471 9.1000481937642554 $336 $478 forward 7 unknown #
face $-1 $-1 $479 $17 $-1 $480 reversed single #
plane-surface $-1 0 39.720568425442799 0 0 -1 0 0 0 -1 forward_v I I I I #
coedge $-1 $481 $482 $338 $413 reversed $460 $-1 #
edge $-1 $416 -59.838251899777219 $483 59.838251899777219 $412 $484 forward 7 unknown #
coedge $-1 $339 $398 $481 $485 reversed $415 $-1 #
loop $-1 $-1 $398 $459 #
vertex $-1 $340 $486 #
straight-curve $-1 -59.838251899777219 0 17.286272097038388 0 -1 0 I I #
point $-1 -59.838251899777219 39.720568425442799 17.286272097038388 #
face $-1 $487 $488 $18 $-1 $489 reversed single #
loop $-1 $-1 $490 $343 #
plane-surface $-1 -71.074840487573212 0 -9.1000481937642554 0 0 1 1 0 0 forward_v I I I I #
coedge $-1 $353 $491 $346 $425 forward $344 $-1 #
coedge $-1 $424 $346 $492 $493 reversed $250 $-1 #
coedge $-1 $346 $423 $426 $494 forward $250 $-1 #
edge $-1 $495 -9.338812556589442 $496 9.0252221212143589 $422 $497 forward 7 unknown #
coedge $-1 $428 $347 $424 $494 reversed $252 $-1 #
edge $-1 $496 1.8304562047687121 $354 13.712774537001803 $353 $498 forward 7 unknown #
coedge $-1 $348 $426 $431 $499 reversed $252 $-1 #
vertex $-1 $499 $500 #
straight-curve $-1 -21.48438990788706 -19.315700779700116 53.907717353604454 0 0.74314481823134659 -0.66913061440640931 I I #
coedge $-1 $492 $350 $428 $499 forward $433 $-1 #
coedge $-1 $350 $501 $352 $436 reversed $433 $-1 #
loop $-1 $-1 $492 $502 #
straight-curve $-1 -21.48438990788706 39.720568425442799 71.422345508143692 0 0 -1 I I #
coedge $-1 $503 $352 $504 $505 forward $344 $-1 #
edge $-1 $355 21.48438990788706 $506 59.838251899777219 $432 $507 forward 7 unknown #
point $-1 -21.48438990788706 21.356533747638998 17.286272097038392 #
point $-1 -21.48438990788706 39.720568425442799 17.286272097038388 #
point $-1 -18.089441812963322 27.098349391055361 5.1980153968957561 #
face $-1 $508 $509 $19 $-1 $510 forward single #
loop $-1 $-1 $511 $359 #
plane-surface $-1 -9.6020715756539694 60.763511737706715 142.84469101628738 -1 0 0 0 0.66913061440640931 0.74314481823134659 forward_v I I I I #
coedge $-1 $444 $361 $512 $513 forward $262 $-1 #
coedge $-1 $361 $443 $514 $515 reversed $262 $-1 #
coedge $-1 $516 $517 $361 $446 forward $509 $-1 #
edge $-1 $518 -9.0252221212143589 $519 9.338812556589442 $445 $520 forward 7 unknown #
edge $-1 $521 1 $521 0 $362 $-1 forward 7 unknown #
vertex $-1 $363 $522 #
ellipse-curve $-1 -18.089441812963322 28.102045312664973 6.3127326242427761 0 0.66913061440640931 0.74314481823134659 1.5 0 0 1 I I #
point $-1 -16.589441812963322 30.538551086540934 9.0187463702330728 #
point $-1 -12.997019670577714 27.098349391055361 5.1980153968957561 #
coedge $-1 $523 $512 $517 $524 reversed $368 $-1 #
plane-surface $-1 59.838251899777219 0 0 -1 0 0 0 0 1 forward_v I I I I #
straight-curve $-1 -71.074840487573212 -39.720568425442799 -17.286272097038388 -1 0 0 I I #
point $-1 59.838251899777219 39.720568425442799 -17.286272097038388 #
point $-1 59.838251899777219 -39.720568425442799 -17.286272097038388 #
straight-curve $-1 59.838251899777219 -39.720568425442799 0 0 0 -1 I I #
straight-curve $-1 59.838251899777219 39.720568425442799 0 0 0 -1 I I #
face $-1 $337 $415 $17 $-1 $525 reversed single #
loop $-1 $-1 $481 $392 #
plane-surface $-1 0 -39.720568425442799 0 0 1 0 0 0 1 forward_v I I I I #
coedge $-1 $526 $527 $528 $529 forward $393 $-1 #
coedge $-1 $530 $395 $531 $532 reversed $323 $-1 #
coedge $-1 $395 $530 $467 $533 reversed $323 $-1 #
coedge $-1 $407 $534 $395 $466 reversed $243 $-1 #
edge $-1 $535 -4.0931119516370664 $536 4.0931119516370664 $465 $537 forward 7 unknown #
coedge $-1 $397 $396 $464 $533 forward $229 $-1 #
edge $-1 $471 -11.236588587795985 $535 11.236588587795993 $407 $538 forward 7 unknown #
coedge $-1 $539 $481 $397 $470 reversed $460 $-1 #
edge $-1 $540 -11.236588587795993 $472 11.236588587795985 $469 $541 forward 7 unknown #
vertex $-1 $409 $542 #
vertex $-1 $470 $543 #
straight-curve $-1 -59.838251899777219 0 -9.1000481937642554 0 -1 0 I I #
coedge $-1 $544 $545 $400 $475 reversed $479 $-1 #
edge $-1 $483 -39.720568425442799 $477 39.720568425442799 $474 $546 forward 7 unknown #
coedge $-1 $534 $401 $545 $547 forward $243 $-1 #
vertex $-1 $475 $548 #
straight-curve $-1 -59.838251899777219 39.720568425442799 0 0 0 -1 I I #
loop $-1 $-1 $544 $410 #
plane-surface $-1 59.838251899777219 0 0 -1 0 0 0 0 1 forward_v I I I I #
coedge $-1 $469 $412 $414 $485 forward $460 $-1 #
coedge $-1 $412 $549 $544 $550 reversed $460 $-1 #
vertex $-1 $475 $551 #
straight-curve $-1 0 -39.720568425442799 17.286272097038388 1 0 0 I I #
edge $-1 $416 -17.286272097038388 $472 9.1000481937642554 $414 $552 forward 7 unknown #
point $-1 -59.838251899777219 -39.720568425442799 17.286272097038388 #
face $-1 $553 $554 $18 $-1 $555 reversed single #
loop $-1 $-1 $556 $419 #
plane-surface $-1 -82.311429075369205 0 -13.193160145401322 1 0 0 0 0 -1 forward_v I I I I #
coedge $-1 $557 $558 $559 $560 reversed $420 $-1 #
coedge $-1 $422 $561 $562 $563 forward $344 $-1 #
coedge $-1 $562 $431 $423 $493 forward $433 $-1 #
edge $-1 $564 -70.671124864715978 $495 -54.136073411105301 $492 $565 forward 7 unknown #
edge $-1 $564 -79.441136850885613 $496 -54.729890499858854 $424 $566 forward 7 unknown #
vertex $-1 $493 $567 #
vertex $-1 $427 $568 #
straight-curve $-1 -9.6020715756539694 30.381755868853357 17.286272097038392 0 -1 0 I I #
straight-curve $-1 -7.7716153708852573 21.356533747639013 17.286272097038385 -1 0 0 I I #
edge $-1 $429 -13.712774537001803 $564 -1.8304562047687121 $431 $569 forward 7 unknown #
point $-1 -21.48438990788706 39.720568425442799 0.75122064342772177 #
coedge $-1 $432 $570 $571 $572 reversed $433 $-1 #
face $-1 $573 $433 $18 $-1 $574 reversed single #
coedge $-1 $561 $435 $575 $576 forward $344 $-1 #
coedge $-1 $571 $577 $435 $505 reversed $578 $-1 #
edge $-1 $506 -39.720568425442799 $579 39.720568425442799 $504 $580 forward 7 unknown #
vertex $-1 $436 $581 #
straight-curve $-1 0 39.720568425442799 17.286272097038388 -1 0 0 I I #
face $-1 $582 $583 $19 $-1 $584 forward single #
loop $-1 $-1 $585 $440 #
plane-surface $-1 0 0 17.286272097038388 0 0 1 1 0 0 forward_v I I I I #
coedge $-1 $586 $587 $585 $588 reversed $441 $-1 #
coedge $-1 $452 $589 $443 $513 reversed $368 $-1 #
edge $-1 $518 54.729890499858854 $590 79.441136850885613 $443 $591 forward 7 unknown #
coedge $-1 $592 $593 $444 $515 forward $594 $-1 #
edge $-1 $519 54.136073411105301 $590 70.671124864715978 $514 $595 forward 7 unknown #
coedge $-1 $596 $445 $593 $597 forward $509 $-1 #
coedge $-1 $445 $585 $452 $524 forward $509 $-1 #
vertex $-1 $524 $598 #
vertex $-1 $597 $599 #
straight-curve $-1 -21.48438990788706 30.381755868853357 17.286272097038392 0 1 0 I I #
vertex $-1 $447 $600 #
point $-1 -16.589441812963322 28.102045312664973 6.3127326242427761 #
coedge $-1 $589 $452 $587 $601 reversed $368 $-1 #
edge $-1 $602 1.8304562047687121 $518 13.712774537001803 $517 $603 forward 7 unknown #
plane-surface $-1 -59.838251899777219 0 0 1 0 0 0 0 -1 forward_v I I I I #
coedge $-1 $531 $462 $549 $604 forward $393 $-1 #
coedge $-1 $462 $531 $534 $605 forward $393 $-1 #
coedge $-1 $545 $544 $462 $529 reversed $479 $-1 #
edge $-1 $606 -39.720568425442799 $607 39.720568425442799 $528 $608 forward 7 unknown #
coedge $-1 $464 $463 $539 $609 reversed $323 $-1 #
coedge $-1 $527 $526 $463 $532 forward $393 $-1 #
edge $-1 $610 -39.720568425442799 $536 39.720568425442799 $463 $611 forward 7 unknown #
edge $-1 $535 -39.720568425442799 $540 39.720568425442799 $464 $612 forward 7 unknown #
coedge $-1 $465 $476 $527 $605 reversed $243 $-1 #
vertex $-1 $468 $613 #
vertex $-1 $605 $614 #
straight-curve $-1 -82.311429075369205 39.720568425442799 -13.193160145401322 0 0 -1 I I #
straight-curve $-1 -71.074840487573212 39.720568425442799 -9.1000481937642554 -1 0 0 I I #
coedge $-1 $549 $469 $530 $609 forward $460 $-1 #
vertex $-1 $533 $615 #
straight-curve $-1 -71.074840487573212 -39.720568425442799 -9.1000481937642554 1 0 0 I I #
point $-1 -59.838251899777227 39.720568425442799 -9.1000481937642554 #
point $-1 -59.838251899777227 -39.720568425442799 -9.1000481937642554 #
coedge $-1 $528 $474 $482 $550 forward $479 $-1 #
coedge $-1 $474 $528 $476 $547 reversed $479 $-1 #
straight-curve $-1 59.838251899777219 0 17.286272097038388 0 1 0 I I #
edge $-1 $477 -17.286272097038388 $606 17.286272097038388 $545 $616 forward 7 unknown #
point $-1 59.838251899777219 39.720568425442799 17.286272097038388 #
coedge $-1 $482 $539 $526 $604 reversed $460 $-1 #
edge $-1 $483 -17.286272097038388 $607 17.286272097038388 $544 $617 forward 7 unknown #
point $-1 59.838251899777219 -39.720568425442799 17.286272097038388 #
straight-curve $-1 -59.838251899777219 -39.720568425442799 0 0 0 -1 I I #
face $-1 $618 $619 $18 $-1 $620 reversed single #
loop $-1 $-1 $621 $487 #
plane-surface $-1 0 0 -17.286272097038388 0 0 1 1 0 0 forward_v I I I I #
coedge $-1 $622 $623 $624 $625 forward $488 $-1 #
coedge $-1 $626 $490 $570 $627 forward $420 $-1 #
coedge $-1 $490 $626 $628 $629 forward $420 $-1 #
coedge $-1 $577 $571 $490 $560 forward $578 $-1 #
edge $-1 $630 -39.720568425442799 $631 39.720568425442799 $559 $632 forward 7 unknown #
coedge $-1 $491 $503 $633 $634 forward $344 $-1 #
coedge $-1 $635 $492 $491 $563 reversed $433 $-1 #
edge $-1 $636 -59.838251899777219 $495 9.6020715756539694 $562 $507 forward 7 unknown #
vertex $-1 $499 $637 #
straight-curve $-1 -9.6020715756539694 39.720568425442799 71.422345508143692 0 0 1 I I #
straight-curve $-1 -9.6020715756539694 -19.315700779700116 53.907717353604454 0 -0.74314481823134659 0.66913061440640931 I I #
point $-1 -9.6020715756539694 39.720568425442799 17.286272097038388 #
point $-1 -9.6020715756539694 21.356533747638998 17.286272097038392 #
straight-curve $-1 -7.7716153708852573 39.720568425442806 0.75122064342772177 1 0 0 I I #
coedge $-1 $501 $624 $557 $627 reversed $433 $-1 #
coedge $-1 $559 $504 $501 $572 forward $578 $-1 #
edge $-1 $506 -17.286272097038388 $630 9.1000481937642554 $501 $638 forward 7 unknown #
face $-1 $-1 $639 $18 $-1 $640 reversed single #
plane-surface $-1 0 39.720568425442799 0 0 -1 0 0 0 -1 forward_v I I I I #
coedge $-1 $641 $642 $503 $576 reversed $619 $-1 #
edge $-1 $579 -59.838251899777219 $643 59.838251899777219 $575 $644 forward 7 unknown #
coedge $-1 $504 $559 $641 $645 reversed $578 $-1 #
loop $-1 $-1 $559 $618 #
vertex $-1 $505 $646 #
straight-curve $-1 -59.838251899777219 0 17.286272097038388 0 -1 0 I I #
point $-1 -59.838251899777219 39.720568425442799 17.286272097038388 #
face $-1 $647 $648 $19 $-1 $649 reversed single #
loop $-1 $-1 $650 $508 #
plane-surface $-1 -71.074840487573212 0 -9.1000481937642554 0 0 1 1 0 0 forward_v I I I I #
coedge $-1 $517 $651 $511 $588 forward $509 $-1 #
coedge $-1 $587 $511 $652 $653 reversed $441 $-1 #
coedge $-1 $511 $586 $523 $601 forward $441 $-1 #
edge $-1 $654 -9.338812556589442 $602 9.0252221212143589 $585 $655 forward 7 unknown #
coedge $-1 $512 $523 $592 $656 reversed $368 $-1 #
vertex $-1 $656 $657 #
straight-curve $-1 -21.48438990788706 -19.315700779700116 53.907717353604454 0 0.74314481823134659 -0.66913061440640931 I I #
coedge $-1 $652 $514 $589 $656 forward $594 $-1 #
coedge $-1 $514 $658 $516 $597 reversed $594 $-1 #
loop $-1 $-1 $652 $659 #
straight-curve $-1 -21.48438990788706 39.720568425442799 71.422345508143692 0 0 -1 I I #
coedge $-1 $660 $516 $661 $662 forward $509 $-1 #
edge $-1 $519 21.48438990788706 $663 59.838251899777219 $593 $664 forward 7 unknown #
point $-1 -21.48438990788706 21.356533747638998 17.286272097038392 #
point $-1 -21.48438990788706 39.720568425442799 17.286272097038388 #
point $-1 -18.089441812963322 27.098349391055361 5.1980153968957561 #
edge $-1 $665 -79.441136850885613 $602 -54.729890499858854 $587 $666 forward 7 unknown #
vertex $-1 $524 $667 #
straight-curve $-1 -7.7716153708852573 21.356533747639013 17.286272097038385 -1 0 0 I I #
edge $-1 $607 -130.91309238735045 $610 11.236588587795993 $549 $668 forward 7 unknown #
edge $-1 $536 -82.311429075369205 $606 59.838251899777219 $534 $669 forward 7 unknown #
vertex $-1 $529 $670 #
vertex $-1 $550 $671 #
straight-curve $-1 59.838251899777219 0 -17.286272097038388 0 -1 0 I I #
edge $-1 $540 -4.0931119516370664 $610 4.0931119516370664 $530 $672 forward 7 unknown #
vertex $-1 $532 $673 #
straight-curve $-1 -82.311429075369205 0 -17.286272097038388 0 1 0 I I #
straight-curve $-1 -82.311429075369205 0 -9.1000481937642554 0 -1 0 I I #
point $-1 -82.311429075369205 39.720568425442799 -9.1000481937642554 #
point $-1 -82.311429075369205 39.720568425442799 -17.286272097038388 #
point $-1 -82.311429075369205 -39.720568425442799 -9.1000481937642554 #
straight-curve $-1 59.838251899777219 39.720568425442799 0 0 0 -1 I I #
straight-curve $-1 59.838251899777219 -39.720568425442799 0 0 0 -1 I I #
face $-1 $502 $578 $18 $-1 $674 reversed single #
loop $-1 $-1 $641 $553 #
plane-surface $-1 0 -39.720568425442799 0 0 1 0 0 0 1 forward_v I I I I #
coedge $-1 $675 $676 $677 $678 forward $554 $-1 #
coedge $-1 $679 $556 $680 $681 reversed $488 $-1 #
coedge $-1 $556 $679 $626 $682 reversed $488 $-1 #
coedge $-1 $570 $683 $556 $625 reversed $433 $-1 #
edge $-1 $684 -4.0931119516370664 $685 4.0931119516370664 $624 $686 forward 7 unknown #
coedge $-1 $558 $557 $623 $682 forward $420 $-1 #
edge $-1 $630 -11.236588587795985 $684 11.236588587795993 $570 $687 forward 7 unknown #
coedge $-1 $688 $641 $558 $629 reversed $619 $-1 #
edge $-1 $689 -11.236588587795993 $631 11.236588587795985 $628 $690 forward 7 unknown #
vertex $-1 $572 $691 #
vertex $-1 $629 $692 #
straight-curve $-1 -59.838251899777219 0 -9.1000481937642554 0 -1 0 I I #
coedge $-1 $693 $694 $561 $634 reversed $639 $-1 #
edge $-1 $643 -39.720568425442799 $636 39.720568425442799 $633 $695 forward 7 unknown #
coedge $-1 $683 $562 $694 $696 forward $433 $-1 #
vertex $-1 $634 $697 #
point $-1 -9.6020715756539694 39.720568425442799 0.75122064342772177 #
straight-curve $-1 -59.838251899777219 39.720568425442799 0 0 0 -1 I I #
loop $-1 $-1 $693 $573 #
plane-surface $-1 59.838251899777219 0 0 -1 0 0 0 0 1 forward_v I I I I #
coedge $-1 $628 $575 $577 $645 forward $619 $-1 #
coedge $-1 $575 $698 $693 $699 reversed $619 $-1 #
vertex $-1 $634 $700 #
straight-curve $-1 0 -39.720568425442799 17.286272097038388 1 0 0 I I #
edge $-1 $579 -17.286272097038388 $631 9.1000481937642554 $577 $701 forward 7 unknown #
point $-1 -59.838251899777219 -39.720568425442799 17.286272097038388 #
face $-1 $702 $703 $19 $-1 $704 reversed single #
loop $-1 $-1 $705 $582 #
plane-surface $-1 -82.311429075369205 0 -13.193160145401322 1 0 0 0 0 -1 forward_v I I I I #
coedge $-1 $706 $707 $708 $709 reversed $583 $-1 #
coedge $-1 $585 $710 $711 $712 forward $509 $-1 #
coedge $-1 $711 $592 $586 $653 forward $594 $-1 #
edge $-1 $665 -70.671124864715978 $654 -54.136073411105301 $652 $713 forward 7 unknown #
vertex $-1 $653 $714 #
straight-curve $-1 -9.6020715756539694 30.381755868853357 17.286272097038392 0 -1 0 I I #
edge $-1 $590 -13.712774537001803 $665 -1.8304562047687121 $592 $715 forward 7 unknown #
point $-1 -21.48438990788706 39.720568425442799 0.75122064342772177 #
coedge $-1 $593 $716 $717 $718 reversed $594 $-1 #
face $-1 $719 $594 $19 $-1 $720 reversed single #
coedge $-1 $710 $596 $721 $722 forward $509 $-1 #
coedge $-1 $717 $723 $596 $662 reversed $724 $-1 #
edge $-1 $663 -39.720568425442799 $725 39.720568425442799 $661 $726 forward 7 unknown #
vertex $-1 $597 $727 #
straight-curve $-1 0 39.720568425442799 17.286272097038388 -1 0 0 I I #
vertex $-1 $656 $728 #
straight-curve $-1 -9.6020715756539694 -19.315700779700116 53.907717353604454 0 -0.74314481823134659 0.66913061440640931 I I #
point $-1 -9.6020715756539694 21.356533747638998 17.286272097038392 #
straight-curve $-1 -71.074840487573212 -39.720568425442799 -17.286272097038388 -1 0 0 I I #
straight-curve $-1 0 39.720568425442799 -17.286272097038388 1 0 0 I I #
point $-1 59.838251899777219 39.720568425442799 -17.286272097038388 #
point $-1 59.838251899777219 -39.720568425442799 -17.286272097038388 #
straight-curve $-1 -82.311429075369205 -39.720568425442799 -13.193160145401322 0 0 -1 I I #
point $-1 -82.311429075369205 -39.720568425442799 -17.286272097038388 #
plane-surface $-1 -59.838251899777219 0 0 1 0 0 0 0 -1 forward_v I I I I #
coedge $-1 $680 $621 $698 $729 forward $554 $-1 #
coedge $-1 $621 $680 $683 $730 forward $554 $-1 #
coedge $-1 $694 $693 $621 $678 reversed $639 $-1 #
edge $-1 $731 -39.720568425442799 $732 39.720568425442799 $677 $733 forward 7 unknown #
coedge $-1 $623 $622 $688 $734 reversed $488 $-1 #
coedge $-1 $676 $675 $622 $681 forward $554 $-1 #
edge $-1 $735 -39.720568425442799 $685 39.720568425442799 $622 $736 forward 7 unknown #
edge $-1 $684 -39.720568425442799 $689 39.720568425442799 $623 $737 forward 7 unknown #
coedge $-1 $624 $635 $676 $730 reversed $433 $-1 #
vertex $-1 $627 $738 #
vertex $-1 $730 $739 #
straight-curve $-1 -82.311429075369205 39.720568425442799 -13.193160145401322 0 0 -1 I I #
straight-curve $-1 -71.074840487573212 39.720568425442799 -9.1000481937642554 -1 0 0 I I #
coedge $-1 $698 $628 $679 $734 forward $619 $-1 #
vertex $-1 $682 $740 #
straight-curve $-1 -71.074840487573212 -39.720568425442799 -9.1000481937642554 1 0 0 I I #
point $-1 -59.838251899777227 39.720568425442799 -9.1000481937642554 #
point $-1 -59.838251899777227 -39.720568425442799 -9.1000481937642554 #
coedge $-1 $677 $633 $642 $699 forward $639 $-1 #
coedge $-1 $633 $677 $635 $696 reversed $639 $-1 #
straight-curve $-1 59.838251899777219 0 17.286272097038388 0 1 0 I I #
edge $-1 $636 -17.286272097038388 $731 17.286272097038388 $694 $741 forward 7 unknown #
point $-1 59.838251899777219 39.720568425442799 17.286272097038388 #
coedge $-1 $642 $688 $675 $729 reversed $619 $-1 #
edge $-1 $643 -17.286272097038388 $732 17.286272097038388 $693 $742 forward 7 unknown #
point $-1 59.838251899777219 -39.720568425442799 17.286272097038388 #
straight-curve $-1 -59.838251899777219 -39.720568425442799 0 0 0 -1 I I #
face $-1 $743 $744 $19 $-1 $745 reversed single #
loop $-1 $-1 $746 $647 #
plane-surface $-1 0 0 -17.286272097038388 0 0 1 1 0 0 forward_v I I I I #
coedge $-1 $747 $748 $749 $750 forward $648 $-1 #
coedge $-1 $751 $650 $716 $752 forward $583 $-1 #
coedge $-1 $650 $751 $753 $754 forward $583 $-1 #
coedge $-1 $723 $717 $650 $709 forward $724 $-1 #
edge $-1 $755 -39.720568425442799 $756 39.720568425442799 $708 $757 forward 7 unknown #
coedge $-1 $651 $660 $758 $759 forward $509 $-1 #
coedge $-1 $760 $652 $651 $712 reversed $594 $-1 #
edge $-1 $761 -59.838251899777219 $654 9.6020715756539694 $711 $664 forward 7 unknown #
straight-curve $-1 -9.6020715756539694 39.720568425442799 71.422345508143692 0 0 1 I I #
point $-1 -9.6020715756539694 39.720568425442799 17.286272097038388 #
straight-curve $-1 -7.7716153708852573 39.720568425442806 0.75122064342772177 1 0 0 I I #
coedge $-1 $658 $749 $706 $752 reversed $594 $-1 #
coedge $-1 $708 $661 $658 $718 forward $724 $-1 #
edge $-1 $663 -17.286272097038388 $755 9.1000481937642554 $658 $762 forward 7 unknown #
face $-1 $-1 $763 $19 $-1 $764 reversed single #
plane-surface $-1 0 39.720568425442799 0 0 -1 0 0 0 -1 forward_v I I I I #
coedge $-1 $765 $766 $660 $722 reversed $744 $-1 #
edge $-1 $725 -59.838251899777219 $767 59.838251899777219 $721 $768 forward 7 unknown #
coedge $-1 $661 $708 $765 $769 reversed $724 $-1 #
loop $-1 $-1 $708 $743 #
vertex $-1 $662 $770 #
straight-curve $-1 -59.838251899777219 0 17.286272097038388 0 -1 0 I I #
point $-1 -59.838251899777219 39.720568425442799 17.286272097038388 #
point $-1 -9.6020715756539694 39.720568425442799 0.75122064342772177 #
edge $-1 $732 -130.91309238735045 $735 11.236588587795993 $698 $771 forward 7 unknown #
edge $-1 $685 -82.311429075369205 $731 59.838251899777219 $683 $772 forward 7 unknown #
vertex $-1 $678 $773 #
vertex $-1 $699 $774 #
straight-curve $-1 59.838251899777219 0 -17.286272097038388 0 -1 0 I I #
edge $-1 $689 -4.0931119516370664 $735 4.0931119516370664 $679 $775 forward 7 unknown #
vertex $-1 $681 $776 #
straight-curve $-1 -82.311429075369205 0 -17.286272097038388 0 1 0 I I #
straight-curve $-1 -82.311429075369205 0 -9.1000481937642554 0 -1 0 I I #
point $-1 -82.311429075369205 39.720568425442799 -9.1000481937642554 #
point $-1 -82.311429075369205 39.720568425442799 -17.286272097038388 #
point $-1 -82.311429075369205 -39.720568425442799 -9.1000481937642554 #
straight-curve $-1 59.838251899777219 39.720568425442799 0 0 0 -1 I I #
straight-curve $-1 59.838251899777219 -39.720568425442799 0 0 0 -1 I I #
face $-1 $659 $724 $19 $-1 $777 reversed single #
loop $-1 $-1 $765 $702 #
plane-surface $-1 0 -39.720568425442799 0 0 1 0 0 0 1 forward_v I I I I #
coedge $-1 $778 $779 $780 $781 forward $703 $-1 #
coedge $-1 $782 $705 $783 $784 reversed $648 $-1 #
coedge $-1 $705 $782 $751 $785 reversed $648 $-1 #
coedge $-1 $716 $786 $705 $750 reversed $594 $-1 #
edge $-1 $787 -4.0931119516370664 $788 4.0931119516370664 $749 $789 forward 7 unknown #
coedge $-1 $707 $706 $748 $785 forward $583 $-1 #
edge $-1 $755 -11.236588587795985 $787 11.236588587795993 $716 $790 forward 7 unknown #
coedge $-1 $791 $765 $707 $754 reversed $744 $-1 #
edge $-1 $792 -11.236588587795993 $756 11.236588587795985 $753 $793 forward 7 unknown #
vertex $-1 $718 $794 #
vertex $-1 $754 $795 #
straight-curve $-1 -59.838251899777219 0 -9.1000481937642554 0 -1 0 I I #
coedge $-1 $796 $797 $710 $759 reversed $763 $-1 #
edge $-1 $767 -39.720568425442799 $761 39.720568425442799 $758 $798 forward 7 unknown #
coedge $-1 $786 $711 $797 $799 forward $594 $-1 #
vertex $-1 $759 $800 #
straight-curve $-1 -59.838251899777219 39.720568425442799 0 0 0 -1 I I #
loop $-1 $-1 $796 $719 #
plane-surface $-1 59.838251899777219 0 0 -1 0 0 0 0 1 forward_v I I I I #
coedge $-1 $753 $721 $723 $769 forward $744 $-1 #
coedge $-1 $721 $801 $796 $802 reversed $744 $-1 #
vertex $-1 $759 $803 #
straight-curve $-1 0 -39.720568425442799 17.286272097038388 1 0 0 I I #
edge $-1 $725 -17.286272097038388 $756 9.1000481937642554 $723 $804 forward 7 unknown #
point $-1 -59.838251899777219 -39.720568425442799 17.286272097038388 #
straight-curve $-1 -71.074840487573212 -39.720568425442799 -17.286272097038388 -1 0 0 I I #
straight-curve $-1 0 39.720568425442799 -17.286272097038388 1 0 0 I I #
point $-1 59.838251899777219 39.720568425442799 -17.286272097038388 #
point $-1 59.838251899777219 -39.720568425442799 -17.286272097038388 #
straight-curve $-1 -82.311429075369205 -39.720568425442799 -13.193160145401322 0 0 -1 I I #
point $-1 -82.311429075369205 -39.720568425442799 -17.286272097038388 #
plane-surface $-1 -59.838251899777219 0 0 1 0 0 0 0 -1 forward_v I I I I #
coedge $-1 $783 $746 $801 $805 forward $703 $-1 #
coedge $-1 $746 $783 $786 $806 forward $703 $-1 #
coedge $-1 $797 $796 $746 $781 reversed $763 $-1 #
edge $-1 $807 -39.720568425442799 $808 39.720568425442799 $780 $809 forward 7 unknown #
coedge $-1 $748 $747 $791 $810 reversed $648 $-1 #
coedge $-1 $779 $778 $747 $784 forward $703 $-1 #
edge $-1 $811 -39.720568425442799 $788 39.720568425442799 $747 $812 forward 7 unknown #
edge $-1 $787 -39.720568425442799 $792 39.720568425442799 $748 $813 forward 7 unknown #
coedge $-1 $749 $760 $779 $806 reversed $594 $-1 #
vertex $-1 $752 $814 #
vertex $-1 $806 $815 #
straight-curve $-1 -82.311429075369205 39.720568425442799 -13.193160145401322 0 0 -1 I I #
straight-curve $-1 -71.074840487573212 39.720568425442799 -9.1000481937642554 -1 0 0 I I #
coedge $-1 $801 $753 $782 $810 forward $744 $-1 #
vertex $-1 $785 $816 #
straight-curve $-1 -71.074840487573212 -39.720568425442799 -9.1000481937642554 1 0 0 I I #
point $-1 -59.838251899777227 39.720568425442799 -9.1000481937642554 #
point $-1 -59.838251899777227 -39.720568425442799 -9.1000481937642554 #
coedge $-1 $780 $758 $766 $802 forward $763 $-1 #
coedge $-1 $758 $780 $760 $799 reversed $763 $-1 #
straight-curve $-1 59.838251899777219 0 17.286272097038388 0 1 0 I I #
edge $-1 $761 -17.286272097038388 $807 17.286272097038388 $797 $817 forward 7 unknown #
point $-1 59.838251899777219 39.720568425442799 17.286272097038388 #
coedge $-1 $766 $791 $778 $805 reversed $744 $-1 #
edge $-1 $767 -17.286272097038388 $808 17.286272097038388 $796 $818 forward 7 unknown #
point $-1 59.838251899777219 -39.720568425442799 17.286272097038388 #
straight-curve $-1 -59.838251899777219 -39.720568425442799 0 0 0 -1 I I #
edge $-1 $808 -130.91309238735045 $811 11.236588587795993 $801 $819 forward 7 unknown #
edge $-1 $788 -82.311429075369205 $807 59.838251899777219 $786 $820 forward 7 unknown #
vertex $-1 $781 $821 #
vertex $-1 $802 $822 #
straight-curve $-1 59.838251899777219 0 -17.286272097038388 0 -1 0 I I #
edge $-1 $792 -4.0931119516370664 $811 4.0931119516370664 $782 $823 forward 7 unknown #
vertex $-1 $784 $824 #
straight-curve $-1 -82.311429075369205 0 -17.286272097038388 0 1 0 I I #
straight-curve $-1 -82.311429075369205 0 -9.1000481937642554 0 -1 0 I I #
point $-1 -82.311429075369205 39.720568425442799 -9.1000481937642554 #
point $-1 -82.311429075369205 39.720568425442799 -17.286272097038388 #
point $-1 -82.311429075369205 -39.720568425442799 -9.1000481937642554 #
straight-curve $-1 59.838251899777219 39.720568425442799 0 0 0 -1 I I #
straight-curve $-1 59.838251899777219 -39.720568425442799 0 0 0 -1 I I #
straight-curve $-1 -71.074840487573212 -39.720568425442799 -17.286272097038388 -1 0 0 I I #
straight-curve $-1 0 39.720568425442799 -17.286272097038388 1 0 0 I I #
point $-1 59.838251899777219 39.720568425442799 -17.286272097038388 #
point $-1 59.838251899777219 -39.720568425442799 -17.286272097038388 #
straight-curve $-1 -82.311429075369205 -39.720568425442799 -13.193160145401322 0 0 -1 I I #
point $-1 -82.311429075369205 -39.720568425442799 -17.286272097038388 #
End-of-ACIS-data 