500 0 5 0           
7 Unknown 11 ACIS 5.0 NT 24 Fri Mar 26 15:01:34 1999 
-1 9.9999999999999995e-007 1e-010 
body $-1 $5 $-1 $6 #
body $-1 $7 $-1 $8 #
body $-1 $9 $-1 $10 #
body $-1 $11 $-1 $12 #
body $-1 $13 $-1 $14 #
lump $-1 $-1 $15 $0 #
transform $-1 1 0 0 0 1 0 0 0 1 44.409314249092077 25.682914642441173 7.2838931172278771 1 rotate no_reflect no_shear #
lump $-1 $-1 $16 $1 #
transform $-1 1 0 0 0 1 0 0 0 1 44.409314249092077 25.682914642441173 7.2838931172278771 1 rotate no_reflect no_shear #
lump $-1 $-1 $17 $2 #
transform $-1 1 0 0 0 1 0 0 0 1 44.409314249092077 25.682914642441173 7.2838931172278771 1 rotate no_reflect no_shear #
lump $-1 $-1 $18 $3 #
transform $-1 1 0 0 0 1 0 0 0 1 44.409314249092077 25.682914642441173 7.2838931172278771 1 rotate no_reflect no_shear #
lump $-1 $-1 $19 $4 #
transform $-1 1 0 0 0 1 0 0 0 1 44.409314249092077 25.682914642441173 7.2838931172278771 1 rotate no_reflect no_shear #
shell $-1 $-1 $-1 $20 $-1 $5 #
shell $-1 $-1 $-1 $21 $-1 $7 #
shell $-1 $-1 $-1 $22 $-1 $9 #
shell $-1 $-1 $-1 $23 $-1 $11 #
shell $-1 $-1 $-1 $24 $-1 $13 #
face $-1 $25 $26 $15 $-1 $27 forward single #
face $-1 $28 $29 $16 $-1 $30 forward single #
face $-1 $31 $32 $17 $-1 $33 forward single #
face $-1 $34 $35 $18 $-1 $36 reversed single #
face $-1 $37 $38 $19 $-1 $39 reversed single #
face $-1 $40 $41 $15 $-1 $42 reversed single #
loop $-1 $-1 $43 $20 #
plane-surface $-1 0 0 7.2838931172278771 0 0 1 1 0 0 forward_v I I I I #
face $-1 $44 $45 $16 $-1 $46 reversed single #
loop $-1 $-1 $47 $21 #
plane-surface $-1 0 -28.719155705714599 0.9522714821998326 0 0 1 1 0 0 forward_v I I I I #
face $-1 $48 $49 $17 $-1 $50 forward single #
loop $-1 $-1 $51 $22 #
plane-surface $-1 -33.466844038687711 70.593488925234368 94.506310328327544 -1 0 0 0 0.82903758062907751 0.55919289150049634 forward_v I I I I #
face $-1 $52 $53 $18 $-1 $54 reversed single #
loop $-1 $55 $56 $23 #
cone-surface $-1 -41.282894188976549 22.455887332729759 3.7368647282948988 0 -0.82903758062907751 -0.55919289150049634 1.5 0 0 1 I I 0 1 1.5 forward I I I I #
face $-1 $57 $58 $19 $-1 $59 reversed single #
loop $-1 $60 $61 $24 #
cone-surface $-1 -36.593264098803246 22.455887332729759 3.7368647282948988 0 -0.82903758062907751 -0.55919289150049634 1.5 0 0 1 I I 0 1 1.5 forward I I I I #
face $-1 $62 $63 $15 $-1 $64 reversed single #
loop $-1 $-1 $65 $25 #
plane-surface $-1 0 0 -7.2838931172278771 0 0 1 1 0 0 forward_v I I I I #
coedge $-1 $66 $67 $68 $69 forward $26 $-1 #
face $-1 $70 $71 $16 $-1 $72 reversed single #
loop $-1 $-1 $73 $28 #
plane-surface $-1 0 -28.719155705714599 -2.0477285178001674 0 0 1 1 0 0 forward_v I I I I #
coedge $-1 $74 $75 $76 $77 forward $29 $-1 #
face $-1 $78 $79 $17 $-1 $80 reversed single #
loop $-1 $-1 $81 $31 #
plane-surface $-1 -38.938079143889894 -3.0404919596930569 44.839564639319562 0 0.82903758062907751 0.55919289150049634 1 0 0 forward_v I I I I #
coedge $-1 $82 $83 $84 $85 reversed $32 $-1 #
face $-1 $86 $87 $18 $-1 $88 forward single #
loop $-1 $89 $90 $34 #
cone-surface $-1 -41.282894188976549 20.30297538440097 2.2847073283632531 0 -0.82903758062907751 -0.55919289150049634 0.75 0 0 1 I I -0.70710678118654757 0.70710678118654757 0.75 forward I I I I #
loop $-1 $-1 $91 $23 #
coedge $-1 $56 $56 $92 $93 reversed $35 $-1 #
face $-1 $94 $95 $19 $-1 $96 reversed single #
loop $-1 $97 $98 $37 #
cone-surface $-1 -36.593264098803246 20.30297538440097 2.2847073283632531 0 -0.82903758062907751 -0.55919289150049634 0.75 0 0 1 I I -0.70710678118654757 0.70710678118654757 0.75 forward I I I I #
loop $-1 $-1 $99 $24 #
coedge $-1 $61 $61 $100 $101 reversed $38 $-1 #
face $-1 $102 $103 $15 $-1 $104 reversed single #
loop $-1 $-1 $105 $40 #
plane-surface $-1 0 -25.682914642441173 0 0 1 0 0 0 1 forward_v I I I I #
coedge $-1 $106 $107 $108 $109 forward $41 $-1 #
coedge $-1 $110 $43 $111 $112 forward $26 $-1 #
coedge $-1 $43 $110 $113 $114 forward $26 $-1 #
coedge $-1 $115 $116 $43 $69 reversed $117 $-1 #
edge $-1 $118 -25.682914642441173 $119 25.682914642441173 $68 $120 forward 7 unknown #
face $-1 $121 $122 $16 $-1 $123 reversed single #
loop $-1 $-1 $124 $44 #
plane-surface $-1 0 -31.755396768988028 -0.5477285178001674 0 1 0 0 0 1 forward_v I I I I #
coedge $-1 $125 $126 $127 $128 forward $45 $-1 #
coedge $-1 $129 $47 $130 $131 reversed $29 $-1 #
coedge $-1 $47 $129 $132 $133 forward $29 $-1 #
coedge $-1 $134 $135 $47 $77 reversed $136 $-1 #
edge $-1 $137 -3.0362410632734296 $138 3.0362410632734296 $76 $139 forward 7 unknown #
face $-1 $140 $141 $17 $-1 $142 forward single #
loop $-1 $-1 $143 $48 #
plane-surface $-1 0 25.682914642441173 0 0 -1 0 0 0 -1 forward_v I I I I #
coedge $-1 $144 $145 $143 $146 reversed $49 $-1 #
coedge $-1 $83 $51 $145 $147 forward $32 $-1 #
coedge $-1 $51 $82 $148 $149 reversed $32 $-1 #
coedge $-1 $150 $143 $51 $85 forward $79 $-1 #
edge $-1 $151 -44.997793362189284 $152 -39.969262046935896 $84 $153 forward 7 unknown #
face $-1 $154 $155 $18 $-1 $156 forward single #
loop $-1 $-1 $157 $52 #
plane-surface $-1 -33.466844038687711 70.593488925234368 94.506310328327544 -1 0 0 0 0.82903758062907751 0.55919289150049634 forward_v I I I I #
loop $-1 $-1 $158 $34 #
coedge $-1 $90 $90 $91 $159 forward $53 $-1 #
coedge $-1 $91 $91 $90 $159 reversed $55 $-1 #
coedge $-1 $92 $92 $56 $93 forward $155 $-1 #
edge $-1 $160 -4.9088885882343278e-016 $160 6.2831853071795996 $92 $161 forward 7 unknown #
face $-1 $162 $163 $19 $-1 $164 reversed single #
loop $-1 $165 $166 $57 #
cone-surface $-1 -41.282894188976549 22.455887332729759 3.7368647282948988 0 -0.82903758062907751 -0.55919289150049634 1.5 0 0 1 I I 0 1 1.5 forward I I I I #
loop $-1 $-1 $167 $37 #
coedge $-1 $98 $98 $99 $168 forward $58 $-1 #
coedge $-1 $99 $99 $98 $168 reversed $60 $-1 #
coedge $-1 $100 $100 $61 $101 forward $169 $-1 #
edge $-1 $170 -4.9088885882343278e-016 $170 6.2831853071795996 $100 $171 forward 7 unknown #
face $-1 $172 $173 $15 $-1 $174 reversed single #
loop $-1 $-1 $175 $62 #
plane-surface $-1 -44.409314249092077 0 0 1 0 0 0 0 -1 forward_v I I I I #
coedge $-1 $176 $113 $177 $178 forward $63 $-1 #
coedge $-1 $179 $65 $176 $180 forward $41 $-1 #
coedge $-1 $65 $179 $181 $182 forward $41 $-1 #
coedge $-1 $116 $115 $65 $109 reversed $117 $-1 #
edge $-1 $183 -25.682914642441173 $184 25.682914642441173 $108 $185 forward 7 unknown #
coedge $-1 $67 $66 $186 $187 forward $26 $-1 #
coedge $-1 $188 $189 $66 $112 reversed $173 $-1 #
edge $-1 $119 -44.409314249092077 $190 44.409314249092077 $111 $191 forward 7 unknown #
coedge $-1 $105 $192 $67 $114 reversed $63 $-1 #
edge $-1 $193 -44.409314249092077 $118 44.409314249092077 $113 $194 forward 7 unknown #
coedge $-1 $108 $68 $192 $195 forward $117 $-1 #
coedge $-1 $68 $108 $188 $196 reversed $117 $-1 #
loop $-1 $-1 $115 $172 #
vertex $-1 $69 $197 #
vertex $-1 $69 $198 #
straight-curve $-1 44.409314249092077 0 7.2838931172278771 0 1 0 I I #
face $-1 $199 $200 $16 $-1 $123 reversed single #
loop $-1 $-1 $201 $70 #
plane-surface $-1 0 -25.682914642441173 0 0 1 0 0 0 1 forward_v I I I I #
coedge $-1 $202 $132 $203 $204 forward $71 $-1 #
coedge $-1 $205 $73 $202 $206 forward $45 $-1 #
coedge $-1 $73 $205 $201 $207 reversed $45 $-1 #
coedge $-1 $208 $134 $73 $128 reversed $136 $-1 #
edge $-1 $209 -3.0362410632734296 $210 3.0362410632734296 $127 $211 forward 7 unknown #
coedge $-1 $75 $74 $212 $213 forward $29 $-1 #
coedge $-1 $214 $215 $74 $131 forward $200 $-1 #
edge $-1 $216 -44.409314249092077 $138 44.409314249092077 $130 $217 forward 7 unknown #
coedge $-1 $124 $218 $75 $133 reversed $71 $-1 #
edge $-1 $219 -44.409314249092077 $137 44.409314249092077 $132 $220 forward 7 unknown #
coedge $-1 $127 $76 $218 $221 forward $136 $-1 #
coedge $-1 $76 $222 $214 $223 forward $136 $-1 #
loop $-1 $-1 $135 $224 #
vertex $-1 $77 $225 #
vertex $-1 $77 $226 #
straight-curve $-1 44.409314249092077 -28.719155705714599 0.9522714821998326 0 1 0 I I #
face $-1 $227 $228 $17 $-1 $229 forward single #
loop $-1 $-1 $148 $78 #
plane-surface $-1 0 0 7.2838931172278771 0 0 1 1 0 0 forward_v I I I I #
coedge $-1 $84 $230 $81 $146 forward $79 $-1 #
coedge $-1 $231 $81 $232 $233 reversed $49 $-1 #
coedge $-1 $81 $231 $82 $147 reversed $49 $-1 #
edge $-1 $234 -24.94027467714713 $151 -13.997804466742764 $143 $235 forward 7 unknown #
edge $-1 $151 -51.365829284882345 $236 -45.300324616881994 $82 $237 forward 7 unknown #
coedge $-1 $238 $239 $83 $149 forward $141 $-1 #
edge $-1 $152 9.6138298201760115 $236 13.005616913884889 $148 $240 forward 7 unknown #
coedge $-1 $241 $84 $239 $242 reversed $79 $-1 #
vertex $-1 $146 $243 #
vertex $-1 $149 $244 #
straight-curve $-1 -33.466844038687711 25.682914642441173 47.253155164163772 0 0 1 I I #
face $-1 $245 $246 $18 $-1 $247 reversed single #
loop $-1 $248 $92 $86 #
plane-surface $-1 -38.938079143889894 -3.0404919596930569 44.839564639319562 0 0.82903758062907751 0.55919289150049634 1 0 0 forward_v I I I I #
coedge $-1 $249 $250 $251 $252 reversed $87 $-1 #
coedge $-1 $158 $158 $-1 $253 forward $89 $-1 #
edge $-1 $254 0 $254 6.2831853071796004 $90 $255 forward 7 unknown #
vertex $-1 $93 $256 #
ellipse-curve $-1 -41.282894188976549 23.987021095586741 4.769627459601173 0 -0.82903758062907751 -0.55919289150049634 1.5 0 0 1 I I #
face $-1 $257 $258 $19 $-1 $259 forward single #
loop $-1 $260 $261 $94 #
cone-surface $-1 -41.282894188976549 20.30297538440097 2.2847073283632531 0 -0.82903758062907751 -0.55919289150049634 0.75 0 0 1 I I -0.70710678118654757 0.70710678118654757 0.75 forward I I I I #
loop $-1 $-1 $262 $57 #
coedge $-1 $166 $166 $263 $264 reversed $95 $-1 #
coedge $-1 $167 $167 $-1 $265 forward $97 $-1 #
edge $-1 $266 0 $266 6.2831853071796004 $98 $267 forward 7 unknown #
loop $-1 $268 $100 $257 #
vertex $-1 $101 $269 #
ellipse-curve $-1 -36.593264098803246 23.987021095586741 4.769627459601173 0 -0.82903758062907751 -0.55919289150049634 1.5 0 0 1 I I #
face $-1 $-1 $117 $15 $-1 $270 reversed single #
loop $-1 $-1 $188 $102 #
plane-surface $-1 0 25.682914642441173 0 0 -1 0 0 0 -1 forward_v I I I I #
coedge $-1 $271 $186 $189 $272 forward $103 $-1 #
coedge $-1 $192 $105 $106 $180 reversed $63 $-1 #
coedge $-1 $186 $271 $105 $178 reversed $103 $-1 #
edge $-1 $193 -7.2838931172278771 $273 7.2838931172278771 $177 $274 forward 7 unknown #
coedge $-1 $107 $106 $271 $275 forward $41 $-1 #
edge $-1 $184 -44.409314249092077 $273 44.409314249092077 $176 $276 forward 7 unknown #
coedge $-1 $189 $188 $107 $182 reversed $173 $-1 #
edge $-1 $277 -44.409314249092077 $183 44.409314249092077 $181 $278 forward 7 unknown #
vertex $-1 $109 $279 #
vertex $-1 $195 $280 #
straight-curve $-1 44.409314249092077 0 -7.2838931172278771 0 -1 0 I I #
coedge $-1 $175 $177 $110 $187 reversed $103 $-1 #
edge $-1 $190 -25.682914642441173 $193 25.682914642441173 $186 $281 forward 7 unknown #
coedge $-1 $181 $111 $116 $196 forward $173 $-1 #
coedge $-1 $111 $181 $175 $272 reversed $173 $-1 #
vertex $-1 $112 $282 #
straight-curve $-1 0 25.682914642441173 7.2838931172278771 -1 0 0 I I #
coedge $-1 $113 $176 $115 $195 reversed $63 $-1 #
vertex $-1 $187 $283 #
straight-curve $-1 0 -25.682914642441173 7.2838931172278771 1 0 0 I I #
edge $-1 $118 -7.2838931172278771 $184 7.2838931172278771 $115 $284 forward 7 unknown #
edge $-1 $119 -7.2838931172278771 $183 7.2838931172278771 $116 $285 forward 7 unknown #
point $-1 44.409314249092077 -25.682914642441173 7.2838931172278771 #
point $-1 44.409314249092077 25.682914642441173 7.2838931172278771 #
face $-1 $286 $287 $16 $-1 $288 forward single #
loop $-1 $-1 $130 $121 #
coedge $-1 $289 $290 $126 $207 forward $122 $-1 #
coedge $-1 $218 $124 $125 $206 reversed $71 $-1 #
coedge $-1 $212 $291 $124 $204 reversed $292 $-1 #
edge $-1 $219 -1.5 $293 1.5 $203 $294 forward 7 unknown #
coedge $-1 $126 $125 $291 $295 forward $45 $-1 #
edge $-1 $210 -44.409314249092077 $293 44.409314249092077 $202 $296 forward 7 unknown #
edge $-1 $209 -44.409314249092077 $297 44.409314249092077 $201 $298 forward 7 unknown #
coedge $-1 $299 $127 $290 $300 forward $136 $-1 #
vertex $-1 $300 $301 #
vertex $-1 $221 $302 #
straight-curve $-1 44.409314249092077 -28.719155705714599 -2.0477285178001674 0 -1 0 I I #
coedge $-1 $303 $203 $129 $213 reversed $292 $-1 #
edge $-1 $216 -3.0362410632734296 $219 3.0362410632734296 $212 $304 forward 7 unknown #
coedge $-1 $305 $130 $135 $223 reversed $200 $-1 #
coedge $-1 $130 $305 $303 $306 forward $200 $-1 #
vertex $-1 $306 $307 #
straight-curve $-1 0 -25.682914642441173 0.9522714821998326 1 0 0 I I #
coedge $-1 $132 $202 $134 $221 reversed $71 $-1 #
vertex $-1 $213 $308 #
straight-curve $-1 0 -31.755396768988028 0.9522714821998326 1 0 0 I I #
edge $-1 $137 -1.5 $210 1.5 $134 $309 forward 7 unknown #
coedge $-1 $135 $310 $311 $312 reversed $136 $-1 #
edge $-1 $313 -7.2838931172278771 $138 -0.9522714821998326 $135 $314 forward 7 unknown #
face $-1 $-1 $136 $16 $-1 $315 reversed single #
point $-1 44.409314249092077 -31.755396768988028 0.9522714821998326 #
point $-1 44.409314249092077 -25.682914642441169 0.9522714821998326 #
face $-1 $316 $317 $17 $-1 $318 reversed single #
loop $-1 $-1 $319 $140 #
plane-surface $-1 0 -28.719155705714599 0.9522714821998326 0 0 1 1 0 0 forward_v I I I I #
coedge $-1 $143 $320 $321 $322 reversed $79 $-1 #
coedge $-1 $145 $144 $238 $323 reversed $49 $-1 #
coedge $-1 $321 $324 $144 $233 forward $325 $-1 #
edge $-1 $326 25.863371779098294 $234 31.928876447098645 $232 $327 forward 7 unknown #
vertex $-1 $322 $328 #
straight-curve $-1 -19.469039571944947 25.682914642441176 2.2553618019744803 1 0 0 I I #
vertex $-1 $323 $329 #
straight-curve $-1 -33.466844038687711 -3.0404919596930569 44.839564639319562 0 -0.55919289150049634 0.82903758062907751 I I #
coedge $-1 $330 $148 $231 $323 forward $141 $-1 #
coedge $-1 $148 $331 $150 $242 forward $141 $-1 #
straight-curve $-1 -33.466844038687711 35.296744462617184 7.2838931172278762 0 -1 0 I I #
coedge $-1 $320 $150 $332 $333 forward $79 $-1 #
edge $-1 $334 -44.409314249092077 $152 33.466844038687711 $150 $335 forward 7 unknown #
point $-1 -33.466844038687711 25.682914642441173 2.2553618019744874 #
point $-1 -33.466844038687711 25.682914642441173 7.2838931172278771 #
face $-1 $336 $337 $18 $-1 $338 forward single #
loop $-1 $-1 $339 $154 #
plane-surface $-1 0 25.682914642441173 0 0 -1 0 0 0 -1 forward_v I I I I #
loop $-1 $-1 $340 $86 #
coedge $-1 $250 $157 $341 $342 forward $87 $-1 #
coedge $-1 $157 $249 $343 $344 reversed $87 $-1 #
coedge $-1 $345 $339 $157 $252 forward $246 $-1 #
edge $-1 $346 -44.997793362189284 $347 -39.969262046935896 $251 $348 forward 7 unknown #
edge $-1 $349 1 $349 0 $158 $-1 forward 7 unknown #
vertex $-1 $159 $350 #
ellipse-curve $-1 -41.282894188976549 20.924753569872777 2.7041019969886255 0 0.82903758062907751 0.55919289150049634 1.5 0 0 1 I I #
point $-1 -39.782894188976549 23.987021095586741 4.7696274596011721 #
face $-1 $351 $169 $19 $-1 $352 forward single #
loop $-1 $-1 $353 $162 #
plane-surface $-1 -33.466844038687711 70.593488925234368 94.506310328327544 -1 0 0 0 0.82903758062907751 0.55919289150049634 forward_v I I I I #
loop $-1 $-1 $354 $94 #
coedge $-1 $261 $261 $262 $355 forward $163 $-1 #
coedge $-1 $262 $262 $261 $355 reversed $165 $-1 #
coedge $-1 $263 $263 $166 $264 forward $268 $-1 #
edge $-1 $356 -4.9088885882343278e-016 $356 6.2831853071795996 $263 $357 forward 7 unknown #
edge $-1 $358 1 $358 0 $167 $-1 forward 7 unknown #
vertex $-1 $168 $359 #
ellipse-curve $-1 -36.593264098803246 20.924753569872777 2.7041019969886255 0 0.82903758062907751 0.55919289150049634 1.5 0 0 1 I I #
loop $-1 $360 $263 $257 #
point $-1 -35.093264098803246 23.987021095586741 4.7696274596011721 #
plane-surface $-1 44.409314249092077 0 0 -1 0 0 0 0 1 forward_v I I I I #
coedge $-1 $177 $175 $179 $275 reversed $103 $-1 #
edge $-1 $190 -7.2838931172278771 $277 7.2838931172278771 $189 $361 forward 7 unknown #
vertex $-1 $275 $362 #
straight-curve $-1 -44.409314249092077 -25.682914642441173 0 0 0 -1 I I #
edge $-1 $273 -25.682914642441173 $277 25.682914642441173 $271 $363 forward 7 unknown #
straight-curve $-1 0 -25.682914642441173 -7.2838931172278771 -1 0 0 I I #
vertex $-1 $182 $364 #
straight-curve $-1 0 25.682914642441173 -7.2838931172278771 1 0 0 I I #
point $-1 44.409314249092077 25.682914642441173 -7.2838931172278771 #
point $-1 44.409314249092077 -25.682914642441173 -7.2838931172278771 #
straight-curve $-1 -44.409314249092077 0 7.2838931172278771 0 -1 0 I I #
point $-1 -44.409314249092077 25.682914642441173 7.2838931172278771 #
point $-1 -44.409314249092077 -25.682914642441173 7.2838931172278771 #
straight-curve $-1 44.409314249092077 -25.682914642441173 0 0 0 -1 I I #
straight-curve $-1 44.409314249092077 25.682914642441173 0 0 0 -1 I I #
face $-1 $365 $366 $16 $-1 $367 reversed single #
loop $-1 $-1 $311 $199 #
plane-surface $-1 0 0 7.2838931172278771 0 0 1 1 0 0 forward_v I I I I #
coedge $-1 $368 $201 $369 $370 forward $122 $-1 #
coedge $-1 $201 $368 $208 $300 reversed $122 $-1 #
coedge $-1 $203 $369 $205 $295 reversed $292 $-1 #
loop $-1 $-1 $371 $365 #
vertex $-1 $295 $372 #
straight-curve $-1 -44.409314249092077 -31.755396768988028 -0.5477285178001674 0 0 -1 I I #
edge $-1 $293 -3.0362410632734296 $297 3.0362410632734296 $291 $373 forward 7 unknown #
straight-curve $-1 0 -31.755396768988028 -2.0477285178001674 -1 0 0 I I #
vertex $-1 $370 $374 #
straight-curve $-1 0 -25.682914642441173 -2.0477285178001674 -1 0 0 I I #
coedge $-1 $310 $208 $375 $376 reversed $136 $-1 #
edge $-1 $209 2.0477285178001674 $377 7.2838931172278771 $208 $314 forward 7 unknown #
point $-1 44.409314249092077 -25.682914642441169 -2.0477285178001674 #
point $-1 44.409314249092077 -31.755396768988028 -2.0477285178001674 #
coedge $-1 $378 $212 $215 $306 reversed $292 $-1 #
straight-curve $-1 -44.409314249092077 -28.719155705714599 0.9522714821998326 0 -1 0 I I #
coedge $-1 $215 $214 $379 $380 reversed $200 $-1 #
edge $-1 $381 -7.2838931172278771 $216 -0.9522714821998326 $303 $382 forward 7 unknown #
point $-1 -44.409314249092077 -25.682914642441169 0.9522714821998326 #
point $-1 -44.409314249092077 -31.755396768988028 0.9522714821998326 #
straight-curve $-1 44.409314249092077 -31.755396768988028 -0.5477285178001674 0 0 -1 I I #
coedge $-1 $222 $299 $383 $384 reversed $136 $-1 #
coedge $-1 $385 $379 $222 $312 forward $287 $-1 #
edge $-1 $313 -25.682914642441173 $386 25.682914642441173 $222 $387 forward 7 unknown #
vertex $-1 $312 $388 #
straight-curve $-1 44.409314249092077 -25.682914642441173 0 0 0 -1 I I #
plane-surface $-1 44.409314249092077 0 0 -1 0 0 0 0 1 forward_v I I I I #
face $-1 $389 $390 $17 $-1 $391 reversed single #
loop $-1 $-1 $392 $227 #
plane-surface $-1 0 -28.719155705714599 -2.0477285178001674 0 0 1 1 0 0 forward_v I I I I #
coedge $-1 $393 $394 $395 $396 forward $228 $-1 #
coedge $-1 $230 $241 $397 $398 reversed $79 $-1 #
coedge $-1 $399 $232 $230 $322 forward $325 $-1 #
edge $-1 $234 -2.2553618019744848 $400 7.2838931172278771 $230 $401 forward 7 unknown #
edge $-1 $236 13.997804466742764 $326 24.94027467714713 $238 $402 forward 7 unknown #
coedge $-1 $232 $403 $330 $404 reversed $325 $-1 #
loop $-1 $-1 $232 $405 #
vertex $-1 $404 $406 #
straight-curve $-1 -44.409314249092077 7.8285138996259853 28.725600283881882 0 0.55919289150049634 -0.82903758062907751 I I #
point $-1 -44.409314249092077 25.682914642441173 2.2553618019744848 #
point $-1 -33.466844038687711 22.291127548732295 7.2838931172278762 #
coedge $-1 $407 $238 $324 $404 forward $141 $-1 #
coedge $-1 $239 $407 $408 $409 forward $141 $-1 #
coedge $-1 $408 $410 $241 $333 reversed $411 $-1 #
edge $-1 $334 -7.2838931172278771 $412 7.2838931172278771 $332 $413 forward 7 unknown #
vertex $-1 $409 $414 #
straight-curve $-1 0 25.682914642441173 7.2838931172278771 -1 0 0 I I #
face $-1 $415 $416 $18 $-1 $417 forward single #
loop $-1 $-1 $343 $245 #
plane-surface $-1 0 0 7.2838931172278771 0 0 1 1 0 0 forward_v I I I I #
coedge $-1 $251 $418 $340 $419 forward $246 $-1 #
coedge $-1 $420 $341 $339 $419 reversed $248 $-1 #
coedge $-1 $340 $421 $249 $342 reversed $248 $-1 #
edge $-1 $346 -51.365829284882345 $422 -45.300324616881994 $249 $423 forward 7 unknown #
coedge $-1 $424 $425 $250 $344 forward $337 $-1 #
edge $-1 $347 9.6138298201760115 $422 13.005616913884889 $343 $426 forward 7 unknown #
coedge $-1 $427 $251 $425 $428 reversed $246 $-1 #
vertex $-1 $419 $429 #
vertex $-1 $344 $430 #
straight-curve $-1 -33.466844038687711 25.682914642441173 47.253155164163772 0 0 1 I I #
vertex $-1 $253 $431 #
point $-1 -39.782894188976549 20.924753569872777 2.7041019969886255 #
face $-1 $432 $433 $19 $-1 $434 reversed single #
plane-surface $-1 -38.938079143889894 -3.0404919596930569 44.839564639319562 0 0.82903758062907751 0.55919289150049634 1 0 0 forward_v I I I I #
coedge $-1 $435 $436 $437 $438 reversed $258 $-1 #
coedge $-1 $354 $354 $-1 $439 forward $260 $-1 #
edge $-1 $440 0 $440 6.2831853071796004 $261 $441 forward 7 unknown #
vertex $-1 $264 $442 #
ellipse-curve $-1 -41.282894188976549 23.987021095586741 4.769627459601173 0 -0.82903758062907751 -0.55919289150049634 1.5 0 0 1 I I #
vertex $-1 $265 $443 #
point $-1 -35.093264098803246 20.924753569872777 2.7041019969886255 #
loop $-1 $-1 $444 $257 #
straight-curve $-1 -44.409314249092077 25.682914642441173 0 0 0 -1 I I #
point $-1 -44.409314249092077 -25.682914642441173 -7.2838931172278771 #
straight-curve $-1 -44.409314249092077 0 -7.2838931172278771 0 1 0 I I #
point $-1 -44.409314249092077 25.682914642441173 -7.2838931172278771 #
face $-1 $445 $292 $16 $-1 $446 reversed single #
loop $-1 $-1 $375 $286 #
plane-surface $-1 0 0 -7.2838931172278771 0 0 1 1 0 0 forward_v I I I I #
coedge $-1 $290 $289 $447 $448 reversed $122 $-1 #
coedge $-1 $291 $449 $289 $370 reversed $292 $-1 #
edge $-1 $297 2.0477285178001674 $450 7.2838931172278771 $369 $382 forward 7 unknown #
coedge $-1 $449 $378 $451 $452 forward $292 $-1 #
point $-1 -44.409314249092077 -31.755396768988028 -2.0477285178001674 #
straight-curve $-1 -44.409314249092077 -28.719155705714599 -2.0477285178001674 0 1 0 I I #
point $-1 -44.409314249092077 -25.682914642441169 -2.0477285178001674 #
coedge $-1 $447 $453 $299 $376 forward $366 $-1 #
edge $-1 $454 -25.682914642441173 $377 25.682914642441173 $299 $455 forward 7 unknown #
vertex $-1 $300 $456 #
coedge $-1 $371 $303 $457 $458 reversed $292 $-1 #
coedge $-1 $311 $457 $305 $380 forward $287 $-1 #
edge $-1 $381 -44.409314249092077 $313 44.409314249092077 $305 $459 forward 7 unknown #
vertex $-1 $458 $460 #
straight-curve $-1 -44.409314249092077 -25.682914642441173 0 0 0 -1 I I #
coedge $-1 $461 $462 $310 $384 forward $463 $-1 #
edge $-1 $386 -7.2838931172278771 $454 7.2838931172278771 $310 $464 forward 7 unknown #
coedge $-1 $457 $311 $462 $465 forward $287 $-1 #
vertex $-1 $312 $466 #
straight-curve $-1 44.409314249092077 0 7.2838931172278771 0 1 0 I I #
point $-1 44.409314249092077 -25.682914642441173 7.2838931172278771 #
face $-1 $467 $468 $17 $-1 $469 reversed single #
loop $-1 $-1 $470 $316 #
plane-surface $-1 0 -31.755396768988028 -0.5477285178001674 0 1 0 0 0 1 forward_v I I I I #
coedge $-1 $471 $472 $473 $474 forward $317 $-1 #
coedge $-1 $475 $319 $476 $477 reversed $228 $-1 #
coedge $-1 $319 $475 $478 $479 forward $228 $-1 #
coedge $-1 $480 $481 $319 $396 reversed $411 $-1 #
edge $-1 $482 -3.0362410632734296 $483 3.0362410632734296 $395 $484 forward 7 unknown #
coedge $-1 $485 $486 $320 $398 forward $487 $-1 #
edge $-1 $400 -44.409314249092077 $412 44.409314249092077 $320 $488 forward 7 unknown #
coedge $-1 $489 $321 $486 $490 reversed $325 $-1 #
vertex $-1 $398 $491 #
straight-curve $-1 -44.409314249092077 25.682914642441173 0 0 0 -1 I I #
straight-curve $-1 -19.469039571944947 22.291127548732298 7.2838931172278762 -1 0 0 I I #
coedge $-1 $324 $492 $493 $494 reversed $325 $-1 #
edge $-1 $326 -22.291127548732295 $495 25.682914642441173 $324 $496 forward 7 unknown #
face $-1 $497 $325 $17 $-1 $498 reversed single #
point $-1 -44.409314249092077 22.291127548732295 7.2838931172278762 #
coedge $-1 $331 $330 $499 $500 forward $141 $-1 #
coedge $-1 $481 $332 $331 $409 reversed $411 $-1 #
edge $-1 $501 -25.682914642441173 $334 25.682914642441173 $408 $502 forward 7 unknown #
coedge $-1 $332 $503 $485 $504 reversed $411 $-1 #
loop $-1 $-1 $481 $497 #
vertex $-1 $504 $505 #
straight-curve $-1 44.409314249092077 25.682914642441173 0 0 0 -1 I I #
point $-1 44.409314249092077 25.682914642441173 7.2838931172278771 #
face $-1 $506 $507 $18 $-1 $508 reversed single #
loop $-1 $-1 $509 $336 #
plane-surface $-1 0 -28.719155705714599 0.9522714821998326 0 0 1 1 0 0 forward_v I I I I #
coedge $-1 $339 $510 $511 $512 reversed $246 $-1 #
edge $-1 $513 -24.94027467714713 $346 -13.997804466742764 $339 $514 forward 7 unknown #
coedge $-1 $421 $340 $515 $516 reversed $248 $-1 #
coedge $-1 $341 $420 $424 $517 reversed $248 $-1 #
vertex $-1 $517 $518 #
straight-curve $-1 -33.466844038687711 -3.0404919596930569 44.839564639319562 0 -0.55919289150049634 0.82903758062907751 I I #
coedge $-1 $519 $343 $421 $517 forward $337 $-1 #
coedge $-1 $343 $520 $345 $428 forward $337 $-1 #
straight-curve $-1 -33.466844038687711 35.296744462617184 7.2838931172278762 0 -1 0 I I #
coedge $-1 $510 $345 $521 $522 forward $246 $-1 #
edge $-1 $523 -44.409314249092077 $347 33.466844038687711 $345 $524 forward 7 unknown #
point $-1 -33.466844038687711 25.682914642441173 2.2553618019744874 #
point $-1 -33.466844038687711 25.682914642441173 7.2838931172278771 #
point $-1 -41.282894188976549 19.681197198929162 1.8653126597378809 #
face $-1 $525 $526 $19 $-1 $527 forward single #
loop $-1 $-1 $528 $351 #
plane-surface $-1 0 25.682914642441173 0 0 -1 0 0 0 -1 forward_v I I I I #
coedge $-1 $436 $353 $529 $530 forward $258 $-1 #
coedge $-1 $353 $435 $531 $532 reversed $258 $-1 #
coedge $-1 $533 $528 $353 $438 forward $433 $-1 #
edge $-1 $534 -44.997793362189284 $535 -39.969262046935896 $437 $536 forward 7 unknown #
edge $-1 $537 1 $537 0 $354 $-1 forward 7 unknown #
vertex $-1 $355 $538 #
ellipse-curve $-1 -41.282894188976549 20.924753569872777 2.7041019969886255 0 0.82903758062907751 0.55919289150049634 1.5 0 0 1 I I #
point $-1 -39.782894188976549 23.987021095586741 4.7696274596011721 #
point $-1 -36.593264098803246 19.681197198929162 1.8653126597378809 #
coedge $-1 $539 $529 $528 $540 reversed $360 $-1 #
face $-1 $224 $463 $16 $-1 $541 reversed single #
plane-surface $-1 -44.409314249092077 0 0 1 0 0 0 0 -1 forward_v I I I I #
coedge $-1 $542 $375 $368 $448 forward $366 $-1 #
edge $-1 $377 -44.409314249092077 $450 44.409314249092077 $368 $543 forward 7 unknown #
coedge $-1 $369 $371 $542 $544 reversed $292 $-1 #
vertex $-1 $544 $545 #
coedge $-1 $462 $461 $371 $452 reversed $463 $-1 #
edge $-1 $546 -7.2838931172278771 $547 7.2838931172278771 $451 $548 forward 7 unknown #
coedge $-1 $375 $542 $461 $549 forward $366 $-1 #
vertex $-1 $376 $550 #
straight-curve $-1 44.409314249092077 0 -7.2838931172278771 0 -1 0 I I #
point $-1 44.409314249092077 -25.682914642441173 -7.2838931172278771 #
coedge $-1 $379 $385 $378 $458 forward $287 $-1 #
edge $-1 $546 -25.682914642441173 $381 25.682914642441173 $378 $551 forward 7 unknown #
straight-curve $-1 0 -25.682914642441173 7.2838931172278771 1 0 0 I I #
point $-1 -44.409314249092077 -25.682914642441173 7.2838931172278771 #
coedge $-1 $451 $383 $453 $549 reversed $463 $-1 #
coedge $-1 $383 $451 $385 $465 reversed $463 $-1 #
loop $-1 $-1 $383 $445 #
straight-curve $-1 44.409314249092077 25.682914642441173 0 0 0 -1 I I #
edge $-1 $386 -44.409314249092077 $546 44.409314249092077 $462 $552 forward 7 unknown #
point $-1 44.409314249092077 25.682914642441173 7.2838931172278771 #
face $-1 $553 $554 $17 $-1 $469 reversed single #
loop $-1 $-1 $555 $389 #
plane-surface $-1 0 -25.682914642441173 0 0 1 0 0 0 1 forward_v I I I I #
coedge $-1 $556 $478 $557 $558 forward $390 $-1 #
coedge $-1 $559 $392 $556 $560 forward $317 $-1 #
coedge $-1 $392 $559 $555 $561 reversed $317 $-1 #
coedge $-1 $503 $480 $392 $474 reversed $411 $-1 #
edge $-1 $562 -3.0362410632734296 $563 3.0362410632734296 $473 $564 forward 7 unknown #
coedge $-1 $394 $393 $492 $565 forward $228 $-1 #
coedge $-1 $566 $493 $393 $477 forward $554 $-1 #
edge $-1 $567 -44.409314249092077 $483 44.409314249092077 $476 $568 forward 7 unknown #
coedge $-1 $470 $569 $394 $479 reversed $390 $-1 #
edge $-1 $570 -44.409314249092077 $482 44.409314249092077 $478 $571 forward 7 unknown #
coedge $-1 $473 $395 $569 $572 forward $411 $-1 #
coedge $-1 $395 $408 $566 $573 forward $411 $-1 #
vertex $-1 $396 $574 #
vertex $-1 $396 $575 #
straight-curve $-1 44.409314249092077 -28.719155705714599 0.9522714821998326 0 1 0 I I #
coedge $-1 $576 $397 $410 $504 forward $487 $-1 #
coedge $-1 $397 $576 $399 $490 forward $487 $-1 #
loop $-1 $-1 $485 $553 #
straight-curve $-1 0 25.682914642441173 -7.2838931172278771 1 0 0 I I #
coedge $-1 $577 $399 $578 $579 reversed $325 $-1 #
edge $-1 $580 -25.682914642441173 $400 25.682914642441173 $399 $581 forward 7 unknown #
point $-1 -44.409314249092077 25.682914642441173 -7.2838931172278771 #
coedge $-1 $403 $557 $475 $565 reversed $325 $-1 #
coedge $-1 $476 $499 $403 $494 forward $554 $-1 #
edge $-1 $495 -7.2838931172278771 $567 -0.9522714821998326 $403 $582 forward 7 unknown #
vertex $-1 $404 $583 #
straight-curve $-1 -44.409314249092077 0 7.2838931172278771 0 -1 0 I I #
face $-1 $-1 $411 $17 $-1 $584 reversed single #
plane-surface $-1 -44.409314249092077 0 0 1 0 0 0 0 -1 forward_v I I I I #
coedge $-1 $493 $566 $407 $500 reversed $554 $-1 #
edge $-1 $495 -44.409314249092077 $501 44.409314249092077 $499 $585 forward 7 unknown #
vertex $-1 $409 $586 #
straight-curve $-1 44.409314249092077 0 7.2838931172278771 0 1 0 I I #
coedge $-1 $410 $473 $587 $588 forward $411 $-1 #
edge $-1 $412 -25.682914642441173 $589 25.682914642441173 $410 $590 forward 7 unknown #
point $-1 44.409314249092077 25.682914642441173 -7.2838931172278771 #
face $-1 $591 $592 $18 $-1 $593 reversed single #
loop $-1 $-1 $594 $415 #
plane-surface $-1 0 -28.719155705714599 -2.0477285178001674 0 0 1 1 0 0 forward_v I I I I #
coedge $-1 $595 $596 $597 $598 forward $416 $-1 #
coedge $-1 $418 $427 $599 $600 reversed $246 $-1 #
coedge $-1 $601 $515 $418 $512 forward $602 $-1 #
edge $-1 $513 -2.2553618019744848 $603 7.2838931172278771 $418 $604 forward 7 unknown #
vertex $-1 $512 $605 #
straight-curve $-1 -19.469039571944947 25.682914642441176 2.2553618019744803 1 0 0 I I #
coedge $-1 $511 $606 $420 $516 forward $602 $-1 #
edge $-1 $607 25.863371779098294 $513 31.928876447098645 $515 $608 forward 7 unknown #
edge $-1 $422 13.997804466742764 $607 24.94027467714713 $424 $609 forward 7 unknown #
point $-1 -33.466844038687711 22.291127548732295 7.2838931172278762 #
coedge $-1 $610 $424 $606 $611 forward $337 $-1 #
coedge $-1 $425 $610 $612 $613 forward $337 $-1 #
coedge $-1 $612 $614 $427 $522 reversed $615 $-1 #
edge $-1 $523 -7.2838931172278771 $616 7.2838931172278771 $521 $617 forward 7 unknown #
vertex $-1 $613 $618 #
straight-curve $-1 0 25.682914642441173 7.2838931172278771 -1 0 0 I I #
face $-1 $619 $620 $19 $-1 $621 forward single #
loop $-1 $-1 $531 $432 #
plane-surface $-1 0 0 7.2838931172278771 0 0 1 1 0 0 forward_v I I I I #
coedge $-1 $437 $622 $444 $540 forward $433 $-1 #
coedge $-1 $444 $623 $435 $530 reversed $360 $-1 #
edge $-1 $534 -51.365829284882345 $624 -45.300324616881994 $435 $625 forward 7 unknown #
coedge $-1 $626 $627 $436 $532 forward $526 $-1 #
edge $-1 $535 9.6138298201760115 $624 13.005616913884889 $531 $628 forward 7 unknown #
coedge $-1 $629 $437 $627 $630 reversed $433 $-1 #
vertex $-1 $540 $631 #
vertex $-1 $532 $632 #
straight-curve $-1 -33.466844038687711 25.682914642441173 47.253155164163772 0 0 1 I I #
vertex $-1 $439 $633 #
point $-1 -39.782894188976549 20.924753569872777 2.7041019969886255 #
coedge $-1 $623 $444 $634 $635 reversed $360 $-1 #
edge $-1 $636 -24.94027467714713 $534 -13.997804466742764 $528 $637 forward 7 unknown #
plane-surface $-1 0 25.682914642441173 0 0 -1 0 0 0 -1 forward_v I I I I #
coedge $-1 $453 $447 $449 $544 forward $366 $-1 #
straight-curve $-1 0 -25.682914642441173 -7.2838931172278771 -1 0 0 I I #
edge $-1 $450 -25.682914642441173 $547 25.682914642441173 $449 $638 forward 7 unknown #
point $-1 -44.409314249092077 -25.682914642441173 -7.2838931172278771 #
vertex $-1 $465 $639 #
vertex $-1 $549 $640 #
straight-curve $-1 -44.409314249092077 25.682914642441173 0 0 0 -1 I I #
edge $-1 $547 -44.409314249092077 $454 44.409314249092077 $461 $641 forward 7 unknown #
point $-1 44.409314249092077 25.682914642441173 -7.2838931172278771 #
straight-curve $-1 -44.409314249092077 0 7.2838931172278771 0 -1 0 I I #
straight-curve $-1 0 25.682914642441173 7.2838931172278771 -1 0 0 I I #
face $-1 $405 $487 $17 $-1 $642 reversed single #
loop $-1 $-1 $476 $467 #
coedge $-1 $578 $587 $472 $561 forward $468 $-1 #
coedge $-1 $569 $470 $471 $560 reversed $390 $-1 #
coedge $-1 $492 $577 $470 $558 reversed $325 $-1 #
edge $-1 $570 -1.5 $643 1.5 $557 $644 forward 7 unknown #
coedge $-1 $472 $471 $577 $645 forward $317 $-1 #
edge $-1 $563 -44.409314249092077 $643 44.409314249092077 $556 $646 forward 7 unknown #
edge $-1 $562 -44.409314249092077 $647 44.409314249092077 $555 $648 forward 7 unknown #
vertex $-1 $588 $649 #
vertex $-1 $572 $650 #
straight-curve $-1 44.409314249092077 -28.719155705714599 -2.0477285178001674 0 -1 0 I I #
edge $-1 $567 -3.0362410632734296 $570 3.0362410632734296 $492 $651 forward 7 unknown #
coedge $-1 $499 $476 $481 $573 reversed $554 $-1 #
vertex $-1 $494 $652 #
straight-curve $-1 0 -25.682914642441173 0.9522714821998326 1 0 0 I I #
coedge $-1 $478 $556 $480 $572 reversed $390 $-1 #
vertex $-1 $565 $653 #
straight-curve $-1 0 -31.755396768988028 0.9522714821998326 1 0 0 I I #
edge $-1 $482 -1.5 $563 1.5 $480 $654 forward 7 unknown #
edge $-1 $501 -7.2838931172278771 $483 -0.9522714821998326 $481 $655 forward 7 unknown #
point $-1 44.409314249092077 -31.755396768988028 0.9522714821998326 #
point $-1 44.409314249092077 -25.682914642441169 0.9522714821998326 #
coedge $-1 $486 $485 $656 $657 forward $487 $-1 #
coedge $-1 $557 $489 $559 $645 reversed $325 $-1 #
coedge $-1 $656 $555 $489 $579 forward $468 $-1 #
edge $-1 $647 2.0477285178001674 $580 7.2838931172278771 $489 $582 forward 7 unknown #
vertex $-1 $490 $658 #
straight-curve $-1 -44.409314249092077 0 -7.2838931172278771 0 1 0 I I #
straight-curve $-1 -44.409314249092077 -25.682914642441173 0 0 0 -1 I I #
point $-1 -44.409314249092077 -25.682914642441173 7.2838931172278771 #
plane-surface $-1 44.409314249092077 0 0 -1 0 0 0 0 1 forward_v I I I I #
straight-curve $-1 0 -25.682914642441173 7.2838931172278771 1 0 0 I I #
point $-1 44.409314249092077 -25.682914642441173 7.2838931172278771 #
coedge $-1 $555 $656 $503 $588 reversed $468 $-1 #
edge $-1 $562 2.0477285178001674 $589 7.2838931172278771 $503 $655 forward 7 unknown #
vertex $-1 $588 $659 #
straight-curve $-1 44.409314249092077 0 -7.2838931172278771 0 -1 0 I I #
face $-1 $660 $661 $18 $-1 $662 reversed single #
loop $-1 $-1 $663 $506 #
plane-surface $-1 0 -31.755396768988028 -0.5477285178001674 0 1 0 0 0 1 forward_v I I I I #
coedge $-1 $664 $665 $666 $667 forward $507 $-1 #
coedge $-1 $668 $509 $669 $670 reversed $416 $-1 #
coedge $-1 $509 $668 $671 $672 forward $416 $-1 #
coedge $-1 $673 $674 $509 $598 reversed $615 $-1 #
edge $-1 $675 -3.0362410632734296 $676 3.0362410632734296 $597 $677 forward 7 unknown #
coedge $-1 $678 $679 $510 $600 forward $680 $-1 #
edge $-1 $603 -44.409314249092077 $616 44.409314249092077 $510 $681 forward 7 unknown #
coedge $-1 $682 $511 $679 $683 reversed $602 $-1 #
loop $-1 $-1 $515 $684 #
vertex $-1 $600 $685 #
straight-curve $-1 -44.409314249092077 25.682914642441173 0 0 0 -1 I I #
point $-1 -44.409314249092077 25.682914642441173 2.2553618019744848 #
coedge $-1 $515 $686 $519 $611 reversed $602 $-1 #
vertex $-1 $611 $687 #
straight-curve $-1 -44.409314249092077 7.8285138996259853 28.725600283881882 0 0.55919289150049634 -0.82903758062907751 I I #
straight-curve $-1 -19.469039571944947 22.291127548732298 7.2838931172278762 -1 0 0 I I #
coedge $-1 $520 $519 $688 $689 forward $337 $-1 #
edge $-1 $607 -22.291127548732295 $690 25.682914642441173 $606 $691 forward 7 unknown #
coedge $-1 $674 $521 $520 $613 reversed $615 $-1 #
edge $-1 $692 -25.682914642441173 $523 25.682914642441173 $612 $693 forward 7 unknown #
coedge $-1 $521 $694 $678 $695 reversed $615 $-1 #
loop $-1 $-1 $674 $696 #
vertex $-1 $695 $697 #
straight-curve $-1 44.409314249092077 25.682914642441173 0 0 0 -1 I I #
point $-1 44.409314249092077 25.682914642441173 7.2838931172278771 #
face $-1 $698 $699 $19 $-1 $700 reversed single #
loop $-1 $-1 $701 $525 #
plane-surface $-1 0 -28.719155705714599 0.9522714821998326 0 0 1 1 0 0 forward_v I I I I #
coedge $-1 $528 $702 $703 $704 reversed $433 $-1 #
coedge $-1 $529 $539 $626 $705 reversed $360 $-1 #
vertex $-1 $705 $706 #
straight-curve $-1 -33.466844038687711 -3.0404919596930569 44.839564639319562 0 -0.55919289150049634 0.82903758062907751 I I #
coedge $-1 $707 $531 $623 $705 forward $526 $-1 #
coedge $-1 $531 $708 $533 $630 forward $526 $-1 #
straight-curve $-1 -33.466844038687711 35.296744462617184 7.2838931172278762 0 -1 0 I I #
coedge $-1 $702 $533 $709 $710 forward $433 $-1 #
edge $-1 $711 -44.409314249092077 $535 33.466844038687711 $533 $712 forward 7 unknown #
point $-1 -33.466844038687711 25.682914642441173 2.2553618019744874 #
point $-1 -33.466844038687711 25.682914642441173 7.2838931172278771 #
point $-1 -41.282894188976549 19.681197198929162 1.8653126597378809 #
coedge $-1 $703 $713 $539 $635 forward $714 $-1 #
edge $-1 $715 25.863371779098294 $636 31.928876447098645 $634 $716 forward 7 unknown #
vertex $-1 $704 $717 #
straight-curve $-1 -19.469039571944947 25.682914642441176 2.2553618019744803 1 0 0 I I #
straight-curve $-1 -44.409314249092077 0 -7.2838931172278771 0 1 0 I I #
point $-1 -44.409314249092077 25.682914642441173 7.2838931172278771 #
point $-1 -44.409314249092077 25.682914642441173 -7.2838931172278771 #
straight-curve $-1 0 25.682914642441173 -7.2838931172278771 1 0 0 I I #
plane-surface $-1 0 0 -7.2838931172278771 0 0 1 1 0 0 forward_v I I I I #
vertex $-1 $645 $718 #
straight-curve $-1 -44.409314249092077 -31.755396768988028 -0.5477285178001674 0 0 -1 I I #
edge $-1 $643 -3.0362410632734296 $647 3.0362410632734296 $577 $719 forward 7 unknown #
straight-curve $-1 0 -31.755396768988028 -2.0477285178001674 -1 0 0 I I #
vertex $-1 $579 $720 #
straight-curve $-1 0 -25.682914642441173 -2.0477285178001674 -1 0 0 I I #
point $-1 44.409314249092077 -25.682914642441169 -2.0477285178001674 #
point $-1 44.409314249092077 -31.755396768988028 -2.0477285178001674 #
straight-curve $-1 -44.409314249092077 -28.719155705714599 0.9522714821998326 0 -1 0 I I #
point $-1 -44.409314249092077 -25.682914642441169 0.9522714821998326 #
point $-1 -44.409314249092077 -31.755396768988028 0.9522714821998326 #
straight-curve $-1 44.409314249092077 -31.755396768988028 -0.5477285178001674 0 0 -1 I I #
straight-curve $-1 44.409314249092077 -25.682914642441173 0 0 0 -1 I I #
coedge $-1 $587 $578 $576 $657 reversed $468 $-1 #
edge $-1 $589 -44.409314249092077 $580 44.409314249092077 $656 $721 forward 7 unknown #
point $-1 -44.409314249092077 -25.682914642441173 -7.2838931172278771 #
point $-1 44.409314249092077 -25.682914642441173 -7.2838931172278771 #
face $-1 $722 $723 $18 $-1 $662 reversed single #
loop $-1 $-1 $724 $591 #
plane-surface $-1 0 -25.682914642441173 0 0 1 0 0 0 1 forward_v I I I I #
coedge $-1 $725 $671 $726 $727 forward $592 $-1 #
coedge $-1 $728 $594 $725 $729 forward $507 $-1 #
coedge $-1 $594 $728 $724 $730 reversed $507 $-1 #
coedge $-1 $694 $673 $594 $667 reversed $615 $-1 #
edge $-1 $731 -3.0362410632734296 $732 3.0362410632734296 $666 $733 forward 7 unknown #
coedge $-1 $596 $595 $734 $735 forward $416 $-1 #
coedge $-1 $736 $737 $595 $670 forward $723 $-1 #
edge $-1 $738 -44.409314249092077 $676 44.409314249092077 $669 $739 forward 7 unknown #
coedge $-1 $663 $740 $596 $672 reversed $592 $-1 #
edge $-1 $741 -44.409314249092077 $675 44.409314249092077 $671 $742 forward 7 unknown #
coedge $-1 $666 $597 $740 $743 forward $615 $-1 #
coedge $-1 $597 $612 $736 $744 forward $615 $-1 #
vertex $-1 $598 $745 #
vertex $-1 $598 $746 #
straight-curve $-1 44.409314249092077 -28.719155705714599 0.9522714821998326 0 1 0 I I #
coedge $-1 $747 $599 $614 $695 forward $680 $-1 #
coedge $-1 $599 $747 $601 $683 forward $680 $-1 #
loop $-1 $-1 $678 $722 #
straight-curve $-1 0 25.682914642441173 -7.2838931172278771 1 0 0 I I #
coedge $-1 $748 $601 $749 $750 reversed $602 $-1 #
edge $-1 $751 -25.682914642441173 $603 25.682914642441173 $601 $752 forward 7 unknown #
face $-1 $696 $602 $18 $-1 $753 reversed single #
point $-1 -44.409314249092077 25.682914642441173 -7.2838931172278771 #
coedge $-1 $606 $734 $737 $754 reversed $602 $-1 #
point $-1 -44.409314249092077 22.291127548732295 7.2838931172278762 #
coedge $-1 $737 $736 $610 $689 reversed $723 $-1 #
edge $-1 $690 -44.409314249092077 $692 44.409314249092077 $688 $755 forward 7 unknown #
vertex $-1 $611 $756 #
straight-curve $-1 -44.409314249092077 0 7.2838931172278771 0 -1 0 I I #
vertex $-1 $613 $757 #
straight-curve $-1 44.409314249092077 0 7.2838931172278771 0 1 0 I I #
coedge $-1 $614 $666 $758 $759 forward $615 $-1 #
edge $-1 $616 -25.682914642441173 $760 25.682914642441173 $614 $761 forward 7 unknown #
face $-1 $-1 $615 $18 $-1 $762 reversed single #
point $-1 44.409314249092077 25.682914642441173 -7.2838931172278771 #
face $-1 $763 $764 $19 $-1 $765 reversed single #
loop $-1 $-1 $766 $619 #
plane-surface $-1 0 -28.719155705714599 -2.0477285178001674 0 0 1 1 0 0 forward_v I I I I #
coedge $-1 $767 $768 $769 $770 forward $620 $-1 #
coedge $-1 $622 $629 $771 $772 reversed $433 $-1 #
coedge $-1 $773 $634 $622 $704 forward $714 $-1 #
edge $-1 $636 -2.2553618019744848 $774 7.2838931172278771 $622 $775 forward 7 unknown #
edge $-1 $624 13.997804466742764 $715 24.94027467714713 $626 $776 forward 7 unknown #
point $-1 -33.466844038687711 22.291127548732295 7.2838931172278762 #
coedge $-1 $777 $626 $713 $778 forward $526 $-1 #
coedge $-1 $627 $777 $779 $780 forward $526 $-1 #
coedge $-1 $779 $781 $629 $710 reversed $782 $-1 #
edge $-1 $711 -7.2838931172278771 $783 7.2838931172278771 $709 $784 forward 7 unknown #
vertex $-1 $780 $785 #
straight-curve $-1 0 25.682914642441173 7.2838931172278771 -1 0 0 I I #
coedge $-1 $634 $786 $707 $778 reversed $714 $-1 #
loop $-1 $-1 $634 $787 #
vertex $-1 $778 $788 #
straight-curve $-1 -44.409314249092077 7.8285138996259853 28.725600283881882 0 0.55919289150049634 -0.82903758062907751 I I #
point $-1 -44.409314249092077 25.682914642441173 2.2553618019744848 #
point $-1 -44.409314249092077 -31.755396768988028 -2.0477285178001674 #
straight-curve $-1 -44.409314249092077 -28.719155705714599 -2.0477285178001674 0 1 0 I I #
point $-1 -44.409314249092077 -25.682914642441169 -2.0477285178001674 #
straight-curve $-1 0 -25.682914642441173 -7.2838931172278771 -1 0 0 I I #
face $-1 $684 $680 $18 $-1 $789 reversed single #
loop $-1 $-1 $669 $660 #
coedge $-1 $749 $758 $665 $730 forward $661 $-1 #
coedge $-1 $740 $663 $664 $729 reversed $592 $-1 #
coedge $-1 $734 $748 $663 $727 reversed $602 $-1 #
edge $-1 $741 -1.5 $790 1.5 $726 $791 forward 7 unknown #
coedge $-1 $665 $664 $748 $792 forward $507 $-1 #
edge $-1 $732 -44.409314249092077 $790 44.409314249092077 $725 $793 forward 7 unknown #
edge $-1 $731 -44.409314249092077 $794 44.409314249092077 $724 $795 forward 7 unknown #
vertex $-1 $759 $796 #
vertex $-1 $743 $797 #
straight-curve $-1 44.409314249092077 -28.719155705714599 -2.0477285178001674 0 -1 0 I I #
coedge $-1 $686 $726 $668 $735 reversed $602 $-1 #
edge $-1 $738 -3.0362410632734296 $741 3.0362410632734296 $734 $798 forward 7 unknown #
coedge $-1 $688 $669 $674 $744 reversed $723 $-1 #
coedge $-1 $669 $688 $686 $754 forward $723 $-1 #
vertex $-1 $754 $799 #
straight-curve $-1 0 -25.682914642441173 0.9522714821998326 1 0 0 I I #
coedge $-1 $671 $725 $673 $743 reversed $592 $-1 #
vertex $-1 $735 $800 #
straight-curve $-1 0 -31.755396768988028 0.9522714821998326 1 0 0 I I #
edge $-1 $675 -1.5 $732 1.5 $673 $801 forward 7 unknown #
edge $-1 $692 -7.2838931172278771 $676 -0.9522714821998326 $674 $802 forward 7 unknown #
point $-1 44.409314249092077 -31.755396768988028 0.9522714821998326 #
point $-1 44.409314249092077 -25.682914642441169 0.9522714821998326 #
coedge $-1 $679 $678 $803 $804 forward $680 $-1 #
coedge $-1 $726 $682 $728 $792 reversed $602 $-1 #
coedge $-1 $803 $724 $682 $750 forward $661 $-1 #
edge $-1 $794 2.0477285178001674 $751 7.2838931172278771 $682 $805 forward 7 unknown #
vertex $-1 $683 $806 #
straight-curve $-1 -44.409314249092077 0 -7.2838931172278771 0 1 0 I I #
plane-surface $-1 -44.409314249092077 0 0 1 0 0 0 0 -1 forward_v I I I I #
edge $-1 $690 -7.2838931172278771 $738 -0.9522714821998326 $686 $805 forward 7 unknown #
straight-curve $-1 0 -25.682914642441173 7.2838931172278771 1 0 0 I I #
point $-1 -44.409314249092077 -25.682914642441173 7.2838931172278771 #
point $-1 44.409314249092077 -25.682914642441173 7.2838931172278771 #
coedge $-1 $724 $803 $694 $759 reversed $661 $-1 #
edge $-1 $731 2.0477285178001674 $760 7.2838931172278771 $694 $802 forward 7 unknown #
vertex $-1 $759 $807 #
straight-curve $-1 44.409314249092077 0 -7.2838931172278771 0 -1 0 I I #
plane-surface $-1 44.409314249092077 0 0 -1 0 0 0 0 1 forward_v I I I I #
face $-1 $808 $809 $19 $-1 $810 reversed single #
loop $-1 $-1 $811 $698 #
plane-surface $-1 0 -31.755396768988028 -0.5477285178001674 0 1 0 0 0 1 forward_v I I I I #
coedge $-1 $812 $813 $814 $815 forward $699 $-1 #
coedge $-1 $816 $701 $817 $818 reversed $620 $-1 #
coedge $-1 $701 $816 $819 $820 forward $620 $-1 #
coedge $-1 $821 $822 $701 $770 reversed $782 $-1 #
edge $-1 $823 -3.0362410632734296 $824 3.0362410632734296 $769 $825 forward 7 unknown #
coedge $-1 $826 $827 $702 $772 forward $828 $-1 #
edge $-1 $774 -44.409314249092077 $783 44.409314249092077 $702 $829 forward 7 unknown #
coedge $-1 $830 $703 $827 $831 reversed $714 $-1 #
vertex $-1 $772 $832 #
straight-curve $-1 -44.409314249092077 25.682914642441173 0 0 0 -1 I I #
straight-curve $-1 -19.469039571944947 22.291127548732298 7.2838931172278762 -1 0 0 I I #
coedge $-1 $708 $707 $833 $834 forward $526 $-1 #
edge $-1 $715 -22.291127548732295 $835 25.682914642441173 $713 $836 forward 7 unknown #
coedge $-1 $822 $709 $708 $780 reversed $782 $-1 #
edge $-1 $837 -25.682914642441173 $711 25.682914642441173 $779 $838 forward 7 unknown #
coedge $-1 $709 $839 $826 $840 reversed $782 $-1 #
loop $-1 $-1 $822 $841 #
vertex $-1 $840 $842 #
straight-curve $-1 44.409314249092077 25.682914642441173 0 0 0 -1 I I #
point $-1 44.409314249092077 25.682914642441173 7.2838931172278771 #
coedge $-1 $713 $843 $844 $845 reversed $714 $-1 #
face $-1 $841 $714 $19 $-1 $846 reversed single #
point $-1 -44.409314249092077 22.291127548732295 7.2838931172278762 #
plane-surface $-1 0 0 -7.2838931172278771 0 0 1 1 0 0 forward_v I I I I #
vertex $-1 $792 $847 #
straight-curve $-1 -44.409314249092077 -31.755396768988028 -0.5477285178001674 0 0 -1 I I #
edge $-1 $790 -3.0362410632734296 $794 3.0362410632734296 $748 $848 forward 7 unknown #
straight-curve $-1 0 -31.755396768988028 -2.0477285178001674 -1 0 0 I I #
vertex $-1 $750 $849 #
straight-curve $-1 0 -25.682914642441173 -2.0477285178001674 -1 0 0 I I #
point $-1 44.409314249092077 -25.682914642441169 -2.0477285178001674 #
point $-1 44.409314249092077 -31.755396768988028 -2.0477285178001674 #
straight-curve $-1 -44.409314249092077 -28.719155705714599 0.9522714821998326 0 -1 0 I I #
point $-1 -44.409314249092077 -25.682914642441169 0.9522714821998326 #
point $-1 -44.409314249092077 -31.755396768988028 0.9522714821998326 #
straight-curve $-1 44.409314249092077 -31.755396768988028 -0.5477285178001674 0 0 -1 I I #
straight-curve $-1 44.409314249092077 -25.682914642441173 0 0 0 -1 I I #
coedge $-1 $758 $749 $747 $804 reversed $661 $-1 #
edge $-1 $760 -44.409314249092077 $751 44.409314249092077 $803 $850 forward 7 unknown #
straight-curve $-1 -44.409314249092077 -25.682914642441173 0 0 0 -1 I I #
point $-1 -44.409314249092077 -25.682914642441173 -7.2838931172278771 #
point $-1 44.409314249092077 -25.682914642441173 -7.2838931172278771 #
face $-1 $851 $852 $19 $-1 $810 reversed single #
loop $-1 $-1 $853 $763 #
plane-surface $-1 0 -25.682914642441173 0 0 1 0 0 0 1 forward_v I I I I #
coedge $-1 $854 $819 $855 $856 forward $764 $-1 #
coedge $-1 $857 $766 $854 $858 forward $699 $-1 #
coedge $-1 $766 $857 $853 $859 reversed $699 $-1 #
coedge $-1 $839 $821 $766 $815 reversed $782 $-1 #
edge $-1 $860 -3.0362410632734296 $861 3.0362410632734296 $814 $862 forward 7 unknown #
coedge $-1 $768 $767 $843 $863 forward $620 $-1 #
coedge $-1 $864 $844 $767 $818 forward $852 $-1 #
edge $-1 $865 -44.409314249092077 $824 44.409314249092077 $817 $866 forward 7 unknown #
coedge $-1 $811 $867 $768 $820 reversed $764 $-1 #
edge $-1 $868 -44.409314249092077 $823 44.409314249092077 $819 $869 forward 7 unknown #
coedge $-1 $814 $769 $867 $870 forward $782 $-1 #
coedge $-1 $769 $779 $864 $871 forward $782 $-1 #
vertex $-1 $770 $872 #
vertex $-1 $770 $873 #
straight-curve $-1 44.409314249092077 -28.719155705714599 0.9522714821998326 0 1 0 I I #
coedge $-1 $874 $771 $781 $840 forward $828 $-1 #
coedge $-1 $771 $874 $773 $831 forward $828 $-1 #
loop $-1 $-1 $826 $851 #
straight-curve $-1 0 25.682914642441173 -7.2838931172278771 1 0 0 I I #
coedge $-1 $875 $773 $876 $877 reversed $714 $-1 #
edge $-1 $878 -25.682914642441173 $774 25.682914642441173 $773 $879 forward 7 unknown #
point $-1 -44.409314249092077 25.682914642441173 -7.2838931172278771 #
coedge $-1 $844 $864 $777 $834 reversed $852 $-1 #
edge $-1 $835 -44.409314249092077 $837 44.409314249092077 $833 $880 forward 7 unknown #
vertex $-1 $778 $881 #
straight-curve $-1 -44.409314249092077 0 7.2838931172278771 0 -1 0 I I #
vertex $-1 $780 $882 #
straight-curve $-1 44.409314249092077 0 7.2838931172278771 0 1 0 I I #
coedge $-1 $781 $814 $883 $884 forward $782 $-1 #
edge $-1 $783 -25.682914642441173 $885 25.682914642441173 $781 $886 forward 7 unknown #
face $-1 $-1 $782 $19 $-1 $887 reversed single #
point $-1 44.409314249092077 25.682914642441173 -7.2838931172278771 #
coedge $-1 $786 $855 $816 $863 reversed $714 $-1 #
coedge $-1 $817 $833 $786 $845 forward $852 $-1 #
edge $-1 $835 -7.2838931172278771 $865 -0.9522714821998326 $786 $888 forward 7 unknown #
plane-surface $-1 -44.409314249092077 0 0 1 0 0 0 0 -1 forward_v I I I I #
point $-1 -44.409314249092077 -31.755396768988028 -2.0477285178001674 #
straight-curve $-1 -44.409314249092077 -28.719155705714599 -2.0477285178001674 0 1 0 I I #
point $-1 -44.409314249092077 -25.682914642441169 -2.0477285178001674 #
straight-curve $-1 0 -25.682914642441173 -7.2838931172278771 -1 0 0 I I #
face $-1 $787 $828 $19 $-1 $889 reversed single #
loop $-1 $-1 $817 $808 #
coedge $-1 $876 $883 $813 $859 forward $809 $-1 #
coedge $-1 $867 $811 $812 $858 reversed $764 $-1 #
coedge $-1 $843 $875 $811 $856 reversed $714 $-1 #
edge $-1 $868 -1.5 $890 1.5 $855 $891 forward 7 unknown #
coedge $-1 $813 $812 $875 $892 forward $699 $-1 #
edge $-1 $861 -44.409314249092077 $890 44.409314249092077 $854 $893 forward 7 unknown #
edge $-1 $860 -44.409314249092077 $894 44.409314249092077 $853 $895 forward 7 unknown #
vertex $-1 $884 $896 #
vertex $-1 $870 $897 #
straight-curve $-1 44.409314249092077 -28.719155705714599 -2.0477285178001674 0 -1 0 I I #
edge $-1 $865 -3.0362410632734296 $868 3.0362410632734296 $843 $898 forward 7 unknown #
coedge $-1 $833 $817 $822 $871 reversed $852 $-1 #
vertex $-1 $845 $899 #
straight-curve $-1 0 -25.682914642441173 0.9522714821998326 1 0 0 I I #
coedge $-1 $819 $854 $821 $870 reversed $764 $-1 #
vertex $-1 $863 $900 #
straight-curve $-1 0 -31.755396768988028 0.9522714821998326 1 0 0 I I #
edge $-1 $823 -1.5 $861 1.5 $821 $901 forward 7 unknown #
edge $-1 $837 -7.2838931172278771 $824 -0.9522714821998326 $822 $902 forward 7 unknown #
point $-1 44.409314249092077 -31.755396768988028 0.9522714821998326 #
point $-1 44.409314249092077 -25.682914642441169 0.9522714821998326 #
coedge $-1 $827 $826 $903 $904 forward $828 $-1 #
coedge $-1 $855 $830 $857 $892 reversed $714 $-1 #
coedge $-1 $903 $853 $830 $877 forward $809 $-1 #
edge $-1 $894 2.0477285178001674 $878 7.2838931172278771 $830 $888 forward 7 unknown #
vertex $-1 $831 $905 #
straight-curve $-1 -44.409314249092077 0 -7.2838931172278771 0 1 0 I I #
straight-curve $-1 0 -25.682914642441173 7.2838931172278771 1 0 0 I I #
point $-1 -44.409314249092077 -25.682914642441173 7.2838931172278771 #
point $-1 44.409314249092077 -25.682914642441173 7.2838931172278771 #
coedge $-1 $853 $903 $839 $884 reversed $809 $-1 #
edge $-1 $860 2.0477285178001674 $885 7.2838931172278771 $839 $902 forward 7 unknown #
vertex $-1 $884 $906 #
straight-curve $-1 44.409314249092077 0 -7.2838931172278771 0 -1 0 I I #
plane-surface $-1 44.409314249092077 0 0 -1 0 0 0 0 1 forward_v I I I I #
straight-curve $-1 -44.409314249092077 -25.682914642441173 0 0 0 -1 I I #
plane-surface $-1 0 0 -7.2838931172278771 0 0 1 1 0 0 forward_v I I I I #
vertex $-1 $892 $907 #
straight-curve $-1 -44.409314249092077 -31.755396768988028 -0.5477285178001674 0 0 -1 I I #
edge $-1 $890 -3.0362410632734296 $894 3.0362410632734296 $875 $908 forward 7 unknown #
straight-curve $-1 0 -31.755396768988028 -2.0477285178001674 -1 0 0 I I #
vertex $-1 $877 $909 #
straight-curve $-1 0 -25.682914642441173 -2.0477285178001674 -1 0 0 I I #
point $-1 44.409314249092077 -25.682914642441169 -2.0477285178001674 #
point $-1 44.409314249092077 -31.755396768988028 -2.0477285178001674 #
straight-curve $-1 -44.409314249092077 -28.719155705714599 0.9522714821998326 0 -1 0 I I #
point $-1 -44.409314249092077 -25.682914642441169 0.9522714821998326 #
point $-1 -44.409314249092077 -31.755396768988028 0.9522714821998326 #
straight-curve $-1 44.409314249092077 -31.755396768988028 -0.5477285178001674 0 0 -1 I I #
straight-curve $-1 44.409314249092077 -25.682914642441173 0 0 0 -1 I I #
coedge $-1 $883 $876 $874 $904 reversed $809 $-1 #
edge $-1 $885 -44.409314249092077 $878 44.409314249092077 $903 $910 forward 7 unknown #
point $-1 -44.409314249092077 -25.682914642441173 -7.2838931172278771 #
point $-1 44.409314249092077 -25.682914642441173 -7.2838931172278771 #
point $-1 -44.409314249092077 -31.755396768988028 -2.0477285178001674 #
straight-curve $-1 -44.409314249092077 -28.719155705714599 -2.0477285178001674 0 1 0 I I #
point $-1 -44.409314249092077 -25.682914642441169 -2.0477285178001674 #
straight-curve $-1 0 -25.682914642441173 -7.2838931172278771 -1 0 0 I I #
End-of-ACIS-data 