500 0 8 0           
7 Unknown 11 ACIS 5.0 NT 24 Thu Mar 25 15:14:14 1999 
-1 9.9999999999999995e-007 1e-010 
body $-1 $8 $-1 $9 #
body $-1 $10 $-1 $11 #
body $-1 $12 $-1 $13 #
body $-1 $14 $-1 $15 #
body $-1 $16 $-1 $17 #
body $-1 $18 $-1 $19 #
body $-1 $20 $-1 $21 #
body $-1 $22 $-1 $23 #
lump $-1 $-1 $24 $0 #
transform $-1 1 0 0 0 1 0 0 0 1 62.489700003051851 28.564240781142932 9.7196177690209478 1 rotate no_reflect no_shear #
lump $-1 $-1 $25 $1 #
transform $-1 1 0 0 0 1 0 0 0 1 62.489700003051851 28.564240781142932 9.7196177690209478 1 rotate no_reflect no_shear #
lump $-1 $-1 $26 $2 #
transform $-1 1 0 0 0 1 0 0 0 1 62.489700003051851 28.564240781142932 9.7196177690209478 1 rotate no_reflect no_shear #
lump $-1 $-1 $27 $3 #
transform $-1 1 0 0 0 1 0 0 0 1 62.489700003051851 28.564240781142932 9.7196177690209478 1 rotate no_reflect no_shear #
lump $-1 $-1 $28 $4 #
transform $-1 1 0 0 0 1 0 0 0 1 62.489700003051851 28.564240781142932 9.7196177690209478 1 rotate no_reflect no_shear #
lump $-1 $-1 $29 $5 #
transform $-1 1 0 0 0 1 0 0 0 1 62.489700003051851 28.564240781142932 9.7196177690209478 1 rotate no_reflect no_shear #
lump $-1 $-1 $30 $6 #
transform $-1 1 0 0 0 1 0 0 0 1 62.489700003051851 28.564240781142932 9.7196177690209478 1 rotate no_reflect no_shear #
lump $-1 $-1 $31 $7 #
transform $-1 1 0 0 0 1 0 0 0 1 62.489700003051851 28.564240781142932 9.7196177690209478 1 rotate no_reflect no_shear #
shell $-1 $-1 $-1 $32 $-1 $8 #
shell $-1 $-1 $-1 $33 $-1 $10 #
shell $-1 $-1 $-1 $34 $-1 $12 #
shell $-1 $-1 $-1 $35 $-1 $14 #
shell $-1 $-1 $-1 $36 $-1 $16 #
shell $-1 $-1 $-1 $37 $-1 $18 #
shell $-1 $-1 $-1 $38 $-1 $20 #
shell $-1 $-1 $-1 $39 $-1 $22 #
face $-1 $40 $41 $24 $-1 $42 forward single #
face $-1 $43 $44 $25 $-1 $45 forward single #
face $-1 $46 $47 $26 $-1 $48 reversed single #
face $-1 $49 $50 $27 $-1 $51 forward single #
face $-1 $52 $53 $28 $-1 $54 forward single #
face $-1 $55 $56 $29 $-1 $57 reversed single #
face $-1 $58 $59 $30 $-1 $60 forward single #
face $-1 $61 $62 $31 $-1 $63 forward single #
face $-1 $64 $65 $24 $-1 $66 reversed single #
loop $-1 $-1 $67 $32 #
plane-surface $-1 0 0 9.7196177690209478 0 0 1 1 0 0 forward_v I I I I #
face $-1 $68 $69 $25 $-1 $70 forward single #
loop $-1 $-1 $71 $33 #
plane-surface $-1 0 -28.564240781142932 0 0 1 0 0 0 1 forward_v I I I I #
face $-1 $72 $73 $26 $-1 $74 reversed single #
loop $-1 $-1 $75 $34 #
plane-surface $-1 -137.70418146345776 18.137409032032291 105.20311748634579 0 1 0 -0.6018150307709319 0 0.79863550430605224 forward_v I I I I #
face $-1 $76 $77 $27 $-1 $78 forward single #
loop $-1 $79 $80 $35 #
cone-surface $-1 -58.615436113152057 21.116503817492475 6.2257692933793924 0.6018150307709319 0 -0.79863550430605224 0.79863550430605224 0 0.6018150307709319 1 I I 0 1 1 forward I I I I #
face $-1 $81 $82 $28 $-1 $83 forward single #
loop $-1 $84 $85 $36 #
cone-surface $-1 -58.615436113152057 25.585145995682748 6.2257692933793924 0.6018150307709319 0 -0.79863550430605224 0.79863550430605224 0 0.6018150307709319 1 I I 0 1 1 forward I I I I #
face $-1 $86 $87 $29 $-1 $88 reversed single #
loop $-1 $-1 $89 $37 #
plane-surface $-1 37.891195311715293 20.087740610879759 175.75855185381101 0 1 0 0.6018150307709319 0 0.79863550430605224 forward_v I I I I #
face $-1 $90 $91 $30 $-1 $92 forward single #
loop $-1 $93 $94 $38 #
cone-surface $-1 56.213201742752133 22.509597802383521 4.8107756517697879 -0.6018150307709319 0 -0.79863550430605224 0.39931775215302612 0 -0.30090751538546595 1 I I 0 1 0.5 forward I I I I #
face $-1 $95 $96 $31 $-1 $97 forward single #
loop $-1 $98 $99 $39 #
cone-surface $-1 56.213201742752133 26.142383589639163 4.8107756517697879 -0.6018150307709319 0 -0.79863550430605224 0.39931775215302612 0 -0.30090751538546595 1 I I 0 1 0.5 forward I I I I #
face $-1 $100 $101 $24 $-1 $102 reversed single #
loop $-1 $-1 $103 $40 #
plane-surface $-1 0 0 -9.7196177690209478 0 0 1 1 0 0 forward_v I I I I #
coedge $-1 $104 $105 $106 $107 forward $41 $-1 #
face $-1 $108 $109 $25 $-1 $110 reversed single #
loop $-1 $-1 $111 $43 #
plane-surface $-1 0 0 9.7196177690209478 0 0 1 1 0 0 forward_v I I I I #
coedge $-1 $112 $113 $114 $115 forward $44 $-1 #
face $-1 $116 $117 $26 $-1 $118 forward single #
loop $-1 $-1 $119 $46 #
plane-surface $-1 -62.489700003051851 23.350824906587608 5.3901313346033248 -0.6018150307709319 0 0.79863550430605224 0.79863550430605224 0 0.6018150307709319 forward_v I I I I #
coedge $-1 $120 $121 $122 $123 reversed $47 $-1 #
face $-1 $-1 $124 $27 $-1 $125 forward single #
loop $-1 $126 $127 $49 #
cone-surface $-1 -57.312975927382205 21.116503817492475 4.4973462827936288 0.6018150307709319 0 -0.79863550430605224 0.39931775215302612 0 0.30090751538546595 1 I I -0.70710678118654746 0.70710678118654746 0.5 forward I I I I #
loop $-1 $-1 $128 $35 #
coedge $-1 $80 $80 $129 $130 reversed $50 $-1 #
face $-1 $-1 $131 $28 $-1 $132 forward single #
loop $-1 $133 $134 $52 #
cone-surface $-1 -57.312975927382205 25.585145995682748 4.4973462827936288 0.6018150307709319 0 -0.79863550430605224 0.39931775215302612 0 0.30090751538546595 1 I I -0.70710678118654746 0.70710678118654746 0.5 forward I I I I #
loop $-1 $-1 $135 $36 #
coedge $-1 $85 $85 $136 $137 reversed $53 $-1 #
face $-1 $138 $139 $29 $-1 $140 reversed single #
loop $-1 $-1 $141 $55 #
plane-surface $-1 -37.323286148690613 24.325990696011342 75.945565702068549 0.6018150307709319 0 0.79863550430605224 0.79863550430605224 0 -0.6018150307709319 forward_v I I I I #
coedge $-1 $142 $143 $144 $145 reversed $56 $-1 #
face $-1 $-1 $146 $30 $-1 $147 forward single #
loop $-1 $148 $149 $58 #
cone-surface $-1 55.750343042101605 22.509597802383521 4.1965414221212729 -0.6018150307709319 0 -0.79863550430605224 0.19965887607651306 0 -0.15045375769273298 1 I I -0.70710678118654746 0.70710678118654746 0.25 forward I I I I #
loop $-1 $-1 $150 $38 #
coedge $-1 $94 $94 $151 $152 reversed $59 $-1 #
face $-1 $-1 $153 $31 $-1 $154 forward single #
loop $-1 $155 $156 $61 #
cone-surface $-1 55.750343042101605 26.142383589639163 4.1965414221212729 -0.6018150307709319 0 -0.79863550430605224 0.19965887607651306 0 -0.15045375769273298 1 I I -0.70710678118654746 0.70710678118654746 0.25 forward I I I I #
loop $-1 $-1 $157 $39 #
coedge $-1 $99 $99 $158 $159 reversed $62 $-1 #
face $-1 $160 $161 $24 $-1 $162 reversed single #
loop $-1 $-1 $163 $64 #
plane-surface $-1 0 -28.564240781142932 0 0 1 0 0 0 1 forward_v I I I I #
coedge $-1 $164 $165 $166 $167 forward $65 $-1 #
coedge $-1 $168 $67 $169 $170 forward $41 $-1 #
coedge $-1 $67 $168 $171 $172 forward $41 $-1 #
coedge $-1 $173 $174 $67 $107 reversed $175 $-1 #
edge $-1 $176 -28.564240781142932 $177 28.564240781142932 $106 $178 forward 7 unknown #
face $-1 $179 $180 $25 $-1 $181 reversed single #
loop $-1 $-1 $182 $68 #
plane-surface $-1 -62.489700003051851 0 0 1 0 0 0 0 -1 forward_v I I I I #
coedge $-1 $183 $184 $185 $186 forward $69 $-1 #
coedge $-1 $185 $71 $182 $187 reversed $44 $-1 #
coedge $-1 $71 $185 $188 $189 reversed $44 $-1 #
coedge $-1 $190 $191 $71 $115 reversed $180 $-1 #
edge $-1 $192 -62.489700003051851 $193 62.489700003051851 $114 $194 forward 7 unknown #
face $-1 $195 $196 $26 $-1 $197 reversed single #
loop $-1 $-1 $122 $72 #
plane-surface $-1 0 0 9.7196177690209478 0 0 1 1 0 0 forward_v I I I I #
coedge $-1 $198 $199 $200 $201 reversed $73 $-1 #
coedge $-1 $121 $75 $202 $203 reversed $47 $-1 #
coedge $-1 $75 $120 $198 $204 reversed $47 $-1 #
coedge $-1 $200 $205 $75 $123 forward $117 $-1 #
edge $-1 $206 6.3623907286770276 $207 12.107813167707839 $122 $208 forward 7 unknown #
loop $-1 $-1 $129 $76 #
plane-surface $-1 -62.489700003051851 23.350824906587608 5.3901313346033248 -0.6018150307709319 0 0.79863550430605224 0.79863550430605224 0 0.6018150307709319 forward_v I I I I #
loop $-1 $-1 $209 $49 #
coedge $-1 $127 $127 $128 $210 reversed $77 $-1 #
coedge $-1 $128 $128 $127 $210 forward $79 $-1 #
coedge $-1 $129 $129 $80 $130 forward $124 $-1 #
edge $-1 $211 0 $211 6.2831853071796004 $129 $212 forward 7 unknown #
loop $-1 $-1 $136 $81 #
plane-surface $-1 -62.489700003051851 23.350824906587608 5.3901313346033248 -0.6018150307709319 0 0.79863550430605224 0.79863550430605224 0 0.6018150307709319 forward_v I I I I #
loop $-1 $-1 $213 $52 #
coedge $-1 $134 $134 $135 $214 reversed $82 $-1 #
coedge $-1 $135 $135 $134 $214 forward $84 $-1 #
coedge $-1 $136 $136 $85 $137 forward $131 $-1 #
edge $-1 $215 0 $215 6.2831853071796004 $136 $216 forward 7 unknown #
face $-1 $217 $218 $29 $-1 $219 forward single #
loop $-1 $-1 $144 $86 #
plane-surface $-1 62.489700003051851 0 0 -1 0 0 0 0 1 forward_v I I I I #
coedge $-1 $220 $221 $222 $223 reversed $87 $-1 #
coedge $-1 $143 $89 $224 $225 reversed $56 $-1 #
coedge $-1 $89 $142 $220 $226 reversed $56 $-1 #
coedge $-1 $222 $227 $89 $145 forward $139 $-1 #
edge $-1 $228 78.159658157884564 $229 87.148191685242878 $144 $230 forward 7 unknown #
loop $-1 $-1 $151 $90 #
plane-surface $-1 -37.323286148690613 24.325990696011342 75.945565702068549 0.6018150307709319 0 0.79863550430605224 0.79863550430605224 0 -0.6018150307709319 forward_v I I I I #
loop $-1 $-1 $231 $58 #
coedge $-1 $149 $149 $150 $232 reversed $91 $-1 #
coedge $-1 $150 $150 $149 $232 forward $93 $-1 #
coedge $-1 $151 $151 $94 $152 forward $146 $-1 #
edge $-1 $233 0 $233 6.2831853071796004 $151 $234 forward 7 unknown #
loop $-1 $-1 $158 $95 #
plane-surface $-1 -37.323286148690613 24.325990696011342 75.945565702068549 0.6018150307709319 0 0.79863550430605224 0.79863550430605224 0 -0.6018150307709319 forward_v I I I I #
loop $-1 $-1 $235 $61 #
coedge $-1 $156 $156 $157 $236 reversed $96 $-1 #
coedge $-1 $157 $157 $156 $236 forward $98 $-1 #
coedge $-1 $158 $158 $99 $159 forward $153 $-1 #
edge $-1 $237 0 $237 6.2831853071796004 $158 $238 forward 7 unknown #
face $-1 $239 $240 $24 $-1 $241 reversed single #
loop $-1 $-1 $242 $100 #
plane-surface $-1 -62.489700003051851 0 0 1 0 0 0 0 -1 forward_v I I I I #
coedge $-1 $243 $171 $244 $245 forward $101 $-1 #
coedge $-1 $246 $103 $243 $247 forward $65 $-1 #
coedge $-1 $103 $246 $248 $249 forward $65 $-1 #
coedge $-1 $174 $173 $103 $167 reversed $175 $-1 #
edge $-1 $250 -28.564240781142932 $251 28.564240781142932 $166 $252 forward 7 unknown #
coedge $-1 $105 $104 $253 $254 forward $41 $-1 #
coedge $-1 $255 $256 $104 $170 reversed $240 $-1 #
edge $-1 $177 -62.489700003051851 $257 62.489700003051851 $169 $258 forward 7 unknown #
coedge $-1 $163 $259 $105 $172 reversed $101 $-1 #
edge $-1 $260 -62.489700003051851 $176 62.489700003051851 $171 $261 forward 7 unknown #
coedge $-1 $166 $106 $259 $262 forward $175 $-1 #
coedge $-1 $106 $166 $255 $263 reversed $175 $-1 #
loop $-1 $-1 $173 $239 #
vertex $-1 $107 $264 #
vertex $-1 $107 $265 #
straight-curve $-1 62.489700003051851 0 9.7196177690209478 0 1 0 I I #
face $-1 $266 $267 $25 $-1 $268 reversed single #
loop $-1 $-1 $190 $108 #
plane-surface $-1 0 -33.917013183038527 4.4343549898571109 0 0 1 1 0 0 forward_v I I I I #
coedge $-1 $269 $270 $112 $187 forward $109 $-1 #
coedge $-1 $271 $111 $270 $272 forward $69 $-1 #
coedge $-1 $111 $271 $273 $274 forward $69 $-1 #
coedge $-1 $113 $112 $111 $186 reversed $44 $-1 #
edge $-1 $275 -62.489700003051851 $276 62.489700003051851 $111 $277 forward 7 unknown #
edge $-1 $276 -9.7196177690209478 $193 -4.4343549898571109 $182 $278 forward 7 unknown #
coedge $-1 $273 $279 $113 $189 forward $280 $-1 #
edge $-1 $192 4.4343549898571109 $275 9.7196177690209478 $188 $281 forward 7 unknown #
coedge $-1 $282 $114 $279 $283 forward $180 $-1 #
coedge $-1 $114 $282 $269 $284 forward $180 $-1 #
vertex $-1 $189 $285 #
vertex $-1 $187 $286 #
straight-curve $-1 0 -28.564240781142932 4.4343549898571109 -1 0 0 I I #
face $-1 $-1 $287 $26 $-1 $288 reversed single #
loop $-1 $-1 $289 $116 #
plane-surface $-1 0 28.564240781142932 0 0 -1 0 0 0 -1 forward_v I I I I #
coedge $-1 $290 $119 $121 $204 forward $73 $-1 #
coedge $-1 $119 $290 $289 $291 reversed $73 $-1 #
coedge $-1 $292 $122 $119 $201 forward $117 $-1 #
edge $-1 $207 6.4619965787384874 $293 16.888828327849119 $200 $294 forward 7 unknown #
coedge $-1 $295 $296 $120 $203 forward $287 $-1 #
edge $-1 $297 -47.21142740856957 $206 -42.881940974151945 $202 $298 forward 7 unknown #
edge $-1 $207 -7.1940483587980548 $297 0 $121 $299 forward 7 unknown #
coedge $-1 $122 $292 $295 $300 forward $117 $-1 #
vertex $-1 $203 $301 #
vertex $-1 $123 $302 #
straight-curve $-1 -68.852090731728879 18.137409032032291 9.7196177690209495 1 0 0 I I #
coedge $-1 $209 $209 $-1 $303 reversed $126 $-1 #
edge $-1 $304 0 $304 6.2831853071796004 $127 $305 forward 7 unknown #
vertex $-1 $130 $306 #
ellipse-curve $-1 -59.616988783536442 21.116503817492475 7.5548745518121363 -0.6018150307709319 0 0.79863550430605224 0.79863550430605224 0 0.6018150307709319 1 I I #
coedge $-1 $213 $213 $-1 $307 reversed $133 $-1 #
edge $-1 $308 0 $308 6.2831853071796004 $134 $309 forward 7 unknown #
vertex $-1 $137 $310 #
ellipse-curve $-1 -59.616988783536442 25.585145995682748 7.5548745518121363 -0.6018150307709319 0 0.79863550430605224 0.79863550430605224 0 0.6018150307709319 1 I I #
face $-1 $-1 $311 $29 $-1 $312 reversed single #
loop $-1 $-1 $224 $138 #
plane-surface $-1 0 0 9.7196177690209478 0 0 1 1 0 0 forward_v I I I I #
coedge $-1 $313 $141 $143 $226 forward $87 $-1 #
coedge $-1 $141 $313 $314 $315 reversed $87 $-1 #
coedge $-1 $316 $144 $141 $223 forward $139 $-1 #
edge $-1 $229 7.9247452628740884 $317 16.401245433137262 $222 $318 forward 7 unknown #
coedge $-1 $319 $320 $142 $225 forward $218 $-1 #
edge $-1 $321 31.615915712510393 $228 43.544102347194205 $224 $322 forward 7 unknown #
edge $-1 $229 -124.97940000610373 $321 -110.04369207630361 $143 $323 forward 7 unknown #
coedge $-1 $144 $316 $319 $324 reversed $139 $-1 #
vertex $-1 $324 $325 #
vertex $-1 $145 $326 #
straight-curve $-1 62.489700003051851 20.087740610879759 87.879275926905507 0 0 -1 I I #
coedge $-1 $231 $231 $-1 $327 reversed $148 $-1 #
edge $-1 $328 0 $328 6.2831853071796004 $149 $329 forward 7 unknown #
vertex $-1 $152 $330 #
ellipse-curve $-1 56.525606685709938 22.509597802383521 5.2253510053418006 0.6018150307709319 0 0.79863550430605224 0.39931775215302612 0 -0.30090751538546595 1 I I #
coedge $-1 $235 $235 $-1 $331 reversed $155 $-1 #
edge $-1 $332 0 $332 6.2831853071796004 $156 $333 forward 7 unknown #
vertex $-1 $159 $334 #
ellipse-curve $-1 56.525606685709938 26.142383589639163 5.2253510053418006 0.6018150307709319 0 0.79863550430605224 0.39931775215302612 0 -0.30090751538546595 1 I I #
face $-1 $-1 $175 $24 $-1 $335 reversed single #
loop $-1 $-1 $255 $160 #
plane-surface $-1 0 28.564240781142932 0 0 -1 0 0 0 -1 forward_v I I I I #
coedge $-1 $336 $253 $256 $337 forward $161 $-1 #
coedge $-1 $259 $163 $164 $247 reversed $101 $-1 #
coedge $-1 $253 $336 $163 $245 reversed $161 $-1 #
edge $-1 $260 -9.7196177690209478 $338 9.7196177690209478 $244 $339 forward 7 unknown #
coedge $-1 $165 $164 $336 $340 forward $65 $-1 #
edge $-1 $251 -62.489700003051851 $338 62.489700003051851 $243 $341 forward 7 unknown #
coedge $-1 $256 $255 $165 $249 reversed $240 $-1 #
edge $-1 $342 -62.489700003051851 $250 62.489700003051851 $248 $343 forward 7 unknown #
vertex $-1 $167 $344 #
vertex $-1 $262 $345 #
straight-curve $-1 62.489700003051851 0 -9.7196177690209478 0 -1 0 I I #
coedge $-1 $242 $244 $168 $254 reversed $161 $-1 #
edge $-1 $257 -28.564240781142932 $260 28.564240781142932 $253 $346 forward 7 unknown #
coedge $-1 $248 $169 $174 $263 forward $240 $-1 #
coedge $-1 $169 $248 $242 $337 reversed $240 $-1 #
vertex $-1 $170 $347 #
straight-curve $-1 0 28.564240781142932 9.7196177690209478 -1 0 0 I I #
coedge $-1 $171 $243 $173 $262 reversed $101 $-1 #
vertex $-1 $254 $348 #
straight-curve $-1 0 -28.564240781142932 9.7196177690209478 1 0 0 I I #
edge $-1 $176 -9.7196177690209478 $251 9.7196177690209478 $173 $349 forward 7 unknown #
edge $-1 $177 -9.7196177690209478 $250 9.7196177690209478 $174 $350 forward 7 unknown #
point $-1 62.489700003051851 -28.564240781142932 9.7196177690209478 #
point $-1 62.489700003051851 28.564240781142932 9.7196177690209478 #
face $-1 $-1 $280 $25 $-1 $351 reversed single #
loop $-1 $-1 $352 $179 #
plane-surface $-1 0 -39.26978558493412 7.0769863794390293 0 1 0 0 0 1 forward_v I I I I #
coedge $-1 $353 $182 $191 $284 reversed $109 $-1 #
coedge $-1 $182 $353 $183 $272 reversed $109 $-1 #
coedge $-1 $184 $183 $354 $355 forward $69 $-1 #
edge $-1 $276 28.564240781142932 $356 39.26978558493412 $270 $357 forward 7 unknown #
coedge $-1 $358 $188 $184 $274 reversed $280 $-1 #
edge $-1 $359 -39.26978558493412 $275 -28.564240781142932 $273 $360 forward 7 unknown #
vertex $-1 $189 $361 #
vertex $-1 $272 $362 #
straight-curve $-1 0 -28.564240781142932 9.7196177690209478 -1 0 0 I I #
straight-curve $-1 -62.489700003051851 -28.564240781142932 0 0 0 -1 I I #
coedge $-1 $188 $358 $190 $283 reversed $280 $-1 #
loop $-1 $-1 $188 $266 #
straight-curve $-1 62.489700003051851 -28.564240781142932 0 0 0 1 I I #
coedge $-1 $191 $190 $363 $364 forward $180 $-1 #
edge $-1 $192 -5.3527724018955922 $365 5.3527724018955922 $279 $366 forward 7 unknown #
edge $-1 $367 -5.3527724018955922 $193 5.3527724018955922 $269 $368 forward 7 unknown #
point $-1 62.489700003051851 -28.564240781142935 4.4343549898571109 #
point $-1 -62.489700003051851 -28.564240781142935 4.4343549898571109 #
loop $-1 $-1 $202 $195 #
plane-surface $-1 -62.489700003051851 0 0 1 0 0 0 0 -1 forward_v I I I I #
coedge $-1 $369 $370 $199 $291 forward $196 $-1 #
coedge $-1 $199 $198 $296 $371 reversed $73 $-1 #
edge $-1 $293 16.137267151640728 $372 23.331315510438785 $289 $373 forward 7 unknown #
coedge $-1 $205 $200 $370 $374 forward $117 $-1 #
vertex $-1 $374 $375 #
straight-curve $-1 -56.74427756402104 11.675412453293804 9.7196177690209495 0 1 0 I I #
coedge $-1 $376 $202 $205 $300 reversed $287 $-1 #
coedge $-1 $202 $376 $290 $371 forward $287 $-1 #
vertex $-1 $203 $377 #
straight-curve $-1 -62.489700003051851 18.137409032032291 52.601558743172895 0 0 1 I I #
straight-curve $-1 -62.489700003051851 18.137409032032291 5.3901313346033248 -0.79863550430605224 0 -0.6018150307709319 I I #
edge $-1 $378 -28.564240781142932 $206 -18.137409032032291 $295 $379 forward 7 unknown #
point $-1 -62.489700003051851 18.137409032032291 9.7196177690209478 #
point $-1 -56.74427756402104 18.137409032032291 9.7196177690209478 #
edge $-1 $380 1 $380 0 $209 $-1 forward 7 unknown #
vertex $-1 $210 $381 #
ellipse-curve $-1 -57.613883442767673 21.116503817492475 4.8966640349466548 -0.6018150307709319 0 0.79863550430605224 0.79863550430605224 0 0.6018150307709319 1 I I #
point $-1 -58.818353279230386 21.116503817492475 8.156689582583061 #
edge $-1 $382 1 $382 0 $213 $-1 forward 7 unknown #
vertex $-1 $214 $383 #
ellipse-curve $-1 -57.613883442767673 25.585145995682748 4.8966640349466548 -0.6018150307709319 0 0.79863550430605224 0.79863550430605224 0 0.6018150307709319 1 I I #
point $-1 -58.818353279230386 25.585145995682748 8.156689582583061 #
loop $-1 $-1 $314 $217 #
plane-surface $-1 0 28.564240781142932 0 0 -1 0 0 0 -1 forward_v I I I I #
coedge $-1 $221 $220 $320 $384 reversed $87 $-1 #
coedge $-1 $385 $386 $221 $315 forward $311 $-1 #
edge $-1 $317 -87.222957798291304 $387 -72.287249868491187 $314 $388 forward 7 unknown #
coedge $-1 $227 $222 $386 $389 reversed $139 $-1 #
vertex $-1 $223 $390 #
straight-curve $-1 62.489700003051851 12.162995348005671 0.73108424166263575 0 1 0 I I #
coedge $-1 $391 $224 $227 $324 forward $218 $-1 #
coedge $-1 $224 $391 $313 $384 forward $218 $-1 #
vertex $-1 $225 $392 #
straight-curve $-1 18.945597655857647 20.087740610879759 9.7196177690209424 1 0 0 I I #
straight-curve $-1 -37.323286148690613 20.087740610879759 75.945565702068549 -0.79863550430605224 0 0.6018150307709319 I I #
edge $-1 $228 20.087740610879759 $393 28.564240781142932 $227 $394 forward 7 unknown #
point $-1 62.489700003051851 20.087740610879759 9.7196177690209478 #
point $-1 62.489700003051851 20.087740610879759 0.73108424166262864 #
edge $-1 $395 1 $395 0 $231 $-1 forward 7 unknown #
vertex $-1 $232 $396 #
ellipse-curve $-1 55.900796799794335 22.509597802383521 4.3962002981977859 0.6018150307709319 0 0.79863550430605224 0.39931775215302612 0 -0.30090751538546595 1 I I #
point $-1 56.924924437862963 22.509597802383521 4.9244434899563245 #
edge $-1 $397 1 $397 0 $235 $-1 forward 7 unknown #
vertex $-1 $236 $398 #
ellipse-curve $-1 55.900796799794335 26.142383589639163 4.3962002981977859 0.6018150307709319 0 0.79863550430605224 0.39931775215302612 0 -0.30090751538546595 1 I I #
point $-1 56.924924437862963 26.142383589639163 4.9244434899563245 #
plane-surface $-1 62.489700003051851 0 0 -1 0 0 0 0 1 forward_v I I I I #
coedge $-1 $244 $242 $246 $340 reversed $161 $-1 #
edge $-1 $257 -9.7196177690209478 $342 9.7196177690209478 $256 $399 forward 7 unknown #
vertex $-1 $340 $400 #
straight-curve $-1 -62.489700003051851 -28.564240781142932 0 0 0 -1 I I #
edge $-1 $338 -28.564240781142932 $342 28.564240781142932 $336 $401 forward 7 unknown #
straight-curve $-1 0 -28.564240781142932 -9.7196177690209478 -1 0 0 I I #
vertex $-1 $249 $402 #
straight-curve $-1 0 28.564240781142932 -9.7196177690209478 1 0 0 I I #
point $-1 62.489700003051851 28.564240781142932 -9.7196177690209478 #
point $-1 62.489700003051851 -28.564240781142932 -9.7196177690209478 #
straight-curve $-1 -62.489700003051851 0 9.7196177690209478 0 -1 0 I I #
point $-1 -62.489700003051851 28.564240781142932 9.7196177690209478 #
point $-1 -62.489700003051851 -28.564240781142932 9.7196177690209478 #
straight-curve $-1 62.489700003051851 -28.564240781142932 0 0 0 -1 I I #
straight-curve $-1 62.489700003051851 28.564240781142932 0 0 0 -1 I I #
plane-surface $-1 62.489700003051851 0 0 -1 0 0 0 0 1 forward_v I I I I #
coedge $-1 $363 $354 $353 $403 forward $267 $-1 #
coedge $-1 $270 $269 $352 $403 reversed $109 $-1 #
coedge $-1 $352 $404 $271 $355 reversed $267 $-1 #
edge $-1 $356 -62.489700003051851 $359 62.489700003051851 $354 $405 forward 7 unknown #
vertex $-1 $272 $406 #
straight-curve $-1 -62.489700003051851 0 9.7196177690209478 0 -1 0 I I #
coedge $-1 $279 $273 $404 $407 forward $280 $-1 #
vertex $-1 $274 $408 #
straight-curve $-1 62.489700003051851 0 9.7196177690209478 0 1 0 I I #
point $-1 62.489700003051851 -28.564240781142932 9.7196177690209478 #
point $-1 -62.489700003051851 -28.564240781142932 9.7196177690209478 #
coedge $-1 $404 $352 $282 $364 reversed $267 $-1 #
edge $-1 $365 -62.489700003051851 $367 62.489700003051851 $363 $409 forward 7 unknown #
vertex $-1 $407 $410 #
straight-curve $-1 62.489700003051851 -33.917013183038527 4.4343549898571109 0 -1 0 I I #
vertex $-1 $284 $411 #
straight-curve $-1 -62.489700003051851 -33.917013183038527 4.4343549898571109 0 1 0 I I #
coedge $-1 $370 $289 $376 $412 reversed $196 $-1 #
coedge $-1 $289 $369 $292 $374 reversed $196 $-1 #
edge $-1 $372 -16.888828327849119 $297 -6.4619965787384874 $296 $413 forward 7 unknown #
vertex $-1 $291 $414 #
straight-curve $-1 -43.856483074248956 28.564240781142932 19.431267696444362 -0.79863550430605224 0 -0.6018150307709319 I I #
edge $-1 $293 56.74427756402104 $378 62.489700003051851 $370 $415 forward 7 unknown #
point $-1 -56.74427756402104 28.564240781142924 9.7196177690209478 #
coedge $-1 $296 $295 $369 $412 forward $287 $-1 #
point $-1 -62.489700003051851 18.137409032032291 5.3901313346033248 #
vertex $-1 $374 $416 #
straight-curve $-1 -62.489700003051851 0 9.7196177690209478 0 -1 0 I I #
vertex $-1 $303 $417 #
point $-1 -56.815247938461617 21.116503817492475 5.4984790657175866 #
vertex $-1 $307 $418 #
point $-1 -56.815247938461617 25.585145995682748 5.4984790657175866 #
edge $-1 $387 -16.401245433137255 $321 -7.9247452628740884 $320 $419 forward 7 unknown #
coedge $-1 $386 $314 $391 $420 reversed $311 $-1 #
coedge $-1 $314 $385 $316 $389 forward $311 $-1 #
vertex $-1 $315 $421 #
straight-curve $-1 -7.1696508852520271 28.564240781142932 53.223171272973012 -0.79863550430605224 0 0.6018150307709319 I I #
edge $-1 $393 -9.7196177690209478 $317 -0.73108424166263275 $316 $422 forward 7 unknown #
point $-1 62.489700003051851 28.564240781142932 0.73108424166263275 #
coedge $-1 $320 $319 $385 $420 forward $218 $-1 #
point $-1 50.56151336836804 20.087740610879759 9.7196177690209424 #
vertex $-1 $324 $423 #
straight-curve $-1 62.489700003051851 0 9.7196177690209478 0 1 0 I I #
vertex $-1 $327 $424 #
point $-1 56.300114551947367 22.509597802383521 4.0952927828123205 #
vertex $-1 $331 $425 #
point $-1 56.300114551947367 26.142383589639163 4.0952927828123205 #
straight-curve $-1 -62.489700003051851 28.564240781142932 0 0 0 -1 I I #
point $-1 -62.489700003051851 -28.564240781142932 -9.7196177690209478 #
straight-curve $-1 -62.489700003051851 0 -9.7196177690209478 0 1 0 I I #
point $-1 -62.489700003051851 28.564240781142932 -9.7196177690209478 #
edge $-1 $356 -2.6426313895819185 $367 2.6426313895819185 $353 $426 forward 7 unknown #
coedge $-1 $354 $363 $358 $407 reversed $267 $-1 #
straight-curve $-1 0 -39.26978558493412 9.7196177690209478 1 0 0 I I #
point $-1 -62.489700003051851 -39.26978558493412 9.7196177690209478 #
edge $-1 $359 -2.6426313895819185 $365 2.6426313895819185 $358 $427 forward 7 unknown #
point $-1 62.489700003051851 -39.26978558493412 9.7196177690209478 #
straight-curve $-1 0 -39.26978558493412 4.4343549898571109 -1 0 0 I I #
point $-1 62.489700003051851 -39.26978558493412 4.4343549898571109 #
point $-1 -62.489700003051851 -39.26978558493412 4.4343549898571109 #
edge $-1 $378 -9.7196177690209478 $372 -5.3901313346033248 $369 $428 forward 7 unknown #
straight-curve $-1 -62.489700003051851 11.675412453293804 5.3901313346033239 0 -1 0 I I #
point $-1 -62.489700003051851 28.564240781142924 5.3901313346033248 #
straight-curve $-1 0 28.564240781142932 9.7196177690209478 -1 0 0 I I #
point $-1 -62.489700003051851 28.564240781142932 9.7196177690209478 #
point $-1 -57.012068411996736 21.116503817492475 4.0980285306406028 #
point $-1 -57.012068411996736 25.585145995682748 4.0980285306406028 #
straight-curve $-1 50.561513368368026 12.162995348005671 9.7196177690209566 0 -1 0 I I #
edge $-1 $393 -62.489700003051851 $387 -50.56151336836804 $385 $429 forward 7 unknown #
point $-1 50.56151336836804 28.564240781142924 9.7196177690209424 #
straight-curve $-1 62.489700003051851 28.564240781142932 0 0 0 -1 I I #
point $-1 62.489700003051851 28.564240781142932 9.7196177690209478 #
point $-1 55.599889284408874 22.509597802383521 3.9968825460447599 #
point $-1 55.599889284408874 26.142383589639163 3.9968825460447599 #
straight-curve $-1 -62.489700003051851 -39.26978558493412 7.0769863794390293 0 0 -1 I I #
straight-curve $-1 62.489700003051851 -39.26978558493412 7.0769863794390293 0 0 -1 I I #
straight-curve $-1 -62.489700003051851 28.564240781142932 0 0 0 -1 I I #
straight-curve $-1 0 28.564240781142932 9.7196177690209478 -1 0 0 I I #
End-of-ACIS-data 