500 0 15 0           
7 Unknown 11 ACIS 5.0 NT 24 Thu Mar 25 17:00:23 1999 
-1 9.9999999999999995e-007 1e-010 
body $-1 $15 $-1 $16 #
body $-1 $17 $-1 $18 #
body $-1 $19 $-1 $20 #
body $-1 $21 $-1 $22 #
body $-1 $23 $-1 $24 #
body $-1 $25 $-1 $26 #
body $-1 $27 $-1 $28 #
body $-1 $29 $-1 $30 #
body $-1 $31 $-1 $32 #
body $-1 $33 $-1 $34 #
body $-1 $35 $-1 $36 #
body $-1 $37 $-1 $38 #
body $-1 $39 $-1 $40 #
body $-1 $41 $-1 $42 #
body $-1 $43 $-1 $44 #
lump $-1 $-1 $45 $0 #
transform $-1 1 0 0 0 1 0 0 0 1 72.410657063509007 33.094501115503348 15.591290436110269 1 rotate no_reflect no_shear #
lump $-1 $-1 $46 $1 #
transform $-1 1 0 0 0 1 0 0 0 1 72.410657063509007 33.094501115503348 15.591290436110269 1 rotate no_reflect no_shear #
lump $-1 $-1 $47 $2 #
transform $-1 1 0 0 0 1 0 0 0 1 72.410657063509007 33.094501115503348 15.591290436110269 1 rotate no_reflect no_shear #
lump $-1 $-1 $48 $3 #
transform $-1 1 0 0 0 1 0 0 0 1 72.410657063509007 33.094501115503348 15.591290436110269 1 rotate no_reflect no_shear #
lump $-1 $-1 $49 $4 #
transform $-1 1 0 0 0 1 0 0 0 1 72.410657063509007 33.094501115503348 15.591290436110269 1 rotate no_reflect no_shear #
lump $-1 $-1 $50 $5 #
transform $-1 1 0 0 0 1 0 0 0 1 72.410657063509007 33.094501115503348 15.591290436110269 1 rotate no_reflect no_shear #
lump $-1 $-1 $51 $6 #
transform $-1 1 0 0 0 1 0 0 0 1 72.410657063509007 33.094501115503348 15.591290436110269 1 rotate no_reflect no_shear #
lump $-1 $-1 $52 $7 #
transform $-1 1 0 0 0 1 0 0 0 1 72.410657063509007 33.094501115503348 15.591290436110269 1 rotate no_reflect no_shear #
lump $-1 $-1 $53 $8 #
transform $-1 1 0 0 0 1 0 0 0 1 72.410657063509007 33.094501115503348 15.591290436110269 1 rotate no_reflect no_shear #
lump $-1 $-1 $54 $9 #
transform $-1 1 0 0 0 1 0 0 0 1 72.410657063509007 33.094501115503348 15.591290436110269 1 rotate no_reflect no_shear #
lump $-1 $-1 $55 $10 #
transform $-1 1 0 0 0 1 0 0 0 1 72.410657063509007 33.094501115503348 15.591290436110269 1 rotate no_reflect no_shear #
lump $-1 $-1 $56 $11 #
transform $-1 1 0 0 0 1 0 0 0 1 72.410657063509007 33.094501115503348 15.591290436110269 1 rotate no_reflect no_shear #
lump $-1 $-1 $57 $12 #
transform $-1 1 0 0 0 1 0 0 0 1 72.410657063509007 33.094501115503348 15.591290436110269 1 rotate no_reflect no_shear #
lump $-1 $-1 $58 $13 #
transform $-1 1 0 0 0 1 0 0 0 1 72.410657063509007 33.094501115503348 15.591290436110269 1 rotate no_reflect no_shear #
lump $-1 $-1 $59 $14 #
transform $-1 1 0 0 0 1 0 0 0 1 72.410657063509007 33.094501115503348 15.591290436110269 1 rotate no_reflect no_shear #
shell $-1 $-1 $-1 $60 $-1 $15 #
shell $-1 $-1 $-1 $61 $-1 $17 #
shell $-1 $-1 $-1 $62 $-1 $19 #
shell $-1 $-1 $-1 $63 $-1 $21 #
shell $-1 $-1 $-1 $64 $-1 $23 #
shell $-1 $-1 $-1 $65 $-1 $25 #
shell $-1 $-1 $-1 $66 $-1 $27 #
shell $-1 $-1 $-1 $67 $-1 $29 #
shell $-1 $-1 $-1 $68 $-1 $31 #
shell $-1 $-1 $-1 $69 $-1 $33 #
shell $-1 $-1 $-1 $70 $-1 $35 #
shell $-1 $-1 $-1 $71 $-1 $37 #
shell $-1 $-1 $-1 $72 $-1 $39 #
shell $-1 $-1 $-1 $73 $-1 $41 #
shell $-1 $-1 $-1 $74 $-1 $43 #
face $-1 $75 $76 $45 $-1 $77 forward single #
face $-1 $78 $79 $46 $-1 $80 reversed single #
face $-1 $81 $82 $47 $-1 $83 forward single #
face $-1 $84 $85 $48 $-1 $86 reversed single #
face $-1 $87 $88 $49 $-1 $89 forward single #
face $-1 $90 $91 $50 $-1 $92 forward single #
face $-1 $93 $94 $51 $-1 $95 forward single #
face $-1 $96 $97 $52 $-1 $98 reversed single #
face $-1 $99 $100 $53 $-1 $101 forward single #
face $-1 $102 $103 $54 $-1 $104 forward single #
face $-1 $105 $106 $55 $-1 $107 forward single #
face $-1 $108 $109 $56 $-1 $110 reversed single #
face $-1 $111 $112 $57 $-1 $113 forward single #
face $-1 $114 $115 $58 $-1 $116 forward single #
face $-1 $117 $118 $59 $-1 $119 forward single #
face $-1 $120 $121 $45 $-1 $122 reversed single #
loop $-1 $-1 $123 $60 #
plane-surface $-1 0 0 15.591290436110269 0 0 1 1 0 0 forward_v I I I I #
face $-1 $124 $125 $46 $-1 $126 reversed single #
loop $-1 $-1 $127 $61 #
plane-surface $-1 -65.355206776796919 -28.64195456002696 0 0 1 0 0 0 1 forward_v I I I I #
face $-1 $128 $129 $47 $-1 $130 reversed single #
loop $-1 $-1 $131 $62 #
plane-surface $-1 72.410657063509007 0 0 -1 0 0 0 0 1 forward_v I I I I #
face $-1 $132 $133 $48 $-1 $134 reversed single #
loop $-1 $-1 $135 $63 #
plane-surface $-1 10.060796822332065 118.50276255632345 144.1253652842839 1 0 0 0 -0.83867057594974714 -0.54463902268945019 forward_v I I I I #
face $-1 $136 $137 $49 $-1 $138 forward single #
loop $-1 $139 $140 $64 #
cone-surface $-1 13.005811364995708 30.774988631990453 12.392954542173147 0 -0.83867057594974714 -0.54463902268945019 0.5 0 0 1 I I 0 1 0.5 forward I I I I #
face $-1 $141 $142 $50 $-1 $143 forward single #
loop $-1 $144 $145 $65 #
cone-surface $-1 17.423333178991186 30.774988631990453 12.392954542173147 0 -0.83867057594974714 -0.54463902268945019 0.5 0 0 1 I I 0 1 0.5 forward I I I I #
face $-1 $146 $147 $51 $-1 $148 forward single #
loop $-1 $149 $150 $66 #
cone-surface $-1 21.840854992986664 30.774988631990453 12.392954542173147 0 -0.83867057594974714 -0.54463902268945019 0.5 0 0 1 I I 0 1 0.5 forward I I I I #
face $-1 $151 $152 $52 $-1 $153 reversed single #
loop $-1 $-1 $154 $67 #
plane-surface $-1 -2.9485510756877886 -135.4986355832142 105.71690148896799 -1 0 0 0 -0.70710678939079041 0.70710677298230451 forward_v I I I I #
face $-1 $155 $156 $53 $-1 $157 forward single #
loop $-1 $158 $159 $68 #
cone-surface $-1 -18.503444222605957 -25.028041868485296 7.5248310913508956 0 0.70710678939079041 -0.70710677298230451 1.5 0 0 1 I I 0 1 1.5 forward I I I I #
face $-1 $160 $161 $54 $-1 $162 forward single #
loop $-1 $163 $164 $69 #
cone-surface $-1 -12.670359292511648 -25.028041868485296 7.5248310913508956 0 0.70710678939079041 -0.70710677298230451 1.5 0 0 1 I I 0 1 1.5 forward I I I I #
face $-1 $165 $166 $55 $-1 $167 forward single #
loop $-1 $168 $169 $70 #
cone-surface $-1 -6.8372743624173324 -25.028041868485296 7.5248310913508956 0 0.70710678939079041 -0.70710677298230451 1.5 0 0 1 I I 0 1 1.5 forward I I I I #
face $-1 $170 $171 $56 $-1 $172 reversed single #
loop $-1 $-1 $173 $71 #
plane-surface $-1 52.402654338709247 -135.4986355832142 105.71690148896799 -1 0 0 0 -0.70710678939079041 0.70710677298230451 forward_v I I I I #
face $-1 $174 $175 $57 $-1 $176 forward single #
loop $-1 $177 $178 $72 #
cone-surface $-1 36.847761191791079 -25.028041868485296 7.5248310913508956 0 0.70710678939079041 -0.70710677298230451 1.5 0 0 1 I I 0 1 1.5 forward I I I I #
face $-1 $179 $180 $58 $-1 $181 forward single #
loop $-1 $182 $183 $73 #
cone-surface $-1 42.680846121885381 -25.028041868485296 7.5248310913508956 0 0.70710678939079041 -0.70710677298230451 1.5 0 0 1 I I 0 1 1.5 forward I I I I #
face $-1 $184 $185 $59 $-1 $186 forward single #
loop $-1 $187 $188 $74 #
cone-surface $-1 48.513931051979696 -25.028041868485296 7.5248310913508956 0 0.70710678939079041 -0.70710677298230451 1.5 0 0 1 I I 0 1 1.5 forward I I I I #
face $-1 $189 $190 $45 $-1 $191 reversed single #
loop $-1 $-1 $192 $75 #
plane-surface $-1 0 0 -15.591290436110269 0 0 1 1 0 0 forward_v I I I I #
coedge $-1 $193 $194 $195 $196 forward $76 $-1 #
face $-1 $197 $198 $46 $-1 $199 reversed single #
loop $-1 $-1 $200 $78 #
plane-surface $-1 -65.355206776796919 -21.435806388430059 0 0 -1 0 0 0 -1 forward_v I I I I #
coedge $-1 $201 $202 $203 $204 reversed $79 $-1 #
face $-1 $205 $206 $47 $-1 $207 reversed single #
loop $-1 $-1 $208 $81 #
plane-surface $-1 0 -33.094501115503348 0 0 1 0 0 0 1 forward_v I I I I #
coedge $-1 $209 $210 $211 $212 forward $82 $-1 #
face $-1 $213 $214 $48 $-1 $215 reversed single #
loop $-1 $-1 $216 $84 #
plane-surface $-1 17.423333178991186 -2.9546123723820017 65.250026293542945 0 0.83867057594974714 0.54463902268945019 1 0 0 forward_v I I I I #
coedge $-1 $217 $218 $219 $220 reversed $85 $-1 #
face $-1 $-1 $221 $49 $-1 $222 forward single #
loop $-1 $223 $224 $87 #
cone-surface $-1 13.005811364995708 30.145985700028142 11.984475275156059 0 -0.83867057594974714 -0.54463902268945019 0.25 0 0 1 I I -0.70710678118654746 0.70710678118654746 0.25 forward I I I I #
loop $-1 $-1 $225 $64 #
coedge $-1 $140 $140 $226 $227 reversed $88 $-1 #
face $-1 $-1 $228 $50 $-1 $229 forward single #
loop $-1 $230 $231 $90 #
cone-surface $-1 17.423333178991186 30.145985700028142 11.984475275156059 0 -0.83867057594974714 -0.54463902268945019 0.25 0 0 1 I I -0.70710678118654746 0.70710678118654746 0.25 forward I I I I #
loop $-1 $-1 $232 $65 #
coedge $-1 $145 $145 $233 $234 reversed $91 $-1 #
face $-1 $-1 $235 $51 $-1 $236 forward single #
loop $-1 $237 $238 $93 #
cone-surface $-1 21.840854992986664 30.145985700028142 11.984475275156059 0 -0.83867057594974714 -0.54463902268945019 0.25 0 0 1 I I -0.70710678118654746 0.70710678118654746 0.25 forward I I I I #
loop $-1 $-1 $239 $66 #
coedge $-1 $150 $150 $240 $241 reversed $94 $-1 #
face $-1 $242 $243 $52 $-1 $244 reversed single #
loop $-1 $-1 $245 $96 #
plane-surface $-1 -12.670359292511641 -33.094501115503363 3.3127693975556554 0 -0.70710678939079041 0.70710677298230451 1 0 0 forward_v I I I I #
coedge $-1 $246 $247 $248 $249 reversed $97 $-1 #
face $-1 $-1 $250 $53 $-1 $251 forward single #
loop $-1 $252 $253 $99 #
cone-surface $-1 -18.503444222605957 -22.57051290623928 5.0673021861320908 0 0.70710678939079041 -0.70710677298230451 0.75 0 0 1 I I -0.70710678118654757 0.70710678118654757 0.75 forward I I I I #
loop $-1 $-1 $254 $68 #
coedge $-1 $159 $159 $255 $256 reversed $100 $-1 #
face $-1 $-1 $257 $54 $-1 $258 forward single #
loop $-1 $259 $260 $102 #
cone-surface $-1 -12.670359292511648 -22.57051290623928 5.0673021861320908 0 0.70710678939079041 -0.70710677298230451 0.75 0 0 1 I I -0.70710678118654757 0.70710678118654757 0.75 forward I I I I #
loop $-1 $-1 $261 $69 #
coedge $-1 $164 $164 $262 $263 reversed $103 $-1 #
face $-1 $-1 $264 $55 $-1 $265 forward single #
loop $-1 $266 $267 $105 #
cone-surface $-1 -6.8372743624173324 -22.57051290623928 5.0673021861320908 0 0.70710678939079041 -0.70710677298230451 0.75 0 0 1 I I -0.70710678118654757 0.70710678118654757 0.75 forward I I I I #
loop $-1 $-1 $268 $70 #
coedge $-1 $169 $169 $269 $270 reversed $106 $-1 #
face $-1 $271 $272 $56 $-1 $273 reversed single #
loop $-1 $-1 $274 $108 #
plane-surface $-1 42.680846121885395 -33.094501115503363 3.3127693975556554 0 -0.70710678939079041 0.70710677298230451 1 0 0 forward_v I I I I #
coedge $-1 $275 $276 $277 $278 reversed $109 $-1 #
face $-1 $-1 $279 $57 $-1 $280 forward single #
loop $-1 $281 $282 $111 #
cone-surface $-1 36.847761191791079 -22.57051290623928 5.0673021861320908 0 0.70710678939079041 -0.70710677298230451 0.75 0 0 1 I I -0.70710678118654757 0.70710678118654757 0.75 forward I I I I #
loop $-1 $-1 $283 $72 #
coedge $-1 $178 $178 $284 $285 reversed $112 $-1 #
face $-1 $-1 $286 $58 $-1 $287 forward single #
loop $-1 $288 $289 $114 #
cone-surface $-1 42.680846121885381 -22.57051290623928 5.0673021861320908 0 0.70710678939079041 -0.70710677298230451 0.75 0 0 1 I I -0.70710678118654757 0.70710678118654757 0.75 forward I I I I #
loop $-1 $-1 $290 $73 #
coedge $-1 $183 $183 $291 $292 reversed $115 $-1 #
face $-1 $-1 $293 $59 $-1 $294 forward single #
loop $-1 $295 $296 $117 #
cone-surface $-1 48.513931051979696 -22.57051290623928 5.0673021861320908 0 0.70710678939079041 -0.70710677298230451 0.75 0 0 1 I I -0.70710678118654757 0.70710678118654757 0.75 forward I I I I #
loop $-1 $-1 $297 $74 #
coedge $-1 $188 $188 $298 $299 reversed $118 $-1 #
face $-1 $300 $301 $45 $-1 $302 reversed single #
loop $-1 $-1 $303 $120 #
plane-surface $-1 0 -33.094501115503348 0 0 1 0 0 0 1 forward_v I I I I #
coedge $-1 $304 $305 $306 $307 forward $121 $-1 #
coedge $-1 $308 $123 $309 $310 forward $76 $-1 #
coedge $-1 $123 $308 $311 $312 forward $76 $-1 #
coedge $-1 $313 $314 $123 $196 reversed $315 $-1 #
edge $-1 $316 -33.094501115503348 $317 33.094501115503348 $195 $318 forward 7 unknown #
face $-1 $319 $320 $46 $-1 $321 reversed single #
loop $-1 $-1 $322 $124 #
plane-surface $-1 -58.299756490084832 -25.03888047422851 0 -1 0 0 0 0 1 forward_v I I I I #
coedge $-1 $323 $324 $325 $326 forward $125 $-1 #
coedge $-1 $327 $127 $328 $329 reversed $79 $-1 #
coedge $-1 $127 $327 $330 $331 reversed $79 $-1 #
coedge $-1 $332 $333 $127 $204 forward $334 $-1 #
edge $-1 $335 -15.591290436110269 $336 15.591290436110269 $203 $337 forward 7 unknown #
face $-1 $338 $339 $47 $-1 $340 forward single #
loop $-1 $-1 $341 $128 #
plane-surface $-1 0 0 -15.591290436110269 0 0 1 1 0 0 forward_v I I I I #
coedge $-1 $342 $343 $210 $344 forward $129 $-1 #
coedge $-1 $345 $131 $346 $347 reversed $82 $-1 #
coedge $-1 $131 $345 $208 $344 reversed $82 $-1 #
coedge $-1 $348 $349 $131 $212 reversed $339 $-1 #
edge $-1 $350 -33.094501115503348 $351 33.094501115503348 $211 $352 forward 7 unknown #
face $-1 $353 $354 $48 $-1 $355 reversed single #
loop $-1 $-1 $356 $132 #
plane-surface $-1 24.785869535650306 118.50276255632345 144.1253652842839 -1 0 0 0 0.83867057594974714 0.54463902268945019 forward_v I I I I #
coedge $-1 $357 $358 $359 $360 reversed $133 $-1 #
coedge $-1 $218 $135 $361 $362 reversed $85 $-1 #
coedge $-1 $135 $217 $357 $363 reversed $85 $-1 #
coedge $-1 $359 $364 $135 $220 forward $365 $-1 #
edge $-1 $366 26.156880162658375 $367 29.957234553734445 $219 $368 forward 7 unknown #
loop $-1 $-1 $226 $136 #
plane-surface $-1 17.423333178991186 -2.9546123723820017 65.250026293542945 0 0.83867057594974714 0.54463902268945019 1 0 0 forward_v I I I I #
loop $-1 $-1 $369 $87 #
coedge $-1 $224 $224 $225 $370 reversed $137 $-1 #
coedge $-1 $225 $225 $224 $370 forward $139 $-1 #
coedge $-1 $226 $226 $140 $227 forward $221 $-1 #
edge $-1 $371 -5.3773229429503594e-015 $371 6.2831853071795951 $226 $372 forward 7 unknown #
loop $-1 $-1 $233 $141 #
plane-surface $-1 17.423333178991186 -2.9546123723820017 65.250026293542945 0 0.83867057594974714 0.54463902268945019 1 0 0 forward_v I I I I #
loop $-1 $-1 $373 $90 #
coedge $-1 $231 $231 $232 $374 reversed $142 $-1 #
coedge $-1 $232 $232 $231 $374 forward $144 $-1 #
coedge $-1 $233 $233 $145 $234 forward $228 $-1 #
edge $-1 $375 -5.3773229429503594e-015 $375 6.2831853071795951 $233 $376 forward 7 unknown #
loop $-1 $-1 $240 $146 #
plane-surface $-1 17.423333178991186 -2.9546123723820017 65.250026293542945 0 0.83867057594974714 0.54463902268945019 1 0 0 forward_v I I I I #
loop $-1 $-1 $377 $93 #
coedge $-1 $238 $238 $239 $378 reversed $147 $-1 #
coedge $-1 $239 $239 $238 $378 forward $149 $-1 #
coedge $-1 $240 $240 $150 $241 forward $235 $-1 #
edge $-1 $379 -5.3773229429503594e-015 $379 6.2831853071795951 $240 $380 forward 7 unknown #
face $-1 $381 $382 $52 $-1 $383 forward single #
loop $-1 $-1 $384 $151 #
plane-surface $-1 -22.392167509335493 -135.4986355832142 105.71690148896799 1 0 0 0 0.70710678939079041 -0.70710677298230451 forward_v I I I I #
coedge $-1 $385 $386 $387 $388 reversed $152 $-1 #
coedge $-1 $247 $154 $389 $390 reversed $97 $-1 #
coedge $-1 $154 $246 $385 $391 reversed $97 $-1 #
coedge $-1 $387 $392 $154 $249 forward $382 $-1 #
edge $-1 $393 34.654816676103749 $394 46.933337429734003 $248 $395 forward 7 unknown #
loop $-1 $-1 $255 $155 #
plane-surface $-1 -12.670359292511641 -33.094501115503363 3.3127693975556554 0 -0.70710678939079041 0.70710677298230451 1 0 0 forward_v I I I I #
loop $-1 $-1 $396 $99 #
coedge $-1 $253 $253 $254 $397 reversed $156 $-1 #
coedge $-1 $254 $254 $253 $397 forward $158 $-1 #
coedge $-1 $255 $255 $159 $256 forward $250 $-1 #
edge $-1 $398 -1.6747652309680413e-015 $398 6.2831853071795987 $255 $399 forward 7 unknown #
loop $-1 $-1 $262 $160 #
plane-surface $-1 -12.670359292511641 -33.094501115503363 3.3127693975556554 0 -0.70710678939079041 0.70710677298230451 1 0 0 forward_v I I I I #
loop $-1 $-1 $400 $102 #
coedge $-1 $260 $260 $261 $401 reversed $161 $-1 #
coedge $-1 $261 $261 $260 $401 forward $163 $-1 #
coedge $-1 $262 $262 $164 $263 forward $257 $-1 #
edge $-1 $402 -1.6747652309680413e-015 $402 6.2831853071795987 $262 $403 forward 7 unknown #
loop $-1 $-1 $269 $165 #
plane-surface $-1 -12.670359292511641 -33.094501115503363 3.3127693975556554 0 -0.70710678939079041 0.70710677298230451 1 0 0 forward_v I I I I #
loop $-1 $-1 $404 $105 #
coedge $-1 $267 $267 $268 $405 reversed $166 $-1 #
coedge $-1 $268 $268 $267 $405 forward $168 $-1 #
coedge $-1 $269 $269 $169 $270 forward $264 $-1 #
edge $-1 $406 -1.6747652309680413e-015 $406 6.2831853071795987 $269 $407 forward 7 unknown #
face $-1 $408 $409 $56 $-1 $410 reversed single #
loop $-1 $-1 $411 $170 #
plane-surface $-1 32.959037905061543 -135.4986355832142 105.71690148896799 1 0 0 0 0.70710678939079041 -0.70710677298230451 forward_v I I I I #
coedge $-1 $412 $413 $414 $415 reversed $171 $-1 #
coedge $-1 $276 $173 $416 $417 reversed $109 $-1 #
coedge $-1 $173 $275 $412 $418 reversed $109 $-1 #
coedge $-1 $414 $419 $173 $278 forward $420 $-1 #
edge $-1 $421 34.654816676103749 $422 46.933337429734003 $277 $423 forward 7 unknown #
loop $-1 $-1 $284 $174 #
plane-surface $-1 42.680846121885395 -33.094501115503363 3.3127693975556554 0 -0.70710678939079041 0.70710677298230451 1 0 0 forward_v I I I I #
loop $-1 $-1 $424 $111 #
coedge $-1 $282 $282 $283 $425 reversed $175 $-1 #
coedge $-1 $283 $283 $282 $425 forward $177 $-1 #
coedge $-1 $284 $284 $178 $285 forward $279 $-1 #
edge $-1 $426 -1.6747652309680413e-015 $426 6.2831853071795987 $284 $427 forward 7 unknown #
loop $-1 $-1 $291 $179 #
plane-surface $-1 42.680846121885395 -33.094501115503363 3.3127693975556554 0 -0.70710678939079041 0.70710677298230451 1 0 0 forward_v I I I I #
loop $-1 $-1 $428 $114 #
coedge $-1 $289 $289 $290 $429 reversed $180 $-1 #
coedge $-1 $290 $290 $289 $429 forward $182 $-1 #
coedge $-1 $291 $291 $183 $292 forward $286 $-1 #
edge $-1 $430 -1.6747652309680413e-015 $430 6.2831853071795987 $291 $431 forward 7 unknown #
loop $-1 $-1 $298 $184 #
plane-surface $-1 42.680846121885395 -33.094501115503363 3.3127693975556554 0 -0.70710678939079041 0.70710677298230451 1 0 0 forward_v I I I I #
loop $-1 $-1 $432 $117 #
coedge $-1 $296 $296 $297 $433 reversed $185 $-1 #
coedge $-1 $297 $297 $296 $433 forward $187 $-1 #
coedge $-1 $298 $298 $188 $299 forward $293 $-1 #
edge $-1 $434 -1.6747652309680413e-015 $434 6.2831853071795987 $298 $435 forward 7 unknown #
face $-1 $436 $437 $45 $-1 $438 reversed single #
loop $-1 $-1 $439 $189 #
plane-surface $-1 -72.410657063509007 0 0 1 0 0 0 0 -1 forward_v I I I I #
coedge $-1 $440 $311 $441 $442 forward $190 $-1 #
coedge $-1 $443 $192 $440 $444 forward $121 $-1 #
coedge $-1 $192 $443 $445 $446 forward $121 $-1 #
coedge $-1 $314 $313 $192 $307 reversed $315 $-1 #
edge $-1 $447 -33.094501115503348 $448 33.094501115503348 $306 $449 forward 7 unknown #
coedge $-1 $194 $193 $450 $451 forward $76 $-1 #
coedge $-1 $452 $453 $193 $310 reversed $437 $-1 #
edge $-1 $317 -72.410657063509007 $454 72.410657063509007 $309 $455 forward 7 unknown #
coedge $-1 $303 $456 $194 $312 reversed $190 $-1 #
edge $-1 $457 -72.410657063509007 $316 72.410657063509007 $311 $458 forward 7 unknown #
coedge $-1 $306 $195 $456 $459 forward $315 $-1 #
coedge $-1 $195 $306 $452 $460 reversed $315 $-1 #
loop $-1 $-1 $314 $436 #
vertex $-1 $196 $461 #
vertex $-1 $196 $462 #
straight-curve $-1 72.410657063509007 0 15.591290436110269 0 1 0 I I #
face $-1 $463 $464 $46 $-1 $465 forward single #
loop $-1 $-1 $466 $197 #
plane-surface $-1 0 0 -15.591290436110269 0 0 1 1 0 0 forward_v I I I I #
coedge $-1 $467 $468 $327 $469 forward $198 $-1 #
coedge $-1 $470 $200 $466 $471 reversed $125 $-1 #
coedge $-1 $200 $470 $472 $473 reversed $125 $-1 #
coedge $-1 $468 $467 $200 $326 reversed $198 $-1 #
edge $-1 $474 -15.591290436110269 $475 15.591290436110269 $325 $476 forward 7 unknown #
coedge $-1 $202 $201 $322 $469 reversed $79 $-1 #
coedge $-1 $477 $478 $201 $329 forward $320 $-1 #
edge $-1 $479 25.622153101686372 $335 39.733053675110547 $328 $480 forward 7 unknown #
coedge $-1 $481 $482 $202 $331 forward $464 $-1 #
edge $-1 $336 -39.733053675110547 $483 -25.622153101686372 $330 $484 forward 7 unknown #
coedge $-1 $485 $203 $482 $486 reversed $334 $-1 #
coedge $-1 $203 $485 $477 $487 reversed $334 $-1 #
loop $-1 $-1 $485 $463 #
vertex $-1 $487 $488 #
vertex $-1 $204 $489 #
straight-curve $-1 -72.410657063509007 -28.64195456002696 0 0 0 1 I I #
face $-1 $490 $491 $47 $-1 $492 reversed single #
loop $-1 $-1 $493 $205 #
plane-surface $-1 82.414658425908897 0 -11.187739410077183 0 0 1 1 0 0 forward_v I I I I #
coedge $-1 $494 $495 $345 $496 forward $206 $-1 #
coedge $-1 $497 $208 $495 $498 reversed $129 $-1 #
coedge $-1 $208 $497 $348 $499 reversed $129 $-1 #
edge $-1 $350 11.187739410077183 $500 15.591290436110269 $208 $501 forward 7 unknown #
coedge $-1 $210 $209 $341 $496 reversed $82 $-1 #
coedge $-1 $502 $503 $209 $347 forward $504 $-1 #
edge $-1 $505 -15.591290436110269 $351 -11.187739410077183 $346 $506 forward 7 unknown #
coedge $-1 $493 $211 $343 $499 forward $339 $-1 #
coedge $-1 $211 $493 $502 $507 forward $339 $-1 #
vertex $-1 $344 $508 #
vertex $-1 $507 $509 #
straight-curve $-1 72.410657063509007 0 -11.187739410077183 0 1 0 I I #
face $-1 $-1 $365 $48 $-1 $510 forward single #
loop $-1 $-1 $511 $213 #
plane-surface $-1 0 33.094501115503348 0 0 -1 0 0 0 -1 forward_v I I I I #
coedge $-1 $512 $513 $514 $515 reversed $214 $-1 #
coedge $-1 $516 $216 $218 $363 forward $133 $-1 #
coedge $-1 $216 $516 $512 $517 forward $133 $-1 #
coedge $-1 $514 $219 $216 $360 forward $365 $-1 #
edge $-1 $367 1.3491302328364725 $518 16.074202946154713 $359 $519 forward 7 unknown #
coedge $-1 $520 $521 $217 $362 forward $354 $-1 #
edge $-1 $522 -62.323424971216525 $366 -56.47139220603168 $361 $523 forward 7 unknown #
edge $-1 $367 59.211253239923145 $522 66.189002231006739 $218 $524 forward 7 unknown #
coedge $-1 $219 $514 $520 $525 forward $365 $-1 #
loop $-1 $-1 $514 $353 #
vertex $-1 $362 $526 #
vertex $-1 $220 $527 #
straight-curve $-1 10.060796822332065 59.251381278161723 15.59129043611027 0 -1 0 I I #
coedge $-1 $369 $369 $-1 $528 reversed $223 $-1 #
edge $-1 $529 0 $529 6.2831853071796004 $224 $530 forward 7 unknown #
vertex $-1 $227 $531 #
ellipse-curve $-1 13.005811364995708 31.19432391996531 12.665274053517861 0 0.83867057594974714 0.54463902268945019 0.5 0 0 1 I I #
coedge $-1 $373 $373 $-1 $532 reversed $230 $-1 #
edge $-1 $533 0 $533 6.2831853071796004 $231 $534 forward 7 unknown #
vertex $-1 $234 $535 #
ellipse-curve $-1 17.423333178991186 31.19432391996531 12.665274053517861 0 0.83867057594974714 0.54463902268945019 0.5 0 0 1 I I #
coedge $-1 $377 $377 $-1 $536 reversed $237 $-1 #
edge $-1 $537 0 $537 6.2831853071796004 $238 $538 forward 7 unknown #
vertex $-1 $241 $539 #
ellipse-curve $-1 21.840854992986664 31.19432391996531 12.665274053517861 0 0.83867057594974714 0.54463902268945019 0.5 0 0 1 I I #
face $-1 $-1 $540 $52 $-1 $541 reversed single #
loop $-1 $-1 $248 $242 #
plane-surface $-1 0 0 15.591290436110269 0 0 1 1 0 0 forward_v I I I I #
coedge $-1 $542 $543 $544 $545 reversed $243 $-1 #
coedge $-1 $546 $245 $247 $391 forward $152 $-1 #
coedge $-1 $245 $546 $542 $547 forward $152 $-1 #
coedge $-1 $544 $248 $245 $388 forward $382 $-1 #
edge $-1 $394 -3.3866285705680319 $548 16.056987863079673 $387 $549 forward 7 unknown #
coedge $-1 $550 $551 $246 $390 forward $540 $-1 #
edge $-1 $552 -49.545681346928326 $393 -37.267160308373725 $389 $553 forward 7 unknown #
edge $-1 $394 -17.364450777135385 $552 -2.0097183471152325e-014 $247 $554 forward 7 unknown #
coedge $-1 $248 $544 $550 $555 forward $382 $-1 #
vertex $-1 $390 $556 #
vertex $-1 $249 $557 #
straight-curve $-1 -2.9485510756877886 -67.749317791607098 15.59129043611027 0 1 0 I I #
coedge $-1 $396 $396 $-1 $558 reversed $252 $-1 #
edge $-1 $559 0 $559 6.2831853071796004 $253 $560 forward 7 unknown #
vertex $-1 $256 $561 #
ellipse-curve $-1 -18.503444222605957 -26.955240738688218 9.45202991683297 0 -0.70710678939079041 0.70710677298230451 1.5 0 0 1 I I #
coedge $-1 $400 $400 $-1 $562 reversed $259 $-1 #
edge $-1 $563 0 $563 6.2831853071796004 $260 $564 forward 7 unknown #
vertex $-1 $263 $565 #
ellipse-curve $-1 -12.670359292511648 -26.955240738688218 9.45202991683297 0 -0.70710678939079041 0.70710677298230451 1.5 0 0 1 I I #
coedge $-1 $404 $404 $-1 $566 reversed $266 $-1 #
edge $-1 $567 0 $567 6.2831853071796004 $267 $568 forward 7 unknown #
vertex $-1 $270 $569 #
ellipse-curve $-1 -6.8372743624173324 -26.955240738688218 9.45202991683297 0 -0.70710678939079041 0.70710677298230451 1.5 0 0 1 I I #
face $-1 $-1 $420 $56 $-1 $570 forward single #
loop $-1 $-1 $571 $271 #
plane-surface $-1 0 -33.094501115503348 0 0 1 0 0 0 1 forward_v I I I I #
coedge $-1 $572 $573 $574 $575 reversed $272 $-1 #
coedge $-1 $576 $274 $276 $418 forward $171 $-1 #
coedge $-1 $274 $576 $572 $577 forward $171 $-1 #
coedge $-1 $574 $277 $274 $415 forward $420 $-1 #
edge $-1 $422 -31.06223127776655 $578 -11.618614844118845 $414 $579 forward 7 unknown #
coedge $-1 $580 $581 $275 $417 forward $409 $-1 #
edge $-1 $582 -49.545681346928326 $421 -37.267160308373725 $416 $583 forward 7 unknown #
edge $-1 $422 -17.364450777135385 $582 -2.0097183471152325e-014 $276 $584 forward 7 unknown #
coedge $-1 $277 $574 $580 $585 forward $420 $-1 #
loop $-1 $-1 $574 $408 #
vertex $-1 $417 $586 #
vertex $-1 $278 $587 #
straight-curve $-1 52.402654338709247 -67.749317791607098 15.59129043611027 0 1 0 I I #
coedge $-1 $424 $424 $-1 $588 reversed $281 $-1 #
edge $-1 $589 0 $589 6.2831853071796004 $282 $590 forward 7 unknown #
vertex $-1 $285 $591 #
ellipse-curve $-1 36.847761191791079 -26.955240738688218 9.45202991683297 0 -0.70710678939079041 0.70710677298230451 1.5 0 0 1 I I #
coedge $-1 $428 $428 $-1 $592 reversed $288 $-1 #
edge $-1 $593 0 $593 6.2831853071796004 $289 $594 forward 7 unknown #
vertex $-1 $292 $595 #
ellipse-curve $-1 42.680846121885381 -26.955240738688218 9.45202991683297 0 -0.70710678939079041 0.70710677298230451 1.5 0 0 1 I I #
coedge $-1 $432 $432 $-1 $596 reversed $295 $-1 #
edge $-1 $597 0 $597 6.2831853071796004 $296 $598 forward 7 unknown #
vertex $-1 $299 $599 #
ellipse-curve $-1 48.513931051979696 -26.955240738688218 9.45202991683297 0 -0.70710678939079041 0.70710677298230451 1.5 0 0 1 I I #
face $-1 $-1 $315 $45 $-1 $600 reversed single #
loop $-1 $-1 $452 $300 #
plane-surface $-1 0 33.094501115503348 0 0 -1 0 0 0 -1 forward_v I I I I #
coedge $-1 $601 $450 $453 $602 forward $301 $-1 #
coedge $-1 $456 $303 $304 $444 reversed $190 $-1 #
coedge $-1 $450 $601 $303 $442 reversed $301 $-1 #
edge $-1 $457 -15.591290436110269 $603 15.591290436110269 $441 $604 forward 7 unknown #
coedge $-1 $305 $304 $601 $605 forward $121 $-1 #
edge $-1 $448 -72.410657063509007 $603 72.410657063509007 $440 $606 forward 7 unknown #
coedge $-1 $453 $452 $305 $446 reversed $437 $-1 #
edge $-1 $607 -72.410657063509007 $447 72.410657063509007 $445 $608 forward 7 unknown #
vertex $-1 $307 $609 #
vertex $-1 $459 $610 #
straight-curve $-1 72.410657063509007 0 -15.591290436110269 0 -1 0 I I #
coedge $-1 $439 $441 $308 $451 reversed $301 $-1 #
edge $-1 $454 -33.094501115503348 $457 33.094501115503348 $450 $611 forward 7 unknown #
coedge $-1 $445 $309 $314 $460 forward $437 $-1 #
coedge $-1 $309 $445 $439 $602 reversed $437 $-1 #
vertex $-1 $310 $612 #
straight-curve $-1 0 33.094501115503348 15.591290436110269 -1 0 0 I I #
coedge $-1 $311 $440 $313 $459 reversed $190 $-1 #
vertex $-1 $451 $613 #
straight-curve $-1 0 -33.094501115503348 15.591290436110269 1 0 0 I I #
edge $-1 $316 -15.591290436110269 $448 15.591290436110269 $313 $614 forward 7 unknown #
edge $-1 $317 -15.591290436110269 $447 15.591290436110269 $314 $615 forward 7 unknown #
point $-1 72.410657063509007 -33.094501115503348 15.591290436110269 #
point $-1 72.410657063509007 33.094501115503348 15.591290436110269 #
face $-1 $-1 $334 $46 $-1 $616 reversed single #
loop $-1 $-1 $472 $319 #
plane-surface $-1 0 0 15.591290436110269 0 0 1 1 0 0 forward_v I I I I #
coedge $-1 $478 $477 $323 $471 forward $320 $-1 #
coedge $-1 $325 $322 $478 $617 reversed $198 $-1 #
coedge $-1 $322 $325 $481 $618 reversed $198 $-1 #
edge $-1 $483 -15.591290436110269 $479 15.591290436110269 $322 $619 forward 7 unknown #
coedge $-1 $324 $323 $485 $620 reversed $125 $-1 #
edge $-1 $621 -39.733053675110547 $475 -25.622153101686372 $466 $622 forward 7 unknown #
coedge $-1 $482 $481 $324 $473 forward $464 $-1 #
edge $-1 $474 25.622153101686372 $623 39.733053675110547 $472 $624 forward 7 unknown #
vertex $-1 $473 $625 #
vertex $-1 $471 $626 #
straight-curve $-1 -58.299756490084832 -21.435806388430059 0 0 0 -1 I I #
coedge $-1 $466 $328 $333 $487 forward $320 $-1 #
coedge $-1 $328 $466 $467 $617 forward $320 $-1 #
vertex $-1 $329 $627 #
straight-curve $-1 -32.67760338839846 -28.64195456002696 -15.591290436110269 -1 0 0 I I #
coedge $-1 $472 $330 $468 $618 forward $464 $-1 #
coedge $-1 $330 $472 $332 $486 forward $464 $-1 #
vertex $-1 $331 $628 #
straight-curve $-1 -32.67760338839846 -28.64195456002696 15.591290436110269 1 0 0 I I #
coedge $-1 $333 $332 $470 $620 forward $334 $-1 #
edge $-1 $623 21.435806388430059 $336 28.64195456002696 $332 $629 forward 7 unknown #
edge $-1 $335 -28.64195456002696 $621 -21.435806388430059 $333 $630 forward 7 unknown #
point $-1 -72.410657063509007 -28.64195456002696 -15.591290436110269 #
point $-1 -72.410657063509007 -28.64195456002696 15.591290436110269 #
face $-1 $-1 $504 $47 $-1 $631 reversed single #
loop $-1 $-1 $632 $338 #
plane-surface $-1 92.418659788308787 0 -13.389514923093726 -1 0 0 0 0 1 forward_v I I I I #
coedge $-1 $349 $348 $633 $634 forward $339 $-1 #
coedge $-1 $635 $341 $503 $636 forward $206 $-1 #
coedge $-1 $341 $635 $342 $498 forward $206 $-1 #
edge $-1 $500 -33.094501115503348 $505 33.094501115503348 $341 $637 forward 7 unknown #
coedge $-1 $343 $342 $632 $638 reversed $129 $-1 #
edge $-1 $639 -10.00400136239989 $500 10.00400136239989 $342 $640 forward 7 unknown #
edge $-1 $350 -10.00400136239989 $641 10.00400136239989 $343 $642 forward 7 unknown #
vertex $-1 $496 $643 #
straight-curve $-1 72.410657063509007 -33.094501115503348 0 0 0 -1 I I #
coedge $-1 $644 $346 $349 $507 reversed $504 $-1 #
coedge $-1 $346 $644 $494 $636 reversed $504 $-1 #
loop $-1 $-1 $346 $490 #
vertex $-1 $636 $645 #
straight-curve $-1 72.410657063509007 33.094501115503348 0 0 0 1 I I #
edge $-1 $646 -10.00400136239989 $351 10.00400136239989 $502 $647 forward 7 unknown #
point $-1 72.410657063509007 -33.094501115503348 -11.187739410077183 #
point $-1 72.410657063509007 33.094501115503348 -11.187739410077183 #
plane-surface $-1 0 0 15.591290436110269 0 0 1 1 0 0 forward_v I I I I #
coedge $-1 $521 $520 $513 $648 forward $354 $-1 #
coedge $-1 $513 $356 $358 $517 reversed $214 $-1 #
coedge $-1 $356 $512 $511 $648 reversed $214 $-1 #
coedge $-1 $364 $359 $356 $515 forward $365 $-1 #
edge $-1 $518 -29.957234553734445 $649 -26.156880162658375 $514 $650 forward 7 unknown #
coedge $-1 $358 $357 $521 $651 reversed $133 $-1 #
edge $-1 $652 -66.189002231006739 $518 -59.211253239923145 $512 $653 forward 7 unknown #
vertex $-1 $360 $654 #
straight-curve $-1 8.7116665894955929 29.294146724427286 15.59129043611027 1 0 0 I I #
coedge $-1 $511 $361 $364 $525 reversed $354 $-1 #
coedge $-1 $361 $511 $516 $651 forward $354 $-1 #
vertex $-1 $362 $655 #
straight-curve $-1 10.060796822332065 33.094501115503348 72.062682642141951 0 0 1 I I #
straight-curve $-1 10.060796822332065 -2.9546123723820017 65.250026293542945 0 0.54463902268945019 -0.83867057594974714 I I #
edge $-1 $649 -24.785869535650306 $366 -10.060796822332065 $520 $656 forward 7 unknown #
point $-1 10.060796822332065 33.094501115503348 15.591290436110269 #
point $-1 10.060796822332065 29.294146724427279 15.59129043611027 #
edge $-1 $657 1 $657 0 $369 $-1 forward 7 unknown #
vertex $-1 $370 $658 #
ellipse-curve $-1 13.005811364995708 30.355653344015579 12.120635030828423 0 0.83867057594974714 0.54463902268945019 0.5 0 0 1 I I #
point $-1 13.505811364995708 31.194323919965324 12.665274053517873 #
edge $-1 $659 1 $659 0 $373 $-1 forward 7 unknown #
vertex $-1 $374 $660 #
ellipse-curve $-1 17.423333178991186 30.355653344015579 12.120635030828423 0 0.83867057594974714 0.54463902268945019 0.5 0 0 1 I I #
point $-1 17.923333178991186 31.194323919965324 12.665274053517873 #
edge $-1 $661 1 $661 0 $377 $-1 forward 7 unknown #
vertex $-1 $378 $662 #
ellipse-curve $-1 21.840854992986664 30.355653344015579 12.120635030828423 0 0.83867057594974714 0.54463902268945019 0.5 0 0 1 I I #
point $-1 22.340854992986664 31.194323919965324 12.665274053517873 #
loop $-1 $-1 $389 $381 #
plane-surface $-1 0 -33.094501115503348 0 0 1 0 0 0 1 forward_v I I I I #
coedge $-1 $543 $384 $386 $547 reversed $243 $-1 #
coedge $-1 $384 $542 $663 $664 reversed $243 $-1 #
coedge $-1 $392 $387 $384 $545 forward $382 $-1 #
edge $-1 $548 -46.933337429734003 $665 -34.654816676103749 $544 $666 forward 7 unknown #
coedge $-1 $386 $385 $551 $667 reversed $152 $-1 #
edge $-1 $668 2.0097183471152325e-014 $548 17.364450777135385 $542 $669 forward 7 unknown #
vertex $-1 $388 $670 #
straight-curve $-1 -6.3351796462558205 -20.815980361873091 15.591290436110269 -1 0 0 I I #
coedge $-1 $663 $389 $392 $555 reversed $540 $-1 #
coedge $-1 $389 $663 $546 $667 forward $540 $-1 #
vertex $-1 $390 $671 #
straight-curve $-1 -2.9485510756877886 -33.094501115503348 52.858450744483996 0 0 1 I I #
straight-curve $-1 -2.9485510756877886 -33.094501115503363 3.3127693975556554 0 -0.70710677298230451 -0.70710678939079041 I I #
edge $-1 $665 -22.392167509335493 $393 -2.9485510756877886 $550 $672 forward 7 unknown #
point $-1 -2.9485510756877886 -33.094501115503348 15.591290436110269 #
point $-1 -2.9485510756877886 -20.815980361873095 15.591290436110267 #
edge $-1 $673 1 $673 0 $396 $-1 forward 7 unknown #
vertex $-1 $397 $674 #
ellipse-curve $-1 -18.503444222605957 -23.100842998282374 5.5976322658688193 0 -0.70710678939079041 0.70710677298230451 1.5 0 0 1 I I #
point $-1 -17.003444222605957 -26.955240738688225 9.4520299168329736 #
edge $-1 $675 1 $675 0 $400 $-1 forward 7 unknown #
vertex $-1 $401 $676 #
ellipse-curve $-1 -12.670359292511648 -23.100842998282374 5.5976322658688193 0 -0.70710678939079041 0.70710677298230451 1.5 0 0 1 I I #
point $-1 -11.170359292511648 -26.955240738688225 9.4520299168329736 #
edge $-1 $677 1 $677 0 $404 $-1 forward 7 unknown #
vertex $-1 $405 $678 #
ellipse-curve $-1 -6.8372743624173324 -23.100842998282374 5.5976322658688193 0 -0.70710678939079041 0.70710677298230451 1.5 0 0 1 I I #
point $-1 -5.3372743624173324 -26.955240738688225 9.4520299168329736 #
plane-surface $-1 0 0 15.591290436110269 0 0 1 1 0 0 forward_v I I I I #
coedge $-1 $581 $580 $573 $679 forward $409 $-1 #
coedge $-1 $573 $411 $413 $577 reversed $272 $-1 #
coedge $-1 $411 $572 $571 $679 reversed $272 $-1 #
coedge $-1 $419 $414 $411 $575 forward $420 $-1 #
edge $-1 $578 -46.933337429734003 $680 -34.654816676103749 $574 $681 forward 7 unknown #
coedge $-1 $413 $412 $581 $682 reversed $171 $-1 #
edge $-1 $683 2.0097183471152325e-014 $578 17.364450777135385 $572 $684 forward 7 unknown #
vertex $-1 $415 $685 #
straight-curve $-1 21.340423060942697 -20.815980361873091 15.591290436110269 -1 0 0 I I #
coedge $-1 $571 $416 $419 $585 reversed $409 $-1 #
coedge $-1 $416 $571 $576 $682 forward $409 $-1 #
vertex $-1 $417 $686 #
straight-curve $-1 52.402654338709247 -33.094501115503348 52.858450744483996 0 0 1 I I #
straight-curve $-1 52.402654338709247 -33.094501115503363 3.3127693975556554 0 -0.70710677298230451 -0.70710678939079041 I I #
edge $-1 $680 32.959037905061543 $421 52.402654338709247 $580 $687 forward 7 unknown #
point $-1 52.402654338709247 -33.094501115503348 15.591290436110269 #
point $-1 52.402654338709247 -20.815980361873095 15.591290436110267 #
edge $-1 $688 1 $688 0 $424 $-1 forward 7 unknown #
vertex $-1 $425 $689 #
ellipse-curve $-1 36.847761191791079 -23.100842998282374 5.5976322658688193 0 -0.70710678939079041 0.70710677298230451 1.5 0 0 1 I I #
point $-1 38.347761191791079 -26.955240738688225 9.4520299168329736 #
edge $-1 $690 1 $690 0 $428 $-1 forward 7 unknown #
vertex $-1 $429 $691 #
ellipse-curve $-1 42.680846121885381 -23.100842998282374 5.5976322658688193 0 -0.70710678939079041 0.70710677298230451 1.5 0 0 1 I I #
point $-1 44.180846121885381 -26.955240738688225 9.4520299168329736 #
edge $-1 $692 1 $692 0 $432 $-1 forward 7 unknown #
vertex $-1 $433 $693 #
ellipse-curve $-1 48.513931051979696 -23.100842998282374 5.5976322658688193 0 -0.70710678939079041 0.70710677298230451 1.5 0 0 1 I I #
point $-1 50.013931051979696 -26.955240738688225 9.4520299168329736 #
plane-surface $-1 72.410657063509007 0 0 -1 0 0 0 0 1 forward_v I I I I #
coedge $-1 $441 $439 $443 $605 reversed $301 $-1 #
edge $-1 $454 -15.591290436110269 $607 15.591290436110269 $453 $694 forward 7 unknown #
vertex $-1 $605 $695 #
straight-curve $-1 -72.410657063509007 -33.094501115503348 0 0 0 -1 I I #
edge $-1 $603 -33.094501115503348 $607 33.094501115503348 $601 $696 forward 7 unknown #
straight-curve $-1 0 -33.094501115503348 -15.591290436110269 -1 0 0 I I #
vertex $-1 $446 $697 #
straight-curve $-1 0 33.094501115503348 -15.591290436110269 1 0 0 I I #
point $-1 72.410657063509007 33.094501115503348 -15.591290436110269 #
point $-1 72.410657063509007 -33.094501115503348 -15.591290436110269 #
straight-curve $-1 -72.410657063509007 0 15.591290436110269 0 -1 0 I I #
point $-1 -72.410657063509007 33.094501115503348 15.591290436110269 #
point $-1 -72.410657063509007 -33.094501115503348 15.591290436110269 #
straight-curve $-1 72.410657063509007 -33.094501115503348 0 0 0 -1 I I #
straight-curve $-1 72.410657063509007 33.094501115503348 0 0 0 -1 I I #
plane-surface $-1 -72.410657063509007 0 0 1 0 0 0 0 -1 forward_v I I I I #
edge $-1 $475 8.9163661513158043 $479 16.122514322912707 $478 $698 forward 7 unknown #
edge $-1 $483 -16.122514322912707 $474 -8.9163661513158043 $481 $699 forward 7 unknown #
straight-curve $-1 -58.299756490084832 -28.64195456002696 0 0 0 -1 I I #
edge $-1 $623 -15.591290436110269 $621 15.591290436110269 $485 $700 forward 7 unknown #
vertex $-1 $620 $701 #
straight-curve $-1 -32.67760338839846 -21.435806388430059 -15.591290436110269 1 0 0 I I #
vertex $-1 $486 $702 #
straight-curve $-1 -32.67760338839846 -21.435806388430059 15.591290436110269 -1 0 0 I I #
point $-1 -58.299756490084832 -21.435806388430059 15.591290436110269 #
point $-1 -58.299756490084832 -21.435806388430059 -15.591290436110269 #
point $-1 -58.299756490084832 -28.64195456002696 -15.591290436110269 #
point $-1 -58.299756490084832 -28.64195456002696 15.591290436110269 #
straight-curve $-1 -72.410657063509007 0 15.591290436110269 0 -1 0 I I #
straight-curve $-1 -72.410657063509007 0 -15.591290436110269 0 1 0 I I #
plane-surface $-1 0 33.094501115503348 0 0 -1 0 0 0 -1 forward_v I I I I #
coedge $-1 $703 $633 $497 $638 forward $491 $-1 #
coedge $-1 $632 $704 $493 $634 reversed $491 $-1 #
edge $-1 $641 -33.094501115503348 $646 33.094501115503348 $633 $705 forward 7 unknown #
coedge $-1 $495 $494 $703 $706 forward $206 $-1 #
edge $-1 $505 -10.00400136239989 $707 10.00400136239989 $503 $708 forward 7 unknown #
straight-curve $-1 72.410657063509007 0 -15.591290436110269 0 1 0 I I #
edge $-1 $641 -2.2017755130165426 $639 2.2017755130165426 $632 $709 forward 7 unknown #
vertex $-1 $638 $710 #
straight-curve $-1 82.414658425908897 -33.094501115503348 -15.591290436110269 -1 0 0 I I #
vertex $-1 $634 $711 #
straight-curve $-1 82.414658425908897 -33.094501115503348 -11.187739410077183 1 0 0 I I #
point $-1 72.410657063509007 -33.094501115503348 -15.591290436110269 #
coedge $-1 $503 $502 $704 $712 forward $504 $-1 #
point $-1 72.410657063509007 33.094501115503348 -15.591290436110269 #
vertex $-1 $634 $713 #
straight-curve $-1 82.414658425908897 33.094501115503348 -11.187739410077183 -1 0 0 I I #
edge $-1 $649 56.47139220603168 $652 62.323424971216525 $511 $714 forward 7 unknown #
vertex $-1 $525 $715 #
straight-curve $-1 24.785869535650306 59.251381278161723 15.59129043611027 0 1 0 I I #
edge $-1 $652 -16.074202946154713 $522 -1.3491302328364725 $521 $716 forward 7 unknown #
vertex $-1 $651 $717 #
straight-curve $-1 24.785869535650306 -2.9546123723820017 65.250026293542945 0 -0.54463902268945019 0.83867057594974714 I I #
point $-1 24.785869535650306 29.294146724427279 15.59129043611027 #
point $-1 10.060796822332065 33.094501115503348 9.7392576709254257 #
straight-curve $-1 0 33.094501115503348 15.591290436110269 -1 0 0 I I #
vertex $-1 $528 $718 #
point $-1 13.505811364995708 30.355653344015579 12.120635030828423 #
vertex $-1 $532 $719 #
point $-1 17.923333178991186 30.355653344015579 12.120635030828423 #
vertex $-1 $536 $720 #
point $-1 22.340854992986664 30.355653344015579 12.120635030828423 #
coedge $-1 $551 $550 $543 $664 forward $540 $-1 #
edge $-1 $665 37.267160308373725 $668 49.545681346928326 $663 $721 forward 7 unknown #
vertex $-1 $555 $722 #
straight-curve $-1 -22.392167509335493 -67.749317791607098 15.59129043611027 0 -1 0 I I #
edge $-1 $668 -16.056987863079673 $552 3.3866285705680319 $551 $723 forward 7 unknown #
vertex $-1 $667 $724 #
straight-curve $-1 -22.392167509335493 -33.094501115503363 3.3127693975556554 0 0.70710677298230451 0.70710678939079041 I I #
point $-1 -22.392167509335493 -20.815980361873095 15.591290436110267 #
point $-1 -2.9485510756877886 -33.094501115503348 3.3127693975556696 #
straight-curve $-1 0 -33.094501115503348 15.591290436110269 1 0 0 I I #
vertex $-1 $558 $725 #
point $-1 -17.003444222605957 -23.100842998282374 5.5976322658688193 #
vertex $-1 $562 $726 #
point $-1 -11.170359292511648 -23.100842998282374 5.5976322658688193 #
vertex $-1 $566 $727 #
point $-1 -5.3372743624173324 -23.100842998282374 5.5976322658688193 #
edge $-1 $680 37.267160308373725 $683 49.545681346928326 $571 $728 forward 7 unknown #
vertex $-1 $585 $729 #
straight-curve $-1 32.959037905061543 -67.749317791607098 15.59129043611027 0 -1 0 I I #
edge $-1 $683 11.618614844118845 $582 31.06223127776655 $581 $730 forward 7 unknown #
vertex $-1 $682 $731 #
straight-curve $-1 32.959037905061543 -33.094501115503363 3.3127693975556554 0 0.70710677298230451 0.70710678939079041 I I #
point $-1 32.959037905061543 -20.815980361873095 15.591290436110267 #
point $-1 52.402654338709247 -33.094501115503348 3.3127693975556696 #
straight-curve $-1 0 -33.094501115503348 15.591290436110269 1 0 0 I I #
vertex $-1 $588 $732 #
point $-1 38.347761191791079 -23.100842998282374 5.5976322658688193 #
vertex $-1 $592 $733 #
point $-1 44.180846121885381 -23.100842998282374 5.5976322658688193 #
vertex $-1 $596 $734 #
point $-1 50.013931051979696 -23.100842998282374 5.5976322658688193 #
straight-curve $-1 -72.410657063509007 33.094501115503348 0 0 0 -1 I I #
point $-1 -72.410657063509007 -33.094501115503348 -15.591290436110269 #
straight-curve $-1 -72.410657063509007 0 -15.591290436110269 0 1 0 I I #
point $-1 -72.410657063509007 33.094501115503348 -15.591290436110269 #
straight-curve $-1 -58.299756490084832 -12.519440237114255 -15.591290436110269 0 -1 0 I I #
straight-curve $-1 -58.299756490084832 -12.519440237114255 15.591290436110269 0 1 0 I I #
straight-curve $-1 -72.410657063509007 -21.435806388430059 0 0 0 -1 I I #
point $-1 -72.410657063509007 -21.435806388430059 -15.591290436110269 #
point $-1 -72.410657063509007 -21.435806388430059 15.591290436110269 #
coedge $-1 $704 $632 $635 $706 reversed $491 $-1 #
coedge $-1 $633 $703 $644 $712 reversed $491 $-1 #
straight-curve $-1 92.418659788308787 0 -11.187739410077183 0 1 0 I I #
edge $-1 $707 -33.094501115503348 $639 33.094501115503348 $703 $735 forward 7 unknown #
vertex $-1 $706 $736 #
straight-curve $-1 82.414658425908897 33.094501115503348 -15.591290436110269 1 0 0 I I #
straight-curve $-1 92.418659788308787 -33.094501115503348 -13.389514923093726 0 0 -1 I I #
point $-1 92.418659788308787 -33.094501115503348 -15.591290436110269 #
point $-1 92.418659788308787 -33.094501115503348 -11.187739410077183 #
edge $-1 $646 -2.2017755130165426 $707 2.2017755130165426 $704 $737 forward 7 unknown #
point $-1 92.418659788308787 33.094501115503348 -11.187739410077183 #
straight-curve $-1 24.785869535650306 33.094501115503348 72.062682642141951 0 0 -1 I I #
point $-1 24.785869535650306 33.094501115503348 15.591290436110269 #
straight-curve $-1 8.7116665894955929 33.094501115503348 9.7392576709254186 -1 0 0 I I #
point $-1 24.785869535650306 33.094501115503348 9.7392576709254257 #
point $-1 13.005811364995708 29.936318056040705 11.848315519483696 #
point $-1 17.423333178991186 29.936318056040705 11.848315519483696 #
point $-1 21.840854992986664 29.936318056040705 11.848315519483696 #
straight-curve $-1 -22.392167509335493 -33.094501115503348 52.858450744483996 0 0 -1 I I #
point $-1 -22.392167509335493 -33.094501115503348 15.591290436110269 #
straight-curve $-1 -6.3351796462558205 -33.094501115503348 3.312769397555666 1 0 0 I I #
point $-1 -22.392167509335493 -33.094501115503348 3.3127693975556696 #
point $-1 -18.503444222605957 -22.040182814196186 4.5369721063953623 #
point $-1 -12.670359292511648 -22.040182814196186 4.5369721063953623 #
point $-1 -6.8372743624173324 -22.040182814196186 4.5369721063953623 #
straight-curve $-1 32.959037905061543 -33.094501115503348 52.858450744483996 0 0 -1 I I #
point $-1 32.959037905061543 -33.094501115503348 15.591290436110269 #
straight-curve $-1 21.340423060942697 -33.094501115503348 3.312769397555666 1 0 0 I I #
point $-1 32.959037905061543 -33.094501115503348 3.3127693975556696 #
point $-1 36.847761191791079 -22.040182814196186 4.5369721063953623 #
point $-1 42.680846121885381 -22.040182814196186 4.5369721063953623 #
point $-1 48.513931051979696 -22.040182814196186 4.5369721063953623 #
straight-curve $-1 92.418659788308787 0 -15.591290436110269 0 -1 0 I I #
point $-1 92.418659788308787 33.094501115503348 -15.591290436110269 #
straight-curve $-1 92.418659788308787 33.094501115503348 -13.389514923093726 0 0 -1 I I #
End-of-ACIS-data 