500 0 16 0           
7 Unknown 11 ACIS 5.0 NT 24 Fri Mar 26 20:27:10 1999 
-1 9.9999999999999995e-007 1e-010 
body $-1 $16 $-1 $17 #
body $-1 $18 $-1 $19 #
body $-1 $20 $-1 $21 #
body $-1 $22 $-1 $23 #
body $-1 $24 $-1 $25 #
body $-1 $26 $-1 $27 #
body $-1 $28 $-1 $29 #
body $-1 $30 $-1 $31 #
body $-1 $32 $-1 $33 #
body $-1 $34 $-1 $35 #
body $-1 $36 $-1 $37 #
body $-1 $38 $-1 $39 #
body $-1 $40 $-1 $41 #
body $-1 $42 $-1 $43 #
body $-1 $44 $-1 $45 #
body $-1 $46 $-1 $47 #
lump $-1 $-1 $48 $0 #
transform $-1 1 0 0 0 1 0 0 0 1 69.654225287636962 48.228009937919012 22.236958517534958 1 rotate no_reflect no_shear #
lump $-1 $-1 $49 $1 #
transform $-1 1 0 0 0 1 0 0 0 1 69.654225287636962 48.228009937919012 22.236958517534958 1 rotate no_reflect no_shear #
lump $-1 $-1 $50 $2 #
transform $-1 1 0 0 0 1 0 0 0 1 69.654225287636962 48.228009937919012 22.236958517534958 1 rotate no_reflect no_shear #
lump $-1 $-1 $51 $3 #
transform $-1 1 0 0 0 1 0 0 0 1 69.654225287636962 48.228009937919012 22.236958517534958 1 rotate no_reflect no_shear #
lump $-1 $-1 $52 $4 #
transform $-1 1 0 0 0 1 0 0 0 1 69.654225287636962 48.228009937919012 22.236958517534958 1 rotate no_reflect no_shear #
lump $-1 $-1 $53 $5 #
transform $-1 1 0 0 0 1 0 0 0 1 69.654225287636962 48.228009937919012 22.236958517534958 1 rotate no_reflect no_shear #
lump $-1 $-1 $54 $6 #
transform $-1 1 0 0 0 1 0 0 0 1 69.654225287636962 48.228009937919012 22.236958517534958 1 rotate no_reflect no_shear #
lump $-1 $-1 $55 $7 #
transform $-1 1 0 0 0 1 0 0 0 1 69.654225287636962 48.228009937919012 22.236958517534958 1 rotate no_reflect no_shear #
lump $-1 $-1 $56 $8 #
transform $-1 1 0 0 0 1 0 0 0 1 69.654225287636962 48.228009937919012 22.236958517534958 1 rotate no_reflect no_shear #
lump $-1 $-1 $57 $9 #
transform $-1 1 0 0 0 1 0 0 0 1 69.654225287636962 48.228009937919012 22.236958517534958 1 rotate no_reflect no_shear #
lump $-1 $-1 $58 $10 #
transform $-1 1 0 0 0 1 0 0 0 1 69.654225287636962 48.228009937919012 22.236958517534958 1 rotate no_reflect no_shear #
lump $-1 $-1 $59 $11 #
transform $-1 1 0 0 0 1 0 0 0 1 69.654225287636962 48.228009937919012 22.236958517534958 1 rotate no_reflect no_shear #
lump $-1 $-1 $60 $12 #
transform $-1 1 0 0 0 1 0 0 0 1 69.654225287636962 48.228009937919012 22.236958517534958 1 rotate no_reflect no_shear #
lump $-1 $-1 $61 $13 #
transform $-1 1 0 0 0 1 0 0 0 1 69.654225287636962 48.228009937919012 22.236958517534958 1 rotate no_reflect no_shear #
lump $-1 $-1 $62 $14 #
transform $-1 1 0 0 0 1 0 0 0 1 69.654225287636962 48.228009937919012 22.236958517534958 1 rotate no_reflect no_shear #
lump $-1 $-1 $63 $15 #
transform $-1 1 0 0 0 1 0 0 0 1 69.654225287636962 48.228009937919012 22.236958517534958 1 rotate no_reflect no_shear #
shell $-1 $-1 $-1 $64 $-1 $16 #
shell $-1 $-1 $-1 $65 $-1 $18 #
shell $-1 $-1 $-1 $66 $-1 $20 #
shell $-1 $-1 $-1 $67 $-1 $22 #
shell $-1 $-1 $-1 $68 $-1 $24 #
shell $-1 $-1 $-1 $69 $-1 $26 #
shell $-1 $-1 $-1 $70 $-1 $28 #
shell $-1 $-1 $-1 $71 $-1 $30 #
shell $-1 $-1 $-1 $72 $-1 $32 #
shell $-1 $-1 $-1 $73 $-1 $34 #
shell $-1 $-1 $-1 $74 $-1 $36 #
shell $-1 $-1 $-1 $75 $-1 $38 #
shell $-1 $-1 $-1 $76 $-1 $40 #
shell $-1 $-1 $-1 $77 $-1 $42 #
shell $-1 $-1 $-1 $78 $-1 $44 #
shell $-1 $-1 $-1 $79 $-1 $46 #
face $-1 $80 $81 $48 $-1 $82 forward single #
face $-1 $83 $84 $49 $-1 $85 forward single #
face $-1 $86 $87 $50 $-1 $88 reversed single #
face $-1 $89 $90 $51 $-1 $91 forward single #
face $-1 $92 $93 $52 $-1 $94 forward single #
face $-1 $95 $96 $53 $-1 $97 forward single #
face $-1 $98 $99 $54 $-1 $100 reversed single #
face $-1 $101 $102 $55 $-1 $103 forward single #
face $-1 $104 $105 $56 $-1 $106 forward single #
face $-1 $107 $108 $57 $-1 $109 forward single #
face $-1 $110 $111 $58 $-1 $112 reversed single #
face $-1 $113 $114 $59 $-1 $115 forward single #
face $-1 $116 $117 $60 $-1 $118 forward single #
face $-1 $119 $120 $61 $-1 $121 reversed single #
face $-1 $122 $123 $62 $-1 $124 forward single #
face $-1 $125 $126 $63 $-1 $127 forward single #
face $-1 $128 $129 $48 $-1 $130 reversed single #
loop $-1 $-1 $131 $64 #
plane-surface $-1 0 0 22.236958517534958 0 0 1 1 0 0 forward_v I I I I #
face $-1 $132 $133 $49 $-1 $134 reversed single #
loop $-1 $-1 $135 $65 #
plane-surface $-1 -69.654225287636962 0 0 1 0 0 0 0 -1 forward_v I I I I #
face $-1 $136 $137 $50 $-1 $138 reversed single #
loop $-1 $-1 $139 $66 #
plane-surface $-1 -30.406572821634356 104.23549016205914 173.30233636917836 1 0 0 0 -0.80901700255871778 -0.5877852410284794 forward_v I I I I #
face $-1 $140 $141 $51 $-1 $142 forward single #
loop $-1 $143 $144 $67 #
cone-surface $-1 -24.507595689968255 43.51344480907818 16.721803145488671 0 -0.80901700255871778 -0.5877852410284794 1.5 0 0 1 I I 0 1 1.5 forward I I I I #
face $-1 $145 $146 $52 $-1 $147 forward single #
loop $-1 $148 $149 $68 #
cone-surface $-1 -15.659129992469104 43.51344480907818 16.721803145488671 0 -0.80901700255871778 -0.5877852410284794 1.5 0 0 1 I I 0 1 1.5 forward I I I I #
face $-1 $150 $151 $53 $-1 $152 forward single #
loop $-1 $153 $154 $69 #
cone-surface $-1 -6.8106642949699534 43.51344480907818 16.721803145488671 0 -0.80901700255871778 -0.5877852410284794 1.5 0 0 1 I I 0 1 1.5 forward I I I I #
face $-1 $155 $156 $54 $-1 $157 reversed single #
loop $-1 $-1 $158 $70 #
plane-surface $-1 30.396892359841083 104.23549016205914 173.30233636917836 1 0 0 0 -0.80901700255871778 -0.5877852410284794 forward_v I I I I #
face $-1 $159 $160 $55 $-1 $161 forward single #
loop $-1 $162 $163 $71 #
cone-surface $-1 36.295869491507176 43.51344480907818 16.721803145488671 0 -0.80901700255871778 -0.5877852410284794 1.5 0 0 1 I I 0 1 1.5 forward I I I I #
face $-1 $164 $165 $56 $-1 $166 forward single #
loop $-1 $167 $168 $72 #
cone-surface $-1 45.144335189006341 43.51344480907818 16.721803145488671 0 -0.80901700255871778 -0.5877852410284794 1.5 0 0 1 I I 0 1 1.5 forward I I I I #
face $-1 $169 $170 $57 $-1 $171 forward single #
loop $-1 $172 $173 $73 #
cone-surface $-1 53.992800886505478 43.51344480907818 16.721803145488671 0 -0.80901700255871778 -0.5877852410284794 1.5 0 0 1 I I 0 1 1.5 forward I I I I #
face $-1 $174 $175 $58 $-1 $176 reversed single #
loop $-1 $-1 $177 $74 #
plane-surface $-1 -22.696085410181219 -132.06592940752836 129.30655076258236 -1 0 0 0 -0.6018150307709319 0.79863550430605224 forward_v I I I I #
face $-1 $178 $179 $59 $-1 $180 forward single #
loop $-1 $181 $182 $75 #
cone-surface $-1 -41.020972982607539 -44.142262214524848 18.408273389527999 0 0.6018150307709319 -0.79863550430605224 1.5 0 0 1 I I 0 1 1.5 forward I I I I #
face $-1 $183 $184 $60 $-1 $185 forward single #
loop $-1 $186 $187 $76 #
cone-surface $-1 -30.026040439151743 -44.142262214524848 18.408273389527999 0 0.6018150307709319 -0.79863550430605224 1.5 0 0 1 I I 0 1 1.5 forward I I I I #
face $-1 $188 $189 $61 $-1 $190 reversed single #
loop $-1 $-1 $191 $77 #
plane-surface $-1 66.052448223901109 -132.06592940752836 129.30655076258236 -1 0 0 0 -0.6018150307709319 0.79863550430605224 forward_v I I I I #
face $-1 $192 $193 $62 $-1 $194 forward single #
loop $-1 $195 $196 $78 #
cone-surface $-1 47.727560651474789 -44.142262214524848 18.408273389527999 0 0.6018150307709319 -0.79863550430605224 1.5 0 0 1 I I 0 1 1.5 forward I I I I #
face $-1 $197 $198 $63 $-1 $199 forward single #
loop $-1 $200 $201 $79 #
cone-surface $-1 58.722493194930593 -44.142262214524848 18.408273389527999 0 0.6018150307709319 -0.79863550430605224 1.5 0 0 1 I I 0 1 1.5 forward I I I I #
face $-1 $202 $203 $48 $-1 $204 reversed single #
loop $-1 $-1 $205 $80 #
plane-surface $-1 0 0 -22.236958517534958 0 0 1 1 0 0 forward_v I I I I #
coedge $-1 $206 $207 $208 $209 forward $81 $-1 #
face $-1 $210 $211 $49 $-1 $212 forward single #
loop $-1 $-1 $213 $83 #
plane-surface $-1 0 48.228009937919012 0 0 -1 0 0 0 -1 forward_v I I I I #
coedge $-1 $214 $215 $216 $217 forward $84 $-1 #
face $-1 $218 $219 $50 $-1 $220 reversed single #
loop $-1 $-1 $221 $86 #
plane-surface $-1 -15.659129992469097 -8.4674149534482552 91.418885170486973 0 0.80901700255871778 0.5877852410284794 1 0 0 forward_v I I I I #
coedge $-1 $222 $223 $224 $225 reversed $87 $-1 #
face $-1 $-1 $226 $51 $-1 $227 forward single #
loop $-1 $228 $229 $89 #
cone-surface $-1 -24.507595689968255 41.408024168481148 15.192125555542297 0 -0.80901700255871778 -0.5877852410284794 0.75 0 0 1 I I -0.70710678118654757 0.70710678118654757 0.75 forward I I I I #
loop $-1 $-1 $230 $67 #
coedge $-1 $144 $144 $231 $232 reversed $90 $-1 #
face $-1 $-1 $233 $52 $-1 $234 forward single #
loop $-1 $235 $236 $92 #
cone-surface $-1 -15.659129992469104 41.408024168481148 15.192125555542297 0 -0.80901700255871778 -0.5877852410284794 0.75 0 0 1 I I -0.70710678118654757 0.70710678118654757 0.75 forward I I I I #
loop $-1 $-1 $237 $68 #
coedge $-1 $149 $149 $238 $239 reversed $93 $-1 #
face $-1 $-1 $240 $53 $-1 $241 forward single #
loop $-1 $242 $243 $95 #
cone-surface $-1 -6.8106642949699534 41.408024168481148 15.192125555542297 0 -0.80901700255871778 -0.5877852410284794 0.75 0 0 1 I I -0.70710678118654757 0.70710678118654757 0.75 forward I I I I #
loop $-1 $-1 $244 $69 #
coedge $-1 $154 $154 $245 $246 reversed $96 $-1 #
face $-1 $247 $248 $54 $-1 $249 reversed single #
loop $-1 $-1 $250 $98 #
plane-surface $-1 45.144335189006341 -8.4674149534482552 91.418885170486973 0 0.80901700255871778 0.5877852410284794 1 0 0 forward_v I I I I #
coedge $-1 $251 $252 $253 $254 reversed $99 $-1 #
face $-1 $-1 $255 $55 $-1 $256 forward single #
loop $-1 $257 $258 $101 #
cone-surface $-1 36.295869491507176 41.408024168481148 15.192125555542297 0 -0.80901700255871778 -0.5877852410284794 0.75 0 0 1 I I -0.70710678118654757 0.70710678118654757 0.75 forward I I I I #
loop $-1 $-1 $259 $71 #
coedge $-1 $163 $163 $260 $261 reversed $102 $-1 #
face $-1 $-1 $262 $56 $-1 $263 forward single #
loop $-1 $264 $265 $104 #
cone-surface $-1 45.144335189006341 41.408024168481148 15.192125555542297 0 -0.80901700255871778 -0.5877852410284794 0.75 0 0 1 I I -0.70710678118654757 0.70710678118654757 0.75 forward I I I I #
loop $-1 $-1 $266 $72 #
coedge $-1 $168 $168 $267 $268 reversed $105 $-1 #
face $-1 $-1 $269 $57 $-1 $270 forward single #
loop $-1 $271 $272 $107 #
cone-surface $-1 53.992800886505478 41.408024168481148 15.192125555542297 0 -0.80901700255871778 -0.5877852410284794 0.75 0 0 1 I I -0.70710678118654757 0.70710678118654757 0.75 forward I I I I #
loop $-1 $-1 $273 $73 #
coedge $-1 $173 $173 $274 $275 reversed $108 $-1 #
face $-1 $276 $277 $58 $-1 $278 reversed single #
loop $-1 $-1 $279 $110 #
plane-surface $-1 -35.523506710879644 -48.22800993791904 18.049876083303715 0 -0.6018150307709319 0.79863550430605224 1 0 0 forward_v I I I I #
coedge $-1 $280 $281 $282 $283 reversed $111 $-1 #
face $-1 $-1 $284 $59 $-1 $285 forward single #
loop $-1 $286 $287 $113 #
cone-surface $-1 -41.020972982607539 -42.38337619393068 16.074152850407131 0 0.6018150307709319 -0.79863550430605224 0.75 0 0 1 I I -0.70710678118654757 0.70710678118654757 0.75 forward I I I I #
loop $-1 $-1 $288 $75 #
coedge $-1 $182 $182 $289 $290 reversed $114 $-1 #
face $-1 $-1 $291 $60 $-1 $292 forward single #
loop $-1 $293 $294 $116 #
cone-surface $-1 -30.026040439151743 -42.38337619393068 16.074152850407131 0 0.6018150307709319 -0.79863550430605224 0.75 0 0 1 I I -0.70710678118654757 0.70710678118654757 0.75 forward I I I I #
loop $-1 $-1 $295 $76 #
coedge $-1 $187 $187 $296 $297 reversed $117 $-1 #
face $-1 $298 $299 $61 $-1 $300 reversed single #
loop $-1 $-1 $301 $119 #
plane-surface $-1 53.225026923202691 -48.22800993791904 18.049876083303715 0 -0.6018150307709319 0.79863550430605224 1 0 0 forward_v I I I I #
coedge $-1 $302 $303 $304 $305 reversed $120 $-1 #
face $-1 $-1 $306 $62 $-1 $307 forward single #
loop $-1 $308 $309 $122 #
cone-surface $-1 47.727560651474789 -42.38337619393068 16.074152850407131 0 0.6018150307709319 -0.79863550430605224 0.75 0 0 1 I I -0.70710678118654757 0.70710678118654757 0.75 forward I I I I #
loop $-1 $-1 $310 $78 #
coedge $-1 $196 $196 $311 $312 reversed $123 $-1 #
face $-1 $-1 $313 $63 $-1 $314 forward single #
loop $-1 $315 $316 $125 #
cone-surface $-1 58.722493194930593 -42.38337619393068 16.074152850407131 0 0.6018150307709319 -0.79863550430605224 0.75 0 0 1 I I -0.70710678118654757 0.70710678118654757 0.75 forward I I I I #
loop $-1 $-1 $317 $79 #
coedge $-1 $201 $201 $318 $319 reversed $126 $-1 #
face $-1 $320 $321 $48 $-1 $322 reversed single #
loop $-1 $-1 $323 $128 #
plane-surface $-1 0 -48.228009937919012 0 0 1 0 0 0 1 forward_v I I I I #
coedge $-1 $324 $325 $326 $327 forward $129 $-1 #
coedge $-1 $328 $131 $329 $330 forward $81 $-1 #
coedge $-1 $131 $328 $331 $332 forward $81 $-1 #
coedge $-1 $333 $334 $131 $209 reversed $335 $-1 #
edge $-1 $336 -48.228009937919012 $337 48.228009937919012 $208 $338 forward 7 unknown #
face $-1 $339 $340 $49 $-1 $341 reversed single #
loop $-1 $-1 $216 $132 #
plane-surface $-1 -78.504985393798492 0 12.324724324564485 0 0 1 1 0 0 forward_v I I I I #
coedge $-1 $342 $343 $215 $344 forward $133 $-1 #
coedge $-1 $345 $135 $346 $347 reversed $84 $-1 #
coedge $-1 $135 $345 $213 $344 reversed $84 $-1 #
coedge $-1 $348 $349 $135 $217 reversed $211 $-1 #
edge $-1 $350 -48.228009937919012 $351 48.228009937919012 $216 $352 forward 7 unknown #
face $-1 $353 $354 $50 $-1 $355 forward single #
loop $-1 $-1 $356 $136 #
plane-surface $-1 -0.91168716330383859 104.23549016205914 173.30233636917836 -1 0 0 0 0.80901700255871778 0.5877852410284794 forward_v I I I I #
coedge $-1 $357 $358 $359 $360 reversed $137 $-1 #
coedge $-1 $223 $139 $361 $362 reversed $87 $-1 #
coedge $-1 $139 $222 $357 $363 reversed $87 $-1 #
coedge $-1 $359 $364 $139 $225 forward $354 $-1 #
edge $-1 $365 3.8897351431105562 $366 10.32154962343629 $224 $367 forward 7 unknown #
loop $-1 $-1 $231 $140 #
plane-surface $-1 -15.659129992469097 -8.4674149534482552 91.418885170486973 0 0.80901700255871778 0.5877852410284794 1 0 0 forward_v I I I I #
loop $-1 $-1 $368 $89 #
coedge $-1 $229 $229 $230 $369 reversed $141 $-1 #
coedge $-1 $230 $230 $229 $369 forward $143 $-1 #
coedge $-1 $231 $231 $144 $232 forward $226 $-1 #
edge $-1 $370 -4.0120654619113127e-015 $370 6.283185307179596 $231 $371 forward 7 unknown #
loop $-1 $-1 $238 $145 #
plane-surface $-1 -15.659129992469097 -8.4674149534482552 91.418885170486973 0 0.80901700255871778 0.5877852410284794 1 0 0 forward_v I I I I #
loop $-1 $-1 $372 $92 #
coedge $-1 $236 $236 $237 $373 reversed $146 $-1 #
coedge $-1 $237 $237 $236 $373 forward $148 $-1 #
coedge $-1 $238 $238 $149 $239 forward $233 $-1 #
edge $-1 $374 -4.0120654619113127e-015 $374 6.283185307179596 $238 $375 forward 7 unknown #
loop $-1 $-1 $245 $150 #
plane-surface $-1 -15.659129992469097 -8.4674149534482552 91.418885170486973 0 0.80901700255871778 0.5877852410284794 1 0 0 forward_v I I I I #
loop $-1 $-1 $376 $95 #
coedge $-1 $243 $243 $244 $377 reversed $151 $-1 #
coedge $-1 $244 $244 $243 $377 forward $153 $-1 #
coedge $-1 $245 $245 $154 $246 forward $240 $-1 #
edge $-1 $378 -4.0120654619113127e-015 $378 6.283185307179596 $245 $379 forward 7 unknown #
face $-1 $380 $381 $54 $-1 $382 forward single #
loop $-1 $-1 $383 $155 #
plane-surface $-1 59.8917780181716 104.23549016205914 173.30233636917836 -1 0 0 0 0.80901700255871778 0.5877852410284794 forward_v I I I I #
coedge $-1 $384 $385 $386 $387 reversed $156 $-1 #
coedge $-1 $252 $158 $388 $389 reversed $99 $-1 #
coedge $-1 $158 $251 $384 $390 reversed $99 $-1 #
coedge $-1 $386 $391 $158 $254 forward $381 $-1 #
edge $-1 $392 3.8897351431105562 $393 10.32154962343629 $253 $394 forward 7 unknown #
loop $-1 $-1 $260 $159 #
plane-surface $-1 45.144335189006341 -8.4674149534482552 91.418885170486973 0 0.80901700255871778 0.5877852410284794 1 0 0 forward_v I I I I #
loop $-1 $-1 $395 $101 #
coedge $-1 $258 $258 $259 $396 reversed $160 $-1 #
coedge $-1 $259 $259 $258 $396 forward $162 $-1 #
coedge $-1 $260 $260 $163 $261 forward $255 $-1 #
edge $-1 $397 -4.0120654619113127e-015 $397 6.283185307179596 $260 $398 forward 7 unknown #
loop $-1 $-1 $267 $164 #
plane-surface $-1 45.144335189006341 -8.4674149534482552 91.418885170486973 0 0.80901700255871778 0.5877852410284794 1 0 0 forward_v I I I I #
loop $-1 $-1 $399 $104 #
coedge $-1 $265 $265 $266 $400 reversed $165 $-1 #
coedge $-1 $266 $266 $265 $400 forward $167 $-1 #
coedge $-1 $267 $267 $168 $268 forward $262 $-1 #
edge $-1 $401 -4.0120654619113127e-015 $401 6.283185307179596 $267 $402 forward 7 unknown #
loop $-1 $-1 $274 $169 #
plane-surface $-1 45.144335189006341 -8.4674149534482552 91.418885170486973 0 0.80901700255871778 0.5877852410284794 1 0 0 forward_v I I I I #
loop $-1 $-1 $403 $107 #
coedge $-1 $272 $272 $273 $404 reversed $170 $-1 #
coedge $-1 $273 $273 $272 $404 forward $172 $-1 #
coedge $-1 $274 $274 $173 $275 forward $269 $-1 #
edge $-1 $405 -4.0120654619113127e-015 $405 6.283185307179596 $274 $406 forward 7 unknown #
face $-1 $407 $408 $58 $-1 $409 reversed single #
loop $-1 $-1 $410 $174 #
plane-surface $-1 -48.35092801157807 -132.06592940752836 129.30655076258236 1 0 0 0 0.6018150307709319 -0.79863550430605224 forward_v I I I I #
coedge $-1 $411 $412 $413 $414 reversed $175 $-1 #
coedge $-1 $281 $177 $415 $416 reversed $111 $-1 #
coedge $-1 $177 $280 $411 $417 reversed $111 $-1 #
coedge $-1 $413 $418 $177 $283 forward $419 $-1 #
edge $-1 $420 17.804954765845167 $421 23.361400717601512 $282 $422 forward 7 unknown #
loop $-1 $-1 $289 $178 #
plane-surface $-1 -35.523506710879644 -48.22800993791904 18.049876083303715 0 -0.6018150307709319 0.79863550430605224 1 0 0 forward_v I I I I #
loop $-1 $-1 $423 $113 #
coedge $-1 $287 $287 $288 $424 reversed $179 $-1 #
coedge $-1 $288 $288 $287 $424 forward $181 $-1 #
coedge $-1 $289 $289 $182 $290 forward $284 $-1 #
edge $-1 $425 -2.4114948809320305e-015 $425 6.2831853071795978 $289 $426 forward 7 unknown #
loop $-1 $-1 $296 $183 #
plane-surface $-1 -35.523506710879644 -48.22800993791904 18.049876083303715 0 -0.6018150307709319 0.79863550430605224 1 0 0 forward_v I I I I #
loop $-1 $-1 $427 $116 #
coedge $-1 $294 $294 $295 $428 reversed $184 $-1 #
coedge $-1 $295 $295 $294 $428 forward $186 $-1 #
coedge $-1 $296 $296 $187 $297 forward $291 $-1 #
edge $-1 $429 -2.4114948809320305e-015 $429 6.2831853071795978 $296 $430 forward 7 unknown #
face $-1 $431 $432 $61 $-1 $433 reversed single #
loop $-1 $-1 $434 $188 #
plane-surface $-1 40.397605622504265 -132.06592940752836 129.30655076258236 1 0 0 0 0.6018150307709319 -0.79863550430605224 forward_v I I I I #
coedge $-1 $435 $436 $437 $438 reversed $189 $-1 #
coedge $-1 $303 $191 $439 $440 reversed $120 $-1 #
coedge $-1 $191 $302 $435 $441 reversed $120 $-1 #
coedge $-1 $437 $442 $191 $305 forward $443 $-1 #
edge $-1 $444 17.804954765845167 $445 23.361400717601512 $304 $446 forward 7 unknown #
loop $-1 $-1 $311 $192 #
plane-surface $-1 53.225026923202691 -48.22800993791904 18.049876083303715 0 -0.6018150307709319 0.79863550430605224 1 0 0 forward_v I I I I #
loop $-1 $-1 $447 $122 #
coedge $-1 $309 $309 $310 $448 reversed $193 $-1 #
coedge $-1 $310 $310 $309 $448 forward $195 $-1 #
coedge $-1 $311 $311 $196 $312 forward $306 $-1 #
edge $-1 $449 -2.4114948809320305e-015 $449 6.2831853071795978 $311 $450 forward 7 unknown #
loop $-1 $-1 $318 $197 #
plane-surface $-1 53.225026923202691 -48.22800993791904 18.049876083303715 0 -0.6018150307709319 0.79863550430605224 1 0 0 forward_v I I I I #
loop $-1 $-1 $451 $125 #
coedge $-1 $316 $316 $317 $452 reversed $198 $-1 #
coedge $-1 $317 $317 $316 $452 forward $200 $-1 #
coedge $-1 $318 $318 $201 $319 forward $313 $-1 #
edge $-1 $453 -2.4114948809320305e-015 $453 6.2831853071795978 $318 $454 forward 7 unknown #
face $-1 $455 $456 $48 $-1 $457 reversed single #
loop $-1 $-1 $458 $202 #
plane-surface $-1 -69.654225287636962 0 0 1 0 0 0 0 -1 forward_v I I I I #
coedge $-1 $459 $331 $460 $461 forward $203 $-1 #
coedge $-1 $462 $205 $459 $463 forward $129 $-1 #
coedge $-1 $205 $462 $464 $465 forward $129 $-1 #
coedge $-1 $334 $333 $205 $327 reversed $335 $-1 #
edge $-1 $466 -48.228009937919012 $467 48.228009937919012 $326 $468 forward 7 unknown #
coedge $-1 $207 $206 $469 $470 forward $81 $-1 #
coedge $-1 $471 $472 $206 $330 reversed $456 $-1 #
edge $-1 $337 -69.654225287636962 $473 69.654225287636962 $329 $474 forward 7 unknown #
coedge $-1 $323 $475 $207 $332 reversed $203 $-1 #
edge $-1 $476 -69.654225287636962 $336 69.654225287636962 $331 $477 forward 7 unknown #
coedge $-1 $326 $208 $475 $478 forward $335 $-1 #
coedge $-1 $208 $326 $471 $479 reversed $335 $-1 #
loop $-1 $-1 $333 $455 #
vertex $-1 $209 $480 #
vertex $-1 $209 $481 #
straight-curve $-1 69.654225287636962 0 22.236958517534958 0 1 0 I I #
face $-1 $482 $483 $49 $-1 $484 reversed single #
loop $-1 $-1 $485 $210 #
plane-surface $-1 -78.504985393798492 0 1.4351499428978869 0 0 1 1 0 0 forward_v I I I I #
coedge $-1 $486 $213 $487 $488 reversed $133 $-1 #
coedge $-1 $213 $486 $348 $489 reversed $133 $-1 #
edge $-1 $350 -12.324724324564485 $490 -1.4351499428978869 $213 $491 forward 7 unknown #
coedge $-1 $215 $214 $485 $492 forward $84 $-1 #
coedge $-1 $493 $494 $214 $347 forward $495 $-1 #
edge $-1 $496 1.4351499428978869 $351 12.324724324564485 $346 $497 forward 7 unknown #
coedge $-1 $498 $216 $343 $489 forward $211 $-1 #
coedge $-1 $216 $498 $493 $499 forward $211 $-1 #
vertex $-1 $344 $500 #
vertex $-1 $499 $501 #
straight-curve $-1 -69.654225287636962 0 12.324724324564485 0 -1 0 I I #
face $-1 $-1 $502 $50 $-1 $503 reversed single #
loop $-1 $-1 $224 $218 #
plane-surface $-1 0 0 22.236958517534958 0 0 1 1 0 0 forward_v I I I I #
coedge $-1 $504 $505 $506 $507 reversed $219 $-1 #
coedge $-1 $508 $221 $223 $363 forward $137 $-1 #
coedge $-1 $221 $508 $504 $509 forward $137 $-1 #
coedge $-1 $506 $224 $221 $360 forward $354 $-1 #
edge $-1 $366 -22.577007825399807 $510 6.91787783293071 $359 $511 forward 7 unknown #
coedge $-1 $512 $513 $222 $362 forward $502 $-1 #
edge $-1 $514 -73.266843092796819 $365 -64.414209667054223 $361 $515 forward 7 unknown #
edge $-1 $366 85.513563292423939 $514 96.456019875838052 $223 $516 forward 7 unknown #
coedge $-1 $224 $506 $512 $517 forward $354 $-1 #
vertex $-1 $362 $518 #
vertex $-1 $225 $519 #
straight-curve $-1 -30.406572821634356 52.117745081029568 22.236958517534958 0 -1 0 I I #
coedge $-1 $368 $368 $-1 $520 reversed $228 $-1 #
edge $-1 $521 0 $521 6.2831853071796004 $229 $522 forward 7 unknown #
vertex $-1 $232 $523 #
ellipse-curve $-1 -24.507595689968255 45.012102697756148 17.810641804663671 0 0.80901700255871778 0.5877852410284794 1.5 0 0 1 I I #
coedge $-1 $372 $372 $-1 $524 reversed $235 $-1 #
edge $-1 $525 0 $525 6.2831853071796004 $236 $526 forward 7 unknown #
vertex $-1 $239 $527 #
ellipse-curve $-1 -15.659129992469104 45.012102697756148 17.810641804663671 0 0.80901700255871778 0.5877852410284794 1.5 0 0 1 I I #
coedge $-1 $376 $376 $-1 $528 reversed $242 $-1 #
edge $-1 $529 0 $529 6.2831853071796004 $243 $530 forward 7 unknown #
vertex $-1 $246 $531 #
ellipse-curve $-1 -6.8106642949699534 45.012102697756148 17.810641804663671 0 0.80901700255871778 0.5877852410284794 1.5 0 0 1 I I #
face $-1 $-1 $532 $54 $-1 $533 reversed single #
loop $-1 $-1 $253 $247 #
plane-surface $-1 0 0 22.236958517534958 0 0 1 1 0 0 forward_v I I I I #
coedge $-1 $534 $535 $536 $537 reversed $248 $-1 #
coedge $-1 $538 $250 $252 $390 forward $156 $-1 #
coedge $-1 $250 $538 $534 $539 forward $156 $-1 #
coedge $-1 $536 $253 $250 $387 forward $381 $-1 #
edge $-1 $393 7.8247247653379119 $540 37.319610423668429 $386 $541 forward 7 unknown #
coedge $-1 $542 $543 $251 $389 forward $532 $-1 #
edge $-1 $544 -73.266843092796819 $392 -64.414209667054223 $388 $545 forward 7 unknown #
edge $-1 $393 85.513563292423939 $544 96.456019875838052 $252 $546 forward 7 unknown #
coedge $-1 $253 $536 $542 $547 forward $381 $-1 #
vertex $-1 $254 $548 #
vertex $-1 $254 $549 #
straight-curve $-1 30.396892359841083 52.117745081029568 22.236958517534958 0 -1 0 I I #
coedge $-1 $395 $395 $-1 $550 reversed $257 $-1 #
edge $-1 $551 0 $551 6.2831853071796004 $258 $552 forward 7 unknown #
vertex $-1 $261 $553 #
ellipse-curve $-1 36.295869491507176 45.012102697756148 17.810641804663671 0 0.80901700255871778 0.5877852410284794 1.5 0 0 1 I I #
coedge $-1 $399 $399 $-1 $554 reversed $264 $-1 #
edge $-1 $555 0 $555 6.2831853071796004 $265 $556 forward 7 unknown #
vertex $-1 $268 $557 #
ellipse-curve $-1 45.144335189006341 45.012102697756148 17.810641804663671 0 0.80901700255871778 0.5877852410284794 1.5 0 0 1 I I #
coedge $-1 $403 $403 $-1 $558 reversed $271 $-1 #
edge $-1 $559 0 $559 6.2831853071796004 $272 $560 forward 7 unknown #
vertex $-1 $275 $561 #
ellipse-curve $-1 53.992800886505478 45.012102697756148 17.810641804663671 0 0.80901700255871778 0.5877852410284794 1.5 0 0 1 I I #
face $-1 $-1 $419 $58 $-1 $562 forward single #
loop $-1 $-1 $563 $276 #
plane-surface $-1 0 -48.228009937919012 0 0 1 0 0 0 1 forward_v I I I I #
coedge $-1 $564 $565 $566 $567 reversed $277 $-1 #
coedge $-1 $568 $279 $281 $417 forward $175 $-1 #
coedge $-1 $279 $568 $564 $569 forward $175 $-1 #
coedge $-1 $566 $282 $279 $414 forward $419 $-1 #
edge $-1 $421 4.9343320547413967 $570 30.589174656138248 $413 $571 forward 7 unknown #
coedge $-1 $572 $573 $280 $416 forward $408 $-1 #
edge $-1 $574 -46.603399297987444 $420 -42.416316863756222 $415 $575 forward 7 unknown #
edge $-1 $421 -6.9574241588275783 $574 -3.5527045195756588e-014 $281 $576 forward 7 unknown #
coedge $-1 $282 $566 $572 $577 forward $419 $-1 #
loop $-1 $-1 $566 $407 #
vertex $-1 $416 $578 #
vertex $-1 $283 $579 #
straight-curve $-1 -22.696085410181219 -66.032964703764179 22.236958517534958 0 1 0 I I #
coedge $-1 $423 $423 $-1 $580 reversed $286 $-1 #
edge $-1 $581 0 $581 6.2831853071796004 $287 $582 forward 7 unknown #
vertex $-1 $290 $583 #
ellipse-curve $-1 -41.020972982607539 -45.449786962040832 20.143417300419351 0 -0.6018150307709319 0.79863550430605224 1.5 0 0 1 I I #
coedge $-1 $427 $427 $-1 $584 reversed $293 $-1 #
edge $-1 $585 0 $585 6.2831853071796004 $294 $586 forward 7 unknown #
vertex $-1 $297 $587 #
ellipse-curve $-1 -30.026040439151743 -45.449786962040832 20.143417300419351 0 -0.6018150307709319 0.79863550430605224 1.5 0 0 1 I I #
face $-1 $-1 $443 $61 $-1 $588 forward single #
loop $-1 $-1 $589 $298 #
plane-surface $-1 0 -48.228009937919012 0 0 1 0 0 0 1 forward_v I I I I #
coedge $-1 $590 $591 $592 $593 reversed $299 $-1 #
coedge $-1 $594 $301 $303 $441 forward $189 $-1 #
coedge $-1 $301 $594 $590 $595 forward $189 $-1 #
coedge $-1 $592 $304 $301 $438 forward $443 $-1 #
edge $-1 $445 -39.439934762299764 $596 -13.78509216090292 $437 $597 forward 7 unknown #
coedge $-1 $598 $599 $302 $440 forward $432 $-1 #
edge $-1 $600 -46.603399297987444 $444 -42.416316863756222 $439 $601 forward 7 unknown #
edge $-1 $445 -6.9574241588275783 $600 -3.5527045195756588e-014 $303 $602 forward 7 unknown #
coedge $-1 $304 $592 $598 $603 forward $443 $-1 #
loop $-1 $-1 $592 $431 #
vertex $-1 $440 $604 #
vertex $-1 $305 $605 #
straight-curve $-1 66.052448223901109 -66.032964703764179 22.236958517534958 0 1 0 I I #
coedge $-1 $447 $447 $-1 $606 reversed $308 $-1 #
edge $-1 $607 0 $607 6.2831853071796004 $309 $608 forward 7 unknown #
vertex $-1 $312 $609 #
ellipse-curve $-1 47.727560651474789 -45.449786962040832 20.143417300419351 0 -0.6018150307709319 0.79863550430605224 1.5 0 0 1 I I #
coedge $-1 $451 $451 $-1 $610 reversed $315 $-1 #
edge $-1 $611 0 $611 6.2831853071796004 $316 $612 forward 7 unknown #
vertex $-1 $319 $613 #
ellipse-curve $-1 58.722493194930593 -45.449786962040832 20.143417300419351 0 -0.6018150307709319 0.79863550430605224 1.5 0 0 1 I I #
face $-1 $-1 $335 $48 $-1 $614 reversed single #
loop $-1 $-1 $471 $320 #
plane-surface $-1 0 48.228009937919012 0 0 -1 0 0 0 -1 forward_v I I I I #
coedge $-1 $615 $469 $472 $616 forward $321 $-1 #
coedge $-1 $475 $323 $324 $463 reversed $203 $-1 #
coedge $-1 $469 $615 $323 $461 reversed $321 $-1 #
edge $-1 $476 -22.236958517534958 $617 22.236958517534958 $460 $618 forward 7 unknown #
coedge $-1 $325 $324 $615 $619 forward $129 $-1 #
edge $-1 $467 -69.654225287636962 $617 69.654225287636962 $459 $620 forward 7 unknown #
coedge $-1 $472 $471 $325 $465 reversed $456 $-1 #
edge $-1 $621 -69.654225287636962 $466 69.654225287636962 $464 $622 forward 7 unknown #
vertex $-1 $327 $623 #
vertex $-1 $478 $624 #
straight-curve $-1 69.654225287636962 0 -22.236958517534958 0 -1 0 I I #
coedge $-1 $458 $460 $328 $470 reversed $321 $-1 #
edge $-1 $473 -48.228009937919012 $476 48.228009937919012 $469 $625 forward 7 unknown #
coedge $-1 $464 $329 $334 $479 forward $456 $-1 #
coedge $-1 $329 $464 $458 $616 reversed $456 $-1 #
vertex $-1 $330 $626 #
straight-curve $-1 0 48.228009937919012 22.236958517534958 -1 0 0 I I #
coedge $-1 $331 $459 $333 $478 reversed $203 $-1 #
vertex $-1 $470 $627 #
straight-curve $-1 0 -48.228009937919012 22.236958517534958 1 0 0 I I #
edge $-1 $336 -22.236958517534958 $467 22.236958517534958 $333 $628 forward 7 unknown #
edge $-1 $337 -22.236958517534958 $466 22.236958517534958 $334 $629 forward 7 unknown #
point $-1 69.654225287636962 -48.228009937919012 22.236958517534958 #
point $-1 69.654225287636962 48.228009937919012 22.236958517534958 #
face $-1 $-1 $495 $49 $-1 $630 reversed single #
loop $-1 $-1 $631 $339 #
plane-surface $-1 -87.355745499960022 0 6.8799371337311861 1 0 0 0 0 -1 forward_v I I I I #
coedge $-1 $632 $487 $345 $492 reversed $340 $-1 #
coedge $-1 $343 $342 $631 $633 reversed $133 $-1 #
coedge $-1 $485 $634 $342 $488 forward $340 $-1 #
edge $-1 $635 -8.8507601061615304 $490 8.8507601061615304 $342 $636 forward 7 unknown #
edge $-1 $350 -8.8507601061615304 $637 8.8507601061615304 $343 $638 forward 7 unknown #
vertex $-1 $344 $639 #
straight-curve $-1 -69.654225287636962 48.228009937919012 0 0 0 -1 I I #
edge $-1 $496 -48.228009937919012 $490 48.228009937919012 $485 $640 forward 7 unknown #
coedge $-1 $641 $346 $349 $499 reversed $495 $-1 #
coedge $-1 $346 $641 $632 $642 reversed $495 $-1 #
loop $-1 $-1 $346 $482 #
vertex $-1 $347 $643 #
straight-curve $-1 -69.654225287636962 -48.228009937919012 0 0 0 1 I I #
coedge $-1 $349 $348 $644 $645 forward $211 $-1 #
edge $-1 $646 -8.8507601061615304 $351 8.8507601061615304 $493 $647 forward 7 unknown #
point $-1 -69.654225287636962 48.228009937919012 12.324724324564485 #
point $-1 -69.654225287636962 -48.228009937919012 12.324724324564485 #
loop $-1 $-1 $361 $353 #
plane-surface $-1 0 48.228009937919012 0 0 -1 0 0 0 -1 forward_v I I I I #
coedge $-1 $505 $356 $358 $509 reversed $219 $-1 #
coedge $-1 $356 $504 $648 $649 reversed $219 $-1 #
coedge $-1 $364 $359 $356 $507 forward $354 $-1 #
edge $-1 $510 -10.32154962343629 $650 -3.8897351431105562 $506 $651 forward 7 unknown #
coedge $-1 $358 $357 $513 $652 reversed $137 $-1 #
edge $-1 $653 -96.456019875838052 $510 -85.513563292423939 $504 $654 forward 7 unknown #
vertex $-1 $360 $655 #
straight-curve $-1 -7.8295649962345486 41.796195457593271 22.236958517534966 1 0 0 I I #
coedge $-1 $648 $361 $364 $517 reversed $502 $-1 #
coedge $-1 $361 $648 $508 $652 forward $502 $-1 #
vertex $-1 $362 $656 #
straight-curve $-1 -30.406572821634356 48.228009937919012 86.651168184589181 0 0 1 I I #
straight-curve $-1 -30.406572821634356 -8.4674149534482552 91.418885170486973 0 0.5877852410284794 -0.80901700255871778 I I #
edge $-1 $650 0.91168716330383859 $365 30.406572821634356 $512 $657 forward 7 unknown #
point $-1 -30.406572821634356 48.228009937919012 22.236958517534958 #
point $-1 -30.406572821634356 41.796195457593278 22.236958517534958 #
edge $-1 $658 1 $658 0 $368 $-1 forward 7 unknown #
vertex $-1 $369 $659 #
ellipse-curve $-1 -24.507595689968255 42.014786920400184 15.632964486313657 0 0.80901700255871778 0.5877852410284794 1.5 0 0 1 I I #
point $-1 -23.007595689968255 45.012102697756163 17.810641804663689 #
edge $-1 $660 1 $660 0 $372 $-1 forward 7 unknown #
vertex $-1 $373 $661 #
ellipse-curve $-1 -15.659129992469104 42.014786920400184 15.632964486313657 0 0.80901700255871778 0.5877852410284794 1.5 0 0 1 I I #
point $-1 -14.159129992469104 45.012102697756163 17.810641804663689 #
edge $-1 $662 1 $662 0 $376 $-1 forward 7 unknown #
vertex $-1 $377 $663 #
ellipse-curve $-1 -6.8106642949699534 42.014786920400184 15.632964486313657 0 0.80901700255871778 0.5877852410284794 1.5 0 0 1 I I #
point $-1 -5.3106642949699534 45.012102697756163 17.810641804663689 #
loop $-1 $-1 $388 $380 #
plane-surface $-1 0 48.228009937919012 0 0 -1 0 0 0 -1 forward_v I I I I #
coedge $-1 $535 $383 $385 $539 reversed $248 $-1 #
coedge $-1 $383 $534 $664 $665 reversed $248 $-1 #
coedge $-1 $391 $386 $383 $537 forward $381 $-1 #
edge $-1 $540 -10.32154962343629 $666 -3.8897351431105562 $536 $667 forward 7 unknown #
coedge $-1 $385 $384 $543 $668 reversed $156 $-1 #
edge $-1 $669 -96.456019875838052 $540 -85.513563292423939 $534 $670 forward 7 unknown #
vertex $-1 $387 $671 #
straight-curve $-1 22.572167594503171 41.796195457593271 22.236958517534966 1 0 0 I I #
coedge $-1 $664 $388 $391 $547 reversed $532 $-1 #
coedge $-1 $388 $664 $538 $668 forward $532 $-1 #
vertex $-1 $389 $672 #
straight-curve $-1 30.396892359841083 48.228009937919012 86.651168184589181 0 0 1 I I #
straight-curve $-1 30.396892359841083 -8.4674149534482552 91.418885170486973 0 0.5877852410284794 -0.80901700255871778 I I #
edge $-1 $666 -59.8917780181716 $392 -30.396892359841083 $542 $673 forward 7 unknown #
point $-1 30.396892359841083 48.228009937919012 22.236958517534958 #
point $-1 30.396892359841083 41.796195457593278 22.236958517534958 #
edge $-1 $674 1 $674 0 $395 $-1 forward 7 unknown #
vertex $-1 $396 $675 #
ellipse-curve $-1 36.295869491507176 42.014786920400184 15.632964486313657 0 0.80901700255871778 0.5877852410284794 1.5 0 0 1 I I #
point $-1 37.795869491507176 45.012102697756163 17.810641804663689 #
edge $-1 $676 1 $676 0 $399 $-1 forward 7 unknown #
vertex $-1 $400 $677 #
ellipse-curve $-1 45.144335189006341 42.014786920400184 15.632964486313657 0 0.80901700255871778 0.5877852410284794 1.5 0 0 1 I I #
point $-1 46.644335189006341 45.012102697756163 17.810641804663689 #
edge $-1 $678 1 $678 0 $403 $-1 forward 7 unknown #
vertex $-1 $404 $679 #
ellipse-curve $-1 53.992800886505478 42.014786920400184 15.632964486313657 0 0.80901700255871778 0.5877852410284794 1.5 0 0 1 I I #
point $-1 55.492800886505478 45.012102697756163 17.810641804663689 #
plane-surface $-1 0 0 22.236958517534958 0 0 1 1 0 0 forward_v I I I I #
coedge $-1 $573 $572 $565 $680 forward $408 $-1 #
coedge $-1 $565 $410 $412 $569 reversed $277 $-1 #
coedge $-1 $410 $564 $563 $680 reversed $277 $-1 #
coedge $-1 $418 $413 $410 $567 forward $419 $-1 #
edge $-1 $570 -23.361400717601512 $681 -17.804954765845167 $566 $682 forward 7 unknown #
coedge $-1 $412 $411 $573 $683 reversed $175 $-1 #
edge $-1 $684 3.5527045195756588e-014 $570 6.9574241588275783 $564 $685 forward 7 unknown #
vertex $-1 $414 $686 #
straight-curve $-1 -17.761753355439822 -42.671563986162667 22.236958517534958 -1 0 0 I I #
coedge $-1 $563 $415 $418 $577 reversed $408 $-1 #
coedge $-1 $415 $563 $568 $683 forward $408 $-1 #
vertex $-1 $416 $687 #
straight-curve $-1 -22.696085410181219 -48.228009937919012 64.653275381291181 0 0 1 I I #
straight-curve $-1 -22.696085410181219 -48.22800993791904 18.049876083303715 0 -0.79863550430605224 -0.6018150307709319 I I #
edge $-1 $681 -48.35092801157807 $420 -22.696085410181219 $572 $688 forward 7 unknown #
point $-1 -22.696085410181219 -48.228009937919012 22.236958517534958 #
point $-1 -22.696085410181219 -42.671563986162667 22.236958517534958 #
edge $-1 $689 1 $689 0 $423 $-1 forward 7 unknown #
vertex $-1 $424 $690 #
ellipse-curve $-1 -41.020972982607539 -42.834737467008878 16.673129478636671 0 -0.6018150307709319 0.79863550430605224 1.5 0 0 1 I I #
point $-1 -39.520972982607539 -45.449786962040818 20.143417300419326 #
edge $-1 $691 1 $691 0 $427 $-1 forward 7 unknown #
vertex $-1 $428 $692 #
ellipse-curve $-1 -30.026040439151743 -42.834737467008878 16.673129478636671 0 -0.6018150307709319 0.79863550430605224 1.5 0 0 1 I I #
point $-1 -28.526040439151743 -45.449786962040818 20.143417300419326 #
plane-surface $-1 0 0 22.236958517534958 0 0 1 1 0 0 forward_v I I I I #
coedge $-1 $599 $598 $591 $693 forward $432 $-1 #
coedge $-1 $591 $434 $436 $595 reversed $299 $-1 #
coedge $-1 $434 $590 $589 $693 reversed $299 $-1 #
coedge $-1 $442 $437 $434 $593 forward $443 $-1 #
edge $-1 $596 -23.361400717601512 $694 -17.804954765845167 $592 $695 forward 7 unknown #
coedge $-1 $436 $435 $599 $696 reversed $189 $-1 #
edge $-1 $697 3.5527045195756588e-014 $596 6.9574241588275783 $590 $698 forward 7 unknown #
vertex $-1 $438 $699 #
straight-curve $-1 26.612513461601345 -42.671563986162667 22.236958517534958 -1 0 0 I I #
coedge $-1 $589 $439 $442 $603 reversed $432 $-1 #
coedge $-1 $439 $589 $594 $696 forward $432 $-1 #
vertex $-1 $440 $700 #
straight-curve $-1 66.052448223901109 -48.228009937919012 64.653275381291181 0 0 1 I I #
straight-curve $-1 66.052448223901109 -48.22800993791904 18.049876083303715 0 -0.79863550430605224 -0.6018150307709319 I I #
edge $-1 $694 40.397605622504265 $444 66.052448223901109 $598 $701 forward 7 unknown #
point $-1 66.052448223901109 -48.228009937919012 22.236958517534958 #
point $-1 66.052448223901109 -42.671563986162667 22.236958517534958 #
edge $-1 $702 1 $702 0 $447 $-1 forward 7 unknown #
vertex $-1 $448 $703 #
ellipse-curve $-1 47.727560651474789 -42.834737467008878 16.673129478636671 0 -0.6018150307709319 0.79863550430605224 1.5 0 0 1 I I #
point $-1 49.227560651474789 -45.449786962040818 20.143417300419326 #
edge $-1 $704 1 $704 0 $451 $-1 forward 7 unknown #
vertex $-1 $452 $705 #
ellipse-curve $-1 58.722493194930593 -42.834737467008878 16.673129478636671 0 -0.6018150307709319 0.79863550430605224 1.5 0 0 1 I I #
point $-1 60.222493194930593 -45.449786962040818 20.143417300419326 #
plane-surface $-1 69.654225287636962 0 0 -1 0 0 0 0 1 forward_v I I I I #
coedge $-1 $460 $458 $462 $619 reversed $321 $-1 #
edge $-1 $473 -22.236958517534958 $621 22.236958517534958 $472 $706 forward 7 unknown #
vertex $-1 $619 $707 #
straight-curve $-1 -69.654225287636962 -48.228009937919012 0 0 0 -1 I I #
edge $-1 $617 -48.228009937919012 $621 48.228009937919012 $615 $708 forward 7 unknown #
straight-curve $-1 0 -48.228009937919012 -22.236958517534958 -1 0 0 I I #
vertex $-1 $465 $709 #
straight-curve $-1 0 48.228009937919012 -22.236958517534958 1 0 0 I I #
point $-1 69.654225287636962 48.228009937919012 -22.236958517534958 #
point $-1 69.654225287636962 -48.228009937919012 -22.236958517534958 #
straight-curve $-1 -69.654225287636962 0 22.236958517534958 0 -1 0 I I #
point $-1 -69.654225287636962 48.228009937919012 22.236958517534958 #
point $-1 -69.654225287636962 -48.228009937919012 22.236958517534958 #
straight-curve $-1 69.654225287636962 -48.228009937919012 0 0 0 -1 I I #
straight-curve $-1 69.654225287636962 48.228009937919012 0 0 0 -1 I I #
plane-surface $-1 0 -48.228009937919012 0 0 1 0 0 0 1 forward_v I I I I #
coedge $-1 $710 $644 $486 $633 forward $483 $-1 #
coedge $-1 $634 $485 $494 $642 forward $340 $-1 #
edge $-1 $637 -5.4447871908332992 $635 5.4447871908332992 $486 $711 forward 7 unknown #
coedge $-1 $487 $632 $710 $712 forward $340 $-1 #
vertex $-1 $488 $713 #
straight-curve $-1 -78.504985393798492 48.228009937919012 1.4351499428978869 1 0 0 I I #
vertex $-1 $489 $714 #
straight-curve $-1 -78.504985393798492 48.228009937919012 12.324724324564485 -1 0 0 I I #
point $-1 -69.654225287636962 48.228009937919012 1.4351499428978869 #
straight-curve $-1 -69.654225287636962 0 1.4351499428978869 0 1 0 I I #
coedge $-1 $494 $493 $715 $716 forward $495 $-1 #
edge $-1 $496 -8.8507601061615304 $717 8.8507601061615304 $494 $718 forward 7 unknown #
point $-1 -69.654225287636962 -48.228009937919012 1.4351499428978869 #
coedge $-1 $631 $715 $498 $645 reversed $483 $-1 #
edge $-1 $637 -48.228009937919012 $646 48.228009937919012 $644 $719 forward 7 unknown #
vertex $-1 $645 $720 #
straight-curve $-1 -78.504985393798492 -48.228009937919012 12.324724324564485 1 0 0 I I #
coedge $-1 $513 $512 $505 $649 forward $502 $-1 #
edge $-1 $650 64.414209667054223 $653 73.266843092796819 $648 $721 forward 7 unknown #
vertex $-1 $517 $722 #
straight-curve $-1 -0.91168716330383859 52.117745081029568 22.236958517534958 0 1 0 I I #
edge $-1 $653 -6.91787783293071 $514 22.577007825399807 $513 $723 forward 7 unknown #
vertex $-1 $652 $724 #
straight-curve $-1 -0.91168716330383859 -8.4674149534482552 91.418885170486973 0 -0.5877852410284794 0.80901700255871778 I I #
point $-1 -0.91168716330383859 41.796195457593278 22.236958517534958 #
point $-1 -30.406572821634356 48.228009937919012 13.384325091792363 #
straight-curve $-1 0 48.228009937919012 22.236958517534958 -1 0 0 I I #
vertex $-1 $520 $725 #
point $-1 -23.007595689968255 42.014786920400184 15.632964486313657 #
vertex $-1 $524 $726 #
point $-1 -14.159129992469104 42.014786920400184 15.632964486313657 #
vertex $-1 $528 $727 #
point $-1 -5.3106642949699534 42.014786920400184 15.632964486313657 #
coedge $-1 $543 $542 $535 $665 forward $532 $-1 #
edge $-1 $666 64.414209667054223 $669 73.266843092796819 $664 $728 forward 7 unknown #
vertex $-1 $547 $729 #
straight-curve $-1 59.8917780181716 52.117745081029568 22.236958517534958 0 1 0 I I #
edge $-1 $669 -37.319610423668429 $544 -7.8247247653379119 $543 $730 forward 7 unknown #
vertex $-1 $668 $731 #
straight-curve $-1 59.8917780181716 -8.4674149534482552 91.418885170486973 0 -0.5877852410284794 0.80901700255871778 I I #
point $-1 59.8917780181716 41.796195457593278 22.236958517534958 #
point $-1 30.396892359841083 48.228009937919012 13.384325091792363 #
straight-curve $-1 0 48.228009937919012 22.236958517534958 -1 0 0 I I #
vertex $-1 $550 $732 #
point $-1 37.795869491507176 42.014786920400184 15.632964486313657 #
vertex $-1 $554 $733 #
point $-1 46.644335189006341 42.014786920400184 15.632964486313657 #
vertex $-1 $558 $734 #
point $-1 55.492800886505478 42.014786920400184 15.632964486313657 #
edge $-1 $681 42.416316863756222 $684 46.603399297987444 $563 $735 forward 7 unknown #
vertex $-1 $577 $736 #
straight-curve $-1 -48.35092801157807 -66.032964703764179 22.236958517534958 0 -1 0 I I #
edge $-1 $684 -30.589174656138248 $574 -4.9343320547413967 $573 $737 forward 7 unknown #
vertex $-1 $683 $738 #
straight-curve $-1 -48.35092801157807 -48.22800993791904 18.049876083303715 0 0.79863550430605224 0.6018150307709319 I I #
point $-1 -48.35092801157807 -42.671563986162667 22.236958517534958 #
point $-1 -22.696085410181219 -48.228009937919012 18.049876083303737 #
straight-curve $-1 0 -48.228009937919012 22.236958517534958 1 0 0 I I #
vertex $-1 $580 $739 #
point $-1 -39.520972982607539 -42.834737467008878 16.673129478636671 #
vertex $-1 $584 $740 #
point $-1 -28.526040439151743 -42.834737467008878 16.673129478636671 #
edge $-1 $694 42.416316863756222 $697 46.603399297987444 $589 $741 forward 7 unknown #
vertex $-1 $603 $742 #
straight-curve $-1 40.397605622504265 -66.032964703764179 22.236958517534958 0 -1 0 I I #
edge $-1 $697 13.78509216090292 $600 39.439934762299764 $599 $743 forward 7 unknown #
vertex $-1 $696 $744 #
straight-curve $-1 40.397605622504265 -48.22800993791904 18.049876083303715 0 0.79863550430605224 0.6018150307709319 I I #
point $-1 40.397605622504265 -42.671563986162667 22.236958517534958 #
point $-1 66.052448223901109 -48.228009937919012 18.049876083303737 #
straight-curve $-1 0 -48.228009937919012 22.236958517534958 1 0 0 I I #
vertex $-1 $606 $745 #
point $-1 49.227560651474789 -42.834737467008878 16.673129478636671 #
vertex $-1 $610 $746 #
point $-1 60.222493194930593 -42.834737467008878 16.673129478636671 #
straight-curve $-1 -69.654225287636962 48.228009937919012 0 0 0 -1 I I #
point $-1 -69.654225287636962 -48.228009937919012 -22.236958517534958 #
straight-curve $-1 -69.654225287636962 0 -22.236958517534958 0 1 0 I I #
point $-1 -69.654225287636962 48.228009937919012 -22.236958517534958 #
coedge $-1 $715 $631 $634 $712 reversed $483 $-1 #
straight-curve $-1 -87.355745499960022 48.228009937919012 6.8799371337311861 0 0 -1 I I #
edge $-1 $717 -48.228009937919012 $635 48.228009937919012 $710 $747 forward 7 unknown #
point $-1 -87.355745499960022 48.228009937919012 1.4351499428978869 #
point $-1 -87.355745499960022 48.228009937919012 12.324724324564485 #
coedge $-1 $644 $710 $641 $716 reversed $483 $-1 #
edge $-1 $646 -5.4447871908332992 $717 5.4447871908332992 $715 $748 forward 7 unknown #
vertex $-1 $712 $749 #
straight-curve $-1 -78.504985393798492 -48.228009937919012 1.4351499428978869 -1 0 0 I I #
straight-curve $-1 -87.355745499960022 0 12.324724324564485 0 -1 0 I I #
point $-1 -87.355745499960022 -48.228009937919012 12.324724324564485 #
straight-curve $-1 -0.91168716330383859 48.228009937919012 86.651168184589181 0 0 -1 I I #
point $-1 -0.91168716330383859 48.228009937919012 22.236958517534958 #
straight-curve $-1 -7.8295649962345486 48.228009937919012 13.38432509179237 -1 0 0 I I #
point $-1 -0.91168716330383859 48.228009937919012 13.384325091792363 #
point $-1 -24.507595689968255 40.801261416562113 14.751286624770938 #
point $-1 -15.659129992469104 40.801261416562113 14.751286624770938 #
point $-1 -6.8106642949699534 40.801261416562113 14.751286624770938 #
straight-curve $-1 59.8917780181716 48.228009937919012 86.651168184589181 0 0 -1 I I #
point $-1 59.8917780181716 48.228009937919012 22.236958517534958 #
straight-curve $-1 22.572167594503171 48.228009937919012 13.38432509179237 -1 0 0 I I #
point $-1 59.8917780181716 48.228009937919012 13.384325091792363 #
point $-1 36.295869491507176 40.801261416562113 14.751286624770938 #
point $-1 45.144335189006341 40.801261416562113 14.751286624770938 #
point $-1 53.992800886505478 40.801261416562113 14.751286624770938 #
straight-curve $-1 -48.35092801157807 -48.228009937919012 64.653275381291181 0 0 -1 I I #
point $-1 -48.35092801157807 -48.228009937919012 22.236958517534958 #
straight-curve $-1 -17.761753355439822 -48.228009937919012 18.049876083303737 1 0 0 I I #
point $-1 -48.35092801157807 -48.228009937919012 18.049876083303737 #
point $-1 -41.020972982607539 -41.932014920852481 15.475176222177591 #
point $-1 -30.026040439151743 -41.932014920852481 15.475176222177591 #
straight-curve $-1 40.397605622504265 -48.228009937919012 64.653275381291181 0 0 -1 I I #
point $-1 40.397605622504265 -48.228009937919012 22.236958517534958 #
straight-curve $-1 26.612513461601345 -48.228009937919012 18.049876083303737 1 0 0 I I #
point $-1 40.397605622504265 -48.228009937919012 18.049876083303737 #
point $-1 47.727560651474789 -41.932014920852481 15.475176222177591 #
point $-1 58.722493194930593 -41.932014920852481 15.475176222177591 #
straight-curve $-1 -87.355745499960022 0 1.4351499428978869 0 1 0 I I #
straight-curve $-1 -87.355745499960022 -48.228009937919012 6.8799371337311861 0 0 -1 I I #
point $-1 -87.355745499960022 -48.228009937919012 1.4351499428978869 #
End-of-ACIS-data 