500 0 6 0           
7 Unknown 11 ACIS 5.0 NT 24 Thu Mar 25 19:09:46 1999 
-1 9.9999999999999995e-007 1e-010 
body $-1 $6 $-1 $7 #
body $-1 $8 $-1 $9 #
body $-1 $10 $-1 $11 #
body $-1 $12 $-1 $13 #
body $-1 $14 $-1 $15 #
body $-1 $16 $-1 $17 #
lump $-1 $-1 $18 $0 #
transform $-1 1 0 0 0 1 0 0 0 1 66.392406994842375 38.275272274360525 17.052219602513805 1 rotate no_reflect no_shear #
lump $-1 $-1 $19 $1 #
transform $-1 1 0 0 0 1 0 0 0 1 66.392406994842375 38.275272274360525 17.052219602513805 1 rotate no_reflect no_shear #
lump $-1 $-1 $20 $2 #
transform $-1 1 0 0 0 1 0 0 0 1 66.392406994842375 38.275272274360525 17.052219602513805 1 rotate no_reflect no_shear #
lump $-1 $-1 $21 $3 #
transform $-1 1 0 0 0 1 0 0 0 1 66.392406994842375 38.275272274360525 17.052219602513805 1 rotate no_reflect no_shear #
lump $-1 $-1 $22 $4 #
transform $-1 1 0 0 0 1 0 0 0 1 66.392406994842375 38.275272274360525 17.052219602513805 1 rotate no_reflect no_shear #
lump $-1 $-1 $23 $5 #
transform $-1 1 0 0 0 1 0 0 0 1 66.392406994842375 38.275272274360525 17.052219602513805 1 rotate no_reflect no_shear #
shell $-1 $-1 $-1 $24 $-1 $6 #
shell $-1 $-1 $-1 $25 $-1 $8 #
shell $-1 $-1 $-1 $26 $-1 $10 #
shell $-1 $-1 $-1 $27 $-1 $12 #
shell $-1 $-1 $-1 $28 $-1 $14 #
shell $-1 $-1 $-1 $29 $-1 $16 #
face $-1 $30 $31 $18 $-1 $32 forward single #
face $-1 $33 $34 $19 $-1 $35 reversed single #
face $-1 $36 $37 $20 $-1 $38 reversed single #
face $-1 $39 $40 $21 $-1 $41 forward single #
face $-1 $42 $43 $22 $-1 $44 reversed single #
face $-1 $45 $46 $23 $-1 $47 forward single #
face $-1 $48 $49 $18 $-1 $50 reversed single #
loop $-1 $-1 $51 $24 #
plane-surface $-1 0 0 17.052219602513805 0 0 1 1 0 0 forward_v I I I I #
face $-1 $52 $53 $19 $-1 $54 reversed single #
loop $-1 $-1 $55 $25 #
plane-surface $-1 -59.882457924255441 -31.620811015858248 0 0 -1 0 0 0 -1 forward_v I I I I #
face $-1 $56 $57 $20 $-1 $58 reversed single #
loop $-1 $-1 $59 $26 #
plane-surface $-1 -53.372508853668513 59.703115944200626 157.78188706673069 1 0 0 0 -0.61566148304635926 -0.78801074757464917 forward_v I I I I #
face $-1 $60 $61 $21 $-1 $62 forward single #
loop $-1 $63 $64 $27 #
cone-surface $-1 -41.822012963941908 29.787218968196253 9.7096866312491716 0 -0.61566148304635926 -0.78801074757464917 1.5 0 0 1 I I 0 1 1.5 forward I I I I #
face $-1 $65 $66 $22 $-1 $67 reversed single #
loop $-1 $-1 $68 $28 #
plane-surface $-1 -41.822012963941908 -38.275272274360532 6.0168047432864995 0 -0.61566148304635926 0.78801074757464917 1 0 0 forward_v I I I I #
face $-1 $69 $70 $23 $-1 $71 forward single #
loop $-1 $72 $73 $29 #
cone-surface $-1 -41.822012963941908 -29.787218968196253 9.7096866312491752 0 0.61566148304635926 -0.78801074757464917 1.5 0 0 1 I I 0 1 1.5 forward I I I I #
face $-1 $74 $75 $18 $-1 $76 reversed single #
loop $-1 $-1 $77 $30 #
plane-surface $-1 0 0 -17.052219602513805 0 0 1 1 0 0 forward_v I I I I #
coedge $-1 $78 $79 $80 $81 forward $31 $-1 #
face $-1 $82 $83 $19 $-1 $84 forward single #
loop $-1 $-1 $85 $33 #
plane-surface $-1 -53.372508853668506 -34.948041645109384 0 -1 0 0 0 0 1 forward_v I I I I #
coedge $-1 $86 $87 $88 $89 forward $34 $-1 #
face $-1 $90 $91 $20 $-1 $92 reversed single #
loop $-1 $-1 $93 $36 #
plane-surface $-1 -41.822012963941908 -22.047379562723641 53.146026528158473 0 0.61566148304635926 0.78801074757464917 1 0 0 forward_v I I I I #
coedge $-1 $94 $95 $96 $97 reversed $37 $-1 #
face $-1 $-1 $98 $21 $-1 $99 forward single #
loop $-1 $100 $101 $39 #
cone-surface $-1 -41.822012963941908 27.899762860544591 7.2938530289172121 0 -0.61566148304635926 -0.78801074757464917 0.75 0 0 1 I I -0.70710678118654757 0.70710678118654757 0.75 forward I I I I #
loop $-1 $-1 $102 $27 #
coedge $-1 $64 $64 $103 $104 reversed $40 $-1 #
face $-1 $105 $106 $22 $-1 $107 reversed single #
loop $-1 $-1 $108 $42 #
plane-surface $-1 -30.271517074215303 -120.0257677812848 110.65266528185872 -1 0 0 0 -0.61566148304635926 0.78801074757464917 forward_v I I I I #
coedge $-1 $109 $110 $111 $112 reversed $43 $-1 #
face $-1 $-1 $113 $23 $-1 $114 forward single #
loop $-1 $115 $116 $45 #
cone-surface $-1 -41.822012963941908 -27.899762860544591 7.2938530289172157 0 0.61566148304635926 -0.78801074757464917 0.75 0 0 1 I I -0.70710678118654757 0.70710678118654757 0.75 forward I I I I #
loop $-1 $-1 $117 $29 #
coedge $-1 $73 $73 $118 $119 reversed $46 $-1 #
face $-1 $120 $121 $18 $-1 $122 reversed single #
loop $-1 $-1 $123 $48 #
plane-surface $-1 0 -38.275272274360525 0 0 1 0 0 0 1 forward_v I I I I #
coedge $-1 $124 $125 $126 $127 forward $49 $-1 #
coedge $-1 $128 $51 $129 $130 forward $31 $-1 #
coedge $-1 $51 $128 $131 $132 forward $31 $-1 #
coedge $-1 $133 $134 $51 $81 reversed $135 $-1 #
edge $-1 $136 -38.275272274360525 $137 38.275272274360525 $80 $138 forward 7 unknown #
face $-1 $139 $140 $19 $-1 $141 reversed single #
loop $-1 $-1 $142 $52 #
plane-surface $-1 0 0 17.052219602513805 0 0 1 1 0 0 forward_v I I I I #
coedge $-1 $143 $144 $145 $146 reversed $53 $-1 #
coedge $-1 $147 $55 $148 $149 reversed $34 $-1 #
coedge $-1 $55 $147 $150 $151 reversed $34 $-1 #
coedge $-1 $144 $143 $55 $89 reversed $53 $-1 #
edge $-1 $152 -17.052219602513805 $153 17.052219602513805 $88 $154 forward 7 unknown #
face $-1 $155 $156 $20 $-1 $157 reversed single #
loop $-1 $-1 $158 $56 #
plane-surface $-1 -30.271517074215303 59.703115944200626 157.78188706673069 -1 0 0 0 0.61566148304635926 0.78801074757464917 forward_v I I I I #
coedge $-1 $159 $160 $161 $162 reversed $57 $-1 #
coedge $-1 $95 $59 $163 $164 reversed $37 $-1 #
coedge $-1 $59 $94 $159 $165 reversed $37 $-1 #
coedge $-1 $161 $166 $59 $97 forward $167 $-1 #
edge $-1 $168 -8.4237143022602119 $169 5.7009723193345785 $96 $170 forward 7 unknown #
loop $-1 $-1 $103 $60 #
plane-surface $-1 -41.822012963941908 -22.047379562723641 53.146026528158473 0 0.61566148304635926 0.78801074757464917 1 0 0 forward_v I I I I #
loop $-1 $-1 $171 $39 #
coedge $-1 $101 $101 $102 $172 reversed $61 $-1 #
coedge $-1 $102 $102 $101 $172 forward $63 $-1 #
coedge $-1 $103 $103 $64 $104 forward $98 $-1 #
edge $-1 $173 -2.0999485102780553e-015 $173 6.2831853071795987 $103 $174 forward 7 unknown #
face $-1 $175 $176 $22 $-1 $177 forward single #
loop $-1 $-1 $111 $65 #
plane-surface $-1 0 -38.275272274360525 0 0 1 0 0 0 1 forward_v I I I I #
coedge $-1 $178 $179 $180 $181 reversed $66 $-1 #
coedge $-1 $182 $68 $183 $184 reversed $43 $-1 #
coedge $-1 $68 $182 $178 $185 forward $43 $-1 #
coedge $-1 $180 $186 $68 $112 forward $106 $-1 #
edge $-1 $187 -32.461502371697549 $188 -9.3605105922443492 $111 $189 forward 7 unknown #
loop $-1 $-1 $118 $69 #
plane-surface $-1 -41.822012963941908 -38.275272274360532 6.0168047432864995 0 -0.61566148304635926 0.78801074757464917 1 0 0 forward_v I I I I #
loop $-1 $-1 $190 $45 #
coedge $-1 $116 $116 $117 $191 reversed $70 $-1 #
coedge $-1 $117 $117 $116 $191 forward $72 $-1 #
coedge $-1 $118 $118 $73 $119 forward $113 $-1 #
edge $-1 $192 4.0820505974724101e-016 $192 6.2831853071796004 $118 $193 forward 7 unknown #
face $-1 $194 $195 $18 $-1 $196 reversed single #
loop $-1 $-1 $197 $74 #
plane-surface $-1 -66.392406994842375 0 0 1 0 0 0 0 -1 forward_v I I I I #
coedge $-1 $198 $131 $199 $200 forward $75 $-1 #
coedge $-1 $201 $77 $198 $202 forward $49 $-1 #
coedge $-1 $77 $201 $203 $204 forward $49 $-1 #
coedge $-1 $134 $133 $77 $127 reversed $135 $-1 #
edge $-1 $205 -38.275272274360525 $206 38.275272274360525 $126 $207 forward 7 unknown #
coedge $-1 $79 $78 $208 $209 forward $31 $-1 #
coedge $-1 $210 $211 $78 $130 reversed $195 $-1 #
edge $-1 $137 -66.392406994842375 $212 66.392406994842375 $129 $213 forward 7 unknown #
coedge $-1 $123 $214 $79 $132 reversed $75 $-1 #
edge $-1 $215 -66.392406994842375 $136 66.392406994842375 $131 $216 forward 7 unknown #
coedge $-1 $126 $80 $214 $217 forward $135 $-1 #
coedge $-1 $80 $126 $210 $218 reversed $135 $-1 #
loop $-1 $-1 $133 $194 #
vertex $-1 $81 $219 #
vertex $-1 $81 $220 #
straight-curve $-1 66.392406994842375 0 17.052219602513805 0 1 0 I I #
face $-1 $221 $222 $19 $-1 $223 reversed single #
loop $-1 $-1 $224 $82 #
plane-surface $-1 -66.392406994842375 0 0 1 0 0 0 0 -1 forward_v I I I I #
coedge $-1 $150 $225 $144 $226 forward $83 $-1 #
coedge $-1 $88 $85 $227 $228 reversed $53 $-1 #
coedge $-1 $85 $88 $142 $226 reversed $53 $-1 #
coedge $-1 $229 $230 $85 $146 forward $231 $-1 #
edge $-1 $232 -17.052219602513805 $233 17.052219602513805 $145 $234 forward 7 unknown #
coedge $-1 $87 $86 $224 $235 reversed $34 $-1 #
coedge $-1 $227 $236 $86 $149 forward $222 $-1 #
edge $-1 $237 -36.451178032714651 $153 -23.431279891540786 $148 $238 forward 7 unknown #
coedge $-1 $239 $142 $87 $151 forward $83 $-1 #
edge $-1 $152 23.431279891540786 $240 36.451178032714651 $150 $241 forward 7 unknown #
vertex $-1 $151 $242 #
vertex $-1 $149 $243 #
straight-curve $-1 -53.372508853668506 -31.620811015858248 0 0 0 -1 I I #
face $-1 $-1 $167 $20 $-1 $244 forward single #
loop $-1 $-1 $245 $90 #
plane-surface $-1 0 38.275272274360525 0 0 -1 0 0 0 -1 forward_v I I I I #
coedge $-1 $246 $247 $248 $249 reversed $91 $-1 #
coedge $-1 $250 $93 $95 $165 forward $57 $-1 #
coedge $-1 $93 $250 $246 $251 forward $57 $-1 #
coedge $-1 $248 $96 $93 $162 forward $167 $-1 #
edge $-1 $169 -32.461502371697563 $252 -9.3605105922443492 $161 $253 forward 7 unknown #
coedge $-1 $254 $255 $94 $164 forward $156 $-1 #
edge $-1 $256 -72.874138790078874 $168 -61.838723930851543 $163 $257 forward 7 unknown #
edge $-1 $169 58.626059806516771 $256 76.550544548721064 $95 $258 forward 7 unknown #
coedge $-1 $96 $248 $254 $259 forward $167 $-1 #
loop $-1 $-1 $248 $155 #
vertex $-1 $164 $260 #
vertex $-1 $97 $261 #
straight-curve $-1 -53.372508853668513 29.851557972100313 17.052219602513802 0 -1 0 I I #
coedge $-1 $171 $171 $-1 $262 reversed $100 $-1 #
edge $-1 $263 0 $263 6.2831853071796004 $101 $264 forward 7 unknown #
vertex $-1 $104 $265 #
ellipse-curve $-1 -41.822012963941908 31.212928963563137 11.534512172900133 0 0.61566148304635926 0.78801074757464917 1.5 0 0 1 I I #
face $-1 $-1 $266 $22 $-1 $267 forward single #
loop $-1 $-1 $268 $105 #
plane-surface $-1 0 0 17.052219602513805 0 0 1 1 0 0 forward_v I I I I #
coedge $-1 $179 $108 $110 $185 reversed $66 $-1 #
coedge $-1 $108 $178 $269 $270 reversed $66 $-1 #
coedge $-1 $271 $111 $108 $181 forward $106 $-1 #
edge $-1 $188 -49.309527897642852 $272 -38.27411303841555 $180 $273 forward 7 unknown #
coedge $-1 $110 $109 $274 $275 reversed $43 $-1 #
coedge $-1 $276 $277 $109 $184 forward $266 $-1 #
edge $-1 $278 -18.465695460175585 $187 -0.54121071797134557 $183 $279 forward 7 unknown #
edge $-1 $280 -17.924484742204246 $188 -8.8800565823946346e-015 $178 $281 forward 7 unknown #
coedge $-1 $111 $271 $276 $282 forward $106 $-1 #
vertex $-1 $112 $283 #
vertex $-1 $112 $284 #
straight-curve $-1 -20.911006481970954 -38.275272274360525 6.0168047432865102 1 0 0 I I #
coedge $-1 $190 $190 $-1 $285 reversed $115 $-1 #
edge $-1 $286 0 $286 6.2831853071796004 $116 $287 forward 7 unknown #
vertex $-1 $119 $288 #
ellipse-curve $-1 -41.822012963941908 -31.212928963563147 11.534512172900154 0 -0.61566148304635926 0.78801074757464917 1.5 0 0 1 I I #
face $-1 $-1 $135 $18 $-1 $289 reversed single #
loop $-1 $-1 $210 $120 #
plane-surface $-1 0 38.275272274360525 0 0 -1 0 0 0 -1 forward_v I I I I #
coedge $-1 $290 $208 $211 $291 forward $121 $-1 #
coedge $-1 $214 $123 $124 $202 reversed $75 $-1 #
coedge $-1 $208 $290 $123 $200 reversed $121 $-1 #
edge $-1 $215 -17.052219602513805 $292 17.052219602513805 $199 $293 forward 7 unknown #
coedge $-1 $125 $124 $290 $294 forward $49 $-1 #
edge $-1 $206 -66.392406994842375 $292 66.392406994842375 $198 $295 forward 7 unknown #
coedge $-1 $211 $210 $125 $204 reversed $195 $-1 #
edge $-1 $296 -66.392406994842375 $205 66.392406994842375 $203 $297 forward 7 unknown #
vertex $-1 $127 $298 #
vertex $-1 $217 $299 #
straight-curve $-1 66.392406994842375 0 -17.052219602513805 0 -1 0 I I #
coedge $-1 $197 $199 $128 $209 reversed $121 $-1 #
edge $-1 $212 -38.275272274360525 $215 38.275272274360525 $208 $300 forward 7 unknown #
coedge $-1 $203 $129 $134 $218 forward $195 $-1 #
coedge $-1 $129 $203 $197 $291 reversed $195 $-1 #
vertex $-1 $130 $301 #
straight-curve $-1 0 38.275272274360525 17.052219602513805 -1 0 0 I I #
coedge $-1 $131 $198 $133 $217 reversed $75 $-1 #
vertex $-1 $209 $302 #
straight-curve $-1 0 -38.275272274360525 17.052219602513805 1 0 0 I I #
edge $-1 $136 -17.052219602513805 $206 17.052219602513805 $133 $303 forward 7 unknown #
edge $-1 $137 -17.052219602513805 $205 17.052219602513805 $134 $304 forward 7 unknown #
point $-1 66.392406994842375 -38.275272274360525 17.052219602513805 #
point $-1 66.392406994842375 38.275272274360525 17.052219602513805 #
face $-1 $-1 $231 $19 $-1 $305 reversed single #
loop $-1 $-1 $227 $139 #
plane-surface $-1 0 0 -17.052219602513805 0 0 1 1 0 0 forward_v I I I I #
coedge $-1 $306 $307 $147 $235 forward $140 $-1 #
coedge $-1 $142 $239 $229 $308 forward $83 $-1 #
edge $-1 $233 -20.801251451805832 $152 -14.146790193303556 $142 $309 forward 7 unknown #
coedge $-1 $310 $148 $143 $228 forward $222 $-1 #
edge $-1 $153 14.146790193303556 $232 20.801251451805832 $227 $311 forward 7 unknown #
coedge $-1 $312 $145 $225 $308 reversed $231 $-1 #
coedge $-1 $145 $312 $310 $313 reversed $231 $-1 #
loop $-1 $-1 $145 $221 #
vertex $-1 $313 $314 #
vertex $-1 $146 $315 #
straight-curve $-1 -53.372508853668506 -38.275272274360525 0 0 0 1 I I #
edge $-1 $240 -17.052219602513805 $237 17.052219602513805 $224 $316 forward 7 unknown #
coedge $-1 $148 $310 $306 $317 forward $222 $-1 #
vertex $-1 $149 $318 #
straight-curve $-1 -29.94122896212772 -31.620811015858248 -17.052219602513805 1 0 0 I I #
coedge $-1 $225 $150 $307 $319 forward $83 $-1 #
vertex $-1 $319 $320 #
straight-curve $-1 -29.94122896212772 -31.620811015858248 17.052219602513805 -1 0 0 I I #
point $-1 -53.372508853668506 -31.620811015858248 17.052219602513805 #
point $-1 -53.372508853668506 -31.620811015858248 -17.052219602513805 #
plane-surface $-1 0 0 17.052219602513805 0 0 1 1 0 0 forward_v I I I I #
coedge $-1 $255 $254 $247 $321 forward $156 $-1 #
coedge $-1 $247 $158 $160 $251 reversed $91 $-1 #
coedge $-1 $158 $246 $245 $321 reversed $91 $-1 #
coedge $-1 $166 $161 $158 $249 forward $167 $-1 #
edge $-1 $252 -5.7009723193345785 $322 8.4237143022602119 $248 $323 forward 7 unknown #
coedge $-1 $160 $159 $255 $324 reversed $57 $-1 #
edge $-1 $325 -76.550544548721064 $252 -58.626059806516771 $246 $326 forward 7 unknown #
vertex $-1 $162 $327 #
straight-curve $-1 -20.911006481970954 24.150585652765727 17.052219602513802 1 0 0 I I #
coedge $-1 $245 $163 $166 $259 reversed $156 $-1 #
coedge $-1 $163 $245 $250 $324 forward $156 $-1 #
vertex $-1 $164 $328 #
straight-curve $-1 -53.372508853668513 38.275272274360525 78.890943533365345 0 0 1 I I #
straight-curve $-1 -53.372508853668513 -22.047379562723641 53.146026528158473 0 0.78801074757464917 -0.61566148304635926 I I #
edge $-1 $322 30.271517074215303 $168 53.372508853668513 $254 $329 forward 7 unknown #
point $-1 -53.372508853668513 38.275272274360525 17.052219602513805 #
point $-1 -53.372508853668513 24.150585652765734 17.052219602513802 #
edge $-1 $330 1 $330 0 $171 $-1 forward 7 unknown #
vertex $-1 $172 $331 #
ellipse-curve $-1 -41.822012963941908 28.361508972829359 7.884861089598199 0 0.61566148304635926 0.78801074757464917 1.5 0 0 1 I I #
point $-1 -40.322012963941908 31.212928963563144 11.534512172900147 #
loop $-1 $-1 $183 $175 #
plane-surface $-1 -53.372508853668506 -34.948041645109384 0 -1 0 0 0 0 1 forward_v I I I I #
coedge $-1 $332 $274 $277 $333 forward $176 $-1 #
coedge $-1 $274 $332 $179 $270 forward $176 $-1 #
edge $-1 $272 21.737611616281875 $280 35.86229823787663 $269 $334 forward 7 unknown #
coedge $-1 $186 $180 $332 $335 reversed $106 $-1 #
vertex $-1 $181 $336 #
straight-curve $-1 -30.271517074215303 -38.275272274360525 55.326332640929358 0 0 1 I I #
coedge $-1 $268 $269 $182 $275 forward $176 $-1 #
edge $-1 $280 9.3605105922443492 $278 32.461502371697563 $274 $337 forward 7 unknown #
coedge $-1 $277 $183 $186 $282 reversed $266 $-1 #
coedge $-1 $183 $276 $268 $333 reversed $266 $-1 #
vertex $-1 $275 $338 #
straight-curve $-1 -53.372508853668506 -38.701752136824538 5.6836021500196825 0 -0.78801074757464917 -0.61566148304635926 I I #
vertex $-1 $275 $339 #
straight-curve $-1 -30.271517074215303 -38.275272274360532 6.0168047432864995 0 -0.78801074757464917 -0.61566148304635926 I I #
edge $-1 $340 -17.052219602513805 $187 -6.0168047432865048 $186 $341 forward 7 unknown #
point $-1 -53.372508853668506 -38.275272274360525 6.0168047432865048 #
point $-1 -30.271517074215303 -38.275272274360525 6.0168047432865048 #
edge $-1 $342 1 $342 0 $190 $-1 forward 7 unknown #
vertex $-1 $191 $343 #
ellipse-curve $-1 -41.822012963941908 -28.361508972829359 7.8848610895982025 0 -0.61566148304635926 0.78801074757464917 1.5 0 0 1 I I #
point $-1 -40.322012963941908 -31.212928963563144 11.534512172900151 #
plane-surface $-1 66.392406994842375 0 0 -1 0 0 0 0 1 forward_v I I I I #
coedge $-1 $199 $197 $201 $294 reversed $121 $-1 #
edge $-1 $212 -17.052219602513805 $296 17.052219602513805 $211 $344 forward 7 unknown #
vertex $-1 $294 $345 #
straight-curve $-1 -66.392406994842375 -38.275272274360525 0 0 0 -1 I I #
edge $-1 $292 -38.275272274360525 $296 38.275272274360525 $290 $346 forward 7 unknown #
straight-curve $-1 0 -38.275272274360525 -17.052219602513805 -1 0 0 I I #
vertex $-1 $204 $347 #
straight-curve $-1 0 38.275272274360525 -17.052219602513805 1 0 0 I I #
point $-1 66.392406994842375 38.275272274360525 -17.052219602513805 #
point $-1 66.392406994842375 -38.275272274360525 -17.052219602513805 #
straight-curve $-1 -66.392406994842375 0 17.052219602513805 0 -1 0 I I #
point $-1 -66.392406994842375 38.275272274360525 17.052219602513805 #
point $-1 -66.392406994842375 -38.275272274360525 17.052219602513805 #
straight-curve $-1 66.392406994842375 -38.275272274360525 0 0 0 -1 I I #
straight-curve $-1 66.392406994842375 38.275272274360525 0 0 0 -1 I I #
plane-surface $-1 0 -38.275272274360525 0 0 1 0 0 0 1 forward_v I I I I #
coedge $-1 $348 $224 $236 $317 reversed $140 $-1 #
coedge $-1 $224 $348 $239 $319 reversed $140 $-1 #
edge $-1 $349 -66.392406994842375 $233 -53.372508853668506 $229 $350 forward 7 unknown #
straight-curve $-1 -53.372508853668506 -17.474020822554692 17.052219602513805 0 1 0 I I #
coedge $-1 $236 $227 $230 $313 forward $222 $-1 #
straight-curve $-1 -53.372508853668506 -17.474020822554692 -17.052219602513805 0 -1 0 I I #
coedge $-1 $230 $229 $348 $351 forward $231 $-1 #
edge $-1 $232 53.372508853668506 $352 66.392406994842375 $230 $353 forward 7 unknown #
point $-1 -53.372508853668506 -38.275272274360525 -17.052219602513805 #
point $-1 -53.372508853668506 -38.275272274360525 17.052219602513805 #
straight-curve $-1 -66.392406994842375 -31.620811015858248 0 0 0 -1 I I #
edge $-1 $352 -38.275272274360525 $237 -31.620811015858248 $306 $354 forward 7 unknown #
point $-1 -66.392406994842375 -31.620811015858248 -17.052219602513805 #
edge $-1 $240 31.620811015858248 $349 38.275272274360525 $307 $355 forward 7 unknown #
point $-1 -66.392406994842375 -31.620811015858248 17.052219602513805 #
edge $-1 $322 61.838723930851543 $325 72.874138790078874 $245 $356 forward 7 unknown #
vertex $-1 $259 $357 #
straight-curve $-1 -30.271517074215303 29.851557972100313 17.052219602513802 0 1 0 I I #
edge $-1 $325 9.3605105922443492 $256 32.461502371697563 $255 $358 forward 7 unknown #
vertex $-1 $324 $359 #
straight-curve $-1 -30.271517074215303 -22.047379562723641 53.146026528158473 0 -0.78801074757464917 0.61566148304635926 I I #
point $-1 -30.271517074215303 24.150585652765734 17.052219602513802 #
point $-1 -53.372508853668513 38.275272274360532 6.0168047432864711 #
straight-curve $-1 0 38.275272274360525 17.052219602513805 -1 0 0 I I #
vertex $-1 $262 $360 #
point $-1 -40.322012963941908 28.361508972829359 7.884861089598199 #
coedge $-1 $269 $268 $271 $335 forward $176 $-1 #
edge $-1 $278 -35.86229823787663 $340 -21.737611616281875 $268 $361 forward 7 unknown #
straight-curve $-1 -30.271517074215303 -60.012883890642399 17.052219602513802 0 1 0 I I #
edge $-1 $340 -53.372508853668506 $272 -30.271517074215303 $271 $362 forward 7 unknown #
point $-1 -30.271517074215303 -38.275272274360525 17.052219602513805 #
straight-curve $-1 -20.911006481970954 -24.15058565276577 17.052219602513805 -1 0 0 I I #
point $-1 -53.372508853668513 -24.15058565276577 17.052219602513805 #
point $-1 -30.271517074215303 -24.15058565276577 17.052219602513805 #
vertex $-1 $335 $363 #
straight-curve $-1 -53.372508853668506 -38.275272274360525 0 0 0 -1 I I #
vertex $-1 $285 $364 #
point $-1 -40.322012963941908 -28.361508972829359 7.8848610895982025 #
straight-curve $-1 -66.392406994842375 38.275272274360525 0 0 0 -1 I I #
point $-1 -66.392406994842375 -38.275272274360525 -17.052219602513805 #
straight-curve $-1 -66.392406994842375 0 -17.052219602513805 0 1 0 I I #
point $-1 -66.392406994842375 38.275272274360525 -17.052219602513805 #
coedge $-1 $307 $306 $312 $351 reversed $140 $-1 #
vertex $-1 $319 $365 #
straight-curve $-1 0 -38.275272274360525 17.052219602513805 1 0 0 I I #
edge $-1 $349 -17.052219602513805 $352 17.052219602513805 $348 $366 forward 7 unknown #
vertex $-1 $317 $367 #
straight-curve $-1 0 -38.275272274360525 -17.052219602513805 -1 0 0 I I #
straight-curve $-1 -66.392406994842375 0 -17.052219602513805 0 1 0 I I #
straight-curve $-1 -66.392406994842375 0 17.052219602513805 0 -1 0 I I #
straight-curve $-1 -30.271517074215303 38.275272274360525 78.890943533365345 0 0 -1 I I #
point $-1 -30.271517074215303 38.275272274360525 17.052219602513805 #
straight-curve $-1 -20.911006481970954 38.275272274360532 6.0168047432864746 -1 0 0 I I #
point $-1 -30.271517074215303 38.275272274360532 6.0168047432864711 #
point $-1 -41.822012963941908 27.438016748259823 6.7028449682362252 #
straight-curve $-1 -53.372508853668513 -60.012883890642399 17.052219602513802 0 -1 0 I I #
straight-curve $-1 0 -38.275272274360525 17.052219602513805 1 0 0 I I #
point $-1 -53.372508853668506 -38.275272274360525 17.052219602513805 #
point $-1 -41.822012963941908 -27.438016748259823 6.7028449682362288 #
point $-1 -66.392406994842375 -38.275272274360525 17.052219602513805 #
straight-curve $-1 -66.392406994842375 -38.275272274360525 0 0 0 -1 I I #
point $-1 -66.392406994842375 -38.275272274360525 -17.052219602513805 #
End-of-ACIS-data 