500 0 9 0           
7 Unknown 11 ACIS 5.0 NT 24 Thu Mar 25 16:28:31 1999 
-1 9.9999999999999995e-007 1e-010 
body $-1 $9 $-1 $10 #
body $-1 $11 $-1 $12 #
body $-1 $13 $-1 $14 #
body $-1 $15 $-1 $16 #
body $-1 $17 $-1 $18 #
body $-1 $19 $-1 $20 #
body $-1 $21 $-1 $22 #
body $-1 $23 $-1 $24 #
body $-1 $25 $-1 $26 #
lump $-1 $-1 $27 $0 #
transform $-1 1 0 0 0 1 0 0 0 1 74.711752677999215 49.376745850815752 22.175760051734663 1 rotate no_reflect no_shear #
lump $-1 $-1 $28 $1 #
transform $-1 1 0 0 0 1 0 0 0 1 74.711752677999215 49.376745850815752 22.175760051734663 1 rotate no_reflect no_shear #
lump $-1 $-1 $29 $2 #
transform $-1 1 0 0 0 1 0 0 0 1 74.711752677999215 49.376745850815752 22.175760051734663 1 rotate no_reflect no_shear #
lump $-1 $-1 $30 $3 #
transform $-1 1 0 0 0 1 0 0 0 1 74.711752677999215 49.376745850815752 22.175760051734663 1 rotate no_reflect no_shear #
lump $-1 $-1 $31 $4 #
transform $-1 1 0 0 0 1 0 0 0 1 74.711752677999215 49.376745850815752 22.175760051734663 1 rotate no_reflect no_shear #
lump $-1 $-1 $32 $5 #
transform $-1 1 0 0 0 1 0 0 0 1 74.711752677999215 49.376745850815752 22.175760051734663 1 rotate no_reflect no_shear #
lump $-1 $-1 $33 $6 #
transform $-1 1 0 0 0 1 0 0 0 1 74.711752677999215 49.376745850815752 22.175760051734663 1 rotate no_reflect no_shear #
lump $-1 $-1 $34 $7 #
transform $-1 1 0 0 0 1 0 0 0 1 74.711752677999215 49.376745850815752 22.175760051734663 1 rotate no_reflect no_shear #
lump $-1 $-1 $35 $8 #
transform $-1 1 0 0 0 1 0 0 0 1 74.711752677999215 49.376745850815752 22.175760051734663 1 rotate no_reflect no_shear #
shell $-1 $-1 $-1 $36 $-1 $9 #
shell $-1 $-1 $-1 $37 $-1 $11 #
shell $-1 $-1 $-1 $38 $-1 $13 #
shell $-1 $-1 $-1 $39 $-1 $15 #
shell $-1 $-1 $-1 $40 $-1 $17 #
shell $-1 $-1 $-1 $41 $-1 $19 #
shell $-1 $-1 $-1 $42 $-1 $21 #
shell $-1 $-1 $-1 $43 $-1 $23 #
shell $-1 $-1 $-1 $44 $-1 $25 #
face $-1 $45 $46 $27 $-1 $47 forward single #
face $-1 $48 $49 $28 $-1 $50 reversed single #
face $-1 $51 $52 $29 $-1 $53 forward single #
face $-1 $54 $55 $30 $-1 $56 reversed single #
face $-1 $57 $58 $31 $-1 $59 forward single #
face $-1 $60 $61 $32 $-1 $62 forward single #
face $-1 $63 $64 $33 $-1 $65 reversed single #
face $-1 $66 $67 $34 $-1 $68 forward single #
face $-1 $69 $70 $35 $-1 $71 forward single #
face $-1 $72 $73 $27 $-1 $74 reversed single #
loop $-1 $-1 $75 $36 #
plane-surface $-1 0 0 22.175760051734663 0 0 1 1 0 0 forward_v I I I I #
face $-1 $76 $77 $28 $-1 $78 reversed single #
loop $-1 $-1 $79 $37 #
plane-surface $-1 -19.523754160405275 103.35303581546293 184.52902059262402 1 0 0 0 -0.77714596973225614 -0.62932038083071107 forward_v I I I I #
face $-1 $80 $81 $29 $-1 $82 forward single #
loop $-1 $83 $84 $38 #
cone-surface $-1 -0.42046495290746577 44.813103470021709 17.029548074873102 0 -0.77714596973225614 -0.62932038083071107 2 0 0 1 I I 0 1 2 forward I I I I #
face $-1 $85 $86 $30 $-1 $87 reversed single #
loop $-1 $-1 $88 $39 #
plane-surface $-1 -9.7605330773194972 -180.06548948438106 80.375133706941938 -1 0 0 0 -0.87461971476443456 0.48480960649040278 forward_v I I I I #
face $-1 $89 $90 $31 $-1 $91 forward single #
loop $-1 $92 $93 $40 #
cone-surface $-1 -31.350717900708105 -44.657776373545907 14.626780527611244 0 0.87461971476443456 -0.48480960649040278 1.5 0 0 1 I I 0 1 1.5 forward I I I I #
face $-1 $94 $95 $32 $-1 $96 forward single #
loop $-1 $97 $98 $41 #
cone-surface $-1 -18.396607006674941 -44.657776373545907 14.626780527611244 0 0.87461971476443456 -0.48480960649040278 1.5 0 0 1 I I 0 1 1.5 forward I I I I #
face $-1 $99 $100 $33 $-1 $101 reversed single #
loop $-1 $-1 $102 $42 #
plane-surface $-1 64.951219600679721 -180.06548948438106 80.375133706941938 -1 0 0 0 -0.87461971476443456 0.48480960649040278 forward_v I I I I #
face $-1 $103 $104 $34 $-1 $105 forward single #
loop $-1 $106 $107 $43 #
cone-surface $-1 43.36103477729111 -44.657776373545907 14.626780527611244 0 0.87461971476443456 -0.48480960649040278 1.5 0 0 1 I I 0 1 1.5 forward I I I I #
face $-1 $108 $109 $35 $-1 $110 forward single #
loop $-1 $111 $112 $44 #
cone-surface $-1 56.315145671324274 -44.657776373545907 14.626780527611244 0 0.87461971476443456 -0.48480960649040278 1.5 0 0 1 I I 0 1 1.5 forward I I I I #
face $-1 $113 $114 $27 $-1 $115 reversed single #
loop $-1 $-1 $116 $45 #
plane-surface $-1 0 0 -22.175760051734663 0 0 1 1 0 0 forward_v I I I I #
coedge $-1 $117 $118 $119 $120 forward $46 $-1 #
face $-1 $121 $122 $28 $-1 $123 reversed single #
loop $-1 $-1 $124 $48 #
plane-surface $-1 -0.42046495290746577 -12.770839155217431 90.493763296927298 0 0.77714596973225614 0.62932038083071107 1 0 0 forward_v I I I I #
coedge $-1 $125 $126 $127 $128 reversed $49 $-1 #
face $-1 $-1 $129 $29 $-1 $130 forward single #
loop $-1 $131 $132 $51 #
cone-surface $-1 -0.42046495290746577 42.884694262374069 15.46795313103987 0 -0.77714596973225614 -0.62932038083071107 1 0 0 1 I I -0.70710678118654746 0.70710678118654746 1 forward I I I I #
loop $-1 $-1 $133 $38 #
coedge $-1 $84 $84 $134 $135 reversed $52 $-1 #
face $-1 $136 $137 $30 $-1 $138 reversed single #
loop $-1 $-1 $139 $54 #
plane-surface $-1 -24.873662453691523 -49.376745850815752 7.933182874883741 0 -0.87461971476443456 0.48480960649040278 1 0 0 forward_v I I I I #
coedge $-1 $140 $141 $142 $143 reversed $55 $-1 #
face $-1 $-1 $144 $31 $-1 $145 forward single #
loop $-1 $146 $147 $57 #
cone-surface $-1 -31.350717900708105 -43.230236686357493 13.835482387045488 0 0.87461971476443456 -0.48480960649040278 0.75 0 0 1 I I -0.70710678118654757 0.70710678118654757 0.75 forward I I I I #
loop $-1 $-1 $148 $40 #
coedge $-1 $93 $93 $149 $150 reversed $58 $-1 #
face $-1 $-1 $151 $32 $-1 $152 forward single #
loop $-1 $153 $154 $60 #
cone-surface $-1 -18.396607006674941 -43.230236686357493 13.835482387045488 0 0.87461971476443456 -0.48480960649040278 0.75 0 0 1 I I -0.70710678118654757 0.70710678118654757 0.75 forward I I I I #
loop $-1 $-1 $155 $41 #
coedge $-1 $98 $98 $156 $157 reversed $61 $-1 #
face $-1 $158 $159 $33 $-1 $160 reversed single #
loop $-1 $-1 $161 $63 #
plane-surface $-1 49.838090224307692 -49.376745850815752 7.933182874883741 0 -0.87461971476443456 0.48480960649040278 1 0 0 forward_v I I I I #
coedge $-1 $162 $163 $164 $165 reversed $64 $-1 #
face $-1 $-1 $166 $34 $-1 $167 forward single #
loop $-1 $168 $169 $66 #
cone-surface $-1 43.36103477729111 -43.230236686357493 13.835482387045488 0 0.87461971476443456 -0.48480960649040278 0.75 0 0 1 I I -0.70710678118654757 0.70710678118654757 0.75 forward I I I I #
loop $-1 $-1 $170 $43 #
coedge $-1 $107 $107 $171 $172 reversed $67 $-1 #
face $-1 $-1 $173 $35 $-1 $174 forward single #
loop $-1 $175 $176 $69 #
cone-surface $-1 56.315145671324274 -43.230236686357493 13.835482387045488 0 0.87461971476443456 -0.48480960649040278 0.75 0 0 1 I I -0.70710678118654757 0.70710678118654757 0.75 forward I I I I #
loop $-1 $-1 $177 $44 #
coedge $-1 $112 $112 $178 $179 reversed $70 $-1 #
face $-1 $180 $181 $27 $-1 $182 reversed single #
loop $-1 $-1 $183 $72 #
plane-surface $-1 0 -49.376745850815752 0 0 1 0 0 0 1 forward_v I I I I #
coedge $-1 $184 $185 $186 $187 forward $73 $-1 #
coedge $-1 $188 $75 $189 $190 forward $46 $-1 #
coedge $-1 $75 $188 $191 $192 forward $46 $-1 #
coedge $-1 $193 $194 $75 $120 reversed $195 $-1 #
edge $-1 $196 -49.376745850815752 $197 49.376745850815752 $119 $198 forward 7 unknown #
face $-1 $199 $200 $28 $-1 $201 reversed single #
loop $-1 $-1 $202 $76 #
plane-surface $-1 18.682824254590344 103.35303581546293 184.52902059262402 -1 0 0 0 0.77714596973225614 0.62932038083071107 forward_v I I I I #
coedge $-1 $203 $204 $205 $206 reversed $77 $-1 #
coedge $-1 $126 $79 $207 $208 reversed $49 $-1 #
coedge $-1 $79 $125 $203 $209 reversed $49 $-1 #
coedge $-1 $205 $210 $79 $128 forward $211 $-1 #
edge $-1 $212 2.2997720569157138 $213 9.1245303426729976 $127 $214 forward 7 unknown #
loop $-1 $-1 $134 $80 #
plane-surface $-1 -0.42046495290746577 -12.770839155217431 90.493763296927298 0 0.77714596973225614 0.62932038083071107 1 0 0 forward_v I I I I #
loop $-1 $-1 $215 $51 #
coedge $-1 $132 $132 $133 $216 reversed $81 $-1 #
coedge $-1 $133 $133 $132 $216 forward $83 $-1 #
coedge $-1 $134 $134 $84 $135 forward $129 $-1 #
edge $-1 $217 1.9056705503134917e-015 $217 6.2831853071796022 $134 $218 forward 7 unknown #
face $-1 $219 $220 $30 $-1 $221 reversed single #
loop $-1 $-1 $222 $85 #
plane-surface $-1 -39.986791830063552 -180.06548948438106 80.375133706941938 1 0 0 0 0.87461971476443456 -0.48480960649040278 forward_v I I I I #
coedge $-1 $223 $224 $225 $226 reversed $86 $-1 #
coedge $-1 $141 $88 $227 $228 reversed $55 $-1 #
coedge $-1 $88 $140 $223 $229 reversed $55 $-1 #
coedge $-1 $225 $230 $88 $143 forward $231 $-1 #
edge $-1 $232 40.655998891374779 $233 48.550788043684278 $142 $234 forward 7 unknown #
loop $-1 $-1 $149 $89 #
plane-surface $-1 -24.873662453691523 -49.376745850815752 7.933182874883741 0 -0.87461971476443456 0.48480960649040278 1 0 0 forward_v I I I I #
loop $-1 $-1 $235 $57 #
coedge $-1 $147 $147 $148 $236 reversed $90 $-1 #
coedge $-1 $148 $148 $147 $236 forward $92 $-1 #
coedge $-1 $149 $149 $93 $150 forward $144 $-1 #
edge $-1 $237 2.2500401119499019e-016 $237 6.2831853071796004 $149 $238 forward 7 unknown #
loop $-1 $-1 $156 $94 #
plane-surface $-1 -24.873662453691523 -49.376745850815752 7.933182874883741 0 -0.87461971476443456 0.48480960649040278 1 0 0 forward_v I I I I #
loop $-1 $-1 $239 $60 #
coedge $-1 $154 $154 $155 $240 reversed $95 $-1 #
coedge $-1 $155 $155 $154 $240 forward $97 $-1 #
coedge $-1 $156 $156 $98 $157 forward $151 $-1 #
edge $-1 $241 2.2500401119499019e-016 $241 6.2831853071796004 $156 $242 forward 7 unknown #
face $-1 $243 $244 $33 $-1 $245 reversed single #
loop $-1 $-1 $246 $99 #
plane-surface $-1 34.724960847935662 -180.06548948438106 80.375133706941938 1 0 0 0 0.87461971476443456 -0.48480960649040278 forward_v I I I I #
coedge $-1 $247 $248 $249 $250 reversed $100 $-1 #
coedge $-1 $163 $102 $251 $252 reversed $64 $-1 #
coedge $-1 $102 $162 $247 $253 reversed $64 $-1 #
coedge $-1 $249 $254 $102 $165 forward $255 $-1 #
edge $-1 $256 40.655998891374779 $257 48.550788043684278 $164 $258 forward 7 unknown #
loop $-1 $-1 $171 $103 #
plane-surface $-1 49.838090224307692 -49.376745850815752 7.933182874883741 0 -0.87461971476443456 0.48480960649040278 1 0 0 forward_v I I I I #
loop $-1 $-1 $259 $66 #
coedge $-1 $169 $169 $170 $260 reversed $104 $-1 #
coedge $-1 $170 $170 $169 $260 forward $106 $-1 #
coedge $-1 $171 $171 $107 $172 forward $166 $-1 #
edge $-1 $261 2.2500401119499019e-016 $261 6.2831853071796004 $171 $262 forward 7 unknown #
loop $-1 $-1 $178 $108 #
plane-surface $-1 49.838090224307692 -49.376745850815752 7.933182874883741 0 -0.87461971476443456 0.48480960649040278 1 0 0 forward_v I I I I #
loop $-1 $-1 $263 $69 #
coedge $-1 $176 $176 $177 $264 reversed $109 $-1 #
coedge $-1 $177 $177 $176 $264 forward $111 $-1 #
coedge $-1 $178 $178 $112 $179 forward $173 $-1 #
edge $-1 $265 2.2500401119499019e-016 $265 6.2831853071796004 $178 $266 forward 7 unknown #
face $-1 $267 $268 $27 $-1 $269 reversed single #
loop $-1 $-1 $270 $113 #
plane-surface $-1 -74.711752677999215 0 0 1 0 0 0 0 -1 forward_v I I I I #
coedge $-1 $271 $191 $272 $273 forward $114 $-1 #
coedge $-1 $274 $116 $271 $275 forward $73 $-1 #
coedge $-1 $116 $274 $276 $277 forward $73 $-1 #
coedge $-1 $194 $193 $116 $187 reversed $195 $-1 #
edge $-1 $278 -49.376745850815752 $279 49.376745850815752 $186 $280 forward 7 unknown #
coedge $-1 $118 $117 $281 $282 forward $46 $-1 #
coedge $-1 $283 $284 $117 $190 reversed $268 $-1 #
edge $-1 $197 -74.711752677999215 $285 74.711752677999215 $189 $286 forward 7 unknown #
coedge $-1 $183 $287 $118 $192 reversed $114 $-1 #
edge $-1 $288 -74.711752677999215 $196 74.711752677999215 $191 $289 forward 7 unknown #
coedge $-1 $186 $119 $287 $290 forward $195 $-1 #
coedge $-1 $119 $186 $283 $291 reversed $195 $-1 #
loop $-1 $-1 $193 $267 #
vertex $-1 $120 $292 #
vertex $-1 $120 $293 #
straight-curve $-1 74.711752677999215 0 22.175760051734663 0 1 0 I I #
face $-1 $-1 $211 $28 $-1 $294 forward single #
loop $-1 $-1 $295 $121 #
plane-surface $-1 0 49.376745850815752 0 0 -1 0 0 0 -1 forward_v I I I I #
coedge $-1 $296 $297 $298 $299 reversed $122 $-1 #
coedge $-1 $300 $124 $126 $209 forward $77 $-1 #
coedge $-1 $124 $300 $296 $301 forward $77 $-1 #
coedge $-1 $298 $127 $124 $206 forward $211 $-1 #
edge $-1 $213 -19.313521683951542 $302 18.893056731044076 $205 $303 forward 7 unknown #
coedge $-1 $304 $305 $125 $208 forward $200 $-1 #
edge $-1 $306 -78.516625072295412 $212 -70.088750244577341 $207 $307 forward 7 unknown #
edge $-1 $213 87.908843262392125 $306 98.753491701631475 $126 $308 forward 7 unknown #
coedge $-1 $127 $298 $304 $309 forward $211 $-1 #
loop $-1 $-1 $298 $199 #
vertex $-1 $208 $310 #
vertex $-1 $128 $311 #
straight-curve $-1 -19.523754160405275 51.676517907731466 22.175760051734656 0 -1 0 I I #
coedge $-1 $215 $215 $-1 $312 reversed $131 $-1 #
edge $-1 $313 0 $313 6.2831853071796004 $132 $314 forward 7 unknown #
vertex $-1 $135 $315 #
ellipse-curve $-1 -0.42046495290746577 45.964366707937103 17.961822637875631 0 0.77714596973225614 0.62932038083071107 2 0 0 1 I I #
face $-1 $-1 $231 $30 $-1 $316 forward single #
loop $-1 $-1 $317 $136 #
plane-surface $-1 0 -49.376745850815752 0 0 1 0 0 0 1 forward_v I I I I #
coedge $-1 $318 $319 $320 $321 reversed $137 $-1 #
coedge $-1 $322 $139 $141 $229 forward $86 $-1 #
coedge $-1 $139 $322 $318 $323 forward $86 $-1 #
coedge $-1 $320 $142 $139 $226 forward $231 $-1 #
edge $-1 $233 -2.6762981495262643 $324 27.549960603217791 $225 $325 forward 7 unknown #
coedge $-1 $326 $327 $140 $228 forward $220 $-1 #
edge $-1 $328 -32.254383978587228 $232 -18.011806801736306 $227 $329 forward 7 unknown #
edge $-1 $233 -16.284308410183669 $328 0 $141 $330 forward 7 unknown #
coedge $-1 $142 $320 $326 $331 forward $231 $-1 #
loop $-1 $-1 $320 $219 #
vertex $-1 $228 $332 #
vertex $-1 $143 $333 #
straight-curve $-1 -9.7605330773194972 -90.03274474219053 22.175760051734663 0 1 0 I I #
coedge $-1 $235 $235 $-1 $334 reversed $146 $-1 #
edge $-1 $335 0 $335 6.2831853071796004 $147 $336 forward 7 unknown #
vertex $-1 $150 $337 #
ellipse-curve $-1 -31.350717900708105 -45.429351274661002 15.0544714633092 0 -0.87461971476443456 0.48480960649040278 1.5 0 0 1 I I #
coedge $-1 $239 $239 $-1 $338 reversed $153 $-1 #
edge $-1 $339 0 $339 6.2831853071796004 $154 $340 forward 7 unknown #
vertex $-1 $157 $341 #
ellipse-curve $-1 -18.396607006674941 -45.429351274661002 15.0544714633092 0 -0.87461971476443456 0.48480960649040278 1.5 0 0 1 I I #
face $-1 $-1 $255 $33 $-1 $342 forward single #
loop $-1 $-1 $343 $158 #
plane-surface $-1 0 -49.376745850815752 0 0 1 0 0 0 1 forward_v I I I I #
coedge $-1 $344 $345 $346 $347 reversed $159 $-1 #
coedge $-1 $348 $161 $163 $253 forward $100 $-1 #
coedge $-1 $161 $348 $344 $349 forward $100 $-1 #
coedge $-1 $346 $164 $161 $250 forward $255 $-1 #
edge $-1 $257 -40.032174488525875 $350 -9.8059157357818165 $249 $351 forward 7 unknown #
coedge $-1 $352 $353 $162 $252 forward $244 $-1 #
edge $-1 $354 -32.254383978587228 $256 -18.011806801736306 $251 $355 forward 7 unknown #
edge $-1 $257 -16.284308410183669 $354 0 $163 $356 forward 7 unknown #
coedge $-1 $164 $346 $352 $357 forward $255 $-1 #
loop $-1 $-1 $346 $243 #
vertex $-1 $252 $358 #
vertex $-1 $165 $359 #
straight-curve $-1 64.951219600679721 -90.03274474219053 22.175760051734663 0 1 0 I I #
coedge $-1 $259 $259 $-1 $360 reversed $168 $-1 #
edge $-1 $361 0 $361 6.2831853071796004 $169 $362 forward 7 unknown #
vertex $-1 $172 $363 #
ellipse-curve $-1 43.36103477729111 -45.429351274661002 15.0544714633092 0 -0.87461971476443456 0.48480960649040278 1.5 0 0 1 I I #
coedge $-1 $263 $263 $-1 $364 reversed $175 $-1 #
edge $-1 $365 0 $365 6.2831853071796004 $176 $366 forward 7 unknown #
vertex $-1 $179 $367 #
ellipse-curve $-1 56.315145671324274 -45.429351274661002 15.0544714633092 0 -0.87461971476443456 0.48480960649040278 1.5 0 0 1 I I #
face $-1 $-1 $195 $27 $-1 $368 reversed single #
loop $-1 $-1 $283 $180 #
plane-surface $-1 0 49.376745850815752 0 0 -1 0 0 0 -1 forward_v I I I I #
coedge $-1 $369 $281 $284 $370 forward $181 $-1 #
coedge $-1 $287 $183 $184 $275 reversed $114 $-1 #
coedge $-1 $281 $369 $183 $273 reversed $181 $-1 #
edge $-1 $288 -22.175760051734663 $371 22.175760051734663 $272 $372 forward 7 unknown #
coedge $-1 $185 $184 $369 $373 forward $73 $-1 #
edge $-1 $279 -74.711752677999215 $371 74.711752677999215 $271 $374 forward 7 unknown #
coedge $-1 $284 $283 $185 $277 reversed $268 $-1 #
edge $-1 $375 -74.711752677999215 $278 74.711752677999215 $276 $376 forward 7 unknown #
vertex $-1 $187 $377 #
vertex $-1 $290 $378 #
straight-curve $-1 74.711752677999215 0 -22.175760051734663 0 -1 0 I I #
coedge $-1 $270 $272 $188 $282 reversed $181 $-1 #
edge $-1 $285 -49.376745850815752 $288 49.376745850815752 $281 $379 forward 7 unknown #
coedge $-1 $276 $189 $194 $291 forward $268 $-1 #
coedge $-1 $189 $276 $270 $370 reversed $268 $-1 #
vertex $-1 $190 $380 #
straight-curve $-1 0 49.376745850815752 22.175760051734663 -1 0 0 I I #
coedge $-1 $191 $271 $193 $290 reversed $114 $-1 #
vertex $-1 $282 $381 #
straight-curve $-1 0 -49.376745850815752 22.175760051734663 1 0 0 I I #
edge $-1 $196 -22.175760051734663 $279 22.175760051734663 $193 $382 forward 7 unknown #
edge $-1 $197 -22.175760051734663 $278 22.175760051734663 $194 $383 forward 7 unknown #
point $-1 74.711752677999215 -49.376745850815752 22.175760051734663 #
point $-1 74.711752677999215 49.376745850815752 22.175760051734663 #
plane-surface $-1 0 0 22.175760051734663 0 0 1 1 0 0 forward_v I I I I #
coedge $-1 $305 $304 $297 $384 forward $200 $-1 #
coedge $-1 $297 $202 $204 $301 reversed $122 $-1 #
coedge $-1 $202 $296 $295 $384 reversed $122 $-1 #
coedge $-1 $210 $205 $202 $299 forward $211 $-1 #
edge $-1 $302 -9.1245303426729976 $385 -2.2997720569157138 $298 $386 forward 7 unknown #
coedge $-1 $204 $203 $305 $387 reversed $77 $-1 #
edge $-1 $388 -98.753491701631475 $302 -87.908843262392125 $296 $389 forward 7 unknown #
vertex $-1 $206 $390 #
straight-curve $-1 -0.21023247645373289 42.551987565058461 22.17576005173467 1 0 0 I I #
coedge $-1 $295 $207 $210 $309 reversed $200 $-1 #
coedge $-1 $207 $295 $300 $387 forward $200 $-1 #
vertex $-1 $208 $391 #
straight-curve $-1 -19.523754160405275 49.376745850815752 92.264510296312011 0 0 1 I I #
straight-curve $-1 -19.523754160405275 -12.770839155217431 90.493763296927298 0 0.62932038083071107 -0.77714596973225614 I I #
edge $-1 $385 -18.682824254590344 $212 19.523754160405275 $304 $392 forward 7 unknown #
point $-1 -19.523754160405275 49.376745850815752 22.175760051734663 #
point $-1 -19.523754160405275 42.551987565058468 22.175760051734656 #
edge $-1 $393 1 $393 0 $215 $-1 forward 7 unknown #
vertex $-1 $216 $394 #
ellipse-curve $-1 -0.42046495290746577 43.661840232106321 16.097273511870583 0 0.77714596973225614 0.62932038083071107 2 0 0 1 I I #
point $-1 1.5795350470925342 45.964366707937096 17.961822637875621 #
plane-surface $-1 0 0 22.175760051734663 0 0 1 1 0 0 forward_v I I I I #
coedge $-1 $327 $326 $319 $395 forward $220 $-1 #
coedge $-1 $319 $222 $224 $323 reversed $137 $-1 #
coedge $-1 $222 $318 $317 $395 reversed $137 $-1 #
coedge $-1 $230 $225 $222 $321 forward $231 $-1 #
edge $-1 $324 -48.550788043684278 $396 -40.655998891374779 $320 $397 forward 7 unknown #
coedge $-1 $224 $223 $327 $398 reversed $86 $-1 #
edge $-1 $399 0 $324 16.284308410183669 $318 $400 forward 7 unknown #
vertex $-1 $226 $401 #
straight-curve $-1 -12.436831226845761 -41.481956698506245 22.175760051734663 -1 0 0 I I #
coedge $-1 $317 $227 $230 $331 reversed $220 $-1 #
coedge $-1 $227 $317 $322 $398 forward $220 $-1 #
vertex $-1 $228 $402 #
straight-curve $-1 -9.7605330773194972 -49.376745850815752 40.187566853470969 0 0 1 I I #
straight-curve $-1 -9.7605330773194972 -49.376745850815752 7.933182874883741 0 -0.48480960649040278 -0.87461971476443456 I I #
edge $-1 $396 -39.986791830063552 $232 -9.7605330773194972 $326 $403 forward 7 unknown #
point $-1 -9.7605330773194972 -49.376745850815752 22.175760051734663 #
point $-1 -9.7605330773194972 -41.481956698506252 22.175760051734663 #
edge $-1 $404 1 $404 0 $235 $-1 forward 7 unknown #
vertex $-1 $236 $405 #
ellipse-curve $-1 -31.350717900708105 -43.88620147243082 14.199089591913291 0 -0.87461971476443456 0.48480960649040278 1.5 0 0 1 I I #
point $-1 -29.850717900708105 -45.429351274660995 15.054471463309197 #
edge $-1 $406 1 $406 0 $239 $-1 forward 7 unknown #
vertex $-1 $240 $407 #
ellipse-curve $-1 -18.396607006674941 -43.88620147243082 14.199089591913291 0 -0.87461971476443456 0.48480960649040278 1.5 0 0 1 I I #
point $-1 -16.896607006674941 -45.429351274660995 15.054471463309197 #
plane-surface $-1 0 0 22.175760051734663 0 0 1 1 0 0 forward_v I I I I #
coedge $-1 $353 $352 $345 $408 forward $244 $-1 #
coedge $-1 $345 $246 $248 $349 reversed $159 $-1 #
coedge $-1 $246 $344 $343 $408 reversed $159 $-1 #
coedge $-1 $254 $249 $246 $347 forward $255 $-1 #
edge $-1 $350 -48.550788043684278 $409 -40.655998891374779 $346 $410 forward 7 unknown #
coedge $-1 $248 $247 $353 $411 reversed $100 $-1 #
edge $-1 $412 0 $350 16.284308410183669 $344 $413 forward 7 unknown #
vertex $-1 $250 $414 #
straight-curve $-1 24.919045112153846 -41.481956698506245 22.175760051734663 -1 0 0 I I #
coedge $-1 $343 $251 $254 $357 reversed $244 $-1 #
coedge $-1 $251 $343 $348 $411 forward $244 $-1 #
vertex $-1 $252 $415 #
straight-curve $-1 64.951219600679721 -49.376745850815752 40.187566853470969 0 0 1 I I #
straight-curve $-1 64.951219600679721 -49.376745850815752 7.933182874883741 0 -0.48480960649040278 -0.87461971476443456 I I #
edge $-1 $409 34.724960847935662 $256 64.951219600679721 $352 $416 forward 7 unknown #
point $-1 64.951219600679721 -49.376745850815752 22.175760051734663 #
point $-1 64.951219600679721 -41.481956698506252 22.175760051734663 #
edge $-1 $417 1 $417 0 $259 $-1 forward 7 unknown #
vertex $-1 $260 $418 #
ellipse-curve $-1 43.36103477729111 -43.88620147243082 14.199089591913291 0 -0.87461971476443456 0.48480960649040278 1.5 0 0 1 I I #
point $-1 44.86103477729111 -45.429351274660995 15.054471463309197 #
edge $-1 $419 1 $419 0 $263 $-1 forward 7 unknown #
vertex $-1 $264 $420 #
ellipse-curve $-1 56.315145671324274 -43.88620147243082 14.199089591913291 0 -0.87461971476443456 0.48480960649040278 1.5 0 0 1 I I #
point $-1 57.815145671324274 -45.429351274660995 15.054471463309197 #
plane-surface $-1 74.711752677999215 0 0 -1 0 0 0 0 1 forward_v I I I I #
coedge $-1 $272 $270 $274 $373 reversed $181 $-1 #
edge $-1 $285 -22.175760051734663 $375 22.175760051734663 $284 $421 forward 7 unknown #
vertex $-1 $373 $422 #
straight-curve $-1 -74.711752677999215 -49.376745850815752 0 0 0 -1 I I #
edge $-1 $371 -49.376745850815752 $375 49.376745850815752 $369 $423 forward 7 unknown #
straight-curve $-1 0 -49.376745850815752 -22.175760051734663 -1 0 0 I I #
vertex $-1 $277 $424 #
straight-curve $-1 0 49.376745850815752 -22.175760051734663 1 0 0 I I #
point $-1 74.711752677999215 49.376745850815752 -22.175760051734663 #
point $-1 74.711752677999215 -49.376745850815752 -22.175760051734663 #
straight-curve $-1 -74.711752677999215 0 22.175760051734663 0 -1 0 I I #
point $-1 -74.711752677999215 49.376745850815752 22.175760051734663 #
point $-1 -74.711752677999215 -49.376745850815752 22.175760051734663 #
straight-curve $-1 74.711752677999215 -49.376745850815752 0 0 0 -1 I I #
straight-curve $-1 74.711752677999215 49.376745850815752 0 0 0 -1 I I #
edge $-1 $385 70.088750244577341 $388 78.516625072295412 $295 $425 forward 7 unknown #
vertex $-1 $309 $426 #
straight-curve $-1 18.682824254590344 51.676517907731466 22.175760051734656 0 1 0 I I #
edge $-1 $388 -18.893056731044076 $306 19.313521683951542 $305 $427 forward 7 unknown #
vertex $-1 $387 $428 #
straight-curve $-1 18.682824254590344 -12.770839155217431 90.493763296927298 0 -0.62932038083071107 0.77714596973225614 I I #
point $-1 18.682824254590344 42.551987565058468 22.175760051734656 #
point $-1 -19.523754160405275 49.376745850815752 13.747885224016599 #
straight-curve $-1 0 49.376745850815752 22.175760051734663 -1 0 0 I I #
vertex $-1 $312 $429 #
point $-1 1.5795350470925342 43.661840232106321 16.097273511870583 #
edge $-1 $396 18.011806801736306 $399 32.254383978587228 $317 $430 forward 7 unknown #
vertex $-1 $331 $431 #
straight-curve $-1 -39.986791830063552 -90.03274474219053 22.175760051734663 0 -1 0 I I #
edge $-1 $399 -27.549960603217791 $328 2.6762981495262643 $327 $432 forward 7 unknown #
vertex $-1 $398 $433 #
straight-curve $-1 -39.986791830063552 -49.376745850815752 7.933182874883741 0 0.48480960649040278 0.87461971476443456 I I #
point $-1 -39.986791830063552 -41.481956698506252 22.175760051734663 #
point $-1 -9.7605330773194972 -49.376745850815752 7.933182874883741 #
straight-curve $-1 0 -49.376745850815752 22.175760051734663 1 0 0 I I #
vertex $-1 $334 $434 #
point $-1 -29.850717900708105 -43.88620147243082 14.199089591913291 #
vertex $-1 $338 $435 #
point $-1 -16.896607006674941 -43.88620147243082 14.199089591913291 #
edge $-1 $409 18.011806801736306 $412 32.254383978587228 $343 $436 forward 7 unknown #
vertex $-1 $357 $437 #
straight-curve $-1 34.724960847935662 -90.03274474219053 22.175760051734663 0 -1 0 I I #
edge $-1 $412 9.8059157357818165 $354 40.032174488525875 $353 $438 forward 7 unknown #
vertex $-1 $411 $439 #
straight-curve $-1 34.724960847935662 -49.376745850815752 7.933182874883741 0 0.48480960649040278 0.87461971476443456 I I #
point $-1 34.724960847935662 -41.481956698506252 22.175760051734663 #
point $-1 64.951219600679721 -49.376745850815752 7.933182874883741 #
straight-curve $-1 0 -49.376745850815752 22.175760051734663 1 0 0 I I #
vertex $-1 $360 $440 #
point $-1 44.86103477729111 -43.88620147243082 14.199089591913291 #
vertex $-1 $364 $441 #
point $-1 57.815145671324274 -43.88620147243082 14.199089591913291 #
straight-curve $-1 -74.711752677999215 49.376745850815752 0 0 0 -1 I I #
point $-1 -74.711752677999215 -49.376745850815752 -22.175760051734663 #
straight-curve $-1 -74.711752677999215 0 -22.175760051734663 0 1 0 I I #
point $-1 -74.711752677999215 49.376745850815752 -22.175760051734663 #
straight-curve $-1 18.682824254590344 49.376745850815752 92.264510296312011 0 0 -1 I I #
point $-1 18.682824254590344 49.376745850815752 22.175760051734663 #
straight-curve $-1 -0.21023247645373289 49.376745850815752 13.747885224016606 -1 0 0 I I #
point $-1 18.682824254590344 49.376745850815752 13.747885224016599 #
point $-1 -0.42046495290746577 42.107548292641816 14.838632750209159 #
straight-curve $-1 -39.986791830063552 -49.376745850815752 40.187566853470969 0 0 -1 I I #
point $-1 -39.986791830063552 -49.376745850815752 22.175760051734663 #
straight-curve $-1 -12.436831226845761 -49.376745850815752 7.9331828748837392 1 0 0 I I #
point $-1 -39.986791830063552 -49.376745850815752 7.933182874883741 #
point $-1 -31.350717900708105 -42.574271900284167 13.471875182177685 #
point $-1 -18.396607006674941 -42.574271900284167 13.471875182177685 #
straight-curve $-1 34.724960847935662 -49.376745850815752 40.187566853470969 0 0 -1 I I #
point $-1 34.724960847935662 -49.376745850815752 22.175760051734663 #
straight-curve $-1 24.919045112153846 -49.376745850815752 7.9331828748837392 1 0 0 I I #
point $-1 34.724960847935662 -49.376745850815752 7.933182874883741 #
point $-1 43.36103477729111 -42.574271900284167 13.471875182177685 #
point $-1 56.315145671324274 -42.574271900284167 13.471875182177685 #
End-of-ACIS-data 