500 0 5 0           
7 Unknown 11 ACIS 5.0 NT 24 Thu Mar 25 21:15:11 1999 
-1 9.9999999999999995e-007 1e-010 
body $-1 $5 $-1 $6 #
body $-1 $7 $-1 $8 #
body $-1 $9 $-1 $10 #
body $-1 $11 $-1 $12 #
body $-1 $13 $-1 $14 #
lump $-1 $-1 $15 $0 #
transform $-1 1 0 0 0 1 0 0 0 1 71.926023133030185 49.456576720583605 13.64278241278369 1 rotate no_reflect no_shear #
lump $-1 $-1 $16 $1 #
transform $-1 1 0 0 0 1 0 0 0 1 71.926023133030185 49.456576720583605 13.64278241278369 1 rotate no_reflect no_shear #
lump $-1 $-1 $17 $2 #
transform $-1 1 0 0 0 1 0 0 0 1 71.926023133030185 49.456576720583605 13.64278241278369 1 rotate no_reflect no_shear #
lump $-1 $-1 $18 $3 #
transform $-1 1 0 0 0 1 0 0 0 1 71.926023133030185 49.456576720583605 13.64278241278369 1 rotate no_reflect no_shear #
lump $-1 $-1 $19 $4 #
transform $-1 1 0 0 0 1 0 0 0 1 71.926023133030185 49.456576720583605 13.64278241278369 1 rotate no_reflect no_shear #
shell $-1 $-1 $-1 $20 $-1 $5 #
shell $-1 $-1 $-1 $21 $-1 $7 #
shell $-1 $-1 $-1 $22 $-1 $9 #
shell $-1 $-1 $-1 $23 $-1 $11 #
shell $-1 $-1 $-1 $24 $-1 $13 #
face $-1 $25 $26 $15 $-1 $27 forward single #
face $-1 $28 $29 $16 $-1 $30 reversed single #
face $-1 $31 $32 $17 $-1 $33 reversed single #
face $-1 $34 $35 $18 $-1 $36 reversed single #
face $-1 $37 $38 $19 $-1 $39 forward single #
face $-1 $40 $41 $15 $-1 $42 reversed single #
loop $-1 $-1 $43 $20 #
plane-surface $-1 0 0 13.64278241278369 0 0 1 1 0 0 forward_v I I I I #
face $-1 $44 $45 $16 $-1 $46 reversed single #
loop $-1 $-1 $47 $21 #
plane-surface $-1 -65.50060861701823 -42.100457725479394 0 0 -1 0 0 0 -1 forward_v I I I I #
face $-1 $48 $49 $17 $-1 $50 reversed single #
loop $-1 $-1 $51 $22 #
plane-surface $-1 59.075194101006275 -45.7785172230315 0 1 0 0 0 0 -1 forward_v I I I I #
face $-1 $52 $53 $18 $-1 $54 reversed single #
loop $-1 $-1 $55 $23 #
plane-surface $-1 -51.453527074779174 57.033344189665748 183.38542526666475 1 0 0 0 -0.6018150307709319 -0.79863550430605224 forward_v I I I I #
face $-1 $56 $57 $19 $-1 $58 forward single #
loop $-1 $59 $60 $24 #
cone-surface $-1 -38.215830224697122 45.349537748911892 9.9696544445789606 0 -0.6018150307709319 -0.79863550430605224 1 0 0 1 I I 0 1 1 forward I I I I #
face $-1 $61 $62 $15 $-1 $63 reversed single #
loop $-1 $-1 $64 $25 #
plane-surface $-1 0 0 -13.64278241278369 0 0 1 1 0 0 forward_v I I I I #
coedge $-1 $65 $66 $67 $68 forward $26 $-1 #
face $-1 $69 $70 $16 $-1 $71 forward single #
loop $-1 $-1 $72 $28 #
plane-surface $-1 -59.075194101006275 -45.7785172230315 0 -1 0 0 0 0 1 forward_v I I I I #
coedge $-1 $73 $74 $75 $76 forward $29 $-1 #
face $-1 $77 $78 $17 $-1 $79 forward single #
loop $-1 $-1 $80 $31 #
plane-surface $-1 65.50060861701823 -42.100457725479394 0 0 -1 0 0 0 -1 forward_v I I I I #
coedge $-1 $81 $82 $83 $84 forward $32 $-1 #
face $-1 $85 $86 $18 $-1 $87 reversed single #
loop $-1 $-1 $88 $34 #
plane-surface $-1 -38.215830224697122 -29.538979460404896 68.500073751512076 0 0.6018150307709319 0.79863550430605224 1 0 0 forward_v I I I I #
coedge $-1 $89 $90 $91 $92 reversed $35 $-1 #
face $-1 $-1 $93 $19 $-1 $94 forward single #
loop $-1 $95 $96 $37 #
cone-surface $-1 -38.215830224697122 44.040327875230169 8.2322742957799786 0 -0.6018150307709319 -0.79863550430605224 0.5 0 0 1 I I -0.70710678118654746 0.70710678118654746 0.5 forward I I I I #
loop $-1 $-1 $97 $24 #
coedge $-1 $60 $60 $98 $99 reversed $38 $-1 #
face $-1 $100 $101 $15 $-1 $102 reversed single #
loop $-1 $-1 $103 $40 #
plane-surface $-1 0 -49.456576720583605 0 0 1 0 0 0 1 forward_v I I I I #
coedge $-1 $104 $105 $106 $107 forward $41 $-1 #
coedge $-1 $108 $43 $109 $110 forward $26 $-1 #
coedge $-1 $43 $108 $111 $112 forward $26 $-1 #
coedge $-1 $113 $114 $43 $68 reversed $115 $-1 #
edge $-1 $116 -49.456576720583605 $117 49.456576720583605 $67 $118 forward 7 unknown #
face $-1 $119 $120 $16 $-1 $121 reversed single #
loop $-1 $-1 $122 $44 #
plane-surface $-1 0 0 13.64278241278369 0 0 1 1 0 0 forward_v I I I I #
coedge $-1 $123 $124 $125 $126 reversed $45 $-1 #
coedge $-1 $127 $47 $128 $129 reversed $29 $-1 #
coedge $-1 $47 $127 $130 $131 reversed $29 $-1 #
coedge $-1 $124 $123 $47 $76 reversed $45 $-1 #
edge $-1 $132 -13.64278241278369 $133 13.64278241278369 $75 $134 forward 7 unknown #
face $-1 $135 $136 $17 $-1 $137 reversed single #
loop $-1 $-1 $138 $48 #
plane-surface $-1 0 0 13.64278241278369 0 0 1 1 0 0 forward_v I I I I #
coedge $-1 $139 $140 $141 $142 reversed $49 $-1 #
coedge $-1 $143 $51 $144 $145 reversed $32 $-1 #
coedge $-1 $51 $143 $146 $147 reversed $32 $-1 #
coedge $-1 $140 $139 $51 $84 reversed $49 $-1 #
edge $-1 $148 -13.64278241278369 $149 13.64278241278369 $83 $150 forward 7 unknown #
face $-1 $151 $152 $18 $-1 $153 reversed single #
loop $-1 $-1 $154 $52 #
plane-surface $-1 -24.978133374615069 57.033344189665748 183.38542526666475 -1 0 0 0 0.6018150307709319 0.79863550430605224 forward_v I I I I #
coedge $-1 $155 $156 $157 $158 reversed $53 $-1 #
coedge $-1 $90 $55 $159 $160 reversed $35 $-1 #
coedge $-1 $55 $89 $155 $161 reversed $35 $-1 #
coedge $-1 $157 $162 $55 $92 forward $163 $-1 #
edge $-1 $164 -20.939904625750732 $165 -14.742431398999859 $91 $166 forward 7 unknown #
loop $-1 $-1 $98 $56 #
plane-surface $-1 -38.215830224697122 -29.538979460404896 68.500073751512076 0 0.6018150307709319 0.79863550430605224 1 0 0 forward_v I I I I #
loop $-1 $-1 $167 $37 #
coedge $-1 $96 $96 $97 $168 reversed $57 $-1 #
coedge $-1 $97 $97 $96 $168 forward $59 $-1 #
coedge $-1 $98 $98 $60 $99 forward $93 $-1 #
edge $-1 $169 -3.2945533122861106e-016 $169 6.2831853071796004 $98 $170 forward 7 unknown #
face $-1 $171 $172 $15 $-1 $173 reversed single #
loop $-1 $-1 $174 $61 #
plane-surface $-1 -71.926023133030185 0 0 1 0 0 0 0 -1 forward_v I I I I #
coedge $-1 $175 $111 $176 $177 forward $62 $-1 #
coedge $-1 $178 $64 $175 $179 forward $41 $-1 #
coedge $-1 $64 $178 $180 $181 forward $41 $-1 #
coedge $-1 $114 $113 $64 $107 reversed $115 $-1 #
edge $-1 $182 -49.456576720583605 $183 49.456576720583605 $106 $184 forward 7 unknown #
coedge $-1 $66 $65 $185 $186 forward $26 $-1 #
coedge $-1 $187 $188 $65 $110 reversed $172 $-1 #
edge $-1 $117 -71.926023133030185 $189 71.926023133030185 $109 $190 forward 7 unknown #
coedge $-1 $103 $191 $66 $112 reversed $62 $-1 #
edge $-1 $192 -71.926023133030185 $116 71.926023133030185 $111 $193 forward 7 unknown #
coedge $-1 $106 $67 $191 $194 forward $115 $-1 #
coedge $-1 $67 $106 $187 $195 reversed $115 $-1 #
loop $-1 $-1 $113 $171 #
vertex $-1 $68 $196 #
vertex $-1 $68 $197 #
straight-curve $-1 71.926023133030185 0 13.64278241278369 0 1 0 I I #
face $-1 $198 $199 $16 $-1 $200 reversed single #
loop $-1 $-1 $201 $69 #
plane-surface $-1 -71.926023133030185 0 0 1 0 0 0 0 -1 forward_v I I I I #
coedge $-1 $130 $202 $124 $203 forward $70 $-1 #
coedge $-1 $75 $72 $204 $205 reversed $45 $-1 #
coedge $-1 $72 $75 $122 $203 reversed $45 $-1 #
coedge $-1 $206 $207 $72 $126 forward $208 $-1 #
edge $-1 $209 -13.64278241278369 $210 13.64278241278369 $125 $211 forward 7 unknown #
coedge $-1 $74 $73 $201 $212 reversed $29 $-1 #
coedge $-1 $204 $213 $73 $129 forward $199 $-1 #
edge $-1 $214 -39.17571882452107 $133 -26.32488979249716 $128 $215 forward 7 unknown #
coedge $-1 $216 $122 $74 $131 forward $70 $-1 #
edge $-1 $132 26.32488979249716 $217 39.17571882452107 $130 $218 forward 7 unknown #
vertex $-1 $131 $219 #
vertex $-1 $129 $220 #
straight-curve $-1 -59.075194101006275 -42.100457725479394 0 0 0 -1 I I #
face $-1 $221 $222 $17 $-1 $223 reversed single #
loop $-1 $-1 $224 $77 #
plane-surface $-1 0 -49.456576720583605 0 0 1 0 0 0 1 forward_v I I I I #
coedge $-1 $146 $225 $140 $226 forward $78 $-1 #
coedge $-1 $83 $80 $227 $228 reversed $49 $-1 #
coedge $-1 $80 $83 $138 $226 reversed $49 $-1 #
coedge $-1 $229 $230 $80 $142 forward $231 $-1 #
edge $-1 $232 -13.64278241278369 $233 13.64278241278369 $141 $234 forward 7 unknown #
coedge $-1 $82 $81 $224 $235 reversed $32 $-1 #
coedge $-1 $227 $236 $81 $145 forward $222 $-1 #
edge $-1 $237 -26.567318109067855 $149 -19.211199113963644 $144 $238 forward 7 unknown #
coedge $-1 $239 $138 $82 $147 forward $78 $-1 #
edge $-1 $148 19.211199113963644 $240 26.567318109067855 $146 $241 forward 7 unknown #
vertex $-1 $147 $242 #
vertex $-1 $145 $243 #
straight-curve $-1 59.075194101006275 -42.100457725479394 0 0 0 -1 I I #
face $-1 $-1 $163 $18 $-1 $244 forward single #
loop $-1 $-1 $245 $85 #
plane-surface $-1 0 49.456576720583605 0 0 -1 0 0 0 -1 forward_v I I I I #
coedge $-1 $246 $247 $248 $249 reversed $86 $-1 #
coedge $-1 $250 $88 $90 $161 forward $53 $-1 #
coedge $-1 $88 $250 $246 $251 forward $53 $-1 #
coedge $-1 $248 $91 $88 $158 forward $163 $-1 #
edge $-1 $165 -32.34561196243061 $252 -5.8702182622665084 $157 $253 forward 7 unknown #
coedge $-1 $254 $255 $89 $160 forward $152 $-1 #
edge $-1 $256 -82.720061363666247 $164 -78.049930220548688 $159 $257 forward 7 unknown #
edge $-1 $165 91.153076167698202 $256 98.913153441167225 $90 $258 forward 7 unknown #
coedge $-1 $91 $248 $254 $259 forward $163 $-1 #
loop $-1 $-1 $248 $151 #
vertex $-1 $160 $260 #
vertex $-1 $92 $261 #
straight-curve $-1 -51.453527074779174 28.516672094832874 13.642782412783689 0 -1 0 I I #
coedge $-1 $167 $167 $-1 $262 reversed $95 $-1 #
edge $-1 $263 0 $263 6.2831853071796004 $96 $264 forward 7 unknown #
vertex $-1 $99 $265 #
ellipse-curve $-1 -38.215830224697122 46.357840107208155 11.307716841224922 0 0.6018150307709319 0.79863550430605224 1 0 0 1 I I #
face $-1 $-1 $115 $15 $-1 $266 reversed single #
loop $-1 $-1 $187 $100 #
plane-surface $-1 0 49.456576720583605 0 0 -1 0 0 0 -1 forward_v I I I I #
coedge $-1 $267 $185 $188 $268 forward $101 $-1 #
coedge $-1 $191 $103 $104 $179 reversed $62 $-1 #
coedge $-1 $185 $267 $103 $177 reversed $101 $-1 #
edge $-1 $192 -13.64278241278369 $269 13.64278241278369 $176 $270 forward 7 unknown #
coedge $-1 $105 $104 $267 $271 forward $41 $-1 #
edge $-1 $183 -71.926023133030185 $269 71.926023133030185 $175 $272 forward 7 unknown #
coedge $-1 $188 $187 $105 $181 reversed $172 $-1 #
edge $-1 $273 -71.926023133030185 $182 71.926023133030185 $180 $274 forward 7 unknown #
vertex $-1 $107 $275 #
vertex $-1 $194 $276 #
straight-curve $-1 71.926023133030185 0 -13.64278241278369 0 -1 0 I I #
coedge $-1 $174 $176 $108 $186 reversed $101 $-1 #
edge $-1 $189 -49.456576720583605 $192 49.456576720583605 $185 $277 forward 7 unknown #
coedge $-1 $180 $109 $114 $195 forward $172 $-1 #
coedge $-1 $109 $180 $174 $268 reversed $172 $-1 #
vertex $-1 $110 $278 #
straight-curve $-1 0 49.456576720583605 13.64278241278369 -1 0 0 I I #
coedge $-1 $111 $175 $113 $194 reversed $62 $-1 #
vertex $-1 $186 $279 #
straight-curve $-1 0 -49.456576720583605 13.64278241278369 1 0 0 I I #
edge $-1 $116 -13.64278241278369 $183 13.64278241278369 $113 $280 forward 7 unknown #
edge $-1 $117 -13.64278241278369 $182 13.64278241278369 $114 $281 forward 7 unknown #
point $-1 71.926023133030185 -49.456576720583605 13.64278241278369 #
point $-1 71.926023133030185 49.456576720583605 13.64278241278369 #
face $-1 $-1 $208 $16 $-1 $282 reversed single #
loop $-1 $-1 $204 $119 #
plane-surface $-1 0 0 -13.64278241278369 0 0 1 1 0 0 forward_v I I I I #
coedge $-1 $283 $284 $127 $212 forward $120 $-1 #
coedge $-1 $122 $216 $206 $285 forward $70 $-1 #
edge $-1 $210 -26.567318109067855 $132 -19.211199113963644 $122 $286 forward 7 unknown #
coedge $-1 $287 $128 $123 $205 forward $199 $-1 #
edge $-1 $133 19.211199113963644 $209 26.567318109067855 $204 $288 forward 7 unknown #
coedge $-1 $289 $125 $202 $285 reversed $208 $-1 #
coedge $-1 $125 $289 $287 $290 reversed $208 $-1 #
loop $-1 $-1 $125 $198 #
vertex $-1 $290 $291 #
vertex $-1 $126 $292 #
straight-curve $-1 -59.075194101006275 -49.456576720583605 0 0 0 1 I I #
edge $-1 $217 -13.64278241278369 $214 13.64278241278369 $201 $293 forward 7 unknown #
coedge $-1 $128 $287 $283 $294 forward $199 $-1 #
vertex $-1 $129 $295 #
straight-curve $-1 -32.750304308509115 -42.100457725479394 -13.64278241278369 1 0 0 I I #
coedge $-1 $202 $130 $284 $296 forward $70 $-1 #
vertex $-1 $296 $297 #
straight-curve $-1 -32.750304308509115 -42.100457725479394 13.64278241278369 -1 0 0 I I #
point $-1 -59.075194101006275 -42.100457725479394 13.64278241278369 #
point $-1 -59.075194101006275 -42.100457725479394 -13.64278241278369 #
face $-1 $-1 $231 $17 $-1 $298 reversed single #
loop $-1 $-1 $227 $135 #
plane-surface $-1 0 0 -13.64278241278369 0 0 1 1 0 0 forward_v I I I I #
coedge $-1 $299 $300 $143 $235 forward $136 $-1 #
coedge $-1 $138 $239 $229 $301 forward $78 $-1 #
edge $-1 $233 -39.17571882452107 $148 -26.32488979249716 $138 $302 forward 7 unknown #
coedge $-1 $303 $144 $139 $228 forward $222 $-1 #
edge $-1 $149 26.32488979249716 $232 39.17571882452107 $227 $304 forward 7 unknown #
coedge $-1 $305 $141 $225 $301 reversed $231 $-1 #
coedge $-1 $141 $305 $303 $306 reversed $231 $-1 #
loop $-1 $-1 $141 $221 #
vertex $-1 $306 $307 #
vertex $-1 $142 $308 #
straight-curve $-1 71.926023133030185 -42.100457725479394 0 0 0 1 I I #
edge $-1 $240 -13.64278241278369 $237 13.64278241278369 $224 $309 forward 7 unknown #
coedge $-1 $144 $303 $299 $310 forward $222 $-1 #
vertex $-1 $145 $311 #
straight-curve $-1 59.075194101006275 -22.88925861151575 -13.64278241278369 0 1 0 I I #
coedge $-1 $225 $146 $300 $312 forward $78 $-1 #
vertex $-1 $312 $313 #
straight-curve $-1 59.075194101006275 -22.88925861151575 13.64278241278369 0 -1 0 I I #
point $-1 59.075194101006275 -42.100457725479394 13.64278241278369 #
point $-1 59.075194101006275 -42.100457725479394 -13.64278241278369 #
plane-surface $-1 0 0 13.64278241278369 0 0 1 1 0 0 forward_v I I I I #
coedge $-1 $255 $254 $247 $314 forward $152 $-1 #
coedge $-1 $247 $154 $156 $251 reversed $86 $-1 #
coedge $-1 $154 $246 $245 $314 reversed $86 $-1 #
coedge $-1 $162 $157 $154 $249 forward $163 $-1 #
edge $-1 $252 14.742431398999859 $315 20.939904625750732 $248 $316 forward 7 unknown #
coedge $-1 $156 $155 $255 $317 reversed $53 $-1 #
edge $-1 $318 -98.913153441167225 $252 -91.153076167698202 $246 $319 forward 7 unknown #
vertex $-1 $158 $320 #
straight-curve $-1 -19.107915112348561 43.259103493832747 13.642782412783689 1 0 0 I I #
coedge $-1 $245 $159 $162 $259 reversed $152 $-1 #
coedge $-1 $159 $245 $250 $317 forward $152 $-1 #
vertex $-1 $160 $321 #
straight-curve $-1 -51.453527074779174 49.456576720583605 91.692712633332377 0 0 1 I I #
straight-curve $-1 -51.453527074779174 -29.538979460404896 68.500073751512076 0 0.79863550430605224 -0.6018150307709319 I I #
edge $-1 $315 24.978133374615069 $164 51.453527074779174 $254 $322 forward 7 unknown #
point $-1 -51.453527074779174 49.456576720583605 13.64278241278369 #
point $-1 -51.453527074779174 43.259103493832733 13.642782412783689 #
edge $-1 $323 1 $323 0 $167 $-1 forward 7 unknown #
vertex $-1 $168 $324 #
ellipse-curve $-1 -38.215830224697122 44.341235390615637 8.6315920479330046 0 0.6018150307709319 0.79863550430605224 1 0 0 1 I I #
point $-1 -37.215830224697122 46.357840107208148 11.307716841224913 #
plane-surface $-1 71.926023133030185 0 0 -1 0 0 0 0 1 forward_v I I I I #
coedge $-1 $176 $174 $178 $271 reversed $101 $-1 #
edge $-1 $189 -13.64278241278369 $273 13.64278241278369 $188 $325 forward 7 unknown #
vertex $-1 $271 $326 #
straight-curve $-1 -71.926023133030185 -49.456576720583605 0 0 0 -1 I I #
edge $-1 $269 -49.456576720583605 $273 49.456576720583605 $267 $327 forward 7 unknown #
straight-curve $-1 0 -49.456576720583605 -13.64278241278369 -1 0 0 I I #
vertex $-1 $181 $328 #
straight-curve $-1 0 49.456576720583605 -13.64278241278369 1 0 0 I I #
point $-1 71.926023133030185 49.456576720583605 -13.64278241278369 #
point $-1 71.926023133030185 -49.456576720583605 -13.64278241278369 #
straight-curve $-1 -71.926023133030185 0 13.64278241278369 0 -1 0 I I #
point $-1 -71.926023133030185 49.456576720583605 13.64278241278369 #
point $-1 -71.926023133030185 -49.456576720583605 13.64278241278369 #
straight-curve $-1 71.926023133030185 -49.456576720583605 0 0 0 -1 I I #
straight-curve $-1 71.926023133030185 49.456576720583605 0 0 0 -1 I I #
plane-surface $-1 0 -49.456576720583605 0 0 1 0 0 0 1 forward_v I I I I #
coedge $-1 $329 $201 $213 $294 reversed $120 $-1 #
coedge $-1 $201 $329 $216 $296 reversed $120 $-1 #
edge $-1 $330 -71.926023133030185 $210 -59.075194101006275 $206 $331 forward 7 unknown #
straight-curve $-1 -59.075194101006275 -22.88925861151575 13.64278241278369 0 1 0 I I #
coedge $-1 $213 $204 $207 $290 forward $199 $-1 #
straight-curve $-1 -59.075194101006275 -22.88925861151575 -13.64278241278369 0 -1 0 I I #
coedge $-1 $207 $206 $329 $332 forward $208 $-1 #
edge $-1 $209 59.075194101006275 $333 71.926023133030185 $207 $334 forward 7 unknown #
point $-1 -59.075194101006275 -49.456576720583605 -13.64278241278369 #
point $-1 -59.075194101006275 -49.456576720583605 13.64278241278369 #
straight-curve $-1 -71.926023133030185 -42.100457725479394 0 0 0 -1 I I #
edge $-1 $333 -49.456576720583605 $214 -42.100457725479394 $283 $335 forward 7 unknown #
point $-1 -71.926023133030185 -42.100457725479394 -13.64278241278369 #
edge $-1 $217 42.100457725479394 $330 49.456576720583605 $284 $336 forward 7 unknown #
point $-1 -71.926023133030185 -42.100457725479394 13.64278241278369 #
plane-surface $-1 71.926023133030185 0 0 -1 0 0 0 0 1 forward_v I I I I #
coedge $-1 $337 $224 $236 $310 reversed $136 $-1 #
coedge $-1 $224 $337 $239 $312 reversed $136 $-1 #
edge $-1 $338 -49.456576720583605 $233 -42.100457725479394 $229 $339 forward 7 unknown #
straight-curve $-1 32.750304308509115 -42.100457725479394 13.64278241278369 -1 0 0 I I #
coedge $-1 $236 $227 $230 $306 forward $222 $-1 #
straight-curve $-1 32.750304308509115 -42.100457725479394 -13.64278241278369 1 0 0 I I #
coedge $-1 $230 $229 $337 $340 forward $231 $-1 #
edge $-1 $232 42.100457725479394 $341 49.456576720583605 $230 $342 forward 7 unknown #
point $-1 71.926023133030185 -42.100457725479394 -13.64278241278369 #
point $-1 71.926023133030185 -42.100457725479394 13.64278241278369 #
straight-curve $-1 59.075194101006275 -49.456576720583605 0 0 0 -1 I I #
edge $-1 $341 -71.926023133030185 $237 -59.075194101006275 $299 $343 forward 7 unknown #
point $-1 59.075194101006275 -49.456576720583605 -13.64278241278369 #
edge $-1 $240 59.075194101006275 $338 71.926023133030185 $300 $344 forward 7 unknown #
point $-1 59.075194101006275 -49.456576720583605 13.64278241278369 #
edge $-1 $315 78.049930220548688 $318 82.720061363666247 $245 $345 forward 7 unknown #
vertex $-1 $259 $346 #
straight-curve $-1 -24.978133374615069 28.516672094832874 13.642782412783689 0 1 0 I I #
edge $-1 $318 5.8702182622665084 $256 32.34561196243061 $255 $347 forward 7 unknown #
vertex $-1 $317 $348 #
straight-curve $-1 -24.978133374615069 -29.538979460404896 68.500073751512076 0 -0.79863550430605224 0.6018150307709319 I I #
point $-1 -24.978133374615069 43.259103493832733 13.642782412783689 #
point $-1 -51.453527074779174 49.456576720583605 8.9726512696661231 #
straight-curve $-1 0 49.456576720583605 13.64278241278369 -1 0 0 I I #
vertex $-1 $262 $349 #
point $-1 -37.215830224697122 44.341235390615637 8.6315920479330046 #
straight-curve $-1 -71.926023133030185 49.456576720583605 0 0 0 -1 I I #
point $-1 -71.926023133030185 -49.456576720583605 -13.64278241278369 #
straight-curve $-1 -71.926023133030185 0 -13.64278241278369 0 1 0 I I #
point $-1 -71.926023133030185 49.456576720583605 -13.64278241278369 #
coedge $-1 $284 $283 $289 $332 reversed $120 $-1 #
vertex $-1 $296 $350 #
straight-curve $-1 0 -49.456576720583605 13.64278241278369 1 0 0 I I #
edge $-1 $330 -13.64278241278369 $333 13.64278241278369 $329 $351 forward 7 unknown #
vertex $-1 $294 $352 #
straight-curve $-1 0 -49.456576720583605 -13.64278241278369 -1 0 0 I I #
straight-curve $-1 -71.926023133030185 0 -13.64278241278369 0 1 0 I I #
straight-curve $-1 -71.926023133030185 0 13.64278241278369 0 -1 0 I I #
coedge $-1 $300 $299 $305 $340 reversed $136 $-1 #
vertex $-1 $301 $353 #
straight-curve $-1 71.926023133030185 0 13.64278241278369 0 1 0 I I #
edge $-1 $338 -13.64278241278369 $341 13.64278241278369 $305 $354 forward 7 unknown #
vertex $-1 $340 $355 #
straight-curve $-1 71.926023133030185 0 -13.64278241278369 0 -1 0 I I #
straight-curve $-1 0 -49.456576720583605 -13.64278241278369 -1 0 0 I I #
straight-curve $-1 0 -49.456576720583605 13.64278241278369 1 0 0 I I #
straight-curve $-1 -24.978133374615069 49.456576720583605 91.692712633332377 0 0 -1 I I #
point $-1 -24.978133374615069 49.456576720583605 13.64278241278369 #
straight-curve $-1 -19.107915112348561 49.456576720583605 8.9726512696661196 -1 0 0 I I #
point $-1 -24.978133374615069 49.456576720583605 8.9726512696661231 #
point $-1 -38.215830224697122 43.739420359844701 7.8329565436269526 #
point $-1 -71.926023133030185 -49.456576720583605 13.64278241278369 #
straight-curve $-1 -71.926023133030185 -49.456576720583605 0 0 0 -1 I I #
point $-1 -71.926023133030185 -49.456576720583605 -13.64278241278369 #
point $-1 71.926023133030185 -49.456576720583605 13.64278241278369 #
straight-curve $-1 71.926023133030185 -49.456576720583605 0 0 0 -1 I I #
point $-1 71.926023133030185 -49.456576720583605 -13.64278241278369 #
End-of-ACIS-data 