500 0 17 0           
7 Unknown 11 ACIS 5.0 NT 24 Fri Mar 26 20:40:30 1999 
-1 9.9999999999999995e-007 1e-010 
body $-1 $17 $-1 $18 #
body $-1 $19 $-1 $20 #
body $-1 $21 $-1 $22 #
body $-1 $23 $-1 $24 #
body $-1 $25 $-1 $26 #
body $-1 $27 $-1 $28 #
body $-1 $29 $-1 $30 #
body $-1 $31 $-1 $32 #
body $-1 $33 $-1 $34 #
body $-1 $35 $-1 $36 #
body $-1 $37 $-1 $38 #
body $-1 $39 $-1 $40 #
body $-1 $41 $-1 $42 #
body $-1 $43 $-1 $44 #
body $-1 $45 $-1 $46 #
body $-1 $47 $-1 $48 #
body $-1 $49 $-1 $50 #
lump $-1 $-1 $51 $0 #
transform $-1 1 0 0 0 1 0 0 0 1 61.342204046754361 25.40908025957161 5.0957741025345289 1 rotate no_reflect no_shear #
lump $-1 $-1 $52 $1 #
transform $-1 1 0 0 0 1 0 0 0 1 61.342204046754361 25.40908025957161 5.0957741025345289 1 rotate no_reflect no_shear #
lump $-1 $-1 $53 $2 #
transform $-1 1 0 0 0 1 0 0 0 1 61.342204046754361 25.40908025957161 5.0957741025345289 1 rotate no_reflect no_shear #
lump $-1 $-1 $54 $3 #
transform $-1 1 0 0 0 1 0 0 0 1 61.342204046754361 25.40908025957161 5.0957741025345289 1 rotate no_reflect no_shear #
lump $-1 $-1 $55 $4 #
transform $-1 1 0 0 0 1 0 0 0 1 61.342204046754361 25.40908025957161 5.0957741025345289 1 rotate no_reflect no_shear #
lump $-1 $-1 $56 $5 #
transform $-1 1 0 0 0 1 0 0 0 1 61.342204046754361 25.40908025957161 5.0957741025345289 1 rotate no_reflect no_shear #
lump $-1 $-1 $57 $6 #
transform $-1 1 0 0 0 1 0 0 0 1 61.342204046754361 25.40908025957161 5.0957741025345289 1 rotate no_reflect no_shear #
lump $-1 $-1 $58 $7 #
transform $-1 1 0 0 0 1 0 0 0 1 61.342204046754361 25.40908025957161 5.0957741025345289 1 rotate no_reflect no_shear #
lump $-1 $-1 $59 $8 #
transform $-1 1 0 0 0 1 0 0 0 1 61.342204046754361 25.40908025957161 5.0957741025345289 1 rotate no_reflect no_shear #
lump $-1 $-1 $60 $9 #
transform $-1 1 0 0 0 1 0 0 0 1 61.342204046754361 25.40908025957161 5.0957741025345289 1 rotate no_reflect no_shear #
lump $-1 $-1 $61 $10 #
transform $-1 1 0 0 0 1 0 0 0 1 61.342204046754361 25.40908025957161 5.0957741025345289 1 rotate no_reflect no_shear #
lump $-1 $-1 $62 $11 #
transform $-1 1 0 0 0 1 0 0 0 1 61.342204046754361 25.40908025957161 5.0957741025345289 1 rotate no_reflect no_shear #
lump $-1 $-1 $63 $12 #
transform $-1 1 0 0 0 1 0 0 0 1 61.342204046754361 25.40908025957161 5.0957741025345289 1 rotate no_reflect no_shear #
lump $-1 $-1 $64 $13 #
transform $-1 1 0 0 0 1 0 0 0 1 61.342204046754361 25.40908025957161 5.0957741025345289 1 rotate no_reflect no_shear #
lump $-1 $-1 $65 $14 #
transform $-1 1 0 0 0 1 0 0 0 1 61.342204046754361 25.40908025957161 5.0957741025345289 1 rotate no_reflect no_shear #
lump $-1 $-1 $66 $15 #
transform $-1 1 0 0 0 1 0 0 0 1 61.342204046754361 25.40908025957161 5.0957741025345289 1 rotate no_reflect no_shear #
lump $-1 $-1 $67 $16 #
transform $-1 1 0 0 0 1 0 0 0 1 61.342204046754361 25.40908025957161 5.0957741025345289 1 rotate no_reflect no_shear #
shell $-1 $-1 $-1 $68 $-1 $17 #
shell $-1 $-1 $-1 $69 $-1 $19 #
shell $-1 $-1 $-1 $70 $-1 $21 #
shell $-1 $-1 $-1 $71 $-1 $23 #
shell $-1 $-1 $-1 $72 $-1 $25 #
shell $-1 $-1 $-1 $73 $-1 $27 #
shell $-1 $-1 $-1 $74 $-1 $29 #
shell $-1 $-1 $-1 $75 $-1 $31 #
shell $-1 $-1 $-1 $76 $-1 $33 #
shell $-1 $-1 $-1 $77 $-1 $35 #
shell $-1 $-1 $-1 $78 $-1 $37 #
shell $-1 $-1 $-1 $79 $-1 $39 #
shell $-1 $-1 $-1 $80 $-1 $41 #
shell $-1 $-1 $-1 $81 $-1 $43 #
shell $-1 $-1 $-1 $82 $-1 $45 #
shell $-1 $-1 $-1 $83 $-1 $47 #
shell $-1 $-1 $-1 $84 $-1 $49 #
face $-1 $85 $86 $51 $-1 $87 forward single #
face $-1 $88 $89 $52 $-1 $90 forward single #
face $-1 $91 $92 $53 $-1 $93 reversed single #
face $-1 $94 $95 $54 $-1 $96 forward single #
face $-1 $97 $98 $55 $-1 $99 forward single #
face $-1 $100 $101 $56 $-1 $102 reversed single #
face $-1 $103 $104 $57 $-1 $105 forward single #
face $-1 $106 $107 $58 $-1 $108 forward single #
face $-1 $109 $110 $59 $-1 $111 reversed single #
face $-1 $112 $113 $60 $-1 $114 forward single #
face $-1 $115 $116 $61 $-1 $117 forward single #
face $-1 $118 $119 $62 $-1 $120 reversed single #
face $-1 $121 $122 $63 $-1 $123 forward single #
face $-1 $124 $125 $64 $-1 $126 forward single #
face $-1 $127 $128 $65 $-1 $129 reversed single #
face $-1 $130 $131 $66 $-1 $132 forward single #
face $-1 $133 $134 $67 $-1 $135 forward single #
face $-1 $136 $137 $51 $-1 $138 reversed single #
loop $-1 $-1 $139 $68 #
plane-surface $-1 0 0 5.0957741025345289 0 0 1 1 0 0 forward_v I I I I #
face $-1 $140 $141 $52 $-1 $142 reversed single #
loop $-1 $-1 $143 $69 #
plane-surface $-1 0 -25.40908025957161 0 0 1 0 0 0 1 forward_v I I I I #
face $-1 $144 $145 $53 $-1 $146 reversed single #
loop $-1 $-1 $147 $70 #
plane-surface $-1 103.31612816549575 -12.43983963564018 168.46697718884926 0 -1 0 -0.85716730853699208 0 -0.51503806187062418 forward_v I I I I #
face $-1 $148 $149 $54 $-1 $150 forward single #
loop $-1 $151 $152 $71 #
cone-surface $-1 59.188953544116657 -17.058674727955268 2.2119022984801604 -0.85716730853699208 0 -0.51503806187062418 0.25751903093531209 0 -0.42858365426849604 1 I I 0 1 0.5 forward I I I I #
face $-1 $153 $154 $55 $-1 $155 forward single #
loop $-1 $156 $157 $72 #
cone-surface $-1 59.188953544116657 -14.287373672566215 2.2119022984801604 -0.85716730853699208 0 -0.51503806187062418 0.25751903093531209 0 -0.42858365426849604 1 I I 0 1 0.5 forward I I I I #
face $-1 $158 $159 $56 $-1 $160 reversed single #
loop $-1 $-1 $161 $73 #
plane-surface $-1 103.31612816549575 0.17646699609708394 168.46697718884926 0 -1 0 -0.85716730853699208 0 -0.51503806187062418 forward_v I I I I #
face $-1 $162 $163 $57 $-1 $164 forward single #
loop $-1 $165 $166 $74 #
cone-surface $-1 59.188953544116657 -4.4423680962180043 2.2119022984801604 -0.85716730853699208 0 -0.51503806187062418 0.25751903093531209 0 -0.42858365426849604 1 I I 0 1 0.5 forward I I I I #
face $-1 $167 $168 $58 $-1 $169 forward single #
loop $-1 $170 $171 $75 #
cone-surface $-1 59.188953544116657 -1.6710670408289516 2.2119022984801604 -0.85716730853699208 0 -0.51503806187062418 0.25751903093531209 0 -0.42858365426849604 1 I I 0 1 0.5 forward I I I I #
face $-1 $172 $173 $59 $-1 $174 reversed single #
loop $-1 $-1 $175 $76 #
plane-surface $-1 103.31612816549575 12.792773627834347 168.46697718884926 0 -1 0 -0.85716730853699208 0 -0.51503806187062418 forward_v I I I I #
face $-1 $176 $177 $60 $-1 $178 forward single #
loop $-1 $179 $180 $77 #
cone-surface $-1 59.188953544116657 8.1739385355192553 2.2119022984801604 -0.85716730853699208 0 -0.51503806187062418 0.25751903093531209 0 -0.42858365426849604 1 I I 0 1 0.5 forward I I I I #
face $-1 $181 $182 $61 $-1 $183 forward single #
loop $-1 $184 $185 $78 #
cone-surface $-1 59.188953544116657 10.945239590908315 2.2119022984801604 -0.85716730853699208 0 -0.51503806187062418 0.25751903093531209 0 -0.42858365426849604 1 I I 0 1 0.5 forward I I I I #
face $-1 $186 $187 $62 $-1 $188 reversed single #
loop $-1 $-1 $189 $79 #
plane-surface $-1 103.31612816549575 18.94271113033049 168.46697718884926 0 1 0 0.85716730853699208 0 0.51503806187062418 forward_v I I I I #
face $-1 $190 $191 $63 $-1 $192 forward single #
loop $-1 $193 $194 $80 #
cone-surface $-1 59.188953544116657 20.790245167256515 2.2119022984801604 -0.85716730853699208 0 -0.51503806187062418 0.25751903093531209 0 -0.42858365426849604 1 I I 0 1 0.5 forward I I I I #
face $-1 $195 $196 $64 $-1 $197 forward single #
loop $-1 $198 $199 $81 #
cone-surface $-1 59.188953544116657 23.561546222645575 2.2119022984801604 -0.85716730853699208 0 -0.51503806187062418 0.25751903093531209 0 -0.42858365426849604 1 I I 0 1 0.5 forward I I I I #
face $-1 $200 $201 $65 $-1 $202 reversed single #
loop $-1 $-1 $203 $82 #
plane-surface $-1 -164.23400724259113 4.9504934181956521 67.651793844328182 0 1 0 -0.83867057594974714 0 0.54463902268945019 forward_v I I I I #
face $-1 $204 $205 $66 $-1 $206 forward single #
loop $-1 $207 $208 $83 #
cone-surface $-1 -59.284520208688903 8.6081237664051571 2.5270043339647725 0.83867057594974714 0 -0.54463902268945019 0.54463902268945019 0 0.83867057594974714 1 I I 0 1 1 forward I I I I #
face $-1 $209 $210 $67 $-1 $211 forward single #
loop $-1 $212 $213 $84 #
cone-surface $-1 -59.284520208688903 14.094569288719413 2.5270043339647725 0.83867057594974714 0 -0.54463902268945019 0.54463902268945019 0 0.83867057594974714 1 I I 0 1 1 forward I I I I #
face $-1 $214 $215 $51 $-1 $216 reversed single #
loop $-1 $-1 $217 $85 #
plane-surface $-1 0 0 -5.0957741025345289 0 0 1 1 0 0 forward_v I I I I #
coedge $-1 $218 $219 $220 $221 forward $86 $-1 #
face $-1 $222 $223 $52 $-1 $224 forward single #
loop $-1 $-1 $225 $88 #
plane-surface $-1 -61.342204046754361 0 0 1 0 0 0 0 -1 forward_v I I I I #
coedge $-1 $226 $227 $228 $229 forward $89 $-1 #
face $-1 $230 $231 $53 $-1 $232 reversed single #
loop $-1 $-1 $233 $91 #
plane-surface $-1 -1.8449357194710814 -15.673024200260741 105.27983742262381 0.85716730853699208 0 0.51503806187062418 0.51503806187062418 0 -0.85716730853699208 forward_v I I I I #
coedge $-1 $234 $235 $236 $237 reversed $92 $-1 #
face $-1 $-1 $238 $54 $-1 $239 forward single #
loop $-1 $240 $241 $94 #
cone-surface $-1 58.316652982978312 -17.058674727955268 1.6877712613969091 -0.85716730853699208 0 -0.51503806187062418 0.12875951546765604 0 -0.21429182713424802 1 I I -0.70710678118654746 0.70710678118654746 0.25 forward I I I I #
loop $-1 $-1 $242 $71 #
coedge $-1 $152 $152 $243 $244 reversed $95 $-1 #
face $-1 $-1 $245 $55 $-1 $246 forward single #
loop $-1 $247 $248 $97 #
cone-surface $-1 58.316652982978312 -14.287373672566215 1.6877712613969091 -0.85716730853699208 0 -0.51503806187062418 0.12875951546765604 0 -0.21429182713424802 1 I I -0.70710678118654746 0.70710678118654746 0.25 forward I I I I #
loop $-1 $-1 $249 $72 #
coedge $-1 $157 $157 $250 $251 reversed $98 $-1 #
face $-1 $252 $253 $56 $-1 $254 reversed single #
loop $-1 $-1 $255 $100 #
plane-surface $-1 -1.8449357194710814 -3.056717568523478 105.27983742262381 0.85716730853699208 0 0.51503806187062418 0.51503806187062418 0 -0.85716730853699208 forward_v I I I I #
coedge $-1 $256 $257 $258 $259 reversed $101 $-1 #
face $-1 $-1 $260 $57 $-1 $261 forward single #
loop $-1 $262 $263 $103 #
cone-surface $-1 58.316652982978312 -4.4423680962180043 1.6877712613969091 -0.85716730853699208 0 -0.51503806187062418 0.12875951546765604 0 -0.21429182713424802 1 I I -0.70710678118654746 0.70710678118654746 0.25 forward I I I I #
loop $-1 $-1 $264 $74 #
coedge $-1 $166 $166 $265 $266 reversed $104 $-1 #
face $-1 $-1 $267 $58 $-1 $268 forward single #
loop $-1 $269 $270 $106 #
cone-surface $-1 58.316652982978312 -1.6710670408289516 1.6877712613969091 -0.85716730853699208 0 -0.51503806187062418 0.12875951546765604 0 -0.21429182713424802 1 I I -0.70710678118654746 0.70710678118654746 0.25 forward I I I I #
loop $-1 $-1 $271 $75 #
coedge $-1 $171 $171 $272 $273 reversed $107 $-1 #
face $-1 $274 $275 $59 $-1 $276 reversed single #
loop $-1 $-1 $277 $109 #
plane-surface $-1 -1.8449357194710814 9.5595890632137852 105.27983742262381 0.85716730853699208 0 0.51503806187062418 0.51503806187062418 0 -0.85716730853699208 forward_v I I I I #
coedge $-1 $278 $279 $280 $281 reversed $110 $-1 #
face $-1 $-1 $282 $60 $-1 $283 forward single #
loop $-1 $284 $285 $112 #
cone-surface $-1 58.316652982978312 8.1739385355192553 1.6877712613969091 -0.85716730853699208 0 -0.51503806187062418 0.12875951546765604 0 -0.21429182713424802 1 I I -0.70710678118654746 0.70710678118654746 0.25 forward I I I I #
loop $-1 $-1 $286 $77 #
coedge $-1 $180 $180 $287 $288 reversed $113 $-1 #
face $-1 $-1 $289 $61 $-1 $290 forward single #
loop $-1 $291 $292 $115 #
cone-surface $-1 58.316652982978312 10.945239590908315 1.6877712613969091 -0.85716730853699208 0 -0.51503806187062418 0.12875951546765604 0 -0.21429182713424802 1 I I -0.70710678118654746 0.70710678118654746 0.25 forward I I I I #
loop $-1 $-1 $293 $78 #
coedge $-1 $185 $185 $294 $295 reversed $116 $-1 #
face $-1 $296 $297 $62 $-1 $298 reversed single #
loop $-1 $-1 $299 $118 #
plane-surface $-1 -1.8449357194710814 22.175895694951052 105.27983742262381 0.85716730853699208 0 0.51503806187062418 0.51503806187062418 0 -0.85716730853699208 forward_v I I I I #
coedge $-1 $300 $301 $302 $303 reversed $119 $-1 #
face $-1 $-1 $304 $63 $-1 $305 forward single #
loop $-1 $306 $307 $121 #
cone-surface $-1 58.316652982978312 20.790245167256515 1.6877712613969091 -0.85716730853699208 0 -0.51503806187062418 0.12875951546765604 0 -0.21429182713424802 1 I I -0.70710678118654746 0.70710678118654746 0.25 forward I I I I #
loop $-1 $-1 $308 $80 #
coedge $-1 $194 $194 $309 $310 reversed $122 $-1 #
face $-1 $-1 $311 $64 $-1 $312 forward single #
loop $-1 $313 $314 $124 #
cone-surface $-1 58.316652982978312 23.561546222645575 1.6877712613969091 -0.85716730853699208 0 -0.51503806187062418 0.12875951546765604 0 -0.21429182713424802 1 I I -0.70710678118654746 0.70710678118654746 0.25 forward I I I I #
loop $-1 $-1 $315 $81 #
coedge $-1 $199 $199 $316 $317 reversed $125 $-1 #
face $-1 $318 $319 $65 $-1 $320 reversed single #
loop $-1 $-1 $321 $127 #
plane-surface $-1 -61.342204046754347 11.351346527562285 0.83307772104592459 -0.83867057594974714 0 0.54463902268945019 0.54463902268945019 0 0.83867057594974714 forward_v I I I I #
coedge $-1 $322 $323 $324 $325 reversed $128 $-1 #
face $-1 $-1 $326 $66 $-1 $327 forward single #
loop $-1 $328 $329 $130 #
cone-surface $-1 -58.191614736932131 8.6081237664051571 1.8172632447945851 0.83867057594974714 0 -0.54463902268945019 0.2723195113447251 0 0.41933528797487357 1 I I -0.70710678118654735 0.70710678118654768 0.5 forward I I I I #
loop $-1 $-1 $330 $83 #
coedge $-1 $208 $208 $331 $332 reversed $131 $-1 #
face $-1 $-1 $333 $67 $-1 $334 forward single #
loop $-1 $335 $336 $133 #
cone-surface $-1 -58.191614736932131 14.094569288719413 1.8172632447945851 0.83867057594974714 0 -0.54463902268945019 0.2723195113447251 0 0.41933528797487357 1 I I -0.70710678118654735 0.70710678118654768 0.5 forward I I I I #
loop $-1 $-1 $337 $84 #
coedge $-1 $213 $213 $338 $339 reversed $134 $-1 #
face $-1 $340 $341 $51 $-1 $342 reversed single #
loop $-1 $-1 $343 $136 #
plane-surface $-1 0 -25.40908025957161 0 0 1 0 0 0 1 forward_v I I I I #
coedge $-1 $344 $345 $346 $347 forward $137 $-1 #
coedge $-1 $348 $139 $349 $350 forward $86 $-1 #
coedge $-1 $139 $348 $351 $352 forward $86 $-1 #
coedge $-1 $353 $354 $139 $221 reversed $355 $-1 #
edge $-1 $356 -25.40908025957161 $357 25.40908025957161 $220 $358 forward 7 unknown #
face $-1 $359 $360 $52 $-1 $361 reversed single #
loop $-1 $-1 $362 $140 #
plane-surface $-1 0 -28.660516006916762 3.819305571369588 0 0 1 1 0 0 forward_v I I I I #
coedge $-1 $363 $364 $227 $365 forward $141 $-1 #
coedge $-1 $366 $143 $367 $368 reversed $89 $-1 #
coedge $-1 $143 $366 $225 $365 reversed $89 $-1 #
coedge $-1 $369 $362 $143 $229 reversed $223 $-1 #
edge $-1 $370 -61.342204046754361 $371 61.342204046754361 $228 $372 forward 7 unknown #
face $-1 $373 $374 $53 $-1 $375 reversed single #
loop $-1 $-1 $376 $144 #
plane-surface $-1 103.31612816549575 -18.906208764881303 168.46697718884926 0 1 0 0.85716730853699208 0 0.51503806187062418 forward_v I I I I #
coedge $-1 $377 $378 $379 $380 reversed $145 $-1 #
coedge $-1 $235 $147 $381 $382 reversed $92 $-1 #
coedge $-1 $147 $234 $377 $383 reversed $92 $-1 #
coedge $-1 $379 $384 $147 $237 forward $385 $-1 #
edge $-1 $386 -9.6841399640064836 $387 -6.6936564267392598 $236 $388 forward 7 unknown #
loop $-1 $-1 $243 $148 #
plane-surface $-1 -1.8449357194710814 -15.673024200260741 105.27983742262381 0.85716730853699208 0 0.51503806187062418 0.51503806187062418 0 -0.85716730853699208 forward_v I I I I #
loop $-1 $-1 $389 $94 #
coedge $-1 $241 $241 $242 $390 reversed $149 $-1 #
coedge $-1 $242 $242 $241 $390 forward $151 $-1 #
coedge $-1 $243 $243 $152 $244 forward $238 $-1 #
edge $-1 $391 0 $391 6.2831853071796004 $243 $392 forward 7 unknown #
loop $-1 $-1 $250 $153 #
plane-surface $-1 -1.8449357194710814 -15.673024200260741 105.27983742262381 0.85716730853699208 0 0.51503806187062418 0.51503806187062418 0 -0.85716730853699208 forward_v I I I I #
loop $-1 $-1 $393 $97 #
coedge $-1 $248 $248 $249 $394 reversed $154 $-1 #
coedge $-1 $249 $249 $248 $394 forward $156 $-1 #
coedge $-1 $250 $250 $157 $251 forward $245 $-1 #
edge $-1 $395 0 $395 6.2831853071796004 $250 $396 forward 7 unknown #
face $-1 $397 $398 $56 $-1 $399 reversed single #
loop $-1 $-1 $400 $158 #
plane-surface $-1 103.31612816549575 -6.2899021331440395 168.46697718884926 0 1 0 0.85716730853699208 0 0.51503806187062418 forward_v I I I I #
coedge $-1 $401 $402 $403 $404 reversed $159 $-1 #
coedge $-1 $257 $161 $405 $406 reversed $101 $-1 #
coedge $-1 $161 $256 $401 $407 reversed $101 $-1 #
coedge $-1 $403 $408 $161 $259 forward $409 $-1 #
edge $-1 $410 -9.6841399640064836 $411 -6.6936564267392598 $258 $412 forward 7 unknown #
loop $-1 $-1 $265 $162 #
plane-surface $-1 -1.8449357194710814 -3.056717568523478 105.27983742262381 0.85716730853699208 0 0.51503806187062418 0.51503806187062418 0 -0.85716730853699208 forward_v I I I I #
loop $-1 $-1 $413 $103 #
coedge $-1 $263 $263 $264 $414 reversed $163 $-1 #
coedge $-1 $264 $264 $263 $414 forward $165 $-1 #
coedge $-1 $265 $265 $166 $266 forward $260 $-1 #
edge $-1 $415 0 $415 6.2831853071796004 $265 $416 forward 7 unknown #
loop $-1 $-1 $272 $167 #
plane-surface $-1 -1.8449357194710814 -3.056717568523478 105.27983742262381 0.85716730853699208 0 0.51503806187062418 0.51503806187062418 0 -0.85716730853699208 forward_v I I I I #
loop $-1 $-1 $417 $106 #
coedge $-1 $270 $270 $271 $418 reversed $168 $-1 #
coedge $-1 $271 $271 $270 $418 forward $170 $-1 #
coedge $-1 $272 $272 $171 $273 forward $267 $-1 #
edge $-1 $419 0 $419 6.2831853071796004 $272 $420 forward 7 unknown #
face $-1 $421 $422 $59 $-1 $423 reversed single #
loop $-1 $-1 $424 $172 #
plane-surface $-1 103.31612816549575 6.3264044985932237 168.46697718884926 0 1 0 0.85716730853699208 0 0.51503806187062418 forward_v I I I I #
coedge $-1 $425 $426 $427 $428 reversed $173 $-1 #
coedge $-1 $279 $175 $429 $430 reversed $110 $-1 #
coedge $-1 $175 $278 $425 $431 reversed $110 $-1 #
coedge $-1 $427 $432 $175 $281 forward $433 $-1 #
edge $-1 $434 -9.6841399640064836 $435 -6.6936564267392598 $280 $436 forward 7 unknown #
loop $-1 $-1 $287 $176 #
plane-surface $-1 -1.8449357194710814 9.5595890632137852 105.27983742262381 0.85716730853699208 0 0.51503806187062418 0.51503806187062418 0 -0.85716730853699208 forward_v I I I I #
loop $-1 $-1 $437 $112 #
coedge $-1 $285 $285 $286 $438 reversed $177 $-1 #
coedge $-1 $286 $286 $285 $438 forward $179 $-1 #
coedge $-1 $287 $287 $180 $288 forward $282 $-1 #
edge $-1 $439 0 $439 6.2831853071796004 $287 $440 forward 7 unknown #
loop $-1 $-1 $294 $181 #
plane-surface $-1 -1.8449357194710814 9.5595890632137852 105.27983742262381 0.85716730853699208 0 0.51503806187062418 0.51503806187062418 0 -0.85716730853699208 forward_v I I I I #
loop $-1 $-1 $441 $115 #
coedge $-1 $292 $292 $293 $442 reversed $182 $-1 #
coedge $-1 $293 $293 $292 $442 forward $184 $-1 #
coedge $-1 $294 $294 $185 $295 forward $289 $-1 #
edge $-1 $443 0 $443 6.2831853071796004 $294 $444 forward 7 unknown #
face $-1 $445 $446 $62 $-1 $447 forward single #
loop $-1 $-1 $302 $186 #
plane-surface $-1 61.342204046754361 0 0 -1 0 0 0 0 1 forward_v I I I I #
coedge $-1 $448 $449 $450 $451 reversed $187 $-1 #
coedge $-1 $301 $189 $452 $453 reversed $119 $-1 #
coedge $-1 $189 $300 $448 $454 reversed $119 $-1 #
coedge $-1 $450 $455 $189 $303 forward $297 $-1 #
edge $-1 $456 79.137714491890094 $457 84.114715056767636 $302 $458 forward 7 unknown #
loop $-1 $-1 $309 $190 #
plane-surface $-1 -1.8449357194710814 22.175895694951052 105.27983742262381 0.85716730853699208 0 0.51503806187062418 0.51503806187062418 0 -0.85716730853699208 forward_v I I I I #
loop $-1 $-1 $459 $121 #
coedge $-1 $307 $307 $308 $460 reversed $191 $-1 #
coedge $-1 $308 $308 $307 $460 forward $193 $-1 #
coedge $-1 $309 $309 $194 $310 forward $304 $-1 #
edge $-1 $461 0 $461 6.2831853071796004 $309 $462 forward 7 unknown #
loop $-1 $-1 $316 $195 #
plane-surface $-1 -1.8449357194710814 22.175895694951052 105.27983742262381 0.85716730853699208 0 0.51503806187062418 0.51503806187062418 0 -0.85716730853699208 forward_v I I I I #
loop $-1 $-1 $463 $124 #
coedge $-1 $314 $314 $315 $464 reversed $196 $-1 #
coedge $-1 $315 $315 $314 $464 forward $198 $-1 #
coedge $-1 $316 $316 $199 $317 forward $311 $-1 #
edge $-1 $465 0 $465 6.2831853071796004 $316 $466 forward 7 unknown #
face $-1 $467 $468 $65 $-1 $469 reversed single #
loop $-1 $-1 $470 $200 #
plane-surface $-1 -164.23400724259113 17.752199636928918 67.651793844328182 0 -1 0 0.83867057594974714 0 -0.54463902268945019 forward_v I I I I #
coedge $-1 $471 $472 $473 $474 reversed $201 $-1 #
coedge $-1 $323 $203 $475 $476 reversed $128 $-1 #
coedge $-1 $203 $322 $471 $477 reversed $128 $-1 #
coedge $-1 $473 $478 $203 $325 forward $479 $-1 #
edge $-1 $480 20.774799574541206 $481 23.543026883108347 $324 $482 forward 7 unknown #
loop $-1 $-1 $331 $204 #
plane-surface $-1 -61.342204046754347 11.351346527562285 0.83307772104592459 -0.83867057594974714 0 0.54463902268945019 0.54463902268945019 0 0.83867057594974714 forward_v I I I I #
loop $-1 $-1 $483 $130 #
coedge $-1 $329 $329 $330 $484 reversed $205 $-1 #
coedge $-1 $330 $330 $329 $484 forward $207 $-1 #
coedge $-1 $331 $331 $208 $332 forward $326 $-1 #
edge $-1 $485 0 $485 6.2831853071796004 $331 $486 forward 7 unknown #
loop $-1 $-1 $338 $209 #
plane-surface $-1 -61.342204046754347 11.351346527562285 0.83307772104592459 -0.83867057594974714 0 0.54463902268945019 0.54463902268945019 0 0.83867057594974714 forward_v I I I I #
loop $-1 $-1 $487 $133 #
coedge $-1 $336 $336 $337 $488 reversed $210 $-1 #
coedge $-1 $337 $337 $336 $488 forward $212 $-1 #
coedge $-1 $338 $338 $213 $339 forward $333 $-1 #
edge $-1 $489 0 $489 6.2831853071796004 $338 $490 forward 7 unknown #
face $-1 $491 $492 $51 $-1 $493 reversed single #
loop $-1 $-1 $494 $214 #
plane-surface $-1 -61.342204046754361 0 0 1 0 0 0 0 -1 forward_v I I I I #
coedge $-1 $495 $351 $496 $497 forward $215 $-1 #
coedge $-1 $498 $217 $495 $499 forward $137 $-1 #
coedge $-1 $217 $498 $500 $501 forward $137 $-1 #
coedge $-1 $354 $353 $217 $347 reversed $355 $-1 #
edge $-1 $502 -25.40908025957161 $503 25.40908025957161 $346 $504 forward 7 unknown #
coedge $-1 $219 $218 $505 $506 forward $86 $-1 #
coedge $-1 $507 $508 $218 $350 reversed $492 $-1 #
edge $-1 $357 -61.342204046754361 $509 61.342204046754361 $349 $510 forward 7 unknown #
coedge $-1 $343 $511 $219 $352 reversed $215 $-1 #
edge $-1 $512 -61.342204046754361 $356 61.342204046754361 $351 $513 forward 7 unknown #
coedge $-1 $346 $220 $511 $514 forward $355 $-1 #
coedge $-1 $220 $346 $507 $515 reversed $355 $-1 #
loop $-1 $-1 $353 $491 #
vertex $-1 $221 $516 #
vertex $-1 $221 $517 #
straight-curve $-1 61.342204046754361 0 5.0957741025345289 0 1 0 I I #
face $-1 $518 $519 $52 $-1 $520 reversed single #
loop $-1 $-1 $521 $222 #
plane-surface $-1 0 -28.660516006916762 0.81930557136958804 0 0 1 1 0 0 forward_v I I I I #
coedge $-1 $228 $522 $523 $524 forward $223 $-1 #
coedge $-1 $525 $225 $526 $527 reversed $141 $-1 #
coedge $-1 $225 $525 $369 $528 reversed $141 $-1 #
edge $-1 $370 -3.819305571369588 $529 -0.81930557136958804 $225 $530 forward 7 unknown #
coedge $-1 $227 $226 $531 $532 forward $89 $-1 #
coedge $-1 $523 $533 $226 $368 forward $534 $-1 #
edge $-1 $535 0.81930557136958804 $371 3.819305571369588 $367 $536 forward 7 unknown #
coedge $-1 $522 $228 $364 $528 forward $223 $-1 #
vertex $-1 $365 $537 #
vertex $-1 $524 $538 #
straight-curve $-1 0 -25.40908025957161 3.819305571369588 1 0 0 I I #
face $-1 $-1 $385 $53 $-1 $539 forward single #
loop $-1 $-1 $540 $230 #
plane-surface $-1 61.342204046754361 0 0 -1 0 0 0 0 1 forward_v I I I I #
coedge $-1 $541 $542 $543 $544 reversed $231 $-1 #
coedge $-1 $545 $233 $235 $383 forward $145 $-1 #
coedge $-1 $233 $545 $541 $546 forward $145 $-1 #
coedge $-1 $543 $236 $233 $380 forward $385 $-1 #
edge $-1 $387 4.6033275355098091 $547 11.069696664750932 $379 $548 forward 7 unknown #
coedge $-1 $549 $550 $234 $382 forward $374 $-1 #
edge $-1 $551 -84.114715056767636 $386 -79.137714491890094 $381 $552 forward 7 unknown #
edge $-1 $387 116.87807306963542 $551 122.68440809350872 $235 $553 forward 7 unknown #
coedge $-1 $236 $543 $549 $554 forward $385 $-1 #
loop $-1 $-1 $543 $373 #
vertex $-1 $382 $555 #
vertex $-1 $237 $556 #
straight-curve $-1 51.658064082747877 -12.43983963564018 5.0957741025345342 -1 0 0 I I #
coedge $-1 $389 $389 $-1 $557 reversed $240 $-1 #
edge $-1 $558 0 $558 6.2831853071796004 $241 $559 forward 7 unknown #
vertex $-1 $244 $560 #
ellipse-curve $-1 59.846962278120756 -17.058674727955268 2.6072738200957555 0.85716730853699208 0 0.51503806187062418 0.25751903093531209 0 -0.42858365426849604 1 I I #
coedge $-1 $393 $393 $-1 $561 reversed $247 $-1 #
edge $-1 $562 0 $562 6.2831853071796004 $248 $563 forward 7 unknown #
vertex $-1 $251 $564 #
ellipse-curve $-1 59.846962278120756 -14.287373672566215 2.6072738200957555 0.85716730853699208 0 0.51503806187062418 0.25751903093531209 0 -0.42858365426849604 1 I I #
face $-1 $-1 $409 $56 $-1 $565 forward single #
loop $-1 $-1 $566 $252 #
plane-surface $-1 61.342204046754361 0 0 -1 0 0 0 0 1 forward_v I I I I #
coedge $-1 $567 $568 $569 $570 reversed $253 $-1 #
coedge $-1 $571 $255 $257 $407 forward $159 $-1 #
coedge $-1 $255 $571 $567 $572 forward $159 $-1 #
coedge $-1 $569 $258 $255 $404 forward $409 $-1 #
edge $-1 $411 -1.7048257803588229 $573 4.7615433488823005 $403 $574 forward 7 unknown #
coedge $-1 $575 $576 $256 $406 forward $398 $-1 #
edge $-1 $577 -84.114715056767636 $410 -79.137714491890094 $405 $578 forward 7 unknown #
edge $-1 $411 116.87807306963542 $577 122.68440809350872 $257 $579 forward 7 unknown #
coedge $-1 $258 $569 $575 $580 forward $409 $-1 #
loop $-1 $-1 $569 $397 #
vertex $-1 $406 $581 #
vertex $-1 $259 $582 #
straight-curve $-1 51.658064082747877 0.17646699609708394 5.0957741025345342 -1 0 0 I I #
coedge $-1 $413 $413 $-1 $583 reversed $262 $-1 #
edge $-1 $584 0 $584 6.2831853071796004 $263 $585 forward 7 unknown #
vertex $-1 $266 $586 #
ellipse-curve $-1 59.846962278120756 -4.4423680962180043 2.6072738200957555 0.85716730853699208 0 0.51503806187062418 0.25751903093531209 0 -0.42858365426849604 1 I I #
coedge $-1 $417 $417 $-1 $587 reversed $269 $-1 #
edge $-1 $588 0 $588 6.2831853071796004 $270 $589 forward 7 unknown #
vertex $-1 $273 $590 #
ellipse-curve $-1 59.846962278120756 -1.6710670408289516 2.6072738200957555 0.85716730853699208 0 0.51503806187062418 0.25751903093531209 0 -0.42858365426849604 1 I I #
face $-1 $-1 $433 $59 $-1 $591 forward single #
loop $-1 $-1 $592 $274 #
plane-surface $-1 61.342204046754361 0 0 -1 0 0 0 0 1 forward_v I I I I #
coedge $-1 $593 $594 $595 $596 reversed $275 $-1 #
coedge $-1 $597 $277 $279 $431 forward $173 $-1 #
coedge $-1 $277 $597 $593 $598 forward $173 $-1 #
coedge $-1 $595 $280 $277 $428 forward $433 $-1 #
edge $-1 $435 -8.0129790962274541 $599 -1.5466099669863311 $427 $600 forward 7 unknown #
coedge $-1 $601 $602 $278 $430 forward $422 $-1 #
edge $-1 $603 -84.114715056767636 $434 -79.137714491890094 $429 $604 forward 7 unknown #
edge $-1 $435 116.87807306963542 $603 122.68440809350872 $279 $605 forward 7 unknown #
coedge $-1 $280 $595 $601 $606 forward $433 $-1 #
loop $-1 $-1 $595 $421 #
vertex $-1 $430 $607 #
vertex $-1 $281 $608 #
straight-curve $-1 51.658064082747877 12.792773627834347 5.0957741025345342 -1 0 0 I I #
coedge $-1 $437 $437 $-1 $609 reversed $284 $-1 #
edge $-1 $610 0 $610 6.2831853071796004 $285 $611 forward 7 unknown #
vertex $-1 $288 $612 #
ellipse-curve $-1 59.846962278120756 8.1739385355192553 2.6072738200957555 0.85716730853699208 0 0.51503806187062418 0.25751903093531209 0 -0.42858365426849604 1 I I #
coedge $-1 $441 $441 $-1 $613 reversed $291 $-1 #
edge $-1 $614 0 $614 6.2831853071796004 $292 $615 forward 7 unknown #
vertex $-1 $295 $616 #
ellipse-curve $-1 59.846962278120756 10.945239590908315 2.6072738200957555 0.85716730853699208 0 0.51503806187062418 0.25751903093531209 0 -0.42858365426849604 1 I I #
face $-1 $-1 $617 $62 $-1 $618 reversed single #
loop $-1 $-1 $452 $296 #
plane-surface $-1 0 0 5.0957741025345289 0 0 1 1 0 0 forward_v I I I I #
coedge $-1 $619 $299 $301 $454 forward $187 $-1 #
coedge $-1 $299 $619 $620 $621 reversed $187 $-1 #
coedge $-1 $622 $302 $299 $451 forward $297 $-1 #
edge $-1 $457 7.8547632828549645 $623 14.321132412096084 $450 $624 forward 7 unknown #
coedge $-1 $625 $626 $300 $453 forward $446 $-1 #
edge $-1 $627 6.6936564267392598 $456 9.6841399640064836 $452 $628 forward 7 unknown #
edge $-1 $457 -122.68440809350872 $627 -116.87807306963542 $301 $629 forward 7 unknown #
coedge $-1 $302 $622 $625 $630 reversed $297 $-1 #
vertex $-1 $630 $631 #
vertex $-1 $303 $632 #
straight-curve $-1 61.342204046754361 18.94271113033049 84.233488594424628 0 0 -1 I I #
coedge $-1 $459 $459 $-1 $633 reversed $306 $-1 #
edge $-1 $634 0 $634 6.2831853071796004 $307 $635 forward 7 unknown #
vertex $-1 $310 $636 #
ellipse-curve $-1 59.846962278120756 20.790245167256515 2.6072738200957555 0.85716730853699208 0 0.51503806187062418 0.25751903093531209 0 -0.42858365426849604 1 I I #
coedge $-1 $463 $463 $-1 $637 reversed $313 $-1 #
edge $-1 $638 0 $638 6.2831853071796004 $314 $639 forward 7 unknown #
vertex $-1 $317 $640 #
ellipse-curve $-1 59.846962278120756 23.561546222645575 2.6072738200957555 0.85716730853699208 0 0.51503806187062418 0.25751903093531209 0 -0.42858365426849604 1 I I #
face $-1 $-1 $479 $65 $-1 $641 forward single #
loop $-1 $-1 $642 $318 #
plane-surface $-1 -61.342204046754361 0 0 1 0 0 0 0 -1 forward_v I I I I #
coedge $-1 $643 $644 $645 $646 reversed $319 $-1 #
coedge $-1 $647 $321 $323 $477 forward $201 $-1 #
coedge $-1 $321 $647 $643 $648 forward $201 $-1 #
coedge $-1 $645 $324 $321 $474 forward $479 $-1 #
edge $-1 $481 -0.72517984558549031 $649 12.076526373147775 $473 $650 forward 7 unknown #
coedge $-1 $651 $652 $322 $476 forward $468 $-1 #
edge $-1 $653 -32.992819201118188 $480 -28.730122819629564 $475 $654 forward 7 unknown #
edge $-1 $481 -5.0826826452821976 $653 2.6082680278521875e-014 $323 $655 forward 7 unknown #
coedge $-1 $324 $645 $651 $656 forward $479 $-1 #
loop $-1 $-1 $645 $467 #
vertex $-1 $476 $657 #
vertex $-1 $325 $658 #
straight-curve $-1 -82.117003621295567 4.9504934181956521 5.0957741025345271 1 0 0 I I #
coedge $-1 $483 $483 $-1 $659 reversed $328 $-1 #
edge $-1 $660 0 $660 6.2831853071796004 $329 $661 forward 7 unknown #
vertex $-1 $332 $662 #
ellipse-curve $-1 -59.958090392470787 8.6081237664051571 2.9644259117902236 -0.83867057594974714 0 0.54463902268945019 0.54463902268945019 0 0.83867057594974714 1 I I #
coedge $-1 $487 $487 $-1 $663 reversed $335 $-1 #
edge $-1 $664 0 $664 6.2831853071796004 $336 $665 forward 7 unknown #
vertex $-1 $339 $666 #
ellipse-curve $-1 -59.958090392470787 14.094569288719413 2.9644259117902236 -0.83867057594974714 0 0.54463902268945019 0.54463902268945019 0 0.83867057594974714 1 I I #
face $-1 $-1 $355 $51 $-1 $667 reversed single #
loop $-1 $-1 $507 $340 #
plane-surface $-1 0 25.40908025957161 0 0 -1 0 0 0 -1 forward_v I I I I #
coedge $-1 $668 $505 $508 $669 forward $341 $-1 #
coedge $-1 $511 $343 $344 $499 reversed $215 $-1 #
coedge $-1 $505 $668 $343 $497 reversed $341 $-1 #
edge $-1 $512 -5.0957741025345289 $670 5.0957741025345289 $496 $671 forward 7 unknown #
coedge $-1 $345 $344 $668 $672 forward $137 $-1 #
edge $-1 $503 -61.342204046754361 $670 61.342204046754361 $495 $673 forward 7 unknown #
coedge $-1 $508 $507 $345 $501 reversed $492 $-1 #
edge $-1 $674 -61.342204046754361 $502 61.342204046754361 $500 $675 forward 7 unknown #
vertex $-1 $347 $676 #
vertex $-1 $514 $677 #
straight-curve $-1 61.342204046754361 0 -5.0957741025345289 0 -1 0 I I #
coedge $-1 $494 $496 $348 $506 reversed $341 $-1 #
edge $-1 $509 -25.40908025957161 $512 25.40908025957161 $505 $678 forward 7 unknown #
coedge $-1 $500 $349 $354 $515 forward $492 $-1 #
coedge $-1 $349 $500 $494 $669 reversed $492 $-1 #
vertex $-1 $350 $679 #
straight-curve $-1 0 25.40908025957161 5.0957741025345289 -1 0 0 I I #
coedge $-1 $351 $495 $353 $514 reversed $215 $-1 #
vertex $-1 $506 $680 #
straight-curve $-1 0 -25.40908025957161 5.0957741025345289 1 0 0 I I #
edge $-1 $356 -5.0957741025345289 $503 5.0957741025345289 $353 $681 forward 7 unknown #
edge $-1 $357 -5.0957741025345289 $502 5.0957741025345289 $354 $682 forward 7 unknown #
point $-1 61.342204046754361 -25.40908025957161 5.0957741025345289 #
point $-1 61.342204046754361 25.40908025957161 5.0957741025345289 #
face $-1 $-1 $534 $52 $-1 $683 reversed single #
loop $-1 $-1 $684 $359 #
plane-surface $-1 0 -31.911951754261914 2.319305571369588 0 1 0 0 0 1 forward_v I I I I #
coedge $-1 $685 $531 $533 $686 forward $360 $-1 #
coedge $-1 $362 $369 $687 $688 forward $223 $-1 #
coedge $-1 $689 $367 $362 $524 reversed $534 $-1 #
edge $-1 $690 -3.2514357473451518 $371 3.2514357473451518 $523 $691 forward 7 unknown #
coedge $-1 $364 $363 $684 $692 reversed $141 $-1 #
coedge $-1 $531 $685 $363 $527 forward $360 $-1 #
edge $-1 $693 -3.2514357473451518 $529 3.2514357473451518 $363 $694 forward 7 unknown #
edge $-1 $370 -3.2514357473451518 $695 3.2514357473451518 $364 $696 forward 7 unknown #
vertex $-1 $365 $697 #
straight-curve $-1 -61.342204046754361 -25.40908025957161 0 0 0 -1 I I #
coedge $-1 $521 $526 $366 $532 reversed $360 $-1 #
edge $-1 $535 -61.342204046754361 $529 61.342204046754361 $531 $698 forward 7 unknown #
coedge $-1 $367 $689 $521 $686 reversed $534 $-1 #
loop $-1 $-1 $367 $518 #
vertex $-1 $368 $699 #
straight-curve $-1 61.342204046754361 -25.40908025957161 0 0 0 1 I I #
point $-1 -61.342204046754361 -25.40908025957161 3.819305571369588 #
point $-1 61.342204046754361 -25.40908025957161 3.819305571369588 #
plane-surface $-1 0 0 5.0957741025345289 0 0 1 1 0 0 forward_v I I I I #
coedge $-1 $550 $549 $542 $700 forward $374 $-1 #
coedge $-1 $542 $376 $378 $546 reversed $231 $-1 #
coedge $-1 $376 $541 $540 $700 reversed $231 $-1 #
coedge $-1 $384 $379 $376 $544 forward $385 $-1 #
edge $-1 $547 6.6936564267392598 $701 9.6841399640064836 $543 $702 forward 7 unknown #
coedge $-1 $378 $377 $550 $703 reversed $145 $-1 #
edge $-1 $704 -122.68440809350872 $547 -116.87807306963542 $541 $705 forward 7 unknown #
vertex $-1 $380 $706 #
straight-curve $-1 58.35172050948713 -7.8365121001303706 5.09577410253452 0 -1 0 I I #
coedge $-1 $540 $381 $384 $554 reversed $374 $-1 #
coedge $-1 $381 $540 $545 $703 forward $374 $-1 #
vertex $-1 $382 $707 #
straight-curve $-1 61.342204046754361 -12.43983963564018 84.233488594424628 0 0 1 I I #
straight-curve $-1 -1.8449357194710814 -12.43983963564018 105.27983742262381 0.51503806187062418 0 -0.85716730853699208 I I #
edge $-1 $701 -18.906208764881303 $386 -12.43983963564018 $549 $708 forward 7 unknown #
point $-1 61.342204046754361 -12.43983963564018 5.0957741025345289 #
point $-1 58.351720509487137 -12.43983963564018 5.0957741025345342 #
edge $-1 $709 1 $709 0 $389 $-1 forward 7 unknown #
vertex $-1 $390 $710 #
ellipse-curve $-1 58.530944810112558 -17.058674727955268 1.8165307768645651 0.85716730853699208 0 0.51503806187062418 0.25751903093531209 0 -0.42858365426849604 1 I I #
point $-1 60.104481309056069 -17.058674727955268 2.1786901658272595 #
edge $-1 $711 1 $711 0 $393 $-1 forward 7 unknown #
vertex $-1 $394 $712 #
ellipse-curve $-1 58.530944810112558 -14.287373672566215 1.8165307768645651 0.85716730853699208 0 0.51503806187062418 0.25751903093531209 0 -0.42858365426849604 1 I I #
point $-1 60.104481309056069 -14.287373672566215 2.1786901658272595 #
plane-surface $-1 0 0 5.0957741025345289 0 0 1 1 0 0 forward_v I I I I #
coedge $-1 $576 $575 $568 $713 forward $398 $-1 #
coedge $-1 $568 $400 $402 $572 reversed $253 $-1 #
coedge $-1 $400 $567 $566 $713 reversed $253 $-1 #
coedge $-1 $408 $403 $400 $570 forward $409 $-1 #
edge $-1 $573 6.6936564267392598 $714 9.6841399640064836 $569 $715 forward 7 unknown #
coedge $-1 $402 $401 $576 $716 reversed $159 $-1 #
edge $-1 $717 -122.68440809350872 $573 -116.87807306963542 $567 $718 forward 7 unknown #
vertex $-1 $404 $719 #
straight-curve $-1 58.35172050948713 -1.528358784261739 5.09577410253452 0 -1 0 I I #
coedge $-1 $566 $405 $408 $580 reversed $398 $-1 #
coedge $-1 $405 $566 $571 $716 forward $398 $-1 #
vertex $-1 $406 $720 #
straight-curve $-1 61.342204046754361 0.17646699609708394 84.233488594424628 0 0 1 I I #
straight-curve $-1 -1.8449357194710814 0.17646699609708394 105.27983742262381 0.51503806187062418 0 -0.85716730853699208 I I #
edge $-1 $714 -6.2899021331440395 $410 0.17646699609708394 $575 $721 forward 7 unknown #
point $-1 61.342204046754361 0.17646699609708394 5.0957741025345289 #
point $-1 58.351720509487137 0.17646699609708394 5.0957741025345342 #
edge $-1 $722 1 $722 0 $413 $-1 forward 7 unknown #
vertex $-1 $414 $723 #
ellipse-curve $-1 58.530944810112558 -4.4423680962180043 1.8165307768645651 0.85716730853699208 0 0.51503806187062418 0.25751903093531209 0 -0.42858365426849604 1 I I #
point $-1 60.104481309056069 -4.4423680962180043 2.1786901658272595 #
edge $-1 $724 1 $724 0 $417 $-1 forward 7 unknown #
vertex $-1 $418 $725 #
ellipse-curve $-1 58.530944810112558 -1.6710670408289516 1.8165307768645651 0.85716730853699208 0 0.51503806187062418 0.25751903093531209 0 -0.42858365426849604 1 I I #
point $-1 60.104481309056069 -1.6710670408289516 2.1786901658272595 #
plane-surface $-1 0 0 5.0957741025345289 0 0 1 1 0 0 forward_v I I I I #
coedge $-1 $602 $601 $594 $726 forward $422 $-1 #
coedge $-1 $594 $424 $426 $598 reversed $275 $-1 #
coedge $-1 $424 $593 $592 $726 reversed $275 $-1 #
coedge $-1 $432 $427 $424 $596 forward $433 $-1 #
edge $-1 $599 6.6936564267392598 $727 9.6841399640064836 $595 $728 forward 7 unknown #
coedge $-1 $426 $425 $602 $729 reversed $173 $-1 #
edge $-1 $730 -122.68440809350872 $599 -116.87807306963542 $593 $731 forward 7 unknown #
vertex $-1 $428 $732 #
straight-curve $-1 58.35172050948713 4.7797945316068926 5.09577410253452 0 -1 0 I I #
coedge $-1 $592 $429 $432 $606 reversed $422 $-1 #
coedge $-1 $429 $592 $597 $729 forward $422 $-1 #
vertex $-1 $430 $733 #
straight-curve $-1 61.342204046754361 12.792773627834347 84.233488594424628 0 0 1 I I #
straight-curve $-1 -1.8449357194710814 12.792773627834347 105.27983742262381 0.51503806187062418 0 -0.85716730853699208 I I #
edge $-1 $727 6.3264044985932237 $434 12.792773627834347 $601 $734 forward 7 unknown #
point $-1 61.342204046754361 12.792773627834347 5.0957741025345289 #
point $-1 58.351720509487137 12.792773627834347 5.0957741025345342 #
edge $-1 $735 1 $735 0 $437 $-1 forward 7 unknown #
vertex $-1 $438 $736 #
ellipse-curve $-1 58.530944810112558 8.1739385355192553 1.8165307768645651 0.85716730853699208 0 0.51503806187062418 0.25751903093531209 0 -0.42858365426849604 1 I I #
point $-1 60.104481309056069 8.1739385355192553 2.1786901658272595 #
edge $-1 $737 1 $737 0 $441 $-1 forward 7 unknown #
vertex $-1 $442 $738 #
ellipse-curve $-1 58.530944810112558 10.945239590908315 1.8165307768645651 0.85716730853699208 0 0.51503806187062418 0.25751903093531209 0 -0.42858365426849604 1 I I #
point $-1 60.104481309056069 10.945239590908315 2.1786901658272595 #
loop $-1 $-1 $620 $445 #
plane-surface $-1 0 25.40908025957161 0 0 -1 0 0 0 -1 forward_v I I I I #
coedge $-1 $449 $448 $626 $739 reversed $187 $-1 #
coedge $-1 $740 $741 $449 $621 forward $617 $-1 #
edge $-1 $623 -77.08808459151129 $742 -71.281749567637988 $620 $743 forward 7 unknown #
coedge $-1 $455 $450 $741 $744 reversed $297 $-1 #
vertex $-1 $451 $745 #
straight-curve $-1 61.342204046754361 11.087947847475526 0.11877353765698473 0 1 0 I I #
coedge $-1 $746 $452 $455 $630 forward $446 $-1 #
coedge $-1 $452 $746 $619 $739 forward $446 $-1 #
vertex $-1 $453 $747 #
straight-curve $-1 51.658064082747877 18.94271113033049 5.0957741025345342 1 0 0 I I #
straight-curve $-1 -1.8449357194710814 18.94271113033049 105.27983742262381 -0.51503806187062418 0 0.85716730853699208 I I #
edge $-1 $456 18.94271113033049 $748 25.40908025957161 $455 $749 forward 7 unknown #
point $-1 61.342204046754361 18.94271113033049 5.0957741025345289 #
point $-1 61.342204046754361 18.94271113033049 0.11877353765699183 #
edge $-1 $750 1 $750 0 $459 $-1 forward 7 unknown #
vertex $-1 $460 $751 #
ellipse-curve $-1 58.530944810112558 20.790245167256515 1.8165307768645651 0.85716730853699208 0 0.51503806187062418 0.25751903093531209 0 -0.42858365426849604 1 I I #
point $-1 60.104481309056069 20.790245167256515 2.1786901658272595 #
edge $-1 $752 1 $752 0 $463 $-1 forward 7 unknown #
vertex $-1 $464 $753 #
ellipse-curve $-1 58.530944810112558 23.561546222645575 1.8165307768645651 0.85716730853699208 0 0.51503806187062418 0.25751903093531209 0 -0.42858365426849604 1 I I #
point $-1 60.104481309056069 23.561546222645575 2.1786901658272595 #
plane-surface $-1 0 0 5.0957741025345289 0 0 1 1 0 0 forward_v I I I I #
coedge $-1 $652 $651 $644 $754 forward $468 $-1 #
coedge $-1 $644 $470 $472 $648 reversed $319 $-1 #
coedge $-1 $470 $643 $642 $754 reversed $319 $-1 #
coedge $-1 $478 $473 $470 $646 forward $479 $-1 #
edge $-1 $649 -23.543026883108347 $755 -20.774799574541206 $645 $756 forward 7 unknown #
coedge $-1 $472 $471 $652 $757 reversed $201 $-1 #
edge $-1 $758 -2.6082680278521875e-014 $649 5.0826826452821976 $643 $759 forward 7 unknown #
vertex $-1 $474 $760 #
straight-curve $-1 -58.573976738187227 5.6756732637811425 5.0957741025345271 0 1 0 I I #
coedge $-1 $642 $475 $478 $656 reversed $468 $-1 #
coedge $-1 $475 $642 $647 $757 forward $468 $-1 #
vertex $-1 $476 $761 #
straight-curve $-1 -61.342204046754361 4.9504934181956521 33.825896922164091 0 0 1 I I #
straight-curve $-1 -61.342204046754347 4.9504934181956521 0.83307772104592459 -0.54463902268945019 0 -0.83867057594974714 I I #
edge $-1 $755 -17.752199636928918 $480 -4.9504934181956521 $651 $762 forward 7 unknown #
point $-1 -61.342204046754361 4.9504934181956521 5.0957741025345289 #
point $-1 -58.57397673818722 4.9504934181956521 5.0957741025345289 #
edge $-1 $763 1 $763 0 $483 $-1 forward 7 unknown #
vertex $-1 $484 $764 #
ellipse-curve $-1 -58.610950024907005 8.6081237664051571 2.0895827561393103 -0.83867057594974714 0 0.54463902268945019 0.54463902268945019 0 0.83867057594974714 1 I I #
point $-1 -59.413451369781356 8.6081237664051571 3.8030964877399818 #
edge $-1 $765 1 $765 0 $487 $-1 forward 7 unknown #
vertex $-1 $488 $766 #
ellipse-curve $-1 -58.610950024907005 14.094569288719413 2.0895827561393103 -0.83867057594974714 0 0.54463902268945019 0.54463902268945019 0 0.83867057594974714 1 I I #
point $-1 -59.413451369781356 14.094569288719413 3.8030964877399818 #
plane-surface $-1 61.342204046754361 0 0 -1 0 0 0 0 1 forward_v I I I I #
coedge $-1 $496 $494 $498 $672 reversed $341 $-1 #
edge $-1 $509 -5.0957741025345289 $674 5.0957741025345289 $508 $767 forward 7 unknown #
vertex $-1 $672 $768 #
straight-curve $-1 -61.342204046754361 -25.40908025957161 0 0 0 -1 I I #
edge $-1 $670 -25.40908025957161 $674 25.40908025957161 $668 $769 forward 7 unknown #
straight-curve $-1 0 -25.40908025957161 -5.0957741025345289 -1 0 0 I I #
vertex $-1 $501 $770 #
straight-curve $-1 0 25.40908025957161 -5.0957741025345289 1 0 0 I I #
point $-1 61.342204046754361 25.40908025957161 -5.0957741025345289 #
point $-1 61.342204046754361 -25.40908025957161 -5.0957741025345289 #
straight-curve $-1 -61.342204046754361 0 5.0957741025345289 0 -1 0 I I #
point $-1 -61.342204046754361 25.40908025957161 5.0957741025345289 #
point $-1 -61.342204046754361 -25.40908025957161 5.0957741025345289 #
straight-curve $-1 61.342204046754361 -25.40908025957161 0 0 0 -1 I I #
straight-curve $-1 61.342204046754361 25.40908025957161 0 0 0 -1 I I #
plane-surface $-1 61.342204046754361 0 0 -1 0 0 0 0 1 forward_v I I I I #
coedge $-1 $771 $687 $525 $692 forward $519 $-1 #
coedge $-1 $526 $521 $771 $772 forward $360 $-1 #
edge $-1 $535 -3.2514357473451518 $773 3.2514357473451518 $533 $774 forward 7 unknown #
coedge $-1 $684 $775 $522 $688 reversed $519 $-1 #
edge $-1 $695 -61.342204046754361 $690 61.342204046754361 $687 $776 forward 7 unknown #
coedge $-1 $533 $523 $775 $777 forward $534 $-1 #
vertex $-1 $524 $778 #
straight-curve $-1 61.342204046754361 -28.660516006916762 3.819305571369588 0 1 0 I I #
edge $-1 $695 -1.5 $693 1.5 $525 $779 forward 7 unknown #
vertex $-1 $527 $780 #
straight-curve $-1 -61.342204046754361 -28.660516006916762 0.81930557136958804 0 1 0 I I #
vertex $-1 $528 $781 #
straight-curve $-1 -61.342204046754361 -28.660516006916762 3.819305571369588 0 -1 0 I I #
point $-1 -61.342204046754361 -25.40908025957161 0.81930557136958804 #
straight-curve $-1 0 -25.40908025957161 0.81930557136958804 -1 0 0 I I #
point $-1 61.342204046754361 -25.40908025957161 0.81930557136958804 #
edge $-1 $701 79.137714491890094 $704 84.114715056767636 $540 $782 forward 7 unknown #
vertex $-1 $554 $783 #
straight-curve $-1 51.658064082747877 -18.906208764881303 5.0957741025345342 1 0 0 I I #
edge $-1 $704 -11.069696664750932 $551 -4.6033275355098091 $550 $784 forward 7 unknown #
vertex $-1 $703 $785 #
straight-curve $-1 -1.8449357194710814 -18.906208764881303 105.27983742262381 -0.51503806187062418 0 0.85716730853699208 I I #
point $-1 58.351720509487137 -18.906208764881303 5.0957741025345342 #
point $-1 61.342204046754361 -12.43983963564018 0.11877353765699183 #
straight-curve $-1 61.342204046754361 0 5.0957741025345289 0 1 0 I I #
vertex $-1 $557 $786 #
point $-1 58.788463841047871 -17.058674727955268 1.3879471225960691 #
vertex $-1 $561 $787 #
point $-1 58.788463841047871 -14.287373672566215 1.3879471225960691 #
edge $-1 $714 79.137714491890094 $717 84.114715056767636 $566 $788 forward 7 unknown #
vertex $-1 $580 $789 #
straight-curve $-1 51.658064082747877 -6.2899021331440395 5.0957741025345342 1 0 0 I I #
edge $-1 $717 -4.7615433488823005 $577 1.7048257803588229 $576 $790 forward 7 unknown #
vertex $-1 $716 $791 #
straight-curve $-1 -1.8449357194710814 -6.2899021331440395 105.27983742262381 -0.51503806187062418 0 0.85716730853699208 I I #
point $-1 58.351720509487137 -6.2899021331440395 5.0957741025345342 #
point $-1 61.342204046754361 0.17646699609708394 0.11877353765699183 #
straight-curve $-1 61.342204046754361 0 5.0957741025345289 0 1 0 I I #
vertex $-1 $583 $792 #
point $-1 58.788463841047871 -4.4423680962180043 1.3879471225960691 #
vertex $-1 $587 $793 #
point $-1 58.788463841047871 -1.6710670408289516 1.3879471225960691 #
edge $-1 $727 79.137714491890094 $730 84.114715056767636 $592 $794 forward 7 unknown #
vertex $-1 $606 $795 #
straight-curve $-1 51.658064082747877 6.3264044985932237 5.0957741025345342 1 0 0 I I #
edge $-1 $730 1.5466099669863311 $603 8.0129790962274541 $602 $796 forward 7 unknown #
vertex $-1 $729 $797 #
straight-curve $-1 -1.8449357194710814 6.3264044985932237 105.27983742262381 -0.51503806187062418 0 0.85716730853699208 I I #
point $-1 58.351720509487137 6.3264044985932237 5.0957741025345342 #
point $-1 61.342204046754361 12.792773627834347 0.11877353765699183 #
straight-curve $-1 61.342204046754361 0 5.0957741025345289 0 1 0 I I #
vertex $-1 $609 $798 #
point $-1 58.788463841047871 8.1739385355192553 1.3879471225960691 #
vertex $-1 $613 $799 #
point $-1 58.788463841047871 10.945239590908315 1.3879471225960691 #
edge $-1 $742 -14.321132412096087 $627 -7.8547632828549645 $626 $800 forward 7 unknown #
coedge $-1 $741 $620 $746 $801 reversed $617 $-1 #
coedge $-1 $620 $740 $622 $744 forward $617 $-1 #
vertex $-1 $621 $802 #
straight-curve $-1 21.638906365423654 25.40908025957161 66.196159527234684 -0.51503806187062429 0 0.85716730853699219 I I #
edge $-1 $748 -5.0957741025345289 $623 -0.1187735376569848 $622 $803 forward 7 unknown #
point $-1 61.342204046754361 25.40908025957161 0.1187735376569848 #
coedge $-1 $626 $625 $740 $801 forward $446 $-1 #
point $-1 58.351720509487137 18.94271113033049 5.0957741025345342 #
vertex $-1 $630 $804 #
straight-curve $-1 61.342204046754361 0 5.0957741025345289 0 1 0 I I #
vertex $-1 $633 $805 #
point $-1 58.788463841047871 20.790245167256515 1.3879471225960691 #
vertex $-1 $637 $806 #
point $-1 58.788463841047871 23.561546222645575 1.3879471225960691 #
edge $-1 $755 28.730122819629564 $758 32.992819201118188 $642 $807 forward 7 unknown #
vertex $-1 $656 $808 #
straight-curve $-1 -82.117003621295567 17.752199636928918 5.0957741025345271 -1 0 0 I I #
edge $-1 $758 -12.076526373147775 $653 0.72517984558549031 $652 $809 forward 7 unknown #
vertex $-1 $757 $810 #
straight-curve $-1 -61.342204046754347 17.752199636928918 0.83307772104592459 0.54463902268945019 0 0.83867057594974714 I I #
point $-1 -58.57397673818722 17.752199636928918 5.0957741025345289 #
point $-1 -61.342204046754361 4.9504934181956521 0.83307772104590272 #
straight-curve $-1 -61.342204046754361 0 5.0957741025345289 0 -1 0 I I #
vertex $-1 $659 $811 #
point $-1 -58.066311002217553 8.6081237664051571 2.9282533320890574 #
vertex $-1 $663 $812 #
point $-1 -58.066311002217553 14.094569288719413 2.9282533320890574 #
straight-curve $-1 -61.342204046754361 25.40908025957161 0 0 0 -1 I I #
point $-1 -61.342204046754361 -25.40908025957161 -5.0957741025345289 #
straight-curve $-1 -61.342204046754361 0 -5.0957741025345289 0 1 0 I I #
point $-1 -61.342204046754361 25.40908025957161 -5.0957741025345289 #
coedge $-1 $775 $684 $685 $772 reversed $519 $-1 #
edge $-1 $773 -61.342204046754361 $693 61.342204046754361 $771 $813 forward 7 unknown #
vertex $-1 $777 $814 #
straight-curve $-1 61.342204046754361 -28.660516006916762 0.81930557136958804 0 -1 0 I I #
coedge $-1 $687 $771 $689 $777 reversed $519 $-1 #
straight-curve $-1 0 -31.911951754261914 3.819305571369588 1 0 0 I I #
edge $-1 $690 -1.5 $773 1.5 $689 $815 forward 7 unknown #
point $-1 61.342204046754361 -31.911951754261914 3.819305571369588 #
straight-curve $-1 -61.342204046754361 -31.911951754261914 2.319305571369588 0 0 -1 I I #
point $-1 -61.342204046754361 -31.911951754261914 0.81930557136958804 #
point $-1 -61.342204046754361 -31.911951754261914 3.819305571369588 #
straight-curve $-1 61.342204046754361 -18.906208764881303 84.233488594424628 0 0 -1 I I #
point $-1 61.342204046754361 -18.906208764881303 5.0957741025345289 #
straight-curve $-1 61.342204046754361 -7.8365121001303706 0.11877353765698473 0 1 0 I I #
point $-1 61.342204046754361 -18.906208764881303 0.11877353765699183 #
point $-1 58.102361155844065 -17.058674727955268 1.5590117459292532 #
point $-1 58.102361155844065 -14.287373672566215 1.5590117459292532 #
straight-curve $-1 61.342204046754361 -6.2899021331440395 84.233488594424628 0 0 -1 I I #
point $-1 61.342204046754361 -6.2899021331440395 5.0957741025345289 #
straight-curve $-1 61.342204046754361 -1.528358784261739 0.11877353765698473 0 1 0 I I #
point $-1 61.342204046754361 -6.2899021331440395 0.11877353765699183 #
point $-1 58.102361155844065 -4.4423680962180043 1.5590117459292532 #
point $-1 58.102361155844065 -1.6710670408289516 1.5590117459292532 #
straight-curve $-1 61.342204046754361 6.3264044985932237 84.233488594424628 0 0 -1 I I #
point $-1 61.342204046754361 6.3264044985932237 5.0957741025345289 #
straight-curve $-1 61.342204046754361 4.7797945316068926 0.11877353765698473 0 1 0 I I #
point $-1 61.342204046754361 6.3264044985932237 0.11877353765699183 #
point $-1 58.102361155844065 8.1739385355192553 1.5590117459292532 #
point $-1 58.102361155844065 10.945239590908315 1.5590117459292532 #
straight-curve $-1 58.35172050948713 11.087947847475526 5.09577410253452 0 -1 0 I I #
edge $-1 $748 -61.342204046754361 $742 -58.351720509487137 $740 $816 forward 7 unknown #
point $-1 58.351720509487137 25.409080259571613 5.0957741025345342 #
straight-curve $-1 61.342204046754361 25.40908025957161 0 0 0 -1 I I #
point $-1 61.342204046754361 25.40908025957161 5.0957741025345289 #
point $-1 58.102361155844065 20.790245167256515 1.5590117459292532 #
point $-1 58.102361155844065 23.561546222645575 1.5590117459292532 #
straight-curve $-1 -61.342204046754361 17.752199636928918 33.825896922164091 0 0 -1 I I #
point $-1 -61.342204046754361 17.752199636928918 5.0957741025345289 #
straight-curve $-1 -61.342204046754361 5.6756732637811425 0.83307772104590072 0 -1 0 I I #
point $-1 -61.342204046754361 17.752199636928918 0.83307772104590272 #
point $-1 -57.772279448957256 8.6081237664051571 1.5449437334498599 #
point $-1 -57.772279448957256 14.094569288719413 1.5449437334498599 #
straight-curve $-1 0 -31.911951754261914 0.81930557136958804 -1 0 0 I I #
point $-1 61.342204046754361 -31.911951754261914 0.81930557136958804 #
straight-curve $-1 61.342204046754361 -31.911951754261914 2.319305571369588 0 0 -1 I I #
straight-curve $-1 0 25.40908025957161 5.0957741025345289 -1 0 0 I I #
End-of-ACIS-data 