500 0 12 0           
7 Unknown 11 ACIS 5.0 NT 24 Thu Mar 25 22:47:58 1999 
-1 9.9999999999999995e-007 1e-010 
body $-1 $12 $-1 $13 #
body $-1 $14 $-1 $15 #
body $-1 $16 $-1 $17 #
body $-1 $18 $-1 $19 #
body $-1 $20 $-1 $21 #
body $-1 $22 $-1 $23 #
body $-1 $24 $-1 $25 #
body $-1 $26 $-1 $27 #
body $-1 $28 $-1 $29 #
body $-1 $30 $-1 $31 #
body $-1 $32 $-1 $33 #
body $-1 $34 $-1 $35 #
lump $-1 $-1 $36 $0 #
transform $-1 1 0 0 0 1 0 0 0 1 62.995086519974365 33.151483899445601 13.207578704700541 1 rotate no_reflect no_shear #
lump $-1 $-1 $37 $1 #
transform $-1 1 0 0 0 1 0 0 0 1 62.995086519974365 33.151483899445601 13.207578704700541 1 rotate no_reflect no_shear #
lump $-1 $-1 $38 $2 #
transform $-1 1 0 0 0 1 0 0 0 1 62.995086519974365 33.151483899445601 13.207578704700541 1 rotate no_reflect no_shear #
lump $-1 $-1 $39 $3 #
transform $-1 1 0 0 0 1 0 0 0 1 62.995086519974365 33.151483899445601 13.207578704700541 1 rotate no_reflect no_shear #
lump $-1 $-1 $40 $4 #
transform $-1 1 0 0 0 1 0 0 0 1 62.995086519974365 33.151483899445601 13.207578704700541 1 rotate no_reflect no_shear #
lump $-1 $-1 $41 $5 #
transform $-1 1 0 0 0 1 0 0 0 1 62.995086519974365 33.151483899445601 13.207578704700541 1 rotate no_reflect no_shear #
lump $-1 $-1 $42 $6 #
transform $-1 1 0 0 0 1 0 0 0 1 62.995086519974365 33.151483899445601 13.207578704700541 1 rotate no_reflect no_shear #
lump $-1 $-1 $43 $7 #
transform $-1 1 0 0 0 1 0 0 0 1 62.995086519974365 33.151483899445601 13.207578704700541 1 rotate no_reflect no_shear #
lump $-1 $-1 $44 $8 #
transform $-1 1 0 0 0 1 0 0 0 1 62.995086519974365 33.151483899445601 13.207578704700541 1 rotate no_reflect no_shear #
lump $-1 $-1 $45 $9 #
transform $-1 1 0 0 0 1 0 0 0 1 62.995086519974365 33.151483899445601 13.207578704700541 1 rotate no_reflect no_shear #
lump $-1 $-1 $46 $10 #
transform $-1 1 0 0 0 1 0 0 0 1 62.995086519974365 33.151483899445601 13.207578704700541 1 rotate no_reflect no_shear #
lump $-1 $-1 $47 $11 #
transform $-1 1 0 0 0 1 0 0 0 1 62.995086519974365 33.151483899445601 13.207578704700541 1 rotate no_reflect no_shear #
shell $-1 $-1 $-1 $48 $-1 $12 #
shell $-1 $-1 $-1 $49 $-1 $14 #
shell $-1 $-1 $-1 $50 $-1 $16 #
shell $-1 $-1 $-1 $51 $-1 $18 #
shell $-1 $-1 $-1 $52 $-1 $20 #
shell $-1 $-1 $-1 $53 $-1 $22 #
shell $-1 $-1 $-1 $54 $-1 $24 #
shell $-1 $-1 $-1 $55 $-1 $26 #
shell $-1 $-1 $-1 $56 $-1 $28 #
shell $-1 $-1 $-1 $57 $-1 $30 #
shell $-1 $-1 $-1 $58 $-1 $32 #
shell $-1 $-1 $-1 $59 $-1 $34 #
face $-1 $60 $61 $36 $-1 $62 forward single #
face $-1 $63 $64 $37 $-1 $65 forward single #
face $-1 $66 $67 $38 $-1 $68 reversed single #
face $-1 $69 $70 $39 $-1 $71 forward single #
face $-1 $72 $73 $40 $-1 $74 forward single #
face $-1 $75 $76 $41 $-1 $77 reversed single #
face $-1 $78 $79 $42 $-1 $80 forward single #
face $-1 $81 $82 $43 $-1 $83 forward single #
face $-1 $84 $85 $44 $-1 $86 reversed single #
face $-1 $87 $88 $45 $-1 $89 forward single #
face $-1 $90 $91 $46 $-1 $92 forward single #
face $-1 $93 $94 $47 $-1 $95 forward single #
face $-1 $96 $97 $36 $-1 $98 reversed single #
loop $-1 $-1 $99 $48 #
plane-surface $-1 0 0 13.207578704700541 0 0 1 1 0 0 forward_v I I I I #
face $-1 $100 $101 $37 $-1 $102 reversed single #
loop $-1 $-1 $103 $49 #
plane-surface $-1 0 -33.151483899445601 0 0 1 0 0 0 1 forward_v I I I I #
face $-1 $104 $105 $38 $-1 $106 reversed single #
loop $-1 $-1 $107 $50 #
plane-surface $-1 -170.98974404673712 -21.170295002031281 69.353505869972508 0 1 0 -0.85716730853699208 0 0.51503806187062418 forward_v I I I I #
face $-1 $108 $109 $39 $-1 $110 forward single #
loop $-1 $111 $112 $51 #
cone-surface $-1 -57.924933264608121 -17.869651293344745 7.3676232085995146 0.85716730853699208 0 -0.51503806187062418 0.77255709280593621 0 1.2857509628054882 1 I I 0 1 1.5 forward I I I I #
face $-1 $113 $114 $40 $-1 $115 forward single #
loop $-1 $116 $117 $52 #
cone-surface $-1 -57.924933264608121 -12.918685730314937 7.3676232085995146 0.85716730853699208 0 -0.51503806187062418 0.77255709280593621 0 1.2857509628054882 1 I I 0 1 1.5 forward I I I I #
face $-1 $118 $119 $41 $-1 $120 reversed single #
loop $-1 $-1 $121 $53 #
plane-surface $-1 -170.98974404673712 21.599230919042725 69.353505869972508 0 1 0 -0.85716730853699208 0 0.51503806187062418 forward_v I I I I #
face $-1 $122 $123 $42 $-1 $124 forward single #
loop $-1 $125 $126 $54 #
cone-surface $-1 -57.924933264608121 24.899874627729261 7.3676232085995146 0.85716730853699208 0 -0.51503806187062418 0.77255709280593621 0 1.2857509628054882 1 I I 0 1 1.5 forward I I I I #
face $-1 $127 $128 $43 $-1 $129 forward single #
loop $-1 $130 $131 $55 #
cone-surface $-1 -57.924933264608121 29.850840190759065 7.3676232085995146 0.85716730853699208 0 -0.51503806187062418 0.77255709280593621 0 1.2857509628054882 1 I I 0 1 1.5 forward I I I I #
face $-1 $132 $133 $44 $-1 $134 reversed single #
loop $-1 $-1 $135 $56 #
plane-surface $-1 100.04017279444409 18.952928968145322 174.47375447379201 0 -1 0 -0.83867057594974714 0 -0.54463902268945019 forward_v I I I I #
face $-1 $136 $137 $45 $-1 $138 forward single #
loop $-1 $139 $140 $57 #
cone-surface $-1 58.349004141069649 6.4026403714532947 6.4266392277143165 -0.83867057594974714 0 -0.54463902268945019 0.2723195113447251 0 -0.41933528797487357 1 I I 0 1 0.5 forward I I I I #
face $-1 $141 $142 $46 $-1 $143 forward single #
loop $-1 $144 $145 $58 #
cone-surface $-1 58.349004141069649 11.108998595212803 6.4266392277143165 -0.83867057594974714 0 -0.54463902268945019 0.2723195113447251 0 -0.41933528797487357 1 I I 0 1 0.5 forward I I I I #
face $-1 $146 $147 $47 $-1 $148 forward single #
loop $-1 $149 $150 $59 #
cone-surface $-1 58.349004141069649 15.815356818972312 6.4266392277143165 -0.83867057594974714 0 -0.54463902268945019 0.2723195113447251 0 -0.41933528797487357 1 I I 0 1 0.5 forward I I I I #
face $-1 $151 $152 $36 $-1 $153 reversed single #
loop $-1 $-1 $154 $60 #
plane-surface $-1 0 0 -13.207578704700541 0 0 1 1 0 0 forward_v I I I I #
coedge $-1 $155 $156 $157 $158 forward $61 $-1 #
face $-1 $159 $160 $37 $-1 $161 reversed single #
loop $-1 $-1 $162 $63 #
plane-surface $-1 0 0 -13.207578704700541 0 0 1 1 0 0 forward_v I I I I #
coedge $-1 $163 $164 $165 $166 forward $64 $-1 #
face $-1 $167 $168 $38 $-1 $169 reversed single #
loop $-1 $-1 $170 $66 #
plane-surface $-1 -62.995086519974365 -15.394168511829839 4.4637713327327475 -0.85716730853699208 0 0.51503806187062418 0.51503806187062418 0 0.85716730853699208 forward_v I I I I #
coedge $-1 $171 $172 $173 $174 reversed $67 $-1 #
face $-1 $-1 $175 $39 $-1 $176 forward single #
loop $-1 $177 $178 $69 #
cone-surface $-1 -54.838809192410828 -17.869651293344745 5.5132928520794167 0.85716730853699208 0 -0.51503806187062418 0.3862785464029681 0 0.64287548140274409 1 I I -0.70710678118654757 0.70710678118654757 0.75 forward I I I I #
loop $-1 $-1 $179 $51 #
coedge $-1 $112 $112 $180 $181 reversed $70 $-1 #
face $-1 $-1 $182 $40 $-1 $183 forward single #
loop $-1 $184 $185 $72 #
cone-surface $-1 -54.838809192410828 -12.918685730314937 5.5132928520794167 0.85716730853699208 0 -0.51503806187062418 0.3862785464029681 0 0.64287548140274409 1 I I -0.70710678118654757 0.70710678118654757 0.75 forward I I I I #
loop $-1 $-1 $186 $52 #
coedge $-1 $117 $117 $187 $188 reversed $73 $-1 #
face $-1 $189 $190 $41 $-1 $191 forward single #
loop $-1 $-1 $192 $75 #
plane-surface $-1 -62.995086519974365 27.375357409244167 4.4637713327327475 -0.85716730853699208 0 0.51503806187062418 0.51503806187062418 0 0.85716730853699208 forward_v I I I I #
coedge $-1 $193 $194 $195 $196 reversed $76 $-1 #
face $-1 $-1 $197 $42 $-1 $198 forward single #
loop $-1 $199 $200 $78 #
cone-surface $-1 -54.838809192410828 24.899874627729261 5.5132928520794167 0.85716730853699208 0 -0.51503806187062418 0.3862785464029681 0 0.64287548140274409 1 I I -0.70710678118654757 0.70710678118654757 0.75 forward I I I I #
loop $-1 $-1 $201 $54 #
coedge $-1 $126 $126 $202 $203 reversed $79 $-1 #
face $-1 $-1 $204 $43 $-1 $205 forward single #
loop $-1 $206 $207 $81 #
cone-surface $-1 -54.838809192410828 29.850840190759065 5.5132928520794167 0.85716730853699208 0 -0.51503806187062418 0.3862785464029681 0 0.64287548140274409 1 I I -0.70710678118654757 0.70710678118654757 0.75 forward I I I I #
loop $-1 $-1 $208 $55 #
coedge $-1 $131 $131 $209 $210 reversed $82 $-1 #
face $-1 $211 $212 $44 $-1 $213 reversed single #
loop $-1 $-1 $214 $84 #
plane-surface $-1 -5.6240781929780184 11.108998595212803 105.85458976083962 0.83867057594974714 0 0.54463902268945019 0.54463902268945019 0 -0.83867057594974714 forward_v I I I I #
coedge $-1 $215 $216 $217 $218 reversed $85 $-1 #
face $-1 $-1 $219 $45 $-1 $220 forward single #
loop $-1 $221 $222 $87 #
cone-surface $-1 57.720001209107338 6.4026403714532947 6.0181599606972291 -0.83867057594974714 0 -0.54463902268945019 0.13615975567236255 0 -0.20966764398743679 1 I I -0.70710678118654746 0.70710678118654746 0.25 forward I I I I #
loop $-1 $-1 $223 $57 #
coedge $-1 $140 $140 $224 $225 reversed $88 $-1 #
face $-1 $-1 $226 $46 $-1 $227 forward single #
loop $-1 $228 $229 $90 #
cone-surface $-1 57.720001209107338 11.108998595212803 6.0181599606972291 -0.83867057594974714 0 -0.54463902268945019 0.13615975567236255 0 -0.20966764398743679 1 I I -0.70710678118654746 0.70710678118654746 0.25 forward I I I I #
loop $-1 $-1 $230 $58 #
coedge $-1 $145 $145 $231 $232 reversed $91 $-1 #
face $-1 $-1 $233 $47 $-1 $234 forward single #
loop $-1 $235 $236 $93 #
cone-surface $-1 57.720001209107338 15.815356818972312 6.0181599606972291 -0.83867057594974714 0 -0.54463902268945019 0.13615975567236255 0 -0.20966764398743679 1 I I -0.70710678118654746 0.70710678118654746 0.25 forward I I I I #
loop $-1 $-1 $237 $59 #
coedge $-1 $150 $150 $238 $239 reversed $94 $-1 #
face $-1 $240 $241 $36 $-1 $242 reversed single #
loop $-1 $-1 $243 $96 #
plane-surface $-1 0 -33.151483899445601 0 0 1 0 0 0 1 forward_v I I I I #
coedge $-1 $244 $245 $246 $247 forward $97 $-1 #
coedge $-1 $248 $99 $249 $250 forward $61 $-1 #
coedge $-1 $99 $248 $251 $252 forward $61 $-1 #
coedge $-1 $253 $254 $99 $158 reversed $255 $-1 #
edge $-1 $256 -33.151483899445601 $257 33.151483899445601 $157 $258 forward 7 unknown #
face $-1 $259 $260 $37 $-1 $261 forward single #
loop $-1 $-1 $262 $100 #
plane-surface $-1 62.995086519974365 0 0 -1 0 0 0 0 1 forward_v I I I I #
coedge $-1 $263 $264 $265 $266 forward $101 $-1 #
coedge $-1 $265 $103 $262 $267 reversed $64 $-1 #
coedge $-1 $103 $265 $268 $269 reversed $64 $-1 #
coedge $-1 $270 $271 $103 $166 reversed $260 $-1 #
edge $-1 $272 -62.995086519974365 $273 62.995086519974365 $165 $274 forward 7 unknown #
face $-1 $275 $276 $38 $-1 $277 forward single #
loop $-1 $-1 $278 $104 #
plane-surface $-1 -170.98974404673712 -9.6180420216283959 69.353505869972508 0 -1 0 0.85716730853699208 0 -0.51503806187062418 forward_v I I I I #
coedge $-1 $279 $280 $281 $282 reversed $105 $-1 #
coedge $-1 $172 $107 $283 $284 reversed $67 $-1 #
coedge $-1 $107 $171 $279 $285 reversed $67 $-1 #
coedge $-1 $281 $286 $107 $174 forward $276 $-1 #
edge $-1 $287 22.499785503394193 $288 27.753594832537573 $173 $289 forward 7 unknown #
loop $-1 $-1 $180 $108 #
plane-surface $-1 -62.995086519974365 -15.394168511829839 4.4637713327327475 -0.85716730853699208 0 0.51503806187062418 0.51503806187062418 0 0.85716730853699208 forward_v I I I I #
loop $-1 $-1 $290 $69 #
coedge $-1 $178 $178 $179 $291 reversed $109 $-1 #
coedge $-1 $179 $179 $178 $291 forward $111 $-1 #
coedge $-1 $180 $180 $112 $181 forward $175 $-1 #
edge $-1 $292 0 $292 6.2831853071796004 $180 $293 forward 7 unknown #
loop $-1 $-1 $187 $113 #
plane-surface $-1 -62.995086519974365 -15.394168511829839 4.4637713327327475 -0.85716730853699208 0 0.51503806187062418 0.51503806187062418 0 0.85716730853699208 forward_v I I I I #
loop $-1 $-1 $294 $72 #
coedge $-1 $185 $185 $186 $295 reversed $114 $-1 #
coedge $-1 $186 $186 $185 $295 forward $116 $-1 #
coedge $-1 $187 $187 $117 $188 forward $182 $-1 #
edge $-1 $296 0 $296 6.2831853071796004 $187 $297 forward 7 unknown #
face $-1 $298 $299 $41 $-1 $300 reversed single #
loop $-1 $-1 $195 $118 #
plane-surface $-1 0 0 13.207578704700541 0 0 1 1 0 0 forward_v I I I I #
coedge $-1 $301 $302 $303 $304 reversed $119 $-1 #
coedge $-1 $194 $121 $305 $306 reversed $76 $-1 #
coedge $-1 $121 $193 $301 $307 reversed $76 $-1 #
coedge $-1 $303 $308 $121 $196 forward $190 $-1 #
edge $-1 $309 22.499785503394193 $310 27.753594832537573 $195 $311 forward 7 unknown #
loop $-1 $-1 $202 $122 #
plane-surface $-1 -62.995086519974365 27.375357409244167 4.4637713327327475 -0.85716730853699208 0 0.51503806187062418 0.51503806187062418 0 0.85716730853699208 forward_v I I I I #
loop $-1 $-1 $312 $78 #
coedge $-1 $200 $200 $201 $313 reversed $123 $-1 #
coedge $-1 $201 $201 $200 $313 forward $125 $-1 #
coedge $-1 $202 $202 $126 $203 forward $197 $-1 #
edge $-1 $314 0 $314 6.2831853071796004 $202 $315 forward 7 unknown #
loop $-1 $-1 $209 $127 #
plane-surface $-1 -62.995086519974365 27.375357409244167 4.4637713327327475 -0.85716730853699208 0 0.51503806187062418 0.51503806187062418 0 0.85716730853699208 forward_v I I I I #
loop $-1 $-1 $316 $81 #
coedge $-1 $207 $207 $208 $317 reversed $128 $-1 #
coedge $-1 $208 $208 $207 $317 forward $130 $-1 #
coedge $-1 $209 $209 $131 $210 forward $204 $-1 #
edge $-1 $318 0 $318 6.2831853071796004 $209 $319 forward 7 unknown #
face $-1 $320 $321 $44 $-1 $322 forward single #
loop $-1 $-1 $323 $132 #
plane-surface $-1 100.04017279444409 3.2650682222802843 174.47375447379201 0 1 0 0.83867057594974714 0 0.54463902268945019 forward_v I I I I #
coedge $-1 $324 $325 $326 $327 reversed $133 $-1 #
coedge $-1 $216 $135 $328 $329 reversed $85 $-1 #
coedge $-1 $135 $215 $324 $330 reversed $85 $-1 #
coedge $-1 $326 $331 $135 $218 forward $321 $-1 #
edge $-1 $332 -12.97500012275232 $333 -4.5215059408926734 $217 $334 forward 7 unknown #
loop $-1 $-1 $224 $136 #
plane-surface $-1 -5.6240781929780184 11.108998595212803 105.85458976083962 0.83867057594974714 0 0.54463902268945019 0.54463902268945019 0 -0.83867057594974714 forward_v I I I I #
loop $-1 $-1 $335 $87 #
coedge $-1 $222 $222 $223 $336 reversed $137 $-1 #
coedge $-1 $223 $223 $222 $336 forward $139 $-1 #
coedge $-1 $224 $224 $140 $225 forward $219 $-1 #
edge $-1 $337 0 $337 6.2831853071796004 $224 $338 forward 7 unknown #
loop $-1 $-1 $231 $141 #
plane-surface $-1 -5.6240781929780184 11.108998595212803 105.85458976083962 0.83867057594974714 0 0.54463902268945019 0.54463902268945019 0 -0.83867057594974714 forward_v I I I I #
loop $-1 $-1 $339 $90 #
coedge $-1 $229 $229 $230 $340 reversed $142 $-1 #
coedge $-1 $230 $230 $229 $340 forward $144 $-1 #
coedge $-1 $231 $231 $145 $232 forward $226 $-1 #
edge $-1 $341 0 $341 6.2831853071796004 $231 $342 forward 7 unknown #
loop $-1 $-1 $238 $146 #
plane-surface $-1 -5.6240781929780184 11.108998595212803 105.85458976083962 0.83867057594974714 0 0.54463902268945019 0.54463902268945019 0 -0.83867057594974714 forward_v I I I I #
loop $-1 $-1 $343 $93 #
coedge $-1 $236 $236 $237 $344 reversed $147 $-1 #
coedge $-1 $237 $237 $236 $344 forward $149 $-1 #
coedge $-1 $238 $238 $150 $239 forward $233 $-1 #
edge $-1 $345 0 $345 6.2831853071796004 $238 $346 forward 7 unknown #
face $-1 $347 $348 $36 $-1 $349 reversed single #
loop $-1 $-1 $350 $151 #
plane-surface $-1 -62.995086519974365 0 0 1 0 0 0 0 -1 forward_v I I I I #
coedge $-1 $251 $351 $253 $352 reversed $152 $-1 #
coedge $-1 $353 $154 $351 $354 forward $97 $-1 #
coedge $-1 $154 $353 $355 $356 forward $97 $-1 #
coedge $-1 $254 $253 $154 $247 reversed $255 $-1 #
edge $-1 $357 -33.151483899445601 $358 33.151483899445601 $246 $359 forward 7 unknown #
coedge $-1 $156 $155 $360 $361 forward $61 $-1 #
coedge $-1 $362 $363 $155 $250 reversed $348 $-1 #
edge $-1 $257 -62.995086519974365 $364 62.995086519974365 $249 $365 forward 7 unknown #
coedge $-1 $366 $243 $156 $252 reversed $152 $-1 #
edge $-1 $367 -62.995086519974365 $256 62.995086519974365 $251 $368 forward 7 unknown #
coedge $-1 $246 $157 $243 $352 forward $255 $-1 #
coedge $-1 $157 $246 $362 $369 reversed $255 $-1 #
loop $-1 $-1 $253 $347 #
vertex $-1 $158 $370 #
vertex $-1 $158 $371 #
straight-curve $-1 62.995086519974365 0 13.207578704700541 0 1 0 I I #
face $-1 $372 $373 $37 $-1 $374 reversed single #
loop $-1 $-1 $271 $159 #
plane-surface $-1 0 -39.142078348152758 -10.207578704700541 0 0 1 1 0 0 forward_v I I I I #
coedge $-1 $375 $376 $163 $267 forward $160 $-1 #
coedge $-1 $377 $162 $376 $378 forward $101 $-1 #
coedge $-1 $162 $377 $379 $380 forward $101 $-1 #
coedge $-1 $164 $163 $162 $266 reversed $64 $-1 #
edge $-1 $381 -62.995086519974365 $382 62.995086519974365 $162 $383 forward 7 unknown #
edge $-1 $382 -13.207578704700541 $273 -10.207578704700541 $262 $384 forward 7 unknown #
coedge $-1 $379 $385 $164 $269 forward $386 $-1 #
edge $-1 $272 10.207578704700541 $381 13.207578704700541 $268 $387 forward 7 unknown #
coedge $-1 $388 $165 $385 $389 forward $260 $-1 #
coedge $-1 $165 $388 $375 $390 forward $260 $-1 #
vertex $-1 $269 $391 #
vertex $-1 $390 $392 #
straight-curve $-1 0 -33.151483899445601 -10.207578704700541 1 0 0 I I #
face $-1 $-1 $393 $38 $-1 $394 reversed single #
loop $-1 $-1 $173 $167 #
plane-surface $-1 0 0 13.207578704700541 0 0 1 1 0 0 forward_v I I I I #
coedge $-1 $395 $396 $397 $398 reversed $168 $-1 #
coedge $-1 $399 $170 $172 $285 forward $105 $-1 #
coedge $-1 $170 $399 $395 $400 forward $105 $-1 #
coedge $-1 $397 $173 $170 $282 forward $276 $-1 #
edge $-1 $288 -13.473210746116361 $401 -1.9209577657134762 $281 $402 forward 7 unknown #
coedge $-1 $403 $404 $171 $284 forward $393 $-1 #
edge $-1 $405 -30.212981602253507 $287 -21.469174230285713 $283 $406 forward 7 unknown #
edge $-1 $288 -10.200817605715358 $405 0 $172 $407 forward 7 unknown #
coedge $-1 $173 $397 $403 $408 forward $276 $-1 #
vertex $-1 $284 $409 #
vertex $-1 $174 $410 #
straight-curve $-1 -85.494872023368558 -21.170295002031281 13.207578704700541 1 0 0 I I #
coedge $-1 $290 $290 $-1 $411 reversed $177 $-1 #
edge $-1 $412 0 $412 6.2831853071796004 $178 $413 forward 7 unknown #
vertex $-1 $181 $414 #
ellipse-curve $-1 -60.368181855402675 -17.869651293344745 8.8356750187166462 -0.85716730853699208 0 0.51503806187062418 0.77255709280593621 0 1.2857509628054882 1 I I #
coedge $-1 $294 $294 $-1 $415 reversed $184 $-1 #
edge $-1 $416 0 $416 6.2831853071796004 $185 $417 forward 7 unknown #
vertex $-1 $188 $418 #
ellipse-curve $-1 -60.368181855402675 -12.918685730314937 8.8356750187166462 -0.85716730853699208 0 0.51503806187062418 0.77255709280593621 0 1.2857509628054882 1 I I #
face $-1 $-1 $419 $41 $-1 $420 reversed single #
loop $-1 $-1 $421 $189 #
plane-surface $-1 0 33.151483899445601 0 0 -1 0 0 0 -1 forward_v I I I I #
coedge $-1 $422 $192 $194 $307 forward $119 $-1 #
coedge $-1 $192 $422 $421 $423 reversed $119 $-1 #
coedge $-1 $424 $195 $192 $304 forward $190 $-1 #
edge $-1 $310 7.9115522144206416 $425 19.463805194823525 $303 $426 forward 7 unknown #
coedge $-1 $427 $428 $193 $306 forward $419 $-1 #
edge $-1 $429 -30.212981602253507 $309 -21.469174230285713 $305 $430 forward 7 unknown #
edge $-1 $310 -10.200817605715358 $429 0 $194 $431 forward 7 unknown #
coedge $-1 $195 $424 $427 $432 forward $190 $-1 #
vertex $-1 $306 $433 #
vertex $-1 $196 $434 #
straight-curve $-1 -85.494872023368558 21.599230919042725 13.207578704700541 1 0 0 I I #
coedge $-1 $312 $312 $-1 $435 reversed $199 $-1 #
edge $-1 $436 0 $436 6.2831853071796004 $200 $437 forward 7 unknown #
vertex $-1 $203 $438 #
ellipse-curve $-1 -60.368181855402675 24.899874627729261 8.8356750187166462 -0.85716730853699208 0 0.51503806187062418 0.77255709280593621 0 1.2857509628054882 1 I I #
coedge $-1 $316 $316 $-1 $439 reversed $206 $-1 #
edge $-1 $440 0 $440 6.2831853071796004 $207 $441 forward 7 unknown #
vertex $-1 $210 $442 #
ellipse-curve $-1 -60.368181855402675 29.850840190759065 8.8356750187166462 -0.85716730853699208 0 0.51503806187062418 0.77255709280593621 0 1.2857509628054882 1 I I #
face $-1 $-1 $443 $44 $-1 $444 reversed single #
loop $-1 $-1 $217 $211 #
plane-surface $-1 0 0 13.207578704700541 0 0 1 1 0 0 forward_v I I I I #
coedge $-1 $445 $446 $447 $448 reversed $212 $-1 #
coedge $-1 $449 $214 $216 $330 forward $133 $-1 #
coedge $-1 $214 $449 $445 $450 forward $133 $-1 #
coedge $-1 $447 $217 $214 $327 forward $321 $-1 #
edge $-1 $333 -13.398429670538921 $451 2.2894310753261173 $326 $452 forward 7 unknown #
coedge $-1 $453 $454 $215 $329 forward $443 $-1 #
edge $-1 $455 -87.046538463478484 $332 -74.029298532195469 $328 $456 forward 7 unknown #
edge $-1 $333 110.46889411998455 $455 125.99017303994873 $216 $457 forward 7 unknown #
coedge $-1 $217 $447 $453 $458 forward $321 $-1 #
vertex $-1 $329 $459 #
vertex $-1 $218 $460 #
straight-curve $-1 50.020086397222045 18.952928968145322 13.207578704700538 -1 0 0 I I #
coedge $-1 $335 $335 $-1 $461 reversed $221 $-1 #
edge $-1 $462 0 $462 6.2831853071796004 $222 $463 forward 7 unknown #
vertex $-1 $225 $464 #
ellipse-curve $-1 58.768339429044538 6.4026403714532947 6.6989587390590497 0.83867057594974714 0 0.54463902268945019 0.2723195113447251 0 -0.41933528797487357 1 I I #
coedge $-1 $339 $339 $-1 $465 reversed $228 $-1 #
edge $-1 $466 0 $466 6.2831853071796004 $229 $467 forward 7 unknown #
vertex $-1 $232 $468 #
ellipse-curve $-1 58.768339429044538 11.108998595212803 6.6989587390590497 0.83867057594974714 0 0.54463902268945019 0.2723195113447251 0 -0.41933528797487357 1 I I #
coedge $-1 $343 $343 $-1 $469 reversed $235 $-1 #
edge $-1 $470 0 $470 6.2831853071796004 $236 $471 forward 7 unknown #
vertex $-1 $239 $472 #
ellipse-curve $-1 58.768339429044538 15.815356818972312 6.6989587390590497 0.83867057594974714 0 0.54463902268945019 0.2723195113447251 0 -0.41933528797487357 1 I I #
face $-1 $-1 $255 $36 $-1 $473 reversed single #
loop $-1 $-1 $362 $240 #
plane-surface $-1 0 33.151483899445601 0 0 -1 0 0 0 -1 forward_v I I I I #
coedge $-1 $474 $360 $363 $475 forward $241 $-1 #
coedge $-1 $243 $366 $244 $354 reversed $152 $-1 #
edge $-1 $256 -13.207578704700541 $358 13.207578704700541 $253 $476 forward 7 unknown #
coedge $-1 $245 $244 $474 $477 forward $97 $-1 #
edge $-1 $358 -62.995086519974365 $478 62.995086519974365 $351 $479 forward 7 unknown #
coedge $-1 $363 $362 $245 $356 reversed $348 $-1 #
edge $-1 $480 -62.995086519974365 $357 62.995086519974365 $355 $481 forward 7 unknown #
vertex $-1 $247 $482 #
vertex $-1 $352 $483 #
straight-curve $-1 62.995086519974365 0 -13.207578704700541 0 -1 0 I I #
coedge $-1 $350 $484 $248 $361 reversed $241 $-1 #
edge $-1 $364 -33.151483899445601 $367 33.151483899445601 $360 $485 forward 7 unknown #
coedge $-1 $355 $249 $254 $369 forward $348 $-1 #
coedge $-1 $249 $355 $350 $475 reversed $348 $-1 #
vertex $-1 $250 $486 #
straight-curve $-1 0 33.151483899445601 13.207578704700541 -1 0 0 I I #
coedge $-1 $351 $251 $484 $487 forward $152 $-1 #
vertex $-1 $361 $488 #
straight-curve $-1 0 -33.151483899445601 13.207578704700541 1 0 0 I I #
edge $-1 $257 -13.207578704700541 $357 13.207578704700541 $254 $489 forward 7 unknown #
point $-1 62.995086519974365 -33.151483899445601 13.207578704700541 #
point $-1 62.995086519974365 33.151483899445601 13.207578704700541 #
face $-1 $-1 $386 $37 $-1 $490 reversed single #
loop $-1 $-1 $491 $259 #
plane-surface $-1 0 -45.132672796859914 -11.707578704700541 0 1 0 0 0 1 forward_v I I I I #
coedge $-1 $492 $262 $271 $390 reversed $160 $-1 #
coedge $-1 $262 $492 $263 $378 reversed $160 $-1 #
coedge $-1 $264 $263 $493 $494 forward $101 $-1 #
edge $-1 $382 33.151483899445601 $495 45.132672796859914 $376 $496 forward 7 unknown #
coedge $-1 $497 $268 $264 $380 reversed $386 $-1 #
edge $-1 $498 -45.132672796859914 $381 -33.151483899445601 $379 $499 forward 7 unknown #
vertex $-1 $269 $500 #
vertex $-1 $378 $501 #
straight-curve $-1 0 -33.151483899445601 -13.207578704700541 1 0 0 I I #
straight-curve $-1 62.995086519974365 -33.151483899445601 0 0 0 1 I I #
coedge $-1 $268 $497 $270 $389 reversed $386 $-1 #
loop $-1 $-1 $268 $372 #
straight-curve $-1 -62.995086519974365 -33.151483899445601 0 0 0 -1 I I #
coedge $-1 $271 $270 $502 $503 forward $260 $-1 #
edge $-1 $272 -5.9905944487071565 $504 5.9905944487071565 $385 $505 forward 7 unknown #
edge $-1 $506 -5.9905944487071565 $273 5.9905944487071565 $375 $507 forward 7 unknown #
point $-1 -62.995086519974365 -33.151483899445601 -10.207578704700541 #
point $-1 62.995086519974365 -33.151483899445601 -10.207578704700541 #
loop $-1 $-1 $283 $275 #
plane-surface $-1 -62.995086519974365 0 0 1 0 0 0 0 -1 forward_v I I I I #
coedge $-1 $396 $278 $280 $400 reversed $168 $-1 #
coedge $-1 $278 $395 $508 $509 reversed $168 $-1 #
coedge $-1 $286 $281 $278 $398 forward $276 $-1 #
edge $-1 $401 -27.753594832537573 $510 -22.499785503394193 $397 $511 forward 7 unknown #
coedge $-1 $280 $279 $404 $512 reversed $105 $-1 #
edge $-1 $513 0 $401 10.200817605715358 $395 $514 forward 7 unknown #
vertex $-1 $282 $515 #
straight-curve $-1 -57.741277190830985 -7.6970842559149197 13.207578704700541 0 1 0 I I #
coedge $-1 $508 $283 $286 $408 reversed $393 $-1 #
coedge $-1 $283 $508 $399 $512 forward $393 $-1 #
vertex $-1 $284 $516 #
straight-curve $-1 -62.995086519974365 -21.170295002031281 34.676752934986254 0 0 1 I I #
straight-curve $-1 -62.995086519974365 -21.170295002031281 4.4637713327327475 -0.51503806187062418 0 -0.85716730853699208 I I #
edge $-1 $510 9.6180420216283959 $287 21.170295002031281 $403 $517 forward 7 unknown #
point $-1 -62.995086519974365 -21.170295002031281 13.207578704700541 #
point $-1 -57.741277190830985 -21.170295002031281 13.207578704700541 #
edge $-1 $518 1 $518 0 $290 $-1 forward 7 unknown #
vertex $-1 $291 $519 #
ellipse-curve $-1 -55.481684673813575 -17.869651293344745 5.8995713984823848 -0.85716730853699208 0 0.51503806187062418 0.77255709280593621 0 1.2857509628054882 1 I I #
point $-1 -59.595624762596742 -17.869651293344745 10.121425981522133 #
edge $-1 $520 1 $520 0 $294 $-1 forward 7 unknown #
vertex $-1 $295 $521 #
ellipse-curve $-1 -55.481684673813575 -12.918685730314937 5.8995713984823848 -0.85716730853699208 0 0.51503806187062418 0.77255709280593621 0 1.2857509628054882 1 I I #
point $-1 -59.595624762596742 -12.918685730314937 10.121425981522133 #
loop $-1 $-1 $305 $298 #
plane-surface $-1 -62.995086519974365 0 0 1 0 0 0 0 -1 forward_v I I I I #
coedge $-1 $522 $523 $302 $423 forward $299 $-1 #
coedge $-1 $302 $301 $428 $524 reversed $119 $-1 #
edge $-1 $425 4.1085165989930319 $525 14.309334204708389 $421 $526 forward 7 unknown #
coedge $-1 $308 $303 $523 $527 forward $190 $-1 #
vertex $-1 $527 $528 #
straight-curve $-1 -57.741277190830985 13.687678704622083 13.207578704700541 0 1 0 I I #
coedge $-1 $529 $305 $308 $432 reversed $419 $-1 #
coedge $-1 $305 $529 $422 $524 forward $419 $-1 #
vertex $-1 $306 $530 #
straight-curve $-1 -62.995086519974365 21.599230919042725 34.676752934986254 0 0 1 I I #
straight-curve $-1 -62.995086519974365 21.599230919042725 4.4637713327327475 -0.51503806187062418 0 -0.85716730853699208 I I #
edge $-1 $531 -33.151483899445601 $309 -21.599230919042725 $427 $532 forward 7 unknown #
point $-1 -62.995086519974365 21.599230919042725 13.207578704700541 #
point $-1 -57.741277190830985 21.599230919042725 13.207578704700541 #
edge $-1 $533 1 $533 0 $312 $-1 forward 7 unknown #
vertex $-1 $313 $534 #
ellipse-curve $-1 -55.481684673813575 24.899874627729261 5.8995713984823848 -0.85716730853699208 0 0.51503806187062418 0.77255709280593621 0 1.2857509628054882 1 I I #
point $-1 -59.595624762596742 24.899874627729261 10.121425981522133 #
edge $-1 $535 1 $535 0 $316 $-1 forward 7 unknown #
vertex $-1 $317 $536 #
ellipse-curve $-1 -55.481684673813575 29.850840190759065 5.8995713984823848 -0.85716730853699208 0 0.51503806187062418 0.77255709280593621 0 1.2857509628054882 1 I I #
point $-1 -59.595624762596742 29.850840190759065 10.121425981522133 #
loop $-1 $-1 $328 $320 #
plane-surface $-1 62.995086519974365 0 0 -1 0 0 0 0 1 forward_v I I I I #
coedge $-1 $446 $323 $325 $450 reversed $212 $-1 #
coedge $-1 $323 $445 $537 $538 reversed $212 $-1 #
coedge $-1 $331 $326 $323 $448 forward $321 $-1 #
edge $-1 $451 4.5215059408926734 $539 12.97500012275232 $447 $540 forward 7 unknown #
coedge $-1 $325 $324 $454 $541 reversed $133 $-1 #
edge $-1 $542 -125.99017303994873 $451 -110.46889411998455 $445 $543 forward 7 unknown #
vertex $-1 $327 $544 #
straight-curve $-1 54.541592338114711 5.5544992976064016 13.207578704700531 0 -1 0 I I #
coedge $-1 $537 $328 $331 $458 reversed $443 $-1 #
coedge $-1 $328 $537 $449 $541 forward $443 $-1 #
vertex $-1 $329 $545 #
straight-curve $-1 62.995086519974365 18.952928968145322 87.236877236896007 0 0 1 I I #
straight-curve $-1 -5.6240781929780184 18.952928968145322 105.85458976083962 0.54463902268945019 0 -0.83867057594974714 I I #
edge $-1 $539 3.2650682222802843 $332 18.952928968145322 $453 $546 forward 7 unknown #
point $-1 62.995086519974365 18.952928968145322 13.207578704700541 #
point $-1 54.541592338114718 18.952928968145322 13.207578704700538 #
edge $-1 $547 1 $547 0 $335 $-1 forward 7 unknown #
vertex $-1 $336 $548 #
ellipse-curve $-1 57.929668853094775 6.4026403714532947 6.1543197163695913 0.83867057594974714 0 0.54463902268945019 0.2723195113447251 0 -0.41933528797487357 1 I I #
point $-1 59.04065894038925 6.4026403714532947 6.2796234510841682 #
edge $-1 $549 1 $549 0 $339 $-1 forward 7 unknown #
vertex $-1 $340 $550 #
ellipse-curve $-1 57.929668853094775 11.108998595212803 6.1543197163695913 0.83867057594974714 0 0.54463902268945019 0.2723195113447251 0 -0.41933528797487357 1 I I #
point $-1 59.04065894038925 11.108998595212803 6.2796234510841682 #
edge $-1 $551 1 $551 0 $343 $-1 forward 7 unknown #
vertex $-1 $344 $552 #
ellipse-curve $-1 57.929668853094775 15.815356818972312 6.1543197163695913 0.83867057594974714 0 0.54463902268945019 0.2723195113447251 0 -0.41933528797487357 1 I I #
point $-1 59.04065894038925 15.815356818972312 6.2796234510841682 #
plane-surface $-1 62.995086519974365 0 0 -1 0 0 0 0 1 forward_v I I I I #
coedge $-1 $484 $350 $353 $477 reversed $241 $-1 #
edge $-1 $364 -13.207578704700541 $480 13.207578704700541 $363 $553 forward 7 unknown #
straight-curve $-1 62.995086519974365 -33.151483899445601 0 0 0 -1 I I #
edge $-1 $478 -33.151483899445601 $480 33.151483899445601 $474 $554 forward 7 unknown #
vertex $-1 $477 $555 #
straight-curve $-1 0 -33.151483899445601 -13.207578704700541 -1 0 0 I I #
vertex $-1 $356 $556 #
straight-curve $-1 0 33.151483899445601 -13.207578704700541 1 0 0 I I #
point $-1 62.995086519974365 33.151483899445601 -13.207578704700541 #
point $-1 62.995086519974365 -33.151483899445601 -13.207578704700541 #
coedge $-1 $360 $474 $366 $487 reversed $241 $-1 #
straight-curve $-1 -62.995086519974365 0 13.207578704700541 0 -1 0 I I #
point $-1 -62.995086519974365 33.151483899445601 13.207578704700541 #
edge $-1 $367 -13.207578704700541 $478 13.207578704700541 $484 $557 forward 7 unknown #
point $-1 -62.995086519974365 -33.151483899445601 13.207578704700541 #
straight-curve $-1 62.995086519974365 33.151483899445601 0 0 0 -1 I I #
plane-surface $-1 -62.995086519974365 0 0 1 0 0 0 0 -1 forward_v I I I I #
coedge $-1 $493 $502 $497 $558 forward $373 $-1 #
coedge $-1 $376 $375 $559 $560 forward $160 $-1 #
coedge $-1 $559 $491 $377 $494 reversed $373 $-1 #
edge $-1 $495 -62.995086519974365 $498 62.995086519974365 $493 $561 forward 7 unknown #
vertex $-1 $560 $562 #
straight-curve $-1 62.995086519974365 0 -13.207578704700541 0 -1 0 I I #
coedge $-1 $385 $379 $491 $558 reversed $386 $-1 #
vertex $-1 $380 $563 #
straight-curve $-1 -62.995086519974365 0 -13.207578704700541 0 1 0 I I #
point $-1 -62.995086519974365 -33.151483899445601 -13.207578704700541 #
point $-1 62.995086519974365 -33.151483899445601 -13.207578704700541 #
coedge $-1 $491 $559 $388 $503 reversed $373 $-1 #
edge $-1 $504 -62.995086519974365 $506 62.995086519974365 $502 $564 forward 7 unknown #
vertex $-1 $389 $565 #
straight-curve $-1 -62.995086519974365 -39.142078348152758 -10.207578704700541 0 -1 0 I I #
vertex $-1 $390 $566 #
straight-curve $-1 62.995086519974365 -39.142078348152758 -10.207578704700541 0 1 0 I I #
coedge $-1 $404 $403 $396 $509 forward $393 $-1 #
edge $-1 $510 21.469174230285713 $513 30.212981602253507 $508 $567 forward 7 unknown #
vertex $-1 $408 $568 #
straight-curve $-1 -85.494872023368558 -9.6180420216283959 13.207578704700541 -1 0 0 I I #
edge $-1 $513 1.9209577657134762 $405 13.473210746116361 $404 $569 forward 7 unknown #
vertex $-1 $512 $570 #
straight-curve $-1 -62.995086519974365 -9.6180420216283959 4.4637713327327475 0.51503806187062418 0 0.85716730853699208 I I #
point $-1 -57.741277190830985 -9.6180420216283959 13.207578704700541 #
point $-1 -62.995086519974365 -21.170295002031281 4.4637713327327475 #
straight-curve $-1 -62.995086519974365 0 13.207578704700541 0 -1 0 I I #
vertex $-1 $411 $571 #
point $-1 -54.709127581007635 -17.869651293344745 7.1853223612878727 #
vertex $-1 $415 $572 #
point $-1 -54.709127581007635 -12.918685730314937 7.1853223612878727 #
coedge $-1 $523 $421 $529 $573 reversed $299 $-1 #
coedge $-1 $421 $522 $424 $527 reversed $299 $-1 #
edge $-1 $525 -19.463805194823525 $429 -7.9115522144206416 $428 $574 forward 7 unknown #
vertex $-1 $423 $575 #
straight-curve $-1 -55.625234764522325 33.151483899445601 16.729264819938955 -0.51503806187062429 0 -0.85716730853699219 I I #
edge $-1 $425 57.741277190830985 $531 62.995086519974365 $523 $576 forward 7 unknown #
point $-1 -57.741277190830985 33.151483899445608 13.207578704700541 #
coedge $-1 $428 $427 $522 $573 forward $419 $-1 #
point $-1 -62.995086519974365 21.599230919042725 4.4637713327327475 #
vertex $-1 $527 $577 #
straight-curve $-1 -62.995086519974365 0 13.207578704700541 0 -1 0 I I #
vertex $-1 $435 $578 #
point $-1 -54.709127581007635 24.899874627729261 7.1853223612878727 #
vertex $-1 $439 $579 #
point $-1 -54.709127581007635 29.850840190759065 7.1853223612878727 #
coedge $-1 $454 $453 $446 $538 forward $443 $-1 #
edge $-1 $539 74.029298532195469 $542 87.046538463478484 $537 $580 forward 7 unknown #
vertex $-1 $458 $581 #
straight-curve $-1 50.020086397222045 3.2650682222802843 13.207578704700538 1 0 0 I I #
edge $-1 $542 -2.2894310753261173 $455 13.398429670538921 $454 $582 forward 7 unknown #
vertex $-1 $541 $583 #
straight-curve $-1 -5.6240781929780184 3.2650682222802843 105.85458976083962 -0.54463902268945019 0 0.83867057594974714 I I #
point $-1 54.541592338114718 3.2650682222802843 13.207578704700538 #
point $-1 62.995086519974365 18.952928968145322 0.19033877341752259 #
straight-curve $-1 62.995086519974365 0 13.207578704700541 0 1 0 I I #
vertex $-1 $461 $584 #
point $-1 58.201988364439501 6.4026403714532947 5.7349844283947178 #
vertex $-1 $465 $585 #
point $-1 58.201988364439501 11.108998595212803 5.7349844283947178 #
vertex $-1 $469 $586 #
point $-1 58.201988364439501 15.815356818972312 5.7349844283947178 #
straight-curve $-1 -62.995086519974365 33.151483899445601 0 0 0 -1 I I #
straight-curve $-1 -62.995086519974365 0 -13.207578704700541 0 1 0 I I #
point $-1 -62.995086519974365 -33.151483899445601 -13.207578704700541 #
point $-1 -62.995086519974365 33.151483899445601 -13.207578704700541 #
straight-curve $-1 -62.995086519974365 -33.151483899445601 0 0 0 -1 I I #
edge $-1 $504 -1.5 $498 1.5 $497 $587 forward 7 unknown #
coedge $-1 $502 $493 $492 $560 reversed $373 $-1 #
edge $-1 $506 -1.5 $495 1.5 $492 $588 forward 7 unknown #
straight-curve $-1 0 -45.132672796859914 -13.207578704700541 -1 0 0 I I #
point $-1 62.995086519974365 -45.132672796859914 -13.207578704700541 #
point $-1 -62.995086519974365 -45.132672796859914 -13.207578704700541 #
straight-curve $-1 0 -45.132672796859914 -10.207578704700541 1 0 0 I I #
point $-1 -62.995086519974365 -45.132672796859914 -10.207578704700541 #
point $-1 62.995086519974365 -45.132672796859914 -10.207578704700541 #
straight-curve $-1 -62.995086519974365 -9.6180420216283959 34.676752934986254 0 0 -1 I I #
point $-1 -62.995086519974365 -9.6180420216283959 13.207578704700541 #
straight-curve $-1 -62.995086519974365 -7.6970842559149197 4.4637713327327511 0 -1 0 I I #
point $-1 -62.995086519974365 -9.6180420216283959 4.4637713327327475 #
point $-1 -54.195933711008081 -17.869651293344745 5.1270143056764486 #
point $-1 -54.195933711008081 -12.918685730314937 5.1270143056764486 #
edge $-1 $531 -13.207578704700541 $525 -4.4637713327327475 $522 $589 forward 7 unknown #
straight-curve $-1 -62.995086519974365 13.687678704622083 4.4637713327327511 0 -1 0 I I #
point $-1 -62.995086519974365 33.151483899445608 4.4637713327327475 #
straight-curve $-1 0 33.151483899445601 13.207578704700541 -1 0 0 I I #
point $-1 -62.995086519974365 33.151483899445601 13.207578704700541 #
point $-1 -54.195933711008081 24.899874627729261 5.1270143056764486 #
point $-1 -54.195933711008081 29.850840190759065 5.1270143056764486 #
straight-curve $-1 62.995086519974365 3.2650682222802843 87.236877236896007 0 0 -1 I I #
point $-1 62.995086519974365 3.2650682222802843 13.207578704700541 #
straight-curve $-1 62.995086519974365 5.5544992976064016 0.19033877341752259 0 1 0 I I #
point $-1 62.995086519974365 3.2650682222802843 0.19033877341752259 #
point $-1 57.5103335651199 6.4026403714532947 5.882000205024867 #
point $-1 57.5103335651199 11.108998595212803 5.882000205024867 #
point $-1 57.5103335651199 15.815356818972312 5.882000205024867 #
straight-curve $-1 -62.995086519974365 -45.132672796859914 -11.707578704700541 0 0 -1 I I #
straight-curve $-1 62.995086519974365 -45.132672796859914 -11.707578704700541 0 0 -1 I I #
straight-curve $-1 -62.995086519974365 33.151483899445601 0 0 0 -1 I I #
End-of-ACIS-data 