500 0 9 0           
7 Unknown 11 ACIS 5.0 NT 24 Fri Mar 26 18:22:09 1999 
-1 9.9999999999999995e-007 1e-010 
body $-1 $9 $-1 $10 #
body $-1 $11 $-1 $12 #
body $-1 $13 $-1 $14 #
body $-1 $15 $-1 $16 #
body $-1 $17 $-1 $18 #
body $-1 $19 $-1 $20 #
body $-1 $21 $-1 $22 #
body $-1 $23 $-1 $24 #
body $-1 $25 $-1 $26 #
lump $-1 $-1 $27 $0 #
transform $-1 1 0 0 0 1 0 0 0 1 79.514145329142124 49.276833159160873 16.895666153747872 1 rotate no_reflect no_shear #
lump $-1 $-1 $28 $1 #
transform $-1 1 0 0 0 1 0 0 0 1 79.514145329142124 49.276833159160873 16.895666153747872 1 rotate no_reflect no_shear #
lump $-1 $-1 $29 $2 #
transform $-1 1 0 0 0 1 0 0 0 1 79.514145329142124 49.276833159160873 16.895666153747872 1 rotate no_reflect no_shear #
lump $-1 $-1 $30 $3 #
transform $-1 1 0 0 0 1 0 0 0 1 79.514145329142124 49.276833159160873 16.895666153747872 1 rotate no_reflect no_shear #
lump $-1 $-1 $31 $4 #
transform $-1 1 0 0 0 1 0 0 0 1 79.514145329142124 49.276833159160873 16.895666153747872 1 rotate no_reflect no_shear #
lump $-1 $-1 $32 $5 #
transform $-1 1 0 0 0 1 0 0 0 1 79.514145329142124 49.276833159160873 16.895666153747872 1 rotate no_reflect no_shear #
lump $-1 $-1 $33 $6 #
transform $-1 1 0 0 0 1 0 0 0 1 79.514145329142124 49.276833159160873 16.895666153747872 1 rotate no_reflect no_shear #
lump $-1 $-1 $34 $7 #
transform $-1 1 0 0 0 1 0 0 0 1 79.514145329142124 49.276833159160873 16.895666153747872 1 rotate no_reflect no_shear #
lump $-1 $-1 $35 $8 #
transform $-1 1 0 0 0 1 0 0 0 1 79.514145329142124 49.276833159160873 16.895666153747872 1 rotate no_reflect no_shear #
shell $-1 $-1 $-1 $36 $-1 $9 #
shell $-1 $-1 $-1 $37 $-1 $11 #
shell $-1 $-1 $-1 $38 $-1 $13 #
shell $-1 $-1 $-1 $39 $-1 $15 #
shell $-1 $-1 $-1 $40 $-1 $17 #
shell $-1 $-1 $-1 $41 $-1 $19 #
shell $-1 $-1 $-1 $42 $-1 $21 #
shell $-1 $-1 $-1 $43 $-1 $23 #
shell $-1 $-1 $-1 $44 $-1 $25 #
face $-1 $45 $46 $27 $-1 $47 forward single #
face $-1 $48 $49 $28 $-1 $50 reversed single #
face $-1 $51 $52 $29 $-1 $53 reversed single #
face $-1 $54 $55 $30 $-1 $56 forward single #
face $-1 $57 $58 $31 $-1 $59 forward single #
face $-1 $60 $61 $32 $-1 $62 forward single #
face $-1 $63 $64 $33 $-1 $65 reversed single #
face $-1 $66 $67 $34 $-1 $68 forward single #
face $-1 $69 $70 $35 $-1 $71 forward single #
face $-1 $72 $73 $27 $-1 $74 reversed single #
loop $-1 $-1 $75 $36 #
plane-surface $-1 0 0 16.895666153747872 0 0 1 1 0 0 forward_v I I I I #
face $-1 $76 $77 $28 $-1 $78 reversed single #
loop $-1 $-1 $79 $37 #
plane-surface $-1 0 -38.633275052455424 7.9588606285692656 0 0 1 1 0 0 forward_v I I I I #
face $-1 $80 $81 $29 $-1 $82 reversed single #
loop $-1 $-1 $83 $38 #
plane-surface $-1 141.50498052928214 -17.670610835514054 227.25056625547739 0 -1 0 -0.87461971476443456 0 -0.48480960649040278 forward_v I I I I #
face $-1 $84 $85 $30 $-1 $86 forward single #
loop $-1 $87 $88 $39 #
cone-surface $-1 77.460242758295337 -25.925895723702791 13.736850786413266 -0.87461971476443456 0 -0.48480960649040278 0.24240480324520139 0 -0.43730985738221728 1 I I 0 1 0.5 forward I I I I #
face $-1 $89 $90 $31 $-1 $91 forward single #
loop $-1 $92 $93 $40 #
cone-surface $-1 77.460242758295337 -22.830163890632015 13.736850786413266 -0.87461971476443456 0 -0.48480960649040278 0.24240480324520139 0 -0.43730985738221728 1 I I 0 1 0.5 forward I I I I #
face $-1 $94 $95 $32 $-1 $96 forward single #
loop $-1 $97 $98 $41 #
cone-surface $-1 77.460242758295337 -19.734432057561239 13.736850786413266 -0.87461971476443456 0 -0.48480960649040278 0.24240480324520139 0 -0.43730985738221728 1 I I 0 1 0.5 forward I I I I #
face $-1 $99 $100 $33 $-1 $101 reversed single #
loop $-1 $-1 $102 $42 #
plane-surface $-1 -187.97118005110451 20.868601387971985 121.53519689426787 0 1 0 -0.68199836817093118 0 0.7313536940579346 forward_v I I I I #
face $-1 $103 $104 $34 $-1 $105 forward single #
loop $-1 $106 $107 $43 #
cone-surface $-1 -72.050567510175952 23.779323206685476 9.7667906272759382 0.68199836817093118 0 -0.7313536940579346 0.7313536940579346 0 0.68199836817093118 1 I I 0 1 1 forward I I I I #
face $-1 $108 $109 $35 $-1 $110 forward single #
loop $-1 $111 $112 $44 #
cone-surface $-1 -72.050567510175952 28.145405934755701 9.7667906272759382 0.68199836817093118 0 -0.7313536940579346 0.7313536940579346 0 0.68199836817093118 1 I I 0 1 1 forward I I I I #
face $-1 $113 $114 $27 $-1 $115 reversed single #
loop $-1 $-1 $116 $45 #
plane-surface $-1 0 0 -16.895666153747872 0 0 1 1 0 0 forward_v I I I I #
coedge $-1 $117 $118 $119 $120 forward $46 $-1 #
face $-1 $121 $122 $28 $-1 $123 reversed single #
loop $-1 $-1 $124 $48 #
plane-surface $-1 0 -27.989716945749976 12.427263391158569 0 -1 0 0 0 -1 forward_v I I I I #
coedge $-1 $125 $126 $127 $128 reversed $49 $-1 #
face $-1 $129 $130 $29 $-1 $131 forward single #
loop $-1 $-1 $132 $51 #
plane-surface $-1 2.4157023142579703 -22.830163890632015 150.1521232405932 0.87461971476443456 0 0.48480960649040278 0.48480960649040278 0 -0.87461971476443456 forward_v I I I I #
coedge $-1 $133 $134 $135 $136 reversed $52 $-1 #
face $-1 $-1 $137 $30 $-1 $138 forward single #
loop $-1 $139 $140 $54 #
cone-surface $-1 76.80427797222201 -25.925895723702791 13.373243581545463 -0.87461971476443456 0 -0.48480960649040278 0.12120240162260069 0 -0.21865492869110864 1 I I -0.70710678118654746 0.70710678118654746 0.25 forward I I I I #
loop $-1 $-1 $141 $39 #
coedge $-1 $88 $88 $142 $143 reversed $55 $-1 #
face $-1 $-1 $144 $31 $-1 $145 forward single #
loop $-1 $146 $147 $57 #
cone-surface $-1 76.80427797222201 -22.830163890632015 13.373243581545463 -0.87461971476443456 0 -0.48480960649040278 0.12120240162260069 0 -0.21865492869110864 1 I I -0.70710678118654746 0.70710678118654746 0.25 forward I I I I #
loop $-1 $-1 $148 $40 #
coedge $-1 $93 $93 $149 $150 reversed $58 $-1 #
face $-1 $-1 $151 $32 $-1 $152 forward single #
loop $-1 $153 $154 $60 #
cone-surface $-1 76.80427797222201 -19.734432057561239 13.373243581545463 -0.87461971476443456 0 -0.48480960649040278 0.12120240162260069 0 -0.21865492869110864 1 I I -0.70710678118654746 0.70710678118654746 0.25 forward I I I I #
loop $-1 $-1 $155 $41 #
coedge $-1 $98 $98 $156 $157 reversed $61 $-1 #
face $-1 $158 $159 $33 $-1 $160 reversed single #
loop $-1 $-1 $161 $63 #
plane-surface $-1 -79.51414532914211 25.962364570720581 5.2292690616127544 -0.68199836817093118 0 0.7313536940579346 0.7313536940579346 0 0.68199836817093118 forward_v I I I I #
coedge $-1 $162 $163 $164 $165 reversed $64 $-1 #
face $-1 $-1 $166 $34 $-1 $167 forward single #
loop $-1 $168 $169 $66 #
cone-surface $-1 -70.5013299682455 23.779323206685476 8.1054367998425967 0.68199836817093118 0 -0.7313536940579346 0.3656768470289673 0 0.34099918408546559 1 I I -0.70710678118654746 0.70710678118654746 0.5 forward I I I I #
loop $-1 $-1 $170 $43 #
coedge $-1 $107 $107 $171 $172 reversed $67 $-1 #
face $-1 $-1 $173 $35 $-1 $174 forward single #
loop $-1 $175 $176 $69 #
cone-surface $-1 -70.5013299682455 28.145405934755701 8.1054367998425967 0.68199836817093118 0 -0.7313536940579346 0.3656768470289673 0 0.34099918408546559 1 I I -0.70710678118654746 0.70710678118654746 0.5 forward I I I I #
loop $-1 $-1 $177 $44 #
coedge $-1 $112 $112 $178 $179 reversed $70 $-1 #
face $-1 $180 $181 $27 $-1 $182 reversed single #
loop $-1 $-1 $183 $72 #
plane-surface $-1 0 -49.276833159160873 0 0 1 0 0 0 1 forward_v I I I I #
coedge $-1 $184 $185 $186 $187 forward $73 $-1 #
coedge $-1 $188 $75 $189 $190 forward $46 $-1 #
coedge $-1 $75 $188 $191 $192 forward $46 $-1 #
coedge $-1 $193 $194 $75 $120 reversed $195 $-1 #
edge $-1 $196 -49.276833159160873 $197 49.276833159160873 $119 $198 forward 7 unknown #
face $-1 $199 $200 $28 $-1 $201 reversed single #
loop $-1 $-1 $202 $76 #
plane-surface $-1 -79.514145329142124 0 0 1 0 0 0 0 -1 forward_v I I I I #
coedge $-1 $203 $204 $205 $206 reversed $77 $-1 #
coedge $-1 $207 $79 $208 $209 reversed $49 $-1 #
coedge $-1 $79 $207 $203 $210 forward $49 $-1 #
coedge $-1 $205 $211 $79 $128 forward $212 $-1 #
edge $-1 $213 -29.960195632933161 $214 -8.6730794195222636 $127 $215 forward 7 unknown #
face $-1 $216 $217 $29 $-1 $218 reversed single #
loop $-1 $-1 $219 $80 #
plane-surface $-1 0 -27.989716945749976 12.427263391158569 0 -1 0 0 0 -1 forward_v I I I I #
coedge $-1 $220 $221 $222 $223 reversed $81 $-1 #
coedge $-1 $134 $83 $224 $225 reversed $52 $-1 #
coedge $-1 $83 $133 $220 $226 reversed $52 $-1 #
coedge $-1 $222 $227 $83 $136 forward $228 $-1 #
edge $-1 $229 -8.7616550645010562 $230 -5.5284696375719449 $135 $231 forward 7 unknown #
loop $-1 $-1 $142 $84 #
plane-surface $-1 2.4157023142579703 -22.830163890632015 150.1521232405932 0.87461971476443456 0 0.48480960649040278 0.48480960649040278 0 -0.87461971476443456 forward_v I I I I #
loop $-1 $-1 $232 $54 #
coedge $-1 $140 $140 $141 $233 reversed $85 $-1 #
coedge $-1 $141 $141 $140 $233 forward $87 $-1 #
coedge $-1 $142 $142 $88 $143 forward $137 $-1 #
edge $-1 $234 0 $234 6.2831853071796004 $142 $235 forward 7 unknown #
loop $-1 $-1 $149 $89 #
plane-surface $-1 2.4157023142579703 -22.830163890632015 150.1521232405932 0.87461971476443456 0 0.48480960649040278 0.48480960649040278 0 -0.87461971476443456 forward_v I I I I #
loop $-1 $-1 $236 $57 #
coedge $-1 $147 $147 $148 $237 reversed $90 $-1 #
coedge $-1 $148 $148 $147 $237 forward $92 $-1 #
coedge $-1 $149 $149 $93 $150 forward $144 $-1 #
edge $-1 $238 0 $238 6.2831853071796004 $149 $239 forward 7 unknown #
loop $-1 $-1 $156 $94 #
plane-surface $-1 2.4157023142579703 -22.830163890632015 150.1521232405932 0.87461971476443456 0 0.48480960649040278 0.48480960649040278 0 -0.87461971476443456 forward_v I I I I #
loop $-1 $-1 $240 $60 #
coedge $-1 $154 $154 $155 $241 reversed $95 $-1 #
coedge $-1 $155 $155 $154 $241 forward $97 $-1 #
coedge $-1 $156 $156 $98 $157 forward $151 $-1 #
edge $-1 $242 0 $242 6.2831853071796004 $156 $243 forward 7 unknown #
face $-1 $244 $245 $33 $-1 $246 forward single #
loop $-1 $-1 $247 $99 #
plane-surface $-1 -187.97118005110451 31.056127753469177 121.53519689426787 0 -1 0 0.68199836817093118 0 -0.7313536940579346 forward_v I I I I #
coedge $-1 $248 $249 $250 $251 reversed $100 $-1 #
coedge $-1 $163 $102 $252 $253 reversed $64 $-1 #
coedge $-1 $102 $162 $248 $254 reversed $64 $-1 #
coedge $-1 $250 $255 $102 $165 forward $245 $-1 #
edge $-1 $256 14.471444696410131 $257 26.982123618652523 $164 $258 forward 7 unknown #
loop $-1 $-1 $171 $103 #
plane-surface $-1 -79.51414532914211 25.962364570720581 5.2292690616127544 -0.68199836817093118 0 0.7313536940579346 0.7313536940579346 0 0.68199836817093118 forward_v I I I I #
loop $-1 $-1 $259 $66 #
coedge $-1 $169 $169 $170 $260 reversed $104 $-1 #
coedge $-1 $170 $170 $169 $260 forward $106 $-1 #
coedge $-1 $171 $171 $107 $172 forward $166 $-1 #
edge $-1 $261 0 $261 6.2831853071796004 $171 $262 forward 7 unknown #
loop $-1 $-1 $178 $108 #
plane-surface $-1 -79.51414532914211 25.962364570720581 5.2292690616127544 -0.68199836817093118 0 0.7313536940579346 0.7313536940579346 0 0.68199836817093118 forward_v I I I I #
loop $-1 $-1 $263 $69 #
coedge $-1 $176 $176 $177 $264 reversed $109 $-1 #
coedge $-1 $177 $177 $176 $264 forward $111 $-1 #
coedge $-1 $178 $178 $112 $179 forward $173 $-1 #
edge $-1 $265 0 $265 6.2831853071796004 $178 $266 forward 7 unknown #
face $-1 $267 $268 $27 $-1 $269 reversed single #
loop $-1 $-1 $270 $113 #
plane-surface $-1 -79.514145329142124 0 0 1 0 0 0 0 -1 forward_v I I I I #
coedge $-1 $271 $191 $272 $273 forward $114 $-1 #
coedge $-1 $274 $116 $271 $275 forward $73 $-1 #
coedge $-1 $116 $274 $276 $277 forward $73 $-1 #
coedge $-1 $194 $193 $116 $187 reversed $195 $-1 #
edge $-1 $278 -49.276833159160873 $279 49.276833159160873 $186 $280 forward 7 unknown #
coedge $-1 $118 $117 $281 $282 forward $46 $-1 #
coedge $-1 $283 $284 $117 $190 reversed $268 $-1 #
edge $-1 $197 -79.514145329142124 $285 79.514145329142124 $189 $286 forward 7 unknown #
coedge $-1 $183 $287 $118 $192 reversed $114 $-1 #
edge $-1 $288 -79.514145329142124 $196 79.514145329142124 $191 $289 forward 7 unknown #
coedge $-1 $186 $119 $287 $290 forward $195 $-1 #
coedge $-1 $119 $186 $283 $291 reversed $195 $-1 #
loop $-1 $-1 $193 $267 #
vertex $-1 $120 $292 #
vertex $-1 $120 $293 #
straight-curve $-1 79.514145329142124 0 16.895666153747872 0 1 0 I I #
face $-1 $294 $295 $28 $-1 $296 forward single #
loop $-1 $-1 $208 $121 #
plane-surface $-1 0 -49.276833159160873 0 0 1 0 0 0 1 forward_v I I I I #
coedge $-1 $297 $298 $299 $300 forward $122 $-1 #
coedge $-1 $299 $124 $126 $210 reversed $77 $-1 #
coedge $-1 $124 $299 $301 $302 reversed $77 $-1 #
coedge $-1 $303 $127 $124 $206 forward $212 $-1 #
edge $-1 $214 1.7452289329899813 $304 10.682034458168587 $205 $305 forward 7 unknown #
coedge $-1 $126 $125 $297 $306 reversed $49 $-1 #
coedge $-1 $307 $308 $125 $209 forward $200 $-1 #
edge $-1 $309 -79.514145329142124 $213 79.514145329142124 $208 $310 forward 7 unknown #
edge $-1 $311 -79.514145329142124 $214 79.514145329142124 $203 $312 forward 7 unknown #
coedge $-1 $127 $303 $307 $313 forward $212 $-1 #
loop $-1 $-1 $205 $294 #
vertex $-1 $209 $314 #
vertex $-1 $128 $315 #
straight-curve $-1 79.514145329142124 -19.316637526227712 7.9588606285692656 0 1 0 I I #
face $-1 $-1 $228 $29 $-1 $316 forward single #
loop $-1 $-1 $317 $129 #
plane-surface $-1 79.514145329142124 0 0 -1 0 0 0 0 1 forward_v I I I I #
coedge $-1 $318 $319 $221 $320 forward $130 $-1 #
coedge $-1 $321 $132 $134 $226 forward $81 $-1 #
coedge $-1 $132 $321 $219 $320 reversed $81 $-1 #
coedge $-1 $322 $135 $132 $223 forward $228 $-1 #
edge $-1 $230 6.2555288901980468 $323 16.574635000433968 $222 $324 forward 7 unknown #
coedge $-1 $325 $317 $133 $225 forward $217 $-1 #
edge $-1 $326 -102.56243810216961 $229 -96.729616973990829 $224 $327 forward 7 unknown #
edge $-1 $230 152.35931095234452 $326 159.02829065828419 $134 $328 forward 7 unknown #
coedge $-1 $135 $322 $325 $329 forward $228 $-1 #
loop $-1 $-1 $222 $216 #
vertex $-1 $225 $330 #
vertex $-1 $136 $331 #
straight-curve $-1 70.752490264641068 -17.670610835514054 16.895666153747868 -1 0 0 I I #
coedge $-1 $232 $232 $-1 $332 reversed $139 $-1 #
edge $-1 $333 0 $333 6.2831853071796004 $140 $334 forward 7 unknown #
vertex $-1 $143 $335 #
ellipse-curve $-1 77.897552615677569 -25.925895723702791 13.979255589658473 0.87461971476443456 0 0.48480960649040278 0.24240480324520139 0 -0.43730985738221728 1 I I #
coedge $-1 $236 $236 $-1 $336 reversed $146 $-1 #
edge $-1 $337 0 $337 6.2831853071796004 $147 $338 forward 7 unknown #
vertex $-1 $150 $339 #
ellipse-curve $-1 77.897552615677569 -22.830163890632015 13.979255589658473 0.87461971476443456 0 0.48480960649040278 0.24240480324520139 0 -0.43730985738221728 1 I I #
coedge $-1 $240 $240 $-1 $340 reversed $153 $-1 #
edge $-1 $341 0 $341 6.2831853071796004 $154 $342 forward 7 unknown #
vertex $-1 $157 $343 #
ellipse-curve $-1 77.897552615677569 -19.734432057561239 13.979255589658473 0.87461971476443456 0 0.48480960649040278 0.24240480324520139 0 -0.43730985738221728 1 I I #
face $-1 $-1 $344 $33 $-1 $345 reversed single #
loop $-1 $-1 $164 $158 #
plane-surface $-1 0 0 16.895666153747872 0 0 1 1 0 0 forward_v I I I I #
coedge $-1 $346 $347 $348 $349 reversed $159 $-1 #
coedge $-1 $350 $161 $163 $254 forward $100 $-1 #
coedge $-1 $161 $350 $346 $351 forward $100 $-1 #
coedge $-1 $348 $164 $161 $251 forward $245 $-1 #
edge $-1 $257 7.8874191026116947 $352 18.074945468108886 $250 $353 forward 7 unknown #
coedge $-1 $354 $355 $162 $253 forward $344 $-1 #
edge $-1 $356 -55.538329385521195 $256 -43.871932293386067 $252 $357 forward 7 unknown #
edge $-1 $257 -17.106195024224949 $356 1.9479204584885432e-014 $163 $358 forward 7 unknown #
coedge $-1 $164 $348 $354 $359 forward $245 $-1 #
vertex $-1 $253 $360 #
vertex $-1 $165 $361 #
straight-curve $-1 -93.985590025552256 20.868601387971985 16.895666153747868 1 0 0 I I #
coedge $-1 $259 $259 $-1 $362 reversed $168 $-1 #
edge $-1 $363 0 $363 6.2831853071796004 $169 $364 forward 7 unknown #
vertex $-1 $172 $365 #
ellipse-curve $-1 -73.258805868020929 23.779323206685476 11.062467607680304 -0.68199836817093118 0 0.7313536940579346 0.7313536940579346 0 0.68199836817093118 1 I I #
coedge $-1 $263 $263 $-1 $366 reversed $175 $-1 #
edge $-1 $367 0 $367 6.2831853071796004 $176 $368 forward 7 unknown #
vertex $-1 $179 $369 #
ellipse-curve $-1 -73.258805868020929 28.145405934755701 11.062467607680304 -0.68199836817093118 0 0.7313536940579346 0.7313536940579346 0 0.68199836817093118 1 I I #
face $-1 $-1 $195 $27 $-1 $370 reversed single #
loop $-1 $-1 $283 $180 #
plane-surface $-1 0 49.276833159160873 0 0 -1 0 0 0 -1 forward_v I I I I #
coedge $-1 $371 $281 $284 $372 forward $181 $-1 #
coedge $-1 $287 $183 $184 $275 reversed $114 $-1 #
coedge $-1 $281 $371 $183 $273 reversed $181 $-1 #
edge $-1 $288 -16.895666153747872 $373 16.895666153747872 $272 $374 forward 7 unknown #
coedge $-1 $185 $184 $371 $375 forward $73 $-1 #
edge $-1 $279 -79.514145329142124 $373 79.514145329142124 $271 $376 forward 7 unknown #
coedge $-1 $284 $283 $185 $277 reversed $268 $-1 #
edge $-1 $377 -79.514145329142124 $278 79.514145329142124 $276 $378 forward 7 unknown #
vertex $-1 $187 $379 #
vertex $-1 $290 $380 #
straight-curve $-1 79.514145329142124 0 -16.895666153747872 0 -1 0 I I #
coedge $-1 $270 $272 $188 $282 reversed $181 $-1 #
edge $-1 $285 -49.276833159160873 $288 49.276833159160873 $281 $381 forward 7 unknown #
coedge $-1 $276 $189 $194 $291 forward $268 $-1 #
coedge $-1 $189 $276 $270 $372 reversed $268 $-1 #
vertex $-1 $190 $382 #
straight-curve $-1 0 49.276833159160873 16.895666153747872 -1 0 0 I I #
coedge $-1 $191 $271 $193 $290 reversed $114 $-1 #
vertex $-1 $282 $383 #
straight-curve $-1 0 -49.276833159160873 16.895666153747872 1 0 0 I I #
edge $-1 $196 -16.895666153747872 $279 16.895666153747872 $193 $384 forward 7 unknown #
edge $-1 $197 -16.895666153747872 $278 16.895666153747872 $194 $385 forward 7 unknown #
point $-1 79.514145329142124 -49.276833159160873 16.895666153747872 #
point $-1 79.514145329142124 49.276833159160873 16.895666153747872 #
face $-1 $-1 $212 $28 $-1 $386 reversed single #
loop $-1 $-1 $301 $199 #
plane-surface $-1 0 0 16.895666153747872 0 0 1 1 0 0 forward_v I I I I #
coedge $-1 $387 $202 $207 $306 forward $122 $-1 #
coedge $-1 $202 $387 $388 $389 reversed $122 $-1 #
coedge $-1 $204 $203 $202 $300 reversed $77 $-1 #
edge $-1 $390 -10.682034458168587 $311 -1.7452289329899813 $202 $391 forward 7 unknown #
coedge $-1 $388 $392 $204 $302 forward $295 $-1 #
edge $-1 $304 -79.514145329142124 $390 79.514145329142124 $301 $393 forward 7 unknown #
coedge $-1 $211 $205 $392 $394 reversed $212 $-1 #
vertex $-1 $206 $395 #
straight-curve $-1 79.514145329142124 -27.989716945749976 6.2136316955792843 0 0 1 I I #
edge $-1 $311 8.6730794195222636 $309 29.960195632933161 $297 $396 forward 7 unknown #
coedge $-1 $397 $208 $211 $313 reversed $200 $-1 #
coedge $-1 $208 $397 $387 $398 forward $200 $-1 #
vertex $-1 $209 $399 #
straight-curve $-1 0 -49.276833159160873 7.9588606285692656 1 0 0 I I #
vertex $-1 $306 $400 #
straight-curve $-1 0 -27.989716945749976 7.9588606285692656 1 0 0 I I #
edge $-1 $401 -16.895666153747872 $213 -7.9588606285692656 $211 $402 forward 7 unknown #
point $-1 79.514145329142124 -49.276833159160873 7.9588606285692656 #
point $-1 79.514145329142124 -27.989716945749976 7.9588606285692656 #
plane-surface $-1 0 0 16.895666153747872 0 0 1 1 0 0 forward_v I I I I #
coedge $-1 $224 $403 $321 $404 forward $217 $-1 #
coedge $-1 $319 $219 $403 $405 reversed $130 $-1 #
coedge $-1 $219 $318 $322 $406 reversed $130 $-1 #
edge $-1 $323 92.716449977789054 $407 99.385429683728773 $219 $408 forward 7 unknown #
coedge $-1 $221 $220 $317 $404 reversed $81 $-1 #
coedge $-1 $227 $222 $319 $406 forward $228 $-1 #
vertex $-1 $406 $409 #
straight-curve $-1 76.280959902213027 -11.415081945316008 16.895666153747868 0 -1 0 I I #
coedge $-1 $403 $224 $227 $329 reversed $217 $-1 #
vertex $-1 $225 $410 #
straight-curve $-1 79.514145329142124 -17.670610835514054 113.6252831277387 0 0 1 I I #
straight-curve $-1 2.4157023142579703 -17.670610835514054 150.1521232405932 0.48480960649040278 0 -0.87461971476443456 I I #
edge $-1 $411 -27.989716945749976 $229 -17.670610835514054 $325 $412 forward 7 unknown #
point $-1 79.514145329142124 -17.670610835514054 16.895666153747872 #
point $-1 76.280959902213013 -17.670610835514054 16.895666153747868 #
edge $-1 $413 1 $413 0 $232 $-1 forward 7 unknown #
vertex $-1 $233 $414 #
ellipse-curve $-1 77.022932900913119 -25.925895723702791 13.494445983168063 0.87461971476443456 0 0.48480960649040278 0.24240480324520139 0 -0.43730985738221728 1 I I #
point $-1 78.139957418922748 -25.925895723702791 13.541945732276249 #
edge $-1 $415 1 $415 0 $236 $-1 forward 7 unknown #
vertex $-1 $237 $416 #
ellipse-curve $-1 77.022932900913119 -22.830163890632015 13.494445983168063 0.87461971476443456 0 0.48480960649040278 0.24240480324520139 0 -0.43730985738221728 1 I I #
point $-1 78.139957418922748 -22.830163890632015 13.541945732276249 #
edge $-1 $417 1 $417 0 $240 $-1 forward 7 unknown #
vertex $-1 $241 $418 #
ellipse-curve $-1 77.022932900913119 -19.734432057561239 13.494445983168063 0.87461971476443456 0 0.48480960649040278 0.24240480324520139 0 -0.43730985738221728 1 I I #
point $-1 78.139957418922748 -19.734432057561239 13.541945732276249 #
loop $-1 $-1 $252 $244 #
plane-surface $-1 -79.514145329142124 0 0 1 0 0 0 0 -1 forward_v I I I I #
coedge $-1 $347 $247 $249 $351 reversed $159 $-1 #
coedge $-1 $247 $346 $419 $420 reversed $159 $-1 #
coedge $-1 $255 $250 $247 $349 forward $245 $-1 #
edge $-1 $352 -26.982123618652523 $421 -14.471444696410131 $348 $422 forward 7 unknown #
coedge $-1 $249 $248 $355 $423 reversed $100 $-1 #
edge $-1 $424 -1.9479204584885432e-014 $352 17.106195024224949 $346 $425 forward 7 unknown #
vertex $-1 $251 $426 #
straight-curve $-1 -67.003466406899733 12.981182285360291 16.895666153747875 0 1 0 I I #
coedge $-1 $419 $252 $255 $359 reversed $344 $-1 #
coedge $-1 $252 $419 $350 $423 forward $344 $-1 #
vertex $-1 $253 $427 #
straight-curve $-1 -79.514145329142124 20.868601387971985 60.767598447133935 0 0 1 I I #
straight-curve $-1 -79.51414532914211 20.868601387971985 5.2292690616127544 -0.7313536940579346 0 -0.68199836817093118 I I #
edge $-1 $421 -31.056127753469177 $256 -20.868601387971985 $354 $428 forward 7 unknown #
point $-1 -79.514145329142124 20.868601387971985 16.895666153747872 #
point $-1 -67.003466406899733 20.868601387971985 16.895666153747872 #
edge $-1 $429 1 $429 0 $259 $-1 forward 7 unknown #
vertex $-1 $260 $430 #
ellipse-curve $-1 -70.842329152330962 23.779323206685476 8.4711136468715633 -0.68199836817093118 0 0.7313536940579346 0.7313536940579346 0 0.68199836817093118 1 I I #
point $-1 -72.527452173962999 23.779323206685476 11.744465975851243 #
edge $-1 $431 1 $431 0 $263 $-1 forward 7 unknown #
vertex $-1 $264 $432 #
ellipse-curve $-1 -70.842329152330962 28.145405934755701 8.4711136468715633 -0.68199836817093118 0 0.7313536940579346 0.7313536940579346 0 0.68199836817093118 1 I I #
point $-1 -72.527452173962999 28.145405934755701 11.744465975851243 #
plane-surface $-1 79.514145329142124 0 0 -1 0 0 0 0 1 forward_v I I I I #
coedge $-1 $272 $270 $274 $375 reversed $181 $-1 #
edge $-1 $285 -16.895666153747872 $377 16.895666153747872 $284 $433 forward 7 unknown #
vertex $-1 $375 $434 #
straight-curve $-1 -79.514145329142124 -49.276833159160873 0 0 0 -1 I I #
edge $-1 $373 -49.276833159160873 $377 49.276833159160873 $371 $435 forward 7 unknown #
straight-curve $-1 0 -49.276833159160873 -16.895666153747872 -1 0 0 I I #
vertex $-1 $277 $436 #
straight-curve $-1 0 49.276833159160873 -16.895666153747872 1 0 0 I I #
point $-1 79.514145329142124 49.276833159160873 -16.895666153747872 #
point $-1 79.514145329142124 -49.276833159160873 -16.895666153747872 #
straight-curve $-1 -79.514145329142124 0 16.895666153747872 0 -1 0 I I #
point $-1 -79.514145329142124 49.276833159160873 16.895666153747872 #
point $-1 -79.514145329142124 -49.276833159160873 16.895666153747872 #
straight-curve $-1 79.514145329142124 -49.276833159160873 0 0 0 -1 I I #
straight-curve $-1 79.514145329142124 49.276833159160873 0 0 0 -1 I I #
plane-surface $-1 79.514145329142124 0 0 -1 0 0 0 0 1 forward_v I I I I #
coedge $-1 $298 $297 $308 $398 reversed $122 $-1 #
coedge $-1 $437 $301 $298 $389 forward $295 $-1 #
edge $-1 $390 27.989716945749976 $438 49.276833159160873 $298 $439 forward 7 unknown #
vertex $-1 $389 $440 #
straight-curve $-1 -79.514145329142124 -27.989716945749976 6.2136316955792843 0 0 -1 I I #
coedge $-1 $301 $437 $303 $394 forward $295 $-1 #
straight-curve $-1 0 -27.989716945749976 16.895666153747872 -1 0 0 I I #
edge $-1 $401 -49.276833159160873 $304 -27.989716945749976 $303 $441 forward 7 unknown #
point $-1 79.514145329142124 -27.989716945749976 16.895666153747872 #
straight-curve $-1 -79.514145329142124 -19.316637526227712 7.9588606285692656 0 -1 0 I I #
coedge $-1 $308 $307 $437 $442 reversed $200 $-1 #
edge $-1 $438 -16.895666153747872 $309 -7.9588606285692656 $387 $443 forward 7 unknown #
point $-1 -79.514145329142124 -49.276833159160873 7.9588606285692656 #
point $-1 -79.514145329142124 -27.989716945749976 7.9588606285692656 #
vertex $-1 $394 $444 #
straight-curve $-1 79.514145329142124 -49.276833159160873 0 0 0 -1 I I #
coedge $-1 $317 $325 $318 $405 forward $217 $-1 #
edge $-1 $407 -16.574635000433968 $326 -6.2555288901980468 $317 $445 forward 7 unknown #
edge $-1 $411 -10.682034458168587 $407 -4.8492133299897908 $403 $446 forward 7 unknown #
edge $-1 $323 76.280959902213013 $411 79.514145329142124 $322 $447 forward 7 unknown #
vertex $-1 $320 $448 #
straight-curve $-1 31.331134273293994 -27.989716945749976 97.987301187292701 0.48480960649040278 0 -0.87461971476443456 I I #
point $-1 76.280959902213013 -27.989716945749976 16.895666153747872 #
point $-1 79.514145329142124 -17.670610835514054 11.062845025569089 #
vertex $-1 $329 $449 #
straight-curve $-1 79.514145329142124 0 16.895666153747872 0 1 0 I I #
vertex $-1 $332 $450 #
point $-1 77.265337704158327 -25.925895723702791 13.057136125785846 #
vertex $-1 $336 $451 #
point $-1 77.265337704158327 -22.830163890632015 13.057136125785846 #
vertex $-1 $340 $452 #
point $-1 77.265337704158327 -19.734432057561239 13.057136125785846 #
coedge $-1 $355 $354 $347 $420 forward $344 $-1 #
edge $-1 $421 43.871932293386067 $424 55.538329385521195 $419 $453 forward 7 unknown #
vertex $-1 $359 $454 #
straight-curve $-1 -93.985590025552256 31.056127753469177 16.895666153747868 -1 0 0 I I #
edge $-1 $424 -18.074945468108886 $356 -7.8874191026116947 $355 $455 forward 7 unknown #
vertex $-1 $423 $456 #
straight-curve $-1 -79.51414532914211 31.056127753469177 5.2292690616127544 0.7313536940579346 0 0.68199836817093118 I I #
point $-1 -67.003466406899733 31.056127753469177 16.895666153747872 #
point $-1 -79.514145329142124 20.868601387971985 5.2292690616127411 #
straight-curve $-1 -79.514145329142124 0 16.895666153747872 0 -1 0 I I #
vertex $-1 $362 $457 #
point $-1 -70.110975458273032 23.779323206685476 9.1531120150424954 #
vertex $-1 $366 $458 #
point $-1 -70.110975458273032 28.145405934755701 9.1531120150424954 #
straight-curve $-1 -79.514145329142124 49.276833159160873 0 0 0 -1 I I #
point $-1 -79.514145329142124 -49.276833159160873 -16.895666153747872 #
straight-curve $-1 -79.514145329142124 0 -16.895666153747872 0 1 0 I I #
point $-1 -79.514145329142124 49.276833159160873 -16.895666153747872 #
coedge $-1 $392 $388 $397 $442 forward $295 $-1 #
vertex $-1 $389 $459 #
straight-curve $-1 -79.514145329142124 0 16.895666153747872 0 -1 0 I I #
point $-1 -79.514145329142124 -27.989716945749976 16.895666153747872 #
straight-curve $-1 79.514145329142124 0 16.895666153747872 0 1 0 I I #
edge $-1 $438 -79.514145329142124 $401 79.514145329142124 $397 $460 forward 7 unknown #
straight-curve $-1 -79.514145329142124 -49.276833159160873 0 0 0 -1 I I #
point $-1 79.514145329142124 -49.276833159160873 16.895666153747872 #
straight-curve $-1 79.514145329142124 -11.415081945316008 11.062845025569075 0 1 0 I I #
straight-curve $-1 79.514145329142124 -27.989716945749976 6.2136316955792843 0 0 -1 I I #
straight-curve $-1 0 -27.989716945749976 16.895666153747872 1 0 0 I I #
point $-1 79.514145329142124 -27.989716945749976 11.062845025569075 #
point $-1 79.514145329142124 -27.989716945749976 16.895666153747872 #
point $-1 76.585623043530902 -25.925895723702791 13.252041179922863 #
point $-1 76.585623043530902 -22.830163890632015 13.252041179922863 #
point $-1 76.585623043530902 -19.734432057561239 13.252041179922863 #
straight-curve $-1 -79.514145329142124 31.056127753469177 60.767598447133935 0 0 -1 I I #
point $-1 -79.514145329142124 31.056127753469177 16.895666153747872 #
straight-curve $-1 -79.514145329142124 12.981182285360291 5.2292690616127313 0 -1 0 I I #
point $-1 -79.514145329142124 31.056127753469177 5.2292690616127411 #
point $-1 -70.160330784160038 23.779323206685476 7.7397599528136292 #
point $-1 -70.160330784160038 28.145405934755701 7.7397599528136292 #
point $-1 -79.514145329142124 -49.276833159160873 16.895666153747872 #
straight-curve $-1 0 -49.276833159160873 16.895666153747872 1 0 0 I I #
End-of-ACIS-data 