500 0 10 0           
7 Unknown 11 ACIS 5.0 NT 24 Thu Mar 25 23:30:36 1999 
-1 9.9999999999999995e-007 1e-010 
body $-1 $10 $-1 $11 #
body $-1 $12 $-1 $13 #
body $-1 $14 $-1 $15 #
body $-1 $16 $-1 $17 #
body $-1 $18 $-1 $19 #
body $-1 $20 $-1 $21 #
body $-1 $22 $-1 $23 #
body $-1 $24 $-1 $25 #
body $-1 $26 $-1 $27 #
body $-1 $28 $-1 $29 #
lump $-1 $-1 $30 $0 #
transform $-1 1 0 0 0 1 0 0 0 1 74.319895016327408 50.24525706742137 22.301766846609993 1 rotate no_reflect no_shear #
lump $-1 $-1 $31 $1 #
transform $-1 1 0 0 0 1 0 0 0 1 74.319895016327408 50.24525706742137 22.301766846609993 1 rotate no_reflect no_shear #
lump $-1 $-1 $32 $2 #
transform $-1 1 0 0 0 1 0 0 0 1 74.319895016327408 50.24525706742137 22.301766846609993 1 rotate no_reflect no_shear #
lump $-1 $-1 $33 $3 #
transform $-1 1 0 0 0 1 0 0 0 1 74.319895016327408 50.24525706742137 22.301766846609993 1 rotate no_reflect no_shear #
lump $-1 $-1 $34 $4 #
transform $-1 1 0 0 0 1 0 0 0 1 74.319895016327408 50.24525706742137 22.301766846609993 1 rotate no_reflect no_shear #
lump $-1 $-1 $35 $5 #
transform $-1 1 0 0 0 1 0 0 0 1 74.319895016327408 50.24525706742137 22.301766846609993 1 rotate no_reflect no_shear #
lump $-1 $-1 $36 $6 #
transform $-1 1 0 0 0 1 0 0 0 1 74.319895016327408 50.24525706742137 22.301766846609993 1 rotate no_reflect no_shear #
lump $-1 $-1 $37 $7 #
transform $-1 1 0 0 0 1 0 0 0 1 74.319895016327408 50.24525706742137 22.301766846609993 1 rotate no_reflect no_shear #
lump $-1 $-1 $38 $8 #
transform $-1 1 0 0 0 1 0 0 0 1 74.319895016327408 50.24525706742137 22.301766846609993 1 rotate no_reflect no_shear #
lump $-1 $-1 $39 $9 #
transform $-1 1 0 0 0 1 0 0 0 1 74.319895016327408 50.24525706742137 22.301766846609993 1 rotate no_reflect no_shear #
shell $-1 $-1 $-1 $40 $-1 $10 #
shell $-1 $-1 $-1 $41 $-1 $12 #
shell $-1 $-1 $-1 $42 $-1 $14 #
shell $-1 $-1 $-1 $43 $-1 $16 #
shell $-1 $-1 $-1 $44 $-1 $18 #
shell $-1 $-1 $-1 $45 $-1 $20 #
shell $-1 $-1 $-1 $46 $-1 $22 #
shell $-1 $-1 $-1 $47 $-1 $24 #
shell $-1 $-1 $-1 $48 $-1 $26 #
shell $-1 $-1 $-1 $49 $-1 $28 #
face $-1 $50 $51 $30 $-1 $52 forward single #
face $-1 $53 $54 $31 $-1 $55 reversed single #
face $-1 $56 $57 $32 $-1 $58 reversed single #
face $-1 $59 $60 $33 $-1 $61 forward single #
face $-1 $62 $63 $34 $-1 $64 forward single #
face $-1 $65 $66 $35 $-1 $67 forward single #
face $-1 $68 $69 $36 $-1 $70 reversed single #
face $-1 $71 $72 $37 $-1 $73 forward single #
face $-1 $74 $75 $38 $-1 $76 reversed single #
face $-1 $77 $78 $39 $-1 $79 forward single #
face $-1 $80 $81 $30 $-1 $82 reversed single #
loop $-1 $-1 $83 $40 #
plane-surface $-1 0 0 22.301766846609993 0 0 1 1 0 0 forward_v I I I I #
face $-1 $84 $85 $31 $-1 $86 reversed single #
loop $-1 $-1 $87 $41 #
plane-surface $-1 0 -38.681096388129248 9.3078415078432482 0 0 1 1 0 0 forward_v I I I I #
face $-1 $88 $89 $32 $-1 $90 reversed single #
loop $-1 $-1 $91 $42 #
plane-surface $-1 -148.63979102835356 34.770221435475001 146.49898675750859 0 1 0 -0.50000000669873634 0 0.8660253999169214 forward_v I I I I #
face $-1 $92 $93 $33 $-1 $94 forward single #
loop $-1 $95 $96 $43 #
cone-surface $-1 -69.145234825279175 37.865228561864278 17.867606096925684 0.50000000669873634 0 -0.8660253999169214 1.2990380998753821 0 0.75000001004810457 1 I I 0 1 1.5 forward I I I I #
face $-1 $97 $98 $34 $-1 $99 forward single #
loop $-1 $100 $101 $44 #
cone-surface $-1 -69.145234825279175 42.507739251448179 17.867606096925684 0.50000000669873634 0 -0.8660253999169214 1.2990380998753821 0 0.75000001004810457 1 I I 0 1 1.5 forward I I I I #
face $-1 $102 $103 $35 $-1 $104 forward single #
loop $-1 $105 $106 $45 #
cone-surface $-1 -69.145234825279175 47.150249941032079 17.867606096925684 0.50000000669873634 0 -0.8660253999169214 1.2990380998753821 0 0.75000001004810457 1 I I 0 1 1.5 forward I I I I #
face $-1 $107 $108 $36 $-1 $109 reversed single #
loop $-1 $-1 $110 $46 #
plane-surface $-1 114.42955294982671 -8.8994442659750082 220.35416014618465 0 -1 0 -0.82903758062907751 0 -0.55919289150049634 forward_v I I I I #
face $-1 $111 $112 $37 $-1 $113 forward single #
loop $-1 $114 $115 $47 #
cone-surface $-1 69.329717837023281 -16.514604354947558 16.675605428772673 -0.82903758062907751 0 -0.55919289150049634 0.83878933725074445 0 -1.2435563709436162 1 I I 0 1 1.5 forward I I I I #
face $-1 $116 $117 $38 $-1 $118 reversed single #
loop $-1 $-1 $119 $48 #
plane-surface $-1 114.42955294982671 29.781652122154242 220.35416014618465 0 -1 0 -0.82903758062907751 0 -0.55919289150049634 forward_v I I I I #
face $-1 $120 $121 $39 $-1 $122 forward single #
loop $-1 $123 $124 $49 #
cone-surface $-1 69.329717837023281 22.16649203318169 16.675605428772673 -0.82903758062907751 0 -0.55919289150049634 0.83878933725074445 0 -1.2435563709436162 1 I I 0 1 1.5 forward I I I I #
face $-1 $125 $126 $30 $-1 $127 reversed single #
loop $-1 $-1 $128 $50 #
plane-surface $-1 0 0 -22.301766846609993 0 0 1 1 0 0 forward_v I I I I #
coedge $-1 $129 $130 $131 $132 forward $51 $-1 #
face $-1 $133 $134 $31 $-1 $135 reversed single #
loop $-1 $-1 $136 $53 #
plane-surface $-1 0 -27.116935708837129 15.804804177226622 0 -1 0 0 0 -1 forward_v I I I I #
coedge $-1 $137 $138 $139 $140 reversed $54 $-1 #
face $-1 $141 $142 $32 $-1 $143 forward single #
loop $-1 $-1 $144 $56 #
plane-surface $-1 -74.319895016327379 42.507739251448179 17.773153150911469 -0.50000000669873634 0 0.8660253999169214 0.8660253999169214 0 0.50000000669873634 forward_v I I I I #
coedge $-1 $145 $146 $147 $148 reversed $57 $-1 #
face $-1 $-1 $149 $33 $-1 $150 forward single #
loop $-1 $151 $152 $59 #
cone-surface $-1 -67.517469063549967 37.865228561864278 15.048233145152935 0.50000000669873634 0 -0.8660253999169214 0.64951904993769105 0 0.37500000502405229 1 I I -0.70710678118654757 0.70710678118654757 0.75 forward I I I I #
loop $-1 $-1 $153 $43 #
coedge $-1 $96 $96 $154 $155 reversed $60 $-1 #
face $-1 $-1 $156 $34 $-1 $157 forward single #
loop $-1 $158 $159 $62 #
cone-surface $-1 -67.517469063549967 42.507739251448179 15.048233145152935 0.50000000669873634 0 -0.8660253999169214 0.64951904993769105 0 0.37500000502405229 1 I I -0.70710678118654757 0.70710678118654757 0.75 forward I I I I #
loop $-1 $-1 $160 $44 #
coedge $-1 $101 $101 $161 $162 reversed $63 $-1 #
face $-1 $-1 $163 $35 $-1 $164 forward single #
loop $-1 $165 $166 $65 #
cone-surface $-1 -67.517469063549967 47.150249941032079 15.048233145152935 0.50000000669873634 0 -0.8660253999169214 0.64951904993769105 0 0.37500000502405229 1 I I -0.70710678118654757 0.70710678118654757 0.75 forward I I I I #
loop $-1 $-1 $167 $45 #
coedge $-1 $106 $106 $168 $169 reversed $66 $-1 #
face $-1 $170 $171 $36 $-1 $172 reversed single #
loop $-1 $-1 $173 $68 #
plane-surface $-1 -8.7984189640595076 -16.514604354947558 137.23584616579774 0.82903758062907751 0 0.55919289150049634 0.55919289150049634 0 -0.82903758062907751 forward_v I I I I #
coedge $-1 $174 $175 $176 $177 reversed $69 $-1 #
face $-1 $-1 $178 $37 $-1 $179 forward single #
loop $-1 $180 $181 $71 #
cone-surface $-1 66.514912981579343 -16.514604354947558 14.776995639659177 -0.82903758062907751 0 -0.55919289150049634 0.41939466862537222 0 -0.62177818547180808 1 I I -0.70710678118654757 0.70710678118654757 0.75 forward I I I I #
loop $-1 $-1 $182 $47 #
coedge $-1 $115 $115 $183 $184 reversed $72 $-1 #
face $-1 $185 $186 $38 $-1 $187 reversed single #
loop $-1 $-1 $188 $74 #
plane-surface $-1 -8.7984189640595076 22.16649203318169 137.23584616579774 0.82903758062907751 0 0.55919289150049634 0.55919289150049634 0 -0.82903758062907751 forward_v I I I I #
coedge $-1 $189 $190 $191 $192 reversed $75 $-1 #
face $-1 $-1 $193 $39 $-1 $194 forward single #
loop $-1 $195 $196 $77 #
cone-surface $-1 66.514912981579343 22.16649203318169 14.776995639659177 -0.82903758062907751 0 -0.55919289150049634 0.41939466862537222 0 -0.62177818547180808 1 I I -0.70710678118654757 0.70710678118654757 0.75 forward I I I I #
loop $-1 $-1 $197 $49 #
coedge $-1 $124 $124 $198 $199 reversed $78 $-1 #
face $-1 $200 $201 $30 $-1 $202 reversed single #
loop $-1 $-1 $203 $80 #
plane-surface $-1 0 -50.24525706742137 0 0 1 0 0 0 1 forward_v I I I I #
coedge $-1 $204 $205 $206 $207 forward $81 $-1 #
coedge $-1 $208 $83 $209 $210 forward $51 $-1 #
coedge $-1 $83 $208 $211 $212 forward $51 $-1 #
coedge $-1 $213 $214 $83 $132 reversed $215 $-1 #
edge $-1 $216 -50.24525706742137 $217 50.24525706742137 $131 $218 forward 7 unknown #
face $-1 $219 $220 $31 $-1 $221 reversed single #
loop $-1 $-1 $222 $84 #
plane-surface $-1 -74.319895016327408 0 0 1 0 0 0 0 -1 forward_v I I I I #
coedge $-1 $223 $224 $225 $226 reversed $85 $-1 #
coedge $-1 $227 $87 $228 $229 reversed $54 $-1 #
coedge $-1 $87 $227 $223 $230 forward $54 $-1 #
coedge $-1 $225 $231 $87 $140 forward $232 $-1 #
edge $-1 $233 -30.904708873356739 $234 -7.7763875147725052 $139 $235 forward 7 unknown #
face $-1 $236 $237 $32 $-1 $238 reversed single #
loop $-1 $-1 $147 $88 #
plane-surface $-1 0 0 22.301766846609993 0 0 1 1 0 0 forward_v I I I I #
coedge $-1 $239 $240 $241 $242 reversed $89 $-1 #
coedge $-1 $146 $91 $243 $244 reversed $57 $-1 #
coedge $-1 $91 $145 $239 $245 reversed $57 $-1 #
coedge $-1 $241 $246 $91 $148 forward $142 $-1 #
edge $-1 $247 4.9784937061758683e-007 $248 7.8437893665355745 $147 $249 forward 7 unknown #
loop $-1 $-1 $154 $92 #
plane-surface $-1 -74.319895016327379 42.507739251448179 17.773153150911469 -0.50000000669873634 0 0.8660253999169214 0.8660253999169214 0 0.50000000669873634 forward_v I I I I #
loop $-1 $-1 $250 $59 #
coedge $-1 $152 $152 $153 $251 reversed $93 $-1 #
coedge $-1 $153 $153 $152 $251 forward $95 $-1 #
coedge $-1 $154 $154 $96 $155 forward $149 $-1 #
edge $-1 $252 0 $252 6.2831853071796004 $154 $253 forward 7 unknown #
loop $-1 $-1 $161 $97 #
plane-surface $-1 -74.319895016327379 42.507739251448179 17.773153150911469 -0.50000000669873634 0 0.8660253999169214 0.8660253999169214 0 0.50000000669873634 forward_v I I I I #
loop $-1 $-1 $254 $62 #
coedge $-1 $159 $159 $160 $255 reversed $98 $-1 #
coedge $-1 $160 $160 $159 $255 forward $100 $-1 #
coedge $-1 $161 $161 $101 $162 forward $156 $-1 #
edge $-1 $256 0 $256 6.2831853071796004 $161 $257 forward 7 unknown #
loop $-1 $-1 $168 $102 #
plane-surface $-1 -74.319895016327379 42.507739251448179 17.773153150911469 -0.50000000669873634 0 0.8660253999169214 0.8660253999169214 0 0.50000000669873634 forward_v I I I I #
loop $-1 $-1 $258 $65 #
coedge $-1 $166 $166 $167 $259 reversed $103 $-1 #
coedge $-1 $167 $167 $166 $259 forward $105 $-1 #
coedge $-1 $168 $168 $106 $169 forward $163 $-1 #
edge $-1 $260 0 $260 6.2831853071796004 $168 $261 forward 7 unknown #
face $-1 $262 $263 $36 $-1 $264 reversed single #
loop $-1 $-1 $265 $107 #
plane-surface $-1 114.42955294982671 -24.129764443920109 220.35416014618465 0 1 0 0.82903758062907751 0 0.55919289150049634 forward_v I I I I #
coedge $-1 $266 $267 $268 $269 reversed $108 $-1 #
coedge $-1 $175 $110 $270 $271 reversed $69 $-1 #
coedge $-1 $110 $174 $266 $272 reversed $69 $-1 #
coedge $-1 $268 $273 $110 $177 forward $274 $-1 #
edge $-1 $275 -17.105118541414051 $276 -11.510817522750024 $176 $277 forward 7 unknown #
loop $-1 $-1 $183 $111 #
plane-surface $-1 -8.7984189640595076 -16.514604354947558 137.23584616579774 0.82903758062907751 0 0.55919289150049634 0.55919289150049634 0 -0.82903758062907751 forward_v I I I I #
loop $-1 $-1 $278 $71 #
coedge $-1 $181 $181 $182 $279 reversed $112 $-1 #
coedge $-1 $182 $182 $181 $279 forward $114 $-1 #
coedge $-1 $183 $183 $115 $184 forward $178 $-1 #
edge $-1 $280 0 $280 6.2831853071796004 $183 $281 forward 7 unknown #
face $-1 $282 $283 $38 $-1 $284 reversed single #
loop $-1 $-1 $285 $116 #
plane-surface $-1 114.42955294982671 14.55133194420914 220.35416014618465 0 1 0 0.82903758062907751 0 0.55919289150049634 forward_v I I I I #
coedge $-1 $286 $287 $288 $289 reversed $117 $-1 #
coedge $-1 $190 $119 $290 $291 reversed $75 $-1 #
coedge $-1 $119 $189 $286 $292 reversed $75 $-1 #
coedge $-1 $288 $293 $119 $192 forward $294 $-1 #
edge $-1 $295 -17.105118541414051 $296 -11.510817522750024 $191 $297 forward 7 unknown #
loop $-1 $-1 $198 $120 #
plane-surface $-1 -8.7984189640595076 22.16649203318169 137.23584616579774 0.82903758062907751 0 0.55919289150049634 0.55919289150049634 0 -0.82903758062907751 forward_v I I I I #
loop $-1 $-1 $298 $77 #
coedge $-1 $196 $196 $197 $299 reversed $121 $-1 #
coedge $-1 $197 $197 $196 $299 forward $123 $-1 #
coedge $-1 $198 $198 $124 $199 forward $193 $-1 #
edge $-1 $300 0 $300 6.2831853071796004 $198 $301 forward 7 unknown #
face $-1 $302 $303 $30 $-1 $304 reversed single #
loop $-1 $-1 $305 $125 #
plane-surface $-1 -74.319895016327408 0 0 1 0 0 0 0 -1 forward_v I I I I #
coedge $-1 $306 $211 $307 $308 forward $126 $-1 #
coedge $-1 $309 $128 $306 $310 forward $81 $-1 #
coedge $-1 $128 $309 $311 $312 forward $81 $-1 #
coedge $-1 $214 $213 $128 $207 reversed $215 $-1 #
edge $-1 $313 -50.24525706742137 $314 50.24525706742137 $206 $315 forward 7 unknown #
coedge $-1 $130 $129 $316 $317 forward $51 $-1 #
coedge $-1 $318 $319 $129 $210 reversed $303 $-1 #
edge $-1 $217 -74.319895016327408 $320 74.319895016327408 $209 $321 forward 7 unknown #
coedge $-1 $203 $322 $130 $212 reversed $126 $-1 #
edge $-1 $323 -74.319895016327408 $216 74.319895016327408 $211 $324 forward 7 unknown #
coedge $-1 $206 $131 $322 $325 forward $215 $-1 #
coedge $-1 $131 $206 $318 $326 reversed $215 $-1 #
loop $-1 $-1 $213 $302 #
vertex $-1 $132 $327 #
vertex $-1 $132 $328 #
straight-curve $-1 74.319895016327408 0 22.301766846609993 0 1 0 I I #
face $-1 $329 $330 $31 $-1 $331 forward single #
loop $-1 $-1 $228 $133 #
plane-surface $-1 0 -50.24525706742137 0 0 1 0 0 0 1 forward_v I I I I #
coedge $-1 $332 $333 $334 $335 forward $134 $-1 #
coedge $-1 $334 $136 $138 $230 reversed $85 $-1 #
coedge $-1 $136 $334 $336 $337 reversed $85 $-1 #
coedge $-1 $338 $139 $136 $226 forward $232 $-1 #
edge $-1 $234 1.4054394192299373 $339 14.399364757996683 $225 $340 forward 7 unknown #
coedge $-1 $138 $137 $332 $341 reversed $54 $-1 #
coedge $-1 $342 $343 $137 $229 forward $220 $-1 #
edge $-1 $344 -74.319895016327408 $233 74.319895016327408 $228 $345 forward 7 unknown #
edge $-1 $346 -74.319895016327408 $234 74.319895016327408 $223 $347 forward 7 unknown #
coedge $-1 $139 $338 $342 $348 forward $232 $-1 #
loop $-1 $-1 $225 $329 #
vertex $-1 $229 $349 #
vertex $-1 $140 $350 #
straight-curve $-1 74.319895016327408 -19.340548194064624 9.3078415078432482 0 1 0 I I #
face $-1 $-1 $351 $32 $-1 $352 reversed single #
loop $-1 $-1 $353 $141 #
plane-surface $-1 0 50.24525706742137 0 0 -1 0 0 0 -1 forward_v I I I I #
coedge $-1 $354 $144 $146 $245 forward $89 $-1 #
coedge $-1 $144 $354 $353 $355 reversed $89 $-1 #
coedge $-1 $356 $147 $144 $242 forward $142 $-1 #
edge $-1 $248 13.516351809750912 $357 28.991387441697267 $241 $358 forward 7 unknown #
coedge $-1 $359 $360 $145 $244 forward $351 $-1 #
edge $-1 $361 -55.47634022784284 $247 -50.947726532144301 $243 $362 forward 7 unknown #
edge $-1 $248 -9.0572272700530938 $361 3.3495706591782877e-014 $146 $363 forward 7 unknown #
coedge $-1 $147 $356 $359 $364 forward $142 $-1 #
vertex $-1 $244 $365 #
vertex $-1 $148 $366 #
straight-curve $-1 -74.319895514176778 34.770221435475001 22.301766846609993 1 0 0 I I #
coedge $-1 $250 $250 $-1 $367 reversed $151 $-1 #
edge $-1 $368 0 $368 6.2831853071796004 $152 $369 forward 7 unknown #
vertex $-1 $155 $370 #
ellipse-curve $-1 -70.39800058198432 37.865228561864278 20.037459998760717 -0.50000000669873634 0 0.8660253999169214 1.2990380998753821 0 0.75000001004810457 1 I I #
coedge $-1 $254 $254 $-1 $371 reversed $158 $-1 #
edge $-1 $372 0 $372 6.2831853071796004 $159 $373 forward 7 unknown #
vertex $-1 $162 $374 #
ellipse-curve $-1 -70.39800058198432 42.507739251448179 20.037459998760717 -0.50000000669873634 0 0.8660253999169214 1.2990380998753821 0 0.75000001004810457 1 I I #
coedge $-1 $258 $258 $-1 $375 reversed $165 $-1 #
edge $-1 $376 0 $376 6.2831853071796004 $166 $377 forward 7 unknown #
vertex $-1 $169 $378 #
ellipse-curve $-1 -70.39800058198432 47.150249941032079 20.037459998760717 -0.50000000669873634 0 0.8660253999169214 1.2990380998753821 0 0.75000001004810457 1 I I #
face $-1 $-1 $274 $36 $-1 $379 forward single #
loop $-1 $-1 $380 $170 #
plane-surface $-1 74.319895016327408 0 0 -1 0 0 0 0 1 forward_v I I I I #
coedge $-1 $381 $382 $383 $384 reversed $171 $-1 #
coedge $-1 $385 $173 $175 $272 forward $108 $-1 #
coedge $-1 $173 $385 $381 $386 forward $108 $-1 #
coedge $-1 $383 $176 $173 $269 forward $274 $-1 #
edge $-1 $276 0.64214208850122922 $387 15.87246226644633 $268 $388 forward 7 unknown #
coedge $-1 $389 $390 $174 $271 forward $263 $-1 #
edge $-1 $391 -96.169205821180825 $275 -87.875313226482334 $270 $392 forward 7 unknown #
edge $-1 $276 138.63554801939767 $391 148.63979003265484 $175 $393 forward 7 unknown #
coedge $-1 $176 $383 $389 $394 forward $274 $-1 #
loop $-1 $-1 $383 $262 #
vertex $-1 $271 $395 #
vertex $-1 $177 $396 #
straight-curve $-1 57.214776474913357 -8.8994442659750082 22.301766846609993 -1 0 0 I I #
coedge $-1 $278 $278 $-1 $397 reversed $180 $-1 #
edge $-1 $398 0 $398 6.2831853071796004 $181 $399 forward 7 unknown #
vertex $-1 $184 $400 #
ellipse-curve $-1 71.52274450699538 -16.514604354947558 18.154820549260769 0.82903758062907751 0 0.55919289150049634 0.83878933725074445 0 -1.2435563709436162 1 I I #
face $-1 $-1 $294 $38 $-1 $401 forward single #
loop $-1 $-1 $402 $185 #
plane-surface $-1 74.319895016327408 0 0 -1 0 0 0 0 1 forward_v I I I I #
coedge $-1 $403 $404 $405 $406 reversed $186 $-1 #
coedge $-1 $407 $188 $190 $292 forward $117 $-1 #
coedge $-1 $188 $407 $403 $408 forward $117 $-1 #
coedge $-1 $405 $191 $188 $289 forward $294 $-1 #
edge $-1 $296 -18.698406105563397 $409 -3.4680859276182954 $288 $410 forward 7 unknown #
coedge $-1 $411 $412 $189 $291 forward $283 $-1 #
edge $-1 $413 -96.169205821180825 $295 -87.875313226482334 $290 $414 forward 7 unknown #
edge $-1 $296 138.63554801939767 $413 148.63979003265484 $190 $415 forward 7 unknown #
coedge $-1 $191 $405 $411 $416 forward $294 $-1 #
loop $-1 $-1 $405 $282 #
vertex $-1 $291 $417 #
vertex $-1 $192 $418 #
straight-curve $-1 57.214776474913357 29.781652122154242 22.301766846609993 -1 0 0 I I #
coedge $-1 $298 $298 $-1 $419 reversed $195 $-1 #
edge $-1 $420 0 $420 6.2831853071796004 $196 $421 forward 7 unknown #
vertex $-1 $199 $422 #
ellipse-curve $-1 71.52274450699538 22.16649203318169 18.154820549260769 0.82903758062907751 0 0.55919289150049634 0.83878933725074445 0 -1.2435563709436162 1 I I #
face $-1 $-1 $215 $30 $-1 $423 reversed single #
loop $-1 $-1 $318 $200 #
plane-surface $-1 0 50.24525706742137 0 0 -1 0 0 0 -1 forward_v I I I I #
coedge $-1 $424 $316 $319 $425 forward $201 $-1 #
coedge $-1 $322 $203 $204 $310 reversed $126 $-1 #
coedge $-1 $316 $424 $203 $308 reversed $201 $-1 #
edge $-1 $323 -22.301766846609993 $426 22.301766846609993 $307 $427 forward 7 unknown #
coedge $-1 $205 $204 $424 $428 forward $81 $-1 #
edge $-1 $314 -74.319895016327408 $426 74.319895016327408 $306 $429 forward 7 unknown #
coedge $-1 $319 $318 $205 $312 reversed $303 $-1 #
edge $-1 $430 -74.319895016327408 $313 74.319895016327408 $311 $431 forward 7 unknown #
vertex $-1 $207 $432 #
vertex $-1 $325 $433 #
straight-curve $-1 74.319895016327408 0 -22.301766846609993 0 -1 0 I I #
coedge $-1 $305 $307 $208 $317 reversed $201 $-1 #
edge $-1 $320 -50.24525706742137 $323 50.24525706742137 $316 $434 forward 7 unknown #
coedge $-1 $311 $209 $214 $326 forward $303 $-1 #
coedge $-1 $209 $311 $305 $425 reversed $303 $-1 #
vertex $-1 $210 $435 #
straight-curve $-1 0 50.24525706742137 22.301766846609993 -1 0 0 I I #
coedge $-1 $211 $306 $213 $325 reversed $126 $-1 #
vertex $-1 $317 $436 #
straight-curve $-1 0 -50.24525706742137 22.301766846609993 1 0 0 I I #
edge $-1 $216 -22.301766846609993 $314 22.301766846609993 $213 $437 forward 7 unknown #
edge $-1 $217 -22.301766846609993 $313 22.301766846609993 $214 $438 forward 7 unknown #
point $-1 74.319895016327408 -50.24525706742137 22.301766846609993 #
point $-1 74.319895016327408 50.24525706742137 22.301766846609993 #
face $-1 $-1 $232 $31 $-1 $439 reversed single #
loop $-1 $-1 $336 $219 #
plane-surface $-1 0 0 22.301766846609993 0 0 1 1 0 0 forward_v I I I I #
coedge $-1 $440 $222 $227 $341 forward $134 $-1 #
coedge $-1 $222 $440 $441 $442 reversed $134 $-1 #
coedge $-1 $224 $223 $222 $335 reversed $85 $-1 #
edge $-1 $443 -14.399364757996683 $346 -1.4054394192299373 $222 $444 forward 7 unknown #
coedge $-1 $441 $445 $224 $337 forward $330 $-1 #
edge $-1 $339 -74.319895016327408 $443 74.319895016327408 $336 $446 forward 7 unknown #
coedge $-1 $231 $225 $445 $447 reversed $232 $-1 #
vertex $-1 $226 $448 #
straight-curve $-1 74.319895016327408 -27.116935708837129 7.9024020886133108 0 0 1 I I #
edge $-1 $346 7.7763875147725052 $344 30.904708873356739 $332 $449 forward 7 unknown #
coedge $-1 $450 $228 $231 $348 reversed $220 $-1 #
coedge $-1 $228 $450 $440 $451 forward $220 $-1 #
vertex $-1 $229 $452 #
straight-curve $-1 0 -50.24525706742137 9.3078415078432482 1 0 0 I I #
vertex $-1 $341 $453 #
straight-curve $-1 0 -27.116935708837129 9.3078415078432482 1 0 0 I I #
edge $-1 $454 -22.301766846609993 $233 -9.3078415078432482 $231 $455 forward 7 unknown #
point $-1 74.319895016327408 -50.245257067421363 9.3078415078432482 #
point $-1 74.319895016327408 -27.116935708837129 9.3078415078432482 #
loop $-1 $-1 $243 $236 #
plane-surface $-1 -74.319895016327408 0 0 1 0 0 0 0 -1 forward_v I I I I #
coedge $-1 $456 $457 $240 $355 forward $237 $-1 #
coedge $-1 $240 $239 $360 $458 reversed $89 $-1 #
edge $-1 $357 18.680942784339472 $459 27.738170054392597 $353 $460 forward 7 unknown #
coedge $-1 $246 $241 $457 $461 forward $142 $-1 #
vertex $-1 $461 $462 #
straight-curve $-1 -66.476106147641204 21.253869625724089 22.301766846609993 0 1 0 I I #
coedge $-1 $463 $243 $246 $364 reversed $351 $-1 #
coedge $-1 $243 $463 $354 $458 forward $351 $-1 #
vertex $-1 $244 $464 #
straight-curve $-1 -74.319895016327408 34.770221435475001 73.249493378754295 0 0 1 I I #
straight-curve $-1 -74.319895016327379 34.770221435475001 17.773153150911469 -0.8660253999169214 0 -0.50000000669873634 I I #
edge $-1 $465 -50.24525706742137 $247 -34.770221435475001 $359 $466 forward 7 unknown #
point $-1 -74.319895016327408 34.770221435475001 22.301766846609993 #
point $-1 -66.476106147641204 34.770221435475001 22.301766846609993 #
edge $-1 $467 1 $467 0 $250 $-1 forward 7 unknown #
vertex $-1 $251 $468 #
ellipse-curve $-1 -67.892469068574016 37.865228561864278 15.697752195090626 -0.50000000669873634 0 0.8660253999169214 1.2990380998753821 0 0.75000001004810457 1 I I #
point $-1 -69.098962482108945 37.865228561864278 20.787460008808846 #
edge $-1 $469 1 $469 0 $254 $-1 forward 7 unknown #
vertex $-1 $255 $470 #
ellipse-curve $-1 -67.892469068574016 42.507739251448179 15.697752195090626 -0.50000000669873634 0 0.8660253999169214 1.2990380998753821 0 0.75000001004810457 1 I I #
point $-1 -69.098962482108945 42.507739251448179 20.787460008808846 #
edge $-1 $471 1 $471 0 $258 $-1 forward 7 unknown #
vertex $-1 $259 $472 #
ellipse-curve $-1 -67.892469068574016 47.150249941032079 15.697752195090626 -0.50000000669873634 0 0.8660253999169214 1.2990380998753821 0 0.75000001004810457 1 I I #
point $-1 -69.098962482108945 47.150249941032079 20.787460008808846 #
plane-surface $-1 0 0 22.301766846609993 0 0 1 1 0 0 forward_v I I I I #
coedge $-1 $390 $389 $382 $473 forward $263 $-1 #
coedge $-1 $382 $265 $267 $386 reversed $171 $-1 #
coedge $-1 $265 $381 $380 $473 reversed $171 $-1 #
coedge $-1 $273 $268 $265 $384 forward $274 $-1 #
edge $-1 $387 11.510817522750024 $474 17.105118541414051 $383 $475 forward 7 unknown #
coedge $-1 $267 $266 $390 $476 reversed $108 $-1 #
edge $-1 $477 -148.63979003265484 $387 -138.63554801939767 $381 $478 forward 7 unknown #
vertex $-1 $269 $479 #
straight-curve $-1 68.725593997663381 -8.2573021774737789 22.301766846609993 0 -1 0 I I #
coedge $-1 $380 $270 $273 $394 reversed $263 $-1 #
coedge $-1 $270 $380 $385 $476 forward $263 $-1 #
vertex $-1 $271 $480 #
straight-curve $-1 74.319895016327408 -8.8994442659750082 110.17708007309233 0 0 1 I I #
straight-curve $-1 -8.7984189640595076 -8.8994442659750082 137.23584616579774 0.55919289150049634 0 -0.82903758062907751 I I #
edge $-1 $474 -24.129764443920109 $275 -8.8994442659750082 $389 $481 forward 7 unknown #
point $-1 74.319895016327408 -8.8994442659750082 22.301766846609993 #
point $-1 68.725593997663381 -8.8994442659750082 22.301766846609993 #
edge $-1 $482 1 $482 0 $278 $-1 forward 7 unknown #
vertex $-1 $279 $483 #
ellipse-curve $-1 67.136691167051154 -16.514604354947558 15.196390308284549 0.82903758062907751 0 0.55919289150049634 0.83878933725074445 0 -1.2435563709436162 1 I I #
point $-1 72.361533844246168 -16.514604354947558 16.911264178317175 #
plane-surface $-1 0 0 22.301766846609993 0 0 1 1 0 0 forward_v I I I I #
coedge $-1 $412 $411 $404 $484 forward $283 $-1 #
coedge $-1 $404 $285 $287 $408 reversed $186 $-1 #
coedge $-1 $285 $403 $402 $484 reversed $186 $-1 #
coedge $-1 $293 $288 $285 $406 forward $294 $-1 #
edge $-1 $409 11.510817522750024 $485 17.105118541414051 $405 $486 forward 7 unknown #
coedge $-1 $287 $286 $412 $487 reversed $117 $-1 #
edge $-1 $488 -148.63979003265484 $409 -138.63554801939767 $403 $489 forward 7 unknown #
vertex $-1 $289 $490 #
straight-curve $-1 68.725593997663381 11.083246016590845 22.301766846609993 0 -1 0 I I #
coedge $-1 $402 $290 $293 $416 reversed $283 $-1 #
coedge $-1 $290 $402 $407 $487 forward $283 $-1 #
vertex $-1 $291 $491 #
straight-curve $-1 74.319895016327408 29.781652122154242 110.17708007309233 0 0 1 I I #
straight-curve $-1 -8.7984189640595076 29.781652122154242 137.23584616579774 0.55919289150049634 0 -0.82903758062907751 I I #
edge $-1 $485 14.55133194420914 $295 29.781652122154242 $411 $492 forward 7 unknown #
point $-1 74.319895016327408 29.781652122154242 22.301766846609993 #
point $-1 68.725593997663381 29.781652122154242 22.301766846609993 #
edge $-1 $493 1 $493 0 $298 $-1 forward 7 unknown #
vertex $-1 $299 $494 #
ellipse-curve $-1 67.136691167051154 22.16649203318169 15.196390308284549 0.82903758062907751 0 0.55919289150049634 0.83878933725074445 0 -1.2435563709436162 1 I I #
point $-1 72.361533844246168 22.16649203318169 16.911264178317175 #
plane-surface $-1 74.319895016327408 0 0 -1 0 0 0 0 1 forward_v I I I I #
coedge $-1 $307 $305 $309 $428 reversed $201 $-1 #
edge $-1 $320 -22.301766846609993 $430 22.301766846609993 $319 $495 forward 7 unknown #
vertex $-1 $428 $496 #
straight-curve $-1 -74.319895016327408 -50.24525706742137 0 0 0 -1 I I #
edge $-1 $426 -50.24525706742137 $430 50.24525706742137 $424 $497 forward 7 unknown #
straight-curve $-1 0 -50.24525706742137 -22.301766846609993 -1 0 0 I I #
vertex $-1 $312 $498 #
straight-curve $-1 0 50.24525706742137 -22.301766846609993 1 0 0 I I #
point $-1 74.319895016327408 50.24525706742137 -22.301766846609993 #
point $-1 74.319895016327408 -50.24525706742137 -22.301766846609993 #
straight-curve $-1 -74.319895016327408 0 22.301766846609993 0 -1 0 I I #
point $-1 -74.319895016327408 50.24525706742137 22.301766846609993 #
point $-1 -74.319895016327408 -50.24525706742137 22.301766846609993 #
straight-curve $-1 74.319895016327408 -50.24525706742137 0 0 0 -1 I I #
straight-curve $-1 74.319895016327408 50.24525706742137 0 0 0 -1 I I #
plane-surface $-1 74.319895016327408 0 0 -1 0 0 0 0 1 forward_v I I I I #
coedge $-1 $333 $332 $343 $451 reversed $134 $-1 #
coedge $-1 $499 $336 $333 $442 forward $330 $-1 #
edge $-1 $443 27.116935708837129 $500 50.24525706742137 $333 $501 forward 7 unknown #
vertex $-1 $442 $502 #
straight-curve $-1 -74.319895016327408 -27.116935708837129 7.9024020886133108 0 0 -1 I I #
coedge $-1 $336 $499 $338 $447 forward $330 $-1 #
straight-curve $-1 0 -27.116935708837129 22.301766846609993 -1 0 0 I I #
edge $-1 $454 -50.24525706742137 $339 -27.116935708837129 $338 $503 forward 7 unknown #
point $-1 74.319895016327408 -27.116935708837129 22.301766846609993 #
straight-curve $-1 -74.319895016327408 -19.340548194064624 9.3078415078432482 0 -1 0 I I #
coedge $-1 $343 $342 $499 $504 reversed $220 $-1 #
edge $-1 $500 -22.301766846609993 $344 -9.3078415078432482 $440 $505 forward 7 unknown #
point $-1 -74.319895016327408 -50.245257067421363 9.3078415078432482 #
point $-1 -74.319895016327408 -27.116935708837129 9.3078415078432482 #
vertex $-1 $447 $506 #
straight-curve $-1 74.319895016327408 -50.24525706742137 0 0 0 -1 I I #
coedge $-1 $457 $353 $463 $507 reversed $237 $-1 #
coedge $-1 $353 $456 $356 $461 reversed $237 $-1 #
edge $-1 $459 -28.991387441697267 $361 -13.516351809750912 $360 $508 forward 7 unknown #
vertex $-1 $355 $509 #
straight-curve $-1 -50.297935202008489 50.24525706742137 31.642238363918441 -0.8660253999169214 0 -0.50000000669873634 I I #
edge $-1 $357 66.476106147641204 $465 74.319895016327408 $457 $510 forward 7 unknown #
point $-1 -66.476106147641204 50.245257067421356 22.301766846609993 #
coedge $-1 $360 $359 $456 $507 forward $351 $-1 #
point $-1 -74.319895016327408 34.770221435475001 17.773153150911451 #
vertex $-1 $461 $511 #
straight-curve $-1 -74.319895016327408 0 22.301766846609993 0 -1 0 I I #
vertex $-1 $367 $512 #
point $-1 -66.593430968698641 37.865228561864278 16.44775220513873 #
vertex $-1 $371 $513 #
point $-1 -66.593430968698641 42.507739251448179 16.44775220513873 #
vertex $-1 $375 $514 #
point $-1 -66.593430968698641 47.150249941032079 16.44775220513873 #
edge $-1 $474 87.875313226482334 $477 96.169205821180825 $380 $515 forward 7 unknown #
vertex $-1 $394 $516 #
straight-curve $-1 57.214776474913357 -24.129764443920109 22.301766846609993 1 0 0 I I #
edge $-1 $477 -15.87246226644633 $391 -0.64214208850122922 $390 $517 forward 7 unknown #
vertex $-1 $476 $518 #
straight-curve $-1 -8.7984189640595076 -24.129764443920109 137.23584616579774 -0.55919289150049634 0 0.82903758062907751 I I #
point $-1 68.725593997663381 -24.129764443920109 22.301766846609993 #
point $-1 74.319895016327408 -8.8994442659750082 14.007874251911502 #
straight-curve $-1 74.319895016327408 0 22.301766846609993 0 1 0 I I #
vertex $-1 $397 $519 #
point $-1 67.975480504301899 -16.514604354947558 13.952833937340932 #
edge $-1 $485 87.875313226482334 $488 96.169205821180825 $402 $520 forward 7 unknown #
vertex $-1 $416 $521 #
straight-curve $-1 57.214776474913357 14.55133194420914 22.301766846609993 1 0 0 I I #
edge $-1 $488 3.4680859276182954 $413 18.698406105563397 $412 $522 forward 7 unknown #
vertex $-1 $487 $523 #
straight-curve $-1 -8.7984189640595076 14.55133194420914 137.23584616579774 -0.55919289150049634 0 0.82903758062907751 I I #
point $-1 68.725593997663381 14.55133194420914 22.301766846609993 #
point $-1 74.319895016327408 29.781652122154242 14.007874251911502 #
straight-curve $-1 74.319895016327408 0 22.301766846609993 0 1 0 I I #
vertex $-1 $419 $524 #
point $-1 67.975480504301899 22.16649203318169 13.952833937340932 #
straight-curve $-1 -74.319895016327408 50.24525706742137 0 0 0 -1 I I #
point $-1 -74.319895016327408 -50.24525706742137 -22.301766846609993 #
straight-curve $-1 -74.319895016327408 0 -22.301766846609993 0 1 0 I I #
point $-1 -74.319895016327408 50.24525706742137 -22.301766846609993 #
coedge $-1 $445 $441 $450 $504 forward $330 $-1 #
vertex $-1 $442 $525 #
straight-curve $-1 -74.319895016327408 0 22.301766846609993 0 -1 0 I I #
point $-1 -74.319895016327408 -27.116935708837129 22.301766846609993 #
straight-curve $-1 74.319895016327408 0 22.301766846609993 0 1 0 I I #
edge $-1 $500 -74.319895016327408 $454 74.319895016327408 $450 $526 forward 7 unknown #
straight-curve $-1 -74.319895016327408 -50.24525706742137 0 0 0 -1 I I #
point $-1 74.319895016327408 -50.24525706742137 22.301766846609993 #
edge $-1 $465 -22.301766846609993 $459 -17.773153150911451 $456 $527 forward 7 unknown #
straight-curve $-1 -74.319895016327408 21.253869625724089 17.773153150911455 0 -1 0 I I #
point $-1 -74.319895016327408 50.245257067421356 17.773153150911451 #
straight-curve $-1 0 50.24525706742137 22.301766846609993 -1 0 0 I I #
point $-1 -74.319895016327408 50.24525706742137 22.301766846609993 #
point $-1 -67.142469058525919 37.865228561864278 14.398714095215244 #
point $-1 -67.142469058525919 42.507739251448179 14.398714095215244 #
point $-1 -67.142469058525919 47.150249941032079 14.398714095215244 #
straight-curve $-1 74.319895016327408 -24.129764443920109 110.17708007309233 0 0 -1 I I #
point $-1 74.319895016327408 -24.129764443920109 22.301766846609993 #
straight-curve $-1 74.319895016327422 -8.2573021774737789 14.007874251911481 0 1 0 I I #
point $-1 74.319895016327408 -24.129764443920109 14.007874251911502 #
point $-1 65.893134796107532 -16.514604354947558 14.357600971033804 #
straight-curve $-1 74.319895016327408 14.55133194420914 110.17708007309233 0 0 -1 I I #
point $-1 74.319895016327408 14.55133194420914 22.301766846609993 #
straight-curve $-1 74.319895016327422 11.083246016590845 14.007874251911481 0 1 0 I I #
point $-1 74.319895016327408 14.55133194420914 14.007874251911502 #
point $-1 65.893134796107532 22.16649203318169 14.357600971033804 #
point $-1 -74.319895016327408 -50.24525706742137 22.301766846609993 #
straight-curve $-1 0 -50.24525706742137 22.301766846609993 1 0 0 I I #
straight-curve $-1 -74.319895016327408 50.24525706742137 0 0 0 -1 I I #
End-of-ACIS-data 