500 0 12 0           
7 Unknown 11 ACIS 5.0 NT 24 Thu Mar 25 17:04:26 1999 
-1 9.9999999999999995e-007 1e-010 
body $-1 $12 $-1 $13 #
body $-1 $14 $-1 $15 #
body $-1 $16 $-1 $17 #
body $-1 $18 $-1 $19 #
body $-1 $20 $-1 $21 #
body $-1 $22 $-1 $23 #
body $-1 $24 $-1 $25 #
body $-1 $26 $-1 $27 #
body $-1 $28 $-1 $29 #
body $-1 $30 $-1 $31 #
body $-1 $32 $-1 $33 #
body $-1 $34 $-1 $35 #
lump $-1 $-1 $36 $0 #
transform $-1 1 0 0 0 1 0 0 0 1 40.643330179754024 22.706035755624292 7.3393568865663363 1 rotate no_reflect no_shear #
lump $-1 $-1 $37 $1 #
transform $-1 1 0 0 0 1 0 0 0 1 40.643330179754024 22.706035755624292 7.3393568865663363 1 rotate no_reflect no_shear #
lump $-1 $-1 $38 $2 #
transform $-1 1 0 0 0 1 0 0 0 1 40.643330179754024 22.706035755624292 7.3393568865663363 1 rotate no_reflect no_shear #
lump $-1 $-1 $39 $3 #
transform $-1 1 0 0 0 1 0 0 0 1 40.643330179754024 22.706035755624292 7.3393568865663363 1 rotate no_reflect no_shear #
lump $-1 $-1 $40 $4 #
transform $-1 1 0 0 0 1 0 0 0 1 40.643330179754024 22.706035755624292 7.3393568865663363 1 rotate no_reflect no_shear #
lump $-1 $-1 $41 $5 #
transform $-1 1 0 0 0 1 0 0 0 1 40.643330179754024 22.706035755624292 7.3393568865663363 1 rotate no_reflect no_shear #
lump $-1 $-1 $42 $6 #
transform $-1 1 0 0 0 1 0 0 0 1 40.643330179754024 22.706035755624292 7.3393568865663363 1 rotate no_reflect no_shear #
lump $-1 $-1 $43 $7 #
transform $-1 1 0 0 0 1 0 0 0 1 40.643330179754024 22.706035755624292 7.3393568865663363 1 rotate no_reflect no_shear #
lump $-1 $-1 $44 $8 #
transform $-1 1 0 0 0 1 0 0 0 1 40.643330179754024 22.706035755624292 7.3393568865663363 1 rotate no_reflect no_shear #
lump $-1 $-1 $45 $9 #
transform $-1 1 0 0 0 1 0 0 0 1 40.643330179754024 22.706035755624292 7.3393568865663363 1 rotate no_reflect no_shear #
lump $-1 $-1 $46 $10 #
transform $-1 1 0 0 0 1 0 0 0 1 40.643330179754024 22.706035755624292 7.3393568865663363 1 rotate no_reflect no_shear #
lump $-1 $-1 $47 $11 #
transform $-1 1 0 0 0 1 0 0 0 1 40.643330179754024 22.706035755624292 7.3393568865663363 1 rotate no_reflect no_shear #
shell $-1 $-1 $-1 $48 $-1 $12 #
shell $-1 $-1 $-1 $49 $-1 $14 #
shell $-1 $-1 $-1 $50 $-1 $16 #
shell $-1 $-1 $-1 $51 $-1 $18 #
shell $-1 $-1 $-1 $52 $-1 $20 #
shell $-1 $-1 $-1 $53 $-1 $22 #
shell $-1 $-1 $-1 $54 $-1 $24 #
shell $-1 $-1 $-1 $55 $-1 $26 #
shell $-1 $-1 $-1 $56 $-1 $28 #
shell $-1 $-1 $-1 $57 $-1 $30 #
shell $-1 $-1 $-1 $58 $-1 $32 #
shell $-1 $-1 $-1 $59 $-1 $34 #
face $-1 $60 $61 $36 $-1 $62 forward single #
face $-1 $63 $64 $37 $-1 $65 reversed single #
face $-1 $66 $67 $38 $-1 $68 reversed single #
face $-1 $69 $70 $39 $-1 $71 reversed single #
face $-1 $72 $73 $40 $-1 $74 forward single #
face $-1 $75 $76 $41 $-1 $77 forward single #
face $-1 $78 $79 $42 $-1 $80 reversed single #
face $-1 $81 $82 $43 $-1 $83 forward single #
face $-1 $84 $85 $44 $-1 $86 forward single #
face $-1 $87 $88 $45 $-1 $89 reversed single #
face $-1 $90 $91 $46 $-1 $92 forward single #
face $-1 $93 $94 $47 $-1 $95 forward single #
face $-1 $96 $97 $36 $-1 $98 reversed single #
loop $-1 $-1 $99 $48 #
plane-surface $-1 0 0 7.3393568865663363 0 0 1 1 0 0 forward_v I I I I #
face $-1 $100 $101 $37 $-1 $102 reversed single #
loop $-1 $-1 $103 $49 #
plane-surface $-1 0 -18.65812968009546 3.685200689208612 0 0 1 1 0 0 forward_v I I I I #
face $-1 $104 $105 $38 $-1 $106 reversed single #
loop $-1 $-1 $107 $50 #
plane-surface $-1 0 18.658129680095463 3.685200689208612 0 0 1 1 0 0 forward_v I I I I #
face $-1 $108 $109 $39 $-1 $110 reversed single #
loop $-1 $-1 $111 $51 #
plane-surface $-1 -101.99115217114013 -10.629689474958575 57.108816282040308 0 1 0 -0.75470958851134928 0 0.65605901945558964 forward_v I I I I #
face $-1 $112 $113 $40 $-1 $114 forward single #
loop $-1 $115 $116 $52 #
cone-surface $-1 -38.403589127193271 -8.7585074371236455 4.9575283187761627 0.75470958851134928 0 -0.65605901945558964 0.32802950972779482 0 0.37735479425567464 1 I I 0 1 0.5 forward I I I I #
face $-1 $117 $118 $41 $-1 $119 forward single #
loop $-1 $120 $121 $53 #
cone-surface $-1 -38.403589127193271 -5.9517343803712492 4.9575283187761627 0.75470958851134928 0 -0.65605901945558964 0.32802950972779482 0 0.37735479425567464 1 I I 0 1 0.5 forward I I I I #
face $-1 $122 $123 $42 $-1 $124 reversed single #
loop $-1 $-1 $125 $54 #
plane-surface $-1 -101.99115217114013 3.9805341296080554 57.108816282040308 0 1 0 -0.75470958851134928 0 0.65605901945558964 forward_v I I I I #
face $-1 $126 $127 $43 $-1 $128 forward single #
loop $-1 $129 $130 $55 #
cone-surface $-1 -38.403589127193271 5.8517161674429836 4.9575283187761627 0.75470958851134928 0 -0.65605901945558964 0.32802950972779482 0 0.37735479425567464 1 I I 0 1 0.5 forward I I I I #
face $-1 $131 $132 $44 $-1 $133 forward single #
loop $-1 $134 $135 $56 #
cone-surface $-1 -38.403589127193271 8.6584892241953781 4.9575283187761627 0.75470958851134928 0 -0.65605901945558964 0.32802950972779482 0 0.37735479425567464 1 I I 0 1 0.5 forward I I I I #
face $-1 $136 $137 $45 $-1 $138 reversed single #
loop $-1 $-1 $139 $57 #
plane-surface $-1 50.662468012315749 0.50026064639352441 117.78724493991008 0 -1 0 -0.7660444514056185 0 -0.64278759981090561 forward_v I I I I #
face $-1 $140 $141 $46 $-1 $142 forward single #
loop $-1 $143 $144 $58 #
cone-surface $-1 38.523716139702735 -5.0277290998400339 4.9584070969416221 -0.7660444514056185 0 -0.64278759981090561 0.3213937999054528 0 -0.38302222570280925 1 I I 0 1 0.5 forward I I I I #
face $-1 $145 $146 $47 $-1 $147 forward single #
loop $-1 $148 $149 $59 #
cone-surface $-1 38.523716139702735 -1.710935252099901 4.9584070969416221 -0.7660444514056185 0 -0.64278759981090561 0.3213937999054528 0 -0.38302222570280925 1 I I 0 1 0.5 forward I I I I #
face $-1 $150 $151 $36 $-1 $152 reversed single #
loop $-1 $-1 $153 $60 #
plane-surface $-1 0 0 -7.3393568865663363 0 0 1 1 0 0 forward_v I I I I #
coedge $-1 $154 $155 $156 $157 forward $61 $-1 #
face $-1 $158 $159 $37 $-1 $160 reversed single #
loop $-1 $-1 $161 $63 #
plane-surface $-1 0 -14.610223604566627 5.5122787878874737 0 -1 0 0 0 -1 forward_v I I I I #
coedge $-1 $162 $163 $164 $165 reversed $64 $-1 #
face $-1 $166 $167 $38 $-1 $168 forward single #
loop $-1 $-1 $169 $66 #
plane-surface $-1 0 14.610223604566631 5.5122787878874737 0 1 0 0 0 1 forward_v I I I I #
coedge $-1 $170 $171 $172 $173 reversed $67 $-1 #
face $-1 $174 $175 $39 $-1 $176 reversed single #
loop $-1 $-1 $177 $69 #
plane-surface $-1 -40.643330179754003 -7.3551209087474483 3.7799695917619118 -0.75470958851134928 0 0.65605901945558964 0.65605901945558964 0 0.75470958851134928 forward_v I I I I #
coedge $-1 $178 $179 $180 $181 reversed $70 $-1 #
face $-1 $-1 $182 $40 $-1 $183 forward single #
loop $-1 $184 $185 $72 #
cone-surface $-1 -37.522234723092161 -8.7585074371236455 4.1913786435242981 0.75470958851134928 0 -0.65605901945558964 0.16401475486389741 0 0.18867739712783732 1 I I -0.70710678118654746 0.70710678118654746 0.25 forward I I I I #
loop $-1 $-1 $186 $52 #
coedge $-1 $116 $116 $187 $188 reversed $73 $-1 #
face $-1 $-1 $189 $41 $-1 $190 forward single #
loop $-1 $191 $192 $75 #
cone-surface $-1 -37.522234723092161 -5.9517343803712492 4.1913786435242981 0.75470958851134928 0 -0.65605901945558964 0.16401475486389741 0 0.18867739712783732 1 I I -0.70710678118654746 0.70710678118654746 0.25 forward I I I I #
loop $-1 $-1 $193 $53 #
coedge $-1 $121 $121 $194 $195 reversed $76 $-1 #
face $-1 $196 $197 $42 $-1 $198 reversed single #
loop $-1 $-1 $199 $78 #
plane-surface $-1 -40.643330179754003 7.2551026958191827 3.7799695917619118 -0.75470958851134928 0 0.65605901945558964 0.65605901945558964 0 0.75470958851134928 forward_v I I I I #
coedge $-1 $200 $201 $202 $203 reversed $79 $-1 #
face $-1 $-1 $204 $43 $-1 $205 forward single #
loop $-1 $206 $207 $81 #
cone-surface $-1 -37.522234723092161 5.8517161674429836 4.1913786435242981 0.75470958851134928 0 -0.65605901945558964 0.16401475486389741 0 0.18867739712783732 1 I I -0.70710678118654746 0.70710678118654746 0.25 forward I I I I #
loop $-1 $-1 $208 $55 #
coedge $-1 $130 $130 $209 $210 reversed $82 $-1 #
face $-1 $-1 $211 $44 $-1 $212 forward single #
loop $-1 $213 $214 $84 #
cone-surface $-1 -37.522234723092161 8.6584892241953781 4.1913786435242981 0.75470958851134928 0 -0.65605901945558964 0.16401475486389741 0 0.18867739712783732 1 I I -0.70710678118654746 0.70710678118654746 0.25 forward I I I I #
loop $-1 $-1 $215 $56 #
coedge $-1 $135 $135 $216 $217 reversed $85 $-1 #
face $-1 $218 $219 $45 $-1 $220 reversed single #
loop $-1 $-1 $221 $87 #
plane-surface $-1 -11.606727129378427 -3.3693321759699657 65.537187630777623 0.7660444514056185 0 0.64278759981090561 0.64278759981090561 0 -0.7660444514056185 forward_v I I I I #
coedge $-1 $222 $223 $224 $225 reversed $88 $-1 #
face $-1 $-1 $226 $46 $-1 $227 forward single #
loop $-1 $228 $229 $90 #
cone-surface $-1 37.920731124236973 -5.0277290998400339 4.4524426061056337 -0.7660444514056185 0 -0.64278759981090561 0.1606968999527264 0 -0.19151111285140462 1 I I -0.70710678118654746 0.70710678118654746 0.25 forward I I I I #
loop $-1 $-1 $230 $58 #
coedge $-1 $144 $144 $231 $232 reversed $91 $-1 #
face $-1 $-1 $233 $47 $-1 $234 forward single #
loop $-1 $235 $236 $93 #
cone-surface $-1 37.920731124236973 -1.710935252099901 4.4524426061056337 -0.7660444514056185 0 -0.64278759981090561 0.1606968999527264 0 -0.19151111285140462 1 I I -0.70710678118654746 0.70710678118654746 0.25 forward I I I I #
loop $-1 $-1 $237 $59 #
coedge $-1 $149 $149 $238 $239 reversed $94 $-1 #
face $-1 $240 $241 $36 $-1 $242 reversed single #
loop $-1 $-1 $243 $96 #
plane-surface $-1 0 -22.706035755624292 0 0 1 0 0 0 1 forward_v I I I I #
coedge $-1 $244 $245 $246 $247 forward $97 $-1 #
coedge $-1 $248 $99 $249 $250 forward $61 $-1 #
coedge $-1 $99 $248 $251 $252 forward $61 $-1 #
coedge $-1 $253 $254 $99 $157 reversed $255 $-1 #
edge $-1 $256 -22.706035755624292 $257 22.706035755624292 $156 $258 forward 7 unknown #
face $-1 $259 $260 $37 $-1 $261 reversed single #
loop $-1 $-1 $262 $100 #
plane-surface $-1 -40.643330179754024 0 0 1 0 0 0 0 -1 forward_v I I I I #
coedge $-1 $263 $264 $265 $266 reversed $101 $-1 #
coedge $-1 $267 $103 $268 $269 reversed $64 $-1 #
coedge $-1 $103 $267 $263 $270 forward $64 $-1 #
coedge $-1 $265 $271 $103 $165 forward $272 $-1 #
edge $-1 $273 -13.376970915576562 $274 -5.2811587645188975 $164 $275 forward 7 unknown #
face $-1 $276 $277 $38 $-1 $278 reversed single #
loop $-1 $-1 $279 $104 #
plane-surface $-1 0 0 7.3393568865663363 0 0 1 1 0 0 forward_v I I I I #
coedge $-1 $280 $281 $282 $283 reversed $105 $-1 #
coedge $-1 $284 $107 $280 $285 forward $67 $-1 #
coedge $-1 $107 $284 $286 $287 reversed $67 $-1 #
coedge $-1 $288 $289 $107 $173 forward $277 $-1 #
edge $-1 $290 5.2811587645188993 $291 13.376970915576564 $172 $292 forward 7 unknown #
face $-1 $293 $294 $39 $-1 $295 reversed single #
loop $-1 $-1 $296 $108 #
plane-surface $-1 -101.99115217114013 -4.080552342536321 57.108816282040308 0 -1 0 0.75470958851134928 0 -0.65605901945558964 forward_v I I I I #
coedge $-1 $297 $298 $299 $300 reversed $109 $-1 #
coedge $-1 $179 $111 $301 $302 reversed $70 $-1 #
coedge $-1 $111 $178 $297 $303 reversed $70 $-1 #
coedge $-1 $299 $304 $111 $181 forward $305 $-1 #
edge $-1 $306 10.352245905816041 $307 13.446373996991042 $180 $308 forward 7 unknown #
loop $-1 $-1 $187 $112 #
plane-surface $-1 -40.643330179754003 -7.3551209087474483 3.7799695917619118 -0.75470958851134928 0 0.65605901945558964 0.65605901945558964 0 0.75470958851134928 forward_v I I I I #
loop $-1 $-1 $309 $72 #
coedge $-1 $185 $185 $186 $310 reversed $113 $-1 #
coedge $-1 $186 $186 $185 $310 forward $115 $-1 #
coedge $-1 $187 $187 $116 $188 forward $182 $-1 #
edge $-1 $311 0 $311 6.2831853071796004 $187 $312 forward 7 unknown #
loop $-1 $-1 $194 $117 #
plane-surface $-1 -40.643330179754003 -7.3551209087474483 3.7799695917619118 -0.75470958851134928 0 0.65605901945558964 0.65605901945558964 0 0.75470958851134928 forward_v I I I I #
loop $-1 $-1 $313 $75 #
coedge $-1 $192 $192 $193 $314 reversed $118 $-1 #
coedge $-1 $193 $193 $192 $314 forward $120 $-1 #
coedge $-1 $194 $194 $121 $195 forward $189 $-1 #
edge $-1 $315 0 $315 6.2831853071796004 $194 $316 forward 7 unknown #
face $-1 $317 $318 $42 $-1 $319 forward single #
loop $-1 $-1 $320 $122 #
plane-surface $-1 -101.99115217114013 10.529671262030309 57.108816282040308 0 -1 0 0.75470958851134928 0 -0.65605901945558964 forward_v I I I I #
coedge $-1 $321 $322 $323 $324 reversed $123 $-1 #
coedge $-1 $201 $125 $325 $326 reversed $79 $-1 #
coedge $-1 $125 $200 $321 $327 reversed $79 $-1 #
coedge $-1 $323 $328 $125 $203 forward $318 $-1 #
edge $-1 $329 10.352245905816041 $330 13.446373996991042 $202 $331 forward 7 unknown #
loop $-1 $-1 $209 $126 #
plane-surface $-1 -40.643330179754003 7.2551026958191827 3.7799695917619118 -0.75470958851134928 0 0.65605901945558964 0.65605901945558964 0 0.75470958851134928 forward_v I I I I #
loop $-1 $-1 $332 $81 #
coedge $-1 $207 $207 $208 $333 reversed $127 $-1 #
coedge $-1 $208 $208 $207 $333 forward $129 $-1 #
coedge $-1 $209 $209 $130 $210 forward $204 $-1 #
edge $-1 $334 0 $334 6.2831853071796004 $209 $335 forward 7 unknown #
loop $-1 $-1 $216 $131 #
plane-surface $-1 -40.643330179754003 7.2551026958191827 3.7799695917619118 -0.75470958851134928 0 0.65605901945558964 0.65605901945558964 0 0.75470958851134928 forward_v I I I I #
loop $-1 $-1 $336 $84 #
coedge $-1 $214 $214 $215 $337 reversed $132 $-1 #
coedge $-1 $215 $215 $214 $337 forward $134 $-1 #
coedge $-1 $216 $216 $135 $217 forward $211 $-1 #
edge $-1 $338 0 $338 6.2831853071796004 $216 $339 forward 7 unknown #
face $-1 $340 $341 $45 $-1 $342 forward single #
loop $-1 $-1 $343 $136 #
plane-surface $-1 50.662468012315749 -7.2389249983334558 117.78724493991008 0 1 0 0.7660444514056185 0 0.64278759981090561 forward_v I I I I #
coedge $-1 $344 $345 $346 $347 reversed $137 $-1 #
coedge $-1 $223 $139 $348 $349 reversed $88 $-1 #
coedge $-1 $139 $222 $344 $350 reversed $88 $-1 #
coedge $-1 $346 $351 $139 $225 forward $341 $-1 #
edge $-1 $352 -15.312096173596149 $353 -11.89581589872228 $224 $354 forward 7 unknown #
loop $-1 $-1 $231 $140 #
plane-surface $-1 -11.606727129378427 -3.3693321759699657 65.537187630777623 0.7660444514056185 0 0.64278759981090561 0.64278759981090561 0 -0.7660444514056185 forward_v I I I I #
loop $-1 $-1 $355 $90 #
coedge $-1 $229 $229 $230 $356 reversed $141 $-1 #
coedge $-1 $230 $230 $229 $356 forward $143 $-1 #
coedge $-1 $231 $231 $144 $232 forward $226 $-1 #
edge $-1 $357 0 $357 6.2831853071796004 $231 $358 forward 7 unknown #
loop $-1 $-1 $238 $145 #
plane-surface $-1 -11.606727129378427 -3.3693321759699657 65.537187630777623 0.7660444514056185 0 0.64278759981090561 0.64278759981090561 0 -0.7660444514056185 forward_v I I I I #
loop $-1 $-1 $359 $93 #
coedge $-1 $236 $236 $237 $360 reversed $146 $-1 #
coedge $-1 $237 $237 $236 $360 forward $148 $-1 #
coedge $-1 $238 $238 $149 $239 forward $233 $-1 #
edge $-1 $361 0 $361 6.2831853071796004 $238 $362 forward 7 unknown #
face $-1 $363 $364 $36 $-1 $365 reversed single #
loop $-1 $-1 $366 $150 #
plane-surface $-1 -40.643330179754024 0 0 1 0 0 0 0 -1 forward_v I I I I #
coedge $-1 $367 $251 $368 $369 forward $151 $-1 #
coedge $-1 $370 $153 $367 $371 forward $97 $-1 #
coedge $-1 $153 $370 $372 $373 forward $97 $-1 #
coedge $-1 $254 $253 $153 $247 reversed $255 $-1 #
edge $-1 $374 -22.706035755624292 $375 22.706035755624292 $246 $376 forward 7 unknown #
coedge $-1 $155 $154 $377 $378 forward $61 $-1 #
coedge $-1 $379 $380 $154 $250 reversed $364 $-1 #
edge $-1 $257 -40.643330179754024 $381 40.643330179754024 $249 $382 forward 7 unknown #
coedge $-1 $243 $383 $155 $252 reversed $151 $-1 #
edge $-1 $384 -40.643330179754024 $256 40.643330179754024 $251 $385 forward 7 unknown #
coedge $-1 $246 $156 $383 $386 forward $255 $-1 #
coedge $-1 $156 $246 $379 $387 reversed $255 $-1 #
loop $-1 $-1 $253 $363 #
vertex $-1 $157 $388 #
vertex $-1 $157 $389 #
straight-curve $-1 40.643330179754024 0 7.3393568865663363 0 1 0 I I #
face $-1 $390 $391 $37 $-1 $392 forward single #
loop $-1 $-1 $268 $158 #
plane-surface $-1 0 -22.706035755624292 0 0 1 0 0 0 1 forward_v I I I I #
coedge $-1 $393 $394 $395 $396 forward $159 $-1 #
coedge $-1 $395 $161 $163 $270 reversed $101 $-1 #
coedge $-1 $161 $395 $397 $398 reversed $101 $-1 #
coedge $-1 $399 $164 $161 $266 forward $272 $-1 #
edge $-1 $274 0.92906129526487513 $400 4.5832174926225981 $265 $401 forward 7 unknown #
coedge $-1 $163 $162 $393 $402 reversed $64 $-1 #
coedge $-1 $403 $404 $162 $269 forward $260 $-1 #
edge $-1 $405 -40.643330179754024 $273 40.643330179754024 $268 $406 forward 7 unknown #
edge $-1 $407 -40.643330179754024 $274 40.643330179754024 $263 $408 forward 7 unknown #
coedge $-1 $164 $399 $403 $409 forward $272 $-1 #
loop $-1 $-1 $265 $390 #
vertex $-1 $269 $410 #
vertex $-1 $165 $411 #
straight-curve $-1 40.643330179754024 -9.3290648400477298 3.685200689208612 0 1 0 I I #
face $-1 $412 $413 $38 $-1 $414 reversed single #
loop $-1 $-1 $289 $166 #
plane-surface $-1 40.643330179754024 0 0 -1 0 0 0 0 1 forward_v I I I I #
coedge $-1 $415 $416 $281 $417 forward $167 $-1 #
coedge $-1 $418 $169 $170 $285 reversed $105 $-1 #
coedge $-1 $169 $418 $279 $417 reversed $105 $-1 #
coedge $-1 $419 $420 $169 $283 forward $413 $-1 #
edge $-1 $421 0.92906129526487513 $422 4.5832174926225981 $282 $423 forward 7 unknown #
coedge $-1 $171 $170 $420 $424 reversed $67 $-1 #
edge $-1 $290 -40.643330179754024 $421 40.643330179754024 $280 $425 forward 7 unknown #
coedge $-1 $426 $427 $171 $287 forward $428 $-1 #
edge $-1 $291 -40.643330179754024 $429 40.643330179754024 $286 $430 forward 7 unknown #
coedge $-1 $431 $172 $427 $432 reversed $277 $-1 #
coedge $-1 $172 $431 $418 $433 forward $277 $-1 #
vertex $-1 $173 $434 #
vertex $-1 $287 $435 #
straight-curve $-1 40.643330179754024 9.3290648400477316 3.685200689208612 0 1 0 I I #
face $-1 $-1 $305 $39 $-1 $436 forward single #
loop $-1 $-1 $437 $174 #
plane-surface $-1 -40.643330179754024 0 0 1 0 0 0 0 -1 forward_v I I I I #
coedge $-1 $438 $439 $440 $441 reversed $175 $-1 #
coedge $-1 $442 $177 $179 $303 forward $109 $-1 #
coedge $-1 $177 $442 $438 $443 forward $109 $-1 #
coedge $-1 $440 $180 $177 $300 forward $305 $-1 #
edge $-1 $307 -6.9521290205848505 $444 -0.4029918881625969 $299 $445 forward 7 unknown #
coedge $-1 $446 $447 $178 $302 forward $294 $-1 #
edge $-1 $448 -24.774438549258267 $306 -21.215051254453819 $301 $449 forward 7 unknown #
edge $-1 $307 -4.716234362180626 $448 3.2418450280676821e-014 $179 $450 forward 7 unknown #
coedge $-1 $180 $440 $446 $451 forward $305 $-1 #
loop $-1 $-1 $440 $293 #
vertex $-1 $302 $452 #
vertex $-1 $181 $453 #
straight-curve $-1 -50.995576085570065 -10.629689474958575 7.3393568865663354 1 0 0 I I #
coedge $-1 $309 $309 $-1 $454 reversed $184 $-1 #
edge $-1 $455 0 $455 6.2831853071796004 $185 $456 forward 7 unknown #
vertex $-1 $188 $457 #
ellipse-curve $-1 -39.09626613416652 -8.7585074371236455 5.559663239164113 -0.75470958851134928 0 0.65605901945558964 0.32802950972779482 0 0.37735479425567464 1 I I #
coedge $-1 $313 $313 $-1 $458 reversed $191 $-1 #
edge $-1 $459 0 $459 6.2831853071796004 $192 $460 forward 7 unknown #
vertex $-1 $195 $461 #
ellipse-curve $-1 -39.09626613416652 -5.9517343803712492 5.559663239164113 -0.75470958851134928 0 0.65605901945558964 0.32802950972779482 0 0.37735479425567464 1 I I #
face $-1 $-1 $462 $42 $-1 $463 reversed single #
loop $-1 $-1 $202 $196 #
plane-surface $-1 0 0 7.3393568865663363 0 0 1 1 0 0 forward_v I I I I #
coedge $-1 $464 $465 $466 $467 reversed $197 $-1 #
coedge $-1 $468 $199 $201 $327 forward $123 $-1 #
coedge $-1 $199 $468 $464 $469 forward $123 $-1 #
coedge $-1 $466 $202 $199 $324 forward $318 $-1 #
edge $-1 $330 0.35298278169846409 $470 6.9021199141207177 $323 $471 forward 7 unknown #
coedge $-1 $472 $473 $200 $326 forward $462 $-1 #
edge $-1 $474 -24.774438549258267 $329 -21.215051254453819 $325 $475 forward 7 unknown #
edge $-1 $330 -4.716234362180626 $474 3.2418450280676821e-014 $201 $476 forward 7 unknown #
coedge $-1 $202 $466 $472 $477 forward $318 $-1 #
vertex $-1 $203 $478 #
vertex $-1 $203 $479 #
straight-curve $-1 -50.995576085570065 3.9805341296080554 7.3393568865663354 1 0 0 I I #
coedge $-1 $332 $332 $-1 $480 reversed $206 $-1 #
edge $-1 $481 0 $481 6.2831853071796004 $207 $482 forward 7 unknown #
vertex $-1 $210 $483 #
ellipse-curve $-1 -39.09626613416652 5.8517161674429836 5.559663239164113 -0.75470958851134928 0 0.65605901945558964 0.32802950972779482 0 0.37735479425567464 1 I I #
coedge $-1 $336 $336 $-1 $484 reversed $213 $-1 #
edge $-1 $485 0 $485 6.2831853071796004 $214 $486 forward 7 unknown #
vertex $-1 $217 $487 #
ellipse-curve $-1 -39.09626613416652 8.6584892241953781 5.559663239164113 -0.75470958851134928 0 0.65605901945558964 0.32802950972779482 0 0.37735479425567464 1 I I #
face $-1 $-1 $488 $45 $-1 $489 reversed single #
loop $-1 $-1 $224 $218 #
plane-surface $-1 0 0 7.3393568865663363 0 0 1 1 0 0 forward_v I I I I #
coedge $-1 $490 $491 $492 $493 reversed $219 $-1 #
coedge $-1 $494 $221 $223 $350 forward $137 $-1 #
coedge $-1 $221 $494 $490 $495 forward $137 $-1 #
coedge $-1 $492 $224 $221 $347 forward $341 $-1 #
edge $-1 $353 -2.1849267343785073 $496 5.554258910348473 $346 $497 forward 7 unknown #
coedge $-1 $498 $499 $222 $349 forward $488 $-1 #
edge $-1 $500 -55.62562998087158 $352 -51.554265583388705 $348 $501 forward 7 unknown #
edge $-1 $353 75.971871654998395 $500 81.286660359508048 $223 $502 forward 7 unknown #
coedge $-1 $224 $492 $498 $503 forward $341 $-1 #
vertex $-1 $349 $504 #
vertex $-1 $225 $505 #
straight-curve $-1 25.331234006157874 0.50026064639352441 7.3393568865663354 -1 0 0 I I #
coedge $-1 $355 $355 $-1 $506 reversed $228 $-1 #
edge $-1 $507 0 $507 6.2831853071796004 $229 $508 forward 7 unknown #
vertex $-1 $232 $509 #
ellipse-curve $-1 38.935190042317096 -5.0277290998400339 5.3036746878248877 0.7660444514056185 0 0.64278759981090561 0.3213937999054528 0 -0.38302222570280925 1 I I #
coedge $-1 $359 $359 $-1 $510 reversed $235 $-1 #
edge $-1 $511 0 $511 6.2831853071796004 $236 $512 forward 7 unknown #
vertex $-1 $239 $513 #
ellipse-curve $-1 38.935190042317096 -1.710935252099901 5.3036746878248877 0.7660444514056185 0 0.64278759981090561 0.3213937999054528 0 -0.38302222570280925 1 I I #
face $-1 $-1 $255 $36 $-1 $514 reversed single #
loop $-1 $-1 $379 $240 #
plane-surface $-1 0 22.706035755624292 0 0 -1 0 0 0 -1 forward_v I I I I #
coedge $-1 $515 $377 $380 $516 forward $241 $-1 #
coedge $-1 $383 $243 $244 $371 reversed $151 $-1 #
coedge $-1 $377 $515 $243 $369 reversed $241 $-1 #
edge $-1 $384 -7.3393568865663363 $517 7.3393568865663363 $368 $518 forward 7 unknown #
coedge $-1 $245 $244 $515 $519 forward $97 $-1 #
edge $-1 $375 -40.643330179754024 $517 40.643330179754024 $367 $520 forward 7 unknown #
coedge $-1 $380 $379 $245 $373 reversed $364 $-1 #
edge $-1 $521 -40.643330179754024 $374 40.643330179754024 $372 $522 forward 7 unknown #
vertex $-1 $247 $523 #
vertex $-1 $386 $524 #
straight-curve $-1 40.643330179754024 0 -7.3393568865663363 0 -1 0 I I #
coedge $-1 $366 $368 $248 $378 reversed $241 $-1 #
edge $-1 $381 -22.706035755624292 $384 22.706035755624292 $377 $525 forward 7 unknown #
coedge $-1 $372 $249 $254 $387 forward $364 $-1 #
coedge $-1 $249 $372 $366 $516 reversed $364 $-1 #
vertex $-1 $250 $526 #
straight-curve $-1 0 22.706035755624292 7.3393568865663363 -1 0 0 I I #
coedge $-1 $251 $367 $253 $386 reversed $151 $-1 #
vertex $-1 $378 $527 #
straight-curve $-1 0 -22.706035755624292 7.3393568865663363 1 0 0 I I #
edge $-1 $256 -7.3393568865663363 $375 7.3393568865663363 $253 $528 forward 7 unknown #
edge $-1 $257 -7.3393568865663363 $374 7.3393568865663363 $254 $529 forward 7 unknown #
point $-1 40.643330179754024 -22.706035755624292 7.3393568865663363 #
point $-1 40.643330179754024 22.706035755624292 7.3393568865663363 #
face $-1 $-1 $272 $37 $-1 $530 reversed single #
loop $-1 $-1 $397 $259 #
plane-surface $-1 0 0 7.3393568865663363 0 0 1 1 0 0 forward_v I I I I #
coedge $-1 $531 $262 $267 $402 forward $159 $-1 #
coedge $-1 $262 $531 $532 $533 reversed $159 $-1 #
coedge $-1 $264 $263 $262 $396 reversed $101 $-1 #
edge $-1 $534 -4.5832174926225981 $407 -0.92906129526487513 $262 $535 forward 7 unknown #
coedge $-1 $532 $536 $264 $398 forward $391 $-1 #
edge $-1 $400 -40.643330179754024 $534 40.643330179754024 $397 $537 forward 7 unknown #
coedge $-1 $271 $265 $536 $538 reversed $272 $-1 #
vertex $-1 $266 $539 #
straight-curve $-1 40.643330179754024 -14.610223604566627 2.7561393939437369 0 0 1 I I #
edge $-1 $407 5.2811587645188975 $405 13.376970915576562 $393 $540 forward 7 unknown #
coedge $-1 $541 $268 $271 $409 reversed $260 $-1 #
coedge $-1 $268 $541 $531 $542 forward $260 $-1 #
vertex $-1 $269 $543 #
straight-curve $-1 0 -22.706035755624292 3.685200689208612 1 0 0 I I #
vertex $-1 $402 $544 #
straight-curve $-1 0 -14.610223604566627 3.685200689208612 1 0 0 I I #
edge $-1 $545 -7.3393568865663363 $273 -3.685200689208612 $271 $546 forward 7 unknown #
point $-1 40.643330179754024 -22.706035755624292 3.685200689208612 #
point $-1 40.643330179754024 -14.610223604566627 3.685200689208612 #
face $-1 $-1 $428 $38 $-1 $547 reversed single #
loop $-1 $-1 $282 $276 #
plane-surface $-1 -40.643330179754024 0 0 1 0 0 0 0 -1 forward_v I I I I #
coedge $-1 $548 $279 $431 $549 forward $167 $-1 #
coedge $-1 $279 $548 $419 $550 forward $167 $-1 #
edge $-1 $422 -40.643330179754024 $551 40.643330179754024 $279 $552 forward 7 unknown #
coedge $-1 $281 $280 $289 $433 reversed $105 $-1 #
coedge $-1 $553 $282 $416 $550 reversed $413 $-1 #
coedge $-1 $282 $553 $284 $424 forward $413 $-1 #
vertex $-1 $424 $554 #
vertex $-1 $283 $555 #
straight-curve $-1 -40.643330179754024 14.610223604566631 2.7561393939437369 0 0 1 I I #
edge $-1 $429 -13.376970915576564 $421 -5.2811587645188993 $420 $556 forward 7 unknown #
straight-curve $-1 0 14.610223604566631 3.685200689208612 -1 0 0 I I #
coedge $-1 $557 $286 $553 $558 reversed $428 $-1 #
coedge $-1 $286 $557 $288 $432 forward $428 $-1 #
loop $-1 $-1 $286 $412 #
vertex $-1 $287 $559 #
straight-curve $-1 0 22.706035755624292 3.685200689208612 -1 0 0 I I #
coedge $-1 $289 $288 $415 $549 reversed $277 $-1 #
edge $-1 $560 -7.3393568865663363 $291 -3.685200689208612 $288 $561 forward 7 unknown #
edge $-1 $551 -4.5832174926225981 $290 -0.92906129526487513 $289 $562 forward 7 unknown #
point $-1 40.643330179754024 14.610223604566631 3.685200689208612 #
point $-1 40.643330179754024 22.706035755624296 3.685200689208612 #
plane-surface $-1 0 0 7.3393568865663363 0 0 1 1 0 0 forward_v I I I I #
coedge $-1 $447 $446 $439 $563 forward $294 $-1 #
coedge $-1 $439 $296 $298 $443 reversed $175 $-1 #
coedge $-1 $296 $438 $437 $563 reversed $175 $-1 #
coedge $-1 $304 $299 $296 $441 forward $305 $-1 #
edge $-1 $444 -13.446373996991042 $564 -10.352245905816041 $440 $565 forward 7 unknown #
coedge $-1 $298 $297 $447 $566 reversed $109 $-1 #
edge $-1 $567 -3.2418450280676821e-014 $444 4.716234362180626 $438 $568 forward 7 unknown #
vertex $-1 $300 $569 #
straight-curve $-1 -37.549202088579023 -3.6775604543737241 7.3393568865663363 0 1 0 I I #
coedge $-1 $437 $301 $304 $451 reversed $294 $-1 #
coedge $-1 $301 $437 $442 $566 forward $294 $-1 #
vertex $-1 $302 $570 #
straight-curve $-1 -40.643330179754024 -10.629689474958575 28.554408141020154 0 0 1 I I #
straight-curve $-1 -40.643330179754003 -10.629689474958575 3.7799695917619118 -0.65605901945558964 0 -0.75470958851134928 I I #
edge $-1 $564 4.080552342536321 $306 10.629689474958575 $446 $571 forward 7 unknown #
point $-1 -40.643330179754024 -10.629689474958575 7.3393568865663363 #
point $-1 -37.549202088579023 -10.629689474958575 7.3393568865663363 #
edge $-1 $572 1 $572 0 $309 $-1 forward 7 unknown #
vertex $-1 $310 $573 #
ellipse-curve $-1 -37.710912120220001 -8.7585074371236455 4.3553933983881956 -0.75470958851134928 0 0.65605901945558964 0.32802950972779482 0 0.37735479425567464 1 I I #
point $-1 -38.768236624438742 -8.7585074371236455 5.9370180334198048 #
edge $-1 $574 1 $574 0 $313 $-1 forward 7 unknown #
vertex $-1 $314 $575 #
ellipse-curve $-1 -37.710912120220001 -5.9517343803712492 4.3553933983881956 -0.75470958851134928 0 0.65605901945558964 0.32802950972779482 0 0.37735479425567464 1 I I #
point $-1 -38.768236624438742 -5.9517343803712492 5.9370180334198048 #
loop $-1 $-1 $325 $317 #
plane-surface $-1 -40.643330179754024 0 0 1 0 0 0 0 -1 forward_v I I I I #
coedge $-1 $465 $320 $322 $469 reversed $197 $-1 #
coedge $-1 $320 $464 $576 $577 reversed $197 $-1 #
coedge $-1 $328 $323 $320 $467 forward $318 $-1 #
edge $-1 $470 -13.446373996991042 $578 -10.352245905816041 $466 $579 forward 7 unknown #
coedge $-1 $322 $321 $473 $580 reversed $123 $-1 #
edge $-1 $581 -3.2418450280676821e-014 $470 4.716234362180626 $464 $582 forward 7 unknown #
vertex $-1 $324 $583 #
straight-curve $-1 -37.549202088579023 3.6275513479095913 7.3393568865663363 0 1 0 I I #
coedge $-1 $576 $325 $328 $477 reversed $462 $-1 #
coedge $-1 $325 $576 $468 $580 forward $462 $-1 #
vertex $-1 $326 $584 #
straight-curve $-1 -40.643330179754024 3.9805341296080554 28.554408141020154 0 0 1 I I #
straight-curve $-1 -40.643330179754003 3.9805341296080554 3.7799695917619118 -0.65605901945558964 0 -0.75470958851134928 I I #
edge $-1 $578 -10.529671262030309 $329 -3.9805341296080554 $472 $585 forward 7 unknown #
point $-1 -40.643330179754024 3.9805341296080554 7.3393568865663363 #
point $-1 -37.549202088579023 3.9805341296080554 7.3393568865663363 #
edge $-1 $586 1 $586 0 $332 $-1 forward 7 unknown #
vertex $-1 $333 $587 #
ellipse-curve $-1 -37.710912120220001 5.8517161674429836 4.3553933983881956 -0.75470958851134928 0 0.65605901945558964 0.32802950972779482 0 0.37735479425567464 1 I I #
point $-1 -38.768236624438742 5.8517161674429836 5.9370180334198048 #
edge $-1 $588 1 $588 0 $336 $-1 forward 7 unknown #
vertex $-1 $337 $589 #
ellipse-curve $-1 -37.710912120220001 8.6584892241953781 4.3553933983881956 -0.75470958851134928 0 0.65605901945558964 0.32802950972779482 0 0.37735479425567464 1 I I #
point $-1 -38.768236624438742 8.6584892241953781 5.9370180334198048 #
loop $-1 $-1 $348 $340 #
plane-surface $-1 40.643330179754024 0 0 -1 0 0 0 0 1 forward_v I I I I #
coedge $-1 $491 $343 $345 $495 reversed $219 $-1 #
coedge $-1 $343 $490 $590 $591 reversed $219 $-1 #
coedge $-1 $351 $346 $343 $493 forward $341 $-1 #
edge $-1 $496 11.89581589872228 $592 15.312096173596149 $492 $593 forward 7 unknown #
coedge $-1 $345 $344 $499 $594 reversed $137 $-1 #
edge $-1 $595 -81.286660359508048 $496 -75.971871654998395 $490 $596 forward 7 unknown #
vertex $-1 $347 $597 #
straight-curve $-1 37.227049904880147 -1.6846660879849829 7.3393568865663354 0 -1 0 I I #
coedge $-1 $590 $348 $351 $503 reversed $488 $-1 #
coedge $-1 $348 $590 $494 $594 forward $488 $-1 #
vertex $-1 $349 $598 #
straight-curve $-1 40.643330179754024 0.50026064639352441 58.893622469955041 0 0 1 I I #
straight-curve $-1 -11.606727129378427 0.50026064639352441 65.537187630777623 0.64278759981090561 0 -0.7660444514056185 I I #
edge $-1 $592 -7.2389249983334558 $352 0.50026064639352441 $498 $599 forward 7 unknown #
point $-1 40.643330179754024 0.50026064639352441 7.3393568865663363 #
point $-1 37.227049904880154 0.50026064639352441 7.3393568865663354 #
edge $-1 $600 1 $600 0 $355 $-1 forward 7 unknown #
vertex $-1 $356 $601 #
ellipse-curve $-1 38.112242237088374 -5.0277290998400339 4.61313950605836 0.7660444514056185 0 0.64278759981090561 0.3213937999054528 0 -0.38302222570280925 1 I I #
point $-1 39.25658384222254 -5.0277290998400339 4.9206524621220753 #
edge $-1 $602 1 $602 0 $359 $-1 forward 7 unknown #
vertex $-1 $360 $603 #
ellipse-curve $-1 38.112242237088374 -1.710935252099901 4.61313950605836 0.7660444514056185 0 0.64278759981090561 0.3213937999054528 0 -0.38302222570280925 1 I I #
point $-1 39.25658384222254 -1.710935252099901 4.9206524621220753 #
plane-surface $-1 40.643330179754024 0 0 -1 0 0 0 0 1 forward_v I I I I #
coedge $-1 $368 $366 $370 $519 reversed $241 $-1 #
edge $-1 $381 -7.3393568865663363 $521 7.3393568865663363 $380 $604 forward 7 unknown #
vertex $-1 $519 $605 #
straight-curve $-1 -40.643330179754024 -22.706035755624292 0 0 0 -1 I I #
edge $-1 $517 -22.706035755624292 $521 22.706035755624292 $515 $606 forward 7 unknown #
straight-curve $-1 0 -22.706035755624292 -7.3393568865663363 -1 0 0 I I #
vertex $-1 $373 $607 #
straight-curve $-1 0 22.706035755624292 -7.3393568865663363 1 0 0 I I #
point $-1 40.643330179754024 22.706035755624292 -7.3393568865663363 #
point $-1 40.643330179754024 -22.706035755624292 -7.3393568865663363 #
straight-curve $-1 -40.643330179754024 0 7.3393568865663363 0 -1 0 I I #
point $-1 -40.643330179754024 22.706035755624292 7.3393568865663363 #
point $-1 -40.643330179754024 -22.706035755624292 7.3393568865663363 #
straight-curve $-1 40.643330179754024 -22.706035755624292 0 0 0 -1 I I #
straight-curve $-1 40.643330179754024 22.706035755624292 0 0 0 -1 I I #
plane-surface $-1 40.643330179754024 0 0 -1 0 0 0 0 1 forward_v I I I I #
coedge $-1 $394 $393 $404 $542 reversed $159 $-1 #
coedge $-1 $608 $397 $394 $533 forward $391 $-1 #
edge $-1 $534 14.610223604566627 $609 22.706035755624292 $394 $610 forward 7 unknown #
vertex $-1 $533 $611 #
straight-curve $-1 -40.643330179754024 -14.610223604566627 2.7561393939437369 0 0 -1 I I #
coedge $-1 $397 $608 $399 $538 forward $391 $-1 #
straight-curve $-1 0 -14.610223604566627 7.3393568865663363 -1 0 0 I I #
edge $-1 $545 -22.706035755624292 $400 -14.610223604566627 $399 $612 forward 7 unknown #
point $-1 40.643330179754024 -14.610223604566627 7.3393568865663354 #
straight-curve $-1 -40.643330179754024 -9.3290648400477298 3.685200689208612 0 -1 0 I I #
coedge $-1 $404 $403 $608 $613 reversed $260 $-1 #
edge $-1 $609 -7.3393568865663363 $405 -3.685200689208612 $531 $614 forward 7 unknown #
point $-1 -40.643330179754024 -22.706035755624292 3.685200689208612 #
point $-1 -40.643330179754024 -14.610223604566627 3.685200689208612 #
vertex $-1 $538 $615 #
straight-curve $-1 40.643330179754024 -22.706035755624292 0 0 0 -1 I I #
plane-surface $-1 0 22.706035755624292 0 0 -1 0 0 0 -1 forward_v I I I I #
coedge $-1 $416 $415 $557 $616 forward $167 $-1 #
edge $-1 $551 14.610223604566631 $560 22.706035755624292 $431 $617 forward 7 unknown #
edge $-1 $618 -22.706035755624292 $422 -14.610223604566631 $419 $619 forward 7 unknown #
vertex $-1 $549 $620 #
straight-curve $-1 0 14.610223604566631 7.3393568865663363 1 0 0 I I #
coedge $-1 $420 $419 $426 $558 forward $413 $-1 #
point $-1 -40.643330179754024 14.610223604566631 3.685200689208612 #
point $-1 -40.643330179754024 14.610223604566631 7.3393568865663354 #
straight-curve $-1 -40.643330179754024 9.3290648400477316 3.685200689208612 0 -1 0 I I #
coedge $-1 $427 $426 $548 $616 reversed $428 $-1 #
edge $-1 $618 -7.3393568865663363 $429 -3.685200689208612 $426 $621 forward 7 unknown #
point $-1 -40.643330179754024 22.706035755624296 3.685200689208612 #
vertex $-1 $549 $622 #
straight-curve $-1 40.643330179754024 22.706035755624292 0 0 0 -1 I I #
straight-curve $-1 40.643330179754024 14.610223604566631 2.7561393939437369 0 0 -1 I I #
edge $-1 $564 21.215051254453819 $567 24.774438549258267 $437 $623 forward 7 unknown #
vertex $-1 $451 $624 #
straight-curve $-1 -50.995576085570065 -4.080552342536321 7.3393568865663354 -1 0 0 I I #
edge $-1 $567 0.4029918881625969 $448 6.9521290205848505 $447 $625 forward 7 unknown #
vertex $-1 $566 $626 #
straight-curve $-1 -40.643330179754003 -4.080552342536321 3.7799695917619118 0.65605901945558964 0 0.75470958851134928 I I #
point $-1 -37.549202088579023 -4.080552342536321 7.3393568865663363 #
point $-1 -40.643330179754024 -10.629689474958575 3.7799695917618874 #
straight-curve $-1 -40.643330179754024 0 7.3393568865663363 0 -1 0 I I #
vertex $-1 $454 $627 #
point $-1 -37.382882610492203 -8.7585074371236455 4.7327481926438697 #
vertex $-1 $458 $628 #
point $-1 -37.382882610492203 -5.9517343803712492 4.7327481926438697 #
coedge $-1 $473 $472 $465 $577 forward $462 $-1 #
edge $-1 $578 21.215051254453819 $581 24.774438549258267 $576 $629 forward 7 unknown #
vertex $-1 $477 $630 #
straight-curve $-1 -50.995576085570065 10.529671262030309 7.3393568865663354 -1 0 0 I I #
edge $-1 $581 -6.9021199141207177 $474 -0.35298278169846409 $473 $631 forward 7 unknown #
vertex $-1 $580 $632 #
straight-curve $-1 -40.643330179754003 10.529671262030309 3.7799695917619118 0.65605901945558964 0 0.75470958851134928 I I #
point $-1 -37.549202088579023 10.529671262030309 7.3393568865663363 #
point $-1 -40.643330179754024 3.9805341296080554 3.7799695917618874 #
straight-curve $-1 -40.643330179754024 0 7.3393568865663363 0 -1 0 I I #
vertex $-1 $480 $633 #
point $-1 -37.382882610492203 5.8517161674429836 4.7327481926438697 #
vertex $-1 $484 $634 #
point $-1 -37.382882610492203 8.6584892241953781 4.7327481926438697 #
coedge $-1 $499 $498 $491 $591 forward $488 $-1 #
edge $-1 $592 51.554265583388705 $595 55.62562998087158 $590 $635 forward 7 unknown #
vertex $-1 $503 $636 #
straight-curve $-1 25.331234006157874 -7.2389249983334558 7.3393568865663354 1 0 0 I I #
edge $-1 $595 -5.554258910348473 $500 2.1849267343785073 $499 $637 forward 7 unknown #
vertex $-1 $594 $638 #
straight-curve $-1 -11.606727129378427 -7.2389249983334558 65.537187630777623 -0.64278759981090561 0 0.7660444514056185 I I #
point $-1 37.227049904880154 -7.2389249983334558 7.3393568865663354 #
point $-1 40.643330179754024 0.50026064639352441 3.2679924890834613 #
straight-curve $-1 40.643330179754024 0 7.3393568865663363 0 1 0 I I #
vertex $-1 $506 $639 #
point $-1 38.433636036993832 -5.0277290998400339 4.2301172803555511 #
vertex $-1 $510 $640 #
point $-1 38.433636036993832 -1.710935252099901 4.2301172803555511 #
straight-curve $-1 -40.643330179754024 22.706035755624292 0 0 0 -1 I I #
point $-1 -40.643330179754024 -22.706035755624292 -7.3393568865663363 #
straight-curve $-1 -40.643330179754024 0 -7.3393568865663363 0 1 0 I I #
point $-1 -40.643330179754024 22.706035755624292 -7.3393568865663363 #
coedge $-1 $536 $532 $541 $613 forward $391 $-1 #
vertex $-1 $533 $641 #
straight-curve $-1 -40.643330179754024 0 7.3393568865663363 0 -1 0 I I #
point $-1 -40.643330179754024 -14.610223604566627 7.3393568865663354 #
straight-curve $-1 40.643330179754024 0 7.3393568865663363 0 1 0 I I #
edge $-1 $609 -40.643330179754024 $545 40.643330179754024 $541 $642 forward 7 unknown #
straight-curve $-1 -40.643330179754024 -22.706035755624292 0 0 0 -1 I I #
point $-1 40.643330179754024 -22.706035755624292 7.3393568865663363 #
edge $-1 $560 -40.643330179754024 $618 40.643330179754024 $557 $643 forward 7 unknown #
straight-curve $-1 40.643330179754024 0 7.3393568865663363 0 1 0 I I #
vertex $-1 $616 $644 #
straight-curve $-1 -40.643330179754024 0 7.3393568865663363 0 -1 0 I I #
point $-1 40.643330179754024 14.610223604566631 7.3393568865663354 #
straight-curve $-1 -40.643330179754024 22.706035755624292 0 0 0 -1 I I #
point $-1 40.643330179754024 22.706035755624292 7.3393568865663363 #
straight-curve $-1 -40.643330179754024 -4.080552342536321 28.554408141020154 0 0 -1 I I #
point $-1 -40.643330179754024 -4.080552342536321 7.3393568865663363 #
straight-curve $-1 -40.643330179754024 -3.6775604543737241 3.7799695917618918 0 -1 0 I I #
point $-1 -40.643330179754024 -4.080552342536321 3.7799695917618874 #
point $-1 -37.333557325964321 -8.7585074371236455 4.0273638886604006 #
point $-1 -37.333557325964321 -5.9517343803712492 4.0273638886604006 #
straight-curve $-1 -40.643330179754024 10.529671262030309 28.554408141020154 0 0 -1 I I #
point $-1 -40.643330179754024 10.529671262030309 7.3393568865663363 #
straight-curve $-1 -40.643330179754024 3.6275513479095913 3.7799695917618918 0 -1 0 I I #
point $-1 -40.643330179754024 10.529671262030309 3.7799695917618874 #
point $-1 -37.333557325964321 5.8517161674429836 4.0273638886604006 #
point $-1 -37.333557325964321 8.6584892241953781 4.0273638886604006 #
straight-curve $-1 40.643330179754024 -7.2389249983334558 58.893622469955041 0 0 -1 I I #
point $-1 40.643330179754024 -7.2389249983334558 7.3393568865663363 #
straight-curve $-1 40.643330179754017 -1.6846660879849829 3.2679924890834613 0 1 0 I I #
point $-1 40.643330179754024 -7.2389249983334558 3.2679924890834613 #
point $-1 37.729220011385571 -5.0277290998400339 4.2917457061529074 #
point $-1 37.729220011385571 -1.710935252099901 4.2917457061529074 #
point $-1 -40.643330179754024 -22.706035755624292 7.3393568865663363 #
straight-curve $-1 0 -22.706035755624292 7.3393568865663363 1 0 0 I I #
straight-curve $-1 0 22.706035755624292 7.3393568865663363 -1 0 0 I I #
point $-1 -40.643330179754024 22.706035755624292 7.3393568865663363 #
End-of-ACIS-data 