500 0 7 0           
7 Unknown 11 ACIS 5.0 NT 24 Fri Mar 26 01:42:47 1999 
-1 9.9999999999999995e-007 1e-010 
body $-1 $7 $-1 $8 #
body $-1 $9 $-1 $10 #
body $-1 $11 $-1 $12 #
body $-1 $13 $-1 $14 #
body $-1 $15 $-1 $16 #
body $-1 $17 $-1 $18 #
body $-1 $19 $-1 $20 #
lump $-1 $-1 $21 $0 #
transform $-1 1 0 0 0 1 0 0 0 1 48.360850856044195 26.036813812882851 9.8841679341969382 1 rotate no_reflect no_shear #
lump $-1 $-1 $22 $1 #
transform $-1 1 0 0 0 1 0 0 0 1 48.360850856044195 26.036813812882851 9.8841679341969382 1 rotate no_reflect no_shear #
lump $-1 $-1 $23 $2 #
transform $-1 1 0 0 0 1 0 0 0 1 48.360850856044195 26.036813812882851 9.8841679341969382 1 rotate no_reflect no_shear #
lump $-1 $-1 $24 $3 #
transform $-1 1 0 0 0 1 0 0 0 1 48.360850856044195 26.036813812882851 9.8841679341969382 1 rotate no_reflect no_shear #
lump $-1 $-1 $25 $4 #
transform $-1 1 0 0 0 1 0 0 0 1 48.360850856044195 26.036813812882851 9.8841679341969382 1 rotate no_reflect no_shear #
lump $-1 $-1 $26 $5 #
transform $-1 1 0 0 0 1 0 0 0 1 48.360850856044195 26.036813812882851 9.8841679341969382 1 rotate no_reflect no_shear #
lump $-1 $-1 $27 $6 #
transform $-1 1 0 0 0 1 0 0 0 1 48.360850856044195 26.036813812882851 9.8841679341969382 1 rotate no_reflect no_shear #
shell $-1 $-1 $-1 $28 $-1 $7 #
shell $-1 $-1 $-1 $29 $-1 $9 #
shell $-1 $-1 $-1 $30 $-1 $11 #
shell $-1 $-1 $-1 $31 $-1 $13 #
shell $-1 $-1 $-1 $32 $-1 $15 #
shell $-1 $-1 $-1 $33 $-1 $17 #
shell $-1 $-1 $-1 $34 $-1 $19 #
face $-1 $35 $36 $21 $-1 $37 forward single #
face $-1 $38 $39 $22 $-1 $40 forward single #
face $-1 $41 $42 $23 $-1 $43 forward single #
face $-1 $44 $45 $24 $-1 $46 reversed single #
face $-1 $47 $48 $25 $-1 $49 forward single #
face $-1 $50 $51 $26 $-1 $52 forward single #
face $-1 $53 $54 $27 $-1 $55 forward single #
face $-1 $56 $57 $21 $-1 $58 reversed single #
loop $-1 $-1 $59 $28 #
plane-surface $-1 0 0 9.8841679341969382 0 0 1 1 0 0 forward_v I I I I #
face $-1 $60 $61 $22 $-1 $62 reversed single #
loop $-1 $-1 $63 $29 #
plane-surface $-1 -42.059582941591906 0 2.3717290908353252 0 0 1 1 0 0 forward_v I I I I #
face $-1 $64 $65 $23 $-1 $66 reversed single #
loop $-1 $-1 $67 $30 #
plane-surface $-1 42.059582941591898 0 2.3717290908353252 0 0 1 1 0 0 forward_v I I I I #
face $-1 $68 $69 $24 $-1 $70 reversed single #
loop $-1 $-1 $71 $31 #
plane-surface $-1 21.783030933369794 -86.905753713183969 80.92494043529085 1 0 0 0 0.62932039886446345 -0.77714595512881146 forward_v I I I I #
face $-1 $72 $73 $25 $-1 $74 forward single #
loop $-1 $75 $76 $32 #
cone-surface $-1 24.578087752123764 -22.730953385227657 6.8848134157104912 0 0.62932039886446345 -0.77714595512881146 1 0 0 1 I I 0 1 1 forward I I I I #
face $-1 $77 $78 $26 $-1 $79 forward single #
loop $-1 $80 $81 $33 #
cone-surface $-1 28.770672980254702 -22.730953385227657 6.8848134157104912 0 0.62932039886446345 -0.77714595512881146 1 0 0 1 I I 0 1 1 forward I I I I #
face $-1 $82 $83 $27 $-1 $84 forward single #
loop $-1 $85 $86 $34 #
cone-surface $-1 32.963258208385639 -22.730953385227657 6.8848134157104912 0 0.62932039886446345 -0.77714595512881146 1 0 0 1 I I 0 1 1 forward I I I I #
face $-1 $87 $88 $21 $-1 $89 reversed single #
loop $-1 $-1 $90 $35 #
plane-surface $-1 0 0 -9.8841679341969382 0 0 1 1 0 0 forward_v I I I I #
coedge $-1 $91 $92 $93 $94 forward $36 $-1 #
face $-1 $95 $96 $22 $-1 $97 reversed single #
loop $-1 $-1 $98 $38 #
plane-surface $-1 -42.059582941591906 0 -0.71457346362320173 0 0 1 1 0 0 forward_v I I I I #
coedge $-1 $99 $100 $101 $102 forward $39 $-1 #
face $-1 $103 $104 $23 $-1 $105 reversed single #
loop $-1 $-1 $106 $41 #
plane-surface $-1 42.059582941591898 0 -0.71457346362320173 0 0 1 1 0 0 forward_v I I I I #
coedge $-1 $107 $108 $109 $110 reversed $42 $-1 #
face $-1 $111 $112 $24 $-1 $113 reversed single #
loop $-1 $-1 $114 $44 #
plane-surface $-1 28.770672980254702 -26.036813812882848 5.7580611765659171 0 -0.62932039886446345 0.77714595512881146 1 0 0 forward_v I I I I #
coedge $-1 $115 $116 $117 $118 reversed $45 $-1 #
face $-1 $-1 $119 $25 $-1 $120 forward single #
loop $-1 $121 $122 $47 #
cone-surface $-1 24.578087752123764 -21.658091457038694 5.5599392984751468 0 0.62932039886446345 -0.77714595512881146 0.5 0 0 1 I I -0.70710678118654746 0.70710678118654746 0.5 forward I I I I #
loop $-1 $-1 $123 $32 #
coedge $-1 $76 $76 $124 $125 reversed $48 $-1 #
face $-1 $-1 $126 $26 $-1 $127 forward single #
loop $-1 $128 $129 $50 #
cone-surface $-1 28.770672980254702 -21.658091457038694 5.5599392984751468 0 0.62932039886446345 -0.77714595512881146 0.5 0 0 1 I I -0.70710678118654746 0.70710678118654746 0.5 forward I I I I #
loop $-1 $-1 $130 $33 #
coedge $-1 $81 $81 $131 $132 reversed $51 $-1 #
face $-1 $-1 $133 $27 $-1 $134 forward single #
loop $-1 $135 $136 $53 #
cone-surface $-1 32.963258208385639 -21.658091457038694 5.5599392984751468 0 0.62932039886446345 -0.77714595512881146 0.5 0 0 1 I I -0.70710678118654746 0.70710678118654746 0.5 forward I I I I #
loop $-1 $-1 $137 $34 #
coedge $-1 $86 $86 $138 $139 reversed $54 $-1 #
face $-1 $140 $141 $21 $-1 $142 reversed single #
loop $-1 $-1 $143 $56 #
plane-surface $-1 0 -26.036813812882851 0 0 1 0 0 0 1 forward_v I I I I #
coedge $-1 $144 $145 $146 $147 forward $57 $-1 #
coedge $-1 $148 $59 $149 $150 forward $36 $-1 #
coedge $-1 $59 $148 $151 $152 forward $36 $-1 #
coedge $-1 $153 $154 $59 $94 reversed $155 $-1 #
edge $-1 $156 -26.036813812882851 $157 26.036813812882851 $93 $158 forward 7 unknown #
face $-1 $159 $160 $22 $-1 $161 reversed single #
loop $-1 $-1 $162 $60 #
plane-surface $-1 -35.758315027139616 0 0.82857781360606175 -1 0 0 0 0 1 forward_v I I I I #
coedge $-1 $163 $164 $165 $166 forward $61 $-1 #
coedge $-1 $167 $63 $168 $169 reversed $39 $-1 #
coedge $-1 $63 $167 $170 $171 reversed $39 $-1 #
coedge $-1 $162 $172 $63 $102 reversed $96 $-1 #
edge $-1 $173 -26.036813812882851 $174 26.036813812882851 $101 $175 forward 7 unknown #
face $-1 $176 $177 $23 $-1 $178 reversed single #
loop $-1 $-1 $179 $64 #
plane-surface $-1 35.758315027139609 0 0.82857781360606175 1 0 0 0 0 -1 forward_v I I I I #
coedge $-1 $180 $181 $182 $183 reversed $65 $-1 #
coedge $-1 $184 $67 $185 $186 reversed $42 $-1 #
coedge $-1 $67 $184 $187 $188 reversed $42 $-1 #
coedge $-1 $189 $190 $67 $110 forward $191 $-1 #
edge $-1 $192 -26.036813812882851 $193 26.036813812882851 $109 $194 forward 7 unknown #
face $-1 $195 $196 $24 $-1 $197 forward single #
loop $-1 $-1 $198 $68 #
plane-surface $-1 35.758315027139609 -86.905753713183969 80.92494043529085 -1 0 0 0 -0.62932039886446345 0.77714595512881146 forward_v I I I I #
coedge $-1 $199 $200 $201 $202 reversed $69 $-1 #
coedge $-1 $116 $71 $203 $204 reversed $45 $-1 #
coedge $-1 $71 $115 $199 $205 reversed $45 $-1 #
coedge $-1 $201 $206 $71 $118 forward $207 $-1 #
edge $-1 $208 30.578302283448487 $209 34.704409041079508 $117 $210 forward 7 unknown #
loop $-1 $-1 $124 $72 #
plane-surface $-1 28.770672980254702 -26.036813812882848 5.7580611765659171 0 -0.62932039886446345 0.77714595512881146 1 0 0 forward_v I I I I #
loop $-1 $-1 $211 $47 #
coedge $-1 $122 $122 $123 $212 reversed $73 $-1 #
coedge $-1 $123 $123 $122 $212 forward $75 $-1 #
coedge $-1 $124 $124 $76 $125 forward $119 $-1 #
edge $-1 $213 3.3766921531849239e-017 $213 6.2831853071796004 $124 $214 forward 7 unknown #
loop $-1 $-1 $131 $77 #
plane-surface $-1 28.770672980254702 -26.036813812882848 5.7580611765659171 0 -0.62932039886446345 0.77714595512881146 1 0 0 forward_v I I I I #
loop $-1 $-1 $215 $50 #
coedge $-1 $129 $129 $130 $216 reversed $78 $-1 #
coedge $-1 $130 $130 $129 $216 forward $80 $-1 #
coedge $-1 $131 $131 $81 $132 forward $126 $-1 #
edge $-1 $217 3.3766921531849239e-017 $217 6.2831853071796004 $131 $218 forward 7 unknown #
loop $-1 $-1 $138 $82 #
plane-surface $-1 28.770672980254702 -26.036813812882848 5.7580611765659171 0 -0.62932039886446345 0.77714595512881146 1 0 0 forward_v I I I I #
loop $-1 $-1 $219 $53 #
coedge $-1 $136 $136 $137 $220 reversed $83 $-1 #
coedge $-1 $137 $137 $136 $220 forward $85 $-1 #
coedge $-1 $138 $138 $86 $139 forward $133 $-1 #
edge $-1 $221 3.3766921531849239e-017 $221 6.2831853071796004 $138 $222 forward 7 unknown #
face $-1 $223 $224 $21 $-1 $225 reversed single #
loop $-1 $-1 $226 $87 #
plane-surface $-1 -48.360850856044195 0 0 1 0 0 0 0 -1 forward_v I I I I #
coedge $-1 $227 $151 $228 $229 forward $88 $-1 #
coedge $-1 $230 $90 $227 $231 forward $57 $-1 #
coedge $-1 $90 $230 $232 $233 forward $57 $-1 #
coedge $-1 $154 $153 $90 $147 reversed $155 $-1 #
edge $-1 $234 -26.036813812882851 $235 26.036813812882851 $146 $236 forward 7 unknown #
coedge $-1 $92 $91 $237 $238 forward $36 $-1 #
coedge $-1 $239 $240 $91 $150 reversed $224 $-1 #
edge $-1 $157 -48.360850856044195 $241 48.360850856044195 $149 $242 forward 7 unknown #
coedge $-1 $143 $243 $92 $152 reversed $88 $-1 #
edge $-1 $244 -48.360850856044195 $156 48.360850856044195 $151 $245 forward 7 unknown #
coedge $-1 $146 $93 $243 $246 forward $155 $-1 #
coedge $-1 $93 $146 $239 $247 reversed $155 $-1 #
loop $-1 $-1 $153 $223 #
vertex $-1 $94 $248 #
vertex $-1 $94 $249 #
straight-curve $-1 48.360850856044195 0 9.8841679341969382 0 1 0 I I #
face $-1 $250 $251 $22 $-1 $252 reversed single #
loop $-1 $-1 $253 $95 #
plane-surface $-1 0 -26.036813812882851 0 0 1 0 0 0 1 forward_v I I I I #
coedge $-1 $165 $101 $254 $255 reversed $96 $-1 #
coedge $-1 $256 $98 $253 $257 reversed $61 $-1 #
coedge $-1 $98 $256 $258 $259 reversed $61 $-1 #
coedge $-1 $172 $162 $98 $166 reversed $96 $-1 #
edge $-1 $260 -26.036813812882851 $261 26.036813812882851 $165 $262 forward 7 unknown #
coedge $-1 $100 $99 $263 $264 reversed $39 $-1 #
coedge $-1 $265 $266 $99 $169 forward $267 $-1 #
edge $-1 $268 -27.331059385248242 $174 -14.728523556343664 $168 $269 forward 7 unknown #
coedge $-1 $270 $254 $100 $171 forward $160 $-1 #
edge $-1 $173 14.728523556343664 $271 27.331059385248242 $170 $272 forward 7 unknown #
coedge $-1 $101 $165 $265 $273 reversed $96 $-1 #
vertex $-1 $171 $274 #
vertex $-1 $169 $275 #
straight-curve $-1 -35.758315027139616 0 2.3717290908353252 0 1 0 I I #
face $-1 $276 $277 $23 $-1 $278 reversed single #
loop $-1 $-1 $187 $103 #
plane-surface $-1 0 -26.036813812882851 0 0 1 0 0 0 1 forward_v I I I I #
coedge $-1 $279 $280 $281 $282 reversed $104 $-1 #
coedge $-1 $283 $106 $284 $285 reversed $65 $-1 #
coedge $-1 $106 $283 $286 $287 reversed $65 $-1 #
coedge $-1 $190 $189 $106 $183 forward $191 $-1 #
edge $-1 $288 -26.036813812882851 $289 26.036813812882851 $182 $290 forward 7 unknown #
coedge $-1 $108 $107 $280 $291 forward $42 $-1 #
coedge $-1 $292 $281 $107 $186 forward $277 $-1 #
edge $-1 $293 14.72852355634366 $192 27.331059385248238 $185 $294 forward 7 unknown #
coedge $-1 $295 $296 $108 $188 forward $177 $-1 #
edge $-1 $193 -27.331059385248238 $297 -14.72852355634366 $187 $298 forward 7 unknown #
coedge $-1 $182 $109 $296 $299 forward $191 $-1 #
coedge $-1 $109 $182 $292 $300 reversed $191 $-1 #
loop $-1 $-1 $109 $276 #
vertex $-1 $300 $301 #
vertex $-1 $299 $302 #
straight-curve $-1 48.360850856044195 0 2.3717290908353252 0 -1 0 I I #
face $-1 $-1 $207 $24 $-1 $303 reversed single #
loop $-1 $-1 $304 $111 #
plane-surface $-1 0 0 9.8841679341969382 0 0 1 1 0 0 forward_v I I I I #
coedge $-1 $305 $306 $307 $308 reversed $112 $-1 #
coedge $-1 $309 $114 $116 $205 forward $69 $-1 #
coedge $-1 $114 $309 $305 $310 forward $69 $-1 #
coedge $-1 $307 $117 $114 $202 forward $207 $-1 #
edge $-1 $209 7.3976944432424432 $311 21.372978537012258 $201 $312 forward 7 unknown #
coedge $-1 $313 $314 $115 $204 forward $196 $-1 #
edge $-1 $315 -22.511380441506066 $208 -17.416063043709133 $203 $316 forward 7 unknown #
edge $-1 $209 -4.4378234572560832e-015 $315 6.5564484562650573 $116 $317 forward 7 unknown #
coedge $-1 $117 $307 $313 $318 reversed $207 $-1 #
loop $-1 $-1 $307 $195 #
vertex $-1 $318 $319 #
vertex $-1 $118 $320 #
straight-curve $-1 21.783030933369794 -26.036813812882851 40.462470217645425 0 0 -1 I I #
coedge $-1 $211 $211 $-1 $321 reversed $121 $-1 #
edge $-1 $322 0 $322 6.2831853071796004 $122 $323 forward 7 unknown #
vertex $-1 $125 $324 #
ellipse-curve $-1 24.578087752123764 -23.489155113984385 7.821114555381425 0 -0.62932039886446345 0.77714595512881146 1 0 0 1 I I #
coedge $-1 $215 $215 $-1 $325 reversed $128 $-1 #
edge $-1 $326 0 $326 6.2831853071796004 $129 $327 forward 7 unknown #
vertex $-1 $132 $328 #
ellipse-curve $-1 28.770672980254702 -23.489155113984385 7.821114555381425 0 -0.62932039886446345 0.77714595512881146 1 0 0 1 I I #
coedge $-1 $219 $219 $-1 $329 reversed $135 $-1 #
edge $-1 $330 0 $330 6.2831853071796004 $136 $331 forward 7 unknown #
vertex $-1 $139 $332 #
ellipse-curve $-1 32.963258208385639 -23.489155113984385 7.821114555381425 0 -0.62932039886446345 0.77714595512881146 1 0 0 1 I I #
face $-1 $-1 $155 $21 $-1 $333 reversed single #
loop $-1 $-1 $239 $140 #
plane-surface $-1 0 26.036813812882851 0 0 -1 0 0 0 -1 forward_v I I I I #
coedge $-1 $334 $237 $240 $335 forward $141 $-1 #
coedge $-1 $243 $143 $144 $231 reversed $88 $-1 #
coedge $-1 $237 $334 $143 $229 reversed $141 $-1 #
edge $-1 $244 -9.8841679341969382 $336 9.8841679341969382 $228 $337 forward 7 unknown #
coedge $-1 $145 $144 $334 $338 forward $57 $-1 #
edge $-1 $235 -48.360850856044195 $336 48.360850856044195 $227 $339 forward 7 unknown #
coedge $-1 $240 $239 $145 $233 reversed $224 $-1 #
edge $-1 $340 -48.360850856044195 $234 48.360850856044195 $232 $341 forward 7 unknown #
vertex $-1 $147 $342 #
vertex $-1 $246 $343 #
straight-curve $-1 48.360850856044195 0 -9.8841679341969382 0 -1 0 I I #
coedge $-1 $226 $228 $148 $238 reversed $141 $-1 #
edge $-1 $241 -26.036813812882851 $244 26.036813812882851 $237 $344 forward 7 unknown #
coedge $-1 $232 $149 $154 $247 forward $224 $-1 #
coedge $-1 $149 $232 $226 $335 reversed $224 $-1 #
vertex $-1 $150 $345 #
straight-curve $-1 0 26.036813812882851 9.8841679341969382 -1 0 0 I I #
coedge $-1 $151 $227 $153 $246 reversed $88 $-1 #
vertex $-1 $238 $346 #
straight-curve $-1 0 -26.036813812882851 9.8841679341969382 1 0 0 I I #
edge $-1 $156 -9.8841679341969382 $235 9.8841679341969382 $153 $347 forward 7 unknown #
edge $-1 $157 -9.8841679341969382 $234 9.8841679341969382 $154 $348 forward 7 unknown #
point $-1 48.360850856044195 -26.036813812882851 9.8841679341969382 #
point $-1 48.360850856044195 26.036813812882851 9.8841679341969382 #
face $-1 $-1 $267 $22 $-1 $349 reversed single #
loop $-1 $-1 $350 $159 #
plane-surface $-1 -48.360850856044195 0 0 1 0 0 0 0 -1 forward_v I I I I #
coedge $-1 $254 $270 $163 $257 forward $160 $-1 #
coedge $-1 $170 $253 $162 $255 forward $160 $-1 #
edge $-1 $261 -1.1288623704262326 $173 1.9574401840322944 $254 $351 forward 7 unknown #
coedge $-1 $164 $163 $350 $352 reversed $61 $-1 #
edge $-1 $353 -27.331059385248242 $261 -14.728523556343664 $253 $354 forward 7 unknown #
coedge $-1 $266 $265 $164 $259 forward $267 $-1 #
edge $-1 $260 14.728523556343664 $355 27.331059385248242 $258 $356 forward 7 unknown #
vertex $-1 $259 $357 #
vertex $-1 $257 $358 #
straight-curve $-1 -35.758315027139616 0 -0.71457346362320173 0 -1 0 I I #
coedge $-1 $359 $360 $167 $264 forward $251 $-1 #
edge $-1 $271 -26.036813812882851 $268 26.036813812882851 $263 $361 forward 7 unknown #
coedge $-1 $258 $168 $172 $273 forward $267 $-1 #
coedge $-1 $168 $258 $359 $362 reversed $267 $-1 #
loop $-1 $-1 $258 $250 #
vertex $-1 $362 $363 #
straight-curve $-1 -21.029791470795953 26.036813812882851 2.3717290908353252 1 0 0 I I #
coedge $-1 $253 $170 $360 $364 forward $160 $-1 #
vertex $-1 $364 $365 #
straight-curve $-1 -21.029791470795953 -26.036813812882851 2.3717290908353252 -1 0 0 I I #
edge $-1 $174 -1.9574401840322944 $260 1.1288623704262326 $265 $366 forward 7 unknown #
point $-1 -35.758315027139616 -26.036813812882851 2.3717290908353252 #
point $-1 -35.758315027139616 26.036813812882851 2.3717290908353252 #
face $-1 $-1 $191 $23 $-1 $367 reversed single #
loop $-1 $-1 $185 $176 #
plane-surface $-1 0 26.036813812882851 0 0 -1 0 0 0 -1 forward_v I I I I #
coedge $-1 $368 $179 $283 $369 reversed $104 $-1 #
coedge $-1 $179 $368 $184 $291 reversed $104 $-1 #
coedge $-1 $185 $286 $179 $282 forward $277 $-1 #
edge $-1 $370 -1.1288623704262326 $293 1.9574401840322944 $281 $371 forward 7 unknown #
coedge $-1 $181 $180 $279 $369 forward $65 $-1 #
coedge $-1 $296 $295 $180 $285 forward $177 $-1 #
edge $-1 $372 14.72852355634366 $288 27.331059385248238 $284 $373 forward 7 unknown #
coedge $-1 $281 $292 $181 $287 forward $277 $-1 #
edge $-1 $289 -27.331059385248238 $370 -14.72852355634366 $286 $374 forward 7 unknown #
vertex $-1 $183 $375 #
vertex $-1 $183 $376 #
straight-curve $-1 48.360850856044195 0 -0.71457346362320173 0 1 0 I I #
edge $-1 $293 -26.036813812882851 $297 26.036813812882851 $280 $377 forward 7 unknown #
coedge $-1 $286 $185 $190 $300 forward $277 $-1 #
vertex $-1 $186 $378 #
straight-curve $-1 21.029791470795949 26.036813812882851 2.3717290908353252 1 0 0 I I #
coedge $-1 $284 $187 $368 $379 forward $177 $-1 #
coedge $-1 $187 $284 $189 $299 reversed $177 $-1 #
vertex $-1 $188 $380 #
straight-curve $-1 21.029791470795949 -26.036813812882851 2.3717290908353252 -1 0 0 I I #
edge $-1 $193 -2.3717290908353252 $288 0.71457346362320173 $189 $381 forward 7 unknown #
edge $-1 $192 -2.3717290908353252 $289 0.71457346362320173 $190 $382 forward 7 unknown #
point $-1 48.360850856044188 26.036813812882851 2.3717290908353252 #
point $-1 48.360850856044188 -26.036813812882851 2.3717290908353252 #
plane-surface $-1 0 -26.036813812882851 0 0 1 0 0 0 1 forward_v I I I I #
coedge $-1 $314 $313 $306 $383 forward $196 $-1 #
coedge $-1 $306 $198 $200 $310 reversed $112 $-1 #
coedge $-1 $198 $305 $304 $383 reversed $112 $-1 #
coedge $-1 $206 $201 $198 $308 forward $207 $-1 #
edge $-1 $311 -34.704409041079508 $384 -30.578302283448487 $307 $385 forward 7 unknown #
coedge $-1 $200 $199 $314 $386 reversed $69 $-1 #
edge $-1 $387 -6.5564484562650573 $311 4.4378234572560832e-015 $305 $388 forward 7 unknown #
vertex $-1 $202 $389 #
straight-curve $-1 14.385336490127351 -26.036813812882851 5.7580611765659127 1 0 0 I I #
coedge $-1 $304 $203 $206 $318 forward $196 $-1 #
coedge $-1 $203 $304 $309 $386 forward $196 $-1 #
vertex $-1 $204 $390 #
straight-curve $-1 21.783030933369794 -43.452876856591985 9.8841679341969382 0 -1 0 I I #
straight-curve $-1 21.783030933369794 -26.036813812882848 5.7580611765659171 0 0.77714595512881146 0.62932039886446345 I I #
edge $-1 $208 21.783030933369794 $384 35.758315027139609 $206 $391 forward 7 unknown #
point $-1 21.783030933369794 -26.036813812882851 9.8841679341969382 #
point $-1 21.783030933369794 -26.036813812882851 5.7580611765659144 #
edge $-1 $392 1 $392 0 $211 $-1 forward 7 unknown #
vertex $-1 $212 $393 #
ellipse-curve $-1 24.578087752123764 -21.972751656470926 5.9485122760395521 0 -0.62932039886446345 0.77714595512881146 1 0 0 1 I I #
point $-1 25.578087752123764 -23.489155113984388 7.8211145553814294 #
edge $-1 $394 1 $394 0 $215 $-1 forward 7 unknown #
vertex $-1 $216 $395 #
ellipse-curve $-1 28.770672980254702 -21.972751656470926 5.9485122760395521 0 -0.62932039886446345 0.77714595512881146 1 0 0 1 I I #
point $-1 29.770672980254702 -23.489155113984388 7.8211145553814294 #
edge $-1 $396 1 $396 0 $219 $-1 forward 7 unknown #
vertex $-1 $220 $397 #
ellipse-curve $-1 32.963258208385639 -21.972751656470926 5.9485122760395521 0 -0.62932039886446345 0.77714595512881146 1 0 0 1 I I #
point $-1 33.963258208385639 -23.489155113984388 7.8211145553814294 #
plane-surface $-1 48.360850856044195 0 0 -1 0 0 0 0 1 forward_v I I I I #
coedge $-1 $228 $226 $230 $338 reversed $141 $-1 #
edge $-1 $241 -9.8841679341969382 $340 9.8841679341969382 $240 $398 forward 7 unknown #
vertex $-1 $338 $399 #
straight-curve $-1 -48.360850856044195 -26.036813812882851 0 0 0 -1 I I #
edge $-1 $336 -26.036813812882851 $340 26.036813812882851 $334 $400 forward 7 unknown #
straight-curve $-1 0 -26.036813812882851 -9.8841679341969382 -1 0 0 I I #
vertex $-1 $233 $401 #
straight-curve $-1 0 26.036813812882851 -9.8841679341969382 1 0 0 I I #
point $-1 48.360850856044195 26.036813812882851 -9.8841679341969382 #
point $-1 48.360850856044195 -26.036813812882851 -9.8841679341969382 #
straight-curve $-1 -48.360850856044195 0 9.8841679341969382 0 -1 0 I I #
point $-1 -48.360850856044195 26.036813812882851 9.8841679341969382 #
point $-1 -48.360850856044195 -26.036813812882851 9.8841679341969382 #
straight-curve $-1 48.360850856044195 -26.036813812882851 0 0 0 -1 I I #
straight-curve $-1 48.360850856044195 26.036813812882851 0 0 0 -1 I I #
plane-surface $-1 0 26.036813812882851 0 0 -1 0 0 0 -1 forward_v I I I I #
coedge $-1 $360 $359 $256 $352 forward $251 $-1 #
straight-curve $-1 -35.758315027139616 -26.036813812882851 0.41428890680303088 0 0 1 I I #
edge $-1 $355 -26.036813812882851 $353 26.036813812882851 $350 $402 forward 7 unknown #
vertex $-1 $257 $403 #
straight-curve $-1 -21.029791470795953 -26.036813812882851 -0.71457346362320173 1 0 0 I I #
vertex $-1 $259 $404 #
straight-curve $-1 -21.029791470795953 26.036813812882851 -0.71457346362320173 -1 0 0 I I #
point $-1 -35.758315027139616 26.036813812882851 -0.71457346362320173 #
point $-1 -35.758315027139616 -26.036813812882851 -0.71457346362320173 #
coedge $-1 $350 $263 $266 $362 forward $251 $-1 #
coedge $-1 $263 $350 $270 $364 reversed $251 $-1 #
straight-curve $-1 -48.360850856044195 0 2.3717290908353252 0 1 0 I I #
edge $-1 $268 -2.3717290908353252 $355 0.71457346362320173 $266 $405 forward 7 unknown #
point $-1 -48.360850856044195 26.036813812882851 2.3717290908353252 #
edge $-1 $271 -2.3717290908353252 $353 0.71457346362320173 $360 $406 forward 7 unknown #
point $-1 -48.360850856044195 -26.036813812882851 2.3717290908353252 #
straight-curve $-1 -35.758315027139616 26.036813812882851 0.41428890680303088 0 0 -1 I I #
plane-surface $-1 48.360850856044195 0 0 -1 0 0 0 0 1 forward_v I I I I #
coedge $-1 $280 $279 $295 $379 reversed $104 $-1 #
edge $-1 $372 -26.036813812882851 $370 26.036813812882851 $279 $407 forward 7 unknown #
vertex $-1 $287 $408 #
straight-curve $-1 35.758315027139609 26.036813812882851 0.41428890680303088 0 0 1 I I #
vertex $-1 $285 $409 #
straight-curve $-1 21.029791470795949 -26.036813812882851 -0.71457346362320173 1 0 0 I I #
straight-curve $-1 21.029791470795949 26.036813812882851 -0.71457346362320173 -1 0 0 I I #
point $-1 48.360850856044188 -26.036813812882851 -0.71457346362320173 #
point $-1 48.360850856044188 26.036813812882851 -0.71457346362320173 #
straight-curve $-1 35.758315027139609 0 2.3717290908353252 0 -1 0 I I #
point $-1 35.758315027139609 26.036813812882851 2.3717290908353252 #
edge $-1 $297 -1.9574401840322944 $372 1.1288623704262326 $295 $410 forward 7 unknown #
point $-1 35.758315027139609 -26.036813812882851 2.3717290908353252 #
straight-curve $-1 48.360850856044195 -26.036813812882851 0 0 0 -1 I I #
straight-curve $-1 48.360850856044195 26.036813812882851 0 0 0 -1 I I #
edge $-1 $384 17.416063043709133 $387 22.511380441506066 $304 $411 forward 7 unknown #
vertex $-1 $383 $412 #
straight-curve $-1 35.758315027139609 -26.036813812882851 40.462470217645425 0 0 1 I I #
edge $-1 $387 -21.372978537012258 $315 -7.3976944432424432 $314 $413 forward 7 unknown #
vertex $-1 $386 $414 #
straight-curve $-1 35.758315027139609 -26.036813812882848 5.7580611765659171 0 -0.77714595512881146 -0.62932039886446345 I I #
point $-1 35.758315027139609 -26.036813812882851 5.7580611765659144 #
point $-1 21.783030933369794 -20.941496415085918 9.8841679341969382 #
straight-curve $-1 0 -26.036813812882851 9.8841679341969382 1 0 0 I I #
vertex $-1 $321 $415 #
point $-1 25.578087752123764 -21.972751656470926 5.9485122760395521 #
vertex $-1 $325 $416 #
point $-1 29.770672980254702 -21.972751656470926 5.9485122760395521 #
vertex $-1 $329 $417 #
point $-1 33.963258208385639 -21.972751656470926 5.9485122760395521 #
straight-curve $-1 -48.360850856044195 26.036813812882851 0 0 0 -1 I I #
point $-1 -48.360850856044195 -26.036813812882851 -9.8841679341969382 #
straight-curve $-1 -48.360850856044195 0 -9.8841679341969382 0 1 0 I I #
point $-1 -48.360850856044195 26.036813812882851 -9.8841679341969382 #
straight-curve $-1 -48.360850856044195 0 -0.71457346362320173 0 -1 0 I I #
point $-1 -48.360850856044195 -26.036813812882851 -0.71457346362320173 #
point $-1 -48.360850856044195 26.036813812882851 -0.71457346362320173 #
straight-curve $-1 -48.360850856044195 26.036813812882851 0 0 0 -1 I I #
straight-curve $-1 -48.360850856044195 -26.036813812882851 0 0 0 -1 I I #
straight-curve $-1 35.758315027139609 0 -0.71457346362320173 0 1 0 I I #
point $-1 35.758315027139609 26.036813812882851 -0.71457346362320173 #
point $-1 35.758315027139609 -26.036813812882851 -0.71457346362320173 #
straight-curve $-1 35.758315027139609 -26.036813812882851 0.41428890680303088 0 0 -1 I I #
straight-curve $-1 35.758315027139609 -43.452876856591985 9.8841679341969382 0 1 0 I I #
point $-1 35.758315027139609 -26.036813812882851 9.8841679341969382 #
straight-curve $-1 14.385336490127351 -20.941496415085922 9.8841679341969382 -1 0 0 I I #
point $-1 35.758315027139609 -20.941496415085918 9.8841679341969382 #
point $-1 24.578087752123764 -21.343431257606461 5.1713663209107414 #
point $-1 28.770672980254702 -21.343431257606461 5.1713663209107414 #
point $-1 32.963258208385639 -21.343431257606461 5.1713663209107414 #
End-of-ACIS-data 