500 0 9 0           
7 Unknown 11 ACIS 5.0 NT 24 Thu Mar 25 18:45:30 1999 
-1 9.9999999999999995e-007 1e-010 
body $-1 $9 $-1 $10 #
body $-1 $11 $-1 $12 #
body $-1 $13 $-1 $14 #
body $-1 $15 $-1 $16 #
body $-1 $17 $-1 $18 #
body $-1 $19 $-1 $20 #
body $-1 $21 $-1 $22 #
body $-1 $23 $-1 $24 #
body $-1 $25 $-1 $26 #
lump $-1 $-1 $27 $0 #
transform $-1 1 0 0 0 1 0 0 0 1 42.992034669026765 27.992515654781307 9.2846784231348529 1 rotate no_reflect no_shear #
lump $-1 $-1 $28 $1 #
transform $-1 1 0 0 0 1 0 0 0 1 42.992034669026765 27.992515654781307 9.2846784231348529 1 rotate no_reflect no_shear #
lump $-1 $-1 $29 $2 #
transform $-1 1 0 0 0 1 0 0 0 1 42.992034669026765 27.992515654781307 9.2846784231348529 1 rotate no_reflect no_shear #
lump $-1 $-1 $30 $3 #
transform $-1 1 0 0 0 1 0 0 0 1 42.992034669026765 27.992515654781307 9.2846784231348529 1 rotate no_reflect no_shear #
lump $-1 $-1 $31 $4 #
transform $-1 1 0 0 0 1 0 0 0 1 42.992034669026765 27.992515654781307 9.2846784231348529 1 rotate no_reflect no_shear #
lump $-1 $-1 $32 $5 #
transform $-1 1 0 0 0 1 0 0 0 1 42.992034669026765 27.992515654781307 9.2846784231348529 1 rotate no_reflect no_shear #
lump $-1 $-1 $33 $6 #
transform $-1 1 0 0 0 1 0 0 0 1 42.992034669026765 27.992515654781307 9.2846784231348529 1 rotate no_reflect no_shear #
lump $-1 $-1 $34 $7 #
transform $-1 1 0 0 0 1 0 0 0 1 42.992034669026765 27.992515654781307 9.2846784231348529 1 rotate no_reflect no_shear #
lump $-1 $-1 $35 $8 #
transform $-1 1 0 0 0 1 0 0 0 1 42.992034669026765 27.992515654781307 9.2846784231348529 1 rotate no_reflect no_shear #
shell $-1 $-1 $-1 $36 $-1 $9 #
shell $-1 $-1 $-1 $37 $-1 $11 #
shell $-1 $-1 $-1 $38 $-1 $13 #
shell $-1 $-1 $-1 $39 $-1 $15 #
shell $-1 $-1 $-1 $40 $-1 $17 #
shell $-1 $-1 $-1 $41 $-1 $19 #
shell $-1 $-1 $-1 $42 $-1 $21 #
shell $-1 $-1 $-1 $43 $-1 $23 #
shell $-1 $-1 $-1 $44 $-1 $25 #
face $-1 $45 $46 $27 $-1 $47 forward single #
face $-1 $48 $49 $28 $-1 $50 forward single #
face $-1 $51 $52 $29 $-1 $53 reversed single #
face $-1 $54 $55 $30 $-1 $56 forward single #
face $-1 $57 $58 $31 $-1 $59 reversed single #
face $-1 $60 $61 $32 $-1 $62 forward single #
face $-1 $63 $64 $33 $-1 $65 reversed single #
face $-1 $66 $67 $34 $-1 $68 forward single #
face $-1 $69 $70 $35 $-1 $71 forward single #
face $-1 $72 $73 $27 $-1 $74 reversed single #
loop $-1 $-1 $75 $36 #
plane-surface $-1 0 0 9.2846784231348529 0 0 1 1 0 0 forward_v I I I I #
face $-1 $76 $77 $28 $-1 $78 reversed single #
loop $-1 $-1 $79 $37 #
plane-surface $-1 -39.203785564878302 0 -1.233796033051934 0 0 1 1 0 0 forward_v I I I I #
face $-1 $80 $81 $29 $-1 $82 reversed single #
loop $-1 $-1 $83 $38 #
plane-surface $-1 -16.136627665383685 67.970108932703909 99.93748060146504 1 0 0 0 -0.82903758062907751 -0.55919289150049634 forward_v I I I I #
face $-1 $84 $85 $30 $-1 $86 forward single #
loop $-1 $87 $88 $39 #
cone-surface $-1 -7.2593936263893468 26.282072768240706 7.0837954343255554 0 -0.82903758062907751 -0.55919289150049634 0.5 0 0 1 I I 0 1 0.5 forward I I I I #
face $-1 $89 $90 $31 $-1 $91 reversed single #
loop $-1 $-1 $92 $40 #
plane-surface $-1 5.9586577956919253 67.970108932703909 99.93748060146504 1 0 0 0 -0.82903758062907751 -0.55919289150049634 forward_v I I I I #
face $-1 $93 $94 $32 $-1 $95 forward single #
loop $-1 $96 $97 $41 #
cone-surface $-1 14.835891834686265 26.282072768240706 7.0837954343255554 0 -0.82903758062907751 -0.55919289150049634 0.5 0 0 1 I I 0 1 0.5 forward I I I I #
face $-1 $98 $99 $33 $-1 $100 reversed single #
loop $-1 $-1 $101 $42 #
plane-surface $-1 -12.862382413820797 -99.276540471444036 51.366046740529185 -1 0 0 0 -0.82903758062907751 0.55919289150049634 forward_v I I I I #
face $-1 $102 $103 $34 $-1 $104 forward single #
loop $-1 $105 $106 $43 #
cone-surface $-1 -28.971778161612974 -24.439857475555332 5.2531803947817997 0 0.82903758062907751 -0.55919289150049634 1.5 0 0 1 I I 0 1 1.5 forward I I I I #
face $-1 $107 $108 $35 $-1 $109 forward single #
loop $-1 $110 $111 $44 #
cone-surface $-1 -19.306140712937669 -24.439857475555332 5.2531803947817997 0 0.82903758062907751 -0.55919289150049634 1.5 0 0 1 I I 0 1 1.5 forward I I I I #
face $-1 $112 $113 $27 $-1 $114 reversed single #
loop $-1 $-1 $115 $45 #
plane-surface $-1 0 0 -9.2846784231348529 0 0 1 1 0 0 forward_v I I I I #
coedge $-1 $116 $117 $118 $119 forward $46 $-1 #
face $-1 $120 $121 $28 $-1 $122 reversed single #
loop $-1 $-1 $123 $48 #
plane-surface $-1 -39.203785564878302 0 -4.2337960330519344 0 0 1 1 0 0 forward_v I I I I #
coedge $-1 $124 $125 $126 $127 forward $49 $-1 #
face $-1 $128 $129 $29 $-1 $130 reversed single #
loop $-1 $-1 $131 $51 #
plane-surface $-1 -7.2593936263893468 -3.3139158839588418 51.855800245339722 0 0.82903758062907751 0.55919289150049634 1 0 0 forward_v I I I I #
coedge $-1 $132 $133 $134 $135 reversed $52 $-1 #
face $-1 $-1 $136 $30 $-1 $137 forward single #
loop $-1 $138 $139 $54 #
cone-surface $-1 -7.2593936263893468 25.660294582768898 6.6644007657001829 0 -0.82903758062907751 -0.55919289150049634 0.25 0 0 1 I I -0.70710678118654746 0.70710678118654746 0.25 forward I I I I #
loop $-1 $-1 $140 $39 #
coedge $-1 $88 $88 $141 $142 reversed $55 $-1 #
face $-1 $143 $144 $31 $-1 $145 reversed single #
loop $-1 $-1 $146 $57 #
plane-surface $-1 14.835891834686265 -3.3139158839588418 51.855800245339722 0 0.82903758062907751 0.55919289150049634 1 0 0 forward_v I I I I #
coedge $-1 $147 $148 $149 $150 reversed $58 $-1 #
face $-1 $-1 $151 $32 $-1 $152 forward single #
loop $-1 $153 $154 $60 #
cone-surface $-1 14.835891834686265 25.660294582768898 6.6644007657001829 0 -0.82903758062907751 -0.55919289150049634 0.25 0 0 1 I I -0.70710678118654746 0.70710678118654746 0.25 forward I I I I #
loop $-1 $-1 $155 $41 #
coedge $-1 $97 $97 $156 $157 reversed $61 $-1 #
face $-1 $158 $159 $33 $-1 $160 reversed single #
loop $-1 $-1 $161 $63 #
plane-surface $-1 -24.138959437275322 -27.992515654781286 3.2843663844038673 0 -0.82903758062907751 0.55919289150049634 1 0 0 forward_v I I I I #
coedge $-1 $162 $163 $164 $165 reversed $64 $-1 #
face $-1 $-1 $166 $34 $-1 $167 forward single #
loop $-1 $168 $169 $66 #
cone-surface $-1 -28.971778161612974 -22.289051834748971 3.8024437171688721 0 0.82903758062907751 -0.55919289150049634 0.75 0 0 1 I I -0.70710678118654757 0.70710678118654757 0.75 forward I I I I #
loop $-1 $-1 $170 $43 #
coedge $-1 $106 $106 $171 $172 reversed $67 $-1 #
face $-1 $-1 $173 $35 $-1 $174 forward single #
loop $-1 $175 $176 $69 #
cone-surface $-1 -19.306140712937669 -22.289051834748971 3.8024437171688721 0 0.82903758062907751 -0.55919289150049634 0.75 0 0 1 I I -0.70710678118654757 0.70710678118654757 0.75 forward I I I I #
loop $-1 $-1 $177 $44 #
coedge $-1 $111 $111 $178 $179 reversed $70 $-1 #
face $-1 $180 $181 $27 $-1 $182 reversed single #
loop $-1 $-1 $183 $72 #
plane-surface $-1 0 -27.992515654781307 0 0 1 0 0 0 1 forward_v I I I I #
coedge $-1 $184 $185 $186 $187 forward $73 $-1 #
coedge $-1 $188 $75 $189 $190 forward $46 $-1 #
coedge $-1 $75 $188 $191 $192 forward $46 $-1 #
coedge $-1 $193 $194 $75 $119 reversed $195 $-1 #
edge $-1 $196 -27.992515654781307 $197 27.992515654781307 $118 $198 forward 7 unknown #
face $-1 $199 $200 $28 $-1 $201 reversed single #
loop $-1 $-1 $202 $76 #
plane-surface $-1 -35.41553646072984 0 -2.7337960330519344 -1 0 0 0 0 1 forward_v I I I I #
coedge $-1 $203 $204 $205 $206 forward $77 $-1 #
coedge $-1 $207 $79 $208 $209 reversed $49 $-1 #
coedge $-1 $79 $207 $210 $211 reversed $49 $-1 #
coedge $-1 $202 $212 $79 $127 reversed $121 $-1 #
edge $-1 $213 -27.992515654781307 $214 27.992515654781307 $126 $215 forward 7 unknown #
face $-1 $216 $217 $29 $-1 $218 forward single #
loop $-1 $-1 $219 $80 #
plane-surface $-1 1.617840412604993 67.970108932703909 99.93748060146504 -1 0 0 0 0.82903758062907751 0.55919289150049634 forward_v I I I I #
coedge $-1 $220 $221 $222 $223 reversed $81 $-1 #
coedge $-1 $133 $83 $224 $225 reversed $52 $-1 #
coedge $-1 $83 $132 $220 $226 reversed $52 $-1 #
coedge $-1 $222 $227 $83 $135 forward $217 $-1 #
edge $-1 $228 5.9925388115706468 $229 8.5843870040227763 $134 $230 forward 7 unknown #
loop $-1 $-1 $141 $84 #
plane-surface $-1 -7.2593936263893468 -3.3139158839588418 51.855800245339722 0 0.82903758062907751 0.55919289150049634 1 0 0 forward_v I I I I #
loop $-1 $-1 $231 $54 #
coedge $-1 $139 $139 $140 $232 reversed $85 $-1 #
coedge $-1 $140 $140 $139 $232 forward $87 $-1 #
coedge $-1 $141 $141 $88 $142 forward $136 $-1 #
edge $-1 $233 -1.0279713165030387e-015 $233 6.2831853071795996 $141 $234 forward 7 unknown #
face $-1 $235 $236 $31 $-1 $237 forward single #
loop $-1 $-1 $238 $89 #
plane-surface $-1 23.713125873680603 67.970108932703909 99.93748060146504 -1 0 0 0 0.82903758062907751 0.55919289150049634 forward_v I I I I #
coedge $-1 $239 $240 $241 $242 reversed $90 $-1 #
coedge $-1 $148 $92 $243 $244 reversed $58 $-1 #
coedge $-1 $92 $147 $239 $245 reversed $58 $-1 #
coedge $-1 $241 $246 $92 $150 forward $236 $-1 #
edge $-1 $247 5.9925388115706468 $248 8.5843870040227763 $149 $249 forward 7 unknown #
loop $-1 $-1 $156 $93 #
plane-surface $-1 14.835891834686265 -3.3139158839588418 51.855800245339722 0 0.82903758062907751 0.55919289150049634 1 0 0 forward_v I I I I #
loop $-1 $-1 $250 $60 #
coedge $-1 $154 $154 $155 $251 reversed $94 $-1 #
coedge $-1 $155 $155 $154 $251 forward $96 $-1 #
coedge $-1 $156 $156 $97 $157 forward $151 $-1 #
edge $-1 $252 -1.0279713165030387e-015 $252 6.2831853071795996 $156 $253 forward 7 unknown #
face $-1 $254 $255 $33 $-1 $256 reversed single #
loop $-1 $-1 $257 $98 #
plane-surface $-1 -35.415536460729847 -99.276540471444036 51.366046740529185 1 0 0 0 0.82903758062907751 -0.55919289150049634 forward_v I I I I #
coedge $-1 $258 $259 $260 $261 reversed $99 $-1 #
coedge $-1 $163 $101 $262 $263 reversed $64 $-1 #
coedge $-1 $101 $162 $258 $264 reversed $64 $-1 #
coedge $-1 $260 $265 $101 $165 forward $266 $-1 #
edge $-1 $267 21.645754580940711 $268 25.693016028723566 $164 $269 forward 7 unknown #
loop $-1 $-1 $171 $102 #
plane-surface $-1 -24.138959437275322 -27.992515654781286 3.2843663844038673 0 -0.82903758062907751 0.55919289150049634 1 0 0 forward_v I I I I #
loop $-1 $-1 $270 $66 #
coedge $-1 $169 $169 $170 $271 reversed $103 $-1 #
coedge $-1 $170 $170 $169 $271 forward $105 $-1 #
coedge $-1 $171 $171 $106 $172 forward $166 $-1 #
edge $-1 $272 -5.3708245767960617e-016 $272 6.2831853071795996 $171 $273 forward 7 unknown #
loop $-1 $-1 $178 $107 #
plane-surface $-1 -24.138959437275322 -27.992515654781286 3.2843663844038673 0 -0.82903758062907751 0.55919289150049634 1 0 0 forward_v I I I I #
loop $-1 $-1 $274 $69 #
coedge $-1 $176 $176 $177 $275 reversed $108 $-1 #
coedge $-1 $177 $177 $176 $275 forward $110 $-1 #
coedge $-1 $178 $178 $111 $179 forward $173 $-1 #
edge $-1 $276 -5.3708245767960617e-016 $276 6.2831853071795996 $178 $277 forward 7 unknown #
face $-1 $278 $279 $27 $-1 $280 reversed single #
loop $-1 $-1 $281 $112 #
plane-surface $-1 -42.992034669026765 0 0 1 0 0 0 0 -1 forward_v I I I I #
coedge $-1 $282 $191 $283 $284 forward $113 $-1 #
coedge $-1 $285 $115 $282 $286 forward $73 $-1 #
coedge $-1 $115 $285 $287 $288 forward $73 $-1 #
coedge $-1 $194 $193 $115 $187 reversed $195 $-1 #
edge $-1 $289 -27.992515654781307 $290 27.992515654781307 $186 $291 forward 7 unknown #
coedge $-1 $117 $116 $292 $293 forward $46 $-1 #
coedge $-1 $294 $295 $116 $190 reversed $279 $-1 #
edge $-1 $197 -42.992034669026765 $296 42.992034669026765 $189 $297 forward 7 unknown #
coedge $-1 $183 $298 $117 $192 reversed $113 $-1 #
edge $-1 $299 -42.992034669026765 $196 42.992034669026765 $191 $300 forward 7 unknown #
coedge $-1 $186 $118 $298 $301 forward $195 $-1 #
coedge $-1 $118 $186 $294 $302 reversed $195 $-1 #
loop $-1 $-1 $193 $278 #
vertex $-1 $119 $303 #
vertex $-1 $119 $304 #
straight-curve $-1 42.992034669026765 0 9.2846784231348529 0 1 0 I I #
face $-1 $305 $306 $28 $-1 $307 reversed single #
loop $-1 $-1 $308 $120 #
plane-surface $-1 0 -27.992515654781307 0 0 1 0 0 0 1 forward_v I I I I #
coedge $-1 $205 $126 $309 $310 reversed $121 $-1 #
coedge $-1 $311 $123 $308 $312 reversed $77 $-1 #
coedge $-1 $123 $311 $313 $314 reversed $77 $-1 #
coedge $-1 $212 $202 $123 $206 reversed $121 $-1 #
edge $-1 $315 -27.992515654781307 $316 27.992515654781307 $205 $317 forward 7 unknown #
coedge $-1 $125 $124 $318 $319 reversed $49 $-1 #
coedge $-1 $320 $321 $124 $209 forward $322 $-1 #
edge $-1 $323 -23.390141886587614 $214 -15.813643678290688 $208 $324 forward 7 unknown #
coedge $-1 $325 $309 $125 $211 forward $200 $-1 #
edge $-1 $213 15.813643678290688 $326 23.390141886587614 $210 $327 forward 7 unknown #
coedge $-1 $126 $205 $320 $328 reversed $121 $-1 #
vertex $-1 $211 $329 #
vertex $-1 $209 $330 #
straight-curve $-1 -35.41553646072984 0 -1.233796033051934 0 1 0 I I #
face $-1 $-1 $331 $29 $-1 $332 reversed single #
loop $-1 $-1 $134 $128 #
plane-surface $-1 0 0 9.2846784231348529 0 0 1 1 0 0 forward_v I I I I #
coedge $-1 $333 $334 $335 $336 reversed $129 $-1 #
coedge $-1 $337 $131 $133 $226 forward $81 $-1 #
coedge $-1 $131 $337 $333 $338 forward $81 $-1 #
coedge $-1 $335 $134 $131 $223 forward $217 $-1 #
edge $-1 $229 -12.506930852189011 $339 5.2475372257996664 $222 $340 forward 7 unknown #
coedge $-1 $341 $342 $132 $225 forward $331 $-1 #
edge $-1 $343 -44.526634963715757 $228 -40.684061877597671 $224 $344 forward 7 unknown #
edge $-1 $229 51.350050729789245 $343 55.985031309562636 $133 $345 forward 7 unknown #
coedge $-1 $134 $335 $341 $346 forward $217 $-1 #
vertex $-1 $225 $347 #
vertex $-1 $135 $348 #
straight-curve $-1 -16.136627665383685 33.985054466351954 9.2846784231348565 0 -1 0 I I #
coedge $-1 $231 $231 $-1 $349 reversed $138 $-1 #
edge $-1 $350 0 $350 6.2831853071796004 $139 $351 forward 7 unknown #
vertex $-1 $142 $352 #
ellipse-curve $-1 -7.2593936263893468 26.696591558555248 7.3633918800758051 0 0.82903758062907751 0.55919289150049634 0.5 0 0 1 I I #
face $-1 $-1 $353 $31 $-1 $354 reversed single #
loop $-1 $-1 $149 $143 #
plane-surface $-1 0 0 9.2846784231348529 0 0 1 1 0 0 forward_v I I I I #
coedge $-1 $355 $356 $357 $358 reversed $144 $-1 #
coedge $-1 $359 $146 $148 $245 forward $90 $-1 #
coedge $-1 $146 $359 $355 $360 forward $90 $-1 #
coedge $-1 $357 $149 $146 $242 forward $236 $-1 #
edge $-1 $248 -1.4592881216512072 $361 16.295179956337471 $241 $362 forward 7 unknown #
coedge $-1 $363 $364 $147 $244 forward $353 $-1 #
edge $-1 $365 -44.526634963715757 $247 -40.684061877597671 $243 $366 forward 7 unknown #
edge $-1 $248 51.350050729789245 $365 55.985031309562636 $148 $367 forward 7 unknown #
coedge $-1 $149 $357 $363 $368 forward $236 $-1 #
vertex $-1 $150 $369 #
vertex $-1 $150 $370 #
straight-curve $-1 5.9586577956919253 33.985054466351954 9.2846784231348565 0 -1 0 I I #
coedge $-1 $250 $250 $-1 $371 reversed $153 $-1 #
edge $-1 $372 0 $372 6.2831853071796004 $154 $373 forward 7 unknown #
vertex $-1 $157 $374 #
ellipse-curve $-1 14.835891834686265 26.696591558555248 7.3633918800758051 0 0.82903758062907751 0.55919289150049634 0.5 0 0 1 I I #
face $-1 $-1 $266 $33 $-1 $375 forward single #
loop $-1 $-1 $376 $158 #
plane-surface $-1 0 -27.992515654781307 0 0 1 0 0 0 1 forward_v I I I I #
coedge $-1 $377 $378 $379 $380 reversed $159 $-1 #
coedge $-1 $381 $161 $163 $264 forward $99 $-1 #
coedge $-1 $161 $381 $377 $382 forward $99 $-1 #
coedge $-1 $379 $164 $161 $261 forward $266 $-1 #
edge $-1 $268 0.79290269518313572 $383 23.346056742092188 $260 $384 forward 7 unknown #
coedge $-1 $385 $386 $162 $263 forward $255 $-1 #
edge $-1 $387 -22.398656985860757 $267 -16.39834494712974 $262 $388 forward 7 unknown #
edge $-1 $268 -7.2376840072532316 $387 3.8059745140678707e-014 $163 $389 forward 7 unknown #
coedge $-1 $164 $379 $385 $390 forward $266 $-1 #
loop $-1 $-1 $379 $254 #
vertex $-1 $263 $391 #
vertex $-1 $165 $392 #
straight-curve $-1 -12.862382413820797 -49.638270235722018 9.2846784231348529 0 1 0 I I #
coedge $-1 $270 $270 $-1 $393 reversed $168 $-1 #
edge $-1 $394 0 $394 6.2831853071796004 $169 $395 forward 7 unknown #
vertex $-1 $172 $396 #
ellipse-curve $-1 -28.971778161612974 -25.968884930889878 6.2845224037693495 0 -0.82903758062907751 0.55919289150049634 1.5 0 0 1 I I #
coedge $-1 $274 $274 $-1 $397 reversed $175 $-1 #
edge $-1 $398 0 $398 6.2831853071796004 $176 $399 forward 7 unknown #
vertex $-1 $179 $400 #
ellipse-curve $-1 -19.306140712937669 -25.968884930889878 6.2845224037693495 0 -0.82903758062907751 0.55919289150049634 1.5 0 0 1 I I #
face $-1 $-1 $195 $27 $-1 $401 reversed single #
loop $-1 $-1 $294 $180 #
plane-surface $-1 0 27.992515654781307 0 0 -1 0 0 0 -1 forward_v I I I I #
coedge $-1 $402 $292 $295 $403 forward $181 $-1 #
coedge $-1 $298 $183 $184 $286 reversed $113 $-1 #
coedge $-1 $292 $402 $183 $284 reversed $181 $-1 #
edge $-1 $299 -9.2846784231348529 $404 9.2846784231348529 $283 $405 forward 7 unknown #
coedge $-1 $185 $184 $402 $406 forward $73 $-1 #
edge $-1 $290 -42.992034669026765 $404 42.992034669026765 $282 $407 forward 7 unknown #
coedge $-1 $295 $294 $185 $288 reversed $279 $-1 #
edge $-1 $408 -42.992034669026765 $289 42.992034669026765 $287 $409 forward 7 unknown #
vertex $-1 $187 $410 #
vertex $-1 $301 $411 #
straight-curve $-1 42.992034669026765 0 -9.2846784231348529 0 -1 0 I I #
coedge $-1 $281 $283 $188 $293 reversed $181 $-1 #
edge $-1 $296 -27.992515654781307 $299 27.992515654781307 $292 $412 forward 7 unknown #
coedge $-1 $287 $189 $194 $302 forward $279 $-1 #
coedge $-1 $189 $287 $281 $403 reversed $279 $-1 #
vertex $-1 $190 $413 #
straight-curve $-1 0 27.992515654781307 9.2846784231348529 -1 0 0 I I #
coedge $-1 $191 $282 $193 $301 reversed $113 $-1 #
vertex $-1 $293 $414 #
straight-curve $-1 0 -27.992515654781307 9.2846784231348529 1 0 0 I I #
edge $-1 $196 -9.2846784231348529 $290 9.2846784231348529 $193 $415 forward 7 unknown #
edge $-1 $197 -9.2846784231348529 $289 9.2846784231348529 $194 $416 forward 7 unknown #
point $-1 42.992034669026765 -27.992515654781307 9.2846784231348529 #
point $-1 42.992034669026765 27.992515654781307 9.2846784231348529 #
face $-1 $-1 $322 $28 $-1 $417 reversed single #
loop $-1 $-1 $418 $199 #
plane-surface $-1 -42.992034669026765 0 0 1 0 0 0 0 -1 forward_v I I I I #
coedge $-1 $309 $325 $203 $312 forward $200 $-1 #
coedge $-1 $210 $308 $202 $310 forward $200 $-1 #
edge $-1 $316 -2.8668980165259672 $213 0.13310198347403324 $309 $419 forward 7 unknown #
coedge $-1 $204 $203 $418 $420 reversed $77 $-1 #
edge $-1 $421 -23.390141886587614 $316 -15.813643678290688 $308 $422 forward 7 unknown #
coedge $-1 $321 $320 $204 $314 forward $322 $-1 #
edge $-1 $315 15.813643678290688 $423 23.390141886587614 $313 $424 forward 7 unknown #
vertex $-1 $314 $425 #
vertex $-1 $312 $426 #
straight-curve $-1 -35.41553646072984 0 -4.2337960330519344 0 -1 0 I I #
coedge $-1 $427 $428 $207 $319 forward $306 $-1 #
edge $-1 $326 -27.992515654781307 $323 27.992515654781307 $318 $429 forward 7 unknown #
coedge $-1 $313 $208 $212 $328 forward $322 $-1 #
coedge $-1 $208 $313 $427 $430 reversed $322 $-1 #
loop $-1 $-1 $313 $305 #
vertex $-1 $430 $431 #
straight-curve $-1 -19.601892782439151 27.992515654781307 -1.233796033051934 1 0 0 I I #
coedge $-1 $308 $210 $428 $432 forward $200 $-1 #
vertex $-1 $432 $433 #
straight-curve $-1 -19.601892782439151 -27.992515654781307 -1.233796033051934 -1 0 0 I I #
edge $-1 $214 -0.13310198347403324 $315 2.8668980165259672 $320 $434 forward 7 unknown #
point $-1 -35.41553646072984 -27.992515654781307 -1.233796033051934 #
point $-1 -35.41553646072984 27.992515654781307 -1.233796033051934 #
loop $-1 $-1 $224 $216 #
plane-surface $-1 0 27.992515654781307 0 0 -1 0 0 0 -1 forward_v I I I I #
coedge $-1 $334 $219 $221 $338 reversed $129 $-1 #
coedge $-1 $219 $333 $435 $436 reversed $129 $-1 #
coedge $-1 $227 $222 $219 $336 forward $217 $-1 #
edge $-1 $339 -8.5843870040227763 $437 -5.9925388115706468 $335 $438 forward 7 unknown #
coedge $-1 $221 $220 $342 $439 reversed $81 $-1 #
edge $-1 $440 -55.985031309562636 $339 -51.350050729789245 $333 $441 forward 7 unknown #
vertex $-1 $223 $442 #
straight-curve $-1 -3.6296968131946734 25.400667462329178 9.2846784231348529 1 0 0 I I #
coedge $-1 $435 $224 $227 $346 reversed $331 $-1 #
coedge $-1 $224 $435 $337 $439 forward $331 $-1 #
vertex $-1 $225 $443 #
straight-curve $-1 -16.136627665383685 27.992515654781307 49.96874030073252 0 0 1 I I #
straight-curve $-1 -16.136627665383685 -3.3139158839588418 51.855800245339722 0 0.55919289150049634 -0.82903758062907751 I I #
edge $-1 $437 -1.617840412604993 $228 16.136627665383685 $341 $444 forward 7 unknown #
point $-1 -16.136627665383685 27.992515654781307 9.2846784231348529 #
point $-1 -16.136627665383685 25.400667462329178 9.2846784231348494 #
edge $-1 $445 1 $445 0 $231 $-1 forward 7 unknown #
vertex $-1 $232 $446 #
ellipse-curve $-1 -7.2593936263893468 25.867553977926168 6.8041989885753074 0 0.82903758062907751 0.55919289150049634 0.5 0 0 1 I I #
point $-1 -6.7593936263893468 26.696591558555244 7.3633918800758034 #
loop $-1 $-1 $243 $235 #
plane-surface $-1 0 27.992515654781307 0 0 -1 0 0 0 -1 forward_v I I I I #
coedge $-1 $356 $238 $240 $360 reversed $144 $-1 #
coedge $-1 $238 $355 $447 $448 reversed $144 $-1 #
coedge $-1 $246 $241 $238 $358 forward $236 $-1 #
edge $-1 $361 -8.5843870040227763 $449 -5.9925388115706468 $357 $450 forward 7 unknown #
coedge $-1 $240 $239 $364 $451 reversed $90 $-1 #
edge $-1 $452 -55.985031309562636 $361 -51.350050729789245 $355 $453 forward 7 unknown #
vertex $-1 $242 $454 #
straight-curve $-1 7.4179459173431326 25.400667462329178 9.2846784231348529 1 0 0 I I #
coedge $-1 $447 $243 $246 $368 reversed $353 $-1 #
coedge $-1 $243 $447 $359 $451 forward $353 $-1 #
vertex $-1 $244 $455 #
straight-curve $-1 5.9586577956919253 27.992515654781307 49.96874030073252 0 0 1 I I #
straight-curve $-1 5.9586577956919253 -3.3139158839588418 51.855800245339722 0 0.55919289150049634 -0.82903758062907751 I I #
edge $-1 $449 -23.713125873680603 $247 -5.9586577956919253 $363 $456 forward 7 unknown #
point $-1 5.9586577956919253 27.992515654781307 9.2846784231348529 #
point $-1 5.9586577956919253 25.400667462329178 9.2846784231348494 #
edge $-1 $457 1 $457 0 $250 $-1 forward 7 unknown #
vertex $-1 $251 $458 #
ellipse-curve $-1 14.835891834686265 25.867553977926168 6.8041989885753074 0 0.82903758062907751 0.55919289150049634 0.5 0 0 1 I I #
point $-1 15.335891834686265 26.696591558555244 7.3633918800758034 #
plane-surface $-1 0 0 9.2846784231348529 0 0 1 1 0 0 forward_v I I I I #
coedge $-1 $386 $385 $378 $459 forward $255 $-1 #
coedge $-1 $378 $257 $259 $382 reversed $159 $-1 #
coedge $-1 $257 $377 $376 $459 reversed $159 $-1 #
coedge $-1 $265 $260 $257 $380 forward $266 $-1 #
edge $-1 $383 -25.693016028723566 $460 -21.645754580940711 $379 $461 forward 7 unknown #
coedge $-1 $259 $258 $386 $462 reversed $99 $-1 #
edge $-1 $463 -3.8059745140678707e-014 $383 7.2376840072532316 $377 $464 forward 7 unknown #
vertex $-1 $261 $465 #
straight-curve $-1 -12.069479718637661 -23.945254206998456 9.2846784231348529 -1 0 0 I I #
coedge $-1 $376 $262 $265 $390 reversed $255 $-1 #
coedge $-1 $262 $376 $381 $462 forward $255 $-1 #
vertex $-1 $263 $466 #
straight-curve $-1 -12.862382413820797 -27.992515654781307 25.683023370264593 0 0 1 I I #
straight-curve $-1 -12.862382413820797 -27.992515654781286 3.2843663844038673 0 -0.55919289150049634 -0.82903758062907751 I I #
edge $-1 $460 -35.415536460729847 $267 -12.862382413820797 $385 $467 forward 7 unknown #
point $-1 -12.862382413820797 -27.992515654781307 9.2846784231348529 #
point $-1 -12.862382413820797 -23.945254206998452 9.2846784231348529 #
edge $-1 $468 1 $468 0 $270 $-1 forward 7 unknown #
vertex $-1 $271 $469 #
ellipse-curve $-1 -28.971778161612974 -22.910830020220779 4.2218383857942445 0 -0.82903758062907751 0.55919289150049634 1.5 0 0 1 I I #
point $-1 -27.471778161612974 -25.968884930889889 6.2845224037693557 #
edge $-1 $470 1 $470 0 $274 $-1 forward 7 unknown #
vertex $-1 $275 $471 #
ellipse-curve $-1 -19.306140712937669 -22.910830020220779 4.2218383857942445 0 -0.82903758062907751 0.55919289150049634 1.5 0 0 1 I I #
point $-1 -17.806140712937669 -25.968884930889889 6.2845224037693557 #
plane-surface $-1 42.992034669026765 0 0 -1 0 0 0 0 1 forward_v I I I I #
coedge $-1 $283 $281 $285 $406 reversed $181 $-1 #
edge $-1 $296 -9.2846784231348529 $408 9.2846784231348529 $295 $472 forward 7 unknown #
vertex $-1 $406 $473 #
straight-curve $-1 -42.992034669026765 -27.992515654781307 0 0 0 -1 I I #
edge $-1 $404 -27.992515654781307 $408 27.992515654781307 $402 $474 forward 7 unknown #
straight-curve $-1 0 -27.992515654781307 -9.2846784231348529 -1 0 0 I I #
vertex $-1 $288 $475 #
straight-curve $-1 0 27.992515654781307 -9.2846784231348529 1 0 0 I I #
point $-1 42.992034669026765 27.992515654781307 -9.2846784231348529 #
point $-1 42.992034669026765 -27.992515654781307 -9.2846784231348529 #
straight-curve $-1 -42.992034669026765 0 9.2846784231348529 0 -1 0 I I #
point $-1 -42.992034669026765 27.992515654781307 9.2846784231348529 #
point $-1 -42.992034669026765 -27.992515654781307 9.2846784231348529 #
straight-curve $-1 42.992034669026765 -27.992515654781307 0 0 0 -1 I I #
straight-curve $-1 42.992034669026765 27.992515654781307 0 0 0 -1 I I #
plane-surface $-1 0 27.992515654781307 0 0 -1 0 0 0 -1 forward_v I I I I #
coedge $-1 $428 $427 $311 $420 forward $306 $-1 #
straight-curve $-1 -35.41553646072984 -27.992515654781307 -1.3668980165259672 0 0 1 I I #
edge $-1 $423 -27.992515654781307 $421 27.992515654781307 $418 $476 forward 7 unknown #
vertex $-1 $312 $477 #
straight-curve $-1 -19.601892782439151 -27.992515654781307 -4.2337960330519344 1 0 0 I I #
vertex $-1 $314 $478 #
straight-curve $-1 -19.601892782439151 27.992515654781307 -4.2337960330519344 -1 0 0 I I #
point $-1 -35.41553646072984 27.992515654781307 -4.2337960330519344 #
point $-1 -35.41553646072984 -27.992515654781307 -4.2337960330519344 #
coedge $-1 $418 $318 $321 $430 forward $306 $-1 #
coedge $-1 $318 $418 $325 $432 reversed $306 $-1 #
straight-curve $-1 -42.992034669026765 0 -1.233796033051934 0 1 0 I I #
edge $-1 $323 1.233796033051934 $423 4.2337960330519344 $321 $479 forward 7 unknown #
point $-1 -42.992034669026765 27.992515654781307 -1.233796033051934 #
edge $-1 $326 1.233796033051934 $421 4.2337960330519344 $428 $480 forward 7 unknown #
point $-1 -42.992034669026765 -27.992515654781307 -1.233796033051934 #
straight-curve $-1 -35.41553646072984 27.992515654781307 -1.3668980165259672 0 0 -1 I I #
coedge $-1 $342 $341 $334 $436 forward $331 $-1 #
edge $-1 $437 40.684061877597671 $440 44.526634963715757 $435 $481 forward 7 unknown #
vertex $-1 $346 $482 #
straight-curve $-1 1.617840412604993 33.985054466351954 9.2846784231348565 0 1 0 I I #
edge $-1 $440 -5.2475372257996664 $343 12.506930852189011 $342 $483 forward 7 unknown #
vertex $-1 $439 $484 #
straight-curve $-1 1.617840412604993 -3.3139158839588418 51.855800245339722 0 -0.55919289150049634 0.82903758062907751 I I #
point $-1 1.617840412604993 25.400667462329178 9.2846784231348494 #
point $-1 -16.136627665383685 27.992515654781307 5.4421053370167627 #
straight-curve $-1 0 27.992515654781307 9.2846784231348529 -1 0 0 I I #
vertex $-1 $349 $485 #
point $-1 -6.7593936263893468 25.867553977926168 6.8041989885753074 #
coedge $-1 $364 $363 $356 $448 forward $353 $-1 #
edge $-1 $449 40.684061877597671 $452 44.526634963715757 $447 $486 forward 7 unknown #
vertex $-1 $368 $487 #
straight-curve $-1 23.713125873680603 33.985054466351954 9.2846784231348565 0 1 0 I I #
edge $-1 $452 -16.295179956337471 $365 1.4592881216512072 $364 $488 forward 7 unknown #
vertex $-1 $451 $489 #
straight-curve $-1 23.713125873680603 -3.3139158839588418 51.855800245339722 0 -0.55919289150049634 0.82903758062907751 I I #
point $-1 23.713125873680603 25.400667462329178 9.2846784231348494 #
point $-1 5.9586577956919253 27.992515654781307 5.4421053370167627 #
straight-curve $-1 0 27.992515654781307 9.2846784231348529 -1 0 0 I I #
vertex $-1 $371 $490 #
point $-1 15.335891834686265 25.867553977926168 6.8041989885753074 #
edge $-1 $460 16.39834494712974 $463 22.398656985860757 $376 $491 forward 7 unknown #
vertex $-1 $390 $492 #
straight-curve $-1 -35.415536460729847 -49.638270235722018 9.2846784231348529 0 -1 0 I I #
edge $-1 $463 -23.346056742092188 $387 -0.79290269518313572 $386 $493 forward 7 unknown #
vertex $-1 $462 $494 #
straight-curve $-1 -35.415536460729847 -27.992515654781286 3.2843663844038673 0 0.55919289150049634 0.82903758062907751 I I #
point $-1 -35.415536460729847 -23.945254206998452 9.2846784231348529 #
point $-1 -12.862382413820797 -27.992515654781307 3.2843663844038358 #
straight-curve $-1 0 -27.992515654781307 9.2846784231348529 1 0 0 I I #
vertex $-1 $393 $495 #
point $-1 -27.471778161612974 -22.910830020220779 4.2218383857942445 #
vertex $-1 $397 $496 #
point $-1 -17.806140712937669 -22.910830020220779 4.2218383857942445 #
straight-curve $-1 -42.992034669026765 27.992515654781307 0 0 0 -1 I I #
point $-1 -42.992034669026765 -27.992515654781307 -9.2846784231348529 #
straight-curve $-1 -42.992034669026765 0 -9.2846784231348529 0 1 0 I I #
point $-1 -42.992034669026765 27.992515654781307 -9.2846784231348529 #
straight-curve $-1 -42.992034669026765 0 -4.2337960330519344 0 -1 0 I I #
point $-1 -42.992034669026765 -27.992515654781307 -4.2337960330519344 #
point $-1 -42.992034669026765 27.992515654781307 -4.2337960330519344 #
straight-curve $-1 -42.992034669026765 27.992515654781307 0 0 0 -1 I I #
straight-curve $-1 -42.992034669026765 -27.992515654781307 0 0 0 -1 I I #
straight-curve $-1 1.617840412604993 27.992515654781307 49.96874030073252 0 0 -1 I I #
point $-1 1.617840412604993 27.992515654781307 9.2846784231348529 #
straight-curve $-1 -3.6296968131946734 27.992515654781307 5.4421053370167556 -1 0 0 I I #
point $-1 1.617840412604993 27.992515654781307 5.4421053370167627 #
point $-1 -7.2593936263893468 25.453035187611629 6.5246025428250585 #
straight-curve $-1 23.713125873680603 27.992515654781307 49.96874030073252 0 0 -1 I I #
point $-1 23.713125873680603 27.992515654781307 9.2846784231348529 #
straight-curve $-1 7.4179459173431326 27.992515654781307 5.4421053370167556 -1 0 0 I I #
point $-1 23.713125873680603 27.992515654781307 5.4421053370167627 #
point $-1 14.835891834686265 25.453035187611629 6.5246025428250585 #
straight-curve $-1 -35.415536460729847 -27.992515654781307 25.683023370264593 0 0 -1 I I #
point $-1 -35.415536460729847 -27.992515654781307 9.2846784231348529 #
straight-curve $-1 -12.069479718637661 -27.992515654781307 3.2843663844038344 1 0 0 I I #
point $-1 -35.415536460729847 -27.992515654781307 3.2843663844038358 #
point $-1 -28.971778161612974 -21.667273649277163 3.3830490485434996 #
point $-1 -19.306140712937669 -21.667273649277163 3.3830490485434996 #
End-of-ACIS-data 