500 0 8 0           
7 Unknown 11 ACIS 5.0 NT 24 Thu Mar 25 22:21:28 1999 
-1 9.9999999999999995e-007 1e-010 
body $-1 $8 $-1 $9 #
body $-1 $10 $-1 $11 #
body $-1 $12 $-1 $13 #
body $-1 $14 $-1 $15 #
body $-1 $16 $-1 $17 #
body $-1 $18 $-1 $19 #
body $-1 $20 $-1 $21 #
body $-1 $22 $-1 $23 #
lump $-1 $-1 $24 $0 #
transform $-1 1 0 0 0 1 0 0 0 1 58.951994384594258 26.74204380422897 8.9134977207753998 1 rotate no_reflect no_shear #
lump $-1 $-1 $25 $1 #
transform $-1 1 0 0 0 1 0 0 0 1 58.951994384594258 26.74204380422897 8.9134977207753998 1 rotate no_reflect no_shear #
lump $-1 $-1 $26 $2 #
transform $-1 1 0 0 0 1 0 0 0 1 58.951994384594258 26.74204380422897 8.9134977207753998 1 rotate no_reflect no_shear #
lump $-1 $-1 $27 $3 #
transform $-1 1 0 0 0 1 0 0 0 1 58.951994384594258 26.74204380422897 8.9134977207753998 1 rotate no_reflect no_shear #
lump $-1 $-1 $28 $4 #
transform $-1 1 0 0 0 1 0 0 0 1 58.951994384594258 26.74204380422897 8.9134977207753998 1 rotate no_reflect no_shear #
lump $-1 $-1 $29 $5 #
transform $-1 1 0 0 0 1 0 0 0 1 58.951994384594258 26.74204380422897 8.9134977207753998 1 rotate no_reflect no_shear #
lump $-1 $-1 $30 $6 #
transform $-1 1 0 0 0 1 0 0 0 1 58.951994384594258 26.74204380422897 8.9134977207753998 1 rotate no_reflect no_shear #
lump $-1 $-1 $31 $7 #
transform $-1 1 0 0 0 1 0 0 0 1 58.951994384594258 26.74204380422897 8.9134977207753998 1 rotate no_reflect no_shear #
shell $-1 $-1 $-1 $32 $-1 $8 #
shell $-1 $-1 $-1 $33 $-1 $10 #
shell $-1 $-1 $-1 $34 $-1 $12 #
shell $-1 $-1 $-1 $35 $-1 $14 #
shell $-1 $-1 $-1 $36 $-1 $16 #
shell $-1 $-1 $-1 $37 $-1 $18 #
shell $-1 $-1 $-1 $38 $-1 $20 #
shell $-1 $-1 $-1 $39 $-1 $22 #
face $-1 $40 $41 $24 $-1 $42 forward single #
face $-1 $43 $44 $25 $-1 $45 reversed single #
face $-1 $46 $47 $26 $-1 $48 reversed single #
face $-1 $49 $50 $27 $-1 $51 forward single #
face $-1 $52 $53 $28 $-1 $54 forward single #
face $-1 $55 $56 $29 $-1 $57 forward single #
face $-1 $58 $59 $30 $-1 $60 reversed single #
face $-1 $61 $62 $31 $-1 $63 forward single #
face $-1 $64 $65 $24 $-1 $66 reversed single #
loop $-1 $-1 $67 $32 #
plane-surface $-1 0 0 8.9134977207753998 0 0 1 1 0 0 forward_v I I I I #
face $-1 $68 $69 $25 $-1 $70 reversed single #
loop $-1 $-1 $71 $33 #
plane-surface $-1 -53.218730477376276 -13.210947856254919 0 0 1 0 0 0 1 forward_v I I I I #
face $-1 $72 $73 $26 $-1 $74 reversed single #
loop $-1 $-1 $75 $34 #
plane-surface $-1 -47.485466570158295 59.376486695497832 129.84810186693255 1 0 0 0 -0.62932039886446345 -0.77714595512881146 forward_v I I I I #
face $-1 $76 $77 $27 $-1 $78 forward single #
loop $-1 $79 $80 $35 #
cone-surface $-1 -42.466498678035478 23.100396609948788 5.5589404515572074 0 -0.62932039886446345 -0.77714595512881146 1.5 0 0 1 I I 0 1 1.5 forward I I I I #
face $-1 $81 $82 $28 $-1 $83 forward single #
loop $-1 $84 $85 $36 #
cone-surface $-1 -34.938046839851268 23.100396609948788 5.5589404515572074 0 -0.62932039886446345 -0.77714595512881146 1.5 0 0 1 I I 0 1 1.5 forward I I I I #
face $-1 $86 $87 $29 $-1 $88 forward single #
loop $-1 $89 $90 $37 #
cone-surface $-1 -27.409595001667046 23.100396609948788 5.5589404515572074 0 -0.62932039886446345 -0.77714595512881146 1.5 0 0 1 I I 0 1 1.5 forward I I I I #
face $-1 $91 $92 $30 $-1 $93 reversed single #
loop $-1 $-1 $94 $38 #
plane-surface $-1 -11.599887157875987 -108.64503747542923 90.713895552431794 -1 0 0 0 -0.69465837861970381 0.71933979245794832 forward_v I I I I #
face $-1 $95 $96 $31 $-1 $97 forward single #
loop $-1 $98 $99 $39 #
cone-surface $-1 -19.078314981084667 -24.047957752868221 6.2326313104781947 0 0.69465837861970381 -0.71933979245794832 1 0 0 1 I I 0 1 1 forward I I I I #
face $-1 $100 $101 $24 $-1 $102 reversed single #
loop $-1 $-1 $103 $40 #
plane-surface $-1 0 0 -8.9134977207753998 0 0 1 1 0 0 forward_v I I I I #
coedge $-1 $104 $105 $106 $107 forward $41 $-1 #
face $-1 $108 $109 $25 $-1 $110 reversed single #
loop $-1 $-1 $111 $43 #
plane-surface $-1 -53.218730477376276 -8.9150483626781707 0 0 -1 0 0 0 -1 forward_v I I I I #
coedge $-1 $112 $113 $114 $115 reversed $44 $-1 #
face $-1 $116 $117 $26 $-1 $118 reversed single #
loop $-1 $-1 $119 $46 #
plane-surface $-1 -34.938046839851268 -14.822898544439099 38.219493901404888 0 0.62932039886446345 0.77714595512881146 1 0 0 forward_v I I I I #
coedge $-1 $120 $121 $122 $123 reversed $47 $-1 #
face $-1 $-1 $124 $27 $-1 $125 forward single #
loop $-1 $126 $127 $49 #
cone-surface $-1 -42.466498678035478 21.674284986450083 3.7978392990059824 0 -0.62932039886446345 -0.77714595512881146 0.75 0 0 1 I I -0.70710678118654757 0.70710678118654757 0.75 forward I I I I #
loop $-1 $-1 $128 $35 #
coedge $-1 $80 $80 $129 $130 reversed $50 $-1 #
face $-1 $-1 $131 $28 $-1 $132 forward single #
loop $-1 $133 $134 $52 #
cone-surface $-1 -34.938046839851268 21.674284986450083 3.7978392990059824 0 -0.62932039886446345 -0.77714595512881146 0.75 0 0 1 I I -0.70710678118654757 0.70710678118654757 0.75 forward I I I I #
loop $-1 $-1 $135 $36 #
coedge $-1 $85 $85 $136 $137 reversed $53 $-1 #
face $-1 $-1 $138 $29 $-1 $139 forward single #
loop $-1 $140 $141 $55 #
cone-surface $-1 -27.409595001667046 21.674284986450083 3.7978392990059824 0 -0.62932039886446345 -0.77714595512881146 0.75 0 0 1 I I -0.70710678118654757 0.70710678118654757 0.75 forward I I I I #
loop $-1 $-1 $142 $37 #
coedge $-1 $90 $90 $143 $144 reversed $56 $-1 #
face $-1 $145 $146 $30 $-1 $147 reversed single #
loop $-1 $-1 $148 $58 #
plane-surface $-1 -19.078314981084674 -26.74204380422897 5.9008647412394595 0 -0.69465837861970381 0.71933979245794832 1 0 0 forward_v I I I I #
coedge $-1 $149 $150 $151 $152 reversed $59 $-1 #
face $-1 $-1 $153 $31 $-1 $154 forward single #
loop $-1 $155 $156 $61 #
cone-surface $-1 -19.078314981084667 -22.566378864101576 4.6984114937199877 0 0.69465837861970381 -0.71933979245794832 0.5 0 0 1 I I -0.70710678118654746 0.70710678118654746 0.5 forward I I I I #
loop $-1 $-1 $157 $39 #
coedge $-1 $99 $99 $158 $159 reversed $62 $-1 #
face $-1 $160 $161 $24 $-1 $162 reversed single #
loop $-1 $-1 $163 $64 #
plane-surface $-1 0 -26.74204380422897 0 0 1 0 0 0 1 forward_v I I I I #
coedge $-1 $164 $165 $166 $167 forward $65 $-1 #
coedge $-1 $168 $67 $169 $170 forward $41 $-1 #
coedge $-1 $67 $168 $171 $172 forward $41 $-1 #
coedge $-1 $173 $174 $67 $107 reversed $175 $-1 #
edge $-1 $176 -26.74204380422897 $177 26.74204380422897 $106 $178 forward 7 unknown #
face $-1 $179 $180 $25 $-1 $181 reversed single #
loop $-1 $-1 $182 $68 #
plane-surface $-1 -47.485466570158295 -11.062998109466545 0 -1 0 0 0 0 1 forward_v I I I I #
coedge $-1 $183 $184 $185 $186 forward $69 $-1 #
coedge $-1 $187 $71 $188 $189 reversed $44 $-1 #
coedge $-1 $71 $187 $190 $191 reversed $44 $-1 #
coedge $-1 $192 $193 $71 $115 forward $194 $-1 #
edge $-1 $195 -8.9134977207753998 $196 8.9134977207753998 $114 $197 forward 7 unknown #
face $-1 $198 $199 $26 $-1 $200 reversed single #
loop $-1 $-1 $201 $72 #
plane-surface $-1 -22.390627109544237 59.376486695497832 129.84810186693255 -1 0 0 0 0.62932039886446345 0.77714595512881146 forward_v I I I I #
coedge $-1 $202 $203 $204 $205 reversed $73 $-1 #
coedge $-1 $121 $75 $206 $207 reversed $47 $-1 #
coedge $-1 $75 $120 $202 $208 reversed $47 $-1 #
coedge $-1 $204 $209 $75 $123 forward $210 $-1 #
edge $-1 $211 2.9461995435199455 $212 8.3212512833796097 $122 $213 forward 7 unknown #
loop $-1 $-1 $129 $76 #
plane-surface $-1 -34.938046839851268 -14.822898544439099 38.219493901404888 0 0.62932039886446345 0.77714595512881146 1 0 0 forward_v I I I I #
loop $-1 $-1 $214 $49 #
coedge $-1 $127 $127 $128 $215 reversed $77 $-1 #
coedge $-1 $128 $128 $127 $215 forward $79 $-1 #
coedge $-1 $129 $129 $80 $130 forward $124 $-1 #
edge $-1 $216 1.0728750326545172e-015 $216 6.2831853071796013 $129 $217 forward 7 unknown #
loop $-1 $-1 $136 $81 #
plane-surface $-1 -34.938046839851268 -14.822898544439099 38.219493901404888 0 0.62932039886446345 0.77714595512881146 1 0 0 forward_v I I I I #
loop $-1 $-1 $218 $52 #
coedge $-1 $134 $134 $135 $219 reversed $82 $-1 #
coedge $-1 $135 $135 $134 $219 forward $84 $-1 #
coedge $-1 $136 $136 $85 $137 forward $131 $-1 #
edge $-1 $220 1.0728750326545172e-015 $220 6.2831853071796013 $136 $221 forward 7 unknown #
loop $-1 $-1 $143 $86 #
plane-surface $-1 -34.938046839851268 -14.822898544439099 38.219493901404888 0 0.62932039886446345 0.77714595512881146 1 0 0 forward_v I I I I #
loop $-1 $-1 $222 $55 #
coedge $-1 $141 $141 $142 $223 reversed $87 $-1 #
coedge $-1 $142 $142 $141 $223 forward $89 $-1 #
coedge $-1 $143 $143 $90 $144 forward $138 $-1 #
edge $-1 $224 1.0728750326545172e-015 $224 6.2831853071796013 $143 $225 forward 7 unknown #
face $-1 $226 $227 $30 $-1 $228 forward single #
loop $-1 $-1 $229 $91 #
plane-surface $-1 -26.556742804293361 -108.64503747542923 90.713895552431794 1 0 0 0 0.69465837861970381 -0.71933979245794832 forward_v I I I I #
coedge $-1 $230 $231 $232 $233 reversed $92 $-1 #
coedge $-1 $150 $94 $234 $235 reversed $59 $-1 #
coedge $-1 $94 $149 $230 $236 reversed $59 $-1 #
coedge $-1 $232 $237 $94 $152 forward $227 $-1 #
edge $-1 $238 27.580474933485647 $239 30.700147637293561 $151 $240 forward 7 unknown #
loop $-1 $-1 $158 $95 #
plane-surface $-1 -19.078314981084674 -26.74204380422897 5.9008647412394595 0 -0.69465837861970381 0.71933979245794832 1 0 0 forward_v I I I I #
loop $-1 $-1 $241 $61 #
coedge $-1 $156 $156 $157 $242 reversed $96 $-1 #
coedge $-1 $157 $157 $156 $242 forward $98 $-1 #
coedge $-1 $158 $158 $99 $159 forward $153 $-1 #
edge $-1 $243 0 $243 6.2831853071796004 $158 $244 forward 7 unknown #
face $-1 $245 $246 $24 $-1 $247 reversed single #
loop $-1 $-1 $248 $100 #
plane-surface $-1 -58.951994384594258 0 0 1 0 0 0 0 -1 forward_v I I I I #
coedge $-1 $249 $171 $250 $251 forward $101 $-1 #
coedge $-1 $252 $103 $249 $253 forward $65 $-1 #
coedge $-1 $103 $252 $254 $255 forward $65 $-1 #
coedge $-1 $174 $173 $103 $167 reversed $175 $-1 #
edge $-1 $256 -26.74204380422897 $257 26.74204380422897 $166 $258 forward 7 unknown #
coedge $-1 $105 $104 $259 $260 forward $41 $-1 #
coedge $-1 $261 $262 $104 $170 reversed $246 $-1 #
edge $-1 $177 -58.951994384594258 $263 58.951994384594258 $169 $264 forward 7 unknown #
coedge $-1 $163 $265 $105 $172 reversed $101 $-1 #
edge $-1 $266 -58.951994384594258 $176 58.951994384594258 $171 $267 forward 7 unknown #
coedge $-1 $166 $106 $265 $268 forward $175 $-1 #
coedge $-1 $106 $166 $261 $269 reversed $175 $-1 #
loop $-1 $-1 $173 $245 #
vertex $-1 $107 $270 #
vertex $-1 $107 $271 #
straight-curve $-1 58.951994384594258 0 8.9134977207753998 0 1 0 I I #
face $-1 $272 $273 $25 $-1 $274 forward single #
loop $-1 $-1 $275 $108 #
plane-surface $-1 0 0 -8.9134977207753998 0 0 1 1 0 0 forward_v I I I I #
coedge $-1 $276 $277 $187 $278 forward $109 $-1 #
coedge $-1 $279 $111 $275 $280 reversed $69 $-1 #
coedge $-1 $111 $279 $281 $282 reversed $69 $-1 #
coedge $-1 $277 $276 $111 $186 reversed $109 $-1 #
edge $-1 $283 -8.9134977207753998 $284 8.9134977207753998 $185 $285 forward 7 unknown #
coedge $-1 $113 $112 $182 $278 reversed $44 $-1 #
coedge $-1 $286 $287 $112 $189 forward $180 $-1 #
edge $-1 $288 20.876101331470156 $195 32.342629145906116 $188 $289 forward 7 unknown #
coedge $-1 $290 $291 $113 $191 forward $273 $-1 #
edge $-1 $196 -32.342629145906116 $292 -20.876101331470156 $190 $293 forward 7 unknown #
coedge $-1 $294 $114 $291 $295 reversed $194 $-1 #
coedge $-1 $114 $294 $286 $296 reversed $194 $-1 #
loop $-1 $-1 $294 $272 #
vertex $-1 $296 $297 #
vertex $-1 $115 $298 #
straight-curve $-1 -58.951994384594258 -13.210947856254919 0 0 0 1 I I #
face $-1 $-1 $210 $26 $-1 $299 forward single #
loop $-1 $-1 $300 $116 #
plane-surface $-1 0 26.74204380422897 0 0 -1 0 0 0 -1 forward_v I I I I #
coedge $-1 $301 $302 $303 $304 reversed $117 $-1 #
coedge $-1 $305 $119 $121 $208 forward $73 $-1 #
coedge $-1 $119 $305 $301 $306 forward $73 $-1 #
coedge $-1 $303 $122 $119 $205 forward $210 $-1 #
edge $-1 $212 -30.016443150232661 $307 -4.9216036896186033 $204 $308 forward 7 unknown #
coedge $-1 $309 $310 $120 $207 forward $199 $-1 #
edge $-1 $311 -60.363184378718039 $211 -56.01055321269088 $206 $312 forward 7 unknown #
edge $-1 $212 46.567688308703808 $311 53.484087608457926 $121 $313 forward 7 unknown #
coedge $-1 $122 $303 $309 $314 forward $210 $-1 #
loop $-1 $-1 $303 $198 #
vertex $-1 $207 $315 #
vertex $-1 $123 $316 #
straight-curve $-1 -47.485466570158295 29.688243347748916 8.9134977207753963 0 -1 0 I I #
coedge $-1 $214 $214 $-1 $317 reversed $126 $-1 #
edge $-1 $318 0 $318 6.2831853071796004 $127 $319 forward 7 unknown #
vertex $-1 $130 $320 #
ellipse-curve $-1 -42.466498678035478 24.054517934299142 6.7371821377618177 0 0.62932039886446345 0.77714595512881146 1.5 0 0 1 I I #
coedge $-1 $218 $218 $-1 $321 reversed $133 $-1 #
edge $-1 $322 0 $322 6.2831853071796004 $134 $323 forward 7 unknown #
vertex $-1 $137 $324 #
ellipse-curve $-1 -34.938046839851268 24.054517934299142 6.7371821377618177 0 0.62932039886446345 0.77714595512881146 1.5 0 0 1 I I #
coedge $-1 $222 $222 $-1 $325 reversed $140 $-1 #
edge $-1 $326 0 $326 6.2831853071796004 $141 $327 forward 7 unknown #
vertex $-1 $144 $328 #
ellipse-curve $-1 -27.409595001667046 24.054517934299142 6.7371821377618177 0 0.62932039886446345 0.77714595512881146 1.5 0 0 1 I I #
face $-1 $-1 $329 $30 $-1 $330 reversed single #
loop $-1 $-1 $151 $145 #
plane-surface $-1 0 0 8.9134977207753998 0 0 1 1 0 0 forward_v I I I I #
coedge $-1 $331 $332 $333 $334 reversed $146 $-1 #
coedge $-1 $335 $148 $150 $236 forward $92 $-1 #
coedge $-1 $148 $335 $331 $336 forward $92 $-1 #
coedge $-1 $333 $151 $148 $233 forward $227 $-1 #
edge $-1 $239 2.0607296673336499 $337 17.017585313751024 $232 $338 forward 7 unknown #
coedge $-1 $339 $340 $149 $235 forward $329 $-1 #
edge $-1 $341 -39.456083034976437 $238 -36.443450055440493 $234 $342 forward 7 unknown #
edge $-1 $239 -4.3368554562345949 $341 0 $150 $343 forward 7 unknown #
coedge $-1 $151 $333 $339 $344 forward $227 $-1 #
vertex $-1 $235 $345 #
vertex $-1 $152 $346 #
straight-curve $-1 -11.599887157875987 -54.322518737714617 8.9134977207753963 0 1 0 I I #
coedge $-1 $241 $241 $-1 $347 reversed $155 $-1 #
edge $-1 $348 0 $348 6.2831853071796004 $156 $349 forward 7 unknown #
vertex $-1 $159 $350 #
ellipse-curve $-1 -19.078314981084667 -25.182207452325013 7.4071812310074279 0 -0.69465837861970381 0.71933979245794832 1 0 0 1 I I #
face $-1 $-1 $175 $24 $-1 $351 reversed single #
loop $-1 $-1 $261 $160 #
plane-surface $-1 0 26.74204380422897 0 0 -1 0 0 0 -1 forward_v I I I I #
coedge $-1 $352 $259 $262 $353 forward $161 $-1 #
coedge $-1 $265 $163 $164 $253 reversed $101 $-1 #
coedge $-1 $259 $352 $163 $251 reversed $161 $-1 #
edge $-1 $266 -8.9134977207753998 $354 8.9134977207753998 $250 $355 forward 7 unknown #
coedge $-1 $165 $164 $352 $356 forward $65 $-1 #
edge $-1 $257 -58.951994384594258 $354 58.951994384594258 $249 $357 forward 7 unknown #
coedge $-1 $262 $261 $165 $255 reversed $246 $-1 #
edge $-1 $358 -58.951994384594258 $256 58.951994384594258 $254 $359 forward 7 unknown #
vertex $-1 $167 $360 #
vertex $-1 $268 $361 #
straight-curve $-1 58.951994384594258 0 -8.9134977207753998 0 -1 0 I I #
coedge $-1 $248 $250 $168 $260 reversed $161 $-1 #
edge $-1 $263 -26.74204380422897 $266 26.74204380422897 $259 $362 forward 7 unknown #
coedge $-1 $254 $169 $174 $269 forward $246 $-1 #
coedge $-1 $169 $254 $248 $353 reversed $246 $-1 #
vertex $-1 $170 $363 #
straight-curve $-1 0 26.74204380422897 8.9134977207753998 -1 0 0 I I #
coedge $-1 $171 $249 $173 $268 reversed $101 $-1 #
vertex $-1 $260 $364 #
straight-curve $-1 0 -26.74204380422897 8.9134977207753998 1 0 0 I I #
edge $-1 $176 -8.9134977207753998 $257 8.9134977207753998 $173 $365 forward 7 unknown #
edge $-1 $177 -8.9134977207753998 $256 8.9134977207753998 $174 $366 forward 7 unknown #
point $-1 58.951994384594258 -26.74204380422897 8.9134977207753998 #
point $-1 58.951994384594258 26.74204380422897 8.9134977207753998 #
face $-1 $-1 $194 $25 $-1 $367 reversed single #
loop $-1 $-1 $281 $179 #
plane-surface $-1 0 0 8.9134977207753998 0 0 1 1 0 0 forward_v I I I I #
coedge $-1 $287 $286 $183 $280 forward $180 $-1 #
coedge $-1 $185 $182 $287 $368 reversed $109 $-1 #
coedge $-1 $182 $185 $290 $369 reversed $109 $-1 #
edge $-1 $292 -8.9134977207753998 $288 8.9134977207753998 $182 $370 forward 7 unknown #
coedge $-1 $184 $183 $294 $371 reversed $69 $-1 #
edge $-1 $372 -32.342629145906116 $284 -20.876101331470156 $275 $373 forward 7 unknown #
coedge $-1 $291 $290 $184 $282 forward $273 $-1 #
edge $-1 $283 20.876101331470156 $374 32.342629145906116 $281 $375 forward 7 unknown #
vertex $-1 $282 $376 #
vertex $-1 $280 $377 #
straight-curve $-1 -47.485466570158295 -8.9150483626781707 0 0 0 -1 I I #
coedge $-1 $275 $188 $193 $296 forward $180 $-1 #
coedge $-1 $188 $275 $276 $368 forward $180 $-1 #
vertex $-1 $189 $378 #
straight-curve $-1 -26.609365238688138 -13.210947856254919 -8.9134977207753998 -1 0 0 I I #
coedge $-1 $281 $190 $277 $369 forward $273 $-1 #
coedge $-1 $190 $281 $192 $295 forward $273 $-1 #
vertex $-1 $191 $379 #
straight-curve $-1 -26.609365238688138 -13.210947856254919 8.9134977207753998 1 0 0 I I #
coedge $-1 $193 $192 $279 $371 forward $194 $-1 #
edge $-1 $374 8.9150483626781707 $196 13.210947856254919 $192 $380 forward 7 unknown #
edge $-1 $195 -13.210947856254919 $372 -8.9150483626781707 $193 $381 forward 7 unknown #
point $-1 -58.951994384594258 -13.210947856254919 -8.9134977207753998 #
point $-1 -58.951994384594258 -13.210947856254919 8.9134977207753998 #
plane-surface $-1 0 0 8.9134977207753998 0 0 1 1 0 0 forward_v I I I I #
coedge $-1 $310 $309 $302 $382 forward $199 $-1 #
coedge $-1 $302 $201 $203 $306 reversed $117 $-1 #
coedge $-1 $201 $301 $300 $382 reversed $117 $-1 #
coedge $-1 $209 $204 $201 $304 forward $210 $-1 #
edge $-1 $307 -8.3212512833796097 $383 -2.9461995435199455 $303 $384 forward 7 unknown #
coedge $-1 $203 $202 $310 $385 reversed $73 $-1 #
edge $-1 $386 -53.484087608457926 $307 -46.567688308703808 $301 $387 forward 7 unknown #
vertex $-1 $205 $388 #
straight-curve $-1 -17.469023419925634 21.366992064369306 8.9134977207753963 1 0 0 I I #
coedge $-1 $300 $206 $209 $314 reversed $199 $-1 #
coedge $-1 $206 $300 $305 $385 forward $199 $-1 #
vertex $-1 $207 $389 #
straight-curve $-1 -47.485466570158295 26.74204380422897 64.924050933466276 0 0 1 I I #
straight-curve $-1 -47.485466570158295 -14.822898544439099 38.219493901404888 0 0.77714595512881146 -0.62932039886446345 I I #
edge $-1 $383 22.390627109544237 $211 47.485466570158295 $309 $390 forward 7 unknown #
point $-1 -47.485466570158295 26.74204380422897 8.9134977207753998 #
point $-1 -47.485466570158295 21.366992064369306 8.9134977207753998 #
edge $-1 $391 1 $391 0 $214 $-1 forward 7 unknown #
vertex $-1 $215 $392 #
ellipse-curve $-1 -42.466498678035478 22.146275285598431 4.3806987653525908 0 0.62932039886446345 0.77714595512881146 1.5 0 0 1 I I #
point $-1 -40.966498678035478 24.054517934299149 6.737182137761824 #
edge $-1 $393 1 $393 0 $218 $-1 forward 7 unknown #
vertex $-1 $219 $394 #
ellipse-curve $-1 -34.938046839851268 22.146275285598431 4.3806987653525908 0 0.62932039886446345 0.77714595512881146 1.5 0 0 1 I I #
point $-1 -33.438046839851268 24.054517934299149 6.737182137761824 #
edge $-1 $395 1 $395 0 $222 $-1 forward 7 unknown #
vertex $-1 $223 $396 #
ellipse-curve $-1 -27.409595001667046 22.146275285598431 4.3806987653525908 0 0.62932039886446345 0.77714595512881146 1.5 0 0 1 I I #
point $-1 -25.909595001667046 24.054517934299149 6.737182137761824 #
loop $-1 $-1 $234 $226 #
plane-surface $-1 0 -26.74204380422897 0 0 1 0 0 0 1 forward_v I I I I #
coedge $-1 $332 $229 $231 $336 reversed $146 $-1 #
coedge $-1 $229 $331 $397 $398 reversed $146 $-1 #
coedge $-1 $237 $232 $229 $334 forward $227 $-1 #
edge $-1 $337 -30.700147637293561 $399 -27.580474933485647 $333 $400 forward 7 unknown #
coedge $-1 $231 $230 $340 $401 reversed $92 $-1 #
edge $-1 $402 0 $337 4.3368554562345949 $331 $403 forward 7 unknown #
vertex $-1 $233 $404 #
straight-curve $-1 -9.5391574905423369 -23.622371100421056 8.9134977207753998 -1 0 0 I I #
coedge $-1 $397 $234 $237 $344 reversed $329 $-1 #
coedge $-1 $234 $397 $335 $401 forward $329 $-1 #
vertex $-1 $235 $405 #
straight-curve $-1 -11.599887157875987 -26.74204380422897 45.356947776215897 0 0 1 I I #
straight-curve $-1 -11.599887157875987 -26.74204380422897 5.9008647412394595 0 -0.71933979245794832 -0.69465837861970381 I I #
edge $-1 $399 -26.556742804293361 $238 -11.599887157875987 $339 $406 forward 7 unknown #
point $-1 -11.599887157875987 -26.74204380422897 8.9134977207753998 #
point $-1 -11.599887157875987 -23.622371100421056 8.9134977207753998 #
edge $-1 $407 1 $407 0 $241 $-1 forward 7 unknown #
vertex $-1 $242 $408 #
ellipse-curve $-1 -19.078314981084667 -22.91370805341143 5.0580813899489616 0 -0.69465837861970381 0.71933979245794832 1 0 0 1 I I #
point $-1 -18.078314981084667 -25.182207452325013 7.4071812310074279 #
plane-surface $-1 58.951994384594258 0 0 -1 0 0 0 0 1 forward_v I I I I #
coedge $-1 $250 $248 $252 $356 reversed $161 $-1 #
edge $-1 $263 -8.9134977207753998 $358 8.9134977207753998 $262 $409 forward 7 unknown #
vertex $-1 $356 $410 #
straight-curve $-1 -58.951994384594258 -26.74204380422897 0 0 0 -1 I I #
edge $-1 $354 -26.74204380422897 $358 26.74204380422897 $352 $411 forward 7 unknown #
straight-curve $-1 0 -26.74204380422897 -8.9134977207753998 -1 0 0 I I #
vertex $-1 $255 $412 #
straight-curve $-1 0 26.74204380422897 -8.9134977207753998 1 0 0 I I #
point $-1 58.951994384594258 26.74204380422897 -8.9134977207753998 #
point $-1 58.951994384594258 -26.74204380422897 -8.9134977207753998 #
straight-curve $-1 -58.951994384594258 0 8.9134977207753998 0 -1 0 I I #
point $-1 -58.951994384594258 26.74204380422897 8.9134977207753998 #
point $-1 -58.951994384594258 -26.74204380422897 8.9134977207753998 #
straight-curve $-1 58.951994384594258 -26.74204380422897 0 0 0 -1 I I #
straight-curve $-1 58.951994384594258 26.74204380422897 0 0 0 -1 I I #
plane-surface $-1 -58.951994384594258 0 0 1 0 0 0 0 -1 forward_v I I I I #
edge $-1 $284 3.3835493079448984 $288 7.6794488015216462 $287 $413 forward 7 unknown #
edge $-1 $292 -7.6794488015216462 $283 -3.3835493079448984 $290 $414 forward 7 unknown #
straight-curve $-1 -47.485466570158295 -13.210947856254919 0 0 0 -1 I I #
edge $-1 $374 -8.9134977207753998 $372 8.9134977207753998 $294 $415 forward 7 unknown #
vertex $-1 $371 $416 #
straight-curve $-1 -26.609365238688138 -8.9150483626781707 -8.9134977207753998 1 0 0 I I #
vertex $-1 $295 $417 #
straight-curve $-1 -26.609365238688138 -8.9150483626781707 8.9134977207753998 -1 0 0 I I #
point $-1 -47.485466570158295 -8.9150483626781707 8.9134977207753998 #
point $-1 -47.485466570158295 -8.9150483626781707 -8.9134977207753998 #
point $-1 -47.485466570158295 -13.210947856254919 -8.9134977207753998 #
point $-1 -47.485466570158295 -13.210947856254919 8.9134977207753998 #
straight-curve $-1 -58.951994384594258 0 8.9134977207753998 0 -1 0 I I #
straight-curve $-1 -58.951994384594258 0 -8.9134977207753998 0 1 0 I I #
edge $-1 $383 56.01055321269088 $386 60.363184378718039 $300 $418 forward 7 unknown #
vertex $-1 $314 $419 #
straight-curve $-1 -22.390627109544237 29.688243347748916 8.9134977207753963 0 1 0 I I #
edge $-1 $386 4.9216036896186033 $311 30.016443150232661 $310 $420 forward 7 unknown #
vertex $-1 $385 $421 #
straight-curve $-1 -22.390627109544237 -14.822898544439099 38.219493901404888 0 -0.77714595512881146 0.62932039886446345 I I #
point $-1 -22.390627109544237 21.366992064369306 8.9134977207753998 #
point $-1 -47.485466570158295 26.74204380422897 4.5608665547482374 #
straight-curve $-1 0 26.74204380422897 8.9134977207753998 -1 0 0 I I #
vertex $-1 $317 $422 #
point $-1 -40.966498678035478 22.146275285598431 4.3806987653525908 #
vertex $-1 $321 $423 #
point $-1 -33.438046839851268 22.146275285598431 4.3806987653525908 #
vertex $-1 $325 $424 #
point $-1 -25.909595001667046 22.146275285598431 4.3806987653525908 #
coedge $-1 $340 $339 $332 $398 forward $329 $-1 #
edge $-1 $399 36.443450055440493 $402 39.456083034976437 $397 $425 forward 7 unknown #
vertex $-1 $344 $426 #
straight-curve $-1 -26.556742804293361 -54.322518737714617 8.9134977207753963 0 -1 0 I I #
edge $-1 $402 -17.017585313751024 $341 -2.0607296673336499 $340 $427 forward 7 unknown #
vertex $-1 $401 $428 #
straight-curve $-1 -26.556742804293361 -26.74204380422897 5.9008647412394595 0 0.71933979245794832 0.69465837861970381 I I #
point $-1 -26.556742804293361 -23.622371100421056 8.9134977207753998 #
point $-1 -11.599887157875987 -26.74204380422897 5.9008647412394595 #
straight-curve $-1 0 -26.74204380422897 8.9134977207753998 1 0 0 I I #
vertex $-1 $347 $429 #
point $-1 -18.078314981084667 -22.91370805341143 5.0580813899489616 #
straight-curve $-1 -58.951994384594258 26.74204380422897 0 0 0 -1 I I #
point $-1 -58.951994384594258 -26.74204380422897 -8.9134977207753998 #
straight-curve $-1 -58.951994384594258 0 -8.9134977207753998 0 1 0 I I #
point $-1 -58.951994384594258 26.74204380422897 -8.9134977207753998 #
straight-curve $-1 -47.485466570158295 -5.5314990547332723 -8.9134977207753998 0 -1 0 I I #
straight-curve $-1 -47.485466570158295 -5.5314990547332723 8.9134977207753998 0 1 0 I I #
straight-curve $-1 -58.951994384594258 -8.9150483626781707 0 0 0 -1 I I #
point $-1 -58.951994384594258 -8.9150483626781707 -8.9134977207753998 #
point $-1 -58.951994384594258 -8.9150483626781707 8.9134977207753998 #
straight-curve $-1 -22.390627109544237 26.74204380422897 64.924050933466276 0 0 -1 I I #
point $-1 -22.390627109544237 26.74204380422897 8.9134977207753998 #
straight-curve $-1 -17.469023419925634 26.74204380422897 4.5608665547482374 -1 0 0 I I #
point $-1 -22.390627109544237 26.74204380422897 4.5608665547482374 #
point $-1 -42.466498678035478 21.202294687301734 3.2149798326593739 #
point $-1 -34.938046839851268 21.202294687301734 3.2149798326593739 #
point $-1 -27.409595001667046 21.202294687301734 3.2149798326593739 #
straight-curve $-1 -26.556742804293361 -26.74204380422897 45.356947776215897 0 0 -1 I I #
point $-1 -26.556742804293361 -26.74204380422897 8.9134977207753998 #
straight-curve $-1 -9.5391574905423369 -26.74204380422897 5.9008647412394595 1 0 0 I I #
point $-1 -26.556742804293361 -26.74204380422897 5.9008647412394595 #
point $-1 -19.078314981084667 -22.219049674791723 4.3387415974910137 #
End-of-ACIS-data 