500 0 6 0           
7 Unknown 11 ACIS 5.0 NT 24 Thu Mar 25 19:43:45 1999 
-1 9.9999999999999995e-007 1e-010 
body $-1 $6 $-1 $7 #
body $-1 $8 $-1 $9 #
body $-1 $10 $-1 $11 #
body $-1 $12 $-1 $13 #
body $-1 $14 $-1 $15 #
body $-1 $16 $-1 $17 #
lump $-1 $-1 $18 $0 #
transform $-1 1 0 0 0 1 0 0 0 1 49.219031342509233 30.264289235877872 8.0866712843960418 1 rotate no_reflect no_shear #
lump $-1 $-1 $19 $1 #
transform $-1 1 0 0 0 1 0 0 0 1 49.219031342509233 30.264289235877872 8.0866712843960418 1 rotate no_reflect no_shear #
lump $-1 $-1 $20 $2 #
transform $-1 1 0 0 0 1 0 0 0 1 49.219031342509233 30.264289235877872 8.0866712843960418 1 rotate no_reflect no_shear #
lump $-1 $-1 $21 $3 #
transform $-1 1 0 0 0 1 0 0 0 1 49.219031342509233 30.264289235877872 8.0866712843960418 1 rotate no_reflect no_shear #
lump $-1 $-1 $22 $4 #
transform $-1 1 0 0 0 1 0 0 0 1 49.219031342509233 30.264289235877872 8.0866712843960418 1 rotate no_reflect no_shear #
lump $-1 $-1 $23 $5 #
transform $-1 1 0 0 0 1 0 0 0 1 49.219031342509233 30.264289235877872 8.0866712843960418 1 rotate no_reflect no_shear #
shell $-1 $-1 $-1 $24 $-1 $6 #
shell $-1 $-1 $-1 $25 $-1 $8 #
shell $-1 $-1 $-1 $26 $-1 $10 #
shell $-1 $-1 $-1 $27 $-1 $12 #
shell $-1 $-1 $-1 $28 $-1 $14 #
shell $-1 $-1 $-1 $29 $-1 $16 #
face $-1 $30 $31 $18 $-1 $32 forward single #
face $-1 $33 $34 $19 $-1 $35 forward single #
face $-1 $36 $37 $20 $-1 $38 forward single #
face $-1 $39 $40 $21 $-1 $41 reversed single #
face $-1 $42 $43 $22 $-1 $44 forward single #
face $-1 $45 $46 $23 $-1 $47 forward single #
face $-1 $48 $49 $18 $-1 $50 reversed single #
loop $-1 $-1 $51 $24 #
plane-surface $-1 0 0 8.0866712843960418 0 0 1 1 0 0 forward_v I I I I #
face $-1 $52 $53 $19 $-1 $54 reversed single #
loop $-1 $-1 $55 $25 #
plane-surface $-1 -44.135193550726896 0 -3.6575732628334325 0 0 1 1 0 0 forward_v I I I I #
face $-1 $56 $57 $20 $-1 $58 reversed single #
loop $-1 $-1 $59 $26 #
plane-surface $-1 44.135193550726903 0 -3.6575732628334325 0 0 1 1 0 0 forward_v I I I I #
face $-1 $60 $61 $21 $-1 $62 reversed single #
loop $-1 $-1 $63 $27 #
plane-surface $-1 30.270380181300297 59.028023233484788 115.86385417208926 -1 0 0 0 0.71933980857756763 0.69465836192734942 forward_v I I I I #
face $-1 $64 $65 $22 $-1 $66 forward single #
loop $-1 $67 $68 $28 #
cone-surface $-1 18.638007107701121 26.920404281356578 4.7177640191787242 0 -0.71933980857756763 -0.69465836192734942 1 0 0 1 I I 0 1 1 forward I I I I #
face $-1 $69 $70 $23 $-1 $71 forward single #
loop $-1 $72 $73 $29 #
cone-surface $-1 25.617430951860619 26.920404281356578 4.7177640191787242 0 -0.71933980857756763 -0.69465836192734942 1 0 0 1 I I 0 1 1 forward I I I I #
face $-1 $74 $75 $18 $-1 $76 reversed single #
loop $-1 $-1 $77 $30 #
plane-surface $-1 0 0 -8.0866712843960418 0 0 1 1 0 0 forward_v I I I I #
coedge $-1 $78 $79 $80 $81 forward $31 $-1 #
face $-1 $82 $83 $19 $-1 $84 reversed single #
loop $-1 $-1 $85 $33 #
plane-surface $-1 -39.05135575894456 0 -5.8721222736147372 -1 0 0 0 0 1 forward_v I I I I #
coedge $-1 $86 $87 $88 $89 forward $34 $-1 #
face $-1 $90 $91 $20 $-1 $92 reversed single #
loop $-1 $-1 $93 $36 #
plane-surface $-1 39.051355758944567 0 -5.8721222736147372 1 0 0 0 0 -1 forward_v I I I I #
coedge $-1 $94 $95 $96 $97 reversed $37 $-1 #
face $-1 $98 $99 $21 $-1 $100 reversed single #
loop $-1 $-1 $101 $39 #
plane-surface $-1 22.12771902978087 -11.782393935103002 47.483030796012599 0 0.71933980857756763 0.69465836192734942 1 0 0 forward_v I I I I #
coedge $-1 $102 $103 $104 $105 reversed $40 $-1 #
face $-1 $-1 $106 $22 $-1 $107 forward single #
loop $-1 $108 $109 $42 #
cone-surface $-1 18.638007107701121 25.217880385219861 3.0736558428619798 0 -0.71933980857756763 -0.69465836192734942 0.5 0 0 1 I I -0.70710678118654746 0.70710678118654746 0.5 forward I I I I #
loop $-1 $-1 $110 $28 #
coedge $-1 $68 $68 $111 $112 reversed $43 $-1 #
face $-1 $-1 $113 $23 $-1 $114 forward single #
loop $-1 $115 $116 $45 #
cone-surface $-1 25.617430951860619 25.217880385219861 3.0736558428619798 0 -0.71933980857756763 -0.69465836192734942 0.5 0 0 1 I I -0.70710678118654746 0.70710678118654746 0.5 forward I I I I #
loop $-1 $-1 $117 $29 #
coedge $-1 $73 $73 $118 $119 reversed $46 $-1 #
face $-1 $120 $121 $18 $-1 $122 reversed single #
loop $-1 $-1 $123 $48 #
plane-surface $-1 0 -30.264289235877872 0 0 1 0 0 0 1 forward_v I I I I #
coedge $-1 $124 $125 $126 $127 forward $49 $-1 #
coedge $-1 $128 $51 $129 $130 forward $31 $-1 #
coedge $-1 $51 $128 $131 $132 forward $31 $-1 #
coedge $-1 $133 $134 $51 $81 reversed $135 $-1 #
edge $-1 $136 -30.264289235877872 $137 30.264289235877872 $80 $138 forward 7 unknown #
face $-1 $139 $140 $19 $-1 $141 reversed single #
loop $-1 $-1 $142 $52 #
plane-surface $-1 0 0 -8.0866712843960418 0 0 1 1 0 0 forward_v I I I I #
coedge $-1 $143 $88 $144 $145 reversed $53 $-1 #
coedge $-1 $146 $55 $147 $148 reversed $34 $-1 #
coedge $-1 $55 $146 $149 $150 reversed $34 $-1 #
coedge $-1 $85 $151 $55 $89 reversed $53 $-1 #
edge $-1 $152 -30.264289235877872 $153 30.264289235877872 $88 $154 forward 7 unknown #
face $-1 $155 $156 $20 $-1 $157 reversed single #
loop $-1 $-1 $158 $56 #
plane-surface $-1 0 -30.264289235877872 0 0 1 0 0 0 1 forward_v I I I I #
coedge $-1 $159 $160 $161 $162 reversed $57 $-1 #
coedge $-1 $163 $59 $164 $165 reversed $37 $-1 #
coedge $-1 $59 $163 $158 $166 reversed $37 $-1 #
coedge $-1 $167 $168 $59 $97 forward $169 $-1 #
edge $-1 $170 -30.264289235877872 $171 30.264289235877872 $96 $172 forward 7 unknown #
face $-1 $173 $174 $21 $-1 $175 reversed single #
loop $-1 $-1 $176 $60 #
plane-surface $-1 13.985057878261443 59.028023233484788 115.86385417208926 1 0 0 0 -0.71933980857756763 -0.69465836192734942 forward_v I I I I #
coedge $-1 $177 $178 $179 $180 reversed $61 $-1 #
coedge $-1 $103 $63 $181 $182 reversed $40 $-1 #
coedge $-1 $63 $102 $177 $183 reversed $40 $-1 #
coedge $-1 $179 $184 $63 $105 forward $174 $-1 #
edge $-1 $185 49.845255801648591 $186 53.989512341377086 $104 $187 forward 7 unknown #
loop $-1 $-1 $111 $64 #
plane-surface $-1 22.12771902978087 -11.782393935103002 47.483030796012599 0 0.71933980857756763 0.69465836192734942 1 0 0 forward_v I I I I #
loop $-1 $-1 $188 $42 #
coedge $-1 $109 $109 $110 $189 reversed $65 $-1 #
coedge $-1 $110 $110 $109 $189 forward $67 $-1 #
coedge $-1 $111 $111 $68 $112 forward $106 $-1 #
edge $-1 $190 -1.5408625282000749e-015 $190 6.2831853071795987 $111 $191 forward 7 unknown #
loop $-1 $-1 $118 $69 #
plane-surface $-1 22.12771902978087 -11.782393935103002 47.483030796012599 0 0.71933980857756763 0.69465836192734942 1 0 0 forward_v I I I I #
loop $-1 $-1 $192 $45 #
coedge $-1 $116 $116 $117 $193 reversed $70 $-1 #
coedge $-1 $117 $117 $116 $193 forward $72 $-1 #
coedge $-1 $118 $118 $73 $119 forward $113 $-1 #
edge $-1 $194 -1.5408625282000749e-015 $194 6.2831853071795987 $118 $195 forward 7 unknown #
face $-1 $196 $197 $18 $-1 $198 reversed single #
loop $-1 $-1 $199 $74 #
plane-surface $-1 -49.219031342509233 0 0 1 0 0 0 0 -1 forward_v I I I I #
coedge $-1 $200 $131 $201 $202 forward $75 $-1 #
coedge $-1 $203 $77 $200 $204 forward $49 $-1 #
coedge $-1 $77 $203 $205 $206 forward $49 $-1 #
coedge $-1 $134 $133 $77 $127 reversed $135 $-1 #
edge $-1 $207 -30.264289235877872 $208 30.264289235877872 $126 $209 forward 7 unknown #
coedge $-1 $79 $78 $210 $211 forward $31 $-1 #
coedge $-1 $212 $213 $78 $130 reversed $197 $-1 #
edge $-1 $137 -49.219031342509233 $214 49.219031342509233 $129 $215 forward 7 unknown #
coedge $-1 $123 $216 $79 $132 reversed $75 $-1 #
edge $-1 $217 -49.219031342509233 $136 49.219031342509233 $131 $218 forward 7 unknown #
coedge $-1 $126 $80 $216 $219 forward $135 $-1 #
coedge $-1 $80 $126 $212 $220 reversed $135 $-1 #
loop $-1 $-1 $133 $196 #
vertex $-1 $81 $221 #
vertex $-1 $81 $222 #
straight-curve $-1 49.219031342509233 0 8.0866712843960418 0 1 0 I I #
face $-1 $223 $224 $19 $-1 $225 reversed single #
loop $-1 $-1 $144 $82 #
plane-surface $-1 0 -30.264289235877872 0 0 1 0 0 0 1 forward_v I I I I #
coedge $-1 $226 $227 $143 $228 forward $83 $-1 #
coedge $-1 $151 $85 $142 $228 reversed $53 $-1 #
coedge $-1 $149 $229 $85 $145 forward $140 $-1 #
edge $-1 $230 -5.1506101475886732 $152 -0.72151212602606396 $144 $231 forward 7 unknown #
coedge $-1 $87 $86 $232 $233 reversed $34 $-1 #
coedge $-1 $234 $235 $86 $148 forward $236 $-1 #
edge $-1 $237 -27.151434567145785 $153 -16.983758983581112 $147 $238 forward 7 unknown #
coedge $-1 $239 $144 $87 $150 forward $140 $-1 #
edge $-1 $152 16.983758983581112 $240 27.151434567145785 $149 $241 forward 7 unknown #
coedge $-1 $88 $143 $234 $242 reversed $53 $-1 #
vertex $-1 $150 $243 #
vertex $-1 $148 $244 #
straight-curve $-1 -39.05135575894456 0 -3.6575732628334325 0 1 0 I I #
face $-1 $245 $246 $20 $-1 $247 reversed single #
loop $-1 $-1 $248 $90 #
plane-surface $-1 0 0 -8.0866712843960418 0 0 1 1 0 0 forward_v I I I I #
coedge $-1 $249 $250 $95 $166 forward $91 $-1 #
coedge $-1 $251 $93 $248 $252 reversed $57 $-1 #
coedge $-1 $93 $251 $163 $253 reversed $57 $-1 #
coedge $-1 $164 $254 $93 $162 forward $246 $-1 #
edge $-1 $255 -5.1506101475886732 $256 -0.72151212602606396 $161 $257 forward 7 unknown #
coedge $-1 $95 $94 $160 $253 forward $37 $-1 #
coedge $-1 $258 $161 $94 $165 forward $246 $-1 #
edge $-1 $256 16.983758983581115 $170 27.151434567145788 $164 $259 forward 7 unknown #
edge $-1 $171 -27.151434567145788 $260 -16.983758983581115 $158 $261 forward 7 unknown #
coedge $-1 $262 $96 $250 $263 forward $169 $-1 #
coedge $-1 $96 $262 $258 $264 reversed $169 $-1 #
loop $-1 $-1 $96 $245 #
vertex $-1 $264 $265 #
vertex $-1 $263 $266 #
straight-curve $-1 49.219031342509233 0 -3.6575732628334325 0 -1 0 I I #
face $-1 $-1 $267 $21 $-1 $268 forward single #
loop $-1 $-1 $104 $98 #
plane-surface $-1 0 30.264289235877872 0 0 -1 0 0 0 -1 forward_v I I I I #
coedge $-1 $269 $270 $271 $272 reversed $99 $-1 #
coedge $-1 $273 $101 $103 $183 forward $61 $-1 #
coedge $-1 $101 $273 $269 $274 forward $61 $-1 #
coedge $-1 $271 $104 $101 $180 forward $174 $-1 #
edge $-1 $186 -19.206520666409862 $275 -2.9211983633710084 $179 $276 forward 7 unknown #
coedge $-1 $277 $278 $102 $182 forward $267 $-1 #
edge $-1 $279 -3.2517843062112775 $185 0.75027761913547764 $181 $280 forward 7 unknown #
edge $-1 $186 -60.528578471755743 $279 -54.767383984377922 $103 $281 forward 7 unknown #
coedge $-1 $104 $271 $277 $282 reversed $174 $-1 #
vertex $-1 $282 $283 #
vertex $-1 $105 $284 #
straight-curve $-1 30.270380181300297 30.264289235877872 57.931927086044631 0 0 -1 I I #
coedge $-1 $188 $188 $-1 $285 reversed $108 $-1 #
edge $-1 $286 0 $286 6.2831853071796004 $109 $287 forward 7 unknown #
vertex $-1 $112 $288 #
ellipse-curve $-1 18.638007107701121 28.263258273204499 6.0145430145317818 0 0.71933980857756763 0.69465836192734942 1 0 0 1 I I #
coedge $-1 $192 $192 $-1 $289 reversed $115 $-1 #
edge $-1 $290 0 $290 6.2831853071796004 $116 $291 forward 7 unknown #
vertex $-1 $119 $292 #
ellipse-curve $-1 25.617430951860619 28.263258273204499 6.0145430145317818 0 0.71933980857756763 0.69465836192734942 1 0 0 1 I I #
face $-1 $-1 $135 $18 $-1 $293 reversed single #
loop $-1 $-1 $212 $120 #
plane-surface $-1 0 30.264289235877872 0 0 -1 0 0 0 -1 forward_v I I I I #
coedge $-1 $294 $210 $213 $295 forward $121 $-1 #
coedge $-1 $216 $123 $124 $204 reversed $75 $-1 #
coedge $-1 $210 $294 $123 $202 reversed $121 $-1 #
edge $-1 $217 -8.0866712843960418 $296 8.0866712843960418 $201 $297 forward 7 unknown #
coedge $-1 $125 $124 $294 $298 forward $49 $-1 #
edge $-1 $208 -49.219031342509233 $296 49.219031342509233 $200 $299 forward 7 unknown #
coedge $-1 $213 $212 $125 $206 reversed $197 $-1 #
edge $-1 $300 -49.219031342509233 $207 49.219031342509233 $205 $301 forward 7 unknown #
vertex $-1 $127 $302 #
vertex $-1 $219 $303 #
straight-curve $-1 49.219031342509233 0 -8.0866712843960418 0 -1 0 I I #
coedge $-1 $199 $201 $128 $211 reversed $121 $-1 #
edge $-1 $214 -30.264289235877872 $217 30.264289235877872 $210 $304 forward 7 unknown #
coedge $-1 $205 $129 $134 $220 forward $197 $-1 #
coedge $-1 $129 $205 $199 $295 reversed $197 $-1 #
vertex $-1 $130 $305 #
straight-curve $-1 0 30.264289235877872 8.0866712843960418 -1 0 0 I I #
coedge $-1 $131 $200 $133 $219 reversed $75 $-1 #
vertex $-1 $211 $306 #
straight-curve $-1 0 -30.264289235877872 8.0866712843960418 1 0 0 I I #
edge $-1 $136 -8.0866712843960418 $208 8.0866712843960418 $133 $307 forward 7 unknown #
edge $-1 $137 -8.0866712843960418 $207 8.0866712843960418 $134 $308 forward 7 unknown #
point $-1 49.219031342509233 -30.264289235877872 8.0866712843960418 #
point $-1 49.219031342509233 30.264289235877872 8.0866712843960418 #
face $-1 $-1 $236 $19 $-1 $309 reversed single #
loop $-1 $-1 $232 $139 #
plane-surface $-1 -49.219031342509233 0 0 1 0 0 0 0 -1 forward_v I I I I #
coedge $-1 $310 $142 $229 $311 forward $83 $-1 #
coedge $-1 $142 $310 $312 $313 forward $83 $-1 #
edge $-1 $314 -30.264289235877872 $230 30.264289235877872 $142 $315 forward 7 unknown #
coedge $-1 $144 $239 $226 $311 reversed $140 $-1 #
vertex $-1 $311 $316 #
straight-curve $-1 -39.05135575894456 -30.264289235877872 -2.9360611368073686 0 0 1 I I #
coedge $-1 $317 $318 $146 $233 forward $224 $-1 #
edge $-1 $240 -30.264289235877872 $237 30.264289235877872 $232 $319 forward 7 unknown #
coedge $-1 $312 $147 $151 $242 forward $236 $-1 #
coedge $-1 $147 $312 $317 $320 reversed $236 $-1 #
loop $-1 $-1 $234 $223 #
vertex $-1 $320 $321 #
straight-curve $-1 -22.067596775363448 30.264289235877872 -3.6575732628334325 1 0 0 I I #
coedge $-1 $229 $149 $318 $322 forward $140 $-1 #
vertex $-1 $322 $323 #
straight-curve $-1 -22.067596775363448 -30.264289235877872 -3.6575732628334325 -1 0 0 I I #
edge $-1 $153 0.72151212602606396 $314 5.1506101475886732 $234 $324 forward 7 unknown #
point $-1 -39.05135575894456 -30.264289235877872 -3.6575732628334325 #
point $-1 -39.05135575894456 30.264289235877872 -3.6575732628334325 #
face $-1 $-1 $169 $20 $-1 $325 reversed single #
loop $-1 $-1 $164 $155 #
plane-surface $-1 0 30.264289235877872 0 0 -1 0 0 0 -1 forward_v I I I I #
coedge $-1 $326 $327 $159 $252 forward $156 $-1 #
coedge $-1 $328 $158 $251 $329 forward $91 $-1 #
coedge $-1 $158 $328 $167 $263 reversed $91 $-1 #
coedge $-1 $160 $159 $249 $329 reversed $57 $-1 #
edge $-1 $330 -30.264289235877872 $255 30.264289235877872 $248 $331 forward 7 unknown #
edge $-1 $256 -30.264289235877872 $260 30.264289235877872 $160 $332 forward 7 unknown #
coedge $-1 $161 $258 $326 $333 reversed $246 $-1 #
vertex $-1 $333 $334 #
vertex $-1 $165 $335 #
straight-curve $-1 39.051355758944567 30.264289235877872 -2.9360611368073686 0 0 1 I I #
coedge $-1 $254 $164 $168 $264 forward $246 $-1 #
straight-curve $-1 22.067596775363452 30.264289235877872 -3.6575732628334325 1 0 0 I I #
vertex $-1 $166 $336 #
straight-curve $-1 22.067596775363452 -30.264289235877872 -3.6575732628334325 -1 0 0 I I #
coedge $-1 $168 $167 $337 $338 reversed $169 $-1 #
edge $-1 $171 3.6575732628334325 $339 8.0866712843960418 $167 $340 forward 7 unknown #
edge $-1 $170 3.6575732628334325 $341 8.0866712843960418 $168 $342 forward 7 unknown #
point $-1 49.21903134250924 30.264289235877872 -3.6575732628334325 #
point $-1 49.21903134250924 -30.264289235877872 -3.6575732628334325 #
loop $-1 $-1 $181 $173 #
plane-surface $-1 0 0 8.0866712843960418 0 0 1 1 0 0 forward_v I I I I #
coedge $-1 $270 $176 $178 $274 reversed $99 $-1 #
coedge $-1 $176 $269 $343 $344 reversed $99 $-1 #
coedge $-1 $184 $179 $176 $272 forward $174 $-1 #
edge $-1 $275 -53.989512341377086 $345 -49.845255801648591 $271 $346 forward 7 unknown #
coedge $-1 $178 $177 $278 $347 reversed $61 $-1 #
edge $-1 $348 54.767383984377922 $275 60.528578471755743 $269 $349 forward 7 unknown #
vertex $-1 $180 $350 #
straight-curve $-1 11.063859514890435 30.264289235877875 3.9424147446675448 -1 0 0 I I #
coedge $-1 $343 $181 $184 $282 forward $267 $-1 #
coedge $-1 $181 $343 $273 $347 forward $267 $-1 #
vertex $-1 $182 $351 #
straight-curve $-1 30.270380181300297 29.514011616742394 8.08667128439604 0 1 0 I I #
straight-curve $-1 30.270380181300297 -11.782393935103002 47.483030796012599 0 -0.69465836192734942 0.71933980857756763 I I #
edge $-1 $185 -30.270380181300297 $345 -13.985057878261443 $184 $352 forward 7 unknown #
point $-1 30.270380181300297 30.264289235877872 8.0866712843960418 #
point $-1 30.270380181300297 30.264289235877868 3.9424147446675448 #
edge $-1 $353 1 $353 0 $188 $-1 forward 7 unknown #
vertex $-1 $189 $354 #
ellipse-curve $-1 18.638007107701121 25.577550289508643 3.4209850238256543 0 0.71933980857756763 0.69465836192734942 1 0 0 1 I I #
point $-1 19.638007107701121 28.26325827320451 6.0145430145317942 #
edge $-1 $355 1 $355 0 $192 $-1 forward 7 unknown #
vertex $-1 $193 $356 #
ellipse-curve $-1 25.617430951860619 25.577550289508643 3.4209850238256543 0 0.71933980857756763 0.69465836192734942 1 0 0 1 I I #
point $-1 26.617430951860619 28.26325827320451 6.0145430145317942 #
plane-surface $-1 49.219031342509233 0 0 -1 0 0 0 0 1 forward_v I I I I #
coedge $-1 $201 $199 $203 $298 reversed $121 $-1 #
edge $-1 $214 -8.0866712843960418 $300 8.0866712843960418 $213 $357 forward 7 unknown #
vertex $-1 $298 $358 #
straight-curve $-1 -49.219031342509233 -30.264289235877872 0 0 0 -1 I I #
edge $-1 $296 -30.264289235877872 $300 30.264289235877872 $294 $359 forward 7 unknown #
straight-curve $-1 0 -30.264289235877872 -8.0866712843960418 -1 0 0 I I #
vertex $-1 $206 $360 #
straight-curve $-1 0 30.264289235877872 -8.0866712843960418 1 0 0 I I #
point $-1 49.219031342509233 30.264289235877872 -8.0866712843960418 #
point $-1 49.219031342509233 -30.264289235877872 -8.0866712843960418 #
straight-curve $-1 -49.219031342509233 0 8.0866712843960418 0 -1 0 I I #
point $-1 -49.219031342509233 30.264289235877872 8.0866712843960418 #
point $-1 -49.219031342509233 -30.264289235877872 8.0866712843960418 #
straight-curve $-1 49.219031342509233 -30.264289235877872 0 0 0 -1 I I #
straight-curve $-1 49.219031342509233 30.264289235877872 0 0 0 -1 I I #
plane-surface $-1 0 30.264289235877872 0 0 -1 0 0 0 -1 forward_v I I I I #
coedge $-1 $227 $226 $361 $362 forward $83 $-1 #
edge $-1 $230 39.05135575894456 $363 49.219031342509233 $229 $364 forward 7 unknown #
coedge $-1 $235 $234 $227 $313 reversed $236 $-1 #
edge $-1 $365 -49.219031342509233 $314 -39.05135575894456 $312 $366 forward 7 unknown #
vertex $-1 $242 $367 #
straight-curve $-1 -39.05135575894456 0 -8.0866712843960418 0 -1 0 I I #
point $-1 -39.05135575894456 -30.264289235877872 -8.0866712843960418 #
coedge $-1 $361 $232 $235 $320 forward $224 $-1 #
coedge $-1 $232 $361 $239 $322 reversed $224 $-1 #
straight-curve $-1 -49.219031342509233 0 -3.6575732628334325 0 1 0 I I #
edge $-1 $237 3.6575732628334325 $365 8.0866712843960418 $235 $368 forward 7 unknown #
point $-1 -49.219031342509233 30.264289235877872 -3.6575732628334325 #
edge $-1 $240 3.6575732628334325 $363 8.0866712843960418 $318 $369 forward 7 unknown #
point $-1 -49.219031342509233 -30.264289235877872 -3.6575732628334325 #
straight-curve $-1 -39.05135575894456 30.264289235877872 -2.9360611368073686 0 0 -1 I I #
plane-surface $-1 49.219031342509233 0 0 -1 0 0 0 0 1 forward_v I I I I #
coedge $-1 $337 $248 $254 $333 forward $156 $-1 #
coedge $-1 $248 $337 $328 $370 forward $156 $-1 #
coedge $-1 $250 $249 $327 $370 reversed $91 $-1 #
edge $-1 $260 0.72151212602606396 $330 5.1506101475886732 $249 $371 forward 7 unknown #
vertex $-1 $252 $372 #
straight-curve $-1 39.051355758944567 0 -8.0866712843960418 0 1 0 I I #
straight-curve $-1 39.051355758944567 0 -3.6575732628334325 0 -1 0 I I #
edge $-1 $255 39.051355758944567 $341 49.219031342509233 $254 $373 forward 7 unknown #
point $-1 39.051355758944567 30.264289235877872 -8.0866712843960418 #
point $-1 39.051355758944567 30.264289235877872 -3.6575732628334325 #
point $-1 39.051355758944567 -30.264289235877872 -3.6575732628334325 #
coedge $-1 $327 $326 $262 $338 forward $156 $-1 #
edge $-1 $341 -30.264289235877872 $339 30.264289235877872 $262 $374 forward 7 unknown #
vertex $-1 $263 $375 #
straight-curve $-1 49.219031342509233 -30.264289235877872 0 0 0 -1 I I #
vertex $-1 $338 $376 #
straight-curve $-1 49.219031342509233 30.264289235877872 0 0 0 -1 I I #
coedge $-1 $278 $277 $270 $344 forward $267 $-1 #
edge $-1 $345 -0.75027761913547764 $348 3.2517843062112775 $343 $377 forward 7 unknown #
vertex $-1 $344 $378 #
straight-curve $-1 13.985057878261443 30.264289235877872 57.931927086044631 0 0 1 I I #
edge $-1 $348 2.9211983633710084 $279 19.206520666409862 $278 $379 forward 7 unknown #
vertex $-1 $347 $380 #
straight-curve $-1 13.985057878261443 -11.782393935103002 47.483030796012599 0 0.69465836192734942 -0.71933980857756763 I I #
point $-1 13.985057878261443 30.264289235877868 3.9424147446675448 #
point $-1 30.270380181300297 26.262227310531117 8.08667128439604 #
straight-curve $-1 0 30.264289235877872 8.0866712843960418 -1 0 0 I I #
vertex $-1 $285 $381 #
point $-1 19.638007107701121 25.577550289508643 3.4209850238256543 #
vertex $-1 $289 $382 #
point $-1 26.617430951860619 25.577550289508643 3.4209850238256543 #
straight-curve $-1 -49.219031342509233 30.264289235877872 0 0 0 -1 I I #
point $-1 -49.219031342509233 -30.264289235877872 -8.0866712843960418 #
straight-curve $-1 -49.219031342509233 0 -8.0866712843960418 0 1 0 I I #
point $-1 -49.219031342509233 30.264289235877872 -8.0866712843960418 #
coedge $-1 $318 $317 $310 $362 reversed $224 $-1 #
edge $-1 $363 -30.264289235877872 $365 30.264289235877872 $361 $383 forward 7 unknown #
vertex $-1 $362 $384 #
straight-curve $-1 0 -30.264289235877872 -8.0866712843960418 -1 0 0 I I #
vertex $-1 $313 $385 #
straight-curve $-1 0 30.264289235877872 -8.0866712843960418 1 0 0 I I #
point $-1 -39.05135575894456 30.264289235877872 -8.0866712843960418 #
straight-curve $-1 -49.219031342509233 30.264289235877872 0 0 0 -1 I I #
straight-curve $-1 -49.219031342509233 -30.264289235877872 0 0 0 -1 I I #
edge $-1 $339 -49.219031342509233 $330 -39.051355758944567 $328 $386 forward 7 unknown #
straight-curve $-1 39.051355758944567 -30.264289235877872 -2.9360611368073686 0 0 -1 I I #
point $-1 39.051355758944567 -30.264289235877872 -8.0866712843960418 #
straight-curve $-1 0 30.264289235877872 -8.0866712843960418 1 0 0 I I #
straight-curve $-1 49.219031342509233 0 -8.0866712843960418 0 -1 0 I I #
point $-1 49.219031342509233 -30.264289235877872 -8.0866712843960418 #
point $-1 49.219031342509233 30.264289235877872 -8.0866712843960418 #
straight-curve $-1 13.985057878261443 29.514011616742394 8.08667128439604 0 -1 0 I I #
point $-1 13.985057878261443 30.264289235877872 8.0866712843960418 #
straight-curve $-1 11.063859514890435 26.262227310531117 8.08667128439604 1 0 0 I I #
point $-1 13.985057878261443 26.262227310531117 8.08667128439604 #
point $-1 18.638007107701121 24.858210480931078 2.7263266618983053 #
point $-1 25.617430951860619 24.858210480931078 2.7263266618983053 #
straight-curve $-1 -49.219031342509233 0 -8.0866712843960418 0 1 0 I I #
point $-1 -49.219031342509233 -30.264289235877872 -8.0866712843960418 #
point $-1 -49.219031342509233 30.264289235877872 -8.0866712843960418 #
straight-curve $-1 0 -30.264289235877872 -8.0866712843960418 -1 0 0 I I #
End-of-ACIS-data 