500 0 11 0           
7 Unknown 11 ACIS 5.0 NT 24 Thu Mar 25 21:51:41 1999 
-1 9.9999999999999995e-007 1e-010 
body $-1 $11 $-1 $12 #
body $-1 $13 $-1 $14 #
body $-1 $15 $-1 $16 #
body $-1 $17 $-1 $18 #
body $-1 $19 $-1 $20 #
body $-1 $21 $-1 $22 #
body $-1 $23 $-1 $24 #
body $-1 $25 $-1 $26 #
body $-1 $27 $-1 $28 #
body $-1 $29 $-1 $30 #
body $-1 $31 $-1 $32 #
lump $-1 $-1 $33 $0 #
transform $-1 1 0 0 0 1 0 0 0 1 40.109866634113587 19.027306953967759 7.8757732317871429 1 rotate no_reflect no_shear #
lump $-1 $-1 $34 $1 #
transform $-1 1 0 0 0 1 0 0 0 1 40.109866634113587 19.027306953967759 7.8757732317871429 1 rotate no_reflect no_shear #
lump $-1 $-1 $35 $2 #
transform $-1 1 0 0 0 1 0 0 0 1 40.109866634113587 19.027306953967759 7.8757732317871429 1 rotate no_reflect no_shear #
lump $-1 $-1 $36 $3 #
transform $-1 1 0 0 0 1 0 0 0 1 40.109866634113587 19.027306953967759 7.8757732317871429 1 rotate no_reflect no_shear #
lump $-1 $-1 $37 $4 #
transform $-1 1 0 0 0 1 0 0 0 1 40.109866634113587 19.027306953967759 7.8757732317871429 1 rotate no_reflect no_shear #
lump $-1 $-1 $38 $5 #
transform $-1 1 0 0 0 1 0 0 0 1 40.109866634113587 19.027306953967759 7.8757732317871429 1 rotate no_reflect no_shear #
lump $-1 $-1 $39 $6 #
transform $-1 1 0 0 0 1 0 0 0 1 40.109866634113587 19.027306953967759 7.8757732317871429 1 rotate no_reflect no_shear #
lump $-1 $-1 $40 $7 #
transform $-1 1 0 0 0 1 0 0 0 1 40.109866634113587 19.027306953967759 7.8757732317871429 1 rotate no_reflect no_shear #
lump $-1 $-1 $41 $8 #
transform $-1 1 0 0 0 1 0 0 0 1 40.109866634113587 19.027306953967759 7.8757732317871429 1 rotate no_reflect no_shear #
lump $-1 $-1 $42 $9 #
transform $-1 1 0 0 0 1 0 0 0 1 40.109866634113587 19.027306953967759 7.8757732317871429 1 rotate no_reflect no_shear #
lump $-1 $-1 $43 $10 #
transform $-1 1 0 0 0 1 0 0 0 1 40.109866634113587 19.027306953967759 7.8757732317871429 1 rotate no_reflect no_shear #
shell $-1 $-1 $-1 $44 $-1 $11 #
shell $-1 $-1 $-1 $45 $-1 $13 #
shell $-1 $-1 $-1 $46 $-1 $15 #
shell $-1 $-1 $-1 $47 $-1 $17 #
shell $-1 $-1 $-1 $48 $-1 $19 #
shell $-1 $-1 $-1 $49 $-1 $21 #
shell $-1 $-1 $-1 $50 $-1 $23 #
shell $-1 $-1 $-1 $51 $-1 $25 #
shell $-1 $-1 $-1 $52 $-1 $27 #
shell $-1 $-1 $-1 $53 $-1 $29 #
shell $-1 $-1 $-1 $54 $-1 $31 #
face $-1 $55 $56 $33 $-1 $57 forward single #
face $-1 $58 $59 $34 $-1 $60 reversed single #
face $-1 $61 $62 $35 $-1 $63 reversed single #
face $-1 $64 $65 $36 $-1 $66 reversed single #
face $-1 $67 $68 $37 $-1 $69 forward single #
face $-1 $70 $71 $38 $-1 $72 forward single #
face $-1 $73 $74 $39 $-1 $75 forward single #
face $-1 $76 $77 $40 $-1 $78 reversed single #
face $-1 $79 $80 $41 $-1 $81 forward single #
face $-1 $82 $83 $42 $-1 $84 forward single #
face $-1 $85 $86 $43 $-1 $87 forward single #
face $-1 $88 $89 $33 $-1 $90 reversed single #
loop $-1 $-1 $91 $44 #
plane-surface $-1 0 0 7.8757732317871429 0 0 1 1 0 0 forward_v I I I I #
face $-1 $92 $93 $34 $-1 $94 reversed single #
loop $-1 $-1 $95 $45 #
plane-surface $-1 -36.444434133310196 -6.2757604903934734 0 0 1 0 0 0 1 forward_v I I I I #
face $-1 $96 $97 $35 $-1 $98 reversed single #
loop $-1 $-1 $99 $46 #
plane-surface $-1 36.444434133310196 -6.2757604903934734 0 0 1 0 0 0 1 forward_v I I I I #
face $-1 $100 $101 $36 $-1 $102 reversed single #
loop $-1 $-1 $103 $47 #
plane-surface $-1 -0.19857898292343457 -79.569908839321684 54.529816559839631 -1 0 0 0 -0.75470958851134928 0.65605901945558964 forward_v I I I I #
face $-1 $104 $105 $37 $-1 $106 forward single #
loop $-1 $107 $108 $48 #
cone-surface $-1 -12.732928282368565 -15.099202765348586 3.7311768914480892 0 0.75470958851134928 -0.65605901945558964 1 0 0 1 I I 0 1 1 forward I I I I #
face $-1 $109 $110 $38 $-1 $111 forward single #
loop $-1 $112 $113 $49 #
cone-surface $-1 -8.0325472950766397 -15.099202765348586 3.7311768914480892 0 0.75470958851134928 -0.65605901945558964 1 0 0 1 I I 0 1 1 forward I I I I #
face $-1 $114 $115 $39 $-1 $116 forward single #
loop $-1 $117 $118 $50 #
cone-surface $-1 -3.3321663077847177 -15.099202765348586 3.7311768914480892 0 0.75470958851134928 -0.65605901945558964 1 0 0 1 I I 0 1 1 forward I I I I #
face $-1 $119 $120 $40 $-1 $121 reversed single #
loop $-1 $-1 $122 $51 #
plane-surface $-1 -32.779001632506805 29.265146837537664 91.364194141207093 1 0 0 0 -0.52991927123019833 -0.84804809178421925 forward_v I I I I #
face $-1 $123 $124 $41 $-1 $125 forward single #
loop $-1 $126 $127 $52 #
cone-surface $-1 -29.227101147373027 14.497704355559254 4.3013760990436154 0 -0.52991927123019833 -0.84804809178421925 1.5 0 0 1 I I 0 1 1.5 forward I I I I #
face $-1 $128 $129 $42 $-1 $130 forward single #
loop $-1 $131 $132 $53 #
cone-surface $-1 -23.899250419672349 14.497704355559254 4.3013760990436154 0 -0.52991927123019833 -0.84804809178421925 1.5 0 0 1 I I 0 1 1.5 forward I I I I #
face $-1 $133 $134 $43 $-1 $135 forward single #
loop $-1 $136 $137 $54 #
cone-surface $-1 -18.571399691971674 14.497704355559254 4.3013760990436154 0 -0.52991927123019833 -0.84804809178421925 1.5 0 0 1 I I 0 1 1.5 forward I I I I #
face $-1 $138 $139 $33 $-1 $140 reversed single #
loop $-1 $-1 $141 $55 #
plane-surface $-1 0 0 -7.8757732317871429 0 0 1 1 0 0 forward_v I I I I #
coedge $-1 $142 $143 $144 $145 forward $56 $-1 #
face $-1 $146 $147 $34 $-1 $148 reversed single #
loop $-1 $-1 $149 $58 #
plane-surface $-1 -36.444434133310196 -3.2757604903934734 0 0 -1 0 0 0 -1 forward_v I I I I #
coedge $-1 $150 $151 $152 $153 reversed $59 $-1 #
face $-1 $154 $155 $35 $-1 $156 reversed single #
loop $-1 $-1 $157 $61 #
plane-surface $-1 32.779001632506805 -4.7757604903934734 0 1 0 0 0 0 -1 forward_v I I I I #
coedge $-1 $158 $159 $160 $161 forward $62 $-1 #
face $-1 $162 $163 $36 $-1 $164 reversed single #
loop $-1 $-1 $165 $64 #
plane-surface $-1 -8.0325472950766397 -19.027306953967759 1.9009370108975645 0 -0.75470958851134928 0.65605901945558964 1 0 0 forward_v I I I I #
coedge $-1 $166 $167 $168 $169 reversed $65 $-1 #
face $-1 $-1 $170 $37 $-1 $171 forward single #
loop $-1 $172 $173 $67 #
cone-surface $-1 -12.732928282368565 -13.390666659932059 2.2459691518260243 0 0.75470958851134928 -0.65605901945558964 0.5 0 0 1 I I -0.70710678118654746 0.70710678118654746 0.5 forward I I I I #
loop $-1 $-1 $174 $48 #
coedge $-1 $108 $108 $175 $176 reversed $68 $-1 #
face $-1 $-1 $177 $38 $-1 $178 forward single #
loop $-1 $179 $180 $70 #
cone-surface $-1 -8.0325472950766397 -13.390666659932059 2.2459691518260243 0 0.75470958851134928 -0.65605901945558964 0.5 0 0 1 I I -0.70710678118654746 0.70710678118654746 0.5 forward I I I I #
loop $-1 $-1 $181 $49 #
coedge $-1 $113 $113 $182 $183 reversed $71 $-1 #
face $-1 $-1 $184 $39 $-1 $185 forward single #
loop $-1 $186 $187 $73 #
cone-surface $-1 -3.3321663077847177 -13.390666659932059 2.2459691518260243 0 0.75470958851134928 -0.65605901945558964 0.5 0 0 1 I I -0.70710678118654746 0.70710678118654746 0.5 forward I I I I #
loop $-1 $-1 $188 $50 #
coedge $-1 $118 $118 $189 $190 reversed $74 $-1 #
face $-1 $191 $192 $40 $-1 $193 reversed single #
loop $-1 $-1 $194 $76 #
plane-surface $-1 -23.899250419672352 -13.244835754242175 23.334002419647987 0 0.52991927123019833 0.84804809178421925 1 0 0 forward_v I I I I #
coedge $-1 $195 $196 $197 $198 reversed $77 $-1 #
face $-1 $-1 $199 $41 $-1 $200 forward single #
loop $-1 $201 $202 $79 #
cone-surface $-1 -29.227101147373027 13.337564921342832 2.4447649380513745 0 -0.52991927123019833 -0.84804809178421925 0.75 0 0 1 I I -0.70710678118654757 0.70710678118654757 0.75 forward I I I I #
loop $-1 $-1 $203 $52 #
coedge $-1 $127 $127 $204 $205 reversed $80 $-1 #
face $-1 $-1 $206 $42 $-1 $207 forward single #
loop $-1 $208 $209 $82 #
cone-surface $-1 -23.899250419672349 13.337564921342832 2.4447649380513745 0 -0.52991927123019833 -0.84804809178421925 0.75 0 0 1 I I -0.70710678118654757 0.70710678118654757 0.75 forward I I I I #
loop $-1 $-1 $210 $53 #
coedge $-1 $132 $132 $211 $212 reversed $83 $-1 #
face $-1 $-1 $213 $43 $-1 $214 forward single #
loop $-1 $215 $216 $85 #
cone-surface $-1 -18.571399691971674 13.337564921342832 2.4447649380513745 0 -0.52991927123019833 -0.84804809178421925 0.75 0 0 1 I I -0.70710678118654757 0.70710678118654757 0.75 forward I I I I #
loop $-1 $-1 $217 $54 #
coedge $-1 $137 $137 $218 $219 reversed $86 $-1 #
face $-1 $220 $221 $33 $-1 $222 reversed single #
loop $-1 $-1 $223 $88 #
plane-surface $-1 0 -19.027306953967759 0 0 1 0 0 0 1 forward_v I I I I #
coedge $-1 $224 $225 $226 $227 forward $89 $-1 #
coedge $-1 $228 $91 $229 $230 forward $56 $-1 #
coedge $-1 $91 $228 $231 $232 forward $56 $-1 #
coedge $-1 $233 $234 $91 $145 reversed $235 $-1 #
edge $-1 $236 -19.027306953967759 $237 19.027306953967759 $144 $238 forward 7 unknown #
face $-1 $239 $240 $34 $-1 $241 reversed single #
loop $-1 $-1 $242 $92 #
plane-surface $-1 -32.779001632506805 -4.7757604903934734 0 -1 0 0 0 0 1 forward_v I I I I #
coedge $-1 $243 $244 $245 $246 forward $93 $-1 #
coedge $-1 $247 $95 $248 $249 reversed $59 $-1 #
coedge $-1 $95 $247 $250 $251 reversed $59 $-1 #
coedge $-1 $252 $253 $95 $153 forward $254 $-1 #
edge $-1 $255 -7.8757732317871429 $256 7.8757732317871429 $152 $257 forward 7 unknown #
face $-1 $258 $259 $35 $-1 $260 reversed single #
loop $-1 $-1 $261 $96 #
plane-surface $-1 36.444434133310196 -3.2757604903934734 0 0 -1 0 0 0 -1 forward_v I I I I #
coedge $-1 $262 $263 $264 $265 forward $97 $-1 #
coedge $-1 $266 $99 $267 $268 reversed $62 $-1 #
coedge $-1 $99 $266 $269 $270 reversed $62 $-1 #
coedge $-1 $263 $262 $99 $161 reversed $97 $-1 #
edge $-1 $271 -7.8757732317871429 $272 7.8757732317871429 $160 $273 forward 7 unknown #
face $-1 $274 $275 $36 $-1 $276 forward single #
loop $-1 $-1 $277 $100 #
plane-surface $-1 -15.866515607229845 -79.569908839321684 54.529816559839631 1 0 0 0 0.75470958851134928 -0.65605901945558964 forward_v I I I I #
coedge $-1 $278 $279 $280 $281 reversed $101 $-1 #
coedge $-1 $167 $103 $282 $283 reversed $65 $-1 #
coedge $-1 $103 $166 $278 $284 reversed $65 $-1 #
coedge $-1 $280 $285 $103 $169 forward $275 $-1 #
edge $-1 $286 20.757647465693083 $287 25.951493220609727 $168 $288 forward 7 unknown #
loop $-1 $-1 $175 $104 #
plane-surface $-1 -8.0325472950766397 -19.027306953967759 1.9009370108975645 0 -0.75470958851134928 0.65605901945558964 1 0 0 forward_v I I I I #
loop $-1 $-1 $289 $67 #
coedge $-1 $173 $173 $174 $290 reversed $105 $-1 #
coedge $-1 $174 $174 $173 $290 forward $107 $-1 #
coedge $-1 $175 $175 $108 $176 forward $170 $-1 #
edge $-1 $291 3.5047722610585074e-016 $291 6.2831853071796004 $175 $292 forward 7 unknown #
loop $-1 $-1 $182 $109 #
plane-surface $-1 -8.0325472950766397 -19.027306953967759 1.9009370108975645 0 -0.75470958851134928 0.65605901945558964 1 0 0 forward_v I I I I #
loop $-1 $-1 $293 $70 #
coedge $-1 $180 $180 $181 $294 reversed $110 $-1 #
coedge $-1 $181 $181 $180 $294 forward $112 $-1 #
coedge $-1 $182 $182 $113 $183 forward $177 $-1 #
edge $-1 $295 3.5047722610585074e-016 $295 6.2831853071796004 $182 $296 forward 7 unknown #
loop $-1 $-1 $189 $114 #
plane-surface $-1 -8.0325472950766397 -19.027306953967759 1.9009370108975645 0 -0.75470958851134928 0.65605901945558964 1 0 0 forward_v I I I I #
loop $-1 $-1 $297 $73 #
coedge $-1 $187 $187 $188 $298 reversed $115 $-1 #
coedge $-1 $188 $188 $187 $298 forward $117 $-1 #
coedge $-1 $189 $189 $118 $190 forward $184 $-1 #
edge $-1 $299 3.5047722610585074e-016 $299 6.2831853071796004 $189 $300 forward 7 unknown #
face $-1 $301 $302 $40 $-1 $303 reversed single #
loop $-1 $-1 $304 $119 #
plane-surface $-1 -15.019499206837896 29.265146837537664 91.364194141207093 -1 0 0 0 0.52991927123019833 0.84804809178421925 forward_v I I I I #
coedge $-1 $305 $306 $307 $308 reversed $120 $-1 #
coedge $-1 $196 $122 $309 $310 reversed $77 $-1 #
coedge $-1 $122 $195 $305 $311 reversed $77 $-1 #
coedge $-1 $307 $312 $122 $198 forward $313 $-1 #
edge $-1 $314 -4.3947335351989274 $315 3.1390717000305486 $197 $316 forward 7 unknown #
loop $-1 $-1 $204 $123 #
plane-surface $-1 -23.899250419672352 -13.244835754242175 23.334002419647987 0 0.52991927123019833 0.84804809178421925 1 0 0 forward_v I I I I #
loop $-1 $-1 $317 $79 #
coedge $-1 $202 $202 $203 $318 reversed $124 $-1 #
coedge $-1 $203 $203 $202 $318 forward $126 $-1 #
coedge $-1 $204 $204 $127 $205 forward $199 $-1 #
edge $-1 $319 -8.1539579469763845e-016 $319 6.2831853071795996 $204 $320 forward 7 unknown #
loop $-1 $-1 $211 $128 #
plane-surface $-1 -23.899250419672352 -13.244835754242175 23.334002419647987 0 0.52991927123019833 0.84804809178421925 1 0 0 forward_v I I I I #
loop $-1 $-1 $321 $82 #
coedge $-1 $209 $209 $210 $322 reversed $129 $-1 #
coedge $-1 $210 $210 $209 $322 forward $131 $-1 #
coedge $-1 $211 $211 $132 $212 forward $206 $-1 #
edge $-1 $323 -8.1539579469763845e-016 $323 6.2831853071795996 $211 $324 forward 7 unknown #
loop $-1 $-1 $218 $133 #
plane-surface $-1 -23.899250419672352 -13.244835754242175 23.334002419647987 0 0.52991927123019833 0.84804809178421925 1 0 0 forward_v I I I I #
loop $-1 $-1 $325 $85 #
coedge $-1 $216 $216 $217 $326 reversed $134 $-1 #
coedge $-1 $217 $217 $216 $326 forward $136 $-1 #
coedge $-1 $218 $218 $137 $219 forward $213 $-1 #
edge $-1 $327 -8.1539579469763845e-016 $327 6.2831853071795996 $218 $328 forward 7 unknown #
face $-1 $329 $330 $33 $-1 $331 reversed single #
loop $-1 $-1 $332 $138 #
plane-surface $-1 -40.109866634113587 0 0 1 0 0 0 0 -1 forward_v I I I I #
coedge $-1 $333 $231 $334 $335 forward $139 $-1 #
coedge $-1 $336 $141 $333 $337 forward $89 $-1 #
coedge $-1 $141 $336 $338 $339 forward $89 $-1 #
coedge $-1 $234 $233 $141 $227 reversed $235 $-1 #
edge $-1 $340 -19.027306953967759 $341 19.027306953967759 $226 $342 forward 7 unknown #
coedge $-1 $143 $142 $343 $344 forward $56 $-1 #
coedge $-1 $345 $346 $142 $230 reversed $330 $-1 #
edge $-1 $237 -40.109866634113587 $347 40.109866634113587 $229 $348 forward 7 unknown #
coedge $-1 $223 $349 $143 $232 reversed $139 $-1 #
edge $-1 $350 -40.109866634113587 $236 40.109866634113587 $231 $351 forward 7 unknown #
coedge $-1 $226 $144 $349 $352 forward $235 $-1 #
coedge $-1 $144 $226 $345 $353 reversed $235 $-1 #
loop $-1 $-1 $233 $329 #
vertex $-1 $145 $354 #
vertex $-1 $145 $355 #
straight-curve $-1 40.109866634113587 0 7.8757732317871429 0 1 0 I I #
face $-1 $356 $357 $34 $-1 $358 forward single #
loop $-1 $-1 $359 $146 #
plane-surface $-1 0 0 -7.8757732317871429 0 0 1 1 0 0 forward_v I I I I #
coedge $-1 $360 $361 $247 $362 forward $147 $-1 #
coedge $-1 $363 $149 $359 $364 reversed $93 $-1 #
coedge $-1 $149 $363 $365 $366 reversed $93 $-1 #
coedge $-1 $361 $360 $149 $246 reversed $147 $-1 #
edge $-1 $367 -7.8757732317871429 $368 7.8757732317871429 $245 $369 forward 7 unknown #
coedge $-1 $151 $150 $242 $362 reversed $59 $-1 #
coedge $-1 $370 $371 $150 $249 forward $240 $-1 #
edge $-1 $372 14.556784565851707 $255 21.887649567458489 $248 $373 forward 7 unknown #
coedge $-1 $374 $375 $151 $251 forward $357 $-1 #
edge $-1 $256 -21.887649567458489 $376 -14.556784565851707 $250 $377 forward 7 unknown #
coedge $-1 $378 $152 $375 $379 reversed $254 $-1 #
coedge $-1 $152 $378 $370 $380 reversed $254 $-1 #
loop $-1 $-1 $378 $356 #
vertex $-1 $380 $381 #
vertex $-1 $153 $382 #
straight-curve $-1 -40.109866634113587 -6.2757604903934734 0 0 0 1 I I #
face $-1 $383 $384 $35 $-1 $385 forward single #
loop $-1 $-1 $267 $154 #
plane-surface $-1 0 0 -7.8757732317871429 0 0 1 1 0 0 forward_v I I I I #
coedge $-1 $386 $387 $388 $389 reversed $155 $-1 #
coedge $-1 $160 $157 $390 $391 reversed $97 $-1 #
coedge $-1 $157 $160 $392 $393 reversed $97 $-1 #
coedge $-1 $387 $386 $157 $265 reversed $155 $-1 #
edge $-1 $394 -7.8757732317871429 $395 7.8757732317871429 $264 $396 forward 7 unknown #
coedge $-1 $159 $158 $397 $398 reversed $62 $-1 #
coedge $-1 $390 $399 $158 $268 forward $259 $-1 #
edge $-1 $400 -21.887649567458489 $272 -14.556784565851707 $267 $401 forward 7 unknown #
coedge $-1 $402 $392 $159 $270 forward $384 $-1 #
edge $-1 $271 14.556784565851707 $403 21.887649567458489 $269 $404 forward 7 unknown #
vertex $-1 $270 $405 #
vertex $-1 $268 $406 #
straight-curve $-1 32.779001632506805 -6.2757604903934734 0 0 0 -1 I I #
face $-1 $-1 $407 $36 $-1 $408 reversed single #
loop $-1 $-1 $168 $162 #
plane-surface $-1 0 0 7.8757732317871429 0 0 1 1 0 0 forward_v I I I I #
coedge $-1 $409 $410 $411 $412 reversed $163 $-1 #
coedge $-1 $413 $165 $167 $284 forward $101 $-1 #
coedge $-1 $165 $413 $409 $414 forward $101 $-1 #
coedge $-1 $411 $168 $165 $281 forward $275 $-1 #
edge $-1 $287 -3.8176946646148853 $415 11.850241959691525 $280 $416 forward 7 unknown #
coedge $-1 $417 $418 $166 $283 forward $407 $-1 #
edge $-1 $419 -25.363971269022251 $286 -19.389135048132673 $282 $420 forward 7 unknown #
edge $-1 $287 -7.9167355388644696 $419 0 $167 $421 forward 7 unknown #
coedge $-1 $168 $411 $417 $422 forward $275 $-1 #
vertex $-1 $169 $423 #
vertex $-1 $169 $424 #
straight-curve $-1 -0.19857898292343457 -39.784954419660842 7.8757732317871429 0 1 0 I I #
coedge $-1 $289 $289 $-1 $425 reversed $172 $-1 #
edge $-1 $426 0 $426 6.2831853071796004 $173 $427 forward 7 unknown #
vertex $-1 $176 $428 #
ellipse-curve $-1 -12.732928282368565 -16.430384076509437 4.8883551213423555 0 -0.75470958851134928 0.65605901945558964 1 0 0 1 I I #
coedge $-1 $293 $293 $-1 $429 reversed $179 $-1 #
edge $-1 $430 0 $430 6.2831853071796004 $180 $431 forward 7 unknown #
vertex $-1 $183 $432 #
ellipse-curve $-1 -8.0325472950766397 -16.430384076509437 4.8883551213423555 0 -0.75470958851134928 0.65605901945558964 1 0 0 1 I I #
coedge $-1 $297 $297 $-1 $433 reversed $186 $-1 #
edge $-1 $434 0 $434 6.2831853071796004 $187 $435 forward 7 unknown #
vertex $-1 $190 $436 #
ellipse-curve $-1 -3.3321663077847177 -16.430384076509437 4.8883551213423555 0 -0.75470958851134928 0.65605901945558964 1 0 0 1 I I #
face $-1 $-1 $313 $40 $-1 $437 forward single #
loop $-1 $-1 $438 $191 #
plane-surface $-1 0 19.027306953967759 0 0 -1 0 0 0 -1 forward_v I I I I #
coedge $-1 $439 $440 $441 $442 reversed $192 $-1 #
coedge $-1 $443 $194 $196 $311 forward $120 $-1 #
coedge $-1 $194 $443 $439 $444 forward $120 $-1 #
coedge $-1 $441 $197 $194 $308 forward $313 $-1 #
edge $-1 $315 -20.829376422670627 $445 -3.0698739970017197 $307 $446 forward 7 unknown #
coedge $-1 $447 $448 $195 $310 forward $302 $-1 #
edge $-1 $449 -42.513967919995324 $314 -37.806323838816404 $309 $450 forward 7 unknown #
edge $-1 $315 29.170913433615723 $449 38.054613907935526 $196 $451 forward 7 unknown #
coedge $-1 $197 $441 $447 $452 forward $313 $-1 #
loop $-1 $-1 $441 $301 #
vertex $-1 $310 $453 #
vertex $-1 $198 $454 #
straight-curve $-1 -32.779001632506805 14.632573418768832 7.8757732317871429 0 -1 0 I I #
coedge $-1 $317 $317 $-1 $455 reversed $201 $-1 #
edge $-1 $456 0 $456 6.2831853071796004 $202 $457 forward 7 unknown #
vertex $-1 $205 $458 #
ellipse-curve $-1 -29.227101147373027 15.260404336353023 5.521951191197684 0 0.52991927123019833 0.84804809178421925 1.5 0 0 1 I I #
coedge $-1 $321 $321 $-1 $459 reversed $208 $-1 #
edge $-1 $460 0 $460 6.2831853071796004 $209 $461 forward 7 unknown #
vertex $-1 $212 $462 #
ellipse-curve $-1 -23.899250419672349 15.260404336353023 5.521951191197684 0 0.52991927123019833 0.84804809178421925 1.5 0 0 1 I I #
coedge $-1 $325 $325 $-1 $463 reversed $215 $-1 #
edge $-1 $464 0 $464 6.2831853071796004 $216 $465 forward 7 unknown #
vertex $-1 $219 $466 #
ellipse-curve $-1 -18.571399691971674 15.260404336353023 5.521951191197684 0 0.52991927123019833 0.84804809178421925 1.5 0 0 1 I I #
face $-1 $-1 $235 $33 $-1 $467 reversed single #
loop $-1 $-1 $345 $220 #
plane-surface $-1 0 19.027306953967759 0 0 -1 0 0 0 -1 forward_v I I I I #
coedge $-1 $468 $343 $346 $469 forward $221 $-1 #
coedge $-1 $349 $223 $224 $337 reversed $139 $-1 #
coedge $-1 $343 $468 $223 $335 reversed $221 $-1 #
edge $-1 $350 -7.8757732317871429 $470 7.8757732317871429 $334 $471 forward 7 unknown #
coedge $-1 $225 $224 $468 $472 forward $89 $-1 #
edge $-1 $341 -40.109866634113587 $470 40.109866634113587 $333 $473 forward 7 unknown #
coedge $-1 $346 $345 $225 $339 reversed $330 $-1 #
edge $-1 $474 -40.109866634113587 $340 40.109866634113587 $338 $475 forward 7 unknown #
vertex $-1 $227 $476 #
vertex $-1 $352 $477 #
straight-curve $-1 40.109866634113587 0 -7.8757732317871429 0 -1 0 I I #
coedge $-1 $332 $334 $228 $344 reversed $221 $-1 #
edge $-1 $347 -19.027306953967759 $350 19.027306953967759 $343 $478 forward 7 unknown #
coedge $-1 $338 $229 $234 $353 forward $330 $-1 #
coedge $-1 $229 $338 $332 $469 reversed $330 $-1 #
vertex $-1 $230 $479 #
straight-curve $-1 0 19.027306953967759 7.8757732317871429 -1 0 0 I I #
coedge $-1 $231 $333 $233 $352 reversed $139 $-1 #
vertex $-1 $344 $480 #
straight-curve $-1 0 -19.027306953967759 7.8757732317871429 1 0 0 I I #
edge $-1 $236 -7.8757732317871429 $341 7.8757732317871429 $233 $481 forward 7 unknown #
edge $-1 $237 -7.8757732317871429 $340 7.8757732317871429 $234 $482 forward 7 unknown #
point $-1 40.109866634113587 -19.027306953967759 7.8757732317871429 #
point $-1 40.109866634113587 19.027306953967759 7.8757732317871429 #
face $-1 $-1 $254 $34 $-1 $483 reversed single #
loop $-1 $-1 $365 $239 #
plane-surface $-1 0 0 7.8757732317871429 0 0 1 1 0 0 forward_v I I I I #
coedge $-1 $371 $370 $243 $364 forward $240 $-1 #
coedge $-1 $245 $242 $371 $484 reversed $147 $-1 #
coedge $-1 $242 $245 $374 $485 reversed $147 $-1 #
edge $-1 $376 -7.8757732317871429 $372 7.8757732317871429 $242 $486 forward 7 unknown #
coedge $-1 $244 $243 $378 $487 reversed $93 $-1 #
edge $-1 $488 -21.887649567458489 $368 -14.556784565851707 $359 $489 forward 7 unknown #
coedge $-1 $375 $374 $244 $366 forward $357 $-1 #
edge $-1 $367 14.556784565851707 $490 21.887649567458489 $365 $491 forward 7 unknown #
vertex $-1 $366 $492 #
vertex $-1 $364 $493 #
straight-curve $-1 -32.779001632506805 -3.2757604903934734 0 0 0 -1 I I #
coedge $-1 $359 $248 $253 $380 forward $240 $-1 #
coedge $-1 $248 $359 $360 $484 forward $240 $-1 #
vertex $-1 $249 $494 #
straight-curve $-1 -18.222217066655098 -6.2757604903934734 -7.8757732317871429 -1 0 0 I I #
coedge $-1 $365 $250 $361 $485 forward $357 $-1 #
coedge $-1 $250 $365 $252 $379 forward $357 $-1 #
vertex $-1 $251 $495 #
straight-curve $-1 -18.222217066655098 -6.2757604903934734 7.8757732317871429 1 0 0 I I #
coedge $-1 $253 $252 $363 $487 forward $254 $-1 #
edge $-1 $490 3.2757604903934734 $256 6.2757604903934734 $252 $496 forward 7 unknown #
edge $-1 $255 -6.2757604903934734 $488 -3.2757604903934734 $253 $497 forward 7 unknown #
point $-1 -40.109866634113587 -6.2757604903934734 -7.8757732317871429 #
point $-1 -40.109866634113587 -6.2757604903934734 7.8757732317871429 #
face $-1 $-1 $498 $35 $-1 $499 reversed single #
loop $-1 $-1 $269 $258 #
plane-surface $-1 0 0 7.8757732317871429 0 0 1 1 0 0 forward_v I I I I #
coedge $-1 $264 $261 $500 $501 reversed $155 $-1 #
coedge $-1 $261 $264 $502 $503 reversed $155 $-1 #
coedge $-1 $504 $505 $261 $389 forward $498 $-1 #
edge $-1 $506 -7.8757732317871429 $507 7.8757732317871429 $388 $508 forward 7 unknown #
coedge $-1 $500 $267 $262 $391 forward $259 $-1 #
edge $-1 $272 -3.8878802451967367 $395 -0.88788024519673669 $390 $509 forward 7 unknown #
coedge $-1 $269 $502 $263 $393 forward $384 $-1 #
edge $-1 $394 0.88788024519673669 $271 3.8878802451967367 $392 $510 forward 7 unknown #
vertex $-1 $393 $511 #
vertex $-1 $391 $512 #
straight-curve $-1 32.779001632506805 -3.2757604903934734 0 0 0 -1 I I #
coedge $-1 $505 $504 $266 $398 forward $498 $-1 #
edge $-1 $403 -7.8757732317871429 $400 7.8757732317871429 $397 $513 forward 7 unknown #
coedge $-1 $267 $500 $505 $514 forward $259 $-1 #
vertex $-1 $398 $515 #
straight-curve $-1 18.222217066655098 -6.2757604903934734 -7.8757732317871429 -1 0 0 I I #
coedge $-1 $502 $269 $504 $516 forward $384 $-1 #
vertex $-1 $516 $517 #
straight-curve $-1 18.222217066655098 -6.2757604903934734 7.8757732317871429 1 0 0 I I #
point $-1 32.779001632506805 -6.2757604903934734 7.8757732317871429 #
point $-1 32.779001632506805 -6.2757604903934734 -7.8757732317871429 #
loop $-1 $-1 $282 $274 #
plane-surface $-1 0 -19.027306953967759 0 0 1 0 0 0 1 forward_v I I I I #
coedge $-1 $410 $277 $279 $414 reversed $163 $-1 #
coedge $-1 $277 $409 $518 $519 reversed $163 $-1 #
coedge $-1 $285 $280 $277 $412 forward $275 $-1 #
edge $-1 $415 -25.951493220609727 $520 -20.757647465693083 $411 $521 forward 7 unknown #
coedge $-1 $279 $278 $418 $522 reversed $101 $-1 #
edge $-1 $523 0 $415 7.9167355388644696 $409 $524 forward 7 unknown #
vertex $-1 $281 $525 #
straight-curve $-1 -4.0162736475383198 -13.833461199051115 7.8757732317871429 -1 0 0 I I #
coedge $-1 $518 $282 $285 $422 reversed $407 $-1 #
coedge $-1 $282 $518 $413 $522 forward $407 $-1 #
vertex $-1 $283 $526 #
straight-curve $-1 -0.19857898292343457 -19.027306953967759 27.264908279919815 0 0 1 I I #
straight-curve $-1 -0.19857898292343457 -19.027306953967759 1.9009370108975645 0 -0.65605901945558964 -0.75470958851134928 I I #
edge $-1 $520 -15.866515607229845 $286 -0.19857898292343457 $417 $527 forward 7 unknown #
point $-1 -0.19857898292343457 -19.027306953967759 7.8757732317871429 #
point $-1 -0.19857898292343457 -13.833461199051117 7.8757732317871429 #
edge $-1 $528 1 $528 0 $289 $-1 forward 7 unknown #
vertex $-1 $290 $529 #
ellipse-curve $-1 -12.732928282368565 -13.768021454187734 2.5739986615538193 0 -0.75470958851134928 0.65605901945558964 1 0 0 1 I I #
point $-1 -11.732928282368565 -16.430384076509441 4.8883551213423591 #
edge $-1 $530 1 $530 0 $293 $-1 forward 7 unknown #
vertex $-1 $294 $531 #
ellipse-curve $-1 -8.0325472950766397 -13.768021454187734 2.5739986615538193 0 -0.75470958851134928 0.65605901945558964 1 0 0 1 I I #
point $-1 -7.0325472950766397 -16.430384076509441 4.8883551213423591 #
edge $-1 $532 1 $532 0 $297 $-1 forward 7 unknown #
vertex $-1 $298 $533 #
ellipse-curve $-1 -3.3321663077847177 -13.768021454187734 2.5739986615538193 0 -0.75470958851134928 0.65605901945558964 1 0 0 1 I I #
point $-1 -2.3321663077847177 -16.430384076509441 4.8883551213423591 #
plane-surface $-1 0 0 7.8757732317871429 0 0 1 1 0 0 forward_v I I I I #
coedge $-1 $448 $447 $440 $534 forward $302 $-1 #
coedge $-1 $440 $304 $306 $444 reversed $192 $-1 #
coedge $-1 $304 $439 $438 $534 reversed $192 $-1 #
coedge $-1 $312 $307 $304 $442 forward $313 $-1 #
edge $-1 $445 -3.1390717000305486 $535 4.3947335351989274 $441 $536 forward 7 unknown #
coedge $-1 $306 $305 $448 $537 reversed $120 $-1 #
edge $-1 $538 -38.054613907935526 $445 -29.170913433615723 $439 $539 forward 7 unknown #
vertex $-1 $308 $540 #
straight-curve $-1 -11.949625209836176 11.493501718738283 7.8757732317871412 1 0 0 I I #
coedge $-1 $438 $309 $312 $452 reversed $302 $-1 #
coedge $-1 $309 $438 $443 $537 forward $302 $-1 #
vertex $-1 $310 $541 #
straight-curve $-1 -32.779001632506805 19.027306953967759 45.682097070603547 0 0 1 I I #
straight-curve $-1 -32.779001632506805 -13.244835754242175 23.334002419647987 0 0.84804809178421925 -0.52991927123019833 I I #
edge $-1 $535 15.019499206837896 $314 32.779001632506805 $447 $542 forward 7 unknown #
point $-1 -32.779001632506805 19.027306953967759 7.8757732317871429 #
point $-1 -32.779001632506805 11.493501718738283 7.8757732317871429 #
edge $-1 $543 1 $543 0 $317 $-1 forward 7 unknown #
vertex $-1 $318 $544 #
ellipse-curve $-1 -29.227101147373027 13.735004374765481 3.0808010068895388 0 0.52991927123019833 0.84804809178421925 1.5 0 0 1 I I #
point $-1 -27.727101147373027 15.260404336353027 5.521951191197692 #
edge $-1 $545 1 $545 0 $321 $-1 forward 7 unknown #
vertex $-1 $322 $546 #
ellipse-curve $-1 -23.899250419672349 13.735004374765481 3.0808010068895388 0 0.52991927123019833 0.84804809178421925 1.5 0 0 1 I I #
point $-1 -22.399250419672349 15.260404336353027 5.521951191197692 #
edge $-1 $547 1 $547 0 $325 $-1 forward 7 unknown #
vertex $-1 $326 $548 #
ellipse-curve $-1 -18.571399691971674 13.735004374765481 3.0808010068895388 0 0.52991927123019833 0.84804809178421925 1.5 0 0 1 I I #
point $-1 -17.071399691971674 15.260404336353027 5.521951191197692 #
plane-surface $-1 40.109866634113587 0 0 -1 0 0 0 0 1 forward_v I I I I #
coedge $-1 $334 $332 $336 $472 reversed $221 $-1 #
edge $-1 $347 -7.8757732317871429 $474 7.8757732317871429 $346 $549 forward 7 unknown #
vertex $-1 $472 $550 #
straight-curve $-1 -40.109866634113587 -19.027306953967759 0 0 0 -1 I I #
edge $-1 $470 -19.027306953967759 $474 19.027306953967759 $468 $551 forward 7 unknown #
straight-curve $-1 0 -19.027306953967759 -7.8757732317871429 -1 0 0 I I #
vertex $-1 $339 $552 #
straight-curve $-1 0 19.027306953967759 -7.8757732317871429 1 0 0 I I #
point $-1 40.109866634113587 19.027306953967759 -7.8757732317871429 #
point $-1 40.109866634113587 -19.027306953967759 -7.8757732317871429 #
straight-curve $-1 -40.109866634113587 0 7.8757732317871429 0 -1 0 I I #
point $-1 -40.109866634113587 19.027306953967759 7.8757732317871429 #
point $-1 -40.109866634113587 -19.027306953967759 7.8757732317871429 #
straight-curve $-1 40.109866634113587 -19.027306953967759 0 0 0 -1 I I #
straight-curve $-1 40.109866634113587 19.027306953967759 0 0 0 -1 I I #
plane-surface $-1 -40.109866634113587 0 0 1 0 0 0 0 -1 forward_v I I I I #
edge $-1 $368 0.88788024519673669 $372 3.8878802451967367 $371 $553 forward 7 unknown #
edge $-1 $376 -3.8878802451967367 $367 -0.88788024519673669 $374 $554 forward 7 unknown #
straight-curve $-1 -32.779001632506805 -6.2757604903934734 0 0 0 -1 I I #
edge $-1 $490 -7.8757732317871429 $488 7.8757732317871429 $378 $555 forward 7 unknown #
vertex $-1 $487 $556 #
straight-curve $-1 -18.222217066655098 -3.2757604903934734 -7.8757732317871429 1 0 0 I I #
vertex $-1 $379 $557 #
straight-curve $-1 -18.222217066655098 -3.2757604903934734 7.8757732317871429 -1 0 0 I I #
point $-1 -32.779001632506805 -3.2757604903934734 7.8757732317871429 #
point $-1 -32.779001632506805 -3.2757604903934734 -7.8757732317871429 #
point $-1 -32.779001632506805 -6.2757604903934734 -7.8757732317871429 #
point $-1 -32.779001632506805 -6.2757604903934734 7.8757732317871429 #
straight-curve $-1 -40.109866634113587 0 7.8757732317871429 0 -1 0 I I #
straight-curve $-1 -40.109866634113587 0 -7.8757732317871429 0 1 0 I I #
loop $-1 $-1 $397 $383 #
plane-surface $-1 40.109866634113587 0 0 -1 0 0 0 0 1 forward_v I I I I #
coedge $-1 $399 $390 $386 $501 forward $259 $-1 #
edge $-1 $395 14.556784565851707 $506 21.887649567458489 $500 $558 forward 7 unknown #
coedge $-1 $392 $402 $387 $503 forward $384 $-1 #
edge $-1 $507 -21.887649567458489 $394 -14.556784565851707 $502 $559 forward 7 unknown #
coedge $-1 $397 $388 $402 $516 reversed $498 $-1 #
coedge $-1 $388 $397 $399 $514 reversed $498 $-1 #
vertex $-1 $514 $560 #
vertex $-1 $389 $561 #
straight-curve $-1 40.109866634113587 -3.2757604903934734 0 0 0 1 I I #
straight-curve $-1 32.779001632506805 -2.3878802451967367 -7.8757732317871429 0 1 0 I I #
straight-curve $-1 32.779001632506805 -2.3878802451967367 7.8757732317871429 0 -1 0 I I #
point $-1 32.779001632506805 -3.2757604903934734 7.8757732317871429 #
point $-1 32.779001632506805 -3.2757604903934734 -7.8757732317871429 #
straight-curve $-1 40.109866634113587 -6.2757604903934734 0 0 0 -1 I I #
edge $-1 $506 3.2757604903934734 $400 6.2757604903934734 $505 $562 forward 7 unknown #
point $-1 40.109866634113587 -6.2757604903934734 -7.8757732317871429 #
edge $-1 $403 -6.2757604903934734 $507 -3.2757604903934734 $504 $563 forward 7 unknown #
point $-1 40.109866634113587 -6.2757604903934734 7.8757732317871429 #
coedge $-1 $418 $417 $410 $519 forward $407 $-1 #
edge $-1 $520 19.389135048132673 $523 25.363971269022251 $518 $564 forward 7 unknown #
vertex $-1 $422 $565 #
straight-curve $-1 -15.866515607229845 -39.784954419660842 7.8757732317871429 0 -1 0 I I #
edge $-1 $523 -11.850241959691525 $419 3.8176946646148853 $418 $566 forward 7 unknown #
vertex $-1 $522 $567 #
straight-curve $-1 -15.866515607229845 -19.027306953967759 1.9009370108975645 0 0.65605901945558964 0.75470958851134928 I I #
point $-1 -15.866515607229845 -13.833461199051117 7.8757732317871429 #
point $-1 -0.19857898292343457 -19.027306953967759 1.9009370108975645 #
straight-curve $-1 0 -19.027306953967759 7.8757732317871429 1 0 0 I I #
vertex $-1 $425 $568 #
point $-1 -11.732928282368565 -13.768021454187734 2.5739986615538193 #
vertex $-1 $429 $569 #
point $-1 -7.0325472950766397 -13.768021454187734 2.5739986615538193 #
vertex $-1 $433 $570 #
point $-1 -2.3321663077847177 -13.768021454187734 2.5739986615538193 #
edge $-1 $535 37.806323838816404 $538 42.513967919995324 $438 $571 forward 7 unknown #
vertex $-1 $452 $572 #
straight-curve $-1 -15.019499206837896 14.632573418768832 7.8757732317871429 0 1 0 I I #
edge $-1 $538 3.0698739970017197 $449 20.829376422670627 $448 $573 forward 7 unknown #
vertex $-1 $537 $574 #
straight-curve $-1 -15.019499206837896 -13.244835754242175 23.334002419647987 0 -0.84804809178421925 0.52991927123019833 I I #
point $-1 -15.019499206837896 11.493501718738283 7.8757732317871429 #
point $-1 -32.779001632506805 19.027306953967759 3.1681291506082232 #
straight-curve $-1 0 19.027306953967759 7.8757732317871429 -1 0 0 I I #
vertex $-1 $455 $575 #
point $-1 -27.727101147373027 13.735004374765481 3.0808010068895388 #
vertex $-1 $459 $576 #
point $-1 -22.399250419672349 13.735004374765481 3.0808010068895388 #
vertex $-1 $463 $577 #
point $-1 -17.071399691971674 13.735004374765481 3.0808010068895388 #
straight-curve $-1 -40.109866634113587 19.027306953967759 0 0 0 -1 I I #
point $-1 -40.109866634113587 -19.027306953967759 -7.8757732317871429 #
straight-curve $-1 -40.109866634113587 0 -7.8757732317871429 0 1 0 I I #
point $-1 -40.109866634113587 19.027306953967759 -7.8757732317871429 #
straight-curve $-1 -32.779001632506805 -2.3878802451967367 -7.8757732317871429 0 -1 0 I I #
straight-curve $-1 -32.779001632506805 -2.3878802451967367 7.8757732317871429 0 1 0 I I #
straight-curve $-1 -40.109866634113587 -3.2757604903934734 0 0 0 -1 I I #
point $-1 -40.109866634113587 -3.2757604903934734 -7.8757732317871429 #
point $-1 -40.109866634113587 -3.2757604903934734 7.8757732317871429 #
straight-curve $-1 18.222217066655098 -3.2757604903934734 -7.8757732317871429 1 0 0 I I #
straight-curve $-1 18.222217066655098 -3.2757604903934734 7.8757732317871429 -1 0 0 I I #
point $-1 40.109866634113587 -3.2757604903934734 -7.8757732317871429 #
point $-1 40.109866634113587 -3.2757604903934734 7.8757732317871429 #
straight-curve $-1 40.109866634113587 0 -7.8757732317871429 0 -1 0 I I #
straight-curve $-1 40.109866634113587 0 7.8757732317871429 0 1 0 I I #
straight-curve $-1 -15.866515607229845 -19.027306953967759 27.264908279919815 0 0 -1 I I #
point $-1 -15.866515607229845 -19.027306953967759 7.8757732317871429 #
straight-curve $-1 -4.0162736475383198 -19.027306953967759 1.9009370108975638 1 0 0 I I #
point $-1 -15.866515607229845 -19.027306953967759 1.9009370108975645 #
point $-1 -12.732928282368565 -13.013311865676384 1.9179396420982295 #
point $-1 -8.0325472950766397 -13.013311865676384 1.9179396420982295 #
point $-1 -3.3321663077847177 -13.013311865676384 1.9179396420982295 #
straight-curve $-1 -15.019499206837896 19.027306953967759 45.682097070603547 0 0 -1 I I #
point $-1 -15.019499206837896 19.027306953967759 7.8757732317871429 #
straight-curve $-1 -11.949625209836176 19.027306953967759 3.1681291506082232 -1 0 0 I I #
point $-1 -15.019499206837896 19.027306953967759 3.1681291506082232 #
point $-1 -29.227101147373027 12.940125467920183 1.8087288692132102 #
point $-1 -23.899250419672349 12.940125467920183 1.8087288692132102 #
point $-1 -18.571399691971674 12.940125467920183 1.8087288692132102 #
End-of-ACIS-data 