500 0 8 0           
7 Unknown 11 ACIS 5.0 NT 24 Fri Mar 26 17:18:15 1999 
-1 9.9999999999999995e-007 1e-010 
body $-1 $8 $-1 $9 #
body $-1 $10 $-1 $11 #
body $-1 $12 $-1 $13 #
body $-1 $14 $-1 $15 #
body $-1 $16 $-1 $17 #
body $-1 $18 $-1 $19 #
body $-1 $20 $-1 $21 #
body $-1 $22 $-1 $23 #
lump $-1 $-1 $24 $0 #
transform $-1 1 0 0 0 1 0 0 0 1 73.93292031617176 42.281227875751291 20.585113934808202 1 rotate no_reflect no_shear #
lump $-1 $-1 $25 $1 #
transform $-1 1 0 0 0 1 0 0 0 1 73.93292031617176 42.281227875751291 20.585113934808202 1 rotate no_reflect no_shear #
lump $-1 $-1 $26 $2 #
transform $-1 1 0 0 0 1 0 0 0 1 73.93292031617176 42.281227875751291 20.585113934808202 1 rotate no_reflect no_shear #
lump $-1 $-1 $27 $3 #
transform $-1 1 0 0 0 1 0 0 0 1 73.93292031617176 42.281227875751291 20.585113934808202 1 rotate no_reflect no_shear #
lump $-1 $-1 $28 $4 #
transform $-1 1 0 0 0 1 0 0 0 1 73.93292031617176 42.281227875751291 20.585113934808202 1 rotate no_reflect no_shear #
lump $-1 $-1 $29 $5 #
transform $-1 1 0 0 0 1 0 0 0 1 73.93292031617176 42.281227875751291 20.585113934808202 1 rotate no_reflect no_shear #
lump $-1 $-1 $30 $6 #
transform $-1 1 0 0 0 1 0 0 0 1 73.93292031617176 42.281227875751291 20.585113934808202 1 rotate no_reflect no_shear #
lump $-1 $-1 $31 $7 #
transform $-1 1 0 0 0 1 0 0 0 1 73.93292031617176 42.281227875751291 20.585113934808202 1 rotate no_reflect no_shear #
shell $-1 $-1 $-1 $32 $-1 $8 #
shell $-1 $-1 $-1 $33 $-1 $10 #
shell $-1 $-1 $-1 $34 $-1 $12 #
shell $-1 $-1 $-1 $35 $-1 $14 #
shell $-1 $-1 $-1 $36 $-1 $16 #
shell $-1 $-1 $-1 $37 $-1 $18 #
shell $-1 $-1 $-1 $38 $-1 $20 #
shell $-1 $-1 $-1 $39 $-1 $22 #
face $-1 $40 $41 $24 $-1 $42 reversed single #
face $-1 $43 $44 $25 $-1 $45 forward single #
face $-1 $46 $47 $26 $-1 $48 reversed single #
face $-1 $49 $50 $27 $-1 $51 forward single #
face $-1 $52 $53 $28 $-1 $54 forward single #
face $-1 $55 $56 $29 $-1 $57 reversed single #
face $-1 $58 $59 $30 $-1 $60 forward single #
face $-1 $61 $62 $31 $-1 $63 forward single #
face $-1 $64 $65 $24 $-1 $66 forward single #
loop $-1 $-1 $67 $32 #
plane-surface $-1 -73.93292031617176 0 0 1 0 0 0 0 -1 forward_v I I I I #
face $-1 $68 $69 $25 $-1 $70 reversed single #
loop $-1 $-1 $71 $33 #
plane-surface $-1 -73.93292031617176 0 0 1 0 0 0 0 -1 forward_v I I I I #
face $-1 $72 $73 $26 $-1 $74 reversed single #
loop $-1 $-1 $75 $34 #
plane-surface $-1 63.839191924210581 -42.281227875751298 10.071713407225147 0 -0.52991927123019833 0.84804809178421925 1 0 0 forward_v I I I I #
face $-1 $76 $77 $27 $-1 $78 forward single #
loop $-1 $79 $80 $35 #
cone-surface $-1 59.513308327655778 -32.83958948770713 13.68141405503496 0 0.52991927123019833 -0.84804809178421925 2 0 0 1 I I 0 1 2 forward I I I I #
face $-1 $81 $82 $28 $-1 $83 forward single #
loop $-1 $84 $85 $36 #
cone-surface $-1 68.165075520765356 -32.83958948770713 13.68141405503496 0 0.52991927123019833 -0.84804809178421925 2 0 0 1 I I 0 1 2 forward I I I I #
face $-1 $86 $87 $29 $-1 $88 reversed single #
loop $-1 $-1 $89 $37 #
plane-surface $-1 -4.9608049500813962 106.73925623396778 162.80254110221281 1 0 0 0 -0.78801076186113728 -0.61566146476048833 forward_v I I I I #
face $-1 $90 $91 $30 $-1 $92 forward single #
loop $-1 $93 $94 $38 #
cone-surface $-1 3.72665865884764 32.144063291839515 9.6547099583382927 0 -0.78801076186113728 -0.61566146476048833 3 0 0 1 I I 0 1 3 forward I I I I #
face $-1 $95 $96 $31 $-1 $97 forward single #
loop $-1 $98 $99 $39 #
cone-surface $-1 16.757854072241201 32.144063291839515 9.6547099583382927 0 -0.78801076186113728 -0.61566146476048833 3 0 0 1 I I 0 1 3 forward I I I I #
face $-1 $100 $101 $24 $-1 $102 reversed single #
loop $-1 $-1 $103 $40 #
plane-surface $-1 0 0 20.585113934808202 0 0 1 1 0 0 forward_v I I I I #
coedge $-1 $104 $105 $106 $107 reversed $41 $-1 #
face $-1 $108 $109 $25 $-1 $110 reversed single #
loop $-1 $-1 $111 $43 #
plane-surface $-1 0 0 -20.585113934808202 0 0 1 1 0 0 forward_v I I I I #
coedge $-1 $112 $113 $114 $115 forward $44 $-1 #
face $-1 $116 $117 $26 $-1 $118 reversed single #
loop $-1 $-1 $119 $46 #
plane-surface $-1 53.745463532249403 -120.63818638348343 135.46905739555353 1 0 0 0 0.52991927123019833 -0.84804809178421925 forward_v I I I I #
coedge $-1 $120 $121 $122 $123 reversed $47 $-1 #
face $-1 $-1 $124 $27 $-1 $125 forward single #
loop $-1 $126 $127 $49 #
cone-surface $-1 59.513308327655778 -31.280510614948682 11.186366347269043 0 0.52991927123019833 -0.84804809178421925 1 0 0 1 I I -0.70710678118654746 0.70710678118654746 1 forward I I I I #
loop $-1 $-1 $128 $35 #
coedge $-1 $80 $80 $129 $130 reversed $50 $-1 #
face $-1 $-1 $131 $28 $-1 $132 forward single #
loop $-1 $133 $134 $52 #
cone-surface $-1 68.165075520765356 -31.280510614948682 11.186366347269043 0 0.52991927123019833 -0.84804809178421925 1 0 0 1 I I -0.70710678118654746 0.70710678118654746 1 forward I I I I #
loop $-1 $-1 $135 $36 #
coedge $-1 $85 $85 $136 $137 reversed $53 $-1 #
face $-1 $138 $139 $29 $-1 $140 reversed single #
loop $-1 $-1 $141 $55 #
plane-surface $-1 10.242256365544421 -9.7806174959627441 71.767241070463271 0 0.78801076186113728 0.61566146476048833 1 0 0 forward_v I I I I #
coedge $-1 $142 $143 $144 $145 reversed $56 $-1 #
face $-1 $-1 $146 $30 $-1 $147 forward single #
loop $-1 $148 $149 $58 #
cone-surface $-1 3.72665865884764 26.861875670975643 5.5278128076952591 0 -0.78801076186113728 -0.61566146476048833 1.5 0 0 1 I I -0.70710678118654757 0.70710678118654757 1.5 forward I I I I #
loop $-1 $-1 $150 $38 #
coedge $-1 $94 $94 $151 $152 reversed $59 $-1 #
face $-1 $-1 $153 $31 $-1 $154 forward single #
loop $-1 $155 $156 $61 #
cone-surface $-1 16.757854072241201 26.861875670975643 5.5278128076952591 0 -0.78801076186113728 -0.61566146476048833 1.5 0 0 1 I I -0.70710678118654757 0.70710678118654757 1.5 forward I I I I #
loop $-1 $-1 $157 $39 #
coedge $-1 $99 $99 $158 $159 reversed $62 $-1 #
face $-1 $160 $161 $24 $-1 $162 reversed single #
loop $-1 $-1 $163 $64 #
plane-surface $-1 0 0 -20.585113934808202 0 0 1 1 0 0 forward_v I I I I #
coedge $-1 $164 $165 $166 $167 forward $65 $-1 #
coedge $-1 $168 $67 $169 $170 reversed $41 $-1 #
coedge $-1 $67 $168 $171 $172 forward $41 $-1 #
coedge $-1 $173 $174 $67 $107 forward $101 $-1 #
edge $-1 $175 -42.281227875751291 $176 42.281227875751291 $67 $177 forward 7 unknown #
face $-1 $178 $179 $25 $-1 $180 reversed single #
loop $-1 $-1 $181 $68 #
plane-surface $-1 -87.395743142738979 -6.6809861864015119 0 0 1 0 0 0 1 forward_v I I I I #
coedge $-1 $182 $183 $113 $184 forward $69 $-1 #
coedge $-1 $185 $71 $186 $187 reversed $44 $-1 #
coedge $-1 $71 $185 $111 $184 reversed $44 $-1 #
coedge $-1 $188 $189 $71 $115 reversed $190 $-1 #
edge $-1 $191 -20.585113934808202 $192 20.585113934808202 $114 $193 forward 7 unknown #
face $-1 $194 $195 $26 $-1 $196 forward single #
loop $-1 $-1 $197 $72 #
plane-surface $-1 0 -42.281227875751291 0 0 1 0 0 0 1 forward_v I I I I #
coedge $-1 $198 $199 $200 $201 reversed $73 $-1 #
coedge $-1 $202 $75 $203 $204 reversed $47 $-1 #
coedge $-1 $75 $202 $198 $205 forward $47 $-1 #
coedge $-1 $200 $206 $75 $123 forward $195 $-1 #
edge $-1 $207 -42.013324354066469 $208 -21.825867570144112 $122 $209 forward 7 unknown #
loop $-1 $-1 $129 $76 #
plane-surface $-1 63.839191924210581 -42.281227875751298 10.071713407225147 0 -0.52991927123019833 0.84804809178421925 1 0 0 forward_v I I I I #
loop $-1 $-1 $210 $49 #
coedge $-1 $127 $127 $128 $211 reversed $77 $-1 #
coedge $-1 $128 $128 $127 $211 forward $79 $-1 #
coedge $-1 $129 $129 $80 $130 forward $124 $-1 #
edge $-1 $212 3.7778978124636169e-016 $212 6.2831853071796004 $129 $213 forward 7 unknown #
loop $-1 $-1 $136 $81 #
plane-surface $-1 63.839191924210581 -42.281227875751298 10.071713407225147 0 -0.52991927123019833 0.84804809178421925 1 0 0 forward_v I I I I #
loop $-1 $-1 $214 $52 #
coedge $-1 $134 $134 $135 $215 reversed $82 $-1 #
coedge $-1 $135 $135 $134 $215 forward $84 $-1 #
coedge $-1 $136 $136 $85 $137 forward $131 $-1 #
edge $-1 $216 3.7778978124636169e-016 $216 6.2831853071796004 $136 $217 forward 7 unknown #
face $-1 $218 $219 $29 $-1 $220 forward single #
loop $-1 $-1 $221 $86 #
plane-surface $-1 25.445317681170238 106.73925623396778 162.80254110221281 -1 0 0 0 0.78801076186113728 0.61566146476048833 forward_v I I I I #
coedge $-1 $222 $223 $224 $225 reversed $87 $-1 #
coedge $-1 $143 $89 $226 $227 reversed $56 $-1 #
coedge $-1 $89 $142 $222 $228 reversed $56 $-1 #
coedge $-1 $224 $229 $89 $145 forward $219 $-1 #
edge $-1 $230 11.088400241232598 $231 23.162386452911761 $144 $232 forward 7 unknown #
loop $-1 $-1 $151 $90 #
plane-surface $-1 10.242256365544421 -9.7806174959627441 71.767241070463271 0 0.78801076186113728 0.61566146476048833 1 0 0 forward_v I I I I #
loop $-1 $-1 $233 $58 #
coedge $-1 $149 $149 $150 $234 reversed $91 $-1 #
coedge $-1 $150 $150 $149 $234 forward $93 $-1 #
coedge $-1 $151 $151 $94 $152 forward $146 $-1 #
edge $-1 $235 2.9142320644689852e-016 $235 6.2831853071796004 $151 $236 forward 7 unknown #
loop $-1 $-1 $158 $95 #
plane-surface $-1 10.242256365544421 -9.7806174959627441 71.767241070463271 0 0.78801076186113728 0.61566146476048833 1 0 0 forward_v I I I I #
loop $-1 $-1 $237 $61 #
coedge $-1 $156 $156 $157 $238 reversed $96 $-1 #
coedge $-1 $157 $157 $156 $238 forward $98 $-1 #
coedge $-1 $158 $158 $99 $159 forward $153 $-1 #
edge $-1 $239 2.9142320644689852e-016 $239 6.2831853071796004 $158 $240 forward 7 unknown #
face $-1 $241 $242 $24 $-1 $243 reversed single #
loop $-1 $-1 $169 $100 #
plane-surface $-1 0 -42.281227875751291 0 0 1 0 0 0 1 forward_v I I I I #
coedge $-1 $174 $173 $244 $245 forward $101 $-1 #
coedge $-1 $246 $103 $247 $248 forward $65 $-1 #
coedge $-1 $103 $246 $249 $250 forward $65 $-1 #
coedge $-1 $251 $252 $103 $167 reversed $253 $-1 #
edge $-1 $254 -42.281227875751291 $255 42.281227875751291 $166 $256 forward 7 unknown #
coedge $-1 $105 $104 $246 $257 reversed $41 $-1 #
coedge $-1 $258 $249 $104 $170 forward $161 $-1 #
edge $-1 $259 -20.585113934808202 $175 20.585113934808202 $104 $260 forward 7 unknown #
coedge $-1 $247 $261 $105 $172 reversed $242 $-1 #
edge $-1 $262 -20.585113934808202 $176 20.585113934808202 $171 $263 forward 7 unknown #
coedge $-1 $163 $106 $261 $264 forward $101 $-1 #
coedge $-1 $106 $163 $258 $265 forward $101 $-1 #
vertex $-1 $107 $266 #
vertex $-1 $264 $267 #
straight-curve $-1 -73.93292031617176 0 -20.585113934808202 0 1 0 I I #
face $-1 $268 $190 $25 $-1 $269 reversed single #
loop $-1 $-1 $270 $108 #
plane-surface $-1 -100.8585659693062 -3.8959930962681995 0 1 0 0 0 0 -1 forward_v I I I I #
coedge $-1 $271 $272 $273 $274 forward $109 $-1 #
coedge $-1 $275 $111 $271 $276 forward $69 $-1 #
coedge $-1 $111 $275 $188 $277 forward $69 $-1 #
edge $-1 $191 1.111000006134887 $278 6.6809861864015119 $111 $279 forward 7 unknown #
coedge $-1 $113 $112 $280 $281 forward $44 $-1 #
coedge $-1 $282 $283 $112 $187 forward $284 $-1 #
edge $-1 $285 -6.6809861864015119 $192 -1.111000006134887 $186 $286 forward 7 unknown #
coedge $-1 $287 $114 $183 $277 reversed $190 $-1 #
coedge $-1 $114 $287 $282 $288 reversed $190 $-1 #
loop $-1 $-1 $114 $178 #
vertex $-1 $184 $289 #
vertex $-1 $288 $290 #
straight-curve $-1 -73.93292031617176 -1.111000006134887 0 0 0 1 I I #
face $-1 $-1 $291 $26 $-1 $292 reversed single #
loop $-1 $-1 $200 $116 #
plane-surface $-1 0 0 20.585113934808202 0 0 1 1 0 0 forward_v I I I I #
coedge $-1 $293 $294 $199 $295 forward $117 $-1 #
coedge $-1 $199 $119 $121 $205 reversed $73 $-1 #
coedge $-1 $119 $198 $197 $295 reversed $73 $-1 #
coedge $-1 $296 $122 $119 $201 forward $195 $-1 #
edge $-1 $208 -34.862822889022212 $297 -18.037865315990423 $200 $298 forward 7 unknown #
coedge $-1 $121 $120 $293 $299 reversed $47 $-1 #
coedge $-1 $300 $301 $120 $204 forward $291 $-1 #
edge $-1 $302 -15.259659794764223 $207 4.5799669151238245 $203 $303 forward 7 unknown #
edge $-1 $304 7.9083955554844352e-015 $208 19.839626709888055 $198 $305 forward 7 unknown #
coedge $-1 $122 $296 $300 $306 forward $195 $-1 #
vertex $-1 $204 $307 #
vertex $-1 $123 $308 #
straight-curve $-1 31.919595962105291 -25.456270302719506 20.585113934808202 -1 0 0 I I #
coedge $-1 $210 $210 $-1 $309 reversed $126 $-1 #
edge $-1 $310 0 $310 6.2831853071796004 $127 $311 forward 7 unknown #
vertex $-1 $130 $312 #
ellipse-curve $-1 59.513308327655778 -33.868749089235394 15.328413671016682 0 -0.52991927123019833 0.84804809178421925 2 0 0 1 I I #
coedge $-1 $214 $214 $-1 $313 reversed $133 $-1 #
edge $-1 $314 0 $314 6.2831853071796004 $134 $315 forward 7 unknown #
vertex $-1 $137 $316 #
ellipse-curve $-1 68.165075520765356 -33.868749089235394 15.328413671016682 0 -0.52991927123019833 0.84804809178421925 2 0 0 1 I I #
face $-1 $-1 $317 $29 $-1 $318 reversed single #
loop $-1 $-1 $144 $138 #
plane-surface $-1 0 0 20.585113934808202 0 0 1 1 0 0 forward_v I I I I #
coedge $-1 $319 $320 $321 $322 reversed $139 $-1 #
coedge $-1 $323 $141 $143 $228 forward $87 $-1 #
coedge $-1 $141 $323 $319 $324 forward $87 $-1 #
coedge $-1 $321 $144 $141 $225 forward $219 $-1 #
edge $-1 $231 -10.081933132853607 $325 20.324189498398027 $224 $326 forward 7 unknown #
coedge $-1 $327 $328 $142 $227 forward $317 $-1 #
edge $-1 $329 -76.270154662233367 $230 -60.816156616298201 $226 $330 forward 7 unknown #
edge $-1 $231 64.951050940944327 $329 84.56245575150254 $143 $331 forward 7 unknown #
coedge $-1 $144 $321 $327 $332 forward $219 $-1 #
vertex $-1 $227 $333 #
vertex $-1 $145 $334 #
straight-curve $-1 -4.9608049500813962 53.36962811698389 20.585113934808206 0 -1 0 I I #
coedge $-1 $233 $233 $-1 $335 reversed $148 $-1 #
edge $-1 $336 0 $336 6.2831853071796004 $149 $337 forward 7 unknown #
vertex $-1 $152 $338 #
ellipse-curve $-1 3.72665865884764 36.244234769911714 12.858114911840612 0 0.78801076186113728 0.61566146476048833 3 0 0 1 I I #
coedge $-1 $237 $237 $-1 $339 reversed $155 $-1 #
edge $-1 $340 0 $340 6.2831853071796004 $156 $341 forward 7 unknown #
vertex $-1 $159 $342 #
ellipse-curve $-1 16.757854072241201 36.244234769911714 12.858114911840612 0 0.78801076186113728 0.61566146476048833 3 0 0 1 I I #
face $-1 $-1 $253 $24 $-1 $343 reversed single #
loop $-1 $-1 $344 $160 #
plane-surface $-1 0 42.281227875751291 0 0 -1 0 0 0 -1 forward_v I I I I #
coedge $-1 $252 $251 $163 $245 reversed $253 $-1 #
edge $-1 $345 -42.281227875751291 $346 42.281227875751291 $244 $347 forward 7 unknown #
coedge $-1 $165 $164 $168 $257 forward $65 $-1 #
coedge $-1 $344 $171 $164 $248 reversed $242 $-1 #
edge $-1 $255 -73.93292031617176 $262 73.93292031617176 $247 $348 forward 7 unknown #
coedge $-1 $169 $349 $165 $250 reversed $161 $-1 #
edge $-1 $259 -73.93292031617176 $254 73.93292031617176 $249 $350 forward 7 unknown #
coedge $-1 $244 $166 $349 $351 forward $253 $-1 #
coedge $-1 $166 $244 $344 $352 reversed $253 $-1 #
loop $-1 $-1 $251 $241 #
vertex $-1 $167 $353 #
vertex $-1 $167 $354 #
straight-curve $-1 73.93292031617176 0 20.585113934808202 0 1 0 I I #
edge $-1 $262 -42.281227875751291 $259 42.281227875751291 $168 $355 forward 7 unknown #
coedge $-1 $349 $169 $174 $265 reversed $161 $-1 #
vertex $-1 $257 $356 #
straight-curve $-1 -73.93292031617176 -42.281227875751291 0 0 0 -1 I I #
coedge $-1 $171 $344 $173 $264 reversed $242 $-1 #
vertex $-1 $248 $357 #
straight-curve $-1 -73.93292031617176 42.281227875751291 0 0 0 -1 I I #
edge $-1 $176 -73.93292031617176 $345 73.93292031617176 $261 $358 forward 7 unknown #
edge $-1 $346 -73.93292031617176 $175 73.93292031617176 $258 $359 forward 7 unknown #
point $-1 -73.93292031617176 -42.281227875751291 -20.585113934808202 #
point $-1 -73.93292031617176 42.281227875751291 -20.585113934808202 #
face $-1 $-1 $284 $25 $-1 $360 forward single #
plane-surface $-1 -87.395743142738979 -1.111000006134887 0 0 -1 0 0 0 -1 forward_v I I I I #
coedge $-1 $361 $362 $287 $363 forward $179 $-1 #
coedge $-1 $280 $181 $182 $276 reversed $109 $-1 #
coedge $-1 $181 $280 $283 $364 reversed $109 $-1 #
coedge $-1 $362 $361 $181 $274 reversed $179 $-1 #
edge $-1 $365 -20.585113934808202 $366 20.585113934808202 $273 $367 forward 7 unknown #
coedge $-1 $183 $182 $361 $368 forward $69 $-1 #
edge $-1 $278 -13.462822826567219 $366 13.462822826567219 $271 $369 forward 7 unknown #
edge $-1 $370 -13.462822826567219 $191 13.462822826567219 $188 $371 forward 7 unknown #
vertex $-1 $276 $372 #
straight-curve $-1 -73.93292031617176 0 -20.585113934808202 0 -1 0 I I #
coedge $-1 $272 $271 $185 $281 reversed $109 $-1 #
edge $-1 $285 -20.585113934808202 $278 20.585113934808202 $280 $373 forward 7 unknown #
coedge $-1 $374 $186 $189 $288 forward $284 $-1 #
coedge $-1 $186 $374 $272 $364 forward $284 $-1 #
loop $-1 $-1 $186 $268 #
vertex $-1 $187 $375 #
straight-curve $-1 -73.93292031617176 0 20.585113934808202 0 1 0 I I #
coedge $-1 $189 $188 $270 $363 reversed $190 $-1 #
edge $-1 $192 -13.462822826567219 $376 13.462822826567219 $189 $377 forward 7 unknown #
point $-1 -73.93292031617176 -1.111000006134887 -20.585113934808202 #
point $-1 -73.93292031617176 -1.111000006134887 20.585113934808202 #
loop $-1 $-1 $203 $194 #
plane-surface $-1 73.93292031617176 0 0 -1 0 0 0 0 1 forward_v I I I I #
coedge $-1 $378 $197 $202 $299 forward $117 $-1 #
coedge $-1 $197 $378 $296 $379 reversed $117 $-1 #
edge $-1 $297 47.149414762968561 $304 57.66281529055162 $197 $380 forward 7 unknown #
coedge $-1 $206 $200 $294 $379 forward $195 $-1 #
vertex $-1 $379 $381 #
straight-curve $-1 53.745463532249403 -60.319093191741715 20.585113934808206 0 -1 0 I I #
edge $-1 $304 21.825867570144112 $302 42.013324354066469 $293 $382 forward 7 unknown #
coedge $-1 $301 $203 $206 $306 reversed $291 $-1 #
coedge $-1 $203 $300 $378 $383 forward $291 $-1 #
vertex $-1 $299 $384 #
straight-curve $-1 73.93292031617176 -29.340302505525123 18.158101204887366 0 0.84804809178421925 0.52991927123019833 I I #
vertex $-1 $299 $385 #
straight-curve $-1 53.745463532249403 -42.281227875751298 10.071713407225147 0 0.84804809178421925 0.52991927123019833 I I #
edge $-1 $386 -42.281227875751291 $207 -25.456270302719506 $300 $387 forward 7 unknown #
point $-1 73.93292031617176 -25.456270302719506 20.585113934808202 #
point $-1 53.745463532249403 -25.456270302719506 20.585113934808202 #
edge $-1 $388 1 $388 0 $210 $-1 forward 7 unknown #
vertex $-1 $211 $389 #
ellipse-curve $-1 59.513308327655778 -31.810429886178881 12.034414439053263 0 -0.52991927123019833 0.84804809178421925 2 0 0 1 I I #
point $-1 61.513308327655778 -33.868749089235379 15.32841367101666 #
edge $-1 $390 1 $390 0 $214 $-1 forward 7 unknown #
vertex $-1 $215 $391 #
ellipse-curve $-1 68.165075520765356 -31.810429886178881 12.034414439053263 0 -0.52991927123019833 0.84804809178421925 2 0 0 1 I I #
point $-1 70.165075520765356 -33.868749089235379 15.32841367101666 #
loop $-1 $-1 $226 $218 #
plane-surface $-1 0 42.281227875751291 0 0 -1 0 0 0 -1 forward_v I I I I #
coedge $-1 $320 $221 $223 $324 reversed $139 $-1 #
coedge $-1 $221 $319 $392 $393 reversed $139 $-1 #
coedge $-1 $229 $224 $221 $322 forward $219 $-1 #
edge $-1 $325 -23.162386452911761 $394 -11.088400241232598 $321 $395 forward 7 unknown #
coedge $-1 $223 $222 $328 $396 reversed $87 $-1 #
edge $-1 $397 -84.56245575150254 $325 -64.951050940944327 $319 $398 forward 7 unknown #
vertex $-1 $225 $399 #
straight-curve $-1 5.1211281827722104 30.207241664072129 20.585113934808199 1 0 0 I I #
coedge $-1 $392 $226 $229 $332 reversed $317 $-1 #
coedge $-1 $226 $392 $323 $396 forward $317 $-1 #
vertex $-1 $227 $400 #
straight-curve $-1 -4.9608049500813962 42.281227875751291 81.401270551106407 0 0 1 I I #
straight-curve $-1 -4.9608049500813962 -9.7806174959627441 71.767241070463271 0 0.61566146476048833 -0.78801076186113728 I I #
edge $-1 $394 -25.445317681170238 $230 4.9608049500813962 $327 $401 forward 7 unknown #
point $-1 -4.9608049500813962 42.281227875751291 20.585113934808202 #
point $-1 -4.9608049500813962 30.207241664072129 20.585113934808206 #
edge $-1 $402 1 $402 0 $233 $-1 forward 7 unknown #
vertex $-1 $234 $403 #
ellipse-curve $-1 3.72665865884764 28.043891813767349 6.4513050048359917 0 0.78801076186113728 0.61566146476048833 3 0 0 1 I I #
point $-1 6.72665865884764 36.244234769911692 12.858114911840595 #
edge $-1 $404 1 $404 0 $237 $-1 forward 7 unknown #
vertex $-1 $238 $405 #
ellipse-curve $-1 16.757854072241201 28.043891813767349 6.4513050048359917 0 0.78801076186113728 0.61566146476048833 3 0 0 1 I I #
point $-1 19.757854072241201 36.244234769911692 12.858114911840595 #
plane-surface $-1 73.93292031617176 0 0 -1 0 0 0 0 1 forward_v I I I I #
coedge $-1 $261 $247 $252 $352 forward $242 $-1 #
vertex $-1 $245 $406 #
vertex $-1 $351 $407 #
straight-curve $-1 73.93292031617176 0 -20.585113934808202 0 -1 0 I I #
straight-curve $-1 0 42.281227875751291 20.585113934808202 -1 0 0 I I #
coedge $-1 $249 $258 $251 $351 reversed $161 $-1 #
straight-curve $-1 0 -42.281227875751291 20.585113934808202 1 0 0 I I #
edge $-1 $254 -20.585113934808202 $346 20.585113934808202 $251 $408 forward 7 unknown #
edge $-1 $255 -20.585113934808202 $345 20.585113934808202 $252 $409 forward 7 unknown #
point $-1 73.93292031617176 -42.281227875751291 20.585113934808202 #
point $-1 73.93292031617176 42.281227875751291 20.585113934808202 #
straight-curve $-1 -73.93292031617176 0 20.585113934808202 0 -1 0 I I #
point $-1 -73.93292031617176 -42.281227875751291 20.585113934808202 #
point $-1 -73.93292031617176 42.281227875751291 20.585113934808202 #
straight-curve $-1 0 42.281227875751291 -20.585113934808202 1 0 0 I I #
straight-curve $-1 0 -42.281227875751291 -20.585113934808202 -1 0 0 I I #
plane-surface $-1 0 0 20.585113934808202 0 0 1 1 0 0 forward_v I I I I #
coedge $-1 $273 $270 $275 $368 reversed $179 $-1 #
coedge $-1 $270 $273 $374 $410 reversed $179 $-1 #
edge $-1 $376 -20.585113934808202 $370 20.585113934808202 $287 $411 forward 7 unknown #
edge $-1 $365 -13.462822826567219 $285 13.462822826567219 $272 $412 forward 7 unknown #
vertex $-1 $410 $413 #
vertex $-1 $368 $414 #
straight-curve $-1 -100.8585659693062 -6.6809861864015119 0 0 0 -1 I I #
edge $-1 $366 -2.7849930901333124 $370 2.7849930901333124 $361 $415 forward 7 unknown #
straight-curve $-1 -87.395743142738979 -6.6809861864015119 -20.585113934808202 -1 0 0 I I #
vertex $-1 $277 $416 #
straight-curve $-1 -87.395743142738979 -1.111000006134887 -20.585113934808202 1 0 0 I I #
point $-1 -73.93292031617176 -6.6809861864015119 -20.585113934808202 #
straight-curve $-1 -73.93292031617176 -6.6809861864015119 0 0 0 -1 I I #
coedge $-1 $283 $282 $362 $410 forward $284 $-1 #
point $-1 -73.93292031617176 -6.6809861864015119 20.585113934808202 #
vertex $-1 $288 $417 #
straight-curve $-1 -87.395743142738979 -1.111000006134887 20.585113934808202 -1 0 0 I I #
coedge $-1 $294 $293 $301 $383 reversed $117 $-1 #
edge $-1 $297 53.745463532249403 $386 73.93292031617176 $294 $418 forward 7 unknown #
straight-curve $-1 53.745463532249403 -42.281227875751291 67.734528697776767 0 0 -1 I I #
point $-1 53.745463532249403 -42.281227875751291 20.585113934808202 #
straight-curve $-1 31.919595962105291 -42.281227875751291 10.071713407225154 1 0 0 I I #
edge $-1 $386 -20.585113934808202 $302 -10.07171340722515 $301 $419 forward 7 unknown #
point $-1 73.93292031617176 -42.281227875751291 10.07171340722515 #
point $-1 53.745463532249403 -42.281227875751291 10.07171340722515 #
vertex $-1 $306 $420 #
straight-curve $-1 73.93292031617176 0 20.585113934808202 0 1 0 I I #
vertex $-1 $309 $421 #
point $-1 61.513308327655778 -31.810429886178881 12.034414439053263 #
vertex $-1 $313 $422 #
point $-1 70.165075520765356 -31.810429886178881 12.034414439053263 #
coedge $-1 $328 $327 $320 $393 forward $317 $-1 #
edge $-1 $394 60.816156616298201 $397 76.270154662233367 $392 $423 forward 7 unknown #
vertex $-1 $332 $424 #
straight-curve $-1 25.445317681170238 53.36962811698389 20.585113934808206 0 1 0 I I #
edge $-1 $397 -20.324189498398027 $329 10.081933132853607 $328 $425 forward 7 unknown #
vertex $-1 $396 $426 #
straight-curve $-1 25.445317681170238 -9.7806174959627441 71.767241070463271 0 -0.61566146476048833 0.78801076186113728 I I #
point $-1 25.445317681170238 30.207241664072129 20.585113934808206 #
point $-1 -4.9608049500813962 42.281227875751291 5.1311158888730404 #
straight-curve $-1 0 42.281227875751291 20.585113934808202 -1 0 0 I I #
vertex $-1 $335 $427 #
point $-1 6.72665865884764 28.043891813767349 6.4513050048359917 #
vertex $-1 $339 $428 #
point $-1 19.757854072241201 28.043891813767349 6.4513050048359917 #
point $-1 73.93292031617176 42.281227875751291 -20.585113934808202 #
point $-1 73.93292031617176 -42.281227875751291 -20.585113934808202 #
straight-curve $-1 73.93292031617176 -42.281227875751291 0 0 0 -1 I I #
straight-curve $-1 73.93292031617176 42.281227875751291 0 0 0 -1 I I #
edge $-1 $376 -2.7849930901333124 $365 2.7849930901333124 $362 $429 forward 7 unknown #
straight-curve $-1 -100.8585659693062 -1.111000006134887 0 0 0 -1 I I #
straight-curve $-1 -87.395743142738979 -6.6809861864015119 20.585113934808202 1 0 0 I I #
point $-1 -100.8585659693062 -6.6809861864015119 20.585113934808202 #
point $-1 -100.8585659693062 -6.6809861864015119 -20.585113934808202 #
straight-curve $-1 -100.8585659693062 -3.8959930962681995 -20.585113934808202 0 1 0 I I #
point $-1 -100.8585659693062 -1.111000006134887 -20.585113934808202 #
point $-1 -100.8585659693062 -1.111000006134887 20.585113934808202 #
straight-curve $-1 0 -42.281227875751291 20.585113934808202 1 0 0 I I #
straight-curve $-1 73.93292031617176 -42.281227875751291 0 0 0 -1 I I #
point $-1 73.93292031617176 -42.281227875751291 20.585113934808202 #
point $-1 59.513308327655778 -30.750591343718483 10.338318255484824 #
point $-1 68.165075520765356 -30.750591343718483 10.338318255484824 #
straight-curve $-1 25.445317681170238 42.281227875751291 81.401270551106407 0 0 -1 I I #
point $-1 25.445317681170238 42.281227875751291 20.585113934808202 #
straight-curve $-1 5.1211281827722104 42.281227875751291 5.1311158888730439 -1 0 0 I I #
point $-1 25.445317681170238 42.281227875751291 5.1311158888730404 #
point $-1 3.72665865884764 25.679859528183936 4.6043206105545265 #
point $-1 16.757854072241201 25.679859528183936 4.6043206105545265 #
straight-curve $-1 -100.8585659693062 -3.8959930962681995 20.585113934808202 0 -1 0 I I #
End-of-ACIS-data 