500 0 7 0           
7 Unknown 11 ACIS 5.0 NT 24 Thu Mar 25 15:41:23 1999 
-1 9.9999999999999995e-007 1e-010 
body $-1 $7 $-1 $8 #
body $-1 $9 $-1 $10 #
body $-1 $11 $-1 $12 #
body $-1 $13 $-1 $14 #
body $-1 $15 $-1 $16 #
body $-1 $17 $-1 $18 #
body $-1 $19 $-1 $20 #
lump $-1 $-1 $21 $0 #
transform $-1 1 0 0 0 1 0 0 0 1 75.991088595233009 45.318676121010995 13.173908315923152 1 rotate no_reflect no_shear #
lump $-1 $-1 $22 $1 #
transform $-1 1 0 0 0 1 0 0 0 1 75.991088595233009 45.318676121010995 13.173908315923152 1 rotate no_reflect no_shear #
lump $-1 $-1 $23 $2 #
transform $-1 1 0 0 0 1 0 0 0 1 75.991088595233009 45.318676121010995 13.173908315923152 1 rotate no_reflect no_shear #
lump $-1 $-1 $24 $3 #
transform $-1 1 0 0 0 1 0 0 0 1 75.991088595233009 45.318676121010995 13.173908315923152 1 rotate no_reflect no_shear #
lump $-1 $-1 $25 $4 #
transform $-1 1 0 0 0 1 0 0 0 1 75.991088595233009 45.318676121010995 13.173908315923152 1 rotate no_reflect no_shear #
lump $-1 $-1 $26 $5 #
transform $-1 1 0 0 0 1 0 0 0 1 75.991088595233009 45.318676121010995 13.173908315923152 1 rotate no_reflect no_shear #
lump $-1 $-1 $27 $6 #
transform $-1 1 0 0 0 1 0 0 0 1 75.991088595233009 45.318676121010995 13.173908315923152 1 rotate no_reflect no_shear #
shell $-1 $-1 $-1 $28 $-1 $7 #
shell $-1 $-1 $-1 $29 $-1 $9 #
shell $-1 $-1 $-1 $30 $-1 $11 #
shell $-1 $-1 $-1 $31 $-1 $13 #
shell $-1 $-1 $-1 $32 $-1 $15 #
shell $-1 $-1 $-1 $33 $-1 $17 #
shell $-1 $-1 $-1 $34 $-1 $19 #
face $-1 $35 $36 $21 $-1 $37 forward single #
face $-1 $38 $39 $22 $-1 $40 reversed single #
face $-1 $41 $42 $23 $-1 $43 reversed single #
face $-1 $44 $45 $24 $-1 $46 forward single #
face $-1 $47 $48 $25 $-1 $49 reversed single #
face $-1 $50 $51 $26 $-1 $52 forward single #
face $-1 $53 $54 $27 $-1 $55 forward single #
face $-1 $56 $57 $21 $-1 $58 reversed single #
loop $-1 $-1 $59 $28 #
plane-surface $-1 0 0 13.173908315923152 0 0 1 1 0 0 forward_v I I I I #
face $-1 $60 $61 $22 $-1 $62 reversed single #
loop $-1 $-1 $63 $29 #
plane-surface $-1 0 -37.883786552587232 6.1913790857231437 0 0 1 1 0 0 forward_v I I I I #
face $-1 $64 $65 $23 $-1 $66 reversed single #
loop $-1 $-1 $67 $30 #
plane-surface $-1 -207.6115161402318 -21.254110927781113 80.089277295524639 0 1 0 -0.86602541151947299 0 0.49999998660252726 forward_v I I I I #
face $-1 $68 $69 $24 $-1 $70 forward single #
loop $-1 $71 $72 $31 #
cone-surface $-1 -71.685514609104075 -15.94769852687747 7.6628448035928187 0.86602541151947299 0 -0.49999998660252726 0.99999997320505452 0 1.732050823038946 1 I I 0 1 2 forward I I I I #
face $-1 $73 $74 $25 $-1 $75 reversed single #
loop $-1 $-1 $76 $32 #
plane-surface $-1 64.742248754900118 23.83782860934096 223.27207653463461 0 -1 0 -0.66913061440640931 0 -0.74314481823134659 forward_v I I I I #
face $-1 $77 $78 $26 $-1 $79 forward single #
loop $-1 $80 $81 $33 #
cone-surface $-1 72.573109342316343 11.80009022572235 9.9081072583522865 -0.66913061440640931 0 -0.74314481823134659 0.74314481823134659 0 -0.66913061440640931 1 I I 0 1 1 forward I I I I #
face $-1 $82 $83 $27 $-1 $84 forward single #
loop $-1 $85 $86 $34 #
cone-surface $-1 72.573109342316343 19.022733255893513 9.9081072583522865 -0.66913061440640931 0 -0.74314481823134659 0.74314481823134659 0 -0.66913061440640931 1 I I 0 1 1 forward I I I I #
face $-1 $87 $88 $21 $-1 $89 reversed single #
loop $-1 $-1 $90 $35 #
plane-surface $-1 0 0 -13.173908315923152 0 0 1 1 0 0 forward_v I I I I #
coedge $-1 $91 $92 $93 $94 forward $36 $-1 #
face $-1 $95 $96 $22 $-1 $97 reversed single #
loop $-1 $-1 $98 $38 #
plane-surface $-1 0 -30.448896984163465 9.6826437008231476 0 -1 0 0 0 -1 forward_v I I I I #
coedge $-1 $99 $100 $101 $102 reversed $39 $-1 #
face $-1 $103 $104 $23 $-1 $105 reversed single #
loop $-1 $-1 $106 $41 #
plane-surface $-1 -75.991088595233009 -15.94769852687747 4.0981907364687089 -0.86602541151947299 0 0.49999998660252726 0.49999998660252726 0 0.86602541151947299 forward_v I I I I #
coedge $-1 $107 $108 $109 $110 reversed $42 $-1 #
face $-1 $-1 $111 $24 $-1 $112 forward single #
loop $-1 $113 $114 $44 #
cone-surface $-1 -69.133849111647862 -15.94769852687747 6.189640094387185 0.86602541151947299 0 -0.49999998660252726 0.49999998660252726 0 0.86602541151947299 1 I I -0.70710678118654746 0.70710678118654746 1 forward I I I I #
loop $-1 $-1 $115 $31 #
coedge $-1 $72 $72 $116 $117 reversed $45 $-1 #
face $-1 $118 $119 $25 $-1 $120 reversed single #
loop $-1 $-1 $121 $47 #
plane-surface $-1 -36.953678847380175 15.411411740807935 110.32730909202142 0.66913061440640931 0 0.74314481823134659 0.74314481823134659 0 -0.66913061440640931 forward_v I I I I #
coedge $-1 $122 $123 $124 $125 reversed $48 $-1 #
face $-1 $-1 $126 $26 $-1 $127 forward single #
loop $-1 $128 $129 $50 #
cone-surface $-1 71.343058298315668 11.80009022572235 8.5419972047567452 -0.66913061440640931 0 -0.74314481823134659 0.3715724091156733 0 -0.33456530720320465 1 I I -0.70710678118654746 0.70710678118654746 0.5 forward I I I I #
loop $-1 $-1 $130 $33 #
coedge $-1 $81 $81 $131 $132 reversed $51 $-1 #
face $-1 $-1 $133 $27 $-1 $134 forward single #
loop $-1 $135 $136 $53 #
cone-surface $-1 71.343058298315668 19.022733255893513 8.5419972047567452 -0.66913061440640931 0 -0.74314481823134659 0.3715724091156733 0 -0.33456530720320465 1 I I -0.70710678118654746 0.70710678118654746 0.5 forward I I I I #
loop $-1 $-1 $137 $34 #
coedge $-1 $86 $86 $138 $139 reversed $54 $-1 #
face $-1 $140 $141 $21 $-1 $142 reversed single #
loop $-1 $-1 $143 $56 #
plane-surface $-1 0 -45.318676121010995 0 0 1 0 0 0 1 forward_v I I I I #
coedge $-1 $144 $145 $146 $147 forward $57 $-1 #
coedge $-1 $148 $59 $149 $150 forward $36 $-1 #
coedge $-1 $59 $148 $151 $152 forward $36 $-1 #
coedge $-1 $153 $154 $59 $94 reversed $155 $-1 #
edge $-1 $156 -45.318676121010995 $157 45.318676121010995 $93 $158 forward 7 unknown #
face $-1 $159 $160 $22 $-1 $161 reversed single #
loop $-1 $-1 $162 $60 #
plane-surface $-1 -75.991088595233009 0 0 1 0 0 0 0 -1 forward_v I I I I #
coedge $-1 $163 $164 $165 $166 reversed $61 $-1 #
coedge $-1 $167 $63 $168 $169 reversed $39 $-1 #
coedge $-1 $63 $167 $163 $170 forward $39 $-1 #
coedge $-1 $165 $171 $63 $102 forward $172 $-1 #
edge $-1 $173 -26.376782844717379 $174 -11.507003707869849 $101 $175 forward 7 unknown #
face $-1 $176 $177 $23 $-1 $178 forward single #
loop $-1 $-1 $179 $64 #
plane-surface $-1 -207.6115161402318 -10.641286125973828 80.089277295524639 0 -1 0 0.86602541151947299 0 -0.49999998660252726 forward_v I I I I #
coedge $-1 $180 $181 $182 $183 reversed $65 $-1 #
coedge $-1 $108 $67 $184 $185 reversed $42 $-1 #
coedge $-1 $67 $107 $180 $186 reversed $42 $-1 #
coedge $-1 $182 $187 $67 $110 forward $177 $-1 #
edge $-1 $188 27.814669474882891 $189 33.054537275267293 $109 $190 forward 7 unknown #
loop $-1 $-1 $116 $68 #
plane-surface $-1 -75.991088595233009 -15.94769852687747 4.0981907364687089 -0.86602541151947299 0 0.49999998660252726 0.49999998660252726 0 0.86602541151947299 forward_v I I I I #
loop $-1 $-1 $191 $44 #
coedge $-1 $114 $114 $115 $192 reversed $69 $-1 #
coedge $-1 $115 $115 $114 $192 forward $71 $-1 #
coedge $-1 $116 $116 $72 $117 forward $111 $-1 #
edge $-1 $193 0 $193 6.2831853071796004 $116 $194 forward 7 unknown #
face $-1 $195 $196 $25 $-1 $197 reversed single #
loop $-1 $-1 $198 $73 #
plane-surface $-1 64.742248754900118 6.9849948722749104 223.27207653463461 0 1 0 0.66913061440640931 0 0.74314481823134659 forward_v I I I I #
coedge $-1 $199 $200 $201 $202 reversed $74 $-1 #
coedge $-1 $123 $76 $203 $204 reversed $48 $-1 #
coedge $-1 $76 $122 $199 $205 reversed $48 $-1 #
coedge $-1 $201 $206 $76 $125 forward $207 $-1 #
edge $-1 $208 -43.61996421778295 $209 -38.574977185544526 $124 $210 forward 7 unknown #
loop $-1 $-1 $131 $77 #
plane-surface $-1 -36.953678847380175 15.411411740807935 110.32730909202142 0.66913061440640931 0 0.74314481823134659 0.74314481823134659 0 -0.66913061440640931 forward_v I I I I #
loop $-1 $-1 $211 $50 #
coedge $-1 $129 $129 $130 $212 reversed $78 $-1 #
coedge $-1 $130 $130 $129 $212 forward $80 $-1 #
coedge $-1 $131 $131 $81 $132 forward $126 $-1 #
edge $-1 $213 0 $213 6.2831853071796004 $131 $214 forward 7 unknown #
loop $-1 $-1 $138 $82 #
plane-surface $-1 -36.953678847380175 15.411411740807935 110.32730909202142 0.66913061440640931 0 0.74314481823134659 0.74314481823134659 0 -0.66913061440640931 forward_v I I I I #
loop $-1 $-1 $215 $53 #
coedge $-1 $136 $136 $137 $216 reversed $83 $-1 #
coedge $-1 $137 $137 $136 $216 forward $85 $-1 #
coedge $-1 $138 $138 $86 $139 forward $133 $-1 #
edge $-1 $217 0 $217 6.2831853071796004 $138 $218 forward 7 unknown #
face $-1 $219 $220 $21 $-1 $221 reversed single #
loop $-1 $-1 $222 $87 #
plane-surface $-1 -75.991088595233009 0 0 1 0 0 0 0 -1 forward_v I I I I #
coedge $-1 $223 $151 $224 $225 forward $88 $-1 #
coedge $-1 $226 $90 $223 $227 forward $57 $-1 #
coedge $-1 $90 $226 $228 $229 forward $57 $-1 #
coedge $-1 $154 $153 $90 $147 reversed $155 $-1 #
edge $-1 $230 -45.318676121010995 $231 45.318676121010995 $146 $232 forward 7 unknown #
coedge $-1 $92 $91 $233 $234 forward $36 $-1 #
coedge $-1 $235 $236 $91 $150 reversed $220 $-1 #
edge $-1 $157 -75.991088595233009 $237 75.991088595233009 $149 $238 forward 7 unknown #
coedge $-1 $143 $239 $92 $152 reversed $88 $-1 #
edge $-1 $240 -75.991088595233009 $156 75.991088595233009 $151 $241 forward 7 unknown #
coedge $-1 $146 $93 $239 $242 forward $155 $-1 #
coedge $-1 $93 $146 $235 $243 reversed $155 $-1 #
loop $-1 $-1 $153 $219 #
vertex $-1 $94 $244 #
vertex $-1 $94 $245 #
straight-curve $-1 75.991088595233009 0 13.173908315923152 0 1 0 I I #
face $-1 $246 $247 $22 $-1 $248 forward single #
loop $-1 $-1 $168 $95 #
plane-surface $-1 0 -45.318676121010995 0 0 1 0 0 0 1 forward_v I I I I #
coedge $-1 $249 $250 $251 $252 forward $96 $-1 #
coedge $-1 $251 $98 $100 $170 reversed $61 $-1 #
coedge $-1 $98 $251 $253 $254 reversed $61 $-1 #
coedge $-1 $255 $101 $98 $166 forward $172 $-1 #
edge $-1 $174 1.3500572353115698 $256 8.3325864655115787 $165 $257 forward 7 unknown #
coedge $-1 $100 $99 $249 $258 reversed $39 $-1 #
coedge $-1 $259 $260 $99 $169 forward $160 $-1 #
edge $-1 $261 -75.991088595233009 $173 75.991088595233009 $168 $262 forward 7 unknown #
edge $-1 $263 -75.991088595233009 $174 75.991088595233009 $163 $264 forward 7 unknown #
coedge $-1 $101 $255 $259 $265 forward $172 $-1 #
loop $-1 $-1 $165 $246 #
vertex $-1 $169 $266 #
vertex $-1 $102 $267 #
straight-curve $-1 75.991088595233009 -18.941893276293616 6.1913790857231437 0 1 0 I I #
face $-1 $-1 $268 $23 $-1 $269 reversed single #
loop $-1 $-1 $109 $103 #
plane-surface $-1 0 0 13.173908315923152 0 0 1 1 0 0 forward_v I I I I #
coedge $-1 $270 $271 $272 $273 reversed $104 $-1 #
coedge $-1 $274 $106 $108 $186 forward $65 $-1 #
coedge $-1 $106 $274 $270 $275 forward $65 $-1 #
coedge $-1 $272 $109 $106 $183 forward $177 $-1 #
edge $-1 $189 -13.280261664342378 $276 -2.6674368625350926 $182 $277 forward 7 unknown #
coedge $-1 $278 $279 $107 $185 forward $268 $-1 #
edge $-1 $280 -35.94644791129361 $188 -26.870730331839169 $184 $281 forward 7 unknown #
edge $-1 $189 -10.479735881572765 $280 0 $108 $282 forward 7 unknown #
coedge $-1 $109 $272 $278 $283 forward $177 $-1 #
vertex $-1 $185 $284 #
vertex $-1 $110 $285 #
straight-curve $-1 -103.8057580701159 -21.254110927781113 13.17390831592315 1 0 0 I I #
coedge $-1 $191 $191 $-1 $286 reversed $113 $-1 #
edge $-1 $287 0 $287 6.2831853071796004 $114 $288 forward 7 unknown #
vertex $-1 $117 $289 #
ellipse-curve $-1 -73.371154695040815 -15.94769852687747 8.636049526195924 -0.86602541151947299 0 0.49999998660252726 0.99999997320505452 0 1.732050823038946 1 I I #
face $-1 $-1 $207 $25 $-1 $290 forward single #
loop $-1 $-1 $291 $118 #
plane-surface $-1 75.991088595233009 0 0 -1 0 0 0 0 1 forward_v I I I I #
coedge $-1 $292 $293 $294 $295 reversed $119 $-1 #
coedge $-1 $296 $121 $123 $205 forward $74 $-1 #
coedge $-1 $121 $296 $292 $297 forward $74 $-1 #
coedge $-1 $294 $124 $121 $202 forward $207 $-1 #
edge $-1 $209 -16.132122738936992 $298 0.72071099812905715 $201 $299 forward 7 unknown #
coedge $-1 $300 $301 $122 $204 forward $196 $-1 #
edge $-1 $302 -103.00465677757617 $208 -98.462129951394147 $203 $303 forward 7 unknown #
edge $-1 $209 145.19347745325291 $302 151.98217719046602 $123 $304 forward 7 unknown #
coedge $-1 $124 $294 $300 $305 forward $207 $-1 #
loop $-1 $-1 $294 $195 #
vertex $-1 $204 $306 #
vertex $-1 $125 $307 #
straight-curve $-1 32.371124377450059 23.83782860934096 13.173908315923157 -1 0 0 I I #
coedge $-1 $211 $211 $-1 $308 reversed $128 $-1 #
edge $-1 $309 0 $309 6.2831853071796004 $129 $310 forward 7 unknown #
vertex $-1 $132 $311 #
ellipse-curve $-1 73.468595079113797 11.80009022572235 10.902644902832138 0.66913061440640931 0 0.74314481823134659 0.74314481823134659 0 -0.66913061440640931 1 I I #
coedge $-1 $215 $215 $-1 $312 reversed $135 $-1 #
edge $-1 $313 0 $313 6.2831853071796004 $136 $314 forward 7 unknown #
vertex $-1 $139 $315 #
ellipse-curve $-1 73.468595079113797 19.022733255893513 10.902644902832138 0.66913061440640931 0 0.74314481823134659 0.74314481823134659 0 -0.66913061440640931 1 I I #
face $-1 $-1 $155 $21 $-1 $316 reversed single #
loop $-1 $-1 $235 $140 #
plane-surface $-1 0 45.318676121010995 0 0 -1 0 0 0 -1 forward_v I I I I #
coedge $-1 $317 $233 $236 $318 forward $141 $-1 #
coedge $-1 $239 $143 $144 $227 reversed $88 $-1 #
coedge $-1 $233 $317 $143 $225 reversed $141 $-1 #
edge $-1 $240 -13.173908315923152 $319 13.173908315923152 $224 $320 forward 7 unknown #
coedge $-1 $145 $144 $317 $321 forward $57 $-1 #
edge $-1 $231 -75.991088595233009 $319 75.991088595233009 $223 $322 forward 7 unknown #
coedge $-1 $236 $235 $145 $229 reversed $220 $-1 #
edge $-1 $323 -75.991088595233009 $230 75.991088595233009 $228 $324 forward 7 unknown #
vertex $-1 $147 $325 #
vertex $-1 $242 $326 #
straight-curve $-1 75.991088595233009 0 -13.173908315923152 0 -1 0 I I #
coedge $-1 $222 $224 $148 $234 reversed $141 $-1 #
edge $-1 $237 -45.318676121010995 $240 45.318676121010995 $233 $327 forward 7 unknown #
coedge $-1 $228 $149 $154 $243 forward $220 $-1 #
coedge $-1 $149 $228 $222 $318 reversed $220 $-1 #
vertex $-1 $150 $328 #
straight-curve $-1 0 45.318676121010995 13.173908315923152 -1 0 0 I I #
coedge $-1 $151 $223 $153 $242 reversed $88 $-1 #
vertex $-1 $234 $329 #
straight-curve $-1 0 -45.318676121010995 13.173908315923152 1 0 0 I I #
edge $-1 $156 -13.173908315923152 $231 13.173908315923152 $153 $330 forward 7 unknown #
edge $-1 $157 -13.173908315923152 $230 13.173908315923152 $154 $331 forward 7 unknown #
point $-1 75.991088595233009 -45.318676121010995 13.173908315923152 #
point $-1 75.991088595233009 45.318676121010995 13.173908315923152 #
face $-1 $-1 $172 $22 $-1 $332 reversed single #
loop $-1 $-1 $253 $159 #
plane-surface $-1 0 0 13.173908315923152 0 0 1 1 0 0 forward_v I I I I #
coedge $-1 $333 $162 $167 $258 forward $96 $-1 #
coedge $-1 $162 $333 $334 $335 reversed $96 $-1 #
coedge $-1 $164 $163 $162 $252 reversed $61 $-1 #
edge $-1 $336 -8.3325864655115787 $263 -1.3500572353115698 $162 $337 forward 7 unknown #
coedge $-1 $334 $338 $164 $254 forward $247 $-1 #
edge $-1 $256 -75.991088595233009 $336 75.991088595233009 $253 $339 forward 7 unknown #
coedge $-1 $171 $165 $338 $340 reversed $172 $-1 #
vertex $-1 $166 $341 #
straight-curve $-1 75.991088595233009 -30.448896984163465 4.8413218504115738 0 0 1 I I #
edge $-1 $263 11.507003707869849 $261 26.376782844717379 $249 $342 forward 7 unknown #
coedge $-1 $343 $168 $171 $265 reversed $160 $-1 #
coedge $-1 $168 $343 $333 $344 forward $160 $-1 #
vertex $-1 $169 $345 #
straight-curve $-1 0 -45.318676121010995 6.1913790857231437 1 0 0 I I #
vertex $-1 $258 $346 #
straight-curve $-1 0 -30.448896984163465 6.1913790857231437 1 0 0 I I #
edge $-1 $347 -13.173908315923152 $173 -6.1913790857231437 $171 $348 forward 7 unknown #
point $-1 75.991088595233009 -45.318676121010995 6.1913790857231437 #
point $-1 75.991088595233009 -30.448896984163465 6.1913790857231437 #
loop $-1 $-1 $184 $176 #
plane-surface $-1 -75.991088595233009 0 0 1 0 0 0 0 -1 forward_v I I I I #
coedge $-1 $271 $179 $181 $275 reversed $104 $-1 #
coedge $-1 $179 $270 $349 $350 reversed $104 $-1 #
coedge $-1 $187 $182 $179 $273 forward $177 $-1 #
edge $-1 $276 -33.054537275267293 $351 -27.814669474882891 $272 $352 forward 7 unknown #
coedge $-1 $181 $180 $279 $353 reversed $65 $-1 #
edge $-1 $354 0 $276 10.479735881572765 $270 $355 forward 7 unknown #
vertex $-1 $183 $356 #
straight-curve $-1 -70.751220794848606 -7.9738492634387352 13.173908315923152 0 1 0 I I #
coedge $-1 $349 $184 $187 $283 reversed $268 $-1 #
coedge $-1 $184 $349 $274 $353 forward $268 $-1 #
vertex $-1 $185 $357 #
straight-curve $-1 -75.991088595233009 -21.254110927781113 40.044638647762319 0 0 1 I I #
straight-curve $-1 -75.991088595233009 -21.254110927781113 4.0981907364687089 -0.49999998660252726 0 -0.86602541151947299 I I #
edge $-1 $351 10.641286125973828 $188 21.254110927781113 $278 $358 forward 7 unknown #
point $-1 -75.991088595233009 -21.254110927781113 13.173908315923152 #
point $-1 -70.751220794848606 -21.254110927781113 13.173908315923152 #
edge $-1 $359 1 $359 0 $191 $-1 forward 7 unknown #
vertex $-1 $192 $360 #
ellipse-curve $-1 -69.999874523167335 -15.94769852687747 6.6896400809897125 -0.86602541151947299 0 0.49999998660252726 0.99999997320505452 0 1.732050823038946 1 I I #
point $-1 -72.371154721835751 -15.94769852687747 10.36810034923487 #
plane-surface $-1 0 0 13.173908315923152 0 0 1 1 0 0 forward_v I I I I #
coedge $-1 $301 $300 $293 $361 forward $196 $-1 #
coedge $-1 $293 $198 $200 $297 reversed $119 $-1 #
coedge $-1 $198 $292 $291 $361 reversed $119 $-1 #
coedge $-1 $206 $201 $198 $295 forward $207 $-1 #
edge $-1 $298 38.574977185544526 $362 43.61996421778295 $294 $363 forward 7 unknown #
coedge $-1 $200 $199 $301 $364 reversed $74 $-1 #
edge $-1 $365 -151.98217719046602 $298 -145.19347745325291 $292 $366 forward 7 unknown #
vertex $-1 $202 $367 #
straight-curve $-1 70.946101562994599 7.7057058704039676 13.173908315923157 0 -1 0 I I #
coedge $-1 $291 $203 $206 $305 reversed $196 $-1 #
coedge $-1 $203 $291 $296 $364 forward $196 $-1 #
vertex $-1 $204 $368 #
straight-curve $-1 75.991088595233009 23.83782860934096 111.6360382673173 0 0 1 I I #
straight-curve $-1 -36.953678847380175 23.83782860934096 110.32730909202142 0.74314481823134659 0 -0.66913061440640931 I I #
edge $-1 $362 6.9849948722749104 $208 23.83782860934096 $300 $369 forward 7 unknown #
point $-1 75.991088595233009 23.83782860934096 13.173908315923152 #
point $-1 70.946101562994585 23.83782860934096 13.173908315923171 #
edge $-1 $370 1 $370 0 $211 $-1 forward 7 unknown #
vertex $-1 $212 $371 #
ellipse-curve $-1 71.677623605518875 11.80009022572235 8.9135696138724185 0.66913061440640931 0 0.74314481823134659 0.74314481823134659 0 -0.66913061440640931 1 I I #
point $-1 74.211739897345154 11.80009022572235 10.233514288425747 #
edge $-1 $372 1 $372 0 $215 $-1 forward 7 unknown #
vertex $-1 $216 $373 #
ellipse-curve $-1 71.677623605518875 19.022733255893513 8.9135696138724185 0.66913061440640931 0 0.74314481823134659 0.74314481823134659 0 -0.66913061440640931 1 I I #
point $-1 74.211739897345154 19.022733255893513 10.233514288425747 #
plane-surface $-1 75.991088595233009 0 0 -1 0 0 0 0 1 forward_v I I I I #
coedge $-1 $224 $222 $226 $321 reversed $141 $-1 #
edge $-1 $237 -13.173908315923152 $323 13.173908315923152 $236 $374 forward 7 unknown #
vertex $-1 $321 $375 #
straight-curve $-1 -75.991088595233009 -45.318676121010995 0 0 0 -1 I I #
edge $-1 $319 -45.318676121010995 $323 45.318676121010995 $317 $376 forward 7 unknown #
straight-curve $-1 0 -45.318676121010995 -13.173908315923152 -1 0 0 I I #
vertex $-1 $229 $377 #
straight-curve $-1 0 45.318676121010995 -13.173908315923152 1 0 0 I I #
point $-1 75.991088595233009 45.318676121010995 -13.173908315923152 #
point $-1 75.991088595233009 -45.318676121010995 -13.173908315923152 #
straight-curve $-1 -75.991088595233009 0 13.173908315923152 0 -1 0 I I #
point $-1 -75.991088595233009 45.318676121010995 13.173908315923152 #
point $-1 -75.991088595233009 -45.318676121010995 13.173908315923152 #
straight-curve $-1 75.991088595233009 -45.318676121010995 0 0 0 -1 I I #
straight-curve $-1 75.991088595233009 45.318676121010995 0 0 0 -1 I I #
plane-surface $-1 75.991088595233009 0 0 -1 0 0 0 0 1 forward_v I I I I #
coedge $-1 $250 $249 $260 $344 reversed $96 $-1 #
coedge $-1 $378 $253 $250 $335 forward $247 $-1 #
edge $-1 $336 30.448896984163465 $379 45.318676121010995 $250 $380 forward 7 unknown #
vertex $-1 $335 $381 #
straight-curve $-1 -75.991088595233009 -30.448896984163465 4.8413218504115738 0 0 -1 I I #
coedge $-1 $253 $378 $255 $340 forward $247 $-1 #
straight-curve $-1 0 -30.448896984163465 13.173908315923152 -1 0 0 I I #
edge $-1 $347 -45.318676121010995 $256 -30.448896984163465 $255 $382 forward 7 unknown #
point $-1 75.991088595233009 -30.448896984163465 13.173908315923152 #
straight-curve $-1 -75.991088595233009 -18.941893276293616 6.1913790857231437 0 -1 0 I I #
coedge $-1 $260 $259 $378 $383 reversed $160 $-1 #
edge $-1 $379 -13.173908315923152 $261 -6.1913790857231437 $333 $384 forward 7 unknown #
point $-1 -75.991088595233009 -45.318676121010995 6.1913790857231437 #
point $-1 -75.991088595233009 -30.448896984163465 6.1913790857231437 #
vertex $-1 $340 $385 #
straight-curve $-1 75.991088595233009 -45.318676121010995 0 0 0 -1 I I #
coedge $-1 $279 $278 $271 $350 forward $268 $-1 #
edge $-1 $351 26.870730331839169 $354 35.94644791129361 $349 $386 forward 7 unknown #
vertex $-1 $283 $387 #
straight-curve $-1 -103.8057580701159 -10.641286125973828 13.17390831592315 -1 0 0 I I #
edge $-1 $354 2.6674368625350926 $280 13.280261664342378 $279 $388 forward 7 unknown #
vertex $-1 $353 $389 #
straight-curve $-1 -75.991088595233009 -10.641286125973828 4.0981907364687089 0.49999998660252726 0 0.86602541151947299 I I #
point $-1 -70.751220794848606 -10.641286125973828 13.173908315923152 #
point $-1 -75.991088595233009 -21.254110927781113 4.0981907364687089 #
straight-curve $-1 -75.991088595233009 0 13.173908315923152 0 -1 0 I I #
vertex $-1 $286 $390 #
point $-1 -68.999874549962286 -15.94769852687747 8.4216909040286581 #
edge $-1 $362 98.462129951394147 $365 103.00465677757617 $291 $391 forward 7 unknown #
vertex $-1 $305 $392 #
straight-curve $-1 32.371124377450059 6.9849948722749104 13.173908315923157 1 0 0 I I #
edge $-1 $365 -0.72071099812905715 $302 16.132122738936992 $301 $393 forward 7 unknown #
vertex $-1 $364 $394 #
straight-curve $-1 -36.953678847380175 6.9849948722749104 110.32730909202142 -0.74314481823134659 0 0.66913061440640931 I I #
point $-1 70.946101562994585 6.9849948722749104 13.173908315923171 #
point $-1 75.991088595233009 23.83782860934096 8.6313814897411305 #
straight-curve $-1 75.991088595233009 0 13.173908315923152 0 1 0 I I #
vertex $-1 $308 $395 #
point $-1 72.420768423750218 11.80009022572235 8.2444389994660092 #
vertex $-1 $312 $396 #
point $-1 72.420768423750218 19.022733255893513 8.2444389994660092 #
straight-curve $-1 -75.991088595233009 45.318676121010995 0 0 0 -1 I I #
point $-1 -75.991088595233009 -45.318676121010995 -13.173908315923152 #
straight-curve $-1 -75.991088595233009 0 -13.173908315923152 0 1 0 I I #
point $-1 -75.991088595233009 45.318676121010995 -13.173908315923152 #
coedge $-1 $338 $334 $343 $383 forward $247 $-1 #
vertex $-1 $335 $397 #
straight-curve $-1 -75.991088595233009 0 13.173908315923152 0 -1 0 I I #
point $-1 -75.991088595233009 -30.448896984163465 13.173908315923152 #
straight-curve $-1 75.991088595233009 0 13.173908315923152 0 1 0 I I #
edge $-1 $379 -75.991088595233009 $347 75.991088595233009 $343 $398 forward 7 unknown #
straight-curve $-1 -75.991088595233009 -45.318676121010995 0 0 0 -1 I I #
point $-1 75.991088595233009 -45.318676121010995 13.173908315923152 #
straight-curve $-1 -75.991088595233009 -10.641286125973828 40.044638647762319 0 0 -1 I I #
point $-1 -75.991088595233009 -10.641286125973828 13.173908315923152 #
straight-curve $-1 -75.991088595233009 -7.9738492634387352 4.0981907364687107 0 -1 0 I I #
point $-1 -75.991088595233009 -10.641286125973828 4.0981907364687089 #
point $-1 -68.267823700128389 -15.94769852687747 5.6896401077846575 #
straight-curve $-1 75.991088595233009 6.9849948722749104 111.6360382673173 0 0 -1 I I #
point $-1 75.991088595233009 6.9849948722749104 13.173908315923152 #
straight-curve $-1 75.991088595232995 7.7057058704039676 8.6313814897411305 0 1 0 I I #
point $-1 75.991088595233009 6.9849948722749104 8.6313814897411305 #
point $-1 71.008492991112462 11.80009022572235 8.1704247956410718 #
point $-1 71.008492991112462 19.022733255893513 8.1704247956410718 #
point $-1 -75.991088595233009 -45.318676121010995 13.173908315923152 #
straight-curve $-1 0 -45.318676121010995 13.173908315923152 1 0 0 I I #
End-of-ACIS-data 