500 0 17 0           
7 Unknown 11 ACIS 5.0 NT 24 Thu Mar 25 23:39:46 1999 
-1 9.9999999999999995e-007 1e-010 
body $-1 $17 $-1 $18 #
body $-1 $19 $-1 $20 #
body $-1 $21 $-1 $22 #
body $-1 $23 $-1 $24 #
body $-1 $25 $-1 $26 #
body $-1 $27 $-1 $28 #
body $-1 $29 $-1 $30 #
body $-1 $31 $-1 $32 #
body $-1 $33 $-1 $34 #
body $-1 $35 $-1 $36 #
body $-1 $37 $-1 $38 #
body $-1 $39 $-1 $40 #
body $-1 $41 $-1 $42 #
body $-1 $43 $-1 $44 #
body $-1 $45 $-1 $46 #
body $-1 $47 $-1 $48 #
body $-1 $49 $-1 $50 #
lump $-1 $-1 $51 $0 #
transform $-1 1 0 0 0 1 0 0 0 1 47.780999176000243 25.908363495582417 8.7629996932536027 1 rotate no_reflect no_shear #
lump $-1 $-1 $52 $1 #
transform $-1 1 0 0 0 1 0 0 0 1 47.780999176000243 25.908363495582417 8.7629996932536027 1 rotate no_reflect no_shear #
lump $-1 $-1 $53 $2 #
transform $-1 1 0 0 0 1 0 0 0 1 47.780999176000243 25.908363495582417 8.7629996932536027 1 rotate no_reflect no_shear #
lump $-1 $-1 $54 $3 #
transform $-1 1 0 0 0 1 0 0 0 1 47.780999176000243 25.908363495582417 8.7629996932536027 1 rotate no_reflect no_shear #
lump $-1 $-1 $55 $4 #
transform $-1 1 0 0 0 1 0 0 0 1 47.780999176000243 25.908363495582417 8.7629996932536027 1 rotate no_reflect no_shear #
lump $-1 $-1 $56 $5 #
transform $-1 1 0 0 0 1 0 0 0 1 47.780999176000243 25.908363495582417 8.7629996932536027 1 rotate no_reflect no_shear #
lump $-1 $-1 $57 $6 #
transform $-1 1 0 0 0 1 0 0 0 1 47.780999176000243 25.908363495582417 8.7629996932536027 1 rotate no_reflect no_shear #
lump $-1 $-1 $58 $7 #
transform $-1 1 0 0 0 1 0 0 0 1 47.780999176000243 25.908363495582417 8.7629996932536027 1 rotate no_reflect no_shear #
lump $-1 $-1 $59 $8 #
transform $-1 1 0 0 0 1 0 0 0 1 47.780999176000243 25.908363495582417 8.7629996932536027 1 rotate no_reflect no_shear #
lump $-1 $-1 $60 $9 #
transform $-1 1 0 0 0 1 0 0 0 1 47.780999176000243 25.908363495582417 8.7629996932536027 1 rotate no_reflect no_shear #
lump $-1 $-1 $61 $10 #
transform $-1 1 0 0 0 1 0 0 0 1 47.780999176000243 25.908363495582417 8.7629996932536027 1 rotate no_reflect no_shear #
lump $-1 $-1 $62 $11 #
transform $-1 1 0 0 0 1 0 0 0 1 47.780999176000243 25.908363495582417 8.7629996932536027 1 rotate no_reflect no_shear #
lump $-1 $-1 $63 $12 #
transform $-1 1 0 0 0 1 0 0 0 1 47.780999176000243 25.908363495582417 8.7629996932536027 1 rotate no_reflect no_shear #
lump $-1 $-1 $64 $13 #
transform $-1 1 0 0 0 1 0 0 0 1 47.780999176000243 25.908363495582417 8.7629996932536027 1 rotate no_reflect no_shear #
lump $-1 $-1 $65 $14 #
transform $-1 1 0 0 0 1 0 0 0 1 47.780999176000243 25.908363495582417 8.7629996932536027 1 rotate no_reflect no_shear #
lump $-1 $-1 $66 $15 #
transform $-1 1 0 0 0 1 0 0 0 1 47.780999176000243 25.908363495582417 8.7629996932536027 1 rotate no_reflect no_shear #
lump $-1 $-1 $67 $16 #
transform $-1 1 0 0 0 1 0 0 0 1 47.780999176000243 25.908363495582417 8.7629996932536027 1 rotate no_reflect no_shear #
shell $-1 $-1 $-1 $68 $-1 $17 #
shell $-1 $-1 $-1 $69 $-1 $19 #
shell $-1 $-1 $-1 $70 $-1 $21 #
shell $-1 $-1 $-1 $71 $-1 $23 #
shell $-1 $-1 $-1 $72 $-1 $25 #
shell $-1 $-1 $-1 $73 $-1 $27 #
shell $-1 $-1 $-1 $74 $-1 $29 #
shell $-1 $-1 $-1 $75 $-1 $31 #
shell $-1 $-1 $-1 $76 $-1 $33 #
shell $-1 $-1 $-1 $77 $-1 $35 #
shell $-1 $-1 $-1 $78 $-1 $37 #
shell $-1 $-1 $-1 $79 $-1 $39 #
shell $-1 $-1 $-1 $80 $-1 $41 #
shell $-1 $-1 $-1 $81 $-1 $43 #
shell $-1 $-1 $-1 $82 $-1 $45 #
shell $-1 $-1 $-1 $83 $-1 $47 #
shell $-1 $-1 $-1 $84 $-1 $49 #
face $-1 $85 $86 $51 $-1 $87 forward single #
face $-1 $88 $89 $52 $-1 $90 forward single #
face $-1 $91 $92 $53 $-1 $93 reversed single #
face $-1 $94 $95 $54 $-1 $96 forward single #
face $-1 $97 $98 $55 $-1 $99 forward single #
face $-1 $100 $101 $56 $-1 $102 reversed single #
face $-1 $103 $104 $57 $-1 $105 forward single #
face $-1 $106 $107 $58 $-1 $108 forward single #
face $-1 $109 $110 $59 $-1 $111 reversed single #
face $-1 $112 $113 $60 $-1 $114 forward single #
face $-1 $115 $116 $61 $-1 $117 forward single #
face $-1 $118 $119 $62 $-1 $120 reversed single #
face $-1 $121 $122 $63 $-1 $123 forward single #
face $-1 $124 $125 $64 $-1 $126 forward single #
face $-1 $127 $128 $65 $-1 $129 reversed single #
face $-1 $130 $131 $66 $-1 $132 forward single #
face $-1 $133 $134 $67 $-1 $135 forward single #
face $-1 $136 $137 $51 $-1 $138 reversed single #
loop $-1 $-1 $139 $68 #
plane-surface $-1 0 0 8.7629996932536027 0 0 1 1 0 0 forward_v I I I I #
face $-1 $140 $141 $52 $-1 $142 reversed single #
loop $-1 $-1 $143 $69 #
plane-surface $-1 -47.780999176000243 0 0 1 0 0 0 0 -1 forward_v I I I I #
face $-1 $144 $145 $53 $-1 $146 reversed single #
loop $-1 $-1 $147 $70 #
plane-surface $-1 -29.315049389251836 62.252611399957942 105.63101889165738 1 0 0 0 -0.74314483375859142 -0.66913059716165679 forward_v I I I I #
face $-1 $148 $149 $54 $-1 $150 forward single #
loop $-1 $151 $152 $71 #
cone-surface $-1 -26.558757760219191 22.756227218634685 5.3964707479283103 0 -0.74314483375859142 -0.66913059716165679 1 0 0 1 I I 0 1 1 forward I I I I #
face $-1 $153 $154 $55 $-1 $155 forward single #
loop $-1 $156 $157 $72 #
cone-surface $-1 -22.424320316670222 22.756227218634685 5.3964707479283103 0 -0.74314483375859142 -0.66913059716165679 1 0 0 1 I I 0 1 1 forward I I I I #
face $-1 $158 $159 $56 $-1 $160 reversed single #
loop $-1 $-1 $161 $73 #
plane-surface $-1 -8.3067201102257151 62.252611399957942 105.63101889165738 1 0 0 0 -0.74314483375859142 -0.66913059716165679 forward_v I I I I #
face $-1 $162 $163 $57 $-1 $164 forward single #
loop $-1 $165 $166 $74 #
cone-surface $-1 -5.5504284811930731 22.756227218634685 5.3964707479283103 0 -0.74314483375859142 -0.66913059716165679 1 0 0 1 I I 0 1 1 forward I I I I #
face $-1 $167 $168 $58 $-1 $169 forward single #
loop $-1 $170 $171 $75 #
cone-surface $-1 -1.4159910376440976 22.756227218634685 5.3964707479283103 0 -0.74314483375859142 -0.66913059716165679 1 0 0 1 I I 0 1 1 forward I I I I #
face $-1 $172 $173 $59 $-1 $174 reversed single #
loop $-1 $-1 $175 $76 #
plane-surface $-1 12.701609168800406 62.252611399957942 105.63101889165738 1 0 0 0 -0.74314483375859142 -0.66913059716165679 forward_v I I I I #
face $-1 $176 $177 $60 $-1 $178 forward single #
loop $-1 $179 $180 $77 #
cone-surface $-1 15.457900797833048 22.756227218634685 5.3964707479283103 0 -0.74314483375859142 -0.66913059716165679 1 0 0 1 I I 0 1 1 forward I I I I #
face $-1 $181 $182 $61 $-1 $183 forward single #
loop $-1 $184 $185 $78 #
cone-surface $-1 19.592338241382016 22.756227218634685 5.3964707479283103 0 -0.74314483375859142 -0.66913059716165679 1 0 0 1 I I 0 1 1 forward I I I I #
face $-1 $186 $187 $62 $-1 $188 reversed single #
loop $-1 $-1 $189 $79 #
plane-surface $-1 33.709938447826531 62.252611399957942 105.63101889165738 1 0 0 0 -0.74314483375859142 -0.66913059716165679 forward_v I I I I #
face $-1 $190 $191 $63 $-1 $192 forward single #
loop $-1 $193 $194 $80 #
cone-surface $-1 36.466230076859169 22.756227218634685 5.3964707479283103 0 -0.74314483375859142 -0.66913059716165679 1 0 0 1 I I 0 1 1 forward I I I I #
face $-1 $195 $196 $64 $-1 $197 forward single #
loop $-1 $198 $199 $81 #
cone-surface $-1 40.600667520408145 22.756227218634685 5.3964707479283103 0 -0.74314483375859142 -0.66913059716165679 1 0 0 1 I I 0 1 1 forward I I I I #
face $-1 $200 $201 $65 $-1 $202 reversed single #
loop $-1 $-1 $203 $82 #
plane-surface $-1 -10.584696900947803 -87.33443274812204 75.934542110365598 -1 0 0 0 -0.64278761758704617 0.76604443648966558 forward_v I I I I #
face $-1 $204 $205 $66 $-1 $206 forward single #
loop $-1 $207 $208 $83 #
cone-surface $-1 -24.239391936352639 -20.390472307451105 3.4548383718130422 0 0.64278761758704617 -0.76604443648966558 2 0 0 1 I I 0 1 2 forward I I I I #
face $-1 $209 $210 $67 $-1 $211 forward single #
loop $-1 $212 $213 $84 #
cone-surface $-1 -16.046574915109737 -20.390472307451105 3.4548383718130422 0 0.64278761758704617 -0.76604443648966558 2 0 0 1 I I 0 1 2 forward I I I I #
face $-1 $214 $215 $51 $-1 $216 reversed single #
loop $-1 $-1 $217 $85 #
plane-surface $-1 0 0 -8.7629996932536027 0 0 1 1 0 0 forward_v I I I I #
coedge $-1 $218 $219 $220 $221 forward $86 $-1 #
face $-1 $222 $223 $52 $-1 $224 reversed single #
loop $-1 $-1 $225 $88 #
plane-surface $-1 0 25.908363495582417 0 0 -1 0 0 0 -1 forward_v I I I I #
coedge $-1 $226 $227 $228 $229 forward $89 $-1 #
face $-1 $230 $231 $53 $-1 $232 reversed single #
loop $-1 $-1 $233 $91 #
plane-surface $-1 -24.491539038444706 -8.7637939789782422 41.68756186842203 0 0.74314483375859142 0.66913059716165679 1 0 0 forward_v I I I I #
coedge $-1 $234 $235 $236 $237 reversed $92 $-1 #
face $-1 $-1 $238 $54 $-1 $239 forward single #
loop $-1 $240 $241 $94 #
cone-surface $-1 -26.558757760219191 21.745893161373484 4.4867618993197258 0 -0.74314483375859142 -0.66913059716165679 0.5 0 0 1 I I -0.70710678118654746 0.70710678118654746 0.5 forward I I I I #
loop $-1 $-1 $242 $71 #
coedge $-1 $152 $152 $243 $244 reversed $95 $-1 #
face $-1 $-1 $245 $55 $-1 $246 forward single #
loop $-1 $247 $248 $97 #
cone-surface $-1 -22.424320316670222 21.745893161373484 4.4867618993197258 0 -0.74314483375859142 -0.66913059716165679 0.5 0 0 1 I I -0.70710678118654746 0.70710678118654746 0.5 forward I I I I #
loop $-1 $-1 $249 $72 #
coedge $-1 $157 $157 $250 $251 reversed $98 $-1 #
face $-1 $252 $253 $56 $-1 $254 reversed single #
loop $-1 $-1 $255 $100 #
plane-surface $-1 -3.4832097594185853 -8.7637939789782422 41.68756186842203 0 0.74314483375859142 0.66913059716165679 1 0 0 forward_v I I I I #
coedge $-1 $256 $257 $258 $259 reversed $101 $-1 #
face $-1 $-1 $260 $57 $-1 $261 forward single #
loop $-1 $262 $263 $103 #
cone-surface $-1 -5.5504284811930731 21.745893161373484 4.4867618993197258 0 -0.74314483375859142 -0.66913059716165679 0.5 0 0 1 I I -0.70710678118654746 0.70710678118654746 0.5 forward I I I I #
loop $-1 $-1 $264 $74 #
coedge $-1 $166 $166 $265 $266 reversed $104 $-1 #
face $-1 $-1 $267 $58 $-1 $268 forward single #
loop $-1 $269 $270 $106 #
cone-surface $-1 -1.4159910376440976 21.745893161373484 4.4867618993197258 0 -0.74314483375859142 -0.66913059716165679 0.5 0 0 1 I I -0.70710678118654746 0.70710678118654746 0.5 forward I I I I #
loop $-1 $-1 $271 $75 #
coedge $-1 $171 $171 $272 $273 reversed $107 $-1 #
face $-1 $274 $275 $59 $-1 $276 reversed single #
loop $-1 $-1 $277 $109 #
plane-surface $-1 17.525119519607536 -8.7637939789782422 41.68756186842203 0 0.74314483375859142 0.66913059716165679 1 0 0 forward_v I I I I #
coedge $-1 $278 $279 $280 $281 reversed $110 $-1 #
face $-1 $-1 $282 $60 $-1 $283 forward single #
loop $-1 $284 $285 $112 #
cone-surface $-1 15.457900797833048 21.745893161373484 4.4867618993197258 0 -0.74314483375859142 -0.66913059716165679 0.5 0 0 1 I I -0.70710678118654746 0.70710678118654746 0.5 forward I I I I #
loop $-1 $-1 $286 $77 #
coedge $-1 $180 $180 $287 $288 reversed $113 $-1 #
face $-1 $-1 $289 $61 $-1 $290 forward single #
loop $-1 $291 $292 $115 #
cone-surface $-1 19.592338241382016 21.745893161373484 4.4867618993197258 0 -0.74314483375859142 -0.66913059716165679 0.5 0 0 1 I I -0.70710678118654746 0.70710678118654746 0.5 forward I I I I #
loop $-1 $-1 $293 $78 #
coedge $-1 $185 $185 $294 $295 reversed $116 $-1 #
face $-1 $296 $297 $62 $-1 $298 reversed single #
loop $-1 $-1 $299 $118 #
plane-surface $-1 38.533448798633664 -8.7637939789782422 41.68756186842203 0 0.74314483375859142 0.66913059716165679 1 0 0 forward_v I I I I #
coedge $-1 $300 $301 $302 $303 reversed $119 $-1 #
face $-1 $-1 $304 $63 $-1 $305 forward single #
loop $-1 $306 $307 $121 #
cone-surface $-1 36.466230076859169 21.745893161373484 4.4867618993197258 0 -0.74314483375859142 -0.66913059716165679 0.5 0 0 1 I I -0.70710678118654746 0.70710678118654746 0.5 forward I I I I #
loop $-1 $-1 $308 $80 #
coedge $-1 $194 $194 $309 $310 reversed $122 $-1 #
face $-1 $-1 $311 $64 $-1 $312 forward single #
loop $-1 $313 $314 $124 #
cone-surface $-1 40.600667520408145 21.745893161373484 4.4867618993197258 0 -0.74314483375859142 -0.66913059716165679 0.5 0 0 1 I I -0.70710678118654746 0.70710678118654746 0.5 forward I I I I #
loop $-1 $-1 $315 $81 #
coedge $-1 $199 $199 $316 $317 reversed $125 $-1 #
face $-1 $318 $319 $65 $-1 $320 reversed single #
loop $-1 $-1 $321 $127 #
plane-surface $-1 -20.142983425731188 -25.908363495582414 2.7298049329810397 0 -0.64278761758704617 0.76604443648966558 1 0 0 forward_v I I I I #
coedge $-1 $322 $323 $324 $325 reversed $128 $-1 #
face $-1 $-1 $326 $66 $-1 $327 forward single #
loop $-1 $328 $329 $130 #
cone-surface $-1 -24.239391936352639 -17.824834191622465 0.39722999401910641 0 0.64278761758704617 -0.76604443648966558 1 0 0 1 I I -0.70710678118654746 0.70710678118654746 1 forward I I I I #
loop $-1 $-1 $330 $83 #
coedge $-1 $208 $208 $331 $332 reversed $131 $-1 #
face $-1 $-1 $333 $67 $-1 $334 forward single #
loop $-1 $335 $336 $133 #
cone-surface $-1 -16.046574915109737 -17.824834191622465 0.39722999401910641 0 0.64278761758704617 -0.76604443648966558 1 0 0 1 I I -0.70710678118654746 0.70710678118654746 1 forward I I I I #
loop $-1 $-1 $337 $84 #
coedge $-1 $213 $213 $338 $339 reversed $134 $-1 #
face $-1 $340 $341 $51 $-1 $342 reversed single #
loop $-1 $-1 $343 $136 #
plane-surface $-1 0 -25.908363495582417 0 0 1 0 0 0 1 forward_v I I I I #
coedge $-1 $344 $345 $346 $347 forward $137 $-1 #
coedge $-1 $348 $139 $349 $350 forward $86 $-1 #
coedge $-1 $139 $348 $351 $352 forward $86 $-1 #
coedge $-1 $353 $354 $139 $221 reversed $355 $-1 #
edge $-1 $356 -25.908363495582417 $357 25.908363495582417 $220 $358 forward 7 unknown #
face $-1 $359 $360 $52 $-1 $361 reversed single #
loop $-1 $-1 $228 $140 #
plane-surface $-1 -53.545339793948244 0 5.7230809483818188 0 0 1 1 0 0 forward_v I I I I #
coedge $-1 $362 $363 $226 $364 forward $141 $-1 #
coedge $-1 $365 $143 $225 $364 reversed $89 $-1 #
coedge $-1 $143 $365 $366 $367 reversed $89 $-1 #
coedge $-1 $368 $369 $143 $229 reversed $223 $-1 #
edge $-1 $370 -25.908363495582417 $371 25.908363495582417 $228 $372 forward 7 unknown #
face $-1 $373 $374 $53 $-1 $375 forward single #
loop $-1 $-1 $376 $144 #
plane-surface $-1 -19.668028687637577 62.252611399957942 105.63101889165738 -1 0 0 0 0.74314483375859142 0.66913059716165679 forward_v I I I I #
coedge $-1 $377 $378 $379 $380 reversed $145 $-1 #
coedge $-1 $235 $147 $381 $382 reversed $92 $-1 #
coedge $-1 $147 $234 $377 $383 reversed $92 $-1 #
coedge $-1 $379 $384 $147 $237 forward $374 $-1 #
edge $-1 $385 5.2179422043965538 $386 10.2446914775282 $236 $387 forward 7 unknown #
loop $-1 $-1 $243 $148 #
plane-surface $-1 -24.491539038444706 -8.7637939789782422 41.68756186842203 0 0.74314483375859142 0.66913059716165679 1 0 0 forward_v I I I I #
loop $-1 $-1 $388 $94 #
coedge $-1 $241 $241 $242 $389 reversed $149 $-1 #
coedge $-1 $242 $242 $241 $389 forward $151 $-1 #
coedge $-1 $243 $243 $152 $244 forward $238 $-1 #
edge $-1 $390 -3.9709381327211182e-016 $390 6.2831853071796004 $243 $391 forward 7 unknown #
loop $-1 $-1 $250 $153 #
plane-surface $-1 -24.491539038444706 -8.7637939789782422 41.68756186842203 0 0.74314483375859142 0.66913059716165679 1 0 0 forward_v I I I I #
loop $-1 $-1 $392 $97 #
coedge $-1 $248 $248 $249 $393 reversed $154 $-1 #
coedge $-1 $249 $249 $248 $393 forward $156 $-1 #
coedge $-1 $250 $250 $157 $251 forward $245 $-1 #
edge $-1 $394 -3.9709381327211182e-016 $394 6.2831853071796004 $250 $395 forward 7 unknown #
face $-1 $396 $397 $56 $-1 $398 forward single #
loop $-1 $-1 $399 $158 #
plane-surface $-1 1.3403005913885444 62.252611399957942 105.63101889165738 -1 0 0 0 0.74314483375859142 0.66913059716165679 forward_v I I I I #
coedge $-1 $400 $401 $402 $403 reversed $159 $-1 #
coedge $-1 $257 $161 $404 $405 reversed $101 $-1 #
coedge $-1 $161 $256 $400 $406 reversed $101 $-1 #
coedge $-1 $402 $407 $161 $259 forward $397 $-1 #
edge $-1 $408 5.2179422043965538 $409 10.2446914775282 $258 $410 forward 7 unknown #
loop $-1 $-1 $265 $162 #
plane-surface $-1 -3.4832097594185853 -8.7637939789782422 41.68756186842203 0 0.74314483375859142 0.66913059716165679 1 0 0 forward_v I I I I #
loop $-1 $-1 $411 $103 #
coedge $-1 $263 $263 $264 $412 reversed $163 $-1 #
coedge $-1 $264 $264 $263 $412 forward $165 $-1 #
coedge $-1 $265 $265 $166 $266 forward $260 $-1 #
edge $-1 $413 -3.9709381327211182e-016 $413 6.2831853071796004 $265 $414 forward 7 unknown #
loop $-1 $-1 $272 $167 #
plane-surface $-1 -3.4832097594185853 -8.7637939789782422 41.68756186842203 0 0.74314483375859142 0.66913059716165679 1 0 0 forward_v I I I I #
loop $-1 $-1 $415 $106 #
coedge $-1 $270 $270 $271 $416 reversed $168 $-1 #
coedge $-1 $271 $271 $270 $416 forward $170 $-1 #
coedge $-1 $272 $272 $171 $273 forward $267 $-1 #
edge $-1 $417 -3.9709381327211182e-016 $417 6.2831853071796004 $272 $418 forward 7 unknown #
face $-1 $419 $420 $59 $-1 $421 forward single #
loop $-1 $-1 $422 $172 #
plane-surface $-1 22.348629870414666 62.252611399957942 105.63101889165738 -1 0 0 0 0.74314483375859142 0.66913059716165679 forward_v I I I I #
coedge $-1 $423 $424 $425 $426 reversed $173 $-1 #
coedge $-1 $279 $175 $427 $428 reversed $110 $-1 #
coedge $-1 $175 $278 $423 $429 reversed $110 $-1 #
coedge $-1 $425 $430 $175 $281 forward $420 $-1 #
edge $-1 $431 5.2179422043965538 $432 10.2446914775282 $280 $433 forward 7 unknown #
loop $-1 $-1 $287 $176 #
plane-surface $-1 17.525119519607536 -8.7637939789782422 41.68756186842203 0 0.74314483375859142 0.66913059716165679 1 0 0 forward_v I I I I #
loop $-1 $-1 $434 $112 #
coedge $-1 $285 $285 $286 $435 reversed $177 $-1 #
coedge $-1 $286 $286 $285 $435 forward $179 $-1 #
coedge $-1 $287 $287 $180 $288 forward $282 $-1 #
edge $-1 $436 -3.9709381327211182e-016 $436 6.2831853071796004 $287 $437 forward 7 unknown #
loop $-1 $-1 $294 $181 #
plane-surface $-1 17.525119519607536 -8.7637939789782422 41.68756186842203 0 0.74314483375859142 0.66913059716165679 1 0 0 forward_v I I I I #
loop $-1 $-1 $438 $115 #
coedge $-1 $292 $292 $293 $439 reversed $182 $-1 #
coedge $-1 $293 $293 $292 $439 forward $184 $-1 #
coedge $-1 $294 $294 $185 $295 forward $289 $-1 #
edge $-1 $440 -3.9709381327211182e-016 $440 6.2831853071796004 $294 $441 forward 7 unknown #
face $-1 $442 $443 $62 $-1 $444 forward single #
loop $-1 $-1 $445 $186 #
plane-surface $-1 43.356959149440797 62.252611399957942 105.63101889165738 -1 0 0 0 0.74314483375859142 0.66913059716165679 forward_v I I I I #
coedge $-1 $446 $447 $448 $449 reversed $187 $-1 #
coedge $-1 $301 $189 $450 $451 reversed $119 $-1 #
coedge $-1 $189 $300 $446 $452 reversed $119 $-1 #
coedge $-1 $448 $453 $189 $303 forward $443 $-1 #
edge $-1 $454 5.2179422043965538 $455 10.2446914775282 $302 $456 forward 7 unknown #
loop $-1 $-1 $309 $190 #
plane-surface $-1 38.533448798633664 -8.7637939789782422 41.68756186842203 0 0.74314483375859142 0.66913059716165679 1 0 0 forward_v I I I I #
loop $-1 $-1 $457 $121 #
coedge $-1 $307 $307 $308 $458 reversed $191 $-1 #
coedge $-1 $308 $308 $307 $458 forward $193 $-1 #
coedge $-1 $309 $309 $194 $310 forward $304 $-1 #
edge $-1 $459 -3.9709381327211182e-016 $459 6.2831853071796004 $309 $460 forward 7 unknown #
loop $-1 $-1 $316 $195 #
plane-surface $-1 38.533448798633664 -8.7637939789782422 41.68756186842203 0 0.74314483375859142 0.66913059716165679 1 0 0 forward_v I I I I #
loop $-1 $-1 $461 $124 #
coedge $-1 $314 $314 $315 $462 reversed $196 $-1 #
coedge $-1 $315 $315 $314 $462 forward $198 $-1 #
coedge $-1 $316 $316 $199 $317 forward $311 $-1 #
edge $-1 $463 -3.9709381327211182e-016 $463 6.2831853071796004 $316 $464 forward 7 unknown #
face $-1 $465 $466 $65 $-1 $467 reversed single #
loop $-1 $-1 $468 $200 #
plane-surface $-1 -29.701269950514572 -87.33443274812204 75.934542110365598 1 0 0 0 0.64278761758704617 -0.76604443648966558 forward_v I I I I #
coedge $-1 $469 $470 $471 $472 reversed $201 $-1 #
coedge $-1 $323 $203 $473 $474 reversed $128 $-1 #
coedge $-1 $203 $322 $469 $475 reversed $128 $-1 #
coedge $-1 $471 $476 $203 $325 forward $477 $-1 #
edge $-1 $478 17.758852878478603 $479 24.948934258258031 $324 $480 forward 7 unknown #
loop $-1 $-1 $331 $204 #
plane-surface $-1 -20.142983425731188 -25.908363495582414 2.7298049329810397 0 -0.64278761758704617 0.76604443648966558 1 0 0 forward_v I I I I #
loop $-1 $-1 $481 $130 #
coedge $-1 $329 $329 $330 $482 reversed $205 $-1 #
coedge $-1 $330 $330 $329 $482 forward $207 $-1 #
coedge $-1 $331 $331 $208 $332 forward $326 $-1 #
edge $-1 $483 7.2335123171640768e-016 $483 6.2831853071796013 $331 $484 forward 7 unknown #
loop $-1 $-1 $338 $209 #
plane-surface $-1 -20.142983425731188 -25.908363495582414 2.7298049329810397 0 -0.64278761758704617 0.76604443648966558 1 0 0 forward_v I I I I #
loop $-1 $-1 $485 $133 #
coedge $-1 $336 $336 $337 $486 reversed $210 $-1 #
coedge $-1 $337 $337 $336 $486 forward $212 $-1 #
coedge $-1 $338 $338 $213 $339 forward $333 $-1 #
edge $-1 $487 7.2335123171640768e-016 $487 6.2831853071796013 $338 $488 forward 7 unknown #
face $-1 $489 $490 $51 $-1 $491 reversed single #
loop $-1 $-1 $492 $214 #
plane-surface $-1 -47.780999176000243 0 0 1 0 0 0 0 -1 forward_v I I I I #
coedge $-1 $493 $351 $494 $495 forward $215 $-1 #
coedge $-1 $496 $217 $493 $497 forward $137 $-1 #
coedge $-1 $217 $496 $498 $499 forward $137 $-1 #
coedge $-1 $354 $353 $217 $347 reversed $355 $-1 #
edge $-1 $500 -25.908363495582417 $501 25.908363495582417 $346 $502 forward 7 unknown #
coedge $-1 $219 $218 $503 $504 forward $86 $-1 #
coedge $-1 $505 $506 $218 $350 reversed $490 $-1 #
edge $-1 $357 -47.780999176000243 $507 47.780999176000243 $349 $508 forward 7 unknown #
coedge $-1 $343 $509 $219 $352 reversed $215 $-1 #
edge $-1 $510 -47.780999176000243 $356 47.780999176000243 $351 $511 forward 7 unknown #
coedge $-1 $346 $220 $509 $512 forward $355 $-1 #
coedge $-1 $220 $346 $505 $513 reversed $355 $-1 #
loop $-1 $-1 $353 $489 #
vertex $-1 $221 $514 #
vertex $-1 $221 $515 #
straight-curve $-1 47.780999176000243 0 8.7629996932536027 0 1 0 I I #
face $-1 $516 $517 $52 $-1 $518 forward single #
loop $-1 $-1 $519 $222 #
plane-surface $-1 -59.309680411896252 0 7.2430403208177108 1 0 0 0 0 -1 forward_v I I I I #
coedge $-1 $520 $225 $369 $521 reversed $141 $-1 #
coedge $-1 $225 $520 $522 $523 reversed $141 $-1 #
edge $-1 $524 -8.7629996932536027 $371 -5.7230809483818188 $225 $525 forward 7 unknown #
coedge $-1 $227 $226 $526 $527 reversed $89 $-1 #
coedge $-1 $528 $529 $227 $367 forward $530 $-1 #
edge $-1 $370 5.7230809483818188 $531 8.7629996932536027 $366 $532 forward 7 unknown #
coedge $-1 $533 $228 $529 $534 forward $223 $-1 #
coedge $-1 $228 $533 $362 $521 forward $223 $-1 #
vertex $-1 $367 $535 #
vertex $-1 $364 $536 #
straight-curve $-1 -47.780999176000243 0 5.7230809483818188 0 1 0 I I #
face $-1 $-1 $537 $53 $-1 $538 reversed single #
loop $-1 $-1 $236 $230 #
plane-surface $-1 0 0 8.7629996932536027 0 0 1 1 0 0 forward_v I I I I #
coedge $-1 $539 $540 $541 $542 reversed $231 $-1 #
coedge $-1 $543 $233 $235 $383 forward $145 $-1 #
coedge $-1 $233 $543 $539 $544 forward $145 $-1 #
coedge $-1 $541 $236 $233 $380 forward $374 $-1 #
edge $-1 $386 -17.069279870029483 $545 -7.4222591684152235 $379 $546 forward 7 unknown #
coedge $-1 $547 $548 $234 $382 forward $537 $-1 #
edge $-1 $549 -49.635280543170168 $385 -44.052509752575084 $381 $550 forward 7 unknown #
edge $-1 $386 44.304367977163224 $549 51.816726991164828 $235 $551 forward 7 unknown #
coedge $-1 $236 $541 $547 $552 forward $374 $-1 #
vertex $-1 $382 $553 #
vertex $-1 $237 $554 #
straight-curve $-1 -29.315049389251836 31.126305699978971 8.7629996932536045 0 -1 0 I I #
coedge $-1 $388 $388 $-1 $555 reversed $240 $-1 #
edge $-1 $556 0 $556 6.2831853071796004 $241 $557 forward 7 unknown #
vertex $-1 $244 $558 #
ellipse-curve $-1 -26.558757760219191 23.394988859016593 5.9716142979560694 0 0.74314483375859142 0.66913059716165679 1 0 0 1 I I #
coedge $-1 $392 $392 $-1 $559 reversed $247 $-1 #
edge $-1 $560 0 $560 6.2831853071796004 $248 $561 forward 7 unknown #
vertex $-1 $251 $562 #
ellipse-curve $-1 -22.424320316670222 23.394988859016593 5.9716142979560694 0 0.74314483375859142 0.66913059716165679 1 0 0 1 I I #
face $-1 $-1 $563 $56 $-1 $564 reversed single #
loop $-1 $-1 $258 $252 #
plane-surface $-1 0 0 8.7629996932536027 0 0 1 1 0 0 forward_v I I I I #
coedge $-1 $565 $566 $567 $568 reversed $253 $-1 #
coedge $-1 $569 $255 $257 $406 forward $159 $-1 #
coedge $-1 $255 $569 $565 $570 forward $159 $-1 #
coedge $-1 $567 $258 $255 $403 forward $397 $-1 #
edge $-1 $409 -6.5651152305164224 $571 3.0819054710978371 $402 $572 forward 7 unknown #
coedge $-1 $573 $574 $256 $405 forward $563 $-1 #
edge $-1 $575 -49.635280543170168 $408 -44.052509752575084 $404 $576 forward 7 unknown #
edge $-1 $409 44.304367977163224 $575 51.816726991164828 $257 $577 forward 7 unknown #
coedge $-1 $258 $567 $573 $578 forward $397 $-1 #
vertex $-1 $259 $579 #
vertex $-1 $259 $580 #
straight-curve $-1 -8.3067201102257151 31.126305699978971 8.7629996932536045 0 -1 0 I I #
coedge $-1 $411 $411 $-1 $581 reversed $262 $-1 #
edge $-1 $582 0 $582 6.2831853071796004 $263 $583 forward 7 unknown #
vertex $-1 $266 $584 #
ellipse-curve $-1 -5.5504284811930731 23.394988859016593 5.9716142979560694 0 0.74314483375859142 0.66913059716165679 1 0 0 1 I I #
coedge $-1 $415 $415 $-1 $585 reversed $269 $-1 #
edge $-1 $586 0 $586 6.2831853071796004 $270 $587 forward 7 unknown #
vertex $-1 $273 $588 #
ellipse-curve $-1 -1.4159910376440976 23.394988859016593 5.9716142979560694 0 0.74314483375859142 0.66913059716165679 1 0 0 1 I I #
face $-1 $-1 $589 $59 $-1 $590 reversed single #
loop $-1 $-1 $280 $274 #
plane-surface $-1 0 0 8.7629996932536027 0 0 1 1 0 0 forward_v I I I I #
coedge $-1 $591 $592 $593 $594 reversed $275 $-1 #
coedge $-1 $595 $277 $279 $429 forward $173 $-1 #
coedge $-1 $277 $595 $591 $596 forward $173 $-1 #
coedge $-1 $593 $280 $277 $426 forward $420 $-1 #
edge $-1 $432 3.9390494089966381 $597 13.586070110610898 $425 $598 forward 7 unknown #
coedge $-1 $599 $600 $278 $428 forward $589 $-1 #
edge $-1 $601 -49.635280543170168 $431 -44.052509752575084 $427 $602 forward 7 unknown #
edge $-1 $432 44.304367977163224 $601 51.816726991164828 $279 $603 forward 7 unknown #
coedge $-1 $280 $593 $599 $604 forward $420 $-1 #
vertex $-1 $281 $605 #
vertex $-1 $281 $606 #
straight-curve $-1 12.701609168800406 31.126305699978971 8.7629996932536045 0 -1 0 I I #
coedge $-1 $434 $434 $-1 $607 reversed $284 $-1 #
edge $-1 $608 0 $608 6.2831853071796004 $285 $609 forward 7 unknown #
vertex $-1 $288 $610 #
ellipse-curve $-1 15.457900797833048 23.394988859016593 5.9716142979560694 0 0.74314483375859142 0.66913059716165679 1 0 0 1 I I #
coedge $-1 $438 $438 $-1 $611 reversed $291 $-1 #
edge $-1 $612 0 $612 6.2831853071796004 $292 $613 forward 7 unknown #
vertex $-1 $295 $614 #
ellipse-curve $-1 19.592338241382016 23.394988859016593 5.9716142979560694 0 0.74314483375859142 0.66913059716165679 1 0 0 1 I I #
face $-1 $-1 $615 $62 $-1 $616 reversed single #
loop $-1 $-1 $302 $296 #
plane-surface $-1 0 0 8.7629996932536027 0 0 1 1 0 0 forward_v I I I I #
coedge $-1 $617 $618 $619 $620 reversed $297 $-1 #
coedge $-1 $621 $299 $301 $452 forward $187 $-1 #
coedge $-1 $299 $621 $617 $622 forward $187 $-1 #
coedge $-1 $619 $302 $299 $449 forward $443 $-1 #
edge $-1 $455 14.443214048509699 $623 24.090234750123965 $448 $624 forward 7 unknown #
coedge $-1 $625 $626 $300 $451 forward $615 $-1 #
edge $-1 $627 -49.635280543170168 $454 -44.052509752575084 $450 $628 forward 7 unknown #
edge $-1 $455 44.304367977163224 $627 51.816726991164828 $301 $629 forward 7 unknown #
coedge $-1 $302 $619 $625 $630 forward $443 $-1 #
vertex $-1 $303 $631 #
vertex $-1 $303 $632 #
straight-curve $-1 33.709938447826531 31.126305699978971 8.7629996932536045 0 -1 0 I I #
coedge $-1 $457 $457 $-1 $633 reversed $306 $-1 #
edge $-1 $634 0 $634 6.2831853071796004 $307 $635 forward 7 unknown #
vertex $-1 $310 $636 #
ellipse-curve $-1 36.466230076859169 23.394988859016593 5.9716142979560694 0 0.74314483375859142 0.66913059716165679 1 0 0 1 I I #
coedge $-1 $461 $461 $-1 $637 reversed $313 $-1 #
edge $-1 $638 0 $638 6.2831853071796004 $314 $639 forward 7 unknown #
vertex $-1 $317 $640 #
ellipse-curve $-1 40.600667520408145 23.394988859016593 5.9716142979560694 0 0.74314483375859142 0.66913059716165679 1 0 0 1 I I #
face $-1 $-1 $477 $65 $-1 $641 forward single #
loop $-1 $-1 $642 $318 #
plane-surface $-1 0 -25.908363495582417 0 0 1 0 0 0 1 forward_v I I I I #
coedge $-1 $643 $644 $645 $646 reversed $319 $-1 #
coedge $-1 $647 $321 $323 $475 forward $201 $-1 #
coedge $-1 $321 $647 $643 $648 forward $201 $-1 #
coedge $-1 $645 $324 $321 $472 forward $477 $-1 #
edge $-1 $479 0.51320518808220861 $649 19.629778237648978 $471 $650 forward 7 unknown #
coedge $-1 $651 $652 $322 $474 forward $466 $-1 #
edge $-1 $653 -35.237466122201759 $478 -29.204271361929194 $473 $654 forward 7 unknown #
edge $-1 $479 -9.3859847252822171 $653 4.7197218644553055e-015 $323 $655 forward 7 unknown #
coedge $-1 $324 $645 $651 $656 forward $477 $-1 #
loop $-1 $-1 $645 $465 #
vertex $-1 $474 $657 #
vertex $-1 $325 $658 #
straight-curve $-1 -10.584696900947803 -43.66721637406102 8.7629996932536045 0 1 0 I I #
coedge $-1 $481 $481 $-1 $659 reversed $328 $-1 #
edge $-1 $660 0 $660 6.2831853071796004 $329 $661 forward 7 unknown #
vertex $-1 $332 $662 #
ellipse-curve $-1 -24.239391936352639 -22.313322805692703 5.7464023131173185 0 -0.64278761758704617 0.76604443648966558 2 0 0 1 I I #
coedge $-1 $485 $485 $-1 $663 reversed $335 $-1 #
edge $-1 $664 0 $664 6.2831853071796004 $336 $665 forward 7 unknown #
vertex $-1 $339 $666 #
ellipse-curve $-1 -16.046574915109737 -22.313322805692703 5.7464023131173185 0 -0.64278761758704617 0.76604443648966558 2 0 0 1 I I #
face $-1 $-1 $355 $51 $-1 $667 reversed single #
loop $-1 $-1 $505 $340 #
plane-surface $-1 0 25.908363495582417 0 0 -1 0 0 0 -1 forward_v I I I I #
coedge $-1 $668 $503 $506 $669 forward $341 $-1 #
coedge $-1 $509 $343 $344 $497 reversed $215 $-1 #
coedge $-1 $503 $668 $343 $495 reversed $341 $-1 #
edge $-1 $510 -8.7629996932536027 $670 8.7629996932536027 $494 $671 forward 7 unknown #
coedge $-1 $345 $344 $668 $672 forward $137 $-1 #
edge $-1 $501 -47.780999176000243 $670 47.780999176000243 $493 $673 forward 7 unknown #
coedge $-1 $506 $505 $345 $499 reversed $490 $-1 #
edge $-1 $674 -47.780999176000243 $500 47.780999176000243 $498 $675 forward 7 unknown #
vertex $-1 $347 $676 #
vertex $-1 $512 $677 #
straight-curve $-1 47.780999176000243 0 -8.7629996932536027 0 -1 0 I I #
coedge $-1 $492 $494 $348 $504 reversed $341 $-1 #
edge $-1 $507 -25.908363495582417 $510 25.908363495582417 $503 $678 forward 7 unknown #
coedge $-1 $498 $349 $354 $513 forward $490 $-1 #
coedge $-1 $349 $498 $492 $669 reversed $490 $-1 #
vertex $-1 $350 $679 #
straight-curve $-1 0 25.908363495582417 8.7629996932536027 -1 0 0 I I #
coedge $-1 $351 $493 $353 $512 reversed $215 $-1 #
vertex $-1 $504 $680 #
straight-curve $-1 0 -25.908363495582417 8.7629996932536027 1 0 0 I I #
edge $-1 $356 -8.7629996932536027 $501 8.7629996932536027 $353 $681 forward 7 unknown #
edge $-1 $357 -8.7629996932536027 $500 8.7629996932536027 $354 $682 forward 7 unknown #
point $-1 47.780999176000243 -25.908363495582417 8.7629996932536027 #
point $-1 47.780999176000243 25.908363495582417 8.7629996932536027 #
face $-1 $-1 $530 $52 $-1 $683 reversed single #
loop $-1 $-1 $526 $359 #
plane-surface $-1 0 0 8.7629996932536027 0 0 1 1 0 0 forward_v I I I I #
coedge $-1 $684 $685 $520 $686 forward $360 $-1 #
coedge $-1 $363 $362 $519 $686 reversed $141 $-1 #
edge $-1 $687 -5.7643406179480081 $371 5.7643406179480081 $362 $688 forward 7 unknown #
coedge $-1 $689 $526 $363 $523 forward $517 $-1 #
edge $-1 $524 47.780999176000243 $690 59.309680411896252 $363 $691 forward 7 unknown #
vertex $-1 $523 $692 #
straight-curve $-1 -47.780999176000243 25.908363495582417 0 0 0 -1 I I #
coedge $-1 $522 $693 $365 $527 forward $517 $-1 #
edge $-1 $531 -25.908363495582417 $524 25.908363495582417 $526 $694 forward 7 unknown #
coedge $-1 $695 $366 $693 $696 reversed $530 $-1 #
coedge $-1 $366 $695 $368 $534 reversed $530 $-1 #
loop $-1 $-1 $366 $516 #
vertex $-1 $367 $697 #
straight-curve $-1 -47.780999176000243 -25.908363495582417 0 0 0 1 I I #
coedge $-1 $369 $368 $684 $698 forward $223 $-1 #
edge $-1 $370 -5.7643406179480081 $699 5.7643406179480081 $529 $700 forward 7 unknown #
point $-1 -47.780999176000236 -25.908363495582417 5.7230809483818188 #
point $-1 -47.780999176000236 25.908363495582417 5.7230809483818188 #
loop $-1 $-1 $381 $373 #
plane-surface $-1 0 25.908363495582417 0 0 -1 0 0 0 -1 forward_v I I I I #
coedge $-1 $540 $376 $378 $544 reversed $231 $-1 #
coedge $-1 $376 $539 $701 $702 reversed $231 $-1 #
coedge $-1 $384 $379 $376 $542 forward $374 $-1 #
edge $-1 $545 -10.2446914775282 $703 -5.2179422043965538 $541 $704 forward 7 unknown #
coedge $-1 $378 $377 $548 $705 reversed $145 $-1 #
edge $-1 $706 -51.816726991164828 $545 -44.304367977163224 $539 $707 forward 7 unknown #
vertex $-1 $380 $708 #
straight-curve $-1 -12.245769519222353 20.881614222450764 8.7629996932536045 1 0 0 I I #
coedge $-1 $701 $381 $384 $552 reversed $537 $-1 #
coedge $-1 $381 $701 $543 $705 forward $537 $-1 #
vertex $-1 $382 $709 #
straight-curve $-1 -29.315049389251836 25.908363495582417 52.815509445828688 0 0 1 I I #
straight-curve $-1 -29.315049389251836 -8.7637939789782422 41.68756186842203 0 0.66913059716165679 -0.74314483375859142 I I #
edge $-1 $703 19.668028687637577 $385 29.315049389251836 $547 $710 forward 7 unknown #
point $-1 -29.315049389251836 25.908363495582417 8.7629996932536027 #
point $-1 -29.315049389251836 20.881614222450771 8.7629996932536045 #
edge $-1 $711 1 $711 0 $388 $-1 forward 7 unknown #
vertex $-1 $389 $712 #
ellipse-curve $-1 -26.558757760219191 22.11746557825278 4.8213271979005539 0 0.74314483375859142 0.66913059716165679 1 0 0 1 I I #
point $-1 -25.558757760219191 23.394988859016589 5.9716142979560667 #
edge $-1 $713 1 $713 0 $392 $-1 forward 7 unknown #
vertex $-1 $393 $714 #
ellipse-curve $-1 -22.424320316670222 22.11746557825278 4.8213271979005539 0 0.74314483375859142 0.66913059716165679 1 0 0 1 I I #
point $-1 -21.424320316670222 23.394988859016589 5.9716142979560667 #
loop $-1 $-1 $404 $396 #
plane-surface $-1 0 25.908363495582417 0 0 -1 0 0 0 -1 forward_v I I I I #
coedge $-1 $566 $399 $401 $570 reversed $253 $-1 #
coedge $-1 $399 $565 $715 $716 reversed $253 $-1 #
coedge $-1 $407 $402 $399 $568 forward $397 $-1 #
edge $-1 $571 -10.2446914775282 $717 -5.2179422043965538 $567 $718 forward 7 unknown #
coedge $-1 $401 $400 $574 $719 reversed $159 $-1 #
edge $-1 $720 -51.816726991164828 $571 -44.304367977163224 $565 $721 forward 7 unknown #
vertex $-1 $403 $722 #
straight-curve $-1 -1.7416048797092927 20.881614222450764 8.7629996932536045 1 0 0 I I #
coedge $-1 $715 $404 $407 $578 reversed $563 $-1 #
coedge $-1 $404 $715 $569 $719 forward $563 $-1 #
vertex $-1 $405 $723 #
straight-curve $-1 -8.3067201102257151 25.908363495582417 52.815509445828688 0 0 1 I I #
straight-curve $-1 -8.3067201102257151 -8.7637939789782422 41.68756186842203 0 0.66913059716165679 -0.74314483375859142 I I #
edge $-1 $717 -1.3403005913885444 $408 8.3067201102257151 $573 $724 forward 7 unknown #
point $-1 -8.3067201102257151 25.908363495582417 8.7629996932536027 #
point $-1 -8.3067201102257151 20.881614222450771 8.7629996932536045 #
edge $-1 $725 1 $725 0 $411 $-1 forward 7 unknown #
vertex $-1 $412 $726 #
ellipse-curve $-1 -5.5504284811930731 22.11746557825278 4.8213271979005539 0 0.74314483375859142 0.66913059716165679 1 0 0 1 I I #
point $-1 -4.5504284811930731 23.394988859016589 5.9716142979560667 #
edge $-1 $727 1 $727 0 $415 $-1 forward 7 unknown #
vertex $-1 $416 $728 #
ellipse-curve $-1 -1.4159910376440976 22.11746557825278 4.8213271979005539 0 0.74314483375859142 0.66913059716165679 1 0 0 1 I I #
point $-1 -0.41599103764409762 23.394988859016589 5.9716142979560667 #
loop $-1 $-1 $427 $419 #
plane-surface $-1 0 25.908363495582417 0 0 -1 0 0 0 -1 forward_v I I I I #
coedge $-1 $592 $422 $424 $596 reversed $275 $-1 #
coedge $-1 $422 $591 $729 $730 reversed $275 $-1 #
coedge $-1 $430 $425 $422 $594 forward $420 $-1 #
edge $-1 $597 -10.2446914775282 $731 -5.2179422043965538 $593 $732 forward 7 unknown #
coedge $-1 $424 $423 $600 $733 reversed $173 $-1 #
edge $-1 $734 -51.816726991164828 $597 -44.304367977163224 $591 $735 forward 7 unknown #
vertex $-1 $426 $736 #
straight-curve $-1 8.7625597598037679 20.881614222450764 8.7629996932536045 1 0 0 I I #
coedge $-1 $729 $427 $430 $604 reversed $589 $-1 #
coedge $-1 $427 $729 $595 $733 forward $589 $-1 #
vertex $-1 $428 $737 #
straight-curve $-1 12.701609168800406 25.908363495582417 52.815509445828688 0 0 1 I I #
straight-curve $-1 12.701609168800406 -8.7637939789782422 41.68756186842203 0 0.66913059716165679 -0.74314483375859142 I I #
edge $-1 $731 -22.348629870414666 $431 -12.701609168800406 $599 $738 forward 7 unknown #
point $-1 12.701609168800406 25.908363495582417 8.7629996932536027 #
point $-1 12.701609168800406 20.881614222450771 8.7629996932536045 #
edge $-1 $739 1 $739 0 $434 $-1 forward 7 unknown #
vertex $-1 $435 $740 #
ellipse-curve $-1 15.457900797833048 22.11746557825278 4.8213271979005539 0 0.74314483375859142 0.66913059716165679 1 0 0 1 I I #
point $-1 16.457900797833048 23.394988859016589 5.9716142979560667 #
edge $-1 $741 1 $741 0 $438 $-1 forward 7 unknown #
vertex $-1 $439 $742 #
ellipse-curve $-1 19.592338241382016 22.11746557825278 4.8213271979005539 0 0.74314483375859142 0.66913059716165679 1 0 0 1 I I #
point $-1 20.592338241382016 23.394988859016589 5.9716142979560667 #
loop $-1 $-1 $450 $442 #
plane-surface $-1 0 25.908363495582417 0 0 -1 0 0 0 -1 forward_v I I I I #
coedge $-1 $618 $445 $447 $622 reversed $297 $-1 #
coedge $-1 $445 $617 $743 $744 reversed $297 $-1 #
coedge $-1 $453 $448 $445 $620 forward $443 $-1 #
edge $-1 $623 -10.2446914775282 $745 -5.2179422043965538 $619 $746 forward 7 unknown #
coedge $-1 $447 $446 $626 $747 reversed $187 $-1 #
edge $-1 $748 -51.816726991164828 $623 -44.304367977163224 $617 $749 forward 7 unknown #
vertex $-1 $449 $750 #
straight-curve $-1 19.266724399316832 20.881614222450764 8.7629996932536045 1 0 0 I I #
coedge $-1 $743 $450 $453 $630 reversed $615 $-1 #
coedge $-1 $450 $743 $621 $747 forward $615 $-1 #
vertex $-1 $451 $751 #
straight-curve $-1 33.709938447826531 25.908363495582417 52.815509445828688 0 0 1 I I #
straight-curve $-1 33.709938447826531 -8.7637939789782422 41.68756186842203 0 0.66913059716165679 -0.74314483375859142 I I #
edge $-1 $745 -43.356959149440797 $454 -33.709938447826531 $625 $752 forward 7 unknown #
point $-1 33.709938447826531 25.908363495582417 8.7629996932536027 #
point $-1 33.709938447826531 20.881614222450771 8.7629996932536045 #
edge $-1 $753 1 $753 0 $457 $-1 forward 7 unknown #
vertex $-1 $458 $754 #
ellipse-curve $-1 36.466230076859169 22.11746557825278 4.8213271979005539 0 0.74314483375859142 0.66913059716165679 1 0 0 1 I I #
point $-1 37.466230076859169 23.394988859016589 5.9716142979560667 #
edge $-1 $755 1 $755 0 $461 $-1 forward 7 unknown #
vertex $-1 $462 $756 #
ellipse-curve $-1 40.600667520408145 22.11746557825278 4.8213271979005539 0 0.74314483375859142 0.66913059716165679 1 0 0 1 I I #
point $-1 41.600667520408145 23.394988859016589 5.9716142979560667 #
plane-surface $-1 0 0 8.7629996932536027 0 0 1 1 0 0 forward_v I I I I #
coedge $-1 $652 $651 $644 $757 forward $466 $-1 #
coedge $-1 $644 $468 $470 $648 reversed $319 $-1 #
coedge $-1 $468 $643 $642 $757 reversed $319 $-1 #
coedge $-1 $476 $471 $468 $646 forward $477 $-1 #
edge $-1 $649 -24.948934258258031 $758 -17.758852878478603 $645 $759 forward 7 unknown #
coedge $-1 $470 $469 $652 $760 reversed $201 $-1 #
edge $-1 $761 -4.7197218644553055e-015 $649 9.3859847252822171 $643 $762 forward 7 unknown #
vertex $-1 $472 $763 #
straight-curve $-1 -10.071491712865594 -18.718282115802992 8.7629996932536027 -1 0 0 I I #
coedge $-1 $642 $473 $476 $656 reversed $466 $-1 #
coedge $-1 $473 $642 $647 $760 forward $466 $-1 #
vertex $-1 $474 $764 #
straight-curve $-1 -10.584696900947803 -25.908363495582417 37.967271055182799 0 0 1 I I #
straight-curve $-1 -10.584696900947803 -25.908363495582414 2.7298049329810397 0 -0.76604443648966558 -0.64278761758704617 I I #
edge $-1 $758 -29.701269950514572 $478 -10.584696900947803 $651 $765 forward 7 unknown #
point $-1 -10.584696900947803 -25.908363495582417 8.7629996932536027 #
point $-1 -10.584696900947803 -18.718282115802989 8.7629996932536027 #
edge $-1 $766 1 $766 0 $481 $-1 forward 7 unknown #
vertex $-1 $482 $767 #
ellipse-curve $-1 -24.239391936352639 -18.467621809209511 1.1632744305087721 0 -0.64278761758704617 0.76604443648966558 2 0 0 1 I I #
point $-1 -22.239391936352639 -22.313322805692696 5.7464023131173123 #
edge $-1 $768 1 $768 0 $485 $-1 forward 7 unknown #
vertex $-1 $486 $769 #
ellipse-curve $-1 -16.046574915109737 -18.467621809209511 1.1632744305087721 0 -0.64278761758704617 0.76604443648966558 2 0 0 1 I I #
point $-1 -14.046574915109737 -22.313322805692696 5.7464023131173123 #
plane-surface $-1 47.780999176000243 0 0 -1 0 0 0 0 1 forward_v I I I I #
coedge $-1 $494 $492 $496 $672 reversed $341 $-1 #
edge $-1 $507 -8.7629996932536027 $674 8.7629996932536027 $506 $770 forward 7 unknown #
vertex $-1 $672 $771 #
straight-curve $-1 -47.780999176000243 -25.908363495582417 0 0 0 -1 I I #
edge $-1 $670 -25.908363495582417 $674 25.908363495582417 $668 $772 forward 7 unknown #
straight-curve $-1 0 -25.908363495582417 -8.7629996932536027 -1 0 0 I I #
vertex $-1 $499 $773 #
straight-curve $-1 0 25.908363495582417 -8.7629996932536027 1 0 0 I I #
point $-1 47.780999176000243 25.908363495582417 -8.7629996932536027 #
point $-1 47.780999176000243 -25.908363495582417 -8.7629996932536027 #
straight-curve $-1 -47.780999176000243 0 8.7629996932536027 0 -1 0 I I #
point $-1 -47.780999176000243 25.908363495582417 8.7629996932536027 #
point $-1 -47.780999176000243 -25.908363495582417 8.7629996932536027 #
straight-curve $-1 47.780999176000243 -25.908363495582417 0 0 0 -1 I I #
straight-curve $-1 47.780999176000243 25.908363495582417 0 0 0 -1 I I #
plane-surface $-1 0 -25.908363495582417 0 0 1 0 0 0 1 forward_v I I I I #
coedge $-1 $774 $519 $533 $698 reversed $360 $-1 #
coedge $-1 $519 $774 $689 $775 reversed $360 $-1 #
edge $-1 $690 -1.519959372435892 $687 1.519959372435892 $520 $776 forward 7 unknown #
vertex $-1 $521 $777 #
straight-curve $-1 -53.545339793948244 25.908363495582417 5.7230809483818188 1 0 0 I I #
coedge $-1 $693 $522 $685 $775 forward $517 $-1 #
vertex $-1 $523 $778 #
straight-curve $-1 0 25.908363495582417 8.7629996932536027 -1 0 0 I I #
point $-1 -47.780999176000243 25.908363495582417 8.7629996932536027 #
coedge $-1 $526 $689 $528 $696 forward $517 $-1 #
straight-curve $-1 -47.780999176000243 0 8.7629996932536027 0 1 0 I I #
coedge $-1 $529 $528 $774 $779 forward $530 $-1 #
edge $-1 $780 -59.309680411896252 $531 -47.780999176000243 $528 $781 forward 7 unknown #
point $-1 -47.780999176000243 -25.908363495582417 8.7629996932536027 #
edge $-1 $699 -25.908363495582417 $687 25.908363495582417 $684 $782 forward 7 unknown #
vertex $-1 $698 $783 #
straight-curve $-1 -53.545339793948244 -25.908363495582417 5.7230809483818188 -1 0 0 I I #
coedge $-1 $548 $547 $540 $702 forward $537 $-1 #
edge $-1 $703 44.052509752575084 $706 49.635280543170168 $701 $784 forward 7 unknown #
vertex $-1 $552 $785 #
straight-curve $-1 -19.668028687637577 31.126305699978971 8.7629996932536045 0 1 0 I I #
edge $-1 $706 7.4222591684152235 $549 17.069279870029483 $548 $786 forward 7 unknown #
vertex $-1 $705 $787 #
straight-curve $-1 -19.668028687637577 -8.7637939789782422 41.68756186842203 0 -0.66913059716165679 0.74314483375859142 I I #
point $-1 -19.668028687637577 20.881614222450771 8.7629996932536045 #
point $-1 -29.315049389251836 25.908363495582421 3.18022890265852 #
straight-curve $-1 0 25.908363495582417 8.7629996932536027 -1 0 0 I I #
vertex $-1 $555 $788 #
point $-1 -25.558757760219191 22.11746557825278 4.8213271979005539 #
vertex $-1 $559 $789 #
point $-1 -21.424320316670222 22.11746557825278 4.8213271979005539 #
coedge $-1 $574 $573 $566 $716 forward $563 $-1 #
edge $-1 $717 44.052509752575084 $720 49.635280543170168 $715 $790 forward 7 unknown #
vertex $-1 $578 $791 #
straight-curve $-1 1.3403005913885444 31.126305699978971 8.7629996932536045 0 1 0 I I #
edge $-1 $720 -3.0819054710978371 $575 6.5651152305164224 $574 $792 forward 7 unknown #
vertex $-1 $719 $793 #
straight-curve $-1 1.3403005913885444 -8.7637939789782422 41.68756186842203 0 -0.66913059716165679 0.74314483375859142 I I #
point $-1 1.3403005913885444 20.881614222450771 8.7629996932536045 #
point $-1 -8.3067201102257151 25.908363495582421 3.18022890265852 #
straight-curve $-1 0 25.908363495582417 8.7629996932536027 -1 0 0 I I #
vertex $-1 $581 $794 #
point $-1 -4.5504284811930731 22.11746557825278 4.8213271979005539 #
vertex $-1 $585 $795 #
point $-1 -0.41599103764409762 22.11746557825278 4.8213271979005539 #
coedge $-1 $600 $599 $592 $730 forward $589 $-1 #
edge $-1 $731 44.052509752575084 $734 49.635280543170168 $729 $796 forward 7 unknown #
vertex $-1 $604 $797 #
straight-curve $-1 22.348629870414666 31.126305699978971 8.7629996932536045 0 1 0 I I #
edge $-1 $734 -13.586070110610898 $601 -3.9390494089966381 $600 $798 forward 7 unknown #
vertex $-1 $733 $799 #
straight-curve $-1 22.348629870414666 -8.7637939789782422 41.68756186842203 0 -0.66913059716165679 0.74314483375859142 I I #
point $-1 22.348629870414666 20.881614222450771 8.7629996932536045 #
point $-1 12.701609168800406 25.908363495582421 3.18022890265852 #
straight-curve $-1 0 25.908363495582417 8.7629996932536027 -1 0 0 I I #
vertex $-1 $607 $800 #
point $-1 16.457900797833048 22.11746557825278 4.8213271979005539 #
vertex $-1 $611 $801 #
point $-1 20.592338241382016 22.11746557825278 4.8213271979005539 #
coedge $-1 $626 $625 $618 $744 forward $615 $-1 #
edge $-1 $745 44.052509752575084 $748 49.635280543170168 $743 $802 forward 7 unknown #
vertex $-1 $630 $803 #
straight-curve $-1 43.356959149440797 31.126305699978971 8.7629996932536045 0 1 0 I I #
edge $-1 $748 -24.090234750123965 $627 -14.443214048509699 $626 $804 forward 7 unknown #
vertex $-1 $747 $805 #
straight-curve $-1 43.356959149440797 -8.7637939789782422 41.68756186842203 0 -0.66913059716165679 0.74314483375859142 I I #
point $-1 43.356959149440797 20.881614222450771 8.7629996932536045 #
point $-1 33.709938447826531 25.908363495582421 3.18022890265852 #
straight-curve $-1 0 25.908363495582417 8.7629996932536027 -1 0 0 I I #
vertex $-1 $633 $806 #
point $-1 37.466230076859169 22.11746557825278 4.8213271979005539 #
vertex $-1 $637 $807 #
point $-1 41.600667520408145 22.11746557825278 4.8213271979005539 #
edge $-1 $758 29.204271361929194 $761 35.237466122201759 $642 $808 forward 7 unknown #
vertex $-1 $656 $809 #
straight-curve $-1 -29.701269950514572 -43.66721637406102 8.7629996932536045 0 -1 0 I I #
edge $-1 $761 -19.629778237648978 $653 -0.51320518808220861 $652 $810 forward 7 unknown #
vertex $-1 $760 $811 #
straight-curve $-1 -29.701269950514572 -25.908363495582414 2.7298049329810397 0 0.76604443648966558 0.64278761758704617 I I #
point $-1 -29.701269950514572 -18.718282115802989 8.7629996932536027 #
point $-1 -10.584696900947803 -25.908363495582417 2.7298049329810365 #
straight-curve $-1 0 -25.908363495582417 8.7629996932536027 1 0 0 I I #
vertex $-1 $659 $812 #
point $-1 -22.239391936352639 -18.467621809209511 1.1632744305087721 #
vertex $-1 $663 $813 #
point $-1 -14.046574915109737 -18.467621809209511 1.1632744305087721 #
straight-curve $-1 -47.780999176000243 25.908363495582417 0 0 0 -1 I I #
point $-1 -47.780999176000243 -25.908363495582417 -8.7629996932536027 #
straight-curve $-1 -47.780999176000243 0 -8.7629996932536027 0 1 0 I I #
point $-1 -47.780999176000243 25.908363495582417 -8.7629996932536027 #
coedge $-1 $685 $684 $695 $779 reversed $360 $-1 #
edge $-1 $690 -25.908363495582417 $780 25.908363495582417 $685 $814 forward 7 unknown #
straight-curve $-1 -59.309680411896252 25.908363495582417 7.2430403208177108 0 0 -1 I I #
point $-1 -59.309680411896252 25.908363495582417 5.7230809483818188 #
point $-1 -59.309680411896252 25.908363495582417 8.7629996932536027 #
edge $-1 $780 -1.519959372435892 $699 1.519959372435892 $774 $815 forward 7 unknown #
vertex $-1 $775 $816 #
straight-curve $-1 0 -25.908363495582417 8.7629996932536027 1 0 0 I I #
straight-curve $-1 -59.309680411896252 0 5.7230809483818188 0 1 0 I I #
point $-1 -59.309680411896252 -25.908363495582417 5.7230809483818188 #
straight-curve $-1 -19.668028687637577 25.908363495582417 52.815509445828688 0 0 -1 I I #
point $-1 -19.668028687637577 25.908363495582417 8.7629996932536027 #
straight-curve $-1 -12.245769519222353 25.908363495582421 3.1802289026585235 -1 0 0 I I #
point $-1 -19.668028687637577 25.908363495582421 3.18022890265852 #
point $-1 -26.558757760219191 21.374320744494188 4.1521966007388977 #
point $-1 -22.424320316670222 21.374320744494188 4.1521966007388977 #
straight-curve $-1 1.3403005913885444 25.908363495582417 52.815509445828688 0 0 -1 I I #
point $-1 1.3403005913885444 25.908363495582417 8.7629996932536027 #
straight-curve $-1 -1.7416048797092927 25.908363495582421 3.1802289026585235 -1 0 0 I I #
point $-1 1.3403005913885444 25.908363495582421 3.18022890265852 #
point $-1 -5.5504284811930731 21.374320744494188 4.1521966007388977 #
point $-1 -1.4159910376440976 21.374320744494188 4.1521966007388977 #
straight-curve $-1 22.348629870414666 25.908363495582417 52.815509445828688 0 0 -1 I I #
point $-1 22.348629870414666 25.908363495582417 8.7629996932536027 #
straight-curve $-1 8.7625597598037679 25.908363495582421 3.1802289026585235 -1 0 0 I I #
point $-1 22.348629870414666 25.908363495582421 3.18022890265852 #
point $-1 15.457900797833048 21.374320744494188 4.1521966007388977 #
point $-1 19.592338241382016 21.374320744494188 4.1521966007388977 #
straight-curve $-1 43.356959149440797 25.908363495582417 52.815509445828688 0 0 -1 I I #
point $-1 43.356959149440797 25.908363495582417 8.7629996932536027 #
straight-curve $-1 19.266724399316832 25.908363495582421 3.1802289026585235 -1 0 0 I I #
point $-1 43.356959149440797 25.908363495582421 3.18022890265852 #
point $-1 36.466230076859169 21.374320744494188 4.1521966007388977 #
point $-1 40.600667520408145 21.374320744494188 4.1521966007388977 #
straight-curve $-1 -29.701269950514572 -25.908363495582417 37.967271055182799 0 0 -1 I I #
point $-1 -29.701269950514572 -25.908363495582417 8.7629996932536027 #
straight-curve $-1 -10.071491712865594 -25.908363495582417 2.7298049329810357 1 0 0 I I #
point $-1 -29.701269950514572 -25.908363495582417 2.7298049329810365 #
point $-1 -24.239391936352639 -17.182046574035418 -0.36881444247055917 #
point $-1 -16.046574915109737 -17.182046574035418 -0.36881444247055917 #
straight-curve $-1 -59.309680411896252 0 8.7629996932536027 0 -1 0 I I #
straight-curve $-1 -59.309680411896252 -25.908363495582417 7.2430403208177108 0 0 -1 I I #
point $-1 -59.309680411896252 -25.908363495582417 8.7629996932536027 #
End-of-ACIS-data 