500 0 9 0           
7 Unknown 11 ACIS 5.0 NT 24 Thu Mar 25 16:01:33 1999 
-1 9.9999999999999995e-007 1e-010 
body $-1 $9 $-1 $10 #
body $-1 $11 $-1 $12 #
body $-1 $13 $-1 $14 #
body $-1 $15 $-1 $16 #
body $-1 $17 $-1 $18 #
body $-1 $19 $-1 $20 #
body $-1 $21 $-1 $22 #
body $-1 $23 $-1 $24 #
body $-1 $25 $-1 $26 #
lump $-1 $-1 $27 $0 #
transform $-1 1 0 0 0 1 0 0 0 1 54.299752800073243 36.725703346513967 15.373641467099789 1 rotate no_reflect no_shear #
lump $-1 $-1 $28 $1 #
transform $-1 1 0 0 0 1 0 0 0 1 54.299752800073243 36.725703346513967 15.373641467099789 1 rotate no_reflect no_shear #
lump $-1 $-1 $29 $2 #
transform $-1 1 0 0 0 1 0 0 0 1 54.299752800073243 36.725703346513967 15.373641467099789 1 rotate no_reflect no_shear #
lump $-1 $-1 $30 $3 #
transform $-1 1 0 0 0 1 0 0 0 1 54.299752800073243 36.725703346513967 15.373641467099789 1 rotate no_reflect no_shear #
lump $-1 $-1 $31 $4 #
transform $-1 1 0 0 0 1 0 0 0 1 54.299752800073243 36.725703346513967 15.373641467099789 1 rotate no_reflect no_shear #
lump $-1 $-1 $32 $5 #
transform $-1 1 0 0 0 1 0 0 0 1 54.299752800073243 36.725703346513967 15.373641467099789 1 rotate no_reflect no_shear #
lump $-1 $-1 $33 $6 #
transform $-1 1 0 0 0 1 0 0 0 1 54.299752800073243 36.725703346513967 15.373641467099789 1 rotate no_reflect no_shear #
lump $-1 $-1 $34 $7 #
transform $-1 1 0 0 0 1 0 0 0 1 54.299752800073243 36.725703346513967 15.373641467099789 1 rotate no_reflect no_shear #
lump $-1 $-1 $35 $8 #
transform $-1 1 0 0 0 1 0 0 0 1 54.299752800073243 36.725703346513967 15.373641467099789 1 rotate no_reflect no_shear #
shell $-1 $-1 $-1 $36 $-1 $9 #
shell $-1 $-1 $-1 $37 $-1 $11 #
shell $-1 $-1 $-1 $38 $-1 $13 #
shell $-1 $-1 $-1 $39 $-1 $15 #
shell $-1 $-1 $-1 $40 $-1 $17 #
shell $-1 $-1 $-1 $41 $-1 $19 #
shell $-1 $-1 $-1 $42 $-1 $21 #
shell $-1 $-1 $-1 $43 $-1 $23 #
shell $-1 $-1 $-1 $44 $-1 $25 #
face $-1 $45 $46 $27 $-1 $47 reversed single #
face $-1 $48 $49 $28 $-1 $50 forward single #
face $-1 $51 $52 $29 $-1 $53 reversed single #
face $-1 $54 $55 $30 $-1 $56 forward single #
face $-1 $57 $58 $31 $-1 $59 forward single #
face $-1 $60 $61 $32 $-1 $62 reversed single #
face $-1 $63 $64 $33 $-1 $65 forward single #
face $-1 $66 $67 $34 $-1 $68 reversed single #
face $-1 $69 $70 $35 $-1 $71 forward single #
face $-1 $72 $73 $27 $-1 $74 forward single #
loop $-1 $-1 $75 $36 #
plane-surface $-1 0 -36.725703346513967 0 0 1 0 0 0 1 forward_v I I I I #
face $-1 $76 $77 $28 $-1 $78 forward single #
loop $-1 $-1 $79 $37 #
plane-surface $-1 0 -36.725703346513967 0 0 1 0 0 0 1 forward_v I I I I #
face $-1 $80 $81 $29 $-1 $82 reversed single #
loop $-1 $-1 $83 $38 #
plane-surface $-1 -149.28302141163198 -17.233894648124682 56.330417744753049 0 1 0 -0.87461971476443456 0 0.48480960649040278 forward_v I I I I #
face $-1 $84 $85 $30 $-1 $86 forward single #
loop $-1 $87 $88 $39 #
cone-surface $-1 -48.935977864850138 -13.749947423387606 8.3502329723563555 0.87461971476443456 0 -0.48480960649040278 0.72721440973560414 0 1.311929572146652 1 I I 0 1 1.5 forward I I I I #
face $-1 $89 $90 $31 $-1 $91 forward single #
loop $-1 $92 $93 $40 #
cone-surface $-1 -48.935977864850138 -8.5240265862819982 8.3502329723563555 0.87461971476443456 0 -0.48480960649040278 0.72721440973560414 0 1.311929572146652 1 I I 0 1 1.5 forward I I I I #
face $-1 $94 $95 $32 $-1 $96 reversed single #
loop $-1 $-1 $97 $41 #
plane-surface $-1 32.925146682172446 9.7459043491946424 163.62996911103193 0 -1 0 -0.6018150307709319 0 -0.79863550430605224 forward_v I I I I #
face $-1 $98 $99 $33 $-1 $100 forward single #
loop $-1 $101 $102 $42 #
cone-surface $-1 50.840106222380633 6.4457780623285856 12.240668260713829 -0.6018150307709319 0 -0.79863550430605224 1.1979532564590785 0 -0.90272254615639791 1 I I 0 1 1.5 forward I I I I #
face $-1 $103 $104 $34 $-1 $105 reversed single #
loop $-1 $-1 $106 $43 #
plane-surface $-1 32.925146682172446 30.12545077278185 163.62996911103193 0 1 0 0.6018150307709319 0 0.79863550430605224 forward_v I I I I #
face $-1 $107 $108 $35 $-1 $109 forward single #
loop $-1 $110 $111 $44 #
cone-surface $-1 50.840106222380633 33.425577059647907 12.240668260713829 -0.6018150307709319 0 -0.79863550430605224 1.1979532564590785 0 -0.90272254615639791 1 I I 0 1 1.5 forward I I I I #
face $-1 $112 $113 $27 $-1 $114 reversed single #
loop $-1 $-1 $115 $45 #
plane-surface $-1 0 0 15.373641467099789 0 0 1 1 0 0 forward_v I I I I #
coedge $-1 $116 $117 $118 $119 reversed $46 $-1 #
face $-1 $120 $121 $28 $-1 $122 reversed single #
loop $-1 $-1 $123 $48 #
plane-surface $-1 0 0 15.373641467099789 0 0 1 1 0 0 forward_v I I I I #
coedge $-1 $124 $125 $126 $127 forward $49 $-1 #
face $-1 $128 $129 $29 $-1 $130 reversed single #
loop $-1 $-1 $131 $51 #
plane-surface $-1 -54.29975280007325 -11.136987004834801 3.6803341696937366 -0.87461971476443456 0 0.48480960649040278 0.48480960649040278 0 0.87461971476443456 forward_v I I I I #
coedge $-1 $132 $133 $134 $135 reversed $52 $-1 #
face $-1 $-1 $136 $30 $-1 $137 forward single #
loop $-1 $138 $139 $54 #
cone-surface $-1 -46.1570910615294 -13.749947423387606 6.8098709214481428 0.87461971476443456 0 -0.48480960649040278 0.36360720486780207 0 0.65596478607332598 1 I I -0.70710678118654757 0.70710678118654757 0.75 forward I I I I #
loop $-1 $-1 $140 $39 #
coedge $-1 $88 $88 $141 $142 reversed $55 $-1 #
face $-1 $-1 $143 $31 $-1 $144 forward single #
loop $-1 $145 $146 $57 #
cone-surface $-1 -46.1570910615294 -8.5240265862819982 6.8098709214481428 0.87461971476443456 0 -0.48480960649040278 0.36360720486780207 0 0.65596478607332598 1 I I -0.70710678118654757 0.70710678118654757 0.75 forward I I I I #
loop $-1 $-1 $147 $40 #
coedge $-1 $93 $93 $148 $149 reversed $58 $-1 #
face $-1 $150 $151 $32 $-1 $152 reversed single #
loop $-1 $-1 $153 $60 #
plane-surface $-1 -32.431668122287697 6.4457780623285856 76.898548188670986 0.6018150307709319 0 0.79863550430605224 0.79863550430605224 0 -0.6018150307709319 forward_v I I I I #
coedge $-1 $154 $155 $156 $157 reversed $61 $-1 #
face $-1 $-1 $158 $33 $-1 $159 forward single #
loop $-1 $160 $161 $63 #
cone-surface $-1 49.471655210305052 6.4457780623285856 10.42467246754279 -0.6018150307709319 0 -0.79863550430605224 0.59897662822953923 0 -0.45136127307819895 1 I I -0.70710678118654668 0.70710678118654835 0.75 forward I I I I #
loop $-1 $-1 $162 $42 #
coedge $-1 $102 $102 $163 $164 reversed $64 $-1 #
face $-1 $165 $166 $34 $-1 $167 reversed single #
loop $-1 $-1 $168 $66 #
plane-surface $-1 -32.431668122287697 33.425577059647907 76.898548188670986 0.6018150307709319 0 0.79863550430605224 0.79863550430605224 0 -0.6018150307709319 forward_v I I I I #
coedge $-1 $169 $170 $171 $172 reversed $67 $-1 #
face $-1 $-1 $173 $35 $-1 $174 forward single #
loop $-1 $175 $176 $69 #
cone-surface $-1 49.471655210305052 33.425577059647907 10.42467246754279 -0.6018150307709319 0 -0.79863550430605224 0.59897662822953923 0 -0.45136127307819895 1 I I -0.70710678118654668 0.70710678118654835 0.75 forward I I I I #
loop $-1 $-1 $177 $44 #
coedge $-1 $111 $111 $178 $179 reversed $70 $-1 #
face $-1 $180 $181 $27 $-1 $182 reversed single #
loop $-1 $-1 $183 $72 #
plane-surface $-1 0 0 -15.373641467099789 0 0 1 1 0 0 forward_v I I I I #
coedge $-1 $184 $185 $186 $187 forward $73 $-1 #
coedge $-1 $188 $75 $189 $190 reversed $46 $-1 #
coedge $-1 $75 $188 $191 $192 forward $46 $-1 #
coedge $-1 $193 $183 $75 $119 forward $113 $-1 #
edge $-1 $194 -54.299752800073243 $195 54.299752800073243 $75 $196 forward 7 unknown #
face $-1 $197 $198 $28 $-1 $199 reversed single #
loop $-1 $-1 $200 $76 #
plane-surface $-1 -54.299752800073243 0 0 1 0 0 0 0 -1 forward_v I I I I #
coedge $-1 $201 $202 $125 $203 forward $77 $-1 #
coedge $-1 $204 $79 $205 $206 reversed $49 $-1 #
coedge $-1 $79 $204 $123 $203 reversed $49 $-1 #
coedge $-1 $207 $208 $79 $127 reversed $209 $-1 #
edge $-1 $210 -15.373641467099789 $211 15.373641467099789 $126 $212 forward 7 unknown #
face $-1 $213 $214 $29 $-1 $215 reversed single #
loop $-1 $-1 $216 $80 #
plane-surface $-1 -149.28302141163198 -5.0400793615449206 56.330417744753049 0 -1 0 0.87461971476443456 0 -0.48480960649040278 forward_v I I I I #
coedge $-1 $217 $218 $219 $220 reversed $81 $-1 #
coedge $-1 $133 $83 $221 $222 reversed $52 $-1 #
coedge $-1 $83 $132 $217 $223 reversed $52 $-1 #
coedge $-1 $219 $224 $83 $135 forward $225 $-1 #
edge $-1 $226 20.341757905742746 $227 26.823463741694141 $134 $228 forward 7 unknown #
loop $-1 $-1 $141 $84 #
plane-surface $-1 -54.29975280007325 -11.136987004834801 3.6803341696937366 -0.87461971476443456 0 0.48480960649040278 0.48480960649040278 0 0.87461971476443456 forward_v I I I I #
loop $-1 $-1 $229 $54 #
coedge $-1 $139 $139 $140 $230 reversed $85 $-1 #
coedge $-1 $140 $140 $139 $230 forward $87 $-1 #
coedge $-1 $141 $141 $88 $142 forward $136 $-1 #
edge $-1 $231 0 $231 6.2831853071796004 $141 $232 forward 7 unknown #
loop $-1 $-1 $148 $89 #
plane-surface $-1 -54.29975280007325 -11.136987004834801 3.6803341696937366 -0.87461971476443456 0 0.48480960649040278 0.48480960649040278 0 0.87461971476443456 forward_v I I I I #
loop $-1 $-1 $233 $57 #
coedge $-1 $146 $146 $147 $234 reversed $90 $-1 #
coedge $-1 $147 $147 $146 $234 forward $92 $-1 #
coedge $-1 $148 $148 $93 $149 forward $143 $-1 #
edge $-1 $235 0 $235 6.2831853071796004 $148 $236 forward 7 unknown #
face $-1 $237 $238 $32 $-1 $239 forward single #
loop $-1 $-1 $240 $94 #
plane-surface $-1 32.925146682172446 3.1456517754625288 163.62996911103193 0 1 0 0.6018150307709319 0 0.79863550430605224 forward_v I I I I #
coedge $-1 $241 $242 $243 $244 reversed $95 $-1 #
coedge $-1 $155 $97 $245 $246 reversed $61 $-1 #
coedge $-1 $97 $154 $241 $247 reversed $61 $-1 #
coedge $-1 $243 $248 $97 $157 forward $238 $-1 #
edge $-1 $249 -37.837179458987023 $250 -32.752065781596514 $156 $251 forward 7 unknown #
loop $-1 $-1 $163 $98 #
plane-surface $-1 -32.431668122287697 6.4457780623285856 76.898548188670986 0.6018150307709319 0 0.79863550430605224 0.79863550430605224 0 -0.6018150307709319 forward_v I I I I #
loop $-1 $-1 $252 $63 #
coedge $-1 $161 $161 $162 $253 reversed $99 $-1 #
coedge $-1 $162 $162 $161 $253 forward $101 $-1 #
coedge $-1 $163 $163 $102 $164 forward $158 $-1 #
edge $-1 $254 0 $254 6.2831853071796004 $163 $255 forward 7 unknown #
face $-1 $256 $257 $34 $-1 $258 forward single #
loop $-1 $-1 $171 $103 #
plane-surface $-1 54.299752800073243 0 0 -1 0 0 0 0 1 forward_v I I I I #
coedge $-1 $259 $260 $261 $262 reversed $104 $-1 #
coedge $-1 $170 $106 $263 $264 reversed $67 $-1 #
coedge $-1 $106 $169 $259 $265 reversed $67 $-1 #
coedge $-1 $261 $266 $106 $172 forward $166 $-1 #
edge $-1 $267 66.441343088416176 $268 70.273251171305134 $171 $269 forward 7 unknown #
loop $-1 $-1 $178 $107 #
plane-surface $-1 -32.431668122287697 33.425577059647907 76.898548188670986 0.6018150307709319 0 0.79863550430605224 0.79863550430605224 0 -0.6018150307709319 forward_v I I I I #
loop $-1 $-1 $270 $69 #
coedge $-1 $176 $176 $177 $271 reversed $108 $-1 #
coedge $-1 $177 $177 $176 $271 forward $110 $-1 #
coedge $-1 $178 $178 $111 $179 forward $173 $-1 #
edge $-1 $272 0 $272 6.2831853071796004 $178 $273 forward 7 unknown #
face $-1 $274 $275 $27 $-1 $276 reversed single #
loop $-1 $-1 $277 $112 #
plane-surface $-1 -54.299752800073243 0 0 1 0 0 0 0 -1 forward_v I I I I #
coedge $-1 $118 $278 $279 $280 forward $113 $-1 #
coedge $-1 $281 $115 $282 $283 forward $73 $-1 #
coedge $-1 $115 $281 $188 $284 forward $73 $-1 #
coedge $-1 $189 $285 $115 $187 reversed $286 $-1 #
edge $-1 $287 -36.725703346513967 $288 36.725703346513967 $186 $289 forward 7 unknown #
coedge $-1 $117 $116 $185 $284 reversed $46 $-1 #
coedge $-1 $279 $186 $116 $190 forward $286 $-1 #
edge $-1 $287 -15.373641467099789 $194 15.373641467099789 $189 $290 forward 7 unknown #
coedge $-1 $291 $292 $117 $192 reversed $181 $-1 #
edge $-1 $293 -15.373641467099789 $195 15.373641467099789 $191 $294 forward 7 unknown #
coedge $-1 $278 $118 $292 $295 forward $113 $-1 #
vertex $-1 $190 $296 #
vertex $-1 $295 $297 #
straight-curve $-1 0 -36.725703346513967 -15.373641467099789 -1 0 0 I I #
face $-1 $298 $209 $28 $-1 $299 reversed single #
loop $-1 $-1 $300 $120 #
plane-surface $-1 -51.131329136281266 -56.217512044903259 0 0 1 0 0 0 1 forward_v I I I I #
coedge $-1 $301 $302 $204 $303 forward $121 $-1 #
coedge $-1 $304 $123 $302 $305 forward $77 $-1 #
coedge $-1 $123 $304 $207 $306 forward $77 $-1 #
edge $-1 $210 47.962905472489297 $307 54.299752800073243 $123 $308 forward 7 unknown #
coedge $-1 $125 $124 $200 $303 reversed $49 $-1 #
coedge $-1 $309 $310 $124 $206 forward $311 $-1 #
edge $-1 $312 -54.299752800073243 $211 -47.962905472489297 $205 $313 forward 7 unknown #
coedge $-1 $314 $126 $202 $306 reversed $209 $-1 #
coedge $-1 $126 $314 $309 $315 reversed $209 $-1 #
loop $-1 $-1 $314 $197 #
vertex $-1 $203 $316 #
vertex $-1 $315 $317 #
straight-curve $-1 -47.962905472489297 -36.725703346513967 0 0 0 -1 I I #
face $-1 $-1 $225 $29 $-1 $318 forward single #
loop $-1 $-1 $319 $128 #
plane-surface $-1 -54.299752800073243 0 0 1 0 0 0 0 -1 forward_v I I I I #
coedge $-1 $320 $321 $322 $323 reversed $129 $-1 #
coedge $-1 $324 $131 $133 $223 forward $81 $-1 #
coedge $-1 $131 $324 $320 $325 forward $81 $-1 #
coedge $-1 $322 $134 $131 $220 forward $225 $-1 #
edge $-1 $227 -11.665401145707282 $326 0.52841414087247962 $219 $327 forward 7 unknown #
coedge $-1 $328 $329 $132 $222 forward $214 $-1 #
edge $-1 $330 -24.484874702682774 $226 -12.791567405276735 $221 $331 forward 7 unknown #
edge $-1 $227 -13.36959034882431 $330 -1.4708645604606407e-014 $133 $332 forward 7 unknown #
coedge $-1 $134 $322 $328 $333 forward $225 $-1 #
loop $-1 $-1 $322 $213 #
vertex $-1 $222 $334 #
vertex $-1 $135 $335 #
straight-curve $-1 -74.641510705815989 -17.233894648124682 15.373641467099787 1 0 0 I I #
coedge $-1 $229 $229 $-1 $336 reversed $138 $-1 #
edge $-1 $337 0 $337 6.2831853071796004 $139 $338 forward 7 unknown #
vertex $-1 $142 $339 #
ellipse-curve $-1 -51.058899882097549 -13.749947423387606 9.5269878183967656 -0.87461971476443456 0 0.48480960649040278 0.72721440973560414 0 1.311929572146652 1 I I #
coedge $-1 $233 $233 $-1 $340 reversed $145 $-1 #
edge $-1 $341 0 $341 6.2831853071796004 $146 $342 forward 7 unknown #
vertex $-1 $149 $343 #
ellipse-curve $-1 -51.058899882097549 -8.5240265862819982 9.5269878183967656 -0.87461971476443456 0 0.48480960649040278 0.72721440973560414 0 1.311929572146652 1 I I #
face $-1 $-1 $344 $32 $-1 $345 reversed single #
loop $-1 $-1 $156 $150 #
plane-surface $-1 0 0 15.373641467099789 0 0 1 1 0 0 forward_v I I I I #
coedge $-1 $346 $347 $348 $349 reversed $151 $-1 #
coedge $-1 $350 $153 $155 $247 forward $95 $-1 #
coedge $-1 $153 $350 $346 $351 forward $95 $-1 #
coedge $-1 $348 $156 $153 $244 forward $238 $-1 #
edge $-1 $250 -6.5230153180303496 $352 0.077237255701763985 $243 $353 forward 7 unknown #
coedge $-1 $354 $355 $154 $246 forward $344 $-1 #
edge $-1 $356 -70.273251171305134 $249 -66.441343088416176 $245 $357 forward 7 unknown #
edge $-1 $250 102.23225339313494 $356 108.59950560014651 $155 $358 forward 7 unknown #
coedge $-1 $156 $348 $354 $359 forward $238 $-1 #
vertex $-1 $157 $360 #
vertex $-1 $157 $361 #
straight-curve $-1 16.462573341086223 9.7459043491946424 15.373641467099787 -1 0 0 I I #
coedge $-1 $252 $252 $-1 $362 reversed $160 $-1 #
edge $-1 $363 0 $363 6.2831853071796004 $161 $364 forward 7 unknown #
vertex $-1 $164 $365 #
ellipse-curve $-1 51.757195961377995 6.4457780623285856 13.457687425655298 0.6018150307709319 0 0.79863550430605224 1.1979532564590785 0 -0.90272254615639791 1 I I #
face $-1 $-1 $366 $34 $-1 $367 reversed single #
loop $-1 $-1 $263 $165 #
plane-surface $-1 0 0 15.373641467099789 0 0 1 1 0 0 forward_v I I I I #
coedge $-1 $368 $168 $170 $265 forward $104 $-1 #
coedge $-1 $168 $368 $369 $370 reversed $104 $-1 #
coedge $-1 $371 $171 $168 $262 forward $166 $-1 #
edge $-1 $268 13.412662242957897 $372 20.012914816690014 $261 $373 forward 7 unknown #
coedge $-1 $374 $375 $169 $264 forward $257 $-1 #
edge $-1 $376 32.752065781596514 $267 37.837179458987023 $263 $377 forward 7 unknown #
edge $-1 $268 -108.59950560014651 $376 -102.23225339313494 $170 $378 forward 7 unknown #
coedge $-1 $171 $371 $374 $379 reversed $166 $-1 #
vertex $-1 $379 $380 #
vertex $-1 $172 $381 #
straight-curve $-1 54.299752800073243 30.12545077278185 81.814984555515963 0 0 -1 I I #
coedge $-1 $270 $270 $-1 $382 reversed $175 $-1 #
edge $-1 $383 0 $383 6.2831853071796004 $176 $384 forward 7 unknown #
vertex $-1 $179 $385 #
ellipse-curve $-1 51.757195961377995 33.425577059647907 13.457687425655298 0.6018150307709319 0 0.79863550430605224 1.1979532564590785 0 -0.90272254615639791 1 I I #
face $-1 $-1 $286 $27 $-1 $386 reversed single #
loop $-1 $-1 $387 $180 #
plane-surface $-1 0 36.725703346513967 0 0 -1 0 0 0 -1 forward_v I I I I #
coedge $-1 $292 $291 $388 $389 forward $181 $-1 #
coedge $-1 $183 $193 $390 $391 forward $113 $-1 #
coedge $-1 $285 $189 $183 $280 reversed $286 $-1 #
edge $-1 $392 -36.725703346513967 $194 36.725703346513967 $279 $393 forward 7 unknown #
coedge $-1 $185 $184 $291 $394 forward $73 $-1 #
coedge $-1 $387 $388 $184 $283 reversed $275 $-1 #
edge $-1 $288 -54.299752800073243 $395 54.299752800073243 $282 $396 forward 7 unknown #
edge $-1 $293 -54.299752800073243 $287 54.299752800073243 $188 $397 forward 7 unknown #
coedge $-1 $186 $279 $387 $398 reversed $286 $-1 #
loop $-1 $-1 $189 $274 #
vertex $-1 $187 $399 #
vertex $-1 $187 $400 #
straight-curve $-1 54.299752800073243 0 15.373641467099789 0 1 0 I I #
straight-curve $-1 54.299752800073243 -36.725703346513967 0 0 0 -1 I I #
coedge $-1 $277 $191 $281 $394 reversed $181 $-1 #
coedge $-1 $191 $277 $193 $295 reversed $181 $-1 #
vertex $-1 $394 $401 #
straight-curve $-1 -54.299752800073243 -36.725703346513967 0 0 0 -1 I I #
edge $-1 $195 -36.725703346513967 $402 36.725703346513967 $292 $403 forward 7 unknown #
point $-1 54.299752800073243 -36.725703346513967 -15.373641467099789 #
point $-1 -54.299752800073243 -36.725703346513967 -15.373641467099789 #
face $-1 $-1 $311 $28 $-1 $404 reversed single #
plane-surface $-1 -47.962905472489297 -46.471607695708613 0 -1 0 0 0 0 1 forward_v I I I I #
coedge $-1 $405 $406 $407 $408 forward $198 $-1 #
coedge $-1 $407 $200 $310 $409 reversed $121 $-1 #
coedge $-1 $200 $407 $201 $305 reversed $121 $-1 #
edge $-1 $307 -15.373641467099789 $312 15.373641467099789 $200 $410 forward 7 unknown #
coedge $-1 $202 $201 $406 $411 forward $77 $-1 #
edge $-1 $307 36.725703346513967 $412 56.217512044903259 $302 $413 forward 7 unknown #
edge $-1 $414 -9.745904349194646 $210 9.745904349194646 $207 $415 forward 7 unknown #
vertex $-1 $305 $416 #
straight-curve $-1 0 -36.725703346513967 15.373641467099789 -1 0 0 I I #
coedge $-1 $417 $205 $208 $315 forward $311 $-1 #
coedge $-1 $205 $417 $301 $409 forward $311 $-1 #
loop $-1 $-1 $205 $298 #
vertex $-1 $303 $418 #
straight-curve $-1 0 -36.725703346513967 -15.373641467099789 1 0 0 I I #
coedge $-1 $208 $207 $419 $420 forward $209 $-1 #
edge $-1 $211 -9.745904349194646 $421 9.745904349194646 $208 $422 forward 7 unknown #
point $-1 -47.962905472489297 -36.725703346513967 15.373641467099789 #
point $-1 -47.962905472489297 -36.725703346513967 -15.373641467099789 #
plane-surface $-1 0 0 15.373641467099789 0 0 1 1 0 0 forward_v I I I I #
coedge $-1 $329 $328 $321 $423 forward $214 $-1 #
coedge $-1 $321 $216 $218 $325 reversed $129 $-1 #
coedge $-1 $216 $320 $319 $423 reversed $129 $-1 #
coedge $-1 $224 $219 $216 $323 forward $225 $-1 #
edge $-1 $326 -26.823463741694141 $424 -20.341757905742746 $322 $425 forward 7 unknown #
coedge $-1 $218 $217 $329 $426 reversed $81 $-1 #
edge $-1 $427 1.4708645604606407e-014 $326 13.36959034882431 $320 $428 forward 7 unknown #
vertex $-1 $220 $429 #
straight-curve $-1 -47.818046964121848 -5.5684935024174003 15.373641467099789 0 1 0 I I #
coedge $-1 $319 $221 $224 $333 reversed $214 $-1 #
coedge $-1 $221 $319 $324 $426 forward $214 $-1 #
vertex $-1 $222 $430 #
straight-curve $-1 -54.299752800073243 -17.233894648124682 28.165208872376525 0 0 1 I I #
straight-curve $-1 -54.29975280007325 -17.233894648124682 3.6803341696937366 -0.48480960649040278 0 -0.87461971476443456 I I #
edge $-1 $424 5.0400793615449206 $226 17.233894648124682 $328 $431 forward 7 unknown #
point $-1 -54.299752800073243 -17.233894648124682 15.373641467099789 #
point $-1 -47.818046964121848 -17.233894648124682 15.373641467099789 #
edge $-1 $432 1 $432 0 $229 $-1 forward 7 unknown #
vertex $-1 $230 $433 #
ellipse-curve $-1 -46.813055847602726 -13.749947423387606 7.1734781263159446 -0.87461971476443456 0 0.48480960649040278 0.72721440973560414 0 1.311929572146652 1 I I #
point $-1 -50.33168547236194 -13.749947423387606 10.838917390543415 #
edge $-1 $434 1 $434 0 $233 $-1 forward 7 unknown #
vertex $-1 $234 $435 #
ellipse-curve $-1 -46.813055847602726 -8.5240265862819982 7.1734781263159446 -0.87461971476443456 0 0.48480960649040278 0.72721440973560414 0 1.311929572146652 1 I I #
point $-1 -50.33168547236194 -8.5240265862819982 10.838917390543415 #
loop $-1 $-1 $245 $237 #
plane-surface $-1 54.299752800073243 0 0 -1 0 0 0 0 1 forward_v I I I I #
coedge $-1 $347 $240 $242 $351 reversed $151 $-1 #
coedge $-1 $240 $346 $436 $437 reversed $151 $-1 #
coedge $-1 $248 $243 $240 $349 forward $238 $-1 #
edge $-1 $352 32.752065781596514 $438 37.837179458987023 $348 $439 forward 7 unknown #
coedge $-1 $242 $241 $355 $440 reversed $95 $-1 #
edge $-1 $441 -108.59950560014651 $352 -102.23225339313494 $346 $442 forward 7 unknown #
vertex $-1 $244 $443 #
straight-curve $-1 49.214639122682726 3.2228890311642928 15.373641467099787 0 -1 0 I I #
coedge $-1 $436 $245 $248 $359 reversed $344 $-1 #
coedge $-1 $245 $436 $350 $440 forward $344 $-1 #
vertex $-1 $246 $444 #
straight-curve $-1 54.299752800073243 9.7459043491946424 81.814984555515963 0 0 1 I I #
straight-curve $-1 -32.431668122287697 9.7459043491946424 76.898548188670986 0.79863550430605224 0 -0.6018150307709319 I I #
edge $-1 $438 3.1456517754625288 $249 9.7459043491946424 $354 $445 forward 7 unknown #
point $-1 54.299752800073243 9.7459043491946424 15.373641467099789 #
point $-1 49.214639122682733 9.7459043491946424 15.37364146709978 #
edge $-1 $446 1 $446 0 $252 $-1 forward 7 unknown #
vertex $-1 $253 $447 #
ellipse-curve $-1 49.92301648338325 6.4457780623285856 11.023649095772329 0.6018150307709319 0 0.79863550430605224 1.1979532564590785 0 -0.90272254615639791 1 I I #
point $-1 52.955149217837096 6.4457780623285856 12.554964879498925 #
loop $-1 $-1 $369 $256 #
plane-surface $-1 0 36.725703346513967 0 0 -1 0 0 0 -1 forward_v I I I I #
coedge $-1 $260 $259 $375 $448 reversed $104 $-1 #
coedge $-1 $449 $450 $260 $370 forward $366 $-1 #
edge $-1 $372 -72.509613714779121 $451 -66.142361507767561 $369 $452 forward 7 unknown #
coedge $-1 $266 $261 $450 $453 reversed $166 $-1 #
vertex $-1 $262 $454 #
straight-curve $-1 54.299752800073236 16.712788529823953 11.541733384210833 0 1 0 I I #
coedge $-1 $455 $263 $266 $379 forward $257 $-1 #
coedge $-1 $263 $455 $368 $448 forward $257 $-1 #
vertex $-1 $264 $456 #
straight-curve $-1 16.462573341086223 30.12545077278185 15.373641467099787 1 0 0 I I #
straight-curve $-1 -32.431668122287697 30.12545077278185 76.898548188670986 -0.79863550430605224 0 0.6018150307709319 I I #
edge $-1 $267 30.12545077278185 $457 36.725703346513967 $266 $458 forward 7 unknown #
point $-1 54.299752800073243 30.12545077278185 15.373641467099789 #
point $-1 54.299752800073243 30.12545077278185 11.541733384210829 #
edge $-1 $459 1 $459 0 $270 $-1 forward 7 unknown #
vertex $-1 $271 $460 #
ellipse-curve $-1 49.92301648338325 33.425577059647907 11.023649095772329 0.6018150307709319 0 0.79863550430605224 1.1979532564590785 0 -0.90272254615639791 1 I I #
point $-1 52.955149217837096 33.425577059647907 12.554964879498925 #
plane-surface $-1 54.299752800073243 0 0 -1 0 0 0 0 1 forward_v I I I I #
coedge $-1 $390 $282 $285 $398 forward $275 $-1 #
coedge $-1 $282 $390 $277 $389 reversed $275 $-1 #
edge $-1 $395 -15.373641467099789 $402 15.373641467099789 $388 $461 forward 7 unknown #
coedge $-1 $388 $387 $278 $391 reversed $275 $-1 #
edge $-1 $402 -54.299752800073243 $392 54.299752800073243 $390 $462 forward 7 unknown #
vertex $-1 $280 $463 #
straight-curve $-1 54.299752800073243 0 -15.373641467099789 0 -1 0 I I #
edge $-1 $395 -36.725703346513967 $293 36.725703346513967 $291 $464 forward 7 unknown #
vertex $-1 $283 $465 #
straight-curve $-1 0 36.725703346513967 15.373641467099789 -1 0 0 I I #
straight-curve $-1 0 -36.725703346513967 15.373641467099789 1 0 0 I I #
edge $-1 $288 -15.373641467099789 $392 15.373641467099789 $285 $466 forward 7 unknown #
point $-1 54.299752800073243 -36.725703346513967 15.373641467099789 #
point $-1 54.299752800073243 36.725703346513967 15.373641467099789 #
point $-1 -54.299752800073243 -36.725703346513967 15.373641467099789 #
vertex $-1 $391 $467 #
straight-curve $-1 -54.299752800073243 0 -15.373641467099789 0 1 0 I I #
plane-surface $-1 0 0 -15.373641467099789 0 0 1 1 0 0 forward_v I I I I #
coedge $-1 $419 $300 $417 $468 reversed $198 $-1 #
coedge $-1 $300 $419 $304 $411 reversed $198 $-1 #
coedge $-1 $302 $301 $300 $408 reversed $121 $-1 #
edge $-1 $412 -15.373641467099789 $469 15.373641467099789 $407 $470 forward 7 unknown #
edge $-1 $469 -56.217512044903259 $312 -36.725703346513967 $301 $471 forward 7 unknown #
straight-curve $-1 -54.299752800073243 -36.725703346513967 0 0 0 -1 I I #
edge $-1 $412 -3.1684236637919696 $414 3.1684236637919696 $406 $472 forward 7 unknown #
vertex $-1 $305 $473 #
straight-curve $-1 -54.299752800073243 0 15.373641467099789 0 -1 0 I I #
vertex $-1 $306 $474 #
straight-curve $-1 -47.962905472489297 -46.471607695708613 15.373641467099789 0 1 0 I I #
point $-1 -54.299752800073243 -36.725703346513967 15.373641467099789 #
coedge $-1 $310 $309 $405 $468 forward $311 $-1 #
point $-1 -54.299752800073243 -36.725703346513967 -15.373641467099789 #
coedge $-1 $406 $405 $314 $420 reversed $198 $-1 #
edge $-1 $414 -15.373641467099789 $421 15.373641467099789 $314 $475 forward 7 unknown #
vertex $-1 $420 $476 #
straight-curve $-1 -47.962905472489297 -46.471607695708613 -15.373641467099789 0 -1 0 I I #
edge $-1 $424 12.791567405276735 $427 24.484874702682774 $319 $477 forward 7 unknown #
vertex $-1 $333 $478 #
straight-curve $-1 -74.641510705815989 -5.0400793615449206 15.373641467099787 -1 0 0 I I #
edge $-1 $427 -0.52841414087247962 $330 11.665401145707282 $329 $479 forward 7 unknown #
vertex $-1 $426 $480 #
straight-curve $-1 -54.29975280007325 -5.0400793615449206 3.6803341696937366 0.48480960649040278 0 0.87461971476443456 I I #
point $-1 -47.818046964121848 -5.0400793615449206 15.373641467099789 #
point $-1 -54.299752800073243 -17.233894648124682 3.6803341696937495 #
straight-curve $-1 -54.299752800073243 0 15.373641467099789 0 -1 0 I I #
vertex $-1 $336 $481 #
point $-1 -46.085841437867124 -13.749947423387606 8.4854076984625966 #
vertex $-1 $340 $482 #
point $-1 -46.085841437867124 -8.5240265862819982 8.4854076984625966 #
coedge $-1 $355 $354 $347 $437 forward $344 $-1 #
edge $-1 $438 66.441343088416176 $441 70.273251171305134 $436 $483 forward 7 unknown #
vertex $-1 $359 $484 #
straight-curve $-1 16.462573341086223 3.1456517754625288 15.373641467099787 1 0 0 I I #
edge $-1 $441 -0.077237255701763985 $356 6.5230153180303496 $355 $485 forward 7 unknown #
vertex $-1 $440 $486 #
straight-curve $-1 -32.431668122287697 3.1456517754625288 76.898548188670986 -0.79863550430605224 0 0.6018150307709319 I I #
point $-1 49.214639122682733 3.1456517754625288 15.37364146709978 #
point $-1 54.299752800073243 9.7459043491946424 11.541733384210829 #
straight-curve $-1 54.299752800073243 0 15.373641467099789 0 1 0 I I #
vertex $-1 $362 $487 #
point $-1 51.12096973984233 6.4457780623285856 10.120926549615932 #
edge $-1 $451 -20.012914816690014 $376 -13.412662242957897 $375 $488 forward 7 unknown #
coedge $-1 $450 $369 $455 $489 reversed $366 $-1 #
coedge $-1 $369 $449 $371 $453 forward $366 $-1 #
vertex $-1 $370 $490 #
straight-curve $-1 -3.6089991160664123 36.725703346513967 55.179108793159017 -0.79863550430605224 0 0.6018150307709319 I I #
edge $-1 $457 -15.373641467099789 $372 -11.541733384210831 $371 $491 forward 7 unknown #
point $-1 54.299752800073243 36.725703346513967 11.541733384210831 #
coedge $-1 $375 $374 $449 $489 forward $257 $-1 #
point $-1 49.214639122682733 30.12545077278185 15.37364146709978 #
vertex $-1 $379 $492 #
straight-curve $-1 54.299752800073243 0 15.373641467099789 0 1 0 I I #
vertex $-1 $382 $493 #
point $-1 51.12096973984233 33.425577059647907 10.120926549615932 #
straight-curve $-1 -54.299752800073243 36.725703346513967 0 0 0 -1 I I #
straight-curve $-1 0 36.725703346513967 -15.373641467099789 1 0 0 I I #
point $-1 54.299752800073243 36.725703346513967 -15.373641467099789 #
straight-curve $-1 -54.299752800073243 0 15.373641467099789 0 -1 0 I I #
point $-1 -54.299752800073243 36.725703346513967 15.373641467099789 #
straight-curve $-1 54.299752800073243 36.725703346513967 0 0 0 -1 I I #
point $-1 -54.299752800073243 36.725703346513967 -15.373641467099789 #
edge $-1 $421 -3.1684236637919696 $469 3.1684236637919696 $405 $494 forward 7 unknown #
vertex $-1 $409 $495 #
straight-curve $-1 -54.299752800073236 -56.217512044903259 0 0 0 -1 I I #
straight-curve $-1 -54.299752800073243 0 -15.373641467099789 0 1 0 I I #
straight-curve $-1 -51.131329136281266 -56.217512044903259 15.373641467099789 1 0 0 I I #
point $-1 -54.299752800073236 -56.217512044903259 15.373641467099789 #
point $-1 -47.962905472489297 -56.217512044903259 15.373641467099789 #
straight-curve $-1 -47.962905472489297 -56.217512044903259 0 0 0 -1 I I #
point $-1 -47.962905472489297 -56.217512044903259 -15.373641467099789 #
straight-curve $-1 -54.299752800073243 -5.0400793615449206 28.165208872376525 0 0 -1 I I #
point $-1 -54.299752800073243 -5.0400793615449206 15.373641467099789 #
straight-curve $-1 -54.299752800073243 -5.5684935024174003 3.6803341696937619 0 -1 0 I I #
point $-1 -54.299752800073243 -5.0400793615449206 3.6803341696937495 #
point $-1 -45.501126275456073 -13.749947423387606 6.4462637165803409 #
point $-1 -45.501126275456073 -8.5240265862819982 6.4462637165803409 #
straight-curve $-1 54.299752800073243 3.1456517754625288 81.814984555515963 0 0 -1 I I #
point $-1 54.299752800073243 3.1456517754625288 15.373641467099789 #
straight-curve $-1 54.299752800073236 3.2228890311642928 11.541733384210833 0 1 0 I I #
point $-1 54.299752800073243 3.1456517754625288 11.541733384210829 #
point $-1 49.020293937226853 6.4457780623285856 9.8256958393132496 #
straight-curve $-1 49.214639122682726 16.712788529823953 15.373641467099787 0 -1 0 I I #
edge $-1 $457 -54.299752800073243 $451 -49.214639122682733 $449 $496 forward 7 unknown #
point $-1 49.214639122682733 36.725703346513967 15.37364146709978 #
straight-curve $-1 54.299752800073243 36.725703346513967 0 0 0 -1 I I #
point $-1 54.299752800073243 36.725703346513967 15.373641467099789 #
point $-1 49.020293937226853 33.425577059647907 9.8256958393132496 #
straight-curve $-1 -51.131329136281266 -56.217512044903259 -15.373641467099789 -1 0 0 I I #
point $-1 -54.299752800073236 -56.217512044903259 -15.373641467099789 #
straight-curve $-1 0 36.725703346513967 15.373641467099789 -1 0 0 I I #
End-of-ACIS-data 