500 0 9 0           
7 Unknown 11 ACIS 5.0 NT 24 Thu Mar 25 22:53:24 1999 
-1 9.9999999999999995e-007 1e-010 
body $-1 $9 $-1 $10 #
body $-1 $11 $-1 $12 #
body $-1 $13 $-1 $14 #
body $-1 $15 $-1 $16 #
body $-1 $17 $-1 $18 #
body $-1 $19 $-1 $20 #
body $-1 $21 $-1 $22 #
body $-1 $23 $-1 $24 #
body $-1 $25 $-1 $26 #
lump $-1 $-1 $27 $0 #
transform $-1 1 0 0 0 1 0 0 0 1 46.899624622333448 21.021028076368371 7.7849077914951792 1 rotate no_reflect no_shear #
lump $-1 $-1 $28 $1 #
transform $-1 1 0 0 0 1 0 0 0 1 46.899624622333448 21.021028076368371 7.7849077914951792 1 rotate no_reflect no_shear #
lump $-1 $-1 $29 $2 #
transform $-1 1 0 0 0 1 0 0 0 1 46.899624622333448 21.021028076368371 7.7849077914951792 1 rotate no_reflect no_shear #
lump $-1 $-1 $30 $3 #
transform $-1 1 0 0 0 1 0 0 0 1 46.899624622333448 21.021028076368371 7.7849077914951792 1 rotate no_reflect no_shear #
lump $-1 $-1 $31 $4 #
transform $-1 1 0 0 0 1 0 0 0 1 46.899624622333448 21.021028076368371 7.7849077914951792 1 rotate no_reflect no_shear #
lump $-1 $-1 $32 $5 #
transform $-1 1 0 0 0 1 0 0 0 1 46.899624622333448 21.021028076368371 7.7849077914951792 1 rotate no_reflect no_shear #
lump $-1 $-1 $33 $6 #
transform $-1 1 0 0 0 1 0 0 0 1 46.899624622333448 21.021028076368371 7.7849077914951792 1 rotate no_reflect no_shear #
lump $-1 $-1 $34 $7 #
transform $-1 1 0 0 0 1 0 0 0 1 46.899624622333448 21.021028076368371 7.7849077914951792 1 rotate no_reflect no_shear #
lump $-1 $-1 $35 $8 #
transform $-1 1 0 0 0 1 0 0 0 1 46.899624622333448 21.021028076368371 7.7849077914951792 1 rotate no_reflect no_shear #
shell $-1 $-1 $-1 $36 $-1 $9 #
shell $-1 $-1 $-1 $37 $-1 $11 #
shell $-1 $-1 $-1 $38 $-1 $13 #
shell $-1 $-1 $-1 $39 $-1 $15 #
shell $-1 $-1 $-1 $40 $-1 $17 #
shell $-1 $-1 $-1 $41 $-1 $19 #
shell $-1 $-1 $-1 $42 $-1 $21 #
shell $-1 $-1 $-1 $43 $-1 $23 #
shell $-1 $-1 $-1 $44 $-1 $25 #
face $-1 $45 $46 $27 $-1 $47 forward single #
face $-1 $48 $49 $28 $-1 $50 forward single #
face $-1 $51 $52 $29 $-1 $53 reversed single #
face $-1 $54 $55 $30 $-1 $56 forward single #
face $-1 $57 $58 $31 $-1 $59 forward single #
face $-1 $60 $61 $32 $-1 $62 forward single #
face $-1 $63 $64 $33 $-1 $65 reversed single #
face $-1 $66 $67 $34 $-1 $68 forward single #
face $-1 $69 $70 $35 $-1 $71 forward single #
face $-1 $72 $73 $27 $-1 $74 reversed single #
loop $-1 $-1 $75 $36 #
plane-surface $-1 0 0 7.7849077914951792 0 0 1 1 0 0 forward_v I I I I #
face $-1 $76 $77 $28 $-1 $78 forward single #
loop $-1 $-1 $79 $37 #
plane-surface $-1 0 -21.021028076368371 0 0 1 0 0 0 1 forward_v I I I I #
face $-1 $80 $81 $29 $-1 $82 reversed single #
loop $-1 $-1 $83 $38 #
plane-surface $-1 -119.7953331367377 3.3964561143641525 63.143103108665535 0 1 0 -0.77714596973225614 0 0.62932038083071107 forward_v I I I I #
face $-1 $84 $85 $30 $-1 $86 forward single #
loop $-1 $87 $88 $39 #
cone-surface $-1 -44.928478520166294 5.2389448590797087 5.5567340747371672 0.77714596973225614 0 -0.62932038083071107 0.31466019041535553 0 0.38857298486612807 1 I I 0 1 0.5 forward I I I I #
face $-1 $89 $90 $31 $-1 $91 forward single #
loop $-1 $92 $93 $40 #
cone-surface $-1 -44.928478520166294 8.0026779761530449 5.5567340747371672 0.77714596973225614 0 -0.62932038083071107 0.31466019041535553 0 0.38857298486612807 1 I I 0 1 0.5 forward I I I I #
face $-1 $94 $95 $32 $-1 $96 forward single #
loop $-1 $97 $98 $41 #
cone-surface $-1 -44.928478520166294 10.766411093226381 5.5567340747371672 0.77714596973225614 0 -0.62932038083071107 0.31466019041535553 0 0.38857298486612807 1 I I 0 1 0.5 forward I I I I #
face $-1 $99 $100 $33 $-1 $101 reversed single #
loop $-1 $-1 $102 $42 #
plane-surface $-1 67.650997762944996 13.032922181996035 131.79309756501473 0 1 0 0.80901700255871778 0 0.5877852410284794 forward_v I I I I #
face $-1 $103 $104 $34 $-1 $105 forward single #
loop $-1 $106 $107 $43 #
cone-surface $-1 43.948289652076909 15.315238151816704 3.9856091618679872 -0.80901700255871778 0 -0.5877852410284794 0.2938926205142397 0 -0.40450850127935889 1 I I 0 1 0.5 forward I I I I #
face $-1 $108 $109 $35 $-1 $110 forward single #
loop $-1 $111 $112 $44 #
cone-surface $-1 43.948289652076909 18.738712106547705 3.9856091618679872 -0.80901700255871778 0 -0.5877852410284794 0.2938926205142397 0 -0.40450850127935889 1 I I 0 1 0.5 forward I I I I #
face $-1 $113 $114 $27 $-1 $115 reversed single #
loop $-1 $-1 $116 $45 #
plane-surface $-1 0 0 -7.7849077914951792 0 0 1 1 0 0 forward_v I I I I #
coedge $-1 $117 $118 $119 $120 forward $46 $-1 #
face $-1 $121 $122 $28 $-1 $123 reversed single #
loop $-1 $-1 $124 $48 #
plane-surface $-1 0 0 7.7849077914951792 0 0 1 1 0 0 forward_v I I I I #
coedge $-1 $125 $126 $127 $128 forward $49 $-1 #
face $-1 $129 $130 $29 $-1 $131 reversed single #
loop $-1 $-1 $132 $51 #
plane-surface $-1 -46.899624622333448 8.0026779761530449 4.1133238523769791 -0.77714596973225614 0 0.62932038083071107 0.62932038083071107 0 0.77714596973225614 forward_v I I I I #
coedge $-1 $133 $134 $135 $136 reversed $52 $-1 #
face $-1 $-1 $137 $30 $-1 $138 forward single #
loop $-1 $139 $140 $54 #
cone-surface $-1 -44.249640910813085 5.2389448590797087 5.0070222323305806 0.77714596973225614 0 -0.62932038083071107 0.15733009520767777 0 0.19428649243306403 1 I I -0.70710678118654746 0.70710678118654746 0.25 forward I I I I #
loop $-1 $-1 $141 $39 #
coedge $-1 $88 $88 $142 $143 reversed $55 $-1 #
face $-1 $-1 $144 $31 $-1 $145 forward single #
loop $-1 $146 $147 $57 #
cone-surface $-1 -44.249640910813085 8.0026779761530449 5.0070222323305806 0.77714596973225614 0 -0.62932038083071107 0.15733009520767777 0 0.19428649243306403 1 I I -0.70710678118654746 0.70710678118654746 0.25 forward I I I I #
loop $-1 $-1 $148 $40 #
coedge $-1 $93 $93 $149 $150 reversed $58 $-1 #
face $-1 $-1 $151 $32 $-1 $152 forward single #
loop $-1 $153 $154 $60 #
cone-surface $-1 -44.249640910813085 10.766411093226381 5.0070222323305806 0.77714596973225614 0 -0.62932038083071107 0.15733009520767777 0 0.19428649243306403 1 I I -0.70710678118654746 0.70710678118654746 0.25 forward I I I I #
loop $-1 $-1 $155 $41 #
coedge $-1 $98 $98 $156 $157 reversed $61 $-1 #
face $-1 $158 $159 $33 $-1 $160 forward single #
loop $-1 $-1 $161 $63 #
plane-surface $-1 -8.2341897032334828 17.026975129182201 76.659283239447788 0.80901700255871778 0 0.5877852410284794 0.5877852410284794 0 -0.80901700255871778 forward_v I I I I #
coedge $-1 $162 $163 $164 $165 reversed $64 $-1 #
face $-1 $-1 $166 $34 $-1 $167 forward single #
loop $-1 $168 $169 $66 #
cone-surface $-1 43.341526900157874 15.315238151816704 3.5447702310966278 -0.80901700255871778 0 -0.5877852410284794 0.14694631025711985 0 -0.20225425063967944 1 I I -0.70710678118654746 0.70710678118654746 0.25 forward I I I I #
loop $-1 $-1 $170 $43 #
coedge $-1 $107 $107 $171 $172 reversed $67 $-1 #
face $-1 $-1 $173 $35 $-1 $174 forward single #
loop $-1 $175 $176 $69 #
cone-surface $-1 43.341526900157874 18.738712106547705 3.5447702310966278 -0.80901700255871778 0 -0.5877852410284794 0.14694631025711985 0 -0.20225425063967944 1 I I -0.70710678118654746 0.70710678118654746 0.25 forward I I I I #
loop $-1 $-1 $177 $44 #
coedge $-1 $112 $112 $178 $179 reversed $70 $-1 #
face $-1 $180 $181 $27 $-1 $182 reversed single #
loop $-1 $-1 $183 $72 #
plane-surface $-1 0 -21.021028076368371 0 0 1 0 0 0 1 forward_v I I I I #
coedge $-1 $184 $185 $186 $187 forward $73 $-1 #
coedge $-1 $188 $75 $189 $190 forward $46 $-1 #
coedge $-1 $75 $188 $191 $192 forward $46 $-1 #
coedge $-1 $193 $194 $75 $120 reversed $195 $-1 #
edge $-1 $196 -21.021028076368371 $197 21.021028076368371 $119 $198 forward 7 unknown #
face $-1 $199 $200 $28 $-1 $201 reversed single #
loop $-1 $-1 $202 $76 #
plane-surface $-1 -46.899624622333448 0 0 1 0 0 0 0 -1 forward_v I I I I #
coedge $-1 $203 $204 $126 $205 forward $77 $-1 #
coedge $-1 $206 $79 $207 $208 reversed $49 $-1 #
coedge $-1 $79 $206 $124 $205 reversed $49 $-1 #
coedge $-1 $209 $210 $79 $128 reversed $211 $-1 #
edge $-1 $212 -7.7849077914951792 $213 7.7849077914951792 $127 $214 forward 7 unknown #
face $-1 $215 $216 $29 $-1 $217 reversed single #
loop $-1 $-1 $218 $80 #
plane-surface $-1 -119.7953331367377 12.608899837941937 63.143103108665535 0 -1 0 0.77714596973225614 0 -0.62932038083071107 forward_v I I I I #
coedge $-1 $219 $220 $221 $222 reversed $81 $-1 #
coedge $-1 $134 $83 $223 $224 reversed $52 $-1 #
coedge $-1 $83 $133 $219 $225 reversed $52 $-1 #
coedge $-1 $221 $226 $83 $136 forward $227 $-1 #
edge $-1 $228 12.9980419460354 $229 15.971231916529412 $135 $230 forward 7 unknown #
loop $-1 $-1 $142 $84 #
plane-surface $-1 -46.899624622333448 8.0026779761530449 4.1133238523769791 -0.77714596973225614 0 0.62932038083071107 0.62932038083071107 0 0.77714596973225614 forward_v I I I I #
loop $-1 $-1 $231 $54 #
coedge $-1 $140 $140 $141 $232 reversed $85 $-1 #
coedge $-1 $141 $141 $140 $232 forward $87 $-1 #
coedge $-1 $142 $142 $88 $143 forward $137 $-1 #
edge $-1 $233 0 $233 6.2831853071796004 $142 $234 forward 7 unknown #
loop $-1 $-1 $149 $89 #
plane-surface $-1 -46.899624622333448 8.0026779761530449 4.1133238523769791 -0.77714596973225614 0 0.62932038083071107 0.62932038083071107 0 0.77714596973225614 forward_v I I I I #
loop $-1 $-1 $235 $57 #
coedge $-1 $147 $147 $148 $236 reversed $90 $-1 #
coedge $-1 $148 $148 $147 $236 forward $92 $-1 #
coedge $-1 $149 $149 $93 $150 forward $144 $-1 #
edge $-1 $237 0 $237 6.2831853071796004 $149 $238 forward 7 unknown #
loop $-1 $-1 $156 $94 #
plane-surface $-1 -46.899624622333448 8.0026779761530449 4.1133238523769791 -0.77714596973225614 0 0.62932038083071107 0.62932038083071107 0 0.77714596973225614 forward_v I I I I #
loop $-1 $-1 $239 $60 #
coedge $-1 $154 $154 $155 $240 reversed $95 $-1 #
coedge $-1 $155 $155 $154 $240 forward $97 $-1 #
coedge $-1 $156 $156 $98 $157 forward $151 $-1 #
edge $-1 $241 0 $241 6.2831853071796004 $156 $242 forward 7 unknown #
face $-1 $243 $244 $33 $-1 $245 reversed single #
loop $-1 $-1 $246 $99 #
plane-surface $-1 0 0 7.7849077914951792 0 0 1 1 0 0 forward_v I I I I #
coedge $-1 $247 $248 $249 $250 reversed $100 $-1 #
coedge $-1 $163 $102 $251 $252 reversed $64 $-1 #
coedge $-1 $102 $162 $247 $253 reversed $64 $-1 #
coedge $-1 $249 $254 $102 $165 forward $255 $-1 #
edge $-1 $256 58.111640991012187 $257 65.122453009238043 $164 $258 forward 7 unknown #
loop $-1 $-1 $171 $103 #
plane-surface $-1 -8.2341897032334828 17.026975129182201 76.659283239447788 0.80901700255871778 0 0.5877852410284794 0.5877852410284794 0 -0.80901700255871778 forward_v I I I I #
loop $-1 $-1 $259 $66 #
coedge $-1 $169 $169 $170 $260 reversed $104 $-1 #
coedge $-1 $170 $170 $169 $260 forward $106 $-1 #
coedge $-1 $171 $171 $107 $172 forward $166 $-1 #
edge $-1 $261 0 $261 6.2831853071796004 $171 $262 forward 7 unknown #
loop $-1 $-1 $178 $108 #
plane-surface $-1 -8.2341897032334828 17.026975129182201 76.659283239447788 0.80901700255871778 0 0.5877852410284794 0.5877852410284794 0 -0.80901700255871778 forward_v I I I I #
loop $-1 $-1 $263 $69 #
coedge $-1 $176 $176 $177 $264 reversed $109 $-1 #
coedge $-1 $177 $177 $176 $264 forward $111 $-1 #
coedge $-1 $178 $178 $112 $179 forward $173 $-1 #
edge $-1 $265 0 $265 6.2831853071796004 $178 $266 forward 7 unknown #
face $-1 $267 $268 $27 $-1 $269 reversed single #
loop $-1 $-1 $270 $113 #
plane-surface $-1 -46.899624622333448 0 0 1 0 0 0 0 -1 forward_v I I I I #
coedge $-1 $271 $191 $272 $273 forward $114 $-1 #
coedge $-1 $274 $116 $271 $275 forward $73 $-1 #
coedge $-1 $116 $274 $276 $277 forward $73 $-1 #
coedge $-1 $194 $193 $116 $187 reversed $195 $-1 #
edge $-1 $278 -21.021028076368371 $279 21.021028076368371 $186 $280 forward 7 unknown #
coedge $-1 $118 $117 $281 $282 forward $46 $-1 #
coedge $-1 $283 $284 $117 $190 reversed $268 $-1 #
edge $-1 $197 -46.899624622333448 $285 46.899624622333448 $189 $286 forward 7 unknown #
coedge $-1 $183 $287 $118 $192 reversed $114 $-1 #
edge $-1 $288 -46.899624622333448 $196 46.899624622333448 $191 $289 forward 7 unknown #
coedge $-1 $186 $119 $287 $290 forward $195 $-1 #
coedge $-1 $119 $186 $283 $291 reversed $195 $-1 #
loop $-1 $-1 $193 $267 #
vertex $-1 $120 $292 #
vertex $-1 $120 $293 #
straight-curve $-1 46.899624622333448 0 7.7849077914951792 0 1 0 I I #
face $-1 $294 $211 $28 $-1 $295 reversed single #
loop $-1 $-1 $296 $121 #
plane-surface $-1 -45.095152038111976 -26.471736979487613 0 0 1 0 0 0 1 forward_v I I I I #
coedge $-1 $297 $298 $206 $299 forward $122 $-1 #
coedge $-1 $300 $124 $298 $301 forward $77 $-1 #
coedge $-1 $124 $300 $209 $302 forward $77 $-1 #
edge $-1 $212 43.290679453890505 $303 46.899624622333448 $124 $304 forward 7 unknown #
coedge $-1 $126 $125 $202 $299 reversed $49 $-1 #
coedge $-1 $305 $306 $125 $208 forward $307 $-1 #
edge $-1 $308 -46.899624622333448 $213 -43.290679453890505 $207 $309 forward 7 unknown #
coedge $-1 $310 $127 $204 $302 reversed $211 $-1 #
coedge $-1 $127 $310 $305 $311 reversed $211 $-1 #
loop $-1 $-1 $310 $199 #
vertex $-1 $205 $312 #
vertex $-1 $311 $313 #
straight-curve $-1 -43.290679453890505 -21.021028076368371 0 0 0 -1 I I #
face $-1 $-1 $227 $29 $-1 $314 forward single #
loop $-1 $-1 $315 $129 #
plane-surface $-1 -46.899624622333448 0 0 1 0 0 0 0 -1 forward_v I I I I #
coedge $-1 $316 $317 $318 $319 reversed $130 $-1 #
coedge $-1 $320 $132 $134 $225 forward $81 $-1 #
coedge $-1 $132 $320 $316 $321 forward $81 $-1 #
coedge $-1 $318 $135 $132 $222 forward $227 $-1 #
edge $-1 $229 -0.60488287371236993 $322 8.6075608498654148 $221 $323 forward 7 unknown #
coedge $-1 $324 $325 $133 $224 forward $216 $-1 #
edge $-1 $326 -27.458227701955789 $228 -23.786643762837588 $223 $327 forward 7 unknown #
edge $-1 $229 -4.7244457053327329 $326 0 $134 $328 forward 7 unknown #
coedge $-1 $135 $318 $324 $329 forward $227 $-1 #
loop $-1 $-1 $318 $215 #
vertex $-1 $224 $330 #
vertex $-1 $136 $331 #
straight-curve $-1 -59.897666568368848 3.3964561143641525 7.7849077914951792 1 0 0 I I #
coedge $-1 $231 $231 $-1 $332 reversed $139 $-1 #
edge $-1 $333 0 $333 6.2831853071796004 $140 $334 forward 7 unknown #
vertex $-1 $143 $335 #
ellipse-curve $-1 -45.413029637086446 5.2389448590797087 5.9491158219360774 -0.77714596973225614 0 0.62932038083071107 0.31466019041535553 0 0.38857298486612807 1 I I #
coedge $-1 $235 $235 $-1 $336 reversed $146 $-1 #
edge $-1 $337 0 $337 6.2831853071796004 $147 $338 forward 7 unknown #
vertex $-1 $150 $339 #
ellipse-curve $-1 -45.413029637086446 8.0026779761530449 5.9491158219360774 -0.77714596973225614 0 0.62932038083071107 0.31466019041535553 0 0.38857298486612807 1 I I #
coedge $-1 $239 $239 $-1 $340 reversed $153 $-1 #
edge $-1 $341 0 $341 6.2831853071796004 $154 $342 forward 7 unknown #
vertex $-1 $157 $343 #
ellipse-curve $-1 -45.413029637086446 10.766411093226381 5.9491158219360774 -0.77714596973225614 0 0.62932038083071107 0.31466019041535553 0 0.38857298486612807 1 I I #
face $-1 $-1 $255 $33 $-1 $344 reversed single #
loop $-1 $-1 $345 $158 #
plane-surface $-1 0 21.021028076368371 0 0 -1 0 0 0 -1 forward_v I I I I #
coedge $-1 $251 $346 $347 $348 forward $159 $-1 #
coedge $-1 $347 $161 $163 $253 forward $100 $-1 #
coedge $-1 $161 $347 $345 $349 reversed $100 $-1 #
coedge $-1 $350 $164 $161 $250 forward $255 $-1 #
edge $-1 $257 4.5194346174049347 $351 12.50754051177727 $249 $352 forward 7 unknown #
coedge $-1 $353 $246 $162 $252 forward $159 $-1 #
edge $-1 $354 7.9804728029065899 $256 13.07412574086095 $251 $355 forward 7 unknown #
edge $-1 $257 -93.799249244666868 $354 -85.133409100328237 $163 $356 forward 7 unknown #
coedge $-1 $164 $350 $353 $357 reversed $255 $-1 #
loop $-1 $-1 $249 $243 #
vertex $-1 $357 $358 #
vertex $-1 $165 $359 #
straight-curve $-1 46.899624622333448 13.032922181996035 65.896548782507367 0 0 -1 I I #
coedge $-1 $259 $259 $-1 $360 reversed $168 $-1 #
edge $-1 $361 0 $361 6.2831853071796004 $169 $362 forward 7 unknown #
vertex $-1 $172 $363 #
ellipse-curve $-1 44.352798153356282 15.315238151816704 4.2795017823822352 0.80901700255871778 0 0.5877852410284794 0.2938926205142397 0 -0.40450850127935889 1 I I #
coedge $-1 $263 $263 $-1 $364 reversed $175 $-1 #
edge $-1 $365 0 $365 6.2831853071796004 $176 $366 forward 7 unknown #
vertex $-1 $179 $367 #
ellipse-curve $-1 44.352798153356282 18.738712106547705 4.2795017823822352 0.80901700255871778 0 0.5877852410284794 0.2938926205142397 0 -0.40450850127935889 1 I I #
face $-1 $-1 $195 $27 $-1 $368 reversed single #
loop $-1 $-1 $283 $180 #
plane-surface $-1 0 21.021028076368371 0 0 -1 0 0 0 -1 forward_v I I I I #
coedge $-1 $369 $281 $284 $370 forward $181 $-1 #
coedge $-1 $287 $183 $184 $275 reversed $114 $-1 #
coedge $-1 $281 $369 $183 $273 reversed $181 $-1 #
edge $-1 $288 -7.7849077914951792 $371 7.7849077914951792 $272 $372 forward 7 unknown #
coedge $-1 $185 $184 $369 $373 forward $73 $-1 #
edge $-1 $279 -46.899624622333448 $371 46.899624622333448 $271 $374 forward 7 unknown #
coedge $-1 $284 $283 $185 $277 reversed $268 $-1 #
edge $-1 $375 -46.899624622333448 $278 46.899624622333448 $276 $376 forward 7 unknown #
vertex $-1 $187 $377 #
vertex $-1 $290 $378 #
straight-curve $-1 46.899624622333448 0 -7.7849077914951792 0 -1 0 I I #
coedge $-1 $270 $272 $188 $282 reversed $181 $-1 #
edge $-1 $285 -21.021028076368371 $288 21.021028076368371 $281 $379 forward 7 unknown #
coedge $-1 $276 $189 $194 $291 forward $268 $-1 #
coedge $-1 $189 $276 $270 $370 reversed $268 $-1 #
vertex $-1 $190 $380 #
straight-curve $-1 0 21.021028076368371 7.7849077914951792 -1 0 0 I I #
coedge $-1 $191 $271 $193 $290 reversed $114 $-1 #
vertex $-1 $282 $381 #
straight-curve $-1 0 -21.021028076368371 7.7849077914951792 1 0 0 I I #
edge $-1 $196 -7.7849077914951792 $279 7.7849077914951792 $193 $382 forward 7 unknown #
edge $-1 $197 -7.7849077914951792 $278 7.7849077914951792 $194 $383 forward 7 unknown #
point $-1 46.899624622333448 -21.021028076368371 7.7849077914951792 #
point $-1 46.899624622333448 21.021028076368371 7.7849077914951792 #
face $-1 $-1 $307 $28 $-1 $384 reversed single #
plane-surface $-1 -43.290679453890505 -23.746382527927992 0 -1 0 0 0 0 1 forward_v I I I I #
coedge $-1 $385 $386 $387 $388 forward $200 $-1 #
coedge $-1 $387 $202 $306 $389 reversed $122 $-1 #
coedge $-1 $202 $387 $203 $301 reversed $122 $-1 #
edge $-1 $303 -7.7849077914951792 $308 7.7849077914951792 $202 $390 forward 7 unknown #
coedge $-1 $204 $203 $386 $391 forward $77 $-1 #
edge $-1 $303 21.021028076368371 $392 26.471736979487613 $298 $393 forward 7 unknown #
edge $-1 $394 -2.7253544515596211 $212 2.7253544515596211 $209 $395 forward 7 unknown #
vertex $-1 $301 $396 #
straight-curve $-1 0 -21.021028076368371 7.7849077914951792 -1 0 0 I I #
coedge $-1 $397 $207 $210 $311 forward $307 $-1 #
coedge $-1 $207 $397 $297 $389 forward $307 $-1 #
loop $-1 $-1 $207 $294 #
vertex $-1 $299 $398 #
straight-curve $-1 0 -21.021028076368371 -7.7849077914951792 1 0 0 I I #
coedge $-1 $210 $209 $399 $400 forward $211 $-1 #
edge $-1 $213 -2.7253544515596211 $401 2.7253544515596211 $210 $402 forward 7 unknown #
point $-1 -43.290679453890505 -21.021028076368371 7.7849077914951792 #
point $-1 -43.290679453890505 -21.021028076368371 -7.7849077914951792 #
plane-surface $-1 0 0 7.7849077914951792 0 0 1 1 0 0 forward_v I I I I #
coedge $-1 $325 $324 $317 $403 forward $216 $-1 #
coedge $-1 $317 $218 $220 $321 reversed $130 $-1 #
coedge $-1 $218 $316 $315 $403 reversed $130 $-1 #
coedge $-1 $226 $221 $218 $319 forward $227 $-1 #
edge $-1 $322 -15.971231916529412 $404 -12.9980419460354 $318 $405 forward 7 unknown #
coedge $-1 $220 $219 $325 $406 reversed $81 $-1 #
edge $-1 $407 0 $322 4.7244457053327329 $316 $408 forward 7 unknown #
vertex $-1 $222 $409 #
straight-curve $-1 -43.926434651839436 4.0013389880765224 7.7849077914951792 0 1 0 I I #
coedge $-1 $315 $223 $226 $329 reversed $216 $-1 #
coedge $-1 $223 $315 $320 $406 forward $216 $-1 #
vertex $-1 $224 $410 #
straight-curve $-1 -46.899624622333448 3.3964561143641525 31.571551554332768 0 0 1 I I #
straight-curve $-1 -46.899624622333448 3.3964561143641525 4.1133238523769791 -0.62932038083071107 0 -0.77714596973225614 I I #
edge $-1 $404 -12.608899837941937 $228 -3.3964561143641525 $324 $411 forward 7 unknown #
point $-1 -46.899624622333448 3.3964561143641525 7.7849077914951792 #
point $-1 -43.926434651839436 3.3964561143641525 7.7849077914951792 #
edge $-1 $412 1 $412 0 $231 $-1 forward 7 unknown #
vertex $-1 $232 $413 #
ellipse-curve $-1 -44.44392740324615 5.2389448590797087 5.1643523275382588 -0.77714596973225614 0 0.62932038083071107 0.31466019041535553 0 0.38857298486612807 1 I I #
point $-1 -45.098369446671086 5.2389448590797087 6.3376888068022037 #
edge $-1 $414 1 $414 0 $235 $-1 forward 7 unknown #
vertex $-1 $236 $415 #
ellipse-curve $-1 -44.44392740324615 8.0026779761530449 5.1643523275382588 -0.77714596973225614 0 0.62932038083071107 0.31466019041535553 0 0.38857298486612807 1 I I #
point $-1 -45.098369446671086 8.0026779761530449 6.3376888068022037 #
edge $-1 $416 1 $416 0 $239 $-1 forward 7 unknown #
vertex $-1 $240 $417 #
ellipse-curve $-1 -44.44392740324615 10.766411093226381 5.1643523275382588 -0.77714596973225614 0 0.62932038083071107 0.31466019041535553 0 0.38857298486612807 1 I I #
point $-1 -45.098369446671086 10.766411093226381 6.3376888068022037 #
plane-surface $-1 46.899624622333448 0 0 -1 0 0 0 0 1 forward_v I I I I #
coedge $-1 $418 $419 $248 $349 forward $244 $-1 #
coedge $-1 $246 $353 $418 $420 forward $159 $-1 #
coedge $-1 $248 $247 $246 $348 reversed $100 $-1 #
edge $-1 $421 -12.507540511777266 $354 -4.5194346174049347 $246 $422 forward 7 unknown #
edge $-1 $351 -60.369949882633314 $421 -51.704109738294676 $345 $423 forward 7 unknown #
coedge $-1 $254 $249 $419 $424 reversed $255 $-1 #
vertex $-1 $250 $425 #
straight-curve $-1 46.899624622333448 8.5134875645911006 0.77409577326932322 0 1 0 I I #
coedge $-1 $346 $251 $254 $357 forward $159 $-1 #
vertex $-1 $252 $426 #
straight-curve $-1 33.825498881472498 13.032922181996035 7.7849077914951792 1 0 0 I I #
straight-curve $-1 -8.2341897032334828 13.032922181996035 76.659283239447788 -0.5877852410284794 0 0.80901700255871778 I I #
edge $-1 $256 13.032922181996035 $427 21.021028076368371 $254 $428 forward 7 unknown #
point $-1 46.899624622333448 13.032922181996035 7.7849077914951792 #
point $-1 46.899624622333448 13.032922181996035 0.77409577326932322 #
edge $-1 $429 1 $429 0 $259 $-1 forward 7 unknown #
vertex $-1 $260 $430 #
ellipse-curve $-1 43.54378115079755 15.315238151816704 3.6917165413537476 0.80901700255871778 0 0.5877852410284794 0.2938926205142397 0 -0.40450850127935889 1 I I #
point $-1 44.64669077387051 15.315238151816704 3.874993281102868 #
edge $-1 $431 1 $431 0 $263 $-1 forward 7 unknown #
vertex $-1 $264 $432 #
ellipse-curve $-1 43.54378115079755 18.738712106547705 3.6917165413537476 0.80901700255871778 0 0.5877852410284794 0.2938926205142397 0 -0.40450850127935889 1 I I #
point $-1 44.64669077387051 18.738712106547705 3.874993281102868 #
plane-surface $-1 46.899624622333448 0 0 -1 0 0 0 0 1 forward_v I I I I #
coedge $-1 $272 $270 $274 $373 reversed $181 $-1 #
edge $-1 $285 -7.7849077914951792 $375 7.7849077914951792 $284 $433 forward 7 unknown #
vertex $-1 $373 $434 #
straight-curve $-1 -46.899624622333448 -21.021028076368371 0 0 0 -1 I I #
edge $-1 $371 -21.021028076368371 $375 21.021028076368371 $369 $435 forward 7 unknown #
straight-curve $-1 0 -21.021028076368371 -7.7849077914951792 -1 0 0 I I #
vertex $-1 $277 $436 #
straight-curve $-1 0 21.021028076368371 -7.7849077914951792 1 0 0 I I #
point $-1 46.899624622333448 21.021028076368371 -7.7849077914951792 #
point $-1 46.899624622333448 -21.021028076368371 -7.7849077914951792 #
straight-curve $-1 -46.899624622333448 0 7.7849077914951792 0 -1 0 I I #
point $-1 -46.899624622333448 21.021028076368371 7.7849077914951792 #
point $-1 -46.899624622333448 -21.021028076368371 7.7849077914951792 #
straight-curve $-1 46.899624622333448 -21.021028076368371 0 0 0 -1 I I #
straight-curve $-1 46.899624622333448 21.021028076368371 0 0 0 -1 I I #
plane-surface $-1 0 0 -7.7849077914951792 0 0 1 1 0 0 forward_v I I I I #
coedge $-1 $399 $296 $397 $437 reversed $200 $-1 #
coedge $-1 $296 $399 $300 $391 reversed $200 $-1 #
coedge $-1 $298 $297 $296 $388 reversed $122 $-1 #
edge $-1 $392 -7.7849077914951792 $438 7.7849077914951792 $387 $439 forward 7 unknown #
edge $-1 $438 -26.471736979487613 $308 -21.021028076368371 $297 $440 forward 7 unknown #
straight-curve $-1 -46.899624622333448 -21.021028076368371 0 0 0 -1 I I #
edge $-1 $392 -1.8044725842214717 $394 1.8044725842214717 $386 $441 forward 7 unknown #
vertex $-1 $301 $442 #
straight-curve $-1 -46.899624622333448 0 7.7849077914951792 0 -1 0 I I #
vertex $-1 $302 $443 #
straight-curve $-1 -43.290679453890505 -23.746382527927992 7.7849077914951792 0 1 0 I I #
point $-1 -46.899624622333448 -21.021028076368371 7.7849077914951792 #
coedge $-1 $306 $305 $385 $437 forward $307 $-1 #
point $-1 -46.899624622333448 -21.021028076368371 -7.7849077914951792 #
coedge $-1 $386 $385 $310 $400 reversed $200 $-1 #
edge $-1 $394 -7.7849077914951792 $401 7.7849077914951792 $310 $444 forward 7 unknown #
vertex $-1 $400 $445 #
straight-curve $-1 -43.290679453890505 -23.746382527927992 -7.7849077914951792 0 -1 0 I I #
edge $-1 $404 23.786643762837588 $407 27.458227701955789 $315 $446 forward 7 unknown #
vertex $-1 $329 $447 #
straight-curve $-1 -59.897666568368848 12.608899837941937 7.7849077914951792 -1 0 0 I I #
edge $-1 $407 -8.6075608498654148 $326 0.60488287371236993 $325 $448 forward 7 unknown #
vertex $-1 $406 $449 #
straight-curve $-1 -46.899624622333448 12.608899837941937 4.1133238523769791 0.62932038083071107 0 0.77714596973225614 I I #
point $-1 -43.926434651839436 12.608899837941937 7.7849077914951792 #
point $-1 -46.899624622333448 3.3964561143641525 4.1133238523769791 #
straight-curve $-1 -46.899624622333448 0 7.7849077914951792 0 -1 0 I I #
vertex $-1 $332 $450 #
point $-1 -44.12926721283079 5.2389448590797087 5.5529253124043869 #
vertex $-1 $336 $451 #
point $-1 -44.12926721283079 8.0026779761530449 5.5529253124043869 #
vertex $-1 $340 $452 #
point $-1 -44.12926721283079 10.766411093226381 5.5529253124043869 #
coedge $-1 $419 $345 $346 $420 reversed $244 $-1 #
coedge $-1 $345 $418 $350 $424 forward $244 $-1 #
edge $-1 $427 -46.899624622333448 $421 -41.805971684379088 $418 $453 forward 7 unknown #
vertex $-1 $348 $454 #
straight-curve $-1 41.805971684379088 8.5134875645911006 7.7849077914951863 0 -1 0 I I #
straight-curve $-1 11.415059079692606 21.021028076368371 49.61441167193734 -0.5877852410284794 0 0.80901700255871778 I I #
edge $-1 $427 -7.7849077914951792 $351 -0.77409577326931711 $350 $455 forward 7 unknown #
point $-1 46.899624622333448 21.021028076368371 0.77409577326931711 #
point $-1 41.805971684379088 13.032922181996035 7.7849077914951721 #
vertex $-1 $357 $456 #
straight-curve $-1 46.899624622333448 0 7.7849077914951792 0 1 0 I I #
vertex $-1 $360 $457 #
point $-1 43.837673771311792 15.315238151816704 3.2872080400743888 #
vertex $-1 $364 $458 #
point $-1 43.837673771311792 18.738712106547705 3.2872080400743888 #
straight-curve $-1 -46.899624622333448 21.021028076368371 0 0 0 -1 I I #
point $-1 -46.899624622333448 -21.021028076368371 -7.7849077914951792 #
straight-curve $-1 -46.899624622333448 0 -7.7849077914951792 0 1 0 I I #
point $-1 -46.899624622333448 21.021028076368371 -7.7849077914951792 #
edge $-1 $401 -1.8044725842214717 $438 1.8044725842214717 $385 $459 forward 7 unknown #
vertex $-1 $389 $460 #
straight-curve $-1 -46.899624622333448 -26.471736979487613 0 0 0 -1 I I #
straight-curve $-1 -46.899624622333448 0 -7.7849077914951792 0 1 0 I I #
straight-curve $-1 -45.095152038111976 -26.471736979487613 7.7849077914951792 1 0 0 I I #
point $-1 -46.899624622333448 -26.471736979487613 7.7849077914951792 #
point $-1 -43.290679453890505 -26.471736979487613 7.7849077914951792 #
straight-curve $-1 -43.290679453890505 -26.471736979487613 0 0 0 -1 I I #
point $-1 -43.290679453890505 -26.471736979487613 -7.7849077914951792 #
straight-curve $-1 -46.899624622333448 12.608899837941937 31.571551554332768 0 0 -1 I I #
point $-1 -46.899624622333448 12.608899837941937 7.7849077914951792 #
straight-curve $-1 -46.899624622333448 4.0013389880765224 4.1133238523769791 0 -1 0 I I #
point $-1 -46.899624622333448 12.608899837941937 4.1133238523769791 #
point $-1 -44.05535441838002 5.2389448590797087 4.8496921371229025 #
point $-1 -44.05535441838002 8.0026779761530449 4.8496921371229025 #
point $-1 -44.05535441838002 10.766411093226381 4.8496921371229025 #
straight-curve $-1 0 21.021028076368371 7.7849077914951792 -1 0 0 I I #
point $-1 41.805971684379088 21.021028076368367 7.7849077914951721 #
straight-curve $-1 46.899624622333448 21.021028076368371 0 0 0 -1 I I #
point $-1 46.899624622333448 21.021028076368371 7.7849077914951792 #
point $-1 43.139272649518198 15.315238151816704 3.397823920839508 #
point $-1 43.139272649518198 18.738712106547705 3.397823920839508 #
straight-curve $-1 -45.095152038111976 -26.471736979487613 -7.7849077914951792 -1 0 0 I I #
point $-1 -46.899624622333448 -26.471736979487613 -7.7849077914951792 #
End-of-ACIS-data 