500 0 9 0           
7 Unknown 11 ACIS 5.0 NT 24 Thu Mar 25 22:37:31 1999 
-1 9.9999999999999995e-007 1e-010 
body $-1 $9 $-1 $10 #
body $-1 $11 $-1 $12 #
body $-1 $13 $-1 $14 #
body $-1 $15 $-1 $16 #
body $-1 $17 $-1 $18 #
body $-1 $19 $-1 $20 #
body $-1 $21 $-1 $22 #
body $-1 $23 $-1 $24 #
body $-1 $25 $-1 $26 #
lump $-1 $-1 $27 $0 #
transform $-1 1 0 0 0 1 0 0 0 1 54.889370403149513 36.072167863623186 14.46827824837349 1 rotate no_reflect no_shear #
lump $-1 $-1 $28 $1 #
transform $-1 1 0 0 0 1 0 0 0 1 54.889370403149513 36.072167863623186 14.46827824837349 1 rotate no_reflect no_shear #
lump $-1 $-1 $29 $2 #
transform $-1 1 0 0 0 1 0 0 0 1 54.889370403149513 36.072167863623186 14.46827824837349 1 rotate no_reflect no_shear #
lump $-1 $-1 $30 $3 #
transform $-1 1 0 0 0 1 0 0 0 1 54.889370403149513 36.072167863623186 14.46827824837349 1 rotate no_reflect no_shear #
lump $-1 $-1 $31 $4 #
transform $-1 1 0 0 0 1 0 0 0 1 54.889370403149513 36.072167863623186 14.46827824837349 1 rotate no_reflect no_shear #
lump $-1 $-1 $32 $5 #
transform $-1 1 0 0 0 1 0 0 0 1 54.889370403149513 36.072167863623186 14.46827824837349 1 rotate no_reflect no_shear #
lump $-1 $-1 $33 $6 #
transform $-1 1 0 0 0 1 0 0 0 1 54.889370403149513 36.072167863623186 14.46827824837349 1 rotate no_reflect no_shear #
lump $-1 $-1 $34 $7 #
transform $-1 1 0 0 0 1 0 0 0 1 54.889370403149513 36.072167863623186 14.46827824837349 1 rotate no_reflect no_shear #
lump $-1 $-1 $35 $8 #
transform $-1 1 0 0 0 1 0 0 0 1 54.889370403149513 36.072167863623186 14.46827824837349 1 rotate no_reflect no_shear #
shell $-1 $-1 $-1 $36 $-1 $9 #
shell $-1 $-1 $-1 $37 $-1 $11 #
shell $-1 $-1 $-1 $38 $-1 $13 #
shell $-1 $-1 $-1 $39 $-1 $15 #
shell $-1 $-1 $-1 $40 $-1 $17 #
shell $-1 $-1 $-1 $41 $-1 $19 #
shell $-1 $-1 $-1 $42 $-1 $21 #
shell $-1 $-1 $-1 $43 $-1 $23 #
shell $-1 $-1 $-1 $44 $-1 $25 #
face $-1 $45 $46 $27 $-1 $47 reversed single #
face $-1 $48 $49 $28 $-1 $50 forward single #
face $-1 $51 $52 $29 $-1 $53 reversed single #
face $-1 $54 $55 $30 $-1 $56 forward single #
face $-1 $57 $58 $31 $-1 $59 forward single #
face $-1 $60 $61 $32 $-1 $62 reversed single #
face $-1 $63 $64 $33 $-1 $65 forward single #
face $-1 $66 $67 $34 $-1 $68 reversed single #
face $-1 $69 $70 $35 $-1 $71 forward single #
face $-1 $72 $73 $27 $-1 $74 forward single #
loop $-1 $-1 $75 $36 #
plane-surface $-1 -54.889370403149513 0 0 1 0 0 0 0 -1 forward_v I I I I #
face $-1 $76 $77 $28 $-1 $78 reversed single #
loop $-1 $-1 $79 $37 #
plane-surface $-1 -54.889370403149513 0 0 1 0 0 0 0 -1 forward_v I I I I #
face $-1 $80 $81 $29 $-1 $82 reversed single #
loop $-1 $-1 $83 $38 #
plane-surface $-1 -42.513806915716167 55.914794887658267 139.29099476488528 1 0 0 0 -0.66913061440640931 -0.74314481823134659 forward_v I I I I #
face $-1 $84 $85 $30 $-1 $86 forward single #
loop $-1 $87 $88 $39 #
cone-surface $-1 -36.199008580832846 32.828129327392993 11.452883982910926 0 -0.66913061440640931 -0.74314481823134659 1 0 0 1 I I 0 1 1 forward I I I I #
face $-1 $89 $90 $31 $-1 $91 forward single #
loop $-1 $92 $93 $40 #
cone-surface $-1 -26.726811078507861 32.828129327392993 11.452883982910926 0 -0.66913061440640931 -0.74314481823134659 1 0 0 1 I I 0 1 1 forward I I I I #
face $-1 $94 $95 $32 $-1 $96 reversed single #
loop $-1 $-1 $97 $41 #
plane-surface $-1 -3.9857428997752713 -128.14036764267999 65.43940149485519 -1 0 0 0 -0.83867057594974714 0.54463902268945019 forward_v I I I I #
face $-1 $98 $99 $33 $-1 $100 forward single #
loop $-1 $101 $102 $42 #
cone-surface $-1 -12.210392985511277 -31.706379140676077 9.0833187667335498 0 0.83867057594974714 -0.54463902268945019 1.5 0 0 1 I I 0 1 1.5 forward I I I I #
face $-1 $103 $104 $34 $-1 $105 reversed single #
loop $-1 $-1 $106 $43 #
plane-surface $-1 30.324197577091628 -128.14036764267999 65.43940149485519 -1 0 0 0 -0.83867057594974714 0.54463902268945019 forward_v I I I I #
face $-1 $107 $108 $35 $-1 $109 forward single #
loop $-1 $110 $111 $44 #
cone-surface $-1 22.099547491355622 -31.706379140676077 9.0833187667335498 0 0.83867057594974714 -0.54463902268945019 1.5 0 0 1 I I 0 1 1.5 forward I I I I #
face $-1 $112 $113 $27 $-1 $114 reversed single #
loop $-1 $-1 $115 $45 #
plane-surface $-1 0 0 14.46827824837349 0 0 1 1 0 0 forward_v I I I I #
coedge $-1 $116 $117 $118 $119 reversed $46 $-1 #
face $-1 $120 $121 $28 $-1 $122 reversed single #
loop $-1 $-1 $123 $48 #
plane-surface $-1 0 0 -14.46827824837349 0 0 1 1 0 0 forward_v I I I I #
coedge $-1 $124 $125 $126 $127 forward $49 $-1 #
face $-1 $128 $129 $29 $-1 $130 reversed single #
loop $-1 $-1 $131 $51 #
plane-surface $-1 -31.462909829670352 -17.541521396822553 57.709492382722075 0 0.66913061440640931 0.74314481823134659 1 0 0 forward_v I I I I #
coedge $-1 $132 $133 $134 $135 reversed $52 $-1 #
face $-1 $-1 $136 $30 $-1 $137 forward single #
loop $-1 $138 $139 $54 #
cone-surface $-1 -36.199008580832846 32.044253850095579 10.582302086715714 0 -0.66913061440640931 -0.74314481823134659 0.5 0 0 1 I I -0.70710678118654746 0.70710678118654746 0.5 forward I I I I #
loop $-1 $-1 $140 $39 #
coedge $-1 $88 $88 $141 $142 reversed $55 $-1 #
face $-1 $-1 $143 $31 $-1 $144 forward single #
loop $-1 $145 $146 $57 #
cone-surface $-1 -26.726811078507861 32.044253850095579 10.582302086715714 0 -0.66913061440640931 -0.74314481823134659 0.5 0 0 1 I I -0.70710678118654746 0.70710678118654746 0.5 forward I I I I #
loop $-1 $-1 $147 $40 #
coedge $-1 $93 $93 $148 $149 reversed $58 $-1 #
face $-1 $150 $151 $32 $-1 $152 reversed single #
loop $-1 $-1 $153 $60 #
plane-surface $-1 -12.210392985511277 -36.072167863623179 5.6496153900340218 0 -0.83867057594974714 0.54463902268945019 1 0 0 forward_v I I I I #
coedge $-1 $154 $155 $156 $157 reversed $61 $-1 #
face $-1 $-1 $158 $33 $-1 $159 forward single #
loop $-1 $160 $161 $63 #
cone-surface $-1 -12.210392985511277 -29.575040704662911 7.6992114472462525 0 0.83867057594974714 -0.54463902268945019 0.75 0 0 1 I I -0.70710678118654757 0.70710678118654757 0.75 forward I I I I #
loop $-1 $-1 $162 $42 #
coedge $-1 $102 $102 $163 $164 reversed $64 $-1 #
face $-1 $165 $166 $34 $-1 $167 reversed single #
loop $-1 $-1 $168 $66 #
plane-surface $-1 22.099547491355622 -36.072167863623179 5.6496153900340218 0 -0.83867057594974714 0.54463902268945019 1 0 0 forward_v I I I I #
coedge $-1 $169 $170 $171 $172 reversed $67 $-1 #
face $-1 $-1 $173 $35 $-1 $174 forward single #
loop $-1 $175 $176 $69 #
cone-surface $-1 22.099547491355622 -29.575040704662911 7.6992114472462525 0 0.83867057594974714 -0.54463902268945019 0.75 0 0 1 I I -0.70710678118654757 0.70710678118654757 0.75 forward I I I I #
loop $-1 $-1 $177 $44 #
coedge $-1 $111 $111 $178 $179 reversed $70 $-1 #
face $-1 $180 $181 $27 $-1 $182 reversed single #
loop $-1 $-1 $183 $72 #
plane-surface $-1 0 0 -14.46827824837349 0 0 1 1 0 0 forward_v I I I I #
coedge $-1 $184 $185 $186 $187 forward $73 $-1 #
coedge $-1 $188 $75 $189 $190 reversed $46 $-1 #
coedge $-1 $75 $188 $191 $192 forward $46 $-1 #
coedge $-1 $193 $194 $75 $119 forward $113 $-1 #
edge $-1 $195 -36.072167863623186 $196 36.072167863623186 $75 $197 forward 7 unknown #
face $-1 $198 $199 $28 $-1 $200 reversed single #
loop $-1 $-1 $201 $76 #
plane-surface $-1 -59.833947656071693 -19.888898377897668 0 0 1 0 0 0 1 forward_v I I I I #
coedge $-1 $202 $203 $125 $204 forward $77 $-1 #
coedge $-1 $205 $79 $206 $207 reversed $49 $-1 #
coedge $-1 $79 $205 $123 $204 reversed $49 $-1 #
coedge $-1 $208 $209 $79 $127 reversed $210 $-1 #
edge $-1 $211 -14.46827824837349 $212 14.46827824837349 $126 $213 forward 7 unknown #
face $-1 $214 $215 $29 $-1 $216 forward single #
loop $-1 $-1 $217 $80 #
plane-surface $-1 -20.412012743624537 55.914794887658267 139.29099476488528 -1 0 0 0 0.66913061440640931 0.74314481823134659 forward_v I I I I #
coedge $-1 $218 $219 $220 $221 reversed $81 $-1 #
coedge $-1 $133 $83 $222 $223 reversed $52 $-1 #
coedge $-1 $83 $132 $218 $224 reversed $52 $-1 #
coedge $-1 $220 $225 $83 $135 forward $215 $-1 #
edge $-1 $226 -8.114770419794052 $227 -2.5253136875221323 $134 $228 forward 7 unknown #
loop $-1 $-1 $141 $84 #
plane-surface $-1 -31.462909829670352 -17.541521396822553 57.709492382722075 0 0.66913061440640931 0.74314481823134659 1 0 0 forward_v I I I I #
loop $-1 $-1 $229 $54 #
coedge $-1 $139 $139 $140 $230 reversed $85 $-1 #
coedge $-1 $140 $140 $139 $230 forward $87 $-1 #
coedge $-1 $141 $141 $88 $142 forward $136 $-1 #
edge $-1 $231 1.3680964593538434e-016 $231 6.2831853071796004 $141 $232 forward 7 unknown #
loop $-1 $-1 $148 $89 #
plane-surface $-1 -31.462909829670352 -17.541521396822553 57.709492382722075 0 0.66913061440640931 0.74314481823134659 1 0 0 forward_v I I I I #
loop $-1 $-1 $233 $57 #
coedge $-1 $146 $146 $147 $234 reversed $90 $-1 #
coedge $-1 $147 $147 $146 $234 forward $92 $-1 #
coedge $-1 $148 $148 $93 $149 forward $143 $-1 #
edge $-1 $235 1.3680964593538434e-016 $235 6.2831853071796004 $148 $236 forward 7 unknown #
face $-1 $237 $238 $32 $-1 $239 forward single #
loop $-1 $-1 $240 $94 #
plane-surface $-1 -20.435043071247282 -128.14036764267999 65.43940149485519 1 0 0 0 0.83867057594974714 -0.54463902268945019 forward_v I I I I #
coedge $-1 $241 $242 $243 $244 reversed $95 $-1 #
coedge $-1 $155 $97 $245 $246 reversed $61 $-1 #
coedge $-1 $97 $154 $241 $247 reversed $61 $-1 #
coedge $-1 $243 $248 $97 $157 forward $238 $-1 #
edge $-1 $249 27.99801595771681 $250 33.724922395509331 $156 $251 forward 7 unknown #
loop $-1 $-1 $163 $98 #
plane-surface $-1 -12.210392985511277 -36.072167863623179 5.6496153900340218 0 -0.83867057594974714 0.54463902268945019 1 0 0 forward_v I I I I #
loop $-1 $-1 $252 $63 #
coedge $-1 $161 $161 $162 $253 reversed $99 $-1 #
coedge $-1 $162 $162 $161 $253 forward $101 $-1 #
coedge $-1 $163 $163 $102 $164 forward $158 $-1 #
edge $-1 $254 3.9962775262769978e-016 $254 6.2831853071796004 $163 $255 forward 7 unknown #
face $-1 $256 $257 $34 $-1 $258 reversed single #
loop $-1 $-1 $259 $103 #
plane-surface $-1 13.874897405619617 -128.14036764267999 65.43940149485519 1 0 0 0 0.83867057594974714 -0.54463902268945019 forward_v I I I I #
coedge $-1 $260 $261 $262 $263 reversed $104 $-1 #
coedge $-1 $170 $106 $264 $265 reversed $67 $-1 #
coedge $-1 $106 $169 $260 $266 reversed $67 $-1 #
coedge $-1 $262 $267 $106 $172 forward $268 $-1 #
edge $-1 $269 27.99801595771681 $270 33.724922395509331 $171 $271 forward 7 unknown #
loop $-1 $-1 $178 $107 #
plane-surface $-1 22.099547491355622 -36.072167863623179 5.6496153900340218 0 -0.83867057594974714 0.54463902268945019 1 0 0 forward_v I I I I #
loop $-1 $-1 $272 $69 #
coedge $-1 $176 $176 $177 $273 reversed $108 $-1 #
coedge $-1 $177 $177 $176 $273 forward $110 $-1 #
coedge $-1 $178 $178 $111 $179 forward $173 $-1 #
edge $-1 $274 3.9962775262769978e-016 $274 6.2831853071796004 $178 $275 forward 7 unknown #
face $-1 $276 $277 $27 $-1 $278 reversed single #
loop $-1 $-1 $189 $112 #
plane-surface $-1 0 -36.072167863623186 0 0 1 0 0 0 1 forward_v I I I I #
coedge $-1 $194 $193 $279 $280 forward $113 $-1 #
coedge $-1 $281 $115 $282 $283 forward $73 $-1 #
coedge $-1 $115 $281 $284 $285 forward $73 $-1 #
coedge $-1 $286 $287 $115 $187 reversed $288 $-1 #
edge $-1 $289 -36.072167863623186 $290 36.072167863623186 $186 $291 forward 7 unknown #
coedge $-1 $117 $116 $281 $292 reversed $46 $-1 #
coedge $-1 $293 $284 $116 $190 forward $181 $-1 #
edge $-1 $294 -14.46827824837349 $195 14.46827824837349 $116 $295 forward 7 unknown #
coedge $-1 $282 $296 $117 $192 reversed $277 $-1 #
edge $-1 $297 -14.46827824837349 $196 14.46827824837349 $191 $298 forward 7 unknown #
coedge $-1 $183 $118 $296 $299 forward $113 $-1 #
coedge $-1 $118 $183 $293 $300 forward $113 $-1 #
vertex $-1 $119 $301 #
vertex $-1 $299 $302 #
straight-curve $-1 -54.889370403149513 0 -14.46827824837349 0 1 0 I I #
face $-1 $303 $210 $28 $-1 $304 reversed single #
loop $-1 $-1 $305 $120 #
plane-surface $-1 -64.778524908993873 -17.095077248073956 0 1 0 0 0 0 -1 forward_v I I I I #
coedge $-1 $306 $307 $308 $309 forward $121 $-1 #
coedge $-1 $310 $123 $306 $311 forward $77 $-1 #
coedge $-1 $123 $310 $208 $312 forward $77 $-1 #
edge $-1 $211 14.301256118250244 $313 19.888898377897668 $123 $314 forward 7 unknown #
coedge $-1 $125 $124 $315 $316 forward $49 $-1 #
coedge $-1 $317 $318 $124 $207 forward $319 $-1 #
edge $-1 $320 -19.888898377897668 $212 -14.301256118250244 $206 $321 forward 7 unknown #
coedge $-1 $322 $126 $203 $312 reversed $210 $-1 #
coedge $-1 $126 $322 $317 $323 reversed $210 $-1 #
loop $-1 $-1 $126 $198 #
vertex $-1 $204 $324 #
vertex $-1 $323 $325 #
straight-curve $-1 -54.889370403149513 -14.301256118250244 0 0 0 1 I I #
face $-1 $-1 $326 $29 $-1 $327 reversed single #
loop $-1 $-1 $134 $128 #
plane-surface $-1 0 0 14.46827824837349 0 0 1 1 0 0 forward_v I I I I #
coedge $-1 $328 $329 $330 $331 reversed $129 $-1 #
coedge $-1 $332 $131 $133 $224 forward $81 $-1 #
coedge $-1 $131 $332 $328 $333 forward $81 $-1 #
coedge $-1 $330 $134 $131 $221 forward $215 $-1 #
edge $-1 $227 -26.782352000880991 $334 -4.680557828789361 $220 $335 forward 7 unknown #
coedge $-1 $336 $337 $132 $223 forward $326 $-1 #
edge $-1 $338 -60.209988690835189 $226 -55.177219134069148 $222 $339 forward 7 unknown #
edge $-1 $227 64.622979734245433 $338 72.144335727246357 $133 $340 forward 7 unknown #
coedge $-1 $134 $330 $336 $341 forward $215 $-1 #
vertex $-1 $223 $342 #
vertex $-1 $135 $343 #
straight-curve $-1 -42.513806915716167 27.957397443829134 14.468278248373494 0 -1 0 I I #
coedge $-1 $229 $229 $-1 $344 reversed $138 $-1 #
edge $-1 $345 0 $345 6.2831853071796004 $139 $346 forward 7 unknown #
vertex $-1 $142 $347 #
ellipse-curve $-1 -36.199008580832846 33.277439497487222 11.95189346999048 0 0.66913061440640931 0.74314481823134659 1 0 0 1 I I #
coedge $-1 $233 $233 $-1 $348 reversed $145 $-1 #
edge $-1 $349 0 $349 6.2831853071796004 $146 $350 forward 7 unknown #
vertex $-1 $149 $351 #
ellipse-curve $-1 -26.726811078507861 33.277439497487222 11.95189346999048 0 0.66913061440640931 0.74314481823134659 1 0 0 1 I I #
face $-1 $-1 $352 $32 $-1 $353 reversed single #
loop $-1 $-1 $156 $150 #
plane-surface $-1 0 0 14.46827824837349 0 0 1 1 0 0 forward_v I I I I #
coedge $-1 $354 $355 $356 $357 reversed $151 $-1 #
coedge $-1 $358 $153 $155 $247 forward $95 $-1 #
coedge $-1 $153 $358 $354 $359 forward $95 $-1 #
coedge $-1 $356 $156 $153 $244 forward $238 $-1 #
edge $-1 $250 -2.1194535929803671 $360 14.329846578491644 $243 $361 forward 7 unknown #
coedge $-1 $362 $363 $154 $246 forward $352 $-1 #
edge $-1 $364 -27.070085357393584 $249 -18.251422499054105 $245 $365 forward 7 unknown #
edge $-1 $250 -10.515049783823441 $364 1.2808562293387176e-014 $155 $366 forward 7 unknown #
coedge $-1 $156 $356 $362 $367 forward $238 $-1 #
vertex $-1 $157 $368 #
vertex $-1 $157 $369 #
straight-curve $-1 -3.9857428997752713 -64.070183821339995 14.46827824837349 0 1 0 I I #
coedge $-1 $252 $252 $-1 $370 reversed $160 $-1 #
edge $-1 $371 0 $371 6.2831853071796004 $161 $372 forward 7 unknown #
vertex $-1 $164 $373 #
ellipse-curve $-1 -12.210392985511277 -33.208714644726925 10.058946819203753 0 -0.83867057594974714 0.54463902268945019 1.5 0 0 1 I I #
face $-1 $-1 $268 $34 $-1 $374 forward single #
loop $-1 $-1 $375 $165 #
plane-surface $-1 0 -36.072167863623186 0 0 1 0 0 0 1 forward_v I I I I #
coedge $-1 $376 $377 $378 $379 reversed $166 $-1 #
coedge $-1 $380 $168 $170 $266 forward $104 $-1 #
coedge $-1 $168 $380 $376 $381 forward $104 $-1 #
coedge $-1 $378 $171 $168 $263 forward $268 $-1 #
edge $-1 $270 -19.274423831413817 $382 -2.8251236599418057 $262 $383 forward 7 unknown #
coedge $-1 $384 $385 $169 $265 forward $257 $-1 #
edge $-1 $386 -27.070085357393584 $269 -18.251422499054105 $264 $387 forward 7 unknown #
edge $-1 $270 -10.515049783823441 $386 1.2808562293387176e-014 $170 $388 forward 7 unknown #
coedge $-1 $171 $378 $384 $389 forward $268 $-1 #
loop $-1 $-1 $378 $256 #
vertex $-1 $265 $390 #
vertex $-1 $172 $391 #
straight-curve $-1 30.324197577091628 -64.070183821339995 14.46827824837349 0 1 0 I I #
coedge $-1 $272 $272 $-1 $392 reversed $175 $-1 #
edge $-1 $393 0 $393 6.2831853071796004 $176 $394 forward 7 unknown #
vertex $-1 $179 $395 #
ellipse-curve $-1 22.099547491355622 -33.208714644726925 10.058946819203753 0 -0.83867057594974714 0.54463902268945019 1.5 0 0 1 I I #
face $-1 $-1 $288 $27 $-1 $396 reversed single #
loop $-1 $-1 $397 $180 #
plane-surface $-1 0 36.072167863623186 0 0 -1 0 0 0 -1 forward_v I I I I #
coedge $-1 $287 $286 $183 $280 reversed $288 $-1 #
edge $-1 $398 -36.072167863623186 $399 36.072167863623186 $279 $400 forward 7 unknown #
coedge $-1 $185 $184 $188 $292 forward $73 $-1 #
coedge $-1 $397 $191 $184 $283 reversed $277 $-1 #
edge $-1 $290 -54.889370403149513 $297 54.889370403149513 $282 $401 forward 7 unknown #
coedge $-1 $189 $402 $185 $285 reversed $181 $-1 #
edge $-1 $294 -54.889370403149513 $289 54.889370403149513 $284 $403 forward 7 unknown #
coedge $-1 $279 $186 $402 $404 forward $288 $-1 #
coedge $-1 $186 $279 $397 $405 reversed $288 $-1 #
loop $-1 $-1 $286 $276 #
vertex $-1 $187 $406 #
vertex $-1 $187 $407 #
straight-curve $-1 54.889370403149513 0 14.46827824837349 0 1 0 I I #
edge $-1 $297 -36.072167863623186 $294 36.072167863623186 $188 $408 forward 7 unknown #
coedge $-1 $402 $189 $194 $300 reversed $181 $-1 #
vertex $-1 $292 $409 #
straight-curve $-1 -54.889370403149513 -36.072167863623186 0 0 0 -1 I I #
coedge $-1 $191 $397 $193 $299 reversed $277 $-1 #
vertex $-1 $283 $410 #
straight-curve $-1 -54.889370403149513 36.072167863623186 0 0 0 -1 I I #
edge $-1 $196 -54.889370403149513 $398 54.889370403149513 $296 $411 forward 7 unknown #
edge $-1 $399 -54.889370403149513 $195 54.889370403149513 $293 $412 forward 7 unknown #
point $-1 -54.889370403149513 -36.072167863623186 -14.46827824837349 #
point $-1 -54.889370403149513 36.072167863623186 -14.46827824837349 #
face $-1 $-1 $319 $28 $-1 $413 forward single #
plane-surface $-1 -59.833947656071693 -14.301256118250244 0 0 -1 0 0 0 -1 forward_v I I I I #
coedge $-1 $414 $415 $322 $416 forward $199 $-1 #
coedge $-1 $315 $201 $202 $311 reversed $121 $-1 #
coedge $-1 $201 $315 $318 $417 reversed $121 $-1 #
coedge $-1 $415 $414 $201 $309 reversed $199 $-1 #
edge $-1 $418 -14.46827824837349 $419 14.46827824837349 $308 $420 forward 7 unknown #
coedge $-1 $203 $202 $414 $421 forward $77 $-1 #
edge $-1 $313 -4.9445772529221799 $419 4.9445772529221799 $306 $422 forward 7 unknown #
edge $-1 $423 -4.9445772529221799 $211 4.9445772529221799 $208 $424 forward 7 unknown #
vertex $-1 $311 $425 #
straight-curve $-1 -54.889370403149513 0 -14.46827824837349 0 -1 0 I I #
coedge $-1 $307 $306 $205 $316 reversed $121 $-1 #
edge $-1 $320 -14.46827824837349 $313 14.46827824837349 $315 $426 forward 7 unknown #
coedge $-1 $427 $206 $209 $323 forward $319 $-1 #
coedge $-1 $206 $427 $307 $417 forward $319 $-1 #
loop $-1 $-1 $206 $303 #
vertex $-1 $207 $428 #
straight-curve $-1 -54.889370403149513 0 14.46827824837349 0 1 0 I I #
coedge $-1 $209 $208 $305 $416 reversed $210 $-1 #
edge $-1 $212 -4.9445772529221799 $429 4.9445772529221799 $209 $430 forward 7 unknown #
point $-1 -54.889370403149513 -14.301256118250244 -14.46827824837349 #
point $-1 -54.889370403149513 -14.301256118250244 14.46827824837349 #
loop $-1 $-1 $222 $214 #
plane-surface $-1 0 36.072167863623186 0 0 -1 0 0 0 -1 forward_v I I I I #
coedge $-1 $329 $217 $219 $333 reversed $129 $-1 #
coedge $-1 $217 $328 $431 $432 reversed $129 $-1 #
coedge $-1 $225 $220 $217 $331 forward $215 $-1 #
edge $-1 $334 2.5253136875221323 $433 8.114770419794052 $330 $434 forward 7 unknown #
coedge $-1 $219 $218 $337 $435 reversed $81 $-1 #
edge $-1 $436 -72.144335727246357 $334 -64.622979734245433 $328 $437 forward 7 unknown #
vertex $-1 $221 $438 #
straight-curve $-1 -15.731454914835176 30.482711131351266 14.468278248373487 1 0 0 I I #
coedge $-1 $431 $222 $225 $341 reversed $326 $-1 #
coedge $-1 $222 $431 $332 $435 forward $326 $-1 #
vertex $-1 $223 $439 #
straight-curve $-1 -42.513806915716167 36.072167863623186 69.645497382442642 0 0 1 I I #
straight-curve $-1 -42.513806915716167 -17.541521396822553 57.709492382722075 0 0.74314481823134659 -0.66913061440640931 I I #
edge $-1 $433 20.412012743624537 $226 42.513806915716167 $336 $440 forward 7 unknown #
point $-1 -42.513806915716167 36.072167863623186 14.46827824837349 #
point $-1 -42.513806915716167 30.482711131351266 14.468278248373494 #
edge $-1 $441 1 $441 0 $229 $-1 forward 7 unknown #
vertex $-1 $230 $442 #
ellipse-curve $-1 -36.199008580832846 32.378819157298786 10.953874495831387 0 0.66913061440640931 0.74314481823134659 1 0 0 1 I I #
point $-1 -35.199008580832846 33.277439497487208 11.951893469990464 #
edge $-1 $443 1 $443 0 $233 $-1 forward 7 unknown #
vertex $-1 $234 $444 #
ellipse-curve $-1 -26.726811078507861 32.378819157298786 10.953874495831387 0 0.66913061440640931 0.74314481823134659 1 0 0 1 I I #
point $-1 -25.726811078507861 33.277439497487208 11.951893469990464 #
loop $-1 $-1 $245 $237 #
plane-surface $-1 0 -36.072167863623186 0 0 1 0 0 0 1 forward_v I I I I #
coedge $-1 $355 $240 $242 $359 reversed $151 $-1 #
coedge $-1 $240 $354 $445 $446 reversed $151 $-1 #
coedge $-1 $248 $243 $240 $357 forward $238 $-1 #
edge $-1 $360 -33.724922395509331 $447 -27.99801595771681 $356 $448 forward 7 unknown #
coedge $-1 $242 $241 $363 $449 reversed $95 $-1 #
edge $-1 $450 -1.2808562293387176e-014 $360 10.515049783823441 $354 $451 forward 7 unknown #
vertex $-1 $244 $452 #
straight-curve $-1 -6.1051964927556384 -30.345261425830664 14.46827824837349 -1 0 0 I I #
coedge $-1 $445 $245 $248 $367 reversed $352 $-1 #
coedge $-1 $245 $445 $358 $449 forward $352 $-1 #
vertex $-1 $246 $453 #
straight-curve $-1 -3.9857428997752713 -36.072167863623186 32.719700747427595 0 0 1 I I #
straight-curve $-1 -3.9857428997752713 -36.072167863623179 5.6496153900340218 0 -0.54463902268945019 -0.83867057594974714 I I #
edge $-1 $447 -20.435043071247282 $249 -3.9857428997752713 $362 $454 forward 7 unknown #
point $-1 -3.9857428997752713 -36.072167863623186 14.46827824837349 #
point $-1 -3.9857428997752713 -30.345261425830664 14.46827824837349 #
edge $-1 $455 1 $455 0 $252 $-1 forward 7 unknown #
vertex $-1 $253 $456 #
ellipse-curve $-1 -12.210392985511277 -30.204043636625222 8.1076907142633399 0 -0.83867057594974714 0.54463902268945019 1.5 0 0 1 I I #
point $-1 -10.710392985511277 -33.208714644726932 10.058946819203758 #
plane-surface $-1 0 0 14.46827824837349 0 0 1 1 0 0 forward_v I I I I #
coedge $-1 $385 $384 $377 $457 forward $257 $-1 #
coedge $-1 $377 $259 $261 $381 reversed $166 $-1 #
coedge $-1 $259 $376 $375 $457 reversed $166 $-1 #
coedge $-1 $267 $262 $259 $379 forward $268 $-1 #
edge $-1 $382 -33.724922395509331 $458 -27.99801595771681 $378 $459 forward 7 unknown #
coedge $-1 $261 $260 $385 $460 reversed $104 $-1 #
edge $-1 $461 -1.2808562293387176e-014 $382 10.515049783823441 $376 $462 forward 7 unknown #
vertex $-1 $263 $463 #
straight-curve $-1 11.049773745677811 -30.345261425830664 14.46827824837349 -1 0 0 I I #
coedge $-1 $375 $264 $267 $389 reversed $257 $-1 #
coedge $-1 $264 $375 $380 $460 forward $257 $-1 #
vertex $-1 $265 $464 #
straight-curve $-1 30.324197577091628 -36.072167863623186 32.719700747427595 0 0 1 I I #
straight-curve $-1 30.324197577091628 -36.072167863623179 5.6496153900340218 0 -0.54463902268945019 -0.83867057594974714 I I #
edge $-1 $458 13.874897405619617 $269 30.324197577091628 $384 $465 forward 7 unknown #
point $-1 30.324197577091628 -36.072167863623186 14.46827824837349 #
point $-1 30.324197577091628 -30.345261425830664 14.46827824837349 #
edge $-1 $466 1 $466 0 $272 $-1 forward 7 unknown #
vertex $-1 $273 $467 #
ellipse-curve $-1 22.099547491355622 -30.204043636625222 8.1076907142633399 0 -0.83867057594974714 0.54463902268945019 1.5 0 0 1 I I #
point $-1 23.599547491355622 -33.208714644726932 10.058946819203758 #
plane-surface $-1 54.889370403149513 0 0 -1 0 0 0 0 1 forward_v I I I I #
coedge $-1 $296 $282 $287 $405 forward $277 $-1 #
vertex $-1 $280 $468 #
vertex $-1 $404 $469 #
straight-curve $-1 54.889370403149513 0 -14.46827824837349 0 -1 0 I I #
straight-curve $-1 0 36.072167863623186 14.46827824837349 -1 0 0 I I #
coedge $-1 $284 $293 $286 $404 reversed $181 $-1 #
straight-curve $-1 0 -36.072167863623186 14.46827824837349 1 0 0 I I #
edge $-1 $289 -14.46827824837349 $399 14.46827824837349 $286 $470 forward 7 unknown #
edge $-1 $290 -14.46827824837349 $398 14.46827824837349 $287 $471 forward 7 unknown #
point $-1 54.889370403149513 -36.072167863623186 14.46827824837349 #
point $-1 54.889370403149513 36.072167863623186 14.46827824837349 #
straight-curve $-1 -54.889370403149513 0 14.46827824837349 0 -1 0 I I #
point $-1 -54.889370403149513 -36.072167863623186 14.46827824837349 #
point $-1 -54.889370403149513 36.072167863623186 14.46827824837349 #
straight-curve $-1 0 36.072167863623186 -14.46827824837349 1 0 0 I I #
straight-curve $-1 0 -36.072167863623186 -14.46827824837349 -1 0 0 I I #
plane-surface $-1 0 0 14.46827824837349 0 0 1 1 0 0 forward_v I I I I #
coedge $-1 $308 $305 $310 $421 reversed $199 $-1 #
coedge $-1 $305 $308 $427 $472 reversed $199 $-1 #
edge $-1 $429 -14.46827824837349 $423 14.46827824837349 $322 $473 forward 7 unknown #
edge $-1 $418 -4.9445772529221799 $320 4.9445772529221799 $307 $474 forward 7 unknown #
vertex $-1 $472 $475 #
vertex $-1 $421 $476 #
straight-curve $-1 -64.778524908993873 -19.888898377897668 0 0 0 -1 I I #
edge $-1 $419 -2.7938211298237121 $423 2.7938211298237121 $414 $477 forward 7 unknown #
straight-curve $-1 -59.833947656071693 -19.888898377897668 -14.46827824837349 -1 0 0 I I #
vertex $-1 $312 $478 #
straight-curve $-1 -59.833947656071693 -14.301256118250244 -14.46827824837349 1 0 0 I I #
point $-1 -54.889370403149513 -19.888898377897668 -14.46827824837349 #
straight-curve $-1 -54.889370403149513 -19.888898377897668 0 0 0 -1 I I #
coedge $-1 $318 $317 $415 $472 forward $319 $-1 #
point $-1 -54.889370403149513 -19.888898377897668 14.46827824837349 #
vertex $-1 $323 $479 #
straight-curve $-1 -59.833947656071693 -14.301256118250244 14.46827824837349 -1 0 0 I I #
coedge $-1 $337 $336 $329 $432 forward $326 $-1 #
edge $-1 $433 55.177219134069148 $436 60.209988690835189 $431 $480 forward 7 unknown #
vertex $-1 $341 $481 #
straight-curve $-1 -20.412012743624537 27.957397443829134 14.468278248373494 0 1 0 I I #
edge $-1 $436 4.680557828789361 $338 26.782352000880991 $337 $482 forward 7 unknown #
vertex $-1 $435 $483 #
straight-curve $-1 -20.412012743624537 -17.541521396822553 57.709492382722075 0 -0.74314481823134659 0.66913061440640931 I I #
point $-1 -20.412012743624537 30.482711131351266 14.468278248373494 #
point $-1 -42.513806915716167 36.072167863623186 9.4355086916074526 #
straight-curve $-1 0 36.072167863623186 14.46827824837349 -1 0 0 I I #
vertex $-1 $344 $484 #
point $-1 -35.199008580832846 32.378819157298786 10.953874495831387 #
vertex $-1 $348 $485 #
point $-1 -25.726811078507861 32.378819157298786 10.953874495831387 #
coedge $-1 $363 $362 $355 $446 forward $352 $-1 #
edge $-1 $447 18.251422499054105 $450 27.070085357393584 $445 $486 forward 7 unknown #
vertex $-1 $367 $487 #
straight-curve $-1 -20.435043071247282 -64.070183821339995 14.46827824837349 0 -1 0 I I #
edge $-1 $450 -14.329846578491644 $364 2.1194535929803671 $363 $488 forward 7 unknown #
vertex $-1 $449 $489 #
straight-curve $-1 -20.435043071247282 -36.072167863623179 5.6496153900340218 0 0.54463902268945019 0.83867057594974714 I I #
point $-1 -20.435043071247282 -30.345261425830664 14.46827824837349 #
point $-1 -3.9857428997752713 -36.072167863623186 5.6496153900340111 #
straight-curve $-1 0 -36.072167863623186 14.46827824837349 1 0 0 I I #
vertex $-1 $370 $490 #
point $-1 -10.710392985511277 -30.204043636625222 8.1076907142633399 #
edge $-1 $458 18.251422499054105 $461 27.070085357393584 $375 $491 forward 7 unknown #
vertex $-1 $389 $492 #
straight-curve $-1 13.874897405619617 -64.070183821339995 14.46827824837349 0 -1 0 I I #
edge $-1 $461 2.8251236599418057 $386 19.274423831413817 $385 $493 forward 7 unknown #
vertex $-1 $460 $494 #
straight-curve $-1 13.874897405619617 -36.072167863623179 5.6496153900340218 0 0.54463902268945019 0.83867057594974714 I I #
point $-1 13.874897405619617 -30.345261425830664 14.46827824837349 #
point $-1 30.324197577091628 -36.072167863623186 5.6496153900340111 #
straight-curve $-1 0 -36.072167863623186 14.46827824837349 1 0 0 I I #
vertex $-1 $392 $495 #
point $-1 23.599547491355622 -30.204043636625222 8.1076907142633399 #
point $-1 54.889370403149513 36.072167863623186 -14.46827824837349 #
point $-1 54.889370403149513 -36.072167863623186 -14.46827824837349 #
straight-curve $-1 54.889370403149513 -36.072167863623186 0 0 0 -1 I I #
straight-curve $-1 54.889370403149513 36.072167863623186 0 0 0 -1 I I #
edge $-1 $429 -2.7938211298237121 $418 2.7938211298237121 $415 $496 forward 7 unknown #
straight-curve $-1 -64.778524908993873 -14.301256118250244 0 0 0 -1 I I #
straight-curve $-1 -59.833947656071693 -19.888898377897668 14.46827824837349 1 0 0 I I #
point $-1 -64.778524908993873 -19.888898377897668 14.46827824837349 #
point $-1 -64.778524908993873 -19.888898377897668 -14.46827824837349 #
straight-curve $-1 -64.778524908993873 -17.095077248073956 -14.46827824837349 0 1 0 I I #
point $-1 -64.778524908993873 -14.301256118250244 -14.46827824837349 #
point $-1 -64.778524908993873 -14.301256118250244 14.46827824837349 #
straight-curve $-1 -20.412012743624537 36.072167863623186 69.645497382442642 0 0 -1 I I #
point $-1 -20.412012743624537 36.072167863623186 14.46827824837349 #
straight-curve $-1 -15.731454914835176 36.072167863623179 9.4355086916074598 -1 0 0 I I #
point $-1 -20.412012743624537 36.072167863623186 9.4355086916074526 #
point $-1 -36.199008580832846 31.709688542892373 10.210729677600041 #
point $-1 -26.726811078507861 31.709688542892373 10.210729677600041 #
straight-curve $-1 -20.435043071247282 -36.072167863623186 32.719700747427595 0 0 -1 I I #
point $-1 -20.435043071247282 -36.072167863623186 14.46827824837349 #
straight-curve $-1 -6.1051964927556384 -36.072167863623186 5.6496153900340023 1 0 0 I I #
point $-1 -20.435043071247282 -36.072167863623186 5.6496153900340111 #
point $-1 -12.210392985511277 -28.946037772700599 7.2907321802291651 #
straight-curve $-1 13.874897405619617 -36.072167863623186 32.719700747427595 0 0 -1 I I #
point $-1 13.874897405619617 -36.072167863623186 14.46827824837349 #
straight-curve $-1 11.049773745677811 -36.072167863623186 5.6496153900340023 1 0 0 I I #
point $-1 13.874897405619617 -36.072167863623186 5.6496153900340111 #
point $-1 22.099547491355622 -28.946037772700599 7.2907321802291651 #
straight-curve $-1 -64.778524908993873 -17.095077248073956 14.46827824837349 0 -1 0 I I #
End-of-ACIS-data 