500 0 5 0           
7 Unknown 11 ACIS 5.0 NT 24 Thu Mar 25 16:29:43 1999 
-1 9.9999999999999995e-007 1e-010 
body $-1 $5 $-1 $6 #
body $-1 $7 $-1 $8 #
body $-1 $9 $-1 $10 #
body $-1 $11 $-1 $12 #
body $-1 $13 $-1 $14 #
lump $-1 $-1 $15 $0 #
transform $-1 1 0 0 0 1 0 0 0 1 55.00045777764214 26.87564713464581 9.0069958020081025 1 rotate no_reflect no_shear #
lump $-1 $-1 $16 $1 #
transform $-1 1 0 0 0 1 0 0 0 1 55.00045777764214 26.87564713464581 9.0069958020081025 1 rotate no_reflect no_shear #
lump $-1 $-1 $17 $2 #
transform $-1 1 0 0 0 1 0 0 0 1 55.00045777764214 26.87564713464581 9.0069958020081025 1 rotate no_reflect no_shear #
lump $-1 $-1 $18 $3 #
transform $-1 1 0 0 0 1 0 0 0 1 55.00045777764214 26.87564713464581 9.0069958020081025 1 rotate no_reflect no_shear #
lump $-1 $-1 $19 $4 #
transform $-1 1 0 0 0 1 0 0 0 1 55.00045777764214 26.87564713464581 9.0069958020081025 1 rotate no_reflect no_shear #
shell $-1 $-1 $-1 $20 $-1 $5 #
shell $-1 $-1 $-1 $21 $-1 $7 #
shell $-1 $-1 $-1 $22 $-1 $9 #
shell $-1 $-1 $-1 $23 $-1 $11 #
shell $-1 $-1 $-1 $24 $-1 $13 #
face $-1 $25 $26 $15 $-1 $27 forward single #
face $-1 $28 $29 $16 $-1 $30 reversed single #
face $-1 $31 $32 $17 $-1 $33 reversed single #
face $-1 $34 $35 $18 $-1 $36 reversed single #
face $-1 $37 $38 $19 $-1 $39 forward single #
face $-1 $40 $41 $15 $-1 $42 reversed single #
loop $-1 $-1 $43 $20 #
plane-surface $-1 0 0 9.0069958020081025 0 0 1 1 0 0 forward_v I I I I #
face $-1 $44 $45 $16 $-1 $46 reversed single #
loop $-1 $-1 $47 $21 #
plane-surface $-1 -41.934252758817912 -23.259929449766076 0 1 0 0 0 0 -1 forward_v I I I I #
face $-1 $48 $49 $17 $-1 $50 reversed single #
loop $-1 $-1 $51 $22 #
plane-surface $-1 0 22.239527838195279 6.0069958020081025 0 0 1 1 0 0 forward_v I I I I #
face $-1 $52 $53 $18 $-1 $54 reversed single #
loop $-1 $-1 $55 $23 #
plane-surface $-1 -132.78285200598665 7.8133746511280826 78.946136719521661 0 1 0 -0.70710678939079041 0 0.70710677298230451 forward_v I I I I #
face $-1 $56 $57 $19 $-1 $58 forward single #
loop $-1 $59 $60 $24 #
cone-surface $-1 -50.012140364868337 12.708391596436414 4.0186783229852638 0.70710678939079041 0 -0.70710677298230451 0.70710677298230451 0 0.70710678939079041 1 I I 0 1 1 forward I I I I #
face $-1 $61 $62 $15 $-1 $63 reversed single #
loop $-1 $-1 $64 $25 #
plane-surface $-1 0 0 -9.0069958020081025 0 0 1 1 0 0 forward_v I I I I #
coedge $-1 $65 $66 $67 $68 forward $26 $-1 #
face $-1 $69 $70 $16 $-1 $71 reversed single #
loop $-1 $-1 $72 $28 #
plane-surface $-1 -39.460359466221924 -19.644211764886343 0 0 -1 0 0 0 -1 forward_v I I I I #
coedge $-1 $73 $74 $75 $76 forward $29 $-1 #
face $-1 $77 $78 $17 $-1 $79 reversed single #
loop $-1 $-1 $80 $31 #
plane-surface $-1 0 17.603408541744745 7.5069958020081025 0 1 0 0 0 1 forward_v I I I I #
coedge $-1 $81 $82 $83 $84 reversed $32 $-1 #
face $-1 $85 $86 $18 $-1 $87 forward single #
loop $-1 $-1 $88 $34 #
plane-surface $-1 -55.000457777642126 12.708391596436407 1.1637442961256141 -0.70710678939079041 0 0.70710677298230451 0.70710677298230451 0 0.70710678939079041 forward_v I I I I #
coedge $-1 $89 $90 $91 $92 reversed $35 $-1 #
face $-1 $-1 $93 $19 $-1 $94 forward single #
loop $-1 $95 $96 $37 #
cone-surface $-1 -48.591895219338667 12.708391596436414 2.5984332104125265 0.70710678939079041 0 -0.70710677298230451 0.35355338649115226 0 0.35355339469539521 1 I I -0.70710678118654746 0.70710678118654746 0.5 forward I I I I #
loop $-1 $-1 $97 $24 #
coedge $-1 $60 $60 $98 $99 reversed $38 $-1 #
face $-1 $100 $101 $15 $-1 $102 reversed single #
loop $-1 $-1 $103 $40 #
plane-surface $-1 0 -26.87564713464581 0 0 1 0 0 0 1 forward_v I I I I #
coedge $-1 $104 $105 $106 $107 forward $41 $-1 #
coedge $-1 $108 $43 $109 $110 forward $26 $-1 #
coedge $-1 $43 $108 $111 $112 forward $26 $-1 #
coedge $-1 $113 $114 $43 $68 reversed $115 $-1 #
edge $-1 $116 -26.87564713464581 $117 26.87564713464581 $67 $118 forward 7 unknown #
face $-1 $119 $120 $16 $-1 $121 forward single #
loop $-1 $-1 $122 $44 #
plane-surface $-1 -36.986466173625935 -23.259929449766076 0 -1 0 0 0 0 1 forward_v I I I I #
coedge $-1 $123 $124 $125 $126 forward $45 $-1 #
coedge $-1 $127 $47 $128 $129 reversed $29 $-1 #
coedge $-1 $47 $127 $130 $131 reversed $29 $-1 #
coedge $-1 $124 $123 $47 $76 reversed $45 $-1 #
edge $-1 $132 -9.0069958020081025 $133 9.0069958020081025 $75 $134 forward 7 unknown #
face $-1 $135 $136 $17 $-1 $137 reversed single #
loop $-1 $-1 $138 $48 #
plane-surface $-1 55.00045777764214 0 0 -1 0 0 0 0 1 forward_v I I I I #
coedge $-1 $139 $140 $141 $142 reversed $49 $-1 #
coedge $-1 $143 $51 $139 $144 forward $32 $-1 #
coedge $-1 $51 $143 $145 $146 reversed $32 $-1 #
coedge $-1 $147 $138 $51 $84 forward $78 $-1 #
edge $-1 $148 6.4836446226471054 $149 15.755883215548174 $83 $150 forward 7 unknown #
face $-1 $151 $152 $18 $-1 $153 forward single #
loop $-1 $-1 $154 $52 #
plane-surface $-1 0 17.603408541744745 7.5069958020081025 0 1 0 0 0 1 forward_v I I I I #
coedge $-1 $155 $156 $157 $158 reversed $53 $-1 #
coedge $-1 $90 $55 $159 $160 reversed $35 $-1 #
coedge $-1 $55 $89 $155 $161 reversed $35 $-1 #
coedge $-1 $157 $162 $55 $92 forward $152 $-1 #
edge $-1 $163 11.390968225351187 $164 19.234219549230232 $91 $165 forward 7 unknown #
loop $-1 $-1 $98 $56 #
plane-surface $-1 -55.000457777642126 12.708391596436407 1.1637442961256141 -0.70710678939079041 0 0.70710677298230451 0.70710677298230451 0 0.70710678939079041 forward_v I I I I #
loop $-1 $-1 $166 $37 #
coedge $-1 $96 $96 $97 $167 reversed $57 $-1 #
coedge $-1 $97 $97 $96 $167 forward $59 $-1 #
coedge $-1 $98 $98 $60 $99 forward $93 $-1 #
edge $-1 $168 0 $168 6.2831853071796004 $98 $169 forward 7 unknown #
face $-1 $170 $171 $15 $-1 $172 reversed single #
loop $-1 $-1 $173 $61 #
plane-surface $-1 -55.00045777764214 0 0 1 0 0 0 0 -1 forward_v I I I I #
coedge $-1 $174 $111 $175 $176 forward $62 $-1 #
coedge $-1 $177 $64 $174 $178 forward $41 $-1 #
coedge $-1 $64 $177 $179 $180 forward $41 $-1 #
coedge $-1 $114 $113 $64 $107 reversed $115 $-1 #
edge $-1 $181 -26.87564713464581 $182 26.87564713464581 $106 $183 forward 7 unknown #
coedge $-1 $66 $65 $184 $185 forward $26 $-1 #
coedge $-1 $186 $187 $65 $110 reversed $171 $-1 #
edge $-1 $117 -55.00045777764214 $188 55.00045777764214 $109 $189 forward 7 unknown #
coedge $-1 $103 $190 $66 $112 reversed $62 $-1 #
edge $-1 $191 -55.00045777764214 $116 55.00045777764214 $111 $192 forward 7 unknown #
coedge $-1 $106 $67 $190 $193 forward $115 $-1 #
coedge $-1 $67 $106 $186 $194 reversed $115 $-1 #
loop $-1 $-1 $113 $170 #
vertex $-1 $68 $195 #
vertex $-1 $68 $196 #
straight-curve $-1 55.00045777764214 0 9.0069958020081025 0 1 0 I I #
face $-1 $197 $198 $16 $-1 $199 reversed single #
loop $-1 $-1 $200 $69 #
plane-surface $-1 0 0 9.0069958020081025 0 0 1 1 0 0 forward_v I I I I #
coedge $-1 $201 $202 $203 $204 reversed $70 $-1 #
coedge $-1 $75 $72 $205 $206 reversed $45 $-1 #
coedge $-1 $72 $75 $207 $208 reversed $45 $-1 #
coedge $-1 $202 $201 $72 $126 reversed $70 $-1 #
edge $-1 $209 -9.0069958020081025 $210 9.0069958020081025 $125 $211 forward 7 unknown #
coedge $-1 $74 $73 $212 $213 reversed $29 $-1 #
coedge $-1 $205 $214 $73 $129 forward $198 $-1 #
edge $-1 $215 -15.245682409762772 $133 -8.0142470400033048 $128 $216 forward 7 unknown #
coedge $-1 $217 $207 $74 $131 forward $120 $-1 #
edge $-1 $132 8.0142470400033048 $218 15.245682409762772 $130 $219 forward 7 unknown #
vertex $-1 $131 $220 #
vertex $-1 $129 $221 #
straight-curve $-1 -41.934252758817912 -19.644211764886343 0 0 0 -1 I I #
face $-1 $222 $223 $17 $-1 $224 forward single #
loop $-1 $-1 $145 $77 #
plane-surface $-1 0 26.87564713464581 0 0 -1 0 0 0 -1 forward_v I I I I #
coedge $-1 $83 $225 $226 $227 forward $78 $-1 #
coedge $-1 $226 $80 $81 $144 reversed $49 $-1 #
coedge $-1 $80 $226 $228 $229 reversed $49 $-1 #
coedge $-1 $230 $231 $80 $142 forward $232 $-1 #
edge $-1 $233 2.2534979010040512 $234 5.2534979010040512 $141 $235 forward 7 unknown #
coedge $-1 $82 $81 $231 $236 reversed $32 $-1 #
edge $-1 $148 -55.00045777764214 $233 55.00045777764214 $139 $237 forward 7 unknown #
coedge $-1 $238 $239 $82 $146 forward $136 $-1 #
edge $-1 $149 -55.00045777764214 $240 55.00045777764214 $145 $241 forward 7 unknown #
coedge $-1 $225 $83 $239 $242 reversed $78 $-1 #
vertex $-1 $84 $243 #
vertex $-1 $146 $244 #
straight-curve $-1 55.00045777764214 11.11976391909764 6.0069958020081025 0 1 0 I I #
face $-1 $-1 $245 $18 $-1 $246 reversed single #
loop $-1 $-1 $157 $85 #
plane-surface $-1 0 0 9.0069958020081025 0 0 1 1 0 0 forward_v I I I I #
coedge $-1 $247 $248 $156 $249 reversed $86 $-1 #
coedge $-1 $250 $88 $90 $161 forward $53 $-1 #
coedge $-1 $88 $250 $154 $249 forward $53 $-1 #
coedge $-1 $251 $91 $88 $158 forward $152 $-1 #
edge $-1 $164 1.4591788529098793 $252 11.249212743526542 $157 $253 forward 7 unknown #
coedge $-1 $254 $255 $89 $160 forward $245 $-1 #
edge $-1 $256 -38.309324063635231 $163 -30.466072557752728 $159 $257 forward 7 unknown #
edge $-1 $164 -11.09203252402634 $256 2.0097183471152325e-014 $90 $258 forward 7 unknown #
coedge $-1 $91 $251 $254 $259 forward $152 $-1 #
vertex $-1 $160 $260 #
vertex $-1 $92 $261 #
straight-curve $-1 -66.391426002993327 7.8133746511280826 9.006995802008106 1 0 0 I I #
coedge $-1 $166 $166 $-1 $262 reversed $95 $-1 #
edge $-1 $263 0 $263 6.2831853071796004 $96 $264 forward 7 unknown #
vertex $-1 $99 $265 #
ellipse-curve $-1 -51.078832115702618 12.708391596436414 5.0853700490668521 -0.70710678939079041 0 0.70710677298230451 0.70710677298230451 0 0.70710678939079041 1 I I #
face $-1 $-1 $115 $15 $-1 $266 reversed single #
loop $-1 $-1 $186 $100 #
plane-surface $-1 0 26.87564713464581 0 0 -1 0 0 0 -1 forward_v I I I I #
coedge $-1 $267 $184 $187 $268 forward $101 $-1 #
coedge $-1 $190 $103 $104 $178 reversed $62 $-1 #
coedge $-1 $184 $267 $103 $176 reversed $101 $-1 #
edge $-1 $191 -9.0069958020081025 $269 9.0069958020081025 $175 $270 forward 7 unknown #
coedge $-1 $105 $104 $267 $271 forward $41 $-1 #
edge $-1 $182 -55.00045777764214 $269 55.00045777764214 $174 $272 forward 7 unknown #
coedge $-1 $187 $186 $105 $180 reversed $171 $-1 #
edge $-1 $273 -55.00045777764214 $181 55.00045777764214 $179 $274 forward 7 unknown #
vertex $-1 $107 $275 #
vertex $-1 $193 $276 #
straight-curve $-1 55.00045777764214 0 -9.0069958020081025 0 -1 0 I I #
coedge $-1 $173 $175 $108 $185 reversed $101 $-1 #
edge $-1 $188 -26.87564713464581 $191 26.87564713464581 $184 $277 forward 7 unknown #
coedge $-1 $179 $109 $114 $194 forward $171 $-1 #
coedge $-1 $109 $179 $173 $268 reversed $171 $-1 #
vertex $-1 $110 $278 #
straight-curve $-1 0 26.87564713464581 9.0069958020081025 -1 0 0 I I #
coedge $-1 $111 $174 $113 $193 reversed $62 $-1 #
vertex $-1 $185 $279 #
straight-curve $-1 0 -26.87564713464581 9.0069958020081025 1 0 0 I I #
edge $-1 $116 -9.0069958020081025 $182 9.0069958020081025 $113 $280 forward 7 unknown #
edge $-1 $117 -9.0069958020081025 $181 9.0069958020081025 $114 $281 forward 7 unknown #
point $-1 55.00045777764214 -26.87564713464581 9.0069958020081025 #
point $-1 55.00045777764214 26.87564713464581 9.0069958020081025 #
face $-1 $-1 $282 $16 $-1 $283 reversed single #
loop $-1 $-1 $284 $119 #
plane-surface $-1 0 0 -9.0069958020081025 0 0 1 1 0 0 forward_v I I I I #
coedge $-1 $207 $217 $202 $285 forward $120 $-1 #
coedge $-1 $125 $122 $284 $286 reversed $70 $-1 #
coedge $-1 $122 $125 $200 $285 reversed $70 $-1 #
coedge $-1 $287 $288 $122 $204 forward $282 $-1 #
edge $-1 $289 -9.0069958020081025 $290 9.0069958020081025 $203 $291 forward 7 unknown #
coedge $-1 $284 $128 $123 $206 forward $198 $-1 #
edge $-1 $133 -22.204073025706951 $210 -17.256286440514973 $205 $292 forward 7 unknown #
coedge $-1 $130 $200 $124 $208 forward $120 $-1 #
edge $-1 $209 17.256286440514973 $132 22.204073025706951 $207 $293 forward 7 unknown #
vertex $-1 $208 $294 #
vertex $-1 $206 $295 #
straight-curve $-1 -36.986466173625935 -19.644211764886343 0 0 0 -1 I I #
coedge $-1 $288 $287 $127 $213 forward $282 $-1 #
edge $-1 $218 -9.0069958020081025 $215 9.0069958020081025 $212 $296 forward 7 unknown #
coedge $-1 $128 $284 $288 $297 forward $198 $-1 #
vertex $-1 $129 $298 #
straight-curve $-1 -41.934252758817912 -11.629964724883038 -9.0069958020081025 0 1 0 I I #
coedge $-1 $200 $130 $287 $299 forward $120 $-1 #
vertex $-1 $299 $300 #
straight-curve $-1 -41.934252758817912 -11.629964724883038 9.0069958020081025 0 -1 0 I I #
point $-1 -41.934252758817912 -19.644211764886343 9.0069958020081025 #
point $-1 -41.934252758817912 -19.644211764886343 -9.0069958020081025 #
face $-1 $-1 $232 $17 $-1 $301 reversed single #
loop $-1 $-1 $228 $135 #
plane-surface $-1 0 0 9.0069958020081025 0 0 1 1 0 0 forward_v I I I I #
coedge $-1 $138 $147 $302 $303 reversed $78 $-1 #
coedge $-1 $140 $139 $138 $227 reversed $49 $-1 #
edge $-1 $304 -5.2534979010040512 $148 -2.2534979010040512 $138 $305 forward 7 unknown #
coedge $-1 $302 $306 $140 $229 forward $223 $-1 #
edge $-1 $234 -55.00045777764214 $304 55.00045777764214 $228 $307 forward 7 unknown #
coedge $-1 $308 $141 $306 $309 reversed $232 $-1 #
coedge $-1 $141 $308 $143 $236 forward $232 $-1 #
loop $-1 $-1 $141 $222 #
vertex $-1 $236 $310 #
vertex $-1 $142 $311 #
straight-curve $-1 -55.00045777764214 17.603408541744745 3.7534979010040512 0 0 1 I I #
edge $-1 $240 -15.755883215548174 $233 -6.4836446226471054 $231 $312 forward 7 unknown #
straight-curve $-1 0 17.603408541744745 6.0069958020081025 -1 0 0 I I #
coedge $-1 $313 $145 $308 $314 reversed $136 $-1 #
coedge $-1 $145 $313 $147 $242 forward $136 $-1 #
vertex $-1 $146 $315 #
straight-curve $-1 0 26.87564713464581 6.0069958020081025 -1 0 0 I I #
edge $-1 $316 -9.0069958020081025 $149 -6.0069958020081025 $147 $317 forward 7 unknown #
point $-1 55.00045777764214 17.603408541744745 6.0069958020081025 #
point $-1 55.00045777764214 26.875647134645813 6.0069958020081025 #
loop $-1 $-1 $159 $151 #
plane-surface $-1 -55.00045777764214 0 0 1 0 0 0 0 -1 forward_v I I I I #
coedge $-1 $248 $154 $318 $319 reversed $86 $-1 #
coedge $-1 $154 $247 $251 $320 reversed $86 $-1 #
edge $-1 $321 -2.0097183471152325e-014 $252 11.09203252402634 $154 $322 forward 7 unknown #
coedge $-1 $156 $155 $255 $323 reversed $53 $-1 #
coedge $-1 $162 $157 $248 $320 forward $152 $-1 #
vertex $-1 $320 $324 #
straight-curve $-1 -47.157206453763095 6.3541957982182034 9.0069958020081025 0 1 0 I I #
coedge $-1 $318 $159 $162 $259 reversed $245 $-1 #
coedge $-1 $159 $318 $250 $323 forward $245 $-1 #
vertex $-1 $160 $325 #
straight-curve $-1 -55.00045777764214 7.8133746511280826 39.473068359760831 0 0 1 I I #
straight-curve $-1 -55.000457777642126 7.8133746511280826 1.1637442961256141 -0.70710677298230451 0 -0.70710678939079041 I I #
edge $-1 $326 -17.603408541744745 $163 -7.8133746511280826 $254 $327 forward 7 unknown #
point $-1 -55.00045777764214 7.8133746511280826 9.0069958020081025 #
point $-1 -47.157206453763095 7.8133746511280826 9.0069958020081025 #
edge $-1 $328 1 $328 0 $166 $-1 forward 7 unknown #
vertex $-1 $167 $329 #
ellipse-curve $-1 -48.945448614034063 12.708391596436414 2.9519865969036787 -0.70710678939079041 0 0.70710677298230451 0.70710677298230451 0 0.70710678939079041 1 I I #
point $-1 -50.37172534272031 12.708391596436414 5.7924768384576399 #
plane-surface $-1 55.00045777764214 0 0 -1 0 0 0 0 1 forward_v I I I I #
coedge $-1 $175 $173 $177 $271 reversed $101 $-1 #
edge $-1 $188 -9.0069958020081025 $273 9.0069958020081025 $187 $330 forward 7 unknown #
vertex $-1 $271 $331 #
straight-curve $-1 -55.00045777764214 -26.87564713464581 0 0 0 -1 I I #
edge $-1 $269 -26.87564713464581 $273 26.87564713464581 $267 $332 forward 7 unknown #
straight-curve $-1 0 -26.87564713464581 -9.0069958020081025 -1 0 0 I I #
vertex $-1 $180 $333 #
straight-curve $-1 0 26.87564713464581 -9.0069958020081025 1 0 0 I I #
point $-1 55.00045777764214 26.87564713464581 -9.0069958020081025 #
point $-1 55.00045777764214 -26.87564713464581 -9.0069958020081025 #
straight-curve $-1 -55.00045777764214 0 9.0069958020081025 0 -1 0 I I #
point $-1 -55.00045777764214 26.87564713464581 9.0069958020081025 #
point $-1 -55.00045777764214 -26.87564713464581 9.0069958020081025 #
straight-curve $-1 55.00045777764214 -26.87564713464581 0 0 0 -1 I I #
straight-curve $-1 55.00045777764214 26.87564713464581 0 0 0 -1 I I #
loop $-1 $-1 $203 $197 #
plane-surface $-1 0 -26.87564713464581 0 0 1 0 0 0 1 forward_v I I I I #
coedge $-1 $214 $205 $201 $286 forward $198 $-1 #
edge $-1 $290 -15.245682409762772 $209 -8.0142470400033048 $200 $334 forward 7 unknown #
edge $-1 $210 8.0142470400033048 $289 15.245682409762772 $284 $335 forward 7 unknown #
coedge $-1 $212 $203 $217 $299 reversed $282 $-1 #
coedge $-1 $203 $212 $214 $297 reversed $282 $-1 #
vertex $-1 $297 $336 #
vertex $-1 $204 $337 #
straight-curve $-1 -36.986466173625935 -26.87564713464581 0 0 0 1 I I #
straight-curve $-1 -19.730179733110962 -19.644211764886343 -9.0069958020081025 1 0 0 I I #
straight-curve $-1 -19.730179733110962 -19.644211764886343 9.0069958020081025 -1 0 0 I I #
point $-1 -36.986466173625935 -19.644211764886343 9.0069958020081025 #
point $-1 -36.986466173625935 -19.644211764886343 -9.0069958020081025 #
straight-curve $-1 -41.934252758817912 -26.87564713464581 0 0 0 -1 I I #
edge $-1 $289 36.986466173625935 $215 41.934252758817912 $288 $338 forward 7 unknown #
point $-1 -41.934252758817912 -26.87564713464581 -9.0069958020081025 #
edge $-1 $218 -41.934252758817912 $290 -36.986466173625935 $287 $339 forward 7 unknown #
point $-1 -41.934252758817912 -26.87564713464581 9.0069958020081025 #
plane-surface $-1 -55.00045777764214 0 0 1 0 0 0 0 -1 forward_v I I I I #
coedge $-1 $340 $228 $225 $303 forward $223 $-1 #
edge $-1 $304 17.603408541744745 $316 26.87564713464581 $225 $341 forward 7 unknown #
vertex $-1 $303 $342 #
straight-curve $-1 55.00045777764214 17.603408541744745 3.7534979010040512 0 0 -1 I I #
coedge $-1 $228 $340 $230 $309 forward $223 $-1 #
straight-curve $-1 0 17.603408541744745 9.0069958020081025 1 0 0 I I #
coedge $-1 $231 $230 $238 $314 forward $232 $-1 #
edge $-1 $343 -26.87564713464581 $234 -17.603408541744745 $230 $344 forward 7 unknown #
point $-1 -55.00045777764214 17.603408541744745 6.0069958020081025 #
point $-1 -55.00045777764214 17.603408541744745 9.0069958020081025 #
straight-curve $-1 -55.00045777764214 11.11976391909764 6.0069958020081025 0 -1 0 I I #
coedge $-1 $239 $238 $340 $345 reversed $136 $-1 #
edge $-1 $343 -9.0069958020081025 $240 -6.0069958020081025 $238 $346 forward 7 unknown #
point $-1 -55.00045777764214 26.875647134645813 6.0069958020081025 #
vertex $-1 $303 $347 #
straight-curve $-1 55.00045777764214 26.87564713464581 0 0 0 -1 I I #
coedge $-1 $255 $254 $247 $319 forward $245 $-1 #
edge $-1 $326 30.466072557752728 $321 38.309324063635231 $318 $348 forward 7 unknown #
edge $-1 $252 47.157206453763095 $326 55.00045777764214 $251 $349 forward 7 unknown #
vertex $-1 $319 $350 #
straight-curve $-1 -55.000457777642126 17.603408541744731 1.1637442961256141 0.70710677298230451 0 0.70710678939079041 I I #
edge $-1 $321 -11.249212743526527 $256 -1.4591788529098793 $255 $351 forward 7 unknown #
point $-1 -47.157206453763095 17.603408541744745 9.0069958020081025 #
point $-1 -55.00045777764214 7.8133746511280826 1.1637442961255999 #
vertex $-1 $259 $352 #
straight-curve $-1 -55.00045777764214 0 9.0069958020081025 0 -1 0 I I #
vertex $-1 $262 $353 #
point $-1 -48.238341841051756 12.708391596436414 3.6590933862944692 #
straight-curve $-1 -55.00045777764214 26.87564713464581 0 0 0 -1 I I #
point $-1 -55.00045777764214 -26.87564713464581 -9.0069958020081025 #
straight-curve $-1 -55.00045777764214 0 -9.0069958020081025 0 1 0 I I #
point $-1 -55.00045777764214 26.87564713464581 -9.0069958020081025 #
straight-curve $-1 -36.986466173625935 -11.629964724883038 9.0069958020081025 0 1 0 I I #
straight-curve $-1 -36.986466173625935 -11.629964724883038 -9.0069958020081025 0 -1 0 I I #
point $-1 -36.986466173625935 -26.87564713464581 -9.0069958020081025 #
point $-1 -36.986466173625935 -26.87564713464581 9.0069958020081025 #
straight-curve $-1 0 -26.87564713464581 -9.0069958020081025 -1 0 0 I I #
straight-curve $-1 0 -26.87564713464581 9.0069958020081025 1 0 0 I I #
coedge $-1 $306 $302 $313 $345 forward $223 $-1 #
straight-curve $-1 55.00045777764214 0 9.0069958020081025 0 1 0 I I #
point $-1 55.00045777764214 17.603408541744745 9.0069958020081025 #
vertex $-1 $345 $354 #
straight-curve $-1 -55.00045777764214 0 9.0069958020081025 0 -1 0 I I #
edge $-1 $316 -55.00045777764214 $343 55.00045777764214 $313 $355 forward 7 unknown #
straight-curve $-1 -55.00045777764214 26.87564713464581 0 0 0 -1 I I #
point $-1 55.00045777764214 26.87564713464581 9.0069958020081025 #
straight-curve $-1 -55.00045777764214 17.603408541744731 39.473068359760831 0 0 -1 I I #
straight-curve $-1 0 17.603408541744745 9.0069958020081025 -1 0 0 I I #
point $-1 -55.00045777764214 17.603408541744731 1.1637442961255999 #
straight-curve $-1 -55.00045777764214 6.3541957982182034 1.1637442961255999 0 -1 0 I I #
point $-1 -55.00045777764214 17.603408541744745 9.0069958020081025 #
point $-1 -48.238341824643271 12.708391596436414 2.2448798239213743 #
point $-1 -55.00045777764214 26.87564713464581 9.0069958020081025 #
straight-curve $-1 0 26.87564713464581 9.0069958020081025 -1 0 0 I I #
End-of-ACIS-data 