500 0 18 0           
7 Unknown 11 ACIS 5.0 NT 24 Thu Mar 25 15:20:03 1999 
-1 9.9999999999999995e-007 1e-010 
body $-1 $18 $-1 $19 #
body $-1 $20 $-1 $21 #
body $-1 $22 $-1 $23 #
body $-1 $24 $-1 $25 #
body $-1 $26 $-1 $27 #
body $-1 $28 $-1 $29 #
body $-1 $30 $-1 $31 #
body $-1 $32 $-1 $33 #
body $-1 $34 $-1 $35 #
body $-1 $36 $-1 $37 #
body $-1 $38 $-1 $39 #
body $-1 $40 $-1 $41 #
body $-1 $42 $-1 $43 #
body $-1 $44 $-1 $45 #
body $-1 $46 $-1 $47 #
body $-1 $48 $-1 $49 #
body $-1 $50 $-1 $51 #
body $-1 $52 $-1 $53 #
lump $-1 $-1 $54 $0 #
transform $-1 1 0 0 0 1 0 0 0 1 41.59550767540513 22.910471005101986 6.9081009728540339 1 rotate no_reflect no_shear #
lump $-1 $-1 $55 $1 #
transform $-1 1 0 0 0 1 0 0 0 1 41.59550767540513 22.910471005101986 6.9081009728540339 1 rotate no_reflect no_shear #
lump $-1 $-1 $56 $2 #
transform $-1 1 0 0 0 1 0 0 0 1 41.59550767540513 22.910471005101986 6.9081009728540339 1 rotate no_reflect no_shear #
lump $-1 $-1 $57 $3 #
transform $-1 1 0 0 0 1 0 0 0 1 41.59550767540513 22.910471005101986 6.9081009728540339 1 rotate no_reflect no_shear #
lump $-1 $-1 $58 $4 #
transform $-1 1 0 0 0 1 0 0 0 1 41.59550767540513 22.910471005101986 6.9081009728540339 1 rotate no_reflect no_shear #
lump $-1 $-1 $59 $5 #
transform $-1 1 0 0 0 1 0 0 0 1 41.59550767540513 22.910471005101986 6.9081009728540339 1 rotate no_reflect no_shear #
lump $-1 $-1 $60 $6 #
transform $-1 1 0 0 0 1 0 0 0 1 41.59550767540513 22.910471005101986 6.9081009728540339 1 rotate no_reflect no_shear #
lump $-1 $-1 $61 $7 #
transform $-1 1 0 0 0 1 0 0 0 1 41.59550767540513 22.910471005101986 6.9081009728540339 1 rotate no_reflect no_shear #
lump $-1 $-1 $62 $8 #
transform $-1 1 0 0 0 1 0 0 0 1 41.59550767540513 22.910471005101986 6.9081009728540339 1 rotate no_reflect no_shear #
lump $-1 $-1 $63 $9 #
transform $-1 1 0 0 0 1 0 0 0 1 41.59550767540513 22.910471005101986 6.9081009728540339 1 rotate no_reflect no_shear #
lump $-1 $-1 $64 $10 #
transform $-1 1 0 0 0 1 0 0 0 1 41.59550767540513 22.910471005101986 6.9081009728540339 1 rotate no_reflect no_shear #
lump $-1 $-1 $65 $11 #
transform $-1 1 0 0 0 1 0 0 0 1 41.59550767540513 22.910471005101986 6.9081009728540339 1 rotate no_reflect no_shear #
lump $-1 $-1 $66 $12 #
transform $-1 1 0 0 0 1 0 0 0 1 41.59550767540513 22.910471005101986 6.9081009728540339 1 rotate no_reflect no_shear #
lump $-1 $-1 $67 $13 #
transform $-1 1 0 0 0 1 0 0 0 1 41.59550767540513 22.910471005101986 6.9081009728540339 1 rotate no_reflect no_shear #
lump $-1 $-1 $68 $14 #
transform $-1 1 0 0 0 1 0 0 0 1 41.59550767540513 22.910471005101986 6.9081009728540339 1 rotate no_reflect no_shear #
lump $-1 $-1 $69 $15 #
transform $-1 1 0 0 0 1 0 0 0 1 41.59550767540513 22.910471005101986 6.9081009728540339 1 rotate no_reflect no_shear #
lump $-1 $-1 $70 $16 #
transform $-1 1 0 0 0 1 0 0 0 1 41.59550767540513 22.910471005101986 6.9081009728540339 1 rotate no_reflect no_shear #
lump $-1 $-1 $71 $17 #
transform $-1 1 0 0 0 1 0 0 0 1 41.59550767540513 22.910471005101986 6.9081009728540339 1 rotate no_reflect no_shear #
shell $-1 $-1 $-1 $72 $-1 $18 #
shell $-1 $-1 $-1 $73 $-1 $20 #
shell $-1 $-1 $-1 $74 $-1 $22 #
shell $-1 $-1 $-1 $75 $-1 $24 #
shell $-1 $-1 $-1 $76 $-1 $26 #
shell $-1 $-1 $-1 $77 $-1 $28 #
shell $-1 $-1 $-1 $78 $-1 $30 #
shell $-1 $-1 $-1 $79 $-1 $32 #
shell $-1 $-1 $-1 $80 $-1 $34 #
shell $-1 $-1 $-1 $81 $-1 $36 #
shell $-1 $-1 $-1 $82 $-1 $38 #
shell $-1 $-1 $-1 $83 $-1 $40 #
shell $-1 $-1 $-1 $84 $-1 $42 #
shell $-1 $-1 $-1 $85 $-1 $44 #
shell $-1 $-1 $-1 $86 $-1 $46 #
shell $-1 $-1 $-1 $87 $-1 $48 #
shell $-1 $-1 $-1 $88 $-1 $50 #
shell $-1 $-1 $-1 $89 $-1 $52 #
face $-1 $90 $91 $54 $-1 $92 reversed single #
face $-1 $93 $94 $55 $-1 $95 forward single #
face $-1 $96 $97 $56 $-1 $98 forward single #
face $-1 $99 $100 $57 $-1 $101 reversed single #
face $-1 $102 $103 $58 $-1 $104 forward single #
face $-1 $105 $106 $59 $-1 $107 forward single #
face $-1 $108 $109 $60 $-1 $110 reversed single #
face $-1 $111 $112 $61 $-1 $113 forward single #
face $-1 $114 $115 $62 $-1 $116 forward single #
face $-1 $117 $118 $63 $-1 $119 reversed single #
face $-1 $120 $121 $64 $-1 $122 forward single #
face $-1 $123 $124 $65 $-1 $125 forward single #
face $-1 $126 $127 $66 $-1 $128 reversed single #
face $-1 $129 $130 $67 $-1 $131 forward single #
face $-1 $132 $133 $68 $-1 $134 forward single #
face $-1 $135 $136 $69 $-1 $137 reversed single #
face $-1 $138 $139 $70 $-1 $140 forward single #
face $-1 $141 $142 $71 $-1 $143 forward single #
face $-1 $144 $145 $54 $-1 $146 reversed single #
loop $-1 $-1 $147 $72 #
plane-surface $-1 41.59550767540513 0 0 -1 0 0 0 0 1 forward_v I I I I #
face $-1 $148 $149 $55 $-1 $150 reversed single #
loop $-1 $-1 $151 $73 #
plane-surface $-1 -41.59550767540513 0 0 1 0 0 0 0 -1 forward_v I I I I #
face $-1 $152 $153 $56 $-1 $154 reversed single #
loop $-1 $-1 $155 $74 #
plane-surface $-1 41.59550767540513 0 0 -1 0 0 0 0 1 forward_v I I I I #
face $-1 $156 $157 $57 $-1 $158 reversed single #
loop $-1 $-1 $159 $75 #
plane-surface $-1 -15.80025549406097 -83.752528710915314 57.676813192402086 -1 0 0 0 -0.73135370988377701 0.68199835119979291 forward_v I I I I #
face $-1 $160 $161 $58 $-1 $162 forward single #
loop $-1 $163 $164 $76 #
cone-surface $-1 -28.477874772626251 -19.633675120853617 3.4633167516174961 0 0.73135370988377701 -0.68199835119979291 1 0 0 1 I I 0 1 1 forward I I I I #
face $-1 $165 $166 $59 $-1 $167 forward single #
loop $-1 $168 $169 $77 #
cone-surface $-1 -20.871303205487081 -19.633675120853617 3.4633167516174961 0 0.73135370988377701 -0.68199835119979291 1 0 0 1 I I 0 1 1 forward I I I I #
face $-1 $170 $171 $60 $-1 $172 reversed single #
loop $-1 $-1 $173 $78 #
plane-surface $-1 -31.433305635681023 54.07324998839087 91.73409594726013 1 0 0 0 -0.74314483375859142 -0.66913059716165679 forward_v I I I I #
face $-1 $174 $175 $61 $-1 $176 forward single #
loop $-1 $177 $178 $79 #
cone-surface $-1 -28.791285390043264 20.131084358656707 3.9426397757770859 0 -0.74314483375859142 -0.66913059716165679 0.5 0 0 1 I I 0 1 0.5 forward I I I I #
face $-1 $179 $180 $62 $-1 $181 forward single #
loop $-1 $182 $183 $80 #
cone-surface $-1 -24.828255021586632 20.131084358656707 3.9426397757770859 0 -0.74314483375859142 -0.66913059716165679 0.5 0 0 1 I I 0 1 0.5 forward I I I I #
face $-1 $184 $185 $63 $-1 $186 reversed single #
loop $-1 $-1 $187 $81 #
plane-surface $-1 -13.56012549847105 54.07324998839087 91.73409594726013 1 0 0 0 -0.74314483375859142 -0.66913059716165679 forward_v I I I I #
face $-1 $188 $189 $64 $-1 $190 forward single #
loop $-1 $191 $192 $82 #
cone-surface $-1 -10.918105252833296 20.131084358656707 3.9426397757770859 0 -0.74314483375859142 -0.66913059716165679 0.5 0 0 1 I I 0 1 0.5 forward I I I I #
face $-1 $193 $194 $65 $-1 $195 forward single #
loop $-1 $196 $197 $83 #
cone-surface $-1 -6.9550748843766641 20.131084358656707 3.9426397757770859 0 -0.74314483375859142 -0.66913059716165679 0.5 0 0 1 I I 0 1 0.5 forward I I I I #
face $-1 $198 $199 $66 $-1 $200 reversed single #
loop $-1 $-1 $201 $84 #
plane-surface $-1 4.3130546387389135 54.07324998839087 91.73409594726013 1 0 0 0 -0.74314483375859142 -0.66913059716165679 forward_v I I I I #
face $-1 $202 $203 $67 $-1 $204 forward single #
loop $-1 $205 $206 $85 #
cone-surface $-1 6.9550748843766712 20.131084358656707 3.9426397757770859 0 -0.74314483375859142 -0.66913059716165679 0.5 0 0 1 I I 0 1 0.5 forward I I I I #
face $-1 $207 $208 $68 $-1 $209 forward single #
loop $-1 $210 $211 $86 #
cone-surface $-1 10.9181052528333 20.131084358656707 3.9426397757770859 0 -0.74314483375859142 -0.66913059716165679 0.5 0 0 1 I I 0 1 0.5 forward I I I I #
face $-1 $212 $213 $69 $-1 $214 reversed single #
loop $-1 $-1 $215 $87 #
plane-surface $-1 22.186234775948883 54.07324998839087 91.73409594726013 1 0 0 0 -0.74314483375859142 -0.66913059716165679 forward_v I I I I #
face $-1 $216 $217 $70 $-1 $218 forward single #
loop $-1 $219 $220 $88 #
cone-surface $-1 24.828255021586642 20.131084358656707 3.9426397757770859 0 -0.74314483375859142 -0.66913059716165679 0.5 0 0 1 I I 0 1 0.5 forward I I I I #
face $-1 $221 $222 $71 $-1 $223 forward single #
loop $-1 $224 $225 $89 #
cone-surface $-1 28.791285390043271 20.131084358656707 3.9426397757770859 0 -0.74314483375859142 -0.66913059716165679 0.5 0 0 1 I I 0 1 0.5 forward I I I I #
face $-1 $226 $227 $54 $-1 $228 forward single #
loop $-1 $-1 $229 $90 #
plane-surface $-1 -41.59550767540513 0 0 1 0 0 0 0 -1 forward_v I I I I #
coedge $-1 $230 $231 $232 $233 reversed $91 $-1 #
face $-1 $234 $235 $55 $-1 $236 reversed single #
loop $-1 $-1 $237 $93 #
plane-surface $-1 0 0 -6.9081009728540339 0 0 1 1 0 0 forward_v I I I I #
coedge $-1 $238 $239 $240 $241 forward $94 $-1 #
face $-1 $242 $243 $56 $-1 $244 reversed single #
loop $-1 $-1 $245 $96 #
plane-surface $-1 0 0 -6.9081009728540339 0 0 1 1 0 0 forward_v I I I I #
coedge $-1 $246 $247 $248 $249 forward $97 $-1 #
face $-1 $250 $251 $57 $-1 $252 reversed single #
loop $-1 $-1 $253 $99 #
plane-surface $-1 -24.674588989056666 -22.910471005101989 0.94067788851283041 0 -0.73135370988377701 0.68199835119979291 1 0 0 forward_v I I I I #
coedge $-1 $254 $255 $256 $257 reversed $100 $-1 #
face $-1 $-1 $258 $58 $-1 $259 forward single #
loop $-1 $260 $261 $102 #
cone-surface $-1 -28.477874772626251 -18.773558339821445 2.6612448969516675 0 0.73135370988377701 -0.68199835119979291 0.5 0 0 1 I I -0.70710678118654746 0.70710678118654746 0.5 forward I I I I #
loop $-1 $-1 $262 $76 #
coedge $-1 $164 $164 $263 $264 reversed $103 $-1 #
face $-1 $-1 $265 $59 $-1 $266 forward single #
loop $-1 $267 $268 $105 #
cone-surface $-1 -20.871303205487081 -18.773558339821445 2.6612448969516675 0 0.73135370988377701 -0.68199835119979291 0.5 0 0 1 I I -0.70710678118654746 0.70710678118654746 0.5 forward I I I I #
loop $-1 $-1 $269 $77 #
coedge $-1 $169 $169 $270 $271 reversed $106 $-1 #
face $-1 $272 $273 $60 $-1 $274 reversed single #
loop $-1 $-1 $275 $108 #
plane-surface $-1 -26.809770205814949 -7.7497232846954489 36.068442167087902 0 0.74314483375859142 0.66913059716165679 1 0 0 forward_v I I I I #
coedge $-1 $276 $277 $278 $279 reversed $109 $-1 #
face $-1 $-1 $280 $61 $-1 $281 forward single #
loop $-1 $282 $283 $111 #
cone-surface $-1 -28.791285390043264 19.36796440321066 3.2555234987103381 0 -0.74314483375859142 -0.66913059716165679 0.25 0 0 1 I I -0.70710678118654746 0.70710678118654746 0.25 forward I I I I #
loop $-1 $-1 $284 $79 #
coedge $-1 $178 $178 $285 $286 reversed $112 $-1 #
face $-1 $-1 $287 $62 $-1 $288 forward single #
loop $-1 $289 $290 $114 #
cone-surface $-1 -24.828255021586632 19.36796440321066 3.2555234987103381 0 -0.74314483375859142 -0.66913059716165679 0.25 0 0 1 I I -0.70710678118654746 0.70710678118654746 0.25 forward I I I I #
loop $-1 $-1 $291 $80 #
coedge $-1 $183 $183 $292 $293 reversed $115 $-1 #
face $-1 $294 $295 $63 $-1 $296 reversed single #
loop $-1 $-1 $297 $117 #
plane-surface $-1 -8.9365900686049784 -7.7497232846954489 36.068442167087902 0 0.74314483375859142 0.66913059716165679 1 0 0 forward_v I I I I #
coedge $-1 $298 $299 $300 $301 reversed $118 $-1 #
face $-1 $-1 $302 $64 $-1 $303 forward single #
loop $-1 $304 $305 $120 #
cone-surface $-1 -10.918105252833296 19.36796440321066 3.2555234987103381 0 -0.74314483375859142 -0.66913059716165679 0.25 0 0 1 I I -0.70710678118654746 0.70710678118654746 0.25 forward I I I I #
loop $-1 $-1 $306 $82 #
coedge $-1 $192 $192 $307 $308 reversed $121 $-1 #
face $-1 $-1 $309 $65 $-1 $310 forward single #
loop $-1 $311 $312 $123 #
cone-surface $-1 -6.9550748843766641 19.36796440321066 3.2555234987103381 0 -0.74314483375859142 -0.66913059716165679 0.25 0 0 1 I I -0.70710678118654746 0.70710678118654746 0.25 forward I I I I #
loop $-1 $-1 $313 $83 #
coedge $-1 $197 $197 $314 $315 reversed $124 $-1 #
face $-1 $316 $317 $66 $-1 $318 reversed single #
loop $-1 $-1 $319 $126 #
plane-surface $-1 8.9365900686049855 -7.7497232846954489 36.068442167087902 0 0.74314483375859142 0.66913059716165679 1 0 0 forward_v I I I I #
coedge $-1 $320 $321 $322 $323 reversed $127 $-1 #
face $-1 $-1 $324 $67 $-1 $325 forward single #
loop $-1 $326 $327 $129 #
cone-surface $-1 6.9550748843766712 19.36796440321066 3.2555234987103381 0 -0.74314483375859142 -0.66913059716165679 0.25 0 0 1 I I -0.70710678118654746 0.70710678118654746 0.25 forward I I I I #
loop $-1 $-1 $328 $85 #
coedge $-1 $206 $206 $329 $330 reversed $130 $-1 #
face $-1 $-1 $331 $68 $-1 $332 forward single #
loop $-1 $333 $334 $132 #
cone-surface $-1 10.9181052528333 19.36796440321066 3.2555234987103381 0 -0.74314483375859142 -0.66913059716165679 0.25 0 0 1 I I -0.70710678118654746 0.70710678118654746 0.25 forward I I I I #
loop $-1 $-1 $335 $86 #
coedge $-1 $211 $211 $336 $337 reversed $133 $-1 #
face $-1 $338 $339 $69 $-1 $340 reversed single #
loop $-1 $-1 $341 $135 #
plane-surface $-1 26.809770205814957 -7.7497232846954489 36.068442167087902 0 0.74314483375859142 0.66913059716165679 1 0 0 forward_v I I I I #
coedge $-1 $342 $343 $344 $345 reversed $136 $-1 #
face $-1 $-1 $346 $70 $-1 $347 forward single #
loop $-1 $348 $349 $138 #
cone-surface $-1 24.828255021586642 19.36796440321066 3.2555234987103381 0 -0.74314483375859142 -0.66913059716165679 0.25 0 0 1 I I -0.70710678118654746 0.70710678118654746 0.25 forward I I I I #
loop $-1 $-1 $350 $88 #
coedge $-1 $220 $220 $351 $352 reversed $139 $-1 #
face $-1 $-1 $353 $71 $-1 $354 forward single #
loop $-1 $355 $356 $141 #
cone-surface $-1 28.791285390043271 19.36796440321066 3.2555234987103381 0 -0.74314483375859142 -0.66913059716165679 0.25 0 0 1 I I -0.70710678118654746 0.70710678118654746 0.25 forward I I I I #
loop $-1 $-1 $357 $89 #
coedge $-1 $225 $225 $358 $359 reversed $142 $-1 #
face $-1 $360 $361 $54 $-1 $362 reversed single #
loop $-1 $-1 $363 $144 #
plane-surface $-1 0 0 6.9081009728540339 0 0 1 1 0 0 forward_v I I I I #
coedge $-1 $364 $365 $366 $367 reversed $145 $-1 #
coedge $-1 $368 $147 $369 $370 reversed $91 $-1 #
coedge $-1 $147 $368 $371 $372 forward $91 $-1 #
coedge $-1 $373 $374 $147 $233 forward $361 $-1 #
edge $-1 $375 -22.910471005101986 $376 22.910471005101986 $147 $377 forward 7 unknown #
face $-1 $378 $379 $55 $-1 $380 reversed single #
loop $-1 $-1 $381 $148 #
plane-surface $-1 -45.618800271081511 -13.197639293930104 0 0 1 0 0 0 1 forward_v I I I I #
coedge $-1 $382 $383 $239 $384 forward $149 $-1 #
coedge $-1 $385 $151 $386 $387 reversed $94 $-1 #
coedge $-1 $151 $385 $237 $384 reversed $94 $-1 #
coedge $-1 $388 $389 $151 $241 reversed $390 $-1 #
edge $-1 $391 -6.9081009728540339 $392 6.9081009728540339 $240 $393 forward 7 unknown #
face $-1 $394 $395 $56 $-1 $396 reversed single #
loop $-1 $-1 $248 $152 #
plane-surface $-1 45.618800271081511 -13.197639293930104 0 0 1 0 0 0 1 forward_v I I I I #
coedge $-1 $397 $398 $247 $399 forward $153 $-1 #
coedge $-1 $400 $155 $401 $402 reversed $97 $-1 #
coedge $-1 $155 $400 $245 $399 reversed $97 $-1 #
coedge $-1 $403 $404 $155 $249 reversed $243 $-1 #
edge $-1 $405 -6.9081009728540339 $406 6.9081009728540339 $248 $407 forward 7 unknown #
face $-1 $408 $409 $57 $-1 $410 forward single #
loop $-1 $-1 $411 $156 #
plane-surface $-1 -33.548922484052362 -83.752528710915314 57.676813192402086 1 0 0 0 0.73135370988377701 -0.68199835119979291 forward_v I I I I #
coedge $-1 $412 $413 $414 $415 reversed $157 $-1 #
coedge $-1 $255 $159 $416 $417 reversed $100 $-1 #
coedge $-1 $159 $254 $412 $418 reversed $100 $-1 #
coedge $-1 $414 $419 $159 $257 forward $409 $-1 #
edge $-1 $420 18.965793350355671 $421 24.530505266671824 $256 $422 forward 7 unknown #
loop $-1 $-1 $263 $160 #
plane-surface $-1 -24.674588989056666 -22.910471005101989 0.94067788851283041 0 -0.73135370988377701 0.68199835119979291 1 0 0 forward_v I I I I #
loop $-1 $-1 $423 $102 #
coedge $-1 $261 $261 $262 $424 reversed $161 $-1 #
coedge $-1 $262 $262 $261 $424 forward $163 $-1 #
coedge $-1 $263 $263 $164 $264 forward $258 $-1 #
edge $-1 $425 -1.7992769136346877e-015 $425 6.2831853071795987 $263 $426 forward 7 unknown #
loop $-1 $-1 $270 $165 #
plane-surface $-1 -24.674588989056666 -22.910471005101989 0.94067788851283041 0 -0.73135370988377701 0.68199835119979291 1 0 0 forward_v I I I I #
loop $-1 $-1 $427 $105 #
coedge $-1 $268 $268 $269 $428 reversed $166 $-1 #
coedge $-1 $269 $269 $268 $428 forward $168 $-1 #
coedge $-1 $270 $270 $169 $271 forward $265 $-1 #
edge $-1 $429 -1.7992769136346877e-015 $429 6.2831853071795987 $270 $430 forward 7 unknown #
face $-1 $431 $432 $60 $-1 $433 reversed single #
loop $-1 $-1 $434 $170 #
plane-surface $-1 -22.186234775948876 54.07324998839087 91.73409594726013 -1 0 0 0 0.74314483375859142 0.66913059716165679 forward_v I I I I #
coedge $-1 $435 $436 $437 $438 reversed $171 $-1 #
coedge $-1 $277 $173 $439 $440 reversed $109 $-1 #
coedge $-1 $173 $276 $435 $441 reversed $109 $-1 #
coedge $-1 $437 $442 $173 $279 forward $443 $-1 #
edge $-1 $444 4.1261539890934493 $445 8.5302597879712039 $278 $446 forward 7 unknown #
loop $-1 $-1 $285 $174 #
plane-surface $-1 -26.809770205814949 -7.7497232846954489 36.068442167087902 0 0.74314483375859142 0.66913059716165679 1 0 0 forward_v I I I I #
loop $-1 $-1 $447 $111 #
coedge $-1 $283 $283 $284 $448 reversed $175 $-1 #
coedge $-1 $284 $284 $283 $448 forward $177 $-1 #
coedge $-1 $285 $285 $178 $286 forward $280 $-1 #
edge $-1 $449 0 $449 6.2831853071796004 $285 $450 forward 7 unknown #
loop $-1 $-1 $292 $179 #
plane-surface $-1 -26.809770205814949 -7.7497232846954489 36.068442167087902 0 0.74314483375859142 0.66913059716165679 1 0 0 forward_v I I I I #
loop $-1 $-1 $451 $114 #
coedge $-1 $290 $290 $291 $452 reversed $180 $-1 #
coedge $-1 $291 $291 $290 $452 forward $182 $-1 #
coedge $-1 $292 $292 $183 $293 forward $287 $-1 #
edge $-1 $453 0 $453 6.2831853071796004 $292 $454 forward 7 unknown #
face $-1 $455 $456 $63 $-1 $457 forward single #
loop $-1 $-1 $458 $184 #
plane-surface $-1 -4.3130546387389064 54.07324998839087 91.73409594726013 -1 0 0 0 0.74314483375859142 0.66913059716165679 forward_v I I I I #
coedge $-1 $459 $460 $461 $462 reversed $185 $-1 #
coedge $-1 $299 $187 $463 $464 reversed $118 $-1 #
coedge $-1 $187 $298 $459 $465 reversed $118 $-1 #
coedge $-1 $461 $466 $187 $301 forward $456 $-1 #
edge $-1 $467 4.1261539890934493 $468 8.5302597879712039 $300 $469 forward 7 unknown #
loop $-1 $-1 $307 $188 #
plane-surface $-1 -8.9365900686049784 -7.7497232846954489 36.068442167087902 0 0.74314483375859142 0.66913059716165679 1 0 0 forward_v I I I I #
loop $-1 $-1 $470 $120 #
coedge $-1 $305 $305 $306 $471 reversed $189 $-1 #
coedge $-1 $306 $306 $305 $471 forward $191 $-1 #
coedge $-1 $307 $307 $192 $308 forward $302 $-1 #
edge $-1 $472 0 $472 6.2831853071796004 $307 $473 forward 7 unknown #
loop $-1 $-1 $314 $193 #
plane-surface $-1 -8.9365900686049784 -7.7497232846954489 36.068442167087902 0 0.74314483375859142 0.66913059716165679 1 0 0 forward_v I I I I #
loop $-1 $-1 $474 $123 #
coedge $-1 $312 $312 $313 $475 reversed $194 $-1 #
coedge $-1 $313 $313 $312 $475 forward $196 $-1 #
coedge $-1 $314 $314 $197 $315 forward $309 $-1 #
edge $-1 $476 0 $476 6.2831853071796004 $314 $477 forward 7 unknown #
face $-1 $478 $479 $66 $-1 $480 forward single #
loop $-1 $-1 $481 $198 #
plane-surface $-1 13.560125498471058 54.07324998839087 91.73409594726013 -1 0 0 0 0.74314483375859142 0.66913059716165679 forward_v I I I I #
coedge $-1 $482 $483 $484 $485 reversed $199 $-1 #
coedge $-1 $321 $201 $486 $487 reversed $127 $-1 #
coedge $-1 $201 $320 $482 $488 reversed $127 $-1 #
coedge $-1 $484 $489 $201 $323 forward $479 $-1 #
edge $-1 $490 4.1261539890934493 $491 8.5302597879712039 $322 $492 forward 7 unknown #
loop $-1 $-1 $329 $202 #
plane-surface $-1 8.9365900686049855 -7.7497232846954489 36.068442167087902 0 0.74314483375859142 0.66913059716165679 1 0 0 forward_v I I I I #
loop $-1 $-1 $493 $129 #
coedge $-1 $327 $327 $328 $494 reversed $203 $-1 #
coedge $-1 $328 $328 $327 $494 forward $205 $-1 #
coedge $-1 $329 $329 $206 $330 forward $324 $-1 #
edge $-1 $495 0 $495 6.2831853071796004 $329 $496 forward 7 unknown #
loop $-1 $-1 $336 $207 #
plane-surface $-1 8.9365900686049855 -7.7497232846954489 36.068442167087902 0 0.74314483375859142 0.66913059716165679 1 0 0 forward_v I I I I #
loop $-1 $-1 $497 $132 #
coedge $-1 $334 $334 $335 $498 reversed $208 $-1 #
coedge $-1 $335 $335 $334 $498 forward $210 $-1 #
coedge $-1 $336 $336 $211 $337 forward $331 $-1 #
edge $-1 $499 0 $499 6.2831853071796004 $336 $500 forward 7 unknown #
face $-1 $501 $502 $69 $-1 $503 forward single #
loop $-1 $-1 $504 $212 #
plane-surface $-1 31.43330563568103 54.07324998839087 91.73409594726013 -1 0 0 0 0.74314483375859142 0.66913059716165679 forward_v I I I I #
coedge $-1 $505 $506 $507 $508 reversed $213 $-1 #
coedge $-1 $343 $215 $509 $510 reversed $136 $-1 #
coedge $-1 $215 $342 $505 $511 reversed $136 $-1 #
coedge $-1 $507 $512 $215 $345 forward $502 $-1 #
edge $-1 $513 4.1261539890934493 $514 8.5302597879712039 $344 $515 forward 7 unknown #
loop $-1 $-1 $351 $216 #
plane-surface $-1 26.809770205814957 -7.7497232846954489 36.068442167087902 0 0.74314483375859142 0.66913059716165679 1 0 0 forward_v I I I I #
loop $-1 $-1 $516 $138 #
coedge $-1 $349 $349 $350 $517 reversed $217 $-1 #
coedge $-1 $350 $350 $349 $517 forward $219 $-1 #
coedge $-1 $351 $351 $220 $352 forward $346 $-1 #
edge $-1 $518 0 $518 6.2831853071796004 $351 $519 forward 7 unknown #
loop $-1 $-1 $358 $221 #
plane-surface $-1 26.809770205814957 -7.7497232846954489 36.068442167087902 0 0.74314483375859142 0.66913059716165679 1 0 0 forward_v I I I I #
loop $-1 $-1 $520 $141 #
coedge $-1 $356 $356 $357 $521 reversed $222 $-1 #
coedge $-1 $357 $357 $356 $521 forward $224 $-1 #
coedge $-1 $358 $358 $225 $359 forward $353 $-1 #
edge $-1 $522 0 $522 6.2831853071796004 $358 $523 forward 7 unknown #
face $-1 $524 $525 $54 $-1 $526 reversed single #
loop $-1 $-1 $232 $226 #
plane-surface $-1 0 0 -6.9081009728540339 0 0 1 1 0 0 forward_v I I I I #
coedge $-1 $527 $528 $368 $529 forward $227 $-1 #
coedge $-1 $530 $229 $531 $532 reversed $145 $-1 #
coedge $-1 $229 $530 $533 $534 forward $145 $-1 #
coedge $-1 $374 $373 $229 $367 forward $361 $-1 #
edge $-1 $535 -22.910471005101986 $536 22.910471005101986 $229 $537 forward 7 unknown #
coedge $-1 $231 $230 $363 $529 reversed $91 $-1 #
coedge $-1 $538 $539 $230 $370 forward $540 $-1 #
edge $-1 $541 -6.9081009728540339 $375 6.9081009728540339 $230 $542 forward 7 unknown #
coedge $-1 $543 $544 $231 $372 reversed $525 $-1 #
edge $-1 $545 -6.9081009728540339 $376 6.9081009728540339 $231 $546 forward 7 unknown #
coedge $-1 $366 $232 $544 $547 forward $361 $-1 #
coedge $-1 $232 $366 $538 $548 forward $361 $-1 #
vertex $-1 $233 $549 #
vertex $-1 $372 $550 #
straight-curve $-1 41.59550767540513 0 -6.9081009728540339 0 -1 0 I I #
face $-1 $551 $390 $55 $-1 $552 reversed single #
loop $-1 $-1 $553 $234 #
plane-surface $-1 -49.642092866757892 -11.145954176662011 0 1 0 0 0 0 -1 forward_v I I I I #
coedge $-1 $554 $555 $556 $557 forward $235 $-1 #
coedge $-1 $558 $237 $554 $559 forward $149 $-1 #
coedge $-1 $237 $558 $388 $560 forward $149 $-1 #
edge $-1 $391 9.0942690593939179 $561 13.197639293930104 $237 $562 forward 7 unknown #
coedge $-1 $239 $238 $563 $564 forward $94 $-1 #
coedge $-1 $565 $566 $238 $387 forward $567 $-1 #
edge $-1 $568 -13.197639293930104 $392 -9.0942690593939179 $386 $569 forward 7 unknown #
coedge $-1 $570 $240 $383 $560 reversed $390 $-1 #
coedge $-1 $240 $570 $565 $571 reversed $390 $-1 #
loop $-1 $-1 $240 $378 #
vertex $-1 $384 $572 #
vertex $-1 $571 $573 #
straight-curve $-1 -41.59550767540513 -9.0942690593939179 0 0 0 1 I I #
face $-1 $574 $575 $56 $-1 $576 reversed single #
loop $-1 $-1 $577 $242 #
plane-surface $-1 45.618800271081511 -9.0942690593939179 0 0 -1 0 0 0 -1 forward_v I I I I #
coedge $-1 $578 $245 $579 $580 forward $153 $-1 #
coedge $-1 $245 $578 $403 $581 forward $153 $-1 #
edge $-1 $405 -13.197639293930104 $582 -9.0942690593939179 $245 $583 forward 7 unknown #
coedge $-1 $247 $246 $584 $585 forward $97 $-1 #
coedge $-1 $586 $587 $246 $402 forward $588 $-1 #
edge $-1 $589 9.0942690593939179 $406 13.197639293930104 $401 $590 forward 7 unknown #
coedge $-1 $591 $248 $398 $581 reversed $243 $-1 #
coedge $-1 $248 $591 $586 $592 reversed $243 $-1 #
vertex $-1 $399 $593 #
vertex $-1 $592 $594 #
straight-curve $-1 41.59550767540513 -13.197639293930104 0 0 0 1 I I #
face $-1 $-1 $595 $57 $-1 $596 reversed single #
loop $-1 $-1 $256 $250 #
plane-surface $-1 0 0 6.9081009728540339 0 0 1 1 0 0 forward_v I I I I #
coedge $-1 $597 $598 $599 $600 reversed $251 $-1 #
coedge $-1 $601 $253 $255 $418 forward $157 $-1 #
coedge $-1 $253 $601 $597 $602 forward $157 $-1 #
coedge $-1 $599 $256 $253 $415 forward $409 $-1 #
edge $-1 $421 3.4629609995326369 $603 21.211627989524029 $414 $604 forward 7 unknown #
coedge $-1 $605 $606 $254 $417 forward $595 $-1 #
edge $-1 $607 -27.897728707688209 $420 -21.93030562334701 $416 $608 forward 7 unknown #
edge $-1 $421 -8.1594213630084873 $607 -5.1836283459440792e-015 $255 $609 forward 7 unknown #
coedge $-1 $256 $599 $605 $610 forward $409 $-1 #
vertex $-1 $257 $611 #
vertex $-1 $257 $612 #
straight-curve $-1 -15.80025549406097 -41.876264355457657 6.908100972854033 0 1 0 I I #
coedge $-1 $423 $423 $-1 $613 reversed $260 $-1 #
edge $-1 $614 0 $614 6.2831853071796004 $261 $615 forward 7 unknown #
vertex $-1 $264 $616 #
ellipse-curve $-1 -28.477874772626251 -20.128115046943908 3.9243894306834344 0 -0.73135370988377701 0.68199835119979291 1 0 0 1 I I #
coedge $-1 $427 $427 $-1 $617 reversed $267 $-1 #
edge $-1 $618 0 $618 6.2831853071796004 $268 $619 forward 7 unknown #
vertex $-1 $271 $620 #
ellipse-curve $-1 -20.871303205487081 -20.128115046943908 3.9243894306834344 0 -0.73135370988377701 0.68199835119979291 1 0 0 1 I I #
face $-1 $-1 $443 $60 $-1 $621 forward single #
loop $-1 $-1 $622 $272 #
plane-surface $-1 0 22.910471005101986 0 0 -1 0 0 0 -1 forward_v I I I I #
coedge $-1 $623 $624 $625 $626 reversed $273 $-1 #
coedge $-1 $627 $275 $277 $441 forward $171 $-1 #
coedge $-1 $275 $627 $623 $628 forward $171 $-1 #
coedge $-1 $625 $278 $275 $438 forward $443 $-1 #
edge $-1 $445 -18.028420532773549 $629 -8.7813496730414009 $437 $630 forward 7 unknown #
coedge $-1 $631 $632 $276 $440 forward $432 $-1 #
edge $-1 $633 -43.850202139377259 $444 -38.958947000776028 $439 $634 forward 7 unknown #
edge $-1 $445 39.239109080191128 $633 45.820942010203979 $277 $635 forward 7 unknown #
coedge $-1 $278 $625 $631 $636 forward $443 $-1 #
loop $-1 $-1 $625 $431 #
vertex $-1 $440 $637 #
vertex $-1 $279 $638 #
straight-curve $-1 -31.433305635681023 27.036624994195435 6.9081009728540366 0 -1 0 I I #
coedge $-1 $447 $447 $-1 $639 reversed $282 $-1 #
edge $-1 $640 0 $640 6.2831853071796004 $283 $641 forward 7 unknown #
vertex $-1 $286 $642 #
ellipse-curve $-1 -28.791285390043264 20.708418105663107 4.4624734035534193 0 0.74314483375859142 0.66913059716165679 0.5 0 0 1 I I #
coedge $-1 $451 $451 $-1 $643 reversed $289 $-1 #
edge $-1 $644 0 $644 6.2831853071796004 $290 $645 forward 7 unknown #
vertex $-1 $293 $646 #
ellipse-curve $-1 -24.828255021586632 20.708418105663107 4.4624734035534193 0 0.74314483375859142 0.66913059716165679 0.5 0 0 1 I I #
face $-1 $-1 $647 $63 $-1 $648 reversed single #
loop $-1 $-1 $300 $294 #
plane-surface $-1 0 0 6.9081009728540339 0 0 1 1 0 0 forward_v I I I I #
coedge $-1 $649 $650 $651 $652 reversed $295 $-1 #
coedge $-1 $653 $297 $299 $465 forward $185 $-1 #
coedge $-1 $297 $653 $649 $654 forward $185 $-1 #
coedge $-1 $651 $300 $297 $462 forward $456 $-1 #
edge $-1 $468 -9.0918304641685612 $655 0.15524039556358282 $461 $656 forward 7 unknown #
coedge $-1 $657 $658 $298 $464 forward $647 $-1 #
edge $-1 $659 -43.850202139377259 $467 -38.958947000776028 $463 $660 forward 7 unknown #
edge $-1 $468 39.239109080191128 $659 45.820942010203979 $299 $661 forward 7 unknown #
coedge $-1 $300 $651 $657 $662 forward $456 $-1 #
vertex $-1 $464 $663 #
vertex $-1 $301 $664 #
straight-curve $-1 -13.56012549847105 27.036624994195435 6.9081009728540366 0 -1 0 I I #
coedge $-1 $470 $470 $-1 $665 reversed $304 $-1 #
edge $-1 $666 0 $666 6.2831853071796004 $305 $667 forward 7 unknown #
vertex $-1 $308 $668 #
ellipse-curve $-1 -10.918105252833296 20.708418105663107 4.4624734035534193 0 0.74314483375859142 0.66913059716165679 0.5 0 0 1 I I #
coedge $-1 $474 $474 $-1 $669 reversed $311 $-1 #
edge $-1 $670 0 $670 6.2831853071796004 $312 $671 forward 7 unknown #
vertex $-1 $315 $672 #
ellipse-curve $-1 -6.9550748843766641 20.708418105663107 4.4624734035534193 0 0.74314483375859142 0.66913059716165679 0.5 0 0 1 I I #
face $-1 $-1 $673 $66 $-1 $674 reversed single #
loop $-1 $-1 $322 $316 #
plane-surface $-1 0 0 6.9081009728540339 0 0 1 1 0 0 forward_v I I I I #
coedge $-1 $675 $676 $677 $678 reversed $317 $-1 #
coedge $-1 $679 $319 $321 $488 forward $199 $-1 #
coedge $-1 $319 $679 $675 $680 forward $199 $-1 #
coedge $-1 $677 $322 $319 $485 forward $479 $-1 #
edge $-1 $491 -0.15524039556357927 $681 9.0918304641685648 $484 $682 forward 7 unknown #
coedge $-1 $683 $684 $320 $487 forward $673 $-1 #
edge $-1 $685 -43.850202139377259 $490 -38.958947000776028 $486 $686 forward 7 unknown #
edge $-1 $491 39.239109080191128 $685 45.820942010203979 $321 $687 forward 7 unknown #
coedge $-1 $322 $677 $683 $688 forward $479 $-1 #
vertex $-1 $323 $689 #
vertex $-1 $323 $690 #
straight-curve $-1 4.3130546387389135 27.036624994195435 6.9081009728540366 0 -1 0 I I #
coedge $-1 $493 $493 $-1 $691 reversed $326 $-1 #
edge $-1 $692 0 $692 6.2831853071796004 $327 $693 forward 7 unknown #
vertex $-1 $330 $694 #
ellipse-curve $-1 6.9550748843766712 20.708418105663107 4.4624734035534193 0 0.74314483375859142 0.66913059716165679 0.5 0 0 1 I I #
coedge $-1 $497 $497 $-1 $695 reversed $333 $-1 #
edge $-1 $696 0 $696 6.2831853071796004 $334 $697 forward 7 unknown #
vertex $-1 $337 $698 #
ellipse-curve $-1 10.9181052528333 20.708418105663107 4.4624734035534193 0 0.74314483375859142 0.66913059716165679 0.5 0 0 1 I I #
face $-1 $-1 $699 $69 $-1 $700 reversed single #
loop $-1 $-1 $344 $338 #
plane-surface $-1 0 0 6.9081009728540339 0 0 1 1 0 0 forward_v I I I I #
coedge $-1 $701 $702 $703 $704 reversed $339 $-1 #
coedge $-1 $705 $341 $343 $511 forward $213 $-1 #
coedge $-1 $341 $705 $701 $706 forward $213 $-1 #
coedge $-1 $703 $344 $341 $508 forward $502 $-1 #
edge $-1 $514 8.7813496730414045 $707 18.028420532773552 $507 $708 forward 7 unknown #
coedge $-1 $709 $710 $342 $510 forward $699 $-1 #
edge $-1 $711 -43.850202139377259 $513 -38.958947000776028 $509 $712 forward 7 unknown #
edge $-1 $514 39.239109080191128 $711 45.820942010203979 $343 $713 forward 7 unknown #
coedge $-1 $344 $703 $709 $714 forward $502 $-1 #
vertex $-1 $345 $715 #
vertex $-1 $345 $716 #
straight-curve $-1 22.186234775948883 27.036624994195435 6.9081009728540366 0 -1 0 I I #
coedge $-1 $516 $516 $-1 $717 reversed $348 $-1 #
edge $-1 $718 0 $718 6.2831853071796004 $349 $719 forward 7 unknown #
vertex $-1 $352 $720 #
ellipse-curve $-1 24.828255021586642 20.708418105663107 4.4624734035534193 0 0.74314483375859142 0.66913059716165679 0.5 0 0 1 I I #
coedge $-1 $520 $520 $-1 $721 reversed $355 $-1 #
edge $-1 $722 0 $722 6.2831853071796004 $356 $723 forward 7 unknown #
vertex $-1 $359 $724 #
ellipse-curve $-1 28.791285390043271 20.708418105663107 4.4624734035534193 0 0.74314483375859142 0.66913059716165679 0.5 0 0 1 I I #
face $-1 $-1 $540 $54 $-1 $725 reversed single #
loop $-1 $-1 $531 $360 #
plane-surface $-1 0 -22.910471005101986 0 0 1 0 0 0 1 forward_v I I I I #
coedge $-1 $726 $363 $539 $727 forward $227 $-1 #
coedge $-1 $363 $726 $543 $728 forward $227 $-1 #
edge $-1 $545 -22.910471005101986 $541 22.910471005101986 $368 $729 forward 7 unknown #
coedge $-1 $365 $364 $726 $730 reversed $145 $-1 #
coedge $-1 $544 $543 $364 $532 forward $525 $-1 #
edge $-1 $731 -6.9081009728540339 $535 6.9081009728540339 $364 $732 forward 7 unknown #
coedge $-1 $539 $538 $365 $534 reversed $540 $-1 #
edge $-1 $733 -6.9081009728540339 $536 6.9081009728540339 $533 $734 forward 7 unknown #
vertex $-1 $367 $735 #
vertex $-1 $548 $736 #
straight-curve $-1 -41.59550767540513 0 -6.9081009728540339 0 1 0 I I #
coedge $-1 $533 $369 $374 $548 reversed $540 $-1 #
coedge $-1 $369 $533 $527 $727 reversed $540 $-1 #
loop $-1 $-1 $369 $524 #
vertex $-1 $529 $737 #
straight-curve $-1 41.59550767540513 22.910471005101986 0 0 0 -1 I I #
coedge $-1 $531 $371 $528 $728 reversed $525 $-1 #
coedge $-1 $371 $531 $373 $547 reversed $525 $-1 #
vertex $-1 $529 $738 #
straight-curve $-1 41.59550767540513 -22.910471005101986 0 0 0 -1 I I #
edge $-1 $376 -41.59550767540513 $535 41.59550767540513 $544 $739 forward 7 unknown #
edge $-1 $536 -41.59550767540513 $375 41.59550767540513 $538 $740 forward 7 unknown #
point $-1 41.59550767540513 22.910471005101986 -6.9081009728540339 #
point $-1 41.59550767540513 -22.910471005101986 -6.9081009728540339 #
face $-1 $-1 $567 $55 $-1 $741 forward single #
plane-surface $-1 -45.618800271081511 -9.0942690593939179 0 0 -1 0 0 0 -1 forward_v I I I I #
coedge $-1 $742 $743 $570 $744 forward $379 $-1 #
coedge $-1 $563 $381 $382 $559 reversed $235 $-1 #
coedge $-1 $381 $563 $566 $745 reversed $235 $-1 #
coedge $-1 $743 $742 $381 $557 reversed $379 $-1 #
edge $-1 $746 -6.9081009728540339 $747 6.9081009728540339 $556 $748 forward 7 unknown #
coedge $-1 $383 $382 $742 $749 forward $149 $-1 #
edge $-1 $561 -4.0232925956763808 $747 4.0232925956763808 $554 $750 forward 7 unknown #
edge $-1 $751 -4.0232925956763808 $391 4.0232925956763808 $388 $752 forward 7 unknown #
vertex $-1 $559 $753 #
straight-curve $-1 -41.59550767540513 0 -6.9081009728540339 0 -1 0 I I #
coedge $-1 $555 $554 $385 $564 reversed $235 $-1 #
edge $-1 $568 -6.9081009728540339 $561 6.9081009728540339 $563 $754 forward 7 unknown #
coedge $-1 $755 $386 $389 $571 forward $567 $-1 #
coedge $-1 $386 $755 $555 $745 forward $567 $-1 #
loop $-1 $-1 $386 $551 #
vertex $-1 $387 $756 #
straight-curve $-1 -41.59550767540513 0 6.9081009728540339 0 1 0 I I #
coedge $-1 $389 $388 $553 $744 reversed $390 $-1 #
edge $-1 $392 -4.0232925956763808 $757 4.0232925956763808 $389 $758 forward 7 unknown #
point $-1 -41.59550767540513 -9.0942690593939179 -6.9081009728540339 #
point $-1 -41.59550767540513 -9.0942690593939179 6.9081009728540339 #
face $-1 $-1 $588 $56 $-1 $759 forward single #
loop $-1 $-1 $760 $394 #
plane-surface $-1 49.642092866757892 -11.145954176662011 0 -1 0 0 0 0 1 forward_v I I I I #
coedge $-1 $579 $761 $762 $763 forward $395 $-1 #
coedge $-1 $398 $397 $764 $765 forward $153 $-1 #
coedge $-1 $584 $577 $397 $580 reversed $395 $-1 #
edge $-1 $582 -4.0232925956763808 $766 4.0232925956763808 $579 $767 forward 7 unknown #
edge $-1 $768 -4.0232925956763808 $405 4.0232925956763808 $403 $769 forward 7 unknown #
vertex $-1 $580 $770 #
straight-curve $-1 41.59550767540513 0 -6.9081009728540339 0 1 0 I I #
coedge $-1 $761 $579 $400 $585 reversed $395 $-1 #
edge $-1 $589 -6.9081009728540339 $582 6.9081009728540339 $584 $771 forward 7 unknown #
coedge $-1 $772 $401 $404 $592 forward $588 $-1 #
coedge $-1 $401 $772 $761 $773 forward $588 $-1 #
loop $-1 $-1 $401 $574 #
vertex $-1 $402 $774 #
straight-curve $-1 41.59550767540513 0 6.9081009728540339 0 -1 0 I I #
coedge $-1 $404 $403 $760 $775 reversed $243 $-1 #
edge $-1 $406 -4.0232925956763808 $776 4.0232925956763808 $404 $777 forward 7 unknown #
point $-1 41.59550767540513 -13.197639293930104 -6.9081009728540339 #
point $-1 41.59550767540513 -13.197639293930104 6.9081009728540339 #
loop $-1 $-1 $416 $408 #
plane-surface $-1 0 -22.910471005101986 0 0 1 0 0 0 1 forward_v I I I I #
coedge $-1 $598 $411 $413 $602 reversed $251 $-1 #
coedge $-1 $411 $597 $778 $779 reversed $251 $-1 #
coedge $-1 $419 $414 $411 $600 forward $409 $-1 #
edge $-1 $603 -24.530505266671824 $780 -18.965793350355671 $599 $781 forward 7 unknown #
coedge $-1 $413 $412 $606 $782 reversed $157 $-1 #
edge $-1 $783 5.1836283459440792e-015 $603 8.1594213630084873 $597 $784 forward 7 unknown #
vertex $-1 $415 $785 #
straight-curve $-1 -12.337294494528333 -17.34575908878583 6.9081009728540339 -1 0 0 I I #
coedge $-1 $778 $416 $419 $610 reversed $595 $-1 #
coedge $-1 $416 $778 $601 $782 forward $595 $-1 #
vertex $-1 $417 $786 #
straight-curve $-1 -15.80025549406097 -22.910471005101986 28.838406596201043 0 0 1 I I #
straight-curve $-1 -15.80025549406097 -22.910471005101989 0.94067788851283041 0 -0.68199835119979291 -0.73135370988377701 I I #
edge $-1 $780 -33.548922484052362 $420 -15.80025549406097 $605 $787 forward 7 unknown #
point $-1 -15.80025549406097 -22.910471005101986 6.9081009728540339 #
point $-1 -15.80025549406097 -17.345759088785833 6.908100972854033 #
edge $-1 $788 1 $788 0 $423 $-1 forward 7 unknown #
vertex $-1 $424 $789 #
ellipse-curve $-1 -28.477874772626251 -19.139235194763334 3.002244072551564 0 -0.73135370988377701 0.68199835119979291 1 0 0 1 I I #
point $-1 -27.477874772626251 -20.128115046943904 3.9243894306834286 #
edge $-1 $790 1 $790 0 $427 $-1 forward 7 unknown #
vertex $-1 $428 $791 #
ellipse-curve $-1 -20.871303205487081 -19.139235194763334 3.002244072551564 0 -0.73135370988377701 0.68199835119979291 1 0 0 1 I I #
point $-1 -19.871303205487081 -20.128115046943904 3.9243894306834286 #
plane-surface $-1 0 0 6.9081009728540339 0 0 1 1 0 0 forward_v I I I I #
coedge $-1 $632 $631 $624 $792 forward $432 $-1 #
coedge $-1 $624 $434 $436 $628 reversed $273 $-1 #
coedge $-1 $434 $623 $622 $792 reversed $273 $-1 #
coedge $-1 $442 $437 $434 $626 forward $443 $-1 #
edge $-1 $629 -8.5302597879712039 $793 -4.1261539890934493 $625 $794 forward 7 unknown #
coedge $-1 $436 $435 $632 $795 reversed $171 $-1 #
edge $-1 $796 -45.820942010203979 $629 -39.239109080191128 $623 $797 forward 7 unknown #
vertex $-1 $438 $798 #
straight-curve $-1 -13.404885102907475 18.506365206224231 6.908100972854033 1 0 0 I I #
coedge $-1 $622 $439 $442 $636 reversed $432 $-1 #
coedge $-1 $439 $622 $627 $795 forward $432 $-1 #
vertex $-1 $440 $799 #
straight-curve $-1 -31.433305635681023 22.910471005101986 45.867047973630065 0 0 1 I I #
straight-curve $-1 -31.433305635681023 -7.7497232846954489 36.068442167087902 0 0.66913059716165679 -0.74314483375859142 I I #
edge $-1 $793 22.186234775948876 $444 31.433305635681023 $631 $800 forward 7 unknown #
point $-1 -31.433305635681023 22.910471005101986 6.9081009728540339 #
point $-1 -31.433305635681023 18.506365206224231 6.908100972854033 #
edge $-1 $801 1 $801 0 $447 $-1 forward 7 unknown #
vertex $-1 $448 $802 #
ellipse-curve $-1 -28.791285390043264 19.553750611650308 3.4228061480007521 0 0.74314483375859142 0.66913059716165679 0.5 0 0 1 I I #
point $-1 -28.291285390043264 20.708418105663107 4.4624734035534193 #
edge $-1 $803 1 $803 0 $451 $-1 forward 7 unknown #
vertex $-1 $452 $804 #
ellipse-curve $-1 -24.828255021586632 19.553750611650308 3.4228061480007521 0 0.74314483375859142 0.66913059716165679 0.5 0 0 1 I I #
point $-1 -24.328255021586632 20.708418105663107 4.4624734035534193 #
loop $-1 $-1 $463 $455 #
plane-surface $-1 0 22.910471005101986 0 0 -1 0 0 0 -1 forward_v I I I I #
coedge $-1 $650 $458 $460 $654 reversed $295 $-1 #
coedge $-1 $458 $649 $805 $806 reversed $295 $-1 #
coedge $-1 $466 $461 $458 $652 forward $456 $-1 #
edge $-1 $655 -8.5302597879712039 $807 -4.1261539890934493 $651 $808 forward 7 unknown #
coedge $-1 $460 $459 $658 $809 reversed $185 $-1 #
edge $-1 $810 -45.820942010203979 $655 -39.239109080191128 $649 $811 forward 7 unknown #
vertex $-1 $462 $812 #
straight-curve $-1 -4.4682950343024892 18.506365206224231 6.908100972854033 1 0 0 I I #
coedge $-1 $805 $463 $466 $662 reversed $647 $-1 #
coedge $-1 $463 $805 $653 $809 forward $647 $-1 #
vertex $-1 $464 $813 #
straight-curve $-1 -13.56012549847105 22.910471005101986 45.867047973630065 0 0 1 I I #
straight-curve $-1 -13.56012549847105 -7.7497232846954489 36.068442167087902 0 0.66913059716165679 -0.74314483375859142 I I #
edge $-1 $807 4.3130546387389064 $467 13.56012549847105 $657 $814 forward 7 unknown #
point $-1 -13.56012549847105 22.910471005101986 6.9081009728540339 #
point $-1 -13.56012549847105 18.506365206224231 6.908100972854033 #
edge $-1 $815 1 $815 0 $470 $-1 forward 7 unknown #
vertex $-1 $471 $816 #
ellipse-curve $-1 -10.918105252833296 19.553750611650308 3.4228061480007521 0 0.74314483375859142 0.66913059716165679 0.5 0 0 1 I I #
point $-1 -10.418105252833296 20.708418105663107 4.4624734035534193 #
edge $-1 $817 1 $817 0 $474 $-1 forward 7 unknown #
vertex $-1 $475 $818 #
ellipse-curve $-1 -6.9550748843766641 19.553750611650308 3.4228061480007521 0 0.74314483375859142 0.66913059716165679 0.5 0 0 1 I I #
point $-1 -6.4550748843766641 20.708418105663107 4.4624734035534193 #
loop $-1 $-1 $486 $478 #
plane-surface $-1 0 22.910471005101986 0 0 -1 0 0 0 -1 forward_v I I I I #
coedge $-1 $676 $481 $483 $680 reversed $317 $-1 #
coedge $-1 $481 $675 $819 $820 reversed $317 $-1 #
coedge $-1 $489 $484 $481 $678 forward $479 $-1 #
edge $-1 $681 -8.5302597879712039 $821 -4.1261539890934493 $677 $822 forward 7 unknown #
coedge $-1 $483 $482 $684 $823 reversed $199 $-1 #
edge $-1 $824 -45.820942010203979 $681 -39.239109080191128 $675 $825 forward 7 unknown #
vertex $-1 $485 $826 #
straight-curve $-1 4.4682950343024928 18.506365206224231 6.908100972854033 1 0 0 I I #
coedge $-1 $819 $486 $489 $688 reversed $673 $-1 #
coedge $-1 $486 $819 $679 $823 forward $673 $-1 #
vertex $-1 $487 $827 #
straight-curve $-1 4.3130546387389135 22.910471005101986 45.867047973630065 0 0 1 I I #
straight-curve $-1 4.3130546387389135 -7.7497232846954489 36.068442167087902 0 0.66913059716165679 -0.74314483375859142 I I #
edge $-1 $821 -13.560125498471058 $490 -4.3130546387389135 $683 $828 forward 7 unknown #
point $-1 4.3130546387389135 22.910471005101986 6.9081009728540339 #
point $-1 4.3130546387389135 18.506365206224231 6.908100972854033 #
edge $-1 $829 1 $829 0 $493 $-1 forward 7 unknown #
vertex $-1 $494 $830 #
ellipse-curve $-1 6.9550748843766712 19.553750611650308 3.4228061480007521 0 0.74314483375859142 0.66913059716165679 0.5 0 0 1 I I #
point $-1 7.4550748843766712 20.708418105663107 4.4624734035534193 #
edge $-1 $831 1 $831 0 $497 $-1 forward 7 unknown #
vertex $-1 $498 $832 #
ellipse-curve $-1 10.9181052528333 19.553750611650308 3.4228061480007521 0 0.74314483375859142 0.66913059716165679 0.5 0 0 1 I I #
point $-1 11.4181052528333 20.708418105663107 4.4624734035534193 #
loop $-1 $-1 $509 $501 #
plane-surface $-1 0 22.910471005101986 0 0 -1 0 0 0 -1 forward_v I I I I #
coedge $-1 $702 $504 $506 $706 reversed $339 $-1 #
coedge $-1 $504 $701 $833 $834 reversed $339 $-1 #
coedge $-1 $512 $507 $504 $704 forward $502 $-1 #
edge $-1 $707 -8.5302597879712039 $835 -4.1261539890934493 $703 $836 forward 7 unknown #
coedge $-1 $506 $505 $710 $837 reversed $213 $-1 #
edge $-1 $838 -45.820942010203979 $707 -39.239109080191128 $701 $839 forward 7 unknown #
vertex $-1 $508 $840 #
straight-curve $-1 13.404885102907478 18.506365206224231 6.908100972854033 1 0 0 I I #
coedge $-1 $833 $509 $512 $714 reversed $699 $-1 #
coedge $-1 $509 $833 $705 $837 forward $699 $-1 #
vertex $-1 $510 $841 #
straight-curve $-1 22.186234775948883 22.910471005101986 45.867047973630065 0 0 1 I I #
straight-curve $-1 22.186234775948883 -7.7497232846954489 36.068442167087902 0 0.66913059716165679 -0.74314483375859142 I I #
edge $-1 $835 -31.43330563568103 $513 -22.186234775948883 $709 $842 forward 7 unknown #
point $-1 22.186234775948883 22.910471005101986 6.9081009728540339 #
point $-1 22.186234775948883 18.506365206224231 6.908100972854033 #
edge $-1 $843 1 $843 0 $516 $-1 forward 7 unknown #
vertex $-1 $517 $844 #
ellipse-curve $-1 24.828255021586642 19.553750611650308 3.4228061480007521 0 0.74314483375859142 0.66913059716165679 0.5 0 0 1 I I #
point $-1 25.328255021586642 20.708418105663107 4.4624734035534193 #
edge $-1 $845 1 $845 0 $520 $-1 forward 7 unknown #
vertex $-1 $521 $846 #
ellipse-curve $-1 28.791285390043271 19.553750611650308 3.4228061480007521 0 0.74314483375859142 0.66913059716165679 0.5 0 0 1 I I #
point $-1 29.291285390043271 20.708418105663107 4.4624734035534193 #
plane-surface $-1 0 22.910471005101986 0 0 -1 0 0 0 -1 forward_v I I I I #
coedge $-1 $528 $527 $530 $730 forward $227 $-1 #
edge $-1 $541 -41.59550767540513 $733 41.59550767540513 $539 $847 forward 7 unknown #
edge $-1 $731 -41.59550767540513 $545 41.59550767540513 $543 $848 forward 7 unknown #
straight-curve $-1 41.59550767540513 0 6.9081009728540339 0 1 0 I I #
edge $-1 $733 -22.910471005101986 $731 22.910471005101986 $530 $849 forward 7 unknown #
vertex $-1 $730 $850 #
straight-curve $-1 -41.59550767540513 -22.910471005101986 0 0 0 -1 I I #
vertex $-1 $727 $851 #
straight-curve $-1 -41.59550767540513 22.910471005101986 0 0 0 -1 I I #
point $-1 -41.59550767540513 -22.910471005101986 -6.9081009728540339 #
point $-1 -41.59550767540513 22.910471005101986 -6.9081009728540339 #
point $-1 41.59550767540513 22.910471005101986 6.9081009728540339 #
point $-1 41.59550767540513 -22.910471005101986 6.9081009728540339 #
straight-curve $-1 0 -22.910471005101986 -6.9081009728540339 -1 0 0 I I #
straight-curve $-1 0 22.910471005101986 -6.9081009728540339 1 0 0 I I #
plane-surface $-1 0 0 6.9081009728540339 0 0 1 1 0 0 forward_v I I I I #
coedge $-1 $556 $553 $558 $749 reversed $379 $-1 #
coedge $-1 $553 $556 $755 $852 reversed $379 $-1 #
edge $-1 $757 -6.9081009728540339 $751 6.9081009728540339 $570 $853 forward 7 unknown #
edge $-1 $746 -4.0232925956763808 $568 4.0232925956763808 $555 $854 forward 7 unknown #
vertex $-1 $852 $855 #
vertex $-1 $749 $856 #
straight-curve $-1 -49.642092866757892 -13.197639293930104 0 0 0 -1 I I #
edge $-1 $747 -2.051685117268093 $751 2.051685117268093 $742 $857 forward 7 unknown #
straight-curve $-1 -45.618800271081511 -13.197639293930104 -6.9081009728540339 -1 0 0 I I #
vertex $-1 $560 $858 #
straight-curve $-1 -45.618800271081511 -9.0942690593939179 -6.9081009728540339 1 0 0 I I #
point $-1 -41.59550767540513 -13.197639293930104 -6.9081009728540339 #
straight-curve $-1 -41.59550767540513 -13.197639293930104 0 0 0 -1 I I #
coedge $-1 $566 $565 $743 $852 forward $567 $-1 #
point $-1 -41.59550767540513 -13.197639293930104 6.9081009728540339 #
vertex $-1 $571 $859 #
straight-curve $-1 -45.618800271081511 -9.0942690593939179 6.9081009728540339 -1 0 0 I I #
plane-surface $-1 0 0 6.9081009728540339 0 0 1 1 0 0 forward_v I I I I #
coedge $-1 $764 $860 $591 $775 forward $575 $-1 #
coedge $-1 $577 $584 $587 $773 reversed $395 $-1 #
coedge $-1 $860 $764 $577 $763 reversed $575 $-1 #
edge $-1 $861 -6.9081009728540339 $766 6.9081009728540339 $762 $862 forward 7 unknown #
coedge $-1 $762 $760 $578 $765 reversed $575 $-1 #
edge $-1 $766 -2.051685117268093 $768 2.051685117268093 $764 $863 forward 7 unknown #
vertex $-1 $765 $864 #
straight-curve $-1 45.618800271081511 -9.0942690593939179 -6.9081009728540339 1 0 0 I I #
vertex $-1 $775 $865 #
straight-curve $-1 45.618800271081511 -13.197639293930104 -6.9081009728540339 -1 0 0 I I #
point $-1 41.59550767540513 -9.0942690593939179 -6.9081009728540339 #
straight-curve $-1 41.59550767540513 -9.0942690593939179 0 0 0 -1 I I #
coedge $-1 $587 $586 $860 $866 forward $588 $-1 #
edge $-1 $861 -4.0232925956763808 $589 4.0232925956763808 $761 $867 forward 7 unknown #
point $-1 41.59550767540513 -9.0942690593939179 6.9081009728540339 #
edge $-1 $776 -6.9081009728540339 $768 6.9081009728540339 $760 $868 forward 7 unknown #
vertex $-1 $866 $869 #
straight-curve $-1 45.618800271081511 -13.197639293930104 6.9081009728540339 1 0 0 I I #
coedge $-1 $606 $605 $598 $779 forward $595 $-1 #
edge $-1 $780 21.93030562334701 $783 27.897728707688209 $778 $870 forward 7 unknown #
vertex $-1 $610 $871 #
straight-curve $-1 -33.548922484052362 -41.876264355457657 6.908100972854033 0 -1 0 I I #
edge $-1 $783 -21.211627989524029 $607 -3.4629609995326369 $606 $872 forward 7 unknown #
vertex $-1 $782 $873 #
straight-curve $-1 -33.548922484052362 -22.910471005101989 0.94067788851283041 0 0.68199835119979291 0.73135370988377701 I I #
point $-1 -33.548922484052362 -17.345759088785833 6.908100972854033 #
point $-1 -15.80025549406097 -22.910471005101986 0.94067788851283418 #
straight-curve $-1 0 -22.910471005101986 6.9081009728540339 1 0 0 I I #
vertex $-1 $613 $874 #
point $-1 -27.477874772626251 -19.139235194763334 3.002244072551564 #
vertex $-1 $617 $875 #
point $-1 -19.871303205487081 -19.139235194763334 3.002244072551564 #
edge $-1 $793 38.958947000776028 $796 43.850202139377259 $622 $876 forward 7 unknown #
vertex $-1 $636 $877 #
straight-curve $-1 -22.186234775948876 27.036624994195435 6.9081009728540366 0 1 0 I I #
edge $-1 $796 8.7813496730414009 $633 18.028420532773549 $632 $878 forward 7 unknown #
vertex $-1 $795 $879 #
straight-curve $-1 -22.186234775948876 -7.7497232846954489 36.068442167087902 0 -0.66913059716165679 0.74314483375859142 I I #
point $-1 -22.186234775948876 18.506365206224231 6.908100972854033 #
point $-1 -31.433305635681023 22.910471005101986 2.0168458342528055 #
straight-curve $-1 0 22.910471005101986 6.9081009728540339 -1 0 0 I I #
vertex $-1 $639 $880 #
point $-1 -28.291285390043264 19.553750611650308 3.4228061480007521 #
vertex $-1 $643 $881 #
point $-1 -24.328255021586632 19.553750611650308 3.4228061480007521 #
coedge $-1 $658 $657 $650 $806 forward $647 $-1 #
edge $-1 $807 38.958947000776028 $810 43.850202139377259 $805 $882 forward 7 unknown #
vertex $-1 $662 $883 #
straight-curve $-1 -4.3130546387389064 27.036624994195435 6.9081009728540366 0 1 0 I I #
edge $-1 $810 -0.15524039556358282 $659 9.0918304641685612 $658 $884 forward 7 unknown #
vertex $-1 $809 $885 #
straight-curve $-1 -4.3130546387389064 -7.7497232846954489 36.068442167087902 0 -0.66913059716165679 0.74314483375859142 I I #
point $-1 -4.3130546387389064 18.506365206224231 6.908100972854033 #
point $-1 -13.56012549847105 22.910471005101986 2.0168458342528055 #
straight-curve $-1 0 22.910471005101986 6.9081009728540339 -1 0 0 I I #
vertex $-1 $665 $886 #
point $-1 -10.418105252833296 19.553750611650308 3.4228061480007521 #
vertex $-1 $669 $887 #
point $-1 -6.4550748843766641 19.553750611650308 3.4228061480007521 #
coedge $-1 $684 $683 $676 $820 forward $673 $-1 #
edge $-1 $821 38.958947000776028 $824 43.850202139377259 $819 $888 forward 7 unknown #
vertex $-1 $688 $889 #
straight-curve $-1 13.560125498471058 27.036624994195435 6.9081009728540366 0 1 0 I I #
edge $-1 $824 -9.0918304641685648 $685 0.15524039556357927 $684 $890 forward 7 unknown #
vertex $-1 $823 $891 #
straight-curve $-1 13.560125498471058 -7.7497232846954489 36.068442167087902 0 -0.66913059716165679 0.74314483375859142 I I #
point $-1 13.560125498471058 18.506365206224231 6.908100972854033 #
point $-1 4.3130546387389135 22.910471005101986 2.0168458342528055 #
straight-curve $-1 0 22.910471005101986 6.9081009728540339 -1 0 0 I I #
vertex $-1 $691 $892 #
point $-1 7.4550748843766712 19.553750611650308 3.4228061480007521 #
vertex $-1 $695 $893 #
point $-1 11.4181052528333 19.553750611650308 3.4228061480007521 #
coedge $-1 $710 $709 $702 $834 forward $699 $-1 #
edge $-1 $835 38.958947000776028 $838 43.850202139377259 $833 $894 forward 7 unknown #
vertex $-1 $714 $895 #
straight-curve $-1 31.43330563568103 27.036624994195435 6.9081009728540366 0 1 0 I I #
edge $-1 $838 -18.028420532773552 $711 -8.7813496730414045 $710 $896 forward 7 unknown #
vertex $-1 $837 $897 #
straight-curve $-1 31.43330563568103 -7.7497232846954489 36.068442167087902 0 -0.66913059716165679 0.74314483375859142 I I #
point $-1 31.43330563568103 18.506365206224231 6.908100972854033 #
point $-1 22.186234775948883 22.910471005101986 2.0168458342528055 #
straight-curve $-1 0 22.910471005101986 6.9081009728540339 -1 0 0 I I #
vertex $-1 $717 $898 #
point $-1 25.328255021586642 19.553750611650308 3.4228061480007521 #
vertex $-1 $721 $899 #
point $-1 29.291285390043271 19.553750611650308 3.4228061480007521 #
straight-curve $-1 0 22.910471005101986 6.9081009728540339 -1 0 0 I I #
straight-curve $-1 0 -22.910471005101986 6.9081009728540339 1 0 0 I I #
straight-curve $-1 -41.59550767540513 0 6.9081009728540339 0 -1 0 I I #
point $-1 -41.59550767540513 -22.910471005101986 6.9081009728540339 #
point $-1 -41.59550767540513 22.910471005101986 6.9081009728540339 #
edge $-1 $757 -2.051685117268093 $746 2.051685117268093 $743 $900 forward 7 unknown #
straight-curve $-1 -49.642092866757892 -9.0942690593939179 0 0 0 -1 I I #
straight-curve $-1 -45.618800271081511 -13.197639293930104 6.9081009728540339 1 0 0 I I #
point $-1 -49.642092866757892 -13.197639293930104 6.9081009728540339 #
point $-1 -49.642092866757892 -13.197639293930104 -6.9081009728540339 #
straight-curve $-1 -49.642092866757892 -11.145954176662011 -6.9081009728540339 0 1 0 I I #
point $-1 -49.642092866757892 -9.0942690593939179 -6.9081009728540339 #
point $-1 -49.642092866757892 -9.0942690593939179 6.9081009728540339 #
coedge $-1 $760 $762 $772 $866 reversed $575 $-1 #
vertex $-1 $866 $901 #
straight-curve $-1 49.642092866757892 -9.0942690593939179 0 0 0 -1 I I #
straight-curve $-1 49.642092866757892 -11.145954176662011 -6.9081009728540339 0 -1 0 I I #
point $-1 49.642092866757892 -9.0942690593939179 -6.9081009728540339 #
point $-1 49.642092866757892 -13.197639293930104 -6.9081009728540339 #
edge $-1 $776 -2.051685117268093 $861 2.051685117268093 $860 $902 forward 7 unknown #
straight-curve $-1 45.618800271081511 -9.0942690593939179 6.9081009728540339 -1 0 0 I I #
straight-curve $-1 49.642092866757892 -13.197639293930104 0 0 0 -1 I I #
point $-1 49.642092866757892 -13.197639293930104 6.9081009728540339 #
straight-curve $-1 -33.548922484052362 -22.910471005101986 28.838406596201043 0 0 -1 I I #
point $-1 -33.548922484052362 -22.910471005101986 6.9081009728540339 #
straight-curve $-1 -12.337294494528333 -22.910471005101986 0.94067788851283718 1 0 0 I I #
point $-1 -33.548922484052362 -22.910471005101986 0.94067788851283418 #
point $-1 -28.477874772626251 -18.407881484879557 2.3202457213517711 #
point $-1 -20.871303205487081 -18.407881484879557 2.3202457213517711 #
straight-curve $-1 -22.186234775948876 22.910471005101986 45.867047973630065 0 0 -1 I I #
point $-1 -22.186234775948876 22.910471005101986 6.9081009728540339 #
straight-curve $-1 -13.404885102907475 22.910471005101989 2.0168458342528091 -1 0 0 I I #
point $-1 -22.186234775948876 22.910471005101986 2.0168458342528055 #
point $-1 -28.791285390043264 19.182178194771012 3.0882408494199241 #
point $-1 -24.828255021586632 19.182178194771012 3.0882408494199241 #
straight-curve $-1 -4.3130546387389064 22.910471005101986 45.867047973630065 0 0 -1 I I #
point $-1 -4.3130546387389064 22.910471005101986 6.9081009728540339 #
straight-curve $-1 -4.4682950343024892 22.910471005101989 2.0168458342528091 -1 0 0 I I #
point $-1 -4.3130546387389064 22.910471005101986 2.0168458342528055 #
point $-1 -10.918105252833296 19.182178194771012 3.0882408494199241 #
point $-1 -6.9550748843766641 19.182178194771012 3.0882408494199241 #
straight-curve $-1 13.560125498471058 22.910471005101986 45.867047973630065 0 0 -1 I I #
point $-1 13.560125498471058 22.910471005101986 6.9081009728540339 #
straight-curve $-1 4.4682950343024928 22.910471005101989 2.0168458342528091 -1 0 0 I I #
point $-1 13.560125498471058 22.910471005101986 2.0168458342528055 #
point $-1 6.9550748843766712 19.182178194771012 3.0882408494199241 #
point $-1 10.9181052528333 19.182178194771012 3.0882408494199241 #
straight-curve $-1 31.43330563568103 22.910471005101986 45.867047973630065 0 0 -1 I I #
point $-1 31.43330563568103 22.910471005101986 6.9081009728540339 #
straight-curve $-1 13.404885102907478 22.910471005101989 2.0168458342528091 -1 0 0 I I #
point $-1 31.43330563568103 22.910471005101986 2.0168458342528055 #
point $-1 24.828255021586642 19.182178194771012 3.0882408494199241 #
point $-1 28.791285390043271 19.182178194771012 3.0882408494199241 #
straight-curve $-1 -49.642092866757892 -11.145954176662011 6.9081009728540339 0 -1 0 I I #
point $-1 49.642092866757892 -9.0942690593939179 6.9081009728540339 #
straight-curve $-1 49.642092866757892 -11.145954176662011 6.9081009728540339 0 1 0 I I #
End-of-ACIS-data 