500 0 7 0           
7 Unknown 11 ACIS 5.0 NT 24 Thu Mar 25 15:23:36 1999 
-1 9.9999999999999995e-007 1e-010 
body $-1 $7 $-1 $8 #
body $-1 $9 $-1 $10 #
body $-1 $11 $-1 $12 #
body $-1 $13 $-1 $14 #
body $-1 $15 $-1 $16 #
body $-1 $17 $-1 $18 #
body $-1 $19 $-1 $20 #
lump $-1 $-1 $21 $0 #
transform $-1 1 0 0 0 1 0 0 0 1 54.045838801232946 32.30247887871537 10.527313492298282 1 rotate no_reflect no_shear #
lump $-1 $-1 $22 $1 #
transform $-1 1 0 0 0 1 0 0 0 1 54.045838801232946 32.30247887871537 10.527313492298282 1 rotate no_reflect no_shear #
lump $-1 $-1 $23 $2 #
transform $-1 1 0 0 0 1 0 0 0 1 54.045838801232946 32.30247887871537 10.527313492298282 1 rotate no_reflect no_shear #
lump $-1 $-1 $24 $3 #
transform $-1 1 0 0 0 1 0 0 0 1 54.045838801232946 32.30247887871537 10.527313492298282 1 rotate no_reflect no_shear #
lump $-1 $-1 $25 $4 #
transform $-1 1 0 0 0 1 0 0 0 1 54.045838801232946 32.30247887871537 10.527313492298282 1 rotate no_reflect no_shear #
lump $-1 $-1 $26 $5 #
transform $-1 1 0 0 0 1 0 0 0 1 54.045838801232946 32.30247887871537 10.527313492298282 1 rotate no_reflect no_shear #
lump $-1 $-1 $27 $6 #
transform $-1 1 0 0 0 1 0 0 0 1 54.045838801232946 32.30247887871537 10.527313492298282 1 rotate no_reflect no_shear #
shell $-1 $-1 $-1 $28 $-1 $7 #
shell $-1 $-1 $-1 $29 $-1 $9 #
shell $-1 $-1 $-1 $30 $-1 $11 #
shell $-1 $-1 $-1 $31 $-1 $13 #
shell $-1 $-1 $-1 $32 $-1 $15 #
shell $-1 $-1 $-1 $33 $-1 $17 #
shell $-1 $-1 $-1 $34 $-1 $19 #
face $-1 $35 $36 $21 $-1 $37 forward single #
face $-1 $38 $39 $22 $-1 $40 forward single #
face $-1 $41 $42 $23 $-1 $43 reversed single #
face $-1 $44 $45 $24 $-1 $46 forward single #
face $-1 $47 $48 $25 $-1 $49 reversed single #
face $-1 $50 $51 $26 $-1 $52 forward single #
face $-1 $53 $54 $27 $-1 $55 forward single #
face $-1 $56 $57 $21 $-1 $58 reversed single #
loop $-1 $-1 $59 $28 #
plane-surface $-1 0 0 10.527313492298282 0 0 1 1 0 0 forward_v I I I I #
face $-1 $60 $61 $22 $-1 $62 reversed single #
loop $-1 $-1 $63 $29 #
plane-surface $-1 0 -27.171982190647618 0.34739382156553456 0 0 1 1 0 0 forward_v I I I I #
face $-1 $64 $65 $23 $-1 $66 reversed single #
loop $-1 $-1 $67 $30 #
plane-surface $-1 80.590520376316533 -22.041485502579867 151.1437707528475 0 1 0 0.81915205242281985 0 0.57357642473473569 forward_v I I I I #
face $-1 $68 $69 $24 $-1 $70 forward single #
loop $-1 $71 $72 $31 #
cone-surface $-1 47.809896148168853 -13.921177424467636 3.6311970685158044 -0.81915205242281985 0 -0.57357642473473569 1.1471528494694714 0 -1.6383041048456397 1 I I 0 1 2 forward I I I I #
face $-1 $73 $74 $25 $-1 $75 reversed single #
loop $-1 $-1 $76 $32 #
plane-surface $-1 -145.71278105894427 23.129485215227866 60.138756014453342 0 1 0 -0.84804810408105047 0 0.52991925155115449 forward_v I I I I #
face $-1 $77 $78 $26 $-1 $79 forward single #
loop $-1 $80 $81 $33 #
cone-surface $-1 -51.039241242585703 25.750340547652868 6.3114854648897456 0.84804810408105047 0 -0.52991925155115449 0.52991925155115449 0 0.84804810408105047 1 I I 0 1 1 forward I I I I #
face $-1 $82 $83 $27 $-1 $84 forward single #
loop $-1 $85 $86 $34 #
cone-surface $-1 -51.039241242585703 29.681623546290368 6.3114854648897456 0.84804810408105047 0 -0.52991925155115449 0.52991925155115449 0 0.84804810408105047 1 I I 0 1 1 forward I I I I #
face $-1 $87 $88 $21 $-1 $89 reversed single #
loop $-1 $-1 $90 $35 #
plane-surface $-1 0 0 -10.527313492298282 0 0 1 1 0 0 forward_v I I I I #
coedge $-1 $91 $92 $93 $94 forward $36 $-1 #
face $-1 $95 $96 $22 $-1 $97 reversed single #
loop $-1 $-1 $98 $38 #
plane-surface $-1 0 -27.171982190647618 -5.9620546708154887 0 0 1 1 0 0 forward_v I I I I #
coedge $-1 $99 $100 $101 $102 reversed $39 $-1 #
face $-1 $103 $104 $23 $-1 $105 reversed single #
loop $-1 $-1 $106 $41 #
plane-surface $-1 -7.9529991815691545 -13.921177424467636 89.144932770045415 0.81915205242281985 0 0.57357642473473569 0.57357642473473569 0 -0.81915205242281985 forward_v I I I I #
coedge $-1 $107 $108 $109 $110 reversed $42 $-1 #
face $-1 $-1 $111 $24 $-1 $112 forward single #
loop $-1 $113 $114 $44 #
cone-surface $-1 44.229896437632107 -13.921177424467636 1.1244543600678814 -0.81915205242281985 0 -0.57357642473473569 0.57357642473473569 0 -0.81915205242281985 1 I I -0.70710678118654746 0.70710678118654746 1 forward I I I I #
loop $-1 $-1 $115 $31 #
coedge $-1 $72 $72 $116 $117 reversed $45 $-1 #
face $-1 $118 $119 $25 $-1 $120 forward single #
loop $-1 $-1 $121 $47 #
plane-surface $-1 -54.045838801232932 27.715982046971618 2.8588951204459292 -0.84804810408105047 0 0.52991925155115449 0.52991925155115449 0 0.84804810408105047 forward_v I I I I #
coedge $-1 $122 $123 $124 $125 reversed $48 $-1 #
face $-1 $-1 $126 $26 $-1 $127 forward single #
loop $-1 $128 $129 $50 #
cone-surface $-1 -50.004499361265701 25.750340547652868 5.6649069976318049 0.84804810408105047 0 -0.52991925155115449 0.26495962577557725 0 0.42402405204052523 1 I I -0.70710678118654746 0.70710678118654746 0.5 forward I I I I #
loop $-1 $-1 $130 $33 #
coedge $-1 $81 $81 $131 $132 reversed $51 $-1 #
face $-1 $-1 $133 $27 $-1 $134 forward single #
loop $-1 $135 $136 $53 #
cone-surface $-1 -50.004499361265701 29.681623546290368 5.6649069976318049 0.84804810408105047 0 -0.52991925155115449 0.26495962577557725 0 0.42402405204052523 1 I I -0.70710678118654746 0.70710678118654746 0.5 forward I I I I #
loop $-1 $-1 $137 $34 #
coedge $-1 $86 $86 $138 $139 reversed $54 $-1 #
face $-1 $140 $141 $21 $-1 $142 reversed single #
loop $-1 $-1 $143 $56 #
plane-surface $-1 0 -32.30247887871537 0 0 1 0 0 0 1 forward_v I I I I #
coedge $-1 $144 $145 $146 $147 forward $57 $-1 #
coedge $-1 $148 $59 $149 $150 forward $36 $-1 #
coedge $-1 $59 $148 $151 $152 forward $36 $-1 #
coedge $-1 $153 $154 $59 $94 reversed $155 $-1 #
edge $-1 $156 -32.30247887871537 $157 32.30247887871537 $93 $158 forward 7 unknown #
face $-1 $159 $160 $22 $-1 $161 reversed single #
loop $-1 $-1 $162 $60 #
plane-surface $-1 0 -22.041485502579867 -2.8073304246249773 0 -1 0 0 0 -1 forward_v I I I I #
coedge $-1 $163 $164 $165 $166 reversed $61 $-1 #
coedge $-1 $167 $63 $168 $169 forward $39 $-1 #
coedge $-1 $63 $167 $170 $171 reversed $39 $-1 #
coedge $-1 $172 $173 $63 $102 forward $174 $-1 #
edge $-1 $175 8.4554944072560581 $176 18.71648778339156 $101 $177 forward 7 unknown #
face $-1 $178 $179 $23 $-1 $180 forward single #
loop $-1 $-1 $181 $64 #
plane-surface $-1 80.590520376316533 -5.8008693463554053 151.1437707528475 0 -1 0 -0.81915205242281985 0 -0.57357642473473569 forward_v I I I I #
coedge $-1 $182 $183 $184 $185 reversed $65 $-1 #
coedge $-1 $108 $67 $186 $187 reversed $42 $-1 #
coedge $-1 $67 $107 $182 $188 reversed $42 $-1 #
coedge $-1 $184 $189 $67 $110 forward $190 $-1 #
edge $-1 $191 65.044571884125475 $192 74.970472164264038 $109 $193 forward 7 unknown #
loop $-1 $-1 $116 $68 #
plane-surface $-1 -7.9529991815691545 -13.921177424467636 89.144932770045415 0.81915205242281985 0 0.57357642473473569 0.57357642473473569 0 -0.81915205242281985 forward_v I I I I #
loop $-1 $-1 $194 $44 #
coedge $-1 $114 $114 $115 $195 reversed $69 $-1 #
coedge $-1 $115 $115 $114 $195 forward $71 $-1 #
coedge $-1 $116 $116 $72 $117 forward $111 $-1 #
edge $-1 $196 0 $196 6.2831853071796004 $116 $197 forward 7 unknown #
face $-1 $198 $199 $25 $-1 $200 reversed single #
loop $-1 $-1 $124 $73 #
plane-surface $-1 0 0 10.527313492298282 0 0 1 1 0 0 forward_v I I I I #
coedge $-1 $201 $202 $203 $204 reversed $74 $-1 #
coedge $-1 $123 $76 $205 $206 reversed $48 $-1 #
coedge $-1 $76 $122 $201 $207 reversed $48 $-1 #
coedge $-1 $203 $208 $76 $125 forward $119 $-1 #
edge $-1 $209 18.81055172823919 $210 23.602311186974752 $124 $211 forward 7 unknown #
loop $-1 $-1 $131 $77 #
plane-surface $-1 -54.045838801232932 27.715982046971618 2.8588951204459292 -0.84804810408105047 0 0.52991925155115449 0.52991925155115449 0 0.84804810408105047 forward_v I I I I #
loop $-1 $-1 $212 $50 #
coedge $-1 $129 $129 $130 $213 reversed $78 $-1 #
coedge $-1 $130 $130 $129 $213 forward $80 $-1 #
coedge $-1 $131 $131 $81 $132 forward $126 $-1 #
edge $-1 $214 0 $214 6.2831853071796004 $131 $215 forward 7 unknown #
loop $-1 $-1 $138 $82 #
plane-surface $-1 -54.045838801232932 27.715982046971618 2.8588951204459292 -0.84804810408105047 0 0.52991925155115449 0.52991925155115449 0 0.84804810408105047 forward_v I I I I #
loop $-1 $-1 $216 $53 #
coedge $-1 $136 $136 $137 $217 reversed $83 $-1 #
coedge $-1 $137 $137 $136 $217 forward $85 $-1 #
coedge $-1 $138 $138 $86 $139 forward $133 $-1 #
edge $-1 $218 0 $218 6.2831853071796004 $138 $219 forward 7 unknown #
face $-1 $220 $221 $21 $-1 $222 reversed single #
loop $-1 $-1 $223 $87 #
plane-surface $-1 -54.045838801232946 0 0 1 0 0 0 0 -1 forward_v I I I I #
coedge $-1 $224 $151 $225 $226 forward $88 $-1 #
coedge $-1 $227 $90 $224 $228 forward $57 $-1 #
coedge $-1 $90 $227 $229 $230 forward $57 $-1 #
coedge $-1 $154 $153 $90 $147 reversed $155 $-1 #
edge $-1 $231 -32.30247887871537 $232 32.30247887871537 $146 $233 forward 7 unknown #
coedge $-1 $92 $91 $234 $235 forward $36 $-1 #
coedge $-1 $236 $237 $91 $150 reversed $221 $-1 #
edge $-1 $157 -54.045838801232946 $238 54.045838801232946 $149 $239 forward 7 unknown #
coedge $-1 $143 $240 $92 $152 reversed $88 $-1 #
edge $-1 $241 -54.045838801232946 $156 54.045838801232946 $151 $242 forward 7 unknown #
coedge $-1 $146 $93 $240 $243 forward $155 $-1 #
coedge $-1 $93 $146 $236 $244 reversed $155 $-1 #
loop $-1 $-1 $153 $220 #
vertex $-1 $94 $245 #
vertex $-1 $94 $246 #
straight-curve $-1 54.045838801232946 0 10.527313492298282 0 1 0 I I #
face $-1 $247 $248 $22 $-1 $249 reversed single #
loop $-1 $-1 $250 $95 #
plane-surface $-1 -54.045838801232946 0 0 1 0 0 0 0 -1 forward_v I I I I #
coedge $-1 $251 $168 $173 $252 reversed $96 $-1 #
coedge $-1 $253 $98 $254 $255 reversed $61 $-1 #
coedge $-1 $98 $253 $251 $256 forward $61 $-1 #
coedge $-1 $173 $172 $98 $166 forward $174 $-1 #
edge $-1 $257 -18.71648778339156 $258 -8.4554944072560581 $165 $259 forward 7 unknown #
coedge $-1 $100 $99 $250 $260 reversed $39 $-1 #
coedge $-1 $162 $261 $99 $169 reversed $96 $-1 #
edge $-1 $175 -54.045838801232946 $262 54.045838801232946 $168 $263 forward 7 unknown #
coedge $-1 $264 $265 $100 $171 forward $248 $-1 #
edge $-1 $176 -54.045838801232946 $266 54.045838801232946 $170 $267 forward 7 unknown #
coedge $-1 $165 $101 $265 $268 forward $174 $-1 #
coedge $-1 $101 $165 $162 $252 forward $174 $-1 #
loop $-1 $-1 $101 $247 #
vertex $-1 $102 $269 #
vertex $-1 $268 $270 #
straight-curve $-1 54.045838801232946 -13.585991095323809 0.34739382156553456 0 -1 0 I I #
face $-1 $-1 $190 $23 $-1 $271 reversed single #
loop $-1 $-1 $272 $103 #
plane-surface $-1 0 0 10.527313492298282 0 0 1 1 0 0 forward_v I I I I #
coedge $-1 $273 $274 $275 $276 reversed $104 $-1 #
coedge $-1 $277 $106 $108 $188 forward $65 $-1 #
coedge $-1 $106 $277 $273 $278 forward $65 $-1 #
coedge $-1 $275 $109 $106 $185 forward $190 $-1 #
edge $-1 $192 -15.080896790346049 $279 1.1597193658784128 $184 $280 forward 7 unknown #
coedge $-1 $281 $282 $107 $187 forward $179 $-1 #
edge $-1 $283 6.8003886231743635 $191 13.75057861307468 $186 $284 forward 7 unknown #
edge $-1 $192 -108.09167760246592 $283 -95.974390890211993 $108 $285 forward 7 unknown #
coedge $-1 $109 $275 $281 $286 reversed $190 $-1 #
loop $-1 $-1 $275 $178 #
vertex $-1 $286 $287 #
vertex $-1 $110 $288 #
straight-curve $-1 54.045838801232946 -22.041485502579867 75.571885376423751 0 0 -1 I I #
coedge $-1 $194 $194 $-1 $289 reversed $113 $-1 #
edge $-1 $290 0 $290 6.2831853071796004 $114 $291 forward 7 unknown #
vertex $-1 $117 $292 #
ellipse-curve $-1 50.570743806282785 -13.921177424467636 5.5643633522289981 0.81915205242281985 0 0.57357642473473569 1.1471528494694714 0 -1.6383041048456397 1 I I #
face $-1 $-1 $293 $25 $-1 $294 reversed single #
loop $-1 $-1 $295 $118 #
plane-surface $-1 0 32.30247887871537 0 0 -1 0 0 0 -1 forward_v I I I I #
coedge $-1 $296 $121 $123 $207 forward $74 $-1 #
coedge $-1 $121 $296 $295 $297 reversed $74 $-1 #
coedge $-1 $298 $124 $121 $204 forward $119 $-1 #
edge $-1 $210 9.2714941917420575 $299 18.444487855229561 $203 $300 forward 7 unknown #
coedge $-1 $301 $302 $122 $206 forward $293 $-1 #
edge $-1 $303 -27.210482886780763 $209 -19.542064514928391 $205 $304 forward 7 unknown #
edge $-1 $210 -9.0424332475359925 $303 2.6737665129848107e-014 $123 $305 forward 7 unknown #
coedge $-1 $124 $298 $301 $306 forward $119 $-1 #
vertex $-1 $206 $307 #
vertex $-1 $125 $308 #
straight-curve $-1 -72.856390529472137 23.129485215227866 10.527313492298283 1 0 0 I I #
coedge $-1 $212 $212 $-1 $309 reversed $128 $-1 #
edge $-1 $310 0 $310 6.2831853071796004 $129 $311 forward 7 unknown #
vertex $-1 $132 $312 #
ellipse-curve $-1 -51.649959071865162 25.750340547652868 6.6931043063720992 -0.84804810408105047 0 0.52991925155115449 0.52991925155115449 0 0.84804810408105047 1 I I #
coedge $-1 $216 $216 $-1 $313 reversed $135 $-1 #
edge $-1 $314 0 $314 6.2831853071796004 $136 $315 forward 7 unknown #
vertex $-1 $139 $316 #
ellipse-curve $-1 -51.649959071865162 29.681623546290368 6.6931043063720992 -0.84804810408105047 0 0.52991925155115449 0.52991925155115449 0 0.84804810408105047 1 I I #
face $-1 $-1 $155 $21 $-1 $317 reversed single #
loop $-1 $-1 $236 $140 #
plane-surface $-1 0 32.30247887871537 0 0 -1 0 0 0 -1 forward_v I I I I #
coedge $-1 $318 $234 $237 $319 forward $141 $-1 #
coedge $-1 $240 $143 $144 $228 reversed $88 $-1 #
coedge $-1 $234 $318 $143 $226 reversed $141 $-1 #
edge $-1 $241 -10.527313492298282 $320 10.527313492298282 $225 $321 forward 7 unknown #
coedge $-1 $145 $144 $318 $322 forward $57 $-1 #
edge $-1 $232 -54.045838801232946 $320 54.045838801232946 $224 $323 forward 7 unknown #
coedge $-1 $237 $236 $145 $230 reversed $221 $-1 #
edge $-1 $324 -54.045838801232946 $231 54.045838801232946 $229 $325 forward 7 unknown #
vertex $-1 $147 $326 #
vertex $-1 $243 $327 #
straight-curve $-1 54.045838801232946 0 -10.527313492298282 0 -1 0 I I #
coedge $-1 $223 $225 $148 $235 reversed $141 $-1 #
edge $-1 $238 -32.30247887871537 $241 32.30247887871537 $234 $328 forward 7 unknown #
coedge $-1 $229 $149 $154 $244 forward $221 $-1 #
coedge $-1 $149 $229 $223 $319 reversed $221 $-1 #
vertex $-1 $150 $329 #
straight-curve $-1 0 32.30247887871537 10.527313492298282 -1 0 0 I I #
coedge $-1 $151 $224 $153 $243 reversed $88 $-1 #
vertex $-1 $235 $330 #
straight-curve $-1 0 -32.30247887871537 10.527313492298282 1 0 0 I I #
edge $-1 $156 -10.527313492298282 $232 10.527313492298282 $153 $331 forward 7 unknown #
edge $-1 $157 -10.527313492298282 $231 10.527313492298282 $154 $332 forward 7 unknown #
point $-1 54.045838801232946 -32.30247887871537 10.527313492298282 #
point $-1 54.045838801232946 32.30247887871537 10.527313492298282 #
face $-1 $-1 $174 $22 $-1 $333 reversed single #
loop $-1 $-1 $170 $159 #
plane-surface $-1 0 -32.30247887871537 0 0 1 0 0 0 1 forward_v I I I I #
coedge $-1 $334 $335 $167 $260 forward $160 $-1 #
coedge $-1 $261 $162 $164 $256 reversed $96 $-1 #
edge $-1 $258 -4.558389458503 $175 1.7510590338780232 $173 $336 forward 7 unknown #
coedge $-1 $164 $163 $337 $338 reversed $61 $-1 #
coedge $-1 $265 $264 $163 $255 forward $248 $-1 #
edge $-1 $339 -54.045838801232946 $257 54.045838801232946 $254 $340 forward 7 unknown #
edge $-1 $341 -54.045838801232946 $258 54.045838801232946 $251 $342 forward 7 unknown #
vertex $-1 $255 $343 #
vertex $-1 $166 $344 #
straight-curve $-1 54.045838801232946 -13.585991095323809 -5.9620546708154887 0 1 0 I I #
edge $-1 $266 -18.71648778339156 $262 -8.4554944072560581 $250 $345 forward 7 unknown #
coedge $-1 $168 $251 $334 $346 reversed $96 $-1 #
vertex $-1 $260 $347 #
straight-curve $-1 0 -22.041485502579867 0.34739382156553456 -1 0 0 I I #
coedge $-1 $254 $170 $335 $348 forward $248 $-1 #
coedge $-1 $170 $254 $172 $268 reversed $248 $-1 #
vertex $-1 $348 $349 #
straight-curve $-1 0 -32.30247887871537 0.34739382156553456 -1 0 0 I I #
edge $-1 $176 -0.34739382156553456 $257 5.9620546708154887 $172 $350 forward 7 unknown #
point $-1 54.045838801232946 -22.041485502579867 0.34739382156553456 #
point $-1 54.045838801232946 -32.30247887871537 0.34739382156553456 #
plane-surface $-1 54.045838801232946 0 0 -1 0 0 0 0 1 forward_v I I I I #
coedge $-1 $282 $281 $274 $351 forward $179 $-1 #
coedge $-1 $274 $181 $183 $278 reversed $104 $-1 #
coedge $-1 $181 $273 $272 $351 reversed $104 $-1 #
coedge $-1 $189 $184 $181 $276 forward $190 $-1 #
edge $-1 $279 -74.970472164264038 $352 -65.044571884125475 $275 $353 forward 7 unknown #
coedge $-1 $183 $182 $282 $354 reversed $65 $-1 #
edge $-1 $355 95.974390890211993 $279 108.09167760246592 $273 $356 forward 7 unknown #
vertex $-1 $185 $357 #
straight-curve $-1 54.045838801232946 -6.9605887122338181 0.60141321215971288 0 1 0 I I #
coedge $-1 $272 $186 $189 $286 forward $179 $-1 #
coedge $-1 $186 $272 $277 $354 forward $179 $-1 #
vertex $-1 $187 $358 #
straight-curve $-1 40.295260188158267 -22.041485502579867 10.527313492298276 1 0 0 I I #
straight-curve $-1 -7.9529991815691545 -22.041485502579867 89.144932770045415 -0.57357642473473569 0 0.81915205242281985 I I #
edge $-1 $191 -22.041485502579867 $352 -5.8008693463554053 $189 $359 forward 7 unknown #
point $-1 54.045838801232946 -22.041485502579867 10.527313492298282 #
point $-1 54.045838801232946 -22.041485502579867 0.60141321215971288 #
edge $-1 $360 1 $360 0 $194 $-1 forward 7 unknown #
vertex $-1 $195 $361 #
ellipse-curve $-1 45.049048490054929 -13.921177424467636 1.698030784802617 0.81915205242281985 0 0.57357642473473569 1.1471528494694714 0 -1.6383041048456397 1 I I #
point $-1 51.717896655752249 -13.921177424467636 3.9260592473833524 #
loop $-1 $-1 $205 $198 #
plane-surface $-1 -54.045838801232946 0 0 1 0 0 0 0 -1 forward_v I I I I #
coedge $-1 $362 $363 $202 $297 forward $199 $-1 #
coedge $-1 $202 $201 $302 $364 reversed $74 $-1 #
edge $-1 $299 4.0652916826354915 $365 13.107724930171511 $295 $366 forward 7 unknown #
coedge $-1 $208 $203 $363 $367 forward $119 $-1 #
vertex $-1 $367 $368 #
straight-curve $-1 -49.254079342497384 13.857991023485809 10.527313492298282 0 1 0 I I #
coedge $-1 $369 $205 $208 $306 reversed $293 $-1 #
coedge $-1 $205 $369 $296 $364 forward $293 $-1 #
vertex $-1 $206 $370 #
straight-curve $-1 -54.045838801232946 23.129485215227866 30.069378007226671 0 0 1 I I #
straight-curve $-1 -54.045838801232932 23.129485215227866 2.8588951204459292 -0.52991925155115449 0 -0.84804810408105047 I I #
edge $-1 $371 -32.30247887871537 $209 -23.129485215227866 $301 $372 forward 7 unknown #
point $-1 -54.045838801232946 23.129485215227866 10.527313492298282 #
point $-1 -49.254079342497384 23.129485215227866 10.527313492298283 #
edge $-1 $373 1 $373 0 $212 $-1 forward 7 unknown #
vertex $-1 $213 $374 #
ellipse-curve $-1 -50.428523413306223 25.750340547652868 5.9298666234073822 -0.84804810408105047 0 0.52991925155115449 0.52991925155115449 0 0.84804810408105047 1 I I #
point $-1 -51.12003982031402 25.750340547652868 7.5411524104531598 #
edge $-1 $375 1 $375 0 $216 $-1 forward 7 unknown #
vertex $-1 $217 $376 #
ellipse-curve $-1 -50.428523413306223 29.681623546290368 5.9298666234073822 -0.84804810408105047 0 0.52991925155115449 0.52991925155115449 0 0.84804810408105047 1 I I #
point $-1 -51.12003982031402 29.681623546290368 7.5411524104531598 #
plane-surface $-1 54.045838801232946 0 0 -1 0 0 0 0 1 forward_v I I I I #
coedge $-1 $225 $223 $227 $322 reversed $141 $-1 #
edge $-1 $238 -10.527313492298282 $324 10.527313492298282 $237 $377 forward 7 unknown #
vertex $-1 $322 $378 #
straight-curve $-1 -54.045838801232946 -32.30247887871537 0 0 0 -1 I I #
edge $-1 $320 -32.30247887871537 $324 32.30247887871537 $318 $379 forward 7 unknown #
straight-curve $-1 0 -32.30247887871537 -10.527313492298282 -1 0 0 I I #
vertex $-1 $230 $380 #
straight-curve $-1 0 32.30247887871537 -10.527313492298282 1 0 0 I I #
point $-1 54.045838801232946 32.30247887871537 -10.527313492298282 #
point $-1 54.045838801232946 -32.30247887871537 -10.527313492298282 #
straight-curve $-1 -54.045838801232946 0 10.527313492298282 0 -1 0 I I #
point $-1 -54.045838801232946 32.30247887871537 10.527313492298282 #
point $-1 -54.045838801232946 -32.30247887871537 10.527313492298282 #
straight-curve $-1 54.045838801232946 -32.30247887871537 0 0 0 -1 I I #
straight-curve $-1 54.045838801232946 32.30247887871537 0 0 0 -1 I I #
plane-surface $-1 54.045838801232946 0 0 -1 0 0 0 0 1 forward_v I I I I #
coedge $-1 $337 $250 $261 $346 forward $160 $-1 #
coedge $-1 $250 $337 $264 $348 reversed $160 $-1 #
straight-curve $-1 54.045838801232946 -22.041485502579867 -1.4036652123124886 0 0 1 I I #
coedge $-1 $335 $334 $253 $338 forward $160 $-1 #
edge $-1 $341 8.4554944072560581 $339 18.71648778339156 $337 $381 forward 7 unknown #
vertex $-1 $255 $382 #
straight-curve $-1 0 -32.30247887871537 -5.9620546708154887 1 0 0 I I #
vertex $-1 $338 $383 #
straight-curve $-1 0 -22.041485502579867 -5.9620546708154887 1 0 0 I I #
point $-1 54.045838801232946 -32.30247887871537 -5.9620546708154887 #
point $-1 54.045838801232946 -22.041485502579867 -5.9620546708154887 #
straight-curve $-1 -54.045838801232946 -13.585991095323809 0.34739382156553456 0 1 0 I I #
edge $-1 $262 -1.7510590338780232 $341 4.558389458503 $334 $384 forward 7 unknown #
point $-1 -54.045838801232946 -22.041485502579867 0.34739382156553456 #
edge $-1 $266 -0.34739382156553456 $339 5.9620546708154887 $335 $385 forward 7 unknown #
point $-1 -54.045838801232946 -32.30247887871537 0.34739382156553456 #
straight-curve $-1 54.045838801232946 -32.30247887871537 0 0 0 -1 I I #
edge $-1 $352 -13.75057861307468 $355 -6.8003886231743635 $272 $386 forward 7 unknown #
vertex $-1 $351 $387 #
straight-curve $-1 54.045838801232946 -5.8008693463554053 75.571885376423751 0 0 1 I I #
edge $-1 $355 -1.1597193658784128 $283 15.080896790346049 $282 $388 forward 7 unknown #
vertex $-1 $354 $389 #
straight-curve $-1 -7.9529991815691545 -5.8008693463554053 89.144932770045415 0.57357642473473569 0 -0.81915205242281985 I I #
point $-1 54.045838801232946 -5.8008693463554053 0.60141321215971288 #
point $-1 47.09564881133263 -22.041485502579867 10.527313492298276 #
straight-curve $-1 54.045838801232946 0 10.527313492298282 0 1 0 I I #
vertex $-1 $289 $390 #
point $-1 46.1962013395244 -13.921177424467636 0.059726679956977335 #
coedge $-1 $363 $295 $369 $391 reversed $199 $-1 #
coedge $-1 $295 $362 $298 $367 reversed $199 $-1 #
edge $-1 $365 -18.444487855229561 $303 -9.2714941917420575 $302 $392 forward 7 unknown #
vertex $-1 $297 $393 #
straight-curve $-1 -47.099803016698047 32.30247887871537 13.974876396293773 -0.52991925155115449 0 -0.84804810408105047 I I #
edge $-1 $299 49.254079342497384 $371 54.045838801232946 $363 $394 forward 7 unknown #
point $-1 -49.254079342497384 32.30247887871537 10.527313492298283 #
coedge $-1 $302 $301 $362 $391 forward $293 $-1 #
point $-1 -54.045838801232946 23.129485215227866 2.8588951204459065 #
vertex $-1 $367 $395 #
straight-curve $-1 -54.045838801232946 0 10.527313492298282 0 -1 0 I I #
vertex $-1 $309 $396 #
point $-1 -49.898604161755074 25.750340547652868 6.777914727488433 #
vertex $-1 $313 $397 #
point $-1 -49.898604161755074 29.681623546290368 6.777914727488433 #
straight-curve $-1 -54.045838801232946 32.30247887871537 0 0 0 -1 I I #
point $-1 -54.045838801232946 -32.30247887871537 -10.527313492298282 #
straight-curve $-1 -54.045838801232946 0 -10.527313492298282 0 1 0 I I #
point $-1 -54.045838801232946 32.30247887871537 -10.527313492298282 #
straight-curve $-1 -54.045838801232946 -13.585991095323809 -5.9620546708154887 0 -1 0 I I #
point $-1 -54.045838801232946 -32.30247887871537 -5.9620546708154887 #
point $-1 -54.045838801232946 -22.041485502579867 -5.9620546708154887 #
straight-curve $-1 -54.045838801232946 -22.041485502579867 -1.4036652123124886 0 0 -1 I I #
straight-curve $-1 -54.045838801232946 -32.30247887871537 0 0 0 -1 I I #
straight-curve $-1 40.295260188158267 -5.8008693463554053 10.527313492298276 -1 0 0 I I #
point $-1 54.045838801232946 -5.8008693463554053 10.527313492298282 #
straight-curve $-1 47.095648811332623 -6.9605887122338181 10.527313492298283 0 -1 0 I I #
point $-1 47.09564881133263 -5.8008693463554053 10.527313492298276 #
point $-1 43.410744385209284 -13.921177424467636 0.55087793533314566 #
edge $-1 $371 -10.527313492298282 $365 -2.8588951204459065 $362 $398 forward 7 unknown #
straight-curve $-1 -54.045838801232946 13.857991023485809 2.8588951204459008 0 -1 0 I I #
point $-1 -54.045838801232946 32.30247887871537 2.8588951204459065 #
straight-curve $-1 0 32.30247887871537 10.527313492298282 -1 0 0 I I #
point $-1 -54.045838801232946 32.30247887871537 10.527313492298282 #
point $-1 -49.580475309225179 25.750340547652868 5.3999473718562276 #
point $-1 -49.580475309225179 29.681623546290368 5.3999473718562276 #
straight-curve $-1 -54.045838801232946 32.30247887871537 0 0 0 -1 I I #
End-of-ACIS-data 