500 0 10 0           
7 Unknown 11 ACIS 5.0 NT 24 Thu Mar 25 22:48:29 1999 
-1 9.9999999999999995e-007 1e-010 
body $-1 $10 $-1 $11 #
body $-1 $12 $-1 $13 #
body $-1 $14 $-1 $15 #
body $-1 $16 $-1 $17 #
body $-1 $18 $-1 $19 #
body $-1 $20 $-1 $21 #
body $-1 $22 $-1 $23 #
body $-1 $24 $-1 $25 #
body $-1 $26 $-1 $27 #
body $-1 $28 $-1 $29 #
lump $-1 $-1 $30 $0 #
transform $-1 1 0 0 0 1 0 0 0 1 77.714774010437338 51.041959288345616 10.577105251130577 1 rotate no_reflect no_shear #
lump $-1 $-1 $31 $1 #
transform $-1 1 0 0 0 1 0 0 0 1 77.714774010437338 51.041959288345616 10.577105251130577 1 rotate no_reflect no_shear #
lump $-1 $-1 $32 $2 #
transform $-1 1 0 0 0 1 0 0 0 1 77.714774010437338 51.041959288345616 10.577105251130577 1 rotate no_reflect no_shear #
lump $-1 $-1 $33 $3 #
transform $-1 1 0 0 0 1 0 0 0 1 77.714774010437338 51.041959288345616 10.577105251130577 1 rotate no_reflect no_shear #
lump $-1 $-1 $34 $4 #
transform $-1 1 0 0 0 1 0 0 0 1 77.714774010437338 51.041959288345616 10.577105251130577 1 rotate no_reflect no_shear #
lump $-1 $-1 $35 $5 #
transform $-1 1 0 0 0 1 0 0 0 1 77.714774010437338 51.041959288345616 10.577105251130577 1 rotate no_reflect no_shear #
lump $-1 $-1 $36 $6 #
transform $-1 1 0 0 0 1 0 0 0 1 77.714774010437338 51.041959288345616 10.577105251130577 1 rotate no_reflect no_shear #
lump $-1 $-1 $37 $7 #
transform $-1 1 0 0 0 1 0 0 0 1 77.714774010437338 51.041959288345616 10.577105251130577 1 rotate no_reflect no_shear #
lump $-1 $-1 $38 $8 #
transform $-1 1 0 0 0 1 0 0 0 1 77.714774010437338 51.041959288345616 10.577105251130577 1 rotate no_reflect no_shear #
lump $-1 $-1 $39 $9 #
transform $-1 1 0 0 0 1 0 0 0 1 77.714774010437338 51.041959288345616 10.577105251130577 1 rotate no_reflect no_shear #
shell $-1 $-1 $-1 $40 $-1 $10 #
shell $-1 $-1 $-1 $41 $-1 $12 #
shell $-1 $-1 $-1 $42 $-1 $14 #
shell $-1 $-1 $-1 $43 $-1 $16 #
shell $-1 $-1 $-1 $44 $-1 $18 #
shell $-1 $-1 $-1 $45 $-1 $20 #
shell $-1 $-1 $-1 $46 $-1 $22 #
shell $-1 $-1 $-1 $47 $-1 $24 #
shell $-1 $-1 $-1 $48 $-1 $26 #
shell $-1 $-1 $-1 $49 $-1 $28 #
face $-1 $50 $51 $30 $-1 $52 forward single #
face $-1 $53 $54 $31 $-1 $55 forward single #
face $-1 $56 $57 $32 $-1 $58 reversed single #
face $-1 $59 $60 $33 $-1 $61 forward single #
face $-1 $62 $63 $34 $-1 $64 forward single #
face $-1 $65 $66 $35 $-1 $67 forward single #
face $-1 $68 $69 $36 $-1 $70 reversed single #
face $-1 $71 $72 $37 $-1 $73 forward single #
face $-1 $74 $75 $38 $-1 $76 forward single #
face $-1 $77 $78 $39 $-1 $79 forward single #
face $-1 $80 $81 $30 $-1 $82 reversed single #
loop $-1 $-1 $83 $40 #
plane-surface $-1 0 0 10.577105251130577 0 0 1 1 0 0 forward_v I I I I #
face $-1 $84 $85 $31 $-1 $86 reversed single #
loop $-1 $-1 $87 $41 #
plane-surface $-1 0 -51.041959288345616 0 0 1 0 0 0 1 forward_v I I I I #
face $-1 $88 $89 $32 $-1 $90 reversed single #
loop $-1 $-1 $91 $42 #
plane-surface $-1 -200.19493056209905 32.209673907112219 100.66946635630858 0 1 0 -0.78801076186113728 0 0.61566146476048833 forward_v I I I I #
face $-1 $92 $93 $33 $-1 $94 forward single #
loop $-1 $95 $96 $43 #
cone-surface $-1 -75.014677256547316 34.196048499887134 7.3767722897505896 0.78801076186113728 0 -0.61566146476048833 0.30783073238024417 0 0.39400538093056864 1 I I 0 1 0.5 forward I I I I #
face $-1 $97 $98 $34 $-1 $99 forward single #
loop $-1 $100 $101 $44 #
cone-surface $-1 -75.014677256547316 37.175610389049517 7.3767722897505896 0.78801076186113728 0 -0.61566146476048833 0.30783073238024417 0 0.39400538093056864 1 I I 0 1 0.5 forward I I I I #
face $-1 $102 $103 $35 $-1 $104 forward single #
loop $-1 $105 $106 $45 #
cone-surface $-1 -75.014677256547316 40.1551722782119 7.3767722897505896 0.78801076186113728 0 -0.61566146476048833 0.30783073238024417 0 0.39400538093056864 1 I I 0 1 0.5 forward I I I I #
face $-1 $107 $108 $36 $-1 $109 reversed single #
loop $-1 $-1 $110 $46 #
plane-surface $-1 134.60594036942683 -29.722214116250807 216.66435916185978 0 -1 0 -0.86602541151947299 0 -0.49999998660252726 forward_v I I I I #
face $-1 $111 $112 $37 $-1 $113 forward single #
loop $-1 $114 $115 $47 #
cone-surface $-1 75.392006888544273 -40.354407407782475 7.1582362335823531 -0.86602541151947299 0 -0.49999998660252726 0.49999998660252726 0 -0.86602541151947299 1 I I 0 1 1 forward I I I I #
face $-1 $116 $117 $38 $-1 $118 forward single #
loop $-1 $119 $120 $48 #
cone-surface $-1 75.392006888544273 -36.367334923458102 7.1582362335823531 -0.86602541151947299 0 -0.49999998660252726 0.49999998660252726 0 -0.86602541151947299 1 I I 0 1 1 forward I I I I #
face $-1 $121 $122 $39 $-1 $123 forward single #
loop $-1 $124 $125 $49 #
cone-surface $-1 75.392006888544273 -32.380262439133723 7.1582362335823531 -0.86602541151947299 0 -0.49999998660252726 0.49999998660252726 0 -0.86602541151947299 1 I I 0 1 1 forward I I I I #
face $-1 $126 $127 $30 $-1 $128 reversed single #
loop $-1 $-1 $129 $50 #
plane-surface $-1 0 0 -10.577105251130577 0 0 1 1 0 0 forward_v I I I I #
coedge $-1 $130 $131 $132 $133 forward $51 $-1 #
face $-1 $134 $135 $31 $-1 $136 reversed single #
loop $-1 $-1 $137 $53 #
plane-surface $-1 0 0 -10.577105251130577 0 0 1 1 0 0 forward_v I I I I #
coedge $-1 $138 $139 $140 $141 forward $54 $-1 #
face $-1 $142 $143 $32 $-1 $144 reversed single #
loop $-1 $-1 $145 $56 #
plane-surface $-1 -77.714774010437367 37.175610389049531 4.9774831547162108 -0.78801076186113728 0 0.61566146476048833 0.61566146476048833 0 0.78801076186113728 forward_v I I I I #
coedge $-1 $146 $147 $148 $149 reversed $57 $-1 #
face $-1 $-1 $150 $33 $-1 $151 forward single #
loop $-1 $152 $153 $59 #
cone-surface $-1 -74.305029880639253 34.196048499887134 6.8223350103876665 0.78801076186113728 0 -0.61566146476048833 0.15391536619012208 0 0.19700269046528432 1 I I -0.70710678118654746 0.70710678118654746 0.25 forward I I I I #
loop $-1 $-1 $154 $43 #
coedge $-1 $96 $96 $155 $156 reversed $60 $-1 #
face $-1 $-1 $157 $34 $-1 $158 forward single #
loop $-1 $159 $160 $62 #
cone-surface $-1 -74.305029880639253 37.175610389049517 6.8223350103876665 0.78801076186113728 0 -0.61566146476048833 0.15391536619012208 0 0.19700269046528432 1 I I -0.70710678118654746 0.70710678118654746 0.25 forward I I I I #
loop $-1 $-1 $161 $44 #
coedge $-1 $101 $101 $162 $163 reversed $63 $-1 #
face $-1 $-1 $164 $35 $-1 $165 forward single #
loop $-1 $166 $167 $65 #
cone-surface $-1 -74.305029880639253 40.1551722782119 6.8223350103876665 0.78801076186113728 0 -0.61566146476048833 0.15391536619012208 0 0.19700269046528432 1 I I -0.70710678118654746 0.70710678118654746 0.25 forward I I I I #
loop $-1 $-1 $168 $45 #
coedge $-1 $106 $106 $169 $170 reversed $66 $-1 #
face $-1 $171 $172 $36 $-1 $173 reversed single #
loop $-1 $-1 $174 $68 #
plane-surface $-1 2.0823631530220155e-006 -36.367334923458102 138.94958723378556 0.86602541151947299 0 0.49999998660252726 0.49999998660252726 0 -0.86602541151947299 forward_v I I I I #
coedge $-1 $175 $176 $177 $178 reversed $69 $-1 #
face $-1 $-1 $179 $37 $-1 $180 forward single #
loop $-1 $181 $182 $71 #
cone-surface $-1 74.43567083426953 -40.354407407782475 6.6060953749371958 -0.86602541151947299 0 -0.49999998660252726 0.24999999330126363 0 -0.43301270575973649 1 I I -0.70710678118654691 0.70710678118654813 0.5 forward I I I I #
loop $-1 $-1 $183 $47 #
coedge $-1 $115 $115 $184 $185 reversed $72 $-1 #
face $-1 $-1 $186 $38 $-1 $187 forward single #
loop $-1 $188 $189 $74 #
cone-surface $-1 74.43567083426953 -36.367334923458102 6.6060953749371958 -0.86602541151947299 0 -0.49999998660252726 0.24999999330126363 0 -0.43301270575973649 1 I I -0.70710678118654691 0.70710678118654813 0.5 forward I I I I #
loop $-1 $-1 $190 $48 #
coedge $-1 $120 $120 $191 $192 reversed $75 $-1 #
face $-1 $-1 $193 $39 $-1 $194 forward single #
loop $-1 $195 $196 $77 #
cone-surface $-1 74.43567083426953 -32.380262439133723 6.6060953749371958 -0.86602541151947299 0 -0.49999998660252726 0.24999999330126363 0 -0.43301270575973649 1 I I -0.70710678118654691 0.70710678118654813 0.5 forward I I I I #
loop $-1 $-1 $197 $49 #
coedge $-1 $125 $125 $198 $199 reversed $78 $-1 #
face $-1 $200 $201 $30 $-1 $202 reversed single #
loop $-1 $-1 $203 $80 #
plane-surface $-1 0 -51.041959288345616 0 0 1 0 0 0 1 forward_v I I I I #
coedge $-1 $204 $205 $206 $207 forward $81 $-1 #
coedge $-1 $208 $83 $209 $210 forward $51 $-1 #
coedge $-1 $83 $208 $211 $212 forward $51 $-1 #
coedge $-1 $213 $214 $83 $133 reversed $215 $-1 #
edge $-1 $216 -51.041959288345616 $217 51.041959288345616 $132 $218 forward 7 unknown #
face $-1 $219 $220 $31 $-1 $221 reversed single #
loop $-1 $-1 $222 $84 #
plane-surface $-1 -69.358608988091845 -59.071462846025838 0 0 1 0 0 0 1 forward_v I I I I #
coedge $-1 $223 $224 $139 $225 forward $85 $-1 #
coedge $-1 $226 $87 $227 $228 reversed $54 $-1 #
coedge $-1 $87 $226 $137 $225 reversed $54 $-1 #
coedge $-1 $229 $230 $87 $141 reversed $220 $-1 #
edge $-1 $231 -10.577105251130577 $232 10.577105251130577 $140 $233 forward 7 unknown #
face $-1 $234 $235 $32 $-1 $236 reversed single #
loop $-1 $-1 $237 $88 #
plane-surface $-1 -200.19493056209905 42.141546870986843 100.66946635630858 0 -1 0 0.78801076186113728 0 -0.61566146476048833 forward_v I I I I #
coedge $-1 $238 $239 $240 $241 reversed $89 $-1 #
coedge $-1 $147 $91 $242 $243 reversed $57 $-1 #
coedge $-1 $91 $146 $238 $244 reversed $57 $-1 #
coedge $-1 $240 $245 $91 $149 forward $246 $-1 #
edge $-1 $247 22.382691270612185 $248 26.757595407506642 $148 $249 forward 7 unknown #
loop $-1 $-1 $155 $92 #
plane-surface $-1 -77.714774010437367 37.175610389049531 4.9774831547162108 -0.78801076186113728 0 0.61566146476048833 0.61566146476048833 0 0.78801076186113728 forward_v I I I I #
loop $-1 $-1 $250 $59 #
coedge $-1 $153 $153 $154 $251 reversed $93 $-1 #
coedge $-1 $154 $154 $153 $251 forward $95 $-1 #
coedge $-1 $155 $155 $96 $156 forward $150 $-1 #
edge $-1 $252 0 $252 6.2831853071796004 $155 $253 forward 7 unknown #
loop $-1 $-1 $162 $97 #
plane-surface $-1 -77.714774010437367 37.175610389049531 4.9774831547162108 -0.78801076186113728 0 0.61566146476048833 0.61566146476048833 0 0.78801076186113728 forward_v I I I I #
loop $-1 $-1 $254 $62 #
coedge $-1 $160 $160 $161 $255 reversed $98 $-1 #
coedge $-1 $161 $161 $160 $255 forward $100 $-1 #
coedge $-1 $162 $162 $101 $163 forward $157 $-1 #
edge $-1 $256 0 $256 6.2831853071796004 $162 $257 forward 7 unknown #
loop $-1 $-1 $169 $102 #
plane-surface $-1 -77.714774010437367 37.175610389049531 4.9774831547162108 -0.78801076186113728 0 0.61566146476048833 0.61566146476048833 0 0.78801076186113728 forward_v I I I I #
loop $-1 $-1 $258 $65 #
coedge $-1 $167 $167 $168 $259 reversed $103 $-1 #
coedge $-1 $168 $168 $167 $259 forward $105 $-1 #
coedge $-1 $169 $169 $106 $170 forward $164 $-1 #
edge $-1 $260 0 $260 6.2831853071796004 $169 $261 forward 7 unknown #
face $-1 $262 $263 $36 $-1 $264 forward single #
loop $-1 $-1 $265 $107 #
plane-surface $-1 134.60594036942683 -43.012455730665394 216.66435916185978 0 1 0 0.86602541151947299 0 0.49999998660252726 forward_v I I I I #
coedge $-1 $266 $267 $268 $269 reversed $108 $-1 #
coedge $-1 $176 $110 $270 $271 reversed $69 $-1 #
coedge $-1 $110 $175 $266 $272 reversed $69 $-1 #
coedge $-1 $268 $273 $110 $178 forward $263 $-1 #
edge $-1 $274 -10.411803825723922 $275 -6.8129162789678048 $177 $276 forward 7 unknown #
loop $-1 $-1 $184 $111 #
plane-surface $-1 2.0823631530220155e-006 -36.367334923458102 138.94958723378556 0.86602541151947299 0 0.49999998660252726 0.49999998660252726 0 -0.86602541151947299 forward_v I I I I #
loop $-1 $-1 $277 $71 #
coedge $-1 $182 $182 $183 $278 reversed $112 $-1 #
coedge $-1 $183 $183 $182 $278 forward $114 $-1 #
coedge $-1 $184 $184 $115 $185 forward $179 $-1 #
edge $-1 $279 0 $279 6.2831853071796004 $184 $280 forward 7 unknown #
loop $-1 $-1 $191 $116 #
plane-surface $-1 2.0823631530220155e-006 -36.367334923458102 138.94958723378556 0.86602541151947299 0 0.49999998660252726 0.49999998660252726 0 -0.86602541151947299 forward_v I I I I #
loop $-1 $-1 $281 $74 #
coedge $-1 $189 $189 $190 $282 reversed $117 $-1 #
coedge $-1 $190 $190 $189 $282 forward $119 $-1 #
coedge $-1 $191 $191 $120 $192 forward $186 $-1 #
edge $-1 $283 0 $283 6.2831853071796004 $191 $284 forward 7 unknown #
loop $-1 $-1 $198 $121 #
plane-surface $-1 2.0823631530220155e-006 -36.367334923458102 138.94958723378556 0.86602541151947299 0 0.49999998660252726 0.49999998660252726 0 -0.86602541151947299 forward_v I I I I #
loop $-1 $-1 $285 $77 #
coedge $-1 $196 $196 $197 $286 reversed $122 $-1 #
coedge $-1 $197 $197 $196 $286 forward $124 $-1 #
coedge $-1 $198 $198 $125 $199 forward $193 $-1 #
edge $-1 $287 0 $287 6.2831853071796004 $198 $288 forward 7 unknown #
face $-1 $289 $290 $30 $-1 $291 reversed single #
loop $-1 $-1 $292 $126 #
plane-surface $-1 -77.714774010437338 0 0 1 0 0 0 0 -1 forward_v I I I I #
coedge $-1 $293 $211 $294 $295 forward $127 $-1 #
coedge $-1 $296 $129 $293 $297 forward $81 $-1 #
coedge $-1 $129 $296 $298 $299 forward $81 $-1 #
coedge $-1 $214 $213 $129 $207 reversed $215 $-1 #
edge $-1 $300 -51.041959288345616 $301 51.041959288345616 $206 $302 forward 7 unknown #
coedge $-1 $131 $130 $303 $304 forward $51 $-1 #
coedge $-1 $305 $306 $130 $210 reversed $290 $-1 #
edge $-1 $217 -77.714774010437338 $307 77.714774010437338 $209 $308 forward 7 unknown #
coedge $-1 $203 $309 $131 $212 reversed $127 $-1 #
edge $-1 $310 -77.714774010437338 $216 77.714774010437338 $211 $311 forward 7 unknown #
coedge $-1 $206 $132 $309 $312 forward $215 $-1 #
coedge $-1 $132 $206 $305 $313 reversed $215 $-1 #
loop $-1 $-1 $213 $289 #
vertex $-1 $133 $314 #
vertex $-1 $133 $315 #
straight-curve $-1 77.714774010437338 0 10.577105251130577 0 1 0 I I #
face $-1 $316 $317 $31 $-1 $318 reversed single #
loop $-1 $-1 $140 $134 #
plane-surface $-1 -72.512114476231432 -55.056711067185731 0 1 0 0 0 0 -1 forward_v I I I I #
coedge $-1 $319 $320 $321 $322 forward $135 $-1 #
coedge $-1 $323 $137 $324 $325 forward $85 $-1 #
coedge $-1 $137 $323 $229 $326 forward $85 $-1 #
edge $-1 $231 -72.512114476231432 $327 -66.205103499952259 $137 $328 forward 7 unknown #
coedge $-1 $139 $138 $329 $330 forward $54 $-1 #
coedge $-1 $331 $332 $138 $228 forward $333 $-1 #
edge $-1 $334 66.205103499952259 $232 72.512114476231432 $227 $335 forward 7 unknown #
coedge $-1 $321 $140 $224 $326 reversed $220 $-1 #
coedge $-1 $140 $321 $331 $336 reversed $220 $-1 #
vertex $-1 $225 $337 #
vertex $-1 $336 $338 #
straight-curve $-1 -72.512114476231432 -51.041959288345616 0 0 0 1 I I #
face $-1 $-1 $246 $32 $-1 $339 forward single #
loop $-1 $-1 $340 $142 #
plane-surface $-1 -77.714774010437338 0 0 1 0 0 0 0 -1 forward_v I I I I #
coedge $-1 $341 $342 $343 $344 reversed $143 $-1 #
coedge $-1 $345 $145 $147 $244 forward $89 $-1 #
coedge $-1 $145 $345 $341 $346 forward $89 $-1 #
coedge $-1 $343 $148 $145 $241 forward $246 $-1 #
edge $-1 $248 13.621868712587453 $347 23.553741676462078 $240 $348 forward 7 unknown #
coedge $-1 $349 $350 $146 $243 forward $235 $-1 #
edge $-1 $351 -45.357250023438041 $247 -39.757627927023712 $242 $352 forward 7 unknown #
edge $-1 $248 -7.1060223634371233 $351 -4.6193811539156697e-014 $147 $353 forward 7 unknown #
coedge $-1 $148 $343 $349 $354 forward $246 $-1 #
loop $-1 $-1 $343 $234 #
vertex $-1 $243 $355 #
vertex $-1 $149 $356 #
straight-curve $-1 -100.09746528104952 32.209673907112219 10.577105251130575 1 0 0 I I #
coedge $-1 $250 $250 $-1 $357 reversed $152 $-1 #
edge $-1 $358 0 $358 6.2831853071796004 $153 $359 forward 7 unknown #
vertex $-1 $156 $360 #
ellipse-curve $-1 -75.52732194199011 34.196048499887134 7.7772942029234073 -0.78801076186113728 0 0.61566146476048833 0.30783073238024417 0 0.39400538093056864 1 I I #
coedge $-1 $254 $254 $-1 $361 reversed $159 $-1 #
edge $-1 $362 0 $362 6.2831853071796004 $160 $363 forward 7 unknown #
vertex $-1 $163 $364 #
ellipse-curve $-1 -75.52732194199011 37.175610389049517 7.7772942029234073 -0.78801076186113728 0 0.61566146476048833 0.30783073238024417 0 0.39400538093056864 1 I I #
coedge $-1 $258 $258 $-1 $365 reversed $166 $-1 #
edge $-1 $366 0 $366 6.2831853071796004 $167 $367 forward 7 unknown #
vertex $-1 $170 $368 #
ellipse-curve $-1 -75.52732194199011 40.1551722782119 7.7772942029234073 -0.78801076186113728 0 0.61566146476048833 0.30783073238024417 0 0.39400538093056864 1 I I #
face $-1 $-1 $369 $36 $-1 $370 reversed single #
loop $-1 $-1 $177 $171 #
plane-surface $-1 0 0 10.577105251130577 0 0 1 1 0 0 forward_v I I I I #
coedge $-1 $371 $372 $373 $374 reversed $172 $-1 #
coedge $-1 $375 $174 $176 $272 forward $108 $-1 #
coedge $-1 $174 $375 $371 $376 forward $108 $-1 #
coedge $-1 $373 $177 $174 $269 forward $263 $-1 #
edge $-1 $275 11.538546654521756 $377 24.828788268936343 $268 $378 forward 7 unknown #
coedge $-1 $379 $380 $175 $271 forward $369 $-1 #
edge $-1 $381 -103.98853063420798 $274 -97.755074329799314 $270 $382 forward 7 unknown #
edge $-1 $275 148.23177273449841 $381 155.42954802087465 $176 $383 forward 7 unknown #
coedge $-1 $177 $373 $379 $384 forward $263 $-1 #
vertex $-1 $178 $385 #
vertex $-1 $178 $386 #
straight-curve $-1 67.302970184713416 -29.722214116250807 10.577105251130575 -1 0 0 I I #
coedge $-1 $277 $277 $-1 $387 reversed $181 $-1 #
edge $-1 $388 0 $388 6.2831853071796004 $182 $389 forward 7 unknown #
vertex $-1 $185 $390 #
ellipse-curve $-1 75.91533023705928 -40.354407407782475 7.4603770989262443 0.86602541151947299 0 0.49999998660252726 0.49999998660252726 0 -0.86602541151947299 1 I I #
coedge $-1 $281 $281 $-1 $391 reversed $188 $-1 #
edge $-1 $392 0 $392 6.2831853071796004 $189 $393 forward 7 unknown #
vertex $-1 $192 $394 #
ellipse-curve $-1 75.91533023705928 -36.367334923458102 7.4603770989262443 0.86602541151947299 0 0.49999998660252726 0.49999998660252726 0 -0.86602541151947299 1 I I #
coedge $-1 $285 $285 $-1 $395 reversed $195 $-1 #
edge $-1 $396 0 $396 6.2831853071796004 $196 $397 forward 7 unknown #
vertex $-1 $199 $398 #
ellipse-curve $-1 75.91533023705928 -32.380262439133723 7.4603770989262443 0.86602541151947299 0 0.49999998660252726 0.49999998660252726 0 -0.86602541151947299 1 I I #
face $-1 $-1 $215 $30 $-1 $399 reversed single #
loop $-1 $-1 $305 $200 #
plane-surface $-1 0 51.041959288345616 0 0 -1 0 0 0 -1 forward_v I I I I #
coedge $-1 $400 $303 $306 $401 forward $201 $-1 #
coedge $-1 $309 $203 $204 $297 reversed $127 $-1 #
coedge $-1 $303 $400 $203 $295 reversed $201 $-1 #
edge $-1 $310 -10.577105251130577 $402 10.577105251130577 $294 $403 forward 7 unknown #
coedge $-1 $205 $204 $400 $404 forward $81 $-1 #
edge $-1 $301 -77.714774010437338 $402 77.714774010437338 $293 $405 forward 7 unknown #
coedge $-1 $306 $305 $205 $299 reversed $290 $-1 #
edge $-1 $406 -77.714774010437338 $300 77.714774010437338 $298 $407 forward 7 unknown #
vertex $-1 $207 $408 #
vertex $-1 $312 $409 #
straight-curve $-1 77.714774010437338 0 -10.577105251130577 0 -1 0 I I #
coedge $-1 $292 $294 $208 $304 reversed $201 $-1 #
edge $-1 $307 -51.041959288345616 $310 51.041959288345616 $303 $410 forward 7 unknown #
coedge $-1 $298 $209 $214 $313 forward $290 $-1 #
coedge $-1 $209 $298 $292 $401 reversed $290 $-1 #
vertex $-1 $210 $411 #
straight-curve $-1 0 51.041959288345616 10.577105251130577 -1 0 0 I I #
coedge $-1 $211 $293 $213 $312 reversed $127 $-1 #
vertex $-1 $304 $412 #
straight-curve $-1 0 -51.041959288345616 10.577105251130577 1 0 0 I I #
edge $-1 $216 -10.577105251130577 $301 10.577105251130577 $213 $413 forward 7 unknown #
edge $-1 $217 -10.577105251130577 $300 10.577105251130577 $214 $414 forward 7 unknown #
point $-1 77.714774010437338 -51.041959288345616 10.577105251130577 #
point $-1 77.714774010437338 51.041959288345616 10.577105251130577 #
face $-1 $-1 $333 $31 $-1 $415 forward single #
loop $-1 $-1 $416 $219 #
plane-surface $-1 -66.205103499952259 -55.056711067185731 0 -1 0 0 0 0 1 forward_v I I I I #
coedge $-1 $417 $222 $323 $418 reversed $135 $-1 #
coedge $-1 $222 $417 $419 $420 reversed $135 $-1 #
coedge $-1 $230 $229 $222 $322 reversed $220 $-1 #
edge $-1 $421 -10.577105251130577 $422 10.577105251130577 $321 $423 forward 7 unknown #
coedge $-1 $224 $223 $319 $418 forward $85 $-1 #
coedge $-1 $329 $416 $223 $325 reversed $317 $-1 #
edge $-1 $327 -4.0147517788401075 $424 4.0147517788401075 $324 $425 forward 7 unknown #
edge $-1 $422 -4.0147517788401075 $231 4.0147517788401075 $229 $426 forward 7 unknown #
vertex $-1 $325 $427 #
straight-curve $-1 0 -51.041959288345616 -10.577105251130577 1 0 0 I I #
coedge $-1 $428 $324 $226 $330 reversed $317 $-1 #
edge $-1 $334 -10.577105251130577 $327 10.577105251130577 $329 $429 forward 7 unknown #
coedge $-1 $419 $227 $230 $336 forward $333 $-1 #
coedge $-1 $227 $419 $428 $430 forward $333 $-1 #
loop $-1 $-1 $227 $316 #
vertex $-1 $228 $431 #
straight-curve $-1 0 -51.041959288345616 10.577105251130577 -1 0 0 I I #
edge $-1 $232 -4.0147517788401075 $421 4.0147517788401075 $230 $432 forward 7 unknown #
point $-1 -72.512114476231432 -51.041959288345623 -10.577105251130577 #
point $-1 -72.512114476231432 -51.041959288345623 10.577105251130577 #
plane-surface $-1 0 0 10.577105251130577 0 0 1 1 0 0 forward_v I I I I #
coedge $-1 $350 $349 $342 $433 forward $235 $-1 #
coedge $-1 $342 $237 $239 $346 reversed $143 $-1 #
coedge $-1 $237 $341 $340 $433 reversed $143 $-1 #
coedge $-1 $245 $240 $237 $344 forward $246 $-1 #
edge $-1 $347 -26.757595407506642 $434 -22.382691270612185 $343 $435 forward 7 unknown #
coedge $-1 $239 $238 $350 $436 reversed $89 $-1 #
edge $-1 $437 4.6193811539156697e-014 $347 7.1060223634371233 $341 $438 forward 7 unknown #
vertex $-1 $241 $439 #
straight-curve $-1 -73.339869873542881 18.587805194524766 10.577105251130575 0 1 0 I I #
coedge $-1 $340 $242 $245 $354 reversed $235 $-1 #
coedge $-1 $242 $340 $345 $436 forward $235 $-1 #
vertex $-1 $243 $440 #
straight-curve $-1 -77.714774010437338 32.209673907112219 50.334733178154288 0 0 1 I I #
straight-curve $-1 -77.714774010437367 32.209673907112219 4.9774831547162108 -0.61566146476048833 0 -0.78801076186113728 I I #
edge $-1 $434 -42.141546870986843 $247 -32.209673907112219 $349 $441 forward 7 unknown #
point $-1 -77.714774010437338 32.209673907112219 10.577105251130577 #
point $-1 -73.339869873542881 32.209673907112219 10.577105251130577 #
edge $-1 $442 1 $442 0 $250 $-1 forward 7 unknown #
vertex $-1 $251 $443 #
ellipse-curve $-1 -74.502032571104536 34.196048499887134 6.9762503765777888 -0.78801076186113728 0 0.61566146476048833 0.30783073238024417 0 0.39400538093056864 1 I I #
point $-1 -75.219491209609842 34.196048499887134 8.1712995838539584 #
edge $-1 $444 1 $444 0 $254 $-1 forward 7 unknown #
vertex $-1 $255 $445 #
ellipse-curve $-1 -74.502032571104536 37.175610389049517 6.9762503765777888 -0.78801076186113728 0 0.61566146476048833 0.30783073238024417 0 0.39400538093056864 1 I I #
point $-1 -75.219491209609842 37.175610389049517 8.1712995838539584 #
edge $-1 $446 1 $446 0 $258 $-1 forward 7 unknown #
vertex $-1 $259 $447 #
ellipse-curve $-1 -74.502032571104536 40.1551722782119 6.9762503765777888 -0.78801076186113728 0 0.61566146476048833 0.30783073238024417 0 0.39400538093056864 1 I I #
point $-1 -75.219491209609842 40.1551722782119 8.1712995838539584 #
loop $-1 $-1 $270 $262 #
plane-surface $-1 77.714774010437338 0 0 -1 0 0 0 0 1 forward_v I I I I #
coedge $-1 $372 $265 $267 $376 reversed $172 $-1 #
coedge $-1 $265 $371 $448 $449 reversed $172 $-1 #
coedge $-1 $273 $268 $265 $374 forward $263 $-1 #
edge $-1 $377 6.8129162789678048 $450 10.411803825723922 $373 $451 forward 7 unknown #
coedge $-1 $267 $266 $380 $452 reversed $108 $-1 #
edge $-1 $453 -155.42954802087465 $377 -148.23177273449841 $371 $454 forward 7 unknown #
vertex $-1 $269 $455 #
straight-curve $-1 74.115886463681221 -18.183667461729051 10.57710525113059 0 -1 0 I I #
coedge $-1 $448 $270 $273 $384 reversed $369 $-1 #
coedge $-1 $270 $448 $375 $452 forward $369 $-1 #
vertex $-1 $271 $456 #
straight-curve $-1 77.714774010437338 -29.722214116250807 108.33217958092989 0 0 1 I I #
straight-curve $-1 2.0823631530220155e-006 -29.722214116250807 138.94958723378556 0.49999998660252726 0 -0.86602541151947299 I I #
edge $-1 $450 -43.012455730665394 $274 -29.722214116250807 $379 $457 forward 7 unknown #
point $-1 77.714774010437338 -29.722214116250807 10.577105251130577 #
point $-1 74.115886463681221 -29.722214116250807 10.577105251130575 #
edge $-1 $458 1 $458 0 $277 $-1 forward 7 unknown #
vertex $-1 $278 $459 #
ellipse-curve $-1 74.868683540029267 -40.354407407782475 6.85609536823846 0.86602541151947299 0 0.49999998660252726 0.49999998660252726 0 -0.86602541151947299 1 I I #
point $-1 76.415330223661812 -40.354407407782475 6.5943516874067729 #
edge $-1 $460 1 $460 0 $281 $-1 forward 7 unknown #
vertex $-1 $282 $461 #
ellipse-curve $-1 74.868683540029267 -36.367334923458102 6.85609536823846 0.86602541151947299 0 0.49999998660252726 0.49999998660252726 0 -0.86602541151947299 1 I I #
point $-1 76.415330223661812 -36.367334923458102 6.5943516874067729 #
edge $-1 $462 1 $462 0 $285 $-1 forward 7 unknown #
vertex $-1 $286 $463 #
ellipse-curve $-1 74.868683540029267 -32.380262439133723 6.85609536823846 0.86602541151947299 0 0.49999998660252726 0.49999998660252726 0 -0.86602541151947299 1 I I #
point $-1 76.415330223661812 -32.380262439133723 6.5943516874067729 #
plane-surface $-1 77.714774010437338 0 0 -1 0 0 0 0 1 forward_v I I I I #
coedge $-1 $294 $292 $296 $404 reversed $201 $-1 #
edge $-1 $307 -10.577105251130577 $406 10.577105251130577 $306 $464 forward 7 unknown #
vertex $-1 $404 $465 #
straight-curve $-1 -77.714774010437338 -51.041959288345616 0 0 0 -1 I I #
edge $-1 $402 -51.041959288345616 $406 51.041959288345616 $400 $466 forward 7 unknown #
straight-curve $-1 0 -51.041959288345616 -10.577105251130577 -1 0 0 I I #
vertex $-1 $299 $467 #
straight-curve $-1 0 51.041959288345616 -10.577105251130577 1 0 0 I I #
point $-1 77.714774010437338 51.041959288345616 -10.577105251130577 #
point $-1 77.714774010437338 -51.041959288345616 -10.577105251130577 #
straight-curve $-1 -77.714774010437338 0 10.577105251130577 0 -1 0 I I #
point $-1 -77.714774010437338 51.041959288345616 10.577105251130577 #
point $-1 -77.714774010437338 -51.041959288345616 10.577105251130577 #
straight-curve $-1 77.714774010437338 -51.041959288345616 0 0 0 -1 I I #
straight-curve $-1 77.714774010437338 51.041959288345616 0 0 0 -1 I I #
plane-surface $-1 0 0 10.577105251130577 0 0 1 1 0 0 forward_v I I I I #
coedge $-1 $324 $428 $417 $468 forward $317 $-1 #
coedge $-1 $320 $319 $416 $468 reversed $135 $-1 #
edge $-1 $424 -3.1535054881395865 $422 3.1535054881395865 $319 $469 forward 7 unknown #
coedge $-1 $332 $331 $320 $420 forward $333 $-1 #
edge $-1 $421 -3.1535054881395865 $470 3.1535054881395865 $320 $471 forward 7 unknown #
vertex $-1 $336 $472 #
vertex $-1 $326 $473 #
straight-curve $-1 -72.512114476231432 -59.071462846025838 0 0 0 -1 I I #
vertex $-1 $468 $474 #
straight-curve $-1 -66.205103499952259 -55.056711067185731 -10.577105251130577 0 -1 0 I I #
straight-curve $-1 -72.512114476231432 -55.056711067185731 -10.577105251130577 0 1 0 I I #
point $-1 -66.205103499952259 -51.041959288345623 -10.577105251130577 #
coedge $-1 $416 $329 $332 $430 reversed $317 $-1 #
straight-curve $-1 -66.205103499952259 -51.041959288345616 0 0 0 -1 I I #
edge $-1 $470 -4.0147517788401075 $334 4.0147517788401075 $428 $475 forward 7 unknown #
point $-1 -66.205103499952259 -51.041959288345623 10.577105251130577 #
straight-curve $-1 -72.512114476231432 -55.056711067185731 10.577105251130577 0 -1 0 I I #
edge $-1 $434 39.757627927023712 $437 45.357250023438041 $340 $476 forward 7 unknown #
vertex $-1 $354 $477 #
straight-curve $-1 -100.09746528104952 42.141546870986843 10.577105251130575 -1 0 0 I I #
edge $-1 $437 -23.553741676462078 $351 -13.621868712587453 $350 $478 forward 7 unknown #
vertex $-1 $436 $479 #
straight-curve $-1 -77.714774010437367 42.141546870986843 4.9774831547162108 0.61566146476048833 0 0.78801076186113728 I I #
point $-1 -73.339869873542881 42.141546870986843 10.577105251130577 #
point $-1 -77.714774010437338 32.209673907112219 4.9774831547162472 #
straight-curve $-1 -77.714774010437338 0 10.577105251130577 0 -1 0 I I #
vertex $-1 $357 $480 #
point $-1 -74.194201838724297 34.196048499887134 7.3702557575083576 #
vertex $-1 $361 $481 #
point $-1 -74.194201838724297 37.175610389049517 7.3702557575083576 #
vertex $-1 $365 $482 #
point $-1 -74.194201838724297 40.1551722782119 7.3702557575083576 #
coedge $-1 $380 $379 $372 $449 forward $369 $-1 #
edge $-1 $450 97.755074329799314 $453 103.98853063420798 $448 $483 forward 7 unknown #
vertex $-1 $384 $484 #
straight-curve $-1 67.302970184713416 -43.012455730665394 10.577105251130575 1 0 0 I I #
edge $-1 $453 -24.828788268936343 $381 -11.538546654521756 $380 $485 forward 7 unknown #
vertex $-1 $452 $486 #
straight-curve $-1 2.0823631530220155e-006 -43.012455730665394 138.94958723378556 -0.49999998660252726 0 0.86602541151947299 I I #
point $-1 74.115886463681221 -43.012455730665394 10.577105251130575 #
point $-1 77.714774010437338 -29.722214116250807 4.3436489467219133 #
straight-curve $-1 77.714774010437338 0 10.577105251130577 0 1 0 I I #
vertex $-1 $387 $487 #
point $-1 75.368683526631798 -40.354407407782475 5.9900699567189868 #
vertex $-1 $391 $488 #
point $-1 75.368683526631798 -36.367334923458102 5.9900699567189868 #
vertex $-1 $395 $489 #
point $-1 75.368683526631798 -32.380262439133723 5.9900699567189868 #
straight-curve $-1 -77.714774010437338 51.041959288345616 0 0 0 -1 I I #
point $-1 -77.714774010437338 -51.041959288345616 -10.577105251130577 #
straight-curve $-1 -77.714774010437338 0 -10.577105251130577 0 1 0 I I #
point $-1 -77.714774010437338 51.041959288345616 -10.577105251130577 #
edge $-1 $470 -10.577105251130577 $424 10.577105251130577 $416 $490 forward 7 unknown #
straight-curve $-1 -69.358608988091845 -59.071462846025838 -10.577105251130577 -1 0 0 I I #
vertex $-1 $430 $491 #
straight-curve $-1 -69.358608988091845 -59.071462846025838 10.577105251130577 1 0 0 I I #
point $-1 -72.512114476231432 -59.071462846025838 10.577105251130577 #
point $-1 -72.512114476231432 -59.071462846025838 -10.577105251130577 #
point $-1 -66.205103499952259 -59.071462846025838 -10.577105251130577 #
straight-curve $-1 -66.205103499952259 -55.056711067185731 10.577105251130577 0 1 0 I I #
straight-curve $-1 -77.714774010437338 42.141546870986843 50.334733178154288 0 0 -1 I I #
point $-1 -77.714774010437338 42.141546870986843 10.577105251130577 #
straight-curve $-1 -77.714774010437338 18.587805194524766 4.977483154716241 0 -1 0 I I #
point $-1 -77.714774010437338 42.141546870986843 4.9774831547162472 #
point $-1 -74.108027190173971 34.196048499887134 6.6684196441975443 #
point $-1 -74.108027190173971 37.175610389049517 6.6684196441975443 #
point $-1 -74.108027190173971 40.1551722782119 6.6684196441975443 #
straight-curve $-1 77.714774010437338 -43.012455730665394 108.33217958092989 0 0 -1 I I #
point $-1 77.714774010437338 -43.012455730665394 10.577105251130577 #
straight-curve $-1 77.714774010437338 -18.183667461729051 4.3436489467219133 0 1 0 I I #
point $-1 77.714774010437338 -43.012455730665394 4.3436489467219133 #
point $-1 74.002658128509793 -40.354407407782475 6.3560953816359316 #
point $-1 74.002658128509793 -36.367334923458102 6.3560953816359316 #
point $-1 74.002658128509793 -32.380262439133723 6.3560953816359316 #
straight-curve $-1 -66.205103499952259 -59.071462846025838 0 0 0 -1 I I #
point $-1 -66.205103499952259 -59.071462846025838 10.577105251130577 #
End-of-ACIS-data 