500 0 10 0           
7 Unknown 11 ACIS 5.0 NT 24 Thu Mar 25 20:22:38 1999 
-1 9.9999999999999995e-007 1e-010 
body $-1 $10 $-1 $11 #
body $-1 $12 $-1 $13 #
body $-1 $14 $-1 $15 #
body $-1 $16 $-1 $17 #
body $-1 $18 $-1 $19 #
body $-1 $20 $-1 $21 #
body $-1 $22 $-1 $23 #
body $-1 $24 $-1 $25 #
body $-1 $26 $-1 $27 #
body $-1 $28 $-1 $29 #
lump $-1 $-1 $30 $0 #
transform $-1 1 0 0 0 1 0 0 0 1 65.61845759453108 27.211624113643808 7.5298476211072058 1 rotate no_reflect no_shear #
lump $-1 $-1 $31 $1 #
transform $-1 1 0 0 0 1 0 0 0 1 65.61845759453108 27.211624113643808 7.5298476211072058 1 rotate no_reflect no_shear #
lump $-1 $-1 $32 $2 #
transform $-1 1 0 0 0 1 0 0 0 1 65.61845759453108 27.211624113643808 7.5298476211072058 1 rotate no_reflect no_shear #
lump $-1 $-1 $33 $3 #
transform $-1 1 0 0 0 1 0 0 0 1 65.61845759453108 27.211624113643808 7.5298476211072058 1 rotate no_reflect no_shear #
lump $-1 $-1 $34 $4 #
transform $-1 1 0 0 0 1 0 0 0 1 65.61845759453108 27.211624113643808 7.5298476211072058 1 rotate no_reflect no_shear #
lump $-1 $-1 $35 $5 #
transform $-1 1 0 0 0 1 0 0 0 1 65.61845759453108 27.211624113643808 7.5298476211072058 1 rotate no_reflect no_shear #
lump $-1 $-1 $36 $6 #
transform $-1 1 0 0 0 1 0 0 0 1 65.61845759453108 27.211624113643808 7.5298476211072058 1 rotate no_reflect no_shear #
lump $-1 $-1 $37 $7 #
transform $-1 1 0 0 0 1 0 0 0 1 65.61845759453108 27.211624113643808 7.5298476211072058 1 rotate no_reflect no_shear #
lump $-1 $-1 $38 $8 #
transform $-1 1 0 0 0 1 0 0 0 1 65.61845759453108 27.211624113643808 7.5298476211072058 1 rotate no_reflect no_shear #
lump $-1 $-1 $39 $9 #
transform $-1 1 0 0 0 1 0 0 0 1 65.61845759453108 27.211624113643808 7.5298476211072058 1 rotate no_reflect no_shear #
shell $-1 $-1 $-1 $40 $-1 $10 #
shell $-1 $-1 $-1 $41 $-1 $12 #
shell $-1 $-1 $-1 $42 $-1 $14 #
shell $-1 $-1 $-1 $43 $-1 $16 #
shell $-1 $-1 $-1 $44 $-1 $18 #
shell $-1 $-1 $-1 $45 $-1 $20 #
shell $-1 $-1 $-1 $46 $-1 $22 #
shell $-1 $-1 $-1 $47 $-1 $24 #
shell $-1 $-1 $-1 $48 $-1 $26 #
shell $-1 $-1 $-1 $49 $-1 $28 #
face $-1 $50 $51 $30 $-1 $52 forward single #
face $-1 $53 $54 $31 $-1 $55 reversed single #
face $-1 $56 $57 $32 $-1 $58 reversed single #
face $-1 $59 $60 $33 $-1 $61 forward single #
face $-1 $62 $63 $34 $-1 $64 forward single #
face $-1 $65 $66 $35 $-1 $67 reversed single #
face $-1 $68 $69 $36 $-1 $70 forward single #
face $-1 $71 $72 $37 $-1 $73 forward single #
face $-1 $74 $75 $38 $-1 $76 reversed single #
face $-1 $77 $78 $39 $-1 $79 forward single #
face $-1 $80 $81 $30 $-1 $82 reversed single #
loop $-1 $-1 $83 $40 #
plane-surface $-1 0 0 7.5298476211072058 0 0 1 1 0 0 forward_v I I I I #
face $-1 $84 $85 $31 $-1 $86 reversed single #
loop $-1 $-1 $87 $41 #
plane-surface $-1 -53.840164559440851 -22.871194465346484 0 1 0 0 0 0 -1 forward_v I I I I #
face $-1 $88 $89 $32 $-1 $90 reversed single #
loop $-1 $-1 $91 $42 #
plane-surface $-1 81.794306573737245 -4.2165038679605473 187.8526543536353 0 -1 0 -0.7660444514056185 0 -0.64278759981090561 forward_v I I I I #
face $-1 $92 $93 $33 $-1 $94 forward single #
loop $-1 $95 $96 $43 #
cone-surface $-1 63.114676308488399 -11.595879636871466 4.7530681431522837 -0.7660444514056185 0 -0.64278759981090561 0.64278759981090561 0 -0.7660444514056185 1 I I 0 1 1 forward I I I I #
face $-1 $97 $98 $34 $-1 $99 forward single #
loop $-1 $100 $101 $44 #
cone-surface $-1 63.114676308488399 -7.1682541755249147 4.7530681431522837 -0.7660444514056185 0 -0.64278759981090561 0.64278759981090561 0 -0.7660444514056185 1 I I 0 1 1 forward I I I I #
face $-1 $102 $103 $35 $-1 $104 reversed single #
loop $-1 $-1 $105 $45 #
plane-surface $-1 81.794306573737245 18.654690597385937 187.8526543536353 0 -1 0 -0.7660444514056185 0 -0.64278759981090561 forward_v I I I I #
face $-1 $106 $107 $36 $-1 $108 forward single #
loop $-1 $109 $110 $46 #
cone-surface $-1 63.114676308488399 11.275314828475018 4.7530681431522837 -0.7660444514056185 0 -0.64278759981090561 0.64278759981090561 0 -0.7660444514056185 1 I I 0 1 1 forward I I I I #
face $-1 $111 $112 $37 $-1 $113 forward single #
loop $-1 $114 $115 $47 #
cone-surface $-1 63.114676308488399 15.702940289821569 4.7530681431522837 -0.7660444514056185 0 -0.64278759981090561 0.64278759981090561 0 -0.7660444514056185 1 I I 0 1 1 forward I I I I #
face $-1 $116 $117 $38 $-1 $118 reversed single #
loop $-1 $-1 $119 $48 #
plane-surface $-1 -174.41879225209462 9.2892753992472485 77.46011535697555 0 1 0 -0.82903758062907751 0 0.55919289150049634 forward_v I I I I #
face $-1 $120 $121 $39 $-1 $122 forward single #
loop $-1 $123 $124 $49 #
cone-surface $-1 -63.810598758974365 16.093008560224327 5.3684738668131455 0.82903758062907751 0 -0.55919289150049634 0.27959644575024817 0 0.41451879031453875 1 I I 0 1 0.5 forward I I I I #
face $-1 $125 $126 $30 $-1 $127 reversed single #
loop $-1 $-1 $128 $50 #
plane-surface $-1 0 0 -7.5298476211072058 0 0 1 1 0 0 forward_v I I I I #
coedge $-1 $129 $130 $131 $132 forward $51 $-1 #
face $-1 $133 $134 $31 $-1 $135 reversed single #
loop $-1 $-1 $136 $53 #
plane-surface $-1 -52.199463455878757 -18.53076481704916 0 0 -1 0 0 0 -1 forward_v I I I I #
coedge $-1 $137 $138 $139 $140 forward $54 $-1 #
face $-1 $141 $142 $32 $-1 $143 reversed single #
loop $-1 $-1 $144 $56 #
plane-surface $-1 -18.739004126433557 -9.3820669061981903 103.49519263267065 0.7660444514056185 0 0.64278759981090561 0.64278759981090561 0 -0.7660444514056185 forward_v I I I I #
coedge $-1 $145 $146 $147 $148 reversed $57 $-1 #
face $-1 $-1 $149 $33 $-1 $150 forward single #
loop $-1 $151 $152 $59 #
cone-surface $-1 62.144361908837396 -11.595879636871466 3.9388777095956042 -0.7660444514056185 0 -0.64278759981090561 0.3213937999054528 0 -0.38302222570280925 1 I I -0.70710678118654724 0.70710678118654791 0.5 forward I I I I #
loop $-1 $-1 $153 $43 #
coedge $-1 $96 $96 $154 $155 reversed $60 $-1 #
face $-1 $-1 $156 $34 $-1 $157 forward single #
loop $-1 $158 $159 $62 #
cone-surface $-1 62.144361908837396 -7.1682541755249147 3.9388777095956042 -0.7660444514056185 0 -0.64278759981090561 0.3213937999054528 0 -0.38302222570280925 1 I I -0.70710678118654724 0.70710678118654791 0.5 forward I I I I #
loop $-1 $-1 $160 $44 #
coedge $-1 $101 $101 $161 $162 reversed $63 $-1 #
face $-1 $163 $164 $35 $-1 $165 reversed single #
loop $-1 $-1 $166 $65 #
plane-surface $-1 -18.739004126433557 13.489127559148294 103.49519263267065 0.7660444514056185 0 0.64278759981090561 0.64278759981090561 0 -0.7660444514056185 forward_v I I I I #
coedge $-1 $167 $168 $169 $170 reversed $66 $-1 #
face $-1 $-1 $171 $36 $-1 $172 forward single #
loop $-1 $173 $174 $68 #
cone-surface $-1 62.144361908837396 11.275314828475018 3.9388777095956042 -0.7660444514056185 0 -0.64278759981090561 0.3213937999054528 0 -0.38302222570280925 1 I I -0.70710678118654724 0.70710678118654791 0.5 forward I I I I #
loop $-1 $-1 $175 $46 #
coedge $-1 $110 $110 $176 $177 reversed $69 $-1 #
face $-1 $-1 $178 $37 $-1 $179 forward single #
loop $-1 $180 $181 $71 #
cone-surface $-1 62.144361908837396 15.702940289821569 3.9388777095956042 -0.7660444514056185 0 -0.64278759981090561 0.3213937999054528 0 -0.38302222570280925 1 I I -0.70710678118654724 0.70710678118654791 0.5 forward I I I I #
loop $-1 $-1 $182 $47 #
coedge $-1 $115 $115 $183 $184 reversed $72 $-1 #
face $-1 $185 $186 $38 $-1 $187 reversed single #
loop $-1 $-1 $188 $74 #
plane-surface $-1 -65.618457594531094 16.093008560224334 4.0733652807984697 -0.82903758062907751 0 0.55919289150049634 0.55919289150049634 0 0.82903758062907751 forward_v I I I I #
coedge $-1 $189 $190 $191 $192 reversed $75 $-1 #
face $-1 $-1 $193 $39 $-1 $194 forward single #
loop $-1 $195 $196 $77 #
cone-surface $-1 -62.961193880380677 16.093008560224327 4.795543059798324 0.82903758062907751 0 -0.55919289150049634 0.13979822287512408 0 0.20725939515726938 1 I I -0.70710678118654746 0.70710678118654746 0.25 forward I I I I #
loop $-1 $-1 $197 $49 #
coedge $-1 $124 $124 $198 $199 reversed $78 $-1 #
face $-1 $200 $201 $30 $-1 $202 reversed single #
loop $-1 $-1 $203 $80 #
plane-surface $-1 0 -27.211624113643808 0 0 1 0 0 0 1 forward_v I I I I #
coedge $-1 $204 $205 $206 $207 forward $81 $-1 #
coedge $-1 $208 $83 $209 $210 forward $51 $-1 #
coedge $-1 $83 $208 $211 $212 forward $51 $-1 #
coedge $-1 $213 $214 $83 $132 reversed $215 $-1 #
edge $-1 $216 -27.211624113643808 $217 27.211624113643808 $131 $218 forward 7 unknown #
face $-1 $219 $220 $31 $-1 $221 forward single #
loop $-1 $-1 $222 $84 #
plane-surface $-1 -50.558762352316663 -22.871194465346484 0 -1 0 0 0 0 1 forward_v I I I I #
coedge $-1 $223 $224 $225 $226 forward $85 $-1 #
coedge $-1 $227 $87 $228 $229 reversed $54 $-1 #
coedge $-1 $87 $227 $230 $231 reversed $54 $-1 #
coedge $-1 $224 $223 $87 $140 reversed $85 $-1 #
edge $-1 $232 -7.5298476211072058 $233 7.5298476211072058 $139 $234 forward 7 unknown #
face $-1 $235 $236 $32 $-1 $237 reversed single #
loop $-1 $-1 $238 $88 #
plane-surface $-1 81.794306573737245 -14.547629944435833 187.8526543536353 0 1 0 0.7660444514056185 0 0.64278759981090561 forward_v I I I I #
coedge $-1 $239 $240 $241 $242 reversed $89 $-1 #
coedge $-1 $146 $91 $243 $244 reversed $57 $-1 #
coedge $-1 $91 $145 $239 $245 reversed $57 $-1 #
coedge $-1 $241 $246 $91 $148 forward $247 $-1 #
edge $-1 $248 -24.721304307662457 $249 -20.888326083473537 $147 $250 forward 7 unknown #
loop $-1 $-1 $154 $92 #
plane-surface $-1 -18.739004126433557 -9.3820669061981903 103.49519263267065 0.7660444514056185 0 0.64278759981090561 0.64278759981090561 0 -0.7660444514056185 forward_v I I I I #
loop $-1 $-1 $251 $59 #
coedge $-1 $152 $152 $153 $252 reversed $93 $-1 #
coedge $-1 $153 $153 $152 $252 forward $95 $-1 #
coedge $-1 $154 $154 $96 $155 forward $149 $-1 #
edge $-1 $253 0 $253 6.2831853071796004 $154 $254 forward 7 unknown #
loop $-1 $-1 $161 $97 #
plane-surface $-1 -18.739004126433557 -9.3820669061981903 103.49519263267065 0.7660444514056185 0 0.64278759981090561 0.64278759981090561 0 -0.7660444514056185 forward_v I I I I #
loop $-1 $-1 $255 $62 #
coedge $-1 $159 $159 $160 $256 reversed $98 $-1 #
coedge $-1 $160 $160 $159 $256 forward $100 $-1 #
coedge $-1 $161 $161 $101 $162 forward $156 $-1 #
edge $-1 $257 0 $257 6.2831853071796004 $161 $258 forward 7 unknown #
face $-1 $259 $260 $35 $-1 $261 reversed single #
loop $-1 $-1 $262 $102 #
plane-surface $-1 81.794306573737245 8.3235645209106508 187.8526543536353 0 1 0 0.7660444514056185 0 0.64278759981090561 forward_v I I I I #
coedge $-1 $263 $264 $265 $266 reversed $103 $-1 #
coedge $-1 $168 $105 $267 $268 reversed $66 $-1 #
coedge $-1 $105 $167 $263 $269 reversed $66 $-1 #
coedge $-1 $265 $270 $105 $170 forward $271 $-1 #
edge $-1 $272 -24.721304307662457 $273 -20.888326083473537 $169 $274 forward 7 unknown #
loop $-1 $-1 $176 $106 #
plane-surface $-1 -18.739004126433557 13.489127559148294 103.49519263267065 0.7660444514056185 0 0.64278759981090561 0.64278759981090561 0 -0.7660444514056185 forward_v I I I I #
loop $-1 $-1 $275 $68 #
coedge $-1 $174 $174 $175 $276 reversed $107 $-1 #
coedge $-1 $175 $175 $174 $276 forward $109 $-1 #
coedge $-1 $176 $176 $110 $177 forward $171 $-1 #
edge $-1 $277 0 $277 6.2831853071796004 $176 $278 forward 7 unknown #
loop $-1 $-1 $183 $111 #
plane-surface $-1 -18.739004126433557 13.489127559148294 103.49519263267065 0.7660444514056185 0 0.64278759981090561 0.64278759981090561 0 -0.7660444514056185 forward_v I I I I #
loop $-1 $-1 $279 $71 #
coedge $-1 $181 $181 $182 $280 reversed $112 $-1 #
coedge $-1 $182 $182 $181 $280 forward $114 $-1 #
coedge $-1 $183 $183 $115 $184 forward $178 $-1 #
edge $-1 $281 0 $281 6.2831853071796004 $183 $282 forward 7 unknown #
face $-1 $283 $284 $38 $-1 $285 reversed single #
loop $-1 $-1 $286 $116 #
plane-surface $-1 -174.41879225209462 22.896741721201419 77.46011535697555 0 -1 0 0.82903758062907751 0 -0.55919289150049634 forward_v I I I I #
coedge $-1 $287 $288 $289 $290 reversed $117 $-1 #
coedge $-1 $190 $119 $291 $292 reversed $75 $-1 #
coedge $-1 $119 $189 $287 $293 reversed $75 $-1 #
coedge $-1 $289 $294 $119 $192 forward $295 $-1 #
edge $-1 $296 21.59093853151623 $297 23.922365235756807 $191 $298 forward 7 unknown #
loop $-1 $-1 $198 $120 #
plane-surface $-1 -65.618457594531094 16.093008560224334 4.0733652807984697 -0.82903758062907751 0 0.55919289150049634 0.55919289150049634 0 0.82903758062907751 forward_v I I I I #
loop $-1 $-1 $299 $77 #
coedge $-1 $196 $196 $197 $300 reversed $121 $-1 #
coedge $-1 $197 $197 $196 $300 forward $123 $-1 #
coedge $-1 $198 $198 $124 $199 forward $193 $-1 #
edge $-1 $301 0 $301 6.2831853071796004 $198 $302 forward 7 unknown #
face $-1 $303 $304 $30 $-1 $305 reversed single #
loop $-1 $-1 $306 $125 #
plane-surface $-1 -65.61845759453108 0 0 1 0 0 0 0 -1 forward_v I I I I #
coedge $-1 $307 $211 $308 $309 forward $126 $-1 #
coedge $-1 $310 $128 $307 $311 forward $81 $-1 #
coedge $-1 $128 $310 $312 $313 forward $81 $-1 #
coedge $-1 $214 $213 $128 $207 reversed $215 $-1 #
edge $-1 $314 -27.211624113643808 $315 27.211624113643808 $206 $316 forward 7 unknown #
coedge $-1 $130 $129 $317 $318 forward $51 $-1 #
coedge $-1 $319 $320 $129 $210 reversed $304 $-1 #
edge $-1 $217 -65.61845759453108 $321 65.61845759453108 $209 $322 forward 7 unknown #
coedge $-1 $203 $323 $130 $212 reversed $126 $-1 #
edge $-1 $324 -65.61845759453108 $216 65.61845759453108 $211 $325 forward 7 unknown #
coedge $-1 $206 $131 $323 $326 forward $215 $-1 #
coedge $-1 $131 $206 $319 $327 reversed $215 $-1 #
loop $-1 $-1 $213 $303 #
vertex $-1 $132 $328 #
vertex $-1 $132 $329 #
straight-curve $-1 65.61845759453108 0 7.5298476211072058 0 1 0 I I #
face $-1 $330 $331 $31 $-1 $332 reversed single #
loop $-1 $-1 $333 $133 #
plane-surface $-1 0 0 7.5298476211072058 0 0 1 1 0 0 forward_v I I I I #
coedge $-1 $334 $335 $336 $337 reversed $134 $-1 #
coedge $-1 $139 $136 $338 $339 reversed $85 $-1 #
coedge $-1 $136 $139 $340 $341 reversed $85 $-1 #
coedge $-1 $335 $334 $136 $226 reversed $134 $-1 #
edge $-1 $342 -7.5298476211072058 $343 7.5298476211072058 $225 $344 forward 7 unknown #
coedge $-1 $138 $137 $345 $346 reversed $54 $-1 #
coedge $-1 $338 $347 $137 $229 forward $331 $-1 #
edge $-1 $348 -15.776026880970566 $233 -7.0951675843759183 $228 $349 forward 7 unknown #
coedge $-1 $350 $340 $138 $231 forward $220 $-1 #
edge $-1 $232 7.0951675843759183 $351 15.776026880970566 $230 $352 forward 7 unknown #
vertex $-1 $231 $353 #
vertex $-1 $229 $354 #
straight-curve $-1 -53.840164559440851 -18.53076481704916 0 0 0 -1 I I #
face $-1 $-1 $247 $32 $-1 $355 forward single #
loop $-1 $-1 $356 $141 #
plane-surface $-1 65.61845759453108 0 0 -1 0 0 0 0 1 forward_v I I I I #
coedge $-1 $357 $358 $359 $360 reversed $142 $-1 #
coedge $-1 $361 $144 $146 $245 forward $89 $-1 #
coedge $-1 $144 $361 $357 $362 forward $89 $-1 #
coedge $-1 $359 $147 $144 $242 forward $247 $-1 #
edge $-1 $249 -0.47452958513854782 $363 9.8565964913367381 $241 $364 forward 7 unknown #
coedge $-1 $365 $366 $145 $244 forward $236 $-1 #
edge $-1 $367 -90.964445244317801 $248 -86.396479555710442 $243 $368 forward 7 unknown #
edge $-1 $249 125.27385954623941 $367 131.23691518906219 $146 $369 forward 7 unknown #
coedge $-1 $147 $359 $365 $370 forward $247 $-1 #
loop $-1 $-1 $359 $235 #
vertex $-1 $244 $371 #
vertex $-1 $148 $372 #
straight-curve $-1 40.897153286868623 -4.2165038679605473 7.5298476211072085 -1 0 0 I I #
coedge $-1 $251 $251 $-1 $373 reversed $151 $-1 #
edge $-1 $374 0 $374 6.2831853071796004 $152 $375 forward 7 unknown #
vertex $-1 $155 $376 #
ellipse-curve $-1 63.701968482436627 -11.595879636871466 5.245864776803538 0.7660444514056185 0 0.64278759981090561 0.64278759981090561 0 -0.7660444514056185 1 I I #
coedge $-1 $255 $255 $-1 $377 reversed $158 $-1 #
edge $-1 $378 0 $378 6.2831853071796004 $159 $379 forward 7 unknown #
vertex $-1 $162 $380 #
ellipse-curve $-1 63.701968482436627 -7.1682541755249147 5.245864776803538 0.7660444514056185 0 0.64278759981090561 0.64278759981090561 0 -0.7660444514056185 1 I I #
face $-1 $-1 $271 $35 $-1 $381 forward single #
loop $-1 $-1 $382 $163 #
plane-surface $-1 65.61845759453108 0 0 -1 0 0 0 0 1 forward_v I I I I #
coedge $-1 $383 $384 $385 $386 reversed $164 $-1 #
coedge $-1 $387 $166 $168 $269 forward $103 $-1 #
coedge $-1 $166 $387 $383 $388 forward $103 $-1 #
coedge $-1 $385 $169 $166 $266 forward $271 $-1 #
edge $-1 $273 -11.91012681781179 $389 -1.5790007413365039 $265 $390 forward 7 unknown #
coedge $-1 $391 $392 $167 $268 forward $260 $-1 #
edge $-1 $393 -90.964445244317801 $272 -86.396479555710442 $267 $394 forward 7 unknown #
edge $-1 $273 125.27385954623941 $393 131.23691518906219 $168 $395 forward 7 unknown #
coedge $-1 $169 $385 $391 $396 forward $271 $-1 #
loop $-1 $-1 $385 $259 #
vertex $-1 $268 $397 #
vertex $-1 $170 $398 #
straight-curve $-1 40.897153286868623 18.654690597385937 7.5298476211072085 -1 0 0 I I #
coedge $-1 $275 $275 $-1 $399 reversed $173 $-1 #
edge $-1 $400 0 $400 6.2831853071796004 $174 $401 forward 7 unknown #
vertex $-1 $177 $402 #
ellipse-curve $-1 63.701968482436627 11.275314828475018 5.245864776803538 0.7660444514056185 0 0.64278759981090561 0.64278759981090561 0 -0.7660444514056185 1 I I #
coedge $-1 $279 $279 $-1 $403 reversed $180 $-1 #
edge $-1 $404 0 $404 6.2831853071796004 $181 $405 forward 7 unknown #
vertex $-1 $184 $406 #
ellipse-curve $-1 63.701968482436627 15.702940289821569 5.245864776803538 0.7660444514056185 0 0.64278759981090561 0.64278759981090561 0 -0.7660444514056185 1 I I #
face $-1 $-1 $295 $38 $-1 $407 forward single #
loop $-1 $-1 $408 $185 #
plane-surface $-1 -65.61845759453108 0 0 1 0 0 0 0 -1 forward_v I I I I #
coedge $-1 $409 $410 $411 $412 reversed $186 $-1 #
coedge $-1 $413 $188 $190 $293 forward $117 $-1 #
coedge $-1 $188 $413 $409 $414 forward $117 $-1 #
coedge $-1 $411 $191 $188 $290 forward $295 $-1 #
edge $-1 $297 1.2427711191350816 $415 14.850237441089252 $289 $416 forward 7 unknown #
coedge $-1 $417 $418 $189 $292 forward $284 $-1 #
edge $-1 $419 -34.656692397689284 $296 -31.20021005738057 $291 $420 forward 7 unknown #
edge $-1 $297 -4.1692709969624548 $419 -2.5618607856530852e-014 $190 $421 forward 7 unknown #
coedge $-1 $191 $411 $417 $422 forward $295 $-1 #
loop $-1 $-1 $411 $283 #
vertex $-1 $292 $423 #
vertex $-1 $192 $424 #
straight-curve $-1 -87.209396126047309 9.2892753992472485 7.5298476211072085 1 0 0 I I #
coedge $-1 $299 $299 $-1 $425 reversed $195 $-1 #
edge $-1 $426 0 $426 6.2831853071796004 $196 $427 forward 7 unknown #
vertex $-1 $199 $428 #
ellipse-curve $-1 -64.452744242410787 16.093008560224327 5.801606450952848 -0.82903758062907751 0 0.55919289150049634 0.27959644575024817 0 0.41451879031453875 1 I I #
face $-1 $-1 $215 $30 $-1 $429 reversed single #
loop $-1 $-1 $319 $200 #
plane-surface $-1 0 27.211624113643808 0 0 -1 0 0 0 -1 forward_v I I I I #
coedge $-1 $430 $317 $320 $431 forward $201 $-1 #
coedge $-1 $323 $203 $204 $311 reversed $126 $-1 #
coedge $-1 $317 $430 $203 $309 reversed $201 $-1 #
edge $-1 $324 -7.5298476211072058 $432 7.5298476211072058 $308 $433 forward 7 unknown #
coedge $-1 $205 $204 $430 $434 forward $81 $-1 #
edge $-1 $315 -65.61845759453108 $432 65.61845759453108 $307 $435 forward 7 unknown #
coedge $-1 $320 $319 $205 $313 reversed $304 $-1 #
edge $-1 $436 -65.61845759453108 $314 65.61845759453108 $312 $437 forward 7 unknown #
vertex $-1 $207 $438 #
vertex $-1 $326 $439 #
straight-curve $-1 65.61845759453108 0 -7.5298476211072058 0 -1 0 I I #
coedge $-1 $306 $308 $208 $318 reversed $201 $-1 #
edge $-1 $321 -27.211624113643808 $324 27.211624113643808 $317 $440 forward 7 unknown #
coedge $-1 $312 $209 $214 $327 forward $304 $-1 #
coedge $-1 $209 $312 $306 $431 reversed $304 $-1 #
vertex $-1 $210 $441 #
straight-curve $-1 0 27.211624113643808 7.5298476211072058 -1 0 0 I I #
coedge $-1 $211 $307 $213 $326 reversed $126 $-1 #
vertex $-1 $318 $442 #
straight-curve $-1 0 -27.211624113643808 7.5298476211072058 1 0 0 I I #
edge $-1 $216 -7.5298476211072058 $315 7.5298476211072058 $213 $443 forward 7 unknown #
edge $-1 $217 -7.5298476211072058 $314 7.5298476211072058 $214 $444 forward 7 unknown #
point $-1 65.61845759453108 -27.211624113643808 7.5298476211072058 #
point $-1 65.61845759453108 27.211624113643808 7.5298476211072058 #
face $-1 $-1 $445 $31 $-1 $446 reversed single #
loop $-1 $-1 $447 $219 #
plane-surface $-1 0 0 -7.5298476211072058 0 0 1 1 0 0 forward_v I I I I #
coedge $-1 $340 $350 $335 $448 forward $220 $-1 #
coedge $-1 $225 $222 $447 $449 reversed $134 $-1 #
coedge $-1 $222 $225 $333 $448 reversed $134 $-1 #
coedge $-1 $450 $451 $222 $337 forward $445 $-1 #
edge $-1 $452 -7.5298476211072058 $453 7.5298476211072058 $336 $454 forward 7 unknown #
coedge $-1 $447 $228 $223 $339 forward $331 $-1 #
edge $-1 $233 -27.740432831501472 $343 -24.459030624377284 $338 $455 forward 7 unknown #
coedge $-1 $230 $333 $224 $341 forward $220 $-1 #
edge $-1 $342 24.459030624377284 $232 27.740432831501472 $340 $456 forward 7 unknown #
vertex $-1 $341 $457 #
vertex $-1 $339 $458 #
straight-curve $-1 -50.558762352316663 -18.53076481704916 0 0 0 -1 I I #
coedge $-1 $451 $450 $227 $346 forward $445 $-1 #
edge $-1 $351 -7.5298476211072058 $348 7.5298476211072058 $345 $459 forward 7 unknown #
coedge $-1 $228 $447 $451 $460 forward $331 $-1 #
vertex $-1 $229 $461 #
straight-curve $-1 -53.840164559440851 -11.435597232673242 -7.5298476211072058 0 1 0 I I #
coedge $-1 $333 $230 $450 $462 forward $220 $-1 #
vertex $-1 $462 $463 #
straight-curve $-1 -53.840164559440851 -11.435597232673242 7.5298476211072058 0 -1 0 I I #
point $-1 -53.840164559440851 -18.53076481704916 7.5298476211072058 #
point $-1 -53.840164559440851 -18.53076481704916 -7.5298476211072058 #
plane-surface $-1 0 0 7.5298476211072058 0 0 1 1 0 0 forward_v I I I I #
coedge $-1 $366 $365 $358 $464 forward $236 $-1 #
coedge $-1 $358 $238 $240 $362 reversed $142 $-1 #
coedge $-1 $238 $357 $356 $464 reversed $142 $-1 #
coedge $-1 $246 $241 $238 $360 forward $247 $-1 #
edge $-1 $363 20.888326083473537 $465 24.721304307662457 $359 $466 forward 7 unknown #
coedge $-1 $240 $239 $366 $467 reversed $89 $-1 #
edge $-1 $468 -131.23691518906219 $363 -125.27385954623941 $357 $469 forward 7 unknown #
vertex $-1 $242 $470 #
straight-curve $-1 61.785479370342159 -4.6910334530990951 7.5298476211072014 0 -1 0 I I #
coedge $-1 $356 $243 $246 $370 reversed $236 $-1 #
coedge $-1 $243 $356 $361 $467 forward $236 $-1 #
vertex $-1 $244 $471 #
straight-curve $-1 65.61845759453108 -4.2165038679605473 93.926327176817651 0 0 1 I I #
straight-curve $-1 -18.739004126433557 -4.2165038679605473 103.49519263267065 0.64278759981090561 0 -0.7660444514056185 I I #
edge $-1 $465 -14.547629944435833 $248 -4.2165038679605473 $365 $472 forward 7 unknown #
point $-1 65.61845759453108 -4.2165038679605473 7.5298476211072058 #
point $-1 61.785479370342159 -4.2165038679605473 7.5298476211072085 #
edge $-1 $473 1 $473 0 $251 $-1 forward 7 unknown #
vertex $-1 $252 $474 #
ellipse-curve $-1 62.527384134540206 -11.595879636871466 4.2602715095010577 0.7660444514056185 0 0.64278759981090561 0.64278759981090561 0 -0.7660444514056185 1 I I #
point $-1 64.3447560822475 -11.595879636871466 4.4798203253978919 #
edge $-1 $475 1 $475 0 $255 $-1 forward 7 unknown #
vertex $-1 $256 $476 #
ellipse-curve $-1 62.527384134540206 -7.1682541755249147 4.2602715095010577 0.7660444514056185 0 0.64278759981090561 0.64278759981090561 0 -0.7660444514056185 1 I I #
point $-1 64.3447560822475 -7.1682541755249147 4.4798203253978919 #
plane-surface $-1 0 0 7.5298476211072058 0 0 1 1 0 0 forward_v I I I I #
coedge $-1 $392 $391 $384 $477 forward $260 $-1 #
coedge $-1 $384 $262 $264 $388 reversed $164 $-1 #
coedge $-1 $262 $383 $382 $477 reversed $164 $-1 #
coedge $-1 $270 $265 $262 $386 forward $271 $-1 #
edge $-1 $389 20.888326083473537 $478 24.721304307662457 $385 $479 forward 7 unknown #
coedge $-1 $264 $263 $392 $480 reversed $103 $-1 #
edge $-1 $481 -131.23691518906219 $389 -125.27385954623941 $383 $482 forward 7 unknown #
vertex $-1 $266 $483 #
straight-curve $-1 61.785479370342159 6.7445637795741469 7.5298476211072014 0 -1 0 I I #
coedge $-1 $382 $267 $270 $396 reversed $260 $-1 #
coedge $-1 $267 $382 $387 $480 forward $260 $-1 #
vertex $-1 $268 $484 #
straight-curve $-1 65.61845759453108 18.654690597385937 93.926327176817651 0 0 1 I I #
straight-curve $-1 -18.739004126433557 18.654690597385937 103.49519263267065 0.64278759981090561 0 -0.7660444514056185 I I #
edge $-1 $478 8.3235645209106508 $272 18.654690597385937 $391 $485 forward 7 unknown #
point $-1 65.61845759453108 18.654690597385937 7.5298476211072058 #
point $-1 61.785479370342159 18.654690597385937 7.5298476211072085 #
edge $-1 $486 1 $486 0 $275 $-1 forward 7 unknown #
vertex $-1 $276 $487 #
ellipse-curve $-1 62.527384134540206 11.275314828475018 4.2602715095010577 0.7660444514056185 0 0.64278759981090561 0.64278759981090561 0 -0.7660444514056185 1 I I #
point $-1 64.3447560822475 11.275314828475018 4.4798203253978919 #
edge $-1 $488 1 $488 0 $279 $-1 forward 7 unknown #
vertex $-1 $280 $489 #
ellipse-curve $-1 62.527384134540206 15.702940289821569 4.2602715095010577 0.7660444514056185 0 0.64278759981090561 0.64278759981090561 0 -0.7660444514056185 1 I I #
point $-1 64.3447560822475 15.702940289821569 4.4798203253978919 #
plane-surface $-1 0 0 7.5298476211072058 0 0 1 1 0 0 forward_v I I I I #
coedge $-1 $418 $417 $410 $490 forward $284 $-1 #
coedge $-1 $410 $286 $288 $414 reversed $186 $-1 #
coedge $-1 $286 $409 $408 $490 reversed $186 $-1 #
coedge $-1 $294 $289 $286 $412 forward $295 $-1 #
edge $-1 $415 -23.922365235756807 $491 -21.59093853151623 $411 $492 forward 7 unknown #
coedge $-1 $288 $287 $418 $493 reversed $117 $-1 #
edge $-1 $494 2.5618607856530852e-014 $415 4.1692709969624548 $409 $495 forward 7 unknown #
vertex $-1 $290 $496 #
straight-curve $-1 -63.287030890290502 8.0465042801121669 7.5298476211072067 0 1 0 I I #
coedge $-1 $408 $291 $294 $422 reversed $284 $-1 #
coedge $-1 $291 $408 $413 $493 forward $284 $-1 #
vertex $-1 $292 $497 #
straight-curve $-1 -65.61845759453108 9.2892753992472485 38.730057678487775 0 0 1 I I #
straight-curve $-1 -65.618457594531094 9.2892753992472485 4.0733652807984697 -0.55919289150049634 0 -0.82903758062907751 I I #
edge $-1 $491 -22.896741721201419 $296 -9.2892753992472485 $417 $498 forward 7 unknown #
point $-1 -65.61845759453108 9.2892753992472485 7.5298476211072058 #
point $-1 -63.287030890290502 9.2892753992472485 7.5298476211072058 #
edge $-1 $499 1 $499 0 $299 $-1 forward 7 unknown #
vertex $-1 $300 $500 #
ellipse-curve $-1 -63.168453275537949 16.093008560224327 4.9353412826734484 -0.82903758062907751 0 0.55919289150049634 0.27959644575024817 0 0.41451879031453875 1 I I #
point $-1 -64.17314779666053 16.093008560224327 6.216125241267382 #
plane-surface $-1 65.61845759453108 0 0 -1 0 0 0 0 1 forward_v I I I I #
coedge $-1 $308 $306 $310 $434 reversed $201 $-1 #
edge $-1 $321 -7.5298476211072058 $436 7.5298476211072058 $320 $501 forward 7 unknown #
vertex $-1 $434 $502 #
straight-curve $-1 -65.61845759453108 -27.211624113643808 0 0 0 -1 I I #
edge $-1 $432 -27.211624113643808 $436 27.211624113643808 $430 $503 forward 7 unknown #
straight-curve $-1 0 -27.211624113643808 -7.5298476211072058 -1 0 0 I I #
vertex $-1 $313 $504 #
straight-curve $-1 0 27.211624113643808 -7.5298476211072058 1 0 0 I I #
point $-1 65.61845759453108 27.211624113643808 -7.5298476211072058 #
point $-1 65.61845759453108 -27.211624113643808 -7.5298476211072058 #
straight-curve $-1 -65.61845759453108 0 7.5298476211072058 0 -1 0 I I #
point $-1 -65.61845759453108 27.211624113643808 7.5298476211072058 #
point $-1 -65.61845759453108 -27.211624113643808 7.5298476211072058 #
straight-curve $-1 65.61845759453108 -27.211624113643808 0 0 0 -1 I I #
straight-curve $-1 65.61845759453108 27.211624113643808 0 0 0 -1 I I #
loop $-1 $-1 $336 $330 #
plane-surface $-1 0 -27.211624113643808 0 0 1 0 0 0 1 forward_v I I I I #
coedge $-1 $347 $338 $334 $449 forward $331 $-1 #
edge $-1 $453 -15.776026880970566 $342 -7.0951675843759183 $333 $505 forward 7 unknown #
edge $-1 $343 7.0951675843759183 $452 15.776026880970566 $447 $506 forward 7 unknown #
coedge $-1 $345 $336 $350 $462 reversed $445 $-1 #
coedge $-1 $336 $345 $347 $460 reversed $445 $-1 #
vertex $-1 $460 $507 #
vertex $-1 $337 $508 #
straight-curve $-1 -50.558762352316663 -27.211624113643808 0 0 0 1 I I #
straight-curve $-1 -26.099731727939378 -18.53076481704916 -7.5298476211072058 1 0 0 I I #
straight-curve $-1 -26.099731727939378 -18.53076481704916 7.5298476211072058 -1 0 0 I I #
point $-1 -50.558762352316663 -18.53076481704916 7.5298476211072058 #
point $-1 -50.558762352316663 -18.53076481704916 -7.5298476211072058 #
straight-curve $-1 -53.840164559440851 -27.211624113643808 0 0 0 -1 I I #
edge $-1 $452 50.558762352316663 $348 53.840164559440851 $451 $509 forward 7 unknown #
point $-1 -53.840164559440851 -27.211624113643808 -7.5298476211072058 #
edge $-1 $351 -53.840164559440851 $453 -50.558762352316663 $450 $510 forward 7 unknown #
point $-1 -53.840164559440851 -27.211624113643808 7.5298476211072058 #
edge $-1 $465 86.396479555710442 $468 90.964445244317801 $356 $511 forward 7 unknown #
vertex $-1 $370 $512 #
straight-curve $-1 40.897153286868623 -14.547629944435833 7.5298476211072085 1 0 0 I I #
edge $-1 $468 -9.8565964913367381 $367 0.47452958513854782 $366 $513 forward 7 unknown #
vertex $-1 $467 $514 #
straight-curve $-1 -18.739004126433557 -14.547629944435833 103.49519263267065 -0.64278759981090561 0 0.7660444514056185 I I #
point $-1 61.785479370342159 -14.547629944435833 7.5298476211072085 #
point $-1 65.61845759453108 -4.2165038679605473 2.9618819324998498 #
straight-curve $-1 65.61845759453108 0 7.5298476211072058 0 1 0 I I #
vertex $-1 $373 $515 #
point $-1 63.170171734351115 -11.595879636871466 3.4942270580954387 #
vertex $-1 $377 $516 #
point $-1 63.170171734351115 -7.1682541755249147 3.4942270580954387 #
edge $-1 $478 86.396479555710442 $481 90.964445244317801 $382 $517 forward 7 unknown #
vertex $-1 $396 $518 #
straight-curve $-1 40.897153286868623 8.3235645209106508 7.5298476211072085 1 0 0 I I #
edge $-1 $481 1.5790007413365039 $393 11.91012681781179 $392 $519 forward 7 unknown #
vertex $-1 $480 $520 #
straight-curve $-1 -18.739004126433557 8.3235645209106508 103.49519263267065 -0.64278759981090561 0 0.7660444514056185 I I #
point $-1 61.785479370342159 8.3235645209106508 7.5298476211072085 #
point $-1 65.61845759453108 18.654690597385937 2.9618819324998498 #
straight-curve $-1 65.61845759453108 0 7.5298476211072058 0 1 0 I I #
vertex $-1 $399 $521 #
point $-1 63.170171734351115 11.275314828475018 3.4942270580954387 #
vertex $-1 $403 $522 #
point $-1 63.170171734351115 15.702940289821569 3.4942270580954387 #
edge $-1 $491 31.20021005738057 $494 34.656692397689284 $408 $523 forward 7 unknown #
vertex $-1 $422 $524 #
straight-curve $-1 -87.209396126047309 22.896741721201419 7.5298476211072085 -1 0 0 I I #
edge $-1 $494 -14.850237441089252 $419 -1.2427711191350816 $418 $525 forward 7 unknown #
vertex $-1 $493 $526 #
straight-curve $-1 -65.618457594531094 22.896741721201419 4.0733652807984697 0.55919289150049634 0 0.82903758062907751 I I #
point $-1 -63.287030890290502 22.896741721201419 7.5298476211072058 #
point $-1 -65.61845759453108 9.2892753992472485 4.073365280798491 #
straight-curve $-1 -65.61845759453108 0 7.5298476211072058 0 -1 0 I I #
vertex $-1 $425 $527 #
point $-1 -62.888856829787699 16.093008560224327 5.3498600729879868 #
straight-curve $-1 -65.61845759453108 27.211624113643808 0 0 0 -1 I I #
point $-1 -65.61845759453108 -27.211624113643808 -7.5298476211072058 #
straight-curve $-1 -65.61845759453108 0 -7.5298476211072058 0 1 0 I I #
point $-1 -65.61845759453108 27.211624113643808 -7.5298476211072058 #
straight-curve $-1 -50.558762352316663 -11.435597232673242 7.5298476211072058 0 1 0 I I #
straight-curve $-1 -50.558762352316663 -11.435597232673242 -7.5298476211072058 0 -1 0 I I #
point $-1 -50.558762352316663 -27.211624113643808 -7.5298476211072058 #
point $-1 -50.558762352316663 -27.211624113643808 7.5298476211072058 #
straight-curve $-1 0 -27.211624113643808 -7.5298476211072058 -1 0 0 I I #
straight-curve $-1 0 -27.211624113643808 7.5298476211072058 1 0 0 I I #
straight-curve $-1 65.61845759453108 -14.547629944435833 93.926327176817651 0 0 -1 I I #
point $-1 65.61845759453108 -14.547629944435833 7.5298476211072058 #
straight-curve $-1 65.61845759453108 -4.6910334530990951 2.9618819324998498 0 1 0 I I #
point $-1 65.61845759453108 -14.547629944435833 2.9618819324998498 #
point $-1 61.761339683134587 -11.595879636871466 3.6174839096901512 #
point $-1 61.761339683134587 -7.1682541755249147 3.6174839096901512 #
straight-curve $-1 65.61845759453108 8.3235645209106508 93.926327176817651 0 0 -1 I I #
point $-1 65.61845759453108 8.3235645209106508 7.5298476211072058 #
straight-curve $-1 65.61845759453108 6.7445637795741469 2.9618819324998498 0 1 0 I I #
point $-1 65.61845759453108 8.3235645209106508 2.9618819324998498 #
point $-1 61.761339683134587 11.275314828475018 3.6174839096901512 #
point $-1 61.761339683134587 15.702940289821569 3.6174839096901512 #
straight-curve $-1 -65.61845759453108 22.896741721201419 38.730057678487775 0 0 -1 I I #
point $-1 -65.61845759453108 22.896741721201419 7.5298476211072058 #
straight-curve $-1 -65.61845759453108 8.0465042801121669 4.0733652807985052 0 -1 0 I I #
point $-1 -65.61845759453108 22.896741721201419 4.073365280798491 #
point $-1 -62.753934485223404 16.093008560224327 4.6557448369231995 #
End-of-ACIS-data 