500 0 8 0           
7 Unknown 11 ACIS 5.0 NT 24 Thu Mar 25 19:53:16 1999 
-1 9.9999999999999995e-007 1e-010 
body $-1 $8 $-1 $9 #
body $-1 $10 $-1 $11 #
body $-1 $12 $-1 $13 #
body $-1 $14 $-1 $15 #
body $-1 $16 $-1 $17 #
body $-1 $18 $-1 $19 #
body $-1 $20 $-1 $21 #
body $-1 $22 $-1 $23 #
lump $-1 $-1 $24 $0 #
transform $-1 1 0 0 0 1 0 0 0 1 67.347025971251568 38.233675543150611 12.682560692575231 1 rotate no_reflect no_shear #
lump $-1 $-1 $25 $1 #
transform $-1 1 0 0 0 1 0 0 0 1 67.347025971251568 38.233675543150611 12.682560692575231 1 rotate no_reflect no_shear #
lump $-1 $-1 $26 $2 #
transform $-1 1 0 0 0 1 0 0 0 1 67.347025971251568 38.233675543150611 12.682560692575231 1 rotate no_reflect no_shear #
lump $-1 $-1 $27 $3 #
transform $-1 1 0 0 0 1 0 0 0 1 67.347025971251568 38.233675543150611 12.682560692575231 1 rotate no_reflect no_shear #
lump $-1 $-1 $28 $4 #
transform $-1 1 0 0 0 1 0 0 0 1 67.347025971251568 38.233675543150611 12.682560692575231 1 rotate no_reflect no_shear #
lump $-1 $-1 $29 $5 #
transform $-1 1 0 0 0 1 0 0 0 1 67.347025971251568 38.233675543150611 12.682560692575231 1 rotate no_reflect no_shear #
lump $-1 $-1 $30 $6 #
transform $-1 1 0 0 0 1 0 0 0 1 67.347025971251568 38.233675543150611 12.682560692575231 1 rotate no_reflect no_shear #
lump $-1 $-1 $31 $7 #
transform $-1 1 0 0 0 1 0 0 0 1 67.347025971251568 38.233675543150611 12.682560692575231 1 rotate no_reflect no_shear #
shell $-1 $-1 $-1 $32 $-1 $8 #
shell $-1 $-1 $-1 $33 $-1 $10 #
shell $-1 $-1 $-1 $34 $-1 $12 #
shell $-1 $-1 $-1 $35 $-1 $14 #
shell $-1 $-1 $-1 $36 $-1 $16 #
shell $-1 $-1 $-1 $37 $-1 $18 #
shell $-1 $-1 $-1 $38 $-1 $20 #
shell $-1 $-1 $-1 $39 $-1 $22 #
face $-1 $40 $41 $24 $-1 $42 forward single #
face $-1 $43 $44 $25 $-1 $45 reversed single #
face $-1 $46 $47 $26 $-1 $48 reversed single #
face $-1 $49 $50 $27 $-1 $51 forward single #
face $-1 $52 $53 $28 $-1 $54 forward single #
face $-1 $55 $56 $29 $-1 $57 reversed single #
face $-1 $58 $59 $30 $-1 $60 forward single #
face $-1 $61 $62 $31 $-1 $63 forward single #
face $-1 $64 $65 $24 $-1 $66 reversed single #
loop $-1 $-1 $67 $32 #
plane-surface $-1 0 0 12.682560692575231 0 0 1 1 0 0 forward_v I I I I #
face $-1 $68 $69 $25 $-1 $70 reversed single #
loop $-1 $-1 $71 $33 #
plane-surface $-1 -62.902238784493385 -15.868554158000148 0 0 1 0 0 0 1 forward_v I I I I #
face $-1 $72 $73 $26 $-1 $74 reversed single #
loop $-1 $-1 $75 $34 #
plane-surface $-1 32.248701663490515 74.170119478476977 152.51266481026906 1 0 0 0 -0.68199836817093118 -0.7313536940579346 forward_v I I I I #
face $-1 $76 $77 $27 $-1 $78 forward single #
loop $-1 $79 $80 $35 #
cone-surface $-1 42.276794322850819 30.286038927763045 4.9718387924350189 0 -0.68199836817093118 -0.7313536940579346 3 0 0 1 I I 0 1 3 forward I I I I #
face $-1 $81 $82 $28 $-1 $83 forward single #
loop $-1 $84 $85 $36 #
cone-surface $-1 57.318933311891271 30.286038927763045 4.9718387924350189 0 -0.68199836817093118 -0.7313536940579346 3 0 0 1 I I 0 1 3 forward I I I I #
face $-1 $86 $87 $29 $-1 $88 reversed single #
loop $-1 $-1 $89 $37 #
plane-surface $-1 6.5469443946839938 -139.88856805960347 94.209525162527498 -1 0 0 0 -0.75470958851134928 0.65605901945558964 forward_v I I I I #
face $-1 $90 $91 $30 $-1 $92 forward single #
loop $-1 $93 $94 $38 #
cone-surface $-1 -13.988448541683397 -34.443222087283459 8.5518903891210254 0 0.75470958851134928 -0.65605901945558964 1 0 0 1 I I 0 1 1 forward I I I I #
face $-1 $95 $96 $31 $-1 $97 forward single #
loop $-1 $98 $99 $39 #
cone-surface $-1 -1.6672127798629646 -34.443222087283459 8.5518903891210254 0 0.75470958851134928 -0.65605901945558964 1 0 0 1 I I 0 1 1 forward I I I I #
face $-1 $100 $101 $24 $-1 $102 reversed single #
loop $-1 $-1 $103 $40 #
plane-surface $-1 0 0 -12.682560692575231 0 0 1 1 0 0 forward_v I I I I #
coedge $-1 $104 $105 $106 $107 forward $41 $-1 #
face $-1 $108 $109 $25 $-1 $110 reversed single #
loop $-1 $-1 $111 $43 #
plane-surface $-1 -62.902238784493385 -12.868554158000148 0 0 -1 0 0 0 -1 forward_v I I I I #
coedge $-1 $112 $113 $114 $115 reversed $44 $-1 #
face $-1 $116 $117 $26 $-1 $118 forward single #
loop $-1 $-1 $119 $46 #
plane-surface $-1 49.797863817371038 -17.691004148640801 54.003672354488074 0 0.68199836817093118 0.7313536940579346 1 0 0 forward_v I I I I #
coedge $-1 $120 $121 $122 $123 reversed $47 $-1 #
face $-1 $-1 $124 $27 $-1 $125 forward single #
loop $-1 $126 $127 $49 #
cone-surface $-1 42.276794322850819 27.12201149365481 1.5788348498570581 0 -0.68199836817093118 -0.7313536940579346 1.5 0 0 1 I I -0.70710678118654768 0.70710678118654735 1.5 forward I I I I #
loop $-1 $-1 $128 $35 #
coedge $-1 $80 $80 $129 $130 reversed $50 $-1 #
face $-1 $-1 $131 $28 $-1 $132 forward single #
loop $-1 $133 $134 $52 #
cone-surface $-1 57.318933311891271 27.12201149365481 1.5788348498570581 0 -0.68199836817093118 -0.7313536940579346 1.5 0 0 1 I I -0.70710678118654768 0.70710678118654735 1.5 forward I I I I #
loop $-1 $-1 $135 $36 #
coedge $-1 $85 $85 $136 $137 reversed $53 $-1 #
face $-1 $138 $139 $29 $-1 $140 reversed single #
loop $-1 $-1 $141 $55 #
plane-surface $-1 -7.8278306607731736 -38.233675543150625 5.8422775186286344 0 -0.75470958851134928 0.65605901945558964 1 0 0 forward_v I I I I #
coedge $-1 $142 $143 $144 $145 reversed $56 $-1 #
face $-1 $-1 $146 $30 $-1 $147 forward single #
loop $-1 $148 $149 $58 #
cone-surface $-1 -13.988448541683397 -33.24849748430875 7.5133321629123113 0 0.75470958851134928 -0.65605901945558964 0.5 0 0 1 I I -0.70710678118654746 0.70710678118654746 0.5 forward I I I I #
loop $-1 $-1 $150 $38 #
coedge $-1 $94 $94 $151 $152 reversed $59 $-1 #
face $-1 $-1 $153 $31 $-1 $154 forward single #
loop $-1 $155 $156 $61 #
cone-surface $-1 -1.6672127798629646 -33.24849748430875 7.5133321629123113 0 0.75470958851134928 -0.65605901945558964 0.5 0 0 1 I I -0.70710678118654746 0.70710678118654746 0.5 forward I I I I #
loop $-1 $-1 $157 $39 #
coedge $-1 $99 $99 $158 $159 reversed $62 $-1 #
face $-1 $160 $161 $24 $-1 $162 reversed single #
loop $-1 $-1 $163 $64 #
plane-surface $-1 0 -38.233675543150611 0 0 1 0 0 0 1 forward_v I I I I #
coedge $-1 $164 $165 $166 $167 forward $65 $-1 #
coedge $-1 $168 $67 $169 $170 forward $41 $-1 #
coedge $-1 $67 $168 $171 $172 forward $41 $-1 #
coedge $-1 $173 $174 $67 $107 reversed $175 $-1 #
edge $-1 $176 -38.233675543150611 $177 38.233675543150611 $106 $178 forward 7 unknown #
face $-1 $179 $180 $25 $-1 $181 reversed single #
loop $-1 $-1 $182 $68 #
plane-surface $-1 -58.457451597735201 -14.368554158000148 0 -1 0 0 0 0 1 forward_v I I I I #
coedge $-1 $183 $184 $185 $186 forward $69 $-1 #
coedge $-1 $187 $71 $188 $189 reversed $44 $-1 #
coedge $-1 $71 $187 $190 $191 reversed $44 $-1 #
coedge $-1 $192 $193 $71 $115 forward $194 $-1 #
edge $-1 $195 -12.682560692575231 $196 12.682560692575231 $114 $197 forward 7 unknown #
face $-1 $198 $199 $26 $-1 $200 reversed single #
loop $-1 $-1 $122 $72 #
plane-surface $-1 0 0 12.682560692575231 0 0 1 1 0 0 forward_v I I I I #
coedge $-1 $201 $202 $203 $204 reversed $73 $-1 #
coedge $-1 $121 $75 $205 $206 reversed $47 $-1 #
coedge $-1 $75 $120 $201 $207 reversed $47 $-1 #
coedge $-1 $203 $208 $75 $123 forward $117 $-1 #
edge $-1 $209 -1.1486158039121221 $210 10.464597663159303 $122 $211 forward 7 unknown #
loop $-1 $-1 $129 $76 #
plane-surface $-1 49.797863817371038 -17.691004148640801 54.003672354488074 0 0.68199836817093118 0.7313536940579346 1 0 0 forward_v I I I I #
loop $-1 $-1 $212 $49 #
coedge $-1 $127 $127 $128 $213 reversed $77 $-1 #
coedge $-1 $128 $128 $127 $213 forward $79 $-1 #
coedge $-1 $129 $129 $80 $130 forward $124 $-1 #
edge $-1 $214 -6.3761794378729929e-016 $214 6.2831853071795996 $129 $215 forward 7 unknown #
loop $-1 $-1 $136 $81 #
plane-surface $-1 49.797863817371038 -17.691004148640801 54.003672354488074 0 0.68199836817093118 0.7313536940579346 1 0 0 forward_v I I I I #
loop $-1 $-1 $216 $52 #
coedge $-1 $134 $134 $135 $217 reversed $82 $-1 #
coedge $-1 $135 $135 $134 $217 forward $84 $-1 #
coedge $-1 $136 $136 $85 $137 forward $131 $-1 #
edge $-1 $218 -6.3761794378729929e-016 $218 6.2831853071795996 $136 $219 forward 7 unknown #
face $-1 $220 $221 $29 $-1 $222 reversed single #
loop $-1 $-1 $223 $86 #
plane-surface $-1 -22.202605716230341 -139.88856805960347 94.209525162527498 1 0 0 0 0.75470958851134928 -0.65605901945558964 forward_v I I I I #
coedge $-1 $224 $225 $226 $227 reversed $87 $-1 #
coedge $-1 $143 $89 $228 $229 reversed $56 $-1 #
coedge $-1 $89 $142 $224 $230 reversed $56 $-1 #
coedge $-1 $226 $231 $89 $145 forward $232 $-1 #
edge $-1 $233 31.710608486651125 $234 37.65677578094737 $144 $235 forward 7 unknown #
loop $-1 $-1 $151 $90 #
plane-surface $-1 -7.8278306607731736 -38.233675543150625 5.8422775186286344 0 -0.75470958851134928 0.65605901945558964 1 0 0 forward_v I I I I #
loop $-1 $-1 $236 $58 #
coedge $-1 $149 $149 $150 $237 reversed $91 $-1 #
coedge $-1 $150 $150 $149 $237 forward $93 $-1 #
coedge $-1 $151 $151 $94 $152 forward $146 $-1 #
edge $-1 $238 1.340633539313084e-015 $238 6.2831853071796022 $151 $239 forward 7 unknown #
loop $-1 $-1 $158 $95 #
plane-surface $-1 -7.8278306607731736 -38.233675543150625 5.8422775186286344 0 -0.75470958851134928 0.65605901945558964 1 0 0 forward_v I I I I #
loop $-1 $-1 $240 $61 #
coedge $-1 $156 $156 $157 $241 reversed $96 $-1 #
coedge $-1 $157 $157 $156 $241 forward $98 $-1 #
coedge $-1 $158 $158 $99 $159 forward $153 $-1 #
edge $-1 $242 1.340633539313084e-015 $242 6.2831853071796022 $158 $243 forward 7 unknown #
face $-1 $244 $245 $24 $-1 $246 reversed single #
loop $-1 $-1 $247 $100 #
plane-surface $-1 -67.347025971251568 0 0 1 0 0 0 0 -1 forward_v I I I I #
coedge $-1 $248 $171 $249 $250 forward $101 $-1 #
coedge $-1 $251 $103 $248 $252 forward $65 $-1 #
coedge $-1 $103 $251 $253 $254 forward $65 $-1 #
coedge $-1 $174 $173 $103 $167 reversed $175 $-1 #
edge $-1 $255 -38.233675543150611 $256 38.233675543150611 $166 $257 forward 7 unknown #
coedge $-1 $105 $104 $258 $259 forward $41 $-1 #
coedge $-1 $260 $261 $104 $170 reversed $245 $-1 #
edge $-1 $177 -67.347025971251568 $262 67.347025971251568 $169 $263 forward 7 unknown #
coedge $-1 $163 $264 $105 $172 reversed $101 $-1 #
edge $-1 $265 -67.347025971251568 $176 67.347025971251568 $171 $266 forward 7 unknown #
coedge $-1 $166 $106 $264 $267 forward $175 $-1 #
coedge $-1 $106 $166 $260 $268 reversed $175 $-1 #
loop $-1 $-1 $173 $244 #
vertex $-1 $107 $269 #
vertex $-1 $107 $270 #
straight-curve $-1 67.347025971251568 0 12.682560692575231 0 1 0 I I #
face $-1 $271 $272 $25 $-1 $273 forward single #
loop $-1 $-1 $274 $108 #
plane-surface $-1 0 0 -12.682560692575231 0 0 1 1 0 0 forward_v I I I I #
coedge $-1 $275 $276 $187 $277 forward $109 $-1 #
coedge $-1 $278 $111 $274 $279 reversed $69 $-1 #
coedge $-1 $111 $278 $280 $281 reversed $69 $-1 #
coedge $-1 $276 $275 $111 $186 reversed $109 $-1 #
edge $-1 $282 -12.682560692575231 $283 12.682560692575231 $185 $284 forward 7 unknown #
coedge $-1 $113 $112 $182 $277 reversed $44 $-1 #
coedge $-1 $285 $286 $112 $189 forward $180 $-1 #
edge $-1 $287 27.006332205488508 $195 35.895906579004873 $188 $288 forward 7 unknown #
coedge $-1 $289 $290 $113 $191 forward $272 $-1 #
edge $-1 $196 -35.895906579004873 $291 -27.006332205488508 $190 $292 forward 7 unknown #
coedge $-1 $293 $114 $290 $294 reversed $194 $-1 #
coedge $-1 $114 $293 $285 $295 reversed $194 $-1 #
loop $-1 $-1 $293 $271 #
vertex $-1 $295 $296 #
vertex $-1 $115 $297 #
straight-curve $-1 -67.347025971251568 -15.868554158000148 0 0 0 1 I I #
face $-1 $-1 $298 $26 $-1 $299 reversed single #
loop $-1 $-1 $300 $116 #
plane-surface $-1 67.347025971251568 0 0 -1 0 0 0 0 1 forward_v I I I I #
coedge $-1 $301 $119 $121 $207 forward $73 $-1 #
coedge $-1 $119 $301 $300 $302 reversed $73 $-1 #
coedge $-1 $303 $122 $119 $204 forward $117 $-1 #
edge $-1 $210 7.3497697548049956 $304 42.448094062566035 $203 $305 forward 7 unknown #
coedge $-1 $306 $307 $120 $206 forward $298 $-1 #
edge $-1 $308 -74.403268709857556 $209 -63.573771712559299 $205 $309 forward 7 unknown #
edge $-1 $210 60.588285237005756 $308 76.467351086301193 $121 $310 forward 7 unknown #
coedge $-1 $122 $303 $306 $311 forward $117 $-1 #
vertex $-1 $206 $312 #
vertex $-1 $123 $313 #
straight-curve $-1 32.248701663490515 37.085059739238488 12.682560692575237 0 -1 0 I I #
coedge $-1 $212 $212 $-1 $314 reversed $126 $-1 #
edge $-1 $315 0 $315 6.2831853071796004 $127 $316 forward 7 unknown #
vertex $-1 $130 $317 #
ellipse-curve $-1 42.276794322850819 32.427068809614894 7.2678121939260913 0 0.68199836817093118 0.7313536940579346 3 0 0 1 I I #
coedge $-1 $216 $216 $-1 $318 reversed $133 $-1 #
edge $-1 $319 0 $319 6.2831853071796004 $134 $320 forward 7 unknown #
vertex $-1 $137 $321 #
ellipse-curve $-1 57.318933311891271 32.427068809614894 7.2678121939260913 0 0.68199836817093118 0.7313536940579346 3 0 0 1 I I #
face $-1 $-1 $232 $29 $-1 $322 forward single #
loop $-1 $-1 $323 $138 #
plane-surface $-1 0 -38.233675543150611 0 0 1 0 0 0 1 forward_v I I I I #
coedge $-1 $324 $325 $326 $327 reversed $139 $-1 #
coedge $-1 $328 $141 $143 $230 forward $87 $-1 #
coedge $-1 $141 $328 $324 $329 forward $87 $-1 #
coedge $-1 $326 $144 $141 $227 forward $232 $-1 #
edge $-1 $234 -10.460859725070581 $330 18.288690385843754 $226 $331 forward 7 unknown #
coedge $-1 $332 $333 $142 $229 forward $221 $-1 #
edge $-1 $334 -41.262485062635101 $233 -34.422201888688519 $228 $335 forward 7 unknown #
edge $-1 $234 -9.0634639841252458 $334 -2.1388861263899031e-014 $143 $336 forward 7 unknown #
coedge $-1 $144 $326 $332 $337 forward $232 $-1 #
loop $-1 $-1 $326 $220 #
vertex $-1 $229 $338 #
vertex $-1 $145 $339 #
straight-curve $-1 6.5469443946839938 -69.944284029801736 12.68256069257523 0 1 0 I I #
coedge $-1 $236 $236 $-1 $340 reversed $148 $-1 #
edge $-1 $341 0 $341 6.2831853071796004 $149 $342 forward 7 unknown #
vertex $-1 $152 $343 #
ellipse-curve $-1 -13.988448541683397 -35.260591896002488 9.2624191056019409 0 -0.75470958851134928 0.65605901945558964 1 0 0 1 I I #
coedge $-1 $240 $240 $-1 $344 reversed $155 $-1 #
edge $-1 $345 0 $345 6.2831853071796004 $156 $346 forward 7 unknown #
vertex $-1 $159 $347 #
ellipse-curve $-1 -1.6672127798629646 -35.260591896002488 9.2624191056019409 0 -0.75470958851134928 0.65605901945558964 1 0 0 1 I I #
face $-1 $-1 $175 $24 $-1 $348 reversed single #
loop $-1 $-1 $260 $160 #
plane-surface $-1 0 38.233675543150611 0 0 -1 0 0 0 -1 forward_v I I I I #
coedge $-1 $349 $258 $261 $350 forward $161 $-1 #
coedge $-1 $264 $163 $164 $252 reversed $101 $-1 #
coedge $-1 $258 $349 $163 $250 reversed $161 $-1 #
edge $-1 $265 -12.682560692575231 $351 12.682560692575231 $249 $352 forward 7 unknown #
coedge $-1 $165 $164 $349 $353 forward $65 $-1 #
edge $-1 $256 -67.347025971251568 $351 67.347025971251568 $248 $354 forward 7 unknown #
coedge $-1 $261 $260 $165 $254 reversed $245 $-1 #
edge $-1 $355 -67.347025971251568 $255 67.347025971251568 $253 $356 forward 7 unknown #
vertex $-1 $167 $357 #
vertex $-1 $267 $358 #
straight-curve $-1 67.347025971251568 0 -12.682560692575231 0 -1 0 I I #
coedge $-1 $247 $249 $168 $259 reversed $161 $-1 #
edge $-1 $262 -38.233675543150611 $265 38.233675543150611 $258 $359 forward 7 unknown #
coedge $-1 $253 $169 $174 $268 forward $245 $-1 #
coedge $-1 $169 $253 $247 $350 reversed $245 $-1 #
vertex $-1 $170 $360 #
straight-curve $-1 0 38.233675543150611 12.682560692575231 -1 0 0 I I #
coedge $-1 $171 $248 $173 $267 reversed $101 $-1 #
vertex $-1 $259 $361 #
straight-curve $-1 0 -38.233675543150611 12.682560692575231 1 0 0 I I #
edge $-1 $176 -12.682560692575231 $256 12.682560692575231 $173 $362 forward 7 unknown #
edge $-1 $177 -12.682560692575231 $255 12.682560692575231 $174 $363 forward 7 unknown #
point $-1 67.347025971251568 -38.233675543150611 12.682560692575231 #
point $-1 67.347025971251568 38.233675543150611 12.682560692575231 #
face $-1 $-1 $194 $25 $-1 $364 reversed single #
loop $-1 $-1 $280 $179 #
plane-surface $-1 0 0 12.682560692575231 0 0 1 1 0 0 forward_v I I I I #
coedge $-1 $286 $285 $183 $279 forward $180 $-1 #
coedge $-1 $185 $182 $286 $365 reversed $109 $-1 #
coedge $-1 $182 $185 $289 $366 reversed $109 $-1 #
edge $-1 $291 -12.682560692575231 $287 12.682560692575231 $182 $367 forward 7 unknown #
coedge $-1 $184 $183 $293 $368 reversed $69 $-1 #
edge $-1 $369 -35.895906579004873 $283 -27.006332205488508 $274 $370 forward 7 unknown #
coedge $-1 $290 $289 $184 $281 forward $272 $-1 #
edge $-1 $282 27.006332205488508 $371 35.895906579004873 $280 $372 forward 7 unknown #
vertex $-1 $281 $373 #
vertex $-1 $279 $374 #
straight-curve $-1 -58.457451597735201 -12.868554158000148 0 0 0 -1 I I #
coedge $-1 $274 $188 $193 $295 forward $180 $-1 #
coedge $-1 $188 $274 $275 $365 forward $180 $-1 #
vertex $-1 $189 $375 #
straight-curve $-1 -31.451119392246692 -15.868554158000148 -12.682560692575231 -1 0 0 I I #
coedge $-1 $280 $190 $276 $366 forward $272 $-1 #
coedge $-1 $190 $280 $192 $294 forward $272 $-1 #
vertex $-1 $191 $376 #
straight-curve $-1 -31.451119392246692 -15.868554158000148 12.682560692575231 1 0 0 I I #
coedge $-1 $193 $192 $278 $368 forward $194 $-1 #
edge $-1 $371 12.868554158000148 $196 15.868554158000148 $192 $377 forward 7 unknown #
edge $-1 $195 -15.868554158000148 $369 -12.868554158000148 $193 $378 forward 7 unknown #
point $-1 -67.347025971251568 -15.868554158000148 -12.682560692575231 #
point $-1 -67.347025971251568 -15.868554158000148 12.682560692575231 #
loop $-1 $-1 $205 $198 #
plane-surface $-1 0 38.233675543150611 0 0 -1 0 0 0 -1 forward_v I I I I #
coedge $-1 $379 $380 $202 $302 forward $199 $-1 #
coedge $-1 $202 $201 $307 $381 reversed $73 $-1 #
edge $-1 $304 35.703886408655165 $382 51.582952257950609 $300 $383 forward 7 unknown #
coedge $-1 $208 $203 $380 $384 forward $117 $-1 #
vertex $-1 $384 $385 #
straight-curve $-1 24.898931908685519 26.620462076079185 12.68256069257523 1 0 0 I I #
coedge $-1 $386 $205 $208 $311 reversed $298 $-1 #
coedge $-1 $205 $386 $301 $381 forward $298 $-1 #
vertex $-1 $206 $387 #
straight-curve $-1 32.248701663490515 38.233675543150611 76.256332405134529 0 0 1 I I #
straight-curve $-1 32.248701663490515 -17.691004148640801 54.003672354488074 0 0.7313536940579346 -0.68199836817093118 I I #
edge $-1 $388 -67.347025971251568 $209 -32.248701663490515 $306 $389 forward 7 unknown #
point $-1 32.248701663490515 38.233675543150611 12.682560692575231 #
point $-1 32.248701663490515 26.620462076079185 12.68256069257523 #
edge $-1 $390 1 $390 0 $212 $-1 forward 7 unknown #
vertex $-1 $213 $391 #
ellipse-curve $-1 42.276794322850819 28.145009045911205 2.6758653909439594 0 0.68199836817093118 0.7313536940579346 3 0 0 1 I I #
point $-1 45.276794322850819 32.42706880961488 7.2678121939260789 #
edge $-1 $392 1 $392 0 $216 $-1 forward 7 unknown #
vertex $-1 $217 $393 #
ellipse-curve $-1 57.318933311891271 28.145009045911205 2.6758653909439594 0 0.68199836817093118 0.7313536940579346 3 0 0 1 I I #
point $-1 60.318933311891271 32.42706880961488 7.2678121939260789 #
plane-surface $-1 0 0 12.682560692575231 0 0 1 1 0 0 forward_v I I I I #
coedge $-1 $333 $332 $325 $394 forward $221 $-1 #
coedge $-1 $325 $223 $225 $329 reversed $139 $-1 #
coedge $-1 $223 $324 $323 $394 reversed $139 $-1 #
coedge $-1 $231 $226 $223 $327 forward $232 $-1 #
edge $-1 $330 -37.65677578094737 $395 -31.710608486651125 $326 $396 forward 7 unknown #
coedge $-1 $225 $224 $333 $397 reversed $87 $-1 #
edge $-1 $398 2.1388861263899031e-014 $330 9.0634639841252458 $324 $399 forward 7 unknown #
vertex $-1 $227 $400 #
straight-curve $-1 -3.9139153303865868 -32.287508248854365 12.68256069257523 -1 0 0 I I #
coedge $-1 $323 $228 $231 $337 reversed $221 $-1 #
coedge $-1 $228 $323 $328 $397 forward $221 $-1 #
vertex $-1 $229 $401 #
straight-curve $-1 6.5469443946839938 -38.233675543150611 47.104762581263749 0 0 1 I I #
straight-curve $-1 6.5469443946839938 -38.233675543150625 5.8422775186286344 0 -0.65605901945558964 -0.75470958851134928 I I #
edge $-1 $395 -22.202605716230341 $233 6.5469443946839938 $332 $402 forward 7 unknown #
point $-1 6.5469443946839938 -38.233675543150611 12.682560692575231 #
point $-1 6.5469443946839938 -32.287508248854365 12.682560692575231 #
edge $-1 $403 1 $403 0 $236 $-1 forward 7 unknown #
vertex $-1 $237 $404 #
ellipse-curve $-1 -13.988448541683397 -33.625852278564423 7.8413616726401063 0 -0.75470958851134928 0.65605901945558964 1 0 0 1 I I #
point $-1 -12.988448541683397 -35.260591896002488 9.2624191056019427 #
edge $-1 $405 1 $405 0 $240 $-1 forward 7 unknown #
vertex $-1 $241 $406 #
ellipse-curve $-1 -1.6672127798629646 -33.625852278564423 7.8413616726401063 0 -0.75470958851134928 0.65605901945558964 1 0 0 1 I I #
point $-1 -0.66721277986296457 -35.260591896002488 9.2624191056019427 #
plane-surface $-1 67.347025971251568 0 0 -1 0 0 0 0 1 forward_v I I I I #
coedge $-1 $249 $247 $251 $353 reversed $161 $-1 #
edge $-1 $262 -12.682560692575231 $355 12.682560692575231 $261 $407 forward 7 unknown #
vertex $-1 $353 $408 #
straight-curve $-1 -67.347025971251568 -38.233675543150611 0 0 0 -1 I I #
edge $-1 $351 -38.233675543150611 $355 38.233675543150611 $349 $409 forward 7 unknown #
straight-curve $-1 0 -38.233675543150611 -12.682560692575231 -1 0 0 I I #
vertex $-1 $254 $410 #
straight-curve $-1 0 38.233675543150611 -12.682560692575231 1 0 0 I I #
point $-1 67.347025971251568 38.233675543150611 -12.682560692575231 #
point $-1 67.347025971251568 -38.233675543150611 -12.682560692575231 #
straight-curve $-1 -67.347025971251568 0 12.682560692575231 0 -1 0 I I #
point $-1 -67.347025971251568 38.233675543150611 12.682560692575231 #
point $-1 -67.347025971251568 -38.233675543150611 12.682560692575231 #
straight-curve $-1 67.347025971251568 -38.233675543150611 0 0 0 -1 I I #
straight-curve $-1 67.347025971251568 38.233675543150611 0 0 0 -1 I I #
plane-surface $-1 -67.347025971251568 0 0 1 0 0 0 0 -1 forward_v I I I I #
edge $-1 $283 5.6842770790000738 $287 8.6842770790000738 $286 $411 forward 7 unknown #
edge $-1 $291 -8.6842770790000738 $282 -5.6842770790000738 $289 $412 forward 7 unknown #
straight-curve $-1 -58.457451597735201 -15.868554158000148 0 0 0 -1 I I #
edge $-1 $371 -12.682560692575231 $369 12.682560692575231 $293 $413 forward 7 unknown #
vertex $-1 $368 $414 #
straight-curve $-1 -31.451119392246692 -12.868554158000148 -12.682560692575231 1 0 0 I I #
vertex $-1 $294 $415 #
straight-curve $-1 -31.451119392246692 -12.868554158000148 12.682560692575231 -1 0 0 I I #
point $-1 -58.457451597735201 -12.868554158000148 12.682560692575231 #
point $-1 -58.457451597735201 -12.868554158000148 -12.682560692575231 #
point $-1 -58.457451597735201 -15.868554158000148 -12.682560692575231 #
point $-1 -58.457451597735201 -15.868554158000148 12.682560692575231 #
straight-curve $-1 -67.347025971251568 0 12.682560692575231 0 -1 0 I I #
straight-curve $-1 -67.347025971251568 0 -12.682560692575231 0 1 0 I I #
coedge $-1 $380 $300 $386 $416 reversed $199 $-1 #
coedge $-1 $300 $379 $303 $384 reversed $199 $-1 #
edge $-1 $382 -42.448094062566035 $308 -7.3497697548049956 $307 $417 forward 7 unknown #
vertex $-1 $302 $418 #
straight-curve $-1 67.347025971251568 0.50829285888434583 37.032552960638334 0 0.7313536940579346 -0.68199836817093118 I I #
edge $-1 $304 26.620462076079185 $388 38.233675543150611 $380 $419 forward 7 unknown #
point $-1 67.347025971251554 26.620462076079185 12.68256069257523 #
coedge $-1 $307 $306 $379 $416 forward $298 $-1 #
point $-1 32.248701663490515 38.233675543150603 1.8530636952769726 #
vertex $-1 $384 $420 #
straight-curve $-1 0 38.233675543150611 12.682560692575231 -1 0 0 I I #
vertex $-1 $314 $421 #
point $-1 45.276794322850819 28.145009045911205 2.6758653909439594 #
vertex $-1 $318 $422 #
point $-1 60.318933311891271 28.145009045911205 2.6758653909439594 #
edge $-1 $395 34.422201888688519 $398 41.262485062635101 $323 $423 forward 7 unknown #
vertex $-1 $337 $424 #
straight-curve $-1 -22.202605716230341 -69.944284029801736 12.68256069257523 0 -1 0 I I #
edge $-1 $398 -18.288690385843754 $334 10.460859725070581 $333 $425 forward 7 unknown #
vertex $-1 $397 $426 #
straight-curve $-1 -22.202605716230341 -38.233675543150625 5.8422775186286344 0 0.65605901945558964 0.75470958851134928 I I #
point $-1 -22.202605716230341 -32.287508248854365 12.682560692575231 #
point $-1 6.5469443946839938 -38.233675543150611 5.8422775186286504 #
straight-curve $-1 0 -38.233675543150611 12.682560692575231 1 0 0 I I #
vertex $-1 $340 $427 #
point $-1 -12.988448541683397 -33.625852278564423 7.8413616726401063 #
vertex $-1 $344 $428 #
point $-1 -0.66721277986296457 -33.625852278564423 7.8413616726401063 #
straight-curve $-1 -67.347025971251568 38.233675543150611 0 0 0 -1 I I #
point $-1 -67.347025971251568 -38.233675543150611 -12.682560692575231 #
straight-curve $-1 -67.347025971251568 0 -12.682560692575231 0 1 0 I I #
point $-1 -67.347025971251568 38.233675543150611 -12.682560692575231 #
straight-curve $-1 -58.457451597735201 -7.1842770790000738 -12.682560692575231 0 -1 0 I I #
straight-curve $-1 -58.457451597735201 -7.1842770790000738 12.682560692575231 0 1 0 I I #
straight-curve $-1 -67.347025971251568 -12.868554158000148 0 0 0 -1 I I #
point $-1 -67.347025971251568 -12.868554158000148 -12.682560692575231 #
point $-1 -67.347025971251568 -12.868554158000148 12.682560692575231 #
edge $-1 $388 -12.682560692575231 $382 -1.8530636952769726 $379 $429 forward 7 unknown #
straight-curve $-1 24.898931908685519 38.233675543150611 1.8530636952769655 -1 0 0 I I #
point $-1 67.347025971251554 38.233675543150603 1.8530636952769726 #
straight-curve $-1 67.347025971251568 0 12.682560692575231 0 1 0 I I #
point $-1 67.347025971251568 38.233675543150611 12.682560692575231 #
point $-1 42.276794322850819 26.099013941398415 0.4818043087701569 #
point $-1 57.318933311891271 26.099013941398415 0.4818043087701569 #
straight-curve $-1 -22.202605716230341 -38.233675543150611 47.104762581263749 0 0 -1 I I #
point $-1 -22.202605716230341 -38.233675543150611 12.682560692575231 #
straight-curve $-1 -3.9139153303865868 -38.233675543150611 5.8422775186286504 1 0 0 I I #
point $-1 -22.202605716230341 -38.233675543150611 5.8422775186286504 #
point $-1 -13.988448541683397 -32.871142690053077 7.1853026531845163 #
point $-1 -1.6672127798629646 -32.871142690053077 7.1853026531845163 #
straight-curve $-1 67.347025971251568 38.233675543150611 0 0 0 -1 I I #
End-of-ACIS-data 