500 0 3 0           
7 Unknown 11 ACIS 5.0 NT 24 Thu Mar 25 21:18:11 1999 
-1 9.9999999999999995e-007 1e-010 
body $-1 $3 $-1 $4 #
body $-1 $5 $-1 $6 #
body $-1 $7 $-1 $8 #
lump $-1 $-1 $9 $0 #
transform $-1 1 0 0 0 1 0 0 0 1 52.151249732963045 26.095997070118774 11.32655630149935 1 rotate no_reflect no_shear #
lump $-1 $-1 $10 $1 #
transform $-1 1 0 0 0 1 0 0 0 1 52.151249732963045 26.095997070118774 11.32655630149935 1 rotate no_reflect no_shear #
lump $-1 $-1 $11 $2 #
transform $-1 1 0 0 0 1 0 0 0 1 52.151249732963045 26.095997070118774 11.32655630149935 1 rotate no_reflect no_shear #
shell $-1 $-1 $-1 $12 $-1 $3 #
shell $-1 $-1 $-1 $13 $-1 $5 #
shell $-1 $-1 $-1 $14 $-1 $7 #
face $-1 $15 $16 $9 $-1 $17 forward single #
face $-1 $18 $19 $10 $-1 $20 forward single #
face $-1 $21 $22 $11 $-1 $23 reversed single #
face $-1 $24 $25 $9 $-1 $26 reversed single #
loop $-1 $-1 $27 $12 #
plane-surface $-1 0 0 11.32655630149935 0 0 1 1 0 0 forward_v I I I I #
face $-1 $28 $29 $10 $-1 $30 reversed single #
loop $-1 $-1 $31 $13 #
plane-surface $-1 0 -26.095997070118774 0 0 1 0 0 0 1 forward_v I I I I #
face $-1 $32 $33 $11 $-1 $34 reversed single #
loop $-1 $-1 $35 $14 #
plane-surface $-1 0 20.502184685363826 7.8834795261853312 0 0 1 1 0 0 forward_v I I I I #
face $-1 $36 $37 $9 $-1 $38 reversed single #
loop $-1 $-1 $39 $15 #
plane-surface $-1 0 0 -11.32655630149935 0 0 1 1 0 0 forward_v I I I I #
coedge $-1 $40 $41 $42 $43 forward $16 $-1 #
face $-1 $44 $45 $10 $-1 $46 reversed single #
loop $-1 $-1 $47 $18 #
plane-surface $-1 0 0 -11.32655630149935 0 0 1 1 0 0 forward_v I I I I #
coedge $-1 $48 $49 $50 $51 forward $19 $-1 #
face $-1 $52 $53 $11 $-1 $54 reversed single #
loop $-1 $-1 $55 $21 #
plane-surface $-1 0 14.908372300608882 9.6050179138423406 0 1 0 0 0 1 forward_v I I I I #
coedge $-1 $56 $57 $58 $59 reversed $22 $-1 #
face $-1 $60 $61 $9 $-1 $62 reversed single #
loop $-1 $-1 $63 $24 #
plane-surface $-1 0 -26.095997070118774 0 0 1 0 0 0 1 forward_v I I I I #
coedge $-1 $64 $65 $66 $67 forward $25 $-1 #
coedge $-1 $68 $27 $69 $70 forward $16 $-1 #
coedge $-1 $27 $68 $71 $72 forward $16 $-1 #
coedge $-1 $73 $74 $27 $43 reversed $75 $-1 #
edge $-1 $76 -26.095997070118774 $77 26.095997070118774 $42 $78 forward 7 unknown #
face $-1 $79 $80 $10 $-1 $81 forward single #
loop $-1 $-1 $82 $28 #
plane-surface $-1 52.151249732963045 0 0 -1 0 0 0 0 1 forward_v I I I I #
coedge $-1 $83 $84 $85 $86 forward $29 $-1 #
coedge $-1 $85 $31 $82 $87 reversed $19 $-1 #
coedge $-1 $31 $85 $88 $89 reversed $19 $-1 #
coedge $-1 $90 $91 $31 $51 reversed $80 $-1 #
edge $-1 $92 -52.151249732963045 $93 52.151249732963045 $50 $94 forward 7 unknown #
face $-1 $95 $96 $11 $-1 $97 reversed single #
loop $-1 $-1 $98 $32 #
plane-surface $-1 0 26.095997070118774 0 0 -1 0 0 0 -1 forward_v I I I I #
coedge $-1 $99 $100 $101 $102 reversed $33 $-1 #
coedge $-1 $103 $35 $99 $104 forward $22 $-1 #
coedge $-1 $35 $103 $98 $105 reversed $22 $-1 #
coedge $-1 $106 $107 $35 $59 forward $108 $-1 #
edge $-1 $109 4.6572799579269688 $110 15.844904727436857 $58 $111 forward 7 unknown #
face $-1 $112 $113 $9 $-1 $114 reversed single #
loop $-1 $-1 $115 $36 #
plane-surface $-1 -52.151249732963045 0 0 1 0 0 0 0 -1 forward_v I I I I #
coedge $-1 $116 $71 $117 $118 forward $37 $-1 #
coedge $-1 $119 $39 $116 $120 forward $25 $-1 #
coedge $-1 $39 $119 $121 $122 forward $25 $-1 #
coedge $-1 $74 $73 $39 $67 reversed $75 $-1 #
edge $-1 $123 -26.095997070118774 $124 26.095997070118774 $66 $125 forward 7 unknown #
coedge $-1 $41 $40 $126 $127 forward $16 $-1 #
coedge $-1 $128 $129 $40 $70 reversed $113 $-1 #
edge $-1 $77 -52.151249732963045 $130 52.151249732963045 $69 $131 forward 7 unknown #
coedge $-1 $63 $132 $41 $72 reversed $37 $-1 #
edge $-1 $133 -52.151249732963045 $76 52.151249732963045 $71 $134 forward 7 unknown #
coedge $-1 $66 $42 $132 $135 forward $75 $-1 #
coedge $-1 $42 $66 $128 $136 reversed $75 $-1 #
loop $-1 $-1 $73 $112 #
vertex $-1 $43 $137 #
vertex $-1 $43 $138 #
straight-curve $-1 52.151249732963045 0 11.32655630149935 0 1 0 I I #
face $-1 $139 $140 $10 $-1 $141 reversed single #
loop $-1 $-1 $91 $44 #
plane-surface $-1 0 -33.151058621819985 -4.797894267550002 0 0 1 1 0 0 forward_v I I I I #
coedge $-1 $142 $143 $48 $87 forward $45 $-1 #
coedge $-1 $144 $47 $143 $145 forward $29 $-1 #
coedge $-1 $47 $144 $146 $147 forward $29 $-1 #
coedge $-1 $49 $48 $47 $86 reversed $19 $-1 #
edge $-1 $148 -52.151249732963045 $149 52.151249732963045 $47 $150 forward 7 unknown #
edge $-1 $149 -11.32655630149935 $93 -4.797894267550002 $82 $151 forward 7 unknown #
coedge $-1 $146 $152 $49 $89 forward $153 $-1 #
edge $-1 $92 4.797894267550002 $148 11.32655630149935 $88 $154 forward 7 unknown #
coedge $-1 $155 $50 $152 $156 forward $80 $-1 #
coedge $-1 $50 $155 $142 $157 forward $80 $-1 #
vertex $-1 $89 $158 #
vertex $-1 $157 $159 #
straight-curve $-1 0 -26.095997070118774 -4.797894267550002 1 0 0 I I #
face $-1 $160 $161 $11 $-1 $162 forward single #
loop $-1 $-1 $163 $52 #
plane-surface $-1 -52.151249732963045 0 0 1 0 0 0 0 -1 forward_v I I I I #
coedge $-1 $164 $165 $57 $105 forward $53 $-1 #
coedge $-1 $166 $55 $56 $104 reversed $33 $-1 #
coedge $-1 $55 $166 $167 $168 reversed $33 $-1 #
coedge $-1 $169 $163 $55 $102 forward $96 $-1 #
edge $-1 $170 3.0809705692641609 $171 6.5240473445781797 $101 $172 forward 7 unknown #
coedge $-1 $57 $56 $163 $173 reversed $22 $-1 #
edge $-1 $109 -52.151249732963045 $170 52.151249732963045 $99 $174 forward 7 unknown #
edge $-1 $110 -52.151249732963045 $175 52.151249732963045 $98 $176 forward 7 unknown #
coedge $-1 $177 $58 $165 $178 reversed $108 $-1 #
coedge $-1 $58 $177 $166 $179 forward $108 $-1 #
loop $-1 $-1 $58 $160 #
vertex $-1 $59 $180 #
vertex $-1 $105 $181 #
straight-curve $-1 52.151249732963045 10.251092342681913 7.8834795261853312 0 1 0 I I #
face $-1 $-1 $75 $9 $-1 $182 reversed single #
loop $-1 $-1 $128 $60 #
plane-surface $-1 0 26.095997070118774 0 0 -1 0 0 0 -1 forward_v I I I I #
coedge $-1 $183 $126 $129 $184 forward $61 $-1 #
coedge $-1 $132 $63 $64 $120 reversed $37 $-1 #
coedge $-1 $126 $183 $63 $118 reversed $61 $-1 #
edge $-1 $133 -11.32655630149935 $185 11.32655630149935 $117 $186 forward 7 unknown #
coedge $-1 $65 $64 $183 $187 forward $25 $-1 #
edge $-1 $124 -52.151249732963045 $185 52.151249732963045 $116 $188 forward 7 unknown #
coedge $-1 $129 $128 $65 $122 reversed $113 $-1 #
edge $-1 $189 -52.151249732963045 $123 52.151249732963045 $121 $190 forward 7 unknown #
vertex $-1 $67 $191 #
vertex $-1 $135 $192 #
straight-curve $-1 52.151249732963045 0 -11.32655630149935 0 -1 0 I I #
coedge $-1 $115 $117 $68 $127 reversed $61 $-1 #
edge $-1 $130 -26.095997070118774 $133 26.095997070118774 $126 $193 forward 7 unknown #
coedge $-1 $121 $69 $74 $136 forward $113 $-1 #
coedge $-1 $69 $121 $115 $184 reversed $113 $-1 #
vertex $-1 $70 $194 #
straight-curve $-1 0 26.095997070118774 11.32655630149935 -1 0 0 I I #
coedge $-1 $71 $116 $73 $135 reversed $37 $-1 #
vertex $-1 $127 $195 #
straight-curve $-1 0 -26.095997070118774 11.32655630149935 1 0 0 I I #
edge $-1 $76 -11.32655630149935 $124 11.32655630149935 $73 $196 forward 7 unknown #
edge $-1 $77 -11.32655630149935 $123 11.32655630149935 $74 $197 forward 7 unknown #
point $-1 52.151249732963045 -26.095997070118774 11.32655630149935 #
point $-1 52.151249732963045 26.095997070118774 11.32655630149935 #
face $-1 $-1 $153 $10 $-1 $198 reversed single #
loop $-1 $-1 $199 $79 #
plane-surface $-1 0 -40.206120173521192 -8.0622252845246756 0 1 0 0 0 1 forward_v I I I I #
coedge $-1 $200 $82 $91 $157 reversed $45 $-1 #
coedge $-1 $82 $200 $83 $145 reversed $45 $-1 #
coedge $-1 $84 $83 $201 $202 forward $29 $-1 #
edge $-1 $149 26.095997070118774 $203 40.206120173521192 $143 $204 forward 7 unknown #
coedge $-1 $205 $88 $84 $147 reversed $153 $-1 #
edge $-1 $206 -40.206120173521192 $148 -26.095997070118774 $146 $207 forward 7 unknown #
vertex $-1 $89 $208 #
vertex $-1 $145 $209 #
straight-curve $-1 0 -26.095997070118774 -11.32655630149935 1 0 0 I I #
straight-curve $-1 52.151249732963045 -26.095997070118774 0 0 0 1 I I #
coedge $-1 $88 $205 $90 $156 reversed $153 $-1 #
loop $-1 $-1 $88 $139 #
straight-curve $-1 -52.151249732963045 -26.095997070118774 0 0 0 -1 I I #
coedge $-1 $91 $90 $210 $211 forward $80 $-1 #
edge $-1 $92 -7.0550615517012076 $212 7.0550615517012076 $152 $213 forward 7 unknown #
edge $-1 $214 -7.0550615517012076 $93 7.0550615517012076 $142 $215 forward 7 unknown #
point $-1 -52.151249732963045 -26.095997070118777 -4.797894267550002 #
point $-1 52.151249732963045 -26.095997070118777 -4.797894267550002 #
face $-1 $-1 $108 $11 $-1 $216 reversed single #
loop $-1 $-1 $167 $95 #
plane-surface $-1 0 0 11.32655630149935 0 0 1 1 0 0 forward_v I I I I #
coedge $-1 $101 $217 $103 $173 forward $96 $-1 #
coedge $-1 $218 $98 $217 $219 reversed $53 $-1 #
coedge $-1 $98 $218 $106 $178 forward $53 $-1 #
coedge $-1 $100 $99 $107 $179 reversed $33 $-1 #
coedge $-1 $220 $221 $100 $168 forward $161 $-1 #
edge $-1 $171 -52.151249732963045 $222 52.151249732963045 $167 $223 forward 7 unknown #
coedge $-1 $217 $101 $221 $224 reversed $96 $-1 #
vertex $-1 $173 $225 #
vertex $-1 $102 $226 #
straight-curve $-1 -52.151249732963045 14.908372300608882 4.8025089569211703 0 0 1 I I #
edge $-1 $175 -15.844904727436857 $170 -4.6572799579269688 $163 $227 forward 7 unknown #
straight-curve $-1 0 14.908372300608882 7.8834795261853312 -1 0 0 I I #
vertex $-1 $105 $228 #
straight-curve $-1 0 26.095997070118774 7.8834795261853312 -1 0 0 I I #
coedge $-1 $107 $106 $220 $229 reversed $108 $-1 #
edge $-1 $230 -11.32655630149935 $110 -7.8834795261853312 $106 $231 forward 7 unknown #
edge $-1 $222 -6.5240473445781797 $109 -3.0809705692641609 $107 $232 forward 7 unknown #
point $-1 52.151249732963045 14.908372300608882 7.8834795261853312 #
point $-1 52.151249732963045 26.09599707011877 7.8834795261853312 #
plane-surface $-1 52.151249732963045 0 0 -1 0 0 0 0 1 forward_v I I I I #
coedge $-1 $117 $115 $119 $187 reversed $61 $-1 #
edge $-1 $130 -11.32655630149935 $189 11.32655630149935 $129 $233 forward 7 unknown #
vertex $-1 $187 $234 #
straight-curve $-1 -52.151249732963045 -26.095997070118774 0 0 0 -1 I I #
edge $-1 $185 -26.095997070118774 $189 26.095997070118774 $183 $235 forward 7 unknown #
straight-curve $-1 0 -26.095997070118774 -11.32655630149935 -1 0 0 I I #
vertex $-1 $122 $236 #
straight-curve $-1 0 26.095997070118774 -11.32655630149935 1 0 0 I I #
point $-1 52.151249732963045 26.095997070118774 -11.32655630149935 #
point $-1 52.151249732963045 -26.095997070118774 -11.32655630149935 #
straight-curve $-1 -52.151249732963045 0 11.32655630149935 0 -1 0 I I #
point $-1 -52.151249732963045 26.095997070118774 11.32655630149935 #
point $-1 -52.151249732963045 -26.095997070118774 11.32655630149935 #
straight-curve $-1 52.151249732963045 -26.095997070118774 0 0 0 -1 I I #
straight-curve $-1 52.151249732963045 26.095997070118774 0 0 0 -1 I I #
plane-surface $-1 -52.151249732963045 0 0 1 0 0 0 0 -1 forward_v I I I I #
coedge $-1 $201 $210 $205 $237 forward $140 $-1 #
coedge $-1 $143 $142 $238 $239 forward $45 $-1 #
coedge $-1 $238 $199 $144 $202 reversed $140 $-1 #
edge $-1 $203 -52.151249732963045 $206 52.151249732963045 $201 $240 forward 7 unknown #
vertex $-1 $239 $241 #
straight-curve $-1 52.151249732963045 0 -11.32655630149935 0 -1 0 I I #
coedge $-1 $152 $146 $199 $237 reversed $153 $-1 #
vertex $-1 $147 $242 #
straight-curve $-1 -52.151249732963045 0 -11.32655630149935 0 1 0 I I #
point $-1 -52.151249732963045 -26.095997070118774 -11.32655630149935 #
point $-1 52.151249732963045 -26.095997070118774 -11.32655630149935 #
coedge $-1 $199 $238 $155 $211 reversed $140 $-1 #
edge $-1 $212 -52.151249732963045 $214 52.151249732963045 $210 $243 forward 7 unknown #
vertex $-1 $156 $244 #
straight-curve $-1 -52.151249732963045 -33.151058621819985 -4.797894267550002 0 -1 0 I I #
vertex $-1 $157 $245 #
straight-curve $-1 52.151249732963045 -33.151058621819985 -4.797894267550002 0 1 0 I I #
plane-surface $-1 52.151249732963045 0 0 -1 0 0 0 0 1 forward_v I I I I #
coedge $-1 $163 $169 $164 $219 forward $96 $-1 #
coedge $-1 $165 $164 $246 $247 reversed $53 $-1 #
edge $-1 $248 -11.32655630149935 $175 -7.8834795261853312 $164 $249 forward 7 unknown #
coedge $-1 $246 $167 $177 $229 forward $161 $-1 #
coedge $-1 $167 $246 $169 $224 forward $161 $-1 #
vertex $-1 $229 $250 #
straight-curve $-1 0 14.908372300608882 11.32655630149935 1 0 0 I I #
edge $-1 $248 -26.095997070118774 $171 -14.908372300608882 $169 $251 forward 7 unknown #
point $-1 -52.151249732963045 14.908372300608882 7.8834795261853312 #
point $-1 -52.151249732963045 14.908372300608882 11.32655630149935 #
straight-curve $-1 -52.151249732963045 10.251092342681913 7.8834795261853312 0 -1 0 I I #
point $-1 -52.151249732963045 26.09599707011877 7.8834795261853312 #
edge $-1 $222 14.908372300608882 $230 26.095997070118774 $177 $252 forward 7 unknown #
vertex $-1 $229 $253 #
straight-curve $-1 52.151249732963045 26.095997070118774 0 0 0 -1 I I #
straight-curve $-1 52.151249732963045 14.908372300608882 4.8025089569211703 0 0 -1 I I #
straight-curve $-1 -52.151249732963045 26.095997070118774 0 0 0 -1 I I #
point $-1 -52.151249732963045 -26.095997070118774 -11.32655630149935 #
straight-curve $-1 -52.151249732963045 0 -11.32655630149935 0 1 0 I I #
point $-1 -52.151249732963045 26.095997070118774 -11.32655630149935 #
edge $-1 $212 -3.2643310169746735 $206 3.2643310169746727 $205 $254 forward 7 unknown #
coedge $-1 $210 $201 $200 $239 reversed $140 $-1 #
edge $-1 $214 -3.2643310169746735 $203 3.2643310169746727 $200 $255 forward 7 unknown #
straight-curve $-1 0 -40.206120173521192 -11.326556301499348 -1 0 0 I I #
point $-1 52.151249732963045 -40.206120173521192 -11.326556301499348 #
point $-1 -52.151249732963045 -40.206120173521192 -11.326556301499348 #
straight-curve $-1 0 -40.206120173521192 -4.797894267550002 1 0 0 I I #
point $-1 -52.151249732963045 -40.206120173521192 -4.797894267550002 #
point $-1 52.151249732963045 -40.206120173521192 -4.797894267550002 #
coedge $-1 $221 $220 $218 $247 forward $161 $-1 #
edge $-1 $230 -52.151249732963045 $248 52.151249732963045 $218 $256 forward 7 unknown #
vertex $-1 $247 $257 #
straight-curve $-1 -52.151249732963045 26.095997070118774 0 0 0 -1 I I #
point $-1 52.151249732963045 14.908372300608882 11.32655630149935 #
straight-curve $-1 -52.151249732963045 0 11.32655630149935 0 -1 0 I I #
straight-curve $-1 52.151249732963045 0 11.32655630149935 0 1 0 I I #
point $-1 52.151249732963045 26.095997070118774 11.32655630149935 #
straight-curve $-1 -52.151249732963045 -40.206120173521192 -8.0622252845246756 0 0 -1 I I #
straight-curve $-1 52.151249732963045 -40.206120173521192 -8.0622252845246756 0 0 -1 I I #
straight-curve $-1 0 26.095997070118774 11.32655630149935 -1 0 0 I I #
point $-1 -52.151249732963045 26.095997070118774 11.32655630149935 #
End-of-ACIS-data 