500 0 13 0           
7 Unknown 11 ACIS 5.0 NT 24 Fri Mar 26 18:08:07 1999 
-1 9.9999999999999995e-007 1e-010 
body $-1 $13 $-1 $14 #
body $-1 $15 $-1 $16 #
body $-1 $17 $-1 $18 #
body $-1 $19 $-1 $20 #
body $-1 $21 $-1 $22 #
body $-1 $23 $-1 $24 #
body $-1 $25 $-1 $26 #
body $-1 $27 $-1 $28 #
body $-1 $29 $-1 $30 #
body $-1 $31 $-1 $32 #
body $-1 $33 $-1 $34 #
body $-1 $35 $-1 $36 #
body $-1 $37 $-1 $38 #
lump $-1 $-1 $39 $0 #
transform $-1 1 0 0 0 1 0 0 0 1 50.455641346476639 31.2214587352222 8.6885926624003016 1 rotate no_reflect no_shear #
lump $-1 $-1 $40 $1 #
transform $-1 1 0 0 0 1 0 0 0 1 50.455641346476639 31.2214587352222 8.6885926624003016 1 rotate no_reflect no_shear #
lump $-1 $-1 $41 $2 #
transform $-1 1 0 0 0 1 0 0 0 1 50.455641346476639 31.2214587352222 8.6885926624003016 1 rotate no_reflect no_shear #
lump $-1 $-1 $42 $3 #
transform $-1 1 0 0 0 1 0 0 0 1 50.455641346476639 31.2214587352222 8.6885926624003016 1 rotate no_reflect no_shear #
lump $-1 $-1 $43 $4 #
transform $-1 1 0 0 0 1 0 0 0 1 50.455641346476639 31.2214587352222 8.6885926624003016 1 rotate no_reflect no_shear #
lump $-1 $-1 $44 $5 #
transform $-1 1 0 0 0 1 0 0 0 1 50.455641346476639 31.2214587352222 8.6885926624003016 1 rotate no_reflect no_shear #
lump $-1 $-1 $45 $6 #
transform $-1 1 0 0 0 1 0 0 0 1 50.455641346476639 31.2214587352222 8.6885926624003016 1 rotate no_reflect no_shear #
lump $-1 $-1 $46 $7 #
transform $-1 1 0 0 0 1 0 0 0 1 50.455641346476639 31.2214587352222 8.6885926624003016 1 rotate no_reflect no_shear #
lump $-1 $-1 $47 $8 #
transform $-1 1 0 0 0 1 0 0 0 1 50.455641346476639 31.2214587352222 8.6885926624003016 1 rotate no_reflect no_shear #
lump $-1 $-1 $48 $9 #
transform $-1 1 0 0 0 1 0 0 0 1 50.455641346476639 31.2214587352222 8.6885926624003016 1 rotate no_reflect no_shear #
lump $-1 $-1 $49 $10 #
transform $-1 1 0 0 0 1 0 0 0 1 50.455641346476639 31.2214587352222 8.6885926624003016 1 rotate no_reflect no_shear #
lump $-1 $-1 $50 $11 #
transform $-1 1 0 0 0 1 0 0 0 1 50.455641346476639 31.2214587352222 8.6885926624003016 1 rotate no_reflect no_shear #
lump $-1 $-1 $51 $12 #
transform $-1 1 0 0 0 1 0 0 0 1 50.455641346476639 31.2214587352222 8.6885926624003016 1 rotate no_reflect no_shear #
shell $-1 $-1 $-1 $52 $-1 $13 #
shell $-1 $-1 $-1 $53 $-1 $15 #
shell $-1 $-1 $-1 $54 $-1 $17 #
shell $-1 $-1 $-1 $55 $-1 $19 #
shell $-1 $-1 $-1 $56 $-1 $21 #
shell $-1 $-1 $-1 $57 $-1 $23 #
shell $-1 $-1 $-1 $58 $-1 $25 #
shell $-1 $-1 $-1 $59 $-1 $27 #
shell $-1 $-1 $-1 $60 $-1 $29 #
shell $-1 $-1 $-1 $61 $-1 $31 #
shell $-1 $-1 $-1 $62 $-1 $33 #
shell $-1 $-1 $-1 $63 $-1 $35 #
shell $-1 $-1 $-1 $64 $-1 $37 #
face $-1 $65 $66 $39 $-1 $67 forward single #
face $-1 $68 $69 $40 $-1 $70 reversed single #
face $-1 $71 $72 $41 $-1 $73 reversed single #
face $-1 $74 $75 $42 $-1 $76 reversed single #
face $-1 $77 $78 $43 $-1 $79 forward single #
face $-1 $80 $81 $44 $-1 $82 forward single #
face $-1 $83 $84 $45 $-1 $85 reversed single #
face $-1 $86 $87 $46 $-1 $88 forward single #
face $-1 $89 $90 $47 $-1 $91 forward single #
face $-1 $92 $93 $48 $-1 $94 reversed single #
face $-1 $95 $96 $49 $-1 $97 forward single #
face $-1 $98 $99 $50 $-1 $100 forward single #
face $-1 $101 $102 $51 $-1 $103 forward single #
face $-1 $104 $105 $39 $-1 $106 reversed single #
loop $-1 $-1 $107 $52 #
plane-surface $-1 0 0 8.6885926624003016 0 0 1 1 0 0 forward_v I I I I #
face $-1 $108 $109 $40 $-1 $110 reversed single #
loop $-1 $-1 $111 $53 #
plane-surface $-1 0 -26.972013824086968 5.6885926624003016 0 0 1 1 0 0 forward_v I I I I #
face $-1 $112 $113 $41 $-1 $114 reversed single #
loop $-1 $-1 $115 $54 #
plane-surface $-1 0 26.972013824086972 5.6885926624003016 0 0 1 1 0 0 forward_v I I I I #
face $-1 $116 $117 $42 $-1 $118 reversed single #
loop $-1 $-1 $119 $55 #
plane-surface $-1 84.980342474353606 -4.944562868831845 142.20634019895664 0 -1 0 -0.85716730853699208 0 -0.51503806187062418 forward_v I I I I #
face $-1 $120 $121 $43 $-1 $122 forward single #
loop $-1 $123 $124 $56 #
cone-surface $-1 48.414744200208126 -9.8367171059923457 5.8798153917697409 -0.85716730853699208 0 -0.51503806187062418 0.25751903093531209 0 -0.42858365426849604 1 I I 0 1 0.5 forward I I I I #
face $-1 $125 $126 $44 $-1 $127 forward single #
loop $-1 $128 $129 $57 #
cone-surface $-1 48.414744200208126 -6.9014245636960467 5.8798153917697409 -0.85716730853699208 0 -0.51503806187062418 0.25751903093531209 0 -0.42858365426849604 1 I I 0 1 0.5 forward I I I I #
face $-1 $130 $131 $45 $-1 $132 reversed single #
loop $-1 $-1 $133 $58 #
plane-surface $-1 84.980342474353606 17.778006044119891 142.20634019895664 0 -1 0 -0.85716730853699208 0 -0.51503806187062418 forward_v I I I I #
face $-1 $134 $135 $46 $-1 $136 forward single #
loop $-1 $137 $138 $59 #
cone-surface $-1 48.414744200208126 12.885851806959394 5.8798153917697409 -0.85716730853699208 0 -0.51503806187062418 0.25751903093531209 0 -0.42858365426849604 1 I I 0 1 0.5 forward I I I I #
face $-1 $139 $140 $47 $-1 $141 forward single #
loop $-1 $142 $143 $60 #
cone-surface $-1 48.414744200208126 15.82114434925569 5.8798153917697409 -0.85716730853699208 0 -0.51503806187062418 0.25751903093531209 0 -0.42858365426849604 1 I I 0 1 0.5 forward I I I I #
face $-1 $144 $145 $48 $-1 $146 reversed single #
loop $-1 $-1 $147 $61 #
plane-surface $-1 -121.81069446479725 15.821462985244644 75.733429310529019 0 1 0 -0.70710678939079041 0 0.70710677298230451 forward_v I I I I #
face $-1 $148 $149 $49 $-1 $150 forward single #
loop $-1 $151 $152 $62 #
cone-surface $-1 -47.804057279487729 17.201684170786059 6.0370085569226912 0.70710678939079041 0 -0.70710677298230451 0.35355338649115226 0 0.35355339469539521 1 I I 0 1 0.5 forward I I I I #
face $-1 $153 $154 $50 $-1 $155 forward single #
loop $-1 $156 $157 $63 #
cone-surface $-1 -47.804057279487729 19.27201594909819 6.0370085569226912 0.70710678939079041 0 -0.70710677298230451 0.35355338649115226 0 0.35355339469539521 1 I I 0 1 0.5 forward I I I I #
face $-1 $158 $159 $51 $-1 $160 forward single #
loop $-1 $161 $162 $64 #
cone-surface $-1 -47.804057279487729 21.342347727410321 6.0370085569226912 0.70710678939079041 0 -0.70710677298230451 0.35355338649115226 0 0.35355339469539521 1 I I 0 1 0.5 forward I I I I #
face $-1 $163 $164 $39 $-1 $165 reversed single #
loop $-1 $-1 $166 $65 #
plane-surface $-1 0 0 -8.6885926624003016 0 0 1 1 0 0 forward_v I I I I #
coedge $-1 $167 $168 $169 $170 forward $66 $-1 #
face $-1 $171 $172 $40 $-1 $173 reversed single #
loop $-1 $-1 $174 $68 #
plane-surface $-1 0 -22.722568912951736 7.1885926624003016 0 -1 0 0 0 -1 forward_v I I I I #
coedge $-1 $175 $176 $177 $178 reversed $69 $-1 #
face $-1 $179 $180 $41 $-1 $181 forward single #
loop $-1 $-1 $182 $71 #
plane-surface $-1 0 22.72256891295174 7.1885926624003016 0 1 0 0 0 1 forward_v I I I I #
coedge $-1 $183 $184 $185 $186 reversed $72 $-1 #
face $-1 $187 $188 $42 $-1 $189 reversed single #
loop $-1 $-1 $190 $74 #
plane-surface $-1 -1.5175101125807089 -8.3690708348441945 90.233188739899319 0.85716730853699208 0 0.51503806187062418 0.51503806187062418 0 -0.85716730853699208 forward_v I I I I #
coedge $-1 $191 $192 $193 $194 reversed $75 $-1 #
face $-1 $-1 $195 $43 $-1 $196 forward single #
loop $-1 $197 $198 $77 #
cone-surface $-1 47.64766356175916 -9.8367171059923457 5.4189068603891517 -0.85716730853699208 0 -0.51503806187062418 0.12875951546765604 0 -0.21429182713424802 1 I I -0.70710678118654746 0.70710678118654746 0.25 forward I I I I #
loop $-1 $-1 $199 $56 #
coedge $-1 $124 $124 $200 $201 reversed $78 $-1 #
face $-1 $-1 $202 $44 $-1 $203 forward single #
loop $-1 $204 $205 $80 #
cone-surface $-1 47.64766356175916 -6.9014245636960467 5.4189068603891517 -0.85716730853699208 0 -0.51503806187062418 0.12875951546765604 0 -0.21429182713424802 1 I I -0.70710678118654746 0.70710678118654746 0.25 forward I I I I #
loop $-1 $-1 $206 $57 #
coedge $-1 $129 $129 $207 $208 reversed $81 $-1 #
face $-1 $209 $210 $45 $-1 $211 reversed single #
loop $-1 $-1 $212 $83 #
plane-surface $-1 -1.5175101125807089 14.353498078107542 90.233188739899319 0.85716730853699208 0 0.51503806187062418 0.51503806187062418 0 -0.85716730853699208 forward_v I I I I #
coedge $-1 $213 $214 $215 $216 reversed $84 $-1 #
face $-1 $-1 $217 $46 $-1 $218 forward single #
loop $-1 $219 $220 $86 #
cone-surface $-1 47.64766356175916 12.885851806959394 5.4189068603891517 -0.85716730853699208 0 -0.51503806187062418 0.12875951546765604 0 -0.21429182713424802 1 I I -0.70710678118654746 0.70710678118654746 0.25 forward I I I I #
loop $-1 $-1 $221 $59 #
coedge $-1 $138 $138 $222 $223 reversed $87 $-1 #
face $-1 $-1 $224 $47 $-1 $225 forward single #
loop $-1 $226 $227 $89 #
cone-surface $-1 47.64766356175916 15.82114434925569 5.4189068603891517 -0.85716730853699208 0 -0.51503806187062418 0.12875951546765604 0 -0.21429182713424802 1 I I -0.70710678118654746 0.70710678118654746 0.25 forward I I I I #
loop $-1 $-1 $228 $60 #
coedge $-1 $143 $143 $229 $230 reversed $90 $-1 #
face $-1 $231 $232 $48 $-1 $233 forward single #
loop $-1 $-1 $234 $92 #
plane-surface $-1 -50.455641346476625 19.27201594909819 4.3783778480097482 -0.70710678939079041 0 0.70710677298230451 0.70710677298230451 0 0.70710678939079041 forward_v I I I I #
coedge $-1 $235 $236 $237 $238 reversed $93 $-1 #
face $-1 $-1 $239 $49 $-1 $240 forward single #
loop $-1 $241 $242 $95 #
cone-surface $-1 -47.130803872336898 17.201684170786059 5.3637551653947764 0.70710678939079041 0 -0.70710677298230451 0.17677669324557613 0 0.1767766973476976 1 I I -0.70710678118654746 0.70710678118654746 0.25 forward I I I I #
loop $-1 $-1 $243 $62 #
coedge $-1 $152 $152 $244 $245 reversed $96 $-1 #
face $-1 $-1 $246 $50 $-1 $247 forward single #
loop $-1 $248 $249 $98 #
cone-surface $-1 -47.130803872336898 19.27201594909819 5.3637551653947764 0.70710678939079041 0 -0.70710677298230451 0.17677669324557613 0 0.1767766973476976 1 I I -0.70710678118654746 0.70710678118654746 0.25 forward I I I I #
loop $-1 $-1 $250 $63 #
coedge $-1 $157 $157 $251 $252 reversed $99 $-1 #
face $-1 $-1 $253 $51 $-1 $254 forward single #
loop $-1 $255 $256 $101 #
cone-surface $-1 -47.130803872336898 21.342347727410321 5.3637551653947764 0.70710678939079041 0 -0.70710677298230451 0.17677669324557613 0 0.1767766973476976 1 I I -0.70710678118654746 0.70710678118654746 0.25 forward I I I I #
loop $-1 $-1 $257 $64 #
coedge $-1 $162 $162 $258 $259 reversed $102 $-1 #
face $-1 $260 $261 $39 $-1 $262 reversed single #
loop $-1 $-1 $263 $104 #
plane-surface $-1 0 -31.2214587352222 0 0 1 0 0 0 1 forward_v I I I I #
coedge $-1 $264 $265 $266 $267 forward $105 $-1 #
coedge $-1 $268 $107 $269 $270 forward $66 $-1 #
coedge $-1 $107 $268 $271 $272 forward $66 $-1 #
coedge $-1 $273 $274 $107 $170 reversed $275 $-1 #
edge $-1 $276 -31.2214587352222 $277 31.2214587352222 $169 $278 forward 7 unknown #
face $-1 $279 $280 $40 $-1 $281 reversed single #
loop $-1 $-1 $282 $108 #
plane-surface $-1 -50.455641346476639 0 0 1 0 0 0 0 -1 forward_v I I I I #
coedge $-1 $283 $284 $285 $286 reversed $109 $-1 #
coedge $-1 $287 $111 $288 $289 reversed $69 $-1 #
coedge $-1 $111 $287 $283 $290 forward $69 $-1 #
coedge $-1 $285 $291 $111 $178 forward $292 $-1 #
edge $-1 $293 -17.735451823178714 $294 -9.2365620009082523 $177 $295 forward 7 unknown #
face $-1 $296 $297 $41 $-1 $298 reversed single #
loop $-1 $-1 $299 $112 #
plane-surface $-1 0 0 8.6885926624003016 0 0 1 1 0 0 forward_v I I I I #
coedge $-1 $300 $301 $302 $303 reversed $113 $-1 #
coedge $-1 $304 $115 $300 $305 forward $72 $-1 #
coedge $-1 $115 $304 $306 $307 reversed $72 $-1 #
coedge $-1 $308 $309 $115 $186 forward $297 $-1 #
edge $-1 $310 9.2365620009082541 $311 17.735451823178717 $185 $312 forward 7 unknown #
face $-1 $313 $314 $42 $-1 $315 forward single #
loop $-1 $-1 $316 $116 #
plane-surface $-1 84.980342474353606 -11.793578800856544 142.20634019895664 0 1 0 0.85716730853699208 0 0.51503806187062418 forward_v I I I I #
coedge $-1 $317 $318 $319 $320 reversed $117 $-1 #
coedge $-1 $192 $119 $321 $322 reversed $75 $-1 #
coedge $-1 $119 $191 $317 $323 reversed $75 $-1 #
coedge $-1 $319 $324 $119 $194 forward $314 $-1 #
edge $-1 $325 -7.9654701092998366 $326 -4.9892534393922361 $193 $327 forward 7 unknown #
loop $-1 $-1 $200 $120 #
plane-surface $-1 -1.5175101125807089 -8.3690708348441945 90.233188739899319 0.85716730853699208 0 0.51503806187062418 0.51503806187062418 0 -0.85716730853699208 forward_v I I I I #
loop $-1 $-1 $328 $77 #
coedge $-1 $198 $198 $199 $329 reversed $121 $-1 #
coedge $-1 $199 $199 $198 $329 forward $123 $-1 #
coedge $-1 $200 $200 $124 $201 forward $195 $-1 #
edge $-1 $330 0 $330 6.2831853071796004 $200 $331 forward 7 unknown #
loop $-1 $-1 $207 $125 #
plane-surface $-1 -1.5175101125807089 -8.3690708348441945 90.233188739899319 0.85716730853699208 0 0.51503806187062418 0.51503806187062418 0 -0.85716730853699208 forward_v I I I I #
loop $-1 $-1 $332 $80 #
coedge $-1 $205 $205 $206 $333 reversed $126 $-1 #
coedge $-1 $206 $206 $205 $333 forward $128 $-1 #
coedge $-1 $207 $207 $129 $208 forward $202 $-1 #
edge $-1 $334 0 $334 6.2831853071796004 $207 $335 forward 7 unknown #
face $-1 $336 $337 $45 $-1 $338 reversed single #
loop $-1 $-1 $339 $130 #
plane-surface $-1 84.980342474353606 10.928990112095192 142.20634019895664 0 1 0 0.85716730853699208 0 0.51503806187062418 forward_v I I I I #
coedge $-1 $340 $341 $342 $343 reversed $131 $-1 #
coedge $-1 $214 $133 $344 $345 reversed $84 $-1 #
coedge $-1 $133 $213 $340 $346 reversed $84 $-1 #
coedge $-1 $342 $347 $133 $216 forward $348 $-1 #
edge $-1 $349 -7.9654701092998366 $350 -4.9892534393922361 $215 $351 forward 7 unknown #
loop $-1 $-1 $222 $134 #
plane-surface $-1 -1.5175101125807089 14.353498078107542 90.233188739899319 0.85716730853699208 0 0.51503806187062418 0.51503806187062418 0 -0.85716730853699208 forward_v I I I I #
loop $-1 $-1 $352 $86 #
coedge $-1 $220 $220 $221 $353 reversed $135 $-1 #
coedge $-1 $221 $221 $220 $353 forward $137 $-1 #
coedge $-1 $222 $222 $138 $223 forward $217 $-1 #
edge $-1 $354 0 $354 6.2831853071796004 $222 $355 forward 7 unknown #
loop $-1 $-1 $229 $139 #
plane-surface $-1 -1.5175101125807089 14.353498078107542 90.233188739899319 0.85716730853699208 0 0.51503806187062418 0.51503806187062418 0 -0.85716730853699208 forward_v I I I I #
loop $-1 $-1 $356 $89 #
coedge $-1 $227 $227 $228 $357 reversed $140 $-1 #
coedge $-1 $228 $228 $227 $357 forward $142 $-1 #
coedge $-1 $229 $229 $143 $230 forward $224 $-1 #
edge $-1 $358 0 $358 6.2831853071796004 $229 $359 forward 7 unknown #
face $-1 $360 $361 $48 $-1 $362 forward single #
loop $-1 $-1 $237 $144 #
plane-surface $-1 0 0 8.6885926624003016 0 0 1 1 0 0 forward_v I I I I #
coedge $-1 $363 $364 $365 $366 reversed $145 $-1 #
coedge $-1 $236 $147 $367 $368 reversed $93 $-1 #
coedge $-1 $147 $235 $363 $369 reversed $93 $-1 #
coedge $-1 $365 $370 $147 $238 forward $232 $-1 #
edge $-1 $371 10.449705885921986 $372 14.759920600293576 $237 $373 forward 7 unknown #
loop $-1 $-1 $244 $148 #
plane-surface $-1 -50.455641346476625 19.27201594909819 4.3783778480097482 -0.70710678939079041 0 0.70710677298230451 0.70710677298230451 0 0.70710678939079041 forward_v I I I I #
loop $-1 $-1 $374 $95 #
coedge $-1 $242 $242 $243 $375 reversed $149 $-1 #
coedge $-1 $243 $243 $242 $375 forward $151 $-1 #
coedge $-1 $244 $244 $152 $245 forward $239 $-1 #
edge $-1 $376 0 $376 6.2831853071796004 $244 $377 forward 7 unknown #
loop $-1 $-1 $251 $153 #
plane-surface $-1 -50.455641346476625 19.27201594909819 4.3783778480097482 -0.70710678939079041 0 0.70710677298230451 0.70710677298230451 0 0.70710678939079041 forward_v I I I I #
loop $-1 $-1 $378 $98 #
coedge $-1 $249 $249 $250 $379 reversed $154 $-1 #
coedge $-1 $250 $250 $249 $379 forward $156 $-1 #
coedge $-1 $251 $251 $157 $252 forward $246 $-1 #
edge $-1 $380 0 $380 6.2831853071796004 $251 $381 forward 7 unknown #
loop $-1 $-1 $258 $158 #
plane-surface $-1 -50.455641346476625 19.27201594909819 4.3783778480097482 -0.70710678939079041 0 0.70710677298230451 0.70710677298230451 0 0.70710678939079041 forward_v I I I I #
loop $-1 $-1 $382 $101 #
coedge $-1 $256 $256 $257 $383 reversed $159 $-1 #
coedge $-1 $257 $257 $256 $383 forward $161 $-1 #
coedge $-1 $258 $258 $162 $259 forward $253 $-1 #
edge $-1 $384 0 $384 6.2831853071796004 $258 $385 forward 7 unknown #
face $-1 $386 $387 $39 $-1 $388 reversed single #
loop $-1 $-1 $389 $163 #
plane-surface $-1 -50.455641346476639 0 0 1 0 0 0 0 -1 forward_v I I I I #
coedge $-1 $390 $271 $391 $392 forward $164 $-1 #
coedge $-1 $393 $166 $390 $394 forward $105 $-1 #
coedge $-1 $166 $393 $395 $396 forward $105 $-1 #
coedge $-1 $274 $273 $166 $267 reversed $275 $-1 #
edge $-1 $397 -31.2214587352222 $398 31.2214587352222 $266 $399 forward 7 unknown #
coedge $-1 $168 $167 $400 $401 forward $66 $-1 #
coedge $-1 $402 $403 $167 $270 reversed $387 $-1 #
edge $-1 $277 -50.455641346476639 $404 50.455641346476639 $269 $405 forward 7 unknown #
coedge $-1 $263 $406 $168 $272 reversed $164 $-1 #
edge $-1 $407 -50.455641346476639 $276 50.455641346476639 $271 $408 forward 7 unknown #
coedge $-1 $266 $169 $406 $409 forward $275 $-1 #
coedge $-1 $169 $266 $402 $410 reversed $275 $-1 #
loop $-1 $-1 $273 $386 #
vertex $-1 $170 $411 #
vertex $-1 $170 $412 #
straight-curve $-1 50.455641346476639 0 8.6885926624003016 0 1 0 I I #
face $-1 $413 $414 $40 $-1 $415 forward single #
loop $-1 $-1 $288 $171 #
plane-surface $-1 0 -31.2214587352222 0 0 1 0 0 0 1 forward_v I I I I #
coedge $-1 $416 $417 $418 $419 forward $172 $-1 #
coedge $-1 $418 $174 $176 $290 reversed $109 $-1 #
coedge $-1 $174 $418 $420 $421 reversed $109 $-1 #
coedge $-1 $422 $177 $174 $286 forward $292 $-1 #
edge $-1 $294 2.0942963312001508 $423 5.0942963312001508 $285 $424 forward 7 unknown #
coedge $-1 $176 $175 $416 $425 reversed $69 $-1 #
coedge $-1 $426 $427 $175 $289 forward $280 $-1 #
edge $-1 $428 -50.455641346476639 $293 50.455641346476639 $288 $429 forward 7 unknown #
edge $-1 $430 -50.455641346476639 $294 50.455641346476639 $283 $431 forward 7 unknown #
coedge $-1 $177 $422 $426 $432 forward $292 $-1 #
loop $-1 $-1 $285 $413 #
vertex $-1 $289 $433 #
vertex $-1 $178 $434 #
straight-curve $-1 50.455641346476639 -13.486006912043484 5.6885926624003016 0 1 0 I I #
face $-1 $435 $436 $41 $-1 $437 reversed single #
loop $-1 $-1 $309 $179 #
plane-surface $-1 50.455641346476639 0 0 -1 0 0 0 0 1 forward_v I I I I #
coedge $-1 $438 $439 $301 $440 forward $180 $-1 #
coedge $-1 $441 $182 $183 $305 reversed $113 $-1 #
coedge $-1 $182 $441 $299 $440 reversed $113 $-1 #
coedge $-1 $442 $443 $182 $303 forward $436 $-1 #
edge $-1 $444 2.0942963312001508 $445 5.0942963312001508 $302 $446 forward 7 unknown #
coedge $-1 $184 $183 $443 $447 reversed $72 $-1 #
edge $-1 $310 -50.455641346476639 $444 50.455641346476639 $300 $448 forward 7 unknown #
coedge $-1 $449 $450 $184 $307 forward $451 $-1 #
edge $-1 $311 -50.455641346476639 $452 50.455641346476639 $306 $453 forward 7 unknown #
coedge $-1 $454 $185 $450 $455 reversed $297 $-1 #
coedge $-1 $185 $454 $441 $456 forward $297 $-1 #
vertex $-1 $186 $457 #
vertex $-1 $307 $458 #
straight-curve $-1 50.455641346476639 13.486006912043486 5.6885926624003016 0 1 0 I I #
face $-1 $-1 $459 $42 $-1 $460 reversed single #
loop $-1 $-1 $193 $187 #
plane-surface $-1 0 0 8.6885926624003016 0 0 1 1 0 0 forward_v I I I I #
coedge $-1 $461 $462 $463 $464 reversed $188 $-1 #
coedge $-1 $465 $190 $192 $323 forward $117 $-1 #
coedge $-1 $190 $465 $461 $466 forward $117 $-1 #
coedge $-1 $463 $193 $190 $320 forward $314 $-1 #
edge $-1 $326 0.76002745140974781 $467 7.6090433834344466 $319 $468 forward 7 unknown #
coedge $-1 $469 $470 $191 $322 forward $459 $-1 #
edge $-1 $471 -67.367833946513358 $325 -62.414577437078016 $321 $472 forward 7 unknown #
edge $-1 $326 95.132648276891075 $471 100.91128269295335 $192 $473 forward 7 unknown #
coedge $-1 $193 $463 $469 $474 forward $314 $-1 #
vertex $-1 $322 $475 #
vertex $-1 $194 $476 #
straight-curve $-1 42.490171237176803 -4.944562868831845 8.6885926624002963 -1 0 0 I I #
coedge $-1 $328 $328 $-1 $477 reversed $197 $-1 #
edge $-1 $478 0 $478 6.2831853071796004 $198 $479 forward 7 unknown #
vertex $-1 $201 $480 #
ellipse-curve $-1 48.967533011522818 -9.8367171059923457 6.2119644076826575 0.85716730853699208 0 0.51503806187062418 0.25751903093531209 0 -0.42858365426849604 1 I I #
coedge $-1 $332 $332 $-1 $481 reversed $204 $-1 #
edge $-1 $482 0 $482 6.2831853071796004 $205 $483 forward 7 unknown #
vertex $-1 $208 $484 #
ellipse-curve $-1 48.967533011522818 -6.9014245636960467 6.2119644076826575 0.85716730853699208 0 0.51503806187062418 0.25751903093531209 0 -0.42858365426849604 1 I I #
face $-1 $-1 $348 $45 $-1 $485 forward single #
loop $-1 $-1 $486 $209 #
plane-surface $-1 50.455641346476639 0 0 -1 0 0 0 0 1 forward_v I I I I #
coedge $-1 $487 $488 $489 $490 reversed $210 $-1 #
coedge $-1 $491 $212 $214 $346 forward $131 $-1 #
coedge $-1 $212 $491 $487 $492 forward $131 $-1 #
coedge $-1 $489 $215 $212 $343 forward $348 $-1 #
edge $-1 $350 -10.60125700506612 $493 -3.7522410730414215 $342 $494 forward 7 unknown #
coedge $-1 $495 $496 $213 $345 forward $337 $-1 #
edge $-1 $497 -67.367833946513358 $349 -62.414577437078016 $344 $498 forward 7 unknown #
edge $-1 $350 95.132648276891075 $497 100.91128269295335 $214 $499 forward 7 unknown #
coedge $-1 $215 $489 $495 $500 forward $348 $-1 #
loop $-1 $-1 $489 $336 #
vertex $-1 $345 $501 #
vertex $-1 $216 $502 #
straight-curve $-1 42.490171237176803 17.778006044119891 8.6885926624002963 -1 0 0 I I #
coedge $-1 $352 $352 $-1 $503 reversed $219 $-1 #
edge $-1 $504 0 $504 6.2831853071796004 $220 $505 forward 7 unknown #
vertex $-1 $223 $506 #
ellipse-curve $-1 48.967533011522818 12.885851806959394 6.2119644076826575 0.85716730853699208 0 0.51503806187062418 0.25751903093531209 0 -0.42858365426849604 1 I I #
coedge $-1 $356 $356 $-1 $507 reversed $226 $-1 #
edge $-1 $508 0 $508 6.2831853071796004 $227 $509 forward 7 unknown #
vertex $-1 $230 $510 #
ellipse-curve $-1 48.967533011522818 15.82114434925569 6.2119644076826575 0.85716730853699208 0 0.51503806187062418 0.25751903093531209 0 -0.42858365426849604 1 I I #
face $-1 $-1 $511 $48 $-1 $512 reversed single #
loop $-1 $-1 $513 $231 #
plane-surface $-1 0 22.72256891295174 7.1885926624003016 0 1 0 0 0 1 forward_v I I I I #
coedge $-1 $514 $234 $236 $369 forward $145 $-1 #
coedge $-1 $234 $514 $513 $515 forward $145 $-1 #
coedge $-1 $516 $237 $234 $366 forward $232 $-1 #
edge $-1 $372 6.1854550106955486 $517 13.086560938402641 $365 $518 forward 7 unknown #
coedge $-1 $519 $520 $235 $368 forward $511 $-1 #
edge $-1 $521 -33.488336807254775 $371 -29.178121992864206 $367 $522 forward 7 unknown #
edge $-1 $372 -6.0955641765284581 $521 2.0097183471152325e-014 $236 $523 forward 7 unknown #
coedge $-1 $237 $516 $519 $524 forward $232 $-1 #
vertex $-1 $368 $525 #
vertex $-1 $238 $526 #
straight-curve $-1 -60.905347232398626 15.821462985244644 8.6885926624003034 1 0 0 I I #
coedge $-1 $374 $374 $-1 $527 reversed $241 $-1 #
edge $-1 $528 0 $528 6.2831853071796004 $242 $529 forward 7 unknown #
vertex $-1 $245 $530 #
ellipse-curve $-1 -48.300533989290848 17.201684170786059 6.533485255205016 -0.70710678939079041 0 0.70710677298230451 0.35355338649115226 0 0.35355339469539521 1 I I #
coedge $-1 $378 $378 $-1 $531 reversed $248 $-1 #
edge $-1 $532 0 $532 6.2831853071796004 $249 $533 forward 7 unknown #
vertex $-1 $252 $534 #
ellipse-curve $-1 -48.300533989290848 19.27201594909819 6.533485255205016 -0.70710678939079041 0 0.70710677298230451 0.35355338649115226 0 0.35355339469539521 1 I I #
coedge $-1 $382 $382 $-1 $535 reversed $255 $-1 #
edge $-1 $536 0 $536 6.2831853071796004 $256 $537 forward 7 unknown #
vertex $-1 $259 $538 #
ellipse-curve $-1 -48.300533989290848 21.342347727410321 6.533485255205016 -0.70710678939079041 0 0.70710677298230451 0.35355338649115226 0 0.35355339469539521 1 I I #
face $-1 $-1 $275 $39 $-1 $539 reversed single #
loop $-1 $-1 $402 $260 #
plane-surface $-1 0 31.2214587352222 0 0 -1 0 0 0 -1 forward_v I I I I #
coedge $-1 $540 $400 $403 $541 forward $261 $-1 #
coedge $-1 $406 $263 $264 $394 reversed $164 $-1 #
coedge $-1 $400 $540 $263 $392 reversed $261 $-1 #
edge $-1 $407 -8.6885926624003016 $542 8.6885926624003016 $391 $543 forward 7 unknown #
coedge $-1 $265 $264 $540 $544 forward $105 $-1 #
edge $-1 $398 -50.455641346476639 $542 50.455641346476639 $390 $545 forward 7 unknown #
coedge $-1 $403 $402 $265 $396 reversed $387 $-1 #
edge $-1 $546 -50.455641346476639 $397 50.455641346476639 $395 $547 forward 7 unknown #
vertex $-1 $267 $548 #
vertex $-1 $409 $549 #
straight-curve $-1 50.455641346476639 0 -8.6885926624003016 0 -1 0 I I #
coedge $-1 $389 $391 $268 $401 reversed $261 $-1 #
edge $-1 $404 -31.2214587352222 $407 31.2214587352222 $400 $550 forward 7 unknown #
coedge $-1 $395 $269 $274 $410 forward $387 $-1 #
coedge $-1 $269 $395 $389 $541 reversed $387 $-1 #
vertex $-1 $270 $551 #
straight-curve $-1 0 31.2214587352222 8.6885926624003016 -1 0 0 I I #
coedge $-1 $271 $390 $273 $409 reversed $164 $-1 #
vertex $-1 $401 $552 #
straight-curve $-1 0 -31.2214587352222 8.6885926624003016 1 0 0 I I #
edge $-1 $276 -8.6885926624003016 $398 8.6885926624003016 $273 $553 forward 7 unknown #
edge $-1 $277 -8.6885926624003016 $397 8.6885926624003016 $274 $554 forward 7 unknown #
point $-1 50.455641346476639 -31.2214587352222 8.6885926624003016 #
point $-1 50.455641346476639 31.2214587352222 8.6885926624003016 #
face $-1 $-1 $292 $40 $-1 $555 reversed single #
loop $-1 $-1 $420 $279 #
plane-surface $-1 0 0 8.6885926624003016 0 0 1 1 0 0 forward_v I I I I #
coedge $-1 $556 $282 $287 $425 forward $172 $-1 #
coedge $-1 $282 $556 $557 $558 reversed $172 $-1 #
coedge $-1 $284 $283 $282 $419 reversed $109 $-1 #
edge $-1 $559 -5.0942963312001508 $430 -2.0942963312001508 $282 $560 forward 7 unknown #
coedge $-1 $557 $561 $284 $421 forward $414 $-1 #
edge $-1 $423 -50.455641346476639 $559 50.455641346476639 $420 $562 forward 7 unknown #
coedge $-1 $291 $285 $561 $563 reversed $292 $-1 #
vertex $-1 $286 $564 #
straight-curve $-1 50.455641346476639 -22.722568912951736 3.5942963312001508 0 0 1 I I #
edge $-1 $430 9.2365620009082523 $428 17.735451823178714 $416 $565 forward 7 unknown #
coedge $-1 $566 $288 $291 $432 reversed $280 $-1 #
coedge $-1 $288 $566 $556 $567 forward $280 $-1 #
vertex $-1 $289 $568 #
straight-curve $-1 0 -31.2214587352222 5.6885926624003016 1 0 0 I I #
vertex $-1 $425 $569 #
straight-curve $-1 0 -22.722568912951736 5.6885926624003016 1 0 0 I I #
edge $-1 $570 -8.6885926624003016 $293 -5.6885926624003016 $291 $571 forward 7 unknown #
point $-1 50.455641346476639 -31.2214587352222 5.6885926624003016 #
point $-1 50.455641346476639 -22.722568912951736 5.6885926624003016 #
face $-1 $-1 $451 $41 $-1 $572 reversed single #
loop $-1 $-1 $302 $296 #
plane-surface $-1 -50.455641346476639 0 0 1 0 0 0 0 -1 forward_v I I I I #
coedge $-1 $573 $299 $454 $574 forward $180 $-1 #
coedge $-1 $299 $573 $442 $575 forward $180 $-1 #
edge $-1 $445 -50.455641346476639 $576 50.455641346476639 $299 $577 forward 7 unknown #
coedge $-1 $301 $300 $309 $456 reversed $113 $-1 #
coedge $-1 $578 $302 $439 $575 reversed $436 $-1 #
coedge $-1 $302 $578 $304 $447 forward $436 $-1 #
vertex $-1 $447 $579 #
vertex $-1 $303 $580 #
straight-curve $-1 -50.455641346476639 22.72256891295174 3.5942963312001508 0 0 1 I I #
edge $-1 $452 -17.735451823178717 $444 -9.2365620009082541 $443 $581 forward 7 unknown #
straight-curve $-1 0 22.72256891295174 5.6885926624003016 -1 0 0 I I #
coedge $-1 $582 $306 $578 $583 reversed $451 $-1 #
coedge $-1 $306 $582 $308 $455 forward $451 $-1 #
loop $-1 $-1 $306 $435 #
vertex $-1 $307 $584 #
straight-curve $-1 0 31.2214587352222 5.6885926624003016 -1 0 0 I I #
coedge $-1 $309 $308 $438 $574 reversed $297 $-1 #
edge $-1 $585 -8.6885926624003016 $311 -5.6885926624003016 $308 $586 forward 7 unknown #
edge $-1 $576 -5.0942963312001508 $310 -2.0942963312001508 $309 $587 forward 7 unknown #
point $-1 50.455641346476639 22.72256891295174 5.6885926624003016 #
point $-1 50.455641346476639 31.221458735222203 5.6885926624003016 #
loop $-1 $-1 $321 $313 #
plane-surface $-1 50.455641346476639 0 0 -1 0 0 0 0 1 forward_v I I I I #
coedge $-1 $462 $316 $318 $466 reversed $188 $-1 #
coedge $-1 $316 $461 $588 $589 reversed $188 $-1 #
coedge $-1 $324 $319 $316 $464 forward $314 $-1 #
edge $-1 $467 4.9892534393922361 $590 7.9654701092998366 $463 $591 forward 7 unknown #
coedge $-1 $318 $317 $470 $592 reversed $117 $-1 #
edge $-1 $593 -100.91128269295335 $467 -95.132648276891075 $461 $594 forward 7 unknown #
vertex $-1 $320 $595 #
straight-curve $-1 47.479424676569032 -4.1845354174220972 8.6885926624003034 0 -1 0 I I #
coedge $-1 $588 $321 $324 $474 reversed $459 $-1 #
coedge $-1 $321 $588 $465 $592 forward $459 $-1 #
vertex $-1 $322 $596 #
straight-curve $-1 50.455641346476639 -4.944562868831845 71.103170099478319 0 0 1 I I #
straight-curve $-1 -1.5175101125807089 -4.944562868831845 90.233188739899319 0.51503806187062418 0 -0.85716730853699208 I I #
edge $-1 $590 -11.793578800856544 $325 -4.944562868831845 $469 $597 forward 7 unknown #
point $-1 50.455641346476639 -4.944562868831845 8.6885926624003016 #
point $-1 47.479424676569039 -4.944562868831845 8.6885926624002963 #
edge $-1 $598 1 $598 0 $328 $-1 forward 7 unknown #
vertex $-1 $329 $599 #
ellipse-curve $-1 47.861955388893406 -9.8367171059923457 5.5476663758568074 0.85716730853699208 0 0.51503806187062418 0.25751903093531209 0 -0.42858365426849604 1 I I #
point $-1 49.225052042458159 -9.8367171059923457 5.7833807534141783 #
edge $-1 $600 1 $600 0 $332 $-1 forward 7 unknown #
vertex $-1 $333 $601 #
ellipse-curve $-1 47.861955388893406 -6.9014245636960467 5.5476663758568074 0.85716730853699208 0 0.51503806187062418 0.25751903093531209 0 -0.42858365426849604 1 I I #
point $-1 49.225052042458159 -6.9014245636960467 5.7833807534141783 #
plane-surface $-1 0 0 8.6885926624003016 0 0 1 1 0 0 forward_v I I I I #
coedge $-1 $496 $495 $488 $602 forward $337 $-1 #
coedge $-1 $488 $339 $341 $492 reversed $210 $-1 #
coedge $-1 $339 $487 $486 $602 reversed $210 $-1 #
coedge $-1 $347 $342 $339 $490 forward $348 $-1 #
edge $-1 $493 4.9892534393922361 $603 7.9654701092998366 $489 $604 forward 7 unknown #
coedge $-1 $341 $340 $496 $605 reversed $131 $-1 #
edge $-1 $606 -100.91128269295335 $493 -95.132648276891075 $487 $607 forward 7 unknown #
vertex $-1 $343 $608 #
straight-curve $-1 47.479424676569032 7.1767490390537709 8.6885926624003034 0 -1 0 I I #
coedge $-1 $486 $344 $347 $500 reversed $337 $-1 #
coedge $-1 $344 $486 $491 $605 forward $337 $-1 #
vertex $-1 $345 $609 #
straight-curve $-1 50.455641346476639 17.778006044119891 71.103170099478319 0 0 1 I I #
straight-curve $-1 -1.5175101125807089 17.778006044119891 90.233188739899319 0.51503806187062418 0 -0.85716730853699208 I I #
edge $-1 $603 10.928990112095192 $349 17.778006044119891 $495 $610 forward 7 unknown #
point $-1 50.455641346476639 17.778006044119891 8.6885926624003016 #
point $-1 47.479424676569039 17.778006044119891 8.6885926624002963 #
edge $-1 $611 1 $611 0 $352 $-1 forward 7 unknown #
vertex $-1 $353 $612 #
ellipse-curve $-1 47.861955388893406 12.885851806959394 5.5476663758568074 0.85716730853699208 0 0.51503806187062418 0.25751903093531209 0 -0.42858365426849604 1 I I #
point $-1 49.225052042458159 12.885851806959394 5.7833807534141783 #
edge $-1 $613 1 $613 0 $356 $-1 forward 7 unknown #
vertex $-1 $357 $614 #
ellipse-curve $-1 47.861955388893406 15.82114434925569 5.5476663758568074 0.85716730853699208 0 0.51503806187062418 0.25751903093531209 0 -0.42858365426849604 1 I I #
point $-1 49.225052042458159 15.82114434925569 5.7833807534141783 #
loop $-1 $-1 $367 $360 #
plane-surface $-1 -50.455641346476639 0 0 1 0 0 0 0 -1 forward_v I I I I #
coedge $-1 $615 $616 $364 $515 reversed $361 $-1 #
coedge $-1 $364 $363 $520 $617 reversed $145 $-1 #
edge $-1 $618 -2.0097183471152325e-014 $517 6.0955641765284581 $513 $619 forward 7 unknown #
coedge $-1 $370 $365 $616 $620 forward $232 $-1 #
vertex $-1 $620 $621 #
straight-curve $-1 -46.14542663210505 9.636007974549095 8.6885926624002998 0 1 0 I I #
coedge $-1 $622 $367 $370 $524 reversed $511 $-1 #
coedge $-1 $367 $622 $514 $617 forward $511 $-1 #
vertex $-1 $368 $623 #
straight-curve $-1 -50.455641346476639 15.821462985244644 37.866714655264509 0 0 1 I I #
straight-curve $-1 -50.455641346476625 15.821462985244644 4.3783778480097482 -0.70710677298230451 0 -0.70710678939079041 I I #
edge $-1 $624 -22.72256891295174 $371 -15.821462985244644 $519 $625 forward 7 unknown #
point $-1 -50.455641346476639 15.821462985244644 8.6885926624003016 #
point $-1 -46.14542663210505 15.821462985244644 8.6885926624003016 #
edge $-1 $626 1 $626 0 $374 $-1 forward 7 unknown #
vertex $-1 $375 $627 #
ellipse-curve $-1 -47.307580569684596 17.201684170786059 5.5405318586403522 -0.70710678939079041 0 0.70710677298230451 0.35355338649115226 0 0.35355339469539521 1 I I #
point $-1 -47.946980602799705 17.201684170786059 6.8870386499004246 #
edge $-1 $628 1 $628 0 $378 $-1 forward 7 unknown #
vertex $-1 $379 $629 #
ellipse-curve $-1 -47.307580569684596 19.27201594909819 5.5405318586403522 -0.70710678939079041 0 0.70710677298230451 0.35355338649115226 0 0.35355339469539521 1 I I #
point $-1 -47.946980602799705 19.27201594909819 6.8870386499004246 #
edge $-1 $630 1 $630 0 $382 $-1 forward 7 unknown #
vertex $-1 $383 $631 #
ellipse-curve $-1 -47.307580569684596 21.342347727410321 5.5405318586403522 -0.70710678939079041 0 0.70710677298230451 0.35355338649115226 0 0.35355339469539521 1 I I #
point $-1 -47.946980602799705 21.342347727410321 6.8870386499004246 #
plane-surface $-1 50.455641346476639 0 0 -1 0 0 0 0 1 forward_v I I I I #
coedge $-1 $391 $389 $393 $544 reversed $261 $-1 #
edge $-1 $404 -8.6885926624003016 $546 8.6885926624003016 $403 $632 forward 7 unknown #
vertex $-1 $544 $633 #
straight-curve $-1 -50.455641346476639 -31.2214587352222 0 0 0 -1 I I #
edge $-1 $542 -31.2214587352222 $546 31.2214587352222 $540 $634 forward 7 unknown #
straight-curve $-1 0 -31.2214587352222 -8.6885926624003016 -1 0 0 I I #
vertex $-1 $396 $635 #
straight-curve $-1 0 31.2214587352222 -8.6885926624003016 1 0 0 I I #
point $-1 50.455641346476639 31.2214587352222 -8.6885926624003016 #
point $-1 50.455641346476639 -31.2214587352222 -8.6885926624003016 #
straight-curve $-1 -50.455641346476639 0 8.6885926624003016 0 -1 0 I I #
point $-1 -50.455641346476639 31.2214587352222 8.6885926624003016 #
point $-1 -50.455641346476639 -31.2214587352222 8.6885926624003016 #
straight-curve $-1 50.455641346476639 -31.2214587352222 0 0 0 -1 I I #
straight-curve $-1 50.455641346476639 31.2214587352222 0 0 0 -1 I I #
plane-surface $-1 50.455641346476639 0 0 -1 0 0 0 0 1 forward_v I I I I #
coedge $-1 $417 $416 $427 $567 reversed $172 $-1 #
coedge $-1 $636 $420 $417 $558 forward $414 $-1 #
edge $-1 $559 22.722568912951736 $637 31.2214587352222 $417 $638 forward 7 unknown #
vertex $-1 $558 $639 #
straight-curve $-1 -50.455641346476639 -22.722568912951736 3.5942963312001508 0 0 -1 I I #
coedge $-1 $420 $636 $422 $563 forward $414 $-1 #
straight-curve $-1 0 -22.722568912951736 8.6885926624003016 -1 0 0 I I #
edge $-1 $570 -31.2214587352222 $423 -22.722568912951736 $422 $640 forward 7 unknown #
point $-1 50.455641346476639 -22.722568912951736 8.6885926624003016 #
straight-curve $-1 -50.455641346476639 -13.486006912043484 5.6885926624003016 0 -1 0 I I #
coedge $-1 $427 $426 $636 $641 reversed $280 $-1 #
edge $-1 $637 -8.6885926624003016 $428 -5.6885926624003016 $556 $642 forward 7 unknown #
point $-1 -50.455641346476639 -31.2214587352222 5.6885926624003016 #
point $-1 -50.455641346476639 -22.722568912951736 5.6885926624003016 #
vertex $-1 $563 $643 #
straight-curve $-1 50.455641346476639 -31.2214587352222 0 0 0 -1 I I #
plane-surface $-1 0 31.2214587352222 0 0 -1 0 0 0 -1 forward_v I I I I #
coedge $-1 $439 $438 $582 $644 forward $180 $-1 #
edge $-1 $576 22.72256891295174 $585 31.2214587352222 $454 $645 forward 7 unknown #
edge $-1 $646 -31.2214587352222 $445 -22.72256891295174 $442 $647 forward 7 unknown #
vertex $-1 $574 $648 #
straight-curve $-1 0 22.72256891295174 8.6885926624003016 1 0 0 I I #
coedge $-1 $443 $442 $449 $583 forward $436 $-1 #
point $-1 -50.455641346476639 22.72256891295174 5.6885926624003016 #
point $-1 -50.455641346476639 22.72256891295174 8.6885926624003016 #
straight-curve $-1 -50.455641346476639 13.486006912043486 5.6885926624003016 0 -1 0 I I #
coedge $-1 $450 $449 $573 $644 reversed $451 $-1 #
edge $-1 $646 -8.6885926624003016 $452 -5.6885926624003016 $449 $649 forward 7 unknown #
point $-1 -50.455641346476639 31.221458735222203 5.6885926624003016 #
vertex $-1 $574 $650 #
straight-curve $-1 50.455641346476639 31.2214587352222 0 0 0 -1 I I #
straight-curve $-1 50.455641346476639 22.72256891295174 3.5942963312001508 0 0 -1 I I #
coedge $-1 $470 $469 $462 $589 forward $459 $-1 #
edge $-1 $590 62.414577437078016 $593 67.367833946513358 $588 $651 forward 7 unknown #
vertex $-1 $474 $652 #
straight-curve $-1 42.490171237176803 -11.793578800856544 8.6885926624002963 1 0 0 I I #
edge $-1 $593 -7.6090433834344466 $471 -0.76002745140974781 $470 $653 forward 7 unknown #
vertex $-1 $592 $654 #
straight-curve $-1 -1.5175101125807089 -11.793578800856544 90.233188739899319 -0.51503806187062418 0 0.85716730853699208 I I #
point $-1 47.479424676569039 -11.793578800856544 8.6885926624002963 #
point $-1 50.455641346476639 -4.944562868831845 3.7353361529649618 #
straight-curve $-1 50.455641346476639 0 8.6885926624003016 0 1 0 I I #
vertex $-1 $477 $655 #
point $-1 48.11947441982872 -9.8367171059923457 5.1190827215883115 #
vertex $-1 $481 $656 #
point $-1 48.11947441982872 -6.9014245636960467 5.1190827215883115 #
edge $-1 $603 62.414577437078016 $606 67.367833946513358 $486 $657 forward 7 unknown #
vertex $-1 $500 $658 #
straight-curve $-1 42.490171237176803 10.928990112095192 8.6885926624002963 1 0 0 I I #
edge $-1 $606 3.7522410730414215 $497 10.60125700506612 $496 $659 forward 7 unknown #
vertex $-1 $605 $660 #
straight-curve $-1 -1.5175101125807089 10.928990112095192 90.233188739899319 -0.51503806187062418 0 0.85716730853699208 I I #
point $-1 47.479424676569039 10.928990112095192 8.6885926624002963 #
point $-1 50.455641346476639 17.778006044119891 3.7353361529649618 #
straight-curve $-1 50.455641346476639 0 8.6885926624003016 0 1 0 I I #
vertex $-1 $503 $661 #
point $-1 48.11947441982872 12.885851806959394 5.1190827215883115 #
vertex $-1 $507 $662 #
point $-1 48.11947441982872 15.82114434925569 5.1190827215883115 #
coedge $-1 $616 $513 $622 $663 reversed $361 $-1 #
coedge $-1 $513 $615 $516 $620 reversed $361 $-1 #
edge $-1 $618 -13.086560938402641 $521 -6.1854550106955486 $520 $664 forward 7 unknown #
vertex $-1 $663 $665 #
straight-curve $-1 -50.455641346476625 22.722568912951736 4.3783778480097482 0.70710677298230451 0 0.70710678939079041 I I #
edge $-1 $517 46.14542663210505 $624 50.455641346476639 $516 $666 forward 7 unknown #
point $-1 -46.14542663210505 22.722568912951736 8.6885926624003016 #
coedge $-1 $520 $519 $615 $663 forward $511 $-1 #
point $-1 -50.455641346476639 15.821462985244644 4.378377848009734 #
vertex $-1 $524 $667 #
straight-curve $-1 -50.455641346476639 0 8.6885926624003016 0 -1 0 I I #
vertex $-1 $527 $668 #
point $-1 -46.954027183193446 17.201684170786059 5.8940852533357475 #
vertex $-1 $531 $669 #
point $-1 -46.954027183193446 19.27201594909819 5.8940852533357475 #
vertex $-1 $535 $670 #
point $-1 -46.954027183193446 21.342347727410321 5.8940852533357475 #
straight-curve $-1 -50.455641346476639 31.2214587352222 0 0 0 -1 I I #
point $-1 -50.455641346476639 -31.2214587352222 -8.6885926624003016 #
straight-curve $-1 -50.455641346476639 0 -8.6885926624003016 0 1 0 I I #
point $-1 -50.455641346476639 31.2214587352222 -8.6885926624003016 #
coedge $-1 $561 $557 $566 $641 forward $414 $-1 #
vertex $-1 $558 $671 #
straight-curve $-1 -50.455641346476639 0 8.6885926624003016 0 -1 0 I I #
point $-1 -50.455641346476639 -22.722568912951736 8.6885926624003016 #
straight-curve $-1 50.455641346476639 0 8.6885926624003016 0 1 0 I I #
edge $-1 $637 -50.455641346476639 $570 50.455641346476639 $566 $672 forward 7 unknown #
straight-curve $-1 -50.455641346476639 -31.2214587352222 0 0 0 -1 I I #
point $-1 50.455641346476639 -31.2214587352222 8.6885926624003016 #
edge $-1 $585 -50.455641346476639 $646 50.455641346476639 $582 $673 forward 7 unknown #
straight-curve $-1 50.455641346476639 0 8.6885926624003016 0 1 0 I I #
vertex $-1 $644 $674 #
straight-curve $-1 -50.455641346476639 0 8.6885926624003016 0 -1 0 I I #
point $-1 50.455641346476639 22.72256891295174 8.6885926624003016 #
straight-curve $-1 -50.455641346476639 31.2214587352222 0 0 0 -1 I I #
point $-1 50.455641346476639 31.2214587352222 8.6885926624003016 #
straight-curve $-1 50.455641346476639 -11.793578800856544 71.103170099478319 0 0 -1 I I #
point $-1 50.455641346476639 -11.793578800856544 8.6885926624003016 #
straight-curve $-1 50.455641346476639 -4.1845354174220972 3.7353361529649547 0 1 0 I I #
point $-1 50.455641346476639 -11.793578800856544 3.7353361529649618 #
point $-1 47.433371734624913 -9.8367171059923457 5.290147344921496 #
point $-1 47.433371734624913 -6.9014245636960467 5.290147344921496 #
straight-curve $-1 50.455641346476639 10.928990112095192 71.103170099478319 0 0 -1 I I #
point $-1 50.455641346476639 10.928990112095192 8.6885926624003016 #
straight-curve $-1 50.455641346476639 7.1767490390537709 3.7353361529649547 0 1 0 I I #
point $-1 50.455641346476639 10.928990112095192 3.7353361529649618 #
point $-1 47.433371734624913 12.885851806959394 5.290147344921496 #
point $-1 47.433371734624913 15.82114434925569 5.290147344921496 #
edge $-1 $624 29.178121992864206 $618 33.488336807254775 $622 $675 forward 7 unknown #
straight-curve $-1 -50.455641346476639 9.636007974549095 4.378377848009734 0 -1 0 I I #
point $-1 -50.455641346476639 22.722568912951736 4.378377848009734 #
straight-curve $-1 0 22.72256891295174 8.6885926624003016 -1 0 0 I I #
point $-1 -50.455641346476639 22.72256891295174 8.6885926624003016 #
point $-1 -46.9540271749892 17.201684170786059 5.1869784721492005 #
point $-1 -46.9540271749892 19.27201594909819 5.1869784721492005 #
point $-1 -46.9540271749892 21.342347727410321 5.1869784721492005 #
point $-1 -50.455641346476639 -31.2214587352222 8.6885926624003016 #
straight-curve $-1 0 -31.2214587352222 8.6885926624003016 1 0 0 I I #
straight-curve $-1 0 31.2214587352222 8.6885926624003016 -1 0 0 I I #
point $-1 -50.455641346476639 31.2214587352222 8.6885926624003016 #
straight-curve $-1 -50.455641346476639 22.722568912951736 37.866714655264509 0 0 -1 I I #
End-of-ACIS-data 