500 0 8 0           
7 Unknown 11 ACIS 5.0 NT 24 Fri Mar 26 19:28:03 1999 
-1 9.9999999999999995e-007 1e-010 
body $-1 $8 $-1 $9 #
body $-1 $10 $-1 $11 #
body $-1 $12 $-1 $13 #
body $-1 $14 $-1 $15 #
body $-1 $16 $-1 $17 #
body $-1 $18 $-1 $19 #
body $-1 $20 $-1 $21 #
body $-1 $22 $-1 $23 #
lump $-1 $-1 $24 $0 #
transform $-1 1 0 0 0 1 0 0 0 1 45.540940580462049 18.227216996872695 8.3059080962188983 1 rotate no_reflect no_shear #
lump $-1 $-1 $25 $1 #
transform $-1 1 0 0 0 1 0 0 0 1 45.540940580462049 18.227216996872695 8.3059080962188983 1 rotate no_reflect no_shear #
lump $-1 $-1 $26 $2 #
transform $-1 1 0 0 0 1 0 0 0 1 45.540940580462049 18.227216996872695 8.3059080962188983 1 rotate no_reflect no_shear #
lump $-1 $-1 $27 $3 #
transform $-1 1 0 0 0 1 0 0 0 1 45.540940580462049 18.227216996872695 8.3059080962188983 1 rotate no_reflect no_shear #
lump $-1 $-1 $28 $4 #
transform $-1 1 0 0 0 1 0 0 0 1 45.540940580462049 18.227216996872695 8.3059080962188983 1 rotate no_reflect no_shear #
lump $-1 $-1 $29 $5 #
transform $-1 1 0 0 0 1 0 0 0 1 45.540940580462049 18.227216996872695 8.3059080962188983 1 rotate no_reflect no_shear #
lump $-1 $-1 $30 $6 #
transform $-1 1 0 0 0 1 0 0 0 1 45.540940580462049 18.227216996872695 8.3059080962188983 1 rotate no_reflect no_shear #
lump $-1 $-1 $31 $7 #
transform $-1 1 0 0 0 1 0 0 0 1 45.540940580462049 18.227216996872695 8.3059080962188983 1 rotate no_reflect no_shear #
shell $-1 $-1 $-1 $32 $-1 $8 #
shell $-1 $-1 $-1 $33 $-1 $10 #
shell $-1 $-1 $-1 $34 $-1 $12 #
shell $-1 $-1 $-1 $35 $-1 $14 #
shell $-1 $-1 $-1 $36 $-1 $16 #
shell $-1 $-1 $-1 $37 $-1 $18 #
shell $-1 $-1 $-1 $38 $-1 $20 #
shell $-1 $-1 $-1 $39 $-1 $22 #
face $-1 $40 $41 $24 $-1 $42 forward single #
face $-1 $43 $44 $25 $-1 $45 forward single #
face $-1 $46 $47 $26 $-1 $48 reversed single #
face $-1 $49 $50 $27 $-1 $51 forward single #
face $-1 $52 $53 $28 $-1 $54 forward single #
face $-1 $55 $56 $29 $-1 $57 reversed single #
face $-1 $58 $59 $30 $-1 $60 forward single #
face $-1 $61 $62 $31 $-1 $63 forward single #
face $-1 $64 $65 $24 $-1 $66 reversed single #
loop $-1 $-1 $67 $32 #
plane-surface $-1 0 0 8.3059080962188983 0 0 1 1 0 0 forward_v I I I I #
face $-1 $68 $69 $25 $-1 $70 reversed single #
loop $-1 $-1 $71 $33 #
plane-surface $-1 -45.540940580462049 0 0 1 0 0 0 0 -1 forward_v I I I I #
face $-1 $72 $73 $26 $-1 $74 reversed single #
loop $-1 $-1 $75 $34 #
plane-surface $-1 -13.971689253072931 55.274883902519974 93.434997147662614 1 0 0 0 -0.69465837861970381 -0.71933979245794832 forward_v I I I I #
face $-1 $76 $77 $27 $-1 $78 forward single #
loop $-1 $79 $80 $35 #
cone-surface $-1 -8.498772075381865 14.415896517866932 4.5657648866554457 0 -0.69465837861970381 -0.71933979245794832 1.5 0 0 1 I I 0 1 1.5 forward I I I I #
face $-1 $81 $82 $28 $-1 $83 forward single #
loop $-1 $84 $85 $36 #
cone-surface $-1 -0.28939630884526224 14.415896517866932 4.5657648866554457 0 -0.69465837861970381 -0.71933979245794832 1.5 0 0 1 I I 0 1 1.5 forward I I I I #
face $-1 $86 $87 $29 $-1 $88 reversed single #
loop $-1 $-1 $89 $37 #
plane-surface $-1 26.385730458543307 55.274883902519974 93.434997147662614 1 0 0 0 -0.69465837861970381 -0.71933979245794832 forward_v I I I I #
face $-1 $90 $91 $30 $-1 $92 forward single #
loop $-1 $93 $94 $38 #
cone-surface $-1 31.858647636234366 14.415896517866932 4.5657648866554457 0 -0.69465837861970381 -0.71933979245794832 1.5 0 0 1 I I 0 1 1.5 forward I I I I #
face $-1 $95 $96 $31 $-1 $97 forward single #
loop $-1 $98 $99 $39 #
cone-surface $-1 40.068023402770976 14.415896517866932 4.5657648866554457 0 -0.69465837861970381 -0.71933979245794832 1.5 0 0 1 I I 0 1 1.5 forward I I I I #
face $-1 $100 $101 $24 $-1 $102 reversed single #
loop $-1 $-1 $103 $40 #
plane-surface $-1 0 0 -8.3059080962188983 0 0 1 1 0 0 forward_v I I I I #
coedge $-1 $104 $105 $106 $107 forward $41 $-1 #
face $-1 $108 $109 $25 $-1 $110 forward single #
loop $-1 $-1 $111 $43 #
plane-surface $-1 0 18.227216996872695 0 0 -1 0 0 0 -1 forward_v I I I I #
coedge $-1 $112 $113 $114 $115 forward $44 $-1 #
face $-1 $116 $117 $26 $-1 $118 reversed single #
loop $-1 $-1 $119 $46 #
plane-surface $-1 -4.3940841921135601 -7.9959079863601019 27.916175656683961 0 0.69465837861970381 0.71933979245794832 1 0 0 forward_v I I I I #
coedge $-1 $120 $121 $122 $123 reversed $47 $-1 #
face $-1 $-1 $124 $27 $-1 $125 forward single #
loop $-1 $126 $127 $49 #
cone-surface $-1 -8.498772075381865 13.041631716827968 3.1426720583130869 0 -0.69465837861970381 -0.71933979245794832 0.75 0 0 1 I I -0.70710678118654724 0.70710678118654768 0.75 forward I I I I #
loop $-1 $-1 $128 $35 #
coedge $-1 $80 $80 $129 $130 reversed $50 $-1 #
face $-1 $-1 $131 $28 $-1 $132 forward single #
loop $-1 $133 $134 $52 #
cone-surface $-1 -0.28939630884526224 13.041631716827968 3.1426720583130869 0 -0.69465837861970381 -0.71933979245794832 0.75 0 0 1 I I -0.70710678118654724 0.70710678118654768 0.75 forward I I I I #
loop $-1 $-1 $135 $36 #
coedge $-1 $85 $85 $136 $137 reversed $53 $-1 #
face $-1 $138 $139 $29 $-1 $140 forward single #
loop $-1 $-1 $141 $55 #
plane-surface $-1 35.963335519502678 -7.9959079863601019 27.916175656683961 0 0.69465837861970381 0.71933979245794832 1 0 0 forward_v I I I I #
coedge $-1 $142 $143 $144 $145 reversed $56 $-1 #
face $-1 $-1 $146 $30 $-1 $147 forward single #
loop $-1 $148 $149 $58 #
cone-surface $-1 31.858647636234366 13.041631716827968 3.1426720583130869 0 -0.69465837861970381 -0.71933979245794832 0.75 0 0 1 I I -0.70710678118654724 0.70710678118654768 0.75 forward I I I I #
loop $-1 $-1 $150 $38 #
coedge $-1 $94 $94 $151 $152 reversed $59 $-1 #
face $-1 $-1 $153 $31 $-1 $154 forward single #
loop $-1 $155 $156 $61 #
cone-surface $-1 40.068023402770976 13.041631716827968 3.1426720583130869 0 -0.69465837861970381 -0.71933979245794832 0.75 0 0 1 I I -0.70710678118654724 0.70710678118654768 0.75 forward I I I I #
loop $-1 $-1 $157 $39 #
coedge $-1 $99 $99 $158 $159 reversed $62 $-1 #
face $-1 $160 $161 $24 $-1 $162 reversed single #
loop $-1 $-1 $163 $64 #
plane-surface $-1 0 -18.227216996872695 0 0 1 0 0 0 1 forward_v I I I I #
coedge $-1 $164 $165 $166 $167 forward $65 $-1 #
coedge $-1 $168 $67 $169 $170 forward $41 $-1 #
coedge $-1 $67 $168 $171 $172 forward $41 $-1 #
coedge $-1 $173 $174 $67 $107 reversed $175 $-1 #
edge $-1 $176 -18.227216996872695 $177 18.227216996872695 $106 $178 forward 7 unknown #
face $-1 $179 $180 $25 $-1 $181 reversed single #
loop $-1 $-1 $114 $68 #
plane-surface $-1 -50.724461449307867 0 1.1076430434962763 0 0 1 1 0 0 forward_v I I I I #
coedge $-1 $182 $183 $113 $184 forward $69 $-1 #
coedge $-1 $185 $71 $186 $187 reversed $44 $-1 #
coedge $-1 $71 $185 $111 $184 reversed $44 $-1 #
coedge $-1 $188 $189 $71 $115 reversed $109 $-1 #
edge $-1 $190 -18.227216996872695 $191 18.227216996872695 $114 $192 forward 7 unknown #
face $-1 $193 $194 $26 $-1 $195 forward single #
loop $-1 $-1 $196 $72 #
plane-surface $-1 5.183520868845811 55.274883902519974 93.434997147662614 -1 0 0 0 0.69465837861970381 0.71933979245794832 forward_v I I I I #
coedge $-1 $197 $198 $199 $200 reversed $73 $-1 #
coedge $-1 $121 $75 $201 $202 reversed $47 $-1 #
coedge $-1 $75 $120 $197 $203 reversed $47 $-1 #
coedge $-1 $199 $204 $75 $123 forward $194 $-1 #
edge $-1 $205 9.4102249543872922 $206 15.32632387825047 $122 $207 forward 7 unknown #
loop $-1 $-1 $129 $76 #
plane-surface $-1 -4.3940841921135601 -7.9959079863601019 27.916175656683961 0 0.69465837861970381 0.71933979245794832 1 0 0 forward_v I I I I #
loop $-1 $-1 $208 $49 #
coedge $-1 $127 $127 $128 $209 reversed $77 $-1 #
coedge $-1 $128 $128 $127 $209 forward $79 $-1 #
coedge $-1 $129 $129 $80 $130 forward $124 $-1 #
edge $-1 $210 1.4614332759211276e-016 $210 6.2831853071796004 $129 $211 forward 7 unknown #
loop $-1 $-1 $136 $81 #
plane-surface $-1 -4.3940841921135601 -7.9959079863601019 27.916175656683961 0 0.69465837861970381 0.71933979245794832 1 0 0 forward_v I I I I #
loop $-1 $-1 $212 $52 #
coedge $-1 $134 $134 $135 $213 reversed $82 $-1 #
coedge $-1 $135 $135 $134 $213 forward $84 $-1 #
coedge $-1 $136 $136 $85 $137 forward $131 $-1 #
edge $-1 $214 1.4614332759211276e-016 $214 6.2831853071796004 $136 $215 forward 7 unknown #
face $-1 $216 $217 $29 $-1 $218 reversed single #
loop $-1 $-1 $144 $86 #
plane-surface $-1 0 0 8.3059080962188983 0 0 1 1 0 0 forward_v I I I I #
coedge $-1 $219 $220 $221 $222 reversed $87 $-1 #
coedge $-1 $143 $89 $223 $224 reversed $56 $-1 #
coedge $-1 $89 $142 $219 $225 reversed $56 $-1 #
coedge $-1 $221 $226 $89 $145 forward $139 $-1 #
edge $-1 $227 9.4102249543872922 $228 15.32632387825047 $144 $229 forward 7 unknown #
loop $-1 $-1 $151 $90 #
plane-surface $-1 35.963335519502678 -7.9959079863601019 27.916175656683961 0 0.69465837861970381 0.71933979245794832 1 0 0 forward_v I I I I #
loop $-1 $-1 $230 $58 #
coedge $-1 $149 $149 $150 $231 reversed $91 $-1 #
coedge $-1 $150 $150 $149 $231 forward $93 $-1 #
coedge $-1 $151 $151 $94 $152 forward $146 $-1 #
edge $-1 $232 1.4614332759211276e-016 $232 6.2831853071796004 $151 $233 forward 7 unknown #
loop $-1 $-1 $158 $95 #
plane-surface $-1 35.963335519502678 -7.9959079863601019 27.916175656683961 0 0.69465837861970381 0.71933979245794832 1 0 0 forward_v I I I I #
loop $-1 $-1 $234 $61 #
coedge $-1 $156 $156 $157 $235 reversed $96 $-1 #
coedge $-1 $157 $157 $156 $235 forward $98 $-1 #
coedge $-1 $158 $158 $99 $159 forward $153 $-1 #
edge $-1 $236 1.4614332759211276e-016 $236 6.2831853071796004 $158 $237 forward 7 unknown #
face $-1 $238 $239 $24 $-1 $240 reversed single #
loop $-1 $-1 $241 $100 #
plane-surface $-1 -45.540940580462049 0 0 1 0 0 0 0 -1 forward_v I I I I #
coedge $-1 $242 $171 $241 $243 forward $101 $-1 #
coedge $-1 $244 $103 $242 $245 forward $65 $-1 #
coedge $-1 $103 $244 $246 $247 forward $65 $-1 #
coedge $-1 $174 $173 $103 $167 reversed $175 $-1 #
edge $-1 $248 -18.227216996872695 $249 18.227216996872695 $166 $250 forward 7 unknown #
coedge $-1 $105 $104 $251 $252 forward $41 $-1 #
coedge $-1 $253 $254 $104 $170 reversed $239 $-1 #
edge $-1 $177 -45.540940580462049 $255 45.540940580462049 $169 $256 forward 7 unknown #
coedge $-1 $163 $257 $105 $172 reversed $101 $-1 #
edge $-1 $258 -45.540940580462049 $176 45.540940580462049 $171 $259 forward 7 unknown #
coedge $-1 $166 $106 $257 $260 forward $175 $-1 #
coedge $-1 $106 $166 $253 $261 reversed $175 $-1 #
loop $-1 $-1 $173 $238 #
vertex $-1 $107 $262 #
vertex $-1 $107 $263 #
straight-curve $-1 45.540940580462049 0 8.3059080962188983 0 1 0 I I #
face $-1 $264 $265 $25 $-1 $266 reversed single #
loop $-1 $-1 $267 $108 #
plane-surface $-1 -50.724461449307867 0 -1.8923569565037237 0 0 1 1 0 0 forward_v I I I I #
coedge $-1 $268 $111 $269 $270 reversed $69 $-1 #
coedge $-1 $111 $268 $188 $271 reversed $69 $-1 #
edge $-1 $190 -1.1076430434962763 $272 1.8923569565037237 $111 $273 forward 7 unknown #
coedge $-1 $113 $112 $267 $274 forward $44 $-1 #
coedge $-1 $275 $276 $112 $187 forward $277 $-1 #
edge $-1 $278 -1.8923569565037237 $191 1.1076430434962763 $186 $279 forward 7 unknown #
coedge $-1 $280 $114 $183 $271 forward $109 $-1 #
coedge $-1 $114 $280 $275 $281 forward $109 $-1 #
vertex $-1 $184 $282 #
vertex $-1 $281 $283 #
straight-curve $-1 -45.540940580462049 0 1.1076430434962763 0 -1 0 I I #
face $-1 $-1 $284 $26 $-1 $285 reversed single #
loop $-1 $-1 $122 $116 #
plane-surface $-1 0 0 8.3059080962188983 0 0 1 1 0 0 forward_v I I I I #
coedge $-1 $286 $287 $288 $289 reversed $117 $-1 #
coedge $-1 $290 $119 $121 $203 forward $73 $-1 #
coedge $-1 $119 $290 $286 $291 forward $73 $-1 #
coedge $-1 $288 $122 $119 $200 forward $194 $-1 #
edge $-1 $206 -11.774647157016151 $292 7.380562964902591 $199 $293 forward 7 unknown #
coedge $-1 $294 $295 $120 $202 forward $284 $-1 #
edge $-1 $296 -44.124700928741547 $205 -38.411590477612407 $201 $297 forward 7 unknown #
edge $-1 $206 28.230088578836323 $296 36.454433993745404 $121 $298 forward 7 unknown #
coedge $-1 $122 $288 $294 $299 forward $194 $-1 #
vertex $-1 $202 $300 #
vertex $-1 $123 $301 #
straight-curve $-1 -13.971689253072931 27.637441951259987 8.3059080962189 0 -1 0 I I #
coedge $-1 $208 $208 $-1 $302 reversed $126 $-1 #
edge $-1 $303 0 $303 6.2831853071796004 $127 $304 forward 7 unknown #
vertex $-1 $130 $305 #
ellipse-curve $-1 -8.498772075381865 15.269167534941106 5.4493528706543328 0 0.69465837861970381 0.71933979245794832 1.5 0 0 1 I I #
coedge $-1 $212 $212 $-1 $306 reversed $133 $-1 #
edge $-1 $307 0 $307 6.2831853071796004 $134 $308 forward 7 unknown #
vertex $-1 $137 $309 #
ellipse-curve $-1 -0.28939630884526224 15.269167534941106 5.4493528706543328 0 0.69465837861970381 0.71933979245794832 1.5 0 0 1 I I #
face $-1 $-1 $310 $29 $-1 $311 reversed single #
loop $-1 $-1 $312 $138 #
plane-surface $-1 45.540940580462049 0 0 -1 0 0 0 0 1 forward_v I I I I #
coedge $-1 $313 $141 $143 $225 forward $87 $-1 #
coedge $-1 $141 $313 $312 $314 reversed $87 $-1 #
coedge $-1 $315 $144 $141 $222 forward $139 $-1 #
edge $-1 $228 8.404062698791968 $316 27.55927282071071 $221 $317 forward 7 unknown #
coedge $-1 $318 $319 $142 $224 forward $310 $-1 #
edge $-1 $320 -44.124700928741547 $227 -38.411590477612407 $223 $321 forward 7 unknown #
edge $-1 $228 28.230088578836323 $320 36.454433993745404 $143 $322 forward 7 unknown #
coedge $-1 $144 $315 $318 $323 forward $139 $-1 #
vertex $-1 $224 $324 #
vertex $-1 $145 $325 #
straight-curve $-1 26.385730458543307 27.637441951259987 8.3059080962189 0 -1 0 I I #
coedge $-1 $230 $230 $-1 $326 reversed $148 $-1 #
edge $-1 $327 0 $327 6.2831853071796004 $149 $328 forward 7 unknown #
vertex $-1 $152 $329 #
ellipse-curve $-1 31.858647636234366 15.269167534941106 5.4493528706543328 0 0.69465837861970381 0.71933979245794832 1.5 0 0 1 I I #
coedge $-1 $234 $234 $-1 $330 reversed $155 $-1 #
edge $-1 $331 0 $331 6.2831853071796004 $156 $332 forward 7 unknown #
vertex $-1 $159 $333 #
ellipse-curve $-1 40.068023402770976 15.269167534941106 5.4493528706543328 0 0.69465837861970381 0.71933979245794832 1.5 0 0 1 I I #
face $-1 $-1 $175 $24 $-1 $334 reversed single #
loop $-1 $-1 $253 $160 #
plane-surface $-1 0 18.227216996872695 0 0 -1 0 0 0 -1 forward_v I I I I #
coedge $-1 $251 $335 $163 $243 reversed $161 $-1 #
coedge $-1 $257 $163 $164 $245 reversed $101 $-1 #
edge $-1 $258 -8.3059080962188983 $336 8.3059080962188983 $241 $337 forward 7 unknown #
coedge $-1 $165 $164 $335 $338 forward $65 $-1 #
edge $-1 $249 -45.540940580462049 $336 45.540940580462049 $242 $339 forward 7 unknown #
coedge $-1 $254 $253 $165 $247 reversed $239 $-1 #
edge $-1 $340 -45.540940580462049 $248 45.540940580462049 $246 $341 forward 7 unknown #
vertex $-1 $167 $342 #
vertex $-1 $260 $343 #
straight-curve $-1 45.540940580462049 0 -8.3059080962188983 0 -1 0 I I #
coedge $-1 $344 $241 $168 $252 reversed $161 $-1 #
edge $-1 $255 -18.227216996872695 $258 18.227216996872695 $251 $345 forward 7 unknown #
coedge $-1 $246 $169 $174 $261 forward $239 $-1 #
coedge $-1 $169 $246 $344 $346 reversed $239 $-1 #
vertex $-1 $170 $347 #
straight-curve $-1 0 18.227216996872695 8.3059080962188983 -1 0 0 I I #
coedge $-1 $171 $242 $173 $260 reversed $101 $-1 #
vertex $-1 $252 $348 #
straight-curve $-1 0 -18.227216996872695 8.3059080962188983 1 0 0 I I #
edge $-1 $176 -8.3059080962188983 $249 8.3059080962188983 $173 $349 forward 7 unknown #
edge $-1 $177 -8.3059080962188983 $248 8.3059080962188983 $174 $350 forward 7 unknown #
point $-1 45.540940580462049 -18.227216996872695 8.3059080962188983 #
point $-1 45.540940580462049 18.227216996872695 8.3059080962188983 #
face $-1 $-1 $277 $25 $-1 $351 reversed single #
loop $-1 $-1 $352 $179 #
plane-surface $-1 -55.907982318153685 0 -0.39235695650372371 1 0 0 0 0 -1 forward_v I I I I #
coedge $-1 $353 $269 $185 $274 reversed $180 $-1 #
coedge $-1 $183 $182 $352 $354 reversed $69 $-1 #
coedge $-1 $267 $355 $182 $270 forward $180 $-1 #
edge $-1 $356 -5.1835208688458181 $272 5.1835208688458181 $182 $357 forward 7 unknown #
edge $-1 $190 -5.1835208688458181 $358 5.1835208688458181 $183 $359 forward 7 unknown #
vertex $-1 $184 $360 #
straight-curve $-1 -45.540940580462049 18.227216996872695 0 0 0 -1 I I #
edge $-1 $278 -18.227216996872695 $272 18.227216996872695 $267 $361 forward 7 unknown #
coedge $-1 $362 $186 $189 $281 reversed $277 $-1 #
coedge $-1 $186 $362 $353 $363 reversed $277 $-1 #
loop $-1 $-1 $186 $264 #
vertex $-1 $187 $364 #
straight-curve $-1 -45.540940580462049 -18.227216996872695 0 0 0 1 I I #
coedge $-1 $189 $188 $365 $366 forward $109 $-1 #
edge $-1 $367 -5.1835208688458181 $191 5.1835208688458181 $275 $368 forward 7 unknown #
point $-1 -45.540940580462049 18.227216996872695 1.1076430434962763 #
point $-1 -45.540940580462049 -18.227216996872695 1.1076430434962763 #
loop $-1 $-1 $201 $193 #
plane-surface $-1 0 18.227216996872695 0 0 -1 0 0 0 -1 forward_v I I I I #
coedge $-1 $287 $196 $198 $291 reversed $117 $-1 #
coedge $-1 $196 $286 $369 $370 reversed $117 $-1 #
coedge $-1 $204 $199 $196 $289 forward $194 $-1 #
edge $-1 $292 -15.32632387825047 $371 -9.4102249543872922 $288 $372 forward 7 unknown #
coedge $-1 $198 $197 $295 $373 reversed $73 $-1 #
edge $-1 $374 -36.454433993745404 $292 -28.230088578836323 $286 $375 forward 7 unknown #
vertex $-1 $200 $376 #
straight-curve $-1 -2.19704209605678 12.311118073009521 8.3059080962189 1 0 0 I I #
coedge $-1 $369 $201 $204 $299 reversed $284 $-1 #
coedge $-1 $201 $369 $290 $373 forward $284 $-1 #
vertex $-1 $202 $377 #
straight-curve $-1 -13.971689253072931 18.227216996872695 46.717498573831307 0 0 1 I I #
straight-curve $-1 -13.971689253072931 -7.9959079863601019 27.916175656683961 0 0.71933979245794832 -0.69465837861970381 I I #
edge $-1 $371 -5.183520868845811 $205 13.971689253072931 $294 $378 forward 7 unknown #
point $-1 -13.971689253072931 18.227216996872695 8.3059080962188983 #
point $-1 -13.971689253072931 12.311118073009517 8.3059080962189 #
edge $-1 $379 1 $379 0 $208 $-1 forward 7 unknown #
vertex $-1 $209 $380 #
ellipse-curve $-1 -8.498772075381865 13.562625500792747 3.6821769026565487 0 0.69465837861970381 0.71933979245794832 1.5 0 0 1 I I #
point $-1 -6.998772075381865 15.269167534941115 5.4493528706543417 #
edge $-1 $381 1 $381 0 $212 $-1 forward 7 unknown #
vertex $-1 $213 $382 #
ellipse-curve $-1 -0.28939630884526224 13.562625500792747 3.6821769026565487 0 0.69465837861970381 0.71933979245794832 1.5 0 0 1 I I #
point $-1 1.2106036911547378 15.269167534941115 5.4493528706543417 #
loop $-1 $-1 $223 $216 #
plane-surface $-1 0 18.227216996872695 0 0 -1 0 0 0 -1 forward_v I I I I #
coedge $-1 $383 $384 $220 $314 forward $217 $-1 #
coedge $-1 $220 $219 $319 $385 reversed $87 $-1 #
edge $-1 $316 15.658098523658296 $386 23.882443938567377 $312 $387 forward 7 unknown #
coedge $-1 $226 $221 $384 $388 forward $139 $-1 #
vertex $-1 $388 $389 #
straight-curve $-1 17.981667759751339 12.311118073009521 8.3059080962189 1 0 0 I I #
coedge $-1 $390 $223 $226 $323 reversed $310 $-1 #
coedge $-1 $223 $390 $313 $385 forward $310 $-1 #
vertex $-1 $224 $391 #
straight-curve $-1 26.385730458543307 18.227216996872695 46.717498573831307 0 0 1 I I #
straight-curve $-1 26.385730458543307 -7.9959079863601019 27.916175656683961 0 0.71933979245794832 -0.69465837861970381 I I #
edge $-1 $392 -45.540940580462049 $227 -26.385730458543307 $318 $393 forward 7 unknown #
point $-1 26.385730458543307 18.227216996872695 8.3059080962188983 #
point $-1 26.385730458543307 12.311118073009517 8.3059080962189 #
edge $-1 $394 1 $394 0 $230 $-1 forward 7 unknown #
vertex $-1 $231 $395 #
ellipse-curve $-1 31.858647636234366 13.562625500792747 3.6821769026565487 0 0.69465837861970381 0.71933979245794832 1.5 0 0 1 I I #
point $-1 33.358647636234366 15.269167534941115 5.4493528706543417 #
edge $-1 $396 1 $396 0 $234 $-1 forward 7 unknown #
vertex $-1 $235 $397 #
ellipse-curve $-1 40.068023402770976 13.562625500792747 3.6821769026565487 0 0.69465837861970381 0.71933979245794832 1.5 0 0 1 I I #
point $-1 41.568023402770976 15.269167534941115 5.4493528706543417 #
plane-surface $-1 45.540940580462049 0 0 -1 0 0 0 0 1 forward_v I I I I #
coedge $-1 $241 $344 $244 $338 reversed $161 $-1 #
vertex $-1 $338 $398 #
straight-curve $-1 -45.540940580462049 -18.227216996872695 0 0 0 -1 I I #
edge $-1 $336 -18.227216996872695 $340 18.227216996872695 $335 $399 forward 7 unknown #
straight-curve $-1 0 -18.227216996872695 -8.3059080962188983 -1 0 0 I I #
vertex $-1 $247 $400 #
straight-curve $-1 0 18.227216996872695 -8.3059080962188983 1 0 0 I I #
point $-1 45.540940580462049 18.227216996872695 -8.3059080962188983 #
point $-1 45.540940580462049 -18.227216996872695 -8.3059080962188983 #
coedge $-1 $335 $251 $254 $346 forward $161 $-1 #
straight-curve $-1 -45.540940580462049 0 8.3059080962188983 0 -1 0 I I #
edge $-1 $255 -8.3059080962188983 $340 8.3059080962188983 $254 $401 forward 7 unknown #
point $-1 -45.540940580462049 18.227216996872695 8.3059080962188983 #
point $-1 -45.540940580462049 -18.227216996872695 8.3059080962188983 #
straight-curve $-1 45.540940580462049 -18.227216996872695 0 0 0 -1 I I #
straight-curve $-1 45.540940580462049 18.227216996872695 0 0 0 -1 I I #
plane-surface $-1 0 -18.227216996872695 0 0 1 0 0 0 1 forward_v I I I I #
coedge $-1 $402 $365 $268 $354 forward $265 $-1 #
coedge $-1 $355 $267 $276 $363 forward $180 $-1 #
edge $-1 $358 -1.5 $356 1.5 $268 $403 forward 7 unknown #
coedge $-1 $269 $353 $402 $404 forward $180 $-1 #
vertex $-1 $270 $405 #
straight-curve $-1 -50.724461449307867 18.227216996872695 -1.8923569565037237 1 0 0 I I #
vertex $-1 $271 $406 #
straight-curve $-1 -50.724461449307867 18.227216996872695 1.1076430434962763 -1 0 0 I I #
point $-1 -45.540940580462049 18.227216996872695 -1.8923569565037237 #
straight-curve $-1 -45.540940580462049 0 -1.8923569565037237 0 1 0 I I #
coedge $-1 $276 $275 $407 $408 forward $277 $-1 #
edge $-1 $278 -5.1835208688458181 $409 5.1835208688458181 $276 $410 forward 7 unknown #
point $-1 -45.540940580462049 -18.227216996872695 -1.8923569565037237 #
coedge $-1 $352 $407 $280 $366 reversed $265 $-1 #
edge $-1 $358 -18.227216996872695 $367 18.227216996872695 $365 $411 forward 7 unknown #
vertex $-1 $366 $412 #
straight-curve $-1 -50.724461449307867 -18.227216996872695 1.1076430434962763 1 0 0 I I #
coedge $-1 $295 $294 $287 $370 forward $284 $-1 #
edge $-1 $371 38.411590477612407 $374 44.124700928741547 $369 $413 forward 7 unknown #
vertex $-1 $299 $414 #
straight-curve $-1 5.183520868845811 27.637441951259987 8.3059080962189 0 1 0 I I #
edge $-1 $374 -7.380562964902591 $296 11.774647157016151 $295 $415 forward 7 unknown #
vertex $-1 $373 $416 #
straight-curve $-1 5.183520868845811 -7.9959079863601019 27.916175656683961 0 -0.71933979245794832 0.69465837861970381 I I #
point $-1 5.183520868845811 12.311118073009517 8.3059080962189 #
point $-1 -13.971689253072931 18.227216996872695 2.5927976450897638 #
straight-curve $-1 0 18.227216996872695 8.3059080962188983 -1 0 0 I I #
vertex $-1 $302 $417 #
point $-1 -6.998772075381865 13.562625500792747 3.6821769026565487 #
vertex $-1 $306 $418 #
point $-1 1.2106036911547378 13.562625500792747 3.6821769026565487 #
coedge $-1 $384 $312 $390 $419 reversed $217 $-1 #
coedge $-1 $312 $383 $315 $388 reversed $217 $-1 #
edge $-1 $386 -27.55927282071071 $320 -8.404062698791968 $319 $420 forward 7 unknown #
vertex $-1 $314 $421 #
straight-curve $-1 45.540940580462049 1.047624730715051 19.182937428930952 0 0.71933979245794832 -0.69465837861970381 I I #
edge $-1 $316 12.311118073009517 $392 18.227216996872695 $384 $422 forward 7 unknown #
point $-1 45.540940580462049 12.311118073009517 8.3059080962189 #
coedge $-1 $319 $318 $383 $419 forward $310 $-1 #
point $-1 26.385730458543307 18.227216996872695 2.5927976450897638 #
vertex $-1 $388 $423 #
straight-curve $-1 0 18.227216996872695 8.3059080962188983 -1 0 0 I I #
vertex $-1 $326 $424 #
point $-1 33.358647636234366 13.562625500792747 3.6821769026565487 #
vertex $-1 $330 $425 #
point $-1 41.568023402770976 13.562625500792747 3.6821769026565487 #
point $-1 -45.540940580462049 -18.227216996872695 -8.3059080962188983 #
straight-curve $-1 -45.540940580462049 0 -8.3059080962188983 0 1 0 I I #
point $-1 -45.540940580462049 18.227216996872695 -8.3059080962188983 #
straight-curve $-1 -45.540940580462049 18.227216996872695 0 0 0 -1 I I #
coedge $-1 $407 $352 $355 $404 reversed $265 $-1 #
straight-curve $-1 -55.907982318153685 18.227216996872695 -0.39235695650372371 0 0 -1 I I #
edge $-1 $409 -18.227216996872695 $356 18.227216996872695 $402 $426 forward 7 unknown #
point $-1 -55.907982318153685 18.227216996872695 -1.8923569565037237 #
point $-1 -55.907982318153685 18.227216996872695 1.1076430434962763 #
coedge $-1 $365 $402 $362 $408 reversed $265 $-1 #
edge $-1 $367 -1.5 $409 1.5 $407 $427 forward 7 unknown #
vertex $-1 $404 $428 #
straight-curve $-1 -50.724461449307867 -18.227216996872695 -1.8923569565037237 -1 0 0 I I #
straight-curve $-1 -55.907982318153685 0 1.1076430434962763 0 -1 0 I I #
point $-1 -55.907982318153685 -18.227216996872695 1.1076430434962763 #
straight-curve $-1 5.183520868845811 18.227216996872695 46.717498573831307 0 0 -1 I I #
point $-1 5.183520868845811 18.227216996872695 8.3059080962188983 #
straight-curve $-1 -2.19704209605678 18.227216996872691 2.5927976450897656 -1 0 0 I I #
point $-1 5.183520868845811 18.227216996872695 2.5927976450897638 #
point $-1 -8.498772075381865 12.52063793286319 2.6031672139696251 #
point $-1 -0.28939630884526224 12.52063793286319 2.6031672139696251 #
edge $-1 $392 -8.3059080962188983 $386 -2.5927976450897638 $383 $429 forward 7 unknown #
straight-curve $-1 17.981667759751339 18.227216996872691 2.5927976450897656 -1 0 0 I I #
point $-1 45.540940580462049 18.227216996872695 2.5927976450897638 #
straight-curve $-1 45.540940580462049 0 8.3059080962188983 0 1 0 I I #
point $-1 45.540940580462049 18.227216996872695 8.3059080962188983 #
point $-1 31.858647636234366 12.52063793286319 2.6031672139696251 #
point $-1 40.068023402770976 12.52063793286319 2.6031672139696251 #
straight-curve $-1 -55.907982318153685 0 -1.8923569565037237 0 1 0 I I #
straight-curve $-1 -55.907982318153685 -18.227216996872695 -0.39235695650372371 0 0 -1 I I #
point $-1 -55.907982318153685 -18.227216996872695 -1.8923569565037237 #
straight-curve $-1 45.540940580462049 18.227216996872695 0 0 0 -1 I I #
End-of-ACIS-data 