500 0 4 0           
7 Unknown 11 ACIS 5.0 NT 24 Thu Mar 25 18:09:10 1999 
-1 9.9999999999999995e-007 1e-010 
body $-1 $4 $-1 $5 #
body $-1 $6 $-1 $7 #
body $-1 $8 $-1 $9 #
body $-1 $10 $-1 $11 #
lump $-1 $-1 $12 $0 #
transform $-1 1 0 0 0 1 0 0 0 1 60.84292123172704 36.582254352084327 14.566362162618324 1 rotate no_reflect no_shear #
lump $-1 $-1 $13 $1 #
transform $-1 1 0 0 0 1 0 0 0 1 60.84292123172704 36.582254352084327 14.566362162618324 1 rotate no_reflect no_shear #
lump $-1 $-1 $14 $2 #
transform $-1 1 0 0 0 1 0 0 0 1 60.84292123172704 36.582254352084327 14.566362162618324 1 rotate no_reflect no_shear #
lump $-1 $-1 $15 $3 #
transform $-1 1 0 0 0 1 0 0 0 1 60.84292123172704 36.582254352084327 14.566362162618324 1 rotate no_reflect no_shear #
shell $-1 $-1 $-1 $16 $-1 $4 #
shell $-1 $-1 $-1 $17 $-1 $6 #
shell $-1 $-1 $-1 $18 $-1 $8 #
shell $-1 $-1 $-1 $19 $-1 $10 #
face $-1 $20 $21 $12 $-1 $22 forward single #
face $-1 $23 $24 $13 $-1 $25 reversed single #
face $-1 $26 $27 $14 $-1 $28 forward single #
face $-1 $29 $30 $15 $-1 $31 reversed single #
face $-1 $32 $33 $12 $-1 $34 reversed single #
loop $-1 $-1 $35 $16 #
plane-surface $-1 0 0 14.566362162618324 0 0 1 1 0 0 forward_v I I I I #
face $-1 $36 $37 $13 $-1 $38 reversed single #
loop $-1 $-1 $39 $17 #
plane-surface $-1 -54.316396781439579 -50.934737668190031 0 0 1 0 0 0 1 forward_v I I I I #
face $-1 $40 $41 $14 $-1 $42 forward single #
loop $-1 $-1 $43 $18 #
plane-surface $-1 -11.499421181107671 105.38303277572609 125.86393459879336 1 0 0 0 -0.86602541151947299 -0.49999998660252726 forward_v I I I I #
face $-1 $44 $45 $15 $-1 $46 reversed single #
loop $-1 $47 $48 $19 #
cone-surface $-1 -0.3801345447982456 31.439044003697987 7.2943712610449936 0 -0.86602541151947299 -0.49999998660252726 2 0 0 1 I I 0 1 2 forward I I I I #
face $-1 $49 $50 $12 $-1 $51 reversed single #
loop $-1 $-1 $52 $20 #
plane-surface $-1 0 0 -14.566362162618324 0 0 1 1 0 0 forward_v I I I I #
coedge $-1 $53 $54 $55 $56 forward $21 $-1 #
face $-1 $57 $58 $13 $-1 $59 reversed single #
loop $-1 $-1 $60 $23 #
plane-surface $-1 -57.589349490637169 -43.758496010137179 0 1 0 0 0 0 -1 forward_v I I I I #
coedge $-1 $61 $62 $63 $64 forward $24 $-1 #
face $-1 $65 $66 $14 $-1 $67 forward single #
loop $-1 $-1 $68 $26 #
plane-surface $-1 -0.38013454479823849 9.802194966823663e-007 65.021014997349084 0 0.86602541151947299 0.49999998660252726 1 0 0 forward_v I I I I #
coedge $-1 $69 $70 $71 $72 reversed $27 $-1 #
face $-1 $73 $74 $15 $-1 $75 forward single #
loop $-1 $76 $77 $29 #
cone-surface $-1 -0.3801345447982456 29.15593175208209 5.9762158350776264 0 -0.86602541151947299 -0.49999998660252726 1 0 0 1 I I -0.70710678118654746 0.70710678118654746 1 forward I I I I #
loop $-1 $-1 $78 $19 #
coedge $-1 $48 $48 $79 $80 reversed $30 $-1 #
face $-1 $81 $82 $12 $-1 $83 reversed single #
loop $-1 $-1 $84 $32 #
plane-surface $-1 0 -36.582254352084327 0 0 1 0 0 0 1 forward_v I I I I #
coedge $-1 $85 $86 $87 $88 forward $33 $-1 #
coedge $-1 $89 $35 $90 $91 forward $21 $-1 #
coedge $-1 $35 $89 $92 $93 forward $21 $-1 #
coedge $-1 $94 $95 $35 $56 reversed $96 $-1 #
edge $-1 $97 -36.582254352084327 $98 36.582254352084327 $55 $99 forward 7 unknown #
face $-1 $100 $101 $13 $-1 $102 reversed single #
loop $-1 $-1 $103 $36 #
plane-surface $-1 -51.043444072241989 -43.758496010137179 0 -1 0 0 0 0 1 forward_v I I I I #
coedge $-1 $104 $105 $106 $107 reversed $37 $-1 #
coedge $-1 $108 $39 $109 $110 reversed $24 $-1 #
coedge $-1 $39 $108 $111 $112 reversed $24 $-1 #
coedge $-1 $105 $104 $39 $64 reversed $37 $-1 #
edge $-1 $113 -14.566362162618324 $114 14.566362162618324 $63 $115 forward 7 unknown #
face $-1 $116 $117 $14 $-1 $118 forward single #
loop $-1 $-1 $119 $40 #
plane-surface $-1 10.739152091511194 105.38303277572609 125.86393459879336 -1 0 0 0 0.86602541151947299 0.49999998660252726 forward_v I I I I #
coedge $-1 $120 $121 $122 $123 reversed $41 $-1 #
coedge $-1 $70 $43 $121 $124 forward $27 $-1 #
coedge $-1 $43 $69 $125 $126 reversed $27 $-1 #
coedge $-1 $127 $122 $43 $72 forward $117 $-1 #
edge $-1 $128 -23.561509052358566 $129 -16.10926203577872 $71 $130 forward 7 unknown #
face $-1 $131 $132 $15 $-1 $133 forward single #
loop $-1 $-1 $134 $44 #
plane-surface $-1 -11.499421181107671 105.38303277572609 125.86393459879336 1 0 0 0 -0.86602541151947299 -0.49999998660252726 forward_v I I I I #
loop $-1 $-1 $135 $29 #
coedge $-1 $77 $77 $78 $136 forward $45 $-1 #
coedge $-1 $78 $78 $77 $136 reversed $47 $-1 #
coedge $-1 $79 $79 $48 $80 forward $132 $-1 #
edge $-1 $137 -1.0071717103793496e-015 $137 6.2831853071795996 $79 $138 forward 7 unknown #
face $-1 $139 $140 $12 $-1 $141 reversed single #
loop $-1 $-1 $142 $49 #
plane-surface $-1 -60.84292123172704 0 0 1 0 0 0 0 -1 forward_v I I I I #
coedge $-1 $143 $92 $144 $145 forward $50 $-1 #
coedge $-1 $146 $52 $143 $147 forward $33 $-1 #
coedge $-1 $52 $146 $148 $149 forward $33 $-1 #
coedge $-1 $95 $94 $52 $88 reversed $96 $-1 #
edge $-1 $150 -36.582254352084327 $151 36.582254352084327 $87 $152 forward 7 unknown #
coedge $-1 $54 $53 $153 $154 forward $21 $-1 #
coedge $-1 $155 $156 $53 $91 reversed $140 $-1 #
edge $-1 $98 -60.84292123172704 $157 60.84292123172704 $90 $158 forward 7 unknown #
coedge $-1 $84 $159 $54 $93 reversed $50 $-1 #
edge $-1 $160 -60.84292123172704 $97 60.84292123172704 $92 $161 forward 7 unknown #
coedge $-1 $87 $55 $159 $162 forward $96 $-1 #
coedge $-1 $55 $87 $155 $163 reversed $96 $-1 #
loop $-1 $-1 $94 $139 #
vertex $-1 $56 $164 #
vertex $-1 $56 $165 #
straight-curve $-1 60.84292123172704 0 14.566362162618324 0 1 0 I I #
face $-1 $166 $167 $13 $-1 $102 reversed single #
loop $-1 $-1 $106 $57 #
plane-surface $-1 0 -36.582254352084327 0 0 1 0 0 0 1 forward_v I I I I #
coedge $-1 $168 $169 $108 $170 forward $58 $-1 #
coedge $-1 $63 $60 $171 $172 reversed $37 $-1 #
coedge $-1 $60 $63 $173 $174 reversed $37 $-1 #
coedge $-1 $175 $176 $60 $107 forward $101 $-1 #
edge $-1 $177 -14.566362162618324 $178 14.566362162618324 $106 $179 forward 7 unknown #
coedge $-1 $62 $61 $103 $170 reversed $24 $-1 #
coedge $-1 $171 $180 $61 $110 forward $181 $-1 #
edge $-1 $182 -3.2729527091975896 $114 3.2729527091975896 $61 $183 forward 7 unknown #
coedge $-1 $184 $173 $62 $112 forward $185 $-1 #
edge $-1 $113 -3.2729527091975896 $186 3.2729527091975896 $62 $187 forward 7 unknown #
vertex $-1 $174 $188 #
vertex $-1 $172 $189 #
straight-curve $-1 -57.589349490637169 -50.934737668190031 0 0 0 -1 I I #
face $-1 $190 $191 $14 $-1 $192 reversed single #
loop $-1 $-1 $193 $65 #
plane-surface $-1 0 0 14.566362162618324 0 0 1 1 0 0 forward_v I I I I #
coedge $-1 $194 $195 $193 $196 reversed $66 $-1 #
coedge $-1 $197 $68 $195 $198 reversed $41 $-1 #
coedge $-1 $68 $197 $69 $124 reversed $41 $-1 #
coedge $-1 $71 $193 $68 $123 forward $117 $-1 #
edge $-1 $199 -10.929219363910313 $128 11.309353908708552 $122 $200 forward 7 unknown #
edge $-1 $128 58.260014271643875 $201 73.164508704168682 $69 $202 forward 7 unknown #
coedge $-1 $203 $204 $70 $126 forward $205 $-1 #
edge $-1 $129 48.365605136778356 $201 61.273276061195347 $125 $206 forward 7 unknown #
coedge $-1 $207 $71 $204 $208 forward $117 $-1 #
vertex $-1 $123 $209 #
vertex $-1 $208 $210 #
straight-curve $-1 -11.499421181107671 52.691516387863047 14.566362162618326 0 1 0 I I #
face $-1 $211 $212 $15 $-1 $213 forward single #
loop $-1 $214 $79 $73 #
plane-surface $-1 -0.38013454479823849 9.802194966823663e-007 65.021014997349084 0 0.86602541151947299 0.49999998660252726 1 0 0 forward_v I I I I #
coedge $-1 $215 $216 $217 $218 reversed $74 $-1 #
coedge $-1 $135 $135 $-1 $219 forward $76 $-1 #
edge $-1 $220 0 $220 6.2831853071796004 $77 $221 forward 7 unknown #
vertex $-1 $80 $222 #
ellipse-curve $-1 -0.3801345447982456 32.856130843794404 8.1125267004098305 0 -0.86602541151947299 -0.49999998660252726 2 0 0 1 I I #
face $-1 $-1 $96 $12 $-1 $223 reversed single #
loop $-1 $-1 $155 $81 #
plane-surface $-1 0 36.582254352084327 0 0 -1 0 0 0 -1 forward_v I I I I #
coedge $-1 $224 $153 $156 $225 forward $82 $-1 #
coedge $-1 $159 $84 $85 $147 reversed $50 $-1 #
coedge $-1 $153 $224 $84 $145 reversed $82 $-1 #
edge $-1 $160 -14.566362162618324 $226 14.566362162618324 $144 $227 forward 7 unknown #
coedge $-1 $86 $85 $224 $228 forward $33 $-1 #
edge $-1 $151 -60.84292123172704 $226 60.84292123172704 $143 $229 forward 7 unknown #
coedge $-1 $156 $155 $86 $149 reversed $140 $-1 #
edge $-1 $230 -60.84292123172704 $150 60.84292123172704 $148 $231 forward 7 unknown #
vertex $-1 $88 $232 #
vertex $-1 $162 $233 #
straight-curve $-1 60.84292123172704 0 -14.566362162618324 0 -1 0 I I #
coedge $-1 $142 $144 $89 $154 reversed $82 $-1 #
edge $-1 $157 -36.582254352084327 $160 36.582254352084327 $153 $234 forward 7 unknown #
coedge $-1 $148 $90 $95 $163 forward $140 $-1 #
coedge $-1 $90 $148 $142 $225 reversed $140 $-1 #
vertex $-1 $91 $235 #
straight-curve $-1 0 36.582254352084327 14.566362162618324 -1 0 0 I I #
coedge $-1 $92 $143 $94 $162 reversed $50 $-1 #
vertex $-1 $154 $236 #
straight-curve $-1 0 -36.582254352084327 14.566362162618324 1 0 0 I I #
edge $-1 $97 -14.566362162618324 $151 14.566362162618324 $94 $237 forward 7 unknown #
edge $-1 $98 -14.566362162618324 $150 14.566362162618324 $95 $238 forward 7 unknown #
point $-1 60.84292123172704 -36.582254352084327 14.566362162618324 #
point $-1 60.84292123172704 36.582254352084327 14.566362162618324 #
face $-1 $239 $185 $13 $-1 $240 forward single #
loop $-1 $-1 $241 $100 #
coedge $-1 $242 $103 $180 $243 reversed $58 $-1 #
coedge $-1 $103 $242 $184 $244 reversed $58 $-1 #
edge $-1 $186 -14.566362162618324 $182 14.566362162618324 $103 $245 forward 7 unknown #
coedge $-1 $246 $109 $104 $172 forward $181 $-1 #
edge $-1 $114 -7.1762416580528523 $177 7.1762416580528523 $104 $247 forward 7 unknown #
coedge $-1 $111 $248 $105 $174 forward $185 $-1 #
edge $-1 $178 -7.1762416580528523 $113 7.1762416580528523 $105 $249 forward 7 unknown #
coedge $-1 $250 $106 $248 $251 reversed $101 $-1 #
coedge $-1 $106 $250 $246 $252 reversed $101 $-1 #
vertex $-1 $252 $253 #
vertex $-1 $174 $254 #
straight-curve $-1 -57.589349490637169 -36.582254352084327 0 0 0 1 I I #
coedge $-1 $109 $255 $168 $243 forward $181 $-1 #
loop $-1 $-1 $256 $239 #
vertex $-1 $170 $257 #
straight-curve $-1 -54.316396781439579 -50.934737668190031 -14.566362162618324 -1 0 0 I I #
coedge $-1 $258 $111 $169 $244 forward $185 $-1 #
loop $-1 $-1 $259 $166 #
vertex $-1 $244 $260 #
straight-curve $-1 -54.316396781439579 -50.934737668190031 14.566362162618324 1 0 0 I I #
point $-1 -57.589349490637169 -50.934737668190031 14.566362162618324 #
point $-1 -57.589349490637169 -50.934737668190031 -14.566362162618324 #
face $-1 $261 $262 $14 $-1 $263 reversed single #
loop $-1 $-1 $264 $116 #
plane-surface $-1 -54.316396781439579 -50.934737668190031 0 0 1 0 0 0 1 forward_v I I I I #
coedge $-1 $122 $265 $119 $196 forward $117 $-1 #
coedge $-1 $195 $119 $266 $267 reversed $66 $-1 #
coedge $-1 $119 $194 $120 $198 forward $66 $-1 #
edge $-1 $268 16.10926203577872 $199 23.561509052358566 $193 $269 forward 7 unknown #
coedge $-1 $121 $120 $203 $270 reversed $41 $-1 #
edge $-1 $271 -73.164508704168682 $199 -58.260014271643875 $195 $272 forward 7 unknown #
vertex $-1 $123 $273 #
straight-curve $-1 -0.19006727239911925 29.13000733550448 14.566362162618326 -1 0 0 I I #
vertex $-1 $270 $274 #
straight-curve $-1 -11.499421181107671 9.802194966823663e-007 65.021014997349084 0 0.49999998660252726 -0.86602541151947299 I I #
coedge $-1 $266 $125 $197 $270 forward $205 $-1 #
coedge $-1 $125 $275 $127 $208 reversed $205 $-1 #
loop $-1 $-1 $266 $276 #
straight-curve $-1 -11.499421181107671 36.582254352084327 62.931967299396682 0 0 -1 I I #
coedge $-1 $277 $127 $278 $279 forward $117 $-1 #
edge $-1 $129 11.499421181107671 $280 60.84292123172704 $204 $281 forward 7 unknown #
point $-1 -11.499421181107671 29.13000733550448 14.566362162618326 #
point $-1 -11.499421181107671 36.582254352084327 14.566362162618324 #
face $-1 $282 $283 $15 $-1 $284 forward single #
loop $-1 $-1 $285 $131 #
plane-surface $-1 10.739152091511194 105.38303277572609 125.86393459879336 -1 0 0 0 0.86602541151947299 0.49999998660252726 forward_v I I I I #
loop $-1 $-1 $286 $73 #
coedge $-1 $216 $134 $287 $288 forward $74 $-1 #
coedge $-1 $134 $215 $289 $290 reversed $74 $-1 #
coedge $-1 $291 $292 $134 $218 forward $283 $-1 #
edge $-1 $293 -23.561509052358566 $294 -16.10926203577872 $217 $295 forward 7 unknown #
edge $-1 $296 1 $296 0 $135 $-1 forward 7 unknown #
vertex $-1 $136 $297 #
ellipse-curve $-1 -0.3801345447982456 30.021957163601563 6.476215821680154 0 0.86602541151947299 0.49999998660252726 2 0 0 1 I I #
point $-1 1.6198654552017544 32.856130843794411 8.1125267004098323 #
plane-surface $-1 60.84292123172704 0 0 -1 0 0 0 0 1 forward_v I I I I #
coedge $-1 $144 $142 $146 $228 reversed $82 $-1 #
edge $-1 $157 -14.566362162618324 $230 14.566362162618324 $156 $298 forward 7 unknown #
vertex $-1 $228 $299 #
straight-curve $-1 -60.84292123172704 -36.582254352084327 0 0 0 -1 I I #
edge $-1 $226 -36.582254352084327 $230 36.582254352084327 $224 $300 forward 7 unknown #
straight-curve $-1 0 -36.582254352084327 -14.566362162618324 -1 0 0 I I #
vertex $-1 $149 $301 #
straight-curve $-1 0 36.582254352084327 -14.566362162618324 1 0 0 I I #
point $-1 60.84292123172704 36.582254352084327 -14.566362162618324 #
point $-1 60.84292123172704 -36.582254352084327 -14.566362162618324 #
straight-curve $-1 -60.84292123172704 0 14.566362162618324 0 -1 0 I I #
point $-1 -60.84292123172704 36.582254352084327 14.566362162618324 #
point $-1 -60.84292123172704 -36.582254352084327 14.566362162618324 #
straight-curve $-1 60.84292123172704 -36.582254352084327 0 0 0 -1 I I #
straight-curve $-1 60.84292123172704 36.582254352084327 0 0 0 -1 I I #
face $-1 $302 $181 $13 $-1 $303 reversed single #
plane-surface $-1 0 0 14.566362162618324 0 0 1 1 0 0 forward_v I I I I #
coedge $-1 $304 $305 $242 $306 forward $167 $-1 #
coedge $-1 $169 $168 $241 $306 reversed $58 $-1 #
edge $-1 $307 -7.1762416580528523 $182 7.1762416580528523 $168 $308 forward 7 unknown #
edge $-1 $186 -7.1762416580528523 $309 7.1762416580528523 $169 $310 forward 7 unknown #
straight-curve $-1 -51.043444072241989 -50.934737668190031 0 0 0 -1 I I #
coedge $-1 $311 $171 $176 $252 forward $181 $-1 #
straight-curve $-1 -57.589349490637169 -43.758496010137179 -14.566362162618324 0 1 0 I I #
coedge $-1 $173 $312 $175 $251 forward $185 $-1 #
straight-curve $-1 -57.589349490637169 -43.758496010137179 14.566362162618324 0 -1 0 I I #
coedge $-1 $176 $175 $313 $314 forward $101 $-1 #
edge $-1 $315 -60.84292123172704 $178 -57.589349490637169 $175 $316 forward 7 unknown #
edge $-1 $177 57.589349490637169 $317 60.84292123172704 $176 $318 forward 7 unknown #
point $-1 -57.589349490637169 -36.582254352084327 -14.566362162618324 #
point $-1 -57.589349490637169 -36.582254352084327 14.566362162618324 #
coedge $-1 $180 $256 $304 $319 forward $181 $-1 #
coedge $-1 $255 $320 $321 $322 forward $181 $-1 #
point $-1 -51.043444072241989 -50.934737668190031 -14.566362162618324 #
coedge $-1 $259 $184 $305 $323 forward $185 $-1 #
coedge $-1 $324 $258 $325 $326 forward $185 $-1 #
point $-1 -51.043444072241989 -50.934737668190031 14.566362162618324 #
face $-1 $327 $328 $14 $-1 $329 reversed single #
loop $-1 $-1 $330 $190 #
plane-surface $-1 -57.589349490637169 -43.758496010137179 0 1 0 0 0 0 -1 forward_v I I I I #
coedge $-1 $331 $332 $333 $334 forward $191 $-1 #
coedge $-1 $193 $335 $336 $337 forward $117 $-1 #
coedge $-1 $336 $203 $194 $267 forward $205 $-1 #
edge $-1 $271 -61.273276061195347 $268 -48.365605136778356 $266 $338 forward 7 unknown #
vertex $-1 $267 $339 #
straight-curve $-1 10.739152091511194 52.691516387863047 14.566362162618326 0 -1 0 I I #
edge $-1 $201 -11.309353908708552 $271 10.929219363910313 $203 $340 forward 7 unknown #
vertex $-1 $270 $341 #
straight-curve $-1 10.739152091511194 9.802194966823663e-007 65.021014997349084 0 -0.49999998660252726 0.86602541151947299 I I #
point $-1 10.739152091511194 29.13000733550448 14.566362162618326 #
point $-1 -11.499421181107671 36.582254352084327 1.6586912382013352 #
coedge $-1 $204 $342 $343 $344 reversed $205 $-1 #
face $-1 $345 $205 $14 $-1 $346 reversed single #
coedge $-1 $347 $207 $348 $349 forward $117 $-1 #
coedge $-1 $343 $350 $207 $279 reversed $351 $-1 #
edge $-1 $280 -36.582254352084327 $352 36.582254352084327 $278 $353 forward 7 unknown #
vertex $-1 $208 $354 #
straight-curve $-1 0 36.582254352084327 14.566362162618324 -1 0 0 I I #
face $-1 $355 $356 $15 $-1 $357 reversed single #
loop $-1 $-1 $358 $211 #
plane-surface $-1 0 0 14.566362162618324 0 0 1 1 0 0 forward_v I I I I #
coedge $-1 $359 $360 $358 $361 reversed $212 $-1 #
coedge $-1 $362 $287 $292 $363 reversed $214 $-1 #
coedge $-1 $286 $364 $215 $288 reversed $214 $-1 #
edge $-1 $293 58.260014271643875 $365 73.164508704168682 $215 $366 forward 7 unknown #
coedge $-1 $367 $368 $216 $290 forward $369 $-1 #
edge $-1 $294 48.365605136778356 $365 61.273276061195347 $289 $370 forward 7 unknown #
coedge $-1 $371 $217 $368 $372 forward $283 $-1 #
coedge $-1 $217 $358 $286 $363 forward $283 $-1 #
vertex $-1 $363 $373 #
vertex $-1 $372 $374 #
straight-curve $-1 -11.499421181107671 52.691516387863047 14.566362162618326 0 1 0 I I #
vertex $-1 $219 $375 #
point $-1 1.6198654552017544 30.021957163601563 6.476215821680154 #
straight-curve $-1 -60.84292123172704 36.582254352084327 0 0 0 -1 I I #
point $-1 -60.84292123172704 -36.582254352084327 -14.566362162618324 #
straight-curve $-1 -60.84292123172704 0 -14.566362162618324 0 1 0 I I #
point $-1 -60.84292123172704 36.582254352084327 -14.566362162618324 #
face $-1 $376 $377 $13 $-1 $378 reversed single #
plane-surface $-1 0 0 -14.566362162618324 0 0 1 1 0 0 forward_v I I I I #
coedge $-1 $379 $241 $255 $319 reversed $167 $-1 #
coedge $-1 $241 $379 $258 $323 reversed $167 $-1 #
edge $-1 $309 -14.566362162618324 $307 14.566362162618324 $241 $380 forward 7 unknown #
vertex $-1 $243 $381 #
straight-curve $-1 -51.043444072241989 -43.758496010137179 -14.566362162618324 0 -1 0 I I #
vertex $-1 $323 $382 #
straight-curve $-1 -51.043444072241989 -43.758496010137179 14.566362162618324 0 1 0 I I #
coedge $-1 $320 $246 $383 $384 forward $181 $-1 #
coedge $-1 $248 $324 $385 $386 forward $185 $-1 #
coedge $-1 $385 $383 $250 $314 reversed $377 $-1 #
edge $-1 $315 -14.566362162618324 $317 14.566362162618324 $313 $387 forward 7 unknown #
vertex $-1 $386 $388 #
straight-curve $-1 0 -36.582254352084327 14.566362162618324 1 0 0 I I #
vertex $-1 $384 $389 #
straight-curve $-1 0 -36.582254352084327 -14.566362162618324 -1 0 0 I I #
edge $-1 $390 -60.84292123172704 $307 51.043444072241989 $304 $318 forward 7 unknown #
coedge $-1 $256 $311 $391 $392 forward $181 $-1 #
coedge $-1 $393 $394 $256 $322 reversed $395 $-1 #
edge $-1 $396 -36.582254352084327 $390 36.582254352084327 $321 $397 forward 7 unknown #
edge $-1 $309 -51.043444072241989 $398 60.84292123172704 $305 $316 forward 7 unknown #
coedge $-1 $312 $259 $399 $400 forward $185 $-1 #
coedge $-1 $394 $393 $259 $326 reversed $395 $-1 #
edge $-1 $398 -36.582254352084327 $401 36.582254352084327 $325 $402 forward 7 unknown #
face $-1 $403 $404 $14 $-1 $405 reversed single #
loop $-1 $-1 $406 $261 #
plane-surface $-1 -51.043444072241989 -43.758496010137179 0 -1 0 0 0 0 1 forward_v I I I I #
coedge $-1 $407 $408 $409 $410 reversed $262 $-1 #
coedge $-1 $411 $264 $412 $413 reversed $191 $-1 #
coedge $-1 $264 $411 $414 $415 reversed $191 $-1 #
coedge $-1 $408 $407 $264 $334 reversed $262 $-1 #
edge $-1 $416 -14.566362162618324 $417 14.566362162618324 $333 $418 forward 7 unknown #
coedge $-1 $265 $419 $420 $421 forward $117 $-1 #
coedge $-1 $422 $266 $265 $337 reversed $205 $-1 #
edge $-1 $423 -60.84292123172704 $268 -10.739152091511194 $336 $281 forward 7 unknown #
straight-curve $-1 10.739152091511194 36.582254352084327 62.931967299396682 0 0 1 I I #
point $-1 10.739152091511194 36.582254352084327 14.566362162618324 #
straight-curve $-1 -0.19006727239911925 36.582254352084327 1.6586912382013281 1 0 0 I I #
point $-1 10.739152091511194 36.582254352084327 1.6586912382013352 #
coedge $-1 $275 $422 $424 $425 reversed $205 $-1 #
coedge $-1 $426 $278 $275 $344 forward $351 $-1 #
edge $-1 $280 -14.566362162618324 $427 14.566362162618324 $275 $428 forward 7 unknown #
face $-1 $-1 $429 $14 $-1 $430 reversed single #
plane-surface $-1 0 36.582254352084327 0 0 -1 0 0 0 -1 forward_v I I I I #
coedge $-1 $414 $277 $408 $431 forward $117 $-1 #
coedge $-1 $432 $409 $277 $349 reversed $404 $-1 #
edge $-1 $352 -60.84292123172704 $433 -57.589349490637169 $348 $434 forward 7 unknown #
coedge $-1 $278 $426 $432 $435 reversed $351 $-1 #
loop $-1 $-1 $343 $436 #
vertex $-1 $279 $437 #
straight-curve $-1 -60.84292123172704 0 14.566362162618324 0 -1 0 I I #
point $-1 -60.84292123172704 36.582254352084327 14.566362162618324 #
face $-1 $438 $439 $15 $-1 $440 reversed single #
loop $-1 $-1 $441 $282 #
plane-surface $-1 -54.316396781439579 -50.934737668190031 0 0 1 0 0 0 1 forward_v I I I I #
coedge $-1 $292 $442 $285 $361 forward $283 $-1 #
coedge $-1 $360 $285 $443 $444 reversed $212 $-1 #
coedge $-1 $285 $359 $362 $445 forward $212 $-1 #
edge $-1 $446 16.10926203577872 $447 23.561509052358566 $358 $448 forward 7 unknown #
coedge $-1 $364 $286 $360 $445 reversed $214 $-1 #
edge $-1 $447 -10.929219363910313 $293 11.309353908708552 $292 $449 forward 7 unknown #
coedge $-1 $287 $362 $367 $450 reversed $214 $-1 #
vertex $-1 $450 $451 #
straight-curve $-1 -11.499421181107671 9.802194966823663e-007 65.021014997349084 0 0.49999998660252726 -0.86602541151947299 I I #
coedge $-1 $443 $289 $364 $450 forward $369 $-1 #
coedge $-1 $289 $452 $291 $372 reversed $369 $-1 #
loop $-1 $-1 $443 $453 #
straight-curve $-1 -11.499421181107671 36.582254352084327 62.931967299396682 0 0 -1 I I #
coedge $-1 $454 $291 $455 $456 forward $283 $-1 #
edge $-1 $294 11.499421181107671 $457 60.84292123172704 $368 $458 forward 7 unknown #
point $-1 -11.499421181107671 29.13000733550448 14.566362162618326 #
point $-1 -11.499421181107671 36.582254352084327 14.566362162618324 #
point $-1 -0.3801345447982456 28.289906340562617 5.4762158484750989 #
face $-1 $459 $460 $13 $-1 $461 reversed single #
loop $-1 $-1 $462 $302 #
plane-surface $-1 -60.84292123172704 0 0 1 0 0 0 0 -1 forward_v I I I I #
coedge $-1 $305 $304 $394 $463 reversed $167 $-1 #
straight-curve $-1 -51.043444072241989 -36.582254352084327 0 0 0 -1 I I #
point $-1 -51.043444072241989 -36.582254352084327 -14.566362162618324 #
point $-1 -51.043444072241989 -36.582254352084327 14.566362162618324 #
coedge $-1 $313 $462 $311 $384 reversed $377 $-1 #
edge $-1 $317 -36.582254352084327 $464 36.582254352084327 $383 $465 forward 7 unknown #
coedge $-1 $462 $313 $312 $386 reversed $377 $-1 #
edge $-1 $466 -36.582254352084327 $315 36.582254352084327 $385 $467 forward 7 unknown #
straight-curve $-1 -60.84292123172704 -36.582254352084327 0 0 0 -1 I I #
point $-1 -60.84292123172704 -36.582254352084327 14.566362162618324 #
point $-1 -60.84292123172704 -36.582254352084327 -14.566362162618324 #
vertex $-1 $463 $468 #
coedge $-1 $469 $470 $320 $392 reversed $460 $-1 #
edge $-1 $464 -60.84292123172704 $396 60.84292123172704 $391 $471 forward 7 unknown #
coedge $-1 $325 $321 $470 $472 reversed $395 $-1 #
coedge $-1 $321 $325 $379 $463 forward $395 $-1 #
loop $-1 $-1 $394 $459 #
vertex $-1 $322 $473 #
straight-curve $-1 60.84292123172704 0 -14.566362162618324 0 -1 0 I I #
vertex $-1 $326 $474 #
coedge $-1 $470 $469 $324 $400 reversed $460 $-1 #
edge $-1 $401 -60.84292123172704 $466 60.84292123172704 $399 $475 forward 7 unknown #
vertex $-1 $326 $476 #
straight-curve $-1 60.84292123172704 0 14.566362162618324 0 1 0 I I #
face $-1 $477 $478 $14 $-1 $405 reversed single #
loop $-1 $-1 $409 $327 #
plane-surface $-1 0 -36.582254352084327 0 0 1 0 0 0 1 forward_v I I I I #
coedge $-1 $479 $480 $411 $481 forward $328 $-1 #
coedge $-1 $333 $330 $482 $483 reversed $262 $-1 #
coedge $-1 $330 $333 $347 $431 reversed $262 $-1 #
coedge $-1 $348 $484 $330 $410 forward $404 $-1 #
edge $-1 $485 -14.566362162618324 $433 14.566362162618324 $409 $486 forward 7 unknown #
coedge $-1 $332 $331 $406 $481 reversed $191 $-1 #
coedge $-1 $482 $487 $331 $413 forward $488 $-1 #
edge $-1 $489 -3.2729527091975896 $417 3.2729527091975896 $331 $490 forward 7 unknown #
coedge $-1 $491 $347 $332 $415 forward $117 $-1 #
edge $-1 $416 -3.2729527091975896 $492 3.2729527091975896 $332 $493 forward 7 unknown #
vertex $-1 $431 $494 #
vertex $-1 $483 $495 #
straight-curve $-1 -57.589349490637169 -50.934737668190031 0 0 0 -1 I I #
coedge $-1 $335 $491 $496 $497 forward $117 $-1 #
coedge $-1 $498 $499 $335 $421 reversed $429 $-1 #
edge $-1 $500 -36.582254352084327 $423 36.582254352084327 $420 $501 forward 7 unknown #
coedge $-1 $342 $336 $499 $502 forward $205 $-1 #
vertex $-1 $421 $503 #
coedge $-1 $504 $505 $342 $425 forward $488 $-1 #
edge $-1 $427 -60.84292123172704 $506 60.84292123172704 $342 $507 forward 7 unknown #
coedge $-1 $350 $343 $505 $508 reversed $351 $-1 #
vertex $-1 $425 $509 #
straight-curve $-1 -60.84292123172704 36.582254352084327 0 0 0 -1 I I #
loop $-1 $-1 $498 $345 #
plane-surface $-1 60.84292123172704 0 0 -1 0 0 0 0 1 forward_v I I I I #
edge $-1 $433 -7.1762416580528523 $416 7.1762416580528523 $408 $510 forward 7 unknown #
coedge $-1 $484 $348 $350 $435 forward $404 $-1 #
vertex $-1 $431 $511 #
straight-curve $-1 0 -36.582254352084327 14.566362162618324 1 0 0 I I #
edge $-1 $352 -14.566362162618324 $512 14.566362162618324 $350 $513 forward 7 unknown #
face $-1 $276 $351 $14 $-1 $514 reversed single #
point $-1 -60.84292123172704 -36.582254352084327 14.566362162618324 #
face $-1 $515 $516 $15 $-1 $517 reversed single #
loop $-1 $-1 $518 $355 #
plane-surface $-1 -57.589349490637169 -43.758496010137179 0 1 0 0 0 0 -1 forward_v I I I I #
coedge $-1 $519 $520 $521 $522 forward $356 $-1 #
coedge $-1 $358 $523 $524 $525 forward $283 $-1 #
coedge $-1 $524 $367 $359 $444 forward $369 $-1 #
edge $-1 $526 -61.273276061195347 $446 -48.365605136778356 $443 $527 forward 7 unknown #
edge $-1 $526 -73.164508704168682 $447 -58.260014271643875 $360 $528 forward 7 unknown #
vertex $-1 $444 $529 #
vertex $-1 $363 $530 #
straight-curve $-1 10.739152091511194 52.691516387863047 14.566362162618326 0 -1 0 I I #
straight-curve $-1 -0.19006727239911925 29.13000733550448 14.566362162618326 -1 0 0 I I #
edge $-1 $365 -11.309353908708552 $526 10.929219363910313 $367 $531 forward 7 unknown #
point $-1 -11.499421181107671 36.582254352084327 1.6586912382013352 #
coedge $-1 $368 $532 $533 $534 reversed $369 $-1 #
face $-1 $535 $369 $15 $-1 $536 reversed single #
coedge $-1 $537 $371 $538 $539 forward $283 $-1 #
coedge $-1 $533 $540 $371 $456 reversed $541 $-1 #
edge $-1 $457 -36.582254352084327 $542 36.582254352084327 $455 $543 forward 7 unknown #
vertex $-1 $372 $544 #
straight-curve $-1 0 36.582254352084327 14.566362162618324 -1 0 0 I I #
face $-1 $-1 $395 $13 $-1 $545 reversed single #
loop $-1 $-1 $470 $376 #
plane-surface $-1 0 36.582254352084327 0 0 -1 0 0 0 -1 forward_v I I I I #
coedge $-1 $383 $385 $469 $546 forward $377 $-1 #
edge $-1 $398 -14.566362162618324 $390 14.566362162618324 $394 $547 forward 7 unknown #
vertex $-1 $392 $548 #
straight-curve $-1 -60.84292123172704 0 -14.566362162618324 0 1 0 I I #
vertex $-1 $400 $549 #
straight-curve $-1 -60.84292123172704 0 14.566362162618324 0 -1 0 I I #
point $-1 60.84292123172704 -36.582254352084327 -14.566362162618324 #
coedge $-1 $399 $391 $462 $546 reversed $460 $-1 #
coedge $-1 $391 $399 $393 $472 forward $460 $-1 #
straight-curve $-1 0 36.582254352084327 -14.566362162618324 1 0 0 I I #
edge $-1 $401 -14.566362162618324 $396 14.566362162618324 $393 $550 forward 7 unknown #
point $-1 60.84292123172704 36.582254352084327 -14.566362162618324 #
point $-1 60.84292123172704 -36.582254352084327 14.566362162618324 #
straight-curve $-1 0 36.582254352084327 14.566362162618324 -1 0 0 I I #
point $-1 60.84292123172704 36.582254352084327 14.566362162618324 #
face $-1 $436 $488 $14 $-1 $551 reversed single #
loop $-1 $-1 $552 $403 #
coedge $-1 $553 $406 $487 $554 reversed $328 $-1 #
coedge $-1 $406 $553 $491 $555 reversed $328 $-1 #
edge $-1 $492 -14.566362162618324 $489 14.566362162618324 $406 $556 forward 7 unknown #
coedge $-1 $557 $412 $407 $483 forward $488 $-1 #
edge $-1 $417 -7.1762416580528523 $485 7.1762416580528523 $407 $558 forward 7 unknown #
coedge $-1 $409 $432 $557 $559 reversed $404 $-1 #
vertex $-1 $559 $560 #
straight-curve $-1 -57.589349490637169 -36.582254352084327 0 0 0 1 I I #
coedge $-1 $412 $561 $479 $554 forward $488 $-1 #
loop $-1 $-1 $504 $477 #
vertex $-1 $481 $562 #
straight-curve $-1 -54.316396781439579 -50.934737668190031 -14.566362162618324 -1 0 0 I I #
coedge $-1 $419 $414 $480 $555 forward $117 $-1 #
vertex $-1 $555 $563 #
straight-curve $-1 -54.316396781439579 -50.934737668190031 14.566362162618324 1 0 0 I I #
point $-1 -57.589349490637169 -50.934737668190031 14.566362162618324 #
point $-1 -57.589349490637169 -50.934737668190031 -14.566362162618324 #
coedge $-1 $552 $564 $419 $497 reversed $478 $-1 #
edge $-1 $565 -51.043444072241989 $500 60.84292123172704 $496 $434 forward 7 unknown #
coedge $-1 $566 $420 $564 $567 forward $429 $-1 #
coedge $-1 $420 $566 $422 $502 reversed $429 $-1 #
vertex $-1 $421 $568 #
straight-curve $-1 60.84292123172704 0 14.566362162618324 0 1 0 I I #
edge $-1 $423 -14.566362162618324 $506 14.566362162618324 $499 $569 forward 7 unknown #
point $-1 60.84292123172704 36.582254352084327 14.566362162618324 #
coedge $-1 $561 $424 $566 $570 forward $488 $-1 #
coedge $-1 $424 $557 $426 $508 forward $488 $-1 #
vertex $-1 $570 $571 #
straight-curve $-1 0 36.582254352084327 -14.566362162618324 1 0 0 I I #
edge $-1 $512 -36.582254352084327 $427 36.582254352084327 $426 $572 forward 7 unknown #
point $-1 -60.84292123172704 36.582254352084327 -14.566362162618324 #
straight-curve $-1 -57.589349490637169 -43.758496010137179 14.566362162618324 0 -1 0 I I #
point $-1 -57.589349490637169 -36.582254352084327 14.566362162618324 #
vertex $-1 $508 $573 #
straight-curve $-1 -60.84292123172704 -36.582254352084327 0 0 0 -1 I I #
plane-surface $-1 -60.84292123172704 0 0 1 0 0 0 0 -1 forward_v I I I I #
face $-1 $574 $575 $15 $-1 $576 reversed single #
loop $-1 $-1 $577 $438 #
plane-surface $-1 -51.043444072241989 -43.758496010137179 0 -1 0 0 0 0 1 forward_v I I I I #
coedge $-1 $578 $579 $580 $581 reversed $439 $-1 #
coedge $-1 $582 $441 $583 $584 reversed $356 $-1 #
coedge $-1 $441 $582 $585 $586 reversed $356 $-1 #
coedge $-1 $579 $578 $441 $522 reversed $439 $-1 #
edge $-1 $587 -14.566362162618324 $588 14.566362162618324 $521 $589 forward 7 unknown #
coedge $-1 $442 $590 $591 $592 forward $283 $-1 #
coedge $-1 $593 $443 $442 $525 reversed $369 $-1 #
edge $-1 $594 -60.84292123172704 $446 -10.739152091511194 $524 $458 forward 7 unknown #
vertex $-1 $450 $595 #
straight-curve $-1 10.739152091511194 36.582254352084327 62.931967299396682 0 0 1 I I #
straight-curve $-1 10.739152091511194 9.802194966823663e-007 65.021014997349084 0 -0.49999998660252726 0.86602541151947299 I I #
point $-1 10.739152091511194 36.582254352084327 14.566362162618324 #
point $-1 10.739152091511194 29.13000733550448 14.566362162618326 #
straight-curve $-1 -0.19006727239911925 36.582254352084327 1.6586912382013281 1 0 0 I I #
coedge $-1 $452 $593 $596 $597 reversed $369 $-1 #
coedge $-1 $598 $455 $452 $534 forward $541 $-1 #
edge $-1 $457 -14.566362162618324 $599 14.566362162618324 $452 $600 forward 7 unknown #
face $-1 $-1 $601 $15 $-1 $602 reversed single #
plane-surface $-1 0 36.582254352084327 0 0 -1 0 0 0 -1 forward_v I I I I #
coedge $-1 $585 $454 $579 $603 forward $283 $-1 #
coedge $-1 $604 $580 $454 $539 reversed $575 $-1 #
edge $-1 $542 -60.84292123172704 $605 -57.589349490637169 $538 $606 forward 7 unknown #
coedge $-1 $455 $598 $604 $607 reversed $541 $-1 #
loop $-1 $-1 $533 $608 #
vertex $-1 $456 $609 #
straight-curve $-1 -60.84292123172704 0 14.566362162618324 0 -1 0 I I #
point $-1 -60.84292123172704 36.582254352084327 14.566362162618324 #
plane-surface $-1 60.84292123172704 0 0 -1 0 0 0 0 1 forward_v I I I I #
edge $-1 $466 -14.566362162618324 $464 14.566362162618324 $469 $610 forward 7 unknown #
straight-curve $-1 60.84292123172704 -36.582254352084327 0 0 0 -1 I I #
point $-1 -60.84292123172704 36.582254352084327 -14.566362162618324 #
point $-1 -60.84292123172704 36.582254352084327 14.566362162618324 #
straight-curve $-1 60.84292123172704 36.582254352084327 0 0 0 -1 I I #
plane-surface $-1 0 0 -14.566362162618324 0 0 1 1 0 0 forward_v I I I I #
coedge $-1 $611 $496 $553 $612 forward $478 $-1 #
coedge $-1 $480 $479 $552 $612 reversed $328 $-1 #
edge $-1 $613 -7.1762416580528523 $489 7.1762416580528523 $479 $614 forward 7 unknown #
edge $-1 $492 -7.1762416580528523 $565 7.1762416580528523 $480 $615 forward 7 unknown #
straight-curve $-1 -51.043444072241989 -50.934737668190031 0 0 0 -1 I I #
coedge $-1 $505 $482 $484 $559 forward $488 $-1 #
straight-curve $-1 -57.589349490637169 -43.758496010137179 -14.566362162618324 0 1 0 I I #
edge $-1 $485 57.589349490637169 $512 60.84292123172704 $484 $616 forward 7 unknown #
point $-1 -57.589349490637169 -36.582254352084327 -14.566362162618324 #
coedge $-1 $487 $504 $611 $617 forward $488 $-1 #
point $-1 -51.043444072241989 -50.934737668190031 -14.566362162618324 #
point $-1 -51.043444072241989 -50.934737668190031 14.566362162618324 #
coedge $-1 $496 $611 $498 $567 reversed $478 $-1 #
vertex $-1 $497 $618 #
coedge $-1 $499 $498 $504 $570 reversed $429 $-1 #
edge $-1 $500 -14.566362162618324 $619 14.566362162618324 $498 $620 forward 7 unknown #
point $-1 60.84292123172704 -36.582254352084327 14.566362162618324 #
straight-curve $-1 60.84292123172704 36.582254352084327 0 0 0 -1 I I #
edge $-1 $506 -36.582254352084327 $619 36.582254352084327 $566 $621 forward 7 unknown #
point $-1 60.84292123172704 36.582254352084327 -14.566362162618324 #
straight-curve $-1 -60.84292123172704 0 -14.566362162618324 0 1 0 I I #
point $-1 -60.84292123172704 -36.582254352084327 -14.566362162618324 #
face $-1 $622 $623 $15 $-1 $576 reversed single #
loop $-1 $-1 $580 $515 #
plane-surface $-1 0 -36.582254352084327 0 0 1 0 0 0 1 forward_v I I I I #
coedge $-1 $624 $625 $582 $626 forward $516 $-1 #
coedge $-1 $521 $518 $627 $628 reversed $439 $-1 #
coedge $-1 $518 $521 $537 $603 reversed $439 $-1 #
coedge $-1 $538 $629 $518 $581 forward $575 $-1 #
edge $-1 $630 -14.566362162618324 $605 14.566362162618324 $580 $631 forward 7 unknown #
coedge $-1 $520 $519 $577 $626 reversed $356 $-1 #
coedge $-1 $627 $632 $519 $584 forward $633 $-1 #
edge $-1 $634 -3.2729527091975896 $588 3.2729527091975896 $519 $635 forward 7 unknown #
coedge $-1 $636 $537 $520 $586 forward $283 $-1 #
edge $-1 $587 -3.2729527091975896 $637 3.2729527091975896 $520 $638 forward 7 unknown #
vertex $-1 $603 $639 #
vertex $-1 $628 $640 #
straight-curve $-1 -57.589349490637169 -50.934737668190031 0 0 0 -1 I I #
coedge $-1 $523 $636 $641 $642 forward $283 $-1 #
coedge $-1 $643 $644 $523 $592 reversed $601 $-1 #
edge $-1 $645 -36.582254352084327 $594 36.582254352084327 $591 $646 forward 7 unknown #
coedge $-1 $532 $524 $644 $647 forward $369 $-1 #
vertex $-1 $592 $648 #
point $-1 10.739152091511194 36.582254352084327 1.6586912382013352 #
coedge $-1 $649 $650 $532 $597 forward $633 $-1 #
edge $-1 $599 -60.84292123172704 $651 60.84292123172704 $532 $652 forward 7 unknown #
coedge $-1 $540 $533 $650 $653 reversed $541 $-1 #
vertex $-1 $597 $654 #
straight-curve $-1 -60.84292123172704 36.582254352084327 0 0 0 -1 I I #
loop $-1 $-1 $643 $535 #
plane-surface $-1 60.84292123172704 0 0 -1 0 0 0 0 1 forward_v I I I I #
edge $-1 $605 -7.1762416580528523 $587 7.1762416580528523 $579 $655 forward 7 unknown #
coedge $-1 $629 $538 $540 $607 forward $575 $-1 #
vertex $-1 $603 $656 #
straight-curve $-1 0 -36.582254352084327 14.566362162618324 1 0 0 I I #
edge $-1 $542 -14.566362162618324 $657 14.566362162618324 $540 $658 forward 7 unknown #
face $-1 $453 $541 $15 $-1 $659 reversed single #
point $-1 -60.84292123172704 -36.582254352084327 14.566362162618324 #
straight-curve $-1 -60.84292123172704 36.582254352084327 0 0 0 -1 I I #
coedge $-1 $564 $552 $561 $617 reversed $478 $-1 #
edge $-1 $565 -14.566362162618324 $613 14.566362162618324 $552 $660 forward 7 unknown #
vertex $-1 $554 $661 #
straight-curve $-1 -51.043444072241989 -43.758496010137179 -14.566362162618324 0 -1 0 I I #
straight-curve $-1 -51.043444072241989 -43.758496010137179 14.566362162618324 0 1 0 I I #
straight-curve $-1 0 -36.582254352084327 -14.566362162618324 -1 0 0 I I #
edge $-1 $619 -60.84292123172704 $613 51.043444072241989 $611 $616 forward 7 unknown #
point $-1 -51.043444072241989 -36.582254352084327 14.566362162618324 #
vertex $-1 $567 $662 #
straight-curve $-1 60.84292123172704 -36.582254352084327 0 0 0 -1 I I #
straight-curve $-1 60.84292123172704 0 -14.566362162618324 0 -1 0 I I #
face $-1 $608 $633 $15 $-1 $663 reversed single #
loop $-1 $-1 $664 $574 #
coedge $-1 $665 $577 $632 $666 reversed $516 $-1 #
coedge $-1 $577 $665 $636 $667 reversed $516 $-1 #
edge $-1 $637 -14.566362162618324 $634 14.566362162618324 $577 $668 forward 7 unknown #
coedge $-1 $669 $583 $578 $628 forward $633 $-1 #
edge $-1 $588 -7.1762416580528523 $630 7.1762416580528523 $578 $670 forward 7 unknown #
coedge $-1 $580 $604 $669 $671 reversed $575 $-1 #
vertex $-1 $671 $672 #
straight-curve $-1 -57.589349490637169 -36.582254352084327 0 0 0 1 I I #
coedge $-1 $583 $673 $624 $666 forward $633 $-1 #
loop $-1 $-1 $649 $622 #
vertex $-1 $626 $674 #
straight-curve $-1 -54.316396781439579 -50.934737668190031 -14.566362162618324 -1 0 0 I I #
coedge $-1 $590 $585 $625 $667 forward $283 $-1 #
vertex $-1 $667 $675 #
straight-curve $-1 -54.316396781439579 -50.934737668190031 14.566362162618324 1 0 0 I I #
point $-1 -57.589349490637169 -50.934737668190031 14.566362162618324 #
point $-1 -57.589349490637169 -50.934737668190031 -14.566362162618324 #
coedge $-1 $664 $676 $590 $642 reversed $623 $-1 #
edge $-1 $677 -51.043444072241989 $645 60.84292123172704 $641 $606 forward 7 unknown #
coedge $-1 $678 $591 $676 $679 forward $601 $-1 #
coedge $-1 $591 $678 $593 $647 reversed $601 $-1 #
vertex $-1 $592 $680 #
straight-curve $-1 60.84292123172704 0 14.566362162618324 0 1 0 I I #
edge $-1 $594 -14.566362162618324 $651 14.566362162618324 $644 $681 forward 7 unknown #
point $-1 60.84292123172704 36.582254352084327 14.566362162618324 #
coedge $-1 $673 $596 $678 $682 forward $633 $-1 #
coedge $-1 $596 $669 $598 $653 forward $633 $-1 #
vertex $-1 $682 $683 #
straight-curve $-1 0 36.582254352084327 -14.566362162618324 1 0 0 I I #
edge $-1 $657 -36.582254352084327 $599 36.582254352084327 $598 $684 forward 7 unknown #
point $-1 -60.84292123172704 36.582254352084327 -14.566362162618324 #
straight-curve $-1 -57.589349490637169 -43.758496010137179 14.566362162618324 0 -1 0 I I #
point $-1 -57.589349490637169 -36.582254352084327 14.566362162618324 #
vertex $-1 $653 $685 #
straight-curve $-1 -60.84292123172704 -36.582254352084327 0 0 0 -1 I I #
plane-surface $-1 -60.84292123172704 0 0 1 0 0 0 0 -1 forward_v I I I I #
straight-curve $-1 -51.043444072241989 -36.582254352084327 0 0 0 -1 I I #
point $-1 -51.043444072241989 -36.582254352084327 -14.566362162618324 #
point $-1 60.84292123172704 -36.582254352084327 -14.566362162618324 #
plane-surface $-1 0 0 -14.566362162618324 0 0 1 1 0 0 forward_v I I I I #
coedge $-1 $686 $641 $665 $687 forward $623 $-1 #
coedge $-1 $625 $624 $664 $687 reversed $516 $-1 #
edge $-1 $688 -7.1762416580528523 $634 7.1762416580528523 $624 $689 forward 7 unknown #
edge $-1 $637 -7.1762416580528523 $677 7.1762416580528523 $625 $690 forward 7 unknown #
straight-curve $-1 -51.043444072241989 -50.934737668190031 0 0 0 -1 I I #
coedge $-1 $650 $627 $629 $671 forward $633 $-1 #
straight-curve $-1 -57.589349490637169 -43.758496010137179 -14.566362162618324 0 1 0 I I #
edge $-1 $630 57.589349490637169 $657 60.84292123172704 $629 $691 forward 7 unknown #
point $-1 -57.589349490637169 -36.582254352084327 -14.566362162618324 #
coedge $-1 $632 $649 $686 $692 forward $633 $-1 #
point $-1 -51.043444072241989 -50.934737668190031 -14.566362162618324 #
point $-1 -51.043444072241989 -50.934737668190031 14.566362162618324 #
coedge $-1 $641 $686 $643 $679 reversed $623 $-1 #
vertex $-1 $642 $693 #
coedge $-1 $644 $643 $649 $682 reversed $601 $-1 #
edge $-1 $645 -14.566362162618324 $694 14.566362162618324 $643 $695 forward 7 unknown #
point $-1 60.84292123172704 -36.582254352084327 14.566362162618324 #
straight-curve $-1 60.84292123172704 36.582254352084327 0 0 0 -1 I I #
edge $-1 $651 -36.582254352084327 $694 36.582254352084327 $678 $696 forward 7 unknown #
point $-1 60.84292123172704 36.582254352084327 -14.566362162618324 #
straight-curve $-1 -60.84292123172704 0 -14.566362162618324 0 1 0 I I #
point $-1 -60.84292123172704 -36.582254352084327 -14.566362162618324 #
coedge $-1 $676 $664 $673 $692 reversed $623 $-1 #
edge $-1 $677 -14.566362162618324 $688 14.566362162618324 $664 $697 forward 7 unknown #
vertex $-1 $666 $698 #
straight-curve $-1 -51.043444072241989 -43.758496010137179 -14.566362162618324 0 -1 0 I I #
straight-curve $-1 -51.043444072241989 -43.758496010137179 14.566362162618324 0 1 0 I I #
straight-curve $-1 0 -36.582254352084327 -14.566362162618324 -1 0 0 I I #
edge $-1 $694 -60.84292123172704 $688 51.043444072241989 $686 $691 forward 7 unknown #
point $-1 -51.043444072241989 -36.582254352084327 14.566362162618324 #
vertex $-1 $679 $699 #
straight-curve $-1 60.84292123172704 -36.582254352084327 0 0 0 -1 I I #
straight-curve $-1 60.84292123172704 0 -14.566362162618324 0 -1 0 I I #
straight-curve $-1 -51.043444072241989 -36.582254352084327 0 0 0 -1 I I #
point $-1 -51.043444072241989 -36.582254352084327 -14.566362162618324 #
point $-1 60.84292123172704 -36.582254352084327 -14.566362162618324 #
End-of-ACIS-data 