500 0 13 0           
7 Unknown 11 ACIS 5.0 NT 24 Fri Mar 26 14:44:38 1999 
-1 9.9999999999999995e-007 1e-010 
body $-1 $13 $-1 $14 #
body $-1 $15 $-1 $16 #
body $-1 $17 $-1 $18 #
body $-1 $19 $-1 $20 #
body $-1 $21 $-1 $22 #
body $-1 $23 $-1 $24 #
body $-1 $25 $-1 $26 #
body $-1 $27 $-1 $28 #
body $-1 $29 $-1 $30 #
body $-1 $31 $-1 $32 #
body $-1 $33 $-1 $34 #
body $-1 $35 $-1 $36 #
body $-1 $37 $-1 $38 #
lump $-1 $-1 $39 $0 #
transform $-1 1 0 0 0 1 0 0 0 1 69.081698049867242 46.718430009028538 17.565143045815269 1 rotate no_reflect no_shear #
lump $-1 $-1 $40 $1 #
transform $-1 1 0 0 0 1 0 0 0 1 69.081698049867242 46.718430009028538 17.565143045815269 1 rotate no_reflect no_shear #
lump $-1 $-1 $41 $2 #
transform $-1 1 0 0 0 1 0 0 0 1 69.081698049867242 46.718430009028538 17.565143045815269 1 rotate no_reflect no_shear #
lump $-1 $-1 $42 $3 #
transform $-1 1 0 0 0 1 0 0 0 1 69.081698049867242 46.718430009028538 17.565143045815269 1 rotate no_reflect no_shear #
lump $-1 $-1 $43 $4 #
transform $-1 1 0 0 0 1 0 0 0 1 69.081698049867242 46.718430009028538 17.565143045815269 1 rotate no_reflect no_shear #
lump $-1 $-1 $44 $5 #
transform $-1 1 0 0 0 1 0 0 0 1 69.081698049867242 46.718430009028538 17.565143045815269 1 rotate no_reflect no_shear #
lump $-1 $-1 $45 $6 #
transform $-1 1 0 0 0 1 0 0 0 1 69.081698049867242 46.718430009028538 17.565143045815269 1 rotate no_reflect no_shear #
lump $-1 $-1 $46 $7 #
transform $-1 1 0 0 0 1 0 0 0 1 69.081698049867242 46.718430009028538 17.565143045815269 1 rotate no_reflect no_shear #
lump $-1 $-1 $47 $8 #
transform $-1 1 0 0 0 1 0 0 0 1 69.081698049867242 46.718430009028538 17.565143045815269 1 rotate no_reflect no_shear #
lump $-1 $-1 $48 $9 #
transform $-1 1 0 0 0 1 0 0 0 1 69.081698049867242 46.718430009028538 17.565143045815269 1 rotate no_reflect no_shear #
lump $-1 $-1 $49 $10 #
transform $-1 1 0 0 0 1 0 0 0 1 69.081698049867242 46.718430009028538 17.565143045815269 1 rotate no_reflect no_shear #
lump $-1 $-1 $50 $11 #
transform $-1 1 0 0 0 1 0 0 0 1 69.081698049867242 46.718430009028538 17.565143045815269 1 rotate no_reflect no_shear #
lump $-1 $-1 $51 $12 #
transform $-1 1 0 0 0 1 0 0 0 1 69.081698049867242 46.718430009028538 17.565143045815269 1 rotate no_reflect no_shear #
shell $-1 $-1 $-1 $52 $-1 $13 #
shell $-1 $-1 $-1 $53 $-1 $15 #
shell $-1 $-1 $-1 $54 $-1 $17 #
shell $-1 $-1 $-1 $55 $-1 $19 #
shell $-1 $-1 $-1 $56 $-1 $21 #
shell $-1 $-1 $-1 $57 $-1 $23 #
shell $-1 $-1 $-1 $58 $-1 $25 #
shell $-1 $-1 $-1 $59 $-1 $27 #
shell $-1 $-1 $-1 $60 $-1 $29 #
shell $-1 $-1 $-1 $61 $-1 $31 #
shell $-1 $-1 $-1 $62 $-1 $33 #
shell $-1 $-1 $-1 $63 $-1 $35 #
shell $-1 $-1 $-1 $64 $-1 $37 #
face $-1 $65 $66 $39 $-1 $67 forward single #
face $-1 $68 $69 $40 $-1 $70 forward single #
face $-1 $71 $72 $41 $-1 $73 reversed single #
face $-1 $74 $75 $42 $-1 $76 forward single #
face $-1 $77 $78 $43 $-1 $79 forward single #
face $-1 $80 $81 $44 $-1 $82 reversed single #
face $-1 $83 $84 $45 $-1 $85 forward single #
face $-1 $86 $87 $46 $-1 $88 reversed single #
face $-1 $89 $90 $47 $-1 $91 forward single #
face $-1 $92 $93 $48 $-1 $94 reversed single #
face $-1 $95 $96 $49 $-1 $97 forward single #
face $-1 $98 $99 $50 $-1 $100 reversed single #
face $-1 $101 $102 $51 $-1 $103 forward single #
face $-1 $104 $105 $39 $-1 $106 reversed single #
loop $-1 $-1 $107 $52 #
plane-surface $-1 0 0 17.565143045815269 0 0 1 1 0 0 forward_v I I I I #
face $-1 $108 $109 $40 $-1 $110 reversed single #
loop $-1 $-1 $111 $53 #
plane-surface $-1 0 -46.718430009028538 0 0 1 0 0 0 1 forward_v I I I I #
face $-1 $112 $113 $41 $-1 $114 reversed single #
loop $-1 $-1 $115 $54 #
plane-surface $-1 99.647829548011572 23.91026355335552 205.87585085373757 0 -1 0 -0.80901700255871778 0 -0.5877852410284794 forward_v I I I I #
face $-1 $116 $117 $42 $-1 $118 forward single #
loop $-1 $119 $120 $55 #
cone-surface $-1 66.574507586945799 10.173027393584825 14.639653463457378 -0.80901700255871778 0 -0.5877852410284794 0.5877852410284794 0 -0.80901700255871778 1 I I 0 1 1 forward I I I I #
face $-1 $121 $122 $43 $-1 $123 forward single #
loop $-1 $124 $125 $56 #
cone-surface $-1 66.574507586945799 18.415369089447239 14.639653463457378 -0.80901700255871778 0 -0.5877852410284794 0.5877852410284794 0 -0.80901700255871778 1 I I 0 1 1 forward I I I I #
face $-1 $126 $127 $44 $-1 $128 reversed single #
loop $-1 $-1 $129 $57 #
plane-surface $-1 -142.29714422172776 -23.777024012872154 125.79885275481354 0 1 0 -0.52991927123019833 0 0.84804809178421925 forward_v I I I I #
face $-1 $130 $131 $45 $-1 $132 forward single #
loop $-1 $133 $134 $58 #
cone-surface $-1 -61.273795483546905 -18.262064514844344 12.044355842841059 0.52991927123019833 0 -0.84804809178421925 1.2720721376763289 0 0.79487890684529749 1 I I 0 1 1.5 forward I I I I #
face $-1 $135 $136 $46 $-1 $137 reversed single #
loop $-1 $-1 $138 $59 #
plane-surface $-1 -142.29714422172776 -5.1931483376704826 125.79885275481354 0 1 0 -0.52991927123019833 0 0.84804809178421925 forward_v I I I I #
face $-1 $139 $140 $47 $-1 $141 forward single #
loop $-1 $142 $143 $60 #
cone-surface $-1 -61.273795483546905 0.32181116035732771 12.044355842841059 0.52991927123019833 0 -0.84804809178421925 1.2720721376763289 0 0.79487890684529749 1 I I 0 1 1.5 forward I I I I #
face $-1 $144 $145 $48 $-1 $146 reversed single #
loop $-1 $-1 $147 $61 #
plane-surface $-1 -142.29714422172776 13.390727337531185 125.79885275481354 0 1 0 -0.52991927123019833 0 0.84804809178421925 forward_v I I I I #
face $-1 $148 $149 $49 $-1 $150 forward single #
loop $-1 $151 $152 $62 #
cone-surface $-1 -61.273795483546905 18.905686835558996 12.044355842841059 0.52991927123019833 0 -0.84804809178421925 1.2720721376763289 0 0.79487890684529749 1 I I 0 1 1.5 forward I I I I #
face $-1 $153 $154 $50 $-1 $155 reversed single #
loop $-1 $-1 $156 $63 #
plane-surface $-1 -142.29714422172776 31.974603012732853 125.79885275481354 0 1 0 -0.52991927123019833 0 0.84804809178421925 forward_v I I I I #
face $-1 $157 $158 $51 $-1 $159 forward single #
loop $-1 $160 $161 $64 #
cone-surface $-1 -61.273795483546905 37.489562510760663 12.044355842841059 0.52991927123019833 0 -0.84804809178421925 1.2720721376763289 0 0.79487890684529749 1 I I 0 1 1.5 forward I I I I #
face $-1 $162 $163 $39 $-1 $164 reversed single #
loop $-1 $-1 $165 $65 #
plane-surface $-1 0 0 -17.565143045815269 0 0 1 1 0 0 forward_v I I I I #
coedge $-1 $166 $167 $168 $169 forward $66 $-1 #
face $-1 $170 $171 $40 $-1 $172 reversed single #
loop $-1 $-1 $173 $68 #
plane-surface $-1 0 0 -17.565143045815269 0 0 1 1 0 0 forward_v I I I I #
coedge $-1 $174 $175 $176 $177 forward $69 $-1 #
face $-1 $178 $179 $41 $-1 $180 reversed single #
loop $-1 $-1 $181 $71 #
plane-surface $-1 -12.128707027928456 14.294198241516035 124.66544577594188 0.80901700255871778 0 0.5877852410284794 0.5877852410284794 0 -0.80901700255871778 forward_v I I I I #
coedge $-1 $182 $183 $184 $185 reversed $72 $-1 #
face $-1 $-1 $186 $42 $-1 $187 forward single #
loop $-1 $188 $189 $74 #
cone-surface $-1 65.361549952948081 10.173027393584825 13.758388183491967 -0.80901700255871778 0 -0.5877852410284794 0.2938926205142397 0 -0.40450850127935889 1 I I -0.70710678118654746 0.70710678118654746 0.5 forward I I I I #
loop $-1 $-1 $190 $55 #
coedge $-1 $120 $120 $191 $192 reversed $75 $-1 #
face $-1 $-1 $193 $43 $-1 $194 forward single #
loop $-1 $195 $196 $77 #
cone-surface $-1 65.361549952948081 18.415369089447239 13.758388183491967 -0.80901700255871778 0 -0.5877852410284794 0.2938926205142397 0 -0.40450850127935889 1 I I -0.70710678118654746 0.70710678118654746 0.5 forward I I I I #
loop $-1 $-1 $197 $56 #
coedge $-1 $125 $125 $198 $199 reversed $78 $-1 #
face $-1 $200 $201 $44 $-1 $202 reversed single #
loop $-1 $-1 $203 $80 #
plane-surface $-1 -69.081698049867242 -18.262064514844344 8.6296483380064615 -0.52991927123019833 0 0.84804809178421925 0.84804809178421925 0 0.52991927123019833 forward_v I I I I #
coedge $-1 $204 $205 $206 $207 reversed $81 $-1 #
face $-1 $-1 $208 $45 $-1 $209 forward single #
loop $-1 $210 $211 $83 #
cone-surface $-1 -60.218343690020532 -18.262064514844344 10.355279924933086 0.52991927123019833 0 -0.84804809178421925 0.63603606883816444 0 0.39743945342264875 1 I I -0.70710678118654757 0.70710678118654757 0.75 forward I I I I #
loop $-1 $-1 $212 $58 #
coedge $-1 $134 $134 $213 $214 reversed $84 $-1 #
face $-1 $215 $216 $46 $-1 $217 reversed single #
loop $-1 $-1 $218 $86 #
plane-surface $-1 -69.081698049867242 0.32181116035732771 8.6296483380064615 -0.52991927123019833 0 0.84804809178421925 0.84804809178421925 0 0.52991927123019833 forward_v I I I I #
coedge $-1 $219 $220 $221 $222 reversed $87 $-1 #
face $-1 $-1 $223 $47 $-1 $224 forward single #
loop $-1 $225 $226 $89 #
cone-surface $-1 -60.218343690020532 0.32181116035732771 10.355279924933086 0.52991927123019833 0 -0.84804809178421925 0.63603606883816444 0 0.39743945342264875 1 I I -0.70710678118654757 0.70710678118654757 0.75 forward I I I I #
loop $-1 $-1 $227 $60 #
coedge $-1 $143 $143 $228 $229 reversed $90 $-1 #
face $-1 $230 $231 $48 $-1 $232 reversed single #
loop $-1 $-1 $233 $92 #
plane-surface $-1 -69.081698049867242 18.905686835558996 8.6296483380064615 -0.52991927123019833 0 0.84804809178421925 0.84804809178421925 0 0.52991927123019833 forward_v I I I I #
coedge $-1 $234 $235 $236 $237 reversed $93 $-1 #
face $-1 $-1 $238 $49 $-1 $239 forward single #
loop $-1 $240 $241 $95 #
cone-surface $-1 -60.218343690020532 18.905686835558996 10.355279924933086 0.52991927123019833 0 -0.84804809178421925 0.63603606883816444 0 0.39743945342264875 1 I I -0.70710678118654757 0.70710678118654757 0.75 forward I I I I #
loop $-1 $-1 $242 $62 #
coedge $-1 $152 $152 $243 $244 reversed $96 $-1 #
face $-1 $245 $246 $50 $-1 $247 reversed single #
loop $-1 $-1 $248 $98 #
plane-surface $-1 -69.081698049867242 37.489562510760663 8.6296483380064615 -0.52991927123019833 0 0.84804809178421925 0.84804809178421925 0 0.52991927123019833 forward_v I I I I #
coedge $-1 $249 $250 $251 $252 reversed $99 $-1 #
face $-1 $-1 $253 $51 $-1 $254 forward single #
loop $-1 $255 $256 $101 #
cone-surface $-1 -60.218343690020532 37.489562510760663 10.355279924933086 0.52991927123019833 0 -0.84804809178421925 0.63603606883816444 0 0.39743945342264875 1 I I -0.70710678118654757 0.70710678118654757 0.75 forward I I I I #
loop $-1 $-1 $257 $64 #
coedge $-1 $161 $161 $258 $259 reversed $102 $-1 #
face $-1 $260 $261 $39 $-1 $262 reversed single #
loop $-1 $-1 $263 $104 #
plane-surface $-1 0 -46.718430009028538 0 0 1 0 0 0 1 forward_v I I I I #
coedge $-1 $264 $265 $266 $267 forward $105 $-1 #
coedge $-1 $268 $107 $269 $270 forward $66 $-1 #
coedge $-1 $107 $268 $271 $272 forward $66 $-1 #
coedge $-1 $273 $274 $107 $169 reversed $275 $-1 #
edge $-1 $276 -46.718430009028538 $277 46.718430009028538 $168 $278 forward 7 unknown #
face $-1 $279 $280 $40 $-1 $281 reversed single #
loop $-1 $-1 $282 $108 #
plane-surface $-1 -63.496953755070891 -65.819787326278927 0 0 1 0 0 0 1 forward_v I I I I #
coedge $-1 $283 $284 $175 $285 forward $109 $-1 #
coedge $-1 $286 $111 $287 $288 reversed $69 $-1 #
coedge $-1 $111 $286 $173 $285 reversed $69 $-1 #
coedge $-1 $289 $290 $111 $177 reversed $280 $-1 #
edge $-1 $291 -17.565143045815269 $292 17.565143045815269 $176 $293 forward 7 unknown #
face $-1 $294 $295 $41 $-1 $296 forward single #
loop $-1 $-1 $297 $112 #
plane-surface $-1 99.647829548011572 4.6781329296765506 205.87585085373757 0 1 0 0.80901700255871778 0 0.5877852410284794 forward_v I I I I #
coedge $-1 $298 $299 $300 $301 reversed $113 $-1 #
coedge $-1 $183 $115 $302 $303 reversed $72 $-1 #
coedge $-1 $115 $182 $298 $304 reversed $72 $-1 #
coedge $-1 $300 $305 $115 $185 forward $295 $-1 #
edge $-1 $306 -19.257783275861456 $307 -15.86030061545533 $184 $308 forward 7 unknown #
loop $-1 $-1 $191 $116 #
plane-surface $-1 -12.128707027928456 14.294198241516035 124.66544577594188 0.80901700255871778 0 0.5877852410284794 0.5877852410284794 0 -0.80901700255871778 forward_v I I I I #
loop $-1 $-1 $309 $74 #
coedge $-1 $189 $189 $190 $310 reversed $117 $-1 #
coedge $-1 $190 $190 $189 $310 forward $119 $-1 #
coedge $-1 $191 $191 $120 $192 forward $186 $-1 #
edge $-1 $311 0 $311 6.2831853071796004 $191 $312 forward 7 unknown #
loop $-1 $-1 $198 $121 #
plane-surface $-1 -12.128707027928456 14.294198241516035 124.66544577594188 0.80901700255871778 0 0.5877852410284794 0.5877852410284794 0 -0.80901700255871778 forward_v I I I I #
loop $-1 $-1 $313 $77 #
coedge $-1 $196 $196 $197 $314 reversed $122 $-1 #
coedge $-1 $197 $197 $196 $314 forward $124 $-1 #
coedge $-1 $198 $198 $125 $199 forward $193 $-1 #
edge $-1 $315 0 $315 6.2831853071796004 $198 $316 forward 7 unknown #
face $-1 $317 $318 $44 $-1 $319 reversed single #
loop $-1 $-1 $320 $126 #
plane-surface $-1 -142.29714422172776 -12.747105016816533 125.79885275481354 0 -1 0 0.52991927123019833 0 -0.84804809178421925 forward_v I I I I #
coedge $-1 $321 $322 $323 $324 reversed $127 $-1 #
coedge $-1 $205 $129 $325 $326 reversed $81 $-1 #
coedge $-1 $129 $204 $321 $327 reversed $81 $-1 #
coedge $-1 $323 $328 $129 $207 forward $329 $-1 #
edge $-1 $330 2.0668740609966392 $331 16.366654513429864 $206 $332 forward 7 unknown #
loop $-1 $-1 $213 $130 #
plane-surface $-1 -69.081698049867242 -18.262064514844344 8.6296483380064615 -0.52991927123019833 0 0.84804809178421925 0.84804809178421925 0 0.52991927123019833 forward_v I I I I #
loop $-1 $-1 $333 $83 #
coedge $-1 $211 $211 $212 $334 reversed $131 $-1 #
coedge $-1 $212 $212 $211 $334 forward $133 $-1 #
coedge $-1 $213 $213 $134 $214 forward $208 $-1 #
edge $-1 $335 0 $335 6.2831853071796004 $213 $336 forward 7 unknown #
face $-1 $337 $338 $46 $-1 $339 forward single #
loop $-1 $-1 $340 $135 #
plane-surface $-1 -142.29714422172776 5.836770658385138 125.79885275481354 0 -1 0 0.52991927123019833 0 -0.84804809178421925 forward_v I I I I #
coedge $-1 $341 $342 $343 $344 reversed $136 $-1 #
coedge $-1 $220 $138 $345 $346 reversed $87 $-1 #
coedge $-1 $138 $219 $341 $347 reversed $87 $-1 #
coedge $-1 $343 $348 $138 $222 forward $338 $-1 #
edge $-1 $349 2.0668740609966392 $350 16.366654513429864 $221 $351 forward 7 unknown #
loop $-1 $-1 $228 $139 #
plane-surface $-1 -69.081698049867242 0.32181116035732771 8.6296483380064615 -0.52991927123019833 0 0.84804809178421925 0.84804809178421925 0 0.52991927123019833 forward_v I I I I #
loop $-1 $-1 $352 $89 #
coedge $-1 $226 $226 $227 $353 reversed $140 $-1 #
coedge $-1 $227 $227 $226 $353 forward $142 $-1 #
coedge $-1 $228 $228 $143 $229 forward $223 $-1 #
edge $-1 $354 0 $354 6.2831853071796004 $228 $355 forward 7 unknown #
face $-1 $356 $357 $48 $-1 $358 forward single #
loop $-1 $-1 $359 $144 #
plane-surface $-1 -142.29714422172776 24.420646333586806 125.79885275481354 0 -1 0 0.52991927123019833 0 -0.84804809178421925 forward_v I I I I #
coedge $-1 $360 $361 $362 $363 reversed $145 $-1 #
coedge $-1 $235 $147 $364 $365 reversed $93 $-1 #
coedge $-1 $147 $234 $360 $366 reversed $93 $-1 #
coedge $-1 $362 $367 $147 $237 forward $357 $-1 #
edge $-1 $368 2.0668740609966392 $369 16.366654513429864 $236 $370 forward 7 unknown #
loop $-1 $-1 $243 $148 #
plane-surface $-1 -69.081698049867242 18.905686835558996 8.6296483380064615 -0.52991927123019833 0 0.84804809178421925 0.84804809178421925 0 0.52991927123019833 forward_v I I I I #
loop $-1 $-1 $371 $95 #
coedge $-1 $241 $241 $242 $372 reversed $149 $-1 #
coedge $-1 $242 $242 $241 $372 forward $151 $-1 #
coedge $-1 $243 $243 $152 $244 forward $238 $-1 #
edge $-1 $373 0 $373 6.2831853071796004 $243 $374 forward 7 unknown #
face $-1 $375 $376 $50 $-1 $377 forward single #
loop $-1 $-1 $378 $153 #
plane-surface $-1 -142.29714422172776 43.00452200878847 125.79885275481354 0 -1 0 0.52991927123019833 0 -0.84804809178421925 forward_v I I I I #
coedge $-1 $379 $380 $381 $382 reversed $154 $-1 #
coedge $-1 $250 $156 $383 $384 reversed $99 $-1 #
coedge $-1 $156 $249 $379 $385 reversed $99 $-1 #
coedge $-1 $381 $386 $156 $252 forward $376 $-1 #
edge $-1 $387 2.0668740609966392 $388 16.366654513429864 $251 $389 forward 7 unknown #
loop $-1 $-1 $258 $157 #
plane-surface $-1 -69.081698049867242 37.489562510760663 8.6296483380064615 -0.52991927123019833 0 0.84804809178421925 0.84804809178421925 0 0.52991927123019833 forward_v I I I I #
loop $-1 $-1 $390 $101 #
coedge $-1 $256 $256 $257 $391 reversed $158 $-1 #
coedge $-1 $257 $257 $256 $391 forward $160 $-1 #
coedge $-1 $258 $258 $161 $259 forward $253 $-1 #
edge $-1 $392 0 $392 6.2831853071796004 $258 $393 forward 7 unknown #
face $-1 $394 $395 $39 $-1 $396 reversed single #
loop $-1 $-1 $397 $162 #
plane-surface $-1 -69.081698049867242 0 0 1 0 0 0 0 -1 forward_v I I I I #
coedge $-1 $398 $271 $399 $400 forward $163 $-1 #
coedge $-1 $401 $165 $398 $402 forward $105 $-1 #
coedge $-1 $165 $401 $403 $404 forward $105 $-1 #
coedge $-1 $274 $273 $165 $267 reversed $275 $-1 #
edge $-1 $405 -46.718430009028538 $406 46.718430009028538 $266 $407 forward 7 unknown #
coedge $-1 $167 $166 $408 $409 forward $66 $-1 #
coedge $-1 $410 $411 $166 $270 reversed $395 $-1 #
edge $-1 $277 -69.081698049867242 $412 69.081698049867242 $269 $413 forward 7 unknown #
coedge $-1 $263 $414 $167 $272 reversed $163 $-1 #
edge $-1 $415 -69.081698049867242 $276 69.081698049867242 $271 $416 forward 7 unknown #
coedge $-1 $266 $168 $414 $417 forward $275 $-1 #
coedge $-1 $168 $266 $410 $418 reversed $275 $-1 #
loop $-1 $-1 $273 $394 #
vertex $-1 $169 $419 #
vertex $-1 $169 $420 #
straight-curve $-1 69.081698049867242 0 17.565143045815269 0 1 0 I I #
face $-1 $421 $422 $40 $-1 $423 reversed single #
loop $-1 $-1 $176 $170 #
plane-surface $-1 -66.477940844626673 -56.269108667653732 0 1 0 0 0 0 -1 forward_v I I I I #
coedge $-1 $424 $425 $426 $427 forward $171 $-1 #
coedge $-1 $428 $173 $429 $430 forward $109 $-1 #
coedge $-1 $173 $428 $289 $431 forward $109 $-1 #
edge $-1 $291 -66.477940844626673 $432 -60.515966665515116 $173 $433 forward 7 unknown #
coedge $-1 $175 $174 $434 $435 forward $69 $-1 #
coedge $-1 $436 $437 $174 $288 forward $438 $-1 #
edge $-1 $439 60.515966665515116 $292 66.477940844626673 $287 $440 forward 7 unknown #
coedge $-1 $426 $176 $284 $431 reversed $280 $-1 #
coedge $-1 $176 $426 $436 $441 reversed $280 $-1 #
vertex $-1 $285 $442 #
vertex $-1 $441 $443 #
straight-curve $-1 -66.477940844626673 -46.718430009028538 0 0 0 1 I I #
face $-1 $-1 $444 $41 $-1 $445 reversed single #
loop $-1 $-1 $184 $178 #
plane-surface $-1 0 0 17.565143045815269 0 0 1 1 0 0 forward_v I I I I #
coedge $-1 $446 $447 $448 $449 reversed $179 $-1 #
coedge $-1 $450 $181 $183 $304 forward $113 $-1 #
coedge $-1 $181 $450 $446 $451 forward $113 $-1 #
coedge $-1 $448 $184 $181 $301 forward $295 $-1 #
edge $-1 $307 -16.763164432597502 $452 2.4689661910814671 $300 $453 forward 7 unknown #
coedge $-1 $454 $455 $182 $303 forward $444 $-1 #
edge $-1 $456 -90.049016226866939 $306 -85.372782381053526 $302 $457 forward 7 unknown #
edge $-1 $307 132.38325324609397 $456 138.16339609973448 $183 $458 forward 7 unknown #
coedge $-1 $184 $448 $454 $459 forward $295 $-1 #
vertex $-1 $185 $460 #
vertex $-1 $185 $461 #
straight-curve $-1 49.823914774005786 23.91026355335552 17.565143045815262 -1 0 0 I I #
coedge $-1 $309 $309 $-1 $462 reversed $188 $-1 #
edge $-1 $463 0 $463 6.2831853071796004 $189 $464 forward 7 unknown #
vertex $-1 $192 $465 #
ellipse-curve $-1 67.382956719664193 10.173027393584825 15.227026122908565 0.80901700255871778 0 0.5877852410284794 0.5877852410284794 0 -0.80901700255871778 1 I I #
coedge $-1 $313 $313 $-1 $466 reversed $195 $-1 #
edge $-1 $467 0 $467 6.2831853071796004 $196 $468 forward 7 unknown #
vertex $-1 $199 $469 #
ellipse-curve $-1 67.382956719664193 18.415369089447239 15.227026122908565 0.80901700255871778 0 0.5877852410284794 0.5877852410284794 0 -0.80901700255871778 1 I I #
face $-1 $-1 $329 $44 $-1 $470 forward single #
loop $-1 $-1 $471 $200 #
plane-surface $-1 -69.081698049867242 0 0 1 0 0 0 0 -1 forward_v I I I I #
coedge $-1 $472 $473 $474 $475 reversed $201 $-1 #
coedge $-1 $476 $203 $205 $327 forward $127 $-1 #
coedge $-1 $203 $476 $472 $477 forward $127 $-1 #
coedge $-1 $474 $206 $203 $324 forward $329 $-1 #
edge $-1 $331 -14.645991755449982 $478 -3.6160727593943616 $323 $479 forward 7 unknown #
coedge $-1 $480 $481 $204 $326 forward $318 $-1 #
edge $-1 $482 -54.269778039400308 $330 -45.3342833315915 $325 $483 forward 7 unknown #
edge $-1 $331 -16.861992369262612 $482 0 $205 $484 forward 7 unknown #
coedge $-1 $206 $474 $480 $485 forward $329 $-1 #
loop $-1 $-1 $474 $317 #
vertex $-1 $326 $486 #
vertex $-1 $207 $487 #
straight-curve $-1 -71.148572110863881 -23.777024012872154 17.565143045815269 1 0 0 I I #
coedge $-1 $333 $333 $-1 $488 reversed $210 $-1 #
edge $-1 $489 0 $489 6.2831853071796004 $211 $490 forward 7 unknown #
vertex $-1 $214 $491 #
ellipse-curve $-1 -61.93180782365063 -18.262064514844344 13.097395691910867 -0.52991927123019833 0 0.84804809178421925 1.2720721376763289 0 0.79487890684529749 1 I I #
face $-1 $-1 $492 $46 $-1 $493 reversed single #
loop $-1 $-1 $221 $215 #
plane-surface $-1 0 0 17.565143045815269 0 0 1 1 0 0 forward_v I I I I #
coedge $-1 $494 $495 $496 $497 reversed $216 $-1 #
coedge $-1 $498 $218 $220 $347 forward $136 $-1 #
coedge $-1 $218 $498 $494 $499 forward $136 $-1 #
coedge $-1 $496 $221 $218 $344 forward $338 $-1 #
edge $-1 $350 -5.3540539178491464 $500 5.6758650782064741 $343 $501 forward 7 unknown #
coedge $-1 $502 $503 $219 $346 forward $492 $-1 #
edge $-1 $504 -54.269778039400308 $349 -45.3342833315915 $345 $505 forward 7 unknown #
edge $-1 $350 -16.861992369262612 $504 0 $220 $506 forward 7 unknown #
coedge $-1 $221 $496 $502 $507 forward $338 $-1 #
vertex $-1 $346 $508 #
vertex $-1 $222 $509 #
straight-curve $-1 -71.148572110863881 -5.1931483376704826 17.565143045815269 1 0 0 I I #
coedge $-1 $352 $352 $-1 $510 reversed $225 $-1 #
edge $-1 $511 0 $511 6.2831853071796004 $226 $512 forward 7 unknown #
vertex $-1 $229 $513 #
ellipse-curve $-1 -61.93180782365063 0.32181116035732771 13.097395691910867 -0.52991927123019833 0 0.84804809178421925 1.2720721376763289 0 0.79487890684529749 1 I I #
face $-1 $-1 $514 $48 $-1 $515 reversed single #
loop $-1 $-1 $236 $230 #
plane-surface $-1 0 0 17.565143045815269 0 0 1 1 0 0 forward_v I I I I #
coedge $-1 $516 $517 $518 $519 reversed $231 $-1 #
coedge $-1 $520 $233 $235 $366 forward $145 $-1 #
coedge $-1 $233 $520 $516 $521 forward $145 $-1 #
coedge $-1 $518 $236 $233 $363 forward $357 $-1 #
edge $-1 $369 3.9378839197516875 $522 14.967802915807308 $362 $523 forward 7 unknown #
coedge $-1 $524 $525 $234 $365 forward $514 $-1 #
edge $-1 $526 -54.269778039400308 $368 -45.3342833315915 $364 $527 forward 7 unknown #
edge $-1 $369 -16.861992369262612 $526 0 $235 $528 forward 7 unknown #
coedge $-1 $236 $518 $524 $529 forward $357 $-1 #
vertex $-1 $237 $530 #
vertex $-1 $237 $531 #
straight-curve $-1 -71.148572110863881 13.390727337531185 17.565143045815269 1 0 0 I I #
coedge $-1 $371 $371 $-1 $532 reversed $240 $-1 #
edge $-1 $533 0 $533 6.2831853071796004 $241 $534 forward 7 unknown #
vertex $-1 $244 $535 #
ellipse-curve $-1 -61.93180782365063 18.905686835558996 13.097395691910867 -0.52991927123019833 0 0.84804809178421925 1.2720721376763289 0 0.79487890684529749 1 I I #
face $-1 $-1 $536 $50 $-1 $537 reversed single #
loop $-1 $-1 $251 $245 #
plane-surface $-1 0 0 17.565143045815269 0 0 1 1 0 0 forward_v I I I I #
coedge $-1 $538 $539 $540 $541 reversed $246 $-1 #
coedge $-1 $542 $248 $250 $385 forward $154 $-1 #
coedge $-1 $248 $542 $538 $543 forward $154 $-1 #
coedge $-1 $540 $251 $248 $382 forward $376 $-1 #
edge $-1 $388 13.229821757352521 $544 24.259740753408138 $381 $545 forward 7 unknown #
coedge $-1 $546 $547 $249 $384 forward $536 $-1 #
edge $-1 $548 -54.269778039400308 $387 -45.3342833315915 $383 $549 forward 7 unknown #
edge $-1 $388 -16.861992369262612 $548 0 $250 $550 forward 7 unknown #
coedge $-1 $251 $540 $546 $551 forward $376 $-1 #
vertex $-1 $252 $552 #
vertex $-1 $252 $553 #
straight-curve $-1 -71.148572110863881 31.974603012732853 17.565143045815269 1 0 0 I I #
coedge $-1 $390 $390 $-1 $554 reversed $255 $-1 #
edge $-1 $555 0 $555 6.2831853071796004 $256 $556 forward 7 unknown #
vertex $-1 $259 $557 #
ellipse-curve $-1 -61.93180782365063 37.489562510760663 13.097395691910867 -0.52991927123019833 0 0.84804809178421925 1.2720721376763289 0 0.79487890684529749 1 I I #
face $-1 $-1 $275 $39 $-1 $558 reversed single #
loop $-1 $-1 $410 $260 #
plane-surface $-1 0 46.718430009028538 0 0 -1 0 0 0 -1 forward_v I I I I #
coedge $-1 $559 $408 $411 $560 forward $261 $-1 #
coedge $-1 $414 $263 $264 $402 reversed $163 $-1 #
coedge $-1 $408 $559 $263 $400 reversed $261 $-1 #
edge $-1 $415 -17.565143045815269 $561 17.565143045815269 $399 $562 forward 7 unknown #
coedge $-1 $265 $264 $559 $563 forward $105 $-1 #
edge $-1 $406 -69.081698049867242 $561 69.081698049867242 $398 $564 forward 7 unknown #
coedge $-1 $411 $410 $265 $404 reversed $395 $-1 #
edge $-1 $565 -69.081698049867242 $405 69.081698049867242 $403 $566 forward 7 unknown #
vertex $-1 $267 $567 #
vertex $-1 $417 $568 #
straight-curve $-1 69.081698049867242 0 -17.565143045815269 0 -1 0 I I #
coedge $-1 $397 $399 $268 $409 reversed $261 $-1 #
edge $-1 $412 -46.718430009028538 $415 46.718430009028538 $408 $569 forward 7 unknown #
coedge $-1 $403 $269 $274 $418 forward $395 $-1 #
coedge $-1 $269 $403 $397 $560 reversed $395 $-1 #
vertex $-1 $270 $570 #
straight-curve $-1 0 46.718430009028538 17.565143045815269 -1 0 0 I I #
coedge $-1 $271 $398 $273 $417 reversed $163 $-1 #
vertex $-1 $409 $571 #
straight-curve $-1 0 -46.718430009028538 17.565143045815269 1 0 0 I I #
edge $-1 $276 -17.565143045815269 $406 17.565143045815269 $273 $572 forward 7 unknown #
edge $-1 $277 -17.565143045815269 $405 17.565143045815269 $274 $573 forward 7 unknown #
point $-1 69.081698049867242 -46.718430009028538 17.565143045815269 #
point $-1 69.081698049867242 46.718430009028538 17.565143045815269 #
face $-1 $-1 $438 $40 $-1 $574 forward single #
loop $-1 $-1 $575 $279 #
plane-surface $-1 -60.515966665515116 -56.269108667653732 0 -1 0 0 0 0 1 forward_v I I I I #
coedge $-1 $576 $282 $428 $577 reversed $171 $-1 #
coedge $-1 $282 $576 $578 $579 reversed $171 $-1 #
coedge $-1 $290 $289 $282 $427 reversed $280 $-1 #
edge $-1 $580 -17.565143045815269 $581 17.565143045815269 $426 $582 forward 7 unknown #
coedge $-1 $284 $283 $424 $577 forward $109 $-1 #
coedge $-1 $434 $575 $283 $430 reversed $422 $-1 #
edge $-1 $432 -9.5506786586251948 $583 9.5506786586251948 $429 $584 forward 7 unknown #
edge $-1 $581 -9.5506786586251948 $291 9.5506786586251948 $289 $585 forward 7 unknown #
vertex $-1 $430 $586 #
straight-curve $-1 0 -46.718430009028538 -17.565143045815269 1 0 0 I I #
coedge $-1 $587 $429 $286 $435 reversed $422 $-1 #
edge $-1 $439 -17.565143045815269 $432 17.565143045815269 $434 $588 forward 7 unknown #
coedge $-1 $578 $287 $290 $441 forward $438 $-1 #
coedge $-1 $287 $578 $587 $589 forward $438 $-1 #
loop $-1 $-1 $287 $421 #
vertex $-1 $288 $590 #
straight-curve $-1 0 -46.718430009028538 17.565143045815269 -1 0 0 I I #
edge $-1 $292 -9.5506786586251948 $580 9.5506786586251948 $290 $591 forward 7 unknown #
point $-1 -66.477940844626673 -46.718430009028538 -17.565143045815269 #
point $-1 -66.477940844626673 -46.718430009028538 17.565143045815269 #
loop $-1 $-1 $302 $294 #
plane-surface $-1 69.081698049867242 0 0 -1 0 0 0 0 1 forward_v I I I I #
coedge $-1 $447 $297 $299 $451 reversed $179 $-1 #
coedge $-1 $297 $446 $592 $593 reversed $179 $-1 #
coedge $-1 $305 $300 $297 $449 forward $295 $-1 #
edge $-1 $452 15.86030061545533 $594 19.257783275861456 $448 $595 forward 7 unknown #
coedge $-1 $299 $298 $455 $596 reversed $113 $-1 #
edge $-1 $597 -138.16339609973448 $452 -132.38325324609397 $446 $598 forward 7 unknown #
vertex $-1 $301 $599 #
straight-curve $-1 65.684215389461116 7.1470991207580177 17.565143045815276 0 -1 0 I I #
coedge $-1 $592 $302 $305 $459 reversed $444 $-1 #
coedge $-1 $302 $592 $450 $596 forward $444 $-1 #
vertex $-1 $303 $600 #
straight-curve $-1 69.081698049867242 23.91026355335552 102.93792542686879 0 0 1 I I #
straight-curve $-1 -12.128707027928456 23.91026355335552 124.66544577594188 0.5877852410284794 0 -0.80901700255871778 I I #
edge $-1 $594 4.6781329296765506 $306 23.91026355335552 $454 $601 forward 7 unknown #
point $-1 69.081698049867242 23.91026355335552 17.565143045815269 #
point $-1 65.684215389461116 23.91026355335552 17.56514304581529 #
edge $-1 $602 1 $602 0 $309 $-1 forward 7 unknown #
vertex $-1 $310 $603 #
ellipse-curve $-1 65.766058454227434 10.173027393584825 14.052280804006207 0.80901700255871778 0 0.5877852410284794 0.5877852410284794 0 -0.80901700255871778 1 I I #
point $-1 67.970741960692649 10.173027393584825 14.418009120349831 #
edge $-1 $604 1 $604 0 $313 $-1 forward 7 unknown #
vertex $-1 $314 $605 #
ellipse-curve $-1 65.766058454227434 18.415369089447239 14.052280804006207 0.80901700255871778 0 0.5877852410284794 0.5877852410284794 0 -0.80901700255871778 1 I I #
point $-1 67.970741960692649 18.415369089447239 14.418009120349831 #
plane-surface $-1 0 0 17.565143045815269 0 0 1 1 0 0 forward_v I I I I #
coedge $-1 $481 $480 $473 $606 forward $318 $-1 #
coedge $-1 $473 $320 $322 $477 reversed $201 $-1 #
coedge $-1 $320 $472 $471 $606 reversed $201 $-1 #
coedge $-1 $328 $323 $320 $475 forward $329 $-1 #
edge $-1 $478 -16.366654513429864 $607 -2.0668740609966392 $474 $608 forward 7 unknown #
coedge $-1 $322 $321 $481 $609 reversed $127 $-1 #
edge $-1 $610 0 $478 16.861992369262612 $472 $611 forward 7 unknown #
vertex $-1 $324 $612 #
straight-curve $-1 -54.781917597434017 -9.1310322574221718 17.565143045815269 0 1 0 I I #
coedge $-1 $471 $325 $328 $485 reversed $318 $-1 #
coedge $-1 $325 $471 $476 $609 forward $318 $-1 #
vertex $-1 $326 $613 #
straight-curve $-1 -69.081698049867242 -23.777024012872154 62.899426377406769 0 0 1 I I #
straight-curve $-1 -69.081698049867242 -23.777024012872154 8.6296483380064615 -0.84804809178421925 0 -0.52991927123019833 I I #
edge $-1 $607 12.747105016816533 $330 23.777024012872154 $480 $614 forward 7 unknown #
point $-1 -69.081698049867242 -23.777024012872154 17.565143045815269 #
point $-1 -54.781917597434017 -23.777024012872154 17.565143045815269 #
edge $-1 $615 1 $615 0 $333 $-1 forward 7 unknown #
vertex $-1 $334 $616 #
ellipse-curve $-1 -60.615783143443181 -18.262064514844344 10.99131599377125 -0.52991927123019833 0 0.84804809178421925 1.2720721376763289 0 0.79487890684529749 1 I I #
point $-1 -60.659735685974297 -18.262064514844344 13.892274598756167 #
loop $-1 $-1 $345 $337 #
plane-surface $-1 -69.081698049867242 0 0 1 0 0 0 0 -1 forward_v I I I I #
coedge $-1 $495 $340 $342 $499 reversed $216 $-1 #
coedge $-1 $340 $494 $617 $618 reversed $216 $-1 #
coedge $-1 $348 $343 $340 $497 forward $338 $-1 #
edge $-1 $500 -16.366654513429864 $619 -2.0668740609966392 $496 $620 forward 7 unknown #
coedge $-1 $342 $341 $503 $621 reversed $136 $-1 #
edge $-1 $622 0 $500 16.861992369262612 $494 $623 forward 7 unknown #
vertex $-1 $344 $624 #
straight-curve $-1 -54.781917597434017 0.16090558017866385 17.565143045815269 0 1 0 I I #
coedge $-1 $617 $345 $348 $507 reversed $492 $-1 #
coedge $-1 $345 $617 $498 $621 forward $492 $-1 #
vertex $-1 $346 $625 #
straight-curve $-1 -69.081698049867242 -5.1931483376704826 62.899426377406769 0 0 1 I I #
straight-curve $-1 -69.081698049867242 -5.1931483376704826 8.6296483380064615 -0.84804809178421925 0 -0.52991927123019833 I I #
edge $-1 $619 -5.836770658385138 $349 5.1931483376704826 $502 $626 forward 7 unknown #
point $-1 -69.081698049867242 -5.1931483376704826 17.565143045815269 #
point $-1 -54.781917597434017 -5.1931483376704826 17.565143045815269 #
edge $-1 $627 1 $627 0 $352 $-1 forward 7 unknown #
vertex $-1 $353 $628 #
ellipse-curve $-1 -60.615783143443181 0.32181116035732771 10.99131599377125 -0.52991927123019833 0 0.84804809178421925 1.2720721376763289 0 0.79487890684529749 1 I I #
point $-1 -60.659735685974297 0.32181116035732771 13.892274598756167 #
loop $-1 $-1 $364 $356 #
plane-surface $-1 -69.081698049867242 0 0 1 0 0 0 0 -1 forward_v I I I I #
coedge $-1 $517 $359 $361 $521 reversed $231 $-1 #
coedge $-1 $359 $516 $629 $630 reversed $231 $-1 #
coedge $-1 $367 $362 $359 $519 forward $357 $-1 #
edge $-1 $522 -16.366654513429864 $631 -2.0668740609966392 $518 $632 forward 7 unknown #
coedge $-1 $361 $360 $525 $633 reversed $145 $-1 #
edge $-1 $634 0 $522 16.861992369262612 $516 $635 forward 7 unknown #
vertex $-1 $363 $636 #
straight-curve $-1 -54.781917597434017 9.4528434177794978 17.565143045815269 0 1 0 I I #
coedge $-1 $629 $364 $367 $529 reversed $514 $-1 #
coedge $-1 $364 $629 $520 $633 forward $514 $-1 #
vertex $-1 $365 $637 #
straight-curve $-1 -69.081698049867242 13.390727337531185 62.899426377406769 0 0 1 I I #
straight-curve $-1 -69.081698049867242 13.390727337531185 8.6296483380064615 -0.84804809178421925 0 -0.52991927123019833 I I #
edge $-1 $631 -24.420646333586806 $368 -13.390727337531185 $524 $638 forward 7 unknown #
point $-1 -69.081698049867242 13.390727337531185 17.565143045815269 #
point $-1 -54.781917597434017 13.390727337531185 17.565143045815269 #
edge $-1 $639 1 $639 0 $371 $-1 forward 7 unknown #
vertex $-1 $372 $640 #
ellipse-curve $-1 -60.615783143443181 18.905686835558996 10.99131599377125 -0.52991927123019833 0 0.84804809178421925 1.2720721376763289 0 0.79487890684529749 1 I I #
point $-1 -60.659735685974297 18.905686835558996 13.892274598756167 #
loop $-1 $-1 $383 $375 #
plane-surface $-1 -69.081698049867242 0 0 1 0 0 0 0 -1 forward_v I I I I #
coedge $-1 $539 $378 $380 $543 reversed $246 $-1 #
coedge $-1 $378 $538 $641 $642 reversed $246 $-1 #
coedge $-1 $386 $381 $378 $541 forward $376 $-1 #
edge $-1 $544 -16.366654513429864 $643 -2.0668740609966392 $540 $644 forward 7 unknown #
coedge $-1 $380 $379 $547 $645 reversed $154 $-1 #
edge $-1 $646 0 $544 16.861992369262612 $538 $647 forward 7 unknown #
vertex $-1 $382 $648 #
straight-curve $-1 -54.781917597434017 18.744781255380332 17.565143045815269 0 1 0 I I #
coedge $-1 $641 $383 $386 $551 reversed $536 $-1 #
coedge $-1 $383 $641 $542 $645 forward $536 $-1 #
vertex $-1 $384 $649 #
straight-curve $-1 -69.081698049867242 31.974603012732853 62.899426377406769 0 0 1 I I #
straight-curve $-1 -69.081698049867242 31.974603012732853 8.6296483380064615 -0.84804809178421925 0 -0.52991927123019833 I I #
edge $-1 $643 -43.00452200878847 $387 -31.974603012732853 $546 $650 forward 7 unknown #
point $-1 -69.081698049867242 31.974603012732853 17.565143045815269 #
point $-1 -54.781917597434017 31.974603012732853 17.565143045815269 #
edge $-1 $651 1 $651 0 $390 $-1 forward 7 unknown #
vertex $-1 $391 $652 #
ellipse-curve $-1 -60.615783143443181 37.489562510760663 10.99131599377125 -0.52991927123019833 0 0.84804809178421925 1.2720721376763289 0 0.79487890684529749 1 I I #
point $-1 -60.659735685974297 37.489562510760663 13.892274598756167 #
plane-surface $-1 69.081698049867242 0 0 -1 0 0 0 0 1 forward_v I I I I #
coedge $-1 $399 $397 $401 $563 reversed $261 $-1 #
edge $-1 $412 -17.565143045815269 $565 17.565143045815269 $411 $653 forward 7 unknown #
vertex $-1 $563 $654 #
straight-curve $-1 -69.081698049867242 -46.718430009028538 0 0 0 -1 I I #
edge $-1 $561 -46.718430009028538 $565 46.718430009028538 $559 $655 forward 7 unknown #
straight-curve $-1 0 -46.718430009028538 -17.565143045815269 -1 0 0 I I #
vertex $-1 $404 $656 #
straight-curve $-1 0 46.718430009028538 -17.565143045815269 1 0 0 I I #
point $-1 69.081698049867242 46.718430009028538 -17.565143045815269 #
point $-1 69.081698049867242 -46.718430009028538 -17.565143045815269 #
straight-curve $-1 -69.081698049867242 0 17.565143045815269 0 -1 0 I I #
point $-1 -69.081698049867242 46.718430009028538 17.565143045815269 #
point $-1 -69.081698049867242 -46.718430009028538 17.565143045815269 #
straight-curve $-1 69.081698049867242 -46.718430009028538 0 0 0 -1 I I #
straight-curve $-1 69.081698049867242 46.718430009028538 0 0 0 -1 I I #
plane-surface $-1 0 0 17.565143045815269 0 0 1 1 0 0 forward_v I I I I #
coedge $-1 $429 $587 $576 $657 forward $422 $-1 #
coedge $-1 $425 $424 $575 $657 reversed $171 $-1 #
edge $-1 $583 -2.9809870895557751 $581 2.9809870895557822 $424 $658 forward 7 unknown #
coedge $-1 $437 $436 $425 $579 forward $438 $-1 #
edge $-1 $580 -2.9809870895557822 $659 2.9809870895557751 $425 $660 forward 7 unknown #
vertex $-1 $441 $661 #
vertex $-1 $431 $662 #
straight-curve $-1 -66.477940844626673 -65.819787326278927 0 0 0 -1 I I #
vertex $-1 $657 $663 #
straight-curve $-1 -60.515966665515116 -56.269108667653732 -17.565143045815269 0 -1 0 I I #
straight-curve $-1 -66.477940844626673 -56.269108667653732 -17.565143045815269 0 1 0 I I #
point $-1 -60.515966665515116 -46.718430009028538 -17.565143045815269 #
coedge $-1 $575 $434 $437 $589 reversed $422 $-1 #
straight-curve $-1 -60.515966665515116 -46.718430009028538 0 0 0 -1 I I #
edge $-1 $659 -9.5506786586251948 $439 9.5506786586251948 $587 $664 forward 7 unknown #
point $-1 -60.515966665515116 -46.718430009028538 17.565143045815269 #
straight-curve $-1 -66.477940844626673 -56.269108667653732 17.565143045815269 0 -1 0 I I #
coedge $-1 $455 $454 $447 $593 forward $444 $-1 #
edge $-1 $594 85.372782381053526 $597 90.049016226866939 $592 $665 forward 7 unknown #
vertex $-1 $459 $666 #
straight-curve $-1 49.823914774005786 4.6781329296765506 17.565143045815262 1 0 0 I I #
edge $-1 $597 -2.4689661910814671 $456 16.763164432597502 $455 $667 forward 7 unknown #
vertex $-1 $596 $668 #
straight-curve $-1 -12.128707027928456 4.6781329296765506 124.66544577594188 -0.5877852410284794 0 0.80901700255871778 I I #
point $-1 65.684215389461116 4.6781329296765506 17.56514304581529 #
point $-1 69.081698049867242 23.91026355335552 12.888909200001848 #
straight-curve $-1 69.081698049867242 0 17.565143045815269 0 1 0 I I #
vertex $-1 $462 $669 #
point $-1 66.353843695255918 10.173027393584825 13.243263801447489 #
vertex $-1 $466 $670 #
point $-1 66.353843695255918 18.415369089447239 13.243263801447489 #
edge $-1 $607 45.3342833315915 $610 54.269778039400308 $471 $671 forward 7 unknown #
vertex $-1 $485 $672 #
straight-curve $-1 -71.148572110863881 -12.747105016816533 17.565143045815269 -1 0 0 I I #
edge $-1 $610 3.6160727593943616 $482 14.645991755449982 $481 $673 forward 7 unknown #
vertex $-1 $609 $674 #
straight-curve $-1 -69.081698049867242 -12.747105016816533 8.6296483380064615 0.84804809178421925 0 0.52991927123019833 I I #
point $-1 -54.781917597434017 -12.747105016816533 17.565143045815269 #
point $-1 -69.081698049867242 -23.777024012872154 8.6296483380064615 #
straight-curve $-1 -69.081698049867242 0 17.565143045815269 0 -1 0 I I #
vertex $-1 $488 $675 #
point $-1 -59.343711005766849 -18.262064514844344 11.786194900616549 #
coedge $-1 $503 $502 $495 $618 forward $492 $-1 #
edge $-1 $619 45.3342833315915 $622 54.269778039400308 $617 $676 forward 7 unknown #
vertex $-1 $507 $677 #
straight-curve $-1 -71.148572110863881 5.836770658385138 17.565143045815269 -1 0 0 I I #
edge $-1 $622 -5.6758650782064741 $504 5.3540539178491464 $503 $678 forward 7 unknown #
vertex $-1 $621 $679 #
straight-curve $-1 -69.081698049867242 5.836770658385138 8.6296483380064615 0.84804809178421925 0 0.52991927123019833 I I #
point $-1 -54.781917597434017 5.836770658385138 17.565143045815269 #
point $-1 -69.081698049867242 -5.1931483376704826 8.6296483380064615 #
straight-curve $-1 -69.081698049867242 0 17.565143045815269 0 -1 0 I I #
vertex $-1 $510 $680 #
point $-1 -59.343711005766849 0.32181116035732771 11.786194900616549 #
coedge $-1 $525 $524 $517 $630 forward $514 $-1 #
edge $-1 $631 45.3342833315915 $634 54.269778039400308 $629 $681 forward 7 unknown #
vertex $-1 $529 $682 #
straight-curve $-1 -71.148572110863881 24.420646333586806 17.565143045815269 -1 0 0 I I #
edge $-1 $634 -14.967802915807308 $526 -3.9378839197516875 $525 $683 forward 7 unknown #
vertex $-1 $633 $684 #
straight-curve $-1 -69.081698049867242 24.420646333586806 8.6296483380064615 0.84804809178421925 0 0.52991927123019833 I I #
point $-1 -54.781917597434017 24.420646333586806 17.565143045815269 #
point $-1 -69.081698049867242 13.390727337531185 8.6296483380064615 #
straight-curve $-1 -69.081698049867242 0 17.565143045815269 0 -1 0 I I #
vertex $-1 $532 $685 #
point $-1 -59.343711005766849 18.905686835558996 11.786194900616549 #
coedge $-1 $547 $546 $539 $642 forward $536 $-1 #
edge $-1 $643 45.3342833315915 $646 54.269778039400308 $641 $686 forward 7 unknown #
vertex $-1 $551 $687 #
straight-curve $-1 -71.148572110863881 43.00452200878847 17.565143045815269 -1 0 0 I I #
edge $-1 $646 -24.259740753408138 $548 -13.229821757352521 $547 $688 forward 7 unknown #
vertex $-1 $645 $689 #
straight-curve $-1 -69.081698049867242 43.00452200878847 8.6296483380064615 0.84804809178421925 0 0.52991927123019833 I I #
point $-1 -54.781917597434017 43.00452200878847 17.565143045815269 #
point $-1 -69.081698049867242 31.974603012732853 8.6296483380064615 #
straight-curve $-1 -69.081698049867242 0 17.565143045815269 0 -1 0 I I #
vertex $-1 $554 $690 #
point $-1 -59.343711005766849 37.489562510760663 11.786194900616549 #
straight-curve $-1 -69.081698049867242 46.718430009028538 0 0 0 -1 I I #
point $-1 -69.081698049867242 -46.718430009028538 -17.565143045815269 #
straight-curve $-1 -69.081698049867242 0 -17.565143045815269 0 1 0 I I #
point $-1 -69.081698049867242 46.718430009028538 -17.565143045815269 #
edge $-1 $659 -17.565143045815269 $583 17.565143045815269 $575 $691 forward 7 unknown #
straight-curve $-1 -63.496953755070891 -65.819787326278927 -17.565143045815269 -1 0 0 I I #
vertex $-1 $589 $692 #
straight-curve $-1 -63.496953755070891 -65.819787326278927 17.565143045815269 1 0 0 I I #
point $-1 -66.477940844626673 -65.819787326278927 17.565143045815269 #
point $-1 -66.477940844626673 -65.819787326278927 -17.565143045815269 #
point $-1 -60.515966665515116 -65.819787326278927 -17.565143045815269 #
straight-curve $-1 -60.515966665515116 -56.269108667653732 17.565143045815269 0 1 0 I I #
straight-curve $-1 69.081698049867242 4.6781329296765506 102.93792542686879 0 0 -1 I I #
point $-1 69.081698049867242 4.6781329296765506 17.565143045815269 #
straight-curve $-1 69.081698049867242 7.1470991207580177 12.888909200001848 0 1 0 I I #
point $-1 69.081698049867242 4.6781329296765506 12.888909200001848 #
point $-1 64.957041451668729 10.173027393584825 13.464495562977726 #
point $-1 64.957041451668729 18.415369089447239 13.464495562977726 #
straight-curve $-1 -69.081698049867242 -12.747105016816533 62.899426377406769 0 0 -1 I I #
point $-1 -69.081698049867242 -12.747105016816533 17.565143045815269 #
straight-curve $-1 -69.081698049867242 -9.1310322574221718 8.6296483380064597 0 -1 0 I I #
point $-1 -69.081698049867242 -12.747105016816533 8.6296483380064615 #
point $-1 -59.820904236597883 -18.262064514844344 9.7192438560949217 #
straight-curve $-1 -69.081698049867242 5.836770658385138 62.899426377406769 0 0 -1 I I #
point $-1 -69.081698049867242 5.836770658385138 17.565143045815269 #
straight-curve $-1 -69.081698049867242 0.16090558017866385 8.6296483380064597 0 -1 0 I I #
point $-1 -69.081698049867242 5.836770658385138 8.6296483380064615 #
point $-1 -59.820904236597883 0.32181116035732771 9.7192438560949217 #
straight-curve $-1 -69.081698049867242 24.420646333586806 62.899426377406769 0 0 -1 I I #
point $-1 -69.081698049867242 24.420646333586806 17.565143045815269 #
straight-curve $-1 -69.081698049867242 9.4528434177794978 8.6296483380064597 0 -1 0 I I #
point $-1 -69.081698049867242 24.420646333586806 8.6296483380064615 #
point $-1 -59.820904236597883 18.905686835558996 9.7192438560949217 #
straight-curve $-1 -69.081698049867242 43.00452200878847 62.899426377406769 0 0 -1 I I #
point $-1 -69.081698049867242 43.00452200878847 17.565143045815269 #
straight-curve $-1 -69.081698049867242 18.744781255380332 8.6296483380064597 0 -1 0 I I #
point $-1 -69.081698049867242 43.00452200878847 8.6296483380064615 #
point $-1 -59.820904236597883 37.489562510760663 9.7192438560949217 #
straight-curve $-1 -60.515966665515116 -65.819787326278927 0 0 0 -1 I I #
point $-1 -60.515966665515116 -65.819787326278927 17.565143045815269 #
End-of-ACIS-data 