500 0 2 0           
7 Unknown 11 ACIS 5.0 NT 24 Fri Mar 26 14:34:35 1999 
-1 9.9999999999999995e-007 1e-010 
body $-1 $2 $-1 $3 #
body $-1 $4 $-1 $5 #
lump $-1 $-1 $6 $0 #
transform $-1 1 0 0 0 1 0 0 0 1 57.922910245063633 36.982311866998856 13.480649164422163 1 rotate no_reflect no_shear #
lump $-1 $-1 $7 $1 #
transform $-1 1 0 0 0 1 0 0 0 1 57.922910245063633 36.982311866998856 13.480649164422163 1 rotate no_reflect no_shear #
shell $-1 $-1 $-1 $8 $-1 $2 #
shell $-1 $-1 $-1 $9 $-1 $4 #
face $-1 $10 $11 $6 $-1 $12 reversed single #
face $-1 $13 $14 $7 $-1 $15 forward single #
face $-1 $16 $17 $6 $-1 $18 forward single #
loop $-1 $-1 $19 $8 #
plane-surface $-1 0 -36.982311866998856 0 0 1 0 0 0 1 forward_v I I I I #
face $-1 $20 $21 $7 $-1 $22 forward single #
loop $-1 $-1 $23 $9 #
plane-surface $-1 0 -36.982311866998856 0 0 1 0 0 0 1 forward_v I I I I #
face $-1 $24 $25 $6 $-1 $26 reversed single #
loop $-1 $-1 $27 $10 #
plane-surface $-1 0 0 13.480649164422163 0 0 1 1 0 0 forward_v I I I I #
coedge $-1 $28 $29 $30 $31 reversed $11 $-1 #
face $-1 $32 $33 $7 $-1 $34 reversed single #
loop $-1 $-1 $35 $13 #
plane-surface $-1 0 0 13.480649164422163 0 0 1 1 0 0 forward_v I I I I #
coedge $-1 $36 $37 $38 $39 forward $14 $-1 #
face $-1 $40 $41 $6 $-1 $42 reversed single #
loop $-1 $-1 $43 $16 #
plane-surface $-1 0 0 -13.480649164422163 0 0 1 1 0 0 forward_v I I I I #
coedge $-1 $44 $45 $46 $47 forward $17 $-1 #
coedge $-1 $48 $19 $49 $50 reversed $11 $-1 #
coedge $-1 $19 $48 $51 $52 forward $11 $-1 #
coedge $-1 $53 $43 $19 $31 forward $25 $-1 #
edge $-1 $54 -57.922910245063633 $55 57.922910245063633 $19 $56 forward 7 unknown #
face $-1 $57 $58 $7 $-1 $59 reversed single #
loop $-1 $-1 $60 $20 #
plane-surface $-1 -57.922910245063633 0 0 1 0 0 0 0 -1 forward_v I I I I #
coedge $-1 $61 $62 $37 $63 forward $21 $-1 #
coedge $-1 $64 $23 $65 $66 reversed $14 $-1 #
coedge $-1 $23 $64 $35 $63 reversed $14 $-1 #
coedge $-1 $67 $68 $23 $39 reversed $69 $-1 #
edge $-1 $70 -13.480649164422163 $71 13.480649164422163 $38 $72 forward 7 unknown #
face $-1 $73 $74 $6 $-1 $75 reversed single #
loop $-1 $-1 $76 $24 #
plane-surface $-1 -57.922910245063633 0 0 1 0 0 0 0 -1 forward_v I I I I #
coedge $-1 $30 $77 $78 $79 forward $25 $-1 #
coedge $-1 $80 $27 $81 $82 forward $17 $-1 #
coedge $-1 $27 $80 $48 $83 forward $17 $-1 #
coedge $-1 $49 $84 $27 $47 reversed $85 $-1 #
edge $-1 $86 -36.982311866998856 $87 36.982311866998856 $46 $88 forward 7 unknown #
coedge $-1 $29 $28 $45 $83 reversed $11 $-1 #
coedge $-1 $78 $46 $28 $50 forward $85 $-1 #
edge $-1 $86 -13.480649164422163 $54 13.480649164422163 $49 $89 forward 7 unknown #
coedge $-1 $90 $91 $29 $52 reversed $41 $-1 #
edge $-1 $92 -13.480649164422163 $55 13.480649164422163 $51 $93 forward 7 unknown #
coedge $-1 $77 $30 $91 $94 forward $25 $-1 #
vertex $-1 $50 $95 #
vertex $-1 $94 $96 #
straight-curve $-1 0 -36.982311866998856 -13.480649164422163 -1 0 0 I I #
face $-1 $97 $69 $7 $-1 $98 reversed single #
loop $-1 $-1 $99 $32 #
plane-surface $-1 -55.23965752387226 -47.859266644389493 0 0 1 0 0 0 1 forward_v I I I I #
coedge $-1 $100 $101 $64 $102 forward $33 $-1 #
coedge $-1 $103 $35 $101 $104 forward $21 $-1 #
coedge $-1 $35 $103 $67 $105 forward $21 $-1 #
edge $-1 $70 52.556404802680888 $106 57.922910245063633 $35 $107 forward 7 unknown #
coedge $-1 $37 $36 $60 $102 reversed $14 $-1 #
coedge $-1 $108 $109 $36 $66 forward $110 $-1 #
edge $-1 $111 -57.922910245063633 $71 -52.556404802680888 $65 $112 forward 7 unknown #
coedge $-1 $113 $38 $62 $105 reversed $69 $-1 #
coedge $-1 $38 $113 $108 $114 reversed $69 $-1 #
loop $-1 $-1 $113 $57 #
vertex $-1 $63 $115 #
vertex $-1 $114 $116 #
straight-curve $-1 -52.556404802680888 -36.982311866998856 0 0 0 -1 I I #
face $-1 $-1 $85 $6 $-1 $117 reversed single #
loop $-1 $-1 $118 $40 #
plane-surface $-1 0 36.982311866998856 0 0 -1 0 0 0 -1 forward_v I I I I #
coedge $-1 $91 $90 $119 $120 forward $41 $-1 #
coedge $-1 $43 $53 $121 $122 forward $25 $-1 #
coedge $-1 $84 $49 $43 $79 reversed $85 $-1 #
edge $-1 $123 -36.982311866998856 $54 36.982311866998856 $78 $124 forward 7 unknown #
coedge $-1 $45 $44 $90 $125 forward $17 $-1 #
coedge $-1 $118 $119 $44 $82 reversed $74 $-1 #
edge $-1 $87 -57.922910245063633 $126 57.922910245063633 $81 $127 forward 7 unknown #
edge $-1 $92 -57.922910245063633 $86 57.922910245063633 $48 $128 forward 7 unknown #
coedge $-1 $46 $78 $118 $129 reversed $85 $-1 #
loop $-1 $-1 $49 $73 #
vertex $-1 $47 $130 #
vertex $-1 $47 $131 #
straight-curve $-1 57.922910245063633 0 13.480649164422163 0 1 0 I I #
straight-curve $-1 57.922910245063633 -36.982311866998856 0 0 0 -1 I I #
coedge $-1 $76 $51 $80 $125 reversed $41 $-1 #
coedge $-1 $51 $76 $53 $94 reversed $41 $-1 #
vertex $-1 $125 $132 #
straight-curve $-1 -57.922910245063633 -36.982311866998856 0 0 0 -1 I I #
edge $-1 $55 -36.982311866998856 $133 36.982311866998856 $91 $134 forward 7 unknown #
point $-1 57.922910245063633 -36.982311866998856 -13.480649164422163 #
point $-1 -57.922910245063633 -36.982311866998856 -13.480649164422163 #
face $-1 $-1 $110 $7 $-1 $135 reversed single #
plane-surface $-1 -52.556404802680888 -42.420789255694174 0 -1 0 0 0 0 1 forward_v I I I I #
coedge $-1 $136 $137 $138 $139 forward $58 $-1 #
coedge $-1 $138 $60 $109 $140 reversed $33 $-1 #
coedge $-1 $60 $138 $61 $104 reversed $33 $-1 #
edge $-1 $106 -13.480649164422163 $111 13.480649164422163 $60 $141 forward 7 unknown #
coedge $-1 $62 $61 $137 $142 forward $21 $-1 #
edge $-1 $106 36.982311866998856 $143 47.859266644389493 $101 $144 forward 7 unknown #
edge $-1 $145 -5.4384773886953184 $70 5.4384773886953184 $67 $146 forward 7 unknown #
vertex $-1 $104 $147 #
straight-curve $-1 0 -36.982311866998856 13.480649164422163 -1 0 0 I I #
coedge $-1 $148 $65 $68 $114 forward $110 $-1 #
coedge $-1 $65 $148 $100 $140 forward $110 $-1 #
loop $-1 $-1 $65 $97 #
vertex $-1 $102 $149 #
straight-curve $-1 0 -36.982311866998856 -13.480649164422163 1 0 0 I I #
coedge $-1 $68 $67 $150 $151 forward $69 $-1 #
edge $-1 $71 -5.4384773886953184 $152 5.4384773886953184 $68 $153 forward 7 unknown #
point $-1 -52.556404802680888 -36.982311866998856 13.480649164422163 #
point $-1 -52.556404802680888 -36.982311866998856 -13.480649164422163 #
plane-surface $-1 57.922910245063633 0 0 -1 0 0 0 0 1 forward_v I I I I #
coedge $-1 $121 $81 $84 $129 forward $74 $-1 #
coedge $-1 $81 $121 $76 $120 reversed $74 $-1 #
edge $-1 $126 -13.480649164422163 $133 13.480649164422163 $119 $154 forward 7 unknown #
coedge $-1 $119 $118 $77 $122 reversed $74 $-1 #
edge $-1 $133 -57.922910245063633 $123 57.922910245063633 $121 $155 forward 7 unknown #
vertex $-1 $79 $156 #
straight-curve $-1 57.922910245063633 0 -13.480649164422163 0 -1 0 I I #
edge $-1 $126 -36.982311866998856 $92 36.982311866998856 $90 $157 forward 7 unknown #
vertex $-1 $82 $158 #
straight-curve $-1 0 36.982311866998856 13.480649164422163 -1 0 0 I I #
straight-curve $-1 0 -36.982311866998856 13.480649164422163 1 0 0 I I #
edge $-1 $87 -13.480649164422163 $123 13.480649164422163 $84 $159 forward 7 unknown #
point $-1 57.922910245063633 -36.982311866998856 13.480649164422163 #
point $-1 57.922910245063633 36.982311866998856 13.480649164422163 #
point $-1 -57.922910245063633 -36.982311866998856 13.480649164422163 #
vertex $-1 $122 $160 #
straight-curve $-1 -57.922910245063633 0 -13.480649164422163 0 1 0 I I #
plane-surface $-1 0 0 -13.480649164422163 0 0 1 1 0 0 forward_v I I I I #
coedge $-1 $150 $99 $148 $161 reversed $58 $-1 #
coedge $-1 $99 $150 $103 $142 reversed $58 $-1 #
coedge $-1 $101 $100 $99 $139 reversed $33 $-1 #
edge $-1 $143 -13.480649164422163 $162 13.480649164422163 $138 $163 forward 7 unknown #
edge $-1 $162 -47.859266644389493 $111 -36.982311866998856 $100 $164 forward 7 unknown #
straight-curve $-1 -57.922910245063633 -36.982311866998856 0 0 0 -1 I I #
edge $-1 $143 -2.6832527211913728 $145 2.6832527211913728 $137 $165 forward 7 unknown #
vertex $-1 $104 $166 #
straight-curve $-1 -57.922910245063633 0 13.480649164422163 0 -1 0 I I #
vertex $-1 $105 $167 #
straight-curve $-1 -52.556404802680888 -42.420789255694174 13.480649164422163 0 1 0 I I #
point $-1 -57.922910245063633 -36.982311866998856 13.480649164422163 #
coedge $-1 $109 $108 $136 $161 forward $110 $-1 #
point $-1 -57.922910245063633 -36.982311866998856 -13.480649164422163 #
coedge $-1 $137 $136 $113 $151 reversed $58 $-1 #
edge $-1 $145 -13.480649164422163 $152 13.480649164422163 $113 $168 forward 7 unknown #
vertex $-1 $151 $169 #
straight-curve $-1 -52.556404802680888 -42.420789255694174 -13.480649164422163 0 -1 0 I I #
straight-curve $-1 -57.922910245063633 36.982311866998856 0 0 0 -1 I I #
straight-curve $-1 0 36.982311866998856 -13.480649164422163 1 0 0 I I #
point $-1 57.922910245063633 36.982311866998856 -13.480649164422163 #
straight-curve $-1 -57.922910245063633 0 13.480649164422163 0 -1 0 I I #
point $-1 -57.922910245063633 36.982311866998856 13.480649164422163 #
straight-curve $-1 57.922910245063633 36.982311866998856 0 0 0 -1 I I #
point $-1 -57.922910245063633 36.982311866998856 -13.480649164422163 #
edge $-1 $152 -2.6832527211913728 $162 2.6832527211913728 $136 $170 forward 7 unknown #
vertex $-1 $140 $171 #
straight-curve $-1 -57.922910245063633 -47.859266644389493 0 0 0 -1 I I #
straight-curve $-1 -57.922910245063633 0 -13.480649164422163 0 1 0 I I #
straight-curve $-1 -55.23965752387226 -47.859266644389493 13.480649164422163 1 0 0 I I #
point $-1 -57.922910245063633 -47.859266644389493 13.480649164422163 #
point $-1 -52.556404802680888 -47.859266644389493 13.480649164422163 #
straight-curve $-1 -52.556404802680888 -47.859266644389493 0 0 0 -1 I I #
point $-1 -52.556404802680888 -47.859266644389493 -13.480649164422163 #
straight-curve $-1 -55.23965752387226 -47.859266644389493 -13.480649164422163 -1 0 0 I I #
point $-1 -57.922910245063633 -47.859266644389493 -13.480649164422163 #
End-of-ACIS-data 