500 0 10 0           
7 Unknown 11 ACIS 5.0 NT 24 Thu Mar 25 20:20:12 1999 
-1 9.9999999999999995e-007 1e-010 
body $-1 $10 $-1 $11 #
body $-1 $12 $-1 $13 #
body $-1 $14 $-1 $15 #
body $-1 $16 $-1 $17 #
body $-1 $18 $-1 $19 #
body $-1 $20 $-1 $21 #
body $-1 $22 $-1 $23 #
body $-1 $24 $-1 $25 #
body $-1 $26 $-1 $27 #
body $-1 $28 $-1 $29 #
lump $-1 $-1 $30 $0 #
transform $-1 1 0 0 0 1 0 0 0 1 49.864803003021336 27.101726635969328 13.0119221553516 1 rotate no_reflect no_shear #
lump $-1 $-1 $31 $1 #
transform $-1 1 0 0 0 1 0 0 0 1 49.864803003021336 27.101726635969328 13.0119221553516 1 rotate no_reflect no_shear #
lump $-1 $-1 $32 $2 #
transform $-1 1 0 0 0 1 0 0 0 1 49.864803003021336 27.101726635969328 13.0119221553516 1 rotate no_reflect no_shear #
lump $-1 $-1 $33 $3 #
transform $-1 1 0 0 0 1 0 0 0 1 49.864803003021336 27.101726635969328 13.0119221553516 1 rotate no_reflect no_shear #
lump $-1 $-1 $34 $4 #
transform $-1 1 0 0 0 1 0 0 0 1 49.864803003021336 27.101726635969328 13.0119221553516 1 rotate no_reflect no_shear #
lump $-1 $-1 $35 $5 #
transform $-1 1 0 0 0 1 0 0 0 1 49.864803003021336 27.101726635969328 13.0119221553516 1 rotate no_reflect no_shear #
lump $-1 $-1 $36 $6 #
transform $-1 1 0 0 0 1 0 0 0 1 49.864803003021336 27.101726635969328 13.0119221553516 1 rotate no_reflect no_shear #
lump $-1 $-1 $37 $7 #
transform $-1 1 0 0 0 1 0 0 0 1 49.864803003021336 27.101726635969328 13.0119221553516 1 rotate no_reflect no_shear #
lump $-1 $-1 $38 $8 #
transform $-1 1 0 0 0 1 0 0 0 1 49.864803003021336 27.101726635969328 13.0119221553516 1 rotate no_reflect no_shear #
lump $-1 $-1 $39 $9 #
transform $-1 1 0 0 0 1 0 0 0 1 49.864803003021336 27.101726635969328 13.0119221553516 1 rotate no_reflect no_shear #
shell $-1 $-1 $-1 $40 $-1 $10 #
shell $-1 $-1 $-1 $41 $-1 $12 #
shell $-1 $-1 $-1 $42 $-1 $14 #
shell $-1 $-1 $-1 $43 $-1 $16 #
shell $-1 $-1 $-1 $44 $-1 $18 #
shell $-1 $-1 $-1 $45 $-1 $20 #
shell $-1 $-1 $-1 $46 $-1 $22 #
shell $-1 $-1 $-1 $47 $-1 $24 #
shell $-1 $-1 $-1 $48 $-1 $26 #
shell $-1 $-1 $-1 $49 $-1 $28 #
face $-1 $50 $51 $30 $-1 $52 forward single #
face $-1 $53 $54 $31 $-1 $55 reversed single #
face $-1 $56 $57 $32 $-1 $58 reversed single #
face $-1 $59 $60 $33 $-1 $61 forward single #
face $-1 $62 $63 $34 $-1 $64 forward single #
face $-1 $65 $66 $35 $-1 $67 reversed single #
face $-1 $68 $69 $36 $-1 $70 forward single #
face $-1 $71 $72 $37 $-1 $73 forward single #
face $-1 $74 $75 $38 $-1 $76 reversed single #
face $-1 $77 $78 $39 $-1 $79 forward single #
face $-1 $80 $81 $30 $-1 $82 reversed single #
loop $-1 $-1 $83 $40 #
plane-surface $-1 0 0 13.0119221553516 0 0 1 1 0 0 forward_v I I I I #
face $-1 $84 $85 $31 $-1 $86 reversed single #
loop $-1 $-1 $87 $41 #
plane-surface $-1 -42.346781474125436 0 7.5920020915822004 0 0 1 1 0 0 forward_v I I I I #
face $-1 $88 $89 $32 $-1 $90 reversed single #
loop $-1 $-1 $91 $42 #
plane-surface $-1 -13.361790989273773 -106.74933221559101 65.007777170509385 -1 0 0 0 -0.79863551827123203 0.60181501223851219 forward_v I I I I #
face $-1 $92 $93 $33 $-1 $94 forward single #
loop $-1 $95 $96 $43 #
cone-surface $-1 -23.851143907289885 -23.048938292200624 8.2243495631681451 0 0.79863551827123203 -0.60181501223851219 1 0 0 1 I I 0 1 1 forward I I I I #
face $-1 $97 $98 $34 $-1 $99 forward single #
loop $-1 $100 $101 $44 #
cone-surface $-1 -17.557532156480221 -23.048938292200624 8.2243495631681451 0 0.79863551827123203 -0.60181501223851219 1 0 0 1 I I 0 1 1 forward I I I I #
face $-1 $102 $103 $35 $-1 $104 reversed single #
loop $-1 $-1 $105 $45 #
plane-surface $-1 28.984990484851672 -106.74933221559101 65.007777170509385 -1 0 0 0 -0.79863551827123203 0.60181501223851219 forward_v I I I I #
face $-1 $106 $107 $36 $-1 $108 forward single #
loop $-1 $109 $110 $46 #
cone-surface $-1 18.495637566835555 -23.048938292200624 8.2243495631681451 0 0.79863551827123203 -0.60181501223851219 1 0 0 1 I I 0 1 1 forward I I I I #
face $-1 $111 $112 $37 $-1 $113 forward single #
loop $-1 $114 $115 $47 #
cone-surface $-1 24.789249317645215 -23.048938292200624 8.2243495631681451 0 0.79863551827123203 -0.60181501223851219 1 0 0 1 I I 0 1 1 forward I I I I #
face $-1 $116 $117 $38 $-1 $118 reversed single #
loop $-1 $-1 $119 $48 #
plane-surface $-1 -20.137335874091981 39.903410110159726 119.41394610951123 1 0 0 0 -0.57357644374324357 -0.81915203911291934 forward_v I I I I #
face $-1 $120 $121 $39 $-1 $122 forward single #
loop $-1 $123 $124 $49 #
cone-surface $-1 -11.71592615944482 21.597484468336685 8.4681800137009056 0 -0.57357644374324357 -0.81915203911291934 2 0 0 1 I I 0 1 2 forward I I I I #
face $-1 $125 $126 $30 $-1 $127 reversed single #
loop $-1 $-1 $128 $50 #
plane-surface $-1 0 0 -13.0119221553516 0 0 1 1 0 0 forward_v I I I I #
coedge $-1 $129 $130 $131 $132 forward $51 $-1 #
face $-1 $133 $134 $31 $-1 $135 reversed single #
loop $-1 $-1 $136 $53 #
plane-surface $-1 -34.828759945229535 0 10.301962123466899 -1 0 0 0 0 1 forward_v I I I I #
coedge $-1 $137 $138 $139 $140 forward $54 $-1 #
face $-1 $141 $142 $32 $-1 $143 reversed single #
loop $-1 $-1 $144 $56 #
plane-surface $-1 -20.704338031885051 -27.101726635969342 4.989003111440816 0 -0.79863551827123203 0.60181501223851219 1 0 0 forward_v I I I I #
coedge $-1 $145 $146 $147 $148 reversed $57 $-1 #
face $-1 $-1 $149 $33 $-1 $150 forward single #
loop $-1 $151 $152 $59 #
cone-surface $-1 -23.851143907289885 -21.619683672943928 7.1473289868208294 0 0.79863551827123203 -0.60181501223851219 0.5 0 0 1 I I -0.70710678118654746 0.70710678118654746 0.5 forward I I I I #
loop $-1 $-1 $153 $43 #
coedge $-1 $96 $96 $154 $155 reversed $60 $-1 #
face $-1 $-1 $156 $34 $-1 $157 forward single #
loop $-1 $158 $159 $62 #
cone-surface $-1 -17.557532156480221 -21.619683672943928 7.1473289868208294 0 0.79863551827123203 -0.60181501223851219 0.5 0 0 1 I I -0.70710678118654746 0.70710678118654746 0.5 forward I I I I #
loop $-1 $-1 $160 $44 #
coedge $-1 $101 $101 $161 $162 reversed $63 $-1 #
face $-1 $163 $164 $35 $-1 $165 reversed single #
loop $-1 $-1 $166 $65 #
plane-surface $-1 21.642443442240392 -27.101726635969342 4.989003111440816 0 -0.79863551827123203 0.60181501223851219 1 0 0 forward_v I I I I #
coedge $-1 $167 $168 $169 $170 reversed $66 $-1 #
face $-1 $-1 $171 $36 $-1 $172 forward single #
loop $-1 $173 $174 $68 #
cone-surface $-1 18.495637566835555 -21.619683672943928 7.1473289868208294 0 0.79863551827123203 -0.60181501223851219 0.5 0 0 1 I I -0.70710678118654746 0.70710678118654746 0.5 forward I I I I #
loop $-1 $-1 $175 $46 #
coedge $-1 $110 $110 $176 $177 reversed $69 $-1 #
face $-1 $-1 $178 $37 $-1 $179 forward single #
loop $-1 $180 $181 $71 #
cone-surface $-1 24.789249317645215 -21.619683672943928 7.1473289868208294 0 0.79863551827123203 -0.60181501223851219 0.5 0 0 1 I I -0.70710678118654746 0.70710678118654746 0.5 forward I I I I #
loop $-1 $-1 $182 $47 #
coedge $-1 $115 $115 $183 $184 reversed $72 $-1 #
face $-1 $185 $186 $38 $-1 $187 reversed single #
loop $-1 $-1 $188 $74 #
plane-surface $-1 -11.71592615944482 -17.299142638701056 37.720235989733325 0 0.57357644374324357 0.81915203911291934 1 0 0 forward_v I I I I #
coedge $-1 $189 $190 $191 $192 reversed $75 $-1 #
face $-1 $-1 $193 $39 $-1 $194 forward single #
loop $-1 $195 $196 $77 #
cone-surface $-1 -11.71592615944482 20.076536256905584 6.2960408989072629 0 -0.57357644374324357 -0.81915203911291934 1 0 0 1 I I -0.70710678118654724 0.70710678118654791 1 forward I I I I #
loop $-1 $-1 $197 $49 #
coedge $-1 $124 $124 $198 $199 reversed $78 $-1 #
face $-1 $200 $201 $30 $-1 $202 reversed single #
loop $-1 $-1 $203 $80 #
plane-surface $-1 0 -27.101726635969328 0 0 1 0 0 0 1 forward_v I I I I #
coedge $-1 $204 $205 $206 $207 forward $81 $-1 #
coedge $-1 $208 $83 $209 $210 forward $51 $-1 #
coedge $-1 $83 $208 $211 $212 forward $51 $-1 #
coedge $-1 $213 $214 $83 $132 reversed $215 $-1 #
edge $-1 $216 -27.101726635969328 $217 27.101726635969328 $131 $218 forward 7 unknown #
face $-1 $219 $220 $31 $-1 $221 reversed single #
loop $-1 $-1 $222 $84 #
plane-surface $-1 0 27.101726635969328 0 0 -1 0 0 0 -1 forward_v I I I I #
coedge $-1 $139 $223 $224 $225 reversed $85 $-1 #
coedge $-1 $226 $87 $227 $228 reversed $54 $-1 #
coedge $-1 $87 $226 $229 $230 reversed $54 $-1 #
coedge $-1 $231 $136 $87 $140 reversed $85 $-1 #
edge $-1 $232 -27.101726635969328 $233 27.101726635969328 $139 $234 forward 7 unknown #
face $-1 $235 $236 $32 $-1 $237 reversed single #
loop $-1 $-1 $238 $88 #
plane-surface $-1 -28.046885074496331 -106.74933221559101 65.007777170509385 1 0 0 0 0.79863551827123203 -0.60181501223851219 forward_v I I I I #
coedge $-1 $239 $240 $241 $242 reversed $89 $-1 #
coedge $-1 $146 $91 $243 $244 reversed $57 $-1 #
coedge $-1 $91 $145 $239 $245 reversed $57 $-1 #
coedge $-1 $241 $246 $91 $148 forward $247 $-1 #
edge $-1 $248 26.272939471826177 $249 32.318642439121405 $147 $250 forward 7 unknown #
loop $-1 $-1 $154 $92 #
plane-surface $-1 -20.704338031885051 -27.101726635969342 4.989003111440816 0 -0.79863551827123203 0.60181501223851219 1 0 0 forward_v I I I I #
loop $-1 $-1 $251 $59 #
coedge $-1 $152 $152 $153 $252 reversed $93 $-1 #
coedge $-1 $153 $153 $152 $252 forward $95 $-1 #
coedge $-1 $154 $154 $96 $155 forward $149 $-1 #
edge $-1 $253 -6.7907904708357448e-016 $253 6.2831853071795996 $154 $254 forward 7 unknown #
loop $-1 $-1 $161 $97 #
plane-surface $-1 -20.704338031885051 -27.101726635969342 4.989003111440816 0 -0.79863551827123203 0.60181501223851219 1 0 0 forward_v I I I I #
loop $-1 $-1 $255 $62 #
coedge $-1 $159 $159 $160 $256 reversed $98 $-1 #
coedge $-1 $160 $160 $159 $256 forward $100 $-1 #
coedge $-1 $161 $161 $101 $162 forward $156 $-1 #
edge $-1 $257 -6.7907904708357448e-016 $257 6.2831853071795996 $161 $258 forward 7 unknown #
face $-1 $259 $260 $35 $-1 $261 reversed single #
loop $-1 $-1 $262 $102 #
plane-surface $-1 14.299896399629114 -106.74933221559101 65.007777170509385 1 0 0 0 0.79863551827123203 -0.60181501223851219 forward_v I I I I #
coedge $-1 $263 $264 $265 $266 reversed $103 $-1 #
coedge $-1 $168 $105 $267 $268 reversed $66 $-1 #
coedge $-1 $105 $167 $263 $269 reversed $66 $-1 #
coedge $-1 $265 $270 $105 $170 forward $271 $-1 #
edge $-1 $272 26.272939471826177 $273 32.318642439121405 $169 $274 forward 7 unknown #
loop $-1 $-1 $176 $106 #
plane-surface $-1 21.642443442240392 -27.101726635969342 4.989003111440816 0 -0.79863551827123203 0.60181501223851219 1 0 0 forward_v I I I I #
loop $-1 $-1 $275 $68 #
coedge $-1 $174 $174 $175 $276 reversed $107 $-1 #
coedge $-1 $175 $175 $174 $276 forward $109 $-1 #
coedge $-1 $176 $176 $110 $177 forward $171 $-1 #
edge $-1 $277 -6.7907904708357448e-016 $277 6.2831853071795996 $176 $278 forward 7 unknown #
loop $-1 $-1 $183 $111 #
plane-surface $-1 21.642443442240392 -27.101726635969342 4.989003111440816 0 -0.79863551827123203 0.60181501223851219 1 0 0 forward_v I I I I #
loop $-1 $-1 $279 $71 #
coedge $-1 $181 $181 $182 $280 reversed $112 $-1 #
coedge $-1 $182 $182 $181 $280 forward $114 $-1 #
coedge $-1 $183 $183 $115 $184 forward $178 $-1 #
edge $-1 $281 -6.7907904708357448e-016 $281 6.2831853071795996 $183 $282 forward 7 unknown #
face $-1 $283 $284 $38 $-1 $285 forward single #
loop $-1 $-1 $286 $116 #
plane-surface $-1 -3.294516444797658 39.903410110159726 119.41394610951123 -1 0 0 0 0.57357644374324357 0.81915203911291934 forward_v I I I I #
coedge $-1 $287 $288 $289 $290 reversed $117 $-1 #
coedge $-1 $190 $119 $291 $292 reversed $75 $-1 #
coedge $-1 $119 $189 $287 $293 reversed $75 $-1 #
coedge $-1 $289 $294 $119 $192 forward $284 $-1 #
edge $-1 $295 -7.1500215808894652 $296 1.963719219000069 $191 $297 forward 7 unknown #
loop $-1 $-1 $198 $120 #
plane-surface $-1 -11.71592615944482 -17.299142638701056 37.720235989733325 0 0.57357644374324357 0.81915203911291934 1 0 0 forward_v I I I I #
loop $-1 $-1 $298 $77 #
coedge $-1 $196 $196 $197 $299 reversed $121 $-1 #
coedge $-1 $197 $197 $196 $299 forward $123 $-1 #
coedge $-1 $198 $198 $124 $199 forward $193 $-1 #
edge $-1 $300 1.4641666191275965e-016 $300 6.2831853071796004 $198 $301 forward 7 unknown #
face $-1 $302 $303 $30 $-1 $304 reversed single #
loop $-1 $-1 $305 $125 #
plane-surface $-1 -49.864803003021336 0 0 1 0 0 0 0 -1 forward_v I I I I #
coedge $-1 $306 $211 $307 $308 forward $126 $-1 #
coedge $-1 $309 $128 $306 $310 forward $81 $-1 #
coedge $-1 $128 $309 $311 $312 forward $81 $-1 #
coedge $-1 $214 $213 $128 $207 reversed $215 $-1 #
edge $-1 $313 -27.101726635969328 $314 27.101726635969328 $206 $315 forward 7 unknown #
coedge $-1 $130 $129 $316 $317 forward $51 $-1 #
coedge $-1 $318 $319 $129 $210 reversed $303 $-1 #
edge $-1 $217 -49.864803003021336 $320 49.864803003021336 $209 $321 forward 7 unknown #
coedge $-1 $203 $322 $130 $212 reversed $126 $-1 #
edge $-1 $323 -49.864803003021336 $216 49.864803003021336 $211 $324 forward 7 unknown #
coedge $-1 $206 $131 $322 $325 forward $215 $-1 #
coedge $-1 $131 $206 $318 $326 reversed $215 $-1 #
loop $-1 $-1 $213 $302 #
vertex $-1 $132 $327 #
vertex $-1 $132 $328 #
straight-curve $-1 49.864803003021336 0 13.0119221553516 0 1 0 I I #
face $-1 $329 $330 $31 $-1 $331 forward single #
loop $-1 $-1 $332 $133 #
plane-surface $-1 -49.864803003021336 0 0 1 0 0 0 0 -1 forward_v I I I I #
coedge $-1 $229 $333 $231 $334 forward $134 $-1 #
coedge $-1 $136 $231 $335 $336 reversed $85 $-1 #
coedge $-1 $337 $227 $136 $225 forward $338 $-1 #
edge $-1 $233 2.4410210298487511 $339 7.8609410936181474 $224 $340 forward 7 unknown #
coedge $-1 $138 $137 $332 $341 reversed $54 $-1 #
coedge $-1 $224 $342 $137 $228 forward $338 $-1 #
edge $-1 $343 -28.691412265958618 $233 -13.655369208166817 $227 $344 forward 7 unknown #
coedge $-1 $345 $222 $138 $230 forward $134 $-1 #
edge $-1 $232 13.655369208166817 $346 28.691412265958618 $229 $347 forward 7 unknown #
coedge $-1 $223 $139 $222 $334 reversed $85 $-1 #
vertex $-1 $230 $348 #
vertex $-1 $228 $349 #
straight-curve $-1 -34.828759945229535 0 7.5920020915822004 0 -1 0 I I #
face $-1 $-1 $247 $32 $-1 $350 forward single #
loop $-1 $-1 $351 $141 #
plane-surface $-1 0 -27.101726635969328 0 0 1 0 0 0 1 forward_v I I I I #
coedge $-1 $352 $353 $354 $355 reversed $142 $-1 #
coedge $-1 $356 $144 $146 $245 forward $89 $-1 #
coedge $-1 $144 $356 $352 $357 forward $89 $-1 #
coedge $-1 $354 $147 $144 $242 forward $247 $-1 #
edge $-1 $249 3.0096219733312477 $358 17.694716058553805 $241 $359 forward 7 unknown #
coedge $-1 $360 $361 $145 $244 forward $236 $-1 #
edge $-1 $362 -27.514885473813859 $248 -19.491966429903094 $243 $363 forward 7 unknown #
edge $-1 $249 -10.045782913935021 $362 -2.3448253187574213e-014 $146 $364 forward 7 unknown #
coedge $-1 $147 $354 $360 $365 forward $247 $-1 #
loop $-1 $-1 $354 $235 #
vertex $-1 $244 $366 #
vertex $-1 $148 $367 #
straight-curve $-1 -13.361790989273773 -53.374666107795505 13.011922155351598 0 1 0 I I #
coedge $-1 $251 $251 $-1 $368 reversed $151 $-1 #
edge $-1 $369 0 $369 6.2831853071796004 $152 $370 forward 7 unknown #
vertex $-1 $155 $371 #
ellipse-curve $-1 -23.851143907289885 -24.078875152321718 9.0004626333962126 0 -0.79863551827123203 0.60181501223851219 1 0 0 1 I I #
coedge $-1 $255 $255 $-1 $372 reversed $158 $-1 #
edge $-1 $373 0 $373 6.2831853071796004 $159 $374 forward 7 unknown #
vertex $-1 $162 $375 #
ellipse-curve $-1 -17.557532156480221 -24.078875152321718 9.0004626333962126 0 -0.79863551827123203 0.60181501223851219 1 0 0 1 I I #
face $-1 $-1 $271 $35 $-1 $376 forward single #
loop $-1 $-1 $377 $163 #
plane-surface $-1 0 -27.101726635969328 0 0 1 0 0 0 1 forward_v I I I I #
coedge $-1 $378 $379 $380 $381 reversed $164 $-1 #
coedge $-1 $382 $166 $168 $269 forward $103 $-1 #
coedge $-1 $166 $382 $378 $383 forward $103 $-1 #
coedge $-1 $380 $169 $166 $266 forward $271 $-1 #
edge $-1 $273 -18.163768763731476 $384 -3.4786746785089182 $265 $385 forward 7 unknown #
coedge $-1 $386 $387 $167 $268 forward $260 $-1 #
edge $-1 $388 -27.514885473813859 $272 -19.491966429903094 $267 $389 forward 7 unknown #
edge $-1 $273 -10.045782913935021 $388 -2.3448253187574213e-014 $168 $390 forward 7 unknown #
coedge $-1 $169 $380 $386 $391 forward $271 $-1 #
loop $-1 $-1 $380 $259 #
vertex $-1 $268 $392 #
vertex $-1 $170 $393 #
straight-curve $-1 28.984990484851672 -53.374666107795505 13.011922155351598 0 1 0 I I #
coedge $-1 $275 $275 $-1 $394 reversed $173 $-1 #
edge $-1 $395 0 $395 6.2831853071796004 $174 $396 forward 7 unknown #
vertex $-1 $177 $397 #
ellipse-curve $-1 18.495637566835555 -24.078875152321718 9.0004626333962126 0 -0.79863551827123203 0.60181501223851219 1 0 0 1 I I #
coedge $-1 $279 $279 $-1 $398 reversed $180 $-1 #
edge $-1 $399 0 $399 6.2831853071796004 $181 $400 forward 7 unknown #
vertex $-1 $184 $401 #
ellipse-curve $-1 24.789249317645215 -24.078875152321718 9.0004626333962126 0 -0.79863551827123203 0.60181501223851219 1 0 0 1 I I #
face $-1 $-1 $402 $38 $-1 $403 reversed single #
loop $-1 $-1 $191 $185 #
plane-surface $-1 0 0 13.0119221553516 0 0 1 1 0 0 forward_v I I I I #
coedge $-1 $404 $405 $406 $407 reversed $186 $-1 #
coedge $-1 $408 $188 $190 $293 forward $117 $-1 #
coedge $-1 $188 $408 $404 $409 forward $117 $-1 #
coedge $-1 $406 $191 $188 $290 forward $284 $-1 #
edge $-1 $296 -14.279372794369571 $410 2.5634466349247518 $289 $411 forward 7 unknown #
coedge $-1 $412 $413 $189 $292 forward $402 $-1 #
edge $-1 $414 -53.076561031343942 $295 -46.695050899404016 $291 $415 forward 7 unknown #
edge $-1 $296 43.077630024572947 $414 54.203453271938649 $190 $416 forward 7 unknown #
coedge $-1 $191 $406 $412 $417 forward $284 $-1 #
vertex $-1 $292 $418 #
vertex $-1 $192 $419 #
straight-curve $-1 -20.137335874091981 19.951705055079863 13.011922155351598 0 -1 0 I I #
coedge $-1 $298 $298 $-1 $420 reversed $195 $-1 #
edge $-1 $421 0 $421 6.2831853071796004 $196 $422 forward 7 unknown #
vertex $-1 $199 $423 #
ellipse-curve $-1 -11.71592615944482 22.54485623602455 9.8211670893816407 0 0.57357644374324357 0.81915203911291934 2 0 0 1 I I #
face $-1 $-1 $215 $30 $-1 $424 reversed single #
loop $-1 $-1 $318 $200 #
plane-surface $-1 0 27.101726635969328 0 0 -1 0 0 0 -1 forward_v I I I I #
coedge $-1 $425 $316 $319 $426 forward $201 $-1 #
coedge $-1 $322 $203 $204 $310 reversed $126 $-1 #
coedge $-1 $316 $425 $203 $308 reversed $201 $-1 #
edge $-1 $323 -13.0119221553516 $427 13.0119221553516 $307 $428 forward 7 unknown #
coedge $-1 $205 $204 $425 $429 forward $81 $-1 #
edge $-1 $314 -49.864803003021336 $427 49.864803003021336 $306 $430 forward 7 unknown #
coedge $-1 $319 $318 $205 $312 reversed $303 $-1 #
edge $-1 $431 -49.864803003021336 $313 49.864803003021336 $311 $432 forward 7 unknown #
vertex $-1 $207 $433 #
vertex $-1 $325 $434 #
straight-curve $-1 49.864803003021336 0 -13.0119221553516 0 -1 0 I I #
coedge $-1 $305 $307 $208 $317 reversed $201 $-1 #
edge $-1 $320 -27.101726635969328 $323 27.101726635969328 $316 $435 forward 7 unknown #
coedge $-1 $311 $209 $214 $326 forward $303 $-1 #
coedge $-1 $209 $311 $305 $426 reversed $303 $-1 #
vertex $-1 $210 $436 #
straight-curve $-1 0 27.101726635969328 13.0119221553516 -1 0 0 I I #
coedge $-1 $211 $306 $213 $325 reversed $126 $-1 #
vertex $-1 $317 $437 #
straight-curve $-1 0 -27.101726635969328 13.0119221553516 1 0 0 I I #
edge $-1 $216 -13.0119221553516 $314 13.0119221553516 $213 $438 forward 7 unknown #
edge $-1 $217 -13.0119221553516 $313 13.0119221553516 $214 $439 forward 7 unknown #
point $-1 49.864803003021336 -27.101726635969328 13.0119221553516 #
point $-1 49.864803003021336 27.101726635969328 13.0119221553516 #
face $-1 $-1 $338 $31 $-1 $440 reversed single #
loop $-1 $-1 $335 $219 #
plane-surface $-1 0 0 13.0119221553516 0 0 1 1 0 0 forward_v I I I I #
coedge $-1 $441 $442 $226 $341 forward $220 $-1 #
coedge $-1 $222 $345 $443 $444 reversed $134 $-1 #
edge $-1 $445 -7.8609410936181474 $232 -2.4410210298487511 $222 $446 forward 7 unknown #
coedge $-1 $443 $447 $223 $336 forward $330 $-1 #
edge $-1 $339 -27.101726635969328 $445 27.101726635969328 $335 $448 forward 7 unknown #
coedge $-1 $342 $224 $447 $449 reversed $338 $-1 #
loop $-1 $-1 $224 $329 #
vertex $-1 $225 $450 #
straight-curve $-1 -34.828759945229535 -27.101726635969328 5.1509810617334493 0 0 1 I I #
edge $-1 $346 -27.101726635969328 $343 27.101726635969328 $332 $451 forward 7 unknown #
coedge $-1 $227 $337 $441 $452 forward $338 $-1 #
vertex $-1 $341 $453 #
straight-curve $-1 -21.173390737062718 -27.101726635969328 7.5920020915822004 1 0 0 I I #
coedge $-1 $333 $229 $442 $454 reversed $134 $-1 #
vertex $-1 $341 $455 #
straight-curve $-1 -21.173390737062718 27.101726635969328 7.5920020915822004 -1 0 0 I I #
point $-1 -34.828759945229535 27.101726635969328 7.5920020915822004 #
point $-1 -34.828759945229535 -27.101726635969328 7.5920020915822004 #
plane-surface $-1 0 0 13.0119221553516 0 0 1 1 0 0 forward_v I I I I #
coedge $-1 $361 $360 $353 $456 forward $236 $-1 #
coedge $-1 $353 $238 $240 $357 reversed $142 $-1 #
coedge $-1 $238 $352 $351 $456 reversed $142 $-1 #
coedge $-1 $246 $241 $238 $355 forward $247 $-1 #
edge $-1 $358 -32.318642439121405 $457 -26.272939471826177 $354 $458 forward 7 unknown #
coedge $-1 $240 $239 $361 $459 reversed $89 $-1 #
edge $-1 $460 2.3448253187574213e-014 $358 10.045782913935021 $352 $461 forward 7 unknown #
vertex $-1 $242 $462 #
straight-curve $-1 -10.352169015942525 -21.056023668674101 13.0119221553516 -1 0 0 I I #
coedge $-1 $351 $243 $246 $365 reversed $236 $-1 #
coedge $-1 $243 $351 $356 $459 forward $236 $-1 #
vertex $-1 $244 $463 #
straight-curve $-1 -13.361790989273773 -27.101726635969328 32.503888585254693 0 0 1 I I #
straight-curve $-1 -13.361790989273773 -27.101726635969342 4.989003111440816 0 -0.60181501223851219 -0.79863551827123203 I I #
edge $-1 $457 -28.046885074496331 $248 -13.361790989273773 $360 $464 forward 7 unknown #
point $-1 -13.361790989273773 -27.101726635969328 13.0119221553516 #
point $-1 -13.361790989273773 -21.056023668674101 13.0119221553516 #
edge $-1 $465 1 $465 0 $251 $-1 forward 7 unknown #
vertex $-1 $252 $466 #
ellipse-curve $-1 -23.851143907289885 -22.019001432079545 7.4482364929400857 0 -0.79863551827123203 0.60181501223851219 1 0 0 1 I I #
point $-1 -22.851143907289885 -24.078875152321707 9.0004626333962037 #
edge $-1 $467 1 $467 0 $255 $-1 forward 7 unknown #
vertex $-1 $256 $468 #
ellipse-curve $-1 -17.557532156480221 -22.019001432079545 7.4482364929400857 0 -0.79863551827123203 0.60181501223851219 1 0 0 1 I I #
point $-1 -16.557532156480221 -24.078875152321707 9.0004626333962037 #
plane-surface $-1 0 0 13.0119221553516 0 0 1 1 0 0 forward_v I I I I #
coedge $-1 $387 $386 $379 $469 forward $260 $-1 #
coedge $-1 $379 $262 $264 $383 reversed $164 $-1 #
coedge $-1 $262 $378 $377 $469 reversed $164 $-1 #
coedge $-1 $270 $265 $262 $381 forward $271 $-1 #
edge $-1 $384 -32.318642439121405 $470 -26.272939471826177 $380 $471 forward 7 unknown #
coedge $-1 $264 $263 $387 $472 reversed $103 $-1 #
edge $-1 $473 2.3448253187574213e-014 $384 10.045782913935021 $378 $474 forward 7 unknown #
vertex $-1 $266 $475 #
straight-curve $-1 10.821221721120196 -21.056023668674101 13.0119221553516 -1 0 0 I I #
coedge $-1 $377 $267 $270 $391 reversed $260 $-1 #
coedge $-1 $267 $377 $382 $472 forward $260 $-1 #
vertex $-1 $268 $476 #
straight-curve $-1 28.984990484851672 -27.101726635969328 32.503888585254693 0 0 1 I I #
straight-curve $-1 28.984990484851672 -27.101726635969342 4.989003111440816 0 -0.60181501223851219 -0.79863551827123203 I I #
edge $-1 $470 14.299896399629114 $272 28.984990484851672 $386 $477 forward 7 unknown #
point $-1 28.984990484851672 -27.101726635969328 13.0119221553516 #
point $-1 28.984990484851672 -21.056023668674101 13.0119221553516 #
edge $-1 $478 1 $478 0 $275 $-1 forward 7 unknown #
vertex $-1 $276 $479 #
ellipse-curve $-1 18.495637566835555 -22.019001432079545 7.4482364929400857 0 -0.79863551827123203 0.60181501223851219 1 0 0 1 I I #
point $-1 19.495637566835555 -24.078875152321707 9.0004626333962037 #
edge $-1 $480 1 $480 0 $279 $-1 forward 7 unknown #
vertex $-1 $280 $481 #
ellipse-curve $-1 24.789249317645215 -22.019001432079545 7.4482364929400857 0 -0.79863551827123203 0.60181501223851219 1 0 0 1 I I #
point $-1 25.789249317645215 -24.078875152321707 9.0004626333962037 #
loop $-1 $-1 $291 $283 #
plane-surface $-1 0 27.101726635969328 0 0 -1 0 0 0 -1 forward_v I I I I #
coedge $-1 $405 $286 $288 $409 reversed $186 $-1 #
coedge $-1 $286 $404 $482 $483 reversed $186 $-1 #
coedge $-1 $294 $289 $286 $407 forward $284 $-1 #
edge $-1 $410 -1.963719219000069 $484 7.1500215808894652 $406 $485 forward 7 unknown #
coedge $-1 $288 $287 $413 $486 reversed $117 $-1 #
edge $-1 $487 -54.203453271938649 $410 -43.077630024572947 $404 $488 forward 7 unknown #
vertex $-1 $290 $489 #
straight-curve $-1 -5.8579630797224098 17.987985836079787 13.011922155351602 1 0 0 I I #
coedge $-1 $482 $291 $294 $417 reversed $402 $-1 #
coedge $-1 $291 $482 $408 $486 forward $402 $-1 #
vertex $-1 $292 $490 #
straight-curve $-1 -20.137335874091981 27.101726635969328 59.706973054755615 0 0 1 I I #
straight-curve $-1 -20.137335874091981 -17.299142638701056 37.720235989733325 0 0.81915203911291934 -0.57357644374324357 I I #
edge $-1 $484 3.294516444797658 $295 20.137335874091981 $412 $491 forward 7 unknown #
point $-1 -20.137335874091981 27.101726635969328 13.0119221553516 #
point $-1 -20.137335874091981 17.987985836079794 13.011922155351598 #
edge $-1 $492 1 $492 0 $298 $-1 forward 7 unknown #
vertex $-1 $299 $493 #
ellipse-curve $-1 -11.71592615944482 20.65011270064883 7.1151929380201828 0 0.57357644374324357 0.81915203911291934 2 0 0 1 I I #
point $-1 -9.7159261594448196 22.544856236024543 9.8211670893816301 #
plane-surface $-1 49.864803003021336 0 0 -1 0 0 0 0 1 forward_v I I I I #
coedge $-1 $307 $305 $309 $429 reversed $201 $-1 #
edge $-1 $320 -13.0119221553516 $431 13.0119221553516 $319 $494 forward 7 unknown #
vertex $-1 $429 $495 #
straight-curve $-1 -49.864803003021336 -27.101726635969328 0 0 0 -1 I I #
edge $-1 $427 -27.101726635969328 $431 27.101726635969328 $425 $496 forward 7 unknown #
straight-curve $-1 0 -27.101726635969328 -13.0119221553516 -1 0 0 I I #
vertex $-1 $312 $497 #
straight-curve $-1 0 27.101726635969328 -13.0119221553516 1 0 0 I I #
point $-1 49.864803003021336 27.101726635969328 -13.0119221553516 #
point $-1 49.864803003021336 -27.101726635969328 -13.0119221553516 #
straight-curve $-1 -49.864803003021336 0 13.0119221553516 0 -1 0 I I #
point $-1 -49.864803003021336 27.101726635969328 13.0119221553516 #
point $-1 -49.864803003021336 -27.101726635969328 13.0119221553516 #
straight-curve $-1 49.864803003021336 -27.101726635969328 0 0 0 -1 I I #
straight-curve $-1 49.864803003021336 27.101726635969328 0 0 0 -1 I I #
plane-surface $-1 0 -27.101726635969328 0 0 1 0 0 0 1 forward_v I I I I #
coedge $-1 $498 $332 $342 $452 reversed $220 $-1 #
coedge $-1 $332 $498 $345 $454 forward $220 $-1 #
coedge $-1 $499 $335 $333 $444 forward $330 $-1 #
edge $-1 $445 34.828759945229535 $500 49.864803003021336 $333 $501 forward 7 unknown #
vertex $-1 $444 $502 #
straight-curve $-1 -34.828759945229535 27.101726635969328 5.1509810617334493 0 0 -1 I I #
coedge $-1 $335 $499 $337 $449 forward $330 $-1 #
straight-curve $-1 -34.828759945229535 0 13.0119221553516 0 1 0 I I #
edge $-1 $503 -49.864803003021336 $339 -34.828759945229535 $337 $504 forward 7 unknown #
point $-1 -34.828759945229535 -27.101726635969328 13.011922155351597 #
straight-curve $-1 -49.864803003021336 0 7.5920020915822004 0 -1 0 I I #
edge $-1 $503 -13.0119221553516 $343 -7.5920020915822004 $441 $505 forward 7 unknown #
point $-1 -49.864803003021336 -27.101726635969328 7.5920020915822004 #
edge $-1 $500 -13.0119221553516 $346 -7.5920020915822004 $345 $506 forward 7 unknown #
point $-1 -49.864803003021336 27.101726635969328 7.5920020915822004 #
edge $-1 $457 19.491966429903094 $460 27.514885473813859 $351 $507 forward 7 unknown #
vertex $-1 $365 $508 #
straight-curve $-1 -28.046885074496331 -53.374666107795505 13.011922155351598 0 -1 0 I I #
edge $-1 $460 -17.694716058553805 $362 -3.0096219733312477 $361 $509 forward 7 unknown #
vertex $-1 $459 $510 #
straight-curve $-1 -28.046885074496331 -27.101726635969342 4.989003111440816 0 0.60181501223851219 0.79863551827123203 I I #
point $-1 -28.046885074496331 -21.056023668674101 13.0119221553516 #
point $-1 -13.361790989273773 -27.101726635969328 4.9890031114408346 #
straight-curve $-1 0 -27.101726635969328 13.0119221553516 1 0 0 I I #
vertex $-1 $368 $511 #
point $-1 -22.851143907289885 -22.019001432079545 7.4482364929400857 #
vertex $-1 $372 $512 #
point $-1 -16.557532156480221 -22.019001432079545 7.4482364929400857 #
edge $-1 $470 19.491966429903094 $473 27.514885473813859 $377 $513 forward 7 unknown #
vertex $-1 $391 $514 #
straight-curve $-1 14.299896399629114 -53.374666107795505 13.011922155351598 0 -1 0 I I #
edge $-1 $473 3.4786746785089182 $388 18.163768763731476 $387 $515 forward 7 unknown #
vertex $-1 $472 $516 #
straight-curve $-1 14.299896399629114 -27.101726635969342 4.989003111440816 0 0.60181501223851219 0.79863551827123203 I I #
point $-1 14.299896399629114 -21.056023668674101 13.0119221553516 #
point $-1 28.984990484851672 -27.101726635969328 4.9890031114408346 #
straight-curve $-1 0 -27.101726635969328 13.0119221553516 1 0 0 I I #
vertex $-1 $394 $517 #
point $-1 19.495637566835555 -22.019001432079545 7.4482364929400857 #
vertex $-1 $398 $518 #
point $-1 25.789249317645215 -22.019001432079545 7.4482364929400857 #
coedge $-1 $413 $412 $405 $483 forward $402 $-1 #
edge $-1 $484 46.695050899404016 $487 53.076561031343942 $482 $519 forward 7 unknown #
vertex $-1 $417 $520 #
straight-curve $-1 -3.294516444797658 19.951705055079863 13.011922155351598 0 1 0 I I #
edge $-1 $487 -2.5634466349247518 $414 14.279372794369571 $413 $521 forward 7 unknown #
vertex $-1 $486 $522 #
straight-curve $-1 -3.294516444797658 -17.299142638701056 37.720235989733325 0 -0.81915203911291934 0.57357644374324357 I I #
point $-1 -3.294516444797658 17.987985836079794 13.011922155351598 #
point $-1 -20.137335874091981 27.101726635969328 6.6304120234116759 #
straight-curve $-1 0 27.101726635969328 13.0119221553516 -1 0 0 I I #
vertex $-1 $420 $523 #
point $-1 -9.7159261594448196 20.65011270064883 7.1151929380201828 #
straight-curve $-1 -49.864803003021336 27.101726635969328 0 0 0 -1 I I #
point $-1 -49.864803003021336 -27.101726635969328 -13.0119221553516 #
straight-curve $-1 -49.864803003021336 0 -13.0119221553516 0 1 0 I I #
point $-1 -49.864803003021336 27.101726635969328 -13.0119221553516 #
coedge $-1 $442 $441 $499 $524 reversed $220 $-1 #
coedge $-1 $447 $443 $498 $524 forward $330 $-1 #
vertex $-1 $444 $525 #
straight-curve $-1 0 27.101726635969328 13.0119221553516 -1 0 0 I I #
point $-1 -34.828759945229535 27.101726635969328 13.011922155351597 #
vertex $-1 $524 $526 #
straight-curve $-1 0 -27.101726635969328 13.0119221553516 1 0 0 I I #
straight-curve $-1 -49.864803003021336 -27.101726635969328 0 0 0 -1 I I #
straight-curve $-1 -49.864803003021336 27.101726635969328 0 0 0 -1 I I #
straight-curve $-1 -28.046885074496331 -27.101726635969328 32.503888585254693 0 0 -1 I I #
point $-1 -28.046885074496331 -27.101726635969328 13.0119221553516 #
straight-curve $-1 -10.352169015942525 -27.101726635969328 4.9890031114408355 1 0 0 I I #
point $-1 -28.046885074496331 -27.101726635969328 4.9890031114408346 #
point $-1 -23.851143907289885 -21.220365913808312 6.8464214807015731 #
point $-1 -17.557532156480221 -21.220365913808312 6.8464214807015731 #
straight-curve $-1 14.299896399629114 -27.101726635969328 32.503888585254693 0 0 -1 I I #
point $-1 14.299896399629114 -27.101726635969328 13.0119221553516 #
straight-curve $-1 10.821221721120196 -27.101726635969328 4.9890031114408355 1 0 0 I I #
point $-1 14.299896399629114 -27.101726635969328 4.9890031114408346 #
point $-1 18.495637566835555 -21.220365913808312 6.8464214807015731 #
point $-1 24.789249317645215 -21.220365913808312 6.8464214807015731 #
straight-curve $-1 -3.294516444797658 27.101726635969328 59.706973054755615 0 0 -1 I I #
point $-1 -3.294516444797658 27.101726635969328 13.0119221553516 #
straight-curve $-1 -5.8579630797224098 27.101726635969332 6.6304120234116741 -1 0 0 I I #
point $-1 -3.294516444797658 27.101726635969328 6.6304120234116759 #
point $-1 -11.71592615944482 19.502959813162338 5.476888859794343 #
edge $-1 $500 -27.101726635969328 $503 27.101726635969328 $498 $527 forward 7 unknown #
point $-1 -49.864803003021336 27.101726635969328 13.0119221553516 #
point $-1 -49.864803003021336 -27.101726635969328 13.0119221553516 #
straight-curve $-1 -49.864803003021336 0 13.0119221553516 0 -1 0 I I #
End-of-ACIS-data 