500 0 11 0           
7 Unknown 11 ACIS 5.0 NT 24 Thu Mar 25 20:10:38 1999 
-1 9.9999999999999995e-007 1e-010 
body $-1 $11 $-1 $12 #
body $-1 $13 $-1 $14 #
body $-1 $15 $-1 $16 #
body $-1 $17 $-1 $18 #
body $-1 $19 $-1 $20 #
body $-1 $21 $-1 $22 #
body $-1 $23 $-1 $24 #
body $-1 $25 $-1 $26 #
body $-1 $27 $-1 $28 #
body $-1 $29 $-1 $30 #
body $-1 $31 $-1 $32 #
lump $-1 $-1 $33 $0 #
transform $-1 1 0 0 0 1 0 0 0 1 46.96676534318064 28.04045036334038 10.132369287303051 1 rotate no_reflect no_shear #
lump $-1 $-1 $34 $1 #
transform $-1 1 0 0 0 1 0 0 0 1 46.96676534318064 28.04045036334038 10.132369287303051 1 rotate no_reflect no_shear #
lump $-1 $-1 $35 $2 #
transform $-1 1 0 0 0 1 0 0 0 1 46.96676534318064 28.04045036334038 10.132369287303051 1 rotate no_reflect no_shear #
lump $-1 $-1 $36 $3 #
transform $-1 1 0 0 0 1 0 0 0 1 46.96676534318064 28.04045036334038 10.132369287303051 1 rotate no_reflect no_shear #
lump $-1 $-1 $37 $4 #
transform $-1 1 0 0 0 1 0 0 0 1 46.96676534318064 28.04045036334038 10.132369287303051 1 rotate no_reflect no_shear #
lump $-1 $-1 $38 $5 #
transform $-1 1 0 0 0 1 0 0 0 1 46.96676534318064 28.04045036334038 10.132369287303051 1 rotate no_reflect no_shear #
lump $-1 $-1 $39 $6 #
transform $-1 1 0 0 0 1 0 0 0 1 46.96676534318064 28.04045036334038 10.132369287303051 1 rotate no_reflect no_shear #
lump $-1 $-1 $40 $7 #
transform $-1 1 0 0 0 1 0 0 0 1 46.96676534318064 28.04045036334038 10.132369287303051 1 rotate no_reflect no_shear #
lump $-1 $-1 $41 $8 #
transform $-1 1 0 0 0 1 0 0 0 1 46.96676534318064 28.04045036334038 10.132369287303051 1 rotate no_reflect no_shear #
lump $-1 $-1 $42 $9 #
transform $-1 1 0 0 0 1 0 0 0 1 46.96676534318064 28.04045036334038 10.132369287303051 1 rotate no_reflect no_shear #
lump $-1 $-1 $43 $10 #
transform $-1 1 0 0 0 1 0 0 0 1 46.96676534318064 28.04045036334038 10.132369287303051 1 rotate no_reflect no_shear #
shell $-1 $-1 $-1 $44 $-1 $11 #
shell $-1 $-1 $-1 $45 $-1 $13 #
shell $-1 $-1 $-1 $46 $-1 $15 #
shell $-1 $-1 $-1 $47 $-1 $17 #
shell $-1 $-1 $-1 $48 $-1 $19 #
shell $-1 $-1 $-1 $49 $-1 $21 #
shell $-1 $-1 $-1 $50 $-1 $23 #
shell $-1 $-1 $-1 $51 $-1 $25 #
shell $-1 $-1 $-1 $52 $-1 $27 #
shell $-1 $-1 $-1 $53 $-1 $29 #
shell $-1 $-1 $-1 $54 $-1 $31 #
face $-1 $55 $56 $33 $-1 $57 forward single #
face $-1 $58 $59 $34 $-1 $60 forward single #
face $-1 $61 $62 $35 $-1 $63 reversed single #
face $-1 $64 $65 $36 $-1 $66 forward single #
face $-1 $67 $68 $37 $-1 $69 forward single #
face $-1 $70 $71 $38 $-1 $72 reversed single #
face $-1 $73 $74 $39 $-1 $75 forward single #
face $-1 $76 $77 $40 $-1 $78 forward single #
face $-1 $79 $80 $41 $-1 $81 reversed single #
face $-1 $82 $83 $42 $-1 $84 forward single #
face $-1 $85 $86 $43 $-1 $87 forward single #
face $-1 $88 $89 $33 $-1 $90 reversed single #
loop $-1 $-1 $91 $44 #
plane-surface $-1 0 0 10.132369287303051 0 0 1 1 0 0 forward_v I I I I #
face $-1 $92 $93 $34 $-1 $94 forward single #
loop $-1 $-1 $95 $45 #
plane-surface $-1 0 -28.04045036334038 0 0 1 0 0 0 1 forward_v I I I I #
face $-1 $96 $97 $35 $-1 $98 reversed single #
loop $-1 $-1 $99 $46 #
plane-surface $-1 17.083802015453585 -5.7036005119955897 132.70651449004612 0 -1 0 -0.52991927123019833 0 -0.84804809178421925 forward_v I I I I #
face $-1 $100 $101 $36 $-1 $102 forward single #
loop $-1 $103 $104 $47 #
cone-surface $-1 40.908326356884757 -13.240430971830559 5.793805538410342 -0.52991927123019833 0 -0.84804809178421925 0.84804809178421925 0 -0.52991927123019833 1 I I 0 1 1 forward I I I I #
face $-1 $105 $106 $37 $-1 $107 forward single #
loop $-1 $108 $109 $48 #
cone-surface $-1 40.908326356884757 -8.718332695929579 5.793805538410342 -0.52991927123019833 0 -0.84804809178421925 0.84804809178421925 0 -0.52991927123019833 1 I I 0 1 1 forward I I I I #
face $-1 $110 $111 $38 $-1 $112 reversed single #
loop $-1 $-1 $113 $49 #
plane-surface $-1 -111.02927998781311 -7.929096853355869 69.851411168564567 0 1 0 -0.68199836817093118 0 0.7313536940579346 forward_v I I I I #
face $-1 $114 $115 $39 $-1 $116 forward single #
loop $-1 $117 $118 $50 #
cone-surface $-1 -41.622608209426389 -6.0645201251920824 5.0748179368612591 0.68199836817093118 0 -0.7313536940579346 0.3656768470289673 0 0.34099918408546559 1 I I 0 1 0.5 forward I I I I #
face $-1 $119 $120 $40 $-1 $121 forward single #
loop $-1 $122 $123 $51 #
cone-surface $-1 -41.622608209426389 -3.2676550329464007 5.0748179368612591 0.68199836817093118 0 -0.7313536940579346 0.3656768470289673 0 0.34099918408546559 1 I I 0 1 0.5 forward I I I I #
face $-1 $124 $125 $41 $-1 $126 reversed single #
loop $-1 $-1 $127 $52 #
plane-surface $-1 -111.02927998781311 14.218709906196594 69.851411168564567 0 1 0 -0.68199836817093118 0 0.7313536940579346 forward_v I I I I #
face $-1 $128 $129 $42 $-1 $130 forward single #
loop $-1 $131 $132 $53 #
cone-surface $-1 -41.622608209426389 16.08328663436038 5.0748179368612591 0.68199836817093118 0 -0.7313536940579346 0.3656768470289673 0 0.34099918408546559 1 I I 0 1 0.5 forward I I I I #
face $-1 $133 $134 $43 $-1 $135 forward single #
loop $-1 $136 $137 $54 #
cone-surface $-1 -41.622608209426389 18.880151726606062 5.0748179368612591 0.68199836817093118 0 -0.7313536940579346 0.3656768470289673 0 0.34099918408546559 1 I I 0 1 0.5 forward I I I I #
face $-1 $138 $139 $33 $-1 $140 reversed single #
loop $-1 $-1 $141 $55 #
plane-surface $-1 0 0 -10.132369287303051 0 0 1 1 0 0 forward_v I I I I #
coedge $-1 $142 $143 $144 $145 forward $56 $-1 #
face $-1 $146 $147 $34 $-1 $148 reversed single #
loop $-1 $-1 $149 $58 #
plane-surface $-1 0 0 10.132369287303051 0 0 1 1 0 0 forward_v I I I I #
coedge $-1 $150 $151 $152 $153 forward $59 $-1 #
face $-1 $154 $155 $35 $-1 $156 reversed single #
loop $-1 $-1 $157 $61 #
plane-surface $-1 -32.693386109942459 -10.979381833880069 53.046363036923026 0.52991927123019833 0 0.84804809178421925 0.84804809178421925 0 -0.52991927123019833 forward_v I I I I #
coedge $-1 $158 $159 $160 $161 reversed $62 $-1 #
face $-1 $-1 $162 $36 $-1 $163 forward single #
loop $-1 $164 $165 $64 #
cone-surface $-1 40.076631103686253 -13.240430971830559 4.4628149315135541 -0.52991927123019833 0 -0.84804809178421925 0.42402404589210962 0 -0.26495963561509916 1 I I -0.70710678118654746 0.70710678118654746 0.5 forward I I I I #
loop $-1 $-1 $166 $47 #
coedge $-1 $104 $104 $167 $168 reversed $65 $-1 #
face $-1 $-1 $169 $37 $-1 $170 forward single #
loop $-1 $171 $172 $67 #
cone-surface $-1 40.076631103686253 -8.718332695929579 4.4628149315135541 -0.52991927123019833 0 -0.84804809178421925 0.42402404589210962 0 -0.26495963561509916 1 I I -0.70710678118654746 0.70710678118654746 0.5 forward I I I I #
loop $-1 $-1 $173 $48 #
coedge $-1 $109 $109 $174 $175 reversed $68 $-1 #
face $-1 $176 $177 $38 $-1 $178 reversed single #
loop $-1 $-1 $179 $70 #
plane-surface $-1 -46.966765343180626 -4.6660875790692415 1.1527765051898911 -0.68199836817093118 0 0.7313536940579346 0.7313536940579346 0 0.68199836817093118 forward_v I I I I #
coedge $-1 $180 $181 $182 $183 reversed $71 $-1 #
face $-1 $-1 $184 $39 $-1 $185 forward single #
loop $-1 $186 $187 $73 #
cone-surface $-1 -40.922668540759126 -6.0645201251920824 4.3242245539615638 0.68199836817093118 0 -0.7313536940579346 0.18283842351448365 0 0.17049959204273279 1 I I -0.70710678118654746 0.70710678118654746 0.25 forward I I I I #
loop $-1 $-1 $188 $50 #
coedge $-1 $118 $118 $189 $190 reversed $74 $-1 #
face $-1 $-1 $191 $40 $-1 $192 forward single #
loop $-1 $193 $194 $76 #
cone-surface $-1 -40.922668540759126 -3.2676550329464007 4.3242245539615638 0.68199836817093118 0 -0.7313536940579346 0.18283842351448365 0 0.17049959204273279 1 I I -0.70710678118654746 0.70710678118654746 0.25 forward I I I I #
loop $-1 $-1 $195 $51 #
coedge $-1 $123 $123 $196 $197 reversed $77 $-1 #
face $-1 $198 $199 $41 $-1 $200 reversed single #
loop $-1 $-1 $201 $79 #
plane-surface $-1 -46.966765343180626 17.481719180483221 1.1527765051898911 -0.68199836817093118 0 0.7313536940579346 0.7313536940579346 0 0.68199836817093118 forward_v I I I I #
coedge $-1 $202 $203 $204 $205 reversed $80 $-1 #
face $-1 $-1 $206 $42 $-1 $207 forward single #
loop $-1 $208 $209 $82 #
cone-surface $-1 -40.922668540759126 16.08328663436038 4.3242245539615638 0.68199836817093118 0 -0.7313536940579346 0.18283842351448365 0 0.17049959204273279 1 I I -0.70710678118654746 0.70710678118654746 0.25 forward I I I I #
loop $-1 $-1 $210 $53 #
coedge $-1 $132 $132 $211 $212 reversed $83 $-1 #
face $-1 $-1 $213 $43 $-1 $214 forward single #
loop $-1 $215 $216 $85 #
cone-surface $-1 -40.922668540759126 18.880151726606062 4.3242245539615638 0.68199836817093118 0 -0.7313536940579346 0.18283842351448365 0 0.17049959204273279 1 I I -0.70710678118654746 0.70710678118654746 0.25 forward I I I I #
loop $-1 $-1 $217 $54 #
coedge $-1 $137 $137 $218 $219 reversed $86 $-1 #
face $-1 $220 $221 $33 $-1 $222 reversed single #
loop $-1 $-1 $223 $88 #
plane-surface $-1 0 -28.04045036334038 0 0 1 0 0 0 1 forward_v I I I I #
coedge $-1 $224 $225 $226 $227 forward $89 $-1 #
coedge $-1 $228 $91 $229 $230 forward $56 $-1 #
coedge $-1 $91 $228 $231 $232 forward $56 $-1 #
coedge $-1 $233 $234 $91 $145 reversed $235 $-1 #
edge $-1 $236 -28.04045036334038 $237 28.04045036334038 $144 $238 forward 7 unknown #
face $-1 $239 $240 $34 $-1 $241 reversed single #
loop $-1 $-1 $242 $92 #
plane-surface $-1 -46.96676534318064 0 0 1 0 0 0 0 -1 forward_v I I I I #
coedge $-1 $243 $244 $245 $246 forward $93 $-1 #
coedge $-1 $245 $95 $242 $247 reversed $59 $-1 #
coedge $-1 $95 $245 $248 $249 reversed $59 $-1 #
coedge $-1 $250 $251 $95 $153 reversed $240 $-1 #
edge $-1 $252 -46.96676534318064 $253 46.96676534318064 $152 $254 forward 7 unknown #
face $-1 $255 $256 $35 $-1 $257 reversed single #
loop $-1 $-1 $258 $96 #
plane-surface $-1 17.083802015453585 -16.255163155764549 132.70651449004612 0 1 0 0.52991927123019833 0 0.84804809178421925 forward_v I I I I #
coedge $-1 $259 $260 $261 $262 reversed $97 $-1 #
coedge $-1 $159 $99 $263 $264 reversed $62 $-1 #
coedge $-1 $99 $158 $259 $265 reversed $62 $-1 #
coedge $-1 $261 $266 $99 $161 forward $267 $-1 #
edge $-1 $268 -38.424864335453847 $269 -27.441457598028883 $160 $270 forward 7 unknown #
loop $-1 $-1 $167 $100 #
plane-surface $-1 -32.693386109942459 -10.979381833880069 53.046363036923026 0.52991927123019833 0 0.84804809178421925 0.84804809178421925 0 -0.52991927123019833 forward_v I I I I #
loop $-1 $-1 $271 $64 #
coedge $-1 $165 $165 $166 $272 reversed $101 $-1 #
coedge $-1 $166 $166 $165 $272 forward $103 $-1 #
coedge $-1 $167 $167 $104 $168 forward $162 $-1 #
edge $-1 $273 0 $273 6.2831853071796004 $167 $274 forward 7 unknown #
loop $-1 $-1 $174 $105 #
plane-surface $-1 -32.693386109942459 -10.979381833880069 53.046363036923026 0.52991927123019833 0 0.84804809178421925 0.84804809178421925 0 -0.52991927123019833 forward_v I I I I #
loop $-1 $-1 $275 $67 #
coedge $-1 $172 $172 $173 $276 reversed $106 $-1 #
coedge $-1 $173 $173 $172 $276 forward $108 $-1 #
coedge $-1 $174 $174 $109 $175 forward $169 $-1 #
edge $-1 $277 0 $277 6.2831853071796004 $174 $278 forward 7 unknown #
face $-1 $279 $280 $38 $-1 $281 forward single #
loop $-1 $-1 $282 $110 #
plane-surface $-1 -111.02927998781311 -1.4030783047826141 69.851411168564567 0 -1 0 0.68199836817093118 0 -0.7313536940579346 forward_v I I I I #
coedge $-1 $283 $284 $285 $286 reversed $111 $-1 #
coedge $-1 $181 $113 $287 $288 reversed $71 $-1 #
coedge $-1 $113 $180 $283 $289 reversed $71 $-1 #
coedge $-1 $285 $290 $113 $183 forward $280 $-1 #
edge $-1 $291 8.547874650725916 $292 18.177308764985355 $182 $293 forward 7 unknown #
loop $-1 $-1 $189 $114 #
plane-surface $-1 -46.966765343180626 -4.6660875790692415 1.1527765051898911 -0.68199836817093118 0 0.7313536940579346 0.7313536940579346 0 0.68199836817093118 forward_v I I I I #
loop $-1 $-1 $294 $73 #
coedge $-1 $187 $187 $188 $295 reversed $115 $-1 #
coedge $-1 $188 $188 $187 $295 forward $117 $-1 #
coedge $-1 $189 $189 $118 $190 forward $184 $-1 #
edge $-1 $296 0 $296 6.2831853071796004 $189 $297 forward 7 unknown #
loop $-1 $-1 $196 $119 #
plane-surface $-1 -46.966765343180626 -4.6660875790692415 1.1527765051898911 -0.68199836817093118 0 0.7313536940579346 0.7313536940579346 0 0.68199836817093118 forward_v I I I I #
loop $-1 $-1 $298 $76 #
coedge $-1 $194 $194 $195 $299 reversed $120 $-1 #
coedge $-1 $195 $195 $194 $299 forward $122 $-1 #
coedge $-1 $196 $196 $123 $197 forward $191 $-1 #
edge $-1 $300 0 $300 6.2831853071796004 $196 $301 forward 7 unknown #
face $-1 $302 $303 $41 $-1 $304 forward single #
loop $-1 $-1 $305 $124 #
plane-surface $-1 -111.02927998781311 20.744728454769849 69.851411168564567 0 -1 0 0.68199836817093118 0 -0.7313536940579346 forward_v I I I I #
coedge $-1 $306 $307 $308 $309 reversed $125 $-1 #
coedge $-1 $203 $127 $310 $311 reversed $80 $-1 #
coedge $-1 $127 $202 $306 $312 reversed $80 $-1 #
coedge $-1 $308 $313 $127 $205 forward $303 $-1 #
edge $-1 $314 8.547874650725916 $315 18.177308764985355 $204 $316 forward 7 unknown #
loop $-1 $-1 $211 $128 #
plane-surface $-1 -46.966765343180626 17.481719180483221 1.1527765051898911 -0.68199836817093118 0 0.7313536940579346 0.7313536940579346 0 0.68199836817093118 forward_v I I I I #
loop $-1 $-1 $317 $82 #
coedge $-1 $209 $209 $210 $318 reversed $129 $-1 #
coedge $-1 $210 $210 $209 $318 forward $131 $-1 #
coedge $-1 $211 $211 $132 $212 forward $206 $-1 #
edge $-1 $319 0 $319 6.2831853071796004 $211 $320 forward 7 unknown #
loop $-1 $-1 $218 $133 #
plane-surface $-1 -46.966765343180626 17.481719180483221 1.1527765051898911 -0.68199836817093118 0 0.7313536940579346 0.7313536940579346 0 0.68199836817093118 forward_v I I I I #
loop $-1 $-1 $321 $85 #
coedge $-1 $216 $216 $217 $322 reversed $134 $-1 #
coedge $-1 $217 $217 $216 $322 forward $136 $-1 #
coedge $-1 $218 $218 $137 $219 forward $213 $-1 #
edge $-1 $323 0 $323 6.2831853071796004 $218 $324 forward 7 unknown #
face $-1 $325 $326 $33 $-1 $327 reversed single #
loop $-1 $-1 $328 $138 #
plane-surface $-1 -46.96676534318064 0 0 1 0 0 0 0 -1 forward_v I I I I #
coedge $-1 $329 $231 $330 $331 forward $139 $-1 #
coedge $-1 $332 $141 $329 $333 forward $89 $-1 #
coedge $-1 $141 $332 $334 $335 forward $89 $-1 #
coedge $-1 $234 $233 $141 $227 reversed $235 $-1 #
edge $-1 $336 -28.04045036334038 $337 28.04045036334038 $226 $338 forward 7 unknown #
coedge $-1 $143 $142 $339 $340 forward $56 $-1 #
coedge $-1 $341 $342 $142 $230 reversed $326 $-1 #
edge $-1 $237 -46.96676534318064 $343 46.96676534318064 $229 $344 forward 7 unknown #
coedge $-1 $223 $345 $143 $232 reversed $139 $-1 #
edge $-1 $346 -46.96676534318064 $236 46.96676534318064 $231 $347 forward 7 unknown #
coedge $-1 $226 $144 $345 $348 forward $235 $-1 #
coedge $-1 $144 $226 $341 $349 reversed $235 $-1 #
loop $-1 $-1 $233 $325 #
vertex $-1 $145 $350 #
vertex $-1 $145 $351 #
straight-curve $-1 46.96676534318064 0 10.132369287303051 0 1 0 I I #
face $-1 $352 $353 $34 $-1 $354 reversed single #
loop $-1 $-1 $250 $146 #
plane-surface $-1 0 -33.933093967128293 6.7278659949861126 0 0 1 1 0 0 forward_v I I I I #
coedge $-1 $355 $356 $150 $247 forward $147 $-1 #
coedge $-1 $357 $149 $356 $358 forward $93 $-1 #
coedge $-1 $149 $357 $359 $360 forward $93 $-1 #
coedge $-1 $151 $150 $149 $246 reversed $59 $-1 #
edge $-1 $361 -46.96676534318064 $362 46.96676534318064 $149 $363 forward 7 unknown #
edge $-1 $362 -10.132369287303051 $253 -6.7278659949861126 $242 $364 forward 7 unknown #
coedge $-1 $359 $365 $151 $249 forward $366 $-1 #
edge $-1 $252 6.7278659949861126 $361 10.132369287303051 $248 $367 forward 7 unknown #
coedge $-1 $368 $152 $365 $369 forward $240 $-1 #
coedge $-1 $152 $368 $355 $370 forward $240 $-1 #
vertex $-1 $249 $371 #
vertex $-1 $247 $372 #
straight-curve $-1 0 -28.04045036334038 6.7278659949861126 -1 0 0 I I #
face $-1 $-1 $267 $35 $-1 $373 forward single #
loop $-1 $-1 $374 $154 #
plane-surface $-1 46.96676534318064 0 0 -1 0 0 0 0 1 forward_v I I I I #
coedge $-1 $375 $376 $377 $378 reversed $155 $-1 #
coedge $-1 $379 $157 $159 $265 forward $97 $-1 #
coedge $-1 $157 $379 $375 $380 forward $97 $-1 #
coedge $-1 $377 $160 $157 $262 forward $267 $-1 #
edge $-1 $269 0.21390959505555518 $381 10.765472238824515 $261 $382 forward 7 unknown #
coedge $-1 $383 $384 $158 $264 forward $256 $-1 #
edge $-1 $385 -63.084082333496077 $268 -56.220887957720009 $263 $386 forward 7 unknown #
edge $-1 $269 80.982134599475671 $385 93.933530686361294 $159 $387 forward 7 unknown #
coedge $-1 $160 $377 $383 $388 forward $267 $-1 #
loop $-1 $-1 $377 $255 #
vertex $-1 $264 $389 #
vertex $-1 $161 $390 #
straight-curve $-1 8.5419010077267927 -5.7036005119955897 10.13236928730305 -1 0 0 I I #
coedge $-1 $271 $271 $-1 $391 reversed $164 $-1 #
edge $-1 $392 0 $392 6.2831853071796004 $165 $393 forward 7 unknown #
vertex $-1 $168 $394 #
ellipse-curve $-1 41.475061974468161 -13.240430971830559 6.700772099415012 0.52991927123019833 0 0.84804809178421925 0.84804809178421925 0 -0.52991927123019833 1 I I #
coedge $-1 $275 $275 $-1 $395 reversed $171 $-1 #
edge $-1 $396 0 $396 6.2831853071796004 $172 $397 forward 7 unknown #
vertex $-1 $175 $398 #
ellipse-curve $-1 41.475061974468161 -8.718332695929579 6.700772099415012 0.52991927123019833 0 0.84804809178421925 0.84804809178421925 0 -0.52991927123019833 1 I I #
face $-1 $-1 $399 $38 $-1 $400 reversed single #
loop $-1 $-1 $182 $176 #
plane-surface $-1 0 0 10.132369287303051 0 0 1 1 0 0 forward_v I I I I #
coedge $-1 $401 $402 $403 $404 reversed $177 $-1 #
coedge $-1 $405 $179 $181 $289 forward $111 $-1 #
coedge $-1 $179 $405 $401 $406 forward $111 $-1 #
coedge $-1 $403 $182 $179 $286 forward $280 $-1 #
edge $-1 $292 -5.5960530638212482 $407 0.92996548475200669 $285 $408 forward 7 unknown #
coedge $-1 $409 $410 $180 $288 forward $399 $-1 #
edge $-1 $411 -33.772929079092407 $291 -24.793336296979234 $287 $412 forward 7 unknown #
edge $-1 $292 -13.166589835391772 $411 1.9479204584885432e-014 $181 $413 forward 7 unknown #
coedge $-1 $182 $403 $409 $414 forward $280 $-1 #
vertex $-1 $288 $415 #
vertex $-1 $183 $416 #
straight-curve $-1 -55.514639993906556 -7.929096853355869 10.13236928730305 1 0 0 I I #
coedge $-1 $294 $294 $-1 $417 reversed $186 $-1 #
edge $-1 $418 0 $418 6.2831853071796004 $187 $419 forward 7 unknown #
vertex $-1 $190 $420 #
ellipse-curve $-1 -42.152048286050913 -6.0645201251920824 5.6425728962464667 -0.68199836817093118 0 0.7313536940579346 0.3656768470289673 0 0.34099918408546559 1 I I #
coedge $-1 $298 $298 $-1 $421 reversed $193 $-1 #
edge $-1 $422 0 $422 6.2831853071796004 $194 $423 forward 7 unknown #
vertex $-1 $197 $424 #
ellipse-curve $-1 -42.152048286050913 -3.2676550329464007 5.6425728962464667 -0.68199836817093118 0 0.7313536940579346 0.3656768470289673 0 0.34099918408546559 1 I I #
face $-1 $-1 $425 $41 $-1 $426 reversed single #
loop $-1 $-1 $204 $198 #
plane-surface $-1 0 0 10.132369287303051 0 0 1 1 0 0 forward_v I I I I #
coedge $-1 $427 $428 $429 $430 reversed $199 $-1 #
coedge $-1 $431 $201 $203 $312 forward $125 $-1 #
coedge $-1 $201 $431 $427 $432 forward $125 $-1 #
coedge $-1 $429 $204 $201 $309 forward $303 $-1 #
edge $-1 $315 5.4778503159549832 $433 12.003868864528238 $308 $434 forward 7 unknown #
coedge $-1 $435 $436 $202 $311 forward $425 $-1 #
edge $-1 $437 -33.772929079092407 $314 -24.793336296979234 $310 $438 forward 7 unknown #
edge $-1 $315 -13.166589835391772 $437 1.9479204584885432e-014 $203 $439 forward 7 unknown #
coedge $-1 $204 $429 $435 $440 forward $303 $-1 #
vertex $-1 $205 $441 #
vertex $-1 $205 $442 #
straight-curve $-1 -55.514639993906556 14.218709906196594 10.13236928730305 1 0 0 I I #
coedge $-1 $317 $317 $-1 $443 reversed $208 $-1 #
edge $-1 $444 0 $444 6.2831853071796004 $209 $445 forward 7 unknown #
vertex $-1 $212 $446 #
ellipse-curve $-1 -42.152048286050913 16.08328663436038 5.6425728962464667 -0.68199836817093118 0 0.7313536940579346 0.3656768470289673 0 0.34099918408546559 1 I I #
coedge $-1 $321 $321 $-1 $447 reversed $215 $-1 #
edge $-1 $448 0 $448 6.2831853071796004 $216 $449 forward 7 unknown #
vertex $-1 $219 $450 #
ellipse-curve $-1 -42.152048286050913 18.880151726606062 5.6425728962464667 -0.68199836817093118 0 0.7313536940579346 0.3656768470289673 0 0.34099918408546559 1 I I #
face $-1 $-1 $235 $33 $-1 $451 reversed single #
loop $-1 $-1 $341 $220 #
plane-surface $-1 0 28.04045036334038 0 0 -1 0 0 0 -1 forward_v I I I I #
coedge $-1 $452 $339 $342 $453 forward $221 $-1 #
coedge $-1 $345 $223 $224 $333 reversed $139 $-1 #
coedge $-1 $339 $452 $223 $331 reversed $221 $-1 #
edge $-1 $346 -10.132369287303051 $454 10.132369287303051 $330 $455 forward 7 unknown #
coedge $-1 $225 $224 $452 $456 forward $89 $-1 #
edge $-1 $337 -46.96676534318064 $454 46.96676534318064 $329 $457 forward 7 unknown #
coedge $-1 $342 $341 $225 $335 reversed $326 $-1 #
edge $-1 $458 -46.96676534318064 $336 46.96676534318064 $334 $459 forward 7 unknown #
vertex $-1 $227 $460 #
vertex $-1 $348 $461 #
straight-curve $-1 46.96676534318064 0 -10.132369287303051 0 -1 0 I I #
coedge $-1 $328 $330 $228 $340 reversed $221 $-1 #
edge $-1 $343 -28.04045036334038 $346 28.04045036334038 $339 $462 forward 7 unknown #
coedge $-1 $334 $229 $234 $349 forward $326 $-1 #
coedge $-1 $229 $334 $328 $453 reversed $326 $-1 #
vertex $-1 $230 $463 #
straight-curve $-1 0 28.04045036334038 10.132369287303051 -1 0 0 I I #
coedge $-1 $231 $329 $233 $348 reversed $139 $-1 #
vertex $-1 $340 $464 #
straight-curve $-1 0 -28.04045036334038 10.132369287303051 1 0 0 I I #
edge $-1 $236 -10.132369287303051 $337 10.132369287303051 $233 $465 forward 7 unknown #
edge $-1 $237 -10.132369287303051 $336 10.132369287303051 $234 $466 forward 7 unknown #
point $-1 46.96676534318064 -28.04045036334038 10.132369287303051 #
point $-1 46.96676534318064 28.04045036334038 10.132369287303051 #
face $-1 $-1 $366 $34 $-1 $467 reversed single #
loop $-1 $-1 $468 $239 #
plane-surface $-1 0 -39.82573757091621 8.430117641144582 0 1 0 0 0 1 forward_v I I I I #
coedge $-1 $469 $242 $251 $370 reversed $147 $-1 #
coedge $-1 $242 $469 $243 $358 reversed $147 $-1 #
coedge $-1 $244 $243 $470 $471 forward $93 $-1 #
edge $-1 $362 28.04045036334038 $472 39.82573757091621 $356 $473 forward 7 unknown #
coedge $-1 $474 $248 $244 $360 reversed $366 $-1 #
edge $-1 $475 -39.82573757091621 $361 -28.04045036334038 $359 $476 forward 7 unknown #
vertex $-1 $249 $477 #
vertex $-1 $358 $478 #
straight-curve $-1 0 -28.04045036334038 10.132369287303051 -1 0 0 I I #
straight-curve $-1 -46.96676534318064 -28.04045036334038 0 0 0 -1 I I #
coedge $-1 $248 $474 $250 $369 reversed $366 $-1 #
loop $-1 $-1 $248 $352 #
straight-curve $-1 46.96676534318064 -28.04045036334038 0 0 0 1 I I #
coedge $-1 $251 $250 $479 $480 forward $240 $-1 #
edge $-1 $252 -5.8926436037879171 $481 5.8926436037879171 $365 $482 forward 7 unknown #
edge $-1 $483 -5.8926436037879171 $253 5.8926436037879171 $355 $484 forward 7 unknown #
point $-1 46.96676534318064 -28.040450363340376 6.7278659949861126 #
point $-1 -46.96676534318064 -28.040450363340376 6.7278659949861126 #
plane-surface $-1 0 0 10.132369287303051 0 0 1 1 0 0 forward_v I I I I #
coedge $-1 $384 $383 $376 $485 forward $256 $-1 #
coedge $-1 $376 $258 $260 $380 reversed $155 $-1 #
coedge $-1 $258 $375 $374 $485 reversed $155 $-1 #
coedge $-1 $266 $261 $258 $378 forward $267 $-1 #
edge $-1 $381 27.441457598028883 $486 38.424864335453847 $377 $487 forward 7 unknown #
coedge $-1 $260 $259 $384 $488 reversed $97 $-1 #
edge $-1 $489 -93.933530686361294 $381 -80.982134599475671 $375 $490 forward 7 unknown #
vertex $-1 $262 $491 #
straight-curve $-1 35.98335860575569 -5.4896909169400345 10.13236928730305 0 -1 0 I I #
coedge $-1 $374 $263 $266 $388 reversed $256 $-1 #
coedge $-1 $263 $374 $379 $488 forward $256 $-1 #
vertex $-1 $264 $492 #
straight-curve $-1 46.96676534318064 -5.7036005119955897 66.353257245023059 0 0 1 I I #
straight-curve $-1 -32.693386109942459 -5.7036005119955897 53.046363036923026 0.84804809178421925 0 -0.52991927123019833 I I #
edge $-1 $486 -16.255163155764549 $268 -5.7036005119955897 $383 $493 forward 7 unknown #
point $-1 46.96676534318064 -5.7036005119955897 10.132369287303051 #
point $-1 35.983358605755676 -5.7036005119955897 10.13236928730305 #
edge $-1 $494 1 $494 0 $271 $-1 forward 7 unknown #
vertex $-1 $272 $495 #
ellipse-curve $-1 40.341590739301353 -13.240430971830559 4.886838977405664 0.52991927123019833 0 0.84804809178421925 0.84804809178421925 0 -0.52991927123019833 1 I I #
point $-1 42.323110066252383 -13.240430971830559 6.1708528281848212 #
edge $-1 $496 1 $496 0 $275 $-1 forward 7 unknown #
vertex $-1 $276 $497 #
ellipse-curve $-1 40.341590739301353 -8.718332695929579 4.886838977405664 0.52991927123019833 0 0.84804809178421925 0.84804809178421925 0 -0.52991927123019833 1 I I #
point $-1 42.323110066252383 -8.718332695929579 6.1708528281848212 #
loop $-1 $-1 $287 $279 #
plane-surface $-1 -46.96676534318064 0 0 1 0 0 0 0 -1 forward_v I I I I #
coedge $-1 $402 $282 $284 $406 reversed $177 $-1 #
coedge $-1 $282 $401 $498 $499 reversed $177 $-1 #
coedge $-1 $290 $285 $282 $404 forward $280 $-1 #
edge $-1 $407 -18.177308764985355 $500 -8.547874650725916 $403 $501 forward 7 unknown #
coedge $-1 $284 $283 $410 $502 reversed $111 $-1 #
edge $-1 $503 -1.9479204584885432e-014 $407 13.166589835391772 $401 $504 forward 7 unknown #
vertex $-1 $286 $505 #
straight-curve $-1 -37.337331228921194 -2.3330437895346208 10.132369287303051 0 1 0 I I #
coedge $-1 $498 $287 $290 $414 reversed $399 $-1 #
coedge $-1 $287 $498 $405 $502 forward $399 $-1 #
vertex $-1 $288 $506 #
straight-curve $-1 -46.96676534318064 -7.929096853355869 34.925705584282284 0 0 1 I I #
straight-curve $-1 -46.966765343180626 -7.929096853355869 1.1527765051898911 -0.7313536940579346 0 -0.68199836817093118 I I #
edge $-1 $500 1.4030783047826141 $291 7.929096853355869 $409 $507 forward 7 unknown #
point $-1 -46.96676534318064 -7.929096853355869 10.132369287303051 #
point $-1 -37.337331228921201 -7.929096853355869 10.132369287303051 #
edge $-1 $508 1 $508 0 $294 $-1 forward 7 unknown #
vertex $-1 $295 $509 #
ellipse-curve $-1 -41.093168132801857 -6.0645201251920824 4.5070629774760471 -0.68199836817093118 0 0.7313536940579346 0.3656768470289673 0 0.34099918408546559 1 I I #
point $-1 -41.786371439021956 -6.0645201251920824 5.9835720803319354 #
edge $-1 $510 1 $510 0 $298 $-1 forward 7 unknown #
vertex $-1 $299 $511 #
ellipse-curve $-1 -41.093168132801857 -3.2676550329464007 4.5070629774760471 -0.68199836817093118 0 0.7313536940579346 0.3656768470289673 0 0.34099918408546559 1 I I #
point $-1 -41.786371439021956 -3.2676550329464007 5.9835720803319354 #
loop $-1 $-1 $310 $302 #
plane-surface $-1 -46.96676534318064 0 0 1 0 0 0 0 -1 forward_v I I I I #
coedge $-1 $428 $305 $307 $432 reversed $199 $-1 #
coedge $-1 $305 $427 $512 $513 reversed $199 $-1 #
coedge $-1 $313 $308 $305 $430 forward $303 $-1 #
edge $-1 $433 -18.177308764985355 $514 -8.547874650725916 $429 $515 forward 7 unknown #
coedge $-1 $307 $306 $436 $516 reversed $125 $-1 #
edge $-1 $517 -1.9479204584885432e-014 $433 13.166589835391772 $427 $518 forward 7 unknown #
vertex $-1 $309 $519 #
straight-curve $-1 -37.337331228921194 8.7408595902416106 10.132369287303051 0 1 0 I I #
coedge $-1 $512 $310 $313 $440 reversed $425 $-1 #
coedge $-1 $310 $512 $431 $516 forward $425 $-1 #
vertex $-1 $311 $520 #
straight-curve $-1 -46.96676534318064 14.218709906196594 34.925705584282284 0 0 1 I I #
straight-curve $-1 -46.966765343180626 14.218709906196594 1.1527765051898911 -0.7313536940579346 0 -0.68199836817093118 I I #
edge $-1 $514 -20.744728454769849 $314 -14.218709906196594 $435 $521 forward 7 unknown #
point $-1 -46.96676534318064 14.218709906196594 10.132369287303051 #
point $-1 -37.337331228921201 14.218709906196594 10.132369287303051 #
edge $-1 $522 1 $522 0 $317 $-1 forward 7 unknown #
vertex $-1 $318 $523 #
ellipse-curve $-1 -41.093168132801857 16.08328663436038 4.5070629774760471 -0.68199836817093118 0 0.7313536940579346 0.3656768470289673 0 0.34099918408546559 1 I I #
point $-1 -41.786371439021956 16.08328663436038 5.9835720803319354 #
edge $-1 $524 1 $524 0 $321 $-1 forward 7 unknown #
vertex $-1 $322 $525 #
ellipse-curve $-1 -41.093168132801857 18.880151726606062 4.5070629774760471 -0.68199836817093118 0 0.7313536940579346 0.3656768470289673 0 0.34099918408546559 1 I I #
point $-1 -41.786371439021956 18.880151726606062 5.9835720803319354 #
plane-surface $-1 46.96676534318064 0 0 -1 0 0 0 0 1 forward_v I I I I #
coedge $-1 $330 $328 $332 $456 reversed $221 $-1 #
edge $-1 $343 -10.132369287303051 $458 10.132369287303051 $342 $526 forward 7 unknown #
vertex $-1 $456 $527 #
straight-curve $-1 -46.96676534318064 -28.04045036334038 0 0 0 -1 I I #
edge $-1 $454 -28.04045036334038 $458 28.04045036334038 $452 $528 forward 7 unknown #
straight-curve $-1 0 -28.04045036334038 -10.132369287303051 -1 0 0 I I #
vertex $-1 $335 $529 #
straight-curve $-1 0 28.04045036334038 -10.132369287303051 1 0 0 I I #
point $-1 46.96676534318064 28.04045036334038 -10.132369287303051 #
point $-1 46.96676534318064 -28.04045036334038 -10.132369287303051 #
straight-curve $-1 -46.96676534318064 0 10.132369287303051 0 -1 0 I I #
point $-1 -46.96676534318064 28.04045036334038 10.132369287303051 #
point $-1 -46.96676534318064 -28.04045036334038 10.132369287303051 #
straight-curve $-1 46.96676534318064 -28.04045036334038 0 0 0 -1 I I #
straight-curve $-1 46.96676534318064 28.04045036334038 0 0 0 -1 I I #
plane-surface $-1 46.96676534318064 0 0 -1 0 0 0 0 1 forward_v I I I I #
coedge $-1 $479 $470 $469 $530 forward $353 $-1 #
coedge $-1 $356 $355 $468 $530 reversed $147 $-1 #
coedge $-1 $468 $531 $357 $471 reversed $353 $-1 #
edge $-1 $472 -46.96676534318064 $475 46.96676534318064 $470 $532 forward 7 unknown #
vertex $-1 $358 $533 #
straight-curve $-1 -46.96676534318064 0 10.132369287303051 0 -1 0 I I #
coedge $-1 $365 $359 $531 $534 forward $366 $-1 #
vertex $-1 $360 $535 #
straight-curve $-1 46.96676534318064 0 10.132369287303051 0 1 0 I I #
point $-1 46.96676534318064 -28.04045036334038 10.132369287303051 #
point $-1 -46.96676534318064 -28.04045036334038 10.132369287303051 #
coedge $-1 $531 $468 $368 $480 reversed $353 $-1 #
edge $-1 $481 -46.96676534318064 $483 46.96676534318064 $479 $536 forward 7 unknown #
vertex $-1 $534 $537 #
straight-curve $-1 46.96676534318064 -33.933093967128293 6.7278659949861126 0 -1 0 I I #
vertex $-1 $370 $538 #
straight-curve $-1 -46.96676534318064 -33.933093967128293 6.7278659949861126 0 1 0 I I #
edge $-1 $486 56.220887957720009 $489 63.084082333496077 $374 $539 forward 7 unknown #
vertex $-1 $388 $540 #
straight-curve $-1 8.5419010077267927 -16.255163155764549 10.13236928730305 1 0 0 I I #
edge $-1 $489 -10.765472238824515 $385 -0.21390959505555518 $384 $541 forward 7 unknown #
vertex $-1 $488 $542 #
straight-curve $-1 -32.693386109942459 -16.255163155764549 53.046363036923026 -0.84804809178421925 0 0.52991927123019833 I I #
point $-1 35.983358605755676 -16.255163155764549 10.13236928730305 #
point $-1 46.966765343180633 -5.7036005119955897 3.2691749115269815 #
straight-curve $-1 46.96676534318064 0 10.132369287303051 0 1 0 I I #
vertex $-1 $391 $543 #
point $-1 41.189638831085574 -13.240430971830559 4.3569197061754652 #
vertex $-1 $395 $544 #
point $-1 41.189638831085574 -8.718332695929579 4.3569197061754652 #
coedge $-1 $410 $409 $402 $499 forward $399 $-1 #
edge $-1 $500 24.793336296979234 $503 33.772929079092407 $498 $545 forward 7 unknown #
vertex $-1 $414 $546 #
straight-curve $-1 -55.514639993906556 -1.4030783047826141 10.13236928730305 -1 0 0 I I #
edge $-1 $503 -0.92996548475200669 $411 5.5960530638212482 $410 $547 forward 7 unknown #
vertex $-1 $502 $548 #
straight-curve $-1 -46.966765343180626 -1.4030783047826141 1.1527765051898911 0.7313536940579346 0 0.68199836817093118 I I #
point $-1 -37.337331228921201 -1.4030783047826141 10.132369287303051 #
point $-1 -46.96676534318064 -7.929096853355869 1.1527765051898777 #
straight-curve $-1 -46.96676534318064 0 10.132369287303051 0 -1 0 I I #
vertex $-1 $417 $549 #
point $-1 -40.727491285772892 -6.0645201251920824 4.8480621615615132 #
vertex $-1 $421 $550 #
point $-1 -40.727491285772892 -3.2676550329464007 4.8480621615615132 #
coedge $-1 $436 $435 $428 $513 forward $425 $-1 #
edge $-1 $514 24.793336296979234 $517 33.772929079092407 $512 $551 forward 7 unknown #
vertex $-1 $440 $552 #
straight-curve $-1 -55.514639993906556 20.744728454769849 10.13236928730305 -1 0 0 I I #
edge $-1 $517 -12.003868864528238 $437 -5.4778503159549832 $436 $553 forward 7 unknown #
vertex $-1 $516 $554 #
straight-curve $-1 -46.966765343180626 20.744728454769849 1.1527765051898911 0.7313536940579346 0 0.68199836817093118 I I #
point $-1 -37.337331228921201 20.744728454769849 10.132369287303051 #
point $-1 -46.96676534318064 14.218709906196594 1.1527765051898777 #
straight-curve $-1 -46.96676534318064 0 10.132369287303051 0 -1 0 I I #
vertex $-1 $443 $555 #
point $-1 -40.727491285772892 16.08328663436038 4.8480621615615132 #
vertex $-1 $447 $556 #
point $-1 -40.727491285772892 18.880151726606062 4.8480621615615132 #
straight-curve $-1 -46.96676534318064 28.04045036334038 0 0 0 -1 I I #
point $-1 -46.96676534318064 -28.04045036334038 -10.132369287303051 #
straight-curve $-1 -46.96676534318064 0 -10.132369287303051 0 1 0 I I #
point $-1 -46.96676534318064 28.04045036334038 -10.132369287303051 #
edge $-1 $472 -1.7022516461584694 $483 1.7022516461584694 $469 $557 forward 7 unknown #
coedge $-1 $470 $479 $474 $534 reversed $353 $-1 #
straight-curve $-1 0 -39.82573757091621 10.132369287303051 1 0 0 I I #
point $-1 -46.96676534318064 -39.82573757091621 10.132369287303051 #
edge $-1 $475 -1.7022516461584694 $481 1.7022516461584694 $474 $558 forward 7 unknown #
point $-1 46.96676534318064 -39.82573757091621 10.132369287303051 #
straight-curve $-1 0 -39.82573757091621 6.7278659949861126 -1 0 0 I I #
point $-1 46.96676534318064 -39.82573757091621 6.7278659949861126 #
point $-1 -46.96676534318064 -39.82573757091621 6.7278659949861126 #
straight-curve $-1 46.96676534318064 -16.255163155764549 66.353257245023059 0 0 -1 I I #
point $-1 46.96676534318064 -16.255163155764549 10.132369287303051 #
straight-curve $-1 46.966765343180647 -5.4896909169400345 3.2691749115269744 0 1 0 I I #
point $-1 46.966765343180633 -16.255163155764549 3.2691749115269815 #
point $-1 39.811671468071154 -13.240430971830559 4.0387908856214443 #
point $-1 39.811671468071154 -8.718332695929579 4.0387908856214443 #
straight-curve $-1 -46.96676534318064 -1.4030783047826141 34.925705584282284 0 0 -1 I I #
point $-1 -46.96676534318064 -1.4030783047826141 10.132369287303051 #
straight-curve $-1 -46.96676534318064 -2.3330437895346208 1.1527765051898808 0 -1 0 I I #
point $-1 -46.96676534318064 -1.4030783047826141 1.1527765051898777 #
point $-1 -40.752168948716395 -6.0645201251920824 4.1413861304470805 #
point $-1 -40.752168948716395 -3.2676550329464007 4.1413861304470805 #
straight-curve $-1 -46.96676534318064 20.744728454769849 34.925705584282284 0 0 -1 I I #
point $-1 -46.96676534318064 20.744728454769849 10.132369287303051 #
straight-curve $-1 -46.96676534318064 8.7408595902416106 1.1527765051898808 0 -1 0 I I #
point $-1 -46.96676534318064 20.744728454769849 1.1527765051898777 #
point $-1 -40.752168948716395 16.08328663436038 4.1413861304470805 #
point $-1 -40.752168948716395 18.880151726606062 4.1413861304470805 #
straight-curve $-1 -46.96676534318064 -39.82573757091621 8.430117641144582 0 0 -1 I I #
straight-curve $-1 46.96676534318064 -39.82573757091621 8.430117641144582 0 0 -1 I I #
End-of-ACIS-data 