500 0 11 0           
7 Unknown 11 ACIS 5.0 NT 24 Thu Mar 25 15:31:07 1999 
-1 9.9999999999999995e-007 1e-010 
body $-1 $11 $-1 $12 #
body $-1 $13 $-1 $14 #
body $-1 $15 $-1 $16 #
body $-1 $17 $-1 $18 #
body $-1 $19 $-1 $20 #
body $-1 $21 $-1 $22 #
body $-1 $23 $-1 $24 #
body $-1 $25 $-1 $26 #
body $-1 $27 $-1 $28 #
body $-1 $29 $-1 $30 #
body $-1 $31 $-1 $32 #
lump $-1 $-1 $33 $0 #
transform $-1 1 0 0 0 1 0 0 0 1 63.966795861690116 34.862264896305255 7.3893063801330383 1 rotate no_reflect no_shear #
lump $-1 $-1 $34 $1 #
transform $-1 1 0 0 0 1 0 0 0 1 63.966795861690116 34.862264896305255 7.3893063801330383 1 rotate no_reflect no_shear #
lump $-1 $-1 $35 $2 #
transform $-1 1 0 0 0 1 0 0 0 1 63.966795861690116 34.862264896305255 7.3893063801330383 1 rotate no_reflect no_shear #
lump $-1 $-1 $36 $3 #
transform $-1 1 0 0 0 1 0 0 0 1 63.966795861690116 34.862264896305255 7.3893063801330383 1 rotate no_reflect no_shear #
lump $-1 $-1 $37 $4 #
transform $-1 1 0 0 0 1 0 0 0 1 63.966795861690116 34.862264896305255 7.3893063801330383 1 rotate no_reflect no_shear #
lump $-1 $-1 $38 $5 #
transform $-1 1 0 0 0 1 0 0 0 1 63.966795861690116 34.862264896305255 7.3893063801330383 1 rotate no_reflect no_shear #
lump $-1 $-1 $39 $6 #
transform $-1 1 0 0 0 1 0 0 0 1 63.966795861690116 34.862264896305255 7.3893063801330383 1 rotate no_reflect no_shear #
lump $-1 $-1 $40 $7 #
transform $-1 1 0 0 0 1 0 0 0 1 63.966795861690116 34.862264896305255 7.3893063801330383 1 rotate no_reflect no_shear #
lump $-1 $-1 $41 $8 #
transform $-1 1 0 0 0 1 0 0 0 1 63.966795861690116 34.862264896305255 7.3893063801330383 1 rotate no_reflect no_shear #
lump $-1 $-1 $42 $9 #
transform $-1 1 0 0 0 1 0 0 0 1 63.966795861690116 34.862264896305255 7.3893063801330383 1 rotate no_reflect no_shear #
lump $-1 $-1 $43 $10 #
transform $-1 1 0 0 0 1 0 0 0 1 63.966795861690116 34.862264896305255 7.3893063801330383 1 rotate no_reflect no_shear #
shell $-1 $-1 $-1 $44 $-1 $11 #
shell $-1 $-1 $-1 $45 $-1 $13 #
shell $-1 $-1 $-1 $46 $-1 $15 #
shell $-1 $-1 $-1 $47 $-1 $17 #
shell $-1 $-1 $-1 $48 $-1 $19 #
shell $-1 $-1 $-1 $49 $-1 $21 #
shell $-1 $-1 $-1 $50 $-1 $23 #
shell $-1 $-1 $-1 $51 $-1 $25 #
shell $-1 $-1 $-1 $52 $-1 $27 #
shell $-1 $-1 $-1 $53 $-1 $29 #
shell $-1 $-1 $-1 $54 $-1 $31 #
face $-1 $55 $56 $33 $-1 $57 forward single #
face $-1 $58 $59 $34 $-1 $60 reversed single #
face $-1 $61 $62 $35 $-1 $63 reversed single #
face $-1 $64 $65 $36 $-1 $66 reversed single #
face $-1 $67 $68 $37 $-1 $69 forward single #
face $-1 $70 $71 $38 $-1 $72 reversed single #
face $-1 $73 $74 $39 $-1 $75 forward single #
face $-1 $76 $77 $40 $-1 $78 reversed single #
face $-1 $79 $80 $41 $-1 $81 forward single #
face $-1 $82 $83 $42 $-1 $84 reversed single #
face $-1 $85 $86 $43 $-1 $87 forward single #
face $-1 $88 $89 $33 $-1 $90 reversed single #
loop $-1 $-1 $91 $44 #
plane-surface $-1 0 0 7.3893063801330383 0 0 1 1 0 0 forward_v I I I I #
face $-1 $92 $93 $34 $-1 $94 reversed single #
loop $-1 $-1 $95 $45 #
plane-surface $-1 0 -30.859665683490526 4.0848091081630242 0 0 1 1 0 0 forward_v I I I I #
face $-1 $96 $97 $35 $-1 $98 reversed single #
loop $-1 $-1 $99 $46 #
plane-surface $-1 0 30.859665683490526 4.0848091081630242 0 0 1 1 0 0 forward_v I I I I #
face $-1 $100 $101 $36 $-1 $102 reversed single #
loop $-1 $-1 $103 $47 #
plane-surface $-1 51.346078424997472 -13.651613673082348 182.11318740980246 0 -1 0 -0.6560590369687036 0 -0.75470957328743171 forward_v I I I I #
face $-1 $104 $105 $37 $-1 $106 forward single #
loop $-1 $107 $108 $48 #
cone-surface $-1 59.120006061586807 -20.254340071879071 2.7450848566475412 -0.6560590369687036 0 -0.75470957328743171 1.5094191465748634 0 -1.3121180739374072 1 I I 0 1 2 forward I I I I #
face $-1 $109 $110 $38 $-1 $111 reversed single #
loop $-1 $-1 $112 $49 #
plane-surface $-1 51.346078424997472 13.205452797593448 182.11318740980246 0 -1 0 -0.6560590369687036 0 -0.75470957328743171 forward_v I I I I #
face $-1 $113 $114 $39 $-1 $115 forward single #
loop $-1 $116 $117 $50 #
cone-surface $-1 59.120006061586807 6.602726398796726 2.7450848566475412 -0.6560590369687036 0 -0.75470957328743171 1.5094191465748634 0 -1.3121180739374072 1 I I 0 1 2 forward I I I I #
face $-1 $118 $119 $40 $-1 $120 reversed single #
loop $-1 $-1 $121 $51 #
plane-surface $-1 -63.96679586169013 -20.254340071879071 1.6284920091335096 -0.6560590369687036 0 0.75470957328743171 0.75470957328743171 0 0.6560590369687036 forward_v I I I I #
face $-1 $122 $123 $41 $-1 $124 forward single #
loop $-1 $125 $126 $52 #
cone-surface $-1 -59.120006061586807 -20.254340071879071 2.7450848566475439 0.6560590369687036 0 -0.75470957328743171 1.5094191465748634 0 1.3121180739374072 1 I I 0 1 2 forward I I I I #
face $-1 $127 $128 $42 $-1 $129 reversed single #
loop $-1 $-1 $130 $53 #
plane-surface $-1 -147.89878484367827 3.5527136788005009e-015 98.181198427814309 0 1 0 -0.6560590369687036 0 0.75470957328743171 forward_v I I I I #
face $-1 $131 $132 $43 $-1 $133 forward single #
loop $-1 $134 $135 $54 #
cone-surface $-1 -59.120006061586807 6.602726398796726 2.7450848566475439 0.6560590369687036 0 -0.75470957328743171 1.5094191465748634 0 1.3121180739374072 1 I I 0 1 2 forward I I I I #
face $-1 $136 $137 $33 $-1 $138 reversed single #
loop $-1 $-1 $139 $55 #
plane-surface $-1 0 0 -7.3893063801330383 0 0 1 1 0 0 forward_v I I I I #
coedge $-1 $140 $141 $142 $143 forward $56 $-1 #
face $-1 $144 $145 $34 $-1 $146 reversed single #
loop $-1 $-1 $147 $58 #
plane-surface $-1 0 -26.857066470675797 5.7370577441480313 0 -1 0 0 0 -1 forward_v I I I I #
coedge $-1 $148 $149 $150 $151 reversed $59 $-1 #
face $-1 $152 $153 $35 $-1 $154 forward single #
loop $-1 $-1 $155 $61 #
plane-surface $-1 0 26.857066470675797 5.7370577441480313 0 1 0 0 0 1 forward_v I I I I #
coedge $-1 $156 $157 $158 $159 reversed $62 $-1 #
face $-1 $160 $161 $36 $-1 $162 forward single #
loop $-1 $-1 $163 $64 #
plane-surface $-1 -32.585910556990669 -20.254340071879071 85.560480991121665 0.6560590369687036 0 0.75470957328743171 0.75470957328743171 0 -0.6560590369687036 forward_v I I I I #
coedge $-1 $164 $165 $166 $167 reversed $65 $-1 #
face $-1 $-1 $168 $37 $-1 $169 forward single #
loop $-1 $170 $171 $67 #
cone-surface $-1 56.930686579901575 -20.254340071879071 0.22656094537438509 -0.6560590369687036 0 -0.75470957328743171 0.75470957328743171 0 -0.6560590369687036 1 I I -0.70710678118654746 0.70710678118654746 1 forward I I I I #
loop $-1 $-1 $172 $48 #
coedge $-1 $108 $108 $173 $174 reversed $68 $-1 #
face $-1 $175 $176 $38 $-1 $177 reversed single #
loop $-1 $-1 $178 $70 #
plane-surface $-1 -32.585910556990669 6.602726398796726 85.560480991121665 0.6560590369687036 0 0.75470957328743171 0.75470957328743171 0 -0.6560590369687036 forward_v I I I I #
coedge $-1 $179 $180 $181 $182 reversed $71 $-1 #
face $-1 $-1 $183 $39 $-1 $184 forward single #
loop $-1 $185 $186 $73 #
cone-surface $-1 56.930686579901575 6.602726398796726 0.22656094537438509 -0.6560590369687036 0 -0.75470957328743171 0.75470957328743171 0 -0.6560590369687036 1 I I -0.70710678118654746 0.70710678118654746 1 forward I I I I #
loop $-1 $-1 $187 $50 #
coedge $-1 $117 $117 $188 $189 reversed $74 $-1 #
face $-1 $190 $191 $40 $-1 $192 reversed single #
loop $-1 $-1 $193 $76 #
plane-surface $-1 -147.89878484367827 -13.651613673082348 98.181198427814309 0 -1 0 0.6560590369687036 0 -0.75470957328743171 forward_v I I I I #
coedge $-1 $194 $195 $196 $197 reversed $77 $-1 #
face $-1 $-1 $198 $41 $-1 $199 forward single #
loop $-1 $200 $201 $79 #
cone-surface $-1 -56.930686579901575 -20.254340071879071 0.22656094537438776 0.6560590369687036 0 -0.75470957328743171 0.75470957328743171 0 0.6560590369687036 1 I I -0.70710678118654746 0.70710678118654746 1 forward I I I I #
loop $-1 $-1 $202 $52 #
coedge $-1 $126 $126 $203 $204 reversed $80 $-1 #
face $-1 $205 $206 $42 $-1 $207 reversed single #
loop $-1 $-1 $208 $82 #
plane-surface $-1 -63.96679586169013 6.602726398796726 1.6284920091335096 -0.6560590369687036 0 0.75470957328743171 0.75470957328743171 0 0.6560590369687036 forward_v I I I I #
coedge $-1 $209 $210 $211 $212 reversed $83 $-1 #
face $-1 $-1 $213 $43 $-1 $214 forward single #
loop $-1 $215 $216 $85 #
cone-surface $-1 -56.930686579901575 6.602726398796726 0.22656094537438776 0.6560590369687036 0 -0.75470957328743171 0.75470957328743171 0 0.6560590369687036 1 I I -0.70710678118654746 0.70710678118654746 1 forward I I I I #
loop $-1 $-1 $217 $54 #
coedge $-1 $135 $135 $218 $219 reversed $86 $-1 #
face $-1 $220 $221 $33 $-1 $222 reversed single #
loop $-1 $-1 $223 $88 #
plane-surface $-1 0 -34.862264896305255 0 0 1 0 0 0 1 forward_v I I I I #
coedge $-1 $224 $225 $226 $227 forward $89 $-1 #
coedge $-1 $228 $91 $229 $230 forward $56 $-1 #
coedge $-1 $91 $228 $231 $232 forward $56 $-1 #
coedge $-1 $233 $234 $91 $143 reversed $235 $-1 #
edge $-1 $236 -34.862264896305255 $237 34.862264896305255 $142 $238 forward 7 unknown #
face $-1 $239 $240 $34 $-1 $241 reversed single #
loop $-1 $-1 $242 $92 #
plane-surface $-1 -63.966795861690116 0 0 1 0 0 0 0 -1 forward_v I I I I #
coedge $-1 $243 $244 $245 $246 reversed $93 $-1 #
coedge $-1 $247 $95 $248 $249 reversed $59 $-1 #
coedge $-1 $95 $247 $243 $250 forward $59 $-1 #
coedge $-1 $245 $251 $95 $151 forward $252 $-1 #
edge $-1 $253 -19.432432054559992 $254 -11.427233628930534 $150 $255 forward 7 unknown #
face $-1 $256 $257 $35 $-1 $258 reversed single #
loop $-1 $-1 $259 $96 #
plane-surface $-1 0 0 7.3893063801330383 0 0 1 1 0 0 forward_v I I I I #
coedge $-1 $260 $261 $262 $263 reversed $97 $-1 #
coedge $-1 $264 $99 $260 $265 forward $62 $-1 #
coedge $-1 $99 $264 $266 $267 reversed $62 $-1 #
coedge $-1 $268 $269 $99 $159 forward $257 $-1 #
edge $-1 $270 11.427233628930534 $271 19.432432054559992 $158 $272 forward 7 unknown #
face $-1 $273 $274 $36 $-1 $275 forward single #
loop $-1 $-1 $166 $100 #
plane-surface $-1 0 0 7.3893063801330383 0 0 1 1 0 0 forward_v I I I I #
coedge $-1 $276 $277 $278 $279 reversed $101 $-1 #
coedge $-1 $165 $103 $280 $281 reversed $65 $-1 #
coedge $-1 $103 $164 $276 $282 reversed $65 $-1 #
coedge $-1 $278 $283 $103 $167 forward $161 $-1 #
edge $-1 $284 -38.29375664919138 $285 -31.666697938417855 $166 $286 forward 7 unknown #
loop $-1 $-1 $173 $104 #
plane-surface $-1 -32.585910556990669 -20.254340071879071 85.560480991121665 0.6560590369687036 0 0.75470957328743171 0.75470957328743171 0 -0.6560590369687036 forward_v I I I I #
loop $-1 $-1 $287 $67 #
coedge $-1 $171 $171 $172 $288 reversed $105 $-1 #
coedge $-1 $172 $172 $171 $288 forward $107 $-1 #
coedge $-1 $173 $173 $108 $174 forward $168 $-1 #
edge $-1 $289 0 $289 6.2831853071796004 $173 $290 forward 7 unknown #
face $-1 $291 $292 $38 $-1 $293 reversed single #
loop $-1 $-1 $294 $109 #
plane-surface $-1 51.346078424997472 3.5527136788005009e-015 182.11318740980246 0 1 0 0.6560590369687036 0 0.75470957328743171 forward_v I I I I #
coedge $-1 $295 $296 $297 $298 reversed $110 $-1 #
coedge $-1 $180 $112 $299 $300 reversed $71 $-1 #
coedge $-1 $112 $179 $295 $301 reversed $71 $-1 #
coedge $-1 $297 $302 $112 $182 forward $303 $-1 #
edge $-1 $304 -38.29375664919138 $305 -31.666697938417855 $181 $306 forward 7 unknown #
loop $-1 $-1 $188 $113 #
plane-surface $-1 -32.585910556990669 6.602726398796726 85.560480991121665 0.6560590369687036 0 0.75470957328743171 0.75470957328743171 0 -0.6560590369687036 forward_v I I I I #
loop $-1 $-1 $307 $73 #
coedge $-1 $186 $186 $187 $308 reversed $114 $-1 #
coedge $-1 $187 $187 $186 $308 forward $116 $-1 #
coedge $-1 $188 $188 $117 $189 forward $183 $-1 #
edge $-1 $309 0 $309 6.2831853071796004 $188 $310 forward 7 unknown #
face $-1 $311 $312 $40 $-1 $313 forward single #
loop $-1 $-1 $314 $118 #
plane-surface $-1 -63.966795861690116 0 0 1 0 0 0 0 -1 forward_v I I I I #
coedge $-1 $315 $316 $317 $318 reversed $119 $-1 #
coedge $-1 $319 $121 $320 $321 reversed $77 $-1 #
coedge $-1 $121 $319 $315 $322 forward $77 $-1 #
coedge $-1 $317 $323 $121 $197 forward $312 $-1 #
edge $-1 $324 -16.729896434736258 $325 -3.5244436371428129 $196 $326 forward 7 unknown #
loop $-1 $-1 $203 $122 #
plane-surface $-1 -63.96679586169013 -20.254340071879071 1.6284920091335096 -0.6560590369687036 0 0.75470957328743171 0.75470957328743171 0 0.6560590369687036 forward_v I I I I #
loop $-1 $-1 $327 $79 #
coedge $-1 $201 $201 $202 $328 reversed $123 $-1 #
coedge $-1 $202 $202 $201 $328 forward $125 $-1 #
coedge $-1 $203 $203 $126 $204 forward $198 $-1 #
edge $-1 $329 0 $329 6.2831853071796004 $203 $330 forward 7 unknown #
face $-1 $331 $332 $42 $-1 $333 forward single #
loop $-1 $-1 $334 $127 #
plane-surface $-1 -147.89878484367827 13.205452797593448 98.181198427814309 0 -1 0 0.6560590369687036 0 -0.75470957328743171 forward_v I I I I #
coedge $-1 $335 $336 $337 $338 reversed $128 $-1 #
coedge $-1 $210 $130 $339 $340 reversed $83 $-1 #
coedge $-1 $130 $209 $335 $341 reversed $83 $-1 #
coedge $-1 $337 $342 $130 $212 forward $332 $-1 #
edge $-1 $343 9.9825965601490196 $344 16.609655270922559 $211 $345 forward 7 unknown #
loop $-1 $-1 $218 $131 #
plane-surface $-1 -63.96679586169013 6.602726398796726 1.6284920091335096 -0.6560590369687036 0 0.75470957328743171 0.75470957328743171 0 0.6560590369687036 forward_v I I I I #
loop $-1 $-1 $346 $85 #
coedge $-1 $216 $216 $217 $347 reversed $132 $-1 #
coedge $-1 $217 $217 $216 $347 forward $134 $-1 #
coedge $-1 $218 $218 $135 $219 forward $213 $-1 #
edge $-1 $348 0 $348 6.2831853071796004 $218 $349 forward 7 unknown #
face $-1 $350 $351 $33 $-1 $352 reversed single #
loop $-1 $-1 $353 $136 #
plane-surface $-1 -63.966795861690116 0 0 1 0 0 0 0 -1 forward_v I I I I #
coedge $-1 $354 $231 $355 $356 forward $137 $-1 #
coedge $-1 $357 $139 $354 $358 forward $89 $-1 #
coedge $-1 $139 $357 $359 $360 forward $89 $-1 #
coedge $-1 $234 $233 $139 $227 reversed $235 $-1 #
edge $-1 $361 -34.862264896305255 $362 34.862264896305255 $226 $363 forward 7 unknown #
coedge $-1 $141 $140 $364 $365 forward $56 $-1 #
coedge $-1 $366 $367 $140 $230 reversed $351 $-1 #
edge $-1 $237 -63.966795861690116 $368 63.966795861690116 $229 $369 forward 7 unknown #
coedge $-1 $223 $370 $141 $232 reversed $137 $-1 #
edge $-1 $371 -63.966795861690116 $236 63.966795861690116 $231 $372 forward 7 unknown #
coedge $-1 $226 $142 $370 $373 forward $235 $-1 #
coedge $-1 $142 $226 $366 $374 reversed $235 $-1 #
loop $-1 $-1 $233 $350 #
vertex $-1 $143 $375 #
vertex $-1 $143 $376 #
straight-curve $-1 63.966795861690116 0 7.3893063801330383 0 1 0 I I #
face $-1 $377 $378 $34 $-1 $379 forward single #
loop $-1 $-1 $248 $144 #
plane-surface $-1 0 -34.862264896305255 0 0 1 0 0 0 1 forward_v I I I I #
coedge $-1 $380 $381 $382 $383 forward $145 $-1 #
coedge $-1 $382 $147 $149 $250 reversed $93 $-1 #
coedge $-1 $147 $382 $384 $385 reversed $93 $-1 #
coedge $-1 $386 $150 $147 $246 forward $252 $-1 #
edge $-1 $254 1.2162802360890086 $387 4.5207775080590231 $245 $388 forward 7 unknown #
coedge $-1 $149 $148 $380 $389 reversed $59 $-1 #
coedge $-1 $390 $391 $148 $249 forward $240 $-1 #
edge $-1 $392 -63.966795861690116 $253 63.966795861690116 $248 $393 forward 7 unknown #
edge $-1 $394 -63.966795861690116 $254 63.966795861690116 $243 $395 forward 7 unknown #
coedge $-1 $150 $386 $390 $396 forward $252 $-1 #
loop $-1 $-1 $245 $377 #
vertex $-1 $249 $397 #
vertex $-1 $151 $398 #
straight-curve $-1 63.966795861690116 -15.429832841745263 4.0848091081630242 0 1 0 I I #
face $-1 $399 $400 $35 $-1 $401 reversed single #
loop $-1 $-1 $269 $152 #
plane-surface $-1 63.966795861690116 0 0 -1 0 0 0 0 1 forward_v I I I I #
coedge $-1 $402 $403 $261 $404 forward $153 $-1 #
coedge $-1 $405 $155 $156 $265 reversed $97 $-1 #
coedge $-1 $155 $405 $259 $404 reversed $97 $-1 #
coedge $-1 $406 $407 $155 $263 forward $400 $-1 #
edge $-1 $408 1.2162802360890086 $409 4.5207775080590231 $262 $410 forward 7 unknown #
coedge $-1 $157 $156 $407 $411 reversed $62 $-1 #
edge $-1 $270 -63.966795861690116 $408 63.966795861690116 $260 $412 forward 7 unknown #
coedge $-1 $413 $414 $157 $267 forward $415 $-1 #
edge $-1 $271 -63.966795861690116 $416 63.966795861690116 $266 $417 forward 7 unknown #
coedge $-1 $418 $158 $414 $419 reversed $257 $-1 #
coedge $-1 $158 $418 $405 $420 forward $257 $-1 #
vertex $-1 $159 $421 #
vertex $-1 $267 $422 #
straight-curve $-1 63.966795861690116 15.429832841745263 4.0848091081630242 0 1 0 I I #
face $-1 $-1 $423 $36 $-1 $424 reversed single #
loop $-1 $-1 $425 $160 #
plane-surface $-1 0 -26.857066470675797 5.7370577441480313 0 -1 0 0 0 -1 forward_v I I I I #
coedge $-1 $426 $163 $165 $282 forward $101 $-1 #
coedge $-1 $163 $426 $425 $427 forward $101 $-1 #
coedge $-1 $428 $166 $163 $279 forward $161 $-1 #
edge $-1 $285 3.5244436371428129 $429 16.729896434736258 $278 $430 forward 7 unknown #
coedge $-1 $431 $432 $164 $281 forward $423 $-1 #
edge $-1 $433 -89.428101695767708 $284 -83.667287324768196 $280 $434 forward 7 unknown #
edge $-1 $285 119.15265274322817 $433 127.93359172338022 $165 $435 forward 7 unknown #
coedge $-1 $166 $428 $431 $436 forward $161 $-1 #
vertex $-1 $281 $437 #
vertex $-1 $167 $438 #
straight-curve $-1 25.673039212498736 -13.651613673082348 7.3893063801330356 -1 0 0 I I #
coedge $-1 $287 $287 $-1 $439 reversed $170 $-1 #
edge $-1 $440 0 $440 6.2831853071796004 $171 $441 forward 7 unknown #
vertex $-1 $174 $442 #
ellipse-curve $-1 60.653266506303346 -20.254340071879071 4.508899194633285 0.6560590369687036 0 0.75470957328743171 1.5094191465748634 0 -1.3121180739374072 1 I I #
face $-1 $-1 $303 $38 $-1 $443 forward single #
loop $-1 $-1 $444 $175 #
plane-surface $-1 63.966795861690116 0 0 -1 0 0 0 0 1 forward_v I I I I #
coedge $-1 $445 $446 $447 $448 reversed $176 $-1 #
coedge $-1 $449 $178 $180 $301 forward $110 $-1 #
coedge $-1 $178 $449 $445 $450 forward $110 $-1 #
coedge $-1 $447 $181 $178 $298 forward $303 $-1 #
edge $-1 $305 -9.9040895981950854 $451 3.3013631993983594 $297 $452 forward 7 unknown #
coedge $-1 $453 $454 $179 $300 forward $292 $-1 #
edge $-1 $455 -89.428101695767708 $304 -83.667287324768196 $299 $456 forward 7 unknown #
edge $-1 $305 119.15265274322817 $455 127.93359172338022 $180 $457 forward 7 unknown #
coedge $-1 $181 $447 $453 $458 forward $303 $-1 #
loop $-1 $-1 $447 $291 #
vertex $-1 $300 $459 #
vertex $-1 $182 $460 #
straight-curve $-1 25.673039212498736 13.205452797593448 7.3893063801330356 -1 0 0 I I #
coedge $-1 $307 $307 $-1 $461 reversed $185 $-1 #
edge $-1 $462 0 $462 6.2831853071796004 $186 $463 forward 7 unknown #
vertex $-1 $189 $464 #
ellipse-curve $-1 60.653266506303346 6.602726398796726 4.508899194633285 0.6560590369687036 0 0.75470957328743171 1.5094191465748634 0 -1.3121180739374072 1 I I #
face $-1 $-1 $465 $40 $-1 $466 forward single #
loop $-1 $-1 $317 $190 #
plane-surface $-1 0 0 7.3893063801330383 0 0 1 1 0 0 forward_v I I I I #
coedge $-1 $467 $468 $316 $469 forward $191 $-1 #
coedge $-1 $316 $193 $195 $322 reversed $119 $-1 #
coedge $-1 $193 $315 $314 $469 reversed $119 $-1 #
coedge $-1 $470 $196 $193 $318 forward $312 $-1 #
edge $-1 $325 -16.609655270922559 $471 -9.9825965601490196 $317 $472 forward 7 unknown #
coedge $-1 $195 $194 $467 $473 reversed $77 $-1 #
coedge $-1 $474 $475 $194 $321 forward $465 $-1 #
edge $-1 $476 -25.48590744438831 $324 -16.704968464236241 $320 $477 forward 7 unknown #
edge $-1 $478 1.888283279974768e-014 $325 8.7809389801520847 $315 $479 forward 7 unknown #
coedge $-1 $196 $470 $474 $480 forward $312 $-1 #
vertex $-1 $321 $481 #
vertex $-1 $197 $482 #
straight-curve $-1 -57.339737150916577 -10.127170035939535 7.389306380133041 0 1 0 I I #
coedge $-1 $327 $327 $-1 $483 reversed $200 $-1 #
edge $-1 $484 0 $484 6.2831853071796004 $201 $485 forward 7 unknown #
vertex $-1 $204 $486 #
ellipse-curve $-1 -60.653266506303339 -20.254340071879071 4.5088991946332815 -0.6560590369687036 0 0.75470957328743171 1.5094191465748634 0 1.3121180739374072 1 I I #
face $-1 $-1 $487 $42 $-1 $488 reversed single #
loop $-1 $-1 $211 $205 #
plane-surface $-1 0 0 7.3893063801330383 0 0 1 1 0 0 forward_v I I I I #
coedge $-1 $489 $490 $491 $492 reversed $206 $-1 #
coedge $-1 $493 $208 $210 $341 forward $128 $-1 #
coedge $-1 $208 $493 $489 $494 forward $128 $-1 #
coedge $-1 $491 $211 $208 $338 forward $332 $-1 #
edge $-1 $344 -3.3013631993983594 $495 9.9040895981950854 $337 $496 forward 7 unknown #
coedge $-1 $497 $498 $209 $340 forward $487 $-1 #
edge $-1 $499 -47.462107204773631 $343 -41.701292833774119 $339 $500 forward 7 unknown #
edge $-1 $344 -8.7809389801520847 $499 -1.888283279974768e-014 $210 $501 forward 7 unknown #
coedge $-1 $211 $491 $497 $502 forward $332 $-1 #
vertex $-1 $340 $503 #
vertex $-1 $212 $504 #
straight-curve $-1 -73.949392421839136 3.5527136788005009e-015 7.3893063801330356 1 0 0 I I #
coedge $-1 $346 $346 $-1 $505 reversed $215 $-1 #
edge $-1 $506 0 $506 6.2831853071796004 $216 $507 forward 7 unknown #
vertex $-1 $219 $508 #
ellipse-curve $-1 -60.653266506303339 6.602726398796726 4.5088991946332815 -0.6560590369687036 0 0.75470957328743171 1.5094191465748634 0 1.3121180739374072 1 I I #
face $-1 $-1 $235 $33 $-1 $509 reversed single #
loop $-1 $-1 $366 $220 #
plane-surface $-1 0 34.862264896305255 0 0 -1 0 0 0 -1 forward_v I I I I #
coedge $-1 $510 $364 $367 $511 forward $221 $-1 #
coedge $-1 $370 $223 $224 $358 reversed $137 $-1 #
coedge $-1 $364 $510 $223 $356 reversed $221 $-1 #
edge $-1 $371 -7.3893063801330383 $512 7.3893063801330383 $355 $513 forward 7 unknown #
coedge $-1 $225 $224 $510 $514 forward $89 $-1 #
edge $-1 $362 -63.966795861690116 $512 63.966795861690116 $354 $515 forward 7 unknown #
coedge $-1 $367 $366 $225 $360 reversed $351 $-1 #
edge $-1 $516 -63.966795861690116 $361 63.966795861690116 $359 $517 forward 7 unknown #
vertex $-1 $227 $518 #
vertex $-1 $373 $519 #
straight-curve $-1 63.966795861690116 0 -7.3893063801330383 0 -1 0 I I #
coedge $-1 $353 $355 $228 $365 reversed $221 $-1 #
edge $-1 $368 -34.862264896305255 $371 34.862264896305255 $364 $520 forward 7 unknown #
coedge $-1 $359 $229 $234 $374 forward $351 $-1 #
coedge $-1 $229 $359 $353 $511 reversed $351 $-1 #
vertex $-1 $230 $521 #
straight-curve $-1 0 34.862264896305255 7.3893063801330383 -1 0 0 I I #
coedge $-1 $231 $354 $233 $373 reversed $137 $-1 #
vertex $-1 $365 $522 #
straight-curve $-1 0 -34.862264896305255 7.3893063801330383 1 0 0 I I #
edge $-1 $236 -7.3893063801330383 $362 7.3893063801330383 $233 $523 forward 7 unknown #
edge $-1 $237 -7.3893063801330383 $361 7.3893063801330383 $234 $524 forward 7 unknown #
point $-1 63.966795861690116 -34.862264896305255 7.3893063801330383 #
point $-1 63.966795861690116 34.862264896305255 7.3893063801330383 #
face $-1 $-1 $252 $34 $-1 $525 reversed single #
loop $-1 $-1 $384 $239 #
plane-surface $-1 0 0 7.3893063801330383 0 0 1 1 0 0 forward_v I I I I #
coedge $-1 $526 $242 $247 $389 forward $145 $-1 #
coedge $-1 $242 $526 $527 $528 reversed $145 $-1 #
coedge $-1 $244 $243 $242 $383 reversed $93 $-1 #
edge $-1 $529 -4.5207775080590231 $394 -1.2162802360890086 $242 $530 forward 7 unknown #
coedge $-1 $527 $531 $244 $385 forward $378 $-1 #
edge $-1 $387 -63.966795861690116 $529 63.966795861690116 $384 $532 forward 7 unknown #
coedge $-1 $251 $245 $531 $533 reversed $252 $-1 #
vertex $-1 $246 $534 #
straight-curve $-1 63.966795861690116 -26.857066470675797 2.8685288720740156 0 0 1 I I #
edge $-1 $394 11.427233628930534 $392 19.432432054559992 $380 $535 forward 7 unknown #
coedge $-1 $536 $248 $251 $396 reversed $240 $-1 #
coedge $-1 $248 $536 $526 $537 forward $240 $-1 #
vertex $-1 $249 $538 #
straight-curve $-1 0 -34.862264896305255 4.0848091081630242 1 0 0 I I #
vertex $-1 $389 $539 #
straight-curve $-1 0 -26.857066470675797 4.0848091081630242 1 0 0 I I #
edge $-1 $540 -7.3893063801330383 $253 -4.0848091081630242 $251 $541 forward 7 unknown #
point $-1 63.966795861690116 -34.862264896305255 4.0848091081630242 #
point $-1 63.966795861690116 -26.857066470675797 4.0848091081630242 #
face $-1 $-1 $415 $35 $-1 $542 reversed single #
loop $-1 $-1 $262 $256 #
plane-surface $-1 -63.966795861690116 0 0 1 0 0 0 0 -1 forward_v I I I I #
coedge $-1 $543 $259 $418 $544 forward $153 $-1 #
coedge $-1 $259 $543 $406 $545 forward $153 $-1 #
edge $-1 $409 -63.966795861690116 $546 63.966795861690116 $259 $547 forward 7 unknown #
coedge $-1 $261 $260 $269 $420 reversed $97 $-1 #
coedge $-1 $548 $262 $403 $545 reversed $400 $-1 #
coedge $-1 $262 $548 $264 $411 forward $400 $-1 #
vertex $-1 $411 $549 #
vertex $-1 $263 $550 #
straight-curve $-1 -63.966795861690116 26.857066470675797 2.8685288720740156 0 0 1 I I #
edge $-1 $416 -19.432432054559992 $408 -11.427233628930534 $407 $551 forward 7 unknown #
straight-curve $-1 0 26.857066470675797 4.0848091081630242 -1 0 0 I I #
coedge $-1 $552 $266 $548 $553 reversed $415 $-1 #
coedge $-1 $266 $552 $268 $419 forward $415 $-1 #
loop $-1 $-1 $266 $399 #
vertex $-1 $267 $554 #
straight-curve $-1 0 34.862264896305255 4.0848091081630242 -1 0 0 I I #
coedge $-1 $269 $268 $402 $544 reversed $257 $-1 #
edge $-1 $555 -7.3893063801330383 $271 -4.0848091081630242 $268 $556 forward 7 unknown #
edge $-1 $546 -4.5207775080590231 $270 -1.2162802360890086 $269 $557 forward 7 unknown #
point $-1 63.966795861690116 26.857066470675797 4.0848091081630242 #
point $-1 63.966795861690116 34.862264896305255 4.0848091081630242 #
loop $-1 $-1 $280 $273 #
plane-surface $-1 63.966795861690116 0 0 -1 0 0 0 0 1 forward_v I I I I #
coedge $-1 $558 $559 $277 $427 reversed $274 $-1 #
coedge $-1 $277 $276 $432 $560 reversed $101 $-1 #
edge $-1 $561 -127.93359172338022 $429 -119.15265274322817 $425 $562 forward 7 unknown #
coedge $-1 $283 $278 $559 $563 forward $161 $-1 #
vertex $-1 $563 $564 #
straight-curve $-1 57.339737150916577 -10.127170035939535 7.3893063801330499 0 -1 0 I I #
coedge $-1 $565 $280 $283 $436 reversed $423 $-1 #
coedge $-1 $280 $565 $426 $560 forward $423 $-1 #
vertex $-1 $281 $566 #
straight-curve $-1 63.966795861690116 -13.651613673082348 91.056593704901232 0 0 1 I I #
straight-curve $-1 -32.585910556990669 -13.651613673082348 85.560480991121665 0.75470957328743171 0 -0.6560590369687036 I I #
edge $-1 $567 -26.857066470675797 $284 -13.651613673082348 $431 $568 forward 7 unknown #
point $-1 63.966795861690116 -13.651613673082348 7.3893063801330383 #
point $-1 57.339737150916591 -13.651613673082348 7.3893063801330356 #
edge $-1 $569 1 $569 0 $287 $-1 forward 7 unknown #
vertex $-1 $288 $570 #
ellipse-curve $-1 57.586745616870282 -20.254340071879071 0.9812705186618168 0.6560590369687036 0 0.75470957328743171 1.5094191465748634 0 -1.3121180739374072 1 I I #
point $-1 62.162685652878189 -20.254340071879071 3.1967811206958592 #
plane-surface $-1 0 0 7.3893063801330383 0 0 1 1 0 0 forward_v I I I I #
coedge $-1 $454 $453 $446 $571 forward $292 $-1 #
coedge $-1 $446 $294 $296 $450 reversed $176 $-1 #
coedge $-1 $294 $445 $444 $571 reversed $176 $-1 #
coedge $-1 $302 $297 $294 $448 forward $303 $-1 #
edge $-1 $451 31.666697938417855 $572 38.29375664919138 $447 $573 forward 7 unknown #
coedge $-1 $296 $295 $454 $574 reversed $110 $-1 #
edge $-1 $575 -127.93359172338022 $451 -119.15265274322817 $445 $576 forward 7 unknown #
vertex $-1 $298 $577 #
straight-curve $-1 57.339737150916577 3.301363199398363 7.3893063801330499 0 -1 0 I I #
coedge $-1 $444 $299 $302 $458 reversed $292 $-1 #
coedge $-1 $299 $444 $449 $574 forward $292 $-1 #
vertex $-1 $300 $578 #
straight-curve $-1 63.966795861690116 13.205452797593448 91.056593704901232 0 0 1 I I #
straight-curve $-1 -32.585910556990669 13.205452797593448 85.560480991121665 0.75470957328743171 0 -0.6560590369687036 I I #
edge $-1 $572 3.5527136788005009e-015 $304 13.205452797593448 $453 $579 forward 7 unknown #
point $-1 63.966795861690116 13.205452797593448 7.3893063801330383 #
point $-1 57.339737150916591 13.205452797593448 7.3893063801330356 #
edge $-1 $580 1 $580 0 $307 $-1 forward 7 unknown #
vertex $-1 $308 $581 #
ellipse-curve $-1 57.586745616870282 6.602726398796726 0.9812705186618168 0.6560590369687036 0 0.75470957328743171 1.5094191465748634 0 -1.3121180739374072 1 I I #
point $-1 62.162685652878189 6.602726398796726 3.1967811206958592 #
loop $-1 $-1 $320 $311 #
plane-surface $-1 0 -26.857066470675797 5.7370577441480313 0 -1 0 0 0 -1 forward_v I I I I #
coedge $-1 $582 $314 $319 $473 forward $191 $-1 #
coedge $-1 $314 $582 $470 $583 reversed $191 $-1 #
edge $-1 $471 41.701292833774119 $478 47.462107204773631 $314 $584 forward 7 unknown #
coedge $-1 $323 $317 $468 $583 forward $312 $-1 #
vertex $-1 $583 $585 #
straight-curve $-1 -73.949392421839136 -13.651613673082348 7.3893063801330356 -1 0 0 I I #
edge $-1 $478 3.5244436371428129 $476 16.729896434736258 $467 $586 forward 7 unknown #
coedge $-1 $475 $320 $323 $480 reversed $465 $-1 #
coedge $-1 $320 $474 $582 $587 reversed $465 $-1 #
vertex $-1 $587 $588 #
straight-curve $-1 -44.732337529492838 -26.857066470675797 18.348751903372428 0.75470957328743171 0 0.6560590369687036 I I #
vertex $-1 $473 $589 #
straight-curve $-1 -63.96679586169013 -13.651613673082348 1.6284920091335096 0.75470957328743171 0 0.6560590369687036 I I #
edge $-1 $590 -63.966795861690116 $324 -57.339737150916577 $323 $591 forward 7 unknown #
point $-1 -57.339737150916577 -26.857066470675793 7.3893063801330374 #
point $-1 -57.339737150916577 -13.651613673082348 7.3893063801330374 #
edge $-1 $592 1 $592 0 $327 $-1 forward 7 unknown #
vertex $-1 $328 $593 #
ellipse-curve $-1 -57.586745616870282 -20.254340071879071 0.98127051866181947 -0.6560590369687036 0 0.75470957328743171 1.5094191465748634 0 1.3121180739374072 1 I I #
point $-1 -59.143847359728468 -20.254340071879071 5.8210172685706763 #
loop $-1 $-1 $339 $331 #
plane-surface $-1 -63.966795861690116 0 0 1 0 0 0 0 -1 forward_v I I I I #
coedge $-1 $490 $334 $336 $494 reversed $206 $-1 #
coedge $-1 $334 $489 $594 $595 reversed $206 $-1 #
coedge $-1 $342 $337 $334 $492 forward $332 $-1 #
edge $-1 $495 -16.609655270922559 $596 -9.9825965601490196 $491 $597 forward 7 unknown #
coedge $-1 $336 $335 $498 $598 reversed $128 $-1 #
edge $-1 $599 1.888283279974768e-014 $495 8.7809389801520847 $489 $600 forward 7 unknown #
vertex $-1 $338 $601 #
straight-curve $-1 -57.339737150916577 3.301363199398363 7.389306380133041 0 1 0 I I #
coedge $-1 $594 $339 $342 $502 reversed $487 $-1 #
coedge $-1 $339 $594 $493 $598 forward $487 $-1 #
vertex $-1 $340 $602 #
straight-curve $-1 -63.966795861690116 3.5527136788005009e-015 49.090599213907154 0 0 1 I I #
straight-curve $-1 -63.96679586169013 3.5527136788005009e-015 1.6284920091335096 -0.75470957328743171 0 -0.6560590369687036 I I #
edge $-1 $596 -13.205452797593448 $343 -3.5527136788005009e-015 $497 $603 forward 7 unknown #
point $-1 -63.966795861690116 3.5527136788005009e-015 7.3893063801330383 #
point $-1 -57.339737150916577 3.5527136788005009e-015 7.3893063801330374 #
edge $-1 $604 1 $604 0 $346 $-1 forward 7 unknown #
vertex $-1 $347 $605 #
ellipse-curve $-1 -57.586745616870282 6.602726398796726 0.98127051866181947 -0.6560590369687036 0 0.75470957328743171 1.5094191465748634 0 1.3121180739374072 1 I I #
point $-1 -59.143847359728468 6.602726398796726 5.8210172685706763 #
plane-surface $-1 63.966795861690116 0 0 -1 0 0 0 0 1 forward_v I I I I #
coedge $-1 $355 $353 $357 $514 reversed $221 $-1 #
edge $-1 $368 -7.3893063801330383 $516 7.3893063801330383 $367 $606 forward 7 unknown #
vertex $-1 $514 $607 #
straight-curve $-1 -63.966795861690116 -34.862264896305255 0 0 0 -1 I I #
edge $-1 $512 -34.862264896305255 $516 34.862264896305255 $510 $608 forward 7 unknown #
straight-curve $-1 0 -34.862264896305255 -7.3893063801330383 -1 0 0 I I #
vertex $-1 $360 $609 #
straight-curve $-1 0 34.862264896305255 -7.3893063801330383 1 0 0 I I #
point $-1 63.966795861690116 34.862264896305255 -7.3893063801330383 #
point $-1 63.966795861690116 -34.862264896305255 -7.3893063801330383 #
straight-curve $-1 -63.966795861690116 0 7.3893063801330383 0 -1 0 I I #
point $-1 -63.966795861690116 34.862264896305255 7.3893063801330383 #
point $-1 -63.966795861690116 -34.862264896305255 7.3893063801330383 #
straight-curve $-1 63.966795861690116 -34.862264896305255 0 0 0 -1 I I #
straight-curve $-1 63.966795861690116 34.862264896305255 0 0 0 -1 I I #
plane-surface $-1 63.966795861690116 0 0 -1 0 0 0 0 1 forward_v I I I I #
coedge $-1 $381 $380 $391 $537 reversed $145 $-1 #
coedge $-1 $610 $384 $381 $528 forward $378 $-1 #
edge $-1 $529 26.857066470675797 $611 34.862264896305255 $381 $612 forward 7 unknown #
vertex $-1 $528 $613 #
straight-curve $-1 -63.966795861690116 -26.857066470675797 2.8685288720740156 0 0 -1 I I #
coedge $-1 $384 $610 $386 $533 forward $378 $-1 #
straight-curve $-1 0 -26.857066470675797 7.3893063801330383 -1 0 0 I I #
edge $-1 $540 -34.862264896305255 $387 -26.857066470675797 $386 $614 forward 7 unknown #
point $-1 63.966795861690116 -26.857066470675797 7.3893063801330383 #
straight-curve $-1 -63.966795861690116 -15.429832841745263 4.0848091081630242 0 -1 0 I I #
coedge $-1 $391 $390 $610 $615 reversed $240 $-1 #
edge $-1 $611 -7.3893063801330383 $392 -4.0848091081630242 $526 $616 forward 7 unknown #
point $-1 -63.966795861690116 -34.862264896305255 4.0848091081630242 #
point $-1 -63.966795861690116 -26.857066470675797 4.0848091081630242 #
vertex $-1 $533 $617 #
straight-curve $-1 63.966795861690116 -34.862264896305255 0 0 0 -1 I I #
plane-surface $-1 0 34.862264896305255 0 0 -1 0 0 0 -1 forward_v I I I I #
coedge $-1 $403 $402 $552 $618 forward $153 $-1 #
edge $-1 $546 26.857066470675797 $555 34.862264896305255 $418 $619 forward 7 unknown #
edge $-1 $620 -34.862264896305255 $409 -26.857066470675797 $406 $621 forward 7 unknown #
vertex $-1 $544 $622 #
straight-curve $-1 0 26.857066470675797 7.3893063801330383 1 0 0 I I #
coedge $-1 $407 $406 $413 $553 forward $400 $-1 #
point $-1 -63.966795861690116 26.857066470675797 4.0848091081630242 #
point $-1 -63.966795861690116 26.857066470675797 7.3893063801330383 #
straight-curve $-1 -63.966795861690116 15.429832841745263 4.0848091081630242 0 -1 0 I I #
coedge $-1 $414 $413 $543 $618 reversed $415 $-1 #
edge $-1 $620 -7.3893063801330383 $416 -4.0848091081630242 $413 $623 forward 7 unknown #
point $-1 -63.966795861690116 34.862264896305255 4.0848091081630242 #
vertex $-1 $544 $624 #
straight-curve $-1 63.966795861690116 34.862264896305255 0 0 0 -1 I I #
straight-curve $-1 63.966795861690116 26.857066470675797 2.8685288720740156 0 0 -1 I I #
coedge $-1 $559 $425 $565 $625 reversed $274 $-1 #
coedge $-1 $425 $558 $428 $563 reversed $274 $-1 #
edge $-1 $561 -16.729896434736258 $433 -3.5244436371428129 $432 $626 forward 7 unknown #
vertex $-1 $625 $627 #
straight-curve $-1 -32.585910556990669 -26.857066470675793 85.560480991121665 -0.75470957328743171 0 0.6560590369687036 I I #
edge $-1 $429 57.339737150916591 $567 63.966795861690116 $428 $628 forward 7 unknown #
point $-1 57.339737150916591 -26.857066470675793 7.3893063801330356 #
coedge $-1 $432 $431 $558 $625 forward $423 $-1 #
point $-1 63.966795861690116 -13.651613673082348 1.6284920091335238 #
vertex $-1 $436 $629 #
straight-curve $-1 63.966795861690116 0 7.3893063801330383 0 1 0 I I #
vertex $-1 $439 $630 #
point $-1 59.096164763445145 -20.254340071879071 -0.3308475552755904 #
edge $-1 $572 83.667287324768196 $575 89.428101695767708 $444 $631 forward 7 unknown #
vertex $-1 $458 $632 #
straight-curve $-1 25.673039212498736 3.5527136788005009e-015 7.3893063801330356 1 0 0 I I #
edge $-1 $575 -3.3013631993983594 $455 9.9040895981950854 $454 $633 forward 7 unknown #
vertex $-1 $574 $634 #
straight-curve $-1 -32.585910556990669 3.5527136788005009e-015 85.560480991121665 -0.75470957328743171 0 0.6560590369687036 I I #
point $-1 57.339737150916591 3.5527136788005009e-015 7.3893063801330356 #
point $-1 63.966795861690116 13.205452797593448 1.6284920091335238 #
straight-curve $-1 63.966795861690116 0 7.3893063801330383 0 1 0 I I #
vertex $-1 $461 $635 #
point $-1 59.096164763445145 6.602726398796726 -0.3308475552755904 #
coedge $-1 $468 $467 $475 $587 forward $191 $-1 #
edge $-1 $471 13.651613673082348 $590 26.857066470675797 $468 $636 forward 7 unknown #
straight-curve $-1 -63.966795861690116 -13.651613673082348 49.090599213907154 0 0 -1 I I #
point $-1 -63.966795861690116 -13.651613673082348 7.3893063801330383 #
straight-curve $-1 -63.966795861690116 -10.127170035939535 1.6284920091335229 0 -1 0 I I #
edge $-1 $476 -47.462107204773631 $590 -41.701292833774119 $582 $637 forward 7 unknown #
point $-1 -63.966795861690116 -26.857066470675793 1.628492009133522 #
point $-1 -63.966795861690116 -13.651613673082348 1.628492009133522 #
vertex $-1 $587 $638 #
straight-curve $-1 0 -26.857066470675797 7.3893063801330383 1 0 0 I I #
vertex $-1 $483 $639 #
point $-1 -56.077326470295418 -20.254340071879071 2.2933885925992268 #
coedge $-1 $498 $497 $490 $595 forward $487 $-1 #
edge $-1 $596 41.701292833774119 $599 47.462107204773631 $594 $640 forward 7 unknown #
vertex $-1 $502 $641 #
straight-curve $-1 -73.949392421839136 13.205452797593448 7.3893063801330356 -1 0 0 I I #
edge $-1 $599 -9.9040895981950854 $499 3.3013631993983594 $498 $642 forward 7 unknown #
vertex $-1 $598 $643 #
straight-curve $-1 -63.96679586169013 13.205452797593448 1.6284920091335096 0.75470957328743171 0 0.6560590369687036 I I #
point $-1 -57.339737150916577 13.205452797593448 7.3893063801330374 #
point $-1 -63.966795861690116 3.5527136788005009e-015 1.628492009133522 #
straight-curve $-1 -63.966795861690116 0 7.3893063801330383 0 -1 0 I I #
vertex $-1 $505 $644 #
point $-1 -56.077326470295418 6.602726398796726 2.2933885925992268 #
straight-curve $-1 -63.966795861690116 34.862264896305255 0 0 0 -1 I I #
point $-1 -63.966795861690116 -34.862264896305255 -7.3893063801330383 #
straight-curve $-1 -63.966795861690116 0 -7.3893063801330383 0 1 0 I I #
point $-1 -63.966795861690116 34.862264896305255 -7.3893063801330383 #
coedge $-1 $531 $527 $536 $615 forward $378 $-1 #
vertex $-1 $528 $645 #
straight-curve $-1 -63.966795861690116 0 7.3893063801330383 0 -1 0 I I #
point $-1 -63.966795861690116 -26.857066470675797 7.3893063801330383 #
straight-curve $-1 63.966795861690116 0 7.3893063801330383 0 1 0 I I #
edge $-1 $611 -63.966795861690116 $540 63.966795861690116 $536 $646 forward 7 unknown #
straight-curve $-1 -63.966795861690116 -34.862264896305255 0 0 0 -1 I I #
point $-1 63.966795861690116 -34.862264896305255 7.3893063801330383 #
edge $-1 $555 -63.966795861690116 $620 63.966795861690116 $552 $647 forward 7 unknown #
straight-curve $-1 63.966795861690116 0 7.3893063801330383 0 1 0 I I #
vertex $-1 $618 $648 #
straight-curve $-1 -63.966795861690116 0 7.3893063801330383 0 -1 0 I I #
point $-1 63.966795861690116 26.857066470675797 7.3893063801330383 #
straight-curve $-1 -63.966795861690116 34.862264896305255 0 0 0 -1 I I #
point $-1 63.966795861690116 34.862264896305255 7.3893063801330383 #
edge $-1 $567 83.667287324768196 $561 89.428101695767708 $565 $649 forward 7 unknown #
straight-curve $-1 63.966795861690123 -10.127170035939535 1.6284920091335238 0 1 0 I I #
point $-1 63.966795861690116 -26.857066470675793 1.6284920091335238 #
straight-curve $-1 0 -26.857066470675797 7.3893063801330383 1 0 0 I I #
point $-1 63.966795861690116 -26.857066470675797 7.3893063801330383 #
point $-1 56.274627542932869 -20.254340071879071 -0.52814862791304662 #
straight-curve $-1 63.966795861690116 3.5527136788005009e-015 91.056593704901232 0 0 -1 I I #
point $-1 63.966795861690116 3.5527136788005009e-015 7.3893063801330383 #
straight-curve $-1 63.966795861690123 3.301363199398363 1.6284920091335238 0 1 0 I I #
point $-1 63.966795861690116 3.5527136788005009e-015 1.6284920091335238 #
point $-1 56.274627542932869 6.602726398796726 -0.52814862791304662 #
straight-curve $-1 -63.966795861690116 0 7.3893063801330383 0 -1 0 I I #
straight-curve $-1 -63.966795861690116 -26.857066470675793 49.090599213907154 0 0 1 I I #
point $-1 -63.966795861690116 -26.857066470675797 7.3893063801330383 #
point $-1 -56.274627542932869 -20.254340071879071 -0.52814862791304396 #
straight-curve $-1 -63.966795861690116 13.205452797593448 49.090599213907154 0 0 -1 I I #
point $-1 -63.966795861690116 13.205452797593448 7.3893063801330383 #
straight-curve $-1 -63.966795861690116 3.301363199398363 1.6284920091335229 0 -1 0 I I #
point $-1 -63.966795861690116 13.205452797593448 1.628492009133522 #
point $-1 -56.274627542932869 6.602726398796726 -0.52814862791304396 #
point $-1 -63.966795861690116 -34.862264896305255 7.3893063801330383 #
straight-curve $-1 0 -34.862264896305255 7.3893063801330383 1 0 0 I I #
straight-curve $-1 0 34.862264896305255 7.3893063801330383 -1 0 0 I I #
point $-1 -63.966795861690116 34.862264896305255 7.3893063801330383 #
straight-curve $-1 63.966795861690116 -26.857066470675793 91.056593704901232 0 0 -1 I I #
End-of-ACIS-data 