500 0 18 0           
7 Unknown 11 ACIS 5.0 NT 24 Thu Mar 25 22:14:18 1999 
-1 9.9999999999999995e-007 1e-010 
body $-1 $18 $-1 $19 #
body $-1 $20 $-1 $21 #
body $-1 $22 $-1 $23 #
body $-1 $24 $-1 $25 #
body $-1 $26 $-1 $27 #
body $-1 $28 $-1 $29 #
body $-1 $30 $-1 $31 #
body $-1 $32 $-1 $33 #
body $-1 $34 $-1 $35 #
body $-1 $36 $-1 $37 #
body $-1 $38 $-1 $39 #
body $-1 $40 $-1 $41 #
body $-1 $42 $-1 $43 #
body $-1 $44 $-1 $45 #
body $-1 $46 $-1 $47 #
body $-1 $48 $-1 $49 #
body $-1 $50 $-1 $51 #
body $-1 $52 $-1 $53 #
lump $-1 $-1 $54 $0 #
transform $-1 1 0 0 0 1 0 0 0 1 59.432966093935974 34.558074172018898 8.0633045525911218 1 rotate no_reflect no_shear #
lump $-1 $-1 $55 $1 #
transform $-1 1 0 0 0 1 0 0 0 1 -4.4957493817371565 34.558074172018898 7.4021067521179837 1 rotate no_reflect no_shear #
lump $-1 $-1 $56 $2 #
transform $-1 1 0 0 0 0.81915203911291934 0.57357644374324357 0 -0.57357644374324357 0.81915203911291934 19.89703707761435 -68.178698666545131 105.45745373112727 1 rotate no_reflect no_shear #
lump $-1 $-1 $57 $3 #
transform $-1 1 0 0 0 -0.81915203911291934 -0.57357644374324357 0 0.57357644374324357 -0.81915203911291934 17.27049039685949 7.4886715730475553 9.6100785517566116 1 rotate no_reflect no_shear #
lump $-1 $-1 $58 $4 #
transform $-1 1 0 0 0 -0.81915203911291934 -0.57357644374324357 0 0.57357644374324357 -0.81915203911291934 22.523583758369206 7.4886715730475553 9.6100785517566116 1 rotate no_reflect no_shear #
lump $-1 $-1 $59 $5 #
transform $-1 1 0 0 0 0.81915203911291934 0.57357644374324357 0 -0.57357644374324357 0.81915203911291934 47.365645433713759 -68.178698666545131 105.45745373112727 1 rotate no_reflect no_shear #
lump $-1 $-1 $60 $6 #
transform $-1 1 0 0 0 -0.81915203911291934 -0.57357644374324357 0 0.57357644374324357 -0.81915203911291934 44.739098752958895 7.4886715730475553 9.6100785517566116 1 rotate no_reflect no_shear #
lump $-1 $-1 $61 $7 #
transform $-1 1 0 0 0 -0.81915203911291934 -0.57357644374324357 0 0.57357644374324357 -0.81915203911291934 49.992192114468615 7.4886715730475553 9.6100785517566116 1 rotate no_reflect no_shear #
lump $-1 $-1 $62 $8 #
transform $-1 1 0 0 0 0.81915203911291934 0.57357644374324357 0 -0.57357644374324357 0.81915203911291934 74.834253789813175 -68.178698666545131 105.45745373112727 1 rotate no_reflect no_shear #
lump $-1 $-1 $63 $9 #
transform $-1 1 0 0 0 -0.81915203911291934 -0.57357644374324357 0 0.57357644374324357 -0.81915203911291934 72.207707109058305 7.4886715730475553 9.6100785517566116 1 rotate no_reflect no_shear #
lump $-1 $-1 $64 $10 #
transform $-1 1 0 0 0 -0.81915203911291934 -0.57357644374324357 0 0.57357644374324357 -0.81915203911291934 77.460800470568017 7.4886715730475553 9.6100785517566116 1 rotate no_reflect no_shear #
lump $-1 $-1 $65 $11 #
transform $-1 1 0 0 0 0.81915203911291934 0.57357644374324357 0 -0.57357644374324357 0.81915203911291934 102.30286214591258 -68.178698666545131 105.45745373112727 1 rotate no_reflect no_shear #
lump $-1 $-1 $66 $12 #
transform $-1 1 0 0 0 -0.81915203911291934 -0.57357644374324357 0 0.57357644374324357 -0.81915203911291934 99.676315465157714 7.4886715730475553 9.6100785517566116 1 rotate no_reflect no_shear #
lump $-1 $-1 $67 $13 #
transform $-1 1 0 0 0 -0.81915203911291934 -0.57357644374324357 0 0.57357644374324357 -0.81915203911291934 104.92940882666743 7.4886715730475553 9.6100785517566116 1 rotate no_reflect no_shear #
lump $-1 $-1 $68 $14 #
transform $-1 1 0 0 0 0.49999998660252726 -0.86602541151947299 0 0.86602541151947299 0.49999998660252726 34.241690390956435 137.49899293664819 129.79054302852319 1 rotate no_reflect no_shear #
lump $-1 $-1 $69 $15 #
transform $-1 1 0 0 0 -0.49999998660252726 0.86602541151947299 0 -0.86602541151947299 -0.49999998660252726 25.538617231028681 63.163814616147548 10.814903884071136 1 rotate no_reflect no_shear #
lump $-1 $-1 $70 $16 #
transform $-1 1 0 0 0 -0.49999998660252726 0.86602541151947299 0 -0.86602541151947299 -0.49999998660252726 34.241690390956435 63.163814616147548 10.814903884071136 1 rotate no_reflect no_shear #
lump $-1 $-1 $71 $17 #
transform $-1 1 0 0 0 -0.49999998660252726 0.86602541151947299 0 -0.86602541151947299 -0.49999998660252726 42.94476355088419 63.163814616147548 10.814903884071136 1 rotate no_reflect no_shear #
shell $-1 $-1 $-1 $72 $-1 $18 #
shell $-1 $-1 $-1 $73 $-1 $20 #
shell $-1 $-1 $-1 $74 $-1 $22 #
shell $-1 $-1 $-1 $75 $-1 $24 #
shell $-1 $-1 $-1 $76 $-1 $26 #
shell $-1 $-1 $-1 $77 $-1 $28 #
shell $-1 $-1 $-1 $78 $-1 $30 #
shell $-1 $-1 $-1 $79 $-1 $32 #
shell $-1 $-1 $-1 $80 $-1 $34 #
shell $-1 $-1 $-1 $81 $-1 $36 #
shell $-1 $-1 $-1 $82 $-1 $38 #
shell $-1 $-1 $-1 $83 $-1 $40 #
shell $-1 $-1 $-1 $84 $-1 $42 #
shell $-1 $-1 $-1 $85 $-1 $44 #
shell $-1 $-1 $-1 $86 $-1 $46 #
shell $-1 $-1 $-1 $87 $-1 $48 #
shell $-1 $-1 $-1 $88 $-1 $50 #
shell $-1 $-1 $-1 $89 $-1 $52 #
face $-1 $90 $91 $54 $-1 $92 forward single #
face $-1 $93 $94 $55 $-1 $95 forward single #
face $-1 $96 $97 $56 $-1 $98 forward single #
face $-1 $99 $100 $57 $-1 $101 forward single #
face $-1 $102 $103 $58 $-1 $104 forward single #
face $-1 $105 $106 $59 $-1 $107 forward single #
face $-1 $108 $109 $60 $-1 $110 forward single #
face $-1 $111 $112 $61 $-1 $113 forward single #
face $-1 $114 $115 $62 $-1 $116 forward single #
face $-1 $117 $118 $63 $-1 $119 forward single #
face $-1 $120 $121 $64 $-1 $122 forward single #
face $-1 $123 $124 $65 $-1 $125 forward single #
face $-1 $126 $127 $66 $-1 $128 forward single #
face $-1 $129 $130 $67 $-1 $131 forward single #
face $-1 $132 $133 $68 $-1 $134 forward single #
face $-1 $135 $136 $69 $-1 $137 forward single #
face $-1 $138 $139 $70 $-1 $140 forward single #
face $-1 $141 $142 $71 $-1 $143 forward single #
face $-1 $144 $145 $54 $-1 $146 reversed single #
loop $-1 $-1 $147 $72 #
plane-surface $-1 0 0 8.0633045525911218 0 0 1 1 0 0 forward_v I I I I #
face $-1 $148 $149 $55 $-1 $150 reversed single #
loop $-1 $-1 $151 $73 #
plane-surface $-1 0 0 1.4999999999999996 0 0 1 1 0 0 forward_v I I I I #
face $-1 $152 $153 $56 $-1 $154 reversed single #
loop $-1 $-1 $155 $74 #
plane-surface $-1 0 0 118.86593218787195 0 0 1 1 0 0 forward_v I I I I #
face $-1 $156 $157 $57 $-1 $158 forward single #
loop $-1 $159 $160 $75 #
cone-surface $-1 0 0 -1.774330881679739 0 0 1 1 0 0 1 I I 0 1 1 forward I I I I #
face $-1 $161 $162 $58 $-1 $163 forward single #
loop $-1 $164 $165 $76 #
cone-surface $-1 0 0 -1.774330881679739 0 0 1 1 0 0 1 I I 0 1 1 forward I I I I #
face $-1 $166 $167 $59 $-1 $168 reversed single #
loop $-1 $-1 $169 $77 #
plane-surface $-1 0 0 118.86593218787195 0 0 1 1 0 0 forward_v I I I I #
face $-1 $170 $171 $60 $-1 $172 forward single #
loop $-1 $173 $174 $78 #
cone-surface $-1 0 0 -1.774330881679739 0 0 1 1 0 0 1 I I 0 1 1 forward I I I I #
face $-1 $175 $176 $61 $-1 $177 forward single #
loop $-1 $178 $179 $79 #
cone-surface $-1 0 0 -1.774330881679739 0 0 1 1 0 0 1 I I 0 1 1 forward I I I I #
face $-1 $180 $181 $62 $-1 $182 reversed single #
loop $-1 $-1 $183 $80 #
plane-surface $-1 0 0 118.86593218787195 0 0 1 1 0 0 forward_v I I I I #
face $-1 $184 $185 $63 $-1 $186 forward single #
loop $-1 $187 $188 $81 #
cone-surface $-1 0 0 -1.774330881679739 0 0 1 1 0 0 1 I I 0 1 1 forward I I I I #
face $-1 $189 $190 $64 $-1 $191 forward single #
loop $-1 $192 $193 $82 #
cone-surface $-1 0 0 -1.774330881679739 0 0 1 1 0 0 1 I I 0 1 1 forward I I I I #
face $-1 $194 $195 $65 $-1 $196 reversed single #
loop $-1 $-1 $197 $83 #
plane-surface $-1 0 0 118.86593218787195 0 0 1 1 0 0 forward_v I I I I #
face $-1 $198 $199 $66 $-1 $200 forward single #
loop $-1 $201 $202 $84 #
cone-surface $-1 0 0 -1.774330881679739 0 0 1 1 0 0 1 I I 0 1 1 forward I I I I #
face $-1 $203 $204 $67 $-1 $205 forward single #
loop $-1 $206 $207 $85 #
cone-surface $-1 0 0 -1.774330881679739 0 0 1 1 0 0 1 I I 0 1 1 forward I I I I #
face $-1 $208 $209 $68 $-1 $210 reversed single #
loop $-1 $-1 $211 $86 #
plane-surface $-1 0 0 118.86593218787195 0 0 1 1 0 0 forward_v I I I I #
face $-1 $212 $213 $69 $-1 $214 forward single #
loop $-1 $215 $216 $87 #
cone-surface $-1 0 0 -2.8740195928830836 0 0 1 1.5 0 0 1 I I 0 1 1.5 forward I I I I #
face $-1 $217 $218 $70 $-1 $219 forward single #
loop $-1 $220 $221 $88 #
cone-surface $-1 0 0 -2.8740195928830836 0 0 1 1.5 0 0 1 I I 0 1 1.5 forward I I I I #
face $-1 $222 $223 $71 $-1 $224 forward single #
loop $-1 $225 $226 $89 #
cone-surface $-1 0 0 -2.8740195928830836 0 0 1 1.5 0 0 1 I I 0 1 1.5 forward I I I I #
face $-1 $227 $228 $54 $-1 $229 reversed single #
loop $-1 $-1 $230 $90 #
plane-surface $-1 0 0 -8.0633045525911218 0 0 1 1 0 0 forward_v I I I I #
coedge $-1 $231 $232 $233 $234 forward $91 $-1 #
face $-1 $235 $236 $55 $-1 $237 reversed single #
loop $-1 $-1 $238 $93 #
plane-surface $-1 0 0 -1.4999999999999996 0 0 1 1 0 0 forward_v I I I I #
coedge $-1 $239 $240 $241 $242 forward $94 $-1 #
face $-1 $243 $244 $56 $-1 $245 reversed single #
loop $-1 $-1 $246 $96 #
plane-surface $-1 0 0 -118.86593218787195 0 0 1 1 0 0 forward_v I I I I #
coedge $-1 $247 $248 $249 $250 forward $97 $-1 #
face $-1 $-1 $251 $57 $-1 $252 forward single #
loop $-1 $-1 $253 $99 #
plane-surface $-1 0 0 -3.0486617633594779 0 0 -1 -1 0 0 forward_v I I I I #
loop $-1 $-1 $254 $75 #
coedge $-1 $160 $160 $253 $255 reversed $100 $-1 #
face $-1 $-1 $256 $58 $-1 $257 forward single #
loop $-1 $-1 $258 $102 #
plane-surface $-1 0 0 -3.0486617633594779 0 0 -1 -1 0 0 forward_v I I I I #
loop $-1 $-1 $259 $76 #
coedge $-1 $165 $165 $258 $260 reversed $103 $-1 #
face $-1 $261 $262 $59 $-1 $263 reversed single #
loop $-1 $-1 $264 $105 #
plane-surface $-1 0 0 -118.86593218787195 0 0 1 1 0 0 forward_v I I I I #
coedge $-1 $265 $266 $267 $268 forward $106 $-1 #
face $-1 $-1 $269 $60 $-1 $270 forward single #
loop $-1 $-1 $271 $108 #
plane-surface $-1 0 0 -3.0486617633594779 0 0 -1 -1 0 0 forward_v I I I I #
loop $-1 $-1 $272 $78 #
coedge $-1 $174 $174 $271 $273 reversed $109 $-1 #
face $-1 $-1 $274 $61 $-1 $275 forward single #
loop $-1 $-1 $276 $111 #
plane-surface $-1 0 0 -3.0486617633594779 0 0 -1 -1 0 0 forward_v I I I I #
loop $-1 $-1 $277 $79 #
coedge $-1 $179 $179 $276 $278 reversed $112 $-1 #
face $-1 $279 $280 $62 $-1 $281 reversed single #
loop $-1 $-1 $282 $114 #
plane-surface $-1 0 0 -118.86593218787195 0 0 1 1 0 0 forward_v I I I I #
coedge $-1 $283 $284 $285 $286 forward $115 $-1 #
face $-1 $-1 $287 $63 $-1 $288 forward single #
loop $-1 $-1 $289 $117 #
plane-surface $-1 0 0 -3.0486617633594779 0 0 -1 -1 0 0 forward_v I I I I #
loop $-1 $-1 $290 $81 #
coedge $-1 $188 $188 $289 $291 reversed $118 $-1 #
face $-1 $-1 $292 $64 $-1 $293 forward single #
loop $-1 $-1 $294 $120 #
plane-surface $-1 0 0 -3.0486617633594779 0 0 -1 -1 0 0 forward_v I I I I #
loop $-1 $-1 $295 $82 #
coedge $-1 $193 $193 $294 $296 reversed $121 $-1 #
face $-1 $297 $298 $65 $-1 $299 reversed single #
loop $-1 $-1 $300 $123 #
plane-surface $-1 0 0 -118.86593218787195 0 0 1 1 0 0 forward_v I I I I #
coedge $-1 $301 $302 $303 $304 forward $124 $-1 #
face $-1 $-1 $305 $66 $-1 $306 forward single #
loop $-1 $-1 $307 $126 #
plane-surface $-1 0 0 -3.0486617633594779 0 0 -1 -1 0 0 forward_v I I I I #
loop $-1 $-1 $308 $84 #
coedge $-1 $202 $202 $307 $309 reversed $127 $-1 #
face $-1 $-1 $310 $67 $-1 $311 forward single #
loop $-1 $-1 $312 $129 #
plane-surface $-1 0 0 -3.0486617633594779 0 0 -1 -1 0 0 forward_v I I I I #
loop $-1 $-1 $313 $85 #
coedge $-1 $207 $207 $312 $314 reversed $130 $-1 #
face $-1 $315 $316 $68 $-1 $317 reversed single #
loop $-1 $-1 $318 $132 #
plane-surface $-1 0 0 -118.86593218787195 0 0 1 1 0 0 forward_v I I I I #
coedge $-1 $319 $320 $321 $322 forward $133 $-1 #
face $-1 $-1 $323 $69 $-1 $324 forward single #
loop $-1 $-1 $325 $135 #
plane-surface $-1 0 0 -4.9980391857661672 0 0 -1 -1 0 0 forward_v I I I I #
loop $-1 $-1 $326 $87 #
coedge $-1 $216 $216 $325 $327 reversed $136 $-1 #
face $-1 $-1 $328 $70 $-1 $329 forward single #
loop $-1 $-1 $330 $138 #
plane-surface $-1 0 0 -4.9980391857661672 0 0 -1 -1 0 0 forward_v I I I I #
loop $-1 $-1 $331 $88 #
coedge $-1 $221 $221 $330 $332 reversed $139 $-1 #
face $-1 $-1 $333 $71 $-1 $334 forward single #
loop $-1 $-1 $335 $141 #
plane-surface $-1 0 0 -4.9980391857661672 0 0 -1 -1 0 0 forward_v I I I I #
loop $-1 $-1 $336 $89 #
coedge $-1 $226 $226 $335 $337 reversed $142 $-1 #
face $-1 $338 $339 $54 $-1 $340 reversed single #
loop $-1 $-1 $341 $144 #
plane-surface $-1 0 -34.558074172018898 0 0 1 0 0 0 1 forward_v I I I I #
coedge $-1 $342 $343 $344 $345 forward $145 $-1 #
coedge $-1 $346 $147 $347 $348 forward $91 $-1 #
coedge $-1 $147 $346 $349 $350 forward $91 $-1 #
coedge $-1 $351 $352 $147 $234 reversed $353 $-1 #
edge $-1 $354 -34.558074172018898 $355 34.558074172018898 $233 $356 forward 7 unknown #
face $-1 $357 $358 $55 $-1 $359 reversed single #
loop $-1 $-1 $360 $148 #
plane-surface $-1 0 -34.558074172018898 0 0 1 0 0 0 1 forward_v I I I I #
coedge $-1 $361 $362 $363 $364 forward $149 $-1 #
coedge $-1 $365 $151 $366 $367 forward $94 $-1 #
coedge $-1 $151 $365 $368 $369 forward $94 $-1 #
coedge $-1 $370 $371 $151 $242 reversed $372 $-1 #
edge $-1 $373 -34.558074172018898 $374 34.558074172018898 $241 $375 forward 7 unknown #
face $-1 $376 $377 $56 $-1 $378 reversed single #
loop $-1 $-1 $379 $152 #
plane-surface $-1 0 -237.7318643757439 0 0 1 0 0 0 1 forward_v I I I I #
coedge $-1 $380 $381 $382 $383 forward $153 $-1 #
coedge $-1 $384 $155 $385 $386 forward $97 $-1 #
coedge $-1 $155 $384 $387 $388 forward $97 $-1 #
coedge $-1 $389 $390 $155 $250 reversed $391 $-1 #
edge $-1 $392 -237.7318643757439 $393 237.7318643757439 $249 $394 forward 7 unknown #
loop $-1 $395 $396 $156 #
cone-surface $-1 0 0 0 0 0 1 0.5 0 0 1 I I -0.70710678118654746 0.70710678118654746 0.5 forward I I I I #
coedge $-1 $253 $253 $160 $255 forward $157 $-1 #
coedge $-1 $254 $254 $396 $397 forward $159 $-1 #
edge $-1 $398 0 $398 6.2831853071796004 $253 $399 forward 7 unknown #
loop $-1 $400 $401 $161 #
cone-surface $-1 0 0 0 0 0 1 0.5 0 0 1 I I -0.70710678118654746 0.70710678118654746 0.5 forward I I I I #
coedge $-1 $258 $258 $165 $260 forward $162 $-1 #
coedge $-1 $259 $259 $401 $402 forward $164 $-1 #
edge $-1 $403 0 $403 6.2831853071796004 $258 $404 forward 7 unknown #
face $-1 $405 $406 $59 $-1 $407 reversed single #
loop $-1 $-1 $408 $166 #
plane-surface $-1 0 -237.7318643757439 0 0 1 0 0 0 1 forward_v I I I I #
coedge $-1 $409 $410 $411 $412 forward $167 $-1 #
coedge $-1 $413 $169 $414 $415 forward $106 $-1 #
coedge $-1 $169 $413 $416 $417 forward $106 $-1 #
coedge $-1 $418 $419 $169 $268 reversed $420 $-1 #
edge $-1 $421 -237.7318643757439 $422 237.7318643757439 $267 $423 forward 7 unknown #
loop $-1 $424 $425 $170 #
cone-surface $-1 0 0 0 0 0 1 0.5 0 0 1 I I -0.70710678118654746 0.70710678118654746 0.5 forward I I I I #
coedge $-1 $271 $271 $174 $273 forward $171 $-1 #
coedge $-1 $272 $272 $425 $426 forward $173 $-1 #
edge $-1 $427 0 $427 6.2831853071796004 $271 $428 forward 7 unknown #
loop $-1 $429 $430 $175 #
cone-surface $-1 0 0 0 0 0 1 0.5 0 0 1 I I -0.70710678118654746 0.70710678118654746 0.5 forward I I I I #
coedge $-1 $276 $276 $179 $278 forward $176 $-1 #
coedge $-1 $277 $277 $430 $431 forward $178 $-1 #
edge $-1 $432 0 $432 6.2831853071796004 $276 $433 forward 7 unknown #
face $-1 $434 $435 $62 $-1 $436 reversed single #
loop $-1 $-1 $437 $180 #
plane-surface $-1 0 -237.7318643757439 0 0 1 0 0 0 1 forward_v I I I I #
coedge $-1 $438 $439 $440 $441 forward $181 $-1 #
coedge $-1 $442 $183 $443 $444 forward $115 $-1 #
coedge $-1 $183 $442 $445 $446 forward $115 $-1 #
coedge $-1 $447 $448 $183 $286 reversed $449 $-1 #
edge $-1 $450 -237.7318643757439 $451 237.7318643757439 $285 $452 forward 7 unknown #
loop $-1 $453 $454 $184 #
cone-surface $-1 0 0 0 0 0 1 0.5 0 0 1 I I -0.70710678118654746 0.70710678118654746 0.5 forward I I I I #
coedge $-1 $289 $289 $188 $291 forward $185 $-1 #
coedge $-1 $290 $290 $454 $455 forward $187 $-1 #
edge $-1 $456 0 $456 6.2831853071796004 $289 $457 forward 7 unknown #
loop $-1 $458 $459 $189 #
cone-surface $-1 0 0 0 0 0 1 0.5 0 0 1 I I -0.70710678118654746 0.70710678118654746 0.5 forward I I I I #
coedge $-1 $294 $294 $193 $296 forward $190 $-1 #
coedge $-1 $295 $295 $459 $460 forward $192 $-1 #
edge $-1 $461 0 $461 6.2831853071796004 $294 $462 forward 7 unknown #
face $-1 $463 $464 $65 $-1 $465 reversed single #
loop $-1 $-1 $466 $194 #
plane-surface $-1 0 -237.7318643757439 0 0 1 0 0 0 1 forward_v I I I I #
coedge $-1 $467 $468 $469 $470 forward $195 $-1 #
coedge $-1 $471 $197 $472 $473 forward $124 $-1 #
coedge $-1 $197 $471 $474 $475 forward $124 $-1 #
coedge $-1 $476 $477 $197 $304 reversed $478 $-1 #
edge $-1 $479 -237.7318643757439 $480 237.7318643757439 $303 $481 forward 7 unknown #
loop $-1 $482 $483 $198 #
cone-surface $-1 0 0 0 0 0 1 0.5 0 0 1 I I -0.70710678118654746 0.70710678118654746 0.5 forward I I I I #
coedge $-1 $307 $307 $202 $309 forward $199 $-1 #
coedge $-1 $308 $308 $483 $484 forward $201 $-1 #
edge $-1 $485 0 $485 6.2831853071796004 $307 $486 forward 7 unknown #
loop $-1 $487 $488 $203 #
cone-surface $-1 0 0 0 0 0 1 0.5 0 0 1 I I -0.70710678118654746 0.70710678118654746 0.5 forward I I I I #
coedge $-1 $312 $312 $207 $314 forward $204 $-1 #
coedge $-1 $313 $313 $488 $489 forward $206 $-1 #
edge $-1 $490 0 $490 6.2831853071796004 $312 $491 forward 7 unknown #
face $-1 $492 $493 $68 $-1 $494 reversed single #
loop $-1 $-1 $495 $208 #
plane-surface $-1 0 -237.7318643757439 0 0 1 0 0 0 1 forward_v I I I I #
coedge $-1 $496 $497 $498 $499 forward $209 $-1 #
coedge $-1 $500 $211 $501 $502 forward $133 $-1 #
coedge $-1 $211 $500 $503 $504 forward $133 $-1 #
coedge $-1 $505 $506 $211 $322 reversed $507 $-1 #
edge $-1 $508 -237.7318643757439 $509 237.7318643757439 $321 $510 forward 7 unknown #
loop $-1 $511 $512 $212 #
cone-surface $-1 0 0 0 0 0 1 0.75 0 0 1 I I -0.70710678118654757 0.70710678118654757 0.75 forward I I I I #
coedge $-1 $325 $325 $216 $327 forward $213 $-1 #
coedge $-1 $326 $326 $512 $513 forward $215 $-1 #
edge $-1 $514 0 $514 6.2831853071796004 $325 $515 forward 7 unknown #
loop $-1 $516 $517 $217 #
cone-surface $-1 0 0 0 0 0 1 0.75 0 0 1 I I -0.70710678118654757 0.70710678118654757 0.75 forward I I I I #
coedge $-1 $330 $330 $221 $332 forward $218 $-1 #
coedge $-1 $331 $331 $517 $518 forward $220 $-1 #
edge $-1 $519 0 $519 6.2831853071796004 $330 $520 forward 7 unknown #
loop $-1 $521 $522 $222 #
cone-surface $-1 0 0 0 0 0 1 0.75 0 0 1 I I -0.70710678118654757 0.70710678118654757 0.75 forward I I I I #
coedge $-1 $335 $335 $226 $337 forward $223 $-1 #
coedge $-1 $336 $336 $522 $523 forward $225 $-1 #
edge $-1 $524 0 $524 6.2831853071796004 $335 $525 forward 7 unknown #
face $-1 $526 $527 $54 $-1 $528 reversed single #
loop $-1 $-1 $529 $227 #
plane-surface $-1 -59.432966093935974 0 0 1 0 0 0 0 -1 forward_v I I I I #
coedge $-1 $530 $349 $531 $532 forward $228 $-1 #
coedge $-1 $533 $230 $530 $534 forward $145 $-1 #
coedge $-1 $230 $533 $535 $536 forward $145 $-1 #
coedge $-1 $352 $351 $230 $345 reversed $353 $-1 #
edge $-1 $537 -34.558074172018898 $538 34.558074172018898 $344 $539 forward 7 unknown #
coedge $-1 $232 $231 $540 $541 forward $91 $-1 #
coedge $-1 $542 $543 $231 $348 reversed $527 $-1 #
edge $-1 $355 -59.432966093935974 $544 59.432966093935974 $347 $545 forward 7 unknown #
coedge $-1 $341 $546 $232 $350 reversed $228 $-1 #
edge $-1 $547 -59.432966093935974 $354 59.432966093935974 $349 $548 forward 7 unknown #
coedge $-1 $344 $233 $546 $549 forward $353 $-1 #
coedge $-1 $233 $344 $542 $550 reversed $353 $-1 #
loop $-1 $-1 $351 $526 #
vertex $-1 $234 $551 #
vertex $-1 $234 $552 #
straight-curve $-1 59.432966093935974 0 8.0633045525911218 0 1 0 I I #
face $-1 $553 $554 $55 $-1 $555 reversed single #
loop $-1 $-1 $556 $235 #
plane-surface $-1 -4.4957493817371565 0 0 1 0 0 0 0 -1 forward_v I I I I #
coedge $-1 $557 $368 $558 $559 forward $236 $-1 #
coedge $-1 $560 $238 $557 $561 forward $149 $-1 #
coedge $-1 $238 $560 $562 $563 forward $149 $-1 #
coedge $-1 $371 $370 $238 $364 reversed $372 $-1 #
edge $-1 $564 -34.558074172018898 $565 34.558074172018898 $363 $566 forward 7 unknown #
coedge $-1 $240 $239 $567 $568 forward $94 $-1 #
coedge $-1 $569 $570 $239 $367 reversed $554 $-1 #
edge $-1 $374 -4.4957493817371565 $571 4.4957493817371565 $366 $572 forward 7 unknown #
coedge $-1 $360 $573 $240 $369 reversed $236 $-1 #
edge $-1 $574 -4.4957493817371565 $373 4.4957493817371565 $368 $575 forward 7 unknown #
coedge $-1 $363 $241 $573 $576 forward $372 $-1 #
coedge $-1 $241 $363 $569 $577 reversed $372 $-1 #
loop $-1 $-1 $370 $553 #
vertex $-1 $242 $578 #
vertex $-1 $242 $579 #
straight-curve $-1 4.4957493817371565 0 1.4999999999999996 0 1 0 I I #
face $-1 $580 $581 $56 $-1 $582 reversed single #
loop $-1 $-1 $583 $243 #
plane-surface $-1 -6.1286089217613382 0 0 1 0 0 0 0 -1 forward_v I I I I #
coedge $-1 $584 $387 $585 $586 forward $244 $-1 #
coedge $-1 $587 $246 $584 $588 forward $153 $-1 #
coedge $-1 $246 $587 $589 $590 forward $153 $-1 #
coedge $-1 $390 $389 $246 $383 reversed $391 $-1 #
edge $-1 $591 -237.7318643757439 $592 237.7318643757439 $382 $593 forward 7 unknown #
coedge $-1 $248 $247 $594 $595 forward $97 $-1 #
coedge $-1 $596 $597 $247 $386 reversed $581 $-1 #
edge $-1 $393 -6.1286089217613382 $598 6.1286089217613382 $385 $599 forward 7 unknown #
coedge $-1 $379 $600 $248 $388 reversed $244 $-1 #
edge $-1 $601 -6.1286089217613382 $392 6.1286089217613382 $387 $602 forward 7 unknown #
coedge $-1 $382 $249 $600 $603 forward $391 $-1 #
coedge $-1 $249 $382 $596 $604 reversed $391 $-1 #
loop $-1 $-1 $389 $580 #
vertex $-1 $250 $605 #
vertex $-1 $250 $606 #
straight-curve $-1 6.1286089217613382 0 118.86593218787195 0 1 0 I I #
loop $-1 $-1 $607 $156 #
coedge $-1 $396 $396 $254 $397 reversed $251 $-1 #
edge $-1 $608 0 $608 6.2831853071796004 $396 $609 forward 7 unknown #
vertex $-1 $255 $610 #
ellipse-curve $-1 0 0 -3.0486617633594779 0 0 -1 1 0 0 1 I I #
loop $-1 $-1 $611 $161 #
coedge $-1 $401 $401 $259 $402 reversed $256 $-1 #
edge $-1 $612 0 $612 6.2831853071796004 $401 $613 forward 7 unknown #
vertex $-1 $260 $614 #
ellipse-curve $-1 0 0 -3.0486617633594779 0 0 -1 1 0 0 1 I I #
face $-1 $615 $616 $59 $-1 $617 reversed single #
loop $-1 $-1 $618 $261 #
plane-surface $-1 -6.1286089217613382 0 0 1 0 0 0 0 -1 forward_v I I I I #
coedge $-1 $619 $416 $620 $621 forward $262 $-1 #
coedge $-1 $622 $264 $619 $623 forward $167 $-1 #
coedge $-1 $264 $622 $624 $625 forward $167 $-1 #
coedge $-1 $419 $418 $264 $412 reversed $420 $-1 #
edge $-1 $626 -237.7318643757439 $627 237.7318643757439 $411 $628 forward 7 unknown #
coedge $-1 $266 $265 $629 $630 forward $106 $-1 #
coedge $-1 $631 $632 $265 $415 reversed $616 $-1 #
edge $-1 $422 -6.1286089217613382 $633 6.1286089217613382 $414 $634 forward 7 unknown #
coedge $-1 $408 $635 $266 $417 reversed $262 $-1 #
edge $-1 $636 -6.1286089217613382 $421 6.1286089217613382 $416 $637 forward 7 unknown #
coedge $-1 $411 $267 $635 $638 forward $420 $-1 #
coedge $-1 $267 $411 $631 $639 reversed $420 $-1 #
loop $-1 $-1 $418 $615 #
vertex $-1 $268 $640 #
vertex $-1 $268 $641 #
straight-curve $-1 6.1286089217613382 0 118.86593218787195 0 1 0 I I #
loop $-1 $-1 $642 $170 #
coedge $-1 $425 $425 $272 $426 reversed $269 $-1 #
edge $-1 $643 0 $643 6.2831853071796004 $425 $644 forward 7 unknown #
vertex $-1 $273 $645 #
ellipse-curve $-1 0 0 -3.0486617633594779 0 0 -1 1 0 0 1 I I #
loop $-1 $-1 $646 $175 #
coedge $-1 $430 $430 $277 $431 reversed $274 $-1 #
edge $-1 $647 0 $647 6.2831853071796004 $430 $648 forward 7 unknown #
vertex $-1 $278 $649 #
ellipse-curve $-1 0 0 -3.0486617633594779 0 0 -1 1 0 0 1 I I #
face $-1 $650 $651 $62 $-1 $652 reversed single #
loop $-1 $-1 $653 $279 #
plane-surface $-1 -6.1286089217613382 0 0 1 0 0 0 0 -1 forward_v I I I I #
coedge $-1 $654 $445 $655 $656 forward $280 $-1 #
coedge $-1 $657 $282 $654 $658 forward $181 $-1 #
coedge $-1 $282 $657 $659 $660 forward $181 $-1 #
coedge $-1 $448 $447 $282 $441 reversed $449 $-1 #
edge $-1 $661 -237.7318643757439 $662 237.7318643757439 $440 $663 forward 7 unknown #
coedge $-1 $284 $283 $664 $665 forward $115 $-1 #
coedge $-1 $666 $667 $283 $444 reversed $651 $-1 #
edge $-1 $451 -6.1286089217613382 $668 6.1286089217613382 $443 $669 forward 7 unknown #
coedge $-1 $437 $670 $284 $446 reversed $280 $-1 #
edge $-1 $671 -6.1286089217613382 $450 6.1286089217613382 $445 $672 forward 7 unknown #
coedge $-1 $440 $285 $670 $673 forward $449 $-1 #
coedge $-1 $285 $440 $666 $674 reversed $449 $-1 #
loop $-1 $-1 $447 $650 #
vertex $-1 $286 $675 #
vertex $-1 $286 $676 #
straight-curve $-1 6.1286089217613382 0 118.86593218787195 0 1 0 I I #
loop $-1 $-1 $677 $184 #
coedge $-1 $454 $454 $290 $455 reversed $287 $-1 #
edge $-1 $678 0 $678 6.2831853071796004 $454 $679 forward 7 unknown #
vertex $-1 $291 $680 #
ellipse-curve $-1 0 0 -3.0486617633594779 0 0 -1 1 0 0 1 I I #
loop $-1 $-1 $681 $189 #
coedge $-1 $459 $459 $295 $460 reversed $292 $-1 #
edge $-1 $682 0 $682 6.2831853071796004 $459 $683 forward 7 unknown #
vertex $-1 $296 $684 #
ellipse-curve $-1 0 0 -3.0486617633594779 0 0 -1 1 0 0 1 I I #
face $-1 $685 $686 $65 $-1 $687 reversed single #
loop $-1 $-1 $688 $297 #
plane-surface $-1 -6.1286089217613382 0 0 1 0 0 0 0 -1 forward_v I I I I #
coedge $-1 $689 $474 $690 $691 forward $298 $-1 #
coedge $-1 $692 $300 $689 $693 forward $195 $-1 #
coedge $-1 $300 $692 $694 $695 forward $195 $-1 #
coedge $-1 $477 $476 $300 $470 reversed $478 $-1 #
edge $-1 $696 -237.7318643757439 $697 237.7318643757439 $469 $698 forward 7 unknown #
coedge $-1 $302 $301 $699 $700 forward $124 $-1 #
coedge $-1 $701 $702 $301 $473 reversed $686 $-1 #
edge $-1 $480 -6.1286089217613382 $703 6.1286089217613382 $472 $704 forward 7 unknown #
coedge $-1 $466 $705 $302 $475 reversed $298 $-1 #
edge $-1 $706 -6.1286089217613382 $479 6.1286089217613382 $474 $707 forward 7 unknown #
coedge $-1 $469 $303 $705 $708 forward $478 $-1 #
coedge $-1 $303 $469 $701 $709 reversed $478 $-1 #
loop $-1 $-1 $476 $685 #
vertex $-1 $304 $710 #
vertex $-1 $304 $711 #
straight-curve $-1 6.1286089217613382 0 118.86593218787195 0 1 0 I I #
loop $-1 $-1 $712 $198 #
coedge $-1 $483 $483 $308 $484 reversed $305 $-1 #
edge $-1 $713 0 $713 6.2831853071796004 $483 $714 forward 7 unknown #
vertex $-1 $309 $715 #
ellipse-curve $-1 0 0 -3.0486617633594779 0 0 -1 1 0 0 1 I I #
loop $-1 $-1 $716 $203 #
coedge $-1 $488 $488 $313 $489 reversed $310 $-1 #
edge $-1 $717 0 $717 6.2831853071796004 $488 $718 forward 7 unknown #
vertex $-1 $314 $719 #
ellipse-curve $-1 0 0 -3.0486617633594779 0 0 -1 1 0 0 1 I I #
face $-1 $720 $721 $68 $-1 $722 reversed single #
loop $-1 $-1 $723 $315 #
plane-surface $-1 -14.50512193321293 0 0 1 0 0 0 0 -1 forward_v I I I I #
coedge $-1 $724 $503 $725 $726 forward $316 $-1 #
coedge $-1 $727 $318 $724 $728 forward $209 $-1 #
coedge $-1 $318 $727 $729 $730 forward $209 $-1 #
coedge $-1 $506 $505 $318 $499 reversed $507 $-1 #
edge $-1 $731 -237.7318643757439 $732 237.7318643757439 $498 $733 forward 7 unknown #
coedge $-1 $320 $319 $734 $735 forward $133 $-1 #
coedge $-1 $736 $737 $319 $502 reversed $721 $-1 #
edge $-1 $509 -14.50512193321293 $738 14.50512193321293 $501 $739 forward 7 unknown #
coedge $-1 $495 $740 $320 $504 reversed $316 $-1 #
edge $-1 $741 -14.50512193321293 $508 14.50512193321293 $503 $742 forward 7 unknown #
coedge $-1 $498 $321 $740 $743 forward $507 $-1 #
coedge $-1 $321 $498 $736 $744 reversed $507 $-1 #
loop $-1 $-1 $505 $720 #
vertex $-1 $322 $745 #
vertex $-1 $322 $746 #
straight-curve $-1 14.50512193321293 0 118.86593218787195 0 1 0 I I #
loop $-1 $-1 $747 $212 #
coedge $-1 $512 $512 $326 $513 reversed $323 $-1 #
edge $-1 $748 0 $748 6.2831853071796004 $512 $749 forward 7 unknown #
vertex $-1 $327 $750 #
ellipse-curve $-1 0 0 -4.9980391857661672 0 0 -1 1.5 0 0 1 I I #
loop $-1 $-1 $751 $217 #
coedge $-1 $517 $517 $331 $518 reversed $328 $-1 #
edge $-1 $752 0 $752 6.2831853071796004 $517 $753 forward 7 unknown #
vertex $-1 $332 $754 #
ellipse-curve $-1 0 0 -4.9980391857661672 0 0 -1 1.5 0 0 1 I I #
loop $-1 $-1 $755 $222 #
coedge $-1 $522 $522 $336 $523 reversed $333 $-1 #
edge $-1 $756 0 $756 6.2831853071796004 $522 $757 forward 7 unknown #
vertex $-1 $337 $758 #
ellipse-curve $-1 0 0 -4.9980391857661672 0 0 -1 1.5 0 0 1 I I #
face $-1 $-1 $353 $54 $-1 $759 reversed single #
loop $-1 $-1 $542 $338 #
plane-surface $-1 0 34.558074172018898 0 0 -1 0 0 0 -1 forward_v I I I I #
coedge $-1 $760 $540 $543 $761 forward $339 $-1 #
coedge $-1 $546 $341 $342 $534 reversed $228 $-1 #
coedge $-1 $540 $760 $341 $532 reversed $339 $-1 #
edge $-1 $547 -8.0633045525911218 $762 8.0633045525911218 $531 $763 forward 7 unknown #
coedge $-1 $343 $342 $760 $764 forward $145 $-1 #
edge $-1 $538 -59.432966093935974 $762 59.432966093935974 $530 $765 forward 7 unknown #
coedge $-1 $543 $542 $343 $536 reversed $527 $-1 #
edge $-1 $766 -59.432966093935974 $537 59.432966093935974 $535 $767 forward 7 unknown #
vertex $-1 $345 $768 #
vertex $-1 $549 $769 #
straight-curve $-1 59.432966093935974 0 -8.0633045525911218 0 -1 0 I I #
coedge $-1 $529 $531 $346 $541 reversed $339 $-1 #
edge $-1 $544 -34.558074172018898 $547 34.558074172018898 $540 $770 forward 7 unknown #
coedge $-1 $535 $347 $352 $550 forward $527 $-1 #
coedge $-1 $347 $535 $529 $761 reversed $527 $-1 #
vertex $-1 $348 $771 #
straight-curve $-1 0 34.558074172018898 8.0633045525911218 -1 0 0 I I #
coedge $-1 $349 $530 $351 $549 reversed $228 $-1 #
vertex $-1 $541 $772 #
straight-curve $-1 0 -34.558074172018898 8.0633045525911218 1 0 0 I I #
edge $-1 $354 -8.0633045525911218 $538 8.0633045525911218 $351 $773 forward 7 unknown #
edge $-1 $355 -8.0633045525911218 $537 8.0633045525911218 $352 $774 forward 7 unknown #
point $-1 59.432966093935974 -34.558074172018898 8.0633045525911218 #
point $-1 59.432966093935974 34.558074172018898 8.0633045525911218 #
face $-1 $-1 $372 $55 $-1 $775 reversed single #
loop $-1 $-1 $569 $357 #
plane-surface $-1 0 34.558074172018898 0 0 -1 0 0 0 -1 forward_v I I I I #
coedge $-1 $776 $567 $570 $777 forward $358 $-1 #
coedge $-1 $573 $360 $361 $561 reversed $236 $-1 #
coedge $-1 $567 $776 $360 $559 reversed $358 $-1 #
edge $-1 $574 -1.4999999999999996 $778 1.4999999999999996 $558 $779 forward 7 unknown #
coedge $-1 $362 $361 $776 $780 forward $149 $-1 #
edge $-1 $565 -4.4957493817371565 $778 4.4957493817371565 $557 $781 forward 7 unknown #
coedge $-1 $570 $569 $362 $563 reversed $554 $-1 #
edge $-1 $782 -4.4957493817371565 $564 4.4957493817371565 $562 $783 forward 7 unknown #
vertex $-1 $364 $784 #
vertex $-1 $576 $785 #
straight-curve $-1 4.4957493817371565 0 -1.4999999999999996 0 -1 0 I I #
coedge $-1 $556 $558 $365 $568 reversed $358 $-1 #
edge $-1 $571 -34.558074172018898 $574 34.558074172018898 $567 $786 forward 7 unknown #
coedge $-1 $562 $366 $371 $577 forward $554 $-1 #
coedge $-1 $366 $562 $556 $777 reversed $554 $-1 #
vertex $-1 $367 $787 #
straight-curve $-1 0 34.558074172018898 1.4999999999999996 -1 0 0 I I #
coedge $-1 $368 $557 $370 $576 reversed $236 $-1 #
vertex $-1 $568 $788 #
straight-curve $-1 0 -34.558074172018898 1.4999999999999996 1 0 0 I I #
edge $-1 $373 -1.4999999999999996 $565 1.4999999999999996 $370 $789 forward 7 unknown #
edge $-1 $374 -1.4999999999999996 $564 1.4999999999999996 $371 $790 forward 7 unknown #
point $-1 4.4957493817371565 -34.558074172018898 1.4999999999999996 #
point $-1 4.4957493817371565 34.558074172018898 1.4999999999999996 #
face $-1 $-1 $391 $56 $-1 $791 reversed single #
loop $-1 $-1 $596 $376 #
plane-surface $-1 0 237.7318643757439 0 0 -1 0 0 0 -1 forward_v I I I I #
coedge $-1 $792 $594 $597 $793 forward $377 $-1 #
coedge $-1 $600 $379 $380 $588 reversed $244 $-1 #
coedge $-1 $594 $792 $379 $586 reversed $377 $-1 #
edge $-1 $601 -118.86593218787195 $794 118.86593218787195 $585 $795 forward 7 unknown #
coedge $-1 $381 $380 $792 $796 forward $153 $-1 #
edge $-1 $592 -6.1286089217613382 $794 6.1286089217613382 $584 $797 forward 7 unknown #
coedge $-1 $597 $596 $381 $590 reversed $581 $-1 #
edge $-1 $798 -6.1286089217613382 $591 6.1286089217613382 $589 $799 forward 7 unknown #
vertex $-1 $383 $800 #
vertex $-1 $603 $801 #
straight-curve $-1 6.1286089217613382 0 -118.86593218787195 0 -1 0 I I #
coedge $-1 $583 $585 $384 $595 reversed $377 $-1 #
edge $-1 $598 -237.7318643757439 $601 237.7318643757439 $594 $802 forward 7 unknown #
coedge $-1 $589 $385 $390 $604 forward $581 $-1 #
coedge $-1 $385 $589 $583 $793 reversed $581 $-1 #
vertex $-1 $386 $803 #
straight-curve $-1 0 237.7318643757439 118.86593218787195 -1 0 0 I I #
coedge $-1 $387 $584 $389 $603 reversed $244 $-1 #
vertex $-1 $595 $804 #
straight-curve $-1 0 -237.7318643757439 118.86593218787195 1 0 0 I I #
edge $-1 $392 -118.86593218787195 $592 118.86593218787195 $389 $805 forward 7 unknown #
edge $-1 $393 -118.86593218787195 $591 118.86593218787195 $390 $806 forward 7 unknown #
point $-1 6.1286089217613382 -237.7318643757439 118.86593218787195 #
point $-1 6.1286089217613382 237.7318643757439 118.86593218787195 #
coedge $-1 $607 $607 $-1 $807 reversed $395 $-1 #
vertex $-1 $397 $808 #
ellipse-curve $-1 0 0 -0.5 0 0 -1 1 0 0 1 I I #
point $-1 1 0 -3.0486617633594779 #
coedge $-1 $611 $611 $-1 $809 reversed $400 $-1 #
vertex $-1 $402 $810 #
ellipse-curve $-1 0 0 -0.5 0 0 -1 1 0 0 1 I I #
point $-1 1 0 -3.0486617633594779 #
face $-1 $-1 $420 $59 $-1 $811 reversed single #
loop $-1 $-1 $631 $405 #
plane-surface $-1 0 237.7318643757439 0 0 -1 0 0 0 -1 forward_v I I I I #
coedge $-1 $812 $629 $632 $813 forward $406 $-1 #
coedge $-1 $635 $408 $409 $623 reversed $262 $-1 #
coedge $-1 $629 $812 $408 $621 reversed $406 $-1 #
edge $-1 $636 -118.86593218787195 $814 118.86593218787195 $620 $815 forward 7 unknown #
coedge $-1 $410 $409 $812 $816 forward $167 $-1 #
edge $-1 $627 -6.1286089217613382 $814 6.1286089217613382 $619 $817 forward 7 unknown #
coedge $-1 $632 $631 $410 $625 reversed $616 $-1 #
edge $-1 $818 -6.1286089217613382 $626 6.1286089217613382 $624 $819 forward 7 unknown #
vertex $-1 $412 $820 #
vertex $-1 $638 $821 #
straight-curve $-1 6.1286089217613382 0 -118.86593218787195 0 -1 0 I I #
coedge $-1 $618 $620 $413 $630 reversed $406 $-1 #
edge $-1 $633 -237.7318643757439 $636 237.7318643757439 $629 $822 forward 7 unknown #
coedge $-1 $624 $414 $419 $639 forward $616 $-1 #
coedge $-1 $414 $624 $618 $813 reversed $616 $-1 #
vertex $-1 $415 $823 #
straight-curve $-1 0 237.7318643757439 118.86593218787195 -1 0 0 I I #
coedge $-1 $416 $619 $418 $638 reversed $262 $-1 #
vertex $-1 $630 $824 #
straight-curve $-1 0 -237.7318643757439 118.86593218787195 1 0 0 I I #
edge $-1 $421 -118.86593218787195 $627 118.86593218787195 $418 $825 forward 7 unknown #
edge $-1 $422 -118.86593218787195 $626 118.86593218787195 $419 $826 forward 7 unknown #
point $-1 6.1286089217613382 -237.7318643757439 118.86593218787195 #
point $-1 6.1286089217613382 237.7318643757439 118.86593218787195 #
coedge $-1 $642 $642 $-1 $827 reversed $424 $-1 #
vertex $-1 $426 $828 #
ellipse-curve $-1 0 0 -0.5 0 0 -1 1 0 0 1 I I #
point $-1 1 0 -3.0486617633594779 #
coedge $-1 $646 $646 $-1 $829 reversed $429 $-1 #
vertex $-1 $431 $830 #
ellipse-curve $-1 0 0 -0.5 0 0 -1 1 0 0 1 I I #
point $-1 1 0 -3.0486617633594779 #
face $-1 $-1 $449 $62 $-1 $831 reversed single #
loop $-1 $-1 $666 $434 #
plane-surface $-1 0 237.7318643757439 0 0 -1 0 0 0 -1 forward_v I I I I #
coedge $-1 $832 $664 $667 $833 forward $435 $-1 #
coedge $-1 $670 $437 $438 $658 reversed $280 $-1 #
coedge $-1 $664 $832 $437 $656 reversed $435 $-1 #
edge $-1 $671 -118.86593218787195 $834 118.86593218787195 $655 $835 forward 7 unknown #
coedge $-1 $439 $438 $832 $836 forward $181 $-1 #
edge $-1 $662 -6.1286089217613382 $834 6.1286089217613382 $654 $837 forward 7 unknown #
coedge $-1 $667 $666 $439 $660 reversed $651 $-1 #
edge $-1 $838 -6.1286089217613382 $661 6.1286089217613382 $659 $839 forward 7 unknown #
vertex $-1 $441 $840 #
vertex $-1 $673 $841 #
straight-curve $-1 6.1286089217613382 0 -118.86593218787195 0 -1 0 I I #
coedge $-1 $653 $655 $442 $665 reversed $435 $-1 #
edge $-1 $668 -237.7318643757439 $671 237.7318643757439 $664 $842 forward 7 unknown #
coedge $-1 $659 $443 $448 $674 forward $651 $-1 #
coedge $-1 $443 $659 $653 $833 reversed $651 $-1 #
vertex $-1 $444 $843 #
straight-curve $-1 0 237.7318643757439 118.86593218787195 -1 0 0 I I #
coedge $-1 $445 $654 $447 $673 reversed $280 $-1 #
vertex $-1 $665 $844 #
straight-curve $-1 0 -237.7318643757439 118.86593218787195 1 0 0 I I #
edge $-1 $450 -118.86593218787195 $662 118.86593218787195 $447 $845 forward 7 unknown #
edge $-1 $451 -118.86593218787195 $661 118.86593218787195 $448 $846 forward 7 unknown #
point $-1 6.1286089217613382 -237.7318643757439 118.86593218787195 #
point $-1 6.1286089217613382 237.7318643757439 118.86593218787195 #
coedge $-1 $677 $677 $-1 $847 reversed $453 $-1 #
vertex $-1 $455 $848 #
ellipse-curve $-1 0 0 -0.5 0 0 -1 1 0 0 1 I I #
point $-1 1 0 -3.0486617633594779 #
coedge $-1 $681 $681 $-1 $849 reversed $458 $-1 #
vertex $-1 $460 $850 #
ellipse-curve $-1 0 0 -0.5 0 0 -1 1 0 0 1 I I #
point $-1 1 0 -3.0486617633594779 #
face $-1 $-1 $478 $65 $-1 $851 reversed single #
loop $-1 $-1 $701 $463 #
plane-surface $-1 0 237.7318643757439 0 0 -1 0 0 0 -1 forward_v I I I I #
coedge $-1 $852 $699 $702 $853 forward $464 $-1 #
coedge $-1 $705 $466 $467 $693 reversed $298 $-1 #
coedge $-1 $699 $852 $466 $691 reversed $464 $-1 #
edge $-1 $706 -118.86593218787195 $854 118.86593218787195 $690 $855 forward 7 unknown #
coedge $-1 $468 $467 $852 $856 forward $195 $-1 #
edge $-1 $697 -6.1286089217613382 $854 6.1286089217613382 $689 $857 forward 7 unknown #
coedge $-1 $702 $701 $468 $695 reversed $686 $-1 #
edge $-1 $858 -6.1286089217613382 $696 6.1286089217613382 $694 $859 forward 7 unknown #
vertex $-1 $470 $860 #
vertex $-1 $708 $861 #
straight-curve $-1 6.1286089217613382 0 -118.86593218787195 0 -1 0 I I #
coedge $-1 $688 $690 $471 $700 reversed $464 $-1 #
edge $-1 $703 -237.7318643757439 $706 237.7318643757439 $699 $862 forward 7 unknown #
coedge $-1 $694 $472 $477 $709 forward $686 $-1 #
coedge $-1 $472 $694 $688 $853 reversed $686 $-1 #
vertex $-1 $473 $863 #
straight-curve $-1 0 237.7318643757439 118.86593218787195 -1 0 0 I I #
coedge $-1 $474 $689 $476 $708 reversed $298 $-1 #
vertex $-1 $700 $864 #
straight-curve $-1 0 -237.7318643757439 118.86593218787195 1 0 0 I I #
edge $-1 $479 -118.86593218787195 $697 118.86593218787195 $476 $865 forward 7 unknown #
edge $-1 $480 -118.86593218787195 $696 118.86593218787195 $477 $866 forward 7 unknown #
point $-1 6.1286089217613382 -237.7318643757439 118.86593218787195 #
point $-1 6.1286089217613382 237.7318643757439 118.86593218787195 #
coedge $-1 $712 $712 $-1 $867 reversed $482 $-1 #
vertex $-1 $484 $868 #
ellipse-curve $-1 0 0 -0.5 0 0 -1 1 0 0 1 I I #
point $-1 1 0 -3.0486617633594779 #
coedge $-1 $716 $716 $-1 $869 reversed $487 $-1 #
vertex $-1 $489 $870 #
ellipse-curve $-1 0 0 -0.5 0 0 -1 1 0 0 1 I I #
point $-1 1 0 -3.0486617633594779 #
face $-1 $-1 $507 $68 $-1 $871 reversed single #
loop $-1 $-1 $736 $492 #
plane-surface $-1 0 237.7318643757439 0 0 -1 0 0 0 -1 forward_v I I I I #
coedge $-1 $872 $734 $737 $873 forward $493 $-1 #
coedge $-1 $740 $495 $496 $728 reversed $316 $-1 #
coedge $-1 $734 $872 $495 $726 reversed $493 $-1 #
edge $-1 $741 -118.86593218787195 $874 118.86593218787195 $725 $875 forward 7 unknown #
coedge $-1 $497 $496 $872 $876 forward $209 $-1 #
edge $-1 $732 -14.50512193321293 $874 14.50512193321293 $724 $877 forward 7 unknown #
coedge $-1 $737 $736 $497 $730 reversed $721 $-1 #
edge $-1 $878 -14.50512193321293 $731 14.50512193321293 $729 $879 forward 7 unknown #
vertex $-1 $499 $880 #
vertex $-1 $743 $881 #
straight-curve $-1 14.50512193321293 0 -118.86593218787195 0 -1 0 I I #
coedge $-1 $723 $725 $500 $735 reversed $493 $-1 #
edge $-1 $738 -237.7318643757439 $741 237.7318643757439 $734 $882 forward 7 unknown #
coedge $-1 $729 $501 $506 $744 forward $721 $-1 #
coedge $-1 $501 $729 $723 $873 reversed $721 $-1 #
vertex $-1 $502 $883 #
straight-curve $-1 0 237.7318643757439 118.86593218787195 -1 0 0 I I #
coedge $-1 $503 $724 $505 $743 reversed $316 $-1 #
vertex $-1 $735 $884 #
straight-curve $-1 0 -237.7318643757439 118.86593218787195 1 0 0 I I #
edge $-1 $508 -118.86593218787195 $732 118.86593218787195 $505 $885 forward 7 unknown #
edge $-1 $509 -118.86593218787195 $731 118.86593218787195 $506 $886 forward 7 unknown #
point $-1 14.50512193321293 -237.7318643757439 118.86593218787195 #
point $-1 14.50512193321293 237.7318643757439 118.86593218787195 #
coedge $-1 $747 $747 $-1 $887 reversed $511 $-1 #
vertex $-1 $513 $888 #
ellipse-curve $-1 0 0 -0.75 0 0 -1 1.5 0 0 1 I I #
point $-1 1.5 0 -4.9980391857661672 #
coedge $-1 $751 $751 $-1 $889 reversed $516 $-1 #
vertex $-1 $518 $890 #
ellipse-curve $-1 0 0 -0.75 0 0 -1 1.5 0 0 1 I I #
point $-1 1.5 0 -4.9980391857661672 #
coedge $-1 $755 $755 $-1 $891 reversed $521 $-1 #
vertex $-1 $523 $892 #
ellipse-curve $-1 0 0 -0.75 0 0 -1 1.5 0 0 1 I I #
point $-1 1.5 0 -4.9980391857661672 #
plane-surface $-1 59.432966093935974 0 0 -1 0 0 0 0 1 forward_v I I I I #
coedge $-1 $531 $529 $533 $764 reversed $339 $-1 #
edge $-1 $544 -8.0633045525911218 $766 8.0633045525911218 $543 $893 forward 7 unknown #
vertex $-1 $764 $894 #
straight-curve $-1 -59.432966093935974 -34.558074172018898 0 0 0 -1 I I #
edge $-1 $762 -34.558074172018898 $766 34.558074172018898 $760 $895 forward 7 unknown #
straight-curve $-1 0 -34.558074172018898 -8.0633045525911218 -1 0 0 I I #
vertex $-1 $536 $896 #
straight-curve $-1 0 34.558074172018898 -8.0633045525911218 1 0 0 I I #
point $-1 59.432966093935974 34.558074172018898 -8.0633045525911218 #
point $-1 59.432966093935974 -34.558074172018898 -8.0633045525911218 #
straight-curve $-1 -59.432966093935974 0 8.0633045525911218 0 -1 0 I I #
point $-1 -59.432966093935974 34.558074172018898 8.0633045525911218 #
point $-1 -59.432966093935974 -34.558074172018898 8.0633045525911218 #
straight-curve $-1 59.432966093935974 -34.558074172018898 0 0 0 -1 I I #
straight-curve $-1 59.432966093935974 34.558074172018898 0 0 0 -1 I I #
plane-surface $-1 4.4957493817371565 0 0 -1 0 0 0 0 1 forward_v I I I I #
coedge $-1 $558 $556 $560 $780 reversed $358 $-1 #
edge $-1 $571 -1.4999999999999996 $782 1.4999999999999996 $570 $897 forward 7 unknown #
vertex $-1 $780 $898 #
straight-curve $-1 -4.4957493817371565 -34.558074172018898 0 0 0 -1 I I #
edge $-1 $778 -34.558074172018898 $782 34.558074172018898 $776 $899 forward 7 unknown #
straight-curve $-1 0 -34.558074172018898 -1.4999999999999996 -1 0 0 I I #
vertex $-1 $563 $900 #
straight-curve $-1 0 34.558074172018898 -1.4999999999999996 1 0 0 I I #
point $-1 4.4957493817371565 34.558074172018898 -1.4999999999999996 #
point $-1 4.4957493817371565 -34.558074172018898 -1.4999999999999996 #
straight-curve $-1 -4.4957493817371565 0 1.4999999999999996 0 -1 0 I I #
point $-1 -4.4957493817371565 34.558074172018898 1.4999999999999996 #
point $-1 -4.4957493817371565 -34.558074172018898 1.4999999999999996 #
straight-curve $-1 4.4957493817371565 -34.558074172018898 0 0 0 -1 I I #
straight-curve $-1 4.4957493817371565 34.558074172018898 0 0 0 -1 I I #
plane-surface $-1 6.1286089217613382 0 0 -1 0 0 0 0 1 forward_v I I I I #
coedge $-1 $585 $583 $587 $796 reversed $377 $-1 #
edge $-1 $598 -118.86593218787195 $798 118.86593218787195 $597 $901 forward 7 unknown #
vertex $-1 $796 $902 #
straight-curve $-1 -6.1286089217613382 -237.7318643757439 0 0 0 -1 I I #
edge $-1 $794 -237.7318643757439 $798 237.7318643757439 $792 $903 forward 7 unknown #
straight-curve $-1 0 -237.7318643757439 -118.86593218787195 -1 0 0 I I #
vertex $-1 $590 $904 #
straight-curve $-1 0 237.7318643757439 -118.86593218787195 1 0 0 I I #
point $-1 6.1286089217613382 237.7318643757439 -118.86593218787195 #
point $-1 6.1286089217613382 -237.7318643757439 -118.86593218787195 #
straight-curve $-1 -6.1286089217613382 0 118.86593218787195 0 -1 0 I I #
point $-1 -6.1286089217613382 237.7318643757439 118.86593218787195 #
point $-1 -6.1286089217613382 -237.7318643757439 118.86593218787195 #
straight-curve $-1 6.1286089217613382 -237.7318643757439 0 0 0 -1 I I #
straight-curve $-1 6.1286089217613382 237.7318643757439 0 0 0 -1 I I #
edge $-1 $905 1 $905 0 $607 $-1 forward 7 unknown #
point $-1 1 0 -0.5 #
edge $-1 $906 1 $906 0 $611 $-1 forward 7 unknown #
point $-1 1 0 -0.5 #
plane-surface $-1 6.1286089217613382 0 0 -1 0 0 0 0 1 forward_v I I I I #
coedge $-1 $620 $618 $622 $816 reversed $406 $-1 #
edge $-1 $633 -118.86593218787195 $818 118.86593218787195 $632 $907 forward 7 unknown #
vertex $-1 $816 $908 #
straight-curve $-1 -6.1286089217613382 -237.7318643757439 0 0 0 -1 I I #
edge $-1 $814 -237.7318643757439 $818 237.7318643757439 $812 $909 forward 7 unknown #
straight-curve $-1 0 -237.7318643757439 -118.86593218787195 -1 0 0 I I #
vertex $-1 $625 $910 #
straight-curve $-1 0 237.7318643757439 -118.86593218787195 1 0 0 I I #
point $-1 6.1286089217613382 237.7318643757439 -118.86593218787195 #
point $-1 6.1286089217613382 -237.7318643757439 -118.86593218787195 #
straight-curve $-1 -6.1286089217613382 0 118.86593218787195 0 -1 0 I I #
point $-1 -6.1286089217613382 237.7318643757439 118.86593218787195 #
point $-1 -6.1286089217613382 -237.7318643757439 118.86593218787195 #
straight-curve $-1 6.1286089217613382 -237.7318643757439 0 0 0 -1 I I #
straight-curve $-1 6.1286089217613382 237.7318643757439 0 0 0 -1 I I #
edge $-1 $911 1 $911 0 $642 $-1 forward 7 unknown #
point $-1 1 0 -0.5 #
edge $-1 $912 1 $912 0 $646 $-1 forward 7 unknown #
point $-1 1 0 -0.5 #
plane-surface $-1 6.1286089217613382 0 0 -1 0 0 0 0 1 forward_v I I I I #
coedge $-1 $655 $653 $657 $836 reversed $435 $-1 #
edge $-1 $668 -118.86593218787195 $838 118.86593218787195 $667 $913 forward 7 unknown #
vertex $-1 $836 $914 #
straight-curve $-1 -6.1286089217613382 -237.7318643757439 0 0 0 -1 I I #
edge $-1 $834 -237.7318643757439 $838 237.7318643757439 $832 $915 forward 7 unknown #
straight-curve $-1 0 -237.7318643757439 -118.86593218787195 -1 0 0 I I #
vertex $-1 $660 $916 #
straight-curve $-1 0 237.7318643757439 -118.86593218787195 1 0 0 I I #
point $-1 6.1286089217613382 237.7318643757439 -118.86593218787195 #
point $-1 6.1286089217613382 -237.7318643757439 -118.86593218787195 #
straight-curve $-1 -6.1286089217613382 0 118.86593218787195 0 -1 0 I I #
point $-1 -6.1286089217613382 237.7318643757439 118.86593218787195 #
point $-1 -6.1286089217613382 -237.7318643757439 118.86593218787195 #
straight-curve $-1 6.1286089217613382 -237.7318643757439 0 0 0 -1 I I #
straight-curve $-1 6.1286089217613382 237.7318643757439 0 0 0 -1 I I #
edge $-1 $917 1 $917 0 $677 $-1 forward 7 unknown #
point $-1 1 0 -0.5 #
edge $-1 $918 1 $918 0 $681 $-1 forward 7 unknown #
point $-1 1 0 -0.5 #
plane-surface $-1 6.1286089217613382 0 0 -1 0 0 0 0 1 forward_v I I I I #
coedge $-1 $690 $688 $692 $856 reversed $464 $-1 #
edge $-1 $703 -118.86593218787195 $858 118.86593218787195 $702 $919 forward 7 unknown #
vertex $-1 $856 $920 #
straight-curve $-1 -6.1286089217613382 -237.7318643757439 0 0 0 -1 I I #
edge $-1 $854 -237.7318643757439 $858 237.7318643757439 $852 $921 forward 7 unknown #
straight-curve $-1 0 -237.7318643757439 -118.86593218787195 -1 0 0 I I #
vertex $-1 $695 $922 #
straight-curve $-1 0 237.7318643757439 -118.86593218787195 1 0 0 I I #
point $-1 6.1286089217613382 237.7318643757439 -118.86593218787195 #
point $-1 6.1286089217613382 -237.7318643757439 -118.86593218787195 #
straight-curve $-1 -6.1286089217613382 0 118.86593218787195 0 -1 0 I I #
point $-1 -6.1286089217613382 237.7318643757439 118.86593218787195 #
point $-1 -6.1286089217613382 -237.7318643757439 118.86593218787195 #
straight-curve $-1 6.1286089217613382 -237.7318643757439 0 0 0 -1 I I #
straight-curve $-1 6.1286089217613382 237.7318643757439 0 0 0 -1 I I #
edge $-1 $923 1 $923 0 $712 $-1 forward 7 unknown #
point $-1 1 0 -0.5 #
edge $-1 $924 1 $924 0 $716 $-1 forward 7 unknown #
point $-1 1 0 -0.5 #
plane-surface $-1 14.50512193321293 0 0 -1 0 0 0 0 1 forward_v I I I I #
coedge $-1 $725 $723 $727 $876 reversed $493 $-1 #
edge $-1 $738 -118.86593218787195 $878 118.86593218787195 $737 $925 forward 7 unknown #
vertex $-1 $876 $926 #
straight-curve $-1 -14.50512193321293 -237.7318643757439 0 0 0 -1 I I #
edge $-1 $874 -237.7318643757439 $878 237.7318643757439 $872 $927 forward 7 unknown #
straight-curve $-1 0 -237.7318643757439 -118.86593218787195 -1 0 0 I I #
vertex $-1 $730 $928 #
straight-curve $-1 0 237.7318643757439 -118.86593218787195 1 0 0 I I #
point $-1 14.50512193321293 237.7318643757439 -118.86593218787195 #
point $-1 14.50512193321293 -237.7318643757439 -118.86593218787195 #
straight-curve $-1 -14.50512193321293 0 118.86593218787195 0 -1 0 I I #
point $-1 -14.50512193321293 237.7318643757439 118.86593218787195 #
point $-1 -14.50512193321293 -237.7318643757439 118.86593218787195 #
straight-curve $-1 14.50512193321293 -237.7318643757439 0 0 0 -1 I I #
straight-curve $-1 14.50512193321293 237.7318643757439 0 0 0 -1 I I #
edge $-1 $929 1 $929 0 $747 $-1 forward 7 unknown #
point $-1 1.5 0 -0.75 #
edge $-1 $930 1 $930 0 $751 $-1 forward 7 unknown #
point $-1 1.5 0 -0.75 #
edge $-1 $931 1 $931 0 $755 $-1 forward 7 unknown #
point $-1 1.5 0 -0.75 #
straight-curve $-1 -59.432966093935974 34.558074172018898 0 0 0 -1 I I #
point $-1 -59.432966093935974 -34.558074172018898 -8.0633045525911218 #
straight-curve $-1 -59.432966093935974 0 -8.0633045525911218 0 1 0 I I #
point $-1 -59.432966093935974 34.558074172018898 -8.0633045525911218 #
straight-curve $-1 -4.4957493817371565 34.558074172018898 0 0 0 -1 I I #
point $-1 -4.4957493817371565 -34.558074172018898 -1.4999999999999996 #
straight-curve $-1 -4.4957493817371565 0 -1.4999999999999996 0 1 0 I I #
point $-1 -4.4957493817371565 34.558074172018898 -1.4999999999999996 #
straight-curve $-1 -6.1286089217613382 237.7318643757439 0 0 0 -1 I I #
point $-1 -6.1286089217613382 -237.7318643757439 -118.86593218787195 #
straight-curve $-1 -6.1286089217613382 0 -118.86593218787195 0 1 0 I I #
point $-1 -6.1286089217613382 237.7318643757439 -118.86593218787195 #
vertex $-1 $807 $932 #
vertex $-1 $809 $933 #
straight-curve $-1 -6.1286089217613382 237.7318643757439 0 0 0 -1 I I #
point $-1 -6.1286089217613382 -237.7318643757439 -118.86593218787195 #
straight-curve $-1 -6.1286089217613382 0 -118.86593218787195 0 1 0 I I #
point $-1 -6.1286089217613382 237.7318643757439 -118.86593218787195 #
vertex $-1 $827 $934 #
vertex $-1 $829 $935 #
straight-curve $-1 -6.1286089217613382 237.7318643757439 0 0 0 -1 I I #
point $-1 -6.1286089217613382 -237.7318643757439 -118.86593218787195 #
straight-curve $-1 -6.1286089217613382 0 -118.86593218787195 0 1 0 I I #
point $-1 -6.1286089217613382 237.7318643757439 -118.86593218787195 #
vertex $-1 $847 $936 #
vertex $-1 $849 $937 #
straight-curve $-1 -6.1286089217613382 237.7318643757439 0 0 0 -1 I I #
point $-1 -6.1286089217613382 -237.7318643757439 -118.86593218787195 #
straight-curve $-1 -6.1286089217613382 0 -118.86593218787195 0 1 0 I I #
point $-1 -6.1286089217613382 237.7318643757439 -118.86593218787195 #
vertex $-1 $867 $938 #
vertex $-1 $869 $939 #
straight-curve $-1 -14.50512193321293 237.7318643757439 0 0 0 -1 I I #
point $-1 -14.50512193321293 -237.7318643757439 -118.86593218787195 #
straight-curve $-1 -14.50512193321293 0 -118.86593218787195 0 1 0 I I #
point $-1 -14.50512193321293 237.7318643757439 -118.86593218787195 #
vertex $-1 $887 $940 #
vertex $-1 $889 $941 #
vertex $-1 $891 $942 #
point $-1 0 0 0.5 #
point $-1 0 0 0.5 #
point $-1 0 0 0.5 #
point $-1 0 0 0.5 #
point $-1 0 0 0.5 #
point $-1 0 0 0.5 #
point $-1 0 0 0.5 #
point $-1 0 0 0.5 #
point $-1 0 0 0.75 #
point $-1 0 0 0.75 #
point $-1 0 0 0.75 #
End-of-ACIS-data 