500 0 12 0           
7 Unknown 11 ACIS 5.0 NT 24 Thu Mar 25 17:50:01 1999 
-1 9.9999999999999995e-007 1e-010 
body $-1 $12 $-1 $13 #
body $-1 $14 $-1 $15 #
body $-1 $16 $-1 $17 #
body $-1 $18 $-1 $19 #
body $-1 $20 $-1 $21 #
body $-1 $22 $-1 $23 #
body $-1 $24 $-1 $25 #
body $-1 $26 $-1 $27 #
body $-1 $28 $-1 $29 #
body $-1 $30 $-1 $31 #
body $-1 $32 $-1 $33 #
body $-1 $34 $-1 $35 #
lump $-1 $-1 $36 $0 #
transform $-1 1 0 0 0 1 0 0 0 1 73.740043336283463 45.295429799698219 13.858878170105729 1 rotate no_reflect no_shear #
lump $-1 $-1 $37 $1 #
transform $-1 1 0 0 0 1 0 0 0 1 73.740043336283463 45.295429799698219 13.858878170105729 1 rotate no_reflect no_shear #
lump $-1 $-1 $38 $2 #
transform $-1 1 0 0 0 1 0 0 0 1 73.740043336283463 45.295429799698219 13.858878170105729 1 rotate no_reflect no_shear #
lump $-1 $-1 $39 $3 #
transform $-1 1 0 0 0 1 0 0 0 1 73.740043336283463 45.295429799698219 13.858878170105729 1 rotate no_reflect no_shear #
lump $-1 $-1 $40 $4 #
transform $-1 1 0 0 0 1 0 0 0 1 73.740043336283463 45.295429799698219 13.858878170105729 1 rotate no_reflect no_shear #
lump $-1 $-1 $41 $5 #
transform $-1 1 0 0 0 1 0 0 0 1 73.740043336283463 45.295429799698219 13.858878170105729 1 rotate no_reflect no_shear #
lump $-1 $-1 $42 $6 #
transform $-1 1 0 0 0 1 0 0 0 1 73.740043336283463 45.295429799698219 13.858878170105729 1 rotate no_reflect no_shear #
lump $-1 $-1 $43 $7 #
transform $-1 1 0 0 0 1 0 0 0 1 73.740043336283463 45.295429799698219 13.858878170105729 1 rotate no_reflect no_shear #
lump $-1 $-1 $44 $8 #
transform $-1 1 0 0 0 1 0 0 0 1 73.740043336283463 45.295429799698219 13.858878170105729 1 rotate no_reflect no_shear #
lump $-1 $-1 $45 $9 #
transform $-1 1 0 0 0 1 0 0 0 1 73.740043336283463 45.295429799698219 13.858878170105729 1 rotate no_reflect no_shear #
lump $-1 $-1 $46 $10 #
transform $-1 1 0 0 0 1 0 0 0 1 73.740043336283463 45.295429799698219 13.858878170105729 1 rotate no_reflect no_shear #
lump $-1 $-1 $47 $11 #
transform $-1 1 0 0 0 1 0 0 0 1 73.740043336283463 45.295429799698219 13.858878170105729 1 rotate no_reflect no_shear #
shell $-1 $-1 $-1 $48 $-1 $12 #
shell $-1 $-1 $-1 $49 $-1 $14 #
shell $-1 $-1 $-1 $50 $-1 $16 #
shell $-1 $-1 $-1 $51 $-1 $18 #
shell $-1 $-1 $-1 $52 $-1 $20 #
shell $-1 $-1 $-1 $53 $-1 $22 #
shell $-1 $-1 $-1 $54 $-1 $24 #
shell $-1 $-1 $-1 $55 $-1 $26 #
shell $-1 $-1 $-1 $56 $-1 $28 #
shell $-1 $-1 $-1 $57 $-1 $30 #
shell $-1 $-1 $-1 $58 $-1 $32 #
shell $-1 $-1 $-1 $59 $-1 $34 #
face $-1 $60 $61 $36 $-1 $62 forward single #
face $-1 $63 $64 $37 $-1 $65 reversed single #
face $-1 $66 $67 $38 $-1 $68 forward single #
face $-1 $69 $70 $39 $-1 $71 reversed single #
face $-1 $72 $73 $40 $-1 $74 forward single #
face $-1 $75 $76 $41 $-1 $77 forward single #
face $-1 $78 $79 $42 $-1 $80 reversed single #
face $-1 $81 $82 $43 $-1 $83 forward single #
face $-1 $84 $85 $44 $-1 $86 forward single #
face $-1 $87 $88 $45 $-1 $89 reversed single #
face $-1 $90 $91 $46 $-1 $92 forward single #
face $-1 $93 $94 $47 $-1 $95 forward single #
face $-1 $96 $97 $36 $-1 $98 reversed single #
loop $-1 $-1 $99 $48 #
plane-surface $-1 0 0 13.858878170105729 0 0 1 1 0 0 forward_v I I I I #
face $-1 $100 $101 $37 $-1 $102 reversed single #
loop $-1 $-1 $103 $49 #
plane-surface $-1 -50.009458373054535 -40.50747436506547 0 1 0 0 0 0 -1 forward_v I I I I #
face $-1 $104 $105 $38 $-1 $106 reversed single #
loop $-1 $-1 $107 $50 #
plane-surface $-1 0 37.474386108593798 6.7956874515272814 0 0 1 1 0 0 forward_v I I I I #
face $-1 $108 $109 $39 $-1 $110 reversed single #
loop $-1 $-1 $111 $51 #
plane-surface $-1 30.37624911107288 -11.81586317641513 213.59792924787968 0 -1 0 -0.54463904215088732 0 -0.83867056331134215 forward_v I I I I #
face $-1 $112 $113 $40 $-1 $114 forward single #
loop $-1 $115 $116 $52 #
cone-surface $-1 70.178903822983088 -17.768547448907764 11.303758173055067 -0.54463904215088732 0 -0.83867056331134215 0.41933528165567108 0 -0.27231952107544366 1 I I 0 1 0.5 forward I I I I #
face $-1 $117 $118 $41 $-1 $119 forward single #
loop $-1 $120 $121 $53 #
cone-surface $-1 70.178903822983088 -14.196936885412178 11.303758173055067 -0.54463904215088732 0 -0.83867056331134215 0.41933528165567108 0 -0.27231952107544366 1 I I 0 1 0.5 forward I I I I #
face $-1 $122 $123 $42 $-1 $124 reversed single #
loop $-1 $-1 $125 $54 #
plane-surface $-1 30.37624911107288 14.083444644961473 213.59792924787968 0 -1 0 -0.54463904215088732 0 -0.83867056331134215 forward_v I I I I #
face $-1 $126 $127 $43 $-1 $128 forward single #
loop $-1 $129 $130 $55 #
cone-surface $-1 70.178903822983088 8.1307603724688349 11.303758173055067 -0.54463904215088732 0 -0.83867056331134215 0.41933528165567108 0 -0.27231952107544366 1 I I 0 1 0.5 forward I I I I #
face $-1 $131 $132 $44 $-1 $133 forward single #
loop $-1 $134 $135 $56 #
cone-surface $-1 70.178903822983088 11.702370935964424 11.303758173055067 -0.54463904215088732 0 -0.83867056331134215 0.41933528165567108 0 -0.27231952107544366 1 I I 0 1 0.5 forward I I I I #
face $-1 $136 $137 $45 $-1 $138 reversed single #
loop $-1 $-1 $139 $57 #
plane-surface $-1 -189.95593879447947 -19.83751499440239 94.097523885784696 0 1 0 -0.78801076186113728 0 0.61566146476048833 forward_v I I I I #
face $-1 $140 $141 $46 $-1 $142 forward single #
loop $-1 $143 $144 $58 #
cone-surface $-1 -68.553958838916969 -14.642263712746221 7.7501785414659246 0.78801076186113728 0 -0.61566146476048833 0.9234921971407325 0 1.182016142791706 1 I I 0 1 1.5 forward I I I I #
face $-1 $145 $146 $47 $-1 $147 forward single #
loop $-1 $148 $149 $59 #
cone-surface $-1 -68.553958838916969 -6.849386790261967 7.7501785414659246 0.78801076186113728 0 -0.61566146476048833 0.9234921971407325 0 1.182016142791706 1 I I 0 1 1.5 forward I I I I #
face $-1 $150 $151 $36 $-1 $152 reversed single #
loop $-1 $-1 $153 $60 #
plane-surface $-1 0 0 -13.858878170105729 0 0 1 1 0 0 forward_v I I I I #
coedge $-1 $154 $155 $156 $157 forward $61 $-1 #
face $-1 $158 $159 $37 $-1 $160 reversed single #
loop $-1 $-1 $161 $63 #
plane-surface $-1 -48.01587268456327 -35.71951893043272 0 0 -1 0 0 0 -1 forward_v I I I I #
coedge $-1 $162 $163 $164 $165 forward $64 $-1 #
face $-1 $166 $167 $38 $-1 $168 reversed single #
loop $-1 $-1 $169 $66 #
plane-surface $-1 0 37.474386108593798 -1.2802484460413934 0 0 1 1 0 0 forward_v I I I I #
coedge $-1 $170 $171 $172 $173 reversed $67 $-1 #
face $-1 $174 $175 $39 $-1 $176 reversed single #
loop $-1 $-1 $177 $69 #
plane-surface $-1 -49.947164030603815 -15.982742167159977 89.910721880992412 0.54463904215088732 0 0.83867056331134215 0.83867056331134215 0 -0.54463904215088732 forward_v I I I I #
coedge $-1 $178 $179 $180 $181 reversed $70 $-1 #
face $-1 $-1 $182 $40 $-1 $183 forward single #
loop $-1 $184 $185 $72 #
cone-surface $-1 69.77042454136992 -17.768547448907764 10.674755250571561 -0.54463904215088732 0 -0.83867056331134215 0.20966764082783554 0 -0.13615976053772183 1 I I -0.70710678118654746 0.70710678118654746 0.25 forward I I I I #
loop $-1 $-1 $186 $52 #
coedge $-1 $116 $116 $187 $188 reversed $73 $-1 #
face $-1 $-1 $189 $41 $-1 $190 forward single #
loop $-1 $191 $192 $75 #
cone-surface $-1 69.77042454136992 -14.196936885412178 10.674755250571561 -0.54463904215088732 0 -0.83867056331134215 0.20966764082783554 0 -0.13615976053772183 1 I I -0.70710678118654746 0.70710678118654746 0.25 forward I I I I #
loop $-1 $-1 $193 $53 #
coedge $-1 $121 $121 $194 $195 reversed $76 $-1 #
face $-1 $196 $197 $42 $-1 $198 reversed single #
loop $-1 $-1 $199 $78 #
plane-surface $-1 -49.947164030603815 9.9165656542166261 89.910721880992412 0.54463904215088732 0 0.83867056331134215 0.83867056331134215 0 -0.54463904215088732 forward_v I I I I #
coedge $-1 $200 $201 $202 $203 reversed $79 $-1 #
face $-1 $-1 $204 $43 $-1 $205 forward single #
loop $-1 $206 $207 $81 #
cone-surface $-1 69.77042454136992 8.1307603724688349 10.674755250571561 -0.54463904215088732 0 -0.83867056331134215 0.20966764082783554 0 -0.13615976053772183 1 I I -0.70710678118654746 0.70710678118654746 0.25 forward I I I I #
loop $-1 $-1 $208 $55 #
coedge $-1 $130 $130 $209 $210 reversed $82 $-1 #
face $-1 $-1 $211 $44 $-1 $212 forward single #
loop $-1 $213 $214 $84 #
cone-surface $-1 69.77042454136992 11.702370935964424 10.674755250571561 -0.54463904215088732 0 -0.83867056331134215 0.20966764082783554 0 -0.13615976053772183 1 I I -0.70710678118654746 0.70710678118654746 0.25 forward I I I I #
loop $-1 $-1 $215 $56 #
coedge $-1 $135 $135 $216 $217 reversed $85 $-1 #
face $-1 $218 $219 $45 $-1 $220 reversed single #
loop $-1 $-1 $221 $87 #
plane-surface $-1 -73.740043336283449 -10.745825251504094 3.2997177019483672 -0.78801076186113728 0 0.61566146476048833 0.61566146476048833 0 0.78801076186113728 forward_v I I I I #
coedge $-1 $222 $223 $224 $225 reversed $88 $-1 #
face $-1 $-1 $226 $46 $-1 $227 forward single #
loop $-1 $228 $229 $90 #
cone-surface $-1 -66.901726307035943 -14.642263712746221 6.4593130483344261 0.78801076186113728 0 -0.61566146476048833 0.46174609857036625 0 0.59100807139585299 1 I I -0.70710678118654757 0.70710678118654757 0.75 forward I I I I #
loop $-1 $-1 $230 $58 #
coedge $-1 $144 $144 $231 $232 reversed $91 $-1 #
face $-1 $-1 $233 $47 $-1 $234 forward single #
loop $-1 $235 $236 $93 #
cone-surface $-1 -66.901726307035943 -6.849386790261967 6.4593130483344261 0.78801076186113728 0 -0.61566146476048833 0.46174609857036625 0 0.59100807139585299 1 I I -0.70710678118654757 0.70710678118654757 0.75 forward I I I I #
loop $-1 $-1 $237 $59 #
coedge $-1 $149 $149 $238 $239 reversed $94 $-1 #
face $-1 $240 $241 $36 $-1 $242 reversed single #
loop $-1 $-1 $243 $96 #
plane-surface $-1 0 -45.295429799698219 0 0 1 0 0 0 1 forward_v I I I I #
coedge $-1 $244 $245 $246 $247 forward $97 $-1 #
coedge $-1 $248 $99 $249 $250 forward $61 $-1 #
coedge $-1 $99 $248 $251 $252 forward $61 $-1 #
coedge $-1 $253 $254 $99 $157 reversed $255 $-1 #
edge $-1 $256 -45.295429799698219 $257 45.295429799698219 $156 $258 forward 7 unknown #
face $-1 $259 $260 $37 $-1 $261 forward single #
loop $-1 $-1 $262 $100 #
plane-surface $-1 -46.022286996072005 -40.50747436506547 0 -1 0 0 0 0 1 forward_v I I I I #
coedge $-1 $263 $264 $265 $266 forward $101 $-1 #
coedge $-1 $267 $103 $268 $269 reversed $64 $-1 #
coedge $-1 $103 $267 $270 $271 reversed $64 $-1 #
coedge $-1 $264 $263 $103 $165 reversed $101 $-1 #
edge $-1 $272 -13.858878170105729 $273 13.858878170105729 $164 $274 forward 7 unknown #
face $-1 $275 $276 $38 $-1 $277 reversed single #
loop $-1 $-1 $278 $104 #
plane-surface $-1 0 29.653342417489377 2.757719502742944 0 1 0 0 0 1 forward_v I I I I #
coedge $-1 $279 $280 $281 $282 reversed $105 $-1 #
coedge $-1 $283 $107 $284 $285 reversed $67 $-1 #
coedge $-1 $107 $283 $286 $287 forward $67 $-1 #
coedge $-1 $288 $289 $107 $173 forward $290 $-1 #
edge $-1 $291 -26.55823674540132 $292 -10.916149363192478 $172 $293 forward 7 unknown #
face $-1 $294 $295 $39 $-1 $296 forward single #
loop $-1 $-1 $297 $108 #
plane-surface $-1 30.37624911107288 -20.149621157904825 213.59792924787968 0 1 0 0.54463904215088732 0 0.83867056331134215 forward_v I I I I #
coedge $-1 $298 $299 $300 $301 reversed $109 $-1 #
coedge $-1 $179 $111 $302 $303 reversed $70 $-1 #
coedge $-1 $111 $178 $298 $304 reversed $70 $-1 #
coedge $-1 $300 $305 $111 $181 forward $295 $-1 #
edge $-1 $306 -58.551918780747023 $307 -51.974278796297121 $180 $308 forward 7 unknown #
loop $-1 $-1 $187 $112 #
plane-surface $-1 -49.947164030603815 -15.982742167159977 89.910721880992412 0.54463904215088732 0 0.83867056331134215 0.83867056331134215 0 -0.54463904215088732 forward_v I I I I #
loop $-1 $-1 $309 $72 #
coedge $-1 $185 $185 $186 $310 reversed $113 $-1 #
coedge $-1 $186 $186 $185 $310 forward $115 $-1 #
coedge $-1 $187 $187 $116 $188 forward $182 $-1 #
edge $-1 $311 0 $311 6.2831853071796004 $187 $312 forward 7 unknown #
loop $-1 $-1 $194 $117 #
plane-surface $-1 -49.947164030603815 -15.982742167159977 89.910721880992412 0.54463904215088732 0 0.83867056331134215 0.83867056331134215 0 -0.54463904215088732 forward_v I I I I #
loop $-1 $-1 $313 $75 #
coedge $-1 $192 $192 $193 $314 reversed $118 $-1 #
coedge $-1 $193 $193 $192 $314 forward $120 $-1 #
coedge $-1 $194 $194 $121 $195 forward $189 $-1 #
edge $-1 $315 0 $315 6.2831853071796004 $194 $316 forward 7 unknown #
face $-1 $317 $318 $42 $-1 $319 reversed single #
loop $-1 $-1 $320 $122 #
plane-surface $-1 30.37624911107288 5.7496866634717794 213.59792924787968 0 1 0 0.54463904215088732 0 0.83867056331134215 forward_v I I I I #
coedge $-1 $321 $322 $323 $324 reversed $123 $-1 #
coedge $-1 $201 $125 $325 $326 reversed $79 $-1 #
coedge $-1 $125 $200 $321 $327 reversed $79 $-1 #
coedge $-1 $323 $328 $125 $203 forward $329 $-1 #
edge $-1 $330 -58.551918780747023 $331 -51.974278796297121 $202 $332 forward 7 unknown #
loop $-1 $-1 $209 $126 #
plane-surface $-1 -49.947164030603815 9.9165656542166261 89.910721880992412 0.54463904215088732 0 0.83867056331134215 0.83867056331134215 0 -0.54463904215088732 forward_v I I I I #
loop $-1 $-1 $333 $81 #
coedge $-1 $207 $207 $208 $334 reversed $127 $-1 #
coedge $-1 $208 $208 $207 $334 forward $129 $-1 #
coedge $-1 $209 $209 $130 $210 forward $204 $-1 #
edge $-1 $335 0 $335 6.2831853071796004 $209 $336 forward 7 unknown #
loop $-1 $-1 $216 $131 #
plane-surface $-1 -49.947164030603815 9.9165656542166261 89.910721880992412 0.54463904215088732 0 0.83867056331134215 0.83867056331134215 0 -0.54463904215088732 forward_v I I I I #
loop $-1 $-1 $337 $84 #
coedge $-1 $214 $214 $215 $338 reversed $132 $-1 #
coedge $-1 $215 $215 $214 $338 forward $134 $-1 #
coedge $-1 $216 $216 $135 $217 forward $211 $-1 #
edge $-1 $339 0 $339 6.2831853071796004 $216 $340 forward 7 unknown #
face $-1 $341 $342 $45 $-1 $343 reversed single #
loop $-1 $-1 $344 $136 #
plane-surface $-1 -189.95593879447947 -1.6541355086057976 94.097523885784696 0 -1 0 0.78801076186113728 0 -0.61566146476048833 forward_v I I I I #
coedge $-1 $345 $346 $347 $348 reversed $137 $-1 #
coedge $-1 $223 $139 $349 $350 reversed $88 $-1 #
coedge $-1 $139 $222 $345 $351 reversed $88 $-1 #
coedge $-1 $347 $352 $139 $225 forward $353 $-1 #
edge $-1 $354 21.237926060956269 $355 29.487646134718915 $224 $356 forward 7 unknown #
loop $-1 $-1 $231 $140 #
plane-surface $-1 -73.740043336283449 -10.745825251504094 3.2997177019483672 -0.78801076186113728 0 0.61566146476048833 0.61566146476048833 0 0.78801076186113728 forward_v I I I I #
loop $-1 $-1 $357 $90 #
coedge $-1 $229 $229 $230 $358 reversed $141 $-1 #
coedge $-1 $230 $230 $229 $358 forward $143 $-1 #
coedge $-1 $231 $231 $144 $232 forward $226 $-1 #
edge $-1 $359 0 $359 6.2831853071796004 $231 $360 forward 7 unknown #
loop $-1 $-1 $238 $145 #
plane-surface $-1 -73.740043336283449 -10.745825251504094 3.2997177019483672 -0.78801076186113728 0 0.61566146476048833 0.61566146476048833 0 0.78801076186113728 forward_v I I I I #
loop $-1 $-1 $361 $93 #
coedge $-1 $236 $236 $237 $362 reversed $146 $-1 #
coedge $-1 $237 $237 $236 $362 forward $148 $-1 #
coedge $-1 $238 $238 $149 $239 forward $233 $-1 #
edge $-1 $363 0 $363 6.2831853071796004 $238 $364 forward 7 unknown #
face $-1 $365 $366 $36 $-1 $367 reversed single #
loop $-1 $-1 $368 $150 #
plane-surface $-1 -73.740043336283463 0 0 1 0 0 0 0 -1 forward_v I I I I #
coedge $-1 $369 $251 $370 $371 forward $151 $-1 #
coedge $-1 $372 $153 $369 $373 forward $97 $-1 #
coedge $-1 $153 $372 $374 $375 forward $97 $-1 #
coedge $-1 $254 $253 $153 $247 reversed $255 $-1 #
edge $-1 $376 -45.295429799698219 $377 45.295429799698219 $246 $378 forward 7 unknown #
coedge $-1 $155 $154 $379 $380 forward $61 $-1 #
coedge $-1 $381 $382 $154 $250 reversed $366 $-1 #
edge $-1 $257 -73.740043336283463 $383 73.740043336283463 $249 $384 forward 7 unknown #
coedge $-1 $243 $385 $155 $252 reversed $151 $-1 #
edge $-1 $386 -73.740043336283463 $256 73.740043336283463 $251 $387 forward 7 unknown #
coedge $-1 $246 $156 $385 $388 forward $255 $-1 #
coedge $-1 $156 $246 $381 $389 reversed $255 $-1 #
loop $-1 $-1 $253 $365 #
vertex $-1 $157 $390 #
vertex $-1 $157 $391 #
straight-curve $-1 73.740043336283463 0 13.858878170105729 0 1 0 I I #
face $-1 $392 $393 $37 $-1 $394 reversed single #
loop $-1 $-1 $395 $158 #
plane-surface $-1 0 0 13.858878170105729 0 0 1 1 0 0 forward_v I I I I #
coedge $-1 $396 $397 $398 $399 reversed $159 $-1 #
coedge $-1 $164 $161 $400 $401 reversed $101 $-1 #
coedge $-1 $161 $164 $402 $403 reversed $101 $-1 #
coedge $-1 $397 $396 $161 $266 reversed $159 $-1 #
edge $-1 $404 -13.858878170105729 $405 13.858878170105729 $265 $406 forward 7 unknown #
coedge $-1 $163 $162 $407 $408 reversed $64 $-1 #
coedge $-1 $400 $409 $162 $269 forward $393 $-1 #
edge $-1 $410 -25.041692617165484 $273 -15.465781747899985 $268 $411 forward 7 unknown #
coedge $-1 $412 $402 $163 $271 forward $260 $-1 #
edge $-1 $272 15.465781747899985 $413 25.041692617165484 $270 $414 forward 7 unknown #
vertex $-1 $271 $415 #
vertex $-1 $269 $416 #
straight-curve $-1 -50.009458373054535 -35.71951893043272 0 0 0 -1 I I #
face $-1 $417 $290 $38 $-1 $418 reversed single #
loop $-1 $-1 $419 $166 #
plane-surface $-1 -73.740043336283463 0 0 1 0 0 0 0 -1 forward_v I I I I #
coedge $-1 $420 $286 $421 $422 reversed $167 $-1 #
coedge $-1 $423 $169 $420 $424 forward $105 $-1 #
coedge $-1 $169 $423 $425 $426 reversed $105 $-1 #
coedge $-1 $289 $288 $169 $282 forward $290 $-1 #
edge $-1 $427 10.916149363192478 $428 26.55823674540132 $281 $429 forward 7 unknown #
coedge $-1 $171 $170 $430 $431 reversed $67 $-1 #
coedge $-1 $432 $433 $170 $285 forward $434 $-1 #
edge $-1 $435 -73.740043336283463 $291 73.740043336283463 $284 $436 forward 7 unknown #
coedge $-1 $278 $437 $171 $287 reversed $167 $-1 #
edge $-1 $438 -73.740043336283463 $292 73.740043336283463 $286 $439 forward 7 unknown #
coedge $-1 $281 $172 $437 $440 forward $290 $-1 #
coedge $-1 $172 $281 $432 $441 reversed $290 $-1 #
loop $-1 $-1 $172 $275 #
vertex $-1 $441 $442 #
vertex $-1 $173 $443 #
straight-curve $-1 73.740043336283463 18.737193054296899 6.7956874515272814 0 -1 0 I I #
face $-1 $-1 $444 $39 $-1 $445 reversed single #
loop $-1 $-1 $180 $174 #
plane-surface $-1 0 0 13.858878170105729 0 0 1 1 0 0 forward_v I I I I #
coedge $-1 $446 $447 $448 $449 reversed $175 $-1 #
coedge $-1 $450 $177 $179 $304 forward $109 $-1 #
coedge $-1 $177 $450 $446 $451 forward $109 $-1 #
coedge $-1 $448 $180 $177 $301 forward $295 $-1 #
edge $-1 $307 3.8244920928351416 $452 12.158250074324837 $300 $453 forward 7 unknown #
coedge $-1 $454 $455 $178 $303 forward $444 $-1 #
edge $-1 $456 -97.211655884624122 $306 -92.940086453834112 $302 $457 forward 7 unknown #
edge $-1 $307 139.63715015828262 $456 147.48008667256693 $179 $458 forward 7 unknown #
coedge $-1 $180 $448 $454 $459 forward $295 $-1 #
vertex $-1 $303 $460 #
vertex $-1 $181 $461 #
straight-curve $-1 15.18812455553644 -11.81586317641513 13.858878170105726 -1 0 0 I I #
coedge $-1 $309 $309 $-1 $462 reversed $184 $-1 #
edge $-1 $463 0 $463 6.2831853071796004 $185 $464 forward 7 unknown #
vertex $-1 $188 $465 #
ellipse-curve $-1 70.451223344058519 -17.768547448907764 11.723093454710714 0.54463904215088732 0 0.83867056331134215 0.41933528165567108 0 -0.27231952107544366 1 I I #
coedge $-1 $313 $313 $-1 $466 reversed $191 $-1 #
edge $-1 $467 0 $467 6.2831853071796004 $192 $468 forward 7 unknown #
vertex $-1 $195 $469 #
ellipse-curve $-1 70.451223344058519 -14.196936885412178 11.723093454710714 0.54463904215088732 0 0.83867056331134215 0.41933528165567108 0 -0.27231952107544366 1 I I #
face $-1 $-1 $329 $42 $-1 $470 forward single #
loop $-1 $-1 $471 $196 #
plane-surface $-1 73.740043336283463 0 0 -1 0 0 0 0 1 forward_v I I I I #
coedge $-1 $472 $473 $474 $475 reversed $197 $-1 #
coedge $-1 $476 $199 $201 $327 forward $123 $-1 #
coedge $-1 $199 $476 $472 $477 forward $123 $-1 #
coedge $-1 $474 $202 $199 $324 forward $329 $-1 #
edge $-1 $331 -9.1251618178531597 $478 -0.79140383636346634 $323 $479 forward 7 unknown #
coedge $-1 $480 $481 $200 $326 forward $318 $-1 #
edge $-1 $482 -97.211655884624122 $330 -92.940086453834112 $325 $483 forward 7 unknown #
edge $-1 $331 139.63715015828262 $482 147.48008667256693 $201 $484 forward 7 unknown #
coedge $-1 $202 $474 $480 $485 forward $329 $-1 #
loop $-1 $-1 $474 $317 #
vertex $-1 $326 $486 #
vertex $-1 $203 $487 #
straight-curve $-1 15.18812455553644 14.083444644961473 13.858878170105726 -1 0 0 I I #
coedge $-1 $333 $333 $-1 $488 reversed $206 $-1 #
edge $-1 $489 0 $489 6.2831853071796004 $207 $490 forward 7 unknown #
vertex $-1 $210 $491 #
ellipse-curve $-1 70.451223344058519 8.1307603724688349 11.723093454710714 0.54463904215088732 0 0.83867056331134215 0.41933528165567108 0 -0.27231952107544366 1 I I #
coedge $-1 $337 $337 $-1 $492 reversed $213 $-1 #
edge $-1 $493 0 $493 6.2831853071796004 $214 $494 forward 7 unknown #
vertex $-1 $217 $495 #
ellipse-curve $-1 70.451223344058519 11.702370935964424 11.723093454710714 0.54463904215088732 0 0.83867056331134215 0.41933528165567108 0 -0.27231952107544366 1 I I #
face $-1 $-1 $353 $45 $-1 $496 forward single #
loop $-1 $-1 $497 $218 #
plane-surface $-1 -73.740043336283463 0 0 1 0 0 0 0 -1 forward_v I I I I #
coedge $-1 $498 $499 $500 $501 reversed $219 $-1 #
coedge $-1 $502 $221 $223 $351 forward $137 $-1 #
coedge $-1 $221 $502 $498 $503 forward $137 $-1 #
coedge $-1 $500 $224 $221 $348 forward $353 $-1 #
edge $-1 $355 -14.464602368650343 $504 3.7187771171462494 $347 $505 forward 7 unknown #
coedge $-1 $506 $507 $222 $350 forward $342 $-1 #
edge $-1 $508 -43.749044240944002 $354 -33.189883772786615 $349 $509 forward 7 unknown #
edge $-1 $355 -13.39976682960339 $508 2.3096905769578348e-014 $223 $510 forward 7 unknown #
coedge $-1 $224 $500 $506 $511 forward $353 $-1 #
loop $-1 $-1 $500 $341 #
vertex $-1 $350 $512 #
vertex $-1 $225 $513 #
straight-curve $-1 -94.977969397239733 -19.83751499440239 13.858878170105733 1 0 0 I I #
coedge $-1 $357 $357 $-1 $514 reversed $228 $-1 #
edge $-1 $515 0 $515 6.2831853071796004 $229 $516 forward 7 unknown #
vertex $-1 $232 $517 #
ellipse-curve $-1 -69.615183299402133 -14.642263712746221 8.5792979360270483 -0.78801076186113728 0 0.61566146476048833 0.9234921971407325 0 1.182016142791706 1 I I #
coedge $-1 $361 $361 $-1 $518 reversed $235 $-1 #
edge $-1 $519 0 $519 6.2831853071796004 $236 $520 forward 7 unknown #
vertex $-1 $239 $521 #
ellipse-curve $-1 -69.615183299402133 -6.849386790261967 8.5792979360270483 -0.78801076186113728 0 0.61566146476048833 0.9234921971407325 0 1.182016142791706 1 I I #
face $-1 $-1 $255 $36 $-1 $522 reversed single #
loop $-1 $-1 $381 $240 #
plane-surface $-1 0 45.295429799698219 0 0 -1 0 0 0 -1 forward_v I I I I #
coedge $-1 $523 $379 $382 $524 forward $241 $-1 #
coedge $-1 $385 $243 $244 $373 reversed $151 $-1 #
coedge $-1 $379 $523 $243 $371 reversed $241 $-1 #
edge $-1 $386 -13.858878170105729 $525 13.858878170105729 $370 $526 forward 7 unknown #
coedge $-1 $245 $244 $523 $527 forward $97 $-1 #
edge $-1 $377 -73.740043336283463 $525 73.740043336283463 $369 $528 forward 7 unknown #
coedge $-1 $382 $381 $245 $375 reversed $366 $-1 #
edge $-1 $529 -73.740043336283463 $376 73.740043336283463 $374 $530 forward 7 unknown #
vertex $-1 $247 $531 #
vertex $-1 $388 $532 #
straight-curve $-1 73.740043336283463 0 -13.858878170105729 0 -1 0 I I #
coedge $-1 $368 $370 $248 $380 reversed $241 $-1 #
edge $-1 $383 -45.295429799698219 $386 45.295429799698219 $379 $533 forward 7 unknown #
coedge $-1 $374 $249 $254 $389 forward $366 $-1 #
coedge $-1 $249 $374 $368 $524 reversed $366 $-1 #
vertex $-1 $250 $534 #
straight-curve $-1 0 45.295429799698219 13.858878170105729 -1 0 0 I I #
coedge $-1 $251 $369 $253 $388 reversed $151 $-1 #
vertex $-1 $380 $535 #
straight-curve $-1 0 -45.295429799698219 13.858878170105729 1 0 0 I I #
edge $-1 $256 -13.858878170105729 $377 13.858878170105729 $253 $536 forward 7 unknown #
edge $-1 $257 -13.858878170105729 $376 13.858878170105729 $254 $537 forward 7 unknown #
point $-1 73.740043336283463 -45.295429799698219 13.858878170105729 #
point $-1 73.740043336283463 45.295429799698219 13.858878170105729 #
face $-1 $-1 $538 $37 $-1 $539 reversed single #
loop $-1 $-1 $540 $259 #
plane-surface $-1 0 0 -13.858878170105729 0 0 1 1 0 0 forward_v I I I I #
coedge $-1 $402 $412 $397 $541 forward $260 $-1 #
coedge $-1 $265 $262 $540 $542 reversed $159 $-1 #
coedge $-1 $262 $265 $395 $541 reversed $159 $-1 #
coedge $-1 $543 $544 $262 $399 forward $538 $-1 #
edge $-1 $545 -13.858878170105729 $546 13.858878170105729 $398 $547 forward 7 unknown #
coedge $-1 $540 $268 $263 $401 forward $393 $-1 #
edge $-1 $273 -26.0015220307729 $405 -22.01435065379037 $400 $548 forward 7 unknown #
coedge $-1 $270 $395 $264 $403 forward $260 $-1 #
edge $-1 $404 22.01435065379037 $272 26.0015220307729 $402 $549 forward 7 unknown #
vertex $-1 $403 $550 #
vertex $-1 $401 $551 #
straight-curve $-1 -46.022286996072005 -35.71951893043272 0 0 0 -1 I I #
coedge $-1 $544 $543 $267 $408 forward $538 $-1 #
edge $-1 $413 -13.858878170105729 $410 13.858878170105729 $407 $552 forward 7 unknown #
coedge $-1 $268 $540 $544 $553 forward $393 $-1 #
vertex $-1 $269 $554 #
straight-curve $-1 -50.009458373054535 -20.253737182532735 -13.858878170105729 0 1 0 I I #
coedge $-1 $395 $270 $543 $555 forward $260 $-1 #
vertex $-1 $555 $556 #
straight-curve $-1 -50.009458373054535 -20.253737182532735 13.858878170105729 0 -1 0 I I #
point $-1 -50.009458373054535 -35.71951893043272 13.858878170105729 #
point $-1 -50.009458373054535 -35.71951893043272 -13.858878170105729 #
face $-1 $-1 $434 $38 $-1 $557 reversed single #
plane-surface $-1 73.740043336283463 0 0 -1 0 0 0 0 1 forward_v I I I I #
coedge $-1 $421 $558 $423 $559 forward $276 $-1 #
coedge $-1 $437 $278 $279 $424 reversed $167 $-1 #
coedge $-1 $430 $419 $278 $422 forward $276 $-1 #
edge $-1 $560 -2.6591081974128654 $438 5.4168277001558094 $421 $561 forward 7 unknown #
coedge $-1 $280 $279 $419 $559 reversed $105 $-1 #
edge $-1 $427 -73.740043336283463 $560 73.740043336283463 $420 $562 forward 7 unknown #
coedge $-1 $433 $432 $280 $426 forward $434 $-1 #
edge $-1 $428 -73.740043336283463 $563 73.740043336283463 $425 $564 forward 7 unknown #
vertex $-1 $282 $565 #
vertex $-1 $282 $566 #
straight-curve $-1 73.740043336283463 18.737193054296899 -1.2802484460413934 0 1 0 I I #
coedge $-1 $558 $421 $283 $431 forward $276 $-1 #
edge $-1 $438 10.916149363192478 $435 26.55823674540132 $430 $567 forward 7 unknown #
coedge $-1 $425 $284 $289 $441 forward $434 $-1 #
coedge $-1 $284 $425 $558 $568 reversed $434 $-1 #
loop $-1 $-1 $425 $417 #
vertex $-1 $568 $569 #
straight-curve $-1 0 45.295429799698219 6.7956874515272814 1 0 0 I I #
coedge $-1 $286 $420 $288 $440 reversed $167 $-1 #
vertex $-1 $431 $570 #
straight-curve $-1 0 29.653342417489377 6.7956874515272814 1 0 0 I I #
edge $-1 $292 -5.4168277001558094 $427 2.6591081974128654 $288 $571 forward 7 unknown #
edge $-1 $291 -6.7956874515272814 $428 1.2802484460413934 $289 $572 forward 7 unknown #
point $-1 73.740043336283463 45.295429799698219 6.7956874515272814 #
point $-1 73.740043336283463 29.653342417489377 6.7956874515272814 #
loop $-1 $-1 $302 $294 #
plane-surface $-1 73.740043336283463 0 0 -1 0 0 0 0 1 forward_v I I I I #
coedge $-1 $447 $297 $299 $451 reversed $175 $-1 #
coedge $-1 $297 $446 $573 $574 reversed $175 $-1 #
coedge $-1 $305 $300 $297 $449 forward $295 $-1 #
edge $-1 $452 51.974278796297121 $575 58.551918780747023 $448 $576 forward 7 unknown #
coedge $-1 $299 $298 $455 $577 reversed $109 $-1 #
edge $-1 $578 -147.48008667256693 $452 -139.63715015828262 $446 $579 forward 7 unknown #
vertex $-1 $301 $580 #
straight-curve $-1 67.162403351833561 -7.9913710835799883 13.858878170105719 0 -1 0 I I #
coedge $-1 $573 $302 $305 $459 reversed $444 $-1 #
coedge $-1 $302 $573 $450 $577 forward $444 $-1 #
vertex $-1 $303 $581 #
straight-curve $-1 73.740043336283463 -11.81586317641513 106.79896462393984 0 0 1 I I #
straight-curve $-1 -49.947164030603815 -11.81586317641513 89.910721880992412 0.83867056331134215 0 -0.54463904215088732 I I #
edge $-1 $575 -20.149621157904825 $306 -11.81586317641513 $454 $582 forward 7 unknown #
point $-1 73.740043336283463 -11.81586317641513 13.858878170105729 #
point $-1 67.162403351833561 -11.81586317641513 13.858878170105726 #
edge $-1 $583 1 $583 0 $309 $-1 forward 7 unknown #
vertex $-1 $310 $584 #
ellipse-curve $-1 69.906584301907642 -17.768547448907764 10.884422891399396 0.54463904215088732 0 0.83867056331134215 0.41933528165567108 0 -0.27231952107544366 1 I I #
point $-1 70.870558625714196 -17.768547448907764 11.450773933635295 #
edge $-1 $585 1 $585 0 $313 $-1 forward 7 unknown #
vertex $-1 $314 $586 #
ellipse-curve $-1 69.906584301907642 -14.196936885412178 10.884422891399396 0.54463904215088732 0 0.83867056331134215 0.41933528165567108 0 -0.27231952107544366 1 I I #
point $-1 70.870558625714196 -14.196936885412178 11.450773933635295 #
plane-surface $-1 0 0 13.858878170105729 0 0 1 1 0 0 forward_v I I I I #
coedge $-1 $481 $480 $473 $587 forward $318 $-1 #
coedge $-1 $473 $320 $322 $477 reversed $197 $-1 #
coedge $-1 $320 $472 $471 $587 reversed $197 $-1 #
coedge $-1 $328 $323 $320 $475 forward $329 $-1 #
edge $-1 $478 51.974278796297121 $588 58.551918780747023 $474 $589 forward 7 unknown #
coedge $-1 $322 $321 $481 $590 reversed $123 $-1 #
edge $-1 $591 -147.48008667256693 $478 -139.63715015828262 $472 $592 forward 7 unknown #
vertex $-1 $324 $593 #
straight-curve $-1 67.162403351833561 4.958282827108313 13.858878170105719 0 -1 0 I I #
coedge $-1 $471 $325 $328 $485 reversed $318 $-1 #
coedge $-1 $325 $471 $476 $590 forward $318 $-1 #
vertex $-1 $326 $594 #
straight-curve $-1 73.740043336283463 14.083444644961473 106.79896462393984 0 0 1 I I #
straight-curve $-1 -49.947164030603815 14.083444644961473 89.910721880992412 0.83867056331134215 0 -0.54463904215088732 I I #
edge $-1 $588 5.7496866634717794 $330 14.083444644961473 $480 $595 forward 7 unknown #
point $-1 73.740043336283463 14.083444644961473 13.858878170105729 #
point $-1 67.162403351833561 14.083444644961473 13.858878170105726 #
edge $-1 $596 1 $596 0 $333 $-1 forward 7 unknown #
vertex $-1 $334 $597 #
ellipse-curve $-1 69.906584301907642 8.1307603724688349 10.884422891399396 0.54463904215088732 0 0.83867056331134215 0.41933528165567108 0 -0.27231952107544366 1 I I #
point $-1 70.870558625714196 8.1307603724688349 11.450773933635295 #
edge $-1 $598 1 $598 0 $337 $-1 forward 7 unknown #
vertex $-1 $338 $599 #
ellipse-curve $-1 69.906584301907642 11.702370935964424 10.884422891399396 0.54463904215088732 0 0.83867056331134215 0.41933528165567108 0 -0.27231952107544366 1 I I #
point $-1 70.870558625714196 11.702370935964424 11.450773933635295 #
plane-surface $-1 0 0 13.858878170105729 0 0 1 1 0 0 forward_v I I I I #
coedge $-1 $507 $506 $499 $600 forward $342 $-1 #
coedge $-1 $499 $344 $346 $503 reversed $219 $-1 #
coedge $-1 $344 $498 $497 $600 reversed $219 $-1 #
coedge $-1 $352 $347 $344 $501 forward $353 $-1 #
edge $-1 $504 -29.487646134718915 $601 -21.237926060956269 $500 $602 forward 7 unknown #
coedge $-1 $346 $345 $507 $603 reversed $137 $-1 #
edge $-1 $604 -2.3096905769578348e-014 $504 13.39976682960339 $498 $605 forward 7 unknown #
vertex $-1 $348 $606 #
straight-curve $-1 -65.490323262520818 -5.372912625752047 13.858878170105729 0 1 0 I I #
coedge $-1 $497 $349 $352 $511 reversed $342 $-1 #
coedge $-1 $349 $497 $502 $603 forward $342 $-1 #
vertex $-1 $350 $607 #
straight-curve $-1 -73.740043336283463 -19.83751499440239 47.048761942892348 0 0 1 I I #
straight-curve $-1 -73.740043336283449 -19.83751499440239 3.2997177019483672 -0.61566146476048833 0 -0.78801076186113728 I I #
edge $-1 $601 1.6541355086057976 $354 19.83751499440239 $506 $608 forward 7 unknown #
point $-1 -73.740043336283463 -19.83751499440239 13.858878170105729 #
point $-1 -65.490323262520818 -19.83751499440239 13.858878170105729 #
edge $-1 $609 1 $609 0 $357 $-1 forward 7 unknown #
vertex $-1 $358 $610 #
ellipse-curve $-1 -67.492734378431791 -14.642263712746221 6.921059146904792 -0.78801076186113728 0 0.61566146476048833 0.9234921971407325 0 1.182016142791706 1 I I #
point $-1 -68.691691102261416 -14.642263712746221 9.7613140788187636 #
edge $-1 $611 1 $611 0 $361 $-1 forward 7 unknown #
vertex $-1 $362 $612 #
ellipse-curve $-1 -67.492734378431791 -6.849386790261967 6.921059146904792 -0.78801076186113728 0 0.61566146476048833 0.9234921971407325 0 1.182016142791706 1 I I #
point $-1 -68.691691102261416 -6.849386790261967 9.7613140788187636 #
plane-surface $-1 73.740043336283463 0 0 -1 0 0 0 0 1 forward_v I I I I #
coedge $-1 $370 $368 $372 $527 reversed $241 $-1 #
edge $-1 $383 -13.858878170105729 $529 13.858878170105729 $382 $613 forward 7 unknown #
vertex $-1 $527 $614 #
straight-curve $-1 -73.740043336283463 -45.295429799698219 0 0 0 -1 I I #
edge $-1 $525 -45.295429799698219 $529 45.295429799698219 $523 $615 forward 7 unknown #
straight-curve $-1 0 -45.295429799698219 -13.858878170105729 -1 0 0 I I #
vertex $-1 $375 $616 #
straight-curve $-1 0 45.295429799698219 -13.858878170105729 1 0 0 I I #
point $-1 73.740043336283463 45.295429799698219 -13.858878170105729 #
point $-1 73.740043336283463 -45.295429799698219 -13.858878170105729 #
straight-curve $-1 -73.740043336283463 0 13.858878170105729 0 -1 0 I I #
point $-1 -73.740043336283463 45.295429799698219 13.858878170105729 #
point $-1 -73.740043336283463 -45.295429799698219 13.858878170105729 #
straight-curve $-1 73.740043336283463 -45.295429799698219 0 0 0 -1 I I #
straight-curve $-1 73.740043336283463 45.295429799698219 0 0 0 -1 I I #
loop $-1 $-1 $398 $392 #
plane-surface $-1 0 -45.295429799698219 0 0 1 0 0 0 1 forward_v I I I I #
coedge $-1 $409 $400 $396 $542 forward $393 $-1 #
edge $-1 $546 -25.041692617165484 $404 -15.465781747899985 $395 $617 forward 7 unknown #
edge $-1 $405 15.465781747899985 $545 25.041692617165484 $540 $618 forward 7 unknown #
coedge $-1 $407 $398 $412 $555 reversed $538 $-1 #
coedge $-1 $398 $407 $409 $553 reversed $538 $-1 #
vertex $-1 $553 $619 #
vertex $-1 $399 $620 #
straight-curve $-1 -46.022286996072005 -45.295429799698219 0 0 0 1 I I #
straight-curve $-1 -24.007936342281635 -35.71951893043272 -13.858878170105729 1 0 0 I I #
straight-curve $-1 -24.007936342281635 -35.71951893043272 13.858878170105729 -1 0 0 I I #
point $-1 -46.022286996072005 -35.71951893043272 13.858878170105729 #
point $-1 -46.022286996072005 -35.71951893043272 -13.858878170105729 #
straight-curve $-1 -50.009458373054535 -45.295429799698219 0 0 0 -1 I I #
edge $-1 $545 46.022286996072005 $410 50.009458373054535 $544 $621 forward 7 unknown #
point $-1 -50.009458373054535 -45.295429799698219 -13.858878170105729 #
edge $-1 $413 -50.009458373054535 $546 -46.022286996072005 $543 $622 forward 7 unknown #
point $-1 -50.009458373054535 -45.295429799698219 13.858878170105729 #
plane-surface $-1 0 45.295429799698219 0 0 -1 0 0 0 -1 forward_v I I I I #
coedge $-1 $419 $430 $433 $568 forward $276 $-1 #
edge $-1 $563 -26.55823674540132 $560 -10.916149363192478 $419 $623 forward 7 unknown #
vertex $-1 $559 $624 #
straight-curve $-1 -73.740043336283463 29.653342417489377 1.378859751371472 0 0 1 I I #
straight-curve $-1 0 29.653342417489377 -1.2802484460413934 -1 0 0 I I #
vertex $-1 $426 $625 #
straight-curve $-1 0 45.295429799698219 -1.2802484460413934 -1 0 0 I I #
point $-1 73.740043336283463 29.653342417489377 -1.2802484460413934 #
point $-1 73.740043336283463 45.295429799698219 -1.2802484460413934 #
straight-curve $-1 -73.740043336283463 18.737193054296899 6.7956874515272814 0 1 0 I I #
edge $-1 $435 -6.7956874515272814 $563 1.2802484460413934 $433 $626 forward 7 unknown #
point $-1 -73.740043336283463 45.295429799698219 6.7956874515272814 #
point $-1 -73.740043336283463 29.653342417489377 6.7956874515272814 #
straight-curve $-1 73.740043336283463 29.653342417489377 1.378859751371472 0 0 -1 I I #
straight-curve $-1 73.740043336283463 45.295429799698219 0 0 0 -1 I I #
coedge $-1 $455 $454 $447 $574 forward $444 $-1 #
edge $-1 $575 92.940086453834112 $578 97.211655884624122 $573 $627 forward 7 unknown #
vertex $-1 $459 $628 #
straight-curve $-1 15.18812455553644 -20.149621157904825 13.858878170105726 1 0 0 I I #
edge $-1 $578 -12.158250074324837 $456 -3.8244920928351416 $455 $629 forward 7 unknown #
vertex $-1 $577 $630 #
straight-curve $-1 -49.947164030603815 -20.149621157904825 89.910721880992412 -0.83867056331134215 0 0.54463904215088732 I I #
point $-1 67.162403351833561 -20.149621157904825 13.858878170105726 #
point $-1 73.740043336283449 -11.81586317641513 9.5873087393157164 #
straight-curve $-1 73.740043336283463 0 13.858878170105729 0 1 0 I I #
vertex $-1 $462 $631 #
point $-1 70.325919583563319 -17.768547448907764 10.612103370323952 #
vertex $-1 $466 $632 #
point $-1 70.325919583563319 -14.196936885412178 10.612103370323952 #
edge $-1 $588 92.940086453834112 $591 97.211655884624122 $471 $633 forward 7 unknown #
vertex $-1 $485 $634 #
straight-curve $-1 15.18812455553644 5.7496866634717794 13.858878170105726 1 0 0 I I #
edge $-1 $591 0.79140383636346634 $482 9.1251618178531597 $481 $635 forward 7 unknown #
vertex $-1 $590 $636 #
straight-curve $-1 -49.947164030603815 5.7496866634717794 89.910721880992412 -0.83867056331134215 0 0.54463904215088732 I I #
point $-1 67.162403351833561 5.7496866634717794 13.858878170105726 #
point $-1 73.740043336283449 14.083444644961473 9.5873087393157164 #
straight-curve $-1 73.740043336283463 0 13.858878170105729 0 1 0 I I #
vertex $-1 $488 $637 #
point $-1 70.325919583563319 8.1307603724688349 10.612103370323952 #
vertex $-1 $492 $638 #
point $-1 70.325919583563319 11.702370935964424 10.612103370323952 #
edge $-1 $601 33.189883772786615 $604 43.749044240944002 $497 $639 forward 7 unknown #
vertex $-1 $511 $640 #
straight-curve $-1 -94.977969397239733 -1.6541355086057976 13.858878170105733 -1 0 0 I I #
edge $-1 $604 -3.7187771171462494 $508 14.464602368650343 $507 $641 forward 7 unknown #
vertex $-1 $603 $642 #
straight-curve $-1 -73.740043336283449 -1.6541355086057976 3.2997177019483672 0.61566146476048833 0 0.78801076186113728 I I #
point $-1 -65.490323262520818 -1.6541355086057976 13.858878170105729 #
point $-1 -73.740043336283463 -19.83751499440239 3.299717701948349 #
straight-curve $-1 -73.740043336283463 0 13.858878170105729 0 -1 0 I I #
vertex $-1 $514 $643 #
point $-1 -66.56924218129106 -14.642263712746221 8.1030752896964984 #
vertex $-1 $518 $644 #
point $-1 -66.56924218129106 -6.849386790261967 8.1030752896964984 #
straight-curve $-1 -73.740043336283463 45.295429799698219 0 0 0 -1 I I #
point $-1 -73.740043336283463 -45.295429799698219 -13.858878170105729 #
straight-curve $-1 -73.740043336283463 0 -13.858878170105729 0 1 0 I I #
point $-1 -73.740043336283463 45.295429799698219 -13.858878170105729 #
straight-curve $-1 -46.022286996072005 -20.253737182532735 13.858878170105729 0 1 0 I I #
straight-curve $-1 -46.022286996072005 -20.253737182532735 -13.858878170105729 0 -1 0 I I #
point $-1 -46.022286996072005 -45.295429799698219 -13.858878170105729 #
point $-1 -46.022286996072005 -45.295429799698219 13.858878170105729 #
straight-curve $-1 0 -45.295429799698219 -13.858878170105729 -1 0 0 I I #
straight-curve $-1 0 -45.295429799698219 13.858878170105729 1 0 0 I I #
straight-curve $-1 -73.740043336283463 18.737193054296899 -1.2802484460413934 0 -1 0 I I #
point $-1 -73.740043336283463 29.653342417489377 -1.2802484460413934 #
point $-1 -73.740043336283463 45.295429799698219 -1.2802484460413934 #
straight-curve $-1 -73.740043336283463 45.295429799698219 0 0 0 -1 I I #
straight-curve $-1 73.740043336283463 -20.149621157904825 106.79896462393984 0 0 -1 I I #
point $-1 73.740043336283463 -20.149621157904825 13.858878170105729 #
straight-curve $-1 73.740043336283463 -7.9913710835799883 9.5873087393157164 0 1 0 I I #
point $-1 73.740043336283449 -20.149621157904825 9.5873087393157164 #
point $-1 69.634264780832197 -17.768547448907764 10.465087609743726 #
point $-1 69.634264780832197 -14.196936885412178 10.465087609743726 #
straight-curve $-1 73.740043336283463 5.7496866634717794 106.79896462393984 0 0 -1 I I #
point $-1 73.740043336283463 5.7496866634717794 13.858878170105729 #
straight-curve $-1 73.740043336283463 4.958282827108313 9.5873087393157164 0 1 0 I I #
point $-1 73.740043336283449 5.7496866634717794 9.5873087393157164 #
point $-1 69.634264780832197 8.1307603724688349 10.465087609743726 #
point $-1 69.634264780832197 11.702370935964424 10.465087609743726 #
straight-curve $-1 -73.740043336283463 -1.6541355086057976 47.048761942892348 0 0 -1 I I #
point $-1 -73.740043336283463 -1.6541355086057976 13.858878170105729 #
straight-curve $-1 -73.740043336283463 -5.372912625752047 3.2997177019483637 0 -1 0 I I #
point $-1 -73.740043336283463 -1.6541355086057976 3.299717701948349 #
point $-1 -66.310718235640095 -14.642263712746221 5.9975669497640602 #
point $-1 -66.310718235640095 -6.849386790261967 5.9975669497640602 #
End-of-ACIS-data 