500 0 10 0           
7 Unknown 11 ACIS 5.0 NT 24 Thu Mar 25 18:08:13 1999 
-1 9.9999999999999995e-007 1e-010 
body $-1 $10 $-1 $11 #
body $-1 $12 $-1 $13 #
body $-1 $14 $-1 $15 #
body $-1 $16 $-1 $17 #
body $-1 $18 $-1 $19 #
body $-1 $20 $-1 $21 #
body $-1 $22 $-1 $23 #
body $-1 $24 $-1 $25 #
body $-1 $26 $-1 $27 #
body $-1 $28 $-1 $29 #
lump $-1 $-1 $30 $0 #
transform $-1 1 0 0 0 1 0 0 0 1 78.972136600848415 41.059871370597065 14.711355811577093 1 rotate no_reflect no_shear #
lump $-1 $-1 $31 $1 #
transform $-1 1 0 0 0 1 0 0 0 1 78.972136600848415 41.059871370597065 14.711355811577093 1 rotate no_reflect no_shear #
lump $-1 $-1 $32 $2 #
transform $-1 1 0 0 0 1 0 0 0 1 78.972136600848415 41.059871370597065 14.711355811577093 1 rotate no_reflect no_shear #
lump $-1 $-1 $33 $3 #
transform $-1 1 0 0 0 1 0 0 0 1 78.972136600848415 41.059871370597065 14.711355811577093 1 rotate no_reflect no_shear #
lump $-1 $-1 $34 $4 #
transform $-1 1 0 0 0 1 0 0 0 1 78.972136600848415 41.059871370597065 14.711355811577093 1 rotate no_reflect no_shear #
lump $-1 $-1 $35 $5 #
transform $-1 1 0 0 0 1 0 0 0 1 78.972136600848415 41.059871370597065 14.711355811577093 1 rotate no_reflect no_shear #
lump $-1 $-1 $36 $6 #
transform $-1 1 0 0 0 1 0 0 0 1 78.972136600848415 41.059871370597065 14.711355811577093 1 rotate no_reflect no_shear #
lump $-1 $-1 $37 $7 #
transform $-1 1 0 0 0 1 0 0 0 1 78.972136600848415 41.059871370597065 14.711355811577093 1 rotate no_reflect no_shear #
lump $-1 $-1 $38 $8 #
transform $-1 1 0 0 0 1 0 0 0 1 78.972136600848415 41.059871370597065 14.711355811577093 1 rotate no_reflect no_shear #
lump $-1 $-1 $39 $9 #
transform $-1 1 0 0 0 1 0 0 0 1 78.972136600848415 41.059871370597065 14.711355811577093 1 rotate no_reflect no_shear #
shell $-1 $-1 $-1 $40 $-1 $10 #
shell $-1 $-1 $-1 $41 $-1 $12 #
shell $-1 $-1 $-1 $42 $-1 $14 #
shell $-1 $-1 $-1 $43 $-1 $16 #
shell $-1 $-1 $-1 $44 $-1 $18 #
shell $-1 $-1 $-1 $45 $-1 $20 #
shell $-1 $-1 $-1 $46 $-1 $22 #
shell $-1 $-1 $-1 $47 $-1 $24 #
shell $-1 $-1 $-1 $48 $-1 $26 #
shell $-1 $-1 $-1 $49 $-1 $28 #
face $-1 $50 $51 $30 $-1 $52 forward single #
face $-1 $53 $54 $31 $-1 $55 reversed single #
face $-1 $56 $57 $32 $-1 $58 forward single #
face $-1 $59 $60 $33 $-1 $61 forward single #
face $-1 $62 $63 $34 $-1 $64 reversed single #
face $-1 $65 $66 $35 $-1 $67 forward single #
face $-1 $68 $69 $36 $-1 $70 forward single #
face $-1 $71 $72 $37 $-1 $73 reversed single #
face $-1 $74 $75 $38 $-1 $76 forward single #
face $-1 $77 $78 $39 $-1 $79 forward single #
face $-1 $80 $81 $30 $-1 $82 reversed single #
loop $-1 $-1 $83 $40 #
plane-surface $-1 0 0 14.711355811577093 0 0 1 1 0 0 forward_v I I I I #
face $-1 $84 $85 $31 $-1 $86 reversed single #
loop $-1 $-1 $87 $41 #
plane-surface $-1 -190.65560452716213 13.112301759060308 116.49960717132181 0 1 0 -0.70710678939079041 0 0.70710677298230451 forward_v I I I I #
face $-1 $88 $89 $32 $-1 $90 forward single #
loop $-1 $91 $92 $42 #
cone-surface $-1 -72.079608410070236 19.265813639000498 7.8188275511212799 0.70710678939079041 0 -0.70710677298230451 1.0606601594734568 0 1.0606601840861856 1 I I 0 1 1.5 forward I I I I #
face $-1 $93 $94 $33 $-1 $95 forward single #
loop $-1 $96 $97 $43 #
cone-surface $-1 -72.079608410070236 28.49608145891078 7.8188275511212799 0.70710678939079041 0 -0.70710677298230451 1.0606601594734568 0 1.0606601840861856 1 I I 0 1 1.5 forward I I I I #
face $-1 $98 $99 $34 $-1 $100 reversed single #
loop $-1 $-1 $101 $44 #
plane-surface $-1 136.78375631269765 -6.518108093003562 217.65982838932297 0 -1 0 -0.86602541151947299 0 -0.49999998660252726 forward_v I I I I #
face $-1 $102 $103 $35 $-1 $104 forward single #
loop $-1 $105 $106 $45 #
cone-surface $-1 74.766973318520613 -17.449941492128712 8.0143648915252648 -0.86602541151947299 0 -0.49999998660252726 0.49999998660252726 0 -0.86602541151947299 1 I I 0 1 1 forward I I I I #
face $-1 $107 $108 $36 $-1 $109 forward single #
loop $-1 $110 $111 $46 #
cone-surface $-1 74.766973318520613 -10.890841452653625 8.0143648915252648 -0.86602541151947299 0 -0.49999998660252726 0.49999998660252726 0 -0.86602541151947299 1 I I 0 1 1 forward I I I I #
face $-1 $112 $113 $37 $-1 $114 reversed single #
loop $-1 $-1 $115 $47 #
plane-surface $-1 136.78375631269765 21.822674851778771 217.65982838932297 0 -1 0 -0.86602541151947299 0 -0.49999998660252726 forward_v I I I I #
face $-1 $116 $117 $38 $-1 $118 forward single #
loop $-1 $119 $120 $48 #
cone-surface $-1 74.766973318520613 10.890841452653618 8.0143648915252648 -0.86602541151947299 0 -0.49999998660252726 0.49999998660252726 0 -0.86602541151947299 1 I I 0 1 1 forward I I I I #
face $-1 $121 $122 $39 $-1 $123 forward single #
loop $-1 $124 $125 $49 #
cone-surface $-1 74.766973318520613 17.449941492128708 8.0143648915252648 -0.86602541151947299 0 -0.49999998660252726 0.49999998660252726 0 -0.86602541151947299 1 I I 0 1 1 forward I I I I #
face $-1 $126 $127 $30 $-1 $128 reversed single #
loop $-1 $-1 $129 $50 #
plane-surface $-1 0 0 -14.711355811577093 0 0 1 1 0 0 forward_v I I I I #
coedge $-1 $130 $131 $132 $133 forward $51 $-1 #
face $-1 $134 $135 $31 $-1 $136 reversed single #
loop $-1 $-1 $137 $53 #
plane-surface $-1 -78.97213660084843 23.880947548955632 4.8161418366344861 -0.70710678939079041 0 0.70710677298230451 0.70710677298230451 0 0.70710678939079041 forward_v I I I I #
coedge $-1 $138 $139 $140 $141 reversed $54 $-1 #
face $-1 $-1 $142 $32 $-1 $143 forward single #
loop $-1 $144 $145 $56 #
cone-surface $-1 -69.60435699991055 19.265813639000498 5.3435761984000578 0.70710678939079041 0 -0.70710677298230451 0.53033007973672841 0 0.53033009204309278 1 I I -0.70710678118654757 0.70710678118654757 0.75 forward I I I I #
loop $-1 $-1 $146 $42 #
coedge $-1 $92 $92 $147 $148 reversed $57 $-1 #
face $-1 $-1 $149 $33 $-1 $150 forward single #
loop $-1 $151 $152 $59 #
cone-surface $-1 -69.60435699991055 28.49608145891078 5.3435761984000578 0.70710678939079041 0 -0.70710677298230451 0.53033007973672841 0 0.53033009204309278 1 I I -0.70710678118654757 0.70710678118654757 0.75 forward I I I I #
loop $-1 $-1 $153 $43 #
coedge $-1 $97 $97 $154 $155 reversed $60 $-1 #
face $-1 $156 $157 $34 $-1 $158 reversed single #
loop $-1 $-1 $159 $62 #
plane-surface $-1 2.1160540768505598e-006 -14.170391472391167 138.68769390452866 0.86602541151947299 0 0.49999998660252726 0.49999998660252726 0 -0.86602541151947299 forward_v I I I I #
coedge $-1 $160 $161 $162 $163 reversed $63 $-1 #
face $-1 $-1 $164 $35 $-1 $165 forward single #
loop $-1 $166 $167 $65 #
cone-surface $-1 73.825979765890423 -17.449941492128712 7.4710820300181666 -0.86602541151947299 0 -0.49999998660252726 0.24999999330126363 0 -0.43301270575973649 1 I I -0.70710678118654746 0.70710678118654746 0.5 forward I I I I #
loop $-1 $-1 $168 $45 #
coedge $-1 $106 $106 $169 $170 reversed $66 $-1 #
face $-1 $-1 $171 $36 $-1 $172 forward single #
loop $-1 $173 $174 $68 #
cone-surface $-1 73.825979765890423 -10.890841452653625 7.4710820300181666 -0.86602541151947299 0 -0.49999998660252726 0.24999999330126363 0 -0.43301270575973649 1 I I -0.70710678118654746 0.70710678118654746 0.5 forward I I I I #
loop $-1 $-1 $175 $46 #
coedge $-1 $111 $111 $176 $177 reversed $69 $-1 #
face $-1 $178 $179 $37 $-1 $180 reversed single #
loop $-1 $-1 $181 $71 #
plane-surface $-1 2.1160540768505598e-006 14.170391472391167 138.68769390452866 0.86602541151947299 0 0.49999998660252726 0.49999998660252726 0 -0.86602541151947299 forward_v I I I I #
coedge $-1 $182 $183 $184 $185 reversed $72 $-1 #
face $-1 $-1 $186 $38 $-1 $187 forward single #
loop $-1 $188 $189 $74 #
cone-surface $-1 73.825979765890423 10.890841452653618 7.4710820300181666 -0.86602541151947299 0 -0.49999998660252726 0.24999999330126363 0 -0.43301270575973649 1 I I -0.70710678118654746 0.70710678118654746 0.5 forward I I I I #
loop $-1 $-1 $190 $48 #
coedge $-1 $120 $120 $191 $192 reversed $75 $-1 #
face $-1 $-1 $193 $39 $-1 $194 forward single #
loop $-1 $195 $196 $77 #
cone-surface $-1 73.825979765890423 17.449941492128708 7.4710820300181666 -0.86602541151947299 0 -0.49999998660252726 0.24999999330126363 0 -0.43301270575973649 1 I I -0.70710678118654746 0.70710678118654746 0.5 forward I I I I #
loop $-1 $-1 $197 $49 #
coedge $-1 $125 $125 $198 $199 reversed $78 $-1 #
face $-1 $200 $201 $30 $-1 $202 reversed single #
loop $-1 $-1 $203 $80 #
plane-surface $-1 0 -41.059871370597065 0 0 1 0 0 0 1 forward_v I I I I #
coedge $-1 $204 $205 $206 $207 forward $81 $-1 #
coedge $-1 $208 $83 $209 $210 forward $51 $-1 #
coedge $-1 $83 $208 $211 $212 forward $51 $-1 #
coedge $-1 $213 $214 $83 $133 reversed $215 $-1 #
edge $-1 $216 -41.059871370597065 $217 41.059871370597065 $132 $218 forward 7 unknown #
face $-1 $219 $220 $31 $-1 $221 reversed single #
loop $-1 $-1 $222 $84 #
plane-surface $-1 -190.65560452716213 34.649593338850956 116.49960717132181 0 -1 0 0.70710678939079041 0 -0.70710677298230451 forward_v I I I I #
coedge $-1 $223 $224 $225 $226 reversed $85 $-1 #
coedge $-1 $139 $87 $227 $228 reversed $54 $-1 #
coedge $-1 $87 $138 $223 $229 reversed $54 $-1 #
coedge $-1 $225 $230 $87 $141 forward $231 $-1 #
edge $-1 $232 16.355665662732648 $233 26.250879408055781 $140 $234 forward 7 unknown #
loop $-1 $-1 $147 $88 #
plane-surface $-1 -78.97213660084843 23.880947548955632 4.8161418366344861 -0.70710678939079041 0 0.70710677298230451 0.70710677298230451 0 0.70710678939079041 forward_v I I I I #
loop $-1 $-1 $235 $56 #
coedge $-1 $145 $145 $146 $236 reversed $89 $-1 #
coedge $-1 $146 $146 $145 $236 forward $91 $-1 #
coedge $-1 $147 $147 $92 $148 forward $142 $-1 #
edge $-1 $237 0 $237 6.2831853071796004 $147 $238 forward 7 unknown #
loop $-1 $-1 $154 $93 #
plane-surface $-1 -78.97213660084843 23.880947548955632 4.8161418366344861 -0.70710678939079041 0 0.70710677298230451 0.70710677298230451 0 0.70710678939079041 forward_v I I I I #
loop $-1 $-1 $239 $59 #
coedge $-1 $152 $152 $153 $240 reversed $94 $-1 #
coedge $-1 $153 $153 $152 $240 forward $96 $-1 #
coedge $-1 $154 $154 $97 $155 forward $149 $-1 #
edge $-1 $241 0 $241 6.2831853071796004 $154 $242 forward 7 unknown #
face $-1 $243 $244 $34 $-1 $245 forward single #
loop $-1 $-1 $246 $98 #
plane-surface $-1 136.78375631269765 -21.822674851778771 217.65982838932297 0 1 0 0.86602541151947299 0 0.49999998660252726 forward_v I I I I #
coedge $-1 $247 $248 $249 $250 reversed $99 $-1 #
coedge $-1 $161 $101 $251 $252 reversed $63 $-1 #
coedge $-1 $101 $160 $247 $253 reversed $63 $-1 #
coedge $-1 $249 $254 $101 $163 forward $244 $-1 #
edge $-1 $255 -10.580258444499592 $256 -3.1858935735849201 $162 $257 forward 7 unknown #
loop $-1 $-1 $169 $102 #
plane-surface $-1 2.1160540768505598e-006 -14.170391472391167 138.68769390452866 0.86602541151947299 0 0.49999998660252726 0.49999998660252726 0 -0.86602541151947299 forward_v I I I I #
loop $-1 $-1 $258 $65 #
coedge $-1 $167 $167 $168 $259 reversed $103 $-1 #
coedge $-1 $168 $168 $167 $259 forward $105 $-1 #
coedge $-1 $169 $169 $106 $170 forward $164 $-1 #
edge $-1 $260 0 $260 6.2831853071796004 $169 $261 forward 7 unknown #
loop $-1 $-1 $176 $107 #
plane-surface $-1 2.1160540768505598e-006 -14.170391472391167 138.68769390452866 0.86602541151947299 0 0.49999998660252726 0.49999998660252726 0 -0.86602541151947299 forward_v I I I I #
loop $-1 $-1 $262 $68 #
coedge $-1 $174 $174 $175 $263 reversed $108 $-1 #
coedge $-1 $175 $175 $174 $263 forward $110 $-1 #
coedge $-1 $176 $176 $111 $177 forward $171 $-1 #
edge $-1 $264 0 $264 6.2831853071796004 $176 $265 forward 7 unknown #
face $-1 $266 $267 $37 $-1 $268 reversed single #
loop $-1 $-1 $269 $112 #
plane-surface $-1 136.78375631269765 6.518108093003562 217.65982838932297 0 1 0 0.86602541151947299 0 0.49999998660252726 forward_v I I I I #
coedge $-1 $270 $271 $272 $273 reversed $113 $-1 #
coedge $-1 $183 $115 $274 $275 reversed $72 $-1 #
coedge $-1 $115 $182 $270 $276 reversed $72 $-1 #
coedge $-1 $272 $277 $115 $185 forward $278 $-1 #
edge $-1 $279 -10.580258444499592 $280 -3.1858935735849201 $184 $281 forward 7 unknown #
loop $-1 $-1 $191 $116 #
plane-surface $-1 2.1160540768505598e-006 14.170391472391167 138.68769390452866 0.86602541151947299 0 0.49999998660252726 0.49999998660252726 0 -0.86602541151947299 forward_v I I I I #
loop $-1 $-1 $282 $74 #
coedge $-1 $189 $189 $190 $283 reversed $117 $-1 #
coedge $-1 $190 $190 $189 $283 forward $119 $-1 #
coedge $-1 $191 $191 $120 $192 forward $186 $-1 #
edge $-1 $284 0 $284 6.2831853071796004 $191 $285 forward 7 unknown #
loop $-1 $-1 $198 $121 #
plane-surface $-1 2.1160540768505598e-006 14.170391472391167 138.68769390452866 0.86602541151947299 0 0.49999998660252726 0.49999998660252726 0 -0.86602541151947299 forward_v I I I I #
loop $-1 $-1 $286 $77 #
coedge $-1 $196 $196 $197 $287 reversed $122 $-1 #
coedge $-1 $197 $197 $196 $287 forward $124 $-1 #
coedge $-1 $198 $198 $125 $199 forward $193 $-1 #
edge $-1 $288 0 $288 6.2831853071796004 $198 $289 forward 7 unknown #
face $-1 $290 $291 $30 $-1 $292 reversed single #
loop $-1 $-1 $293 $126 #
plane-surface $-1 -78.972136600848415 0 0 1 0 0 0 0 -1 forward_v I I I I #
coedge $-1 $294 $211 $295 $296 forward $127 $-1 #
coedge $-1 $297 $129 $294 $298 forward $81 $-1 #
coedge $-1 $129 $297 $299 $300 forward $81 $-1 #
coedge $-1 $214 $213 $129 $207 reversed $215 $-1 #
edge $-1 $301 -41.059871370597065 $302 41.059871370597065 $206 $303 forward 7 unknown #
coedge $-1 $131 $130 $304 $305 forward $51 $-1 #
coedge $-1 $306 $307 $130 $210 reversed $291 $-1 #
edge $-1 $217 -78.972136600848415 $308 78.972136600848415 $209 $309 forward 7 unknown #
coedge $-1 $203 $310 $131 $212 reversed $127 $-1 #
edge $-1 $311 -78.972136600848415 $216 78.972136600848415 $211 $312 forward 7 unknown #
coedge $-1 $206 $132 $310 $313 forward $215 $-1 #
coedge $-1 $132 $206 $306 $314 reversed $215 $-1 #
loop $-1 $-1 $213 $290 #
vertex $-1 $133 $315 #
vertex $-1 $133 $316 #
straight-curve $-1 78.972136600848415 0 14.711355811577093 0 1 0 I I #
face $-1 $-1 $231 $31 $-1 $317 forward single #
loop $-1 $-1 $318 $134 #
plane-surface $-1 -78.972136600848415 0 0 1 0 0 0 0 -1 forward_v I I I I #
coedge $-1 $319 $320 $321 $322 reversed $135 $-1 #
coedge $-1 $323 $137 $139 $229 forward $85 $-1 #
coedge $-1 $137 $323 $319 $324 forward $85 $-1 #
coedge $-1 $321 $140 $137 $226 forward $231 $-1 #
edge $-1 $233 1.1718279845824924 $325 22.70911956437314 $225 $326 forward 7 unknown #
coedge $-1 $327 $328 $138 $228 forward $220 $-1 #
edge $-1 $329 -53.433661749026406 $232 -43.538447774083814 $227 $330 forward 7 unknown #
edge $-1 $233 -13.993945643582146 $329 -2.0097183471152325e-014 $139 $331 forward 7 unknown #
coedge $-1 $140 $321 $327 $332 forward $231 $-1 #
loop $-1 $-1 $321 $219 #
vertex $-1 $228 $333 #
vertex $-1 $141 $334 #
straight-curve $-1 -95.327802263581063 13.112301759060308 14.711355811577093 1 0 0 I I #
coedge $-1 $235 $235 $-1 $335 reversed $144 $-1 #
edge $-1 $336 0 $336 6.2831853071796004 $145 $337 forward 7 unknown #
vertex $-1 $148 $338 #
ellipse-curve $-1 -74.024529728186849 19.265813639000498 9.7637488241057948 -0.70710678939079041 0 0.70710677298230451 1.0606601594734568 0 1.0606601840861856 1 I I #
coedge $-1 $239 $239 $-1 $339 reversed $151 $-1 #
edge $-1 $340 0 $340 6.2831853071796004 $152 $341 forward 7 unknown #
vertex $-1 $155 $342 #
ellipse-curve $-1 -74.024529728186849 28.49608145891078 9.7637488241057948 -0.70710678939079041 0 0.70710677298230451 1.0606601594734568 0 1.0606601840861856 1 I I #
face $-1 $-1 $343 $34 $-1 $344 reversed single #
loop $-1 $-1 $162 $156 #
plane-surface $-1 0 0 14.711355811577093 0 0 1 1 0 0 forward_v I I I I #
coedge $-1 $345 $346 $347 $348 reversed $157 $-1 #
coedge $-1 $349 $159 $161 $253 forward $99 $-1 #
coedge $-1 $159 $349 $345 $350 forward $99 $-1 #
coedge $-1 $347 $162 $159 $250 forward $244 $-1 #
edge $-1 $256 -0.56708764319202132 $351 14.737479115583188 $249 $352 forward 7 unknown #
coedge $-1 $353 $354 $160 $252 forward $343 $-1 #
edge $-1 $355 -106.92597448677643 $255 -94.118558383084391 $251 $356 forward 7 unknown #
edge $-1 $256 143.15554306360431 $355 157.94427320169686 $161 $357 forward 7 unknown #
coedge $-1 $162 $347 $353 $358 forward $244 $-1 #
vertex $-1 $252 $359 #
vertex $-1 $163 $360 #
straight-curve $-1 68.391878156348824 -6.518108093003562 14.711355811577093 -1 0 0 I I #
coedge $-1 $258 $258 $-1 $361 reversed $166 $-1 #
edge $-1 $362 0 $362 6.2831853071796004 $167 $363 forward 7 unknown #
vertex $-1 $170 $364 #
ellipse-curve $-1 75.274954165391065 -17.449941492128712 8.3076477597310987 0.86602541151947299 0 0.49999998660252726 0.49999998660252726 0 -0.86602541151947299 1 I I #
coedge $-1 $262 $262 $-1 $365 reversed $173 $-1 #
edge $-1 $366 0 $366 6.2831853071796004 $174 $367 forward 7 unknown #
vertex $-1 $177 $368 #
ellipse-curve $-1 75.274954165391065 -10.890841452653625 8.3076477597310987 0.86602541151947299 0 0.49999998660252726 0.49999998660252726 0 -0.86602541151947299 1 I I #
face $-1 $-1 $278 $37 $-1 $369 forward single #
loop $-1 $-1 $370 $178 #
plane-surface $-1 78.972136600848415 0 0 -1 0 0 0 0 1 forward_v I I I I #
coedge $-1 $371 $372 $373 $374 reversed $179 $-1 #
coedge $-1 $375 $181 $183 $276 forward $113 $-1 #
coedge $-1 $181 $375 $371 $376 forward $113 $-1 #
coedge $-1 $373 $184 $181 $273 forward $278 $-1 #
edge $-1 $280 -14.737479115583188 $377 0.56708764319202132 $272 $378 forward 7 unknown #
coedge $-1 $379 $380 $182 $275 forward $267 $-1 #
edge $-1 $381 -106.92597448677643 $279 -94.118558383084391 $274 $382 forward 7 unknown #
edge $-1 $280 143.15554306360431 $381 157.94427320169686 $183 $383 forward 7 unknown #
coedge $-1 $184 $373 $379 $384 forward $278 $-1 #
loop $-1 $-1 $373 $266 #
vertex $-1 $275 $385 #
vertex $-1 $185 $386 #
straight-curve $-1 68.391878156348824 21.822674851778771 14.711355811577093 -1 0 0 I I #
coedge $-1 $282 $282 $-1 $387 reversed $188 $-1 #
edge $-1 $388 0 $388 6.2831853071796004 $189 $389 forward 7 unknown #
vertex $-1 $192 $390 #
ellipse-curve $-1 75.274954165391065 10.890841452653618 8.3076477597310987 0.86602541151947299 0 0.49999998660252726 0.49999998660252726 0 -0.86602541151947299 1 I I #
coedge $-1 $286 $286 $-1 $391 reversed $195 $-1 #
edge $-1 $392 0 $392 6.2831853071796004 $196 $393 forward 7 unknown #
vertex $-1 $199 $394 #
ellipse-curve $-1 75.274954165391065 17.449941492128708 8.3076477597310987 0.86602541151947299 0 0.49999998660252726 0.49999998660252726 0 -0.86602541151947299 1 I I #
face $-1 $-1 $215 $30 $-1 $395 reversed single #
loop $-1 $-1 $306 $200 #
plane-surface $-1 0 41.059871370597065 0 0 -1 0 0 0 -1 forward_v I I I I #
coedge $-1 $396 $304 $307 $397 forward $201 $-1 #
coedge $-1 $310 $203 $204 $298 reversed $127 $-1 #
coedge $-1 $304 $396 $203 $296 reversed $201 $-1 #
edge $-1 $311 -14.711355811577093 $398 14.711355811577093 $295 $399 forward 7 unknown #
coedge $-1 $205 $204 $396 $400 forward $81 $-1 #
edge $-1 $302 -78.972136600848415 $398 78.972136600848415 $294 $401 forward 7 unknown #
coedge $-1 $307 $306 $205 $300 reversed $291 $-1 #
edge $-1 $402 -78.972136600848415 $301 78.972136600848415 $299 $403 forward 7 unknown #
vertex $-1 $207 $404 #
vertex $-1 $313 $405 #
straight-curve $-1 78.972136600848415 0 -14.711355811577093 0 -1 0 I I #
coedge $-1 $293 $295 $208 $305 reversed $201 $-1 #
edge $-1 $308 -41.059871370597065 $311 41.059871370597065 $304 $406 forward 7 unknown #
coedge $-1 $299 $209 $214 $314 forward $291 $-1 #
coedge $-1 $209 $299 $293 $397 reversed $291 $-1 #
vertex $-1 $210 $407 #
straight-curve $-1 0 41.059871370597065 14.711355811577093 -1 0 0 I I #
coedge $-1 $211 $294 $213 $313 reversed $127 $-1 #
vertex $-1 $305 $408 #
straight-curve $-1 0 -41.059871370597065 14.711355811577093 1 0 0 I I #
edge $-1 $216 -14.711355811577093 $302 14.711355811577093 $213 $409 forward 7 unknown #
edge $-1 $217 -14.711355811577093 $301 14.711355811577093 $214 $410 forward 7 unknown #
point $-1 78.972136600848415 -41.059871370597065 14.711355811577093 #
point $-1 78.972136600848415 41.059871370597065 14.711355811577093 #
plane-surface $-1 0 0 14.711355811577093 0 0 1 1 0 0 forward_v I I I I #
coedge $-1 $328 $327 $320 $411 forward $220 $-1 #
coedge $-1 $320 $222 $224 $324 reversed $135 $-1 #
coedge $-1 $222 $319 $318 $411 reversed $135 $-1 #
coedge $-1 $230 $225 $222 $322 forward $231 $-1 #
edge $-1 $325 -26.250879408055781 $412 -16.355665662732648 $321 $413 forward 7 unknown #
coedge $-1 $224 $223 $328 $414 reversed $85 $-1 #
edge $-1 $415 2.0097183471152325e-014 $325 13.993945643582146 $319 $416 forward 7 unknown #
vertex $-1 $226 $417 #
straight-curve $-1 -69.076922855525282 11.940473774477816 14.711355811577091 0 1 0 I I #
coedge $-1 $318 $227 $230 $332 reversed $220 $-1 #
coedge $-1 $227 $318 $323 $414 forward $220 $-1 #
vertex $-1 $228 $418 #
straight-curve $-1 -78.972136600848415 13.112301759060308 58.249803585660906 0 0 1 I I #
straight-curve $-1 -78.97213660084843 13.112301759060308 4.8161418366344861 -0.70710677298230451 0 -0.70710678939079041 I I #
edge $-1 $412 -34.649593338850956 $232 -13.112301759060308 $327 $419 forward 7 unknown #
point $-1 -78.972136600848415 13.112301759060308 14.711355811577093 #
point $-1 -69.076922855525282 13.112301759060308 14.711355811577093 #
edge $-1 $420 1 $420 0 $235 $-1 forward 7 unknown #
vertex $-1 $236 $421 #
ellipse-curve $-1 -70.134687091953637 19.265813639000498 5.8739062781367863 -0.70710678939079041 0 0.70710677298230451 1.0606601594734568 0 1.0606601840861856 1 I I #
point $-1 -72.963869568713378 19.265813639000498 10.82440900819196 #
edge $-1 $422 1 $422 0 $239 $-1 forward 7 unknown #
vertex $-1 $240 $423 #
ellipse-curve $-1 -70.134687091953637 28.49608145891078 5.8739062781367863 -0.70710678939079041 0 0.70710677298230451 1.0606601594734568 0 1.0606601840861856 1 I I #
point $-1 -72.963869568713378 28.49608145891078 10.82440900819196 #
loop $-1 $-1 $251 $243 #
plane-surface $-1 78.972136600848415 0 0 -1 0 0 0 0 1 forward_v I I I I #
coedge $-1 $346 $246 $248 $350 reversed $157 $-1 #
coedge $-1 $246 $345 $424 $425 reversed $157 $-1 #
coedge $-1 $254 $249 $246 $348 forward $244 $-1 #
edge $-1 $351 3.1858935735849201 $426 10.580258444499592 $347 $427 forward 7 unknown #
coedge $-1 $248 $247 $354 $428 reversed $99 $-1 #
edge $-1 $429 -157.94427320169686 $351 -143.15554306360431 $345 $430 forward 7 unknown #
vertex $-1 $250 $431 #
straight-curve $-1 71.577771729933758 -7.0851957361955833 14.711355811577093 0 -1 0 I I #
coedge $-1 $424 $251 $254 $358 reversed $343 $-1 #
coedge $-1 $251 $424 $349 $428 forward $343 $-1 #
vertex $-1 $252 $432 #
straight-curve $-1 78.972136600848415 -6.518108093003562 108.82991419466148 0 0 1 I I #
straight-curve $-1 2.1160540768505598e-006 -6.518108093003562 138.68769390452866 0.49999998660252726 0 -0.86602541151947299 I I #
edge $-1 $426 -21.822674851778771 $255 -6.518108093003562 $353 $433 forward 7 unknown #
point $-1 78.972136600848415 -6.518108093003562 14.711355811577093 #
point $-1 71.577771729933744 -6.518108093003562 14.711355811577093 #
edge $-1 $434 1 $434 0 $258 $-1 forward 7 unknown #
vertex $-1 $259 $435 #
ellipse-curve $-1 74.25899247165016 -17.449941492128712 7.7210820233194299 0.86602541151947299 0 0.49999998660252726 0.49999998660252726 0 -0.86602541151947299 1 I I #
point $-1 75.774954151993597 -17.449941492128712 7.4416223482116255 #
edge $-1 $436 1 $436 0 $262 $-1 forward 7 unknown #
vertex $-1 $263 $437 #
ellipse-curve $-1 74.25899247165016 -10.890841452653625 7.7210820233194299 0.86602541151947299 0 0.49999998660252726 0.49999998660252726 0 -0.86602541151947299 1 I I #
point $-1 75.774954151993597 -10.890841452653625 7.4416223482116255 #
plane-surface $-1 0 0 14.711355811577093 0 0 1 1 0 0 forward_v I I I I #
coedge $-1 $380 $379 $372 $438 forward $267 $-1 #
coedge $-1 $372 $269 $271 $376 reversed $179 $-1 #
coedge $-1 $269 $371 $370 $438 reversed $179 $-1 #
coedge $-1 $277 $272 $269 $374 forward $278 $-1 #
edge $-1 $377 3.1858935735849201 $439 10.580258444499592 $373 $440 forward 7 unknown #
coedge $-1 $271 $270 $380 $441 reversed $113 $-1 #
edge $-1 $442 -157.94427320169686 $377 -143.15554306360431 $371 $443 forward 7 unknown #
vertex $-1 $273 $444 #
straight-curve $-1 71.577771729933758 7.0851957361955833 14.711355811577093 0 -1 0 I I #
coedge $-1 $370 $274 $277 $384 reversed $267 $-1 #
coedge $-1 $274 $370 $375 $441 forward $267 $-1 #
vertex $-1 $275 $445 #
straight-curve $-1 78.972136600848415 21.822674851778771 108.82991419466148 0 0 1 I I #
straight-curve $-1 2.1160540768505598e-006 21.822674851778771 138.68769390452866 0.49999998660252726 0 -0.86602541151947299 I I #
edge $-1 $439 6.518108093003562 $279 21.822674851778771 $379 $446 forward 7 unknown #
point $-1 78.972136600848415 21.822674851778771 14.711355811577093 #
point $-1 71.577771729933744 21.822674851778771 14.711355811577093 #
edge $-1 $447 1 $447 0 $282 $-1 forward 7 unknown #
vertex $-1 $283 $448 #
ellipse-curve $-1 74.25899247165016 10.890841452653618 7.7210820233194299 0.86602541151947299 0 0.49999998660252726 0.49999998660252726 0 -0.86602541151947299 1 I I #
point $-1 75.774954151993597 10.890841452653618 7.4416223482116255 #
edge $-1 $449 1 $449 0 $286 $-1 forward 7 unknown #
vertex $-1 $287 $450 #
ellipse-curve $-1 74.25899247165016 17.449941492128708 7.7210820233194299 0.86602541151947299 0 0.49999998660252726 0.49999998660252726 0 -0.86602541151947299 1 I I #
point $-1 75.774954151993597 17.449941492128708 7.4416223482116255 #
plane-surface $-1 78.972136600848415 0 0 -1 0 0 0 0 1 forward_v I I I I #
coedge $-1 $295 $293 $297 $400 reversed $201 $-1 #
edge $-1 $308 -14.711355811577093 $402 14.711355811577093 $307 $451 forward 7 unknown #
vertex $-1 $400 $452 #
straight-curve $-1 -78.972136600848415 -41.059871370597065 0 0 0 -1 I I #
edge $-1 $398 -41.059871370597065 $402 41.059871370597065 $396 $453 forward 7 unknown #
straight-curve $-1 0 -41.059871370597065 -14.711355811577093 -1 0 0 I I #
vertex $-1 $300 $454 #
straight-curve $-1 0 41.059871370597065 -14.711355811577093 1 0 0 I I #
point $-1 78.972136600848415 41.059871370597065 -14.711355811577093 #
point $-1 78.972136600848415 -41.059871370597065 -14.711355811577093 #
straight-curve $-1 -78.972136600848415 0 14.711355811577093 0 -1 0 I I #
point $-1 -78.972136600848415 41.059871370597065 14.711355811577093 #
point $-1 -78.972136600848415 -41.059871370597065 14.711355811577093 #
straight-curve $-1 78.972136600848415 -41.059871370597065 0 0 0 -1 I I #
straight-curve $-1 78.972136600848415 41.059871370597065 0 0 0 -1 I I #
edge $-1 $412 43.538447774083814 $415 53.433661749026406 $318 $455 forward 7 unknown #
vertex $-1 $332 $456 #
straight-curve $-1 -95.327802263581063 34.649593338850956 14.711355811577093 -1 0 0 I I #
edge $-1 $415 -22.70911956437314 $329 -1.1718279845824924 $328 $457 forward 7 unknown #
vertex $-1 $414 $458 #
straight-curve $-1 -78.97213660084843 34.649593338850956 4.8161418366344861 0.70710677298230451 0 0.70710678939079041 I I #
point $-1 -69.076922855525282 34.649593338850956 14.711355811577093 #
point $-1 -78.972136600848415 13.112301759060308 4.8161418366345004 #
straight-curve $-1 -78.972136600848415 0 14.711355811577093 0 -1 0 I I #
vertex $-1 $335 $459 #
point $-1 -69.07402693248018 19.265813639000498 6.9345664622229712 #
vertex $-1 $339 $460 #
point $-1 -69.07402693248018 28.49608145891078 6.9345664622229712 #
coedge $-1 $354 $353 $346 $425 forward $343 $-1 #
edge $-1 $426 94.118558383084391 $429 106.92597448677643 $424 $461 forward 7 unknown #
vertex $-1 $358 $462 #
straight-curve $-1 68.391878156348824 -21.822674851778771 14.711355811577093 1 0 0 I I #
edge $-1 $429 -14.737479115583188 $355 0.56708764319202132 $354 $463 forward 7 unknown #
vertex $-1 $428 $464 #
straight-curve $-1 2.1160540768505598e-006 -21.822674851778771 138.68769390452866 -0.49999998660252726 0 0.86602541151947299 I I #
point $-1 71.577771729933744 -21.822674851778771 14.711355811577093 #
point $-1 78.972136600848415 -6.518108093003562 1.9039397078850584 #
straight-curve $-1 78.972136600848415 0 14.711355811577093 0 1 0 I I #
vertex $-1 $361 $465 #
point $-1 74.758992458252692 -17.449941492128712 6.8550566117999576 #
vertex $-1 $365 $466 #
point $-1 74.758992458252692 -10.890841452653625 6.8550566117999576 #
edge $-1 $439 94.118558383084391 $442 106.92597448677643 $370 $467 forward 7 unknown #
vertex $-1 $384 $468 #
straight-curve $-1 68.391878156348824 6.518108093003562 14.711355811577093 1 0 0 I I #
edge $-1 $442 -0.56708764319202132 $381 14.737479115583188 $380 $469 forward 7 unknown #
vertex $-1 $441 $470 #
straight-curve $-1 2.1160540768505598e-006 6.518108093003562 138.68769390452866 -0.49999998660252726 0 0.86602541151947299 I I #
point $-1 71.577771729933744 6.518108093003562 14.711355811577093 #
point $-1 78.972136600848415 21.822674851778771 1.9039397078850584 #
straight-curve $-1 78.972136600848415 0 14.711355811577093 0 1 0 I I #
vertex $-1 $387 $471 #
point $-1 74.758992458252692 10.890841452653618 6.8550566117999576 #
vertex $-1 $391 $472 #
point $-1 74.758992458252692 17.449941492128708 6.8550566117999576 #
straight-curve $-1 -78.972136600848415 41.059871370597065 0 0 0 -1 I I #
point $-1 -78.972136600848415 -41.059871370597065 -14.711355811577093 #
straight-curve $-1 -78.972136600848415 0 -14.711355811577093 0 1 0 I I #
point $-1 -78.972136600848415 41.059871370597065 -14.711355811577093 #
straight-curve $-1 -78.972136600848415 34.649593338850956 58.249803585660906 0 0 -1 I I #
point $-1 -78.972136600848415 34.649593338850956 14.711355811577093 #
straight-curve $-1 -78.972136600848415 11.940473774477816 4.8161418366344861 0 -1 0 I I #
point $-1 -78.972136600848415 34.649593338850956 4.8161418366345004 #
point $-1 -69.074026907867463 19.265813639000498 4.8132461186633293 #
point $-1 -69.074026907867463 28.49608145891078 4.8132461186633293 #
straight-curve $-1 78.972136600848415 -21.822674851778771 108.82991419466148 0 0 -1 I I #
point $-1 78.972136600848415 -21.822674851778771 14.711355811577093 #
straight-curve $-1 78.972136600848415 -7.0851957361955833 1.9039397078850442 0 1 0 I I #
point $-1 78.972136600848415 -21.822674851778771 1.9039397078850584 #
point $-1 73.392967060130687 -17.449941492128712 7.2210820367169033 #
point $-1 73.392967060130687 -10.890841452653625 7.2210820367169033 #
straight-curve $-1 78.972136600848415 6.518108093003562 108.82991419466148 0 0 -1 I I #
point $-1 78.972136600848415 6.518108093003562 14.711355811577093 #
straight-curve $-1 78.972136600848415 7.0851957361955833 1.9039397078850442 0 1 0 I I #
point $-1 78.972136600848415 6.518108093003562 1.9039397078850584 #
point $-1 73.392967060130687 10.890841452653618 7.2210820367169033 #
point $-1 73.392967060130687 17.449941492128708 7.2210820367169033 #
End-of-ACIS-data 