500 0 13 0           
7 Unknown 11 ACIS 5.0 NT 24 Thu Mar 25 17:21:36 1999 
-1 9.9999999999999995e-007 1e-010 
body $-1 $13 $-1 $14 #
body $-1 $15 $-1 $16 #
body $-1 $17 $-1 $18 #
body $-1 $19 $-1 $20 #
body $-1 $21 $-1 $22 #
body $-1 $23 $-1 $24 #
body $-1 $25 $-1 $26 #
body $-1 $27 $-1 $28 #
body $-1 $29 $-1 $30 #
body $-1 $31 $-1 $32 #
body $-1 $33 $-1 $34 #
body $-1 $35 $-1 $36 #
body $-1 $37 $-1 $38 #
lump $-1 $-1 $39 $0 #
transform $-1 1 0 0 0 1 0 0 0 1 43.993041779839473 18.188901440851321 4 1 rotate no_reflect no_shear #
lump $-1 $-1 $40 $1 #
transform $-1 1 0 0 0 1 0 0 0 1 43.993041779839473 18.188901440851321 4 1 rotate no_reflect no_shear #
lump $-1 $-1 $41 $2 #
transform $-1 1 0 0 0 1 0 0 0 1 43.993041779839473 18.188901440851321 4 1 rotate no_reflect no_shear #
lump $-1 $-1 $42 $3 #
transform $-1 1 0 0 0 1 0 0 0 1 43.993041779839473 18.188901440851321 4 1 rotate no_reflect no_shear #
lump $-1 $-1 $43 $4 #
transform $-1 1 0 0 0 1 0 0 0 1 43.993041779839473 18.188901440851321 4 1 rotate no_reflect no_shear #
lump $-1 $-1 $44 $5 #
transform $-1 1 0 0 0 1 0 0 0 1 43.993041779839473 18.188901440851321 4 1 rotate no_reflect no_shear #
lump $-1 $-1 $45 $6 #
transform $-1 1 0 0 0 1 0 0 0 1 43.993041779839473 18.188901440851321 4 1 rotate no_reflect no_shear #
lump $-1 $-1 $46 $7 #
transform $-1 1 0 0 0 1 0 0 0 1 43.993041779839473 18.188901440851321 4 1 rotate no_reflect no_shear #
lump $-1 $-1 $47 $8 #
transform $-1 1 0 0 0 1 0 0 0 1 43.993041779839473 18.188901440851321 4 1 rotate no_reflect no_shear #
lump $-1 $-1 $48 $9 #
transform $-1 1 0 0 0 1 0 0 0 1 43.993041779839473 18.188901440851321 4 1 rotate no_reflect no_shear #
lump $-1 $-1 $49 $10 #
transform $-1 1 0 0 0 1 0 0 0 1 43.993041779839473 18.188901440851321 4 1 rotate no_reflect no_shear #
lump $-1 $-1 $50 $11 #
transform $-1 1 0 0 0 1 0 0 0 1 43.993041779839473 18.188901440851321 4 1 rotate no_reflect no_shear #
lump $-1 $-1 $51 $12 #
transform $-1 1 0 0 0 1 0 0 0 1 43.993041779839473 18.188901440851321 4 1 rotate no_reflect no_shear #
shell $-1 $-1 $-1 $52 $-1 $13 #
shell $-1 $-1 $-1 $53 $-1 $15 #
shell $-1 $-1 $-1 $54 $-1 $17 #
shell $-1 $-1 $-1 $55 $-1 $19 #
shell $-1 $-1 $-1 $56 $-1 $21 #
shell $-1 $-1 $-1 $57 $-1 $23 #
shell $-1 $-1 $-1 $58 $-1 $25 #
shell $-1 $-1 $-1 $59 $-1 $27 #
shell $-1 $-1 $-1 $60 $-1 $29 #
shell $-1 $-1 $-1 $61 $-1 $31 #
shell $-1 $-1 $-1 $62 $-1 $33 #
shell $-1 $-1 $-1 $63 $-1 $35 #
shell $-1 $-1 $-1 $64 $-1 $37 #
face $-1 $65 $66 $39 $-1 $67 forward single #
face $-1 $68 $69 $40 $-1 $70 forward single #
face $-1 $71 $72 $41 $-1 $73 reversed single #
face $-1 $74 $75 $42 $-1 $76 forward single #
face $-1 $77 $78 $43 $-1 $79 forward single #
face $-1 $80 $81 $44 $-1 $82 forward single #
face $-1 $83 $84 $45 $-1 $85 reversed single #
face $-1 $86 $87 $46 $-1 $88 forward single #
face $-1 $89 $90 $47 $-1 $91 forward single #
face $-1 $92 $93 $48 $-1 $94 forward single #
face $-1 $95 $96 $49 $-1 $97 reversed single #
face $-1 $98 $99 $50 $-1 $100 forward single #
face $-1 $101 $102 $51 $-1 $103 forward single #
face $-1 $104 $105 $39 $-1 $106 reversed single #
loop $-1 $-1 $107 $52 #
plane-surface $-1 0 0 4 0 0 1 1 0 0 forward_v I I I I #
face $-1 $108 $109 $40 $-1 $110 reversed single #
loop $-1 $-1 $111 $53 #
plane-surface $-1 0 -18.188901440851321 0 0 1 0 0 0 1 forward_v I I I I #
face $-1 $112 $113 $41 $-1 $114 reversed single #
loop $-1 $-1 $115 $54 #
plane-surface $-1 -95.709964763908459 -7.9803922810423984 71.922127131971905 0 1 0 -0.5877852598018023 0 0.80901698891910034 forward_v I I I I #
face $-1 $116 $117 $42 $-1 $118 forward single #
loop $-1 $119 $120 $55 #
cone-surface $-1 -41.455571474190734 -6.5899782475219713 1.9654368774084876 0.5877852598018023 0 -0.80901698891910034 0.20225424722977509 0 0.14694631495045057 1 I I 0 1 0.25 forward I I I I #
face $-1 $121 $122 $43 $-1 $123 forward single #
loop $-1 $124 $125 $56 #
cone-surface $-1 -41.455571474190734 -4.5043571972413297 1.9654368774084876 0.5877852598018023 0 -0.80901698891910034 0.20225424722977509 0 0.14694631495045057 1 I I 0 1 0.25 forward I I I I #
face $-1 $126 $127 $44 $-1 $128 forward single #
loop $-1 $129 $130 $57 #
cone-surface $-1 -41.455571474190734 -2.4187361469606898 1.9654368774084876 0.5877852598018023 0 -0.80901698891910034 0.20225424722977509 0 0.14694631495045057 1 I I 0 1 0.25 forward I I I I #
face $-1 $131 $132 $45 $-1 $133 reversed single #
loop $-1 $-1 $134 $58 #
plane-surface $-1 -95.709964763908459 8.4106955058277837 71.922127131971905 0 1 0 -0.5877852598018023 0 0.80901698891910034 forward_v I I I I #
face $-1 $135 $136 $46 $-1 $137 forward single #
loop $-1 $138 $139 $59 #
cone-surface $-1 -41.455571474190734 9.8011095393482073 1.9654368774084876 0.5877852598018023 0 -0.80901698891910034 0.20225424722977509 0 0.14694631495045057 1 I I 0 1 0.25 forward I I I I #
face $-1 $140 $141 $47 $-1 $142 forward single #
loop $-1 $143 $144 $60 #
cone-surface $-1 -41.455571474190734 11.886730589628851 1.9654368774084876 0.5877852598018023 0 -0.80901698891910034 0.20225424722977509 0 0.14694631495045057 1 I I 0 1 0.25 forward I I I I #
face $-1 $145 $146 $48 $-1 $147 forward single #
loop $-1 $148 $149 $61 #
cone-surface $-1 -41.455571474190734 13.972351639909494 1.9654368774084876 0.5877852598018023 0 -0.80901698891910034 0.20225424722977509 0 0.14694631495045057 1 I I 0 1 0.25 forward I I I I #
face $-1 $150 $151 $49 $-1 $152 reversed single #
loop $-1 $-1 $153 $62 #
plane-surface $-1 50.505264585663213 8.626817962493659 124.820720797153 0 -1 0 -0.74314483375859142 0 -0.66913059716165679 forward_v I I I I #
face $-1 $154 $155 $50 $-1 $156 forward single #
loop $-1 $157 $158 $63 #
cone-surface $-1 41.843442449217605 1.7543694856110186 1.7389561887389777 -0.74314483375859142 0 -0.66913059716165679 0.66913059716165679 0 -0.74314483375859142 1 I I 0 1 1 forward I I I I #
face $-1 $159 $160 $51 $-1 $161 forward single #
loop $-1 $162 $163 $64 #
cone-surface $-1 41.843442449217605 5.8778385717406003 1.7389561887389777 -0.74314483375859142 0 -0.66913059716165679 0.66913059716165679 0 -0.74314483375859142 1 I I 0 1 1 forward I I I I #
face $-1 $164 $165 $39 $-1 $166 reversed single #
loop $-1 $-1 $167 $65 #
plane-surface $-1 0 0 -4 0 0 1 1 0 0 forward_v I I I I #
coedge $-1 $168 $169 $170 $171 forward $66 $-1 #
face $-1 $172 $173 $40 $-1 $174 reversed single #
loop $-1 $-1 $175 $68 #
plane-surface $-1 0 0 -4 0 0 1 1 0 0 forward_v I I I I #
coedge $-1 $176 $177 $178 $179 forward $69 $-1 #
face $-1 $180 $181 $41 $-1 $182 reversed single #
loop $-1 $-1 $183 $71 #
plane-surface $-1 -43.993041779839487 -4.5043571972413314 0.73989074373608332 -0.5877852598018023 0 0.80901698891910034 0.80901698891910034 0 0.5877852598018023 forward_v I I I I #
coedge $-1 $184 $185 $186 $187 reversed $72 $-1 #
face $-1 $-1 $188 $42 $-1 $189 forward single #
loop $-1 $190 $191 $74 #
cone-surface $-1 -41.088205686814611 -6.5899782475219713 1.4598012593340499 0.5877852598018023 0 -0.80901698891910034 0.10112712361488754 0 0.073473157475225287 1 I I -0.70710678118654746 0.70710678118654746 0.125 forward I I I I #
loop $-1 $-1 $192 $55 #
coedge $-1 $120 $120 $193 $194 reversed $75 $-1 #
face $-1 $-1 $195 $43 $-1 $196 forward single #
loop $-1 $197 $198 $77 #
cone-surface $-1 -41.088205686814611 -4.5043571972413297 1.4598012593340499 0.5877852598018023 0 -0.80901698891910034 0.10112712361488754 0 0.073473157475225287 1 I I -0.70710678118654746 0.70710678118654746 0.125 forward I I I I #
loop $-1 $-1 $199 $56 #
coedge $-1 $125 $125 $200 $201 reversed $78 $-1 #
face $-1 $-1 $202 $44 $-1 $203 forward single #
loop $-1 $204 $205 $80 #
cone-surface $-1 -41.088205686814611 -2.4187361469606898 1.4598012593340499 0.5877852598018023 0 -0.80901698891910034 0.10112712361488754 0 0.073473157475225287 1 I I -0.70710678118654746 0.70710678118654746 0.125 forward I I I I #
loop $-1 $-1 $206 $57 #
coedge $-1 $130 $130 $207 $208 reversed $81 $-1 #
face $-1 $209 $210 $45 $-1 $211 reversed single #
loop $-1 $-1 $212 $83 #
plane-surface $-1 -43.993041779839487 11.886730589628851 0.73989074373608332 -0.5877852598018023 0 0.80901698891910034 0.80901698891910034 0 0.5877852598018023 forward_v I I I I #
coedge $-1 $213 $214 $215 $216 reversed $84 $-1 #
face $-1 $-1 $217 $46 $-1 $218 forward single #
loop $-1 $219 $220 $86 #
cone-surface $-1 -41.088205686814611 9.8011095393482073 1.4598012593340499 0.5877852598018023 0 -0.80901698891910034 0.10112712361488754 0 0.073473157475225287 1 I I -0.70710678118654746 0.70710678118654746 0.125 forward I I I I #
loop $-1 $-1 $221 $59 #
coedge $-1 $139 $139 $222 $223 reversed $87 $-1 #
face $-1 $-1 $224 $47 $-1 $225 forward single #
loop $-1 $226 $227 $89 #
cone-surface $-1 -41.088205686814611 11.886730589628851 1.4598012593340499 0.5877852598018023 0 -0.80901698891910034 0.10112712361488754 0 0.073473157475225287 1 I I -0.70710678118654746 0.70710678118654746 0.125 forward I I I I #
loop $-1 $-1 $228 $60 #
coedge $-1 $144 $144 $229 $230 reversed $90 $-1 #
face $-1 $-1 $231 $48 $-1 $232 forward single #
loop $-1 $233 $234 $92 #
cone-surface $-1 -41.088205686814611 13.972351639909494 1.4598012593340499 0.5877852598018023 0 -0.80901698891910034 0.10112712361488754 0 0.073473157475225287 1 I I -0.70710678118654746 0.70710678118654746 0.125 forward I I I I #
loop $-1 $-1 $235 $61 #
coedge $-1 $149 $149 $236 $237 reversed $93 $-1 #
face $-1 $238 $239 $49 $-1 $240 reversed single #
loop $-1 $-1 $241 $95 #
plane-surface $-1 -14.881138854363925 3.816104028675813 65.946540162949589 0.74314483375859142 0 0.66913059716165679 0.66913059716165679 0 -0.74314483375859142 forward_v I I I I #
coedge $-1 $242 $243 $244 $245 reversed $96 $-1 #
face $-1 $-1 $246 $50 $-1 $247 forward single #
loop $-1 $248 $249 $98 #
cone-surface $-1 40.87090406642946 1.7543694856110186 0.86327871743591089 -0.74314483375859142 0 -0.66913059716165679 0.3345652985808284 0 -0.37157241687929571 1 I I -0.70710678118654746 0.70710678118654746 0.5 forward I I I I #
loop $-1 $-1 $250 $63 #
coedge $-1 $158 $158 $251 $252 reversed $99 $-1 #
face $-1 $-1 $253 $51 $-1 $254 forward single #
loop $-1 $255 $256 $101 #
cone-surface $-1 40.87090406642946 5.8778385717406003 0.86327871743591089 -0.74314483375859142 0 -0.66913059716165679 0.3345652985808284 0 -0.37157241687929571 1 I I -0.70710678118654746 0.70710678118654746 0.5 forward I I I I #
loop $-1 $-1 $257 $64 #
coedge $-1 $163 $163 $258 $259 reversed $102 $-1 #
face $-1 $260 $261 $39 $-1 $262 reversed single #
loop $-1 $-1 $263 $104 #
plane-surface $-1 0 -18.188901440851321 0 0 1 0 0 0 1 forward_v I I I I #
coedge $-1 $264 $265 $266 $267 forward $105 $-1 #
coedge $-1 $268 $107 $269 $270 forward $66 $-1 #
coedge $-1 $107 $268 $271 $272 forward $66 $-1 #
coedge $-1 $273 $274 $107 $171 reversed $275 $-1 #
edge $-1 $276 -18.188901440851321 $277 18.188901440851321 $170 $278 forward 7 unknown #
face $-1 $279 $280 $40 $-1 $281 forward single #
loop $-1 $-1 $282 $108 #
plane-surface $-1 43.993041779839473 0 0 -1 0 0 0 0 1 forward_v I I I I #
coedge $-1 $283 $284 $285 $286 forward $109 $-1 #
coedge $-1 $285 $111 $282 $287 reversed $69 $-1 #
coedge $-1 $111 $285 $288 $289 reversed $69 $-1 #
coedge $-1 $290 $291 $111 $179 reversed $280 $-1 #
edge $-1 $292 -43.993041779839473 $293 43.993041779839473 $178 $294 forward 7 unknown #
face $-1 $295 $296 $41 $-1 $297 forward single #
loop $-1 $-1 $298 $112 #
plane-surface $-1 -95.709964763908459 -1.0283221134402645 71.922127131971905 0 -1 0 0.5877852598018023 0 -0.80901698891910034 forward_v I I I I #
coedge $-1 $299 $300 $301 $302 reversed $113 $-1 #
coedge $-1 $185 $115 $303 $304 reversed $72 $-1 #
coedge $-1 $115 $184 $299 $305 reversed $72 $-1 #
coedge $-1 $301 $306 $115 $187 forward $296 $-1 #
edge $-1 $307 3.8619406021147569 $308 8.3490959536104015 $186 $309 forward 7 unknown #
loop $-1 $-1 $193 $116 #
plane-surface $-1 -43.993041779839487 -4.5043571972413314 0.73989074373608332 -0.5877852598018023 0 0.80901698891910034 0.80901698891910034 0 0.5877852598018023 forward_v I I I I #
loop $-1 $-1 $310 $74 #
coedge $-1 $191 $191 $192 $311 reversed $117 $-1 #
coedge $-1 $192 $192 $191 $311 forward $119 $-1 #
coedge $-1 $193 $193 $120 $194 forward $188 $-1 #
edge $-1 $312 0 $312 6.2831853071796004 $193 $313 forward 7 unknown #
loop $-1 $-1 $200 $121 #
plane-surface $-1 -43.993041779839487 -4.5043571972413314 0.73989074373608332 -0.5877852598018023 0 0.80901698891910034 0.80901698891910034 0 0.5877852598018023 forward_v I I I I #
loop $-1 $-1 $314 $77 #
coedge $-1 $198 $198 $199 $315 reversed $122 $-1 #
coedge $-1 $199 $199 $198 $315 forward $124 $-1 #
coedge $-1 $200 $200 $125 $201 forward $195 $-1 #
edge $-1 $316 0 $316 6.2831853071796004 $200 $317 forward 7 unknown #
loop $-1 $-1 $207 $126 #
plane-surface $-1 -43.993041779839487 -4.5043571972413314 0.73989074373608332 -0.5877852598018023 0 0.80901698891910034 0.80901698891910034 0 0.5877852598018023 forward_v I I I I #
loop $-1 $-1 $318 $80 #
coedge $-1 $205 $205 $206 $319 reversed $127 $-1 #
coedge $-1 $206 $206 $205 $319 forward $129 $-1 #
coedge $-1 $207 $207 $130 $208 forward $202 $-1 #
edge $-1 $320 0 $320 6.2831853071796004 $207 $321 forward 7 unknown #
face $-1 $322 $323 $45 $-1 $324 forward single #
loop $-1 $-1 $325 $131 #
plane-surface $-1 -95.709964763908459 15.362765673429918 71.922127131971905 0 -1 0 0.5877852598018023 0 -0.80901698891910034 forward_v I I I I #
coedge $-1 $326 $327 $328 $329 reversed $132 $-1 #
coedge $-1 $214 $134 $330 $331 reversed $84 $-1 #
coedge $-1 $134 $213 $326 $332 reversed $84 $-1 #
coedge $-1 $328 $333 $134 $216 forward $323 $-1 #
edge $-1 $334 3.8619406021147569 $335 8.3490959536104015 $215 $336 forward 7 unknown #
loop $-1 $-1 $222 $135 #
plane-surface $-1 -43.993041779839487 11.886730589628851 0.73989074373608332 -0.5877852598018023 0 0.80901698891910034 0.80901698891910034 0 0.5877852598018023 forward_v I I I I #
loop $-1 $-1 $337 $86 #
coedge $-1 $220 $220 $221 $338 reversed $136 $-1 #
coedge $-1 $221 $221 $220 $338 forward $138 $-1 #
coedge $-1 $222 $222 $139 $223 forward $217 $-1 #
edge $-1 $339 0 $339 6.2831853071796004 $222 $340 forward 7 unknown #
loop $-1 $-1 $229 $140 #
plane-surface $-1 -43.993041779839487 11.886730589628851 0.73989074373608332 -0.5877852598018023 0 0.80901698891910034 0.80901698891910034 0 0.5877852598018023 forward_v I I I I #
loop $-1 $-1 $341 $89 #
coedge $-1 $227 $227 $228 $342 reversed $141 $-1 #
coedge $-1 $228 $228 $227 $342 forward $143 $-1 #
coedge $-1 $229 $229 $144 $230 forward $224 $-1 #
edge $-1 $343 0 $343 6.2831853071796004 $229 $344 forward 7 unknown #
loop $-1 $-1 $236 $145 #
plane-surface $-1 -43.993041779839487 11.886730589628851 0.73989074373608332 -0.5877852598018023 0 0.80901698891910034 0.80901698891910034 0 0.5877852598018023 forward_v I I I I #
loop $-1 $-1 $345 $92 #
coedge $-1 $234 $234 $235 $346 reversed $146 $-1 #
coedge $-1 $235 $235 $234 $346 forward $148 $-1 #
coedge $-1 $236 $236 $149 $237 forward $231 $-1 #
edge $-1 $347 0 $347 6.2831853071796004 $236 $348 forward 7 unknown #
face $-1 $349 $350 $49 $-1 $351 reversed single #
loop $-1 $-1 $352 $150 #
plane-surface $-1 50.505264585663213 -0.99460990514203296 124.820720797153 0 1 0 0.74314483375859142 0 0.66913059716165679 forward_v I I I I #
coedge $-1 $353 $354 $355 $356 reversed $151 $-1 #
coedge $-1 $243 $153 $357 $358 reversed $96 $-1 #
coedge $-1 $153 $242 $353 $359 reversed $96 $-1 #
coedge $-1 $355 $360 $153 $245 forward $361 $-1 #
edge $-1 $362 -18.740409487007867 $363 -15.643142757581792 $244 $364 forward 7 unknown #
loop $-1 $-1 $251 $154 #
plane-surface $-1 -14.881138854363925 3.816104028675813 65.946540162949589 0.74314483375859142 0 0.66913059716165679 0.66913059716165679 0 -0.74314483375859142 forward_v I I I I #
loop $-1 $-1 $365 $98 #
coedge $-1 $249 $249 $250 $366 reversed $155 $-1 #
coedge $-1 $250 $250 $249 $366 forward $157 $-1 #
coedge $-1 $251 $251 $158 $252 forward $246 $-1 #
edge $-1 $367 0 $367 6.2831853071796004 $251 $368 forward 7 unknown #
loop $-1 $-1 $258 $159 #
plane-surface $-1 -14.881138854363925 3.816104028675813 65.946540162949589 0.74314483375859142 0 0.66913059716165679 0.66913059716165679 0 -0.74314483375859142 forward_v I I I I #
loop $-1 $-1 $369 $101 #
coedge $-1 $256 $256 $257 $370 reversed $160 $-1 #
coedge $-1 $257 $257 $256 $370 forward $162 $-1 #
coedge $-1 $258 $258 $163 $259 forward $253 $-1 #
edge $-1 $371 0 $371 6.2831853071796004 $258 $372 forward 7 unknown #
face $-1 $373 $374 $39 $-1 $375 reversed single #
loop $-1 $-1 $376 $164 #
plane-surface $-1 -43.993041779839473 0 0 1 0 0 0 0 -1 forward_v I I I I #
coedge $-1 $377 $271 $378 $379 forward $165 $-1 #
coedge $-1 $380 $167 $377 $381 forward $105 $-1 #
coedge $-1 $167 $380 $382 $383 forward $105 $-1 #
coedge $-1 $274 $273 $167 $267 reversed $275 $-1 #
edge $-1 $384 -18.188901440851321 $385 18.188901440851321 $266 $386 forward 7 unknown #
coedge $-1 $169 $168 $387 $388 forward $66 $-1 #
coedge $-1 $389 $390 $168 $270 reversed $374 $-1 #
edge $-1 $277 -43.993041779839473 $391 43.993041779839473 $269 $392 forward 7 unknown #
coedge $-1 $263 $393 $169 $272 reversed $165 $-1 #
edge $-1 $394 -43.993041779839473 $276 43.993041779839473 $271 $395 forward 7 unknown #
coedge $-1 $266 $170 $393 $396 forward $275 $-1 #
coedge $-1 $170 $266 $389 $397 reversed $275 $-1 #
loop $-1 $-1 $273 $373 #
vertex $-1 $171 $398 #
vertex $-1 $171 $399 #
straight-curve $-1 43.993041779839473 0 4 0 1 0 I I #
face $-1 $400 $401 $40 $-1 $402 reversed single #
loop $-1 $-1 $291 $172 #
plane-surface $-1 0 -19.986715094832462 -1 0 0 1 1 0 0 forward_v I I I I #
coedge $-1 $403 $404 $176 $287 forward $173 $-1 #
coedge $-1 $405 $175 $404 $406 forward $109 $-1 #
coedge $-1 $175 $405 $407 $408 forward $109 $-1 #
coedge $-1 $177 $176 $175 $286 reversed $69 $-1 #
edge $-1 $409 -43.993041779839473 $410 43.993041779839473 $175 $411 forward 7 unknown #
edge $-1 $410 -4 $293 -1 $282 $412 forward 7 unknown #
coedge $-1 $407 $413 $177 $289 forward $414 $-1 #
edge $-1 $292 1 $409 4 $288 $415 forward 7 unknown #
coedge $-1 $416 $178 $413 $417 forward $280 $-1 #
coedge $-1 $178 $416 $403 $418 forward $280 $-1 #
vertex $-1 $289 $419 #
vertex $-1 $418 $420 #
straight-curve $-1 0 -18.188901440851321 -1 1 0 0 I I #
face $-1 $-1 $421 $41 $-1 $422 reversed single #
loop $-1 $-1 $186 $180 #
plane-surface $-1 0 0 4 0 0 1 1 0 0 forward_v I I I I #
coedge $-1 $423 $424 $425 $426 reversed $181 $-1 #
coedge $-1 $427 $183 $185 $305 forward $113 $-1 #
coedge $-1 $183 $427 $423 $428 forward $113 $-1 #
coedge $-1 $425 $186 $183 $302 forward $296 $-1 #
edge $-1 $308 -5.7282136824217327 $429 1.2238564851804012 $301 $430 forward 7 unknown #
coedge $-1 $431 $432 $184 $304 forward $421 $-1 #
edge $-1 $433 -35.221172822249862 $307 -31.961063565985953 $303 $434 forward 7 unknown #
edge $-1 $308 -5.5464290774545919 $433 -1.756574927105486e-014 $185 $435 forward 7 unknown #
coedge $-1 $186 $425 $431 $436 forward $296 $-1 #
vertex $-1 $304 $437 #
vertex $-1 $187 $438 #
straight-curve $-1 -47.85498238195423 -7.9803922810423984 4 1 0 0 I I #
coedge $-1 $310 $310 $-1 $439 reversed $190 $-1 #
edge $-1 $440 0 $440 6.2831853071796004 $191 $441 forward 7 unknown #
vertex $-1 $194 $442 #
ellipse-curve $-1 -41.749464104091643 -6.5899782475219713 2.3699453718680519 -0.5877852598018023 0 0.80901698891910034 0.20225424722977509 0 0.14694631495045057 1 I I #
coedge $-1 $314 $314 $-1 $443 reversed $197 $-1 #
edge $-1 $444 0 $444 6.2831853071796004 $198 $445 forward 7 unknown #
vertex $-1 $201 $446 #
ellipse-curve $-1 -41.749464104091643 -4.5043571972413297 2.3699453718680519 -0.5877852598018023 0 0.80901698891910034 0.20225424722977509 0 0.14694631495045057 1 I I #
coedge $-1 $318 $318 $-1 $447 reversed $204 $-1 #
edge $-1 $448 0 $448 6.2831853071796004 $205 $449 forward 7 unknown #
vertex $-1 $208 $450 #
ellipse-curve $-1 -41.749464104091643 -2.4187361469606898 2.3699453718680519 -0.5877852598018023 0 0.80901698891910034 0.20225424722977509 0 0.14694631495045057 1 I I #
face $-1 $-1 $451 $45 $-1 $452 reversed single #
loop $-1 $-1 $215 $209 #
plane-surface $-1 0 0 4 0 0 1 1 0 0 forward_v I I I I #
coedge $-1 $453 $454 $455 $456 reversed $210 $-1 #
coedge $-1 $457 $212 $214 $332 forward $132 $-1 #
coedge $-1 $212 $457 $453 $458 forward $132 $-1 #
coedge $-1 $455 $215 $212 $329 forward $323 $-1 #
edge $-1 $335 2.4673302110133584 $459 9.4194003786154923 $328 $460 forward 7 unknown #
coedge $-1 $461 $462 $213 $331 forward $451 $-1 #
edge $-1 $463 -35.221172822249862 $334 -31.961063565985953 $330 $464 forward 7 unknown #
edge $-1 $335 -5.5464290774545919 $463 -1.756574927105486e-014 $214 $465 forward 7 unknown #
coedge $-1 $215 $455 $461 $466 forward $323 $-1 #
vertex $-1 $216 $467 #
vertex $-1 $216 $468 #
straight-curve $-1 -47.85498238195423 8.4106955058277837 4 1 0 0 I I #
coedge $-1 $337 $337 $-1 $469 reversed $219 $-1 #
edge $-1 $470 0 $470 6.2831853071796004 $220 $471 forward 7 unknown #
vertex $-1 $223 $472 #
ellipse-curve $-1 -41.749464104091643 9.8011095393482073 2.3699453718680519 -0.5877852598018023 0 0.80901698891910034 0.20225424722977509 0 0.14694631495045057 1 I I #
coedge $-1 $341 $341 $-1 $473 reversed $226 $-1 #
edge $-1 $474 0 $474 6.2831853071796004 $227 $475 forward 7 unknown #
vertex $-1 $230 $476 #
ellipse-curve $-1 -41.749464104091643 11.886730589628851 2.3699453718680519 -0.5877852598018023 0 0.80901698891910034 0.20225424722977509 0 0.14694631495045057 1 I I #
coedge $-1 $345 $345 $-1 $477 reversed $233 $-1 #
edge $-1 $478 0 $478 6.2831853071796004 $234 $479 forward 7 unknown #
vertex $-1 $237 $480 #
ellipse-curve $-1 -41.749464104091643 13.972351639909494 2.3699453718680519 -0.5877852598018023 0 0.80901698891910034 0.20225424722977509 0 0.14694631495045057 1 I I #
face $-1 $-1 $361 $49 $-1 $481 forward single #
loop $-1 $-1 $482 $238 #
plane-surface $-1 43.993041779839473 0 0 -1 0 0 0 0 1 forward_v I I I I #
coedge $-1 $483 $484 $485 $486 reversed $239 $-1 #
coedge $-1 $487 $241 $243 $359 forward $151 $-1 #
coedge $-1 $241 $487 $483 $488 forward $151 $-1 #
coedge $-1 $485 $244 $241 $356 forward $361 $-1 #
edge $-1 $363 -6.7187659481557525 $489 2.9026619194799395 $355 $490 forward 7 unknown #
coedge $-1 $491 $492 $242 $358 forward $350 $-1 #
edge $-1 $493 -61.85022367565405 $362 -58.410360398576501 $357 $494 forward 7 unknown #
edge $-1 $363 83.357291000253042 $493 87.986083559678931 $243 $495 forward 7 unknown #
coedge $-1 $244 $485 $491 $496 forward $361 $-1 #
loop $-1 $-1 $485 $349 #
vertex $-1 $358 $497 #
vertex $-1 $245 $498 #
straight-curve $-1 25.252632292831606 8.626817962493659 4 -1 0 0 I I #
coedge $-1 $365 $365 $-1 $499 reversed $248 $-1 #
edge $-1 $500 0 $500 6.2831853071796004 $249 $501 forward 7 unknown #
vertex $-1 $252 $502 #
ellipse-curve $-1 42.444408415126446 1.7543694856110186 2.2800683614612103 0.74314483375859142 0 0.66913059716165679 0.66913059716165679 0 -0.74314483375859142 1 I I #
coedge $-1 $369 $369 $-1 $503 reversed $255 $-1 #
edge $-1 $504 0 $504 6.2831853071796004 $256 $505 forward 7 unknown #
vertex $-1 $259 $506 #
ellipse-curve $-1 42.444408415126446 5.8778385717406003 2.2800683614612103 0.74314483375859142 0 0.66913059716165679 0.66913059716165679 0 -0.74314483375859142 1 I I #
face $-1 $-1 $275 $39 $-1 $507 reversed single #
loop $-1 $-1 $389 $260 #
plane-surface $-1 0 18.188901440851321 0 0 -1 0 0 0 -1 forward_v I I I I #
coedge $-1 $508 $387 $390 $509 forward $261 $-1 #
coedge $-1 $393 $263 $264 $381 reversed $165 $-1 #
coedge $-1 $387 $508 $263 $379 reversed $261 $-1 #
edge $-1 $394 -4 $510 4 $378 $511 forward 7 unknown #
coedge $-1 $265 $264 $508 $512 forward $105 $-1 #
edge $-1 $385 -43.993041779839473 $510 43.993041779839473 $377 $513 forward 7 unknown #
coedge $-1 $390 $389 $265 $383 reversed $374 $-1 #
edge $-1 $514 -43.993041779839473 $384 43.993041779839473 $382 $515 forward 7 unknown #
vertex $-1 $267 $516 #
vertex $-1 $396 $517 #
straight-curve $-1 43.993041779839473 0 -4 0 -1 0 I I #
coedge $-1 $376 $378 $268 $388 reversed $261 $-1 #
edge $-1 $391 -18.188901440851321 $394 18.188901440851321 $387 $518 forward 7 unknown #
coedge $-1 $382 $269 $274 $397 forward $374 $-1 #
coedge $-1 $269 $382 $376 $509 reversed $374 $-1 #
vertex $-1 $270 $519 #
straight-curve $-1 0 18.188901440851321 4 -1 0 0 I I #
coedge $-1 $271 $377 $273 $396 reversed $165 $-1 #
vertex $-1 $388 $520 #
straight-curve $-1 0 -18.188901440851321 4 1 0 0 I I #
edge $-1 $276 -4 $385 4 $273 $521 forward 7 unknown #
edge $-1 $277 -4 $384 4 $274 $522 forward 7 unknown #
point $-1 43.993041779839473 -18.188901440851321 4 #
point $-1 43.993041779839473 18.188901440851321 4 #
face $-1 $-1 $414 $40 $-1 $523 reversed single #
loop $-1 $-1 $524 $279 #
plane-surface $-1 0 -21.784528748813603 -2.5 0 1 0 0 0 1 forward_v I I I I #
coedge $-1 $525 $282 $291 $418 reversed $173 $-1 #
coedge $-1 $282 $525 $283 $406 reversed $173 $-1 #
coedge $-1 $284 $283 $526 $527 forward $109 $-1 #
edge $-1 $410 18.188901440851321 $528 21.784528748813603 $404 $529 forward 7 unknown #
coedge $-1 $530 $288 $284 $408 reversed $414 $-1 #
edge $-1 $531 -21.784528748813603 $409 -18.188901440851321 $407 $532 forward 7 unknown #
vertex $-1 $289 $533 #
vertex $-1 $406 $534 #
straight-curve $-1 0 -18.188901440851321 -4 1 0 0 I I #
straight-curve $-1 43.993041779839473 -18.188901440851321 0 0 0 1 I I #
coedge $-1 $288 $530 $290 $417 reversed $414 $-1 #
loop $-1 $-1 $288 $400 #
straight-curve $-1 -43.993041779839473 -18.188901440851321 0 0 0 -1 I I #
coedge $-1 $291 $290 $535 $536 forward $280 $-1 #
edge $-1 $292 -1.7978136539811409 $537 1.7978136539811409 $413 $538 forward 7 unknown #
edge $-1 $539 -1.7978136539811409 $293 1.7978136539811409 $403 $540 forward 7 unknown #
point $-1 -43.993041779839473 -18.188901440851321 -1 #
point $-1 43.993041779839473 -18.188901440851321 -1 #
loop $-1 $-1 $303 $295 #
plane-surface $-1 -43.993041779839473 0 0 1 0 0 0 0 -1 forward_v I I I I #
coedge $-1 $424 $298 $300 $428 reversed $181 $-1 #
coedge $-1 $298 $423 $541 $542 reversed $181 $-1 #
coedge $-1 $306 $301 $298 $426 forward $296 $-1 #
edge $-1 $429 -8.3490959536104015 $543 -3.8619406021147569 $425 $544 forward 7 unknown #
coedge $-1 $300 $299 $432 $545 reversed $113 $-1 #
edge $-1 $546 1.756574927105486e-014 $429 5.5464290774545919 $423 $547 forward 7 unknown #
vertex $-1 $302 $548 #
straight-curve $-1 -39.505886428343828 -2.2521785986206657 3.9999999999999991 0 1 0 I I #
coedge $-1 $541 $303 $306 $436 reversed $421 $-1 #
coedge $-1 $303 $541 $427 $545 forward $421 $-1 #
vertex $-1 $304 $549 #
straight-curve $-1 -43.993041779839473 -7.9803922810423984 35.961063565985953 0 0 1 I I #
straight-curve $-1 -43.993041779839487 -7.9803922810423984 0.73989074373608332 -0.80901698891910034 0 -0.5877852598018023 I I #
edge $-1 $543 1.0283221134402645 $307 7.9803922810423984 $431 $550 forward 7 unknown #
point $-1 -43.993041779839473 -7.9803922810423984 4 #
point $-1 -39.505886428343828 -7.9803922810423984 4 #
edge $-1 $551 1 $551 0 $310 $-1 forward 7 unknown #
vertex $-1 $311 $552 #
ellipse-curve $-1 -41.161678844289838 -6.5899782475219713 1.5609283829489375 -0.5877852598018023 0 0.80901698891910034 0.20225424722977509 0 0.14694631495045057 1 I I #
point $-1 -41.547209856861862 -6.5899782475219713 2.5168916868184885 #
edge $-1 $553 1 $553 0 $314 $-1 forward 7 unknown #
vertex $-1 $315 $554 #
ellipse-curve $-1 -41.161678844289838 -4.5043571972413297 1.5609283829489375 -0.5877852598018023 0 0.80901698891910034 0.20225424722977509 0 0.14694631495045057 1 I I #
point $-1 -41.547209856861862 -4.5043571972413297 2.5168916868184885 #
edge $-1 $555 1 $555 0 $318 $-1 forward 7 unknown #
vertex $-1 $319 $556 #
ellipse-curve $-1 -41.161678844289838 -2.4187361469606898 1.5609283829489375 -0.5877852598018023 0 0.80901698891910034 0.20225424722977509 0 0.14694631495045057 1 I I #
point $-1 -41.547209856861862 -2.4187361469606898 2.5168916868184885 #
loop $-1 $-1 $330 $322 #
plane-surface $-1 -43.993041779839473 0 0 1 0 0 0 0 -1 forward_v I I I I #
coedge $-1 $454 $325 $327 $458 reversed $210 $-1 #
coedge $-1 $325 $453 $557 $558 reversed $210 $-1 #
coedge $-1 $333 $328 $325 $456 forward $323 $-1 #
edge $-1 $459 -8.3490959536104015 $559 -3.8619406021147569 $455 $560 forward 7 unknown #
coedge $-1 $327 $326 $462 $561 reversed $132 $-1 #
edge $-1 $562 1.756574927105486e-014 $459 5.5464290774545919 $453 $563 forward 7 unknown #
vertex $-1 $329 $564 #
straight-curve $-1 -39.505886428343828 5.9433652948144253 3.9999999999999991 0 1 0 I I #
coedge $-1 $557 $330 $333 $466 reversed $451 $-1 #
coedge $-1 $330 $557 $457 $561 forward $451 $-1 #
vertex $-1 $331 $565 #
straight-curve $-1 -43.993041779839473 8.4106955058277837 35.961063565985953 0 0 1 I I #
straight-curve $-1 -43.993041779839487 8.4106955058277837 0.73989074373608332 -0.80901698891910034 0 -0.5877852598018023 I I #
edge $-1 $559 -15.362765673429918 $334 -8.4106955058277837 $461 $566 forward 7 unknown #
point $-1 -43.993041779839473 8.4106955058277837 4 #
point $-1 -39.505886428343828 8.4106955058277837 4 #
edge $-1 $567 1 $567 0 $337 $-1 forward 7 unknown #
vertex $-1 $338 $568 #
ellipse-curve $-1 -41.161678844289838 9.8011095393482073 1.5609283829489375 -0.5877852598018023 0 0.80901698891910034 0.20225424722977509 0 0.14694631495045057 1 I I #
point $-1 -41.547209856861862 9.8011095393482073 2.5168916868184885 #
edge $-1 $569 1 $569 0 $341 $-1 forward 7 unknown #
vertex $-1 $342 $570 #
ellipse-curve $-1 -41.161678844289838 11.886730589628851 1.5609283829489375 -0.5877852598018023 0 0.80901698891910034 0.20225424722977509 0 0.14694631495045057 1 I I #
point $-1 -41.547209856861862 11.886730589628851 2.5168916868184885 #
edge $-1 $571 1 $571 0 $345 $-1 forward 7 unknown #
vertex $-1 $346 $572 #
ellipse-curve $-1 -41.161678844289838 13.972351639909494 1.5609283829489375 -0.5877852598018023 0 0.80901698891910034 0.20225424722977509 0 0.14694631495045057 1 I I #
point $-1 -41.547209856861862 13.972351639909494 2.5168916868184885 #
plane-surface $-1 0 0 4 0 0 1 1 0 0 forward_v I I I I #
coedge $-1 $492 $491 $484 $573 forward $350 $-1 #
coedge $-1 $484 $352 $354 $488 reversed $239 $-1 #
coedge $-1 $352 $483 $482 $573 reversed $239 $-1 #
coedge $-1 $360 $355 $352 $486 forward $361 $-1 #
edge $-1 $489 15.643142757581792 $574 18.740409487007867 $485 $575 forward 7 unknown #
coedge $-1 $354 $353 $492 $576 reversed $151 $-1 #
edge $-1 $577 -87.986083559678931 $489 -83.357291000253042 $483 $578 forward 7 unknown #
vertex $-1 $356 $579 #
straight-curve $-1 40.895775050413405 1.9080520143379065 4 0 -1 0 I I #
coedge $-1 $482 $357 $360 $496 reversed $350 $-1 #
coedge $-1 $357 $482 $487 $576 forward $350 $-1 #
vertex $-1 $358 $580 #
straight-curve $-1 43.993041779839473 8.626817962493659 62.410360398576501 0 0 1 I I #
straight-curve $-1 -14.881138854363925 8.626817962493659 65.946540162949589 0.66913059716165679 0 -0.74314483375859142 I I #
edge $-1 $574 -0.99460990514203296 $362 8.626817962493659 $491 $581 forward 7 unknown #
point $-1 43.993041779839473 8.626817962493659 4 #
point $-1 40.895775050413398 8.626817962493659 4 #
edge $-1 $582 1 $582 0 $365 $-1 forward 7 unknown #
vertex $-1 $366 $583 #
ellipse-curve $-1 41.242476483308756 1.7543694856110186 1.1978440160167394 0.74314483375859142 0 0.66913059716165679 0.66913059716165679 0 -0.74314483375859142 1 I I #
point $-1 43.113539012288108 1.7543694856110186 1.5369235277026245 #
edge $-1 $584 1 $584 0 $369 $-1 forward 7 unknown #
vertex $-1 $370 $585 #
ellipse-curve $-1 41.242476483308756 5.8778385717406003 1.1978440160167394 0.74314483375859142 0 0.66913059716165679 0.66913059716165679 0 -0.74314483375859142 1 I I #
point $-1 43.113539012288108 5.8778385717406003 1.5369235277026245 #
plane-surface $-1 43.993041779839473 0 0 -1 0 0 0 0 1 forward_v I I I I #
coedge $-1 $378 $376 $380 $512 reversed $261 $-1 #
edge $-1 $391 -4 $514 4 $390 $586 forward 7 unknown #
vertex $-1 $512 $587 #
straight-curve $-1 -43.993041779839473 -18.188901440851321 0 0 0 -1 I I #
edge $-1 $510 -18.188901440851321 $514 18.188901440851321 $508 $588 forward 7 unknown #
straight-curve $-1 0 -18.188901440851321 -4 -1 0 0 I I #
vertex $-1 $383 $589 #
straight-curve $-1 0 18.188901440851321 -4 1 0 0 I I #
point $-1 43.993041779839473 18.188901440851321 -4 #
point $-1 43.993041779839473 -18.188901440851321 -4 #
straight-curve $-1 -43.993041779839473 0 4 0 -1 0 I I #
point $-1 -43.993041779839473 18.188901440851321 4 #
point $-1 -43.993041779839473 -18.188901440851321 4 #
straight-curve $-1 43.993041779839473 -18.188901440851321 0 0 0 -1 I I #
straight-curve $-1 43.993041779839473 18.188901440851321 0 0 0 -1 I I #
plane-surface $-1 -43.993041779839473 0 0 1 0 0 0 0 -1 forward_v I I I I #
coedge $-1 $526 $535 $530 $590 forward $401 $-1 #
coedge $-1 $404 $403 $591 $592 forward $173 $-1 #
coedge $-1 $591 $524 $405 $527 reversed $401 $-1 #
edge $-1 $528 -43.993041779839473 $531 43.993041779839473 $526 $593 forward 7 unknown #
vertex $-1 $592 $594 #
straight-curve $-1 43.993041779839473 0 -4 0 -1 0 I I #
coedge $-1 $413 $407 $524 $590 reversed $414 $-1 #
vertex $-1 $408 $595 #
straight-curve $-1 -43.993041779839473 0 -4 0 1 0 I I #
point $-1 -43.993041779839473 -18.188901440851321 -4 #
point $-1 43.993041779839473 -18.188901440851321 -4 #
coedge $-1 $524 $591 $416 $536 reversed $401 $-1 #
edge $-1 $537 -43.993041779839473 $539 43.993041779839473 $535 $596 forward 7 unknown #
vertex $-1 $417 $597 #
straight-curve $-1 -43.993041779839473 -19.986715094832462 -1 0 -1 0 I I #
vertex $-1 $418 $598 #
straight-curve $-1 43.993041779839473 -19.986715094832462 -1 0 1 0 I I #
coedge $-1 $432 $431 $424 $542 forward $421 $-1 #
edge $-1 $543 31.961063565985953 $546 35.221172822249862 $541 $599 forward 7 unknown #
vertex $-1 $436 $600 #
straight-curve $-1 -47.85498238195423 -1.0283221134402645 4 -1 0 0 I I #
edge $-1 $546 -1.2238564851804012 $433 5.7282136824217327 $432 $601 forward 7 unknown #
vertex $-1 $545 $602 #
straight-curve $-1 -43.993041779839487 -1.0283221134402645 0.73989074373608332 0.80901698891910034 0 0.5877852598018023 I I #
point $-1 -39.505886428343828 -1.0283221134402645 4 #
point $-1 -43.993041779839473 -7.9803922810423984 0.73989074373609365 #
straight-curve $-1 -43.993041779839473 0 4 0 -1 0 I I #
vertex $-1 $439 $603 #
point $-1 -40.959424597060064 -6.5899782475219713 1.707874697899388 #
vertex $-1 $443 $604 #
point $-1 -40.959424597060064 -4.5043571972413297 1.707874697899388 #
vertex $-1 $447 $605 #
point $-1 -40.959424597060064 -2.4187361469606898 1.707874697899388 #
coedge $-1 $462 $461 $454 $558 forward $451 $-1 #
edge $-1 $559 31.961063565985953 $562 35.221172822249862 $557 $606 forward 7 unknown #
vertex $-1 $466 $607 #
straight-curve $-1 -47.85498238195423 15.362765673429918 4 -1 0 0 I I #
edge $-1 $562 -9.4194003786154923 $463 -2.4673302110133584 $462 $608 forward 7 unknown #
vertex $-1 $561 $609 #
straight-curve $-1 -43.993041779839487 15.362765673429918 0.73989074373608332 0.80901698891910034 0 0.5877852598018023 I I #
point $-1 -39.505886428343828 15.362765673429918 4 #
point $-1 -43.993041779839473 8.4106955058277837 0.73989074373609365 #
straight-curve $-1 -43.993041779839473 0 4 0 -1 0 I I #
vertex $-1 $469 $610 #
point $-1 -40.959424597060064 9.8011095393482073 1.707874697899388 #
vertex $-1 $473 $611 #
point $-1 -40.959424597060064 11.886730589628851 1.707874697899388 #
vertex $-1 $477 $612 #
point $-1 -40.959424597060064 13.972351639909494 1.707874697899388 #
edge $-1 $574 58.410360398576501 $577 61.85022367565405 $482 $613 forward 7 unknown #
vertex $-1 $496 $614 #
straight-curve $-1 25.252632292831606 -0.99460990514203296 4 1 0 0 I I #
edge $-1 $577 -2.9026619194799395 $493 6.7187659481557525 $492 $615 forward 7 unknown #
vertex $-1 $576 $616 #
straight-curve $-1 -14.881138854363925 -0.99460990514203296 65.946540162949589 -0.66913059716165679 0 0.74314483375859142 I I #
point $-1 40.895775050413398 -0.99460990514203296 4 #
point $-1 43.993041779839473 8.626817962493659 0.56013672292245076 #
straight-curve $-1 43.993041779839473 0 4 0 1 0 I I #
vertex $-1 $499 $617 #
point $-1 41.911607080470411 1.7543694856110186 0.45469918225814787 #
vertex $-1 $503 $618 #
point $-1 41.911607080470411 5.8778385717406003 0.45469918225814787 #
straight-curve $-1 -43.993041779839473 18.188901440851321 0 0 0 -1 I I #
point $-1 -43.993041779839473 -18.188901440851321 -4 #
straight-curve $-1 -43.993041779839473 0 -4 0 1 0 I I #
point $-1 -43.993041779839473 18.188901440851321 -4 #
edge $-1 $537 -1.5 $531 1.5 $530 $619 forward 7 unknown #
coedge $-1 $535 $526 $525 $592 reversed $401 $-1 #
edge $-1 $539 -1.5 $528 1.5 $525 $620 forward 7 unknown #
straight-curve $-1 0 -21.784528748813603 -4 -1 0 0 I I #
point $-1 43.993041779839473 -21.784528748813603 -4 #
point $-1 -43.993041779839473 -21.784528748813603 -4 #
straight-curve $-1 0 -21.784528748813603 -1 1 0 0 I I #
point $-1 -43.993041779839473 -21.784528748813603 -1 #
point $-1 43.993041779839473 -21.784528748813603 -1 #
straight-curve $-1 -43.993041779839473 -1.0283221134402645 35.961063565985953 0 0 -1 I I #
point $-1 -43.993041779839473 -1.0283221134402645 4 #
straight-curve $-1 -43.993041779839473 -2.2521785986206657 0.73989074373609309 0 -1 0 I I #
point $-1 -43.993041779839473 -1.0283221134402645 0.73989074373609365 #
point $-1 -41.014732529339383 -6.5899782475219713 1.3586741357191623 #
point $-1 -41.014732529339383 -4.5043571972413297 1.3586741357191623 #
point $-1 -41.014732529339383 -2.4187361469606898 1.3586741357191623 #
straight-curve $-1 -43.993041779839473 15.362765673429918 35.961063565985953 0 0 -1 I I #
point $-1 -43.993041779839473 15.362765673429918 4 #
straight-curve $-1 -43.993041779839473 5.9433652948144253 0.73989074373609309 0 -1 0 I I #
point $-1 -43.993041779839473 15.362765673429918 0.73989074373609365 #
point $-1 -41.014732529339383 9.8011095393482073 1.3586741357191623 #
point $-1 -41.014732529339383 11.886730589628851 1.3586741357191623 #
point $-1 -41.014732529339383 13.972351639909494 1.3586741357191623 #
straight-curve $-1 43.993041779839473 -0.99460990514203296 62.410360398576501 0 0 -1 I I #
point $-1 43.993041779839473 -0.99460990514203296 4 #
straight-curve $-1 43.993041779839473 1.9080520143379065 0.56013672292245076 0 1 0 I I #
point $-1 43.993041779839473 -0.99460990514203296 0.56013672292245076 #
point $-1 40.499331649550165 1.7543694856110186 0.5287134188550825 #
point $-1 40.499331649550165 5.8778385717406003 0.5287134188550825 #
straight-curve $-1 -43.993041779839473 -21.784528748813603 -2.5 0 0 -1 I I #
straight-curve $-1 43.993041779839473 -21.784528748813603 -2.5 0 0 -1 I I #
End-of-ACIS-data 