500 0 7 0           
7 Unknown 11 ACIS 5.0 NT 24 Fri Mar 26 18:04:31 1999 
-1 9.9999999999999995e-007 1e-010 
body $-1 $7 $-1 $8 #
body $-1 $9 $-1 $10 #
body $-1 $11 $-1 $12 #
body $-1 $13 $-1 $14 #
body $-1 $15 $-1 $16 #
body $-1 $17 $-1 $18 #
body $-1 $19 $-1 $20 #
lump $-1 $-1 $21 $0 #
transform $-1 1 0 0 0 1 0 0 0 1 54.399853511154518 36.231096015197551 8.3896432696100174 1 rotate no_reflect no_shear #
lump $-1 $-1 $22 $1 #
transform $-1 1 0 0 0 1 0 0 0 1 54.399853511154518 36.231096015197551 8.3896432696100174 1 rotate no_reflect no_shear #
lump $-1 $-1 $23 $2 #
transform $-1 1 0 0 0 1 0 0 0 1 54.399853511154518 36.231096015197551 8.3896432696100174 1 rotate no_reflect no_shear #
lump $-1 $-1 $24 $3 #
transform $-1 1 0 0 0 1 0 0 0 1 54.399853511154518 36.231096015197551 8.3896432696100174 1 rotate no_reflect no_shear #
lump $-1 $-1 $25 $4 #
transform $-1 1 0 0 0 1 0 0 0 1 54.399853511154518 36.231096015197551 8.3896432696100174 1 rotate no_reflect no_shear #
lump $-1 $-1 $26 $5 #
transform $-1 1 0 0 0 1 0 0 0 1 54.399853511154518 36.231096015197551 8.3896432696100174 1 rotate no_reflect no_shear #
lump $-1 $-1 $27 $6 #
transform $-1 1 0 0 0 1 0 0 0 1 54.399853511154518 36.231096015197551 8.3896432696100174 1 rotate no_reflect no_shear #
shell $-1 $-1 $-1 $28 $-1 $7 #
shell $-1 $-1 $-1 $29 $-1 $9 #
shell $-1 $-1 $-1 $30 $-1 $11 #
shell $-1 $-1 $-1 $31 $-1 $13 #
shell $-1 $-1 $-1 $32 $-1 $15 #
shell $-1 $-1 $-1 $33 $-1 $17 #
shell $-1 $-1 $-1 $34 $-1 $19 #
face $-1 $35 $36 $21 $-1 $37 forward single #
face $-1 $38 $39 $22 $-1 $40 reversed single #
face $-1 $41 $42 $23 $-1 $43 reversed single #
face $-1 $44 $45 $24 $-1 $46 reversed single #
face $-1 $47 $48 $25 $-1 $49 forward single #
face $-1 $50 $51 $26 $-1 $52 reversed single #
face $-1 $53 $54 $27 $-1 $55 forward single #
face $-1 $56 $57 $21 $-1 $58 reversed single #
loop $-1 $-1 $59 $28 #
plane-surface $-1 0 0 8.3896432696100174 0 0 1 1 0 0 forward_v I I I I #
face $-1 $60 $61 $22 $-1 $62 reversed single #
loop $-1 $-1 $63 $29 #
plane-surface $-1 -50.812365032415464 -33.784491532480729 0 0 1 0 0 0 1 forward_v I I I I #
face $-1 $64 $65 $23 $-1 $66 reversed single #
loop $-1 $-1 $67 $30 #
plane-surface $-1 49.795407230062523 0 4.6292949056018857 0 0 1 1 0 0 forward_v I I I I #
face $-1 $68 $69 $24 $-1 $70 reversed single #
loop $-1 $-1 $71 $31 #
plane-surface $-1 31.943713170472122 -36.231096015197551 2.2762924041911958 0 -0.70710678939079041 0.70710677298230451 1 0 0 forward_v I I I I #
face $-1 $72 $73 $25 $-1 $74 forward single #
loop $-1 $75 $76 $32 #
cone-surface $-1 31.943713170472122 -31.166572506545535 3.3251197366198584 0 0.70710678939079041 -0.70710677298230451 1.5 0 0 1 I I 0 1 1.5 forward I I I I #
face $-1 $77 $78 $26 $-1 $79 reversed single #
loop $-1 $-1 $80 $33 #
plane-surface $-1 18.69646539197371 61.925600764564379 130.44781009698789 1 0 0 0 -0.70710678939079041 -0.70710677298230451 forward_v I I I I #
face $-1 $81 $82 $27 $-1 $83 forward single #
loop $-1 $84 $85 $34 #
cone-surface $-1 31.943713170472122 31.166572506545542 3.3251197366198513 0 -0.70710678939079041 -0.70710677298230451 1.5 0 0 1 I I 0 1 1.5 forward I I I I #
face $-1 $86 $87 $21 $-1 $88 reversed single #
loop $-1 $-1 $89 $35 #
plane-surface $-1 0 0 -8.3896432696100174 0 0 1 1 0 0 forward_v I I I I #
coedge $-1 $90 $91 $92 $93 forward $36 $-1 #
face $-1 $94 $95 $22 $-1 $96 reversed single #
loop $-1 $-1 $97 $38 #
plane-surface $-1 -50.812365032415464 -30.784491532480729 0 0 -1 0 0 0 -1 forward_v I I I I #
coedge $-1 $98 $99 $100 $101 reversed $39 $-1 #
face $-1 $102 $103 $23 $-1 $104 reversed single #
loop $-1 $-1 $105 $41 #
plane-surface $-1 45.190960948970528 0 6.509469087605952 1 0 0 0 0 -1 forward_v I I I I #
coedge $-1 $106 $107 $108 $109 reversed $42 $-1 #
face $-1 $110 $111 $24 $-1 $112 reversed single #
loop $-1 $-1 $113 $44 #
plane-surface $-1 18.69646539197371 -113.16410753440113 79.209302138156318 1 0 0 0 0.70710678939079041 -0.70710677298230451 forward_v I I I I #
coedge $-1 $114 $115 $116 $117 reversed $45 $-1 #
face $-1 $-1 $118 $25 $-1 $119 forward single #
loop $-1 $120 $121 $47 #
cone-surface $-1 31.943713170472122 -28.628394267629371 0.78694155660238074 0 0.70710678939079041 -0.70710677298230451 0.75 0 0 1 I I -0.70710678118654757 0.70710678118654757 0.75 forward I I I I #
loop $-1 $-1 $122 $32 #
coedge $-1 $76 $76 $123 $124 reversed $48 $-1 #
face $-1 $125 $126 $26 $-1 $127 forward single #
loop $-1 $-1 $128 $50 #
plane-surface $-1 31.943713170472122 -15.007410754639196 53.514800363022772 0 0.70710678939079041 0.70710677298230451 1 0 0 forward_v I I I I #
coedge $-1 $129 $130 $131 $132 reversed $51 $-1 #
face $-1 $-1 $133 $27 $-1 $134 forward single #
loop $-1 $135 $136 $53 #
cone-surface $-1 31.943713170472122 28.628394267629375 0.78694155660237364 0 -0.70710678939079041 -0.70710677298230451 0.75 0 0 1 I I -0.70710678118654757 0.70710678118654757 0.75 forward I I I I #
loop $-1 $-1 $137 $34 #
coedge $-1 $85 $85 $138 $139 reversed $54 $-1 #
face $-1 $140 $141 $21 $-1 $142 reversed single #
loop $-1 $-1 $143 $56 #
plane-surface $-1 0 -36.231096015197551 0 0 1 0 0 0 1 forward_v I I I I #
coedge $-1 $144 $145 $146 $147 forward $57 $-1 #
coedge $-1 $148 $59 $149 $150 forward $36 $-1 #
coedge $-1 $59 $148 $151 $152 forward $36 $-1 #
coedge $-1 $153 $154 $59 $93 reversed $155 $-1 #
edge $-1 $156 -36.231096015197551 $157 36.231096015197551 $92 $158 forward 7 unknown #
face $-1 $159 $160 $22 $-1 $161 reversed single #
loop $-1 $-1 $162 $60 #
plane-surface $-1 -47.22487655367641 -32.284491532480729 0 -1 0 0 0 0 1 forward_v I I I I #
coedge $-1 $163 $164 $165 $166 forward $61 $-1 #
coedge $-1 $167 $63 $168 $169 reversed $39 $-1 #
coedge $-1 $63 $167 $170 $171 reversed $39 $-1 #
coedge $-1 $172 $173 $63 $101 forward $174 $-1 #
edge $-1 $175 -8.3896432696100174 $176 8.3896432696100174 $100 $177 forward 7 unknown #
face $-1 $178 $179 $23 $-1 $180 reversed single #
loop $-1 $-1 $181 $64 #
plane-surface $-1 0 -36.231096015197551 0 0 1 0 0 0 1 forward_v I I I I #
coedge $-1 $182 $183 $184 $185 reversed $65 $-1 #
coedge $-1 $186 $67 $187 $188 reversed $42 $-1 #
coedge $-1 $67 $186 $189 $190 reversed $42 $-1 #
coedge $-1 $191 $192 $67 $109 forward $179 $-1 #
edge $-1 $193 -36.231096015197551 $194 36.231096015197551 $108 $195 forward 7 unknown #
face $-1 $196 $197 $24 $-1 $198 forward single #
loop $-1 $-1 $199 $68 #
plane-surface $-1 0 -36.231096015197551 0 0 1 0 0 0 1 forward_v I I I I #
coedge $-1 $200 $201 $202 $203 reversed $69 $-1 #
coedge $-1 $204 $71 $205 $206 reversed $45 $-1 #
coedge $-1 $71 $204 $200 $207 forward $45 $-1 #
coedge $-1 $202 $208 $71 $117 forward $209 $-1 #
edge $-1 $210 -29.219104363734466 $211 -2.724608806737649 $116 $212 forward 7 unknown #
loop $-1 $-1 $123 $72 #
plane-surface $-1 31.943713170472122 -36.231096015197551 2.2762924041911958 0 -0.70710678939079041 0.70710677298230451 1 0 0 forward_v I I I I #
loop $-1 $-1 $213 $47 #
coedge $-1 $121 $121 $122 $214 reversed $73 $-1 #
coedge $-1 $122 $122 $121 $214 forward $75 $-1 #
coedge $-1 $123 $123 $76 $124 forward $118 $-1 #
edge $-1 $215 0 $215 6.2831853071796004 $123 $216 forward 7 unknown #
face $-1 $217 $218 $26 $-1 $219 forward single #
loop $-1 $-1 $220 $77 #
plane-surface $-1 45.190960948970528 0 6.509469087605952 1 0 0 0 0 -1 forward_v I I I I #
coedge $-1 $221 $222 $223 $224 reversed $78 $-1 #
coedge $-1 $130 $80 $225 $226 reversed $51 $-1 #
coedge $-1 $80 $129 $221 $227 reversed $51 $-1 #
coedge $-1 $223 $228 $80 $132 forward $218 $-1 #
edge $-1 $229 -5.2682956329153612 $230 0.84505509064255335 $131 $231 forward 7 unknown #
loop $-1 $-1 $138 $81 #
plane-surface $-1 31.943713170472122 -15.007410754639196 53.514800363022772 0 0.70710678939079041 0.70710677298230451 1 0 0 forward_v I I I I #
loop $-1 $-1 $232 $53 #
coedge $-1 $136 $136 $137 $233 reversed $82 $-1 #
coedge $-1 $137 $137 $136 $233 forward $84 $-1 #
coedge $-1 $138 $138 $85 $139 forward $133 $-1 #
edge $-1 $234 -1.2560741369730886e-015 $234 6.2831853071795996 $138 $235 forward 7 unknown #
face $-1 $236 $237 $21 $-1 $238 reversed single #
loop $-1 $-1 $239 $86 #
plane-surface $-1 -54.399853511154518 0 0 1 0 0 0 0 -1 forward_v I I I I #
coedge $-1 $240 $151 $241 $242 forward $87 $-1 #
coedge $-1 $243 $89 $240 $244 forward $57 $-1 #
coedge $-1 $89 $243 $245 $246 forward $57 $-1 #
coedge $-1 $154 $153 $89 $147 reversed $155 $-1 #
edge $-1 $247 -36.231096015197551 $248 36.231096015197551 $146 $249 forward 7 unknown #
coedge $-1 $91 $90 $250 $251 forward $36 $-1 #
coedge $-1 $252 $253 $90 $150 reversed $237 $-1 #
edge $-1 $157 -54.399853511154518 $254 54.399853511154518 $149 $255 forward 7 unknown #
coedge $-1 $143 $256 $91 $152 reversed $87 $-1 #
edge $-1 $257 -54.399853511154518 $156 54.399853511154518 $151 $258 forward 7 unknown #
coedge $-1 $146 $92 $256 $259 forward $155 $-1 #
coedge $-1 $92 $146 $252 $260 reversed $155 $-1 #
loop $-1 $-1 $153 $236 #
vertex $-1 $93 $261 #
vertex $-1 $93 $262 #
straight-curve $-1 54.399853511154518 0 8.3896432696100174 0 1 0 I I #
face $-1 $263 $264 $22 $-1 $265 forward single #
loop $-1 $-1 $266 $94 #
plane-surface $-1 0 0 -8.3896432696100174 0 0 1 1 0 0 forward_v I I I I #
coedge $-1 $267 $268 $167 $269 forward $95 $-1 #
coedge $-1 $270 $97 $266 $271 reversed $61 $-1 #
coedge $-1 $97 $270 $272 $273 reversed $61 $-1 #
coedge $-1 $268 $267 $97 $166 reversed $95 $-1 #
edge $-1 $274 -8.3896432696100174 $275 8.3896432696100174 $165 $276 forward 7 unknown #
coedge $-1 $99 $98 $162 $269 reversed $39 $-1 #
coedge $-1 $277 $278 $98 $169 forward $160 $-1 #
edge $-1 $279 21.818694037468678 $175 28.993670994946786 $168 $280 forward 7 unknown #
coedge $-1 $281 $282 $99 $171 forward $264 $-1 #
edge $-1 $176 -28.993670994946786 $283 -21.818694037468678 $170 $284 forward 7 unknown #
coedge $-1 $285 $100 $282 $286 reversed $174 $-1 #
coedge $-1 $100 $285 $277 $287 reversed $174 $-1 #
loop $-1 $-1 $285 $263 #
vertex $-1 $287 $288 #
vertex $-1 $101 $289 #
straight-curve $-1 -54.399853511154518 -33.784491532480729 0 0 0 1 I I #
face $-1 $290 $291 $23 $-1 $292 forward single #
loop $-1 $-1 $108 $102 #
plane-surface $-1 54.399853511154518 0 0 -1 0 0 0 0 1 forward_v I I I I #
coedge $-1 $187 $293 $294 $295 forward $103 $-1 #
coedge $-1 $294 $105 $186 $296 reversed $65 $-1 #
coedge $-1 $105 $294 $297 $298 reversed $65 $-1 #
coedge $-1 $299 $189 $105 $185 forward $300 $-1 #
edge $-1 $301 1.3745603617989097 $302 5.1349087258070432 $184 $303 forward 7 unknown #
coedge $-1 $107 $106 $182 $296 forward $42 $-1 #
coedge $-1 $304 $181 $106 $188 forward $103 $-1 #
edge $-1 $305 20.293257333939266 $193 29.502149896123257 $187 $306 forward 7 unknown #
coedge $-1 $184 $307 $107 $190 forward $300 $-1 #
edge $-1 $194 -29.502149896123257 $301 -20.293257333939266 $189 $308 forward 7 unknown #
coedge $-1 $309 $108 $307 $310 reversed $179 $-1 #
coedge $-1 $108 $309 $304 $311 forward $179 $-1 #
vertex $-1 $109 $312 #
vertex $-1 $109 $313 #
straight-curve $-1 54.399853511154518 0 4.6292949056018857 0 1 0 I I #
face $-1 $-1 $209 $24 $-1 $314 forward single #
loop $-1 $-1 $205 $110 #
plane-surface $-1 45.190960948970528 0 6.509469087605952 1 0 0 0 0 -1 forward_v I I I I #
coedge $-1 $315 $316 $201 $317 forward $111 $-1 #
coedge $-1 $201 $113 $115 $207 reversed $69 $-1 #
coedge $-1 $113 $200 $199 $317 reversed $69 $-1 #
coedge $-1 $318 $116 $113 $203 forward $209 $-1 #
edge $-1 $211 -26.464308475560898 $319 -20.350957752003012 $202 $320 forward 7 unknown #
coedge $-1 $115 $114 $315 $321 reversed $45 $-1 #
coedge $-1 $322 $323 $114 $206 forward $197 $-1 #
edge $-1 $324 -14.306280679225869 $210 -5.6606970741161016 $205 $325 forward 7 unknown #
edge $-1 $326 0 $211 8.6455836051097688 $200 $327 forward 7 unknown #
coedge $-1 $116 $318 $322 $328 forward $209 $-1 #
loop $-1 $-1 $202 $196 #
vertex $-1 $206 $329 #
vertex $-1 $117 $330 #
straight-curve $-1 15.971856585236061 -30.117745291639665 8.3896432696100174 -1 0 0 I I #
coedge $-1 $213 $213 $-1 $331 reversed $120 $-1 #
edge $-1 $332 0 $332 6.2831853071796004 $121 $333 forward 7 unknown #
vertex $-1 $124 $334 #
ellipse-curve $-1 31.943713170472122 -33.174420653418608 5.3329678369006075 0 -0.70710678939079041 0.70710677298230451 1.5 0 0 1 I I #
face $-1 $-1 $335 $26 $-1 $336 reversed single #
loop $-1 $-1 $223 $125 #
plane-surface $-1 0 0 8.3896432696100174 0 0 1 1 0 0 forward_v I I I I #
coedge $-1 $337 $338 $222 $339 reversed $126 $-1 #
coedge $-1 $340 $128 $130 $227 forward $78 $-1 #
coedge $-1 $128 $340 $220 $339 forward $78 $-1 #
coedge $-1 $341 $131 $128 $224 forward $218 $-1 #
edge $-1 $230 2.724608806737649 $342 29.219104363734466 $223 $343 forward 7 unknown #
coedge $-1 $344 $345 $129 $226 forward $335 $-1 #
edge $-1 $346 -62.947612644302772 $229 -56.834261778883928 $225 $347 forward 7 unknown #
edge $-1 $230 63.81660842528531 $346 72.462192030395116 $130 $348 forward 7 unknown #
coedge $-1 $131 $341 $344 $349 forward $218 $-1 #
vertex $-1 $226 $350 #
vertex $-1 $132 $351 #
straight-curve $-1 18.69646539197371 30.96280038228219 8.3896432696100192 0 -1 0 I I #
coedge $-1 $232 $232 $-1 $352 reversed $135 $-1 #
edge $-1 $353 0 $353 6.2831853071796004 $136 $354 forward 7 unknown #
vertex $-1 $139 $355 #
ellipse-curve $-1 31.943713170472122 33.174420653418601 5.3329678369005835 0 0.70710678939079041 0.70710677298230451 1.5 0 0 1 I I #
face $-1 $-1 $155 $21 $-1 $356 reversed single #
loop $-1 $-1 $252 $140 #
plane-surface $-1 0 36.231096015197551 0 0 -1 0 0 0 -1 forward_v I I I I #
coedge $-1 $357 $250 $253 $358 forward $141 $-1 #
coedge $-1 $256 $143 $144 $244 reversed $87 $-1 #
coedge $-1 $250 $357 $143 $242 reversed $141 $-1 #
edge $-1 $257 -8.3896432696100174 $359 8.3896432696100174 $241 $360 forward 7 unknown #
coedge $-1 $145 $144 $357 $361 forward $57 $-1 #
edge $-1 $248 -54.399853511154518 $359 54.399853511154518 $240 $362 forward 7 unknown #
coedge $-1 $253 $252 $145 $246 reversed $237 $-1 #
edge $-1 $363 -54.399853511154518 $247 54.399853511154518 $245 $364 forward 7 unknown #
vertex $-1 $147 $365 #
vertex $-1 $259 $366 #
straight-curve $-1 54.399853511154518 0 -8.3896432696100174 0 -1 0 I I #
coedge $-1 $239 $241 $148 $251 reversed $141 $-1 #
edge $-1 $254 -36.231096015197551 $257 36.231096015197551 $250 $367 forward 7 unknown #
coedge $-1 $245 $149 $154 $260 forward $237 $-1 #
coedge $-1 $149 $245 $239 $358 reversed $237 $-1 #
vertex $-1 $150 $368 #
straight-curve $-1 0 36.231096015197551 8.3896432696100174 -1 0 0 I I #
coedge $-1 $151 $240 $153 $259 reversed $87 $-1 #
vertex $-1 $251 $369 #
straight-curve $-1 0 -36.231096015197551 8.3896432696100174 1 0 0 I I #
edge $-1 $156 -8.3896432696100174 $248 8.3896432696100174 $153 $370 forward 7 unknown #
edge $-1 $157 -8.3896432696100174 $247 8.3896432696100174 $154 $371 forward 7 unknown #
point $-1 54.399853511154518 -36.231096015197551 8.3896432696100174 #
point $-1 54.399853511154518 36.231096015197551 8.3896432696100174 #
face $-1 $-1 $174 $22 $-1 $372 reversed single #
loop $-1 $-1 $272 $159 #
plane-surface $-1 0 0 8.3896432696100174 0 0 1 1 0 0 forward_v I I I I #
coedge $-1 $278 $277 $163 $271 forward $160 $-1 #
coedge $-1 $165 $162 $278 $373 reversed $95 $-1 #
coedge $-1 $162 $165 $281 $374 reversed $95 $-1 #
edge $-1 $283 -8.3896432696100174 $279 8.3896432696100174 $162 $375 forward 7 unknown #
coedge $-1 $164 $163 $285 $376 reversed $61 $-1 #
edge $-1 $377 -28.993670994946786 $275 -21.818694037468678 $266 $378 forward 7 unknown #
coedge $-1 $282 $281 $164 $273 forward $264 $-1 #
edge $-1 $274 21.818694037468678 $379 28.993670994946786 $272 $380 forward 7 unknown #
vertex $-1 $273 $381 #
vertex $-1 $271 $382 #
straight-curve $-1 -47.22487655367641 -30.784491532480729 0 0 0 -1 I I #
coedge $-1 $266 $168 $173 $287 forward $160 $-1 #
coedge $-1 $168 $266 $267 $373 forward $160 $-1 #
vertex $-1 $169 $383 #
straight-curve $-1 -25.406182516207732 -33.784491532480729 -8.3896432696100174 -1 0 0 I I #
coedge $-1 $272 $170 $268 $374 forward $264 $-1 #
coedge $-1 $170 $272 $172 $286 forward $264 $-1 #
vertex $-1 $171 $384 #
straight-curve $-1 -25.406182516207732 -33.784491532480729 8.3896432696100174 1 0 0 I I #
coedge $-1 $173 $172 $270 $376 forward $174 $-1 #
edge $-1 $379 30.784491532480729 $176 33.784491532480729 $172 $385 forward 7 unknown #
edge $-1 $175 -33.784491532480729 $377 -30.784491532480729 $173 $386 forward 7 unknown #
point $-1 -54.399853511154518 -33.784491532480729 -8.3896432696100174 #
point $-1 -54.399853511154518 -33.784491532480729 8.3896432696100174 #
face $-1 $-1 $300 $23 $-1 $387 reversed single #
loop $-1 $-1 $297 $178 #
plane-surface $-1 0 0 8.3896432696100174 0 0 1 1 0 0 forward_v I I I I #
coedge $-1 $181 $304 $388 $389 reversed $103 $-1 #
coedge $-1 $183 $182 $181 $295 reversed $65 $-1 #
edge $-1 $390 -5.1349087258070432 $305 -1.3745603617989097 $181 $391 forward 7 unknown #
edge $-1 $305 -36.231096015197551 $301 36.231096015197551 $182 $392 forward 7 unknown #
coedge $-1 $388 $393 $183 $298 forward $291 $-1 #
edge $-1 $302 -36.231096015197551 $390 36.231096015197551 $297 $394 forward 7 unknown #
coedge $-1 $307 $184 $393 $395 reversed $300 $-1 #
loop $-1 $-1 $184 $290 #
vertex $-1 $190 $396 #
vertex $-1 $185 $397 #
straight-curve $-1 45.190960948970528 36.231096015197551 3.254734543802976 0 0 1 I I #
coedge $-1 $293 $187 $192 $311 reversed $103 $-1 #
vertex $-1 $188 $398 #
straight-curve $-1 24.897703615031261 -36.231096015197551 4.6292949056018857 1 0 0 I I #
coedge $-1 $189 $299 $191 $310 forward $300 $-1 #
straight-curve $-1 24.897703615031261 36.231096015197551 4.6292949056018857 -1 0 0 I I #
coedge $-1 $192 $191 $399 $400 reversed $179 $-1 #
edge $-1 $401 -8.3896432696100174 $194 -4.6292949056018857 $191 $402 forward 7 unknown #
edge $-1 $403 -8.3896432696100174 $193 -4.6292949056018857 $192 $404 forward 7 unknown #
point $-1 54.399853511154518 -36.231096015197551 4.6292949056018857 #
point $-1 54.399853511154518 36.231096015197551 4.6292949056018857 #
plane-surface $-1 0 0 8.3896432696100174 0 0 1 1 0 0 forward_v I I I I #
coedge $-1 $405 $199 $204 $321 forward $111 $-1 #
coedge $-1 $199 $405 $318 $406 reversed $111 $-1 #
edge $-1 $319 31.21500779946814 $326 37.328358664886963 $199 $407 forward 7 unknown #
coedge $-1 $208 $202 $316 $406 forward $209 $-1 #
vertex $-1 $406 $408 #
straight-curve $-1 18.69646539197371 -56.582053767200563 8.3896432696100192 0 -1 0 I I #
edge $-1 $326 2.724608806737649 $324 29.219104363734473 $315 $409 forward 7 unknown #
coedge $-1 $323 $205 $208 $328 reversed $197 $-1 #
coedge $-1 $205 $322 $405 $410 reversed $197 $-1 #
vertex $-1 $410 $411 #
straight-curve $-1 45.190960948970528 -26.115028050731055 12.392360603402095 0 0.70710677298230462 0.70710678939079052 I I #
vertex $-1 $321 $412 #
straight-curve $-1 18.69646539197371 -36.231096015197551 2.2762924041911958 0 0.70710677298230451 0.70710678939079041 I I #
edge $-1 $413 -36.231096015197551 $210 -30.117745291639665 $208 $414 forward 7 unknown #
point $-1 45.190960948970528 -30.117745291639665 8.3896432696100174 #
point $-1 18.69646539197371 -30.117745291639665 8.3896432696100156 #
edge $-1 $415 1 $415 0 $213 $-1 forward 7 unknown #
vertex $-1 $214 $416 #
ellipse-curve $-1 31.943713170472122 -29.158724359672465 1.3172716363391093 0 -0.70710678939079041 0.70710677298230451 1.5 0 0 1 I I #
point $-1 33.443713170472122 -33.174420653418608 5.3329678369006075 #
loop $-1 $-1 $225 $217 #
plane-surface $-1 0 36.231096015197551 0 0 -1 0 0 0 -1 forward_v I I I I #
coedge $-1 $338 $220 $417 $418 reversed $126 $-1 #
coedge $-1 $220 $337 $341 $419 reversed $126 $-1 #
edge $-1 $420 -72.462192030395116 $342 -63.81660842528531 $220 $421 forward 7 unknown #
coedge $-1 $222 $221 $345 $422 reversed $78 $-1 #
coedge $-1 $228 $223 $338 $419 forward $218 $-1 #
vertex $-1 $419 $423 #
straight-curve $-1 15.971856585236061 30.117745291639643 8.3896432696100156 1 0 0 I I #
coedge $-1 $417 $225 $228 $349 reversed $335 $-1 #
coedge $-1 $225 $417 $340 $422 forward $335 $-1 #
vertex $-1 $226 $424 #
straight-curve $-1 18.69646539197371 36.231096015197551 65.223905048493947 0 0 1 I I #
straight-curve $-1 18.69646539197371 -15.007410754639196 53.514800363022772 0 0.70710677298230451 -0.70710678939079041 I I #
edge $-1 $425 -45.190960948970528 $229 -18.69646539197371 $344 $426 forward 7 unknown #
point $-1 18.69646539197371 36.231096015197551 8.3896432696100174 #
point $-1 18.69646539197371 30.117745291639636 8.3896432696100192 #
edge $-1 $427 1 $427 0 $232 $-1 forward 7 unknown #
vertex $-1 $233 $428 #
ellipse-curve $-1 31.943713170472122 29.158724359672469 1.3172716363391022 0 0.70710678939079041 0.70710677298230451 1.5 0 0 1 I I #
point $-1 33.443713170472122 33.174420653418615 5.3329678369006004 #
plane-surface $-1 54.399853511154518 0 0 -1 0 0 0 0 1 forward_v I I I I #
coedge $-1 $241 $239 $243 $361 reversed $141 $-1 #
edge $-1 $254 -8.3896432696100174 $363 8.3896432696100174 $253 $429 forward 7 unknown #
vertex $-1 $361 $430 #
straight-curve $-1 -54.399853511154518 -36.231096015197551 0 0 0 -1 I I #
edge $-1 $359 -36.231096015197551 $363 36.231096015197551 $357 $431 forward 7 unknown #
straight-curve $-1 0 -36.231096015197551 -8.3896432696100174 -1 0 0 I I #
vertex $-1 $246 $432 #
straight-curve $-1 0 36.231096015197551 -8.3896432696100174 1 0 0 I I #
point $-1 54.399853511154518 36.231096015197551 -8.3896432696100174 #
point $-1 54.399853511154518 -36.231096015197551 -8.3896432696100174 #
straight-curve $-1 -54.399853511154518 0 8.3896432696100174 0 -1 0 I I #
point $-1 -54.399853511154518 36.231096015197551 8.3896432696100174 #
point $-1 -54.399853511154518 -36.231096015197551 8.3896432696100174 #
straight-curve $-1 54.399853511154518 -36.231096015197551 0 0 0 -1 I I #
straight-curve $-1 54.399853511154518 36.231096015197551 0 0 0 -1 I I #
plane-surface $-1 -54.399853511154518 0 0 1 0 0 0 0 -1 forward_v I I I I #
edge $-1 $275 14.642245766240364 $279 17.642245766240364 $278 $433 forward 7 unknown #
edge $-1 $283 -17.642245766240364 $274 -14.642245766240364 $281 $434 forward 7 unknown #
straight-curve $-1 -47.22487655367641 -33.784491532480729 0 0 0 -1 I I #
edge $-1 $379 -8.3896432696100174 $377 8.3896432696100174 $285 $435 forward 7 unknown #
vertex $-1 $376 $436 #
straight-curve $-1 -25.406182516207732 -30.784491532480729 -8.3896432696100174 1 0 0 I I #
vertex $-1 $286 $437 #
straight-curve $-1 -25.406182516207732 -30.784491532480729 8.3896432696100174 -1 0 0 I I #
point $-1 -47.22487655367641 -30.784491532480729 8.3896432696100174 #
point $-1 -47.22487655367641 -30.784491532480729 -8.3896432696100174 #
point $-1 -47.22487655367641 -33.784491532480729 -8.3896432696100174 #
point $-1 -47.22487655367641 -33.784491532480729 8.3896432696100174 #
straight-curve $-1 -54.399853511154518 0 8.3896432696100174 0 -1 0 I I #
straight-curve $-1 -54.399853511154518 0 -8.3896432696100174 0 1 0 I I #
plane-surface $-1 0 36.231096015197551 0 0 -1 0 0 0 -1 forward_v I I I I #
coedge $-1 $399 $297 $293 $389 forward $291 $-1 #
edge $-1 $390 45.190960948970528 $403 54.399853511154518 $293 $438 forward 7 unknown #
vertex $-1 $389 $439 #
straight-curve $-1 45.190960948970528 -36.231096015197551 3.254734543802976 0 0 -1 I I #
straight-curve $-1 45.190960948970528 0 4.6292949056018857 0 1 0 I I #
coedge $-1 $297 $399 $299 $395 forward $291 $-1 #
straight-curve $-1 45.190960948970528 0 8.3896432696100174 0 -1 0 I I #
edge $-1 $401 -54.399853511154518 $302 -45.190960948970528 $299 $440 forward 7 unknown #
point $-1 45.190960948970528 36.231096015197551 4.6292949056018857 #
point $-1 45.190960948970528 36.231096015197551 8.3896432696100192 #
point $-1 45.190960948970528 -36.231096015197551 4.6292949056018857 #
coedge $-1 $393 $388 $309 $400 forward $291 $-1 #
edge $-1 $403 -36.231096015197551 $401 36.231096015197551 $309 $441 forward 7 unknown #
vertex $-1 $400 $442 #
straight-curve $-1 54.399853511154518 36.231096015197551 0 0 0 -1 I I #
vertex $-1 $400 $443 #
straight-curve $-1 54.399853511154518 -36.231096015197551 0 0 0 -1 I I #
coedge $-1 $316 $315 $323 $410 forward $111 $-1 #
edge $-1 $319 18.69646539197371 $413 45.190960948970528 $316 $444 forward 7 unknown #
straight-curve $-1 18.69646539197371 -36.231096015197551 39.604651069078159 0 0 -1 I I #
point $-1 18.69646539197371 -36.231096015197551 8.3896432696100174 #
straight-curve $-1 15.971856585236061 -36.231096015197551 2.2762924041911958 1 0 0 I I #
edge $-1 $324 -37.328358664886963 $413 -31.21500779946814 $405 $445 forward 7 unknown #
point $-1 45.190960948970535 -36.231096015197551 2.2762924041911958 #
point $-1 18.69646539197371 -36.231096015197551 2.2762924041911958 #
vertex $-1 $328 $446 #
straight-curve $-1 45.190960948970528 0 8.3896432696100174 0 1 0 I I #
vertex $-1 $331 $447 #
point $-1 33.443713170472122 -29.158724359672465 1.3172716363391093 #
coedge $-1 $345 $344 $337 $418 forward $335 $-1 #
edge $-1 $425 56.834261778883928 $420 62.947612644302772 $417 $448 forward 7 unknown #
edge $-1 $342 30.11774529163964 $425 36.231096015197551 $341 $449 forward 7 unknown #
vertex $-1 $418 $450 #
straight-curve $-1 45.190960948970535 -15.007410754639196 53.514800363022772 0 -0.70710677298230451 0.70710678939079041 I I #
edge $-1 $420 -29.219104363734473 $346 -2.724608806737649 $345 $451 forward 7 unknown #
point $-1 45.190960948970528 30.11774529163964 8.3896432696100174 #
point $-1 18.69646539197371 36.231096015197544 2.2762924041911745 #
vertex $-1 $349 $452 #
straight-curve $-1 0 36.231096015197551 8.3896432696100174 -1 0 0 I I #
vertex $-1 $352 $453 #
point $-1 33.443713170472122 29.158724359672469 1.3172716363391022 #
straight-curve $-1 -54.399853511154518 36.231096015197551 0 0 0 -1 I I #
point $-1 -54.399853511154518 -36.231096015197551 -8.3896432696100174 #
straight-curve $-1 -54.399853511154518 0 -8.3896432696100174 0 1 0 I I #
point $-1 -54.399853511154518 36.231096015197551 -8.3896432696100174 #
straight-curve $-1 -47.22487655367641 -16.142245766240364 -8.3896432696100174 0 -1 0 I I #
straight-curve $-1 -47.22487655367641 -16.142245766240364 8.3896432696100174 0 1 0 I I #
straight-curve $-1 -54.399853511154518 -30.784491532480729 0 0 0 -1 I I #
point $-1 -54.399853511154518 -30.784491532480729 -8.3896432696100174 #
point $-1 -54.399853511154518 -30.784491532480729 8.3896432696100174 #
straight-curve $-1 0 -36.231096015197551 8.3896432696100174 1 0 0 I I #
point $-1 45.190960948970528 -36.231096015197551 8.3896432696100192 #
straight-curve $-1 0 36.231096015197551 8.3896432696100174 -1 0 0 I I #
straight-curve $-1 54.399853511154518 0 8.3896432696100174 0 1 0 I I #
point $-1 54.399853511154518 36.231096015197551 8.3896432696100174 #
point $-1 54.399853511154518 -36.231096015197551 8.3896432696100174 #
straight-curve $-1 0 -36.231096015197551 8.3896432696100174 1 0 0 I I #
straight-curve $-1 45.190960948970535 -36.231096015197551 39.604651069078159 0 0 1 I I #
point $-1 45.190960948970528 -36.231096015197551 8.3896432696100192 #
point $-1 31.943713170472122 -28.098064175586277 0.25661147686565233 #
straight-curve $-1 45.190960948970535 36.231096015197551 65.223905048493947 0 0 -1 I I #
straight-curve $-1 45.190960948970528 0 8.3896432696100174 0 1 0 I I #
point $-1 45.190960948970535 36.231096015197544 2.2762924041911745 #
straight-curve $-1 15.971856585236061 36.231096015197551 2.2762924041911674 -1 0 0 I I #
point $-1 45.190960948970528 36.231096015197551 8.3896432696100192 #
point $-1 31.943713170472122 28.098064175586281 0.25661147686564523 #
End-of-ACIS-data 