500 0 6 0           
7 Unknown 11 ACIS 5.0 NT 24 Fri Mar 26 15:45:42 1999 
-1 9.9999999999999995e-007 1e-010 
body $-1 $6 $-1 $7 #
body $-1 $8 $-1 $9 #
body $-1 $10 $-1 $11 #
body $-1 $12 $-1 $13 #
body $-1 $14 $-1 $15 #
body $-1 $16 $-1 $17 #
lump $-1 $-1 $18 $0 #
transform $-1 1 0 0 0 1 0 0 0 1 75.101168858912928 30.391827423507532 10.88130746740206 1 rotate no_reflect no_shear #
lump $-1 $-1 $19 $1 #
transform $-1 1 0 0 0 1 0 0 0 1 75.101168858912928 30.391827423507532 10.88130746740206 1 rotate no_reflect no_shear #
lump $-1 $-1 $20 $2 #
transform $-1 1 0 0 0 1 0 0 0 1 75.101168858912928 30.391827423507532 10.88130746740206 1 rotate no_reflect no_shear #
lump $-1 $-1 $21 $3 #
transform $-1 1 0 0 0 1 0 0 0 1 75.101168858912928 30.391827423507532 10.88130746740206 1 rotate no_reflect no_shear #
lump $-1 $-1 $22 $4 #
transform $-1 1 0 0 0 1 0 0 0 1 75.101168858912928 30.391827423507532 10.88130746740206 1 rotate no_reflect no_shear #
lump $-1 $-1 $23 $5 #
transform $-1 1 0 0 0 1 0 0 0 1 75.101168858912928 30.391827423507532 10.88130746740206 1 rotate no_reflect no_shear #
shell $-1 $-1 $-1 $24 $-1 $6 #
shell $-1 $-1 $-1 $25 $-1 $8 #
shell $-1 $-1 $-1 $26 $-1 $10 #
shell $-1 $-1 $-1 $27 $-1 $12 #
shell $-1 $-1 $-1 $28 $-1 $14 #
shell $-1 $-1 $-1 $29 $-1 $16 #
face $-1 $30 $31 $18 $-1 $32 forward single #
face $-1 $33 $34 $19 $-1 $35 reversed single #
face $-1 $36 $37 $20 $-1 $38 forward single #
face $-1 $39 $40 $21 $-1 $41 forward single #
face $-1 $42 $43 $22 $-1 $44 reversed single #
face $-1 $45 $46 $23 $-1 $47 forward single #
face $-1 $48 $49 $18 $-1 $50 reversed single #
loop $-1 $-1 $51 $24 #
plane-surface $-1 0 0 10.88130746740206 0 0 1 1 0 0 forward_v I I I I #
face $-1 $52 $53 $19 $-1 $54 reversed single #
loop $-1 $-1 $55 $25 #
plane-surface $-1 52.897424733569864 6.6695647510604363 216.90809220077841 0 -1 0 -0.62932039886446345 0 -0.77714595512881146 forward_v I I I I #
face $-1 $56 $57 $20 $-1 $58 forward single #
loop $-1 $59 $60 $26 #
cone-surface $-1 70.641165765865551 -0.74961392140383509 6.7458707021543107 -0.62932039886446345 0 -0.77714595512881146 0.77714595512881146 0 -0.62932039886446345 1 I I 0 1 1 forward I I I I #
face $-1 $61 $62 $21 $-1 $63 forward single #
loop $-1 $64 $65 $27 #
cone-surface $-1 70.641165765865551 3.7018932820747246 6.7458707021543107 -0.62932039886446345 0 -0.77714595512881146 0.77714595512881146 0 -0.62932039886446345 1 I I 0 1 1 forward I I I I #
face $-1 $66 $67 $22 $-1 $68 reversed single #
loop $-1 $-1 $69 $28 #
plane-surface $-1 -206.47109463062904 5.6042288096984869 79.416676695687414 0 1 0 -0.87461971476443456 0 0.48480960649040278 forward_v I I I I #
face $-1 $70 $71 $23 $-1 $72 forward single #
loop $-1 $73 $74 $29 #
cone-surface $-1 -72.341241486458543 10.048408658318632 7.8675446619633975 0.87461971476443456 0 -0.48480960649040278 0.48480960649040278 0 0.87461971476443456 1 I I 0 1 1 forward I I I I #
face $-1 $75 $76 $18 $-1 $77 reversed single #
loop $-1 $-1 $78 $30 #
plane-surface $-1 0 0 -10.88130746740206 0 0 1 1 0 0 forward_v I I I I #
coedge $-1 $79 $80 $81 $82 forward $31 $-1 #
face $-1 $83 $84 $19 $-1 $85 reversed single #
loop $-1 $-1 $86 $33 #
plane-surface $-1 -41.627970349387141 1.4761396803354465 100.17895299247833 0.62932039886446345 0 0.77714595512881146 0.77714595512881146 0 -0.62932039886446345 forward_v I I I I #
coedge $-1 $87 $88 $89 $90 reversed $34 $-1 #
face $-1 $-1 $91 $20 $-1 $92 forward single #
loop $-1 $93 $94 $36 #
cone-surface $-1 69.094368939071927 -0.74961392140383509 4.8357357382825299 -0.62932039886446345 0 -0.77714595512881146 0.38857297756440573 0 -0.31466019943223172 1 I I -0.70710678118654746 0.70710678118654746 0.5 forward I I I I #
loop $-1 $-1 $95 $26 #
coedge $-1 $60 $60 $96 $97 reversed $37 $-1 #
face $-1 $-1 $98 $21 $-1 $99 forward single #
loop $-1 $100 $101 $39 #
cone-surface $-1 69.094368939071927 3.7018932820747246 4.8357357382825299 -0.62932039886446345 0 -0.77714595512881146 0.38857297756440573 0 -0.31466019943223172 1 I I -0.70710678118654746 0.70710678118654746 0.5 forward I I I I #
loop $-1 $-1 $102 $27 #
coedge $-1 $65 $65 $103 $104 reversed $40 $-1 #
face $-1 $105 $106 $22 $-1 $107 reversed single #
loop $-1 $-1 $108 $42 #
plane-surface $-1 -75.101168858912928 10.048408658318632 6.5971404527696791 -0.87461971476443456 0 0.48480960649040278 0.48480960649040278 0 0.87461971476443456 forward_v I I I I #
coedge $-1 $109 $110 $111 $112 reversed $43 $-1 #
face $-1 $-1 $113 $23 $-1 $114 forward single #
loop $-1 $115 $116 $45 #
cone-surface $-1 -70.331380489652844 10.048408658318632 6.7534605605957303 0.87461971476443456 0 -0.48480960649040278 0.24240480324520139 0 0.43730985738221728 1 I I -0.70710678118654746 0.70710678118654746 0.5 forward I I I I #
loop $-1 $-1 $117 $29 #
coedge $-1 $74 $74 $118 $119 reversed $46 $-1 #
face $-1 $120 $121 $18 $-1 $122 reversed single #
loop $-1 $-1 $123 $48 #
plane-surface $-1 0 -30.391827423507532 0 0 1 0 0 0 1 forward_v I I I I #
coedge $-1 $124 $125 $126 $127 forward $49 $-1 #
coedge $-1 $128 $51 $129 $130 forward $31 $-1 #
coedge $-1 $51 $128 $131 $132 forward $31 $-1 #
coedge $-1 $133 $134 $51 $82 reversed $135 $-1 #
edge $-1 $136 -30.391827423507532 $137 30.391827423507532 $81 $138 forward 7 unknown #
face $-1 $139 $140 $19 $-1 $141 forward single #
loop $-1 $-1 $142 $52 #
plane-surface $-1 52.897424733569864 -3.7172853903895433 216.90809220077841 0 1 0 0.62932039886446345 0 0.77714595512881146 forward_v I I I I #
coedge $-1 $143 $144 $145 $146 reversed $53 $-1 #
coedge $-1 $88 $55 $147 $148 reversed $34 $-1 #
coedge $-1 $55 $87 $143 $149 reversed $34 $-1 #
coedge $-1 $145 $150 $55 $90 forward $140 $-1 #
edge $-1 $151 -48.652456492127996 $152 -42.196723560756055 $89 $153 forward 7 unknown #
loop $-1 $-1 $96 $56 #
plane-surface $-1 -41.627970349387141 1.4761396803354465 100.17895299247833 0.62932039886446345 0 0.77714595512881146 0.77714595512881146 0 -0.62932039886446345 forward_v I I I I #
loop $-1 $-1 $154 $36 #
coedge $-1 $94 $94 $95 $155 reversed $57 $-1 #
coedge $-1 $95 $95 $94 $155 forward $59 $-1 #
coedge $-1 $96 $96 $60 $97 forward $91 $-1 #
edge $-1 $156 0 $156 6.2831853071796004 $96 $157 forward 7 unknown #
loop $-1 $-1 $103 $61 #
plane-surface $-1 -41.627970349387141 1.4761396803354465 100.17895299247833 0.62932039886446345 0 0.77714595512881146 0.77714595512881146 0 -0.62932039886446345 forward_v I I I I #
loop $-1 $-1 $158 $39 #
coedge $-1 $101 $101 $102 $159 reversed $62 $-1 #
coedge $-1 $102 $102 $101 $159 forward $64 $-1 #
coedge $-1 $103 $103 $65 $104 forward $98 $-1 #
edge $-1 $160 0 $160 6.2831853071796004 $103 $161 forward 7 unknown #
face $-1 $162 $163 $22 $-1 $164 reversed single #
loop $-1 $-1 $165 $66 #
plane-surface $-1 -206.47109463062904 14.492588506938777 79.416676695687414 0 -1 0 0.87461971476443456 0 -0.48480960649040278 forward_v I I I I #
coedge $-1 $166 $167 $168 $169 reversed $67 $-1 #
coedge $-1 $110 $69 $170 $171 reversed $43 $-1 #
coedge $-1 $69 $109 $166 $172 reversed $43 $-1 #
coedge $-1 $168 $173 $69 $112 forward $174 $-1 #
edge $-1 $175 28.134378456401592 $176 30.50913092246337 $111 $177 forward 7 unknown #
loop $-1 $-1 $118 $70 #
plane-surface $-1 -75.101168858912928 10.048408658318632 6.5971404527696791 -0.87461971476443456 0 0.48480960649040278 0.48480960649040278 0 0.87461971476443456 forward_v I I I I #
loop $-1 $-1 $178 $45 #
coedge $-1 $116 $116 $117 $179 reversed $71 $-1 #
coedge $-1 $117 $117 $116 $179 forward $73 $-1 #
coedge $-1 $118 $118 $74 $119 forward $113 $-1 #
edge $-1 $180 0 $180 6.2831853071796004 $118 $181 forward 7 unknown #
face $-1 $182 $183 $18 $-1 $184 reversed single #
loop $-1 $-1 $185 $75 #
plane-surface $-1 -75.101168858912928 0 0 1 0 0 0 0 -1 forward_v I I I I #
coedge $-1 $186 $131 $187 $188 forward $76 $-1 #
coedge $-1 $189 $78 $186 $190 forward $49 $-1 #
coedge $-1 $78 $189 $191 $192 forward $49 $-1 #
coedge $-1 $134 $133 $78 $127 reversed $135 $-1 #
edge $-1 $193 -30.391827423507532 $194 30.391827423507532 $126 $195 forward 7 unknown #
coedge $-1 $80 $79 $196 $197 forward $31 $-1 #
coedge $-1 $198 $199 $79 $130 reversed $183 $-1 #
edge $-1 $137 -75.101168858912928 $200 75.101168858912928 $129 $201 forward 7 unknown #
coedge $-1 $123 $202 $80 $132 reversed $76 $-1 #
edge $-1 $203 -75.101168858912928 $136 75.101168858912928 $131 $204 forward 7 unknown #
coedge $-1 $126 $81 $202 $205 forward $135 $-1 #
coedge $-1 $81 $126 $198 $206 reversed $135 $-1 #
loop $-1 $-1 $133 $182 #
vertex $-1 $82 $207 #
vertex $-1 $82 $208 #
straight-curve $-1 75.101168858912928 0 10.88130746740206 0 1 0 I I #
face $-1 $-1 $209 $19 $-1 $210 reversed single #
loop $-1 $-1 $89 $83 #
plane-surface $-1 0 0 10.88130746740206 0 0 1 1 0 0 forward_v I I I I #
coedge $-1 $211 $212 $213 $214 reversed $84 $-1 #
coedge $-1 $215 $86 $88 $149 forward $53 $-1 #
coedge $-1 $86 $215 $211 $216 forward $53 $-1 #
coedge $-1 $213 $89 $86 $146 forward $140 $-1 #
edge $-1 $152 -5.9314949108927131 $217 4.4553552305572666 $145 $218 forward 7 unknown #
coedge $-1 $219 $220 $87 $148 forward $209 $-1 #
edge $-1 $221 -102.80048819086788 $151 -97.572738632987154 $147 $222 forward 7 unknown #
edge $-1 $152 141.89536154588924 $221 150.20233771782586 $88 $223 forward 7 unknown #
coedge $-1 $89 $213 $219 $224 forward $140 $-1 #
vertex $-1 $148 $225 #
vertex $-1 $90 $226 #
straight-curve $-1 26.448712366784932 6.6695647510604363 10.881307467402053 -1 0 0 I I #
coedge $-1 $154 $154 $-1 $227 reversed $93 $-1 #
edge $-1 $228 0 $228 6.2831853071796004 $94 $229 forward 7 unknown #
vertex $-1 $97 $230 #
ellipse-curve $-1 71.87330239322695 -0.74961392140383509 8.2674326884616978 0.62932039886446345 0 0.77714595512881146 0.77714595512881146 0 -0.62932039886446345 1 I I #
coedge $-1 $158 $158 $-1 $231 reversed $100 $-1 #
edge $-1 $232 0 $232 6.2831853071796004 $101 $233 forward 7 unknown #
vertex $-1 $104 $234 #
ellipse-curve $-1 71.87330239322695 3.7018932820747246 8.2674326884616978 0.62932039886446345 0 0.77714595512881146 0.77714595512881146 0 -0.62932039886446345 1 I I #
face $-1 $-1 $174 $22 $-1 $235 forward single #
loop $-1 $-1 $236 $105 #
plane-surface $-1 -75.101168858912928 0 0 1 0 0 0 0 -1 forward_v I I I I #
coedge $-1 $237 $238 $239 $240 reversed $106 $-1 #
coedge $-1 $241 $108 $110 $172 forward $67 $-1 #
coedge $-1 $108 $241 $237 $242 forward $67 $-1 #
coedge $-1 $239 $111 $108 $169 forward $174 $-1 #
edge $-1 $176 0.58002448053917099 $243 9.4683841777794608 $168 $244 forward 7 unknown #
coedge $-1 $245 $246 $109 $171 forward $163 $-1 #
edge $-1 $247 -33.111197895074028 $175 -28.827030880441647 $170 $248 forward 7 unknown #
edge $-1 $176 -4.8983197409244958 $247 0 $110 $249 forward 7 unknown #
coedge $-1 $111 $239 $245 $250 forward $174 $-1 #
loop $-1 $-1 $239 $162 #
vertex $-1 $171 $251 #
vertex $-1 $112 $252 #
straight-curve $-1 -103.23554731531452 5.6042288096984869 10.88130746740206 1 0 0 I I #
coedge $-1 $178 $178 $-1 $253 reversed $115 $-1 #
edge $-1 $254 0 $254 6.2831853071796004 $116 $255 forward 7 unknown #
vertex $-1 $119 $256 #
ellipse-curve $-1 -73.913792625882039 10.048408658318632 8.7392239600858712 -0.87461971476443456 0 0.48480960649040278 0.48480960649040278 0 0.87461971476443456 1 I I #
face $-1 $-1 $135 $18 $-1 $257 reversed single #
loop $-1 $-1 $198 $120 #
plane-surface $-1 0 30.391827423507532 0 0 -1 0 0 0 -1 forward_v I I I I #
coedge $-1 $258 $196 $199 $259 forward $121 $-1 #
coedge $-1 $202 $123 $124 $190 reversed $76 $-1 #
coedge $-1 $196 $258 $123 $188 reversed $121 $-1 #
edge $-1 $203 -10.88130746740206 $260 10.88130746740206 $187 $261 forward 7 unknown #
coedge $-1 $125 $124 $258 $262 forward $49 $-1 #
edge $-1 $194 -75.101168858912928 $260 75.101168858912928 $186 $263 forward 7 unknown #
coedge $-1 $199 $198 $125 $192 reversed $183 $-1 #
edge $-1 $264 -75.101168858912928 $193 75.101168858912928 $191 $265 forward 7 unknown #
vertex $-1 $127 $266 #
vertex $-1 $205 $267 #
straight-curve $-1 75.101168858912928 0 -10.88130746740206 0 -1 0 I I #
coedge $-1 $185 $187 $128 $197 reversed $121 $-1 #
edge $-1 $200 -30.391827423507532 $203 30.391827423507532 $196 $268 forward 7 unknown #
coedge $-1 $191 $129 $134 $206 forward $183 $-1 #
coedge $-1 $129 $191 $185 $259 reversed $183 $-1 #
vertex $-1 $130 $269 #
straight-curve $-1 0 30.391827423507532 10.88130746740206 -1 0 0 I I #
coedge $-1 $131 $186 $133 $205 reversed $76 $-1 #
vertex $-1 $197 $270 #
straight-curve $-1 0 -30.391827423507532 10.88130746740206 1 0 0 I I #
edge $-1 $136 -10.88130746740206 $194 10.88130746740206 $133 $271 forward 7 unknown #
edge $-1 $137 -10.88130746740206 $193 10.88130746740206 $134 $272 forward 7 unknown #
point $-1 75.101168858912928 -30.391827423507532 10.88130746740206 #
point $-1 75.101168858912928 30.391827423507532 10.88130746740206 #
loop $-1 $-1 $147 $139 #
plane-surface $-1 75.101168858912928 0 0 -1 0 0 0 0 1 forward_v I I I I #
coedge $-1 $212 $142 $144 $216 reversed $84 $-1 #
coedge $-1 $142 $211 $273 $274 reversed $84 $-1 #
coedge $-1 $150 $145 $142 $214 forward $140 $-1 #
edge $-1 $217 42.196723560756055 $275 48.652456492127996 $213 $276 forward 7 unknown #
coedge $-1 $144 $143 $220 $277 reversed $53 $-1 #
edge $-1 $278 -150.20233771782586 $217 -141.89536154588924 $211 $279 forward 7 unknown #
vertex $-1 $146 $280 #
straight-curve $-1 68.645435927541001 0.73806984016772326 10.881307467402053 0 -1 0 I I #
coedge $-1 $273 $147 $150 $224 reversed $209 $-1 #
coedge $-1 $147 $273 $215 $277 forward $209 $-1 #
vertex $-1 $148 $281 #
straight-curve $-1 75.101168858912928 6.6695647510604363 108.45404610038921 0 0 1 I I #
straight-curve $-1 -41.627970349387141 6.6695647510604363 100.17895299247833 0.77714595512881146 0 -0.62932039886446345 I I #
edge $-1 $275 -3.7172853903895433 $151 6.6695647510604363 $219 $282 forward 7 unknown #
point $-1 75.101168858912928 6.6695647510604363 10.88130746740206 #
point $-1 68.645435927540987 6.6695647510604363 10.881307467402067 #
edge $-1 $283 1 $283 0 $154 $-1 forward 7 unknown #
vertex $-1 $155 $284 #
ellipse-curve $-1 69.409029138504152 -0.74961392140383509 5.2243087158469352 0.62932039886446345 0 0.77714595512881146 0.77714595512881146 0 -0.62932039886446345 1 I I #
point $-1 72.650448348355752 -0.74961392140383509 7.6381122895972222 #
edge $-1 $285 1 $285 0 $158 $-1 forward 7 unknown #
vertex $-1 $159 $286 #
ellipse-curve $-1 69.409029138504152 3.7018932820747246 5.2243087158469352 0.62932039886446345 0 0.77714595512881146 0.77714595512881146 0 -0.62932039886446345 1 I I #
point $-1 72.650448348355752 3.7018932820747246 7.6381122895972222 #
plane-surface $-1 0 0 10.88130746740206 0 0 1 1 0 0 forward_v I I I I #
coedge $-1 $246 $245 $238 $287 forward $163 $-1 #
coedge $-1 $238 $165 $167 $242 reversed $106 $-1 #
coedge $-1 $165 $237 $236 $287 reversed $106 $-1 #
coedge $-1 $173 $168 $165 $240 forward $174 $-1 #
edge $-1 $243 -30.50913092246337 $288 -28.134378456401592 $239 $289 forward 7 unknown #
coedge $-1 $167 $166 $246 $290 reversed $67 $-1 #
edge $-1 $291 0 $243 4.8983197409244958 $237 $292 forward 7 unknown #
vertex $-1 $169 $293 #
straight-curve $-1 -72.726416392851149 5.0242043291593159 10.88130746740206 0 1 0 I I #
coedge $-1 $236 $170 $173 $250 reversed $163 $-1 #
coedge $-1 $170 $236 $241 $290 forward $163 $-1 #
vertex $-1 $171 $294 #
straight-curve $-1 -75.101168858912928 5.6042288096984869 39.708338347843707 0 0 1 I I #
straight-curve $-1 -75.101168858912928 5.6042288096984869 6.5971404527696791 -0.48480960649040278 0 -0.87461971476443456 I I #
edge $-1 $288 -14.492588506938777 $175 -5.6042288096984869 $245 $295 forward 7 unknown #
point $-1 -75.101168858912928 5.6042288096984869 10.88130746740206 #
point $-1 -72.726416392851149 5.6042288096984869 10.88130746740206 #
edge $-1 $296 1 $296 0 $178 $-1 forward 7 unknown #
vertex $-1 $179 $297 #
ellipse-curve $-1 -70.768690347035061 10.048408658318632 6.9958653638409318 -0.87461971476443456 0 0.48480960649040278 0.48480960649040278 0 0.87461971476443456 1 I I #
point $-1 -73.428983019391623 10.048408658318632 9.6138436748502976 #
plane-surface $-1 75.101168858912928 0 0 -1 0 0 0 0 1 forward_v I I I I #
coedge $-1 $187 $185 $189 $262 reversed $121 $-1 #
edge $-1 $200 -10.88130746740206 $264 10.88130746740206 $199 $298 forward 7 unknown #
vertex $-1 $262 $299 #
straight-curve $-1 -75.101168858912928 -30.391827423507532 0 0 0 -1 I I #
edge $-1 $260 -30.391827423507532 $264 30.391827423507532 $258 $300 forward 7 unknown #
straight-curve $-1 0 -30.391827423507532 -10.88130746740206 -1 0 0 I I #
vertex $-1 $192 $301 #
straight-curve $-1 0 30.391827423507532 -10.88130746740206 1 0 0 I I #
point $-1 75.101168858912928 30.391827423507532 -10.88130746740206 #
point $-1 75.101168858912928 -30.391827423507532 -10.88130746740206 #
straight-curve $-1 -75.101168858912928 0 10.88130746740206 0 -1 0 I I #
point $-1 -75.101168858912928 30.391827423507532 10.88130746740206 #
point $-1 -75.101168858912928 -30.391827423507532 10.88130746740206 #
straight-curve $-1 75.101168858912928 -30.391827423507532 0 0 0 -1 I I #
straight-curve $-1 75.101168858912928 30.391827423507532 0 0 0 -1 I I #
coedge $-1 $220 $219 $212 $274 forward $209 $-1 #
edge $-1 $275 97.572738632987154 $278 102.80048819086788 $273 $302 forward 7 unknown #
vertex $-1 $224 $303 #
straight-curve $-1 26.448712366784932 -3.7172853903895433 10.881307467402053 1 0 0 I I #
edge $-1 $278 -4.4553552305572666 $221 5.9314949108927131 $220 $304 forward 7 unknown #
vertex $-1 $277 $305 #
straight-curve $-1 -41.627970349387141 -3.7172853903895433 100.17895299247833 -0.77714595512881146 0 0.62932039886446345 I I #
point $-1 68.645435927540987 -3.7172853903895433 10.881307467402067 #
point $-1 75.101168858912942 6.6695647510604363 5.6535579095213251 #
straight-curve $-1 75.101168858912928 0 10.88130746740206 0 1 0 I I #
vertex $-1 $227 $306 #
point $-1 70.186175093632968 -0.74961392140383509 4.5949883169824721 #
vertex $-1 $231 $307 #
point $-1 70.186175093632968 3.7018932820747246 4.5949883169824721 #
edge $-1 $288 28.827030880441647 $291 33.111197895074028 $236 $308 forward 7 unknown #
vertex $-1 $250 $309 #
straight-curve $-1 -103.23554731531452 14.492588506938777 10.88130746740206 -1 0 0 I I #
edge $-1 $291 -9.4683841777794608 $247 -0.58002448053917099 $246 $310 forward 7 unknown #
vertex $-1 $290 $311 #
straight-curve $-1 -75.101168858912928 14.492588506938777 6.5971404527696791 0.48480960649040278 0 0.87461971476443456 I I #
point $-1 -72.726416392851149 14.492588506938777 10.88130746740206 #
point $-1 -75.101168858912928 5.6042288096984869 6.5971404527696791 #
straight-curve $-1 -75.101168858912928 0 10.88130746740206 0 -1 0 I I #
vertex $-1 $253 $312 #
point $-1 -70.28388074054466 10.048408658318632 7.8704850786053662 #
straight-curve $-1 -75.101168858912928 30.391827423507532 0 0 0 -1 I I #
point $-1 -75.101168858912928 -30.391827423507532 -10.88130746740206 #
straight-curve $-1 -75.101168858912928 0 -10.88130746740206 0 1 0 I I #
point $-1 -75.101168858912928 30.391827423507532 -10.88130746740206 #
straight-curve $-1 75.101168858912928 -3.7172853903895433 108.45404610038921 0 0 -1 I I #
point $-1 75.101168858912928 -3.7172853903895433 10.88130746740206 #
straight-curve $-1 75.101168858912928 0.73806984016772326 5.6535579095213251 0 1 0 I I #
point $-1 75.101168858912942 -3.7172853903895433 5.6535579095213251 #
point $-1 68.779708739639702 -0.74961392140383509 4.4471627607181246 #
point $-1 68.779708739639702 3.7018932820747246 4.4471627607181246 #
straight-curve $-1 -75.101168858912928 14.492588506938777 39.708338347843707 0 0 -1 I I #
point $-1 -75.101168858912928 14.492588506938777 10.88130746740206 #
straight-curve $-1 -75.101168858912928 5.0242043291593159 6.597140452769672 0 -1 0 I I #
point $-1 -75.101168858912928 14.492588506938777 6.5971404527696791 #
point $-1 -69.894070632270626 10.048408658318632 6.5110557573505288 #
End-of-ACIS-data 