500 0 10 0           
7 Unknown 11 ACIS 5.0 NT 24 Thu Mar 25 21:00:46 1999 
-1 9.9999999999999995e-007 1e-010 
body $-1 $10 $-1 $11 #
body $-1 $12 $-1 $13 #
body $-1 $14 $-1 $15 #
body $-1 $16 $-1 $17 #
body $-1 $18 $-1 $19 #
body $-1 $20 $-1 $21 #
body $-1 $22 $-1 $23 #
body $-1 $24 $-1 $25 #
body $-1 $26 $-1 $27 #
body $-1 $28 $-1 $29 #
lump $-1 $-1 $30 $0 #
transform $-1 1 0 0 0 1 0 0 0 1 79.75463118381299 43.925288464668711 11.301776848290322 1 rotate no_reflect no_shear #
lump $-1 $-1 $31 $1 #
transform $-1 1 0 0 0 1 0 0 0 1 79.75463118381299 43.925288464668711 11.301776848290322 1 rotate no_reflect no_shear #
lump $-1 $-1 $32 $2 #
transform $-1 1 0 0 0 1 0 0 0 1 79.75463118381299 43.925288464668711 11.301776848290322 1 rotate no_reflect no_shear #
lump $-1 $-1 $33 $3 #
transform $-1 1 0 0 0 1 0 0 0 1 79.75463118381299 43.925288464668711 11.301776848290322 1 rotate no_reflect no_shear #
lump $-1 $-1 $34 $4 #
transform $-1 1 0 0 0 1 0 0 0 1 79.75463118381299 43.925288464668711 11.301776848290322 1 rotate no_reflect no_shear #
lump $-1 $-1 $35 $5 #
transform $-1 1 0 0 0 1 0 0 0 1 79.75463118381299 43.925288464668711 11.301776848290322 1 rotate no_reflect no_shear #
lump $-1 $-1 $36 $6 #
transform $-1 1 0 0 0 1 0 0 0 1 79.75463118381299 43.925288464668711 11.301776848290322 1 rotate no_reflect no_shear #
lump $-1 $-1 $37 $7 #
transform $-1 1 0 0 0 1 0 0 0 1 79.75463118381299 43.925288464668711 11.301776848290322 1 rotate no_reflect no_shear #
lump $-1 $-1 $38 $8 #
transform $-1 1 0 0 0 1 0 0 0 1 79.75463118381299 43.925288464668711 11.301776848290322 1 rotate no_reflect no_shear #
lump $-1 $-1 $39 $9 #
transform $-1 1 0 0 0 1 0 0 0 1 79.75463118381299 43.925288464668711 11.301776848290322 1 rotate no_reflect no_shear #
shell $-1 $-1 $-1 $40 $-1 $10 #
shell $-1 $-1 $-1 $41 $-1 $12 #
shell $-1 $-1 $-1 $42 $-1 $14 #
shell $-1 $-1 $-1 $43 $-1 $16 #
shell $-1 $-1 $-1 $44 $-1 $18 #
shell $-1 $-1 $-1 $45 $-1 $20 #
shell $-1 $-1 $-1 $46 $-1 $22 #
shell $-1 $-1 $-1 $47 $-1 $24 #
shell $-1 $-1 $-1 $48 $-1 $26 #
shell $-1 $-1 $-1 $49 $-1 $28 #
face $-1 $50 $51 $30 $-1 $52 forward single #
face $-1 $53 $54 $31 $-1 $55 forward single #
face $-1 $56 $57 $32 $-1 $58 reversed single #
face $-1 $59 $60 $33 $-1 $61 forward single #
face $-1 $62 $63 $34 $-1 $64 forward single #
face $-1 $65 $66 $35 $-1 $67 forward single #
face $-1 $68 $69 $36 $-1 $70 reversed single #
face $-1 $71 $72 $37 $-1 $73 forward single #
face $-1 $74 $75 $38 $-1 $76 forward single #
face $-1 $77 $78 $39 $-1 $79 forward single #
face $-1 $80 $81 $30 $-1 $82 reversed single #
loop $-1 $-1 $83 $40 #
plane-surface $-1 0 0 11.301776848290322 0 0 1 1 0 0 forward_v I I I I #
face $-1 $84 $85 $31 $-1 $86 reversed single #
loop $-1 $-1 $87 $41 #
plane-surface $-1 0 -43.925288464668711 0 0 1 0 0 0 1 forward_v I I I I #
face $-1 $88 $89 $32 $-1 $90 reversed single #
loop $-1 $-1 $91 $42 #
plane-surface $-1 -207.14439360384387 11.193950244124121 96.503304541885669 0 1 0 -0.79863551827123203 0 0.60181501223851219 forward_v I I I I #
face $-1 $92 $93 $33 $-1 $94 forward single #
loop $-1 $95 $96 $43 #
cone-surface $-1 -74.322756401434816 14.780749183251189 4.8763172140364652 0.79863551827123203 0 -0.60181501223851219 0.60181501223851219 0 0.79863551827123203 1 I I 0 1 1 forward I I I I #
face $-1 $97 $98 $34 $-1 $99 forward single #
loop $-1 $100 $101 $44 #
cone-surface $-1 -74.322756401434816 20.160947591941792 4.8763172140364652 0.79863551827123203 0 -0.60181501223851219 0.60181501223851219 0 0.79863551827123203 1 I I 0 1 1 forward I I I I #
face $-1 $102 $103 $35 $-1 $104 forward single #
loop $-1 $105 $106 $45 #
cone-surface $-1 -74.322756401434816 25.541146000632395 4.8763172140364652 0.79863551827123203 0 -0.60181501223851219 0.60181501223851219 0 0.79863551827123203 1 I I 0 1 1 forward I I I I #
face $-1 $107 $108 $36 $-1 $109 reversed single #
loop $-1 $-1 $110 $46 #
plane-surface $-1 111.14932491991499 29.127944939759463 223.89306696191653 0 -1 0 -0.79863551827123203 0 -0.60181501223851219 forward_v I I I I #
face $-1 $111 $112 $37 $-1 $113 forward single #
loop $-1 $114 $115 $47 #
cone-surface $-1 74.322756401434816 14.780749183251189 4.8763172140364421 -0.79863551827123203 0 -0.60181501223851219 0.60181501223851219 0 -0.79863551827123203 1 I I 0 1 1 forward I I I I #
face $-1 $116 $117 $38 $-1 $118 forward single #
loop $-1 $119 $120 $48 #
cone-surface $-1 74.322756401434816 20.160947591941792 4.8763172140364421 -0.79863551827123203 0 -0.60181501223851219 0.60181501223851219 0 -0.79863551827123203 1 I I 0 1 1 forward I I I I #
face $-1 $121 $122 $39 $-1 $123 forward single #
loop $-1 $124 $125 $49 #
cone-surface $-1 74.322756401434816 25.541146000632395 4.8763172140364421 -0.79863551827123203 0 -0.60181501223851219 0.60181501223851219 0 -0.79863551827123203 1 I I 0 1 1 forward I I I I #
face $-1 $126 $127 $30 $-1 $128 reversed single #
loop $-1 $-1 $129 $50 #
plane-surface $-1 0 0 -11.301776848290322 0 0 1 1 0 0 forward_v I I I I #
coedge $-1 $130 $131 $132 $133 forward $51 $-1 #
face $-1 $134 $135 $31 $-1 $136 reversed single #
loop $-1 $-1 $137 $53 #
plane-surface $-1 0 0 -11.301776848290322 0 0 1 1 0 0 forward_v I I I I #
coedge $-1 $138 $139 $140 $141 forward $54 $-1 #
face $-1 $142 $143 $32 $-1 $144 reversed single #
loop $-1 $-1 $145 $56 #
plane-surface $-1 -79.754631183812961 20.160947591941792 0.50823585795679094 -0.79863551827123203 0 0.60181501223851219 0.60181501223851219 0 0.79863551827123203 forward_v I I I I #
coedge $-1 $146 $147 $148 $149 reversed $57 $-1 #
face $-1 $-1 $150 $33 $-1 $151 forward single #
loop $-1 $152 $153 $59 #
cone-surface $-1 -72.558322008403707 14.780749183251189 3.5467205688301142 0.79863551827123203 0 -0.60181501223851219 0.3009075061192561 0 0.39931775913561601 1 I I -0.70710678118654779 0.70710678118654713 0.5 forward I I I I #
loop $-1 $-1 $154 $43 #
coedge $-1 $96 $96 $155 $156 reversed $60 $-1 #
face $-1 $-1 $157 $34 $-1 $158 forward single #
loop $-1 $159 $160 $62 #
cone-surface $-1 -72.558322008403707 20.160947591941792 3.5467205688301142 0.79863551827123203 0 -0.60181501223851219 0.3009075061192561 0 0.39931775913561601 1 I I -0.70710678118654779 0.70710678118654713 0.5 forward I I I I #
loop $-1 $-1 $161 $44 #
coedge $-1 $101 $101 $162 $163 reversed $63 $-1 #
face $-1 $-1 $164 $35 $-1 $165 forward single #
loop $-1 $166 $167 $65 #
cone-surface $-1 -72.558322008403707 25.541146000632395 3.5467205688301142 0.79863551827123203 0 -0.60181501223851219 0.3009075061192561 0 0.39931775913561601 1 I I -0.70710678118654779 0.70710678118654713 0.5 forward I I I I #
loop $-1 $-1 $168 $45 #
coedge $-1 $106 $106 $169 $170 reversed $66 $-1 #
face $-1 $171 $172 $36 $-1 $173 reversed single #
loop $-1 $-1 $174 $68 #
plane-surface $-1 -16.240437500115917 20.160947591941792 127.89799827798765 0.79863551827123203 0 0.60181501223851219 0.60181501223851219 0 -0.79863551827123203 forward_v I I I I #
coedge $-1 $175 $176 $177 $178 reversed $69 $-1 #
face $-1 $-1 $179 $37 $-1 $180 forward single #
loop $-1 $181 $182 $71 #
cone-surface $-1 72.558322008403707 14.780749183251189 3.5467205688300911 -0.79863551827123203 0 -0.60181501223851219 0.3009075061192561 0 -0.39931775913561601 1 I I -0.70710678118654779 0.70710678118654713 0.5 forward I I I I #
loop $-1 $-1 $183 $47 #
coedge $-1 $115 $115 $184 $185 reversed $72 $-1 #
face $-1 $-1 $186 $38 $-1 $187 forward single #
loop $-1 $188 $189 $74 #
cone-surface $-1 72.558322008403707 20.160947591941792 3.5467205688300911 -0.79863551827123203 0 -0.60181501223851219 0.3009075061192561 0 -0.39931775913561601 1 I I -0.70710678118654779 0.70710678118654713 0.5 forward I I I I #
loop $-1 $-1 $190 $48 #
coedge $-1 $120 $120 $191 $192 reversed $75 $-1 #
face $-1 $-1 $193 $39 $-1 $194 forward single #
loop $-1 $195 $196 $77 #
cone-surface $-1 72.558322008403707 25.541146000632395 3.5467205688300911 -0.79863551827123203 0 -0.60181501223851219 0.3009075061192561 0 -0.39931775913561601 1 I I -0.70710678118654779 0.70710678118654713 0.5 forward I I I I #
loop $-1 $-1 $197 $49 #
coedge $-1 $125 $125 $198 $199 reversed $78 $-1 #
face $-1 $200 $201 $30 $-1 $202 reversed single #
loop $-1 $-1 $203 $80 #
plane-surface $-1 0 -43.925288464668711 0 0 1 0 0 0 1 forward_v I I I I #
coedge $-1 $204 $205 $206 $207 forward $81 $-1 #
coedge $-1 $208 $83 $209 $210 forward $51 $-1 #
coedge $-1 $83 $208 $211 $212 forward $51 $-1 #
coedge $-1 $213 $214 $83 $133 reversed $215 $-1 #
edge $-1 $216 -43.925288464668711 $217 43.925288464668711 $132 $218 forward 7 unknown #
face $-1 $219 $220 $31 $-1 $221 forward single #
loop $-1 $-1 $222 $84 #
plane-surface $-1 79.75463118381299 0 0 -1 0 0 0 0 1 forward_v I I I I #
coedge $-1 $223 $224 $225 $226 forward $85 $-1 #
coedge $-1 $225 $87 $222 $227 reversed $54 $-1 #
coedge $-1 $87 $225 $228 $229 reversed $54 $-1 #
coedge $-1 $230 $231 $87 $141 reversed $220 $-1 #
edge $-1 $232 -79.75463118381299 $233 79.75463118381299 $140 $234 forward 7 unknown #
face $-1 $235 $236 $32 $-1 $237 forward single #
loop $-1 $-1 $238 $88 #
plane-surface $-1 -207.14439360384387 29.127944939759463 96.503304541885669 0 -1 0 0.79863551827123203 0 -0.60181501223851219 forward_v I I I I #
coedge $-1 $239 $240 $241 $242 reversed $89 $-1 #
coedge $-1 $147 $91 $243 $244 reversed $57 $-1 #
coedge $-1 $91 $146 $239 $245 reversed $57 $-1 #
coedge $-1 $241 $246 $91 $149 forward $236 $-1 #
edge $-1 $247 23.817565618108944 $248 31.951081915074354 $148 $249 forward 7 unknown #
loop $-1 $-1 $155 $92 #
plane-surface $-1 -79.754631183812961 20.160947591941792 0.50823585795679094 -0.79863551827123203 0 0.60181501223851219 0.60181501223851219 0 0.79863551827123203 forward_v I I I I #
loop $-1 $-1 $250 $59 #
coedge $-1 $153 $153 $154 $251 reversed $93 $-1 #
coedge $-1 $154 $154 $153 $251 forward $95 $-1 #
coedge $-1 $155 $155 $96 $156 forward $150 $-1 #
edge $-1 $252 0 $252 6.2831853071796004 $155 $253 forward 7 unknown #
loop $-1 $-1 $162 $97 #
plane-surface $-1 -79.754631183812961 20.160947591941792 0.50823585795679094 -0.79863551827123203 0 0.60181501223851219 0.60181501223851219 0 0.79863551827123203 forward_v I I I I #
loop $-1 $-1 $254 $62 #
coedge $-1 $160 $160 $161 $255 reversed $98 $-1 #
coedge $-1 $161 $161 $160 $255 forward $100 $-1 #
coedge $-1 $162 $162 $101 $163 forward $157 $-1 #
edge $-1 $256 0 $256 6.2831853071796004 $162 $257 forward 7 unknown #
loop $-1 $-1 $169 $102 #
plane-surface $-1 -79.754631183812961 20.160947591941792 0.50823585795679094 -0.79863551827123203 0 0.60181501223851219 0.60181501223851219 0 0.79863551827123203 forward_v I I I I #
loop $-1 $-1 $258 $65 #
coedge $-1 $167 $167 $168 $259 reversed $103 $-1 #
coedge $-1 $168 $168 $167 $259 forward $105 $-1 #
coedge $-1 $169 $169 $106 $170 forward $164 $-1 #
edge $-1 $260 0 $260 6.2831853071796004 $169 $261 forward 7 unknown #
face $-1 $262 $263 $36 $-1 $264 reversed single #
loop $-1 $-1 $265 $107 #
plane-surface $-1 111.14932491991499 11.193950244124121 223.89306696191653 0 1 0 0.79863551827123203 0 0.60181501223851219 forward_v I I I I #
coedge $-1 $266 $267 $268 $269 reversed $108 $-1 #
coedge $-1 $176 $110 $270 $271 reversed $69 $-1 #
coedge $-1 $110 $175 $266 $272 reversed $69 $-1 #
coedge $-1 $268 $273 $110 $178 forward $274 $-1 #
edge $-1 $275 -24.179968723855495 $276 -16.04645242689007 $177 $277 forward 7 unknown #
loop $-1 $-1 $184 $111 #
plane-surface $-1 -16.240437500115917 20.160947591941792 127.89799827798765 0.79863551827123203 0 0.60181501223851219 0.60181501223851219 0 -0.79863551827123203 forward_v I I I I #
loop $-1 $-1 $278 $71 #
coedge $-1 $182 $182 $183 $279 reversed $112 $-1 #
coedge $-1 $183 $183 $182 $279 forward $114 $-1 #
coedge $-1 $184 $184 $115 $185 forward $179 $-1 #
edge $-1 $280 0 $280 6.2831853071796004 $184 $281 forward 7 unknown #
loop $-1 $-1 $191 $116 #
plane-surface $-1 -16.240437500115917 20.160947591941792 127.89799827798765 0.79863551827123203 0 0.60181501223851219 0.60181501223851219 0 -0.79863551827123203 forward_v I I I I #
loop $-1 $-1 $282 $74 #
coedge $-1 $189 $189 $190 $283 reversed $117 $-1 #
coedge $-1 $190 $190 $189 $283 forward $119 $-1 #
coedge $-1 $191 $191 $120 $192 forward $186 $-1 #
edge $-1 $284 0 $284 6.2831853071796004 $191 $285 forward 7 unknown #
loop $-1 $-1 $198 $121 #
plane-surface $-1 -16.240437500115917 20.160947591941792 127.89799827798765 0.79863551827123203 0 0.60181501223851219 0.60181501223851219 0 -0.79863551827123203 forward_v I I I I #
loop $-1 $-1 $286 $77 #
coedge $-1 $196 $196 $197 $287 reversed $122 $-1 #
coedge $-1 $197 $197 $196 $287 forward $124 $-1 #
coedge $-1 $198 $198 $125 $199 forward $193 $-1 #
edge $-1 $288 0 $288 6.2831853071796004 $198 $289 forward 7 unknown #
face $-1 $290 $291 $30 $-1 $292 reversed single #
loop $-1 $-1 $293 $126 #
plane-surface $-1 -79.75463118381299 0 0 1 0 0 0 0 -1 forward_v I I I I #
coedge $-1 $211 $294 $213 $295 reversed $127 $-1 #
coedge $-1 $296 $129 $294 $297 forward $81 $-1 #
coedge $-1 $129 $296 $298 $299 forward $81 $-1 #
coedge $-1 $214 $213 $129 $207 reversed $215 $-1 #
edge $-1 $300 -43.925288464668711 $301 43.925288464668711 $206 $302 forward 7 unknown #
coedge $-1 $131 $130 $303 $304 forward $51 $-1 #
coedge $-1 $305 $306 $130 $210 reversed $291 $-1 #
edge $-1 $217 -79.75463118381299 $307 79.75463118381299 $209 $308 forward 7 unknown #
coedge $-1 $309 $203 $131 $212 reversed $127 $-1 #
edge $-1 $310 -79.75463118381299 $216 79.75463118381299 $211 $311 forward 7 unknown #
coedge $-1 $206 $132 $203 $295 forward $215 $-1 #
coedge $-1 $132 $206 $305 $312 reversed $215 $-1 #
loop $-1 $-1 $213 $290 #
vertex $-1 $133 $313 #
vertex $-1 $133 $314 #
straight-curve $-1 79.75463118381299 0 11.301776848290322 0 1 0 I I #
face $-1 $315 $316 $31 $-1 $317 reversed single #
loop $-1 $-1 $231 $134 #
plane-surface $-1 0 -49.288781260862905 -5.1140997248747295 0 0 1 1 0 0 forward_v I I I I #
coedge $-1 $318 $319 $138 $227 forward $135 $-1 #
coedge $-1 $320 $137 $319 $321 forward $85 $-1 #
coedge $-1 $137 $320 $322 $323 forward $85 $-1 #
coedge $-1 $139 $138 $137 $226 reversed $54 $-1 #
edge $-1 $324 -79.75463118381299 $325 79.75463118381299 $137 $326 forward 7 unknown #
edge $-1 $325 -11.301776848290322 $233 -5.1140997248747295 $222 $327 forward 7 unknown #
coedge $-1 $322 $328 $139 $229 forward $329 $-1 #
edge $-1 $232 5.1140997248747295 $324 11.301776848290322 $228 $330 forward 7 unknown #
coedge $-1 $331 $140 $328 $332 forward $220 $-1 #
coedge $-1 $140 $331 $318 $333 forward $220 $-1 #
vertex $-1 $229 $334 #
vertex $-1 $333 $335 #
straight-curve $-1 0 -43.925288464668711 -5.1140997248747295 1 0 0 I I #
face $-1 $-1 $336 $32 $-1 $337 reversed single #
loop $-1 $-1 $148 $142 #
plane-surface $-1 0 0 11.301776848290322 0 0 1 1 0 0 forward_v I I I I #
coedge $-1 $338 $339 $340 $341 reversed $143 $-1 #
coedge $-1 $342 $145 $147 $245 forward $89 $-1 #
coedge $-1 $145 $342 $338 $343 forward $89 $-1 #
coedge $-1 $340 $148 $145 $242 forward $236 $-1 #
edge $-1 $248 1.1134764481532251 $344 19.047471143788567 $241 $345 forward 7 unknown #
coedge $-1 $346 $347 $146 $244 forward $336 $-1 #
edge $-1 $348 -47.743416412986079 $247 -36.949875422652511 $243 $349 forward 7 unknown #
edge $-1 $248 -13.514977412597165 $348 4.7251171791415696e-014 $147 $350 forward 7 unknown #
coedge $-1 $148 $340 $346 $351 forward $236 $-1 #
vertex $-1 $244 $352 #
vertex $-1 $149 $353 #
straight-curve $-1 -103.57219680192193 11.193950244124121 11.301776848290324 1 0 0 I I #
coedge $-1 $250 $250 $-1 $354 reversed $152 $-1 #
edge $-1 $355 0 $355 6.2831853071796004 $153 $356 forward 7 unknown #
vertex $-1 $156 $357 #
ellipse-curve $-1 -75.687873035330284 14.780749183251189 5.9050063531235431 -0.79863551827123203 0 0.60181501223851219 0.60181501223851219 0 0.79863551827123203 1 I I #
coedge $-1 $254 $254 $-1 $358 reversed $159 $-1 #
edge $-1 $359 0 $359 6.2831853071796004 $160 $360 forward 7 unknown #
vertex $-1 $163 $361 #
ellipse-curve $-1 -75.687873035330284 20.160947591941792 5.9050063531235431 -0.79863551827123203 0 0.60181501223851219 0.60181501223851219 0 0.79863551827123203 1 I I #
coedge $-1 $258 $258 $-1 $362 reversed $166 $-1 #
edge $-1 $363 0 $363 6.2831853071796004 $167 $364 forward 7 unknown #
vertex $-1 $170 $365 #
ellipse-curve $-1 -75.687873035330284 25.541146000632395 5.9050063531235431 -0.79863551827123203 0 0.60181501223851219 0.60181501223851219 0 0.79863551827123203 1 I I #
face $-1 $-1 $274 $36 $-1 $366 forward single #
loop $-1 $-1 $367 $171 #
plane-surface $-1 79.75463118381299 0 0 -1 0 0 0 0 1 forward_v I I I I #
coedge $-1 $368 $369 $370 $371 reversed $172 $-1 #
coedge $-1 $372 $174 $176 $272 forward $108 $-1 #
coedge $-1 $174 $372 $368 $373 forward $108 $-1 #
coedge $-1 $370 $177 $174 $269 forward $274 $-1 #
edge $-1 $276 -19.047471143788567 $374 -1.1134764481532251 $268 $375 forward 7 unknown #
coedge $-1 $376 $377 $175 $271 forward $263 $-1 #
edge $-1 $378 -111.43829762300153 $275 -100.64475663266795 $270 $379 forward 7 unknown #
edge $-1 $276 145.99428495502877 $378 159.50926236762598 $176 $380 forward 7 unknown #
coedge $-1 $177 $370 $376 $381 forward $274 $-1 #
loop $-1 $-1 $370 $262 #
vertex $-1 $271 $382 #
vertex $-1 $178 $383 #
straight-curve $-1 55.574662459957494 29.127944939759463 11.301776848290316 -1 0 0 I I #
coedge $-1 $278 $278 $-1 $384 reversed $181 $-1 #
edge $-1 $385 0 $385 6.2831853071796004 $182 $386 forward 7 unknown #
vertex $-1 $185 $387 #
ellipse-curve $-1 75.68787303533027 14.780749183251189 5.9050063531235164 0.79863551827123203 0 0.60181501223851219 0.60181501223851219 0 -0.79863551827123203 1 I I #
coedge $-1 $282 $282 $-1 $388 reversed $188 $-1 #
edge $-1 $389 0 $389 6.2831853071796004 $189 $390 forward 7 unknown #
vertex $-1 $192 $391 #
ellipse-curve $-1 75.68787303533027 20.160947591941792 5.9050063531235164 0.79863551827123203 0 0.60181501223851219 0.60181501223851219 0 -0.79863551827123203 1 I I #
coedge $-1 $286 $286 $-1 $392 reversed $195 $-1 #
edge $-1 $393 0 $393 6.2831853071796004 $196 $394 forward 7 unknown #
vertex $-1 $199 $395 #
ellipse-curve $-1 75.68787303533027 25.541146000632395 5.9050063531235164 0.79863551827123203 0 0.60181501223851219 0.60181501223851219 0 -0.79863551827123203 1 I I #
face $-1 $-1 $215 $30 $-1 $396 reversed single #
loop $-1 $-1 $305 $200 #
plane-surface $-1 0 43.925288464668711 0 0 -1 0 0 0 -1 forward_v I I I I #
coedge $-1 $397 $303 $306 $398 forward $201 $-1 #
coedge $-1 $203 $309 $204 $297 reversed $127 $-1 #
edge $-1 $216 -11.301776848290322 $301 11.301776848290322 $213 $399 forward 7 unknown #
coedge $-1 $205 $204 $397 $400 forward $81 $-1 #
edge $-1 $301 -79.75463118381299 $401 79.75463118381299 $294 $402 forward 7 unknown #
coedge $-1 $306 $305 $205 $299 reversed $291 $-1 #
edge $-1 $403 -79.75463118381299 $300 79.75463118381299 $298 $404 forward 7 unknown #
vertex $-1 $207 $405 #
vertex $-1 $295 $406 #
straight-curve $-1 79.75463118381299 0 -11.301776848290322 0 -1 0 I I #
coedge $-1 $293 $407 $208 $304 reversed $201 $-1 #
edge $-1 $307 -43.925288464668711 $310 43.925288464668711 $303 $408 forward 7 unknown #
coedge $-1 $298 $209 $214 $312 forward $291 $-1 #
coedge $-1 $209 $298 $293 $398 reversed $291 $-1 #
vertex $-1 $210 $409 #
straight-curve $-1 0 43.925288464668711 11.301776848290322 -1 0 0 I I #
coedge $-1 $294 $211 $407 $410 forward $127 $-1 #
vertex $-1 $304 $411 #
straight-curve $-1 0 -43.925288464668711 11.301776848290322 1 0 0 I I #
edge $-1 $217 -11.301776848290322 $300 11.301776848290322 $214 $412 forward 7 unknown #
point $-1 79.75463118381299 -43.925288464668711 11.301776848290322 #
point $-1 79.75463118381299 43.925288464668711 11.301776848290322 #
face $-1 $-1 $329 $31 $-1 $413 reversed single #
loop $-1 $-1 $414 $219 #
plane-surface $-1 0 -54.652274057057099 -8.2079382865825252 0 1 0 0 0 1 forward_v I I I I #
coedge $-1 $415 $222 $231 $333 reversed $135 $-1 #
coedge $-1 $222 $415 $223 $321 reversed $135 $-1 #
coedge $-1 $224 $223 $416 $417 forward $85 $-1 #
edge $-1 $325 43.925288464668711 $418 54.652274057057099 $319 $419 forward 7 unknown #
coedge $-1 $420 $228 $224 $323 reversed $329 $-1 #
edge $-1 $421 -54.652274057057099 $324 -43.925288464668711 $322 $422 forward 7 unknown #
vertex $-1 $229 $423 #
vertex $-1 $321 $424 #
straight-curve $-1 0 -43.925288464668711 -11.301776848290322 1 0 0 I I #
straight-curve $-1 79.75463118381299 -43.925288464668711 0 0 0 1 I I #
coedge $-1 $228 $420 $230 $332 reversed $329 $-1 #
loop $-1 $-1 $228 $315 #
straight-curve $-1 -79.75463118381299 -43.925288464668711 0 0 0 -1 I I #
coedge $-1 $231 $230 $425 $426 forward $220 $-1 #
edge $-1 $232 -5.3634927961941941 $427 5.3634927961941941 $328 $428 forward 7 unknown #
edge $-1 $429 -5.3634927961941941 $233 5.3634927961941941 $318 $430 forward 7 unknown #
point $-1 -79.75463118381299 -43.925288464668711 -5.1140997248747295 #
point $-1 79.75463118381299 -43.925288464668711 -5.1140997248747295 #
loop $-1 $-1 $243 $235 #
plane-surface $-1 -79.75463118381299 0 0 1 0 0 0 0 -1 forward_v I I I I #
coedge $-1 $339 $238 $240 $343 reversed $143 $-1 #
coedge $-1 $238 $338 $431 $432 reversed $143 $-1 #
coedge $-1 $246 $241 $238 $341 forward $236 $-1 #
edge $-1 $344 -31.951081915074354 $433 -23.817565618108944 $340 $434 forward 7 unknown #
coedge $-1 $240 $239 $347 $435 reversed $89 $-1 #
edge $-1 $436 -4.7251171791415696e-014 $344 13.514977412597165 $338 $437 forward 7 unknown #
vertex $-1 $242 $438 #
straight-curve $-1 -71.621114886847579 10.080473795970896 11.301776848290322 0 1 0 I I #
coedge $-1 $431 $243 $246 $351 reversed $336 $-1 #
coedge $-1 $243 $431 $342 $435 forward $336 $-1 #
vertex $-1 $244 $439 #
straight-curve $-1 -79.75463118381299 11.193950244124121 48.251652270942834 0 0 1 I I #
straight-curve $-1 -79.754631183812961 11.193950244124121 0.50823585795679094 -0.60181501223851219 0 -0.79863551827123203 I I #
edge $-1 $433 -29.127944939759463 $247 -11.193950244124121 $346 $440 forward 7 unknown #
point $-1 -79.75463118381299 11.193950244124121 11.301776848290322 #
point $-1 -71.621114886847579 11.193950244124121 11.301776848290322 #
edge $-1 $441 1 $441 0 $250 $-1 forward 7 unknown #
vertex $-1 $251 $442 #
ellipse-curve $-1 -72.95763976753932 14.780749183251189 3.8476280749493701 -0.79863551827123203 0 0.60181501223851219 0.60181501223851219 0 0.79863551827123203 1 I I #
point $-1 -75.08605802309178 14.780749183251189 6.7036418713947921 #
edge $-1 $443 1 $443 0 $254 $-1 forward 7 unknown #
vertex $-1 $255 $444 #
ellipse-curve $-1 -72.95763976753932 20.160947591941792 3.8476280749493701 -0.79863551827123203 0 0.60181501223851219 0.60181501223851219 0 0.79863551827123203 1 I I #
point $-1 -75.08605802309178 20.160947591941792 6.7036418713947921 #
edge $-1 $445 1 $445 0 $258 $-1 forward 7 unknown #
vertex $-1 $259 $446 #
ellipse-curve $-1 -72.95763976753932 25.541146000632395 3.8476280749493701 -0.79863551827123203 0 0.60181501223851219 0.60181501223851219 0 0.79863551827123203 1 I I #
point $-1 -75.08605802309178 25.541146000632395 6.7036418713947921 #
plane-surface $-1 0 0 11.301776848290322 0 0 1 1 0 0 forward_v I I I I #
coedge $-1 $377 $376 $369 $447 forward $263 $-1 #
coedge $-1 $369 $265 $267 $373 reversed $172 $-1 #
coedge $-1 $265 $368 $367 $447 reversed $172 $-1 #
coedge $-1 $273 $268 $265 $371 forward $274 $-1 #
edge $-1 $374 16.04645242689007 $448 24.179968723855495 $370 $449 forward 7 unknown #
coedge $-1 $267 $266 $377 $450 reversed $108 $-1 #
edge $-1 $451 -159.50926236762598 $374 -145.99428495502877 $368 $452 forward 7 unknown #
vertex $-1 $269 $453 #
straight-curve $-1 71.621114886847565 10.080473795970896 11.301776848290316 0 -1 0 I I #
coedge $-1 $367 $270 $273 $381 reversed $263 $-1 #
coedge $-1 $270 $367 $372 $450 forward $263 $-1 #
vertex $-1 $271 $454 #
straight-curve $-1 79.75463118381299 29.127944939759463 111.94653348095827 0 0 1 I I #
straight-curve $-1 -16.240437500115917 29.127944939759463 127.89799827798765 0.60181501223851219 0 -0.79863551827123203 I I #
edge $-1 $448 11.193950244124121 $275 29.127944939759463 $376 $455 forward 7 unknown #
point $-1 79.75463118381299 29.127944939759463 11.301776848290322 #
point $-1 71.621114886847565 29.127944939759463 11.301776848290316 #
edge $-1 $456 1 $456 0 $278 $-1 forward 7 unknown #
vertex $-1 $279 $457 #
ellipse-curve $-1 72.95763976753932 14.780749183251189 3.847628074949347 0.79863551827123203 0 0.60181501223851219 0.60181501223851219 0 -0.79863551827123203 1 I I #
point $-1 76.289688047568816 14.780749183251189 5.1063708348523047 #
edge $-1 $458 1 $458 0 $282 $-1 forward 7 unknown #
vertex $-1 $283 $459 #
ellipse-curve $-1 72.95763976753932 20.160947591941792 3.847628074949347 0.79863551827123203 0 0.60181501223851219 0.60181501223851219 0 -0.79863551827123203 1 I I #
point $-1 76.289688047568816 20.160947591941792 5.1063708348523047 #
edge $-1 $460 1 $460 0 $286 $-1 forward 7 unknown #
vertex $-1 $287 $461 #
ellipse-curve $-1 72.95763976753932 25.541146000632395 3.847628074949347 0.79863551827123203 0 0.60181501223851219 0.60181501223851219 0 -0.79863551827123203 1 I I #
point $-1 76.289688047568816 25.541146000632395 5.1063708348523047 #
plane-surface $-1 79.75463118381299 0 0 -1 0 0 0 0 1 forward_v I I I I #
coedge $-1 $407 $293 $296 $400 reversed $201 $-1 #
edge $-1 $307 -11.301776848290322 $403 11.301776848290322 $306 $462 forward 7 unknown #
straight-curve $-1 79.75463118381299 -43.925288464668711 0 0 0 -1 I I #
edge $-1 $401 -43.925288464668711 $403 43.925288464668711 $397 $463 forward 7 unknown #
vertex $-1 $400 $464 #
straight-curve $-1 0 -43.925288464668711 -11.301776848290322 -1 0 0 I I #
vertex $-1 $299 $465 #
straight-curve $-1 0 43.925288464668711 -11.301776848290322 1 0 0 I I #
point $-1 79.75463118381299 43.925288464668711 -11.301776848290322 #
point $-1 79.75463118381299 -43.925288464668711 -11.301776848290322 #
coedge $-1 $303 $397 $309 $410 reversed $201 $-1 #
straight-curve $-1 -79.75463118381299 0 11.301776848290322 0 -1 0 I I #
point $-1 -79.75463118381299 43.925288464668711 11.301776848290322 #
edge $-1 $310 -11.301776848290322 $401 11.301776848290322 $407 $466 forward 7 unknown #
point $-1 -79.75463118381299 -43.925288464668711 11.301776848290322 #
straight-curve $-1 79.75463118381299 43.925288464668711 0 0 0 -1 I I #
plane-surface $-1 -79.75463118381299 0 0 1 0 0 0 0 -1 forward_v I I I I #
coedge $-1 $416 $425 $420 $467 forward $316 $-1 #
coedge $-1 $319 $318 $468 $469 forward $135 $-1 #
coedge $-1 $468 $414 $320 $417 reversed $316 $-1 #
edge $-1 $418 -79.75463118381299 $421 79.75463118381299 $416 $470 forward 7 unknown #
vertex $-1 $469 $471 #
straight-curve $-1 79.75463118381299 0 -11.301776848290322 0 -1 0 I I #
coedge $-1 $328 $322 $414 $467 reversed $329 $-1 #
vertex $-1 $323 $472 #
straight-curve $-1 -79.75463118381299 0 -11.301776848290322 0 1 0 I I #
point $-1 -79.75463118381299 -43.925288464668711 -11.301776848290322 #
point $-1 79.75463118381299 -43.925288464668711 -11.301776848290322 #
coedge $-1 $414 $468 $331 $426 reversed $316 $-1 #
edge $-1 $427 -79.75463118381299 $429 79.75463118381299 $425 $473 forward 7 unknown #
vertex $-1 $332 $474 #
straight-curve $-1 -79.75463118381299 -49.288781260862905 -5.1140997248747295 0 -1 0 I I #
vertex $-1 $333 $475 #
straight-curve $-1 79.75463118381299 -49.288781260862905 -5.1140997248747295 0 1 0 I I #
coedge $-1 $347 $346 $339 $432 forward $336 $-1 #
edge $-1 $433 36.949875422652511 $436 47.743416412986079 $431 $476 forward 7 unknown #
vertex $-1 $351 $477 #
straight-curve $-1 -103.57219680192193 29.127944939759463 11.301776848290324 -1 0 0 I I #
edge $-1 $436 -19.047471143788567 $348 -1.1134764481532251 $347 $478 forward 7 unknown #
vertex $-1 $435 $479 #
straight-curve $-1 -79.754631183812961 29.127944939759463 0.50823585795679094 0.60181501223851219 0 0.79863551827123203 I I #
point $-1 -71.621114886847579 29.127944939759463 11.301776848290322 #
point $-1 -79.75463118381299 11.193950244124121 0.50823585795675319 #
straight-curve $-1 -79.75463118381299 0 11.301776848290322 0 -1 0 I I #
vertex $-1 $354 $480 #
point $-1 -72.355824755300816 14.780749183251189 4.6462635932206018 #
vertex $-1 $358 $481 #
point $-1 -72.355824755300816 20.160947591941792 4.6462635932206018 #
vertex $-1 $362 $482 #
point $-1 -72.355824755300816 25.541146000632395 4.6462635932206018 #
edge $-1 $448 100.64475663266795 $451 111.43829762300153 $367 $483 forward 7 unknown #
vertex $-1 $381 $484 #
straight-curve $-1 55.574662459957494 11.193950244124121 11.301776848290316 1 0 0 I I #
edge $-1 $451 1.1134764481532251 $378 19.047471143788567 $377 $485 forward 7 unknown #
vertex $-1 $450 $486 #
straight-curve $-1 -16.240437500115917 11.193950244124121 127.89799827798765 -0.60181501223851219 0 0.79863551827123203 I I #
point $-1 71.621114886847565 11.193950244124121 11.301776848290316 #
point $-1 79.754631183812975 29.127944939759463 0.50823585795673409 #
straight-curve $-1 79.75463118381299 0 11.301776848290322 0 1 0 I I #
vertex $-1 $384 $487 #
point $-1 73.559454779777838 14.780749183251189 3.0489925566781149 #
vertex $-1 $388 $488 #
point $-1 73.559454779777838 20.160947591941792 3.0489925566781149 #
vertex $-1 $392 $489 #
point $-1 73.559454779777838 25.541146000632395 3.0489925566781149 #
straight-curve $-1 -79.75463118381299 43.925288464668711 0 0 0 -1 I I #
straight-curve $-1 -79.75463118381299 0 -11.301776848290322 0 1 0 I I #
point $-1 -79.75463118381299 -43.925288464668711 -11.301776848290322 #
point $-1 -79.75463118381299 43.925288464668711 -11.301776848290322 #
straight-curve $-1 -79.75463118381299 -43.925288464668711 0 0 0 -1 I I #
edge $-1 $427 -3.0938385617077957 $421 3.0938385617077948 $420 $490 forward 7 unknown #
coedge $-1 $425 $416 $415 $469 reversed $316 $-1 #
edge $-1 $429 -3.0938385617077957 $418 3.0938385617077948 $415 $491 forward 7 unknown #
straight-curve $-1 0 -54.652274057057099 -11.30177684829032 -1 0 0 I I #
point $-1 79.75463118381299 -54.652274057057099 -11.30177684829032 #
point $-1 -79.75463118381299 -54.652274057057099 -11.30177684829032 #
straight-curve $-1 0 -54.652274057057099 -5.1140997248747295 1 0 0 I I #
point $-1 -79.75463118381299 -54.652274057057099 -5.1140997248747295 #
point $-1 79.75463118381299 -54.652274057057099 -5.1140997248747295 #
straight-curve $-1 -79.75463118381299 29.127944939759463 48.251652270942834 0 0 -1 I I #
point $-1 -79.75463118381299 29.127944939759463 11.301776848290322 #
straight-curve $-1 -79.75463118381299 10.080473795970896 0.50823585795674942 0 -1 0 I I #
point $-1 -79.75463118381299 29.127944939759463 0.50823585795675319 #
point $-1 -72.159004249268094 14.780749183251189 3.2458130627108583 #
point $-1 -72.159004249268094 20.160947591941792 3.2458130627108583 #
point $-1 -72.159004249268094 25.541146000632395 3.2458130627108583 #
straight-curve $-1 79.75463118381299 11.193950244124121 111.94653348095827 0 0 -1 I I #
point $-1 79.75463118381299 11.193950244124121 11.301776848290322 #
straight-curve $-1 79.75463118381299 10.080473795970896 0.50823585795672699 0 1 0 I I #
point $-1 79.754631183812975 11.193950244124121 0.50823585795673409 #
point $-1 72.159004249268094 14.780749183251189 3.2458130627108353 #
point $-1 72.159004249268094 20.160947591941792 3.2458130627108353 #
point $-1 72.159004249268094 25.541146000632395 3.2458130627108353 #
straight-curve $-1 -79.75463118381299 -54.652274057057099 -8.2079382865825252 0 0 -1 I I #
straight-curve $-1 79.75463118381299 -54.652274057057099 -8.2079382865825252 0 0 -1 I I #
End-of-ACIS-data 