500 0 9 0           
7 Unknown 11 ACIS 5.0 NT 24 Thu Mar 25 23:56:12 1999 
-1 9.9999999999999995e-007 1e-010 
body $-1 $9 $-1 $10 #
body $-1 $11 $-1 $12 #
body $-1 $13 $-1 $14 #
body $-1 $15 $-1 $16 #
body $-1 $17 $-1 $18 #
body $-1 $19 $-1 $20 #
body $-1 $21 $-1 $22 #
body $-1 $23 $-1 $24 #
body $-1 $25 $-1 $26 #
lump $-1 $-1 $27 $0 #
transform $-1 1 0 0 0 1 0 0 0 1 58.231757560960723 36.287020115054439 12.332514829104566 1 rotate no_reflect no_shear #
lump $-1 $-1 $28 $1 #
transform $-1 1 0 0 0 1 0 0 0 1 58.231757560960723 36.287020115054439 12.332514829104566 1 rotate no_reflect no_shear #
lump $-1 $-1 $29 $2 #
transform $-1 1 0 0 0 1 0 0 0 1 58.231757560960723 36.287020115054439 12.332514829104566 1 rotate no_reflect no_shear #
lump $-1 $-1 $30 $3 #
transform $-1 1 0 0 0 1 0 0 0 1 58.231757560960723 36.287020115054439 12.332514829104566 1 rotate no_reflect no_shear #
lump $-1 $-1 $31 $4 #
transform $-1 1 0 0 0 1 0 0 0 1 58.231757560960723 36.287020115054439 12.332514829104566 1 rotate no_reflect no_shear #
lump $-1 $-1 $32 $5 #
transform $-1 1 0 0 0 1 0 0 0 1 58.231757560960723 36.287020115054439 12.332514829104566 1 rotate no_reflect no_shear #
lump $-1 $-1 $33 $6 #
transform $-1 1 0 0 0 1 0 0 0 1 58.231757560960723 36.287020115054439 12.332514829104566 1 rotate no_reflect no_shear #
lump $-1 $-1 $34 $7 #
transform $-1 1 0 0 0 1 0 0 0 1 58.231757560960723 36.287020115054439 12.332514829104566 1 rotate no_reflect no_shear #
lump $-1 $-1 $35 $8 #
transform $-1 1 0 0 0 1 0 0 0 1 58.231757560960723 36.287020115054439 12.332514829104566 1 rotate no_reflect no_shear #
shell $-1 $-1 $-1 $36 $-1 $9 #
shell $-1 $-1 $-1 $37 $-1 $11 #
shell $-1 $-1 $-1 $38 $-1 $13 #
shell $-1 $-1 $-1 $39 $-1 $15 #
shell $-1 $-1 $-1 $40 $-1 $17 #
shell $-1 $-1 $-1 $41 $-1 $19 #
shell $-1 $-1 $-1 $42 $-1 $21 #
shell $-1 $-1 $-1 $43 $-1 $23 #
shell $-1 $-1 $-1 $44 $-1 $25 #
face $-1 $45 $46 $27 $-1 $47 forward single #
face $-1 $48 $49 $28 $-1 $50 forward single #
face $-1 $51 $52 $29 $-1 $53 reversed single #
face $-1 $54 $55 $30 $-1 $56 forward single #
face $-1 $57 $58 $31 $-1 $59 forward single #
face $-1 $60 $61 $32 $-1 $62 forward single #
face $-1 $63 $64 $33 $-1 $65 reversed single #
face $-1 $66 $67 $34 $-1 $68 forward single #
face $-1 $69 $70 $35 $-1 $71 forward single #
face $-1 $72 $73 $27 $-1 $74 reversed single #
loop $-1 $-1 $75 $36 #
plane-surface $-1 0 0 12.332514829104566 0 0 1 1 0 0 forward_v I I I I #
face $-1 $76 $77 $28 $-1 $78 reversed single #
loop $-1 $-1 $79 $37 #
plane-surface $-1 -58.231757560960723 0 0 1 0 0 0 0 -1 forward_v I I I I #
face $-1 $80 $81 $29 $-1 $82 reversed single #
loop $-1 $-1 $83 $38 #
plane-surface $-1 46.128739896581116 -36.287020115054432 5.8435379115798938 0 -0.84804810408105047 0.52991925155115449 1 0 0 forward_v I I I I #
face $-1 $84 $85 $30 $-1 $86 forward single #
loop $-1 $87 $88 $39 #
cone-surface $-1 38.866929297953327 -33.001956553132963 8.302139317224686 0 0.84804810408105047 -0.52991925155115449 1 0 0 1 I I 0 1 1 forward I I I I #
face $-1 $89 $90 $31 $-1 $91 forward single #
loop $-1 $92 $93 $40 #
cone-surface $-1 46.128739896581102 -33.001956553132963 8.302139317224686 0 0.84804810408105047 -0.52991925155115449 1 0 0 1 I I 0 1 1 forward I I I I #
face $-1 $94 $95 $32 $-1 $96 forward single #
loop $-1 $97 $98 $41 #
cone-surface $-1 53.390550495208878 -33.001956553132963 8.302139317224686 0 0.84804810408105047 -0.52991925155115449 1 0 0 1 I I 0 1 1 forward I I I I #
face $-1 $99 $100 $33 $-1 $101 reversed single #
loop $-1 $-1 $102 $42 #
plane-surface $-1 15.185113981345545 36.457004843155239 140.79234515974102 1 0 0 0 -0.52991927123019833 -0.84804809178421925 forward_v I I I I #
face $-1 $103 $104 $34 $-1 $105 forward single #
loop $-1 $106 $107 $43 #
cone-surface $-1 24.261265925831744 26.154853273062926 2.9592171768260487 0 -0.52991927123019833 -0.84804809178421925 3 0 0 1 I I 0 1 3 forward I I I I #
face $-1 $108 $109 $35 $-1 $110 forward single #
loop $-1 $111 $112 $44 #
cone-surface $-1 37.875493842561035 26.154853273062926 2.9592171768260487 0 -0.52991927123019833 -0.84804809178421925 3 0 0 1 I I 0 1 3 forward I I I I #
face $-1 $113 $114 $27 $-1 $115 reversed single #
loop $-1 $-1 $116 $45 #
plane-surface $-1 0 0 -12.332514829104566 0 0 1 1 0 0 forward_v I I I I #
coedge $-1 $117 $118 $119 $120 forward $46 $-1 #
face $-1 $121 $122 $28 $-1 $123 reversed single #
loop $-1 $-1 $124 $48 #
plane-surface $-1 0 36.287020115054439 0 0 -1 0 0 0 -1 forward_v I I I I #
coedge $-1 $125 $126 $127 $128 forward $49 $-1 #
face $-1 $129 $130 $29 $-1 $131 reversed single #
loop $-1 $-1 $132 $51 #
plane-surface $-1 34.025722232201488 -135.05368330881467 67.559796678005071 1 0 0 0 0.84804810408105047 -0.52991925155115449 forward_v I I I I #
coedge $-1 $133 $134 $135 $136 reversed $52 $-1 #
face $-1 $-1 $137 $30 $-1 $138 forward single #
loop $-1 $139 $140 $54 #
cone-surface $-1 38.866929297953327 -31.320250272210743 7.2512926383315648 0 0.84804810408105047 -0.52991925155115449 0.5 0 0 1 I I -0.70710678118654746 0.70710678118654746 0.5 forward I I I I #
loop $-1 $-1 $141 $39 #
coedge $-1 $88 $88 $142 $143 reversed $55 $-1 #
face $-1 $-1 $144 $31 $-1 $145 forward single #
loop $-1 $146 $147 $57 #
cone-surface $-1 46.128739896581102 -31.320250272210743 7.2512926383315648 0 0.84804810408105047 -0.52991925155115449 0.5 0 0 1 I I -0.70710678118654746 0.70710678118654746 0.5 forward I I I I #
loop $-1 $-1 $148 $40 #
coedge $-1 $93 $93 $149 $150 reversed $58 $-1 #
face $-1 $-1 $151 $32 $-1 $152 forward single #
loop $-1 $153 $154 $60 #
cone-surface $-1 53.390550495208878 -31.320250272210743 7.2512926383315648 0 0.84804810408105047 -0.52991925155115449 0.5 0 0 1 I I -0.70710678118654746 0.70710678118654746 0.5 forward I I I I #
loop $-1 $-1 $155 $41 #
coedge $-1 $98 $98 $156 $157 reversed $61 $-1 #
face $-1 $158 $159 $33 $-1 $160 reversed single #
loop $-1 $-1 $161 $63 #
plane-surface $-1 31.068379884196382 -25.259256215160555 42.025683398112974 0 0.52991927123019833 0.84804809178421925 1 0 0 forward_v I I I I #
coedge $-1 $162 $163 $164 $165 reversed $64 $-1 #
face $-1 $-1 $166 $34 $-1 $167 forward single #
loop $-1 $168 $169 $66 #
cone-surface $-1 24.261265925831744 22.241444656735823 -3.3035456431477979 0 -0.52991927123019833 -0.84804809178421925 1.5 0 0 1 I I -0.70710678118654757 0.70710678118654757 1.5 forward I I I I #
loop $-1 $-1 $170 $43 #
coedge $-1 $107 $107 $171 $172 reversed $67 $-1 #
face $-1 $-1 $173 $35 $-1 $174 forward single #
loop $-1 $175 $176 $69 #
cone-surface $-1 37.875493842561035 22.241444656735823 -3.3035456431477979 0 -0.52991927123019833 -0.84804809178421925 1.5 0 0 1 I I -0.70710678118654757 0.70710678118654757 1.5 forward I I I I #
loop $-1 $-1 $177 $44 #
coedge $-1 $112 $112 $178 $179 reversed $70 $-1 #
face $-1 $180 $181 $27 $-1 $182 reversed single #
loop $-1 $-1 $183 $72 #
plane-surface $-1 0 -36.287020115054439 0 0 1 0 0 0 1 forward_v I I I I #
coedge $-1 $184 $185 $186 $187 forward $73 $-1 #
coedge $-1 $188 $75 $189 $190 forward $46 $-1 #
coedge $-1 $75 $188 $191 $192 forward $46 $-1 #
coedge $-1 $193 $194 $75 $120 reversed $195 $-1 #
edge $-1 $196 -36.287020115054439 $197 36.287020115054439 $119 $198 forward 7 unknown #
face $-1 $199 $200 $28 $-1 $201 reversed single #
loop $-1 $-1 $127 $76 #
plane-surface $-1 -63.081600783882223 0 8.8794708961505968 0 0 1 1 0 0 forward_v I I I I #
coedge $-1 $202 $203 $125 $204 forward $77 $-1 #
coedge $-1 $205 $79 $124 $204 reversed $49 $-1 #
coedge $-1 $79 $205 $206 $207 reversed $49 $-1 #
coedge $-1 $208 $209 $79 $128 reversed $122 $-1 #
edge $-1 $210 -36.287020115054439 $211 36.287020115054439 $127 $212 forward 7 unknown #
face $-1 $213 $214 $29 $-1 $215 forward single #
loop $-1 $-1 $216 $80 #
plane-surface $-1 58.231757560960723 0 0 -1 0 0 0 0 1 forward_v I I I I #
coedge $-1 $217 $218 $219 $220 reversed $81 $-1 #
coedge $-1 $221 $83 $216 $222 reversed $52 $-1 #
coedge $-1 $83 $221 $217 $223 forward $52 $-1 #
coedge $-1 $219 $224 $83 $136 forward $214 $-1 #
edge $-1 $225 -35.167387612670183 $226 -10.96135228391093 $135 $227 forward 7 unknown #
loop $-1 $-1 $142 $84 #
plane-surface $-1 46.128739896581116 -36.287020115054432 5.8435379115798938 0 -0.84804810408105047 0.52991925155115449 1 0 0 forward_v I I I I #
loop $-1 $-1 $228 $54 #
coedge $-1 $140 $140 $141 $229 reversed $85 $-1 #
coedge $-1 $141 $141 $140 $229 forward $87 $-1 #
coedge $-1 $142 $142 $88 $143 forward $137 $-1 #
edge $-1 $230 -7.5243064764144144e-016 $230 6.2831853071795996 $142 $231 forward 7 unknown #
loop $-1 $-1 $149 $89 #
plane-surface $-1 46.128739896581116 -36.287020115054432 5.8435379115798938 0 -0.84804810408105047 0.52991925155115449 1 0 0 forward_v I I I I #
loop $-1 $-1 $232 $57 #
coedge $-1 $147 $147 $148 $233 reversed $90 $-1 #
coedge $-1 $148 $148 $147 $233 forward $92 $-1 #
coedge $-1 $149 $149 $93 $150 forward $144 $-1 #
edge $-1 $234 -7.5243064764144144e-016 $234 6.2831853071795996 $149 $235 forward 7 unknown #
loop $-1 $-1 $156 $94 #
plane-surface $-1 46.128739896581116 -36.287020115054432 5.8435379115798938 0 -0.84804810408105047 0.52991925155115449 1 0 0 forward_v I I I I #
loop $-1 $-1 $236 $60 #
coedge $-1 $154 $154 $155 $237 reversed $95 $-1 #
coedge $-1 $155 $155 $154 $237 forward $97 $-1 #
coedge $-1 $156 $156 $98 $157 forward $151 $-1 #
edge $-1 $238 -7.5243064764144144e-016 $238 6.2831853071795996 $156 $239 forward 7 unknown #
face $-1 $240 $241 $33 $-1 $242 reversed single #
loop $-1 $-1 $243 $99 #
plane-surface $-1 46.951645787047219 36.457004843155239 140.79234515974102 -1 0 0 0 0.52991927123019833 0.84804809178421925 forward_v I I I I #
coedge $-1 $244 $245 $246 $247 reversed $100 $-1 #
coedge $-1 $163 $102 $248 $249 reversed $64 $-1 #
coedge $-1 $102 $162 $244 $250 reversed $64 $-1 #
coedge $-1 $246 $251 $102 $165 forward $252 $-1 #
edge $-1 $253 -18.058517693476819 $254 -4.0312434284574117 $164 $255 forward 7 unknown #
loop $-1 $-1 $171 $103 #
plane-surface $-1 31.068379884196382 -25.259256215160555 42.025683398112974 0 0.52991927123019833 0.84804809178421925 1 0 0 forward_v I I I I #
loop $-1 $-1 $256 $66 #
coedge $-1 $169 $169 $170 $257 reversed $104 $-1 #
coedge $-1 $170 $170 $169 $257 forward $106 $-1 #
coedge $-1 $171 $171 $107 $172 forward $166 $-1 #
edge $-1 $258 5.6458551764544572e-016 $258 6.2831853071796013 $171 $259 forward 7 unknown #
loop $-1 $-1 $178 $108 #
plane-surface $-1 31.068379884196382 -25.259256215160555 42.025683398112974 0 0.52991927123019833 0.84804809178421925 1 0 0 forward_v I I I I #
loop $-1 $-1 $260 $69 #
coedge $-1 $176 $176 $177 $261 reversed $109 $-1 #
coedge $-1 $177 $177 $176 $261 forward $111 $-1 #
coedge $-1 $178 $178 $112 $179 forward $173 $-1 #
edge $-1 $262 5.6458551764544572e-016 $262 6.2831853071796013 $178 $263 forward 7 unknown #
face $-1 $264 $265 $27 $-1 $266 reversed single #
loop $-1 $-1 $267 $113 #
plane-surface $-1 -58.231757560960723 0 0 1 0 0 0 0 -1 forward_v I I I I #
coedge $-1 $268 $191 $269 $270 forward $114 $-1 #
coedge $-1 $271 $116 $268 $272 forward $73 $-1 #
coedge $-1 $116 $271 $273 $274 forward $73 $-1 #
coedge $-1 $194 $193 $116 $187 reversed $195 $-1 #
edge $-1 $275 -36.287020115054439 $276 36.287020115054439 $186 $277 forward 7 unknown #
coedge $-1 $118 $117 $278 $279 forward $46 $-1 #
coedge $-1 $280 $281 $117 $190 reversed $265 $-1 #
edge $-1 $197 -58.231757560960723 $282 58.231757560960723 $189 $283 forward 7 unknown #
coedge $-1 $183 $284 $118 $192 reversed $114 $-1 #
edge $-1 $285 -58.231757560960723 $196 58.231757560960723 $191 $286 forward 7 unknown #
coedge $-1 $186 $119 $284 $287 forward $195 $-1 #
coedge $-1 $119 $186 $280 $288 reversed $195 $-1 #
loop $-1 $-1 $193 $264 #
vertex $-1 $120 $289 #
vertex $-1 $120 $290 #
straight-curve $-1 58.231757560960723 0 12.332514829104566 0 1 0 I I #
face $-1 $291 $292 $28 $-1 $293 forward single #
loop $-1 $-1 $294 $121 #
plane-surface $-1 -67.93144400680373 0 10.605992862627582 1 0 0 0 0 -1 forward_v I I I I #
coedge $-1 $295 $124 $209 $296 reversed $77 $-1 #
coedge $-1 $124 $295 $297 $298 reversed $77 $-1 #
edge $-1 $299 -12.332514829104566 $211 -8.8794708961505968 $124 $300 forward 7 unknown #
coedge $-1 $126 $125 $301 $302 reversed $49 $-1 #
coedge $-1 $303 $304 $126 $207 forward $305 $-1 #
edge $-1 $210 8.8794708961505968 $306 12.332514829104566 $206 $307 forward 7 unknown #
coedge $-1 $308 $127 $304 $309 forward $122 $-1 #
coedge $-1 $127 $308 $202 $296 forward $122 $-1 #
vertex $-1 $207 $310 #
vertex $-1 $204 $311 #
straight-curve $-1 -58.231757560960723 0 8.8794708961505968 0 1 0 I I #
face $-1 $-1 $312 $29 $-1 $313 reversed single #
loop $-1 $-1 $135 $129 #
plane-surface $-1 0 0 12.332514829104566 0 0 1 1 0 0 forward_v I I I I #
coedge $-1 $314 $315 $133 $222 forward $130 $-1 #
coedge $-1 $218 $132 $134 $223 reversed $81 $-1 #
coedge $-1 $132 $217 $316 $317 reversed $81 $-1 #
coedge $-1 $318 $135 $132 $220 forward $214 $-1 #
edge $-1 $226 -35.294584205432457 $319 -31.239821539352896 $219 $320 forward 7 unknown #
coedge $-1 $134 $133 $321 $322 reversed $52 $-1 #
edge $-1 $323 -7.1367946466751437 $225 0.51486672288380797 $216 $324 forward 7 unknown #
edge $-1 $325 -1.3557137071152151e-014 $226 7.6516613695589388 $217 $326 forward 7 unknown #
coedge $-1 $135 $318 $314 $327 forward $214 $-1 #
vertex $-1 $136 $328 #
vertex $-1 $136 $329 #
straight-curve $-1 23.064369948290558 -32.23225744897487 12.332514829104566 -1 0 0 I I #
coedge $-1 $228 $228 $-1 $330 reversed $139 $-1 #
edge $-1 $331 0 $331 6.2831853071796004 $140 $332 forward 7 unknown #
vertex $-1 $143 $333 #
ellipse-curve $-1 38.866929297953327 -34.259638782014655 9.0880263703422273 0 -0.84804810408105047 0.52991925155115449 1 0 0 1 I I #
coedge $-1 $232 $232 $-1 $334 reversed $146 $-1 #
edge $-1 $335 0 $335 6.2831853071796004 $147 $336 forward 7 unknown #
vertex $-1 $150 $337 #
ellipse-curve $-1 46.128739896581102 -34.259638782014655 9.0880263703422273 0 -0.84804810408105047 0.52991925155115449 1 0 0 1 I I #
coedge $-1 $236 $236 $-1 $338 reversed $153 $-1 #
edge $-1 $339 0 $339 6.2831853071796004 $154 $340 forward 7 unknown #
vertex $-1 $157 $341 #
ellipse-curve $-1 53.390550495208878 -34.259638782014655 9.0880263703422273 0 -0.84804810408105047 0.52991925155115449 1 0 0 1 I I #
face $-1 $-1 $252 $33 $-1 $342 forward single #
loop $-1 $-1 $343 $158 #
plane-surface $-1 0 36.287020115054439 0 0 -1 0 0 0 -1 forward_v I I I I #
coedge $-1 $344 $345 $346 $347 reversed $159 $-1 #
coedge $-1 $348 $161 $163 $250 forward $100 $-1 #
coedge $-1 $161 $348 $344 $349 forward $100 $-1 #
coedge $-1 $346 $164 $161 $247 forward $252 $-1 #
edge $-1 $254 -0.34907596075264635 $350 31.417455844949028 $246 $351 forward 7 unknown #
coedge $-1 $352 $353 $162 $249 forward $241 $-1 #
edge $-1 $354 -66.828871690727937 $253 -58.063657750765941 $248 $355 forward 7 unknown #
edge $-1 $254 56.033381273483862 $354 72.574040230108878 $163 $356 forward 7 unknown #
coedge $-1 $164 $346 $352 $357 forward $252 $-1 #
loop $-1 $-1 $346 $240 #
vertex $-1 $249 $358 #
vertex $-1 $165 $359 #
straight-curve $-1 15.185113981345545 18.22850242157762 12.332514829104568 0 -1 0 I I #
coedge $-1 $256 $256 $-1 $360 reversed $168 $-1 #
edge $-1 $361 0 $361 6.2831853071796004 $169 $362 forward 7 unknown #
vertex $-1 $172 $363 #
ellipse-curve $-1 24.261265925831744 29.273382982544739 7.9499078591235754 0 0.52991927123019833 0.84804809178421925 3 0 0 1 I I #
coedge $-1 $260 $260 $-1 $364 reversed $175 $-1 #
edge $-1 $365 0 $365 6.2831853071796004 $176 $366 forward 7 unknown #
vertex $-1 $179 $367 #
ellipse-curve $-1 37.875493842561035 29.273382982544739 7.9499078591235754 0 0.52991927123019833 0.84804809178421925 3 0 0 1 I I #
face $-1 $-1 $195 $27 $-1 $368 reversed single #
loop $-1 $-1 $280 $180 #
plane-surface $-1 0 36.287020115054439 0 0 -1 0 0 0 -1 forward_v I I I I #
coedge $-1 $369 $278 $281 $370 forward $181 $-1 #
coedge $-1 $284 $183 $184 $272 reversed $114 $-1 #
coedge $-1 $278 $369 $183 $270 reversed $181 $-1 #
edge $-1 $285 -12.332514829104566 $371 12.332514829104566 $269 $372 forward 7 unknown #
coedge $-1 $185 $184 $369 $373 forward $73 $-1 #
edge $-1 $276 -58.231757560960723 $371 58.231757560960723 $268 $374 forward 7 unknown #
coedge $-1 $281 $280 $185 $274 reversed $265 $-1 #
edge $-1 $375 -58.231757560960723 $275 58.231757560960723 $273 $376 forward 7 unknown #
vertex $-1 $187 $377 #
vertex $-1 $287 $378 #
straight-curve $-1 58.231757560960723 0 -12.332514829104566 0 -1 0 I I #
coedge $-1 $267 $269 $188 $279 reversed $181 $-1 #
edge $-1 $282 -36.287020115054439 $285 36.287020115054439 $278 $379 forward 7 unknown #
coedge $-1 $273 $189 $194 $288 forward $265 $-1 #
coedge $-1 $189 $273 $267 $370 reversed $265 $-1 #
vertex $-1 $190 $380 #
straight-curve $-1 0 36.287020115054439 12.332514829104566 -1 0 0 I I #
coedge $-1 $191 $268 $193 $287 reversed $114 $-1 #
vertex $-1 $279 $381 #
straight-curve $-1 0 -36.287020115054439 12.332514829104566 1 0 0 I I #
edge $-1 $196 -12.332514829104566 $276 12.332514829104566 $193 $382 forward 7 unknown #
edge $-1 $197 -12.332514829104566 $275 12.332514829104566 $194 $383 forward 7 unknown #
point $-1 58.231757560960723 -36.287020115054439 12.332514829104566 #
point $-1 58.231757560960723 36.287020115054439 12.332514829104566 #
face $-1 $-1 $305 $28 $-1 $384 reversed single #
loop $-1 $-1 $301 $199 #
plane-surface $-1 0 0 12.332514829104566 0 0 1 1 0 0 forward_v I I I I #
coedge $-1 $385 $386 $295 $387 forward $200 $-1 #
coedge $-1 $203 $202 $294 $387 reversed $77 $-1 #
edge $-1 $388 -4.8498432229215069 $211 4.8498432229214998 $202 $389 forward 7 unknown #
coedge $-1 $390 $301 $203 $298 forward $292 $-1 #
edge $-1 $299 58.231757560960723 $391 67.93144400680373 $203 $392 forward 7 unknown #
vertex $-1 $298 $393 #
straight-curve $-1 -58.231757560960723 36.287020115054439 0 0 0 -1 I I #
coedge $-1 $297 $394 $205 $302 forward $292 $-1 #
edge $-1 $306 -36.287020115054439 $299 36.287020115054439 $301 $395 forward 7 unknown #
coedge $-1 $396 $206 $394 $397 reversed $305 $-1 #
coedge $-1 $206 $396 $208 $309 reversed $305 $-1 #
loop $-1 $-1 $206 $291 #
vertex $-1 $207 $398 #
straight-curve $-1 -58.231757560960723 -36.287020115054439 0 0 0 1 I I #
coedge $-1 $209 $208 $385 $399 forward $122 $-1 #
edge $-1 $210 -4.8498432229214998 $400 4.8498432229215069 $304 $401 forward 7 unknown #
point $-1 -58.231757560960723 -36.287020115054439 8.8794708961505968 #
point $-1 -58.231757560960723 36.287020115054439 8.8794708961505968 #
loop $-1 $-1 $321 $213 #
plane-surface $-1 0 -36.287020115054439 0 0 1 0 0 0 1 forward_v I I I I #
coedge $-1 $315 $216 $224 $327 reversed $130 $-1 #
coedge $-1 $216 $314 $402 $403 forward $130 $-1 #
coedge $-1 $321 $404 $218 $317 forward $312 $-1 #
edge $-1 $319 21.447383509897968 $325 27.936360427422652 $316 $405 forward 7 unknown #
coedge $-1 $224 $219 $404 $406 forward $214 $-1 #
vertex $-1 $406 $407 #
straight-curve $-1 34.025722232201488 -67.526841654407335 12.332514829104568 0 -1 0 I I #
coedge $-1 $402 $316 $221 $322 forward $312 $-1 #
edge $-1 $325 10.96135228391093 $323 35.167387612670183 $321 $408 forward 7 unknown #
vertex $-1 $322 $409 #
straight-curve $-1 58.231757560960723 -32.505095237414061 11.895883080908529 0 0.52991925155115449 0.84804810408105047 I I #
vertex $-1 $322 $410 #
straight-curve $-1 34.025722232201488 -36.287020115054432 5.8435379115798938 0 0.52991925155115449 0.84804810408105047 I I #
edge $-1 $411 -36.287020115054439 $225 -32.232257448974877 $314 $412 forward 7 unknown #
point $-1 58.231757560960745 -32.232257448974877 12.332514829104566 #
point $-1 34.025722232201488 -32.232257448974877 12.332514829104566 #
edge $-1 $413 1 $413 0 $228 $-1 forward 7 unknown #
vertex $-1 $229 $414 #
ellipse-curve $-1 38.866929297953327 -31.744274324251268 7.5162522641071421 0 -0.84804810408105047 0.52991925155115449 1 0 0 1 I I #
point $-1 39.866929297953327 -34.259638782014662 9.0880263703422308 #
edge $-1 $415 1 $415 0 $232 $-1 forward 7 unknown #
vertex $-1 $233 $416 #
ellipse-curve $-1 46.128739896581102 -31.744274324251268 7.5162522641071421 0 -0.84804810408105047 0.52991925155115449 1 0 0 1 I I #
point $-1 47.128739896581102 -34.259638782014662 9.0880263703422308 #
edge $-1 $417 1 $417 0 $236 $-1 forward 7 unknown #
vertex $-1 $237 $418 #
ellipse-curve $-1 53.390550495208878 -31.744274324251268 7.5162522641071421 0 -0.84804810408105047 0.52991925155115449 1 0 0 1 I I #
point $-1 54.390550495208878 -34.259638782014662 9.0880263703422308 #
plane-surface $-1 0 0 12.332514829104566 0 0 1 1 0 0 forward_v I I I I #
coedge $-1 $353 $352 $345 $419 forward $241 $-1 #
coedge $-1 $345 $243 $245 $349 reversed $159 $-1 #
coedge $-1 $243 $344 $343 $419 reversed $159 $-1 #
coedge $-1 $251 $246 $243 $347 forward $252 $-1 #
edge $-1 $350 4.0312434284574117 $420 18.058517693476819 $346 $421 forward 7 unknown #
coedge $-1 $245 $244 $353 $422 reversed $100 $-1 #
edge $-1 $423 -72.574040230108878 $350 -56.033381273483862 $344 $424 forward 7 unknown #
vertex $-1 $247 $425 #
straight-curve $-1 15.534189942098191 22.259745850035031 12.332514829104568 1 0 0 I I #
coedge $-1 $343 $248 $251 $357 reversed $241 $-1 #
coedge $-1 $248 $343 $348 $422 forward $241 $-1 #
vertex $-1 $249 $426 #
straight-curve $-1 15.185113981345545 36.287020115054439 70.396172579870509 0 0 1 I I #
straight-curve $-1 15.185113981345545 -25.259256215160555 42.025683398112974 0 0.84804809178421925 -0.52991927123019833 I I #
edge $-1 $420 -46.951645787047219 $253 -15.185113981345545 $352 $427 forward 7 unknown #
point $-1 15.185113981345545 36.287020115054439 12.332514829104566 #
point $-1 15.185113981345545 22.259745850035031 12.332514829104568 #
edge $-1 $428 1 $428 0 $256 $-1 forward 7 unknown #
vertex $-1 $257 $429 #
ellipse-curve $-1 24.261265925831744 23.036323563581121 -2.0314735054714692 0 0.52991927123019833 0.84804809178421925 3 0 0 1 I I #
point $-1 27.261265925831744 29.273382982544735 7.9499078591235666 #
edge $-1 $430 1 $430 0 $260 $-1 forward 7 unknown #
vertex $-1 $261 $431 #
ellipse-curve $-1 37.875493842561035 23.036323563581121 -2.0314735054714692 0 0.52991927123019833 0.84804809178421925 3 0 0 1 I I #
point $-1 40.875493842561035 29.273382982544735 7.9499078591235666 #
plane-surface $-1 58.231757560960723 0 0 -1 0 0 0 0 1 forward_v I I I I #
coedge $-1 $269 $267 $271 $373 reversed $181 $-1 #
edge $-1 $282 -12.332514829104566 $375 12.332514829104566 $281 $432 forward 7 unknown #
vertex $-1 $373 $433 #
straight-curve $-1 -58.231757560960723 -36.287020115054439 0 0 0 -1 I I #
edge $-1 $371 -36.287020115054439 $375 36.287020115054439 $369 $434 forward 7 unknown #
straight-curve $-1 0 -36.287020115054439 -12.332514829104566 -1 0 0 I I #
vertex $-1 $274 $435 #
straight-curve $-1 0 36.287020115054439 -12.332514829104566 1 0 0 I I #
point $-1 58.231757560960723 36.287020115054439 -12.332514829104566 #
point $-1 58.231757560960723 -36.287020115054439 -12.332514829104566 #
straight-curve $-1 -58.231757560960723 0 12.332514829104566 0 -1 0 I I #
point $-1 -58.231757560960723 36.287020115054439 12.332514829104566 #
point $-1 -58.231757560960723 -36.287020115054439 12.332514829104566 #
straight-curve $-1 58.231757560960723 -36.287020115054439 0 0 0 -1 I I #
straight-curve $-1 58.231757560960723 36.287020115054439 0 0 0 -1 I I #
plane-surface $-1 0 -36.287020115054439 0 0 1 0 0 0 1 forward_v I I I I #
coedge $-1 $436 $294 $308 $399 reversed $200 $-1 #
coedge $-1 $294 $436 $390 $437 reversed $200 $-1 #
edge $-1 $391 -1.7265219664769855 $388 1.7265219664769855 $295 $438 forward 7 unknown #
vertex $-1 $296 $439 #
straight-curve $-1 -63.081600783882223 36.287020115054439 8.8794708961505968 1 0 0 I I #
coedge $-1 $394 $297 $386 $437 forward $292 $-1 #
vertex $-1 $298 $440 #
straight-curve $-1 0 36.287020115054439 12.332514829104566 -1 0 0 I I #
point $-1 -58.231757560960723 36.287020115054439 12.332514829104566 #
coedge $-1 $301 $390 $303 $397 forward $292 $-1 #
straight-curve $-1 -58.231757560960723 0 12.332514829104566 0 1 0 I I #
coedge $-1 $304 $303 $436 $441 forward $305 $-1 #
edge $-1 $442 -67.93144400680373 $306 -58.231757560960723 $303 $443 forward 7 unknown #
point $-1 -58.231757560960723 -36.287020115054439 12.332514829104566 #
edge $-1 $400 -36.287020115054439 $388 36.287020115054439 $385 $444 forward 7 unknown #
vertex $-1 $399 $445 #
straight-curve $-1 -63.081600783882223 -36.287020115054439 8.8794708961505968 -1 0 0 I I #
coedge $-1 $404 $321 $315 $403 reversed $312 $-1 #
edge $-1 $411 -12.332514829104566 $323 -5.8435379115798822 $315 $446 forward 7 unknown #
coedge $-1 $316 $402 $318 $406 reversed $312 $-1 #
straight-curve $-1 34.025722232201488 -36.287020115054439 33.779898339002536 0 0 -1 I I #
edge $-1 $319 34.025722232201488 $411 58.231757560960723 $404 $447 forward 7 unknown #
point $-1 34.025722232201488 -36.287020115054439 12.332514829104566 #
straight-curve $-1 23.064369948290558 -36.287020115054439 5.8435379115798725 1 0 0 I I #
point $-1 58.231757560960745 -36.287020115054439 5.8435379115798822 #
point $-1 34.025722232201488 -36.287020115054439 5.8435379115798822 #
vertex $-1 $327 $448 #
straight-curve $-1 58.231757560960723 0 12.332514829104566 0 1 0 I I #
vertex $-1 $330 $449 #
point $-1 39.866929297953327 -31.744274324251268 7.5162522641071421 #
vertex $-1 $334 $450 #
point $-1 47.128739896581102 -31.744274324251268 7.5162522641071421 #
vertex $-1 $338 $451 #
point $-1 54.390550495208878 -31.744274324251268 7.5162522641071421 #
edge $-1 $420 58.063657750765941 $423 66.828871690727937 $343 $452 forward 7 unknown #
vertex $-1 $357 $453 #
straight-curve $-1 46.951645787047219 18.22850242157762 12.332514829104568 0 1 0 I I #
edge $-1 $423 -31.417455844949028 $354 0.34907596075264635 $353 $454 forward 7 unknown #
vertex $-1 $422 $455 #
straight-curve $-1 46.951645787047219 -25.259256215160555 42.025683398112974 0 -0.84804809178421925 0.52991927123019833 I I #
point $-1 46.951645787047219 22.259745850035031 12.332514829104568 #
point $-1 15.185113981345545 36.287020115054439 3.5673008891425795 #
straight-curve $-1 0 36.287020115054439 12.332514829104566 -1 0 0 I I #
vertex $-1 $360 $456 #
point $-1 27.261265925831744 23.036323563581121 -2.0314735054714692 #
vertex $-1 $364 $457 #
point $-1 40.875493842561035 23.036323563581121 -2.0314735054714692 #
straight-curve $-1 -58.231757560960723 36.287020115054439 0 0 0 -1 I I #
point $-1 -58.231757560960723 -36.287020115054439 -12.332514829104566 #
straight-curve $-1 -58.231757560960723 0 -12.332514829104566 0 1 0 I I #
point $-1 -58.231757560960723 36.287020115054439 -12.332514829104566 #
coedge $-1 $386 $385 $396 $441 reversed $200 $-1 #
edge $-1 $391 -36.287020115054439 $442 36.287020115054439 $386 $458 forward 7 unknown #
straight-curve $-1 -67.93144400680373 36.287020115054439 10.605992862627582 0 0 -1 I I #
point $-1 -67.93144400680373 36.287020115054439 8.8794708961505968 #
point $-1 -67.93144400680373 36.287020115054439 12.332514829104568 #
edge $-1 $442 -1.7265219664769855 $400 1.7265219664769855 $436 $459 forward 7 unknown #
vertex $-1 $437 $460 #
straight-curve $-1 0 -36.287020115054439 12.332514829104566 1 0 0 I I #
straight-curve $-1 -67.93144400680373 0 8.8794708961505968 0 1 0 I I #
point $-1 -67.93144400680373 -36.287020115054439 8.8794708961505968 #
straight-curve $-1 58.231757560960723 -36.287020115054439 0 0 0 -1 I I #
straight-curve $-1 0 -36.287020115054439 12.332514829104566 1 0 0 I I #
point $-1 58.231757560960723 -36.287020115054439 12.332514829104566 #
point $-1 38.866929297953327 -30.896226220170217 6.9863330125559875 #
point $-1 46.128739896581102 -30.896226220170217 6.9863330125559875 #
point $-1 53.390550495208878 -30.896226220170217 6.9863330125559875 #
straight-curve $-1 46.951645787047219 36.287020115054439 70.396172579870509 0 0 -1 I I #
point $-1 46.951645787047219 36.287020115054439 12.332514829104566 #
straight-curve $-1 15.534189942098191 36.287020115054446 3.5673008891425795 -1 0 0 I I #
point $-1 46.951645787047219 36.287020115054439 3.5673008891425795 #
point $-1 24.261265925831744 21.446565749890524 -4.5756177808241265 #
point $-1 37.875493842561035 21.446565749890524 -4.5756177808241265 #
straight-curve $-1 -67.93144400680373 0 12.332514829104568 0 -1 0 I I #
straight-curve $-1 -67.93144400680373 -36.287020115054439 10.605992862627582 0 0 -1 I I #
point $-1 -67.93144400680373 -36.287020115054439 12.332514829104568 #
End-of-ACIS-data 