500 0 8 0           
7 Unknown 11 ACIS 5.0 NT 24 Fri Mar 26 18:27:01 1999 
-1 9.9999999999999995e-007 1e-010 
body $-1 $8 $-1 $9 #
body $-1 $10 $-1 $11 #
body $-1 $12 $-1 $13 #
body $-1 $14 $-1 $15 #
body $-1 $16 $-1 $17 #
body $-1 $18 $-1 $19 #
body $-1 $20 $-1 $21 #
body $-1 $22 $-1 $23 #
lump $-1 $-1 $24 $0 #
transform $-1 1 0 0 0 1 0 0 0 1 48.331553086947231 29.86903845838771 8.3890731813270083 1 rotate no_reflect no_shear #
lump $-1 $-1 $25 $1 #
transform $-1 1 0 0 0 1 0 0 0 1 48.331553086947231 29.86903845838771 8.3890731813270083 1 rotate no_reflect no_shear #
lump $-1 $-1 $26 $2 #
transform $-1 1 0 0 0 1 0 0 0 1 48.331553086947231 29.86903845838771 8.3890731813270083 1 rotate no_reflect no_shear #
lump $-1 $-1 $27 $3 #
transform $-1 1 0 0 0 1 0 0 0 1 48.331553086947231 29.86903845838771 8.3890731813270083 1 rotate no_reflect no_shear #
lump $-1 $-1 $28 $4 #
transform $-1 1 0 0 0 1 0 0 0 1 48.331553086947231 29.86903845838771 8.3890731813270083 1 rotate no_reflect no_shear #
lump $-1 $-1 $29 $5 #
transform $-1 1 0 0 0 1 0 0 0 1 48.331553086947231 29.86903845838771 8.3890731813270083 1 rotate no_reflect no_shear #
lump $-1 $-1 $30 $6 #
transform $-1 1 0 0 0 1 0 0 0 1 48.331553086947231 29.86903845838771 8.3890731813270083 1 rotate no_reflect no_shear #
lump $-1 $-1 $31 $7 #
transform $-1 1 0 0 0 1 0 0 0 1 48.331553086947231 29.86903845838771 8.3890731813270083 1 rotate no_reflect no_shear #
shell $-1 $-1 $-1 $32 $-1 $8 #
shell $-1 $-1 $-1 $33 $-1 $10 #
shell $-1 $-1 $-1 $34 $-1 $12 #
shell $-1 $-1 $-1 $35 $-1 $14 #
shell $-1 $-1 $-1 $36 $-1 $16 #
shell $-1 $-1 $-1 $37 $-1 $18 #
shell $-1 $-1 $-1 $38 $-1 $20 #
shell $-1 $-1 $-1 $39 $-1 $22 #
face $-1 $40 $41 $24 $-1 $42 forward single #
face $-1 $43 $44 $25 $-1 $45 forward single #
face $-1 $46 $47 $26 $-1 $48 forward single #
face $-1 $49 $50 $27 $-1 $51 reversed single #
face $-1 $52 $53 $28 $-1 $54 forward single #
face $-1 $55 $56 $29 $-1 $57 reversed single #
face $-1 $58 $59 $30 $-1 $60 forward single #
face $-1 $61 $62 $31 $-1 $63 forward single #
face $-1 $64 $65 $24 $-1 $66 reversed single #
loop $-1 $-1 $67 $32 #
plane-surface $-1 0 0 8.3890731813270083 0 0 1 1 0 0 forward_v I I I I #
face $-1 $68 $69 $25 $-1 $70 reversed single #
loop $-1 $-1 $71 $33 #
plane-surface $-1 0 -26.24766090034143 -5.3890731813270083 0 0 1 1 0 0 forward_v I I I I #
face $-1 $72 $73 $26 $-1 $74 reversed single #
loop $-1 $-1 $75 $34 #
plane-surface $-1 0 29.86903845838771 0 0 -1 0 0 0 -1 forward_v I I I I #
face $-1 $76 $77 $27 $-1 $78 reversed single #
loop $-1 $-1 $79 $35 #
plane-surface $-1 29.306274756425715 -13.227442589984829 138.42571238173517 0 -1 0 -0.6018150307709319 0 -0.79863550430605224 forward_v I I I I #
face $-1 $80 $81 $28 $-1 $82 forward single #
loop $-1 $83 $84 $36 #
cone-surface $-1 42.865412620322061 -17.926862966139989 3.1654539378227931 -0.6018150307709319 0 -0.79863550430605224 1.5972710086121045 0 -1.2036300615418638 1 I I 0 1 2 forward I I I I #
face $-1 $85 $86 $29 $-1 $87 reversed single #
loop $-1 $-1 $88 $37 #
plane-surface $-1 -127.51333490285782 2.9671998579272056 58.323322457950596 0 1 0 -0.81915205242281985 0 0.57357642473473569 forward_v I I I I #
face $-1 $89 $90 $30 $-1 $91 forward single #
loop $-1 $92 $93 $38 #
cone-surface $-1 -45.24455103201209 5.6302680602572543 4.8234270269394388 0.81915205242281985 0 -0.57357642473473569 0.57357642473473569 0 0.81915205242281985 1 I I 0 1 1 forward I I I I #
face $-1 $94 $95 $31 $-1 $96 forward single #
loop $-1 $97 $98 $39 #
cone-surface $-1 -45.24455103201209 9.6248703637523327 4.8234270269394388 0.81915205242281985 0 -0.57357642473473569 0.57357642473473569 0 0.81915205242281985 1 I I 0 1 1 forward I I I I #
face $-1 $99 $100 $24 $-1 $101 reversed single #
loop $-1 $-1 $102 $40 #
plane-surface $-1 0 0 -8.3890731813270083 0 0 1 1 0 0 forward_v I I I I #
coedge $-1 $103 $104 $105 $106 forward $41 $-1 #
face $-1 $107 $108 $25 $-1 $109 reversed single #
loop $-1 $-1 $110 $43 #
plane-surface $-1 0 -22.626283342295149 -6.8890731813270083 0 -1 0 0 0 -1 forward_v I I I I #
coedge $-1 $111 $112 $113 $114 reversed $44 $-1 #
face $-1 $115 $116 $26 $-1 $117 reversed single #
loop $-1 $-1 $118 $46 #
plane-surface $-1 -48.331553086947231 0 0 1 0 0 0 0 -1 forward_v I I I I #
coedge $-1 $119 $120 $121 $122 forward $47 $-1 #
face $-1 $123 $124 $27 $-1 $125 reversed single #
loop $-1 $-1 $126 $49 #
plane-surface $-1 -28.867035460030436 -17.926862966139989 61.227123834757492 0.6018150307709319 0 0.79863550430605224 0.79863550430605224 0 -0.6018150307709319 forward_v I I I I #
coedge $-1 $127 $128 $129 $130 reversed $50 $-1 #
face $-1 $-1 $131 $28 $-1 $132 forward single #
loop $-1 $133 $134 $52 #
cone-surface $-1 40.337521340217442 -17.926862966139989 -0.18917102847463418 -0.6018150307709319 0 -0.79863550430605224 0.79863550430605224 0 -0.6018150307709319 1 I I -0.70710678118654768 0.70710678118654735 1 forward I I I I #
loop $-1 $-1 $135 $36 #
coedge $-1 $84 $84 $136 $137 reversed $53 $-1 #
face $-1 $138 $139 $29 $-1 $140 reversed single #
loop $-1 $-1 $141 $55 #
plane-surface $-1 -48.331553086947224 7.6275692120047971 2.8796436149740572 -0.81915205242281985 0 0.57357642473473569 0.57357642473473569 0 0.81915205242281985 forward_v I I I I #
coedge $-1 $142 $143 $144 $145 reversed $56 $-1 #
face $-1 $-1 $146 $30 $-1 $147 forward single #
loop $-1 $148 $149 $58 #
cone-surface $-1 -43.676844949446249 5.6302680602572543 3.7257074433609834 0.81915205242281985 0 -0.57357642473473569 0.28678821236736785 0 0.40957602621140993 1 I I -0.70710678118654746 0.70710678118654746 0.5 forward I I I I #
loop $-1 $-1 $150 $38 #
coedge $-1 $93 $93 $151 $152 reversed $59 $-1 #
face $-1 $-1 $153 $31 $-1 $154 forward single #
loop $-1 $155 $156 $61 #
cone-surface $-1 -43.676844949446249 9.6248703637523327 3.7257074433609834 0.81915205242281985 0 -0.57357642473473569 0.28678821236736785 0 0.40957602621140993 1 I I -0.70710678118654746 0.70710678118654746 0.5 forward I I I I #
loop $-1 $-1 $157 $39 #
coedge $-1 $98 $98 $158 $159 reversed $62 $-1 #
face $-1 $160 $161 $24 $-1 $162 reversed single #
loop $-1 $-1 $163 $64 #
plane-surface $-1 0 -29.86903845838771 0 0 1 0 0 0 1 forward_v I I I I #
coedge $-1 $164 $165 $166 $167 forward $65 $-1 #
coedge $-1 $168 $67 $169 $170 forward $41 $-1 #
coedge $-1 $67 $168 $171 $172 forward $41 $-1 #
coedge $-1 $173 $174 $67 $106 reversed $175 $-1 #
edge $-1 $176 -29.86903845838771 $177 29.86903845838771 $105 $178 forward 7 unknown #
face $-1 $179 $180 $25 $-1 $181 reversed single #
loop $-1 $-1 $182 $68 #
plane-surface $-1 0 0 -8.3890731813270083 0 0 1 1 0 0 forward_v I I I I #
coedge $-1 $183 $184 $185 $186 reversed $69 $-1 #
coedge $-1 $187 $71 $184 $188 forward $44 $-1 #
coedge $-1 $71 $187 $189 $190 reversed $44 $-1 #
coedge $-1 $191 $185 $71 $114 forward $180 $-1 #
edge $-1 $192 9.5024528921244347 $193 16.745208008216995 $113 $194 forward 7 unknown #
face $-1 $195 $196 $26 $-1 $197 reversed single #
loop $-1 $-1 $198 $72 #
plane-surface $-1 0 35.180076791073375 5.3696008071110439 0 0 1 1 0 0 forward_v I I I I #
coedge $-1 $199 $200 $120 $201 forward $73 $-1 #
coedge $-1 $202 $75 $203 $204 reversed $47 $-1 #
coedge $-1 $75 $202 $118 $201 reversed $47 $-1 #
coedge $-1 $205 $198 $75 $122 reversed $116 $-1 #
edge $-1 $206 -48.331553086947231 $207 48.331553086947231 $121 $208 forward 7 unknown #
face $-1 $209 $210 $27 $-1 $211 forward single #
loop $-1 $-1 $212 $76 #
plane-surface $-1 29.306274756425715 -22.626283342295149 138.42571238173517 0 1 0 0.6018150307709319 0 0.79863550430605224 forward_v I I I I #
coedge $-1 $213 $214 $215 $216 reversed $77 $-1 #
coedge $-1 $128 $79 $217 $218 reversed $50 $-1 #
coedge $-1 $79 $127 $213 $219 reversed $50 $-1 #
coedge $-1 $215 $220 $79 $130 forward $210 $-1 #
edge $-1 $221 -33.678415708734377 $222 -26.598287274151421 $129 $223 forward 7 unknown #
loop $-1 $-1 $136 $80 #
plane-surface $-1 -28.867035460030436 -17.926862966139989 61.227123834757492 0.6018150307709319 0 0.79863550430605224 0.79863550430605224 0 -0.6018150307709319 forward_v I I I I #
loop $-1 $-1 $224 $52 #
coedge $-1 $134 $134 $135 $225 reversed $81 $-1 #
coedge $-1 $135 $135 $134 $225 forward $83 $-1 #
coedge $-1 $136 $136 $84 $137 forward $131 $-1 #
edge $-1 $226 0 $226 6.2831853071796004 $136 $227 forward 7 unknown #
face $-1 $228 $229 $29 $-1 $230 reversed single #
loop $-1 $-1 $231 $85 #
plane-surface $-1 -127.51333490285782 12.287938566082389 58.323322457950596 0 -1 0 0.81915205242281985 0 -0.57357642473473569 forward_v I I I I #
coedge $-1 $232 $233 $234 $235 reversed $86 $-1 #
coedge $-1 $143 $88 $236 $237 reversed $56 $-1 #
coedge $-1 $88 $142 $232 $238 reversed $56 $-1 #
coedge $-1 $234 $239 $88 $145 forward $240 $-1 #
edge $-1 $241 15.425114364481679 $242 19.282858361643086 $144 $243 forward 7 unknown #
loop $-1 $-1 $151 $89 #
plane-surface $-1 -48.331553086947224 7.6275692120047971 2.8796436149740572 -0.81915205242281985 0 0.57357642473473569 0.57357642473473569 0 0.81915205242281985 forward_v I I I I #
loop $-1 $-1 $244 $58 #
coedge $-1 $149 $149 $150 $245 reversed $90 $-1 #
coedge $-1 $150 $150 $149 $245 forward $92 $-1 #
coedge $-1 $151 $151 $93 $152 forward $146 $-1 #
edge $-1 $246 0 $246 6.2831853071796004 $151 $247 forward 7 unknown #
loop $-1 $-1 $158 $94 #
plane-surface $-1 -48.331553086947224 7.6275692120047971 2.8796436149740572 -0.81915205242281985 0 0.57357642473473569 0.57357642473473569 0 0.81915205242281985 forward_v I I I I #
loop $-1 $-1 $248 $61 #
coedge $-1 $156 $156 $157 $249 reversed $95 $-1 #
coedge $-1 $157 $157 $156 $249 forward $97 $-1 #
coedge $-1 $158 $158 $98 $159 forward $153 $-1 #
edge $-1 $250 0 $250 6.2831853071796004 $158 $251 forward 7 unknown #
face $-1 $252 $253 $24 $-1 $254 reversed single #
loop $-1 $-1 $255 $99 #
plane-surface $-1 -48.331553086947231 0 0 1 0 0 0 0 -1 forward_v I I I I #
coedge $-1 $256 $171 $257 $258 forward $100 $-1 #
coedge $-1 $259 $102 $256 $260 forward $65 $-1 #
coedge $-1 $102 $259 $261 $262 forward $65 $-1 #
coedge $-1 $174 $173 $102 $167 reversed $175 $-1 #
edge $-1 $263 -29.86903845838771 $264 29.86903845838771 $166 $265 forward 7 unknown #
coedge $-1 $104 $103 $266 $267 forward $41 $-1 #
coedge $-1 $268 $269 $103 $170 reversed $253 $-1 #
edge $-1 $177 -48.331553086947231 $270 48.331553086947231 $169 $271 forward 7 unknown #
coedge $-1 $163 $272 $104 $172 reversed $100 $-1 #
edge $-1 $273 -48.331553086947231 $176 48.331553086947231 $171 $274 forward 7 unknown #
coedge $-1 $166 $105 $272 $275 forward $175 $-1 #
coedge $-1 $105 $166 $268 $276 reversed $175 $-1 #
loop $-1 $-1 $173 $252 #
vertex $-1 $106 $277 #
vertex $-1 $106 $278 #
straight-curve $-1 48.331553086947231 0 8.3890731813270083 0 1 0 I I #
face $-1 $279 $280 $25 $-1 $281 reversed single #
loop $-1 $-1 $185 $107 #
plane-surface $-1 48.331553086947231 0 0 -1 0 0 0 0 1 forward_v I I I I #
coedge $-1 $282 $283 $183 $284 forward $108 $-1 #
coedge $-1 $285 $110 $182 $284 reversed $69 $-1 #
coedge $-1 $110 $285 $111 $188 reversed $69 $-1 #
coedge $-1 $113 $286 $110 $186 forward $180 $-1 #
edge $-1 $287 -4.9445365906635041 $192 -1.9445365906635041 $185 $288 forward 7 unknown #
coedge $-1 $112 $111 $289 $290 reversed $44 $-1 #
edge $-1 $192 -48.331553086947231 $291 48.331553086947231 $184 $292 forward 7 unknown #
coedge $-1 $293 $294 $112 $190 forward $280 $-1 #
edge $-1 $193 -48.331553086947231 $295 48.331553086947231 $189 $296 forward 7 unknown #
coedge $-1 $286 $113 $294 $297 forward $180 $-1 #
vertex $-1 $114 $298 #
vertex $-1 $297 $299 #
straight-curve $-1 48.331553086947231 -13.123830450170715 -5.3890731813270083 0 -1 0 I I #
face $-1 $300 $301 $26 $-1 $302 forward single #
loop $-1 $-1 $303 $115 #
plane-surface $-1 0 40.49111512375903 6.8793369942190257 0 -1 0 0 0 -1 forward_v I I I I #
coedge $-1 $121 $304 $305 $306 forward $116 $-1 #
coedge $-1 $307 $118 $308 $309 reversed $73 $-1 #
coedge $-1 $118 $307 $205 $310 reversed $73 $-1 #
edge $-1 $206 5.3696008071110439 $311 8.3890731813270083 $118 $312 forward 7 unknown #
coedge $-1 $120 $119 $313 $314 reversed $47 $-1 #
coedge $-1 $305 $315 $119 $204 forward $316 $-1 #
edge $-1 $317 -8.3890731813270083 $207 -5.3696008071110439 $203 $318 forward 7 unknown #
coedge $-1 $304 $121 $200 $310 forward $116 $-1 #
vertex $-1 $201 $319 #
vertex $-1 $204 $320 #
straight-curve $-1 0 29.86903845838771 5.3696008071110439 1 0 0 I I #
face $-1 $-1 $321 $27 $-1 $322 reversed single #
loop $-1 $-1 $129 $123 #
plane-surface $-1 0 0 8.3890731813270083 0 0 1 1 0 0 forward_v I I I I #
coedge $-1 $323 $324 $325 $326 reversed $124 $-1 #
coedge $-1 $327 $126 $128 $219 forward $77 $-1 #
coedge $-1 $126 $327 $323 $328 forward $77 $-1 #
coedge $-1 $325 $129 $126 $216 forward $210 $-1 #
edge $-1 $222 4.2640111069148343 $329 13.662851859225155 $215 $330 forward 7 unknown #
coedge $-1 $331 $332 $127 $218 forward $321 $-1 #
edge $-1 $333 -66.15904257256625 $221 -60.823783009540577 $217 $334 forward 7 unknown #
edge $-1 $222 87.797824832896495 $333 96.663106173894477 $128 $335 forward 7 unknown #
coedge $-1 $129 $325 $331 $336 forward $210 $-1 #
vertex $-1 $218 $337 #
vertex $-1 $130 $338 #
straight-curve $-1 14.653137378212858 -13.227442589984829 8.3890731813270065 -1 0 0 I I #
coedge $-1 $224 $224 $-1 $339 reversed $133 $-1 #
edge $-1 $340 0 $340 6.2831853071796004 $134 $341 forward 7 unknown #
vertex $-1 $137 $342 #
ellipse-curve $-1 44.791488869655758 -17.926862966139989 5.7214433998141807 0.6018150307709319 0 0.79863550430605224 1.5972710086121045 0 -1.2036300615418638 1 I I #
face $-1 $-1 $240 $29 $-1 $343 forward single #
loop $-1 $-1 $344 $138 #
plane-surface $-1 -48.331553086947231 0 0 1 0 0 0 0 -1 forward_v I I I I #
coedge $-1 $345 $346 $347 $348 reversed $139 $-1 #
coedge $-1 $349 $141 $143 $238 forward $86 $-1 #
coedge $-1 $141 $349 $345 $350 forward $86 $-1 #
coedge $-1 $347 $144 $141 $235 forward $240 $-1 #
edge $-1 $242 -0.84658474807519291 $351 8.47415396007999 $234 $352 forward 7 unknown #
coedge $-1 $353 $354 $142 $237 forward $229 $-1 #
edge $-1 $355 -26.282017614001251 $241 -20.772588047648291 $236 $356 forward 7 unknown #
edge $-1 $242 -6.7257715463907104 $355 1.2442367137257826e-014 $143 $357 forward 7 unknown #
coedge $-1 $144 $347 $353 $358 forward $240 $-1 #
loop $-1 $-1 $347 $228 #
vertex $-1 $237 $359 #
vertex $-1 $145 $360 #
straight-curve $-1 -63.75666745142891 2.9671998579272056 8.3890731813270065 1 0 0 I I #
coedge $-1 $244 $244 $-1 $361 reversed $148 $-1 #
edge $-1 $362 0 $362 6.2831853071796004 $149 $363 forward 7 unknown #
vertex $-1 $152 $364 #
ellipse-curve $-1 -46.402681088366528 5.6302680602572543 5.6343583981505301 -0.81915205242281985 0 0.57357642473473569 0.57357642473473569 0 0.81915205242281985 1 I I #
coedge $-1 $248 $248 $-1 $365 reversed $155 $-1 #
edge $-1 $366 0 $366 6.2831853071796004 $156 $367 forward 7 unknown #
vertex $-1 $159 $368 #
ellipse-curve $-1 -46.402681088366528 9.6248703637523327 5.6343583981505301 -0.81915205242281985 0 0.57357642473473569 0.57357642473473569 0 0.81915205242281985 1 I I #
face $-1 $-1 $175 $24 $-1 $369 reversed single #
loop $-1 $-1 $268 $160 #
plane-surface $-1 0 29.86903845838771 0 0 -1 0 0 0 -1 forward_v I I I I #
coedge $-1 $370 $266 $269 $371 forward $161 $-1 #
coedge $-1 $272 $163 $164 $260 reversed $100 $-1 #
coedge $-1 $266 $370 $163 $258 reversed $161 $-1 #
edge $-1 $273 -8.3890731813270083 $372 8.3890731813270083 $257 $373 forward 7 unknown #
coedge $-1 $165 $164 $370 $374 forward $65 $-1 #
edge $-1 $264 -48.331553086947231 $372 48.331553086947231 $256 $375 forward 7 unknown #
coedge $-1 $269 $268 $165 $262 reversed $253 $-1 #
edge $-1 $376 -48.331553086947231 $263 48.331553086947231 $261 $377 forward 7 unknown #
vertex $-1 $167 $378 #
vertex $-1 $275 $379 #
straight-curve $-1 48.331553086947231 0 -8.3890731813270083 0 -1 0 I I #
coedge $-1 $255 $257 $168 $267 reversed $161 $-1 #
edge $-1 $270 -29.86903845838771 $273 29.86903845838771 $266 $380 forward 7 unknown #
coedge $-1 $261 $169 $174 $276 forward $253 $-1 #
coedge $-1 $169 $261 $255 $371 reversed $253 $-1 #
vertex $-1 $170 $381 #
straight-curve $-1 0 29.86903845838771 8.3890731813270083 -1 0 0 I I #
coedge $-1 $171 $256 $173 $275 reversed $100 $-1 #
vertex $-1 $267 $382 #
straight-curve $-1 0 -29.86903845838771 8.3890731813270083 1 0 0 I I #
edge $-1 $176 -8.3890731813270083 $264 8.3890731813270083 $173 $383 forward 7 unknown #
edge $-1 $177 -8.3890731813270083 $263 8.3890731813270083 $174 $384 forward 7 unknown #
point $-1 48.331553086947231 -29.86903845838771 8.3890731813270083 #
point $-1 48.331553086947231 29.86903845838771 8.3890731813270083 #
face $-1 $-1 $385 $25 $-1 $386 reversed single #
loop $-1 $-1 $189 $179 #
plane-surface $-1 0 -29.86903845838771 0 0 1 0 0 0 1 forward_v I I I I #
coedge $-1 $387 $182 $286 $388 forward $108 $-1 #
coedge $-1 $182 $387 $389 $390 forward $108 $-1 #
edge $-1 $391 -48.331553086947231 $287 48.331553086947231 $182 $392 forward 7 unknown #
coedge $-1 $184 $183 $393 $394 reversed $69 $-1 #
coedge $-1 $185 $191 $282 $388 reversed $180 $-1 #
vertex $-1 $388 $395 #
straight-curve $-1 48.331553086947231 -22.626283342295149 -3.4445365906635041 0 0 1 I I #
coedge $-1 $393 $396 $187 $290 forward $385 $-1 #
edge $-1 $295 -16.745208008216995 $291 -9.5024528921244347 $289 $397 forward 7 unknown #
vertex $-1 $290 $398 #
straight-curve $-1 0 -22.626283342295149 -5.3890731813270083 -1 0 0 I I #
coedge $-1 $399 $189 $396 $400 forward $280 $-1 #
coedge $-1 $189 $399 $191 $297 reversed $280 $-1 #
vertex $-1 $400 $401 #
straight-curve $-1 0 -29.86903845838771 -5.3890731813270083 -1 0 0 I I #
edge $-1 $193 5.3890731813270083 $402 8.3890731813270083 $191 $403 forward 7 unknown #
point $-1 48.331553086947231 -22.626283342295149 -5.3890731813270083 #
point $-1 48.331553086947231 -29.86903845838771 -5.3890731813270083 #
face $-1 $-1 $316 $26 $-1 $404 reversed single #
loop $-1 $-1 $313 $195 #
plane-surface $-1 0 0 8.3890731813270083 0 0 1 1 0 0 forward_v I I I I #
coedge $-1 $405 $406 $407 $408 forward $196 $-1 #
coedge $-1 $198 $205 $405 $409 forward $116 $-1 #
coedge $-1 $407 $203 $198 $306 reversed $316 $-1 #
edge $-1 $410 -5.311038332685655 $207 5.3110383326856585 $305 $411 forward 7 unknown #
coedge $-1 $200 $199 $412 $413 forward $73 $-1 #
coedge $-1 $313 $414 $199 $309 forward $301 $-1 #
edge $-1 $415 -40.49111512375903 $311 -29.86903845838771 $199 $416 forward 7 unknown #
edge $-1 $206 -5.3110383326856585 $417 5.311038332685655 $200 $418 forward 7 unknown #
vertex $-1 $201 $419 #
straight-curve $-1 -48.331553086947231 29.86903845838771 0 0 0 1 I I #
coedge $-1 $420 $308 $202 $314 forward $301 $-1 #
edge $-1 $311 -48.331553086947231 $317 48.331553086947231 $313 $421 forward 7 unknown #
coedge $-1 $203 $407 $420 $422 reversed $316 $-1 #
loop $-1 $-1 $203 $300 #
vertex $-1 $422 $423 #
straight-curve $-1 48.331553086947231 29.86903845838771 0 0 0 -1 I I #
point $-1 -48.331553086947231 29.869038458387717 5.3696008071110439 #
point $-1 48.331553086947231 29.869038458387717 5.3696008071110439 #
loop $-1 $-1 $217 $209 #
plane-surface $-1 48.331553086947231 0 0 -1 0 0 0 0 1 forward_v I I I I #
coedge $-1 $324 $212 $214 $328 reversed $124 $-1 #
coedge $-1 $212 $323 $424 $425 reversed $124 $-1 #
coedge $-1 $220 $215 $212 $326 forward $210 $-1 #
edge $-1 $329 26.598287274151421 $426 33.678415708734377 $325 $427 forward 7 unknown #
coedge $-1 $214 $213 $332 $428 reversed $77 $-1 #
edge $-1 $429 -96.663106173894477 $329 -87.797824832896495 $323 $430 forward 7 unknown #
vertex $-1 $216 $431 #
straight-curve $-1 41.251424652364292 -8.9634314830699946 8.3890731813270065 0 -1 0 I I #
coedge $-1 $424 $217 $220 $336 reversed $321 $-1 #
coedge $-1 $217 $424 $327 $428 forward $321 $-1 #
vertex $-1 $218 $432 #
straight-curve $-1 48.331553086947231 -13.227442589984829 69.212856190867583 0 0 1 I I #
straight-curve $-1 -28.867035460030436 -13.227442589984829 61.227123834757492 0.79863550430605224 0 -0.6018150307709319 I I #
edge $-1 $426 -22.626283342295149 $221 -13.227442589984829 $331 $433 forward 7 unknown #
point $-1 48.331553086947231 -13.227442589984829 8.3890731813270083 #
point $-1 41.251424652364278 -13.227442589984829 8.3890731813270065 #
edge $-1 $434 1 $434 0 $224 $-1 forward 7 unknown #
vertex $-1 $225 $435 #
ellipse-curve $-1 40.939336370988372 -17.926862966139989 0.60946447583141772 0.6018150307709319 0 0.79863550430605224 1.5972710086121045 0 -1.2036300615418638 1 I I #
point $-1 46.388759878267848 -17.926862966139989 4.5178133382723047 #
plane-surface $-1 0 0 8.3890731813270083 0 0 1 1 0 0 forward_v I I I I #
coedge $-1 $354 $353 $346 $436 forward $229 $-1 #
coedge $-1 $346 $231 $233 $350 reversed $139 $-1 #
coedge $-1 $231 $345 $344 $436 reversed $139 $-1 #
coedge $-1 $239 $234 $231 $348 forward $240 $-1 #
edge $-1 $351 -19.282858361643086 $437 -15.425114364481679 $347 $438 forward 7 unknown #
coedge $-1 $233 $232 $354 $439 reversed $86 $-1 #
edge $-1 $440 -1.2442367137257826e-014 $351 6.7257715463907104 $345 $441 forward 7 unknown #
vertex $-1 $235 $442 #
straight-curve $-1 -44.473809089785824 3.8137846060023985 8.3890731813270101 0 1 0 I I #
coedge $-1 $344 $236 $239 $358 reversed $229 $-1 #
coedge $-1 $236 $344 $349 $439 forward $229 $-1 #
vertex $-1 $237 $443 #
straight-curve $-1 -48.331553086947231 2.9671998579272056 29.161661228975298 0 0 1 I I #
straight-curve $-1 -48.331553086947224 2.9671998579272056 2.8796436149740572 -0.57357642473473569 0 -0.81915205242281985 I I #
edge $-1 $437 -12.287938566082389 $241 -2.9671998579272056 $353 $444 forward 7 unknown #
point $-1 -48.331553086947231 2.9671998579272056 8.3890731813270083 #
point $-1 -44.473809089785824 2.9671998579272056 8.3890731813270083 #
edge $-1 $445 1 $445 0 $244 $-1 forward 7 unknown #
vertex $-1 $245 $446 #
ellipse-curve $-1 -44.08642097565766 5.6302680602572543 4.0124956557283511 -0.81915205242281985 0 0.57357642473473569 0.57357642473473569 0 0.81915205242281985 1 I I #
point $-1 -45.829104663631789 5.6302680602572543 6.4535104505733472 #
edge $-1 $447 1 $447 0 $248 $-1 forward 7 unknown #
vertex $-1 $249 $448 #
ellipse-curve $-1 -44.08642097565766 9.6248703637523327 4.0124956557283511 -0.81915205242281985 0 0.57357642473473569 0.57357642473473569 0 0.81915205242281985 1 I I #
point $-1 -45.829104663631789 9.6248703637523327 6.4535104505733472 #
plane-surface $-1 48.331553086947231 0 0 -1 0 0 0 0 1 forward_v I I I I #
coedge $-1 $257 $255 $259 $374 reversed $161 $-1 #
edge $-1 $270 -8.3890731813270083 $376 8.3890731813270083 $269 $449 forward 7 unknown #
vertex $-1 $374 $450 #
straight-curve $-1 -48.331553086947231 -29.86903845838771 0 0 0 -1 I I #
edge $-1 $372 -29.86903845838771 $376 29.86903845838771 $370 $451 forward 7 unknown #
straight-curve $-1 0 -29.86903845838771 -8.3890731813270083 -1 0 0 I I #
vertex $-1 $262 $452 #
straight-curve $-1 0 29.86903845838771 -8.3890731813270083 1 0 0 I I #
point $-1 48.331553086947231 29.86903845838771 -8.3890731813270083 #
point $-1 48.331553086947231 -29.86903845838771 -8.3890731813270083 #
straight-curve $-1 -48.331553086947231 0 8.3890731813270083 0 -1 0 I I #
point $-1 -48.331553086947231 29.86903845838771 8.3890731813270083 #
point $-1 -48.331553086947231 -29.86903845838771 8.3890731813270083 #
straight-curve $-1 48.331553086947231 -29.86903845838771 0 0 0 -1 I I #
straight-curve $-1 48.331553086947231 29.86903845838771 0 0 0 -1 I I #
loop $-1 $-1 $393 $279 #
plane-surface $-1 -48.331553086947231 0 0 1 0 0 0 0 -1 forward_v I I I I #
coedge $-1 $283 $282 $399 $453 forward $108 $-1 #
edge $-1 $287 22.626283342295149 $402 29.86903845838771 $286 $454 forward 7 unknown #
coedge $-1 $396 $393 $283 $390 reversed $385 $-1 #
edge $-1 $455 -29.86903845838771 $391 -22.626283342295149 $389 $456 forward 7 unknown #
vertex $-1 $394 $457 #
straight-curve $-1 0 -22.626283342295149 -8.3890731813270083 1 0 0 I I #
coedge $-1 $389 $289 $285 $394 forward $385 $-1 #
edge $-1 $291 1.9445365906635041 $391 4.9445365906635041 $393 $458 forward 7 unknown #
point $-1 48.331553086947231 -22.626283342295149 -8.3890731813270083 #
coedge $-1 $289 $389 $293 $400 reversed $385 $-1 #
straight-curve $-1 -48.331553086947231 -13.123830450170715 -5.3890731813270083 0 1 0 I I #
point $-1 -48.331553086947231 -22.626283342295149 -5.3890731813270083 #
coedge $-1 $294 $293 $387 $453 reversed $280 $-1 #
edge $-1 $295 5.3890731813270083 $455 8.3890731813270083 $396 $459 forward 7 unknown #
point $-1 -48.331553086947231 -29.86903845838771 -5.3890731813270083 #
vertex $-1 $297 $460 #
straight-curve $-1 48.331553086947231 -29.86903845838771 0 0 0 -1 I I #
plane-surface $-1 48.331553086947231 0 0 -1 0 0 0 0 1 forward_v I I I I #
coedge $-1 $412 $303 $304 $409 reversed $196 $-1 #
coedge $-1 $303 $412 $414 $461 reversed $196 $-1 #
coedge $-1 $315 $305 $303 $408 reversed $316 $-1 #
edge $-1 $462 -1.5097361871079809 $410 1.5097361871079817 $407 $463 forward 7 unknown #
edge $-1 $417 -48.331553086947231 $410 48.331553086947231 $405 $464 forward 7 unknown #
vertex $-1 $306 $465 #
straight-curve $-1 48.331553086947231 35.180076791073375 5.3696008071110439 0 -1 0 I I #
coedge $-1 $406 $405 $307 $413 reversed $196 $-1 #
edge $-1 $415 -1.5097361871079809 $417 1.5097361871079817 $412 $466 forward 7 unknown #
coedge $-1 $308 $420 $406 $461 forward $301 $-1 #
vertex $-1 $461 $467 #
straight-curve $-1 -48.331553086947231 0 8.3890731813270083 0 -1 0 I I #
vertex $-1 $409 $468 #
straight-curve $-1 -48.331553086947231 35.180076791073375 5.3696008071110439 0 1 0 I I #
point $-1 -48.331553086947231 29.86903845838771 8.3890731813270083 #
coedge $-1 $414 $313 $315 $422 forward $301 $-1 #
straight-curve $-1 0 29.86903845838771 8.3890731813270083 1 0 0 I I #
edge $-1 $317 29.86903845838771 $462 40.49111512375903 $315 $469 forward 7 unknown #
point $-1 48.331553086947231 29.86903845838771 8.3890731813270083 #
coedge $-1 $332 $331 $324 $425 forward $321 $-1 #
edge $-1 $426 60.823783009540577 $429 66.15904257256625 $424 $470 forward 7 unknown #
vertex $-1 $336 $471 #
straight-curve $-1 14.653137378212858 -22.626283342295149 8.3890731813270065 1 0 0 I I #
edge $-1 $429 -13.662851859225155 $333 -4.2640111069148343 $332 $472 forward 7 unknown #
vertex $-1 $428 $473 #
straight-curve $-1 -28.867035460030436 -22.626283342295149 61.227123834757492 -0.79863550430605224 0 0.6018150307709319 I I #
point $-1 41.251424652364278 -22.626283342295149 8.3890731813270065 #
point $-1 48.331553086947238 -13.227442589984829 3.0538136183013407 #
straight-curve $-1 48.331553086947231 0 8.3890731813270083 0 1 0 I I #
vertex $-1 $339 $474 #
point $-1 42.536607379600476 -17.926862966139989 -0.59416558571044609 #
edge $-1 $437 20.772588047648291 $440 26.282017614001251 $344 $475 forward 7 unknown #
vertex $-1 $358 $476 #
straight-curve $-1 -63.75666745142891 12.287938566082389 8.3890731813270065 -1 0 0 I I #
edge $-1 $440 -8.47415396007999 $355 0.84658474807519291 $354 $477 forward 7 unknown #
vertex $-1 $439 $478 #
straight-curve $-1 -48.331553086947224 12.287938566082389 2.8796436149740572 0.57357642473473569 0 0.81915205242281985 I I #
point $-1 -44.473809089785824 12.287938566082389 8.3890731813270083 #
point $-1 -48.331553086947231 2.9671998579272056 2.879643614974047 #
straight-curve $-1 -48.331553086947231 0 8.3890731813270083 0 -1 0 I I #
vertex $-1 $361 $479 #
point $-1 -43.512844550922921 5.6302680602572543 4.8316477081511708 #
vertex $-1 $365 $480 #
point $-1 -43.512844550922921 9.6248703637523327 4.8316477081511708 #
straight-curve $-1 -48.331553086947231 29.86903845838771 0 0 0 -1 I I #
point $-1 -48.331553086947231 -29.86903845838771 -8.3890731813270083 #
straight-curve $-1 -48.331553086947231 0 -8.3890731813270083 0 1 0 I I #
point $-1 -48.331553086947231 29.86903845838771 -8.3890731813270083 #
edge $-1 $402 -48.331553086947231 $455 48.331553086947231 $399 $481 forward 7 unknown #
straight-curve $-1 48.331553086947231 0 -8.3890731813270083 0 -1 0 I I #
vertex $-1 $390 $482 #
straight-curve $-1 -48.331553086947231 0 -8.3890731813270083 0 1 0 I I #
point $-1 -48.331553086947231 -22.626283342295149 -8.3890731813270083 #
straight-curve $-1 -48.331553086947231 -22.626283342295149 -3.4445365906635041 0 0 -1 I I #
straight-curve $-1 -48.331553086947231 -29.86903845838771 0 0 0 -1 I I #
point $-1 48.331553086947231 -29.86903845838771 -8.3890731813270083 #
edge $-1 $462 -48.331553086947231 $415 48.331553086947231 $406 $483 forward 7 unknown #
vertex $-1 $422 $484 #
straight-curve $-1 48.331553086947231 40.49111512375903 6.8793369942190257 0 0 -1 I I #
straight-curve $-1 0 40.49111512375903 5.3696008071110439 1 0 0 I I #
point $-1 48.331553086947231 40.49111512375903 5.3696008071110439 #
straight-curve $-1 -48.331553086947231 40.49111512375903 6.8793369942190257 0 0 -1 I I #
point $-1 -48.331553086947231 40.49111512375903 8.3890731813270065 #
point $-1 -48.331553086947231 40.49111512375903 5.3696008071110439 #
straight-curve $-1 48.331553086947231 0 8.3890731813270083 0 1 0 I I #
straight-curve $-1 48.331553086947231 -22.626283342295149 69.212856190867583 0 0 -1 I I #
point $-1 48.331553086947231 -22.626283342295149 8.3890731813270083 #
straight-curve $-1 48.331553086947224 -8.9634314830699946 3.0538136183013478 0 1 0 I I #
point $-1 48.331553086947238 -22.626283342295149 3.0538136183013407 #
point $-1 39.735706309446513 -17.926862966139989 -0.98780653278068609 #
straight-curve $-1 -48.331553086947231 12.287938566082389 29.161661228975298 0 0 -1 I I #
point $-1 -48.331553086947231 12.287938566082389 8.3890731813270083 #
straight-curve $-1 -48.331553086947231 3.8137846060023985 2.8796436149740421 0 -1 0 I I #
point $-1 -48.331553086947231 12.287938566082389 2.879643614974047 #
point $-1 -43.267268923234838 5.6302680602572543 3.4389192309936156 #
point $-1 -43.267268923234838 9.6248703637523327 3.4389192309936156 #
straight-curve $-1 0 -29.86903845838771 -8.3890731813270083 -1 0 0 I I #
point $-1 -48.331553086947231 -29.86903845838771 -8.3890731813270083 #
straight-curve $-1 0 40.49111512375903 8.3890731813270065 -1 0 0 I I #
point $-1 48.331553086947231 40.49111512375903 8.3890731813270065 #
End-of-ACIS-data 