500 0 10 0           
7 Unknown 11 ACIS 5.0 NT 24 Fri Mar 26 02:49:04 1999 
-1 9.9999999999999995e-007 1e-010 
body $-1 $10 $-1 $11 #
body $-1 $12 $-1 $13 #
body $-1 $14 $-1 $15 #
body $-1 $16 $-1 $17 #
body $-1 $18 $-1 $19 #
body $-1 $20 $-1 $21 #
body $-1 $22 $-1 $23 #
body $-1 $24 $-1 $25 #
body $-1 $26 $-1 $27 #
body $-1 $28 $-1 $29 #
lump $-1 $-1 $30 $0 #
transform $-1 1 0 0 0 1 0 0 0 1 57.394329660939363 30.415824343495398 9.9915430662236417 1 rotate no_reflect no_shear #
lump $-1 $-1 $31 $1 #
transform $-1 1 0 0 0 1 0 0 0 1 57.394329660939363 30.415824343495398 9.9915430662236417 1 rotate no_reflect no_shear #
lump $-1 $-1 $32 $2 #
transform $-1 1 0 0 0 1 0 0 0 1 57.394329660939363 30.415824343495398 9.9915430662236417 1 rotate no_reflect no_shear #
lump $-1 $-1 $33 $3 #
transform $-1 1 0 0 0 1 0 0 0 1 57.394329660939363 30.415824343495398 9.9915430662236417 1 rotate no_reflect no_shear #
lump $-1 $-1 $34 $4 #
transform $-1 1 0 0 0 1 0 0 0 1 57.394329660939363 30.415824343495398 9.9915430662236417 1 rotate no_reflect no_shear #
lump $-1 $-1 $35 $5 #
transform $-1 1 0 0 0 1 0 0 0 1 57.394329660939363 30.415824343495398 9.9915430662236417 1 rotate no_reflect no_shear #
lump $-1 $-1 $36 $6 #
transform $-1 1 0 0 0 1 0 0 0 1 57.394329660939363 30.415824343495398 9.9915430662236417 1 rotate no_reflect no_shear #
lump $-1 $-1 $37 $7 #
transform $-1 1 0 0 0 1 0 0 0 1 57.394329660939363 30.415824343495398 9.9915430662236417 1 rotate no_reflect no_shear #
lump $-1 $-1 $38 $8 #
transform $-1 1 0 0 0 1 0 0 0 1 57.394329660939363 30.415824343495398 9.9915430662236417 1 rotate no_reflect no_shear #
lump $-1 $-1 $39 $9 #
transform $-1 1 0 0 0 1 0 0 0 1 57.394329660939363 30.415824343495398 9.9915430662236417 1 rotate no_reflect no_shear #
shell $-1 $-1 $-1 $40 $-1 $10 #
shell $-1 $-1 $-1 $41 $-1 $12 #
shell $-1 $-1 $-1 $42 $-1 $14 #
shell $-1 $-1 $-1 $43 $-1 $16 #
shell $-1 $-1 $-1 $44 $-1 $18 #
shell $-1 $-1 $-1 $45 $-1 $20 #
shell $-1 $-1 $-1 $46 $-1 $22 #
shell $-1 $-1 $-1 $47 $-1 $24 #
shell $-1 $-1 $-1 $48 $-1 $26 #
shell $-1 $-1 $-1 $49 $-1 $28 #
face $-1 $50 $51 $30 $-1 $52 forward single #
face $-1 $53 $54 $31 $-1 $55 reversed single #
face $-1 $56 $57 $32 $-1 $58 reversed single #
face $-1 $59 $60 $33 $-1 $61 reversed single #
face $-1 $62 $63 $34 $-1 $64 forward single #
face $-1 $65 $66 $35 $-1 $67 forward single #
face $-1 $68 $69 $36 $-1 $70 reversed single #
face $-1 $71 $72 $37 $-1 $73 forward single #
face $-1 $74 $75 $38 $-1 $76 reversed single #
face $-1 $77 $78 $39 $-1 $79 forward single #
face $-1 $80 $81 $30 $-1 $82 reversed single #
loop $-1 $-1 $83 $40 #
plane-surface $-1 0 0 9.9915430662236417 0 0 1 1 0 0 forward_v I I I I #
face $-1 $84 $85 $31 $-1 $86 reversed single #
loop $-1 $-1 $87 $41 #
plane-surface $-1 -42.937948594432825 -25.016741111523729 0 1 0 0 0 0 -1 forward_v I I I I #
face $-1 $88 $89 $32 $-1 $90 reversed single #
loop $-1 $-1 $91 $42 #
plane-surface $-1 -41.437948594432825 19.617657879552063 0 0 1 0 0 0 1 forward_v I I I I #
face $-1 $92 $93 $33 $-1 $94 reversed single #
loop $-1 $-1 $95 $43 #
plane-surface $-1 79.987091675489026 13.594351567738762 163.97262717557538 0 -1 0 -0.79863551827123203 0 -0.60181501223851219 forward_v I I I I #
face $-1 $96 $97 $34 $-1 $98 forward single #
loop $-1 $99 $100 $44 #
cone-surface $-1 54.356494164758864 9.1174321935829035 6.2384933322779998 -0.79863551827123203 0 -0.60181501223851219 0.3009075061192561 0 -0.39931775913561601 1 I I 0 1 0.5 forward I I I I #
face $-1 $101 $102 $35 $-1 $103 forward single #
loop $-1 $104 $105 $45 #
cone-surface $-1 54.356494164758864 11.803583818076422 6.2384933322779998 -0.79863551827123203 0 -0.60181501223851219 0.3009075061192561 0 -0.39931775913561601 1 I I 0 1 0.5 forward I I I I #
face $-1 $106 $107 $36 $-1 $108 reversed single #
loop $-1 $-1 $109 $46 #
plane-surface $-1 -134.20293579987606 -19.617657879552056 86.662493422975757 0 1 0 -0.66913061440640931 0 0.74314481823134659 forward_v I I I I #
face $-1 $110 $111 $37 $-1 $112 forward single #
loop $-1 $113 $114 $47 #
cone-surface $-1 -52.096785186909123 -15.376681965948464 5.1158300696654617 0.66913061440640931 0 -0.74314481823134659 1.1147172273470198 0 1.003695921609614 1 I I 0 1 1.5 forward I I I I #
face $-1 $115 $116 $38 $-1 $117 reversed single #
loop $-1 $-1 $118 $48 #
plane-surface $-1 -134.20293579987606 11.135706052344871 86.662493422975757 0 1 0 -0.66913061440640931 0 0.74314481823134659 forward_v I I I I #
face $-1 $119 $120 $39 $-1 $121 forward single #
loop $-1 $122 $123 $49 #
cone-surface $-1 -52.096785186909123 15.376681965948467 5.1158300696654617 0.66913061440640931 0 -0.74314481823134659 1.1147172273470198 0 1.003695921609614 1 I I 0 1 1.5 forward I I I I #
face $-1 $124 $125 $30 $-1 $126 reversed single #
loop $-1 $-1 $127 $50 #
plane-surface $-1 0 0 -9.9915430662236417 0 0 1 1 0 0 forward_v I I I I #
coedge $-1 $128 $129 $130 $131 forward $51 $-1 #
face $-1 $132 $133 $31 $-1 $134 reversed single #
loop $-1 $-1 $135 $53 #
plane-surface $-1 -41.437948594432825 -19.617657879552056 0 0 -1 0 0 0 -1 forward_v I I I I #
coedge $-1 $136 $137 $138 $139 forward $54 $-1 #
face $-1 $140 $141 $32 $-1 $142 reversed single #
loop $-1 $-1 $143 $56 #
plane-surface $-1 -42.937948594432825 25.016741111523732 0 1 0 0 0 0 -1 forward_v I I I I #
coedge $-1 $144 $145 $146 $147 forward $57 $-1 #
face $-1 $148 $149 $33 $-1 $150 reversed single #
loop $-1 $-1 $151 $59 #
plane-surface $-1 -11.68720875369948 10.460508005829656 94.891088760936526 0.79863551827123203 0 0.60181501223851219 0.60181501223851219 0 -0.79863551827123203 forward_v I I I I #
coedge $-1 $152 $153 $154 $155 reversed $60 $-1 #
face $-1 $-1 $156 $34 $-1 $157 forward single #
loop $-1 $158 $159 $62 #
cone-surface $-1 53.671571650744795 9.1174321935829035 5.7223672125105338 -0.79863551827123203 0 -0.60181501223851219 0.15045375305962805 0 -0.19965887956780801 1 I I -0.70710678118654746 0.70710678118654746 0.25 forward I I I I #
loop $-1 $-1 $160 $44 #
coedge $-1 $100 $100 $161 $162 reversed $63 $-1 #
face $-1 $-1 $163 $35 $-1 $164 forward single #
loop $-1 $165 $166 $65 #
cone-surface $-1 53.671571650744795 11.803583818076422 5.7223672125105338 -0.79863551827123203 0 -0.60181501223851219 0.15045375305962805 0 -0.19965887956780801 1 I I -0.70710678118654746 0.70710678118654746 0.25 forward I I I I #
loop $-1 $-1 $167 $45 #
coedge $-1 $105 $105 $168 $169 reversed $66 $-1 #
face $-1 $170 $171 $36 $-1 $172 reversed single #
loop $-1 $-1 $173 $68 #
plane-surface $-1 -57.394329660939349 -15.376681965948466 1.3578960561982285 -0.66913061440640931 0 0.74314481823134659 0.74314481823134659 0 0.66913061440640931 forward_v I I I I #
coedge $-1 $174 $175 $176 $177 reversed $69 $-1 #
face $-1 $-1 $178 $37 $-1 $179 forward single #
loop $-1 $180 $181 $71 #
cone-surface $-1 -51.091710856642251 -15.376681965948464 3.9995819644464792 0.66913061440640931 0 -0.74314481823134659 0.55735861367350992 0 0.50184796080480698 1 I I -0.70710678118654757 0.70710678118654757 0.75 forward I I I I #
loop $-1 $-1 $182 $47 #
coedge $-1 $114 $114 $183 $184 reversed $72 $-1 #
face $-1 $185 $186 $38 $-1 $187 reversed single #
loop $-1 $-1 $188 $74 #
plane-surface $-1 -57.394329660939349 15.37668196594846 1.3578960561982285 -0.66913061440640931 0 0.74314481823134659 0.74314481823134659 0 0.66913061440640931 forward_v I I I I #
coedge $-1 $189 $190 $191 $192 reversed $75 $-1 #
face $-1 $-1 $193 $39 $-1 $194 forward single #
loop $-1 $195 $196 $77 #
cone-surface $-1 -51.091710856642251 15.376681965948467 3.9995819644464792 0.66913061440640931 0 -0.74314481823134659 0.55735861367350992 0 0.50184796080480698 1 I I -0.70710678118654757 0.70710678118654757 0.75 forward I I I I #
loop $-1 $-1 $197 $49 #
coedge $-1 $123 $123 $198 $199 reversed $78 $-1 #
face $-1 $200 $201 $30 $-1 $202 reversed single #
loop $-1 $-1 $203 $80 #
plane-surface $-1 0 -30.415824343495398 0 0 1 0 0 0 1 forward_v I I I I #
coedge $-1 $204 $205 $206 $207 forward $81 $-1 #
coedge $-1 $208 $83 $209 $210 forward $51 $-1 #
coedge $-1 $83 $208 $211 $212 forward $51 $-1 #
coedge $-1 $213 $214 $83 $131 reversed $215 $-1 #
edge $-1 $216 -30.415824343495398 $217 30.415824343495398 $130 $218 forward 7 unknown #
face $-1 $219 $220 $31 $-1 $221 forward single #
loop $-1 $-1 $222 $84 #
plane-surface $-1 -39.937948594432825 -25.016741111523729 0 -1 0 0 0 0 1 forward_v I I I I #
coedge $-1 $223 $224 $225 $226 forward $85 $-1 #
coedge $-1 $227 $87 $228 $229 reversed $54 $-1 #
coedge $-1 $87 $227 $230 $231 reversed $54 $-1 #
coedge $-1 $224 $223 $87 $139 reversed $85 $-1 #
edge $-1 $232 -9.9915430662236417 $233 9.9915430662236417 $138 $234 forward 7 unknown #
face $-1 $235 $236 $32 $-1 $237 reversed single #
loop $-1 $-1 $238 $88 #
plane-surface $-1 -39.937948594432825 25.016741111523732 0 -1 0 0 0 0 1 forward_v I I I I #
coedge $-1 $239 $240 $241 $242 reversed $89 $-1 #
coedge $-1 $243 $91 $244 $245 reversed $57 $-1 #
coedge $-1 $91 $243 $246 $247 reversed $57 $-1 #
coedge $-1 $240 $239 $91 $147 reversed $89 $-1 #
edge $-1 $248 -9.9915430662236417 $249 9.9915430662236417 $146 $250 forward 7 unknown #
face $-1 $251 $252 $33 $-1 $253 forward single #
loop $-1 $-1 $254 $92 #
plane-surface $-1 79.987091675489026 7.3266644439205493 163.97262717557538 0 1 0 0.79863551827123203 0 0.60181501223851219 forward_v I I I I #
coedge $-1 $255 $256 $257 $258 reversed $93 $-1 #
coedge $-1 $153 $95 $259 $260 reversed $60 $-1 #
coedge $-1 $95 $152 $255 $261 reversed $60 $-1 #
coedge $-1 $257 $262 $95 $155 forward $252 $-1 #
edge $-1 $263 -17.40078382319485 $264 -12.295640099726398 $154 $265 forward 7 unknown #
loop $-1 $-1 $161 $96 #
plane-surface $-1 -11.68720875369948 10.460508005829656 94.891088760936526 0.79863551827123203 0 0.60181501223851219 0.60181501223851219 0 -0.79863551827123203 forward_v I I I I #
loop $-1 $-1 $266 $62 #
coedge $-1 $159 $159 $160 $267 reversed $97 $-1 #
coedge $-1 $160 $160 $159 $267 forward $99 $-1 #
coedge $-1 $161 $161 $100 $162 forward $156 $-1 #
edge $-1 $268 0 $268 6.2831853071796004 $161 $269 forward 7 unknown #
loop $-1 $-1 $168 $101 #
plane-surface $-1 -11.68720875369948 10.460508005829656 94.891088760936526 0.79863551827123203 0 0.60181501223851219 0.60181501223851219 0 -0.79863551827123203 forward_v I I I I #
loop $-1 $-1 $270 $65 #
coedge $-1 $166 $166 $167 $271 reversed $102 $-1 #
coedge $-1 $167 $167 $166 $271 forward $104 $-1 #
coedge $-1 $168 $168 $105 $169 forward $163 $-1 #
edge $-1 $272 0 $272 6.2831853071796004 $168 $273 forward 7 unknown #
face $-1 $274 $275 $36 $-1 $276 reversed single #
loop $-1 $-1 $277 $106 #
plane-surface $-1 -134.20293579987606 -11.135706052344876 86.662493422975757 0 -1 0 0.66913061440640931 0 -0.74314481823134659 forward_v I I I I #
coedge $-1 $278 $279 $280 $281 reversed $107 $-1 #
coedge $-1 $175 $109 $282 $283 reversed $69 $-1 #
coedge $-1 $109 $174 $278 $284 reversed $69 $-1 #
coedge $-1 $280 $285 $109 $177 forward $286 $-1 #
edge $-1 $287 9.7071382389986667 $288 19.29577444813502 $176 $289 forward 7 unknown #
loop $-1 $-1 $183 $110 #
plane-surface $-1 -57.394329660939349 -15.376681965948466 1.3578960561982285 -0.66913061440640931 0 0.74314481823134659 0.74314481823134659 0 0.66913061440640931 forward_v I I I I #
loop $-1 $-1 $290 $71 #
coedge $-1 $181 $181 $182 $291 reversed $111 $-1 #
coedge $-1 $182 $182 $181 $291 forward $113 $-1 #
coedge $-1 $183 $183 $114 $184 forward $178 $-1 #
edge $-1 $292 0 $292 6.2831853071796004 $183 $293 forward 7 unknown #
face $-1 $294 $295 $38 $-1 $296 forward single #
loop $-1 $-1 $297 $115 #
plane-surface $-1 -134.20293579987606 19.617657879552048 86.662493422975757 0 -1 0 0.66913061440640931 0 -0.74314481823134659 forward_v I I I I #
coedge $-1 $298 $299 $300 $301 reversed $116 $-1 #
coedge $-1 $190 $118 $302 $303 reversed $75 $-1 #
coedge $-1 $118 $189 $298 $304 reversed $75 $-1 #
coedge $-1 $300 $305 $118 $192 forward $295 $-1 #
edge $-1 $306 9.7071382389986667 $307 19.29577444813502 $191 $308 forward 7 unknown #
loop $-1 $-1 $198 $119 #
plane-surface $-1 -57.394329660939349 15.37668196594846 1.3578960561982285 -0.66913061440640931 0 0.74314481823134659 0.74314481823134659 0 0.66913061440640931 forward_v I I I I #
loop $-1 $-1 $309 $77 #
coedge $-1 $196 $196 $197 $310 reversed $120 $-1 #
coedge $-1 $197 $197 $196 $310 forward $122 $-1 #
coedge $-1 $198 $198 $123 $199 forward $193 $-1 #
edge $-1 $311 0 $311 6.2831853071796004 $198 $312 forward 7 unknown #
face $-1 $313 $314 $30 $-1 $315 reversed single #
loop $-1 $-1 $316 $124 #
plane-surface $-1 -57.394329660939363 0 0 1 0 0 0 0 -1 forward_v I I I I #
coedge $-1 $317 $211 $318 $319 forward $125 $-1 #
coedge $-1 $320 $127 $317 $321 forward $81 $-1 #
coedge $-1 $127 $320 $322 $323 forward $81 $-1 #
coedge $-1 $214 $213 $127 $207 reversed $215 $-1 #
edge $-1 $324 -30.415824343495398 $325 30.415824343495398 $206 $326 forward 7 unknown #
coedge $-1 $129 $128 $327 $328 forward $51 $-1 #
coedge $-1 $329 $330 $128 $210 reversed $314 $-1 #
edge $-1 $217 -57.394329660939363 $331 57.394329660939363 $209 $332 forward 7 unknown #
coedge $-1 $203 $333 $129 $212 reversed $125 $-1 #
edge $-1 $334 -57.394329660939363 $216 57.394329660939363 $211 $335 forward 7 unknown #
coedge $-1 $206 $130 $333 $336 forward $215 $-1 #
coedge $-1 $130 $206 $329 $337 reversed $215 $-1 #
loop $-1 $-1 $213 $313 #
vertex $-1 $131 $338 #
vertex $-1 $131 $339 #
straight-curve $-1 57.394329660939363 0 9.9915430662236417 0 1 0 I I #
face $-1 $340 $341 $31 $-1 $342 reversed single #
loop $-1 $-1 $343 $132 #
plane-surface $-1 0 0 9.9915430662236417 0 0 1 1 0 0 forward_v I I I I #
coedge $-1 $344 $345 $346 $347 reversed $133 $-1 #
coedge $-1 $138 $135 $348 $349 reversed $85 $-1 #
coedge $-1 $135 $138 $350 $351 reversed $85 $-1 #
coedge $-1 $345 $344 $135 $226 reversed $133 $-1 #
edge $-1 $352 -9.9915430662236417 $353 9.9915430662236417 $225 $354 forward 7 unknown #
coedge $-1 $137 $136 $355 $356 reversed $54 $-1 #
coedge $-1 $348 $357 $136 $229 forward $341 $-1 #
edge $-1 $358 -17.907453787733537 $233 -7.1092873237901912 $228 $359 forward 7 unknown #
coedge $-1 $360 $350 $137 $231 forward $220 $-1 #
edge $-1 $232 7.1092873237901912 $361 17.907453787733537 $230 $362 forward 7 unknown #
vertex $-1 $231 $363 #
vertex $-1 $229 $364 #
straight-curve $-1 -42.937948594432825 -19.617657879552056 0 0 0 -1 I I #
face $-1 $365 $366 $32 $-1 $367 forward single #
loop $-1 $-1 $368 $140 #
plane-surface $-1 0 0 -9.9915430662236417 0 0 1 1 0 0 forward_v I I I I #
coedge $-1 $369 $370 $243 $371 forward $141 $-1 #
coedge $-1 $146 $143 $372 $373 reversed $89 $-1 #
coedge $-1 $143 $146 $374 $375 reversed $89 $-1 #
coedge $-1 $376 $377 $143 $242 forward $378 $-1 #
edge $-1 $379 -9.9915430662236417 $380 9.9915430662236417 $241 $381 forward 7 unknown #
coedge $-1 $145 $144 $238 $371 reversed $57 $-1 #
coedge $-1 $372 $368 $144 $245 forward $236 $-1 #
edge $-1 $382 19.218974297216413 $249 22.218974297216413 $244 $383 forward 7 unknown #
coedge $-1 $384 $374 $145 $247 forward $366 $-1 #
edge $-1 $248 -22.218974297216413 $385 -19.218974297216413 $246 $386 forward 7 unknown #
vertex $-1 $247 $387 #
vertex $-1 $245 $388 #
straight-curve $-1 -42.937948594432825 19.617657879552063 0 0 0 -1 I I #
face $-1 $-1 $389 $33 $-1 $390 reversed single #
loop $-1 $-1 $154 $148 #
plane-surface $-1 0 0 9.9915430662236417 0 0 1 1 0 0 forward_v I I I I #
coedge $-1 $391 $392 $393 $394 reversed $149 $-1 #
coedge $-1 $395 $151 $153 $261 forward $93 $-1 #
coedge $-1 $151 $395 $391 $396 forward $93 $-1 #
coedge $-1 $393 $154 $151 $258 forward $252 $-1 #
edge $-1 $264 -8.3640975648239344 $397 -2.0964104410057214 $257 $398 forward 7 unknown #
coedge $-1 $399 $400 $152 $260 forward $389 $-1 #
edge $-1 $401 -78.769525256039657 $263 -71.99477052156405 $259 $402 forward 7 unknown #
edge $-1 $264 106.30574743093177 $401 114.7886593218787 $153 $403 forward 7 unknown #
coedge $-1 $154 $393 $399 $404 forward $252 $-1 #
vertex $-1 $155 $405 #
vertex $-1 $155 $406 #
straight-curve $-1 39.993545837744513 13.594351567738762 9.9915430662236417 -1 0 0 I I #
coedge $-1 $266 $266 $-1 $407 reversed $158 $-1 #
edge $-1 $408 0 $408 6.2831853071796004 $159 $409 forward 7 unknown #
vertex $-1 $162 $410 #
ellipse-curve $-1 54.841757799205133 9.1174321935829035 6.6041656989858444 0.79863551827123203 0 0.60181501223851219 0.3009075061192561 0 -0.39931775913561601 1 I I #
coedge $-1 $270 $270 $-1 $411 reversed $165 $-1 #
edge $-1 $412 0 $412 6.2831853071796004 $166 $413 forward 7 unknown #
vertex $-1 $169 $414 #
ellipse-curve $-1 54.841757799205133 11.803583818076422 6.6041656989858444 0.79863551827123203 0 0.60181501223851219 0.3009075061192561 0 -0.39931775913561601 1 I I #
face $-1 $-1 $286 $36 $-1 $415 forward single #
loop $-1 $-1 $416 $170 #
plane-surface $-1 -57.394329660939363 0 0 1 0 0 0 0 -1 forward_v I I I I #
coedge $-1 $417 $418 $419 $420 reversed $171 $-1 #
coedge $-1 $421 $173 $175 $284 forward $107 $-1 #
coedge $-1 $173 $421 $417 $422 forward $107 $-1 #
coedge $-1 $419 $176 $173 $281 forward $286 $-1 #
edge $-1 $288 -11.929316896577824 $423 -3.447365069370643 $280 $424 forward 7 unknown #
coedge $-1 $425 $426 $174 $283 forward $275 $-1 #
edge $-1 $427 -41.973350655289664 $287 -33.339703645264237 $282 $428 forward 7 unknown #
edge $-1 $288 -12.902782841111495 $427 1.9178179933549516e-014 $175 $429 forward 7 unknown #
coedge $-1 $176 $419 $425 $430 forward $286 $-1 #
loop $-1 $-1 $419 $274 #
vertex $-1 $283 $431 #
vertex $-1 $177 $432 #
straight-curve $-1 -67.101467899938029 -19.617657879552056 9.9915430662236417 1 0 0 I I #
coedge $-1 $290 $290 $-1 $433 reversed $180 $-1 #
edge $-1 $434 0 $434 6.2831853071796004 $181 $435 forward 7 unknown #
vertex $-1 $184 $436 #
ellipse-curve $-1 -52.600011556371186 -15.376681965948464 5.674719561210928 -0.66913061440640931 0 0.74314481823134659 1.1147172273470198 0 1.003695921609614 1 I I #
face $-1 $-1 $437 $38 $-1 $438 reversed single #
loop $-1 $-1 $191 $185 #
plane-surface $-1 0 0 9.9915430662236417 0 0 1 1 0 0 forward_v I I I I #
coedge $-1 $439 $440 $441 $442 reversed $186 $-1 #
coedge $-1 $443 $188 $190 $304 forward $116 $-1 #
coedge $-1 $188 $443 $439 $444 forward $116 $-1 #
coedge $-1 $441 $191 $188 $301 forward $295 $-1 #
edge $-1 $307 3.4473650693706404 $445 11.929316896577818 $300 $446 forward 7 unknown #
coedge $-1 $447 $448 $189 $303 forward $437 $-1 #
edge $-1 $449 -41.973350655289664 $306 -33.339703645264237 $302 $450 forward 7 unknown #
edge $-1 $307 -12.902782841111495 $449 1.9178179933549516e-014 $190 $451 forward 7 unknown #
coedge $-1 $191 $441 $447 $452 forward $295 $-1 #
vertex $-1 $303 $453 #
vertex $-1 $192 $454 #
straight-curve $-1 -67.101467899938029 11.135706052344871 9.9915430662236417 1 0 0 I I #
coedge $-1 $309 $309 $-1 $455 reversed $195 $-1 #
edge $-1 $456 0 $456 6.2831853071796004 $196 $457 forward 7 unknown #
vertex $-1 $199 $458 #
ellipse-curve $-1 -52.600011556371186 15.376681965948467 5.674719561210928 -0.66913061440640931 0 0.74314481823134659 1.1147172273470198 0 1.003695921609614 1 I I #
face $-1 $-1 $215 $30 $-1 $459 reversed single #
loop $-1 $-1 $329 $200 #
plane-surface $-1 0 30.415824343495398 0 0 -1 0 0 0 -1 forward_v I I I I #
coedge $-1 $460 $327 $330 $461 forward $201 $-1 #
coedge $-1 $333 $203 $204 $321 reversed $125 $-1 #
coedge $-1 $327 $460 $203 $319 reversed $201 $-1 #
edge $-1 $334 -9.9915430662236417 $462 9.9915430662236417 $318 $463 forward 7 unknown #
coedge $-1 $205 $204 $460 $464 forward $81 $-1 #
edge $-1 $325 -57.394329660939363 $462 57.394329660939363 $317 $465 forward 7 unknown #
coedge $-1 $330 $329 $205 $323 reversed $314 $-1 #
edge $-1 $466 -57.394329660939363 $324 57.394329660939363 $322 $467 forward 7 unknown #
vertex $-1 $207 $468 #
vertex $-1 $336 $469 #
straight-curve $-1 57.394329660939363 0 -9.9915430662236417 0 -1 0 I I #
coedge $-1 $316 $318 $208 $328 reversed $201 $-1 #
edge $-1 $331 -30.415824343495398 $334 30.415824343495398 $327 $470 forward 7 unknown #
coedge $-1 $322 $209 $214 $337 forward $314 $-1 #
coedge $-1 $209 $322 $316 $461 reversed $314 $-1 #
vertex $-1 $210 $471 #
straight-curve $-1 0 30.415824343495398 9.9915430662236417 -1 0 0 I I #
coedge $-1 $211 $317 $213 $336 reversed $125 $-1 #
vertex $-1 $328 $472 #
straight-curve $-1 0 -30.415824343495398 9.9915430662236417 1 0 0 I I #
edge $-1 $216 -9.9915430662236417 $325 9.9915430662236417 $213 $473 forward 7 unknown #
edge $-1 $217 -9.9915430662236417 $324 9.9915430662236417 $214 $474 forward 7 unknown #
point $-1 57.394329660939363 -30.415824343495398 9.9915430662236417 #
point $-1 57.394329660939363 30.415824343495398 9.9915430662236417 #
face $-1 $-1 $475 $31 $-1 $476 reversed single #
loop $-1 $-1 $477 $219 #
plane-surface $-1 0 0 -9.9915430662236417 0 0 1 1 0 0 forward_v I I I I #
coedge $-1 $350 $360 $345 $478 forward $220 $-1 #
coedge $-1 $225 $222 $477 $479 reversed $133 $-1 #
coedge $-1 $222 $225 $343 $478 reversed $133 $-1 #
coedge $-1 $480 $481 $222 $347 forward $475 $-1 #
edge $-1 $482 -9.9915430662236417 $483 9.9915430662236417 $346 $484 forward 7 unknown #
coedge $-1 $477 $228 $223 $349 forward $341 $-1 #
edge $-1 $233 -22.218974297216413 $353 -19.218974297216413 $348 $485 forward 7 unknown #
coedge $-1 $230 $343 $224 $351 forward $220 $-1 #
edge $-1 $352 19.218974297216413 $232 22.218974297216413 $350 $486 forward 7 unknown #
vertex $-1 $351 $487 #
vertex $-1 $349 $488 #
straight-curve $-1 -39.937948594432825 -19.617657879552056 0 0 0 -1 I I #
coedge $-1 $481 $480 $227 $356 forward $475 $-1 #
edge $-1 $361 -9.9915430662236417 $358 9.9915430662236417 $355 $489 forward 7 unknown #
coedge $-1 $228 $477 $481 $490 forward $341 $-1 #
vertex $-1 $229 $491 #
straight-curve $-1 -42.937948594432825 -12.508370555761864 -9.9915430662236417 0 1 0 I I #
coedge $-1 $343 $230 $480 $492 forward $220 $-1 #
vertex $-1 $492 $493 #
straight-curve $-1 -42.937948594432825 -12.508370555761864 9.9915430662236417 0 -1 0 I I #
point $-1 -42.937948594432825 -19.617657879552056 9.9915430662236417 #
point $-1 -42.937948594432825 -19.617657879552056 -9.9915430662236417 #
face $-1 $-1 $378 $32 $-1 $494 reversed single #
loop $-1 $-1 $384 $235 #
plane-surface $-1 0 0 9.9915430662236417 0 0 1 1 0 0 forward_v I I I I #
coedge $-1 $244 $495 $369 $496 forward $236 $-1 #
coedge $-1 $497 $238 $368 $496 reversed $141 $-1 #
coedge $-1 $238 $497 $384 $498 reversed $141 $-1 #
edge $-1 $385 -9.9915430662236417 $382 9.9915430662236417 $238 $499 forward 7 unknown #
coedge $-1 $495 $244 $239 $373 forward $236 $-1 #
edge $-1 $249 7.1092873237901966 $379 17.907453787733537 $372 $500 forward 7 unknown #
coedge $-1 $246 $501 $240 $375 forward $366 $-1 #
edge $-1 $380 -17.907453787733537 $248 -7.1092873237901966 $374 $502 forward 7 unknown #
coedge $-1 $503 $241 $501 $504 reversed $378 $-1 #
coedge $-1 $241 $503 $495 $505 reversed $378 $-1 #
loop $-1 $-1 $503 $365 #
vertex $-1 $505 $506 #
vertex $-1 $242 $507 #
straight-curve $-1 -42.937948594432825 30.415824343495398 0 0 0 1 I I #
vertex $-1 $245 $508 #
straight-curve $-1 -20.718974297216413 19.617657879552063 -9.9915430662236417 -1 0 0 I I #
coedge $-1 $501 $246 $370 $498 forward $366 $-1 #
vertex $-1 $247 $509 #
straight-curve $-1 -20.718974297216413 19.617657879552063 9.9915430662236417 1 0 0 I I #
point $-1 -42.937948594432825 19.617657879552063 9.9915430662236417 #
point $-1 -42.937948594432825 19.617657879552063 -9.9915430662236417 #
loop $-1 $-1 $259 $251 #
plane-surface $-1 57.394329660939363 0 0 -1 0 0 0 0 1 forward_v I I I I #
coedge $-1 $392 $254 $256 $396 reversed $149 $-1 #
coedge $-1 $254 $391 $510 $511 reversed $149 $-1 #
coedge $-1 $262 $257 $254 $394 forward $252 $-1 #
edge $-1 $397 12.295640099726398 $512 17.40078382319485 $393 $513 forward 7 unknown #
coedge $-1 $256 $255 $400 $514 reversed $93 $-1 #
edge $-1 $515 -114.7886593218787 $397 -106.30574743093177 $391 $516 forward 7 unknown #
vertex $-1 $258 $517 #
straight-curve $-1 52.289185937470904 5.2302540029148279 9.9915430662236489 0 -1 0 I I #
coedge $-1 $510 $259 $262 $404 reversed $389 $-1 #
coedge $-1 $259 $510 $395 $514 forward $389 $-1 #
vertex $-1 $260 $518 #
straight-curve $-1 57.394329660939363 13.594351567738762 81.986313587787691 0 0 1 I I #
straight-curve $-1 -11.68720875369948 13.594351567738762 94.891088760936526 0.60181501223851219 0 -0.79863551827123203 I I #
edge $-1 $512 7.3266644439205493 $263 13.594351567738762 $399 $519 forward 7 unknown #
point $-1 57.394329660939363 13.594351567738762 9.9915430662236417 #
point $-1 52.289185937470911 13.594351567738762 9.9915430662236417 #
edge $-1 $520 1 $520 0 $266 $-1 forward 7 unknown #
vertex $-1 $267 $521 #
ellipse-curve $-1 53.871230530312602 9.1174321935829035 5.8728209655701615 0.79863551827123203 0 0.60181501223851219 0.3009075061192561 0 -0.39931775913561601 1 I I #
point $-1 55.142665305324385 9.1174321935829035 6.2048479398502216 #
edge $-1 $522 1 $522 0 $270 $-1 forward 7 unknown #
vertex $-1 $271 $523 #
ellipse-curve $-1 53.871230530312602 11.803583818076422 5.8728209655701615 0.79863551827123203 0 0.60181501223851219 0.3009075061192561 0 -0.39931775913561601 1 I I #
point $-1 55.142665305324385 11.803583818076422 6.2048479398502216 #
plane-surface $-1 0 0 9.9915430662236417 0 0 1 1 0 0 forward_v I I I I #
coedge $-1 $426 $425 $418 $524 forward $275 $-1 #
coedge $-1 $418 $277 $279 $422 reversed $171 $-1 #
coedge $-1 $277 $417 $416 $524 reversed $171 $-1 #
coedge $-1 $285 $280 $277 $420 forward $286 $-1 #
edge $-1 $423 -19.29577444813502 $525 -9.7071382389986667 $419 $526 forward 7 unknown #
coedge $-1 $279 $278 $426 $527 reversed $107 $-1 #
edge $-1 $528 -1.9178179933549516e-014 $423 12.902782841111495 $417 $529 forward 7 unknown #
vertex $-1 $281 $530 #
straight-curve $-1 -47.805693451803009 -7.6883409829742329 9.99154306622364 0 1 0 I I #
coedge $-1 $416 $282 $285 $430 reversed $275 $-1 #
coedge $-1 $282 $416 $421 $527 forward $275 $-1 #
vertex $-1 $283 $531 #
straight-curve $-1 -57.394329660939363 -19.617657879552056 43.331246711487879 0 0 1 I I #
straight-curve $-1 -57.394329660939349 -19.617657879552056 1.3578960561982285 -0.74314481823134659 0 -0.66913061440640931 I I #
edge $-1 $525 11.135706052344876 $287 19.617657879552056 $425 $532 forward 7 unknown #
point $-1 -57.394329660939363 -19.617657879552056 9.9915430662236417 #
point $-1 -47.805693451803009 -19.617657879552056 9.9915430662236417 #
edge $-1 $533 1 $533 0 $290 $-1 forward 7 unknown #
vertex $-1 $291 $534 #
ellipse-curve $-1 -51.593558817447061 -15.376681965948464 4.5569405781199892 -0.66913061440640931 0 0.74314481823134659 1.1147172273470198 0 1.003695921609614 1 I I #
point $-1 -51.485294329024171 -15.376681965948464 6.6784154828205491 #
loop $-1 $-1 $302 $294 #
plane-surface $-1 -57.394329660939363 0 0 1 0 0 0 0 -1 forward_v I I I I #
coedge $-1 $440 $297 $299 $444 reversed $186 $-1 #
coedge $-1 $297 $439 $535 $536 reversed $186 $-1 #
coedge $-1 $305 $300 $297 $442 forward $295 $-1 #
edge $-1 $445 -19.29577444813502 $537 -9.7071382389986667 $441 $538 forward 7 unknown #
coedge $-1 $299 $298 $448 $539 reversed $116 $-1 #
edge $-1 $540 -1.9178179933549516e-014 $445 12.902782841111495 $439 $541 forward 7 unknown #
vertex $-1 $301 $542 #
straight-curve $-1 -47.805693451803009 7.6883409829742302 9.99154306622364 0 1 0 I I #
coedge $-1 $535 $302 $305 $452 reversed $437 $-1 #
coedge $-1 $302 $535 $443 $539 forward $437 $-1 #
vertex $-1 $303 $543 #
straight-curve $-1 -57.394329660939363 11.135706052344871 43.331246711487879 0 0 1 I I #
straight-curve $-1 -57.394329660939349 11.135706052344871 1.3578960561982285 -0.74314481823134659 0 -0.66913061440640931 I I #
edge $-1 $537 -19.617657879552048 $306 -11.135706052344871 $447 $544 forward 7 unknown #
point $-1 -57.394329660939363 11.135706052344871 9.9915430662236417 #
point $-1 -47.805693451803009 11.135706052344871 9.9915430662236417 #
edge $-1 $545 1 $545 0 $309 $-1 forward 7 unknown #
vertex $-1 $310 $546 #
ellipse-curve $-1 -51.593558817447061 15.376681965948467 4.5569405781199892 -0.66913061440640931 0 0.74314481823134659 1.1147172273470198 0 1.003695921609614 1 I I #
point $-1 -51.485294329024171 15.376681965948467 6.6784154828205491 #
plane-surface $-1 57.394329660939363 0 0 -1 0 0 0 0 1 forward_v I I I I #
coedge $-1 $318 $316 $320 $464 reversed $201 $-1 #
edge $-1 $331 -9.9915430662236417 $466 9.9915430662236417 $330 $547 forward 7 unknown #
vertex $-1 $464 $548 #
straight-curve $-1 -57.394329660939363 -30.415824343495398 0 0 0 -1 I I #
edge $-1 $462 -30.415824343495398 $466 30.415824343495398 $460 $549 forward 7 unknown #
straight-curve $-1 0 -30.415824343495398 -9.9915430662236417 -1 0 0 I I #
vertex $-1 $323 $550 #
straight-curve $-1 0 30.415824343495398 -9.9915430662236417 1 0 0 I I #
point $-1 57.394329660939363 30.415824343495398 -9.9915430662236417 #
point $-1 57.394329660939363 -30.415824343495398 -9.9915430662236417 #
straight-curve $-1 -57.394329660939363 0 9.9915430662236417 0 -1 0 I I #
point $-1 -57.394329660939363 30.415824343495398 9.9915430662236417 #
point $-1 -57.394329660939363 -30.415824343495398 9.9915430662236417 #
straight-curve $-1 57.394329660939363 -30.415824343495398 0 0 0 -1 I I #
straight-curve $-1 57.394329660939363 30.415824343495398 0 0 0 -1 I I #
loop $-1 $-1 $346 $340 #
plane-surface $-1 0 -30.415824343495398 0 0 1 0 0 0 1 forward_v I I I I #
coedge $-1 $357 $348 $344 $479 forward $341 $-1 #
edge $-1 $483 -17.907453787733537 $352 -7.1092873237901912 $343 $551 forward 7 unknown #
edge $-1 $353 7.1092873237901912 $482 17.907453787733537 $477 $552 forward 7 unknown #
coedge $-1 $355 $346 $360 $492 reversed $475 $-1 #
coedge $-1 $346 $355 $357 $490 reversed $475 $-1 #
vertex $-1 $490 $553 #
vertex $-1 $347 $554 #
straight-curve $-1 -39.937948594432825 -30.415824343495398 0 0 0 1 I I #
straight-curve $-1 -20.718974297216413 -19.617657879552056 -9.9915430662236417 1 0 0 I I #
straight-curve $-1 -20.718974297216413 -19.617657879552056 9.9915430662236417 -1 0 0 I I #
point $-1 -39.937948594432825 -19.617657879552056 9.9915430662236417 #
point $-1 -39.937948594432825 -19.617657879552056 -9.9915430662236417 #
straight-curve $-1 -42.937948594432825 -30.415824343495398 0 0 0 -1 I I #
edge $-1 $482 39.937948594432825 $358 42.937948594432825 $481 $555 forward 7 unknown #
point $-1 -42.937948594432825 -30.415824343495402 -9.9915430662236417 #
edge $-1 $361 -42.937948594432825 $483 -39.937948594432825 $480 $556 forward 7 unknown #
point $-1 -42.937948594432825 -30.415824343495402 9.9915430662236417 #
plane-surface $-1 0 30.415824343495398 0 0 -1 0 0 0 -1 forward_v I I I I #
coedge $-1 $368 $372 $377 $505 forward $236 $-1 #
edge $-1 $557 -17.907453787733537 $382 -7.1092873237901966 $368 $558 forward 7 unknown #
coedge $-1 $370 $369 $503 $559 reversed $141 $-1 #
edge $-1 $385 7.1092873237901966 $560 17.907453787733537 $384 $561 forward 7 unknown #
straight-curve $-1 -39.937948594432825 19.617657879552063 0 0 0 -1 I I #
straight-curve $-1 -42.937948594432825 12.508370555761866 -9.9915430662236417 0 1 0 I I #
coedge $-1 $374 $384 $376 $504 forward $366 $-1 #
straight-curve $-1 -42.937948594432825 12.508370555761866 9.9915430662236417 0 -1 0 I I #
coedge $-1 $377 $376 $497 $559 forward $378 $-1 #
edge $-1 $560 39.937948594432825 $380 42.937948594432825 $376 $562 forward 7 unknown #
edge $-1 $379 -42.937948594432825 $557 -39.937948594432825 $377 $563 forward 7 unknown #
point $-1 -42.937948594432825 30.415824343495402 -9.9915430662236417 #
point $-1 -42.937948594432825 30.415824343495402 9.9915430662236417 #
point $-1 -39.937948594432825 19.617657879552063 -9.9915430662236417 #
point $-1 -39.937948594432825 19.617657879552063 9.9915430662236417 #
coedge $-1 $400 $399 $392 $511 forward $389 $-1 #
edge $-1 $512 71.99477052156405 $515 78.769525256039657 $510 $564 forward 7 unknown #
vertex $-1 $404 $565 #
straight-curve $-1 39.993545837744513 7.3266644439205493 9.9915430662236417 1 0 0 I I #
edge $-1 $515 2.0964104410057214 $401 8.3640975648239344 $400 $566 forward 7 unknown #
vertex $-1 $514 $567 #
straight-curve $-1 -11.68720875369948 7.3266644439205493 94.891088760936526 -0.60181501223851219 0 0.79863551827123203 I I #
point $-1 52.289185937470911 7.3266644439205493 9.9915430662236417 #
point $-1 57.394329660939363 13.594351567738762 3.2167883317480346 #
straight-curve $-1 57.394329660939363 0 9.9915430662236417 0 1 0 I I #
vertex $-1 $407 $568 #
point $-1 54.172138036431861 9.1174321935829035 5.4735032064345459 #
vertex $-1 $411 $569 #
point $-1 54.172138036431861 11.803583818076422 5.4735032064345459 #
edge $-1 $525 33.339703645264237 $528 41.973350655289664 $416 $570 forward 7 unknown #
vertex $-1 $430 $571 #
straight-curve $-1 -67.101467899938029 -11.135706052344876 9.9915430662236417 -1 0 0 I I #
edge $-1 $528 3.447365069370643 $427 11.929316896577824 $426 $572 forward 7 unknown #
vertex $-1 $527 $573 #
straight-curve $-1 -57.394329660939349 -11.135706052344876 1.3578960561982285 0.74314481823134659 0 0.66913061440640931 I I #
point $-1 -47.805693451803009 -11.135706052344876 9.9915430662236417 #
point $-1 -57.394329660939363 -19.617657879552056 1.3578960561982156 #
straight-curve $-1 -57.394329660939363 0 9.9915430662236417 0 -1 0 I I #
vertex $-1 $433 $574 #
point $-1 -50.478841590100039 -15.376681965948464 5.5606364997296032 #
coedge $-1 $448 $447 $440 $536 forward $437 $-1 #
edge $-1 $537 33.339703645264237 $540 41.973350655289664 $535 $575 forward 7 unknown #
vertex $-1 $452 $576 #
straight-curve $-1 -67.101467899938029 19.617657879552048 9.9915430662236417 -1 0 0 I I #
edge $-1 $540 -11.929316896577818 $449 -3.4473650693706404 $448 $577 forward 7 unknown #
vertex $-1 $539 $578 #
straight-curve $-1 -57.394329660939349 19.617657879552048 1.3578960561982285 0.74314481823134659 0 0.66913061440640931 I I #
point $-1 -47.805693451803009 19.617657879552048 9.9915430662236417 #
point $-1 -57.394329660939363 11.135706052344871 1.3578960561982156 #
straight-curve $-1 -57.394329660939363 0 9.9915430662236417 0 -1 0 I I #
vertex $-1 $455 $579 #
point $-1 -50.478841590100039 15.376681965948467 5.5606364997296032 #
straight-curve $-1 -57.394329660939363 30.415824343495398 0 0 0 -1 I I #
point $-1 -57.394329660939363 -30.415824343495398 -9.9915430662236417 #
straight-curve $-1 -57.394329660939363 0 -9.9915430662236417 0 1 0 I I #
point $-1 -57.394329660939363 30.415824343495398 -9.9915430662236417 #
straight-curve $-1 -39.937948594432825 -12.508370555761864 9.9915430662236417 0 1 0 I I #
straight-curve $-1 -39.937948594432825 -12.508370555761864 -9.9915430662236417 0 -1 0 I I #
point $-1 -39.937948594432825 -30.415824343495402 -9.9915430662236417 #
point $-1 -39.937948594432825 -30.415824343495402 9.9915430662236417 #
straight-curve $-1 0 -30.415824343495398 -9.9915430662236417 -1 0 0 I I #
straight-curve $-1 0 -30.415824343495398 9.9915430662236417 1 0 0 I I #
vertex $-1 $559 $580 #
straight-curve $-1 -39.937948594432825 12.508370555761866 -9.9915430662236417 0 -1 0 I I #
edge $-1 $560 -9.9915430662236417 $557 9.9915430662236417 $503 $581 forward 7 unknown #
vertex $-1 $504 $582 #
straight-curve $-1 -39.937948594432825 12.508370555761866 9.9915430662236417 0 1 0 I I #
straight-curve $-1 0 30.415824343495398 9.9915430662236417 -1 0 0 I I #
straight-curve $-1 0 30.415824343495398 -9.9915430662236417 1 0 0 I I #
straight-curve $-1 57.394329660939363 7.3266644439205493 81.986313587787691 0 0 -1 I I #
point $-1 57.394329660939363 7.3266644439205493 9.9915430662236417 #
straight-curve $-1 57.394329660939363 5.2302540029148279 3.2167883317480346 0 1 0 I I #
point $-1 57.394329660939363 7.3266644439205493 3.2167883317480346 #
point $-1 53.471912771176989 9.1174321935829035 5.5719134594509061 #
point $-1 53.471912771176989 11.803583818076422 5.5719134594509061 #
straight-curve $-1 -57.394329660939363 -11.135706052344876 43.331246711487879 0 0 -1 I I #
point $-1 -57.394329660939363 -11.135706052344876 9.9915430662236417 #
straight-curve $-1 -57.394329660939363 -7.6883409829742329 1.3578960561982136 0 -1 0 I I #
point $-1 -57.394329660939363 -11.135706052344876 1.3578960561982156 #
point $-1 -50.589862895837442 -15.376681965948464 3.4422233507729691 #
straight-curve $-1 -57.394329660939363 19.617657879552048 43.331246711487879 0 0 -1 I I #
point $-1 -57.394329660939363 19.617657879552048 9.9915430662236417 #
straight-curve $-1 -57.394329660939363 7.6883409829742302 1.3578960561982136 0 -1 0 I I #
point $-1 -57.394329660939363 19.617657879552048 1.3578960561982156 #
point $-1 -50.589862895837442 15.376681965948467 3.4422233507729691 #
point $-1 -39.937948594432825 30.415824343495402 -9.9915430662236417 #
straight-curve $-1 -39.937948594432825 30.415824343495398 0 0 0 -1 I I #
point $-1 -39.937948594432825 30.415824343495402 9.9915430662236417 #
End-of-ACIS-data 