500 0 18 0           
7 Unknown 11 ACIS 5.0 NT 24 Thu Mar 25 21:50:40 1999 
-1 9.9999999999999995e-007 1e-010 
body $-1 $18 $-1 $19 #
body $-1 $20 $-1 $21 #
body $-1 $22 $-1 $23 #
body $-1 $24 $-1 $25 #
body $-1 $26 $-1 $27 #
body $-1 $28 $-1 $29 #
body $-1 $30 $-1 $31 #
body $-1 $32 $-1 $33 #
body $-1 $34 $-1 $35 #
body $-1 $36 $-1 $37 #
body $-1 $38 $-1 $39 #
body $-1 $40 $-1 $41 #
body $-1 $42 $-1 $43 #
body $-1 $44 $-1 $45 #
body $-1 $46 $-1 $47 #
body $-1 $48 $-1 $49 #
body $-1 $50 $-1 $51 #
body $-1 $52 $-1 $53 #
lump $-1 $-1 $54 $0 #
transform $-1 1 0 0 0 1 0 0 0 1 55.403302102725306 27.69640949014196 12.310520241013048 1 rotate no_reflect no_shear #
lump $-1 $-1 $55 $1 #
transform $-1 1 0 0 0 1 0 0 0 1 55.403302102725306 27.69640949014196 12.310520241013048 1 rotate no_reflect no_shear #
lump $-1 $-1 $56 $2 #
transform $-1 1 0 0 0 1 0 0 0 1 55.403302102725306 27.69640949014196 12.310520241013048 1 rotate no_reflect no_shear #
lump $-1 $-1 $57 $3 #
transform $-1 1 0 0 0 1 0 0 0 1 55.403302102725306 27.69640949014196 12.310520241013048 1 rotate no_reflect no_shear #
lump $-1 $-1 $58 $4 #
transform $-1 1 0 0 0 1 0 0 0 1 55.403302102725306 27.69640949014196 12.310520241013048 1 rotate no_reflect no_shear #
lump $-1 $-1 $59 $5 #
transform $-1 1 0 0 0 1 0 0 0 1 55.403302102725306 27.69640949014196 12.310520241013048 1 rotate no_reflect no_shear #
lump $-1 $-1 $60 $6 #
transform $-1 1 0 0 0 1 0 0 0 1 55.403302102725306 27.69640949014196 12.310520241013048 1 rotate no_reflect no_shear #
lump $-1 $-1 $61 $7 #
transform $-1 1 0 0 0 1 0 0 0 1 55.403302102725306 27.69640949014196 12.310520241013048 1 rotate no_reflect no_shear #
lump $-1 $-1 $62 $8 #
transform $-1 1 0 0 0 1 0 0 0 1 55.403302102725306 27.69640949014196 12.310520241013048 1 rotate no_reflect no_shear #
lump $-1 $-1 $63 $9 #
transform $-1 1 0 0 0 1 0 0 0 1 55.403302102725306 27.69640949014196 12.310520241013048 1 rotate no_reflect no_shear #
lump $-1 $-1 $64 $10 #
transform $-1 1 0 0 0 1 0 0 0 1 55.403302102725306 27.69640949014196 12.310520241013048 1 rotate no_reflect no_shear #
lump $-1 $-1 $65 $11 #
transform $-1 1 0 0 0 1 0 0 0 1 55.403302102725306 27.69640949014196 12.310520241013048 1 rotate no_reflect no_shear #
lump $-1 $-1 $66 $12 #
transform $-1 1 0 0 0 1 0 0 0 1 55.403302102725306 27.69640949014196 12.310520241013048 1 rotate no_reflect no_shear #
lump $-1 $-1 $67 $13 #
transform $-1 1 0 0 0 1 0 0 0 1 55.403302102725306 27.69640949014196 12.310520241013048 1 rotate no_reflect no_shear #
lump $-1 $-1 $68 $14 #
transform $-1 1 0 0 0 1 0 0 0 1 55.403302102725306 27.69640949014196 12.310520241013048 1 rotate no_reflect no_shear #
lump $-1 $-1 $69 $15 #
transform $-1 1 0 0 0 1 0 0 0 1 55.403302102725306 27.69640949014196 12.310520241013048 1 rotate no_reflect no_shear #
lump $-1 $-1 $70 $16 #
transform $-1 1 0 0 0 1 0 0 0 1 55.403302102725306 27.69640949014196 12.310520241013048 1 rotate no_reflect no_shear #
lump $-1 $-1 $71 $17 #
transform $-1 1 0 0 0 1 0 0 0 1 55.403302102725306 27.69640949014196 12.310520241013048 1 rotate no_reflect no_shear #
shell $-1 $-1 $-1 $72 $-1 $18 #
shell $-1 $-1 $-1 $73 $-1 $20 #
shell $-1 $-1 $-1 $74 $-1 $22 #
shell $-1 $-1 $-1 $75 $-1 $24 #
shell $-1 $-1 $-1 $76 $-1 $26 #
shell $-1 $-1 $-1 $77 $-1 $28 #
shell $-1 $-1 $-1 $78 $-1 $30 #
shell $-1 $-1 $-1 $79 $-1 $32 #
shell $-1 $-1 $-1 $80 $-1 $34 #
shell $-1 $-1 $-1 $81 $-1 $36 #
shell $-1 $-1 $-1 $82 $-1 $38 #
shell $-1 $-1 $-1 $83 $-1 $40 #
shell $-1 $-1 $-1 $84 $-1 $42 #
shell $-1 $-1 $-1 $85 $-1 $44 #
shell $-1 $-1 $-1 $86 $-1 $46 #
shell $-1 $-1 $-1 $87 $-1 $48 #
shell $-1 $-1 $-1 $88 $-1 $50 #
shell $-1 $-1 $-1 $89 $-1 $52 #
face $-1 $90 $91 $54 $-1 $92 forward single #
face $-1 $93 $94 $55 $-1 $95 forward single #
face $-1 $96 $97 $56 $-1 $98 reversed single #
face $-1 $99 $100 $57 $-1 $101 forward single #
face $-1 $102 $103 $58 $-1 $104 forward single #
face $-1 $105 $106 $59 $-1 $107 forward single #
face $-1 $108 $109 $60 $-1 $110 reversed single #
face $-1 $111 $112 $61 $-1 $113 forward single #
face $-1 $114 $115 $62 $-1 $116 forward single #
face $-1 $117 $118 $63 $-1 $119 forward single #
face $-1 $120 $121 $64 $-1 $122 reversed single #
face $-1 $123 $124 $65 $-1 $125 forward single #
face $-1 $126 $127 $66 $-1 $128 forward single #
face $-1 $129 $130 $67 $-1 $131 forward single #
face $-1 $132 $133 $68 $-1 $134 reversed single #
face $-1 $135 $136 $69 $-1 $137 forward single #
face $-1 $138 $139 $70 $-1 $140 forward single #
face $-1 $141 $142 $71 $-1 $143 forward single #
face $-1 $144 $145 $54 $-1 $146 reversed single #
loop $-1 $-1 $147 $72 #
plane-surface $-1 0 0 12.310520241013048 0 0 1 1 0 0 forward_v I I I I #
face $-1 $148 $149 $55 $-1 $150 reversed single #
loop $-1 $-1 $151 $73 #
plane-surface $-1 -55.403302102725306 0 0 1 0 0 0 0 -1 forward_v I I I I #
face $-1 $152 $153 $56 $-1 $154 reversed single #
loop $-1 $-1 $155 $74 #
plane-surface $-1 95.961336490629193 -13.848204745070978 155.95923117156099 0 -1 0 -0.86602541151947299 0 -0.49999998660252726 forward_v I I I I #
face $-1 $156 $157 $57 $-1 $158 forward single #
loop $-1 $159 $160 $75 #
cone-surface $-1 52.388675026636569 -19.202283152434518 7.9980495595044161 -0.86602541151947299 0 -0.49999998660252726 0.24999999330126363 0 -0.43301270575973649 1 I I 0 1 0.5 forward I I I I #
face $-1 $161 $162 $58 $-1 $163 forward single #
loop $-1 $164 $165 $76 #
cone-surface $-1 52.388675026636569 -17.194503749673189 7.9980495595044161 -0.86602541151947299 0 -0.49999998660252726 0.24999999330126363 0 -0.43301270575973649 1 I I 0 1 0.5 forward I I I I #
face $-1 $166 $167 $59 $-1 $168 forward single #
loop $-1 $169 $170 $77 #
cone-surface $-1 52.388675026636569 -15.186724346911864 7.9980495595044161 -0.86602541151947299 0 -0.49999998660252726 0.24999999330126363 0 -0.43301270575973649 1 I I 0 1 0.5 forward I I I I #
face $-1 $171 $172 $60 $-1 $173 reversed single #
loop $-1 $-1 $174 $78 #
plane-surface $-1 95.961336490629193 1.7763568394002505e-015 155.95923117156099 0 -1 0 -0.86602541151947299 0 -0.49999998660252726 forward_v I I I I #
face $-1 $175 $176 $61 $-1 $177 forward single #
loop $-1 $178 $179 $79 #
cone-surface $-1 52.388675026636569 -5.3540784073635379 7.9980495595044161 -0.86602541151947299 0 -0.49999998660252726 0.24999999330126363 0 -0.43301270575973649 1 I I 0 1 0.5 forward I I I I #
face $-1 $180 $181 $62 $-1 $182 forward single #
loop $-1 $183 $184 $80 #
cone-surface $-1 52.388675026636569 -3.3462990046022085 7.9980495595044161 -0.86602541151947299 0 -0.49999998660252726 0.24999999330126363 0 -0.43301270575973649 1 I I 0 1 0.5 forward I I I I #
face $-1 $185 $186 $63 $-1 $187 forward single #
loop $-1 $188 $189 $81 #
cone-surface $-1 52.388675026636569 -1.3385196018408863 7.9980495595044161 -0.86602541151947299 0 -0.49999998660252726 0.24999999330126363 0 -0.43301270575973649 1 I I 0 1 0.5 forward I I I I #
face $-1 $190 $191 $64 $-1 $192 reversed single #
loop $-1 $-1 $193 $82 #
plane-surface $-1 95.961336490629193 13.848204745070982 155.95923117156099 0 -1 0 -0.86602541151947299 0 -0.49999998660252726 forward_v I I I I #
face $-1 $194 $195 $65 $-1 $196 forward single #
loop $-1 $197 $198 $83 #
cone-surface $-1 52.388675026636569 8.4941263377074421 7.9980495595044161 -0.86602541151947299 0 -0.49999998660252726 0.24999999330126363 0 -0.43301270575973649 1 I I 0 1 0.5 forward I I I I #
face $-1 $199 $200 $66 $-1 $201 forward single #
loop $-1 $202 $203 $84 #
cone-surface $-1 52.388675026636569 10.501905740468771 7.9980495595044161 -0.86602541151947299 0 -0.49999998660252726 0.24999999330126363 0 -0.43301270575973649 1 I I 0 1 0.5 forward I I I I #
face $-1 $204 $205 $67 $-1 $206 forward single #
loop $-1 $207 $208 $85 #
cone-surface $-1 52.388675026636569 12.509685143230094 7.9980495595044161 -0.86602541151947299 0 -0.49999998660252726 0.24999999330126363 0 -0.43301270575973649 1 I I 0 1 0.5 forward I I I I #
face $-1 $209 $210 $68 $-1 $211 reversed single #
loop $-1 $-1 $212 $86 #
plane-surface $-1 95.961336490629193 21.003811480937543 155.95923117156099 0 1 0 0.86602541151947299 0 0.49999998660252726 forward_v I I I I #
face $-1 $213 $214 $69 $-1 $215 forward single #
loop $-1 $216 $217 $87 #
cone-surface $-1 52.388675026636569 22.342331082778422 7.9980495595044161 -0.86602541151947299 0 -0.49999998660252726 0.24999999330126363 0 -0.43301270575973649 1 I I 0 1 0.5 forward I I I I #
face $-1 $218 $219 $70 $-1 $220 forward single #
loop $-1 $221 $222 $88 #
cone-surface $-1 52.388675026636569 24.350110485539751 7.9980495595044161 -0.86602541151947299 0 -0.49999998660252726 0.24999999330126363 0 -0.43301270575973649 1 I I 0 1 0.5 forward I I I I #
face $-1 $223 $224 $71 $-1 $225 forward single #
loop $-1 $226 $227 $89 #
cone-surface $-1 52.388675026636569 26.357889888301074 7.9980495595044161 -0.86602541151947299 0 -0.49999998660252726 0.24999999330126363 0 -0.43301270575973649 1 I I 0 1 0.5 forward I I I I #
face $-1 $228 $229 $54 $-1 $230 reversed single #
loop $-1 $-1 $231 $90 #
plane-surface $-1 0 0 -12.310520241013048 0 0 1 1 0 0 forward_v I I I I #
coedge $-1 $232 $233 $234 $235 forward $91 $-1 #
face $-1 $236 $237 $55 $-1 $238 reversed single #
loop $-1 $-1 $239 $93 #
plane-surface $-1 0 0 -12.310520241013048 0 0 1 1 0 0 forward_v I I I I #
coedge $-1 $240 $241 $242 $243 forward $94 $-1 #
face $-1 $244 $245 $56 $-1 $246 reversed single #
loop $-1 $-1 $247 $96 #
plane-surface $-1 1.4845284681541671e-006 -17.194503749673189 100.55593055336413 0.86602541151947299 0 0.49999998660252726 0.49999998660252726 0 -0.86602541151947299 forward_v I I I I #
coedge $-1 $248 $249 $250 $251 reversed $97 $-1 #
face $-1 $-1 $252 $57 $-1 $253 forward single #
loop $-1 $254 $255 $99 #
cone-surface $-1 51.384937117582311 -19.202283152434518 7.4185412282199685 -0.86602541151947299 0 -0.49999998660252726 0.12499999665063181 0 -0.21650635287986825 1 I I -0.70710678118654746 0.70710678118654746 0.25 forward I I I I #
loop $-1 $-1 $256 $75 #
coedge $-1 $160 $160 $257 $258 reversed $100 $-1 #
face $-1 $-1 $259 $58 $-1 $260 forward single #
loop $-1 $261 $262 $102 #
cone-surface $-1 51.384937117582311 -17.194503749673189 7.4185412282199685 -0.86602541151947299 0 -0.49999998660252726 0.12499999665063181 0 -0.21650635287986825 1 I I -0.70710678118654746 0.70710678118654746 0.25 forward I I I I #
loop $-1 $-1 $263 $76 #
coedge $-1 $165 $165 $264 $265 reversed $103 $-1 #
face $-1 $-1 $266 $59 $-1 $267 forward single #
loop $-1 $268 $269 $105 #
cone-surface $-1 51.384937117582311 -15.186724346911864 7.4185412282199685 -0.86602541151947299 0 -0.49999998660252726 0.12499999665063181 0 -0.21650635287986825 1 I I -0.70710678118654746 0.70710678118654746 0.25 forward I I I I #
loop $-1 $-1 $270 $77 #
coedge $-1 $170 $170 $271 $272 reversed $106 $-1 #
face $-1 $273 $274 $60 $-1 $275 reversed single #
loop $-1 $-1 $276 $108 #
plane-surface $-1 1.4845284681541671e-006 -3.3462990046022085 100.55593055336413 0.86602541151947299 0 0.49999998660252726 0.49999998660252726 0 -0.86602541151947299 forward_v I I I I #
coedge $-1 $277 $278 $279 $280 reversed $109 $-1 #
face $-1 $-1 $281 $61 $-1 $282 forward single #
loop $-1 $283 $284 $111 #
cone-surface $-1 51.384937117582311 -5.3540784073635379 7.4185412282199685 -0.86602541151947299 0 -0.49999998660252726 0.12499999665063181 0 -0.21650635287986825 1 I I -0.70710678118654746 0.70710678118654746 0.25 forward I I I I #
loop $-1 $-1 $285 $79 #
coedge $-1 $179 $179 $286 $287 reversed $112 $-1 #
face $-1 $-1 $288 $62 $-1 $289 forward single #
loop $-1 $290 $291 $114 #
cone-surface $-1 51.384937117582311 -3.3462990046022085 7.4185412282199685 -0.86602541151947299 0 -0.49999998660252726 0.12499999665063181 0 -0.21650635287986825 1 I I -0.70710678118654746 0.70710678118654746 0.25 forward I I I I #
loop $-1 $-1 $292 $80 #
coedge $-1 $184 $184 $293 $294 reversed $115 $-1 #
face $-1 $-1 $295 $63 $-1 $296 forward single #
loop $-1 $297 $298 $117 #
cone-surface $-1 51.384937117582311 -1.3385196018408863 7.4185412282199685 -0.86602541151947299 0 -0.49999998660252726 0.12499999665063181 0 -0.21650635287986825 1 I I -0.70710678118654746 0.70710678118654746 0.25 forward I I I I #
loop $-1 $-1 $299 $81 #
coedge $-1 $189 $189 $300 $301 reversed $118 $-1 #
face $-1 $302 $303 $64 $-1 $304 reversed single #
loop $-1 $-1 $305 $120 #
plane-surface $-1 1.4845284681541671e-006 10.501905740468771 100.55593055336413 0.86602541151947299 0 0.49999998660252726 0.49999998660252726 0 -0.86602541151947299 forward_v I I I I #
coedge $-1 $306 $307 $308 $309 reversed $121 $-1 #
face $-1 $-1 $310 $65 $-1 $311 forward single #
loop $-1 $312 $313 $123 #
cone-surface $-1 51.384937117582311 8.4941263377074421 7.4185412282199685 -0.86602541151947299 0 -0.49999998660252726 0.12499999665063181 0 -0.21650635287986825 1 I I -0.70710678118654746 0.70710678118654746 0.25 forward I I I I #
loop $-1 $-1 $314 $83 #
coedge $-1 $198 $198 $315 $316 reversed $124 $-1 #
face $-1 $-1 $317 $66 $-1 $318 forward single #
loop $-1 $319 $320 $126 #
cone-surface $-1 51.384937117582311 10.501905740468771 7.4185412282199685 -0.86602541151947299 0 -0.49999998660252726 0.12499999665063181 0 -0.21650635287986825 1 I I -0.70710678118654746 0.70710678118654746 0.25 forward I I I I #
loop $-1 $-1 $321 $84 #
coedge $-1 $203 $203 $322 $323 reversed $127 $-1 #
face $-1 $-1 $324 $67 $-1 $325 forward single #
loop $-1 $326 $327 $129 #
cone-surface $-1 51.384937117582311 12.509685143230094 7.4185412282199685 -0.86602541151947299 0 -0.49999998660252726 0.12499999665063181 0 -0.21650635287986825 1 I I -0.70710678118654746 0.70710678118654746 0.25 forward I I I I #
loop $-1 $-1 $328 $85 #
coedge $-1 $208 $208 $329 $330 reversed $130 $-1 #
face $-1 $331 $332 $68 $-1 $333 reversed single #
loop $-1 $-1 $334 $132 #
plane-surface $-1 1.4845284681541671e-006 24.350110485539751 100.55593055336413 0.86602541151947299 0 0.49999998660252726 0.49999998660252726 0 -0.86602541151947299 forward_v I I I I #
coedge $-1 $335 $336 $337 $338 reversed $133 $-1 #
face $-1 $-1 $339 $69 $-1 $340 forward single #
loop $-1 $341 $342 $135 #
cone-surface $-1 51.384937117582311 22.342331082778422 7.4185412282199685 -0.86602541151947299 0 -0.49999998660252726 0.12499999665063181 0 -0.21650635287986825 1 I I -0.70710678118654746 0.70710678118654746 0.25 forward I I I I #
loop $-1 $-1 $343 $87 #
coedge $-1 $217 $217 $344 $345 reversed $136 $-1 #
face $-1 $-1 $346 $70 $-1 $347 forward single #
loop $-1 $348 $349 $138 #
cone-surface $-1 51.384937117582311 24.350110485539751 7.4185412282199685 -0.86602541151947299 0 -0.49999998660252726 0.12499999665063181 0 -0.21650635287986825 1 I I -0.70710678118654746 0.70710678118654746 0.25 forward I I I I #
loop $-1 $-1 $350 $88 #
coedge $-1 $222 $222 $351 $352 reversed $139 $-1 #
face $-1 $-1 $353 $71 $-1 $354 forward single #
loop $-1 $355 $356 $141 #
cone-surface $-1 51.384937117582311 26.357889888301074 7.4185412282199685 -0.86602541151947299 0 -0.49999998660252726 0.12499999665063181 0 -0.21650635287986825 1 I I -0.70710678118654746 0.70710678118654746 0.25 forward I I I I #
loop $-1 $-1 $357 $89 #
coedge $-1 $227 $227 $358 $359 reversed $142 $-1 #
face $-1 $360 $361 $54 $-1 $362 reversed single #
loop $-1 $-1 $363 $144 #
plane-surface $-1 0 -27.69640949014196 0 0 1 0 0 0 1 forward_v I I I I #
coedge $-1 $364 $365 $366 $367 forward $145 $-1 #
coedge $-1 $368 $147 $369 $370 forward $91 $-1 #
coedge $-1 $147 $368 $371 $372 forward $91 $-1 #
coedge $-1 $373 $374 $147 $235 reversed $375 $-1 #
edge $-1 $376 -27.69640949014196 $377 27.69640949014196 $234 $378 forward 7 unknown #
face $-1 $379 $380 $55 $-1 $381 reversed single #
loop $-1 $-1 $382 $148 #
plane-surface $-1 -60.602799685546735 -21.926751664438164 0 0 1 0 0 0 1 forward_v I I I I #
coedge $-1 $383 $384 $241 $385 forward $149 $-1 #
coedge $-1 $386 $151 $387 $388 reversed $94 $-1 #
coedge $-1 $151 $386 $239 $385 reversed $94 $-1 #
coedge $-1 $389 $390 $151 $243 reversed $391 $-1 #
edge $-1 $392 -12.310520241013048 $393 12.310520241013048 $242 $394 forward 7 unknown #
face $-1 $395 $396 $56 $-1 $397 forward single #
loop $-1 $-1 $398 $152 #
plane-surface $-1 95.961336490629193 -20.540802754275397 155.95923117156099 0 1 0 0.86602541151947299 0 0.49999998660252726 forward_v I I I I #
coedge $-1 $399 $400 $401 $402 reversed $153 $-1 #
coedge $-1 $249 $155 $403 $404 reversed $97 $-1 #
coedge $-1 $155 $248 $399 $405 reversed $97 $-1 #
coedge $-1 $401 $406 $155 $251 forward $396 $-1 #
edge $-1 $407 -7.4226338574107089 $408 -2.9678428175819889 $250 $409 forward 7 unknown #
loop $-1 $-1 $257 $156 #
plane-surface $-1 1.4845284681541671e-006 -17.194503749673189 100.55593055336413 0.86602541151947299 0 0.49999998660252726 0.49999998660252726 0 -0.86602541151947299 forward_v I I I I #
loop $-1 $-1 $410 $99 #
coedge $-1 $255 $255 $256 $411 reversed $157 $-1 #
coedge $-1 $256 $256 $255 $411 forward $159 $-1 #
coedge $-1 $257 $257 $160 $258 forward $252 $-1 #
edge $-1 $412 0 $412 6.2831853071796004 $257 $413 forward 7 unknown #
loop $-1 $-1 $264 $161 #
plane-surface $-1 1.4845284681541671e-006 -17.194503749673189 100.55593055336413 0.86602541151947299 0 0.49999998660252726 0.49999998660252726 0 -0.86602541151947299 forward_v I I I I #
loop $-1 $-1 $414 $102 #
coedge $-1 $262 $262 $263 $415 reversed $162 $-1 #
coedge $-1 $263 $263 $262 $415 forward $164 $-1 #
coedge $-1 $264 $264 $165 $265 forward $259 $-1 #
edge $-1 $416 0 $416 6.2831853071796004 $264 $417 forward 7 unknown #
loop $-1 $-1 $271 $166 #
plane-surface $-1 1.4845284681541671e-006 -17.194503749673189 100.55593055336413 0.86602541151947299 0 0.49999998660252726 0.49999998660252726 0 -0.86602541151947299 forward_v I I I I #
loop $-1 $-1 $418 $105 #
coedge $-1 $269 $269 $270 $419 reversed $167 $-1 #
coedge $-1 $270 $270 $269 $419 forward $169 $-1 #
coedge $-1 $271 $271 $170 $272 forward $266 $-1 #
edge $-1 $420 0 $420 6.2831853071796004 $271 $421 forward 7 unknown #
face $-1 $422 $423 $60 $-1 $424 reversed single #
loop $-1 $-1 $425 $171 #
plane-surface $-1 95.961336490629193 -6.6925980092044188 155.95923117156099 0 1 0 0.86602541151947299 0 0.49999998660252726 forward_v I I I I #
coedge $-1 $426 $427 $428 $429 reversed $172 $-1 #
coedge $-1 $278 $174 $430 $431 reversed $109 $-1 #
coedge $-1 $174 $277 $426 $432 reversed $109 $-1 #
coedge $-1 $428 $433 $174 $280 forward $434 $-1 #
edge $-1 $435 -7.4226338574107089 $436 -2.9678428175819889 $279 $437 forward 7 unknown #
loop $-1 $-1 $286 $175 #
plane-surface $-1 1.4845284681541671e-006 -3.3462990046022085 100.55593055336413 0.86602541151947299 0 0.49999998660252726 0.49999998660252726 0 -0.86602541151947299 forward_v I I I I #
loop $-1 $-1 $438 $111 #
coedge $-1 $284 $284 $285 $439 reversed $176 $-1 #
coedge $-1 $285 $285 $284 $439 forward $178 $-1 #
coedge $-1 $286 $286 $179 $287 forward $281 $-1 #
edge $-1 $440 0 $440 6.2831853071796004 $286 $441 forward 7 unknown #
loop $-1 $-1 $293 $180 #
plane-surface $-1 1.4845284681541671e-006 -3.3462990046022085 100.55593055336413 0.86602541151947299 0 0.49999998660252726 0.49999998660252726 0 -0.86602541151947299 forward_v I I I I #
loop $-1 $-1 $442 $114 #
coedge $-1 $291 $291 $292 $443 reversed $181 $-1 #
coedge $-1 $292 $292 $291 $443 forward $183 $-1 #
coedge $-1 $293 $293 $184 $294 forward $288 $-1 #
edge $-1 $444 0 $444 6.2831853071796004 $293 $445 forward 7 unknown #
loop $-1 $-1 $300 $185 #
plane-surface $-1 1.4845284681541671e-006 -3.3462990046022085 100.55593055336413 0.86602541151947299 0 0.49999998660252726 0.49999998660252726 0 -0.86602541151947299 forward_v I I I I #
loop $-1 $-1 $446 $117 #
coedge $-1 $298 $298 $299 $447 reversed $186 $-1 #
coedge $-1 $299 $299 $298 $447 forward $188 $-1 #
coedge $-1 $300 $300 $189 $301 forward $295 $-1 #
edge $-1 $448 0 $448 6.2831853071796004 $300 $449 forward 7 unknown #
face $-1 $450 $451 $64 $-1 $452 reversed single #
loop $-1 $-1 $453 $190 #
plane-surface $-1 95.961336490629193 7.1556067358665612 155.95923117156099 0 1 0 0.86602541151947299 0 0.49999998660252726 forward_v I I I I #
coedge $-1 $454 $455 $456 $457 reversed $191 $-1 #
coedge $-1 $307 $193 $458 $459 reversed $121 $-1 #
coedge $-1 $193 $306 $454 $460 reversed $121 $-1 #
coedge $-1 $456 $461 $193 $309 forward $462 $-1 #
edge $-1 $463 -7.4226338574107089 $464 -2.9678428175819889 $308 $465 forward 7 unknown #
loop $-1 $-1 $315 $194 #
plane-surface $-1 1.4845284681541671e-006 10.501905740468771 100.55593055336413 0.86602541151947299 0 0.49999998660252726 0.49999998660252726 0 -0.86602541151947299 forward_v I I I I #
loop $-1 $-1 $466 $123 #
coedge $-1 $313 $313 $314 $467 reversed $195 $-1 #
coedge $-1 $314 $314 $313 $467 forward $197 $-1 #
coedge $-1 $315 $315 $198 $316 forward $310 $-1 #
edge $-1 $468 0 $468 6.2831853071796004 $315 $469 forward 7 unknown #
loop $-1 $-1 $322 $199 #
plane-surface $-1 1.4845284681541671e-006 10.501905740468771 100.55593055336413 0.86602541151947299 0 0.49999998660252726 0.49999998660252726 0 -0.86602541151947299 forward_v I I I I #
loop $-1 $-1 $470 $126 #
coedge $-1 $320 $320 $321 $471 reversed $200 $-1 #
coedge $-1 $321 $321 $320 $471 forward $202 $-1 #
coedge $-1 $322 $322 $203 $323 forward $317 $-1 #
edge $-1 $472 0 $472 6.2831853071796004 $322 $473 forward 7 unknown #
loop $-1 $-1 $329 $204 #
plane-surface $-1 1.4845284681541671e-006 10.501905740468771 100.55593055336413 0.86602541151947299 0 0.49999998660252726 0.49999998660252726 0 -0.86602541151947299 forward_v I I I I #
loop $-1 $-1 $474 $129 #
coedge $-1 $327 $327 $328 $475 reversed $205 $-1 #
coedge $-1 $328 $328 $327 $475 forward $207 $-1 #
coedge $-1 $329 $329 $208 $330 forward $324 $-1 #
edge $-1 $476 0 $476 6.2831853071796004 $329 $477 forward 7 unknown #
face $-1 $478 $479 $68 $-1 $480 reversed single #
loop $-1 $-1 $337 $209 #
plane-surface $-1 55.403302102725306 0 0 -1 0 0 0 0 1 forward_v I I I I #
coedge $-1 $481 $482 $483 $484 reversed $210 $-1 #
coedge $-1 $336 $212 $485 $486 reversed $133 $-1 #
coedge $-1 $212 $335 $481 $487 reversed $133 $-1 #
coedge $-1 $483 $488 $212 $338 forward $332 $-1 #
edge $-1 $489 65.669095344767442 $490 73.385020038517084 $337 $491 forward 7 unknown #
loop $-1 $-1 $344 $213 #
plane-surface $-1 1.4845284681541671e-006 24.350110485539751 100.55593055336413 0.86602541151947299 0 0.49999998660252726 0.49999998660252726 0 -0.86602541151947299 forward_v I I I I #
loop $-1 $-1 $492 $135 #
coedge $-1 $342 $342 $343 $493 reversed $214 $-1 #
coedge $-1 $343 $343 $342 $493 forward $216 $-1 #
coedge $-1 $344 $344 $217 $345 forward $339 $-1 #
edge $-1 $494 0 $494 6.2831853071796004 $344 $495 forward 7 unknown #
loop $-1 $-1 $351 $218 #
plane-surface $-1 1.4845284681541671e-006 24.350110485539751 100.55593055336413 0.86602541151947299 0 0.49999998660252726 0.49999998660252726 0 -0.86602541151947299 forward_v I I I I #
loop $-1 $-1 $496 $138 #
coedge $-1 $349 $349 $350 $497 reversed $219 $-1 #
coedge $-1 $350 $350 $349 $497 forward $221 $-1 #
coedge $-1 $351 $351 $222 $352 forward $346 $-1 #
edge $-1 $498 0 $498 6.2831853071796004 $351 $499 forward 7 unknown #
loop $-1 $-1 $358 $223 #
plane-surface $-1 1.4845284681541671e-006 24.350110485539751 100.55593055336413 0.86602541151947299 0 0.49999998660252726 0.49999998660252726 0 -0.86602541151947299 forward_v I I I I #
loop $-1 $-1 $500 $141 #
coedge $-1 $356 $356 $357 $501 reversed $224 $-1 #
coedge $-1 $357 $357 $356 $501 forward $226 $-1 #
coedge $-1 $358 $358 $227 $359 forward $353 $-1 #
edge $-1 $502 0 $502 6.2831853071796004 $358 $503 forward 7 unknown #
face $-1 $504 $505 $54 $-1 $506 reversed single #
loop $-1 $-1 $507 $228 #
plane-surface $-1 -55.403302102725306 0 0 1 0 0 0 0 -1 forward_v I I I I #
coedge $-1 $508 $371 $509 $510 forward $229 $-1 #
coedge $-1 $511 $231 $508 $512 forward $145 $-1 #
coedge $-1 $231 $511 $513 $514 forward $145 $-1 #
coedge $-1 $374 $373 $231 $367 reversed $375 $-1 #
edge $-1 $515 -27.69640949014196 $516 27.69640949014196 $366 $517 forward 7 unknown #
coedge $-1 $233 $232 $518 $519 forward $91 $-1 #
coedge $-1 $520 $521 $232 $370 reversed $505 $-1 #
edge $-1 $377 -55.403302102725306 $522 55.403302102725306 $369 $523 forward 7 unknown #
coedge $-1 $363 $524 $233 $372 reversed $229 $-1 #
edge $-1 $525 -55.403302102725306 $376 55.403302102725306 $371 $526 forward 7 unknown #
coedge $-1 $366 $234 $524 $527 forward $375 $-1 #
coedge $-1 $234 $366 $520 $528 reversed $375 $-1 #
loop $-1 $-1 $373 $504 #
vertex $-1 $235 $529 #
vertex $-1 $235 $530 #
straight-curve $-1 55.403302102725306 0 12.310520241013048 0 1 0 I I #
face $-1 $531 $391 $55 $-1 $532 reversed single #
loop $-1 $-1 $533 $236 #
plane-surface $-1 -65.802297268368164 -20.426751664438164 0 1 0 0 0 0 -1 forward_v I I I I #
coedge $-1 $534 $535 $536 $537 forward $237 $-1 #
coedge $-1 $538 $239 $534 $539 forward $149 $-1 #
coedge $-1 $239 $538 $389 $540 forward $149 $-1 #
edge $-1 $392 18.926751664438164 $541 21.926751664438164 $239 $542 forward 7 unknown #
coedge $-1 $241 $240 $543 $544 forward $94 $-1 #
coedge $-1 $545 $546 $240 $388 forward $547 $-1 #
edge $-1 $548 -21.926751664438164 $393 -18.926751664438164 $387 $549 forward 7 unknown #
coedge $-1 $550 $242 $384 $540 reversed $391 $-1 #
coedge $-1 $242 $550 $545 $551 reversed $391 $-1 #
loop $-1 $-1 $242 $379 #
vertex $-1 $385 $552 #
vertex $-1 $551 $553 #
straight-curve $-1 -55.403302102725306 -18.926751664438164 0 0 0 1 I I #
face $-1 $-1 $554 $56 $-1 $555 reversed single #
loop $-1 $-1 $250 $244 #
plane-surface $-1 0 0 12.310520241013048 0 0 1 1 0 0 forward_v I I I I #
coedge $-1 $556 $557 $558 $559 reversed $245 $-1 #
coedge $-1 $560 $247 $249 $405 forward $153 $-1 #
coedge $-1 $247 $560 $556 $561 forward $153 $-1 #
coedge $-1 $558 $250 $247 $402 forward $396 $-1 #
edge $-1 $408 5.250952870234384 $562 11.943550879438803 $401 $563 forward 7 unknown #
coedge $-1 $564 $565 $248 $404 forward $554 $-1 #
edge $-1 $566 -73.385020038517084 $407 -65.669095344767442 $403 $567 forward 7 unknown #
edge $-1 $408 101.89702188706137 $566 110.8066042054506 $249 $568 forward 7 unknown #
coedge $-1 $250 $558 $564 $569 forward $396 $-1 #
vertex $-1 $251 $570 #
vertex $-1 $251 $571 #
straight-curve $-1 47.980668245314597 -13.848204745070978 12.310520241013052 -1 0 0 I I #
coedge $-1 $410 $410 $-1 $572 reversed $254 $-1 #
edge $-1 $573 0 $573 6.2831853071796004 $255 $574 forward 7 unknown #
vertex $-1 $258 $575 #
ellipse-curve $-1 53.175906582810953 -19.202283152434518 8.4525578941382289 0.86602541151947299 0 0.49999998660252726 0.24999999330126363 0 -0.43301270575973649 1 I I #
coedge $-1 $414 $414 $-1 $576 reversed $261 $-1 #
edge $-1 $577 0 $577 6.2831853071796004 $262 $578 forward 7 unknown #
vertex $-1 $265 $579 #
ellipse-curve $-1 53.175906582810953 -17.194503749673189 8.4525578941382289 0.86602541151947299 0 0.49999998660252726 0.24999999330126363 0 -0.43301270575973649 1 I I #
coedge $-1 $418 $418 $-1 $580 reversed $268 $-1 #
edge $-1 $581 0 $581 6.2831853071796004 $269 $582 forward 7 unknown #
vertex $-1 $272 $583 #
ellipse-curve $-1 53.175906582810953 -15.186724346911864 8.4525578941382289 0.86602541151947299 0 0.49999998660252726 0.24999999330126363 0 -0.43301270575973649 1 I I #
face $-1 $-1 $434 $60 $-1 $584 forward single #
loop $-1 $-1 $585 $273 #
plane-surface $-1 55.403302102725306 0 0 -1 0 0 0 0 1 forward_v I I I I #
coedge $-1 $586 $587 $588 $589 reversed $274 $-1 #
coedge $-1 $590 $276 $278 $432 forward $172 $-1 #
coedge $-1 $276 $590 $586 $591 forward $172 $-1 #
coedge $-1 $588 $279 $276 $429 forward $434 $-1 #
edge $-1 $436 -1.673149502301106 $592 5.0194485069033146 $428 $593 forward 7 unknown #
coedge $-1 $594 $595 $277 $431 forward $423 $-1 #
edge $-1 $596 -73.385020038517084 $435 -65.669095344767442 $430 $597 forward 7 unknown #
edge $-1 $436 101.89702188706137 $596 110.8066042054506 $278 $598 forward 7 unknown #
coedge $-1 $279 $588 $594 $599 forward $434 $-1 #
loop $-1 $-1 $588 $422 #
vertex $-1 $431 $600 #
vertex $-1 $280 $601 #
straight-curve $-1 47.980668245314597 1.7763568394002505e-015 12.310520241013052 -1 0 0 I I #
coedge $-1 $438 $438 $-1 $602 reversed $283 $-1 #
edge $-1 $603 0 $603 6.2831853071796004 $284 $604 forward 7 unknown #
vertex $-1 $287 $605 #
ellipse-curve $-1 53.175906582810953 -5.3540784073635379 8.4525578941382289 0.86602541151947299 0 0.49999998660252726 0.24999999330126363 0 -0.43301270575973649 1 I I #
coedge $-1 $442 $442 $-1 $606 reversed $290 $-1 #
edge $-1 $607 0 $607 6.2831853071796004 $291 $608 forward 7 unknown #
vertex $-1 $294 $609 #
ellipse-curve $-1 53.175906582810953 -3.3462990046022085 8.4525578941382289 0.86602541151947299 0 0.49999998660252726 0.24999999330126363 0 -0.43301270575973649 1 I I #
coedge $-1 $446 $446 $-1 $610 reversed $297 $-1 #
edge $-1 $611 0 $611 6.2831853071796004 $298 $612 forward 7 unknown #
vertex $-1 $301 $613 #
ellipse-curve $-1 53.175906582810953 -1.3385196018408863 8.4525578941382289 0.86602541151947299 0 0.49999998660252726 0.24999999330126363 0 -0.43301270575973649 1 I I #
face $-1 $-1 $462 $64 $-1 $614 forward single #
loop $-1 $-1 $615 $302 #
plane-surface $-1 55.403302102725306 0 0 -1 0 0 0 0 1 forward_v I I I I #
coedge $-1 $616 $617 $618 $619 reversed $303 $-1 #
coedge $-1 $620 $305 $307 $460 forward $191 $-1 #
coedge $-1 $305 $620 $616 $621 forward $191 $-1 #
coedge $-1 $618 $308 $305 $457 forward $462 $-1 #
edge $-1 $464 -8.597251874836596 $622 -1.9046538656321754 $456 $623 forward 7 unknown #
coedge $-1 $624 $625 $306 $459 forward $451 $-1 #
edge $-1 $626 -73.385020038517084 $463 -65.669095344767442 $458 $627 forward 7 unknown #
edge $-1 $464 101.89702188706137 $626 110.8066042054506 $307 $628 forward 7 unknown #
coedge $-1 $308 $618 $624 $629 forward $462 $-1 #
loop $-1 $-1 $618 $450 #
vertex $-1 $459 $630 #
vertex $-1 $309 $631 #
straight-curve $-1 47.980668245314597 13.848204745070982 12.310520241013052 -1 0 0 I I #
coedge $-1 $466 $466 $-1 $632 reversed $312 $-1 #
edge $-1 $633 0 $633 6.2831853071796004 $313 $634 forward 7 unknown #
vertex $-1 $316 $635 #
ellipse-curve $-1 53.175906582810953 8.4941263377074421 8.4525578941382289 0.86602541151947299 0 0.49999998660252726 0.24999999330126363 0 -0.43301270575973649 1 I I #
coedge $-1 $470 $470 $-1 $636 reversed $319 $-1 #
edge $-1 $637 0 $637 6.2831853071796004 $320 $638 forward 7 unknown #
vertex $-1 $323 $639 #
ellipse-curve $-1 53.175906582810953 10.501905740468771 8.4525578941382289 0.86602541151947299 0 0.49999998660252726 0.24999999330126363 0 -0.43301270575973649 1 I I #
coedge $-1 $474 $474 $-1 $640 reversed $326 $-1 #
edge $-1 $641 0 $641 6.2831853071796004 $327 $642 forward 7 unknown #
vertex $-1 $330 $643 #
ellipse-curve $-1 53.175906582810953 12.509685143230094 8.4525578941382289 0.86602541151947299 0 0.49999998660252726 0.24999999330126363 0 -0.43301270575973649 1 I I #
face $-1 $-1 $644 $68 $-1 $645 forward single #
loop $-1 $-1 $646 $331 #
plane-surface $-1 0 27.69640949014196 0 0 -1 0 0 0 -1 forward_v I I I I #
coedge $-1 $647 $334 $336 $487 forward $210 $-1 #
coedge $-1 $334 $647 $646 $648 reversed $210 $-1 #
coedge $-1 $649 $337 $334 $484 forward $332 $-1 #
edge $-1 $490 8.8287562381676672 $650 15.521354247372084 $483 $651 forward 7 unknown #
coedge $-1 $652 $653 $335 $486 forward $644 $-1 #
edge $-1 $654 2.9678428175819889 $489 7.4226338574107089 $485 $655 forward 7 unknown #
edge $-1 $490 -110.8066042054506 $654 -101.89702188706137 $336 $656 forward 7 unknown #
coedge $-1 $337 $649 $652 $657 reversed $332 $-1 #
vertex $-1 $657 $658 #
vertex $-1 $338 $659 #
straight-curve $-1 55.403302102725306 21.003811480937543 77.979615585780493 0 0 -1 I I #
coedge $-1 $492 $492 $-1 $660 reversed $341 $-1 #
edge $-1 $661 0 $661 6.2831853071796004 $342 $662 forward 7 unknown #
vertex $-1 $345 $663 #
ellipse-curve $-1 53.175906582810953 22.342331082778422 8.4525578941382289 0.86602541151947299 0 0.49999998660252726 0.24999999330126363 0 -0.43301270575973649 1 I I #
coedge $-1 $496 $496 $-1 $664 reversed $348 $-1 #
edge $-1 $665 0 $665 6.2831853071796004 $349 $666 forward 7 unknown #
vertex $-1 $352 $667 #
ellipse-curve $-1 53.175906582810953 24.350110485539751 8.4525578941382289 0.86602541151947299 0 0.49999998660252726 0.24999999330126363 0 -0.43301270575973649 1 I I #
coedge $-1 $500 $500 $-1 $668 reversed $355 $-1 #
edge $-1 $669 0 $669 6.2831853071796004 $356 $670 forward 7 unknown #
vertex $-1 $359 $671 #
ellipse-curve $-1 53.175906582810953 26.357889888301074 8.4525578941382289 0.86602541151947299 0 0.49999998660252726 0.24999999330126363 0 -0.43301270575973649 1 I I #
face $-1 $-1 $375 $54 $-1 $672 reversed single #
loop $-1 $-1 $520 $360 #
plane-surface $-1 0 27.69640949014196 0 0 -1 0 0 0 -1 forward_v I I I I #
coedge $-1 $673 $518 $521 $674 forward $361 $-1 #
coedge $-1 $524 $363 $364 $512 reversed $229 $-1 #
coedge $-1 $518 $673 $363 $510 reversed $361 $-1 #
edge $-1 $525 -12.310520241013048 $675 12.310520241013048 $509 $676 forward 7 unknown #
coedge $-1 $365 $364 $673 $677 forward $145 $-1 #
edge $-1 $516 -55.403302102725306 $675 55.403302102725306 $508 $678 forward 7 unknown #
coedge $-1 $521 $520 $365 $514 reversed $505 $-1 #
edge $-1 $679 -55.403302102725306 $515 55.403302102725306 $513 $680 forward 7 unknown #
vertex $-1 $367 $681 #
vertex $-1 $527 $682 #
straight-curve $-1 55.403302102725306 0 -12.310520241013048 0 -1 0 I I #
coedge $-1 $507 $509 $368 $519 reversed $361 $-1 #
edge $-1 $522 -27.69640949014196 $525 27.69640949014196 $518 $683 forward 7 unknown #
coedge $-1 $513 $369 $374 $528 forward $505 $-1 #
coedge $-1 $369 $513 $507 $674 reversed $505 $-1 #
vertex $-1 $370 $684 #
straight-curve $-1 0 27.69640949014196 12.310520241013048 -1 0 0 I I #
coedge $-1 $371 $508 $373 $527 reversed $229 $-1 #
vertex $-1 $519 $685 #
straight-curve $-1 0 -27.69640949014196 12.310520241013048 1 0 0 I I #
edge $-1 $376 -12.310520241013048 $516 12.310520241013048 $373 $686 forward 7 unknown #
edge $-1 $377 -12.310520241013048 $515 12.310520241013048 $374 $687 forward 7 unknown #
point $-1 55.403302102725306 -27.69640949014196 12.310520241013048 #
point $-1 55.403302102725306 27.69640949014196 12.310520241013048 #
face $-1 $-1 $547 $55 $-1 $688 forward single #
plane-surface $-1 -60.602799685546735 -18.926751664438164 0 0 -1 0 0 0 -1 forward_v I I I I #
coedge $-1 $689 $690 $550 $691 forward $380 $-1 #
coedge $-1 $543 $382 $383 $539 reversed $237 $-1 #
coedge $-1 $382 $543 $546 $692 reversed $237 $-1 #
coedge $-1 $690 $689 $382 $537 reversed $380 $-1 #
edge $-1 $693 -12.310520241013048 $694 12.310520241013048 $536 $695 forward 7 unknown #
coedge $-1 $384 $383 $689 $696 forward $149 $-1 #
edge $-1 $541 -5.1994975828214294 $694 5.1994975828214294 $534 $697 forward 7 unknown #
edge $-1 $698 -5.1994975828214294 $392 5.1994975828214294 $389 $699 forward 7 unknown #
vertex $-1 $539 $700 #
straight-curve $-1 -55.403302102725306 0 -12.310520241013048 0 -1 0 I I #
coedge $-1 $535 $534 $386 $544 reversed $237 $-1 #
edge $-1 $548 -12.310520241013048 $541 12.310520241013048 $543 $701 forward 7 unknown #
coedge $-1 $702 $387 $390 $551 forward $547 $-1 #
coedge $-1 $387 $702 $535 $692 forward $547 $-1 #
loop $-1 $-1 $387 $531 #
vertex $-1 $388 $703 #
straight-curve $-1 -55.403302102725306 0 12.310520241013048 0 1 0 I I #
coedge $-1 $390 $389 $533 $691 reversed $391 $-1 #
edge $-1 $393 -5.1994975828214294 $704 5.1994975828214294 $390 $705 forward 7 unknown #
point $-1 -55.403302102725306 -18.926751664438164 -12.310520241013048 #
point $-1 -55.403302102725306 -18.926751664438164 12.310520241013048 #
loop $-1 $-1 $403 $395 #
plane-surface $-1 55.403302102725306 0 0 -1 0 0 0 0 1 forward_v I I I I #
coedge $-1 $557 $398 $400 $561 reversed $245 $-1 #
coedge $-1 $398 $556 $706 $707 reversed $245 $-1 #
coedge $-1 $406 $401 $398 $559 forward $396 $-1 #
edge $-1 $562 2.9678428175819889 $708 7.4226338574107089 $558 $709 forward 7 unknown #
coedge $-1 $400 $399 $565 $710 reversed $153 $-1 #
edge $-1 $711 -110.8066042054506 $562 -101.89702188706137 $556 $712 forward 7 unknown #
vertex $-1 $402 $713 #
straight-curve $-1 50.948511062896586 -8.5972518748365943 12.310520241013052 0 -1 0 I I #
coedge $-1 $706 $403 $406 $569 reversed $554 $-1 #
coedge $-1 $403 $706 $560 $710 forward $554 $-1 #
vertex $-1 $404 $714 #
straight-curve $-1 55.403302102725306 -13.848204745070978 77.979615585780493 0 0 1 I I #
straight-curve $-1 1.4845284681541671e-006 -13.848204745070978 100.55593055336413 0.49999998660252726 0 -0.86602541151947299 I I #
edge $-1 $708 -20.540802754275397 $407 -13.848204745070978 $564 $715 forward 7 unknown #
point $-1 55.403302102725306 -13.848204745070978 12.310520241013048 #
point $-1 50.948511062896586 -13.848204745070978 12.310520241013052 #
edge $-1 $716 1 $716 0 $410 $-1 forward 7 unknown #
vertex $-1 $411 $717 #
ellipse-curve $-1 51.601443470462179 -19.202283152434518 7.5435412248706006 0.86602541151947299 0 0.49999998660252726 0.24999999330126363 0 -0.43301270575973649 1 I I #
point $-1 53.425906576112219 -19.202283152434518 8.0195451883784941 #
edge $-1 $718 1 $718 0 $414 $-1 forward 7 unknown #
vertex $-1 $415 $719 #
ellipse-curve $-1 51.601443470462179 -17.194503749673189 7.5435412248706006 0.86602541151947299 0 0.49999998660252726 0.24999999330126363 0 -0.43301270575973649 1 I I #
point $-1 53.425906576112219 -17.194503749673189 8.0195451883784941 #
edge $-1 $720 1 $720 0 $418 $-1 forward 7 unknown #
vertex $-1 $419 $721 #
ellipse-curve $-1 51.601443470462179 -15.186724346911864 7.5435412248706006 0.86602541151947299 0 0.49999998660252726 0.24999999330126363 0 -0.43301270575973649 1 I I #
point $-1 53.425906576112219 -15.186724346911864 8.0195451883784941 #
plane-surface $-1 0 0 12.310520241013048 0 0 1 1 0 0 forward_v I I I I #
coedge $-1 $595 $594 $587 $722 forward $423 $-1 #
coedge $-1 $587 $425 $427 $591 reversed $274 $-1 #
coedge $-1 $425 $586 $585 $722 reversed $274 $-1 #
coedge $-1 $433 $428 $425 $589 forward $434 $-1 #
edge $-1 $592 2.9678428175819889 $723 7.4226338574107089 $588 $724 forward 7 unknown #
coedge $-1 $427 $426 $595 $725 reversed $172 $-1 #
edge $-1 $726 -110.8066042054506 $592 -101.89702188706137 $586 $727 forward 7 unknown #
vertex $-1 $429 $728 #
straight-curve $-1 50.948511062896586 -1.6731495023011043 12.310520241013052 0 -1 0 I I #
coedge $-1 $585 $430 $433 $599 reversed $423 $-1 #
coedge $-1 $430 $585 $590 $725 forward $423 $-1 #
vertex $-1 $431 $729 #
straight-curve $-1 55.403302102725306 1.7763568394002505e-015 77.979615585780493 0 0 1 I I #
straight-curve $-1 1.4845284681541671e-006 1.7763568394002505e-015 100.55593055336413 0.49999998660252726 0 -0.86602541151947299 I I #
edge $-1 $723 -6.6925980092044188 $435 1.7763568394002505e-015 $594 $730 forward 7 unknown #
point $-1 55.403302102725306 1.7763568394002505e-015 12.310520241013048 #
point $-1 50.948511062896586 1.7763568394002505e-015 12.310520241013052 #
edge $-1 $731 1 $731 0 $438 $-1 forward 7 unknown #
vertex $-1 $439 $732 #
ellipse-curve $-1 51.601443470462179 -5.3540784073635379 7.5435412248706006 0.86602541151947299 0 0.49999998660252726 0.24999999330126363 0 -0.43301270575973649 1 I I #
point $-1 53.425906576112219 -5.3540784073635379 8.0195451883784941 #
edge $-1 $733 1 $733 0 $442 $-1 forward 7 unknown #
vertex $-1 $443 $734 #
ellipse-curve $-1 51.601443470462179 -3.3462990046022085 7.5435412248706006 0.86602541151947299 0 0.49999998660252726 0.24999999330126363 0 -0.43301270575973649 1 I I #
point $-1 53.425906576112219 -3.3462990046022085 8.0195451883784941 #
edge $-1 $735 1 $735 0 $446 $-1 forward 7 unknown #
vertex $-1 $447 $736 #
ellipse-curve $-1 51.601443470462179 -1.3385196018408863 7.5435412248706006 0.86602541151947299 0 0.49999998660252726 0.24999999330126363 0 -0.43301270575973649 1 I I #
point $-1 53.425906576112219 -1.3385196018408863 8.0195451883784941 #
plane-surface $-1 0 0 12.310520241013048 0 0 1 1 0 0 forward_v I I I I #
coedge $-1 $625 $624 $617 $737 forward $451 $-1 #
coedge $-1 $617 $453 $455 $621 reversed $303 $-1 #
coedge $-1 $453 $616 $615 $737 reversed $303 $-1 #
coedge $-1 $461 $456 $453 $619 forward $462 $-1 #
edge $-1 $622 2.9678428175819889 $738 7.4226338574107089 $618 $739 forward 7 unknown #
coedge $-1 $455 $454 $625 $740 reversed $191 $-1 #
edge $-1 $741 -110.8066042054506 $622 -101.89702188706137 $616 $742 forward 7 unknown #
vertex $-1 $457 $743 #
straight-curve $-1 50.948511062896586 5.2509528702343857 12.310520241013052 0 -1 0 I I #
coedge $-1 $615 $458 $461 $629 reversed $451 $-1 #
coedge $-1 $458 $615 $620 $740 forward $451 $-1 #
vertex $-1 $459 $744 #
straight-curve $-1 55.403302102725306 13.848204745070982 77.979615585780493 0 0 1 I I #
straight-curve $-1 1.4845284681541671e-006 13.848204745070982 100.55593055336413 0.49999998660252726 0 -0.86602541151947299 I I #
edge $-1 $738 7.1556067358665612 $463 13.848204745070982 $624 $745 forward 7 unknown #
point $-1 55.403302102725306 13.848204745070982 12.310520241013048 #
point $-1 50.948511062896586 13.848204745070982 12.310520241013052 #
edge $-1 $746 1 $746 0 $466 $-1 forward 7 unknown #
vertex $-1 $467 $747 #
ellipse-curve $-1 51.601443470462179 8.4941263377074421 7.5435412248706006 0.86602541151947299 0 0.49999998660252726 0.24999999330126363 0 -0.43301270575973649 1 I I #
point $-1 53.425906576112219 8.4941263377074421 8.0195451883784941 #
edge $-1 $748 1 $748 0 $470 $-1 forward 7 unknown #
vertex $-1 $471 $749 #
ellipse-curve $-1 51.601443470462179 10.501905740468771 7.5435412248706006 0.86602541151947299 0 0.49999998660252726 0.24999999330126363 0 -0.43301270575973649 1 I I #
point $-1 53.425906576112219 10.501905740468771 8.0195451883784941 #
edge $-1 $750 1 $750 0 $474 $-1 forward 7 unknown #
vertex $-1 $475 $751 #
ellipse-curve $-1 51.601443470462179 12.509685143230094 7.5435412248706006 0.86602541151947299 0 0.49999998660252726 0.24999999330126363 0 -0.43301270575973649 1 I I #
point $-1 53.425906576112219 12.509685143230094 8.0195451883784941 #
loop $-1 $-1 $485 $478 #
plane-surface $-1 0 0 12.310520241013048 0 0 1 1 0 0 forward_v I I I I #
coedge $-1 $752 $753 $482 $648 forward $479 $-1 #
coedge $-1 $482 $481 $653 $754 reversed $210 $-1 #
edge $-1 $650 -67.264609007482335 $755 -58.355026689093123 $646 $756 forward 7 unknown #
coedge $-1 $488 $483 $753 $757 reversed $332 $-1 #
vertex $-1 $648 $758 #
straight-curve $-1 55.403302102725306 12.175055242769876 4.5945955472634097 0 1 0 I I #
coedge $-1 $759 $485 $488 $657 forward $644 $-1 #
coedge $-1 $485 $759 $647 $754 forward $644 $-1 #
vertex $-1 $486 $760 #
straight-curve $-1 47.980668245314597 21.003811480937543 12.310520241013052 1 0 0 I I #
straight-curve $-1 1.4845284681541671e-006 21.003811480937543 100.55593055336413 -0.49999998660252726 0 0.86602541151947299 I I #
edge $-1 $489 21.003811480937543 $761 27.69640949014196 $488 $762 forward 7 unknown #
point $-1 55.403302102725306 21.003811480937543 12.310520241013048 #
point $-1 55.403302102725306 21.003811480937543 4.5945955472634097 #
edge $-1 $763 1 $763 0 $492 $-1 forward 7 unknown #
vertex $-1 $493 $764 #
ellipse-curve $-1 51.601443470462179 22.342331082778422 7.5435412248706006 0.86602541151947299 0 0.49999998660252726 0.24999999330126363 0 -0.43301270575973649 1 I I #
point $-1 53.425906576112219 22.342331082778422 8.0195451883784941 #
edge $-1 $765 1 $765 0 $496 $-1 forward 7 unknown #
vertex $-1 $497 $766 #
ellipse-curve $-1 51.601443470462179 24.350110485539751 7.5435412248706006 0.86602541151947299 0 0.49999998660252726 0.24999999330126363 0 -0.43301270575973649 1 I I #
point $-1 53.425906576112219 24.350110485539751 8.0195451883784941 #
edge $-1 $767 1 $767 0 $500 $-1 forward 7 unknown #
vertex $-1 $501 $768 #
ellipse-curve $-1 51.601443470462179 26.357889888301074 7.5435412248706006 0.86602541151947299 0 0.49999998660252726 0.24999999330126363 0 -0.43301270575973649 1 I I #
point $-1 53.425906576112219 26.357889888301074 8.0195451883784941 #
plane-surface $-1 55.403302102725306 0 0 -1 0 0 0 0 1 forward_v I I I I #
coedge $-1 $509 $507 $511 $677 reversed $361 $-1 #
edge $-1 $522 -12.310520241013048 $679 12.310520241013048 $521 $769 forward 7 unknown #
vertex $-1 $677 $770 #
straight-curve $-1 -55.403302102725306 -27.69640949014196 0 0 0 -1 I I #
edge $-1 $675 -27.69640949014196 $679 27.69640949014196 $673 $771 forward 7 unknown #
straight-curve $-1 0 -27.69640949014196 -12.310520241013048 -1 0 0 I I #
vertex $-1 $514 $772 #
straight-curve $-1 0 27.69640949014196 -12.310520241013048 1 0 0 I I #
point $-1 55.403302102725306 27.69640949014196 -12.310520241013048 #
point $-1 55.403302102725306 -27.69640949014196 -12.310520241013048 #
straight-curve $-1 -55.403302102725306 0 12.310520241013048 0 -1 0 I I #
point $-1 -55.403302102725306 27.69640949014196 12.310520241013048 #
point $-1 -55.403302102725306 -27.69640949014196 12.310520241013048 #
straight-curve $-1 55.403302102725306 -27.69640949014196 0 0 0 -1 I I #
straight-curve $-1 55.403302102725306 27.69640949014196 0 0 0 -1 I I #
plane-surface $-1 0 0 12.310520241013048 0 0 1 1 0 0 forward_v I I I I #
coedge $-1 $536 $533 $538 $696 reversed $380 $-1 #
coedge $-1 $533 $536 $702 $773 reversed $380 $-1 #
edge $-1 $704 -12.310520241013048 $698 12.310520241013048 $550 $774 forward 7 unknown #
edge $-1 $693 -5.1994975828214294 $548 5.1994975828214294 $535 $775 forward 7 unknown #
vertex $-1 $773 $776 #
vertex $-1 $696 $777 #
straight-curve $-1 -65.802297268368164 -21.926751664438164 0 0 0 -1 I I #
edge $-1 $694 -1.5 $698 1.5 $689 $778 forward 7 unknown #
straight-curve $-1 -60.602799685546735 -21.926751664438164 -12.310520241013048 -1 0 0 I I #
vertex $-1 $540 $779 #
straight-curve $-1 -60.602799685546735 -18.926751664438164 -12.310520241013048 1 0 0 I I #
point $-1 -55.403302102725306 -21.926751664438164 -12.310520241013048 #
straight-curve $-1 -55.403302102725306 -21.926751664438164 0 0 0 -1 I I #
coedge $-1 $546 $545 $690 $773 forward $547 $-1 #
point $-1 -55.403302102725306 -21.926751664438164 12.310520241013048 #
vertex $-1 $551 $780 #
straight-curve $-1 -60.602799685546735 -18.926751664438164 12.310520241013048 -1 0 0 I I #
coedge $-1 $565 $564 $557 $707 forward $554 $-1 #
edge $-1 $708 65.669095344767442 $711 73.385020038517084 $706 $781 forward 7 unknown #
vertex $-1 $569 $782 #
straight-curve $-1 47.980668245314597 -20.540802754275397 12.310520241013052 1 0 0 I I #
edge $-1 $711 -11.943550879438803 $566 -5.250952870234384 $565 $783 forward 7 unknown #
vertex $-1 $710 $784 #
straight-curve $-1 1.4845284681541671e-006 -20.540802754275397 100.55593055336413 -0.49999998660252726 0 0.86602541151947299 I I #
point $-1 50.948511062896586 -20.540802754275397 12.310520241013052 #
point $-1 55.403302102725306 -13.848204745070978 4.5945955472634097 #
straight-curve $-1 55.403302102725306 0 12.310520241013048 0 1 0 I I #
vertex $-1 $572 $785 #
point $-1 51.851443463763445 -19.202283152434518 7.110528519110864 #
vertex $-1 $576 $786 #
point $-1 51.851443463763445 -17.194503749673189 7.110528519110864 #
vertex $-1 $580 $787 #
point $-1 51.851443463763445 -15.186724346911864 7.110528519110864 #
edge $-1 $723 65.669095344767442 $726 73.385020038517084 $585 $788 forward 7 unknown #
vertex $-1 $599 $789 #
straight-curve $-1 47.980668245314597 -6.6925980092044188 12.310520241013052 1 0 0 I I #
edge $-1 $726 -5.0194485069033146 $596 1.673149502301106 $595 $790 forward 7 unknown #
vertex $-1 $725 $791 #
straight-curve $-1 1.4845284681541671e-006 -6.6925980092044188 100.55593055336413 -0.49999998660252726 0 0.86602541151947299 I I #
point $-1 50.948511062896586 -6.6925980092044188 12.310520241013052 #
point $-1 55.403302102725306 1.7763568394002505e-015 4.5945955472634097 #
straight-curve $-1 55.403302102725306 0 12.310520241013048 0 1 0 I I #
vertex $-1 $602 $792 #
point $-1 51.851443463763445 -5.3540784073635379 7.110528519110864 #
vertex $-1 $606 $793 #
point $-1 51.851443463763445 -3.3462990046022085 7.110528519110864 #
vertex $-1 $610 $794 #
point $-1 51.851443463763445 -1.3385196018408863 7.110528519110864 #
edge $-1 $738 65.669095344767442 $741 73.385020038517084 $615 $795 forward 7 unknown #
vertex $-1 $629 $796 #
straight-curve $-1 47.980668245314597 7.1556067358665612 12.310520241013052 1 0 0 I I #
edge $-1 $741 1.9046538656321754 $626 8.597251874836596 $625 $797 forward 7 unknown #
vertex $-1 $740 $798 #
straight-curve $-1 1.4845284681541671e-006 7.1556067358665612 100.55593055336413 -0.49999998660252726 0 0.86602541151947299 I I #
point $-1 50.948511062896586 7.1556067358665612 12.310520241013052 #
point $-1 55.403302102725306 13.848204745070982 4.5945955472634097 #
straight-curve $-1 55.403302102725306 0 12.310520241013048 0 1 0 I I #
vertex $-1 $632 $799 #
point $-1 51.851443463763445 8.4941263377074421 7.110528519110864 #
vertex $-1 $636 $800 #
point $-1 51.851443463763445 10.501905740468771 7.110528519110864 #
vertex $-1 $640 $801 #
point $-1 51.851443463763445 12.509685143230094 7.110528519110864 #
coedge $-1 $753 $646 $759 $802 reversed $479 $-1 #
coedge $-1 $646 $752 $649 $757 forward $479 $-1 #
edge $-1 $755 -15.521354247372084 $654 -8.8287562381676672 $653 $803 forward 7 unknown #
vertex $-1 $648 $804 #
straight-curve $-1 21.770998500159902 27.69640949014196 62.847456243664759 -0.49999998660252726 0 0.86602541151947299 I I #
edge $-1 $761 -12.310520241013048 $650 -4.5945955472634159 $649 $805 forward 7 unknown #
point $-1 55.403302102725306 27.69640949014196 4.5945955472634159 #
coedge $-1 $653 $652 $752 $802 forward $644 $-1 #
point $-1 50.948511062896586 21.003811480937543 12.310520241013052 #
vertex $-1 $657 $806 #
straight-curve $-1 55.403302102725306 0 12.310520241013048 0 1 0 I I #
vertex $-1 $660 $807 #
point $-1 51.851443463763445 22.342331082778422 7.110528519110864 #
vertex $-1 $664 $808 #
point $-1 51.851443463763445 24.350110485539751 7.110528519110864 #
vertex $-1 $668 $809 #
point $-1 51.851443463763445 26.357889888301074 7.110528519110864 #
straight-curve $-1 -55.403302102725306 27.69640949014196 0 0 0 -1 I I #
point $-1 -55.403302102725306 -27.69640949014196 -12.310520241013048 #
straight-curve $-1 -55.403302102725306 0 -12.310520241013048 0 1 0 I I #
point $-1 -55.403302102725306 27.69640949014196 -12.310520241013048 #
edge $-1 $704 -1.5 $693 1.5 $690 $810 forward 7 unknown #
straight-curve $-1 -65.802297268368164 -18.926751664438164 0 0 0 -1 I I #
straight-curve $-1 -60.602799685546735 -21.926751664438164 12.310520241013048 1 0 0 I I #
point $-1 -65.802297268368164 -21.926751664438164 12.310520241013048 #
point $-1 -65.802297268368164 -21.926751664438164 -12.310520241013048 #
straight-curve $-1 -65.802297268368164 -20.426751664438164 -12.310520241013048 0 1 0 I I #
point $-1 -65.802297268368164 -18.926751664438164 -12.310520241013048 #
point $-1 -65.802297268368164 -18.926751664438164 12.310520241013048 #
straight-curve $-1 55.403302102725306 -20.540802754275397 77.979615585780493 0 0 -1 I I #
point $-1 55.403302102725306 -20.540802754275397 12.310520241013048 #
straight-curve $-1 55.403302102725306 -8.5972518748365943 4.5945955472634097 0 1 0 I I #
point $-1 55.403302102725306 -20.540802754275397 4.5945955472634097 #
point $-1 51.168430764702443 -19.202283152434518 7.2935412315693364 #
point $-1 51.168430764702443 -17.194503749673189 7.2935412315693364 #
point $-1 51.168430764702443 -15.186724346911864 7.2935412315693364 #
straight-curve $-1 55.403302102725306 -6.6925980092044188 77.979615585780493 0 0 -1 I I #
point $-1 55.403302102725306 -6.6925980092044188 12.310520241013048 #
straight-curve $-1 55.403302102725306 -1.6731495023011043 4.5945955472634097 0 1 0 I I #
point $-1 55.403302102725306 -6.6925980092044188 4.5945955472634097 #
point $-1 51.168430764702443 -5.3540784073635379 7.2935412315693364 #
point $-1 51.168430764702443 -3.3462990046022085 7.2935412315693364 #
point $-1 51.168430764702443 -1.3385196018408863 7.2935412315693364 #
straight-curve $-1 55.403302102725306 7.1556067358665612 77.979615585780493 0 0 -1 I I #
point $-1 55.403302102725306 7.1556067358665612 12.310520241013048 #
straight-curve $-1 55.403302102725306 5.2509528702343857 4.5945955472634097 0 1 0 I I #
point $-1 55.403302102725306 7.1556067358665612 4.5945955472634097 #
point $-1 51.168430764702443 8.4941263377074421 7.2935412315693364 #
point $-1 51.168430764702443 10.501905740468771 7.2935412315693364 #
point $-1 51.168430764702443 12.509685143230094 7.2935412315693364 #
edge $-1 $761 -55.403302102725306 $755 -50.948511062896586 $752 $811 forward 7 unknown #
straight-curve $-1 50.948511062896586 12.175055242769876 12.310520241013052 0 -1 0 I I #
point $-1 50.948511062896586 27.69640949014196 12.310520241013052 #
straight-curve $-1 55.403302102725306 27.69640949014196 0 0 0 -1 I I #
point $-1 55.403302102725306 27.69640949014196 12.310520241013048 #
point $-1 51.168430764702443 22.342331082778422 7.2935412315693364 #
point $-1 51.168430764702443 24.350110485539751 7.2935412315693364 #
point $-1 51.168430764702443 26.357889888301074 7.2935412315693364 #
straight-curve $-1 -65.802297268368164 -20.426751664438164 12.310520241013048 0 -1 0 I I #
straight-curve $-1 0 27.69640949014196 12.310520241013048 -1 0 0 I I #
End-of-ACIS-data 