500 0 10 0           
7 Unknown 11 ACIS 5.0 NT 24 Thu Mar 25 16:14:20 1999 
-1 9.9999999999999995e-007 1e-010 
body $-1 $10 $-1 $11 #
body $-1 $12 $-1 $13 #
body $-1 $14 $-1 $15 #
body $-1 $16 $-1 $17 #
body $-1 $18 $-1 $19 #
body $-1 $20 $-1 $21 #
body $-1 $22 $-1 $23 #
body $-1 $24 $-1 $25 #
body $-1 $26 $-1 $27 #
body $-1 $28 $-1 $29 #
lump $-1 $-1 $30 $0 #
transform $-1 1 0 0 0 1 0 0 0 1 52.987456892605366 34.074684832683303 14.417084737185425 1 rotate no_reflect no_shear #
lump $-1 $-1 $31 $1 #
transform $-1 1 0 0 0 1 0 0 0 1 52.987456892605366 34.074684832683303 14.417084737185425 1 rotate no_reflect no_shear #
lump $-1 $-1 $32 $2 #
transform $-1 1 0 0 0 1 0 0 0 1 52.987456892605366 34.074684832683303 14.417084737185425 1 rotate no_reflect no_shear #
lump $-1 $-1 $33 $3 #
transform $-1 1 0 0 0 1 0 0 0 1 52.987456892605366 34.074684832683303 14.417084737185425 1 rotate no_reflect no_shear #
lump $-1 $-1 $34 $4 #
transform $-1 1 0 0 0 1 0 0 0 1 52.987456892605366 34.074684832683303 14.417084737185425 1 rotate no_reflect no_shear #
lump $-1 $-1 $35 $5 #
transform $-1 1 0 0 0 1 0 0 0 1 52.987456892605366 34.074684832683303 14.417084737185425 1 rotate no_reflect no_shear #
lump $-1 $-1 $36 $6 #
transform $-1 1 0 0 0 1 0 0 0 1 52.987456892605366 34.074684832683303 14.417084737185425 1 rotate no_reflect no_shear #
lump $-1 $-1 $37 $7 #
transform $-1 1 0 0 0 1 0 0 0 1 52.987456892605366 34.074684832683303 14.417084737185425 1 rotate no_reflect no_shear #
lump $-1 $-1 $38 $8 #
transform $-1 1 0 0 0 1 0 0 0 1 52.987456892605366 34.074684832683303 14.417084737185425 1 rotate no_reflect no_shear #
lump $-1 $-1 $39 $9 #
transform $-1 1 0 0 0 1 0 0 0 1 52.987456892605366 34.074684832683303 14.417084737185425 1 rotate no_reflect no_shear #
shell $-1 $-1 $-1 $40 $-1 $10 #
shell $-1 $-1 $-1 $41 $-1 $12 #
shell $-1 $-1 $-1 $42 $-1 $14 #
shell $-1 $-1 $-1 $43 $-1 $16 #
shell $-1 $-1 $-1 $44 $-1 $18 #
shell $-1 $-1 $-1 $45 $-1 $20 #
shell $-1 $-1 $-1 $46 $-1 $22 #
shell $-1 $-1 $-1 $47 $-1 $24 #
shell $-1 $-1 $-1 $48 $-1 $26 #
shell $-1 $-1 $-1 $49 $-1 $28 #
face $-1 $50 $51 $30 $-1 $52 forward single #
face $-1 $53 $54 $31 $-1 $55 reversed single #
face $-1 $56 $57 $32 $-1 $58 forward single #
face $-1 $59 $60 $33 $-1 $61 forward single #
face $-1 $62 $63 $34 $-1 $64 reversed single #
face $-1 $65 $66 $35 $-1 $67 forward single #
face $-1 $68 $69 $36 $-1 $70 forward single #
face $-1 $71 $72 $37 $-1 $73 reversed single #
face $-1 $74 $75 $38 $-1 $76 forward single #
face $-1 $77 $78 $39 $-1 $79 forward single #
face $-1 $80 $81 $30 $-1 $82 reversed single #
loop $-1 $-1 $83 $40 #
plane-surface $-1 0 0 14.417084737185425 0 0 1 1 0 0 forward_v I I I I #
face $-1 $84 $85 $31 $-1 $86 reversed single #
loop $-1 $-1 $87 $41 #
plane-surface $-1 -123.89851606536968 25.35005972787522 79.178750283429721 0 1 0 -0.66913061440640931 0 0.74314481823134659 forward_v I I I I #
face $-1 $88 $89 $32 $-1 $90 forward single #
loop $-1 $91 $92 $42 #
cone-surface $-1 -44.00218529663448 27.842809757820383 6.0713384516514433 0.66913061440640931 0 -0.74314481823134659 0.74314481823134659 0 0.66913061440640931 1 I I 0 1 1 forward I I I I #
face $-1 $93 $94 $33 $-1 $95 forward single #
loop $-1 $96 $97 $43 #
cone-surface $-1 -44.00218529663448 31.581934802738132 6.0713384516514433 0.66913061440640931 0 -0.74314481823134659 0.74314481823134659 0 0.66913061440640931 1 I I 0 1 1 forward I I I I #
face $-1 $98 $99 $34 $-1 $100 reversed single #
loop $-1 $-1 $101 $44 #
plane-surface $-1 32.129424178556633 -4.0898735191724986 149.14293904395478 0 -1 0 -0.6018150307709319 0 -0.79863550430605224 forward_v I I I I #
face $-1 $102 $103 $35 $-1 $104 forward single #
loop $-1 $105 $106 $45 #
cone-surface $-1 43.605070659843712 -14.979870573340385 7.1743817807992629 -0.6018150307709319 0 -0.79863550430605224 0.39931775215302612 0 -0.30090751538546595 1 I I 0 1 0.5 forward I I I I #
face $-1 $107 $108 $36 $-1 $109 forward single #
loop $-1 $110 $111 $46 #
cone-surface $-1 43.605070659843712 -8.4458723408396565 7.1743817807992629 -0.6018150307709319 0 -0.79863550430605224 0.39931775215302612 0 -0.30090751538546595 1 I I 0 1 0.5 forward I I I I #
face $-1 $112 $113 $37 $-1 $114 reversed single #
loop $-1 $-1 $115 $47 #
plane-surface $-1 32.129424178556633 19.335869395007535 149.14293904395478 0 -1 0 -0.6018150307709319 0 -0.79863550430605224 forward_v I I I I #
face $-1 $116 $117 $38 $-1 $118 forward single #
loop $-1 $119 $120 $48 #
cone-surface $-1 43.605070659843712 8.4458723408396565 7.1743817807992629 -0.6018150307709319 0 -0.79863550430605224 0.39931775215302612 0 -0.30090751538546595 1 I I 0 1 0.5 forward I I I I #
face $-1 $121 $122 $39 $-1 $123 forward single #
loop $-1 $124 $125 $49 #
cone-surface $-1 43.605070659843712 14.979870573340378 7.1743817807992629 -0.6018150307709319 0 -0.79863550430605224 0.39931775215302612 0 -0.30090751538546595 1 I I 0 1 0.5 forward I I I I #
face $-1 $126 $127 $30 $-1 $128 reversed single #
loop $-1 $-1 $129 $50 #
plane-surface $-1 0 0 -14.417084737185425 0 0 1 1 0 0 forward_v I I I I #
coedge $-1 $130 $131 $132 $133 forward $51 $-1 #
face $-1 $134 $135 $31 $-1 $136 forward single #
loop $-1 $-1 $137 $53 #
plane-surface $-1 -52.987456892605366 29.712372280279261 0.42404224143666625 -0.66913061440640931 0 0.74314481823134659 0.74314481823134659 0 0.66913061440640931 forward_v I I I I #
coedge $-1 $138 $139 $140 $141 reversed $54 $-1 #
face $-1 $-1 $142 $32 $-1 $143 forward single #
loop $-1 $144 $145 $56 #
cone-surface $-1 -42.452772282398456 27.842809757820383 4.3505410048761757 0.66913061440640931 0 -0.74314481823134659 0.3715724091156733 0 0.33456530720320465 1 I I -0.70710678118654746 0.70710678118654746 0.5 forward I I I I #
loop $-1 $-1 $146 $42 #
coedge $-1 $92 $92 $147 $148 reversed $57 $-1 #
face $-1 $-1 $149 $33 $-1 $150 forward single #
loop $-1 $151 $152 $59 #
cone-surface $-1 -42.452772282398456 31.581934802738132 4.3505410048761757 0.66913061440640931 0 -0.74314481823134659 0.3715724091156733 0 0.33456530720320465 1 I I -0.70710678118654746 0.70710678118654746 0.5 forward I I I I #
loop $-1 $-1 $153 $43 #
coedge $-1 $97 $97 $154 $155 reversed $60 $-1 #
face $-1 $156 $157 $34 $-1 $158 reversed single #
loop $-1 $-1 $159 $62 #
plane-surface $-1 -31.647871822036819 -11.712871457090017 64.507610329312598 0.6018150307709319 0 0.79863550430605224 0.79863550430605224 0 -0.6018150307709319 forward_v I I I I #
coedge $-1 $160 $161 $162 $163 reversed $63 $-1 #
face $-1 $-1 $164 $35 $-1 $165 forward single #
loop $-1 $166 $167 $65 #
cone-surface $-1 43.153709386765513 -14.979870573340385 6.5754051525697239 -0.6018150307709319 0 -0.79863550430605224 0.19965887607651306 0 -0.15045375769273298 1 I I -0.70710678118654746 0.70710678118654746 0.25 forward I I I I #
loop $-1 $-1 $168 $45 #
coedge $-1 $106 $106 $169 $170 reversed $66 $-1 #
face $-1 $-1 $171 $36 $-1 $172 forward single #
loop $-1 $173 $174 $68 #
cone-surface $-1 43.153709386765513 -8.4458723408396565 6.5754051525697239 -0.6018150307709319 0 -0.79863550430605224 0.19965887607651306 0 -0.15045375769273298 1 I I -0.70710678118654746 0.70710678118654746 0.25 forward I I I I #
loop $-1 $-1 $175 $46 #
coedge $-1 $111 $111 $176 $177 reversed $69 $-1 #
face $-1 $178 $179 $37 $-1 $180 reversed single #
loop $-1 $-1 $181 $71 #
plane-surface $-1 -31.647871822036819 11.712871457090017 64.507610329312598 0.6018150307709319 0 0.79863550430605224 0.79863550430605224 0 -0.6018150307709319 forward_v I I I I #
coedge $-1 $182 $183 $184 $185 reversed $72 $-1 #
face $-1 $-1 $186 $38 $-1 $187 forward single #
loop $-1 $188 $189 $74 #
cone-surface $-1 43.153709386765513 8.4458723408396565 6.5754051525697239 -0.6018150307709319 0 -0.79863550430605224 0.19965887607651306 0 -0.15045375769273298 1 I I -0.70710678118654746 0.70710678118654746 0.25 forward I I I I #
loop $-1 $-1 $190 $48 #
coedge $-1 $120 $120 $191 $192 reversed $75 $-1 #
face $-1 $-1 $193 $39 $-1 $194 forward single #
loop $-1 $195 $196 $77 #
cone-surface $-1 43.153709386765513 14.979870573340378 6.5754051525697239 -0.6018150307709319 0 -0.79863550430605224 0.19965887607651306 0 -0.15045375769273298 1 I I -0.70710678118654746 0.70710678118654746 0.25 forward I I I I #
loop $-1 $-1 $197 $49 #
coedge $-1 $125 $125 $198 $199 reversed $78 $-1 #
face $-1 $200 $201 $30 $-1 $202 reversed single #
loop $-1 $-1 $203 $80 #
plane-surface $-1 0 -34.074684832683303 0 0 1 0 0 0 1 forward_v I I I I #
coedge $-1 $204 $205 $206 $207 forward $81 $-1 #
coedge $-1 $208 $83 $209 $210 forward $51 $-1 #
coedge $-1 $83 $208 $211 $212 forward $51 $-1 #
coedge $-1 $213 $214 $83 $133 reversed $215 $-1 #
edge $-1 $216 -34.074684832683303 $217 34.074684832683303 $132 $218 forward 7 unknown #
face $-1 $219 $220 $31 $-1 $221 reversed single #
loop $-1 $-1 $140 $84 #
plane-surface $-1 0 0 14.417084737185425 0 0 1 1 0 0 forward_v I I I I #
coedge $-1 $222 $223 $224 $225 reversed $85 $-1 #
coedge $-1 $139 $87 $226 $227 reversed $54 $-1 #
coedge $-1 $87 $138 $222 $228 reversed $54 $-1 #
coedge $-1 $224 $229 $87 $141 forward $135 $-1 #
edge $-1 $230 8.9618011400794728 $231 24.502648917955582 $140 $232 forward 7 unknown #
loop $-1 $-1 $147 $88 #
plane-surface $-1 -52.987456892605366 29.712372280279261 0.42404224143666625 -0.66913061440640931 0 0.74314481823134659 0.74314481823134659 0 0.66913061440640931 forward_v I I I I #
loop $-1 $-1 $233 $56 #
coedge $-1 $145 $145 $146 $234 reversed $89 $-1 #
coedge $-1 $146 $146 $145 $234 forward $91 $-1 #
coedge $-1 $147 $147 $92 $148 forward $142 $-1 #
edge $-1 $235 0 $235 6.2831853071796004 $147 $236 forward 7 unknown #
loop $-1 $-1 $154 $93 #
plane-surface $-1 -52.987456892605366 29.712372280279261 0.42404224143666625 -0.66913061440640931 0 0.74314481823134659 0.74314481823134659 0 0.66913061440640931 forward_v I I I I #
loop $-1 $-1 $237 $59 #
coedge $-1 $152 $152 $153 $238 reversed $94 $-1 #
coedge $-1 $153 $153 $152 $238 forward $96 $-1 #
coedge $-1 $154 $154 $97 $155 forward $149 $-1 #
edge $-1 $239 0 $239 6.2831853071796004 $154 $240 forward 7 unknown #
face $-1 $241 $242 $34 $-1 $243 forward single #
loop $-1 $-1 $244 $98 #
plane-surface $-1 32.129424178556633 -19.335869395007535 149.14293904395478 0 1 0 0.6018150307709319 0 0.79863550430605224 forward_v I I I I #
coedge $-1 $245 $246 $247 $248 reversed $99 $-1 #
coedge $-1 $161 $101 $249 $250 reversed $63 $-1 #
coedge $-1 $101 $160 $245 $251 reversed $63 $-1 #
coedge $-1 $247 $252 $101 $163 forward $242 $-1 #
edge $-1 $253 -36.922744803327049 $254 -18.759787368574678 $162 $255 forward 7 unknown #
loop $-1 $-1 $169 $102 #
plane-surface $-1 -31.647871822036819 -11.712871457090017 64.507610329312598 0.6018150307709319 0 0.79863550430605224 0.79863550430605224 0 -0.6018150307709319 forward_v I I I I #
loop $-1 $-1 $256 $65 #
coedge $-1 $167 $167 $168 $257 reversed $103 $-1 #
coedge $-1 $168 $168 $167 $257 forward $105 $-1 #
coedge $-1 $169 $169 $106 $170 forward $164 $-1 #
edge $-1 $258 0 $258 6.2831853071796004 $169 $259 forward 7 unknown #
loop $-1 $-1 $176 $107 #
plane-surface $-1 -31.647871822036819 -11.712871457090017 64.507610329312598 0.6018150307709319 0 0.79863550430605224 0.79863550430605224 0 -0.6018150307709319 forward_v I I I I #
loop $-1 $-1 $260 $68 #
coedge $-1 $174 $174 $175 $261 reversed $108 $-1 #
coedge $-1 $175 $175 $174 $261 forward $110 $-1 #
coedge $-1 $176 $176 $111 $177 forward $171 $-1 #
edge $-1 $262 0 $262 6.2831853071796004 $176 $263 forward 7 unknown #
face $-1 $264 $265 $37 $-1 $266 reversed single #
loop $-1 $-1 $267 $112 #
plane-surface $-1 32.129424178556633 4.0898735191724986 149.14293904395478 0 1 0 0.6018150307709319 0 0.79863550430605224 forward_v I I I I #
coedge $-1 $268 $269 $270 $271 reversed $113 $-1 #
coedge $-1 $183 $115 $272 $273 reversed $72 $-1 #
coedge $-1 $115 $182 $268 $274 reversed $72 $-1 #
coedge $-1 $270 $275 $115 $185 forward $276 $-1 #
edge $-1 $277 -36.922744803327049 $278 -18.759787368574678 $184 $279 forward 7 unknown #
loop $-1 $-1 $191 $116 #
plane-surface $-1 -31.647871822036819 11.712871457090017 64.507610329312598 0.6018150307709319 0 0.79863550430605224 0.79863550430605224 0 -0.6018150307709319 forward_v I I I I #
loop $-1 $-1 $280 $74 #
coedge $-1 $189 $189 $190 $281 reversed $117 $-1 #
coedge $-1 $190 $190 $189 $281 forward $119 $-1 #
coedge $-1 $191 $191 $120 $192 forward $186 $-1 #
edge $-1 $282 0 $282 6.2831853071796004 $191 $283 forward 7 unknown #
loop $-1 $-1 $198 $121 #
plane-surface $-1 -31.647871822036819 11.712871457090017 64.507610329312598 0.6018150307709319 0 0.79863550430605224 0.79863550430605224 0 -0.6018150307709319 forward_v I I I I #
loop $-1 $-1 $284 $77 #
coedge $-1 $196 $196 $197 $285 reversed $122 $-1 #
coedge $-1 $197 $197 $196 $285 forward $124 $-1 #
coedge $-1 $198 $198 $125 $199 forward $193 $-1 #
edge $-1 $286 0 $286 6.2831853071796004 $198 $287 forward 7 unknown #
face $-1 $288 $289 $30 $-1 $290 reversed single #
loop $-1 $-1 $291 $126 #
plane-surface $-1 -52.987456892605366 0 0 1 0 0 0 0 -1 forward_v I I I I #
coedge $-1 $292 $211 $293 $294 forward $127 $-1 #
coedge $-1 $295 $129 $292 $296 forward $81 $-1 #
coedge $-1 $129 $295 $297 $298 forward $81 $-1 #
coedge $-1 $214 $213 $129 $207 reversed $215 $-1 #
edge $-1 $299 -34.074684832683303 $300 34.074684832683303 $206 $301 forward 7 unknown #
coedge $-1 $131 $130 $302 $303 forward $51 $-1 #
coedge $-1 $304 $305 $130 $210 reversed $289 $-1 #
edge $-1 $217 -52.987456892605366 $306 52.987456892605366 $209 $307 forward 7 unknown #
coedge $-1 $203 $308 $131 $212 reversed $127 $-1 #
edge $-1 $309 -52.987456892605366 $216 52.987456892605366 $211 $310 forward 7 unknown #
coedge $-1 $206 $132 $308 $311 forward $215 $-1 #
coedge $-1 $132 $206 $304 $312 reversed $215 $-1 #
loop $-1 $-1 $213 $288 #
vertex $-1 $133 $313 #
vertex $-1 $133 $314 #
straight-curve $-1 52.987456892605366 0 14.417084737185425 0 1 0 I I #
face $-1 $-1 $315 $31 $-1 $316 reversed single #
loop $-1 $-1 $317 $134 #
plane-surface $-1 0 34.074684832683303 0 0 -1 0 0 0 -1 forward_v I I I I #
coedge $-1 $318 $137 $139 $228 forward $85 $-1 #
coedge $-1 $137 $318 $317 $319 reversed $85 $-1 #
coedge $-1 $320 $140 $137 $225 forward $135 $-1 #
edge $-1 $231 10.493873587735589 $321 19.218498692543672 $224 $322 forward 7 unknown #
coedge $-1 $323 $324 $138 $227 forward $315 $-1 #
edge $-1 $325 -39.165332900278194 $230 -25.172290404529434 $226 $326 forward 7 unknown #
edge $-1 $231 -20.912273619646129 $325 0 $139 $327 forward 7 unknown #
coedge $-1 $140 $320 $323 $328 forward $135 $-1 #
vertex $-1 $227 $329 #
vertex $-1 $141 $330 #
straight-curve $-1 -61.949258032684838 25.35005972787522 14.417084737185426 1 0 0 I I #
coedge $-1 $233 $233 $-1 $331 reversed $144 $-1 #
edge $-1 $332 0 $332 6.2831853071796004 $145 $333 forward 7 unknown #
vertex $-1 $148 $334 #
ellipse-curve $-1 -45.217033003667311 27.842809757820383 7.4205634893110464 -0.66913061440640931 0 0.74314481823134659 0.74314481823134659 0 0.66913061440640931 1 I I #
coedge $-1 $237 $237 $-1 $335 reversed $151 $-1 #
edge $-1 $336 0 $336 6.2831853071796004 $152 $337 forward 7 unknown #
vertex $-1 $155 $338 #
ellipse-curve $-1 -45.217033003667311 31.581934802738132 7.4205634893110464 -0.66913061440640931 0 0.74314481823134659 0.74314481823134659 0 0.66913061440640931 1 I I #
face $-1 $-1 $339 $34 $-1 $340 reversed single #
loop $-1 $-1 $162 $156 #
plane-surface $-1 0 0 14.417084737185425 0 0 1 1 0 0 forward_v I I I I #
coedge $-1 $341 $342 $343 $344 reversed $157 $-1 #
coedge $-1 $345 $159 $161 $251 forward $99 $-1 #
coedge $-1 $159 $345 $341 $346 forward $99 $-1 #
coedge $-1 $343 $162 $159 $248 forward $242 $-1 #
edge $-1 $254 -1.76656220937251 $347 13.479433666462526 $247 $348 forward 7 unknown #
coedge $-1 $349 $350 $160 $250 forward $339 $-1 #
edge $-1 $351 -73.84115519325826 $253 -60.154384784791965 $249 $352 forward 7 unknown #
edge $-1 $254 83.232426960092113 $351 105.97491378521076 $161 $353 forward 7 unknown #
coedge $-1 $162 $343 $349 $354 forward $242 $-1 #
vertex $-1 $250 $355 #
vertex $-1 $163 $356 #
straight-curve $-1 16.064712089278316 -4.0898735191724986 14.417084737185419 -1 0 0 I I #
coedge $-1 $256 $256 $-1 $357 reversed $166 $-1 #
edge $-1 $358 0 $358 6.2831853071796004 $167 $359 forward 7 unknown #
vertex $-1 $170 $360 #
ellipse-curve $-1 43.90597817522918 -14.979870573340385 7.5736995329522889 0.6018150307709319 0 0.79863550430605224 0.39931775215302612 0 -0.30090751538546595 1 I I #
coedge $-1 $260 $260 $-1 $361 reversed $173 $-1 #
edge $-1 $362 0 $362 6.2831853071796004 $174 $363 forward 7 unknown #
vertex $-1 $177 $364 #
ellipse-curve $-1 43.90597817522918 -8.4458723408396565 7.5736995329522889 0.6018150307709319 0 0.79863550430605224 0.39931775215302612 0 -0.30090751538546595 1 I I #
face $-1 $-1 $276 $37 $-1 $365 forward single #
loop $-1 $-1 $366 $178 #
plane-surface $-1 52.987456892605366 0 0 -1 0 0 0 0 1 forward_v I I I I #
coedge $-1 $367 $368 $369 $370 reversed $179 $-1 #
coedge $-1 $371 $181 $183 $274 forward $113 $-1 #
coedge $-1 $181 $371 $367 $372 forward $113 $-1 #
coedge $-1 $369 $184 $181 $271 forward $276 $-1 #
edge $-1 $278 -13.479433666462526 $373 1.76656220937251 $270 $374 forward 7 unknown #
coedge $-1 $375 $376 $182 $273 forward $265 $-1 #
edge $-1 $377 -73.84115519325826 $277 -60.154384784791965 $272 $378 forward 7 unknown #
edge $-1 $278 83.232426960092113 $377 105.97491378521076 $183 $379 forward 7 unknown #
coedge $-1 $184 $369 $375 $380 forward $276 $-1 #
loop $-1 $-1 $369 $264 #
vertex $-1 $273 $381 #
vertex $-1 $185 $382 #
straight-curve $-1 16.064712089278316 19.335869395007535 14.417084737185419 -1 0 0 I I #
coedge $-1 $280 $280 $-1 $383 reversed $188 $-1 #
edge $-1 $384 0 $384 6.2831853071796004 $189 $385 forward 7 unknown #
vertex $-1 $192 $386 #
ellipse-curve $-1 43.90597817522918 8.4458723408396565 7.5736995329522889 0.6018150307709319 0 0.79863550430605224 0.39931775215302612 0 -0.30090751538546595 1 I I #
coedge $-1 $284 $284 $-1 $387 reversed $195 $-1 #
edge $-1 $388 0 $388 6.2831853071796004 $196 $389 forward 7 unknown #
vertex $-1 $199 $390 #
ellipse-curve $-1 43.90597817522918 14.979870573340378 7.5736995329522889 0.6018150307709319 0 0.79863550430605224 0.39931775215302612 0 -0.30090751538546595 1 I I #
face $-1 $-1 $215 $30 $-1 $391 reversed single #
loop $-1 $-1 $304 $200 #
plane-surface $-1 0 34.074684832683303 0 0 -1 0 0 0 -1 forward_v I I I I #
coedge $-1 $392 $302 $305 $393 forward $201 $-1 #
coedge $-1 $308 $203 $204 $296 reversed $127 $-1 #
coedge $-1 $302 $392 $203 $294 reversed $201 $-1 #
edge $-1 $309 -14.417084737185425 $394 14.417084737185425 $293 $395 forward 7 unknown #
coedge $-1 $205 $204 $392 $396 forward $81 $-1 #
edge $-1 $300 -52.987456892605366 $394 52.987456892605366 $292 $397 forward 7 unknown #
coedge $-1 $305 $304 $205 $298 reversed $289 $-1 #
edge $-1 $398 -52.987456892605366 $299 52.987456892605366 $297 $399 forward 7 unknown #
vertex $-1 $207 $400 #
vertex $-1 $311 $401 #
straight-curve $-1 52.987456892605366 0 -14.417084737185425 0 -1 0 I I #
coedge $-1 $291 $293 $208 $303 reversed $201 $-1 #
edge $-1 $306 -34.074684832683303 $309 34.074684832683303 $302 $402 forward 7 unknown #
coedge $-1 $297 $209 $214 $312 forward $289 $-1 #
coedge $-1 $209 $297 $291 $393 reversed $289 $-1 #
vertex $-1 $210 $403 #
straight-curve $-1 0 34.074684832683303 14.417084737185425 -1 0 0 I I #
coedge $-1 $211 $292 $213 $311 reversed $127 $-1 #
vertex $-1 $303 $404 #
straight-curve $-1 0 -34.074684832683303 14.417084737185425 1 0 0 I I #
edge $-1 $216 -14.417084737185425 $300 14.417084737185425 $213 $405 forward 7 unknown #
edge $-1 $217 -14.417084737185425 $299 14.417084737185425 $214 $406 forward 7 unknown #
point $-1 52.987456892605366 -34.074684832683303 14.417084737185425 #
point $-1 52.987456892605366 34.074684832683303 14.417084737185425 #
loop $-1 $-1 $226 $219 #
plane-surface $-1 -52.987456892605366 0 0 1 0 0 0 0 -1 forward_v I I I I #
coedge $-1 $407 $408 $223 $319 forward $220 $-1 #
coedge $-1 $223 $222 $324 $409 reversed $85 $-1 #
edge $-1 $321 -1.3654664319212633 $410 19.546807187724866 $317 $411 forward 7 unknown #
coedge $-1 $229 $224 $408 $412 forward $135 $-1 #
vertex $-1 $412 $413 #
straight-curve $-1 -37.446609114729256 14.856186140139631 14.417084737185425 0 1 0 I I #
coedge $-1 $414 $226 $229 $328 reversed $315 $-1 #
coedge $-1 $226 $414 $318 $409 forward $315 $-1 #
vertex $-1 $227 $415 #
straight-curve $-1 -52.987456892605366 25.35005972787522 39.589375141714861 0 0 1 I I #
straight-curve $-1 -52.987456892605366 25.35005972787522 0.42404224143666625 -0.74314481823134659 0 -0.66913061440640931 I I #
edge $-1 $416 -34.074684832683303 $230 -25.35005972787522 $323 $417 forward 7 unknown #
point $-1 -52.987456892605366 25.35005972787522 14.417084737185425 #
point $-1 -37.446609114729256 25.35005972787522 14.417084737185426 #
edge $-1 $418 1 $418 0 $233 $-1 forward 7 unknown #
vertex $-1 $234 $419 #
ellipse-curve $-1 -42.787337589601663 27.842809757820383 4.722113413991849 -0.66913061440640931 0 0.74314481823134659 0.74314481823134659 0 0.66913061440640931 1 I I #
point $-1 -44.47388818543596 27.842809757820383 8.0896941037174468 #
edge $-1 $420 1 $420 0 $237 $-1 forward 7 unknown #
vertex $-1 $238 $421 #
ellipse-curve $-1 -42.787337589601663 31.581934802738132 4.722113413991849 -0.66913061440640931 0 0.74314481823134659 0.74314481823134659 0 0.66913061440640931 1 I I #
point $-1 -44.47388818543596 31.581934802738132 8.0896941037174468 #
loop $-1 $-1 $249 $241 #
plane-surface $-1 52.987456892605366 0 0 -1 0 0 0 0 1 forward_v I I I I #
coedge $-1 $342 $244 $246 $346 reversed $157 $-1 #
coedge $-1 $244 $341 $422 $423 reversed $157 $-1 #
coedge $-1 $252 $247 $244 $344 forward $242 $-1 #
edge $-1 $347 18.759787368574678 $424 36.922744803327049 $343 $425 forward 7 unknown #
coedge $-1 $246 $245 $350 $426 reversed $99 $-1 #
edge $-1 $427 -105.97491378521076 $347 -83.232426960092113 $341 $428 forward 7 unknown #
vertex $-1 $248 $429 #
straight-curve $-1 34.824499457852994 -5.8564357285450086 14.417084737185426 0 -1 0 I I #
coedge $-1 $422 $249 $252 $354 reversed $339 $-1 #
coedge $-1 $249 $422 $345 $426 forward $339 $-1 #
vertex $-1 $250 $430 #
straight-curve $-1 52.987456892605366 -4.0898735191724986 74.571469521977392 0 0 1 I I #
straight-curve $-1 -31.647871822036819 -4.0898735191724986 64.507610329312598 0.79863550430605224 0 -0.6018150307709319 I I #
edge $-1 $424 -19.335869395007535 $253 -4.0898735191724986 $349 $431 forward 7 unknown #
point $-1 52.987456892605366 -4.0898735191724986 14.417084737185425 #
point $-1 34.824499457852994 -4.0898735191724986 14.417084737185426 #
edge $-1 $432 1 $432 0 $256 $-1 forward 7 unknown #
vertex $-1 $257 $433 #
ellipse-curve $-1 43.304163144458244 -14.979870573340385 6.7750640286462369 0.6018150307709319 0 0.79863550430605224 0.39931775215302612 0 -0.30090751538546595 1 I I #
point $-1 44.305295927382204 -14.979870573340385 7.2727920175668235 #
edge $-1 $434 1 $434 0 $260 $-1 forward 7 unknown #
vertex $-1 $261 $435 #
ellipse-curve $-1 43.304163144458244 -8.4458723408396565 6.7750640286462369 0.6018150307709319 0 0.79863550430605224 0.39931775215302612 0 -0.30090751538546595 1 I I #
point $-1 44.305295927382204 -8.4458723408396565 7.2727920175668235 #
plane-surface $-1 0 0 14.417084737185425 0 0 1 1 0 0 forward_v I I I I #
coedge $-1 $376 $375 $368 $436 forward $265 $-1 #
coedge $-1 $368 $267 $269 $372 reversed $179 $-1 #
coedge $-1 $267 $367 $366 $436 reversed $179 $-1 #
coedge $-1 $275 $270 $267 $370 forward $276 $-1 #
edge $-1 $373 18.759787368574678 $437 36.922744803327049 $369 $438 forward 7 unknown #
coedge $-1 $269 $268 $376 $439 reversed $113 $-1 #
edge $-1 $440 -105.97491378521076 $373 -83.232426960092113 $367 $441 forward 7 unknown #
vertex $-1 $271 $442 #
straight-curve $-1 34.824499457852994 5.8564357285450086 14.417084737185426 0 -1 0 I I #
coedge $-1 $366 $272 $275 $380 reversed $265 $-1 #
coedge $-1 $272 $366 $371 $439 forward $265 $-1 #
vertex $-1 $273 $443 #
straight-curve $-1 52.987456892605366 19.335869395007535 74.571469521977392 0 0 1 I I #
straight-curve $-1 -31.647871822036819 19.335869395007535 64.507610329312598 0.79863550430605224 0 -0.6018150307709319 I I #
edge $-1 $437 4.0898735191724986 $277 19.335869395007535 $375 $444 forward 7 unknown #
point $-1 52.987456892605366 19.335869395007535 14.417084737185425 #
point $-1 34.824499457852994 19.335869395007535 14.417084737185426 #
edge $-1 $445 1 $445 0 $280 $-1 forward 7 unknown #
vertex $-1 $281 $446 #
ellipse-curve $-1 43.304163144458244 8.4458723408396565 6.7750640286462369 0.6018150307709319 0 0.79863550430605224 0.39931775215302612 0 -0.30090751538546595 1 I I #
point $-1 44.305295927382204 8.4458723408396565 7.2727920175668235 #
edge $-1 $447 1 $447 0 $284 $-1 forward 7 unknown #
vertex $-1 $285 $448 #
ellipse-curve $-1 43.304163144458244 14.979870573340378 6.7750640286462369 0.6018150307709319 0 0.79863550430605224 0.39931775215302612 0 -0.30090751538546595 1 I I #
point $-1 44.305295927382204 14.979870573340378 7.2727920175668235 #
plane-surface $-1 52.987456892605366 0 0 -1 0 0 0 0 1 forward_v I I I I #
coedge $-1 $293 $291 $295 $396 reversed $201 $-1 #
edge $-1 $306 -14.417084737185425 $398 14.417084737185425 $305 $449 forward 7 unknown #
vertex $-1 $396 $450 #
straight-curve $-1 -52.987456892605366 -34.074684832683303 0 0 0 -1 I I #
edge $-1 $394 -34.074684832683303 $398 34.074684832683303 $392 $451 forward 7 unknown #
straight-curve $-1 0 -34.074684832683303 -14.417084737185425 -1 0 0 I I #
vertex $-1 $298 $452 #
straight-curve $-1 0 34.074684832683303 -14.417084737185425 1 0 0 I I #
point $-1 52.987456892605366 34.074684832683303 -14.417084737185425 #
point $-1 52.987456892605366 -34.074684832683303 -14.417084737185425 #
straight-curve $-1 -52.987456892605366 0 14.417084737185425 0 -1 0 I I #
point $-1 -52.987456892605366 34.074684832683303 14.417084737185425 #
point $-1 -52.987456892605366 -34.074684832683303 14.417084737185425 #
straight-curve $-1 52.987456892605366 -34.074684832683303 0 0 0 -1 I I #
straight-curve $-1 52.987456892605366 34.074684832683303 0 0 0 -1 I I #
coedge $-1 $408 $317 $414 $453 reversed $220 $-1 #
coedge $-1 $317 $407 $320 $412 reversed $220 $-1 #
edge $-1 $410 -19.218498692543672 $325 -10.493873587735589 $324 $454 forward 7 unknown #
vertex $-1 $319 $455 #
straight-curve $-1 -38.461348418080391 34.074684832683303 13.503409344642627 -0.74314481823134659 0 -0.66913061440640931 I I #
edge $-1 $321 37.446609114729256 $416 52.987456892605366 $408 $456 forward 7 unknown #
point $-1 -37.446609114729256 34.074684832683303 14.417084737185426 #
coedge $-1 $324 $323 $407 $453 forward $315 $-1 #
point $-1 -52.987456892605366 25.35005972787522 0.42404224143666625 #
vertex $-1 $412 $457 #
straight-curve $-1 -52.987456892605366 0 14.417084737185425 0 -1 0 I I #
vertex $-1 $331 $458 #
point $-1 -42.044192771370312 27.842809757820383 5.3912440283982583 #
vertex $-1 $335 $459 #
point $-1 -42.044192771370312 31.581934802738132 5.3912440283982583 #
coedge $-1 $350 $349 $342 $423 forward $339 $-1 #
edge $-1 $424 60.154384784791965 $427 73.84115519325826 $422 $460 forward 7 unknown #
vertex $-1 $354 $461 #
straight-curve $-1 16.064712089278316 -19.335869395007535 14.417084737185419 1 0 0 I I #
edge $-1 $427 -13.479433666462526 $351 1.76656220937251 $350 $462 forward 7 unknown #
vertex $-1 $426 $463 #
straight-curve $-1 -31.647871822036819 -19.335869395007535 64.507610329312598 -0.79863550430605224 0 0.6018150307709319 I I #
point $-1 34.824499457852994 -19.335869395007535 14.417084737185426 #
point $-1 52.987456892605366 -4.0898735191724986 0.73031432871913893 #
straight-curve $-1 52.987456892605366 0 14.417084737185425 0 1 0 I I #
vertex $-1 $357 $464 #
point $-1 43.703480896611275 -14.979870573340385 6.4741565132607715 #
vertex $-1 $361 $465 #
point $-1 43.703480896611275 -8.4458723408396565 6.4741565132607715 #
edge $-1 $437 60.154384784791965 $440 73.84115519325826 $366 $466 forward 7 unknown #
vertex $-1 $380 $467 #
straight-curve $-1 16.064712089278316 4.0898735191724986 14.417084737185419 1 0 0 I I #
edge $-1 $440 -1.76656220937251 $377 13.479433666462526 $376 $468 forward 7 unknown #
vertex $-1 $439 $469 #
straight-curve $-1 -31.647871822036819 4.0898735191724986 64.507610329312598 -0.79863550430605224 0 0.6018150307709319 I I #
point $-1 34.824499457852994 4.0898735191724986 14.417084737185426 #
point $-1 52.987456892605366 19.335869395007535 0.73031432871913893 #
straight-curve $-1 52.987456892605366 0 14.417084737185425 0 1 0 I I #
vertex $-1 $383 $470 #
point $-1 43.703480896611275 8.4458723408396565 6.4741565132607715 #
vertex $-1 $387 $471 #
point $-1 43.703480896611275 14.979870573340378 6.4741565132607715 #
straight-curve $-1 -52.987456892605366 34.074684832683303 0 0 0 -1 I I #
point $-1 -52.987456892605366 -34.074684832683303 -14.417084737185425 #
straight-curve $-1 -52.987456892605366 0 -14.417084737185425 0 1 0 I I #
point $-1 -52.987456892605366 34.074684832683303 -14.417084737185425 #
edge $-1 $416 -14.417084737185425 $410 -0.42404224143666625 $407 $472 forward 7 unknown #
straight-curve $-1 -52.987456892605366 14.856186140139631 0.42404224143666469 0 -1 0 I I #
point $-1 -52.987456892605366 34.074684832683303 0.42404224143666625 #
straight-curve $-1 0 34.074684832683303 14.417084737185425 -1 0 0 I I #
point $-1 -52.987456892605366 34.074684832683303 14.417084737185425 #
point $-1 -42.11820697519525 27.842809757820383 3.9789685957605023 #
point $-1 -42.11820697519525 31.581934802738132 3.9789685957605023 #
straight-curve $-1 52.987456892605366 -19.335869395007535 74.571469521977392 0 0 -1 I I #
point $-1 52.987456892605366 -19.335869395007535 14.417084737185425 #
straight-curve $-1 52.987456892605366 -5.8564357285450086 0.73031432871914248 0 1 0 I I #
point $-1 52.987456892605366 -19.335869395007535 0.73031432871913893 #
point $-1 43.003255629072783 -14.979870573340385 6.3757462764932109 #
point $-1 43.003255629072783 -8.4458723408396565 6.3757462764932109 #
straight-curve $-1 52.987456892605366 4.0898735191724986 74.571469521977392 0 0 -1 I I #
point $-1 52.987456892605366 4.0898735191724986 14.417084737185425 #
straight-curve $-1 52.987456892605366 5.8564357285450086 0.73031432871914248 0 1 0 I I #
point $-1 52.987456892605366 4.0898735191724986 0.73031432871913893 #
point $-1 43.003255629072783 8.4458723408396565 6.3757462764932109 #
point $-1 43.003255629072783 14.979870573340378 6.3757462764932109 #
straight-curve $-1 -52.987456892605366 34.074684832683303 0 0 0 -1 I I #
End-of-ACIS-data 