500 0 11 0           
7 Unknown 11 ACIS 5.0 NT 24 Thu Mar 25 17:24:12 1999 
-1 9.9999999999999995e-007 1e-010 
body $-1 $11 $-1 $12 #
body $-1 $13 $-1 $14 #
body $-1 $15 $-1 $16 #
body $-1 $17 $-1 $18 #
body $-1 $19 $-1 $20 #
body $-1 $21 $-1 $22 #
body $-1 $23 $-1 $24 #
body $-1 $25 $-1 $26 #
body $-1 $27 $-1 $28 #
body $-1 $29 $-1 $30 #
body $-1 $31 $-1 $32 #
lump $-1 $-1 $33 $0 #
transform $-1 1 0 0 0 1 0 0 0 1 50.300607318338571 31.316184556255948 11.415541087488739 1 rotate no_reflect no_shear #
lump $-1 $-1 $34 $1 #
transform $-1 1 0 0 0 1 0 0 0 1 50.300607318338571 31.316184556255948 11.415541087488739 1 rotate no_reflect no_shear #
lump $-1 $-1 $35 $2 #
transform $-1 1 0 0 0 1 0 0 0 1 50.300607318338571 31.316184556255948 11.415541087488739 1 rotate no_reflect no_shear #
lump $-1 $-1 $36 $3 #
transform $-1 1 0 0 0 1 0 0 0 1 50.300607318338571 31.316184556255948 11.415541087488739 1 rotate no_reflect no_shear #
lump $-1 $-1 $37 $4 #
transform $-1 1 0 0 0 1 0 0 0 1 50.300607318338571 31.316184556255948 11.415541087488739 1 rotate no_reflect no_shear #
lump $-1 $-1 $38 $5 #
transform $-1 1 0 0 0 1 0 0 0 1 50.300607318338571 31.316184556255948 11.415541087488739 1 rotate no_reflect no_shear #
lump $-1 $-1 $39 $6 #
transform $-1 1 0 0 0 1 0 0 0 1 50.300607318338571 31.316184556255948 11.415541087488739 1 rotate no_reflect no_shear #
lump $-1 $-1 $40 $7 #
transform $-1 1 0 0 0 1 0 0 0 1 50.300607318338571 31.316184556255948 11.415541087488739 1 rotate no_reflect no_shear #
lump $-1 $-1 $41 $8 #
transform $-1 1 0 0 0 1 0 0 0 1 50.300607318338571 31.316184556255948 11.415541087488739 1 rotate no_reflect no_shear #
lump $-1 $-1 $42 $9 #
transform $-1 1 0 0 0 1 0 0 0 1 50.300607318338571 31.316184556255948 11.415541087488739 1 rotate no_reflect no_shear #
lump $-1 $-1 $43 $10 #
transform $-1 1 0 0 0 1 0 0 0 1 50.300607318338571 31.316184556255948 11.415541087488739 1 rotate no_reflect no_shear #
shell $-1 $-1 $-1 $44 $-1 $11 #
shell $-1 $-1 $-1 $45 $-1 $13 #
shell $-1 $-1 $-1 $46 $-1 $15 #
shell $-1 $-1 $-1 $47 $-1 $17 #
shell $-1 $-1 $-1 $48 $-1 $19 #
shell $-1 $-1 $-1 $49 $-1 $21 #
shell $-1 $-1 $-1 $50 $-1 $23 #
shell $-1 $-1 $-1 $51 $-1 $25 #
shell $-1 $-1 $-1 $52 $-1 $27 #
shell $-1 $-1 $-1 $53 $-1 $29 #
shell $-1 $-1 $-1 $54 $-1 $31 #
face $-1 $55 $56 $33 $-1 $57 reversed single #
face $-1 $58 $59 $34 $-1 $60 forward single #
face $-1 $61 $62 $35 $-1 $63 reversed single #
face $-1 $64 $65 $36 $-1 $66 forward single #
face $-1 $67 $68 $37 $-1 $69 forward single #
face $-1 $70 $71 $38 $-1 $72 reversed single #
face $-1 $73 $74 $39 $-1 $75 forward single #
face $-1 $76 $77 $40 $-1 $78 forward single #
face $-1 $79 $80 $41 $-1 $81 reversed single #
face $-1 $82 $83 $42 $-1 $84 forward single #
face $-1 $85 $86 $43 $-1 $87 forward single #
face $-1 $88 $89 $33 $-1 $90 forward single #
loop $-1 $-1 $91 $44 #
plane-surface $-1 0 -31.316184556255948 0 0 1 0 0 0 1 forward_v I I I I #
face $-1 $92 $93 $34 $-1 $94 reversed single #
loop $-1 $-1 $95 $45 #
plane-surface $-1 0 -31.316184556255948 0 0 1 0 0 0 1 forward_v I I I I #
face $-1 $96 $97 $35 $-1 $98 reversed single #
loop $-1 $-1 $99 $46 #
plane-surface $-1 -123.87567886168654 -23.77273006662368 72.63438501345702 0 1 0 -0.73135370988377701 0 0.68199835119979291 forward_v I I I I #
face $-1 $100 $101 $36 $-1 $102 forward single #
loop $-1 $103 $104 $47 #
cone-surface $-1 -45.316647704777118 -20.541062320750711 6.285971402023149 0.73135370988377701 0 -0.68199835119979291 1.0229975267996894 0 1.0970305648256655 1 I I 0 1 1.5 forward I I I I #
face $-1 $105 $106 $37 $-1 $107 forward single #
loop $-1 $108 $109 $48 #
cone-surface $-1 -45.316647704777118 -15.693560701941255 6.285971402023149 0.73135370988377701 0 -0.68199835119979291 1.0229975267996894 0 1.0970305648256655 1 I I 0 1 1.5 forward I I I I #
face $-1 $110 $111 $38 $-1 $112 reversed single #
loop $-1 $-1 $113 $49 #
plane-surface $-1 -123.87567886168654 20.005347445700551 72.63438501345702 0 1 0 -0.73135370988377701 0 0.68199835119979291 forward_v I I I I #
face $-1 $114 $115 $39 $-1 $116 forward single #
loop $-1 $117 $118 $50 #
cone-surface $-1 -45.316647704777118 23.237015191573519 6.285971402023149 0.73135370988377701 0 -0.68199835119979291 1.0229975267996894 0 1.0970305648256655 1 I I 0 1 1.5 forward I I I I #
face $-1 $119 $120 $40 $-1 $121 forward single #
loop $-1 $122 $123 $51 #
cone-surface $-1 -45.316647704777118 28.084516810382979 6.285971402023149 0.73135370988377701 0 -0.68199835119979291 1.0229975267996894 0 1.0970305648256655 1 I I 0 1 1.5 forward I I I I #
face $-1 $124 $125 $41 $-1 $126 reversed single #
loop $-1 $-1 $127 $52 #
plane-surface $-1 20.720679148126969 19.603494612875739 142.70610687062515 0 -1 0 -0.54463904215088732 0 -0.83867056331134215 forward_v I I I I #
face $-1 $128 $129 $42 $-1 $130 forward single #
loop $-1 $131 $132 $53 #
cone-surface $-1 43.855340647896242 13.35695666232985 6.8877228869579241 -0.54463904215088732 0 -0.83867056331134215 0.41933528165567108 0 -0.27231952107544366 1 I I 0 1 0.5 forward I I I I #
face $-1 $133 $134 $43 $-1 $135 forward single #
loop $-1 $136 $137 $54 #
cone-surface $-1 43.855340647896242 17.104879432657384 6.8877228869579241 -0.54463904215088732 0 -0.83867056331134215 0.41933528165567108 0 -0.27231952107544366 1 I I 0 1 0.5 forward I I I I #
face $-1 $138 $139 $33 $-1 $140 reversed single #
loop $-1 $-1 $141 $55 #
plane-surface $-1 0 0 11.415541087488739 0 0 1 1 0 0 forward_v I I I I #
coedge $-1 $142 $143 $144 $145 reversed $56 $-1 #
face $-1 $146 $147 $34 $-1 $148 reversed single #
loop $-1 $-1 $149 $58 #
plane-surface $-1 0 0 -11.415541087488739 0 0 1 1 0 0 forward_v I I I I #
coedge $-1 $150 $151 $152 $153 forward $59 $-1 #
face $-1 $154 $155 $35 $-1 $156 reversed single #
loop $-1 $-1 $157 $61 #
plane-surface $-1 -50.300607318338578 -18.117311511345982 4.0245225025467306 -0.73135370988377701 0 0.68199835119979291 0.68199835119979291 0 0.73135370988377701 forward_v I I I I #
coedge $-1 $158 $159 $160 $161 reversed $62 $-1 #
face $-1 $-1 $162 $36 $-1 $163 forward single #
loop $-1 $164 $165 $64 #
cone-surface $-1 -43.230290891268375 -20.541062320750711 4.3404122456287197 0.73135370988377701 0 -0.68199835119979291 0.51149876339984468 0 0.54851528241283276 1 I I -0.70710678118654757 0.70710678118654757 0.75 forward I I I I #
loop $-1 $-1 $166 $47 #
coedge $-1 $104 $104 $167 $168 reversed $65 $-1 #
face $-1 $-1 $169 $37 $-1 $170 forward single #
loop $-1 $171 $172 $67 #
cone-surface $-1 -43.230290891268375 -15.693560701941255 4.3404122456287197 0.73135370988377701 0 -0.68199835119979291 0.51149876339984468 0 0.54851528241283276 1 I I -0.70710678118654757 0.70710678118654757 0.75 forward I I I I #
loop $-1 $-1 $173 $48 #
coedge $-1 $109 $109 $174 $175 reversed $68 $-1 #
face $-1 $176 $177 $38 $-1 $178 forward single #
loop $-1 $-1 $179 $70 #
plane-surface $-1 -50.300607318338578 25.660766000978249 4.0245225025467306 -0.73135370988377701 0 0.68199835119979291 0.68199835119979291 0 0.73135370988377701 forward_v I I I I #
coedge $-1 $180 $181 $182 $183 reversed $71 $-1 #
face $-1 $-1 $184 $39 $-1 $185 forward single #
loop $-1 $186 $187 $73 #
cone-surface $-1 -43.230290891268375 23.237015191573519 4.3404122456287197 0.73135370988377701 0 -0.68199835119979291 0.51149876339984468 0 0.54851528241283276 1 I I -0.70710678118654757 0.70710678118654757 0.75 forward I I I I #
loop $-1 $-1 $188 $50 #
coedge $-1 $118 $118 $189 $190 reversed $74 $-1 #
face $-1 $-1 $191 $40 $-1 $192 forward single #
loop $-1 $193 $194 $76 #
cone-surface $-1 -43.230290891268375 28.084516810382979 4.3404122456287197 0.73135370988377701 0 -0.68199835119979291 0.51149876339984468 0 0.54851528241283276 1 I I -0.70710678118654757 0.70710678118654757 0.75 forward I I I I #
loop $-1 $-1 $195 $51 #
coedge $-1 $123 $123 $196 $197 reversed $77 $-1 #
face $-1 $198 $199 $41 $-1 $200 reversed single #
loop $-1 $-1 $201 $79 #
plane-surface $-1 -34.070670030808692 15.230918047493617 58.334829521477886 0.54463904215088732 0 0.83867056331134215 0.83867056331134215 0 -0.54463904215088732 forward_v I I I I #
coedge $-1 $202 $203 $204 $205 reversed $80 $-1 #
face $-1 $-1 $206 $42 $-1 $207 forward single #
loop $-1 $208 $209 $82 #
cone-surface $-1 43.334869371097305 13.35695666232985 6.0862674180725183 -0.54463904215088732 0 -0.83867056331134215 0.20966764082783554 0 -0.13615976053772183 1 I I -0.70710678118654746 0.70710678118654746 0.25 forward I I I I #
loop $-1 $-1 $210 $53 #
coedge $-1 $132 $132 $211 $212 reversed $83 $-1 #
face $-1 $-1 $213 $43 $-1 $214 forward single #
loop $-1 $215 $216 $85 #
cone-surface $-1 43.334869371097305 17.104879432657384 6.0862674180725183 -0.54463904215088732 0 -0.83867056331134215 0.20966764082783554 0 -0.13615976053772183 1 I I -0.70710678118654746 0.70710678118654746 0.25 forward I I I I #
loop $-1 $-1 $217 $54 #
coedge $-1 $137 $137 $218 $219 reversed $86 $-1 #
face $-1 $220 $221 $33 $-1 $222 reversed single #
loop $-1 $-1 $223 $88 #
plane-surface $-1 0 0 -11.415541087488739 0 0 1 1 0 0 forward_v I I I I #
coedge $-1 $224 $225 $226 $227 forward $89 $-1 #
coedge $-1 $228 $91 $229 $230 reversed $56 $-1 #
coedge $-1 $91 $228 $231 $232 forward $56 $-1 #
coedge $-1 $233 $223 $91 $145 forward $139 $-1 #
edge $-1 $234 -50.300607318338571 $235 50.300607318338571 $91 $236 forward 7 unknown #
face $-1 $237 $238 $34 $-1 $239 reversed single #
loop $-1 $-1 $240 $92 #
plane-surface $-1 -34.983764843286856 -38.859639045888215 0 0 1 0 0 0 1 forward_v I I I I #
coedge $-1 $241 $242 $151 $243 forward $93 $-1 #
coedge $-1 $244 $95 $245 $246 reversed $59 $-1 #
coedge $-1 $95 $244 $149 $243 reversed $59 $-1 #
coedge $-1 $247 $248 $95 $153 reversed $238 $-1 #
edge $-1 $249 -11.415541087488739 $250 11.415541087488739 $152 $251 forward 7 unknown #
face $-1 $252 $253 $35 $-1 $254 reversed single #
loop $-1 $-1 $255 $96 #
plane-surface $-1 -123.87567886168654 -12.461892956068281 72.63438501345702 0 -1 0 0.73135370988377701 0 -0.68199835119979291 forward_v I I I I #
coedge $-1 $256 $257 $258 $259 reversed $97 $-1 #
coedge $-1 $159 $99 $260 $261 reversed $62 $-1 #
coedge $-1 $99 $158 $256 $262 reversed $62 $-1 #
coedge $-1 $258 $263 $99 $161 forward $264 $-1 #
edge $-1 $265 11.637232112504698 $266 18.529468277435768 $160 $267 forward 7 unknown #
loop $-1 $-1 $167 $100 #
plane-surface $-1 -50.300607318338578 -18.117311511345982 4.0245225025467306 -0.73135370988377701 0 0.68199835119979291 0.68199835119979291 0 0.73135370988377701 forward_v I I I I #
loop $-1 $-1 $268 $64 #
coedge $-1 $165 $165 $166 $269 reversed $101 $-1 #
coedge $-1 $166 $166 $165 $269 forward $103 $-1 #
coedge $-1 $167 $167 $104 $168 forward $162 $-1 #
edge $-1 $270 0 $270 6.2831853071796004 $167 $271 forward 7 unknown #
loop $-1 $-1 $174 $105 #
plane-surface $-1 -50.300607318338578 -18.117311511345982 4.0245225025467306 -0.73135370988377701 0 0.68199835119979291 0.68199835119979291 0 0.73135370988377701 forward_v I I I I #
loop $-1 $-1 $272 $67 #
coedge $-1 $172 $172 $173 $273 reversed $106 $-1 #
coedge $-1 $173 $173 $172 $273 forward $108 $-1 #
coedge $-1 $174 $174 $109 $175 forward $169 $-1 #
edge $-1 $274 0 $274 6.2831853071796004 $174 $275 forward 7 unknown #
face $-1 $276 $277 $38 $-1 $278 reversed single #
loop $-1 $-1 $182 $110 #
plane-surface $-1 0 0 11.415541087488739 0 0 1 1 0 0 forward_v I I I I #
coedge $-1 $279 $280 $281 $282 reversed $111 $-1 #
coedge $-1 $181 $113 $283 $284 reversed $71 $-1 #
coedge $-1 $113 $180 $279 $285 reversed $71 $-1 #
coedge $-1 $281 $286 $113 $183 forward $177 $-1 #
edge $-1 $287 11.637232112504698 $288 18.529468277435768 $182 $289 forward 7 unknown #
loop $-1 $-1 $189 $114 #
plane-surface $-1 -50.300607318338578 25.660766000978249 4.0245225025467306 -0.73135370988377701 0 0.68199835119979291 0.68199835119979291 0 0.73135370988377701 forward_v I I I I #
loop $-1 $-1 $290 $73 #
coedge $-1 $187 $187 $188 $291 reversed $115 $-1 #
coedge $-1 $188 $188 $187 $291 forward $117 $-1 #
coedge $-1 $189 $189 $118 $190 forward $184 $-1 #
edge $-1 $292 0 $292 6.2831853071796004 $189 $293 forward 7 unknown #
loop $-1 $-1 $196 $119 #
plane-surface $-1 -50.300607318338578 25.660766000978249 4.0245225025467306 -0.73135370988377701 0 0.68199835119979291 0.68199835119979291 0 0.73135370988377701 forward_v I I I I #
loop $-1 $-1 $294 $76 #
coedge $-1 $194 $194 $195 $295 reversed $120 $-1 #
coedge $-1 $195 $195 $194 $295 forward $122 $-1 #
coedge $-1 $196 $196 $123 $197 forward $191 $-1 #
edge $-1 $296 0 $296 6.2831853071796004 $196 $297 forward 7 unknown #
face $-1 $298 $299 $41 $-1 $300 forward single #
loop $-1 $-1 $301 $124 #
plane-surface $-1 20.720679148126969 10.858341482111495 142.70610687062515 0 1 0 0.54463904215088732 0 0.83867056331134215 forward_v I I I I #
coedge $-1 $302 $303 $304 $305 reversed $125 $-1 #
coedge $-1 $203 $127 $306 $307 reversed $80 $-1 #
coedge $-1 $127 $202 $302 $308 reversed $80 $-1 #
coedge $-1 $304 $309 $127 $205 forward $299 $-1 #
edge $-1 $310 -39.94026774427509 $311 -27.818357435912798 $204 $312 forward 7 unknown #
loop $-1 $-1 $211 $128 #
plane-surface $-1 -34.070670030808692 15.230918047493617 58.334829521477886 0.54463904215088732 0 0.83867056331134215 0.83867056331134215 0 -0.54463904215088732 forward_v I I I I #
loop $-1 $-1 $313 $82 #
coedge $-1 $209 $209 $210 $314 reversed $129 $-1 #
coedge $-1 $210 $210 $209 $314 forward $131 $-1 #
coedge $-1 $211 $211 $132 $212 forward $206 $-1 #
edge $-1 $315 0 $315 6.2831853071796004 $211 $316 forward 7 unknown #
loop $-1 $-1 $218 $133 #
plane-surface $-1 -34.070670030808692 15.230918047493617 58.334829521477886 0.54463904215088732 0 0.83867056331134215 0.83867056331134215 0 -0.54463904215088732 forward_v I I I I #
loop $-1 $-1 $317 $85 #
coedge $-1 $216 $216 $217 $318 reversed $134 $-1 #
coedge $-1 $217 $217 $216 $318 forward $136 $-1 #
coedge $-1 $218 $218 $137 $219 forward $213 $-1 #
edge $-1 $319 0 $319 6.2831853071796004 $218 $320 forward 7 unknown #
face $-1 $321 $322 $33 $-1 $323 reversed single #
loop $-1 $-1 $324 $138 #
plane-surface $-1 -50.300607318338571 0 0 1 0 0 0 0 -1 forward_v I I I I #
coedge $-1 $144 $325 $326 $327 forward $139 $-1 #
coedge $-1 $328 $141 $329 $330 forward $89 $-1 #
coedge $-1 $141 $328 $228 $331 forward $89 $-1 #
coedge $-1 $229 $332 $141 $227 reversed $333 $-1 #
edge $-1 $334 -31.316184556255948 $335 31.316184556255948 $226 $336 forward 7 unknown #
coedge $-1 $143 $142 $225 $331 reversed $56 $-1 #
coedge $-1 $326 $226 $142 $230 forward $333 $-1 #
edge $-1 $334 -11.415541087488739 $234 11.415541087488739 $229 $337 forward 7 unknown #
coedge $-1 $338 $339 $143 $232 reversed $221 $-1 #
edge $-1 $340 -11.415541087488739 $235 11.415541087488739 $231 $341 forward 7 unknown #
coedge $-1 $325 $144 $339 $342 forward $139 $-1 #
vertex $-1 $230 $343 #
vertex $-1 $342 $344 #
straight-curve $-1 0 -31.316184556255948 -11.415541087488739 -1 0 0 I I #
face $-1 $345 $346 $34 $-1 $347 reversed single #
loop $-1 $-1 $152 $146 #
plane-surface $-1 -37.8204224621308 -35.087911801072082 0 1 0 0 0 0 -1 forward_v I I I I #
coedge $-1 $348 $349 $350 $351 forward $147 $-1 #
coedge $-1 $352 $149 $353 $354 forward $93 $-1 #
coedge $-1 $149 $352 $247 $355 forward $93 $-1 #
edge $-1 $249 -37.8204224621308 $356 -32.147107224442912 $149 $357 forward 7 unknown #
coedge $-1 $151 $150 $358 $359 forward $59 $-1 #
coedge $-1 $360 $361 $150 $246 forward $362 $-1 #
edge $-1 $363 32.147107224442912 $250 37.8204224621308 $245 $364 forward 7 unknown #
coedge $-1 $350 $152 $242 $355 reversed $238 $-1 #
coedge $-1 $152 $350 $360 $365 reversed $238 $-1 #
vertex $-1 $243 $366 #
vertex $-1 $365 $367 #
straight-curve $-1 -37.8204224621308 -31.316184556255948 0 0 0 1 I I #
face $-1 $-1 $264 $35 $-1 $368 forward single #
loop $-1 $-1 $369 $154 #
plane-surface $-1 -50.300607318338571 0 0 1 0 0 0 0 -1 forward_v I I I I #
coedge $-1 $370 $371 $372 $373 reversed $155 $-1 #
coedge $-1 $374 $157 $159 $262 forward $97 $-1 #
coedge $-1 $157 $374 $370 $375 forward $97 $-1 #
coedge $-1 $372 $160 $157 $259 forward $264 $-1 #
edge $-1 $266 -14.714074310950689 $376 -3.4032372003952904 $258 $377 forward 7 unknown #
coedge $-1 $378 $379 $158 $261 forward $253 $-1 #
edge $-1 $380 -32.292670004181772 $265 -24.901651419239769 $260 $381 forward 7 unknown #
edge $-1 $266 -10.105942562479861 $380 -1.0692042983031357e-014 $159 $382 forward 7 unknown #
coedge $-1 $160 $372 $378 $383 forward $264 $-1 #
loop $-1 $-1 $372 $252 #
vertex $-1 $261 $384 #
vertex $-1 $161 $385 #
straight-curve $-1 -61.937839430843269 -23.77273006662368 11.415541087488741 1 0 0 I I #
coedge $-1 $268 $268 $-1 $386 reversed $164 $-1 #
edge $-1 $387 0 $387 6.2831853071796004 $165 $388 forward 7 unknown #
vertex $-1 $168 $389 #
ellipse-curve $-1 -46.854489235873039 -20.541062320750711 7.7200317950177402 -0.73135370988377701 0 0.68199835119979291 1.0229975267996894 0 1.0970305648256655 1 I I #
coedge $-1 $272 $272 $-1 $390 reversed $171 $-1 #
edge $-1 $391 0 $391 6.2831853071796004 $172 $392 forward 7 unknown #
vertex $-1 $175 $393 #
ellipse-curve $-1 -46.854489235873039 -15.693560701941255 7.7200317950177402 -0.73135370988377701 0 0.68199835119979291 1.0229975267996894 0 1.0970305648256655 1 I I #
face $-1 $-1 $394 $38 $-1 $395 reversed single #
loop $-1 $-1 $283 $176 #
plane-surface $-1 -50.300607318338571 0 0 1 0 0 0 0 -1 forward_v I I I I #
coedge $-1 $396 $179 $181 $285 forward $111 $-1 #
coedge $-1 $179 $396 $397 $398 reversed $111 $-1 #
coedge $-1 $399 $182 $179 $282 forward $177 $-1 #
edge $-1 $288 7.1749644452114261 $400 18.485801555766823 $281 $401 forward 7 unknown #
coedge $-1 $402 $403 $180 $284 forward $277 $-1 #
edge $-1 $404 -32.292670004181772 $287 -24.901651419239769 $283 $405 forward 7 unknown #
edge $-1 $288 -10.105942562479861 $404 -1.0692042983031357e-014 $181 $406 forward 7 unknown #
coedge $-1 $182 $399 $402 $407 forward $177 $-1 #
vertex $-1 $183 $408 #
vertex $-1 $183 $409 #
straight-curve $-1 -61.937839430843269 20.005347445700551 11.415541087488741 1 0 0 I I #
coedge $-1 $290 $290 $-1 $410 reversed $186 $-1 #
edge $-1 $411 0 $411 6.2831853071796004 $187 $412 forward 7 unknown #
vertex $-1 $190 $413 #
ellipse-curve $-1 -46.854489235873039 23.237015191573519 7.7200317950177402 -0.73135370988377701 0 0.68199835119979291 1.0229975267996894 0 1.0970305648256655 1 I I #
coedge $-1 $294 $294 $-1 $414 reversed $193 $-1 #
edge $-1 $415 0 $415 6.2831853071796004 $194 $416 forward 7 unknown #
vertex $-1 $197 $417 #
ellipse-curve $-1 -46.854489235873039 28.084516810382979 7.7200317950177402 -0.73135370988377701 0 0.68199835119979291 1.0229975267996894 0 1.0970305648256655 1 I I #
face $-1 $-1 $418 $41 $-1 $419 reversed single #
loop $-1 $-1 $204 $198 #
plane-surface $-1 0 0 11.415541087488739 0 0 1 1 0 0 forward_v I I I I #
coedge $-1 $420 $421 $422 $423 reversed $199 $-1 #
coedge $-1 $424 $201 $203 $308 forward $125 $-1 #
coedge $-1 $201 $424 $420 $425 forward $125 $-1 #
coedge $-1 $422 $204 $201 $305 forward $299 $-1 #
edge $-1 $311 -11.988035589128931 $426 -3.2428824583646865 $304 $427 forward 7 unknown #
coedge $-1 $428 $429 $202 $307 forward $418 $-1 #
edge $-1 $430 -67.80957309277035 $310 -59.937512347823834 $306 $431 forward 7 unknown #
edge $-1 $311 86.147493666072108 $430 100.60121463667714 $203 $432 forward 7 unknown #
coedge $-1 $204 $422 $428 $433 forward $299 $-1 #
vertex $-1 $205 $434 #
vertex $-1 $205 $435 #
straight-curve $-1 10.360339574063484 19.603494612875739 11.415541087488734 -1 0 0 I I #
coedge $-1 $313 $313 $-1 $436 reversed $208 $-1 #
edge $-1 $437 0 $437 6.2831853071796004 $209 $438 forward 7 unknown #
vertex $-1 $212 $439 #
ellipse-curve $-1 44.239652164157441 13.35695666232985 7.4795107150154703 0.54463904215088732 0 0.83867056331134215 0.41933528165567108 0 -0.27231952107544366 1 I I #
coedge $-1 $317 $317 $-1 $440 reversed $215 $-1 #
edge $-1 $441 0 $441 6.2831853071796004 $216 $442 forward 7 unknown #
vertex $-1 $219 $443 #
ellipse-curve $-1 44.239652164157441 17.104879432657384 7.4795107150154703 0.54463904215088732 0 0.83867056331134215 0.41933528165567108 0 -0.27231952107544366 1 I I #
face $-1 $-1 $333 $33 $-1 $444 reversed single #
loop $-1 $-1 $445 $220 #
plane-surface $-1 0 31.316184556255948 0 0 -1 0 0 0 -1 forward_v I I I I #
coedge $-1 $339 $338 $446 $447 forward $221 $-1 #
coedge $-1 $223 $233 $448 $449 forward $139 $-1 #
coedge $-1 $332 $229 $223 $327 reversed $333 $-1 #
edge $-1 $450 -31.316184556255948 $234 31.316184556255948 $326 $451 forward 7 unknown #
coedge $-1 $225 $224 $338 $452 forward $89 $-1 #
coedge $-1 $445 $446 $224 $330 reversed $322 $-1 #
edge $-1 $335 -50.300607318338571 $453 50.300607318338571 $329 $454 forward 7 unknown #
edge $-1 $340 -50.300607318338571 $334 50.300607318338571 $228 $455 forward 7 unknown #
coedge $-1 $226 $326 $445 $456 reversed $333 $-1 #
loop $-1 $-1 $229 $321 #
vertex $-1 $227 $457 #
vertex $-1 $227 $458 #
straight-curve $-1 50.300607318338571 0 11.415541087488739 0 1 0 I I #
straight-curve $-1 50.300607318338571 -31.316184556255948 0 0 0 -1 I I #
coedge $-1 $324 $231 $328 $452 reversed $221 $-1 #
coedge $-1 $231 $324 $233 $342 reversed $221 $-1 #
vertex $-1 $452 $459 #
straight-curve $-1 -50.300607318338571 -31.316184556255948 0 0 0 -1 I I #
edge $-1 $235 -31.316184556255948 $460 31.316184556255948 $339 $461 forward 7 unknown #
point $-1 50.300607318338571 -31.316184556255948 -11.415541087488739 #
point $-1 -50.300607318338571 -31.316184556255948 -11.415541087488739 #
face $-1 $-1 $362 $34 $-1 $462 forward single #
loop $-1 $-1 $463 $237 #
plane-surface $-1 -32.147107224442912 -35.087911801072082 0 -1 0 0 0 0 1 forward_v I I I I #
coedge $-1 $464 $240 $352 $465 reversed $147 $-1 #
coedge $-1 $240 $464 $466 $467 reversed $147 $-1 #
coedge $-1 $248 $247 $240 $351 reversed $238 $-1 #
edge $-1 $468 -11.415541087488739 $469 11.415541087488739 $350 $470 forward 7 unknown #
coedge $-1 $242 $241 $348 $465 forward $93 $-1 #
coedge $-1 $358 $463 $241 $354 reversed $346 $-1 #
edge $-1 $356 -3.7717272448161339 $471 3.7717272448161339 $353 $472 forward 7 unknown #
edge $-1 $469 -3.7717272448161339 $249 3.7717272448161339 $247 $473 forward 7 unknown #
vertex $-1 $354 $474 #
straight-curve $-1 0 -31.316184556255948 -11.415541087488739 1 0 0 I I #
coedge $-1 $475 $353 $244 $359 reversed $346 $-1 #
edge $-1 $363 -11.415541087488739 $356 11.415541087488739 $358 $476 forward 7 unknown #
coedge $-1 $466 $245 $248 $365 forward $362 $-1 #
coedge $-1 $245 $466 $475 $477 forward $362 $-1 #
loop $-1 $-1 $245 $345 #
vertex $-1 $246 $478 #
straight-curve $-1 0 -31.316184556255948 11.415541087488739 -1 0 0 I I #
edge $-1 $250 -3.7717272448161339 $468 3.7717272448161339 $248 $479 forward 7 unknown #
point $-1 -37.8204224621308 -31.316184556255948 -11.415541087488739 #
point $-1 -37.8204224621308 -31.316184556255948 11.415541087488739 #
plane-surface $-1 0 0 11.415541087488739 0 0 1 1 0 0 forward_v I I I I #
coedge $-1 $379 $378 $371 $480 forward $253 $-1 #
coedge $-1 $371 $255 $257 $375 reversed $155 $-1 #
coedge $-1 $255 $370 $369 $480 reversed $155 $-1 #
coedge $-1 $263 $258 $255 $373 forward $264 $-1 #
edge $-1 $376 -18.529468277435768 $481 -11.637232112504698 $372 $482 forward 7 unknown #
coedge $-1 $257 $256 $379 $483 reversed $97 $-1 #
edge $-1 $484 1.0692042983031357e-014 $376 10.105942562479861 $370 $485 forward 7 unknown #
vertex $-1 $259 $486 #
straight-curve $-1 -43.408371153407501 -9.0586557556729908 11.415541087488739 0 1 0 I I #
coedge $-1 $369 $260 $263 $383 reversed $253 $-1 #
coedge $-1 $260 $369 $374 $483 forward $253 $-1 #
vertex $-1 $261 $487 #
straight-curve $-1 -50.300607318338571 -23.77273006662368 36.31719250672851 0 0 1 I I #
straight-curve $-1 -50.300607318338578 -23.77273006662368 4.0245225025467306 -0.68199835119979291 0 -0.73135370988377701 I I #
edge $-1 $481 12.461892956068281 $265 23.77273006662368 $378 $488 forward 7 unknown #
point $-1 -50.300607318338571 -23.77273006662368 11.415541087488739 #
point $-1 -43.408371153407501 -23.77273006662368 11.415541087488739 #
edge $-1 $489 1 $489 0 $268 $-1 forward 7 unknown #
vertex $-1 $269 $490 #
ellipse-curve $-1 -43.778806173681204 -20.541062320750711 4.851911009028564 -0.73135370988377701 0 0.68199835119979291 1.0229975267996894 0 1.0970305648256655 1 I I #
point $-1 -45.83149170907334 -20.541062320750711 8.8170623598433977 #
edge $-1 $491 1 $491 0 $272 $-1 forward 7 unknown #
vertex $-1 $273 $492 #
ellipse-curve $-1 -43.778806173681204 -15.693560701941255 4.851911009028564 -0.73135370988377701 0 0.68199835119979291 1.0229975267996894 0 1.0970305648256655 1 I I #
point $-1 -45.83149170907334 -15.693560701941255 8.8170623598433977 #
loop $-1 $-1 $397 $276 #
plane-surface $-1 0 31.316184556255948 0 0 -1 0 0 0 -1 forward_v I I I I #
coedge $-1 $280 $279 $403 $493 reversed $111 $-1 #
coedge $-1 $494 $495 $280 $398 forward $394 $-1 #
edge $-1 $400 5.5748483338735655 $496 15.680790896353415 $397 $497 forward 7 unknown #
coedge $-1 $286 $281 $495 $498 forward $177 $-1 #
vertex $-1 $498 $499 #
straight-curve $-1 -43.408371153407501 12.830383000489125 11.415541087488739 0 1 0 I I #
coedge $-1 $500 $283 $286 $407 reversed $277 $-1 #
coedge $-1 $283 $500 $396 $493 forward $277 $-1 #
vertex $-1 $284 $501 #
straight-curve $-1 -50.300607318338571 20.005347445700551 36.31719250672851 0 0 1 I I #
straight-curve $-1 -50.300607318338578 20.005347445700551 4.0245225025467306 -0.68199835119979291 0 -0.73135370988377701 I I #
edge $-1 $502 -31.316184556255948 $287 -20.005347445700551 $402 $503 forward 7 unknown #
point $-1 -50.300607318338571 20.005347445700551 11.415541087488739 #
point $-1 -43.408371153407501 20.005347445700551 11.415541087488739 #
edge $-1 $504 1 $504 0 $290 $-1 forward 7 unknown #
vertex $-1 $291 $505 #
ellipse-curve $-1 -43.778806173681204 23.237015191573519 4.851911009028564 -0.73135370988377701 0 0.68199835119979291 1.0229975267996894 0 1.0970305648256655 1 I I #
point $-1 -45.83149170907334 23.237015191573519 8.8170623598433977 #
edge $-1 $506 1 $506 0 $294 $-1 forward 7 unknown #
vertex $-1 $295 $507 #
ellipse-curve $-1 -43.778806173681204 28.084516810382979 4.851911009028564 -0.73135370988377701 0 0.68199835119979291 1.0229975267996894 0 1.0970305648256655 1 I I #
point $-1 -45.83149170907334 28.084516810382979 8.8170623598433977 #
loop $-1 $-1 $306 $298 #
plane-surface $-1 50.300607318338571 0 0 -1 0 0 0 0 1 forward_v I I I I #
coedge $-1 $421 $301 $303 $425 reversed $199 $-1 #
coedge $-1 $301 $420 $508 $509 reversed $199 $-1 #
coedge $-1 $309 $304 $301 $423 forward $299 $-1 #
edge $-1 $426 27.818357435912798 $510 39.94026774427509 $422 $511 forward 7 unknown #
coedge $-1 $303 $302 $429 $512 reversed $125 $-1 #
edge $-1 $513 -100.60121463667714 $426 -86.147493666072108 $420 $514 forward 7 unknown #
vertex $-1 $305 $515 #
straight-curve $-1 38.17869700997629 7.6154590237468085 11.415541087488741 0 -1 0 I I #
coedge $-1 $508 $306 $309 $433 reversed $418 $-1 #
coedge $-1 $306 $508 $424 $512 forward $418 $-1 #
vertex $-1 $307 $516 #
straight-curve $-1 50.300607318338571 19.603494612875739 71.353053435312574 0 0 1 I I #
straight-curve $-1 -34.070670030808692 19.603494612875739 58.334829521477886 0.83867056331134215 0 -0.54463904215088732 I I #
edge $-1 $510 10.858341482111495 $310 19.603494612875739 $428 $517 forward 7 unknown #
point $-1 50.300607318338571 19.603494612875739 11.415541087488739 #
point $-1 38.178697009976283 19.603494612875739 11.415541087488741 #
edge $-1 $518 1 $518 0 $313 $-1 forward 7 unknown #
vertex $-1 $314 $519 #
ellipse-curve $-1 43.471029131635028 13.35695666232985 6.295935058900354 0.54463904215088732 0 0.83867056331134215 0.41933528165567108 0 -0.27231952107544366 1 I I #
point $-1 44.658987445813125 13.35695666232985 7.2071911939400497 #
edge $-1 $520 1 $520 0 $317 $-1 forward 7 unknown #
vertex $-1 $318 $521 #
ellipse-curve $-1 43.471029131635028 17.104879432657384 6.295935058900354 0.54463904215088732 0 0.83867056331134215 0.41933528165567108 0 -0.27231952107544366 1 I I #
point $-1 44.658987445813125 17.104879432657384 7.2071911939400497 #
plane-surface $-1 50.300607318338571 0 0 -1 0 0 0 0 1 forward_v I I I I #
coedge $-1 $448 $329 $332 $456 forward $322 $-1 #
coedge $-1 $329 $448 $324 $447 reversed $322 $-1 #
edge $-1 $453 -11.415541087488739 $460 11.415541087488739 $446 $522 forward 7 unknown #
coedge $-1 $446 $445 $325 $449 reversed $322 $-1 #
edge $-1 $460 -50.300607318338571 $450 50.300607318338571 $448 $523 forward 7 unknown #
vertex $-1 $327 $524 #
straight-curve $-1 50.300607318338571 0 -11.415541087488739 0 -1 0 I I #
edge $-1 $453 -31.316184556255948 $340 31.316184556255948 $338 $525 forward 7 unknown #
vertex $-1 $330 $526 #
straight-curve $-1 0 31.316184556255948 11.415541087488739 -1 0 0 I I #
straight-curve $-1 0 -31.316184556255948 11.415541087488739 1 0 0 I I #
edge $-1 $335 -11.415541087488739 $450 11.415541087488739 $332 $527 forward 7 unknown #
point $-1 50.300607318338571 -31.316184556255948 11.415541087488739 #
point $-1 50.300607318338571 31.316184556255948 11.415541087488739 #
point $-1 -50.300607318338571 -31.316184556255948 11.415541087488739 #
vertex $-1 $449 $528 #
straight-curve $-1 -50.300607318338571 0 -11.415541087488739 0 1 0 I I #
plane-surface $-1 0 0 11.415541087488739 0 0 1 1 0 0 forward_v I I I I #
coedge $-1 $353 $475 $464 $529 forward $346 $-1 #
coedge $-1 $349 $348 $463 $529 reversed $147 $-1 #
edge $-1 $471 -2.8366576188439439 $469 2.8366576188439439 $348 $530 forward 7 unknown #
coedge $-1 $361 $360 $349 $467 forward $362 $-1 #
edge $-1 $468 -2.8366576188439439 $531 2.8366576188439439 $349 $532 forward 7 unknown #
vertex $-1 $365 $533 #
vertex $-1 $355 $534 #
straight-curve $-1 -37.8204224621308 -38.859639045888215 0 0 0 -1 I I #
vertex $-1 $529 $535 #
straight-curve $-1 -32.147107224442912 -35.087911801072082 -11.415541087488739 0 -1 0 I I #
straight-curve $-1 -37.8204224621308 -35.087911801072082 -11.415541087488739 0 1 0 I I #
point $-1 -32.147107224442912 -31.316184556255948 -11.415541087488739 #
coedge $-1 $463 $358 $361 $477 reversed $346 $-1 #
straight-curve $-1 -32.147107224442912 -31.316184556255948 0 0 0 -1 I I #
edge $-1 $531 -3.7717272448161339 $363 3.7717272448161339 $475 $536 forward 7 unknown #
point $-1 -32.147107224442912 -31.316184556255948 11.415541087488739 #
straight-curve $-1 -37.8204224621308 -35.087911801072082 11.415541087488739 0 -1 0 I I #
edge $-1 $481 24.901651419239769 $484 32.292670004181772 $369 $537 forward 7 unknown #
vertex $-1 $383 $538 #
straight-curve $-1 -61.937839430843269 -12.461892956068281 11.415541087488741 -1 0 0 I I #
edge $-1 $484 3.4032372003952904 $380 14.714074310950689 $379 $539 forward 7 unknown #
vertex $-1 $483 $540 #
straight-curve $-1 -50.300607318338578 -12.461892956068281 4.0245225025467306 0.68199835119979291 0 0.73135370988377701 I I #
point $-1 -43.408371153407501 -12.461892956068281 11.415541087488739 #
point $-1 -50.300607318338571 -23.77273006662368 4.0245225025467386 #
straight-curve $-1 -50.300607318338571 0 11.415541087488739 0 -1 0 I I #
vertex $-1 $386 $541 #
point $-1 -42.755808646881519 -20.541062320750711 5.9489415738542295 #
vertex $-1 $390 $542 #
point $-1 -42.755808646881519 -15.693560701941255 5.9489415738542295 #
edge $-1 $496 -18.485801555766823 $404 -7.1749644452114261 $403 $543 forward 7 unknown #
coedge $-1 $495 $397 $500 $544 reversed $394 $-1 #
coedge $-1 $397 $494 $399 $498 reversed $394 $-1 #
vertex $-1 $398 $545 #
straight-curve $-1 -39.606333781516817 31.316184556255948 15.492727098506565 -0.68199835119979291 0 -0.73135370988377701 I I #
edge $-1 $400 43.408371153407501 $502 50.300607318338571 $495 $546 forward 7 unknown #
point $-1 -43.408371153407501 31.316184556255948 11.415541087488739 #
coedge $-1 $403 $402 $494 $544 forward $277 $-1 #
point $-1 -50.300607318338571 20.005347445700551 4.0245225025467386 #
vertex $-1 $498 $547 #
straight-curve $-1 -50.300607318338571 0 11.415541087488739 0 -1 0 I I #
vertex $-1 $410 $548 #
point $-1 -42.755808646881519 23.237015191573519 5.9489415738542295 #
vertex $-1 $414 $549 #
point $-1 -42.755808646881519 28.084516810382979 5.9489415738542295 #
coedge $-1 $429 $428 $421 $509 forward $418 $-1 #
edge $-1 $510 59.937512347823834 $513 67.80957309277035 $508 $550 forward 7 unknown #
vertex $-1 $433 $551 #
straight-curve $-1 10.360339574063484 10.858341482111495 11.415541087488734 1 0 0 I I #
edge $-1 $513 3.2428824583646865 $430 11.988035589128931 $429 $552 forward 7 unknown #
vertex $-1 $512 $553 #
straight-curve $-1 -34.070670030808692 10.858341482111495 58.334829521477886 -0.83867056331134215 0 0.54463904215088732 I I #
point $-1 38.178697009976283 10.858341482111495 11.415541087488741 #
point $-1 50.300607318338571 19.603494612875739 3.5434803425422245 #
straight-curve $-1 50.300607318338571 0 11.415541087488739 0 1 0 I I #
vertex $-1 $436 $554 #
point $-1 43.890364413290698 13.35695666232985 6.0236155378249103 #
vertex $-1 $440 $555 #
point $-1 43.890364413290698 17.104879432657384 6.0236155378249103 #
straight-curve $-1 -50.300607318338571 31.316184556255948 0 0 0 -1 I I #
straight-curve $-1 0 31.316184556255948 -11.415541087488739 1 0 0 I I #
point $-1 50.300607318338571 31.316184556255948 -11.415541087488739 #
straight-curve $-1 -50.300607318338571 0 11.415541087488739 0 -1 0 I I #
point $-1 -50.300607318338571 31.316184556255948 11.415541087488739 #
straight-curve $-1 50.300607318338571 31.316184556255948 0 0 0 -1 I I #
point $-1 -50.300607318338571 31.316184556255948 -11.415541087488739 #
edge $-1 $531 -11.415541087488739 $471 11.415541087488739 $463 $556 forward 7 unknown #
straight-curve $-1 -34.983764843286856 -38.859639045888215 -11.415541087488739 -1 0 0 I I #
vertex $-1 $477 $557 #
straight-curve $-1 -34.983764843286856 -38.859639045888215 11.415541087488739 1 0 0 I I #
point $-1 -37.8204224621308 -38.859639045888215 11.415541087488739 #
point $-1 -37.8204224621308 -38.859639045888215 -11.415541087488739 #
point $-1 -32.147107224442912 -38.859639045888215 -11.415541087488739 #
straight-curve $-1 -32.147107224442912 -35.087911801072082 11.415541087488739 0 1 0 I I #
straight-curve $-1 -50.300607318338571 -12.461892956068281 36.31719250672851 0 0 -1 I I #
point $-1 -50.300607318338571 -12.461892956068281 11.415541087488739 #
straight-curve $-1 -50.300607318338571 -9.0586557556729908 4.0245225025467413 0 -1 0 I I #
point $-1 -50.300607318338571 -12.461892956068281 4.0245225025467386 #
point $-1 -42.681775608855546 -20.541062320750711 3.8289134822288751 #
point $-1 -42.681775608855546 -15.693560701941255 3.8289134822288751 #
straight-curve $-1 -50.300607318338571 12.830383000489125 4.0245225025467413 0 -1 0 I I #
edge $-1 $502 -11.415541087488739 $496 -4.0245225025467386 $494 $558 forward 7 unknown #
point $-1 -50.300607318338571 31.316184556255948 4.0245225025467386 #
straight-curve $-1 0 31.316184556255948 11.415541087488739 -1 0 0 I I #
point $-1 -50.300607318338571 31.316184556255948 11.415541087488739 #
point $-1 -42.681775608855546 23.237015191573519 3.8289134822288751 #
point $-1 -42.681775608855546 28.084516810382979 3.8289134822288751 #
straight-curve $-1 50.300607318338571 10.858341482111495 71.353053435312574 0 0 -1 I I #
point $-1 50.300607318338571 10.858341482111495 11.415541087488739 #
straight-curve $-1 50.300607318338564 7.6154590237468085 3.5434803425422174 0 1 0 I I #
point $-1 50.300607318338571 10.858341482111495 3.5434803425422245 #
point $-1 43.198709610559582 13.35695666232985 5.8765997772446825 #
point $-1 43.198709610559582 17.104879432657384 5.8765997772446825 #
straight-curve $-1 -32.147107224442912 -38.859639045888215 0 0 0 -1 I I #
point $-1 -32.147107224442912 -38.859639045888215 11.415541087488739 #
straight-curve $-1 -50.300607318338571 31.316184556255948 0 0 0 -1 I I #
End-of-ACIS-data 