500 0 14 0           
7 Unknown 11 ACIS 5.0 NT 24 Fri Mar 26 02:46:35 1999 
-1 9.9999999999999995e-007 1e-010 
body $-1 $14 $-1 $15 #
body $-1 $16 $-1 $17 #
body $-1 $18 $-1 $19 #
body $-1 $20 $-1 $21 #
body $-1 $22 $-1 $23 #
body $-1 $24 $-1 $25 #
body $-1 $26 $-1 $27 #
body $-1 $28 $-1 $29 #
body $-1 $30 $-1 $31 #
body $-1 $32 $-1 $33 #
body $-1 $34 $-1 $35 #
body $-1 $36 $-1 $37 #
body $-1 $38 $-1 $39 #
body $-1 $40 $-1 $41 #
lump $-1 $-1 $42 $0 #
transform $-1 1 0 0 0 1 0 0 0 1 60.98452711569567 27.385434396977729 9.5524326604112861 1 rotate no_reflect no_shear #
lump $-1 $-1 $43 $1 #
transform $-1 1 0 0 0 1 0 0 0 1 60.98452711569567 27.385434396977729 9.5524326604112861 1 rotate no_reflect no_shear #
lump $-1 $-1 $44 $2 #
transform $-1 1 0 0 0 1 0 0 0 1 60.98452711569567 27.385434396977729 9.5524326604112861 1 rotate no_reflect no_shear #
lump $-1 $-1 $45 $3 #
transform $-1 1 0 0 0 1 0 0 0 1 60.98452711569567 27.385434396977729 9.5524326604112861 1 rotate no_reflect no_shear #
lump $-1 $-1 $46 $4 #
transform $-1 1 0 0 0 1 0 0 0 1 60.98452711569567 27.385434396977729 9.5524326604112861 1 rotate no_reflect no_shear #
lump $-1 $-1 $47 $5 #
transform $-1 1 0 0 0 1 0 0 0 1 60.98452711569567 27.385434396977729 9.5524326604112861 1 rotate no_reflect no_shear #
lump $-1 $-1 $48 $6 #
transform $-1 1 0 0 0 1 0 0 0 1 60.98452711569567 27.385434396977729 9.5524326604112861 1 rotate no_reflect no_shear #
lump $-1 $-1 $49 $7 #
transform $-1 1 0 0 0 1 0 0 0 1 60.98452711569567 27.385434396977729 9.5524326604112861 1 rotate no_reflect no_shear #
lump $-1 $-1 $50 $8 #
transform $-1 1 0 0 0 1 0 0 0 1 60.98452711569567 27.385434396977729 9.5524326604112861 1 rotate no_reflect no_shear #
lump $-1 $-1 $51 $9 #
transform $-1 1 0 0 0 1 0 0 0 1 60.98452711569567 27.385434396977729 9.5524326604112861 1 rotate no_reflect no_shear #
lump $-1 $-1 $52 $10 #
transform $-1 1 0 0 0 1 0 0 0 1 60.98452711569567 27.385434396977729 9.5524326604112861 1 rotate no_reflect no_shear #
lump $-1 $-1 $53 $11 #
transform $-1 1 0 0 0 1 0 0 0 1 60.98452711569567 27.385434396977729 9.5524326604112861 1 rotate no_reflect no_shear #
lump $-1 $-1 $54 $12 #
transform $-1 1 0 0 0 1 0 0 0 1 60.98452711569567 27.385434396977729 9.5524326604112861 1 rotate no_reflect no_shear #
lump $-1 $-1 $55 $13 #
transform $-1 1 0 0 0 1 0 0 0 1 60.98452711569567 27.385434396977729 9.5524326604112861 1 rotate no_reflect no_shear #
shell $-1 $-1 $-1 $56 $-1 $14 #
shell $-1 $-1 $-1 $57 $-1 $16 #
shell $-1 $-1 $-1 $58 $-1 $18 #
shell $-1 $-1 $-1 $59 $-1 $20 #
shell $-1 $-1 $-1 $60 $-1 $22 #
shell $-1 $-1 $-1 $61 $-1 $24 #
shell $-1 $-1 $-1 $62 $-1 $26 #
shell $-1 $-1 $-1 $63 $-1 $28 #
shell $-1 $-1 $-1 $64 $-1 $30 #
shell $-1 $-1 $-1 $65 $-1 $32 #
shell $-1 $-1 $-1 $66 $-1 $34 #
shell $-1 $-1 $-1 $67 $-1 $36 #
shell $-1 $-1 $-1 $68 $-1 $38 #
shell $-1 $-1 $-1 $69 $-1 $40 #
face $-1 $70 $71 $42 $-1 $72 forward single #
face $-1 $73 $74 $43 $-1 $75 forward single #
face $-1 $76 $77 $44 $-1 $78 reversed single #
face $-1 $79 $80 $45 $-1 $81 forward single #
face $-1 $82 $83 $46 $-1 $84 forward single #
face $-1 $85 $86 $47 $-1 $87 reversed single #
face $-1 $88 $89 $48 $-1 $90 forward single #
face $-1 $91 $92 $49 $-1 $93 forward single #
face $-1 $94 $95 $50 $-1 $96 reversed single #
face $-1 $97 $98 $51 $-1 $99 forward single #
face $-1 $100 $101 $52 $-1 $102 forward single #
face $-1 $103 $104 $53 $-1 $105 reversed single #
face $-1 $106 $107 $54 $-1 $108 forward single #
face $-1 $109 $110 $55 $-1 $111 forward single #
face $-1 $112 $113 $42 $-1 $114 reversed single #
loop $-1 $-1 $115 $56 #
plane-surface $-1 0 0 9.5524326604112861 0 0 1 1 0 0 forward_v I I I I #
face $-1 $116 $117 $43 $-1 $118 reversed single #
loop $-1 $-1 $119 $57 #
plane-surface $-1 -54.974496928519528 0 8.8046474529787773 0 0 1 1 0 0 forward_v I I I I #
face $-1 $120 $121 $44 $-1 $122 reversed single #
loop $-1 $-1 $123 $58 #
plane-surface $-1 -40.086874863918894 43.256344586798207 133.03292694261503 1 0 0 0 -0.51503808176128008 -0.85716729658548041 forward_v I I I I #
face $-1 $124 $125 $45 $-1 $126 forward single #
loop $-1 $127 $128 $59 #
cone-surface $-1 -34.769830124823102 18.110372617452601 2.3250102698871107 0 -0.51503808176128008 -0.85716729658548041 2 0 0 1 I I 0 1 2 forward I I I I #
face $-1 $129 $130 $46 $-1 $131 forward single #
loop $-1 $132 $133 $60 #
cone-surface $-1 -26.794263016179414 18.110372617452601 2.3250102698871107 0 -0.51503808176128008 -0.85716729658548041 2 0 0 1 I I 0 1 2 forward I I I I #
face $-1 $134 $135 $47 $-1 $136 reversed single #
loop $-1 $-1 $137 $61 #
plane-surface $-1 -15.558823692133963 43.256344586798207 133.03292694261503 1 0 0 0 -0.51503808176128008 -0.85716729658548041 forward_v I I I I #
face $-1 $138 $139 $48 $-1 $140 forward single #
loop $-1 $141 $142 $62 #
cone-surface $-1 -10.241778953038164 18.110372617452601 2.3250102698871107 0 -0.51503808176128008 -0.85716729658548041 2 0 0 1 I I 0 1 2 forward I I I I #
face $-1 $143 $144 $49 $-1 $145 forward single #
loop $-1 $146 $147 $63 #
cone-surface $-1 -2.2662118443944763 18.110372617452601 2.3250102698871107 0 -0.51503808176128008 -0.85716729658548041 2 0 0 1 I I 0 1 2 forward I I I I #
face $-1 $148 $149 $50 $-1 $150 reversed single #
loop $-1 $-1 $151 $64 #
plane-surface $-1 8.969227479650975 43.256344586798207 133.03292694261503 1 0 0 0 -0.51503808176128008 -0.85716729658548041 forward_v I I I I #
face $-1 $152 $153 $51 $-1 $154 forward single #
loop $-1 $155 $156 $65 #
cone-surface $-1 14.286272218746774 18.110372617452601 2.3250102698871107 0 -0.51503808176128008 -0.85716729658548041 2 0 0 1 I I 0 1 2 forward I I I I #
face $-1 $157 $158 $52 $-1 $159 forward single #
loop $-1 $160 $161 $66 #
cone-surface $-1 22.261839327390462 18.110372617452601 2.3250102698871107 0 -0.51503808176128008 -0.85716729658548041 2 0 0 1 I I 0 1 2 forward I I I I #
face $-1 $162 $163 $53 $-1 $164 reversed single #
loop $-1 $-1 $165 $67 #
plane-surface $-1 33.497278651435913 43.256344586798207 133.03292694261503 1 0 0 0 -0.51503808176128008 -0.85716729658548041 forward_v I I I I #
face $-1 $166 $167 $54 $-1 $168 forward single #
loop $-1 $169 $170 $68 #
cone-surface $-1 38.814323390531712 18.110372617452601 2.3250102698871107 0 -0.51503808176128008 -0.85716729658548041 2 0 0 1 I I 0 1 2 forward I I I I #
face $-1 $171 $172 $55 $-1 $173 forward single #
loop $-1 $174 $175 $69 #
cone-surface $-1 46.789890499175399 18.110372617452601 2.3250102698871107 0 -0.51503808176128008 -0.85716729658548041 2 0 0 1 I I 0 1 2 forward I I I I #
face $-1 $176 $177 $42 $-1 $178 reversed single #
loop $-1 $-1 $179 $70 #
plane-surface $-1 0 0 -9.5524326604112861 0 0 1 1 0 0 forward_v I I I I #
coedge $-1 $180 $181 $182 $183 forward $71 $-1 #
face $-1 $184 $185 $43 $-1 $186 reversed single #
loop $-1 $-1 $187 $73 #
plane-surface $-1 -54.974496928519528 0 4.0037388700085588 0 0 1 1 0 0 forward_v I I I I #
coedge $-1 $188 $189 $190 $191 forward $74 $-1 #
face $-1 $192 $193 $44 $-1 $194 reversed single #
loop $-1 $-1 $195 $76 #
plane-surface $-1 -30.782046570501258 -19.562363138775133 28.485042460005474 0 0.51503808176128008 0.85716729658548041 1 0 0 forward_v I I I I #
coedge $-1 $196 $197 $198 $199 reversed $77 $-1 #
face $-1 $-1 $200 $45 $-1 $201 forward single #
loop $-1 $202 $203 $79 #
cone-surface $-1 -34.769830124823102 16.039594790872258 -1.1213427170008412 0 -0.51503808176128008 -0.85716729658548041 1 0 0 1 I I -0.70710678118654768 0.70710678118654735 1 forward I I I I #
loop $-1 $-1 $204 $59 #
coedge $-1 $128 $128 $205 $206 reversed $80 $-1 #
face $-1 $-1 $207 $46 $-1 $208 forward single #
loop $-1 $209 $210 $82 #
cone-surface $-1 -26.794263016179414 16.039594790872258 -1.1213427170008412 0 -0.51503808176128008 -0.85716729658548041 1 0 0 1 I I -0.70710678118654768 0.70710678118654735 1 forward I I I I #
loop $-1 $-1 $211 $60 #
coedge $-1 $133 $133 $212 $213 reversed $83 $-1 #
face $-1 $214 $215 $47 $-1 $216 reversed single #
loop $-1 $-1 $217 $85 #
plane-surface $-1 -6.2539953987163273 -19.562363138775133 28.485042460005474 0 0.51503808176128008 0.85716729658548041 1 0 0 forward_v I I I I #
coedge $-1 $218 $219 $220 $221 reversed $86 $-1 #
face $-1 $-1 $222 $48 $-1 $223 forward single #
loop $-1 $224 $225 $88 #
cone-surface $-1 -10.241778953038164 16.039594790872258 -1.1213427170008412 0 -0.51503808176128008 -0.85716729658548041 1 0 0 1 I I -0.70710678118654768 0.70710678118654735 1 forward I I I I #
loop $-1 $-1 $226 $62 #
coedge $-1 $142 $142 $227 $228 reversed $89 $-1 #
face $-1 $-1 $229 $49 $-1 $230 forward single #
loop $-1 $231 $232 $91 #
cone-surface $-1 -2.2662118443944763 16.039594790872258 -1.1213427170008412 0 -0.51503808176128008 -0.85716729658548041 1 0 0 1 I I -0.70710678118654768 0.70710678118654735 1 forward I I I I #
loop $-1 $-1 $233 $63 #
coedge $-1 $147 $147 $234 $235 reversed $92 $-1 #
face $-1 $236 $237 $50 $-1 $238 reversed single #
loop $-1 $-1 $239 $94 #
plane-surface $-1 18.274055773068611 -19.562363138775133 28.485042460005474 0 0.51503808176128008 0.85716729658548041 1 0 0 forward_v I I I I #
coedge $-1 $240 $241 $242 $243 reversed $95 $-1 #
face $-1 $-1 $244 $51 $-1 $245 forward single #
loop $-1 $246 $247 $97 #
cone-surface $-1 14.286272218746774 16.039594790872258 -1.1213427170008412 0 -0.51503808176128008 -0.85716729658548041 1 0 0 1 I I -0.70710678118654768 0.70710678118654735 1 forward I I I I #
loop $-1 $-1 $248 $65 #
coedge $-1 $156 $156 $249 $250 reversed $98 $-1 #
face $-1 $-1 $251 $52 $-1 $252 forward single #
loop $-1 $253 $254 $100 #
cone-surface $-1 22.261839327390462 16.039594790872258 -1.1213427170008412 0 -0.51503808176128008 -0.85716729658548041 1 0 0 1 I I -0.70710678118654768 0.70710678118654735 1 forward I I I I #
loop $-1 $-1 $255 $66 #
coedge $-1 $161 $161 $256 $257 reversed $101 $-1 #
face $-1 $258 $259 $53 $-1 $260 reversed single #
loop $-1 $-1 $261 $103 #
plane-surface $-1 42.802106944853548 -19.562363138775133 28.485042460005474 0 0.51503808176128008 0.85716729658548041 1 0 0 forward_v I I I I #
coedge $-1 $262 $263 $264 $265 reversed $104 $-1 #
face $-1 $-1 $266 $54 $-1 $267 forward single #
loop $-1 $268 $269 $106 #
cone-surface $-1 38.814323390531712 16.039594790872258 -1.1213427170008412 0 -0.51503808176128008 -0.85716729658548041 1 0 0 1 I I -0.70710678118654768 0.70710678118654735 1 forward I I I I #
loop $-1 $-1 $270 $68 #
coedge $-1 $170 $170 $271 $272 reversed $107 $-1 #
face $-1 $-1 $273 $55 $-1 $274 forward single #
loop $-1 $275 $276 $109 #
cone-surface $-1 46.789890499175399 16.039594790872258 -1.1213427170008412 0 -0.51503808176128008 -0.85716729658548041 1 0 0 1 I I -0.70710678118654768 0.70710678118654735 1 forward I I I I #
loop $-1 $-1 $277 $69 #
coedge $-1 $175 $175 $278 $279 reversed $110 $-1 #
face $-1 $280 $281 $42 $-1 $282 reversed single #
loop $-1 $-1 $283 $112 #
plane-surface $-1 0 -27.385434396977729 0 0 1 0 0 0 1 forward_v I I I I #
coedge $-1 $284 $285 $286 $287 forward $113 $-1 #
coedge $-1 $288 $115 $289 $290 forward $71 $-1 #
coedge $-1 $115 $288 $291 $292 forward $71 $-1 #
coedge $-1 $293 $294 $115 $183 reversed $295 $-1 #
edge $-1 $296 -27.385434396977729 $297 27.385434396977729 $182 $298 forward 7 unknown #
face $-1 $299 $300 $43 $-1 $301 reversed single #
loop $-1 $-1 $302 $116 #
plane-surface $-1 -48.964466741343387 0 6.4041931614936676 -1 0 0 0 0 1 forward_v I I I I #
coedge $-1 $303 $304 $305 $306 forward $117 $-1 #
coedge $-1 $307 $119 $308 $309 reversed $74 $-1 #
coedge $-1 $119 $307 $310 $311 reversed $74 $-1 #
coedge $-1 $302 $312 $119 $191 reversed $185 $-1 #
edge $-1 $313 -27.385434396977729 $314 27.385434396977729 $190 $315 forward 7 unknown #
face $-1 $316 $317 $44 $-1 $318 forward single #
loop $-1 $-1 $319 $120 #
plane-surface $-1 -21.477218277083622 43.256344586798207 133.03292694261503 -1 0 0 0 0.51503808176128008 0.85716729658548041 forward_v I I I I #
coedge $-1 $320 $321 $322 $323 reversed $121 $-1 #
coedge $-1 $197 $123 $324 $325 reversed $77 $-1 #
coedge $-1 $123 $196 $320 $326 reversed $77 $-1 #
coedge $-1 $322 $327 $123 $199 forward $317 $-1 #
edge $-1 $328 -5.7572621035786256 $329 9.6813819658334914 $198 $330 forward 7 unknown #
loop $-1 $-1 $205 $124 #
plane-surface $-1 -30.782046570501258 -19.562363138775133 28.485042460005474 0 0.51503808176128008 0.85716729658548041 1 0 0 forward_v I I I I #
loop $-1 $-1 $331 $79 #
coedge $-1 $203 $203 $204 $332 reversed $125 $-1 #
coedge $-1 $204 $204 $203 $332 forward $127 $-1 #
coedge $-1 $205 $205 $128 $206 forward $200 $-1 #
edge $-1 $333 -5.293185771070353e-016 $333 6.2831853071795996 $205 $334 forward 7 unknown #
loop $-1 $-1 $212 $129 #
plane-surface $-1 -30.782046570501258 -19.562363138775133 28.485042460005474 0 0.51503808176128008 0.85716729658548041 1 0 0 forward_v I I I I #
loop $-1 $-1 $335 $82 #
coedge $-1 $210 $210 $211 $336 reversed $130 $-1 #
coedge $-1 $211 $211 $210 $336 forward $132 $-1 #
coedge $-1 $212 $212 $133 $213 forward $207 $-1 #
edge $-1 $337 -5.293185771070353e-016 $337 6.2831853071795996 $212 $338 forward 7 unknown #
face $-1 $339 $340 $47 $-1 $341 forward single #
loop $-1 $-1 $342 $134 #
plane-surface $-1 3.0508328947013084 43.256344586798207 133.03292694261503 -1 0 0 0 0.51503808176128008 0.85716729658548041 forward_v I I I I #
coedge $-1 $343 $344 $345 $346 reversed $135 $-1 #
coedge $-1 $219 $137 $347 $348 reversed $86 $-1 #
coedge $-1 $137 $218 $343 $349 reversed $86 $-1 #
coedge $-1 $345 $350 $137 $221 forward $340 $-1 #
edge $-1 $351 -5.7572621035786256 $352 9.6813819658334914 $220 $353 forward 7 unknown #
loop $-1 $-1 $227 $138 #
plane-surface $-1 -6.2539953987163273 -19.562363138775133 28.485042460005474 0 0.51503808176128008 0.85716729658548041 1 0 0 forward_v I I I I #
loop $-1 $-1 $354 $88 #
coedge $-1 $225 $225 $226 $355 reversed $139 $-1 #
coedge $-1 $226 $226 $225 $355 forward $141 $-1 #
coedge $-1 $227 $227 $142 $228 forward $222 $-1 #
edge $-1 $356 -5.293185771070353e-016 $356 6.2831853071795996 $227 $357 forward 7 unknown #
loop $-1 $-1 $234 $143 #
plane-surface $-1 -6.2539953987163273 -19.562363138775133 28.485042460005474 0 0.51503808176128008 0.85716729658548041 1 0 0 forward_v I I I I #
loop $-1 $-1 $358 $91 #
coedge $-1 $232 $232 $233 $359 reversed $144 $-1 #
coedge $-1 $233 $233 $232 $359 forward $146 $-1 #
coedge $-1 $234 $234 $147 $235 forward $229 $-1 #
edge $-1 $360 -5.293185771070353e-016 $360 6.2831853071795996 $234 $361 forward 7 unknown #
face $-1 $362 $363 $50 $-1 $364 forward single #
loop $-1 $-1 $365 $148 #
plane-surface $-1 27.578884066486246 43.256344586798207 133.03292694261503 -1 0 0 0 0.51503808176128008 0.85716729658548041 forward_v I I I I #
coedge $-1 $366 $367 $368 $369 reversed $149 $-1 #
coedge $-1 $241 $151 $370 $371 reversed $95 $-1 #
coedge $-1 $151 $240 $366 $372 reversed $95 $-1 #
coedge $-1 $368 $373 $151 $243 forward $363 $-1 #
edge $-1 $374 -5.7572621035786256 $375 9.6813819658334914 $242 $376 forward 7 unknown #
loop $-1 $-1 $249 $152 #
plane-surface $-1 18.274055773068611 -19.562363138775133 28.485042460005474 0 0.51503808176128008 0.85716729658548041 1 0 0 forward_v I I I I #
loop $-1 $-1 $377 $97 #
coedge $-1 $247 $247 $248 $378 reversed $153 $-1 #
coedge $-1 $248 $248 $247 $378 forward $155 $-1 #
coedge $-1 $249 $249 $156 $250 forward $244 $-1 #
edge $-1 $379 -5.293185771070353e-016 $379 6.2831853071795996 $249 $380 forward 7 unknown #
loop $-1 $-1 $256 $157 #
plane-surface $-1 18.274055773068611 -19.562363138775133 28.485042460005474 0 0.51503808176128008 0.85716729658548041 1 0 0 forward_v I I I I #
loop $-1 $-1 $381 $100 #
coedge $-1 $254 $254 $255 $382 reversed $158 $-1 #
coedge $-1 $255 $255 $254 $382 forward $160 $-1 #
coedge $-1 $256 $256 $161 $257 forward $251 $-1 #
edge $-1 $383 -5.293185771070353e-016 $383 6.2831853071795996 $256 $384 forward 7 unknown #
face $-1 $385 $386 $53 $-1 $387 forward single #
loop $-1 $-1 $388 $162 #
plane-surface $-1 52.106935238271184 43.256344586798207 133.03292694261503 -1 0 0 0 0.51503808176128008 0.85716729658548041 forward_v I I I I #
coedge $-1 $389 $390 $391 $392 reversed $163 $-1 #
coedge $-1 $263 $165 $393 $394 reversed $104 $-1 #
coedge $-1 $165 $262 $389 $395 reversed $104 $-1 #
coedge $-1 $391 $396 $165 $265 forward $386 $-1 #
edge $-1 $397 -5.7572621035786256 $398 9.6813819658334914 $264 $399 forward 7 unknown #
loop $-1 $-1 $271 $166 #
plane-surface $-1 42.802106944853548 -19.562363138775133 28.485042460005474 0 0.51503808176128008 0.85716729658548041 1 0 0 forward_v I I I I #
loop $-1 $-1 $400 $106 #
coedge $-1 $269 $269 $270 $401 reversed $167 $-1 #
coedge $-1 $270 $270 $269 $401 forward $169 $-1 #
coedge $-1 $271 $271 $170 $272 forward $266 $-1 #
edge $-1 $402 -5.293185771070353e-016 $402 6.2831853071795996 $271 $403 forward 7 unknown #
loop $-1 $-1 $278 $171 #
plane-surface $-1 42.802106944853548 -19.562363138775133 28.485042460005474 0 0.51503808176128008 0.85716729658548041 1 0 0 forward_v I I I I #
loop $-1 $-1 $404 $109 #
coedge $-1 $276 $276 $277 $405 reversed $172 $-1 #
coedge $-1 $277 $277 $276 $405 forward $174 $-1 #
coedge $-1 $278 $278 $175 $279 forward $273 $-1 #
edge $-1 $406 -5.293185771070353e-016 $406 6.2831853071795996 $278 $407 forward 7 unknown #
face $-1 $408 $409 $42 $-1 $410 reversed single #
loop $-1 $-1 $411 $176 #
plane-surface $-1 -60.98452711569567 0 0 1 0 0 0 0 -1 forward_v I I I I #
coedge $-1 $412 $291 $413 $414 forward $177 $-1 #
coedge $-1 $415 $179 $412 $416 forward $113 $-1 #
coedge $-1 $179 $415 $417 $418 forward $113 $-1 #
coedge $-1 $294 $293 $179 $287 reversed $295 $-1 #
edge $-1 $419 -27.385434396977729 $420 27.385434396977729 $286 $421 forward 7 unknown #
coedge $-1 $181 $180 $422 $423 forward $71 $-1 #
coedge $-1 $424 $425 $180 $290 reversed $409 $-1 #
edge $-1 $297 -60.98452711569567 $426 60.98452711569567 $289 $427 forward 7 unknown #
coedge $-1 $283 $428 $181 $292 reversed $177 $-1 #
edge $-1 $429 -60.98452711569567 $296 60.98452711569567 $291 $430 forward 7 unknown #
coedge $-1 $286 $182 $428 $431 forward $295 $-1 #
coedge $-1 $182 $286 $424 $432 reversed $295 $-1 #
loop $-1 $-1 $293 $408 #
vertex $-1 $183 $433 #
vertex $-1 $183 $434 #
straight-curve $-1 60.98452711569567 0 9.5524326604112861 0 1 0 I I #
face $-1 $435 $436 $43 $-1 $437 reversed single #
loop $-1 $-1 $438 $184 #
plane-surface $-1 0 -27.385434396977729 0 0 1 0 0 0 1 forward_v I I I I #
coedge $-1 $305 $190 $439 $440 reversed $185 $-1 #
coedge $-1 $441 $187 $438 $442 reversed $117 $-1 #
coedge $-1 $187 $441 $443 $444 reversed $117 $-1 #
coedge $-1 $312 $302 $187 $306 reversed $185 $-1 #
edge $-1 $445 -27.385434396977729 $446 27.385434396977729 $305 $447 forward 7 unknown #
coedge $-1 $189 $188 $448 $449 reversed $74 $-1 #
coedge $-1 $450 $451 $188 $309 forward $452 $-1 #
edge $-1 $453 -33.497278651435906 $314 -21.477218277083622 $308 $454 forward 7 unknown #
coedge $-1 $455 $439 $189 $311 forward $300 $-1 #
edge $-1 $313 21.477218277083622 $456 33.497278651435906 $310 $457 forward 7 unknown #
coedge $-1 $190 $305 $450 $458 reversed $185 $-1 #
vertex $-1 $311 $459 #
vertex $-1 $309 $460 #
straight-curve $-1 -48.964466741343387 0 8.8046474529787773 0 1 0 I I #
face $-1 $-1 $461 $44 $-1 $462 reversed single #
loop $-1 $-1 $198 $192 #
plane-surface $-1 0 0 9.5524326604112861 0 0 1 1 0 0 forward_v I I I I #
coedge $-1 $463 $464 $465 $466 reversed $193 $-1 #
coedge $-1 $467 $195 $197 $326 forward $121 $-1 #
coedge $-1 $195 $467 $463 $468 forward $121 $-1 #
coedge $-1 $465 $198 $195 $323 forward $317 $-1 #
edge $-1 $329 -24.695851578668265 $469 -6.0861949918329934 $322 $470 forward 7 unknown #
coedge $-1 $471 $472 $196 $325 forward $461 $-1 #
edge $-1 $473 -66.240504211339626 $328 -56.964030810896233 $324 $474 forward 7 unknown #
edge $-1 $329 36.759630928358121 $473 54.770868793955465 $197 $475 forward 7 unknown #
coedge $-1 $198 $465 $471 $476 forward $317 $-1 #
vertex $-1 $325 $477 #
vertex $-1 $199 $478 #
straight-curve $-1 -40.086874863918894 21.628172293399103 9.5524326604112844 0 -1 0 I I #
coedge $-1 $331 $331 $-1 $479 reversed $202 $-1 #
edge $-1 $480 0 $480 6.2831853071796004 $203 $481 forward 7 unknown #
vertex $-1 $206 $482 #
ellipse-curve $-1 -34.769830124823102 19.666112362271669 4.9141959601895913 0 0.51503808176128008 0.85716729658548041 2 0 0 1 I I #
coedge $-1 $335 $335 $-1 $483 reversed $209 $-1 #
edge $-1 $484 0 $484 6.2831853071796004 $210 $485 forward 7 unknown #
vertex $-1 $213 $486 #
ellipse-curve $-1 -26.794263016179414 19.666112362271669 4.9141959601895913 0 0.51503808176128008 0.85716729658548041 2 0 0 1 I I #
face $-1 $-1 $487 $47 $-1 $488 reversed single #
loop $-1 $-1 $220 $214 #
plane-surface $-1 0 0 9.5524326604112861 0 0 1 1 0 0 forward_v I I I I #
coedge $-1 $489 $490 $491 $492 reversed $215 $-1 #
coedge $-1 $493 $217 $219 $349 forward $135 $-1 #
coedge $-1 $217 $493 $489 $494 forward $135 $-1 #
coedge $-1 $491 $220 $217 $346 forward $340 $-1 #
edge $-1 $352 -12.431825992775799 $495 6.177830594059472 $345 $496 forward 7 unknown #
coedge $-1 $497 $498 $218 $348 forward $487 $-1 #
edge $-1 $499 -66.240504211339626 $351 -56.964030810896233 $347 $500 forward 7 unknown #
edge $-1 $352 36.759630928358121 $499 54.770868793955465 $219 $501 forward 7 unknown #
coedge $-1 $220 $491 $497 $502 forward $340 $-1 #
vertex $-1 $221 $503 #
vertex $-1 $221 $504 #
straight-curve $-1 -15.558823692133963 21.628172293399103 9.5524326604112844 0 -1 0 I I #
coedge $-1 $354 $354 $-1 $505 reversed $224 $-1 #
edge $-1 $506 0 $506 6.2831853071796004 $225 $507 forward 7 unknown #
vertex $-1 $228 $508 #
ellipse-curve $-1 -10.241778953038164 19.666112362271669 4.9141959601895913 0 0.51503808176128008 0.85716729658548041 2 0 0 1 I I #
coedge $-1 $358 $358 $-1 $509 reversed $231 $-1 #
edge $-1 $510 0 $510 6.2831853071796004 $232 $511 forward 7 unknown #
vertex $-1 $235 $512 #
ellipse-curve $-1 -2.2662118443944763 19.666112362271669 4.9141959601895913 0 0.51503808176128008 0.85716729658548041 2 0 0 1 I I #
face $-1 $-1 $513 $50 $-1 $514 reversed single #
loop $-1 $-1 $242 $236 #
plane-surface $-1 0 0 9.5524326604112861 0 0 1 1 0 0 forward_v I I I I #
coedge $-1 $515 $516 $517 $518 reversed $237 $-1 #
coedge $-1 $519 $239 $241 $372 forward $149 $-1 #
coedge $-1 $239 $519 $515 $520 forward $149 $-1 #
coedge $-1 $517 $242 $239 $369 forward $363 $-1 #
edge $-1 $375 -0.16780040688333031 $521 18.441856179951941 $368 $522 forward 7 unknown #
coedge $-1 $523 $524 $240 $371 forward $513 $-1 #
edge $-1 $525 -66.240504211339626 $374 -56.964030810896233 $370 $526 forward 7 unknown #
edge $-1 $375 36.759630928358121 $525 54.770868793955465 $241 $527 forward 7 unknown #
coedge $-1 $242 $517 $523 $528 forward $363 $-1 #
vertex $-1 $243 $529 #
vertex $-1 $243 $530 #
straight-curve $-1 8.969227479650975 21.628172293399103 9.5524326604112844 0 -1 0 I I #
coedge $-1 $377 $377 $-1 $531 reversed $246 $-1 #
edge $-1 $532 0 $532 6.2831853071796004 $247 $533 forward 7 unknown #
vertex $-1 $250 $534 #
ellipse-curve $-1 14.286272218746774 19.666112362271669 4.9141959601895913 0 0.51503808176128008 0.85716729658548041 2 0 0 1 I I #
coedge $-1 $381 $381 $-1 $535 reversed $253 $-1 #
edge $-1 $536 0 $536 6.2831853071796004 $254 $537 forward 7 unknown #
vertex $-1 $257 $538 #
ellipse-curve $-1 22.261839327390462 19.666112362271669 4.9141959601895913 0 0.51503808176128008 0.85716729658548041 2 0 0 1 I I #
face $-1 $-1 $539 $53 $-1 $540 reversed single #
loop $-1 $-1 $264 $258 #
plane-surface $-1 0 0 9.5524326604112861 0 0 1 1 0 0 forward_v I I I I #
coedge $-1 $541 $542 $543 $544 reversed $259 $-1 #
coedge $-1 $545 $261 $263 $395 forward $163 $-1 #
coedge $-1 $261 $545 $541 $546 forward $163 $-1 #
coedge $-1 $543 $264 $261 $392 forward $386 $-1 #
edge $-1 $398 12.096225179009139 $547 30.70588176584441 $391 $548 forward 7 unknown #
coedge $-1 $549 $550 $262 $394 forward $539 $-1 #
edge $-1 $551 -66.240504211339626 $397 -56.964030810896233 $393 $552 forward 7 unknown #
edge $-1 $398 36.759630928358121 $551 54.770868793955465 $263 $553 forward 7 unknown #
coedge $-1 $264 $543 $549 $554 forward $386 $-1 #
vertex $-1 $265 $555 #
vertex $-1 $265 $556 #
straight-curve $-1 33.497278651435913 21.628172293399103 9.5524326604112844 0 -1 0 I I #
coedge $-1 $400 $400 $-1 $557 reversed $268 $-1 #
edge $-1 $558 0 $558 6.2831853071796004 $269 $559 forward 7 unknown #
vertex $-1 $272 $560 #
ellipse-curve $-1 38.814323390531712 19.666112362271669 4.9141959601895913 0 0.51503808176128008 0.85716729658548041 2 0 0 1 I I #
coedge $-1 $404 $404 $-1 $561 reversed $275 $-1 #
edge $-1 $562 0 $562 6.2831853071796004 $276 $563 forward 7 unknown #
vertex $-1 $279 $564 #
ellipse-curve $-1 46.789890499175399 19.666112362271669 4.9141959601895913 0 0.51503808176128008 0.85716729658548041 2 0 0 1 I I #
face $-1 $-1 $295 $42 $-1 $565 reversed single #
loop $-1 $-1 $424 $280 #
plane-surface $-1 0 27.385434396977729 0 0 -1 0 0 0 -1 forward_v I I I I #
coedge $-1 $566 $422 $425 $567 forward $281 $-1 #
coedge $-1 $428 $283 $284 $416 reversed $177 $-1 #
coedge $-1 $422 $566 $283 $414 reversed $281 $-1 #
edge $-1 $429 -9.5524326604112861 $568 9.5524326604112861 $413 $569 forward 7 unknown #
coedge $-1 $285 $284 $566 $570 forward $113 $-1 #
edge $-1 $420 -60.98452711569567 $568 60.98452711569567 $412 $571 forward 7 unknown #
coedge $-1 $425 $424 $285 $418 reversed $409 $-1 #
edge $-1 $572 -60.98452711569567 $419 60.98452711569567 $417 $573 forward 7 unknown #
vertex $-1 $287 $574 #
vertex $-1 $431 $575 #
straight-curve $-1 60.98452711569567 0 -9.5524326604112861 0 -1 0 I I #
coedge $-1 $411 $413 $288 $423 reversed $281 $-1 #
edge $-1 $426 -27.385434396977729 $429 27.385434396977729 $422 $576 forward 7 unknown #
coedge $-1 $417 $289 $294 $432 forward $409 $-1 #
coedge $-1 $289 $417 $411 $567 reversed $409 $-1 #
vertex $-1 $290 $577 #
straight-curve $-1 0 27.385434396977729 9.5524326604112861 -1 0 0 I I #
coedge $-1 $291 $412 $293 $431 reversed $177 $-1 #
vertex $-1 $423 $578 #
straight-curve $-1 0 -27.385434396977729 9.5524326604112861 1 0 0 I I #
edge $-1 $296 -9.5524326604112861 $420 9.5524326604112861 $293 $579 forward 7 unknown #
edge $-1 $297 -9.5524326604112861 $419 9.5524326604112861 $294 $580 forward 7 unknown #
point $-1 60.98452711569567 -27.385434396977729 9.5524326604112861 #
point $-1 60.98452711569567 27.385434396977729 9.5524326604112861 #
face $-1 $-1 $452 $43 $-1 $581 reversed single #
loop $-1 $-1 $582 $299 #
plane-surface $-1 -60.98452711569567 0 0 1 0 0 0 0 -1 forward_v I I I I #
coedge $-1 $439 $455 $303 $442 forward $300 $-1 #
coedge $-1 $310 $438 $302 $440 forward $300 $-1 #
edge $-1 $446 0.80164228926172498 $313 5.6025508722319435 $439 $583 forward 7 unknown #
coedge $-1 $304 $303 $582 $584 reversed $117 $-1 #
edge $-1 $585 -33.497278651435906 $446 -21.477218277083622 $438 $586 forward 7 unknown #
coedge $-1 $451 $450 $304 $444 forward $452 $-1 #
edge $-1 $445 21.477218277083622 $587 33.497278651435906 $443 $588 forward 7 unknown #
vertex $-1 $444 $589 #
vertex $-1 $442 $590 #
straight-curve $-1 -48.964466741343387 0 4.0037388700085588 0 -1 0 I I #
coedge $-1 $591 $592 $307 $449 forward $436 $-1 #
edge $-1 $456 -27.385434396977729 $453 27.385434396977729 $448 $593 forward 7 unknown #
coedge $-1 $443 $308 $312 $458 forward $452 $-1 #
coedge $-1 $308 $443 $591 $594 reversed $452 $-1 #
loop $-1 $-1 $443 $435 #
vertex $-1 $594 $595 #
straight-curve $-1 -27.487248464259764 27.385434396977729 8.8046474529787773 1 0 0 I I #
coedge $-1 $438 $310 $592 $596 forward $300 $-1 #
vertex $-1 $596 $597 #
straight-curve $-1 -27.487248464259764 -27.385434396977729 8.8046474529787773 -1 0 0 I I #
edge $-1 $314 -5.6025508722319435 $445 -0.80164228926172498 $450 $598 forward 7 unknown #
point $-1 -48.964466741343387 -27.385434396977729 8.8046474529787773 #
point $-1 -48.964466741343387 27.385434396977729 8.8046474529787773 #
loop $-1 $-1 $324 $316 #
plane-surface $-1 0 27.385434396977729 0 0 -1 0 0 0 -1 forward_v I I I I #
coedge $-1 $464 $319 $321 $468 reversed $193 $-1 #
coedge $-1 $319 $463 $599 $600 reversed $193 $-1 #
coedge $-1 $327 $322 $319 $466 forward $317 $-1 #
edge $-1 $469 -9.6813819658334914 $601 5.7572621035786256 $465 $602 forward 7 unknown #
coedge $-1 $321 $320 $472 $603 reversed $121 $-1 #
edge $-1 $604 -54.770868793955465 $469 -36.759630928358121 $463 $605 forward 7 unknown #
vertex $-1 $323 $606 #
straight-curve $-1 -15.391023285250629 11.946790327565607 9.5524326604112844 1 0 0 I I #
coedge $-1 $599 $324 $327 $476 reversed $461 $-1 #
coedge $-1 $324 $599 $467 $603 forward $461 $-1 #
vertex $-1 $325 $607 #
straight-curve $-1 -40.086874863918894 27.385434396977729 66.516463471307517 0 0 1 I I #
straight-curve $-1 -40.086874863918894 -19.562363138775133 28.485042460005474 0 0.85716729658548041 -0.51503808176128008 I I #
edge $-1 $601 21.477218277083622 $328 40.086874863918894 $471 $608 forward 7 unknown #
point $-1 -40.086874863918894 27.385434396977729 9.5524326604112861 #
point $-1 -40.086874863918894 11.946790327565612 9.5524326604112844 #
edge $-1 $609 1 $609 0 $331 $-1 forward 7 unknown #
vertex $-1 $332 $610 #
ellipse-curve $-1 -34.769830124823102 16.554632872633537 -0.26417542041536113 0 0.51503808176128008 0.85716729658548041 2 0 0 1 I I #
point $-1 -32.769830124823102 19.666112362271662 4.9141959601895815 #
edge $-1 $611 1 $611 0 $335 $-1 forward 7 unknown #
vertex $-1 $336 $612 #
ellipse-curve $-1 -26.794263016179414 16.554632872633537 -0.26417542041536113 0 0.51503808176128008 0.85716729658548041 2 0 0 1 I I #
point $-1 -24.794263016179414 19.666112362271662 4.9141959601895815 #
loop $-1 $-1 $347 $339 #
plane-surface $-1 0 27.385434396977729 0 0 -1 0 0 0 -1 forward_v I I I I #
coedge $-1 $490 $342 $344 $494 reversed $215 $-1 #
coedge $-1 $342 $489 $613 $614 reversed $215 $-1 #
coedge $-1 $350 $345 $342 $492 forward $340 $-1 #
edge $-1 $495 -9.6813819658334914 $615 5.7572621035786256 $491 $616 forward 7 unknown #
coedge $-1 $344 $343 $498 $617 reversed $135 $-1 #
edge $-1 $618 -54.770868793955465 $495 -36.759630928358121 $489 $619 forward 7 unknown #
vertex $-1 $346 $620 #
straight-curve $-1 -3.1269976993581636 11.946790327565607 9.5524326604112844 1 0 0 I I #
coedge $-1 $613 $347 $350 $502 reversed $487 $-1 #
coedge $-1 $347 $613 $493 $617 forward $487 $-1 #
vertex $-1 $348 $621 #
straight-curve $-1 -15.558823692133963 27.385434396977729 66.516463471307517 0 0 1 I I #
straight-curve $-1 -15.558823692133963 -19.562363138775133 28.485042460005474 0 0.85716729658548041 -0.51503808176128008 I I #
edge $-1 $615 -3.0508328947013084 $351 15.558823692133963 $497 $622 forward 7 unknown #
point $-1 -15.558823692133963 27.385434396977729 9.5524326604112861 #
point $-1 -15.558823692133963 11.946790327565612 9.5524326604112844 #
edge $-1 $623 1 $623 0 $354 $-1 forward 7 unknown #
vertex $-1 $355 $624 #
ellipse-curve $-1 -10.241778953038164 16.554632872633537 -0.26417542041536113 0 0.51503808176128008 0.85716729658548041 2 0 0 1 I I #
point $-1 -8.241778953038164 19.666112362271662 4.9141959601895815 #
edge $-1 $625 1 $625 0 $358 $-1 forward 7 unknown #
vertex $-1 $359 $626 #
ellipse-curve $-1 -2.2662118443944763 16.554632872633537 -0.26417542041536113 0 0.51503808176128008 0.85716729658548041 2 0 0 1 I I #
point $-1 -0.26621184439447632 19.666112362271662 4.9141959601895815 #
loop $-1 $-1 $370 $362 #
plane-surface $-1 0 27.385434396977729 0 0 -1 0 0 0 -1 forward_v I I I I #
coedge $-1 $516 $365 $367 $520 reversed $237 $-1 #
coedge $-1 $365 $515 $627 $628 reversed $237 $-1 #
coedge $-1 $373 $368 $365 $518 forward $363 $-1 #
edge $-1 $521 -9.6813819658334914 $629 5.7572621035786256 $517 $630 forward 7 unknown #
coedge $-1 $367 $366 $524 $631 reversed $149 $-1 #
edge $-1 $632 -54.770868793955465 $521 -36.759630928358121 $515 $633 forward 7 unknown #
vertex $-1 $369 $634 #
straight-curve $-1 9.1370278865343053 11.946790327565607 9.5524326604112844 1 0 0 I I #
coedge $-1 $627 $370 $373 $528 reversed $513 $-1 #
coedge $-1 $370 $627 $519 $631 forward $513 $-1 #
vertex $-1 $371 $635 #
straight-curve $-1 8.969227479650975 27.385434396977729 66.516463471307517 0 0 1 I I #
straight-curve $-1 8.969227479650975 -19.562363138775133 28.485042460005474 0 0.85716729658548041 -0.51503808176128008 I I #
edge $-1 $629 -27.578884066486246 $374 -8.969227479650975 $523 $636 forward 7 unknown #
point $-1 8.969227479650975 27.385434396977729 9.5524326604112861 #
point $-1 8.969227479650975 11.946790327565612 9.5524326604112844 #
edge $-1 $637 1 $637 0 $377 $-1 forward 7 unknown #
vertex $-1 $378 $638 #
ellipse-curve $-1 14.286272218746774 16.554632872633537 -0.26417542041536113 0 0.51503808176128008 0.85716729658548041 2 0 0 1 I I #
point $-1 16.286272218746774 19.666112362271662 4.9141959601895815 #
edge $-1 $639 1 $639 0 $381 $-1 forward 7 unknown #
vertex $-1 $382 $640 #
ellipse-curve $-1 22.261839327390462 16.554632872633537 -0.26417542041536113 0 0.51503808176128008 0.85716729658548041 2 0 0 1 I I #
point $-1 24.261839327390462 19.666112362271662 4.9141959601895815 #
loop $-1 $-1 $393 $385 #
plane-surface $-1 0 27.385434396977729 0 0 -1 0 0 0 -1 forward_v I I I I #
coedge $-1 $542 $388 $390 $546 reversed $259 $-1 #
coedge $-1 $388 $541 $641 $642 reversed $259 $-1 #
coedge $-1 $396 $391 $388 $544 forward $386 $-1 #
edge $-1 $547 -9.6813819658334914 $643 5.7572621035786256 $543 $644 forward 7 unknown #
coedge $-1 $390 $389 $550 $645 reversed $163 $-1 #
edge $-1 $646 -54.770868793955465 $547 -36.759630928358121 $541 $647 forward 7 unknown #
vertex $-1 $392 $648 #
straight-curve $-1 21.401053472426774 11.946790327565607 9.5524326604112844 1 0 0 I I #
coedge $-1 $641 $393 $396 $554 reversed $539 $-1 #
coedge $-1 $393 $641 $545 $645 forward $539 $-1 #
vertex $-1 $394 $649 #
straight-curve $-1 33.497278651435913 27.385434396977729 66.516463471307517 0 0 1 I I #
straight-curve $-1 33.497278651435913 -19.562363138775133 28.485042460005474 0 0.85716729658548041 -0.51503808176128008 I I #
edge $-1 $643 -52.106935238271184 $397 -33.497278651435913 $549 $650 forward 7 unknown #
point $-1 33.497278651435913 27.385434396977729 9.5524326604112861 #
point $-1 33.497278651435913 11.946790327565612 9.5524326604112844 #
edge $-1 $651 1 $651 0 $400 $-1 forward 7 unknown #
vertex $-1 $401 $652 #
ellipse-curve $-1 38.814323390531712 16.554632872633537 -0.26417542041536113 0 0.51503808176128008 0.85716729658548041 2 0 0 1 I I #
point $-1 40.814323390531712 19.666112362271662 4.9141959601895815 #
edge $-1 $653 1 $653 0 $404 $-1 forward 7 unknown #
vertex $-1 $405 $654 #
ellipse-curve $-1 46.789890499175399 16.554632872633537 -0.26417542041536113 0 0.51503808176128008 0.85716729658548041 2 0 0 1 I I #
point $-1 48.789890499175399 19.666112362271662 4.9141959601895815 #
plane-surface $-1 60.98452711569567 0 0 -1 0 0 0 0 1 forward_v I I I I #
coedge $-1 $413 $411 $415 $570 reversed $281 $-1 #
edge $-1 $426 -9.5524326604112861 $572 9.5524326604112861 $425 $655 forward 7 unknown #
vertex $-1 $570 $656 #
straight-curve $-1 -60.98452711569567 -27.385434396977729 0 0 0 -1 I I #
edge $-1 $568 -27.385434396977729 $572 27.385434396977729 $566 $657 forward 7 unknown #
straight-curve $-1 0 -27.385434396977729 -9.5524326604112861 -1 0 0 I I #
vertex $-1 $418 $658 #
straight-curve $-1 0 27.385434396977729 -9.5524326604112861 1 0 0 I I #
point $-1 60.98452711569567 27.385434396977729 -9.5524326604112861 #
point $-1 60.98452711569567 -27.385434396977729 -9.5524326604112861 #
straight-curve $-1 -60.98452711569567 0 9.5524326604112861 0 -1 0 I I #
point $-1 -60.98452711569567 27.385434396977729 9.5524326604112861 #
point $-1 -60.98452711569567 -27.385434396977729 9.5524326604112861 #
straight-curve $-1 60.98452711569567 -27.385434396977729 0 0 0 -1 I I #
straight-curve $-1 60.98452711569567 27.385434396977729 0 0 0 -1 I I #
plane-surface $-1 0 27.385434396977729 0 0 -1 0 0 0 -1 forward_v I I I I #
coedge $-1 $592 $591 $441 $584 forward $436 $-1 #
straight-curve $-1 -48.964466741343387 -27.385434396977729 3.2020965807468338 0 0 1 I I #
edge $-1 $587 -27.385434396977729 $585 27.385434396977729 $582 $659 forward 7 unknown #
vertex $-1 $442 $660 #
straight-curve $-1 -27.487248464259764 -27.385434396977729 4.0037388700085588 1 0 0 I I #
vertex $-1 $444 $661 #
straight-curve $-1 -27.487248464259764 27.385434396977729 4.0037388700085588 -1 0 0 I I #
point $-1 -48.964466741343387 27.385434396977729 4.0037388700085588 #
point $-1 -48.964466741343387 -27.385434396977729 4.0037388700085588 #
coedge $-1 $582 $448 $451 $594 forward $436 $-1 #
coedge $-1 $448 $582 $455 $596 reversed $436 $-1 #
straight-curve $-1 -60.98452711569567 0 8.8046474529787773 0 1 0 I I #
edge $-1 $453 -8.8046474529787773 $587 -4.0037388700085588 $451 $662 forward 7 unknown #
point $-1 -60.98452711569567 27.385434396977729 8.8046474529787773 #
edge $-1 $456 -8.8046474529787773 $585 -4.0037388700085588 $592 $663 forward 7 unknown #
point $-1 -60.98452711569567 -27.385434396977729 8.8046474529787773 #
straight-curve $-1 -48.964466741343387 27.385434396977729 3.2020965807468338 0 0 -1 I I #
coedge $-1 $472 $471 $464 $600 forward $461 $-1 #
edge $-1 $601 56.964030810896233 $604 66.240504211339626 $599 $664 forward 7 unknown #
vertex $-1 $476 $665 #
straight-curve $-1 -21.477218277083622 21.628172293399103 9.5524326604112844 0 1 0 I I #
edge $-1 $604 6.0861949918329934 $473 24.695851578668265 $472 $666 forward 7 unknown #
vertex $-1 $603 $667 #
straight-curve $-1 -21.477218277083622 -19.562363138775133 28.485042460005474 0 -0.85716729658548041 0.51503808176128008 I I #
point $-1 -21.477218277083622 11.946790327565612 9.5524326604112844 #
point $-1 -40.086874863918894 27.385434396977729 0.27595925996789106 #
straight-curve $-1 0 27.385434396977729 9.5524326604112861 -1 0 0 I I #
vertex $-1 $479 $668 #
point $-1 -32.769830124823102 16.554632872633537 -0.26417542041536113 #
vertex $-1 $483 $669 #
point $-1 -24.794263016179414 16.554632872633537 -0.26417542041536113 #
coedge $-1 $498 $497 $490 $614 forward $487 $-1 #
edge $-1 $615 56.964030810896233 $618 66.240504211339626 $613 $670 forward 7 unknown #
vertex $-1 $502 $671 #
straight-curve $-1 3.0508328947013084 21.628172293399103 9.5524326604112844 0 1 0 I I #
edge $-1 $618 -6.177830594059472 $499 12.431825992775799 $498 $672 forward 7 unknown #
vertex $-1 $617 $673 #
straight-curve $-1 3.0508328947013084 -19.562363138775133 28.485042460005474 0 -0.85716729658548041 0.51503808176128008 I I #
point $-1 3.0508328947013084 11.946790327565612 9.5524326604112844 #
point $-1 -15.558823692133963 27.385434396977729 0.27595925996789106 #
straight-curve $-1 0 27.385434396977729 9.5524326604112861 -1 0 0 I I #
vertex $-1 $505 $674 #
point $-1 -8.241778953038164 16.554632872633537 -0.26417542041536113 #
vertex $-1 $509 $675 #
point $-1 -0.26621184439447632 16.554632872633537 -0.26417542041536113 #
coedge $-1 $524 $523 $516 $628 forward $513 $-1 #
edge $-1 $629 56.964030810896233 $632 66.240504211339626 $627 $676 forward 7 unknown #
vertex $-1 $528 $677 #
straight-curve $-1 27.578884066486246 21.628172293399103 9.5524326604112844 0 1 0 I I #
edge $-1 $632 -18.441856179951941 $525 0.16780040688333031 $524 $678 forward 7 unknown #
vertex $-1 $631 $679 #
straight-curve $-1 27.578884066486246 -19.562363138775133 28.485042460005474 0 -0.85716729658548041 0.51503808176128008 I I #
point $-1 27.578884066486246 11.946790327565612 9.5524326604112844 #
point $-1 8.969227479650975 27.385434396977729 0.27595925996789106 #
straight-curve $-1 0 27.385434396977729 9.5524326604112861 -1 0 0 I I #
vertex $-1 $531 $680 #
point $-1 16.286272218746774 16.554632872633537 -0.26417542041536113 #
vertex $-1 $535 $681 #
point $-1 24.261839327390462 16.554632872633537 -0.26417542041536113 #
coedge $-1 $550 $549 $542 $642 forward $539 $-1 #
edge $-1 $643 56.964030810896233 $646 66.240504211339626 $641 $682 forward 7 unknown #
vertex $-1 $554 $683 #
straight-curve $-1 52.106935238271184 21.628172293399103 9.5524326604112844 0 1 0 I I #
edge $-1 $646 -30.70588176584441 $551 -12.096225179009139 $550 $684 forward 7 unknown #
vertex $-1 $645 $685 #
straight-curve $-1 52.106935238271184 -19.562363138775133 28.485042460005474 0 -0.85716729658548041 0.51503808176128008 I I #
point $-1 52.106935238271184 11.946790327565612 9.5524326604112844 #
point $-1 33.497278651435913 27.385434396977729 0.27595925996789106 #
straight-curve $-1 0 27.385434396977729 9.5524326604112861 -1 0 0 I I #
vertex $-1 $557 $686 #
point $-1 40.814323390531712 16.554632872633537 -0.26417542041536113 #
vertex $-1 $561 $687 #
point $-1 48.789890499175399 16.554632872633537 -0.26417542041536113 #
straight-curve $-1 -60.98452711569567 27.385434396977729 0 0 0 -1 I I #
point $-1 -60.98452711569567 -27.385434396977729 -9.5524326604112861 #
straight-curve $-1 -60.98452711569567 0 -9.5524326604112861 0 1 0 I I #
point $-1 -60.98452711569567 27.385434396977729 -9.5524326604112861 #
straight-curve $-1 -60.98452711569567 0 4.0037388700085588 0 -1 0 I I #
point $-1 -60.98452711569567 -27.385434396977729 4.0037388700085588 #
point $-1 -60.98452711569567 27.385434396977729 4.0037388700085588 #
straight-curve $-1 -60.98452711569567 27.385434396977729 0 0 0 -1 I I #
straight-curve $-1 -60.98452711569567 -27.385434396977729 0 0 0 -1 I I #
straight-curve $-1 -21.477218277083622 27.385434396977729 66.516463471307517 0 0 -1 I I #
point $-1 -21.477218277083622 27.385434396977729 9.5524326604112861 #
straight-curve $-1 -15.391023285250629 27.385434396977729 0.27595925996789283 -1 0 0 I I #
point $-1 -21.477218277083622 27.385434396977729 0.27595925996789106 #
point $-1 -34.769830124823102 15.524556709110978 -1.9785100135863214 #
point $-1 -26.794263016179414 15.524556709110978 -1.9785100135863214 #
straight-curve $-1 3.0508328947013084 27.385434396977729 66.516463471307517 0 0 -1 I I #
point $-1 3.0508328947013084 27.385434396977729 9.5524326604112861 #
straight-curve $-1 -3.1269976993581636 27.385434396977729 0.27595925996789283 -1 0 0 I I #
point $-1 3.0508328947013084 27.385434396977729 0.27595925996789106 #
point $-1 -10.241778953038164 15.524556709110978 -1.9785100135863214 #
point $-1 -2.2662118443944763 15.524556709110978 -1.9785100135863214 #
straight-curve $-1 27.578884066486246 27.385434396977729 66.516463471307517 0 0 -1 I I #
point $-1 27.578884066486246 27.385434396977729 9.5524326604112861 #
straight-curve $-1 9.1370278865343053 27.385434396977729 0.27595925996789283 -1 0 0 I I #
point $-1 27.578884066486246 27.385434396977729 0.27595925996789106 #
point $-1 14.286272218746774 15.524556709110978 -1.9785100135863214 #
point $-1 22.261839327390462 15.524556709110978 -1.9785100135863214 #
straight-curve $-1 52.106935238271184 27.385434396977729 66.516463471307517 0 0 -1 I I #
point $-1 52.106935238271184 27.385434396977729 9.5524326604112861 #
straight-curve $-1 21.401053472426774 27.385434396977729 0.27595925996789283 -1 0 0 I I #
point $-1 52.106935238271184 27.385434396977729 0.27595925996789106 #
point $-1 38.814323390531712 15.524556709110978 -1.9785100135863214 #
point $-1 46.789890499175399 15.524556709110978 -1.9785100135863214 #
End-of-ACIS-data 