500 0 5 0           
7 Unknown 11 ACIS 5.0 NT 24 Thu Mar 25 17:17:22 1999 
-1 9.9999999999999995e-007 1e-010 
body $-1 $5 $-1 $6 #
body $-1 $7 $-1 $8 #
body $-1 $9 $-1 $10 #
body $-1 $11 $-1 $12 #
body $-1 $13 $-1 $14 #
lump $-1 $-1 $15 $0 #
transform $-1 1 0 0 0 1 0 0 0 1 77.004303109836115 33.322861915226667 10.998059708499719 1 rotate no_reflect no_shear #
lump $-1 $-1 $16 $1 #
transform $-1 1 0 0 0 1 0 0 0 1 77.004303109836115 33.322861915226667 10.998059708499719 1 rotate no_reflect no_shear #
lump $-1 $-1 $17 $2 #
transform $-1 1 0 0 0 1 0 0 0 1 77.004303109836115 33.322861915226667 10.998059708499719 1 rotate no_reflect no_shear #
lump $-1 $-1 $18 $3 #
transform $-1 1 0 0 0 1 0 0 0 1 77.004303109836115 33.322861915226667 10.998059708499719 1 rotate no_reflect no_shear #
lump $-1 $-1 $19 $4 #
transform $-1 1 0 0 0 1 0 0 0 1 77.004303109836115 33.322861915226667 10.998059708499719 1 rotate no_reflect no_shear #
shell $-1 $-1 $-1 $20 $-1 $5 #
shell $-1 $-1 $-1 $21 $-1 $7 #
shell $-1 $-1 $-1 $22 $-1 $9 #
shell $-1 $-1 $-1 $23 $-1 $11 #
shell $-1 $-1 $-1 $24 $-1 $13 #
face $-1 $25 $26 $15 $-1 $27 forward single #
face $-1 $28 $29 $16 $-1 $30 reversed single #
face $-1 $31 $32 $17 $-1 $33 reversed single #
face $-1 $34 $35 $18 $-1 $36 forward single #
face $-1 $37 $38 $19 $-1 $39 forward single #
face $-1 $40 $41 $15 $-1 $42 reversed single #
loop $-1 $-1 $43 $20 #
plane-surface $-1 0 0 10.998059708499719 0 0 1 1 0 0 forward_v I I I I #
face $-1 $44 $45 $16 $-1 $46 reversed single #
loop $-1 $-1 $47 $21 #
plane-surface $-1 -69.765077928364477 0 7.5101103424061701 0 0 1 1 0 0 forward_v I I I I #
face $-1 $48 $49 $17 $-1 $50 reversed single #
loop $-1 $-1 $51 $22 #
plane-surface $-1 -2.2307689998512217 -149.55463374248194 101.64480782607174 -1 0 0 0 -0.75470958851134928 0.65605901945558964 forward_v I I I I #
face $-1 $52 $53 $18 $-1 $54 forward single #
loop $-1 $55 $56 $23 #
cone-surface $-1 -18.298067726208544 -27.875351987459535 4.9930194861948323 0 0.75470958851134928 -0.65605901945558964 2 0 0 1 I I 0 1 2 forward I I I I #
face $-1 $57 $58 $19 $-1 $59 forward single #
loop $-1 $60 $61 $24 #
cone-surface $-1 -8.6576884903941504 -27.875351987459535 4.9930194861948323 0 0.75470958851134928 -0.65605901945558964 2 0 0 1 I I 0 1 2 forward I I I I #
face $-1 $62 $63 $15 $-1 $64 reversed single #
loop $-1 $-1 $65 $25 #
plane-surface $-1 0 0 -10.998059708499719 0 0 1 1 0 0 forward_v I I I I #
coedge $-1 $66 $67 $68 $69 forward $26 $-1 #
face $-1 $70 $71 $16 $-1 $72 reversed single #
loop $-1 $-1 $73 $28 #
plane-surface $-1 -62.525852746892838 0 9.2540850254529463 -1 0 0 0 0 1 forward_v I I I I #
coedge $-1 $74 $75 $76 $77 forward $29 $-1 #
face $-1 $78 $79 $17 $-1 $80 reversed single #
loop $-1 $-1 $81 $31 #
plane-surface $-1 -13.477878108301347 -33.322861915226682 0.60607264187154897 0 -0.75470958851134928 0.65605901945558964 1 0 0 forward_v I I I I #
coedge $-1 $82 $83 $84 $85 reversed $32 $-1 #
face $-1 $-1 $86 $18 $-1 $87 forward single #
loop $-1 $88 $89 $34 #
cone-surface $-1 -18.298067726208544 -26.189940624218529 3.5279137777484451 0 0.75470958851134928 -0.65605901945558964 1 0 0 1 I I -0.70710678118654735 0.70710678118654768 1 forward I I I I #
loop $-1 $-1 $90 $23 #
coedge $-1 $56 $56 $91 $92 reversed $35 $-1 #
face $-1 $-1 $93 $19 $-1 $94 forward single #
loop $-1 $95 $96 $37 #
cone-surface $-1 -8.6576884903941504 -26.189940624218529 3.5279137777484451 0 0.75470958851134928 -0.65605901945558964 1 0 0 1 I I -0.70710678118654735 0.70710678118654768 1 forward I I I I #
loop $-1 $-1 $97 $24 #
coedge $-1 $61 $61 $98 $99 reversed $38 $-1 #
face $-1 $100 $101 $15 $-1 $102 reversed single #
loop $-1 $-1 $103 $40 #
plane-surface $-1 0 -33.322861915226667 0 0 1 0 0 0 1 forward_v I I I I #
coedge $-1 $104 $105 $106 $107 forward $41 $-1 #
coedge $-1 $108 $43 $109 $110 forward $26 $-1 #
coedge $-1 $43 $108 $111 $112 forward $26 $-1 #
coedge $-1 $113 $114 $43 $69 reversed $115 $-1 #
edge $-1 $116 -33.322861915226667 $117 33.322861915226667 $68 $118 forward 7 unknown #
face $-1 $119 $120 $16 $-1 $121 reversed single #
loop $-1 $-1 $122 $44 #
plane-surface $-1 0 33.322861915226667 0 0 -1 0 0 0 -1 forward_v I I I I #
coedge $-1 $76 $123 $124 $125 reversed $45 $-1 #
coedge $-1 $126 $47 $127 $128 reversed $29 $-1 #
coedge $-1 $47 $126 $129 $130 reversed $29 $-1 #
coedge $-1 $131 $73 $47 $77 reversed $45 $-1 #
edge $-1 $132 -33.322861915226667 $133 33.322861915226667 $76 $134 forward 7 unknown #
face $-1 $135 $136 $17 $-1 $137 reversed single #
loop $-1 $-1 $138 $48 #
plane-surface $-1 -24.724987216751472 -149.55463374248194 101.64480782607174 1 0 0 0 0.75470958851134928 -0.65605901945558964 forward_v I I I I #
coedge $-1 $139 $140 $141 $142 reversed $49 $-1 #
coedge $-1 $83 $51 $143 $144 reversed $32 $-1 #
coedge $-1 $51 $82 $139 $145 reversed $32 $-1 #
coedge $-1 $141 $146 $51 $85 forward $147 $-1 #
edge $-1 $148 41.454454956014303 $149 50.48807126208925 $84 $150 forward 7 unknown #
loop $-1 $-1 $91 $52 #
plane-surface $-1 -13.477878108301347 -33.322861915226682 0.60607264187154897 0 -0.75470958851134928 0.65605901945558964 1 0 0 forward_v I I I I #
loop $-1 $-1 $151 $34 #
coedge $-1 $89 $89 $90 $152 reversed $53 $-1 #
coedge $-1 $90 $90 $89 $152 forward $55 $-1 #
coedge $-1 $91 $91 $56 $92 forward $86 $-1 #
edge $-1 $153 1.4460093049776591e-016 $153 6.2831853071796004 $91 $154 forward 7 unknown #
loop $-1 $-1 $98 $57 #
plane-surface $-1 -13.477878108301347 -33.322861915226682 0.60607264187154897 0 -0.75470958851134928 0.65605901945558964 1 0 0 forward_v I I I I #
loop $-1 $-1 $155 $37 #
coedge $-1 $96 $96 $97 $156 reversed $58 $-1 #
coedge $-1 $97 $97 $96 $156 forward $60 $-1 #
coedge $-1 $98 $98 $61 $99 forward $93 $-1 #
edge $-1 $157 1.4460093049776591e-016 $157 6.2831853071796004 $98 $158 forward 7 unknown #
face $-1 $159 $160 $15 $-1 $161 reversed single #
loop $-1 $-1 $162 $62 #
plane-surface $-1 -77.004303109836115 0 0 1 0 0 0 0 -1 forward_v I I I I #
coedge $-1 $163 $111 $164 $165 forward $63 $-1 #
coedge $-1 $166 $65 $163 $167 forward $41 $-1 #
coedge $-1 $65 $166 $168 $169 forward $41 $-1 #
coedge $-1 $114 $113 $65 $107 reversed $115 $-1 #
edge $-1 $170 -33.322861915226667 $171 33.322861915226667 $106 $172 forward 7 unknown #
coedge $-1 $67 $66 $173 $174 forward $26 $-1 #
coedge $-1 $175 $176 $66 $110 reversed $160 $-1 #
edge $-1 $117 -77.004303109836115 $177 77.004303109836115 $109 $178 forward 7 unknown #
coedge $-1 $103 $179 $67 $112 reversed $63 $-1 #
edge $-1 $180 -77.004303109836115 $116 77.004303109836115 $111 $181 forward 7 unknown #
coedge $-1 $106 $68 $179 $182 forward $115 $-1 #
coedge $-1 $68 $106 $175 $183 reversed $115 $-1 #
loop $-1 $-1 $113 $159 #
vertex $-1 $69 $184 #
vertex $-1 $69 $185 #
straight-curve $-1 77.004303109836115 0 10.998059708499719 0 1 0 I I #
face $-1 $186 $187 $16 $-1 $188 forward single #
loop $-1 $-1 $189 $70 #
plane-surface $-1 -77.004303109836115 0 0 1 0 0 0 0 -1 forward_v I I I I #
coedge $-1 $129 $190 $131 $191 forward $71 $-1 #
coedge $-1 $73 $131 $192 $193 reversed $45 $-1 #
coedge $-1 $194 $127 $73 $125 forward $195 $-1 #
edge $-1 $133 2.883067829679697 $196 6.3710171957732493 $124 $197 forward 7 unknown #
coedge $-1 $75 $74 $189 $198 reversed $29 $-1 #
coedge $-1 $124 $199 $74 $128 forward $195 $-1 #
edge $-1 $200 -42.121764145653877 $133 -27.643313782710599 $127 $201 forward 7 unknown #
coedge $-1 $202 $122 $75 $130 forward $71 $-1 #
edge $-1 $132 27.643313782710599 $203 42.121764145653877 $129 $204 forward 7 unknown #
coedge $-1 $123 $76 $122 $191 reversed $45 $-1 #
vertex $-1 $130 $205 #
vertex $-1 $128 $206 #
straight-curve $-1 -62.525852746892838 0 7.5101103424061701 0 -1 0 I I #
face $-1 $-1 $147 $17 $-1 $207 forward single #
loop $-1 $-1 $208 $78 #
plane-surface $-1 0 -33.322861915226667 0 0 1 0 0 0 1 forward_v I I I I #
coedge $-1 $209 $210 $211 $212 reversed $79 $-1 #
coedge $-1 $213 $81 $83 $145 forward $49 $-1 #
coedge $-1 $81 $213 $209 $214 forward $49 $-1 #
coedge $-1 $211 $84 $81 $142 forward $147 $-1 #
edge $-1 $149 -4.5081700542994518 $215 17.986048162600799 $141 $216 forward 7 unknown #
coedge $-1 $217 $218 $82 $144 forward $136 $-1 #
edge $-1 $219 -50.216331271164307 $148 -39.824344204536153 $143 $220 forward 7 unknown #
edge $-1 $149 -13.769517738771777 $219 -2.1640230052520235e-014 $83 $221 forward 7 unknown #
coedge $-1 $84 $211 $217 $222 forward $147 $-1 #
loop $-1 $-1 $211 $135 #
vertex $-1 $144 $223 #
vertex $-1 $85 $224 #
straight-curve $-1 -2.2307689998512217 -74.77731687124097 10.998059708499717 0 1 0 I I #
coedge $-1 $151 $151 $-1 $225 reversed $88 $-1 #
edge $-1 $226 0 $226 6.2831853071796004 $89 $227 forward 7 unknown #
vertex $-1 $92 $228 #
ellipse-curve $-1 -18.298067726208544 -28.806053762189197 5.8020661751856384 0 -0.75470958851134928 0.65605901945558964 2 0 0 1 I I #
coedge $-1 $155 $155 $-1 $229 reversed $95 $-1 #
edge $-1 $230 0 $230 6.2831853071796004 $96 $231 forward 7 unknown #
vertex $-1 $99 $232 #
ellipse-curve $-1 -8.6576884903941504 -28.806053762189197 5.8020661751856384 0 -0.75470958851134928 0.65605901945558964 2 0 0 1 I I #
face $-1 $-1 $115 $15 $-1 $233 reversed single #
loop $-1 $-1 $175 $100 #
plane-surface $-1 0 33.322861915226667 0 0 -1 0 0 0 -1 forward_v I I I I #
coedge $-1 $234 $173 $176 $235 forward $101 $-1 #
coedge $-1 $179 $103 $104 $167 reversed $63 $-1 #
coedge $-1 $173 $234 $103 $165 reversed $101 $-1 #
edge $-1 $180 -10.998059708499719 $236 10.998059708499719 $164 $237 forward 7 unknown #
coedge $-1 $105 $104 $234 $238 forward $41 $-1 #
edge $-1 $171 -77.004303109836115 $236 77.004303109836115 $163 $239 forward 7 unknown #
coedge $-1 $176 $175 $105 $169 reversed $160 $-1 #
edge $-1 $240 -77.004303109836115 $170 77.004303109836115 $168 $241 forward 7 unknown #
vertex $-1 $107 $242 #
vertex $-1 $182 $243 #
straight-curve $-1 77.004303109836115 0 -10.998059708499719 0 -1 0 I I #
coedge $-1 $162 $164 $108 $174 reversed $101 $-1 #
edge $-1 $177 -33.322861915226667 $180 33.322861915226667 $173 $244 forward 7 unknown #
coedge $-1 $168 $109 $114 $183 forward $160 $-1 #
coedge $-1 $109 $168 $162 $235 reversed $160 $-1 #
vertex $-1 $110 $245 #
straight-curve $-1 0 33.322861915226667 10.998059708499719 -1 0 0 I I #
coedge $-1 $111 $163 $113 $182 reversed $63 $-1 #
vertex $-1 $174 $246 #
straight-curve $-1 0 -33.322861915226667 10.998059708499719 1 0 0 I I #
edge $-1 $116 -10.998059708499719 $171 10.998059708499719 $113 $247 forward 7 unknown #
edge $-1 $117 -10.998059708499719 $170 10.998059708499719 $114 $248 forward 7 unknown #
point $-1 77.004303109836115 -33.322861915226667 10.998059708499719 #
point $-1 77.004303109836115 33.322861915226667 10.998059708499719 #
face $-1 $-1 $195 $16 $-1 $249 reversed single #
loop $-1 $-1 $192 $119 #
plane-surface $-1 0 0 10.998059708499719 0 0 1 1 0 0 forward_v I I I I #
coedge $-1 $250 $251 $126 $198 forward $120 $-1 #
coedge $-1 $122 $202 $252 $253 reversed $71 $-1 #
edge $-1 $254 -6.3710171957732493 $132 -2.883067829679697 $122 $255 forward 7 unknown #
coedge $-1 $252 $256 $123 $193 forward $187 $-1 #
edge $-1 $196 -33.322861915226667 $254 33.322861915226667 $192 $257 forward 7 unknown #
coedge $-1 $199 $124 $256 $258 reversed $195 $-1 #
loop $-1 $-1 $124 $186 #
vertex $-1 $125 $259 #
straight-curve $-1 -62.525852746892838 -33.322861915226667 4.6270425127264732 0 0 1 I I #
edge $-1 $203 -33.322861915226667 $200 33.322861915226667 $189 $260 forward 7 unknown #
coedge $-1 $127 $194 $250 $261 forward $195 $-1 #
vertex $-1 $198 $262 #
straight-curve $-1 -34.882538964182238 -33.322861915226667 7.5101103424061701 1 0 0 I I #
coedge $-1 $190 $129 $251 $263 reversed $71 $-1 #
vertex $-1 $198 $264 #
straight-curve $-1 -34.882538964182238 33.322861915226667 7.5101103424061701 -1 0 0 I I #
point $-1 -62.525852746892838 33.322861915226667 7.5101103424061701 #
point $-1 -62.525852746892838 -33.322861915226667 7.5101103424061701 #
plane-surface $-1 0 0 10.998059708499719 0 0 1 1 0 0 forward_v I I I I #
coedge $-1 $218 $217 $210 $265 forward $136 $-1 #
coedge $-1 $210 $138 $140 $214 reversed $79 $-1 #
coedge $-1 $138 $209 $208 $265 reversed $79 $-1 #
coedge $-1 $146 $141 $138 $212 forward $147 $-1 #
edge $-1 $215 -50.48807126208925 $266 -41.454454956014303 $211 $267 forward 7 unknown #
coedge $-1 $140 $139 $218 $268 reversed $49 $-1 #
edge $-1 $269 2.1640230052520235e-014 $215 13.769517738771777 $209 $270 forward 7 unknown #
vertex $-1 $142 $271 #
straight-curve $-1 -6.7389390541506735 -24.289245609151724 10.998059708499719 -1 0 0 I I #
coedge $-1 $208 $143 $146 $222 reversed $136 $-1 #
coedge $-1 $143 $208 $213 $268 forward $136 $-1 #
vertex $-1 $144 $272 #
straight-curve $-1 -2.2307689998512217 -33.322861915226667 50.82240391303587 0 0 1 I I #
straight-curve $-1 -2.2307689998512217 -33.322861915226682 0.60607264187154897 0 -0.65605901945558964 -0.75470958851134928 I I #
edge $-1 $266 -24.724987216751472 $148 -2.2307689998512217 $217 $273 forward 7 unknown #
point $-1 -2.2307689998512217 -33.322861915226667 10.998059708499719 #
point $-1 -2.2307689998512217 -24.289245609151724 10.998059708499719 #
edge $-1 $274 1 $274 0 $151 $-1 forward 7 unknown #
vertex $-1 $152 $275 #
ellipse-curve $-1 -18.298067726208544 -26.944650212729879 4.183972797204035 0 -0.75470958851134928 0.65605901945558964 2 0 0 1 I I #
point $-1 -16.298067726208544 -28.806053762189187 5.8020661751856295 #
edge $-1 $276 1 $276 0 $155 $-1 forward 7 unknown #
vertex $-1 $156 $277 #
ellipse-curve $-1 -8.6576884903941504 -26.944650212729879 4.183972797204035 0 -0.75470958851134928 0.65605901945558964 2 0 0 1 I I #
point $-1 -6.6576884903941504 -28.806053762189187 5.8020661751856295 #
plane-surface $-1 77.004303109836115 0 0 -1 0 0 0 0 1 forward_v I I I I #
coedge $-1 $164 $162 $166 $238 reversed $101 $-1 #
edge $-1 $177 -10.998059708499719 $240 10.998059708499719 $176 $278 forward 7 unknown #
vertex $-1 $238 $279 #
straight-curve $-1 -77.004303109836115 -33.322861915226667 0 0 0 -1 I I #
edge $-1 $236 -33.322861915226667 $240 33.322861915226667 $234 $280 forward 7 unknown #
straight-curve $-1 0 -33.322861915226667 -10.998059708499719 -1 0 0 I I #
vertex $-1 $169 $281 #
straight-curve $-1 0 33.322861915226667 -10.998059708499719 1 0 0 I I #
point $-1 77.004303109836115 33.322861915226667 -10.998059708499719 #
point $-1 77.004303109836115 -33.322861915226667 -10.998059708499719 #
straight-curve $-1 -77.004303109836115 0 10.998059708499719 0 -1 0 I I #
point $-1 -77.004303109836115 33.322861915226667 10.998059708499719 #
point $-1 -77.004303109836115 -33.322861915226667 10.998059708499719 #
straight-curve $-1 77.004303109836115 -33.322861915226667 0 0 0 -1 I I #
straight-curve $-1 77.004303109836115 33.322861915226667 0 0 0 -1 I I #
plane-surface $-1 0 -33.322861915226667 0 0 1 0 0 0 1 forward_v I I I I #
coedge $-1 $282 $189 $199 $261 reversed $120 $-1 #
coedge $-1 $189 $282 $202 $263 forward $120 $-1 #
coedge $-1 $283 $192 $190 $253 forward $187 $-1 #
edge $-1 $254 62.525852746892838 $284 77.004303109836115 $190 $285 forward 7 unknown #
vertex $-1 $253 $286 #
straight-curve $-1 -62.525852746892838 33.322861915226667 4.6270425127264732 0 0 -1 I I #
coedge $-1 $192 $283 $194 $258 forward $187 $-1 #
straight-curve $-1 -62.525852746892838 0 10.998059708499719 0 1 0 I I #
edge $-1 $287 -77.004303109836115 $196 -62.525852746892838 $194 $288 forward 7 unknown #
point $-1 -62.525852746892838 -33.322861915226667 10.998059708499722 #
straight-curve $-1 -77.004303109836115 0 7.5101103424061701 0 -1 0 I I #
edge $-1 $287 -10.998059708499719 $200 -7.5101103424061701 $250 $289 forward 7 unknown #
point $-1 -77.004303109836115 -33.322861915226667 7.5101103424061701 #
edge $-1 $284 -10.998059708499719 $203 -7.5101103424061701 $202 $290 forward 7 unknown #
point $-1 -77.004303109836115 33.322861915226667 7.5101103424061701 #
edge $-1 $266 39.824344204536153 $269 50.216331271164307 $208 $291 forward 7 unknown #
vertex $-1 $222 $292 #
straight-curve $-1 -24.724987216751472 -74.77731687124097 10.998059708499717 0 -1 0 I I #
edge $-1 $269 -17.986048162600799 $219 4.5081700542994518 $218 $293 forward 7 unknown #
vertex $-1 $268 $294 #
straight-curve $-1 -24.724987216751472 -33.322861915226682 0.60607264187154897 0 0.65605901945558964 0.75470958851134928 I I #
point $-1 -24.724987216751472 -24.289245609151724 10.998059708499719 #
point $-1 -2.2307689998512217 -33.322861915226667 0.60607264187156529 #
straight-curve $-1 0 -33.322861915226667 10.998059708499719 1 0 0 I I #
vertex $-1 $225 $295 #
point $-1 -16.298067726208544 -26.944650212729879 4.183972797204035 #
vertex $-1 $229 $296 #
point $-1 -6.6576884903941504 -26.944650212729879 4.183972797204035 #
straight-curve $-1 -77.004303109836115 33.322861915226667 0 0 0 -1 I I #
point $-1 -77.004303109836115 -33.322861915226667 -10.998059708499719 #
straight-curve $-1 -77.004303109836115 0 -10.998059708499719 0 1 0 I I #
point $-1 -77.004303109836115 33.322861915226667 -10.998059708499719 #
coedge $-1 $251 $250 $283 $297 reversed $120 $-1 #
coedge $-1 $256 $252 $282 $297 forward $187 $-1 #
vertex $-1 $253 $298 #
straight-curve $-1 0 33.322861915226667 10.998059708499719 -1 0 0 I I #
point $-1 -62.525852746892838 33.322861915226667 10.998059708499722 #
vertex $-1 $297 $299 #
straight-curve $-1 0 -33.322861915226667 10.998059708499719 1 0 0 I I #
straight-curve $-1 -77.004303109836115 -33.322861915226667 0 0 0 -1 I I #
straight-curve $-1 -77.004303109836115 33.322861915226667 0 0 0 -1 I I #
straight-curve $-1 -24.724987216751472 -33.322861915226667 50.82240391303587 0 0 -1 I I #
point $-1 -24.724987216751472 -33.322861915226667 10.998059708499719 #
straight-curve $-1 -6.7389390541506735 -33.322861915226667 0.60607264187156407 1 0 0 I I #
point $-1 -24.724987216751472 -33.322861915226667 0.60607264187156529 #
point $-1 -18.298067726208544 -25.435231035707179 2.8718547582928551 #
point $-1 -8.6576884903941504 -25.435231035707179 2.8718547582928551 #
edge $-1 $284 -33.322861915226667 $287 33.322861915226667 $282 $300 forward 7 unknown #
point $-1 -77.004303109836115 33.322861915226667 10.998059708499719 #
point $-1 -77.004303109836115 -33.322861915226667 10.998059708499719 #
straight-curve $-1 -77.004303109836115 0 10.998059708499719 0 -1 0 I I #
End-of-ACIS-data 