500 0 18 0           
7 Unknown 11 ACIS 5.0 NT 24 Thu Mar 25 15:08:45 1999 
-1 9.9999999999999995e-007 1e-010 
body $-1 $18 $-1 $19 #
body $-1 $20 $-1 $21 #
body $-1 $22 $-1 $23 #
body $-1 $24 $-1 $25 #
body $-1 $26 $-1 $27 #
body $-1 $28 $-1 $29 #
body $-1 $30 $-1 $31 #
body $-1 $32 $-1 $33 #
body $-1 $34 $-1 $35 #
body $-1 $36 $-1 $37 #
body $-1 $38 $-1 $39 #
body $-1 $40 $-1 $41 #
body $-1 $42 $-1 $43 #
body $-1 $44 $-1 $45 #
body $-1 $46 $-1 $47 #
body $-1 $48 $-1 $49 #
body $-1 $50 $-1 $51 #
body $-1 $52 $-1 $53 #
lump $-1 $-1 $54 $0 #
transform $-1 1 0 0 0 1 0 0 0 1 47.730948820459609 31.106035163639532 10.161887063483976 1 rotate no_reflect no_shear #
lump $-1 $-1 $55 $1 #
transform $-1 1 0 0 0 1 0 0 0 1 47.730948820459609 31.106035163639532 10.161887063483976 1 rotate no_reflect no_shear #
lump $-1 $-1 $56 $2 #
transform $-1 1 0 0 0 1 0 0 0 1 47.730948820459609 31.106035163639532 10.161887063483976 1 rotate no_reflect no_shear #
lump $-1 $-1 $57 $3 #
transform $-1 1 0 0 0 1 0 0 0 1 47.730948820459609 31.106035163639532 10.161887063483976 1 rotate no_reflect no_shear #
lump $-1 $-1 $58 $4 #
transform $-1 1 0 0 0 1 0 0 0 1 47.730948820459609 31.106035163639532 10.161887063483976 1 rotate no_reflect no_shear #
lump $-1 $-1 $59 $5 #
transform $-1 1 0 0 0 1 0 0 0 1 47.730948820459609 31.106035163639532 10.161887063483976 1 rotate no_reflect no_shear #
lump $-1 $-1 $60 $6 #
transform $-1 1 0 0 0 1 0 0 0 1 47.730948820459609 31.106035163639532 10.161887063483976 1 rotate no_reflect no_shear #
lump $-1 $-1 $61 $7 #
transform $-1 1 0 0 0 1 0 0 0 1 47.730948820459609 31.106035163639532 10.161887063483976 1 rotate no_reflect no_shear #
lump $-1 $-1 $62 $8 #
transform $-1 1 0 0 0 1 0 0 0 1 47.730948820459609 31.106035163639532 10.161887063483976 1 rotate no_reflect no_shear #
lump $-1 $-1 $63 $9 #
transform $-1 1 0 0 0 1 0 0 0 1 47.730948820459609 31.106035163639532 10.161887063483976 1 rotate no_reflect no_shear #
lump $-1 $-1 $64 $10 #
transform $-1 1 0 0 0 1 0 0 0 1 47.730948820459609 31.106035163639532 10.161887063483976 1 rotate no_reflect no_shear #
lump $-1 $-1 $65 $11 #
transform $-1 1 0 0 0 1 0 0 0 1 47.730948820459609 31.106035163639532 10.161887063483976 1 rotate no_reflect no_shear #
lump $-1 $-1 $66 $12 #
transform $-1 1 0 0 0 1 0 0 0 1 47.730948820459609 31.106035163639532 10.161887063483976 1 rotate no_reflect no_shear #
lump $-1 $-1 $67 $13 #
transform $-1 1 0 0 0 1 0 0 0 1 47.730948820459609 31.106035163639532 10.161887063483976 1 rotate no_reflect no_shear #
lump $-1 $-1 $68 $14 #
transform $-1 1 0 0 0 1 0 0 0 1 47.730948820459609 31.106035163639532 10.161887063483976 1 rotate no_reflect no_shear #
lump $-1 $-1 $69 $15 #
transform $-1 1 0 0 0 1 0 0 0 1 47.730948820459609 31.106035163639532 10.161887063483976 1 rotate no_reflect no_shear #
lump $-1 $-1 $70 $16 #
transform $-1 1 0 0 0 1 0 0 0 1 47.730948820459609 31.106035163639532 10.161887063483976 1 rotate no_reflect no_shear #
lump $-1 $-1 $71 $17 #
transform $-1 1 0 0 0 1 0 0 0 1 47.730948820459609 31.106035163639532 10.161887063483976 1 rotate no_reflect no_shear #
shell $-1 $-1 $-1 $72 $-1 $18 #
shell $-1 $-1 $-1 $73 $-1 $20 #
shell $-1 $-1 $-1 $74 $-1 $22 #
shell $-1 $-1 $-1 $75 $-1 $24 #
shell $-1 $-1 $-1 $76 $-1 $26 #
shell $-1 $-1 $-1 $77 $-1 $28 #
shell $-1 $-1 $-1 $78 $-1 $30 #
shell $-1 $-1 $-1 $79 $-1 $32 #
shell $-1 $-1 $-1 $80 $-1 $34 #
shell $-1 $-1 $-1 $81 $-1 $36 #
shell $-1 $-1 $-1 $82 $-1 $38 #
shell $-1 $-1 $-1 $83 $-1 $40 #
shell $-1 $-1 $-1 $84 $-1 $42 #
shell $-1 $-1 $-1 $85 $-1 $44 #
shell $-1 $-1 $-1 $86 $-1 $46 #
shell $-1 $-1 $-1 $87 $-1 $48 #
shell $-1 $-1 $-1 $88 $-1 $50 #
shell $-1 $-1 $-1 $89 $-1 $52 #
face $-1 $90 $91 $54 $-1 $92 forward single #
face $-1 $93 $94 $55 $-1 $95 forward single #
face $-1 $96 $97 $56 $-1 $98 reversed single #
face $-1 $99 $100 $57 $-1 $101 forward single #
face $-1 $102 $103 $58 $-1 $104 forward single #
face $-1 $105 $106 $59 $-1 $107 forward single #
face $-1 $108 $109 $60 $-1 $110 reversed single #
face $-1 $111 $112 $61 $-1 $113 forward single #
face $-1 $114 $115 $62 $-1 $116 forward single #
face $-1 $117 $118 $63 $-1 $119 forward single #
face $-1 $120 $121 $64 $-1 $122 reversed single #
face $-1 $123 $124 $65 $-1 $125 forward single #
face $-1 $126 $127 $66 $-1 $128 forward single #
face $-1 $129 $130 $67 $-1 $131 forward single #
face $-1 $132 $133 $68 $-1 $134 reversed single #
face $-1 $135 $136 $69 $-1 $137 forward single #
face $-1 $138 $139 $70 $-1 $140 forward single #
face $-1 $141 $142 $71 $-1 $143 forward single #
face $-1 $144 $145 $54 $-1 $146 reversed single #
loop $-1 $-1 $147 $72 #
plane-surface $-1 0 0 10.161887063483976 0 0 1 1 0 0 forward_v I I I I #
face $-1 $148 $149 $55 $-1 $150 reversed single #
loop $-1 $-1 $151 $73 #
plane-surface $-1 0 -31.106035163639532 0 0 1 0 0 0 1 forward_v I I I I #
face $-1 $152 $153 $56 $-1 $154 reversed single #
loop $-1 $-1 $155 $74 #
plane-surface $-1 -43.452175685818915 44.810550561868524 118.7346746635928 1 0 0 0 -0.64278761758704617 -0.76604443648966558 forward_v I I I I #
face $-1 $156 $157 $57 $-1 $158 forward single #
loop $-1 $159 $160 $75 #
cone-surface $-1 -40.17516134169383 27.444063806275551 6.7526755048504299 0 -0.64278761758704617 -0.76604443648966558 1.5 0 0 1 I I 0 1 1.5 forward I I I I #
face $-1 $161 $162 $58 $-1 $163 forward single #
loop $-1 $164 $165 $76 #
cone-surface $-1 -35.259639825506184 27.444063806275551 6.7526755048504299 0 -0.64278761758704617 -0.76604443648966558 1.5 0 0 1 I I 0 1 1.5 forward I I I I #
face $-1 $166 $167 $59 $-1 $168 forward single #
loop $-1 $169 $170 $77 #
cone-surface $-1 -30.344118309318546 27.444063806275551 6.7526755048504299 0 -0.64278761758704617 -0.76604443648966558 1.5 0 0 1 I I 0 1 1.5 forward I I I I #
face $-1 $171 $172 $60 $-1 $173 reversed single #
loop $-1 $-1 $174 $78 #
plane-surface $-1 -19.586701275589117 44.810550561868524 118.7346746635928 1 0 0 0 -0.64278761758704617 -0.76604443648966558 forward_v I I I I #
face $-1 $175 $176 $61 $-1 $177 forward single #
loop $-1 $178 $179 $79 #
cone-surface $-1 -16.309686931464025 27.444063806275551 6.7526755048504299 0 -0.64278761758704617 -0.76604443648966558 1.5 0 0 1 I I 0 1 1.5 forward I I I I #
face $-1 $180 $181 $62 $-1 $182 forward single #
loop $-1 $183 $184 $80 #
cone-surface $-1 -11.394165415276383 27.444063806275551 6.7526755048504299 0 -0.64278761758704617 -0.76604443648966558 1.5 0 0 1 I I 0 1 1.5 forward I I I I #
face $-1 $185 $186 $63 $-1 $187 forward single #
loop $-1 $188 $189 $81 #
cone-surface $-1 -6.4786438990887447 27.444063806275551 6.7526755048504299 0 -0.64278761758704617 -0.76604443648966558 1.5 0 0 1 I I 0 1 1.5 forward I I I I #
face $-1 $190 $191 $64 $-1 $192 reversed single #
loop $-1 $-1 $193 $82 #
plane-surface $-1 4.2787731346406908 44.810550561868524 118.7346746635928 1 0 0 0 -0.64278761758704617 -0.76604443648966558 forward_v I I I I #
face $-1 $194 $195 $65 $-1 $196 forward single #
loop $-1 $197 $198 $83 #
cone-surface $-1 7.5557874787657795 27.444063806275551 6.7526755048504299 0 -0.64278761758704617 -0.76604443648966558 1.5 0 0 1 I I 0 1 1.5 forward I I I I #
face $-1 $199 $200 $66 $-1 $201 forward single #
loop $-1 $202 $203 $84 #
cone-surface $-1 12.471308994953425 27.444063806275551 6.7526755048504299 0 -0.64278761758704617 -0.76604443648966558 1.5 0 0 1 I I 0 1 1.5 forward I I I I #
face $-1 $204 $205 $67 $-1 $206 forward single #
loop $-1 $207 $208 $85 #
cone-surface $-1 17.386830511141063 27.444063806275551 6.7526755048504299 0 -0.64278761758704617 -0.76604443648966558 1.5 0 0 1 I I 0 1 1.5 forward I I I I #
face $-1 $209 $210 $68 $-1 $211 reversed single #
loop $-1 $-1 $212 $86 #
plane-surface $-1 28.144247544870499 44.810550561868524 118.7346746635928 1 0 0 0 -0.64278761758704617 -0.76604443648966558 forward_v I I I I #
face $-1 $213 $214 $69 $-1 $215 forward single #
loop $-1 $216 $217 $87 #
cone-surface $-1 31.421261888995581 27.444063806275551 6.7526755048504299 0 -0.64278761758704617 -0.76604443648966558 1.5 0 0 1 I I 0 1 1.5 forward I I I I #
face $-1 $218 $219 $70 $-1 $220 forward single #
loop $-1 $221 $222 $88 #
cone-surface $-1 36.336783405183233 27.444063806275551 6.7526755048504299 0 -0.64278761758704617 -0.76604443648966558 1.5 0 0 1 I I 0 1 1.5 forward I I I I #
face $-1 $223 $224 $71 $-1 $225 forward single #
loop $-1 $226 $227 $89 #
cone-surface $-1 41.252304921370872 27.444063806275551 6.7526755048504299 0 -0.64278761758704617 -0.76604443648966558 1.5 0 0 1 I I 0 1 1.5 forward I I I I #
face $-1 $228 $229 $54 $-1 $230 reversed single #
loop $-1 $-1 $231 $90 #
plane-surface $-1 0 0 -10.161887063483976 0 0 1 1 0 0 forward_v I I I I #
coedge $-1 $232 $233 $234 $235 forward $91 $-1 #
face $-1 $236 $237 $55 $-1 $238 forward single #
loop $-1 $-1 $239 $93 #
plane-surface $-1 -47.730948820459609 0 0 1 0 0 0 0 -1 forward_v I I I I #
coedge $-1 $240 $241 $242 $243 forward $94 $-1 #
face $-1 $244 $245 $56 $-1 $246 reversed single #
loop $-1 $-1 $247 $96 #
plane-surface $-1 -35.259639825506184 -16.551175193076404 45.606619079020703 0 0.64278761758704617 0.76604443648966558 1 0 0 forward_v I I I I #
coedge $-1 $248 $249 $250 $251 reversed $97 $-1 #
face $-1 $-1 $252 $57 $-1 $253 forward single #
loop $-1 $254 $255 $99 #
cone-surface $-1 -40.17516134169383 26.007913997423863 5.0411388464960094 0 -0.64278761758704617 -0.76604443648966558 0.75 0 0 1 I I -0.70710678118654757 0.70710678118654757 0.75 forward I I I I #
loop $-1 $-1 $256 $75 #
coedge $-1 $160 $160 $257 $258 reversed $100 $-1 #
face $-1 $-1 $259 $58 $-1 $260 forward single #
loop $-1 $261 $262 $102 #
cone-surface $-1 -35.259639825506184 26.007913997423863 5.0411388464960094 0 -0.64278761758704617 -0.76604443648966558 0.75 0 0 1 I I -0.70710678118654757 0.70710678118654757 0.75 forward I I I I #
loop $-1 $-1 $263 $76 #
coedge $-1 $165 $165 $264 $265 reversed $103 $-1 #
face $-1 $-1 $266 $59 $-1 $267 forward single #
loop $-1 $268 $269 $105 #
cone-surface $-1 -30.344118309318546 26.007913997423863 5.0411388464960094 0 -0.64278761758704617 -0.76604443648966558 0.75 0 0 1 I I -0.70710678118654757 0.70710678118654757 0.75 forward I I I I #
loop $-1 $-1 $270 $77 #
coedge $-1 $170 $170 $271 $272 reversed $106 $-1 #
face $-1 $273 $274 $60 $-1 $275 reversed single #
loop $-1 $-1 $276 $108 #
plane-surface $-1 -11.394165415276383 -16.551175193076404 45.606619079020703 0 0.64278761758704617 0.76604443648966558 1 0 0 forward_v I I I I #
coedge $-1 $277 $278 $279 $280 reversed $109 $-1 #
face $-1 $-1 $281 $61 $-1 $282 forward single #
loop $-1 $283 $284 $111 #
cone-surface $-1 -16.309686931464025 26.007913997423863 5.0411388464960094 0 -0.64278761758704617 -0.76604443648966558 0.75 0 0 1 I I -0.70710678118654757 0.70710678118654757 0.75 forward I I I I #
loop $-1 $-1 $285 $79 #
coedge $-1 $179 $179 $286 $287 reversed $112 $-1 #
face $-1 $-1 $288 $62 $-1 $289 forward single #
loop $-1 $290 $291 $114 #
cone-surface $-1 -11.394165415276383 26.007913997423863 5.0411388464960094 0 -0.64278761758704617 -0.76604443648966558 0.75 0 0 1 I I -0.70710678118654757 0.70710678118654757 0.75 forward I I I I #
loop $-1 $-1 $292 $80 #
coedge $-1 $184 $184 $293 $294 reversed $115 $-1 #
face $-1 $-1 $295 $63 $-1 $296 forward single #
loop $-1 $297 $298 $117 #
cone-surface $-1 -6.4786438990887447 26.007913997423863 5.0411388464960094 0 -0.64278761758704617 -0.76604443648966558 0.75 0 0 1 I I -0.70710678118654757 0.70710678118654757 0.75 forward I I I I #
loop $-1 $-1 $299 $81 #
coedge $-1 $189 $189 $300 $301 reversed $118 $-1 #
face $-1 $302 $303 $64 $-1 $304 reversed single #
loop $-1 $-1 $305 $120 #
plane-surface $-1 12.471308994953425 -16.551175193076404 45.606619079020703 0 0.64278761758704617 0.76604443648966558 1 0 0 forward_v I I I I #
coedge $-1 $306 $307 $308 $309 reversed $121 $-1 #
face $-1 $-1 $310 $65 $-1 $311 forward single #
loop $-1 $312 $313 $123 #
cone-surface $-1 7.5557874787657795 26.007913997423863 5.0411388464960094 0 -0.64278761758704617 -0.76604443648966558 0.75 0 0 1 I I -0.70710678118654757 0.70710678118654757 0.75 forward I I I I #
loop $-1 $-1 $314 $83 #
coedge $-1 $198 $198 $315 $316 reversed $124 $-1 #
face $-1 $-1 $317 $66 $-1 $318 forward single #
loop $-1 $319 $320 $126 #
cone-surface $-1 12.471308994953425 26.007913997423863 5.0411388464960094 0 -0.64278761758704617 -0.76604443648966558 0.75 0 0 1 I I -0.70710678118654757 0.70710678118654757 0.75 forward I I I I #
loop $-1 $-1 $321 $84 #
coedge $-1 $203 $203 $322 $323 reversed $127 $-1 #
face $-1 $-1 $324 $67 $-1 $325 forward single #
loop $-1 $326 $327 $129 #
cone-surface $-1 17.386830511141063 26.007913997423863 5.0411388464960094 0 -0.64278761758704617 -0.76604443648966558 0.75 0 0 1 I I -0.70710678118654757 0.70710678118654757 0.75 forward I I I I #
loop $-1 $-1 $328 $85 #
coedge $-1 $208 $208 $329 $330 reversed $130 $-1 #
face $-1 $331 $332 $68 $-1 $333 reversed single #
loop $-1 $-1 $334 $132 #
plane-surface $-1 36.336783405183233 -16.551175193076404 45.606619079020703 0 0.64278761758704617 0.76604443648966558 1 0 0 forward_v I I I I #
coedge $-1 $335 $336 $337 $338 reversed $133 $-1 #
face $-1 $-1 $339 $69 $-1 $340 forward single #
loop $-1 $341 $342 $135 #
cone-surface $-1 31.421261888995581 26.007913997423863 5.0411388464960094 0 -0.64278761758704617 -0.76604443648966558 0.75 0 0 1 I I -0.70710678118654757 0.70710678118654757 0.75 forward I I I I #
loop $-1 $-1 $343 $87 #
coedge $-1 $217 $217 $344 $345 reversed $136 $-1 #
face $-1 $-1 $346 $70 $-1 $347 forward single #
loop $-1 $348 $349 $138 #
cone-surface $-1 36.336783405183233 26.007913997423863 5.0411388464960094 0 -0.64278761758704617 -0.76604443648966558 0.75 0 0 1 I I -0.70710678118654757 0.70710678118654757 0.75 forward I I I I #
loop $-1 $-1 $350 $88 #
coedge $-1 $222 $222 $351 $352 reversed $139 $-1 #
face $-1 $-1 $353 $71 $-1 $354 forward single #
loop $-1 $355 $356 $141 #
cone-surface $-1 41.252304921370872 26.007913997423863 5.0411388464960094 0 -0.64278761758704617 -0.76604443648966558 0.75 0 0 1 I I -0.70710678118654757 0.70710678118654757 0.75 forward I I I I #
loop $-1 $-1 $357 $89 #
coedge $-1 $227 $227 $358 $359 reversed $142 $-1 #
face $-1 $360 $361 $54 $-1 $362 reversed single #
loop $-1 $-1 $363 $144 #
plane-surface $-1 0 -31.106035163639532 0 0 1 0 0 0 1 forward_v I I I I #
coedge $-1 $364 $365 $366 $367 forward $145 $-1 #
coedge $-1 $368 $147 $369 $370 forward $91 $-1 #
coedge $-1 $147 $368 $371 $372 forward $91 $-1 #
coedge $-1 $373 $374 $147 $235 reversed $375 $-1 #
edge $-1 $376 -31.106035163639532 $377 31.106035163639532 $234 $378 forward 7 unknown #
face $-1 $379 $380 $55 $-1 $381 reversed single #
loop $-1 $-1 $382 $148 #
plane-surface $-1 0 -34.913342284730604 2.8668829580534618 0 0 1 1 0 0 forward_v I I I I #
coedge $-1 $383 $384 $241 $385 forward $149 $-1 #
coedge $-1 $386 $151 $387 $388 reversed $94 $-1 #
coedge $-1 $151 $386 $239 $385 reversed $94 $-1 #
coedge $-1 $389 $382 $151 $243 reversed $237 $-1 #
edge $-1 $390 -47.730948820459609 $391 47.730948820459609 $242 $392 forward 7 unknown #
face $-1 $393 $394 $56 $-1 $395 forward single #
loop $-1 $-1 $396 $152 #
plane-surface $-1 -27.06710396519345 44.810550561868524 118.7346746635928 -1 0 0 0 0.64278761758704617 0.76604443648966558 forward_v I I I I #
coedge $-1 $397 $398 $399 $400 reversed $153 $-1 #
coedge $-1 $249 $155 $401 $402 reversed $97 $-1 #
coedge $-1 $155 $248 $397 $403 reversed $97 $-1 #
coedge $-1 $399 $404 $155 $251 forward $394 $-1 #
edge $-1 $405 -8.7007598827052703 $406 -3.2849353593001211 $250 $407 forward 7 unknown #
loop $-1 $-1 $257 $156 #
plane-surface $-1 -35.259639825506184 -16.551175193076404 45.606619079020703 0 0.64278761758704617 0.76604443648966558 1 0 0 forward_v I I I I #
loop $-1 $-1 $408 $99 #
coedge $-1 $255 $255 $256 $409 reversed $157 $-1 #
coedge $-1 $256 $256 $255 $409 forward $159 $-1 #
coedge $-1 $257 $257 $160 $258 forward $252 $-1 #
edge $-1 $410 0 $410 6.2831853071796004 $257 $411 forward 7 unknown #
loop $-1 $-1 $264 $161 #
plane-surface $-1 -35.259639825506184 -16.551175193076404 45.606619079020703 0 0.64278761758704617 0.76604443648966558 1 0 0 forward_v I I I I #
loop $-1 $-1 $412 $102 #
coedge $-1 $262 $262 $263 $413 reversed $162 $-1 #
coedge $-1 $263 $263 $262 $413 forward $164 $-1 #
coedge $-1 $264 $264 $165 $265 forward $259 $-1 #
edge $-1 $414 0 $414 6.2831853071796004 $264 $415 forward 7 unknown #
loop $-1 $-1 $271 $166 #
plane-surface $-1 -35.259639825506184 -16.551175193076404 45.606619079020703 0 0.64278761758704617 0.76604443648966558 1 0 0 forward_v I I I I #
loop $-1 $-1 $416 $105 #
coedge $-1 $269 $269 $270 $417 reversed $167 $-1 #
coedge $-1 $270 $270 $269 $417 forward $169 $-1 #
coedge $-1 $271 $271 $170 $272 forward $266 $-1 #
edge $-1 $418 0 $418 6.2831853071796004 $271 $419 forward 7 unknown #
face $-1 $420 $421 $60 $-1 $422 forward single #
loop $-1 $-1 $423 $171 #
plane-surface $-1 -3.2016295549636489 44.810550561868524 118.7346746635928 -1 0 0 0 0.64278761758704617 0.76604443648966558 forward_v I I I I #
coedge $-1 $424 $425 $426 $427 reversed $172 $-1 #
coedge $-1 $278 $174 $428 $429 reversed $109 $-1 #
coedge $-1 $174 $277 $424 $430 reversed $109 $-1 #
coedge $-1 $426 $431 $174 $280 forward $421 $-1 #
edge $-1 $432 -8.7007598827052703 $433 -3.2849353593001211 $279 $434 forward 7 unknown #
loop $-1 $-1 $286 $175 #
plane-surface $-1 -11.394165415276383 -16.551175193076404 45.606619079020703 0 0.64278761758704617 0.76604443648966558 1 0 0 forward_v I I I I #
loop $-1 $-1 $435 $111 #
coedge $-1 $284 $284 $285 $436 reversed $176 $-1 #
coedge $-1 $285 $285 $284 $436 forward $178 $-1 #
coedge $-1 $286 $286 $179 $287 forward $281 $-1 #
edge $-1 $437 0 $437 6.2831853071796004 $286 $438 forward 7 unknown #
loop $-1 $-1 $293 $180 #
plane-surface $-1 -11.394165415276383 -16.551175193076404 45.606619079020703 0 0.64278761758704617 0.76604443648966558 1 0 0 forward_v I I I I #
loop $-1 $-1 $439 $114 #
coedge $-1 $291 $291 $292 $440 reversed $181 $-1 #
coedge $-1 $292 $292 $291 $440 forward $183 $-1 #
coedge $-1 $293 $293 $184 $294 forward $288 $-1 #
edge $-1 $441 0 $441 6.2831853071796004 $293 $442 forward 7 unknown #
loop $-1 $-1 $300 $185 #
plane-surface $-1 -11.394165415276383 -16.551175193076404 45.606619079020703 0 0.64278761758704617 0.76604443648966558 1 0 0 forward_v I I I I #
loop $-1 $-1 $443 $117 #
coedge $-1 $298 $298 $299 $444 reversed $186 $-1 #
coedge $-1 $299 $299 $298 $444 forward $188 $-1 #
coedge $-1 $300 $300 $189 $301 forward $295 $-1 #
edge $-1 $445 0 $445 6.2831853071796004 $300 $446 forward 7 unknown #
face $-1 $447 $448 $64 $-1 $449 forward single #
loop $-1 $-1 $450 $190 #
plane-surface $-1 20.663844855266159 44.810550561868524 118.7346746635928 -1 0 0 0 0.64278761758704617 0.76604443648966558 forward_v I I I I #
coedge $-1 $451 $452 $453 $454 reversed $191 $-1 #
coedge $-1 $307 $193 $455 $456 reversed $121 $-1 #
coedge $-1 $193 $306 $451 $457 reversed $121 $-1 #
coedge $-1 $453 $458 $193 $309 forward $448 $-1 #
edge $-1 $459 -8.7007598827052703 $460 -3.2849353593001211 $308 $461 forward 7 unknown #
loop $-1 $-1 $315 $194 #
plane-surface $-1 12.471308994953425 -16.551175193076404 45.606619079020703 0 0.64278761758704617 0.76604443648966558 1 0 0 forward_v I I I I #
loop $-1 $-1 $462 $123 #
coedge $-1 $313 $313 $314 $463 reversed $195 $-1 #
coedge $-1 $314 $314 $313 $463 forward $197 $-1 #
coedge $-1 $315 $315 $198 $316 forward $310 $-1 #
edge $-1 $464 0 $464 6.2831853071796004 $315 $465 forward 7 unknown #
loop $-1 $-1 $322 $199 #
plane-surface $-1 12.471308994953425 -16.551175193076404 45.606619079020703 0 0.64278761758704617 0.76604443648966558 1 0 0 forward_v I I I I #
loop $-1 $-1 $466 $126 #
coedge $-1 $320 $320 $321 $467 reversed $200 $-1 #
coedge $-1 $321 $321 $320 $467 forward $202 $-1 #
coedge $-1 $322 $322 $203 $323 forward $317 $-1 #
edge $-1 $468 0 $468 6.2831853071796004 $322 $469 forward 7 unknown #
loop $-1 $-1 $329 $204 #
plane-surface $-1 12.471308994953425 -16.551175193076404 45.606619079020703 0 0.64278761758704617 0.76604443648966558 1 0 0 forward_v I I I I #
loop $-1 $-1 $470 $129 #
coedge $-1 $327 $327 $328 $471 reversed $205 $-1 #
coedge $-1 $328 $328 $327 $471 forward $207 $-1 #
coedge $-1 $329 $329 $208 $330 forward $324 $-1 #
edge $-1 $472 0 $472 6.2831853071796004 $329 $473 forward 7 unknown #
face $-1 $474 $475 $68 $-1 $476 forward single #
loop $-1 $-1 $477 $209 #
plane-surface $-1 44.529319265495971 44.810550561868524 118.7346746635928 -1 0 0 0 0.64278761758704617 0.76604443648966558 forward_v I I I I #
coedge $-1 $478 $479 $480 $481 reversed $210 $-1 #
coedge $-1 $336 $212 $482 $483 reversed $133 $-1 #
coedge $-1 $212 $335 $478 $484 reversed $133 $-1 #
coedge $-1 $480 $485 $212 $338 forward $475 $-1 #
edge $-1 $486 -8.7007598827052703 $487 -3.2849353593001211 $337 $488 forward 7 unknown #
loop $-1 $-1 $344 $213 #
plane-surface $-1 36.336783405183233 -16.551175193076404 45.606619079020703 0 0.64278761758704617 0.76604443648966558 1 0 0 forward_v I I I I #
loop $-1 $-1 $489 $135 #
coedge $-1 $342 $342 $343 $490 reversed $214 $-1 #
coedge $-1 $343 $343 $342 $490 forward $216 $-1 #
coedge $-1 $344 $344 $217 $345 forward $339 $-1 #
edge $-1 $491 0 $491 6.2831853071796004 $344 $492 forward 7 unknown #
loop $-1 $-1 $351 $218 #
plane-surface $-1 36.336783405183233 -16.551175193076404 45.606619079020703 0 0.64278761758704617 0.76604443648966558 1 0 0 forward_v I I I I #
loop $-1 $-1 $493 $138 #
coedge $-1 $349 $349 $350 $494 reversed $219 $-1 #
coedge $-1 $350 $350 $349 $494 forward $221 $-1 #
coedge $-1 $351 $351 $222 $352 forward $346 $-1 #
edge $-1 $495 0 $495 6.2831853071796004 $351 $496 forward 7 unknown #
loop $-1 $-1 $358 $223 #
plane-surface $-1 36.336783405183233 -16.551175193076404 45.606619079020703 0 0.64278761758704617 0.76604443648966558 1 0 0 forward_v I I I I #
loop $-1 $-1 $497 $141 #
coedge $-1 $356 $356 $357 $498 reversed $224 $-1 #
coedge $-1 $357 $357 $356 $498 forward $226 $-1 #
coedge $-1 $358 $358 $227 $359 forward $353 $-1 #
edge $-1 $499 0 $499 6.2831853071796004 $358 $500 forward 7 unknown #
face $-1 $501 $502 $54 $-1 $503 reversed single #
loop $-1 $-1 $504 $228 #
plane-surface $-1 -47.730948820459609 0 0 1 0 0 0 0 -1 forward_v I I I I #
coedge $-1 $505 $371 $506 $507 forward $229 $-1 #
coedge $-1 $508 $231 $505 $509 forward $145 $-1 #
coedge $-1 $231 $508 $510 $511 forward $145 $-1 #
coedge $-1 $374 $373 $231 $367 reversed $375 $-1 #
edge $-1 $512 -31.106035163639532 $513 31.106035163639532 $366 $514 forward 7 unknown #
coedge $-1 $233 $232 $515 $516 forward $91 $-1 #
coedge $-1 $517 $518 $232 $370 reversed $502 $-1 #
edge $-1 $377 -47.730948820459609 $519 47.730948820459609 $369 $520 forward 7 unknown #
coedge $-1 $363 $521 $233 $372 reversed $229 $-1 #
edge $-1 $522 -47.730948820459609 $376 47.730948820459609 $371 $523 forward 7 unknown #
coedge $-1 $366 $234 $521 $524 forward $375 $-1 #
coedge $-1 $234 $366 $517 $525 reversed $375 $-1 #
loop $-1 $-1 $373 $501 #
vertex $-1 $235 $526 #
vertex $-1 $235 $527 #
straight-curve $-1 47.730948820459609 0 10.161887063483976 0 1 0 I I #
face $-1 $528 $529 $55 $-1 $530 reversed single #
loop $-1 $-1 $531 $236 #
plane-surface $-1 0 -34.913342284730604 -1.9230076543159944 0 0 1 1 0 0 forward_v I I I I #
coedge $-1 $242 $532 $533 $534 forward $237 $-1 #
coedge $-1 $535 $239 $536 $537 reversed $149 $-1 #
coedge $-1 $239 $535 $389 $538 reversed $149 $-1 #
edge $-1 $390 -2.8668829580534618 $539 1.9230076543159944 $239 $540 forward 7 unknown #
coedge $-1 $241 $240 $541 $542 forward $94 $-1 #
coedge $-1 $533 $543 $240 $388 forward $544 $-1 #
edge $-1 $545 -1.9230076543159944 $391 2.8668829580534618 $387 $546 forward 7 unknown #
coedge $-1 $532 $242 $384 $538 forward $237 $-1 #
vertex $-1 $385 $547 #
vertex $-1 $534 $548 #
straight-curve $-1 0 -31.106035163639532 2.8668829580534618 1 0 0 I I #
face $-1 $-1 $549 $56 $-1 $550 reversed single #
loop $-1 $-1 $250 $244 #
plane-surface $-1 0 0 10.161887063483976 0 0 1 1 0 0 forward_v I I I I #
coedge $-1 $551 $552 $553 $554 reversed $245 $-1 #
coedge $-1 $555 $247 $249 $403 forward $153 $-1 #
coedge $-1 $247 $555 $551 $556 forward $153 $-1 #
coedge $-1 $553 $250 $247 $400 forward $394 $-1 #
edge $-1 $406 -25.822355773065823 $557 -9.4372840524403578 $399 $558 forward 7 unknown #
coedge $-1 $559 $560 $248 $402 forward $549 $-1 #
edge $-1 $561 -53.749866723605173 $405 -49.205450268312426 $401 $562 forward 7 unknown #
edge $-1 $406 55.14221345549926 $561 62.212070327279065 $249 $563 forward 7 unknown #
coedge $-1 $250 $553 $559 $564 forward $394 $-1 #
vertex $-1 $402 $565 #
vertex $-1 $251 $566 #
straight-curve $-1 -43.452175685818915 22.405275280934262 10.161887063483974 0 -1 0 I I #
coedge $-1 $408 $408 $-1 $567 reversed $254 $-1 #
edge $-1 $568 0 $568 6.2831853071796004 $255 $569 forward 7 unknown #
vertex $-1 $258 $570 #
ellipse-curve $-1 -40.17516134169383 28.398122901936954 7.8896788358376018 0 0.64278761758704617 0.76604443648966558 1.5 0 0 1 I I #
coedge $-1 $412 $412 $-1 $571 reversed $261 $-1 #
edge $-1 $572 0 $572 6.2831853071796004 $262 $573 forward 7 unknown #
vertex $-1 $265 $574 #
ellipse-curve $-1 -35.259639825506184 28.398122901936954 7.8896788358376018 0 0.64278761758704617 0.76604443648966558 1.5 0 0 1 I I #
coedge $-1 $416 $416 $-1 $575 reversed $268 $-1 #
edge $-1 $576 0 $576 6.2831853071796004 $269 $577 forward 7 unknown #
vertex $-1 $272 $578 #
ellipse-curve $-1 -30.344118309318546 28.398122901936954 7.8896788358376018 0 0.64278761758704617 0.76604443648966558 1.5 0 0 1 I I #
face $-1 $-1 $579 $60 $-1 $580 reversed single #
loop $-1 $-1 $279 $273 #
plane-surface $-1 0 0 10.161887063483976 0 0 1 1 0 0 forward_v I I I I #
coedge $-1 $581 $582 $583 $584 reversed $274 $-1 #
coedge $-1 $585 $276 $278 $430 forward $172 $-1 #
coedge $-1 $276 $585 $581 $586 forward $172 $-1 #
coedge $-1 $583 $279 $276 $427 forward $421 $-1 #
edge $-1 $433 -13.889618567950926 $587 2.4954531526745427 $426 $588 forward 7 unknown #
coedge $-1 $589 $590 $277 $429 forward $579 $-1 #
edge $-1 $591 -53.749866723605173 $432 -49.205450268312426 $428 $592 forward 7 unknown #
edge $-1 $433 55.14221345549926 $591 62.212070327279065 $278 $593 forward 7 unknown #
coedge $-1 $279 $583 $589 $594 forward $421 $-1 #
vertex $-1 $280 $595 #
vertex $-1 $280 $596 #
straight-curve $-1 -19.586701275589117 22.405275280934262 10.161887063483974 0 -1 0 I I #
coedge $-1 $435 $435 $-1 $597 reversed $283 $-1 #
edge $-1 $598 0 $598 6.2831853071796004 $284 $599 forward 7 unknown #
vertex $-1 $287 $600 #
ellipse-curve $-1 -16.309686931464025 28.398122901936954 7.8896788358376018 0 0.64278761758704617 0.76604443648966558 1.5 0 0 1 I I #
coedge $-1 $439 $439 $-1 $601 reversed $290 $-1 #
edge $-1 $602 0 $602 6.2831853071796004 $291 $603 forward 7 unknown #
vertex $-1 $294 $604 #
ellipse-curve $-1 -11.394165415276383 28.398122901936954 7.8896788358376018 0 0.64278761758704617 0.76604443648966558 1.5 0 0 1 I I #
coedge $-1 $443 $443 $-1 $605 reversed $297 $-1 #
edge $-1 $606 0 $606 6.2831853071796004 $298 $607 forward 7 unknown #
vertex $-1 $301 $608 #
ellipse-curve $-1 -6.4786438990887447 28.398122901936954 7.8896788358376018 0 0.64278761758704617 0.76604443648966558 1.5 0 0 1 I I #
face $-1 $-1 $609 $64 $-1 $610 reversed single #
loop $-1 $-1 $308 $302 #
plane-surface $-1 0 0 10.161887063483976 0 0 1 1 0 0 forward_v I I I I #
coedge $-1 $611 $612 $613 $614 reversed $303 $-1 #
coedge $-1 $615 $305 $307 $457 forward $191 $-1 #
coedge $-1 $305 $615 $611 $616 forward $191 $-1 #
coedge $-1 $613 $308 $305 $454 forward $448 $-1 #
edge $-1 $460 -1.9568813628360218 $617 14.428190357789447 $453 $618 forward 7 unknown #
coedge $-1 $619 $620 $306 $456 forward $609 $-1 #
edge $-1 $621 -53.749866723605173 $459 -49.205450268312426 $455 $622 forward 7 unknown #
edge $-1 $460 55.14221345549926 $621 62.212070327279065 $307 $623 forward 7 unknown #
coedge $-1 $308 $613 $619 $624 forward $448 $-1 #
vertex $-1 $309 $625 #
vertex $-1 $309 $626 #
straight-curve $-1 4.2787731346406908 22.405275280934262 10.161887063483974 0 -1 0 I I #
coedge $-1 $462 $462 $-1 $627 reversed $312 $-1 #
edge $-1 $628 0 $628 6.2831853071796004 $313 $629 forward 7 unknown #
vertex $-1 $316 $630 #
ellipse-curve $-1 7.5557874787657795 28.398122901936954 7.8896788358376018 0 0.64278761758704617 0.76604443648966558 1.5 0 0 1 I I #
coedge $-1 $466 $466 $-1 $631 reversed $319 $-1 #
edge $-1 $632 0 $632 6.2831853071796004 $320 $633 forward 7 unknown #
vertex $-1 $323 $634 #
ellipse-curve $-1 12.471308994953425 28.398122901936954 7.8896788358376018 0 0.64278761758704617 0.76604443648966558 1.5 0 0 1 I I #
coedge $-1 $470 $470 $-1 $635 reversed $326 $-1 #
edge $-1 $636 0 $636 6.2831853071796004 $327 $637 forward 7 unknown #
vertex $-1 $330 $638 #
ellipse-curve $-1 17.386830511141063 28.398122901936954 7.8896788358376018 0 0.64278761758704617 0.76604443648966558 1.5 0 0 1 I I #
face $-1 $-1 $639 $68 $-1 $640 reversed single #
loop $-1 $-1 $337 $331 #
plane-surface $-1 0 0 10.161887063483976 0 0 1 1 0 0 forward_v I I I I #
coedge $-1 $641 $642 $643 $644 reversed $332 $-1 #
coedge $-1 $645 $334 $336 $484 forward $210 $-1 #
coedge $-1 $334 $645 $641 $646 forward $210 $-1 #
coedge $-1 $643 $337 $334 $481 forward $475 $-1 #
edge $-1 $487 9.9758558422788823 $647 26.360927562904354 $480 $648 forward 7 unknown #
coedge $-1 $649 $650 $335 $483 forward $639 $-1 #
edge $-1 $651 -53.749866723605173 $486 -49.205450268312426 $482 $652 forward 7 unknown #
edge $-1 $487 55.14221345549926 $651 62.212070327279065 $336 $653 forward 7 unknown #
coedge $-1 $337 $643 $649 $654 forward $475 $-1 #
vertex $-1 $338 $655 #
vertex $-1 $338 $656 #
straight-curve $-1 28.144247544870499 22.405275280934262 10.161887063483974 0 -1 0 I I #
coedge $-1 $489 $489 $-1 $657 reversed $341 $-1 #
edge $-1 $658 0 $658 6.2831853071796004 $342 $659 forward 7 unknown #
vertex $-1 $345 $660 #
ellipse-curve $-1 31.421261888995581 28.398122901936954 7.8896788358376018 0 0.64278761758704617 0.76604443648966558 1.5 0 0 1 I I #
coedge $-1 $493 $493 $-1 $661 reversed $348 $-1 #
edge $-1 $662 0 $662 6.2831853071796004 $349 $663 forward 7 unknown #
vertex $-1 $352 $664 #
ellipse-curve $-1 36.336783405183233 28.398122901936954 7.8896788358376018 0 0.64278761758704617 0.76604443648966558 1.5 0 0 1 I I #
coedge $-1 $497 $497 $-1 $665 reversed $355 $-1 #
edge $-1 $666 0 $666 6.2831853071796004 $356 $667 forward 7 unknown #
vertex $-1 $359 $668 #
ellipse-curve $-1 41.252304921370872 28.398122901936954 7.8896788358376018 0 0.64278761758704617 0.76604443648966558 1.5 0 0 1 I I #
face $-1 $-1 $375 $54 $-1 $669 reversed single #
loop $-1 $-1 $517 $360 #
plane-surface $-1 0 31.106035163639532 0 0 -1 0 0 0 -1 forward_v I I I I #
coedge $-1 $670 $515 $518 $671 forward $361 $-1 #
coedge $-1 $521 $363 $364 $509 reversed $229 $-1 #
coedge $-1 $515 $670 $363 $507 reversed $361 $-1 #
edge $-1 $522 -10.161887063483976 $672 10.161887063483976 $506 $673 forward 7 unknown #
coedge $-1 $365 $364 $670 $674 forward $145 $-1 #
edge $-1 $513 -47.730948820459609 $672 47.730948820459609 $505 $675 forward 7 unknown #
coedge $-1 $518 $517 $365 $511 reversed $502 $-1 #
edge $-1 $676 -47.730948820459609 $512 47.730948820459609 $510 $677 forward 7 unknown #
vertex $-1 $367 $678 #
vertex $-1 $524 $679 #
straight-curve $-1 47.730948820459609 0 -10.161887063483976 0 -1 0 I I #
coedge $-1 $504 $506 $368 $516 reversed $361 $-1 #
edge $-1 $519 -31.106035163639532 $522 31.106035163639532 $515 $680 forward 7 unknown #
coedge $-1 $510 $369 $374 $525 forward $502 $-1 #
coedge $-1 $369 $510 $504 $671 reversed $502 $-1 #
vertex $-1 $370 $681 #
straight-curve $-1 0 31.106035163639532 10.161887063483976 -1 0 0 I I #
coedge $-1 $371 $505 $373 $524 reversed $229 $-1 #
vertex $-1 $516 $682 #
straight-curve $-1 0 -31.106035163639532 10.161887063483976 1 0 0 I I #
edge $-1 $376 -10.161887063483976 $513 10.161887063483976 $373 $683 forward 7 unknown #
edge $-1 $377 -10.161887063483976 $512 10.161887063483976 $374 $684 forward 7 unknown #
point $-1 47.730948820459609 -31.106035163639532 10.161887063483976 #
point $-1 47.730948820459609 31.106035163639532 10.161887063483976 #
face $-1 $-1 $544 $55 $-1 $685 reversed single #
loop $-1 $-1 $686 $379 #
plane-surface $-1 0 -38.720649405821675 0.47193765186873371 0 1 0 0 0 1 forward_v I I I I #
coedge $-1 $687 $541 $543 $688 forward $380 $-1 #
coedge $-1 $382 $389 $689 $690 forward $237 $-1 #
coedge $-1 $691 $387 $382 $534 reversed $544 $-1 #
edge $-1 $692 -3.8073071210910712 $391 3.8073071210910712 $533 $693 forward 7 unknown #
coedge $-1 $384 $383 $686 $694 reversed $149 $-1 #
coedge $-1 $541 $687 $383 $537 forward $380 $-1 #
edge $-1 $695 -3.8073071210910712 $539 3.8073071210910712 $383 $696 forward 7 unknown #
edge $-1 $390 -3.8073071210910712 $697 3.8073071210910712 $384 $698 forward 7 unknown #
vertex $-1 $385 $699 #
straight-curve $-1 -47.730948820459609 -31.106035163639532 0 0 0 -1 I I #
coedge $-1 $531 $536 $386 $542 reversed $380 $-1 #
edge $-1 $545 -47.730948820459609 $539 47.730948820459609 $541 $700 forward 7 unknown #
coedge $-1 $387 $691 $531 $688 reversed $544 $-1 #
loop $-1 $-1 $387 $528 #
vertex $-1 $388 $701 #
straight-curve $-1 47.730948820459609 -31.106035163639532 0 0 0 1 I I #
point $-1 -47.730948820459609 -31.106035163639532 2.8668829580534618 #
point $-1 47.730948820459609 -31.106035163639532 2.8668829580534618 #
loop $-1 $-1 $401 $393 #
plane-surface $-1 0 31.106035163639532 0 0 -1 0 0 0 -1 forward_v I I I I #
coedge $-1 $552 $396 $398 $556 reversed $245 $-1 #
coedge $-1 $396 $551 $702 $703 reversed $245 $-1 #
coedge $-1 $404 $399 $396 $554 forward $394 $-1 #
edge $-1 $557 3.2849353593001211 $704 8.7007598827052703 $553 $705 forward 7 unknown #
coedge $-1 $398 $397 $560 $706 reversed $153 $-1 #
edge $-1 $707 -62.212070327279065 $557 -55.14221345549926 $551 $708 forward 7 unknown #
vertex $-1 $400 $709 #
straight-curve $-1 -17.629819912753092 25.690210640234383 10.161887063483974 1 0 0 I I #
coedge $-1 $702 $401 $404 $564 reversed $549 $-1 #
coedge $-1 $401 $702 $555 $706 forward $549 $-1 #
vertex $-1 $402 $710 #
straight-curve $-1 -43.452175685818915 31.106035163639532 59.367337331796399 0 0 1 I I #
straight-curve $-1 -43.452175685818915 -16.551175193076404 45.606619079020703 0 0.76604443648966558 -0.64278761758704617 I I #
edge $-1 $704 27.06710396519345 $405 43.452175685818915 $559 $711 forward 7 unknown #
point $-1 -43.452175685818915 31.106035163639532 10.161887063483976 #
point $-1 -43.452175685818915 25.690210640234383 10.161887063483974 #
edge $-1 $712 1 $712 0 $408 $-1 forward 7 unknown #
vertex $-1 $409 $713 #
ellipse-curve $-1 -40.17516134169383 26.490004710614148 5.6156721738632589 0 0.64278761758704617 0.76604443648966558 1.5 0 0 1 I I #
point $-1 -38.67516134169383 28.398122901936954 7.8896788358376018 #
edge $-1 $714 1 $714 0 $412 $-1 forward 7 unknown #
vertex $-1 $413 $715 #
ellipse-curve $-1 -35.259639825506184 26.490004710614148 5.6156721738632589 0 0.64278761758704617 0.76604443648966558 1.5 0 0 1 I I #
point $-1 -33.759639825506184 28.398122901936954 7.8896788358376018 #
edge $-1 $716 1 $716 0 $416 $-1 forward 7 unknown #
vertex $-1 $417 $717 #
ellipse-curve $-1 -30.344118309318546 26.490004710614148 5.6156721738632589 0 0.64278761758704617 0.76604443648966558 1.5 0 0 1 I I #
point $-1 -28.844118309318546 28.398122901936954 7.8896788358376018 #
loop $-1 $-1 $428 $420 #
plane-surface $-1 0 31.106035163639532 0 0 -1 0 0 0 -1 forward_v I I I I #
coedge $-1 $582 $423 $425 $586 reversed $274 $-1 #
coedge $-1 $423 $581 $718 $719 reversed $274 $-1 #
coedge $-1 $431 $426 $423 $584 forward $421 $-1 #
edge $-1 $587 3.2849353593001211 $720 8.7007598827052703 $583 $721 forward 7 unknown #
coedge $-1 $425 $424 $590 $722 reversed $172 $-1 #
edge $-1 $723 -62.212070327279065 $587 -55.14221345549926 $581 $724 forward 7 unknown #
vertex $-1 $427 $725 #
straight-curve $-1 -5.6970827076381916 25.690210640234383 10.161887063483974 1 0 0 I I #
coedge $-1 $718 $428 $431 $594 reversed $579 $-1 #
coedge $-1 $428 $718 $585 $722 forward $579 $-1 #
vertex $-1 $429 $726 #
straight-curve $-1 -19.586701275589117 31.106035163639532 59.367337331796399 0 0 1 I I #
straight-curve $-1 -19.586701275589117 -16.551175193076404 45.606619079020703 0 0.76604443648966558 -0.64278761758704617 I I #
edge $-1 $720 3.2016295549636489 $432 19.586701275589117 $589 $727 forward 7 unknown #
point $-1 -19.586701275589117 31.106035163639532 10.161887063483976 #
point $-1 -19.586701275589117 25.690210640234383 10.161887063483974 #
edge $-1 $728 1 $728 0 $435 $-1 forward 7 unknown #
vertex $-1 $436 $729 #
ellipse-curve $-1 -16.309686931464025 26.490004710614148 5.6156721738632589 0 0.64278761758704617 0.76604443648966558 1.5 0 0 1 I I #
point $-1 -14.809686931464025 28.398122901936954 7.8896788358376018 #
edge $-1 $730 1 $730 0 $439 $-1 forward 7 unknown #
vertex $-1 $440 $731 #
ellipse-curve $-1 -11.394165415276383 26.490004710614148 5.6156721738632589 0 0.64278761758704617 0.76604443648966558 1.5 0 0 1 I I #
point $-1 -9.8941654152763832 28.398122901936954 7.8896788358376018 #
edge $-1 $732 1 $732 0 $443 $-1 forward 7 unknown #
vertex $-1 $444 $733 #
ellipse-curve $-1 -6.4786438990887447 26.490004710614148 5.6156721738632589 0 0.64278761758704617 0.76604443648966558 1.5 0 0 1 I I #
point $-1 -4.9786438990887447 28.398122901936954 7.8896788358376018 #
loop $-1 $-1 $455 $447 #
plane-surface $-1 0 31.106035163639532 0 0 -1 0 0 0 -1 forward_v I I I I #
coedge $-1 $612 $450 $452 $616 reversed $303 $-1 #
coedge $-1 $450 $611 $734 $735 reversed $303 $-1 #
coedge $-1 $458 $453 $450 $614 forward $448 $-1 #
edge $-1 $617 3.2849353593001211 $736 8.7007598827052703 $613 $737 forward 7 unknown #
coedge $-1 $452 $451 $620 $738 reversed $191 $-1 #
edge $-1 $739 -62.212070327279065 $617 -55.14221345549926 $611 $740 forward 7 unknown #
vertex $-1 $454 $741 #
straight-curve $-1 6.2356544974767125 25.690210640234383 10.161887063483974 1 0 0 I I #
coedge $-1 $734 $455 $458 $624 reversed $609 $-1 #
coedge $-1 $455 $734 $615 $738 forward $609 $-1 #
vertex $-1 $456 $742 #
straight-curve $-1 4.2787731346406908 31.106035163639532 59.367337331796399 0 0 1 I I #
straight-curve $-1 4.2787731346406908 -16.551175193076404 45.606619079020703 0 0.76604443648966558 -0.64278761758704617 I I #
edge $-1 $736 -20.663844855266159 $459 -4.2787731346406908 $619 $743 forward 7 unknown #
point $-1 4.2787731346406908 31.106035163639532 10.161887063483976 #
point $-1 4.2787731346406908 25.690210640234383 10.161887063483974 #
edge $-1 $744 1 $744 0 $462 $-1 forward 7 unknown #
vertex $-1 $463 $745 #
ellipse-curve $-1 7.5557874787657795 26.490004710614148 5.6156721738632589 0 0.64278761758704617 0.76604443648966558 1.5 0 0 1 I I #
point $-1 9.0557874787657795 28.398122901936954 7.8896788358376018 #
edge $-1 $746 1 $746 0 $466 $-1 forward 7 unknown #
vertex $-1 $467 $747 #
ellipse-curve $-1 12.471308994953425 26.490004710614148 5.6156721738632589 0 0.64278761758704617 0.76604443648966558 1.5 0 0 1 I I #
point $-1 13.971308994953425 28.398122901936954 7.8896788358376018 #
edge $-1 $748 1 $748 0 $470 $-1 forward 7 unknown #
vertex $-1 $471 $749 #
ellipse-curve $-1 17.386830511141063 26.490004710614148 5.6156721738632589 0 0.64278761758704617 0.76604443648966558 1.5 0 0 1 I I #
point $-1 18.886830511141063 28.398122901936954 7.8896788358376018 #
loop $-1 $-1 $482 $474 #
plane-surface $-1 0 31.106035163639532 0 0 -1 0 0 0 -1 forward_v I I I I #
coedge $-1 $642 $477 $479 $646 reversed $332 $-1 #
coedge $-1 $477 $641 $750 $751 reversed $332 $-1 #
coedge $-1 $485 $480 $477 $644 forward $475 $-1 #
edge $-1 $647 3.2849353593001211 $752 8.7007598827052703 $643 $753 forward 7 unknown #
coedge $-1 $479 $478 $650 $754 reversed $210 $-1 #
edge $-1 $755 -62.212070327279065 $647 -55.14221345549926 $641 $756 forward 7 unknown #
vertex $-1 $481 $757 #
straight-curve $-1 18.168391702591617 25.690210640234383 10.161887063483974 1 0 0 I I #
coedge $-1 $750 $482 $485 $654 reversed $639 $-1 #
coedge $-1 $482 $750 $645 $754 forward $639 $-1 #
vertex $-1 $483 $758 #
straight-curve $-1 28.144247544870499 31.106035163639532 59.367337331796399 0 0 1 I I #
straight-curve $-1 28.144247544870499 -16.551175193076404 45.606619079020703 0 0.76604443648966558 -0.64278761758704617 I I #
edge $-1 $752 -44.529319265495971 $486 -28.144247544870499 $649 $759 forward 7 unknown #
point $-1 28.144247544870499 31.106035163639532 10.161887063483976 #
point $-1 28.144247544870499 25.690210640234383 10.161887063483974 #
edge $-1 $760 1 $760 0 $489 $-1 forward 7 unknown #
vertex $-1 $490 $761 #
ellipse-curve $-1 31.421261888995581 26.490004710614148 5.6156721738632589 0 0.64278761758704617 0.76604443648966558 1.5 0 0 1 I I #
point $-1 32.921261888995581 28.398122901936954 7.8896788358376018 #
edge $-1 $762 1 $762 0 $493 $-1 forward 7 unknown #
vertex $-1 $494 $763 #
ellipse-curve $-1 36.336783405183233 26.490004710614148 5.6156721738632589 0 0.64278761758704617 0.76604443648966558 1.5 0 0 1 I I #
point $-1 37.836783405183233 28.398122901936954 7.8896788358376018 #
edge $-1 $764 1 $764 0 $497 $-1 forward 7 unknown #
vertex $-1 $498 $765 #
ellipse-curve $-1 41.252304921370872 26.490004710614148 5.6156721738632589 0 0.64278761758704617 0.76604443648966558 1.5 0 0 1 I I #
point $-1 42.752304921370872 28.398122901936954 7.8896788358376018 #
plane-surface $-1 47.730948820459609 0 0 -1 0 0 0 0 1 forward_v I I I I #
coedge $-1 $506 $504 $508 $674 reversed $361 $-1 #
edge $-1 $519 -10.161887063483976 $676 10.161887063483976 $518 $766 forward 7 unknown #
vertex $-1 $674 $767 #
straight-curve $-1 -47.730948820459609 -31.106035163639532 0 0 0 -1 I I #
edge $-1 $672 -31.106035163639532 $676 31.106035163639532 $670 $768 forward 7 unknown #
straight-curve $-1 0 -31.106035163639532 -10.161887063483976 -1 0 0 I I #
vertex $-1 $511 $769 #
straight-curve $-1 0 31.106035163639532 -10.161887063483976 1 0 0 I I #
point $-1 47.730948820459609 31.106035163639532 -10.161887063483976 #
point $-1 47.730948820459609 -31.106035163639532 -10.161887063483976 #
straight-curve $-1 -47.730948820459609 0 10.161887063483976 0 -1 0 I I #
point $-1 -47.730948820459609 31.106035163639532 10.161887063483976 #
point $-1 -47.730948820459609 -31.106035163639532 10.161887063483976 #
straight-curve $-1 47.730948820459609 -31.106035163639532 0 0 0 -1 I I #
straight-curve $-1 47.730948820459609 31.106035163639532 0 0 0 -1 I I #
plane-surface $-1 47.730948820459609 0 0 -1 0 0 0 0 1 forward_v I I I I #
coedge $-1 $770 $689 $535 $694 forward $529 $-1 #
coedge $-1 $536 $531 $770 $771 forward $380 $-1 #
edge $-1 $545 -3.8073071210910712 $772 3.8073071210910712 $543 $773 forward 7 unknown #
coedge $-1 $686 $774 $532 $690 reversed $529 $-1 #
edge $-1 $697 -47.730948820459609 $692 47.730948820459609 $689 $775 forward 7 unknown #
coedge $-1 $543 $533 $774 $776 forward $544 $-1 #
vertex $-1 $534 $777 #
straight-curve $-1 47.730948820459609 -34.913342284730604 2.8668829580534618 0 1 0 I I #
edge $-1 $697 -2.3949453061847281 $695 2.3949453061847281 $535 $778 forward 7 unknown #
vertex $-1 $537 $779 #
straight-curve $-1 -47.730948820459609 -34.913342284730604 -1.9230076543159944 0 1 0 I I #
vertex $-1 $538 $780 #
straight-curve $-1 -47.730948820459609 -34.913342284730604 2.8668829580534618 0 -1 0 I I #
point $-1 -47.730948820459609 -31.106035163639532 -1.9230076543159944 #
straight-curve $-1 0 -31.106035163639532 -1.9230076543159944 -1 0 0 I I #
point $-1 47.730948820459609 -31.106035163639532 -1.9230076543159944 #
coedge $-1 $560 $559 $552 $703 forward $549 $-1 #
edge $-1 $704 49.205450268312426 $707 53.749866723605173 $702 $781 forward 7 unknown #
vertex $-1 $564 $782 #
straight-curve $-1 -27.06710396519345 22.405275280934262 10.161887063483974 0 1 0 I I #
edge $-1 $707 9.4372840524403578 $561 25.822355773065823 $560 $783 forward 7 unknown #
vertex $-1 $706 $784 #
straight-curve $-1 -27.06710396519345 -16.551175193076404 45.606619079020703 0 -0.76604443648966558 0.64278761758704617 I I #
point $-1 -27.06710396519345 25.690210640234383 10.161887063483974 #
point $-1 -43.452175685818915 31.106035163639532 5.6174706081912262 #
straight-curve $-1 0 31.106035163639532 10.161887063483976 -1 0 0 I I #
vertex $-1 $567 $785 #
point $-1 -38.67516134169383 26.490004710614148 5.6156721738632589 #
vertex $-1 $571 $786 #
point $-1 -33.759639825506184 26.490004710614148 5.6156721738632589 #
vertex $-1 $575 $787 #
point $-1 -28.844118309318546 26.490004710614148 5.6156721738632589 #
coedge $-1 $590 $589 $582 $719 forward $579 $-1 #
edge $-1 $720 49.205450268312426 $723 53.749866723605173 $718 $788 forward 7 unknown #
vertex $-1 $594 $789 #
straight-curve $-1 -3.2016295549636489 22.405275280934262 10.161887063483974 0 1 0 I I #
edge $-1 $723 -2.4954531526745427 $591 13.889618567950926 $590 $790 forward 7 unknown #
vertex $-1 $722 $791 #
straight-curve $-1 -3.2016295549636489 -16.551175193076404 45.606619079020703 0 -0.76604443648966558 0.64278761758704617 I I #
point $-1 -3.2016295549636489 25.690210640234383 10.161887063483974 #
point $-1 -19.586701275589117 31.106035163639532 5.6174706081912262 #
straight-curve $-1 0 31.106035163639532 10.161887063483976 -1 0 0 I I #
vertex $-1 $597 $792 #
point $-1 -14.809686931464025 26.490004710614148 5.6156721738632589 #
vertex $-1 $601 $793 #
point $-1 -9.8941654152763832 26.490004710614148 5.6156721738632589 #
vertex $-1 $605 $794 #
point $-1 -4.9786438990887447 26.490004710614148 5.6156721738632589 #
coedge $-1 $620 $619 $612 $735 forward $609 $-1 #
edge $-1 $736 49.205450268312426 $739 53.749866723605173 $734 $795 forward 7 unknown #
vertex $-1 $624 $796 #
straight-curve $-1 20.663844855266159 22.405275280934262 10.161887063483974 0 1 0 I I #
edge $-1 $739 -14.428190357789447 $621 1.9568813628360218 $620 $797 forward 7 unknown #
vertex $-1 $738 $798 #
straight-curve $-1 20.663844855266159 -16.551175193076404 45.606619079020703 0 -0.76604443648966558 0.64278761758704617 I I #
point $-1 20.663844855266159 25.690210640234383 10.161887063483974 #
point $-1 4.2787731346406908 31.106035163639532 5.6174706081912262 #
straight-curve $-1 0 31.106035163639532 10.161887063483976 -1 0 0 I I #
vertex $-1 $627 $799 #
point $-1 9.0557874787657795 26.490004710614148 5.6156721738632589 #
vertex $-1 $631 $800 #
point $-1 13.971308994953425 26.490004710614148 5.6156721738632589 #
vertex $-1 $635 $801 #
point $-1 18.886830511141063 26.490004710614148 5.6156721738632589 #
coedge $-1 $650 $649 $642 $751 forward $639 $-1 #
edge $-1 $752 49.205450268312426 $755 53.749866723605173 $750 $802 forward 7 unknown #
vertex $-1 $654 $803 #
straight-curve $-1 44.529319265495971 22.405275280934262 10.161887063483974 0 1 0 I I #
edge $-1 $755 -26.360927562904354 $651 -9.9758558422788823 $650 $804 forward 7 unknown #
vertex $-1 $754 $805 #
straight-curve $-1 44.529319265495971 -16.551175193076404 45.606619079020703 0 -0.76604443648966558 0.64278761758704617 I I #
point $-1 44.529319265495971 25.690210640234383 10.161887063483974 #
point $-1 28.144247544870499 31.106035163639532 5.6174706081912262 #
straight-curve $-1 0 31.106035163639532 10.161887063483976 -1 0 0 I I #
vertex $-1 $657 $806 #
point $-1 32.921261888995581 26.490004710614148 5.6156721738632589 #
vertex $-1 $661 $807 #
point $-1 37.836783405183233 26.490004710614148 5.6156721738632589 #
vertex $-1 $665 $808 #
point $-1 42.752304921370872 26.490004710614148 5.6156721738632589 #
straight-curve $-1 -47.730948820459609 31.106035163639532 0 0 0 -1 I I #
point $-1 -47.730948820459609 -31.106035163639532 -10.161887063483976 #
straight-curve $-1 -47.730948820459609 0 -10.161887063483976 0 1 0 I I #
point $-1 -47.730948820459609 31.106035163639532 -10.161887063483976 #
coedge $-1 $774 $686 $687 $771 reversed $529 $-1 #
edge $-1 $772 -47.730948820459609 $695 47.730948820459609 $770 $809 forward 7 unknown #
vertex $-1 $776 $810 #
straight-curve $-1 47.730948820459609 -34.913342284730604 -1.9230076543159944 0 -1 0 I I #
coedge $-1 $689 $770 $691 $776 reversed $529 $-1 #
straight-curve $-1 0 -38.720649405821675 2.8668829580534618 1 0 0 I I #
edge $-1 $692 -2.3949453061847281 $772 2.3949453061847281 $691 $811 forward 7 unknown #
point $-1 47.730948820459609 -38.720649405821675 2.8668829580534618 #
straight-curve $-1 -47.730948820459609 -38.720649405821675 0.47193765186873371 0 0 -1 I I #
point $-1 -47.730948820459609 -38.720649405821675 -1.9230076543159944 #
point $-1 -47.730948820459609 -38.720649405821675 2.8668829580534618 #
straight-curve $-1 -27.06710396519345 31.106035163639532 59.367337331796399 0 0 -1 I I #
point $-1 -27.06710396519345 31.106035163639532 10.161887063483976 #
straight-curve $-1 -17.629819912753092 31.106035163639532 5.6174706081912262 -1 0 0 I I #
point $-1 -27.06710396519345 31.106035163639532 5.6174706081912262 #
point $-1 -40.17516134169383 25.525823284233578 4.4666055191287599 #
point $-1 -35.259639825506184 25.525823284233578 4.4666055191287599 #
point $-1 -30.344118309318546 25.525823284233578 4.4666055191287599 #
straight-curve $-1 -3.2016295549636489 31.106035163639532 59.367337331796399 0 0 -1 I I #
point $-1 -3.2016295549636489 31.106035163639532 10.161887063483976 #
straight-curve $-1 -5.6970827076381916 31.106035163639532 5.6174706081912262 -1 0 0 I I #
point $-1 -3.2016295549636489 31.106035163639532 5.6174706081912262 #
point $-1 -16.309686931464025 25.525823284233578 4.4666055191287599 #
point $-1 -11.394165415276383 25.525823284233578 4.4666055191287599 #
point $-1 -6.4786438990887447 25.525823284233578 4.4666055191287599 #
straight-curve $-1 20.663844855266159 31.106035163639532 59.367337331796399 0 0 -1 I I #
point $-1 20.663844855266159 31.106035163639532 10.161887063483976 #
straight-curve $-1 6.2356544974767125 31.106035163639532 5.6174706081912262 -1 0 0 I I #
point $-1 20.663844855266159 31.106035163639532 5.6174706081912262 #
point $-1 7.5557874787657795 25.525823284233578 4.4666055191287599 #
point $-1 12.471308994953425 25.525823284233578 4.4666055191287599 #
point $-1 17.386830511141063 25.525823284233578 4.4666055191287599 #
straight-curve $-1 44.529319265495971 31.106035163639532 59.367337331796399 0 0 -1 I I #
point $-1 44.529319265495971 31.106035163639532 10.161887063483976 #
straight-curve $-1 18.168391702591617 31.106035163639532 5.6174706081912262 -1 0 0 I I #
point $-1 44.529319265495971 31.106035163639532 5.6174706081912262 #
point $-1 31.421261888995581 25.525823284233578 4.4666055191287599 #
point $-1 36.336783405183233 25.525823284233578 4.4666055191287599 #
point $-1 41.252304921370872 25.525823284233578 4.4666055191287599 #
straight-curve $-1 0 -38.720649405821675 -1.9230076543159944 -1 0 0 I I #
point $-1 47.730948820459609 -38.720649405821675 -1.9230076543159944 #
straight-curve $-1 47.730948820459609 -38.720649405821675 0.47193765186873371 0 0 -1 I I #
End-of-ACIS-data 