500 0 2 0           
7 Unknown 11 ACIS 5.0 NT 24 Fri Mar 26 20:22:47 1999 
-1 9.9999999999999995e-007 1e-010 
body $-1 $2 $-1 $3 #
body $-1 $4 $-1 $5 #
lump $-1 $-1 $6 $0 #
transform $-1 1 0 0 0 1 0 0 0 1 66.837977233191936 37.412908091146271 11.299801208985814 1 rotate no_reflect no_shear #
lump $-1 $-1 $7 $1 #
transform $-1 1 0 0 0 1 0 0 0 1 66.837977233191936 37.412908091146271 11.299801208985814 1 rotate no_reflect no_shear #
shell $-1 $-1 $-1 $8 $-1 $2 #
shell $-1 $-1 $-1 $9 $-1 $4 #
face $-1 $10 $11 $6 $-1 $12 forward single #
face $-1 $13 $14 $7 $-1 $15 forward single #
face $-1 $16 $17 $6 $-1 $18 reversed single #
loop $-1 $-1 $19 $8 #
plane-surface $-1 0 0 11.299801208985814 0 0 1 1 0 0 forward_v I I I I #
face $-1 $20 $21 $7 $-1 $22 reversed single #
loop $-1 $-1 $23 $9 #
plane-surface $-1 0 -42.628431743130903 -4.4218468095210719 0 0 1 1 0 0 forward_v I I I I #
face $-1 $24 $25 $6 $-1 $26 reversed single #
loop $-1 $-1 $27 $10 #
plane-surface $-1 0 0 -11.299801208985814 0 0 1 1 0 0 forward_v I I I I #
coedge $-1 $28 $29 $30 $31 forward $11 $-1 #
face $-1 $32 $33 $7 $-1 $34 reversed single #
loop $-1 $-1 $35 $13 #
plane-surface $-1 0 -42.628431743130903 -10.502779291546599 0 0 1 1 0 0 forward_v I I I I #
coedge $-1 $36 $37 $38 $39 forward $14 $-1 #
face $-1 $40 $41 $6 $-1 $42 reversed single #
loop $-1 $-1 $43 $16 #
plane-surface $-1 0 -37.412908091146271 0 0 1 0 0 0 1 forward_v I I I I #
coedge $-1 $44 $45 $46 $47 forward $17 $-1 #
coedge $-1 $48 $19 $49 $50 forward $11 $-1 #
coedge $-1 $19 $48 $51 $52 forward $11 $-1 #
coedge $-1 $53 $54 $19 $31 reversed $55 $-1 #
edge $-1 $56 -37.412908091146271 $57 37.412908091146271 $30 $58 forward 7 unknown #
face $-1 $59 $60 $7 $-1 $61 reversed single #
loop $-1 $-1 $62 $20 #
plane-surface $-1 0 -47.843955395115536 -7.4623130505338349 0 1 0 0 0 1 forward_v I I I I #
coedge $-1 $63 $64 $65 $66 forward $21 $-1 #
coedge $-1 $67 $23 $68 $69 reversed $14 $-1 #
coedge $-1 $23 $67 $70 $71 forward $14 $-1 #
coedge $-1 $72 $73 $23 $39 reversed $74 $-1 #
edge $-1 $75 -5.2155236519846326 $76 5.2155236519846326 $38 $77 forward 7 unknown #
face $-1 $78 $79 $6 $-1 $80 reversed single #
loop $-1 $-1 $81 $24 #
plane-surface $-1 -66.837977233191936 0 0 1 0 0 0 0 -1 forward_v I I I I #
coedge $-1 $82 $51 $83 $84 forward $25 $-1 #
coedge $-1 $85 $27 $82 $86 forward $17 $-1 #
coedge $-1 $27 $85 $87 $88 forward $17 $-1 #
coedge $-1 $54 $53 $27 $47 reversed $55 $-1 #
edge $-1 $89 -37.412908091146271 $90 37.412908091146271 $46 $91 forward 7 unknown #
coedge $-1 $29 $28 $92 $93 forward $11 $-1 #
coedge $-1 $94 $95 $28 $50 reversed $79 $-1 #
edge $-1 $57 -66.837977233191936 $96 66.837977233191936 $49 $97 forward 7 unknown #
coedge $-1 $43 $98 $29 $52 reversed $25 $-1 #
edge $-1 $99 -66.837977233191936 $56 66.837977233191936 $51 $100 forward 7 unknown #
coedge $-1 $46 $30 $98 $101 forward $55 $-1 #
coedge $-1 $30 $46 $94 $102 reversed $55 $-1 #
loop $-1 $-1 $53 $78 #
vertex $-1 $31 $103 #
vertex $-1 $31 $104 #
straight-curve $-1 66.837977233191936 0 11.299801208985814 0 1 0 I I #
face $-1 $105 $106 $7 $-1 $61 reversed single #
loop $-1 $-1 $107 $32 #
plane-surface $-1 0 -37.412908091146271 0 0 1 0 0 0 1 forward_v I I I I #
coedge $-1 $108 $70 $109 $110 forward $33 $-1 #
coedge $-1 $111 $35 $108 $112 forward $21 $-1 #
coedge $-1 $35 $111 $107 $113 reversed $21 $-1 #
coedge $-1 $114 $72 $35 $66 reversed $74 $-1 #
edge $-1 $115 -5.2155236519846326 $116 5.2155236519846326 $65 $117 forward 7 unknown #
coedge $-1 $37 $36 $118 $119 forward $14 $-1 #
coedge $-1 $120 $121 $36 $69 forward $106 $-1 #
edge $-1 $122 -66.837977233191936 $76 66.837977233191936 $68 $123 forward 7 unknown #
coedge $-1 $62 $124 $37 $71 reversed $33 $-1 #
edge $-1 $125 -66.837977233191936 $75 66.837977233191936 $70 $126 forward 7 unknown #
coedge $-1 $65 $38 $124 $127 forward $74 $-1 #
coedge $-1 $38 $128 $120 $129 forward $74 $-1 #
loop $-1 $-1 $73 $130 #
vertex $-1 $39 $131 #
vertex $-1 $39 $132 #
straight-curve $-1 66.837977233191936 -42.628431743130903 -4.4218468095210719 0 1 0 I I #
face $-1 $-1 $55 $6 $-1 $133 reversed single #
loop $-1 $-1 $94 $40 #
plane-surface $-1 0 37.412908091146271 0 0 -1 0 0 0 -1 forward_v I I I I #
coedge $-1 $134 $92 $95 $135 forward $41 $-1 #
coedge $-1 $98 $43 $44 $86 reversed $25 $-1 #
coedge $-1 $92 $134 $43 $84 reversed $41 $-1 #
edge $-1 $99 -11.299801208985814 $136 11.299801208985814 $83 $137 forward 7 unknown #
coedge $-1 $45 $44 $134 $138 forward $17 $-1 #
edge $-1 $90 -66.837977233191936 $136 66.837977233191936 $82 $139 forward 7 unknown #
coedge $-1 $95 $94 $45 $88 reversed $79 $-1 #
edge $-1 $140 -66.837977233191936 $89 66.837977233191936 $87 $141 forward 7 unknown #
vertex $-1 $47 $142 #
vertex $-1 $101 $143 #
straight-curve $-1 66.837977233191936 0 -11.299801208985814 0 -1 0 I I #
coedge $-1 $81 $83 $48 $93 reversed $41 $-1 #
edge $-1 $96 -37.412908091146271 $99 37.412908091146271 $92 $144 forward 7 unknown #
coedge $-1 $87 $49 $54 $102 forward $79 $-1 #
coedge $-1 $49 $87 $81 $135 reversed $79 $-1 #
vertex $-1 $50 $145 #
straight-curve $-1 0 37.412908091146271 11.299801208985814 -1 0 0 I I #
coedge $-1 $51 $82 $53 $101 reversed $25 $-1 #
vertex $-1 $93 $146 #
straight-curve $-1 0 -37.412908091146271 11.299801208985814 1 0 0 I I #
edge $-1 $56 -11.299801208985814 $90 11.299801208985814 $53 $147 forward 7 unknown #
edge $-1 $57 -11.299801208985814 $89 11.299801208985814 $54 $148 forward 7 unknown #
point $-1 66.837977233191936 -37.412908091146271 11.299801208985814 #
point $-1 66.837977233191936 37.412908091146271 11.299801208985814 #
face $-1 $149 $150 $7 $-1 $151 forward single #
loop $-1 $-1 $68 $59 #
coedge $-1 $152 $153 $64 $113 forward $60 $-1 #
coedge $-1 $124 $62 $63 $112 reversed $33 $-1 #
coedge $-1 $118 $154 $62 $110 reversed $155 $-1 #
edge $-1 $125 -3.040466241012763 $156 3.0404662410127639 $109 $157 forward 7 unknown #
coedge $-1 $64 $63 $154 $158 forward $21 $-1 #
edge $-1 $116 -66.837977233191936 $156 66.837977233191936 $108 $159 forward 7 unknown #
edge $-1 $115 -66.837977233191936 $160 66.837977233191936 $107 $161 forward 7 unknown #
coedge $-1 $162 $65 $153 $163 forward $74 $-1 #
vertex $-1 $163 $164 #
vertex $-1 $127 $165 #
straight-curve $-1 66.837977233191936 -42.628431743130903 -10.502779291546599 0 -1 0 I I #
coedge $-1 $166 $109 $67 $119 reversed $155 $-1 #
edge $-1 $122 -5.2155236519846326 $125 5.2155236519846326 $118 $167 forward 7 unknown #
coedge $-1 $168 $68 $73 $129 reversed $106 $-1 #
coedge $-1 $68 $168 $166 $169 forward $106 $-1 #
vertex $-1 $169 $170 #
straight-curve $-1 0 -37.412908091146271 -4.4218468095210719 1 0 0 I I #
coedge $-1 $70 $108 $72 $127 reversed $33 $-1 #
vertex $-1 $119 $171 #
straight-curve $-1 0 -47.843955395115536 -4.4218468095210719 1 0 0 I I #
edge $-1 $75 -3.040466241012763 $116 3.0404662410127639 $72 $172 forward 7 unknown #
coedge $-1 $73 $173 $174 $175 reversed $74 $-1 #
edge $-1 $176 -11.299801208985814 $76 4.4218468095210719 $73 $177 forward 7 unknown #
face $-1 $-1 $74 $7 $-1 $178 reversed single #
point $-1 66.837977233191936 -47.843955395115536 -4.4218468095210719 #
point $-1 66.837977233191936 -37.412908091146271 -4.4218468095210719 #
plane-surface $-1 66.837977233191936 0 0 -1 0 0 0 0 1 forward_v I I I I #
coedge $-1 $83 $81 $85 $138 reversed $41 $-1 #
edge $-1 $96 -11.299801208985814 $140 11.299801208985814 $95 $179 forward 7 unknown #
vertex $-1 $138 $180 #
straight-curve $-1 -66.837977233191936 -37.412908091146271 0 0 0 -1 I I #
edge $-1 $136 -37.412908091146271 $140 37.412908091146271 $134 $181 forward 7 unknown #
straight-curve $-1 0 -37.412908091146271 -11.299801208985814 -1 0 0 I I #
vertex $-1 $88 $182 #
straight-curve $-1 0 37.412908091146271 -11.299801208985814 1 0 0 I I #
point $-1 66.837977233191936 37.412908091146271 -11.299801208985814 #
point $-1 66.837977233191936 -37.412908091146271 -11.299801208985814 #
straight-curve $-1 -66.837977233191936 0 11.299801208985814 0 -1 0 I I #
point $-1 -66.837977233191936 37.412908091146271 11.299801208985814 #
point $-1 -66.837977233191936 -37.412908091146271 11.299801208985814 #
straight-curve $-1 66.837977233191936 -37.412908091146271 0 0 0 -1 I I #
straight-curve $-1 66.837977233191936 37.412908091146271 0 0 0 -1 I I #
face $-1 $183 $184 $7 $-1 $185 reversed single #
loop $-1 $-1 $174 $105 #
plane-surface $-1 0 0 11.299801208985814 0 0 1 1 0 0 forward_v I I I I #
coedge $-1 $186 $107 $187 $188 forward $60 $-1 #
coedge $-1 $107 $186 $114 $163 reversed $60 $-1 #
coedge $-1 $109 $187 $111 $158 reversed $155 $-1 #
loop $-1 $-1 $189 $183 #
vertex $-1 $158 $190 #
straight-curve $-1 -66.837977233191936 -47.843955395115536 -7.4623130505338349 0 0 -1 I I #
edge $-1 $156 -5.2155236519846326 $160 5.2155236519846326 $154 $191 forward 7 unknown #
straight-curve $-1 0 -47.843955395115536 -10.502779291546599 -1 0 0 I I #
vertex $-1 $188 $192 #
straight-curve $-1 0 -37.412908091146271 -10.502779291546599 -1 0 0 I I #
coedge $-1 $173 $114 $193 $194 reversed $74 $-1 #
edge $-1 $115 10.502779291546599 $195 11.299801208985814 $114 $177 forward 7 unknown #
point $-1 66.837977233191936 -37.412908091146271 -10.502779291546599 #
point $-1 66.837977233191936 -47.843955395115536 -10.502779291546599 #
coedge $-1 $196 $118 $121 $169 reversed $155 $-1 #
straight-curve $-1 -66.837977233191936 -42.628431743130903 -4.4218468095210719 0 -1 0 I I #
coedge $-1 $121 $120 $197 $198 reversed $106 $-1 #
edge $-1 $199 -11.299801208985814 $122 4.4218468095210719 $166 $200 forward 7 unknown #
point $-1 -66.837977233191936 -37.412908091146271 -4.4218468095210719 #
point $-1 -66.837977233191936 -47.843955395115536 -4.4218468095210719 #
straight-curve $-1 66.837977233191936 -47.843955395115536 -7.4623130505338349 0 0 -1 I I #
coedge $-1 $128 $162 $201 $202 reversed $74 $-1 #
coedge $-1 $203 $197 $128 $175 forward $150 $-1 #
edge $-1 $176 -37.412908091146271 $204 37.412908091146271 $128 $205 forward 7 unknown #
vertex $-1 $175 $206 #
straight-curve $-1 66.837977233191936 -37.412908091146271 0 0 0 -1 I I #
plane-surface $-1 66.837977233191936 0 0 -1 0 0 0 0 1 forward_v I I I I #
straight-curve $-1 -66.837977233191936 37.412908091146271 0 0 0 -1 I I #
point $-1 -66.837977233191936 -37.412908091146271 -11.299801208985814 #
straight-curve $-1 -66.837977233191936 0 -11.299801208985814 0 1 0 I I #
point $-1 -66.837977233191936 37.412908091146271 -11.299801208985814 #
face $-1 $207 $155 $7 $-1 $208 reversed single #
loop $-1 $-1 $193 $149 #
plane-surface $-1 0 0 -11.299801208985814 0 0 1 1 0 0 forward_v I I I I #
coedge $-1 $153 $152 $209 $210 reversed $60 $-1 #
coedge $-1 $154 $211 $152 $188 reversed $155 $-1 #
edge $-1 $160 10.502779291546599 $212 11.299801208985814 $187 $200 forward 7 unknown #
coedge $-1 $211 $196 $213 $214 forward $155 $-1 #
point $-1 -66.837977233191936 -47.843955395115536 -10.502779291546599 #
straight-curve $-1 -66.837977233191936 -42.628431743130903 -10.502779291546599 0 1 0 I I #
point $-1 -66.837977233191936 -37.412908091146271 -10.502779291546599 #
coedge $-1 $209 $215 $162 $194 forward $184 $-1 #
edge $-1 $216 -37.412908091146271 $195 37.412908091146271 $162 $217 forward 7 unknown #
vertex $-1 $163 $218 #
coedge $-1 $189 $166 $219 $220 reversed $155 $-1 #
coedge $-1 $174 $219 $168 $198 forward $150 $-1 #
edge $-1 $199 -66.837977233191936 $176 66.837977233191936 $168 $221 forward 7 unknown #
vertex $-1 $220 $222 #
straight-curve $-1 -66.837977233191936 -37.412908091146271 0 0 0 -1 I I #
coedge $-1 $223 $224 $173 $202 forward $225 $-1 #
edge $-1 $204 -11.299801208985814 $216 11.299801208985814 $173 $226 forward 7 unknown #
coedge $-1 $219 $174 $224 $227 forward $150 $-1 #
vertex $-1 $175 $228 #
straight-curve $-1 66.837977233191936 0 11.299801208985814 0 1 0 I I #
point $-1 66.837977233191936 -37.412908091146271 11.299801208985814 #
face $-1 $130 $225 $7 $-1 $229 reversed single #
plane-surface $-1 -66.837977233191936 0 0 1 0 0 0 0 -1 forward_v I I I I #
coedge $-1 $230 $193 $186 $210 forward $184 $-1 #
edge $-1 $195 -66.837977233191936 $212 66.837977233191936 $186 $231 forward 7 unknown #
coedge $-1 $187 $189 $230 $232 reversed $155 $-1 #
vertex $-1 $232 $233 #
coedge $-1 $224 $223 $189 $214 reversed $225 $-1 #
edge $-1 $234 -11.299801208985814 $235 11.299801208985814 $213 $236 forward 7 unknown #
coedge $-1 $193 $230 $223 $237 forward $184 $-1 #
vertex $-1 $194 $238 #
straight-curve $-1 66.837977233191936 0 -11.299801208985814 0 -1 0 I I #
point $-1 66.837977233191936 -37.412908091146271 -11.299801208985814 #
coedge $-1 $197 $203 $196 $220 forward $150 $-1 #
edge $-1 $234 -37.412908091146271 $199 37.412908091146271 $196 $239 forward 7 unknown #
straight-curve $-1 0 -37.412908091146271 11.299801208985814 1 0 0 I I #
point $-1 -66.837977233191936 -37.412908091146271 11.299801208985814 #
coedge $-1 $213 $201 $215 $237 reversed $225 $-1 #
coedge $-1 $201 $213 $203 $227 reversed $225 $-1 #
loop $-1 $-1 $201 $207 #
straight-curve $-1 66.837977233191936 37.412908091146271 0 0 0 -1 I I #
edge $-1 $204 -66.837977233191936 $234 66.837977233191936 $224 $240 forward 7 unknown #
point $-1 66.837977233191936 37.412908091146271 11.299801208985814 #
plane-surface $-1 0 37.412908091146271 0 0 -1 0 0 0 -1 forward_v I I I I #
coedge $-1 $215 $209 $211 $232 forward $184 $-1 #
straight-curve $-1 0 -37.412908091146271 -11.299801208985814 -1 0 0 I I #
edge $-1 $212 -37.412908091146271 $235 37.412908091146271 $211 $241 forward 7 unknown #
point $-1 -66.837977233191936 -37.412908091146271 -11.299801208985814 #
vertex $-1 $227 $242 #
vertex $-1 $237 $243 #
straight-curve $-1 -66.837977233191936 37.412908091146271 0 0 0 -1 I I #
edge $-1 $235 -66.837977233191936 $216 66.837977233191936 $223 $244 forward 7 unknown #
point $-1 66.837977233191936 37.412908091146271 -11.299801208985814 #
straight-curve $-1 -66.837977233191936 0 11.299801208985814 0 -1 0 I I #
straight-curve $-1 0 37.412908091146271 11.299801208985814 -1 0 0 I I #
straight-curve $-1 -66.837977233191936 0 -11.299801208985814 0 1 0 I I #
point $-1 -66.837977233191936 37.412908091146271 11.299801208985814 #
point $-1 -66.837977233191936 37.412908091146271 -11.299801208985814 #
straight-curve $-1 0 37.412908091146271 -11.299801208985814 1 0 0 I I #
End-of-ACIS-data 