500 0 5 0           
7 Unknown 11 ACIS 5.0 NT 24 Fri Mar 26 17:53:29 1999 
-1 9.9999999999999995e-007 1e-010 
body $-1 $5 $-1 $6 #
body $-1 $7 $-1 $8 #
body $-1 $9 $-1 $10 #
body $-1 $11 $-1 $12 #
body $-1 $13 $-1 $14 #
lump $-1 $-1 $15 $0 #
transform $-1 1 0 0 0 1 0 0 0 1 64.031495101779228 26.864228419223291 11.942353491188518 1 rotate no_reflect no_shear #
lump $-1 $-1 $16 $1 #
transform $-1 1 0 0 0 1 0 0 0 1 64.031495101779228 26.864228419223291 11.942353491188518 1 rotate no_reflect no_shear #
lump $-1 $-1 $17 $2 #
transform $-1 1 0 0 0 1 0 0 0 1 64.031495101779228 26.864228419223291 11.942353491188518 1 rotate no_reflect no_shear #
lump $-1 $-1 $18 $3 #
transform $-1 1 0 0 0 1 0 0 0 1 64.031495101779228 26.864228419223291 11.942353491188518 1 rotate no_reflect no_shear #
lump $-1 $-1 $19 $4 #
transform $-1 1 0 0 0 1 0 0 0 1 64.031495101779228 26.864228419223291 11.942353491188518 1 rotate no_reflect no_shear #
shell $-1 $-1 $-1 $20 $-1 $5 #
shell $-1 $-1 $-1 $21 $-1 $7 #
shell $-1 $-1 $-1 $22 $-1 $9 #
shell $-1 $-1 $-1 $23 $-1 $11 #
shell $-1 $-1 $-1 $24 $-1 $13 #
face $-1 $25 $26 $15 $-1 $27 forward single #
face $-1 $28 $29 $16 $-1 $30 reversed single #
face $-1 $31 $32 $17 $-1 $33 forward single #
face $-1 $34 $35 $18 $-1 $36 reversed single #
face $-1 $37 $38 $19 $-1 $39 forward single #
face $-1 $40 $41 $15 $-1 $42 reversed single #
loop $-1 $-1 $43 $20 #
plane-surface $-1 0 0 11.942353491188518 0 0 1 1 0 0 forward_v I I I I #
face $-1 $44 $45 $16 $-1 $46 reversed single #
loop $-1 $-1 $47 $21 #
plane-surface $-1 -21.069663432290483 -126.38786512778016 83.729173361348089 -1 0 0 0 -0.77714596973225614 0.62932038083071107 forward_v I I I I #
face $-1 $48 $49 $17 $-1 $50 forward single #
loop $-1 $51 $52 $22 #
cone-surface $-1 -36.875380825757105 -20.507228475011452 5.2788537441717303 0 0.77714596973225614 -0.62932038083071107 2.5 0 0 1 I I 0 1 2.5 forward I I I I #
face $-1 $53 $54 $18 $-1 $55 reversed single #
loop $-1 $-1 $56 $23 #
plane-surface $-1 42.705120436910391 83.880852427075737 128.15061899032793 1 0 0 0 -0.73135370988377701 -0.68199835119979291 forward_v I I I I #
face $-1 $57 $58 $19 $-1 $59 forward single #
loop $-1 $60 $61 $24 #
cone-surface $-1 53.36830776934481 20.871526573111851 5.6742778633668749 0 -0.73135370988377701 -0.68199835119979291 2 0 0 1 I I 0 1 2 forward I I I I #
face $-1 $62 $63 $15 $-1 $64 reversed single #
loop $-1 $-1 $65 $25 #
plane-surface $-1 0 0 -11.942353491188518 0 0 1 1 0 0 forward_v I I I I #
coedge $-1 $66 $67 $68 $69 forward $26 $-1 #
face $-1 $70 $71 $16 $-1 $72 reversed single #
loop $-1 $-1 $73 $28 #
plane-surface $-1 -36.875380825757105 -26.864228419223309 3.136523596125059 0 -0.77714596973225614 0.62932038083071107 1 0 0 forward_v I I I I #
coedge $-1 $74 $75 $76 $77 reversed $29 $-1 #
face $-1 $-1 $78 $17 $-1 $79 forward single #
loop $-1 $80 $81 $31 #
cone-surface $-1 -36.875380825757105 -16.744206196799169 2.2316184686482874 0 0.77714596973225614 -0.62932038083071107 1.25 0 0 1 I I -0.70710678118654746 0.70710678118654746 1.25 forward I I I I #
loop $-1 $-1 $82 $22 #
coedge $-1 $52 $52 $83 $84 reversed $32 $-1 #
face $-1 $85 $86 $18 $-1 $87 forward single #
loop $-1 $-1 $88 $34 #
plane-surface $-1 53.36830776934481 -9.7784905571065366 40.811870821785831 0 0.73135370988377701 0.68199835119979291 1 0 0 forward_v I I I I #
coedge $-1 $89 $90 $91 $92 reversed $35 $-1 #
face $-1 $-1 $93 $19 $-1 $94 forward single #
loop $-1 $95 $96 $37 #
cone-surface $-1 53.36830776934481 19.008200612168604 3.9366983366109221 0 -0.73135370988377701 -0.68199835119979291 1 0 0 1 I I -0.70710678118654746 0.70710678118654746 1 forward I I I I #
loop $-1 $-1 $97 $24 #
coedge $-1 $61 $61 $98 $99 reversed $38 $-1 #
face $-1 $100 $101 $15 $-1 $102 reversed single #
loop $-1 $-1 $103 $40 #
plane-surface $-1 0 -26.864228419223291 0 0 1 0 0 0 1 forward_v I I I I #
coedge $-1 $104 $105 $106 $107 forward $41 $-1 #
coedge $-1 $108 $43 $109 $110 forward $26 $-1 #
coedge $-1 $43 $108 $111 $112 forward $26 $-1 #
coedge $-1 $113 $114 $43 $69 reversed $115 $-1 #
edge $-1 $116 -26.864228419223291 $117 26.864228419223291 $68 $118 forward 7 unknown #
face $-1 $119 $120 $16 $-1 $121 reversed single #
loop $-1 $-1 $122 $44 #
plane-surface $-1 -52.681098219223728 -126.38786512778016 83.729173361348089 1 0 0 0 0.77714596973225614 -0.62932038083071107 forward_v I I I I #
coedge $-1 $123 $124 $125 $126 reversed $45 $-1 #
coedge $-1 $75 $47 $127 $128 reversed $29 $-1 #
coedge $-1 $47 $74 $123 $129 reversed $29 $-1 #
coedge $-1 $125 $130 $47 $77 forward $131 $-1 #
edge $-1 $132 36.329704144666792 $133 43.460524400996519 $76 $134 forward 7 unknown #
loop $-1 $-1 $83 $48 #
plane-surface $-1 -36.875380825757105 -26.864228419223309 3.136523596125059 0 -0.77714596973225614 0.62932038083071107 1 0 0 forward_v I I I I #
loop $-1 $-1 $135 $31 #
coedge $-1 $81 $81 $82 $136 reversed $49 $-1 #
coedge $-1 $82 $82 $81 $136 forward $51 $-1 #
coedge $-1 $83 $83 $52 $84 forward $78 $-1 #
edge $-1 $137 -2.8809576340912044e-016 $137 6.2831853071796004 $83 $138 forward 7 unknown #
face $-1 $139 $140 $18 $-1 $141 reversed single #
loop $-1 $-1 $91 $53 #
plane-surface $-1 0 0 11.942353491188518 0 0 1 1 0 0 forward_v I I I I #
coedge $-1 $142 $143 $144 $145 reversed $54 $-1 #
coedge $-1 $90 $56 $146 $147 reversed $35 $-1 #
coedge $-1 $56 $89 $142 $148 reversed $35 $-1 #
coedge $-1 $144 $149 $56 $92 forward $86 $-1 #
edge $-1 $150 15.076197794314577 $151 24.797656984418555 $91 $152 forward 7 unknown #
loop $-1 $-1 $98 $57 #
plane-surface $-1 53.36830776934481 -9.7784905571065366 40.811870821785831 0 0.73135370988377701 0.68199835119979291 1 0 0 forward_v I I I I #
loop $-1 $-1 $153 $37 #
coedge $-1 $96 $96 $97 $154 reversed $58 $-1 #
coedge $-1 $97 $97 $96 $154 forward $60 $-1 #
coedge $-1 $98 $98 $61 $99 forward $93 $-1 #
edge $-1 $155 -7.6314993593993704e-016 $155 6.2831853071795996 $98 $156 forward 7 unknown #
face $-1 $157 $158 $15 $-1 $159 reversed single #
loop $-1 $-1 $160 $62 #
plane-surface $-1 -64.031495101779228 0 0 1 0 0 0 0 -1 forward_v I I I I #
coedge $-1 $161 $111 $162 $163 forward $63 $-1 #
coedge $-1 $164 $65 $161 $165 forward $41 $-1 #
coedge $-1 $65 $164 $166 $167 forward $41 $-1 #
coedge $-1 $114 $113 $65 $107 reversed $115 $-1 #
edge $-1 $168 -26.864228419223291 $169 26.864228419223291 $106 $170 forward 7 unknown #
coedge $-1 $67 $66 $171 $172 forward $26 $-1 #
coedge $-1 $173 $174 $66 $110 reversed $158 $-1 #
edge $-1 $117 -64.031495101779228 $175 64.031495101779228 $109 $176 forward 7 unknown #
coedge $-1 $103 $177 $67 $112 reversed $63 $-1 #
edge $-1 $178 -64.031495101779228 $116 64.031495101779228 $111 $179 forward 7 unknown #
coedge $-1 $106 $68 $177 $180 forward $115 $-1 #
coedge $-1 $68 $106 $173 $181 reversed $115 $-1 #
loop $-1 $-1 $113 $157 #
vertex $-1 $69 $182 #
vertex $-1 $69 $183 #
straight-curve $-1 64.031495101779228 0 11.942353491188518 0 1 0 I I #
face $-1 $-1 $131 $16 $-1 $184 forward single #
loop $-1 $-1 $185 $70 #
plane-surface $-1 0 -26.864228419223291 0 0 1 0 0 0 1 forward_v I I I I #
coedge $-1 $186 $187 $188 $189 reversed $71 $-1 #
coedge $-1 $190 $73 $75 $129 forward $45 $-1 #
coedge $-1 $73 $190 $186 $191 forward $45 $-1 #
coedge $-1 $188 $76 $73 $126 forward $131 $-1 #
edge $-1 $133 2.6319730194119302 $192 34.243407806345175 $125 $193 forward 7 unknown #
coedge $-1 $194 $195 $74 $128 forward $120 $-1 #
edge $-1 $196 -38.728063084548964 $132 -29.922233189485524 $127 $197 forward 7 unknown #
edge $-1 $133 -11.330985732445169 $196 -2.8089960468817396e-014 $75 $198 forward 7 unknown #
coedge $-1 $76 $188 $194 $199 forward $131 $-1 #
loop $-1 $-1 $188 $119 #
vertex $-1 $128 $200 #
vertex $-1 $77 $201 #
straight-curve $-1 -21.069663432290483 -63.19393256389008 11.94235349118852 0 1 0 I I #
coedge $-1 $135 $135 $-1 $202 reversed $80 $-1 #
edge $-1 $203 0 $203 6.2831853071796004 $81 $204 forward 7 unknown #
vertex $-1 $84 $205 #
ellipse-curve $-1 -36.875380825757105 -23.298818291058431 7.5394385436567957 0 -0.77714596973225614 0.62932038083071107 2.5 0 0 1 I I #
face $-1 $-1 $206 $18 $-1 $207 reversed single #
loop $-1 $-1 $146 $85 #
plane-surface $-1 0 26.864228419223291 0 0 -1 0 0 0 -1 forward_v I I I I #
coedge $-1 $208 $88 $90 $148 forward $54 $-1 #
coedge $-1 $88 $208 $209 $210 reversed $54 $-1 #
coedge $-1 $211 $91 $88 $145 forward $86 $-1 #
edge $-1 $151 16.020966552237986 $212 37.347341217106823 $144 $213 forward 7 unknown #
coedge $-1 $214 $215 $89 $147 forward $140 $-1 #
edge $-1 $216 -62.557944908506457 $150 -52.132956003975444 $146 $217 forward 7 unknown #
edge $-1 $151 39.474083388713659 $216 53.728456838446618 $90 $218 forward 7 unknown #
coedge $-1 $91 $211 $214 $219 forward $86 $-1 #
vertex $-1 $147 $220 #
vertex $-1 $92 $221 #
straight-curve $-1 42.705120436910391 41.940426213537869 11.94235349118852 0 -1 0 I I #
coedge $-1 $153 $153 $-1 $222 reversed $95 $-1 #
edge $-1 $223 0 $223 6.2831853071796004 $96 $224 forward 7 unknown #
vertex $-1 $99 $225 #
ellipse-curve $-1 53.36830776934481 22.003498824171302 6.7298590389230171 0 0.73135370988377701 0.68199835119979291 2 0 0 1 I I #
face $-1 $-1 $115 $15 $-1 $226 reversed single #
loop $-1 $-1 $173 $100 #
plane-surface $-1 0 26.864228419223291 0 0 -1 0 0 0 -1 forward_v I I I I #
coedge $-1 $227 $171 $174 $228 forward $101 $-1 #
coedge $-1 $177 $103 $104 $165 reversed $63 $-1 #
coedge $-1 $171 $227 $103 $163 reversed $101 $-1 #
edge $-1 $178 -11.942353491188518 $229 11.942353491188518 $162 $230 forward 7 unknown #
coedge $-1 $105 $104 $227 $231 forward $41 $-1 #
edge $-1 $169 -64.031495101779228 $229 64.031495101779228 $161 $232 forward 7 unknown #
coedge $-1 $174 $173 $105 $167 reversed $158 $-1 #
edge $-1 $233 -64.031495101779228 $168 64.031495101779228 $166 $234 forward 7 unknown #
vertex $-1 $107 $235 #
vertex $-1 $180 $236 #
straight-curve $-1 64.031495101779228 0 -11.942353491188518 0 -1 0 I I #
coedge $-1 $160 $162 $108 $172 reversed $101 $-1 #
edge $-1 $175 -26.864228419223291 $178 26.864228419223291 $171 $237 forward 7 unknown #
coedge $-1 $166 $109 $114 $181 forward $158 $-1 #
coedge $-1 $109 $166 $160 $228 reversed $158 $-1 #
vertex $-1 $110 $238 #
straight-curve $-1 0 26.864228419223291 11.942353491188518 -1 0 0 I I #
coedge $-1 $111 $161 $113 $180 reversed $63 $-1 #
vertex $-1 $172 $239 #
straight-curve $-1 0 -26.864228419223291 11.942353491188518 1 0 0 I I #
edge $-1 $116 -11.942353491188518 $169 11.942353491188518 $113 $240 forward 7 unknown #
edge $-1 $117 -11.942353491188518 $168 11.942353491188518 $114 $241 forward 7 unknown #
point $-1 64.031495101779228 -26.864228419223291 11.942353491188518 #
point $-1 64.031495101779228 26.864228419223291 11.942353491188518 #
plane-surface $-1 0 0 11.942353491188518 0 0 1 1 0 0 forward_v I I I I #
coedge $-1 $195 $194 $187 $242 forward $120 $-1 #
coedge $-1 $187 $122 $124 $191 reversed $71 $-1 #
coedge $-1 $122 $186 $185 $242 reversed $71 $-1 #
coedge $-1 $130 $125 $122 $189 forward $131 $-1 #
edge $-1 $192 -43.460524400996519 $243 -36.329704144666792 $188 $244 forward 7 unknown #
coedge $-1 $124 $123 $195 $245 reversed $45 $-1 #
edge $-1 $246 2.8089960468817396e-014 $192 11.330985732445169 $186 $247 forward 7 unknown #
vertex $-1 $126 $248 #
straight-curve $-1 -18.437690412878553 -19.733408162893564 11.942353491188518 -1 0 0 I I #
coedge $-1 $185 $127 $130 $199 reversed $120 $-1 #
coedge $-1 $127 $185 $190 $245 forward $120 $-1 #
vertex $-1 $128 $249 #
straight-curve $-1 -21.069663432290483 -26.864228419223295 41.864586680674044 0 0 1 I I #
straight-curve $-1 -21.069663432290483 -26.864228419223309 3.136523596125059 0 -0.62932038083071107 -0.77714596973225614 I I #
edge $-1 $243 -52.681098219223728 $132 -21.069663432290483 $194 $250 forward 7 unknown #
point $-1 -21.069663432290483 -26.864228419223291 11.942353491188518 #
point $-1 -21.069663432290483 -19.733408162893561 11.942353491188518 #
edge $-1 $251 1 $251 0 $135 $-1 forward 7 unknown #
vertex $-1 $136 $252 #
ellipse-curve $-1 -36.875380825757105 -17.71563865896449 3.0182689446866764 0 -0.77714596973225614 0.62932038083071107 2.5 0 0 1 I I #
point $-1 -34.375380825757105 -23.298818291058417 7.5394385436567832 #
loop $-1 $-1 $209 $139 #
plane-surface $-1 64.031495101779228 0 0 -1 0 0 0 0 1 forward_v I I I I #
coedge $-1 $143 $142 $215 $253 reversed $54 $-1 #
coedge $-1 $254 $255 $143 $210 forward $206 $-1 #
edge $-1 $212 21.215669603723686 $256 35.470043053456642 $209 $257 forward 7 unknown #
coedge $-1 $149 $144 $255 $258 forward $86 $-1 #
vertex $-1 $258 $259 #
straight-curve $-1 26.684153884672405 17.142769229119317 11.942353491188516 1 0 0 I I #
coedge $-1 $260 $146 $149 $219 reversed $140 $-1 #
coedge $-1 $146 $260 $208 $253 forward $140 $-1 #
vertex $-1 $147 $261 #
straight-curve $-1 42.705120436910391 26.864228419223291 64.075309495163964 0 0 1 I I #
straight-curve $-1 42.705120436910391 -9.7784905571065366 40.811870821785831 0 0.68199835119979291 -0.73135370988377701 I I #
edge $-1 $262 -64.031495101779228 $150 -42.705120436910391 $214 $263 forward 7 unknown #
point $-1 42.705120436910391 26.864228419223291 11.942353491188518 #
point $-1 42.705120436910391 17.142769229119313 11.94235349118852 #
edge $-1 $264 1 $264 0 $153 $-1 forward 7 unknown #
vertex $-1 $154 $265 #
ellipse-curve $-1 53.36830776934481 19.739554322052381 4.618696687810715 0 0.73135370988377701 0.68199835119979291 2 0 0 1 I I #
point $-1 55.36830776934481 22.00349882417132 6.7298590389230357 #
plane-surface $-1 64.031495101779228 0 0 -1 0 0 0 0 1 forward_v I I I I #
coedge $-1 $162 $160 $164 $231 reversed $101 $-1 #
edge $-1 $175 -11.942353491188518 $233 11.942353491188518 $174 $266 forward 7 unknown #
vertex $-1 $231 $267 #
straight-curve $-1 -64.031495101779228 -26.864228419223291 0 0 0 -1 I I #
edge $-1 $229 -26.864228419223291 $233 26.864228419223291 $227 $268 forward 7 unknown #
straight-curve $-1 0 -26.864228419223291 -11.942353491188518 -1 0 0 I I #
vertex $-1 $167 $269 #
straight-curve $-1 0 26.864228419223291 -11.942353491188518 1 0 0 I I #
point $-1 64.031495101779228 26.864228419223291 -11.942353491188518 #
point $-1 64.031495101779228 -26.864228419223291 -11.942353491188518 #
straight-curve $-1 -64.031495101779228 0 11.942353491188518 0 -1 0 I I #
point $-1 -64.031495101779228 26.864228419223291 11.942353491188518 #
point $-1 -64.031495101779228 -26.864228419223291 11.942353491188518 #
straight-curve $-1 64.031495101779228 -26.864228419223291 0 0 0 -1 I I #
straight-curve $-1 64.031495101779228 26.864228419223291 0 0 0 -1 I I #
edge $-1 $243 29.922233189485524 $246 38.728063084548964 $185 $270 forward 7 unknown #
vertex $-1 $199 $271 #
straight-curve $-1 -52.681098219223728 -63.19393256389008 11.94235349118852 0 -1 0 I I #
edge $-1 $246 -34.243407806345175 $196 -2.6319730194119302 $195 $272 forward 7 unknown #
vertex $-1 $245 $273 #
straight-curve $-1 -52.681098219223728 -26.864228419223309 3.136523596125059 0 0.62932038083071107 0.77714596973225614 I I #
point $-1 -52.681098219223728 -19.733408162893561 11.942353491188518 #
point $-1 -21.069663432290483 -26.864228419223291 3.1365235961250808 #
straight-curve $-1 0 -26.864228419223291 11.942353491188518 1 0 0 I I #
vertex $-1 $202 $274 #
point $-1 -34.375380825757105 -17.71563865896449 3.0182689446866764 #
edge $-1 $256 -37.347341217106823 $216 -16.020966552237986 $215 $275 forward 7 unknown #
coedge $-1 $255 $209 $260 $276 reversed $206 $-1 #
coedge $-1 $209 $254 $211 $258 reversed $206 $-1 #
vertex $-1 $210 $277 #
straight-curve $-1 64.031495101779228 2.6737175397801947 27.45851216354032 0 0.68199835119979291 -0.73135370988377701 I I #
edge $-1 $212 17.142769229119313 $262 26.864228419223291 $255 $278 forward 7 unknown #
point $-1 64.031495101779228 17.142769229119313 11.94235349118852 #
coedge $-1 $215 $214 $254 $276 forward $140 $-1 #
point $-1 42.705120436910391 26.864228419223295 1.5173645866575072 #
vertex $-1 $258 $279 #
straight-curve $-1 0 26.864228419223291 11.942353491188518 -1 0 0 I I #
vertex $-1 $222 $280 #
point $-1 55.36830776934481 19.739554322052381 4.618696687810715 #
straight-curve $-1 -64.031495101779228 26.864228419223291 0 0 0 -1 I I #
point $-1 -64.031495101779228 -26.864228419223291 -11.942353491188518 #
straight-curve $-1 -64.031495101779228 0 -11.942353491188518 0 1 0 I I #
point $-1 -64.031495101779228 26.864228419223291 -11.942353491188518 #
straight-curve $-1 -52.681098219223728 -26.864228419223295 41.864586680674044 0 0 -1 I I #
point $-1 -52.681098219223728 -26.864228419223291 11.942353491188518 #
straight-curve $-1 -18.437690412878553 -26.864228419223291 3.1365235961250844 1 0 0 I I #
point $-1 -52.681098219223728 -26.864228419223291 3.1365235961250808 #
point $-1 -36.875380825757105 -15.77277373463385 1.4449679926098986 #
straight-curve $-1 26.684153884672405 26.864228419223288 1.5173645866575143 -1 0 0 I I #
edge $-1 $262 -11.942353491188518 $256 -1.5173645866575072 $254 $281 forward 7 unknown #
point $-1 64.031495101779228 26.864228419223295 1.5173645866575072 #
straight-curve $-1 64.031495101779228 0 11.942353491188518 0 1 0 I I #
point $-1 64.031495101779228 26.864228419223291 11.942353491188518 #
point $-1 53.36830776934481 18.276846902284827 3.2546999854111291 #
straight-curve $-1 64.031495101779228 26.864228419223291 0 0 0 -1 I I #
End-of-ACIS-data 