500 0 11 0           
7 Unknown 11 ACIS 5.0 NT 24 Thu Mar 25 17:18:47 1999 
-1 9.9999999999999995e-007 1e-010 
body $-1 $11 $-1 $12 #
body $-1 $13 $-1 $14 #
body $-1 $15 $-1 $16 #
body $-1 $17 $-1 $18 #
body $-1 $19 $-1 $20 #
body $-1 $21 $-1 $22 #
body $-1 $23 $-1 $24 #
body $-1 $25 $-1 $26 #
body $-1 $27 $-1 $28 #
body $-1 $29 $-1 $30 #
body $-1 $31 $-1 $32 #
lump $-1 $-1 $33 $0 #
transform $-1 1 0 0 0 1 0 0 0 1 76.010620441297647 32.909557483950366 10.498577695104268 1 rotate no_reflect no_shear #
lump $-1 $-1 $34 $1 #
transform $-1 1 0 0 0 1 0 0 0 1 76.010620441297647 32.909557483950366 10.498577695104268 1 rotate no_reflect no_shear #
lump $-1 $-1 $35 $2 #
transform $-1 1 0 0 0 1 0 0 0 1 76.010620441297647 32.909557483950366 10.498577695104268 1 rotate no_reflect no_shear #
lump $-1 $-1 $36 $3 #
transform $-1 1 0 0 0 1 0 0 0 1 76.010620441297647 32.909557483950366 10.498577695104268 1 rotate no_reflect no_shear #
lump $-1 $-1 $37 $4 #
transform $-1 1 0 0 0 1 0 0 0 1 76.010620441297647 32.909557483950366 10.498577695104268 1 rotate no_reflect no_shear #
lump $-1 $-1 $38 $5 #
transform $-1 1 0 0 0 1 0 0 0 1 76.010620441297647 32.909557483950366 10.498577695104268 1 rotate no_reflect no_shear #
lump $-1 $-1 $39 $6 #
transform $-1 1 0 0 0 1 0 0 0 1 76.010620441297647 32.909557483950366 10.498577695104268 1 rotate no_reflect no_shear #
lump $-1 $-1 $40 $7 #
transform $-1 1 0 0 0 1 0 0 0 1 76.010620441297647 32.909557483950366 10.498577695104268 1 rotate no_reflect no_shear #
lump $-1 $-1 $41 $8 #
transform $-1 1 0 0 0 1 0 0 0 1 76.010620441297647 32.909557483950366 10.498577695104268 1 rotate no_reflect no_shear #
lump $-1 $-1 $42 $9 #
transform $-1 1 0 0 0 1 0 0 0 1 76.010620441297647 32.909557483950366 10.498577695104268 1 rotate no_reflect no_shear #
lump $-1 $-1 $43 $10 #
transform $-1 1 0 0 0 1 0 0 0 1 76.010620441297647 32.909557483950366 10.498577695104268 1 rotate no_reflect no_shear #
shell $-1 $-1 $-1 $44 $-1 $11 #
shell $-1 $-1 $-1 $45 $-1 $13 #
shell $-1 $-1 $-1 $46 $-1 $15 #
shell $-1 $-1 $-1 $47 $-1 $17 #
shell $-1 $-1 $-1 $48 $-1 $19 #
shell $-1 $-1 $-1 $49 $-1 $21 #
shell $-1 $-1 $-1 $50 $-1 $23 #
shell $-1 $-1 $-1 $51 $-1 $25 #
shell $-1 $-1 $-1 $52 $-1 $27 #
shell $-1 $-1 $-1 $53 $-1 $29 #
shell $-1 $-1 $-1 $54 $-1 $31 #
face $-1 $55 $56 $33 $-1 $57 forward single #
face $-1 $58 $59 $34 $-1 $60 forward single #
face $-1 $61 $62 $35 $-1 $63 reversed single #
face $-1 $64 $65 $36 $-1 $66 forward single #
face $-1 $67 $68 $37 $-1 $69 forward single #
face $-1 $70 $71 $38 $-1 $72 reversed single #
face $-1 $73 $74 $39 $-1 $75 forward single #
face $-1 $76 $77 $40 $-1 $78 forward single #
face $-1 $79 $80 $41 $-1 $81 reversed single #
face $-1 $82 $83 $42 $-1 $84 forward single #
face $-1 $85 $86 $43 $-1 $87 forward single #
face $-1 $88 $89 $33 $-1 $90 reversed single #
loop $-1 $-1 $91 $44 #
plane-surface $-1 0 0 10.498577695104268 0 0 1 1 0 0 forward_v I I I I #
face $-1 $92 $93 $34 $-1 $94 reversed single #
loop $-1 $-1 $95 $45 #
plane-surface $-1 0 -32.909557483950366 0 0 1 0 0 0 1 forward_v I I I I #
face $-1 $96 $97 $35 $-1 $98 reversed single #
loop $-1 $-1 $99 $46 #
plane-surface $-1 83.513683312642513 -8.1701317389405688 214.9204070101402 0 -1 0 -0.73135370988377701 0 -0.68199835119979291 forward_v I I I I #
face $-1 $100 $101 $36 $-1 $102 forward single #
loop $-1 $103 $104 $47 #
cone-surface $-1 69.989491322494999 -18.280987788838313 4.2031640303882627 -0.73135370988377701 0 -0.68199835119979291 1.3639967023995858 0 -1.462707419767554 1 I I 0 1 2 forward I I I I #
face $-1 $105 $106 $37 $-1 $107 forward single #
loop $-1 $108 $109 $48 #
cone-surface $-1 69.989491322494999 -12.214474158899666 4.2031640303882627 -0.73135370988377701 0 -0.68199835119979291 1.3639967023995858 0 -1.462707419767554 1 I I 0 1 2 forward I I I I #
face $-1 $110 $111 $38 $-1 $112 reversed single #
loop $-1 $-1 $113 $49 #
plane-surface $-1 -206.31825832908561 -18.48849611004055 83.736151923271464 0 1 0 -0.85716730853699208 0 0.51503806187062418 forward_v I I I I #
face $-1 $114 $115 $39 $-1 $116 forward single #
loop $-1 $117 $118 $50 #
cone-surface $-1 -73.825148980259343 -14.821902248589883 7.5690998844903419 0.85716730853699208 0 -0.51503806187062418 0.51503806187062418 0 0.85716730853699208 1 I I 0 1 1 forward I I I I #
face $-1 $119 $120 $40 $-1 $121 forward single #
loop $-1 $122 $123 $51 #
cone-surface $-1 -73.825148980259343 -9.322011456413879 7.5690998844903419 0.85716730853699208 0 -0.51503806187062418 0.51503806187062418 0 0.85716730853699208 1 I I 0 1 1 forward I I I I #
face $-1 $124 $125 $41 $-1 $126 reversed single #
loop $-1 $-1 $127 $52 #
plane-surface $-1 -206.31825832908561 9.128947736333334 83.736151923271464 0 1 0 -0.85716730853699208 0 0.51503806187062418 forward_v I I I I #
face $-1 $128 $129 $42 $-1 $130 forward single #
loop $-1 $131 $132 $53 #
cone-surface $-1 -73.825148980259343 12.795541597784009 7.5690998844903419 0.85716730853699208 0 -0.51503806187062418 0.51503806187062418 0 0.85716730853699208 1 I I 0 1 1 forward I I I I #
face $-1 $133 $134 $43 $-1 $135 forward single #
loop $-1 $136 $137 $54 #
cone-surface $-1 -73.825148980259343 18.295432389960013 7.5690998844903419 0.85716730853699208 0 -0.51503806187062418 0.51503806187062418 0 0.85716730853699208 1 I I 0 1 1 forward I I I I #
face $-1 $138 $139 $33 $-1 $140 reversed single #
loop $-1 $-1 $141 $55 #
plane-surface $-1 0 0 -10.498577695104268 0 0 1 1 0 0 forward_v I I I I #
coedge $-1 $142 $143 $144 $145 forward $56 $-1 #
face $-1 $146 $147 $34 $-1 $148 reversed single #
loop $-1 $-1 $149 $58 #
plane-surface $-1 0 0 -10.498577695104268 0 0 1 1 0 0 forward_v I I I I #
coedge $-1 $150 $151 $152 $153 forward $59 $-1 #
face $-1 $154 $155 $35 $-1 $156 reversed single #
loop $-1 $-1 $157 $61 #
plane-surface $-1 -27.667615187978868 -15.24773097386899 111.24217138086365 0.73135370988377701 0 0.68199835119979291 0.68199835119979291 0 -0.73135370988377701 forward_v I I I I #
coedge $-1 $158 $159 $160 $161 reversed $62 $-1 #
face $-1 $-1 $162 $36 $-1 $163 forward single #
loop $-1 $164 $165 $64 #
cone-surface $-1 68.103666977825355 -18.280987788838313 2.4446044219034544 -0.73135370988377701 0 -0.68199835119979291 0.68199835119979291 0 -0.73135370988377701 1 I I -0.70710678118654746 0.70710678118654746 1 forward I I I I #
loop $-1 $-1 $166 $47 #
coedge $-1 $104 $104 $167 $168 reversed $65 $-1 #
face $-1 $-1 $169 $37 $-1 $170 forward single #
loop $-1 $171 $172 $67 #
cone-surface $-1 68.103666977825355 -12.214474158899666 2.4446044219034544 -0.73135370988377701 0 -0.68199835119979291 0.68199835119979291 0 -0.73135370988377701 1 I I -0.70710678118654746 0.70710678118654746 1 forward I I I I #
loop $-1 $-1 $173 $48 #
coedge $-1 $109 $109 $174 $175 reversed $68 $-1 #
face $-1 $176 $177 $38 $-1 $178 reversed single #
loop $-1 $-1 $179 $70 #
plane-surface $-1 -76.010620441297647 -12.071956852501881 5.4394266559322944 -0.85716730853699208 0 0.51503806187062418 0.51503806187062418 0 0.85716730853699208 forward_v I I I I #
coedge $-1 $180 $181 $182 $183 reversed $71 $-1 #
face $-1 $-1 $184 $39 $-1 $185 forward single #
loop $-1 $186 $187 $73 #
cone-surface $-1 -72.731016125154696 -14.821902248589883 6.9116785625270918 0.85716730853699208 0 -0.51503806187062418 0.25751903093531209 0 0.42858365426849604 1 I I -0.70710678118654746 0.70710678118654746 0.5 forward I I I I #
loop $-1 $-1 $188 $50 #
coedge $-1 $118 $118 $189 $190 reversed $74 $-1 #
face $-1 $-1 $191 $40 $-1 $192 forward single #
loop $-1 $193 $194 $76 #
cone-surface $-1 -72.731016125154696 -9.322011456413879 6.9116785625270918 0.85716730853699208 0 -0.51503806187062418 0.25751903093531209 0 0.42858365426849604 1 I I -0.70710678118654746 0.70710678118654746 0.5 forward I I I I #
loop $-1 $-1 $195 $51 #
coedge $-1 $123 $123 $196 $197 reversed $77 $-1 #
face $-1 $198 $199 $41 $-1 $200 reversed single #
loop $-1 $-1 $201 $79 #
plane-surface $-1 -76.010620441297647 15.545486993872004 5.4394266559322944 -0.85716730853699208 0 0.51503806187062418 0.51503806187062418 0 0.85716730853699208 forward_v I I I I #
coedge $-1 $202 $203 $204 $205 reversed $80 $-1 #
face $-1 $-1 $206 $42 $-1 $207 forward single #
loop $-1 $208 $209 $82 #
cone-surface $-1 -72.731016125154696 12.795541597784009 6.9116785625270918 0.85716730853699208 0 -0.51503806187062418 0.25751903093531209 0 0.42858365426849604 1 I I -0.70710678118654746 0.70710678118654746 0.5 forward I I I I #
loop $-1 $-1 $210 $53 #
coedge $-1 $132 $132 $211 $212 reversed $83 $-1 #
face $-1 $-1 $213 $43 $-1 $214 forward single #
loop $-1 $215 $216 $85 #
cone-surface $-1 -72.731016125154696 18.295432389960013 6.9116785625270918 0.85716730853699208 0 -0.51503806187062418 0.25751903093531209 0 0.42858365426849604 1 I I -0.70710678118654746 0.70710678118654746 0.5 forward I I I I #
loop $-1 $-1 $217 $54 #
coedge $-1 $137 $137 $218 $219 reversed $86 $-1 #
face $-1 $220 $221 $33 $-1 $222 reversed single #
loop $-1 $-1 $223 $88 #
plane-surface $-1 0 -32.909557483950366 0 0 1 0 0 0 1 forward_v I I I I #
coedge $-1 $224 $225 $226 $227 forward $89 $-1 #
coedge $-1 $228 $91 $229 $230 forward $56 $-1 #
coedge $-1 $91 $228 $231 $232 forward $56 $-1 #
coedge $-1 $233 $234 $91 $145 reversed $235 $-1 #
edge $-1 $236 -32.909557483950366 $237 32.909557483950366 $144 $238 forward 7 unknown #
face $-1 $239 $240 $34 $-1 $241 reversed single #
loop $-1 $-1 $242 $92 #
plane-surface $-1 -67.429758992856264 -43.49378475910332 0 0 1 0 0 0 1 forward_v I I I I #
coedge $-1 $243 $244 $151 $245 forward $93 $-1 #
coedge $-1 $246 $95 $247 $248 reversed $59 $-1 #
coedge $-1 $95 $246 $149 $245 reversed $59 $-1 #
coedge $-1 $249 $250 $95 $153 reversed $240 $-1 #
edge $-1 $251 -10.498577695104268 $252 10.498577695104268 $152 $253 forward 7 unknown #
face $-1 $254 $255 $35 $-1 $256 forward single #
loop $-1 $-1 $257 $96 #
plane-surface $-1 83.513683312642513 -22.325330208797411 214.9204070101402 0 1 0 0.73135370988377701 0 0.68199835119979291 forward_v I I I I #
coedge $-1 $258 $259 $260 $261 reversed $97 $-1 #
coedge $-1 $159 $99 $262 $263 reversed $62 $-1 #
coedge $-1 $99 $158 $258 $264 reversed $62 $-1 #
coedge $-1 $260 $265 $99 $161 forward $255 $-1 #
edge $-1 $266 -34.25377878497639 $267 -24.520461816942898 $160 $268 forward 7 unknown #
loop $-1 $-1 $167 $100 #
plane-surface $-1 -27.667615187978868 -15.24773097386899 111.24217138086365 0.73135370988377701 0 0.68199835119979291 0.68199835119979291 0 -0.73135370988377701 forward_v I I I I #
loop $-1 $-1 $269 $64 #
coedge $-1 $165 $165 $166 $270 reversed $101 $-1 #
coedge $-1 $166 $166 $165 $270 forward $103 $-1 #
coedge $-1 $167 $167 $104 $168 forward $162 $-1 #
edge $-1 $271 0 $271 6.2831853071796004 $167 $272 forward 7 unknown #
loop $-1 $-1 $174 $105 #
plane-surface $-1 -27.667615187978868 -15.24773097386899 111.24217138086365 0.73135370988377701 0 0.68199835119979291 0.68199835119979291 0 -0.73135370988377701 forward_v I I I I #
loop $-1 $-1 $273 $67 #
coedge $-1 $172 $172 $173 $274 reversed $106 $-1 #
coedge $-1 $173 $173 $172 $274 forward $108 $-1 #
coedge $-1 $174 $174 $109 $175 forward $169 $-1 #
edge $-1 $275 0 $275 6.2831853071796004 $174 $276 forward 7 unknown #
face $-1 $277 $278 $38 $-1 $279 reversed single #
loop $-1 $-1 $280 $110 #
plane-surface $-1 -206.31825832908561 -5.6554175949632102 83.736151923271464 0 -1 0 0.85716730853699208 0 -0.51503806187062418 forward_v I I I I #
coedge $-1 $281 $282 $283 $284 reversed $111 $-1 #
coedge $-1 $181 $113 $285 $286 reversed $71 $-1 #
coedge $-1 $113 $180 $281 $287 reversed $71 $-1 #
coedge $-1 $283 $288 $113 $183 forward $289 $-1 #
edge $-1 $290 27.148508723245158 $291 30.188353243649473 $182 $292 forward 7 unknown #
loop $-1 $-1 $189 $114 #
plane-surface $-1 -76.010620441297647 -12.071956852501881 5.4394266559322944 -0.85716730853699208 0 0.51503806187062418 0.51503806187062418 0 0.85716730853699208 forward_v I I I I #
loop $-1 $-1 $293 $73 #
coedge $-1 $187 $187 $188 $294 reversed $115 $-1 #
coedge $-1 $188 $188 $187 $294 forward $117 $-1 #
coedge $-1 $189 $189 $118 $190 forward $184 $-1 #
edge $-1 $295 0 $295 6.2831853071796004 $189 $296 forward 7 unknown #
loop $-1 $-1 $196 $119 #
plane-surface $-1 -76.010620441297647 -12.071956852501881 5.4394266559322944 -0.85716730853699208 0 0.51503806187062418 0.51503806187062418 0 0.85716730853699208 forward_v I I I I #
loop $-1 $-1 $297 $76 #
coedge $-1 $194 $194 $195 $298 reversed $120 $-1 #
coedge $-1 $195 $195 $194 $298 forward $122 $-1 #
coedge $-1 $196 $196 $123 $197 forward $191 $-1 #
edge $-1 $299 0 $299 6.2831853071796004 $196 $300 forward 7 unknown #
face $-1 $301 $302 $41 $-1 $303 forward single #
loop $-1 $-1 $304 $124 #
plane-surface $-1 -206.31825832908561 21.962026251410673 83.736151923271464 0 -1 0 0.85716730853699208 0 -0.51503806187062418 forward_v I I I I #
coedge $-1 $305 $306 $307 $308 reversed $125 $-1 #
coedge $-1 $203 $127 $309 $310 reversed $80 $-1 #
coedge $-1 $127 $202 $305 $311 reversed $80 $-1 #
coedge $-1 $307 $312 $127 $205 forward $302 $-1 #
edge $-1 $313 27.148508723245158 $314 30.188353243649473 $204 $315 forward 7 unknown #
loop $-1 $-1 $211 $128 #
plane-surface $-1 -76.010620441297647 15.545486993872004 5.4394266559322944 -0.85716730853699208 0 0.51503806187062418 0.51503806187062418 0 0.85716730853699208 forward_v I I I I #
loop $-1 $-1 $316 $82 #
coedge $-1 $209 $209 $210 $317 reversed $129 $-1 #
coedge $-1 $210 $210 $209 $317 forward $131 $-1 #
coedge $-1 $211 $211 $132 $212 forward $206 $-1 #
edge $-1 $318 0 $318 6.2831853071796004 $211 $319 forward 7 unknown #
loop $-1 $-1 $218 $133 #
plane-surface $-1 -76.010620441297647 15.545486993872004 5.4394266559322944 -0.85716730853699208 0 0.51503806187062418 0.51503806187062418 0 0.85716730853699208 forward_v I I I I #
loop $-1 $-1 $320 $85 #
coedge $-1 $216 $216 $217 $321 reversed $134 $-1 #
coedge $-1 $217 $217 $216 $321 forward $136 $-1 #
coedge $-1 $218 $218 $137 $219 forward $213 $-1 #
edge $-1 $322 0 $322 6.2831853071796004 $218 $323 forward 7 unknown #
face $-1 $324 $325 $33 $-1 $326 reversed single #
loop $-1 $-1 $327 $138 #
plane-surface $-1 -76.010620441297647 0 0 1 0 0 0 0 -1 forward_v I I I I #
coedge $-1 $328 $231 $329 $330 forward $139 $-1 #
coedge $-1 $331 $141 $328 $332 forward $89 $-1 #
coedge $-1 $141 $331 $333 $334 forward $89 $-1 #
coedge $-1 $234 $233 $141 $227 reversed $235 $-1 #
edge $-1 $335 -32.909557483950366 $336 32.909557483950366 $226 $337 forward 7 unknown #
coedge $-1 $143 $142 $338 $339 forward $56 $-1 #
coedge $-1 $340 $341 $142 $230 reversed $325 $-1 #
edge $-1 $237 -76.010620441297647 $342 76.010620441297647 $229 $343 forward 7 unknown #
coedge $-1 $223 $344 $143 $232 reversed $139 $-1 #
edge $-1 $345 -76.010620441297647 $236 76.010620441297647 $231 $346 forward 7 unknown #
coedge $-1 $226 $144 $344 $347 forward $235 $-1 #
coedge $-1 $144 $226 $340 $348 reversed $235 $-1 #
loop $-1 $-1 $233 $324 #
vertex $-1 $145 $349 #
vertex $-1 $145 $350 #
straight-curve $-1 76.010620441297647 0 10.498577695104268 0 1 0 I I #
face $-1 $351 $352 $34 $-1 $353 reversed single #
loop $-1 $-1 $152 $146 #
plane-surface $-1 -69.259857138449888 -38.201671121526843 0 1 0 0 0 0 -1 forward_v I I I I #
coedge $-1 $354 $355 $356 $357 forward $147 $-1 #
coedge $-1 $358 $149 $359 $360 forward $93 $-1 #
coedge $-1 $149 $358 $249 $361 forward $93 $-1 #
edge $-1 $251 -69.259857138449888 $362 -65.599660847262641 $149 $363 forward 7 unknown #
coedge $-1 $151 $150 $364 $365 forward $59 $-1 #
coedge $-1 $366 $367 $150 $248 forward $368 $-1 #
edge $-1 $369 65.599660847262641 $252 69.259857138449888 $247 $370 forward 7 unknown #
coedge $-1 $356 $152 $244 $361 reversed $240 $-1 #
coedge $-1 $152 $356 $366 $371 reversed $240 $-1 #
vertex $-1 $245 $372 #
vertex $-1 $371 $373 #
straight-curve $-1 -69.259857138449888 -32.909557483950366 0 0 0 1 I I #
face $-1 $-1 $374 $35 $-1 $375 reversed single #
loop $-1 $-1 $160 $154 #
plane-surface $-1 0 0 10.498577695104268 0 0 1 1 0 0 forward_v I I I I #
coedge $-1 $376 $377 $378 $379 reversed $155 $-1 #
coedge $-1 $380 $157 $159 $264 forward $97 $-1 #
coedge $-1 $157 $380 $376 $381 forward $97 $-1 #
coedge $-1 $378 $160 $157 $261 forward $255 $-1 #
edge $-1 $267 0.54626625200607393 $382 14.701464721862916 $260 $383 forward 7 unknown #
coedge $-1 $384 $385 $158 $263 forward $374 $-1 #
edge $-1 $386 -107.3993306248278 $266 -96.961625809965824 $262 $387 forward 7 unknown #
edge $-1 $267 137.74948061967038 $386 152.02124088259524 $159 $388 forward 7 unknown #
coedge $-1 $160 $378 $384 $389 forward $255 $-1 #
vertex $-1 $161 $390 #
vertex $-1 $161 $391 #
straight-curve $-1 41.756841656321257 -8.1701317389405688 10.498577695104274 -1 0 0 I I #
coedge $-1 $269 $269 $-1 $392 reversed $164 $-1 #
edge $-1 $393 0 $393 6.2831853071796004 $165 $394 forward 7 unknown #
vertex $-1 $168 $395 #
ellipse-curve $-1 71.143961957280894 -18.280987788838313 5.2797252876733056 0.73135370988377701 0 0.68199835119979291 1.3639967023995858 0 -1.462707419767554 1 I I #
coedge $-1 $273 $273 $-1 $396 reversed $171 $-1 #
edge $-1 $397 0 $397 6.2831853071796004 $172 $398 forward 7 unknown #
vertex $-1 $175 $399 #
ellipse-curve $-1 71.143961957280894 -12.214474158899666 5.2797252876733056 0.73135370988377701 0 0.68199835119979291 1.3639967023995858 0 -1.462707419767554 1 I I #
face $-1 $-1 $289 $38 $-1 $400 forward single #
loop $-1 $-1 $401 $176 #
plane-surface $-1 -76.010620441297647 0 0 1 0 0 0 0 -1 forward_v I I I I #
coedge $-1 $402 $403 $404 $405 reversed $177 $-1 #
coedge $-1 $406 $179 $181 $287 forward $111 $-1 #
coedge $-1 $179 $406 $402 $407 forward $111 $-1 #
coedge $-1 $404 $182 $179 $284 forward $289 $-1 #
edge $-1 $291 -12.45251768378961 $408 0.38056083128773022 $283 $409 forward 7 unknown #
coedge $-1 $410 $411 $180 $286 forward $278 $-1 #
edge $-1 $412 -36.428649305703438 $290 -31.369498266531465 $285 $413 forward 7 unknown #
edge $-1 $291 -5.9021745099062448 $412 0 $181 $414 forward 7 unknown #
coedge $-1 $182 $404 $410 $415 forward $289 $-1 #
loop $-1 $-1 $404 $277 #
vertex $-1 $286 $416 #
vertex $-1 $183 $417 #
straight-curve $-1 -103.1591291645428 -18.48849611004055 10.498577695104267 1 0 0 I I #
coedge $-1 $293 $293 $-1 $418 reversed $186 $-1 #
edge $-1 $419 0 $419 6.2831853071796004 $187 $420 forward 7 unknown #
vertex $-1 $190 $421 #
ellipse-curve $-1 -74.490698181095496 -14.821902248589883 7.9690021755182787 -0.85716730853699208 0 0.51503806187062418 0.51503806187062418 0 0.85716730853699208 1 I I #
coedge $-1 $297 $297 $-1 $422 reversed $193 $-1 #
edge $-1 $423 0 $423 6.2831853071796004 $194 $424 forward 7 unknown #
vertex $-1 $197 $425 #
ellipse-curve $-1 -74.490698181095496 -9.322011456413879 7.9690021755182787 -0.85716730853699208 0 0.51503806187062418 0.51503806187062418 0 0.85716730853699208 1 I I #
face $-1 $-1 $426 $41 $-1 $427 reversed single #
loop $-1 $-1 $204 $198 #
plane-surface $-1 0 0 10.498577695104268 0 0 1 1 0 0 forward_v I I I I #
coedge $-1 $428 $429 $430 $431 reversed $199 $-1 #
coedge $-1 $432 $201 $203 $311 forward $125 $-1 #
coedge $-1 $201 $432 $428 $433 forward $125 $-1 #
coedge $-1 $430 $204 $201 $308 forward $302 $-1 #
edge $-1 $314 1.3562042393973321 $434 14.189282754474672 $307 $435 forward 7 unknown #
coedge $-1 $436 $437 $202 $310 forward $426 $-1 #
edge $-1 $438 -36.428649305703438 $313 -31.369498266531465 $309 $439 forward 7 unknown #
edge $-1 $314 -5.9021745099062448 $438 0 $203 $440 forward 7 unknown #
coedge $-1 $204 $430 $436 $441 forward $302 $-1 #
vertex $-1 $310 $442 #
vertex $-1 $205 $443 #
straight-curve $-1 -103.1591291645428 9.128947736333334 10.498577695104267 1 0 0 I I #
coedge $-1 $316 $316 $-1 $444 reversed $208 $-1 #
edge $-1 $445 0 $445 6.2831853071796004 $209 $446 forward 7 unknown #
vertex $-1 $212 $447 #
ellipse-curve $-1 -74.490698181095496 12.795541597784009 7.9690021755182787 -0.85716730853699208 0 0.51503806187062418 0.51503806187062418 0 0.85716730853699208 1 I I #
coedge $-1 $320 $320 $-1 $448 reversed $215 $-1 #
edge $-1 $449 0 $449 6.2831853071796004 $216 $450 forward 7 unknown #
vertex $-1 $219 $451 #
ellipse-curve $-1 -74.490698181095496 18.295432389960013 7.9690021755182787 -0.85716730853699208 0 0.51503806187062418 0.51503806187062418 0 0.85716730853699208 1 I I #
face $-1 $-1 $235 $33 $-1 $452 reversed single #
loop $-1 $-1 $340 $220 #
plane-surface $-1 0 32.909557483950366 0 0 -1 0 0 0 -1 forward_v I I I I #
coedge $-1 $453 $338 $341 $454 forward $221 $-1 #
coedge $-1 $344 $223 $224 $332 reversed $139 $-1 #
coedge $-1 $338 $453 $223 $330 reversed $221 $-1 #
edge $-1 $345 -10.498577695104268 $455 10.498577695104268 $329 $456 forward 7 unknown #
coedge $-1 $225 $224 $453 $457 forward $89 $-1 #
edge $-1 $336 -76.010620441297647 $455 76.010620441297647 $328 $458 forward 7 unknown #
coedge $-1 $341 $340 $225 $334 reversed $325 $-1 #
edge $-1 $459 -76.010620441297647 $335 76.010620441297647 $333 $460 forward 7 unknown #
vertex $-1 $227 $461 #
vertex $-1 $347 $462 #
straight-curve $-1 76.010620441297647 0 -10.498577695104268 0 -1 0 I I #
coedge $-1 $327 $329 $228 $339 reversed $221 $-1 #
edge $-1 $342 -32.909557483950366 $345 32.909557483950366 $338 $463 forward 7 unknown #
coedge $-1 $333 $229 $234 $348 forward $325 $-1 #
coedge $-1 $229 $333 $327 $454 reversed $325 $-1 #
vertex $-1 $230 $464 #
straight-curve $-1 0 32.909557483950366 10.498577695104268 -1 0 0 I I #
coedge $-1 $231 $328 $233 $347 reversed $139 $-1 #
vertex $-1 $339 $465 #
straight-curve $-1 0 -32.909557483950366 10.498577695104268 1 0 0 I I #
edge $-1 $236 -10.498577695104268 $336 10.498577695104268 $233 $466 forward 7 unknown #
edge $-1 $237 -10.498577695104268 $335 10.498577695104268 $234 $467 forward 7 unknown #
point $-1 76.010620441297647 -32.909557483950366 10.498577695104268 #
point $-1 76.010620441297647 32.909557483950366 10.498577695104268 #
face $-1 $-1 $368 $34 $-1 $468 forward single #
loop $-1 $-1 $469 $239 #
plane-surface $-1 -65.599660847262641 -38.201671121526843 0 -1 0 0 0 0 1 forward_v I I I I #
coedge $-1 $470 $242 $358 $471 reversed $147 $-1 #
coedge $-1 $242 $470 $472 $473 reversed $147 $-1 #
coedge $-1 $250 $249 $242 $357 reversed $240 $-1 #
edge $-1 $474 -10.498577695104268 $475 10.498577695104268 $356 $476 forward 7 unknown #
coedge $-1 $244 $243 $354 $471 forward $93 $-1 #
coedge $-1 $364 $469 $243 $360 reversed $352 $-1 #
edge $-1 $362 -5.2921136375764775 $477 5.2921136375764775 $359 $478 forward 7 unknown #
edge $-1 $475 -5.2921136375764775 $251 5.2921136375764775 $249 $479 forward 7 unknown #
vertex $-1 $360 $480 #
straight-curve $-1 0 -32.909557483950366 -10.498577695104268 1 0 0 I I #
coedge $-1 $481 $359 $246 $365 reversed $352 $-1 #
edge $-1 $369 -10.498577695104268 $362 10.498577695104268 $364 $482 forward 7 unknown #
coedge $-1 $472 $247 $250 $371 forward $368 $-1 #
coedge $-1 $247 $472 $481 $483 forward $368 $-1 #
loop $-1 $-1 $247 $351 #
vertex $-1 $248 $484 #
straight-curve $-1 0 -32.909557483950366 10.498577695104268 -1 0 0 I I #
edge $-1 $252 -5.2921136375764775 $474 5.2921136375764775 $250 $485 forward 7 unknown #
point $-1 -69.259857138449888 -32.909557483950366 -10.498577695104268 #
point $-1 -69.259857138449888 -32.909557483950366 10.498577695104268 #
loop $-1 $-1 $262 $254 #
plane-surface $-1 76.010620441297647 0 0 -1 0 0 0 0 1 forward_v I I I I #
coedge $-1 $377 $257 $259 $381 reversed $155 $-1 #
coedge $-1 $257 $376 $486 $487 reversed $155 $-1 #
coedge $-1 $265 $260 $257 $379 forward $255 $-1 #
edge $-1 $382 24.520461816942898 $488 34.25377878497639 $378 $489 forward 7 unknown #
coedge $-1 $259 $258 $385 $490 reversed $97 $-1 #
edge $-1 $491 -152.02124088259524 $382 -137.74948061967038 $376 $492 forward 7 unknown #
vertex $-1 $261 $493 #
straight-curve $-1 66.277303473264169 -7.6238654869344948 10.498577695104274 0 -1 0 I I #
coedge $-1 $486 $262 $265 $389 reversed $374 $-1 #
coedge $-1 $262 $486 $380 $490 forward $374 $-1 #
vertex $-1 $263 $494 #
straight-curve $-1 76.010620441297647 -8.1701317389405688 107.4602035050701 0 0 1 I I #
straight-curve $-1 -27.667615187978868 -8.1701317389405688 111.24217138086365 0.68199835119979291 0 -0.73135370988377701 I I #
edge $-1 $488 -22.325330208797411 $266 -8.1701317389405688 $384 $495 forward 7 unknown #
point $-1 76.010620441297647 -8.1701317389405688 10.498577695104268 #
point $-1 66.277303473264155 -8.1701317389405688 10.498577695104274 #
edge $-1 $496 1 $496 0 $269 $-1 forward 7 unknown #
vertex $-1 $270 $497 #
ellipse-curve $-1 68.835020687709132 -18.280987788838313 3.1266027731032473 0.73135370988377701 0 0.68199835119979291 1.3639967023995858 0 -1.462707419767554 1 I I #
point $-1 72.507958659680455 -18.280987788838313 3.8170178679057241 #
edge $-1 $498 1 $498 0 $273 $-1 forward 7 unknown #
vertex $-1 $274 $499 #
ellipse-curve $-1 68.835020687709132 -12.214474158899666 3.1266027731032473 0.73135370988377701 0 0.68199835119979291 1.3639967023995858 0 -1.462707419767554 1 I I #
point $-1 72.507958659680455 -12.214474158899666 3.8170178679057241 #
plane-surface $-1 0 0 10.498577695104268 0 0 1 1 0 0 forward_v I I I I #
coedge $-1 $411 $410 $403 $500 forward $278 $-1 #
coedge $-1 $403 $280 $282 $407 reversed $177 $-1 #
coedge $-1 $280 $402 $401 $500 reversed $177 $-1 #
coedge $-1 $288 $283 $280 $405 forward $289 $-1 #
edge $-1 $408 -30.188353243649473 $501 -27.148508723245158 $404 $502 forward 7 unknown #
coedge $-1 $282 $281 $411 $503 reversed $111 $-1 #
edge $-1 $504 0 $408 5.9021745099062448 $402 $505 forward 7 unknown #
vertex $-1 $284 $506 #
straight-curve $-1 -72.970775920893331 -6.0359784262509404 10.498577695104268 0 1 0 I I #
coedge $-1 $401 $285 $288 $415 reversed $278 $-1 #
coedge $-1 $285 $401 $406 $503 forward $278 $-1 #
vertex $-1 $286 $507 #
straight-curve $-1 -76.010620441297647 -18.48849611004055 41.868075961635732 0 0 1 I I #
straight-curve $-1 -76.010620441297647 -18.48849611004055 5.4394266559322944 -0.51503806187062418 0 -0.85716730853699208 I I #
edge $-1 $501 5.6554175949632102 $290 18.48849611004055 $410 $508 forward 7 unknown #
point $-1 -76.010620441297647 -18.48849611004055 10.498577695104268 #
point $-1 -72.970775920893331 -18.48849611004055 10.498577695104268 #
edge $-1 $509 1 $509 0 $293 $-1 forward 7 unknown #
vertex $-1 $294 $510 #
ellipse-curve $-1 -73.159599779423189 -14.821902248589883 7.1691975934624041 -0.85716730853699208 0 0.51503806187062418 0.51503806187062418 0 0.85716730853699208 1 I I #
point $-1 -73.97566011922487 -14.821902248589883 8.8261694840552707 #
edge $-1 $511 1 $511 0 $297 $-1 forward 7 unknown #
vertex $-1 $298 $512 #
ellipse-curve $-1 -73.159599779423189 -9.322011456413879 7.1691975934624041 -0.85716730853699208 0 0.51503806187062418 0.51503806187062418 0 0.85716730853699208 1 I I #
point $-1 -73.97566011922487 -9.322011456413879 8.8261694840552707 #
loop $-1 $-1 $309 $301 #
plane-surface $-1 -76.010620441297647 0 0 1 0 0 0 0 -1 forward_v I I I I #
coedge $-1 $429 $304 $306 $433 reversed $199 $-1 #
coedge $-1 $304 $428 $513 $514 reversed $199 $-1 #
coedge $-1 $312 $307 $304 $431 forward $302 $-1 #
edge $-1 $434 -30.188353243649473 $515 -27.148508723245158 $430 $516 forward 7 unknown #
coedge $-1 $306 $305 $437 $517 reversed $125 $-1 #
edge $-1 $518 0 $434 5.9021745099062448 $428 $519 forward 7 unknown #
vertex $-1 $308 $520 #
straight-curve $-1 -72.970775920893331 7.7727434969360019 10.498577695104268 0 1 0 I I #
coedge $-1 $513 $309 $312 $441 reversed $426 $-1 #
coedge $-1 $309 $513 $432 $517 forward $426 $-1 #
vertex $-1 $310 $521 #
straight-curve $-1 -76.010620441297647 9.128947736333334 41.868075961635732 0 0 1 I I #
straight-curve $-1 -76.010620441297647 9.128947736333334 5.4394266559322944 -0.51503806187062418 0 -0.85716730853699208 I I #
edge $-1 $515 -21.962026251410673 $313 -9.128947736333334 $436 $522 forward 7 unknown #
point $-1 -76.010620441297647 9.128947736333334 10.498577695104268 #
point $-1 -72.970775920893331 9.128947736333334 10.498577695104268 #
edge $-1 $523 1 $523 0 $316 $-1 forward 7 unknown #
vertex $-1 $317 $524 #
ellipse-curve $-1 -73.159599779423189 12.795541597784009 7.1691975934624041 -0.85716730853699208 0 0.51503806187062418 0.51503806187062418 0 0.85716730853699208 1 I I #
point $-1 -73.97566011922487 12.795541597784009 8.8261694840552707 #
edge $-1 $525 1 $525 0 $320 $-1 forward 7 unknown #
vertex $-1 $321 $526 #
ellipse-curve $-1 -73.159599779423189 18.295432389960013 7.1691975934624041 -0.85716730853699208 0 0.51503806187062418 0.51503806187062418 0 0.85716730853699208 1 I I #
point $-1 -73.97566011922487 18.295432389960013 8.8261694840552707 #
plane-surface $-1 76.010620441297647 0 0 -1 0 0 0 0 1 forward_v I I I I #
coedge $-1 $329 $327 $331 $457 reversed $221 $-1 #
edge $-1 $342 -10.498577695104268 $459 10.498577695104268 $341 $527 forward 7 unknown #
vertex $-1 $457 $528 #
straight-curve $-1 -76.010620441297647 -32.909557483950366 0 0 0 -1 I I #
edge $-1 $455 -32.909557483950366 $459 32.909557483950366 $453 $529 forward 7 unknown #
straight-curve $-1 0 -32.909557483950366 -10.498577695104268 -1 0 0 I I #
vertex $-1 $334 $530 #
straight-curve $-1 0 32.909557483950366 -10.498577695104268 1 0 0 I I #
point $-1 76.010620441297647 32.909557483950366 -10.498577695104268 #
point $-1 76.010620441297647 -32.909557483950366 -10.498577695104268 #
straight-curve $-1 -76.010620441297647 0 10.498577695104268 0 -1 0 I I #
point $-1 -76.010620441297647 32.909557483950366 10.498577695104268 #
point $-1 -76.010620441297647 -32.909557483950366 10.498577695104268 #
straight-curve $-1 76.010620441297647 -32.909557483950366 0 0 0 -1 I I #
straight-curve $-1 76.010620441297647 32.909557483950366 0 0 0 -1 I I #
plane-surface $-1 0 0 10.498577695104268 0 0 1 1 0 0 forward_v I I I I #
coedge $-1 $359 $481 $470 $531 forward $352 $-1 #
coedge $-1 $355 $354 $469 $531 reversed $147 $-1 #
edge $-1 $477 -1.8300981455936238 $475 1.8300981455936238 $354 $532 forward 7 unknown #
coedge $-1 $367 $366 $355 $473 forward $368 $-1 #
edge $-1 $474 -1.8300981455936238 $533 1.8300981455936238 $355 $534 forward 7 unknown #
vertex $-1 $371 $535 #
vertex $-1 $361 $536 #
straight-curve $-1 -69.259857138449888 -43.49378475910332 0 0 0 -1 I I #
vertex $-1 $531 $537 #
straight-curve $-1 -65.599660847262641 -38.201671121526843 -10.498577695104268 0 -1 0 I I #
straight-curve $-1 -69.259857138449888 -38.201671121526843 -10.498577695104268 0 1 0 I I #
point $-1 -65.599660847262641 -32.909557483950366 -10.498577695104268 #
coedge $-1 $469 $364 $367 $483 reversed $352 $-1 #
straight-curve $-1 -65.599660847262641 -32.909557483950366 0 0 0 -1 I I #
edge $-1 $533 -5.2921136375764775 $369 5.2921136375764775 $481 $538 forward 7 unknown #
point $-1 -65.599660847262641 -32.909557483950366 10.498577695104268 #
straight-curve $-1 -69.259857138449888 -38.201671121526843 10.498577695104268 0 -1 0 I I #
coedge $-1 $385 $384 $377 $487 forward $374 $-1 #
edge $-1 $488 96.961625809965824 $491 107.3993306248278 $486 $539 forward 7 unknown #
vertex $-1 $389 $540 #
straight-curve $-1 41.756841656321257 -22.325330208797411 10.498577695104274 1 0 0 I I #
edge $-1 $491 -14.701464721862916 $386 -0.54626625200607393 $385 $541 forward 7 unknown #
vertex $-1 $490 $542 #
straight-curve $-1 -27.667615187978868 -22.325330208797411 111.24217138086365 -0.68199835119979291 0 0.73135370988377701 I I #
point $-1 66.277303473264155 -22.325330208797411 10.498577695104274 #
point $-1 76.010620441297647 -8.1701317389405688 0.060872880242300198 #
straight-curve $-1 76.010620441297647 0 10.498577695104268 0 1 0 I I #
vertex $-1 $392 $543 #
point $-1 70.199017390108722 -18.280987788838313 1.6638953533356933 #
vertex $-1 $396 $544 #
point $-1 70.199017390108722 -12.214474158899666 1.6638953533356933 #
edge $-1 $501 31.369498266531465 $504 36.428649305703438 $401 $545 forward 7 unknown #
vertex $-1 $415 $546 #
straight-curve $-1 -103.1591291645428 -5.6554175949632102 10.498577695104267 -1 0 0 I I #
edge $-1 $504 -0.38056083128773022 $412 12.45251768378961 $411 $547 forward 7 unknown #
vertex $-1 $503 $548 #
straight-curve $-1 -76.010620441297647 -5.6554175949632102 5.4394266559322944 0.51503806187062418 0 0.85716730853699208 I I #
point $-1 -72.970775920893331 -5.6554175949632102 10.498577695104268 #
point $-1 -76.010620441297647 -18.48849611004055 5.4394266559322944 #
straight-curve $-1 -76.010620441297647 0 10.498577695104268 0 -1 0 I I #
vertex $-1 $418 $549 #
point $-1 -72.644561717552563 -14.821902248589883 8.0263649019993952 #
vertex $-1 $422 $550 #
point $-1 -72.644561717552563 -9.322011456413879 8.0263649019993952 #
coedge $-1 $437 $436 $429 $514 forward $426 $-1 #
edge $-1 $515 31.369498266531465 $518 36.428649305703438 $513 $551 forward 7 unknown #
vertex $-1 $441 $552 #
straight-curve $-1 -103.1591291645428 21.962026251410673 10.498577695104267 -1 0 0 I I #
edge $-1 $518 -14.189282754474672 $438 -1.3562042393973321 $437 $553 forward 7 unknown #
vertex $-1 $517 $554 #
straight-curve $-1 -76.010620441297647 21.962026251410673 5.4394266559322944 0.51503806187062418 0 0.85716730853699208 I I #
point $-1 -72.970775920893331 21.962026251410673 10.498577695104268 #
point $-1 -76.010620441297647 9.128947736333334 5.4394266559322944 #
straight-curve $-1 -76.010620441297647 0 10.498577695104268 0 -1 0 I I #
vertex $-1 $444 $555 #
point $-1 -72.644561717552563 12.795541597784009 8.0263649019993952 #
vertex $-1 $448 $556 #
point $-1 -72.644561717552563 18.295432389960013 8.0263649019993952 #
straight-curve $-1 -76.010620441297647 32.909557483950366 0 0 0 -1 I I #
point $-1 -76.010620441297647 -32.909557483950366 -10.498577695104268 #
straight-curve $-1 -76.010620441297647 0 -10.498577695104268 0 1 0 I I #
point $-1 -76.010620441297647 32.909557483950366 -10.498577695104268 #
edge $-1 $533 -10.498577695104268 $477 10.498577695104268 $469 $557 forward 7 unknown #
straight-curve $-1 -67.429758992856264 -43.49378475910332 -10.498577695104268 -1 0 0 I I #
vertex $-1 $483 $558 #
straight-curve $-1 -67.429758992856264 -43.49378475910332 10.498577695104268 1 0 0 I I #
point $-1 -69.259857138449888 -43.49378475910332 10.498577695104268 #
point $-1 -69.259857138449888 -43.49378475910332 -10.498577695104268 #
point $-1 -65.599660847262641 -43.49378475910332 -10.498577695104268 #
straight-curve $-1 -65.599660847262641 -38.201671121526843 10.498577695104268 0 1 0 I I #
straight-curve $-1 76.010620441297647 -22.325330208797411 107.4602035050701 0 0 -1 I I #
point $-1 76.010620441297647 -22.325330208797411 10.498577695104268 #
straight-curve $-1 76.010620441297647 -7.6238654869344948 0.060872880242307303 0 1 0 I I #
point $-1 76.010620441297647 -22.325330208797411 0.060872880242300198 #
point $-1 67.372313267941578 -18.280987788838313 1.7626060707036615 #
point $-1 67.372313267941578 -12.214474158899666 1.7626060707036615 #
straight-curve $-1 -76.010620441297647 -5.6554175949632102 41.868075961635732 0 0 -1 I I #
point $-1 -76.010620441297647 -5.6554175949632102 10.498577695104268 #
straight-curve $-1 -76.010620441297647 -6.0359784262509404 5.4394266559323015 0 -1 0 I I #
point $-1 -76.010620441297647 -5.6554175949632102 5.4394266559322944 #
point $-1 -72.302432470886203 -14.821902248589883 6.6541595315917794 #
point $-1 -72.302432470886203 -9.322011456413879 6.6541595315917794 #
straight-curve $-1 -76.010620441297647 21.962026251410673 41.868075961635732 0 0 -1 I I #
point $-1 -76.010620441297647 21.962026251410673 10.498577695104268 #
straight-curve $-1 -76.010620441297647 7.7727434969360019 5.4394266559323015 0 -1 0 I I #
point $-1 -76.010620441297647 21.962026251410673 5.4394266559322944 #
point $-1 -72.302432470886203 12.795541597784009 6.6541595315917794 #
point $-1 -72.302432470886203 18.295432389960013 6.6541595315917794 #
straight-curve $-1 -65.599660847262641 -43.49378475910332 0 0 0 -1 I I #
point $-1 -65.599660847262641 -43.49378475910332 10.498577695104268 #
End-of-ACIS-data 