500 0 12 0           
7 Unknown 11 ACIS 5.0 NT 24 Thu Mar 25 15:12:28 1999 
-1 9.9999999999999995e-007 1e-010 
body $-1 $12 $-1 $13 #
body $-1 $14 $-1 $15 #
body $-1 $16 $-1 $17 #
body $-1 $18 $-1 $19 #
body $-1 $20 $-1 $21 #
body $-1 $22 $-1 $23 #
body $-1 $24 $-1 $25 #
body $-1 $26 $-1 $27 #
body $-1 $28 $-1 $29 #
body $-1 $30 $-1 $31 #
body $-1 $32 $-1 $33 #
body $-1 $34 $-1 $35 #
lump $-1 $-1 $36 $0 #
transform $-1 1 0 0 0 1 0 0 0 1 54.928434095278789 33.319316220831624 7.9560836809909601 1 rotate no_reflect no_shear #
lump $-1 $-1 $37 $1 #
transform $-1 1 0 0 0 1 0 0 0 1 54.928434095278789 33.319316220831624 7.9560836809909601 1 rotate no_reflect no_shear #
lump $-1 $-1 $38 $2 #
transform $-1 1 0 0 0 1 0 0 0 1 54.928434095278789 33.319316220831624 7.9560836809909601 1 rotate no_reflect no_shear #
lump $-1 $-1 $39 $3 #
transform $-1 1 0 0 0 1 0 0 0 1 54.928434095278789 33.319316220831624 7.9560836809909601 1 rotate no_reflect no_shear #
lump $-1 $-1 $40 $4 #
transform $-1 1 0 0 0 1 0 0 0 1 54.928434095278789 33.319316220831624 7.9560836809909601 1 rotate no_reflect no_shear #
lump $-1 $-1 $41 $5 #
transform $-1 1 0 0 0 1 0 0 0 1 54.928434095278789 33.319316220831624 7.9560836809909601 1 rotate no_reflect no_shear #
lump $-1 $-1 $42 $6 #
transform $-1 1 0 0 0 1 0 0 0 1 54.928434095278789 33.319316220831624 7.9560836809909601 1 rotate no_reflect no_shear #
lump $-1 $-1 $43 $7 #
transform $-1 1 0 0 0 1 0 0 0 1 54.928434095278789 33.319316220831624 7.9560836809909601 1 rotate no_reflect no_shear #
lump $-1 $-1 $44 $8 #
transform $-1 1 0 0 0 1 0 0 0 1 54.928434095278789 33.319316220831624 7.9560836809909601 1 rotate no_reflect no_shear #
lump $-1 $-1 $45 $9 #
transform $-1 1 0 0 0 1 0 0 0 1 54.928434095278789 33.319316220831624 7.9560836809909601 1 rotate no_reflect no_shear #
lump $-1 $-1 $46 $10 #
transform $-1 1 0 0 0 1 0 0 0 1 54.928434095278789 33.319316220831624 7.9560836809909601 1 rotate no_reflect no_shear #
lump $-1 $-1 $47 $11 #
transform $-1 1 0 0 0 1 0 0 0 1 54.928434095278789 33.319316220831624 7.9560836809909601 1 rotate no_reflect no_shear #
shell $-1 $-1 $-1 $48 $-1 $12 #
shell $-1 $-1 $-1 $49 $-1 $14 #
shell $-1 $-1 $-1 $50 $-1 $16 #
shell $-1 $-1 $-1 $51 $-1 $18 #
shell $-1 $-1 $-1 $52 $-1 $20 #
shell $-1 $-1 $-1 $53 $-1 $22 #
shell $-1 $-1 $-1 $54 $-1 $24 #
shell $-1 $-1 $-1 $55 $-1 $26 #
shell $-1 $-1 $-1 $56 $-1 $28 #
shell $-1 $-1 $-1 $57 $-1 $30 #
shell $-1 $-1 $-1 $58 $-1 $32 #
shell $-1 $-1 $-1 $59 $-1 $34 #
face $-1 $60 $61 $36 $-1 $62 forward single #
face $-1 $63 $64 $37 $-1 $65 forward single #
face $-1 $66 $67 $38 $-1 $68 reversed single #
face $-1 $69 $70 $39 $-1 $71 forward single #
face $-1 $72 $73 $40 $-1 $74 reversed single #
face $-1 $75 $76 $41 $-1 $77 forward single #
face $-1 $78 $79 $42 $-1 $80 reversed single #
face $-1 $81 $82 $43 $-1 $83 forward single #
face $-1 $84 $85 $44 $-1 $86 reversed single #
face $-1 $87 $88 $45 $-1 $89 forward single #
face $-1 $90 $91 $46 $-1 $92 reversed single #
face $-1 $93 $94 $47 $-1 $95 forward single #
face $-1 $96 $97 $36 $-1 $98 reversed single #
loop $-1 $-1 $99 $48 #
plane-surface $-1 0 0 7.9560836809909601 0 0 1 1 0 0 forward_v I I I I #
face $-1 $100 $101 $37 $-1 $102 reversed single #
loop $-1 $-1 $103 $49 #
plane-surface $-1 0 -30.210805587775969 -4.444936988363076 0 0 1 1 0 0 forward_v I I I I #
face $-1 $104 $105 $38 $-1 $106 reversed single #
loop $-1 $-1 $107 $50 #
plane-surface $-1 -122.56307648830588 20.863432516808199 89.319066916471286 0 1 0 -0.61566148304635926 0 0.78801074757464917 forward_v I I I I #
face $-1 $108 $109 $39 $-1 $110 forward single #
loop $-1 $111 $112 $51 #
cone-surface $-1 -49.720358810477478 27.091374368819913 2.9512291136364261 0.61566148304635926 0 -0.78801074757464917 1.5760214951492983 0 1.2313229660927185 1 I I 0 1 2 forward I I I I #
face $-1 $113 $114 $40 $-1 $115 reversed single #
loop $-1 $-1 $116 $52 #
plane-surface $-1 79.232262561271028 -11.99689216083233 156.93861773181888 0 -1 0 -0.80901700255871778 0 -0.5877852410284794 forward_v I I I I #
face $-1 $117 $118 $41 $-1 $119 forward single #
loop $-1 $120 $121 $53 #
cone-surface $-1 52.184636550341175 -16.841781728775224 4.9083690176986643 -0.80901700255871778 0 -0.5877852410284794 0.5877852410284794 0 -0.80901700255871778 1 I I 0 1 1 forward I I I I #
face $-1 $122 $123 $42 $-1 $124 reversed single #
loop $-1 $-1 $125 $54 #
plane-surface $-1 79.232262561271028 1.3033027470549232 156.93861773181888 0 -1 0 -0.80901700255871778 0 -0.5877852410284794 forward_v I I I I #
face $-1 $126 $127 $43 $-1 $128 forward single #
loop $-1 $129 $130 $55 #
cone-surface $-1 52.184636550341175 -3.5415868208879715 4.9083690176986643 -0.80901700255871778 0 -0.5877852410284794 0.5877852410284794 0 -0.80901700255871778 1 I I 0 1 1 forward I I I I #
face $-1 $131 $132 $44 $-1 $133 reversed single #
loop $-1 $-1 $134 $56 #
plane-surface $-1 79.232262561271028 14.603497654942176 156.93861773181888 0 -1 0 -0.80901700255871778 0 -0.5877852410284794 forward_v I I I I #
face $-1 $135 $136 $45 $-1 $137 forward single #
loop $-1 $138 $139 $57 #
cone-surface $-1 52.184636550341175 9.7586080869992813 4.9083690176986643 -0.80901700255871778 0 -0.5877852410284794 0.5877852410284794 0 -0.80901700255871778 1 I I 0 1 1 forward I I I I #
face $-1 $140 $141 $46 $-1 $142 reversed single #
loop $-1 $-1 $143 $58 #
plane-surface $-1 79.232262561271028 27.903692562829427 156.93861773181888 0 -1 0 -0.80901700255871778 0 -0.5877852410284794 forward_v I I I I #
face $-1 $144 $145 $47 $-1 $146 forward single #
loop $-1 $147 $148 $59 #
cone-surface $-1 52.184636550341175 23.058802994886534 4.9083690176986643 -0.80901700255871778 0 -0.5877852410284794 0.5877852410284794 0 -0.80901700255871778 1 I I 0 1 1 forward I I I I #
face $-1 $149 $150 $36 $-1 $151 reversed single #
loop $-1 $-1 $152 $60 #
plane-surface $-1 0 0 -7.9560836809909601 0 0 1 1 0 0 forward_v I I I I #
coedge $-1 $153 $154 $155 $156 forward $61 $-1 #
face $-1 $157 $158 $37 $-1 $159 reversed single #
loop $-1 $-1 $160 $63 #
plane-surface $-1 0 -27.102294954720314 -6.2005103346770181 0 -1 0 0 0 -1 forward_v I I I I #
coedge $-1 $161 $162 $163 $164 reversed $64 $-1 #
face $-1 $165 $166 $38 $-1 $167 reversed single #
loop $-1 $-1 $168 $66 #
plane-surface $-1 -54.928434095278789 27.091374368819913 2.7506740874203075 -0.61566148304635926 0 0.78801074757464917 0.78801074757464917 0 0.61566148304635926 forward_v I I I I #
coedge $-1 $169 $170 $171 $172 reversed $67 $-1 #
face $-1 $-1 $173 $39 $-1 $174 forward single #
loop $-1 $175 $176 $69 #
cone-surface $-1 -47.227932201067134 27.091374368819913 -0.23893140450743644 0.61566148304635926 0 -0.78801074757464917 0.78801074757464917 0 0.61566148304635926 1 I I -0.70710678118654735 0.70710678118654768 1 forward I I I I #
loop $-1 $-1 $177 $51 #
coedge $-1 $112 $112 $178 $179 reversed $70 $-1 #
face $-1 $180 $181 $40 $-1 $182 reversed single #
loop $-1 $-1 $183 $72 #
plane-surface $-1 -9.6438116527420163 -16.841781728775224 92.366371983798103 0.80901700255871778 0 0.5877852410284794 0.5877852410284794 0 -0.80901700255871778 forward_v I I I I #
coedge $-1 $184 $185 $186 $187 reversed $73 $-1 #
face $-1 $-1 $188 $41 $-1 $189 forward single #
loop $-1 $190 $191 $75 #
cone-surface $-1 50.658622149354002 -16.841781728775224 3.7996546894950685 -0.80901700255871778 0 -0.5877852410284794 0.2938926205142397 0 -0.40450850127935889 1 I I -0.70710678118654746 0.70710678118654746 0.5 forward I I I I #
loop $-1 $-1 $192 $53 #
coedge $-1 $121 $121 $193 $194 reversed $76 $-1 #
face $-1 $195 $196 $42 $-1 $197 reversed single #
loop $-1 $-1 $198 $78 #
plane-surface $-1 -9.6438116527420163 -3.5415868208879715 92.366371983798103 0.80901700255871778 0 0.5877852410284794 0.5877852410284794 0 -0.80901700255871778 forward_v I I I I #
coedge $-1 $199 $200 $201 $202 reversed $79 $-1 #
face $-1 $-1 $203 $43 $-1 $204 forward single #
loop $-1 $205 $206 $81 #
cone-surface $-1 50.658622149354002 -3.5415868208879715 3.7996546894950685 -0.80901700255871778 0 -0.5877852410284794 0.2938926205142397 0 -0.40450850127935889 1 I I -0.70710678118654746 0.70710678118654746 0.5 forward I I I I #
loop $-1 $-1 $207 $55 #
coedge $-1 $130 $130 $208 $209 reversed $82 $-1 #
face $-1 $210 $211 $44 $-1 $212 reversed single #
loop $-1 $-1 $213 $84 #
plane-surface $-1 -9.6438116527420163 9.7586080869992813 92.366371983798103 0.80901700255871778 0 0.5877852410284794 0.5877852410284794 0 -0.80901700255871778 forward_v I I I I #
coedge $-1 $214 $215 $216 $217 reversed $85 $-1 #
face $-1 $-1 $218 $45 $-1 $219 forward single #
loop $-1 $220 $221 $87 #
cone-surface $-1 50.658622149354002 9.7586080869992813 3.7996546894950685 -0.80901700255871778 0 -0.5877852410284794 0.2938926205142397 0 -0.40450850127935889 1 I I -0.70710678118654746 0.70710678118654746 0.5 forward I I I I #
loop $-1 $-1 $222 $57 #
coedge $-1 $139 $139 $223 $224 reversed $88 $-1 #
face $-1 $225 $226 $46 $-1 $227 reversed single #
loop $-1 $-1 $228 $90 #
plane-surface $-1 -9.6438116527420163 23.058802994886534 92.366371983798103 0.80901700255871778 0 0.5877852410284794 0.5877852410284794 0 -0.80901700255871778 forward_v I I I I #
coedge $-1 $229 $230 $231 $232 reversed $91 $-1 #
face $-1 $-1 $233 $47 $-1 $234 forward single #
loop $-1 $235 $236 $93 #
cone-surface $-1 50.658622149354002 23.058802994886534 3.7996546894950685 -0.80901700255871778 0 -0.5877852410284794 0.2938926205142397 0 -0.40450850127935889 1 I I -0.70710678118654746 0.70710678118654746 0.5 forward I I I I #
loop $-1 $-1 $237 $59 #
coedge $-1 $148 $148 $238 $239 reversed $94 $-1 #
face $-1 $240 $241 $36 $-1 $242 reversed single #
loop $-1 $-1 $243 $96 #
plane-surface $-1 0 -33.319316220831624 0 0 1 0 0 0 1 forward_v I I I I #
coedge $-1 $244 $245 $246 $247 forward $97 $-1 #
coedge $-1 $248 $99 $249 $250 forward $61 $-1 #
coedge $-1 $99 $248 $251 $252 forward $61 $-1 #
coedge $-1 $253 $254 $99 $156 reversed $255 $-1 #
edge $-1 $256 -33.319316220831624 $257 33.319316220831624 $155 $258 forward 7 unknown #
face $-1 $259 $260 $37 $-1 $261 reversed single #
loop $-1 $-1 $262 $100 #
plane-surface $-1 0 0 -7.9560836809909601 0 0 1 1 0 0 forward_v I I I I #
coedge $-1 $263 $264 $265 $266 reversed $101 $-1 #
coedge $-1 $267 $103 $264 $268 forward $64 $-1 #
coedge $-1 $103 $267 $269 $270 reversed $64 $-1 #
coedge $-1 $271 $265 $103 $164 forward $260 $-1 #
edge $-1 $272 11.99689216083233 $273 18.213913426943641 $163 $274 forward 7 unknown #
face $-1 $275 $276 $38 $-1 $277 reversed single #
loop $-1 $-1 $278 $104 #
plane-surface $-1 0 33.319316220831624 0 0 -1 0 0 0 -1 forward_v I I I I #
coedge $-1 $279 $280 $281 $282 reversed $105 $-1 #
coedge $-1 $170 $107 $283 $284 reversed $67 $-1 #
coedge $-1 $107 $169 $279 $285 reversed $67 $-1 #
coedge $-1 $281 $286 $107 $172 forward $287 $-1 #
edge $-1 $288 6.3531041488741522 $289 13.015724465748818 $171 $290 forward 7 unknown #
loop $-1 $-1 $178 $108 #
plane-surface $-1 -54.928434095278789 27.091374368819913 2.7506740874203075 -0.61566148304635926 0 0.78801074757464917 0.78801074757464917 0 0.61566148304635926 forward_v I I I I #
loop $-1 $-1 $291 $69 #
coedge $-1 $176 $176 $177 $292 reversed $109 $-1 #
coedge $-1 $177 $177 $176 $292 forward $111 $-1 #
coedge $-1 $178 $178 $112 $179 forward $173 $-1 #
edge $-1 $293 0 $293 6.2831853071796004 $178 $294 forward 7 unknown #
face $-1 $295 $296 $40 $-1 $297 forward single #
loop $-1 $-1 $298 $113 #
plane-surface $-1 79.232262561271028 -21.686671296718117 156.93861773181888 0 1 0 0.80901700255871778 0 0.5877852410284794 forward_v I I I I #
coedge $-1 $299 $300 $301 $302 reversed $114 $-1 #
coedge $-1 $185 $116 $303 $304 reversed $73 $-1 #
coedge $-1 $116 $184 $299 $305 reversed $73 $-1 #
coedge $-1 $301 $306 $116 $187 forward $296 $-1 #
edge $-1 $307 -15.312302814643274 $308 -12.06771952418363 $186 $309 forward 7 unknown #
loop $-1 $-1 $193 $117 #
plane-surface $-1 -9.6438116527420163 -16.841781728775224 92.366371983798103 0.80901700255871778 0 0.5877852410284794 0.5877852410284794 0 -0.80901700255871778 forward_v I I I I #
loop $-1 $-1 $310 $75 #
coedge $-1 $191 $191 $192 $311 reversed $118 $-1 #
coedge $-1 $192 $192 $191 $311 forward $120 $-1 #
coedge $-1 $193 $193 $121 $194 forward $188 $-1 #
edge $-1 $312 0 $312 6.2831853071796004 $193 $313 forward 7 unknown #
face $-1 $314 $315 $42 $-1 $316 reversed single #
loop $-1 $-1 $317 $122 #
plane-surface $-1 79.232262561271028 -8.3864763888308662 156.93861773181888 0 1 0 0.80901700255871778 0 0.5877852410284794 forward_v I I I I #
coedge $-1 $318 $319 $320 $321 reversed $123 $-1 #
coedge $-1 $200 $125 $322 $323 reversed $79 $-1 #
coedge $-1 $125 $199 $318 $324 reversed $79 $-1 #
coedge $-1 $320 $325 $125 $202 forward $326 $-1 #
edge $-1 $327 -15.312302814643274 $328 -12.06771952418363 $201 $329 forward 7 unknown #
loop $-1 $-1 $208 $126 #
plane-surface $-1 -9.6438116527420163 -3.5415868208879715 92.366371983798103 0.80901700255871778 0 0.5877852410284794 0.5877852410284794 0 -0.80901700255871778 forward_v I I I I #
loop $-1 $-1 $330 $81 #
coedge $-1 $206 $206 $207 $331 reversed $127 $-1 #
coedge $-1 $207 $207 $206 $331 forward $129 $-1 #
coedge $-1 $208 $208 $130 $209 forward $203 $-1 #
edge $-1 $332 0 $332 6.2831853071796004 $208 $333 forward 7 unknown #
face $-1 $334 $335 $44 $-1 $336 reversed single #
loop $-1 $-1 $337 $131 #
plane-surface $-1 79.232262561271028 4.9137185190563866 156.93861773181888 0 1 0 0.80901700255871778 0 0.5877852410284794 forward_v I I I I #
coedge $-1 $338 $339 $340 $341 reversed $132 $-1 #
coedge $-1 $215 $134 $342 $343 reversed $85 $-1 #
coedge $-1 $134 $214 $338 $344 reversed $85 $-1 #
coedge $-1 $340 $345 $134 $217 forward $346 $-1 #
edge $-1 $347 -15.312302814643274 $348 -12.06771952418363 $216 $349 forward 7 unknown #
loop $-1 $-1 $223 $135 #
plane-surface $-1 -9.6438116527420163 9.7586080869992813 92.366371983798103 0.80901700255871778 0 0.5877852410284794 0.5877852410284794 0 -0.80901700255871778 forward_v I I I I #
loop $-1 $-1 $350 $87 #
coedge $-1 $221 $221 $222 $351 reversed $136 $-1 #
coedge $-1 $222 $222 $221 $351 forward $138 $-1 #
coedge $-1 $223 $223 $139 $224 forward $218 $-1 #
edge $-1 $352 0 $352 6.2831853071796004 $223 $353 forward 7 unknown #
face $-1 $354 $355 $46 $-1 $356 reversed single #
loop $-1 $-1 $357 $140 #
plane-surface $-1 79.232262561271028 18.213913426943641 156.93861773181888 0 1 0 0.80901700255871778 0 0.5877852410284794 forward_v I I I I #
coedge $-1 $358 $359 $360 $361 reversed $141 $-1 #
coedge $-1 $230 $143 $362 $363 reversed $91 $-1 #
coedge $-1 $143 $229 $358 $364 reversed $91 $-1 #
coedge $-1 $360 $365 $143 $232 forward $366 $-1 #
edge $-1 $367 -15.312302814643274 $368 -12.06771952418363 $231 $369 forward 7 unknown #
loop $-1 $-1 $238 $144 #
plane-surface $-1 -9.6438116527420163 23.058802994886534 92.366371983798103 0.80901700255871778 0 0.5877852410284794 0.5877852410284794 0 -0.80901700255871778 forward_v I I I I #
loop $-1 $-1 $370 $93 #
coedge $-1 $236 $236 $237 $371 reversed $145 $-1 #
coedge $-1 $237 $237 $236 $371 forward $147 $-1 #
coedge $-1 $238 $238 $148 $239 forward $233 $-1 #
edge $-1 $372 0 $372 6.2831853071796004 $238 $373 forward 7 unknown #
face $-1 $374 $375 $36 $-1 $376 reversed single #
loop $-1 $-1 $377 $149 #
plane-surface $-1 -54.928434095278789 0 0 1 0 0 0 0 -1 forward_v I I I I #
coedge $-1 $378 $251 $379 $380 forward $150 $-1 #
coedge $-1 $381 $152 $378 $382 forward $97 $-1 #
coedge $-1 $152 $381 $383 $384 forward $97 $-1 #
coedge $-1 $254 $253 $152 $247 reversed $255 $-1 #
edge $-1 $385 -33.319316220831624 $386 33.319316220831624 $246 $387 forward 7 unknown #
coedge $-1 $154 $153 $388 $389 forward $61 $-1 #
coedge $-1 $390 $391 $153 $250 reversed $375 $-1 #
edge $-1 $257 -54.928434095278789 $392 54.928434095278789 $249 $393 forward 7 unknown #
coedge $-1 $243 $394 $154 $252 reversed $150 $-1 #
edge $-1 $395 -54.928434095278789 $256 54.928434095278789 $251 $396 forward 7 unknown #
coedge $-1 $246 $155 $394 $397 forward $255 $-1 #
coedge $-1 $155 $246 $390 $398 reversed $255 $-1 #
loop $-1 $-1 $253 $374 #
vertex $-1 $156 $399 #
vertex $-1 $156 $400 #
straight-curve $-1 54.928434095278789 0 7.9560836809909601 0 1 0 I I #
face $-1 $401 $402 $37 $-1 $403 reversed single #
loop $-1 $-1 $265 $157 #
plane-surface $-1 54.928434095278789 0 0 -1 0 0 0 0 1 forward_v I I I I #
coedge $-1 $404 $405 $263 $406 forward $158 $-1 #
coedge $-1 $407 $160 $262 $406 reversed $101 $-1 #
coedge $-1 $160 $407 $161 $268 reversed $101 $-1 #
coedge $-1 $163 $408 $160 $266 forward $260 $-1 #
edge $-1 $409 -4.8558285136524511 $272 -1.344681821024567 $265 $410 forward 7 unknown #
coedge $-1 $162 $161 $411 $412 reversed $64 $-1 #
edge $-1 $272 -54.928434095278789 $413 54.928434095278789 $264 $414 forward 7 unknown #
coedge $-1 $415 $416 $162 $270 forward $402 $-1 #
edge $-1 $273 -54.928434095278789 $417 54.928434095278789 $269 $418 forward 7 unknown #
coedge $-1 $408 $163 $416 $419 forward $260 $-1 #
vertex $-1 $164 $420 #
vertex $-1 $419 $421 #
straight-curve $-1 54.928434095278789 -15.105402793887984 -4.444936988363076 0 -1 0 I I #
face $-1 $-1 $287 $38 $-1 $422 forward single #
loop $-1 $-1 $423 $165 #
plane-surface $-1 -54.928434095278789 0 0 1 0 0 0 0 -1 forward_v I I I I #
coedge $-1 $424 $425 $280 $426 forward $166 $-1 #
coedge $-1 $427 $168 $170 $285 forward $105 $-1 #
coedge $-1 $168 $427 $278 $426 reversed $105 $-1 #
coedge $-1 $428 $171 $168 $282 forward $287 $-1 #
edge $-1 $289 7.3177453323982427 $429 19.773629036421667 $281 $430 forward 7 unknown #
coedge $-1 $431 $423 $169 $284 forward $276 $-1 #
edge $-1 $432 -41.908859370815335 $288 -36.703449777244685 $283 $433 forward 7 unknown #
edge $-1 $289 -8.4549866069479052 $432 0 $170 $434 forward 7 unknown #
coedge $-1 $171 $428 $431 $435 forward $287 $-1 #
loop $-1 $-1 $281 $275 #
vertex $-1 $284 $436 #
vertex $-1 $172 $437 #
straight-curve $-1 -61.281538244152941 20.863432516808199 7.9560836809909574 1 0 0 I I #
coedge $-1 $291 $291 $-1 $438 reversed $175 $-1 #
edge $-1 $439 0 $439 6.2831853071796004 $176 $440 forward 7 unknown #
vertex $-1 $179 $441 #
ellipse-curve $-1 -51.597123936841456 27.091374368819913 5.3533788842056333 -0.61566148304635926 0 0.78801074757464917 1.5760214951492983 0 1.2313229660927185 1 I I #
face $-1 $-1 $442 $40 $-1 $443 reversed single #
loop $-1 $-1 $186 $180 #
plane-surface $-1 0 0 7.9560836809909601 0 0 1 1 0 0 forward_v I I I I #
coedge $-1 $444 $445 $446 $447 reversed $181 $-1 #
coedge $-1 $448 $183 $185 $305 forward $114 $-1 #
coedge $-1 $183 $448 $444 $449 forward $114 $-1 #
coedge $-1 $446 $186 $183 $302 forward $296 $-1 #
edge $-1 $308 3.5760012964447174 $450 13.265780432330505 $301 $451 forward 7 unknown #
coedge $-1 $452 $453 $184 $304 forward $442 $-1 #
edge $-1 $454 -74.97901109612441 $307 -70.513225184918483 $303 $455 forward 7 unknown #
edge $-1 $308 104.33685328718505 $454 109.85686819055763 $185 $456 forward 7 unknown #
coedge $-1 $186 $446 $452 $457 forward $296 $-1 #
vertex $-1 $304 $458 #
vertex $-1 $187 $459 #
straight-curve $-1 39.616131280635514 -11.99689216083233 7.9560836809909574 -1 0 0 I I #
coedge $-1 $310 $310 $-1 $460 reversed $190 $-1 #
edge $-1 $461 0 $461 6.2831853071796004 $191 $462 forward 7 unknown #
vertex $-1 $194 $463 #
ellipse-curve $-1 53.306142450048959 -16.841781728775224 5.7231907253879974 0.80901700255871778 0 0.5877852410284794 0.5877852410284794 0 -0.80901700255871778 1 I I #
face $-1 $-1 $326 $42 $-1 $464 forward single #
loop $-1 $-1 $465 $195 #
plane-surface $-1 54.928434095278789 0 0 -1 0 0 0 0 1 forward_v I I I I #
coedge $-1 $466 $467 $468 $469 reversed $196 $-1 #
coedge $-1 $470 $198 $200 $324 forward $123 $-1 #
coedge $-1 $198 $470 $466 $471 forward $123 $-1 #
coedge $-1 $468 $201 $198 $321 forward $326 $-1 #
edge $-1 $328 -3.074096157498909 $472 6.6156829783868805 $320 $473 forward 7 unknown #
coedge $-1 $474 $475 $199 $323 forward $315 $-1 #
edge $-1 $476 -74.97901109612441 $327 -70.513225184918483 $322 $477 forward 7 unknown #
edge $-1 $328 104.33685328718505 $476 109.85686819055763 $200 $478 forward 7 unknown #
coedge $-1 $201 $468 $474 $479 forward $326 $-1 #
loop $-1 $-1 $468 $314 #
vertex $-1 $323 $480 #
vertex $-1 $202 $481 #
straight-curve $-1 39.616131280635514 1.3033027470549232 7.9560836809909574 -1 0 0 I I #
coedge $-1 $330 $330 $-1 $482 reversed $205 $-1 #
edge $-1 $483 0 $483 6.2831853071796004 $206 $484 forward 7 unknown #
vertex $-1 $209 $485 #
ellipse-curve $-1 53.306142450048959 -3.5415868208879715 5.7231907253879974 0.80901700255871778 0 0.5877852410284794 0.5877852410284794 0 -0.80901700255871778 1 I I #
face $-1 $-1 $346 $44 $-1 $486 forward single #
loop $-1 $-1 $487 $210 #
plane-surface $-1 54.928434095278789 0 0 -1 0 0 0 0 1 forward_v I I I I #
coedge $-1 $488 $489 $490 $491 reversed $211 $-1 #
coedge $-1 $492 $213 $215 $344 forward $132 $-1 #
coedge $-1 $213 $492 $488 $493 forward $132 $-1 #
coedge $-1 $490 $216 $213 $341 forward $346 $-1 #
edge $-1 $348 -9.7241936114425354 $494 -0.034414475556745927 $340 $495 forward 7 unknown #
coedge $-1 $496 $497 $214 $343 forward $335 $-1 #
edge $-1 $498 -74.97901109612441 $347 -70.513225184918483 $342 $499 forward 7 unknown #
edge $-1 $348 104.33685328718505 $498 109.85686819055763 $215 $500 forward 7 unknown #
coedge $-1 $216 $490 $496 $501 forward $346 $-1 #
loop $-1 $-1 $490 $334 #
vertex $-1 $343 $502 #
vertex $-1 $217 $503 #
straight-curve $-1 39.616131280635514 14.603497654942176 7.9560836809909574 -1 0 0 I I #
coedge $-1 $350 $350 $-1 $504 reversed $220 $-1 #
edge $-1 $505 0 $505 6.2831853071796004 $221 $506 forward 7 unknown #
vertex $-1 $224 $507 #
ellipse-curve $-1 53.306142450048959 9.7586080869992813 5.7231907253879974 0.80901700255871778 0 0.5877852410284794 0.5877852410284794 0 -0.80901700255871778 1 I I #
face $-1 $-1 $366 $46 $-1 $508 forward single #
loop $-1 $-1 $509 $225 #
plane-surface $-1 54.928434095278789 0 0 -1 0 0 0 0 1 forward_v I I I I #
coedge $-1 $510 $511 $512 $513 reversed $226 $-1 #
coedge $-1 $514 $228 $230 $364 forward $141 $-1 #
coedge $-1 $228 $514 $510 $515 forward $141 $-1 #
coedge $-1 $512 $231 $228 $361 forward $366 $-1 #
edge $-1 $368 -16.37429106538616 $516 -6.6845119295003741 $360 $517 forward 7 unknown #
coedge $-1 $518 $519 $229 $363 forward $355 $-1 #
edge $-1 $520 -74.97901109612441 $367 -70.513225184918483 $362 $521 forward 7 unknown #
edge $-1 $368 104.33685328718505 $520 109.85686819055763 $230 $522 forward 7 unknown #
coedge $-1 $231 $512 $518 $523 forward $366 $-1 #
loop $-1 $-1 $512 $354 #
vertex $-1 $363 $524 #
vertex $-1 $232 $525 #
straight-curve $-1 39.616131280635514 27.903692562829427 7.9560836809909574 -1 0 0 I I #
coedge $-1 $370 $370 $-1 $526 reversed $235 $-1 #
edge $-1 $527 0 $527 6.2831853071796004 $236 $528 forward 7 unknown #
vertex $-1 $239 $529 #
ellipse-curve $-1 53.306142450048959 23.058802994886534 5.7231907253879974 0.80901700255871778 0 0.5877852410284794 0.5877852410284794 0 -0.80901700255871778 1 I I #
face $-1 $-1 $255 $36 $-1 $530 reversed single #
loop $-1 $-1 $390 $240 #
plane-surface $-1 0 33.319316220831624 0 0 -1 0 0 0 -1 forward_v I I I I #
coedge $-1 $531 $388 $391 $532 forward $241 $-1 #
coedge $-1 $394 $243 $244 $382 reversed $150 $-1 #
coedge $-1 $388 $531 $243 $380 reversed $241 $-1 #
edge $-1 $395 -7.9560836809909601 $533 7.9560836809909601 $379 $534 forward 7 unknown #
coedge $-1 $245 $244 $531 $535 forward $97 $-1 #
edge $-1 $386 -54.928434095278789 $533 54.928434095278789 $378 $536 forward 7 unknown #
coedge $-1 $391 $390 $245 $384 reversed $375 $-1 #
edge $-1 $537 -54.928434095278789 $385 54.928434095278789 $383 $538 forward 7 unknown #
vertex $-1 $247 $539 #
vertex $-1 $397 $540 #
straight-curve $-1 54.928434095278789 0 -7.9560836809909601 0 -1 0 I I #
coedge $-1 $377 $379 $248 $389 reversed $241 $-1 #
edge $-1 $392 -33.319316220831624 $395 33.319316220831624 $388 $541 forward 7 unknown #
coedge $-1 $383 $249 $254 $398 forward $375 $-1 #
coedge $-1 $249 $383 $377 $532 reversed $375 $-1 #
vertex $-1 $250 $542 #
straight-curve $-1 0 33.319316220831624 7.9560836809909601 -1 0 0 I I #
coedge $-1 $251 $378 $253 $397 reversed $150 $-1 #
vertex $-1 $389 $543 #
straight-curve $-1 0 -33.319316220831624 7.9560836809909601 1 0 0 I I #
edge $-1 $256 -7.9560836809909601 $386 7.9560836809909601 $253 $544 forward 7 unknown #
edge $-1 $257 -7.9560836809909601 $385 7.9560836809909601 $254 $545 forward 7 unknown #
point $-1 54.928434095278789 -33.319316220831624 7.9560836809909601 #
point $-1 54.928434095278789 33.319316220831624 7.9560836809909601 #
face $-1 $-1 $546 $37 $-1 $547 reversed single #
loop $-1 $-1 $269 $259 #
plane-surface $-1 0 -33.319316220831624 0 0 1 0 0 0 1 forward_v I I I I #
coedge $-1 $548 $262 $408 $549 forward $158 $-1 #
coedge $-1 $262 $548 $550 $551 forward $158 $-1 #
edge $-1 $552 -54.928434095278789 $409 54.928434095278789 $262 $553 forward 7 unknown #
coedge $-1 $264 $263 $554 $555 reversed $101 $-1 #
coedge $-1 $265 $271 $404 $549 reversed $260 $-1 #
vertex $-1 $549 $556 #
straight-curve $-1 54.928434095278789 -27.102294954720314 -3.100255167338509 0 0 1 I I #
coedge $-1 $554 $557 $267 $412 forward $546 $-1 #
edge $-1 $417 -18.213913426943641 $413 -11.99689216083233 $411 $558 forward 7 unknown #
vertex $-1 $412 $559 #
straight-curve $-1 0 -27.102294954720314 -4.444936988363076 -1 0 0 I I #
coedge $-1 $560 $269 $557 $561 forward $402 $-1 #
coedge $-1 $269 $560 $271 $419 reversed $402 $-1 #
vertex $-1 $561 $562 #
straight-curve $-1 0 -33.319316220831624 -4.444936988363076 -1 0 0 I I #
edge $-1 $273 4.444936988363076 $563 7.9560836809909601 $271 $564 forward 7 unknown #
point $-1 54.928434095278789 -27.102294954720314 -4.444936988363076 #
point $-1 54.928434095278789 -33.319316220831624 -4.444936988363076 #
plane-surface $-1 0 0 7.9560836809909601 0 0 1 1 0 0 forward_v I I I I #
coedge $-1 $283 $565 $427 $566 forward $276 $-1 #
coedge $-1 $425 $278 $565 $567 reversed $166 $-1 #
coedge $-1 $278 $424 $428 $568 reversed $166 $-1 #
edge $-1 $429 12.34036955629565 $569 20.795356163243557 $278 $570 forward 7 unknown #
coedge $-1 $280 $279 $423 $566 reversed $105 $-1 #
coedge $-1 $286 $281 $425 $568 forward $287 $-1 #
vertex $-1 $568 $571 #
straight-curve $-1 -48.26581377840413 13.545687184409957 7.956083680990961 0 1 0 I I #
coedge $-1 $565 $283 $286 $435 reversed $276 $-1 #
vertex $-1 $284 $572 #
straight-curve $-1 -54.928434095278789 20.863432516808199 44.659533458235643 0 0 1 I I #
straight-curve $-1 -54.928434095278789 20.863432516808199 2.7506740874203075 -0.78801074757464917 0 -0.61566148304635926 I I #
edge $-1 $573 -33.319316220831624 $288 -20.863432516808199 $431 $574 forward 7 unknown #
point $-1 -54.928434095278789 20.863432516808199 7.9560836809909601 #
point $-1 -48.265813778404123 20.863432516808199 7.9560836809909601 #
edge $-1 $575 1 $575 0 $291 $-1 forward 7 unknown #
vertex $-1 $292 $576 #
ellipse-curve $-1 -47.843593684113493 27.091374368819913 0.54907934306721307 -0.61566148304635926 0 0.78801074757464917 1.5760214951492983 0 1.2313229660927185 1 I I #
point $-1 -50.021102441692165 27.091374368819913 6.5847018502983579 #
loop $-1 $-1 $303 $295 #
plane-surface $-1 54.928434095278789 0 0 -1 0 0 0 0 1 forward_v I I I I #
coedge $-1 $445 $298 $300 $449 reversed $181 $-1 #
coedge $-1 $298 $444 $577 $578 reversed $181 $-1 #
coedge $-1 $306 $301 $298 $447 forward $296 $-1 #
edge $-1 $450 12.06771952418363 $579 15.312302814643274 $446 $580 forward 7 unknown #
coedge $-1 $300 $299 $453 $581 reversed $114 $-1 #
edge $-1 $582 -109.85686819055763 $450 -104.33685328718505 $444 $583 forward 7 unknown #
vertex $-1 $302 $584 #
straight-curve $-1 51.683850804819137 -8.4208908643876121 7.9560836809909574 0 -1 0 I I #
coedge $-1 $577 $303 $306 $457 reversed $442 $-1 #
coedge $-1 $303 $577 $448 $581 forward $442 $-1 #
vertex $-1 $304 $585 #
straight-curve $-1 54.928434095278789 -11.99689216083233 78.46930886590944 0 0 1 I I #
straight-curve $-1 -9.6438116527420163 -11.99689216083233 92.366371983798103 0.5877852410284794 0 -0.80901700255871778 I I #
edge $-1 $579 -21.686671296718117 $307 -11.99689216083233 $452 $586 forward 7 unknown #
point $-1 54.928434095278789 -11.99689216083233 7.9560836809909601 #
point $-1 51.683850804819144 -11.99689216083233 7.9560836809909574 #
edge $-1 $587 1 $587 0 $310 $-1 forward 7 unknown #
vertex $-1 $311 $588 #
ellipse-curve $-1 51.063130650633362 -16.841781728775224 4.093547310009308 0.80901700255871778 0 0.5877852410284794 0.5877852410284794 0 -0.80901700255871778 1 I I #
point $-1 53.893927691077465 -16.841781728775224 4.9141737228293021 #
plane-surface $-1 0 0 7.9560836809909601 0 0 1 1 0 0 forward_v I I I I #
coedge $-1 $475 $474 $467 $589 forward $315 $-1 #
coedge $-1 $467 $317 $319 $471 reversed $196 $-1 #
coedge $-1 $317 $466 $465 $589 reversed $196 $-1 #
coedge $-1 $325 $320 $317 $469 forward $326 $-1 #
edge $-1 $472 12.06771952418363 $590 15.312302814643274 $468 $591 forward 7 unknown #
coedge $-1 $319 $318 $475 $592 reversed $123 $-1 #
edge $-1 $593 -109.85686819055763 $472 -104.33685328718505 $466 $594 forward 7 unknown #
vertex $-1 $321 $595 #
straight-curve $-1 51.683850804819137 -1.7707934104439857 7.9560836809909574 0 -1 0 I I #
coedge $-1 $465 $322 $325 $479 reversed $315 $-1 #
coedge $-1 $322 $465 $470 $592 forward $315 $-1 #
vertex $-1 $323 $596 #
straight-curve $-1 54.928434095278789 1.3033027470549232 78.46930886590944 0 0 1 I I #
straight-curve $-1 -9.6438116527420163 1.3033027470549232 92.366371983798103 0.5877852410284794 0 -0.80901700255871778 I I #
edge $-1 $590 -8.3864763888308662 $327 1.3033027470549232 $474 $597 forward 7 unknown #
point $-1 54.928434095278789 1.3033027470549232 7.9560836809909601 #
point $-1 51.683850804819144 1.3033027470549232 7.9560836809909574 #
edge $-1 $598 1 $598 0 $330 $-1 forward 7 unknown #
vertex $-1 $331 $599 #
ellipse-curve $-1 51.063130650633362 -3.5415868208879715 4.093547310009308 0.80901700255871778 0 0.5877852410284794 0.5877852410284794 0 -0.80901700255871778 1 I I #
point $-1 53.893927691077465 -3.5415868208879715 4.9141737228293021 #
plane-surface $-1 0 0 7.9560836809909601 0 0 1 1 0 0 forward_v I I I I #
coedge $-1 $497 $496 $489 $600 forward $335 $-1 #
coedge $-1 $489 $337 $339 $493 reversed $211 $-1 #
coedge $-1 $337 $488 $487 $600 reversed $211 $-1 #
coedge $-1 $345 $340 $337 $491 forward $346 $-1 #
edge $-1 $494 12.06771952418363 $601 15.312302814643274 $490 $602 forward 7 unknown #
coedge $-1 $339 $338 $497 $603 reversed $132 $-1 #
edge $-1 $604 -109.85686819055763 $494 -104.33685328718505 $488 $605 forward 7 unknown #
vertex $-1 $341 $606 #
straight-curve $-1 51.683850804819137 4.8793040434996406 7.9560836809909574 0 -1 0 I I #
coedge $-1 $487 $342 $345 $501 reversed $335 $-1 #
coedge $-1 $342 $487 $492 $603 forward $335 $-1 #
vertex $-1 $343 $607 #
straight-curve $-1 54.928434095278789 14.603497654942176 78.46930886590944 0 0 1 I I #
straight-curve $-1 -9.6438116527420163 14.603497654942176 92.366371983798103 0.5877852410284794 0 -0.80901700255871778 I I #
edge $-1 $601 4.9137185190563866 $347 14.603497654942176 $496 $608 forward 7 unknown #
point $-1 54.928434095278789 14.603497654942176 7.9560836809909601 #
point $-1 51.683850804819144 14.603497654942176 7.9560836809909574 #
edge $-1 $609 1 $609 0 $350 $-1 forward 7 unknown #
vertex $-1 $351 $610 #
ellipse-curve $-1 51.063130650633362 9.7586080869992813 4.093547310009308 0.80901700255871778 0 0.5877852410284794 0.5877852410284794 0 -0.80901700255871778 1 I I #
point $-1 53.893927691077465 9.7586080869992813 4.9141737228293021 #
plane-surface $-1 0 0 7.9560836809909601 0 0 1 1 0 0 forward_v I I I I #
coedge $-1 $519 $518 $511 $611 forward $355 $-1 #
coedge $-1 $511 $357 $359 $515 reversed $226 $-1 #
coedge $-1 $357 $510 $509 $611 reversed $226 $-1 #
coedge $-1 $365 $360 $357 $513 forward $366 $-1 #
edge $-1 $516 12.06771952418363 $612 15.312302814643274 $512 $613 forward 7 unknown #
coedge $-1 $359 $358 $519 $614 reversed $141 $-1 #
edge $-1 $615 -109.85686819055763 $516 -104.33685328718505 $510 $616 forward 7 unknown #
vertex $-1 $361 $617 #
straight-curve $-1 51.683850804819137 11.529401497443267 7.9560836809909574 0 -1 0 I I #
coedge $-1 $509 $362 $365 $523 reversed $355 $-1 #
coedge $-1 $362 $509 $514 $614 forward $355 $-1 #
vertex $-1 $363 $618 #
straight-curve $-1 54.928434095278789 27.903692562829427 78.46930886590944 0 0 1 I I #
straight-curve $-1 -9.6438116527420163 27.903692562829427 92.366371983798103 0.5877852410284794 0 -0.80901700255871778 I I #
edge $-1 $612 18.213913426943641 $367 27.903692562829427 $518 $619 forward 7 unknown #
point $-1 54.928434095278789 27.903692562829427 7.9560836809909601 #
point $-1 51.683850804819144 27.903692562829427 7.9560836809909574 #
edge $-1 $620 1 $620 0 $370 $-1 forward 7 unknown #
vertex $-1 $371 $621 #
ellipse-curve $-1 51.063130650633362 23.058802994886534 4.093547310009308 0.80901700255871778 0 0.5877852410284794 0.5877852410284794 0 -0.80901700255871778 1 I I #
point $-1 53.893927691077465 23.058802994886534 4.9141737228293021 #
plane-surface $-1 54.928434095278789 0 0 -1 0 0 0 0 1 forward_v I I I I #
coedge $-1 $379 $377 $381 $535 reversed $241 $-1 #
edge $-1 $392 -7.9560836809909601 $537 7.9560836809909601 $391 $622 forward 7 unknown #
vertex $-1 $535 $623 #
straight-curve $-1 -54.928434095278789 -33.319316220831624 0 0 0 -1 I I #
edge $-1 $533 -33.319316220831624 $537 33.319316220831624 $531 $624 forward 7 unknown #
straight-curve $-1 0 -33.319316220831624 -7.9560836809909601 -1 0 0 I I #
vertex $-1 $384 $625 #
straight-curve $-1 0 33.319316220831624 -7.9560836809909601 1 0 0 I I #
point $-1 54.928434095278789 33.319316220831624 -7.9560836809909601 #
point $-1 54.928434095278789 -33.319316220831624 -7.9560836809909601 #
straight-curve $-1 -54.928434095278789 0 7.9560836809909601 0 -1 0 I I #
point $-1 -54.928434095278789 33.319316220831624 7.9560836809909601 #
point $-1 -54.928434095278789 -33.319316220831624 7.9560836809909601 #
straight-curve $-1 54.928434095278789 -33.319316220831624 0 0 0 -1 I I #
straight-curve $-1 54.928434095278789 33.319316220831624 0 0 0 -1 I I #
loop $-1 $-1 $554 $401 #
plane-surface $-1 -54.928434095278789 0 0 1 0 0 0 0 -1 forward_v I I I I #
coedge $-1 $405 $404 $560 $626 forward $158 $-1 #
edge $-1 $409 27.102294954720314 $563 33.319316220831624 $408 $627 forward 7 unknown #
coedge $-1 $557 $554 $405 $551 reversed $546 $-1 #
edge $-1 $628 -33.319316220831624 $552 -27.102294954720314 $550 $629 forward 7 unknown #
vertex $-1 $555 $630 #
straight-curve $-1 0 -27.102294954720314 -7.9560836809909601 1 0 0 I I #
coedge $-1 $550 $411 $407 $555 forward $546 $-1 #
edge $-1 $413 1.344681821024567 $552 4.8558285136524511 $554 $631 forward 7 unknown #
point $-1 54.928434095278789 -27.102294954720314 -7.9560836809909601 #
coedge $-1 $411 $550 $415 $561 reversed $546 $-1 #
straight-curve $-1 -54.928434095278789 -15.105402793887984 -4.444936988363076 0 1 0 I I #
point $-1 -54.928434095278789 -27.102294954720314 -4.444936988363076 #
coedge $-1 $416 $415 $548 $626 reversed $402 $-1 #
edge $-1 $417 4.444936988363076 $628 7.9560836809909601 $557 $632 forward 7 unknown #
point $-1 -54.928434095278789 -33.319316220831624 -4.444936988363076 #
vertex $-1 $419 $633 #
straight-curve $-1 54.928434095278789 -33.319316220831624 0 0 0 -1 I I #
coedge $-1 $423 $431 $424 $567 forward $276 $-1 #
edge $-1 $569 -19.773629036421667 $432 -7.3177453323982427 $423 $634 forward 7 unknown #
edge $-1 $573 -7.9560836809909601 $569 -2.7506740874203075 $424 $635 forward 7 unknown #
edge $-1 $429 48.265813778404123 $573 54.928434095278789 $425 $636 forward 7 unknown #
vertex $-1 $426 $637 #
straight-curve $-1 -38.541469939000145 33.319316220831624 15.553573903360082 -0.78801074757464917 0 -0.61566148304635926 I I #
point $-1 -48.265813778404123 33.319316220831624 7.9560836809909601 #
point $-1 -54.928434095278789 20.863432516808199 2.7506740874203075 #
vertex $-1 $568 $638 #
straight-curve $-1 -54.928434095278789 0 7.9560836809909601 0 -1 0 I I #
vertex $-1 $438 $639 #
point $-1 -46.267572188964195 27.091374368819913 1.7804023091599315 #
coedge $-1 $453 $452 $445 $578 forward $442 $-1 #
edge $-1 $579 70.513225184918483 $582 74.97901109612441 $577 $640 forward 7 unknown #
vertex $-1 $457 $641 #
straight-curve $-1 39.616131280635514 -21.686671296718117 7.9560836809909574 1 0 0 I I #
edge $-1 $582 -13.265780432330505 $454 -3.5760012964447174 $453 $642 forward 7 unknown #
vertex $-1 $581 $643 #
straight-curve $-1 -9.6438116527420163 -21.686671296718117 92.366371983798103 -0.5877852410284794 0 0.80901700255871778 I I #
point $-1 51.683850804819144 -21.686671296718117 7.9560836809909574 #
point $-1 54.928434095278789 -11.99689216083233 3.4902977697850304 #
straight-curve $-1 54.928434095278789 0 7.9560836809909601 0 1 0 I I #
vertex $-1 $460 $644 #
point $-1 51.650915891661839 -16.841781728775224 3.2845303074505905 #
edge $-1 $590 70.513225184918483 $593 74.97901109612441 $465 $645 forward 7 unknown #
vertex $-1 $479 $646 #
straight-curve $-1 39.616131280635514 -8.3864763888308662 7.9560836809909574 1 0 0 I I #
edge $-1 $593 -6.6156829783868805 $476 3.074096157498909 $475 $647 forward 7 unknown #
vertex $-1 $592 $648 #
straight-curve $-1 -9.6438116527420163 -8.3864763888308662 92.366371983798103 -0.5877852410284794 0 0.80901700255871778 I I #
point $-1 51.683850804819144 -8.3864763888308662 7.9560836809909574 #
point $-1 54.928434095278789 1.3033027470549232 3.4902977697850304 #
straight-curve $-1 54.928434095278789 0 7.9560836809909601 0 1 0 I I #
vertex $-1 $482 $649 #
point $-1 51.650915891661839 -3.5415868208879715 3.2845303074505905 #
edge $-1 $601 70.513225184918483 $604 74.97901109612441 $487 $650 forward 7 unknown #
vertex $-1 $501 $651 #
straight-curve $-1 39.616131280635514 4.9137185190563866 7.9560836809909574 1 0 0 I I #
edge $-1 $604 0.034414475556745927 $498 9.7241936114425354 $497 $652 forward 7 unknown #
vertex $-1 $603 $653 #
straight-curve $-1 -9.6438116527420163 4.9137185190563866 92.366371983798103 -0.5877852410284794 0 0.80901700255871778 I I #
point $-1 51.683850804819144 4.9137185190563866 7.9560836809909574 #
point $-1 54.928434095278789 14.603497654942176 3.4902977697850304 #
straight-curve $-1 54.928434095278789 0 7.9560836809909601 0 1 0 I I #
vertex $-1 $504 $654 #
point $-1 51.650915891661839 9.7586080869992813 3.2845303074505905 #
edge $-1 $612 70.513225184918483 $615 74.97901109612441 $509 $655 forward 7 unknown #
vertex $-1 $523 $656 #
straight-curve $-1 39.616131280635514 18.213913426943641 7.9560836809909574 1 0 0 I I #
edge $-1 $615 6.6845119295003741 $520 16.37429106538616 $519 $657 forward 7 unknown #
vertex $-1 $614 $658 #
straight-curve $-1 -9.6438116527420163 18.213913426943641 92.366371983798103 -0.5877852410284794 0 0.80901700255871778 I I #
point $-1 51.683850804819144 18.213913426943641 7.9560836809909574 #
point $-1 54.928434095278789 27.903692562829427 3.4902977697850304 #
straight-curve $-1 54.928434095278789 0 7.9560836809909601 0 1 0 I I #
vertex $-1 $526 $659 #
point $-1 51.650915891661839 23.058802994886534 3.2845303074505905 #
straight-curve $-1 -54.928434095278789 33.319316220831624 0 0 0 -1 I I #
point $-1 -54.928434095278789 -33.319316220831624 -7.9560836809909601 #
straight-curve $-1 -54.928434095278789 0 -7.9560836809909601 0 1 0 I I #
point $-1 -54.928434095278789 33.319316220831624 -7.9560836809909601 #
edge $-1 $563 -54.928434095278789 $628 54.928434095278789 $560 $660 forward 7 unknown #
straight-curve $-1 54.928434095278789 0 -7.9560836809909601 0 -1 0 I I #
vertex $-1 $551 $661 #
straight-curve $-1 -54.928434095278789 0 -7.9560836809909601 0 1 0 I I #
point $-1 -54.928434095278789 -27.102294954720314 -7.9560836809909601 #
straight-curve $-1 -54.928434095278789 -27.102294954720314 -3.100255167338509 0 0 -1 I I #
straight-curve $-1 -54.928434095278789 -33.319316220831624 0 0 0 -1 I I #
point $-1 54.928434095278789 -33.319316220831624 -7.9560836809909601 #
straight-curve $-1 -54.928434095278789 13.545687184409957 2.7506740874203057 0 -1 0 I I #
straight-curve $-1 -54.928434095278789 33.319316220831624 0 0 0 -1 I I #
straight-curve $-1 0 33.319316220831624 7.9560836809909601 -1 0 0 I I #
point $-1 -54.928434095278789 33.319316220831624 2.7506740874203075 #
point $-1 -54.928434095278789 33.319316220831624 7.9560836809909601 #
point $-1 -46.612270718020774 27.091374368819913 -1.0269421520820861 #
straight-curve $-1 54.928434095278789 -21.686671296718117 78.46930886590944 0 0 -1 I I #
point $-1 54.928434095278789 -21.686671296718117 7.9560836809909601 #
straight-curve $-1 54.928434095278789 -8.4208908643876121 3.4902977697850304 0 1 0 I I #
point $-1 54.928434095278789 -21.686671296718117 3.4902977697850304 #
point $-1 50.254113648074643 -16.841781728775224 3.5057620689808289 #
straight-curve $-1 54.928434095278789 -8.3864763888308662 78.46930886590944 0 0 -1 I I #
point $-1 54.928434095278789 -8.3864763888308662 7.9560836809909601 #
straight-curve $-1 54.928434095278789 -1.7707934104439857 3.4902977697850304 0 1 0 I I #
point $-1 54.928434095278789 -8.3864763888308662 3.4902977697850304 #
point $-1 50.254113648074643 -3.5415868208879715 3.5057620689808289 #
straight-curve $-1 54.928434095278789 4.9137185190563866 78.46930886590944 0 0 -1 I I #
point $-1 54.928434095278789 4.9137185190563866 7.9560836809909601 #
straight-curve $-1 54.928434095278789 4.8793040434996406 3.4902977697850304 0 1 0 I I #
point $-1 54.928434095278789 4.9137185190563866 3.4902977697850304 #
point $-1 50.254113648074643 9.7586080869992813 3.5057620689808289 #
straight-curve $-1 54.928434095278789 18.213913426943641 78.46930886590944 0 0 -1 I I #
point $-1 54.928434095278789 18.213913426943641 7.9560836809909601 #
straight-curve $-1 54.928434095278789 11.529401497443267 3.4902977697850304 0 1 0 I I #
point $-1 54.928434095278789 18.213913426943641 3.4902977697850304 #
point $-1 50.254113648074643 23.058802994886534 3.5057620689808289 #
straight-curve $-1 0 -33.319316220831624 -7.9560836809909601 -1 0 0 I I #
point $-1 -54.928434095278789 -33.319316220831624 -7.9560836809909601 #
End-of-ACIS-data 