500 0 7 0           
7 Unknown 11 ACIS 5.0 NT 24 Fri Mar 26 18:20:35 1999 
-1 9.9999999999999995e-007 1e-010 
body $-1 $7 $-1 $8 #
body $-1 $9 $-1 $10 #
body $-1 $11 $-1 $12 #
body $-1 $13 $-1 $14 #
body $-1 $15 $-1 $16 #
body $-1 $17 $-1 $18 #
body $-1 $19 $-1 $20 #
lump $-1 $-1 $21 $0 #
transform $-1 1 0 0 0 1 0 0 0 1 67.289651173436695 45.584133517174095 22.155611145192257 1 rotate no_reflect no_shear #
lump $-1 $-1 $22 $1 #
transform $-1 1 0 0 0 1 0 0 0 1 67.289651173436695 45.584133517174095 22.155611145192257 1 rotate no_reflect no_shear #
lump $-1 $-1 $23 $2 #
transform $-1 1 0 0 0 1 0 0 0 1 67.289651173436695 45.584133517174095 22.155611145192257 1 rotate no_reflect no_shear #
lump $-1 $-1 $24 $3 #
transform $-1 1 0 0 0 1 0 0 0 1 67.289651173436695 45.584133517174095 22.155611145192257 1 rotate no_reflect no_shear #
lump $-1 $-1 $25 $4 #
transform $-1 1 0 0 0 1 0 0 0 1 67.289651173436695 45.584133517174095 22.155611145192257 1 rotate no_reflect no_shear #
lump $-1 $-1 $26 $5 #
transform $-1 1 0 0 0 1 0 0 0 1 67.289651173436695 45.584133517174095 22.155611145192257 1 rotate no_reflect no_shear #
lump $-1 $-1 $27 $6 #
transform $-1 1 0 0 0 1 0 0 0 1 67.289651173436695 45.584133517174095 22.155611145192257 1 rotate no_reflect no_shear #
shell $-1 $-1 $-1 $28 $-1 $7 #
shell $-1 $-1 $-1 $29 $-1 $9 #
shell $-1 $-1 $-1 $30 $-1 $11 #
shell $-1 $-1 $-1 $31 $-1 $13 #
shell $-1 $-1 $-1 $32 $-1 $15 #
shell $-1 $-1 $-1 $33 $-1 $17 #
shell $-1 $-1 $-1 $34 $-1 $19 #
face $-1 $35 $36 $21 $-1 $37 forward single #
face $-1 $38 $39 $22 $-1 $40 reversed single #
face $-1 $41 $42 $23 $-1 $43 reversed single #
face $-1 $44 $45 $24 $-1 $46 forward single #
face $-1 $47 $48 $25 $-1 $49 forward single #
face $-1 $50 $51 $26 $-1 $52 reversed single #
face $-1 $53 $54 $27 $-1 $55 forward single #
face $-1 $56 $57 $21 $-1 $58 reversed single #
loop $-1 $-1 $59 $28 #
plane-surface $-1 0 0 22.155611145192257 0 0 1 1 0 0 forward_v I I I I #
face $-1 $60 $61 $22 $-1 $62 reversed single #
loop $-1 $-1 $63 $29 #
plane-surface $-1 0 -35.705207030527774 9.7885784913699521 0 0 1 1 0 0 forward_v I I I I #
face $-1 $64 $65 $23 $-1 $66 reversed single #
loop $-1 $-1 $67 $30 #
plane-surface $-1 -160.77629113748668 4.0549065619546916 114.61518474904382 0 1 0 -0.69465837861970381 0 0.71933979245794832 forward_v I I I I #
face $-1 $68 $69 $24 $-1 $70 forward single #
loop $-1 $71 $72 $31 #
cone-surface $-1 -63.348275961280841 7.3989472014037858 18.231452256877027 0.69465837861970381 0 -0.71933979245794832 1.0790096886869225 0 1.0419875679295556 1 I I 0 1 1.5 forward I I I I #
face $-1 $73 $74 $25 $-1 $75 forward single #
loop $-1 $76 $77 $32 #
cone-surface $-1 -63.348275961280841 12.415008160577415 18.231452256877027 0.69465837861970381 0 -0.71933979245794832 1.0790096886869225 0 1.0419875679295556 1 I I 0 1 1.5 forward I I I I #
face $-1 $78 $79 $26 $-1 $80 reversed single #
loop $-1 $-1 $81 $33 #
plane-surface $-1 44.095007393222701 21.573693411363209 196.29341317045314 0 -1 0 -0.61566148304635926 0 -0.78801074757464917 forward_v I I I I #
face $-1 $82 $83 $27 $-1 $84 forward single #
loop $-1 $85 $86 $34 #
cone-surface $-1 57.456608725696135 12.220731483047253 14.282550106267852 -0.61566148304635926 0 -0.78801074757464917 0.78801074757464917 0 -0.61566148304635926 1 I I 0 1 1 forward I I I I #
face $-1 $87 $88 $21 $-1 $89 reversed single #
loop $-1 $-1 $90 $35 #
plane-surface $-1 0 0 -22.155611145192257 0 0 1 1 0 0 forward_v I I I I #
coedge $-1 $91 $92 $93 $94 forward $36 $-1 #
face $-1 $95 $96 $22 $-1 $97 reversed single #
loop $-1 $-1 $98 $38 #
plane-surface $-1 0 -25.826280543881456 15.972094818281104 0 -1 0 0 0 -1 forward_v I I I I #
coedge $-1 $99 $100 $101 $102 reversed $39 $-1 #
face $-1 $103 $104 $23 $-1 $105 reversed single #
loop $-1 $-1 $106 $41 #
plane-surface $-1 -67.28965117343671 9.9069776809905932 17.806937329708433 -0.69465837861970381 0 0.71933979245794832 0.71933979245794832 0 0.69465837861970381 forward_v I I I I #
coedge $-1 $107 $108 $109 $110 reversed $42 $-1 #
face $-1 $-1 $111 $24 $-1 $112 forward single #
loop $-1 $113 $114 $44 #
cone-surface $-1 -61.13749869440214 7.3989472014037858 15.94212543196026 0.69465837861970381 0 -0.71933979245794832 0.53950484434346124 0 0.5209937839647778 1 I I -0.70710678118654757 0.70710678118654757 0.75 forward I I I I #
loop $-1 $-1 $115 $31 #
coedge $-1 $72 $72 $116 $117 reversed $45 $-1 #
face $-1 $-1 $118 $25 $-1 $119 forward single #
loop $-1 $120 $121 $47 #
cone-surface $-1 -61.13749869440214 12.415008160577415 15.94212543196026 0.69465837861970381 0 -0.71933979245794832 0.53950484434346124 0 0.5209937839647778 1 I I -0.70710678118654757 0.70710678118654757 0.75 forward I I I I #
loop $-1 $-1 $122 $32 #
coedge $-1 $77 $77 $123 $124 reversed $48 $-1 #
face $-1 $125 $126 $26 $-1 $127 reversed single #
loop $-1 $-1 $128 $50 #
plane-surface $-1 -38.760285476997751 12.220731483047253 90.243476520018703 0.61566148304635926 0 0.78801074757464917 0.78801074757464917 0 -0.61566148304635926 forward_v I I I I #
coedge $-1 $129 $130 $131 $132 reversed $51 $-1 #
face $-1 $-1 $133 $27 $-1 $134 forward single #
loop $-1 $135 $136 $53 #
cone-surface $-1 56.766457971445902 12.220731483047253 13.399197441253104 -0.61566148304635926 0 -0.78801074757464917 0.39400537378732459 0 -0.30783074152317963 1 I I -0.70710678118654746 0.70710678118654746 0.5 forward I I I I #
loop $-1 $-1 $137 $34 #
coedge $-1 $86 $86 $138 $139 reversed $54 $-1 #
face $-1 $140 $141 $21 $-1 $142 reversed single #
loop $-1 $-1 $143 $56 #
plane-surface $-1 0 -45.584133517174095 0 0 1 0 0 0 1 forward_v I I I I #
coedge $-1 $144 $145 $146 $147 forward $57 $-1 #
coedge $-1 $148 $59 $149 $150 forward $36 $-1 #
coedge $-1 $59 $148 $151 $152 forward $36 $-1 #
coedge $-1 $153 $154 $59 $94 reversed $155 $-1 #
edge $-1 $156 -45.584133517174095 $157 45.584133517174095 $93 $158 forward 7 unknown #
face $-1 $159 $160 $22 $-1 $161 reversed single #
loop $-1 $-1 $162 $60 #
plane-surface $-1 -67.289651173436695 0 0 1 0 0 0 0 -1 forward_v I I I I #
coedge $-1 $163 $164 $165 $166 reversed $61 $-1 #
coedge $-1 $167 $63 $168 $169 reversed $39 $-1 #
coedge $-1 $63 $167 $163 $170 forward $39 $-1 #
coedge $-1 $165 $171 $63 $102 forward $172 $-1 #
edge $-1 $173 -27.731530001910208 $174 -7.9736770286175691 $101 $175 forward 7 unknown #
face $-1 $176 $177 $23 $-1 $178 forward single #
loop $-1 $-1 $179 $64 #
plane-surface $-1 -160.77629113748668 15.759048800026495 114.61518474904382 0 -1 0 0.69465837861970381 0 -0.71933979245794832 forward_v I I I I #
coedge $-1 $180 $181 $182 $183 reversed $65 $-1 #
coedge $-1 $108 $67 $184 $185 reversed $42 $-1 #
coedge $-1 $67 $107 $180 $186 reversed $42 $-1 #
coedge $-1 $182 $187 $67 $110 forward $177 $-1 #
edge $-1 $188 13.098494395306645 $189 17.601677853790463 $109 $190 forward 7 unknown #
loop $-1 $-1 $116 $68 #
plane-surface $-1 -67.28965117343671 9.9069776809905932 17.806937329708433 -0.69465837861970381 0 0.71933979245794832 0.71933979245794832 0 0.69465837861970381 forward_v I I I I #
loop $-1 $-1 $191 $44 #
coedge $-1 $114 $114 $115 $192 reversed $69 $-1 #
coedge $-1 $115 $115 $114 $192 forward $71 $-1 #
coedge $-1 $116 $116 $72 $117 forward $111 $-1 #
edge $-1 $193 0 $193 6.2831853071796004 $116 $194 forward 7 unknown #
loop $-1 $-1 $123 $73 #
plane-surface $-1 -67.28965117343671 9.9069776809905932 17.806937329708433 -0.69465837861970381 0 0.71933979245794832 0.71933979245794832 0 0.69465837861970381 forward_v I I I I #
loop $-1 $-1 $195 $47 #
coedge $-1 $121 $121 $122 $196 reversed $74 $-1 #
coedge $-1 $122 $122 $121 $196 forward $76 $-1 #
coedge $-1 $123 $123 $77 $124 forward $118 $-1 #
edge $-1 $197 0 $197 6.2831853071796004 $123 $198 forward 7 unknown #
face $-1 $199 $200 $26 $-1 $201 reversed single #
loop $-1 $-1 $202 $78 #
plane-surface $-1 44.095007393222701 2.8677695547312965 196.29341317045314 0 1 0 0.61566148304635926 0 0.78801074757464917 forward_v I I I I #
coedge $-1 $203 $204 $205 $206 reversed $79 $-1 #
coedge $-1 $130 $81 $207 $208 reversed $51 $-1 #
coedge $-1 $81 $129 $203 $209 reversed $51 $-1 #
coedge $-1 $205 $210 $81 $132 forward $211 $-1 #
edge $-1 $212 -45.242147476825345 $213 -26.340702606798281 $131 $214 forward 7 unknown #
loop $-1 $-1 $138 $82 #
plane-surface $-1 -38.760285476997751 12.220731483047253 90.243476520018703 0.61566148304635926 0 0.78801074757464917 0.78801074757464917 0 -0.61566148304635926 forward_v I I I I #
loop $-1 $-1 $215 $53 #
coedge $-1 $136 $136 $137 $216 reversed $83 $-1 #
coedge $-1 $137 $137 $136 $216 forward $85 $-1 #
coedge $-1 $138 $138 $86 $139 forward $133 $-1 #
edge $-1 $217 0 $217 6.2831853071796004 $138 $218 forward 7 unknown #
face $-1 $219 $220 $21 $-1 $221 reversed single #
loop $-1 $-1 $222 $87 #
plane-surface $-1 -67.289651173436695 0 0 1 0 0 0 0 -1 forward_v I I I I #
coedge $-1 $223 $151 $224 $225 forward $88 $-1 #
coedge $-1 $226 $90 $223 $227 forward $57 $-1 #
coedge $-1 $90 $226 $228 $229 forward $57 $-1 #
coedge $-1 $154 $153 $90 $147 reversed $155 $-1 #
edge $-1 $230 -45.584133517174095 $231 45.584133517174095 $146 $232 forward 7 unknown #
coedge $-1 $92 $91 $233 $234 forward $36 $-1 #
coedge $-1 $235 $236 $91 $150 reversed $220 $-1 #
edge $-1 $157 -67.289651173436695 $237 67.289651173436695 $149 $238 forward 7 unknown #
coedge $-1 $143 $239 $92 $152 reversed $88 $-1 #
edge $-1 $240 -67.289651173436695 $156 67.289651173436695 $151 $241 forward 7 unknown #
coedge $-1 $146 $93 $239 $242 forward $155 $-1 #
coedge $-1 $93 $146 $235 $243 reversed $155 $-1 #
loop $-1 $-1 $153 $219 #
vertex $-1 $94 $244 #
vertex $-1 $94 $245 #
straight-curve $-1 67.289651173436695 0 22.155611145192257 0 1 0 I I #
face $-1 $246 $247 $22 $-1 $248 forward single #
loop $-1 $-1 $168 $95 #
plane-surface $-1 0 -45.584133517174095 0 0 1 0 0 0 1 forward_v I I I I #
coedge $-1 $249 $250 $251 $252 forward $96 $-1 #
coedge $-1 $251 $98 $100 $170 reversed $61 $-1 #
coedge $-1 $98 $251 $253 $254 reversed $61 $-1 #
coedge $-1 $255 $101 $98 $166 forward $172 $-1 #
edge $-1 $174 1.8025310822294003 $256 14.169563736051701 $165 $257 forward 7 unknown #
coedge $-1 $100 $99 $249 $258 reversed $39 $-1 #
coedge $-1 $259 $260 $99 $169 forward $160 $-1 #
edge $-1 $261 -67.289651173436695 $173 67.289651173436695 $168 $262 forward 7 unknown #
edge $-1 $263 -67.289651173436695 $174 67.289651173436695 $163 $264 forward 7 unknown #
coedge $-1 $101 $255 $259 $265 forward $172 $-1 #
loop $-1 $-1 $165 $246 #
vertex $-1 $169 $266 #
vertex $-1 $102 $267 #
straight-curve $-1 67.289651173436695 -17.852603515263887 9.7885784913699521 0 1 0 I I #
face $-1 $-1 $268 $23 $-1 $269 reversed single #
loop $-1 $-1 $109 $103 #
plane-surface $-1 0 0 22.155611145192257 0 0 1 1 0 0 forward_v I I I I #
coedge $-1 $270 $271 $272 $273 reversed $104 $-1 #
coedge $-1 $274 $106 $108 $186 forward $65 $-1 #
coedge $-1 $106 $274 $270 $275 forward $65 $-1 #
coedge $-1 $272 $109 $106 $183 forward $177 $-1 #
edge $-1 $189 -0.89858227854060502 $276 10.805559959531198 $182 $277 forward 7 unknown #
coedge $-1 $278 $279 $107 $185 forward $268 $-1 #
edge $-1 $280 -39.500655044813463 $188 -35.15198122932965 $184 $281 forward 7 unknown #
edge $-1 $189 -6.2601617562357799 $280 -2.0094122576745862e-014 $108 $282 forward 7 unknown #
coedge $-1 $109 $272 $278 $283 forward $177 $-1 #
vertex $-1 $185 $284 #
vertex $-1 $110 $285 #
straight-curve $-1 -80.38814556874334 4.0549065619546916 22.155611145192253 1 0 0 I I #
coedge $-1 $191 $191 $-1 $286 reversed $113 $-1 #
edge $-1 $287 0 $287 6.2831853071796004 $114 $288 forward 7 unknown #
vertex $-1 $117 $289 #
ellipse-curve $-1 -65.038059444194786 7.3989472014037858 19.981274237450354 -0.69465837861970381 0 0.71933979245794832 1.0790096886869225 0 1.0419875679295556 1 I I #
coedge $-1 $195 $195 $-1 $290 reversed $120 $-1 #
edge $-1 $291 0 $291 6.2831853071796004 $121 $292 forward 7 unknown #
vertex $-1 $124 $293 #
ellipse-curve $-1 -65.038059444194786 12.415008160577415 19.981274237450354 -0.69465837861970381 0 0.71933979245794832 1.0790096886869225 0 1.0419875679295556 1 I I #
face $-1 $-1 $211 $26 $-1 $294 forward single #
loop $-1 $-1 $295 $125 #
plane-surface $-1 67.289651173436695 0 0 -1 0 0 0 0 1 forward_v I I I I #
coedge $-1 $296 $297 $298 $299 reversed $126 $-1 #
coedge $-1 $300 $128 $130 $209 forward $79 $-1 #
coedge $-1 $128 $300 $296 $301 forward $79 $-1 #
coedge $-1 $298 $131 $128 $206 forward $211 $-1 #
edge $-1 $213 -15.463327669839583 $302 3.2425961867923299 $205 $303 forward 7 unknown #
coedge $-1 $304 $305 $129 $208 forward $200 $-1 #
edge $-1 $306 -90.758522935428317 $212 -75.991095440034314 $207 $307 forward 7 unknown #
edge $-1 $213 110.5930243320085 $306 134.57930234687339 $130 $308 forward 7 unknown #
coedge $-1 $131 $298 $304 $309 forward $211 $-1 #
loop $-1 $-1 $298 $199 #
vertex $-1 $208 $310 #
vertex $-1 $132 $311 #
straight-curve $-1 22.047503696611351 21.573693411363209 22.155611145192253 -1 0 0 I I #
coedge $-1 $215 $215 $-1 $312 reversed $135 $-1 #
edge $-1 $313 0 $313 6.2831853071796004 $136 $314 forward 7 unknown #
vertex $-1 $139 $315 #
ellipse-curve $-1 57.838928738423171 12.220731483047253 14.77189739749525 0.61566148304635926 0 0.78801074757464917 0.78801074757464917 0 -0.61566148304635926 1 I I #
face $-1 $-1 $155 $21 $-1 $316 reversed single #
loop $-1 $-1 $235 $140 #
plane-surface $-1 0 45.584133517174095 0 0 -1 0 0 0 -1 forward_v I I I I #
coedge $-1 $317 $233 $236 $318 forward $141 $-1 #
coedge $-1 $239 $143 $144 $227 reversed $88 $-1 #
coedge $-1 $233 $317 $143 $225 reversed $141 $-1 #
edge $-1 $240 -22.155611145192257 $319 22.155611145192257 $224 $320 forward 7 unknown #
coedge $-1 $145 $144 $317 $321 forward $57 $-1 #
edge $-1 $231 -67.289651173436695 $319 67.289651173436695 $223 $322 forward 7 unknown #
coedge $-1 $236 $235 $145 $229 reversed $220 $-1 #
edge $-1 $323 -67.289651173436695 $230 67.289651173436695 $228 $324 forward 7 unknown #
vertex $-1 $147 $325 #
vertex $-1 $242 $326 #
straight-curve $-1 67.289651173436695 0 -22.155611145192257 0 -1 0 I I #
coedge $-1 $222 $224 $148 $234 reversed $141 $-1 #
edge $-1 $237 -45.584133517174095 $240 45.584133517174095 $233 $327 forward 7 unknown #
coedge $-1 $228 $149 $154 $243 forward $220 $-1 #
coedge $-1 $149 $228 $222 $318 reversed $220 $-1 #
vertex $-1 $150 $328 #
straight-curve $-1 0 45.584133517174095 22.155611145192257 -1 0 0 I I #
coedge $-1 $151 $223 $153 $242 reversed $88 $-1 #
vertex $-1 $234 $329 #
straight-curve $-1 0 -45.584133517174095 22.155611145192257 1 0 0 I I #
edge $-1 $156 -22.155611145192257 $231 22.155611145192257 $153 $330 forward 7 unknown #
edge $-1 $157 -22.155611145192257 $230 22.155611145192257 $154 $331 forward 7 unknown #
point $-1 67.289651173436695 -45.584133517174095 22.155611145192257 #
point $-1 67.289651173436695 45.584133517174095 22.155611145192257 #
face $-1 $-1 $172 $22 $-1 $332 reversed single #
loop $-1 $-1 $253 $159 #
plane-surface $-1 0 0 22.155611145192257 0 0 1 1 0 0 forward_v I I I I #
coedge $-1 $333 $162 $167 $258 forward $96 $-1 #
coedge $-1 $162 $333 $334 $335 reversed $96 $-1 #
coedge $-1 $164 $163 $162 $252 reversed $61 $-1 #
edge $-1 $336 -14.169563736051701 $263 -1.8025310822294003 $162 $337 forward 7 unknown #
coedge $-1 $334 $338 $164 $254 forward $247 $-1 #
edge $-1 $256 -67.289651173436695 $336 67.289651173436695 $253 $339 forward 7 unknown #
coedge $-1 $171 $165 $338 $340 reversed $172 $-1 #
vertex $-1 $166 $341 #
straight-curve $-1 67.289651173436695 -25.826280543881456 7.9860474091405518 0 0 1 I I #
edge $-1 $263 7.9736770286175691 $261 27.731530001910208 $249 $342 forward 7 unknown #
coedge $-1 $343 $168 $171 $265 reversed $160 $-1 #
coedge $-1 $168 $343 $333 $344 forward $160 $-1 #
vertex $-1 $169 $345 #
straight-curve $-1 0 -45.584133517174095 9.7885784913699521 1 0 0 I I #
vertex $-1 $258 $346 #
straight-curve $-1 0 -25.826280543881456 9.7885784913699521 1 0 0 I I #
edge $-1 $347 -22.155611145192257 $173 -9.7885784913699521 $171 $348 forward 7 unknown #
point $-1 67.289651173436695 -45.584133517174095 9.7885784913699521 #
point $-1 67.289651173436695 -25.826280543881456 9.7885784913699521 #
loop $-1 $-1 $184 $176 #
plane-surface $-1 -67.289651173436695 0 0 1 0 0 0 0 -1 forward_v I I I I #
coedge $-1 $271 $179 $181 $275 reversed $104 $-1 #
coedge $-1 $179 $270 $349 $350 reversed $104 $-1 #
coedge $-1 $187 $182 $179 $273 forward $177 $-1 #
edge $-1 $276 -17.601677853790463 $351 -13.098494395306645 $272 $352 forward 7 unknown #
coedge $-1 $181 $180 $279 $353 reversed $65 $-1 #
edge $-1 $354 2.0094122576745862e-014 $276 6.2601617562357799 $270 $355 forward 7 unknown #
vertex $-1 $183 $356 #
straight-curve $-1 -62.786467714952863 4.9534888404952966 22.15561114519226 0 1 0 I I #
coedge $-1 $349 $184 $187 $283 reversed $268 $-1 #
coedge $-1 $184 $349 $274 $353 forward $268 $-1 #
vertex $-1 $185 $357 #
straight-curve $-1 -67.289651173436695 4.0549065619546916 57.30759237452191 0 0 1 I I #
straight-curve $-1 -67.28965117343671 4.0549065619546916 17.806937329708433 -0.71933979245794832 0 -0.69465837861970381 I I #
edge $-1 $351 -15.759048800026495 $188 -4.0549065619546916 $278 $358 forward 7 unknown #
point $-1 -67.289651173436695 4.0549065619546916 22.155611145192257 #
point $-1 -62.786467714952877 4.0549065619546916 22.155611145192257 #
edge $-1 $359 1 $359 0 $191 $-1 forward 7 unknown #
vertex $-1 $192 $360 #
ellipse-curve $-1 -61.658492478366917 7.3989472014037858 16.481630276303722 -0.69465837861970381 0 0.71933979245794832 1.0790096886869225 0 1.0419875679295556 1 I I #
point $-1 -63.959049755507849 7.3989472014037858 21.023261805379896 #
edge $-1 $361 1 $361 0 $195 $-1 forward 7 unknown #
vertex $-1 $196 $362 #
ellipse-curve $-1 -61.658492478366917 12.415008160577415 16.481630276303722 -0.69465837861970381 0 0.71933979245794832 1.0790096886869225 0 1.0419875679295556 1 I I #
point $-1 -63.959049755507849 12.415008160577415 21.023261805379896 #
plane-surface $-1 0 0 22.155611145192257 0 0 1 1 0 0 forward_v I I I I #
coedge $-1 $305 $304 $297 $363 forward $200 $-1 #
coedge $-1 $297 $202 $204 $301 reversed $126 $-1 #
coedge $-1 $202 $296 $295 $363 reversed $126 $-1 #
coedge $-1 $210 $205 $202 $299 forward $211 $-1 #
edge $-1 $302 26.340702606798281 $364 45.242147476825345 $298 $365 forward 7 unknown #
coedge $-1 $204 $203 $305 $366 reversed $79 $-1 #
edge $-1 $367 -134.57930234687339 $302 -110.5930243320085 $296 $368 forward 7 unknown #
vertex $-1 $206 $369 #
straight-curve $-1 48.388206303409632 6.1103657415236263 22.155611145192253 0 -1 0 I I #
coedge $-1 $295 $207 $210 $309 reversed $200 $-1 #
coedge $-1 $207 $295 $300 $366 forward $200 $-1 #
vertex $-1 $208 $370 #
straight-curve $-1 67.289651173436695 21.573693411363209 98.146706585226568 0 0 1 I I #
straight-curve $-1 -38.760285476997751 21.573693411363209 90.243476520018703 0.78801074757464917 0 -0.61566148304635926 I I #
edge $-1 $364 2.8677695547312965 $212 21.573693411363209 $304 $371 forward 7 unknown #
point $-1 67.289651173436695 21.573693411363209 22.155611145192257 #
point $-1 48.388206303409632 21.573693411363209 22.155611145192253 #
edge $-1 $372 1 $372 0 $215 $-1 forward 7 unknown #
vertex $-1 $216 $373 #
ellipse-curve $-1 57.074288712969079 12.220731483047253 13.793202815040429 0.61566148304635926 0 0.78801074757464917 0.78801074757464917 0 -0.61566148304635926 1 I I #
point $-1 58.626939485997838 12.220731483047253 14.156235914448915 #
plane-surface $-1 67.289651173436695 0 0 -1 0 0 0 0 1 forward_v I I I I #
coedge $-1 $224 $222 $226 $321 reversed $141 $-1 #
edge $-1 $237 -22.155611145192257 $323 22.155611145192257 $236 $374 forward 7 unknown #
vertex $-1 $321 $375 #
straight-curve $-1 -67.289651173436695 -45.584133517174095 0 0 0 -1 I I #
edge $-1 $319 -45.584133517174095 $323 45.584133517174095 $317 $376 forward 7 unknown #
straight-curve $-1 0 -45.584133517174095 -22.155611145192257 -1 0 0 I I #
vertex $-1 $229 $377 #
straight-curve $-1 0 45.584133517174095 -22.155611145192257 1 0 0 I I #
point $-1 67.289651173436695 45.584133517174095 -22.155611145192257 #
point $-1 67.289651173436695 -45.584133517174095 -22.155611145192257 #
straight-curve $-1 -67.289651173436695 0 22.155611145192257 0 -1 0 I I #
point $-1 -67.289651173436695 45.584133517174095 22.155611145192257 #
point $-1 -67.289651173436695 -45.584133517174095 22.155611145192257 #
straight-curve $-1 67.289651173436695 -45.584133517174095 0 0 0 -1 I I #
straight-curve $-1 67.289651173436695 45.584133517174095 0 0 0 -1 I I #
plane-surface $-1 67.289651173436695 0 0 -1 0 0 0 0 1 forward_v I I I I #
coedge $-1 $250 $249 $260 $344 reversed $96 $-1 #
coedge $-1 $378 $253 $250 $335 forward $247 $-1 #
edge $-1 $336 25.826280543881456 $379 45.584133517174095 $250 $380 forward 7 unknown #
vertex $-1 $335 $381 #
straight-curve $-1 -67.289651173436695 -25.826280543881456 7.9860474091405518 0 0 -1 I I #
coedge $-1 $253 $378 $255 $340 forward $247 $-1 #
straight-curve $-1 0 -25.826280543881456 22.155611145192257 -1 0 0 I I #
edge $-1 $347 -45.584133517174095 $256 -25.826280543881456 $255 $382 forward 7 unknown #
point $-1 67.289651173436695 -25.826280543881456 22.155611145192253 #
straight-curve $-1 -67.289651173436695 -17.852603515263887 9.7885784913699521 0 -1 0 I I #
coedge $-1 $260 $259 $378 $383 reversed $160 $-1 #
edge $-1 $379 -22.155611145192257 $261 -9.7885784913699521 $333 $384 forward 7 unknown #
point $-1 -67.289651173436695 -45.584133517174095 9.7885784913699521 #
point $-1 -67.289651173436695 -25.826280543881456 9.7885784913699521 #
vertex $-1 $340 $385 #
straight-curve $-1 67.289651173436695 -45.584133517174095 0 0 0 -1 I I #
coedge $-1 $279 $278 $271 $350 forward $268 $-1 #
edge $-1 $351 35.15198122932965 $354 39.500655044813463 $349 $386 forward 7 unknown #
vertex $-1 $283 $387 #
straight-curve $-1 -80.38814556874334 15.759048800026495 22.155611145192253 -1 0 0 I I #
edge $-1 $354 -10.805559959531198 $280 0.89858227854060502 $279 $388 forward 7 unknown #
vertex $-1 $353 $389 #
straight-curve $-1 -67.28965117343671 15.759048800026495 17.806937329708433 0.71933979245794832 0 0.69465837861970381 I I #
point $-1 -62.786467714952877 15.759048800026495 22.155611145192257 #
point $-1 -67.289651173436695 4.0549065619546916 17.806937329708447 #
straight-curve $-1 -67.289651173436695 0 22.155611145192257 0 -1 0 I I #
vertex $-1 $286 $390 #
point $-1 -60.579482789679993 7.3989472014037858 17.523617844233279 #
vertex $-1 $290 $391 #
point $-1 -60.579482789679993 12.415008160577415 17.523617844233279 #
edge $-1 $364 75.991095440034314 $367 90.758522935428317 $295 $392 forward 7 unknown #
vertex $-1 $309 $393 #
straight-curve $-1 22.047503696611351 2.8677695547312965 22.155611145192253 1 0 0 I I #
edge $-1 $367 -3.2425961867923299 $306 15.463327669839583 $305 $394 forward 7 unknown #
vertex $-1 $366 $395 #
straight-curve $-1 -38.760285476997751 2.8677695547312965 90.243476520018703 -0.78801074757464917 0 0.61566148304635926 I I #
point $-1 48.388206303409632 2.8677695547312965 22.155611145192253 #
point $-1 67.289651173436681 21.573693411363209 7.3881836497982505 #
straight-curve $-1 67.289651173436695 0 22.155611145192257 0 1 0 I I #
vertex $-1 $312 $396 #
point $-1 57.862299460543731 12.220731483047253 13.177541331994069 #
straight-curve $-1 -67.289651173436695 45.584133517174095 0 0 0 -1 I I #
point $-1 -67.289651173436695 -45.584133517174095 -22.155611145192257 #
straight-curve $-1 -67.289651173436695 0 -22.155611145192257 0 1 0 I I #
point $-1 -67.289651173436695 45.584133517174095 -22.155611145192257 #
coedge $-1 $338 $334 $343 $383 forward $247 $-1 #
vertex $-1 $335 $397 #
straight-curve $-1 -67.289651173436695 0 22.155611145192257 0 -1 0 I I #
point $-1 -67.289651173436695 -25.826280543881456 22.155611145192253 #
straight-curve $-1 67.289651173436695 0 22.155611145192257 0 1 0 I I #
edge $-1 $379 -67.289651173436695 $347 67.289651173436695 $343 $398 forward 7 unknown #
straight-curve $-1 -67.289651173436695 -45.584133517174095 0 0 0 -1 I I #
point $-1 67.289651173436695 -45.584133517174095 22.155611145192257 #
straight-curve $-1 -67.289651173436695 15.759048800026495 57.30759237452191 0 0 -1 I I #
point $-1 -67.289651173436695 15.759048800026495 22.155611145192257 #
straight-curve $-1 -67.289651173436695 4.9534888404952966 17.806937329708447 0 -1 0 I I #
point $-1 -67.289651173436695 15.759048800026495 17.806937329708447 #
point $-1 -60.616504910437364 7.3989472014037858 15.402620587616799 #
point $-1 -60.616504910437364 12.415008160577415 15.402620587616799 #
straight-curve $-1 67.289651173436695 2.8677695547312965 98.146706585226568 0 0 -1 I I #
point $-1 67.289651173436695 2.8677695547312965 22.155611145192257 #
straight-curve $-1 67.28965117343671 6.1103657415236263 7.3881836497982363 0 1 0 I I #
point $-1 67.289651173436681 2.8677695547312965 7.3881836497982505 #
point $-1 56.458627229922726 12.220731483047253 13.00519206746578 #
point $-1 -67.289651173436695 -45.584133517174095 22.155611145192257 #
straight-curve $-1 0 -45.584133517174095 22.155611145192257 1 0 0 I I #
End-of-ACIS-data 