500 0 8 0           
7 Unknown 11 ACIS 5.0 NT 24 Fri Mar 26 18:26:05 1999 
-1 9.9999999999999995e-007 1e-010 
body $-1 $8 $-1 $9 #
body $-1 $10 $-1 $11 #
body $-1 $12 $-1 $13 #
body $-1 $14 $-1 $15 #
body $-1 $16 $-1 $17 #
body $-1 $18 $-1 $19 #
body $-1 $20 $-1 $21 #
body $-1 $22 $-1 $23 #
lump $-1 $-1 $24 $0 #
transform $-1 1 0 0 0 1 0 0 0 1 44.897610400708032 30.103473021746133 11.747125394224584 1 rotate no_reflect no_shear #
lump $-1 $-1 $25 $1 #
transform $-1 1 0 0 0 1 0 0 0 1 44.897610400708032 30.103473021746133 11.747125394224584 1 rotate no_reflect no_shear #
lump $-1 $-1 $26 $2 #
transform $-1 1 0 0 0 1 0 0 0 1 44.897610400708032 30.103473021746133 11.747125394224584 1 rotate no_reflect no_shear #
lump $-1 $-1 $27 $3 #
transform $-1 1 0 0 0 1 0 0 0 1 44.897610400708032 30.103473021746133 11.747125394224584 1 rotate no_reflect no_shear #
lump $-1 $-1 $28 $4 #
transform $-1 1 0 0 0 1 0 0 0 1 44.897610400708032 30.103473021746133 11.747125394224584 1 rotate no_reflect no_shear #
lump $-1 $-1 $29 $5 #
transform $-1 1 0 0 0 1 0 0 0 1 44.897610400708032 30.103473021746133 11.747125394224584 1 rotate no_reflect no_shear #
lump $-1 $-1 $30 $6 #
transform $-1 1 0 0 0 1 0 0 0 1 44.897610400708032 30.103473021746133 11.747125394224584 1 rotate no_reflect no_shear #
lump $-1 $-1 $31 $7 #
transform $-1 1 0 0 0 1 0 0 0 1 44.897610400708032 30.103473021746133 11.747125394224584 1 rotate no_reflect no_shear #
shell $-1 $-1 $-1 $32 $-1 $8 #
shell $-1 $-1 $-1 $33 $-1 $10 #
shell $-1 $-1 $-1 $34 $-1 $12 #
shell $-1 $-1 $-1 $35 $-1 $14 #
shell $-1 $-1 $-1 $36 $-1 $16 #
shell $-1 $-1 $-1 $37 $-1 $18 #
shell $-1 $-1 $-1 $38 $-1 $20 #
shell $-1 $-1 $-1 $39 $-1 $22 #
face $-1 $40 $41 $24 $-1 $42 forward single #
face $-1 $43 $44 $25 $-1 $45 forward single #
face $-1 $46 $47 $26 $-1 $48 forward single #
face $-1 $49 $50 $27 $-1 $51 reversed single #
face $-1 $52 $53 $28 $-1 $54 forward single #
face $-1 $55 $56 $29 $-1 $57 forward single #
face $-1 $58 $59 $30 $-1 $60 reversed single #
face $-1 $61 $62 $31 $-1 $63 forward single #
face $-1 $64 $65 $24 $-1 $66 reversed single #
loop $-1 $-1 $67 $32 #
plane-surface $-1 0 0 11.747125394224584 0 0 1 1 0 0 forward_v I I I I #
face $-1 $68 $69 $25 $-1 $70 reversed single #
loop $-1 $-1 $71 $33 #
plane-surface $-1 -44.897610400708032 0 0 1 0 0 0 0 -1 forward_v I I I I #
face $-1 $72 $73 $26 $-1 $74 reversed single #
loop $-1 $-1 $75 $34 #
plane-surface $-1 44.897610400708032 0 0 -1 0 0 0 0 1 forward_v I I I I #
face $-1 $76 $77 $27 $-1 $78 reversed single #
loop $-1 $-1 $79 $35 #
plane-surface $-1 32.933503586957684 -85.386931830821226 72.349815630885885 -1 0 0 0 -0.61566148304635926 0.78801074757464917 forward_v I I I I #
face $-1 $80 $81 $28 $-1 $82 forward single #
loop $-1 $83 $84 $36 #
cone-surface $-1 25.965273954450055 -22.969263749451358 5.8570802691488657 0 0.61566148304635926 -0.78801074757464917 1 0 0 1 I I 0 1 1 forward I I I I #
face $-1 $85 $86 $29 $-1 $87 forward single #
loop $-1 $88 $89 $37 #
cone-surface $-1 30.14621173395463 -22.969263749451358 5.8570802691488657 0 0.61566148304635926 -0.78801074757464917 1 0 0 1 I I 0 1 1 forward I I I I #
face $-1 $90 $91 $30 $-1 $92 reversed single #
loop $-1 $-1 $93 $38 #
plane-surface $-1 -5.3834305879393582 61.998008756040043 106.85904904168356 1 0 0 0 -0.77714596973225614 -0.62932038083071107 forward_v I I I I #
face $-1 $94 $95 $31 $-1 $96 forward single #
loop $-1 $97 $98 $39 #
cone-surface $-1 2.3151917279583358 25.379221599343925 6.5122078756920923 0 -0.77714596973225614 -0.62932038083071107 1.5 0 0 1 I I 0 1 1.5 forward I I I I #
face $-1 $99 $100 $24 $-1 $101 reversed single #
loop $-1 $-1 $102 $40 #
plane-surface $-1 0 0 -11.747125394224584 0 0 1 1 0 0 forward_v I I I I #
coedge $-1 $103 $104 $105 $106 forward $41 $-1 #
face $-1 $107 $108 $25 $-1 $109 forward single #
loop $-1 $-1 $110 $43 #
plane-surface $-1 0 30.103473021746133 0 0 -1 0 0 0 -1 forward_v I I I I #
coedge $-1 $111 $112 $113 $114 forward $44 $-1 #
face $-1 $115 $116 $26 $-1 $117 forward single #
loop $-1 $-1 $118 $46 #
plane-surface $-1 0 30.103473021746133 0 0 -1 0 0 0 -1 forward_v I I I I #
coedge $-1 $119 $120 $121 $122 forward $47 $-1 #
face $-1 $123 $124 $27 $-1 $125 reversed single #
loop $-1 $-1 $126 $49 #
plane-surface $-1 28.055742844202342 -30.103473021746126 1.5902165585313242 0 -0.61566148304635926 0.78801074757464917 1 0 0 forward_v I I I I #
coedge $-1 $127 $128 $129 $130 reversed $50 $-1 #
face $-1 $-1 $131 $28 $-1 $132 forward single #
loop $-1 $133 $134 $52 #
cone-surface $-1 25.965273954450055 -22.027348840958147 4.6514841881324553 0 0.61566148304635926 -0.78801074757464917 0.5 0 0 1 I I -0.70710678118654746 0.70710678118654746 0.5 forward I I I I #
loop $-1 $-1 $135 $36 #
coedge $-1 $84 $84 $136 $137 reversed $53 $-1 #
face $-1 $-1 $138 $29 $-1 $139 forward single #
loop $-1 $140 $141 $55 #
cone-surface $-1 30.14621173395463 -22.027348840958147 4.6514841881324553 0 0.61566148304635926 -0.78801074757464917 0.5 0 0 1 I I -0.70710678118654746 0.70710678118654746 0.5 forward I I I I #
loop $-1 $-1 $142 $37 #
coedge $-1 $89 $89 $143 $144 reversed $56 $-1 #
face $-1 $145 $146 $30 $-1 $147 reversed single #
loop $-1 $-1 $148 $58 #
plane-surface $-1 2.3151917279583358 -7.7859851909984954 50.349086490158619 0 0.77714596973225614 0.62932038083071107 1 0 0 forward_v I I I I #
coedge $-1 $149 $150 $151 $152 reversed $59 $-1 #
face $-1 $-1 $153 $31 $-1 $154 forward single #
loop $-1 $155 $156 $61 #
cone-surface $-1 2.3151917279583358 23.387214353492084 4.8991122573632548 0 -0.77714596973225614 -0.62932038083071107 0.75 0 0 1 I I -0.70710678118654757 0.70710678118654757 0.75 forward I I I I #
loop $-1 $-1 $157 $39 #
coedge $-1 $98 $98 $158 $159 reversed $62 $-1 #
face $-1 $160 $161 $24 $-1 $162 reversed single #
loop $-1 $-1 $163 $64 #
plane-surface $-1 0 -30.103473021746133 0 0 1 0 0 0 1 forward_v I I I I #
coedge $-1 $164 $165 $166 $167 forward $65 $-1 #
coedge $-1 $168 $67 $169 $170 forward $41 $-1 #
coedge $-1 $67 $168 $171 $172 forward $41 $-1 #
coedge $-1 $173 $174 $67 $106 reversed $175 $-1 #
edge $-1 $176 -30.103473021746133 $177 30.103473021746133 $105 $178 forward 7 unknown #
face $-1 $179 $180 $25 $-1 $181 reversed single #
loop $-1 $-1 $113 $68 #
plane-surface $-1 -50.879663807583206 0 -8.7471253942245841 0 0 1 1 0 0 forward_v I I I I #
coedge $-1 $182 $183 $112 $184 forward $69 $-1 #
coedge $-1 $185 $71 $186 $187 reversed $44 $-1 #
coedge $-1 $71 $185 $110 $184 reversed $44 $-1 #
coedge $-1 $188 $189 $71 $114 reversed $108 $-1 #
edge $-1 $190 -30.103473021746133 $191 30.103473021746133 $113 $192 forward 7 unknown #
face $-1 $193 $194 $26 $-1 $195 reversed single #
loop $-1 $-1 $196 $72 #
plane-surface $-1 50.879663807583199 0 -8.7471253942245841 0 0 1 1 0 0 forward_v I I I I #
coedge $-1 $197 $198 $119 $199 forward $73 $-1 #
coedge $-1 $200 $75 $118 $199 reversed $47 $-1 #
coedge $-1 $75 $200 $201 $202 reversed $47 $-1 #
coedge $-1 $203 $204 $75 $122 reversed $116 $-1 #
edge $-1 $205 -30.103473021746133 $206 30.103473021746133 $121 $207 forward 7 unknown #
face $-1 $208 $209 $27 $-1 $210 forward single #
loop $-1 $-1 $211 $76 #
plane-surface $-1 23.177982101447 -85.386931830821226 72.349815630885885 1 0 0 0 0.61566148304635926 -0.78801074757464917 forward_v I I I I #
coedge $-1 $212 $213 $214 $215 reversed $77 $-1 #
coedge $-1 $128 $79 $216 $217 reversed $50 $-1 #
coedge $-1 $79 $127 $212 $218 reversed $50 $-1 #
coedge $-1 $214 $219 $79 $130 forward $209 $-1 #
edge $-1 $220 12.58999289366448 $221 25.59024310431397 $129 $222 forward 7 unknown #
loop $-1 $-1 $136 $80 #
plane-surface $-1 28.055742844202342 -30.103473021746126 1.5902165585313242 0 -0.61566148304635926 0.78801074757464917 1 0 0 forward_v I I I I #
loop $-1 $-1 $223 $52 #
coedge $-1 $134 $134 $135 $224 reversed $81 $-1 #
coedge $-1 $135 $135 $134 $224 forward $83 $-1 #
coedge $-1 $136 $136 $84 $137 forward $131 $-1 #
edge $-1 $225 0 $225 6.2831853071796004 $136 $226 forward 7 unknown #
loop $-1 $-1 $143 $85 #
plane-surface $-1 28.055742844202342 -30.103473021746126 1.5902165585313242 0 -0.61566148304635926 0.78801074757464917 1 0 0 forward_v I I I I #
loop $-1 $-1 $227 $55 #
coedge $-1 $141 $141 $142 $228 reversed $86 $-1 #
coedge $-1 $142 $142 $141 $228 forward $88 $-1 #
coedge $-1 $143 $143 $89 $144 forward $138 $-1 #
edge $-1 $229 0 $229 6.2831853071796004 $143 $230 forward 7 unknown #
face $-1 $231 $232 $30 $-1 $233 reversed single #
loop $-1 $-1 $234 $90 #
plane-surface $-1 10.01381404385603 61.998008756040043 106.85904904168356 -1 0 0 0 0.77714596973225614 0.62932038083071107 forward_v I I I I #
coedge $-1 $235 $236 $237 $238 reversed $91 $-1 #
coedge $-1 $150 $93 $239 $240 reversed $59 $-1 #
coedge $-1 $93 $149 $235 $241 reversed $59 $-1 #
coedge $-1 $237 $242 $93 $152 forward $243 $-1 #
edge $-1 $244 0.89553135627388869 $245 7.5257386639730051 $151 $246 forward 7 unknown #
loop $-1 $-1 $158 $94 #
plane-surface $-1 2.3151917279583358 -7.7859851909984954 50.349086490158619 0 0.77714596973225614 0.62932038083071107 1 0 0 forward_v I I I I #
loop $-1 $-1 $247 $61 #
coedge $-1 $156 $156 $157 $248 reversed $95 $-1 #
coedge $-1 $157 $157 $156 $248 forward $97 $-1 #
coedge $-1 $158 $158 $98 $159 forward $153 $-1 #
edge $-1 $249 1.600571608554044e-015 $249 6.2831853071796022 $158 $250 forward 7 unknown #
face $-1 $251 $252 $24 $-1 $253 reversed single #
loop $-1 $-1 $254 $99 #
plane-surface $-1 -44.897610400708032 0 0 1 0 0 0 0 -1 forward_v I I I I #
coedge $-1 $255 $171 $254 $256 forward $100 $-1 #
coedge $-1 $257 $102 $255 $258 forward $65 $-1 #
coedge $-1 $102 $257 $259 $260 forward $65 $-1 #
coedge $-1 $174 $173 $102 $167 reversed $175 $-1 #
edge $-1 $261 -30.103473021746133 $262 30.103473021746133 $166 $263 forward 7 unknown #
coedge $-1 $104 $103 $264 $265 forward $41 $-1 #
coedge $-1 $266 $267 $103 $170 reversed $252 $-1 #
edge $-1 $177 -44.897610400708032 $268 44.897610400708032 $169 $269 forward 7 unknown #
coedge $-1 $163 $270 $104 $172 reversed $100 $-1 #
edge $-1 $271 -44.897610400708032 $176 44.897610400708032 $171 $272 forward 7 unknown #
coedge $-1 $166 $105 $270 $273 forward $175 $-1 #
coedge $-1 $105 $166 $266 $274 reversed $175 $-1 #
loop $-1 $-1 $174 $251 #
vertex $-1 $106 $275 #
vertex $-1 $106 $276 #
straight-curve $-1 44.897610400708032 0 11.747125394224584 0 1 0 I I #
face $-1 $277 $278 $25 $-1 $279 reversed single #
loop $-1 $-1 $280 $107 #
plane-surface $-1 -56.86171721445838 0 -10.247125394224584 1 0 0 0 0 -1 forward_v I I I I #
coedge $-1 $281 $110 $282 $283 reversed $69 $-1 #
coedge $-1 $110 $281 $188 $284 reversed $69 $-1 #
edge $-1 $190 8.7471253942245841 $285 11.747125394224584 $110 $286 forward 7 unknown #
coedge $-1 $112 $111 $287 $288 reversed $44 $-1 #
coedge $-1 $289 $290 $111 $187 forward $291 $-1 #
edge $-1 $292 -11.747125394224584 $191 -8.7471253942245841 $186 $293 forward 7 unknown #
coedge $-1 $294 $113 $183 $284 forward $108 $-1 #
coedge $-1 $113 $294 $289 $295 forward $108 $-1 #
vertex $-1 $184 $296 #
vertex $-1 $295 $297 #
straight-curve $-1 -44.897610400708032 0 -8.7471253942245841 0 -1 0 I I #
face $-1 $298 $299 $26 $-1 $300 reversed single #
loop $-1 $-1 $301 $115 #
plane-surface $-1 56.861717214458373 0 -10.247125394224584 -1 0 0 0 0 1 forward_v I I I I #
coedge $-1 $204 $203 $302 $303 forward $116 $-1 #
coedge $-1 $304 $118 $204 $305 reversed $73 $-1 #
coedge $-1 $118 $304 $306 $307 reversed $73 $-1 #
edge $-1 $308 -11.747125394224584 $206 -8.7471253942245841 $118 $309 forward 7 unknown #
coedge $-1 $120 $119 $310 $311 reversed $47 $-1 #
coedge $-1 $312 $313 $120 $202 forward $314 $-1 #
edge $-1 $205 8.7471253942245841 $315 11.747125394224584 $201 $316 forward 7 unknown #
coedge $-1 $196 $121 $313 $317 forward $116 $-1 #
coedge $-1 $121 $196 $197 $305 forward $116 $-1 #
vertex $-1 $202 $318 #
vertex $-1 $305 $319 #
straight-curve $-1 44.897610400708032 0 -8.7471253942245841 0 1 0 I I #
face $-1 $-1 $320 $27 $-1 $321 reversed single #
loop $-1 $-1 $129 $123 #
plane-surface $-1 0 0 11.747125394224584 0 0 1 1 0 0 forward_v I I I I #
coedge $-1 $322 $323 $324 $325 reversed $124 $-1 #
coedge $-1 $326 $126 $128 $218 forward $77 $-1 #
coedge $-1 $126 $326 $322 $327 forward $77 $-1 #
coedge $-1 $324 $129 $126 $215 forward $209 $-1 #
edge $-1 $221 -18.905632164856513 $328 -9.1501106793458291 $214 $329 forward 7 unknown #
coedge $-1 $330 $331 $127 $217 forward $320 $-1 #
edge $-1 $332 -34.584691256911626 $220 -24.42778242121836 $216 $333 forward 7 unknown #
edge $-1 $221 -16.49755444410097 $332 9.0167608931652224e-015 $128 $334 forward 7 unknown #
coedge $-1 $129 $324 $330 $335 forward $209 $-1 #
vertex $-1 $217 $336 #
vertex $-1 $130 $337 #
straight-curve $-1 32.933503586957684 -42.693465915410613 11.747125394224582 0 1 0 I I #
coedge $-1 $223 $223 $-1 $338 reversed $133 $-1 #
edge $-1 $339 0 $339 6.2831853071796004 $134 $340 forward 7 unknown #
vertex $-1 $137 $341 #
ellipse-curve $-1 25.965273954450055 -23.603347916421388 6.6686709763779515 0 -0.61566148304635926 0.78801074757464917 1 0 0 1 I I #
coedge $-1 $227 $227 $-1 $342 reversed $140 $-1 #
edge $-1 $343 0 $343 6.2831853071796004 $141 $344 forward 7 unknown #
vertex $-1 $144 $345 #
ellipse-curve $-1 30.14621173395463 -23.603347916421388 6.6686709763779515 0 -0.61566148304635926 0.78801074757464917 1 0 0 1 I I #
face $-1 $-1 $243 $30 $-1 $346 forward single #
loop $-1 $-1 $347 $145 #
plane-surface $-1 0 30.103473021746133 0 0 -1 0 0 0 -1 forward_v I I I I #
coedge $-1 $348 $349 $350 $351 reversed $146 $-1 #
coedge $-1 $352 $148 $150 $241 forward $91 $-1 #
coedge $-1 $148 $352 $348 $353 forward $91 $-1 #
coedge $-1 $350 $151 $148 $238 forward $243 $-1 #
edge $-1 $245 -6.5410264519185262 $354 8.856218179876862 $237 $355 forward 7 unknown #
coedge $-1 $356 $357 $149 $240 forward $232 $-1 #
edge $-1 $358 -49.870023498270584 $244 -41.682399126617199 $239 $359 forward 7 unknown #
edge $-1 $245 49.671442173512474 $358 60.206946043492273 $150 $360 forward 7 unknown #
coedge $-1 $151 $350 $356 $361 forward $243 $-1 #
loop $-1 $-1 $350 $231 #
vertex $-1 $240 $362 #
vertex $-1 $152 $363 #
straight-curve $-1 -5.3834305879393582 30.999004378020022 11.747125394224582 0 -1 0 I I #
coedge $-1 $247 $247 $-1 $364 reversed $155 $-1 #
edge $-1 $365 0 $365 6.2831853071796004 $156 $366 forward 7 unknown #
vertex $-1 $159 $367 #
ellipse-curve $-1 2.3151917279583358 26.788369367896571 7.6533132083978925 0 0.77714596973225614 0.62932038083071107 1.5 0 0 1 I I #
face $-1 $-1 $175 $24 $-1 $368 reversed single #
loop $-1 $-1 $266 $160 #
plane-surface $-1 0 30.103473021746133 0 0 -1 0 0 0 -1 forward_v I I I I #
coedge $-1 $264 $369 $163 $256 reversed $161 $-1 #
coedge $-1 $270 $163 $164 $258 reversed $100 $-1 #
edge $-1 $271 -11.747125394224584 $370 11.747125394224584 $254 $371 forward 7 unknown #
coedge $-1 $165 $164 $369 $372 forward $65 $-1 #
edge $-1 $262 -44.897610400708032 $370 44.897610400708032 $255 $373 forward 7 unknown #
coedge $-1 $267 $266 $165 $260 reversed $252 $-1 #
edge $-1 $374 -44.897610400708032 $261 44.897610400708032 $259 $375 forward 7 unknown #
vertex $-1 $167 $376 #
vertex $-1 $273 $377 #
straight-curve $-1 44.897610400708032 0 -11.747125394224584 0 -1 0 I I #
coedge $-1 $378 $254 $168 $265 reversed $161 $-1 #
edge $-1 $268 -30.103473021746133 $271 30.103473021746133 $264 $379 forward 7 unknown #
coedge $-1 $259 $169 $174 $274 forward $252 $-1 #
coedge $-1 $169 $259 $378 $380 reversed $252 $-1 #
vertex $-1 $170 $381 #
straight-curve $-1 0 30.103473021746133 11.747125394224584 -1 0 0 I I #
coedge $-1 $171 $255 $173 $273 reversed $100 $-1 #
vertex $-1 $265 $382 #
straight-curve $-1 0 -30.103473021746133 11.747125394224584 1 0 0 I I #
edge $-1 $176 -11.747125394224584 $262 11.747125394224584 $173 $383 forward 7 unknown #
edge $-1 $177 -11.747125394224584 $261 11.747125394224584 $174 $384 forward 7 unknown #
point $-1 44.897610400708032 -30.103473021746133 11.747125394224584 #
point $-1 44.897610400708032 30.103473021746133 11.747125394224584 #
face $-1 $-1 $291 $25 $-1 $385 reversed single #
loop $-1 $-1 $287 $179 #
plane-surface $-1 0 0 -11.747125394224584 0 0 1 1 0 0 forward_v I I I I #
coedge $-1 $386 $387 $281 $388 forward $180 $-1 #
coedge $-1 $183 $182 $280 $388 reversed $69 $-1 #
coedge $-1 $287 $389 $182 $283 forward $278 $-1 #
edge $-1 $390 -56.86171721445838 $285 -44.897610400708032 $182 $391 forward 7 unknown #
edge $-1 $190 -5.9820534068751741 $392 5.9820534068751741 $183 $393 forward 7 unknown #
vertex $-1 $184 $394 #
straight-curve $-1 -44.897610400708032 30.103473021746133 0 0 0 -1 I I #
coedge $-1 $395 $282 $185 $288 forward $278 $-1 #
edge $-1 $285 -30.103473021746133 $292 30.103473021746133 $287 $396 forward 7 unknown #
coedge $-1 $397 $186 $189 $295 reversed $291 $-1 #
coedge $-1 $186 $397 $395 $398 reversed $291 $-1 #
loop $-1 $-1 $186 $277 #
vertex $-1 $398 $399 #
straight-curve $-1 -44.897610400708032 -30.103473021746133 0 0 0 1 I I #
coedge $-1 $189 $188 $387 $400 forward $108 $-1 #
edge $-1 $401 -5.9820534068751741 $191 5.9820534068751741 $289 $402 forward 7 unknown #
point $-1 -44.897610400708032 30.103473021746133 -8.7471253942245841 #
point $-1 -44.897610400708032 -30.103473021746133 -8.7471253942245841 #
face $-1 $-1 $314 $26 $-1 $403 reversed single #
loop $-1 $-1 $310 $193 #
plane-surface $-1 0 0 -11.747125394224584 0 0 1 1 0 0 forward_v I I I I #
coedge $-1 $404 $302 $405 $406 forward $194 $-1 #
coedge $-1 $301 $407 $196 $303 reversed $194 $-1 #
edge $-1 $408 -30.103473021746133 $409 30.103473021746133 $302 $410 forward 7 unknown #
coedge $-1 $198 $197 $407 $411 forward $73 $-1 #
edge $-1 $409 -5.9820534068751741 $206 5.9820534068751741 $197 $412 forward 7 unknown #
coedge $-1 $413 $310 $198 $307 forward $299 $-1 #
edge $-1 $308 -5.982053406875167 $414 5.9820534068751741 $198 $415 forward 7 unknown #
vertex $-1 $307 $416 #
straight-curve $-1 44.897610400708032 30.103473021746133 0 0 0 1 I I #
coedge $-1 $306 $417 $200 $311 forward $299 $-1 #
edge $-1 $315 -30.103473021746133 $308 30.103473021746133 $310 $418 forward 7 unknown #
coedge $-1 $405 $201 $417 $419 reversed $314 $-1 #
coedge $-1 $201 $405 $203 $317 reversed $314 $-1 #
loop $-1 $-1 $201 $298 #
vertex $-1 $202 $420 #
straight-curve $-1 44.897610400708032 -30.103473021746133 0 0 0 -1 I I #
edge $-1 $205 -5.9820534068751741 $408 5.9820534068751741 $313 $421 forward 7 unknown #
point $-1 44.897610400708025 -30.103473021746133 -8.7471253942245841 #
point $-1 44.897610400708025 30.103473021746133 -8.7471253942245841 #
loop $-1 $-1 $216 $208 #
plane-surface $-1 0 -30.103473021746133 0 0 1 0 0 0 1 forward_v I I I I #
coedge $-1 $323 $211 $213 $327 reversed $124 $-1 #
coedge $-1 $211 $322 $422 $423 reversed $124 $-1 #
coedge $-1 $219 $214 $211 $325 forward $209 $-1 #
edge $-1 $328 -25.59024310431397 $424 -12.58999289366448 $324 $425 forward 7 unknown #
coedge $-1 $213 $212 $331 $426 reversed $77 $-1 #
edge $-1 $427 -9.0167608931652224e-015 $328 16.49755444410097 $322 $428 forward 7 unknown #
vertex $-1 $215 $429 #
straight-curve $-1 14.027871422101171 -17.103222811096643 11.747125394224584 -1 0 0 I I #
coedge $-1 $422 $216 $219 $335 reversed $320 $-1 #
coedge $-1 $216 $422 $326 $426 forward $320 $-1 #
vertex $-1 $217 $430 #
straight-curve $-1 32.933503586957684 -30.103473021746133 36.174907815442943 0 0 1 I I #
straight-curve $-1 32.933503586957684 -30.103473021746126 1.5902165585313242 0 -0.78801074757464917 -0.61566148304635926 I I #
edge $-1 $424 23.177982101447 $220 32.933503586957684 $330 $431 forward 7 unknown #
point $-1 32.933503586957684 -30.103473021746133 11.747125394224584 #
point $-1 32.933503586957684 -17.103222811096643 11.747125394224584 #
edge $-1 $432 1 $432 0 $223 $-1 forward 7 unknown #
vertex $-1 $224 $433 #
ellipse-curve $-1 25.965273954450055 -22.335179582481327 5.0454895619197799 0 -0.61566148304635926 0.78801074757464917 1 0 0 1 I I #
point $-1 26.965273954450055 -23.603347916421388 6.6686709763779515 #
edge $-1 $434 1 $434 0 $227 $-1 forward 7 unknown #
vertex $-1 $228 $435 #
ellipse-curve $-1 30.14621173395463 -22.335179582481327 5.0454895619197799 0 -0.61566148304635926 0.78801074757464917 1 0 0 1 I I #
point $-1 31.14621173395463 -23.603347916421388 6.6686709763779515 #
plane-surface $-1 0 0 11.747125394224584 0 0 1 1 0 0 forward_v I I I I #
coedge $-1 $357 $356 $349 $436 forward $232 $-1 #
coedge $-1 $349 $234 $236 $353 reversed $146 $-1 #
coedge $-1 $234 $348 $347 $436 reversed $146 $-1 #
coedge $-1 $242 $237 $234 $351 forward $243 $-1 #
edge $-1 $354 -7.5257386639730051 $437 -0.89553135627388869 $350 $438 forward 7 unknown #
coedge $-1 $236 $235 $357 $439 reversed $91 $-1 #
edge $-1 $440 -60.206946043492273 $354 -49.671442173512474 $348 $441 forward 7 unknown #
vertex $-1 $238 $442 #
straight-curve $-1 1.1575958639791679 23.473265714047017 11.747125394224586 1 0 0 I I #
coedge $-1 $347 $239 $242 $361 reversed $232 $-1 #
coedge $-1 $239 $347 $352 $439 forward $232 $-1 #
vertex $-1 $240 $443 #
straight-curve $-1 -5.3834305879393582 30.103473021746133 53.429524520841781 0 0 1 I I #
straight-curve $-1 -5.3834305879393582 -7.7859851909984954 50.349086490158619 0 0.62932038083071107 -0.77714596973225614 I I #
edge $-1 $437 -10.01381404385603 $244 5.3834305879393582 $356 $444 forward 7 unknown #
point $-1 -5.3834305879393582 30.103473021746133 11.747125394224584 #
point $-1 -5.3834305879393582 23.473265714047017 11.747125394224582 #
edge $-1 $445 1 $445 0 $247 $-1 forward 7 unknown #
vertex $-1 $248 $446 #
ellipse-curve $-1 2.3151917279583358 23.970073830791275 5.3711025429862884 0 0.77714596973225614 0.62932038083071107 1.5 0 0 1 I I #
point $-1 3.8151917279583358 26.788369367896578 7.6533132083978952 #
plane-surface $-1 44.897610400708032 0 0 -1 0 0 0 0 1 forward_v I I I I #
coedge $-1 $254 $378 $257 $372 reversed $161 $-1 #
vertex $-1 $372 $447 #
straight-curve $-1 -44.897610400708032 -30.103473021746133 0 0 0 -1 I I #
edge $-1 $370 -30.103473021746133 $374 30.103473021746133 $369 $448 forward 7 unknown #
straight-curve $-1 0 -30.103473021746133 -11.747125394224584 -1 0 0 I I #
vertex $-1 $260 $449 #
straight-curve $-1 0 30.103473021746133 -11.747125394224584 1 0 0 I I #
point $-1 44.897610400708032 30.103473021746133 -11.747125394224584 #
point $-1 44.897610400708032 -30.103473021746133 -11.747125394224584 #
coedge $-1 $369 $264 $267 $380 forward $161 $-1 #
straight-curve $-1 -44.897610400708032 0 11.747125394224584 0 -1 0 I I #
edge $-1 $268 -11.747125394224584 $374 11.747125394224584 $267 $450 forward 7 unknown #
point $-1 -44.897610400708032 30.103473021746133 11.747125394224584 #
point $-1 -44.897610400708032 -30.103473021746133 11.747125394224584 #
straight-curve $-1 44.897610400708032 -30.103473021746133 0 0 0 -1 I I #
straight-curve $-1 44.897610400708032 30.103473021746133 0 0 0 -1 I I #
plane-surface $-1 0 -30.103473021746133 0 0 1 0 0 0 1 forward_v I I I I #
coedge $-1 $451 $280 $389 $452 reversed $180 $-1 #
coedge $-1 $280 $451 $294 $400 reversed $180 $-1 #
edge $-1 $392 -1.5 $390 1.5 $281 $453 forward 7 unknown #
coedge $-1 $282 $395 $386 $452 forward $278 $-1 #
vertex $-1 $283 $454 #
straight-curve $-1 0 30.103473021746133 -11.747125394224584 1 0 0 I I #
vertex $-1 $284 $455 #
straight-curve $-1 -50.879663807583206 30.103473021746133 -8.7471253942245841 -1 0 0 I I #
point $-1 -44.897610400708032 30.103473021746133 -11.747125394224584 #
coedge $-1 $389 $287 $290 $398 forward $278 $-1 #
straight-curve $-1 -44.897610400708032 0 -11.747125394224584 0 -1 0 I I #
coedge $-1 $290 $289 $451 $456 forward $291 $-1 #
edge $-1 $292 -5.9820534068751741 $457 5.9820534068751741 $290 $458 forward 7 unknown #
point $-1 -44.897610400708032 -30.103473021746133 -11.747125394224584 #
edge $-1 $392 -30.103473021746133 $401 30.103473021746133 $387 $459 forward 7 unknown #
vertex $-1 $400 $460 #
straight-curve $-1 -50.879663807583206 -30.103473021746133 -8.7471253942245841 1 0 0 I I #
plane-surface $-1 0 -30.103473021746133 0 0 1 0 0 0 1 forward_v I I I I #
coedge $-1 $407 $301 $413 $461 reversed $194 $-1 #
coedge $-1 $313 $312 $301 $406 reversed $314 $-1 #
edge $-1 $408 -1.5 $462 1.5 $301 $463 forward 7 unknown #
coedge $-1 $302 $404 $304 $411 reversed $194 $-1 #
vertex $-1 $303 $464 #
vertex $-1 $303 $465 #
straight-curve $-1 56.861717214458373 0 -8.7471253942245841 0 1 0 I I #
edge $-1 $409 -1.5 $414 1.5 $407 $466 forward 7 unknown #
straight-curve $-1 50.879663807583199 30.103473021746133 -8.7471253942245841 -1 0 0 I I #
coedge $-1 $417 $306 $404 $461 forward $299 $-1 #
vertex $-1 $461 $467 #
straight-curve $-1 50.879663807583199 30.103473021746133 -11.747125394224584 1 0 0 I I #
point $-1 44.897610400708032 30.103473021746133 -11.747125394224584 #
coedge $-1 $310 $413 $312 $419 forward $299 $-1 #
straight-curve $-1 44.897610400708032 0 -11.747125394224584 0 1 0 I I #
edge $-1 $462 -5.9820534068751741 $315 5.982053406875167 $312 $468 forward 7 unknown #
point $-1 44.897610400708032 -30.103473021746133 -11.747125394224584 #
straight-curve $-1 50.879663807583199 -30.103473021746133 -8.7471253942245841 1 0 0 I I #
coedge $-1 $331 $330 $323 $423 forward $320 $-1 #
edge $-1 $424 24.42778242121836 $427 34.584691256911626 $422 $469 forward 7 unknown #
vertex $-1 $335 $470 #
straight-curve $-1 23.177982101447 -42.693465915410613 11.747125394224582 0 -1 0 I I #
edge $-1 $427 9.1501106793458291 $332 18.905632164856513 $331 $471 forward 7 unknown #
vertex $-1 $426 $472 #
straight-curve $-1 23.177982101447 -30.103473021746126 1.5902165585313242 0 0.78801074757464917 0.61566148304635926 I I #
point $-1 23.177982101447 -17.103222811096643 11.747125394224584 #
point $-1 32.933503586957684 -30.103473021746133 1.5902165585313186 #
straight-curve $-1 0 -30.103473021746133 11.747125394224584 1 0 0 I I #
vertex $-1 $338 $473 #
point $-1 26.965273954450055 -22.335179582481327 5.0454895619197799 #
vertex $-1 $342 $474 #
point $-1 31.14621173395463 -22.335179582481327 5.0454895619197799 #
edge $-1 $437 41.682399126617199 $440 49.870023498270584 $347 $475 forward 7 unknown #
vertex $-1 $361 $476 #
straight-curve $-1 10.01381404385603 30.999004378020022 11.747125394224582 0 1 0 I I #
edge $-1 $440 -8.856218179876862 $358 6.5410264519185262 $357 $477 forward 7 unknown #
vertex $-1 $439 $478 #
straight-curve $-1 10.01381404385603 -7.7859851909984954 50.349086490158619 0 -0.62932038083071107 0.77714596973225614 I I #
point $-1 10.01381404385603 23.473265714047017 11.747125394224582 #
point $-1 -5.3834305879393582 30.103473021746133 3.5595010225711974 #
straight-curve $-1 0 30.103473021746133 11.747125394224584 -1 0 0 I I #
vertex $-1 $364 $479 #
point $-1 3.8151917279583358 23.970073830791275 5.3711025429862884 #
point $-1 -44.897610400708032 -30.103473021746133 -11.747125394224584 #
straight-curve $-1 -44.897610400708032 0 -11.747125394224584 0 1 0 I I #
point $-1 -44.897610400708032 30.103473021746133 -11.747125394224584 #
straight-curve $-1 -44.897610400708032 30.103473021746133 0 0 0 -1 I I #
coedge $-1 $387 $386 $397 $456 reversed $180 $-1 #
edge $-1 $457 -30.103473021746133 $390 30.103473021746133 $386 $480 forward 7 unknown #
straight-curve $-1 -56.86171721445838 30.103473021746133 -10.247125394224584 0 0 -1 I I #
point $-1 -56.86171721445838 30.103473021746133 -11.747125394224584 #
point $-1 -56.86171721445838 30.103473021746133 -8.7471253942245841 #
edge $-1 $401 -1.5 $457 1.5 $451 $481 forward 7 unknown #
vertex $-1 $452 $482 #
straight-curve $-1 -50.879663807583206 -30.103473021746133 -11.747125394224584 -1 0 0 I I #
straight-curve $-1 -56.86171721445838 0 -8.7471253942245841 0 -1 0 I I #
point $-1 -56.86171721445838 -30.103473021746133 -8.7471253942245841 #
edge $-1 $414 -30.103473021746133 $462 30.103473021746133 $404 $483 forward 7 unknown #
vertex $-1 $406 $484 #
straight-curve $-1 56.861717214458373 -30.103473021746133 -10.247125394224584 0 0 -1 I I #
point $-1 56.861717214458373 -30.103473021746133 -8.7471253942245841 #
point $-1 56.861717214458373 30.103473021746133 -8.7471253942245841 #
straight-curve $-1 56.861717214458373 30.103473021746133 -10.247125394224584 0 0 -1 I I #
point $-1 56.861717214458373 30.103473021746133 -11.747125394224584 #
straight-curve $-1 50.879663807583199 -30.103473021746133 -11.747125394224584 -1 0 0 I I #
straight-curve $-1 23.177982101447 -30.103473021746133 36.174907815442943 0 0 -1 I I #
point $-1 23.177982101447 -30.103473021746133 11.747125394224584 #
straight-curve $-1 14.027871422101171 -30.103473021746133 1.5902165585313188 1 0 0 I I #
point $-1 23.177982101447 -30.103473021746133 1.5902165585313186 #
point $-1 25.965273954450055 -21.719518099434968 4.2574788143451308 #
point $-1 30.14621173395463 -21.719518099434968 4.2574788143451308 #
straight-curve $-1 10.01381404385603 30.103473021746133 53.429524520841781 0 0 -1 I I #
point $-1 10.01381404385603 30.103473021746133 11.747125394224584 #
straight-curve $-1 1.1575958639791679 30.103473021746133 3.5595010225711938 -1 0 0 I I #
point $-1 10.01381404385603 30.103473021746133 3.5595010225711974 #
point $-1 2.3151917279583358 22.804354876192892 4.4271219717402213 #
straight-curve $-1 -56.86171721445838 0 -11.747125394224584 0 1 0 I I #
straight-curve $-1 -56.86171721445838 -30.103473021746133 -10.247125394224584 0 0 -1 I I #
point $-1 -56.86171721445838 -30.103473021746133 -11.747125394224584 #
straight-curve $-1 56.861717214458373 0 -11.747125394224584 0 -1 0 I I #
point $-1 56.861717214458373 -30.103473021746133 -11.747125394224584 #
End-of-ACIS-data 