500 0 7 0           
7 Unknown 11 ACIS 5.0 NT 24 Thu Mar 25 16:52:38 1999 
-1 9.9999999999999995e-007 1e-010 
body $-1 $7 $-1 $8 #
body $-1 $9 $-1 $10 #
body $-1 $11 $-1 $12 #
body $-1 $13 $-1 $14 #
body $-1 $15 $-1 $16 #
body $-1 $17 $-1 $18 #
body $-1 $19 $-1 $20 #
lump $-1 $-1 $21 $0 #
transform $-1 1 0 0 0 1 0 0 0 1 51.024506363109225 26.835554841986458 9.0350817765519817 1 rotate no_reflect no_shear #
lump $-1 $-1 $22 $1 #
transform $-1 1 0 0 0 1 0 0 0 1 51.024506363109225 26.835554841986458 9.0350817765519817 1 rotate no_reflect no_shear #
lump $-1 $-1 $23 $2 #
transform $-1 1 0 0 0 1 0 0 0 1 51.024506363109225 26.835554841986458 9.0350817765519817 1 rotate no_reflect no_shear #
lump $-1 $-1 $24 $3 #
transform $-1 1 0 0 0 1 0 0 0 1 51.024506363109225 26.835554841986458 9.0350817765519817 1 rotate no_reflect no_shear #
lump $-1 $-1 $25 $4 #
transform $-1 1 0 0 0 1 0 0 0 1 51.024506363109225 26.835554841986458 9.0350817765519817 1 rotate no_reflect no_shear #
lump $-1 $-1 $26 $5 #
transform $-1 1 0 0 0 1 0 0 0 1 51.024506363109225 26.835554841986458 9.0350817765519817 1 rotate no_reflect no_shear #
lump $-1 $-1 $27 $6 #
transform $-1 1 0 0 0 1 0 0 0 1 51.024506363109225 26.835554841986458 9.0350817765519817 1 rotate no_reflect no_shear #
shell $-1 $-1 $-1 $28 $-1 $7 #
shell $-1 $-1 $-1 $29 $-1 $9 #
shell $-1 $-1 $-1 $30 $-1 $11 #
shell $-1 $-1 $-1 $31 $-1 $13 #
shell $-1 $-1 $-1 $32 $-1 $15 #
shell $-1 $-1 $-1 $33 $-1 $17 #
shell $-1 $-1 $-1 $34 $-1 $19 #
face $-1 $35 $36 $21 $-1 $37 forward single #
face $-1 $38 $39 $22 $-1 $40 reversed single #
face $-1 $41 $42 $23 $-1 $43 reversed single #
face $-1 $44 $45 $24 $-1 $46 forward single #
face $-1 $47 $48 $25 $-1 $49 reversed single #
face $-1 $50 $51 $26 $-1 $52 forward single #
face $-1 $53 $54 $27 $-1 $55 forward single #
face $-1 $56 $57 $21 $-1 $58 reversed single #
loop $-1 $-1 $59 $28 #
plane-surface $-1 0 0 9.0350817765519817 0 0 1 1 0 0 forward_v I I I I #
face $-1 $60 $61 $22 $-1 $62 reversed single #
loop $-1 $-1 $63 $29 #
plane-surface $-1 0 -21.117536780622469 5.6198556079061648 0 0 1 1 0 0 forward_v I I I I #
face $-1 $64 $65 $23 $-1 $66 reversed single #
loop $-1 $-1 $67 $30 #
plane-surface $-1 -51.024506363109225 -10.633816239323259 4.0739150308405812 -0.51503808176128008 0 0.85716729658548041 0.85716729658548041 0 0.51503808176128008 forward_v I I I I #
face $-1 $68 $69 $24 $-1 $70 forward single #
loop $-1 $71 $72 $31 #
cone-surface $-1 -46.190206518973149 -10.633816239323259 5.3796570643876356 0.51503808176128008 0 -0.85716729658548041 1.2857509448782207 0 0.77255712264192011 1 I I 0 1 1.5 forward I I I I #
face $-1 $73 $74 $25 $-1 $75 reversed single #
loop $-1 $-1 $76 $32 #
plane-surface $-1 -13.197017189152632 22.543671756995515 84.100676071285946 0.77714596973225614 0 0.62932038083071107 0.62932038083071107 0 -0.77714596973225614 forward_v I I I I #
face $-1 $77 $78 $26 $-1 $79 forward single #
loop $-1 $80 $81 $33 #
cone-surface $-1 47.77286982020405 20.704293291999399 5.6719104662742375 -0.77714596973225614 0 -0.62932038083071107 0.62932038083071107 0 -0.77714596973225614 1 I I 0 1 1 forward I I I I #
face $-1 $82 $83 $27 $-1 $84 forward single #
loop $-1 $85 $86 $34 #
cone-surface $-1 47.77286982020405 24.383050221991631 5.6719104662742375 -0.77714596973225614 0 -0.62932038083071107 0.62932038083071107 0 -0.77714596973225614 1 I I 0 1 1 forward I I I I #
face $-1 $87 $88 $21 $-1 $89 reversed single #
loop $-1 $-1 $90 $35 #
plane-surface $-1 0 0 -9.0350817765519817 0 0 1 1 0 0 forward_v I I I I #
coedge $-1 $91 $92 $93 $94 forward $36 $-1 #
face $-1 $95 $96 $22 $-1 $97 reversed single #
loop $-1 $-1 $98 $38 #
plane-surface $-1 0 -15.399518719258481 7.3274686922290737 0 -1 0 0 0 -1 forward_v I I I I #
coedge $-1 $99 $100 $101 $102 reversed $39 $-1 #
face $-1 $103 $104 $23 $-1 $105 forward single #
loop $-1 $-1 $106 $41 #
plane-surface $-1 -103.58363412325323 -5.868113759388037 91.546991388590541 0 -1 0 0.51503808176128008 0 -0.85716729658548041 forward_v I I I I #
coedge $-1 $107 $108 $109 $110 reversed $42 $-1 #
face $-1 $-1 $111 $24 $-1 $112 forward single #
loop $-1 $113 $114 $44 #
cone-surface $-1 -45.098012050475447 -10.633816239323259 3.5619402526398805 0.51503808176128008 0 -0.85716729658548041 0.64287547243911036 0 0.38627856132096006 1 I I -0.70710678118654757 0.70710678118654757 0.75 forward I I I I #
loop $-1 $-1 $115 $31 #
coedge $-1 $72 $72 $116 $117 reversed $45 $-1 #
face $-1 $118 $119 $25 $-1 $120 reversed single #
loop $-1 $-1 $121 $47 #
plane-surface $-1 66.109961766183758 18.251788672004576 148.32219962354782 0 1 0 0.77714596973225614 0 0.62932038083071107 forward_v I I I I #
coedge $-1 $122 $123 $124 $125 reversed $48 $-1 #
face $-1 $-1 $126 $26 $-1 $127 forward single #
loop $-1 $128 $129 $50 #
cone-surface $-1 45.849963034657236 20.704293291999399 4.1147712958823579 -0.77714596973225614 0 -0.62932038083071107 0.31466019041535553 0 -0.38857298486612807 1 I I -0.70710678118654746 0.70710678118654746 0.5 forward I I I I #
loop $-1 $-1 $130 $33 #
coedge $-1 $81 $81 $131 $132 reversed $51 $-1 #
face $-1 $-1 $133 $27 $-1 $134 forward single #
loop $-1 $135 $136 $53 #
cone-surface $-1 45.849963034657236 24.383050221991631 4.1147712958823579 -0.77714596973225614 0 -0.62932038083071107 0.31466019041535553 0 -0.38857298486612807 1 I I -0.70710678118654746 0.70710678118654746 0.5 forward I I I I #
loop $-1 $-1 $137 $34 #
coedge $-1 $86 $86 $138 $139 reversed $54 $-1 #
face $-1 $140 $141 $21 $-1 $142 reversed single #
loop $-1 $-1 $143 $56 #
plane-surface $-1 0 -26.835554841986458 0 0 1 0 0 0 1 forward_v I I I I #
coedge $-1 $144 $145 $146 $147 forward $57 $-1 #
coedge $-1 $148 $59 $149 $150 forward $36 $-1 #
coedge $-1 $59 $148 $151 $152 forward $36 $-1 #
coedge $-1 $153 $154 $59 $94 reversed $155 $-1 #
edge $-1 $156 -26.835554841986458 $157 26.835554841986458 $93 $158 forward 7 unknown #
face $-1 $159 $160 $22 $-1 $161 reversed single #
loop $-1 $-1 $162 $60 #
plane-surface $-1 -51.024506363109225 0 0 1 0 0 0 0 -1 forward_v I I I I #
coedge $-1 $163 $164 $165 $166 reversed $61 $-1 #
coedge $-1 $167 $63 $168 $169 reversed $39 $-1 #
coedge $-1 $63 $167 $170 $171 forward $39 $-1 #
coedge $-1 $172 $173 $63 $102 forward $174 $-1 #
edge $-1 $175 -16.276786451675221 $176 -4.8407503289472462 $101 $177 forward 7 unknown #
face $-1 $178 $179 $23 $-1 $180 reversed single #
loop $-1 $-1 $109 $64 #
plane-surface $-1 0 0 9.0350817765519817 0 0 1 1 0 0 forward_v I I I I #
coedge $-1 $181 $182 $183 $184 reversed $65 $-1 #
coedge $-1 $185 $67 $186 $187 reversed $42 $-1 #
coedge $-1 $67 $185 $181 $188 forward $42 $-1 #
coedge $-1 $183 $189 $67 $110 forward $104 $-1 #
edge $-1 $190 -10.082610599596851 $191 -0.55120563972640735 $109 $192 forward 7 unknown #
loop $-1 $-1 $116 $68 #
plane-surface $-1 -51.024506363109225 -10.633816239323259 4.0739150308405812 -0.51503808176128008 0 0.85716729658548041 0.85716729658548041 0 0.51503808176128008 forward_v I I I I #
loop $-1 $-1 $193 $44 #
coedge $-1 $114 $114 $115 $194 reversed $69 $-1 #
coedge $-1 $115 $115 $114 $194 forward $71 $-1 #
coedge $-1 $116 $116 $72 $117 forward $111 $-1 #
edge $-1 $195 0 $195 6.2831853071796004 $116 $196 forward 7 unknown #
face $-1 $197 $198 $25 $-1 $199 forward single #
loop $-1 $-1 $200 $73 #
plane-surface $-1 0 26.835554841986458 0 0 -1 0 0 0 -1 forward_v I I I I #
coedge $-1 $201 $202 $203 $204 reversed $74 $-1 #
coedge $-1 $205 $76 $200 $206 reversed $48 $-1 #
coedge $-1 $76 $205 $201 $207 forward $48 $-1 #
coedge $-1 $203 $208 $76 $125 forward $198 $-1 #
edge $-1 $209 -15.563718963488697 $210 -6.9799527935068184 $124 $211 forward 7 unknown #
loop $-1 $-1 $131 $77 #
plane-surface $-1 -13.197017189152632 22.543671756995515 84.100676071285946 0.77714596973225614 0 0.62932038083071107 0.62932038083071107 0 -0.77714596973225614 forward_v I I I I #
loop $-1 $-1 $212 $50 #
coedge $-1 $129 $129 $130 $213 reversed $78 $-1 #
coedge $-1 $130 $130 $129 $213 forward $80 $-1 #
coedge $-1 $131 $131 $81 $132 forward $126 $-1 #
edge $-1 $214 0 $214 6.2831853071796004 $131 $215 forward 7 unknown #
loop $-1 $-1 $138 $82 #
plane-surface $-1 -13.197017189152632 22.543671756995515 84.100676071285946 0.77714596973225614 0 0.62932038083071107 0.62932038083071107 0 -0.77714596973225614 forward_v I I I I #
loop $-1 $-1 $216 $53 #
coedge $-1 $136 $136 $137 $217 reversed $83 $-1 #
coedge $-1 $137 $137 $136 $217 forward $85 $-1 #
coedge $-1 $138 $138 $86 $139 forward $133 $-1 #
edge $-1 $218 0 $218 6.2831853071796004 $138 $219 forward 7 unknown #
face $-1 $220 $221 $21 $-1 $222 reversed single #
loop $-1 $-1 $223 $87 #
plane-surface $-1 -51.024506363109225 0 0 1 0 0 0 0 -1 forward_v I I I I #
coedge $-1 $224 $151 $225 $226 forward $88 $-1 #
coedge $-1 $227 $90 $224 $228 forward $57 $-1 #
coedge $-1 $90 $227 $229 $230 forward $57 $-1 #
coedge $-1 $154 $153 $90 $147 reversed $155 $-1 #
edge $-1 $231 -26.835554841986458 $232 26.835554841986458 $146 $233 forward 7 unknown #
coedge $-1 $92 $91 $234 $235 forward $36 $-1 #
coedge $-1 $236 $237 $91 $150 reversed $221 $-1 #
edge $-1 $157 -51.024506363109225 $238 51.024506363109225 $149 $239 forward 7 unknown #
coedge $-1 $143 $240 $92 $152 reversed $88 $-1 #
edge $-1 $241 -51.024506363109225 $156 51.024506363109225 $151 $242 forward 7 unknown #
coedge $-1 $146 $93 $240 $243 forward $155 $-1 #
coedge $-1 $93 $146 $236 $244 reversed $155 $-1 #
loop $-1 $-1 $153 $220 #
vertex $-1 $94 $245 #
vertex $-1 $94 $246 #
straight-curve $-1 51.024506363109225 0 9.0350817765519817 0 1 0 I I #
face $-1 $247 $248 $22 $-1 $249 forward single #
loop $-1 $-1 $168 $95 #
plane-surface $-1 0 -26.835554841986458 0 0 1 0 0 0 1 forward_v I I I I #
coedge $-1 $250 $251 $164 $252 forward $96 $-1 #
coedge $-1 $170 $98 $172 $253 reversed $61 $-1 #
coedge $-1 $98 $170 $162 $252 reversed $61 $-1 #
coedge $-1 $254 $255 $98 $166 forward $248 $-1 #
edge $-1 $256 -51.024506363109225 $257 51.024506363109225 $165 $258 forward 7 unknown #
coedge $-1 $100 $99 $250 $259 reversed $39 $-1 #
coedge $-1 $260 $261 $99 $169 forward $160 $-1 #
edge $-1 $262 -51.024506363109225 $175 51.024506363109225 $168 $263 forward 7 unknown #
coedge $-1 $164 $163 $100 $171 reversed $61 $-1 #
edge $-1 $264 -51.024506363109225 $176 51.024506363109225 $170 $265 forward 7 unknown #
coedge $-1 $266 $101 $163 $253 forward $174 $-1 #
coedge $-1 $101 $266 $260 $267 forward $174 $-1 #
loop $-1 $-1 $172 $247 #
vertex $-1 $169 $268 #
vertex $-1 $102 $269 #
straight-curve $-1 51.024506363109225 -10.558768390311235 5.6198556079061648 0 1 0 I I #
face $-1 $-1 $270 $23 $-1 $271 forward single #
loop $-1 $-1 $272 $103 #
plane-surface $-1 -51.024506363109225 0 0 1 0 0 0 0 -1 forward_v I I I I #
coedge $-1 $182 $106 $108 $188 reversed $65 $-1 #
coedge $-1 $106 $181 $272 $273 reversed $65 $-1 #
coedge $-1 $274 $109 $106 $184 forward $104 $-1 #
edge $-1 $191 -9.0240785724360464 $275 -0.76731069851739164 $183 $276 forward 7 unknown #
coedge $-1 $108 $107 $277 $278 reversed $42 $-1 #
coedge $-1 $279 $280 $107 $187 forward $270 $-1 #
edge $-1 $281 -22.706121107771949 $190 -13.073499906742196 $186 $282 forward 7 unknown #
edge $-1 $283 0 $191 9.6326212010297496 $181 $284 forward 7 unknown #
coedge $-1 $109 $274 $279 $285 forward $104 $-1 #
vertex $-1 $187 $286 #
vertex $-1 $110 $287 #
straight-curve $-1 -42.76773848919057 -5.3169081196616297 9.03508177655198 0 1 0 I I #
coedge $-1 $193 $193 $-1 $288 reversed $113 $-1 #
edge $-1 $289 0 $289 6.2831853071796004 $114 $290 forward 7 unknown #
vertex $-1 $117 $291 #
ellipse-curve $-1 -46.896122426149894 -10.633816239323259 6.5544984036962832 -0.51503808176128008 0 0.85716729658548041 1.2857509448782207 0 0.77255712264192011 1 I I #
face $-1 $-1 $292 $25 $-1 $293 reversed single #
loop $-1 $-1 $124 $118 #
plane-surface $-1 0 0 9.0350817765519817 0 0 1 1 0 0 forward_v I I I I #
coedge $-1 $294 $295 $122 $206 forward $119 $-1 #
coedge $-1 $202 $121 $123 $207 reversed $74 $-1 #
coedge $-1 $121 $201 $296 $297 reversed $74 $-1 #
coedge $-1 $298 $124 $121 $204 forward $198 $-1 #
edge $-1 $210 14.534919995568359 $299 17.969525480017346 $203 $300 forward 7 unknown #
coedge $-1 $123 $122 $301 $302 reversed $48 $-1 #
edge $-1 $303 -65.217186054286003 $209 -59.759543827737943 $200 $304 forward 7 unknown #
edge $-1 $305 -102.04901272621842 $210 -96.591370499670376 $201 $306 forward 7 unknown #
coedge $-1 $124 $298 $294 $307 forward $198 $-1 #
vertex $-1 $206 $308 #
vertex $-1 $125 $309 #
straight-curve $-1 47.589900878660231 11.271835878497757 9.0350817765519906 0 -1 0 I I #
coedge $-1 $212 $212 $-1 $310 reversed $128 $-1 #
edge $-1 $311 0 $311 6.2831853071796004 $129 $312 forward 7 unknown #
vertex $-1 $132 $313 #
ellipse-curve $-1 49.307203620884742 20.704293291999399 6.9143894462507669 0.77714596973225614 0 0.62932038083071107 0.62932038083071107 0 -0.77714596973225614 1 I I #
coedge $-1 $216 $216 $-1 $314 reversed $135 $-1 #
edge $-1 $315 0 $315 6.2831853071796004 $136 $316 forward 7 unknown #
vertex $-1 $139 $317 #
ellipse-curve $-1 49.307203620884742 24.383050221991631 6.9143894462507669 0.77714596973225614 0 0.62932038083071107 0.62932038083071107 0 -0.77714596973225614 1 I I #
face $-1 $-1 $155 $21 $-1 $318 reversed single #
loop $-1 $-1 $236 $140 #
plane-surface $-1 0 26.835554841986458 0 0 -1 0 0 0 -1 forward_v I I I I #
coedge $-1 $319 $234 $237 $320 forward $141 $-1 #
coedge $-1 $240 $143 $144 $228 reversed $88 $-1 #
coedge $-1 $234 $319 $143 $226 reversed $141 $-1 #
edge $-1 $241 -9.0350817765519817 $321 9.0350817765519817 $225 $322 forward 7 unknown #
coedge $-1 $145 $144 $319 $323 forward $57 $-1 #
edge $-1 $232 -51.024506363109225 $321 51.024506363109225 $224 $324 forward 7 unknown #
coedge $-1 $237 $236 $145 $230 reversed $221 $-1 #
edge $-1 $325 -51.024506363109225 $231 51.024506363109225 $229 $326 forward 7 unknown #
vertex $-1 $147 $327 #
vertex $-1 $243 $328 #
straight-curve $-1 51.024506363109225 0 -9.0350817765519817 0 -1 0 I I #
coedge $-1 $223 $225 $148 $235 reversed $141 $-1 #
edge $-1 $238 -26.835554841986458 $241 26.835554841986458 $234 $329 forward 7 unknown #
coedge $-1 $229 $149 $154 $244 forward $221 $-1 #
coedge $-1 $149 $229 $223 $320 reversed $221 $-1 #
vertex $-1 $150 $330 #
straight-curve $-1 0 26.835554841986458 9.0350817765519817 -1 0 0 I I #
coedge $-1 $151 $224 $153 $243 reversed $88 $-1 #
vertex $-1 $235 $331 #
straight-curve $-1 0 -26.835554841986458 9.0350817765519817 1 0 0 I I #
edge $-1 $156 -9.0350817765519817 $232 9.0350817765519817 $153 $332 forward 7 unknown #
edge $-1 $157 -9.0350817765519817 $231 9.0350817765519817 $154 $333 forward 7 unknown #
point $-1 51.024506363109225 -26.835554841986458 9.0350817765519817 #
point $-1 51.024506363109225 26.835554841986458 9.0350817765519817 #
face $-1 $-1 $174 $22 $-1 $334 reversed single #
loop $-1 $-1 $165 $159 #
plane-surface $-1 0 0 9.0350817765519817 0 0 1 1 0 0 forward_v I I I I #
coedge $-1 $335 $162 $167 $259 forward $96 $-1 #
coedge $-1 $162 $335 $254 $336 reversed $96 $-1 #
edge $-1 $257 -5.3713474304374467 $264 -1.9561212617916279 $162 $337 forward 7 unknown #
edge $-1 $176 1.9561212617916279 $256 5.3713474304374467 $172 $338 forward 7 unknown #
coedge $-1 $339 $165 $251 $336 forward $248 $-1 #
coedge $-1 $165 $339 $266 $340 forward $248 $-1 #
vertex $-1 $253 $341 #
vertex $-1 $336 $342 #
straight-curve $-1 0 -15.399518719258481 9.0350817765519817 -1 0 0 I I #
edge $-1 $264 4.8407503289472462 $262 16.276786451675221 $250 $343 forward 7 unknown #
coedge $-1 $344 $168 $173 $267 reversed $160 $-1 #
coedge $-1 $168 $344 $335 $345 forward $160 $-1 #
vertex $-1 $169 $346 #
straight-curve $-1 0 -26.835554841986458 5.6198556079061648 1 0 0 I I #
vertex $-1 $259 $347 #
straight-curve $-1 0 -15.399518719258481 5.6198556079061648 1 0 0 I I #
coedge $-1 $173 $172 $255 $340 reversed $174 $-1 #
edge $-1 $348 -9.0350817765519817 $175 -5.6198556079061648 $173 $349 forward 7 unknown #
point $-1 51.024506363109225 -26.835554841986458 5.6198556079061648 #
point $-1 51.024506363109225 -15.399518719258481 5.6198556079061648 #
loop $-1 $-1 $186 $178 #
plane-surface $-1 0 -15.399518719258481 7.3274686922290737 0 -1 0 0 0 -1 forward_v I I I I #
coedge $-1 $277 $350 $182 $273 forward $179 $-1 #
edge $-1 $275 36.738413917743287 $283 41.699580663454689 $272 $351 forward 7 unknown #
coedge $-1 $189 $183 $350 $352 forward $104 $-1 #
vertex $-1 $352 $353 #
straight-curve $-1 -51.791817061626617 -5.868113759388037 9.0350817765519835 -1 0 0 I I #
coedge $-1 $354 $272 $185 $278 forward $179 $-1 #
edge $-1 $283 0.55120563972640735 $281 10.082610599596851 $277 $355 forward 7 unknown #
coedge $-1 $280 $186 $189 $285 reversed $270 $-1 #
coedge $-1 $186 $279 $354 $356 reversed $270 $-1 #
vertex $-1 $356 $357 #
straight-curve $-1 -31.56156191721783 -15.399518719258481 15.768432090426757 0.85716729658548041 0 0.51503808176128008 I I #
vertex $-1 $278 $358 #
straight-curve $-1 -51.024506363109225 -5.868113759388037 4.0739150308405812 0.85716729658548041 0 0.51503808176128008 I I #
edge $-1 $359 -51.024506363109225 $190 -42.76773848919057 $189 $360 forward 7 unknown #
point $-1 -42.76773848919057 -15.399518719258481 9.0350817765519817 #
point $-1 -42.76773848919057 -5.868113759388037 9.0350817765519817 #
edge $-1 $361 1 $361 0 $193 $-1 forward 7 unknown #
vertex $-1 $194 $362 #
ellipse-curve $-1 -45.484290611796403 -10.633816239323259 4.2048157250789906 -0.51503808176128008 0 0.85716729658548041 1.2857509448782207 0 0.77255712264192011 1 I I #
point $-1 -45.610371481271677 -10.633816239323259 7.3270555263382011 #
loop $-1 $-1 $301 $197 #
plane-surface $-1 51.024506363109225 0 0 -1 0 0 0 0 1 forward_v I I I I #
coedge $-1 $295 $200 $208 $307 reversed $119 $-1 #
coedge $-1 $200 $294 $363 $364 forward $119 $-1 #
coedge $-1 $301 $365 $202 $297 forward $292 $-1 #
edge $-1 $299 65.126018035221932 $305 69.367402695824325 $296 $366 forward 7 unknown #
coedge $-1 $208 $203 $365 $367 forward $198 $-1 #
vertex $-1 $367 $368 #
straight-curve $-1 33.054980883091879 18.251788672004576 9.0350817765519764 1 0 0 I I #
coedge $-1 $363 $296 $205 $302 forward $292 $-1 #
edge $-1 $305 6.9799527935068184 $303 15.563718963488697 $301 $369 forward 7 unknown #
vertex $-1 $206 $370 #
straight-curve $-1 9.9820019987186193 26.835554841986458 55.476970415316643 -0.62932038083071107 0 0.77714596973225614 I I #
vertex $-1 $302 $371 #
straight-curve $-1 -13.197017189152632 18.251788672004576 84.100676071285946 -0.62932038083071107 0 0.77714596973225614 I I #
edge $-1 $372 -51.024506363109225 $209 -47.589900878660238 $294 $373 forward 7 unknown #
point $-1 47.589900878660238 26.835554841986454 9.0350817765519764 #
point $-1 47.589900878660238 18.251788672004576 9.0350817765519764 #
edge $-1 $374 1 $374 0 $212 $-1 forward 7 unknown #
vertex $-1 $213 $375 #
ellipse-curve $-1 46.238536019523366 20.704293291999399 4.4294314862977133 0.77714596973225614 0 0.62932038083071107 0.62932038083071107 0 -0.77714596973225614 1 I I #
point $-1 49.936524001715441 20.704293291999399 6.1372434765185053 #
edge $-1 $376 1 $376 0 $216 $-1 forward 7 unknown #
vertex $-1 $217 $377 #
ellipse-curve $-1 46.238536019523366 24.383050221991631 4.4294314862977133 0.77714596973225614 0 0.62932038083071107 0.62932038083071107 0 -0.77714596973225614 1 I I #
point $-1 49.936524001715441 24.383050221991631 6.1372434765185053 #
plane-surface $-1 51.024506363109225 0 0 -1 0 0 0 0 1 forward_v I I I I #
coedge $-1 $225 $223 $227 $323 reversed $141 $-1 #
edge $-1 $238 -9.0350817765519817 $325 9.0350817765519817 $237 $378 forward 7 unknown #
vertex $-1 $323 $379 #
straight-curve $-1 -51.024506363109225 -26.835554841986458 0 0 0 -1 I I #
edge $-1 $321 -26.835554841986458 $325 26.835554841986458 $319 $380 forward 7 unknown #
straight-curve $-1 0 -26.835554841986458 -9.0350817765519817 -1 0 0 I I #
vertex $-1 $230 $381 #
straight-curve $-1 0 26.835554841986458 -9.0350817765519817 1 0 0 I I #
point $-1 51.024506363109225 26.835554841986458 -9.0350817765519817 #
point $-1 51.024506363109225 -26.835554841986458 -9.0350817765519817 #
straight-curve $-1 -51.024506363109225 0 9.0350817765519817 0 -1 0 I I #
point $-1 -51.024506363109225 26.835554841986458 9.0350817765519817 #
point $-1 -51.024506363109225 -26.835554841986458 9.0350817765519817 #
straight-curve $-1 51.024506363109225 -26.835554841986458 0 0 0 -1 I I #
straight-curve $-1 51.024506363109225 26.835554841986458 0 0 0 -1 I I #
plane-surface $-1 51.024506363109225 0 0 -1 0 0 0 0 1 forward_v I I I I #
coedge $-1 $251 $250 $261 $345 reversed $96 $-1 #
edge $-1 $257 15.399518719258481 $382 26.835554841986458 $251 $383 forward 7 unknown #
straight-curve $-1 -51.024506363109225 -15.399518719258481 3.6637343461145369 0 0 -1 I I #
straight-curve $-1 51.024506363109225 -15.399518719258481 3.6637343461145369 0 0 1 I I #
coedge $-1 $255 $254 $344 $384 forward $248 $-1 #
edge $-1 $348 -26.835554841986458 $256 -15.399518719258481 $266 $385 forward 7 unknown #
point $-1 51.024506363109225 -15.399518719258481 9.0350817765519835 #
point $-1 -51.024506363109225 -15.399518719258481 9.0350817765519835 #
straight-curve $-1 -51.024506363109225 -10.558768390311235 5.6198556079061648 0 -1 0 I I #
coedge $-1 $261 $260 $339 $384 reversed $160 $-1 #
edge $-1 $382 -9.0350817765519817 $262 -5.6198556079061648 $335 $386 forward 7 unknown #
point $-1 -51.024506363109225 -26.835554841986458 5.6198556079061648 #
point $-1 -51.024506363109225 -15.399518719258481 5.6198556079061648 #
vertex $-1 $340 $387 #
straight-curve $-1 51.024506363109225 -26.835554841986458 0 0 0 -1 I I #
coedge $-1 $272 $354 $274 $352 reversed $179 $-1 #
straight-curve $-1 -51.024506363109225 -5.868113759388037 45.773495694295271 0 0 -1 I I #
edge $-1 $275 5.868113759388037 $359 15.399518719258481 $350 $388 forward 7 unknown #
point $-1 -51.024506363109225 -5.868113759388037 9.0350817765519817 #
coedge $-1 $350 $277 $280 $356 forward $179 $-1 #
straight-curve $-1 -51.024506363109225 -5.3169081196616297 4.0739150308405803 0 -1 0 I I #
edge $-1 $281 -41.699580663454689 $359 -36.738413917743287 $354 $389 forward 7 unknown #
point $-1 -51.024506363109225 -15.399518719258481 4.0739150308405812 #
point $-1 -51.024506363109225 -5.868113759388037 4.0739150308405812 #
vertex $-1 $356 $390 #
straight-curve $-1 0 -15.399518719258481 9.0350817765519817 1 0 0 I I #
vertex $-1 $288 $391 #
point $-1 -44.198539666918187 -10.633816239323259 4.9773728477209112 #
coedge $-1 $365 $301 $295 $364 reversed $292 $-1 #
edge $-1 $372 -9.0350817765519817 $303 -4.793697115949584 $363 $392 forward 7 unknown #
coedge $-1 $296 $363 $298 $367 reversed $292 $-1 #
straight-curve $-1 51.024506363109225 18.251788672004576 74.161099811773909 0 0 -1 I I #
edge $-1 $299 18.251788672004576 $372 26.835554841986458 $365 $393 forward 7 unknown #
point $-1 51.024506363109225 18.251788672004576 9.0350817765519817 #
straight-curve $-1 51.024506363109225 11.271835878497757 4.7936971159495769 0 1 0 I I #
point $-1 51.024506363109225 26.835554841986454 4.793697115949584 #
point $-1 51.024506363109225 18.251788672004576 4.793697115949584 #
vertex $-1 $367 $394 #
straight-curve $-1 0 26.835554841986458 9.0350817765519817 -1 0 0 I I #
vertex $-1 $310 $395 #
point $-1 46.867856400354079 20.704293291999399 3.6522855165654571 #
vertex $-1 $314 $396 #
point $-1 46.867856400354079 24.383050221991631 3.6522855165654571 #
straight-curve $-1 -51.024506363109225 26.835554841986458 0 0 0 -1 I I #
point $-1 -51.024506363109225 -26.835554841986458 -9.0350817765519817 #
straight-curve $-1 -51.024506363109225 0 -9.0350817765519817 0 1 0 I I #
point $-1 -51.024506363109225 26.835554841986458 -9.0350817765519817 #
vertex $-1 $336 $397 #
straight-curve $-1 -51.024506363109225 0 9.0350817765519817 0 -1 0 I I #
edge $-1 $382 -51.024506363109225 $348 51.024506363109225 $344 $398 forward 7 unknown #
straight-curve $-1 51.024506363109225 0 9.0350817765519817 0 1 0 I I #
straight-curve $-1 -51.024506363109225 -26.835554841986458 0 0 0 -1 I I #
point $-1 51.024506363109225 -26.835554841986458 9.0350817765519817 #
straight-curve $-1 -51.024506363109225 0 9.0350817765519817 0 -1 0 I I #
straight-curve $-1 -51.024506363109225 -15.399518719258481 45.773495694295271 0 0 1 I I #
point $-1 -51.024506363109225 -15.399518719258481 9.0350817765519835 #
point $-1 -44.71173348915449 -10.633816239323259 2.9190647802007703 #
straight-curve $-1 51.024506363109225 26.835554841986458 0 0 0 -1 I I #
straight-curve $-1 51.024506363109225 0 9.0350817765519817 0 1 0 I I #
point $-1 51.024506363109225 26.835554841986458 9.0350817765519817 #
point $-1 45.461390049791106 20.704293291999399 3.8001111054670025 #
point $-1 45.461390049791106 24.383050221991631 3.8001111054670025 #
point $-1 -51.024506363109225 -26.835554841986458 9.0350817765519817 #
straight-curve $-1 0 -26.835554841986458 9.0350817765519817 1 0 0 I I #
End-of-ACIS-data 