500 0 10 0           
7 Unknown 11 ACIS 5.0 NT 24 Thu Mar 25 20:45:58 1999 
-1 9.9999999999999995e-007 1e-010 
body $-1 $10 $-1 $11 #
body $-1 $12 $-1 $13 #
body $-1 $14 $-1 $15 #
body $-1 $16 $-1 $17 #
body $-1 $18 $-1 $19 #
body $-1 $20 $-1 $21 #
body $-1 $22 $-1 $23 #
body $-1 $24 $-1 $25 #
body $-1 $26 $-1 $27 #
body $-1 $28 $-1 $29 #
lump $-1 $-1 $30 $0 #
transform $-1 1 0 0 0 1 0 0 0 1 65.757621997741637 38.861757208834113 17.429142900291865 1 rotate no_reflect no_shear #
lump $-1 $-1 $31 $1 #
transform $-1 1 0 0 0 1 0 0 0 1 65.757621997741637 38.861757208834113 17.429142900291865 1 rotate no_reflect no_shear #
lump $-1 $-1 $32 $2 #
transform $-1 1 0 0 0 1 0 0 0 1 65.757621997741637 38.861757208834113 17.429142900291865 1 rotate no_reflect no_shear #
lump $-1 $-1 $33 $3 #
transform $-1 1 0 0 0 1 0 0 0 1 65.757621997741637 38.861757208834113 17.429142900291865 1 rotate no_reflect no_shear #
lump $-1 $-1 $34 $4 #
transform $-1 1 0 0 0 1 0 0 0 1 65.757621997741637 38.861757208834113 17.429142900291865 1 rotate no_reflect no_shear #
lump $-1 $-1 $35 $5 #
transform $-1 1 0 0 0 1 0 0 0 1 65.757621997741637 38.861757208834113 17.429142900291865 1 rotate no_reflect no_shear #
lump $-1 $-1 $36 $6 #
transform $-1 1 0 0 0 1 0 0 0 1 65.757621997741637 38.861757208834113 17.429142900291865 1 rotate no_reflect no_shear #
lump $-1 $-1 $37 $7 #
transform $-1 1 0 0 0 1 0 0 0 1 65.757621997741637 38.861757208834113 17.429142900291865 1 rotate no_reflect no_shear #
lump $-1 $-1 $38 $8 #
transform $-1 1 0 0 0 1 0 0 0 1 65.757621997741637 38.861757208834113 17.429142900291865 1 rotate no_reflect no_shear #
lump $-1 $-1 $39 $9 #
transform $-1 1 0 0 0 1 0 0 0 1 65.757621997741637 38.861757208834113 17.429142900291865 1 rotate no_reflect no_shear #
shell $-1 $-1 $-1 $40 $-1 $10 #
shell $-1 $-1 $-1 $41 $-1 $12 #
shell $-1 $-1 $-1 $42 $-1 $14 #
shell $-1 $-1 $-1 $43 $-1 $16 #
shell $-1 $-1 $-1 $44 $-1 $18 #
shell $-1 $-1 $-1 $45 $-1 $20 #
shell $-1 $-1 $-1 $46 $-1 $22 #
shell $-1 $-1 $-1 $47 $-1 $24 #
shell $-1 $-1 $-1 $48 $-1 $26 #
shell $-1 $-1 $-1 $49 $-1 $28 #
face $-1 $50 $51 $30 $-1 $52 forward single #
face $-1 $53 $54 $31 $-1 $55 reversed single #
face $-1 $56 $57 $32 $-1 $58 reversed single #
face $-1 $59 $60 $33 $-1 $61 reversed single #
face $-1 $62 $63 $34 $-1 $64 forward single #
face $-1 $65 $66 $35 $-1 $67 forward single #
face $-1 $68 $69 $36 $-1 $70 reversed single #
face $-1 $71 $72 $37 $-1 $73 forward single #
face $-1 $74 $75 $38 $-1 $76 reversed single #
face $-1 $77 $78 $39 $-1 $79 forward single #
face $-1 $80 $81 $30 $-1 $82 reversed single #
loop $-1 $-1 $83 $40 #
plane-surface $-1 0 0 17.429142900291865 0 0 1 1 0 0 forward_v I I I I #
face $-1 $84 $85 $31 $-1 $86 reversed single #
loop $-1 $-1 $87 $41 #
plane-surface $-1 -54.688826370759109 0 13.55608277534343 0 0 1 1 0 0 forward_v I I I I #
face $-1 $88 $89 $32 $-1 $90 reversed single #
loop $-1 $-1 $91 $42 #
plane-surface $-1 54.688826370759102 0 13.55608277534343 0 0 1 1 0 0 forward_v I I I I #
face $-1 $92 $93 $33 $-1 $94 reversed single #
loop $-1 $-1 $95 $43 #
plane-surface $-1 17.182284361981488 -142.49718482606826 93.680622512985124 -1 0 0 0 -0.78801076186113728 0.61566146476048833 forward_v I I I I #
face $-1 $96 $97 $34 $-1 $98 forward single #
loop $-1 $99 $100 $44 #
cone-surface $-1 3.1552369073114335 -35.846222246452612 14.154218606851831 0 0.78801076186113728 -0.61566146476048833 1 0 0 1 I I 0 1 1 forward I I I I #
face $-1 $101 $102 $35 $-1 $103 forward single #
loop $-1 $104 $105 $45 #
cone-surface $-1 11.571465380113466 -35.846222246452612 14.154218606851831 0 0.78801076186113728 -0.61566146476048833 1 0 0 1 I I 0 1 1 forward I I I I #
face $-1 $106 $107 $36 $-1 $108 reversed single #
loop $-1 $-1 $109 $46 #
plane-surface $-1 -33.850219481574477 -5.718618308670699 74.50321483288154 0 0.81915205242281985 0.57357642473473569 1 0 0 forward_v I I I I #
face $-1 $110 $111 $37 $-1 $112 forward single #
loop $-1 $113 $114 $47 #
cone-surface $-1 -33.85021948157447 35.777400787915951 13.589118619106697 0 -0.81915205242281985 -0.57357642473473569 1 0 0 1 I I 0 1 1 forward I I I I #
face $-1 $115 $116 $38 $-1 $117 reversed single #
loop $-1 $-1 $118 $48 #
plane-surface $-1 24.080408219372366 102.01236373511736 149.93725828192726 1 0 0 0 -0.81915205242281985 -0.57357642473473569 forward_v I I I I #
face $-1 $119 $120 $39 $-1 $121 forward single #
loop $-1 $122 $123 $49 #
cone-surface $-1 33.850219481574484 35.777400787915951 13.589118619106697 0 -0.81915205242281985 -0.57357642473473569 1 0 0 1 I I 0 1 1 forward I I I I #
face $-1 $124 $125 $30 $-1 $126 reversed single #
loop $-1 $-1 $127 $50 #
plane-surface $-1 0 0 -17.429142900291865 0 0 1 1 0 0 forward_v I I I I #
coedge $-1 $128 $129 $130 $131 forward $51 $-1 #
face $-1 $132 $133 $31 $-1 $134 reversed single #
loop $-1 $-1 $135 $53 #
plane-surface $-1 -43.620030743776582 0 15.492612837817646 -1 0 0 0 0 1 forward_v I I I I #
coedge $-1 $136 $137 $138 $139 forward $54 $-1 #
face $-1 $140 $141 $32 $-1 $142 forward single #
loop $-1 $-1 $143 $56 #
plane-surface $-1 43.620030743776574 0 15.492612837817646 1 0 0 0 0 -1 forward_v I I I I #
coedge $-1 $144 $145 $146 $147 reversed $57 $-1 #
face $-1 $148 $149 $33 $-1 $150 reversed single #
loop $-1 $-1 $151 $59 #
plane-surface $-1 7.3633511437124497 -38.861757208834135 12.711754756392878 0 -0.78801076186113728 0.61566146476048833 1 0 0 forward_v I I I I #
coedge $-1 $152 $153 $154 $155 reversed $60 $-1 #
face $-1 $-1 $156 $34 $-1 $157 forward single #
loop $-1 $158 $159 $62 #
cone-surface $-1 3.1552369073114335 -34.279495627953864 12.930157652981048 0 0.78801076186113728 -0.61566146476048833 0.5 0 0 1 I I -0.70710678118654746 0.70710678118654746 0.5 forward I I I I #
loop $-1 $-1 $160 $44 #
coedge $-1 $100 $100 $161 $162 reversed $63 $-1 #
face $-1 $-1 $163 $35 $-1 $164 forward single #
loop $-1 $165 $166 $65 #
cone-surface $-1 11.571465380113466 -34.279495627953864 12.930157652981048 0 0.78801076186113728 -0.61566146476048833 0.5 0 0 1 I I -0.70710678118654746 0.70710678118654746 0.5 forward I I I I #
loop $-1 $-1 $167 $45 #
coedge $-1 $105 $105 $168 $169 reversed $66 $-1 #
face $-1 $170 $171 $36 $-1 $172 reversed single #
loop $-1 $-1 $173 $68 #
plane-surface $-1 -24.080408219372373 102.01236373511736 149.93725828192726 -1 0 0 0 0.81915205242281985 0.57357642473473569 forward_v I I I I #
coedge $-1 $174 $175 $176 $177 reversed $69 $-1 #
face $-1 $-1 $178 $37 $-1 $179 forward single #
loop $-1 $180 $181 $71 #
cone-surface $-1 -33.85021948157447 34.591809000869468 12.758958337633118 0 -0.81915205242281985 -0.57357642473473569 0.5 0 0 1 I I -0.70710678118654746 0.70710678118654746 0.5 forward I I I I #
loop $-1 $-1 $182 $47 #
coedge $-1 $114 $114 $183 $184 reversed $72 $-1 #
face $-1 $185 $186 $38 $-1 $187 forward single #
loop $-1 $-1 $188 $74 #
plane-surface $-1 33.85021948157447 -5.718618308670699 74.50321483288154 0 0.81915205242281985 0.57357642473473569 1 0 0 forward_v I I I I #
coedge $-1 $189 $190 $191 $192 reversed $75 $-1 #
face $-1 $-1 $193 $39 $-1 $194 forward single #
loop $-1 $195 $196 $77 #
cone-surface $-1 33.850219481574484 34.591809000869468 12.758958337633118 0 -0.81915205242281985 -0.57357642473473569 0.5 0 0 1 I I -0.70710678118654746 0.70710678118654746 0.5 forward I I I I #
loop $-1 $-1 $197 $49 #
coedge $-1 $123 $123 $198 $199 reversed $78 $-1 #
face $-1 $200 $201 $30 $-1 $202 reversed single #
loop $-1 $-1 $203 $80 #
plane-surface $-1 0 -38.861757208834113 0 0 1 0 0 0 1 forward_v I I I I #
coedge $-1 $204 $205 $206 $207 forward $81 $-1 #
coedge $-1 $208 $83 $209 $210 forward $51 $-1 #
coedge $-1 $83 $208 $211 $212 forward $51 $-1 #
coedge $-1 $213 $214 $83 $131 reversed $215 $-1 #
edge $-1 $216 -38.861757208834113 $217 38.861757208834113 $130 $218 forward 7 unknown #
face $-1 $219 $220 $31 $-1 $221 reversed single #
loop $-1 $-1 $222 $84 #
plane-surface $-1 0 38.861757208834113 0 0 -1 0 0 0 -1 forward_v I I I I #
coedge $-1 $138 $223 $224 $225 reversed $85 $-1 #
coedge $-1 $226 $87 $227 $228 reversed $54 $-1 #
coedge $-1 $87 $226 $229 $230 reversed $54 $-1 #
coedge $-1 $231 $135 $87 $139 reversed $85 $-1 #
edge $-1 $232 -38.861757208834113 $233 38.861757208834113 $138 $234 forward 7 unknown #
face $-1 $235 $236 $32 $-1 $237 reversed single #
loop $-1 $-1 $238 $88 #
plane-surface $-1 0 0 17.429142900291865 0 0 1 1 0 0 forward_v I I I I #
coedge $-1 $239 $240 $241 $242 reversed $89 $-1 #
coedge $-1 $243 $91 $244 $245 reversed $57 $-1 #
coedge $-1 $91 $243 $246 $247 reversed $57 $-1 #
coedge $-1 $248 $249 $91 $147 forward $250 $-1 #
edge $-1 $251 -38.861757208834113 $252 38.861757208834113 $146 $253 forward 7 unknown #
face $-1 $254 $255 $33 $-1 $256 forward single #
loop $-1 $-1 $257 $92 #
plane-surface $-1 -2.4555820745565882 -142.49718482606826 93.680622512985124 1 0 0 0 0.78801076186113728 -0.61566146476048833 forward_v I I I I #
coedge $-1 $258 $259 $260 $261 reversed $93 $-1 #
coedge $-1 $153 $95 $262 $263 reversed $60 $-1 #
coedge $-1 $95 $152 $258 $264 reversed $60 $-1 #
coedge $-1 $260 $265 $95 $155 forward $255 $-1 #
edge $-1 $266 32.386835204200018 $267 36.072462653826641 $154 $268 forward 7 unknown #
loop $-1 $-1 $161 $96 #
plane-surface $-1 7.3633511437124497 -38.861757208834135 12.711754756392878 0 -0.78801076186113728 0.61566146476048833 1 0 0 forward_v I I I I #
loop $-1 $-1 $269 $62 #
coedge $-1 $159 $159 $160 $270 reversed $97 $-1 #
coedge $-1 $160 $160 $159 $270 forward $99 $-1 #
coedge $-1 $161 $161 $100 $162 forward $156 $-1 #
edge $-1 $271 3.3250952997184043e-015 $271 6.283185307179604 $161 $272 forward 7 unknown #
loop $-1 $-1 $168 $101 #
plane-surface $-1 7.3633511437124497 -38.861757208834135 12.711754756392878 0 -0.78801076186113728 0.61566146476048833 1 0 0 forward_v I I I I #
loop $-1 $-1 $273 $65 #
coedge $-1 $166 $166 $167 $274 reversed $102 $-1 #
coedge $-1 $167 $167 $166 $274 forward $104 $-1 #
coedge $-1 $168 $168 $105 $169 forward $163 $-1 #
edge $-1 $275 3.3250952997184043e-015 $275 6.283185307179604 $168 $276 forward 7 unknown #
face $-1 $277 $278 $36 $-1 $279 forward single #
loop $-1 $-1 $280 $106 #
plane-surface $-1 0 38.861757208834113 0 0 -1 0 0 0 -1 forward_v I I I I #
coedge $-1 $281 $282 $283 $284 reversed $107 $-1 #
coedge $-1 $285 $109 $286 $287 reversed $69 $-1 #
coedge $-1 $109 $285 $281 $288 forward $69 $-1 #
coedge $-1 $283 $289 $109 $177 forward $278 $-1 #
edge $-1 $290 -26.694921002989343 $291 -7.1552984785851343 $176 $292 forward 7 unknown #
loop $-1 $-1 $183 $110 #
plane-surface $-1 -33.850219481574477 -5.718618308670699 74.50321483288154 0 0.81915205242281985 0.57357642473473569 1 0 0 forward_v I I I I #
loop $-1 $-1 $293 $71 #
coedge $-1 $181 $181 $182 $294 reversed $111 $-1 #
coedge $-1 $182 $182 $181 $294 forward $113 $-1 #
coedge $-1 $183 $183 $114 $184 forward $178 $-1 #
edge $-1 $295 2.0347332158398754e-015 $295 6.2831853071796022 $183 $296 forward 7 unknown #
face $-1 $297 $298 $38 $-1 $299 forward single #
loop $-1 $-1 $191 $115 #
plane-surface $-1 0 0 17.429142900291865 0 0 1 1 0 0 forward_v I I I I #
coedge $-1 $300 $301 $302 $303 reversed $116 $-1 #
coedge $-1 $190 $118 $304 $305 reversed $75 $-1 #
coedge $-1 $118 $189 $300 $306 reversed $75 $-1 #
coedge $-1 $302 $307 $118 $192 forward $186 $-1 #
edge $-1 $308 12.144424658724567 $309 16.761105978890704 $191 $310 forward 7 unknown #
loop $-1 $-1 $198 $119 #
plane-surface $-1 33.85021948157447 -5.718618308670699 74.50321483288154 0 0.81915205242281985 0.57357642473473569 1 0 0 forward_v I I I I #
loop $-1 $-1 $311 $77 #
coedge $-1 $196 $196 $197 $312 reversed $120 $-1 #
coedge $-1 $197 $197 $196 $312 forward $122 $-1 #
coedge $-1 $198 $198 $123 $199 forward $193 $-1 #
edge $-1 $313 2.0347332158398754e-015 $313 6.2831853071796022 $198 $314 forward 7 unknown #
face $-1 $315 $316 $30 $-1 $317 reversed single #
loop $-1 $-1 $318 $124 #
plane-surface $-1 -65.757621997741637 0 0 1 0 0 0 0 -1 forward_v I I I I #
coedge $-1 $319 $211 $320 $321 forward $125 $-1 #
coedge $-1 $322 $127 $319 $323 forward $81 $-1 #
coedge $-1 $127 $322 $324 $325 forward $81 $-1 #
coedge $-1 $214 $213 $127 $207 reversed $215 $-1 #
edge $-1 $326 -38.861757208834113 $327 38.861757208834113 $206 $328 forward 7 unknown #
coedge $-1 $129 $128 $329 $330 forward $51 $-1 #
coedge $-1 $331 $332 $128 $210 reversed $316 $-1 #
edge $-1 $217 -65.757621997741637 $333 65.757621997741637 $209 $334 forward 7 unknown #
coedge $-1 $203 $335 $129 $212 reversed $125 $-1 #
edge $-1 $336 -65.757621997741637 $216 65.757621997741637 $211 $337 forward 7 unknown #
coedge $-1 $206 $130 $335 $338 forward $215 $-1 #
coedge $-1 $130 $206 $331 $339 reversed $215 $-1 #
loop $-1 $-1 $213 $315 #
vertex $-1 $131 $340 #
vertex $-1 $131 $341 #
straight-curve $-1 65.757621997741637 0 17.429142900291865 0 1 0 I I #
face $-1 $342 $343 $31 $-1 $344 forward single #
loop $-1 $-1 $345 $132 #
plane-surface $-1 -65.757621997741637 0 0 1 0 0 0 0 -1 forward_v I I I I #
coedge $-1 $229 $346 $231 $347 forward $133 $-1 #
coedge $-1 $135 $231 $348 $349 reversed $85 $-1 #
coedge $-1 $350 $227 $135 $225 forward $351 $-1 #
edge $-1 $233 5.8097763564346074 $352 9.6828364813830383 $224 $353 forward 7 unknown #
coedge $-1 $137 $136 $345 $354 reversed $54 $-1 #
coedge $-1 $224 $355 $136 $228 forward $351 $-1 #
edge $-1 $356 -38.413208812362086 $233 -16.275617558397027 $227 $357 forward 7 unknown #
coedge $-1 $358 $222 $137 $230 forward $133 $-1 #
edge $-1 $232 16.275617558397027 $359 38.413208812362086 $229 $360 forward 7 unknown #
coedge $-1 $223 $138 $222 $347 reversed $85 $-1 #
vertex $-1 $230 $361 #
vertex $-1 $228 $362 #
straight-curve $-1 -43.620030743776582 0 13.55608277534343 0 -1 0 I I #
face $-1 $363 $364 $32 $-1 $365 reversed single #
loop $-1 $-1 $366 $140 #
plane-surface $-1 0 -38.861757208834113 0 0 1 0 0 0 1 forward_v I I I I #
coedge $-1 $367 $368 $240 $369 forward $141 $-1 #
coedge $-1 $370 $143 $243 $371 reversed $89 $-1 #
coedge $-1 $143 $370 $238 $369 reversed $89 $-1 #
coedge $-1 $372 $246 $143 $242 forward $364 $-1 #
edge $-1 $373 5.8097763564346074 $374 9.6828364813830383 $241 $375 forward 7 unknown #
coedge $-1 $145 $144 $239 $371 forward $57 $-1 #
coedge $-1 $376 $366 $144 $245 forward $236 $-1 #
edge $-1 $377 16.275617558397023 $251 38.413208812362086 $244 $378 forward 7 unknown #
coedge $-1 $241 $379 $145 $247 forward $364 $-1 #
edge $-1 $252 -38.413208812362086 $373 -16.275617558397023 $246 $380 forward 7 unknown #
coedge $-1 $381 $146 $379 $382 reversed $250 $-1 #
coedge $-1 $146 $381 $376 $383 forward $250 $-1 #
loop $-1 $-1 $146 $363 #
vertex $-1 $245 $384 #
vertex $-1 $147 $385 #
straight-curve $-1 65.757621997741637 0 13.55608277534343 0 1 0 I I #
face $-1 $-1 $386 $33 $-1 $387 reversed single #
loop $-1 $-1 $154 $148 #
plane-surface $-1 0 0 17.429142900291865 0 0 1 1 0 0 forward_v I I I I #
coedge $-1 $388 $389 $390 $391 reversed $149 $-1 #
coedge $-1 $392 $151 $153 $264 forward $93 $-1 #
coedge $-1 $151 $392 $388 $393 forward $93 $-1 #
coedge $-1 $390 $154 $151 $261 forward $255 $-1 #
edge $-1 $267 -13.500608790125263 $394 6.137257646412813 $260 $395 forward 7 unknown #
coedge $-1 $396 $397 $152 $263 forward $386 $-1 #
edge $-1 $398 -34.128556500099656 $266 -29.411168356200697 $262 $399 forward 7 unknown #
edge $-1 $267 -5.986451419467139 $398 -3.4120438039485133e-014 $153 $400 forward 7 unknown #
coedge $-1 $154 $390 $396 $401 forward $255 $-1 #
vertex $-1 $263 $402 #
vertex $-1 $155 $403 #
straight-curve $-1 17.182284361981488 -71.248592413034132 17.429142900291865 0 1 0 I I #
coedge $-1 $269 $269 $-1 $404 reversed $158 $-1 #
edge $-1 $405 0 $405 6.2831853071796004 $159 $406 forward 7 unknown #
vertex $-1 $162 $407 #
ellipse-curve $-1 3.1552369073114335 -37.018943484020809 15.07044882834238 0 -0.78801076186113728 0.61566146476048833 1 0 0 1 I I #
coedge $-1 $273 $273 $-1 $408 reversed $165 $-1 #
edge $-1 $409 0 $409 6.2831853071796004 $166 $410 forward 7 unknown #
vertex $-1 $169 $411 #
ellipse-curve $-1 11.571465380113466 -37.018943484020809 15.07044882834238 0 -0.78801076186113728 0.61566146476048833 1 0 0 1 I I #
face $-1 $-1 $412 $36 $-1 $413 forward single #
loop $-1 $-1 $283 $170 #
plane-surface $-1 0 0 17.429142900291865 0 0 1 1 0 0 forward_v I I I I #
coedge $-1 $414 $415 $282 $416 forward $171 $-1 #
coedge $-1 $282 $173 $175 $288 reversed $107 $-1 #
coedge $-1 $173 $281 $280 $416 reversed $107 $-1 #
coedge $-1 $417 $176 $173 $284 forward $278 $-1 #
edge $-1 $291 -16.761105978890704 $418 -12.144424658724567 $283 $419 forward 7 unknown #
coedge $-1 $175 $174 $414 $420 reversed $69 $-1 #
coedge $-1 $421 $422 $174 $287 forward $412 $-1 #
edge $-1 $423 -51.914154226231879 $290 -43.865215809173968 $286 $424 forward 7 unknown #
edge $-1 $425 -77.723514417668213 $291 -69.674576000610301 $281 $426 forward 7 unknown #
coedge $-1 $176 $417 $421 $427 forward $278 $-1 #
vertex $-1 $287 $428 #
vertex $-1 $177 $429 #
straight-curve $-1 -16.925109740787239 34.245075888667976 17.429142900291865 1 0 0 I I #
coedge $-1 $293 $293 $-1 $430 reversed $180 $-1 #
edge $-1 $431 0 $431 6.2831853071796004 $181 $432 forward 7 unknown #
vertex $-1 $184 $433 #
ellipse-curve $-1 -33.85021948157447 36.553416548751045 14.132490688212924 0 0.81915205242281985 0.57357642473473569 1 0 0 1 I I #
face $-1 $-1 $434 $38 $-1 $435 reversed single #
loop $-1 $-1 $436 $185 #
plane-surface $-1 43.620030743776574 0 15.492612837817646 1 0 0 0 0 -1 forward_v I I I I #
coedge $-1 $437 $188 $190 $306 forward $116 $-1 #
coedge $-1 $188 $437 $436 $438 forward $116 $-1 #
coedge $-1 $439 $191 $188 $303 forward $186 $-1 #
edge $-1 $309 7.1552984785851308 $440 26.694921002989339 $302 $441 forward 7 unknown #
coedge $-1 $442 $443 $189 $305 forward $434 $-1 #
edge $-1 $444 -64.132790664829628 $308 -57.539486240671764 $304 $445 forward 7 unknown #
edge $-1 $309 69.674576000610301 $444 77.723514417668213 $190 $446 forward 7 unknown #
coedge $-1 $191 $439 $442 $447 forward $186 $-1 #
vertex $-1 $305 $448 #
vertex $-1 $192 $449 #
straight-curve $-1 24.080408219372366 51.006181867558681 17.429142900291865 0 -1 0 I I #
coedge $-1 $311 $311 $-1 $450 reversed $195 $-1 #
edge $-1 $451 0 $451 6.2831853071796004 $196 $452 forward 7 unknown #
vertex $-1 $199 $453 #
ellipse-curve $-1 33.850219481574484 36.553416548751045 14.132490688212924 0 0.81915205242281985 0.57357642473473569 1 0 0 1 I I #
face $-1 $-1 $215 $30 $-1 $454 reversed single #
loop $-1 $-1 $331 $200 #
plane-surface $-1 0 38.861757208834113 0 0 -1 0 0 0 -1 forward_v I I I I #
coedge $-1 $455 $329 $332 $456 forward $201 $-1 #
coedge $-1 $335 $203 $204 $323 reversed $125 $-1 #
coedge $-1 $329 $455 $203 $321 reversed $201 $-1 #
edge $-1 $336 -17.429142900291865 $457 17.429142900291865 $320 $458 forward 7 unknown #
coedge $-1 $205 $204 $455 $459 forward $81 $-1 #
edge $-1 $327 -65.757621997741637 $457 65.757621997741637 $319 $460 forward 7 unknown #
coedge $-1 $332 $331 $205 $325 reversed $316 $-1 #
edge $-1 $461 -65.757621997741637 $326 65.757621997741637 $324 $462 forward 7 unknown #
vertex $-1 $207 $463 #
vertex $-1 $338 $464 #
straight-curve $-1 65.757621997741637 0 -17.429142900291865 0 -1 0 I I #
coedge $-1 $318 $320 $208 $330 reversed $201 $-1 #
edge $-1 $333 -38.861757208834113 $336 38.861757208834113 $329 $465 forward 7 unknown #
coedge $-1 $324 $209 $214 $339 forward $316 $-1 #
coedge $-1 $209 $324 $318 $456 reversed $316 $-1 #
vertex $-1 $210 $466 #
straight-curve $-1 0 38.861757208834113 17.429142900291865 -1 0 0 I I #
coedge $-1 $211 $319 $213 $338 reversed $125 $-1 #
vertex $-1 $330 $467 #
straight-curve $-1 0 -38.861757208834113 17.429142900291865 1 0 0 I I #
edge $-1 $216 -17.429142900291865 $327 17.429142900291865 $213 $468 forward 7 unknown #
edge $-1 $217 -17.429142900291865 $326 17.429142900291865 $214 $469 forward 7 unknown #
point $-1 65.757621997741637 -38.861757208834113 17.429142900291865 #
point $-1 65.757621997741637 38.861757208834113 17.429142900291865 #
face $-1 $-1 $351 $31 $-1 $470 reversed single #
loop $-1 $-1 $348 $219 #
plane-surface $-1 0 0 17.429142900291865 0 0 1 1 0 0 forward_v I I I I #
coedge $-1 $471 $472 $226 $354 forward $220 $-1 #
coedge $-1 $222 $358 $473 $474 reversed $133 $-1 #
edge $-1 $475 -9.6828364813830383 $232 -5.8097763564346074 $222 $476 forward 7 unknown #
coedge $-1 $473 $477 $223 $349 forward $343 $-1 #
edge $-1 $352 -38.861757208834113 $475 38.861757208834113 $348 $478 forward 7 unknown #
coedge $-1 $355 $224 $477 $479 reversed $351 $-1 #
loop $-1 $-1 $224 $342 #
vertex $-1 $225 $480 #
straight-curve $-1 -43.620030743776582 -38.861757208834113 7.7463064189088229 0 0 1 I I #
edge $-1 $359 -38.861757208834113 $356 38.861757208834113 $345 $481 forward 7 unknown #
coedge $-1 $227 $350 $471 $482 forward $351 $-1 #
vertex $-1 $354 $483 #
straight-curve $-1 -27.344413185379555 -38.861757208834113 13.55608277534343 1 0 0 I I #
coedge $-1 $346 $229 $472 $484 reversed $133 $-1 #
vertex $-1 $354 $485 #
straight-curve $-1 -27.344413185379555 38.861757208834113 13.55608277534343 -1 0 0 I I #
point $-1 -43.620030743776582 38.861757208834113 13.55608277534343 #
point $-1 -43.620030743776582 -38.861757208834113 13.55608277534343 #
face $-1 $-1 $250 $32 $-1 $486 reversed single #
loop $-1 $-1 $241 $235 #
plane-surface $-1 0 38.861757208834113 0 0 -1 0 0 0 -1 forward_v I I I I #
coedge $-1 $244 $487 $370 $488 forward $236 $-1 #
coedge $-1 $489 $238 $487 $490 forward $141 $-1 #
coedge $-1 $238 $489 $372 $491 forward $141 $-1 #
edge $-1 $374 -38.861757208834113 $492 38.861757208834113 $238 $493 forward 7 unknown #
coedge $-1 $240 $239 $366 $488 reversed $89 $-1 #
edge $-1 $377 -38.861757208834113 $373 38.861757208834113 $239 $494 forward 7 unknown #
coedge $-1 $379 $241 $368 $491 reversed $364 $-1 #
vertex $-1 $247 $495 #
vertex $-1 $242 $496 #
straight-curve $-1 43.620030743776574 38.861757208834113 7.7463064189088229 0 0 1 I I #
coedge $-1 $487 $244 $249 $383 reversed $236 $-1 #
vertex $-1 $245 $497 #
straight-curve $-1 27.344413185379551 -38.861757208834113 13.55608277534343 1 0 0 I I #
coedge $-1 $246 $372 $248 $382 forward $364 $-1 #
straight-curve $-1 27.344413185379551 38.861757208834113 13.55608277534343 -1 0 0 I I #
coedge $-1 $249 $248 $489 $498 reversed $250 $-1 #
edge $-1 $499 -17.429142900291865 $252 -13.55608277534343 $248 $500 forward 7 unknown #
edge $-1 $501 -17.429142900291865 $251 -13.55608277534343 $249 $502 forward 7 unknown #
point $-1 65.757621997741637 -38.861757208834113 13.55608277534343 #
point $-1 65.757621997741637 38.861757208834113 13.55608277534343 #
loop $-1 $-1 $262 $254 #
plane-surface $-1 0 -38.861757208834113 0 0 1 0 0 0 1 forward_v I I I I #
coedge $-1 $389 $257 $259 $393 reversed $149 $-1 #
coedge $-1 $257 $388 $503 $504 reversed $149 $-1 #
coedge $-1 $265 $260 $257 $391 forward $255 $-1 #
edge $-1 $394 -36.072462653826641 $505 -32.386835204200018 $390 $506 forward 7 unknown #
coedge $-1 $259 $258 $397 $507 reversed $93 $-1 #
edge $-1 $508 3.4120438039485133e-014 $394 5.986451419467139 $388 $509 forward 7 unknown #
vertex $-1 $261 $510 #
straight-curve $-1 3.6816755718562248 -35.176129759207491 17.429142900291865 -1 0 0 I I #
coedge $-1 $503 $262 $265 $401 reversed $386 $-1 #
coedge $-1 $262 $503 $392 $507 forward $386 $-1 #
vertex $-1 $263 $511 #
straight-curve $-1 17.182284361981488 -38.861757208834113 46.840311256492562 0 0 1 I I #
straight-curve $-1 17.182284361981488 -38.861757208834135 12.711754756392878 0 -0.61566146476048833 -0.78801076186113728 I I #
edge $-1 $505 -2.4555820745565882 $266 17.182284361981488 $396 $512 forward 7 unknown #
point $-1 17.182284361981488 -38.861757208834113 17.429142900291865 #
point $-1 17.182284361981488 -35.176129759207491 17.429142900291865 #
edge $-1 $513 1 $513 0 $269 $-1 forward 7 unknown #
vertex $-1 $270 $514 #
ellipse-curve $-1 3.1552369073114335 -34.673501008884429 13.237988385361293 0 -0.78801076186113728 0.61566146476048833 1 0 0 1 I I #
point $-1 4.1552369073114335 -37.018943484020788 15.070448828342368 #
edge $-1 $515 1 $515 0 $273 $-1 forward 7 unknown #
vertex $-1 $274 $516 #
ellipse-curve $-1 11.571465380113466 -34.673501008884429 13.237988385361293 0 -0.78801076186113728 0.61566146476048833 1 0 0 1 I I #
point $-1 12.571465380113466 -37.018943484020788 15.070448828342368 #
loop $-1 $-1 $286 $277 #
plane-surface $-1 -43.620030743776582 0 15.492612837817646 -1 0 0 0 0 1 forward_v I I I I #
coedge $-1 $517 $280 $285 $420 forward $171 $-1 #
coedge $-1 $280 $517 $417 $518 reversed $171 $-1 #
edge $-1 $418 57.539486240671764 $425 64.132790664829628 $280 $519 forward 7 unknown #
coedge $-1 $289 $283 $415 $518 forward $278 $-1 #
vertex $-1 $518 $520 #
straight-curve $-1 -24.080408219372373 51.006181867558681 17.429142900291865 0 1 0 I I #
edge $-1 $425 7.1552984785851343 $423 26.694921002989343 $414 $521 forward 7 unknown #
coedge $-1 $422 $286 $289 $427 reversed $412 $-1 #
coedge $-1 $286 $421 $517 $522 reversed $412 $-1 #
vertex $-1 $522 $523 #
straight-curve $-1 -43.620030743776582 9.0850222346243701 53.36142446034664 0 -0.57357642473473569 0.81915205242281985 I I #
vertex $-1 $420 $524 #
straight-curve $-1 -24.080408219372373 -5.718618308670699 74.50321483288154 0 -0.57357642473473569 0.81915205242281985 I I #
edge $-1 $525 -38.861757208834113 $290 -34.245075888667976 $289 $526 forward 7 unknown #
point $-1 -43.620030743776582 34.245075888667976 17.429142900291865 #
point $-1 -24.080408219372373 34.245075888667976 17.429142900291865 #
edge $-1 $527 1 $527 0 $293 $-1 forward 7 unknown #
vertex $-1 $294 $528 #
ellipse-curve $-1 -33.85021948157447 35.001385027080879 13.045746550000485 0 0.81915205242281985 0.57357642473473569 1 0 0 1 I I #
point $-1 -32.85021948157447 36.553416548751031 14.132490688212911 #
loop $-1 $-1 $304 $297 #
plane-surface $-1 0 38.861757208834113 0 0 -1 0 0 0 -1 forward_v I I I I #
coedge $-1 $529 $530 $301 $438 reversed $298 $-1 #
coedge $-1 $301 $300 $443 $531 reversed $116 $-1 #
edge $-1 $532 -77.723514417668213 $440 -69.674576000610301 $436 $533 forward 7 unknown #
coedge $-1 $307 $302 $530 $534 forward $186 $-1 #
vertex $-1 $534 $535 #
straight-curve $-1 16.925109740787235 34.245075888667976 17.429142900291865 1 0 0 I I #
coedge $-1 $536 $304 $307 $447 reversed $434 $-1 #
coedge $-1 $304 $536 $437 $531 forward $434 $-1 #
vertex $-1 $305 $537 #
straight-curve $-1 24.080408219372366 38.861757208834113 74.968629140963628 0 0 1 I I #
straight-curve $-1 24.080408219372366 -5.718618308670699 74.50321483288154 0 0.57357642473473569 -0.81915205242281985 I I #
edge $-1 $538 -43.620030743776574 $308 -24.080408219372366 $442 $539 forward 7 unknown #
point $-1 24.080408219372366 38.861757208834113 17.429142900291865 #
point $-1 24.080408219372366 34.245075888667976 17.429142900291865 #
edge $-1 $540 1 $540 0 $311 $-1 forward 7 unknown #
vertex $-1 $312 $541 #
ellipse-curve $-1 33.850219481574484 35.001385027080879 13.045746550000485 0 0.81915205242281985 0.57357642473473569 1 0 0 1 I I #
point $-1 34.850219481574484 36.553416548751031 14.132490688212911 #
plane-surface $-1 65.757621997741637 0 0 -1 0 0 0 0 1 forward_v I I I I #
coedge $-1 $320 $318 $322 $459 reversed $201 $-1 #
edge $-1 $333 -17.429142900291865 $461 17.429142900291865 $332 $542 forward 7 unknown #
vertex $-1 $459 $543 #
straight-curve $-1 -65.757621997741637 -38.861757208834113 0 0 0 -1 I I #
edge $-1 $457 -38.861757208834113 $461 38.861757208834113 $455 $544 forward 7 unknown #
straight-curve $-1 0 -38.861757208834113 -17.429142900291865 -1 0 0 I I #
vertex $-1 $325 $545 #
straight-curve $-1 0 38.861757208834113 -17.429142900291865 1 0 0 I I #
point $-1 65.757621997741637 38.861757208834113 -17.429142900291865 #
point $-1 65.757621997741637 -38.861757208834113 -17.429142900291865 #
straight-curve $-1 -65.757621997741637 0 17.429142900291865 0 -1 0 I I #
point $-1 -65.757621997741637 38.861757208834113 17.429142900291865 #
point $-1 -65.757621997741637 -38.861757208834113 17.429142900291865 #
straight-curve $-1 65.757621997741637 -38.861757208834113 0 0 0 -1 I I #
straight-curve $-1 65.757621997741637 38.861757208834113 0 0 0 -1 I I #
plane-surface $-1 0 -38.861757208834113 0 0 1 0 0 0 1 forward_v I I I I #
coedge $-1 $546 $345 $355 $482 reversed $220 $-1 #
coedge $-1 $345 $546 $358 $484 forward $220 $-1 #
coedge $-1 $547 $348 $346 $474 forward $343 $-1 #
edge $-1 $475 43.620030743776582 $548 65.757621997741637 $346 $549 forward 7 unknown #
vertex $-1 $474 $550 #
straight-curve $-1 -43.620030743776582 38.861757208834113 7.7463064189088229 0 0 -1 I I #
coedge $-1 $348 $547 $350 $479 forward $343 $-1 #
straight-curve $-1 -43.620030743776582 0 17.429142900291865 0 1 0 I I #
edge $-1 $551 -65.757621997741637 $352 -43.620030743776582 $350 $552 forward 7 unknown #
point $-1 -43.620030743776582 -38.861757208834113 17.429142900291861 #
straight-curve $-1 -65.757621997741637 0 13.55608277534343 0 -1 0 I I #
edge $-1 $551 -17.429142900291865 $356 -13.55608277534343 $471 $553 forward 7 unknown #
point $-1 -65.757621997741637 -38.861757208834113 13.55608277534343 #
edge $-1 $548 -17.429142900291865 $359 -13.55608277534343 $358 $554 forward 7 unknown #
point $-1 -65.757621997741637 38.861757208834113 13.55608277534343 #
plane-surface $-1 65.757621997741637 0 0 -1 0 0 0 0 1 forward_v I I I I #
coedge $-1 $366 $376 $367 $490 reversed $236 $-1 #
edge $-1 $492 -9.6828364813830383 $377 -5.8097763564346074 $366 $555 forward 7 unknown #
coedge $-1 $368 $367 $381 $498 forward $141 $-1 #
edge $-1 $492 43.620030743776574 $501 65.757621997741637 $487 $556 forward 7 unknown #
edge $-1 $499 -65.757621997741637 $374 -43.620030743776574 $372 $557 forward 7 unknown #
vertex $-1 $490 $558 #
straight-curve $-1 43.620030743776574 0 17.429142900291865 0 -1 0 I I #
straight-curve $-1 43.620030743776574 0 13.55608277534343 0 1 0 I I #
point $-1 43.620030743776574 38.861757208834113 13.55608277534343 #
point $-1 43.620030743776574 38.861757208834113 17.429142900291861 #
point $-1 43.620030743776574 -38.861757208834113 13.55608277534343 #
edge $-1 $501 -38.861757208834113 $499 38.861757208834113 $381 $559 forward 7 unknown #
vertex $-1 $498 $560 #
straight-curve $-1 65.757621997741637 38.861757208834113 0 0 0 -1 I I #
vertex $-1 $498 $561 #
straight-curve $-1 65.757621997741637 -38.861757208834113 0 0 0 -1 I I #
coedge $-1 $397 $396 $389 $504 forward $386 $-1 #
edge $-1 $505 29.411168356200697 $508 34.128556500099656 $503 $562 forward 7 unknown #
vertex $-1 $401 $563 #
straight-curve $-1 -2.4555820745565882 -71.248592413034132 17.429142900291865 0 -1 0 I I #
edge $-1 $508 -6.137257646412813 $398 13.500608790125263 $397 $564 forward 7 unknown #
vertex $-1 $507 $565 #
straight-curve $-1 -2.4555820745565882 -38.861757208834135 12.711754756392878 0 0.61566146476048833 0.78801076186113728 I I #
point $-1 -2.4555820745565882 -35.176129759207491 17.429142900291865 #
point $-1 17.182284361981488 -38.861757208834113 12.711754756392905 #
straight-curve $-1 0 -38.861757208834113 17.429142900291865 1 0 0 I I #
vertex $-1 $404 $566 #
point $-1 4.1552369073114335 -34.673501008884429 13.237988385361293 #
vertex $-1 $408 $567 #
point $-1 12.571465380113466 -34.673501008884429 13.237988385361293 #
coedge $-1 $415 $414 $422 $522 forward $171 $-1 #
edge $-1 $418 24.080408219372373 $525 43.620030743776582 $415 $568 forward 7 unknown #
straight-curve $-1 -24.080408219372373 38.861757208834113 74.968629140963628 0 0 -1 I I #
point $-1 -24.080408219372373 38.861757208834113 17.429142900291865 #
straight-curve $-1 -16.925109740787239 38.861757208834121 10.835838476134001 -1 0 0 I I #
edge $-1 $423 -64.132790664829628 $525 -57.539486240671764 $517 $569 forward 7 unknown #
point $-1 -43.620030743776582 38.861757208834113 10.835838476133993 #
point $-1 -24.080408219372373 38.861757208834113 10.835838476133993 #
vertex $-1 $427 $570 #
straight-curve $-1 -43.620030743776582 0 17.429142900291865 0 -1 0 I I #
vertex $-1 $430 $571 #
point $-1 -32.85021948157447 35.001385027080879 13.045746550000485 #
coedge $-1 $530 $436 $536 $572 reversed $298 $-1 #
coedge $-1 $436 $529 $439 $534 reversed $298 $-1 #
edge $-1 $532 -26.694921002989339 $444 -7.1552984785851308 $443 $573 forward 7 unknown #
vertex $-1 $572 $574 #
straight-curve $-1 43.620030743776574 -5.718618308670699 74.50321483288154 0 -0.57357642473473569 0.81915205242281985 I I #
edge $-1 $440 34.245075888667976 $538 38.861757208834113 $439 $575 forward 7 unknown #
point $-1 43.620030743776574 34.245075888667976 17.429142900291865 #
coedge $-1 $443 $442 $529 $572 forward $434 $-1 #
point $-1 24.080408219372366 38.861757208834113 10.835838476133993 #
vertex $-1 $447 $576 #
straight-curve $-1 0 38.861757208834113 17.429142900291865 -1 0 0 I I #
vertex $-1 $450 $577 #
point $-1 34.850219481574484 35.001385027080879 13.045746550000485 #
straight-curve $-1 -65.757621997741637 38.861757208834113 0 0 0 -1 I I #
point $-1 -65.757621997741637 -38.861757208834113 -17.429142900291865 #
straight-curve $-1 -65.757621997741637 0 -17.429142900291865 0 1 0 I I #
point $-1 -65.757621997741637 38.861757208834113 -17.429142900291865 #
coedge $-1 $472 $471 $547 $578 reversed $220 $-1 #
coedge $-1 $477 $473 $546 $578 forward $343 $-1 #
vertex $-1 $474 $579 #
straight-curve $-1 0 38.861757208834113 17.429142900291865 -1 0 0 I I #
point $-1 -43.620030743776582 38.861757208834113 17.429142900291861 #
vertex $-1 $578 $580 #
straight-curve $-1 0 -38.861757208834113 17.429142900291865 1 0 0 I I #
straight-curve $-1 -65.757621997741637 -38.861757208834113 0 0 0 -1 I I #
straight-curve $-1 -65.757621997741637 38.861757208834113 0 0 0 -1 I I #
straight-curve $-1 43.620030743776574 -38.861757208834113 7.7463064189088229 0 0 -1 I I #
straight-curve $-1 0 -38.861757208834113 17.429142900291865 1 0 0 I I #
straight-curve $-1 0 38.861757208834113 17.429142900291865 -1 0 0 I I #
point $-1 43.620030743776574 -38.861757208834113 17.429142900291861 #
straight-curve $-1 65.757621997741637 0 17.429142900291865 0 1 0 I I #
point $-1 65.757621997741637 38.861757208834113 17.429142900291865 #
point $-1 65.757621997741637 -38.861757208834113 17.429142900291865 #
straight-curve $-1 -2.4555820745565882 -38.861757208834113 46.840311256492562 0 0 -1 I I #
point $-1 -2.4555820745565882 -38.861757208834113 17.429142900291865 #
straight-curve $-1 3.6816755718562248 -38.861757208834113 12.711754756392898 1 0 0 I I #
point $-1 -2.4555820745565882 -38.861757208834113 12.711754756392905 #
point $-1 3.1552369073114335 -33.885490247023299 12.622326920600804 #
point $-1 11.571465380113466 -33.885490247023299 12.622326920600804 #
straight-curve $-1 0 38.861757208834113 17.429142900291865 -1 0 0 I I #
straight-curve $-1 -43.620030743776582 38.861757208834113 74.968629140963628 0 0 1 I I #
point $-1 -43.620030743776582 38.861757208834113 17.429142900291861 #
point $-1 -33.85021948157447 34.182232974658056 12.47217012526575 #
edge $-1 $538 57.539486240671764 $532 64.132790664829628 $536 $581 forward 7 unknown #
straight-curve $-1 16.925109740787235 38.861757208834121 10.835838476134001 -1 0 0 I I #
point $-1 43.620030743776574 38.861757208834113 10.835838476133993 #
straight-curve $-1 43.620030743776574 0 17.429142900291865 0 1 0 I I #
point $-1 43.620030743776574 38.861757208834113 17.429142900291861 #
point $-1 33.850219481574484 34.182232974658056 12.47217012526575 #
edge $-1 $548 -38.861757208834113 $551 38.861757208834113 $546 $582 forward 7 unknown #
point $-1 -65.757621997741637 38.861757208834113 17.429142900291865 #
point $-1 -65.757621997741637 -38.861757208834113 17.429142900291865 #
straight-curve $-1 43.620030743776574 38.861757208834113 74.968629140963628 0 0 -1 I I #
straight-curve $-1 -65.757621997741637 0 17.429142900291865 0 -1 0 I I #
End-of-ACIS-data 