500 0 9 0           
7 Unknown 11 ACIS 5.0 NT 24 Thu Mar 25 21:12:49 1999 
-1 9.9999999999999995e-007 1e-010 
body $-1 $9 $-1 $10 #
body $-1 $11 $-1 $12 #
body $-1 $13 $-1 $14 #
body $-1 $15 $-1 $16 #
body $-1 $17 $-1 $18 #
body $-1 $19 $-1 $20 #
body $-1 $21 $-1 $22 #
body $-1 $23 $-1 $24 #
body $-1 $25 $-1 $26 #
lump $-1 $-1 $27 $0 #
transform $-1 1 0 0 0 1 0 0 0 1 61.749931333353679 27.866524540526573 10.026403934537555 1 rotate no_reflect no_shear #
lump $-1 $-1 $28 $1 #
transform $-1 1 0 0 0 1 0 0 0 1 61.749931333353679 27.866524540526573 10.026403934537555 1 rotate no_reflect no_shear #
lump $-1 $-1 $29 $2 #
transform $-1 1 0 0 0 1 0 0 0 1 61.749931333353679 27.866524540526573 10.026403934537555 1 rotate no_reflect no_shear #
lump $-1 $-1 $30 $3 #
transform $-1 1 0 0 0 1 0 0 0 1 61.749931333353679 27.866524540526573 10.026403934537555 1 rotate no_reflect no_shear #
lump $-1 $-1 $31 $4 #
transform $-1 1 0 0 0 1 0 0 0 1 61.749931333353679 27.866524540526573 10.026403934537555 1 rotate no_reflect no_shear #
lump $-1 $-1 $32 $5 #
transform $-1 1 0 0 0 1 0 0 0 1 61.749931333353679 27.866524540526573 10.026403934537555 1 rotate no_reflect no_shear #
lump $-1 $-1 $33 $6 #
transform $-1 1 0 0 0 1 0 0 0 1 61.749931333353679 27.866524540526573 10.026403934537555 1 rotate no_reflect no_shear #
lump $-1 $-1 $34 $7 #
transform $-1 1 0 0 0 1 0 0 0 1 61.749931333353679 27.866524540526573 10.026403934537555 1 rotate no_reflect no_shear #
lump $-1 $-1 $35 $8 #
transform $-1 1 0 0 0 1 0 0 0 1 61.749931333353679 27.866524540526573 10.026403934537555 1 rotate no_reflect no_shear #
shell $-1 $-1 $-1 $36 $-1 $9 #
shell $-1 $-1 $-1 $37 $-1 $11 #
shell $-1 $-1 $-1 $38 $-1 $13 #
shell $-1 $-1 $-1 $39 $-1 $15 #
shell $-1 $-1 $-1 $40 $-1 $17 #
shell $-1 $-1 $-1 $41 $-1 $19 #
shell $-1 $-1 $-1 $42 $-1 $21 #
shell $-1 $-1 $-1 $43 $-1 $23 #
shell $-1 $-1 $-1 $44 $-1 $25 #
face $-1 $45 $46 $27 $-1 $47 forward single #
face $-1 $48 $49 $28 $-1 $50 forward single #
face $-1 $51 $52 $29 $-1 $53 forward single #
face $-1 $54 $55 $30 $-1 $56 reversed single #
face $-1 $57 $58 $31 $-1 $59 forward single #
face $-1 $60 $61 $32 $-1 $62 forward single #
face $-1 $63 $64 $33 $-1 $65 reversed single #
face $-1 $66 $67 $34 $-1 $68 forward single #
face $-1 $69 $70 $35 $-1 $71 forward single #
face $-1 $72 $73 $27 $-1 $74 reversed single #
loop $-1 $-1 $75 $36 #
plane-surface $-1 0 0 10.026403934537555 0 0 1 1 0 0 forward_v I I I I #
face $-1 $76 $77 $28 $-1 $78 reversed single #
loop $-1 $-1 $79 $37 #
plane-surface $-1 -57.410141906841545 0 5.9074394423102525 0 0 1 1 0 0 forward_v I I I I #
face $-1 $80 $81 $29 $-1 $82 reversed single #
loop $-1 $-1 $83 $38 #
plane-surface $-1 58.1382870405048 0 0.94422571956481205 0 0 1 1 0 0 forward_v I I I I #
face $-1 $84 $85 $30 $-1 $86 reversed single #
loop $-1 $-1 $87 $39 #
plane-surface $-1 -33.827542588196565 86.648396236760078 122.17209600324263 -1 0 0 0 0.7660444514056185 0.64278759981090561 forward_v I I I I #
face $-1 $88 $89 $31 $-1 $90 forward single #
loop $-1 $91 $92 $40 #
cone-surface $-1 -47.572406796862879 23.028875131362987 4.4975647771014415 0 -0.7660444514056185 -0.64278759981090561 1.5 0 0 1 I I 0 1 1.5 forward I I I I #
face $-1 $93 $94 $32 $-1 $95 forward single #
loop $-1 $96 $97 $41 #
cone-surface $-1 -39.32548827166309 23.028875131362987 4.4975647771014415 0 -0.7660444514056185 -0.64278759981090561 1.5 0 0 1 I I 0 1 1.5 forward I I I I #
face $-1 $98 $99 $33 $-1 $100 reversed single #
loop $-1 $-1 $101 $42 #
plane-surface $-1 -33.827542588196565 -122.47290908571364 79.478102994784848 -1 0 0 0 -0.7660444514056185 0.64278759981090561 forward_v I I I I #
face $-1 $102 $103 $34 $-1 $104 forward single #
loop $-1 $105 $106 $43 #
cone-surface $-1 -47.572406796862879 -23.028875131362987 4.497564777101438 0 0.7660444514056185 -0.64278759981090561 1.5 0 0 1 I I 0 1 1.5 forward I I I I #
face $-1 $107 $108 $35 $-1 $109 forward single #
loop $-1 $110 $111 $44 #
cone-surface $-1 -39.32548827166309 -23.028875131362987 4.497564777101438 0 0.7660444514056185 -0.64278759981090561 1.5 0 0 1 I I 0 1 1.5 forward I I I I #
face $-1 $112 $113 $27 $-1 $114 reversed single #
loop $-1 $-1 $115 $45 #
plane-surface $-1 0 0 -10.026403934537555 0 0 1 1 0 0 forward_v I I I I #
coedge $-1 $116 $117 $118 $119 forward $46 $-1 #
face $-1 $120 $121 $28 $-1 $122 reversed single #
loop $-1 $-1 $123 $48 #
plane-surface $-1 -57.410141906841545 0 2.3682874544063175 0 0 1 1 0 0 forward_v I I I I #
coedge $-1 $124 $125 $126 $127 forward $49 $-1 #
face $-1 $128 $129 $29 $-1 $130 reversed single #
loop $-1 $-1 $131 $51 #
plane-surface $-1 58.1382870405048 0 -3.6835195065821966 0 0 1 1 0 0 forward_v I I I I #
coedge $-1 $132 $133 $134 $135 reversed $52 $-1 #
face $-1 $136 $137 $30 $-1 $138 forward single #
loop $-1 $-1 $139 $54 #
plane-surface $-1 -43.448947534262985 -7.9579883084269767 42.787915702733343 0 0.7660444514056185 0.64278759981090561 1 0 0 forward_v I I I I #
coedge $-1 $140 $141 $142 $143 reversed $55 $-1 #
face $-1 $-1 $144 $31 $-1 $145 forward single #
loop $-1 $146 $147 $57 #
cone-surface $-1 -47.572406796862879 21.783862947233207 3.452875539938141 0 -0.7660444514056185 -0.64278759981090561 0.75 0 0 1 I I -0.70710678118654757 0.70710678118654757 0.75 forward I I I I #
loop $-1 $-1 $148 $40 #
coedge $-1 $92 $92 $149 $150 reversed $58 $-1 #
face $-1 $-1 $151 $32 $-1 $152 forward single #
loop $-1 $153 $154 $60 #
cone-surface $-1 -39.32548827166309 21.783862947233207 3.452875539938141 0 -0.7660444514056185 -0.64278759981090561 0.75 0 0 1 I I -0.70710678118654757 0.70710678118654757 0.75 forward I I I I #
loop $-1 $-1 $155 $41 #
coedge $-1 $97 $97 $156 $157 reversed $61 $-1 #
face $-1 $158 $159 $33 $-1 $160 forward single #
loop $-1 $-1 $161 $63 #
plane-surface $-1 -43.448947534262985 -27.866524540526584 0.093922694275562435 0 -0.7660444514056185 0.64278759981090561 1 0 0 forward_v I I I I #
coedge $-1 $162 $163 $164 $165 reversed $64 $-1 #
face $-1 $-1 $166 $34 $-1 $167 forward single #
loop $-1 $168 $169 $66 #
cone-surface $-1 -47.572406796862879 -21.783862947233207 3.4528755399381375 0 0.7660444514056185 -0.64278759981090561 0.75 0 0 1 I I -0.70710678118654757 0.70710678118654757 0.75 forward I I I I #
loop $-1 $-1 $170 $43 #
coedge $-1 $106 $106 $171 $172 reversed $67 $-1 #
face $-1 $-1 $173 $35 $-1 $174 forward single #
loop $-1 $175 $176 $69 #
cone-surface $-1 -39.32548827166309 -21.783862947233207 3.4528755399381375 0 0.7660444514056185 -0.64278759981090561 0.75 0 0 1 I I -0.70710678118654757 0.70710678118654757 0.75 forward I I I I #
loop $-1 $-1 $177 $44 #
coedge $-1 $111 $111 $178 $179 reversed $70 $-1 #
face $-1 $180 $181 $27 $-1 $182 reversed single #
loop $-1 $-1 $183 $72 #
plane-surface $-1 0 -27.866524540526573 0 0 1 0 0 0 1 forward_v I I I I #
coedge $-1 $184 $185 $186 $187 forward $73 $-1 #
coedge $-1 $188 $75 $189 $190 forward $46 $-1 #
coedge $-1 $75 $188 $191 $192 forward $46 $-1 #
coedge $-1 $193 $194 $75 $119 reversed $195 $-1 #
edge $-1 $196 -27.866524540526573 $197 27.866524540526573 $118 $198 forward 7 unknown #
face $-1 $199 $200 $28 $-1 $201 reversed single #
loop $-1 $-1 $202 $76 #
plane-surface $-1 -53.070352480329412 0 4.137863448358285 -1 0 0 0 0 1 forward_v I I I I #
coedge $-1 $203 $204 $205 $206 forward $77 $-1 #
coedge $-1 $207 $79 $208 $209 reversed $49 $-1 #
coedge $-1 $79 $207 $210 $211 reversed $49 $-1 #
coedge $-1 $202 $212 $79 $127 reversed $121 $-1 #
edge $-1 $213 -27.866524540526573 $214 27.866524540526573 $126 $215 forward 7 unknown #
face $-1 $216 $217 $29 $-1 $218 reversed single #
loop $-1 $-1 $219 $80 #
plane-surface $-1 54.526642747655913 0 -1.3696468935086923 1 0 0 0 0 -1 forward_v I I I I #
coedge $-1 $220 $221 $222 $223 reversed $81 $-1 #
coedge $-1 $224 $83 $225 $226 reversed $52 $-1 #
coedge $-1 $83 $224 $227 $228 reversed $52 $-1 #
coedge $-1 $229 $230 $83 $135 forward $231 $-1 #
edge $-1 $232 -27.866524540526573 $233 27.866524540526573 $134 $234 forward 7 unknown #
face $-1 $235 $236 $30 $-1 $237 reversed single #
loop $-1 $-1 $238 $84 #
plane-surface $-1 0 0 10.026403934537555 0 0 1 1 0 0 forward_v I I I I #
coedge $-1 $239 $240 $241 $242 reversed $85 $-1 #
coedge $-1 $141 $87 $243 $244 reversed $55 $-1 #
coedge $-1 $87 $140 $239 $245 reversed $55 $-1 #
coedge $-1 $241 $246 $87 $143 forward $236 $-1 #
edge $-1 $247 51.059644067083759 $248 60.992125307345731 $142 $249 forward 7 unknown #
loop $-1 $-1 $149 $88 #
plane-surface $-1 -43.448947534262985 -7.9579883084269767 42.787915702733343 0 0.7660444514056185 0.64278759981090561 1 0 0 forward_v I I I I #
loop $-1 $-1 $250 $57 #
coedge $-1 $147 $147 $148 $251 reversed $89 $-1 #
coedge $-1 $148 $148 $147 $251 forward $91 $-1 #
coedge $-1 $149 $149 $92 $150 forward $144 $-1 #
edge $-1 $252 -6.1524799858170891e-016 $252 6.2831853071795996 $149 $253 forward 7 unknown #
loop $-1 $-1 $156 $93 #
plane-surface $-1 -43.448947534262985 -7.9579883084269767 42.787915702733343 0 0.7660444514056185 0.64278759981090561 1 0 0 forward_v I I I I #
loop $-1 $-1 $254 $60 #
coedge $-1 $154 $154 $155 $255 reversed $94 $-1 #
coedge $-1 $155 $155 $154 $255 forward $96 $-1 #
coedge $-1 $156 $156 $97 $157 forward $151 $-1 #
edge $-1 $256 -6.1524799858170891e-016 $256 6.2831853071795996 $156 $257 forward 7 unknown #
face $-1 $258 $259 $33 $-1 $260 forward single #
loop $-1 $-1 $164 $98 #
plane-surface $-1 0 0 10.026403934537555 0 0 1 1 0 0 forward_v I I I I #
coedge $-1 $261 $262 $263 $264 reversed $99 $-1 #
coedge $-1 $163 $101 $265 $266 reversed $64 $-1 #
coedge $-1 $101 $162 $261 $267 reversed $64 $-1 #
coedge $-1 $263 $268 $101 $165 forward $159 $-1 #
edge $-1 $269 33.36993000233025 $270 41.704271129506274 $164 $271 forward 7 unknown #
loop $-1 $-1 $171 $102 #
plane-surface $-1 -43.448947534262985 -27.866524540526584 0.093922694275562435 0 -0.7660444514056185 0.64278759981090561 1 0 0 forward_v I I I I #
loop $-1 $-1 $272 $66 #
coedge $-1 $169 $169 $170 $273 reversed $103 $-1 #
coedge $-1 $170 $170 $169 $273 forward $105 $-1 #
coedge $-1 $171 $171 $106 $172 forward $166 $-1 #
edge $-1 $274 7.7690656365042353e-016 $274 6.2831853071796013 $171 $275 forward 7 unknown #
loop $-1 $-1 $178 $107 #
plane-surface $-1 -43.448947534262985 -27.866524540526584 0.093922694275562435 0 -0.7660444514056185 0.64278759981090561 1 0 0 forward_v I I I I #
loop $-1 $-1 $276 $69 #
coedge $-1 $176 $176 $177 $277 reversed $108 $-1 #
coedge $-1 $177 $177 $176 $277 forward $110 $-1 #
coedge $-1 $178 $178 $111 $179 forward $173 $-1 #
edge $-1 $278 7.7690656365042353e-016 $278 6.2831853071796013 $178 $279 forward 7 unknown #
face $-1 $280 $281 $27 $-1 $282 reversed single #
loop $-1 $-1 $283 $112 #
plane-surface $-1 -61.749931333353679 0 0 1 0 0 0 0 -1 forward_v I I I I #
coedge $-1 $284 $191 $285 $286 forward $113 $-1 #
coedge $-1 $287 $115 $284 $288 forward $73 $-1 #
coedge $-1 $115 $287 $289 $290 forward $73 $-1 #
coedge $-1 $194 $193 $115 $187 reversed $195 $-1 #
edge $-1 $291 -27.866524540526573 $292 27.866524540526573 $186 $293 forward 7 unknown #
coedge $-1 $117 $116 $294 $295 forward $46 $-1 #
coedge $-1 $296 $297 $116 $190 reversed $281 $-1 #
edge $-1 $197 -61.749931333353679 $298 61.749931333353679 $189 $299 forward 7 unknown #
coedge $-1 $183 $300 $117 $192 reversed $113 $-1 #
edge $-1 $301 -61.749931333353679 $196 61.749931333353679 $191 $302 forward 7 unknown #
coedge $-1 $186 $118 $300 $303 forward $195 $-1 #
coedge $-1 $118 $186 $296 $304 reversed $195 $-1 #
loop $-1 $-1 $193 $280 #
vertex $-1 $119 $305 #
vertex $-1 $119 $306 #
straight-curve $-1 61.749931333353679 0 10.026403934537555 0 1 0 I I #
face $-1 $307 $308 $28 $-1 $309 reversed single #
loop $-1 $-1 $310 $120 #
plane-surface $-1 0 -27.866524540526573 0 0 1 0 0 0 1 forward_v I I I I #
coedge $-1 $205 $126 $311 $312 reversed $121 $-1 #
coedge $-1 $313 $123 $310 $314 reversed $77 $-1 #
coedge $-1 $123 $313 $315 $316 reversed $77 $-1 #
coedge $-1 $212 $202 $123 $206 reversed $121 $-1 #
edge $-1 $317 -27.866524540526573 $318 27.866524540526573 $205 $319 forward 7 unknown #
coedge $-1 $125 $124 $320 $321 reversed $49 $-1 #
coedge $-1 $322 $323 $124 $209 forward $324 $-1 #
edge $-1 $325 -33.044860379932906 $214 -24.365281526908639 $208 $326 forward 7 unknown #
coedge $-1 $327 $311 $125 $211 forward $200 $-1 #
edge $-1 $213 24.365281526908639 $328 33.044860379932906 $210 $329 forward 7 unknown #
coedge $-1 $126 $205 $322 $330 reversed $121 $-1 #
vertex $-1 $211 $331 #
vertex $-1 $209 $332 #
straight-curve $-1 -53.070352480329412 0 5.9074394423102525 0 1 0 I I #
face $-1 $333 $334 $29 $-1 $335 reversed single #
loop $-1 $-1 $227 $128 #
plane-surface $-1 0 -27.866524540526573 0 0 1 0 0 0 1 forward_v I I I I #
coedge $-1 $336 $337 $338 $339 reversed $129 $-1 #
coedge $-1 $340 $131 $341 $342 reversed $81 $-1 #
coedge $-1 $131 $340 $343 $344 reversed $81 $-1 #
coedge $-1 $230 $229 $131 $223 forward $231 $-1 #
edge $-1 $345 -27.866524540526573 $346 27.866524540526573 $222 $347 forward 7 unknown #
coedge $-1 $133 $132 $337 $348 forward $52 $-1 #
coedge $-1 $349 $338 $132 $226 forward $334 $-1 #
edge $-1 $350 25.457499227403513 $232 32.68078781310129 $225 $351 forward 7 unknown #
coedge $-1 $352 $353 $133 $228 forward $217 $-1 #
edge $-1 $233 -32.68078781310129 $354 -25.457499227403513 $227 $355 forward 7 unknown #
coedge $-1 $222 $134 $353 $356 forward $231 $-1 #
coedge $-1 $134 $222 $349 $357 reversed $231 $-1 #
loop $-1 $-1 $134 $333 #
vertex $-1 $357 $358 #
vertex $-1 $356 $359 #
straight-curve $-1 61.749931333353679 0 0.94422571956481205 0 -1 0 I I #
face $-1 $-1 $360 $30 $-1 $361 forward single #
loop $-1 $-1 $362 $136 #
plane-surface $-1 0 27.866524540526573 0 0 -1 0 0 0 -1 forward_v I I I I #
coedge $-1 $363 $364 $365 $366 forward $137 $-1 #
coedge $-1 $367 $139 $141 $245 forward $85 $-1 #
coedge $-1 $139 $367 $368 $369 forward $85 $-1 #
coedge $-1 $362 $142 $139 $242 forward $236 $-1 #
edge $-1 $248 12.103068821065072 $370 31.345878713197912 $241 $371 forward 7 unknown #
coedge $-1 $364 $363 $140 $244 forward $137 $-1 #
edge $-1 $372 -23.792014705029494 $247 -15.457673577853466 $243 $373 forward 7 unknown #
edge $-1 $248 -55.733049081053146 $372 -42.767115809117279 $141 $374 forward 7 unknown #
coedge $-1 $142 $362 $364 $375 reversed $236 $-1 #
vertex $-1 $375 $376 #
vertex $-1 $143 $377 #
straight-curve $-1 -33.827542588196565 27.866524540526573 61.086048001621315 0 0 -1 I I #
coedge $-1 $250 $250 $-1 $378 reversed $146 $-1 #
edge $-1 $379 0 $379 6.2831853071796004 $147 $380 forward 7 unknown #
vertex $-1 $150 $381 #
ellipse-curve $-1 -47.572406796862879 23.699353976938557 5.060163314406565 0 0.7660444514056185 0.64278759981090561 1.5 0 0 1 I I #
coedge $-1 $254 $254 $-1 $382 reversed $153 $-1 #
edge $-1 $383 0 $383 6.2831853071796004 $154 $384 forward 7 unknown #
vertex $-1 $157 $385 #
ellipse-curve $-1 -39.32548827166309 23.699353976938557 5.060163314406565 0 0.7660444514056185 0.64278759981090561 1.5 0 0 1 I I #
face $-1 $-1 $386 $33 $-1 $387 reversed single #
loop $-1 $-1 $388 $158 #
plane-surface $-1 -53.070352480329412 0 4.137863448358285 -1 0 0 0 0 1 forward_v I I I I #
coedge $-1 $389 $161 $163 $267 forward $99 $-1 #
coedge $-1 $161 $389 $388 $390 forward $99 $-1 #
coedge $-1 $391 $164 $161 $264 forward $159 $-1 #
edge $-1 $270 12.103068821065072 $392 31.345878713197912 $263 $393 forward 7 unknown #
coedge $-1 $394 $395 $162 $266 forward $386 $-1 #
edge $-1 $396 -39.645128803116847 $269 -29.712647562854869 $265 $397 forward 7 unknown #
edge $-1 $270 -12.965933271935903 $396 -1.6578288043618782e-014 $163 $398 forward 7 unknown #
coedge $-1 $164 $391 $394 $399 forward $159 $-1 #
vertex $-1 $266 $400 #
vertex $-1 $165 $401 #
straight-curve $-1 -33.827542588196565 -61.236454542856819 10.026403934537555 0 1 0 I I #
coedge $-1 $272 $272 $-1 $402 reversed $168 $-1 #
edge $-1 $403 0 $403 6.2831853071796004 $169 $404 forward 7 unknown #
vertex $-1 $172 $405 #
ellipse-curve $-1 -47.572406796862879 -23.699353976938561 5.0601633144065641 0 -0.7660444514056185 0.64278759981090561 1.5 0 0 1 I I #
coedge $-1 $276 $276 $-1 $406 reversed $175 $-1 #
edge $-1 $407 0 $407 6.2831853071796004 $176 $408 forward 7 unknown #
vertex $-1 $179 $409 #
ellipse-curve $-1 -39.32548827166309 -23.699353976938561 5.0601633144065641 0 -0.7660444514056185 0.64278759981090561 1.5 0 0 1 I I #
face $-1 $-1 $195 $27 $-1 $410 reversed single #
loop $-1 $-1 $296 $180 #
plane-surface $-1 0 27.866524540526573 0 0 -1 0 0 0 -1 forward_v I I I I #
coedge $-1 $411 $294 $297 $412 forward $181 $-1 #
coedge $-1 $300 $183 $184 $288 reversed $113 $-1 #
coedge $-1 $294 $411 $183 $286 reversed $181 $-1 #
edge $-1 $301 -10.026403934537555 $413 10.026403934537555 $285 $414 forward 7 unknown #
coedge $-1 $185 $184 $411 $415 forward $73 $-1 #
edge $-1 $292 -61.749931333353679 $413 61.749931333353679 $284 $416 forward 7 unknown #
coedge $-1 $297 $296 $185 $290 reversed $281 $-1 #
edge $-1 $417 -61.749931333353679 $291 61.749931333353679 $289 $418 forward 7 unknown #
vertex $-1 $187 $419 #
vertex $-1 $303 $420 #
straight-curve $-1 61.749931333353679 0 -10.026403934537555 0 -1 0 I I #
coedge $-1 $283 $285 $188 $295 reversed $181 $-1 #
edge $-1 $298 -27.866524540526573 $301 27.866524540526573 $294 $421 forward 7 unknown #
coedge $-1 $289 $189 $194 $304 forward $281 $-1 #
coedge $-1 $189 $289 $283 $412 reversed $281 $-1 #
vertex $-1 $190 $422 #
straight-curve $-1 0 27.866524540526573 10.026403934537555 -1 0 0 I I #
coedge $-1 $191 $284 $193 $303 reversed $113 $-1 #
vertex $-1 $295 $423 #
straight-curve $-1 0 -27.866524540526573 10.026403934537555 1 0 0 I I #
edge $-1 $196 -10.026403934537555 $292 10.026403934537555 $193 $424 forward 7 unknown #
edge $-1 $197 -10.026403934537555 $291 10.026403934537555 $194 $425 forward 7 unknown #
point $-1 61.749931333353679 -27.866524540526573 10.026403934537555 #
point $-1 61.749931333353679 27.866524540526573 10.026403934537555 #
face $-1 $-1 $324 $28 $-1 $426 reversed single #
loop $-1 $-1 $427 $199 #
plane-surface $-1 -61.749931333353679 0 0 1 0 0 0 0 -1 forward_v I I I I #
coedge $-1 $311 $327 $203 $314 forward $200 $-1 #
coedge $-1 $210 $310 $202 $312 forward $200 $-1 #
edge $-1 $318 0.29935573022717499 $213 3.83850771813111 $311 $428 forward 7 unknown #
coedge $-1 $204 $203 $427 $429 reversed $77 $-1 #
edge $-1 $430 -33.044860379932906 $318 -24.365281526908639 $310 $431 forward 7 unknown #
coedge $-1 $323 $322 $204 $316 forward $324 $-1 #
edge $-1 $317 24.365281526908639 $432 33.044860379932906 $315 $433 forward 7 unknown #
vertex $-1 $316 $434 #
vertex $-1 $314 $435 #
straight-curve $-1 -53.070352480329412 0 2.3682874544063175 0 -1 0 I I #
coedge $-1 $436 $437 $207 $321 forward $308 $-1 #
edge $-1 $328 -27.866524540526573 $325 27.866524540526573 $320 $438 forward 7 unknown #
coedge $-1 $315 $208 $212 $330 forward $324 $-1 #
coedge $-1 $208 $315 $436 $439 reversed $324 $-1 #
loop $-1 $-1 $315 $307 #
vertex $-1 $439 $440 #
straight-curve $-1 -28.705070953420773 27.866524540526573 5.9074394423102525 1 0 0 I I #
coedge $-1 $310 $210 $437 $441 forward $200 $-1 #
vertex $-1 $441 $442 #
straight-curve $-1 -28.705070953420773 -27.866524540526573 5.9074394423102525 -1 0 0 I I #
edge $-1 $214 -3.83850771813111 $317 -0.29935573022717499 $322 $443 forward 7 unknown #
point $-1 -53.070352480329412 -27.866524540526573 5.9074394423102525 #
point $-1 -53.070352480329412 27.866524540526573 5.9074394423102525 #
face $-1 $-1 $231 $29 $-1 $444 reversed single #
loop $-1 $-1 $225 $216 #
plane-surface $-1 0 27.866524540526573 0 0 -1 0 0 0 -1 forward_v I I I I #
coedge $-1 $445 $219 $340 $446 reversed $129 $-1 #
coedge $-1 $219 $445 $224 $348 reversed $129 $-1 #
coedge $-1 $225 $343 $219 $339 forward $334 $-1 #
edge $-1 $447 -2.9986960598278505 $350 1.6290491663191582 $338 $448 forward 7 unknown #
coedge $-1 $221 $220 $336 $446 forward $81 $-1 #
coedge $-1 $353 $352 $220 $342 forward $217 $-1 #
edge $-1 $449 25.457499227403513 $345 32.68078781310129 $341 $450 forward 7 unknown #
coedge $-1 $338 $349 $221 $344 forward $334 $-1 #
edge $-1 $346 -32.68078781310129 $447 -25.457499227403513 $343 $451 forward 7 unknown #
vertex $-1 $223 $452 #
vertex $-1 $223 $453 #
straight-curve $-1 61.749931333353679 0 -3.6835195065821966 0 1 0 I I #
edge $-1 $350 -27.866524540526573 $354 27.866524540526573 $337 $454 forward 7 unknown #
coedge $-1 $343 $225 $230 $357 forward $334 $-1 #
vertex $-1 $226 $455 #
straight-curve $-1 29.0691435202524 27.866524540526573 0.94422571956481205 1 0 0 I I #
coedge $-1 $341 $227 $445 $456 forward $217 $-1 #
coedge $-1 $227 $341 $229 $356 reversed $217 $-1 #
vertex $-1 $228 $457 #
straight-curve $-1 29.0691435202524 -27.866524540526573 0.94422571956481205 -1 0 0 I I #
edge $-1 $233 -0.94422571956481205 $345 3.6835195065821966 $229 $458 forward 7 unknown #
edge $-1 $232 -0.94422571956481205 $346 3.6835195065821966 $230 $459 forward 7 unknown #
point $-1 61.749931333353686 27.866524540526573 0.94422571956481205 #
point $-1 61.749931333353686 -27.866524540526573 0.94422571956481205 #
loop $-1 $-1 $368 $235 #
plane-surface $-1 -53.070352480329412 0 4.137863448358285 -1 0 0 0 0 1 forward_v I I I I #
coedge $-1 $246 $241 $460 $461 forward $236 $-1 #
coedge $-1 $243 $238 $367 $462 forward $137 $-1 #
coedge $-1 $238 $243 $246 $375 forward $137 $-1 #
coedge $-1 $460 $368 $238 $366 reversed $360 $-1 #
edge $-1 $463 15.457673577853466 $464 23.792014705029494 $238 $465 forward 7 unknown #
coedge $-1 $240 $239 $363 $462 reversed $85 $-1 #
coedge $-1 $365 $460 $240 $369 reversed $360 $-1 #
edge $-1 $464 42.767115809117279 $370 55.733049081053146 $368 $466 forward 7 unknown #
vertex $-1 $242 $467 #
straight-curve $-1 -21.724473767131492 27.866524540526576 0.093922694275580199 -1 0 0 I I #
vertex $-1 $244 $468 #
straight-curve $-1 -33.827542588196565 43.324198118380039 10.026403934537555 0 1 0 I I #
straight-curve $-1 -33.827542588196565 -7.9579883084269767 42.787915702733343 0 -0.64278759981090561 0.7660444514056185 I I #
edge $-1 $247 33.827542588196565 $463 53.070352480329404 $246 $469 forward 7 unknown #
point $-1 -33.827542588196565 27.866524540526573 10.026403934537555 #
point $-1 -33.827542588196565 27.866524540526569 0.093922694275583751 #
edge $-1 $470 1 $470 0 $250 $-1 forward 7 unknown #
vertex $-1 $251 $471 #
ellipse-curve $-1 -47.572406796862879 22.358396285787421 3.9349662397963203 0 0.7660444514056185 0.64278759981090561 1.5 0 0 1 I I #
point $-1 -46.072406796862879 23.699353976938554 5.0601633144065632 #
edge $-1 $472 1 $472 0 $254 $-1 forward 7 unknown #
vertex $-1 $255 $473 #
ellipse-curve $-1 -39.32548827166309 22.358396285787421 3.9349662397963203 0 0.7660444514056185 0.64278759981090561 1.5 0 0 1 I I #
point $-1 -37.82548827166309 23.699353976938554 5.0601633144065632 #
loop $-1 $-1 $265 $258 #
plane-surface $-1 0 -27.866524540526573 0 0 1 0 0 0 1 forward_v I I I I #
coedge $-1 $474 $475 $262 $390 reversed $259 $-1 #
coedge $-1 $262 $261 $395 $476 reversed $99 $-1 #
edge $-1 $477 1.6578288043618782e-014 $392 12.965933271935903 $388 $478 forward 7 unknown #
coedge $-1 $268 $263 $475 $479 forward $159 $-1 #
vertex $-1 $479 $480 #
straight-curve $-1 -21.724473767131492 -19.532183413350541 10.026403934537555 -1 0 0 I I #
coedge $-1 $481 $265 $268 $399 reversed $386 $-1 #
coedge $-1 $265 $481 $389 $476 forward $386 $-1 #
vertex $-1 $266 $482 #
straight-curve $-1 -33.827542588196565 -27.866524540526569 39.739051497392424 0 0 1 I I #
straight-curve $-1 -33.827542588196565 -27.866524540526584 0.093922694275562435 0 -0.64278759981090561 -0.7660444514056185 I I #
edge $-1 $483 -53.070352480329404 $269 -33.827542588196565 $394 $484 forward 7 unknown #
point $-1 -33.827542588196565 -27.866524540526573 10.026403934537555 #
point $-1 -33.827542588196565 -19.532183413350545 10.026403934537555 #
edge $-1 $485 1 $485 0 $272 $-1 forward 7 unknown #
vertex $-1 $273 $486 #
ellipse-curve $-1 -47.572406796862879 -22.358396285787421 3.9349662397963168 0 -0.7660444514056185 0.64278759981090561 1.5 0 0 1 I I #
point $-1 -46.072406796862879 -23.699353976938554 5.0601633144065596 #
edge $-1 $487 1 $487 0 $276 $-1 forward 7 unknown #
vertex $-1 $277 $488 #
ellipse-curve $-1 -39.32548827166309 -22.358396285787421 3.9349662397963168 0 -0.7660444514056185 0.64278759981090561 1.5 0 0 1 I I #
point $-1 -37.82548827166309 -23.699353976938554 5.0601633144065596 #
plane-surface $-1 61.749931333353679 0 0 -1 0 0 0 0 1 forward_v I I I I #
coedge $-1 $285 $283 $287 $415 reversed $181 $-1 #
edge $-1 $298 -10.026403934537555 $417 10.026403934537555 $297 $489 forward 7 unknown #
vertex $-1 $415 $490 #
straight-curve $-1 -61.749931333353679 -27.866524540526573 0 0 0 -1 I I #
edge $-1 $413 -27.866524540526573 $417 27.866524540526573 $411 $491 forward 7 unknown #
straight-curve $-1 0 -27.866524540526573 -10.026403934537555 -1 0 0 I I #
vertex $-1 $290 $492 #
straight-curve $-1 0 27.866524540526573 -10.026403934537555 1 0 0 I I #
point $-1 61.749931333353679 27.866524540526573 -10.026403934537555 #
point $-1 61.749931333353679 -27.866524540526573 -10.026403934537555 #
straight-curve $-1 -61.749931333353679 0 10.026403934537555 0 -1 0 I I #
point $-1 -61.749931333353679 27.866524540526573 10.026403934537555 #
point $-1 -61.749931333353679 -27.866524540526573 10.026403934537555 #
straight-curve $-1 61.749931333353679 -27.866524540526573 0 0 0 -1 I I #
straight-curve $-1 61.749931333353679 27.866524540526573 0 0 0 -1 I I #
plane-surface $-1 0 27.866524540526573 0 0 -1 0 0 0 -1 forward_v I I I I #
coedge $-1 $437 $436 $313 $429 forward $308 $-1 #
straight-curve $-1 -53.070352480329412 -27.866524540526573 2.0689317241791425 0 0 1 I I #
edge $-1 $432 -27.866524540526573 $430 27.866524540526573 $427 $493 forward 7 unknown #
vertex $-1 $314 $494 #
straight-curve $-1 -28.705070953420773 -27.866524540526573 2.3682874544063175 1 0 0 I I #
vertex $-1 $316 $495 #
straight-curve $-1 -28.705070953420773 27.866524540526573 2.3682874544063175 -1 0 0 I I #
point $-1 -53.070352480329412 27.866524540526573 2.3682874544063175 #
point $-1 -53.070352480329412 -27.866524540526573 2.3682874544063175 #
coedge $-1 $427 $320 $323 $439 forward $308 $-1 #
coedge $-1 $320 $427 $327 $441 reversed $308 $-1 #
straight-curve $-1 -61.749931333353679 0 5.9074394423102525 0 1 0 I I #
edge $-1 $325 -5.9074394423102525 $432 -2.3682874544063175 $323 $496 forward 7 unknown #
point $-1 -61.749931333353679 27.866524540526573 5.9074394423102525 #
edge $-1 $328 -5.9074394423102525 $430 -2.3682874544063175 $437 $497 forward 7 unknown #
point $-1 -61.749931333353679 -27.866524540526573 5.9074394423102525 #
straight-curve $-1 -53.070352480329412 27.866524540526573 2.0689317241791425 0 0 -1 I I #
plane-surface $-1 61.749931333353679 0 0 -1 0 0 0 0 1 forward_v I I I I #
coedge $-1 $337 $336 $352 $456 reversed $129 $-1 #
edge $-1 $449 -27.866524540526573 $447 27.866524540526573 $336 $498 forward 7 unknown #
vertex $-1 $344 $499 #
straight-curve $-1 54.526642747655913 27.866524540526573 -0.68482344675434614 0 0 1 I I #
vertex $-1 $342 $500 #
straight-curve $-1 29.0691435202524 -27.866524540526573 -3.6835195065821966 1 0 0 I I #
straight-curve $-1 29.0691435202524 27.866524540526573 -3.6835195065821966 -1 0 0 I I #
point $-1 61.749931333353686 -27.866524540526573 -3.6835195065821966 #
point $-1 61.749931333353686 27.866524540526573 -3.6835195065821966 #
straight-curve $-1 54.526642747655913 0 0.94422571956481205 0 -1 0 I I #
point $-1 54.526642747655913 27.866524540526573 0.94422571956481205 #
edge $-1 $354 -1.6290491663191582 $449 2.9986960598278505 $352 $501 forward 7 unknown #
point $-1 54.526642747655913 -27.866524540526573 0.94422571956481205 #
straight-curve $-1 61.749931333353679 -27.866524540526573 0 0 0 -1 I I #
straight-curve $-1 61.749931333353679 27.866524540526573 0 0 0 -1 I I #
coedge $-1 $368 $365 $362 $461 reversed $360 $-1 #
edge $-1 $370 -60.992125307345731 $463 -51.059644067083759 $362 $502 forward 7 unknown #
edge $-1 $464 -31.345878713197912 $372 -12.103068821065072 $363 $503 forward 7 unknown #
vertex $-1 $366 $504 #
vertex $-1 $366 $505 #
straight-curve $-1 -53.070352480329404 43.324198118380039 10.026403934537555 0 -1 0 I I #
straight-curve $-1 -53.070352480329404 -7.9579883084269767 42.787915702733343 0 0.64278759981090561 -0.7660444514056185 I I #
point $-1 -53.070352480329404 27.866524540526569 0.093922694275583751 #
point $-1 -33.827542588196565 19.532183413350545 10.026403934537555 #
straight-curve $-1 0 27.866524540526573 10.026403934537555 -1 0 0 I I #
vertex $-1 $378 $506 #
point $-1 -46.072406796862879 22.358396285787421 3.9349662397963203 #
vertex $-1 $382 $507 #
point $-1 -37.82548827166309 22.358396285787421 3.9349662397963203 #
coedge $-1 $475 $388 $481 $508 reversed $259 $-1 #
coedge $-1 $388 $474 $391 $479 reversed $259 $-1 #
edge $-1 $477 -31.345878713197912 $396 -12.103068821065072 $395 $509 forward 7 unknown #
vertex $-1 $508 $510 #
straight-curve $-1 -53.070352480329404 -27.866524540526584 0.093922694275562435 0 0.64278759981090561 0.7660444514056185 I I #
edge $-1 $392 -41.704271129506274 $483 -33.36993000233025 $391 $511 forward 7 unknown #
point $-1 -53.070352480329404 -19.532183413350545 10.026403934537555 #
coedge $-1 $395 $394 $474 $508 forward $386 $-1 #
point $-1 -33.827542588196565 -27.866524540526573 0.093922694275575133 #
vertex $-1 $399 $512 #
straight-curve $-1 0 -27.866524540526573 10.026403934537555 1 0 0 I I #
vertex $-1 $402 $513 #
point $-1 -46.072406796862879 -22.358396285787421 3.9349662397963168 #
vertex $-1 $406 $514 #
point $-1 -37.82548827166309 -22.358396285787421 3.9349662397963168 #
straight-curve $-1 -61.749931333353679 27.866524540526573 0 0 0 -1 I I #
point $-1 -61.749931333353679 -27.866524540526573 -10.026403934537555 #
straight-curve $-1 -61.749931333353679 0 -10.026403934537555 0 1 0 I I #
point $-1 -61.749931333353679 27.866524540526573 -10.026403934537555 #
straight-curve $-1 -61.749931333353679 0 2.3682874544063175 0 -1 0 I I #
point $-1 -61.749931333353679 -27.866524540526573 2.3682874544063175 #
point $-1 -61.749931333353679 27.866524540526573 2.3682874544063175 #
straight-curve $-1 -61.749931333353679 27.866524540526573 0 0 0 -1 I I #
straight-curve $-1 -61.749931333353679 -27.866524540526573 0 0 0 -1 I I #
straight-curve $-1 54.526642747655913 0 -3.6835195065821966 0 1 0 I I #
point $-1 54.526642747655913 27.866524540526573 -3.6835195065821966 #
point $-1 54.526642747655913 -27.866524540526573 -3.6835195065821966 #
straight-curve $-1 54.526642747655913 -27.866524540526573 -0.68482344675434614 0 0 -1 I I #
straight-curve $-1 -53.070352480329404 27.866524540526573 61.086048001621315 0 0 1 I I #
straight-curve $-1 -21.724473767131492 19.532183413350545 10.026403934537555 1 0 0 I I #
point $-1 -53.070352480329404 27.866524540526573 10.026403934537555 #
point $-1 -53.070352480329404 19.532183413350545 10.026403934537555 #
point $-1 -47.572406796862879 21.209329608678992 2.9707848400799617 #
point $-1 -39.32548827166309 21.209329608678992 2.9707848400799617 #
edge $-1 $483 29.712647562854869 $477 39.645128803116847 $481 $515 forward 7 unknown #
straight-curve $-1 -21.724473767131492 -27.866524540526573 0.093922694275571095 1 0 0 I I #
point $-1 -53.070352480329404 -27.866524540526573 0.093922694275575133 #
straight-curve $-1 -53.070352480329404 -61.236454542856819 10.026403934537555 0 -1 0 I I #
point $-1 -53.070352480329404 -27.866524540526573 10.026403934537555 #
point $-1 -47.572406796862879 -21.209329608678992 2.9707848400799581 #
point $-1 -39.32548827166309 -21.209329608678992 2.9707848400799581 #
straight-curve $-1 -53.070352480329404 -27.866524540526569 39.739051497392424 0 0 -1 I I #
End-of-ACIS-data 