500 0 6 0           
7 Unknown 11 ACIS 5.0 NT 24 Fri Mar 26 03:27:09 1999 
-1 9.9999999999999995e-007 1e-010 
body $-1 $6 $-1 $7 #
body $-1 $8 $-1 $9 #
body $-1 $10 $-1 $11 #
body $-1 $12 $-1 $13 #
body $-1 $14 $-1 $15 #
body $-1 $16 $-1 $17 #
lump $-1 $-1 $18 $0 #
transform $-1 1 0 0 0 1 0 0 0 1 59.347514267403184 34.775719868765769 17.352518539942444 1 rotate no_reflect no_shear #
lump $-1 $-1 $19 $1 #
transform $-1 1 0 0 0 1 0 0 0 1 59.347514267403184 34.775719868765769 17.352518539942444 1 rotate no_reflect no_shear #
lump $-1 $-1 $20 $2 #
transform $-1 1 0 0 0 1 0 0 0 1 59.347514267403184 34.775719868765769 17.352518539942444 1 rotate no_reflect no_shear #
lump $-1 $-1 $21 $3 #
transform $-1 1 0 0 0 1 0 0 0 1 59.347514267403184 34.775719868765769 17.352518539942444 1 rotate no_reflect no_shear #
lump $-1 $-1 $22 $4 #
transform $-1 1 0 0 0 1 0 0 0 1 59.347514267403184 34.775719868765769 17.352518539942444 1 rotate no_reflect no_shear #
lump $-1 $-1 $23 $5 #
transform $-1 1 0 0 0 1 0 0 0 1 59.347514267403184 34.775719868765769 17.352518539942444 1 rotate no_reflect no_shear #
shell $-1 $-1 $-1 $24 $-1 $6 #
shell $-1 $-1 $-1 $25 $-1 $8 #
shell $-1 $-1 $-1 $26 $-1 $10 #
shell $-1 $-1 $-1 $27 $-1 $12 #
shell $-1 $-1 $-1 $28 $-1 $14 #
shell $-1 $-1 $-1 $29 $-1 $16 #
face $-1 $30 $31 $18 $-1 $32 forward single #
face $-1 $33 $34 $19 $-1 $35 reversed single #
face $-1 $36 $37 $20 $-1 $38 reversed single #
face $-1 $39 $40 $21 $-1 $41 forward single #
face $-1 $42 $43 $22 $-1 $44 reversed single #
face $-1 $45 $46 $23 $-1 $47 forward single #
face $-1 $48 $49 $18 $-1 $50 reversed single #
loop $-1 $-1 $51 $24 #
plane-surface $-1 0 0 17.352518539942444 0 0 1 1 0 0 forward_v I I I I #
face $-1 $52 $53 $19 $-1 $54 reversed single #
loop $-1 $-1 $55 $25 #
plane-surface $-1 0 -24.492195947801285 9.7771885827763754 0 0 1 1 0 0 forward_v I I I I #
face $-1 $56 $57 $20 $-1 $58 reversed single #
loop $-1 $-1 $59 $26 #
plane-surface $-1 30.19891196754746 7.9464614968967062 169.49213784668072 0 -1 0 -0.57357644374324357 0 -0.81915203911291934 forward_v I I I I #
face $-1 $60 $61 $21 $-1 $62 forward single #
loop $-1 $63 $64 $27 #
cone-surface $-1 49.42365332255028 2.4477551695949131 10.025756723427742 -0.57357644374324357 0 -0.81915203911291934 1.228728058669379 0 -0.86036466561486535 1 I I 0 1 1.5 forward I I I I #
face $-1 $65 $66 $22 $-1 $67 reversed single #
loop $-1 $-1 $68 $28 #
plane-surface $-1 -127.42818662440024 -3.0509511577068942 101.41146548968371 0 1 0 -0.57357644374324357 0 0.81915203911291934 forward_v I I I I #
face $-1 $69 $70 $23 $-1 $71 forward single #
loop $-1 $72 $73 $29 #
cone-surface $-1 -49.42365332255028 2.4477551695949131 10.025756723427756 0.57357644374324357 0 -0.81915203911291934 1.228728058669379 0 0.86036466561486535 1 I I 0 1 1.5 forward I I I I #
face $-1 $74 $75 $18 $-1 $76 reversed single #
loop $-1 $-1 $77 $30 #
plane-surface $-1 0 0 -17.352518539942444 0 0 1 1 0 0 forward_v I I I I #
coedge $-1 $78 $79 $80 $81 forward $31 $-1 #
face $-1 $82 $83 $19 $-1 $84 reversed single #
loop $-1 $-1 $85 $33 #
plane-surface $-1 0 -14.208672026836803 13.56485356135941 0 -1 0 0 0 -1 forward_v I I I I #
coedge $-1 $86 $87 $88 $89 reversed $34 $-1 #
face $-1 $90 $91 $20 $-1 $92 reversed single #
loop $-1 $-1 $93 $36 #
plane-surface $-1 -37.881760389449596 2.447755169594906 72.262863189827939 0.57357644374324357 0 0.81915203911291934 0.81915203911291934 0 -0.57357644374324357 forward_v I I I I #
coedge $-1 $94 $95 $96 $97 reversed $37 $-1 #
face $-1 $-1 $98 $21 $-1 $99 forward single #
loop $-1 $100 $101 $39 #
cone-surface $-1 48.47419849578452 2.4477551695949131 8.6697947311341323 -0.57357644374324357 0 -0.81915203911291934 0.61436402933468948 0 -0.43018233280743268 1 I I -0.70710678118654757 0.70710678118654757 0.75 forward I I I I #
loop $-1 $-1 $102 $27 #
coedge $-1 $64 $64 $103 $104 reversed $40 $-1 #
face $-1 $105 $106 $22 $-1 $107 reversed single #
loop $-1 $-1 $108 $42 #
plane-surface $-1 -59.347514267403184 2.447755169594906 4.1821908328309263 -0.57357644374324357 0 0.81915203911291934 0.81915203911291934 0 0.57357644374324357 forward_v I I I I #
coedge $-1 $109 $110 $111 $112 reversed $43 $-1 #
face $-1 $-1 $113 $23 $-1 $114 forward single #
loop $-1 $115 $116 $45 #
cone-surface $-1 -48.47419849578452 2.4477551695949131 8.6697947311341466 0.57357644374324357 0 -0.81915203911291934 0.61436402933468948 0 0.43018233280743268 1 I I -0.70710678118654757 0.70710678118654757 0.75 forward I I I I #
loop $-1 $-1 $117 $29 #
coedge $-1 $73 $73 $118 $119 reversed $46 $-1 #
face $-1 $120 $121 $18 $-1 $122 reversed single #
loop $-1 $-1 $123 $48 #
plane-surface $-1 0 -34.775719868765769 0 0 1 0 0 0 1 forward_v I I I I #
coedge $-1 $124 $125 $126 $127 forward $49 $-1 #
coedge $-1 $128 $51 $129 $130 forward $31 $-1 #
coedge $-1 $51 $128 $131 $132 forward $31 $-1 #
coedge $-1 $133 $134 $51 $81 reversed $135 $-1 #
edge $-1 $136 -34.775719868765769 $137 34.775719868765769 $80 $138 forward 7 unknown #
face $-1 $139 $140 $19 $-1 $141 reversed single #
loop $-1 $-1 $142 $52 #
plane-surface $-1 -59.347514267403184 0 0 1 0 0 0 0 -1 forward_v I I I I #
coedge $-1 $143 $144 $145 $146 reversed $53 $-1 #
coedge $-1 $147 $55 $148 $149 reversed $34 $-1 #
coedge $-1 $55 $147 $143 $150 forward $34 $-1 #
coedge $-1 $145 $151 $55 $89 forward $152 $-1 #
edge $-1 $153 -22.529621894865127 $154 -1.9625740529361604 $88 $155 forward 7 unknown #
face $-1 $156 $157 $20 $-1 $158 reversed single #
loop $-1 $-1 $159 $56 #
plane-surface $-1 30.19891196754746 -3.0509511577068942 169.49213784668072 0 1 0 0.57357644374324357 0 0.81915203911291934 forward_v I I I I #
coedge $-1 $160 $161 $162 $163 reversed $57 $-1 #
coedge $-1 $95 $59 $164 $165 reversed $37 $-1 #
coedge $-1 $59 $94 $160 $166 reversed $37 $-1 #
coedge $-1 $162 $167 $59 $97 forward $168 $-1 #
edge $-1 $169 -44.248058283629454 $170 -25.438881381840254 $96 $171 forward 7 unknown #
loop $-1 $-1 $103 $60 #
plane-surface $-1 -37.881760389449596 2.447755169594906 72.262863189827939 0.57357644374324357 0 0.81915203911291934 0.81915203911291934 0 -0.57357644374324357 forward_v I I I I #
loop $-1 $-1 $172 $39 #
coedge $-1 $101 $101 $102 $173 reversed $61 $-1 #
coedge $-1 $102 $102 $101 $173 forward $63 $-1 #
coedge $-1 $103 $103 $64 $104 forward $98 $-1 #
edge $-1 $174 0 $174 6.2831853071796004 $103 $175 forward 7 unknown #
face $-1 $176 $177 $22 $-1 $178 forward single #
loop $-1 $-1 $179 $65 #
plane-surface $-1 -127.42818662440024 7.9464614968967062 101.41146548968371 0 -1 0 0.57357644374324357 0 -0.81915203911291934 forward_v I I I I #
coedge $-1 $180 $181 $182 $183 reversed $66 $-1 #
coedge $-1 $110 $68 $184 $185 reversed $43 $-1 #
coedge $-1 $68 $109 $180 $186 reversed $43 $-1 #
coedge $-1 $182 $187 $68 $112 forward $177 $-1 #
edge $-1 $188 4.3665790447969357 $189 23.175755946586087 $111 $190 forward 7 unknown #
loop $-1 $-1 $118 $69 #
plane-surface $-1 -59.347514267403184 2.447755169594906 4.1821908328309263 -0.57357644374324357 0 0.81915203911291934 0.81915203911291934 0 0.57357644374324357 forward_v I I I I #
loop $-1 $-1 $191 $45 #
coedge $-1 $116 $116 $117 $192 reversed $70 $-1 #
coedge $-1 $117 $117 $116 $192 forward $72 $-1 #
coedge $-1 $118 $118 $73 $119 forward $113 $-1 #
edge $-1 $193 0 $193 6.2831853071796004 $118 $194 forward 7 unknown #
face $-1 $195 $196 $18 $-1 $197 reversed single #
loop $-1 $-1 $198 $74 #
plane-surface $-1 -59.347514267403184 0 0 1 0 0 0 0 -1 forward_v I I I I #
coedge $-1 $199 $131 $200 $201 forward $75 $-1 #
coedge $-1 $202 $77 $199 $203 forward $49 $-1 #
coedge $-1 $77 $202 $204 $205 forward $49 $-1 #
coedge $-1 $134 $133 $77 $127 reversed $135 $-1 #
edge $-1 $206 -34.775719868765769 $207 34.775719868765769 $126 $208 forward 7 unknown #
coedge $-1 $79 $78 $209 $210 forward $31 $-1 #
coedge $-1 $211 $212 $78 $130 reversed $196 $-1 #
edge $-1 $137 -59.347514267403184 $213 59.347514267403184 $129 $214 forward 7 unknown #
coedge $-1 $123 $215 $79 $132 reversed $75 $-1 #
edge $-1 $216 -59.347514267403184 $136 59.347514267403184 $131 $217 forward 7 unknown #
coedge $-1 $126 $80 $215 $218 forward $135 $-1 #
coedge $-1 $80 $126 $211 $219 reversed $135 $-1 #
loop $-1 $-1 $133 $195 #
vertex $-1 $81 $220 #
vertex $-1 $81 $221 #
straight-curve $-1 59.347514267403184 0 17.352518539942444 0 1 0 I I #
face $-1 $222 $223 $19 $-1 $224 forward single #
loop $-1 $-1 $148 $82 #
plane-surface $-1 0 -34.775719868765769 0 0 1 0 0 0 1 forward_v I I I I #
coedge $-1 $225 $226 $227 $228 forward $83 $-1 #
coedge $-1 $227 $85 $87 $150 reversed $53 $-1 #
coedge $-1 $85 $227 $229 $230 reversed $53 $-1 #
coedge $-1 $231 $88 $85 $146 forward $152 $-1 #
edge $-1 $154 2.9947618020966704 $232 10.570091759262739 $145 $233 forward 7 unknown #
coedge $-1 $87 $86 $225 $234 reversed $34 $-1 #
coedge $-1 $235 $236 $86 $149 forward $140 $-1 #
edge $-1 $237 -59.347514267403184 $153 59.347514267403184 $148 $238 forward 7 unknown #
edge $-1 $239 -59.347514267403184 $154 59.347514267403184 $143 $240 forward 7 unknown #
coedge $-1 $88 $231 $235 $241 forward $152 $-1 #
loop $-1 $-1 $145 $222 #
vertex $-1 $149 $242 #
vertex $-1 $89 $243 #
straight-curve $-1 59.347514267403184 -12.246097973900643 9.7771885827763754 0 1 0 I I #
face $-1 $-1 $168 $20 $-1 $244 forward single #
loop $-1 $-1 $245 $90 #
plane-surface $-1 59.347514267403184 0 0 -1 0 0 0 0 1 forward_v I I I I #
coedge $-1 $246 $247 $248 $249 reversed $91 $-1 #
coedge $-1 $250 $93 $95 $166 forward $57 $-1 #
coedge $-1 $93 $250 $246 $251 forward $57 $-1 #
coedge $-1 $248 $96 $93 $163 forward $168 $-1 #
edge $-1 $170 -6.7225839120992532 $252 4.2748287425043472 $162 $253 forward 7 unknown #
coedge $-1 $254 $255 $94 $165 forward $157 $-1 #
edge $-1 $256 -80.563878090509476 $169 -67.393550383397923 $164 $257 forward 7 unknown #
edge $-1 $170 95.733263192491961 $256 118.69502853480637 $95 $258 forward 7 unknown #
coedge $-1 $96 $248 $254 $259 forward $168 $-1 #
loop $-1 $-1 $248 $156 #
vertex $-1 $165 $260 #
vertex $-1 $97 $261 #
straight-curve $-1 15.09945598377373 7.9464614968967062 17.352518539942452 -1 0 0 I I #
coedge $-1 $172 $172 $-1 $262 reversed $100 $-1 #
edge $-1 $263 0 $263 6.2831853071796004 $101 $264 forward 7 unknown #
vertex $-1 $104 $265 #
ellipse-curve $-1 49.942925816508598 2.4477551695949131 10.767354686386653 0.57357644374324357 0 0.81915203911291934 1.228728058669379 0 -0.86036466561486535 1 I I #
face $-1 $-1 $266 $22 $-1 $267 reversed single #
loop $-1 $-1 $111 $105 #
plane-surface $-1 0 0 17.352518539942444 0 0 1 1 0 0 forward_v I I I I #
coedge $-1 $268 $269 $270 $271 reversed $106 $-1 #
coedge $-1 $272 $108 $110 $186 forward $66 $-1 #
coedge $-1 $108 $272 $268 $273 forward $66 $-1 #
coedge $-1 $270 $111 $108 $183 forward $177 $-1 #
edge $-1 $189 -4.2748287425043472 $274 6.7225839120992532 $182 $275 forward 7 unknown #
coedge $-1 $276 $277 $109 $185 forward $266 $-1 #
edge $-1 $278 -46.523541912010927 $188 -33.353214204899409 $184 $279 forward 7 unknown #
edge $-1 $189 -22.961765342314337 $278 0 $110 $280 forward 7 unknown #
coedge $-1 $111 $270 $276 $281 forward $177 $-1 #
vertex $-1 $185 $282 #
vertex $-1 $112 $283 #
straight-curve $-1 -63.71409331220012 -3.0509511577068942 17.352518539942444 1 0 0 I I #
coedge $-1 $191 $191 $-1 $284 reversed $115 $-1 #
edge $-1 $285 0 $285 6.2831853071796004 $116 $286 forward 7 unknown #
vertex $-1 $119 $287 #
ellipse-curve $-1 -49.942925816508613 2.4477551695949131 10.767354686386685 -0.57357644374324357 0 0.81915203911291934 1.228728058669379 0 0.86036466561486535 1 I I #
face $-1 $-1 $135 $18 $-1 $288 reversed single #
loop $-1 $-1 $211 $120 #
plane-surface $-1 0 34.775719868765769 0 0 -1 0 0 0 -1 forward_v I I I I #
coedge $-1 $289 $209 $212 $290 forward $121 $-1 #
coedge $-1 $215 $123 $124 $203 reversed $75 $-1 #
coedge $-1 $209 $289 $123 $201 reversed $121 $-1 #
edge $-1 $216 -17.352518539942444 $291 17.352518539942444 $200 $292 forward 7 unknown #
coedge $-1 $125 $124 $289 $293 forward $49 $-1 #
edge $-1 $207 -59.347514267403184 $291 59.347514267403184 $199 $294 forward 7 unknown #
coedge $-1 $212 $211 $125 $205 reversed $196 $-1 #
edge $-1 $295 -59.347514267403184 $206 59.347514267403184 $204 $296 forward 7 unknown #
vertex $-1 $127 $297 #
vertex $-1 $218 $298 #
straight-curve $-1 59.347514267403184 0 -17.352518539942444 0 -1 0 I I #
coedge $-1 $198 $200 $128 $210 reversed $121 $-1 #
edge $-1 $213 -34.775719868765769 $216 34.775719868765769 $209 $299 forward 7 unknown #
coedge $-1 $204 $129 $134 $219 forward $196 $-1 #
coedge $-1 $129 $204 $198 $290 reversed $196 $-1 #
vertex $-1 $130 $300 #
straight-curve $-1 0 34.775719868765769 17.352518539942444 -1 0 0 I I #
coedge $-1 $131 $199 $133 $218 reversed $75 $-1 #
vertex $-1 $210 $301 #
straight-curve $-1 0 -34.775719868765769 17.352518539942444 1 0 0 I I #
edge $-1 $136 -17.352518539942444 $207 17.352518539942444 $133 $302 forward 7 unknown #
edge $-1 $137 -17.352518539942444 $206 17.352518539942444 $134 $303 forward 7 unknown #
point $-1 59.347514267403184 -34.775719868765769 17.352518539942444 #
point $-1 59.347514267403184 34.775719868765769 17.352518539942444 #
face $-1 $-1 $152 $19 $-1 $304 reversed single #
loop $-1 $-1 $229 $139 #
plane-surface $-1 0 0 17.352518539942444 0 0 1 1 0 0 forward_v I I I I #
coedge $-1 $305 $142 $147 $234 forward $83 $-1 #
coedge $-1 $142 $305 $306 $307 reversed $83 $-1 #
coedge $-1 $144 $143 $142 $228 reversed $53 $-1 #
edge $-1 $308 -10.570091759262739 $239 -2.9947618020966704 $142 $309 forward 7 unknown #
coedge $-1 $306 $310 $144 $230 forward $223 $-1 #
edge $-1 $232 -59.347514267403184 $308 59.347514267403184 $229 $311 forward 7 unknown #
coedge $-1 $151 $145 $310 $312 reversed $152 $-1 #
vertex $-1 $146 $313 #
straight-curve $-1 59.347514267403184 -14.208672026836803 6.7824267806797049 0 0 1 I I #
edge $-1 $239 1.9625740529361604 $237 22.529621894865127 $225 $314 forward 7 unknown #
coedge $-1 $315 $148 $151 $241 reversed $140 $-1 #
coedge $-1 $148 $315 $305 $316 forward $140 $-1 #
vertex $-1 $149 $317 #
straight-curve $-1 0 -34.775719868765769 9.7771885827763754 1 0 0 I I #
vertex $-1 $234 $318 #
straight-curve $-1 0 -14.208672026836803 9.7771885827763754 1 0 0 I I #
edge $-1 $319 -17.352518539942444 $153 -9.7771885827763754 $151 $320 forward 7 unknown #
point $-1 59.347514267403184 -34.775719868765769 9.7771885827763754 #
point $-1 59.347514267403184 -14.208672026836803 9.7771885827763754 #
plane-surface $-1 0 0 17.352518539942444 0 0 1 1 0 0 forward_v I I I I #
coedge $-1 $255 $254 $247 $321 forward $157 $-1 #
coedge $-1 $247 $159 $161 $251 reversed $91 $-1 #
coedge $-1 $159 $246 $245 $321 reversed $91 $-1 #
coedge $-1 $167 $162 $159 $249 forward $168 $-1 #
edge $-1 $252 25.438881381840254 $322 44.248058283629454 $248 $323 forward 7 unknown #
coedge $-1 $161 $160 $255 $324 reversed $57 $-1 #
edge $-1 $325 -118.69502853480637 $252 -95.733263192491961 $246 $326 forward 7 unknown #
vertex $-1 $163 $327 #
straight-curve $-1 40.538337365613963 1.223877584797453 17.352518539942452 0 -1 0 I I #
coedge $-1 $245 $164 $167 $259 reversed $157 $-1 #
coedge $-1 $164 $245 $250 $324 forward $157 $-1 #
vertex $-1 $165 $328 #
straight-curve $-1 59.347514267403184 7.9464614968967062 84.74606892334036 0 0 1 I I #
straight-curve $-1 -37.881760389449596 7.9464614968967062 72.262863189827939 0.81915203911291934 0 -0.57357644374324357 I I #
edge $-1 $322 -3.0509511577068942 $169 7.9464614968967062 $254 $329 forward 7 unknown #
point $-1 59.347514267403184 7.9464614968967062 17.352518539942444 #
point $-1 40.538337365613984 7.9464614968967062 17.352518539942444 #
edge $-1 $330 1 $330 0 $172 $-1 forward 7 unknown #
vertex $-1 $173 $331 #
ellipse-curve $-1 48.904380828591954 2.4477551695949131 9.2841587604688218 0.57357644374324357 0 0.81915203911291934 1.228728058669379 0 -0.86036466561486535 1 I I #
point $-1 51.171653875177981 2.4477551695949131 9.9069900207717971 #
loop $-1 $-1 $184 $176 #
plane-surface $-1 -59.347514267403184 0 0 1 0 0 0 0 -1 forward_v I I I I #
coedge $-1 $269 $179 $181 $273 reversed $106 $-1 #
coedge $-1 $179 $268 $332 $333 reversed $106 $-1 #
coedge $-1 $187 $182 $179 $271 forward $177 $-1 #
edge $-1 $274 -23.175755946586087 $334 -4.3665790447969357 $270 $335 forward 7 unknown #
coedge $-1 $181 $180 $277 $336 reversed $66 $-1 #
edge $-1 $337 0 $274 22.961765342314337 $268 $338 forward 7 unknown #
vertex $-1 $183 $339 #
straight-curve $-1 -40.538337365614041 1.223877584797453 17.352518539942444 0 1 0 I I #
coedge $-1 $332 $184 $187 $281 reversed $266 $-1 #
coedge $-1 $184 $332 $272 $336 forward $266 $-1 #
vertex $-1 $185 $340 #
straight-curve $-1 -59.347514267403184 -3.0509511577068942 50.705732744841853 0 0 1 I I #
straight-curve $-1 -59.347514267403184 -3.0509511577068942 4.1821908328309263 -0.81915203911291934 0 -0.57357644374324357 I I #
edge $-1 $334 -7.9464614968967062 $188 3.0509511577068942 $276 $341 forward 7 unknown #
point $-1 -59.347514267403184 -3.0509511577068942 17.352518539942444 #
point $-1 -40.538337365614034 -3.0509511577068942 17.352518539942444 #
edge $-1 $342 1 $342 0 $191 $-1 forward 7 unknown #
vertex $-1 $192 $343 #
ellipse-curve $-1 -48.904380828591954 2.4477551695949131 9.284158760468836 -0.57357644374324357 0 0.81915203911291934 1.228728058669379 0 0.86036466561486535 1 I I #
point $-1 -48.714197757839223 2.4477551695949131 11.627719352001542 #
plane-surface $-1 59.347514267403184 0 0 -1 0 0 0 0 1 forward_v I I I I #
coedge $-1 $200 $198 $202 $293 reversed $121 $-1 #
edge $-1 $213 -17.352518539942444 $295 17.352518539942444 $212 $344 forward 7 unknown #
vertex $-1 $293 $345 #
straight-curve $-1 -59.347514267403184 -34.775719868765769 0 0 0 -1 I I #
edge $-1 $291 -34.775719868765769 $295 34.775719868765769 $289 $346 forward 7 unknown #
straight-curve $-1 0 -34.775719868765769 -17.352518539942444 -1 0 0 I I #
vertex $-1 $205 $347 #
straight-curve $-1 0 34.775719868765769 -17.352518539942444 1 0 0 I I #
point $-1 59.347514267403184 34.775719868765769 -17.352518539942444 #
point $-1 59.347514267403184 -34.775719868765769 -17.352518539942444 #
straight-curve $-1 -59.347514267403184 0 17.352518539942444 0 -1 0 I I #
point $-1 -59.347514267403184 34.775719868765769 17.352518539942444 #
point $-1 -59.347514267403184 -34.775719868765769 17.352518539942444 #
straight-curve $-1 59.347514267403184 -34.775719868765769 0 0 0 -1 I I #
straight-curve $-1 59.347514267403184 34.775719868765769 0 0 0 -1 I I #
plane-surface $-1 59.347514267403184 0 0 -1 0 0 0 0 1 forward_v I I I I #
coedge $-1 $226 $225 $236 $316 reversed $83 $-1 #
coedge $-1 $348 $229 $226 $307 forward $223 $-1 #
edge $-1 $308 14.208672026836803 $349 34.775719868765769 $226 $350 forward 7 unknown #
vertex $-1 $307 $351 #
straight-curve $-1 -59.347514267403184 -14.208672026836803 6.7824267806797049 0 0 -1 I I #
coedge $-1 $229 $348 $231 $312 forward $223 $-1 #
straight-curve $-1 0 -14.208672026836803 17.352518539942444 -1 0 0 I I #
edge $-1 $319 -34.775719868765769 $232 -14.208672026836803 $231 $352 forward 7 unknown #
point $-1 59.347514267403184 -14.208672026836803 17.352518539942444 #
straight-curve $-1 -59.347514267403184 -12.246097973900643 9.7771885827763754 0 -1 0 I I #
coedge $-1 $236 $235 $348 $353 reversed $140 $-1 #
edge $-1 $349 -17.352518539942444 $237 -9.7771885827763754 $305 $354 forward 7 unknown #
point $-1 -59.347514267403184 -34.775719868765769 9.7771885827763754 #
point $-1 -59.347514267403184 -14.208672026836803 9.7771885827763754 #
vertex $-1 $312 $355 #
straight-curve $-1 59.347514267403184 -34.775719868765769 0 0 0 -1 I I #
edge $-1 $322 67.393550383397923 $325 80.563878090509476 $245 $356 forward 7 unknown #
vertex $-1 $259 $357 #
straight-curve $-1 15.09945598377373 -3.0509511577068942 17.352518539942452 1 0 0 I I #
edge $-1 $325 -4.2748287425043472 $256 6.7225839120992532 $255 $358 forward 7 unknown #
vertex $-1 $324 $359 #
straight-curve $-1 -37.881760389449596 -3.0509511577068942 72.262863189827939 -0.81915203911291934 0 0.57357644374324357 I I #
point $-1 40.538337365613984 -3.0509511577068942 17.352518539942444 #
point $-1 59.347514267403184 7.9464614968967062 4.1821908328308837 #
straight-curve $-1 59.347514267403184 0 17.352518539942444 0 1 0 I I #
vertex $-1 $262 $360 #
point $-1 50.133108887261329 2.4477551695949131 8.4237940948539567 #
coedge $-1 $277 $276 $269 $333 forward $266 $-1 #
edge $-1 $334 33.353214204899409 $337 46.523541912010927 $332 $361 forward 7 unknown #
vertex $-1 $281 $362 #
straight-curve $-1 -63.71409331220012 7.9464614968967062 17.352518539942444 -1 0 0 I I #
edge $-1 $337 -6.7225839120992532 $278 4.2748287425043472 $277 $363 forward 7 unknown #
vertex $-1 $336 $364 #
straight-curve $-1 -59.347514267403184 7.9464614968967062 4.1821908328309263 0.81915203911291934 0 0.57357644374324357 I I #
point $-1 -40.538337365614034 7.9464614968967062 17.352518539942444 #
point $-1 -59.347514267403184 -3.0509511577068942 4.1821908328309263 #
straight-curve $-1 -59.347514267403184 0 17.352518539942444 0 -1 0 I I #
vertex $-1 $284 $365 #
point $-1 -47.675652769922571 2.4477551695949131 10.144523426083701 #
straight-curve $-1 -59.347514267403184 34.775719868765769 0 0 0 -1 I I #
point $-1 -59.347514267403184 -34.775719868765769 -17.352518539942444 #
straight-curve $-1 -59.347514267403184 0 -17.352518539942444 0 1 0 I I #
point $-1 -59.347514267403184 34.775719868765769 -17.352518539942444 #
coedge $-1 $310 $306 $315 $353 forward $223 $-1 #
vertex $-1 $307 $366 #
straight-curve $-1 -59.347514267403184 0 17.352518539942444 0 -1 0 I I #
point $-1 -59.347514267403184 -14.208672026836803 17.352518539942444 #
straight-curve $-1 59.347514267403184 0 17.352518539942444 0 1 0 I I #
edge $-1 $349 -59.347514267403184 $319 59.347514267403184 $315 $367 forward 7 unknown #
straight-curve $-1 -59.347514267403184 -34.775719868765769 0 0 0 -1 I I #
point $-1 59.347514267403184 -34.775719868765769 17.352518539942444 #
straight-curve $-1 59.347514267403184 -3.0509511577068942 84.74606892334036 0 0 -1 I I #
point $-1 59.347514267403184 -3.0509511577068942 17.352518539942444 #
straight-curve $-1 59.347514267403184 1.223877584797453 4.1821908328308837 0 1 0 I I #
point $-1 59.347514267403184 -3.0509511577068942 4.1821908328308837 #
point $-1 48.044016162977087 2.4477551695949131 8.0554307017994429 #
straight-curve $-1 -59.347514267403184 7.9464614968967062 50.705732744841853 0 0 -1 I I #
point $-1 -59.347514267403184 7.9464614968967062 17.352518539942444 #
straight-curve $-1 -59.347514267403184 1.223877584797453 4.1821908328309245 0 -1 0 I I #
point $-1 -59.347514267403184 7.9464614968967062 4.1821908328309263 #
point $-1 -48.044016162977087 2.4477551695949131 8.0554307017994571 #
point $-1 -59.347514267403184 -34.775719868765769 17.352518539942444 #
straight-curve $-1 0 -34.775719868765769 17.352518539942444 1 0 0 I I #
End-of-ACIS-data 