500 0 8 0           
7 Unknown 11 ACIS 5.0 NT 24 Fri Mar 26 15:04:58 1999 
-1 9.9999999999999995e-007 1e-010 
body $-1 $8 $-1 $9 #
body $-1 $10 $-1 $11 #
body $-1 $12 $-1 $13 #
body $-1 $14 $-1 $15 #
body $-1 $16 $-1 $17 #
body $-1 $18 $-1 $19 #
body $-1 $20 $-1 $21 #
body $-1 $22 $-1 $23 #
lump $-1 $-1 $24 $0 #
transform $-1 1 0 0 0 1 0 0 0 1 48.465834528641622 19.420501137657144 4.1584539973797972 1 rotate no_reflect no_shear #
lump $-1 $-1 $25 $1 #
transform $-1 1 0 0 0 1 0 0 0 1 48.465834528641622 19.420501137657144 4.1584539973797972 1 rotate no_reflect no_shear #
lump $-1 $-1 $26 $2 #
transform $-1 1 0 0 0 1 0 0 0 1 48.465834528641622 19.420501137657144 4.1584539973797972 1 rotate no_reflect no_shear #
lump $-1 $-1 $27 $3 #
transform $-1 1 0 0 0 1 0 0 0 1 48.465834528641622 19.420501137657144 4.1584539973797972 1 rotate no_reflect no_shear #
lump $-1 $-1 $28 $4 #
transform $-1 1 0 0 0 1 0 0 0 1 48.465834528641622 19.420501137657144 4.1584539973797972 1 rotate no_reflect no_shear #
lump $-1 $-1 $29 $5 #
transform $-1 1 0 0 0 1 0 0 0 1 48.465834528641622 19.420501137657144 4.1584539973797972 1 rotate no_reflect no_shear #
lump $-1 $-1 $30 $6 #
transform $-1 1 0 0 0 1 0 0 0 1 48.465834528641622 19.420501137657144 4.1584539973797972 1 rotate no_reflect no_shear #
lump $-1 $-1 $31 $7 #
transform $-1 1 0 0 0 1 0 0 0 1 48.465834528641622 19.420501137657144 4.1584539973797972 1 rotate no_reflect no_shear #
shell $-1 $-1 $-1 $32 $-1 $8 #
shell $-1 $-1 $-1 $33 $-1 $10 #
shell $-1 $-1 $-1 $34 $-1 $12 #
shell $-1 $-1 $-1 $35 $-1 $14 #
shell $-1 $-1 $-1 $36 $-1 $16 #
shell $-1 $-1 $-1 $37 $-1 $18 #
shell $-1 $-1 $-1 $38 $-1 $20 #
shell $-1 $-1 $-1 $39 $-1 $22 #
face $-1 $40 $41 $24 $-1 $42 forward single #
face $-1 $43 $44 $25 $-1 $45 forward single #
face $-1 $46 $47 $26 $-1 $48 reversed single #
face $-1 $49 $50 $27 $-1 $51 forward single #
face $-1 $52 $53 $28 $-1 $54 forward single #
face $-1 $55 $56 $29 $-1 $57 reversed single #
face $-1 $58 $59 $30 $-1 $60 forward single #
face $-1 $61 $62 $31 $-1 $63 forward single #
face $-1 $64 $65 $24 $-1 $66 reversed single #
loop $-1 $-1 $67 $32 #
plane-surface $-1 0 0 4.1584539973797972 0 0 1 1 0 0 forward_v I I I I #
face $-1 $68 $69 $25 $-1 $70 forward single #
loop $-1 $-1 $71 $33 #
plane-surface $-1 0 -19.420501137657144 0 0 1 0 0 0 1 forward_v I I I I #
face $-1 $72 $73 $26 $-1 $74 reversed single #
loop $-1 $-1 $75 $34 #
plane-surface $-1 -21.364636789515615 57.121230763845318 98.185003070472206 1 0 0 0 -0.68199836817093118 -0.7313536940579346 forward_v I I I I #
face $-1 $76 $77 $27 $-1 $78 forward single #
loop $-1 $79 $80 $35 #
cone-surface $-1 -15.26045484965401 17.074156990856039 1.8938368064026925 0 -0.68199836817093118 -0.7313536940579346 0.5 0 0 1 I I 0 1 0.5 forward I I I I #
face $-1 $81 $82 $28 $-1 $83 forward single #
loop $-1 $84 $85 $36 #
cone-surface $-1 -6.1041819398616042 17.074156990856039 1.8938368064026925 0 -0.68199836817093118 -0.7313536940579346 0.5 0 0 1 I I 0 1 0.5 forward I I I I #
face $-1 $86 $87 $29 $-1 $88 reversed single #
loop $-1 $-1 $89 $37 #
plane-surface $-1 27.101197739126015 57.121230763845318 98.185003070472206 1 0 0 0 -0.68199836817093118 -0.7313536940579346 forward_v I I I I #
face $-1 $90 $91 $30 $-1 $92 forward single #
loop $-1 $93 $94 $38 #
cone-surface $-1 33.205379678987612 17.074156990856039 1.8938368064026925 0 -0.68199836817093118 -0.7313536940579346 0.5 0 0 1 I I 0 1 0.5 forward I I I I #
face $-1 $95 $96 $31 $-1 $97 forward single #
loop $-1 $98 $99 $39 #
cone-surface $-1 42.361652588780018 17.074156990856039 1.8938368064026925 0 -0.68199836817093118 -0.7313536940579346 0.5 0 0 1 I I 0 1 0.5 forward I I I I #
face $-1 $100 $101 $24 $-1 $102 reversed single #
loop $-1 $-1 $103 $40 #
plane-surface $-1 0 0 -4.1584539973797972 0 0 1 1 0 0 forward_v I I I I #
coedge $-1 $104 $105 $106 $107 forward $41 $-1 #
face $-1 $108 $109 $25 $-1 $110 reversed single #
loop $-1 $-1 $111 $43 #
plane-surface $-1 0 0 4.1584539973797972 0 0 1 1 0 0 forward_v I I I I #
coedge $-1 $112 $113 $114 $115 forward $44 $-1 #
face $-1 $116 $117 $26 $-1 $118 reversed single #
loop $-1 $-1 $119 $46 #
plane-surface $-1 -10.682318394757807 -8.9860093573065996 27.293668834226906 0 0.68199836817093118 0.7313536940579346 1 0 0 forward_v I I I I #
coedge $-1 $120 $121 $122 $123 reversed $47 $-1 #
face $-1 $-1 $124 $27 $-1 $125 forward single #
loop $-1 $126 $127 $49 #
cone-surface $-1 -15.26045484965401 16.355828529858716 1.1235238584314269 0 -0.68199836817093118 -0.7313536940579346 0.25 0 0 1 I I -0.70710678118654746 0.70710678118654746 0.25 forward I I I I #
loop $-1 $-1 $128 $35 #
coedge $-1 $80 $80 $129 $130 reversed $50 $-1 #
face $-1 $-1 $131 $28 $-1 $132 forward single #
loop $-1 $133 $134 $52 #
cone-surface $-1 -6.1041819398616042 16.355828529858716 1.1235238584314269 0 -0.68199836817093118 -0.7313536940579346 0.25 0 0 1 I I -0.70710678118654746 0.70710678118654746 0.25 forward I I I I #
loop $-1 $-1 $135 $36 #
coedge $-1 $85 $85 $136 $137 reversed $53 $-1 #
face $-1 $138 $139 $29 $-1 $140 forward single #
loop $-1 $-1 $141 $55 #
plane-surface $-1 37.783516133883822 -8.9860093573065996 27.293668834226906 0 0.68199836817093118 0.7313536940579346 1 0 0 forward_v I I I I #
coedge $-1 $142 $143 $144 $145 reversed $56 $-1 #
face $-1 $-1 $146 $30 $-1 $147 forward single #
loop $-1 $148 $149 $58 #
cone-surface $-1 33.205379678987612 16.355828529858716 1.1235238584314269 0 -0.68199836817093118 -0.7313536940579346 0.25 0 0 1 I I -0.70710678118654746 0.70710678118654746 0.25 forward I I I I #
loop $-1 $-1 $150 $38 #
coedge $-1 $94 $94 $151 $152 reversed $59 $-1 #
face $-1 $-1 $153 $31 $-1 $154 forward single #
loop $-1 $155 $156 $61 #
cone-surface $-1 42.361652588780018 16.355828529858716 1.1235238584314269 0 -0.68199836817093118 -0.7313536940579346 0.25 0 0 1 I I -0.70710678118654746 0.70710678118654746 0.25 forward I I I I #
loop $-1 $-1 $157 $39 #
coedge $-1 $99 $99 $158 $159 reversed $62 $-1 #
face $-1 $160 $161 $24 $-1 $162 reversed single #
loop $-1 $-1 $163 $64 #
plane-surface $-1 0 -19.420501137657144 0 0 1 0 0 0 1 forward_v I I I I #
coedge $-1 $164 $165 $166 $167 forward $65 $-1 #
coedge $-1 $168 $67 $169 $170 forward $41 $-1 #
coedge $-1 $67 $168 $171 $172 forward $41 $-1 #
coedge $-1 $173 $174 $67 $107 reversed $175 $-1 #
edge $-1 $176 -19.420501137657144 $177 19.420501137657144 $106 $178 forward 7 unknown #
face $-1 $179 $180 $25 $-1 $181 reversed single #
loop $-1 $-1 $182 $68 #
plane-surface $-1 -48.465834528641622 0 0 1 0 0 0 0 -1 forward_v I I I I #
coedge $-1 $183 $184 $185 $186 forward $69 $-1 #
coedge $-1 $185 $71 $182 $187 reversed $44 $-1 #
coedge $-1 $71 $185 $188 $189 reversed $44 $-1 #
coedge $-1 $190 $191 $71 $115 reversed $180 $-1 #
edge $-1 $192 -48.465834528641622 $193 48.465834528641622 $114 $194 forward 7 unknown #
face $-1 $195 $196 $26 $-1 $197 reversed single #
loop $-1 $-1 $198 $72 #
plane-surface $-1 0 57.121230763845318 98.185003070472206 -1 0 0 0 0.68199836817093118 0.7313536940579346 forward_v I I I I #
coedge $-1 $199 $200 $201 $202 reversed $73 $-1 #
coedge $-1 $121 $75 $203 $204 reversed $47 $-1 #
coedge $-1 $75 $120 $199 $205 reversed $47 $-1 #
coedge $-1 $201 $206 $75 $123 forward $207 $-1 #
edge $-1 $208 9.140114244265515 $209 12.737144799958561 $122 $210 forward 7 unknown #
loop $-1 $-1 $129 $76 #
plane-surface $-1 -10.682318394757807 -8.9860093573065996 27.293668834226906 0 0.68199836817093118 0.7313536940579346 1 0 0 forward_v I I I I #
loop $-1 $-1 $211 $49 #
coedge $-1 $127 $127 $128 $212 reversed $77 $-1 #
coedge $-1 $128 $128 $127 $212 forward $79 $-1 #
coedge $-1 $129 $129 $80 $130 forward $124 $-1 #
edge $-1 $213 1.9128538313618978e-015 $213 6.2831853071796022 $129 $214 forward 7 unknown #
loop $-1 $-1 $136 $81 #
plane-surface $-1 -10.682318394757807 -8.9860093573065996 27.293668834226906 0 0.68199836817093118 0.7313536940579346 1 0 0 forward_v I I I I #
loop $-1 $-1 $215 $52 #
coedge $-1 $134 $134 $135 $216 reversed $82 $-1 #
coedge $-1 $135 $135 $134 $216 forward $84 $-1 #
coedge $-1 $136 $136 $85 $137 forward $131 $-1 #
edge $-1 $217 1.9128538313618978e-015 $217 6.2831853071796022 $136 $218 forward 7 unknown #
face $-1 $219 $220 $29 $-1 $221 reversed single #
loop $-1 $-1 $144 $86 #
plane-surface $-1 0 0 4.1584539973797972 0 0 1 1 0 0 forward_v I I I I #
coedge $-1 $222 $223 $224 $225 reversed $87 $-1 #
coedge $-1 $143 $89 $226 $227 reversed $56 $-1 #
coedge $-1 $89 $142 $222 $228 reversed $56 $-1 #
coedge $-1 $224 $229 $89 $145 forward $139 $-1 #
edge $-1 $230 9.140114244265515 $231 12.737144799958561 $144 $232 forward 7 unknown #
loop $-1 $-1 $151 $90 #
plane-surface $-1 37.783516133883822 -8.9860093573065996 27.293668834226906 0 0.68199836817093118 0.7313536940579346 1 0 0 forward_v I I I I #
loop $-1 $-1 $233 $58 #
coedge $-1 $149 $149 $150 $234 reversed $91 $-1 #
coedge $-1 $150 $150 $149 $234 forward $93 $-1 #
coedge $-1 $151 $151 $94 $152 forward $146 $-1 #
edge $-1 $235 1.9128538313618978e-015 $235 6.2831853071796022 $151 $236 forward 7 unknown #
loop $-1 $-1 $158 $95 #
plane-surface $-1 37.783516133883822 -8.9860093573065996 27.293668834226906 0 0.68199836817093118 0.7313536940579346 1 0 0 forward_v I I I I #
loop $-1 $-1 $237 $61 #
coedge $-1 $156 $156 $157 $238 reversed $96 $-1 #
coedge $-1 $157 $157 $156 $238 forward $98 $-1 #
coedge $-1 $158 $158 $99 $159 forward $153 $-1 #
edge $-1 $239 1.9128538313618978e-015 $239 6.2831853071796022 $158 $240 forward 7 unknown #
face $-1 $241 $242 $24 $-1 $243 reversed single #
loop $-1 $-1 $244 $100 #
plane-surface $-1 -48.465834528641622 0 0 1 0 0 0 0 -1 forward_v I I I I #
coedge $-1 $245 $171 $246 $247 forward $101 $-1 #
coedge $-1 $248 $103 $245 $249 forward $65 $-1 #
coedge $-1 $103 $248 $250 $251 forward $65 $-1 #
coedge $-1 $174 $173 $103 $167 reversed $175 $-1 #
edge $-1 $252 -19.420501137657144 $253 19.420501137657144 $166 $254 forward 7 unknown #
coedge $-1 $105 $104 $255 $256 forward $41 $-1 #
coedge $-1 $257 $258 $104 $170 reversed $242 $-1 #
edge $-1 $177 -48.465834528641622 $259 48.465834528641622 $169 $260 forward 7 unknown #
coedge $-1 $163 $261 $105 $172 reversed $101 $-1 #
edge $-1 $262 -48.465834528641622 $176 48.465834528641622 $171 $263 forward 7 unknown #
coedge $-1 $166 $106 $261 $264 forward $175 $-1 #
coedge $-1 $106 $166 $257 $265 reversed $175 $-1 #
loop $-1 $-1 $173 $241 #
vertex $-1 $107 $266 #
vertex $-1 $107 $267 #
straight-curve $-1 48.465834528641622 0 4.1584539973797972 0 1 0 I I #
face $-1 $268 $269 $25 $-1 $270 reversed single #
loop $-1 $-1 $190 $108 #
plane-surface $-1 0 -20.944983748404091 1.1584539973797972 0 0 1 1 0 0 forward_v I I I I #
coedge $-1 $271 $272 $112 $187 forward $109 $-1 #
coedge $-1 $273 $111 $272 $274 forward $69 $-1 #
coedge $-1 $111 $273 $275 $276 forward $69 $-1 #
coedge $-1 $113 $112 $111 $186 reversed $44 $-1 #
edge $-1 $277 -48.465834528641622 $278 48.465834528641622 $111 $279 forward 7 unknown #
edge $-1 $278 -4.1584539973797972 $193 -1.1584539973797972 $182 $280 forward 7 unknown #
coedge $-1 $275 $281 $113 $189 forward $282 $-1 #
edge $-1 $192 1.1584539973797972 $277 4.1584539973797972 $188 $283 forward 7 unknown #
coedge $-1 $284 $114 $281 $285 forward $180 $-1 #
coedge $-1 $114 $284 $271 $286 forward $180 $-1 #
vertex $-1 $189 $287 #
vertex $-1 $187 $288 #
straight-curve $-1 0 -19.420501137657144 1.1584539973797972 -1 0 0 I I #
face $-1 $-1 $207 $26 $-1 $289 forward single #
loop $-1 $-1 $290 $116 #
plane-surface $-1 0 19.420501137657144 0 0 -1 0 0 0 -1 forward_v I I I I #
coedge $-1 $291 $292 $293 $294 reversed $117 $-1 #
coedge $-1 $295 $119 $121 $205 forward $73 $-1 #
coedge $-1 $119 $295 $291 $296 forward $73 $-1 #
coedge $-1 $293 $122 $119 $202 forward $207 $-1 #
edge $-1 $209 -16.023477592136711 $297 5.3411591973789037 $201 $298 forward 7 unknown #
coedge $-1 $299 $300 $120 $204 forward $196 $-1 #
edge $-1 $301 -48.288332870896966 $208 -44.934047537856308 $203 $302 forward 7 unknown #
edge $-1 $209 33.92268356725549 $301 38.841002275314281 $121 $303 forward 7 unknown #
coedge $-1 $122 $293 $299 $304 forward $207 $-1 #
loop $-1 $-1 $293 $195 #
vertex $-1 $204 $305 #
vertex $-1 $123 $306 #
straight-curve $-1 -21.364636789515615 28.560615381922659 4.1584539973797945 0 -1 0 I I #
coedge $-1 $211 $211 $-1 $307 reversed $126 $-1 #
edge $-1 $308 0 $308 6.2831853071796004 $127 $309 forward 7 unknown #
vertex $-1 $130 $310 #
ellipse-curve $-1 -15.26045484965401 17.621985859810621 2.4813113308594685 0 0.68199836817093118 0.7313536940579346 0.5 0 0 1 I I #
coedge $-1 $215 $215 $-1 $311 reversed $133 $-1 #
edge $-1 $312 0 $312 6.2831853071796004 $134 $313 forward 7 unknown #
vertex $-1 $137 $314 #
ellipse-curve $-1 -6.1041819398616042 17.621985859810621 2.4813113308594685 0 0.68199836817093118 0.7313536940579346 0.5 0 0 1 I I #
face $-1 $-1 $315 $29 $-1 $316 reversed single #
loop $-1 $-1 $317 $138 #
plane-surface $-1 48.465834528641622 0 0 -1 0 0 0 0 1 forward_v I I I I #
coedge $-1 $318 $141 $143 $228 forward $87 $-1 #
coedge $-1 $141 $318 $317 $319 reversed $87 $-1 #
coedge $-1 $320 $144 $141 $225 forward $139 $-1 #
edge $-1 $231 8.2094396721841036 $321 29.574076461699718 $224 $322 forward 7 unknown #
coedge $-1 $323 $324 $142 $227 forward $315 $-1 #
edge $-1 $325 -48.288332870896966 $230 -44.934047537856308 $226 $326 forward 7 unknown #
edge $-1 $231 33.92268356725549 $325 38.841002275314281 $143 $327 forward 7 unknown #
coedge $-1 $144 $320 $323 $328 forward $139 $-1 #
vertex $-1 $227 $329 #
vertex $-1 $145 $330 #
straight-curve $-1 27.101197739126015 28.560615381922659 4.1584539973797945 0 -1 0 I I #
coedge $-1 $233 $233 $-1 $331 reversed $148 $-1 #
edge $-1 $332 0 $332 6.2831853071796004 $149 $333 forward 7 unknown #
vertex $-1 $152 $334 #
ellipse-curve $-1 33.205379678987612 17.621985859810621 2.4813113308594685 0 0.68199836817093118 0.7313536940579346 0.5 0 0 1 I I #
coedge $-1 $237 $237 $-1 $335 reversed $155 $-1 #
edge $-1 $336 0 $336 6.2831853071796004 $156 $337 forward 7 unknown #
vertex $-1 $159 $338 #
ellipse-curve $-1 42.361652588780018 17.621985859810621 2.4813113308594685 0 0.68199836817093118 0.7313536940579346 0.5 0 0 1 I I #
face $-1 $-1 $175 $24 $-1 $339 reversed single #
loop $-1 $-1 $257 $160 #
plane-surface $-1 0 19.420501137657144 0 0 -1 0 0 0 -1 forward_v I I I I #
coedge $-1 $340 $255 $258 $341 forward $161 $-1 #
coedge $-1 $261 $163 $164 $249 reversed $101 $-1 #
coedge $-1 $255 $340 $163 $247 reversed $161 $-1 #
edge $-1 $262 -4.1584539973797972 $342 4.1584539973797972 $246 $343 forward 7 unknown #
coedge $-1 $165 $164 $340 $344 forward $65 $-1 #
edge $-1 $253 -48.465834528641622 $342 48.465834528641622 $245 $345 forward 7 unknown #
coedge $-1 $258 $257 $165 $251 reversed $242 $-1 #
edge $-1 $346 -48.465834528641622 $252 48.465834528641622 $250 $347 forward 7 unknown #
vertex $-1 $167 $348 #
vertex $-1 $264 $349 #
straight-curve $-1 48.465834528641622 0 -4.1584539973797972 0 -1 0 I I #
coedge $-1 $244 $246 $168 $256 reversed $161 $-1 #
edge $-1 $259 -19.420501137657144 $262 19.420501137657144 $255 $350 forward 7 unknown #
coedge $-1 $250 $169 $174 $265 forward $242 $-1 #
coedge $-1 $169 $250 $244 $341 reversed $242 $-1 #
vertex $-1 $170 $351 #
straight-curve $-1 0 19.420501137657144 4.1584539973797972 -1 0 0 I I #
coedge $-1 $171 $245 $173 $264 reversed $101 $-1 #
vertex $-1 $256 $352 #
straight-curve $-1 0 -19.420501137657144 4.1584539973797972 1 0 0 I I #
edge $-1 $176 -4.1584539973797972 $253 4.1584539973797972 $173 $353 forward 7 unknown #
edge $-1 $177 -4.1584539973797972 $252 4.1584539973797972 $174 $354 forward 7 unknown #
point $-1 48.465834528641622 -19.420501137657144 4.1584539973797972 #
point $-1 48.465834528641622 19.420501137657144 4.1584539973797972 #
face $-1 $-1 $282 $25 $-1 $355 reversed single #
loop $-1 $-1 $356 $179 #
plane-surface $-1 0 -22.469466359151038 2.6584539973797972 0 1 0 0 0 1 forward_v I I I I #
coedge $-1 $357 $182 $191 $286 reversed $109 $-1 #
coedge $-1 $182 $357 $183 $274 reversed $109 $-1 #
coedge $-1 $184 $183 $358 $359 forward $69 $-1 #
edge $-1 $278 19.420501137657144 $360 22.469466359151038 $272 $361 forward 7 unknown #
coedge $-1 $362 $188 $184 $276 reversed $282 $-1 #
edge $-1 $363 -22.469466359151038 $277 -19.420501137657144 $275 $364 forward 7 unknown #
vertex $-1 $189 $365 #
vertex $-1 $274 $366 #
straight-curve $-1 0 -19.420501137657144 4.1584539973797972 -1 0 0 I I #
straight-curve $-1 -48.465834528641622 -19.420501137657144 0 0 0 -1 I I #
coedge $-1 $188 $362 $190 $285 reversed $282 $-1 #
loop $-1 $-1 $188 $268 #
straight-curve $-1 48.465834528641622 -19.420501137657144 0 0 0 1 I I #
coedge $-1 $191 $190 $367 $368 forward $180 $-1 #
edge $-1 $192 -1.5244826107469471 $369 1.5244826107469471 $281 $370 forward 7 unknown #
edge $-1 $371 -1.5244826107469471 $193 1.5244826107469471 $271 $372 forward 7 unknown #
point $-1 48.465834528641622 -19.420501137657144 1.1584539973797972 #
point $-1 -48.465834528641622 -19.420501137657144 1.1584539973797972 #
plane-surface $-1 0 0 4.1584539973797972 0 0 1 1 0 0 forward_v I I I I #
coedge $-1 $300 $299 $292 $373 forward $196 $-1 #
coedge $-1 $292 $198 $200 $296 reversed $117 $-1 #
coedge $-1 $198 $291 $290 $373 reversed $117 $-1 #
coedge $-1 $206 $201 $198 $294 forward $207 $-1 #
edge $-1 $297 -12.737144799958561 $374 -9.140114244265515 $293 $375 forward 7 unknown #
coedge $-1 $200 $199 $300 $376 reversed $73 $-1 #
edge $-1 $377 -38.841002275314281 $297 -33.92268356725549 $291 $378 forward 7 unknown #
vertex $-1 $202 $379 #
straight-curve $-1 -5.3411591973789037 15.823470581964102 4.158453997379798 1 0 0 I I #
coedge $-1 $290 $203 $206 $304 reversed $196 $-1 #
coedge $-1 $203 $290 $295 $376 forward $196 $-1 #
vertex $-1 $204 $380 #
straight-curve $-1 -21.364636789515615 19.420501137657144 49.092501535236103 0 0 1 I I #
straight-curve $-1 -21.364636789515615 -8.9860093573065996 27.293668834226906 0 0.7313536940579346 -0.68199836817093118 I I #
edge $-1 $374 0 $208 21.364636789515615 $299 $381 forward 7 unknown #
point $-1 -21.364636789515615 19.420501137657144 4.1584539973797972 #
point $-1 -21.364636789515615 15.823470581964099 4.1584539973798016 #
edge $-1 $382 1 $382 0 $211 $-1 forward 7 unknown #
vertex $-1 $212 $383 #
ellipse-curve $-1 -15.26045484965401 16.52632812190145 1.3063622819459106 0 0.68199836817093118 0.7313536940579346 0.5 0 0 1 I I #
point $-1 -14.76045484965401 17.621985859810628 2.4813113308594748 #
edge $-1 $384 1 $384 0 $215 $-1 forward 7 unknown #
vertex $-1 $216 $385 #
ellipse-curve $-1 -6.1041819398616042 16.52632812190145 1.3063622819459106 0 0.68199836817093118 0.7313536940579346 0.5 0 0 1 I I #
point $-1 -5.6041819398616042 17.621985859810628 2.4813113308594748 #
loop $-1 $-1 $226 $219 #
plane-surface $-1 0 19.420501137657144 0 0 -1 0 0 0 -1 forward_v I I I I #
coedge $-1 $386 $387 $223 $319 forward $220 $-1 #
coedge $-1 $223 $222 $324 $388 reversed $87 $-1 #
edge $-1 $321 21.329589194932538 $389 26.247907902991329 $317 $390 forward 7 unknown #
coedge $-1 $229 $224 $387 $391 forward $139 $-1 #
vertex $-1 $391 $392 #
straight-curve $-1 18.891758066941911 15.823470581964102 4.158453997379798 1 0 0 I I #
coedge $-1 $393 $226 $229 $328 reversed $315 $-1 #
coedge $-1 $226 $393 $318 $388 forward $315 $-1 #
vertex $-1 $227 $394 #
straight-curve $-1 27.101197739126015 19.420501137657144 49.092501535236103 0 0 1 I I #
straight-curve $-1 27.101197739126015 -8.9860093573065996 27.293668834226906 0 0.7313536940579346 -0.68199836817093118 I I #
edge $-1 $395 -48.465834528641622 $230 -27.101197739126015 $323 $396 forward 7 unknown #
point $-1 27.101197739126015 19.420501137657144 4.1584539973797972 #
point $-1 27.101197739126015 15.823470581964099 4.1584539973798016 #
edge $-1 $397 1 $397 0 $233 $-1 forward 7 unknown #
vertex $-1 $234 $398 #
ellipse-curve $-1 33.205379678987612 16.52632812190145 1.3063622819459106 0 0.68199836817093118 0.7313536940579346 0.5 0 0 1 I I #
point $-1 33.705379678987612 17.621985859810628 2.4813113308594748 #
edge $-1 $399 1 $399 0 $237 $-1 forward 7 unknown #
vertex $-1 $238 $400 #
ellipse-curve $-1 42.361652588780018 16.52632812190145 1.3063622819459106 0 0.68199836817093118 0.7313536940579346 0.5 0 0 1 I I #
point $-1 42.861652588780018 17.621985859810628 2.4813113308594748 #
plane-surface $-1 48.465834528641622 0 0 -1 0 0 0 0 1 forward_v I I I I #
coedge $-1 $246 $244 $248 $344 reversed $161 $-1 #
edge $-1 $259 -4.1584539973797972 $346 4.1584539973797972 $258 $401 forward 7 unknown #
vertex $-1 $344 $402 #
straight-curve $-1 -48.465834528641622 -19.420501137657144 0 0 0 -1 I I #
edge $-1 $342 -19.420501137657144 $346 19.420501137657144 $340 $403 forward 7 unknown #
straight-curve $-1 0 -19.420501137657144 -4.1584539973797972 -1 0 0 I I #
vertex $-1 $251 $404 #
straight-curve $-1 0 19.420501137657144 -4.1584539973797972 1 0 0 I I #
point $-1 48.465834528641622 19.420501137657144 -4.1584539973797972 #
point $-1 48.465834528641622 -19.420501137657144 -4.1584539973797972 #
straight-curve $-1 -48.465834528641622 0 4.1584539973797972 0 -1 0 I I #
point $-1 -48.465834528641622 19.420501137657144 4.1584539973797972 #
point $-1 -48.465834528641622 -19.420501137657144 4.1584539973797972 #
straight-curve $-1 48.465834528641622 -19.420501137657144 0 0 0 -1 I I #
straight-curve $-1 48.465834528641622 19.420501137657144 0 0 0 -1 I I #
plane-surface $-1 48.465834528641622 0 0 -1 0 0 0 0 1 forward_v I I I I #
coedge $-1 $367 $358 $357 $405 forward $269 $-1 #
coedge $-1 $272 $271 $356 $405 reversed $109 $-1 #
coedge $-1 $356 $406 $273 $359 reversed $269 $-1 #
edge $-1 $360 -48.465834528641622 $363 48.465834528641622 $358 $407 forward 7 unknown #
vertex $-1 $274 $408 #
straight-curve $-1 -48.465834528641622 0 4.1584539973797972 0 -1 0 I I #
coedge $-1 $281 $275 $406 $409 forward $282 $-1 #
vertex $-1 $276 $410 #
straight-curve $-1 48.465834528641622 0 4.1584539973797972 0 1 0 I I #
point $-1 48.465834528641622 -19.420501137657144 4.1584539973797972 #
point $-1 -48.465834528641622 -19.420501137657144 4.1584539973797972 #
coedge $-1 $406 $356 $284 $368 reversed $269 $-1 #
edge $-1 $369 -48.465834528641622 $371 48.465834528641622 $367 $411 forward 7 unknown #
vertex $-1 $409 $412 #
straight-curve $-1 48.465834528641622 -20.944983748404091 1.1584539973797972 0 -1 0 I I #
vertex $-1 $286 $413 #
straight-curve $-1 -48.465834528641622 -20.944983748404091 1.1584539973797972 0 1 0 I I #
edge $-1 $374 44.934047537856308 $377 48.288332870896966 $290 $414 forward 7 unknown #
vertex $-1 $304 $415 #
straight-curve $-1 0 28.560615381922659 4.1584539973797945 0 1 0 I I #
edge $-1 $377 -5.3411591973789037 $301 16.023477592136711 $300 $416 forward 7 unknown #
vertex $-1 $376 $417 #
straight-curve $-1 0 -8.9860093573065996 27.293668834226906 0 -0.7313536940579346 0.68199836817093118 I I #
point $-1 0 15.823470581964099 4.1584539973798016 #
point $-1 -21.364636789515615 19.420501137657144 0.8041686643391408 #
straight-curve $-1 0 19.420501137657144 4.1584539973797972 -1 0 0 I I #
vertex $-1 $307 $418 #
point $-1 -14.76045484965401 16.52632812190145 1.3063622819459106 #
vertex $-1 $311 $419 #
point $-1 -5.6041819398616042 16.52632812190145 1.3063622819459106 #
coedge $-1 $387 $317 $393 $420 reversed $220 $-1 #
coedge $-1 $317 $386 $320 $391 reversed $220 $-1 #
edge $-1 $389 -29.574076461699718 $325 -8.2094396721841036 $324 $421 forward 7 unknown #
vertex $-1 $319 $422 #
straight-curve $-1 48.465834528641622 0.22399673151197774 18.705199022080116 0 0.7313536940579346 -0.68199836817093118 I I #
edge $-1 $321 15.823470581964099 $395 19.420501137657144 $387 $423 forward 7 unknown #
point $-1 48.465834528641629 15.823470581964099 4.1584539973798016 #
coedge $-1 $324 $323 $386 $420 forward $315 $-1 #
point $-1 27.101197739126015 19.420501137657144 0.8041686643391408 #
vertex $-1 $391 $424 #
straight-curve $-1 0 19.420501137657144 4.1584539973797972 -1 0 0 I I #
vertex $-1 $331 $425 #
point $-1 33.705379678987612 16.52632812190145 1.3063622819459106 #
vertex $-1 $335 $426 #
point $-1 42.861652588780018 16.52632812190145 1.3063622819459106 #
straight-curve $-1 -48.465834528641622 19.420501137657144 0 0 0 -1 I I #
point $-1 -48.465834528641622 -19.420501137657144 -4.1584539973797972 #
straight-curve $-1 -48.465834528641622 0 -4.1584539973797972 0 1 0 I I #
point $-1 -48.465834528641622 19.420501137657144 -4.1584539973797972 #
edge $-1 $360 -1.5 $371 1.5 $357 $427 forward 7 unknown #
coedge $-1 $358 $367 $362 $409 reversed $269 $-1 #
straight-curve $-1 0 -22.469466359151038 4.1584539973797972 1 0 0 I I #
point $-1 -48.465834528641622 -22.469466359151038 4.1584539973797972 #
edge $-1 $363 -1.5 $369 1.5 $362 $428 forward 7 unknown #
point $-1 48.465834528641622 -22.469466359151038 4.1584539973797972 #
straight-curve $-1 0 -22.469466359151038 1.1584539973797972 -1 0 0 I I #
point $-1 48.465834528641622 -22.469466359151038 1.1584539973797972 #
point $-1 -48.465834528641622 -22.469466359151038 1.1584539973797972 #
straight-curve $-1 0 19.420501137657144 49.092501535236103 0 0 -1 I I #
point $-1 0 19.420501137657144 4.1584539973797972 #
straight-curve $-1 -5.3411591973789037 19.420501137657144 0.80416866433914258 -1 0 0 I I #
point $-1 0 19.420501137657144 0.8041686643391408 #
point $-1 -15.26045484965401 16.185328937815981 0.94068543491694323 #
point $-1 -6.1041819398616042 16.185328937815981 0.94068543491694323 #
edge $-1 $395 -4.1584539973797972 $389 -0.8041686643391408 $386 $429 forward 7 unknown #
straight-curve $-1 18.891758066941911 19.420501137657144 0.80416866433914258 -1 0 0 I I #
point $-1 48.465834528641629 19.420501137657144 0.8041686643391408 #
straight-curve $-1 48.465834528641622 0 4.1584539973797972 0 1 0 I I #
point $-1 48.465834528641622 19.420501137657144 4.1584539973797972 #
point $-1 33.205379678987612 16.185328937815981 0.94068543491694323 #
point $-1 42.361652588780018 16.185328937815981 0.94068543491694323 #
straight-curve $-1 -48.465834528641622 -22.469466359151038 2.6584539973797972 0 0 -1 I I #
straight-curve $-1 48.465834528641622 -22.469466359151038 2.6584539973797972 0 0 -1 I I #
straight-curve $-1 48.465834528641622 19.420501137657144 0 0 0 -1 I I #
End-of-ACIS-data 