500 0 5 0           
7 Unknown 11 ACIS 5.0 NT 24 Thu Mar 25 20:50:28 1999 
-1 9.9999999999999995e-007 1e-010 
body $-1 $5 $-1 $6 #
body $-1 $7 $-1 $8 #
body $-1 $9 $-1 $10 #
body $-1 $11 $-1 $12 #
body $-1 $13 $-1 $14 #
lump $-1 $-1 $15 $0 #
transform $-1 1 0 0 0 1 0 0 0 1 77.613452558977031 38.318311291309527 10.180483131736938 1 rotate no_reflect no_shear #
lump $-1 $-1 $16 $1 #
transform $-1 1 0 0 0 1 0 0 0 1 77.613452558977031 38.318311291309527 10.180483131736938 1 rotate no_reflect no_shear #
lump $-1 $-1 $17 $2 #
transform $-1 1 0 0 0 1 0 0 0 1 77.613452558977031 38.318311291309527 10.180483131736938 1 rotate no_reflect no_shear #
lump $-1 $-1 $18 $3 #
transform $-1 1 0 0 0 1 0 0 0 1 77.613452558977031 38.318311291309527 10.180483131736938 1 rotate no_reflect no_shear #
lump $-1 $-1 $19 $4 #
transform $-1 1 0 0 0 1 0 0 0 1 77.613452558977031 38.318311291309527 10.180483131736938 1 rotate no_reflect no_shear #
shell $-1 $-1 $-1 $20 $-1 $5 #
shell $-1 $-1 $-1 $21 $-1 $7 #
shell $-1 $-1 $-1 $22 $-1 $9 #
shell $-1 $-1 $-1 $23 $-1 $11 #
shell $-1 $-1 $-1 $24 $-1 $13 #
face $-1 $25 $26 $15 $-1 $27 forward single #
face $-1 $28 $29 $16 $-1 $30 forward single #
face $-1 $31 $32 $17 $-1 $33 forward single #
face $-1 $34 $35 $18 $-1 $36 reversed single #
face $-1 $37 $38 $19 $-1 $39 reversed single #
face $-1 $40 $41 $15 $-1 $42 reversed single #
loop $-1 $-1 $43 $20 #
plane-surface $-1 0 0 10.180483131736938 0 0 1 1 0 0 forward_v I I I I #
face $-1 $44 $45 $16 $-1 $46 forward single #
loop $-1 $-1 $47 $21 #
plane-surface $-1 -72.163331986293102 0 6.2692910802160888 0 0 1 1 0 0 forward_v I I I I #
face $-1 $48 $49 $17 $-1 $50 forward single #
loop $-1 $-1 $51 $22 #
plane-surface $-1 -32.148543399009853 -30.463449231536067 116.32648572369999 0.70710678939079041 0 0.70710677298230451 0.70710677298230451 0 -0.70710678939079041 forward_v I I I I #
face $-1 $52 $53 $18 $-1 $54 reversed single #
loop $-1 $55 $56 $23 #
cone-surface $-1 74.634823568907422 -33.829818685724696 7.2018541268771408 -0.70710678939079041 0 -0.70710677298230451 0.70710677298230451 0 -0.70710678939079041 1 I I 0 1 1 forward I I I I #
face $-1 $57 $58 $19 $-1 $59 reversed single #
loop $-1 $60 $61 $24 #
cone-surface $-1 74.634823568907422 -27.097079777347442 7.2018541268771408 -0.70710678939079041 0 -0.70710677298230451 0.70710677298230451 0 -0.70710678939079041 1 I I 0 1 1 forward I I I I #
face $-1 $62 $63 $15 $-1 $64 reversed single #
loop $-1 $-1 $65 $25 #
plane-surface $-1 0 0 -10.180483131736938 0 0 1 1 0 0 forward_v I I I I #
coedge $-1 $66 $67 $68 $69 forward $26 $-1 #
face $-1 $70 $71 $16 $-1 $72 forward single #
loop $-1 $-1 $73 $28 #
plane-surface $-1 -66.713211413609173 0 8.2248871059765136 -1 0 0 0 0 1 forward_v I I I I #
coedge $-1 $74 $75 $76 $77 reversed $29 $-1 #
face $-1 $78 $79 $17 $-1 $80 reversed single #
loop $-1 $-1 $81 $31 #
plane-surface $-1 77.613455106015493 -22.608587171762608 226.08848168168686 0 -1 0 -0.70710678939079041 0 -0.70710677298230451 forward_v I I I I #
coedge $-1 $82 $83 $84 $85 reversed $32 $-1 #
face $-1 $86 $87 $18 $-1 $88 forward single #
loop $-1 $89 $90 $34 #
cone-surface $-1 73.110639098718764 -33.829818685724696 5.6776696920573464 -0.70710678939079041 0 -0.70710677298230451 0.35355338649115226 0 -0.35355339469539521 1 I I -0.70710678118654746 0.70710678118654746 0.5 forward I I I I #
loop $-1 $-1 $91 $23 #
coedge $-1 $56 $56 $92 $93 reversed $35 $-1 #
face $-1 $94 $95 $19 $-1 $96 reversed single #
loop $-1 $97 $98 $37 #
cone-surface $-1 73.110639098718764 -27.097079777347442 5.6776696920573464 -0.70710678939079041 0 -0.70710677298230451 0.35355338649115226 0 -0.35355339469539521 1 I I -0.70710678118654746 0.70710678118654746 0.5 forward I I I I #
loop $-1 $-1 $99 $24 #
coedge $-1 $61 $61 $100 $101 reversed $38 $-1 #
face $-1 $102 $103 $15 $-1 $104 reversed single #
loop $-1 $-1 $105 $40 #
plane-surface $-1 0 -38.318311291309527 0 0 1 0 0 0 1 forward_v I I I I #
coedge $-1 $106 $107 $108 $109 forward $41 $-1 #
coedge $-1 $110 $43 $111 $112 forward $26 $-1 #
coedge $-1 $43 $110 $113 $114 forward $26 $-1 #
coedge $-1 $115 $116 $43 $69 reversed $117 $-1 #
edge $-1 $118 -38.318311291309527 $119 38.318311291309527 $68 $120 forward 7 unknown #
face $-1 $121 $122 $16 $-1 $123 reversed single #
loop $-1 $-1 $124 $44 #
plane-surface $-1 0 0 10.180483131736938 0 0 1 1 0 0 forward_v I I I I #
coedge $-1 $125 $76 $126 $127 reversed $45 $-1 #
coedge $-1 $128 $47 $129 $130 reversed $29 $-1 #
coedge $-1 $47 $128 $131 $132 reversed $29 $-1 #
coedge $-1 $73 $133 $47 $77 forward $45 $-1 #
edge $-1 $134 -38.318311291309527 $135 38.318311291309527 $76 $136 forward 7 unknown #
face $-1 $137 $138 $17 $-1 $139 reversed single #
loop $-1 $-1 $140 $48 #
plane-surface $-1 77.613452558977031 0 0 -1 0 0 0 0 1 forward_v I I I I #
coedge $-1 $141 $142 $140 $143 reversed $49 $-1 #
coedge $-1 $144 $51 $142 $145 reversed $32 $-1 #
coedge $-1 $51 $144 $146 $147 reversed $32 $-1 #
coedge $-1 $148 $140 $51 $85 forward $79 $-1 #
edge $-1 $149 7.376862555994574 $150 23.086586675541493 $84 $151 forward 7 unknown #
face $-1 $152 $153 $18 $-1 $154 forward single #
loop $-1 $155 $92 $52 #
plane-surface $-1 -32.148543399009853 -30.463449231536067 116.32648572369999 0.70710678939079041 0 0.70710677298230451 0.70710677298230451 0 -0.70710678939079041 forward_v I I I I #
loop $-1 $-1 $156 $34 #
coedge $-1 $90 $90 $91 $157 forward $53 $-1 #
coedge $-1 $91 $91 $90 $157 reversed $55 $-1 #
coedge $-1 $92 $92 $56 $93 forward $87 $-1 #
edge $-1 $158 0 $158 6.2831853071796004 $92 $159 forward 7 unknown #
face $-1 $160 $161 $19 $-1 $162 reversed single #
loop $-1 $163 $164 $57 #
cone-surface $-1 74.634823568907422 -33.829818685724696 7.2018541268771408 -0.70710678939079041 0 -0.70710677298230451 0.70710677298230451 0 -0.70710678939079041 1 I I 0 1 1 forward I I I I #
loop $-1 $-1 $165 $37 #
coedge $-1 $98 $98 $99 $166 forward $58 $-1 #
coedge $-1 $99 $99 $98 $166 reversed $60 $-1 #
coedge $-1 $100 $100 $61 $101 forward $167 $-1 #
edge $-1 $168 0 $168 6.2831853071796004 $100 $169 forward 7 unknown #
face $-1 $170 $171 $15 $-1 $172 reversed single #
loop $-1 $-1 $173 $62 #
plane-surface $-1 -77.613452558977031 0 0 1 0 0 0 0 -1 forward_v I I I I #
coedge $-1 $174 $113 $175 $176 forward $63 $-1 #
coedge $-1 $177 $65 $174 $178 forward $41 $-1 #
coedge $-1 $65 $177 $179 $180 forward $41 $-1 #
coedge $-1 $116 $115 $65 $109 reversed $117 $-1 #
edge $-1 $181 -38.318311291309527 $182 38.318311291309527 $108 $183 forward 7 unknown #
coedge $-1 $67 $66 $184 $185 forward $26 $-1 #
coedge $-1 $186 $187 $66 $112 reversed $171 $-1 #
edge $-1 $119 -77.613452558977031 $188 77.613452558977031 $111 $189 forward 7 unknown #
coedge $-1 $105 $190 $67 $114 reversed $63 $-1 #
edge $-1 $191 -77.613452558977031 $118 77.613452558977031 $113 $192 forward 7 unknown #
coedge $-1 $108 $68 $190 $193 forward $117 $-1 #
coedge $-1 $68 $108 $186 $194 reversed $117 $-1 #
loop $-1 $-1 $115 $170 #
vertex $-1 $69 $195 #
vertex $-1 $69 $196 #
straight-curve $-1 77.613452558977031 0 10.180483131736938 0 1 0 I I #
face $-1 $197 $198 $16 $-1 $199 reversed single #
loop $-1 $-1 $126 $70 #
plane-surface $-1 0 -38.318311291309527 0 0 1 0 0 0 1 forward_v I I I I #
coedge $-1 $200 $201 $125 $202 forward $71 $-1 #
coedge $-1 $133 $73 $124 $202 reversed $45 $-1 #
coedge $-1 $131 $203 $73 $127 forward $122 $-1 #
edge $-1 $204 -6.0680395787486816 $135 -2.156847527227832 $126 $205 forward 7 unknown #
coedge $-1 $75 $74 $206 $207 reversed $29 $-1 #
coedge $-1 $208 $209 $74 $130 forward $210 $-1 #
edge $-1 $211 -41.53178656583048 $134 -30.631545420462622 $129 $212 forward 7 unknown #
coedge $-1 $213 $126 $75 $132 forward $122 $-1 #
edge $-1 $135 30.631545420462622 $214 41.53178656583048 $131 $215 forward 7 unknown #
coedge $-1 $76 $125 $208 $216 reversed $45 $-1 #
vertex $-1 $130 $217 #
vertex $-1 $132 $218 #
straight-curve $-1 -66.713211413609173 0 6.2692910802160888 0 -1 0 I I #
face $-1 $219 $220 $17 $-1 $221 forward single #
loop $-1 $-1 $146 $78 #
plane-surface $-1 0 -38.318311291309527 0 0 1 0 0 0 1 forward_v I I I I #
coedge $-1 $84 $222 $81 $143 forward $79 $-1 #
coedge $-1 $142 $81 $223 $224 reversed $49 $-1 #
coedge $-1 $81 $141 $82 $145 forward $49 $-1 #
edge $-1 $225 102.86375770910649 $149 106.4797536221688 $140 $226 forward 7 unknown #
coedge $-1 $83 $82 $227 $228 reversed $32 $-1 #
edge $-1 $229 150.11311471554873 $149 155.22690511795415 $142 $230 forward 7 unknown #
coedge $-1 $231 $232 $83 $147 forward $138 $-1 #
edge $-1 $150 -102.73305480787681 $233 -97.619264405471426 $146 $234 forward 7 unknown #
coedge $-1 $235 $84 $232 $236 forward $79 $-1 #
vertex $-1 $85 $237 #
vertex $-1 $236 $238 #
straight-curve $-1 77.613452558977031 -15.231724615768034 6.5644872186746142 0 -1 0 I I #
face $-1 $239 $240 $18 $-1 $241 reversed single #
loop $-1 $-1 $242 $86 #
plane-surface $-1 77.613455106015493 -22.608587171762608 226.08848168168686 0 -1 0 -0.70710678939079041 0 -0.70710677298230451 forward_v I I I I #
loop $-1 $-1 $243 $52 #
coedge $-1 $156 $156 $-1 $244 forward $89 $-1 #
edge $-1 $245 0 $245 6.2831853071796004 $90 $246 forward 7 unknown #
vertex $-1 $93 $247 #
ellipse-curve $-1 75.805454644400669 -33.829818685724696 8.3724851752057692 -0.70710678939079041 0 -0.70710677298230451 0.70710677298230451 0 -0.70710678939079041 1 I I #
face $-1 $248 $167 $19 $-1 $249 forward single #
loop $-1 $250 $251 $94 #
cone-surface $-1 73.110639098718764 -33.829818685724696 5.6776696920573464 -0.70710678939079041 0 -0.70710677298230451 0.35355338649115226 0 -0.35355339469539521 1 I I -0.70710678118654746 0.70710678118654746 0.5 forward I I I I #
loop $-1 $-1 $252 $57 #
coedge $-1 $164 $164 $253 $254 reversed $95 $-1 #
coedge $-1 $165 $165 $-1 $255 forward $97 $-1 #
edge $-1 $256 0 $256 6.2831853071796004 $98 $257 forward 7 unknown #
loop $-1 $258 $100 $160 #
vertex $-1 $101 $259 #
ellipse-curve $-1 75.805454644400669 -27.097079777347442 8.3724851752057692 -0.70710678939079041 0 -0.70710677298230451 0.70710677298230451 0 -0.70710678939079041 1 I I #
face $-1 $-1 $117 $15 $-1 $260 reversed single #
loop $-1 $-1 $186 $102 #
plane-surface $-1 0 38.318311291309527 0 0 -1 0 0 0 -1 forward_v I I I I #
coedge $-1 $261 $184 $187 $262 forward $103 $-1 #
coedge $-1 $190 $105 $106 $178 reversed $63 $-1 #
coedge $-1 $184 $261 $105 $176 reversed $103 $-1 #
edge $-1 $191 -10.180483131736938 $263 10.180483131736938 $175 $264 forward 7 unknown #
coedge $-1 $107 $106 $261 $265 forward $41 $-1 #
edge $-1 $182 -77.613452558977031 $263 77.613452558977031 $174 $266 forward 7 unknown #
coedge $-1 $187 $186 $107 $180 reversed $171 $-1 #
edge $-1 $267 -77.613452558977031 $181 77.613452558977031 $179 $268 forward 7 unknown #
vertex $-1 $109 $269 #
vertex $-1 $193 $270 #
straight-curve $-1 77.613452558977031 0 -10.180483131736938 0 -1 0 I I #
coedge $-1 $173 $175 $110 $185 reversed $103 $-1 #
edge $-1 $188 -38.318311291309527 $191 38.318311291309527 $184 $271 forward 7 unknown #
coedge $-1 $179 $111 $116 $194 forward $171 $-1 #
coedge $-1 $111 $179 $173 $262 reversed $171 $-1 #
vertex $-1 $112 $272 #
straight-curve $-1 0 38.318311291309527 10.180483131736938 -1 0 0 I I #
coedge $-1 $113 $174 $115 $193 reversed $63 $-1 #
vertex $-1 $185 $273 #
straight-curve $-1 0 -38.318311291309527 10.180483131736938 1 0 0 I I #
edge $-1 $118 -10.180483131736938 $182 10.180483131736938 $115 $274 forward 7 unknown #
edge $-1 $119 -10.180483131736938 $181 10.180483131736938 $116 $275 forward 7 unknown #
point $-1 77.613452558977031 -38.318311291309527 10.180483131736938 #
point $-1 77.613452558977031 38.318311291309527 10.180483131736938 #
face $-1 $276 $277 $16 $-1 $278 reversed single #
loop $-1 $-1 $279 $121 #
plane-surface $-1 0 0 -10.180483131736938 0 0 1 1 0 0 forward_v I I I I #
coedge $-1 $280 $124 $203 $281 forward $71 $-1 #
coedge $-1 $124 $280 $282 $283 forward $71 $-1 #
edge $-1 $284 -38.318311291309527 $204 38.318311291309527 $124 $285 forward 7 unknown #
coedge $-1 $126 $286 $200 $281 reversed $122 $-1 #
vertex $-1 $281 $287 #
straight-curve $-1 -66.713211413609173 -38.318311291309527 4.1124435529882568 0 0 -1 I I #
coedge $-1 $288 $289 $128 $207 forward $277 $-1 #
edge $-1 $214 -38.318311291309527 $211 38.318311291309527 $206 $290 forward 7 unknown #
coedge $-1 $282 $129 $133 $216 forward $210 $-1 #
coedge $-1 $129 $291 $288 $292 reversed $210 $-1 #
loop $-1 $-1 $208 $276 #
vertex $-1 $292 $293 #
straight-curve $-1 -36.081665993146551 38.318311291309527 6.2692910802160888 1 0 0 I I #
coedge $-1 $294 $131 $289 $295 forward $122 $-1 #
vertex $-1 $295 $296 #
straight-curve $-1 -36.081665993146551 -38.318311291309527 6.2692910802160888 -1 0 0 I I #
edge $-1 $134 2.156847527227832 $284 6.0680395787486816 $208 $297 forward 7 unknown #
point $-1 -66.713211413609173 38.318311291309527 6.2692910802160888 #
point $-1 -66.713211413609173 -38.318311291309527 6.2692910802160888 #
face $-1 $298 $299 $17 $-1 $300 forward single #
loop $-1 $-1 $301 $137 #
plane-surface $-1 -72.163331986293102 0 6.2692910802160888 0 0 1 1 0 0 forward_v I I I I #
coedge $-1 $140 $302 $303 $304 reversed $79 $-1 #
coedge $-1 $303 $227 $141 $224 forward $305 $-1 #
edge $-1 $229 35.190729176816532 $225 38.806725005969284 $223 $306 forward 7 unknown #
vertex $-1 $304 $307 #
straight-curve $-1 77.613452558977031 -22.608587171762608 113.04424084084343 0 0 -1 I I #
coedge $-1 $223 $308 $144 $228 forward $305 $-1 #
edge $-1 $233 -23.086586675541493 $229 -7.376862555994574 $227 $309 forward 7 unknown #
vertex $-1 $228 $310 #
straight-curve $-1 -32.148543399009853 -22.608587171762608 116.32648572369999 0.70710677298230451 0 -0.70710678939079041 I I #
coedge $-1 $311 $146 $308 $312 reversed $138 $-1 #
coedge $-1 $146 $313 $148 $236 reversed $138 $-1 #
vertex $-1 $228 $314 #
straight-curve $-1 4.9702136951650289 -38.318311291309527 79.20772776818049 -0.70710677298230462 0 0.70710678939079052 I I #
coedge $-1 $302 $148 $315 $316 reversed $79 $-1 #
edge $-1 $150 -6.5644872186746221 $317 10.180483131736938 $148 $318 forward 7 unknown #
point $-1 77.613452558977031 -22.608587171762608 6.5644872186746284 #
point $-1 77.613452558977031 -38.318311291309527 6.5644872186746221 #
face $-1 $319 $320 $18 $-1 $321 reversed single #
loop $-1 $-1 $322 $152 #
plane-surface $-1 77.613452558977031 0 0 -1 0 0 0 0 1 forward_v I I I I #
coedge $-1 $323 $324 $322 $325 reversed $153 $-1 #
coedge $-1 $326 $327 $328 $329 reversed $155 $-1 #
edge $-1 $330 1 $330 0 $156 $-1 forward 7 unknown #
vertex $-1 $157 $331 #
ellipse-curve $-1 73.46419249341416 -33.829818685724696 6.031223078548499 0.70710678939079041 0 0.70710677298230451 0.70710677298230451 0 -0.70710678939079041 1 I I #
point $-1 76.512561417382969 -33.829818685724696 7.6653783858149911 #
face $-1 $332 $333 $19 $-1 $334 forward single #
plane-surface $-1 -32.148543399009853 -30.463449231536067 116.32648572369999 0.70710678939079041 0 0.70710677298230451 0.70710677298230451 0 -0.70710678939079041 forward_v I I I I #
loop $-1 $-1 $335 $94 #
coedge $-1 $251 $251 $252 $336 forward $161 $-1 #
coedge $-1 $252 $252 $251 $336 reversed $163 $-1 #
coedge $-1 $253 $253 $164 $254 forward $258 $-1 #
edge $-1 $337 0 $337 6.2831853071796004 $253 $338 forward 7 unknown #
edge $-1 $339 1 $339 0 $165 $-1 forward 7 unknown #
vertex $-1 $166 $340 #
ellipse-curve $-1 73.46419249341416 -27.097079777347442 6.031223078548499 0.70710678939079041 0 0.70710677298230451 0.70710677298230451 0 -0.70710678939079041 1 I I #
loop $-1 $341 $253 $160 #
point $-1 76.512561417382969 -27.097079777347442 7.6653783858149911 #
plane-surface $-1 77.613452558977031 0 0 -1 0 0 0 0 1 forward_v I I I I #
coedge $-1 $175 $173 $177 $265 reversed $103 $-1 #
edge $-1 $188 -10.180483131736938 $267 10.180483131736938 $187 $342 forward 7 unknown #
vertex $-1 $265 $343 #
straight-curve $-1 -77.613452558977031 -38.318311291309527 0 0 0 -1 I I #
edge $-1 $263 -38.318311291309527 $267 38.318311291309527 $261 $344 forward 7 unknown #
straight-curve $-1 0 -38.318311291309527 -10.180483131736938 -1 0 0 I I #
vertex $-1 $180 $345 #
straight-curve $-1 0 38.318311291309527 -10.180483131736938 1 0 0 I I #
point $-1 77.613452558977031 38.318311291309527 -10.180483131736938 #
point $-1 77.613452558977031 -38.318311291309527 -10.180483131736938 #
straight-curve $-1 -77.613452558977031 0 10.180483131736938 0 -1 0 I I #
point $-1 -77.613452558977031 38.318311291309527 10.180483131736938 #
point $-1 -77.613452558977031 -38.318311291309527 10.180483131736938 #
straight-curve $-1 77.613452558977031 -38.318311291309527 0 0 0 -1 I I #
straight-curve $-1 77.613452558977031 38.318311291309527 0 0 0 -1 I I #
face $-1 $346 $210 $16 $-1 $347 reversed single #
loop $-1 $-1 $206 $197 #
plane-surface $-1 -77.613452558977031 0 0 1 0 0 0 0 -1 forward_v I I I I #
coedge $-1 $348 $349 $350 $351 forward $198 $-1 #
coedge $-1 $201 $200 $352 $353 forward $71 $-1 #
edge $-1 $204 -66.713211413609173 $354 77.613452558977031 $203 $355 forward 7 unknown #
coedge $-1 $356 $208 $201 $283 reversed $210 $-1 #
edge $-1 $357 -77.613452558977031 $284 66.713211413609173 $282 $358 forward 7 unknown #
vertex $-1 $202 $359 #
straight-curve $-1 -66.713211413609173 0 10.180483131736938 0 -1 0 I I #
coedge $-1 $203 $294 $360 $361 reversed $122 $-1 #
point $-1 -66.713211413609173 -38.318311291309527 10.180483131736938 #
coedge $-1 $362 $206 $209 $292 forward $277 $-1 #
coedge $-1 $206 $362 $213 $295 reversed $277 $-1 #
straight-curve $-1 -77.613452558977031 0 6.2692910802160888 0 1 0 I I #
coedge $-1 $209 $356 $349 $363 reversed $210 $-1 #
edge $-1 $211 -6.2692910802160888 $364 10.180483131736938 $209 $365 forward 7 unknown #
point $-1 -77.613452558977031 38.318311291309527 6.2692910802160888 #
coedge $-1 $286 $213 $348 $366 reversed $122 $-1 #
edge $-1 $214 -6.2692910802160888 $367 10.180483131736938 $289 $368 forward 7 unknown #
point $-1 -77.613452558977031 -38.318311291309527 6.2692910802160888 #
straight-curve $-1 -66.713211413609173 38.318311291309527 4.1124435529882568 0 0 1 I I #
face $-1 $369 $305 $17 $-1 $370 forward single #
loop $-1 $-1 $371 $219 #
plane-surface $-1 -66.713211413609173 0 8.2248871059765136 -1 0 0 0 0 1 forward_v I I I I #
coedge $-1 $372 $373 $374 $375 reversed $220 $-1 #
coedge $-1 $222 $235 $376 $377 reversed $79 $-1 #
coedge $-1 $378 $223 $222 $304 forward $305 $-1 #
edge $-1 $225 -22.608587171762608 $379 38.318311291309527 $222 $380 forward 7 unknown #
loop $-1 $-1 $223 $298 #
straight-curve $-1 38.806727553007747 -22.608587171762608 10.180483131736935 1 0 0 I I #
point $-1 77.613452558977031 -22.608587171762608 10.180483131736938 #
coedge $-1 $227 $381 $231 $312 forward $305 $-1 #
straight-curve $-1 73.997456729824279 -15.231724615768034 10.180483131736921 0 1 0 I I #
point $-1 73.997456729824279 -22.608587171762608 10.180483131736935 #
coedge $-1 $382 $231 $371 $383 forward $138 $-1 #
edge $-1 $384 -66.713211413609173 $233 73.997456729824279 $231 $385 forward 7 unknown #
coedge $-1 $232 $386 $387 $388 reversed $138 $-1 #
point $-1 73.997456729824279 -38.318311291309527 10.180483131736935 #
coedge $-1 $387 $389 $235 $316 forward $390 $-1 #
edge $-1 $391 -38.318311291309527 $317 38.318311291309527 $235 $392 forward 7 unknown #
vertex $-1 $236 $393 #
straight-curve $-1 77.613452558977031 -38.318311291309527 0 0 0 -1 I I #
face $-1 $394 $395 $18 $-1 $396 forward single #
loop $-1 $-1 $397 $239 #
plane-surface $-1 0 -38.318311291309527 0 0 1 0 0 0 1 forward_v I I I I #
coedge $-1 $328 $398 $242 $325 forward $240 $-1 #
coedge $-1 $324 $242 $399 $400 reversed $153 $-1 #
coedge $-1 $242 $323 $326 $401 forward $153 $-1 #
edge $-1 $402 102.86375770910649 $403 106.4797536221688 $322 $404 forward 7 unknown #
coedge $-1 $405 $243 $324 $401 reversed $155 $-1 #
coedge $-1 $243 $405 $397 $406 reversed $155 $-1 #
coedge $-1 $407 $322 $243 $329 forward $240 $-1 #
edge $-1 $403 7.376862555994574 $408 23.086586675541493 $328 $409 forward 7 unknown #
vertex $-1 $244 $410 #
point $-1 74.17129926639646 -33.829818685724696 5.3241162891577085 #
face $-1 $411 $412 $19 $-1 $413 reversed single #
loop $-1 $-1 $414 $248 #
plane-surface $-1 77.613455106015493 -22.608587171762608 226.08848168168686 0 -1 0 -0.70710678939079041 0 -0.70710677298230451 forward_v I I I I #
coedge $-1 $335 $335 $-1 $415 forward $250 $-1 #
edge $-1 $416 0 $416 6.2831853071796004 $251 $417 forward 7 unknown #
vertex $-1 $254 $418 #
ellipse-curve $-1 75.805454644400669 -33.829818685724696 8.3724851752057692 -0.70710678939079041 0 -0.70710677298230451 0.70710677298230451 0 -0.70710678939079041 1 I I #
vertex $-1 $255 $419 #
point $-1 74.17129926639646 -27.097079777347442 5.3241162891577085 #
loop $-1 $-1 $420 $160 #
straight-curve $-1 -77.613452558977031 38.318311291309527 0 0 0 -1 I I #
point $-1 -77.613452558977031 -38.318311291309527 -10.180483131736938 #
straight-curve $-1 -77.613452558977031 0 -10.180483131736938 0 1 0 I I #
point $-1 -77.613452558977031 38.318311291309527 -10.180483131736938 #
face $-1 $-1 $421 $16 $-1 $422 reversed single #
plane-surface $-1 0 38.318311291309527 0 0 -1 0 0 0 -1 forward_v I I I I #
coedge $-1 $423 $279 $294 $366 forward $198 $-1 #
coedge $-1 $279 $423 $291 $363 forward $198 $-1 #
coedge $-1 $424 $360 $279 $351 reversed $421 $-1 #
edge $-1 $425 -38.318311291309527 $426 38.318311291309527 $350 $427 forward 7 unknown #
coedge $-1 $360 $424 $280 $353 reversed $421 $-1 #
edge $-1 $354 -38.318311291309527 $357 38.318311291309527 $352 $428 forward 7 unknown #
vertex $-1 $353 $429 #
straight-curve $-1 0 -38.318311291309527 10.180483131736938 1 0 0 I I #
coedge $-1 $291 $282 $424 $430 forward $210 $-1 #
vertex $-1 $353 $431 #
straight-curve $-1 0 38.318311291309527 10.180483131736938 -1 0 0 I I #
point $-1 -66.713211413609173 38.318311291309527 10.180483131736938 #
coedge $-1 $350 $352 $286 $361 forward $421 $-1 #
edge $-1 $354 -10.180483131736938 $426 10.180483131736938 $360 $432 forward 7 unknown #
coedge $-1 $289 $288 $423 $433 reversed $277 $-1 #
edge $-1 $364 -77.613452558977031 $425 77.613452558977031 $291 $434 forward 7 unknown #
vertex $-1 $363 $435 #
straight-curve $-1 -77.613452558977031 38.318311291309527 0 0 0 -1 I I #
edge $-1 $426 -77.613452558977031 $367 77.613452558977031 $294 $436 forward 7 unknown #
vertex $-1 $433 $437 #
straight-curve $-1 -77.613452558977031 -38.318311291309527 0 0 0 -1 I I #
face $-1 $438 $390 $17 $-1 $439 reversed single #
plane-surface $-1 0 0 10.180483131736938 0 0 1 1 0 0 forward_v I I I I #
coedge $-1 $440 $374 $311 $383 reversed $299 $-1 #
coedge $-1 $441 $301 $442 $443 reversed $220 $-1 #
coedge $-1 $301 $441 $382 $444 reversed $220 $-1 #
coedge $-1 $371 $445 $301 $375 forward $299 $-1 #
edge $-1 $446 -38.318311291309527 $447 38.318311291309527 $374 $448 forward 7 unknown #
coedge $-1 $449 $450 $302 $377 forward $451 $-1 #
edge $-1 $379 -10.180483131736938 $391 10.180483131736938 $302 $452 forward 7 unknown #
coedge $-1 $381 $303 $450 $453 forward $305 $-1 #
vertex $-1 $304 $454 #
straight-curve $-1 77.613452558977031 0 10.180483131736938 0 1 0 I I #
coedge $-1 $308 $378 $440 $455 forward $305 $-1 #
coedge $-1 $386 $311 $373 $444 forward $138 $-1 #
edge $-1 $384 -6.0680395787486816 $447 -2.156847527227832 $311 $456 forward 7 unknown #
vertex $-1 $312 $457 #
straight-curve $-1 0 -38.318311291309527 10.180483131736938 1 0 0 I I #
coedge $-1 $313 $382 $458 $459 forward $138 $-1 #
coedge $-1 $460 $315 $313 $388 forward $390 $-1 #
edge $-1 $317 -77.613452558977031 $461 77.613452558977031 $313 $462 forward 7 unknown #
coedge $-1 $315 $460 $449 $463 forward $390 $-1 #
loop $-1 $-1 $315 $369 #
vertex $-1 $316 $464 #
straight-curve $-1 77.613452558977031 0 -10.180483131736938 0 -1 0 I I #
point $-1 77.613452558977031 -38.318311291309527 -10.180483131736938 #
face $-1 $465 $466 $18 $-1 $467 forward single #
loop $-1 $-1 $468 $319 #
plane-surface $-1 -72.163331986293102 0 6.2692910802160888 0 0 1 1 0 0 forward_v I I I I #
coedge $-1 $469 $470 $327 $406 forward $320 $-1 #
coedge $-1 $322 $471 $472 $473 reversed $240 $-1 #
coedge $-1 $472 $474 $323 $400 forward $475 $-1 #
edge $-1 $476 35.190729176816532 $402 38.806725005969284 $399 $477 forward 7 unknown #
edge $-1 $476 150.11311471554873 $403 155.22690511795415 $324 $478 forward 7 unknown #
vertex $-1 $473 $479 #
vertex $-1 $329 $480 #
straight-curve $-1 77.613452558977031 -22.608587171762608 113.04424084084343 0 0 -1 I I #
coedge $-1 $327 $326 $474 $481 reversed $155 $-1 #
edge $-1 $408 -102.73305480787681 $482 -97.619264405471426 $397 $483 forward 7 unknown #
coedge $-1 $484 $328 $470 $485 forward $240 $-1 #
vertex $-1 $485 $486 #
straight-curve $-1 77.613452558977031 -15.231724615768034 6.5644872186746142 0 -1 0 I I #
point $-1 72.757085704023368 -33.829818685724696 5.3241163055661938 #
face $-1 $487 $488 $19 $-1 $489 reversed single #
loop $-1 $-1 $490 $332 #
plane-surface $-1 77.613452558977031 0 0 -1 0 0 0 0 1 forward_v I I I I #
coedge $-1 $491 $492 $490 $493 reversed $333 $-1 #
edge $-1 $494 1 $494 0 $335 $-1 forward 7 unknown #
vertex $-1 $336 $495 #
ellipse-curve $-1 73.46419249341416 -33.829818685724696 6.031223078548499 0.70710678939079041 0 0.70710677298230451 0.70710677298230451 0 -0.70710678939079041 1 I I #
point $-1 76.512561417382969 -33.829818685724696 7.6653783858149911 #
point $-1 72.757085704023368 -27.097079777347442 5.3241163055661938 #
coedge $-1 $496 $497 $498 $499 reversed $341 $-1 #
loop $-1 $-1 $360 $346 #
plane-surface $-1 77.613452558977031 0 0 -1 0 0 0 0 1 forward_v I I I I #
coedge $-1 $349 $348 $362 $433 forward $198 $-1 #
coedge $-1 $352 $350 $356 $430 reversed $421 $-1 #
vertex $-1 $351 $500 #
vertex $-1 $361 $501 #
straight-curve $-1 77.613452558977031 0 -10.180483131736938 0 -1 0 I I #
straight-curve $-1 77.613452558977031 0 10.180483131736938 0 1 0 I I #
point $-1 77.613452558977031 -38.318311291309527 10.180483131736938 #
edge $-1 $357 -10.180483131736938 $425 10.180483131736938 $424 $502 forward 7 unknown #
point $-1 77.613452558977031 38.318311291309527 10.180483131736938 #
straight-curve $-1 77.613452558977031 -38.318311291309527 0 0 0 -1 I I #
edge $-1 $367 -38.318311291309527 $364 38.318311291309527 $362 $503 forward 7 unknown #
straight-curve $-1 0 38.318311291309527 -10.180483131736938 1 0 0 I I #
point $-1 -77.613452558977031 38.318311291309527 -10.180483131736938 #
straight-curve $-1 0 -38.318311291309527 -10.180483131736938 -1 0 0 I I #
point $-1 -77.613452558977031 -38.318311291309527 -10.180483131736938 #
face $-1 $504 $505 $17 $-1 $506 reversed single #
plane-surface $-1 0 0 -10.180483131736938 0 0 1 1 0 0 forward_v I I I I #
coedge $-1 $445 $371 $381 $455 reversed $299 $-1 #
coedge $-1 $373 $372 $507 $508 reversed $220 $-1 #
coedge $-1 $509 $510 $372 $443 forward $451 $-1 #
edge $-1 $511 -41.53178656583048 $446 -30.631545420462622 $442 $512 forward 7 unknown #
edge $-1 $447 30.631545420462622 $513 41.53178656583048 $382 $514 forward 7 unknown #
coedge $-1 $374 $440 $509 $515 reversed $299 $-1 #
vertex $-1 $443 $516 #
vertex $-1 $444 $517 #
straight-curve $-1 -66.713211413609173 0 6.2692910802160888 0 -1 0 I I #
coedge $-1 $510 $376 $389 $463 reversed $451 $-1 #
coedge $-1 $376 $509 $378 $453 reversed $451 $-1 #
loop $-1 $-1 $509 $504 #
straight-curve $-1 77.613452558977031 38.318311291309527 0 0 0 -1 I I #
edge $-1 $379 -77.613452558977031 $518 66.713211413609173 $450 $519 forward 7 unknown #
point $-1 77.613452558977031 38.318311291309527 10.180483131736938 #
edge $-1 $518 -38.318311291309527 $384 38.318311291309527 $381 $520 forward 7 unknown #
straight-curve $-1 -66.713211413609173 -38.318311291309527 4.1124435529882568 0 0 -1 I I #
point $-1 -66.713211413609173 -38.318311291309527 10.180483131736938 #
coedge $-1 $507 $521 $386 $459 reversed $505 $-1 #
edge $-1 $513 -6.2692910802160888 $461 10.180483131736938 $458 $522 forward 7 unknown #
coedge $-1 $389 $387 $521 $523 forward $390 $-1 #
vertex $-1 $523 $524 #
straight-curve $-1 0 -38.318311291309527 -10.180483131736938 -1 0 0 I I #
edge $-1 $525 -77.613452558977031 $391 77.613452558977031 $449 $526 forward 7 unknown #
point $-1 77.613452558977031 38.318311291309527 -10.180483131736938 #
face $-1 $527 $475 $18 $-1 $528 forward single #
loop $-1 $-1 $529 $394 #
plane-surface $-1 -66.713211413609173 0 8.2248871059765136 -1 0 0 0 0 1 forward_v I I I I #
coedge $-1 $530 $531 $532 $533 reversed $395 $-1 #
coedge $-1 $534 $397 $535 $536 reversed $320 $-1 #
coedge $-1 $397 $537 $407 $485 reversed $320 $-1 #
coedge $-1 $398 $484 $538 $539 reversed $240 $-1 #
coedge $-1 $540 $399 $398 $473 forward $475 $-1 #
edge $-1 $402 -22.608587171762608 $541 38.318311291309527 $398 $542 forward 7 unknown #
coedge $-1 $399 $535 $405 $481 forward $475 $-1 #
loop $-1 $-1 $399 $465 #
vertex $-1 $481 $543 #
straight-curve $-1 38.806727553007747 -22.608587171762608 10.180483131736935 1 0 0 I I #
straight-curve $-1 -32.148543399009853 -22.608587171762608 116.32648572369999 0.70710677298230451 0 -0.70710678939079041 I I #
point $-1 77.613452558977031 -22.608587171762608 10.180483131736938 #
point $-1 77.613452558977031 -22.608587171762608 6.5644872186746284 #
edge $-1 $482 -23.086586675541493 $476 -7.376862555994574 $474 $544 forward 7 unknown #
vertex $-1 $481 $545 #
straight-curve $-1 4.9702136951650289 -38.318311291309527 79.20772776818049 -0.70710677298230462 0 0.70710678939079052 I I #
coedge $-1 $471 $407 $546 $547 reversed $240 $-1 #
edge $-1 $408 -6.5644872186746221 $548 10.180483131736938 $407 $549 forward 7 unknown #
point $-1 77.613452558977031 -38.318311291309527 6.5644872186746221 #
face $-1 $550 $551 $19 $-1 $552 forward single #
loop $-1 $-1 $553 $411 #
plane-surface $-1 0 -38.318311291309527 0 0 1 0 0 0 1 forward_v I I I I #
coedge $-1 $498 $554 $414 $493 forward $412 $-1 #
coedge $-1 $492 $414 $555 $556 reversed $333 $-1 #
coedge $-1 $414 $491 $496 $557 forward $333 $-1 #
edge $-1 $558 102.86375770910649 $559 106.4797536221688 $490 $560 forward 7 unknown #
vertex $-1 $415 $561 #
point $-1 74.17129926639646 -33.829818685724696 5.3241162891577085 #
coedge $-1 $562 $420 $492 $557 reversed $341 $-1 #
coedge $-1 $420 $562 $553 $563 reversed $341 $-1 #
coedge $-1 $564 $490 $420 $499 forward $412 $-1 #
edge $-1 $559 7.376862555994574 $565 23.086586675541493 $498 $566 forward 7 unknown #
point $-1 77.613452558977031 38.318311291309527 -10.180483131736938 #
point $-1 77.613452558977031 -38.318311291309527 -10.180483131736938 #
straight-curve $-1 77.613452558977031 38.318311291309527 0 0 0 -1 I I #
straight-curve $-1 -77.613452558977031 0 -10.180483131736938 0 1 0 I I #
face $-1 $-1 $451 $17 $-1 $567 reversed single #
loop $-1 $-1 $507 $438 #
plane-surface $-1 -77.613452558977031 0 0 1 0 0 0 0 -1 forward_v I I I I #
coedge $-1 $568 $458 $441 $508 forward $505 $-1 #
edge $-1 $513 -38.318311291309527 $511 38.318311291309527 $507 $569 forward 7 unknown #
coedge $-1 $450 $442 $445 $515 forward $451 $-1 #
coedge $-1 $442 $449 $568 $570 reversed $451 $-1 #
vertex $-1 $570 $571 #
straight-curve $-1 -36.081665993146551 38.318311291309527 6.2692910802160888 1 0 0 I I #
vertex $-1 $459 $572 #
straight-curve $-1 -36.081665993146551 -38.318311291309527 6.2692910802160888 -1 0 0 I I #
edge $-1 $446 2.156847527227832 $518 6.0680395787486816 $509 $573 forward 7 unknown #
point $-1 -66.713211413609173 38.318311291309527 6.2692910802160888 #
point $-1 -66.713211413609173 -38.318311291309527 6.2692910802160888 #
vertex $-1 $455 $574 #
straight-curve $-1 0 38.318311291309527 10.180483131736938 -1 0 0 I I #
straight-curve $-1 -66.713211413609173 0 10.180483131736938 0 -1 0 I I #
coedge $-1 $458 $568 $460 $523 reversed $505 $-1 #
straight-curve $-1 -77.613452558977031 -38.318311291309527 0 0 0 -1 I I #
edge $-1 $461 -38.318311291309527 $525 38.318311291309527 $521 $575 forward 7 unknown #
point $-1 -77.613452558977031 -38.318311291309527 -10.180483131736938 #
vertex $-1 $463 $576 #
straight-curve $-1 0 38.318311291309527 -10.180483131736938 1 0 0 I I #
face $-1 $577 $578 $18 $-1 $579 reversed single #
plane-surface $-1 0 0 10.180483131736938 0 0 1 1 0 0 forward_v I I I I #
coedge $-1 $580 $532 $534 $581 reversed $466 $-1 #
coedge $-1 $582 $468 $583 $584 reversed $395 $-1 #
coedge $-1 $468 $582 $585 $586 reversed $395 $-1 #
coedge $-1 $529 $587 $468 $533 forward $466 $-1 #
edge $-1 $588 -38.318311291309527 $589 38.318311291309527 $532 $590 forward 7 unknown #
coedge $-1 $585 $469 $529 $581 forward $320 $-1 #
coedge $-1 $474 $591 $469 $536 forward $475 $-1 #
edge $-1 $592 -66.713211413609173 $482 73.997456729824279 $469 $593 forward 7 unknown #
coedge $-1 $470 $594 $595 $596 reversed $320 $-1 #
coedge $-1 $597 $598 $471 $539 forward $599 $-1 #
edge $-1 $541 -10.180483131736938 $600 10.180483131736938 $471 $601 forward 7 unknown #
coedge $-1 $591 $472 $598 $602 forward $475 $-1 #
vertex $-1 $473 $603 #
straight-curve $-1 77.613452558977031 0 10.180483131736938 0 1 0 I I #
point $-1 73.997456729824279 -22.608587171762608 10.180483131736935 #
straight-curve $-1 73.997456729824279 -15.231724615768034 10.180483131736921 0 1 0 I I #
point $-1 73.997456729824279 -38.318311291309527 10.180483131736935 #
coedge $-1 $595 $604 $484 $547 forward $578 $-1 #
edge $-1 $600 -38.318311291309527 $548 38.318311291309527 $484 $605 forward 7 unknown #
vertex $-1 $485 $606 #
straight-curve $-1 77.613452558977031 -38.318311291309527 0 0 0 -1 I I #
face $-1 $607 $608 $19 $-1 $609 forward single #
loop $-1 $-1 $610 $487 #
plane-surface $-1 -72.163331986293102 0 6.2692910802160888 0 0 1 1 0 0 forward_v I I I I #
coedge $-1 $611 $612 $497 $563 forward $488 $-1 #
coedge $-1 $490 $613 $614 $615 reversed $412 $-1 #
coedge $-1 $614 $616 $491 $556 forward $617 $-1 #
edge $-1 $618 35.190729176816532 $558 38.806725005969284 $555 $619 forward 7 unknown #
edge $-1 $618 150.11311471554873 $559 155.22690511795415 $492 $620 forward 7 unknown #
vertex $-1 $615 $621 #
vertex $-1 $499 $622 #
straight-curve $-1 77.613452558977031 -22.608587171762608 113.04424084084343 0 0 -1 I I #
point $-1 72.757085704023368 -33.829818685724696 5.3241163055661938 #
coedge $-1 $497 $496 $616 $623 reversed $341 $-1 #
edge $-1 $565 -102.73305480787681 $624 -97.619264405471426 $553 $625 forward 7 unknown #
coedge $-1 $626 $498 $612 $627 forward $412 $-1 #
vertex $-1 $627 $628 #
straight-curve $-1 77.613452558977031 -15.231724615768034 6.5644872186746142 0 -1 0 I I #
plane-surface $-1 0 38.318311291309527 0 0 -1 0 0 0 -1 forward_v I I I I #
coedge $-1 $521 $507 $510 $570 forward $505 $-1 #
straight-curve $-1 -77.613452558977031 0 6.2692910802160888 0 1 0 I I #
edge $-1 $511 -6.2692910802160888 $525 10.180483131736938 $510 $629 forward 7 unknown #
point $-1 -77.613452558977031 38.318311291309527 6.2692910802160888 #
point $-1 -77.613452558977031 -38.318311291309527 6.2692910802160888 #
straight-curve $-1 -66.713211413609173 38.318311291309527 4.1124435529882568 0 0 1 I I #
point $-1 -66.713211413609173 38.318311291309527 10.180483131736938 #
straight-curve $-1 -77.613452558977031 0 -10.180483131736938 0 1 0 I I #
point $-1 -77.613452558977031 38.318311291309527 -10.180483131736938 #
face $-1 $630 $631 $18 $-1 $632 reversed single #
loop $-1 $-1 $546 $527 #
plane-surface $-1 0 0 -10.180483131736938 0 0 1 1 0 0 forward_v I I I I #
coedge $-1 $587 $529 $591 $633 reversed $466 $-1 #
edge $-1 $592 -6.0680395787486816 $589 -2.156847527227832 $534 $634 forward 7 unknown #
coedge $-1 $531 $530 $635 $636 reversed $395 $-1 #
coedge $-1 $637 $638 $530 $584 forward $599 $-1 #
edge $-1 $639 -41.53178656583048 $588 -30.631545420462622 $583 $640 forward 7 unknown #
coedge $-1 $594 $534 $531 $586 forward $320 $-1 #
edge $-1 $589 30.631545420462622 $641 41.53178656583048 $585 $642 forward 7 unknown #
coedge $-1 $532 $580 $637 $643 reversed $466 $-1 #
vertex $-1 $584 $644 #
vertex $-1 $586 $645 #
straight-curve $-1 -66.713211413609173 0 6.2692910802160888 0 -1 0 I I #
coedge $-1 $535 $540 $580 $633 forward $475 $-1 #
vertex $-1 $536 $646 #
straight-curve $-1 0 -38.318311291309527 10.180483131736938 1 0 0 I I #
coedge $-1 $537 $585 $647 $648 forward $320 $-1 #
coedge $-1 $649 $546 $537 $596 forward $578 $-1 #
edge $-1 $548 -77.613452558977031 $650 77.613452558977031 $537 $651 forward 7 unknown #
coedge $-1 $638 $538 $604 $652 reversed $599 $-1 #
coedge $-1 $538 $637 $540 $602 reversed $599 $-1 #
loop $-1 $-1 $637 $630 #
vertex $-1 $547 $653 #
straight-curve $-1 77.613452558977031 38.318311291309527 0 0 0 -1 I I #
edge $-1 $541 -77.613452558977031 $654 66.713211413609173 $598 $655 forward 7 unknown #
point $-1 77.613452558977031 38.318311291309527 10.180483131736938 #
coedge $-1 $546 $649 $597 $652 forward $578 $-1 #
straight-curve $-1 77.613452558977031 0 -10.180483131736938 0 -1 0 I I #
point $-1 77.613452558977031 -38.318311291309527 -10.180483131736938 #
face $-1 $656 $617 $19 $-1 $657 forward single #
loop $-1 $-1 $658 $550 #
plane-surface $-1 -66.713211413609173 0 8.2248871059765136 -1 0 0 0 0 1 forward_v I I I I #
coedge $-1 $659 $660 $661 $662 reversed $551 $-1 #
coedge $-1 $663 $553 $664 $665 reversed $488 $-1 #
coedge $-1 $553 $666 $564 $627 reversed $488 $-1 #
coedge $-1 $554 $626 $667 $668 reversed $412 $-1 #
coedge $-1 $669 $555 $554 $615 forward $617 $-1 #
edge $-1 $558 -22.608587171762608 $670 38.318311291309527 $554 $671 forward 7 unknown #
coedge $-1 $555 $664 $562 $623 forward $617 $-1 #
loop $-1 $-1 $555 $607 #
vertex $-1 $623 $672 #
straight-curve $-1 38.806727553007747 -22.608587171762608 10.180483131736935 1 0 0 I I #
straight-curve $-1 -32.148543399009853 -22.608587171762608 116.32648572369999 0.70710677298230451 0 -0.70710678939079041 I I #
point $-1 77.613452558977031 -22.608587171762608 10.180483131736938 #
point $-1 77.613452558977031 -22.608587171762608 6.5644872186746284 #
edge $-1 $624 -23.086586675541493 $618 -7.376862555994574 $616 $673 forward 7 unknown #
vertex $-1 $623 $674 #
straight-curve $-1 4.9702136951650289 -38.318311291309527 79.20772776818049 -0.70710677298230462 0 0.70710678939079052 I I #
coedge $-1 $613 $564 $675 $676 reversed $412 $-1 #
edge $-1 $565 -6.5644872186746221 $677 10.180483131736938 $564 $678 forward 7 unknown #
point $-1 77.613452558977031 -38.318311291309527 6.5644872186746221 #
straight-curve $-1 -77.613452558977031 38.318311291309527 0 0 0 -1 I I #
face $-1 $-1 $599 $18 $-1 $679 reversed single #
loop $-1 $-1 $635 $577 #
plane-surface $-1 -77.613452558977031 0 0 1 0 0 0 0 -1 forward_v I I I I #
edge $-1 $654 -38.318311291309527 $592 38.318311291309527 $591 $680 forward 7 unknown #
straight-curve $-1 -66.713211413609173 -38.318311291309527 4.1124435529882568 0 0 -1 I I #
coedge $-1 $681 $647 $582 $636 forward $631 $-1 #
edge $-1 $641 -38.318311291309527 $639 38.318311291309527 $635 $682 forward 7 unknown #
coedge $-1 $598 $583 $587 $643 forward $599 $-1 #
coedge $-1 $583 $597 $681 $683 reversed $599 $-1 #
vertex $-1 $683 $684 #
straight-curve $-1 -36.081665993146551 38.318311291309527 6.2692910802160888 1 0 0 I I #
vertex $-1 $648 $685 #
straight-curve $-1 -36.081665993146551 -38.318311291309527 6.2692910802160888 -1 0 0 I I #
edge $-1 $588 2.156847527227832 $654 6.0680395787486816 $637 $686 forward 7 unknown #
point $-1 -66.713211413609173 38.318311291309527 6.2692910802160888 #
point $-1 -66.713211413609173 -38.318311291309527 6.2692910802160888 #
point $-1 -66.713211413609173 -38.318311291309527 10.180483131736938 #
coedge $-1 $635 $687 $594 $648 reversed $631 $-1 #
edge $-1 $641 -6.2692910802160888 $650 10.180483131736938 $647 $688 forward 7 unknown #
coedge $-1 $604 $595 $687 $689 forward $578 $-1 #
vertex $-1 $689 $690 #
straight-curve $-1 0 -38.318311291309527 -10.180483131736938 -1 0 0 I I #
edge $-1 $691 -77.613452558977031 $600 77.613452558977031 $597 $692 forward 7 unknown #
point $-1 77.613452558977031 38.318311291309527 -10.180483131736938 #
vertex $-1 $633 $693 #
straight-curve $-1 0 38.318311291309527 10.180483131736938 -1 0 0 I I #
face $-1 $694 $695 $19 $-1 $696 reversed single #
plane-surface $-1 0 0 10.180483131736938 0 0 1 1 0 0 forward_v I I I I #
coedge $-1 $697 $661 $663 $698 reversed $608 $-1 #
coedge $-1 $699 $610 $700 $701 reversed $551 $-1 #
coedge $-1 $610 $699 $702 $703 reversed $551 $-1 #
coedge $-1 $658 $704 $610 $662 forward $608 $-1 #
edge $-1 $705 -38.318311291309527 $706 38.318311291309527 $661 $707 forward 7 unknown #
coedge $-1 $702 $611 $658 $698 forward $488 $-1 #
coedge $-1 $616 $708 $611 $665 forward $617 $-1 #
edge $-1 $709 -66.713211413609173 $624 73.997456729824279 $611 $710 forward 7 unknown #
coedge $-1 $612 $711 $712 $713 reversed $488 $-1 #
coedge $-1 $714 $715 $613 $668 forward $716 $-1 #
edge $-1 $670 -10.180483131736938 $717 10.180483131736938 $613 $718 forward 7 unknown #
coedge $-1 $708 $614 $715 $719 forward $617 $-1 #
vertex $-1 $615 $720 #
straight-curve $-1 77.613452558977031 0 10.180483131736938 0 1 0 I I #
point $-1 73.997456729824279 -22.608587171762608 10.180483131736935 #
straight-curve $-1 73.997456729824279 -15.231724615768034 10.180483131736921 0 1 0 I I #
point $-1 73.997456729824279 -38.318311291309527 10.180483131736935 #
coedge $-1 $712 $721 $626 $676 forward $695 $-1 #
edge $-1 $717 -38.318311291309527 $677 38.318311291309527 $626 $722 forward 7 unknown #
vertex $-1 $627 $723 #
straight-curve $-1 77.613452558977031 -38.318311291309527 0 0 0 -1 I I #
plane-surface $-1 0 38.318311291309527 0 0 -1 0 0 0 -1 forward_v I I I I #
straight-curve $-1 -66.713211413609173 0 10.180483131736938 0 -1 0 I I #
coedge $-1 $687 $635 $638 $683 forward $631 $-1 #
straight-curve $-1 -77.613452558977031 0 6.2692910802160888 0 1 0 I I #
edge $-1 $639 -6.2692910802160888 $691 10.180483131736938 $638 $724 forward 7 unknown #
point $-1 -77.613452558977031 38.318311291309527 6.2692910802160888 #
point $-1 -77.613452558977031 -38.318311291309527 6.2692910802160888 #
straight-curve $-1 -66.713211413609173 38.318311291309527 4.1124435529882568 0 0 1 I I #
coedge $-1 $647 $681 $649 $689 reversed $631 $-1 #
straight-curve $-1 -77.613452558977031 -38.318311291309527 0 0 0 -1 I I #
edge $-1 $650 -38.318311291309527 $691 38.318311291309527 $687 $725 forward 7 unknown #
point $-1 -77.613452558977031 -38.318311291309527 -10.180483131736938 #
vertex $-1 $652 $726 #
straight-curve $-1 0 38.318311291309527 -10.180483131736938 1 0 0 I I #
point $-1 -66.713211413609173 38.318311291309527 10.180483131736938 #
face $-1 $727 $728 $19 $-1 $729 reversed single #
loop $-1 $-1 $675 $656 #
plane-surface $-1 0 0 -10.180483131736938 0 0 1 1 0 0 forward_v I I I I #
coedge $-1 $704 $658 $708 $730 reversed $608 $-1 #
edge $-1 $709 -6.0680395787486816 $706 -2.156847527227832 $663 $731 forward 7 unknown #
coedge $-1 $660 $659 $732 $733 reversed $551 $-1 #
coedge $-1 $734 $735 $659 $701 forward $716 $-1 #
edge $-1 $736 -41.53178656583048 $705 -30.631545420462622 $700 $737 forward 7 unknown #
coedge $-1 $711 $663 $660 $703 forward $488 $-1 #
edge $-1 $706 30.631545420462622 $738 41.53178656583048 $702 $739 forward 7 unknown #
coedge $-1 $661 $697 $734 $740 reversed $608 $-1 #
vertex $-1 $701 $741 #
vertex $-1 $703 $742 #
straight-curve $-1 -66.713211413609173 0 6.2692910802160888 0 -1 0 I I #
coedge $-1 $664 $669 $697 $730 forward $617 $-1 #
vertex $-1 $665 $743 #
straight-curve $-1 0 -38.318311291309527 10.180483131736938 1 0 0 I I #
coedge $-1 $666 $702 $744 $745 forward $488 $-1 #
coedge $-1 $746 $675 $666 $713 forward $695 $-1 #
edge $-1 $677 -77.613452558977031 $747 77.613452558977031 $666 $748 forward 7 unknown #
coedge $-1 $735 $667 $721 $749 reversed $716 $-1 #
coedge $-1 $667 $734 $669 $719 reversed $716 $-1 #
loop $-1 $-1 $734 $727 #
vertex $-1 $676 $750 #
straight-curve $-1 77.613452558977031 38.318311291309527 0 0 0 -1 I I #
edge $-1 $670 -77.613452558977031 $751 66.713211413609173 $715 $752 forward 7 unknown #
point $-1 77.613452558977031 38.318311291309527 10.180483131736938 #
coedge $-1 $675 $746 $714 $749 forward $695 $-1 #
straight-curve $-1 77.613452558977031 0 -10.180483131736938 0 -1 0 I I #
point $-1 77.613452558977031 -38.318311291309527 -10.180483131736938 #
straight-curve $-1 -77.613452558977031 38.318311291309527 0 0 0 -1 I I #
straight-curve $-1 -77.613452558977031 0 -10.180483131736938 0 1 0 I I #
point $-1 -77.613452558977031 38.318311291309527 -10.180483131736938 #
face $-1 $-1 $716 $19 $-1 $753 reversed single #
loop $-1 $-1 $732 $694 #
plane-surface $-1 -77.613452558977031 0 0 1 0 0 0 0 -1 forward_v I I I I #
edge $-1 $751 -38.318311291309527 $709 38.318311291309527 $708 $754 forward 7 unknown #
straight-curve $-1 -66.713211413609173 -38.318311291309527 4.1124435529882568 0 0 -1 I I #
coedge $-1 $755 $744 $699 $733 forward $728 $-1 #
edge $-1 $738 -38.318311291309527 $736 38.318311291309527 $732 $756 forward 7 unknown #
coedge $-1 $715 $700 $704 $740 forward $716 $-1 #
coedge $-1 $700 $714 $755 $757 reversed $716 $-1 #
vertex $-1 $757 $758 #
straight-curve $-1 -36.081665993146551 38.318311291309527 6.2692910802160888 1 0 0 I I #
vertex $-1 $745 $759 #
straight-curve $-1 -36.081665993146551 -38.318311291309527 6.2692910802160888 -1 0 0 I I #
edge $-1 $705 2.156847527227832 $751 6.0680395787486816 $734 $760 forward 7 unknown #
point $-1 -66.713211413609173 38.318311291309527 6.2692910802160888 #
point $-1 -66.713211413609173 -38.318311291309527 6.2692910802160888 #
point $-1 -66.713211413609173 -38.318311291309527 10.180483131736938 #
coedge $-1 $732 $761 $711 $745 reversed $728 $-1 #
edge $-1 $738 -6.2692910802160888 $747 10.180483131736938 $744 $762 forward 7 unknown #
coedge $-1 $721 $712 $761 $763 forward $695 $-1 #
vertex $-1 $763 $764 #
straight-curve $-1 0 -38.318311291309527 -10.180483131736938 -1 0 0 I I #
edge $-1 $765 -77.613452558977031 $717 77.613452558977031 $714 $766 forward 7 unknown #
point $-1 77.613452558977031 38.318311291309527 -10.180483131736938 #
vertex $-1 $730 $767 #
straight-curve $-1 0 38.318311291309527 10.180483131736938 -1 0 0 I I #
plane-surface $-1 0 38.318311291309527 0 0 -1 0 0 0 -1 forward_v I I I I #
straight-curve $-1 -66.713211413609173 0 10.180483131736938 0 -1 0 I I #
coedge $-1 $761 $732 $735 $757 forward $728 $-1 #
straight-curve $-1 -77.613452558977031 0 6.2692910802160888 0 1 0 I I #
edge $-1 $736 -6.2692910802160888 $765 10.180483131736938 $735 $768 forward 7 unknown #
point $-1 -77.613452558977031 38.318311291309527 6.2692910802160888 #
point $-1 -77.613452558977031 -38.318311291309527 6.2692910802160888 #
straight-curve $-1 -66.713211413609173 38.318311291309527 4.1124435529882568 0 0 1 I I #
coedge $-1 $744 $755 $746 $763 reversed $728 $-1 #
straight-curve $-1 -77.613452558977031 -38.318311291309527 0 0 0 -1 I I #
edge $-1 $747 -38.318311291309527 $765 38.318311291309527 $761 $769 forward 7 unknown #
point $-1 -77.613452558977031 -38.318311291309527 -10.180483131736938 #
vertex $-1 $749 $770 #
straight-curve $-1 0 38.318311291309527 -10.180483131736938 1 0 0 I I #
point $-1 -66.713211413609173 38.318311291309527 10.180483131736938 #
straight-curve $-1 -77.613452558977031 38.318311291309527 0 0 0 -1 I I #
straight-curve $-1 -77.613452558977031 0 -10.180483131736938 0 1 0 I I #
point $-1 -77.613452558977031 38.318311291309527 -10.180483131736938 #
End-of-ACIS-data 