500 0 8 0           
7 Unknown 11 ACIS 5.0 NT 24 Thu Mar 25 17:29:12 1999 
-1 9.9999999999999995e-007 1e-010 
body $-1 $8 $-1 $9 #
body $-1 $10 $-1 $11 #
body $-1 $12 $-1 $13 #
body $-1 $14 $-1 $15 #
body $-1 $16 $-1 $17 #
body $-1 $18 $-1 $19 #
body $-1 $20 $-1 $21 #
body $-1 $22 $-1 $23 #
lump $-1 $-1 $24 $0 #
transform $-1 1 0 0 0 1 0 0 0 1 69.081698049867242 40.034369353573382 12.504646748955274 1 rotate no_reflect no_shear #
lump $-1 $-1 $25 $1 #
transform $-1 1 0 0 0 1 0 0 0 1 69.081698049867242 40.034369353573382 12.504646748955274 1 rotate no_reflect no_shear #
lump $-1 $-1 $26 $2 #
transform $-1 1 0 0 0 1 0 0 0 1 69.081698049867242 40.034369353573382 12.504646748955274 1 rotate no_reflect no_shear #
lump $-1 $-1 $27 $3 #
transform $-1 1 0 0 0 1 0 0 0 1 69.081698049867242 40.034369353573382 12.504646748955274 1 rotate no_reflect no_shear #
lump $-1 $-1 $28 $4 #
transform $-1 1 0 0 0 1 0 0 0 1 69.081698049867242 40.034369353573382 12.504646748955274 1 rotate no_reflect no_shear #
lump $-1 $-1 $29 $5 #
transform $-1 1 0 0 0 1 0 0 0 1 69.081698049867242 40.034369353573382 12.504646748955274 1 rotate no_reflect no_shear #
lump $-1 $-1 $30 $6 #
transform $-1 1 0 0 0 1 0 0 0 1 69.081698049867242 40.034369353573382 12.504646748955274 1 rotate no_reflect no_shear #
lump $-1 $-1 $31 $7 #
transform $-1 1 0 0 0 1 0 0 0 1 69.081698049867242 40.034369353573382 12.504646748955274 1 rotate no_reflect no_shear #
shell $-1 $-1 $-1 $32 $-1 $8 #
shell $-1 $-1 $-1 $33 $-1 $10 #
shell $-1 $-1 $-1 $34 $-1 $12 #
shell $-1 $-1 $-1 $35 $-1 $14 #
shell $-1 $-1 $-1 $36 $-1 $16 #
shell $-1 $-1 $-1 $37 $-1 $18 #
shell $-1 $-1 $-1 $38 $-1 $20 #
shell $-1 $-1 $-1 $39 $-1 $22 #
face $-1 $40 $41 $24 $-1 $42 forward single #
face $-1 $43 $44 $25 $-1 $45 forward single #
face $-1 $46 $47 $26 $-1 $48 reversed single #
face $-1 $49 $50 $27 $-1 $51 forward single #
face $-1 $52 $53 $28 $-1 $54 forward single #
face $-1 $55 $56 $29 $-1 $57 reversed single #
face $-1 $58 $59 $30 $-1 $60 forward single #
face $-1 $61 $62 $31 $-1 $63 forward single #
face $-1 $64 $65 $24 $-1 $66 reversed single #
loop $-1 $-1 $67 $32 #
plane-surface $-1 0 0 12.504646748955274 0 0 1 1 0 0 forward_v I I I I #
face $-1 $68 $69 $25 $-1 $70 reversed single #
loop $-1 $-1 $71 $33 #
plane-surface $-1 0 -40.034369353573382 0 0 1 0 0 0 1 forward_v I I I I #
face $-1 $72 $73 $26 $-1 $74 reversed single #
loop $-1 $-1 $75 $34 #
plane-surface $-1 55.451804925011572 -16.309076418056002 196.63610334419943 0 -1 0 -0.6560590369687036 0 -0.75470957328743171 forward_v I I I I #
face $-1 $76 $77 $27 $-1 $78 forward single #
loop $-1 $79 $80 $35 #
cone-surface $-1 61.807966200187138 -23.851199740646933 5.8808468687510498 -0.6560590369687036 0 -0.75470957328743171 1.1320643599311475 0 -0.9840885554530554 1 I I 0 1 1.5 forward I I I I #
face $-1 $81 $82 $28 $-1 $83 forward single #
loop $-1 $84 $85 $36 #
cone-surface $-1 61.807966200187138 -19.325925747092374 5.8808468687510498 -0.6560590369687036 0 -0.75470957328743171 1.1320643599311475 0 -0.9840885554530554 1 I I 0 1 1.5 forward I I I I #
face $-1 $86 $87 $29 $-1 $88 reversed single #
loop $-1 $-1 $89 $37 #
plane-surface $-1 -159.72504263938458 -26.868049069683309 105.99275875468209 0 1 0 -0.6560590369687036 0 0.75470957328743171 forward_v I I I I #
face $-1 $90 $91 $30 $-1 $92 forward single #
loop $-1 $93 $94 $38 #
cone-surface $-1 -61.807966200187153 -23.851199740646933 5.8808468687510569 0.6560590369687036 0 -0.75470957328743171 1.1320643599311475 0 0.9840885554530554 1 I I 0 1 1.5 forward I I I I #
face $-1 $95 $96 $31 $-1 $97 forward single #
loop $-1 $98 $99 $39 #
cone-surface $-1 -61.807966200187153 -19.325925747092374 5.8808468687510569 0.6560590369687036 0 -0.75470957328743171 1.1320643599311475 0 0.9840885554530554 1 I I 0 1 1.5 forward I I I I #
face $-1 $100 $101 $24 $-1 $102 reversed single #
loop $-1 $-1 $103 $40 #
plane-surface $-1 0 0 -12.504646748955274 0 0 1 1 0 0 forward_v I I I I #
coedge $-1 $104 $105 $106 $107 forward $41 $-1 #
face $-1 $108 $109 $25 $-1 $110 forward single #
loop $-1 $-1 $111 $43 #
plane-surface $-1 -69.081698049867242 0 0 1 0 0 0 0 -1 forward_v I I I I #
coedge $-1 $112 $113 $114 $115 forward $44 $-1 #
face $-1 $116 $117 $26 $-1 $118 reversed single #
loop $-1 $-1 $119 $46 #
plane-surface $-1 -35.191539664505768 -21.588562743869655 92.362865629826402 0.6560590369687036 0 0.75470957328743171 0.75470957328743171 0 -0.6560590369687036 forward_v I I I I #
coedge $-1 $120 $121 $122 $123 reversed $47 $-1 #
face $-1 $-1 $124 $27 $-1 $125 forward single #
loop $-1 $126 $127 $49 #
cone-surface $-1 60.245623881902787 -23.851199740646933 4.0835776629043679 -0.6560590369687036 0 -0.75470957328743171 0.56603217996557376 0 -0.4920442777265277 1 I I -0.70710678118654757 0.70710678118654757 0.75 forward I I I I #
loop $-1 $-1 $128 $35 #
coedge $-1 $80 $80 $129 $130 reversed $50 $-1 #
face $-1 $-1 $131 $28 $-1 $132 forward single #
loop $-1 $133 $134 $52 #
cone-surface $-1 60.245623881902787 -19.325925747092374 4.0835776629043679 -0.6560590369687036 0 -0.75470957328743171 0.56603217996557376 0 -0.4920442777265277 1 I I -0.70710678118654757 0.70710678118654757 0.75 forward I I I I #
loop $-1 $-1 $135 $36 #
coedge $-1 $85 $85 $136 $137 reversed $53 $-1 #
face $-1 $138 $139 $29 $-1 $140 reversed single #
loop $-1 $-1 $141 $55 #
plane-surface $-1 -69.081698049867242 -21.588562743869655 1.7195210403090613 -0.6560590369687036 0 0.75470957328743171 0.75470957328743171 0 0.6560590369687036 forward_v I I I I #
coedge $-1 $142 $143 $144 $145 reversed $56 $-1 #
face $-1 $-1 $146 $30 $-1 $147 forward single #
loop $-1 $148 $149 $58 #
cone-surface $-1 -60.245623881902802 -23.851199740646933 4.083577662904375 0.6560590369687036 0 -0.75470957328743171 0.56603217996557376 0 0.4920442777265277 1 I I -0.70710678118654757 0.70710678118654757 0.75 forward I I I I #
loop $-1 $-1 $150 $38 #
coedge $-1 $94 $94 $151 $152 reversed $59 $-1 #
face $-1 $-1 $153 $31 $-1 $154 forward single #
loop $-1 $155 $156 $61 #
cone-surface $-1 -60.245623881902802 -19.325925747092374 4.083577662904375 0.6560590369687036 0 -0.75470957328743171 0.56603217996557376 0 0.4920442777265277 1 I I -0.70710678118654757 0.70710678118654757 0.75 forward I I I I #
loop $-1 $-1 $157 $39 #
coedge $-1 $99 $99 $158 $159 reversed $62 $-1 #
face $-1 $160 $161 $24 $-1 $162 reversed single #
loop $-1 $-1 $163 $64 #
plane-surface $-1 0 -40.034369353573382 0 0 1 0 0 0 1 forward_v I I I I #
coedge $-1 $164 $165 $166 $167 forward $65 $-1 #
coedge $-1 $168 $67 $169 $170 forward $41 $-1 #
coedge $-1 $67 $168 $171 $172 forward $41 $-1 #
coedge $-1 $173 $174 $67 $107 reversed $175 $-1 #
edge $-1 $176 -40.034369353573382 $177 40.034369353573382 $106 $178 forward 7 unknown #
face $-1 $179 $180 $25 $-1 $181 reversed single #
loop $-1 $-1 $182 $68 #
plane-surface $-1 0 -46.617529495518419 -4.7630247744123624 0 0 1 1 0 0 forward_v I I I I #
coedge $-1 $183 $184 $113 $185 forward $69 $-1 #
coedge $-1 $186 $71 $187 $188 reversed $44 $-1 #
coedge $-1 $71 $186 $111 $185 reversed $44 $-1 #
coedge $-1 $189 $182 $71 $115 reversed $109 $-1 #
edge $-1 $190 -69.081698049867242 $191 69.081698049867242 $114 $192 forward 7 unknown #
face $-1 $193 $194 $26 $-1 $195 reversed single #
loop $-1 $-1 $196 $72 #
plane-surface $-1 55.451804925011572 -26.868049069683309 196.63610334419943 0 1 0 0.6560590369687036 0 0.75470957328743171 forward_v I I I I #
coedge $-1 $197 $198 $199 $200 reversed $73 $-1 #
coedge $-1 $121 $75 $201 $202 reversed $47 $-1 #
coedge $-1 $75 $120 $197 $203 reversed $47 $-1 #
coedge $-1 $199 $204 $75 $123 forward $205 $-1 #
edge $-1 $206 -41.355795587361456 $207 -28.948927969116951 $122 $208 forward 7 unknown #
loop $-1 $-1 $129 $76 #
plane-surface $-1 -35.191539664505768 -21.588562743869655 92.362865629826402 0.6560590369687036 0 0.75470957328743171 0.75470957328743171 0 -0.6560590369687036 forward_v I I I I #
loop $-1 $-1 $209 $49 #
coedge $-1 $127 $127 $128 $210 reversed $77 $-1 #
coedge $-1 $128 $128 $127 $210 forward $79 $-1 #
coedge $-1 $129 $129 $80 $130 forward $124 $-1 #
edge $-1 $211 0 $211 6.2831853071796004 $129 $212 forward 7 unknown #
loop $-1 $-1 $136 $81 #
plane-surface $-1 -35.191539664505768 -21.588562743869655 92.362865629826402 0.6560590369687036 0 0.75470957328743171 0.75470957328743171 0 -0.6560590369687036 forward_v I I I I #
loop $-1 $-1 $213 $52 #
coedge $-1 $134 $134 $135 $214 reversed $82 $-1 #
coedge $-1 $135 $135 $134 $214 forward $84 $-1 #
coedge $-1 $136 $136 $85 $137 forward $131 $-1 #
edge $-1 $215 0 $215 6.2831853071796004 $136 $216 forward 7 unknown #
face $-1 $217 $218 $29 $-1 $219 forward single #
loop $-1 $-1 $220 $86 #
plane-surface $-1 -159.72504263938458 -16.309076418056002 105.99275875468209 0 -1 0 0.6560590369687036 0 -0.75470957328743171 forward_v I I I I #
coedge $-1 $221 $222 $223 $224 reversed $87 $-1 #
coedge $-1 $143 $89 $225 $226 reversed $56 $-1 #
coedge $-1 $89 $142 $221 $227 reversed $56 $-1 #
coedge $-1 $223 $228 $89 $145 forward $218 $-1 #
edge $-1 $229 10.780823269825049 $230 23.187690888069568 $144 $231 forward 7 unknown #
loop $-1 $-1 $151 $90 #
plane-surface $-1 -69.081698049867242 -21.588562743869655 1.7195210403090613 -0.6560590369687036 0 0.75470957328743171 0.75470957328743171 0 0.6560590369687036 forward_v I I I I #
loop $-1 $-1 $232 $58 #
coedge $-1 $149 $149 $150 $233 reversed $91 $-1 #
coedge $-1 $150 $150 $149 $233 forward $93 $-1 #
coedge $-1 $151 $151 $94 $152 forward $146 $-1 #
edge $-1 $234 0 $234 6.2831853071796004 $151 $235 forward 7 unknown #
loop $-1 $-1 $158 $95 #
plane-surface $-1 -69.081698049867242 -21.588562743869655 1.7195210403090613 -0.6560590369687036 0 0.75470957328743171 0.75470957328743171 0 0.6560590369687036 forward_v I I I I #
loop $-1 $-1 $236 $61 #
coedge $-1 $156 $156 $157 $237 reversed $96 $-1 #
coedge $-1 $157 $157 $156 $237 forward $98 $-1 #
coedge $-1 $158 $158 $99 $159 forward $153 $-1 #
edge $-1 $238 0 $238 6.2831853071796004 $158 $239 forward 7 unknown #
face $-1 $240 $241 $24 $-1 $242 reversed single #
loop $-1 $-1 $243 $100 #
plane-surface $-1 -69.081698049867242 0 0 1 0 0 0 0 -1 forward_v I I I I #
coedge $-1 $244 $171 $245 $246 forward $101 $-1 #
coedge $-1 $247 $103 $244 $248 forward $65 $-1 #
coedge $-1 $103 $247 $249 $250 forward $65 $-1 #
coedge $-1 $174 $173 $103 $167 reversed $175 $-1 #
edge $-1 $251 -40.034369353573382 $252 40.034369353573382 $166 $253 forward 7 unknown #
coedge $-1 $105 $104 $254 $255 forward $41 $-1 #
coedge $-1 $256 $257 $104 $170 reversed $241 $-1 #
edge $-1 $177 -69.081698049867242 $258 69.081698049867242 $169 $259 forward 7 unknown #
coedge $-1 $163 $260 $105 $172 reversed $101 $-1 #
edge $-1 $261 -69.081698049867242 $176 69.081698049867242 $171 $262 forward 7 unknown #
coedge $-1 $166 $106 $260 $263 forward $175 $-1 #
coedge $-1 $106 $166 $256 $264 reversed $175 $-1 #
loop $-1 $-1 $173 $240 #
vertex $-1 $107 $265 #
vertex $-1 $107 $266 #
straight-curve $-1 69.081698049867242 0 12.504646748955274 0 1 0 I I #
face $-1 $267 $268 $25 $-1 $269 reversed single #
loop $-1 $-1 $270 $108 #
plane-surface $-1 0 -46.617529495518419 -8.412945195456647 0 0 1 1 0 0 forward_v I I I I #
coedge $-1 $114 $271 $272 $273 forward $109 $-1 #
coedge $-1 $274 $111 $275 $276 reversed $69 $-1 #
coedge $-1 $111 $274 $189 $277 reversed $69 $-1 #
edge $-1 $190 4.7630247744123624 $278 8.412945195456647 $111 $279 forward 7 unknown #
coedge $-1 $113 $112 $280 $281 forward $44 $-1 #
coedge $-1 $272 $282 $112 $188 forward $283 $-1 #
edge $-1 $284 -8.412945195456647 $191 -4.7630247744123624 $187 $285 forward 7 unknown #
coedge $-1 $271 $114 $184 $277 forward $109 $-1 #
vertex $-1 $185 $286 #
vertex $-1 $273 $287 #
straight-curve $-1 0 -40.034369353573382 -4.7630247744123624 1 0 0 I I #
face $-1 $-1 $205 $26 $-1 $288 forward single #
loop $-1 $-1 $289 $116 #
plane-surface $-1 69.081698049867242 0 0 -1 0 0 0 0 1 forward_v I I I I #
coedge $-1 $290 $291 $292 $293 reversed $117 $-1 #
coedge $-1 $294 $119 $121 $203 forward $73 $-1 #
coedge $-1 $119 $294 $290 $295 forward $73 $-1 #
coedge $-1 $292 $122 $119 $200 forward $205 $-1 #
edge $-1 $207 5.5147950461211739 $296 16.07376769774848 $199 $297 forward 7 unknown #
coedge $-1 $298 $299 $120 $202 forward $194 $-1 #
edge $-1 $300 -96.598530631790652 $206 -85.813404923144446 $201 $301 forward 7 unknown #
edge $-1 $207 121.72413514773467 $300 138.16339609973448 $121 $302 forward 7 unknown #
coedge $-1 $122 $292 $298 $303 forward $205 $-1 #
loop $-1 $-1 $292 $193 #
vertex $-1 $202 $304 #
vertex $-1 $123 $305 #
straight-curve $-1 27.725902462505786 -16.309076418056002 12.504646748955267 -1 0 0 I I #
coedge $-1 $209 $209 $-1 $306 reversed $126 $-1 #
edge $-1 $307 0 $307 6.2831853071796004 $127 $308 forward 7 unknown #
vertex $-1 $130 $309 #
ellipse-curve $-1 62.878264240744983 -23.851199740646933 7.1120838946321765 0.6560590369687036 0 0.75470957328743171 1.1320643599311475 0 -0.9840885554530554 1 I I #
coedge $-1 $213 $213 $-1 $310 reversed $133 $-1 #
edge $-1 $311 0 $311 6.2831853071796004 $134 $312 forward 7 unknown #
vertex $-1 $137 $313 #
ellipse-curve $-1 62.878264240744983 -19.325925747092374 7.1120838946321765 0.6560590369687036 0 0.75470957328743171 1.1320643599311475 0 -0.9840885554530554 1 I I #
face $-1 $-1 $314 $29 $-1 $315 reversed single #
loop $-1 $-1 $144 $138 #
plane-surface $-1 0 0 12.504646748955274 0 0 1 1 0 0 forward_v I I I I #
coedge $-1 $316 $317 $318 $319 reversed $139 $-1 #
coedge $-1 $320 $141 $143 $227 forward $87 $-1 #
coedge $-1 $141 $320 $316 $321 forward $87 $-1 #
coedge $-1 $318 $144 $141 $224 forward $218 $-1 #
edge $-1 $230 -16.07376769774848 $322 -5.5147950461211739 $223 $323 forward 7 unknown #
coedge $-1 $324 $325 $142 $226 forward $314 $-1 #
edge $-1 $326 -51.276858337031982 $229 -40.491732628385769 $225 $327 forward 7 unknown #
edge $-1 $230 -16.439260951999817 $326 0 $143 $328 forward 7 unknown #
coedge $-1 $144 $318 $324 $329 forward $218 $-1 #
vertex $-1 $145 $330 #
vertex $-1 $145 $331 #
straight-curve $-1 -79.862521319692291 -26.868049069683309 12.504646748955274 1 0 0 I I #
coedge $-1 $232 $232 $-1 $332 reversed $148 $-1 #
edge $-1 $333 0 $333 6.2831853071796004 $149 $334 forward 7 unknown #
vertex $-1 $152 $335 #
ellipse-curve $-1 -62.878264240744983 -23.851199740646933 7.1120838946321685 -0.6560590369687036 0 0.75470957328743171 1.1320643599311475 0 0.9840885554530554 1 I I #
coedge $-1 $236 $236 $-1 $336 reversed $155 $-1 #
edge $-1 $337 0 $337 6.2831853071796004 $156 $338 forward 7 unknown #
vertex $-1 $159 $339 #
ellipse-curve $-1 -62.878264240744983 -19.325925747092374 7.1120838946321685 -0.6560590369687036 0 0.75470957328743171 1.1320643599311475 0 0.9840885554530554 1 I I #
face $-1 $-1 $175 $24 $-1 $340 reversed single #
loop $-1 $-1 $256 $160 #
plane-surface $-1 0 40.034369353573382 0 0 -1 0 0 0 -1 forward_v I I I I #
coedge $-1 $341 $254 $257 $342 forward $161 $-1 #
coedge $-1 $260 $163 $164 $248 reversed $101 $-1 #
coedge $-1 $254 $341 $163 $246 reversed $161 $-1 #
edge $-1 $261 -12.504646748955274 $343 12.504646748955274 $245 $344 forward 7 unknown #
coedge $-1 $165 $164 $341 $345 forward $65 $-1 #
edge $-1 $252 -69.081698049867242 $343 69.081698049867242 $244 $346 forward 7 unknown #
coedge $-1 $257 $256 $165 $250 reversed $241 $-1 #
edge $-1 $347 -69.081698049867242 $251 69.081698049867242 $249 $348 forward 7 unknown #
vertex $-1 $167 $349 #
vertex $-1 $263 $350 #
straight-curve $-1 69.081698049867242 0 -12.504646748955274 0 -1 0 I I #
coedge $-1 $243 $245 $168 $255 reversed $161 $-1 #
edge $-1 $258 -40.034369353573382 $261 40.034369353573382 $254 $351 forward 7 unknown #
coedge $-1 $249 $169 $174 $264 forward $241 $-1 #
coedge $-1 $169 $249 $243 $342 reversed $241 $-1 #
vertex $-1 $170 $352 #
straight-curve $-1 0 40.034369353573382 12.504646748955274 -1 0 0 I I #
coedge $-1 $171 $244 $173 $263 reversed $101 $-1 #
vertex $-1 $255 $353 #
straight-curve $-1 0 -40.034369353573382 12.504646748955274 1 0 0 I I #
edge $-1 $176 -12.504646748955274 $252 12.504646748955274 $173 $354 forward 7 unknown #
edge $-1 $177 -12.504646748955274 $251 12.504646748955274 $174 $355 forward 7 unknown #
point $-1 69.081698049867242 -40.034369353573382 12.504646748955274 #
point $-1 69.081698049867242 40.034369353573382 12.504646748955274 #
face $-1 $-1 $283 $25 $-1 $356 reversed single #
loop $-1 $-1 $357 $179 #
plane-surface $-1 0 -53.200689637463455 -6.5879849849345042 0 1 0 0 0 1 forward_v I I I I #
coedge $-1 $358 $280 $282 $359 forward $180 $-1 #
coedge $-1 $182 $189 $360 $361 forward $109 $-1 #
coedge $-1 $362 $187 $182 $273 reversed $283 $-1 #
edge $-1 $363 -6.5831601419450365 $191 6.5831601419450365 $272 $364 forward 7 unknown #
coedge $-1 $184 $183 $357 $365 reversed $69 $-1 #
coedge $-1 $280 $358 $183 $276 forward $180 $-1 #
edge $-1 $366 -6.5831601419450365 $278 6.5831601419450365 $183 $367 forward 7 unknown #
edge $-1 $190 -6.5831601419450365 $368 6.5831601419450365 $184 $369 forward 7 unknown #
vertex $-1 $185 $370 #
straight-curve $-1 -69.081698049867242 -40.034369353573382 0 0 0 -1 I I #
coedge $-1 $270 $275 $186 $281 reversed $180 $-1 #
edge $-1 $284 -69.081698049867242 $278 69.081698049867242 $280 $371 forward 7 unknown #
coedge $-1 $187 $362 $270 $359 reversed $283 $-1 #
loop $-1 $-1 $187 $267 #
vertex $-1 $188 $372 #
straight-curve $-1 69.081698049867242 -40.034369353573382 0 0 0 1 I I #
point $-1 -69.081698049867242 -40.034369353573382 -4.7630247744123624 #
point $-1 69.081698049867242 -40.034369353573382 -4.7630247744123624 #
plane-surface $-1 0 0 12.504646748955274 0 0 1 1 0 0 forward_v I I I I #
coedge $-1 $299 $298 $291 $373 forward $194 $-1 #
coedge $-1 $291 $196 $198 $295 reversed $117 $-1 #
coedge $-1 $196 $290 $289 $373 reversed $117 $-1 #
coedge $-1 $204 $199 $196 $293 forward $205 $-1 #
edge $-1 $296 28.948927969116951 $374 41.355795587361456 $292 $375 forward 7 unknown #
coedge $-1 $198 $197 $299 $376 reversed $73 $-1 #
edge $-1 $377 -138.16339609973448 $296 -121.72413514773467 $290 $378 forward 7 unknown #
vertex $-1 $200 $379 #
straight-curve $-1 56.674830431622709 -10.794281371934828 12.504646748955288 0 -1 0 I I #
coedge $-1 $289 $201 $204 $303 reversed $194 $-1 #
coedge $-1 $201 $289 $294 $376 forward $194 $-1 #
vertex $-1 $202 $380 #
straight-curve $-1 69.081698049867242 -16.309076418056002 98.318051672099713 0 0 1 I I #
straight-curve $-1 -35.191539664505768 -16.309076418056002 92.362865629826402 0.75470957328743171 0 -0.6560590369687036 I I #
edge $-1 $374 -26.868049069683309 $206 -16.309076418056002 $298 $381 forward 7 unknown #
point $-1 69.081698049867242 -16.309076418056002 12.504646748955274 #
point $-1 56.674830431622738 -16.309076418056002 12.504646748955267 #
edge $-1 $382 1 $382 0 $209 $-1 forward 7 unknown #
vertex $-1 $210 $383 #
ellipse-curve $-1 60.737668159629315 -23.851199740646933 4.6496098428699417 0.6560590369687036 0 0.75470957328743171 1.1320643599311475 0 -0.9840885554530554 1 I I #
point $-1 64.010328600676118 -23.851199740646933 6.1279953391791029 #
edge $-1 $384 1 $384 0 $213 $-1 forward 7 unknown #
vertex $-1 $214 $385 #
ellipse-curve $-1 60.737668159629315 -19.325925747092374 4.6496098428699417 0.6560590369687036 0 0.75470957328743171 1.1320643599311475 0 -0.9840885554530554 1 I I #
point $-1 64.010328600676118 -19.325925747092374 6.1279953391791029 #
loop $-1 $-1 $225 $217 #
plane-surface $-1 -69.081698049867242 0 0 1 0 0 0 0 -1 forward_v I I I I #
coedge $-1 $317 $220 $222 $321 reversed $139 $-1 #
coedge $-1 $220 $316 $386 $387 reversed $139 $-1 #
coedge $-1 $228 $223 $220 $319 forward $218 $-1 #
edge $-1 $322 -23.187690888069568 $388 -10.780823269825049 $318 $389 forward 7 unknown #
coedge $-1 $222 $221 $325 $390 reversed $87 $-1 #
edge $-1 $391 0 $322 16.439260951999817 $316 $392 forward 7 unknown #
vertex $-1 $224 $393 #
straight-curve $-1 -56.674830431622723 -10.794281371934828 12.504646748955276 0 1 0 I I #
coedge $-1 $386 $225 $228 $329 reversed $314 $-1 #
coedge $-1 $225 $386 $320 $390 forward $314 $-1 #
vertex $-1 $226 $394 #
straight-curve $-1 -69.081698049867242 -26.868049069683309 52.996379377341043 0 0 1 I I #
straight-curve $-1 -69.081698049867242 -26.868049069683309 1.7195210403090613 -0.75470957328743171 0 -0.6560590369687036 I I #
edge $-1 $388 16.309076418056002 $229 26.868049069683309 $324 $395 forward 7 unknown #
point $-1 -69.081698049867242 -26.868049069683309 12.504646748955274 #
point $-1 -56.674830431622723 -26.868049069683309 12.504646748955274 #
edge $-1 $396 1 $396 0 $232 $-1 forward 7 unknown #
vertex $-1 $233 $397 #
ellipse-curve $-1 -60.73766815962933 -23.851199740646933 4.6496098428699488 -0.6560590369687036 0 0.75470957328743171 1.1320643599311475 0 0.9840885554530554 1 I I #
point $-1 -61.746199880813833 -23.851199740646933 8.0961724500852199 #
edge $-1 $398 1 $398 0 $236 $-1 forward 7 unknown #
vertex $-1 $237 $399 #
ellipse-curve $-1 -60.73766815962933 -19.325925747092374 4.6496098428699488 -0.6560590369687036 0 0.75470957328743171 1.1320643599311475 0 0.9840885554530554 1 I I #
point $-1 -61.746199880813833 -19.325925747092374 8.0961724500852199 #
plane-surface $-1 69.081698049867242 0 0 -1 0 0 0 0 1 forward_v I I I I #
coedge $-1 $245 $243 $247 $345 reversed $161 $-1 #
edge $-1 $258 -12.504646748955274 $347 12.504646748955274 $257 $400 forward 7 unknown #
vertex $-1 $345 $401 #
straight-curve $-1 -69.081698049867242 -40.034369353573382 0 0 0 -1 I I #
edge $-1 $343 -40.034369353573382 $347 40.034369353573382 $341 $402 forward 7 unknown #
straight-curve $-1 0 -40.034369353573382 -12.504646748955274 -1 0 0 I I #
vertex $-1 $250 $403 #
straight-curve $-1 0 40.034369353573382 -12.504646748955274 1 0 0 I I #
point $-1 69.081698049867242 40.034369353573382 -12.504646748955274 #
point $-1 69.081698049867242 -40.034369353573382 -12.504646748955274 #
straight-curve $-1 -69.081698049867242 0 12.504646748955274 0 -1 0 I I #
point $-1 -69.081698049867242 40.034369353573382 12.504646748955274 #
point $-1 -69.081698049867242 -40.034369353573382 12.504646748955274 #
straight-curve $-1 69.081698049867242 -40.034369353573382 0 0 0 -1 I I #
straight-curve $-1 69.081698049867242 40.034369353573382 0 0 0 -1 I I #
plane-surface $-1 69.081698049867242 0 0 -1 0 0 0 0 1 forward_v I I I I #
coedge $-1 $404 $360 $274 $365 forward $268 $-1 #
coedge $-1 $275 $270 $404 $405 forward $180 $-1 #
edge $-1 $284 -6.5831601419450365 $406 6.5831601419450365 $282 $407 forward 7 unknown #
coedge $-1 $357 $408 $271 $361 reversed $268 $-1 #
edge $-1 $368 -69.081698049867242 $363 69.081698049867242 $360 $409 forward 7 unknown #
coedge $-1 $282 $272 $408 $410 forward $283 $-1 #
vertex $-1 $273 $411 #
straight-curve $-1 69.081698049867242 -46.617529495518419 -4.7630247744123624 0 1 0 I I #
edge $-1 $368 -1.8249602105221419 $366 1.8249602105221427 $274 $412 forward 7 unknown #
vertex $-1 $276 $413 #
straight-curve $-1 -69.081698049867242 -46.617529495518419 -8.412945195456647 0 1 0 I I #
vertex $-1 $277 $414 #
straight-curve $-1 -69.081698049867242 -46.617529495518419 -4.7630247744123624 0 -1 0 I I #
point $-1 -69.081698049867242 -40.034369353573382 -8.412945195456647 #
straight-curve $-1 0 -40.034369353573382 -8.412945195456647 -1 0 0 I I #
point $-1 69.081698049867242 -40.034369353573382 -8.412945195456647 #
edge $-1 $374 85.813404923144446 $377 96.598530631790652 $289 $415 forward 7 unknown #
vertex $-1 $303 $416 #
straight-curve $-1 27.725902462505786 -26.868049069683309 12.504646748955267 1 0 0 I I #
edge $-1 $377 -16.07376769774848 $300 -5.5147950461211739 $299 $417 forward 7 unknown #
vertex $-1 $376 $418 #
straight-curve $-1 -35.191539664505768 -26.868049069683309 92.362865629826402 -0.75470957328743171 0 0.6560590369687036 I I #
point $-1 56.674830431622738 -26.868049069683309 12.504646748955267 #
point $-1 69.081698049867256 -16.309076418056002 1.7195210403090613 #
straight-curve $-1 69.081698049867242 0 12.504646748955274 0 1 0 I I #
vertex $-1 $306 $419 #
point $-1 61.869732519560465 -23.851199740646933 3.6655212874168863 #
vertex $-1 $310 $420 #
point $-1 61.869732519560465 -19.325925747092374 3.6655212874168863 #
coedge $-1 $325 $324 $317 $387 forward $314 $-1 #
edge $-1 $388 40.491732628385769 $391 51.276858337031982 $386 $421 forward 7 unknown #
vertex $-1 $329 $422 #
straight-curve $-1 -79.862521319692291 -16.309076418056002 12.504646748955274 -1 0 0 I I #
edge $-1 $391 5.5147950461211739 $326 16.07376769774848 $325 $423 forward 7 unknown #
vertex $-1 $390 $424 #
straight-curve $-1 -69.081698049867242 -16.309076418056002 1.7195210403090613 0.75470957328743171 0 0.6560590369687036 I I #
point $-1 -56.674830431622723 -16.309076418056002 12.504646748955274 #
point $-1 -69.081698049867242 -26.868049069683309 1.7195210403090613 #
straight-curve $-1 -69.081698049867242 0 12.504646748955274 0 -1 0 I I #
vertex $-1 $332 $425 #
point $-1 -59.60560379969818 -23.851199740646933 5.6336983983230038 #
vertex $-1 $336 $426 #
point $-1 -59.60560379969818 -19.325925747092374 5.6336983983230038 #
straight-curve $-1 -69.081698049867242 40.034369353573382 0 0 0 -1 I I #
point $-1 -69.081698049867242 -40.034369353573382 -12.504646748955274 #
straight-curve $-1 -69.081698049867242 0 -12.504646748955274 0 1 0 I I #
point $-1 -69.081698049867242 40.034369353573382 -12.504646748955274 #
coedge $-1 $408 $357 $358 $405 reversed $268 $-1 #
edge $-1 $406 -69.081698049867242 $366 69.081698049867242 $404 $427 forward 7 unknown #
vertex $-1 $410 $428 #
straight-curve $-1 69.081698049867242 -46.617529495518419 -8.412945195456647 0 -1 0 I I #
coedge $-1 $360 $404 $362 $410 reversed $268 $-1 #
straight-curve $-1 0 -53.200689637463455 -4.7630247744123624 1 0 0 I I #
edge $-1 $363 -1.8249602105221419 $406 1.8249602105221427 $362 $429 forward 7 unknown #
point $-1 69.081698049867242 -53.200689637463455 -4.7630247744123624 #
straight-curve $-1 -69.081698049867242 -53.200689637463455 -6.5879849849345042 0 0 -1 I I #
point $-1 -69.081698049867242 -53.200689637463455 -8.412945195456647 #
point $-1 -69.081698049867242 -53.200689637463455 -4.7630247744123624 #
straight-curve $-1 69.081698049867242 -26.868049069683309 98.318051672099713 0 0 -1 I I #
point $-1 69.081698049867242 -26.868049069683309 12.504646748955274 #
straight-curve $-1 69.081698049867242 -10.794281371934828 1.7195210403090684 0 1 0 I I #
point $-1 69.081698049867256 -26.868049069683309 1.7195210403090613 #
point $-1 59.753579604176259 -23.851199740646933 3.517545482938794 #
point $-1 59.753579604176259 -19.325925747092374 3.517545482938794 #
straight-curve $-1 -69.081698049867242 -16.309076418056002 52.996379377341043 0 0 -1 I I #
point $-1 -69.081698049867242 -16.309076418056002 12.504646748955274 #
straight-curve $-1 -69.081698049867242 -10.794281371934828 1.7195210403090599 0 -1 0 I I #
point $-1 -69.081698049867242 -16.309076418056002 1.7195210403090613 #
point $-1 -59.753579604176274 -23.851199740646933 3.5175454829388011 #
point $-1 -59.753579604176274 -19.325925747092374 3.5175454829388011 #
straight-curve $-1 0 -53.200689637463455 -8.412945195456647 -1 0 0 I I #
point $-1 69.081698049867242 -53.200689637463455 -8.412945195456647 #
straight-curve $-1 69.081698049867242 -53.200689637463455 -6.5879849849345042 0 0 -1 I I #
End-of-ACIS-data 