500 0 6 0           
7 Unknown 11 ACIS 5.0 NT 24 Thu Mar 25 17:16:53 1999 
-1 9.9999999999999995e-007 1e-010 
body $-1 $6 $-1 $7 #
body $-1 $8 $-1 $9 #
body $-1 $10 $-1 $11 #
body $-1 $12 $-1 $13 #
body $-1 $14 $-1 $15 #
body $-1 $16 $-1 $17 #
lump $-1 $-1 $18 $0 #
transform $-1 1 0 0 0 1 0 0 0 1 46.325876644184696 22.927823929992737 10.727733384206386 1 rotate no_reflect no_shear #
lump $-1 $-1 $19 $1 #
transform $-1 1 0 0 0 1 0 0 0 1 46.325876644184696 22.927823929992737 10.727733384206386 1 rotate no_reflect no_shear #
lump $-1 $-1 $20 $2 #
transform $-1 1 0 0 0 1 0 0 0 1 46.325876644184696 22.927823929992737 10.727733384206386 1 rotate no_reflect no_shear #
lump $-1 $-1 $21 $3 #
transform $-1 1 0 0 0 1 0 0 0 1 46.325876644184696 22.927823929992737 10.727733384206386 1 rotate no_reflect no_shear #
lump $-1 $-1 $22 $4 #
transform $-1 1 0 0 0 1 0 0 0 1 46.325876644184696 22.927823929992737 10.727733384206386 1 rotate no_reflect no_shear #
lump $-1 $-1 $23 $5 #
transform $-1 1 0 0 0 1 0 0 0 1 46.325876644184696 22.927823929992737 10.727733384206386 1 rotate no_reflect no_shear #
shell $-1 $-1 $-1 $24 $-1 $6 #
shell $-1 $-1 $-1 $25 $-1 $8 #
shell $-1 $-1 $-1 $26 $-1 $10 #
shell $-1 $-1 $-1 $27 $-1 $12 #
shell $-1 $-1 $-1 $28 $-1 $14 #
shell $-1 $-1 $-1 $29 $-1 $16 #
face $-1 $30 $31 $18 $-1 $32 forward single #
face $-1 $33 $34 $19 $-1 $35 forward single #
face $-1 $36 $37 $20 $-1 $38 reversed single #
face $-1 $39 $40 $21 $-1 $41 forward single #
face $-1 $42 $43 $22 $-1 $44 forward single #
face $-1 $45 $46 $23 $-1 $47 forward single #
face $-1 $48 $49 $18 $-1 $50 reversed single #
loop $-1 $-1 $51 $24 #
plane-surface $-1 0 0 10.727733384206386 0 0 1 1 0 0 forward_v I I I I #
face $-1 $52 $53 $19 $-1 $54 reversed single #
loop $-1 $-1 $55 $25 #
plane-surface $-1 0 -22.927823929992737 0 0 1 0 0 0 1 forward_v I I I I #
face $-1 $56 $57 $20 $-1 $58 reversed single #
loop $-1 $-1 $59 $26 #
plane-surface $-1 -102.08509440040552 -11.080787910556012 78.776377662411264 0 1 0 -0.6018150307709319 0 0.79863550430605224 forward_v I I I I #
face $-1 $60 $61 $21 $-1 $62 forward single #
loop $-1 $63 $64 $27 #
cone-surface $-1 -42.079442384397801 -9.7756431613856716 7.3552479150073937 0.6018150307709319 0 -0.79863550430605224 0.39931775215302612 0 0.30090751538546595 1 I I 0 1 0.5 forward I I I I #
face $-1 $65 $66 $22 $-1 $67 forward single #
loop $-1 $68 $69 $28 #
cone-surface $-1 -42.079442384397801 -7.8179260376301603 7.3552479150073937 0.6018150307709319 0 -0.79863550430605224 0.39931775215302612 0 0.30090751538546595 1 I I 0 1 0.5 forward I I I I #
face $-1 $70 $71 $23 $-1 $72 forward single #
loop $-1 $73 $74 $29 #
cone-surface $-1 -42.079442384397801 -5.8602089138746507 7.3552479150073937 0.6018150307709319 0 -0.79863550430605224 0.39931775215302612 0 0.30090751538546595 1 I I 0 1 0.5 forward I I I I #
face $-1 $75 $76 $18 $-1 $77 reversed single #
loop $-1 $-1 $78 $30 #
plane-surface $-1 0 0 -10.727733384206386 0 0 1 1 0 0 forward_v I I I I #
coedge $-1 $79 $80 $81 $82 forward $31 $-1 #
face $-1 $83 $84 $19 $-1 $85 forward single #
loop $-1 $-1 $86 $33 #
plane-surface $-1 -46.325876644184696 0 0 1 0 0 0 0 -1 forward_v I I I I #
coedge $-1 $87 $88 $89 $90 forward $34 $-1 #
face $-1 $91 $92 $20 $-1 $93 reversed single #
loop $-1 $-1 $94 $36 #
plane-surface $-1 -46.32587664418471 -7.8179260376301603 4.7813979501144388 -0.6018150307709319 0 0.79863550430605224 0.79863550430605224 0 0.6018150307709319 forward_v I I I I #
coedge $-1 $95 $96 $97 $98 reversed $37 $-1 #
face $-1 $-1 $99 $21 $-1 $100 forward single #
loop $-1 $101 $102 $39 #
cone-surface $-1 -41.628081111319602 -9.7756431613856716 6.7562712867778547 0.6018150307709319 0 -0.79863550430605224 0.19965887607651306 0 0.15045375769273298 1 I I -0.70710678118654746 0.70710678118654746 0.25 forward I I I I #
loop $-1 $-1 $103 $27 #
coedge $-1 $64 $64 $104 $105 reversed $40 $-1 #
face $-1 $-1 $106 $22 $-1 $107 forward single #
loop $-1 $108 $109 $42 #
cone-surface $-1 -41.628081111319602 -7.8179260376301603 6.7562712867778547 0.6018150307709319 0 -0.79863550430605224 0.19965887607651306 0 0.15045375769273298 1 I I -0.70710678118654746 0.70710678118654746 0.25 forward I I I I #
loop $-1 $-1 $110 $28 #
coedge $-1 $69 $69 $111 $112 reversed $43 $-1 #
face $-1 $-1 $113 $23 $-1 $114 forward single #
loop $-1 $115 $116 $45 #
cone-surface $-1 -41.628081111319602 -5.8602089138746507 6.7562712867778547 0.6018150307709319 0 -0.79863550430605224 0.19965887607651306 0 0.15045375769273298 1 I I -0.70710678118654746 0.70710678118654746 0.25 forward I I I I #
loop $-1 $-1 $117 $29 #
coedge $-1 $74 $74 $118 $119 reversed $46 $-1 #
face $-1 $120 $121 $18 $-1 $122 reversed single #
loop $-1 $-1 $123 $48 #
plane-surface $-1 0 -22.927823929992737 0 0 1 0 0 0 1 forward_v I I I I #
coedge $-1 $124 $125 $126 $127 forward $49 $-1 #
coedge $-1 $128 $51 $129 $130 forward $31 $-1 #
coedge $-1 $51 $128 $131 $132 forward $31 $-1 #
coedge $-1 $133 $134 $51 $82 reversed $135 $-1 #
edge $-1 $136 -22.927823929992737 $137 22.927823929992737 $81 $138 forward 7 unknown #
face $-1 $139 $140 $19 $-1 $141 reversed single #
loop $-1 $-1 $142 $52 #
plane-surface $-1 0 -28.851341939711098 2.7455905257834043 0 0 1 1 0 0 forward_v I I I I #
coedge $-1 $143 $144 $88 $145 forward $53 $-1 #
coedge $-1 $146 $55 $147 $148 reversed $34 $-1 #
coedge $-1 $55 $146 $86 $145 reversed $34 $-1 #
coedge $-1 $149 $142 $55 $90 reversed $84 $-1 #
edge $-1 $150 -46.325876644184696 $151 46.325876644184696 $89 $152 forward 7 unknown #
face $-1 $153 $154 $20 $-1 $155 forward single #
loop $-1 $-1 $156 $56 #
plane-surface $-1 -102.08509440040552 -4.5550641647043086 78.776377662411264 0 -1 0 0.6018150307709319 0 -0.79863550430605224 forward_v I I I I #
coedge $-1 $157 $158 $159 $160 reversed $57 $-1 #
coedge $-1 $96 $59 $161 $162 reversed $37 $-1 #
coedge $-1 $59 $95 $157 $163 reversed $37 $-1 #
coedge $-1 $159 $164 $59 $98 forward $154 $-1 #
edge $-1 $165 4.716670556018066 $166 12.607724044820927 $97 $167 forward 7 unknown #
loop $-1 $-1 $104 $60 #
plane-surface $-1 -46.32587664418471 -7.8179260376301603 4.7813979501144388 -0.6018150307709319 0 0.79863550430605224 0.79863550430605224 0 0.6018150307709319 forward_v I I I I #
loop $-1 $-1 $168 $39 #
coedge $-1 $102 $102 $103 $169 reversed $61 $-1 #
coedge $-1 $103 $103 $102 $169 forward $63 $-1 #
coedge $-1 $104 $104 $64 $105 forward $99 $-1 #
edge $-1 $170 0 $170 6.2831853071796004 $104 $171 forward 7 unknown #
loop $-1 $-1 $111 $65 #
plane-surface $-1 -46.32587664418471 -7.8179260376301603 4.7813979501144388 -0.6018150307709319 0 0.79863550430605224 0.79863550430605224 0 0.6018150307709319 forward_v I I I I #
loop $-1 $-1 $172 $42 #
coedge $-1 $109 $109 $110 $173 reversed $66 $-1 #
coedge $-1 $110 $110 $109 $173 forward $68 $-1 #
coedge $-1 $111 $111 $69 $112 forward $106 $-1 #
edge $-1 $174 0 $174 6.2831853071796004 $111 $175 forward 7 unknown #
loop $-1 $-1 $118 $70 #
plane-surface $-1 -46.32587664418471 -7.8179260376301603 4.7813979501144388 -0.6018150307709319 0 0.79863550430605224 0.79863550430605224 0 0.6018150307709319 forward_v I I I I #
loop $-1 $-1 $176 $45 #
coedge $-1 $116 $116 $117 $177 reversed $71 $-1 #
coedge $-1 $117 $117 $116 $177 forward $73 $-1 #
coedge $-1 $118 $118 $74 $119 forward $113 $-1 #
edge $-1 $178 0 $178 6.2831853071796004 $118 $179 forward 7 unknown #
face $-1 $180 $181 $18 $-1 $182 reversed single #
loop $-1 $-1 $183 $75 #
plane-surface $-1 -46.325876644184696 0 0 1 0 0 0 0 -1 forward_v I I I I #
coedge $-1 $184 $131 $185 $186 forward $76 $-1 #
coedge $-1 $187 $78 $184 $188 forward $49 $-1 #
coedge $-1 $78 $187 $189 $190 forward $49 $-1 #
coedge $-1 $134 $133 $78 $127 reversed $135 $-1 #
edge $-1 $191 -22.927823929992737 $192 22.927823929992737 $126 $193 forward 7 unknown #
coedge $-1 $80 $79 $194 $195 forward $31 $-1 #
coedge $-1 $196 $197 $79 $130 reversed $181 $-1 #
edge $-1 $137 -46.325876644184696 $198 46.325876644184696 $129 $199 forward 7 unknown #
coedge $-1 $123 $200 $80 $132 reversed $76 $-1 #
edge $-1 $201 -46.325876644184696 $136 46.325876644184696 $131 $202 forward 7 unknown #
coedge $-1 $126 $81 $200 $203 forward $135 $-1 #
coedge $-1 $81 $126 $196 $204 reversed $135 $-1 #
loop $-1 $-1 $133 $180 #
vertex $-1 $82 $205 #
vertex $-1 $82 $206 #
straight-curve $-1 46.325876644184696 0 10.727733384206386 0 1 0 I I #
face $-1 $207 $208 $19 $-1 $209 reversed single #
loop $-1 $-1 $210 $83 #
plane-surface $-1 0 -28.851341939711098 -0.25440947421659565 0 0 1 1 0 0 forward_v I I I I #
coedge $-1 $89 $211 $212 $213 forward $84 $-1 #
coedge $-1 $214 $86 $215 $216 reversed $53 $-1 #
coedge $-1 $86 $214 $149 $217 reversed $53 $-1 #
edge $-1 $150 -2.7455905257834043 $218 0.25440947421659565 $86 $219 forward 7 unknown #
coedge $-1 $88 $87 $220 $221 forward $34 $-1 #
coedge $-1 $212 $222 $87 $148 forward $223 $-1 #
edge $-1 $224 -0.25440947421659565 $151 2.7455905257834043 $147 $225 forward 7 unknown #
coedge $-1 $211 $89 $144 $217 forward $84 $-1 #
vertex $-1 $145 $226 #
vertex $-1 $213 $227 #
straight-curve $-1 0 -22.927823929992737 2.7455905257834043 1 0 0 I I #
face $-1 $-1 $228 $20 $-1 $229 reversed single #
loop $-1 $-1 $97 $91 #
plane-surface $-1 0 0 10.727733384206386 0 0 1 1 0 0 forward_v I I I I #
coedge $-1 $230 $231 $232 $233 reversed $92 $-1 #
coedge $-1 $234 $94 $96 $163 forward $57 $-1 #
coedge $-1 $94 $234 $230 $235 forward $57 $-1 #
coedge $-1 $232 $97 $94 $160 forward $154 $-1 #
edge $-1 $166 -7.1718248917409317 $236 -0.64610114588922851 $159 $237 forward 7 unknown #
coedge $-1 $238 $239 $95 $162 forward $228 $-1 #
edge $-1 $240 -34.606790881091186 $165 -28.660455446999244 $161 $241 forward 7 unknown #
edge $-1 $166 -9.8806695247784457 $240 -1.7763522597878294e-014 $96 $242 forward 7 unknown #
coedge $-1 $97 $232 $238 $243 forward $154 $-1 #
vertex $-1 $162 $244 #
vertex $-1 $98 $245 #
straight-curve $-1 -51.042547200202762 -11.080787910556012 10.727733384206388 1 0 0 I I #
coedge $-1 $168 $168 $-1 $246 reversed $101 $-1 #
edge $-1 $247 0 $247 6.2831853071796004 $102 $248 forward 7 unknown #
vertex $-1 $105 $249 #
ellipse-curve $-1 -42.380349899783269 -9.7756431613856716 7.7545656671604188 -0.6018150307709319 0 0.79863550430605224 0.39931775215302612 0 0.30090751538546595 1 I I #
coedge $-1 $172 $172 $-1 $250 reversed $108 $-1 #
edge $-1 $251 0 $251 6.2831853071796004 $109 $252 forward 7 unknown #
vertex $-1 $112 $253 #
ellipse-curve $-1 -42.380349899783269 -7.8179260376301603 7.7545656671604188 -0.6018150307709319 0 0.79863550430605224 0.39931775215302612 0 0.30090751538546595 1 I I #
coedge $-1 $176 $176 $-1 $254 reversed $115 $-1 #
edge $-1 $255 0 $255 6.2831853071796004 $116 $256 forward 7 unknown #
vertex $-1 $119 $257 #
ellipse-curve $-1 -42.380349899783269 -5.8602089138746507 7.7545656671604188 -0.6018150307709319 0 0.79863550430605224 0.39931775215302612 0 0.30090751538546595 1 I I #
face $-1 $-1 $135 $18 $-1 $258 reversed single #
loop $-1 $-1 $196 $120 #
plane-surface $-1 0 22.927823929992737 0 0 -1 0 0 0 -1 forward_v I I I I #
coedge $-1 $259 $194 $197 $260 forward $121 $-1 #
coedge $-1 $200 $123 $124 $188 reversed $76 $-1 #
coedge $-1 $194 $259 $123 $186 reversed $121 $-1 #
edge $-1 $201 -10.727733384206386 $261 10.727733384206386 $185 $262 forward 7 unknown #
coedge $-1 $125 $124 $259 $263 forward $49 $-1 #
edge $-1 $192 -46.325876644184696 $261 46.325876644184696 $184 $264 forward 7 unknown #
coedge $-1 $197 $196 $125 $190 reversed $181 $-1 #
edge $-1 $265 -46.325876644184696 $191 46.325876644184696 $189 $266 forward 7 unknown #
vertex $-1 $127 $267 #
vertex $-1 $203 $268 #
straight-curve $-1 46.325876644184696 0 -10.727733384206386 0 -1 0 I I #
coedge $-1 $183 $185 $128 $195 reversed $121 $-1 #
edge $-1 $198 -22.927823929992737 $201 22.927823929992737 $194 $269 forward 7 unknown #
coedge $-1 $189 $129 $134 $204 forward $181 $-1 #
coedge $-1 $129 $189 $183 $260 reversed $181 $-1 #
vertex $-1 $130 $270 #
straight-curve $-1 0 22.927823929992737 10.727733384206386 -1 0 0 I I #
coedge $-1 $131 $184 $133 $203 reversed $76 $-1 #
vertex $-1 $195 $271 #
straight-curve $-1 0 -22.927823929992737 10.727733384206386 1 0 0 I I #
edge $-1 $136 -10.727733384206386 $192 10.727733384206386 $133 $272 forward 7 unknown #
edge $-1 $137 -10.727733384206386 $191 10.727733384206386 $134 $273 forward 7 unknown #
point $-1 46.325876644184696 -22.927823929992737 10.727733384206386 #
point $-1 46.325876644184696 22.927823929992737 10.727733384206386 #
face $-1 $-1 $223 $19 $-1 $274 reversed single #
loop $-1 $-1 $275 $139 #
plane-surface $-1 0 -34.774859949429462 1.2455905257834043 0 1 0 0 0 1 forward_v I I I I #
coedge $-1 $276 $220 $222 $277 forward $140 $-1 #
coedge $-1 $142 $149 $278 $279 forward $84 $-1 #
coedge $-1 $280 $147 $142 $213 reversed $223 $-1 #
edge $-1 $281 -5.9235180097183644 $151 5.9235180097183644 $212 $282 forward 7 unknown #
coedge $-1 $144 $143 $275 $283 reversed $53 $-1 #
coedge $-1 $220 $276 $143 $216 forward $140 $-1 #
edge $-1 $284 -5.9235180097183644 $218 5.9235180097183644 $143 $285 forward 7 unknown #
edge $-1 $150 -5.9235180097183644 $286 5.9235180097183644 $144 $287 forward 7 unknown #
vertex $-1 $145 $288 #
straight-curve $-1 -46.325876644184696 -22.927823929992737 0 0 0 -1 I I #
coedge $-1 $210 $215 $146 $221 reversed $140 $-1 #
edge $-1 $224 -46.325876644184696 $218 46.325876644184696 $220 $289 forward 7 unknown #
coedge $-1 $147 $280 $210 $277 reversed $223 $-1 #
loop $-1 $-1 $147 $207 #
vertex $-1 $148 $290 #
straight-curve $-1 46.325876644184696 -22.927823929992737 0 0 0 1 I I #
point $-1 -46.325876644184696 -22.927823929992734 2.7455905257834043 #
point $-1 46.325876644184696 -22.927823929992734 2.7455905257834043 #
loop $-1 $-1 $161 $153 #
plane-surface $-1 -46.325876644184696 0 0 1 0 0 0 0 -1 forward_v I I I I #
coedge $-1 $231 $156 $158 $235 reversed $92 $-1 #
coedge $-1 $156 $230 $291 $292 reversed $92 $-1 #
coedge $-1 $164 $159 $156 $233 forward $154 $-1 #
edge $-1 $236 -12.607724044820927 $293 -4.716670556018066 $232 $294 forward 7 unknown #
coedge $-1 $158 $157 $239 $295 reversed $57 $-1 #
edge $-1 $296 1.7763522597878294e-014 $236 9.8806695247784457 $230 $297 forward 7 unknown #
vertex $-1 $160 $298 #
straight-curve $-1 -38.434823155381842 -3.9089630188150801 10.727733384206386 0 1 0 I I #
coedge $-1 $291 $161 $164 $243 reversed $228 $-1 #
coedge $-1 $161 $291 $234 $295 forward $228 $-1 #
vertex $-1 $162 $299 #
straight-curve $-1 -46.325876644184696 -11.080787910556012 39.388188831205632 0 0 1 I I #
straight-curve $-1 -46.32587664418471 -11.080787910556012 4.7813979501144388 -0.79863550430605224 0 -0.6018150307709319 I I #
edge $-1 $293 4.5550641647043086 $165 11.080787910556012 $238 $300 forward 7 unknown #
point $-1 -46.325876644184696 -11.080787910556012 10.727733384206386 #
point $-1 -38.434823155381835 -11.080787910556012 10.727733384206386 #
edge $-1 $301 1 $301 0 $168 $-1 forward 7 unknown #
vertex $-1 $169 $302 #
ellipse-curve $-1 -41.778534869012333 -9.7756431613856716 6.9559301628543677 -0.6018150307709319 0 0.79863550430605224 0.39931775215302612 0 0.30090751538546595 1 I I #
point $-1 -41.981032147630238 -9.7756431613856716 8.0554731825458852 #
edge $-1 $303 1 $303 0 $172 $-1 forward 7 unknown #
vertex $-1 $173 $304 #
ellipse-curve $-1 -41.778534869012333 -7.8179260376301603 6.9559301628543677 -0.6018150307709319 0 0.79863550430605224 0.39931775215302612 0 0.30090751538546595 1 I I #
point $-1 -41.981032147630238 -7.8179260376301603 8.0554731825458852 #
edge $-1 $305 1 $305 0 $176 $-1 forward 7 unknown #
vertex $-1 $177 $306 #
ellipse-curve $-1 -41.778534869012333 -5.8602089138746507 6.9559301628543677 -0.6018150307709319 0 0.79863550430605224 0.39931775215302612 0 0.30090751538546595 1 I I #
point $-1 -41.981032147630238 -5.8602089138746507 8.0554731825458852 #
plane-surface $-1 46.325876644184696 0 0 -1 0 0 0 0 1 forward_v I I I I #
coedge $-1 $185 $183 $187 $263 reversed $121 $-1 #
edge $-1 $198 -10.727733384206386 $265 10.727733384206386 $197 $307 forward 7 unknown #
vertex $-1 $263 $308 #
straight-curve $-1 -46.325876644184696 -22.927823929992737 0 0 0 -1 I I #
edge $-1 $261 -22.927823929992737 $265 22.927823929992737 $259 $309 forward 7 unknown #
straight-curve $-1 0 -22.927823929992737 -10.727733384206386 -1 0 0 I I #
vertex $-1 $190 $310 #
straight-curve $-1 0 22.927823929992737 -10.727733384206386 1 0 0 I I #
point $-1 46.325876644184696 22.927823929992737 -10.727733384206386 #
point $-1 46.325876644184696 -22.927823929992737 -10.727733384206386 #
straight-curve $-1 -46.325876644184696 0 10.727733384206386 0 -1 0 I I #
point $-1 -46.325876644184696 22.927823929992737 10.727733384206386 #
point $-1 -46.325876644184696 -22.927823929992737 10.727733384206386 #
straight-curve $-1 46.325876644184696 -22.927823929992737 0 0 0 -1 I I #
straight-curve $-1 46.325876644184696 22.927823929992737 0 0 0 -1 I I #
plane-surface $-1 46.325876644184696 0 0 -1 0 0 0 0 1 forward_v I I I I #
coedge $-1 $311 $278 $214 $283 forward $208 $-1 #
coedge $-1 $215 $210 $311 $312 forward $140 $-1 #
edge $-1 $224 -5.9235180097183644 $313 5.9235180097183644 $222 $314 forward 7 unknown #
coedge $-1 $275 $315 $211 $279 reversed $208 $-1 #
edge $-1 $286 -46.325876644184696 $281 46.325876644184696 $278 $316 forward 7 unknown #
coedge $-1 $222 $212 $315 $317 forward $223 $-1 #
vertex $-1 $213 $318 #
straight-curve $-1 46.325876644184696 -28.851341939711098 2.7455905257834043 0 1 0 I I #
edge $-1 $286 -1.5 $284 1.5 $214 $319 forward 7 unknown #
vertex $-1 $216 $320 #
straight-curve $-1 -46.325876644184696 -28.851341939711098 -0.25440947421659565 0 1 0 I I #
vertex $-1 $217 $321 #
straight-curve $-1 -46.325876644184696 -28.851341939711098 2.7455905257834043 0 -1 0 I I #
point $-1 -46.325876644184696 -22.927823929992734 -0.25440947421659565 #
straight-curve $-1 0 -22.927823929992737 -0.25440947421659565 -1 0 0 I I #
point $-1 46.325876644184696 -22.927823929992734 -0.25440947421659565 #
coedge $-1 $239 $238 $231 $292 forward $228 $-1 #
edge $-1 $293 28.660455446999244 $296 34.606790881091186 $291 $322 forward 7 unknown #
vertex $-1 $243 $323 #
straight-curve $-1 -51.042547200202762 -4.5550641647043086 10.727733384206388 -1 0 0 I I #
edge $-1 $296 0.64610114588922851 $240 7.1718248917409317 $239 $324 forward 7 unknown #
vertex $-1 $295 $325 #
straight-curve $-1 -46.32587664418471 -4.5550641647043086 4.7813979501144388 0.79863550430605224 0 0.6018150307709319 I I #
point $-1 -38.434823155381835 -4.5550641647043086 10.727733384206386 #
point $-1 -46.325876644184696 -11.080787910556012 4.7813979501144495 #
straight-curve $-1 -46.325876644184696 0 10.727733384206386 0 -1 0 I I #
vertex $-1 $246 $326 #
point $-1 -41.379217116859309 -9.7756431613856716 7.2568376782398341 #
vertex $-1 $250 $327 #
point $-1 -41.379217116859309 -7.8179260376301603 7.2568376782398341 #
vertex $-1 $254 $328 #
point $-1 -41.379217116859309 -5.8602089138746507 7.2568376782398341 #
straight-curve $-1 -46.325876644184696 22.927823929992737 0 0 0 -1 I I #
point $-1 -46.325876644184696 -22.927823929992737 -10.727733384206386 #
straight-curve $-1 -46.325876644184696 0 -10.727733384206386 0 1 0 I I #
point $-1 -46.325876644184696 22.927823929992737 -10.727733384206386 #
coedge $-1 $315 $275 $276 $312 reversed $208 $-1 #
edge $-1 $313 -46.325876644184696 $284 46.325876644184696 $311 $329 forward 7 unknown #
vertex $-1 $317 $330 #
straight-curve $-1 46.325876644184696 -28.851341939711098 -0.25440947421659565 0 -1 0 I I #
coedge $-1 $278 $311 $280 $317 reversed $208 $-1 #
straight-curve $-1 0 -34.774859949429462 2.7455905257834043 1 0 0 I I #
edge $-1 $281 -1.5 $313 1.5 $280 $331 forward 7 unknown #
point $-1 46.325876644184696 -34.774859949429462 2.7455905257834043 #
straight-curve $-1 -46.325876644184696 -34.774859949429462 1.2455905257834043 0 0 -1 I I #
point $-1 -46.325876644184696 -34.774859949429462 -0.25440947421659565 #
point $-1 -46.325876644184696 -34.774859949429462 2.7455905257834043 #
straight-curve $-1 -46.325876644184696 -4.5550641647043086 39.388188831205632 0 0 -1 I I #
point $-1 -46.325876644184696 -4.5550641647043086 10.727733384206386 #
straight-curve $-1 -46.325876644184696 -3.9089630188150801 4.7813979501144512 0 -1 0 I I #
point $-1 -46.325876644184696 -4.5550641647043086 4.7813979501144495 #
point $-1 -41.477627353626872 -9.7756431613856716 6.5566124107013417 #
point $-1 -41.477627353626872 -7.8179260376301603 6.5566124107013417 #
point $-1 -41.477627353626872 -5.8602089138746507 6.5566124107013417 #
straight-curve $-1 0 -34.774859949429462 -0.25440947421659565 -1 0 0 I I #
point $-1 46.325876644184696 -34.774859949429462 -0.25440947421659565 #
straight-curve $-1 46.325876644184696 -34.774859949429462 1.2455905257834043 0 0 -1 I I #
End-of-ACIS-data 