500 0 3 0           
7 Unknown 11 ACIS 5.0 NT 24 Fri Mar 26 20:45:00 1999 
-1 9.9999999999999995e-007 1e-010 
body $-1 $3 $-1 $4 #
body $-1 $5 $-1 $6 #
body $-1 $7 $-1 $8 #
lump $-1 $-1 $9 $0 #
transform $-1 1 0 0 0 1 0 0 0 1 60.260628070925016 32.232732627664461 14.056804184173089 1 rotate no_reflect no_shear #
lump $-1 $-1 $10 $1 #
transform $-1 1 0 0 0 1 0 0 0 1 60.260628070925016 32.232732627664461 14.056804184173089 1 rotate no_reflect no_shear #
lump $-1 $-1 $11 $2 #
transform $-1 1 0 0 0 1 0 0 0 1 60.260628070925016 32.232732627664461 14.056804184173089 1 rotate no_reflect no_shear #
shell $-1 $-1 $-1 $12 $-1 $3 #
shell $-1 $-1 $-1 $13 $-1 $5 #
shell $-1 $-1 $-1 $14 $-1 $7 #
face $-1 $15 $16 $9 $-1 $17 forward single #
face $-1 $18 $19 $10 $-1 $20 forward single #
face $-1 $21 $22 $11 $-1 $23 reversed single #
face $-1 $24 $25 $9 $-1 $26 reversed single #
loop $-1 $-1 $27 $12 #
plane-surface $-1 0 0 14.056804184173089 0 0 1 1 0 0 forward_v I I I I #
face $-1 $28 $29 $10 $-1 $30 forward single #
loop $-1 $-1 $31 $13 #
plane-surface $-1 -40.21519230178324 -132.14938323388117 72.239890223791662 -1 0 0 0 -0.82903758062907751 0.55919289150049634 forward_v I I I I #
face $-1 $32 $33 $11 $-1 $34 reversed single #
loop $-1 $35 $36 $14 #
cone-surface $-1 -50.237910186354128 -26.114928221347526 7.419971135674011 0 0.82903758062907751 -0.55919289150049634 2 0 0 1 I I 0 1 2 forward I I I I #
face $-1 $37 $38 $9 $-1 $39 reversed single #
loop $-1 $-1 $40 $15 #
plane-surface $-1 0 0 -14.056804184173089 0 0 1 1 0 0 forward_v I I I I #
coedge $-1 $41 $42 $43 $44 forward $16 $-1 #
face $-1 $45 $46 $10 $-1 $47 forward single #
loop $-1 $-1 $48 $18 #
plane-surface $-1 -50.237910186354128 -32.232732627664475 4.8452605145586034 0 -0.82903758062907751 0.55919289150049634 1 0 0 forward_v I I I I #
coedge $-1 $49 $50 $51 $52 reversed $19 $-1 #
face $-1 $53 $54 $11 $-1 $55 forward single #
loop $-1 $56 $57 $21 #
cone-surface $-1 -50.237910186354128 -22.274718466854836 4.8297170304816888 0 0.82903758062907751 -0.55919289150049634 1 0 0 1 I I -0.70710678118654746 0.70710678118654746 1 forward I I I I #
loop $-1 $-1 $58 $14 #
coedge $-1 $36 $36 $59 $60 reversed $22 $-1 #
face $-1 $61 $62 $9 $-1 $63 reversed single #
loop $-1 $-1 $64 $24 #
plane-surface $-1 0 -32.232732627664461 0 0 1 0 0 0 1 forward_v I I I I #
coedge $-1 $65 $66 $67 $68 forward $25 $-1 #
coedge $-1 $69 $27 $70 $71 forward $16 $-1 #
coedge $-1 $27 $69 $72 $73 forward $16 $-1 #
coedge $-1 $74 $75 $27 $44 reversed $76 $-1 #
edge $-1 $77 -32.232732627664461 $78 32.232732627664461 $43 $79 forward 7 unknown #
face $-1 $80 $81 $10 $-1 $82 reversed single #
loop $-1 $-1 $83 $28 #
plane-surface $-1 0 0 14.056804184173089 0 0 1 1 0 0 forward_v I I I I #
coedge $-1 $84 $85 $83 $86 reversed $29 $-1 #
coedge $-1 $50 $31 $85 $87 forward $19 $-1 #
coedge $-1 $31 $49 $88 $89 reversed $19 $-1 #
coedge $-1 $90 $83 $31 $52 forward $46 $-1 #
edge $-1 $91 -40.055223454182745 $92 -33.841958989276122 $51 $93 forward 7 unknown #
face $-1 $94 $95 $11 $-1 $96 forward single #
loop $-1 $-1 $97 $32 #
plane-surface $-1 -40.21519230178324 -132.14938323388117 72.239890223791662 -1 0 0 0 -0.82903758062907751 0.55919289150049634 forward_v I I I I #
loop $-1 $-1 $98 $21 #
coedge $-1 $57 $57 $58 $99 forward $33 $-1 #
coedge $-1 $58 $58 $57 $99 reversed $35 $-1 #
coedge $-1 $59 $59 $36 $60 forward $95 $-1 #
edge $-1 $100 1.8770243084150076e-016 $100 6.2831853071796004 $59 $101 forward 7 unknown #
face $-1 $102 $103 $9 $-1 $104 reversed single #
loop $-1 $-1 $105 $37 #
plane-surface $-1 -60.260628070925016 0 0 1 0 0 0 0 -1 forward_v I I I I #
coedge $-1 $106 $72 $107 $108 forward $38 $-1 #
coedge $-1 $109 $40 $106 $110 forward $25 $-1 #
coedge $-1 $40 $109 $111 $112 forward $25 $-1 #
coedge $-1 $75 $74 $40 $68 reversed $76 $-1 #
edge $-1 $113 -32.232732627664461 $114 32.232732627664461 $67 $115 forward 7 unknown #
coedge $-1 $42 $41 $116 $117 forward $16 $-1 #
coedge $-1 $118 $119 $41 $71 reversed $103 $-1 #
edge $-1 $78 -60.260628070925016 $120 60.260628070925016 $70 $121 forward 7 unknown #
coedge $-1 $64 $122 $42 $73 reversed $38 $-1 #
edge $-1 $123 -60.260628070925016 $77 60.260628070925016 $72 $124 forward 7 unknown #
coedge $-1 $67 $43 $122 $125 forward $76 $-1 #
coedge $-1 $43 $67 $118 $126 reversed $76 $-1 #
loop $-1 $-1 $74 $102 #
vertex $-1 $44 $127 #
vertex $-1 $44 $128 #
straight-curve $-1 60.260628070925016 0 14.056804184173089 0 1 0 I I #
face $-1 $129 $130 $10 $-1 $131 reversed single #
loop $-1 $-1 $88 $45 #
plane-surface $-1 0 -32.232732627664461 0 0 1 0 0 0 1 forward_v I I I I #
coedge $-1 $51 $132 $48 $86 forward $46 $-1 #
coedge $-1 $133 $48 $134 $135 reversed $29 $-1 #
coedge $-1 $48 $133 $49 $87 reversed $29 $-1 #
edge $-1 $136 -35.141672977747952 $91 -15.096237208606176 $83 $137 forward 7 unknown #
edge $-1 $91 -11.111129199504713 $138 -2.5618607856530852e-014 $49 $139 forward 7 unknown #
coedge $-1 $140 $141 $50 $89 forward $81 $-1 #
edge $-1 $92 22.063140927722742 $138 31.274684597337206 $88 $142 forward 7 unknown #
coedge $-1 $143 $51 $141 $144 forward $46 $-1 #
vertex $-1 $86 $145 #
vertex $-1 $144 $146 #
straight-curve $-1 -40.21519230178324 -66.074691616940584 14.056804184173089 0 -1 0 I I #
face $-1 $147 $148 $11 $-1 $149 forward single #
loop $-1 $150 $59 $53 #
plane-surface $-1 -50.237910186354128 -32.232732627664475 4.8452605145586034 0 -0.82903758062907751 0.55919289150049634 1 0 0 forward_v I I I I #
coedge $-1 $151 $152 $153 $154 reversed $54 $-1 #
coedge $-1 $98 $98 $-1 $155 forward $56 $-1 #
edge $-1 $156 0 $156 6.2831853071796004 $57 $157 forward 7 unknown #
vertex $-1 $60 $158 #
ellipse-curve $-1 -50.237910186354128 -29.126100395211157 9.4510323493658497 0 0.82903758062907751 -0.55919289150049634 2 0 0 1 I I #
face $-1 $-1 $76 $9 $-1 $159 reversed single #
loop $-1 $-1 $118 $61 #
plane-surface $-1 0 32.232732627664461 0 0 -1 0 0 0 -1 forward_v I I I I #
coedge $-1 $160 $116 $119 $161 forward $62 $-1 #
coedge $-1 $122 $64 $65 $110 reversed $38 $-1 #
coedge $-1 $116 $160 $64 $108 reversed $62 $-1 #
edge $-1 $123 -14.056804184173089 $162 14.056804184173089 $107 $163 forward 7 unknown #
coedge $-1 $66 $65 $160 $164 forward $25 $-1 #
edge $-1 $114 -60.260628070925016 $162 60.260628070925016 $106 $165 forward 7 unknown #
coedge $-1 $119 $118 $66 $112 reversed $103 $-1 #
edge $-1 $166 -60.260628070925016 $113 60.260628070925016 $111 $167 forward 7 unknown #
vertex $-1 $68 $168 #
vertex $-1 $125 $169 #
straight-curve $-1 60.260628070925016 0 -14.056804184173089 0 -1 0 I I #
coedge $-1 $105 $107 $69 $117 reversed $62 $-1 #
edge $-1 $120 -32.232732627664461 $123 32.232732627664461 $116 $170 forward 7 unknown #
coedge $-1 $111 $70 $75 $126 forward $103 $-1 #
coedge $-1 $70 $111 $105 $161 reversed $103 $-1 #
vertex $-1 $71 $171 #
straight-curve $-1 0 32.232732627664461 14.056804184173089 -1 0 0 I I #
coedge $-1 $72 $106 $74 $125 reversed $38 $-1 #
vertex $-1 $117 $172 #
straight-curve $-1 0 -32.232732627664461 14.056804184173089 1 0 0 I I #
edge $-1 $77 -14.056804184173089 $114 14.056804184173089 $74 $173 forward 7 unknown #
edge $-1 $78 -14.056804184173089 $113 14.056804184173089 $75 $174 forward 7 unknown #
point $-1 60.260628070925016 -32.232732627664461 14.056804184173089 #
point $-1 60.260628070925016 32.232732627664461 14.056804184173089 #
face $-1 $175 $176 $10 $-1 $177 reversed single #
loop $-1 $-1 $178 $80 #
plane-surface $-1 0 0 -14.056804184173089 0 0 1 1 0 0 forward_v I I I I #
coedge $-1 $83 $179 $180 $181 forward $46 $-1 #
coedge $-1 $85 $84 $140 $182 reversed $29 $-1 #
coedge $-1 $180 $183 $84 $135 forward $176 $-1 #
edge $-1 $184 -7.0037059522593879 $136 4.1074232472453005 $134 $185 forward 7 unknown #
vertex $-1 $135 $186 #
straight-curve $-1 -25.118955093177064 -26.019468162757843 14.056804184173089 1 0 0 I I #
vertex $-1 $182 $187 #
straight-curve $-1 -40.21519230178324 -32.232732627664475 4.8452605145586034 0 -0.55919289150049634 -0.82903758062907751 I I #
coedge $-1 $188 $88 $133 $182 forward $81 $-1 #
coedge $-1 $88 $189 $90 $144 reversed $81 $-1 #
straight-curve $-1 -40.21519230178324 -32.232732627664461 36.119945111895831 0 0 -1 I I #
coedge $-1 $179 $90 $190 $191 forward $46 $-1 #
edge $-1 $92 -40.21519230178324 $192 60.260628070925016 $141 $193 forward 7 unknown #
point $-1 -40.21519230178324 -26.019468162757839 14.056804184173089 #
point $-1 -40.21519230178324 -32.232732627664461 14.056804184173089 #
face $-1 $194 $195 $11 $-1 $196 reversed single #
loop $-1 $-1 $197 $94 #
plane-surface $-1 0 0 14.056804184173089 0 0 1 1 0 0 forward_v I I I I #
loop $-1 $-1 $198 $53 #
coedge $-1 $152 $97 $199 $200 forward $54 $-1 #
coedge $-1 $97 $151 $201 $202 reversed $54 $-1 #
coedge $-1 $203 $197 $97 $154 forward $148 $-1 #
edge $-1 $204 -40.055223454182745 $205 -33.841958989276122 $153 $206 forward 7 unknown #
edge $-1 $207 1 $207 0 $98 $-1 forward 7 unknown #
vertex $-1 $99 $208 #
ellipse-curve $-1 -50.237910186354128 -23.103756047483913 5.3889099219821848 0 -0.82903758062907751 0.55919289150049634 2 0 0 1 I I #
point $-1 -48.237910186354128 -29.126100395211139 9.4510323493658372 #
plane-surface $-1 60.260628070925016 0 0 -1 0 0 0 0 1 forward_v I I I I #
coedge $-1 $107 $105 $109 $164 reversed $62 $-1 #
edge $-1 $120 -14.056804184173089 $166 14.056804184173089 $119 $209 forward 7 unknown #
vertex $-1 $164 $210 #
straight-curve $-1 -60.260628070925016 -32.232732627664461 0 0 0 -1 I I #
edge $-1 $162 -32.232732627664461 $166 32.232732627664461 $160 $211 forward 7 unknown #
straight-curve $-1 0 -32.232732627664461 -14.056804184173089 -1 0 0 I I #
vertex $-1 $112 $212 #
straight-curve $-1 0 32.232732627664461 -14.056804184173089 1 0 0 I I #
point $-1 60.260628070925016 32.232732627664461 -14.056804184173089 #
point $-1 60.260628070925016 -32.232732627664461 -14.056804184173089 #
straight-curve $-1 -60.260628070925016 0 14.056804184173089 0 -1 0 I I #
point $-1 -60.260628070925016 32.232732627664461 14.056804184173089 #
point $-1 -60.260628070925016 -32.232732627664461 14.056804184173089 #
straight-curve $-1 60.260628070925016 -32.232732627664461 0 0 0 -1 I I #
straight-curve $-1 60.260628070925016 32.232732627664461 0 0 0 -1 I I #
face $-1 $213 $214 $10 $-1 $215 reversed single #
loop $-1 $-1 $134 $129 #
plane-surface $-1 -60.260628070925016 0 0 1 0 0 0 0 -1 forward_v I I I I #
coedge $-1 $216 $217 $218 $219 forward $130 $-1 #
coedge $-1 $132 $143 $220 $221 forward $46 $-1 #
coedge $-1 $222 $134 $132 $181 reversed $176 $-1 #
edge $-1 $223 -32.232732627664461 $136 26.019468162757839 $180 $224 forward 7 unknown #
edge $-1 $138 15.096237208606176 $184 35.141672977747952 $140 $225 forward 7 unknown #
coedge $-1 $134 $226 $188 $227 reversed $176 $-1 #
vertex $-1 $227 $228 #
straight-curve $-1 -60.260628070925016 -28.316310045001298 10.651595952657217 0 0.55919289150049634 0.82903758062907751 I I #
point $-1 -60.260628070925016 -26.019468162757839 14.056804184173089 #
point $-1 -40.21519230178324 -32.232732627664461 4.8452605145586247 #
coedge $-1 $229 $140 $183 $227 forward $81 $-1 #
coedge $-1 $141 $229 $230 $231 reversed $81 $-1 #
coedge $-1 $230 $232 $143 $191 reversed $233 $-1 #
edge $-1 $192 -32.232732627664461 $234 32.232732627664461 $190 $235 forward 7 unknown #
vertex $-1 $191 $236 #
straight-curve $-1 0 -32.232732627664461 14.056804184173089 1 0 0 I I #
face $-1 $237 $238 $11 $-1 $239 reversed single #
loop $-1 $-1 $201 $147 #
plane-surface $-1 0 -32.232732627664461 0 0 1 0 0 0 1 forward_v I I I I #
coedge $-1 $153 $240 $198 $241 forward $148 $-1 #
coedge $-1 $242 $199 $197 $241 reversed $150 $-1 #
coedge $-1 $198 $243 $151 $200 reversed $150 $-1 #
edge $-1 $204 -11.111129199504713 $244 -2.5618607856530852e-014 $151 $245 forward 7 unknown #
coedge $-1 $246 $247 $152 $202 forward $195 $-1 #
edge $-1 $205 22.063140927722742 $244 31.274684597337206 $201 $248 forward 7 unknown #
coedge $-1 $249 $153 $247 $250 forward $148 $-1 #
vertex $-1 $241 $251 #
vertex $-1 $250 $252 #
straight-curve $-1 -40.21519230178324 -66.074691616940584 14.056804184173089 0 -1 0 I I #
vertex $-1 $155 $253 #
point $-1 -48.237910186354128 -23.103756047483913 5.3889099219821848 #
straight-curve $-1 -60.260628070925016 32.232732627664461 0 0 0 -1 I I #
point $-1 -60.260628070925016 -32.232732627664461 -14.056804184173089 #
straight-curve $-1 -60.260628070925016 0 -14.056804184173089 0 1 0 I I #
point $-1 -60.260628070925016 32.232732627664461 -14.056804184173089 #
face $-1 $-1 $233 $10 $-1 $254 reversed single #
loop $-1 $-1 $255 $175 #
plane-surface $-1 0 32.232732627664461 0 0 -1 0 0 0 -1 forward_v I I I I #
coedge $-1 $256 $178 $229 $257 forward $130 $-1 #
coedge $-1 $178 $256 $258 $259 forward $130 $-1 #
coedge $-1 $232 $230 $178 $219 reversed $233 $-1 #
edge $-1 $260 -32.232732627664461 $261 32.232732627664461 $218 $262 forward 7 unknown #
coedge $-1 $255 $263 $179 $221 reversed $214 $-1 #
edge $-1 $234 -60.260628070925016 $223 60.260628070925016 $220 $264 forward 7 unknown #
coedge $-1 $226 $180 $263 $265 forward $176 $-1 #
vertex $-1 $221 $266 #
straight-curve $-1 -60.260628070925016 0 14.056804184173089 0 -1 0 I I #
straight-curve $-1 -25.118955093177064 -32.232732627664461 4.8452605145586238 -1 0 0 I I #
coedge $-1 $183 $222 $256 $267 reversed $176 $-1 #
edge $-1 $184 -4.8452605145586247 $268 14.056804184173089 $183 $269 forward 7 unknown #
point $-1 -60.260628070925016 -32.232732627664461 4.8452605145586247 #
coedge $-1 $189 $188 $216 $257 reversed $81 $-1 #
coedge $-1 $218 $190 $189 $231 forward $233 $-1 #
edge $-1 $192 -14.056804184173089 $261 14.056804184173089 $230 $270 forward 7 unknown #
coedge $-1 $190 $218 $255 $271 reversed $233 $-1 #
loop $-1 $-1 $230 $213 #
vertex $-1 $191 $272 #
straight-curve $-1 60.260628070925016 0 14.056804184173089 0 1 0 I I #
point $-1 60.260628070925016 -32.232732627664461 14.056804184173089 #
face $-1 $273 $274 $11 $-1 $275 reversed single #
loop $-1 $-1 $276 $194 #
plane-surface $-1 0 0 -14.056804184173089 0 0 1 1 0 0 forward_v I I I I #
coedge $-1 $197 $277 $278 $279 forward $148 $-1 #
edge $-1 $280 -35.141672977747952 $204 -15.096237208606176 $197 $281 forward 7 unknown #
coedge $-1 $243 $198 $282 $283 reversed $150 $-1 #
coedge $-1 $199 $242 $246 $284 reversed $150 $-1 #
vertex $-1 $284 $285 #
straight-curve $-1 -40.21519230178324 -32.232732627664475 4.8452605145586034 0 -0.55919289150049634 -0.82903758062907751 I I #
coedge $-1 $286 $201 $243 $284 forward $195 $-1 #
coedge $-1 $201 $287 $203 $250 reversed $195 $-1 #
straight-curve $-1 -40.21519230178324 -32.232732627664461 36.119945111895831 0 0 -1 I I #
coedge $-1 $277 $203 $288 $289 forward $148 $-1 #
edge $-1 $205 -40.21519230178324 $290 60.260628070925016 $247 $291 forward 7 unknown #
point $-1 -40.21519230178324 -26.019468162757839 14.056804184173089 #
point $-1 -40.21519230178324 -32.232732627664461 14.056804184173089 #
point $-1 -50.237910186354128 -21.445680886225759 4.2705241389811928 #
plane-surface $-1 60.260628070925016 0 0 -1 0 0 0 0 1 forward_v I I I I #
coedge $-1 $258 $220 $232 $271 forward $214 $-1 #
coedge $-1 $217 $216 $226 $267 forward $130 $-1 #
edge $-1 $261 -60.260628070925016 $268 60.260628070925016 $229 $292 forward 7 unknown #
coedge $-1 $263 $255 $217 $259 reversed $214 $-1 #
edge $-1 $293 -60.260628070925016 $260 60.260628070925016 $258 $294 forward 7 unknown #
vertex $-1 $219 $295 #
vertex $-1 $231 $296 #
straight-curve $-1 60.260628070925016 0 -14.056804184173089 0 -1 0 I I #
coedge $-1 $220 $258 $222 $265 reversed $214 $-1 #
straight-curve $-1 0 32.232732627664461 14.056804184173089 -1 0 0 I I #
edge $-1 $223 -14.056804184173089 $293 14.056804184173089 $263 $297 forward 7 unknown #
point $-1 -60.260628070925016 32.232732627664461 14.056804184173089 #
edge $-1 $268 -32.232732627664461 $293 32.232732627664461 $226 $298 forward 7 unknown #
vertex $-1 $267 $299 #
straight-curve $-1 -60.260628070925016 -32.232732627664461 0 0 0 -1 I I #
straight-curve $-1 60.260628070925016 -32.232732627664461 0 0 0 -1 I I #
edge $-1 $234 -14.056804184173089 $260 14.056804184173089 $232 $300 forward 7 unknown #
point $-1 60.260628070925016 32.232732627664461 14.056804184173089 #
face $-1 $301 $302 $11 $-1 $303 reversed single #
loop $-1 $-1 $282 $237 #
plane-surface $-1 -60.260628070925016 0 0 1 0 0 0 0 -1 forward_v I I I I #
coedge $-1 $304 $305 $306 $307 forward $238 $-1 #
coedge $-1 $240 $249 $308 $309 forward $148 $-1 #
coedge $-1 $310 $282 $240 $279 reversed $274 $-1 #
edge $-1 $311 -32.232732627664461 $280 26.019468162757839 $278 $312 forward 7 unknown #
vertex $-1 $283 $313 #
straight-curve $-1 -25.118955093177064 -26.019468162757843 14.056804184173089 1 0 0 I I #
coedge $-1 $278 $314 $242 $283 forward $274 $-1 #
edge $-1 $315 -7.0037059522593879 $280 4.1074232472453005 $282 $316 forward 7 unknown #
edge $-1 $244 15.096237208606176 $315 35.141672977747952 $246 $317 forward 7 unknown #
point $-1 -40.21519230178324 -32.232732627664461 4.8452605145586247 #
coedge $-1 $318 $246 $314 $319 forward $195 $-1 #
coedge $-1 $247 $318 $320 $321 reversed $195 $-1 #
coedge $-1 $320 $322 $249 $289 reversed $323 $-1 #
edge $-1 $290 -32.232732627664461 $324 32.232732627664461 $288 $325 forward 7 unknown #
vertex $-1 $289 $326 #
straight-curve $-1 0 -32.232732627664461 14.056804184173089 1 0 0 I I #
straight-curve $-1 0 -32.232732627664461 -14.056804184173089 -1 0 0 I I #
vertex $-1 $259 $327 #
straight-curve $-1 0 32.232732627664461 -14.056804184173089 1 0 0 I I #
point $-1 60.260628070925016 32.232732627664461 -14.056804184173089 #
point $-1 60.260628070925016 -32.232732627664461 -14.056804184173089 #
straight-curve $-1 -60.260628070925016 32.232732627664461 0 0 0 -1 I I #
straight-curve $-1 -60.260628070925016 0 -14.056804184173089 0 1 0 I I #
point $-1 -60.260628070925016 -32.232732627664461 -14.056804184173089 #
straight-curve $-1 60.260628070925016 32.232732627664461 0 0 0 -1 I I #
face $-1 $-1 $323 $11 $-1 $328 reversed single #
loop $-1 $-1 $329 $273 #
plane-surface $-1 0 32.232732627664461 0 0 -1 0 0 0 -1 forward_v I I I I #
coedge $-1 $330 $276 $318 $331 forward $238 $-1 #
coedge $-1 $276 $330 $332 $333 forward $238 $-1 #
coedge $-1 $322 $320 $276 $307 reversed $323 $-1 #
edge $-1 $334 -32.232732627664461 $335 32.232732627664461 $306 $336 forward 7 unknown #
coedge $-1 $329 $337 $277 $309 reversed $302 $-1 #
edge $-1 $324 -60.260628070925016 $311 60.260628070925016 $308 $338 forward 7 unknown #
coedge $-1 $339 $278 $337 $340 forward $274 $-1 #
vertex $-1 $309 $341 #
straight-curve $-1 -60.260628070925016 0 14.056804184173089 0 -1 0 I I #
point $-1 -60.260628070925016 -26.019468162757839 14.056804184173089 #
coedge $-1 $282 $339 $286 $319 reversed $274 $-1 #
vertex $-1 $319 $342 #
straight-curve $-1 -60.260628070925016 -28.316310045001298 10.651595952657217 0 0.55919289150049634 0.82903758062907751 I I #
straight-curve $-1 -25.118955093177064 -32.232732627664461 4.8452605145586238 -1 0 0 I I #
coedge $-1 $287 $286 $304 $331 reversed $195 $-1 #
edge $-1 $315 -4.8452605145586247 $343 14.056804184173089 $314 $344 forward 7 unknown #
coedge $-1 $306 $288 $287 $321 forward $323 $-1 #
edge $-1 $290 -14.056804184173089 $335 14.056804184173089 $320 $345 forward 7 unknown #
coedge $-1 $288 $306 $329 $346 reversed $323 $-1 #
loop $-1 $-1 $320 $301 #
vertex $-1 $289 $347 #
straight-curve $-1 60.260628070925016 0 14.056804184173089 0 1 0 I I #
point $-1 60.260628070925016 -32.232732627664461 14.056804184173089 #
point $-1 -60.260628070925016 32.232732627664461 -14.056804184173089 #
plane-surface $-1 60.260628070925016 0 0 -1 0 0 0 0 1 forward_v I I I I #
coedge $-1 $332 $308 $322 $346 forward $302 $-1 #
coedge $-1 $305 $304 $339 $348 forward $238 $-1 #
edge $-1 $335 -60.260628070925016 $343 60.260628070925016 $318 $349 forward 7 unknown #
coedge $-1 $337 $329 $305 $333 reversed $302 $-1 #
edge $-1 $350 -60.260628070925016 $334 60.260628070925016 $332 $351 forward 7 unknown #
vertex $-1 $307 $352 #
vertex $-1 $321 $353 #
straight-curve $-1 60.260628070925016 0 -14.056804184173089 0 -1 0 I I #
coedge $-1 $308 $332 $310 $340 reversed $302 $-1 #
straight-curve $-1 0 32.232732627664461 14.056804184173089 -1 0 0 I I #
coedge $-1 $314 $310 $330 $348 reversed $274 $-1 #
edge $-1 $311 -14.056804184173089 $350 14.056804184173089 $337 $354 forward 7 unknown #
point $-1 -60.260628070925016 32.232732627664461 14.056804184173089 #
point $-1 -60.260628070925016 -32.232732627664461 4.8452605145586247 #
vertex $-1 $348 $355 #
straight-curve $-1 -60.260628070925016 -32.232732627664461 0 0 0 -1 I I #
straight-curve $-1 60.260628070925016 -32.232732627664461 0 0 0 -1 I I #
edge $-1 $324 -14.056804184173089 $334 14.056804184173089 $322 $356 forward 7 unknown #
point $-1 60.260628070925016 32.232732627664461 14.056804184173089 #
edge $-1 $343 -32.232732627664461 $350 32.232732627664461 $339 $357 forward 7 unknown #
straight-curve $-1 0 -32.232732627664461 -14.056804184173089 -1 0 0 I I #
vertex $-1 $333 $358 #
straight-curve $-1 0 32.232732627664461 -14.056804184173089 1 0 0 I I #
point $-1 60.260628070925016 32.232732627664461 -14.056804184173089 #
point $-1 60.260628070925016 -32.232732627664461 -14.056804184173089 #
straight-curve $-1 -60.260628070925016 32.232732627664461 0 0 0 -1 I I #
point $-1 -60.260628070925016 -32.232732627664461 -14.056804184173089 #
straight-curve $-1 60.260628070925016 32.232732627664461 0 0 0 -1 I I #
straight-curve $-1 -60.260628070925016 0 -14.056804184173089 0 1 0 I I #
point $-1 -60.260628070925016 32.232732627664461 -14.056804184173089 #
End-of-ACIS-data 