500 0 5 0           
7 Unknown 11 ACIS 5.0 NT 24 Thu Mar 25 16:58:27 1999 
-1 9.9999999999999995e-007 1e-010 
body $-1 $5 $-1 $6 #
body $-1 $7 $-1 $8 #
body $-1 $9 $-1 $10 #
body $-1 $11 $-1 $12 #
body $-1 $13 $-1 $14 #
lump $-1 $-1 $15 $0 #
transform $-1 1 0 0 0 1 0 0 0 1 60.145878475295262 25.137662176686103 5.5534233445482659 1 rotate no_reflect no_shear #
lump $-1 $-1 $16 $1 #
transform $-1 1 0 0 0 1 0 0 0 1 60.145878475295262 25.137662176686103 5.5534233445482659 1 rotate no_reflect no_shear #
lump $-1 $-1 $17 $2 #
transform $-1 1 0 0 0 1 0 0 0 1 60.145878475295262 25.137662176686103 5.5534233445482659 1 rotate no_reflect no_shear #
lump $-1 $-1 $18 $3 #
transform $-1 1 0 0 0 1 0 0 0 1 60.145878475295262 25.137662176686103 5.5534233445482659 1 rotate no_reflect no_shear #
lump $-1 $-1 $19 $4 #
transform $-1 1 0 0 0 1 0 0 0 1 60.145878475295262 25.137662176686103 5.5534233445482659 1 rotate no_reflect no_shear #
shell $-1 $-1 $-1 $20 $-1 $5 #
shell $-1 $-1 $-1 $21 $-1 $7 #
shell $-1 $-1 $-1 $22 $-1 $9 #
shell $-1 $-1 $-1 $23 $-1 $11 #
shell $-1 $-1 $-1 $24 $-1 $13 #
face $-1 $25 $26 $15 $-1 $27 forward single #
face $-1 $28 $29 $16 $-1 $30 forward single #
face $-1 $31 $32 $17 $-1 $33 reversed single #
face $-1 $34 $35 $18 $-1 $36 forward single #
face $-1 $37 $38 $19 $-1 $39 reversed single #
face $-1 $40 $41 $15 $-1 $42 reversed single #
loop $-1 $-1 $43 $20 #
plane-surface $-1 0 0 5.5534233445482659 0 0 1 1 0 0 forward_v I I I I #
face $-1 $44 $45 $16 $-1 $46 forward single #
loop $-1 $-1 $47 $21 #
plane-surface $-1 43.585983707981455 -25.137662176686092 0.9988641142130632 0 -0.69465837861970381 0.71933979245794832 1 0 0 forward_v I I I I #
face $-1 $48 $49 $17 $-1 $50 reversed single #
loop $-1 $51 $52 $22 #
cone-surface $-1 43.585983707981455 -22.278102214667548 2.7569620398230565 0 0.69465837861970381 -0.71933979245794832 1 0 0 1 I I 0 1 1 forward I I I I #
face $-1 $53 $54 $18 $-1 $55 forward single #
loop $-1 $-1 $56 $23 #
plane-surface $-1 43.585983707981455 -11.027379209424709 35.923039414106313 0 0.69465837861970381 0.71933979245794832 1 0 0 forward_v I I I I #
face $-1 $57 $58 $19 $-1 $59 reversed single #
loop $-1 $60 $61 $24 #
cone-surface $-1 43.585983707981455 22.278102214667545 2.7569620398230503 0 -0.69465837861970381 -0.71933979245794832 1 0 0 1 I I 0 1 1 forward I I I I #
face $-1 $62 $63 $15 $-1 $64 reversed single #
loop $-1 $-1 $65 $25 #
plane-surface $-1 0 0 -5.5534233445482659 0 0 1 1 0 0 forward_v I I I I #
coedge $-1 $66 $67 $68 $69 forward $26 $-1 #
face $-1 $70 $71 $16 $-1 $72 forward single #
loop $-1 $-1 $73 $28 #
plane-surface $-1 27.026088940667655 -108.6993390212988 87.52951159345281 1 0 0 0 0.69465837861970381 -0.71933979245794832 forward_v I I I I #
coedge $-1 $74 $75 $76 $77 reversed $29 $-1 #
face $-1 $78 $79 $17 $-1 $80 forward single #
loop $-1 $81 $82 $31 #
cone-surface $-1 43.585983707981455 -21.42940508428385 1.878110454036471 0 0.69465837861970381 -0.71933979245794832 0.5 0 0 1 I I -0.70710678118654746 0.70710678118654746 0.5 forward I I I I #
loop $-1 $-1 $83 $22 #
coedge $-1 $52 $52 $84 $85 reversed $32 $-1 #
face $-1 $86 $87 $18 $-1 $88 reversed single #
loop $-1 $-1 $89 $34 #
plane-surface $-1 27.026088940667655 72.534297635187997 122.45368689334606 1 0 0 0 -0.69465837861970381 -0.71933979245794832 forward_v I I I I #
coedge $-1 $90 $91 $92 $93 reversed $35 $-1 #
face $-1 $94 $95 $19 $-1 $96 forward single #
loop $-1 $97 $98 $37 #
cone-surface $-1 43.585983707981455 21.429405084283847 1.8781104540364648 0 -0.69465837861970381 -0.71933979245794832 0.5 0 0 1 I I -0.70710678118654746 0.70710678118654746 0.5 forward I I I I #
loop $-1 $-1 $99 $24 #
coedge $-1 $61 $61 $100 $101 reversed $38 $-1 #
face $-1 $102 $103 $15 $-1 $104 reversed single #
loop $-1 $-1 $105 $40 #
plane-surface $-1 0 -25.137662176686103 0 0 1 0 0 0 1 forward_v I I I I #
coedge $-1 $106 $107 $108 $109 forward $41 $-1 #
coedge $-1 $110 $43 $111 $112 forward $26 $-1 #
coedge $-1 $43 $110 $113 $114 forward $26 $-1 #
coedge $-1 $115 $116 $43 $69 reversed $117 $-1 #
edge $-1 $118 -25.137662176686103 $119 25.137662176686103 $68 $120 forward 7 unknown #
face $-1 $121 $122 $16 $-1 $123 reversed single #
loop $-1 $-1 $124 $44 #
plane-surface $-1 0 0 5.5534233445482659 0 0 1 1 0 0 forward_v I I I I #
coedge $-1 $125 $126 $124 $127 reversed $45 $-1 #
coedge $-1 $128 $47 $126 $129 reversed $29 $-1 #
coedge $-1 $47 $128 $130 $131 reversed $29 $-1 #
coedge $-1 $132 $124 $47 $77 forward $71 $-1 #
edge $-1 $133 5.2330970866769277 $134 38.352886621304528 $76 $135 forward 7 unknown #
face $-1 $136 $137 $17 $-1 $138 forward single #
loop $-1 $139 $84 $48 #
plane-surface $-1 43.585983707981455 -25.137662176686092 0.9988641142130632 0 -0.69465837861970381 0.71933979245794832 1 0 0 forward_v I I I I #
loop $-1 $-1 $140 $31 #
coedge $-1 $82 $82 $83 $141 forward $49 $-1 #
coedge $-1 $83 $83 $82 $141 reversed $51 $-1 #
coedge $-1 $84 $84 $52 $85 forward $79 $-1 #
edge $-1 $142 5.7154828014275099e-016 $142 6.2831853071796013 $84 $143 forward 7 unknown #
face $-1 $144 $145 $18 $-1 $146 reversed single #
loop $-1 $-1 $147 $53 #
plane-surface $-1 0 25.137662176686103 0 0 -1 0 0 0 -1 forward_v I I I I #
coedge $-1 $148 $149 $147 $150 reversed $54 $-1 #
coedge $-1 $151 $56 $149 $152 reversed $35 $-1 #
coedge $-1 $56 $151 $153 $154 reversed $35 $-1 #
coedge $-1 $155 $147 $56 $93 forward $87 $-1 #
edge $-1 $156 5.2330970866769277 $157 38.352886621304535 $92 $158 forward 7 unknown #
face $-1 $159 $160 $19 $-1 $161 forward single #
loop $-1 $162 $100 $57 #
plane-surface $-1 43.585983707981455 -11.027379209424709 35.923039414106313 0 0.69465837861970381 0.71933979245794832 1 0 0 forward_v I I I I #
loop $-1 $-1 $163 $37 #
coedge $-1 $98 $98 $99 $164 forward $58 $-1 #
coedge $-1 $99 $99 $98 $164 reversed $60 $-1 #
coedge $-1 $100 $100 $61 $101 forward $95 $-1 #
edge $-1 $165 1.2339611619077996e-015 $165 6.2831853071796013 $100 $166 forward 7 unknown #
face $-1 $167 $168 $15 $-1 $169 reversed single #
loop $-1 $-1 $170 $62 #
plane-surface $-1 -60.145878475295262 0 0 1 0 0 0 0 -1 forward_v I I I I #
coedge $-1 $171 $113 $172 $173 forward $63 $-1 #
coedge $-1 $174 $65 $171 $175 forward $41 $-1 #
coedge $-1 $65 $174 $176 $177 forward $41 $-1 #
coedge $-1 $116 $115 $65 $109 reversed $117 $-1 #
edge $-1 $178 -25.137662176686103 $179 25.137662176686103 $108 $180 forward 7 unknown #
coedge $-1 $67 $66 $181 $182 forward $26 $-1 #
coedge $-1 $183 $184 $66 $112 reversed $168 $-1 #
edge $-1 $119 -60.145878475295262 $185 60.145878475295262 $111 $186 forward 7 unknown #
coedge $-1 $105 $187 $67 $114 reversed $63 $-1 #
edge $-1 $188 -60.145878475295262 $118 60.145878475295262 $113 $189 forward 7 unknown #
coedge $-1 $108 $68 $187 $190 forward $117 $-1 #
coedge $-1 $68 $108 $183 $191 reversed $117 $-1 #
loop $-1 $-1 $115 $167 #
vertex $-1 $69 $192 #
vertex $-1 $69 $193 #
straight-curve $-1 60.145878475295262 0 5.5534233445482659 0 1 0 I I #
face $-1 $194 $195 $16 $-1 $196 reversed single #
loop $-1 $-1 $130 $70 #
plane-surface $-1 60.145878475295262 0 0 -1 0 0 0 0 1 forward_v I I I I #
coedge $-1 $76 $197 $73 $127 forward $71 $-1 #
coedge $-1 $126 $73 $198 $199 reversed $45 $-1 #
coedge $-1 $73 $125 $74 $129 forward $45 $-1 #
edge $-1 $200 29.212007333963296 $133 33.92839137585274 $124 $201 forward 7 unknown #
coedge $-1 $75 $74 $202 $203 reversed $29 $-1 #
edge $-1 $204 -1.4839224214701683e-014 $133 6.55654544811678 $126 $205 forward 7 unknown #
coedge $-1 $206 $207 $75 $131 forward $122 $-1 #
edge $-1 $134 2.1377802353905881 $208 8.6943256835073832 $130 $209 forward 7 unknown #
coedge $-1 $210 $76 $207 $211 forward $71 $-1 #
vertex $-1 $77 $212 #
vertex $-1 $211 $213 #
straight-curve $-1 21.792991853990728 -20.421278134796662 5.5534233445482659 1 0 0 I I #
face $-1 $214 $215 $17 $-1 $216 forward single #
loop $-1 $-1 $217 $78 #
plane-surface $-1 27.026088940667655 -108.6993390212988 87.52951159345281 1 0 0 0 0.69465837861970381 -0.71933979245794832 forward_v I I I I #
loop $-1 $-1 $218 $48 #
coedge $-1 $140 $140 $-1 $219 forward $81 $-1 #
edge $-1 $220 0 $220 6.2831853071796004 $82 $221 forward 7 unknown #
vertex $-1 $85 $222 #
ellipse-curve $-1 43.585983707981455 -22.779470155741382 3.2761437293806575 0 0.69465837861970381 -0.71933979245794832 1 0 0 1 I I #
face $-1 $223 $224 $18 $-1 $225 reversed single #
loop $-1 $-1 $153 $86 #
plane-surface $-1 60.145878475295262 0 0 -1 0 0 0 0 1 forward_v I I I I #
coedge $-1 $92 $226 $89 $150 forward $87 $-1 #
coedge $-1 $149 $89 $227 $228 reversed $54 $-1 #
coedge $-1 $89 $148 $90 $152 forward $54 $-1 #
edge $-1 $229 55.673420102124766 $156 60.227979332459974 $147 $230 forward 7 unknown #
coedge $-1 $91 $90 $231 $232 reversed $35 $-1 #
edge $-1 $233 43.718778905255434 $156 50.275324353372227 $149 $234 forward 7 unknown #
coedge $-1 $235 $236 $91 $154 forward $145 $-1 #
edge $-1 $157 -33.831987860193493 $237 -27.275442412076693 $153 $238 forward 7 unknown #
coedge $-1 $239 $92 $236 $240 forward $87 $-1 #
vertex $-1 $93 $241 #
vertex $-1 $240 $242 #
straight-curve $-1 21.792991853990728 25.137662176686099 0.99886411421305255 1 0 0 I I #
face $-1 $243 $244 $19 $-1 $245 reversed single #
loop $-1 $-1 $246 $94 #
plane-surface $-1 27.026088940667655 72.534297635187997 122.45368689334606 1 0 0 0 -0.69465837861970381 -0.71933979245794832 forward_v I I I I #
loop $-1 $-1 $247 $57 #
coedge $-1 $163 $163 $-1 $248 forward $97 $-1 #
edge $-1 $249 0 $249 6.2831853071796004 $98 $250 forward 7 unknown #
vertex $-1 $101 $251 #
ellipse-curve $-1 43.585983707981455 22.779470155741389 3.2761437293806597 0 -0.69465837861970381 -0.71933979245794832 1 0 0 1 I I #
face $-1 $-1 $117 $15 $-1 $252 reversed single #
loop $-1 $-1 $183 $102 #
plane-surface $-1 0 25.137662176686103 0 0 -1 0 0 0 -1 forward_v I I I I #
coedge $-1 $253 $181 $184 $254 forward $103 $-1 #
coedge $-1 $187 $105 $106 $175 reversed $63 $-1 #
coedge $-1 $181 $253 $105 $173 reversed $103 $-1 #
edge $-1 $188 -5.5534233445482659 $255 5.5534233445482659 $172 $256 forward 7 unknown #
coedge $-1 $107 $106 $253 $257 forward $41 $-1 #
edge $-1 $179 -60.145878475295262 $255 60.145878475295262 $171 $258 forward 7 unknown #
coedge $-1 $184 $183 $107 $177 reversed $168 $-1 #
edge $-1 $259 -60.145878475295262 $178 60.145878475295262 $176 $260 forward 7 unknown #
vertex $-1 $109 $261 #
vertex $-1 $190 $262 #
straight-curve $-1 60.145878475295262 0 -5.5534233445482659 0 -1 0 I I #
coedge $-1 $170 $172 $110 $182 reversed $103 $-1 #
edge $-1 $185 -25.137662176686103 $188 25.137662176686103 $181 $263 forward 7 unknown #
coedge $-1 $176 $111 $116 $191 forward $168 $-1 #
coedge $-1 $111 $176 $170 $254 reversed $168 $-1 #
vertex $-1 $112 $264 #
straight-curve $-1 0 25.137662176686103 5.5534233445482659 -1 0 0 I I #
coedge $-1 $113 $171 $115 $190 reversed $63 $-1 #
vertex $-1 $182 $265 #
straight-curve $-1 0 -25.137662176686103 5.5534233445482659 1 0 0 I I #
edge $-1 $118 -5.5534233445482659 $179 5.5534233445482659 $115 $266 forward 7 unknown #
edge $-1 $119 -5.5534233445482659 $178 5.5534233445482659 $116 $267 forward 7 unknown #
point $-1 60.145878475295262 -25.137662176686103 5.5534233445482659 #
point $-1 60.145878475295262 25.137662176686103 5.5534233445482659 #
face $-1 $268 $269 $16 $-1 $270 reversed single #
loop $-1 $-1 $271 $121 #
plane-surface $-1 0 0 -5.5534233445482659 0 0 1 1 0 0 forward_v I I I I #
coedge $-1 $124 $272 $273 $274 forward $71 $-1 #
coedge $-1 $273 $202 $125 $199 forward $269 $-1 #
edge $-1 $204 -42.765891682513349 $200 -38.211332452178141 $198 $275 forward 7 unknown #
vertex $-1 $199 $276 #
straight-curve $-1 27.026088940667655 -54.349669510649399 5.5534233445482641 0 1 0 I I #
coedge $-1 $198 $277 $128 $203 forward $269 $-1 #
edge $-1 $208 -38.352886621304528 $204 -5.2330970866769277 $202 $278 forward 7 unknown #
vertex $-1 $203 $279 #
straight-curve $-1 27.026088940667655 -25.137662176686092 0.9988641142130632 0 0.71933979245794832 0.69465837861970381 I I #
coedge $-1 $280 $130 $277 $281 forward $122 $-1 #
coedge $-1 $130 $282 $132 $211 reversed $122 $-1 #
vertex $-1 $281 $283 #
straight-curve $-1 60.145878475295262 -18.883487743950091 7.0384502967099403 0 -0.71933979245794832 -0.69465837861970381 I I #
coedge $-1 $272 $132 $284 $285 forward $71 $-1 #
edge $-1 $134 -20.421278134796662 $286 25.137662176686103 $207 $287 forward 7 unknown #
point $-1 27.026088940667655 -20.421278134796662 5.5534233445482659 #
point $-1 60.145878475295255 -20.421278134796662 5.5534233445482659 #
face $-1 $288 $289 $17 $-1 $290 reversed single #
loop $-1 $-1 $291 $136 #
plane-surface $-1 0 0 5.5534233445482659 0 0 1 1 0 0 forward_v I I I I #
coedge $-1 $292 $293 $291 $294 reversed $137 $-1 #
coedge $-1 $295 $296 $297 $298 reversed $139 $-1 #
edge $-1 $299 1 $299 0 $140 $-1 forward 7 unknown #
vertex $-1 $141 $300 #
ellipse-curve $-1 43.585983707981455 -21.776734273593704 2.237780350265445 0 -0.69465837861970381 0.71933979245794832 1 0 0 1 I I #
point $-1 44.585983707981455 -22.779470155741393 3.2761437293806677 #
face $-1 $301 $302 $18 $-1 $303 reversed single #
loop $-1 $304 $305 $144 #
cone-surface $-1 43.585983707981455 -22.278102214667548 2.7569620398230565 0 0.69465837861970381 -0.71933979245794832 1 0 0 1 I I 0 1 1 forward I I I I #
coedge $-1 $147 $306 $307 $308 reversed $87 $-1 #
coedge $-1 $307 $231 $148 $228 forward $309 $-1 #
edge $-1 $233 -15.845870682797333 $229 -11.129486640907896 $227 $310 forward 7 unknown #
vertex $-1 $308 $311 #
straight-curve $-1 27.026088940667655 25.137662176686103 61.22684344667303 0 0 -1 I I #
coedge $-1 $227 $312 $151 $232 forward $309 $-1 #
edge $-1 $237 -38.352886621304528 $233 -5.2330970866769277 $231 $313 forward 7 unknown #
vertex $-1 $232 $314 #
straight-curve $-1 27.026088940667655 -11.027379209424709 35.923039414106313 0 0.71933979245794832 -0.69465837861970381 I I #
coedge $-1 $315 $153 $312 $316 reversed $145 $-1 #
coedge $-1 $153 $317 $155 $240 reversed $145 $-1 #
vertex $-1 $232 $318 #
straight-curve $-1 60.145878475295262 0.80096705089469022 24.500537946656564 0 -0.71933979245794832 0.69465837861970381 I I #
coedge $-1 $306 $155 $319 $320 reversed $87 $-1 #
edge $-1 $157 -0.99886411421304999 $321 5.5534233445482659 $236 $322 forward 7 unknown #
point $-1 27.026088940667655 25.137662176686106 0.9988641142130561 #
point $-1 60.145878475295262 25.137662176686103 0.99886411421304999 #
face $-1 $323 $324 $19 $-1 $325 reversed single #
loop $-1 $-1 $326 $159 #
plane-surface $-1 0 25.137662176686103 0 0 -1 0 0 0 -1 forward_v I I I I #
coedge $-1 $327 $328 $326 $329 reversed $160 $-1 #
coedge $-1 $330 $331 $332 $333 reversed $162 $-1 #
edge $-1 $334 1 $334 0 $163 $-1 forward 7 unknown #
vertex $-1 $164 $335 #
ellipse-curve $-1 43.585983707981455 21.7767342735937 2.2377803502654388 0 0.69465837861970381 0.71933979245794832 1 0 0 1 I I #
point $-1 44.585983707981455 22.779470155741389 3.2761437293806615 #
plane-surface $-1 60.145878475295262 0 0 -1 0 0 0 0 1 forward_v I I I I #
coedge $-1 $172 $170 $174 $257 reversed $103 $-1 #
edge $-1 $185 -5.5534233445482659 $259 5.5534233445482659 $184 $336 forward 7 unknown #
vertex $-1 $257 $337 #
straight-curve $-1 -60.145878475295262 -25.137662176686103 0 0 0 -1 I I #
edge $-1 $255 -25.137662176686103 $259 25.137662176686103 $253 $338 forward 7 unknown #
straight-curve $-1 0 -25.137662176686103 -5.5534233445482659 -1 0 0 I I #
vertex $-1 $177 $339 #
straight-curve $-1 0 25.137662176686103 -5.5534233445482659 1 0 0 I I #
point $-1 60.145878475295262 25.137662176686103 -5.5534233445482659 #
point $-1 60.145878475295262 -25.137662176686103 -5.5534233445482659 #
straight-curve $-1 -60.145878475295262 0 5.5534233445482659 0 -1 0 I I #
point $-1 -60.145878475295262 25.137662176686103 5.5534233445482659 #
point $-1 -60.145878475295262 -25.137662176686103 5.5534233445482659 #
straight-curve $-1 60.145878475295262 -25.137662176686103 0 0 0 -1 I I #
straight-curve $-1 60.145878475295262 25.137662176686103 0 0 0 -1 I I #
face $-1 $340 $341 $16 $-1 $342 reversed single #
loop $-1 $-1 $198 $194 #
plane-surface $-1 0 -25.137662176686103 0 0 1 0 0 0 1 forward_v I I I I #
coedge $-1 $343 $344 $280 $345 forward $195 $-1 #
coedge $-1 $197 $210 $346 $347 forward $71 $-1 #
coedge $-1 $348 $198 $197 $274 reversed $269 $-1 #
edge $-1 $349 -60.145878475295262 $200 27.026088940667655 $273 $350 forward 7 unknown #
straight-curve $-1 27.026088940667655 -25.137662176686106 43.764755796726405 0 0 1 I I #
point $-1 27.026088940667655 -25.137662176686103 5.5534233445482659 #
coedge $-1 $202 $351 $206 $281 reversed $269 $-1 #
straight-curve $-1 21.792991853990728 -25.137662176686103 0.99886411421305366 -1 0 0 I I #
point $-1 27.026088940667655 -25.137662176686103 0.99886411421305288 #
coedge $-1 $282 $206 $271 $345 reversed $122 $-1 #
edge $-1 $208 -0.99886411421305288 $352 5.5534233445482659 $206 $353 forward 7 unknown #
coedge $-1 $207 $280 $354 $355 reversed $122 $-1 #
point $-1 60.145878475295255 -25.137662176686103 0.99886411421305288 #
coedge $-1 $354 $356 $210 $285 reversed $357 $-1 #
edge $-1 $286 -60.145878475295262 $358 60.145878475295262 $284 $359 forward 7 unknown #
vertex $-1 $211 $360 #
straight-curve $-1 60.145878475295262 0 5.5534233445482659 0 1 0 I I #
face $-1 $361 $362 $17 $-1 $363 reversed single #
loop $-1 $-1 $364 $214 #
plane-surface $-1 60.145878475295262 0 0 -1 0 0 0 0 1 forward_v I I I I #
coedge $-1 $297 $365 $217 $294 forward $215 $-1 #
coedge $-1 $293 $217 $366 $367 reversed $137 $-1 #
coedge $-1 $217 $292 $295 $368 forward $137 $-1 #
edge $-1 $369 29.212007333963296 $370 33.92839137585274 $291 $371 forward 7 unknown #
coedge $-1 $372 $218 $293 $368 reversed $139 $-1 #
coedge $-1 $218 $372 $364 $373 reversed $139 $-1 #
coedge $-1 $374 $291 $218 $298 forward $215 $-1 #
edge $-1 $370 5.2330970866769277 $375 38.352886621304528 $297 $376 forward 7 unknown #
vertex $-1 $219 $377 #
point $-1 44.585983707981455 -21.776734273593704 2.237780350265445 #
face $-1 $378 $379 $18 $-1 $380 forward single #
loop $-1 $381 $382 $223 #
cone-surface $-1 43.585983707981455 -21.42940508428385 1.878110454036471 0 0.69465837861970381 -0.71933979245794832 0.5 0 0 1 I I -0.70710678118654746 0.70710678118654746 0.5 forward I I I I #
loop $-1 $-1 $383 $144 #
coedge $-1 $305 $305 $384 $385 reversed $224 $-1 #
coedge $-1 $226 $239 $386 $387 reversed $87 $-1 #
coedge $-1 $388 $227 $226 $308 forward $309 $-1 #
edge $-1 $229 -27.026088940667655 $389 60.145878475295262 $226 $390 forward 7 unknown #
loop $-1 $-1 $227 $391 #
straight-curve $-1 27.026088940667655 36.267148817593998 5.5534233445482641 0 1 0 I I #
point $-1 27.026088940667655 25.137662176686103 5.5534233445482659 #
coedge $-1 $231 $392 $235 $316 forward $309 $-1 #
straight-curve $-1 21.792991853990728 20.421278134796665 5.5534233445482641 -1 0 0 I I #
point $-1 27.026088940667655 20.421278134796665 5.5534233445482641 #
coedge $-1 $393 $235 $394 $395 forward $145 $-1 #
edge $-1 $396 -20.421278134796662 $237 20.421278134796665 $235 $397 forward 7 unknown #
coedge $-1 $236 $393 $398 $399 reversed $145 $-1 #
point $-1 60.145878475295255 20.421278134796665 5.5534233445482641 #
coedge $-1 $398 $400 $239 $320 forward $401 $-1 #
edge $-1 $402 -60.145878475295262 $321 60.145878475295262 $239 $403 forward 7 unknown #
vertex $-1 $399 $404 #
straight-curve $-1 60.145878475295262 25.137662176686103 0 0 0 -1 I I #
face $-1 $405 $406 $19 $-1 $407 reversed single #
loop $-1 $-1 $408 $243 #
plane-surface $-1 60.145878475295262 0 0 -1 0 0 0 0 1 forward_v I I I I #
coedge $-1 $332 $409 $246 $329 forward $244 $-1 #
coedge $-1 $328 $246 $410 $411 reversed $160 $-1 #
coedge $-1 $246 $327 $330 $412 forward $160 $-1 #
edge $-1 $413 55.673420102124766 $414 60.227979332459974 $326 $415 forward 7 unknown #
coedge $-1 $416 $247 $328 $412 reversed $162 $-1 #
coedge $-1 $247 $416 $408 $417 reversed $162 $-1 #
coedge $-1 $418 $326 $247 $333 forward $244 $-1 #
edge $-1 $414 5.2330970866769277 $419 38.352886621304535 $332 $420 forward 7 unknown #
vertex $-1 $248 $421 #
point $-1 44.585983707981455 21.7767342735937 2.2377803502654388 #
straight-curve $-1 -60.145878475295262 25.137662176686103 0 0 0 -1 I I #
point $-1 -60.145878475295262 -25.137662176686103 -5.5534233445482659 #
straight-curve $-1 -60.145878475295262 0 -5.5534233445482659 0 1 0 I I #
point $-1 -60.145878475295262 25.137662176686103 -5.5534233445482659 #
face $-1 $-1 $357 $16 $-1 $422 reversed single #
loop $-1 $-1 $423 $268 #
plane-surface $-1 -60.145878475295262 0 0 1 0 0 0 0 -1 forward_v I I I I #
coedge $-1 $424 $271 $351 $425 forward $195 $-1 #
coedge $-1 $271 $424 $426 $427 forward $195 $-1 #
edge $-1 $428 -25.137662176686103 $352 25.137662176686103 $280 $429 forward 7 unknown #
coedge $-1 $423 $430 $272 $347 reversed $341 $-1 #
edge $-1 $358 -25.137662176686103 $349 25.137662176686103 $346 $431 forward 7 unknown #
coedge $-1 $351 $273 $430 $432 forward $269 $-1 #
vertex $-1 $347 $433 #
straight-curve $-1 0 -25.137662176686103 5.5534233445482659 1 0 0 I I #
coedge $-1 $277 $348 $343 $425 reversed $269 $-1 #
vertex $-1 $281 $434 #
straight-curve $-1 60.145878475295262 -25.137662176686103 0 0 0 -1 I I #
coedge $-1 $426 $284 $282 $355 forward $357 $-1 #
edge $-1 $286 -5.5534233445482659 $428 5.5534233445482659 $282 $435 forward 7 unknown #
coedge $-1 $284 $426 $423 $436 reversed $357 $-1 #
loop $-1 $-1 $354 $340 #
vertex $-1 $285 $437 #
straight-curve $-1 0 25.137662176686103 5.5534233445482659 -1 0 0 I I #
point $-1 60.145878475295262 25.137662176686103 5.5534233445482659 #
face $-1 $438 $439 $17 $-1 $440 reversed single #
loop $-1 $-1 $441 $288 #
plane-surface $-1 0 0 -5.5534233445482659 0 0 1 1 0 0 forward_v I I I I #
coedge $-1 $442 $443 $296 $373 forward $289 $-1 #
coedge $-1 $291 $444 $445 $446 forward $215 $-1 #
coedge $-1 $445 $447 $292 $367 forward $439 $-1 #
edge $-1 $448 -42.765891682513349 $369 -38.211332452178141 $366 $449 forward 7 unknown #
edge $-1 $448 -1.4839224214701683e-014 $370 6.55654544811678 $293 $450 forward 7 unknown #
vertex $-1 $367 $451 #
vertex $-1 $298 $452 #
straight-curve $-1 27.026088940667655 -54.349669510649399 5.5534233445482641 0 1 0 I I #
coedge $-1 $296 $295 $447 $453 reversed $139 $-1 #
edge $-1 $375 2.1377802353905881 $454 8.6943256835073832 $364 $455 forward 7 unknown #
coedge $-1 $456 $297 $443 $457 forward $215 $-1 #
vertex $-1 $457 $458 #
straight-curve $-1 21.792991853990728 -20.421278134796662 5.5534233445482659 1 0 0 I I #
point $-1 43.585983707981455 -21.082075894973997 1.5184405578074969 #
face $-1 $391 $459 $18 $-1 $460 forward single #
loop $-1 $461 $384 $301 #
plane-surface $-1 43.585983707981455 -25.137662176686092 0.9988641142130632 0 -0.69465837861970381 0.71933979245794832 1 0 0 forward_v I I I I #
loop $-1 $-1 $462 $223 #
coedge $-1 $382 $382 $383 $463 forward $302 $-1 #
coedge $-1 $383 $383 $382 $463 reversed $304 $-1 #
coedge $-1 $384 $384 $305 $385 forward $379 $-1 #
edge $-1 $464 5.7154828014275099e-016 $464 6.2831853071796013 $384 $465 forward 7 unknown #
coedge $-1 $466 $467 $306 $387 forward $468 $-1 #
edge $-1 $389 -5.5534233445482659 $402 5.5534233445482659 $306 $469 forward 7 unknown #
coedge $-1 $470 $307 $467 $471 forward $309 $-1 #
vertex $-1 $308 $472 #
straight-curve $-1 0 25.137662176686103 5.5534233445482659 -1 0 0 I I #
face $-1 $473 $309 $18 $-1 $474 forward single #
coedge $-1 $312 $475 $476 $477 forward $309 $-1 #
coedge $-1 $317 $315 $478 $479 forward $145 $-1 #
coedge $-1 $476 $480 $315 $395 reversed $461 $-1 #
edge $-1 $396 2.1377802353905881 $481 8.6943256835073832 $315 $482 forward 7 unknown #
vertex $-1 $316 $483 #
straight-curve $-1 60.145878475295262 0 5.5534233445482659 0 1 0 I I #
coedge $-1 $484 $319 $317 $399 forward $401 $-1 #
edge $-1 $321 -25.137662176686103 $485 25.137662176686103 $317 $486 forward 7 unknown #
coedge $-1 $319 $484 $466 $487 forward $401 $-1 #
loop $-1 $-1 $398 $473 #
vertex $-1 $320 $488 #
straight-curve $-1 0 25.137662176686103 -5.5534233445482659 1 0 0 I I #
point $-1 60.145878475295262 25.137662176686103 -5.5534233445482659 #
face $-1 $489 $490 $19 $-1 $491 reversed single #
loop $-1 $492 $493 $323 #
cone-surface $-1 43.585983707981455 -22.278102214667548 2.7569620398230565 0 0.69465837861970381 -0.71933979245794832 1 0 0 1 I I 0 1 1 forward I I I I #
coedge $-1 $494 $495 $331 $417 forward $324 $-1 #
coedge $-1 $326 $496 $497 $498 reversed $244 $-1 #
coedge $-1 $497 $499 $327 $411 forward $500 $-1 #
edge $-1 $501 -15.845870682797333 $413 -11.129486640907896 $410 $502 forward 7 unknown #
edge $-1 $501 43.718778905255434 $414 50.275324353372227 $328 $503 forward 7 unknown #
vertex $-1 $498 $504 #
vertex $-1 $333 $505 #
straight-curve $-1 27.026088940667655 25.137662176686103 61.22684344667303 0 0 -1 I I #
coedge $-1 $331 $330 $499 $506 reversed $162 $-1 #
edge $-1 $419 -33.831987860193493 $507 -27.275442412076693 $408 $508 forward 7 unknown #
coedge $-1 $509 $332 $495 $510 forward $244 $-1 #
vertex $-1 $510 $511 #
straight-curve $-1 21.792991853990728 25.137662176686099 0.99886411421305255 1 0 0 I I #
point $-1 43.585983707981455 21.082075894973993 1.5184405578074907 #
plane-surface $-1 0 25.137662176686103 0 0 -1 0 0 0 -1 forward_v I I I I #
coedge $-1 $512 $346 $356 $436 forward $341 $-1 #
coedge $-1 $344 $343 $512 $513 forward $195 $-1 #
edge $-1 $352 -60.145878475295262 $514 60.145878475295262 $351 $515 forward 7 unknown #
coedge $-1 $356 $354 $344 $427 reversed $357 $-1 #
edge $-1 $516 -60.145878475295262 $428 60.145878475295262 $426 $517 forward 7 unknown #
vertex $-1 $345 $518 #
straight-curve $-1 60.145878475295262 0 -5.5534233445482659 0 -1 0 I I #
coedge $-1 $346 $512 $348 $432 reversed $341 $-1 #
straight-curve $-1 -60.145878475295262 0 5.5534233445482659 0 -1 0 I I #
edge $-1 $349 -5.5534233445482659 $514 5.5534233445482659 $430 $519 forward 7 unknown #
point $-1 -60.145878475295262 -25.137662176686103 5.5534233445482659 #
point $-1 60.145878475295262 -25.137662176686103 -5.5534233445482659 #
straight-curve $-1 60.145878475295262 25.137662176686103 0 0 0 -1 I I #
edge $-1 $358 -5.5534233445482659 $516 5.5534233445482659 $356 $520 forward 7 unknown #
point $-1 -60.145878475295262 25.137662176686103 5.5534233445482659 #
face $-1 $521 $522 $17 $-1 $523 reversed single #
loop $-1 $-1 $366 $361 #
plane-surface $-1 0 -25.137662176686103 0 0 1 0 0 0 1 forward_v I I I I #
coedge $-1 $524 $525 $526 $527 forward $362 $-1 #
coedge $-1 $526 $364 $528 $529 forward $289 $-1 #
coedge $-1 $364 $530 $374 $457 reversed $289 $-1 #
coedge $-1 $365 $456 $531 $532 forward $215 $-1 #
coedge $-1 $533 $366 $365 $446 reversed $439 $-1 #
edge $-1 $534 -60.145878475295262 $369 27.026088940667655 $445 $535 forward 7 unknown #
coedge $-1 $366 $528 $372 $453 forward $439 $-1 #
vertex $-1 $453 $536 #
straight-curve $-1 27.026088940667655 -25.137662176686106 43.764755796726405 0 0 1 I I #
straight-curve $-1 27.026088940667655 -25.137662176686092 0.9988641142130632 0 0.71933979245794832 0.69465837861970381 I I #
point $-1 27.026088940667655 -25.137662176686103 5.5534233445482659 #
point $-1 27.026088940667655 -20.421278134796662 5.5534233445482659 #
edge $-1 $454 -38.352886621304528 $448 -5.2330970866769277 $447 $537 forward 7 unknown #
vertex $-1 $529 $538 #
straight-curve $-1 60.145878475295262 -18.883487743950091 7.0384502967099403 0 -0.71933979245794832 -0.69465837861970381 I I #
coedge $-1 $444 $374 $539 $540 forward $215 $-1 #
edge $-1 $375 -20.421278134796662 $541 25.137662176686103 $443 $542 forward 7 unknown #
point $-1 60.145878475295255 -20.421278134796662 5.5534233445482659 #
loop $-1 $-1 $543 $378 #
plane-surface $-1 27.026088940667655 -108.6993390212988 87.52951159345281 1 0 0 0 0.69465837861970381 -0.71933979245794832 forward_v I I I I #
loop $-1 $-1 $476 $301 #
coedge $-1 $462 $462 $-1 $544 forward $381 $-1 #
edge $-1 $545 0 $545 6.2831853071796004 $382 $546 forward 7 unknown #
vertex $-1 $385 $547 #
ellipse-curve $-1 43.585983707981455 -22.779470155741382 3.2761437293806575 0 0.69465837861970381 -0.71933979245794832 1 0 0 1 I I #
coedge $-1 $548 $386 $400 $487 reversed $468 $-1 #
coedge $-1 $386 $548 $388 $471 reversed $468 $-1 #
loop $-1 $-1 $386 $549 #
straight-curve $-1 -60.145878475295262 25.137662176686103 0 0 0 -1 I I #
coedge $-1 $475 $388 $550 $551 forward $309 $-1 #
edge $-1 $389 -25.137662176686103 $552 25.137662176686103 $467 $553 forward 7 unknown #
point $-1 -60.145878475295262 25.137662176686103 5.5534233445482659 #
face $-1 $554 $401 $18 $-1 $555 reversed single #
plane-surface $-1 0 0 5.5534233445482659 0 0 1 1 0 0 forward_v I I I I #
coedge $-1 $392 $470 $543 $556 forward $309 $-1 #
coedge $-1 $557 $394 $392 $477 reversed $461 $-1 #
edge $-1 $558 5.2330970866769277 $396 38.352886621304528 $392 $559 forward 7 unknown #
coedge $-1 $560 $561 $393 $479 reversed $562 $-1 #
edge $-1 $481 -0.99886411421305288 $485 5.5534233445482659 $393 $563 forward 7 unknown #
coedge $-1 $394 $557 $560 $564 reversed $461 $-1 #
vertex $-1 $479 $565 #
straight-curve $-1 60.145878475295262 -18.883487743950091 7.0384502967099403 0 -0.71933979245794832 -0.69465837861970381 I I #
point $-1 60.145878475295255 -20.421278134796662 5.5534233445482659 #
coedge $-1 $400 $398 $561 $566 forward $401 $-1 #
vertex $-1 $479 $567 #
straight-curve $-1 60.145878475295262 0 -5.5534233445482659 0 -1 0 I I #
edge $-1 $568 -25.137662176686103 $402 25.137662176686103 $466 $569 forward 7 unknown #
point $-1 -60.145878475295262 25.137662176686103 -5.5534233445482659 #
face $-1 $570 $571 $19 $-1 $572 forward single #
loop $-1 $573 $574 $405 #
cone-surface $-1 43.585983707981455 -21.42940508428385 1.878110454036471 0 0.69465837861970381 -0.71933979245794832 0.5 0 0 1 I I -0.70710678118654746 0.70710678118654746 0.5 forward I I I I #
loop $-1 $-1 $575 $323 #
coedge $-1 $493 $493 $576 $577 reversed $406 $-1 #
coedge $-1 $578 $408 $579 $580 reversed $324 $-1 #
coedge $-1 $408 $581 $418 $510 reversed $324 $-1 #
coedge $-1 $409 $509 $582 $583 reversed $244 $-1 #
coedge $-1 $584 $410 $409 $498 forward $500 $-1 #
edge $-1 $413 -27.026088940667655 $585 60.145878475295262 $409 $586 forward 7 unknown #
coedge $-1 $410 $579 $416 $506 forward $500 $-1 #
loop $-1 $-1 $410 $587 #
vertex $-1 $506 $588 #
straight-curve $-1 27.026088940667655 36.267148817593998 5.5534233445482641 0 1 0 I I #
straight-curve $-1 27.026088940667655 -11.027379209424709 35.923039414106313 0 0.71933979245794832 -0.69465837861970381 I I #
point $-1 27.026088940667655 25.137662176686103 5.5534233445482659 #
point $-1 27.026088940667655 25.137662176686106 0.9988641142130561 #
edge $-1 $507 -38.352886621304528 $501 -5.2330970866769277 $499 $589 forward 7 unknown #
vertex $-1 $506 $590 #
straight-curve $-1 60.145878475295262 0.80096705089469022 24.500537946656564 0 -0.71933979245794832 0.69465837861970381 I I #
coedge $-1 $496 $418 $591 $592 reversed $244 $-1 #
edge $-1 $419 -0.99886411421304999 $593 5.5534233445482659 $495 $594 forward 7 unknown #
point $-1 60.145878475295262 25.137662176686103 0.99886411421304999 #
coedge $-1 $430 $423 $424 $513 reversed $341 $-1 #
edge $-1 $514 -25.137662176686103 $516 25.137662176686103 $512 $595 forward 7 unknown #
vertex $-1 $513 $596 #
straight-curve $-1 0 -25.137662176686103 -5.5534233445482659 -1 0 0 I I #
vertex $-1 $427 $597 #
straight-curve $-1 0 25.137662176686103 -5.5534233445482659 1 0 0 I I #
point $-1 60.145878475295262 25.137662176686103 -5.5534233445482659 #
straight-curve $-1 -60.145878475295262 -25.137662176686103 0 0 0 -1 I I #
straight-curve $-1 -60.145878475295262 25.137662176686103 0 0 0 -1 I I #
face $-1 $-1 $598 $17 $-1 $599 reversed single #
loop $-1 $-1 $600 $438 #
plane-surface $-1 -60.145878475295262 0 0 1 0 0 0 0 -1 forward_v I I I I #
coedge $-1 $601 $441 $602 $603 forward $362 $-1 #
coedge $-1 $441 $601 $604 $605 forward $362 $-1 #
coedge $-1 $530 $442 $441 $527 reversed $289 $-1 #
edge $-1 $606 -25.137662176686103 $607 25.137662176686103 $526 $608 forward 7 unknown #
coedge $-1 $447 $602 $442 $529 reversed $439 $-1 #
edge $-1 $454 -0.99886411421305288 $607 5.5534233445482659 $442 $609 forward 7 unknown #
coedge $-1 $443 $526 $610 $611 reversed $289 $-1 #
coedge $-1 $600 $612 $444 $532 reversed $522 $-1 #
edge $-1 $613 -25.137662176686103 $534 25.137662176686103 $531 $614 forward 7 unknown #
coedge $-1 $602 $445 $612 $615 forward $439 $-1 #
vertex $-1 $532 $616 #
straight-curve $-1 0 -25.137662176686103 5.5534233445482659 1 0 0 I I #
point $-1 27.026088940667655 -25.137662176686103 0.99886411421305288 #
straight-curve $-1 21.792991853990728 -25.137662176686103 0.99886411421305366 -1 0 0 I I #
point $-1 60.145878475295255 -25.137662176686103 0.99886411421305288 #
coedge $-1 $610 $617 $456 $540 reversed $598 $-1 #
edge $-1 $541 -60.145878475295262 $613 60.145878475295262 $539 $618 forward 7 unknown #
vertex $-1 $457 $619 #
straight-curve $-1 60.145878475295262 0 5.5534233445482659 0 1 0 I I #
coedge $-1 $620 $621 $475 $556 reversed $459 $-1 #
edge $-1 $622 1 $622 0 $462 $-1 forward 7 unknown #
vertex $-1 $463 $623 #
ellipse-curve $-1 43.585983707981455 -21.776734273593704 2.237780350265445 0 -0.69465837861970381 0.71933979245794832 1 0 0 1 I I #
point $-1 44.585983707981455 -22.779470155741393 3.2761437293806677 #
coedge $-1 $467 $466 $624 $625 reversed $468 $-1 #
face $-1 $-1 $468 $18 $-1 $626 reversed single #
coedge $-1 $624 $627 $470 $551 reversed $562 $-1 #
edge $-1 $552 -60.145878475295262 $628 27.026088940667655 $550 $629 forward 7 unknown #
vertex $-1 $471 $630 #
straight-curve $-1 -60.145878475295262 0 5.5534233445482659 0 -1 0 I I #
face $-1 $549 $562 $18 $-1 $631 reversed single #
plane-surface $-1 0 0 -5.5534233445482659 0 0 1 1 0 0 forward_v I I I I #
edge $-1 $628 29.212007333963296 $558 33.92839137585274 $475 $632 forward 7 unknown #
coedge $-1 $480 $476 $621 $633 reversed $461 $-1 #
vertex $-1 $477 $634 #
straight-curve $-1 21.792991853990728 -20.421278134796662 5.5534233445482659 1 0 0 I I #
coedge $-1 $627 $478 $480 $564 forward $562 $-1 #
coedge $-1 $478 $624 $484 $566 reversed $562 $-1 #
loop $-1 $-1 $627 $554 #
straight-curve $-1 60.145878475295262 -25.137662176686103 0 0 0 -1 I I #
edge $-1 $481 -38.352886621304528 $635 -5.2330970866769277 $560 $636 forward 7 unknown #
point $-1 60.145878475295255 -25.137662176686103 0.99886411421305288 #
edge $-1 $485 -60.145878475295262 $568 60.145878475295262 $561 $637 forward 7 unknown #
point $-1 60.145878475295262 -25.137662176686103 -5.5534233445482659 #
vertex $-1 $487 $638 #
straight-curve $-1 -60.145878475295262 0 -5.5534233445482659 0 1 0 I I #
face $-1 $587 $639 $19 $-1 $640 forward single #
loop $-1 $641 $576 $489 #
plane-surface $-1 43.585983707981455 -25.137662176686092 0.9988641142130632 0 -0.69465837861970381 0.71933979245794832 1 0 0 forward_v I I I I #
loop $-1 $-1 $642 $405 #
coedge $-1 $574 $574 $575 $643 forward $490 $-1 #
coedge $-1 $575 $575 $574 $643 reversed $492 $-1 #
coedge $-1 $576 $576 $493 $577 forward $571 $-1 #
edge $-1 $644 5.7154828014275099e-016 $644 6.2831853071796013 $576 $645 forward 7 unknown #
coedge $-1 $646 $494 $647 $648 forward $324 $-1 #
coedge $-1 $499 $649 $494 $580 forward $500 $-1 #
edge $-1 $650 -20.421278134796662 $507 20.421278134796665 $494 $651 forward 7 unknown #
coedge $-1 $495 $646 $652 $653 reversed $324 $-1 #
coedge $-1 $654 $655 $496 $583 forward $656 $-1 #
edge $-1 $585 -5.5534233445482659 $657 5.5534233445482659 $496 $658 forward 7 unknown #
coedge $-1 $659 $497 $655 $660 forward $500 $-1 #
vertex $-1 $498 $661 #
straight-curve $-1 0 25.137662176686103 5.5534233445482659 -1 0 0 I I #
face $-1 $662 $500 $19 $-1 $663 forward single #
point $-1 27.026088940667655 20.421278134796665 5.5534233445482641 #
straight-curve $-1 21.792991853990728 20.421278134796665 5.5534233445482641 -1 0 0 I I #
point $-1 60.145878475295255 20.421278134796665 5.5534233445482641 #
coedge $-1 $652 $664 $509 $592 forward $665 $-1 #
edge $-1 $657 -60.145878475295262 $593 60.145878475295262 $509 $666 forward 7 unknown #
vertex $-1 $653 $667 #
straight-curve $-1 60.145878475295262 25.137662176686103 0 0 0 -1 I I #
straight-curve $-1 -60.145878475295262 0 -5.5534233445482659 0 1 0 I I #
point $-1 -60.145878475295262 -25.137662176686103 -5.5534233445482659 #
point $-1 -60.145878475295262 25.137662176686103 -5.5534233445482659 #
loop $-1 $-1 $610 $521 #
plane-surface $-1 0 25.137662176686103 0 0 -1 0 0 0 -1 forward_v I I I I #
coedge $-1 $668 $531 $617 $669 forward $522 $-1 #
coedge $-1 $525 $524 $668 $670 forward $362 $-1 #
coedge $-1 $528 $533 $524 $603 reversed $439 $-1 #
edge $-1 $607 -60.145878475295262 $671 60.145878475295262 $602 $672 forward 7 unknown #
coedge $-1 $617 $610 $525 $605 reversed $598 $-1 #
edge $-1 $673 -60.145878475295262 $606 60.145878475295262 $604 $674 forward 7 unknown #
vertex $-1 $527 $675 #
vertex $-1 $529 $676 #
straight-curve $-1 60.145878475295262 0 -5.5534233445482659 0 -1 0 I I #
straight-curve $-1 60.145878475295262 -25.137662176686103 0 0 0 -1 I I #
coedge $-1 $604 $539 $530 $611 forward $598 $-1 #
edge $-1 $541 -5.5534233445482659 $606 5.5534233445482659 $530 $677 forward 7 unknown #
coedge $-1 $531 $668 $533 $615 reversed $522 $-1 #
vertex $-1 $540 $678 #
straight-curve $-1 -60.145878475295262 0 5.5534233445482659 0 -1 0 I I #
edge $-1 $534 -5.5534233445482659 $671 5.5534233445482659 $612 $679 forward 7 unknown #
point $-1 -60.145878475295262 -25.137662176686103 5.5534233445482659 #
coedge $-1 $539 $604 $600 $669 reversed $598 $-1 #
straight-curve $-1 0 25.137662176686103 5.5534233445482659 -1 0 0 I I #
point $-1 60.145878475295262 25.137662176686103 5.5534233445482659 #
coedge $-1 $621 $543 $627 $680 reversed $459 $-1 #
coedge $-1 $543 $620 $557 $633 forward $459 $-1 #
vertex $-1 $544 $681 #
point $-1 44.585983707981455 -21.776734273593704 2.237780350265445 #
coedge $-1 $561 $550 $548 $625 forward $562 $-1 #
edge $-1 $552 -5.5534233445482659 $568 5.5534233445482659 $548 $682 forward 7 unknown #
plane-surface $-1 -60.145878475295262 0 0 1 0 0 0 0 -1 forward_v I I I I #
coedge $-1 $550 $560 $620 $680 forward $562 $-1 #
vertex $-1 $680 $683 #
straight-curve $-1 0 -25.137662176686103 5.5534233445482659 1 0 0 I I #
point $-1 -60.145878475295262 -25.137662176686103 5.5534233445482659 #
plane-surface $-1 0 -25.137662176686103 0 0 1 0 0 0 1 forward_v I I I I #
straight-curve $-1 27.026088940667655 -54.349669510649399 5.5534233445482641 0 1 0 I I #
edge $-1 $635 -1.4839224214701683e-014 $558 6.55654544811678 $621 $684 forward 7 unknown #
point $-1 27.026088940667655 -20.421278134796662 5.5534233445482659 #
vertex $-1 $564 $685 #
straight-curve $-1 21.792991853990728 -25.137662176686103 0.99886411421305366 -1 0 0 I I #
straight-curve $-1 0 -25.137662176686103 -5.5534233445482659 -1 0 0 I I #
point $-1 -60.145878475295262 -25.137662176686103 -5.5534233445482659 #
loop $-1 $-1 $686 $570 #
plane-surface $-1 27.026088940667655 -108.6993390212988 87.52951159345281 1 0 0 0 0.69465837861970381 -0.71933979245794832 forward_v I I I I #
loop $-1 $-1 $687 $489 #
coedge $-1 $642 $642 $-1 $688 forward $573 $-1 #
edge $-1 $689 0 $689 6.2831853071796004 $574 $690 forward 7 unknown #
vertex $-1 $577 $691 #
ellipse-curve $-1 43.585983707981455 -22.779470155741382 3.2761437293806575 0 0.69465837861970381 -0.71933979245794832 1 0 0 1 I I #
coedge $-1 $581 $578 $692 $693 forward $324 $-1 #
coedge $-1 $687 $694 $578 $648 reversed $641 $-1 #
edge $-1 $650 2.1377802353905881 $695 8.6943256835073832 $578 $696 forward 7 unknown #
coedge $-1 $579 $697 $687 $698 forward $500 $-1 #
vertex $-1 $580 $699 #
straight-curve $-1 60.145878475295262 0 5.5534233445482659 0 1 0 I I #
coedge $-1 $700 $591 $581 $653 forward $665 $-1 #
edge $-1 $593 -25.137662176686103 $701 25.137662176686103 $581 $702 forward 7 unknown #
coedge $-1 $703 $582 $664 $704 reversed $656 $-1 #
coedge $-1 $582 $703 $584 $660 reversed $656 $-1 #
loop $-1 $-1 $582 $705 #
vertex $-1 $592 $706 #
straight-curve $-1 -60.145878475295262 25.137662176686103 0 0 0 -1 I I #
coedge $-1 $697 $584 $707 $708 forward $500 $-1 #
edge $-1 $585 -25.137662176686103 $709 25.137662176686103 $655 $710 forward 7 unknown #
point $-1 -60.145878475295262 25.137662176686103 5.5534233445482659 #
face $-1 $711 $665 $19 $-1 $712 reversed single #
plane-surface $-1 0 0 5.5534233445482659 0 0 1 1 0 0 forward_v I I I I #
coedge $-1 $591 $700 $654 $704 forward $665 $-1 #
loop $-1 $-1 $652 $662 #
straight-curve $-1 0 25.137662176686103 -5.5534233445482659 1 0 0 I I #
point $-1 60.145878475295262 25.137662176686103 -5.5534233445482659 #
coedge $-1 $612 $600 $601 $670 reversed $522 $-1 #
edge $-1 $613 -5.5534233445482659 $673 5.5534233445482659 $617 $713 forward 7 unknown #
edge $-1 $671 -25.137662176686103 $673 25.137662176686103 $668 $714 forward 7 unknown #
vertex $-1 $670 $715 #
straight-curve $-1 0 -25.137662176686103 -5.5534233445482659 -1 0 0 I I #
vertex $-1 $605 $716 #
straight-curve $-1 0 25.137662176686103 -5.5534233445482659 1 0 0 I I #
point $-1 60.145878475295262 25.137662176686103 -5.5534233445482659 #
point $-1 60.145878475295262 -25.137662176686103 -5.5534233445482659 #
straight-curve $-1 60.145878475295262 25.137662176686103 0 0 0 -1 I I #
point $-1 -60.145878475295262 25.137662176686103 5.5534233445482659 #
straight-curve $-1 -60.145878475295262 -25.137662176686103 0 0 0 -1 I I #
edge $-1 $635 -42.765891682513349 $628 -38.211332452178141 $627 $717 forward 7 unknown #
point $-1 43.585983707981455 -21.082075894973997 1.5184405578074969 #
straight-curve $-1 -60.145878475295262 -25.137662176686103 0 0 0 -1 I I #
point $-1 27.026088940667655 -25.137662176686103 5.5534233445482659 #
straight-curve $-1 27.026088940667655 -25.137662176686092 0.9988641142130632 0 0.71933979245794832 0.69465837861970381 I I #
point $-1 27.026088940667655 -25.137662176686103 0.99886411421305288 #
coedge $-1 $718 $719 $697 $720 reversed $639 $-1 #
coedge $-1 $721 $647 $649 $698 reversed $641 $-1 #
edge $-1 $722 1 $722 0 $642 $-1 forward 7 unknown #
vertex $-1 $643 $723 #
ellipse-curve $-1 43.585983707981455 -21.776734273593704 2.237780350265445 0 -0.69465837861970381 0.71933979245794832 1 0 0 1 I I #
point $-1 44.585983707981455 -22.779470155741393 3.2761437293806677 #
coedge $-1 $724 $725 $646 $693 reversed $726 $-1 #
edge $-1 $695 -0.99886411421305288 $701 5.5534233445482659 $646 $727 forward 7 unknown #
coedge $-1 $647 $721 $724 $728 reversed $641 $-1 #
vertex $-1 $693 $729 #
straight-curve $-1 60.145878475295262 -18.883487743950091 7.0384502967099403 0 -0.71933979245794832 -0.69465837861970381 I I #
coedge $-1 $649 $659 $686 $720 forward $500 $-1 #
edge $-1 $730 5.2330970866769277 $650 38.352886621304528 $649 $731 forward 7 unknown #
point $-1 60.145878475295255 -20.421278134796662 5.5534233445482659 #
coedge $-1 $664 $652 $725 $732 forward $665 $-1 #
vertex $-1 $693 $733 #
straight-curve $-1 60.145878475295262 0 -5.5534233445482659 0 -1 0 I I #
coedge $-1 $655 $654 $734 $735 reversed $656 $-1 #
edge $-1 $736 -25.137662176686103 $657 25.137662176686103 $654 $737 forward 7 unknown #
face $-1 $-1 $656 $19 $-1 $738 reversed single #
point $-1 -60.145878475295262 25.137662176686103 -5.5534233445482659 #
coedge $-1 $734 $739 $659 $708 reversed $726 $-1 #
edge $-1 $709 -60.145878475295262 $740 27.026088940667655 $707 $741 forward 7 unknown #
vertex $-1 $660 $742 #
straight-curve $-1 -60.145878475295262 0 5.5534233445482659 0 -1 0 I I #
face $-1 $705 $726 $19 $-1 $743 reversed single #
plane-surface $-1 0 0 -5.5534233445482659 0 0 1 1 0 0 forward_v I I I I #
straight-curve $-1 -60.145878475295262 25.137662176686103 0 0 0 -1 I I #
straight-curve $-1 -60.145878475295262 0 -5.5534233445482659 0 1 0 I I #
point $-1 -60.145878475295262 -25.137662176686103 -5.5534233445482659 #
point $-1 -60.145878475295262 25.137662176686103 -5.5534233445482659 #
straight-curve $-1 27.026088940667655 -25.137662176686106 43.764755796726405 0 0 1 I I #
coedge $-1 $719 $686 $739 $744 reversed $639 $-1 #
coedge $-1 $686 $718 $721 $745 forward $639 $-1 #
edge $-1 $740 29.212007333963296 $730 33.92839137585274 $697 $746 forward 7 unknown #
coedge $-1 $694 $687 $719 $745 reversed $641 $-1 #
vertex $-1 $688 $747 #
point $-1 44.585983707981455 -21.776734273593704 2.237780350265445 #
coedge $-1 $739 $692 $694 $728 forward $726 $-1 #
coedge $-1 $692 $734 $700 $732 reversed $726 $-1 #
loop $-1 $-1 $739 $711 #
straight-curve $-1 60.145878475295262 -25.137662176686103 0 0 0 -1 I I #
edge $-1 $695 -38.352886621304528 $748 -5.2330970866769277 $724 $749 forward 7 unknown #
point $-1 60.145878475295255 -25.137662176686103 0.99886411421305288 #
vertex $-1 $698 $750 #
straight-curve $-1 21.792991853990728 -20.421278134796662 5.5534233445482659 1 0 0 I I #
edge $-1 $701 -60.145878475295262 $736 60.145878475295262 $725 $751 forward 7 unknown #
point $-1 60.145878475295262 -25.137662176686103 -5.5534233445482659 #
coedge $-1 $725 $707 $703 $735 forward $726 $-1 #
edge $-1 $709 -5.5534233445482659 $736 5.5534233445482659 $703 $752 forward 7 unknown #
vertex $-1 $704 $753 #
straight-curve $-1 -60.145878475295262 0 -5.5534233445482659 0 1 0 I I #
plane-surface $-1 -60.145878475295262 0 0 1 0 0 0 0 -1 forward_v I I I I #
coedge $-1 $707 $724 $718 $744 forward $726 $-1 #
vertex $-1 $744 $754 #
straight-curve $-1 0 -25.137662176686103 5.5534233445482659 1 0 0 I I #
point $-1 -60.145878475295262 -25.137662176686103 5.5534233445482659 #
plane-surface $-1 0 -25.137662176686103 0 0 1 0 0 0 1 forward_v I I I I #
edge $-1 $748 -42.765891682513349 $740 -38.211332452178141 $739 $755 forward 7 unknown #
edge $-1 $748 -1.4839224214701683e-014 $730 6.55654544811678 $719 $756 forward 7 unknown #
straight-curve $-1 27.026088940667655 -54.349669510649399 5.5534233445482641 0 1 0 I I #
point $-1 43.585983707981455 -21.082075894973997 1.5184405578074969 #
vertex $-1 $728 $757 #
straight-curve $-1 21.792991853990728 -25.137662176686103 0.99886411421305366 -1 0 0 I I #
point $-1 27.026088940667655 -20.421278134796662 5.5534233445482659 #
straight-curve $-1 0 -25.137662176686103 -5.5534233445482659 -1 0 0 I I #
straight-curve $-1 -60.145878475295262 -25.137662176686103 0 0 0 -1 I I #
point $-1 -60.145878475295262 -25.137662176686103 -5.5534233445482659 #
point $-1 27.026088940667655 -25.137662176686103 5.5534233445482659 #
straight-curve $-1 27.026088940667655 -25.137662176686106 43.764755796726405 0 0 1 I I #
straight-curve $-1 27.026088940667655 -25.137662176686092 0.9988641142130632 0 0.71933979245794832 0.69465837861970381 I I #
point $-1 27.026088940667655 -25.137662176686103 0.99886411421305288 #
End-of-ACIS-data 