500 0 5 0           
7 Unknown 11 ACIS 5.0 NT 24 Thu Mar 25 22:06:02 1999 
-1 9.9999999999999995e-007 1e-010 
body $-1 $5 $-1 $6 #
body $-1 $7 $-1 $8 #
body $-1 $9 $-1 $10 #
body $-1 $11 $-1 $12 #
body $-1 $13 $-1 $14 #
lump $-1 $-1 $15 $0 #
transform $-1 1 0 0 0 1 0 0 0 1 72.359385967589333 39.232889402105442 10.988489714890674 1 rotate no_reflect no_shear #
lump $-1 $-1 $16 $1 #
transform $-1 1 0 0 0 1 0 0 0 1 72.359385967589333 39.232889402105442 10.988489714890674 1 rotate no_reflect no_shear #
lump $-1 $-1 $17 $2 #
transform $-1 1 0 0 0 1 0 0 0 1 72.359385967589333 39.232889402105442 10.988489714890674 1 rotate no_reflect no_shear #
lump $-1 $-1 $18 $3 #
transform $-1 1 0 0 0 1 0 0 0 1 72.359385967589333 39.232889402105442 10.988489714890674 1 rotate no_reflect no_shear #
lump $-1 $-1 $19 $4 #
transform $-1 1 0 0 0 1 0 0 0 1 72.359385967589333 39.232889402105442 10.988489714890674 1 rotate no_reflect no_shear #
shell $-1 $-1 $-1 $20 $-1 $5 #
shell $-1 $-1 $-1 $21 $-1 $7 #
shell $-1 $-1 $-1 $22 $-1 $9 #
shell $-1 $-1 $-1 $23 $-1 $11 #
shell $-1 $-1 $-1 $24 $-1 $13 #
face $-1 $25 $26 $15 $-1 $27 forward single #
face $-1 $28 $29 $16 $-1 $30 forward single #
face $-1 $31 $32 $17 $-1 $33 reversed single #
face $-1 $34 $35 $18 $-1 $36 forward single #
face $-1 $37 $38 $19 $-1 $39 forward single #
face $-1 $40 $41 $15 $-1 $42 reversed single #
loop $-1 $-1 $43 $20 #
plane-surface $-1 0 0 10.988489714890674 0 0 1 1 0 0 forward_v I I I I #
face $-1 $44 $45 $16 $-1 $46 reversed single #
loop $-1 $-1 $47 $21 #
plane-surface $-1 0 -32.785140625428824 -5.5245637955850295 0 0 1 1 0 0 forward_v I I I I #
face $-1 $48 $49 $17 $-1 $50 reversed single #
loop $-1 $-1 $51 $22 #
plane-surface $-1 100.84300789230497 -4.7624559231865895 210.47541646933982 0 1 0 0.79863551827123203 0 0.60181501223851219 forward_v I I I I #
face $-1 $52 $53 $18 $-1 $54 forward single #
loop $-1 $55 $56 $23 #
cone-surface $-1 70.760201393684355 -0.36465110777150045 9.0953051203261506 -0.79863551827123203 0 -0.60181501223851219 0.3009075061192561 0 -0.39931775913561601 1 I I 0 1 0.5 forward I I I I #
face $-1 $57 $58 $19 $-1 $59 forward single #
loop $-1 $60 $61 $24 #
cone-surface $-1 70.760201393684355 6.2320561153511349 9.0953051203261506 -0.79863551827123203 0 -0.60181501223851219 0.3009075061192561 0 -0.39931775913561601 1 I I 0 1 0.5 forward I I I I #
face $-1 $62 $63 $15 $-1 $64 reversed single #
loop $-1 $-1 $65 $25 #
plane-surface $-1 0 0 -10.988489714890674 0 0 1 1 0 0 forward_v I I I I #
coedge $-1 $66 $67 $68 $69 forward $26 $-1 #
face $-1 $70 $71 $16 $-1 $72 reversed single #
loop $-1 $-1 $73 $28 #
plane-surface $-1 0 -32.785140625428824 -8.7399889820322105 0 0 1 1 0 0 forward_v I I I I #
coedge $-1 $74 $75 $76 $77 reversed $29 $-1 #
face $-1 $78 $79 $17 $-1 $80 reversed single #
loop $-1 $-1 $81 $31 #
plane-surface $-1 -14.734543535722679 2.9337025037898172 123.38148696602782 0.79863551827123203 0 0.60181501223851219 0.60181501223851219 0 -0.79863551827123203 forward_v I I I I #
coedge $-1 $82 $83 $84 $85 reversed $32 $-1 #
face $-1 $-1 $86 $18 $-1 $87 forward single #
loop $-1 $88 $89 $34 #
cone-surface $-1 70.161224754980935 -0.36465110777150045 8.6439438611472657 -0.79863551827123203 0 -0.60181501223851219 0.15045375305962805 0 -0.19965887956780801 1 I I -0.70710678118654746 0.70710678118654746 0.25 forward I I I I #
loop $-1 $-1 $90 $23 #
coedge $-1 $56 $56 $91 $92 reversed $35 $-1 #
face $-1 $-1 $93 $19 $-1 $94 forward single #
loop $-1 $95 $96 $37 #
cone-surface $-1 70.161224754980935 6.2320561153511349 8.6439438611472657 -0.79863551827123203 0 -0.60181501223851219 0.15045375305962805 0 -0.19965887956780801 1 I I -0.70710678118654746 0.70710678118654746 0.25 forward I I I I #
loop $-1 $-1 $97 $24 #
coedge $-1 $61 $61 $98 $99 reversed $38 $-1 #
face $-1 $100 $101 $15 $-1 $102 reversed single #
loop $-1 $-1 $103 $40 #
plane-surface $-1 0 -39.232889402105442 0 0 1 0 0 0 1 forward_v I I I I #
coedge $-1 $104 $105 $106 $107 forward $41 $-1 #
coedge $-1 $108 $43 $109 $110 forward $26 $-1 #
coedge $-1 $43 $108 $111 $112 forward $26 $-1 #
coedge $-1 $113 $114 $43 $69 reversed $115 $-1 #
edge $-1 $116 -39.232889402105442 $117 39.232889402105442 $68 $118 forward 7 unknown #
face $-1 $119 $120 $16 $-1 $121 reversed single #
loop $-1 $-1 $122 $44 #
plane-surface $-1 0 -26.337391848752201 -7.13227638880862 0 -1 0 0 0 -1 forward_v I I I I #
coedge $-1 $123 $124 $125 $126 reversed $45 $-1 #
coedge $-1 $127 $47 $128 $129 forward $29 $-1 #
coedge $-1 $47 $127 $130 $131 reversed $29 $-1 #
coedge $-1 $132 $133 $47 $77 forward $134 $-1 #
edge $-1 $135 9.9448215360377894 $136 22.840319089391031 $76 $137 forward 7 unknown #
face $-1 $138 $139 $17 $-1 $140 forward single #
loop $-1 $-1 $141 $48 #
plane-surface $-1 100.84300789230497 10.629860930766224 210.47541646933982 0 -1 0 -0.79863551827123203 0 -0.60181501223851219 forward_v I I I I #
coedge $-1 $142 $143 $144 $145 reversed $49 $-1 #
coedge $-1 $83 $51 $146 $147 reversed $32 $-1 #
coedge $-1 $51 $82 $142 $148 reversed $32 $-1 #
coedge $-1 $144 $149 $51 $85 forward $150 $-1 #
edge $-1 $151 94.249218519779234 $152 97.433772696669735 $84 $153 forward 7 unknown #
loop $-1 $-1 $91 $52 #
plane-surface $-1 -14.734543535722679 2.9337025037898172 123.38148696602782 0.79863551827123203 0 0.60181501223851219 0.60181501223851219 0 -0.79863551827123203 forward_v I I I I #
loop $-1 $-1 $154 $34 #
coedge $-1 $89 $89 $90 $155 reversed $53 $-1 #
coedge $-1 $90 $90 $89 $155 forward $55 $-1 #
coedge $-1 $91 $91 $56 $92 forward $86 $-1 #
edge $-1 $156 0 $156 6.2831853071796004 $91 $157 forward 7 unknown #
loop $-1 $-1 $98 $57 #
plane-surface $-1 -14.734543535722679 2.9337025037898172 123.38148696602782 0.79863551827123203 0 0.60181501223851219 0.60181501223851219 0 -0.79863551827123203 forward_v I I I I #
loop $-1 $-1 $158 $37 #
coedge $-1 $96 $96 $97 $159 reversed $58 $-1 #
coedge $-1 $97 $97 $96 $159 forward $60 $-1 #
coedge $-1 $98 $98 $61 $99 forward $93 $-1 #
edge $-1 $160 0 $160 6.2831853071796004 $98 $161 forward 7 unknown #
face $-1 $162 $163 $15 $-1 $164 reversed single #
loop $-1 $-1 $165 $62 #
plane-surface $-1 -72.359385967589333 0 0 1 0 0 0 0 -1 forward_v I I I I #
coedge $-1 $166 $111 $167 $168 forward $63 $-1 #
coedge $-1 $169 $65 $166 $170 forward $41 $-1 #
coedge $-1 $65 $169 $171 $172 forward $41 $-1 #
coedge $-1 $114 $113 $65 $107 reversed $115 $-1 #
edge $-1 $173 -39.232889402105442 $174 39.232889402105442 $106 $175 forward 7 unknown #
coedge $-1 $67 $66 $176 $177 forward $26 $-1 #
coedge $-1 $178 $179 $66 $110 reversed $163 $-1 #
edge $-1 $117 -72.359385967589333 $180 72.359385967589333 $109 $181 forward 7 unknown #
coedge $-1 $103 $182 $67 $112 reversed $63 $-1 #
edge $-1 $183 -72.359385967589333 $116 72.359385967589333 $111 $184 forward 7 unknown #
coedge $-1 $106 $68 $182 $185 forward $115 $-1 #
coedge $-1 $68 $106 $178 $186 reversed $115 $-1 #
loop $-1 $-1 $113 $162 #
vertex $-1 $69 $187 #
vertex $-1 $69 $188 #
straight-curve $-1 72.359385967589333 0 10.988489714890674 0 1 0 I I #
face $-1 $189 $190 $16 $-1 $191 reversed single #
loop $-1 $-1 $192 $70 #
plane-surface $-1 -72.359385967589333 0 0 1 0 0 0 0 -1 forward_v I I I I #
coedge $-1 $193 $128 $133 $194 reversed $71 $-1 #
coedge $-1 $195 $73 $196 $197 reversed $45 $-1 #
coedge $-1 $73 $195 $193 $198 forward $45 $-1 #
coedge $-1 $133 $132 $73 $126 forward $134 $-1 #
edge $-1 $199 -22.840319089391031 $200 -9.9448215360377894 $125 $201 forward 7 unknown #
coedge $-1 $75 $74 $192 $202 reversed $29 $-1 #
coedge $-1 $122 $203 $74 $129 reversed $71 $-1 #
edge $-1 $135 -72.359385967589333 $204 72.359385967589333 $128 $205 forward 7 unknown #
coedge $-1 $206 $207 $75 $131 forward $190 $-1 #
edge $-1 $136 -72.359385967589333 $208 72.359385967589333 $130 $209 forward 7 unknown #
coedge $-1 $125 $76 $207 $210 forward $134 $-1 #
coedge $-1 $76 $125 $122 $194 forward $134 $-1 #
loop $-1 $-1 $76 $189 #
vertex $-1 $77 $211 #
vertex $-1 $210 $212 #
straight-curve $-1 72.359385967589333 -16.392570312714412 -5.5245637955850295 0 -1 0 I I #
face $-1 $-1 $150 $17 $-1 $213 reversed single #
loop $-1 $-1 $214 $78 #
plane-surface $-1 0 0 10.988489714890674 0 0 1 1 0 0 forward_v I I I I #
coedge $-1 $215 $216 $217 $218 reversed $79 $-1 #
coedge $-1 $219 $81 $83 $148 forward $49 $-1 #
coedge $-1 $81 $219 $215 $220 forward $49 $-1 #
coedge $-1 $217 $84 $81 $145 forward $150 $-1 #
edge $-1 $152 -6.2293071750814981 $221 9.1630096788713153 $144 $222 forward 7 unknown #
coedge $-1 $223 $224 $82 $147 forward $139 $-1 #
edge $-1 $225 19.538148391898119 $151 21.937882021436849 $146 $226 forward 7 unknown #
edge $-1 $152 -144.71877193517867 $225 -140.73127813602488 $83 $227 forward 7 unknown #
coedge $-1 $84 $217 $223 $228 reversed $150 $-1 #
loop $-1 $-1 $217 $138 #
vertex $-1 $228 $229 #
vertex $-1 $85 $230 #
straight-curve $-1 72.359385967589333 -4.7624559231865895 105.23770823466991 0 0 -1 I I #
coedge $-1 $154 $154 $-1 $231 reversed $88 $-1 #
edge $-1 $232 0 $232 6.2831853071796004 $89 $233 forward 7 unknown #
vertex $-1 $92 $234 #
ellipse-curve $-1 71.159519152819968 -0.36465110777150045 9.396212626445406 0.79863551827123203 0 0.60181501223851219 0.3009075061192561 0 -0.39931775913561601 1 I I #
coedge $-1 $158 $158 $-1 $235 reversed $95 $-1 #
edge $-1 $236 0 $236 6.2831853071796004 $96 $237 forward 7 unknown #
vertex $-1 $99 $238 #
ellipse-curve $-1 71.159519152819968 6.2320561153511349 9.396212626445406 0.79863551827123203 0 0.60181501223851219 0.3009075061192561 0 -0.39931775913561601 1 I I #
face $-1 $-1 $115 $15 $-1 $239 reversed single #
loop $-1 $-1 $178 $100 #
plane-surface $-1 0 39.232889402105442 0 0 -1 0 0 0 -1 forward_v I I I I #
coedge $-1 $240 $176 $179 $241 forward $101 $-1 #
coedge $-1 $182 $103 $104 $170 reversed $63 $-1 #
coedge $-1 $176 $240 $103 $168 reversed $101 $-1 #
edge $-1 $183 -10.988489714890674 $242 10.988489714890674 $167 $243 forward 7 unknown #
coedge $-1 $105 $104 $240 $244 forward $41 $-1 #
edge $-1 $174 -72.359385967589333 $242 72.359385967589333 $166 $245 forward 7 unknown #
coedge $-1 $179 $178 $105 $172 reversed $163 $-1 #
edge $-1 $246 -72.359385967589333 $173 72.359385967589333 $171 $247 forward 7 unknown #
vertex $-1 $107 $248 #
vertex $-1 $185 $249 #
straight-curve $-1 72.359385967589333 0 -10.988489714890674 0 -1 0 I I #
coedge $-1 $165 $167 $108 $177 reversed $101 $-1 #
edge $-1 $180 -39.232889402105442 $183 39.232889402105442 $176 $250 forward 7 unknown #
coedge $-1 $171 $109 $114 $186 forward $163 $-1 #
coedge $-1 $109 $171 $165 $241 reversed $163 $-1 #
vertex $-1 $110 $251 #
straight-curve $-1 0 39.232889402105442 10.988489714890674 -1 0 0 I I #
coedge $-1 $111 $166 $113 $185 reversed $63 $-1 #
vertex $-1 $177 $252 #
straight-curve $-1 0 -39.232889402105442 10.988489714890674 1 0 0 I I #
edge $-1 $116 -10.988489714890674 $174 10.988489714890674 $113 $253 forward 7 unknown #
edge $-1 $117 -10.988489714890674 $173 10.988489714890674 $114 $254 forward 7 unknown #
point $-1 72.359385967589333 -39.232889402105442 10.988489714890674 #
point $-1 72.359385967589333 39.232889402105442 10.988489714890674 #
face $-1 $-1 $134 $16 $-1 $255 reversed single #
loop $-1 $-1 $130 $119 #
plane-surface $-1 0 -39.232889402105442 0 0 1 0 0 0 1 forward_v I I I I #
coedge $-1 $256 $257 $127 $202 forward $120 $-1 #
coedge $-1 $203 $122 $124 $198 reversed $71 $-1 #
edge $-1 $200 -5.1738507876279005 $135 -1.9584256011807195 $133 $258 forward 7 unknown #
coedge $-1 $124 $123 $259 $260 reversed $45 $-1 #
coedge $-1 $207 $206 $123 $197 forward $190 $-1 #
edge $-1 $261 -72.359385967589333 $199 72.359385967589333 $196 $262 forward 7 unknown #
edge $-1 $263 -72.359385967589333 $200 72.359385967589333 $193 $264 forward 7 unknown #
vertex $-1 $197 $265 #
vertex $-1 $126 $266 #
straight-curve $-1 72.359385967589333 -16.392570312714412 -8.7399889820322105 0 1 0 I I #
edge $-1 $208 -22.840319089391031 $204 -9.9448215360377894 $192 $267 forward 7 unknown #
coedge $-1 $128 $193 $256 $268 reversed $71 $-1 #
vertex $-1 $202 $269 #
straight-curve $-1 0 -26.337391848752201 -5.5245637955850295 -1 0 0 I I #
coedge $-1 $196 $130 $257 $270 forward $190 $-1 #
coedge $-1 $130 $196 $132 $210 reversed $190 $-1 #
vertex $-1 $270 $271 #
straight-curve $-1 0 -39.232889402105442 -5.5245637955850295 -1 0 0 I I #
edge $-1 $136 5.5245637955850295 $199 8.7399889820322105 $132 $272 forward 7 unknown #
point $-1 72.359385967589333 -26.337391848752201 -5.5245637955850295 #
point $-1 72.359385967589333 -39.232889402105442 -5.5245637955850295 #
plane-surface $-1 72.359385967589333 0 0 -1 0 0 0 0 1 forward_v I I I I #
coedge $-1 $224 $223 $216 $273 forward $139 $-1 #
coedge $-1 $216 $141 $143 $220 reversed $79 $-1 #
coedge $-1 $141 $215 $214 $273 reversed $79 $-1 #
coedge $-1 $149 $144 $141 $218 forward $150 $-1 #
edge $-1 $221 -97.433772696669735 $274 -94.249218519779234 $217 $275 forward 7 unknown #
coedge $-1 $143 $142 $224 $276 reversed $49 $-1 #
edge $-1 $277 140.73127813602488 $221 144.71877193517867 $215 $278 forward 7 unknown #
vertex $-1 $145 $279 #
straight-curve $-1 72.359385967589333 1.4668512518949086 7.8039355380001822 0 1 0 I I #
coedge $-1 $214 $146 $149 $228 forward $139 $-1 #
coedge $-1 $146 $214 $219 $276 forward $139 $-1 #
vertex $-1 $147 $280 #
straight-curve $-1 50.421503946152484 -4.7624559231865895 10.988489714890676 1 0 0 I I #
straight-curve $-1 -14.734543535722679 -4.7624559231865895 123.38148696602782 -0.60181501223851219 0 0.79863551827123203 I I #
edge $-1 $151 -4.7624559231865895 $274 10.629860930766224 $149 $281 forward 7 unknown #
point $-1 72.359385967589333 -4.7624559231865895 10.988489714890674 #
point $-1 72.359385967589319 -4.7624559231865895 7.8039355380001751 #
edge $-1 $282 1 $282 0 $154 $-1 forward 7 unknown #
vertex $-1 $155 $283 #
ellipse-curve $-1 70.360883634548742 -0.36465110777150045 8.7943976142068934 0.79863551827123203 0 0.60181501223851219 0.3009075061192561 0 -0.39931775913561601 1 I I #
point $-1 71.460426658939227 -0.36465110777150045 8.9968948673097895 #
edge $-1 $284 1 $284 0 $158 $-1 forward 7 unknown #
vertex $-1 $159 $285 #
ellipse-curve $-1 70.360883634548742 6.2320561153511349 8.7943976142068934 0.79863551827123203 0 0.60181501223851219 0.3009075061192561 0 -0.39931775913561601 1 I I #
point $-1 71.460426658939227 6.2320561153511349 8.9968948673097895 #
plane-surface $-1 72.359385967589333 0 0 -1 0 0 0 0 1 forward_v I I I I #
coedge $-1 $167 $165 $169 $244 reversed $101 $-1 #
edge $-1 $180 -10.988489714890674 $246 10.988489714890674 $179 $286 forward 7 unknown #
vertex $-1 $244 $287 #
straight-curve $-1 -72.359385967589333 -39.232889402105442 0 0 0 -1 I I #
edge $-1 $242 -39.232889402105442 $246 39.232889402105442 $240 $288 forward 7 unknown #
straight-curve $-1 0 -39.232889402105442 -10.988489714890674 -1 0 0 I I #
vertex $-1 $172 $289 #
straight-curve $-1 0 39.232889402105442 -10.988489714890674 1 0 0 I I #
point $-1 72.359385967589333 39.232889402105442 -10.988489714890674 #
point $-1 72.359385967589333 -39.232889402105442 -10.988489714890674 #
straight-curve $-1 -72.359385967589333 0 10.988489714890674 0 -1 0 I I #
point $-1 -72.359385967589333 39.232889402105442 10.988489714890674 #
point $-1 -72.359385967589333 -39.232889402105442 10.988489714890674 #
straight-curve $-1 72.359385967589333 -39.232889402105442 0 0 0 -1 I I #
straight-curve $-1 72.359385967589333 39.232889402105442 0 0 0 -1 I I #
plane-surface $-1 72.359385967589333 0 0 -1 0 0 0 0 1 forward_v I I I I #
coedge $-1 $259 $192 $203 $268 forward $120 $-1 #
coedge $-1 $192 $259 $206 $270 reversed $120 $-1 #
straight-curve $-1 72.359385967589333 -26.337391848752201 -3.56613819440431 0 0 1 I I #
coedge $-1 $257 $256 $195 $260 forward $120 $-1 #
edge $-1 $263 9.9448215360377894 $261 22.840319089391031 $259 $290 forward 7 unknown #
vertex $-1 $197 $291 #
straight-curve $-1 0 -39.232889402105442 -8.7399889820322105 1 0 0 I I #
vertex $-1 $260 $292 #
straight-curve $-1 0 -26.337391848752201 -8.7399889820322105 1 0 0 I I #
point $-1 72.359385967589333 -39.232889402105442 -8.7399889820322105 #
point $-1 72.359385967589333 -26.337391848752201 -8.7399889820322105 #
straight-curve $-1 -72.359385967589333 -16.392570312714412 -5.5245637955850295 0 1 0 I I #
edge $-1 $204 1.9584256011807195 $263 5.1738507876279005 $256 $293 forward 7 unknown #
point $-1 -72.359385967589333 -26.337391848752201 -5.5245637955850295 #
edge $-1 $208 5.5245637955850295 $261 8.7399889820322105 $257 $294 forward 7 unknown #
point $-1 -72.359385967589333 -39.232889402105442 -5.5245637955850295 #
straight-curve $-1 72.359385967589333 -39.232889402105442 0 0 0 -1 I I #
edge $-1 $274 -21.937882021436849 $277 -19.538148391898119 $214 $295 forward 7 unknown #
vertex $-1 $273 $296 #
straight-curve $-1 72.359385967589333 10.629860930766224 105.23770823466991 0 0 1 I I #
edge $-1 $277 -9.1630096788713153 $225 6.2293071750814981 $224 $297 forward 7 unknown #
vertex $-1 $276 $298 #
straight-curve $-1 -14.734543535722679 10.629860930766224 123.38148696602782 0.60181501223851219 0 -0.79863551827123203 I I #
point $-1 72.359385967589319 10.629860930766224 7.8039355380001751 #
point $-1 69.959652338050603 -4.7624559231865895 10.98848971489069 #
straight-curve $-1 72.359385967589333 0 10.988489714890674 0 1 0 I I #
vertex $-1 $231 $299 #
point $-1 70.661791140668001 -0.36465110777150045 8.3950798550712769 #
vertex $-1 $235 $300 #
point $-1 70.661791140668001 6.2320561153511349 8.3950798550712769 #
straight-curve $-1 -72.359385967589333 39.232889402105442 0 0 0 -1 I I #
point $-1 -72.359385967589333 -39.232889402105442 -10.988489714890674 #
straight-curve $-1 -72.359385967589333 0 -10.988489714890674 0 1 0 I I #
point $-1 -72.359385967589333 39.232889402105442 -10.988489714890674 #
straight-curve $-1 -72.359385967589333 -16.392570312714412 -8.7399889820322105 0 -1 0 I I #
point $-1 -72.359385967589333 -39.232889402105442 -8.7399889820322105 #
point $-1 -72.359385967589333 -26.337391848752201 -8.7399889820322105 #
straight-curve $-1 -72.359385967589333 -26.337391848752201 -3.56613819440431 0 0 -1 I I #
straight-curve $-1 -72.359385967589333 -39.232889402105442 0 0 0 -1 I I #
straight-curve $-1 50.421503946152484 10.629860930766224 10.988489714890676 -1 0 0 I I #
point $-1 72.359385967589333 10.629860930766224 10.988489714890674 #
straight-curve $-1 69.959652338050603 1.4668512518949086 10.988489714890676 0 -1 0 I I #
point $-1 69.959652338050603 10.629860930766224 10.98848971489069 #
point $-1 69.961565875413129 -0.36465110777150045 8.4934901080876379 #
point $-1 69.961565875413129 6.2320561153511349 8.4934901080876379 #
End-of-ACIS-data 