500 0 11 0           
7 Unknown 11 ACIS 5.0 NT 24 Thu Mar 25 17:49:24 1999 
-1 9.9999999999999995e-007 1e-010 
body $-1 $11 $-1 $12 #
body $-1 $13 $-1 $14 #
body $-1 $15 $-1 $16 #
body $-1 $17 $-1 $18 #
body $-1 $19 $-1 $20 #
body $-1 $21 $-1 $22 #
body $-1 $23 $-1 $24 #
body $-1 $25 $-1 $26 #
body $-1 $27 $-1 $28 #
body $-1 $29 $-1 $30 #
body $-1 $31 $-1 $32 #
lump $-1 $-1 $33 $0 #
transform $-1 1 0 0 0 1 0 0 0 1 50.245674001281778 25.513706543257751 7.2735125868261861 1 rotate no_reflect no_shear #
lump $-1 $-1 $34 $1 #
transform $-1 1 0 0 0 1 0 0 0 1 50.245674001281778 25.513706543257751 7.2735125868261861 1 rotate no_reflect no_shear #
lump $-1 $-1 $35 $2 #
transform $-1 1 0 0 0 1 0 0 0 1 50.245674001281778 25.513706543257751 7.2735125868261861 1 rotate no_reflect no_shear #
lump $-1 $-1 $36 $3 #
transform $-1 1 0 0 0 1 0 0 0 1 50.245674001281778 25.513706543257751 7.2735125868261861 1 rotate no_reflect no_shear #
lump $-1 $-1 $37 $4 #
transform $-1 1 0 0 0 1 0 0 0 1 50.245674001281778 25.513706543257751 7.2735125868261861 1 rotate no_reflect no_shear #
lump $-1 $-1 $38 $5 #
transform $-1 1 0 0 0 1 0 0 0 1 50.245674001281778 25.513706543257751 7.2735125868261861 1 rotate no_reflect no_shear #
lump $-1 $-1 $39 $6 #
transform $-1 1 0 0 0 1 0 0 0 1 50.245674001281778 25.513706543257751 7.2735125868261861 1 rotate no_reflect no_shear #
lump $-1 $-1 $40 $7 #
transform $-1 1 0 0 0 1 0 0 0 1 50.245674001281778 25.513706543257751 7.2735125868261861 1 rotate no_reflect no_shear #
lump $-1 $-1 $41 $8 #
transform $-1 1 0 0 0 1 0 0 0 1 50.245674001281778 25.513706543257751 7.2735125868261861 1 rotate no_reflect no_shear #
lump $-1 $-1 $42 $9 #
transform $-1 1 0 0 0 1 0 0 0 1 50.245674001281778 25.513706543257751 7.2735125868261861 1 rotate no_reflect no_shear #
lump $-1 $-1 $43 $10 #
transform $-1 1 0 0 0 1 0 0 0 1 50.245674001281778 25.513706543257751 7.2735125868261861 1 rotate no_reflect no_shear #
shell $-1 $-1 $-1 $44 $-1 $11 #
shell $-1 $-1 $-1 $45 $-1 $13 #
shell $-1 $-1 $-1 $46 $-1 $15 #
shell $-1 $-1 $-1 $47 $-1 $17 #
shell $-1 $-1 $-1 $48 $-1 $19 #
shell $-1 $-1 $-1 $49 $-1 $21 #
shell $-1 $-1 $-1 $50 $-1 $23 #
shell $-1 $-1 $-1 $51 $-1 $25 #
shell $-1 $-1 $-1 $52 $-1 $27 #
shell $-1 $-1 $-1 $53 $-1 $29 #
shell $-1 $-1 $-1 $54 $-1 $31 #
face $-1 $55 $56 $33 $-1 $57 forward single #
face $-1 $58 $59 $34 $-1 $60 forward single #
face $-1 $61 $62 $35 $-1 $63 forward single #
face $-1 $64 $65 $36 $-1 $66 reversed single #
face $-1 $67 $68 $37 $-1 $69 forward single #
face $-1 $70 $71 $38 $-1 $72 forward single #
face $-1 $73 $74 $39 $-1 $75 forward single #
face $-1 $76 $77 $40 $-1 $78 reversed single #
face $-1 $79 $80 $41 $-1 $81 forward single #
face $-1 $82 $83 $42 $-1 $84 forward single #
face $-1 $85 $86 $43 $-1 $87 forward single #
face $-1 $88 $89 $33 $-1 $90 reversed single #
loop $-1 $-1 $91 $44 #
plane-surface $-1 0 0 7.2735125868261861 0 0 1 1 0 0 forward_v I I I I #
face $-1 $92 $93 $34 $-1 $94 reversed single #
loop $-1 $-1 $95 $45 #
plane-surface $-1 0 -22.163511151787567 2.0428691146583908 0 0 1 1 0 0 forward_v I I I I #
face $-1 $96 $97 $35 $-1 $98 reversed single #
loop $-1 $-1 $99 $46 #
plane-surface $-1 0 25.513706543257751 0 0 -1 0 0 0 -1 forward_v I I I I #
face $-1 $100 $101 $36 $-1 $102 reversed single #
loop $-1 $-1 $103 $47 #
plane-surface $-1 32.926064081583526 12.37461557814736 144.05921142422545 0 1 0 0.61566148304635926 0 0.78801074757464917 forward_v I I I I #
face $-1 $104 $105 $37 $-1 $106 forward single #
loop $-1 $107 $108 $48 #
cone-surface $-1 47.046256354811568 13.839860664818833 4.5414976593362715 -0.61566148304635926 0 -0.78801074757464917 0.39400537378732459 0 -0.30783074152317963 1 I I 0 1 0.5 forward I I I I #
face $-1 $109 $110 $38 $-1 $111 forward single #
loop $-1 $112 $113 $49 #
cone-surface $-1 47.046256354811568 16.037728294826042 4.5414976593362715 -0.61566148304635926 0 -0.78801074757464917 0.39400537378732459 0 -0.30783074152317963 1 I I 0 1 0.5 forward I I I I #
face $-1 $114 $115 $39 $-1 $116 forward single #
loop $-1 $117 $118 $50 #
cone-surface $-1 47.046256354811568 18.235595924833252 4.5414976593362715 -0.61566148304635926 0 -0.78801074757464917 0.39400537378732459 0 -0.30783074152317963 1 I I 0 1 0.5 forward I I I I #
face $-1 $119 $120 $40 $-1 $121 reversed single #
loop $-1 $-1 $122 $51 #
plane-surface $-1 -107.88514401555689 -14.024222900398668 82.726563199277365 0 1 0 -0.57357644374324357 0 0.81915203911291934 forward_v I I I I #
face $-1 $123 $124 $41 $-1 $125 forward single #
loop $-1 $126 $127 $52 #
cone-surface $-1 -45.04214009714331 -12.197215247281479 3.4103599045397663 0.57357644374324357 0 -0.81915203911291934 0.40957601955645967 0 0.28678822187162178 1 I I 0 1 0.5 forward I I I I #
face $-1 $128 $129 $42 $-1 $130 forward single #
loop $-1 $131 $132 $53 #
cone-surface $-1 -45.04214009714331 -9.456703767605692 3.4103599045397663 0.57357644374324357 0 -0.81915203911291934 0.40957601955645967 0 0.28678822187162178 1 I I 0 1 0.5 forward I I I I #
face $-1 $133 $134 $43 $-1 $135 forward single #
loop $-1 $136 $137 $54 #
cone-surface $-1 -45.04214009714331 -6.716192287929907 3.4103599045397663 0.57357644374324357 0 -0.81915203911291934 0.40957601955645967 0 0.28678822187162178 1 I I 0 1 0.5 forward I I I I #
face $-1 $138 $139 $33 $-1 $140 reversed single #
loop $-1 $-1 $141 $55 #
plane-surface $-1 0 0 -7.2735125868261861 0 0 1 1 0 0 forward_v I I I I #
coedge $-1 $142 $143 $144 $145 forward $56 $-1 #
face $-1 $146 $147 $34 $-1 $148 reversed single #
loop $-1 $-1 $149 $58 #
plane-surface $-1 0 -22.163511151787567 -0.95713088534160917 0 0 1 1 0 0 forward_v I I I I #
coedge $-1 $150 $151 $152 $153 reversed $59 $-1 #
face $-1 $154 $155 $35 $-1 $156 forward single #
loop $-1 $-1 $157 $61 #
plane-surface $-1 -50.245674001281778 0 0 1 0 0 0 0 -1 forward_v I I I I #
coedge $-1 $158 $159 $160 $161 forward $62 $-1 #
face $-1 $162 $163 $36 $-1 $164 reversed single #
loop $-1 $-1 $165 $64 #
plane-surface $-1 -28.942588263002541 16.037728294826042 64.870949159941119 0.61566148304635926 0 0.78801074757464917 0.78801074757464917 0 -0.61566148304635926 forward_v I I I I #
coedge $-1 $166 $167 $168 $169 reversed $65 $-1 #
face $-1 $-1 $170 $37 $-1 $171 forward single #
loop $-1 $172 $173 $67 #
cone-surface $-1 46.426376725369629 13.839860664818833 3.7480879306882713 -0.61566148304635926 0 -0.78801074757464917 0.19700268689366229 0 -0.15391537076158981 1 I I -0.70710678118654746 0.70710678118654746 0.25 forward I I I I #
loop $-1 $-1 $174 $48 #
coedge $-1 $108 $108 $175 $176 reversed $68 $-1 #
face $-1 $-1 $177 $38 $-1 $178 forward single #
loop $-1 $179 $180 $70 #
cone-surface $-1 46.426376725369629 16.037728294826042 3.7480879306882713 -0.61566148304635926 0 -0.78801074757464917 0.19700268689366229 0 -0.15391537076158981 1 I I -0.70710678118654746 0.70710678118654746 0.25 forward I I I I #
loop $-1 $-1 $181 $49 #
coedge $-1 $113 $113 $182 $183 reversed $71 $-1 #
face $-1 $-1 $184 $39 $-1 $185 forward single #
loop $-1 $186 $187 $73 #
cone-surface $-1 46.426376725369629 18.235595924833252 3.7480879306882713 -0.61566148304635926 0 -0.78801074757464917 0.19700268689366229 0 -0.15391537076158981 1 I I -0.70710678118654746 0.70710678118654746 0.25 forward I I I I #
loop $-1 $-1 $188 $50 #
coedge $-1 $118 $118 $189 $190 reversed $74 $-1 #
face $-1 $191 $192 $40 $-1 $193 reversed single #
loop $-1 $-1 $194 $76 #
plane-surface $-1 -50.245674001281785 -9.456703767605692 0.40887056977143743 -0.57357644374324357 0 0.81915203911291934 0.81915203911291934 0 0.57357644374324357 forward_v I I I I #
coedge $-1 $195 $196 $197 $198 reversed $77 $-1 #
face $-1 $-1 $199 $41 $-1 $200 forward single #
loop $-1 $201 $202 $79 #
cone-surface $-1 -44.597074394747793 -12.197215247281479 2.7747402210025029 0.57357644374324357 0 -0.81915203911291934 0.20478800977822983 0 0.14339411093581089 1 I I -0.70710678118654746 0.70710678118654746 0.25 forward I I I I #
loop $-1 $-1 $203 $52 #
coedge $-1 $127 $127 $204 $205 reversed $80 $-1 #
face $-1 $-1 $206 $42 $-1 $207 forward single #
loop $-1 $208 $209 $82 #
cone-surface $-1 -44.597074394747793 -9.456703767605692 2.7747402210025029 0.57357644374324357 0 -0.81915203911291934 0.20478800977822983 0 0.14339411093581089 1 I I -0.70710678118654746 0.70710678118654746 0.25 forward I I I I #
loop $-1 $-1 $210 $53 #
coedge $-1 $132 $132 $211 $212 reversed $83 $-1 #
face $-1 $-1 $213 $43 $-1 $214 forward single #
loop $-1 $215 $216 $85 #
cone-surface $-1 -44.597074394747793 -6.716192287929907 2.7747402210025029 0.57357644374324357 0 -0.81915203911291934 0.20478800977822983 0 0.14339411093581089 1 I I -0.70710678118654746 0.70710678118654746 0.25 forward I I I I #
loop $-1 $-1 $217 $54 #
coedge $-1 $137 $137 $218 $219 reversed $86 $-1 #
face $-1 $220 $221 $33 $-1 $222 reversed single #
loop $-1 $-1 $223 $88 #
plane-surface $-1 0 -25.513706543257751 0 0 1 0 0 0 1 forward_v I I I I #
coedge $-1 $224 $225 $226 $227 forward $89 $-1 #
coedge $-1 $228 $91 $229 $230 forward $56 $-1 #
coedge $-1 $91 $228 $231 $232 forward $56 $-1 #
coedge $-1 $233 $234 $91 $145 reversed $235 $-1 #
edge $-1 $236 -25.513706543257751 $237 25.513706543257751 $144 $238 forward 7 unknown #
face $-1 $239 $240 $34 $-1 $241 reversed single #
loop $-1 $-1 $242 $92 #
plane-surface $-1 0 -18.81331576031738 0.54286911465839083 0 -1 0 0 0 -1 forward_v I I I I #
coedge $-1 $243 $244 $245 $246 reversed $93 $-1 #
coedge $-1 $247 $95 $248 $249 forward $59 $-1 #
coedge $-1 $95 $247 $250 $251 reversed $59 $-1 #
coedge $-1 $252 $253 $95 $153 forward $254 $-1 #
edge $-1 $255 7.7315601844235964 $256 14.431950967363971 $152 $257 forward 7 unknown #
face $-1 $258 $259 $35 $-1 $260 reversed single #
loop $-1 $-1 $261 $96 #
plane-surface $-1 0 0 7.2735125868261861 0 0 1 1 0 0 forward_v I I I I #
coedge $-1 $262 $263 $159 $264 forward $97 $-1 #
coedge $-1 $265 $99 $266 $267 reversed $62 $-1 #
coedge $-1 $99 $265 $157 $264 reversed $62 $-1 #
coedge $-1 $268 $269 $99 $161 reversed $259 $-1 #
edge $-1 $270 -50.245674001281778 $271 50.245674001281778 $160 $272 forward 7 unknown #
face $-1 $273 $274 $36 $-1 $275 forward single #
loop $-1 $-1 $276 $100 #
plane-surface $-1 32.926064081583526 19.700841011504725 144.05921142422545 0 -1 0 -0.61566148304635926 0 -0.78801074757464917 forward_v I I I I #
coedge $-1 $277 $278 $279 $280 reversed $101 $-1 #
coedge $-1 $167 $103 $281 $282 reversed $65 $-1 #
coedge $-1 $103 $166 $277 $283 reversed $65 $-1 #
coedge $-1 $279 $284 $103 $169 forward $285 $-1 #
edge $-1 $286 64.75609312528654 $287 69.02730889675766 $168 $288 forward 7 unknown #
loop $-1 $-1 $175 $104 #
plane-surface $-1 -28.942588263002541 16.037728294826042 64.870949159941119 0.61566148304635926 0 0.78801074757464917 0.78801074757464917 0 -0.61566148304635926 forward_v I I I I #
loop $-1 $-1 $289 $67 #
coedge $-1 $173 $173 $174 $290 reversed $105 $-1 #
coedge $-1 $174 $174 $173 $290 forward $107 $-1 #
coedge $-1 $175 $175 $108 $176 forward $170 $-1 #
edge $-1 $291 0 $291 6.2831853071796004 $175 $292 forward 7 unknown #
loop $-1 $-1 $182 $109 #
plane-surface $-1 -28.942588263002541 16.037728294826042 64.870949159941119 0.61566148304635926 0 0.78801074757464917 0.78801074757464917 0 -0.61566148304635926 forward_v I I I I #
loop $-1 $-1 $293 $70 #
coedge $-1 $180 $180 $181 $294 reversed $110 $-1 #
coedge $-1 $181 $181 $180 $294 forward $112 $-1 #
coedge $-1 $182 $182 $113 $183 forward $177 $-1 #
edge $-1 $295 0 $295 6.2831853071796004 $182 $296 forward 7 unknown #
loop $-1 $-1 $189 $114 #
plane-surface $-1 -28.942588263002541 16.037728294826042 64.870949159941119 0.61566148304635926 0 0.78801074757464917 0.78801074757464917 0 -0.61566148304635926 forward_v I I I I #
loop $-1 $-1 $297 $73 #
coedge $-1 $187 $187 $188 $298 reversed $115 $-1 #
coedge $-1 $188 $188 $187 $298 forward $117 $-1 #
coedge $-1 $189 $189 $118 $190 forward $184 $-1 #
edge $-1 $299 0 $299 6.2831853071796004 $189 $300 forward 7 unknown #
face $-1 $301 $302 $40 $-1 $303 reversed single #
loop $-1 $-1 $304 $119 #
plane-surface $-1 -107.88514401555689 -4.8891846348127164 82.726563199277365 0 -1 0 0.57357644374324357 0 -0.81915203911291934 forward_v I I I I #
coedge $-1 $305 $306 $307 $308 reversed $120 $-1 #
coedge $-1 $196 $122 $309 $310 reversed $77 $-1 #
coedge $-1 $122 $195 $305 $311 reversed $77 $-1 #
coedge $-1 $307 $312 $122 $198 forward $313 $-1 #
edge $-1 $314 3.6968980064966672 $315 13.500622631854164 $197 $316 forward 7 unknown #
loop $-1 $-1 $204 $123 #
plane-surface $-1 -50.245674001281785 -9.456703767605692 0.40887056977143743 -0.57357644374324357 0 0.81915203911291934 0.81915203911291934 0 0.57357644374324357 forward_v I I I I #
loop $-1 $-1 $317 $79 #
coedge $-1 $202 $202 $203 $318 reversed $124 $-1 #
coedge $-1 $203 $203 $202 $318 forward $126 $-1 #
coedge $-1 $204 $204 $127 $205 forward $199 $-1 #
edge $-1 $319 0 $319 6.2831853071796004 $204 $320 forward 7 unknown #
loop $-1 $-1 $211 $128 #
plane-surface $-1 -50.245674001281785 -9.456703767605692 0.40887056977143743 -0.57357644374324357 0 0.81915203911291934 0.81915203911291934 0 0.57357644374324357 forward_v I I I I #
loop $-1 $-1 $321 $82 #
coedge $-1 $209 $209 $210 $322 reversed $129 $-1 #
coedge $-1 $210 $210 $209 $322 forward $131 $-1 #
coedge $-1 $211 $211 $132 $212 forward $206 $-1 #
edge $-1 $323 0 $323 6.2831853071796004 $211 $324 forward 7 unknown #
loop $-1 $-1 $218 $133 #
plane-surface $-1 -50.245674001281785 -9.456703767605692 0.40887056977143743 -0.57357644374324357 0 0.81915203911291934 0.81915203911291934 0 0.57357644374324357 forward_v I I I I #
loop $-1 $-1 $325 $85 #
coedge $-1 $216 $216 $217 $326 reversed $134 $-1 #
coedge $-1 $217 $217 $216 $326 forward $136 $-1 #
coedge $-1 $218 $218 $137 $219 forward $213 $-1 #
edge $-1 $327 0 $327 6.2831853071796004 $218 $328 forward 7 unknown #
face $-1 $329 $330 $33 $-1 $331 reversed single #
loop $-1 $-1 $332 $138 #
plane-surface $-1 -50.245674001281778 0 0 1 0 0 0 0 -1 forward_v I I I I #
coedge $-1 $333 $231 $334 $335 forward $139 $-1 #
coedge $-1 $336 $141 $333 $337 forward $89 $-1 #
coedge $-1 $141 $336 $338 $339 forward $89 $-1 #
coedge $-1 $234 $233 $141 $227 reversed $235 $-1 #
edge $-1 $340 -25.513706543257751 $341 25.513706543257751 $226 $342 forward 7 unknown #
coedge $-1 $143 $142 $343 $344 forward $56 $-1 #
coedge $-1 $345 $346 $142 $230 reversed $330 $-1 #
edge $-1 $237 -50.245674001281778 $347 50.245674001281778 $229 $348 forward 7 unknown #
coedge $-1 $223 $349 $143 $232 reversed $139 $-1 #
edge $-1 $350 -50.245674001281778 $236 50.245674001281778 $231 $351 forward 7 unknown #
coedge $-1 $226 $144 $349 $352 forward $235 $-1 #
coedge $-1 $144 $226 $345 $353 reversed $235 $-1 #
loop $-1 $-1 $233 $329 #
vertex $-1 $145 $354 #
vertex $-1 $145 $355 #
straight-curve $-1 50.245674001281778 0 7.2735125868261861 0 1 0 I I #
face $-1 $356 $357 $34 $-1 $358 reversed single #
loop $-1 $-1 $359 $146 #
plane-surface $-1 -50.245674001281778 0 0 1 0 0 0 0 -1 forward_v I I I I #
coedge $-1 $360 $248 $253 $361 reversed $147 $-1 #
coedge $-1 $362 $149 $363 $364 reversed $93 $-1 #
coedge $-1 $149 $362 $360 $365 forward $93 $-1 #
coedge $-1 $253 $252 $149 $246 forward $254 $-1 #
edge $-1 $366 -14.431950967363971 $367 -7.7315601844235964 $245 $368 forward 7 unknown #
coedge $-1 $151 $150 $359 $369 reversed $59 $-1 #
coedge $-1 $242 $370 $150 $249 reversed $147 $-1 #
edge $-1 $255 -50.245674001281778 $371 50.245674001281778 $248 $372 forward 7 unknown #
coedge $-1 $373 $374 $151 $251 forward $357 $-1 #
edge $-1 $256 -50.245674001281778 $375 50.245674001281778 $250 $376 forward 7 unknown #
coedge $-1 $245 $152 $374 $377 forward $254 $-1 #
coedge $-1 $152 $245 $242 $361 forward $254 $-1 #
loop $-1 $-1 $152 $356 #
vertex $-1 $153 $378 #
vertex $-1 $377 $379 #
straight-curve $-1 50.245674001281778 -11.081755575893784 2.0428691146583908 0 -1 0 I I #
face $-1 $380 $381 $35 $-1 $382 reversed single #
loop $-1 $-1 $269 $154 #
plane-surface $-1 0 28.420139309134267 3.0646999779887416 0 0 1 1 0 0 forward_v I I I I #
coedge $-1 $383 $384 $265 $385 forward $155 $-1 #
coedge $-1 $386 $157 $384 $387 reversed $97 $-1 #
coedge $-1 $157 $386 $268 $388 reversed $97 $-1 #
edge $-1 $270 3.0646999779887416 $389 7.2735125868261861 $157 $390 forward 7 unknown #
coedge $-1 $159 $158 $261 $385 reversed $62 $-1 #
coedge $-1 $391 $392 $158 $267 forward $393 $-1 #
edge $-1 $394 -7.2735125868261861 $271 -3.0646999779887416 $266 $395 forward 7 unknown #
coedge $-1 $396 $160 $263 $388 forward $259 $-1 #
coedge $-1 $160 $396 $391 $397 forward $259 $-1 #
vertex $-1 $264 $398 #
vertex $-1 $267 $399 #
straight-curve $-1 0 25.513706543257751 3.0646999779887416 1 0 0 I I #
face $-1 $-1 $285 $36 $-1 $400 reversed single #
loop $-1 $-1 $401 $162 #
plane-surface $-1 0 0 7.2735125868261861 0 0 1 1 0 0 forward_v I I I I #
coedge $-1 $402 $403 $404 $405 reversed $163 $-1 #
coedge $-1 $406 $165 $167 $283 forward $101 $-1 #
coedge $-1 $165 $406 $402 $407 forward $101 $-1 #
coedge $-1 $404 $168 $165 $280 forward $285 $-1 #
edge $-1 $287 4.3557514307343386 $408 11.681976864091704 $279 $409 forward 7 unknown #
coedge $-1 $410 $411 $166 $282 forward $274 $-1 #
edge $-1 $412 28.315735184910299 $286 33.782641960490011 $281 $413 forward 7 unknown #
edge $-1 $287 -100.49134800256353 $412 -93.553743671143138 $167 $414 forward 7 unknown #
coedge $-1 $168 $404 $410 $415 reversed $285 $-1 #
loop $-1 $-1 $404 $273 #
vertex $-1 $415 $416 #
vertex $-1 $169 $417 #
straight-curve $-1 50.245674001281778 12.37461557814736 72.029605712112726 0 0 -1 I I #
coedge $-1 $289 $289 $-1 $418 reversed $172 $-1 #
edge $-1 $419 0 $419 6.2831853071796004 $173 $420 forward 7 unknown #
vertex $-1 $176 $421 #
ellipse-curve $-1 47.512220613491927 13.839860664818833 5.1379047010906209 0.61566148304635926 0 0.78801074757464917 0.39400537378732459 0 -0.30783074152317963 1 I I #
coedge $-1 $293 $293 $-1 $422 reversed $179 $-1 #
edge $-1 $423 0 $423 6.2831853071796004 $180 $424 forward 7 unknown #
vertex $-1 $183 $425 #
ellipse-curve $-1 47.512220613491927 16.037728294826042 5.1379047010906209 0.61566148304635926 0 0.78801074757464917 0.39400537378732459 0 -0.30783074152317963 1 I I #
coedge $-1 $297 $297 $-1 $426 reversed $186 $-1 #
edge $-1 $427 0 $427 6.2831853071796004 $187 $428 forward 7 unknown #
vertex $-1 $190 $429 #
ellipse-curve $-1 47.512220613491927 18.235595924833252 5.1379047010906209 0.61566148304635926 0 0.78801074757464917 0.39400537378732459 0 -0.30783074152317963 1 I I #
face $-1 $-1 $313 $40 $-1 $430 forward single #
loop $-1 $-1 $431 $191 #
plane-surface $-1 -50.245674001281778 0 0 1 0 0 0 0 -1 forward_v I I I I #
coedge $-1 $432 $433 $434 $435 reversed $192 $-1 #
coedge $-1 $436 $194 $196 $311 forward $120 $-1 #
coedge $-1 $194 $436 $432 $437 forward $120 $-1 #
coedge $-1 $434 $197 $194 $308 forward $313 $-1 #
edge $-1 $315 -9.2958710165958216 $438 -0.16083275100987038 $307 $439 forward 7 unknown #
coedge $-1 $440 $441 $195 $310 forward $302 $-1 #
edge $-1 $442 -40.954411029867238 $314 -34.089769012812496 $309 $443 forward 7 unknown #
edge $-1 $315 -11.968137973475848 $442 -8.6860152927662243e-015 $196 $444 forward 7 unknown #
coedge $-1 $197 $434 $440 $445 forward $313 $-1 #
loop $-1 $-1 $434 $301 #
vertex $-1 $310 $446 #
vertex $-1 $198 $447 #
straight-curve $-1 -53.942572007778445 -14.024222900398668 7.2735125868261861 1 0 0 I I #
coedge $-1 $317 $317 $-1 $448 reversed $201 $-1 #
edge $-1 $449 0 $449 6.2831853071796004 $202 $450 forward 7 unknown #
vertex $-1 $205 $451 #
ellipse-curve $-1 -45.343811688603026 -12.197215247281479 3.8411915782988162 -0.57357644374324357 0 0.81915203911291934 0.40957601955645967 0 0.28678822187162178 1 I I #
coedge $-1 $321 $321 $-1 $452 reversed $208 $-1 #
edge $-1 $453 0 $453 6.2831853071796004 $209 $454 forward 7 unknown #
vertex $-1 $212 $455 #
ellipse-curve $-1 -45.343811688603026 -9.456703767605692 3.8411915782988162 -0.57357644374324357 0 0.81915203911291934 0.40957601955645967 0 0.28678822187162178 1 I I #
coedge $-1 $325 $325 $-1 $456 reversed $215 $-1 #
edge $-1 $457 0 $457 6.2831853071796004 $216 $458 forward 7 unknown #
vertex $-1 $219 $459 #
ellipse-curve $-1 -45.343811688603026 -6.716192287929907 3.8411915782988162 -0.57357644374324357 0 0.81915203911291934 0.40957601955645967 0 0.28678822187162178 1 I I #
face $-1 $-1 $235 $33 $-1 $460 reversed single #
loop $-1 $-1 $345 $220 #
plane-surface $-1 0 25.513706543257751 0 0 -1 0 0 0 -1 forward_v I I I I #
coedge $-1 $461 $343 $346 $462 forward $221 $-1 #
coedge $-1 $349 $223 $224 $337 reversed $139 $-1 #
coedge $-1 $343 $461 $223 $335 reversed $221 $-1 #
edge $-1 $350 -7.2735125868261861 $463 7.2735125868261861 $334 $464 forward 7 unknown #
coedge $-1 $225 $224 $461 $465 forward $89 $-1 #
edge $-1 $341 -50.245674001281778 $463 50.245674001281778 $333 $466 forward 7 unknown #
coedge $-1 $346 $345 $225 $339 reversed $330 $-1 #
edge $-1 $467 -50.245674001281778 $340 50.245674001281778 $338 $468 forward 7 unknown #
vertex $-1 $227 $469 #
vertex $-1 $352 $470 #
straight-curve $-1 50.245674001281778 0 -7.2735125868261861 0 -1 0 I I #
coedge $-1 $332 $334 $228 $344 reversed $221 $-1 #
edge $-1 $347 -25.513706543257751 $350 25.513706543257751 $343 $471 forward 7 unknown #
coedge $-1 $338 $229 $234 $353 forward $330 $-1 #
coedge $-1 $229 $338 $332 $462 reversed $330 $-1 #
vertex $-1 $230 $472 #
straight-curve $-1 0 25.513706543257751 7.2735125868261861 -1 0 0 I I #
coedge $-1 $231 $333 $233 $352 reversed $139 $-1 #
vertex $-1 $344 $473 #
straight-curve $-1 0 -25.513706543257751 7.2735125868261861 1 0 0 I I #
edge $-1 $236 -7.2735125868261861 $341 7.2735125868261861 $233 $474 forward 7 unknown #
edge $-1 $237 -7.2735125868261861 $340 7.2735125868261861 $234 $475 forward 7 unknown #
point $-1 50.245674001281778 -25.513706543257751 7.2735125868261861 #
point $-1 50.245674001281778 25.513706543257751 7.2735125868261861 #
face $-1 $-1 $254 $34 $-1 $476 reversed single #
loop $-1 $-1 $250 $239 #
plane-surface $-1 0 -25.513706543257751 0 0 1 0 0 0 1 forward_v I I I I #
coedge $-1 $477 $478 $247 $369 forward $240 $-1 #
coedge $-1 $370 $242 $244 $365 reversed $147 $-1 #
edge $-1 $367 -1.2285654426708046 $255 1.7714345573291954 $253 $479 forward 7 unknown #
coedge $-1 $244 $243 $480 $481 reversed $93 $-1 #
coedge $-1 $374 $373 $243 $364 forward $357 $-1 #
edge $-1 $482 -50.245674001281778 $366 50.245674001281778 $363 $483 forward 7 unknown #
edge $-1 $484 -50.245674001281778 $367 50.245674001281778 $360 $485 forward 7 unknown #
vertex $-1 $364 $486 #
vertex $-1 $246 $487 #
straight-curve $-1 50.245674001281778 -11.081755575893784 -0.95713088534160917 0 1 0 I I #
edge $-1 $375 -14.431950967363971 $371 -7.7315601844235964 $359 $488 forward 7 unknown #
coedge $-1 $248 $360 $477 $489 reversed $147 $-1 #
vertex $-1 $369 $490 #
straight-curve $-1 0 -18.81331576031738 2.0428691146583908 -1 0 0 I I #
coedge $-1 $363 $250 $478 $491 forward $357 $-1 #
coedge $-1 $250 $363 $252 $377 reversed $357 $-1 #
vertex $-1 $491 $492 #
straight-curve $-1 0 -25.513706543257751 2.0428691146583908 -1 0 0 I I #
edge $-1 $256 -2.0428691146583908 $366 0.95713088534160917 $252 $493 forward 7 unknown #
point $-1 50.245674001281778 -18.81331576031738 2.0428691146583908 #
point $-1 50.245674001281778 -25.513706543257754 2.0428691146583908 #
face $-1 $-1 $393 $35 $-1 $494 reversed single #
loop $-1 $-1 $495 $258 #
plane-surface $-1 0 31.326572075010784 5.1691062824074638 0 -1 0 0 0 -1 forward_v I I I I #
coedge $-1 $496 $261 $392 $497 forward $155 $-1 #
coedge $-1 $261 $496 $262 $387 forward $155 $-1 #
edge $-1 $389 -50.245674001281778 $394 50.245674001281778 $261 $498 forward 7 unknown #
coedge $-1 $263 $262 $499 $500 forward $97 $-1 #
edge $-1 $501 -31.326572075010784 $389 -25.513706543257751 $262 $502 forward 7 unknown #
edge $-1 $270 -2.9064327658765166 $503 2.9064327658765166 $263 $504 forward 7 unknown #
vertex $-1 $385 $505 #
straight-curve $-1 -50.245674001281778 25.513706543257751 0 0 0 1 I I #
coedge $-1 $506 $266 $269 $397 reversed $393 $-1 #
coedge $-1 $266 $506 $383 $497 reversed $393 $-1 #
loop $-1 $-1 $266 $380 #
vertex $-1 $497 $507 #
straight-curve $-1 50.245674001281778 25.513706543257751 0 0 0 -1 I I #
coedge $-1 $269 $268 $508 $509 forward $259 $-1 #
edge $-1 $510 -2.9064327658765166 $271 2.9064327658765166 $391 $511 forward 7 unknown #
point $-1 -50.245674001281778 25.513706543257751 3.0646999779887416 #
point $-1 50.245674001281778 25.513706543257751 3.0646999779887416 #
plane-surface $-1 50.245674001281778 0 0 -1 0 0 0 0 1 forward_v I I I I #
coedge $-1 $411 $410 $403 $512 forward $274 $-1 #
coedge $-1 $403 $276 $278 $407 reversed $163 $-1 #
coedge $-1 $276 $402 $401 $512 reversed $163 $-1 #
coedge $-1 $284 $279 $276 $405 forward $285 $-1 #
edge $-1 $408 -69.02730889675766 $513 -64.75609312528654 $404 $514 forward 7 unknown #
coedge $-1 $278 $277 $411 $515 reversed $101 $-1 #
edge $-1 $516 93.553743671143138 $408 100.49134800256353 $402 $517 forward 7 unknown #
vertex $-1 $280 $518 #
straight-curve $-1 50.245674001281778 8.0188641474130211 3.0022968153550664 0 1 0 I I #
coedge $-1 $401 $281 $284 $415 forward $274 $-1 #
coedge $-1 $281 $401 $406 $515 forward $274 $-1 #
vertex $-1 $282 $519 #
straight-curve $-1 16.463032040791763 12.37461557814736 7.2735125868261861 1 0 0 I I #
straight-curve $-1 -28.942588263002541 12.37461557814736 64.870949159941119 -0.78801074757464917 0 0.61566148304635926 I I #
edge $-1 $286 12.37461557814736 $513 19.700841011504725 $284 $520 forward 7 unknown #
point $-1 50.245674001281778 12.37461557814736 7.2735125868261861 #
point $-1 50.245674001281778 12.37461557814736 3.0022968153550593 #
edge $-1 $521 1 $521 0 $289 $-1 forward 7 unknown #
vertex $-1 $290 $522 #
ellipse-curve $-1 46.580292096131217 13.839860664818833 3.9450906175819336 0.61566148304635926 0 0.78801074757464917 0.39400537378732459 0 -0.30783074152317963 1 I I #
point $-1 47.906225987279235 13.839860664818833 4.8300739595674305 #
edge $-1 $523 1 $523 0 $293 $-1 forward 7 unknown #
vertex $-1 $294 $524 #
ellipse-curve $-1 46.580292096131217 16.037728294826042 3.9450906175819336 0.61566148304635926 0 0.78801074757464917 0.39400537378732459 0 -0.30783074152317963 1 I I #
point $-1 47.906225987279235 16.037728294826042 4.8300739595674305 #
edge $-1 $525 1 $525 0 $297 $-1 forward 7 unknown #
vertex $-1 $298 $526 #
ellipse-curve $-1 46.580292096131217 18.235595924833252 3.9450906175819336 0.61566148304635926 0 0.78801074757464917 0.39400537378732459 0 -0.30783074152317963 1 I I #
point $-1 47.906225987279235 18.235595924833252 4.8300739595674305 #
plane-surface $-1 0 0 7.2735125868261861 0 0 1 1 0 0 forward_v I I I I #
coedge $-1 $441 $440 $433 $527 forward $302 $-1 #
coedge $-1 $433 $304 $306 $437 reversed $192 $-1 #
coedge $-1 $304 $432 $431 $527 reversed $192 $-1 #
coedge $-1 $312 $307 $304 $435 forward $313 $-1 #
edge $-1 $438 -13.500622631854164 $528 -3.6968980064966672 $434 $529 forward 7 unknown #
coedge $-1 $306 $305 $441 $530 reversed $120 $-1 #
edge $-1 $531 8.6860152927662243e-015 $438 11.968137973475848 $432 $532 forward 7 unknown #
vertex $-1 $308 $533 #
straight-curve $-1 -40.441949375924274 -4.728351883802846 7.2735125868261861 0 1 0 I I #
coedge $-1 $431 $309 $312 $445 reversed $302 $-1 #
coedge $-1 $309 $431 $436 $530 forward $302 $-1 #
vertex $-1 $310 $534 #
straight-curve $-1 -50.245674001281778 -14.024222900398668 41.363281599638682 0 0 1 I I #
straight-curve $-1 -50.245674001281785 -14.024222900398668 0.40887056977143743 -0.81915203911291934 0 -0.57357644374324357 I I #
edge $-1 $528 4.8891846348127164 $314 14.024222900398668 $440 $535 forward 7 unknown #
point $-1 -50.245674001281778 -14.024222900398668 7.2735125868261861 #
point $-1 -40.441949375924281 -14.024222900398668 7.2735125868261861 #
edge $-1 $536 1 $536 0 $317 $-1 forward 7 unknown #
vertex $-1 $318 $537 #
ellipse-curve $-1 -44.740468505683602 -12.197215247281479 2.9795282307807329 -0.57357644374324357 0 0.81915203911291934 0.40957601955645967 0 0.28678822187162178 1 I I #
point $-1 -44.934235669046551 -12.197215247281479 4.1279798001704222 #
edge $-1 $538 1 $538 0 $321 $-1 forward 7 unknown #
vertex $-1 $322 $539 #
ellipse-curve $-1 -44.740468505683602 -9.456703767605692 2.9795282307807329 -0.57357644374324357 0 0.81915203911291934 0.40957601955645967 0 0.28678822187162178 1 I I #
point $-1 -44.934235669046551 -9.456703767605692 4.1279798001704222 #
edge $-1 $540 1 $540 0 $325 $-1 forward 7 unknown #
vertex $-1 $326 $541 #
ellipse-curve $-1 -44.740468505683602 -6.716192287929907 2.9795282307807329 -0.57357644374324357 0 0.81915203911291934 0.40957601955645967 0 0.28678822187162178 1 I I #
point $-1 -44.934235669046551 -6.716192287929907 4.1279798001704222 #
plane-surface $-1 50.245674001281778 0 0 -1 0 0 0 0 1 forward_v I I I I #
coedge $-1 $334 $332 $336 $465 reversed $221 $-1 #
edge $-1 $347 -7.2735125868261861 $467 7.2735125868261861 $346 $542 forward 7 unknown #
vertex $-1 $465 $543 #
straight-curve $-1 -50.245674001281778 -25.513706543257751 0 0 0 -1 I I #
edge $-1 $463 -25.513706543257751 $467 25.513706543257751 $461 $544 forward 7 unknown #
straight-curve $-1 0 -25.513706543257751 -7.2735125868261861 -1 0 0 I I #
vertex $-1 $339 $545 #
straight-curve $-1 0 25.513706543257751 -7.2735125868261861 1 0 0 I I #
point $-1 50.245674001281778 25.513706543257751 -7.2735125868261861 #
point $-1 50.245674001281778 -25.513706543257751 -7.2735125868261861 #
straight-curve $-1 -50.245674001281778 0 7.2735125868261861 0 -1 0 I I #
point $-1 -50.245674001281778 25.513706543257751 7.2735125868261861 #
point $-1 -50.245674001281778 -25.513706543257751 7.2735125868261861 #
straight-curve $-1 50.245674001281778 -25.513706543257751 0 0 0 -1 I I #
straight-curve $-1 50.245674001281778 25.513706543257751 0 0 0 -1 I I #
plane-surface $-1 50.245674001281778 0 0 -1 0 0 0 0 1 forward_v I I I I #
coedge $-1 $480 $359 $370 $489 forward $240 $-1 #
coedge $-1 $359 $480 $373 $491 reversed $240 $-1 #
straight-curve $-1 50.245674001281778 -18.81331576031738 0.27143455732919541 0 0 1 I I #
coedge $-1 $478 $477 $362 $481 forward $240 $-1 #
edge $-1 $484 7.7315601844235964 $482 14.431950967363971 $480 $546 forward 7 unknown #
vertex $-1 $364 $547 #
straight-curve $-1 0 -25.513706543257751 -0.95713088534160917 1 0 0 I I #
vertex $-1 $481 $548 #
straight-curve $-1 0 -18.81331576031738 -0.95713088534160917 1 0 0 I I #
point $-1 50.245674001281778 -25.513706543257754 -0.95713088534160917 #
point $-1 50.245674001281778 -18.81331576031738 -0.95713088534160917 #
straight-curve $-1 -50.245674001281778 -11.081755575893784 2.0428691146583908 0 1 0 I I #
edge $-1 $371 -1.7714345573291954 $484 1.2285654426708046 $477 $549 forward 7 unknown #
point $-1 -50.245674001281778 -18.81331576031738 2.0428691146583908 #
edge $-1 $375 -2.0428691146583908 $482 0.95713088534160917 $478 $550 forward 7 unknown #
point $-1 -50.245674001281778 -25.513706543257754 2.0428691146583908 #
straight-curve $-1 50.245674001281778 -25.513706543257751 0 0 0 -1 I I #
plane-surface $-1 50.245674001281778 0 0 -1 0 0 0 0 1 forward_v I I I I #
coedge $-1 $508 $551 $506 $552 forward $381 $-1 #
coedge $-1 $384 $383 $551 $553 forward $155 $-1 #
edge $-1 $394 25.513706543257751 $554 31.326572075010784 $392 $555 forward 7 unknown #
straight-curve $-1 0 25.513706543257751 7.2735125868261861 1 0 0 I I #
coedge $-1 $551 $508 $386 $500 reversed $381 $-1 #
edge $-1 $501 -2.1044063044187222 $503 2.1044063044187222 $499 $556 forward 7 unknown #
vertex $-1 $553 $557 #
straight-curve $-1 -50.245674001281778 0 7.2735125868261861 0 -1 0 I I #
vertex $-1 $509 $558 #
straight-curve $-1 -50.245674001281778 28.420139309134267 3.0646999779887416 0 1 0 I I #
point $-1 -50.245674001281778 25.513706543257751 7.2735125868261861 #
coedge $-1 $392 $391 $495 $552 reversed $393 $-1 #
point $-1 50.245674001281778 25.513706543257751 7.2735125868261861 #
coedge $-1 $499 $495 $396 $509 reversed $381 $-1 #
edge $-1 $503 -50.245674001281778 $510 50.245674001281778 $508 $559 forward 7 unknown #
vertex $-1 $397 $560 #
straight-curve $-1 50.245674001281778 28.420139309134267 3.0646999779887416 0 -1 0 I I #
edge $-1 $513 -33.782641960490011 $516 -28.315735184910299 $401 $561 forward 7 unknown #
vertex $-1 $405 $562 #
straight-curve $-1 50.245674001281778 19.700841011504725 72.029605712112726 0 0 1 I I #
edge $-1 $516 -11.681976864091704 $412 -4.3557514307343386 $411 $563 forward 7 unknown #
vertex $-1 $515 $564 #
straight-curve $-1 -28.942588263002541 19.700841011504725 64.870949159941119 0.78801074757464917 0 -0.61566148304635926 I I #
point $-1 50.245674001281778 19.700841011504725 3.0022968153550593 #
point $-1 44.778767225702062 12.37461557814736 7.2735125868261861 #
straight-curve $-1 50.245674001281778 0 7.2735125868261861 0 1 0 I I #
vertex $-1 $418 $565 #
point $-1 46.97429746991854 13.839860664818833 3.6372598760587538 #
vertex $-1 $422 $566 #
point $-1 46.97429746991854 16.037728294826042 3.6372598760587538 #
vertex $-1 $426 $567 #
point $-1 46.97429746991854 18.235595924833252 3.6372598760587538 #
edge $-1 $528 34.089769012812496 $531 40.954411029867238 $431 $568 forward 7 unknown #
vertex $-1 $445 $569 #
straight-curve $-1 -53.942572007778445 -4.8891846348127164 7.2735125868261861 -1 0 0 I I #
edge $-1 $531 0.16083275100987038 $442 9.2958710165958216 $441 $570 forward 7 unknown #
vertex $-1 $530 $571 #
straight-curve $-1 -50.245674001281785 -4.8891846348127164 0.40887056977143743 0.81915203911291934 0 0.57357644374324357 I I #
point $-1 -40.441949375924281 -4.8891846348127164 7.2735125868261861 #
point $-1 -50.245674001281778 -14.024222900398668 0.40887056977144243 #
straight-curve $-1 -50.245674001281778 0 7.2735125868261861 0 -1 0 I I #
vertex $-1 $448 $572 #
point $-1 -44.330892486127141 -12.197215247281479 3.2663164526523545 #
vertex $-1 $452 $573 #
point $-1 -44.330892486127141 -9.456703767605692 3.2663164526523545 #
vertex $-1 $456 $574 #
point $-1 -44.330892486127141 -6.716192287929907 3.2663164526523545 #
straight-curve $-1 -50.245674001281778 25.513706543257751 0 0 0 -1 I I #
point $-1 -50.245674001281778 -25.513706543257751 -7.2735125868261861 #
straight-curve $-1 -50.245674001281778 0 -7.2735125868261861 0 1 0 I I #
point $-1 -50.245674001281778 25.513706543257751 -7.2735125868261861 #
straight-curve $-1 -50.245674001281778 -11.081755575893784 -0.95713088534160917 0 -1 0 I I #
point $-1 -50.245674001281778 -25.513706543257754 -0.95713088534160917 #
point $-1 -50.245674001281778 -18.81331576031738 -0.95713088534160917 #
straight-curve $-1 -50.245674001281778 -18.81331576031738 0.27143455732919541 0 0 -1 I I #
straight-curve $-1 -50.245674001281778 -25.513706543257751 0 0 0 -1 I I #
coedge $-1 $495 $499 $496 $553 reversed $381 $-1 #
edge $-1 $554 -2.1044063044187222 $510 2.1044063044187222 $506 $575 forward 7 unknown #
edge $-1 $554 -50.245674001281778 $501 50.245674001281778 $551 $576 forward 7 unknown #
vertex $-1 $497 $577 #
straight-curve $-1 50.245674001281778 0 7.2735125868261861 0 1 0 I I #
straight-curve $-1 -50.245674001281778 31.326572075010784 5.1691062824074638 0 0 -1 I I #
point $-1 -50.245674001281778 31.326572075010784 7.2735125868261861 #
point $-1 -50.245674001281778 31.326572075010784 3.0646999779887416 #
straight-curve $-1 0 31.326572075010784 3.0646999779887416 1 0 0 I I #
point $-1 50.245674001281778 31.326572075010784 3.0646999779887416 #
straight-curve $-1 16.463032040791763 19.700841011504725 7.2735125868261861 -1 0 0 I I #
point $-1 50.245674001281778 19.700841011504725 7.2735125868261861 #
straight-curve $-1 44.778767225702069 8.0188641474130211 7.273512586826179 0 -1 0 I I #
point $-1 44.778767225702062 19.700841011504725 7.2735125868261861 #
point $-1 46.272461354608041 13.839860664818833 3.551085243794609 #
point $-1 46.272461354608041 16.037728294826042 3.551085243794609 #
point $-1 46.272461354608041 18.235595924833252 3.551085243794609 #
straight-curve $-1 -50.245674001281778 -4.8891846348127164 41.363281599638682 0 0 -1 I I #
point $-1 -50.245674001281778 -4.8891846348127164 7.2735125868261861 #
straight-curve $-1 -50.245674001281778 -4.728351883802846 0.40887056977144565 0 -1 0 I I #
point $-1 -50.245674001281778 -4.8891846348127164 0.40887056977144243 #
point $-1 -44.453680283811984 -12.197215247281479 2.569952211224273 #
point $-1 -44.453680283811984 -9.456703767605692 2.569952211224273 #
point $-1 -44.453680283811984 -6.716192287929907 2.569952211224273 #
straight-curve $-1 50.245674001281778 31.326572075010784 5.1691062824074638 0 0 -1 I I #
straight-curve $-1 0 31.326572075010784 7.2735125868261861 -1 0 0 I I #
point $-1 50.245674001281778 31.326572075010784 7.2735125868261861 #
End-of-ACIS-data 