500 0 9 0           
7 Unknown 11 ACIS 5.0 NT 24 Fri Mar 26 19:11:47 1999 
-1 9.9999999999999995e-007 1e-010 
body $-1 $9 $-1 $10 #
body $-1 $11 $-1 $12 #
body $-1 $13 $-1 $14 #
body $-1 $15 $-1 $16 #
body $-1 $17 $-1 $18 #
body $-1 $19 $-1 $20 #
body $-1 $21 $-1 $22 #
body $-1 $23 $-1 $24 #
body $-1 $25 $-1 $26 #
lump $-1 $-1 $27 $0 #
transform $-1 1 0 0 0 1 0 0 0 1 48.573259681997129 24.311385645212848 11.581425648638874 1 rotate no_reflect no_shear #
lump $-1 $-1 $28 $1 #
transform $-1 1 0 0 0 1 0 0 0 1 48.573259681997129 24.311385645212848 11.581425648638874 1 rotate no_reflect no_shear #
lump $-1 $-1 $29 $2 #
transform $-1 1 0 0 0 1 0 0 0 1 48.573259681997129 24.311385645212848 11.581425648638874 1 rotate no_reflect no_shear #
lump $-1 $-1 $30 $3 #
transform $-1 1 0 0 0 1 0 0 0 1 48.573259681997129 24.311385645212848 11.581425648638874 1 rotate no_reflect no_shear #
lump $-1 $-1 $31 $4 #
transform $-1 1 0 0 0 1 0 0 0 1 48.573259681997129 24.311385645212848 11.581425648638874 1 rotate no_reflect no_shear #
lump $-1 $-1 $32 $5 #
transform $-1 1 0 0 0 1 0 0 0 1 48.573259681997129 24.311385645212848 11.581425648638874 1 rotate no_reflect no_shear #
lump $-1 $-1 $33 $6 #
transform $-1 1 0 0 0 1 0 0 0 1 48.573259681997129 24.311385645212848 11.581425648638874 1 rotate no_reflect no_shear #
lump $-1 $-1 $34 $7 #
transform $-1 1 0 0 0 1 0 0 0 1 48.573259681997129 24.311385645212848 11.581425648638874 1 rotate no_reflect no_shear #
lump $-1 $-1 $35 $8 #
transform $-1 1 0 0 0 1 0 0 0 1 48.573259681997129 24.311385645212848 11.581425648638874 1 rotate no_reflect no_shear #
shell $-1 $-1 $-1 $36 $-1 $9 #
shell $-1 $-1 $-1 $37 $-1 $11 #
shell $-1 $-1 $-1 $38 $-1 $13 #
shell $-1 $-1 $-1 $39 $-1 $15 #
shell $-1 $-1 $-1 $40 $-1 $17 #
shell $-1 $-1 $-1 $41 $-1 $19 #
shell $-1 $-1 $-1 $42 $-1 $21 #
shell $-1 $-1 $-1 $43 $-1 $23 #
shell $-1 $-1 $-1 $44 $-1 $25 #
face $-1 $45 $46 $27 $-1 $47 forward single #
face $-1 $48 $49 $28 $-1 $50 forward single #
face $-1 $51 $52 $29 $-1 $53 reversed single #
face $-1 $54 $55 $30 $-1 $56 forward single #
face $-1 $57 $58 $31 $-1 $59 forward single #
face $-1 $60 $61 $32 $-1 $62 reversed single #
face $-1 $63 $64 $33 $-1 $65 forward single #
face $-1 $66 $67 $34 $-1 $68 forward single #
face $-1 $69 $70 $35 $-1 $71 forward single #
face $-1 $72 $73 $27 $-1 $74 reversed single #
loop $-1 $-1 $75 $36 #
plane-surface $-1 0 0 11.581425648638874 0 0 1 1 0 0 forward_v I I I I #
face $-1 $76 $77 $28 $-1 $78 forward single #
loop $-1 $-1 $79 $37 #
plane-surface $-1 0 -24.311385645212848 0 0 1 0 0 0 1 forward_v I I I I #
face $-1 $80 $81 $29 $-1 $82 reversed single #
loop $-1 $-1 $83 $38 #
plane-surface $-1 -122.99181181415341 12.988547197834041 63.991575946061118 0 1 0 -0.7660444514056185 0 0.64278759981090561 forward_v I I I I #
face $-1 $84 $85 $30 $-1 $86 forward single #
loop $-1 $87 $88 $39 #
cone-surface $-1 -43.617156487527964 14.991063453096881 5.9381083815535485 0.7660444514056185 0 -0.64278759981090561 0.3213937999054528 0 0.38302222570280925 1 I I 0 1 0.5 forward I I I I #
face $-1 $89 $90 $31 $-1 $91 forward single #
loop $-1 $92 $93 $40 #
cone-surface $-1 -43.617156487527964 17.994837835991145 5.9381083815535485 0.7660444514056185 0 -0.64278759981090561 0.3213937999054528 0 0.38302222570280925 1 I I 0 1 0.5 forward I I I I #
face $-1 $94 $95 $32 $-1 $96 reversed single #
loop $-1 $-1 $97 $41 #
plane-surface $-1 50.970976316933957 14.521348959624536 138.35285848255614 0 -1 0 -0.71933980857756763 0 -0.69465836192734942 forward_v I I I I #
face $-1 $98 $99 $33 $-1 $100 forward single #
loop $-1 $101 $102 $42 #
cone-surface $-1 42.911526005869149 9.5211775710670459 5.7567102887024086 -0.71933980857756763 0 -0.69465836192734942 0.34732918096367471 0 -0.35966990428878381 1 I I 0 1 0.5 forward I I I I #
face $-1 $103 $104 $34 $-1 $105 forward single #
loop $-1 $106 $107 $43 #
cone-surface $-1 42.911526005869149 11.396241841776106 5.7567102887024086 -0.71933980857756763 0 -0.69465836192734942 0.34732918096367471 0 -0.35966990428878381 1 I I 0 1 0.5 forward I I I I #
face $-1 $108 $109 $35 $-1 $110 forward single #
loop $-1 $111 $112 $44 #
cone-surface $-1 42.911526005869149 13.271306112485167 5.7567102887024086 -0.71933980857756763 0 -0.69465836192734942 0.34732918096367471 0 -0.35966990428878381 1 I I 0 1 0.5 forward I I I I #
face $-1 $113 $114 $27 $-1 $115 reversed single #
loop $-1 $-1 $116 $45 #
plane-surface $-1 0 0 -11.581425648638874 0 0 1 1 0 0 forward_v I I I I #
coedge $-1 $117 $118 $119 $120 forward $46 $-1 #
face $-1 $121 $122 $28 $-1 $123 reversed single #
loop $-1 $-1 $124 $48 #
plane-surface $-1 0 0 11.581425648638874 0 0 1 1 0 0 forward_v I I I I #
coedge $-1 $125 $126 $127 $128 forward $49 $-1 #
face $-1 $129 $130 $29 $-1 $131 reversed single #
loop $-1 $-1 $132 $51 #
plane-surface $-1 -48.573259681997129 16.492950644544013 1.5469979340955859 -0.7660444514056185 0 0.64278759981090561 0.64278759981090561 0 0.7660444514056185 forward_v I I I I #
coedge $-1 $133 $134 $135 $136 reversed $52 $-1 #
face $-1 $-1 $137 $30 $-1 $138 forward single #
loop $-1 $139 $140 $54 #
cone-surface $-1 -42.679484367160235 14.991063453096881 5.1513080717871453 0.7660444514056185 0 -0.64278759981090561 0.1606968999527264 0 0.19151111285140462 1 I I -0.70710678118654746 0.70710678118654746 0.25 forward I I I I #
loop $-1 $-1 $141 $39 #
coedge $-1 $88 $88 $142 $143 reversed $55 $-1 #
face $-1 $-1 $144 $31 $-1 $145 forward single #
loop $-1 $146 $147 $57 #
cone-surface $-1 -42.679484367160235 17.994837835991145 5.1513080717871453 0.7660444514056185 0 -0.64278759981090561 0.1606968999527264 0 0.19151111285140462 1 I I -0.70710678118654746 0.70710678118654746 0.25 forward I I I I #
loop $-1 $-1 $148 $40 #
coedge $-1 $93 $93 $149 $150 reversed $58 $-1 #
face $-1 $151 $152 $32 $-1 $153 reversed single #
loop $-1 $-1 $154 $60 #
plane-surface $-1 -18.910382326338635 11.396241841776106 70.869216474220366 0.71933980857756763 0 0.69465836192734942 0.69465836192734942 0 -0.71933980857756763 forward_v I I I I #
coedge $-1 $155 $156 $157 $158 reversed $61 $-1 #
face $-1 $-1 $159 $33 $-1 $160 forward single #
loop $-1 $161 $162 $63 #
cone-surface $-1 42.185002019540889 9.5211775710670459 5.0551142471296622 -0.71933980857756763 0 -0.69465836192734942 0.17366459048183736 0 -0.17983495214439191 1 I I -0.70710678118654746 0.70710678118654746 0.25 forward I I I I #
loop $-1 $-1 $163 $42 #
coedge $-1 $102 $102 $164 $165 reversed $64 $-1 #
face $-1 $-1 $166 $34 $-1 $167 forward single #
loop $-1 $168 $169 $66 #
cone-surface $-1 42.185002019540889 11.396241841776106 5.0551142471296622 -0.71933980857756763 0 -0.69465836192734942 0.17366459048183736 0 -0.17983495214439191 1 I I -0.70710678118654746 0.70710678118654746 0.25 forward I I I I #
loop $-1 $-1 $170 $43 #
coedge $-1 $107 $107 $171 $172 reversed $67 $-1 #
face $-1 $-1 $173 $35 $-1 $174 forward single #
loop $-1 $175 $176 $69 #
cone-surface $-1 42.185002019540889 13.271306112485167 5.0551142471296622 -0.71933980857756763 0 -0.69465836192734942 0.17366459048183736 0 -0.17983495214439191 1 I I -0.70710678118654746 0.70710678118654746 0.25 forward I I I I #
loop $-1 $-1 $177 $44 #
coedge $-1 $112 $112 $178 $179 reversed $70 $-1 #
face $-1 $180 $181 $27 $-1 $182 reversed single #
loop $-1 $-1 $183 $72 #
plane-surface $-1 0 -24.311385645212848 0 0 1 0 0 0 1 forward_v I I I I #
coedge $-1 $184 $185 $186 $187 forward $73 $-1 #
coedge $-1 $188 $75 $189 $190 forward $46 $-1 #
coedge $-1 $75 $188 $191 $192 forward $46 $-1 #
coedge $-1 $193 $194 $75 $120 reversed $195 $-1 #
edge $-1 $196 -24.311385645212848 $197 24.311385645212848 $119 $198 forward 7 unknown #
face $-1 $199 $200 $28 $-1 $201 reversed single #
loop $-1 $-1 $202 $76 #
plane-surface $-1 -48.573259681997129 0 0 1 0 0 0 0 -1 forward_v I I I I #
coedge $-1 $203 $204 $126 $205 forward $77 $-1 #
coedge $-1 $206 $79 $207 $208 reversed $49 $-1 #
coedge $-1 $79 $206 $124 $205 reversed $49 $-1 #
coedge $-1 $209 $210 $79 $128 reversed $211 $-1 #
edge $-1 $212 -11.581425648638874 $213 11.581425648638874 $127 $214 forward 7 unknown #
face $-1 $215 $216 $29 $-1 $217 reversed single #
loop $-1 $-1 $218 $80 #
plane-surface $-1 -122.99181181415341 19.997354091253985 63.991575946061118 0 -1 0 0.7660444514056185 0 -0.64278759981090561 forward_v I I I I #
coedge $-1 $219 $220 $221 $222 reversed $81 $-1 #
coedge $-1 $134 $83 $223 $224 reversed $52 $-1 #
coedge $-1 $83 $133 $219 $225 reversed $52 $-1 #
coedge $-1 $221 $226 $83 $136 forward $227 $-1 #
edge $-1 $228 12.922646225079575 $229 21.342530598985249 $135 $230 forward 7 unknown #
loop $-1 $-1 $142 $84 #
plane-surface $-1 -48.573259681997129 16.492950644544013 1.5469979340955859 -0.7660444514056185 0 0.64278759981090561 0.64278759981090561 0 0.7660444514056185 forward_v I I I I #
loop $-1 $-1 $231 $54 #
coedge $-1 $140 $140 $141 $232 reversed $85 $-1 #
coedge $-1 $141 $141 $140 $232 forward $87 $-1 #
coedge $-1 $142 $142 $88 $143 forward $137 $-1 #
edge $-1 $233 0 $233 6.2831853071796004 $142 $234 forward 7 unknown #
loop $-1 $-1 $149 $89 #
plane-surface $-1 -48.573259681997129 16.492950644544013 1.5469979340955859 -0.7660444514056185 0 0.64278759981090561 0.64278759981090561 0 0.7660444514056185 forward_v I I I I #
loop $-1 $-1 $235 $57 #
coedge $-1 $147 $147 $148 $236 reversed $90 $-1 #
coedge $-1 $148 $148 $147 $236 forward $92 $-1 #
coedge $-1 $149 $149 $93 $150 forward $144 $-1 #
edge $-1 $237 0 $237 6.2831853071796004 $149 $238 forward 7 unknown #
face $-1 $239 $240 $32 $-1 $241 forward single #
loop $-1 $-1 $242 $94 #
plane-surface $-1 50.970976316933957 8.2711347239276769 138.35285848255614 0 1 0 0.71933980857756763 0 0.69465836192734942 forward_v I I I I #
coedge $-1 $243 $244 $245 $246 reversed $95 $-1 #
coedge $-1 $156 $97 $247 $248 reversed $61 $-1 #
coedge $-1 $97 $155 $243 $249 reversed $61 $-1 #
coedge $-1 $245 $250 $97 $158 forward $240 $-1 #
edge $-1 $251 -23.087771523530151 $252 -12.857682239641932 $157 $253 forward 7 unknown #
loop $-1 $-1 $164 $98 #
plane-surface $-1 -18.910382326338635 11.396241841776106 70.869216474220366 0.71933980857756763 0 0.69465836192734942 0.69465836192734942 0 -0.71933980857756763 forward_v I I I I #
loop $-1 $-1 $254 $63 #
coedge $-1 $162 $162 $163 $255 reversed $99 $-1 #
coedge $-1 $163 $163 $162 $255 forward $101 $-1 #
coedge $-1 $164 $164 $102 $165 forward $159 $-1 #
edge $-1 $256 0 $256 6.2831853071796004 $164 $257 forward 7 unknown #
loop $-1 $-1 $171 $103 #
plane-surface $-1 -18.910382326338635 11.396241841776106 70.869216474220366 0.71933980857756763 0 0.69465836192734942 0.69465836192734942 0 -0.71933980857756763 forward_v I I I I #
loop $-1 $-1 $258 $66 #
coedge $-1 $169 $169 $170 $259 reversed $104 $-1 #
coedge $-1 $170 $170 $169 $259 forward $106 $-1 #
coedge $-1 $171 $171 $107 $172 forward $166 $-1 #
edge $-1 $260 0 $260 6.2831853071796004 $171 $261 forward 7 unknown #
loop $-1 $-1 $178 $108 #
plane-surface $-1 -18.910382326338635 11.396241841776106 70.869216474220366 0.71933980857756763 0 0.69465836192734942 0.69465836192734942 0 -0.71933980857756763 forward_v I I I I #
loop $-1 $-1 $262 $69 #
coedge $-1 $176 $176 $177 $263 reversed $109 $-1 #
coedge $-1 $177 $177 $176 $263 forward $111 $-1 #
coedge $-1 $178 $178 $112 $179 forward $173 $-1 #
edge $-1 $264 0 $264 6.2831853071796004 $178 $265 forward 7 unknown #
face $-1 $266 $267 $27 $-1 $268 reversed single #
loop $-1 $-1 $269 $113 #
plane-surface $-1 -48.573259681997129 0 0 1 0 0 0 0 -1 forward_v I I I I #
coedge $-1 $270 $191 $271 $272 forward $114 $-1 #
coedge $-1 $273 $116 $270 $274 forward $73 $-1 #
coedge $-1 $116 $273 $275 $276 forward $73 $-1 #
coedge $-1 $194 $193 $116 $187 reversed $195 $-1 #
edge $-1 $277 -24.311385645212848 $278 24.311385645212848 $186 $279 forward 7 unknown #
coedge $-1 $118 $117 $280 $281 forward $46 $-1 #
coedge $-1 $282 $283 $117 $190 reversed $267 $-1 #
edge $-1 $197 -48.573259681997129 $284 48.573259681997129 $189 $285 forward 7 unknown #
coedge $-1 $183 $286 $118 $192 reversed $114 $-1 #
edge $-1 $287 -48.573259681997129 $196 48.573259681997129 $191 $288 forward 7 unknown #
coedge $-1 $186 $119 $286 $289 forward $195 $-1 #
coedge $-1 $119 $186 $282 $290 reversed $195 $-1 #
loop $-1 $-1 $193 $266 #
vertex $-1 $120 $291 #
vertex $-1 $120 $292 #
straight-curve $-1 48.573259681997129 0 11.581425648638874 0 1 0 I I #
face $-1 $293 $211 $28 $-1 $294 reversed single #
loop $-1 $-1 $295 $121 #
plane-surface $-1 -45.82778282995293 -37.700470831812865 0 0 1 0 0 0 1 forward_v I I I I #
coedge $-1 $296 $297 $206 $298 forward $122 $-1 #
coedge $-1 $299 $124 $297 $300 forward $77 $-1 #
coedge $-1 $124 $299 $209 $301 forward $77 $-1 #
edge $-1 $212 43.082305977908732 $302 48.573259681997129 $124 $303 forward 7 unknown #
coedge $-1 $126 $125 $202 $298 reversed $49 $-1 #
coedge $-1 $304 $305 $125 $208 forward $306 $-1 #
edge $-1 $307 -48.573259681997129 $213 -43.082305977908732 $207 $308 forward 7 unknown #
coedge $-1 $309 $127 $204 $301 reversed $211 $-1 #
coedge $-1 $127 $309 $304 $310 reversed $211 $-1 #
loop $-1 $-1 $309 $199 #
vertex $-1 $205 $311 #
vertex $-1 $310 $312 #
straight-curve $-1 -43.082305977908732 -24.311385645212848 0 0 0 -1 I I #
face $-1 $-1 $227 $29 $-1 $313 forward single #
loop $-1 $-1 $314 $129 #
plane-surface $-1 -48.573259681997129 0 0 1 0 0 0 0 -1 forward_v I I I I #
coedge $-1 $315 $316 $317 $318 reversed $130 $-1 #
coedge $-1 $319 $132 $134 $225 forward $81 $-1 #
coedge $-1 $132 $319 $315 $320 forward $81 $-1 #
coedge $-1 $317 $135 $132 $222 forward $227 $-1 #
edge $-1 $229 4.7420718755620346 $321 11.750878768981979 $221 $322 forward 7 unknown #
coedge $-1 $323 $324 $133 $224 forward $216 $-1 #
edge $-1 $325 -30.448790038934973 $228 -20.414362324391686 $223 $326 forward 7 unknown #
edge $-1 $229 -13.099014941144828 $325 0 $134 $327 forward 7 unknown #
coedge $-1 $135 $317 $323 $328 forward $227 $-1 #
loop $-1 $-1 $317 $215 #
vertex $-1 $224 $329 #
vertex $-1 $136 $330 #
straight-curve $-1 -61.495905907076704 12.988547197834041 11.581425648638874 1 0 0 I I #
coedge $-1 $231 $231 $-1 $331 reversed $139 $-1 #
edge $-1 $332 0 $332 6.2831853071796004 $140 $333 forward 7 unknown #
vertex $-1 $143 $334 #
ellipse-curve $-1 -44.363317495044292 14.991063453096881 6.5642117913672289 -0.7660444514056185 0 0.64278759981090561 0.3213937999054528 0 0.38302222570280925 1 I I #
coedge $-1 $235 $235 $-1 $335 reversed $146 $-1 #
edge $-1 $336 0 $336 6.2831853071796004 $147 $337 forward 7 unknown #
vertex $-1 $150 $338 #
ellipse-curve $-1 -44.363317495044292 17.994837835991145 6.5642117913672289 -0.7660444514056185 0 0.64278759981090561 0.3213937999054528 0 0.38302222570280925 1 I I #
face $-1 $-1 $339 $32 $-1 $340 reversed single #
loop $-1 $-1 $157 $151 #
plane-surface $-1 0 0 11.581425648638874 0 0 1 1 0 0 forward_v I I I I #
coedge $-1 $341 $342 $343 $344 reversed $152 $-1 #
coedge $-1 $345 $154 $156 $249 forward $95 $-1 #
coedge $-1 $154 $345 $341 $346 forward $95 $-1 #
coedge $-1 $343 $157 $154 $246 forward $240 $-1 #
edge $-1 $252 -8.8232280387364828 $347 -2.5730138030396237 $245 $348 forward 7 unknown #
coedge $-1 $349 $350 $155 $248 forward $339 $-1 #
edge $-1 $351 -68.188571410330283 $251 -57.595003592639202 $247 $352 forward 7 unknown #
edge $-1 $252 82.419727253546526 $351 97.14651936399423 $156 $353 forward 7 unknown #
coedge $-1 $157 $343 $349 $354 forward $240 $-1 #
vertex $-1 $158 $355 #
vertex $-1 $158 $356 #
straight-curve $-1 25.485488158466978 14.521348959624536 11.58142564863887 -1 0 0 I I #
coedge $-1 $254 $254 $-1 $357 reversed $161 $-1 #
edge $-1 $358 0 $358 6.2831853071796004 $162 $359 forward 7 unknown #
vertex $-1 $165 $360 #
ellipse-curve $-1 43.458215040053027 9.5211775710670459 6.2846417397933223 0.71933980857756763 0 0.69465836192734942 0.34732918096367471 0 -0.35966990428878381 1 I I #
coedge $-1 $258 $258 $-1 $361 reversed $168 $-1 #
edge $-1 $362 0 $362 6.2831853071796004 $169 $363 forward 7 unknown #
vertex $-1 $172 $364 #
ellipse-curve $-1 43.458215040053027 11.396241841776106 6.2846417397933223 0.71933980857756763 0 0.69465836192734942 0.34732918096367471 0 -0.35966990428878381 1 I I #
coedge $-1 $262 $262 $-1 $365 reversed $175 $-1 #
edge $-1 $366 0 $366 6.2831853071796004 $176 $367 forward 7 unknown #
vertex $-1 $179 $368 #
ellipse-curve $-1 43.458215040053027 13.271306112485167 6.2846417397933223 0.71933980857756763 0 0.69465836192734942 0.34732918096367471 0 -0.35966990428878381 1 I I #
face $-1 $-1 $195 $27 $-1 $369 reversed single #
loop $-1 $-1 $282 $180 #
plane-surface $-1 0 24.311385645212848 0 0 -1 0 0 0 -1 forward_v I I I I #
coedge $-1 $370 $280 $283 $371 forward $181 $-1 #
coedge $-1 $286 $183 $184 $274 reversed $114 $-1 #
coedge $-1 $280 $370 $183 $272 reversed $181 $-1 #
edge $-1 $287 -11.581425648638874 $372 11.581425648638874 $271 $373 forward 7 unknown #
coedge $-1 $185 $184 $370 $374 forward $73 $-1 #
edge $-1 $278 -48.573259681997129 $372 48.573259681997129 $270 $375 forward 7 unknown #
coedge $-1 $283 $282 $185 $276 reversed $267 $-1 #
edge $-1 $376 -48.573259681997129 $277 48.573259681997129 $275 $377 forward 7 unknown #
vertex $-1 $187 $378 #
vertex $-1 $289 $379 #
straight-curve $-1 48.573259681997129 0 -11.581425648638874 0 -1 0 I I #
coedge $-1 $269 $271 $188 $281 reversed $181 $-1 #
edge $-1 $284 -24.311385645212848 $287 24.311385645212848 $280 $380 forward 7 unknown #
coedge $-1 $275 $189 $194 $290 forward $267 $-1 #
coedge $-1 $189 $275 $269 $371 reversed $267 $-1 #
vertex $-1 $190 $381 #
straight-curve $-1 0 24.311385645212848 11.581425648638874 -1 0 0 I I #
coedge $-1 $191 $270 $193 $289 reversed $114 $-1 #
vertex $-1 $281 $382 #
straight-curve $-1 0 -24.311385645212848 11.581425648638874 1 0 0 I I #
edge $-1 $196 -11.581425648638874 $278 11.581425648638874 $193 $383 forward 7 unknown #
edge $-1 $197 -11.581425648638874 $277 11.581425648638874 $194 $384 forward 7 unknown #
point $-1 48.573259681997129 -24.311385645212848 11.581425648638874 #
point $-1 48.573259681997129 24.311385645212848 11.581425648638874 #
face $-1 $-1 $306 $28 $-1 $385 reversed single #
plane-surface $-1 -43.082305977908732 -31.005928238512858 0 -1 0 0 0 0 1 forward_v I I I I #
coedge $-1 $386 $387 $388 $389 forward $200 $-1 #
coedge $-1 $388 $202 $305 $390 reversed $122 $-1 #
coedge $-1 $202 $388 $203 $300 reversed $122 $-1 #
edge $-1 $302 -11.581425648638874 $307 11.581425648638874 $202 $391 forward 7 unknown #
coedge $-1 $204 $203 $387 $392 forward $77 $-1 #
edge $-1 $302 24.311385645212848 $393 37.700470831812865 $297 $394 forward 7 unknown #
edge $-1 $395 -6.6945425933000067 $212 6.6945425933000067 $209 $396 forward 7 unknown #
vertex $-1 $300 $397 #
straight-curve $-1 0 -24.311385645212848 11.581425648638874 -1 0 0 I I #
coedge $-1 $398 $207 $210 $310 forward $306 $-1 #
coedge $-1 $207 $398 $296 $390 forward $306 $-1 #
loop $-1 $-1 $207 $293 #
vertex $-1 $298 $399 #
straight-curve $-1 0 -24.311385645212848 -11.581425648638874 1 0 0 I I #
coedge $-1 $210 $209 $400 $401 forward $211 $-1 #
edge $-1 $213 -6.6945425933000067 $402 6.6945425933000067 $210 $403 forward 7 unknown #
point $-1 -43.082305977908732 -24.311385645212852 11.581425648638874 #
point $-1 -43.082305977908732 -24.311385645212852 -11.581425648638874 #
plane-surface $-1 0 0 11.581425648638874 0 0 1 1 0 0 forward_v I I I I #
coedge $-1 $324 $323 $316 $404 forward $216 $-1 #
coedge $-1 $316 $218 $220 $320 reversed $130 $-1 #
coedge $-1 $218 $315 $314 $404 reversed $130 $-1 #
coedge $-1 $226 $221 $218 $318 forward $227 $-1 #
edge $-1 $321 -21.342530598985249 $405 -12.922646225079575 $317 $406 forward 7 unknown #
coedge $-1 $220 $219 $324 $407 reversed $81 $-1 #
edge $-1 $408 0 $321 13.099014941144828 $315 $409 forward 7 unknown #
vertex $-1 $222 $410 #
straight-curve $-1 -40.153375308091455 8.2464753222720066 11.581425648638874 0 1 0 I I #
coedge $-1 $314 $223 $226 $328 reversed $216 $-1 #
coedge $-1 $223 $314 $319 $407 forward $216 $-1 #
vertex $-1 $224 $411 #
straight-curve $-1 -48.573259681997129 12.988547197834041 31.995787973030559 0 0 1 I I #
straight-curve $-1 -48.573259681997129 12.988547197834041 1.5469979340955859 -0.64278759981090561 0 -0.7660444514056185 I I #
edge $-1 $405 -19.997354091253985 $228 -12.988547197834041 $323 $412 forward 7 unknown #
point $-1 -48.573259681997129 12.988547197834041 11.581425648638874 #
point $-1 -40.153375308091455 12.988547197834041 11.581425648638874 #
edge $-1 $413 1 $413 0 $231 $-1 forward 7 unknown #
vertex $-1 $232 $414 #
ellipse-curve $-1 -42.870995480011636 14.991063453096881 5.3120049717398716 -0.7660444514056185 0 0.64278759981090561 0.3213937999054528 0 0.38302222570280925 1 I I #
point $-1 -44.041923695138834 14.991063453096881 6.9472340170700351 #
edge $-1 $415 1 $415 0 $235 $-1 forward 7 unknown #
vertex $-1 $236 $416 #
ellipse-curve $-1 -42.870995480011636 17.994837835991145 5.3120049717398716 -0.7660444514056185 0 0.64278759981090561 0.3213937999054528 0 0.38302222570280925 1 I I #
point $-1 -44.041923695138834 17.994837835991145 6.9472340170700351 #
loop $-1 $-1 $247 $239 #
plane-surface $-1 48.573259681997129 0 0 -1 0 0 0 0 1 forward_v I I I I #
coedge $-1 $342 $242 $244 $346 reversed $152 $-1 #
coedge $-1 $242 $341 $417 $418 reversed $152 $-1 #
coedge $-1 $250 $245 $242 $344 forward $240 $-1 #
edge $-1 $347 12.857682239641932 $419 23.087771523530151 $343 $420 forward 7 unknown #
coedge $-1 $244 $243 $350 $421 reversed $95 $-1 #
edge $-1 $422 -97.14651936399423 $347 -82.419727253546526 $341 $423 forward 7 unknown #
vertex $-1 $246 $424 #
straight-curve $-1 38.34317039810891 5.6981209208880532 11.581425648638877 0 -1 0 I I #
coedge $-1 $417 $247 $250 $354 reversed $339 $-1 #
coedge $-1 $247 $417 $345 $421 forward $339 $-1 #
vertex $-1 $248 $425 #
straight-curve $-1 48.573259681997129 14.521348959624536 69.176429241278072 0 0 1 I I #
straight-curve $-1 -18.910382326338635 14.521348959624536 70.869216474220366 0.69465836192734942 0 -0.71933980857756763 I I #
edge $-1 $419 8.2711347239276769 $251 14.521348959624536 $349 $426 forward 7 unknown #
point $-1 48.573259681997129 14.521348959624536 11.581425648638874 #
point $-1 38.34317039810891 14.521348959624536 11.581425648638877 #
edge $-1 $427 1 $427 0 $254 $-1 forward 7 unknown #
vertex $-1 $255 $428 #
ellipse-curve $-1 42.364836971685278 9.5211775710670459 5.2287788376114994 0.71933980857756763 0 0.69465836192734942 0.34732918096367471 0 -0.35966990428878381 1 I I #
point $-1 43.805544221016696 9.5211775710670459 5.9249718355045333 #
edge $-1 $429 1 $429 0 $258 $-1 forward 7 unknown #
vertex $-1 $259 $430 #
ellipse-curve $-1 42.364836971685278 11.396241841776106 5.2287788376114994 0.71933980857756763 0 0.69465836192734942 0.34732918096367471 0 -0.35966990428878381 1 I I #
point $-1 43.805544221016696 11.396241841776106 5.9249718355045333 #
edge $-1 $431 1 $431 0 $262 $-1 forward 7 unknown #
vertex $-1 $263 $432 #
ellipse-curve $-1 42.364836971685278 13.271306112485167 5.2287788376114994 0.71933980857756763 0 0.69465836192734942 0.34732918096367471 0 -0.35966990428878381 1 I I #
point $-1 43.805544221016696 13.271306112485167 5.9249718355045333 #
plane-surface $-1 48.573259681997129 0 0 -1 0 0 0 0 1 forward_v I I I I #
coedge $-1 $271 $269 $273 $374 reversed $181 $-1 #
edge $-1 $284 -11.581425648638874 $376 11.581425648638874 $283 $433 forward 7 unknown #
vertex $-1 $374 $434 #
straight-curve $-1 -48.573259681997129 -24.311385645212848 0 0 0 -1 I I #
edge $-1 $372 -24.311385645212848 $376 24.311385645212848 $370 $435 forward 7 unknown #
straight-curve $-1 0 -24.311385645212848 -11.581425648638874 -1 0 0 I I #
vertex $-1 $276 $436 #
straight-curve $-1 0 24.311385645212848 -11.581425648638874 1 0 0 I I #
point $-1 48.573259681997129 24.311385645212848 -11.581425648638874 #
point $-1 48.573259681997129 -24.311385645212848 -11.581425648638874 #
straight-curve $-1 -48.573259681997129 0 11.581425648638874 0 -1 0 I I #
point $-1 -48.573259681997129 24.311385645212848 11.581425648638874 #
point $-1 -48.573259681997129 -24.311385645212848 11.581425648638874 #
straight-curve $-1 48.573259681997129 -24.311385645212848 0 0 0 -1 I I #
straight-curve $-1 48.573259681997129 24.311385645212848 0 0 0 -1 I I #
plane-surface $-1 0 0 -11.581425648638874 0 0 1 1 0 0 forward_v I I I I #
coedge $-1 $400 $295 $398 $437 reversed $200 $-1 #
coedge $-1 $295 $400 $299 $392 reversed $200 $-1 #
coedge $-1 $297 $296 $295 $389 reversed $122 $-1 #
edge $-1 $393 -11.581425648638874 $438 11.581425648638874 $388 $439 forward 7 unknown #
edge $-1 $438 -37.700470831812865 $307 -24.311385645212848 $296 $440 forward 7 unknown #
straight-curve $-1 -48.573259681997129 -24.311385645212848 0 0 0 -1 I I #
edge $-1 $393 -2.7454768520441988 $395 2.7454768520441988 $387 $441 forward 7 unknown #
vertex $-1 $300 $442 #
straight-curve $-1 -48.573259681997129 0 11.581425648638874 0 -1 0 I I #
vertex $-1 $301 $443 #
straight-curve $-1 -43.082305977908732 -31.005928238512858 11.581425648638874 0 1 0 I I #
point $-1 -48.573259681997129 -24.311385645212848 11.581425648638874 #
coedge $-1 $305 $304 $386 $437 forward $306 $-1 #
point $-1 -48.573259681997129 -24.311385645212848 -11.581425648638874 #
coedge $-1 $387 $386 $309 $401 reversed $200 $-1 #
edge $-1 $395 -11.581425648638874 $402 11.581425648638874 $309 $444 forward 7 unknown #
vertex $-1 $401 $445 #
straight-curve $-1 -43.082305977908732 -31.005928238512858 -11.581425648638874 0 -1 0 I I #
edge $-1 $405 20.414362324391686 $408 30.448790038934973 $314 $446 forward 7 unknown #
vertex $-1 $328 $447 #
straight-curve $-1 -61.495905907076704 19.997354091253985 11.581425648638874 -1 0 0 I I #
edge $-1 $408 -11.750878768981979 $325 -4.7420718755620346 $324 $448 forward 7 unknown #
vertex $-1 $407 $449 #
straight-curve $-1 -48.573259681997129 19.997354091253985 1.5469979340955859 0.64278759981090561 0 0.7660444514056185 I I #
point $-1 -40.153375308091455 19.997354091253985 11.581425648638874 #
point $-1 -48.573259681997129 12.988547197834041 1.5469979340955859 #
straight-curve $-1 -48.573259681997129 0 11.581425648638874 0 -1 0 I I #
vertex $-1 $331 $450 #
point $-1 -42.549601680106186 14.991063453096881 5.6950271974426805 #
vertex $-1 $335 $451 #
point $-1 -42.549601680106186 17.994837835991145 5.6950271974426805 #
coedge $-1 $350 $349 $342 $418 forward $339 $-1 #
edge $-1 $419 57.595003592639202 $422 68.188571410330283 $417 $452 forward 7 unknown #
vertex $-1 $354 $453 #
straight-curve $-1 25.485488158466978 8.2711347239276769 11.58142564863887 1 0 0 I I #
edge $-1 $422 2.5730138030396237 $351 8.8232280387364828 $350 $454 forward 7 unknown #
vertex $-1 $421 $455 #
straight-curve $-1 -18.910382326338635 8.2711347239276769 70.869216474220366 -0.69465836192734942 0 0.71933980857756763 I I #
point $-1 38.34317039810891 8.2711347239276769 11.581425648638877 #
point $-1 48.573259681997129 14.521348959624536 0.98785783094778878 #
straight-curve $-1 48.573259681997129 0 11.581425648638874 0 1 0 I I #
vertex $-1 $357 $456 #
point $-1 42.712166152648955 9.5211775710670459 4.8691089333227158 #
vertex $-1 $361 $457 #
point $-1 42.712166152648955 11.396241841776106 4.8691089333227158 #
vertex $-1 $365 $458 #
point $-1 42.712166152648955 13.271306112485167 4.8691089333227158 #
straight-curve $-1 -48.573259681997129 24.311385645212848 0 0 0 -1 I I #
point $-1 -48.573259681997129 -24.311385645212848 -11.581425648638874 #
straight-curve $-1 -48.573259681997129 0 -11.581425648638874 0 1 0 I I #
point $-1 -48.573259681997129 24.311385645212848 -11.581425648638874 #
edge $-1 $402 -2.7454768520441988 $438 2.7454768520441988 $386 $459 forward 7 unknown #
vertex $-1 $390 $460 #
straight-curve $-1 -48.573259681997129 -37.700470831812865 0 0 0 -1 I I #
straight-curve $-1 -48.573259681997129 0 -11.581425648638874 0 1 0 I I #
straight-curve $-1 -45.82778282995293 -37.700470831812865 11.581425648638874 1 0 0 I I #
point $-1 -48.573259681997129 -37.700470831812865 11.581425648638874 #
point $-1 -43.082305977908732 -37.700470831812865 11.581425648638874 #
straight-curve $-1 -43.082305977908732 -37.700470831812865 0 0 0 -1 I I #
point $-1 -43.082305977908732 -37.700470831812865 -11.581425648638874 #
straight-curve $-1 -48.573259681997129 19.997354091253985 31.995787973030559 0 0 -1 I I #
point $-1 -48.573259681997129 19.997354091253985 11.581425648638874 #
straight-curve $-1 -48.573259681997129 8.2464753222720066 1.5469979340955864 0 -1 0 I I #
point $-1 -48.573259681997129 19.997354091253985 1.5469979340955859 #
point $-1 -42.487973254308834 14.991063453096881 4.990611171834419 #
point $-1 -42.487973254308834 17.994837835991145 4.990611171834419 #
straight-curve $-1 48.573259681997129 8.2711347239276769 69.176429241278072 0 0 -1 I I #
point $-1 48.573259681997129 8.2711347239276769 11.581425648638874 #
straight-curve $-1 48.573259681997122 5.6981209208880532 0.98785783094778878 0 1 0 I I #
point $-1 48.573259681997129 8.2711347239276769 0.98785783094778878 #
point $-1 42.005167067396499 9.5211775710670459 4.8814496566478249 #
point $-1 42.005167067396499 11.396241841776106 4.8814496566478249 #
point $-1 42.005167067396499 13.271306112485167 4.8814496566478249 #
straight-curve $-1 -45.82778282995293 -37.700470831812865 -11.581425648638874 -1 0 0 I I #
point $-1 -48.573259681997129 -37.700470831812865 -11.581425648638874 #
End-of-ACIS-data 