500 0 11 0           
7 Unknown 11 ACIS 5.0 NT 24 Fri Mar 26 18:27:48 1999 
-1 9.9999999999999995e-007 1e-010 
body $-1 $11 $-1 $12 #
body $-1 $13 $-1 $14 #
body $-1 $15 $-1 $16 #
body $-1 $17 $-1 $18 #
body $-1 $19 $-1 $20 #
body $-1 $21 $-1 $22 #
body $-1 $23 $-1 $24 #
body $-1 $25 $-1 $26 #
body $-1 $27 $-1 $28 #
body $-1 $29 $-1 $30 #
body $-1 $31 $-1 $32 #
lump $-1 $-1 $33 $0 #
transform $-1 1 0 0 0 1 0 0 0 1 77.258217108676405 31.563943981257093 9.8138463968825089 1 rotate no_reflect no_shear #
lump $-1 $-1 $34 $1 #
transform $-1 1 0 0 0 1 0 0 0 1 77.258217108676405 31.563943981257093 9.8138463968825089 1 rotate no_reflect no_shear #
lump $-1 $-1 $35 $2 #
transform $-1 1 0 0 0 1 0 0 0 1 77.258217108676405 31.563943981257093 9.8138463968825089 1 rotate no_reflect no_shear #
lump $-1 $-1 $36 $3 #
transform $-1 1 0 0 0 1 0 0 0 1 77.258217108676405 31.563943981257093 9.8138463968825089 1 rotate no_reflect no_shear #
lump $-1 $-1 $37 $4 #
transform $-1 1 0 0 0 1 0 0 0 1 77.258217108676405 31.563943981257093 9.8138463968825089 1 rotate no_reflect no_shear #
lump $-1 $-1 $38 $5 #
transform $-1 1 0 0 0 1 0 0 0 1 77.258217108676405 31.563943981257093 9.8138463968825089 1 rotate no_reflect no_shear #
lump $-1 $-1 $39 $6 #
transform $-1 1 0 0 0 1 0 0 0 1 77.258217108676405 31.563943981257093 9.8138463968825089 1 rotate no_reflect no_shear #
lump $-1 $-1 $40 $7 #
transform $-1 1 0 0 0 1 0 0 0 1 77.258217108676405 31.563943981257093 9.8138463968825089 1 rotate no_reflect no_shear #
lump $-1 $-1 $41 $8 #
transform $-1 1 0 0 0 1 0 0 0 1 77.258217108676405 31.563943981257093 9.8138463968825089 1 rotate no_reflect no_shear #
lump $-1 $-1 $42 $9 #
transform $-1 1 0 0 0 1 0 0 0 1 77.258217108676405 31.563943981257093 9.8138463968825089 1 rotate no_reflect no_shear #
lump $-1 $-1 $43 $10 #
transform $-1 1 0 0 0 1 0 0 0 1 77.258217108676405 31.563943981257093 9.8138463968825089 1 rotate no_reflect no_shear #
shell $-1 $-1 $-1 $44 $-1 $11 #
shell $-1 $-1 $-1 $45 $-1 $13 #
shell $-1 $-1 $-1 $46 $-1 $15 #
shell $-1 $-1 $-1 $47 $-1 $17 #
shell $-1 $-1 $-1 $48 $-1 $19 #
shell $-1 $-1 $-1 $49 $-1 $21 #
shell $-1 $-1 $-1 $50 $-1 $23 #
shell $-1 $-1 $-1 $51 $-1 $25 #
shell $-1 $-1 $-1 $52 $-1 $27 #
shell $-1 $-1 $-1 $53 $-1 $29 #
shell $-1 $-1 $-1 $54 $-1 $31 #
face $-1 $55 $56 $33 $-1 $57 forward single #
face $-1 $58 $59 $34 $-1 $60 reversed single #
face $-1 $61 $62 $35 $-1 $63 reversed single #
face $-1 $64 $65 $36 $-1 $66 forward single #
face $-1 $67 $68 $37 $-1 $69 forward single #
face $-1 $70 $71 $38 $-1 $72 reversed single #
face $-1 $73 $74 $39 $-1 $75 forward single #
face $-1 $76 $77 $40 $-1 $78 forward single #
face $-1 $79 $80 $41 $-1 $81 reversed single #
face $-1 $82 $83 $42 $-1 $84 forward single #
face $-1 $85 $86 $43 $-1 $87 forward single #
face $-1 $88 $89 $33 $-1 $90 reversed single #
loop $-1 $-1 $91 $44 #
plane-surface $-1 0 0 9.8138463968825089 0 0 1 1 0 0 forward_v I I I I #
face $-1 $92 $93 $34 $-1 $94 reversed single #
loop $-1 $-1 $95 $45 #
plane-surface $-1 0 -26.083470691259393 6.8138463968825089 0 0 1 1 0 0 forward_v I I I I #
face $-1 $96 $97 $35 $-1 $98 reversed single #
loop $-1 $-1 $99 $46 #
plane-surface $-1 28.102086134896993 14.805300043901834 216.66978523483627 0 -1 0 -0.52991927123019833 0 -0.84804809178421925 forward_v I I I I #
face $-1 $100 $101 $36 $-1 $102 forward single #
loop $-1 $103 $104 $47 #
cone-surface $-1 71.95112047638365 3.7604596760118092 6.0528399962251722 -0.52991927123019833 0 -0.84804809178421925 1.2720721376763289 0 -0.79487890684529749 1 I I 0 1 1.5 forward I I I I #
face $-1 $105 $106 $37 $-1 $107 forward single #
loop $-1 $108 $109 $48 #
cone-surface $-1 71.95112047638365 10.387363896745821 6.0528399962251722 -0.52991927123019833 0 -0.84804809178421925 1.2720721376763289 0 -0.79487890684529749 1 I I 0 1 1.5 forward I I I I #
face $-1 $110 $111 $38 $-1 $112 reversed single #
loop $-1 $-1 $113 $49 #
plane-surface $-1 -192.08630692810141 -11.82252500942735 103.96685927265638 0 1 0 -0.74314483375859142 0 0.66913059716165679 forward_v I I I I #
face $-1 $114 $115 $39 $-1 $116 forward single #
loop $-1 $117 $118 $50 #
cone-surface $-1 -72.727380920643682 -9.845688903956141 4.8599505866150423 0.74314483375859142 0 -0.66913059716165679 0.3345652985808284 0 0.37157241687929571 1 I I 0 1 0.5 forward I I I I #
face $-1 $119 $120 $40 $-1 $121 forward single #
loop $-1 $122 $123 $51 #
cone-surface $-1 -72.727380920643682 -6.88043474574933 4.8599505866150423 0.74314483375859142 0 -0.66913059716165679 0.3345652985808284 0 0.37157241687929571 1 I I 0 1 0.5 forward I I I I #
face $-1 $124 $125 $41 $-1 $126 reversed single #
loop $-1 $-1 $127 $52 #
plane-surface $-1 -192.08630692810141 15.864545220273515 103.96685927265638 0 1 0 -0.74314483375859142 0 0.66913059716165679 forward_v I I I I #
face $-1 $128 $129 $42 $-1 $130 forward single #
loop $-1 $131 $132 $53 #
cone-surface $-1 -72.727380920643682 17.841381325744724 4.8599505866150423 0.74314483375859142 0 -0.66913059716165679 0.3345652985808284 0 0.37157241687929571 1 I I 0 1 0.5 forward I I I I #
face $-1 $133 $134 $43 $-1 $135 forward single #
loop $-1 $136 $137 $54 #
cone-surface $-1 -72.727380920643682 20.806635483951535 4.8599505866150423 0.74314483375859142 0 -0.66913059716165679 0.3345652985808284 0 0.37157241687929571 1 I I 0 1 0.5 forward I I I I #
face $-1 $138 $139 $33 $-1 $140 reversed single #
loop $-1 $-1 $141 $55 #
plane-surface $-1 0 0 -9.8138463968825089 0 0 1 1 0 0 forward_v I I I I #
coedge $-1 $142 $143 $144 $145 forward $56 $-1 #
face $-1 $146 $147 $34 $-1 $148 reversed single #
loop $-1 $-1 $149 $58 #
plane-surface $-1 0 -20.602997401261696 8.3138463968825089 0 -1 0 0 0 -1 forward_v I I I I #
coedge $-1 $150 $151 $152 $153 reversed $59 $-1 #
face $-1 $154 $155 $35 $-1 $156 reversed single #
loop $-1 $-1 $157 $61 #
plane-surface $-1 -53.779150078651483 7.0739117863788188 85.632418047508366 0.52991927123019833 0 0.84804809178421925 0.84804809178421925 0 -0.52991927123019833 forward_v I I I I #
coedge $-1 $158 $159 $160 $161 reversed $62 $-1 #
face $-1 $-1 $162 $36 $-1 $163 forward single #
loop $-1 $164 $165 $64 #
cone-surface $-1 71.097730020622947 3.7604596760118092 4.6871298081910044 -0.52991927123019833 0 -0.84804809178421925 0.63603606883816444 0 -0.39743945342264875 1 I I -0.70710678118654757 0.70710678118654757 0.75 forward I I I I #
loop $-1 $-1 $166 $47 #
coedge $-1 $104 $104 $167 $168 reversed $65 $-1 #
face $-1 $-1 $169 $37 $-1 $170 forward single #
loop $-1 $171 $172 $67 #
cone-surface $-1 71.097730020622947 10.387363896745821 4.6871298081910044 -0.52991927123019833 0 -0.84804809178421925 0.63603606883816444 0 -0.39743945342264875 1 I I -0.70710678118654757 0.70710678118654757 0.75 forward I I I I #
loop $-1 $-1 $173 $48 #
coedge $-1 $109 $109 $174 $175 reversed $68 $-1 #
face $-1 $176 $177 $38 $-1 $178 reversed single #
loop $-1 $-1 $179 $70 #
plane-surface $-1 -77.258217108676433 -8.3630618248527391 0.57518537350922827 -0.74314483375859142 0 0.66913059716165679 0.66913059716165679 0 0.74314483375859142 forward_v I I I I #
coedge $-1 $180 $181 $182 $183 reversed $71 $-1 #
face $-1 $-1 $184 $39 $-1 $185 forward single #
loop $-1 $186 $187 $73 #
cone-surface $-1 -72.170022295324742 -9.845688903956141 4.3581026387437998 0.74314483375859142 0 -0.66913059716165679 0.1672826492904142 0 0.18578620843964785 1 I I -0.70710678118654746 0.70710678118654746 0.25 forward I I I I #
loop $-1 $-1 $188 $50 #
coedge $-1 $118 $118 $189 $190 reversed $74 $-1 #
face $-1 $-1 $191 $40 $-1 $192 forward single #
loop $-1 $193 $194 $76 #
cone-surface $-1 -72.170022295324742 -6.88043474574933 4.3581026387437998 0.74314483375859142 0 -0.66913059716165679 0.1672826492904142 0 0.18578620843964785 1 I I -0.70710678118654746 0.70710678118654746 0.25 forward I I I I #
loop $-1 $-1 $195 $51 #
coedge $-1 $123 $123 $196 $197 reversed $77 $-1 #
face $-1 $198 $199 $41 $-1 $200 reversed single #
loop $-1 $-1 $201 $79 #
plane-surface $-1 -77.258217108676433 19.324008404848126 0.57518537350922827 -0.74314483375859142 0 0.66913059716165679 0.66913059716165679 0 0.74314483375859142 forward_v I I I I #
coedge $-1 $202 $203 $204 $205 reversed $80 $-1 #
face $-1 $-1 $206 $42 $-1 $207 forward single #
loop $-1 $208 $209 $82 #
cone-surface $-1 -72.170022295324742 17.841381325744724 4.3581026387437998 0.74314483375859142 0 -0.66913059716165679 0.1672826492904142 0 0.18578620843964785 1 I I -0.70710678118654746 0.70710678118654746 0.25 forward I I I I #
loop $-1 $-1 $210 $53 #
coedge $-1 $132 $132 $211 $212 reversed $83 $-1 #
face $-1 $-1 $213 $43 $-1 $214 forward single #
loop $-1 $215 $216 $85 #
cone-surface $-1 -72.170022295324742 20.806635483951535 4.3581026387437998 0.74314483375859142 0 -0.66913059716165679 0.1672826492904142 0 0.18578620843964785 1 I I -0.70710678118654746 0.70710678118654746 0.25 forward I I I I #
loop $-1 $-1 $217 $54 #
coedge $-1 $137 $137 $218 $219 reversed $86 $-1 #
face $-1 $220 $221 $33 $-1 $222 reversed single #
loop $-1 $-1 $223 $88 #
plane-surface $-1 0 -31.563943981257093 0 0 1 0 0 0 1 forward_v I I I I #
coedge $-1 $224 $225 $226 $227 forward $89 $-1 #
coedge $-1 $228 $91 $229 $230 forward $56 $-1 #
coedge $-1 $91 $228 $231 $232 forward $56 $-1 #
coedge $-1 $233 $234 $91 $145 reversed $235 $-1 #
edge $-1 $236 -31.563943981257093 $237 31.563943981257093 $144 $238 forward 7 unknown #
face $-1 $239 $240 $34 $-1 $241 reversed single #
loop $-1 $-1 $242 $92 #
plane-surface $-1 -77.258217108676405 0 0 1 0 0 0 0 -1 forward_v I I I I #
coedge $-1 $243 $244 $245 $246 reversed $93 $-1 #
coedge $-1 $247 $95 $248 $249 reversed $59 $-1 #
coedge $-1 $95 $247 $243 $250 forward $59 $-1 #
coedge $-1 $245 $251 $95 $153 forward $252 $-1 #
edge $-1 $253 -18.522208635627393 $254 -7.5612620556319996 $152 $255 forward 7 unknown #
face $-1 $256 $257 $35 $-1 $258 reversed single #
loop $-1 $-1 $259 $96 #
plane-surface $-1 28.102086134896993 -0.65747647114419649 216.66978523483627 0 1 0 0.52991927123019833 0 0.84804809178421925 forward_v I I I I #
coedge $-1 $260 $261 $262 $263 reversed $97 $-1 #
coedge $-1 $159 $99 $264 $265 reversed $62 $-1 #
coedge $-1 $99 $158 $260 $266 reversed $62 $-1 #
coedge $-1 $262 $267 $99 $161 forward $268 $-1 #
edge $-1 $269 -63.207174041227908 $270 -53.50488278131845 $160 $271 forward 7 unknown #
loop $-1 $-1 $167 $100 #
plane-surface $-1 -53.779150078651483 7.0739117863788188 85.632418047508366 0.52991927123019833 0 0.84804809178421925 0.84804809178421925 0 -0.52991927123019833 forward_v I I I I #
loop $-1 $-1 $272 $64 #
coedge $-1 $165 $165 $166 $273 reversed $101 $-1 #
coedge $-1 $166 $166 $165 $273 forward $103 $-1 #
coedge $-1 $167 $167 $104 $168 forward $162 $-1 #
edge $-1 $274 0 $274 6.2831853071796004 $167 $275 forward 7 unknown #
loop $-1 $-1 $174 $105 #
plane-surface $-1 -53.779150078651483 7.0739117863788188 85.632418047508366 0.52991927123019833 0 0.84804809178421925 0.84804809178421925 0 -0.52991927123019833 forward_v I I I I #
loop $-1 $-1 $276 $67 #
coedge $-1 $172 $172 $173 $277 reversed $106 $-1 #
coedge $-1 $173 $173 $172 $277 forward $108 $-1 #
coedge $-1 $174 $174 $109 $175 forward $169 $-1 #
edge $-1 $278 0 $278 6.2831853071796004 $174 $279 forward 7 unknown #
face $-1 $280 $281 $38 $-1 $282 forward single #
loop $-1 $-1 $283 $110 #
plane-surface $-1 -192.08630692810141 -4.903598640278128 103.96685927265638 0 -1 0 0.74314483375859142 0 -0.66913059716165679 forward_v I I I I #
coedge $-1 $284 $285 $286 $287 reversed $111 $-1 #
coedge $-1 $181 $113 $288 $289 reversed $71 $-1 #
coedge $-1 $113 $180 $284 $290 reversed $71 $-1 #
coedge $-1 $286 $291 $113 $183 forward $281 $-1 #
edge $-1 $292 18.784936355374299 $293 27.103463897681124 $182 $294 forward 7 unknown #
loop $-1 $-1 $189 $114 #
plane-surface $-1 -77.258217108676433 -8.3630618248527391 0.57518537350922827 -0.74314483375859142 0 0.66913059716165679 0.66913059716165679 0 0.74314483375859142 forward_v I I I I #
loop $-1 $-1 $295 $73 #
coedge $-1 $187 $187 $188 $296 reversed $115 $-1 #
coedge $-1 $188 $188 $187 $296 forward $117 $-1 #
coedge $-1 $189 $189 $118 $190 forward $184 $-1 #
edge $-1 $297 0 $297 6.2831853071796004 $189 $298 forward 7 unknown #
loop $-1 $-1 $196 $119 #
plane-surface $-1 -77.258217108676433 -8.3630618248527391 0.57518537350922827 -0.74314483375859142 0 0.66913059716165679 0.66913059716165679 0 0.74314483375859142 forward_v I I I I #
loop $-1 $-1 $299 $76 #
coedge $-1 $194 $194 $195 $300 reversed $120 $-1 #
coedge $-1 $195 $195 $194 $300 forward $122 $-1 #
coedge $-1 $196 $196 $123 $197 forward $191 $-1 #
edge $-1 $301 0 $301 6.2831853071796004 $196 $302 forward 7 unknown #
face $-1 $303 $304 $41 $-1 $305 forward single #
loop $-1 $-1 $306 $124 #
plane-surface $-1 -192.08630692810141 22.783471589422739 103.96685927265638 0 -1 0 0.74314483375859142 0 -0.66913059716165679 forward_v I I I I #
coedge $-1 $307 $308 $309 $310 reversed $125 $-1 #
coedge $-1 $203 $127 $311 $312 reversed $80 $-1 #
coedge $-1 $127 $202 $307 $313 reversed $80 $-1 #
coedge $-1 $309 $314 $127 $205 forward $304 $-1 #
edge $-1 $315 18.784936355374299 $316 27.103463897681124 $204 $317 forward 7 unknown #
loop $-1 $-1 $211 $128 #
plane-surface $-1 -77.258217108676433 19.324008404848126 0.57518537350922827 -0.74314483375859142 0 0.66913059716165679 0.66913059716165679 0 0.74314483375859142 forward_v I I I I #
loop $-1 $-1 $318 $82 #
coedge $-1 $209 $209 $210 $319 reversed $129 $-1 #
coedge $-1 $210 $210 $209 $319 forward $131 $-1 #
coedge $-1 $211 $211 $132 $212 forward $206 $-1 #
edge $-1 $320 0 $320 6.2831853071796004 $211 $321 forward 7 unknown #
loop $-1 $-1 $218 $133 #
plane-surface $-1 -77.258217108676433 19.324008404848126 0.57518537350922827 -0.74314483375859142 0 0.66913059716165679 0.66913059716165679 0 0.74314483375859142 forward_v I I I I #
loop $-1 $-1 $322 $85 #
coedge $-1 $216 $216 $217 $323 reversed $134 $-1 #
coedge $-1 $217 $217 $216 $323 forward $136 $-1 #
coedge $-1 $218 $218 $137 $219 forward $213 $-1 #
edge $-1 $324 0 $324 6.2831853071796004 $218 $325 forward 7 unknown #
face $-1 $326 $327 $33 $-1 $328 reversed single #
loop $-1 $-1 $329 $138 #
plane-surface $-1 -77.258217108676405 0 0 1 0 0 0 0 -1 forward_v I I I I #
coedge $-1 $330 $231 $331 $332 forward $139 $-1 #
coedge $-1 $333 $141 $330 $334 forward $89 $-1 #
coedge $-1 $141 $333 $335 $336 forward $89 $-1 #
coedge $-1 $234 $233 $141 $227 reversed $235 $-1 #
edge $-1 $337 -31.563943981257093 $338 31.563943981257093 $226 $339 forward 7 unknown #
coedge $-1 $143 $142 $340 $341 forward $56 $-1 #
coedge $-1 $342 $343 $142 $230 reversed $327 $-1 #
edge $-1 $237 -77.258217108676405 $344 77.258217108676405 $229 $345 forward 7 unknown #
coedge $-1 $223 $346 $143 $232 reversed $139 $-1 #
edge $-1 $347 -77.258217108676405 $236 77.258217108676405 $231 $348 forward 7 unknown #
coedge $-1 $226 $144 $346 $349 forward $235 $-1 #
coedge $-1 $144 $226 $342 $350 reversed $235 $-1 #
loop $-1 $-1 $233 $326 #
vertex $-1 $145 $351 #
vertex $-1 $145 $352 #
straight-curve $-1 77.258217108676405 0 9.8138463968825089 0 1 0 I I #
face $-1 $353 $354 $34 $-1 $355 forward single #
loop $-1 $-1 $248 $146 #
plane-surface $-1 0 -31.563943981257093 0 0 1 0 0 0 1 forward_v I I I I #
coedge $-1 $356 $357 $358 $359 forward $147 $-1 #
coedge $-1 $358 $149 $151 $250 reversed $93 $-1 #
coedge $-1 $149 $358 $360 $361 reversed $93 $-1 #
coedge $-1 $362 $152 $149 $246 forward $252 $-1 #
edge $-1 $254 2.6569231984412545 $363 5.6569231984412545 $245 $364 forward 7 unknown #
coedge $-1 $151 $150 $356 $365 reversed $59 $-1 #
coedge $-1 $366 $367 $150 $249 forward $240 $-1 #
edge $-1 $368 -77.258217108676405 $253 77.258217108676405 $248 $369 forward 7 unknown #
edge $-1 $370 -77.258217108676405 $254 77.258217108676405 $243 $371 forward 7 unknown #
coedge $-1 $152 $362 $366 $372 forward $252 $-1 #
loop $-1 $-1 $245 $353 #
vertex $-1 $249 $373 #
vertex $-1 $153 $374 #
straight-curve $-1 77.258217108676405 -13.041735345629696 6.8138463968825089 0 1 0 I I #
face $-1 $-1 $268 $35 $-1 $375 forward single #
loop $-1 $-1 $376 $154 #
plane-surface $-1 77.258217108676405 0 0 -1 0 0 0 0 1 forward_v I I I I #
coedge $-1 $377 $378 $379 $380 reversed $155 $-1 #
coedge $-1 $381 $157 $159 $266 forward $97 $-1 #
coedge $-1 $157 $381 $377 $382 forward $97 $-1 #
coedge $-1 $379 $160 $157 $263 forward $268 $-1 #
edge $-1 $270 -11.268344150712425 $383 4.1944323643336059 $262 $384 forward 7 unknown #
coedge $-1 $385 $386 $158 $265 forward $257 $-1 #
edge $-1 $387 -104.58371078345824 $269 -98.521046220535624 $264 $388 forward 7 unknown #
edge $-1 $270 143.0757018415548 $387 154.51643421735281 $159 $389 forward 7 unknown #
coedge $-1 $160 $379 $385 $390 forward $268 $-1 #
loop $-1 $-1 $379 $256 #
vertex $-1 $265 $391 #
vertex $-1 $161 $392 #
straight-curve $-1 14.051043067448497 14.805300043901834 9.8138463968825107 -1 0 0 I I #
coedge $-1 $272 $272 $-1 $393 reversed $164 $-1 #
edge $-1 $394 0 $394 6.2831853071796004 $165 $395 forward 7 unknown #
vertex $-1 $168 $396 #
ellipse-curve $-1 72.407071478721704 3.7604596760118092 6.7825141154211845 0.52991927123019833 0 0.84804809178421925 1.2720721376763289 0 -0.79487890684529749 1 I I #
coedge $-1 $276 $276 $-1 $397 reversed $171 $-1 #
edge $-1 $398 0 $398 6.2831853071796004 $172 $399 forward 7 unknown #
vertex $-1 $175 $400 #
ellipse-curve $-1 72.407071478721704 10.387363896745821 6.7825141154211845 0.52991927123019833 0 0.84804809178421925 1.2720721376763289 0 -0.79487890684529749 1 I I #
face $-1 $-1 $401 $38 $-1 $402 reversed single #
loop $-1 $-1 $182 $176 #
plane-surface $-1 0 0 9.8138463968825089 0 0 1 1 0 0 forward_v I I I I #
coedge $-1 $403 $404 $405 $406 reversed $177 $-1 #
coedge $-1 $407 $179 $181 $290 forward $111 $-1 #
coedge $-1 $179 $407 $403 $408 forward $111 $-1 #
coedge $-1 $405 $182 $179 $287 forward $281 $-1 #
edge $-1 $293 -7.6409940970009806 $409 -0.72206772785175843 $286 $410 forward 7 unknown #
coedge $-1 $411 $412 $180 $289 forward $401 $-1 #
edge $-1 $413 -51.408244262818933 $292 -42.169583239445679 $288 $414 forward 7 unknown #
edge $-1 $293 -12.431844512256188 $413 -4.2449440147509963e-014 $181 $415 forward 7 unknown #
coedge $-1 $182 $405 $411 $416 forward $281 $-1 #
vertex $-1 $289 $417 #
vertex $-1 $183 $418 #
straight-curve $-1 -96.043153464050704 -11.82252500942735 9.8138463968825107 1 0 0 I I #
coedge $-1 $295 $295 $-1 $419 reversed $186 $-1 #
edge $-1 $420 0 $420 6.2831853071796004 $187 $421 forward 7 unknown #
vertex $-1 $190 $422 #
ellipse-curve $-1 -73.098953337523 -9.845688903956141 5.1945158851958855 -0.74314483375859142 0 0.66913059716165679 0.3345652985808284 0 0.37157241687929571 1 I I #
coedge $-1 $299 $299 $-1 $423 reversed $193 $-1 #
edge $-1 $424 0 $424 6.2831853071796004 $194 $425 forward 7 unknown #
vertex $-1 $197 $426 #
ellipse-curve $-1 -73.098953337523 -6.88043474574933 5.1945158851958855 -0.74314483375859142 0 0.66913059716165679 0.3345652985808284 0 0.37157241687929571 1 I I #
face $-1 $-1 $427 $41 $-1 $428 reversed single #
loop $-1 $-1 $204 $198 #
plane-surface $-1 0 0 9.8138463968825089 0 0 1 1 0 0 forward_v I I I I #
coedge $-1 $429 $430 $431 $432 reversed $199 $-1 #
coedge $-1 $433 $201 $203 $313 forward $125 $-1 #
coedge $-1 $201 $433 $429 $434 forward $125 $-1 #
coedge $-1 $431 $204 $201 $310 forward $304 $-1 #
edge $-1 $316 6.2025410178494518 $435 13.121467386998676 $309 $436 forward 7 unknown #
coedge $-1 $437 $438 $202 $312 forward $427 $-1 #
edge $-1 $439 -51.408244262818933 $315 -42.169583239445679 $311 $440 forward 7 unknown #
edge $-1 $316 -12.431844512256188 $439 -4.2449440147509963e-014 $203 $441 forward 7 unknown #
coedge $-1 $204 $431 $437 $442 forward $304 $-1 #
vertex $-1 $205 $443 #
vertex $-1 $205 $444 #
straight-curve $-1 -96.043153464050704 15.864545220273515 9.8138463968825107 1 0 0 I I #
coedge $-1 $318 $318 $-1 $445 reversed $208 $-1 #
edge $-1 $446 0 $446 6.2831853071796004 $209 $447 forward 7 unknown #
vertex $-1 $212 $448 #
ellipse-curve $-1 -73.098953337523 17.841381325744724 5.1945158851958855 -0.74314483375859142 0 0.66913059716165679 0.3345652985808284 0 0.37157241687929571 1 I I #
coedge $-1 $322 $322 $-1 $449 reversed $215 $-1 #
edge $-1 $450 0 $450 6.2831853071796004 $216 $451 forward 7 unknown #
vertex $-1 $219 $452 #
ellipse-curve $-1 -73.098953337523 20.806635483951535 5.1945158851958855 -0.74314483375859142 0 0.66913059716165679 0.3345652985808284 0 0.37157241687929571 1 I I #
face $-1 $-1 $235 $33 $-1 $453 reversed single #
loop $-1 $-1 $342 $220 #
plane-surface $-1 0 31.563943981257093 0 0 -1 0 0 0 -1 forward_v I I I I #
coedge $-1 $454 $340 $343 $455 forward $221 $-1 #
coedge $-1 $346 $223 $224 $334 reversed $139 $-1 #
coedge $-1 $340 $454 $223 $332 reversed $221 $-1 #
edge $-1 $347 -9.8138463968825089 $456 9.8138463968825089 $331 $457 forward 7 unknown #
coedge $-1 $225 $224 $454 $458 forward $89 $-1 #
edge $-1 $338 -77.258217108676405 $456 77.258217108676405 $330 $459 forward 7 unknown #
coedge $-1 $343 $342 $225 $336 reversed $327 $-1 #
edge $-1 $460 -77.258217108676405 $337 77.258217108676405 $335 $461 forward 7 unknown #
vertex $-1 $227 $462 #
vertex $-1 $349 $463 #
straight-curve $-1 77.258217108676405 0 -9.8138463968825089 0 -1 0 I I #
coedge $-1 $329 $331 $228 $341 reversed $221 $-1 #
edge $-1 $344 -31.563943981257093 $347 31.563943981257093 $340 $464 forward 7 unknown #
coedge $-1 $335 $229 $234 $350 forward $327 $-1 #
coedge $-1 $229 $335 $329 $455 reversed $327 $-1 #
vertex $-1 $230 $465 #
straight-curve $-1 0 31.563943981257093 9.8138463968825089 -1 0 0 I I #
coedge $-1 $231 $330 $233 $349 reversed $139 $-1 #
vertex $-1 $341 $466 #
straight-curve $-1 0 -31.563943981257093 9.8138463968825089 1 0 0 I I #
edge $-1 $236 -9.8138463968825089 $338 9.8138463968825089 $233 $467 forward 7 unknown #
edge $-1 $237 -9.8138463968825089 $337 9.8138463968825089 $234 $468 forward 7 unknown #
point $-1 77.258217108676405 -31.563943981257093 9.8138463968825089 #
point $-1 77.258217108676405 31.563943981257093 9.8138463968825089 #
face $-1 $-1 $252 $34 $-1 $469 reversed single #
loop $-1 $-1 $360 $239 #
plane-surface $-1 0 0 9.8138463968825089 0 0 1 1 0 0 forward_v I I I I #
coedge $-1 $470 $242 $247 $365 forward $147 $-1 #
coedge $-1 $242 $470 $471 $472 reversed $147 $-1 #
coedge $-1 $244 $243 $242 $359 reversed $93 $-1 #
edge $-1 $473 -5.6569231984412545 $370 -2.6569231984412545 $242 $474 forward 7 unknown #
coedge $-1 $471 $475 $244 $361 forward $354 $-1 #
edge $-1 $363 -77.258217108676405 $473 77.258217108676405 $360 $476 forward 7 unknown #
coedge $-1 $251 $245 $475 $477 reversed $252 $-1 #
vertex $-1 $246 $478 #
straight-curve $-1 77.258217108676405 -20.602997401261696 4.1569231984412545 0 0 1 I I #
edge $-1 $370 7.5612620556319996 $368 18.522208635627393 $356 $479 forward 7 unknown #
coedge $-1 $480 $248 $251 $372 reversed $240 $-1 #
coedge $-1 $248 $480 $470 $481 forward $240 $-1 #
vertex $-1 $249 $482 #
straight-curve $-1 0 -31.563943981257093 6.8138463968825089 1 0 0 I I #
vertex $-1 $365 $483 #
straight-curve $-1 0 -20.602997401261696 6.8138463968825089 1 0 0 I I #
edge $-1 $484 -9.8138463968825089 $253 -6.8138463968825089 $251 $485 forward 7 unknown #
point $-1 77.258217108676405 -31.56394398125709 6.8138463968825089 #
point $-1 77.258217108676405 -20.602997401261696 6.8138463968825089 #
plane-surface $-1 0 0 9.8138463968825089 0 0 1 1 0 0 forward_v I I I I #
coedge $-1 $386 $385 $378 $486 forward $257 $-1 #
coedge $-1 $378 $259 $261 $382 reversed $155 $-1 #
coedge $-1 $259 $377 $376 $486 reversed $155 $-1 #
coedge $-1 $267 $262 $259 $380 forward $268 $-1 #
edge $-1 $383 53.50488278131845 $487 63.207174041227908 $379 $488 forward 7 unknown #
coedge $-1 $261 $260 $386 $489 reversed $97 $-1 #
edge $-1 $490 -154.51643421735281 $383 -143.0757018415548 $377 $491 forward 7 unknown #
vertex $-1 $263 $492 #
straight-curve $-1 67.555925848766961 3.5369558931894094 9.8138463968825107 0 -1 0 I I #
coedge $-1 $376 $264 $267 $390 reversed $257 $-1 #
coedge $-1 $264 $376 $381 $489 forward $257 $-1 #
vertex $-1 $265 $493 #
straight-curve $-1 77.258217108676405 14.805300043901834 108.33489261741813 0 0 1 I I #
straight-curve $-1 -53.779150078651483 14.805300043901834 85.632418047508366 0.84804809178421925 0 -0.52991927123019833 I I #
edge $-1 $487 -0.65747647114419649 $269 14.805300043901834 $385 $494 forward 7 unknown #
point $-1 77.258217108676405 14.805300043901834 9.8138463968825089 #
point $-1 67.555925848766947 14.805300043901834 9.8138463968825107 #
edge $-1 $495 1 $495 0 $272 $-1 forward 7 unknown #
vertex $-1 $273 $496 #
ellipse-curve $-1 71.495169474045596 3.7604596760118092 5.3231658770291688 0.52991927123019833 0 0.84804809178421925 1.2720721376763289 0 -0.79487890684529749 1 I I #
point $-1 73.679143616398022 3.7604596760118092 5.9876352085758784 #
edge $-1 $497 1 $497 0 $276 $-1 forward 7 unknown #
vertex $-1 $277 $498 #
ellipse-curve $-1 71.495169474045596 10.387363896745821 5.3231658770291688 0.52991927123019833 0 0.84804809178421925 1.2720721376763289 0 -0.79487890684529749 1 I I #
point $-1 73.679143616398022 10.387363896745821 5.9876352085758784 #
loop $-1 $-1 $288 $280 #
plane-surface $-1 -77.258217108676405 0 0 1 0 0 0 0 -1 forward_v I I I I #
coedge $-1 $404 $283 $285 $408 reversed $177 $-1 #
coedge $-1 $283 $403 $499 $500 reversed $177 $-1 #
coedge $-1 $291 $286 $283 $406 forward $281 $-1 #
edge $-1 $409 -27.103463897681124 $501 -18.784936355374299 $405 $502 forward 7 unknown #
coedge $-1 $285 $284 $412 $503 reversed $111 $-1 #
edge $-1 $504 4.2449440147509963e-014 $409 12.431844512256188 $403 $505 forward 7 unknown #
vertex $-1 $287 $506 #
straight-curve $-1 -68.93968956636958 -4.1815309124263695 9.8138463968825107 0 1 0 I I #
coedge $-1 $499 $288 $291 $416 reversed $401 $-1 #
coedge $-1 $288 $499 $407 $503 forward $401 $-1 #
vertex $-1 $289 $507 #
straight-curve $-1 -77.258217108676405 -11.82252500942735 51.983429636328189 0 0 1 I I #
straight-curve $-1 -77.258217108676433 -11.82252500942735 0.57518537350922827 -0.66913059716165679 0 -0.74314483375859142 I I #
edge $-1 $501 4.903598640278128 $292 11.82252500942735 $411 $508 forward 7 unknown #
point $-1 -77.258217108676405 -11.82252500942735 9.8138463968825089 #
point $-1 -68.93968956636958 -11.82252500942735 9.8138463968825089 #
edge $-1 $509 1 $509 0 $295 $-1 forward 7 unknown #
vertex $-1 $296 $510 #
ellipse-curve $-1 -72.355808503764393 -9.845688903956141 4.5253852880342142 -0.74314483375859142 0 0.66913059716165679 0.3345652985808284 0 0.37157241687929571 1 I I #
point $-1 -72.764388038942158 -9.845688903956141 5.5660883020751664 #
edge $-1 $511 1 $511 0 $299 $-1 forward 7 unknown #
vertex $-1 $300 $512 #
ellipse-curve $-1 -72.355808503764393 -6.88043474574933 4.5253852880342142 -0.74314483375859142 0 0.66913059716165679 0.3345652985808284 0 0.37157241687929571 1 I I #
point $-1 -72.764388038942158 -6.88043474574933 5.5660883020751664 #
loop $-1 $-1 $311 $303 #
plane-surface $-1 -77.258217108676405 0 0 1 0 0 0 0 -1 forward_v I I I I #
coedge $-1 $430 $306 $308 $434 reversed $199 $-1 #
coedge $-1 $306 $429 $513 $514 reversed $199 $-1 #
coedge $-1 $314 $309 $306 $432 forward $304 $-1 #
edge $-1 $435 -27.103463897681124 $515 -18.784936355374299 $431 $516 forward 7 unknown #
coedge $-1 $308 $307 $438 $517 reversed $125 $-1 #
edge $-1 $518 4.2449440147509963e-014 $435 12.431844512256188 $429 $519 forward 7 unknown #
vertex $-1 $310 $520 #
straight-curve $-1 -68.93968956636958 9.6620042024240629 9.8138463968825107 0 1 0 I I #
coedge $-1 $513 $311 $314 $442 reversed $427 $-1 #
coedge $-1 $311 $513 $433 $517 forward $427 $-1 #
vertex $-1 $312 $521 #
straight-curve $-1 -77.258217108676405 15.864545220273515 51.983429636328189 0 0 1 I I #
straight-curve $-1 -77.258217108676433 15.864545220273515 0.57518537350922827 -0.66913059716165679 0 -0.74314483375859142 I I #
edge $-1 $515 -22.783471589422739 $315 -15.864545220273515 $437 $522 forward 7 unknown #
point $-1 -77.258217108676405 15.864545220273515 9.8138463968825089 #
point $-1 -68.93968956636958 15.864545220273515 9.8138463968825089 #
edge $-1 $523 1 $523 0 $318 $-1 forward 7 unknown #
vertex $-1 $319 $524 #
ellipse-curve $-1 -72.355808503764393 17.841381325744724 4.5253852880342142 -0.74314483375859142 0 0.66913059716165679 0.3345652985808284 0 0.37157241687929571 1 I I #
point $-1 -72.764388038942158 17.841381325744724 5.5660883020751664 #
edge $-1 $525 1 $525 0 $322 $-1 forward 7 unknown #
vertex $-1 $323 $526 #
ellipse-curve $-1 -72.355808503764393 20.806635483951535 4.5253852880342142 -0.74314483375859142 0 0.66913059716165679 0.3345652985808284 0 0.37157241687929571 1 I I #
point $-1 -72.764388038942158 20.806635483951535 5.5660883020751664 #
plane-surface $-1 77.258217108676405 0 0 -1 0 0 0 0 1 forward_v I I I I #
coedge $-1 $331 $329 $333 $458 reversed $221 $-1 #
edge $-1 $344 -9.8138463968825089 $460 9.8138463968825089 $343 $527 forward 7 unknown #
vertex $-1 $458 $528 #
straight-curve $-1 -77.258217108676405 -31.563943981257093 0 0 0 -1 I I #
edge $-1 $456 -31.563943981257093 $460 31.563943981257093 $454 $529 forward 7 unknown #
straight-curve $-1 0 -31.563943981257093 -9.8138463968825089 -1 0 0 I I #
vertex $-1 $336 $530 #
straight-curve $-1 0 31.563943981257093 -9.8138463968825089 1 0 0 I I #
point $-1 77.258217108676405 31.563943981257093 -9.8138463968825089 #
point $-1 77.258217108676405 -31.563943981257093 -9.8138463968825089 #
straight-curve $-1 -77.258217108676405 0 9.8138463968825089 0 -1 0 I I #
point $-1 -77.258217108676405 31.563943981257093 9.8138463968825089 #
point $-1 -77.258217108676405 -31.563943981257093 9.8138463968825089 #
straight-curve $-1 77.258217108676405 -31.563943981257093 0 0 0 -1 I I #
straight-curve $-1 77.258217108676405 31.563943981257093 0 0 0 -1 I I #
plane-surface $-1 77.258217108676405 0 0 -1 0 0 0 0 1 forward_v I I I I #
coedge $-1 $357 $356 $367 $481 reversed $147 $-1 #
coedge $-1 $531 $360 $357 $472 forward $354 $-1 #
edge $-1 $473 20.602997401261696 $532 31.563943981257093 $357 $533 forward 7 unknown #
vertex $-1 $472 $534 #
straight-curve $-1 -77.258217108676405 -20.602997401261696 4.1569231984412545 0 0 -1 I I #
coedge $-1 $360 $531 $362 $477 forward $354 $-1 #
straight-curve $-1 0 -20.602997401261696 9.8138463968825089 -1 0 0 I I #
edge $-1 $484 -31.563943981257093 $363 -20.602997401261696 $362 $535 forward 7 unknown #
point $-1 77.258217108676405 -20.602997401261696 9.8138463968825089 #
straight-curve $-1 -77.258217108676405 -13.041735345629696 6.8138463968825089 0 -1 0 I I #
coedge $-1 $367 $366 $531 $536 reversed $240 $-1 #
edge $-1 $532 -9.8138463968825089 $368 -6.8138463968825089 $470 $537 forward 7 unknown #
point $-1 -77.258217108676405 -31.56394398125709 6.8138463968825089 #
point $-1 -77.258217108676405 -20.602997401261696 6.8138463968825089 #
vertex $-1 $477 $538 #
straight-curve $-1 77.258217108676405 -31.563943981257093 0 0 0 -1 I I #
edge $-1 $487 98.521046220535624 $490 104.58371078345824 $376 $539 forward 7 unknown #
vertex $-1 $390 $540 #
straight-curve $-1 14.051043067448497 -0.65747647114419649 9.8138463968825107 1 0 0 I I #
edge $-1 $490 -4.1944323643336059 $387 11.268344150712425 $386 $541 forward 7 unknown #
vertex $-1 $489 $542 #
straight-curve $-1 -53.779150078651483 -0.65747647114419649 85.632418047508366 -0.84804809178421925 0 0.52991927123019833 I I #
point $-1 67.555925848766947 -0.65747647114419649 9.8138463968825107 #
point $-1 77.258217108676419 14.805300043901834 3.7511818339598904 #
straight-curve $-1 77.258217108676405 0 9.8138463968825089 0 1 0 I I #
vertex $-1 $393 $543 #
point $-1 72.767241611721929 3.7604596760118092 4.5282869701838715 #
vertex $-1 $397 $544 #
point $-1 72.767241611721929 10.387363896745821 4.5282869701838715 #
coedge $-1 $412 $411 $404 $500 forward $401 $-1 #
edge $-1 $501 42.169583239445679 $504 51.408244262818933 $499 $545 forward 7 unknown #
vertex $-1 $416 $546 #
straight-curve $-1 -96.043153464050704 -4.903598640278128 9.8138463968825107 -1 0 0 I I #
edge $-1 $504 0.72206772785175843 $413 7.6409940970009806 $412 $547 forward 7 unknown #
vertex $-1 $503 $548 #
straight-curve $-1 -77.258217108676433 -4.903598640278128 0.57518537350922827 0.66913059716165679 0 0.74314483375859142 I I #
point $-1 -68.93968956636958 -4.903598640278128 9.8138463968825089 #
point $-1 -77.258217108676405 -11.82252500942735 0.5751853735092598 #
straight-curve $-1 -77.258217108676405 0 9.8138463968825089 0 -1 0 I I #
vertex $-1 $419 $549 #
point $-1 -72.021243205183566 -9.845688903956141 4.8969577049135093 #
vertex $-1 $423 $550 #
point $-1 -72.021243205183566 -6.88043474574933 4.8969577049135093 #
coedge $-1 $438 $437 $430 $514 forward $427 $-1 #
edge $-1 $515 42.169583239445679 $518 51.408244262818933 $513 $551 forward 7 unknown #
vertex $-1 $442 $552 #
straight-curve $-1 -96.043153464050704 22.783471589422739 9.8138463968825107 -1 0 0 I I #
edge $-1 $518 -13.121467386998676 $439 -6.2025410178494518 $438 $553 forward 7 unknown #
vertex $-1 $517 $554 #
straight-curve $-1 -77.258217108676433 22.783471589422739 0.57518537350922827 0.66913059716165679 0 0.74314483375859142 I I #
point $-1 -68.93968956636958 22.783471589422739 9.8138463968825089 #
point $-1 -77.258217108676405 15.864545220273515 0.5751853735092598 #
straight-curve $-1 -77.258217108676405 0 9.8138463968825089 0 -1 0 I I #
vertex $-1 $445 $555 #
point $-1 -72.021243205183566 17.841381325744724 4.8969577049135093 #
vertex $-1 $449 $556 #
point $-1 -72.021243205183566 20.806635483951535 4.8969577049135093 #
straight-curve $-1 -77.258217108676405 31.563943981257093 0 0 0 -1 I I #
point $-1 -77.258217108676405 -31.563943981257093 -9.8138463968825089 #
straight-curve $-1 -77.258217108676405 0 -9.8138463968825089 0 1 0 I I #
point $-1 -77.258217108676405 31.563943981257093 -9.8138463968825089 #
coedge $-1 $475 $471 $480 $536 forward $354 $-1 #
vertex $-1 $472 $557 #
straight-curve $-1 -77.258217108676405 0 9.8138463968825089 0 -1 0 I I #
point $-1 -77.258217108676405 -20.602997401261696 9.8138463968825089 #
straight-curve $-1 77.258217108676405 0 9.8138463968825089 0 1 0 I I #
edge $-1 $532 -77.258217108676405 $484 77.258217108676405 $480 $558 forward 7 unknown #
straight-curve $-1 -77.258217108676405 -31.563943981257093 0 0 0 -1 I I #
point $-1 77.258217108676405 -31.563943981257093 9.8138463968825089 #
straight-curve $-1 77.258217108676405 -0.65747647114419649 108.33489261741813 0 0 -1 I I #
point $-1 77.258217108676405 -0.65747647114419649 9.8138463968825089 #
straight-curve $-1 77.258217108676419 3.5369558931894094 3.7511818339598761 0 1 0 I I #
point $-1 77.258217108676419 -0.65747647114419649 3.7511818339598904 #
point $-1 70.700290567200298 3.7604596760118092 4.0510937393528401 #
point $-1 70.700290567200298 10.387363896745821 4.0510937393528401 #
straight-curve $-1 -77.258217108676405 -4.903598640278128 51.983429636328189 0 0 -1 I I #
point $-1 -77.258217108676405 -4.903598640278128 9.8138463968825089 #
straight-curve $-1 -77.258217108676405 -4.1815309124263695 0.57518537350925758 0 -1 0 I I #
point $-1 -77.258217108676405 -4.903598640278128 0.5751853735092598 #
point $-1 -71.98423608688509 -9.845688903956141 4.1908199894533853 #
point $-1 -71.98423608688509 -6.88043474574933 4.1908199894533853 #
straight-curve $-1 -77.258217108676405 22.783471589422739 51.983429636328189 0 0 -1 I I #
point $-1 -77.258217108676405 22.783471589422739 9.8138463968825089 #
straight-curve $-1 -77.258217108676405 9.6620042024240629 0.57518537350925758 0 -1 0 I I #
point $-1 -77.258217108676405 22.783471589422739 0.5751853735092598 #
point $-1 -71.98423608688509 17.841381325744724 4.1908199894533853 #
point $-1 -71.98423608688509 20.806635483951535 4.1908199894533853 #
point $-1 -77.258217108676405 -31.563943981257093 9.8138463968825089 #
straight-curve $-1 0 -31.563943981257093 9.8138463968825089 1 0 0 I I #
End-of-ACIS-data 