500 0 5 0           
7 Unknown 11 ACIS 5.0 NT 24 Fri Mar 26 15:17:17 1999 
-1 9.9999999999999995e-007 1e-010 
body $-1 $5 $-1 $6 #
body $-1 $7 $-1 $8 #
body $-1 $9 $-1 $10 #
body $-1 $11 $-1 $12 #
body $-1 $13 $-1 $14 #
lump $-1 $-1 $15 $0 #
transform $-1 1 0 0 0 1 0 0 0 1 48.71120334482864 27.193211003284063 6.2400730263616806 1 rotate no_reflect no_shear #
lump $-1 $-1 $16 $1 #
transform $-1 1 0 0 0 1 0 0 0 1 48.71120334482864 27.193211003284063 6.2400730263616806 1 rotate no_reflect no_shear #
lump $-1 $-1 $17 $2 #
transform $-1 1 0 0 0 1 0 0 0 1 48.71120334482864 27.193211003284063 6.2400730263616806 1 rotate no_reflect no_shear #
lump $-1 $-1 $18 $3 #
transform $-1 1 0 0 0 1 0 0 0 1 48.71120334482864 27.193211003284063 6.2400730263616806 1 rotate no_reflect no_shear #
lump $-1 $-1 $19 $4 #
transform $-1 1 0 0 0 1 0 0 0 1 48.71120334482864 27.193211003284063 6.2400730263616806 1 rotate no_reflect no_shear #
shell $-1 $-1 $-1 $20 $-1 $5 #
shell $-1 $-1 $-1 $21 $-1 $7 #
shell $-1 $-1 $-1 $22 $-1 $9 #
shell $-1 $-1 $-1 $23 $-1 $11 #
shell $-1 $-1 $-1 $24 $-1 $13 #
face $-1 $25 $26 $15 $-1 $27 forward single #
face $-1 $28 $29 $16 $-1 $30 forward single #
face $-1 $31 $32 $17 $-1 $33 reversed single #
face $-1 $34 $35 $18 $-1 $36 forward single #
face $-1 $37 $38 $19 $-1 $39 forward single #
face $-1 $40 $41 $15 $-1 $42 reversed single #
loop $-1 $-1 $43 $20 #
plane-surface $-1 0 0 6.2400730263616806 0 0 1 1 0 0 forward_v I I I I #
face $-1 $44 $45 $16 $-1 $46 reversed single #
loop $-1 $-1 $47 $21 #
plane-surface $-1 0 -27.193211003284063 0 0 1 0 0 0 1 forward_v I I I I #
face $-1 $48 $49 $17 $-1 $50 reversed single #
loop $-1 $-1 $51 $22 #
plane-surface $-1 -117.59924855387607 -0.72794700739278539 69.280803706342979 0 1 0 -0.70710678939079041 0 0.70710677298230451 forward_v I I I I #
face $-1 $52 $53 $18 $-1 $54 forward single #
loop $-1 $55 $56 $23 #
cone-surface $-1 -44.378739119870609 2.5607800706489456 1.9076087662514301 0.70710678939079041 0 -0.70710677298230451 0.70710677298230451 0 0.70710678939079041 1 I I 0 1 1 forward I I I I #
face $-1 $57 $58 $19 $-1 $59 forward single #
loop $-1 $60 $61 $24 #
cone-surface $-1 -44.378739119870609 7.4938706877115422 1.9076087662514301 0.70710678939079041 0 -0.70710677298230451 0.70710677298230451 0 0.70710678939079041 1 I I 0 1 1 forward I I I I #
face $-1 $62 $63 $15 $-1 $64 reversed single #
loop $-1 $-1 $65 $25 #
plane-surface $-1 0 0 -6.2400730263616806 0 0 1 1 0 0 forward_v I I I I #
coedge $-1 $66 $67 $68 $69 forward $26 $-1 #
face $-1 $70 $71 $16 $-1 $72 reversed single #
loop $-1 $-1 $73 $28 #
plane-surface $-1 0 0 -6.2400730263616806 0 0 1 1 0 0 forward_v I I I I #
coedge $-1 $74 $75 $76 $77 forward $29 $-1 #
face $-1 $78 $79 $17 $-1 $80 reversed single #
loop $-1 $-1 $81 $31 #
plane-surface $-1 -48.711203344828647 5.0273253791802475 0.39276009584975213 -0.70710678939079041 0 0.70710677298230451 0.70710677298230451 0 0.70710678939079041 forward_v I I I I #
coedge $-1 $82 $83 $84 $85 reversed $32 $-1 #
face $-1 $-1 $86 $18 $-1 $87 forward single #
loop $-1 $88 $89 $34 #
cone-surface $-1 -42.616377897629398 2.5607800706489456 0.1452475849059951 0.70710678939079041 0 -0.70710677298230451 0.35355338649115226 0 0.35355339469539521 1 I I -0.70710678118654735 0.70710678118654768 0.5 forward I I I I #
loop $-1 $-1 $90 $23 #
coedge $-1 $56 $56 $91 $92 reversed $35 $-1 #
face $-1 $-1 $93 $19 $-1 $94 forward single #
loop $-1 $95 $96 $37 #
cone-surface $-1 -42.616377897629398 7.4938706877115422 0.1452475849059951 0.70710678939079041 0 -0.70710677298230451 0.35355338649115226 0 0.35355339469539521 1 I I -0.70710678118654735 0.70710678118654768 0.5 forward I I I I #
loop $-1 $-1 $97 $24 #
coedge $-1 $61 $61 $98 $99 reversed $38 $-1 #
face $-1 $100 $101 $15 $-1 $102 reversed single #
loop $-1 $-1 $103 $40 #
plane-surface $-1 0 -27.193211003284063 0 0 1 0 0 0 1 forward_v I I I I #
coedge $-1 $104 $105 $106 $107 forward $41 $-1 #
coedge $-1 $108 $43 $109 $110 forward $26 $-1 #
coedge $-1 $43 $108 $111 $112 forward $26 $-1 #
coedge $-1 $113 $114 $43 $69 reversed $115 $-1 #
edge $-1 $116 -27.193211003284063 $117 27.193211003284063 $68 $118 forward 7 unknown #
face $-1 $119 $120 $16 $-1 $121 reversed single #
loop $-1 $-1 $122 $44 #
plane-surface $-1 -39.126447300720187 -34.921821485111714 0 0 1 0 0 0 1 forward_v I I I I #
coedge $-1 $123 $124 $75 $125 forward $45 $-1 #
coedge $-1 $126 $47 $127 $128 reversed $29 $-1 #
coedge $-1 $47 $126 $73 $125 reversed $29 $-1 #
coedge $-1 $129 $130 $47 $77 reversed $120 $-1 #
edge $-1 $131 -6.2400730263616806 $132 6.2400730263616806 $76 $133 forward 7 unknown #
face $-1 $134 $135 $17 $-1 $136 reversed single #
loop $-1 $-1 $137 $48 #
plane-surface $-1 -117.59924855387607 10.78259776575328 69.280803706342979 0 -1 0 0.70710678939079041 0 -0.70710677298230451 forward_v I I I I #
coedge $-1 $138 $139 $140 $141 reversed $49 $-1 #
coedge $-1 $83 $51 $142 $143 reversed $32 $-1 #
coedge $-1 $51 $82 $138 $144 reversed $32 $-1 #
coedge $-1 $140 $145 $51 $85 forward $146 $-1 #
edge $-1 $147 10.088420932109393 $148 15.935733726933819 $84 $149 forward 7 unknown #
loop $-1 $-1 $91 $52 #
plane-surface $-1 -48.711203344828647 5.0273253791802475 0.39276009584975213 -0.70710678939079041 0 0.70710677298230451 0.70710677298230451 0 0.70710678939079041 forward_v I I I I #
loop $-1 $-1 $150 $34 #
coedge $-1 $89 $89 $90 $151 reversed $53 $-1 #
coedge $-1 $90 $90 $89 $151 forward $55 $-1 #
coedge $-1 $91 $91 $56 $92 forward $86 $-1 #
edge $-1 $152 0 $152 6.2831853071796004 $91 $153 forward 7 unknown #
loop $-1 $-1 $98 $57 #
plane-surface $-1 -48.711203344828647 5.0273253791802475 0.39276009584975213 -0.70710678939079041 0 0.70710677298230451 0.70710677298230451 0 0.70710678939079041 forward_v I I I I #
loop $-1 $-1 $154 $37 #
coedge $-1 $96 $96 $97 $155 reversed $58 $-1 #
coedge $-1 $97 $97 $96 $155 forward $60 $-1 #
coedge $-1 $98 $98 $61 $99 forward $93 $-1 #
edge $-1 $156 0 $156 6.2831853071796004 $98 $157 forward 7 unknown #
face $-1 $158 $159 $15 $-1 $160 reversed single #
loop $-1 $-1 $161 $62 #
plane-surface $-1 -48.71120334482864 0 0 1 0 0 0 0 -1 forward_v I I I I #
coedge $-1 $162 $111 $163 $164 forward $63 $-1 #
coedge $-1 $165 $65 $162 $166 forward $41 $-1 #
coedge $-1 $65 $165 $167 $168 forward $41 $-1 #
coedge $-1 $114 $113 $65 $107 reversed $115 $-1 #
edge $-1 $169 -27.193211003284063 $170 27.193211003284063 $106 $171 forward 7 unknown #
coedge $-1 $67 $66 $172 $173 forward $26 $-1 #
coedge $-1 $174 $175 $66 $110 reversed $159 $-1 #
edge $-1 $117 -48.71120334482864 $176 48.71120334482864 $109 $177 forward 7 unknown #
coedge $-1 $103 $178 $67 $112 reversed $63 $-1 #
edge $-1 $179 -48.71120334482864 $116 48.71120334482864 $111 $180 forward 7 unknown #
coedge $-1 $106 $68 $178 $181 forward $115 $-1 #
coedge $-1 $68 $106 $174 $182 reversed $115 $-1 #
loop $-1 $-1 $113 $158 #
vertex $-1 $69 $183 #
vertex $-1 $69 $184 #
straight-curve $-1 48.71120334482864 0 6.2400730263616806 0 1 0 I I #
face $-1 $185 $186 $16 $-1 $187 reversed single #
loop $-1 $-1 $76 $70 #
plane-surface $-1 -40.626447300720187 -31.057516244197888 0 1 0 0 0 0 -1 forward_v I I I I #
coedge $-1 $188 $189 $190 $191 forward $71 $-1 #
coedge $-1 $192 $73 $193 $194 forward $45 $-1 #
coedge $-1 $73 $192 $129 $195 forward $45 $-1 #
edge $-1 $131 -40.626447300720187 $196 -37.626447300720187 $73 $197 forward 7 unknown #
coedge $-1 $75 $74 $198 $199 forward $29 $-1 #
coedge $-1 $200 $201 $74 $128 forward $202 $-1 #
edge $-1 $203 37.626447300720187 $132 40.626447300720187 $127 $204 forward 7 unknown #
coedge $-1 $190 $76 $124 $195 reversed $120 $-1 #
coedge $-1 $76 $190 $200 $205 reversed $120 $-1 #
vertex $-1 $125 $206 #
vertex $-1 $205 $207 #
straight-curve $-1 -40.626447300720187 -27.193211003284063 0 0 0 1 I I #
face $-1 $-1 $146 $17 $-1 $208 forward single #
loop $-1 $-1 $209 $78 #
plane-surface $-1 -48.71120334482864 0 0 1 0 0 0 0 -1 forward_v I I I I #
coedge $-1 $210 $211 $212 $213 reversed $79 $-1 #
coedge $-1 $214 $81 $83 $144 forward $49 $-1 #
coedge $-1 $81 $214 $210 $215 forward $49 $-1 #
coedge $-1 $212 $84 $81 $141 forward $146 $-1 #
edge $-1 $148 -3.2416096969829091 $216 8.2689350761631566 $140 $217 forward 7 unknown #
coedge $-1 $218 $219 $82 $143 forward $135 $-1 #
edge $-1 $220 -34.24764175732173 $147 -28.400328826809808 $142 $221 forward 7 unknown #
edge $-1 $148 -8.2693491538239901 $220 -1.0048591735576163e-014 $83 $222 forward 7 unknown #
coedge $-1 $84 $212 $218 $223 forward $146 $-1 #
loop $-1 $-1 $212 $134 #
vertex $-1 $143 $224 #
vertex $-1 $85 $225 #
straight-curve $-1 -58.799624276938033 -0.72794700739278539 6.2400730263616815 1 0 0 I I #
coedge $-1 $150 $150 $-1 $226 reversed $88 $-1 #
edge $-1 $227 0 $227 6.2831853071796004 $89 $228 forward 7 unknown #
vertex $-1 $92 $229 #
ellipse-curve $-1 -45.78754694741643 2.5607800706489456 3.3164165611057195 -0.70710678939079041 0 0.70710677298230451 0.70710677298230451 0 0.70710678939079041 1 I I #
coedge $-1 $154 $154 $-1 $230 reversed $95 $-1 #
edge $-1 $231 0 $231 6.2831853071796004 $96 $232 forward 7 unknown #
vertex $-1 $99 $233 #
ellipse-curve $-1 -45.78754694741643 7.4938706877115422 3.3164165611057195 -0.70710678939079041 0 0.70710677298230451 0.70710677298230451 0 0.70710678939079041 1 I I #
face $-1 $-1 $115 $15 $-1 $234 reversed single #
loop $-1 $-1 $174 $100 #
plane-surface $-1 0 27.193211003284063 0 0 -1 0 0 0 -1 forward_v I I I I #
coedge $-1 $235 $172 $175 $236 forward $101 $-1 #
coedge $-1 $178 $103 $104 $166 reversed $63 $-1 #
coedge $-1 $172 $235 $103 $164 reversed $101 $-1 #
edge $-1 $179 -6.2400730263616806 $237 6.2400730263616806 $163 $238 forward 7 unknown #
coedge $-1 $105 $104 $235 $239 forward $41 $-1 #
edge $-1 $170 -48.71120334482864 $237 48.71120334482864 $162 $240 forward 7 unknown #
coedge $-1 $175 $174 $105 $168 reversed $159 $-1 #
edge $-1 $241 -48.71120334482864 $169 48.71120334482864 $167 $242 forward 7 unknown #
vertex $-1 $107 $243 #
vertex $-1 $181 $244 #
straight-curve $-1 48.71120334482864 0 -6.2400730263616806 0 -1 0 I I #
coedge $-1 $161 $163 $108 $173 reversed $101 $-1 #
edge $-1 $176 -27.193211003284063 $179 27.193211003284063 $172 $245 forward 7 unknown #
coedge $-1 $167 $109 $114 $182 forward $159 $-1 #
coedge $-1 $109 $167 $161 $236 reversed $159 $-1 #
vertex $-1 $110 $246 #
straight-curve $-1 0 27.193211003284063 6.2400730263616806 -1 0 0 I I #
coedge $-1 $111 $162 $113 $181 reversed $63 $-1 #
vertex $-1 $173 $247 #
straight-curve $-1 0 -27.193211003284063 6.2400730263616806 1 0 0 I I #
edge $-1 $116 -6.2400730263616806 $170 6.2400730263616806 $113 $248 forward 7 unknown #
edge $-1 $117 -6.2400730263616806 $169 6.2400730263616806 $114 $249 forward 7 unknown #
point $-1 48.71120334482864 -27.193211003284063 6.2400730263616806 #
point $-1 48.71120334482864 27.193211003284063 6.2400730263616806 #
face $-1 $-1 $202 $16 $-1 $250 forward single #
loop $-1 $-1 $251 $119 #
plane-surface $-1 -37.626447300720187 -31.057516244197888 0 -1 0 0 0 0 1 forward_v I I I I #
coedge $-1 $252 $122 $192 $253 reversed $71 $-1 #
coedge $-1 $122 $252 $254 $255 reversed $71 $-1 #
coedge $-1 $130 $129 $122 $191 reversed $120 $-1 #
edge $-1 $256 -6.2400730263616806 $257 6.2400730263616806 $190 $258 forward 7 unknown #
coedge $-1 $124 $123 $188 $253 forward $45 $-1 #
coedge $-1 $198 $251 $123 $194 reversed $186 $-1 #
edge $-1 $196 -3.8643052409138257 $259 3.8643052409138257 $193 $260 forward 7 unknown #
edge $-1 $257 -3.8643052409138257 $131 3.8643052409138257 $129 $261 forward 7 unknown #
vertex $-1 $194 $262 #
straight-curve $-1 0 -27.193211003284063 -6.2400730263616806 1 0 0 I I #
coedge $-1 $263 $193 $126 $199 reversed $186 $-1 #
edge $-1 $203 -6.2400730263616806 $196 6.2400730263616806 $198 $264 forward 7 unknown #
coedge $-1 $254 $127 $130 $205 forward $202 $-1 #
coedge $-1 $127 $254 $263 $265 forward $202 $-1 #
loop $-1 $-1 $127 $185 #
vertex $-1 $128 $266 #
straight-curve $-1 0 -27.193211003284063 6.2400730263616806 -1 0 0 I I #
edge $-1 $132 -3.8643052409138257 $256 3.8643052409138257 $130 $267 forward 7 unknown #
point $-1 -40.626447300720187 -27.193211003284063 -6.2400730263616806 #
point $-1 -40.626447300720187 -27.193211003284063 6.2400730263616806 #
plane-surface $-1 0 0 6.2400730263616806 0 0 1 1 0 0 forward_v I I I I #
coedge $-1 $219 $218 $211 $268 forward $135 $-1 #
coedge $-1 $211 $137 $139 $215 reversed $79 $-1 #
coedge $-1 $137 $210 $209 $268 reversed $79 $-1 #
coedge $-1 $145 $140 $137 $213 forward $146 $-1 #
edge $-1 $216 -15.935733726933819 $269 -10.088420932109393 $212 $270 forward 7 unknown #
coedge $-1 $139 $138 $219 $271 reversed $49 $-1 #
edge $-1 $272 1.0048591735576163e-014 $216 8.2693491538239901 $210 $273 forward 7 unknown #
vertex $-1 $141 $274 #
straight-curve $-1 -42.863890550004214 2.5136626895901237 6.2400730263616797 0 1 0 I I #
coedge $-1 $209 $142 $145 $223 reversed $135 $-1 #
coedge $-1 $142 $209 $214 $271 forward $135 $-1 #
vertex $-1 $143 $275 #
straight-curve $-1 -48.71120334482864 -0.72794700739278539 34.64040185317149 0 0 1 I I #
straight-curve $-1 -48.711203344828647 -0.72794700739278539 0.39276009584975213 -0.70710677298230451 0 -0.70710678939079041 I I #
edge $-1 $269 -10.78259776575328 $147 0.72794700739278539 $218 $276 forward 7 unknown #
point $-1 -48.71120334482864 -0.72794700739278539 6.2400730263616806 #
point $-1 -42.863890550004214 -0.72794700739278539 6.2400730263616806 #
edge $-1 $277 1 $277 0 $150 $-1 forward 7 unknown #
vertex $-1 $151 $278 #
ellipse-curve $-1 -42.969931292324794 2.5607800706489456 0.49880097139714752 -0.70710678939079041 0 0.70710677298230451 0.70710677298230451 0 0.70710678939079041 1 I I #
point $-1 -45.080440174434116 2.5607800706489456 4.0235233504965038 #
edge $-1 $279 1 $279 0 $154 $-1 forward 7 unknown #
vertex $-1 $155 $280 #
ellipse-curve $-1 -42.969931292324794 7.4938706877115422 0.49880097139714752 -0.70710678939079041 0 0.70710677298230451 0.70710677298230451 0 0.70710678939079041 1 I I #
point $-1 -45.080440174434116 7.4938706877115422 4.0235233504965038 #
plane-surface $-1 48.71120334482864 0 0 -1 0 0 0 0 1 forward_v I I I I #
coedge $-1 $163 $161 $165 $239 reversed $101 $-1 #
edge $-1 $176 -6.2400730263616806 $241 6.2400730263616806 $175 $281 forward 7 unknown #
vertex $-1 $239 $282 #
straight-curve $-1 -48.71120334482864 -27.193211003284063 0 0 0 -1 I I #
edge $-1 $237 -27.193211003284063 $241 27.193211003284063 $235 $283 forward 7 unknown #
straight-curve $-1 0 -27.193211003284063 -6.2400730263616806 -1 0 0 I I #
vertex $-1 $168 $284 #
straight-curve $-1 0 27.193211003284063 -6.2400730263616806 1 0 0 I I #
point $-1 48.71120334482864 27.193211003284063 -6.2400730263616806 #
point $-1 48.71120334482864 -27.193211003284063 -6.2400730263616806 #
straight-curve $-1 -48.71120334482864 0 6.2400730263616806 0 -1 0 I I #
point $-1 -48.71120334482864 27.193211003284063 6.2400730263616806 #
point $-1 -48.71120334482864 -27.193211003284063 6.2400730263616806 #
straight-curve $-1 48.71120334482864 -27.193211003284063 0 0 0 -1 I I #
straight-curve $-1 48.71120334482864 27.193211003284063 0 0 0 -1 I I #
plane-surface $-1 0 0 6.2400730263616806 0 0 1 1 0 0 forward_v I I I I #
coedge $-1 $193 $263 $252 $285 forward $186 $-1 #
coedge $-1 $189 $188 $251 $285 reversed $71 $-1 #
edge $-1 $259 -1.5 $257 1.5 $188 $286 forward 7 unknown #
coedge $-1 $201 $200 $189 $255 forward $202 $-1 #
edge $-1 $256 -1.5 $287 1.5 $189 $288 forward 7 unknown #
vertex $-1 $205 $289 #
vertex $-1 $195 $290 #
straight-curve $-1 -40.626447300720187 -34.921821485111714 0 0 0 -1 I I #
vertex $-1 $285 $291 #
straight-curve $-1 -37.626447300720187 -31.057516244197888 -6.2400730263616806 0 -1 0 I I #
straight-curve $-1 -40.626447300720187 -31.057516244197888 -6.2400730263616806 0 1 0 I I #
point $-1 -37.626447300720187 -27.193211003284063 -6.2400730263616806 #
coedge $-1 $251 $198 $201 $265 reversed $186 $-1 #
straight-curve $-1 -37.626447300720187 -27.193211003284063 0 0 0 -1 I I #
edge $-1 $287 -3.8643052409138257 $203 3.8643052409138257 $263 $292 forward 7 unknown #
point $-1 -37.626447300720187 -27.193211003284063 6.2400730263616806 #
straight-curve $-1 -40.626447300720187 -31.057516244197888 6.2400730263616806 0 -1 0 I I #
edge $-1 $269 28.400328826809808 $272 34.24764175732173 $209 $293 forward 7 unknown #
vertex $-1 $223 $294 #
straight-curve $-1 -58.799624276938033 10.78259776575328 6.2400730263616815 -1 0 0 I I #
edge $-1 $272 -8.2689350761631566 $220 3.2416096969829091 $219 $295 forward 7 unknown #
vertex $-1 $271 $296 #
straight-curve $-1 -48.711203344828647 10.78259776575328 0.39276009584975213 0.70710677298230451 0 0.70710678939079041 I I #
point $-1 -42.863890550004214 10.78259776575328 6.2400730263616806 #
point $-1 -48.71120334482864 -0.72794700739278539 0.39276009584975924 #
straight-curve $-1 -48.71120334482864 0 6.2400730263616806 0 -1 0 I I #
vertex $-1 $226 $297 #
point $-1 -42.262824519342487 2.5607800706489456 1.2059077607879378 #
vertex $-1 $230 $298 #
point $-1 -42.262824519342487 7.4938706877115422 1.2059077607879378 #
straight-curve $-1 -48.71120334482864 27.193211003284063 0 0 0 -1 I I #
point $-1 -48.71120334482864 -27.193211003284063 -6.2400730263616806 #
straight-curve $-1 -48.71120334482864 0 -6.2400730263616806 0 1 0 I I #
point $-1 -48.71120334482864 27.193211003284063 -6.2400730263616806 #
edge $-1 $287 -6.2400730263616806 $259 6.2400730263616806 $251 $299 forward 7 unknown #
straight-curve $-1 -39.126447300720187 -34.921821485111714 -6.2400730263616806 -1 0 0 I I #
vertex $-1 $265 $300 #
straight-curve $-1 -39.126447300720187 -34.921821485111714 6.2400730263616806 1 0 0 I I #
point $-1 -40.626447300720187 -34.921821485111714 6.2400730263616806 #
point $-1 -40.626447300720187 -34.921821485111714 -6.2400730263616806 #
point $-1 -37.626447300720187 -34.921821485111714 -6.2400730263616806 #
straight-curve $-1 -37.626447300720187 -31.057516244197888 6.2400730263616806 0 1 0 I I #
straight-curve $-1 -48.71120334482864 10.78259776575328 34.64040185317149 0 0 -1 I I #
point $-1 -48.71120334482864 10.78259776575328 6.2400730263616806 #
straight-curve $-1 -48.71120334482864 2.5136626895901237 0.39276009584976102 0 -1 0 I I #
point $-1 -48.71120334482864 10.78259776575328 0.39276009584975924 #
point $-1 -42.262824502934002 2.5607800706489456 -0.20830580158515732 #
point $-1 -42.262824502934002 7.4938706877115422 -0.20830580158515732 #
straight-curve $-1 -37.626447300720187 -34.921821485111714 0 0 0 -1 I I #
point $-1 -37.626447300720187 -34.921821485111714 6.2400730263616806 #
End-of-ACIS-data 