500 0 11 0           
7 Unknown 11 ACIS 5.0 NT 24 Fri Mar 26 01:34:40 1999 
-1 9.9999999999999995e-007 1e-010 
body $-1 $11 $-1 $12 #
body $-1 $13 $-1 $14 #
body $-1 $15 $-1 $16 #
body $-1 $17 $-1 $18 #
body $-1 $19 $-1 $20 #
body $-1 $21 $-1 $22 #
body $-1 $23 $-1 $24 #
body $-1 $25 $-1 $26 #
body $-1 $27 $-1 $28 #
body $-1 $29 $-1 $30 #
body $-1 $31 $-1 $32 #
lump $-1 $-1 $33 $0 #
transform $-1 1 0 0 0 1 0 0 0 1 64.644306772057263 40.604366107967586 16.508790752897017 1 rotate no_reflect no_shear #
lump $-1 $-1 $34 $1 #
transform $-1 1 0 0 0 1 0 0 0 1 64.644306772057263 40.604366107967586 16.508790752897017 1 rotate no_reflect no_shear #
lump $-1 $-1 $35 $2 #
transform $-1 1 0 0 0 1 0 0 0 1 64.644306772057263 40.604366107967586 16.508790752897017 1 rotate no_reflect no_shear #
lump $-1 $-1 $36 $3 #
transform $-1 1 0 0 0 1 0 0 0 1 64.644306772057263 40.604366107967586 16.508790752897017 1 rotate no_reflect no_shear #
lump $-1 $-1 $37 $4 #
transform $-1 1 0 0 0 1 0 0 0 1 64.644306772057263 40.604366107967586 16.508790752897017 1 rotate no_reflect no_shear #
lump $-1 $-1 $38 $5 #
transform $-1 1 0 0 0 1 0 0 0 1 64.644306772057263 40.604366107967586 16.508790752897017 1 rotate no_reflect no_shear #
lump $-1 $-1 $39 $6 #
transform $-1 1 0 0 0 1 0 0 0 1 64.644306772057263 40.604366107967586 16.508790752897017 1 rotate no_reflect no_shear #
lump $-1 $-1 $40 $7 #
transform $-1 1 0 0 0 1 0 0 0 1 64.644306772057263 40.604366107967586 16.508790752897017 1 rotate no_reflect no_shear #
lump $-1 $-1 $41 $8 #
transform $-1 1 0 0 0 1 0 0 0 1 64.644306772057263 40.604366107967586 16.508790752897017 1 rotate no_reflect no_shear #
lump $-1 $-1 $42 $9 #
transform $-1 1 0 0 0 1 0 0 0 1 64.644306772057263 40.604366107967586 16.508790752897017 1 rotate no_reflect no_shear #
lump $-1 $-1 $43 $10 #
transform $-1 1 0 0 0 1 0 0 0 1 64.644306772057263 40.604366107967586 16.508790752897017 1 rotate no_reflect no_shear #
shell $-1 $-1 $-1 $44 $-1 $11 #
shell $-1 $-1 $-1 $45 $-1 $13 #
shell $-1 $-1 $-1 $46 $-1 $15 #
shell $-1 $-1 $-1 $47 $-1 $17 #
shell $-1 $-1 $-1 $48 $-1 $19 #
shell $-1 $-1 $-1 $49 $-1 $21 #
shell $-1 $-1 $-1 $50 $-1 $23 #
shell $-1 $-1 $-1 $51 $-1 $25 #
shell $-1 $-1 $-1 $52 $-1 $27 #
shell $-1 $-1 $-1 $53 $-1 $29 #
shell $-1 $-1 $-1 $54 $-1 $31 #
face $-1 $55 $56 $33 $-1 $57 forward single #
face $-1 $58 $59 $34 $-1 $60 reversed single #
face $-1 $61 $62 $35 $-1 $63 forward single #
face $-1 $64 $65 $36 $-1 $66 forward single #
face $-1 $67 $68 $37 $-1 $69 forward single #
face $-1 $70 $71 $38 $-1 $72 reversed single #
face $-1 $73 $74 $39 $-1 $75 forward single #
face $-1 $76 $77 $40 $-1 $78 forward single #
face $-1 $79 $80 $41 $-1 $81 forward single #
face $-1 $82 $83 $42 $-1 $84 reversed single #
face $-1 $85 $86 $43 $-1 $87 forward single #
face $-1 $88 $89 $33 $-1 $90 reversed single #
loop $-1 $-1 $91 $44 #
plane-surface $-1 0 0 16.508790752897017 0 0 1 1 0 0 forward_v I I I I #
face $-1 $92 $93 $34 $-1 $94 reversed single #
loop $-1 $-1 $95 $45 #
plane-surface $-1 -3.5527136788005009e-015 -125.42532940073826 110.41915657187506 -1 0 0 0 -0.6560590369687036 0.75470957328743171 forward_v I I I I #
face $-1 $96 $97 $35 $-1 $98 forward single #
loop $-1 $99 $100 $46 #
cone-surface $-1 -17.418352924062759 -37.207450041427201 13.193618198087506 0 0.6560590369687036 -0.75470957328743171 1 0 0 1 I I 0 1 1 forward I I I I #
face $-1 $101 $102 $36 $-1 $103 forward single #
loop $-1 $104 $105 $47 #
cone-surface $-1 -10.886470577539228 -37.207450041427201 13.193618198087506 0 0.6560590369687036 -0.75470957328743171 1 0 0 1 I I 0 1 1 forward I I I I #
face $-1 $106 $107 $37 $-1 $108 forward single #
loop $-1 $109 $110 $48 #
cone-surface $-1 -4.3545882310156969 -37.207450041427201 13.193618198087506 0 0.6560590369687036 -0.75470957328743171 1 0 0 1 I I 0 1 1 forward I I I I #
face $-1 $111 $112 $38 $-1 $113 reversed single #
loop $-1 $-1 $114 $49 #
plane-surface $-1 53.757836194518035 -40.604366107967593 12.843802213072721 0 -0.6560590369687036 0.75470957328743171 1 0 0 forward_v I I I I #
face $-1 $115 $116 $39 $-1 $117 forward single #
loop $-1 $118 $119 $50 #
cone-surface $-1 47.225953847994504 -37.207450041427201 13.193618198087506 0 0.6560590369687036 -0.75470957328743171 1 0 0 1 I I 0 1 1 forward I I I I #
face $-1 $120 $121 $40 $-1 $122 forward single #
loop $-1 $123 $124 $51 #
cone-surface $-1 53.757836194518035 -37.207450041427201 13.193618198087506 0 0.6560590369687036 -0.75470957328743171 1 0 0 1 I I 0 1 1 forward I I I I #
face $-1 $125 $126 $41 $-1 $127 forward single #
loop $-1 $128 $129 $52 #
cone-surface $-1 60.289718541041566 -37.207450041427201 13.193618198087506 0 0.6560590369687036 -0.75470957328743171 1 0 0 1 I I 0 1 1 forward I I I I #
face $-1 $130 $131 $42 $-1 $132 reversed single #
loop $-1 $-1 $133 $53 #
plane-surface $-1 53.022851713548476 -5.975048173689089 74.181829787996662 0 0.81915205242281985 0.57357642473473569 1 0 0 forward_v I I I I #
face $-1 $134 $135 $43 $-1 $136 forward single #
loop $-1 $137 $138 $54 #
cone-surface $-1 53.022851713548476 35.387491052954218 10.600619813423005 0 -0.81915205242281985 -0.57357642473473569 2 0 0 1 I I 0 1 2 forward I I I I #
face $-1 $139 $140 $33 $-1 $141 reversed single #
loop $-1 $-1 $142 $55 #
plane-surface $-1 0 0 -16.508790752897017 0 0 1 1 0 0 forward_v I I I I #
coedge $-1 $143 $144 $145 $146 forward $56 $-1 #
face $-1 $147 $148 $34 $-1 $149 reversed single #
loop $-1 $-1 $150 $58 #
plane-surface $-1 -10.886470577539228 -40.604366107967593 12.843802213072721 0 -0.6560590369687036 0.75470957328743171 1 0 0 forward_v I I I I #
coedge $-1 $151 $152 $153 $154 reversed $59 $-1 #
face $-1 $-1 $155 $35 $-1 $156 forward single #
loop $-1 $157 $158 $61 #
cone-surface $-1 -17.418352924062759 -35.590547925915764 11.333585126546428 0 0.6560590369687036 -0.75470957328743171 0.5 0 0 1 I I -0.70710678118654746 0.70710678118654746 0.5 forward I I I I #
loop $-1 $-1 $159 $46 #
coedge $-1 $100 $100 $160 $161 reversed $62 $-1 #
face $-1 $-1 $162 $36 $-1 $163 forward single #
loop $-1 $164 $165 $64 #
cone-surface $-1 -10.886470577539228 -35.590547925915764 11.333585126546428 0 0.6560590369687036 -0.75470957328743171 0.5 0 0 1 I I -0.70710678118654746 0.70710678118654746 0.5 forward I I I I #
loop $-1 $-1 $166 $47 #
coedge $-1 $105 $105 $167 $168 reversed $65 $-1 #
face $-1 $-1 $169 $37 $-1 $170 forward single #
loop $-1 $171 $172 $67 #
cone-surface $-1 -4.3545882310156969 -35.590547925915764 11.333585126546428 0 0.6560590369687036 -0.75470957328743171 0.5 0 0 1 I I -0.70710678118654746 0.70710678118654746 0.5 forward I I I I #
loop $-1 $-1 $173 $48 #
coedge $-1 $110 $110 $174 $175 reversed $68 $-1 #
face $-1 $176 $177 $38 $-1 $178 reversed single #
loop $-1 $-1 $179 $70 #
plane-surface $-1 42.871365616978807 -125.42532940073826 110.41915657187506 1 0 0 0 0.6560590369687036 -0.75470957328743171 forward_v I I I I #
coedge $-1 $180 $181 $182 $183 reversed $71 $-1 #
face $-1 $-1 $184 $39 $-1 $185 forward single #
loop $-1 $186 $187 $73 #
cone-surface $-1 47.225953847994504 -35.590547925915764 11.333585126546428 0 0.6560590369687036 -0.75470957328743171 0.5 0 0 1 I I -0.70710678118654746 0.70710678118654746 0.5 forward I I I I #
loop $-1 $-1 $188 $50 #
coedge $-1 $119 $119 $189 $190 reversed $74 $-1 #
face $-1 $-1 $191 $40 $-1 $192 forward single #
loop $-1 $193 $194 $76 #
cone-surface $-1 53.757836194518035 -35.590547925915764 11.333585126546428 0 0.6560590369687036 -0.75470957328743171 0.5 0 0 1 I I -0.70710678118654746 0.70710678118654746 0.5 forward I I I I #
loop $-1 $-1 $195 $51 #
coedge $-1 $124 $124 $196 $197 reversed $77 $-1 #
face $-1 $-1 $198 $41 $-1 $199 forward single #
loop $-1 $200 $201 $79 #
cone-surface $-1 60.289718541041566 -35.590547925915764 11.333585126546428 0 0.6560590369687036 -0.75470957328743171 0.5 0 0 1 I I -0.70710678118654746 0.70710678118654746 0.5 forward I I I I #
loop $-1 $-1 $202 $52 #
coedge $-1 $129 $129 $203 $204 reversed $80 $-1 #
face $-1 $205 $206 $42 $-1 $207 reversed single #
loop $-1 $-1 $208 $82 #
plane-surface $-1 41.401396655039683 99.931984965873113 148.3387305035408 1 0 0 0 -0.81915205242281985 -0.57357642473473569 forward_v I I I I #
coedge $-1 $209 $210 $211 $212 reversed $83 $-1 #
face $-1 $-1 $213 $43 $-1 $214 forward single #
loop $-1 $215 $216 $85 #
cone-surface $-1 53.022851713548476 32.449623353847649 8.5435027663336562 0 -0.81915205242281985 -0.57357642473473569 1 0 0 1 I I -0.70710678118654746 0.70710678118654746 1 forward I I I I #
loop $-1 $-1 $217 $54 #
coedge $-1 $138 $138 $218 $219 reversed $86 $-1 #
face $-1 $220 $221 $33 $-1 $222 reversed single #
loop $-1 $-1 $223 $88 #
plane-surface $-1 0 -40.604366107967586 0 0 1 0 0 0 1 forward_v I I I I #
coedge $-1 $224 $225 $226 $227 forward $89 $-1 #
coedge $-1 $228 $91 $229 $230 forward $56 $-1 #
coedge $-1 $91 $228 $231 $232 forward $56 $-1 #
coedge $-1 $233 $234 $91 $146 reversed $235 $-1 #
edge $-1 $236 -40.604366107967586 $237 40.604366107967586 $145 $238 forward 7 unknown #
face $-1 $239 $240 $34 $-1 $241 reversed single #
loop $-1 $-1 $242 $92 #
plane-surface $-1 -21.772941155078453 -125.42532940073826 110.41915657187506 1 0 0 0 0.6560590369687036 -0.75470957328743171 forward_v I I I I #
coedge $-1 $243 $244 $245 $246 reversed $93 $-1 #
coedge $-1 $152 $95 $247 $248 reversed $59 $-1 #
coedge $-1 $95 $151 $243 $249 reversed $59 $-1 #
coedge $-1 $245 $250 $95 $154 forward $251 $-1 #
edge $-1 $252 22.108298592401546 $253 26.324385531428142 $153 $254 forward 7 unknown #
loop $-1 $-1 $160 $96 #
plane-surface $-1 -10.886470577539228 -40.604366107967593 12.843802213072721 0 -0.6560590369687036 0.75470957328743171 1 0 0 forward_v I I I I #
loop $-1 $-1 $255 $61 #
coedge $-1 $158 $158 $159 $256 reversed $97 $-1 #
coedge $-1 $159 $159 $158 $256 forward $99 $-1 #
coedge $-1 $160 $160 $100 $161 forward $155 $-1 #
edge $-1 $257 7.0095421960110184e-016 $257 6.2831853071796013 $160 $258 forward 7 unknown #
loop $-1 $-1 $167 $101 #
plane-surface $-1 -10.886470577539228 -40.604366107967593 12.843802213072721 0 -0.6560590369687036 0.75470957328743171 1 0 0 forward_v I I I I #
loop $-1 $-1 $259 $64 #
coedge $-1 $165 $165 $166 $260 reversed $102 $-1 #
coedge $-1 $166 $166 $165 $260 forward $104 $-1 #
coedge $-1 $167 $167 $105 $168 forward $162 $-1 #
edge $-1 $261 7.0095421960110184e-016 $261 6.2831853071796013 $167 $262 forward 7 unknown #
loop $-1 $-1 $174 $106 #
plane-surface $-1 -10.886470577539228 -40.604366107967593 12.843802213072721 0 -0.6560590369687036 0.75470957328743171 1 0 0 forward_v I I I I #
loop $-1 $-1 $263 $67 #
coedge $-1 $172 $172 $173 $264 reversed $107 $-1 #
coedge $-1 $173 $173 $172 $264 forward $109 $-1 #
coedge $-1 $174 $174 $110 $175 forward $169 $-1 #
edge $-1 $265 7.0095421960110184e-016 $265 6.2831853071796013 $174 $266 forward 7 unknown #
face $-1 $267 $268 $38 $-1 $269 forward single #
loop $-1 $-1 $270 $111 #
plane-surface $-1 0 -40.604366107967586 0 0 1 0 0 0 1 forward_v I I I I #
coedge $-1 $271 $272 $273 $274 reversed $112 $-1 #
coedge $-1 $275 $114 $276 $277 reversed $71 $-1 #
coedge $-1 $114 $275 $271 $278 forward $71 $-1 #
coedge $-1 $273 $279 $114 $183 forward $268 $-1 #
edge $-1 $280 -37.765388674798245 $281 -15.992447519719789 $182 $282 forward 7 unknown #
loop $-1 $-1 $189 $115 #
plane-surface $-1 53.757836194518035 -40.604366107967593 12.843802213072721 0 -0.6560590369687036 0.75470957328743171 1 0 0 forward_v I I I I #
loop $-1 $-1 $283 $73 #
coedge $-1 $187 $187 $188 $284 reversed $116 $-1 #
coedge $-1 $188 $188 $187 $284 forward $118 $-1 #
coedge $-1 $189 $189 $119 $190 forward $184 $-1 #
edge $-1 $285 7.0095421960110184e-016 $285 6.2831853071796013 $189 $286 forward 7 unknown #
loop $-1 $-1 $196 $120 #
plane-surface $-1 53.757836194518035 -40.604366107967593 12.843802213072721 0 -0.6560590369687036 0.75470957328743171 1 0 0 forward_v I I I I #
loop $-1 $-1 $287 $76 #
coedge $-1 $194 $194 $195 $288 reversed $121 $-1 #
coedge $-1 $195 $195 $194 $288 forward $123 $-1 #
coedge $-1 $196 $196 $124 $197 forward $191 $-1 #
edge $-1 $289 7.0095421960110184e-016 $289 6.2831853071796013 $196 $290 forward 7 unknown #
loop $-1 $-1 $203 $125 #
plane-surface $-1 53.757836194518035 -40.604366107967593 12.843802213072721 0 -0.6560590369687036 0.75470957328743171 1 0 0 forward_v I I I I #
loop $-1 $-1 $291 $79 #
coedge $-1 $201 $201 $202 $292 reversed $126 $-1 #
coedge $-1 $202 $202 $201 $292 forward $128 $-1 #
coedge $-1 $203 $203 $129 $204 forward $198 $-1 #
edge $-1 $293 7.0095421960110184e-016 $293 6.2831853071796013 $203 $294 forward 7 unknown #
face $-1 $295 $296 $42 $-1 $297 forward single #
loop $-1 $-1 $211 $130 #
plane-surface $-1 0 40.604366107967586 0 0 -1 0 0 0 -1 forward_v I I I I #
coedge $-1 $298 $299 $300 $301 reversed $131 $-1 #
coedge $-1 $302 $133 $303 $304 reversed $83 $-1 #
coedge $-1 $133 $302 $298 $305 forward $83 $-1 #
coedge $-1 $300 $306 $133 $212 forward $206 $-1 #
edge $-1 $307 -38.132880915283025 $308 -14.889970798265445 $211 $309 forward 7 unknown #
loop $-1 $-1 $218 $134 #
plane-surface $-1 53.022851713548476 -5.975048173689089 74.181829787996662 0 0.81915205242281985 0.57357642473473569 1 0 0 forward_v I I I I #
loop $-1 $-1 $310 $85 #
coedge $-1 $216 $216 $217 $311 reversed $135 $-1 #
coedge $-1 $217 $217 $216 $311 forward $137 $-1 #
coedge $-1 $218 $218 $138 $219 forward $213 $-1 #
edge $-1 $312 -1.1622733241723982e-015 $312 6.2831853071795996 $218 $313 forward 7 unknown #
face $-1 $314 $315 $33 $-1 $316 reversed single #
loop $-1 $-1 $317 $139 #
plane-surface $-1 -64.644306772057263 0 0 1 0 0 0 0 -1 forward_v I I I I #
coedge $-1 $318 $231 $319 $320 forward $140 $-1 #
coedge $-1 $321 $142 $318 $322 forward $89 $-1 #
coedge $-1 $142 $321 $323 $324 forward $89 $-1 #
coedge $-1 $234 $233 $142 $227 reversed $235 $-1 #
edge $-1 $325 -40.604366107967586 $326 40.604366107967586 $226 $327 forward 7 unknown #
coedge $-1 $144 $143 $328 $329 forward $56 $-1 #
coedge $-1 $330 $331 $143 $230 reversed $315 $-1 #
edge $-1 $237 -64.644306772057263 $332 64.644306772057263 $229 $333 forward 7 unknown #
coedge $-1 $223 $334 $144 $232 reversed $140 $-1 #
edge $-1 $335 -64.644306772057263 $236 64.644306772057263 $231 $336 forward 7 unknown #
coedge $-1 $226 $145 $334 $337 forward $235 $-1 #
coedge $-1 $145 $226 $330 $338 reversed $235 $-1 #
loop $-1 $-1 $233 $314 #
vertex $-1 $146 $339 #
vertex $-1 $146 $340 #
straight-curve $-1 64.644306772057263 0 16.508790752897017 0 1 0 I I #
face $-1 $-1 $251 $34 $-1 $341 forward single #
loop $-1 $-1 $342 $147 #
plane-surface $-1 0 -40.604366107967586 0 0 1 0 0 0 1 forward_v I I I I #
coedge $-1 $343 $344 $345 $346 reversed $148 $-1 #
coedge $-1 $347 $150 $152 $249 forward $93 $-1 #
coedge $-1 $150 $347 $343 $348 forward $93 $-1 #
coedge $-1 $345 $153 $150 $246 forward $251 $-1 #
edge $-1 $253 -5.4432352887696105 $349 16.329705866308839 $245 $350 forward 7 unknown #
coedge $-1 $351 $352 $151 $248 forward $240 $-1 #
edge $-1 $353 -42.365776072864804 $252 -38.700787533040511 $247 $354 forward 7 unknown #
edge $-1 $253 -5.5863700266339453 $353 -8.85871892118899e-015 $152 $355 forward 7 unknown #
coedge $-1 $153 $345 $351 $356 forward $251 $-1 #
loop $-1 $-1 $345 $239 #
vertex $-1 $248 $357 #
vertex $-1 $154 $358 #
straight-curve $-1 -3.5527136788005009e-015 -62.712664700369132 16.508790752897013 0 1 0 I I #
coedge $-1 $255 $255 $-1 $359 reversed $157 $-1 #
edge $-1 $360 0 $360 6.2831853071796004 $158 $361 forward 7 unknown #
vertex $-1 $161 $362 #
ellipse-curve $-1 -17.418352924062759 -38.496322638454288 14.676296482984874 0 -0.6560590369687036 0.75470957328743171 1 0 0 1 I I #
coedge $-1 $259 $259 $-1 $363 reversed $164 $-1 #
edge $-1 $364 0 $364 6.2831853071796004 $165 $365 forward 7 unknown #
vertex $-1 $168 $366 #
ellipse-curve $-1 -10.886470577539228 -38.496322638454288 14.676296482984874 0 -0.6560590369687036 0.75470957328743171 1 0 0 1 I I #
coedge $-1 $263 $263 $-1 $367 reversed $171 $-1 #
edge $-1 $368 0 $368 6.2831853071796004 $172 $369 forward 7 unknown #
vertex $-1 $175 $370 #
ellipse-curve $-1 -4.3545882310156969 -38.496322638454288 14.676296482984874 0 -0.6560590369687036 0.75470957328743171 1 0 0 1 I I #
face $-1 $-1 $371 $38 $-1 $372 reversed single #
loop $-1 $-1 $273 $176 #
plane-surface $-1 0 0 16.508790752897017 0 0 1 1 0 0 forward_v I I I I #
coedge $-1 $373 $374 $272 $375 forward $177 $-1 #
coedge $-1 $272 $179 $181 $278 reversed $112 $-1 #
coedge $-1 $179 $271 $270 $375 reversed $112 $-1 #
coedge $-1 $376 $182 $179 $274 forward $268 $-1 #
edge $-1 $281 -26.324385531428142 $377 -22.108298592401546 $273 $378 forward 7 unknown #
coedge $-1 $181 $180 $373 $379 reversed $71 $-1 #
coedge $-1 $380 $381 $180 $277 forward $371 $-1 #
edge $-1 $382 -11.109105654012932 $280 -5.5227356273789958 $276 $383 forward 7 unknown #
edge $-1 $384 8.85871892118899e-015 $281 5.5863700266339453 $271 $385 forward 7 unknown #
coedge $-1 $182 $376 $380 $386 forward $268 $-1 #
vertex $-1 $277 $387 #
vertex $-1 $183 $388 #
straight-curve $-1 26.878918097259017 -36.38827916894099 16.508790752897017 -1 0 0 I I #
coedge $-1 $283 $283 $-1 $389 reversed $186 $-1 #
edge $-1 $390 0 $390 6.2831853071796004 $187 $391 forward 7 unknown #
vertex $-1 $190 $392 #
ellipse-curve $-1 47.225953847994504 -38.496322638454288 14.676296482984874 0 -0.6560590369687036 0.75470957328743171 1 0 0 1 I I #
coedge $-1 $287 $287 $-1 $393 reversed $193 $-1 #
edge $-1 $394 0 $394 6.2831853071796004 $194 $395 forward 7 unknown #
vertex $-1 $197 $396 #
ellipse-curve $-1 53.757836194518035 -38.496322638454288 14.676296482984874 0 -0.6560590369687036 0.75470957328743171 1 0 0 1 I I #
coedge $-1 $291 $291 $-1 $397 reversed $200 $-1 #
edge $-1 $398 0 $398 6.2831853071796004 $201 $399 forward 7 unknown #
vertex $-1 $204 $400 #
ellipse-curve $-1 60.289718541041566 -38.496322638454288 14.676296482984874 0 -0.6560590369687036 0.75470957328743171 1 0 0 1 I I #
face $-1 $-1 $401 $42 $-1 $402 reversed single #
loop $-1 $-1 $403 $205 #
plane-surface $-1 0 0 16.508790752897017 0 0 1 1 0 0 forward_v I I I I #
coedge $-1 $299 $208 $210 $305 reversed $131 $-1 #
coedge $-1 $208 $298 $403 $404 reversed $131 $-1 #
coedge $-1 $405 $211 $208 $301 forward $206 $-1 #
edge $-1 $308 -66.509835133112247 $406 -57.660574498873387 $300 $407 forward 7 unknown #
coedge $-1 $210 $209 $408 $409 reversed $83 $-1 #
coedge $-1 $410 $411 $209 $304 forward $401 $-1 #
edge $-1 $412 38.309107365397949 $307 49.112059769735168 $303 $413 forward 7 unknown #
edge $-1 $414 70.405779811598023 $308 81.208732215935228 $298 $415 forward 7 unknown #
coedge $-1 $211 $405 $410 $416 forward $206 $-1 #
vertex $-1 $304 $417 #
vertex $-1 $212 $418 #
straight-curve $-1 26.511425856774238 40.604366107967593 7.6595301186581537 -1 0 0 I I #
coedge $-1 $310 $310 $-1 $419 reversed $215 $-1 #
edge $-1 $420 0 $420 6.2831853071796004 $216 $421 forward 7 unknown #
vertex $-1 $219 $422 #
ellipse-curve $-1 53.022851713548476 37.506206699637943 12.0841604357776 0 0.81915205242281985 0.57357642473473569 2 0 0 1 I I #
face $-1 $-1 $235 $33 $-1 $423 reversed single #
loop $-1 $-1 $330 $220 #
plane-surface $-1 0 40.604366107967586 0 0 -1 0 0 0 -1 forward_v I I I I #
coedge $-1 $424 $328 $331 $425 forward $221 $-1 #
coedge $-1 $334 $223 $224 $322 reversed $140 $-1 #
coedge $-1 $328 $424 $223 $320 reversed $221 $-1 #
edge $-1 $335 -16.508790752897017 $426 16.508790752897017 $319 $427 forward 7 unknown #
coedge $-1 $225 $224 $424 $428 forward $89 $-1 #
edge $-1 $326 -64.644306772057263 $426 64.644306772057263 $318 $429 forward 7 unknown #
coedge $-1 $331 $330 $225 $324 reversed $315 $-1 #
edge $-1 $430 -64.644306772057263 $325 64.644306772057263 $323 $431 forward 7 unknown #
vertex $-1 $227 $432 #
vertex $-1 $337 $433 #
straight-curve $-1 64.644306772057263 0 -16.508790752897017 0 -1 0 I I #
coedge $-1 $317 $319 $228 $329 reversed $221 $-1 #
edge $-1 $332 -40.604366107967586 $335 40.604366107967586 $328 $434 forward 7 unknown #
coedge $-1 $323 $229 $234 $338 forward $315 $-1 #
coedge $-1 $229 $323 $317 $425 reversed $315 $-1 #
vertex $-1 $230 $435 #
straight-curve $-1 0 40.604366107967586 16.508790752897017 -1 0 0 I I #
coedge $-1 $231 $318 $233 $337 reversed $140 $-1 #
vertex $-1 $329 $436 #
straight-curve $-1 0 -40.604366107967586 16.508790752897017 1 0 0 I I #
edge $-1 $236 -16.508790752897017 $326 16.508790752897017 $233 $437 forward 7 unknown #
edge $-1 $237 -16.508790752897017 $325 16.508790752897017 $234 $438 forward 7 unknown #
point $-1 64.644306772057263 -40.604366107967586 16.508790752897017 #
point $-1 64.644306772057263 40.604366107967586 16.508790752897017 #
plane-surface $-1 0 0 16.508790752897017 0 0 1 1 0 0 forward_v I I I I #
coedge $-1 $352 $351 $344 $439 forward $240 $-1 #
coedge $-1 $344 $242 $244 $348 reversed $148 $-1 #
coedge $-1 $242 $343 $342 $439 reversed $148 $-1 #
coedge $-1 $250 $245 $242 $346 forward $251 $-1 #
edge $-1 $349 -26.324385531428142 $440 -22.108298592401546 $345 $441 forward 7 unknown #
coedge $-1 $244 $243 $352 $442 reversed $93 $-1 #
edge $-1 $443 8.85871892118899e-015 $349 5.5863700266339453 $343 $444 forward 7 unknown #
vertex $-1 $246 $445 #
straight-curve $-1 -5.443235288769614 -36.38827916894099 16.508790752897017 -1 0 0 I I #
coedge $-1 $342 $247 $250 $356 reversed $240 $-1 #
coedge $-1 $247 $342 $347 $442 forward $240 $-1 #
vertex $-1 $248 $446 #
straight-curve $-1 -3.5527136788005009e-015 -40.604366107967586 55.209578285937532 0 0 1 I I #
straight-curve $-1 -3.5527136788005009e-015 -40.604366107967593 12.843802213072721 0 -0.75470957328743171 -0.6560590369687036 I I #
edge $-1 $440 -21.772941155078453 $252 -3.5527136788005009e-015 $351 $447 forward 7 unknown #
point $-1 -3.5527136788005009e-015 -40.604366107967586 16.508790752897017 #
point $-1 -3.5527136788005009e-015 -36.38827916894099 16.508790752897017 #
edge $-1 $448 1 $448 0 $255 $-1 forward 7 unknown #
vertex $-1 $256 $449 #
ellipse-curve $-1 -17.418352924062759 -35.918577444400114 11.710939913190144 0 -0.6560590369687036 0.75470957328743171 1 0 0 1 I I #
point $-1 -16.418352924062759 -38.496322638454281 14.676296482984867 #
edge $-1 $450 1 $450 0 $259 $-1 forward 7 unknown #
vertex $-1 $260 $451 #
ellipse-curve $-1 -10.886470577539228 -35.918577444400114 11.710939913190144 0 -0.6560590369687036 0.75470957328743171 1 0 0 1 I I #
point $-1 -9.8864705775392281 -38.496322638454281 14.676296482984867 #
edge $-1 $452 1 $452 0 $263 $-1 forward 7 unknown #
vertex $-1 $264 $453 #
ellipse-curve $-1 -4.3545882310156969 -35.918577444400114 11.710939913190144 0 -0.6560590369687036 0.75470957328743171 1 0 0 1 I I #
point $-1 -3.3545882310156969 -38.496322638454281 14.676296482984867 #
loop $-1 $-1 $276 $267 #
plane-surface $-1 64.644306772057263 0 0 -1 0 0 0 0 1 forward_v I I I I #
coedge $-1 $454 $270 $275 $379 forward $177 $-1 #
coedge $-1 $270 $454 $376 $455 reversed $177 $-1 #
edge $-1 $377 38.700787533040511 $384 42.365776072864804 $270 $456 forward 7 unknown #
coedge $-1 $279 $273 $374 $455 forward $268 $-1 #
vertex $-1 $455 $457 #
straight-curve $-1 42.871365616978807 -62.712664700369132 16.508790752897013 0 -1 0 I I #
edge $-1 $384 15.992447519719789 $382 37.765388674798245 $373 $458 forward 7 unknown #
coedge $-1 $381 $276 $279 $386 reversed $371 $-1 #
coedge $-1 $276 $380 $454 $459 forward $371 $-1 #
vertex $-1 $379 $460 #
straight-curve $-1 64.644306772057263 -32.220217720222493 20.132031370028031 0 0.75470957328743171 0.6560590369687036 I I #
vertex $-1 $379 $461 #
straight-curve $-1 42.871365616978807 -40.604366107967593 12.843802213072721 0 0.75470957328743171 0.6560590369687036 I I #
edge $-1 $462 -40.604366107967586 $280 -36.38827916894099 $380 $463 forward 7 unknown #
point $-1 64.644306772057263 -36.38827916894099 16.508790752897017 #
point $-1 42.871365616978807 -36.38827916894099 16.508790752897017 #
edge $-1 $464 1 $464 0 $283 $-1 forward 7 unknown #
vertex $-1 $284 $465 #
ellipse-curve $-1 47.225953847994504 -35.918577444400114 11.710939913190144 0 -0.6560590369687036 0.75470957328743171 1 0 0 1 I I #
point $-1 48.225953847994504 -38.496322638454281 14.676296482984867 #
edge $-1 $466 1 $466 0 $287 $-1 forward 7 unknown #
vertex $-1 $288 $467 #
ellipse-curve $-1 53.757836194518035 -35.918577444400114 11.710939913190144 0 -0.6560590369687036 0.75470957328743171 1 0 0 1 I I #
point $-1 54.757836194518035 -38.496322638454281 14.676296482984867 #
edge $-1 $468 1 $468 0 $291 $-1 forward 7 unknown #
vertex $-1 $292 $469 #
ellipse-curve $-1 60.289718541041566 -35.918577444400114 11.710939913190144 0 -0.6560590369687036 0.75470957328743171 1 0 0 1 I I #
point $-1 61.289718541041566 -38.496322638454281 14.676296482984867 #
loop $-1 $-1 $303 $295 #
plane-surface $-1 64.644306772057263 0 0 -1 0 0 0 0 1 forward_v I I I I #
coedge $-1 $408 $470 $299 $404 forward $296 $-1 #
edge $-1 $406 9.3616263749689708 $414 15.557945191628228 $403 $471 forward 7 unknown #
coedge $-1 $306 $300 $470 $472 reversed $206 $-1 #
vertex $-1 $301 $473 #
straight-curve $-1 41.401396655039683 40.604366107967586 74.169365251770401 0 0 1 I I #
coedge $-1 $474 $403 $302 $409 forward $296 $-1 #
edge $-1 $414 14.889970798265445 $412 38.132880915283025 $408 $475 forward 7 unknown #
coedge $-1 $411 $303 $306 $416 reversed $401 $-1 #
coedge $-1 $303 $410 $474 $476 reversed $401 $-1 #
vertex $-1 $476 $477 #
straight-curve $-1 64.644306772057263 12.43484645388425 47.88977467774891 0 0.57357642473473569 -0.81915205242281985 I I #
vertex $-1 $409 $478 #
straight-curve $-1 41.401396655039683 -5.975048173689089 74.181829787996662 0 0.57357642473473569 -0.81915205242281985 I I #
edge $-1 $479 -16.508790752897017 $307 -7.6595301186581537 $410 $480 forward 7 unknown #
point $-1 64.644306772057263 40.604366107967586 7.6595301186581537 #
point $-1 41.401396655039683 40.604366107967586 7.6595301186581537 #
edge $-1 $481 1 $481 0 $310 $-1 forward 7 unknown #
vertex $-1 $311 $482 #
ellipse-curve $-1 53.022851713548476 33.268775406270471 9.1170791910683917 0 0.81915205242281985 0.57357642473473569 2 0 0 1 I I #
point $-1 55.022851713548476 37.506206699637964 12.084160435777617 #
plane-surface $-1 64.644306772057263 0 0 -1 0 0 0 0 1 forward_v I I I I #
coedge $-1 $319 $317 $321 $428 reversed $221 $-1 #
edge $-1 $332 -16.508790752897017 $430 16.508790752897017 $331 $483 forward 7 unknown #
vertex $-1 $428 $484 #
straight-curve $-1 -64.644306772057263 -40.604366107967586 0 0 0 -1 I I #
edge $-1 $426 -40.604366107967586 $430 40.604366107967586 $424 $485 forward 7 unknown #
straight-curve $-1 0 -40.604366107967586 -16.508790752897017 -1 0 0 I I #
vertex $-1 $324 $486 #
straight-curve $-1 0 40.604366107967586 -16.508790752897017 1 0 0 I I #
point $-1 64.644306772057263 40.604366107967586 -16.508790752897017 #
point $-1 64.644306772057263 -40.604366107967586 -16.508790752897017 #
straight-curve $-1 -64.644306772057263 0 16.508790752897017 0 -1 0 I I #
point $-1 -64.644306772057263 40.604366107967586 16.508790752897017 #
point $-1 -64.644306772057263 -40.604366107967586 16.508790752897017 #
straight-curve $-1 64.644306772057263 -40.604366107967586 0 0 0 -1 I I #
straight-curve $-1 64.644306772057263 40.604366107967586 0 0 0 -1 I I #
edge $-1 $440 38.700787533040511 $443 42.365776072864804 $342 $487 forward 7 unknown #
vertex $-1 $356 $488 #
straight-curve $-1 -21.772941155078453 -62.712664700369132 16.508790752897013 0 -1 0 I I #
edge $-1 $443 -16.329705866308839 $353 5.4432352887696105 $352 $489 forward 7 unknown #
vertex $-1 $442 $490 #
straight-curve $-1 -21.772941155078453 -40.604366107967593 12.843802213072721 0 0.75470957328743171 0.6560590369687036 I I #
point $-1 -21.772941155078453 -36.38827916894099 16.508790752897017 #
point $-1 -3.5527136788005009e-015 -40.604366107967586 12.843802213072726 #
straight-curve $-1 0 -40.604366107967586 16.508790752897017 1 0 0 I I #
vertex $-1 $359 $491 #
point $-1 -16.418352924062759 -35.918577444400114 11.710939913190144 #
vertex $-1 $363 $492 #
point $-1 -9.8864705775392281 -35.918577444400114 11.710939913190144 #
vertex $-1 $367 $493 #
point $-1 -3.3545882310156969 -35.918577444400114 11.710939913190144 #
coedge $-1 $374 $373 $381 $459 reversed $177 $-1 #
edge $-1 $377 42.871365616978807 $462 64.644306772057263 $374 $494 forward 7 unknown #
straight-curve $-1 42.871365616978807 -40.604366107967586 55.209578285937532 0 0 -1 I I #
point $-1 42.871365616978807 -40.604366107967586 16.508790752897017 #
straight-curve $-1 26.878918097259017 -40.604366107967586 12.843802213072728 1 0 0 I I #
edge $-1 $462 -16.508790752897017 $382 -12.843802213072726 $381 $495 forward 7 unknown #
point $-1 64.644306772057263 -40.604366107967586 12.843802213072726 #
point $-1 42.871365616978807 -40.604366107967586 12.843802213072726 #
vertex $-1 $386 $496 #
straight-curve $-1 64.644306772057263 0 16.508790752897017 0 1 0 I I #
vertex $-1 $389 $497 #
point $-1 48.225953847994504 -35.918577444400114 11.710939913190144 #
vertex $-1 $393 $498 #
point $-1 54.757836194518035 -35.918577444400114 11.710939913190144 #
vertex $-1 $397 $499 #
point $-1 61.289718541041566 -35.918577444400114 11.710939913190144 #
coedge $-1 $403 $474 $405 $472 forward $296 $-1 #
straight-curve $-1 41.401396655039683 49.965992482936556 16.508790752897013 0 -1 0 I I #
edge $-1 $479 -64.644306772057263 $406 -41.401396655039683 $405 $500 forward 7 unknown #
point $-1 41.401396655039683 40.604366107967586 16.508790752897017 #
coedge $-1 $470 $408 $411 $476 forward $296 $-1 #
straight-curve $-1 26.511425856774238 34.408047291308336 16.508790752897013 1 0 0 I I #
edge $-1 $412 34.408047291308328 $479 40.604366107967586 $411 $501 forward 7 unknown #
point $-1 64.644306772057263 34.408047291308328 16.508790752897021 #
point $-1 41.401396655039683 34.408047291308328 16.508790752897021 #
vertex $-1 $476 $502 #
straight-curve $-1 64.644306772057263 40.604366107967586 0 0 0 -1 I I #
vertex $-1 $419 $503 #
point $-1 55.022851713548476 33.268775406270471 9.1170791910683917 #
straight-curve $-1 -64.644306772057263 40.604366107967586 0 0 0 -1 I I #
point $-1 -64.644306772057263 -40.604366107967586 -16.508790752897017 #
straight-curve $-1 -64.644306772057263 0 -16.508790752897017 0 1 0 I I #
point $-1 -64.644306772057263 40.604366107967586 -16.508790752897017 #
straight-curve $-1 -21.772941155078453 -40.604366107967586 55.209578285937532 0 0 -1 I I #
point $-1 -21.772941155078453 -40.604366107967586 16.508790752897017 #
straight-curve $-1 -5.443235288769614 -40.604366107967586 12.843802213072728 1 0 0 I I #
point $-1 -21.772941155078453 -40.604366107967586 12.843802213072726 #
point $-1 -17.418352924062759 -35.262518407431415 10.956230339902712 #
point $-1 -10.886470577539228 -35.262518407431415 10.956230339902712 #
point $-1 -4.3545882310156969 -35.262518407431415 10.956230339902712 #
straight-curve $-1 0 -40.604366107967586 16.508790752897017 1 0 0 I I #
straight-curve $-1 64.644306772057263 -40.604366107967586 0 0 0 -1 I I #
point $-1 64.644306772057263 -40.604366107967586 16.508790752897017 #
point $-1 47.225953847994504 -35.262518407431415 10.956230339902712 #
point $-1 53.757836194518035 -35.262518407431415 10.956230339902712 #
point $-1 60.289718541041566 -35.262518407431415 10.956230339902712 #
straight-curve $-1 0 40.604366107967586 16.508790752897017 -1 0 0 I I #
straight-curve $-1 64.644306772057263 0 16.508790752897017 0 1 0 I I #
point $-1 64.644306772057263 40.604366107967586 16.508790752897017 #
point $-1 53.022851713548476 31.63047130142483 7.9699263415989208 #
End-of-ACIS-data 