500 0 18 0           
7 Unknown 11 ACIS 5.0 NT 24 Thu Mar 25 15:20:03 1999 
-1 9.9999999999999995e-007 1e-010 
body $-1 $18 $-1 $19 #
body $-1 $20 $-1 $21 #
body $-1 $22 $-1 $23 #
body $-1 $24 $-1 $25 #
body $-1 $26 $-1 $27 #
body $-1 $28 $-1 $29 #
body $-1 $30 $-1 $31 #
body $-1 $32 $-1 $33 #
body $-1 $34 $-1 $35 #
body $-1 $36 $-1 $37 #
body $-1 $38 $-1 $39 #
body $-1 $40 $-1 $41 #
body $-1 $42 $-1 $43 #
body $-1 $44 $-1 $45 #
body $-1 $46 $-1 $47 #
body $-1 $48 $-1 $49 #
body $-1 $50 $-1 $51 #
body $-1 $52 $-1 $53 #
lump $-1 $-1 $54 $0 #
transform $-1 1 0 0 0 1 0 0 0 1 41.59550767540513 22.910471005101986 6.9081009728540339 1 rotate no_reflect no_shear #
lump $-1 $-1 $55 $1 #
transform $-1 1 0 0 0 1 0 0 0 1 41.59550767540513 22.910471005101986 6.9081009728540339 1 rotate no_reflect no_shear #
lump $-1 $-1 $56 $2 #
transform $-1 1 0 0 0 1 0 0 0 1 41.59550767540513 22.910471005101986 6.9081009728540339 1 rotate no_reflect no_shear #
lump $-1 $-1 $57 $3 #
transform $-1 1 0 0 0 1 0 0 0 1 41.59550767540513 22.910471005101986 6.9081009728540339 1 rotate no_reflect no_shear #
lump $-1 $-1 $58 $4 #
transform $-1 1 0 0 0 1 0 0 0 1 41.59550767540513 22.910471005101986 6.9081009728540339 1 rotate no_reflect no_shear #
lump $-1 $-1 $59 $5 #
transform $-1 1 0 0 0 1 0 0 0 1 41.59550767540513 22.910471005101986 6.9081009728540339 1 rotate no_reflect no_shear #
lump $-1 $-1 $60 $6 #
transform $-1 1 0 0 0 1 0 0 0 1 41.59550767540513 22.910471005101986 6.9081009728540339 1 rotate no_reflect no_shear #
lump $-1 $-1 $61 $7 #
transform $-1 1 0 0 0 1 0 0 0 1 41.59550767540513 22.910471005101986 6.9081009728540339 1 rotate no_reflect no_shear #
lump $-1 $-1 $62 $8 #
transform $-1 1 0 0 0 1 0 0 0 1 41.59550767540513 22.910471005101986 6.9081009728540339 1 rotate no_reflect no_shear #
lump $-1 $-1 $63 $9 #
transform $-1 1 0 0 0 1 0 0 0 1 41.59550767540513 22.910471005101986 6.9081009728540339 1 rotate no_reflect no_shear #
lump $-1 $-1 $64 $10 #
transform $-1 1 0 0 0 1 0 0 0 1 41.59550767540513 22.910471005101986 6.9081009728540339 1 rotate no_reflect no_shear #
lump $-1 $-1 $65 $11 #
transform $-1 1 0 0 0 1 0 0 0 1 41.59550767540513 22.910471005101986 6.9081009728540339 1 rotate no_reflect no_shear #
lump $-1 $-1 $66 $12 #
transform $-1 1 0 0 0 1 0 0 0 1 41.59550767540513 22.910471005101986 6.9081009728540339 1 rotate no_reflect no_shear #
lump $-1 $-1 $67 $13 #
transform $-1 1 0 0 0 1 0 0 0 1 41.59550767540513 22.910471005101986 6.9081009728540339 1 rotate no_reflect no_shear #
lump $-1 $-1 $68 $14 #
transform $-1 1 0 0 0 1 0 0 0 1 41.59550767540513 22.910471005101986 6.9081009728540339 1 rotate no_reflect no_shear #
lump $-1 $-1 $69 $15 #
transform $-1 1 0 0 0 1 0 0 0 1 41.59550767540513 22.910471005101986 6.9081009728540339 1 rotate no_reflect no_shear #
lump $-1 $-1 $70 $16 #
transform $-1 1 0 0 0 1 0 0 0 1 41.59550767540513 22.910471005101986 6.9081009728540339 1 rotate no_reflect no_shear #
lump $-1 $-1 $71 $17 #
transform $-1 1 0 0 0 1 0 0 0 1 41.59550767540513 22.910471005101986 6.9081009728540339 1 rotate no_reflect no_shear #
shell $-1 $-1 $-1 $72 $-1 $18 #
shell $-1 $-1 $-1 $73 $-1 $20 #
shell $-1 $-1 $-1 $74 $-1 $22 #
shell $-1 $-1 $-1 $75 $-1 $24 #
shell $-1 $-1 $-1 $76 $-1 $26 #
shell $-1 $-1 $-1 $77 $-1 $28 #
shell $-1 $-1 $-1 $78 $-1 $30 #
shell $-1 $-1 $-1 $79 $-1 $32 #
shell $-1 $-1 $-1 $80 $-1 $34 #
shell $-1 $-1 $-1 $81 $-1 $36 #
shell $-1 $-1 $-1 $82 $-1 $38 #
shell $-1 $-1 $-1 $83 $-1 $40 #
shell $-1 $-1 $-1 $84 $-1 $42 #
shell $-1 $-1 $-1 $85 $-1 $44 #
shell $-1 $-1 $-1 $86 $-1 $46 #
shell $-1 $-1 $-1 $87 $-1 $48 #
shell $-1 $-1 $-1 $88 $-1 $50 #
shell $-1 $-1 $-1 $89 $-1 $52 #
face $-1 $90 $91 $54 $-1 $92 forward single #
face $-1 $93 $94 $55 $-1 $95 forward single #
face $-1 $96 $97 $56 $-1 $98 forward single #
face $-1 $99 $100 $57 $-1 $101 reversed single #
face $-1 $102 $103 $58 $-1 $104 forward single #
face $-1 $105 $106 $59 $-1 $107 forward single #
face $-1 $108 $109 $60 $-1 $110 reversed single #
face $-1 $111 $112 $61 $-1 $113 forward single #
face $-1 $114 $115 $62 $-1 $116 forward single #
face $-1 $117 $118 $63 $-1 $119 reversed single #
face $-1 $120 $121 $64 $-1 $122 forward single #
face $-1 $123 $124 $65 $-1 $125 forward single #
face $-1 $126 $127 $66 $-1 $128 reversed single #
face $-1 $129 $130 $67 $-1 $131 forward single #
face $-1 $132 $133 $68 $-1 $134 forward single #
face $-1 $135 $136 $69 $-1 $137 reversed single #
face $-1 $138 $139 $70 $-1 $140 forward single #
face $-1 $141 $142 $71 $-1 $143 forward single #
face $-1 $144 $145 $54 $-1 $146 reversed single #
loop $-1 $-1 $147 $72 #
plane-surface $-1 0 0 6.9081009728540339 0 0 1 1 0 0 forward_v I I I I #
face $-1 $148 $149 $55 $-1 $150 reversed single #
loop $-1 $-1 $151 $73 #
plane-surface $-1 -41.59550767540513 0 0 1 0 0 0 0 -1 forward_v I I I I #
face $-1 $152 $153 $56 $-1 $154 reversed single #
loop $-1 $-1 $155 $74 #
plane-surface $-1 41.59550767540513 0 0 -1 0 0 0 0 1 forward_v I I I I #
face $-1 $156 $157 $57 $-1 $158 reversed single #
loop $-1 $-1 $159 $75 #
plane-surface $-1 -15.80025549406097 -83.752528710915314 57.676813192402086 -1 0 0 0 -0.73135370988377701 0.68199835119979291 forward_v I I I I #
face $-1 $160 $161 $58 $-1 $162 forward single #
loop $-1 $163 $164 $76 #
cone-surface $-1 -28.477874772626251 -19.633675120853617 3.4633167516174961 0 0.73135370988377701 -0.68199835119979291 1 0 0 1 I I 0 1 1 forward I I I I #
face $-1 $165 $166 $59 $-1 $167 forward single #
loop $-1 $168 $169 $77 #
cone-surface $-1 -20.871303205487081 -19.633675120853617 3.4633167516174961 0 0.73135370988377701 -0.68199835119979291 1 0 0 1 I I 0 1 1 forward I I I I #
face $-1 $170 $171 $60 $-1 $172 reversed single #
loop $-1 $-1 $173 $78 #
plane-surface $-1 -31.433305635681023 54.07324998839087 91.73409594726013 1 0 0 0 -0.74314483375859142 -0.66913059716165679 forward_v I I I I #
face $-1 $174 $175 $61 $-1 $176 forward single #
loop $-1 $177 $178 $79 #
cone-surface $-1 -28.791285390043264 20.131084358656707 3.9426397757770859 0 -0.74314483375859142 -0.66913059716165679 0.5 0 0 1 I I 0 1 0.5 forward I I I I #
face $-1 $179 $180 $62 $-1 $181 forward single #
loop $-1 $182 $183 $80 #
cone-surface $-1 -24.828255021586632 20.131084358656707 3.9426397757770859 0 -0.74314483375859142 -0.66913059716165679 0.5 0 0 1 I I 0 1 0.5 forward I I I I #
face $-1 $184 $185 $63 $-1 $186 reversed single #
loop $-1 $-1 $187 $81 #
plane-surface $-1 -13.56012549847105 54.07324998839087 91.73409594726013 1 0 0 0 -0.74314483375859142 -0.66913059716165679 forward_v I I I I #
face $-1 $188 $189 $64 $-1 $190 forward single #
loop $-1 $191 $192 $82 #
cone-surface $-1 -10.918105252833296 20.131084358656707 3.9426397757770859 0 -0.74314483375859142 -0.66913059716165679 0.5 0 0 1 I I 0 1 0.5 forward I I I I #
face $-1 $193 $194 $65 $-1 $195 forward single #
loop $-1 $196 $197 $83 #
cone-surface $-1 -6.9550748843766641 20.131084358656707 3.9426397757770859 0 -0.74314483375859142 -0.66913059716165679 0.5 0 0 1 I I 0 1 0.5 forward I I I I #
face $-1 $198 $199 $66 $-1 $200 reversed single #
loop $-1 $-1 $201 $84 #
plane-surface $-1 4.3130546387389135 54.07324998839087 91.73409594726013 1 0 0 0 -0.74314483375859142 -0.66913059716165679 forward_v I I I I #
face $-1 $202 $203 $67 $-1 $204 forward single #
loop $-1 $205 $206 $85 #
cone-surface $-1 6.9550748843766712 20.131084358656707 3.9426397757770859 0 -0.74314483375859142 -0.66913059716165679 0.5 0 0 1 I I 0 1 0.5 forward I I I I #
face $-1 $207 $208 $68 $-1 $209 forward single #
loop $-1 $210 $211 $86 #
cone-surface $-1 10.9181052528333 20.131084358656707 3.9426397757770859 0 -0.74314483375859142 -0.66913059716165679 0.5 0 0 1 I I 0 1 0.5 forward I I I I #
face $-1 $212 $213 $69 $-1 $214 reversed single #
loop $-1 $-1 $215 $87 #
plane-surface $-1 22.186234775948883 54.07324998839087 91.73409594726013 1 0 0 0 -0.74314483375859142 -0.66913059716165679 forward_v I I I I #
face $-1 $216 $217 $70 $-1 $218 forward single #
loop $-1 $219 $220 $88 #
cone-surface $-1 24.828255021586642 20.131084358656707 3.9426397757770859 0 -0.74314483375859142 -0.66913059716165679 0.5 0 0 1 I I 0 1 0.5 forward I I I I #
face $-1 $221 $222 $71 $-1 $223 forward single #
loop $-1 $224 $225 $89 #
cone-surface $-1 28.791285390043271 20.131084358656707 3.9426397757770859 0 -0.74314483375859142 -0.66913059716165679 0.5 0 0 1 I I 0 1 0.5 forward I I I I #
face $-1 $226 $227 $54 $-1 $228 reversed single #
loop $-1 $-1 $229 $90 #
plane-surface $-1 0 0 -6.9081009728540339 0 0 1 1 0 0 forward_v I I I I #
coedge $-1 $230 $231 $232 $233 forward $91 $-1 #
face $-1 $234 $235 $55 $-1 $236 reversed single #
loop $-1 $-1 $237 $93 #
plane-surface $-1 0 0 -6.9081009728540339 0 0 1 1 0 0 forward_v I I I I #
coedge $-1 $238 $239 $240 $241 forward $94 $-1 #
face $-1 $242 $243 $56 $-1 $244 reversed single #
loop $-1 $-1 $245 $96 #
plane-surface $-1 0 0 -6.9081009728540339 0 0 1 1 0 0 forward_v I I I I #
coedge $-1 $246 $247 $248 $249 forward $97 $-1 #
face $-1 $250 $251 $57 $-1 $252 reversed single #
loop $-1 $-1 $253 $99 #
plane-surface $-1 -24.674588989056666 -22.910471005101989 0.94067788851283041 0 -0.73135370988377701 0.68199835119979291 1 0 0 forward_v I I I I #
coedge $-1 $254 $255 $256 $257 reversed $100 $-1 #
face $-1 $-1 $258 $58 $-1 $259 forward single #
loop $-1 $260 $261 $102 #
cone-surface $-1 -28.477874772626251 -18.773558339821445 2.6612448969516675 0 0.73135370988377701 -0.68199835119979291 0.5 0 0 1 I I -0.70710678118654746 0.70710678118654746 0.5 forward I I I I #
loop $-1 $-1 $262 $76 #
coedge $-1 $164 $164 $263 $264 reversed $103 $-1 #
face $-1 $-1 $265 $59 $-1 $266 forward single #
loop $-1 $267 $268 $105 #
cone-surface $-1 -20.871303205487081 -18.773558339821445 2.6612448969516675 0 0.73135370988377701 -0.68199835119979291 0.5 0 0 1 I I -0.70710678118654746 0.70710678118654746 0.5 forward I I I I #
loop $-1 $-1 $269 $77 #
coedge $-1 $169 $169 $270 $271 reversed $106 $-1 #
face $-1 $272 $273 $60 $-1 $274 reversed single #
loop $-1 $-1 $275 $108 #
plane-surface $-1 -26.809770205814949 -7.7497232846954489 36.068442167087902 0 0.74314483375859142 0.66913059716165679 1 0 0 forward_v I I I I #
coedge $-1 $276 $277 $278 $279 reversed $109 $-1 #
face $-1 $-1 $280 $61 $-1 $281 forward single #
loop $-1 $282 $283 $111 #
cone-surface $-1 -28.791285390043264 19.36796440321066 3.2555234987103381 0 -0.74314483375859142 -0.66913059716165679 0.25 0 0 1 I I -0.70710678118654746 0.70710678118654746 0.25 forward I I I I #
loop $-1 $-1 $284 $79 #
coedge $-1 $178 $178 $285 $286 reversed $112 $-1 #
face $-1 $-1 $287 $62 $-1 $288 forward single #
loop $-1 $289 $290 $114 #
cone-surface $-1 -24.828255021586632 19.36796440321066 3.2555234987103381 0 -0.74314483375859142 -0.66913059716165679 0.25 0 0 1 I I -0.70710678118654746 0.70710678118654746 0.25 forward I I I I #
loop $-1 $-1 $291 $80 #
coedge $-1 $183 $183 $292 $293 reversed $115 $-1 #
face $-1 $294 $295 $63 $-1 $296 reversed single #
loop $-1 $-1 $297 $117 #
plane-surface $-1 -8.9365900686049784 -7.7497232846954489 36.068442167087902 0 0.74314483375859142 0.66913059716165679 1 0 0 forward_v I I I I #
coedge $-1 $298 $299 $300 $301 reversed $118 $-1 #
face $-1 $-1 $302 $64 $-1 $303 forward single #
loop $-1 $304 $305 $120 #
cone-surface $-1 -10.918105252833296 19.36796440321066 3.2555234987103381 0 -0.74314483375859142 -0.66913059716165679 0.25 0 0 1 I I -0.70710678118654746 0.70710678118654746 0.25 forward I I I I #
loop $-1 $-1 $306 $82 #
coedge $-1 $192 $192 $307 $308 reversed $121 $-1 #
face $-1 $-1 $309 $65 $-1 $310 forward single #
loop $-1 $311 $312 $123 #
cone-surface $-1 -6.9550748843766641 19.36796440321066 3.2555234987103381 0 -0.74314483375859142 -0.66913059716165679 0.25 0 0 1 I I -0.70710678118654746 0.70710678118654746 0.25 forward I I I I #
loop $-1 $-1 $313 $83 #
coedge $-1 $197 $197 $314 $315 reversed $124 $-1 #
face $-1 $316 $317 $66 $-1 $318 reversed single #
loop $-1 $-1 $319 $126 #
plane-surface $-1 8.9365900686049855 -7.7497232846954489 36.068442167087902 0 0.74314483375859142 0.66913059716165679 1 0 0 forward_v I I I I #
coedge $-1 $320 $321 $322 $323 reversed $127 $-1 #
face $-1 $-1 $324 $67 $-1 $325 forward single #
loop $-1 $326 $327 $129 #
cone-surface $-1 6.9550748843766712 19.36796440321066 3.2555234987103381 0 -0.74314483375859142 -0.66913059716165679 0.25 0 0 1 I I -0.70710678118654746 0.70710678118654746 0.25 forward I I I I #
loop $-1 $-1 $328 $85 #
coedge $-1 $206 $206 $329 $330 reversed $130 $-1 #
face $-1 $-1 $331 $68 $-1 $332 forward single #
loop $-1 $333 $334 $132 #
cone-surface $-1 10.9181052528333 19.36796440321066 3.2555234987103381 0 -0.74314483375859142 -0.66913059716165679 0.25 0 0 1 I I -0.70710678118654746 0.70710678118654746 0.25 forward I I I I #
loop $-1 $-1 $335 $86 #
coedge $-1 $211 $211 $336 $337 reversed $133 $-1 #
face $-1 $338 $339 $69 $-1 $340 reversed single #
loop $-1 $-1 $341 $135 #
plane-surface $-1 26.809770205814957 -7.7497232846954489 36.068442167087902 0 0.74314483375859142 0.66913059716165679 1 0 0 forward_v I I I I #
coedge $-1 $342 $343 $344 $345 reversed $136 $-1 #
face $-1 $-1 $346 $70 $-1 $347 forward single #
loop $-1 $348 $349 $138 #
cone-surface $-1 24.828255021586642 19.36796440321066 3.2555234987103381 0 -0.74314483375859142 -0.66913059716165679 0.25 0 0 1 I I -0.70710678118654746 0.70710678118654746 0.25 forward I I I I #
loop $-1 $-1 $350 $88 #
coedge $-1 $220 $220 $351 $352 reversed $139 $-1 #
face $-1 $-1 $353 $71 $-1 $354 forward single #
loop $-1 $355 $356 $141 #
cone-surface $-1 28.791285390043271 19.36796440321066 3.2555234987103381 0 -0.74314483375859142 -0.66913059716165679 0.25 0 0 1 I I -0.70710678118654746 0.70710678118654746 0.25 forward I I I I #
loop $-1 $-1 $357 $89 #
coedge $-1 $225 $225 $358 $359 reversed $142 $-1 #
face $-1 $360 $361 $54 $-1 $362 reversed single #
loop $-1 $-1 $363 $144 #
plane-surface $-1 0 -22.910471005101986 0 0 1 0 0 0 1 forward_v I I I I #
coedge $-1 $364 $365 $366 $367 forward $145 $-1 #
coedge $-1 $368 $147 $369 $370 forward $91 $-1 #
coedge $-1 $147 $368 $371 $372 forward $91 $-1 #
coedge $-1 $373 $374 $147 $233 reversed $375 $-1 #
edge $-1 $376 -22.910471005101986 $377 22.910471005101986 $232 $378 forward 7 unknown #
face $-1 $379 $380 $55 $-1 $381 reversed single #
loop $-1 $-1 $382 $148 #
plane-surface $-1 -45.618800271081511 -13.197639293930104 0 0 1 0 0 0 1 forward_v I I I I #
coedge $-1 $383 $384 $239 $385 forward $149 $-1 #
coedge $-1 $386 $151 $387 $388 reversed $94 $-1 #
coedge $-1 $151 $386 $237 $385 reversed $94 $-1 #
coedge $-1 $389 $390 $151 $241 reversed $391 $-1 #
edge $-1 $392 -6.9081009728540339 $393 6.9081009728540339 $240 $394 forward 7 unknown #
face $-1 $395 $396 $56 $-1 $397 reversed single #
loop $-1 $-1 $248 $152 #
plane-surface $-1 45.618800271081511 -13.197639293930104 0 0 1 0 0 0 1 forward_v I I I I #
coedge $-1 $398 $399 $247 $400 forward $153 $-1 #
coedge $-1 $401 $155 $402 $403 reversed $97 $-1 #
coedge $-1 $155 $401 $245 $400 reversed $97 $-1 #
coedge $-1 $404 $405 $155 $249 reversed $243 $-1 #
edge $-1 $406 -6.9081009728540339 $407 6.9081009728540339 $248 $408 forward 7 unknown #
face $-1 $409 $410 $57 $-1 $411 forward single #
loop $-1 $-1 $412 $156 #
plane-surface $-1 -33.548922484052362 -83.752528710915314 57.676813192402086 1 0 0 0 0.73135370988377701 -0.68199835119979291 forward_v I I I I #
coedge $-1 $413 $414 $415 $416 reversed $157 $-1 #
coedge $-1 $255 $159 $417 $418 reversed $100 $-1 #
coedge $-1 $159 $254 $413 $419 reversed $100 $-1 #
coedge $-1 $415 $420 $159 $257 forward $410 $-1 #
edge $-1 $421 18.965793350355671 $422 24.530505266671824 $256 $423 forward 7 unknown #
loop $-1 $-1 $263 $160 #
plane-surface $-1 -24.674588989056666 -22.910471005101989 0.94067788851283041 0 -0.73135370988377701 0.68199835119979291 1 0 0 forward_v I I I I #
loop $-1 $-1 $424 $102 #
coedge $-1 $261 $261 $262 $425 reversed $161 $-1 #
coedge $-1 $262 $262 $261 $425 forward $163 $-1 #
coedge $-1 $263 $263 $164 $264 forward $258 $-1 #
edge $-1 $426 -1.7992769136346877e-015 $426 6.2831853071795987 $263 $427 forward 7 unknown #
loop $-1 $-1 $270 $165 #
plane-surface $-1 -24.674588989056666 -22.910471005101989 0.94067788851283041 0 -0.73135370988377701 0.68199835119979291 1 0 0 forward_v I I I I #
loop $-1 $-1 $428 $105 #
coedge $-1 $268 $268 $269 $429 reversed $166 $-1 #
coedge $-1 $269 $269 $268 $429 forward $168 $-1 #
coedge $-1 $270 $270 $169 $271 forward $265 $-1 #
edge $-1 $430 -1.7992769136346877e-015 $430 6.2831853071795987 $270 $431 forward 7 unknown #
face $-1 $432 $433 $60 $-1 $434 reversed single #
loop $-1 $-1 $435 $170 #
plane-surface $-1 -22.186234775948876 54.07324998839087 91.73409594726013 -1 0 0 0 0.74314483375859142 0.66913059716165679 forward_v I I I I #
coedge $-1 $436 $437 $438 $439 reversed $171 $-1 #
coedge $-1 $277 $173 $440 $441 reversed $109 $-1 #
coedge $-1 $173 $276 $436 $442 reversed $109 $-1 #
coedge $-1 $438 $443 $173 $279 forward $444 $-1 #
edge $-1 $445 4.1261539890934493 $446 8.5302597879712039 $278 $447 forward 7 unknown #
loop $-1 $-1 $285 $174 #
plane-surface $-1 -26.809770205814949 -7.7497232846954489 36.068442167087902 0 0.74314483375859142 0.66913059716165679 1 0 0 forward_v I I I I #
loop $-1 $-1 $448 $111 #
coedge $-1 $283 $283 $284 $449 reversed $175 $-1 #
coedge $-1 $284 $284 $283 $449 forward $177 $-1 #
coedge $-1 $285 $285 $178 $286 forward $280 $-1 #
edge $-1 $450 0 $450 6.2831853071796004 $285 $451 forward 7 unknown #
loop $-1 $-1 $292 $179 #
plane-surface $-1 -26.809770205814949 -7.7497232846954489 36.068442167087902 0 0.74314483375859142 0.66913059716165679 1 0 0 forward_v I I I I #
loop $-1 $-1 $452 $114 #
coedge $-1 $290 $290 $291 $453 reversed $180 $-1 #
coedge $-1 $291 $291 $290 $453 forward $182 $-1 #
coedge $-1 $292 $292 $183 $293 forward $287 $-1 #
edge $-1 $454 0 $454 6.2831853071796004 $292 $455 forward 7 unknown #
face $-1 $456 $457 $63 $-1 $458 forward single #
loop $-1 $-1 $459 $184 #
plane-surface $-1 -4.3130546387389064 54.07324998839087 91.73409594726013 -1 0 0 0 0.74314483375859142 0.66913059716165679 forward_v I I I I #
coedge $-1 $460 $461 $462 $463 reversed $185 $-1 #
coedge $-1 $299 $187 $464 $465 reversed $118 $-1 #
coedge $-1 $187 $298 $460 $466 reversed $118 $-1 #
coedge $-1 $462 $467 $187 $301 forward $457 $-1 #
edge $-1 $468 4.1261539890934493 $469 8.5302597879712039 $300 $470 forward 7 unknown #
loop $-1 $-1 $307 $188 #
plane-surface $-1 -8.9365900686049784 -7.7497232846954489 36.068442167087902 0 0.74314483375859142 0.66913059716165679 1 0 0 forward_v I I I I #
loop $-1 $-1 $471 $120 #
coedge $-1 $305 $305 $306 $472 reversed $189 $-1 #
coedge $-1 $306 $306 $305 $472 forward $191 $-1 #
coedge $-1 $307 $307 $192 $308 forward $302 $-1 #
edge $-1 $473 0 $473 6.2831853071796004 $307 $474 forward 7 unknown #
loop $-1 $-1 $314 $193 #
plane-surface $-1 -8.9365900686049784 -7.7497232846954489 36.068442167087902 0 0.74314483375859142 0.66913059716165679 1 0 0 forward_v I I I I #
loop $-1 $-1 $475 $123 #
coedge $-1 $312 $312 $313 $476 reversed $194 $-1 #
coedge $-1 $313 $313 $312 $476 forward $196 $-1 #
coedge $-1 $314 $314 $197 $315 forward $309 $-1 #
edge $-1 $477 0 $477 6.2831853071796004 $314 $478 forward 7 unknown #
face $-1 $479 $480 $66 $-1 $481 forward single #
loop $-1 $-1 $482 $198 #
plane-surface $-1 13.560125498471058 54.07324998839087 91.73409594726013 -1 0 0 0 0.74314483375859142 0.66913059716165679 forward_v I I I I #
coedge $-1 $483 $484 $485 $486 reversed $199 $-1 #
coedge $-1 $321 $201 $487 $488 reversed $127 $-1 #
coedge $-1 $201 $320 $483 $489 reversed $127 $-1 #
coedge $-1 $485 $490 $201 $323 forward $480 $-1 #
edge $-1 $491 4.1261539890934493 $492 8.5302597879712039 $322 $493 forward 7 unknown #
loop $-1 $-1 $329 $202 #
plane-surface $-1 8.9365900686049855 -7.7497232846954489 36.068442167087902 0 0.74314483375859142 0.66913059716165679 1 0 0 forward_v I I I I #
loop $-1 $-1 $494 $129 #
coedge $-1 $327 $327 $328 $495 reversed $203 $-1 #
coedge $-1 $328 $328 $327 $495 forward $205 $-1 #
coedge $-1 $329 $329 $206 $330 forward $324 $-1 #
edge $-1 $496 0 $496 6.2831853071796004 $329 $497 forward 7 unknown #
loop $-1 $-1 $336 $207 #
plane-surface $-1 8.9365900686049855 -7.7497232846954489 36.068442167087902 0 0.74314483375859142 0.66913059716165679 1 0 0 forward_v I I I I #
loop $-1 $-1 $498 $132 #
coedge $-1 $334 $334 $335 $499 reversed $208 $-1 #
coedge $-1 $335 $335 $334 $499 forward $210 $-1 #
coedge $-1 $336 $336 $211 $337 forward $331 $-1 #
edge $-1 $500 0 $500 6.2831853071796004 $336 $501 forward 7 unknown #
face $-1 $502 $503 $69 $-1 $504 forward single #
loop $-1 $-1 $505 $212 #
plane-surface $-1 31.43330563568103 54.07324998839087 91.73409594726013 -1 0 0 0 0.74314483375859142 0.66913059716165679 forward_v I I I I #
coedge $-1 $506 $507 $508 $509 reversed $213 $-1 #
coedge $-1 $343 $215 $510 $511 reversed $136 $-1 #
coedge $-1 $215 $342 $506 $512 reversed $136 $-1 #
coedge $-1 $508 $513 $215 $345 forward $503 $-1 #
edge $-1 $514 4.1261539890934493 $515 8.5302597879712039 $344 $516 forward 7 unknown #
loop $-1 $-1 $351 $216 #
plane-surface $-1 26.809770205814957 -7.7497232846954489 36.068442167087902 0 0.74314483375859142 0.66913059716165679 1 0 0 forward_v I I I I #
loop $-1 $-1 $517 $138 #
coedge $-1 $349 $349 $350 $518 reversed $217 $-1 #
coedge $-1 $350 $350 $349 $518 forward $219 $-1 #
coedge $-1 $351 $351 $220 $352 forward $346 $-1 #
edge $-1 $519 0 $519 6.2831853071796004 $351 $520 forward 7 unknown #
loop $-1 $-1 $358 $221 #
plane-surface $-1 26.809770205814957 -7.7497232846954489 36.068442167087902 0 0.74314483375859142 0.66913059716165679 1 0 0 forward_v I I I I #
loop $-1 $-1 $521 $141 #
coedge $-1 $356 $356 $357 $522 reversed $222 $-1 #
coedge $-1 $357 $357 $356 $522 forward $224 $-1 #
coedge $-1 $358 $358 $225 $359 forward $353 $-1 #
edge $-1 $523 0 $523 6.2831853071796004 $358 $524 forward 7 unknown #
face $-1 $525 $526 $54 $-1 $527 reversed single #
loop $-1 $-1 $528 $226 #
plane-surface $-1 -41.59550767540513 0 0 1 0 0 0 0 -1 forward_v I I I I #
coedge $-1 $529 $371 $530 $531 forward $227 $-1 #
coedge $-1 $532 $229 $529 $533 forward $145 $-1 #
coedge $-1 $229 $532 $534 $535 forward $145 $-1 #
coedge $-1 $374 $373 $229 $367 reversed $375 $-1 #
edge $-1 $536 -22.910471005101986 $537 22.910471005101986 $366 $538 forward 7 unknown #
coedge $-1 $231 $230 $539 $540 forward $91 $-1 #
coedge $-1 $541 $542 $230 $370 reversed $526 $-1 #
edge $-1 $377 -41.59550767540513 $543 41.59550767540513 $369 $544 forward 7 unknown #
coedge $-1 $363 $545 $231 $372 reversed $227 $-1 #
edge $-1 $546 -41.59550767540513 $376 41.59550767540513 $371 $547 forward 7 unknown #
coedge $-1 $366 $232 $545 $548 forward $375 $-1 #
coedge $-1 $232 $366 $541 $549 reversed $375 $-1 #
loop $-1 $-1 $373 $525 #
vertex $-1 $233 $550 #
vertex $-1 $233 $551 #
straight-curve $-1 41.59550767540513 0 6.9081009728540339 0 1 0 I I #
face $-1 $552 $391 $55 $-1 $553 reversed single #
loop $-1 $-1 $554 $234 #
plane-surface $-1 -49.642092866757892 -11.145954176662011 0 1 0 0 0 0 -1 forward_v I I I I #
coedge $-1 $555 $556 $557 $558 forward $235 $-1 #
coedge $-1 $559 $237 $555 $560 forward $149 $-1 #
coedge $-1 $237 $559 $389 $561 forward $149 $-1 #
edge $-1 $392 9.0942690593939179 $562 13.197639293930104 $237 $563 forward 7 unknown #
coedge $-1 $239 $238 $564 $565 forward $94 $-1 #
coedge $-1 $566 $567 $238 $388 forward $568 $-1 #
edge $-1 $569 -13.197639293930104 $393 -9.0942690593939179 $387 $570 forward 7 unknown #
coedge $-1 $571 $240 $384 $561 reversed $391 $-1 #
coedge $-1 $240 $571 $566 $572 reversed $391 $-1 #
loop $-1 $-1 $240 $379 #
vertex $-1 $385 $573 #
vertex $-1 $572 $574 #
straight-curve $-1 -41.59550767540513 -9.0942690593939179 0 0 0 1 I I #
face $-1 $575 $576 $56 $-1 $577 reversed single #
loop $-1 $-1 $578 $242 #
plane-surface $-1 45.618800271081511 -9.0942690593939179 0 0 -1 0 0 0 -1 forward_v I I I I #
coedge $-1 $579 $245 $580 $581 forward $153 $-1 #
coedge $-1 $245 $579 $404 $582 forward $153 $-1 #
edge $-1 $406 -13.197639293930104 $583 -9.0942690593939179 $245 $584 forward 7 unknown #
coedge $-1 $247 $246 $585 $586 forward $97 $-1 #
coedge $-1 $587 $588 $246 $403 forward $589 $-1 #
edge $-1 $590 9.0942690593939179 $407 13.197639293930104 $402 $591 forward 7 unknown #
coedge $-1 $592 $248 $399 $582 reversed $243 $-1 #
coedge $-1 $248 $592 $587 $593 reversed $243 $-1 #
vertex $-1 $400 $594 #
vertex $-1 $593 $595 #
straight-curve $-1 41.59550767540513 -13.197639293930104 0 0 0 1 I I #
face $-1 $-1 $596 $57 $-1 $597 reversed single #
loop $-1 $-1 $256 $250 #
plane-surface $-1 0 0 6.9081009728540339 0 0 1 1 0 0 forward_v I I I I #
coedge $-1 $598 $599 $600 $601 reversed $251 $-1 #
coedge $-1 $602 $253 $255 $419 forward $157 $-1 #
coedge $-1 $253 $602 $598 $603 forward $157 $-1 #
coedge $-1 $600 $256 $253 $416 forward $410 $-1 #
edge $-1 $422 3.4629609995326369 $604 21.211627989524029 $415 $605 forward 7 unknown #
coedge $-1 $606 $607 $254 $418 forward $596 $-1 #
edge $-1 $608 -27.897728707688209 $421 -21.93030562334701 $417 $609 forward 7 unknown #
edge $-1 $422 -8.1594213630084873 $608 -5.1836283459440792e-015 $255 $610 forward 7 unknown #
coedge $-1 $256 $600 $606 $611 forward $410 $-1 #
vertex $-1 $257 $612 #
vertex $-1 $257 $613 #
straight-curve $-1 -15.80025549406097 -41.876264355457657 6.908100972854033 0 1 0 I I #
coedge $-1 $424 $424 $-1 $614 reversed $260 $-1 #
edge $-1 $615 0 $615 6.2831853071796004 $261 $616 forward 7 unknown #
vertex $-1 $264 $617 #
ellipse-curve $-1 -28.477874772626251 -20.128115046943908 3.9243894306834344 0 -0.73135370988377701 0.68199835119979291 1 0 0 1 I I #
coedge $-1 $428 $428 $-1 $618 reversed $267 $-1 #
edge $-1 $619 0 $619 6.2831853071796004 $268 $620 forward 7 unknown #
vertex $-1 $271 $621 #
ellipse-curve $-1 -20.871303205487081 -20.128115046943908 3.9243894306834344 0 -0.73135370988377701 0.68199835119979291 1 0 0 1 I I #
face $-1 $-1 $444 $60 $-1 $622 forward single #
loop $-1 $-1 $623 $272 #
plane-surface $-1 0 22.910471005101986 0 0 -1 0 0 0 -1 forward_v I I I I #
coedge $-1 $624 $625 $626 $627 reversed $273 $-1 #
coedge $-1 $628 $275 $277 $442 forward $171 $-1 #
coedge $-1 $275 $628 $624 $629 forward $171 $-1 #
coedge $-1 $626 $278 $275 $439 forward $444 $-1 #
edge $-1 $446 -18.028420532773549 $630 -8.7813496730414009 $438 $631 forward 7 unknown #
coedge $-1 $632 $633 $276 $441 forward $433 $-1 #
edge $-1 $634 -43.850202139377259 $445 -38.958947000776028 $440 $635 forward 7 unknown #
edge $-1 $446 39.239109080191128 $634 45.820942010203979 $277 $636 forward 7 unknown #
coedge $-1 $278 $626 $632 $637 forward $444 $-1 #
loop $-1 $-1 $626 $432 #
vertex $-1 $441 $638 #
vertex $-1 $279 $639 #
straight-curve $-1 -31.433305635681023 27.036624994195435 6.9081009728540366 0 -1 0 I I #
coedge $-1 $448 $448 $-1 $640 reversed $282 $-1 #
edge $-1 $641 0 $641 6.2831853071796004 $283 $642 forward 7 unknown #
vertex $-1 $286 $643 #
ellipse-curve $-1 -28.791285390043264 20.708418105663107 4.4624734035534193 0 0.74314483375859142 0.66913059716165679 0.5 0 0 1 I I #
coedge $-1 $452 $452 $-1 $644 reversed $289 $-1 #
edge $-1 $645 0 $645 6.2831853071796004 $290 $646 forward 7 unknown #
vertex $-1 $293 $647 #
ellipse-curve $-1 -24.828255021586632 20.708418105663107 4.4624734035534193 0 0.74314483375859142 0.66913059716165679 0.5 0 0 1 I I #
face $-1 $-1 $648 $63 $-1 $649 reversed single #
loop $-1 $-1 $300 $294 #
plane-surface $-1 0 0 6.9081009728540339 0 0 1 1 0 0 forward_v I I I I #
coedge $-1 $650 $651 $652 $653 reversed $295 $-1 #
coedge $-1 $654 $297 $299 $466 forward $185 $-1 #
coedge $-1 $297 $654 $650 $655 forward $185 $-1 #
coedge $-1 $652 $300 $297 $463 forward $457 $-1 #
edge $-1 $469 -9.0918304641685612 $656 0.15524039556358282 $462 $657 forward 7 unknown #
coedge $-1 $658 $659 $298 $465 forward $648 $-1 #
edge $-1 $660 -43.850202139377259 $468 -38.958947000776028 $464 $661 forward 7 unknown #
edge $-1 $469 39.239109080191128 $660 45.820942010203979 $299 $662 forward 7 unknown #
coedge $-1 $300 $652 $658 $663 forward $457 $-1 #
vertex $-1 $465 $664 #
vertex $-1 $301 $665 #
straight-curve $-1 -13.56012549847105 27.036624994195435 6.9081009728540366 0 -1 0 I I #
coedge $-1 $471 $471 $-1 $666 reversed $304 $-1 #
edge $-1 $667 0 $667 6.2831853071796004 $305 $668 forward 7 unknown #
vertex $-1 $308 $669 #
ellipse-curve $-1 -10.918105252833296 20.708418105663107 4.4624734035534193 0 0.74314483375859142 0.66913059716165679 0.5 0 0 1 I I #
coedge $-1 $475 $475 $-1 $670 reversed $311 $-1 #
edge $-1 $671 0 $671 6.2831853071796004 $312 $672 forward 7 unknown #
vertex $-1 $315 $673 #
ellipse-curve $-1 -6.9550748843766641 20.708418105663107 4.4624734035534193 0 0.74314483375859142 0.66913059716165679 0.5 0 0 1 I I #
face $-1 $-1 $674 $66 $-1 $675 reversed single #
loop $-1 $-1 $322 $316 #
plane-surface $-1 0 0 6.9081009728540339 0 0 1 1 0 0 forward_v I I I I #
coedge $-1 $676 $677 $678 $679 reversed $317 $-1 #
coedge $-1 $680 $319 $321 $489 forward $199 $-1 #
coedge $-1 $319 $680 $676 $681 forward $199 $-1 #
coedge $-1 $678 $322 $319 $486 forward $480 $-1 #
edge $-1 $492 -0.15524039556357927 $682 9.0918304641685648 $485 $683 forward 7 unknown #
coedge $-1 $684 $685 $320 $488 forward $674 $-1 #
edge $-1 $686 -43.850202139377259 $491 -38.958947000776028 $487 $687 forward 7 unknown #
edge $-1 $492 39.239109080191128 $686 45.820942010203979 $321 $688 forward 7 unknown #
coedge $-1 $322 $678 $684 $689 forward $480 $-1 #
vertex $-1 $323 $690 #
vertex $-1 $323 $691 #
straight-curve $-1 4.3130546387389135 27.036624994195435 6.9081009728540366 0 -1 0 I I #
coedge $-1 $494 $494 $-1 $692 reversed $326 $-1 #
edge $-1 $693 0 $693 6.2831853071796004 $327 $694 forward 7 unknown #
vertex $-1 $330 $695 #
ellipse-curve $-1 6.9550748843766712 20.708418105663107 4.4624734035534193 0 0.74314483375859142 0.66913059716165679 0.5 0 0 1 I I #
coedge $-1 $498 $498 $-1 $696 reversed $333 $-1 #
edge $-1 $697 0 $697 6.2831853071796004 $334 $698 forward 7 unknown #
vertex $-1 $337 $699 #
ellipse-curve $-1 10.9181052528333 20.708418105663107 4.4624734035534193 0 0.74314483375859142 0.66913059716165679 0.5 0 0 1 I I #
face $-1 $-1 $700 $69 $-1 $701 reversed single #
loop $-1 $-1 $344 $338 #
plane-surface $-1 0 0 6.9081009728540339 0 0 1 1 0 0 forward_v I I I I #
coedge $-1 $702 $703 $704 $705 reversed $339 $-1 #
coedge $-1 $706 $341 $343 $512 forward $213 $-1 #
coedge $-1 $341 $706 $702 $707 forward $213 $-1 #
coedge $-1 $704 $344 $341 $509 forward $503 $-1 #
edge $-1 $515 8.7813496730414045 $708 18.028420532773552 $508 $709 forward 7 unknown #
coedge $-1 $710 $711 $342 $511 forward $700 $-1 #
edge $-1 $712 -43.850202139377259 $514 -38.958947000776028 $510 $713 forward 7 unknown #
edge $-1 $515 39.239109080191128 $712 45.820942010203979 $343 $714 forward 7 unknown #
coedge $-1 $344 $704 $710 $715 forward $503 $-1 #
vertex $-1 $345 $716 #
vertex $-1 $345 $717 #
straight-curve $-1 22.186234775948883 27.036624994195435 6.9081009728540366 0 -1 0 I I #
coedge $-1 $517 $517 $-1 $718 reversed $348 $-1 #
edge $-1 $719 0 $719 6.2831853071796004 $349 $720 forward 7 unknown #
vertex $-1 $352 $721 #
ellipse-curve $-1 24.828255021586642 20.708418105663107 4.4624734035534193 0 0.74314483375859142 0.66913059716165679 0.5 0 0 1 I I #
coedge $-1 $521 $521 $-1 $722 reversed $355 $-1 #
edge $-1 $723 0 $723 6.2831853071796004 $356 $724 forward 7 unknown #
vertex $-1 $359 $725 #
ellipse-curve $-1 28.791285390043271 20.708418105663107 4.4624734035534193 0 0.74314483375859142 0.66913059716165679 0.5 0 0 1 I I #
face $-1 $-1 $375 $54 $-1 $726 reversed single #
loop $-1 $-1 $541 $360 #
plane-surface $-1 0 22.910471005101986 0 0 -1 0 0 0 -1 forward_v I I I I #
coedge $-1 $727 $539 $542 $728 forward $361 $-1 #
coedge $-1 $545 $363 $364 $533 reversed $227 $-1 #
coedge $-1 $539 $727 $363 $531 reversed $361 $-1 #
edge $-1 $546 -6.9081009728540339 $729 6.9081009728540339 $530 $730 forward 7 unknown #
coedge $-1 $365 $364 $727 $731 forward $145 $-1 #
edge $-1 $537 -41.59550767540513 $729 41.59550767540513 $529 $732 forward 7 unknown #
coedge $-1 $542 $541 $365 $535 reversed $526 $-1 #
edge $-1 $733 -41.59550767540513 $536 41.59550767540513 $534 $734 forward 7 unknown #
vertex $-1 $367 $735 #
vertex $-1 $548 $736 #
straight-curve $-1 41.59550767540513 0 -6.9081009728540339 0 -1 0 I I #
coedge $-1 $528 $530 $368 $540 reversed $361 $-1 #
edge $-1 $543 -22.910471005101986 $546 22.910471005101986 $539 $737 forward 7 unknown #
coedge $-1 $534 $369 $374 $549 forward $526 $-1 #
coedge $-1 $369 $534 $528 $728 reversed $526 $-1 #
vertex $-1 $370 $738 #
straight-curve $-1 0 22.910471005101986 6.9081009728540339 -1 0 0 I I #
coedge $-1 $371 $529 $373 $548 reversed $227 $-1 #
vertex $-1 $540 $739 #
straight-curve $-1 0 -22.910471005101986 6.9081009728540339 1 0 0 I I #
edge $-1 $376 -6.9081009728540339 $537 6.9081009728540339 $373 $740 forward 7 unknown #
edge $-1 $377 -6.9081009728540339 $536 6.9081009728540339 $374 $741 forward 7 unknown #
point $-1 41.59550767540513 -22.910471005101986 6.9081009728540339 #
point $-1 41.59550767540513 22.910471005101986 6.9081009728540339 #
face $-1 $-1 $568 $55 $-1 $742 forward single #
plane-surface $-1 -45.618800271081511 -9.0942690593939179 0 0 -1 0 0 0 -1 forward_v I I I I #
coedge $-1 $743 $744 $571 $745 forward $380 $-1 #
coedge $-1 $564 $382 $383 $560 reversed $235 $-1 #
coedge $-1 $382 $564 $567 $746 reversed $235 $-1 #
coedge $-1 $744 $743 $382 $558 reversed $380 $-1 #
edge $-1 $747 -6.9081009728540339 $748 6.9081009728540339 $557 $749 forward 7 unknown #
coedge $-1 $384 $383 $743 $750 forward $149 $-1 #
edge $-1 $562 -4.0232925956763808 $748 4.0232925956763808 $555 $751 forward 7 unknown #
edge $-1 $752 -4.0232925956763808 $392 4.0232925956763808 $389 $753 forward 7 unknown #
vertex $-1 $560 $754 #
straight-curve $-1 -41.59550767540513 0 -6.9081009728540339 0 -1 0 I I #
coedge $-1 $556 $555 $386 $565 reversed $235 $-1 #
edge $-1 $569 -6.9081009728540339 $562 6.9081009728540339 $564 $755 forward 7 unknown #
coedge $-1 $756 $387 $390 $572 forward $568 $-1 #
coedge $-1 $387 $756 $556 $746 forward $568 $-1 #
loop $-1 $-1 $387 $552 #
vertex $-1 $388 $757 #
straight-curve $-1 -41.59550767540513 0 6.9081009728540339 0 1 0 I I #
coedge $-1 $390 $389 $554 $745 reversed $391 $-1 #
edge $-1 $393 -4.0232925956763808 $758 4.0232925956763808 $390 $759 forward 7 unknown #
point $-1 -41.59550767540513 -9.0942690593939179 -6.9081009728540339 #
point $-1 -41.59550767540513 -9.0942690593939179 6.9081009728540339 #
face $-1 $-1 $589 $56 $-1 $760 forward single #
loop $-1 $-1 $761 $395 #
plane-surface $-1 49.642092866757892 -11.145954176662011 0 -1 0 0 0 0 1 forward_v I I I I #
coedge $-1 $580 $762 $763 $764 forward $396 $-1 #
coedge $-1 $399 $398 $765 $766 forward $153 $-1 #
coedge $-1 $585 $578 $398 $581 reversed $396 $-1 #
edge $-1 $583 -4.0232925956763808 $767 4.0232925956763808 $580 $768 forward 7 unknown #
edge $-1 $769 -4.0232925956763808 $406 4.0232925956763808 $404 $770 forward 7 unknown #
vertex $-1 $581 $771 #
straight-curve $-1 41.59550767540513 0 -6.9081009728540339 0 1 0 I I #
coedge $-1 $762 $580 $401 $586 reversed $396 $-1 #
edge $-1 $590 -6.9081009728540339 $583 6.9081009728540339 $585 $772 forward 7 unknown #
coedge $-1 $773 $402 $405 $593 forward $589 $-1 #
coedge $-1 $402 $773 $762 $774 forward $589 $-1 #
loop $-1 $-1 $402 $575 #
vertex $-1 $403 $775 #
straight-curve $-1 41.59550767540513 0 6.9081009728540339 0 -1 0 I I #
coedge $-1 $405 $404 $761 $776 reversed $243 $-1 #
edge $-1 $407 -4.0232925956763808 $777 4.0232925956763808 $405 $778 forward 7 unknown #
point $-1 41.59550767540513 -13.197639293930104 -6.9081009728540339 #
point $-1 41.59550767540513 -13.197639293930104 6.9081009728540339 #
loop $-1 $-1 $417 $409 #
plane-surface $-1 0 -22.910471005101986 0 0 1 0 0 0 1 forward_v I I I I #
coedge $-1 $599 $412 $414 $603 reversed $251 $-1 #
coedge $-1 $412 $598 $779 $780 reversed $251 $-1 #
coedge $-1 $420 $415 $412 $601 forward $410 $-1 #
edge $-1 $604 -24.530505266671824 $781 -18.965793350355671 $600 $782 forward 7 unknown #
coedge $-1 $414 $413 $607 $783 reversed $157 $-1 #
edge $-1 $784 5.1836283459440792e-015 $604 8.1594213630084873 $598 $785 forward 7 unknown #
vertex $-1 $416 $786 #
straight-curve $-1 -12.337294494528333 -17.34575908878583 6.9081009728540339 -1 0 0 I I #
coedge $-1 $779 $417 $420 $611 reversed $596 $-1 #
coedge $-1 $417 $779 $602 $783 forward $596 $-1 #
vertex $-1 $418 $787 #
straight-curve $-1 -15.80025549406097 -22.910471005101986 28.838406596201043 0 0 1 I I #
straight-curve $-1 -15.80025549406097 -22.910471005101989 0.94067788851283041 0 -0.68199835119979291 -0.73135370988377701 I I #
edge $-1 $781 -33.548922484052362 $421 -15.80025549406097 $606 $788 forward 7 unknown #
point $-1 -15.80025549406097 -22.910471005101986 6.9081009728540339 #
point $-1 -15.80025549406097 -17.345759088785833 6.908100972854033 #
edge $-1 $789 1 $789 0 $424 $-1 forward 7 unknown #
vertex $-1 $425 $790 #
ellipse-curve $-1 -28.477874772626251 -19.139235194763334 3.002244072551564 0 -0.73135370988377701 0.68199835119979291 1 0 0 1 I I #
point $-1 -27.477874772626251 -20.128115046943904 3.9243894306834286 #
edge $-1 $791 1 $791 0 $428 $-1 forward 7 unknown #
vertex $-1 $429 $792 #
ellipse-curve $-1 -20.871303205487081 -19.139235194763334 3.002244072551564 0 -0.73135370988377701 0.68199835119979291 1 0 0 1 I I #
point $-1 -19.871303205487081 -20.128115046943904 3.9243894306834286 #
plane-surface $-1 0 0 6.9081009728540339 0 0 1 1 0 0 forward_v I I I I #
coedge $-1 $633 $632 $625 $793 forward $433 $-1 #
coedge $-1 $625 $435 $437 $629 reversed $273 $-1 #
coedge $-1 $435 $624 $623 $793 reversed $273 $-1 #
coedge $-1 $443 $438 $435 $627 forward $444 $-1 #
edge $-1 $630 -8.5302597879712039 $794 -4.1261539890934493 $626 $795 forward 7 unknown #
coedge $-1 $437 $436 $633 $796 reversed $171 $-1 #
edge $-1 $797 -45.820942010203979 $630 -39.239109080191128 $624 $798 forward 7 unknown #
vertex $-1 $439 $799 #
straight-curve $-1 -13.404885102907475 18.506365206224231 6.908100972854033 1 0 0 I I #
coedge $-1 $623 $440 $443 $637 reversed $433 $-1 #
coedge $-1 $440 $623 $628 $796 forward $433 $-1 #
vertex $-1 $441 $800 #
straight-curve $-1 -31.433305635681023 22.910471005101986 45.867047973630065 0 0 1 I I #
straight-curve $-1 -31.433305635681023 -7.7497232846954489 36.068442167087902 0 0.66913059716165679 -0.74314483375859142 I I #
edge $-1 $794 22.186234775948876 $445 31.433305635681023 $632 $801 forward 7 unknown #
point $-1 -31.433305635681023 22.910471005101986 6.9081009728540339 #
point $-1 -31.433305635681023 18.506365206224231 6.908100972854033 #
edge $-1 $802 1 $802 0 $448 $-1 forward 7 unknown #
vertex $-1 $449 $803 #
ellipse-curve $-1 -28.791285390043264 19.553750611650308 3.4228061480007521 0 0.74314483375859142 0.66913059716165679 0.5 0 0 1 I I #
point $-1 -28.291285390043264 20.708418105663107 4.4624734035534193 #
edge $-1 $804 1 $804 0 $452 $-1 forward 7 unknown #
vertex $-1 $453 $805 #
ellipse-curve $-1 -24.828255021586632 19.553750611650308 3.4228061480007521 0 0.74314483375859142 0.66913059716165679 0.5 0 0 1 I I #
point $-1 -24.328255021586632 20.708418105663107 4.4624734035534193 #
loop $-1 $-1 $464 $456 #
plane-surface $-1 0 22.910471005101986 0 0 -1 0 0 0 -1 forward_v I I I I #
coedge $-1 $651 $459 $461 $655 reversed $295 $-1 #
coedge $-1 $459 $650 $806 $807 reversed $295 $-1 #
coedge $-1 $467 $462 $459 $653 forward $457 $-1 #
edge $-1 $656 -8.5302597879712039 $808 -4.1261539890934493 $652 $809 forward 7 unknown #
coedge $-1 $461 $460 $659 $810 reversed $185 $-1 #
edge $-1 $811 -45.820942010203979 $656 -39.239109080191128 $650 $812 forward 7 unknown #
vertex $-1 $463 $813 #
straight-curve $-1 -4.4682950343024892 18.506365206224231 6.908100972854033 1 0 0 I I #
coedge $-1 $806 $464 $467 $663 reversed $648 $-1 #
coedge $-1 $464 $806 $654 $810 forward $648 $-1 #
vertex $-1 $465 $814 #
straight-curve $-1 -13.56012549847105 22.910471005101986 45.867047973630065 0 0 1 I I #
straight-curve $-1 -13.56012549847105 -7.7497232846954489 36.068442167087902 0 0.66913059716165679 -0.74314483375859142 I I #
edge $-1 $808 4.3130546387389064 $468 13.56012549847105 $658 $815 forward 7 unknown #
point $-1 -13.56012549847105 22.910471005101986 6.9081009728540339 #
point $-1 -13.56012549847105 18.506365206224231 6.908100972854033 #
edge $-1 $816 1 $816 0 $471 $-1 forward 7 unknown #
vertex $-1 $472 $817 #
ellipse-curve $-1 -10.918105252833296 19.553750611650308 3.4228061480007521 0 0.74314483375859142 0.66913059716165679 0.5 0 0 1 I I #
point $-1 -10.418105252833296 20.708418105663107 4.4624734035534193 #
edge $-1 $818 1 $818 0 $475 $-1 forward 7 unknown #
vertex $-1 $476 $819 #
ellipse-curve $-1 -6.9550748843766641 19.553750611650308 3.4228061480007521 0 0.74314483375859142 0.66913059716165679 0.5 0 0 1 I I #
point $-1 -6.4550748843766641 20.708418105663107 4.4624734035534193 #
loop $-1 $-1 $487 $479 #
plane-surface $-1 0 22.910471005101986 0 0 -1 0 0 0 -1 forward_v I I I I #
coedge $-1 $677 $482 $484 $681 reversed $317 $-1 #
coedge $-1 $482 $676 $820 $821 reversed $317 $-1 #
coedge $-1 $490 $485 $482 $679 forward $480 $-1 #
edge $-1 $682 -8.5302597879712039 $822 -4.1261539890934493 $678 $823 forward 7 unknown #
coedge $-1 $484 $483 $685 $824 reversed $199 $-1 #
edge $-1 $825 -45.820942010203979 $682 -39.239109080191128 $676 $826 forward 7 unknown #
vertex $-1 $486 $827 #
straight-curve $-1 4.4682950343024928 18.506365206224231 6.908100972854033 1 0 0 I I #
coedge $-1 $820 $487 $490 $689 reversed $674 $-1 #
coedge $-1 $487 $820 $680 $824 forward $674 $-1 #
vertex $-1 $488 $828 #
straight-curve $-1 4.3130546387389135 22.910471005101986 45.867047973630065 0 0 1 I I #
straight-curve $-1 4.3130546387389135 -7.7497232846954489 36.068442167087902 0 0.66913059716165679 -0.74314483375859142 I I #
edge $-1 $822 -13.560125498471058 $491 -4.3130546387389135 $684 $829 forward 7 unknown #
point $-1 4.3130546387389135 22.910471005101986 6.9081009728540339 #
point $-1 4.3130546387389135 18.506365206224231 6.908100972854033 #
edge $-1 $830 1 $830 0 $494 $-1 forward 7 unknown #
vertex $-1 $495 $831 #
ellipse-curve $-1 6.9550748843766712 19.553750611650308 3.4228061480007521 0 0.74314483375859142 0.66913059716165679 0.5 0 0 1 I I #
point $-1 7.4550748843766712 20.708418105663107 4.4624734035534193 #
edge $-1 $832 1 $832 0 $498 $-1 forward 7 unknown #
vertex $-1 $499 $833 #
ellipse-curve $-1 10.9181052528333 19.553750611650308 3.4228061480007521 0 0.74314483375859142 0.66913059716165679 0.5 0 0 1 I I #
point $-1 11.4181052528333 20.708418105663107 4.4624734035534193 #
loop $-1 $-1 $510 $502 #
plane-surface $-1 0 22.910471005101986 0 0 -1 0 0 0 -1 forward_v I I I I #
coedge $-1 $703 $505 $507 $707 reversed $339 $-1 #
coedge $-1 $505 $702 $834 $835 reversed $339 $-1 #
coedge $-1 $513 $508 $505 $705 forward $503 $-1 #
edge $-1 $708 -8.5302597879712039 $836 -4.1261539890934493 $704 $837 forward 7 unknown #
coedge $-1 $507 $506 $711 $838 reversed $213 $-1 #
edge $-1 $839 -45.820942010203979 $708 -39.239109080191128 $702 $840 forward 7 unknown #
vertex $-1 $509 $841 #
straight-curve $-1 13.404885102907478 18.506365206224231 6.908100972854033 1 0 0 I I #
coedge $-1 $834 $510 $513 $715 reversed $700 $-1 #
coedge $-1 $510 $834 $706 $838 forward $700 $-1 #
vertex $-1 $511 $842 #
straight-curve $-1 22.186234775948883 22.910471005101986 45.867047973630065 0 0 1 I I #
straight-curve $-1 22.186234775948883 -7.7497232846954489 36.068442167087902 0 0.66913059716165679 -0.74314483375859142 I I #
edge $-1 $836 -31.43330563568103 $514 -22.186234775948883 $710 $843 forward 7 unknown #
point $-1 22.186234775948883 22.910471005101986 6.9081009728540339 #
point $-1 22.186234775948883 18.506365206224231 6.908100972854033 #
edge $-1 $844 1 $844 0 $517 $-1 forward 7 unknown #
vertex $-1 $518 $845 #
ellipse-curve $-1 24.828255021586642 19.553750611650308 3.4228061480007521 0 0.74314483375859142 0.66913059716165679 0.5 0 0 1 I I #
point $-1 25.328255021586642 20.708418105663107 4.4624734035534193 #
edge $-1 $846 1 $846 0 $521 $-1 forward 7 unknown #
vertex $-1 $522 $847 #
ellipse-curve $-1 28.791285390043271 19.553750611650308 3.4228061480007521 0 0.74314483375859142 0.66913059716165679 0.5 0 0 1 I I #
point $-1 29.291285390043271 20.708418105663107 4.4624734035534193 #
plane-surface $-1 41.59550767540513 0 0 -1 0 0 0 0 1 forward_v I I I I #
coedge $-1 $530 $528 $532 $731 reversed $361 $-1 #
edge $-1 $543 -6.9081009728540339 $733 6.9081009728540339 $542 $848 forward 7 unknown #
vertex $-1 $731 $849 #
straight-curve $-1 -41.59550767540513 -22.910471005101986 0 0 0 -1 I I #
edge $-1 $729 -22.910471005101986 $733 22.910471005101986 $727 $850 forward 7 unknown #
straight-curve $-1 0 -22.910471005101986 -6.9081009728540339 -1 0 0 I I #
vertex $-1 $535 $851 #
straight-curve $-1 0 22.910471005101986 -6.9081009728540339 1 0 0 I I #
point $-1 41.59550767540513 22.910471005101986 -6.9081009728540339 #
point $-1 41.59550767540513 -22.910471005101986 -6.9081009728540339 #
straight-curve $-1 -41.59550767540513 0 6.9081009728540339 0 -1 0 I I #
point $-1 -41.59550767540513 22.910471005101986 6.9081009728540339 #
point $-1 -41.59550767540513 -22.910471005101986 6.9081009728540339 #
straight-curve $-1 41.59550767540513 -22.910471005101986 0 0 0 -1 I I #
straight-curve $-1 41.59550767540513 22.910471005101986 0 0 0 -1 I I #
plane-surface $-1 0 0 6.9081009728540339 0 0 1 1 0 0 forward_v I I I I #
coedge $-1 $557 $554 $559 $750 reversed $380 $-1 #
coedge $-1 $554 $557 $756 $852 reversed $380 $-1 #
edge $-1 $758 -6.9081009728540339 $752 6.9081009728540339 $571 $853 forward 7 unknown #
edge $-1 $747 -4.0232925956763808 $569 4.0232925956763808 $556 $854 forward 7 unknown #
vertex $-1 $852 $855 #
vertex $-1 $750 $856 #
straight-curve $-1 -49.642092866757892 -13.197639293930104 0 0 0 -1 I I #
edge $-1 $748 -2.051685117268093 $752 2.051685117268093 $743 $857 forward 7 unknown #
straight-curve $-1 -45.618800271081511 -13.197639293930104 -6.9081009728540339 -1 0 0 I I #
vertex $-1 $561 $858 #
straight-curve $-1 -45.618800271081511 -9.0942690593939179 -6.9081009728540339 1 0 0 I I #
point $-1 -41.59550767540513 -13.197639293930104 -6.9081009728540339 #
straight-curve $-1 -41.59550767540513 -13.197639293930104 0 0 0 -1 I I #
coedge $-1 $567 $566 $744 $852 forward $568 $-1 #
point $-1 -41.59550767540513 -13.197639293930104 6.9081009728540339 #
vertex $-1 $572 $859 #
straight-curve $-1 -45.618800271081511 -9.0942690593939179 6.9081009728540339 -1 0 0 I I #
plane-surface $-1 0 0 6.9081009728540339 0 0 1 1 0 0 forward_v I I I I #
coedge $-1 $765 $860 $592 $776 forward $576 $-1 #
coedge $-1 $578 $585 $588 $774 reversed $396 $-1 #
coedge $-1 $860 $765 $578 $764 reversed $576 $-1 #
edge $-1 $861 -6.9081009728540339 $767 6.9081009728540339 $763 $862 forward 7 unknown #
coedge $-1 $763 $761 $579 $766 reversed $576 $-1 #
edge $-1 $767 -2.051685117268093 $769 2.051685117268093 $765 $863 forward 7 unknown #
vertex $-1 $766 $864 #
straight-curve $-1 45.618800271081511 -9.0942690593939179 -6.9081009728540339 1 0 0 I I #
vertex $-1 $776 $865 #
straight-curve $-1 45.618800271081511 -13.197639293930104 -6.9081009728540339 -1 0 0 I I #
point $-1 41.59550767540513 -9.0942690593939179 -6.9081009728540339 #
straight-curve $-1 41.59550767540513 -9.0942690593939179 0 0 0 -1 I I #
coedge $-1 $588 $587 $860 $866 forward $589 $-1 #
edge $-1 $861 -4.0232925956763808 $590 4.0232925956763808 $762 $867 forward 7 unknown #
point $-1 41.59550767540513 -9.0942690593939179 6.9081009728540339 #
edge $-1 $777 -6.9081009728540339 $769 6.9081009728540339 $761 $868 forward 7 unknown #
vertex $-1 $866 $869 #
straight-curve $-1 45.618800271081511 -13.197639293930104 6.9081009728540339 1 0 0 I I #
coedge $-1 $607 $606 $599 $780 forward $596 $-1 #
edge $-1 $781 21.93030562334701 $784 27.897728707688209 $779 $870 forward 7 unknown #
vertex $-1 $611 $871 #
straight-curve $-1 -33.548922484052362 -41.876264355457657 6.908100972854033 0 -1 0 I I #
edge $-1 $784 -21.211627989524029 $608 -3.4629609995326369 $607 $872 forward 7 unknown #
vertex $-1 $783 $873 #
straight-curve $-1 -33.548922484052362 -22.910471005101989 0.94067788851283041 0 0.68199835119979291 0.73135370988377701 I I #
point $-1 -33.548922484052362 -17.345759088785833 6.908100972854033 #
point $-1 -15.80025549406097 -22.910471005101986 0.94067788851283418 #
straight-curve $-1 0 -22.910471005101986 6.9081009728540339 1 0 0 I I #
vertex $-1 $614 $874 #
point $-1 -27.477874772626251 -19.139235194763334 3.002244072551564 #
vertex $-1 $618 $875 #
point $-1 -19.871303205487081 -19.139235194763334 3.002244072551564 #
edge $-1 $794 38.958947000776028 $797 43.850202139377259 $623 $876 forward 7 unknown #
vertex $-1 $637 $877 #
straight-curve $-1 -22.186234775948876 27.036624994195435 6.9081009728540366 0 1 0 I I #
edge $-1 $797 8.7813496730414009 $634 18.028420532773549 $633 $878 forward 7 unknown #
vertex $-1 $796 $879 #
straight-curve $-1 -22.186234775948876 -7.7497232846954489 36.068442167087902 0 -0.66913059716165679 0.74314483375859142 I I #
point $-1 -22.186234775948876 18.506365206224231 6.908100972854033 #
point $-1 -31.433305635681023 22.910471005101986 2.0168458342528055 #
straight-curve $-1 0 22.910471005101986 6.9081009728540339 -1 0 0 I I #
vertex $-1 $640 $880 #
point $-1 -28.291285390043264 19.553750611650308 3.4228061480007521 #
vertex $-1 $644 $881 #
point $-1 -24.328255021586632 19.553750611650308 3.4228061480007521 #
coedge $-1 $659 $658 $651 $807 forward $648 $-1 #
edge $-1 $808 38.958947000776028 $811 43.850202139377259 $806 $882 forward 7 unknown #
vertex $-1 $663 $883 #
straight-curve $-1 -4.3130546387389064 27.036624994195435 6.9081009728540366 0 1 0 I I #
edge $-1 $811 -0.15524039556358282 $660 9.0918304641685612 $659 $884 forward 7 unknown #
vertex $-1 $810 $885 #
straight-curve $-1 -4.3130546387389064 -7.7497232846954489 36.068442167087902 0 -0.66913059716165679 0.74314483375859142 I I #
point $-1 -4.3130546387389064 18.506365206224231 6.908100972854033 #
point $-1 -13.56012549847105 22.910471005101986 2.0168458342528055 #
straight-curve $-1 0 22.910471005101986 6.9081009728540339 -1 0 0 I I #
vertex $-1 $666 $886 #
point $-1 -10.418105252833296 19.553750611650308 3.4228061480007521 #
vertex $-1 $670 $887 #
point $-1 -6.4550748843766641 19.553750611650308 3.4228061480007521 #
coedge $-1 $685 $684 $677 $821 forward $674 $-1 #
edge $-1 $822 38.958947000776028 $825 43.850202139377259 $820 $888 forward 7 unknown #
vertex $-1 $689 $889 #
straight-curve $-1 13.560125498471058 27.036624994195435 6.9081009728540366 0 1 0 I I #
edge $-1 $825 -9.0918304641685648 $686 0.15524039556357927 $685 $890 forward 7 unknown #
vertex $-1 $824 $891 #
straight-curve $-1 13.560125498471058 -7.7497232846954489 36.068442167087902 0 -0.66913059716165679 0.74314483375859142 I I #
point $-1 13.560125498471058 18.506365206224231 6.908100972854033 #
point $-1 4.3130546387389135 22.910471005101986 2.0168458342528055 #
straight-curve $-1 0 22.910471005101986 6.9081009728540339 -1 0 0 I I #
vertex $-1 $692 $892 #
point $-1 7.4550748843766712 19.553750611650308 3.4228061480007521 #
vertex $-1 $696 $893 #
point $-1 11.4181052528333 19.553750611650308 3.4228061480007521 #
coedge $-1 $711 $710 $703 $835 forward $700 $-1 #
edge $-1 $836 38.958947000776028 $839 43.850202139377259 $834 $894 forward 7 unknown #
vertex $-1 $715 $895 #
straight-curve $-1 31.43330563568103 27.036624994195435 6.9081009728540366 0 1 0 I I #
edge $-1 $839 -18.028420532773552 $712 -8.7813496730414045 $711 $896 forward 7 unknown #
vertex $-1 $838 $897 #
straight-curve $-1 31.43330563568103 -7.7497232846954489 36.068442167087902 0 -0.66913059716165679 0.74314483375859142 I I #
point $-1 31.43330563568103 18.506365206224231 6.908100972854033 #
point $-1 22.186234775948883 22.910471005101986 2.0168458342528055 #
straight-curve $-1 0 22.910471005101986 6.9081009728540339 -1 0 0 I I #
vertex $-1 $718 $898 #
point $-1 25.328255021586642 19.553750611650308 3.4228061480007521 #
vertex $-1 $722 $899 #
point $-1 29.291285390043271 19.553750611650308 3.4228061480007521 #
straight-curve $-1 -41.59550767540513 22.910471005101986 0 0 0 -1 I I #
point $-1 -41.59550767540513 -22.910471005101986 -6.9081009728540339 #
straight-curve $-1 -41.59550767540513 0 -6.9081009728540339 0 1 0 I I #
point $-1 -41.59550767540513 22.910471005101986 -6.9081009728540339 #
edge $-1 $758 -2.051685117268093 $747 2.051685117268093 $744 $900 forward 7 unknown #
straight-curve $-1 -49.642092866757892 -9.0942690593939179 0 0 0 -1 I I #
straight-curve $-1 -45.618800271081511 -13.197639293930104 6.9081009728540339 1 0 0 I I #
point $-1 -49.642092866757892 -13.197639293930104 6.9081009728540339 #
point $-1 -49.642092866757892 -13.197639293930104 -6.9081009728540339 #
straight-curve $-1 -49.642092866757892 -11.145954176662011 -6.9081009728540339 0 1 0 I I #
point $-1 -49.642092866757892 -9.0942690593939179 -6.9081009728540339 #
point $-1 -49.642092866757892 -9.0942690593939179 6.9081009728540339 #
coedge $-1 $761 $763 $773 $866 reversed $576 $-1 #
vertex $-1 $866 $901 #
straight-curve $-1 49.642092866757892 -9.0942690593939179 0 0 0 -1 I I #
straight-curve $-1 49.642092866757892 -11.145954176662011 -6.9081009728540339 0 -1 0 I I #
point $-1 49.642092866757892 -9.0942690593939179 -6.9081009728540339 #
point $-1 49.642092866757892 -13.197639293930104 -6.9081009728540339 #
edge $-1 $777 -2.051685117268093 $861 2.051685117268093 $860 $902 forward 7 unknown #
straight-curve $-1 45.618800271081511 -9.0942690593939179 6.9081009728540339 -1 0 0 I I #
straight-curve $-1 49.642092866757892 -13.197639293930104 0 0 0 -1 I I #
point $-1 49.642092866757892 -13.197639293930104 6.9081009728540339 #
straight-curve $-1 -33.548922484052362 -22.910471005101986 28.838406596201043 0 0 -1 I I #
point $-1 -33.548922484052362 -22.910471005101986 6.9081009728540339 #
straight-curve $-1 -12.337294494528333 -22.910471005101986 0.94067788851283718 1 0 0 I I #
point $-1 -33.548922484052362 -22.910471005101986 0.94067788851283418 #
point $-1 -28.477874772626251 -18.407881484879557 2.3202457213517711 #
point $-1 -20.871303205487081 -18.407881484879557 2.3202457213517711 #
straight-curve $-1 -22.186234775948876 22.910471005101986 45.867047973630065 0 0 -1 I I #
point $-1 -22.186234775948876 22.910471005101986 6.9081009728540339 #
straight-curve $-1 -13.404885102907475 22.910471005101989 2.0168458342528091 -1 0 0 I I #
point $-1 -22.186234775948876 22.910471005101986 2.0168458342528055 #
point $-1 -28.791285390043264 19.182178194771012 3.0882408494199241 #
point $-1 -24.828255021586632 19.182178194771012 3.0882408494199241 #
straight-curve $-1 -4.3130546387389064 22.910471005101986 45.867047973630065 0 0 -1 I I #
point $-1 -4.3130546387389064 22.910471005101986 6.9081009728540339 #
straight-curve $-1 -4.4682950343024892 22.910471005101989 2.0168458342528091 -1 0 0 I I #
point $-1 -4.3130546387389064 22.910471005101986 2.0168458342528055 #
point $-1 -10.918105252833296 19.182178194771012 3.0882408494199241 #
point $-1 -6.9550748843766641 19.182178194771012 3.0882408494199241 #
straight-curve $-1 13.560125498471058 22.910471005101986 45.867047973630065 0 0 -1 I I #
point $-1 13.560125498471058 22.910471005101986 6.9081009728540339 #
straight-curve $-1 4.4682950343024928 22.910471005101989 2.0168458342528091 -1 0 0 I I #
point $-1 13.560125498471058 22.910471005101986 2.0168458342528055 #
point $-1 6.9550748843766712 19.182178194771012 3.0882408494199241 #
point $-1 10.9181052528333 19.182178194771012 3.0882408494199241 #
straight-curve $-1 31.43330563568103 22.910471005101986 45.867047973630065 0 0 -1 I I #
point $-1 31.43330563568103 22.910471005101986 6.9081009728540339 #
straight-curve $-1 13.404885102907478 22.910471005101989 2.0168458342528091 -1 0 0 I I #
point $-1 31.43330563568103 22.910471005101986 2.0168458342528055 #
point $-1 24.828255021586642 19.182178194771012 3.0882408494199241 #
point $-1 28.791285390043271 19.182178194771012 3.0882408494199241 #
straight-curve $-1 -49.642092866757892 -11.145954176662011 6.9081009728540339 0 -1 0 I I #
point $-1 49.642092866757892 -9.0942690593939179 6.9081009728540339 #
straight-curve $-1 49.642092866757892 -11.145954176662011 6.9081009728540339 0 1 0 I I #
End-of-ACIS-data 