500 0 10 0           
7 Unknown 11 ACIS 5.0 NT 24 Fri Mar 26 00:37:31 1999 
-1 9.9999999999999995e-007 1e-010 
body $-1 $10 $-1 $11 #
body $-1 $12 $-1 $13 #
body $-1 $14 $-1 $15 #
body $-1 $16 $-1 $17 #
body $-1 $18 $-1 $19 #
body $-1 $20 $-1 $21 #
body $-1 $22 $-1 $23 #
body $-1 $24 $-1 $25 #
body $-1 $26 $-1 $27 #
body $-1 $28 $-1 $29 #
lump $-1 $-1 $30 $0 #
transform $-1 1 0 0 0 1 0 0 0 1 51.428571428571431 24.097676669471465 5.3060190863542491 1 rotate no_reflect no_shear #
lump $-1 $-1 $31 $1 #
transform $-1 1 0 0 0 1 0 0 0 1 51.428571428571431 24.097676669471465 5.3060190863542491 1 rotate no_reflect no_shear #
lump $-1 $-1 $32 $2 #
transform $-1 1 0 0 0 1 0 0 0 1 51.428571428571431 24.097676669471465 5.3060190863542491 1 rotate no_reflect no_shear #
lump $-1 $-1 $33 $3 #
transform $-1 1 0 0 0 1 0 0 0 1 51.428571428571431 24.097676669471465 5.3060190863542491 1 rotate no_reflect no_shear #
lump $-1 $-1 $34 $4 #
transform $-1 1 0 0 0 1 0 0 0 1 51.428571428571431 24.097676669471465 5.3060190863542491 1 rotate no_reflect no_shear #
lump $-1 $-1 $35 $5 #
transform $-1 1 0 0 0 1 0 0 0 1 51.428571428571431 24.097676669471465 5.3060190863542491 1 rotate no_reflect no_shear #
lump $-1 $-1 $36 $6 #
transform $-1 1 0 0 0 1 0 0 0 1 51.428571428571431 24.097676669471465 5.3060190863542491 1 rotate no_reflect no_shear #
lump $-1 $-1 $37 $7 #
transform $-1 1 0 0 0 1 0 0 0 1 51.428571428571431 24.097676669471465 5.3060190863542491 1 rotate no_reflect no_shear #
lump $-1 $-1 $38 $8 #
transform $-1 1 0 0 0 1 0 0 0 1 51.428571428571431 24.097676669471465 5.3060190863542491 1 rotate no_reflect no_shear #
lump $-1 $-1 $39 $9 #
transform $-1 1 0 0 0 1 0 0 0 1 51.428571428571431 24.097676669471465 5.3060190863542491 1 rotate no_reflect no_shear #
shell $-1 $-1 $-1 $40 $-1 $10 #
shell $-1 $-1 $-1 $41 $-1 $12 #
shell $-1 $-1 $-1 $42 $-1 $14 #
shell $-1 $-1 $-1 $43 $-1 $16 #
shell $-1 $-1 $-1 $44 $-1 $18 #
shell $-1 $-1 $-1 $45 $-1 $20 #
shell $-1 $-1 $-1 $46 $-1 $22 #
shell $-1 $-1 $-1 $47 $-1 $24 #
shell $-1 $-1 $-1 $48 $-1 $26 #
shell $-1 $-1 $-1 $49 $-1 $28 #
face $-1 $50 $51 $30 $-1 $52 forward single #
face $-1 $53 $54 $31 $-1 $55 reversed single #
face $-1 $56 $57 $32 $-1 $58 reversed single #
face $-1 $59 $60 $33 $-1 $61 forward single #
face $-1 $62 $63 $34 $-1 $64 reversed single #
face $-1 $65 $66 $35 $-1 $67 forward single #
face $-1 $68 $69 $36 $-1 $70 reversed single #
face $-1 $71 $72 $37 $-1 $73 forward single #
face $-1 $74 $75 $38 $-1 $76 reversed single #
face $-1 $77 $78 $39 $-1 $79 forward single #
face $-1 $80 $81 $30 $-1 $82 reversed single #
loop $-1 $-1 $83 $40 #
plane-surface $-1 0 0 5.3060190863542491 0 0 1 1 0 0 forward_v I I I I #
face $-1 $84 $85 $31 $-1 $86 reversed single #
loop $-1 $-1 $87 $41 #
plane-surface $-1 -45.238723193706534 -22.314895063268466 0 1 0 0 0 0 -1 forward_v I I I I #
face $-1 $88 $89 $32 $-1 $90 reversed single #
loop $-1 $-1 $91 $42 #
plane-surface $-1 -140.50547089914579 -6.2330096025631256 51.903469089051434 0 1 0 -0.86602541151947299 0 0.49999998660252726 forward_v I I I I #
face $-1 $92 $93 $33 $-1 $94 forward single #
loop $-1 $95 $96 $43 #
cone-surface $-1 -49.240960602186355 -2.2251139981800634 2.4326280251660246 0.86602541151947299 0 -0.49999998660252726 0.49999998660252726 0 0.86602541151947299 1 I I 0 1 1 forward I I I I #
face $-1 $97 $98 $34 $-1 $99 reversed single #
loop $-1 $-1 $100 $44 #
plane-surface $-1 -140.50547089914579 16.081885460705344 51.903469089051434 0 1 0 -0.86602541151947299 0 0.49999998660252726 forward_v I I I I #
face $-1 $101 $102 $35 $-1 $103 forward single #
loop $-1 $104 $105 $45 #
cone-surface $-1 -49.240960602186355 20.089781065088406 2.4326280251660246 0.86602541151947299 0 -0.49999998660252726 0.49999998660252726 0 0.86602541151947299 1 I I 0 1 1 forward I I I I #
face $-1 $106 $107 $36 $-1 $108 reversed single #
loop $-1 $-1 $109 $46 #
plane-surface $-1 89.076900848600147 1.7827816062029989 140.98036855962582 0 -1 0 -0.86602541151947299 0 -0.49999998660252726 forward_v I I I I #
face $-1 $110 $111 $37 $-1 $112 forward single #
loop $-1 $113 $114 $47 #
cone-surface $-1 49.240960602186348 -2.2251139981800634 2.4326280251660317 -0.86602541151947299 0 -0.49999998660252726 0.49999998660252726 0 -0.86602541151947299 1 I I 0 1 1 forward I I I I #
face $-1 $115 $116 $38 $-1 $117 reversed single #
loop $-1 $-1 $118 $48 #
plane-surface $-1 89.076900848600147 16.081885460705344 140.98036855962582 0 1 0 0.86602541151947299 0 0.49999998660252726 forward_v I I I I #
face $-1 $119 $120 $39 $-1 $121 forward single #
loop $-1 $122 $123 $49 #
cone-surface $-1 49.240960602186348 20.089781065088406 2.4326280251660317 -0.86602541151947299 0 -0.49999998660252726 0.49999998660252726 0 -0.86602541151947299 1 I I 0 1 1 forward I I I I #
face $-1 $124 $125 $30 $-1 $126 reversed single #
loop $-1 $-1 $127 $50 #
plane-surface $-1 0 0 -5.3060190863542491 0 0 1 1 0 0 forward_v I I I I #
coedge $-1 $128 $129 $130 $131 forward $51 $-1 #
face $-1 $132 $133 $31 $-1 $134 reversed single #
loop $-1 $-1 $135 $53 #
plane-surface $-1 -43.738723193706534 -20.532113457065467 0 0 -1 0 0 0 -1 forward_v I I I I #
coedge $-1 $136 $137 $138 $139 forward $54 $-1 #
face $-1 $140 $141 $32 $-1 $142 reversed single #
loop $-1 $-1 $143 $56 #
plane-surface $-1 -51.428571428571431 -2.2251139981800634 0.47489903850576809 -0.86602541151947299 0 0.49999998660252726 0.49999998660252726 0 0.86602541151947299 forward_v I I I I #
coedge $-1 $144 $145 $146 $147 reversed $57 $-1 #
face $-1 $-1 $148 $33 $-1 $149 forward single #
loop $-1 $150 $151 $59 #
cone-surface $-1 -48.014961250272727 -2.2251139981800634 1.7247969946007782 0.86602541151947299 0 -0.49999998660252726 0.24999999330126363 0 0.43301270575973649 1 I I -0.70710678118654746 0.70710678118654746 0.5 forward I I I I #
loop $-1 $-1 $152 $43 #
coedge $-1 $96 $96 $153 $154 reversed $60 $-1 #
face $-1 $155 $156 $34 $-1 $157 forward single #
loop $-1 $-1 $158 $62 #
plane-surface $-1 -51.428571428571431 20.089781065088406 0.47489903850576809 -0.86602541151947299 0 0.49999998660252726 0.49999998660252726 0 0.86602541151947299 forward_v I I I I #
coedge $-1 $159 $160 $161 $162 reversed $63 $-1 #
face $-1 $-1 $163 $35 $-1 $164 forward single #
loop $-1 $165 $166 $65 #
cone-surface $-1 -48.014961250272727 20.089781065088406 1.7247969946007782 0.86602541151947299 0 -0.49999998660252726 0.24999999330126363 0 0.43301270575973649 1 I I -0.70710678118654746 0.70710678118654746 0.5 forward I I I I #
loop $-1 $-1 $167 $45 #
coedge $-1 $105 $105 $168 $169 reversed $66 $-1 #
face $-1 $170 $171 $36 $-1 $172 reversed single #
loop $-1 $-1 $173 $68 #
plane-surface $-1 1.3780257859252742e-006 -2.2251139981800634 89.551798509080157 0.86602541151947299 0 0.49999998660252726 0.49999998660252726 0 -0.86602541151947299 forward_v I I I I #
coedge $-1 $174 $175 $176 $177 reversed $69 $-1 #
face $-1 $-1 $178 $37 $-1 $179 forward single #
loop $-1 $180 $181 $71 #
cone-surface $-1 48.014961250272719 -2.2251139981800634 1.7247969946007853 -0.86602541151947299 0 -0.49999998660252726 0.24999999330126363 0 -0.43301270575973649 1 I I -0.70710678118654746 0.70710678118654746 0.5 forward I I I I #
loop $-1 $-1 $182 $47 #
coedge $-1 $114 $114 $183 $184 reversed $72 $-1 #
face $-1 $185 $186 $38 $-1 $187 reversed single #
loop $-1 $-1 $188 $74 #
plane-surface $-1 1.3780257859252742e-006 20.089781065088406 89.551798509080157 0.86602541151947299 0 0.49999998660252726 0.49999998660252726 0 -0.86602541151947299 forward_v I I I I #
coedge $-1 $189 $190 $191 $192 reversed $75 $-1 #
face $-1 $-1 $193 $39 $-1 $194 forward single #
loop $-1 $195 $196 $77 #
cone-surface $-1 48.014961250272719 20.089781065088406 1.7247969946007853 -0.86602541151947299 0 -0.49999998660252726 0.24999999330126363 0 -0.43301270575973649 1 I I -0.70710678118654746 0.70710678118654746 0.5 forward I I I I #
loop $-1 $-1 $197 $49 #
coedge $-1 $123 $123 $198 $199 reversed $78 $-1 #
face $-1 $200 $201 $30 $-1 $202 reversed single #
loop $-1 $-1 $203 $80 #
plane-surface $-1 0 -24.097676669471465 0 0 1 0 0 0 1 forward_v I I I I #
coedge $-1 $204 $205 $206 $207 forward $81 $-1 #
coedge $-1 $208 $83 $209 $210 forward $51 $-1 #
coedge $-1 $83 $208 $211 $212 forward $51 $-1 #
coedge $-1 $213 $214 $83 $131 reversed $215 $-1 #
edge $-1 $216 -24.097676669471465 $217 24.097676669471465 $130 $218 forward 7 unknown #
face $-1 $219 $220 $31 $-1 $221 forward single #
loop $-1 $-1 $222 $84 #
plane-surface $-1 -42.238723193706534 -22.314895063268466 0 -1 0 0 0 0 1 forward_v I I I I #
coedge $-1 $223 $224 $225 $226 forward $85 $-1 #
coedge $-1 $227 $87 $228 $229 reversed $54 $-1 #
coedge $-1 $87 $227 $230 $231 reversed $54 $-1 #
coedge $-1 $224 $223 $87 $139 reversed $85 $-1 #
edge $-1 $232 -5.3060190863542491 $233 5.3060190863542491 $138 $234 forward 7 unknown #
face $-1 $235 $236 $32 $-1 $237 reversed single #
loop $-1 $-1 $238 $88 #
plane-surface $-1 -140.50547089914579 1.7827816062029989 51.903469089051434 0 -1 0 0.86602541151947299 0 -0.49999998660252726 forward_v I I I I #
coedge $-1 $239 $240 $241 $242 reversed $89 $-1 #
coedge $-1 $145 $91 $243 $244 reversed $57 $-1 #
coedge $-1 $91 $144 $239 $245 reversed $57 $-1 #
coedge $-1 $241 $246 $91 $147 forward $247 $-1 #
edge $-1 $248 18.824164021001465 $249 21.613412381463839 $146 $250 forward 7 unknown #
loop $-1 $-1 $153 $92 #
plane-surface $-1 -51.428571428571431 -2.2251139981800634 0.47489903850576809 -0.86602541151947299 0 0.49999998660252726 0.49999998660252726 0 0.86602541151947299 forward_v I I I I #
loop $-1 $-1 $251 $59 #
coedge $-1 $151 $151 $152 $252 reversed $93 $-1 #
coedge $-1 $152 $152 $151 $252 forward $95 $-1 #
coedge $-1 $153 $153 $96 $154 forward $148 $-1 #
edge $-1 $253 0 $253 6.2831853071796004 $153 $254 forward 7 unknown #
face $-1 $255 $256 $34 $-1 $257 reversed single #
loop $-1 $-1 $161 $97 #
plane-surface $-1 0 0 5.3060190863542491 0 0 1 1 0 0 forward_v I I I I #
coedge $-1 $258 $259 $260 $261 reversed $98 $-1 #
coedge $-1 $160 $100 $262 $263 reversed $63 $-1 #
coedge $-1 $100 $159 $258 $264 reversed $63 $-1 #
coedge $-1 $260 $265 $100 $162 forward $156 $-1 #
edge $-1 $266 18.824164021001465 $267 21.613412381463839 $161 $268 forward 7 unknown #
loop $-1 $-1 $168 $101 #
plane-surface $-1 -51.428571428571431 20.089781065088406 0.47489903850576809 -0.86602541151947299 0 0.49999998660252726 0.49999998660252726 0 0.86602541151947299 forward_v I I I I #
loop $-1 $-1 $269 $65 #
coedge $-1 $166 $166 $167 $270 reversed $102 $-1 #
coedge $-1 $167 $167 $166 $270 forward $104 $-1 #
coedge $-1 $168 $168 $105 $169 forward $163 $-1 #
edge $-1 $271 0 $271 6.2831853071796004 $168 $272 forward 7 unknown #
face $-1 $273 $274 $36 $-1 $275 reversed single #
loop $-1 $-1 $276 $106 #
plane-surface $-1 89.076900848600147 -6.2330096025631256 140.98036855962582 0 1 0 0.86602541151947299 0 0.49999998660252726 forward_v I I I I #
coedge $-1 $277 $278 $279 $280 reversed $107 $-1 #
coedge $-1 $175 $109 $281 $282 reversed $69 $-1 #
coedge $-1 $109 $174 $277 $283 reversed $69 $-1 #
coedge $-1 $279 $284 $109 $177 forward $285 $-1 #
edge $-1 $286 -6.8901210042713572 $287 -4.1008726438090122 $176 $288 forward 7 unknown #
loop $-1 $-1 $183 $110 #
plane-surface $-1 1.3780257859252742e-006 -2.2251139981800634 89.551798509080157 0.86602541151947299 0 0.49999998660252726 0.49999998660252726 0 -0.86602541151947299 forward_v I I I I #
loop $-1 $-1 $289 $71 #
coedge $-1 $181 $181 $182 $290 reversed $111 $-1 #
coedge $-1 $182 $182 $181 $290 forward $113 $-1 #
coedge $-1 $183 $183 $114 $184 forward $178 $-1 #
edge $-1 $291 0 $291 6.2831853071796004 $183 $292 forward 7 unknown #
face $-1 $293 $294 $38 $-1 $295 forward single #
loop $-1 $-1 $191 $115 #
plane-surface $-1 51.428571428571431 0 0 -1 0 0 0 0 1 forward_v I I I I #
coedge $-1 $296 $297 $298 $299 reversed $116 $-1 #
coedge $-1 $190 $118 $300 $301 reversed $75 $-1 #
coedge $-1 $118 $189 $296 $302 reversed $75 $-1 #
coedge $-1 $298 $303 $118 $192 forward $186 $-1 #
edge $-1 $304 65.184165193458654 $305 70.015285241307083 $191 $306 forward 7 unknown #
loop $-1 $-1 $198 $119 #
plane-surface $-1 1.3780257859252742e-006 20.089781065088406 89.551798509080157 0.86602541151947299 0 0.49999998660252726 0.49999998660252726 0 -0.86602541151947299 forward_v I I I I #
loop $-1 $-1 $307 $77 #
coedge $-1 $196 $196 $197 $308 reversed $120 $-1 #
coedge $-1 $197 $197 $196 $308 forward $122 $-1 #
coedge $-1 $198 $198 $123 $199 forward $193 $-1 #
edge $-1 $309 0 $309 6.2831853071796004 $198 $310 forward 7 unknown #
face $-1 $311 $312 $30 $-1 $313 reversed single #
loop $-1 $-1 $314 $124 #
plane-surface $-1 -51.428571428571431 0 0 1 0 0 0 0 -1 forward_v I I I I #
coedge $-1 $315 $211 $316 $317 forward $125 $-1 #
coedge $-1 $318 $127 $315 $319 forward $81 $-1 #
coedge $-1 $127 $318 $320 $321 forward $81 $-1 #
coedge $-1 $214 $213 $127 $207 reversed $215 $-1 #
edge $-1 $322 -24.097676669471465 $323 24.097676669471465 $206 $324 forward 7 unknown #
coedge $-1 $129 $128 $325 $326 forward $51 $-1 #
coedge $-1 $327 $328 $128 $210 reversed $312 $-1 #
edge $-1 $217 -51.428571428571431 $329 51.428571428571431 $209 $330 forward 7 unknown #
coedge $-1 $203 $331 $129 $212 reversed $125 $-1 #
edge $-1 $332 -51.428571428571431 $216 51.428571428571431 $211 $333 forward 7 unknown #
coedge $-1 $206 $130 $331 $334 forward $215 $-1 #
coedge $-1 $130 $206 $327 $335 reversed $215 $-1 #
loop $-1 $-1 $213 $311 #
vertex $-1 $131 $336 #
vertex $-1 $131 $337 #
straight-curve $-1 51.428571428571431 0 5.3060190863542491 0 1 0 I I #
face $-1 $338 $339 $31 $-1 $340 reversed single #
loop $-1 $-1 $341 $132 #
plane-surface $-1 0 0 5.3060190863542491 0 0 1 1 0 0 forward_v I I I I #
coedge $-1 $342 $343 $344 $345 reversed $133 $-1 #
coedge $-1 $138 $135 $346 $347 reversed $85 $-1 #
coedge $-1 $135 $138 $348 $349 reversed $85 $-1 #
coedge $-1 $343 $342 $135 $226 reversed $133 $-1 #
edge $-1 $350 -5.3060190863542491 $351 5.3060190863542491 $225 $352 forward 7 unknown #
coedge $-1 $137 $136 $353 $354 reversed $54 $-1 #
coedge $-1 $346 $355 $136 $229 forward $339 $-1 #
edge $-1 $356 -12.940229137837232 $233 -9.3746659254312341 $228 $357 forward 7 unknown #
coedge $-1 $358 $348 $137 $231 forward $220 $-1 #
edge $-1 $232 9.3746659254312341 $359 12.940229137837232 $230 $360 forward 7 unknown #
vertex $-1 $231 $361 #
vertex $-1 $229 $362 #
straight-curve $-1 -45.238723193706534 -20.532113457065467 0 0 0 -1 I I #
face $-1 $-1 $247 $32 $-1 $363 forward single #
loop $-1 $-1 $364 $140 #
plane-surface $-1 -51.428571428571431 0 0 1 0 0 0 0 -1 forward_v I I I I #
coedge $-1 $365 $366 $367 $368 reversed $141 $-1 #
coedge $-1 $369 $143 $145 $245 forward $89 $-1 #
coedge $-1 $143 $369 $365 $370 forward $89 $-1 #
coedge $-1 $367 $146 $143 $242 forward $247 $-1 #
edge $-1 $249 -5.1204526034730939 $371 2.8953386052930306 $241 $372 forward 7 unknown #
coedge $-1 $373 $374 $144 $244 forward $236 $-1 #
edge $-1 $375 -25.476835506019949 $248 -20.645715458171466 $243 $376 forward 7 unknown #
edge $-1 $249 -5.5784968704002651 $375 0 $145 $377 forward 7 unknown #
coedge $-1 $146 $367 $373 $378 forward $247 $-1 #
loop $-1 $-1 $367 $235 #
vertex $-1 $244 $379 #
vertex $-1 $147 $380 #
straight-curve $-1 -70.252735449572896 -6.2330096025631256 5.3060190863542473 1 0 0 I I #
coedge $-1 $251 $251 $-1 $381 reversed $150 $-1 #
edge $-1 $382 0 $382 6.2831853071796004 $151 $383 forward 7 unknown #
vertex $-1 $154 $384 #
ellipse-curve $-1 -50.033947248340247 -2.2251139981800634 2.8904590624300073 -0.86602541151947299 0 0.49999998660252726 0.49999998660252726 0 0.86602541151947299 1 I I #
face $-1 $-1 $385 $34 $-1 $386 reversed single #
loop $-1 $-1 $387 $155 #
plane-surface $-1 0 24.097676669471465 0 0 -1 0 0 0 -1 forward_v I I I I #
coedge $-1 $388 $158 $160 $264 forward $98 $-1 #
coedge $-1 $158 $388 $387 $389 reversed $98 $-1 #
coedge $-1 $390 $161 $158 $261 forward $156 $-1 #
edge $-1 $267 6.0369949281611408 $391 14.052786136927265 $260 $392 forward 7 unknown #
coedge $-1 $393 $394 $159 $263 forward $385 $-1 #
edge $-1 $395 -25.476835506019949 $266 -20.645715458171466 $262 $396 forward 7 unknown #
edge $-1 $267 -5.5784968704002651 $395 0 $160 $397 forward 7 unknown #
coedge $-1 $161 $390 $393 $398 forward $156 $-1 #
vertex $-1 $263 $399 #
vertex $-1 $162 $400 #
straight-curve $-1 -70.252735449572896 16.081885460705344 5.3060190863542473 1 0 0 I I #
coedge $-1 $269 $269 $-1 $401 reversed $165 $-1 #
edge $-1 $402 0 $402 6.2831853071796004 $166 $403 forward 7 unknown #
vertex $-1 $169 $404 #
ellipse-curve $-1 -50.033947248340247 20.089781065088406 2.8904590624300073 -0.86602541151947299 0 0.49999998660252726 0.49999998660252726 0 0.86602541151947299 1 I I #
face $-1 $-1 $285 $36 $-1 $405 forward single #
loop $-1 $-1 $406 $170 #
plane-surface $-1 51.428571428571431 0 0 -1 0 0 0 0 1 forward_v I I I I #
coedge $-1 $407 $408 $409 $410 reversed $171 $-1 #
coedge $-1 $411 $173 $175 $283 forward $107 $-1 #
coedge $-1 $173 $411 $407 $412 forward $107 $-1 #
coedge $-1 $409 $176 $173 $280 forward $285 $-1 #
edge $-1 $287 -2.8953386052930306 $413 5.1204526034730939 $279 $414 forward 7 unknown #
coedge $-1 $415 $416 $174 $282 forward $274 $-1 #
edge $-1 $417 -70.015285241307083 $286 -65.184165193458654 $281 $418 forward 7 unknown #
edge $-1 $287 97.278645986742617 $417 102.85714285714283 $175 $419 forward 7 unknown #
coedge $-1 $176 $409 $415 $420 forward $285 $-1 #
loop $-1 $-1 $409 $273 #
vertex $-1 $282 $421 #
vertex $-1 $177 $422 #
straight-curve $-1 44.538450424300073 1.7827816062029989 5.3060190863542545 -1 0 0 I I #
coedge $-1 $289 $289 $-1 $423 reversed $180 $-1 #
edge $-1 $424 0 $424 6.2831853071796004 $181 $425 forward 7 unknown #
vertex $-1 $184 $426 #
ellipse-curve $-1 50.033947248340262 -2.2251139981800634 2.8904590624300299 0.86602541151947299 0 0.49999998660252726 0.49999998660252726 0 -0.86602541151947299 1 I I #
face $-1 $-1 $427 $38 $-1 $428 reversed single #
loop $-1 $-1 $300 $185 #
plane-surface $-1 0 0 5.3060190863542491 0 0 1 1 0 0 forward_v I I I I #
coedge $-1 $429 $188 $190 $302 forward $116 $-1 #
coedge $-1 $188 $429 $430 $431 reversed $116 $-1 #
coedge $-1 $432 $191 $188 $299 forward $186 $-1 #
edge $-1 $305 6.0369949281611408 $433 14.052786136927262 $298 $434 forward 7 unknown #
coedge $-1 $435 $436 $189 $301 forward $294 $-1 #
edge $-1 $437 4.1008726438090122 $304 6.8901210042713572 $300 $438 forward 7 unknown #
edge $-1 $305 -102.85714285714283 $437 -97.278645986742617 $190 $439 forward 7 unknown #
coedge $-1 $191 $432 $435 $440 reversed $186 $-1 #
vertex $-1 $440 $441 #
vertex $-1 $192 $442 #
straight-curve $-1 51.428571428571431 16.081885460705344 70.490184279812908 0 0 -1 I I #
coedge $-1 $307 $307 $-1 $443 reversed $195 $-1 #
edge $-1 $444 0 $444 6.2831853071796004 $196 $445 forward 7 unknown #
vertex $-1 $199 $446 #
ellipse-curve $-1 50.033947248340262 20.089781065088406 2.8904590624300299 0.86602541151947299 0 0.49999998660252726 0.49999998660252726 0 -0.86602541151947299 1 I I #
face $-1 $-1 $215 $30 $-1 $447 reversed single #
loop $-1 $-1 $327 $200 #
plane-surface $-1 0 24.097676669471465 0 0 -1 0 0 0 -1 forward_v I I I I #
coedge $-1 $448 $325 $328 $449 forward $201 $-1 #
coedge $-1 $331 $203 $204 $319 reversed $125 $-1 #
coedge $-1 $325 $448 $203 $317 reversed $201 $-1 #
edge $-1 $332 -5.3060190863542491 $450 5.3060190863542491 $316 $451 forward 7 unknown #
coedge $-1 $205 $204 $448 $452 forward $81 $-1 #
edge $-1 $323 -51.428571428571431 $450 51.428571428571431 $315 $453 forward 7 unknown #
coedge $-1 $328 $327 $205 $321 reversed $312 $-1 #
edge $-1 $454 -51.428571428571431 $322 51.428571428571431 $320 $455 forward 7 unknown #
vertex $-1 $207 $456 #
vertex $-1 $334 $457 #
straight-curve $-1 51.428571428571431 0 -5.3060190863542491 0 -1 0 I I #
coedge $-1 $314 $316 $208 $326 reversed $201 $-1 #
edge $-1 $329 -24.097676669471465 $332 24.097676669471465 $325 $458 forward 7 unknown #
coedge $-1 $320 $209 $214 $335 forward $312 $-1 #
coedge $-1 $209 $320 $314 $449 reversed $312 $-1 #
vertex $-1 $210 $459 #
straight-curve $-1 0 24.097676669471465 5.3060190863542491 -1 0 0 I I #
coedge $-1 $211 $315 $213 $334 reversed $125 $-1 #
vertex $-1 $326 $460 #
straight-curve $-1 0 -24.097676669471465 5.3060190863542491 1 0 0 I I #
edge $-1 $216 -5.3060190863542491 $323 5.3060190863542491 $213 $461 forward 7 unknown #
edge $-1 $217 -5.3060190863542491 $322 5.3060190863542491 $214 $462 forward 7 unknown #
point $-1 51.428571428571431 -24.097676669471465 5.3060190863542491 #
point $-1 51.428571428571431 24.097676669471465 5.3060190863542491 #
face $-1 $-1 $463 $31 $-1 $464 reversed single #
loop $-1 $-1 $465 $219 #
plane-surface $-1 0 0 -5.3060190863542491 0 0 1 1 0 0 forward_v I I I I #
coedge $-1 $348 $358 $343 $466 forward $220 $-1 #
coedge $-1 $225 $222 $465 $467 reversed $133 $-1 #
coedge $-1 $222 $225 $341 $466 reversed $133 $-1 #
coedge $-1 $468 $469 $222 $345 forward $463 $-1 #
edge $-1 $470 -5.3060190863542491 $471 5.3060190863542491 $344 $472 forward 7 unknown #
coedge $-1 $465 $228 $223 $347 forward $339 $-1 #
edge $-1 $233 -23.369361596853267 $351 -20.369361596853267 $346 $473 forward 7 unknown #
coedge $-1 $230 $341 $224 $349 forward $220 $-1 #
edge $-1 $350 20.369361596853267 $232 23.369361596853267 $348 $474 forward 7 unknown #
vertex $-1 $349 $475 #
vertex $-1 $347 $476 #
straight-curve $-1 -42.238723193706534 -20.532113457065467 0 0 0 -1 I I #
coedge $-1 $469 $468 $227 $354 forward $463 $-1 #
edge $-1 $359 -5.3060190863542491 $356 5.3060190863542491 $353 $477 forward 7 unknown #
coedge $-1 $228 $465 $469 $478 forward $339 $-1 #
vertex $-1 $229 $479 #
straight-curve $-1 -45.238723193706534 -11.157447531634233 -5.3060190863542491 0 1 0 I I #
coedge $-1 $341 $230 $468 $480 forward $220 $-1 #
vertex $-1 $480 $481 #
straight-curve $-1 -45.238723193706534 -11.157447531634233 5.3060190863542491 0 -1 0 I I #
point $-1 -45.238723193706534 -20.532113457065467 5.3060190863542491 #
point $-1 -45.238723193706534 -20.532113457065467 -5.3060190863542491 #
plane-surface $-1 0 0 5.3060190863542491 0 0 1 1 0 0 forward_v I I I I #
coedge $-1 $374 $373 $366 $482 forward $236 $-1 #
coedge $-1 $366 $238 $240 $370 reversed $141 $-1 #
coedge $-1 $238 $365 $364 $482 reversed $141 $-1 #
coedge $-1 $246 $241 $238 $368 forward $247 $-1 #
edge $-1 $371 -21.613412381463839 $483 -18.824164021001465 $367 $484 forward 7 unknown #
coedge $-1 $240 $239 $374 $485 reversed $89 $-1 #
edge $-1 $486 0 $371 5.5784968704002651 $365 $487 forward 7 unknown #
vertex $-1 $242 $488 #
straight-curve $-1 -48.63932306810905 -1.1125569990900317 5.3060190863542491 0 1 0 I I #
coedge $-1 $364 $243 $246 $378 reversed $236 $-1 #
coedge $-1 $243 $364 $369 $485 forward $236 $-1 #
vertex $-1 $244 $489 #
straight-curve $-1 -51.428571428571431 -6.2330096025631256 25.951734544525717 0 0 1 I I #
straight-curve $-1 -51.428571428571431 -6.2330096025631256 0.47489903850576809 -0.49999998660252726 0 -0.86602541151947299 I I #
edge $-1 $483 -1.7827816062029989 $248 6.2330096025631256 $373 $490 forward 7 unknown #
point $-1 -51.428571428571431 -6.2330096025631256 5.3060190863542491 #
point $-1 -48.639323068109057 -6.2330096025631256 5.3060190863542491 #
edge $-1 $491 1 $491 0 $251 $-1 forward 7 unknown #
vertex $-1 $252 $492 #
ellipse-curve $-1 -48.447973956032463 -2.2251139981800634 1.9747969879020417 -0.86602541151947299 0 0.49999998660252726 0.49999998660252726 0 0.86602541151947299 1 I I #
point $-1 -49.533947261737715 -2.2251139981800634 3.7564844739494809 #
loop $-1 $-1 $262 $255 #
plane-surface $-1 -51.428571428571431 0 0 1 0 0 0 0 -1 forward_v I I I I #
coedge $-1 $493 $494 $259 $389 forward $256 $-1 #
coedge $-1 $259 $258 $394 $495 reversed $98 $-1 #
edge $-1 $391 7.0730083246100728 $496 12.651505195010337 $387 $497 forward 7 unknown #
coedge $-1 $265 $260 $494 $498 forward $156 $-1 #
vertex $-1 $498 $499 #
straight-curve $-1 -48.63932306810905 10.044890532544203 5.3060190863542491 0 1 0 I I #
coedge $-1 $500 $262 $265 $398 reversed $385 $-1 #
coedge $-1 $262 $500 $388 $495 forward $385 $-1 #
vertex $-1 $263 $501 #
straight-curve $-1 -51.428571428571431 16.081885460705344 25.951734544525717 0 0 1 I I #
straight-curve $-1 -51.428571428571431 16.081885460705344 0.47489903850576809 -0.49999998660252726 0 -0.86602541151947299 I I #
edge $-1 $502 -24.097676669471465 $266 -16.081885460705344 $393 $503 forward 7 unknown #
point $-1 -51.428571428571431 16.081885460705344 5.3060190863542491 #
point $-1 -48.639323068109057 16.081885460705344 5.3060190863542491 #
edge $-1 $504 1 $504 0 $269 $-1 forward 7 unknown #
vertex $-1 $270 $505 #
ellipse-curve $-1 -48.447973956032463 20.089781065088406 1.9747969879020417 -0.86602541151947299 0 0.49999998660252726 0.49999998660252726 0 0.86602541151947299 1 I I #
point $-1 -49.533947261737715 20.089781065088406 3.7564844739494809 #
plane-surface $-1 0 0 5.3060190863542491 0 0 1 1 0 0 forward_v I I I I #
coedge $-1 $416 $415 $408 $506 forward $274 $-1 #
coedge $-1 $408 $276 $278 $412 reversed $171 $-1 #
coedge $-1 $276 $407 $406 $506 reversed $171 $-1 #
coedge $-1 $284 $279 $276 $410 forward $285 $-1 #
edge $-1 $413 4.1008726438090122 $507 6.8901210042713572 $409 $508 forward 7 unknown #
coedge $-1 $278 $277 $416 $509 reversed $107 $-1 #
edge $-1 $510 -102.85714285714283 $413 -97.278645986742617 $407 $511 forward 7 unknown #
vertex $-1 $280 $512 #
straight-curve $-1 48.639323068109093 -1.1125569990900317 5.3060190863542473 0 -1 0 I I #
coedge $-1 $406 $281 $284 $420 reversed $274 $-1 #
coedge $-1 $281 $406 $411 $509 forward $274 $-1 #
vertex $-1 $282 $513 #
straight-curve $-1 51.428571428571431 1.7827816062029989 70.490184279812908 0 0 1 I I #
straight-curve $-1 1.3780257859252742e-006 1.7827816062029989 89.551798509080157 0.49999998660252726 0 -0.86602541151947299 I I #
edge $-1 $507 -6.2330096025631256 $286 1.7827816062029989 $415 $514 forward 7 unknown #
point $-1 51.428571428571431 1.7827816062029989 5.3060190863542491 #
point $-1 48.639323068109086 1.7827816062029989 5.3060190863542545 #
edge $-1 $515 1 $515 0 $289 $-1 forward 7 unknown #
vertex $-1 $290 $516 #
ellipse-curve $-1 48.447973956032456 -2.2251139981800634 1.9747969879020488 0.86602541151947299 0 0.49999998660252726 0.49999998660252726 0 -0.86602541151947299 1 I I #
point $-1 50.533947234942765 -2.2251139981800634 2.0244336509105416 #
loop $-1 $-1 $430 $293 #
plane-surface $-1 0 24.097676669471465 0 0 -1 0 0 0 -1 forward_v I I I I #
coedge $-1 $297 $296 $436 $517 reversed $116 $-1 #
coedge $-1 $518 $519 $297 $431 forward $427 $-1 #
edge $-1 $433 -64.080076623581718 $520 -58.50157975318151 $430 $521 forward 7 unknown #
coedge $-1 $303 $298 $519 $522 reversed $186 $-1 #
vertex $-1 $299 $523 #
straight-curve $-1 51.428571428571431 10.044890532544203 0.47489903850581072 0 1 0 I I #
coedge $-1 $524 $300 $303 $440 forward $294 $-1 #
coedge $-1 $300 $524 $429 $517 forward $294 $-1 #
vertex $-1 $301 $525 #
straight-curve $-1 44.538450424300073 16.081885460705344 5.3060190863542545 1 0 0 I I #
straight-curve $-1 1.3780257859252742e-006 16.081885460705344 89.551798509080157 -0.49999998660252726 0 0.86602541151947299 I I #
edge $-1 $304 16.081885460705344 $526 24.097676669471465 $303 $527 forward 7 unknown #
point $-1 51.428571428571431 16.081885460705344 5.3060190863542491 #
point $-1 51.428571428571431 16.081885460705344 0.47489903850582493 #
edge $-1 $528 1 $528 0 $307 $-1 forward 7 unknown #
vertex $-1 $308 $529 #
ellipse-curve $-1 48.447973956032456 20.089781065088406 1.9747969879020488 0.86602541151947299 0 0.49999998660252726 0.49999998660252726 0 -0.86602541151947299 1 I I #
point $-1 50.533947234942765 20.089781065088406 2.0244336509105416 #
plane-surface $-1 51.428571428571431 0 0 -1 0 0 0 0 1 forward_v I I I I #
coedge $-1 $316 $314 $318 $452 reversed $201 $-1 #
edge $-1 $329 -5.3060190863542491 $454 5.3060190863542491 $328 $530 forward 7 unknown #
vertex $-1 $452 $531 #
straight-curve $-1 -51.428571428571431 -24.097676669471465 0 0 0 -1 I I #
edge $-1 $450 -24.097676669471465 $454 24.097676669471465 $448 $532 forward 7 unknown #
straight-curve $-1 0 -24.097676669471465 -5.3060190863542491 -1 0 0 I I #
vertex $-1 $321 $533 #
straight-curve $-1 0 24.097676669471465 -5.3060190863542491 1 0 0 I I #
point $-1 51.428571428571431 24.097676669471465 -5.3060190863542491 #
point $-1 51.428571428571431 -24.097676669471465 -5.3060190863542491 #
straight-curve $-1 -51.428571428571431 0 5.3060190863542491 0 -1 0 I I #
point $-1 -51.428571428571431 24.097676669471465 5.3060190863542491 #
point $-1 -51.428571428571431 -24.097676669471465 5.3060190863542491 #
straight-curve $-1 51.428571428571431 -24.097676669471465 0 0 0 -1 I I #
straight-curve $-1 51.428571428571431 24.097676669471465 0 0 0 -1 I I #
loop $-1 $-1 $344 $338 #
plane-surface $-1 0 -24.097676669471465 0 0 1 0 0 0 1 forward_v I I I I #
coedge $-1 $355 $346 $342 $467 forward $339 $-1 #
edge $-1 $471 -12.940229137837232 $350 -9.3746659254312341 $341 $534 forward 7 unknown #
edge $-1 $351 9.3746659254312341 $470 12.940229137837232 $465 $535 forward 7 unknown #
coedge $-1 $353 $344 $358 $480 reversed $463 $-1 #
coedge $-1 $344 $353 $355 $478 reversed $463 $-1 #
vertex $-1 $478 $536 #
vertex $-1 $345 $537 #
straight-curve $-1 -42.238723193706534 -24.097676669471465 0 0 0 1 I I #
straight-curve $-1 -21.869361596853267 -20.532113457065467 -5.3060190863542491 1 0 0 I I #
straight-curve $-1 -21.869361596853267 -20.532113457065467 5.3060190863542491 -1 0 0 I I #
point $-1 -42.238723193706534 -20.532113457065467 5.3060190863542491 #
point $-1 -42.238723193706534 -20.532113457065467 -5.3060190863542491 #
straight-curve $-1 -45.238723193706534 -24.097676669471465 0 0 0 -1 I I #
edge $-1 $470 42.238723193706534 $356 45.238723193706534 $469 $538 forward 7 unknown #
point $-1 -45.238723193706534 -24.097676669471465 -5.3060190863542491 #
edge $-1 $359 -45.238723193706534 $471 -42.238723193706534 $468 $539 forward 7 unknown #
point $-1 -45.238723193706534 -24.097676669471465 5.3060190863542491 #
edge $-1 $483 20.645715458171466 $486 25.476835506019949 $364 $540 forward 7 unknown #
vertex $-1 $378 $541 #
straight-curve $-1 -70.252735449572896 1.7827816062029989 5.3060190863542473 -1 0 0 I I #
edge $-1 $486 -2.8953386052930306 $375 5.1204526034730939 $374 $542 forward 7 unknown #
vertex $-1 $485 $543 #
straight-curve $-1 -51.428571428571431 1.7827816062029989 0.47489903850576809 0.49999998660252726 0 0.86602541151947299 I I #
point $-1 -48.639323068109057 1.7827816062029989 5.3060190863542491 #
point $-1 -51.428571428571431 -6.2330096025631256 0.47489903850576809 #
straight-curve $-1 -51.428571428571431 0 5.3060190863542491 0 -1 0 I I #
vertex $-1 $381 $544 #
point $-1 -47.947973969429938 -2.2251139981800634 2.8408223994215147 #
coedge $-1 $494 $387 $500 $545 reversed $256 $-1 #
coedge $-1 $387 $493 $390 $498 reversed $256 $-1 #
edge $-1 $496 -14.052786136927265 $395 -6.0369949281611408 $394 $546 forward 7 unknown #
vertex $-1 $389 $547 #
straight-curve $-1 -45.102819000564452 24.097676669471465 11.431424031355343 -0.49999998660252726 0 -0.86602541151947299 I I #
edge $-1 $391 48.639323068109057 $502 51.428571428571431 $494 $548 forward 7 unknown #
point $-1 -48.639323068109057 24.097676669471468 5.3060190863542491 #
coedge $-1 $394 $393 $493 $545 forward $385 $-1 #
point $-1 -51.428571428571431 16.081885460705344 0.47489903850576809 #
vertex $-1 $498 $549 #
straight-curve $-1 -51.428571428571431 0 5.3060190863542491 0 -1 0 I I #
vertex $-1 $401 $550 #
point $-1 -47.947973969429938 20.089781065088406 2.8408223994215147 #
edge $-1 $507 65.184165193458654 $510 70.015285241307083 $406 $551 forward 7 unknown #
vertex $-1 $420 $552 #
straight-curve $-1 44.538450424300073 -6.2330096025631256 5.3060190863542545 1 0 0 I I #
edge $-1 $510 -5.1204526034730939 $417 2.8953386052930306 $416 $553 forward 7 unknown #
vertex $-1 $509 $554 #
straight-curve $-1 1.3780257859252742e-006 -6.2330096025631256 89.551798509080157 -0.49999998660252726 0 0.86602541151947299 I I #
point $-1 48.639323068109086 -6.2330096025631256 5.3060190863542545 #
point $-1 51.428571428571431 1.7827816062029989 0.47489903850582493 #
straight-curve $-1 51.428571428571431 0 5.3060190863542491 0 1 0 I I #
vertex $-1 $423 $555 #
point $-1 48.947973942634981 -2.2251139981800634 1.1087715763825758 #
edge $-1 $520 -14.052786136927265 $437 -6.0369949281611408 $436 $556 forward 7 unknown #
coedge $-1 $519 $430 $524 $557 reversed $427 $-1 #
coedge $-1 $430 $518 $432 $522 forward $427 $-1 #
vertex $-1 $431 $558 #
straight-curve $-1 19.388533975291647 24.097676669471465 55.969873766642543 -0.49999998660252726 0 0.86602541151947299 I I #
edge $-1 $526 -5.3060190863542491 $433 -0.4748990385058221 $432 $559 forward 7 unknown #
point $-1 51.428571428571431 24.097676669471465 0.4748990385058221 #
coedge $-1 $436 $435 $518 $557 forward $294 $-1 #
point $-1 48.639323068109086 16.081885460705344 5.3060190863542545 #
vertex $-1 $440 $560 #
straight-curve $-1 51.428571428571431 0 5.3060190863542491 0 1 0 I I #
vertex $-1 $443 $561 #
point $-1 48.947973942634981 20.089781065088406 1.1087715763825758 #
straight-curve $-1 -51.428571428571431 24.097676669471465 0 0 0 -1 I I #
point $-1 -51.428571428571431 -24.097676669471465 -5.3060190863542491 #
straight-curve $-1 -51.428571428571431 0 -5.3060190863542491 0 1 0 I I #
point $-1 -51.428571428571431 24.097676669471465 -5.3060190863542491 #
straight-curve $-1 -42.238723193706534 -11.157447531634233 5.3060190863542491 0 1 0 I I #
straight-curve $-1 -42.238723193706534 -11.157447531634233 -5.3060190863542491 0 -1 0 I I #
point $-1 -42.238723193706534 -24.097676669471465 -5.3060190863542491 #
point $-1 -42.238723193706534 -24.097676669471465 5.3060190863542491 #
straight-curve $-1 0 -24.097676669471465 -5.3060190863542491 -1 0 0 I I #
straight-curve $-1 0 -24.097676669471465 5.3060190863542491 1 0 0 I I #
straight-curve $-1 -51.428571428571431 1.7827816062029989 25.951734544525717 0 0 -1 I I #
point $-1 -51.428571428571431 1.7827816062029989 5.3060190863542491 #
straight-curve $-1 -51.428571428571431 -1.1125569990900317 0.47489903850576798 0 -1 0 I I #
point $-1 -51.428571428571431 1.7827816062029989 0.47489903850576809 #
point $-1 -47.58194854451299 -2.2251139981800634 1.4747970012995146 #
edge $-1 $502 -5.3060190863542491 $496 -0.47489903850576809 $493 $562 forward 7 unknown #
straight-curve $-1 -51.428571428571431 10.044890532544203 0.47489903850576798 0 -1 0 I I #
point $-1 -51.428571428571431 24.097676669471468 0.47489903850576809 #
straight-curve $-1 0 24.097676669471465 5.3060190863542491 -1 0 0 I I #
point $-1 -51.428571428571431 24.097676669471465 5.3060190863542491 #
point $-1 -47.58194854451299 20.089781065088406 1.4747970012995146 #
straight-curve $-1 51.428571428571431 -6.2330096025631256 70.490184279812908 0 0 -1 I I #
point $-1 51.428571428571431 -6.2330096025631256 5.3060190863542491 #
straight-curve $-1 51.428571428571431 -1.1125569990900317 0.47489903850581072 0 1 0 I I #
point $-1 51.428571428571431 -6.2330096025631256 0.47489903850582493 #
point $-1 47.581948544512983 -2.2251139981800634 1.4747970012995217 #
straight-curve $-1 48.639323068109093 10.044890532544203 5.3060190863542473 0 -1 0 I I #
edge $-1 $526 -51.428571428571431 $520 -48.639323068109086 $518 $563 forward 7 unknown #
point $-1 48.639323068109086 24.097676669471468 5.3060190863542545 #
straight-curve $-1 51.428571428571431 24.097676669471465 0 0 0 -1 I I #
point $-1 51.428571428571431 24.097676669471465 5.3060190863542491 #
point $-1 47.581948544512983 20.089781065088406 1.4747970012995217 #
straight-curve $-1 -51.428571428571431 24.097676669471465 0 0 0 -1 I I #
straight-curve $-1 0 24.097676669471465 5.3060190863542491 -1 0 0 I I #
End-of-ACIS-data 