500 0 10 0           
7 Unknown 11 ACIS 5.0 NT 24 Fri Mar 26 01:50:58 1999 
-1 9.9999999999999995e-007 1e-010 
body $-1 $10 $-1 $11 #
body $-1 $12 $-1 $13 #
body $-1 $14 $-1 $15 #
body $-1 $16 $-1 $17 #
body $-1 $18 $-1 $19 #
body $-1 $20 $-1 $21 #
body $-1 $22 $-1 $23 #
body $-1 $24 $-1 $25 #
body $-1 $26 $-1 $27 #
body $-1 $28 $-1 $29 #
lump $-1 $-1 $30 $0 #
transform $-1 1 0 0 0 1 0 0 0 1 77.764824365977972 32.136164746765679 11.707383215280352 1 rotate no_reflect no_shear #
lump $-1 $-1 $31 $1 #
transform $-1 1 0 0 0 1 0 0 0 1 77.764824365977972 32.136164746765679 11.707383215280352 1 rotate no_reflect no_shear #
lump $-1 $-1 $32 $2 #
transform $-1 1 0 0 0 1 0 0 0 1 77.764824365977972 32.136164746765679 11.707383215280352 1 rotate no_reflect no_shear #
lump $-1 $-1 $33 $3 #
transform $-1 1 0 0 0 1 0 0 0 1 77.764824365977972 32.136164746765679 11.707383215280352 1 rotate no_reflect no_shear #
lump $-1 $-1 $34 $4 #
transform $-1 1 0 0 0 1 0 0 0 1 77.764824365977972 32.136164746765679 11.707383215280352 1 rotate no_reflect no_shear #
lump $-1 $-1 $35 $5 #
transform $-1 1 0 0 0 1 0 0 0 1 77.764824365977972 32.136164746765679 11.707383215280352 1 rotate no_reflect no_shear #
lump $-1 $-1 $36 $6 #
transform $-1 1 0 0 0 1 0 0 0 1 77.764824365977972 32.136164746765679 11.707383215280352 1 rotate no_reflect no_shear #
lump $-1 $-1 $37 $7 #
transform $-1 1 0 0 0 1 0 0 0 1 77.764824365977972 32.136164746765679 11.707383215280352 1 rotate no_reflect no_shear #
lump $-1 $-1 $38 $8 #
transform $-1 1 0 0 0 1 0 0 0 1 77.764824365977972 32.136164746765679 11.707383215280352 1 rotate no_reflect no_shear #
lump $-1 $-1 $39 $9 #
transform $-1 1 0 0 0 1 0 0 0 1 77.764824365977972 32.136164746765679 11.707383215280352 1 rotate no_reflect no_shear #
shell $-1 $-1 $-1 $40 $-1 $10 #
shell $-1 $-1 $-1 $41 $-1 $12 #
shell $-1 $-1 $-1 $42 $-1 $14 #
shell $-1 $-1 $-1 $43 $-1 $16 #
shell $-1 $-1 $-1 $44 $-1 $18 #
shell $-1 $-1 $-1 $45 $-1 $20 #
shell $-1 $-1 $-1 $46 $-1 $22 #
shell $-1 $-1 $-1 $47 $-1 $24 #
shell $-1 $-1 $-1 $48 $-1 $26 #
shell $-1 $-1 $-1 $49 $-1 $28 #
face $-1 $50 $51 $30 $-1 $52 forward single #
face $-1 $53 $54 $31 $-1 $55 forward single #
face $-1 $56 $57 $32 $-1 $58 reversed single #
face $-1 $59 $60 $33 $-1 $61 forward single #
face $-1 $62 $63 $34 $-1 $64 forward single #
face $-1 $65 $66 $35 $-1 $67 reversed single #
face $-1 $68 $69 $36 $-1 $70 forward single #
face $-1 $71 $72 $37 $-1 $73 forward single #
face $-1 $74 $75 $38 $-1 $76 reversed single #
face $-1 $77 $78 $39 $-1 $79 forward single #
face $-1 $80 $81 $30 $-1 $82 reversed single #
loop $-1 $-1 $83 $40 #
plane-surface $-1 0 0 11.707383215280352 0 0 1 1 0 0 forward_v I I I I #
face $-1 $84 $85 $31 $-1 $86 reversed single #
loop $-1 $-1 $87 $41 #
plane-surface $-1 -77.764824365977972 0 0 1 0 0 0 0 -1 forward_v I I I I #
face $-1 $88 $89 $32 $-1 $90 reversed single #
loop $-1 $-1 $91 $42 #
plane-surface $-1 -38.441680902343791 -157.96229497290295 93.474299998743163 -1 0 0 0 -0.80901700255871778 0.5877852410284794 forward_v I I I I #
face $-1 $92 $93 $33 $-1 $94 forward single #
loop $-1 $95 $96 $43 #
cone-surface $-1 -60.061131243193465 -26.303623092911014 5.1914743667043197 0 0.80901700255871778 -0.5877852410284794 2.5 0 0 1 I I 0 1 2.5 forward I I I I #
face $-1 $97 $98 $34 $-1 $99 forward single #
loop $-1 $100 $101 $44 #
cone-surface $-1 -47.089461038683659 -26.303623092911014 5.1914743667043197 0 0.80901700255871778 -0.5877852410284794 2.5 0 0 1 I I 0 1 2.5 forward I I I I #
face $-1 $102 $103 $35 $-1 $104 reversed single #
loop $-1 $-1 $105 $45 #
plane-surface $-1 34.795186970411862 -157.96229497290295 93.474299998743163 -1 0 0 0 -0.80901700255871778 0.5877852410284794 forward_v I I I I #
face $-1 $106 $107 $36 $-1 $108 forward single #
loop $-1 $109 $110 $46 #
cone-surface $-1 13.175736629562181 -26.303623092911014 5.1914743667043197 0 0.80901700255871778 -0.5877852410284794 2.5 0 0 1 I I 0 1 2.5 forward I I I I #
face $-1 $111 $112 $37 $-1 $113 forward single #
loop $-1 $114 $115 $47 #
cone-surface $-1 26.147406834072001 -26.303623092911014 5.1914743667043197 0 0.80901700255871778 -0.5877852410284794 2.5 0 0 1 I I 0 1 2.5 forward I I I I #
face $-1 $116 $117 $38 $-1 $118 reversed single #
loop $-1 $-1 $119 $48 #
plane-surface $-1 39.704902114042582 112.55751755893263 150.80081517471496 1 0 0 0 -0.77714596973225614 -0.62932038083071107 forward_v I I I I #
face $-1 $120 $121 $39 $-1 $122 forward single #
loop $-1 $123 $124 $49 #
cone-surface $-1 56.187499914501501 26.512577484937317 5.6502343522540333 0 -0.77714596973225614 -0.62932038083071107 2.5 0 0 1 I I 0 1 2.5 forward I I I I #
face $-1 $125 $126 $30 $-1 $127 reversed single #
loop $-1 $-1 $128 $50 #
plane-surface $-1 0 0 -11.707383215280352 0 0 1 1 0 0 forward_v I I I I #
coedge $-1 $129 $130 $131 $132 forward $51 $-1 #
face $-1 $133 $134 $31 $-1 $135 reversed single #
loop $-1 $-1 $136 $53 #
plane-surface $-1 0 0 -11.707383215280352 0 0 1 1 0 0 forward_v I I I I #
coedge $-1 $137 $138 $139 $140 forward $54 $-1 #
face $-1 $141 $142 $32 $-1 $143 reversed single #
loop $-1 $-1 $144 $56 #
plane-surface $-1 -53.575296140938562 -32.136164746765672 2.0562679317556984 0 -0.80901700255871778 0.5877852410284794 1 0 0 forward_v I I I I #
coedge $-1 $145 $146 $147 $148 reversed $57 $-1 #
face $-1 $-1 $149 $33 $-1 $150 forward single #
loop $-1 $151 $152 $59 #
cone-surface $-1 -60.061131243193465 -22.965782931287642 2.7663916086050087 0 0.80901700255871778 -0.5877852410284794 1.25 0 0 1 I I -0.70710678118654746 0.70710678118654746 1.25 forward I I I I #
loop $-1 $-1 $153 $43 #
coedge $-1 $96 $96 $154 $155 reversed $60 $-1 #
face $-1 $-1 $156 $34 $-1 $157 forward single #
loop $-1 $158 $159 $62 #
cone-surface $-1 -47.089461038683659 -22.965782931287642 2.7663916086050087 0 0.80901700255871778 -0.5877852410284794 1.25 0 0 1 I I -0.70710678118654746 0.70710678118654746 1.25 forward I I I I #
loop $-1 $-1 $160 $44 #
coedge $-1 $101 $101 $161 $162 reversed $63 $-1 #
face $-1 $163 $164 $35 $-1 $165 reversed single #
loop $-1 $-1 $166 $65 #
plane-surface $-1 19.661571731817091 -32.136164746765672 2.0562679317556984 0 -0.80901700255871778 0.5877852410284794 1 0 0 forward_v I I I I #
coedge $-1 $167 $168 $169 $170 reversed $66 $-1 #
face $-1 $-1 $171 $36 $-1 $172 forward single #
loop $-1 $173 $174 $68 #
cone-surface $-1 13.175736629562181 -22.965782931287642 2.7663916086050087 0 0.80901700255871778 -0.5877852410284794 1.25 0 0 1 I I -0.70710678118654746 0.70710678118654746 1.25 forward I I I I #
loop $-1 $-1 $175 $46 #
coedge $-1 $110 $110 $176 $177 reversed $69 $-1 #
face $-1 $-1 $178 $37 $-1 $179 forward single #
loop $-1 $180 $181 $71 #
cone-surface $-1 26.147406834072001 -22.965782931287642 2.7663916086050087 0 0.80901700255871778 -0.5877852410284794 1.25 0 0 1 I I -0.70710678118654746 0.70710678118654746 1.25 forward I I I I #
loop $-1 $-1 $182 $47 #
coedge $-1 $115 $115 $183 $184 reversed $72 $-1 #
face $-1 $185 $186 $38 $-1 $187 reversed single #
loop $-1 $-1 $188 $74 #
plane-surface $-1 56.187499914501473 -8.3117221269804276 52.922837404253727 0 0.77714596973225614 0.62932038083071107 1 0 0 forward_v I I I I #
coedge $-1 $189 $190 $191 $192 reversed $75 $-1 #
face $-1 $-1 $193 $39 $-1 $194 forward single #
loop $-1 $195 $196 $77 #
cone-surface $-1 56.187499914501501 23.45369328494057 3.1731988343033848 0 -0.77714596973225614 -0.62932038083071107 1.25 0 0 1 I I -0.70710678118654746 0.70710678118654746 1.25 forward I I I I #
loop $-1 $-1 $197 $49 #
coedge $-1 $124 $124 $198 $199 reversed $78 $-1 #
face $-1 $200 $201 $30 $-1 $202 reversed single #
loop $-1 $-1 $203 $80 #
plane-surface $-1 0 -32.136164746765679 0 0 1 0 0 0 1 forward_v I I I I #
coedge $-1 $204 $205 $206 $207 forward $81 $-1 #
coedge $-1 $208 $83 $209 $210 forward $51 $-1 #
coedge $-1 $83 $208 $211 $212 forward $51 $-1 #
coedge $-1 $213 $214 $83 $132 reversed $215 $-1 #
edge $-1 $216 -32.136164746765679 $217 32.136164746765679 $131 $218 forward 7 unknown #
face $-1 $219 $220 $31 $-1 $221 reversed single #
loop $-1 $-1 $222 $84 #
plane-surface $-1 -82.292780859200292 -27.606156688377656 0 0 1 0 0 0 1 forward_v I I I I #
coedge $-1 $223 $224 $138 $225 forward $85 $-1 #
coedge $-1 $226 $87 $227 $228 reversed $54 $-1 #
coedge $-1 $87 $226 $136 $225 reversed $54 $-1 #
coedge $-1 $229 $230 $87 $140 reversed $231 $-1 #
edge $-1 $232 -11.707383215280352 $233 11.707383215280352 $139 $234 forward 7 unknown #
face $-1 $235 $236 $32 $-1 $237 forward single #
loop $-1 $-1 $238 $88 #
plane-surface $-1 -68.708911379533333 -157.96229497290295 93.474299998743163 1 0 0 0 0.80901700255871778 -0.5877852410284794 forward_v I I I I #
coedge $-1 $239 $240 $241 $242 reversed $89 $-1 #
coedge $-1 $146 $91 $243 $244 reversed $57 $-1 #
coedge $-1 $91 $145 $239 $245 reversed $57 $-1 #
coedge $-1 $241 $246 $91 $148 forward $236 $-1 #
edge $-1 $247 46.844982739685797 $248 53.856928230545194 $147 $249 forward 7 unknown #
loop $-1 $-1 $154 $92 #
plane-surface $-1 -53.575296140938562 -32.136164746765672 2.0562679317556984 0 -0.80901700255871778 0.5877852410284794 1 0 0 forward_v I I I I #
loop $-1 $-1 $250 $59 #
coedge $-1 $152 $152 $153 $251 reversed $93 $-1 #
coedge $-1 $153 $153 $152 $251 forward $95 $-1 #
coedge $-1 $154 $154 $96 $155 forward $149 $-1 #
edge $-1 $252 -7.5438707136300201e-016 $252 6.2831853071795996 $154 $253 forward 7 unknown #
loop $-1 $-1 $161 $97 #
plane-surface $-1 -53.575296140938562 -32.136164746765672 2.0562679317556984 0 -0.80901700255871778 0.5877852410284794 1 0 0 forward_v I I I I #
loop $-1 $-1 $254 $62 #
coedge $-1 $159 $159 $160 $255 reversed $98 $-1 #
coedge $-1 $160 $160 $159 $255 forward $100 $-1 #
coedge $-1 $161 $161 $101 $162 forward $156 $-1 #
edge $-1 $256 -7.5438707136300201e-016 $256 6.2831853071795996 $161 $257 forward 7 unknown #
face $-1 $258 $259 $35 $-1 $260 reversed single #
loop $-1 $-1 $261 $102 #
plane-surface $-1 4.5279564932223195 -157.96229497290295 93.474299998743163 1 0 0 0 0.80901700255871778 -0.5877852410284794 forward_v I I I I #
coedge $-1 $262 $263 $264 $265 reversed $103 $-1 #
coedge $-1 $168 $105 $266 $267 reversed $66 $-1 #
coedge $-1 $105 $167 $262 $268 reversed $66 $-1 #
coedge $-1 $264 $269 $105 $170 forward $270 $-1 #
edge $-1 $271 46.844982739685797 $272 53.856928230545194 $169 $273 forward 7 unknown #
loop $-1 $-1 $176 $106 #
plane-surface $-1 19.661571731817091 -32.136164746765672 2.0562679317556984 0 -0.80901700255871778 0.5877852410284794 1 0 0 forward_v I I I I #
loop $-1 $-1 $274 $68 #
coedge $-1 $174 $174 $175 $275 reversed $107 $-1 #
coedge $-1 $175 $175 $174 $275 forward $109 $-1 #
coedge $-1 $176 $176 $110 $177 forward $171 $-1 #
edge $-1 $276 -7.5438707136300201e-016 $276 6.2831853071795996 $176 $277 forward 7 unknown #
loop $-1 $-1 $183 $111 #
plane-surface $-1 19.661571731817091 -32.136164746765672 2.0562679317556984 0 -0.80901700255871778 0.5877852410284794 1 0 0 forward_v I I I I #
loop $-1 $-1 $278 $71 #
coedge $-1 $181 $181 $182 $279 reversed $112 $-1 #
coedge $-1 $182 $182 $181 $279 forward $114 $-1 #
coedge $-1 $183 $183 $115 $184 forward $178 $-1 #
edge $-1 $280 -7.5438707136300201e-016 $280 6.2831853071795996 $183 $281 forward 7 unknown #
face $-1 $282 $283 $38 $-1 $284 reversed single #
loop $-1 $-1 $285 $116 #
plane-surface $-1 72.670097714960363 112.55751755893263 150.80081517471496 -1 0 0 0 0.77714596973225614 0.62932038083071107 forward_v I I I I #
coedge $-1 $286 $287 $288 $289 reversed $117 $-1 #
coedge $-1 $190 $119 $290 $291 reversed $75 $-1 #
coedge $-1 $119 $189 $286 $292 reversed $75 $-1 #
coedge $-1 $288 $293 $119 $192 forward $294 $-1 #
edge $-1 $295 24.142594032700636 $296 31.214865080694516 $191 $297 forward 7 unknown #
loop $-1 $-1 $198 $120 #
plane-surface $-1 56.187499914501473 -8.3117221269804276 52.922837404253727 0 0.77714596973225614 0.62932038083071107 1 0 0 forward_v I I I I #
loop $-1 $-1 $298 $77 #
coedge $-1 $196 $196 $197 $299 reversed $121 $-1 #
coedge $-1 $197 $197 $196 $299 forward $123 $-1 #
coedge $-1 $198 $198 $124 $199 forward $193 $-1 #
edge $-1 $300 4.7417245671627588e-016 $300 6.2831853071796013 $198 $301 forward 7 unknown #
face $-1 $302 $303 $30 $-1 $304 reversed single #
loop $-1 $-1 $305 $125 #
plane-surface $-1 -77.764824365977972 0 0 1 0 0 0 0 -1 forward_v I I I I #
coedge $-1 $306 $211 $307 $308 forward $126 $-1 #
coedge $-1 $309 $128 $306 $310 forward $81 $-1 #
coedge $-1 $128 $309 $311 $312 forward $81 $-1 #
coedge $-1 $214 $213 $128 $207 reversed $215 $-1 #
edge $-1 $313 -32.136164746765679 $314 32.136164746765679 $206 $315 forward 7 unknown #
coedge $-1 $130 $129 $316 $317 forward $51 $-1 #
coedge $-1 $318 $319 $129 $210 reversed $303 $-1 #
edge $-1 $217 -77.764824365977972 $320 77.764824365977972 $209 $321 forward 7 unknown #
coedge $-1 $203 $322 $130 $212 reversed $126 $-1 #
edge $-1 $323 -77.764824365977972 $216 77.764824365977972 $211 $324 forward 7 unknown #
coedge $-1 $206 $131 $322 $325 forward $215 $-1 #
coedge $-1 $131 $206 $318 $326 reversed $215 $-1 #
loop $-1 $-1 $213 $302 #
vertex $-1 $132 $327 #
vertex $-1 $132 $328 #
straight-curve $-1 77.764824365977972 0 11.707383215280352 0 1 0 I I #
face $-1 $329 $231 $31 $-1 $330 reversed single #
loop $-1 $-1 $331 $133 #
plane-surface $-1 -86.820737352422611 -24.375916479904859 0 1 0 0 0 0 -1 forward_v I I I I #
coedge $-1 $332 $333 $334 $335 forward $134 $-1 #
coedge $-1 $336 $136 $332 $337 forward $85 $-1 #
coedge $-1 $136 $336 $229 $338 forward $85 $-1 #
edge $-1 $232 21.145676271432063 $339 27.606156688377656 $136 $340 forward 7 unknown #
coedge $-1 $138 $137 $341 $342 forward $54 $-1 #
coedge $-1 $343 $344 $137 $228 forward $345 $-1 #
edge $-1 $346 -27.606156688377656 $233 -21.145676271432063 $227 $347 forward 7 unknown #
coedge $-1 $348 $139 $224 $338 reversed $231 $-1 #
coedge $-1 $139 $348 $343 $349 reversed $231 $-1 #
loop $-1 $-1 $139 $219 #
vertex $-1 $225 $350 #
vertex $-1 $349 $351 #
straight-curve $-1 -77.764824365977972 -21.145676271432063 0 0 0 1 I I #
face $-1 $-1 $352 $32 $-1 $353 reversed single #
loop $-1 $-1 $147 $141 #
plane-surface $-1 0 0 11.707383215280352 0 0 1 1 0 0 forward_v I I I I #
coedge $-1 $354 $355 $356 $357 reversed $142 $-1 #
coedge $-1 $358 $144 $146 $245 forward $89 $-1 #
coedge $-1 $144 $358 $354 $359 forward $89 $-1 #
coedge $-1 $356 $147 $144 $242 forward $236 $-1 #
edge $-1 $248 11.65403283187451 $360 41.921263309064052 $241 $361 forward 7 unknown #
coedge $-1 $362 $363 $145 $244 forward $352 $-1 #
edge $-1 $364 -44.68088206761589 $247 -35.02976678409123 $243 $365 forward 7 unknown #
edge $-1 $248 -11.92943442844909 $364 1.2080531203272332e-014 $146 $366 forward 7 unknown #
coedge $-1 $147 $356 $362 $367 forward $236 $-1 #
vertex $-1 $148 $368 #
vertex $-1 $148 $369 #
straight-curve $-1 -38.441680902343791 -78.981147486451476 11.707383215280352 0 1 0 I I #
coedge $-1 $250 $250 $-1 $370 reversed $151 $-1 #
edge $-1 $371 0 $371 6.2831853071796004 $152 $372 forward 7 unknown #
vertex $-1 $155 $373 #
ellipse-curve $-1 -60.061131243193465 -28.630192001335978 6.8818255735180234 0 -0.80901700255871778 0.5877852410284794 2.5 0 0 1 I I #
coedge $-1 $254 $254 $-1 $374 reversed $158 $-1 #
edge $-1 $375 0 $375 6.2831853071796004 $159 $376 forward 7 unknown #
vertex $-1 $162 $377 #
ellipse-curve $-1 -47.089461038683659 -28.630192001335978 6.8818255735180234 0 -0.80901700255871778 0.5877852410284794 2.5 0 0 1 I I #
face $-1 $-1 $270 $35 $-1 $378 forward single #
loop $-1 $-1 $379 $163 #
plane-surface $-1 0 -32.136164746765679 0 0 1 0 0 0 1 forward_v I I I I #
coedge $-1 $380 $381 $382 $383 reversed $164 $-1 #
coedge $-1 $384 $166 $168 $268 forward $103 $-1 #
coedge $-1 $166 $384 $380 $385 forward $103 $-1 #
coedge $-1 $382 $169 $166 $265 forward $270 $-1 #
edge $-1 $272 -24.964401104503317 $386 5.3028293726862259 $264 $387 forward 7 unknown #
coedge $-1 $388 $389 $167 $267 forward $259 $-1 #
edge $-1 $390 -44.68088206761589 $271 -35.02976678409123 $266 $391 forward 7 unknown #
edge $-1 $272 -11.92943442844909 $390 1.2080531203272332e-014 $168 $392 forward 7 unknown #
coedge $-1 $169 $382 $388 $393 forward $270 $-1 #
loop $-1 $-1 $382 $258 #
vertex $-1 $267 $394 #
vertex $-1 $170 $395 #
straight-curve $-1 34.795186970411862 -78.981147486451476 11.707383215280352 0 1 0 I I #
coedge $-1 $274 $274 $-1 $396 reversed $173 $-1 #
edge $-1 $397 0 $397 6.2831853071796004 $174 $398 forward 7 unknown #
vertex $-1 $177 $399 #
ellipse-curve $-1 13.175736629562181 -28.630192001335978 6.8818255735180234 0 -0.80901700255871778 0.5877852410284794 2.5 0 0 1 I I #
coedge $-1 $278 $278 $-1 $400 reversed $180 $-1 #
edge $-1 $401 0 $401 6.2831853071796004 $181 $402 forward 7 unknown #
vertex $-1 $184 $403 #
ellipse-curve $-1 26.147406834072001 -28.630192001335978 6.8818255735180234 0 -0.80901700255871778 0.5877852410284794 2.5 0 0 1 I I #
face $-1 $-1 $294 $38 $-1 $404 forward single #
loop $-1 $-1 $405 $185 #
plane-surface $-1 0 32.136164746765679 0 0 -1 0 0 0 -1 forward_v I I I I #
coedge $-1 $406 $407 $408 $409 reversed $186 $-1 #
coedge $-1 $410 $188 $190 $292 forward $117 $-1 #
coedge $-1 $188 $410 $406 $411 forward $117 $-1 #
coedge $-1 $408 $191 $188 $289 forward $294 $-1 #
edge $-1 $296 11.611152156791846 $412 44.576347757709627 $288 $413 forward 7 unknown #
coedge $-1 $414 $415 $189 $291 forward $283 $-1 #
edge $-1 $416 -72.426552014305287 $295 -63.693024372077126 $290 $417 forward 7 unknown #
edge $-1 $296 53.034379375566985 $416 64.272329493531373 $190 $418 forward 7 unknown #
coedge $-1 $191 $408 $414 $419 forward $294 $-1 #
loop $-1 $-1 $408 $282 #
vertex $-1 $291 $420 #
vertex $-1 $192 $421 #
straight-curve $-1 39.704902114042582 56.278758779466315 11.707383215280345 0 -1 0 I I #
coedge $-1 $298 $298 $-1 $422 reversed $195 $-1 #
edge $-1 $423 0 $423 6.2831853071796004 $196 $424 forward 7 unknown #
vertex $-1 $199 $425 #
ellipse-curve $-1 56.187499914501501 28.600029222768732 7.3406193941662847 0 0.77714596973225614 0.62932038083071107 2.5 0 0 1 I I #
face $-1 $-1 $215 $30 $-1 $426 reversed single #
loop $-1 $-1 $318 $200 #
plane-surface $-1 0 32.136164746765679 0 0 -1 0 0 0 -1 forward_v I I I I #
coedge $-1 $427 $316 $319 $428 forward $201 $-1 #
coedge $-1 $322 $203 $204 $310 reversed $126 $-1 #
coedge $-1 $316 $427 $203 $308 reversed $201 $-1 #
edge $-1 $323 -11.707383215280352 $429 11.707383215280352 $307 $430 forward 7 unknown #
coedge $-1 $205 $204 $427 $431 forward $81 $-1 #
edge $-1 $314 -77.764824365977972 $429 77.764824365977972 $306 $432 forward 7 unknown #
coedge $-1 $319 $318 $205 $312 reversed $303 $-1 #
edge $-1 $433 -77.764824365977972 $313 77.764824365977972 $311 $434 forward 7 unknown #
vertex $-1 $207 $435 #
vertex $-1 $325 $436 #
straight-curve $-1 77.764824365977972 0 -11.707383215280352 0 -1 0 I I #
coedge $-1 $305 $307 $208 $317 reversed $201 $-1 #
edge $-1 $320 -32.136164746765679 $323 32.136164746765679 $316 $437 forward 7 unknown #
coedge $-1 $311 $209 $214 $326 forward $303 $-1 #
coedge $-1 $209 $311 $305 $428 reversed $303 $-1 #
vertex $-1 $210 $438 #
straight-curve $-1 0 32.136164746765679 11.707383215280352 -1 0 0 I I #
coedge $-1 $211 $306 $213 $325 reversed $126 $-1 #
vertex $-1 $317 $439 #
straight-curve $-1 0 -32.136164746765679 11.707383215280352 1 0 0 I I #
edge $-1 $216 -11.707383215280352 $314 11.707383215280352 $213 $440 forward 7 unknown #
edge $-1 $217 -11.707383215280352 $313 11.707383215280352 $214 $441 forward 7 unknown #
point $-1 77.764824365977972 -32.136164746765679 11.707383215280352 #
point $-1 77.764824365977972 32.136164746765679 11.707383215280352 #
face $-1 $-1 $345 $31 $-1 $442 forward single #
plane-surface $-1 -82.292780859200292 -21.145676271432063 0 0 -1 0 0 0 -1 forward_v I I I I #
coedge $-1 $443 $444 $348 $445 forward $220 $-1 #
coedge $-1 $341 $222 $223 $337 reversed $134 $-1 #
coedge $-1 $222 $341 $344 $446 reversed $134 $-1 #
coedge $-1 $444 $443 $222 $335 reversed $220 $-1 #
edge $-1 $447 -11.707383215280352 $448 11.707383215280352 $334 $449 forward 7 unknown #
coedge $-1 $224 $223 $443 $450 forward $85 $-1 #
edge $-1 $339 -4.5279564932223195 $448 4.5279564932223195 $332 $451 forward 7 unknown #
edge $-1 $452 -4.5279564932223195 $232 4.5279564932223195 $229 $453 forward 7 unknown #
vertex $-1 $337 $454 #
straight-curve $-1 -77.764824365977972 0 -11.707383215280352 0 -1 0 I I #
coedge $-1 $333 $332 $226 $342 reversed $134 $-1 #
edge $-1 $346 -11.707383215280352 $339 11.707383215280352 $341 $455 forward 7 unknown #
coedge $-1 $456 $227 $230 $349 forward $345 $-1 #
coedge $-1 $227 $456 $333 $446 forward $345 $-1 #
loop $-1 $-1 $227 $329 #
vertex $-1 $228 $457 #
straight-curve $-1 -77.764824365977972 0 11.707383215280352 0 1 0 I I #
coedge $-1 $230 $229 $331 $445 reversed $231 $-1 #
edge $-1 $233 -4.5279564932223195 $458 4.5279564932223195 $230 $459 forward 7 unknown #
point $-1 -77.764824365977972 -21.145676271432063 -11.707383215280352 #
point $-1 -77.764824365977972 -21.145676271432063 11.707383215280352 #
loop $-1 $-1 $243 $235 #
plane-surface $-1 0 -32.136164746765679 0 0 1 0 0 0 1 forward_v I I I I #
coedge $-1 $355 $238 $240 $359 reversed $142 $-1 #
coedge $-1 $238 $354 $460 $461 reversed $142 $-1 #
coedge $-1 $246 $241 $238 $357 forward $236 $-1 #
edge $-1 $360 -53.856928230545194 $462 -46.844982739685797 $356 $463 forward 7 unknown #
coedge $-1 $240 $239 $363 $464 reversed $89 $-1 #
edge $-1 $465 -1.2080531203272332e-014 $360 11.92943442844909 $354 $466 forward 7 unknown #
vertex $-1 $242 $467 #
straight-curve $-1 -26.787648070469281 -25.124219255906283 11.707383215280352 -1 0 0 I I #
coedge $-1 $460 $243 $246 $367 reversed $352 $-1 #
coedge $-1 $243 $460 $358 $464 forward $352 $-1 #
vertex $-1 $244 $468 #
straight-curve $-1 -38.441680902343791 -32.136164746765679 46.737149999371582 0 0 1 I I #
straight-curve $-1 -38.441680902343791 -32.136164746765672 2.0562679317556984 0 -0.5877852410284794 -0.80901700255871778 I I #
edge $-1 $462 -68.708911379533333 $247 -38.441680902343791 $362 $469 forward 7 unknown #
point $-1 -38.441680902343791 -32.136164746765679 11.707383215280352 #
point $-1 -38.441680902343791 -25.124219255906283 11.707383215280352 #
edge $-1 $470 1 $470 0 $250 $-1 forward 7 unknown #
vertex $-1 $251 $471 #
ellipse-curve $-1 -60.061131243193465 -23.97705418448604 3.5011231598906081 0 -0.80901700255871778 0.5877852410284794 2.5 0 0 1 I I #
point $-1 -57.561131243193465 -28.630192001335992 6.8818255735180314 #
edge $-1 $472 1 $472 0 $254 $-1 forward 7 unknown #
vertex $-1 $255 $473 #
ellipse-curve $-1 -47.089461038683659 -23.97705418448604 3.5011231598906081 0 -0.80901700255871778 0.5877852410284794 2.5 0 0 1 I I #
point $-1 -44.589461038683659 -28.630192001335992 6.8818255735180314 #
plane-surface $-1 0 0 11.707383215280352 0 0 1 1 0 0 forward_v I I I I #
coedge $-1 $389 $388 $381 $474 forward $259 $-1 #
coedge $-1 $381 $261 $263 $385 reversed $164 $-1 #
coedge $-1 $261 $380 $379 $474 reversed $164 $-1 #
coedge $-1 $269 $264 $261 $383 forward $270 $-1 #
edge $-1 $386 -53.856928230545194 $475 -46.844982739685797 $382 $476 forward 7 unknown #
coedge $-1 $263 $262 $389 $477 reversed $103 $-1 #
edge $-1 $478 -1.2080531203272332e-014 $386 11.92943442844909 $380 $479 forward 7 unknown #
vertex $-1 $265 $480 #
straight-curve $-1 9.8307858659085454 -25.124219255906283 11.707383215280352 -1 0 0 I I #
coedge $-1 $379 $266 $269 $393 reversed $259 $-1 #
coedge $-1 $266 $379 $384 $477 forward $259 $-1 #
vertex $-1 $267 $481 #
straight-curve $-1 34.795186970411862 -32.136164746765679 46.737149999371582 0 0 1 I I #
straight-curve $-1 34.795186970411862 -32.136164746765672 2.0562679317556984 0 -0.5877852410284794 -0.80901700255871778 I I #
edge $-1 $475 4.5279564932223195 $271 34.795186970411862 $388 $482 forward 7 unknown #
point $-1 34.795186970411862 -32.136164746765679 11.707383215280352 #
point $-1 34.795186970411862 -25.124219255906283 11.707383215280352 #
edge $-1 $483 1 $483 0 $274 $-1 forward 7 unknown #
vertex $-1 $275 $484 #
ellipse-curve $-1 13.175736629562181 -23.97705418448604 3.5011231598906081 0 -0.80901700255871778 0.5877852410284794 2.5 0 0 1 I I #
point $-1 15.675736629562181 -28.630192001335992 6.8818255735180314 #
edge $-1 $485 1 $485 0 $278 $-1 forward 7 unknown #
vertex $-1 $279 $486 #
ellipse-curve $-1 26.147406834072001 -23.97705418448604 3.5011231598906081 0 -0.80901700255871778 0.5877852410284794 2.5 0 0 1 I I #
point $-1 28.647406834072001 -28.630192001335992 6.8818255735180314 #
plane-surface $-1 0 0 11.707383215280352 0 0 1 1 0 0 forward_v I I I I #
coedge $-1 $415 $414 $407 $487 forward $283 $-1 #
coedge $-1 $407 $285 $287 $411 reversed $186 $-1 #
coedge $-1 $285 $406 $405 $487 reversed $186 $-1 #
coedge $-1 $293 $288 $285 $409 forward $294 $-1 #
edge $-1 $412 -31.214865080694516 $488 -24.142594032700636 $408 $489 forward 7 unknown #
coedge $-1 $287 $286 $415 $490 reversed $117 $-1 #
edge $-1 $491 -64.272329493531373 $412 -53.034379375566985 $406 $492 forward 7 unknown #
vertex $-1 $289 $493 #
straight-curve $-1 28.093749957250736 25.0638936987718 11.707383215280352 1 0 0 I I #
coedge $-1 $405 $290 $293 $419 reversed $283 $-1 #
coedge $-1 $290 $405 $410 $490 forward $283 $-1 #
vertex $-1 $291 $494 #
straight-curve $-1 39.704902114042582 32.136164746765679 75.400407587357478 0 0 1 I I #
straight-curve $-1 39.704902114042582 -8.3117221269804276 52.922837404253727 0 0.62932038083071107 -0.77714596973225614 I I #
edge $-1 $488 -72.670097714960363 $295 -39.704902114042582 $414 $495 forward 7 unknown #
point $-1 39.704902114042582 32.136164746765679 11.707383215280352 #
point $-1 39.704902114042582 25.0638936987718 11.707383215280352 #
edge $-1 $496 1 $496 0 $298 $-1 forward 7 unknown #
vertex $-1 $299 $497 #
ellipse-curve $-1 56.187499914501501 24.425125747105891 3.9598493103417738 0 0.77714596973225614 0.62932038083071107 2.5 0 0 1 I I #
point $-1 58.687499914501501 28.600029222768743 7.3406193941662918 #
plane-surface $-1 77.764824365977972 0 0 -1 0 0 0 0 1 forward_v I I I I #
coedge $-1 $307 $305 $309 $431 reversed $201 $-1 #
edge $-1 $320 -11.707383215280352 $433 11.707383215280352 $319 $498 forward 7 unknown #
vertex $-1 $431 $499 #
straight-curve $-1 -77.764824365977972 -32.136164746765679 0 0 0 -1 I I #
edge $-1 $429 -32.136164746765679 $433 32.136164746765679 $427 $500 forward 7 unknown #
straight-curve $-1 0 -32.136164746765679 -11.707383215280352 -1 0 0 I I #
vertex $-1 $312 $501 #
straight-curve $-1 0 32.136164746765679 -11.707383215280352 1 0 0 I I #
point $-1 77.764824365977972 32.136164746765679 -11.707383215280352 #
point $-1 77.764824365977972 -32.136164746765679 -11.707383215280352 #
straight-curve $-1 -77.764824365977972 0 11.707383215280352 0 -1 0 I I #
point $-1 -77.764824365977972 32.136164746765679 11.707383215280352 #
point $-1 -77.764824365977972 -32.136164746765679 11.707383215280352 #
straight-curve $-1 77.764824365977972 -32.136164746765679 0 0 0 -1 I I #
straight-curve $-1 77.764824365977972 32.136164746765679 0 0 0 -1 I I #
plane-surface $-1 0 0 11.707383215280352 0 0 1 1 0 0 forward_v I I I I #
coedge $-1 $334 $331 $336 $450 reversed $220 $-1 #
coedge $-1 $331 $334 $456 $502 reversed $220 $-1 #
edge $-1 $458 -11.707383215280352 $452 11.707383215280352 $348 $503 forward 7 unknown #
edge $-1 $447 -4.5279564932223195 $346 4.5279564932223195 $333 $504 forward 7 unknown #
vertex $-1 $502 $505 #
vertex $-1 $450 $506 #
straight-curve $-1 -86.820737352422611 -27.606156688377656 0 0 0 -1 I I #
edge $-1 $448 -3.2302402084727966 $452 3.2302402084727966 $443 $507 forward 7 unknown #
straight-curve $-1 -82.292780859200292 -27.606156688377656 -11.707383215280352 -1 0 0 I I #
vertex $-1 $338 $508 #
straight-curve $-1 -82.292780859200292 -21.145676271432063 -11.707383215280352 1 0 0 I I #
point $-1 -77.764824365977972 -27.606156688377656 -11.707383215280352 #
straight-curve $-1 -77.764824365977972 -27.606156688377656 0 0 0 -1 I I #
coedge $-1 $344 $343 $444 $502 forward $345 $-1 #
point $-1 -77.764824365977972 -27.606156688377656 11.707383215280352 #
vertex $-1 $349 $509 #
straight-curve $-1 -82.292780859200292 -21.145676271432063 11.707383215280352 -1 0 0 I I #
coedge $-1 $363 $362 $355 $461 forward $352 $-1 #
edge $-1 $462 35.02976678409123 $465 44.68088206761589 $460 $510 forward 7 unknown #
vertex $-1 $367 $511 #
straight-curve $-1 -68.708911379533333 -78.981147486451476 11.707383215280352 0 -1 0 I I #
edge $-1 $465 -41.921263309064052 $364 -11.65403283187451 $363 $512 forward 7 unknown #
vertex $-1 $464 $513 #
straight-curve $-1 -68.708911379533333 -32.136164746765672 2.0562679317556984 0 0.5877852410284794 0.80901700255871778 I I #
point $-1 -68.708911379533333 -25.124219255906283 11.707383215280352 #
point $-1 -38.441680902343791 -32.136164746765679 2.0562679317556887 #
straight-curve $-1 0 -32.136164746765679 11.707383215280352 1 0 0 I I #
vertex $-1 $370 $514 #
point $-1 -57.561131243193465 -23.97705418448604 3.5011231598906081 #
vertex $-1 $374 $515 #
point $-1 -44.589461038683659 -23.97705418448604 3.5011231598906081 #
edge $-1 $475 35.02976678409123 $478 44.68088206761589 $379 $516 forward 7 unknown #
vertex $-1 $393 $517 #
straight-curve $-1 4.5279564932223195 -78.981147486451476 11.707383215280352 0 -1 0 I I #
edge $-1 $478 -5.3028293726862259 $390 24.964401104503317 $389 $518 forward 7 unknown #
vertex $-1 $477 $519 #
straight-curve $-1 4.5279564932223195 -32.136164746765672 2.0562679317556984 0 0.5877852410284794 0.80901700255871778 I I #
point $-1 4.5279564932223195 -25.124219255906283 11.707383215280352 #
point $-1 34.795186970411862 -32.136164746765679 2.0562679317556887 #
straight-curve $-1 0 -32.136164746765679 11.707383215280352 1 0 0 I I #
vertex $-1 $396 $520 #
point $-1 15.675736629562181 -23.97705418448604 3.5011231598906081 #
vertex $-1 $400 $521 #
point $-1 28.647406834072001 -23.97705418448604 3.5011231598906081 #
edge $-1 $488 63.693024372077126 $491 72.426552014305287 $405 $522 forward 7 unknown #
vertex $-1 $419 $523 #
straight-curve $-1 72.670097714960363 56.278758779466315 11.707383215280345 0 1 0 I I #
edge $-1 $491 -44.576347757709627 $416 -11.611152156791846 $415 $524 forward 7 unknown #
vertex $-1 $490 $525 #
straight-curve $-1 72.670097714960363 -8.3117221269804276 52.922837404253727 0 -0.62932038083071107 0.77714596973225614 I I #
point $-1 72.670097714960363 25.0638936987718 11.707383215280352 #
point $-1 39.704902114042582 32.136164746765679 2.9738555730521981 #
straight-curve $-1 0 32.136164746765679 11.707383215280352 -1 0 0 I I #
vertex $-1 $422 $526 #
point $-1 58.687499914501501 24.425125747105891 3.9598493103417738 #
straight-curve $-1 -77.764824365977972 32.136164746765679 0 0 0 -1 I I #
point $-1 -77.764824365977972 -32.136164746765679 -11.707383215280352 #
straight-curve $-1 -77.764824365977972 0 -11.707383215280352 0 1 0 I I #
point $-1 -77.764824365977972 32.136164746765679 -11.707383215280352 #
edge $-1 $458 -3.2302402084727966 $447 3.2302402084727966 $444 $527 forward 7 unknown #
straight-curve $-1 -86.820737352422611 -21.145676271432063 0 0 0 -1 I I #
straight-curve $-1 -82.292780859200292 -27.606156688377656 11.707383215280352 1 0 0 I I #
point $-1 -86.820737352422611 -27.606156688377656 11.707383215280352 #
point $-1 -86.820737352422611 -27.606156688377656 -11.707383215280352 #
straight-curve $-1 -86.820737352422611 -24.375916479904859 -11.707383215280352 0 1 0 I I #
point $-1 -86.820737352422611 -21.145676271432063 -11.707383215280352 #
point $-1 -86.820737352422611 -21.145676271432063 11.707383215280352 #
straight-curve $-1 -68.708911379533333 -32.136164746765679 46.737149999371582 0 0 -1 I I #
point $-1 -68.708911379533333 -32.136164746765679 11.707383215280352 #
straight-curve $-1 -26.787648070469281 -32.136164746765679 2.0562679317556842 1 0 0 I I #
point $-1 -68.708911379533333 -32.136164746765679 2.0562679317556887 #
point $-1 -60.061131243193465 -21.954511678089244 2.0316600573194092 #
point $-1 -47.089461038683659 -21.954511678089244 2.0316600573194092 #
straight-curve $-1 4.5279564932223195 -32.136164746765679 46.737149999371582 0 0 -1 I I #
point $-1 4.5279564932223195 -32.136164746765679 11.707383215280352 #
straight-curve $-1 9.8307858659085454 -32.136164746765679 2.0562679317556842 1 0 0 I I #
point $-1 4.5279564932223195 -32.136164746765679 2.0562679317556887 #
point $-1 13.175736629562181 -21.954511678089244 2.0316600573194092 #
point $-1 26.147406834072001 -21.954511678089244 2.0316600573194092 #
straight-curve $-1 72.670097714960363 32.136164746765679 75.400407587357478 0 0 -1 I I #
point $-1 72.670097714960363 32.136164746765679 11.707383215280352 #
straight-curve $-1 28.093749957250736 32.136164746765679 2.9738555730522052 -1 0 0 I I #
point $-1 72.670097714960363 32.136164746765679 2.9738555730521981 #
point $-1 56.187499914501501 22.482260822775249 2.3865483582649958 #
straight-curve $-1 -86.820737352422611 -24.375916479904859 11.707383215280352 0 -1 0 I I #
End-of-ACIS-data 