500 0 8 0           
7 Unknown 11 ACIS 5.0 NT 24 Fri Mar 26 16:41:53 1999 
-1 9.9999999999999995e-007 1e-010 
body $-1 $8 $-1 $9 #
body $-1 $10 $-1 $11 #
body $-1 $12 $-1 $13 #
body $-1 $14 $-1 $15 #
body $-1 $16 $-1 $17 #
body $-1 $18 $-1 $19 #
body $-1 $20 $-1 $21 #
body $-1 $22 $-1 $23 #
lump $-1 $-1 $24 $0 #
transform $-1 1 0 0 0 1 0 0 0 1 47.72240363780633 32.09141218168412 13.621147846358976 1 rotate no_reflect no_shear #
lump $-1 $-1 $25 $1 #
transform $-1 1 0 0 0 1 0 0 0 1 47.72240363780633 32.09141218168412 13.621147846358976 1 rotate no_reflect no_shear #
lump $-1 $-1 $26 $2 #
transform $-1 1 0 0 0 1 0 0 0 1 47.72240363780633 32.09141218168412 13.621147846358976 1 rotate no_reflect no_shear #
lump $-1 $-1 $27 $3 #
transform $-1 1 0 0 0 1 0 0 0 1 47.72240363780633 32.09141218168412 13.621147846358976 1 rotate no_reflect no_shear #
lump $-1 $-1 $28 $4 #
transform $-1 1 0 0 0 1 0 0 0 1 47.72240363780633 32.09141218168412 13.621147846358976 1 rotate no_reflect no_shear #
lump $-1 $-1 $29 $5 #
transform $-1 1 0 0 0 1 0 0 0 1 47.72240363780633 32.09141218168412 13.621147846358976 1 rotate no_reflect no_shear #
lump $-1 $-1 $30 $6 #
transform $-1 1 0 0 0 1 0 0 0 1 47.72240363780633 32.09141218168412 13.621147846358976 1 rotate no_reflect no_shear #
lump $-1 $-1 $31 $7 #
transform $-1 1 0 0 0 1 0 0 0 1 47.72240363780633 32.09141218168412 13.621147846358976 1 rotate no_reflect no_shear #
shell $-1 $-1 $-1 $32 $-1 $8 #
shell $-1 $-1 $-1 $33 $-1 $10 #
shell $-1 $-1 $-1 $34 $-1 $12 #
shell $-1 $-1 $-1 $35 $-1 $14 #
shell $-1 $-1 $-1 $36 $-1 $16 #
shell $-1 $-1 $-1 $37 $-1 $18 #
shell $-1 $-1 $-1 $38 $-1 $20 #
shell $-1 $-1 $-1 $39 $-1 $22 #
face $-1 $40 $41 $24 $-1 $42 forward single #
face $-1 $43 $44 $25 $-1 $45 forward single #
face $-1 $46 $47 $26 $-1 $48 reversed single #
face $-1 $49 $50 $27 $-1 $51 forward single #
face $-1 $52 $53 $28 $-1 $54 forward single #
face $-1 $55 $56 $29 $-1 $57 forward single #
face $-1 $58 $59 $30 $-1 $60 reversed single #
face $-1 $61 $62 $31 $-1 $63 forward single #
face $-1 $64 $65 $24 $-1 $66 reversed single #
loop $-1 $-1 $67 $32 #
plane-surface $-1 0 0 13.621147846358976 0 0 1 1 0 0 forward_v I I I I #
face $-1 $68 $69 $25 $-1 $70 reversed single #
loop $-1 $-1 $71 $33 #
plane-surface $-1 0 -27.037150317219488 -10.002504332990195 0 0 1 1 0 0 forward_v I I I I #
face $-1 $72 $73 $26 $-1 $74 reversed single #
loop $-1 $-1 $75 $34 #
plane-surface $-1 21.967132364243319 -6.653765681317771 136.47725619405966 0 -1 0 -0.55919291073839883 0 -0.82903756765294845 forward_v I I I I #
face $-1 $76 $77 $27 $-1 $78 forward single #
loop $-1 $79 $80 $35 #
cone-surface $-1 39.740758334733464 -18.91706389846744 7.5641353071776578 -0.55919291073839883 0 -0.82903756765294845 0.82903756765294845 0 -0.55919291073839883 1 I I 0 1 1 forward I I I I #
face $-1 $81 $82 $28 $-1 $83 forward single #
loop $-1 $84 $85 $36 #
cone-surface $-1 39.740758334733464 -14.318327067036314 7.5641353071776578 -0.55919291073839883 0 -0.82903756765294845 0.82903756765294845 0 -0.55919291073839883 1 I I 0 1 1 forward I I I I #
face $-1 $86 $87 $29 $-1 $88 forward single #
loop $-1 $89 $90 $37 #
cone-surface $-1 39.740758334733464 -9.7195902356051889 7.5641353071776578 -0.55919291073839883 0 -0.82903756765294845 0.82903756765294845 0 -0.55919291073839883 1 I I 0 1 1 forward I I I I #
face $-1 $91 $92 $30 $-1 $93 reversed single #
loop $-1 $-1 $94 $38 #
plane-surface $-1 -101.09446323312167 18.284386454182343 89.706664448683156 0 1 0 -0.55919291073839883 0 0.82903756765294845 forward_v I I I I #
face $-1 $95 $96 $31 $-1 $97 forward single #
loop $-1 $98 $99 $39 #
cone-surface $-1 -45.083143400558782 25.18789931793323 11.530310592871 0.55919291073839883 0 -0.82903756765294845 0.82903756765294845 0 0.55919291073839883 1 I I 0 1 1 forward I I I I #
face $-1 $100 $101 $24 $-1 $102 reversed single #
loop $-1 $-1 $103 $40 #
plane-surface $-1 0 0 -13.621147846358976 0 0 1 1 0 0 forward_v I I I I #
coedge $-1 $104 $105 $106 $107 forward $41 $-1 #
face $-1 $108 $109 $25 $-1 $110 reversed single #
loop $-1 $-1 $111 $43 #
plane-surface $-1 0 -21.982888452754857 -11.811826089674586 0 -1 0 0 0 -1 forward_v I I I I #
coedge $-1 $112 $113 $114 $115 reversed $44 $-1 #
face $-1 $116 $117 $26 $-1 $118 reversed single #
loop $-1 $-1 $119 $46 #
plane-surface $-1 -31.404927231072023 -14.318327067036314 57.349925325181317 0.55919291073839883 0 0.82903756765294845 0.82903756765294845 0 -0.55919291073839883 forward_v I I I I #
coedge $-1 $120 $121 $122 $123 reversed $47 $-1 #
face $-1 $-1 $124 $27 $-1 $125 forward single #
loop $-1 $126 $127 $49 #
cone-surface $-1 38.627893278252664 -18.91706389846744 5.9142450424163862 -0.55919291073839883 0 -0.82903756765294845 0.41451878382647422 0 -0.27959645536919941 1 I I -0.70710678118654746 0.70710678118654746 0.5 forward I I I I #
loop $-1 $-1 $128 $35 #
coedge $-1 $80 $80 $129 $130 reversed $50 $-1 #
face $-1 $-1 $131 $28 $-1 $132 forward single #
loop $-1 $133 $134 $52 #
cone-surface $-1 38.627893278252664 -14.318327067036314 5.9142450424163862 -0.55919291073839883 0 -0.82903756765294845 0.41451878382647422 0 -0.27959645536919941 1 I I -0.70710678118654746 0.70710678118654746 0.5 forward I I I I #
loop $-1 $-1 $135 $36 #
coedge $-1 $85 $85 $136 $137 reversed $53 $-1 #
face $-1 $-1 $138 $29 $-1 $139 forward single #
loop $-1 $140 $141 $55 #
cone-surface $-1 38.627893278252664 -9.7195902356051889 5.9142450424163862 -0.55919291073839883 0 -0.82903756765294845 0.41451878382647422 0 -0.27959645536919941 1 I I -0.70710678118654746 0.70710678118654746 0.5 forward I I I I #
loop $-1 $-1 $142 $37 #
coedge $-1 $90 $90 $143 $144 reversed $56 $-1 #
face $-1 $145 $146 $30 $-1 $147 reversed single #
loop $-1 $-1 $148 $58 #
plane-surface $-1 -47.722403637806323 25.18789931793323 10.579333579804796 -0.55919291073839883 0 0.82903756765294845 0.82903756765294845 0 0.55919291073839883 forward_v I I I I #
coedge $-1 $149 $150 $151 $152 reversed $59 $-1 #
face $-1 $-1 $153 $31 $-1 $154 forward single #
loop $-1 $155 $156 $61 #
cone-surface $-1 -44.419124217833001 25.18789931793323 10.545861688833632 0.55919291073839883 0 -0.82903756765294845 0.41451878382647422 0 0.27959645536919941 1 I I -0.70710678118654746 0.70710678118654746 0.5 forward I I I I #
loop $-1 $-1 $157 $39 #
coedge $-1 $99 $99 $158 $159 reversed $62 $-1 #
face $-1 $160 $161 $24 $-1 $162 reversed single #
loop $-1 $-1 $163 $64 #
plane-surface $-1 0 -32.09141218168412 0 0 1 0 0 0 1 forward_v I I I I #
coedge $-1 $164 $165 $166 $167 forward $65 $-1 #
coedge $-1 $168 $67 $169 $170 forward $41 $-1 #
coedge $-1 $67 $168 $171 $172 forward $41 $-1 #
coedge $-1 $173 $174 $67 $107 reversed $175 $-1 #
edge $-1 $176 -32.09141218168412 $177 32.09141218168412 $106 $178 forward 7 unknown #
face $-1 $179 $180 $25 $-1 $181 reversed single #
loop $-1 $-1 $182 $68 #
plane-surface $-1 0 0 -13.621147846358976 0 0 1 1 0 0 forward_v I I I I #
coedge $-1 $183 $184 $185 $186 reversed $69 $-1 #
coedge $-1 $187 $71 $184 $188 forward $44 $-1 #
coedge $-1 $71 $187 $189 $190 reversed $44 $-1 #
coedge $-1 $191 $185 $71 $115 forward $180 $-1 #
edge $-1 $192 8.4643132941451125 $193 18.572837023074378 $114 $194 forward 7 unknown #
face $-1 $195 $196 $26 $-1 $197 reversed single #
loop $-1 $-1 $198 $72 #
plane-surface $-1 21.967132364243319 -21.982888452754857 136.47725619405966 0 1 0 0.55919291073839883 0 0.82903756765294845 forward_v I I I I #
coedge $-1 $199 $200 $201 $202 reversed $73 $-1 #
coedge $-1 $121 $75 $203 $204 reversed $47 $-1 #
coedge $-1 $75 $120 $199 $205 reversed $47 $-1 #
coedge $-1 $201 $206 $75 $123 forward $207 $-1 #
edge $-1 $208 -36.738837455684674 $209 -22.442084051762155 $122 $210 forward 7 unknown #
loop $-1 $-1 $129 $76 #
plane-surface $-1 -31.404927231072023 -14.318327067036314 57.349925325181317 0.55919291073839883 0 0.82903756765294845 0.82903756765294845 0 -0.55919291073839883 forward_v I I I I #
loop $-1 $-1 $211 $49 #
coedge $-1 $127 $127 $128 $212 reversed $77 $-1 #
coedge $-1 $128 $128 $127 $212 forward $79 $-1 #
coedge $-1 $129 $129 $80 $130 forward $124 $-1 #
edge $-1 $213 0 $213 6.2831853071796004 $129 $214 forward 7 unknown #
loop $-1 $-1 $136 $81 #
plane-surface $-1 -31.404927231072023 -14.318327067036314 57.349925325181317 0.55919291073839883 0 0.82903756765294845 0.82903756765294845 0 -0.55919291073839883 forward_v I I I I #
loop $-1 $-1 $215 $52 #
coedge $-1 $134 $134 $135 $216 reversed $82 $-1 #
coedge $-1 $135 $135 $134 $216 forward $84 $-1 #
coedge $-1 $136 $136 $85 $137 forward $131 $-1 #
edge $-1 $217 0 $217 6.2831853071796004 $136 $218 forward 7 unknown #
loop $-1 $-1 $143 $86 #
plane-surface $-1 -31.404927231072023 -14.318327067036314 57.349925325181317 0.55919291073839883 0 0.82903756765294845 0.82903756765294845 0 -0.55919291073839883 forward_v I I I I #
loop $-1 $-1 $219 $55 #
coedge $-1 $141 $141 $142 $220 reversed $87 $-1 #
coedge $-1 $142 $142 $141 $220 forward $89 $-1 #
coedge $-1 $143 $143 $90 $144 forward $138 $-1 #
edge $-1 $221 0 $221 6.2831853071796004 $143 $222 forward 7 unknown #
face $-1 $223 $224 $30 $-1 $225 reversed single #
loop $-1 $-1 $226 $91 #
plane-surface $-1 0 32.09141218168412 0 0 -1 0 0 0 -1 forward_v I I I I #
coedge $-1 $227 $228 $229 $230 reversed $92 $-1 #
coedge $-1 $150 $94 $231 $232 reversed $59 $-1 #
coedge $-1 $94 $149 $227 $233 reversed $59 $-1 #
coedge $-1 $229 $234 $94 $152 forward $235 $-1 #
edge $-1 $236 2.8248279787545059 $237 7.3345029985364647 $151 $238 forward 7 unknown #
loop $-1 $-1 $158 $95 #
plane-surface $-1 -47.722403637806323 25.18789931793323 10.579333579804796 -0.55919291073839883 0 0.82903756765294845 0.82903756765294845 0 0.55919291073839883 forward_v I I I I #
loop $-1 $-1 $239 $61 #
coedge $-1 $156 $156 $157 $240 reversed $96 $-1 #
coedge $-1 $157 $157 $156 $240 forward $98 $-1 #
coedge $-1 $158 $158 $99 $159 forward $153 $-1 #
edge $-1 $241 0 $241 6.2831853071796004 $158 $242 forward 7 unknown #
face $-1 $243 $244 $24 $-1 $245 reversed single #
loop $-1 $-1 $246 $100 #
plane-surface $-1 -47.72240363780633 0 0 1 0 0 0 0 -1 forward_v I I I I #
coedge $-1 $247 $171 $248 $249 forward $101 $-1 #
coedge $-1 $250 $103 $247 $251 forward $65 $-1 #
coedge $-1 $103 $250 $252 $253 forward $65 $-1 #
coedge $-1 $174 $173 $103 $167 reversed $175 $-1 #
edge $-1 $254 -32.09141218168412 $255 32.09141218168412 $166 $256 forward 7 unknown #
coedge $-1 $105 $104 $257 $258 forward $41 $-1 #
coedge $-1 $259 $260 $104 $170 reversed $244 $-1 #
edge $-1 $177 -47.72240363780633 $261 47.72240363780633 $169 $262 forward 7 unknown #
coedge $-1 $163 $263 $105 $172 reversed $101 $-1 #
edge $-1 $264 -47.72240363780633 $176 47.72240363780633 $171 $265 forward 7 unknown #
coedge $-1 $166 $106 $263 $266 forward $175 $-1 #
coedge $-1 $106 $166 $259 $267 reversed $175 $-1 #
loop $-1 $-1 $173 $243 #
vertex $-1 $107 $268 #
vertex $-1 $107 $269 #
straight-curve $-1 47.72240363780633 0 13.621147846358976 0 1 0 I I #
face $-1 $270 $271 $25 $-1 $272 reversed single #
loop $-1 $-1 $185 $108 #
plane-surface $-1 47.72240363780633 0 0 -1 0 0 0 0 1 forward_v I I I I #
coedge $-1 $273 $274 $183 $275 forward $109 $-1 #
coedge $-1 $276 $111 $182 $275 reversed $69 $-1 #
coedge $-1 $111 $276 $112 $188 reversed $69 $-1 #
coedge $-1 $114 $277 $111 $186 forward $180 $-1 #
edge $-1 $278 -7.7152348015216834 $192 -4.0965912881529025 $185 $279 forward 7 unknown #
coedge $-1 $113 $112 $280 $281 reversed $44 $-1 #
edge $-1 $192 -47.72240363780633 $282 47.72240363780633 $184 $283 forward 7 unknown #
coedge $-1 $284 $285 $113 $190 forward $271 $-1 #
edge $-1 $193 -47.72240363780633 $286 47.72240363780633 $189 $287 forward 7 unknown #
coedge $-1 $277 $114 $285 $288 forward $180 $-1 #
vertex $-1 $115 $289 #
vertex $-1 $288 $290 #
straight-curve $-1 47.72240363780633 -13.518575158609744 -10.002504332990195 0 -1 0 I I #
face $-1 $-1 $207 $26 $-1 $291 forward single #
loop $-1 $-1 $292 $116 #
plane-surface $-1 47.72240363780633 0 0 -1 0 0 0 0 1 forward_v I I I I #
coedge $-1 $293 $294 $295 $296 reversed $117 $-1 #
coedge $-1 $297 $119 $121 $205 forward $73 $-1 #
coedge $-1 $119 $297 $293 $298 forward $73 $-1 #
coedge $-1 $295 $122 $119 $202 forward $207 $-1 #
edge $-1 $209 -0.50539785220038613 $299 14.8237249192367 $201 $300 forward 7 unknown #
coedge $-1 $301 $302 $120 $204 forward $196 $-1 #
edge $-1 $303 -64.260762367163863 $208 -54.617480250670852 $203 $304 forward 7 unknown #
edge $-1 $209 78.19980661249744 $303 95.444807275612646 $121 $305 forward 7 unknown #
coedge $-1 $122 $295 $301 $306 forward $207 $-1 #
loop $-1 $-1 $295 $195 #
vertex $-1 $204 $307 #
vertex $-1 $123 $308 #
straight-curve $-1 10.98356618212166 -6.653765681317771 13.62114784635898 -1 0 0 I I #
coedge $-1 $211 $211 $-1 $309 reversed $126 $-1 #
edge $-1 $310 0 $310 6.2831853071796004 $127 $311 forward 7 unknown #
vertex $-1 $130 $312 #
ellipse-curve $-1 40.574026935845076 -18.91706389846744 8.799506788112474 0.55919291073839883 0 0.82903756765294845 0.82903756765294845 0 -0.55919291073839883 1 I I #
coedge $-1 $215 $215 $-1 $313 reversed $133 $-1 #
edge $-1 $314 0 $314 6.2831853071796004 $134 $315 forward 7 unknown #
vertex $-1 $137 $316 #
ellipse-curve $-1 40.574026935845076 -14.318327067036314 8.799506788112474 0.55919291073839883 0 0.82903756765294845 0.82903756765294845 0 -0.55919291073839883 1 I I #
coedge $-1 $219 $219 $-1 $317 reversed $140 $-1 #
edge $-1 $318 0 $318 6.2831853071796004 $141 $319 forward 7 unknown #
vertex $-1 $144 $320 #
ellipse-curve $-1 40.574026935845076 -9.7195902356051889 8.799506788112474 0.55919291073839883 0 0.82903756765294845 0.82903756765294845 0 -0.55919291073839883 1 I I #
face $-1 $-1 $235 $30 $-1 $321 forward single #
loop $-1 $-1 $322 $145 #
plane-surface $-1 -47.72240363780633 0 0 1 0 0 0 0 -1 forward_v I I I I #
coedge $-1 $323 $324 $228 $325 forward $146 $-1 #
coedge $-1 $326 $148 $150 $233 forward $92 $-1 #
coedge $-1 $148 $326 $226 $325 reversed $92 $-1 #
coedge $-1 $327 $151 $148 $230 forward $235 $-1 #
edge $-1 $237 5.690436795215728 $328 19.497462522717505 $229 $329 forward 7 unknown #
coedge $-1 $330 $322 $149 $232 forward $224 $-1 #
edge $-1 $331 -34.273998644536789 $236 -31.232184377982602 $231 $332 forward 7 unknown #
edge $-1 $237 -5.4396509829453112 $331 8.8706446682831169e-015 $150 $333 forward 7 unknown #
coedge $-1 $151 $327 $330 $334 forward $235 $-1 #
loop $-1 $-1 $229 $223 #
vertex $-1 $232 $335 #
vertex $-1 $152 $336 #
straight-curve $-1 -50.547231616560836 18.284386454182343 13.621147846358973 1 0 0 I I #
coedge $-1 $239 $239 $-1 $337 reversed $155 $-1 #
edge $-1 $338 0 $338 6.2831853071796004 $156 $339 forward 7 unknown #
vertex $-1 $159 $340 #
ellipse-curve $-1 -45.467566127915354 25.18789931793323 12.100240713081881 -0.55919291073839883 0 0.82903756765294845 0.82903756765294845 0 0.55919291073839883 1 I I #
face $-1 $-1 $175 $24 $-1 $341 reversed single #
loop $-1 $-1 $259 $160 #
plane-surface $-1 0 32.09141218168412 0 0 -1 0 0 0 -1 forward_v I I I I #
coedge $-1 $342 $257 $260 $343 forward $161 $-1 #
coedge $-1 $263 $163 $164 $251 reversed $101 $-1 #
coedge $-1 $257 $342 $163 $249 reversed $161 $-1 #
edge $-1 $264 -13.621147846358976 $344 13.621147846358976 $248 $345 forward 7 unknown #
coedge $-1 $165 $164 $342 $346 forward $65 $-1 #
edge $-1 $255 -47.72240363780633 $344 47.72240363780633 $247 $347 forward 7 unknown #
coedge $-1 $260 $259 $165 $253 reversed $244 $-1 #
edge $-1 $348 -47.72240363780633 $254 47.72240363780633 $252 $349 forward 7 unknown #
vertex $-1 $167 $350 #
vertex $-1 $266 $351 #
straight-curve $-1 47.72240363780633 0 -13.621147846358976 0 -1 0 I I #
coedge $-1 $246 $248 $168 $258 reversed $161 $-1 #
edge $-1 $261 -32.09141218168412 $264 32.09141218168412 $257 $352 forward 7 unknown #
coedge $-1 $252 $169 $174 $267 forward $244 $-1 #
coedge $-1 $169 $252 $246 $343 reversed $244 $-1 #
vertex $-1 $170 $353 #
straight-curve $-1 0 32.09141218168412 13.621147846358976 -1 0 0 I I #
coedge $-1 $171 $247 $173 $266 reversed $101 $-1 #
vertex $-1 $258 $354 #
straight-curve $-1 0 -32.09141218168412 13.621147846358976 1 0 0 I I #
edge $-1 $176 -13.621147846358976 $255 13.621147846358976 $173 $355 forward 7 unknown #
edge $-1 $177 -13.621147846358976 $254 13.621147846358976 $174 $356 forward 7 unknown #
point $-1 47.72240363780633 -32.09141218168412 13.621147846358976 #
point $-1 47.72240363780633 32.09141218168412 13.621147846358976 #
face $-1 $-1 $357 $25 $-1 $358 reversed single #
loop $-1 $-1 $189 $179 #
plane-surface $-1 0 -32.09141218168412 0 0 1 0 0 0 1 forward_v I I I I #
coedge $-1 $359 $182 $277 $360 forward $109 $-1 #
coedge $-1 $182 $359 $361 $362 forward $109 $-1 #
edge $-1 $363 -47.72240363780633 $278 47.72240363780633 $182 $364 forward 7 unknown #
coedge $-1 $184 $183 $365 $366 reversed $69 $-1 #
coedge $-1 $185 $191 $273 $360 reversed $180 $-1 #
vertex $-1 $360 $367 #
straight-curve $-1 47.72240363780633 -21.982888452754857 -5.905913044837293 0 0 1 I I #
coedge $-1 $365 $368 $187 $281 forward $357 $-1 #
edge $-1 $286 -18.572837023074378 $282 -8.4643132941451125 $280 $369 forward 7 unknown #
vertex $-1 $281 $370 #
straight-curve $-1 0 -21.982888452754857 -10.002504332990195 -1 0 0 I I #
coedge $-1 $371 $189 $368 $372 forward $271 $-1 #
coedge $-1 $189 $371 $191 $288 reversed $271 $-1 #
vertex $-1 $372 $373 #
straight-curve $-1 0 -32.09141218168412 -10.002504332990195 -1 0 0 I I #
edge $-1 $193 10.002504332990195 $374 13.621147846358976 $191 $375 forward 7 unknown #
point $-1 47.72240363780633 -21.982888452754857 -10.002504332990195 #
point $-1 47.72240363780633 -32.09141218168412 -10.002504332990195 #
plane-surface $-1 0 0 13.621147846358976 0 0 1 1 0 0 forward_v I I I I #
coedge $-1 $302 $301 $294 $376 forward $196 $-1 #
coedge $-1 $294 $198 $200 $298 reversed $117 $-1 #
coedge $-1 $198 $293 $292 $376 reversed $117 $-1 #
coedge $-1 $206 $201 $198 $296 forward $207 $-1 #
edge $-1 $299 22.442084051762155 $377 36.738837455684674 $295 $378 forward 7 unknown #
coedge $-1 $200 $199 $302 $379 reversed $73 $-1 #
edge $-1 $380 -95.444807275612646 $299 -78.19980661249744 $293 $381 forward 7 unknown #
vertex $-1 $202 $382 #
straight-curve $-1 33.425650233883829 -7.1591635335181572 13.621147846358973 0 -1 0 I I #
coedge $-1 $292 $203 $206 $306 reversed $196 $-1 #
coedge $-1 $203 $292 $297 $379 forward $196 $-1 #
vertex $-1 $204 $383 #
straight-curve $-1 47.72240363780633 -6.653765681317771 68.238628097029832 0 0 1 I I #
straight-curve $-1 -31.404927231072023 -6.653765681317771 57.349925325181317 0.82903756765294845 0 -0.55919291073839883 I I #
edge $-1 $377 -21.982888452754857 $208 -6.653765681317771 $301 $384 forward 7 unknown #
point $-1 47.72240363780633 -6.653765681317771 13.621147846358976 #
point $-1 33.425650233883815 -6.653765681317771 13.62114784635898 #
edge $-1 $385 1 $385 0 $211 $-1 forward 7 unknown #
vertex $-1 $212 $386 #
ellipse-curve $-1 38.907489733621865 -18.91706389846744 6.3287638262428603 0.55919291073839883 0 0.82903756765294845 0.82903756765294845 0 -0.55919291073839883 1 I I #
point $-1 41.403064503498015 -18.91706389846744 8.2403138773740565 #
edge $-1 $387 1 $387 0 $215 $-1 forward 7 unknown #
vertex $-1 $216 $388 #
ellipse-curve $-1 38.907489733621865 -14.318327067036314 6.3287638262428603 0.55919291073839883 0 0.82903756765294845 0.82903756765294845 0 -0.55919291073839883 1 I I #
point $-1 41.403064503498015 -14.318327067036314 8.2403138773740565 #
edge $-1 $389 1 $389 0 $219 $-1 forward 7 unknown #
vertex $-1 $220 $390 #
ellipse-curve $-1 38.907489733621865 -9.7195902356051889 6.3287638262428603 0.55919291073839883 0 0.82903756765294845 0.82903756765294845 0 -0.55919291073839883 1 I I #
point $-1 41.403064503498015 -9.7195902356051889 8.2403138773740565 #
plane-surface $-1 0 0 13.621147846358976 0 0 1 1 0 0 forward_v I I I I #
coedge $-1 $231 $391 $326 $392 forward $224 $-1 #
coedge $-1 $324 $226 $391 $393 reversed $146 $-1 #
coedge $-1 $226 $323 $327 $394 reversed $146 $-1 #
edge $-1 $328 11.384237565192512 $395 16.82388854813783 $226 $396 forward 7 unknown #
coedge $-1 $228 $227 $322 $392 reversed $92 $-1 #
coedge $-1 $234 $229 $324 $394 forward $235 $-1 #
vertex $-1 $394 $397 #
straight-curve $-1 -43.212728618024371 12.593949658966615 13.621147846358976 0 1 0 I I #
coedge $-1 $391 $231 $234 $334 reversed $224 $-1 #
vertex $-1 $232 $398 #
straight-curve $-1 -47.72240363780633 18.284386454182343 44.853332224341578 0 0 1 I I #
straight-curve $-1 -47.722403637806323 18.284386454182343 10.579333579804796 -0.82903756765294845 0 -0.55919291073839883 I I #
edge $-1 $399 -32.09141218168412 $236 -18.284386454182343 $330 $400 forward 7 unknown #
point $-1 -47.72240363780633 18.284386454182343 13.621147846358976 #
point $-1 -43.212728618024371 18.284386454182343 13.621147846358976 #
edge $-1 $401 1 $401 0 $239 $-1 forward 7 unknown #
vertex $-1 $240 $402 #
ellipse-curve $-1 -44.698720673202203 25.18789931793323 10.960380472660107 -0.55919291073839883 0 0.82903756765294845 0.82903756765294845 0 0.55919291073839883 1 I I #
point $-1 -44.638528560262422 25.18789931793323 12.659433623820291 #
plane-surface $-1 47.72240363780633 0 0 -1 0 0 0 0 1 forward_v I I I I #
coedge $-1 $248 $246 $250 $346 reversed $161 $-1 #
edge $-1 $261 -13.621147846358976 $348 13.621147846358976 $260 $403 forward 7 unknown #
vertex $-1 $346 $404 #
straight-curve $-1 -47.72240363780633 -32.09141218168412 0 0 0 -1 I I #
edge $-1 $344 -32.09141218168412 $348 32.09141218168412 $342 $405 forward 7 unknown #
straight-curve $-1 0 -32.09141218168412 -13.621147846358976 -1 0 0 I I #
vertex $-1 $253 $406 #
straight-curve $-1 0 32.09141218168412 -13.621147846358976 1 0 0 I I #
point $-1 47.72240363780633 32.09141218168412 -13.621147846358976 #
point $-1 47.72240363780633 -32.09141218168412 -13.621147846358976 #
straight-curve $-1 -47.72240363780633 0 13.621147846358976 0 -1 0 I I #
point $-1 -47.72240363780633 32.09141218168412 13.621147846358976 #
point $-1 -47.72240363780633 -32.09141218168412 13.621147846358976 #
straight-curve $-1 47.72240363780633 -32.09141218168412 0 0 0 -1 I I #
straight-curve $-1 47.72240363780633 32.09141218168412 0 0 0 -1 I I #
loop $-1 $-1 $365 $270 #
plane-surface $-1 -47.72240363780633 0 0 1 0 0 0 0 -1 forward_v I I I I #
coedge $-1 $274 $273 $371 $407 forward $109 $-1 #
edge $-1 $278 21.982888452754857 $374 32.09141218168412 $277 $408 forward 7 unknown #
coedge $-1 $368 $365 $274 $362 reversed $357 $-1 #
edge $-1 $409 -32.09141218168412 $363 -21.982888452754857 $361 $410 forward 7 unknown #
vertex $-1 $366 $411 #
straight-curve $-1 0 -21.982888452754857 -13.621147846358976 1 0 0 I I #
coedge $-1 $361 $280 $276 $366 forward $357 $-1 #
edge $-1 $282 4.0965912881529025 $363 7.7152348015216834 $365 $412 forward 7 unknown #
point $-1 47.72240363780633 -21.982888452754857 -13.621147846358976 #
coedge $-1 $280 $361 $284 $372 reversed $357 $-1 #
straight-curve $-1 -47.72240363780633 -13.518575158609744 -10.002504332990195 0 1 0 I I #
point $-1 -47.72240363780633 -21.982888452754857 -10.002504332990195 #
coedge $-1 $285 $284 $359 $407 reversed $271 $-1 #
edge $-1 $286 10.002504332990195 $409 13.621147846358976 $368 $413 forward 7 unknown #
point $-1 -47.72240363780633 -32.09141218168412 -10.002504332990195 #
vertex $-1 $288 $414 #
straight-curve $-1 47.72240363780633 -32.09141218168412 0 0 0 -1 I I #
edge $-1 $377 54.617480250670852 $380 64.260762367163863 $292 $415 forward 7 unknown #
vertex $-1 $306 $416 #
straight-curve $-1 10.98356618212166 -21.982888452754857 13.62114784635898 1 0 0 I I #
edge $-1 $380 -14.8237249192367 $303 0.50539785220038613 $302 $417 forward 7 unknown #
vertex $-1 $379 $418 #
straight-curve $-1 -31.404927231072023 -21.982888452754857 57.349925325181317 -0.82903756765294845 0 0.55919291073839883 I I #
point $-1 33.425650233883815 -21.982888452754857 13.62114784635898 #
point $-1 47.722403637806323 -6.653765681317771 3.9778657298659752 #
straight-curve $-1 47.72240363780633 0 13.621147846358976 0 1 0 I I #
vertex $-1 $309 $419 #
point $-1 39.736527301274812 -18.91706389846744 5.7695709155044614 #
vertex $-1 $313 $420 #
point $-1 39.736527301274812 -14.318327067036314 5.7695709155044614 #
vertex $-1 $317 $421 #
point $-1 39.736527301274812 -9.7195902356051889 5.7695709155044614 #
coedge $-1 $322 $330 $323 $393 forward $224 $-1 #
edge $-1 $395 -19.497462522717505 $331 -5.690436795215728 $322 $422 forward 7 unknown #
edge $-1 $399 -13.621147846358976 $395 -10.579333579804791 $323 $423 forward 7 unknown #
edge $-1 $328 43.212728618024371 $399 47.72240363780633 $324 $424 forward 7 unknown #
vertex $-1 $325 $425 #
straight-curve $-1 -33.774767997393845 32.09141218168412 19.987132786976396 -0.82903756765294845 0 -0.55919291073839883 I I #
point $-1 -43.212728618024371 32.09141218168412 13.621147846358976 #
point $-1 -47.72240363780633 18.284386454182343 10.579333579804791 #
vertex $-1 $394 $426 #
straight-curve $-1 -47.72240363780633 0 13.621147846358976 0 -1 0 I I #
vertex $-1 $337 $427 #
point $-1 -43.86968310554925 25.18789931793323 11.519573383398505 #
straight-curve $-1 -47.72240363780633 32.09141218168412 0 0 0 -1 I I #
point $-1 -47.72240363780633 -32.09141218168412 -13.621147846358976 #
straight-curve $-1 -47.72240363780633 0 -13.621147846358976 0 1 0 I I #
point $-1 -47.72240363780633 32.09141218168412 -13.621147846358976 #
edge $-1 $374 -47.72240363780633 $409 47.72240363780633 $371 $428 forward 7 unknown #
straight-curve $-1 47.72240363780633 0 -13.621147846358976 0 -1 0 I I #
vertex $-1 $362 $429 #
straight-curve $-1 -47.72240363780633 0 -13.621147846358976 0 1 0 I I #
point $-1 -47.72240363780633 -21.982888452754857 -13.621147846358976 #
straight-curve $-1 -47.72240363780633 -21.982888452754857 -5.905913044837293 0 0 -1 I I #
straight-curve $-1 -47.72240363780633 -32.09141218168412 0 0 0 -1 I I #
point $-1 47.72240363780633 -32.09141218168412 -13.621147846358976 #
straight-curve $-1 47.72240363780633 -21.982888452754857 68.238628097029832 0 0 -1 I I #
point $-1 47.72240363780633 -21.982888452754857 13.621147846358976 #
straight-curve $-1 47.722403637806337 -7.1591635335181572 3.9778657298659716 0 1 0 I I #
point $-1 47.722403637806323 -21.982888452754857 3.9778657298659752 #
point $-1 38.348296822883462 -18.91706389846744 5.499726258589912 #
point $-1 38.348296822883462 -14.318327067036314 5.499726258589912 #
point $-1 38.348296822883462 -9.7195902356051889 5.499726258589912 #
straight-curve $-1 -47.72240363780633 12.593949658966615 10.579333579804789 0 -1 0 I I #
straight-curve $-1 -47.72240363780633 32.09141218168412 0 0 0 -1 I I #
straight-curve $-1 0 32.09141218168412 13.621147846358976 -1 0 0 I I #
point $-1 -47.72240363780633 32.09141218168412 10.579333579804791 #
point $-1 -47.72240363780633 32.09141218168412 13.621147846358976 #
point $-1 -44.1395277624638 25.18789931793323 10.131342905007157 #
straight-curve $-1 0 -32.09141218168412 -13.621147846358976 -1 0 0 I I #
point $-1 -47.72240363780633 -32.09141218168412 -13.621147846358976 #
End-of-ACIS-data 