500 0 9 0           
7 Unknown 11 ACIS 5.0 NT 24 Thu Mar 25 15:57:13 1999 
-1 9.9999999999999995e-007 1e-010 
body $-1 $9 $-1 $10 #
body $-1 $11 $-1 $12 #
body $-1 $13 $-1 $14 #
body $-1 $15 $-1 $16 #
body $-1 $17 $-1 $18 #
body $-1 $19 $-1 $20 #
body $-1 $21 $-1 $22 #
body $-1 $23 $-1 $24 #
body $-1 $25 $-1 $26 #
lump $-1 $-1 $27 $0 #
transform $-1 1 0 0 0 1 0 0 0 1 68.745994445631283 35.495650551709261 15.67963789118947 1 rotate no_reflect no_shear #
lump $-1 $-1 $28 $1 #
transform $-1 1 0 0 0 1 0 0 0 1 68.745994445631283 35.495650551709261 15.67963789118947 1 rotate no_reflect no_shear #
lump $-1 $-1 $29 $2 #
transform $-1 1 0 0 0 1 0 0 0 1 68.745994445631283 35.495650551709261 15.67963789118947 1 rotate no_reflect no_shear #
lump $-1 $-1 $30 $3 #
transform $-1 1 0 0 0 1 0 0 0 1 68.745994445631283 35.495650551709261 15.67963789118947 1 rotate no_reflect no_shear #
lump $-1 $-1 $31 $4 #
transform $-1 1 0 0 0 1 0 0 0 1 68.745994445631283 35.495650551709261 15.67963789118947 1 rotate no_reflect no_shear #
lump $-1 $-1 $32 $5 #
transform $-1 1 0 0 0 1 0 0 0 1 68.745994445631283 35.495650551709261 15.67963789118947 1 rotate no_reflect no_shear #
lump $-1 $-1 $33 $6 #
transform $-1 1 0 0 0 1 0 0 0 1 68.745994445631283 35.495650551709261 15.67963789118947 1 rotate no_reflect no_shear #
lump $-1 $-1 $34 $7 #
transform $-1 1 0 0 0 1 0 0 0 1 68.745994445631283 35.495650551709261 15.67963789118947 1 rotate no_reflect no_shear #
lump $-1 $-1 $35 $8 #
transform $-1 1 0 0 0 1 0 0 0 1 68.745994445631283 35.495650551709261 15.67963789118947 1 rotate no_reflect no_shear #
shell $-1 $-1 $-1 $36 $-1 $9 #
shell $-1 $-1 $-1 $37 $-1 $11 #
shell $-1 $-1 $-1 $38 $-1 $13 #
shell $-1 $-1 $-1 $39 $-1 $15 #
shell $-1 $-1 $-1 $40 $-1 $17 #
shell $-1 $-1 $-1 $41 $-1 $19 #
shell $-1 $-1 $-1 $42 $-1 $21 #
shell $-1 $-1 $-1 $43 $-1 $23 #
shell $-1 $-1 $-1 $44 $-1 $25 #
face $-1 $45 $46 $27 $-1 $47 forward single #
face $-1 $48 $49 $28 $-1 $50 reversed single #
face $-1 $51 $52 $29 $-1 $53 reversed single #
face $-1 $54 $55 $30 $-1 $56 forward single #
face $-1 $57 $58 $31 $-1 $59 forward single #
face $-1 $60 $61 $32 $-1 $62 forward single #
face $-1 $63 $64 $33 $-1 $65 reversed single #
face $-1 $66 $67 $34 $-1 $68 forward single #
face $-1 $69 $70 $35 $-1 $71 forward single #
face $-1 $72 $73 $27 $-1 $74 reversed single #
loop $-1 $-1 $75 $36 #
plane-surface $-1 0 0 15.67963789118947 0 0 1 1 0 0 forward_v I I I I #
face $-1 $76 $77 $28 $-1 $78 reversed single #
loop $-1 $-1 $79 $37 #
plane-surface $-1 -63.462597213479185 0 11.429334852244095 0 0 1 1 0 0 forward_v I I I I #
face $-1 $80 $81 $29 $-1 $82 reversed single #
loop $-1 $-1 $83 $38 #
plane-surface $-1 54.074275561654446 -35.495650551709247 9.4364955477933847 0 -0.85716730853699208 0.51503806187062418 1 0 0 forward_v I I I I #
face $-1 $84 $85 $30 $-1 $86 forward single #
loop $-1 $87 $88 $39 #
cone-surface $-1 45.271244231268355 -31.563828336801159 11.322581307379547 0 0.85716730853699208 -0.51503806187062418 1.5 0 0 1 I I 0 1 1.5 forward I I I I #
face $-1 $89 $90 $31 $-1 $91 forward single #
loop $-1 $92 $93 $40 #
cone-surface $-1 54.07427556165446 -31.563828336801159 11.322581307379547 0 0.85716730853699208 -0.51503806187062418 1.5 0 0 1 I I 0 1 1.5 forward I I I I #
face $-1 $94 $95 $32 $-1 $96 forward single #
loop $-1 $97 $98 $41 #
cone-surface $-1 62.877306892040565 -31.563828336801159 11.322581307379547 0 0.85716730853699208 -0.51503806187062418 1.5 0 0 1 I I 0 1 1.5 forward I I I I #
face $-1 $99 $100 $33 $-1 $101 reversed single #
loop $-1 $-1 $102 $42 #
plane-surface $-1 53.959617956288142 -13.819050383882683 61.378289304892007 0 0.71933980857756763 0.69465836192734942 1 0 0 forward_v I I I I #
face $-1 $103 $104 $34 $-1 $105 forward single #
loop $-1 $106 $107 $43 #
cone-surface $-1 47.622599460855369 32.05229263471567 12.17339553691283 0 -0.71933980857756763 -0.69465836192734942 1 0 0 1 I I 0 1 1 forward I I I I #
face $-1 $108 $109 $35 $-1 $110 forward single #
loop $-1 $111 $112 $44 #
cone-surface $-1 60.296636451720929 32.05229263471567 12.17339553691283 0 -0.71933980857756763 -0.69465836192734942 1 0 0 1 I I 0 1 1 forward I I I I #
face $-1 $113 $114 $27 $-1 $115 reversed single #
loop $-1 $-1 $116 $45 #
plane-surface $-1 0 0 -15.67963789118947 0 0 1 1 0 0 forward_v I I I I #
coedge $-1 $117 $118 $119 $120 forward $46 $-1 #
face $-1 $121 $122 $28 $-1 $123 reversed single #
loop $-1 $-1 $124 $48 #
plane-surface $-1 -58.179199981327088 0 13.554486371716783 -1 0 0 0 0 1 forward_v I I I I #
coedge $-1 $125 $126 $127 $128 forward $49 $-1 #
face $-1 $129 $130 $29 $-1 $131 reversed single #
loop $-1 $-1 $132 $51 #
plane-surface $-1 39.402556677677616 -153.34928861503079 80.250103029086645 1 0 0 0 0.85716730853699208 -0.51503806187062418 forward_v I I I I #
coedge $-1 $133 $134 $135 $136 reversed $52 $-1 #
face $-1 $-1 $137 $30 $-1 $138 forward single #
loop $-1 $139 $140 $54 #
cone-surface $-1 45.271244231268355 -28.864759762425248 9.7008173488646907 0 0.85716730853699208 -0.51503806187062418 0.75 0 0 1 I I -0.70710678118654757 0.70710678118654757 0.75 forward I I I I #
loop $-1 $-1 $141 $39 #
coedge $-1 $88 $88 $142 $143 reversed $55 $-1 #
face $-1 $-1 $144 $31 $-1 $145 forward single #
loop $-1 $146 $147 $57 #
cone-surface $-1 54.07427556165446 -28.864759762425248 9.7008173488646907 0 0.85716730853699208 -0.51503806187062418 0.75 0 0 1 I I -0.70710678118654757 0.70710678118654757 0.75 forward I I I I #
loop $-1 $-1 $148 $40 #
coedge $-1 $93 $93 $149 $150 reversed $58 $-1 #
face $-1 $-1 $151 $32 $-1 $152 forward single #
loop $-1 $153 $154 $60 #
cone-surface $-1 62.877306892040565 -28.864759762425248 9.7008173488646907 0 0.85716730853699208 -0.51503806187062418 0.75 0 0 1 I I -0.70710678118654757 0.70710678118654757 0.75 forward I I I I #
loop $-1 $-1 $155 $41 #
coedge $-1 $98 $98 $156 $157 reversed $61 $-1 #
face $-1 $158 $159 $33 $-1 $160 forward single #
loop $-1 $-1 $161 $63 #
plane-surface $-1 39.173241466945001 85.084410586107182 156.88824908622979 1 0 0 0 -0.71933980857756763 -0.69465836192734942 forward_v I I I I #
coedge $-1 $162 $163 $164 $165 reversed $64 $-1 #
face $-1 $-1 $166 $34 $-1 $167 forward single #
loop $-1 $168 $169 $66 #
cone-surface $-1 47.622599460855369 30.841278457938159 11.003932768024031 0 -0.71933980857756763 -0.69465836192734942 0.5 0 0 1 I I -0.70710678118654746 0.70710678118654746 0.5 forward I I I I #
loop $-1 $-1 $170 $43 #
coedge $-1 $107 $107 $171 $172 reversed $67 $-1 #
face $-1 $-1 $173 $35 $-1 $174 forward single #
loop $-1 $175 $176 $69 #
cone-surface $-1 60.296636451720929 30.841278457938159 11.003932768024031 0 -0.71933980857756763 -0.69465836192734942 0.5 0 0 1 I I -0.70710678118654746 0.70710678118654746 0.5 forward I I I I #
loop $-1 $-1 $177 $44 #
coedge $-1 $112 $112 $178 $179 reversed $70 $-1 #
face $-1 $180 $181 $27 $-1 $182 reversed single #
loop $-1 $-1 $183 $72 #
plane-surface $-1 0 -35.495650551709261 0 0 1 0 0 0 1 forward_v I I I I #
coedge $-1 $184 $185 $186 $187 forward $73 $-1 #
coedge $-1 $188 $75 $189 $190 forward $46 $-1 #
coedge $-1 $75 $188 $191 $192 forward $46 $-1 #
coedge $-1 $193 $194 $75 $120 reversed $195 $-1 #
edge $-1 $196 -35.495650551709261 $197 35.495650551709261 $119 $198 forward 7 unknown #
face $-1 $199 $200 $28 $-1 $201 reversed single #
loop $-1 $-1 $202 $76 #
plane-surface $-1 0 35.495650551709261 0 0 -1 0 0 0 -1 forward_v I I I I #
coedge $-1 $127 $203 $204 $205 reversed $77 $-1 #
coedge $-1 $206 $79 $207 $208 reversed $49 $-1 #
coedge $-1 $79 $206 $209 $210 reversed $49 $-1 #
coedge $-1 $211 $124 $79 $128 reversed $77 $-1 #
edge $-1 $212 -35.495650551709261 $213 35.495650551709261 $127 $214 forward 7 unknown #
face $-1 $215 $216 $29 $-1 $217 forward single #
loop $-1 $-1 $218 $80 #
plane-surface $-1 68.745994445631283 0 0 -1 0 0 0 0 1 forward_v I I I I #
coedge $-1 $219 $220 $221 $222 reversed $81 $-1 #
coedge $-1 $223 $83 $218 $224 reversed $52 $-1 #
coedge $-1 $83 $223 $219 $225 forward $52 $-1 #
coedge $-1 $221 $226 $83 $136 forward $216 $-1 #
edge $-1 $227 -41.70885666480406 $228 -12.365418896850393 $135 $229 forward 7 unknown #
loop $-1 $-1 $142 $84 #
plane-surface $-1 54.074275561654446 -35.495650551709247 9.4364955477933847 0 -0.85716730853699208 0.51503806187062418 1 0 0 forward_v I I I I #
loop $-1 $-1 $230 $54 #
coedge $-1 $140 $140 $141 $231 reversed $85 $-1 #
coedge $-1 $141 $141 $140 $231 forward $87 $-1 #
coedge $-1 $142 $142 $88 $143 forward $137 $-1 #
edge $-1 $232 1.2111193307581884e-015 $232 6.2831853071796013 $142 $233 forward 7 unknown #
loop $-1 $-1 $149 $89 #
plane-surface $-1 54.074275561654446 -35.495650551709247 9.4364955477933847 0 -0.85716730853699208 0.51503806187062418 1 0 0 forward_v I I I I #
loop $-1 $-1 $234 $57 #
coedge $-1 $147 $147 $148 $235 reversed $90 $-1 #
coedge $-1 $148 $148 $147 $235 forward $92 $-1 #
coedge $-1 $149 $149 $93 $150 forward $144 $-1 #
edge $-1 $236 1.2111193307581884e-015 $236 6.2831853071796013 $149 $237 forward 7 unknown #
loop $-1 $-1 $156 $94 #
plane-surface $-1 54.074275561654446 -35.495650551709247 9.4364955477933847 0 -0.85716730853699208 0.51503806187062418 1 0 0 forward_v I I I I #
loop $-1 $-1 $238 $60 #
coedge $-1 $154 $154 $155 $239 reversed $95 $-1 #
coedge $-1 $155 $155 $154 $239 forward $97 $-1 #
coedge $-1 $156 $156 $98 $157 forward $151 $-1 #
edge $-1 $240 1.2111193307581884e-015 $240 6.2831853071796013 $156 $241 forward 7 unknown #
face $-1 $242 $243 $33 $-1 $244 reversed single #
loop $-1 $-1 $245 $99 #
plane-surface $-1 0 0 15.67963789118947 0 0 1 1 0 0 forward_v I I I I #
coedge $-1 $246 $247 $248 $249 reversed $100 $-1 #
coedge $-1 $250 $102 $251 $252 reversed $64 $-1 #
coedge $-1 $102 $250 $246 $253 forward $64 $-1 #
coedge $-1 $248 $254 $102 $165 forward $255 $-1 #
edge $-1 $256 -41.766185467487212 $257 -12.19343248880093 $164 $258 forward 7 unknown #
loop $-1 $-1 $171 $103 #
plane-surface $-1 53.959617956288142 -13.819050383882683 61.378289304892007 0 0.71933980857756763 0.69465836192734942 1 0 0 forward_v I I I I #
loop $-1 $-1 $259 $66 #
coedge $-1 $169 $169 $170 $260 reversed $104 $-1 #
coedge $-1 $170 $170 $169 $260 forward $106 $-1 #
coedge $-1 $171 $171 $107 $172 forward $166 $-1 #
edge $-1 $261 -1.1024319625659993e-015 $261 6.2831853071795996 $171 $262 forward 7 unknown #
loop $-1 $-1 $178 $108 #
plane-surface $-1 53.959617956288142 -13.819050383882683 61.378289304892007 0 0.71933980857756763 0.69465836192734942 1 0 0 forward_v I I I I #
loop $-1 $-1 $263 $69 #
coedge $-1 $176 $176 $177 $264 reversed $109 $-1 #
coedge $-1 $177 $177 $176 $264 forward $111 $-1 #
coedge $-1 $178 $178 $112 $179 forward $173 $-1 #
edge $-1 $265 -1.1024319625659993e-015 $265 6.2831853071795996 $178 $266 forward 7 unknown #
face $-1 $267 $268 $27 $-1 $269 reversed single #
loop $-1 $-1 $270 $113 #
plane-surface $-1 -68.745994445631283 0 0 1 0 0 0 0 -1 forward_v I I I I #
coedge $-1 $271 $191 $272 $273 forward $114 $-1 #
coedge $-1 $274 $116 $271 $275 forward $73 $-1 #
coedge $-1 $116 $274 $276 $277 forward $73 $-1 #
coedge $-1 $194 $193 $116 $187 reversed $195 $-1 #
edge $-1 $278 -35.495650551709261 $279 35.495650551709261 $186 $280 forward 7 unknown #
coedge $-1 $118 $117 $281 $282 forward $46 $-1 #
coedge $-1 $283 $284 $117 $190 reversed $268 $-1 #
edge $-1 $197 -68.745994445631283 $285 68.745994445631283 $189 $286 forward 7 unknown #
coedge $-1 $183 $287 $118 $192 reversed $114 $-1 #
edge $-1 $288 -68.745994445631283 $196 68.745994445631283 $191 $289 forward 7 unknown #
coedge $-1 $186 $119 $287 $290 forward $195 $-1 #
coedge $-1 $119 $186 $283 $291 reversed $195 $-1 #
loop $-1 $-1 $193 $267 #
vertex $-1 $120 $292 #
vertex $-1 $120 $293 #
straight-curve $-1 68.745994445631283 0 15.67963789118947 0 1 0 I I #
face $-1 $294 $295 $28 $-1 $296 forward single #
loop $-1 $-1 $297 $121 #
plane-surface $-1 -68.745994445631283 0 0 1 0 0 0 0 -1 forward_v I I I I #
coedge $-1 $209 $298 $211 $299 forward $122 $-1 #
coedge $-1 $124 $211 $300 $301 reversed $77 $-1 #
coedge $-1 $302 $207 $124 $205 forward $303 $-1 #
edge $-1 $213 4.6520916663857035 $304 8.9023947053310799 $204 $305 forward 7 unknown #
coedge $-1 $126 $125 $297 $306 reversed $49 $-1 #
coedge $-1 $204 $307 $125 $208 forward $303 $-1 #
edge $-1 $308 -37.01469583889169 $213 -26.447901374587495 $207 $309 forward 7 unknown #
coedge $-1 $310 $202 $126 $210 forward $122 $-1 #
edge $-1 $212 26.447901374587495 $311 37.01469583889169 $209 $312 forward 7 unknown #
coedge $-1 $203 $127 $202 $299 reversed $77 $-1 #
vertex $-1 $210 $313 #
vertex $-1 $208 $314 #
straight-curve $-1 -58.179199981327088 0 11.429334852244095 0 -1 0 I I #
face $-1 $-1 $315 $29 $-1 $316 reversed single #
loop $-1 $-1 $135 $129 #
plane-surface $-1 0 0 15.67963789118947 0 0 1 1 0 0 forward_v I I I I #
coedge $-1 $317 $318 $133 $224 forward $130 $-1 #
coedge $-1 $220 $132 $134 $225 reversed $81 $-1 #
coedge $-1 $132 $219 $319 $320 reversed $81 $-1 #
coedge $-1 $321 $135 $132 $222 forward $216 $-1 #
edge $-1 $228 -44.930251999676024 $322 -41.178993755806133 $221 $323 forward 7 unknown #
coedge $-1 $134 $133 $324 $325 reversed $52 $-1 #
edge $-1 $326 -5.0964777871329892 $227 2.1869805076681339 $218 $327 forward 7 unknown #
edge $-1 $328 -2.7113386213432547e-014 $228 7.2834582948010969 $219 $329 forward 7 unknown #
coedge $-1 $135 $321 $317 $330 forward $216 $-1 #
vertex $-1 $136 $331 #
vertex $-1 $136 $332 #
straight-curve $-1 27.037137780827223 -31.744392307839366 15.67963789118947 -1 0 0 I I #
coedge $-1 $230 $230 $-1 $333 reversed $139 $-1 #
edge $-1 $334 0 $334 6.2831853071796004 $140 $335 forward 7 unknown #
vertex $-1 $143 $336 #
ellipse-curve $-1 45.271244231268355 -33.620021429774312 12.558066719491425 0 -0.85716730853699208 0.51503806187062418 1.5 0 0 1 I I #
coedge $-1 $234 $234 $-1 $337 reversed $146 $-1 #
edge $-1 $338 0 $338 6.2831853071796004 $147 $339 forward 7 unknown #
vertex $-1 $150 $340 #
ellipse-curve $-1 54.07427556165446 -33.620021429774312 12.558066719491425 0 -0.85716730853699208 0.51503806187062418 1.5 0 0 1 I I #
coedge $-1 $238 $238 $-1 $341 reversed $153 $-1 #
edge $-1 $342 0 $342 6.2831853071796004 $154 $343 forward 7 unknown #
vertex $-1 $157 $344 #
ellipse-curve $-1 62.877306892040565 -33.620021429774312 12.558066719491425 0 -0.85716730853699208 0.51503806187062418 1.5 0 0 1 I I #
face $-1 $-1 $255 $33 $-1 $345 reversed single #
loop $-1 $-1 $251 $158 #
plane-surface $-1 68.745994445631283 0 0 -1 0 0 0 0 1 forward_v I I I I #
coedge $-1 $346 $347 $247 $348 forward $159 $-1 #
coedge $-1 $247 $161 $163 $253 reversed $100 $-1 #
coedge $-1 $161 $246 $245 $348 reversed $100 $-1 #
coedge $-1 $349 $164 $161 $249 forward $255 $-1 #
edge $-1 $257 -68.132704184628437 $350 -62.764486651925424 $248 $351 forward 7 unknown #
coedge $-1 $163 $162 $346 $352 reversed $64 $-1 #
coedge $-1 $353 $354 $162 $252 forward $243 $-1 #
edge $-1 $355 36.652917735041498 $256 44.115618212189005 $251 $356 forward 7 unknown #
edge $-1 $357 63.528600626271015 $257 70.991301103418522 $246 $358 forward 7 unknown #
coedge $-1 $164 $349 $353 $359 forward $255 $-1 #
loop $-1 $-1 $248 $242 #
vertex $-1 $252 $360 #
vertex $-1 $165 $361 #
straight-curve $-1 26.979808978144071 35.495650551709261 10.311420358486462 -1 0 0 I I #
coedge $-1 $259 $259 $-1 $362 reversed $168 $-1 #
edge $-1 $363 0 $363 6.2831853071796004 $169 $364 forward 7 unknown #
vertex $-1 $172 $365 #
ellipse-curve $-1 47.622599460855369 32.903636907204401 12.995529124837962 0 0.71933980857756763 0.69465836192734942 1 0 0 1 I I #
coedge $-1 $263 $263 $-1 $366 reversed $175 $-1 #
edge $-1 $367 0 $367 6.2831853071796004 $176 $368 forward 7 unknown #
vertex $-1 $179 $369 #
ellipse-curve $-1 60.296636451720929 32.903636907204401 12.995529124837962 0 0.71933980857756763 0.69465836192734942 1 0 0 1 I I #
face $-1 $-1 $195 $27 $-1 $370 reversed single #
loop $-1 $-1 $283 $180 #
plane-surface $-1 0 35.495650551709261 0 0 -1 0 0 0 -1 forward_v I I I I #
coedge $-1 $371 $281 $284 $372 forward $181 $-1 #
coedge $-1 $287 $183 $184 $275 reversed $114 $-1 #
coedge $-1 $281 $371 $183 $273 reversed $181 $-1 #
edge $-1 $288 -15.67963789118947 $373 15.67963789118947 $272 $374 forward 7 unknown #
coedge $-1 $185 $184 $371 $375 forward $73 $-1 #
edge $-1 $279 -68.745994445631283 $373 68.745994445631283 $271 $376 forward 7 unknown #
coedge $-1 $284 $283 $185 $277 reversed $268 $-1 #
edge $-1 $377 -68.745994445631283 $278 68.745994445631283 $276 $378 forward 7 unknown #
vertex $-1 $187 $379 #
vertex $-1 $290 $380 #
straight-curve $-1 68.745994445631283 0 -15.67963789118947 0 -1 0 I I #
coedge $-1 $270 $272 $188 $282 reversed $181 $-1 #
edge $-1 $285 -35.495650551709261 $288 35.495650551709261 $281 $381 forward 7 unknown #
coedge $-1 $276 $189 $194 $291 forward $268 $-1 #
coedge $-1 $189 $276 $270 $372 reversed $268 $-1 #
vertex $-1 $190 $382 #
straight-curve $-1 0 35.495650551709261 15.67963789118947 -1 0 0 I I #
coedge $-1 $191 $271 $193 $290 reversed $114 $-1 #
vertex $-1 $282 $383 #
straight-curve $-1 0 -35.495650551709261 15.67963789118947 1 0 0 I I #
edge $-1 $196 -15.67963789118947 $279 15.67963789118947 $193 $384 forward 7 unknown #
edge $-1 $197 -15.67963789118947 $278 15.67963789118947 $194 $385 forward 7 unknown #
point $-1 68.745994445631283 -35.495650551709261 15.67963789118947 #
point $-1 68.745994445631283 35.495650551709261 15.67963789118947 #
face $-1 $-1 $303 $28 $-1 $386 reversed single #
loop $-1 $-1 $300 $199 #
plane-surface $-1 0 0 15.67963789118947 0 0 1 1 0 0 forward_v I I I I #
coedge $-1 $387 $388 $206 $306 forward $200 $-1 #
coedge $-1 $202 $310 $389 $390 reversed $122 $-1 #
edge $-1 $391 -8.9023947053310799 $212 -4.6520916663857035 $202 $392 forward 7 unknown #
coedge $-1 $389 $393 $203 $301 forward $295 $-1 #
edge $-1 $304 -35.495650551709261 $391 35.495650551709261 $300 $394 forward 7 unknown #
coedge $-1 $307 $204 $393 $395 reversed $303 $-1 #
loop $-1 $-1 $204 $294 #
vertex $-1 $205 $396 #
straight-curve $-1 -58.179199981327088 -35.495650551709261 6.7772431858583913 0 0 1 I I #
edge $-1 $311 -35.495650551709261 $308 35.495650551709261 $297 $397 forward 7 unknown #
coedge $-1 $207 $302 $387 $398 forward $303 $-1 #
vertex $-1 $306 $399 #
straight-curve $-1 -31.731298606739593 -35.495650551709261 11.429334852244095 1 0 0 I I #
coedge $-1 $298 $209 $388 $400 reversed $122 $-1 #
vertex $-1 $306 $401 #
straight-curve $-1 -31.731298606739593 35.495650551709261 11.429334852244095 -1 0 0 I I #
point $-1 -58.179199981327088 35.495650551709261 11.429334852244095 #
point $-1 -58.179199981327088 -35.495650551709261 11.429334852244095 #
loop $-1 $-1 $324 $215 #
plane-surface $-1 0 -35.495650551709261 0 0 1 0 0 0 1 forward_v I I I I #
coedge $-1 $318 $218 $226 $330 reversed $130 $-1 #
coedge $-1 $218 $317 $402 $403 forward $130 $-1 #
coedge $-1 $324 $404 $220 $320 forward $315 $-1 #
edge $-1 $322 24.445413623353851 $328 30.688555966749959 $319 $405 forward 7 unknown #
coedge $-1 $226 $221 $404 $406 forward $216 $-1 #
vertex $-1 $406 $407 #
straight-curve $-1 39.402556677677616 -76.674644307515393 15.679637891189472 0 -1 0 I I #
coedge $-1 $402 $319 $223 $325 forward $315 $-1 #
edge $-1 $328 12.365418896850393 $326 41.70885666480406 $324 $408 forward 7 unknown #
vertex $-1 $325 $409 #
straight-curve $-1 68.745994445631283 -32.870770509857593 13.805029695608708 0 0.51503806187062429 0.85716730853699219 I I #
vertex $-1 $325 $410 #
straight-curve $-1 39.402556677677616 -35.495650551709247 9.4364955477933847 0 0.51503806187062418 0.85716730853699208 I I #
edge $-1 $411 -35.495650551709261 $227 -31.744392307839369 $317 $412 forward 7 unknown #
point $-1 68.745994445631283 -31.744392307839369 15.67963789118947 #
point $-1 39.402556677677616 -31.744392307839369 15.67963789118947 #
edge $-1 $413 1 $413 0 $230 $-1 forward 7 unknown #
vertex $-1 $231 $414 #
ellipse-curve $-1 45.271244231268355 -29.507635243827991 10.087095895267659 0 -0.85716730853699208 0.51503806187062418 1.5 0 0 1 I I #
point $-1 46.771244231268355 -33.620021429774326 12.558066719491435 #
edge $-1 $415 1 $415 0 $234 $-1 forward 7 unknown #
vertex $-1 $235 $416 #
ellipse-curve $-1 54.07427556165446 -29.507635243827991 10.087095895267659 0 -0.85716730853699208 0.51503806187062418 1.5 0 0 1 I I #
point $-1 55.57427556165446 -33.620021429774326 12.558066719491435 #
edge $-1 $417 1 $417 0 $238 $-1 forward 7 unknown #
vertex $-1 $239 $418 #
ellipse-curve $-1 62.877306892040565 -29.507635243827991 10.087095895267659 0 -0.85716730853699208 0.51503806187062418 1.5 0 0 1 I I #
point $-1 64.377306892040565 -33.620021429774326 12.558066719491435 #
plane-surface $-1 0 35.495650551709261 0 0 -1 0 0 0 -1 forward_v I I I I #
coedge $-1 $419 $245 $250 $352 forward $159 $-1 #
coedge $-1 $245 $419 $349 $420 forward $159 $-1 #
edge $-1 $350 7.0465547413443304 $357 12.230582030354064 $245 $421 forward 7 unknown #
coedge $-1 $254 $248 $347 $420 reversed $255 $-1 #
vertex $-1 $348 $422 #
straight-curve $-1 39.173241466945001 35.495650551709261 78.444124543114896 0 0 1 I I #
edge $-1 $357 12.19343248880093 $355 41.766185467487212 $346 $423 forward 7 unknown #
coedge $-1 $354 $251 $254 $359 reversed $243 $-1 #
coedge $-1 $251 $353 $419 $424 reversed $243 $-1 #
vertex $-1 $424 $425 #
straight-curve $-1 68.745994445631283 4.850367469017705 42.045540718523554 0 0.69465836192734942 -0.71933980857756763 I I #
vertex $-1 $352 $426 #
straight-curve $-1 39.173241466945001 -13.819050383882683 61.378289304892007 0 0.69465836192734942 -0.71933980857756763 I I #
edge $-1 $427 -15.67963789118947 $256 -10.31142035848646 $353 $428 forward 7 unknown #
point $-1 68.745994445631283 35.495650551709261 10.31142035848646 #
point $-1 39.173241466945001 35.495650551709261 10.311420358486465 #
edge $-1 $429 1 $429 0 $259 $-1 forward 7 unknown #
vertex $-1 $260 $430 #
ellipse-curve $-1 47.622599460855369 31.200948362226942 11.351261948987705 0 0.71933980857756763 0.69465836192734942 1 0 0 1 I I #
point $-1 48.622599460855369 32.903636907204394 12.995529124837956 #
edge $-1 $431 1 $431 0 $263 $-1 forward 7 unknown #
vertex $-1 $264 $432 #
ellipse-curve $-1 60.296636451720929 31.200948362226942 11.351261948987705 0 0.71933980857756763 0.69465836192734942 1 0 0 1 I I #
point $-1 61.296636451720929 32.903636907204394 12.995529124837956 #
plane-surface $-1 68.745994445631283 0 0 -1 0 0 0 0 1 forward_v I I I I #
coedge $-1 $272 $270 $274 $375 reversed $181 $-1 #
edge $-1 $285 -15.67963789118947 $377 15.67963789118947 $284 $433 forward 7 unknown #
vertex $-1 $375 $434 #
straight-curve $-1 -68.745994445631283 -35.495650551709261 0 0 0 -1 I I #
edge $-1 $373 -35.495650551709261 $377 35.495650551709261 $371 $435 forward 7 unknown #
straight-curve $-1 0 -35.495650551709261 -15.67963789118947 -1 0 0 I I #
vertex $-1 $277 $436 #
straight-curve $-1 0 35.495650551709261 -15.67963789118947 1 0 0 I I #
point $-1 68.745994445631283 35.495650551709261 -15.67963789118947 #
point $-1 68.745994445631283 -35.495650551709261 -15.67963789118947 #
straight-curve $-1 -68.745994445631283 0 15.67963789118947 0 -1 0 I I #
point $-1 -68.745994445631283 35.495650551709261 15.67963789118947 #
point $-1 -68.745994445631283 -35.495650551709261 15.67963789118947 #
straight-curve $-1 68.745994445631283 -35.495650551709261 0 0 0 -1 I I #
straight-curve $-1 68.745994445631283 35.495650551709261 0 0 0 -1 I I #
plane-surface $-1 0 -35.495650551709261 0 0 1 0 0 0 1 forward_v I I I I #
coedge $-1 $437 $297 $307 $398 reversed $200 $-1 #
coedge $-1 $297 $437 $310 $400 forward $200 $-1 #
coedge $-1 $438 $300 $298 $390 forward $295 $-1 #
edge $-1 $391 58.179199981327088 $439 68.745994445631283 $298 $440 forward 7 unknown #
vertex $-1 $390 $441 #
straight-curve $-1 -58.179199981327088 35.495650551709261 6.7772431858583913 0 0 -1 I I #
coedge $-1 $300 $438 $302 $395 forward $295 $-1 #
straight-curve $-1 -58.179199981327088 0 15.67963789118947 0 1 0 I I #
edge $-1 $442 -68.745994445631283 $304 -58.179199981327088 $302 $443 forward 7 unknown #
point $-1 -58.179199981327088 -35.495650551709261 15.67963789118947 #
straight-curve $-1 -68.745994445631283 0 11.429334852244095 0 -1 0 I I #
edge $-1 $442 -15.67963789118947 $308 -11.429334852244095 $387 $444 forward 7 unknown #
point $-1 -68.745994445631283 -35.495650551709261 11.429334852244095 #
edge $-1 $439 -15.67963789118947 $311 -11.429334852244095 $310 $445 forward 7 unknown #
point $-1 -68.745994445631283 35.495650551709261 11.429334852244095 #
coedge $-1 $404 $324 $318 $403 reversed $315 $-1 #
edge $-1 $411 -15.67963789118947 $326 -9.4364955477933616 $318 $446 forward 7 unknown #
coedge $-1 $319 $402 $321 $406 reversed $315 $-1 #
straight-curve $-1 39.402556677677616 -35.495650551709261 40.125051514543323 0 0 -1 I I #
edge $-1 $322 39.402556677677616 $411 68.745994445631283 $404 $447 forward 7 unknown #
point $-1 39.402556677677616 -35.495650551709261 15.67963789118947 #
straight-curve $-1 27.037137780827223 -35.495650551709261 9.4364955477933599 1 0 0 I I #
point $-1 68.745994445631283 -35.495650551709261 9.4364955477933616 #
point $-1 39.402556677677616 -35.495650551709261 9.4364955477933616 #
vertex $-1 $330 $448 #
straight-curve $-1 68.745994445631283 0 15.67963789118947 0 1 0 I I #
vertex $-1 $333 $449 #
point $-1 46.771244231268355 -29.507635243827991 10.087095895267659 #
vertex $-1 $337 $450 #
point $-1 55.57427556165446 -29.507635243827991 10.087095895267659 #
vertex $-1 $341 $451 #
point $-1 64.377306892040565 -29.507635243827991 10.087095895267659 #
coedge $-1 $347 $346 $354 $424 forward $159 $-1 #
edge $-1 $427 -68.745994445631283 $350 -39.173241466945001 $349 $452 forward 7 unknown #
straight-curve $-1 39.173241466945001 42.542205293053591 15.679637891189472 0 -1 0 I I #
point $-1 39.173241466945001 35.495650551709261 15.67963789118947 #
straight-curve $-1 26.979808978144071 30.311623262699527 15.679637891189476 1 0 0 I I #
edge $-1 $355 30.311623262699527 $427 35.495650551709261 $354 $453 forward 7 unknown #
point $-1 68.745994445631283 30.311623262699527 15.679637891189472 #
point $-1 39.173241466945001 30.311623262699527 15.679637891189472 #
vertex $-1 $424 $454 #
straight-curve $-1 68.745994445631283 35.495650551709261 0 0 0 -1 I I #
vertex $-1 $362 $455 #
point $-1 48.622599460855369 31.200948362226942 11.351261948987705 #
vertex $-1 $366 $456 #
point $-1 61.296636451720929 31.200948362226942 11.351261948987705 #
straight-curve $-1 -68.745994445631283 35.495650551709261 0 0 0 -1 I I #
point $-1 -68.745994445631283 -35.495650551709261 -15.67963789118947 #
straight-curve $-1 -68.745994445631283 0 -15.67963789118947 0 1 0 I I #
point $-1 -68.745994445631283 35.495650551709261 -15.67963789118947 #
coedge $-1 $388 $387 $438 $457 reversed $200 $-1 #
coedge $-1 $393 $389 $437 $457 forward $295 $-1 #
vertex $-1 $390 $458 #
straight-curve $-1 0 35.495650551709261 15.67963789118947 -1 0 0 I I #
point $-1 -58.179199981327088 35.495650551709261 15.67963789118947 #
vertex $-1 $457 $459 #
straight-curve $-1 0 -35.495650551709261 15.67963789118947 1 0 0 I I #
straight-curve $-1 -68.745994445631283 -35.495650551709261 0 0 0 -1 I I #
straight-curve $-1 -68.745994445631283 35.495650551709261 0 0 0 -1 I I #
straight-curve $-1 68.745994445631283 -35.495650551709261 0 0 0 -1 I I #
straight-curve $-1 0 -35.495650551709261 15.67963789118947 1 0 0 I I #
point $-1 68.745994445631283 -35.495650551709261 15.67963789118947 #
point $-1 45.271244231268355 -28.221884281022504 9.3145388024617226 #
point $-1 54.07427556165446 -28.221884281022504 9.3145388024617226 #
point $-1 62.877306892040565 -28.221884281022504 9.3145388024617226 #
straight-curve $-1 0 35.495650551709261 15.67963789118947 -1 0 0 I I #
straight-curve $-1 68.745994445631283 0 15.67963789118947 0 1 0 I I #
point $-1 68.745994445631283 35.495650551709261 15.67963789118947 #
point $-1 47.622599460855369 30.481608553649377 10.656603587060356 #
point $-1 60.296636451720929 30.481608553649377 10.656603587060356 #
edge $-1 $439 -35.495650551709261 $442 35.495650551709261 $437 $460 forward 7 unknown #
point $-1 -68.745994445631283 35.495650551709261 15.67963789118947 #
point $-1 -68.745994445631283 -35.495650551709261 15.67963789118947 #
straight-curve $-1 -68.745994445631283 0 15.67963789118947 0 -1 0 I I #
End-of-ACIS-data 