500 0 8 0           
7 Unknown 11 ACIS 5.0 NT 24 Thu Mar 25 19:35:08 1999 
-1 9.9999999999999995e-007 1e-010 
body $-1 $8 $-1 $9 #
body $-1 $10 $-1 $11 #
body $-1 $12 $-1 $13 #
body $-1 $14 $-1 $15 #
body $-1 $16 $-1 $17 #
body $-1 $18 $-1 $19 #
body $-1 $20 $-1 $21 #
body $-1 $22 $-1 $23 #
lump $-1 $-1 $24 $0 #
transform $-1 1 0 0 0 1 0 0 0 1 50.047914059877314 32.823104305323817 8.3962516549209187 1 rotate no_reflect no_shear #
lump $-1 $-1 $25 $1 #
transform $-1 1 0 0 0 1 0 0 0 1 50.047914059877314 32.823104305323817 8.3962516549209187 1 rotate no_reflect no_shear #
lump $-1 $-1 $26 $2 #
transform $-1 1 0 0 0 1 0 0 0 1 50.047914059877314 32.823104305323817 8.3962516549209187 1 rotate no_reflect no_shear #
lump $-1 $-1 $27 $3 #
transform $-1 1 0 0 0 1 0 0 0 1 50.047914059877314 32.823104305323817 8.3962516549209187 1 rotate no_reflect no_shear #
lump $-1 $-1 $28 $4 #
transform $-1 1 0 0 0 1 0 0 0 1 50.047914059877314 32.823104305323817 8.3962516549209187 1 rotate no_reflect no_shear #
lump $-1 $-1 $29 $5 #
transform $-1 1 0 0 0 1 0 0 0 1 50.047914059877314 32.823104305323817 8.3962516549209187 1 rotate no_reflect no_shear #
lump $-1 $-1 $30 $6 #
transform $-1 1 0 0 0 1 0 0 0 1 50.047914059877314 32.823104305323817 8.3962516549209187 1 rotate no_reflect no_shear #
lump $-1 $-1 $31 $7 #
transform $-1 1 0 0 0 1 0 0 0 1 50.047914059877314 32.823104305323817 8.3962516549209187 1 rotate no_reflect no_shear #
shell $-1 $-1 $-1 $32 $-1 $8 #
shell $-1 $-1 $-1 $33 $-1 $10 #
shell $-1 $-1 $-1 $34 $-1 $12 #
shell $-1 $-1 $-1 $35 $-1 $14 #
shell $-1 $-1 $-1 $36 $-1 $16 #
shell $-1 $-1 $-1 $37 $-1 $18 #
shell $-1 $-1 $-1 $38 $-1 $20 #
shell $-1 $-1 $-1 $39 $-1 $22 #
face $-1 $40 $41 $24 $-1 $42 forward single #
face $-1 $43 $44 $25 $-1 $45 reversed single #
face $-1 $46 $47 $26 $-1 $48 reversed single #
face $-1 $49 $50 $27 $-1 $51 forward single #
face $-1 $52 $53 $28 $-1 $54 forward single #
face $-1 $55 $56 $29 $-1 $57 forward single #
face $-1 $58 $59 $30 $-1 $60 reversed single #
face $-1 $61 $62 $31 $-1 $63 forward single #
face $-1 $64 $65 $24 $-1 $66 reversed single #
loop $-1 $-1 $67 $32 #
plane-surface $-1 0 0 8.3962516549209187 0 0 1 1 0 0 forward_v I I I I #
face $-1 $68 $69 $25 $-1 $70 reversed single #
loop $-1 $-1 $71 $33 #
plane-surface $-1 -45.532589841690864 -28.266358828791791 0 1 0 0 0 0 -1 forward_v I I I I #
face $-1 $72 $73 $26 $-1 $74 reversed single #
loop $-1 $-1 $75 $34 #
plane-surface $-1 -136.73344479867023 -15.986454031180251 54.195353793022292 0 1 0 -0.86602541151947299 0 0.49999998660252726 forward_v I I I I #
face $-1 $76 $77 $27 $-1 $78 forward single #
loop $-1 $79 $80 $35 #
cone-surface $-1 -48.182844055206196 -12.896590803156215 5.9031827799567864 0.86602541151947299 0 -0.49999998660252726 0.24999999330126363 0 0.43301270575973649 1 I I 0 1 0.5 forward I I I I #
face $-1 $81 $82 $28 $-1 $83 forward single #
loop $-1 $84 $85 $36 #
cone-surface $-1 -48.182844055206196 -8.261795961120157 5.9031827799567864 0.86602541151947299 0 -0.49999998660252726 0.24999999330126363 0 0.43301270575973649 1 I I 0 1 0.5 forward I I I I #
face $-1 $86 $87 $29 $-1 $88 forward single #
loop $-1 $89 $90 $37 #
cone-surface $-1 -48.182844055206196 -3.6270011190840989 5.9031827799567864 0.86602541151947299 0 -0.49999998660252726 0.24999999330126363 0 0.43301270575973649 1 I I 0 1 0.5 forward I I I I #
face $-1 $91 $92 $30 $-1 $93 reversed single #
loop $-1 $-1 $94 $38 #
plane-surface $-1 50.047915702298297 24.2285644554455 146.306903192134 0 1 0 0.70710678939079041 0 0.70710677298230451 forward_v I I I I #
face $-1 $95 $96 $31 $-1 $97 forward single #
loop $-1 $98 $99 $39 #
cone-surface $-1 47.53528182331786 28.525834380384659 5.8836193920562714 -0.70710678939079041 0 -0.70710677298230451 0.70710677298230451 0 -0.70710678939079041 1 I I 0 1 1 forward I I I I #
face $-1 $100 $101 $24 $-1 $102 reversed single #
loop $-1 $-1 $103 $40 #
plane-surface $-1 0 0 -8.3962516549209187 0 0 1 1 0 0 forward_v I I I I #
coedge $-1 $104 $105 $106 $107 forward $41 $-1 #
face $-1 $108 $109 $25 $-1 $110 reversed single #
loop $-1 $-1 $111 $43 #
plane-surface $-1 -43.344009104673589 -23.709613352259765 0 0 -1 0 0 0 -1 forward_v I I I I #
coedge $-1 $112 $113 $114 $115 forward $44 $-1 #
face $-1 $116 $117 $26 $-1 $118 reversed single #
loop $-1 $-1 $119 $46 #
plane-surface $-1 -50.0479140598773 -8.261795961120157 4.1474410741761076 -0.86602541151947299 0 0.49999998660252726 0.49999998660252726 0 0.86602541151947299 forward_v I I I I #
coedge $-1 $120 $121 $122 $123 reversed $47 $-1 #
face $-1 $-1 $124 $27 $-1 $125 forward single #
loop $-1 $126 $127 $49 #
cone-surface $-1 -47.327793620099989 -12.896590803156215 5.4095191987144293 0.86602541151947299 0 -0.49999998660252726 0.12499999665063181 0 0.21650635287986825 1 I I -0.70710678118654746 0.70710678118654746 0.25 forward I I I I #
loop $-1 $-1 $128 $35 #
coedge $-1 $80 $80 $129 $130 reversed $50 $-1 #
face $-1 $-1 $131 $28 $-1 $132 forward single #
loop $-1 $133 $134 $52 #
cone-surface $-1 -47.327793620099989 -8.261795961120157 5.4095191987144293 0.86602541151947299 0 -0.49999998660252726 0.12499999665063181 0 0.21650635287986825 1 I I -0.70710678118654746 0.70710678118654746 0.25 forward I I I I #
loop $-1 $-1 $135 $36 #
coedge $-1 $85 $85 $136 $137 reversed $53 $-1 #
face $-1 $-1 $138 $29 $-1 $139 forward single #
loop $-1 $140 $141 $55 #
cone-surface $-1 -47.327793620099989 -3.6270011190840989 5.4095191987144293 0.86602541151947299 0 -0.49999998660252726 0.12499999665063181 0 0.21650635287986825 1 I I -0.70710678118654746 0.70710678118654746 0.25 forward I I I I #
loop $-1 $-1 $142 $37 #
coedge $-1 $90 $90 $143 $144 reversed $56 $-1 #
face $-1 $145 $146 $30 $-1 $147 forward single #
loop $-1 $-1 $148 $58 #
plane-surface $-1 -20.730523950873788 28.525834380384659 75.528465181382899 0.70710678939079041 0 0.70710677298230451 0.70710677298230451 0 -0.70710678939079041 forward_v I I I I #
coedge $-1 $149 $150 $151 $152 reversed $59 $-1 #
face $-1 $-1 $153 $31 $-1 $154 forward single #
loop $-1 $155 $156 $61 #
cone-surface $-1 46.492209213112517 28.525834380384659 4.8405468060555332 -0.70710678939079041 0 -0.70710677298230451 0.35355338649115226 0 -0.35355339469539521 1 I I -0.70710678118654746 0.70710678118654746 0.5 forward I I I I #
loop $-1 $-1 $157 $39 #
coedge $-1 $99 $99 $158 $159 reversed $62 $-1 #
face $-1 $160 $161 $24 $-1 $162 reversed single #
loop $-1 $-1 $163 $64 #
plane-surface $-1 0 -32.823104305323817 0 0 1 0 0 0 1 forward_v I I I I #
coedge $-1 $164 $165 $166 $167 forward $65 $-1 #
coedge $-1 $168 $67 $169 $170 forward $41 $-1 #
coedge $-1 $67 $168 $171 $172 forward $41 $-1 #
coedge $-1 $173 $174 $67 $107 reversed $175 $-1 #
edge $-1 $176 -32.823104305323817 $177 32.823104305323817 $106 $178 forward 7 unknown #
face $-1 $179 $180 $25 $-1 $181 forward single #
loop $-1 $-1 $182 $68 #
plane-surface $-1 -41.155428367656313 -28.266358828791791 0 -1 0 0 0 0 1 forward_v I I I I #
coedge $-1 $183 $184 $185 $186 forward $69 $-1 #
coedge $-1 $187 $71 $188 $189 reversed $44 $-1 #
coedge $-1 $71 $187 $190 $191 reversed $44 $-1 #
coedge $-1 $184 $183 $71 $115 reversed $69 $-1 #
edge $-1 $192 -8.3962516549209187 $193 8.3962516549209187 $114 $194 forward 7 unknown #
face $-1 $195 $196 $26 $-1 $197 reversed single #
loop $-1 $-1 $198 $72 #
plane-surface $-1 -136.73344479867023 -0.5371378910600626 54.195353793022292 0 -1 0 0.86602541151947299 0 -0.49999998660252726 forward_v I I I I #
coedge $-1 $199 $200 $201 $202 reversed $73 $-1 #
coedge $-1 $121 $75 $203 $204 reversed $47 $-1 #
coedge $-1 $75 $120 $199 $205 reversed $47 $-1 #
coedge $-1 $201 $206 $75 $123 forward $207 $-1 #
edge $-1 $208 18.318808339457803 $209 20.771860184347375 $122 $210 forward 7 unknown #
loop $-1 $-1 $129 $76 #
plane-surface $-1 -50.0479140598773 -8.261795961120157 4.1474410741761076 -0.86602541151947299 0 0.49999998660252726 0.49999998660252726 0 0.86602541151947299 forward_v I I I I #
loop $-1 $-1 $211 $49 #
coedge $-1 $127 $127 $128 $212 reversed $77 $-1 #
coedge $-1 $128 $128 $127 $212 forward $79 $-1 #
coedge $-1 $129 $129 $80 $130 forward $124 $-1 #
edge $-1 $213 0 $213 6.2831853071796004 $129 $214 forward 7 unknown #
loop $-1 $-1 $136 $81 #
plane-surface $-1 -50.0479140598773 -8.261795961120157 4.1474410741761076 -0.86602541151947299 0 0.49999998660252726 0.49999998660252726 0 0.86602541151947299 forward_v I I I I #
loop $-1 $-1 $215 $52 #
coedge $-1 $134 $134 $135 $216 reversed $82 $-1 #
coedge $-1 $135 $135 $134 $216 forward $84 $-1 #
coedge $-1 $136 $136 $85 $137 forward $131 $-1 #
edge $-1 $217 0 $217 6.2831853071796004 $136 $218 forward 7 unknown #
loop $-1 $-1 $143 $86 #
plane-surface $-1 -50.0479140598773 -8.261795961120157 4.1474410741761076 -0.86602541151947299 0 0.49999998660252726 0.49999998660252726 0 0.86602541151947299 forward_v I I I I #
loop $-1 $-1 $219 $55 #
coedge $-1 $141 $141 $142 $220 reversed $87 $-1 #
coedge $-1 $142 $142 $141 $220 forward $89 $-1 #
coedge $-1 $143 $143 $90 $144 forward $138 $-1 #
edge $-1 $221 0 $221 6.2831853071796004 $143 $222 forward 7 unknown #
face $-1 $223 $224 $30 $-1 $225 reversed single #
loop $-1 $-1 $226 $91 #
plane-surface $-1 0 0 8.3962516549209187 0 0 1 1 0 0 forward_v I I I I #
coedge $-1 $227 $228 $229 $230 reversed $92 $-1 #
coedge $-1 $150 $94 $231 $232 reversed $59 $-1 #
coedge $-1 $94 $149 $227 $233 reversed $59 $-1 #
coedge $-1 $229 $234 $94 $152 forward $235 $-1 #
edge $-1 $236 64.757199941146084 $237 68.403426067856188 $151 $238 forward 7 unknown #
loop $-1 $-1 $158 $95 #
plane-surface $-1 -20.730523950873788 28.525834380384659 75.528465181382899 0.70710678939079041 0 0.70710677298230451 0.70710677298230451 0 -0.70710678939079041 forward_v I I I I #
loop $-1 $-1 $239 $61 #
coedge $-1 $156 $156 $157 $240 reversed $96 $-1 #
coedge $-1 $157 $157 $156 $240 forward $98 $-1 #
coedge $-1 $158 $158 $99 $159 forward $153 $-1 #
edge $-1 $241 0 $241 6.2831853071796004 $158 $242 forward 7 unknown #
face $-1 $243 $244 $24 $-1 $245 reversed single #
loop $-1 $-1 $246 $100 #
plane-surface $-1 -50.047914059877314 0 0 1 0 0 0 0 -1 forward_v I I I I #
coedge $-1 $247 $171 $248 $249 forward $101 $-1 #
coedge $-1 $250 $103 $247 $251 forward $65 $-1 #
coedge $-1 $103 $250 $252 $253 forward $65 $-1 #
coedge $-1 $174 $173 $103 $167 reversed $175 $-1 #
edge $-1 $254 -32.823104305323817 $255 32.823104305323817 $166 $256 forward 7 unknown #
coedge $-1 $105 $104 $257 $258 forward $41 $-1 #
coedge $-1 $259 $260 $104 $170 reversed $244 $-1 #
edge $-1 $177 -50.047914059877314 $261 50.047914059877314 $169 $262 forward 7 unknown #
coedge $-1 $163 $263 $105 $172 reversed $101 $-1 #
edge $-1 $264 -50.047914059877314 $176 50.047914059877314 $171 $265 forward 7 unknown #
coedge $-1 $166 $106 $263 $266 forward $175 $-1 #
coedge $-1 $106 $166 $259 $267 reversed $175 $-1 #
loop $-1 $-1 $173 $243 #
vertex $-1 $107 $268 #
vertex $-1 $107 $269 #
straight-curve $-1 50.047914059877314 0 8.3962516549209187 0 1 0 I I #
face $-1 $270 $271 $25 $-1 $272 reversed single #
loop $-1 $-1 $273 $108 #
plane-surface $-1 0 0 8.3962516549209187 0 0 1 1 0 0 forward_v I I I I #
coedge $-1 $274 $275 $276 $277 reversed $109 $-1 #
coedge $-1 $114 $111 $278 $279 reversed $69 $-1 #
coedge $-1 $111 $114 $280 $281 reversed $69 $-1 #
coedge $-1 $275 $274 $111 $186 reversed $109 $-1 #
edge $-1 $282 -8.3962516549209187 $283 8.3962516549209187 $185 $284 forward 7 unknown #
coedge $-1 $113 $112 $285 $286 reversed $44 $-1 #
coedge $-1 $278 $287 $112 $189 forward $271 $-1 #
edge $-1 $288 -18.689924890927919 $193 -9.5764339378638699 $188 $289 forward 7 unknown #
coedge $-1 $290 $280 $113 $191 forward $180 $-1 #
edge $-1 $192 9.5764339378638699 $291 18.689924890927919 $190 $292 forward 7 unknown #
vertex $-1 $191 $293 #
vertex $-1 $189 $294 #
straight-curve $-1 -45.532589841690864 -23.709613352259765 0 0 0 -1 I I #
face $-1 $-1 $207 $26 $-1 $295 forward single #
loop $-1 $-1 $296 $116 #
plane-surface $-1 -50.047914059877314 0 0 1 0 0 0 0 -1 forward_v I I I I #
coedge $-1 $297 $298 $299 $300 reversed $117 $-1 #
coedge $-1 $301 $119 $121 $205 forward $73 $-1 #
coedge $-1 $119 $301 $297 $302 forward $73 $-1 #
coedge $-1 $299 $122 $119 $202 forward $207 $-1 #
edge $-1 $209 -11.855556050620173 $303 3.5937600895000159 $201 $304 forward 7 unknown #
coedge $-1 $305 $306 $120 $204 forward $196 $-1 #
edge $-1 $307 -22.950235822335063 $208 -18.701425241590229 $203 $308 forward 7 unknown #
edge $-1 $209 -4.9061038212378998 $307 2.8642609447069912e-014 $121 $309 forward 7 unknown #
coedge $-1 $122 $299 $305 $310 forward $207 $-1 #
loop $-1 $-1 $299 $195 #
vertex $-1 $204 $311 #
vertex $-1 $123 $312 #
straight-curve $-1 -68.366722399335117 -15.986454031180251 8.396251654920917 1 0 0 I I #
coedge $-1 $211 $211 $-1 $313 reversed $126 $-1 #
edge $-1 $314 0 $314 6.2831853071796004 $127 $315 forward 7 unknown #
vertex $-1 $130 $316 #
ellipse-curve $-1 -48.821388137432528 -12.896590803156215 6.2718463645485052 -0.86602541151947299 0 0.49999998660252726 0.24999999330126363 0 0.43301270575973649 1 I I #
coedge $-1 $215 $215 $-1 $317 reversed $133 $-1 #
edge $-1 $318 0 $318 6.2831853071796004 $134 $319 forward 7 unknown #
vertex $-1 $137 $320 #
ellipse-curve $-1 -48.821388137432528 -8.261795961120157 6.2718463645485052 -0.86602541151947299 0 0.49999998660252726 0.24999999330126363 0 0.43301270575973649 1 I I #
coedge $-1 $219 $219 $-1 $321 reversed $140 $-1 #
edge $-1 $322 0 $322 6.2831853071796004 $141 $323 forward 7 unknown #
vertex $-1 $144 $324 #
ellipse-curve $-1 -48.821388137432528 -3.6270011190840989 6.2718463645485052 -0.86602541151947299 0 0.49999998660252726 0.24999999330126363 0 0.43301270575973649 1 I I #
face $-1 $-1 $235 $30 $-1 $325 reversed single #
loop $-1 $-1 $326 $145 #
plane-surface $-1 0 32.823104305323817 0 0 -1 0 0 0 -1 forward_v I I I I #
coedge $-1 $231 $327 $328 $329 forward $146 $-1 #
coedge $-1 $328 $148 $150 $233 forward $92 $-1 #
coedge $-1 $148 $328 $326 $330 reversed $92 $-1 #
coedge $-1 $331 $151 $148 $230 forward $235 $-1 #
edge $-1 $237 9.9656472652531711 $332 18.560187115131487 $229 $333 forward 7 unknown #
coedge $-1 $334 $226 $149 $232 forward $146 $-1 #
edge $-1 $335 21.377730166629121 $236 25.023956208728166 $231 $336 forward 7 unknown #
edge $-1 $237 -100.09582811975464 $335 -94.939285739711138 $150 $337 forward 7 unknown #
coedge $-1 $151 $331 $334 $338 reversed $235 $-1 #
loop $-1 $-1 $229 $223 #
vertex $-1 $338 $339 #
vertex $-1 $152 $340 #
straight-curve $-1 50.047914059877314 24.2285644554455 73.153451596067001 0 0 -1 I I #
coedge $-1 $239 $239 $-1 $341 reversed $155 $-1 #
edge $-1 $342 0 $342 6.2831853071796004 $156 $343 forward 7 unknown #
vertex $-1 $159 $344 #
ellipse-curve $-1 48.224801038827806 28.525834380384659 6.5731385915658525 0.70710678939079041 0 0.70710677298230451 0.70710677298230451 0 -0.70710678939079041 1 I I #
face $-1 $-1 $175 $24 $-1 $345 reversed single #
loop $-1 $-1 $259 $160 #
plane-surface $-1 0 32.823104305323817 0 0 -1 0 0 0 -1 forward_v I I I I #
coedge $-1 $346 $257 $260 $347 forward $161 $-1 #
coedge $-1 $263 $163 $164 $251 reversed $101 $-1 #
coedge $-1 $257 $346 $163 $249 reversed $161 $-1 #
edge $-1 $264 -8.3962516549209187 $348 8.3962516549209187 $248 $349 forward 7 unknown #
coedge $-1 $165 $164 $346 $350 forward $65 $-1 #
edge $-1 $255 -50.047914059877314 $348 50.047914059877314 $247 $351 forward 7 unknown #
coedge $-1 $260 $259 $165 $253 reversed $244 $-1 #
edge $-1 $352 -50.047914059877314 $254 50.047914059877314 $252 $353 forward 7 unknown #
vertex $-1 $167 $354 #
vertex $-1 $266 $355 #
straight-curve $-1 50.047914059877314 0 -8.3962516549209187 0 -1 0 I I #
coedge $-1 $246 $248 $168 $258 reversed $161 $-1 #
edge $-1 $261 -32.823104305323817 $264 32.823104305323817 $257 $356 forward 7 unknown #
coedge $-1 $252 $169 $174 $267 forward $244 $-1 #
coedge $-1 $169 $252 $246 $347 reversed $244 $-1 #
vertex $-1 $170 $357 #
straight-curve $-1 0 32.823104305323817 8.3962516549209187 -1 0 0 I I #
coedge $-1 $171 $247 $173 $266 reversed $101 $-1 #
vertex $-1 $258 $358 #
straight-curve $-1 0 -32.823104305323817 8.3962516549209187 1 0 0 I I #
edge $-1 $176 -8.3962516549209187 $255 8.3962516549209187 $173 $359 forward 7 unknown #
edge $-1 $177 -8.3962516549209187 $254 8.3962516549209187 $174 $360 forward 7 unknown #
point $-1 50.047914059877314 -32.823104305323817 8.3962516549209187 #
point $-1 50.047914059877314 32.823104305323817 8.3962516549209187 #
face $-1 $-1 $361 $25 $-1 $362 reversed single #
loop $-1 $-1 $363 $179 #
plane-surface $-1 0 0 -8.3962516549209187 0 0 1 1 0 0 forward_v I I I I #
coedge $-1 $280 $290 $275 $364 forward $180 $-1 #
coedge $-1 $185 $182 $363 $365 reversed $109 $-1 #
coedge $-1 $182 $185 $273 $364 reversed $109 $-1 #
coedge $-1 $366 $367 $182 $277 forward $361 $-1 #
edge $-1 $368 -8.3962516549209187 $369 8.3962516549209187 $276 $370 forward 7 unknown #
coedge $-1 $363 $188 $183 $279 forward $271 $-1 #
edge $-1 $193 -23.86058528935407 $283 -19.483423815319519 $278 $371 forward 7 unknown #
coedge $-1 $190 $273 $184 $281 forward $180 $-1 #
edge $-1 $282 19.483423815319519 $192 23.86058528935407 $280 $372 forward 7 unknown #
vertex $-1 $281 $373 #
vertex $-1 $279 $374 #
straight-curve $-1 -41.155428367656313 -23.709613352259765 0 0 0 -1 I I #
coedge $-1 $367 $366 $187 $286 forward $361 $-1 #
edge $-1 $291 -8.3962516549209187 $288 8.3962516549209187 $285 $375 forward 7 unknown #
coedge $-1 $188 $363 $367 $376 forward $271 $-1 #
vertex $-1 $189 $377 #
straight-curve $-1 -45.532589841690864 -14.133179414395896 -8.3962516549209187 0 1 0 I I #
coedge $-1 $273 $190 $366 $378 forward $180 $-1 #
vertex $-1 $378 $379 #
straight-curve $-1 -45.532589841690864 -14.133179414395896 8.3962516549209187 0 -1 0 I I #
point $-1 -45.532589841690864 -23.709613352259765 8.3962516549209187 #
point $-1 -45.532589841690864 -23.709613352259765 -8.3962516549209187 #
plane-surface $-1 0 0 8.3962516549209187 0 0 1 1 0 0 forward_v I I I I #
coedge $-1 $306 $305 $298 $380 forward $196 $-1 #
coedge $-1 $298 $198 $200 $302 reversed $117 $-1 #
coedge $-1 $198 $297 $296 $380 reversed $117 $-1 #
coedge $-1 $206 $201 $198 $300 forward $207 $-1 #
edge $-1 $303 -20.771860184347375 $381 -18.318808339457803 $299 $382 forward 7 unknown #
coedge $-1 $200 $199 $306 $383 reversed $73 $-1 #
edge $-1 $384 -2.8642609447069912e-014 $303 4.9061038212378998 $297 $385 forward 7 unknown #
vertex $-1 $202 $386 #
straight-curve $-1 -47.594862214987742 -4.1308979805600785 8.3962516549209187 0 1 0 I I #
coedge $-1 $296 $203 $206 $310 reversed $196 $-1 #
coedge $-1 $203 $296 $301 $383 forward $196 $-1 #
vertex $-1 $204 $387 #
straight-curve $-1 -50.047914059877314 -15.986454031180251 27.097676896511146 0 0 1 I I #
straight-curve $-1 -50.0479140598773 -15.986454031180251 4.1474410741761076 -0.49999998660252726 0 -0.86602541151947299 I I #
edge $-1 $381 0.5371378910600626 $208 15.986454031180251 $305 $388 forward 7 unknown #
point $-1 -50.047914059877314 -15.986454031180251 8.3962516549209187 #
point $-1 -47.594862214987742 -15.986454031180251 8.3962516549209187 #
edge $-1 $389 1 $389 0 $211 $-1 forward 7 unknown #
vertex $-1 $212 $390 #
ellipse-curve $-1 -47.544299972979857 -12.896590803156215 5.5345191953650614 -0.86602541151947299 0 0.49999998660252726 0.24999999330126363 0 0.43301270575973649 1 I I #
point $-1 -48.571388144131269 -12.896590803156215 6.704859070308248 #
edge $-1 $391 1 $391 0 $215 $-1 forward 7 unknown #
vertex $-1 $216 $392 #
ellipse-curve $-1 -47.544299972979857 -8.261795961120157 5.5345191953650614 -0.86602541151947299 0 0.49999998660252726 0.24999999330126363 0 0.43301270575973649 1 I I #
point $-1 -48.571388144131269 -8.261795961120157 6.704859070308248 #
edge $-1 $393 1 $393 0 $219 $-1 forward 7 unknown #
vertex $-1 $220 $394 #
ellipse-curve $-1 -47.544299972979857 -3.6270011190840989 5.5345191953650614 -0.86602541151947299 0 0.49999998660252726 0.24999999330126363 0 0.43301270575973649 1 I I #
point $-1 -48.571388144131269 -3.6270011190840989 6.704859070308248 #
plane-surface $-1 50.047914059877314 0 0 -1 0 0 0 0 1 forward_v I I I I #
coedge $-1 $395 $396 $228 $330 forward $224 $-1 #
coedge $-1 $226 $334 $395 $397 forward $146 $-1 #
coedge $-1 $228 $227 $226 $329 reversed $92 $-1 #
edge $-1 $398 -18.560187115131487 $335 -9.9656472652531711 $226 $399 forward 7 unknown #
edge $-1 $332 -66.063135912176378 $398 -60.906593532132881 $326 $400 forward 7 unknown #
coedge $-1 $234 $229 $396 $401 reversed $235 $-1 #
vertex $-1 $230 $402 #
straight-curve $-1 50.047914059877307 14.262917190192329 4.7500255282108128 0 1 0 I I #
coedge $-1 $327 $231 $234 $338 forward $146 $-1 #
vertex $-1 $232 $403 #
straight-curve $-1 25.023957851149149 24.2285644554455 8.396251654920917 1 0 0 I I #
straight-curve $-1 -20.730523950873788 24.2285644554455 75.528465181382899 -0.70710677298230451 0 0.70710678939079041 I I #
edge $-1 $236 24.2285644554455 $404 32.823104305323817 $234 $405 forward 7 unknown #
point $-1 50.047914059877314 24.2285644554455 8.3962516549209187 #
point $-1 50.047914059877314 24.2285644554455 4.7500255282108128 #
edge $-1 $406 1 $406 0 $239 $-1 forward 7 unknown #
vertex $-1 $240 $407 #
ellipse-curve $-1 46.845762607807913 28.525834380384659 5.1941001925466859 0.70710678939079041 0 0.70710677298230451 0.70710677298230451 0 -0.70710678939079041 1 I I #
point $-1 48.93190781181012 28.525834380384659 5.8660318021750673 #
plane-surface $-1 50.047914059877314 0 0 -1 0 0 0 0 1 forward_v I I I I #
coedge $-1 $248 $246 $250 $350 reversed $161 $-1 #
edge $-1 $261 -8.3962516549209187 $352 8.3962516549209187 $260 $408 forward 7 unknown #
vertex $-1 $350 $409 #
straight-curve $-1 -50.047914059877314 -32.823104305323817 0 0 0 -1 I I #
edge $-1 $348 -32.823104305323817 $352 32.823104305323817 $346 $410 forward 7 unknown #
straight-curve $-1 0 -32.823104305323817 -8.3962516549209187 -1 0 0 I I #
vertex $-1 $253 $411 #
straight-curve $-1 0 32.823104305323817 -8.3962516549209187 1 0 0 I I #
point $-1 50.047914059877314 32.823104305323817 -8.3962516549209187 #
point $-1 50.047914059877314 -32.823104305323817 -8.3962516549209187 #
straight-curve $-1 -50.047914059877314 0 8.3962516549209187 0 -1 0 I I #
point $-1 -50.047914059877314 32.823104305323817 8.3962516549209187 #
point $-1 -50.047914059877314 -32.823104305323817 8.3962516549209187 #
straight-curve $-1 50.047914059877314 -32.823104305323817 0 0 0 -1 I I #
straight-curve $-1 50.047914059877314 32.823104305323817 0 0 0 -1 I I #
loop $-1 $-1 $276 $270 #
plane-surface $-1 0 -32.823104305323817 0 0 1 0 0 0 1 forward_v I I I I #
coedge $-1 $287 $278 $274 $365 forward $271 $-1 #
edge $-1 $369 -18.689924890927919 $282 -9.5764339378638699 $273 $412 forward 7 unknown #
edge $-1 $283 9.5764339378638699 $368 18.689924890927919 $363 $413 forward 7 unknown #
coedge $-1 $285 $276 $290 $378 reversed $361 $-1 #
coedge $-1 $276 $285 $287 $376 reversed $361 $-1 #
vertex $-1 $376 $414 #
vertex $-1 $277 $415 #
straight-curve $-1 -41.155428367656313 -32.823104305323817 0 0 0 1 I I #
straight-curve $-1 -21.672004552336794 -23.709613352259765 -8.3962516549209187 1 0 0 I I #
straight-curve $-1 -21.672004552336794 -23.709613352259765 8.3962516549209187 -1 0 0 I I #
point $-1 -41.155428367656313 -23.709613352259765 8.3962516549209187 #
point $-1 -41.155428367656313 -23.709613352259765 -8.3962516549209187 #
straight-curve $-1 -45.532589841690864 -32.823104305323817 0 0 0 -1 I I #
edge $-1 $368 41.155428367656313 $288 45.532589841690864 $367 $416 forward 7 unknown #
point $-1 -45.532589841690864 -32.823104305323817 -8.3962516549209187 #
edge $-1 $291 -45.532589841690864 $369 -41.155428367656313 $366 $417 forward 7 unknown #
point $-1 -45.532589841690864 -32.823104305323817 8.3962516549209187 #
edge $-1 $381 18.701425241590229 $384 22.950235822335063 $296 $418 forward 7 unknown #
vertex $-1 $310 $419 #
straight-curve $-1 -68.366722399335117 -0.5371378910600626 8.396251654920917 -1 0 0 I I #
edge $-1 $384 -3.5937600895000159 $307 11.855556050620173 $306 $420 forward 7 unknown #
vertex $-1 $383 $421 #
straight-curve $-1 -50.0479140598773 -0.5371378910600626 4.1474410741761076 0.49999998660252726 0 0.86602541151947299 I I #
point $-1 -47.594862214987742 -0.5371378910600626 8.3962516549209187 #
point $-1 -50.047914059877314 -15.986454031180251 4.1474410741760828 #
straight-curve $-1 -50.047914059877314 0 8.3962516549209187 0 -1 0 I I #
vertex $-1 $313 $422 #
point $-1 -47.294299979678591 -12.896590803156215 5.9675319011247971 #
vertex $-1 $317 $423 #
point $-1 -47.294299979678591 -8.261795961120157 5.9675319011247971 #
vertex $-1 $321 $424 #
point $-1 -47.294299979678591 -3.6270011190840989 5.9675319011247971 #
coedge $-1 $396 $326 $327 $397 reversed $224 $-1 #
coedge $-1 $326 $395 $331 $401 forward $224 $-1 #
edge $-1 $404 -50.047914059877314 $398 -46.40168801777827 $395 $425 forward 7 unknown #
vertex $-1 $330 $426 #
straight-curve $-1 46.401688017778262 14.262917190192329 8.3962516549209099 0 -1 0 I I #
straight-curve $-1 3.3342232119268882 32.823104305323817 51.46371746015727 -0.70710677298230462 0 0.70710678939079052 I I #
edge $-1 $404 -8.3962516549209187 $332 -4.7500255282108101 $331 $427 forward 7 unknown #
point $-1 50.047914059877314 32.823104305323817 4.7500255282108101 #
point $-1 46.40168801777827 24.2285644554455 8.396251654920917 #
vertex $-1 $338 $428 #
straight-curve $-1 50.047914059877314 0 8.3962516549209187 0 1 0 I I #
vertex $-1 $341 $429 #
point $-1 47.552869380790213 28.525834380384659 4.4869934031558953 #
straight-curve $-1 -50.047914059877314 32.823104305323817 0 0 0 -1 I I #
point $-1 -50.047914059877314 -32.823104305323817 -8.3962516549209187 #
straight-curve $-1 -50.047914059877314 0 -8.3962516549209187 0 1 0 I I #
point $-1 -50.047914059877314 32.823104305323817 -8.3962516549209187 #
straight-curve $-1 -41.155428367656313 -14.133179414395896 8.3962516549209187 0 1 0 I I #
straight-curve $-1 -41.155428367656313 -14.133179414395896 -8.3962516549209187 0 -1 0 I I #
point $-1 -41.155428367656313 -32.823104305323817 -8.3962516549209187 #
point $-1 -41.155428367656313 -32.823104305323817 8.3962516549209187 #
straight-curve $-1 0 -32.823104305323817 -8.3962516549209187 -1 0 0 I I #
straight-curve $-1 0 -32.823104305323817 8.3962516549209187 1 0 0 I I #
straight-curve $-1 -50.047914059877314 -0.5371378910600626 27.097676896511146 0 0 -1 I I #
point $-1 -50.047914059877314 -0.5371378910600626 8.3962516549209187 #
straight-curve $-1 -50.047914059877314 -4.1308979805600785 4.1474410741760792 0 -1 0 I I #
point $-1 -50.047914059877314 -0.5371378910600626 4.1474410741760828 #
point $-1 -47.111287267220121 -12.896590803156215 5.2845192020637972 #
point $-1 -47.111287267220121 -8.261795961120157 5.2845192020637972 #
point $-1 -47.111287267220121 -3.6270011190840989 5.2845192020637972 #
straight-curve $-1 0 32.823104305323817 8.3962516549209187 -1 0 0 I I #
point $-1 46.40168801777827 32.823104305323817 8.396251654920917 #
straight-curve $-1 50.047914059877314 32.823104305323817 0 0 0 -1 I I #
point $-1 50.047914059877314 32.823104305323817 8.3962516549209187 #
point $-1 46.138655818417121 28.525834380384659 4.4869934195643806 #
End-of-ACIS-data 