500 0 9 0           
7 Unknown 11 ACIS 5.0 NT 24 Fri Mar 26 02:26:25 1999 
-1 9.9999999999999995e-007 1e-010 
body $-1 $9 $-1 $10 #
body $-1 $11 $-1 $12 #
body $-1 $13 $-1 $14 #
body $-1 $15 $-1 $16 #
body $-1 $17 $-1 $18 #
body $-1 $19 $-1 $20 #
body $-1 $21 $-1 $22 #
body $-1 $23 $-1 $24 #
body $-1 $25 $-1 $26 #
lump $-1 $-1 $27 $0 #
transform $-1 1 0 0 0 1 0 0 0 1 44.32630390331736 25.169418780002509 6.3685919096957555 1 rotate no_reflect no_shear #
lump $-1 $-1 $28 $1 #
transform $-1 1 0 0 0 1 0 0 0 1 44.32630390331736 25.169418780002509 6.3685919096957555 1 rotate no_reflect no_shear #
lump $-1 $-1 $29 $2 #
transform $-1 1 0 0 0 1 0 0 0 1 44.32630390331736 25.169418780002509 6.3685919096957555 1 rotate no_reflect no_shear #
lump $-1 $-1 $30 $3 #
transform $-1 1 0 0 0 1 0 0 0 1 44.32630390331736 25.169418780002509 6.3685919096957555 1 rotate no_reflect no_shear #
lump $-1 $-1 $31 $4 #
transform $-1 1 0 0 0 1 0 0 0 1 44.32630390331736 25.169418780002509 6.3685919096957555 1 rotate no_reflect no_shear #
lump $-1 $-1 $32 $5 #
transform $-1 1 0 0 0 1 0 0 0 1 44.32630390331736 25.169418780002509 6.3685919096957555 1 rotate no_reflect no_shear #
lump $-1 $-1 $33 $6 #
transform $-1 1 0 0 0 1 0 0 0 1 44.32630390331736 25.169418780002509 6.3685919096957555 1 rotate no_reflect no_shear #
lump $-1 $-1 $34 $7 #
transform $-1 1 0 0 0 1 0 0 0 1 44.32630390331736 25.169418780002509 6.3685919096957555 1 rotate no_reflect no_shear #
lump $-1 $-1 $35 $8 #
transform $-1 1 0 0 0 1 0 0 0 1 44.32630390331736 25.169418780002509 6.3685919096957555 1 rotate no_reflect no_shear #
shell $-1 $-1 $-1 $36 $-1 $9 #
shell $-1 $-1 $-1 $37 $-1 $11 #
shell $-1 $-1 $-1 $38 $-1 $13 #
shell $-1 $-1 $-1 $39 $-1 $15 #
shell $-1 $-1 $-1 $40 $-1 $17 #
shell $-1 $-1 $-1 $41 $-1 $19 #
shell $-1 $-1 $-1 $42 $-1 $21 #
shell $-1 $-1 $-1 $43 $-1 $23 #
shell $-1 $-1 $-1 $44 $-1 $25 #
face $-1 $45 $46 $27 $-1 $47 forward single #
face $-1 $48 $49 $28 $-1 $50 forward single #
face $-1 $51 $52 $29 $-1 $53 forward single #
face $-1 $54 $55 $30 $-1 $56 reversed single #
face $-1 $57 $58 $31 $-1 $59 forward single #
face $-1 $60 $61 $32 $-1 $62 forward single #
face $-1 $63 $64 $33 $-1 $65 reversed single #
face $-1 $66 $67 $34 $-1 $68 forward single #
face $-1 $69 $70 $35 $-1 $71 forward single #
face $-1 $72 $73 $27 $-1 $74 reversed single #
loop $-1 $-1 $75 $36 #
plane-surface $-1 0 0 6.3685919096957555 0 0 1 1 0 0 forward_v I I I I #
face $-1 $76 $77 $28 $-1 $78 reversed single #
loop $-1 $-1 $79 $37 #
plane-surface $-1 -44.32630390331736 0 0 1 0 0 0 0 -1 forward_v I I I I #
face $-1 $80 $81 $29 $-1 $82 reversed single #
loop $-1 $-1 $83 $38 #
plane-surface $-1 44.32630390331736 0 0 -1 0 0 0 0 1 forward_v I I I I #
face $-1 $84 $85 $30 $-1 $86 reversed single #
loop $-1 $-1 $87 $39 #
plane-surface $-1 -36.412733228226962 31.235388927098761 102.26172920129844 1 0 0 0 -0.54463904215088732 -0.83867056331134215 forward_v I I I I #
face $-1 $88 $89 $31 $-1 $90 forward single #
loop $-1 $91 $92 $40 #
cone-surface $-1 -31.990480605166386 19.074639050837174 1.0104102801220347 0 -0.54463904215088732 -0.83867056331134215 1.5 0 0 1 I I 0 1 1.5 forward I I I I #
face $-1 $93 $94 $32 $-1 $95 forward single #
loop $-1 $96 $97 $41 #
cone-surface $-1 -25.357101670575521 19.074639050837174 1.0104102801220347 0 -0.54463904215088732 -0.83867056331134215 1.5 0 0 1 I I 0 1 1.5 forward I I I I #
face $-1 $98 $99 $33 $-1 $100 reversed single #
loop $-1 $-1 $101 $42 #
plane-surface $-1 -20.934849047514945 -73.453090179986319 74.845232929628196 -1 0 0 0 -0.54463904215088732 0.83867056331134215 forward_v I I I I #
face $-1 $102 $103 $34 $-1 $104 forward single #
loop $-1 $105 $106 $43 #
cone-surface $-1 -31.990480605166386 -19.074639050837174 1.0104102801220294 0 0.54463904215088732 -0.83867056331134215 1.5 0 0 1 I I 0 1 1.5 forward I I I I #
face $-1 $107 $108 $35 $-1 $109 forward single #
loop $-1 $110 $111 $44 #
cone-surface $-1 -25.357101670575521 -19.074639050837174 1.0104102801220294 0 0.54463904215088732 -0.83867056331134215 1.5 0 0 1 I I 0 1 1.5 forward I I I I #
face $-1 $112 $113 $27 $-1 $114 reversed single #
loop $-1 $-1 $115 $45 #
plane-surface $-1 0 0 -6.3685919096957555 0 0 1 1 0 0 forward_v I I I I #
coedge $-1 $116 $117 $118 $119 forward $46 $-1 #
face $-1 $120 $121 $28 $-1 $122 forward single #
loop $-1 $-1 $123 $48 #
plane-surface $-1 0 25.169418780002509 0 0 -1 0 0 0 -1 forward_v I I I I #
coedge $-1 $124 $125 $126 $127 forward $49 $-1 #
face $-1 $128 $129 $29 $-1 $130 forward single #
loop $-1 $-1 $131 $51 #
plane-surface $-1 0 25.169418780002509 0 0 -1 0 0 0 -1 forward_v I I I I #
coedge $-1 $132 $133 $134 $135 forward $52 $-1 #
face $-1 $136 $137 $30 $-1 $138 reversed single #
loop $-1 $-1 $139 $54 #
plane-surface $-1 -28.673791137870953 -17.048282472885056 27.911396673088589 0 0.54463904215088732 0.83867056331134215 1 0 0 forward_v I I I I #
coedge $-1 $140 $141 $142 $143 reversed $55 $-1 #
face $-1 $-1 $144 $31 $-1 $145 forward single #
loop $-1 $146 $147 $57 #
cone-surface $-1 -31.990480605166386 17.093725836744433 -2.0399285177965005 0 -0.54463904215088732 -0.83867056331134215 0.75 0 0 1 I I -0.70710678118654757 0.70710678118654757 0.75 forward I I I I #
loop $-1 $-1 $148 $40 #
coedge $-1 $92 $92 $149 $150 reversed $58 $-1 #
face $-1 $-1 $151 $32 $-1 $152 forward single #
loop $-1 $153 $154 $60 #
cone-surface $-1 -25.357101670575521 17.093725836744433 -2.0399285177965005 0 -0.54463904215088732 -0.83867056331134215 0.75 0 0 1 I I -0.70710678118654757 0.70710678118654757 0.75 forward I I I I #
loop $-1 $-1 $155 $41 #
coedge $-1 $97 $97 $156 $157 reversed $61 $-1 #
face $-1 $158 $159 $33 $-1 $160 reversed single #
loop $-1 $-1 $161 $63 #
plane-surface $-1 -28.673791137870953 -25.169418780002502 0.49490040141834868 0 -0.54463904215088732 0.83867056331134215 1 0 0 forward_v I I I I #
coedge $-1 $162 $163 $164 $165 reversed $64 $-1 #
face $-1 $-1 $166 $34 $-1 $167 forward single #
loop $-1 $168 $169 $66 #
cone-surface $-1 -31.990480605166386 -17.093725836744433 -2.0399285177965059 0 0.54463904215088732 -0.83867056331134215 0.75 0 0 1 I I -0.70710678118654757 0.70710678118654757 0.75 forward I I I I #
loop $-1 $-1 $170 $43 #
coedge $-1 $106 $106 $171 $172 reversed $67 $-1 #
face $-1 $-1 $173 $35 $-1 $174 forward single #
loop $-1 $175 $176 $69 #
cone-surface $-1 -25.357101670575521 -17.093725836744433 -2.0399285177965059 0 0.54463904215088732 -0.83867056331134215 0.75 0 0 1 I I -0.70710678118654757 0.70710678118654757 0.75 forward I I I I #
loop $-1 $-1 $177 $44 #
coedge $-1 $111 $111 $178 $179 reversed $70 $-1 #
face $-1 $180 $181 $27 $-1 $182 reversed single #
loop $-1 $-1 $183 $72 #
plane-surface $-1 0 -25.169418780002509 0 0 1 0 0 0 1 forward_v I I I I #
coedge $-1 $184 $185 $186 $187 forward $73 $-1 #
coedge $-1 $188 $75 $189 $190 forward $46 $-1 #
coedge $-1 $75 $188 $191 $192 forward $46 $-1 #
coedge $-1 $193 $194 $75 $119 reversed $195 $-1 #
edge $-1 $196 -25.169418780002509 $197 25.169418780002509 $118 $198 forward 7 unknown #
face $-1 $199 $200 $28 $-1 $201 reversed single #
loop $-1 $-1 $126 $76 #
plane-surface $-1 -48.283089240862559 0 -3.3685919096957555 0 0 1 1 0 0 forward_v I I I I #
coedge $-1 $202 $203 $125 $204 forward $77 $-1 #
coedge $-1 $205 $79 $206 $207 reversed $49 $-1 #
coedge $-1 $79 $205 $123 $204 reversed $49 $-1 #
coedge $-1 $208 $209 $79 $127 reversed $121 $-1 #
edge $-1 $210 -25.169418780002509 $211 25.169418780002509 $126 $212 forward 7 unknown #
face $-1 $213 $214 $29 $-1 $215 reversed single #
loop $-1 $-1 $216 $80 #
plane-surface $-1 48.283089240862559 0 -3.3685919096957555 0 0 1 1 0 0 forward_v I I I I #
coedge $-1 $217 $218 $132 $219 forward $81 $-1 #
coedge $-1 $220 $83 $131 $219 reversed $52 $-1 #
coedge $-1 $83 $220 $221 $222 reversed $52 $-1 #
coedge $-1 $223 $224 $83 $135 reversed $129 $-1 #
edge $-1 $225 -25.169418780002509 $226 25.169418780002509 $134 $227 forward 7 unknown #
face $-1 $228 $229 $30 $-1 $230 reversed single #
loop $-1 $-1 $231 $84 #
plane-surface $-1 -20.934849047514945 31.235388927098761 102.26172920129844 -1 0 0 0 0.54463904215088732 0.83867056331134215 forward_v I I I I #
coedge $-1 $232 $233 $234 $235 reversed $85 $-1 #
coedge $-1 $141 $87 $236 $237 reversed $55 $-1 #
coedge $-1 $87 $140 $232 $238 reversed $55 $-1 #
coedge $-1 $234 $239 $87 $143 forward $240 $-1 #
edge $-1 $241 -9.5517243164531287 $242 -0.50703272308157565 $142 $243 forward 7 unknown #
loop $-1 $-1 $149 $88 #
plane-surface $-1 -28.673791137870953 -17.048282472885056 27.911396673088589 0 0.54463904215088732 0.83867056331134215 1 0 0 forward_v I I I I #
loop $-1 $-1 $244 $57 #
coedge $-1 $147 $147 $148 $245 reversed $89 $-1 #
coedge $-1 $148 $148 $147 $245 forward $91 $-1 #
coedge $-1 $149 $149 $92 $150 forward $144 $-1 #
edge $-1 $246 -6.5195470021533459e-016 $246 6.2831853071795996 $149 $247 forward 7 unknown #
loop $-1 $-1 $156 $93 #
plane-surface $-1 -28.673791137870953 -17.048282472885056 27.911396673088589 0 0.54463904215088732 0.83867056331134215 1 0 0 forward_v I I I I #
loop $-1 $-1 $248 $60 #
coedge $-1 $154 $154 $155 $249 reversed $94 $-1 #
coedge $-1 $155 $155 $154 $249 forward $96 $-1 #
coedge $-1 $156 $156 $97 $157 forward $151 $-1 #
edge $-1 $250 -6.5195470021533459e-016 $250 6.2831853071795996 $156 $251 forward 7 unknown #
face $-1 $252 $253 $33 $-1 $254 forward single #
loop $-1 $-1 $255 $98 #
plane-surface $-1 -36.412733228226962 -73.453090179986319 74.845232929628196 1 0 0 0 0.54463904215088732 -0.83867056331134215 forward_v I I I I #
coedge $-1 $256 $257 $258 $259 reversed $99 $-1 #
coedge $-1 $163 $101 $260 $261 reversed $64 $-1 #
coedge $-1 $101 $162 $256 $262 reversed $64 $-1 #
coedge $-1 $258 $263 $101 $165 forward $253 $-1 #
edge $-1 $264 11.55712630999065 $265 20.6018179033622 $164 $266 forward 7 unknown #
loop $-1 $-1 $171 $102 #
plane-surface $-1 -28.673791137870953 -25.169418780002502 0.49490040141834868 0 -0.54463904215088732 0.83867056331134215 1 0 0 forward_v I I I I #
loop $-1 $-1 $267 $66 #
coedge $-1 $169 $169 $170 $268 reversed $103 $-1 #
coedge $-1 $170 $170 $169 $268 forward $105 $-1 #
coedge $-1 $171 $171 $106 $172 forward $166 $-1 #
edge $-1 $269 5.4213349875790395e-016 $269 6.2831853071796013 $171 $270 forward 7 unknown #
loop $-1 $-1 $178 $107 #
plane-surface $-1 -28.673791137870953 -25.169418780002502 0.49490040141834868 0 -0.54463904215088732 0.83867056331134215 1 0 0 forward_v I I I I #
loop $-1 $-1 $271 $69 #
coedge $-1 $176 $176 $177 $272 reversed $108 $-1 #
coedge $-1 $177 $177 $176 $272 forward $110 $-1 #
coedge $-1 $178 $178 $111 $179 forward $173 $-1 #
edge $-1 $273 5.4213349875790395e-016 $273 6.2831853071796013 $178 $274 forward 7 unknown #
face $-1 $275 $276 $27 $-1 $277 reversed single #
loop $-1 $-1 $278 $112 #
plane-surface $-1 -44.32630390331736 0 0 1 0 0 0 0 -1 forward_v I I I I #
coedge $-1 $279 $191 $280 $281 forward $113 $-1 #
coedge $-1 $282 $115 $279 $283 forward $73 $-1 #
coedge $-1 $115 $282 $284 $285 forward $73 $-1 #
coedge $-1 $194 $193 $115 $187 reversed $195 $-1 #
edge $-1 $286 -25.169418780002509 $287 25.169418780002509 $186 $288 forward 7 unknown #
coedge $-1 $117 $116 $289 $290 forward $46 $-1 #
coedge $-1 $291 $292 $116 $190 reversed $276 $-1 #
edge $-1 $197 -44.32630390331736 $293 44.32630390331736 $189 $294 forward 7 unknown #
coedge $-1 $183 $295 $117 $192 reversed $113 $-1 #
edge $-1 $296 -44.32630390331736 $196 44.32630390331736 $191 $297 forward 7 unknown #
coedge $-1 $186 $118 $295 $298 forward $195 $-1 #
coedge $-1 $118 $186 $291 $299 reversed $195 $-1 #
loop $-1 $-1 $193 $275 #
vertex $-1 $119 $300 #
vertex $-1 $119 $301 #
straight-curve $-1 44.32630390331736 0 6.3685919096957555 0 1 0 I I #
face $-1 $302 $303 $28 $-1 $304 reversed single #
loop $-1 $-1 $305 $120 #
plane-surface $-1 -52.239874578407758 0 -4.8685919096957555 1 0 0 0 0 -1 forward_v I I I I #
coedge $-1 $306 $123 $307 $308 reversed $77 $-1 #
coedge $-1 $123 $306 $208 $309 reversed $77 $-1 #
edge $-1 $210 3.3685919096957555 $310 6.3685919096957555 $123 $311 forward 7 unknown #
coedge $-1 $125 $124 $312 $313 reversed $49 $-1 #
coedge $-1 $314 $315 $124 $207 forward $316 $-1 #
edge $-1 $317 -6.3685919096957555 $211 -3.3685919096957555 $206 $318 forward 7 unknown #
coedge $-1 $319 $126 $203 $309 forward $121 $-1 #
coedge $-1 $126 $319 $314 $320 forward $121 $-1 #
vertex $-1 $204 $321 #
vertex $-1 $320 $322 #
straight-curve $-1 -44.32630390331736 0 -3.3685919096957555 0 -1 0 I I #
face $-1 $323 $324 $29 $-1 $325 reversed single #
loop $-1 $-1 $326 $128 #
plane-surface $-1 52.239874578407758 0 -4.8685919096957555 -1 0 0 0 0 1 forward_v I I I I #
coedge $-1 $224 $223 $327 $328 forward $129 $-1 #
coedge $-1 $329 $131 $224 $330 reversed $81 $-1 #
coedge $-1 $131 $329 $331 $332 reversed $81 $-1 #
edge $-1 $333 -6.3685919096957555 $226 -3.3685919096957555 $131 $334 forward 7 unknown #
coedge $-1 $133 $132 $335 $336 reversed $52 $-1 #
coedge $-1 $337 $338 $133 $222 forward $339 $-1 #
edge $-1 $225 3.3685919096957555 $340 6.3685919096957555 $221 $341 forward 7 unknown #
coedge $-1 $216 $134 $338 $342 forward $129 $-1 #
coedge $-1 $134 $216 $217 $330 forward $129 $-1 #
vertex $-1 $222 $343 #
vertex $-1 $330 $344 #
straight-curve $-1 44.32630390331736 0 -3.3685919096957555 0 1 0 I I #
face $-1 $-1 $240 $30 $-1 $345 forward single #
loop $-1 $-1 $346 $136 #
plane-surface $-1 0 25.169418780002509 0 0 -1 0 0 0 -1 forward_v I I I I #
coedge $-1 $347 $348 $349 $350 reversed $137 $-1 #
coedge $-1 $351 $139 $141 $238 forward $85 $-1 #
coedge $-1 $139 $351 $347 $352 forward $85 $-1 #
coedge $-1 $349 $142 $139 $235 forward $240 $-1 #
edge $-1 $242 -22.075837659291487 $353 -6.597953478579468 $234 $354 forward 7 unknown #
coedge $-1 $355 $356 $140 $237 forward $229 $-1 #
edge $-1 $357 -50.635964199230877 $241 -44.762272690953466 $236 $358 forward 7 unknown #
edge $-1 $242 39.554279249456734 $357 50.338837560005025 $141 $359 forward 7 unknown #
coedge $-1 $142 $349 $355 $360 forward $240 $-1 #
loop $-1 $-1 $349 $228 #
vertex $-1 $237 $361 #
vertex $-1 $143 $362 #
straight-curve $-1 -36.412733228226962 15.61769446354938 6.3685919096957591 0 -1 0 I I #
coedge $-1 $244 $244 $-1 $363 reversed $146 $-1 #
edge $-1 $364 0 $364 6.2831853071796004 $147 $365 forward 7 unknown #
vertex $-1 $150 $366 #
ellipse-curve $-1 -31.990480605166386 20.647072983316736 3.4317461555570454 0 0.54463904215088732 0.83867056331134215 1.5 0 0 1 I I #
coedge $-1 $248 $248 $-1 $367 reversed $153 $-1 #
edge $-1 $368 0 $368 6.2831853071796004 $154 $369 forward 7 unknown #
vertex $-1 $157 $370 #
ellipse-curve $-1 -25.357101670575521 20.647072983316736 3.4317461555570454 0 0.54463904215088732 0.83867056331134215 1.5 0 0 1 I I #
face $-1 $-1 $371 $33 $-1 $372 reversed single #
loop $-1 $-1 $164 $158 #
plane-surface $-1 0 0 6.3685919096957555 0 0 1 1 0 0 forward_v I I I I #
coedge $-1 $373 $374 $375 $376 reversed $159 $-1 #
coedge $-1 $377 $161 $163 $262 forward $99 $-1 #
coedge $-1 $161 $377 $373 $378 forward $99 $-1 #
coedge $-1 $375 $164 $161 $259 forward $253 $-1 #
edge $-1 $265 6.597953478579468 $379 22.075837659291487 $258 $380 forward 7 unknown #
coedge $-1 $381 $382 $162 $261 forward $371 $-1 #
edge $-1 $383 -36.927716063395756 $264 -31.054024555118342 $260 $384 forward 7 unknown #
edge $-1 $265 -10.784558310548279 $383 8.4684966040957343e-015 $163 $385 forward 7 unknown #
coedge $-1 $164 $375 $381 $386 forward $253 $-1 #
vertex $-1 $261 $387 #
vertex $-1 $165 $388 #
straight-curve $-1 -20.934849047514945 -36.726545089993159 6.3685919096957591 0 1 0 I I #
coedge $-1 $267 $267 $-1 $389 reversed $168 $-1 #
edge $-1 $390 0 $390 6.2831853071796004 $169 $391 forward 7 unknown #
vertex $-1 $172 $392 #
ellipse-curve $-1 -31.990480605166386 -20.64707298331674 3.4317461555570459 0 -0.54463904215088732 0.83867056331134215 1.5 0 0 1 I I #
coedge $-1 $271 $271 $-1 $393 reversed $175 $-1 #
edge $-1 $394 0 $394 6.2831853071796004 $176 $395 forward 7 unknown #
vertex $-1 $179 $396 #
ellipse-curve $-1 -25.357101670575521 -20.64707298331674 3.4317461555570459 0 -0.54463904215088732 0.83867056331134215 1.5 0 0 1 I I #
face $-1 $-1 $195 $27 $-1 $397 reversed single #
loop $-1 $-1 $291 $180 #
plane-surface $-1 0 25.169418780002509 0 0 -1 0 0 0 -1 forward_v I I I I #
coedge $-1 $398 $289 $292 $399 forward $181 $-1 #
coedge $-1 $295 $183 $184 $283 reversed $113 $-1 #
coedge $-1 $289 $398 $183 $281 reversed $181 $-1 #
edge $-1 $296 -6.3685919096957555 $400 6.3685919096957555 $280 $401 forward 7 unknown #
coedge $-1 $185 $184 $398 $402 forward $73 $-1 #
edge $-1 $287 -44.32630390331736 $400 44.32630390331736 $279 $403 forward 7 unknown #
coedge $-1 $292 $291 $185 $285 reversed $276 $-1 #
edge $-1 $404 -44.32630390331736 $286 44.32630390331736 $284 $405 forward 7 unknown #
vertex $-1 $187 $406 #
vertex $-1 $298 $407 #
straight-curve $-1 44.32630390331736 0 -6.3685919096957555 0 -1 0 I I #
coedge $-1 $278 $280 $188 $290 reversed $181 $-1 #
edge $-1 $293 -25.169418780002509 $296 25.169418780002509 $289 $408 forward 7 unknown #
coedge $-1 $284 $189 $194 $299 forward $276 $-1 #
coedge $-1 $189 $284 $278 $399 reversed $276 $-1 #
vertex $-1 $190 $409 #
straight-curve $-1 0 25.169418780002509 6.3685919096957555 -1 0 0 I I #
coedge $-1 $191 $279 $193 $298 reversed $113 $-1 #
vertex $-1 $290 $410 #
straight-curve $-1 0 -25.169418780002509 6.3685919096957555 1 0 0 I I #
edge $-1 $196 -6.3685919096957555 $287 6.3685919096957555 $193 $411 forward 7 unknown #
edge $-1 $197 -6.3685919096957555 $286 6.3685919096957555 $194 $412 forward 7 unknown #
point $-1 44.32630390331736 -25.169418780002509 6.3685919096957555 #
point $-1 44.32630390331736 25.169418780002509 6.3685919096957555 #
face $-1 $-1 $316 $28 $-1 $413 reversed single #
loop $-1 $-1 $312 $199 #
plane-surface $-1 0 0 -6.3685919096957555 0 0 1 1 0 0 forward_v I I I I #
coedge $-1 $414 $415 $306 $416 forward $200 $-1 #
coedge $-1 $203 $202 $305 $416 reversed $77 $-1 #
coedge $-1 $312 $417 $202 $308 forward $303 $-1 #
edge $-1 $418 -52.239874578407758 $310 -44.32630390331736 $202 $419 forward 7 unknown #
edge $-1 $210 -3.9567853375451989 $420 3.9567853375451989 $203 $421 forward 7 unknown #
vertex $-1 $204 $422 #
straight-curve $-1 -44.32630390331736 25.169418780002509 0 0 0 -1 I I #
coedge $-1 $423 $307 $205 $313 forward $303 $-1 #
edge $-1 $310 -25.169418780002509 $317 25.169418780002509 $312 $424 forward 7 unknown #
coedge $-1 $425 $206 $209 $320 reversed $316 $-1 #
coedge $-1 $206 $425 $423 $426 reversed $316 $-1 #
loop $-1 $-1 $206 $302 #
vertex $-1 $426 $427 #
straight-curve $-1 -44.32630390331736 -25.169418780002509 0 0 0 1 I I #
coedge $-1 $209 $208 $415 $428 forward $121 $-1 #
edge $-1 $429 -3.9567853375451989 $211 3.9567853375451989 $314 $430 forward 7 unknown #
point $-1 -44.32630390331736 25.169418780002509 -3.3685919096957555 #
point $-1 -44.32630390331736 -25.169418780002509 -3.3685919096957555 #
face $-1 $-1 $339 $29 $-1 $431 reversed single #
loop $-1 $-1 $335 $213 #
plane-surface $-1 0 0 -6.3685919096957555 0 0 1 1 0 0 forward_v I I I I #
coedge $-1 $432 $327 $433 $434 forward $214 $-1 #
coedge $-1 $326 $435 $216 $328 reversed $214 $-1 #
edge $-1 $436 -25.169418780002509 $437 25.169418780002509 $327 $438 forward 7 unknown #
coedge $-1 $218 $217 $435 $439 forward $81 $-1 #
edge $-1 $437 -3.9567853375451989 $226 3.9567853375451989 $217 $440 forward 7 unknown #
coedge $-1 $441 $335 $218 $332 forward $324 $-1 #
edge $-1 $333 -3.9567853375451989 $442 3.9567853375451989 $218 $443 forward 7 unknown #
vertex $-1 $332 $444 #
straight-curve $-1 44.32630390331736 25.169418780002509 0 0 0 1 I I #
coedge $-1 $331 $445 $220 $336 forward $324 $-1 #
edge $-1 $340 -25.169418780002509 $333 25.169418780002509 $335 $446 forward 7 unknown #
coedge $-1 $433 $221 $445 $447 reversed $339 $-1 #
coedge $-1 $221 $433 $223 $342 reversed $339 $-1 #
loop $-1 $-1 $221 $323 #
vertex $-1 $222 $448 #
straight-curve $-1 44.32630390331736 -25.169418780002509 0 0 0 -1 I I #
edge $-1 $225 -3.9567853375451989 $436 3.9567853375451989 $338 $449 forward 7 unknown #
point $-1 44.32630390331736 -25.169418780002509 -3.3685919096957555 #
point $-1 44.32630390331736 25.169418780002509 -3.3685919096957555 #
plane-surface $-1 0 0 6.3685919096957555 0 0 1 1 0 0 forward_v I I I I #
coedge $-1 $356 $355 $348 $450 forward $229 $-1 #
coedge $-1 $348 $231 $233 $352 reversed $137 $-1 #
coedge $-1 $231 $347 $346 $450 reversed $137 $-1 #
coedge $-1 $239 $234 $231 $350 forward $240 $-1 #
edge $-1 $353 0.50703272308157565 $451 9.5517243164531287 $349 $452 forward 7 unknown #
coedge $-1 $233 $232 $356 $453 reversed $85 $-1 #
edge $-1 $454 -50.338837560005025 $353 -39.554279249456734 $347 $455 forward 7 unknown #
vertex $-1 $235 $456 #
straight-curve $-1 -14.336895568935477 16.124727186630956 6.3685919096957537 1 0 0 I I #
coedge $-1 $346 $236 $239 $360 reversed $229 $-1 #
coedge $-1 $236 $346 $351 $453 forward $229 $-1 #
vertex $-1 $237 $457 #
straight-curve $-1 -36.412733228226962 25.169418780002509 51.130864600649218 0 0 1 I I #
straight-curve $-1 -36.412733228226962 -17.048282472885056 27.911396673088589 0 0.83867056331134215 -0.54463904215088732 I I #
edge $-1 $451 20.934849047514945 $241 36.412733228226962 $355 $458 forward 7 unknown #
point $-1 -36.412733228226962 25.169418780002509 6.3685919096957555 #
point $-1 -36.412733228226962 16.124727186630956 6.3685919096957555 #
edge $-1 $459 1 $459 0 $244 $-1 forward 7 unknown #
vertex $-1 $245 $460 #
ellipse-curve $-1 -31.990480605166386 17.502205118357598 -1.4109255953129938 0 0.54463904215088732 0.83867056331134215 1.5 0 0 1 I I #
point $-1 -30.490480605166386 20.647072983316747 3.4317461555570636 #
edge $-1 $461 1 $461 0 $248 $-1 forward 7 unknown #
vertex $-1 $249 $462 #
ellipse-curve $-1 -25.357101670575521 17.502205118357598 -1.4109255953129938 0 0.54463904215088732 0.83867056331134215 1.5 0 0 1 I I #
point $-1 -23.857101670575521 20.647072983316747 3.4317461555570636 #
loop $-1 $-1 $260 $252 #
plane-surface $-1 0 -25.169418780002509 0 0 1 0 0 0 1 forward_v I I I I #
coedge $-1 $374 $255 $257 $378 reversed $159 $-1 #
coedge $-1 $255 $373 $463 $464 reversed $159 $-1 #
coedge $-1 $263 $258 $255 $376 forward $253 $-1 #
edge $-1 $379 -20.6018179033622 $465 -11.55712630999065 $375 $466 forward 7 unknown #
coedge $-1 $257 $256 $382 $467 reversed $99 $-1 #
edge $-1 $468 -8.4684966040957343e-015 $379 10.784558310548279 $373 $469 forward 7 unknown #
vertex $-1 $259 $470 #
straight-curve $-1 -14.336895568935477 -16.12472718663096 6.3685919096957555 -1 0 0 I I #
coedge $-1 $463 $260 $263 $386 reversed $371 $-1 #
coedge $-1 $260 $463 $377 $467 forward $371 $-1 #
vertex $-1 $261 $471 #
straight-curve $-1 -20.934849047514945 -25.169418780002509 37.422616464814098 0 0 1 I I #
straight-curve $-1 -20.934849047514945 -25.169418780002502 0.49490040141834868 0 -0.83867056331134215 -0.54463904215088732 I I #
edge $-1 $465 -36.412733228226962 $264 -20.934849047514945 $381 $472 forward 7 unknown #
point $-1 -20.934849047514945 -25.169418780002509 6.3685919096957555 #
point $-1 -20.934849047514945 -16.12472718663096 6.3685919096957546 #
edge $-1 $473 1 $473 0 $267 $-1 forward 7 unknown #
vertex $-1 $268 $474 #
ellipse-curve $-1 -31.990480605166386 -17.502205118357598 -1.4109255953129991 0 -0.54463904215088732 0.83867056331134215 1.5 0 0 1 I I #
point $-1 -30.490480605166386 -20.647072983316747 3.4317461555570583 #
edge $-1 $475 1 $475 0 $271 $-1 forward 7 unknown #
vertex $-1 $272 $476 #
ellipse-curve $-1 -25.357101670575521 -17.502205118357598 -1.4109255953129991 0 -0.54463904215088732 0.83867056331134215 1.5 0 0 1 I I #
point $-1 -23.857101670575521 -20.647072983316747 3.4317461555570583 #
plane-surface $-1 44.32630390331736 0 0 -1 0 0 0 0 1 forward_v I I I I #
coedge $-1 $280 $278 $282 $402 reversed $181 $-1 #
edge $-1 $293 -6.3685919096957555 $404 6.3685919096957555 $292 $477 forward 7 unknown #
vertex $-1 $402 $478 #
straight-curve $-1 -44.32630390331736 -25.169418780002509 0 0 0 -1 I I #
edge $-1 $400 -25.169418780002509 $404 25.169418780002509 $398 $479 forward 7 unknown #
straight-curve $-1 0 -25.169418780002509 -6.3685919096957555 -1 0 0 I I #
vertex $-1 $285 $480 #
straight-curve $-1 0 25.169418780002509 -6.3685919096957555 1 0 0 I I #
point $-1 44.32630390331736 25.169418780002509 -6.3685919096957555 #
point $-1 44.32630390331736 -25.169418780002509 -6.3685919096957555 #
straight-curve $-1 -44.32630390331736 0 6.3685919096957555 0 -1 0 I I #
point $-1 -44.32630390331736 25.169418780002509 6.3685919096957555 #
point $-1 -44.32630390331736 -25.169418780002509 6.3685919096957555 #
straight-curve $-1 44.32630390331736 -25.169418780002509 0 0 0 -1 I I #
straight-curve $-1 44.32630390331736 25.169418780002509 0 0 0 -1 I I #
plane-surface $-1 0 -25.169418780002509 0 0 1 0 0 0 1 forward_v I I I I #
coedge $-1 $481 $305 $417 $482 reversed $200 $-1 #
coedge $-1 $305 $481 $319 $428 reversed $200 $-1 #
edge $-1 $420 -1.5 $418 1.5 $306 $483 forward 7 unknown #
coedge $-1 $307 $423 $414 $482 forward $303 $-1 #
vertex $-1 $308 $484 #
straight-curve $-1 0 25.169418780002509 -6.3685919096957555 1 0 0 I I #
vertex $-1 $309 $485 #
straight-curve $-1 -48.283089240862559 25.169418780002509 -3.3685919096957555 -1 0 0 I I #
point $-1 -44.32630390331736 25.169418780002509 -6.3685919096957555 #
coedge $-1 $417 $312 $315 $426 forward $303 $-1 #
straight-curve $-1 -44.32630390331736 0 -6.3685919096957555 0 -1 0 I I #
coedge $-1 $315 $314 $481 $486 forward $316 $-1 #
edge $-1 $317 -3.9567853375451989 $487 3.9567853375451989 $315 $488 forward 7 unknown #
point $-1 -44.32630390331736 -25.169418780002509 -6.3685919096957555 #
edge $-1 $420 -25.169418780002509 $429 25.169418780002509 $415 $489 forward 7 unknown #
vertex $-1 $428 $490 #
straight-curve $-1 -48.283089240862559 -25.169418780002509 -3.3685919096957555 1 0 0 I I #
plane-surface $-1 0 -25.169418780002509 0 0 1 0 0 0 1 forward_v I I I I #
coedge $-1 $435 $326 $441 $491 reversed $214 $-1 #
coedge $-1 $338 $337 $326 $434 reversed $339 $-1 #
edge $-1 $436 -1.5 $492 1.5 $326 $493 forward 7 unknown #
coedge $-1 $327 $432 $329 $439 reversed $214 $-1 #
vertex $-1 $328 $494 #
vertex $-1 $328 $495 #
straight-curve $-1 52.239874578407758 0 -3.3685919096957555 0 1 0 I I #
edge $-1 $437 -1.5 $442 1.5 $435 $496 forward 7 unknown #
straight-curve $-1 48.283089240862559 25.169418780002509 -3.3685919096957555 -1 0 0 I I #
coedge $-1 $445 $331 $432 $491 forward $324 $-1 #
vertex $-1 $491 $497 #
straight-curve $-1 48.283089240862559 25.169418780002509 -6.3685919096957555 1 0 0 I I #
point $-1 44.32630390331736 25.169418780002509 -6.3685919096957555 #
coedge $-1 $335 $441 $337 $447 forward $324 $-1 #
straight-curve $-1 44.32630390331736 0 -6.3685919096957555 0 1 0 I I #
edge $-1 $492 -3.9567853375451989 $340 3.9567853375451989 $337 $498 forward 7 unknown #
point $-1 44.32630390331736 -25.169418780002509 -6.3685919096957555 #
straight-curve $-1 48.283089240862559 -25.169418780002509 -3.3685919096957555 1 0 0 I I #
edge $-1 $451 44.762272690953466 $454 50.635964199230877 $346 $499 forward 7 unknown #
vertex $-1 $360 $500 #
straight-curve $-1 -20.934849047514945 15.61769446354938 6.3685919096957591 0 1 0 I I #
edge $-1 $454 6.597953478579468 $357 22.075837659291487 $356 $501 forward 7 unknown #
vertex $-1 $453 $502 #
straight-curve $-1 -20.934849047514945 -17.048282472885056 27.911396673088589 0 -0.83867056331134215 0.54463904215088732 I I #
point $-1 -20.934849047514945 16.124727186630956 6.3685919096957555 #
point $-1 -36.412733228226962 25.169418780002509 0.49490040141834157 #
straight-curve $-1 0 25.169418780002509 6.3685919096957555 -1 0 0 I I #
vertex $-1 $363 $503 #
point $-1 -30.490480605166386 17.502205118357598 -1.4109255953129938 #
vertex $-1 $367 $504 #
point $-1 -23.857101670575521 17.502205118357598 -1.4109255953129938 #
coedge $-1 $382 $381 $374 $464 forward $371 $-1 #
edge $-1 $465 31.054024555118342 $468 36.927716063395756 $463 $505 forward 7 unknown #
vertex $-1 $386 $506 #
straight-curve $-1 -36.412733228226962 -36.726545089993159 6.3685919096957591 0 -1 0 I I #
edge $-1 $468 -22.075837659291487 $383 -6.597953478579468 $382 $507 forward 7 unknown #
vertex $-1 $467 $508 #
straight-curve $-1 -36.412733228226962 -25.169418780002502 0.49490040141834868 0 0.83867056331134215 0.54463904215088732 I I #
point $-1 -36.412733228226962 -16.12472718663096 6.3685919096957546 #
point $-1 -20.934849047514945 -25.169418780002509 0.49490040141834407 #
straight-curve $-1 0 -25.169418780002509 6.3685919096957555 1 0 0 I I #
vertex $-1 $389 $509 #
point $-1 -30.490480605166386 -17.502205118357598 -1.4109255953129991 #
vertex $-1 $393 $510 #
point $-1 -23.857101670575521 -17.502205118357598 -1.4109255953129991 #
straight-curve $-1 -44.32630390331736 25.169418780002509 0 0 0 -1 I I #
point $-1 -44.32630390331736 -25.169418780002509 -6.3685919096957555 #
straight-curve $-1 -44.32630390331736 0 -6.3685919096957555 0 1 0 I I #
point $-1 -44.32630390331736 25.169418780002509 -6.3685919096957555 #
coedge $-1 $415 $414 $425 $486 reversed $200 $-1 #
edge $-1 $487 -25.169418780002509 $418 25.169418780002509 $414 $511 forward 7 unknown #
straight-curve $-1 -52.239874578407758 25.169418780002509 -4.8685919096957555 0 0 -1 I I #
point $-1 -52.239874578407758 25.169418780002509 -6.3685919096957555 #
point $-1 -52.239874578407758 25.169418780002509 -3.3685919096957555 #
edge $-1 $429 -1.5 $487 1.5 $481 $512 forward 7 unknown #
vertex $-1 $482 $513 #
straight-curve $-1 -48.283089240862559 -25.169418780002509 -6.3685919096957555 -1 0 0 I I #
straight-curve $-1 -52.239874578407758 0 -3.3685919096957555 0 -1 0 I I #
point $-1 -52.239874578407758 -25.169418780002509 -3.3685919096957555 #
edge $-1 $442 -25.169418780002509 $492 25.169418780002509 $432 $514 forward 7 unknown #
vertex $-1 $434 $515 #
straight-curve $-1 52.239874578407758 -25.169418780002509 -4.8685919096957555 0 0 -1 I I #
point $-1 52.239874578407758 -25.169418780002509 -3.3685919096957555 #
point $-1 52.239874578407758 25.169418780002509 -3.3685919096957555 #
straight-curve $-1 52.239874578407758 25.169418780002509 -4.8685919096957555 0 0 -1 I I #
point $-1 52.239874578407758 25.169418780002509 -6.3685919096957555 #
straight-curve $-1 48.283089240862559 -25.169418780002509 -6.3685919096957555 -1 0 0 I I #
straight-curve $-1 -20.934849047514945 25.169418780002509 51.130864600649218 0 0 -1 I I #
point $-1 -20.934849047514945 25.169418780002509 6.3685919096957555 #
straight-curve $-1 -14.336895568935477 25.169418780002509 0.49490040141834157 -1 0 0 I I #
point $-1 -20.934849047514945 25.169418780002509 0.49490040141834157 #
point $-1 -31.990480605166386 16.685246555131268 -2.6689314402800073 #
point $-1 -25.357101670575521 16.685246555131268 -2.6689314402800073 #
straight-curve $-1 -36.412733228226962 -25.169418780002509 37.422616464814098 0 0 -1 I I #
point $-1 -36.412733228226962 -25.169418780002509 6.3685919096957555 #
straight-curve $-1 -14.336895568935477 -25.169418780002509 0.49490040141834329 1 0 0 I I #
point $-1 -36.412733228226962 -25.169418780002509 0.49490040141834407 #
point $-1 -31.990480605166386 -16.685246555131268 -2.6689314402800126 #
point $-1 -25.357101670575521 -16.685246555131268 -2.6689314402800126 #
straight-curve $-1 -52.239874578407758 0 -6.3685919096957555 0 1 0 I I #
straight-curve $-1 -52.239874578407758 -25.169418780002509 -4.8685919096957555 0 0 -1 I I #
point $-1 -52.239874578407758 -25.169418780002509 -6.3685919096957555 #
straight-curve $-1 52.239874578407758 0 -6.3685919096957555 0 -1 0 I I #
point $-1 52.239874578407758 -25.169418780002509 -6.3685919096957555 #
End-of-ACIS-data 