500 0 8 0           
7 Unknown 11 ACIS 5.0 NT 24 Thu Mar 25 23:25:48 1999 
-1 9.9999999999999995e-007 1e-010 
body $-1 $8 $-1 $9 #
body $-1 $10 $-1 $11 #
body $-1 $12 $-1 $13 #
body $-1 $14 $-1 $15 #
body $-1 $16 $-1 $17 #
body $-1 $18 $-1 $19 #
body $-1 $20 $-1 $21 #
body $-1 $22 $-1 $23 #
lump $-1 $-1 $24 $0 #
transform $-1 1 0 0 0 1 0 0 0 1 49.304483169042022 25.956214029794971 6.3661522163106259 1 rotate no_reflect no_shear #
lump $-1 $-1 $25 $1 #
transform $-1 1 0 0 0 1 0 0 0 1 49.304483169042022 25.956214029794971 6.3661522163106259 1 rotate no_reflect no_shear #
lump $-1 $-1 $26 $2 #
transform $-1 1 0 0 0 1 0 0 0 1 49.304483169042022 25.956214029794971 6.3661522163106259 1 rotate no_reflect no_shear #
lump $-1 $-1 $27 $3 #
transform $-1 1 0 0 0 1 0 0 0 1 49.304483169042022 25.956214029794971 6.3661522163106259 1 rotate no_reflect no_shear #
lump $-1 $-1 $28 $4 #
transform $-1 1 0 0 0 1 0 0 0 1 49.304483169042022 25.956214029794971 6.3661522163106259 1 rotate no_reflect no_shear #
lump $-1 $-1 $29 $5 #
transform $-1 1 0 0 0 1 0 0 0 1 49.304483169042022 25.956214029794971 6.3661522163106259 1 rotate no_reflect no_shear #
lump $-1 $-1 $30 $6 #
transform $-1 1 0 0 0 1 0 0 0 1 49.304483169042022 25.956214029794971 6.3661522163106259 1 rotate no_reflect no_shear #
lump $-1 $-1 $31 $7 #
transform $-1 1 0 0 0 1 0 0 0 1 49.304483169042022 25.956214029794971 6.3661522163106259 1 rotate no_reflect no_shear #
shell $-1 $-1 $-1 $32 $-1 $8 #
shell $-1 $-1 $-1 $33 $-1 $10 #
shell $-1 $-1 $-1 $34 $-1 $12 #
shell $-1 $-1 $-1 $35 $-1 $14 #
shell $-1 $-1 $-1 $36 $-1 $16 #
shell $-1 $-1 $-1 $37 $-1 $18 #
shell $-1 $-1 $-1 $38 $-1 $20 #
shell $-1 $-1 $-1 $39 $-1 $22 #
face $-1 $40 $41 $24 $-1 $42 forward single #
face $-1 $43 $44 $25 $-1 $45 forward single #
face $-1 $46 $47 $26 $-1 $48 reversed single #
face $-1 $49 $50 $27 $-1 $51 forward single #
face $-1 $52 $53 $28 $-1 $54 forward single #
face $-1 $55 $56 $29 $-1 $57 reversed single #
face $-1 $58 $59 $30 $-1 $60 forward single #
face $-1 $61 $62 $31 $-1 $63 forward single #
face $-1 $64 $65 $24 $-1 $66 reversed single #
loop $-1 $-1 $67 $32 #
plane-surface $-1 0 0 6.3661522163106259 0 0 1 1 0 0 forward_v I I I I #
face $-1 $68 $69 $25 $-1 $70 reversed single #
loop $-1 $-1 $71 $33 #
plane-surface $-1 -49.304483169042022 0 0 1 0 0 0 0 -1 forward_v I I I I #
face $-1 $72 $73 $26 $-1 $74 reversed single #
loop $-1 $-1 $75 $34 #
plane-surface $-1 1.2212117114863226 -103.66114072020784 61.960477774910458 -1 0 0 0 -0.78801076186113728 0.61566146476048833 forward_v I I I I #
face $-1 $76 $77 $27 $-1 $78 forward single #
loop $-1 $79 $80 $35 #
cone-surface $-1 -13.908462714775808 -22.713875649358954 2.8364954591933467 0 0.78801076186113728 -0.61566146476048833 1 0 0 1 I I 0 1 1 forward I I I I #
face $-1 $81 $82 $28 $-1 $83 forward single #
loop $-1 $84 $85 $36 #
cone-surface $-1 -4.8306580590185249 -22.713875649358954 2.8364954591933467 0 0.78801076186113728 -0.61566146476048833 1 0 0 1 I I 0 1 1 forward I I I I #
face $-1 $86 $87 $29 $-1 $88 reversed single #
loop $-1 $-1 $89 $37 #
plane-surface $-1 30.780692380944203 62.670057045539032 107.12694085580388 1 0 0 0 -0.73135370988377701 -0.68199835119979291 forward_v I I I I #
face $-1 $90 $91 $30 $-1 $92 forward single #
loop $-1 $93 $94 $38 #
cone-surface $-1 34.306770851576438 22.327240046485137 2.6914668884219566 0 -0.73135370988377701 -0.68199835119979291 1.5 0 0 1 I I 0 1 1.5 forward I I I I #
face $-1 $95 $96 $31 $-1 $97 forward single #
loop $-1 $98 $99 $39 #
cone-surface $-1 39.595888557524781 22.327240046485137 2.6914668884219566 0 -0.73135370988377701 -0.68199835119979291 1.5 0 0 1 I I 0 1 1.5 forward I I I I #
face $-1 $100 $101 $24 $-1 $102 reversed single #
loop $-1 $-1 $103 $40 #
plane-surface $-1 0 0 -6.3661522163106259 0 0 1 1 0 0 forward_v I I I I #
coedge $-1 $104 $105 $106 $107 forward $41 $-1 #
face $-1 $108 $109 $25 $-1 $110 forward single #
loop $-1 $-1 $111 $43 #
plane-surface $-1 0 25.956214029794971 0 0 -1 0 0 0 -1 forward_v I I I I #
coedge $-1 $112 $113 $114 $115 forward $44 $-1 #
face $-1 $116 $117 $26 $-1 $118 reversed single #
loop $-1 $-1 $119 $46 #
plane-surface $-1 -9.3695603868971702 -25.956214029794992 1.2507371206879512 0 -0.78801076186113728 0.61566146476048833 1 0 0 forward_v I I I I #
coedge $-1 $120 $121 $122 $123 reversed $47 $-1 #
face $-1 $-1 $124 $27 $-1 $125 forward single #
loop $-1 $126 $127 $49 #
cone-surface $-1 -13.908462714775808 -21.075831976680721 1.5567155175071647 0 0.78801076186113728 -0.61566146476048833 0.5 0 0 1 I I -0.70710678118654746 0.70710678118654746 0.5 forward I I I I #
loop $-1 $-1 $128 $35 #
coedge $-1 $80 $80 $129 $130 reversed $50 $-1 #
face $-1 $-1 $131 $28 $-1 $132 forward single #
loop $-1 $133 $134 $52 #
cone-surface $-1 -4.8306580590185249 -21.075831976680721 1.5567155175071647 0 0.78801076186113728 -0.61566146476048833 0.5 0 0 1 I I -0.70710678118654746 0.70710678118654746 0.5 forward I I I I #
loop $-1 $-1 $135 $36 #
coedge $-1 $85 $85 $136 $137 reversed $53 $-1 #
face $-1 $138 $139 $29 $-1 $140 reversed single #
loop $-1 $-1 $141 $55 #
plane-surface $-1 36.951329704550595 -9.4479763136232222 39.875788399714679 0 0.73135370988377701 0.68199835119979291 1 0 0 forward_v I I I I #
coedge $-1 $142 $143 $144 $145 reversed $56 $-1 #
face $-1 $-1 $146 $30 $-1 $147 forward single #
loop $-1 $148 $149 $58 #
cone-surface $-1 34.306770851576438 20.227725696064972 0.7336381306593136 0 -0.73135370988377701 -0.68199835119979291 0.75 0 0 1 I I -0.70710678118654757 0.70710678118654757 0.75 forward I I I I #
loop $-1 $-1 $150 $38 #
coedge $-1 $94 $94 $151 $152 reversed $59 $-1 #
face $-1 $-1 $153 $31 $-1 $154 forward single #
loop $-1 $155 $156 $61 #
cone-surface $-1 39.595888557524781 20.227725696064972 0.7336381306593136 0 -0.73135370988377701 -0.68199835119979291 0.75 0 0 1 I I -0.70710678118654757 0.70710678118654757 0.75 forward I I I I #
loop $-1 $-1 $157 $39 #
coedge $-1 $99 $99 $158 $159 reversed $62 $-1 #
face $-1 $160 $161 $24 $-1 $162 reversed single #
loop $-1 $-1 $163 $64 #
plane-surface $-1 0 -25.956214029794971 0 0 1 0 0 0 1 forward_v I I I I #
coedge $-1 $164 $165 $166 $167 forward $65 $-1 #
coedge $-1 $168 $67 $169 $170 forward $41 $-1 #
coedge $-1 $67 $168 $171 $172 forward $41 $-1 #
coedge $-1 $173 $174 $67 $107 reversed $175 $-1 #
edge $-1 $176 -25.956214029794971 $177 25.956214029794971 $106 $178 forward 7 unknown #
face $-1 $179 $180 $25 $-1 $181 reversed single #
loop $-1 $-1 $114 $68 #
plane-surface $-1 -52.600530453356832 0 5.7599437337830839 0 0 1 1 0 0 forward_v I I I I #
coedge $-1 $182 $183 $113 $184 forward $69 $-1 #
coedge $-1 $185 $71 $186 $187 reversed $44 $-1 #
coedge $-1 $71 $185 $111 $184 reversed $44 $-1 #
coedge $-1 $188 $189 $71 $115 reversed $109 $-1 #
edge $-1 $190 -25.956214029794971 $191 25.956214029794971 $114 $192 forward 7 unknown #
face $-1 $193 $194 $26 $-1 $195 reversed single #
loop $-1 $-1 $196 $72 #
plane-surface $-1 -19.960332485280663 -103.66114072020784 61.960477774910458 1 0 0 0 0.78801076186113728 -0.61566146476048833 forward_v I I I I #
coedge $-1 $197 $198 $199 $200 reversed $73 $-1 #
coedge $-1 $121 $75 $201 $202 reversed $47 $-1 #
coedge $-1 $75 $120 $197 $203 reversed $47 $-1 #
coedge $-1 $199 $204 $75 $123 forward $205 $-1 #
edge $-1 $206 25.874356330308949 $207 29.870956507685626 $122 $208 forward 7 unknown #
loop $-1 $-1 $129 $76 #
plane-surface $-1 -9.3695603868971702 -25.956214029794992 1.2507371206879512 0 -0.78801076186113728 0.61566146476048833 1 0 0 forward_v I I I I #
loop $-1 $-1 $209 $49 #
coedge $-1 $127 $127 $128 $210 reversed $77 $-1 #
coedge $-1 $128 $128 $127 $210 forward $79 $-1 #
coedge $-1 $129 $129 $80 $130 forward $124 $-1 #
edge $-1 $211 7.8787931576520693e-016 $211 6.2831853071796013 $129 $212 forward 7 unknown #
loop $-1 $-1 $136 $81 #
plane-surface $-1 -9.3695603868971702 -25.956214029794992 1.2507371206879512 0 -0.78801076186113728 0.61566146476048833 1 0 0 forward_v I I I I #
loop $-1 $-1 $213 $52 #
coedge $-1 $134 $134 $135 $214 reversed $82 $-1 #
coedge $-1 $135 $135 $134 $214 forward $84 $-1 #
coedge $-1 $136 $136 $85 $137 forward $131 $-1 #
edge $-1 $215 7.8787931576520693e-016 $215 6.2831853071796013 $136 $216 forward 7 unknown #
face $-1 $217 $218 $29 $-1 $219 forward single #
loop $-1 $-1 $220 $86 #
plane-surface $-1 43.121967028156988 62.670057045539032 107.12694085580388 -1 0 0 0 0.73135370988377701 0.68199835119979291 forward_v I I I I #
coedge $-1 $221 $222 $223 $224 reversed $87 $-1 #
coedge $-1 $143 $89 $225 $226 reversed $56 $-1 #
coedge $-1 $89 $142 $221 $227 reversed $56 $-1 #
coedge $-1 $223 $228 $89 $145 forward $218 $-1 #
edge $-1 $229 5.3788144929745449 $230 9.5347643235795161 $144 $231 forward 7 unknown #
loop $-1 $-1 $151 $90 #
plane-surface $-1 36.951329704550595 -9.4479763136232222 39.875788399714679 0 0.73135370988377701 0.68199835119979291 1 0 0 forward_v I I I I #
loop $-1 $-1 $232 $58 #
coedge $-1 $149 $149 $150 $233 reversed $91 $-1 #
coedge $-1 $150 $150 $149 $233 forward $93 $-1 #
coedge $-1 $151 $151 $94 $152 forward $146 $-1 #
edge $-1 $234 -8.3155727678960605e-016 $234 6.2831853071795996 $151 $235 forward 7 unknown #
loop $-1 $-1 $158 $95 #
plane-surface $-1 36.951329704550595 -9.4479763136232222 39.875788399714679 0 0.73135370988377701 0.68199835119979291 1 0 0 forward_v I I I I #
loop $-1 $-1 $236 $61 #
coedge $-1 $156 $156 $157 $237 reversed $96 $-1 #
coedge $-1 $157 $157 $156 $237 forward $98 $-1 #
coedge $-1 $158 $158 $99 $159 forward $153 $-1 #
edge $-1 $238 -8.3155727678960605e-016 $238 6.2831853071795996 $158 $239 forward 7 unknown #
face $-1 $240 $241 $24 $-1 $242 reversed single #
loop $-1 $-1 $243 $100 #
plane-surface $-1 -49.304483169042022 0 0 1 0 0 0 0 -1 forward_v I I I I #
coedge $-1 $244 $171 $243 $245 forward $101 $-1 #
coedge $-1 $246 $103 $244 $247 forward $65 $-1 #
coedge $-1 $103 $246 $248 $249 forward $65 $-1 #
coedge $-1 $174 $173 $103 $167 reversed $175 $-1 #
edge $-1 $250 -25.956214029794971 $251 25.956214029794971 $166 $252 forward 7 unknown #
coedge $-1 $105 $104 $253 $254 forward $41 $-1 #
coedge $-1 $255 $256 $104 $170 reversed $241 $-1 #
edge $-1 $177 -49.304483169042022 $257 49.304483169042022 $169 $258 forward 7 unknown #
coedge $-1 $163 $259 $105 $172 reversed $101 $-1 #
edge $-1 $260 -49.304483169042022 $176 49.304483169042022 $171 $261 forward 7 unknown #
coedge $-1 $166 $106 $259 $262 forward $175 $-1 #
coedge $-1 $106 $166 $255 $263 reversed $175 $-1 #
loop $-1 $-1 $173 $240 #
vertex $-1 $107 $264 #
vertex $-1 $107 $265 #
straight-curve $-1 49.304483169042022 0 6.3661522163106259 0 1 0 I I #
face $-1 $266 $267 $25 $-1 $268 reversed single #
loop $-1 $-1 $269 $108 #
plane-surface $-1 -52.600530453356832 0 2.7599437337830839 0 0 1 1 0 0 forward_v I I I I #
coedge $-1 $270 $111 $271 $272 reversed $69 $-1 #
coedge $-1 $111 $270 $188 $273 reversed $69 $-1 #
edge $-1 $190 -5.7599437337830839 $274 -2.7599437337830839 $111 $275 forward 7 unknown #
coedge $-1 $113 $112 $269 $276 forward $44 $-1 #
coedge $-1 $277 $278 $112 $187 forward $279 $-1 #
edge $-1 $280 2.7599437337830839 $191 5.7599437337830839 $186 $281 forward 7 unknown #
coedge $-1 $282 $114 $183 $273 forward $109 $-1 #
coedge $-1 $114 $282 $277 $283 forward $109 $-1 #
vertex $-1 $184 $284 #
vertex $-1 $283 $285 #
straight-curve $-1 -49.304483169042022 0 5.7599437337830839 0 -1 0 I I #
face $-1 $-1 $205 $26 $-1 $286 forward single #
loop $-1 $-1 $287 $116 #
plane-surface $-1 0 -25.956214029794971 0 0 1 0 0 0 1 forward_v I I I I #
coedge $-1 $288 $289 $290 $291 reversed $117 $-1 #
coedge $-1 $292 $119 $121 $203 forward $73 $-1 #
coedge $-1 $119 $292 $288 $293 forward $73 $-1 #
coedge $-1 $290 $122 $119 $200 forward $205 $-1 #
edge $-1 $207 -5.9059919049349077 $294 15.275552291832078 $199 $295 forward 7 unknown #
coedge $-1 $296 $297 $120 $202 forward $194 $-1 #
edge $-1 $298 -29.72950176676725 $206 -24.614086671144605 $201 $299 forward 7 unknown #
edge $-1 $207 -6.4915548660033524 $298 -3.4645358654367523e-014 $121 $300 forward 7 unknown #
coedge $-1 $122 $290 $296 $301 forward $205 $-1 #
loop $-1 $-1 $290 $193 #
vertex $-1 $202 $302 #
vertex $-1 $123 $303 #
straight-curve $-1 1.2212117114863226 -51.83057036010392 6.3661522163106241 0 1 0 I I #
coedge $-1 $209 $209 $-1 $304 reversed $126 $-1 #
edge $-1 $305 0 $305 6.2831853071796004 $127 $306 forward 7 unknown #
vertex $-1 $130 $307 #
ellipse-curve $-1 -13.908462714775808 -23.957913941106636 3.8084446684992983 0 -0.78801076186113728 0.61566146476048833 1 0 0 1 I I #
coedge $-1 $213 $213 $-1 $308 reversed $133 $-1 #
edge $-1 $309 0 $309 6.2831853071796004 $134 $310 forward 7 unknown #
vertex $-1 $137 $311 #
ellipse-curve $-1 -4.8306580590185249 -23.957913941106636 3.8084446684992983 0 -0.78801076186113728 0.61566146476048833 1 0 0 1 I I #
face $-1 $-1 $312 $29 $-1 $313 reversed single #
loop $-1 $-1 $144 $138 #
plane-surface $-1 0 0 6.3661522163106259 0 0 1 1 0 0 forward_v I I I I #
coedge $-1 $314 $315 $316 $317 reversed $139 $-1 #
coedge $-1 $318 $141 $143 $227 forward $87 $-1 #
coedge $-1 $141 $318 $314 $319 forward $87 $-1 #
coedge $-1 $316 $144 $141 $224 forward $218 $-1 #
edge $-1 $230 12.305027528668905 $320 24.64630217588169 $223 $321 forward 7 unknown #
coedge $-1 $322 $323 $142 $226 forward $312 $-1 #
edge $-1 $324 -51.654028878643039 $229 -47.197318211591316 $225 $325 forward 7 unknown #
edge $-1 $230 45.818645247221397 $324 51.912428059589928 $143 $326 forward 7 unknown #
coedge $-1 $144 $316 $322 $327 forward $218 $-1 #
vertex $-1 $145 $328 #
vertex $-1 $145 $329 #
straight-curve $-1 30.780692380944203 31.335028522769516 6.3661522163106241 0 -1 0 I I #
coedge $-1 $232 $232 $-1 $330 reversed $148 $-1 #
edge $-1 $331 0 $331 6.2831853071796004 $149 $332 forward 7 unknown #
vertex $-1 $152 $333 #
ellipse-curve $-1 34.306770851576438 23.87823911449248 4.1377968827847669 0 0.73135370988377701 0.68199835119979291 1.5 0 0 1 I I #
coedge $-1 $236 $236 $-1 $334 reversed $155 $-1 #
edge $-1 $335 0 $335 6.2831853071796004 $156 $336 forward 7 unknown #
vertex $-1 $159 $337 #
ellipse-curve $-1 39.595888557524781 23.87823911449248 4.1377968827847669 0 0.73135370988377701 0.68199835119979291 1.5 0 0 1 I I #
face $-1 $-1 $175 $24 $-1 $338 reversed single #
loop $-1 $-1 $255 $160 #
plane-surface $-1 0 25.956214029794971 0 0 -1 0 0 0 -1 forward_v I I I I #
coedge $-1 $253 $339 $163 $245 reversed $161 $-1 #
coedge $-1 $259 $163 $164 $247 reversed $101 $-1 #
edge $-1 $260 -6.3661522163106259 $340 6.3661522163106259 $243 $341 forward 7 unknown #
coedge $-1 $165 $164 $339 $342 forward $65 $-1 #
edge $-1 $251 -49.304483169042022 $340 49.304483169042022 $244 $343 forward 7 unknown #
coedge $-1 $256 $255 $165 $249 reversed $241 $-1 #
edge $-1 $344 -49.304483169042022 $250 49.304483169042022 $248 $345 forward 7 unknown #
vertex $-1 $167 $346 #
vertex $-1 $262 $347 #
straight-curve $-1 49.304483169042022 0 -6.3661522163106259 0 -1 0 I I #
coedge $-1 $348 $243 $168 $254 reversed $161 $-1 #
edge $-1 $257 -25.956214029794971 $260 25.956214029794971 $253 $349 forward 7 unknown #
coedge $-1 $248 $169 $174 $263 forward $241 $-1 #
coedge $-1 $169 $248 $348 $350 reversed $241 $-1 #
vertex $-1 $170 $351 #
straight-curve $-1 0 25.956214029794971 6.3661522163106259 -1 0 0 I I #
coedge $-1 $171 $244 $173 $262 reversed $101 $-1 #
vertex $-1 $254 $352 #
straight-curve $-1 0 -25.956214029794971 6.3661522163106259 1 0 0 I I #
edge $-1 $176 -6.3661522163106259 $251 6.3661522163106259 $173 $353 forward 7 unknown #
edge $-1 $177 -6.3661522163106259 $250 6.3661522163106259 $174 $354 forward 7 unknown #
point $-1 49.304483169042022 -25.956214029794971 6.3661522163106259 #
point $-1 49.304483169042022 25.956214029794971 6.3661522163106259 #
face $-1 $-1 $279 $25 $-1 $355 reversed single #
loop $-1 $-1 $356 $179 #
plane-surface $-1 -55.896577737671642 0 4.2599437337830839 1 0 0 0 0 -1 forward_v I I I I #
coedge $-1 $357 $271 $185 $276 reversed $180 $-1 #
coedge $-1 $183 $182 $356 $358 reversed $69 $-1 #
coedge $-1 $269 $359 $182 $272 forward $180 $-1 #
edge $-1 $360 -3.2960472843148096 $274 3.2960472843148096 $182 $361 forward 7 unknown #
edge $-1 $190 -3.2960472843148096 $362 3.2960472843148096 $183 $363 forward 7 unknown #
vertex $-1 $184 $364 #
straight-curve $-1 -49.304483169042022 25.956214029794971 0 0 0 -1 I I #
edge $-1 $280 -25.956214029794971 $274 25.956214029794971 $269 $365 forward 7 unknown #
coedge $-1 $366 $186 $189 $283 reversed $279 $-1 #
coedge $-1 $186 $366 $357 $367 reversed $279 $-1 #
loop $-1 $-1 $186 $266 #
vertex $-1 $187 $368 #
straight-curve $-1 -49.304483169042022 -25.956214029794971 0 0 0 1 I I #
coedge $-1 $189 $188 $369 $370 forward $109 $-1 #
edge $-1 $371 -3.2960472843148096 $191 3.2960472843148096 $277 $372 forward 7 unknown #
point $-1 -49.304483169042022 25.956214029794971 5.7599437337830839 #
point $-1 -49.304483169042022 -25.956214029794971 5.7599437337830839 #
plane-surface $-1 0 0 6.3661522163106259 0 0 1 1 0 0 forward_v I I I I #
coedge $-1 $297 $296 $289 $373 forward $194 $-1 #
coedge $-1 $289 $196 $198 $293 reversed $117 $-1 #
coedge $-1 $196 $288 $287 $373 reversed $117 $-1 #
coedge $-1 $204 $199 $196 $291 forward $205 $-1 #
edge $-1 $294 -29.870956507685626 $374 -25.874356330308949 $290 $375 forward 7 unknown #
coedge $-1 $198 $197 $297 $376 reversed $73 $-1 #
edge $-1 $377 3.4645358654367523e-014 $294 6.4915548660033524 $288 $378 forward 7 unknown #
vertex $-1 $200 $379 #
straight-curve $-1 -4.6847801934485851 -21.959613852418293 6.3661522163106259 -1 0 0 I I #
coedge $-1 $287 $201 $204 $301 reversed $194 $-1 #
coedge $-1 $201 $287 $292 $376 forward $194 $-1 #
vertex $-1 $202 $380 #
straight-curve $-1 1.2212117114863226 -25.956214029794971 30.980238887455229 0 0 1 I I #
straight-curve $-1 1.2212117114863226 -25.956214029794992 1.2507371206879512 0 -0.61566146476048833 -0.78801076186113728 I I #
edge $-1 $374 -19.960332485280663 $206 1.2212117114863226 $296 $381 forward 7 unknown #
point $-1 1.2212117114863226 -25.956214029794971 6.3661522163106259 #
point $-1 1.2212117114863226 -21.959613852418293 6.3661522163106259 #
edge $-1 $382 1 $382 0 $209 $-1 forward 7 unknown #
vertex $-1 $210 $383 #
ellipse-curve $-1 -13.908462714775808 -21.46983735761129 1.8645462498874088 0 -0.78801076186113728 0.61566146476048833 1 0 0 1 I I #
point $-1 -12.908462714775808 -23.957913941106618 3.8084446684992854 #
edge $-1 $384 1 $384 0 $213 $-1 forward 7 unknown #
vertex $-1 $214 $385 #
ellipse-curve $-1 -4.8306580590185249 -21.46983735761129 1.8645462498874088 0 -0.78801076186113728 0.61566146476048833 1 0 0 1 I I #
point $-1 -3.8306580590185249 -23.957913941106618 3.8084446684992854 #
loop $-1 $-1 $225 $217 #
plane-surface $-1 0 25.956214029794971 0 0 -1 0 0 0 -1 forward_v I I I I #
coedge $-1 $315 $220 $222 $319 reversed $139 $-1 #
coedge $-1 $220 $314 $386 $387 reversed $139 $-1 #
coedge $-1 $228 $223 $220 $317 forward $218 $-1 #
edge $-1 $320 -9.5347643235795161 $388 -5.3788144929745449 $316 $389 forward 7 unknown #
coedge $-1 $222 $221 $323 $390 reversed $87 $-1 #
edge $-1 $391 -51.912428059589928 $320 -45.818645247221397 $314 $392 forward 7 unknown #
vertex $-1 $224 $393 #
straight-curve $-1 18.475664852275298 21.800264199189996 6.3661522163106241 1 0 0 I I #
coedge $-1 $386 $225 $228 $327 reversed $312 $-1 #
coedge $-1 $225 $386 $318 $390 forward $312 $-1 #
vertex $-1 $226 $394 #
straight-curve $-1 30.780692380944203 25.956214029794971 53.56347042790194 0 0 1 I I #
straight-curve $-1 30.780692380944203 -9.4479763136232222 39.875788399714679 0 0.68199835119979291 -0.73135370988377701 I I #
edge $-1 $388 -43.121967028156988 $229 -30.780692380944203 $322 $395 forward 7 unknown #
point $-1 30.780692380944203 25.956214029794971 6.3661522163106259 #
point $-1 30.780692380944203 21.80026419919 6.3661522163106241 #
edge $-1 $396 1 $396 0 $232 $-1 forward 7 unknown #
vertex $-1 $233 $397 #
ellipse-curve $-1 34.306770851576438 20.776240978477805 1.2451368940591583 0 0.73135370988377701 0.68199835119979291 1.5 0 0 1 I I #
point $-1 35.806770851576438 23.878239114492466 4.1377968827847553 #
edge $-1 $398 1 $398 0 $236 $-1 forward 7 unknown #
vertex $-1 $237 $399 #
ellipse-curve $-1 39.595888557524781 20.776240978477805 1.2451368940591583 0 0.73135370988377701 0.68199835119979291 1.5 0 0 1 I I #
point $-1 41.095888557524781 23.878239114492466 4.1377968827847553 #
plane-surface $-1 49.304483169042022 0 0 -1 0 0 0 0 1 forward_v I I I I #
coedge $-1 $243 $348 $246 $342 reversed $161 $-1 #
vertex $-1 $342 $400 #
straight-curve $-1 -49.304483169042022 -25.956214029794971 0 0 0 -1 I I #
edge $-1 $340 -25.956214029794971 $344 25.956214029794971 $339 $401 forward 7 unknown #
straight-curve $-1 0 -25.956214029794971 -6.3661522163106259 -1 0 0 I I #
vertex $-1 $249 $402 #
straight-curve $-1 0 25.956214029794971 -6.3661522163106259 1 0 0 I I #
point $-1 49.304483169042022 25.956214029794971 -6.3661522163106259 #
point $-1 49.304483169042022 -25.956214029794971 -6.3661522163106259 #
coedge $-1 $339 $253 $256 $350 forward $161 $-1 #
straight-curve $-1 -49.304483169042022 0 6.3661522163106259 0 -1 0 I I #
edge $-1 $257 -6.3661522163106259 $344 6.3661522163106259 $256 $403 forward 7 unknown #
point $-1 -49.304483169042022 25.956214029794971 6.3661522163106259 #
point $-1 -49.304483169042022 -25.956214029794971 6.3661522163106259 #
straight-curve $-1 49.304483169042022 -25.956214029794971 0 0 0 -1 I I #
straight-curve $-1 49.304483169042022 25.956214029794971 0 0 0 -1 I I #
plane-surface $-1 0 -25.956214029794971 0 0 1 0 0 0 1 forward_v I I I I #
coedge $-1 $404 $369 $270 $358 forward $267 $-1 #
coedge $-1 $359 $269 $278 $367 forward $180 $-1 #
edge $-1 $362 -1.5 $360 1.5 $270 $405 forward 7 unknown #
coedge $-1 $271 $357 $404 $406 forward $180 $-1 #
vertex $-1 $272 $407 #
straight-curve $-1 -52.600530453356832 25.956214029794971 2.7599437337830839 1 0 0 I I #
vertex $-1 $273 $408 #
straight-curve $-1 -52.600530453356832 25.956214029794971 5.7599437337830839 -1 0 0 I I #
point $-1 -49.304483169042022 25.956214029794971 2.7599437337830839 #
straight-curve $-1 -49.304483169042022 0 2.7599437337830839 0 1 0 I I #
coedge $-1 $278 $277 $409 $410 forward $279 $-1 #
edge $-1 $280 -3.2960472843148096 $411 3.2960472843148096 $278 $412 forward 7 unknown #
point $-1 -49.304483169042022 -25.956214029794971 2.7599437337830839 #
coedge $-1 $356 $409 $282 $370 reversed $267 $-1 #
edge $-1 $362 -25.956214029794971 $371 25.956214029794971 $369 $413 forward 7 unknown #
vertex $-1 $370 $414 #
straight-curve $-1 -52.600530453356832 -25.956214029794971 5.7599437337830839 1 0 0 I I #
edge $-1 $374 24.614086671144605 $377 29.72950176676725 $287 $415 forward 7 unknown #
vertex $-1 $301 $416 #
straight-curve $-1 -19.960332485280663 -51.83057036010392 6.3661522163106241 0 -1 0 I I #
edge $-1 $377 -15.275552291832078 $298 5.9059919049349077 $297 $417 forward 7 unknown #
vertex $-1 $376 $418 #
straight-curve $-1 -19.960332485280663 -25.956214029794992 1.2507371206879512 0 0.61566146476048833 0.78801076186113728 I I #
point $-1 -19.960332485280663 -21.959613852418293 6.3661522163106259 #
point $-1 1.2212117114863226 -25.956214029794971 1.2507371206879785 #
straight-curve $-1 0 -25.956214029794971 6.3661522163106259 1 0 0 I I #
vertex $-1 $304 $419 #
point $-1 -12.908462714775808 -21.46983735761129 1.8645462498874088 #
vertex $-1 $308 $420 #
point $-1 -3.8306580590185249 -21.46983735761129 1.8645462498874088 #
coedge $-1 $323 $322 $315 $387 forward $312 $-1 #
edge $-1 $388 47.197318211591316 $391 51.654028878643039 $386 $421 forward 7 unknown #
vertex $-1 $327 $422 #
straight-curve $-1 43.121967028156988 31.335028522769516 6.3661522163106241 0 1 0 I I #
edge $-1 $391 -24.64630217588169 $324 -12.305027528668905 $323 $423 forward 7 unknown #
vertex $-1 $390 $424 #
straight-curve $-1 43.121967028156988 -9.4479763136232222 39.875788399714679 0 -0.68199835119979291 0.73135370988377701 I I #
point $-1 43.121967028156988 21.80026419919 6.3661522163106241 #
point $-1 30.780692380944203 25.956214029794971 1.9094415492589007 #
straight-curve $-1 0 25.956214029794971 6.3661522163106259 -1 0 0 I I #
vertex $-1 $330 $425 #
point $-1 35.806770851576438 20.776240978477805 1.2451368940591583 #
vertex $-1 $334 $426 #
point $-1 41.095888557524781 20.776240978477805 1.2451368940591583 #
point $-1 -49.304483169042022 -25.956214029794971 -6.3661522163106259 #
straight-curve $-1 -49.304483169042022 0 -6.3661522163106259 0 1 0 I I #
point $-1 -49.304483169042022 25.956214029794971 -6.3661522163106259 #
straight-curve $-1 -49.304483169042022 25.956214029794971 0 0 0 -1 I I #
coedge $-1 $409 $356 $359 $406 reversed $267 $-1 #
straight-curve $-1 -55.896577737671642 25.956214029794971 4.2599437337830839 0 0 -1 I I #
edge $-1 $411 -25.956214029794971 $360 25.956214029794971 $404 $427 forward 7 unknown #
point $-1 -55.896577737671642 25.956214029794971 2.7599437337830839 #
point $-1 -55.896577737671642 25.956214029794971 5.7599437337830839 #
coedge $-1 $369 $404 $366 $410 reversed $267 $-1 #
edge $-1 $371 -1.5 $411 1.5 $409 $428 forward 7 unknown #
vertex $-1 $406 $429 #
straight-curve $-1 -52.600530453356832 -25.956214029794971 2.7599437337830839 -1 0 0 I I #
straight-curve $-1 -55.896577737671642 0 5.7599437337830839 0 -1 0 I I #
point $-1 -55.896577737671642 -25.956214029794971 5.7599437337830839 #
straight-curve $-1 -19.960332485280663 -25.956214029794971 30.980238887455229 0 0 -1 I I #
point $-1 -19.960332485280663 -25.956214029794971 6.3661522163106259 #
straight-curve $-1 -4.6847801934485851 -25.956214029794971 1.25073712068798 1 0 0 I I #
point $-1 -19.960332485280663 -25.956214029794971 1.2507371206879785 #
point $-1 -13.908462714775808 -20.681826595750152 1.2488847851269207 #
point $-1 -4.8306580590185249 -20.681826595750152 1.2488847851269207 #
straight-curve $-1 43.121967028156988 25.956214029794971 53.56347042790194 0 0 -1 I I #
point $-1 43.121967028156988 25.956214029794971 6.3661522163106259 #
straight-curve $-1 18.475664852275298 25.956214029794971 1.9094415492589043 -1 0 0 I I #
point $-1 43.121967028156988 25.956214029794971 1.9094415492589007 #
point $-1 34.306770851576438 19.67921041365214 0.22213936725946892 #
point $-1 39.595888557524781 19.67921041365214 0.22213936725946892 #
straight-curve $-1 -55.896577737671642 0 2.7599437337830839 0 1 0 I I #
straight-curve $-1 -55.896577737671642 -25.956214029794971 4.2599437337830839 0 0 -1 I I #
point $-1 -55.896577737671642 -25.956214029794971 2.7599437337830839 #
End-of-ACIS-data 