500 0 8 0           
7 Unknown 11 ACIS 5.0 NT 24 Thu Mar 25 23:41:39 1999 
-1 9.9999999999999995e-007 1e-010 
body $-1 $8 $-1 $9 #
body $-1 $10 $-1 $11 #
body $-1 $12 $-1 $13 #
body $-1 $14 $-1 $15 #
body $-1 $16 $-1 $17 #
body $-1 $18 $-1 $19 #
body $-1 $20 $-1 $21 #
body $-1 $22 $-1 $23 #
lump $-1 $-1 $24 $0 #
transform $-1 1 0 0 0 1 0 0 0 1 51.535996581926938 30.629685935068647 8.8147164046299729 1 rotate no_reflect no_shear #
lump $-1 $-1 $25 $1 #
transform $-1 1 0 0 0 1 0 0 0 1 51.535996581926938 30.629685935068647 8.8147164046299729 1 rotate no_reflect no_shear #
lump $-1 $-1 $26 $2 #
transform $-1 1 0 0 0 1 0 0 0 1 51.535996581926938 30.629685935068647 8.8147164046299729 1 rotate no_reflect no_shear #
lump $-1 $-1 $27 $3 #
transform $-1 1 0 0 0 1 0 0 0 1 51.535996581926938 30.629685935068647 8.8147164046299729 1 rotate no_reflect no_shear #
lump $-1 $-1 $28 $4 #
transform $-1 1 0 0 0 1 0 0 0 1 51.535996581926938 30.629685935068647 8.8147164046299729 1 rotate no_reflect no_shear #
lump $-1 $-1 $29 $5 #
transform $-1 1 0 0 0 1 0 0 0 1 51.535996581926938 30.629685935068647 8.8147164046299729 1 rotate no_reflect no_shear #
lump $-1 $-1 $30 $6 #
transform $-1 1 0 0 0 1 0 0 0 1 51.535996581926938 30.629685935068647 8.8147164046299729 1 rotate no_reflect no_shear #
lump $-1 $-1 $31 $7 #
transform $-1 1 0 0 0 1 0 0 0 1 51.535996581926938 30.629685935068647 8.8147164046299729 1 rotate no_reflect no_shear #
shell $-1 $-1 $-1 $32 $-1 $8 #
shell $-1 $-1 $-1 $33 $-1 $10 #
shell $-1 $-1 $-1 $34 $-1 $12 #
shell $-1 $-1 $-1 $35 $-1 $14 #
shell $-1 $-1 $-1 $36 $-1 $16 #
shell $-1 $-1 $-1 $37 $-1 $18 #
shell $-1 $-1 $-1 $38 $-1 $20 #
shell $-1 $-1 $-1 $39 $-1 $22 #
face $-1 $40 $41 $24 $-1 $42 forward single #
face $-1 $43 $44 $25 $-1 $45 reversed single #
face $-1 $46 $47 $26 $-1 $48 reversed single #
face $-1 $49 $50 $27 $-1 $51 forward single #
face $-1 $52 $53 $28 $-1 $54 forward single #
face $-1 $55 $56 $29 $-1 $57 reversed single #
face $-1 $58 $59 $30 $-1 $60 forward single #
face $-1 $61 $62 $31 $-1 $63 forward single #
face $-1 $64 $65 $24 $-1 $66 reversed single #
loop $-1 $-1 $67 $32 #
plane-surface $-1 0 0 8.8147164046299729 0 0 1 1 0 0 forward_v I I I I #
face $-1 $68 $69 $25 $-1 $70 reversed single #
loop $-1 $-1 $71 $33 #
plane-surface $-1 -47.828707153986073 0 4.9998571458007355 0 0 1 1 0 0 forward_v I I I I #
face $-1 $72 $73 $26 $-1 $74 reversed single #
loop $-1 $-1 $75 $34 #
plane-surface $-1 -36.763491818344079 89.262966116579619 108.93585163780872 1 0 0 0 -0.86602541151947299 -0.49999998660252726 forward_v I I I I #
face $-1 $76 $77 $27 $-1 $78 forward single #
loop $-1 $79 $80 $35 #
cone-surface $-1 -30.386442076734696 28.550230711200392 6.1251314606889835 0 -0.86602541151947299 -0.49999998660252726 1 0 0 1 I I 0 1 1 forward I I I I #
face $-1 $81 $82 $28 $-1 $83 forward single #
loop $-1 $84 $85 $36 #
cone-surface $-1 -20.820867464320624 28.550230711200392 6.1251314606889835 0 -0.86602541151947299 -0.49999998660252726 1 0 0 1 I I 0 1 1 forward I I I I #
face $-1 $86 $87 $29 $-1 $88 reversed single #
loop $-1 $-1 $89 $37 #
plane-surface $-1 -19.396222545486417 -104.77347376726367 75.359237411756908 -1 0 0 0 -0.71933980857756763 0.69465836192734942 forward_v I I I I #
face $-1 $90 $91 $30 $-1 $92 forward single #
loop $-1 $93 $94 $38 #
cone-surface $-1 -37.057076245885554 -27.369881305504542 5.496281762396789 0 0.71933980857756763 -0.69465836192734942 1.5 0 0 1 I I 0 1 1.5 forward I I I I #
face $-1 $95 $96 $31 $-1 $97 forward single #
loop $-1 $98 $99 $39 #
cone-surface $-1 -26.460564025646072 -27.369881305504542 5.496281762396789 0 0.71933980857756763 -0.69465836192734942 1.5 0 0 1 I I 0 1 1.5 forward I I I I #
face $-1 $100 $101 $24 $-1 $102 reversed single #
loop $-1 $-1 $103 $40 #
plane-surface $-1 0 0 -8.8147164046299729 0 0 1 1 0 0 forward_v I I I I #
coedge $-1 $104 $105 $106 $107 forward $41 $-1 #
face $-1 $108 $109 $25 $-1 $110 reversed single #
loop $-1 $-1 $111 $43 #
plane-surface $-1 -44.121417726045209 0 6.9072867752153542 -1 0 0 0 0 1 forward_v I I I I #
coedge $-1 $112 $113 $114 $115 forward $44 $-1 #
face $-1 $116 $117 $26 $-1 $118 reversed single #
loop $-1 $-1 $119 $46 #
plane-surface $-1 -25.603654770527662 8.2072075713313097e-007 57.399856436786003 0 0.86602541151947299 0.49999998660252726 1 0 0 forward_v I I I I #
coedge $-1 $120 $121 $122 $123 reversed $47 $-1 #
face $-1 $-1 $124 $27 $-1 $125 forward single #
loop $-1 $126 $127 $49 #
cone-surface $-1 -30.386442076734696 27.327284001732838 5.419062873998751 0 -0.86602541151947299 -0.49999998660252726 0.5 0 0 1 I I -0.70710678118654746 0.70710678118654746 0.5 forward I I I I #
loop $-1 $-1 $128 $35 #
coedge $-1 $80 $80 $129 $130 reversed $50 $-1 #
face $-1 $-1 $131 $28 $-1 $132 forward single #
loop $-1 $133 $134 $52 #
cone-surface $-1 -20.820867464320624 27.327284001732838 5.419062873998751 0 -0.86602541151947299 -0.49999998660252726 0.5 0 0 1 I I -0.70710678118654746 0.70710678118654746 0.5 forward I I I I #
loop $-1 $-1 $135 $36 #
coedge $-1 $85 $85 $136 $137 reversed $53 $-1 #
face $-1 $138 $139 $29 $-1 $140 forward single #
loop $-1 $-1 $141 $55 #
plane-surface $-1 -31.758820135765813 -30.629685935068665 3.7594154799672168 0 -0.71933980857756763 0.69465836192734942 1 0 0 forward_v I I I I #
coedge $-1 $142 $143 $144 $145 reversed $56 $-1 #
face $-1 $-1 $146 $30 $-1 $147 forward single #
loop $-1 $148 $149 $58 #
cone-surface $-1 -37.057076245885554 -26.011495439680701 4.1845038110494688 0 0.71933980857756763 -0.69465836192734942 0.75 0 0 1 I I -0.70710678118654757 0.70710678118654757 0.75 forward I I I I #
loop $-1 $-1 $150 $38 #
coedge $-1 $94 $94 $151 $152 reversed $59 $-1 #
face $-1 $-1 $153 $31 $-1 $154 forward single #
loop $-1 $155 $156 $61 #
cone-surface $-1 -26.460564025646072 -26.011495439680701 4.1845038110494688 0 0.71933980857756763 -0.69465836192734942 0.75 0 0 1 I I -0.70710678118654757 0.70710678118654757 0.75 forward I I I I #
loop $-1 $-1 $157 $39 #
coedge $-1 $99 $99 $158 $159 reversed $62 $-1 #
face $-1 $160 $161 $24 $-1 $162 reversed single #
loop $-1 $-1 $163 $64 #
plane-surface $-1 0 -30.629685935068647 0 0 1 0 0 0 1 forward_v I I I I #
coedge $-1 $164 $165 $166 $167 forward $65 $-1 #
coedge $-1 $168 $67 $169 $170 forward $41 $-1 #
coedge $-1 $67 $168 $171 $172 forward $41 $-1 #
coedge $-1 $173 $174 $67 $107 reversed $175 $-1 #
edge $-1 $176 -30.629685935068647 $177 30.629685935068647 $106 $178 forward 7 unknown #
face $-1 $179 $180 $25 $-1 $181 reversed single #
loop $-1 $-1 $182 $68 #
plane-surface $-1 0 30.629685935068647 0 0 -1 0 0 0 -1 forward_v I I I I #
coedge $-1 $114 $183 $184 $185 reversed $69 $-1 #
coedge $-1 $186 $71 $187 $188 reversed $44 $-1 #
coedge $-1 $71 $186 $189 $190 reversed $44 $-1 #
coedge $-1 $191 $111 $71 $115 reversed $69 $-1 #
edge $-1 $192 -30.629685935068647 $193 30.629685935068647 $114 $194 forward 7 unknown #
face $-1 $195 $196 $26 $-1 $197 forward single #
loop $-1 $-1 $198 $72 #
plane-surface $-1 -14.443817722711247 89.262966116579619 108.93585163780872 -1 0 0 0 0.86602541151947299 0.49999998660252726 forward_v I I I I #
coedge $-1 $199 $200 $201 $202 reversed $73 $-1 #
coedge $-1 $121 $75 $203 $204 reversed $47 $-1 #
coedge $-1 $75 $120 $199 $205 reversed $47 $-1 #
coedge $-1 $201 $206 $75 $123 forward $196 $-1 #
edge $-1 $207 14.001797123221163 $208 16.580839563542046 $122 $209 forward 7 unknown #
loop $-1 $-1 $129 $76 #
plane-surface $-1 -25.603654770527662 8.2072075713313097e-007 57.399856436786003 0 0.86602541151947299 0.49999998660252726 1 0 0 forward_v I I I I #
loop $-1 $-1 $210 $49 #
coedge $-1 $127 $127 $128 $211 reversed $77 $-1 #
coedge $-1 $128 $128 $127 $211 forward $79 $-1 #
coedge $-1 $129 $129 $80 $130 forward $124 $-1 #
edge $-1 $212 4.7597325791166719e-016 $212 6.2831853071796013 $129 $213 forward 7 unknown #
loop $-1 $-1 $136 $81 #
plane-surface $-1 -25.603654770527662 8.2072075713313097e-007 57.399856436786003 0 0.86602541151947299 0.49999998660252726 1 0 0 forward_v I I I I #
loop $-1 $-1 $214 $52 #
coedge $-1 $134 $134 $135 $215 reversed $82 $-1 #
coedge $-1 $135 $135 $134 $215 forward $84 $-1 #
coedge $-1 $136 $136 $85 $137 forward $131 $-1 #
edge $-1 $216 4.7597325791166719e-016 $216 6.2831853071796013 $136 $217 forward 7 unknown #
face $-1 $218 $219 $29 $-1 $220 forward single #
loop $-1 $-1 $221 $86 #
plane-surface $-1 -44.121417726045209 0 6.9072867752153542 -1 0 0 0 0 1 forward_v I I I I #
coedge $-1 $222 $223 $224 $225 reversed $87 $-1 #
coedge $-1 $143 $89 $226 $227 reversed $56 $-1 #
coedge $-1 $89 $142 $222 $228 reversed $56 $-1 #
coedge $-1 $224 $229 $89 $145 forward $219 $-1 #
edge $-1 $230 21.757050948563187 $231 26.638898188910041 $144 $232 forward 7 unknown #
loop $-1 $-1 $151 $90 #
plane-surface $-1 -31.758820135765813 -30.629685935068665 3.7594154799672168 0 -0.71933980857756763 0.69465836192734942 1 0 0 forward_v I I I I #
loop $-1 $-1 $233 $58 #
coedge $-1 $149 $149 $150 $234 reversed $91 $-1 #
coedge $-1 $150 $150 $149 $234 forward $93 $-1 #
coedge $-1 $151 $151 $94 $152 forward $146 $-1 #
edge $-1 $235 -1.3947190063220489e-015 $235 6.2831853071795987 $151 $236 forward 7 unknown #
loop $-1 $-1 $158 $95 #
plane-surface $-1 -31.758820135765813 -30.629685935068665 3.7594154799672168 0 -0.71933980857756763 0.69465836192734942 1 0 0 forward_v I I I I #
loop $-1 $-1 $237 $61 #
coedge $-1 $156 $156 $157 $238 reversed $96 $-1 #
coedge $-1 $157 $157 $156 $238 forward $98 $-1 #
coedge $-1 $158 $158 $99 $159 forward $153 $-1 #
edge $-1 $239 -1.3947190063220489e-015 $239 6.2831853071795987 $158 $240 forward 7 unknown #
face $-1 $241 $242 $24 $-1 $243 reversed single #
loop $-1 $-1 $244 $100 #
plane-surface $-1 -51.535996581926938 0 0 1 0 0 0 0 -1 forward_v I I I I #
coedge $-1 $245 $171 $246 $247 forward $101 $-1 #
coedge $-1 $248 $103 $245 $249 forward $65 $-1 #
coedge $-1 $103 $248 $250 $251 forward $65 $-1 #
coedge $-1 $174 $173 $103 $167 reversed $175 $-1 #
edge $-1 $252 -30.629685935068647 $253 30.629685935068647 $166 $254 forward 7 unknown #
coedge $-1 $105 $104 $255 $256 forward $41 $-1 #
coedge $-1 $257 $258 $104 $170 reversed $242 $-1 #
edge $-1 $177 -51.535996581926938 $259 51.535996581926938 $169 $260 forward 7 unknown #
coedge $-1 $163 $261 $105 $172 reversed $101 $-1 #
edge $-1 $262 -51.535996581926938 $176 51.535996581926938 $171 $263 forward 7 unknown #
coedge $-1 $166 $106 $261 $264 forward $175 $-1 #
coedge $-1 $106 $166 $257 $265 reversed $175 $-1 #
loop $-1 $-1 $173 $241 #
vertex $-1 $107 $266 #
vertex $-1 $107 $267 #
straight-curve $-1 51.535996581926938 0 8.8147164046299729 0 1 0 I I #
face $-1 $268 $269 $25 $-1 $270 forward single #
loop $-1 $-1 $271 $108 #
plane-surface $-1 -51.535996581926938 0 0 1 0 0 0 0 -1 forward_v I I I I #
coedge $-1 $189 $272 $191 $273 forward $109 $-1 #
coedge $-1 $111 $191 $274 $275 reversed $69 $-1 #
coedge $-1 $276 $187 $111 $185 forward $277 $-1 #
edge $-1 $193 1.5462137581930584 $278 5.3610730170222958 $184 $279 forward 7 unknown #
coedge $-1 $113 $112 $271 $280 reversed $44 $-1 #
coedge $-1 $184 $281 $112 $188 forward $277 $-1 #
edge $-1 $282 -27.621643004933901 $193 -20.207064149052172 $187 $283 forward 7 unknown #
coedge $-1 $284 $182 $113 $190 forward $109 $-1 #
edge $-1 $192 20.207064149052172 $285 27.621643004933901 $189 $286 forward 7 unknown #
coedge $-1 $183 $114 $182 $273 reversed $69 $-1 #
vertex $-1 $190 $287 #
vertex $-1 $188 $288 #
straight-curve $-1 -44.121417726045209 0 4.9998571458007355 0 -1 0 I I #
face $-1 $-1 $289 $26 $-1 $290 reversed single #
loop $-1 $-1 $122 $116 #
plane-surface $-1 0 0 8.8147164046299729 0 0 1 1 0 0 forward_v I I I I #
coedge $-1 $291 $292 $293 $294 reversed $117 $-1 #
coedge $-1 $295 $119 $121 $205 forward $73 $-1 #
coedge $-1 $119 $295 $291 $296 forward $73 $-1 #
coedge $-1 $293 $122 $119 $202 forward $196 $-1 #
edge $-1 $208 -23.961664433080248 $297 -1.6419903374474156 $201 $298 forward 7 unknown #
coedge $-1 $299 $300 $120 $204 forward $289 $-1 #
edge $-1 $301 -50.120242115378446 $207 -45.653209414274386 $203 $302 forward 7 unknown #
edge $-1 $208 56.101286851284925 $301 61.259371870137308 $121 $303 forward 7 unknown #
coedge $-1 $122 $293 $299 $304 forward $196 $-1 #
vertex $-1 $204 $305 #
vertex $-1 $123 $306 #
straight-curve $-1 -36.763491818344079 44.63148305828981 8.8147164046299693 0 -1 0 I I #
coedge $-1 $210 $210 $-1 $307 reversed $126 $-1 #
edge $-1 $308 0 $308 6.2831853071796004 $127 $309 forward 7 unknown #
vertex $-1 $130 $310 #
ellipse-curve $-1 -30.386442076734696 29.340164714908202 6.5812000540779483 0 0.86602541151947299 0.49999998660252726 1 0 0 1 I I #
coedge $-1 $214 $214 $-1 $311 reversed $133 $-1 #
edge $-1 $312 0 $312 6.2831853071796004 $134 $313 forward 7 unknown #
vertex $-1 $137 $314 #
ellipse-curve $-1 -20.820867464320624 29.340164714908202 6.5812000540779483 0 0.86602541151947299 0.49999998660252726 1 0 0 1 I I #
face $-1 $-1 $315 $29 $-1 $316 reversed single #
loop $-1 $-1 $224 $138 #
plane-surface $-1 0 0 8.8147164046299729 0 0 1 1 0 0 forward_v I I I I #
coedge $-1 $317 $318 $223 $319 reversed $139 $-1 #
coedge $-1 $320 $141 $143 $228 forward $87 $-1 #
coedge $-1 $141 $320 $221 $319 forward $87 $-1 #
coedge $-1 $321 $144 $141 $225 forward $219 $-1 #
edge $-1 $231 3.5168124776035103 $322 28.242007658162301 $224 $323 forward 7 unknown #
coedge $-1 $324 $325 $142 $227 forward $315 $-1 #
edge $-1 $326 -33.920203225911216 $230 -28.864902301248481 $226 $327 forward 7 unknown #
edge $-1 $231 -7.0276952066078167 $326 -2.5437104257963417e-014 $143 $328 forward 7 unknown #
coedge $-1 $144 $321 $324 $329 forward $219 $-1 #
vertex $-1 $227 $330 #
vertex $-1 $145 $331 #
straight-curve $-1 -19.396222545486417 -52.386736883631833 8.8147164046299693 0 1 0 I I #
coedge $-1 $233 $233 $-1 $332 reversed $148 $-1 #
edge $-1 $333 0 $333 6.2831853071796004 $149 $334 forward 7 unknown #
vertex $-1 $152 $335 #
ellipse-curve $-1 -37.057076245885554 -28.188762314895218 6.2870659422986064 0 -0.71933980857756763 0.69465836192734942 1.5 0 0 1 I I #
coedge $-1 $237 $237 $-1 $336 reversed $155 $-1 #
edge $-1 $337 0 $337 6.2831853071796004 $156 $338 forward 7 unknown #
vertex $-1 $159 $339 #
ellipse-curve $-1 -26.460564025646072 -28.188762314895218 6.2870659422986064 0 -0.71933980857756763 0.69465836192734942 1.5 0 0 1 I I #
face $-1 $-1 $175 $24 $-1 $340 reversed single #
loop $-1 $-1 $257 $160 #
plane-surface $-1 0 30.629685935068647 0 0 -1 0 0 0 -1 forward_v I I I I #
coedge $-1 $341 $255 $258 $342 forward $161 $-1 #
coedge $-1 $261 $163 $164 $249 reversed $101 $-1 #
coedge $-1 $255 $341 $163 $247 reversed $161 $-1 #
edge $-1 $262 -8.8147164046299729 $343 8.8147164046299729 $246 $344 forward 7 unknown #
coedge $-1 $165 $164 $341 $345 forward $65 $-1 #
edge $-1 $253 -51.535996581926938 $343 51.535996581926938 $245 $346 forward 7 unknown #
coedge $-1 $258 $257 $165 $251 reversed $242 $-1 #
edge $-1 $347 -51.535996581926938 $252 51.535996581926938 $250 $348 forward 7 unknown #
vertex $-1 $167 $349 #
vertex $-1 $264 $350 #
straight-curve $-1 51.535996581926938 0 -8.8147164046299729 0 -1 0 I I #
coedge $-1 $244 $246 $168 $256 reversed $161 $-1 #
edge $-1 $259 -30.629685935068647 $262 30.629685935068647 $255 $351 forward 7 unknown #
coedge $-1 $250 $169 $174 $265 forward $242 $-1 #
coedge $-1 $169 $250 $244 $342 reversed $242 $-1 #
vertex $-1 $170 $352 #
straight-curve $-1 0 30.629685935068647 8.8147164046299729 -1 0 0 I I #
coedge $-1 $171 $245 $173 $264 reversed $101 $-1 #
vertex $-1 $256 $353 #
straight-curve $-1 0 -30.629685935068647 8.8147164046299729 1 0 0 I I #
edge $-1 $176 -8.8147164046299729 $253 8.8147164046299729 $173 $354 forward 7 unknown #
edge $-1 $177 -8.8147164046299729 $252 8.8147164046299729 $174 $355 forward 7 unknown #
point $-1 51.535996581926938 -30.629685935068647 8.8147164046299729 #
point $-1 51.535996581926938 30.629685935068647 8.8147164046299729 #
face $-1 $-1 $277 $25 $-1 $356 reversed single #
loop $-1 $-1 $274 $179 #
plane-surface $-1 0 0 8.8147164046299729 0 0 1 1 0 0 forward_v I I I I #
coedge $-1 $357 $358 $186 $280 forward $180 $-1 #
coedge $-1 $182 $284 $359 $360 reversed $109 $-1 #
edge $-1 $361 -5.3610730170222958 $192 -1.5462137581930584 $182 $362 forward 7 unknown #
coedge $-1 $359 $363 $183 $275 forward $269 $-1 #
edge $-1 $278 -30.629685935068647 $361 30.629685935068647 $274 $364 forward 7 unknown #
coedge $-1 $281 $184 $363 $365 reversed $277 $-1 #
loop $-1 $-1 $184 $268 #
vertex $-1 $185 $366 #
straight-curve $-1 -44.121417726045209 -30.629685935068647 3.4536433876076771 0 0 1 I I #
edge $-1 $285 -30.629685935068647 $282 30.629685935068647 $271 $367 forward 7 unknown #
coedge $-1 $187 $276 $357 $368 forward $277 $-1 #
vertex $-1 $280 $369 #
straight-curve $-1 -23.914353576993037 -30.629685935068647 4.9998571458007355 1 0 0 I I #
coedge $-1 $272 $189 $358 $370 reversed $109 $-1 #
vertex $-1 $280 $371 #
straight-curve $-1 -23.914353576993037 30.629685935068647 4.9998571458007355 -1 0 0 I I #
point $-1 -44.121417726045209 30.629685935068647 4.9998571458007355 #
point $-1 -44.121417726045209 -30.629685935068647 4.9998571458007355 #
loop $-1 $-1 $203 $195 #
plane-surface $-1 0 30.629685935068647 0 0 -1 0 0 0 -1 forward_v I I I I #
coedge $-1 $292 $198 $200 $296 reversed $117 $-1 #
coedge $-1 $198 $291 $372 $373 reversed $117 $-1 #
coedge $-1 $206 $201 $198 $294 forward $196 $-1 #
edge $-1 $297 -16.580839563542046 $374 -14.001797123221163 $293 $375 forward 7 unknown #
coedge $-1 $200 $199 $300 $376 reversed $73 $-1 #
edge $-1 $377 -61.259371870137308 $297 -56.101286851284925 $291 $378 forward 7 unknown #
vertex $-1 $202 $379 #
straight-curve $-1 -12.801827385263831 28.05064349474776 8.8147164046299729 1 0 0 I I #
coedge $-1 $372 $203 $206 $304 reversed $289 $-1 #
coedge $-1 $203 $372 $295 $376 forward $289 $-1 #
vertex $-1 $204 $380 #
straight-curve $-1 -36.763491818344079 30.629685935068647 54.467925818904362 0 0 1 I I #
straight-curve $-1 -36.763491818344079 8.2072075713313097e-007 57.399856436786003 0 0.49999998660252726 -0.86602541151947299 I I #
edge $-1 $374 14.443817722711247 $207 36.763491818344079 $299 $381 forward 7 unknown #
point $-1 -36.763491818344079 30.629685935068647 8.8147164046299729 #
point $-1 -36.763491818344079 28.050643494747764 8.8147164046299693 #
edge $-1 $382 1 $382 0 $210 $-1 forward 7 unknown #
vertex $-1 $211 $383 #
ellipse-curve $-1 -30.386442076734696 27.760296707492575 5.6690628673000143 0 0.86602541151947299 0.49999998660252726 1 0 0 1 I I #
point $-1 -29.386442076734696 29.340164714908209 6.5812000540779518 #
edge $-1 $384 1 $384 0 $214 $-1 forward 7 unknown #
vertex $-1 $215 $385 #
ellipse-curve $-1 -20.820867464320624 27.760296707492575 5.6690628673000143 0 0.86602541151947299 0.49999998660252726 1 0 0 1 I I #
point $-1 -19.820867464320624 29.340164714908209 6.5812000540779518 #
loop $-1 $-1 $226 $218 #
plane-surface $-1 0 -30.629685935068647 0 0 1 0 0 0 1 forward_v I I I I #
coedge $-1 $318 $221 $386 $387 reversed $139 $-1 #
coedge $-1 $221 $317 $321 $388 reversed $139 $-1 #
edge $-1 $389 2.5437104257963417e-014 $322 7.0276952066078167 $221 $390 forward 7 unknown #
coedge $-1 $223 $222 $325 $391 reversed $87 $-1 #
coedge $-1 $229 $224 $318 $388 forward $219 $-1 #
vertex $-1 $388 $392 #
straight-curve $-1 -15.879410067882906 -25.747838694721796 8.8147164046299729 -1 0 0 I I #
coedge $-1 $386 $226 $229 $329 reversed $315 $-1 #
coedge $-1 $226 $386 $320 $391 forward $315 $-1 #
vertex $-1 $227 $393 #
straight-curve $-1 -19.396222545486417 -30.62968593506865 37.679618705878454 0 0 1 I I #
straight-curve $-1 -19.396222545486417 -30.629685935068665 3.7594154799672168 0 -0.69465836192734942 -0.71933980857756763 I I #
edge $-1 $394 -44.121417726045209 $230 -19.396222545486417 $324 $395 forward 7 unknown #
point $-1 -19.396222545486417 -30.629685935068647 8.8147164046299729 #
point $-1 -19.396222545486417 -25.747838694721793 8.8147164046299729 #
edge $-1 $396 1 $396 0 $233 $-1 forward 7 unknown #
vertex $-1 $234 $397 #
ellipse-curve $-1 -37.057076245885554 -26.551000296113877 4.7054975824949805 0 -0.71933980857756763 0.69465836192734942 1.5 0 0 1 I I #
point $-1 -35.557076245885554 -28.188762314895211 6.2870659422985966 #
edge $-1 $398 1 $398 0 $237 $-1 forward 7 unknown #
vertex $-1 $238 $399 #
ellipse-curve $-1 -26.460564025646072 -26.551000296113877 4.7054975824949805 0 -0.71933980857756763 0.69465836192734942 1.5 0 0 1 I I #
point $-1 -24.960564025646072 -28.188762314895211 6.2870659422985966 #
plane-surface $-1 51.535996581926938 0 0 -1 0 0 0 0 1 forward_v I I I I #
coedge $-1 $246 $244 $248 $345 reversed $161 $-1 #
edge $-1 $259 -8.8147164046299729 $347 8.8147164046299729 $258 $400 forward 7 unknown #
vertex $-1 $345 $401 #
straight-curve $-1 -51.535996581926938 -30.629685935068647 0 0 0 -1 I I #
edge $-1 $343 -30.629685935068647 $347 30.629685935068647 $341 $402 forward 7 unknown #
straight-curve $-1 0 -30.629685935068647 -8.8147164046299729 -1 0 0 I I #
vertex $-1 $251 $403 #
straight-curve $-1 0 30.629685935068647 -8.8147164046299729 1 0 0 I I #
point $-1 51.535996581926938 30.629685935068647 -8.8147164046299729 #
point $-1 51.535996581926938 -30.629685935068647 -8.8147164046299729 #
straight-curve $-1 -51.535996581926938 0 8.8147164046299729 0 -1 0 I I #
point $-1 -51.535996581926938 30.629685935068647 8.8147164046299729 #
point $-1 -51.535996581926938 -30.629685935068647 8.8147164046299729 #
straight-curve $-1 51.535996581926938 -30.629685935068647 0 0 0 -1 I I #
straight-curve $-1 51.535996581926938 30.629685935068647 0 0 0 -1 I I #
plane-surface $-1 0 -30.629685935068647 0 0 1 0 0 0 1 forward_v I I I I #
coedge $-1 $404 $271 $281 $368 reversed $180 $-1 #
coedge $-1 $271 $404 $284 $370 forward $180 $-1 #
coedge $-1 $405 $274 $272 $360 forward $269 $-1 #
edge $-1 $361 44.121417726045209 $406 51.535996581926938 $272 $407 forward 7 unknown #
vertex $-1 $360 $408 #
straight-curve $-1 -44.121417726045209 30.629685935068647 3.4536433876076771 0 0 -1 I I #
coedge $-1 $274 $405 $276 $365 forward $269 $-1 #
straight-curve $-1 -44.121417726045209 0 8.8147164046299729 0 1 0 I I #
edge $-1 $409 -51.535996581926938 $278 -44.121417726045209 $276 $410 forward 7 unknown #
point $-1 -44.121417726045209 -30.629685935068647 8.8147164046299729 #
straight-curve $-1 -51.535996581926938 0 4.9998571458007355 0 -1 0 I I #
edge $-1 $409 -8.8147164046299729 $282 -4.9998571458007355 $357 $411 forward 7 unknown #
point $-1 -51.535996581926938 -30.629685935068647 4.9998571458007355 #
edge $-1 $406 -8.8147164046299729 $285 -4.9998571458007355 $284 $412 forward 7 unknown #
point $-1 -51.535996581926938 30.629685935068647 4.9998571458007355 #
coedge $-1 $300 $299 $292 $373 forward $289 $-1 #
edge $-1 $374 45.653209414274386 $377 50.120242115378446 $372 $413 forward 7 unknown #
vertex $-1 $304 $414 #
straight-curve $-1 -14.443817722711247 44.63148305828981 8.8147164046299693 0 1 0 I I #
edge $-1 $377 1.6419903374474156 $301 23.961664433080248 $300 $415 forward 7 unknown #
vertex $-1 $376 $416 #
straight-curve $-1 -14.443817722711247 8.2072075713313097e-007 57.399856436786003 0 -0.49999998660252726 0.86602541151947299 I I #
point $-1 -14.443817722711247 28.050643494747764 8.8147164046299693 #
point $-1 -36.763491818344079 30.629685935068647 4.3476837035259166 #
straight-curve $-1 0 30.629685935068647 8.8147164046299729 -1 0 0 I I #
vertex $-1 $307 $417 #
point $-1 -29.386442076734696 27.760296707492575 5.6690628673000143 #
vertex $-1 $311 $418 #
point $-1 -19.820867464320624 27.760296707492575 5.6690628673000143 #
coedge $-1 $325 $324 $317 $387 forward $315 $-1 #
edge $-1 $394 28.864902301248481 $389 33.920203225911216 $386 $419 forward 7 unknown #
edge $-1 $322 25.747838694721793 $394 30.629685935068647 $321 $420 forward 7 unknown #
vertex $-1 $387 $421 #
straight-curve $-1 -44.121417726045209 -30.629685935068665 3.7594154799672168 0 0.69465836192734942 0.71933980857756763 I I #
edge $-1 $389 -28.242007658162301 $326 -3.5168124776035103 $325 $422 forward 7 unknown #
point $-1 -44.121417726045209 -25.747838694721793 8.8147164046299729 #
point $-1 -19.396222545486417 -30.629685935068647 3.759415479967235 #
vertex $-1 $329 $423 #
straight-curve $-1 0 -30.629685935068647 8.8147164046299729 1 0 0 I I #
vertex $-1 $332 $424 #
point $-1 -35.557076245885554 -26.551000296113877 4.7054975824949805 #
vertex $-1 $336 $425 #
point $-1 -24.960564025646072 -26.551000296113877 4.7054975824949805 #
straight-curve $-1 -51.535996581926938 30.629685935068647 0 0 0 -1 I I #
point $-1 -51.535996581926938 -30.629685935068647 -8.8147164046299729 #
straight-curve $-1 -51.535996581926938 0 -8.8147164046299729 0 1 0 I I #
point $-1 -51.535996581926938 30.629685935068647 -8.8147164046299729 #
coedge $-1 $358 $357 $405 $426 reversed $180 $-1 #
coedge $-1 $363 $359 $404 $426 forward $269 $-1 #
vertex $-1 $360 $427 #
straight-curve $-1 0 30.629685935068647 8.8147164046299729 -1 0 0 I I #
point $-1 -44.121417726045209 30.629685935068647 8.8147164046299729 #
vertex $-1 $426 $428 #
straight-curve $-1 0 -30.629685935068647 8.8147164046299729 1 0 0 I I #
straight-curve $-1 -51.535996581926938 -30.629685935068647 0 0 0 -1 I I #
straight-curve $-1 -51.535996581926938 30.629685935068647 0 0 0 -1 I I #
straight-curve $-1 -14.443817722711247 30.629685935068647 54.467925818904362 0 0 -1 I I #
point $-1 -14.443817722711247 30.629685935068647 8.8147164046299729 #
straight-curve $-1 -12.801827385263831 30.62968593506865 4.3476837035259059 -1 0 0 I I #
point $-1 -14.443817722711247 30.629685935068647 4.3476837035259166 #
point $-1 -30.386442076734696 26.894271295973102 5.1690628806974876 #
point $-1 -20.820867464320624 26.894271295973102 5.1690628806974876 #
straight-curve $-1 -44.121417726045209 -30.62968593506865 37.679618705878454 0 0 -1 I I #
straight-curve $-1 -44.121417726045209 0 8.8147164046299729 0 -1 0 I I #
point $-1 -44.121417726045209 -30.629685935068647 3.759415479967235 #
straight-curve $-1 -15.879410067882906 -30.629685935068647 3.7594154799672372 1 0 0 I I #
point $-1 -44.121417726045209 -30.629685935068647 8.8147164046299729 #
point $-1 -37.057076245885554 -25.471990583247525 3.6635100396039566 #
point $-1 -26.460564025646072 -25.471990583247525 3.6635100396039566 #
edge $-1 $406 -30.629685935068647 $409 30.629685935068647 $404 $429 forward 7 unknown #
point $-1 -51.535996581926938 30.629685935068647 8.8147164046299729 #
point $-1 -51.535996581926938 -30.629685935068647 8.8147164046299729 #
straight-curve $-1 -51.535996581926938 0 8.8147164046299729 0 -1 0 I I #
End-of-ACIS-data 