500 0 7 0           
7 Unknown 11 ACIS 5.0 NT 24 Thu Mar 25 21:08:03 1999 
-1 9.9999999999999995e-007 1e-010 
body $-1 $7 $-1 $8 #
body $-1 $9 $-1 $10 #
body $-1 $11 $-1 $12 #
body $-1 $13 $-1 $14 #
body $-1 $15 $-1 $16 #
body $-1 $17 $-1 $18 #
body $-1 $19 $-1 $20 #
lump $-1 $-1 $21 $0 #
transform $-1 1 0 0 0 1 0 0 0 1 49.823297830133974 29.382775575106326 13.350614264194327 1 rotate no_reflect no_shear #
lump $-1 $-1 $22 $1 #
transform $-1 1 0 0 0 1 0 0 0 1 49.823297830133974 29.382775575106326 13.350614264194327 1 rotate no_reflect no_shear #
lump $-1 $-1 $23 $2 #
transform $-1 1 0 0 0 1 0 0 0 1 49.823297830133974 29.382775575106326 13.350614264194327 1 rotate no_reflect no_shear #
lump $-1 $-1 $24 $3 #
transform $-1 1 0 0 0 1 0 0 0 1 49.823297830133974 29.382775575106326 13.350614264194327 1 rotate no_reflect no_shear #
lump $-1 $-1 $25 $4 #
transform $-1 1 0 0 0 1 0 0 0 1 49.823297830133974 29.382775575106326 13.350614264194327 1 rotate no_reflect no_shear #
lump $-1 $-1 $26 $5 #
transform $-1 1 0 0 0 1 0 0 0 1 49.823297830133974 29.382775575106326 13.350614264194327 1 rotate no_reflect no_shear #
lump $-1 $-1 $27 $6 #
transform $-1 1 0 0 0 1 0 0 0 1 49.823297830133974 29.382775575106326 13.350614264194327 1 rotate no_reflect no_shear #
shell $-1 $-1 $-1 $28 $-1 $7 #
shell $-1 $-1 $-1 $29 $-1 $9 #
shell $-1 $-1 $-1 $30 $-1 $11 #
shell $-1 $-1 $-1 $31 $-1 $13 #
shell $-1 $-1 $-1 $32 $-1 $15 #
shell $-1 $-1 $-1 $33 $-1 $17 #
shell $-1 $-1 $-1 $34 $-1 $19 #
face $-1 $35 $36 $21 $-1 $37 forward single #
face $-1 $38 $39 $22 $-1 $40 reversed single #
face $-1 $41 $42 $23 $-1 $43 reversed single #
face $-1 $44 $45 $24 $-1 $46 forward single #
face $-1 $47 $48 $25 $-1 $49 reversed single #
face $-1 $50 $51 $26 $-1 $52 forward single #
face $-1 $53 $54 $27 $-1 $55 forward single #
face $-1 $56 $57 $21 $-1 $58 reversed single #
loop $-1 $-1 $59 $28 #
plane-surface $-1 0 0 13.350614264194327 0 0 1 1 0 0 forward_v I I I I #
face $-1 $60 $61 $22 $-1 $62 reversed single #
loop $-1 $-1 $63 $29 #
plane-surface $-1 0 -21.52923099895883 10.350614264194327 0 0 1 1 0 0 forward_v I I I I #
face $-1 $64 $65 $23 $-1 $66 reversed single #
loop $-1 $-1 $67 $30 #
plane-surface $-1 39.993107725913084 24.36210886750429 150.03273688915218 0 -1 0 -0.6560590369687036 0 -0.75470957328743171 forward_v I I I I #
face $-1 $68 $69 $24 $-1 $70 forward single #
loop $-1 $71 $72 $31 #
cone-surface $-1 46.667411670177096 18.354487978927363 10.350090315686115 -0.6560590369687036 0 -0.75470957328743171 0.75470957328743171 0 -0.6560590369687036 1 I I 0 1 1 forward I I I I #
face $-1 $73 $74 $25 $-1 $75 reversed single #
loop $-1 $-1 $76 $32 #
plane-surface $-1 -49.823297830133967 -9.1242172261558885 8.1593178027936375 -0.75470958851134928 0 0.65605901945558964 0.65605901945558964 0 0.75470958851134928 forward_v I I I I #
face $-1 $77 $78 $26 $-1 $79 forward single #
loop $-1 $80 $81 $33 #
cone-surface $-1 -47.098751406116143 -11.074846881865369 10.347979989960132 0.75470958851134928 0 -0.65605901945558964 0.65605901945558964 0 0.75470958851134928 1 I I 0 1 1 forward I I I I #
face $-1 $82 $83 $27 $-1 $84 forward single #
loop $-1 $85 $86 $34 #
cone-surface $-1 -47.098751406116143 -7.1735875704464149 10.347979989960132 0.75470958851134928 0 -0.65605901945558964 0.65605901945558964 0 0.75470958851134928 1 I I 0 1 1 forward I I I I #
face $-1 $87 $88 $21 $-1 $89 reversed single #
loop $-1 $-1 $90 $35 #
plane-surface $-1 0 0 -13.350614264194327 0 0 1 1 0 0 forward_v I I I I #
coedge $-1 $91 $92 $93 $94 forward $36 $-1 #
face $-1 $95 $96 $22 $-1 $97 reversed single #
loop $-1 $-1 $98 $38 #
plane-surface $-1 0 -13.675686422811337 11.850614264194327 0 -1 0 0 0 -1 forward_v I I I I #
coedge $-1 $99 $100 $101 $102 reversed $39 $-1 #
face $-1 $103 $104 $23 $-1 $105 reversed single #
loop $-1 $-1 $106 $41 #
plane-surface $-1 -25.380941860172108 18.354487978927363 74.828497198846108 0.6560590369687036 0 0.75470957328743171 0.75470957328743171 0 -0.6560590369687036 forward_v I I I I #
coedge $-1 $107 $108 $109 $110 reversed $42 $-1 #
face $-1 $-1 $111 $24 $-1 $112 forward single #
loop $-1 $113 $114 $44 #
cone-surface $-1 45.424509456428318 18.354487978927363 8.9202949062508949 -0.6560590369687036 0 -0.75470957328743171 0.37735478664371586 0 -0.3280295184843518 1 I I -0.70710678118654746 0.70710678118654746 0.5 forward I I I I #
loop $-1 $-1 $115 $31 #
coedge $-1 $72 $72 $116 $117 reversed $45 $-1 #
face $-1 $118 $119 $25 $-1 $120 forward single #
loop $-1 $-1 $121 $47 #
plane-surface $-1 -125.02753903745159 -4.5727480295004401 73.533365643756639 0 -1 0 0.75470958851134928 0 -0.65605901945558964 forward_v I I I I #
coedge $-1 $122 $123 $124 $125 reversed $48 $-1 #
face $-1 $-1 $126 $26 $-1 $127 forward single #
loop $-1 $128 $129 $50 #
cone-surface $-1 -46.253212713253021 -11.074846881865369 9.6129644366984834 0.75470958851134928 0 -0.65605901945558964 0.32802950972779482 0 0.37735479425567464 1 I I -0.70710678118654746 0.70710678118654746 0.5 forward I I I I #
loop $-1 $-1 $130 $33 #
coedge $-1 $81 $81 $131 $132 reversed $51 $-1 #
face $-1 $-1 $133 $27 $-1 $134 forward single #
loop $-1 $135 $136 $53 #
cone-surface $-1 -46.253212713253021 -7.1735875704464149 9.6129644366984834 0.75470958851134928 0 -0.65605901945558964 0.32802950972779482 0 0.37735479425567464 1 I I -0.70710678118654746 0.70710678118654746 0.5 forward I I I I #
loop $-1 $-1 $137 $34 #
coedge $-1 $86 $86 $138 $139 reversed $54 $-1 #
face $-1 $140 $141 $21 $-1 $142 reversed single #
loop $-1 $-1 $143 $56 #
plane-surface $-1 0 -29.382775575106326 0 0 1 0 0 0 1 forward_v I I I I #
coedge $-1 $144 $145 $146 $147 forward $57 $-1 #
coedge $-1 $148 $59 $149 $150 forward $36 $-1 #
coedge $-1 $59 $148 $151 $152 forward $36 $-1 #
coedge $-1 $153 $154 $59 $94 reversed $155 $-1 #
edge $-1 $156 -29.382775575106326 $157 29.382775575106326 $93 $158 forward 7 unknown #
face $-1 $159 $160 $22 $-1 $161 reversed single #
loop $-1 $-1 $162 $60 #
plane-surface $-1 -49.823297830133974 0 0 1 0 0 0 0 -1 forward_v I I I I #
coedge $-1 $163 $164 $165 $166 reversed $61 $-1 #
coedge $-1 $167 $63 $168 $169 reversed $39 $-1 #
coedge $-1 $63 $167 $170 $171 forward $39 $-1 #
coedge $-1 $172 $173 $63 $102 forward $174 $-1 #
edge $-1 $175 -18.618160075626907 $176 -2.9110709233319216 $101 $177 forward 7 unknown #
face $-1 $178 $179 $23 $-1 $180 reversed single #
loop $-1 $-1 $181 $64 #
plane-surface $-1 39.993107725913084 12.346867090350436 150.03273688915218 0 1 0 0.6560590369687036 0 0.75470957328743171 forward_v I I I I #
coedge $-1 $182 $183 $184 $185 reversed $65 $-1 #
coedge $-1 $108 $67 $186 $187 reversed $42 $-1 #
coedge $-1 $67 $107 $182 $188 reversed $42 $-1 #
coedge $-1 $184 $189 $67 $110 forward $190 $-1 #
edge $-1 $191 -29.826743967177432 $192 -25.344717037792545 $109 $193 forward 7 unknown #
loop $-1 $-1 $116 $68 #
plane-surface $-1 -25.380941860172108 18.354487978927363 74.828497198846108 0.6560590369687036 0 0.75470957328743171 0.75470957328743171 0 -0.6560590369687036 forward_v I I I I #
loop $-1 $-1 $194 $44 #
coedge $-1 $114 $114 $115 $195 reversed $69 $-1 #
coedge $-1 $115 $115 $114 $195 forward $71 $-1 #
coedge $-1 $116 $116 $72 $117 forward $111 $-1 #
edge $-1 $196 0 $196 6.2831853071796004 $116 $197 forward 7 unknown #
face $-1 $198 $199 $25 $-1 $200 reversed single #
loop $-1 $-1 $124 $73 #
plane-surface $-1 0 0 13.350614264194327 0 0 1 1 0 0 forward_v I I I I #
coedge $-1 $201 $202 $203 $204 reversed $74 $-1 #
coedge $-1 $205 $76 $206 $207 reversed $48 $-1 #
coedge $-1 $76 $205 $201 $208 forward $48 $-1 #
coedge $-1 $203 $209 $76 $125 forward $119 $-1 #
edge $-1 $210 -9.1135778097333926 $211 -0.010639416422495884 $124 $212 forward 7 unknown #
loop $-1 $-1 $131 $77 #
plane-surface $-1 -49.823297830133967 -9.1242172261558885 8.1593178027936375 -0.75470958851134928 0 0.65605901945558964 0.65605901945558964 0 0.75470958851134928 forward_v I I I I #
loop $-1 $-1 $213 $50 #
coedge $-1 $129 $129 $130 $214 reversed $78 $-1 #
coedge $-1 $130 $130 $129 $214 forward $80 $-1 #
coedge $-1 $131 $131 $81 $132 forward $126 $-1 #
edge $-1 $215 0 $215 6.2831853071796004 $131 $216 forward 7 unknown #
loop $-1 $-1 $138 $82 #
plane-surface $-1 -49.823297830133967 -9.1242172261558885 8.1593178027936375 -0.75470958851134928 0 0.65605901945558964 0.65605901945558964 0 0.75470958851134928 forward_v I I I I #
loop $-1 $-1 $217 $53 #
coedge $-1 $136 $136 $137 $218 reversed $83 $-1 #
coedge $-1 $137 $137 $136 $218 forward $85 $-1 #
coedge $-1 $138 $138 $86 $139 forward $133 $-1 #
edge $-1 $219 0 $219 6.2831853071796004 $138 $220 forward 7 unknown #
face $-1 $221 $222 $21 $-1 $223 reversed single #
loop $-1 $-1 $224 $87 #
plane-surface $-1 -49.823297830133974 0 0 1 0 0 0 0 -1 forward_v I I I I #
coedge $-1 $225 $151 $226 $227 forward $88 $-1 #
coedge $-1 $228 $90 $225 $229 forward $57 $-1 #
coedge $-1 $90 $228 $230 $231 forward $57 $-1 #
coedge $-1 $154 $153 $90 $147 reversed $155 $-1 #
edge $-1 $232 -29.382775575106326 $233 29.382775575106326 $146 $234 forward 7 unknown #
coedge $-1 $92 $91 $235 $236 forward $36 $-1 #
coedge $-1 $237 $238 $91 $150 reversed $222 $-1 #
edge $-1 $157 -49.823297830133974 $239 49.823297830133974 $149 $240 forward 7 unknown #
coedge $-1 $143 $241 $92 $152 reversed $88 $-1 #
edge $-1 $242 -49.823297830133974 $156 49.823297830133974 $151 $243 forward 7 unknown #
coedge $-1 $146 $93 $241 $244 forward $155 $-1 #
coedge $-1 $93 $146 $237 $245 reversed $155 $-1 #
loop $-1 $-1 $153 $221 #
vertex $-1 $94 $246 #
vertex $-1 $94 $247 #
straight-curve $-1 49.823297830133974 0 13.350614264194327 0 1 0 I I #
face $-1 $248 $249 $22 $-1 $250 forward single #
loop $-1 $-1 $168 $95 #
plane-surface $-1 0 -29.382775575106326 0 0 1 0 0 0 1 forward_v I I I I #
coedge $-1 $251 $252 $164 $253 forward $96 $-1 #
coedge $-1 $170 $98 $172 $254 reversed $61 $-1 #
coedge $-1 $98 $170 $162 $253 reversed $61 $-1 #
coedge $-1 $255 $256 $98 $166 forward $249 $-1 #
edge $-1 $257 -49.823297830133974 $258 49.823297830133974 $165 $259 forward 7 unknown #
coedge $-1 $100 $99 $251 $260 reversed $39 $-1 #
coedge $-1 $261 $262 $99 $169 forward $160 $-1 #
edge $-1 $263 -49.823297830133974 $175 49.823297830133974 $168 $264 forward 7 unknown #
coedge $-1 $164 $163 $100 $171 reversed $61 $-1 #
edge $-1 $265 -49.823297830133974 $176 49.823297830133974 $170 $266 forward 7 unknown #
coedge $-1 $267 $101 $163 $254 forward $174 $-1 #
coedge $-1 $101 $267 $261 $268 forward $174 $-1 #
loop $-1 $-1 $172 $248 #
vertex $-1 $169 $269 #
vertex $-1 $102 $270 #
straight-curve $-1 49.823297830133974 -10.764615499479415 10.350614264194327 0 1 0 I I #
face $-1 $-1 $190 $23 $-1 $271 forward single #
loop $-1 $-1 $272 $103 #
plane-surface $-1 49.823297830133974 0 0 -1 0 0 0 0 1 forward_v I I I I #
coedge $-1 $273 $274 $275 $276 reversed $104 $-1 #
coedge $-1 $277 $106 $108 $188 forward $65 $-1 #
coedge $-1 $106 $277 $273 $278 forward $65 $-1 #
coedge $-1 $275 $109 $106 $185 forward $190 $-1 #
edge $-1 $192 -15.184864878040608 $279 -3.1696231008867546 $184 $280 forward 7 unknown #
coedge $-1 $281 $282 $107 $187 forward $179 $-1 #
edge $-1 $283 -65.561920831815172 $191 -61.665754180381761 $186 $284 forward 7 unknown #
edge $-1 $192 93.707851687720137 $283 99.646595660267963 $108 $285 forward 7 unknown #
coedge $-1 $109 $275 $281 $286 forward $190 $-1 #
loop $-1 $-1 $275 $178 #
vertex $-1 $187 $287 #
vertex $-1 $110 $288 #
straight-curve $-1 19.996553862956542 24.36210886750429 13.35061426419432 -1 0 0 I I #
coedge $-1 $194 $194 $-1 $289 reversed $113 $-1 #
edge $-1 $290 0 $290 6.2831853071796004 $114 $291 forward 7 unknown #
vertex $-1 $117 $292 #
ellipse-curve $-1 47.582284365441524 18.354487978927363 11.402530938477623 0.6560590369687036 0 0.75470957328743171 0.75470957328743171 0 -0.6560590369687036 1 I I #
face $-1 $-1 $293 $25 $-1 $294 forward single #
loop $-1 $-1 $295 $118 #
plane-surface $-1 -49.823297830133974 0 0 1 0 0 0 0 -1 forward_v I I I I #
coedge $-1 $202 $121 $123 $208 reversed $74 $-1 #
coedge $-1 $121 $201 $295 $296 reversed $74 $-1 #
coedge $-1 $297 $124 $121 $204 forward $119 $-1 #
edge $-1 $211 -17.203196739412604 $298 -12.690471688591821 $203 $299 forward 7 unknown #
coedge $-1 $123 $122 $300 $301 reversed $48 $-1 #
coedge $-1 $302 $303 $122 $207 forward $293 $-1 #
edge $-1 $304 -17.73644037696932 $210 -10.857905188831015 $206 $305 forward 7 unknown #
edge $-1 $306 -1.1364747401606058e-014 $211 6.8785351881382946 $201 $307 forward 7 unknown #
coedge $-1 $124 $297 $302 $308 forward $119 $-1 #
vertex $-1 $207 $309 #
vertex $-1 $125 $310 #
straight-curve $-1 -45.31057277931319 -4.5621086130779442 13.350614264194327 0 1 0 I I #
coedge $-1 $213 $213 $-1 $311 reversed $128 $-1 #
edge $-1 $312 0 $312 6.2831853071796004 $129 $313 forward 7 unknown #
vertex $-1 $132 $314 #
ellipse-curve $-1 -47.566935304723579 -11.074846881865369 10.754966033493977 -0.75470958851134928 0 0.65605901945558964 0.65605901945558964 0 0.75470958851134928 1 I I #
coedge $-1 $217 $217 $-1 $315 reversed $135 $-1 #
edge $-1 $316 0 $316 6.2831853071796004 $136 $317 forward 7 unknown #
vertex $-1 $139 $318 #
ellipse-curve $-1 -47.566935304723579 -7.1735875704464149 10.754966033493977 -0.75470958851134928 0 0.65605901945558964 0.65605901945558964 0 0.75470958851134928 1 I I #
face $-1 $-1 $155 $21 $-1 $319 reversed single #
loop $-1 $-1 $237 $140 #
plane-surface $-1 0 29.382775575106326 0 0 -1 0 0 0 -1 forward_v I I I I #
coedge $-1 $320 $235 $238 $321 forward $141 $-1 #
coedge $-1 $241 $143 $144 $229 reversed $88 $-1 #
coedge $-1 $235 $320 $143 $227 reversed $141 $-1 #
edge $-1 $242 -13.350614264194327 $322 13.350614264194327 $226 $323 forward 7 unknown #
coedge $-1 $145 $144 $320 $324 forward $57 $-1 #
edge $-1 $233 -49.823297830133974 $322 49.823297830133974 $225 $325 forward 7 unknown #
coedge $-1 $238 $237 $145 $231 reversed $222 $-1 #
edge $-1 $326 -49.823297830133974 $232 49.823297830133974 $230 $327 forward 7 unknown #
vertex $-1 $147 $328 #
vertex $-1 $244 $329 #
straight-curve $-1 49.823297830133974 0 -13.350614264194327 0 -1 0 I I #
coedge $-1 $224 $226 $148 $236 reversed $141 $-1 #
edge $-1 $239 -29.382775575106326 $242 29.382775575106326 $235 $330 forward 7 unknown #
coedge $-1 $230 $149 $154 $245 forward $222 $-1 #
coedge $-1 $149 $230 $224 $321 reversed $222 $-1 #
vertex $-1 $150 $331 #
straight-curve $-1 0 29.382775575106326 13.350614264194327 -1 0 0 I I #
coedge $-1 $151 $225 $153 $244 reversed $88 $-1 #
vertex $-1 $236 $332 #
straight-curve $-1 0 -29.382775575106326 13.350614264194327 1 0 0 I I #
edge $-1 $156 -13.350614264194327 $233 13.350614264194327 $153 $333 forward 7 unknown #
edge $-1 $157 -13.350614264194327 $232 13.350614264194327 $154 $334 forward 7 unknown #
point $-1 49.823297830133974 -29.382775575106326 13.350614264194327 #
point $-1 49.823297830133974 29.382775575106326 13.350614264194327 #
face $-1 $-1 $174 $22 $-1 $335 reversed single #
loop $-1 $-1 $165 $159 #
plane-surface $-1 0 0 13.350614264194327 0 0 1 1 0 0 forward_v I I I I #
coedge $-1 $336 $162 $167 $260 forward $96 $-1 #
coedge $-1 $162 $336 $255 $337 reversed $96 $-1 #
edge $-1 $258 -7.4253071320971635 $265 -4.4253071320971635 $162 $338 forward 7 unknown #
edge $-1 $176 4.4253071320971635 $257 7.4253071320971635 $172 $339 forward 7 unknown #
coedge $-1 $340 $165 $252 $337 forward $249 $-1 #
coedge $-1 $165 $340 $267 $341 forward $249 $-1 #
vertex $-1 $254 $342 #
vertex $-1 $337 $343 #
straight-curve $-1 0 -13.675686422811337 13.350614264194327 -1 0 0 I I #
edge $-1 $265 2.9110709233319216 $263 18.618160075626907 $251 $344 forward 7 unknown #
coedge $-1 $345 $168 $173 $268 reversed $160 $-1 #
coedge $-1 $168 $345 $336 $346 forward $160 $-1 #
vertex $-1 $169 $347 #
straight-curve $-1 0 -29.382775575106326 10.350614264194327 1 0 0 I I #
vertex $-1 $260 $348 #
straight-curve $-1 0 -13.675686422811337 10.350614264194327 1 0 0 I I #
coedge $-1 $173 $172 $256 $341 reversed $174 $-1 #
edge $-1 $349 -13.350614264194327 $175 -10.350614264194327 $173 $350 forward 7 unknown #
point $-1 49.823297830133974 -29.382775575106322 10.350614264194327 #
point $-1 49.823297830133974 -13.675686422811337 10.350614264194327 #
plane-surface $-1 0 0 13.350614264194327 0 0 1 1 0 0 forward_v I I I I #
coedge $-1 $282 $281 $274 $351 forward $179 $-1 #
coedge $-1 $274 $181 $183 $278 reversed $104 $-1 #
coedge $-1 $181 $273 $272 $351 reversed $104 $-1 #
coedge $-1 $189 $184 $181 $276 forward $190 $-1 #
edge $-1 $279 25.344717037792545 $352 29.826743967177432 $275 $353 forward 7 unknown #
coedge $-1 $183 $182 $282 $354 reversed $65 $-1 #
edge $-1 $355 -99.646595660267963 $279 -93.707851687720137 $273 $356 forward 7 unknown #
vertex $-1 $185 $357 #
straight-curve $-1 45.341270900749088 9.1772439894636815 13.350614264194327 0 -1 0 I I #
coedge $-1 $272 $186 $189 $286 reversed $179 $-1 #
coedge $-1 $186 $272 $277 $354 forward $179 $-1 #
vertex $-1 $187 $358 #
straight-curve $-1 49.823297830133974 24.36210886750429 75.016368444576088 0 0 1 I I #
straight-curve $-1 -25.380941860172108 24.36210886750429 74.828497198846108 0.75470957328743171 0 -0.6560590369687036 I I #
edge $-1 $352 12.346867090350436 $191 24.36210886750429 $281 $359 forward 7 unknown #
point $-1 49.823297830133974 24.36210886750429 13.350614264194327 #
point $-1 45.341270900749088 24.36210886750429 13.350614264194327 #
edge $-1 $360 1 $360 0 $194 $-1 forward 7 unknown #
vertex $-1 $195 $361 #
ellipse-curve $-1 45.752538974912667 18.354487978927363 9.2976496928946109 0.6560590369687036 0 0.75470957328743171 0.75470957328743171 0 -0.6560590369687036 1 I I #
point $-1 48.336993938728952 18.354487978927363 10.746471901508917 #
loop $-1 $-1 $206 $198 #
plane-surface $-1 0 -13.675686422811337 11.850614264194327 0 -1 0 0 0 -1 forward_v I I I I #
coedge $-1 $300 $362 $202 $296 forward $199 $-1 #
edge $-1 $298 23.416068557683992 $306 28.607365019084689 $295 $363 forward 7 unknown #
coedge $-1 $209 $203 $362 $364 forward $119 $-1 #
vertex $-1 $364 $365 #
straight-curve $-1 -62.513769518725795 -4.5727480295004401 13.350614264194327 -1 0 0 I I #
coedge $-1 $366 $295 $205 $301 forward $199 $-1 #
edge $-1 $306 0.010639416422495884 $304 9.1135778097333926 $300 $367 forward 7 unknown #
coedge $-1 $303 $206 $209 $308 reversed $293 $-1 #
coedge $-1 $206 $302 $366 $368 reversed $293 $-1 #
vertex $-1 $368 $369 #
straight-curve $-1 -38.187146147786954 -13.675686422811337 21.545179421352223 0.65605901945558975 0 0.75470958851134939 I I #
vertex $-1 $301 $370 #
straight-curve $-1 -49.823297830133967 -4.5727480295004401 8.1593178027936375 0.65605901945558964 0 0.75470958851134928 I I #
edge $-1 $371 -49.823297830133974 $210 -45.31057277931319 $209 $372 forward 7 unknown #
point $-1 -45.31057277931319 -13.675686422811337 13.350614264194327 #
point $-1 -45.31057277931319 -4.5727480295004401 13.350614264194327 #
edge $-1 $373 1 $373 0 $213 $-1 forward 7 unknown #
vertex $-1 $214 $374 #
ellipse-curve $-1 -46.630567507508694 -11.074846881865369 9.9409939464262784 -0.75470958851134928 0 0.65605901945558964 0.65605901945558964 0 0.75470958851134928 1 I I #
point $-1 -46.910876285267996 -11.074846881865369 11.509675622005334 #
edge $-1 $375 1 $375 0 $217 $-1 forward 7 unknown #
vertex $-1 $218 $376 #
ellipse-curve $-1 -46.630567507508694 -7.1735875704464149 9.9409939464262784 -0.75470958851134928 0 0.65605901945558964 0.65605901945558964 0 0.75470958851134928 1 I I #
point $-1 -46.910876285267996 -7.1735875704464149 11.509675622005334 #
plane-surface $-1 49.823297830133974 0 0 -1 0 0 0 0 1 forward_v I I I I #
coedge $-1 $226 $224 $228 $324 reversed $141 $-1 #
edge $-1 $239 -13.350614264194327 $326 13.350614264194327 $238 $377 forward 7 unknown #
vertex $-1 $324 $378 #
straight-curve $-1 -49.823297830133974 -29.382775575106326 0 0 0 -1 I I #
edge $-1 $322 -29.382775575106326 $326 29.382775575106326 $320 $379 forward 7 unknown #
straight-curve $-1 0 -29.382775575106326 -13.350614264194327 -1 0 0 I I #
vertex $-1 $231 $380 #
straight-curve $-1 0 29.382775575106326 -13.350614264194327 1 0 0 I I #
point $-1 49.823297830133974 29.382775575106326 -13.350614264194327 #
point $-1 49.823297830133974 -29.382775575106326 -13.350614264194327 #
straight-curve $-1 -49.823297830133974 0 13.350614264194327 0 -1 0 I I #
point $-1 -49.823297830133974 29.382775575106326 13.350614264194327 #
point $-1 -49.823297830133974 -29.382775575106326 13.350614264194327 #
straight-curve $-1 49.823297830133974 -29.382775575106326 0 0 0 -1 I I #
straight-curve $-1 49.823297830133974 29.382775575106326 0 0 0 -1 I I #
plane-surface $-1 49.823297830133974 0 0 -1 0 0 0 0 1 forward_v I I I I #
coedge $-1 $252 $251 $262 $346 reversed $96 $-1 #
edge $-1 $258 13.675686422811337 $381 29.382775575106326 $252 $382 forward 7 unknown #
straight-curve $-1 -49.823297830133974 -13.675686422811337 5.9253071320971635 0 0 -1 I I #
straight-curve $-1 49.823297830133974 -13.675686422811337 5.9253071320971635 0 0 1 I I #
coedge $-1 $256 $255 $345 $383 forward $249 $-1 #
edge $-1 $349 -29.382775575106326 $257 -13.675686422811337 $267 $384 forward 7 unknown #
point $-1 49.823297830133974 -13.675686422811337 13.350614264194327 #
point $-1 -49.823297830133974 -13.675686422811337 13.350614264194327 #
straight-curve $-1 -49.823297830133974 -10.764615499479415 10.350614264194327 0 -1 0 I I #
coedge $-1 $262 $261 $340 $383 reversed $160 $-1 #
edge $-1 $381 -13.350614264194327 $263 -10.350614264194327 $336 $385 forward 7 unknown #
point $-1 -49.823297830133974 -29.382775575106322 10.350614264194327 #
point $-1 -49.823297830133974 -13.675686422811337 10.350614264194327 #
vertex $-1 $341 $386 #
straight-curve $-1 49.823297830133974 -29.382775575106326 0 0 0 -1 I I #
edge $-1 $352 61.665754180381761 $355 65.561920831815172 $272 $387 forward 7 unknown #
vertex $-1 $286 $388 #
straight-curve $-1 19.996553862956542 12.346867090350436 13.35061426419432 1 0 0 I I #
edge $-1 $355 3.1696231008867546 $283 15.184864878040608 $282 $389 forward 7 unknown #
vertex $-1 $354 $390 #
straight-curve $-1 -25.380941860172108 12.346867090350436 74.828497198846108 -0.75470957328743171 0 0.6560590369687036 I I #
point $-1 45.341270900749088 12.346867090350436 13.350614264194327 #
point $-1 49.823297830133974 24.36210886750429 9.4544476127609158 #
straight-curve $-1 49.823297830133974 0 13.350614264194327 0 1 0 I I #
vertex $-1 $289 $391 #
point $-1 46.507248548200103 18.354487978927363 8.6415906559259064 #
coedge $-1 $295 $366 $297 $364 reversed $199 $-1 #
straight-curve $-1 -49.823297830133974 -4.5727480295004401 36.766682821878319 0 0 -1 I I #
edge $-1 $298 4.5727480295004401 $371 13.675686422811337 $362 $392 forward 7 unknown #
point $-1 -49.823297830133974 -4.5727480295004401 13.350614264194327 #
coedge $-1 $362 $300 $303 $368 forward $199 $-1 #
straight-curve $-1 -49.823297830133974 -4.5621086130779442 8.1593178027936268 0 -1 0 I I #
edge $-1 $304 -28.607365019084689 $371 -23.416068557683992 $366 $393 forward 7 unknown #
point $-1 -49.823297830133974 -13.675686422811337 8.1593178027936286 #
point $-1 -49.823297830133974 -4.5727480295004401 8.1593178027936286 #
vertex $-1 $368 $394 #
straight-curve $-1 0 -13.675686422811337 13.350614264194327 1 0 0 I I #
vertex $-1 $311 $395 #
point $-1 -45.974508488053104 -11.074846881865369 10.695703534937628 #
vertex $-1 $315 $396 #
point $-1 -45.974508488053104 -7.1735875704464149 10.695703534937628 #
straight-curve $-1 -49.823297830133974 29.382775575106326 0 0 0 -1 I I #
point $-1 -49.823297830133974 -29.382775575106326 -13.350614264194327 #
straight-curve $-1 -49.823297830133974 0 -13.350614264194327 0 1 0 I I #
point $-1 -49.823297830133974 29.382775575106326 -13.350614264194327 #
vertex $-1 $337 $397 #
straight-curve $-1 -49.823297830133974 0 13.350614264194327 0 -1 0 I I #
edge $-1 $381 -49.823297830133974 $349 49.823297830133974 $345 $398 forward 7 unknown #
straight-curve $-1 49.823297830133974 0 13.350614264194327 0 1 0 I I #
straight-curve $-1 -49.823297830133974 -29.382775575106326 0 0 0 -1 I I #
point $-1 49.823297830133974 -29.382775575106326 13.350614264194327 #
straight-curve $-1 49.823297830133974 12.346867090350436 75.016368444576088 0 0 -1 I I #
point $-1 49.823297830133974 12.346867090350436 13.350614264194327 #
straight-curve $-1 49.823297830133974 9.1772439894636815 9.4544476127609052 0 1 0 I I #
point $-1 49.823297830133974 12.346867090350436 9.4544476127609158 #
point $-1 45.096479937943968 18.354487978927363 8.542940119607179 #
straight-curve $-1 -49.823297830133974 0 13.350614264194327 0 -1 0 I I #
straight-curve $-1 -49.823297830133974 -13.675686422811337 36.766682821878319 0 0 1 I I #
point $-1 -49.823297830133974 -13.675686422811337 13.350614264194327 #
point $-1 -45.875857918997347 -11.074846881865369 9.2849349269706885 #
point $-1 -45.875857918997347 -7.1735875704464149 9.2849349269706885 #
point $-1 -49.823297830133974 -29.382775575106326 13.350614264194327 #
straight-curve $-1 0 -29.382775575106326 13.350614264194327 1 0 0 I I #
End-of-ACIS-data 