500 0 7 0           
7 Unknown 11 ACIS 5.0 NT 24 Thu Mar 25 17:12:15 1999 
-1 9.9999999999999995e-007 1e-010 
body $-1 $7 $-1 $8 #
body $-1 $9 $-1 $10 #
body $-1 $11 $-1 $12 #
body $-1 $13 $-1 $14 #
body $-1 $15 $-1 $16 #
body $-1 $17 $-1 $18 #
body $-1 $19 $-1 $20 #
lump $-1 $-1 $21 $0 #
transform $-1 1 0 0 0 1 0 0 0 1 48.307138279366434 23.271960548995601 9.0800205704136498 1 rotate no_reflect no_shear #
lump $-1 $-1 $22 $1 #
transform $-1 1 0 0 0 1 0 0 0 1 48.307138279366434 23.271960548995601 9.0800205704136498 1 rotate no_reflect no_shear #
lump $-1 $-1 $23 $2 #
transform $-1 1 0 0 0 1 0 0 0 1 48.307138279366434 23.271960548995601 9.0800205704136498 1 rotate no_reflect no_shear #
lump $-1 $-1 $24 $3 #
transform $-1 1 0 0 0 1 0 0 0 1 48.307138279366434 23.271960548995601 9.0800205704136498 1 rotate no_reflect no_shear #
lump $-1 $-1 $25 $4 #
transform $-1 1 0 0 0 1 0 0 0 1 48.307138279366434 23.271960548995601 9.0800205704136498 1 rotate no_reflect no_shear #
lump $-1 $-1 $26 $5 #
transform $-1 1 0 0 0 1 0 0 0 1 48.307138279366434 23.271960548995601 9.0800205704136498 1 rotate no_reflect no_shear #
lump $-1 $-1 $27 $6 #
transform $-1 1 0 0 0 1 0 0 0 1 48.307138279366434 23.271960548995601 9.0800205704136498 1 rotate no_reflect no_shear #
shell $-1 $-1 $-1 $28 $-1 $7 #
shell $-1 $-1 $-1 $29 $-1 $9 #
shell $-1 $-1 $-1 $30 $-1 $11 #
shell $-1 $-1 $-1 $31 $-1 $13 #
shell $-1 $-1 $-1 $32 $-1 $15 #
shell $-1 $-1 $-1 $33 $-1 $17 #
shell $-1 $-1 $-1 $34 $-1 $19 #
face $-1 $35 $36 $21 $-1 $37 reversed single #
face $-1 $38 $39 $22 $-1 $40 forward single #
face $-1 $41 $42 $23 $-1 $43 forward single #
face $-1 $44 $45 $24 $-1 $46 reversed single #
face $-1 $47 $48 $25 $-1 $49 forward single #
face $-1 $50 $51 $26 $-1 $52 reversed single #
face $-1 $53 $54 $27 $-1 $55 forward single #
face $-1 $56 $57 $21 $-1 $58 reversed single #
loop $-1 $-1 $59 $28 #
plane-surface $-1 48.307138279366434 0 0 -1 0 0 0 0 1 forward_v I I I I #
face $-1 $60 $61 $22 $-1 $62 reversed single #
loop $-1 $-1 $63 $29 #
plane-surface $-1 -48.307138279366434 0 0 1 0 0 0 0 -1 forward_v I I I I #
face $-1 $64 $65 $23 $-1 $66 reversed single #
loop $-1 $-1 $67 $30 #
plane-surface $-1 48.307138279366434 0 0 -1 0 0 0 0 1 forward_v I I I I #
face $-1 $68 $69 $24 $-1 $70 reversed single #
loop $-1 $-1 $71 $31 #
plane-surface $-1 -22.05687022066007 -107.77271155496672 52.570153359773926 -1 0 0 0 -0.87461971476443456 0.48480960649040278 forward_v I I I I #
face $-1 $72 $73 $25 $-1 $74 forward single #
loop $-1 $75 $76 $32 #
cone-surface $-1 -30.879933344755329 -21.613157706847613 7.0003981614329032 0 0.87461971476443456 -0.48480960649040278 0.5 0 0 1 I I 0 1 0.5 forward I I I I #
face $-1 $77 $78 $26 $-1 $79 reversed single #
loop $-1 $-1 $80 $33 #
plane-surface $-1 -39.702996468850586 85.207771482929246 93.278384354517343 1 0 0 0 -0.87461971476443456 -0.48480960649040278 forward_v I I I I #
face $-1 $81 $82 $27 $-1 $83 forward single #
loop $-1 $84 $85 $34 #
cone-surface $-1 -30.879933344755329 21.613157706847606 7.0003981614328996 0 -0.87461971476443456 -0.48480960649040278 0.5 0 0 1 I I 0 1 0.5 forward I I I I #
face $-1 $86 $87 $21 $-1 $88 forward single #
loop $-1 $-1 $89 $35 #
plane-surface $-1 -48.307138279366434 0 0 1 0 0 0 0 -1 forward_v I I I I #
coedge $-1 $90 $91 $92 $93 reversed $36 $-1 #
face $-1 $94 $95 $22 $-1 $96 reversed single #
loop $-1 $-1 $97 $38 #
plane-surface $-1 0 0 -9.0800205704136498 0 0 1 1 0 0 forward_v I I I I #
coedge $-1 $98 $99 $100 $101 forward $39 $-1 #
face $-1 $102 $103 $23 $-1 $104 reversed single #
loop $-1 $-1 $105 $41 #
plane-surface $-1 0 0 -9.0800205704136498 0 0 1 1 0 0 forward_v I I I I #
coedge $-1 $106 $107 $108 $109 forward $42 $-1 #
face $-1 $110 $111 $24 $-1 $112 reversed single #
loop $-1 $-1 $113 $44 #
plane-surface $-1 -30.879933344755329 -23.27196054899558 5.7306239599796953 0 -0.87461971476443456 0.48480960649040278 1 0 0 forward_v I I I I #
coedge $-1 $114 $115 $116 $117 reversed $45 $-1 #
face $-1 $-1 $118 $25 $-1 $119 forward single #
loop $-1 $120 $121 $47 #
cone-surface $-1 -30.879933344755329 -20.664000330610364 6.4742716560465237 0 0.87461971476443456 -0.48480960649040278 0.25 0 0 1 I I -0.70710678118654746 0.70710678118654746 0.25 forward I I I I #
loop $-1 $-1 $122 $32 #
coedge $-1 $76 $76 $123 $124 reversed $48 $-1 #
face $-1 $125 $126 $26 $-1 $127 reversed single #
loop $-1 $-1 $128 $50 #
plane-surface $-1 -30.879933344755329 0.70702047695810677 46.438854954723112 0 0.87461971476443456 0.48480960649040278 1 0 0 forward_v I I I I #
coedge $-1 $129 $130 $131 $132 reversed $51 $-1 #
face $-1 $-1 $133 $27 $-1 $134 forward single #
loop $-1 $135 $136 $53 #
cone-surface $-1 -30.879933344755329 20.664000330610357 6.4742716560465201 0 -0.87461971476443456 -0.48480960649040278 0.25 0 0 1 I I -0.70710678118654746 0.70710678118654746 0.25 forward I I I I #
loop $-1 $-1 $137 $34 #
coedge $-1 $85 $85 $138 $139 reversed $54 $-1 #
face $-1 $140 $141 $21 $-1 $142 reversed single #
loop $-1 $-1 $143 $56 #
plane-surface $-1 0 0 9.0800205704136498 0 0 1 1 0 0 forward_v I I I I #
coedge $-1 $144 $145 $146 $147 reversed $57 $-1 #
coedge $-1 $148 $59 $149 $150 reversed $36 $-1 #
coedge $-1 $59 $148 $151 $152 forward $36 $-1 #
coedge $-1 $153 $154 $59 $93 forward $141 $-1 #
edge $-1 $155 -23.271960548995601 $156 23.271960548995601 $59 $157 forward 7 unknown #
face $-1 $158 $159 $22 $-1 $160 reversed single #
loop $-1 $-1 $161 $60 #
plane-surface $-1 -52.609209184624355 -8.1119194081683013 0 0 1 0 0 0 1 forward_v I I I I #
coedge $-1 $162 $163 $99 $164 forward $61 $-1 #
coedge $-1 $165 $63 $166 $167 reversed $39 $-1 #
coedge $-1 $63 $165 $97 $164 reversed $39 $-1 #
coedge $-1 $168 $169 $63 $101 reversed $170 $-1 #
edge $-1 $171 -9.0800205704136498 $172 9.0800205704136498 $100 $173 forward 7 unknown #
face $-1 $174 $175 $23 $-1 $176 reversed single #
loop $-1 $-1 $108 $64 #
plane-surface $-1 52.609209184624355 -8.1119194081683013 0 0 1 0 0 0 1 forward_v I I I I #
coedge $-1 $177 $178 $107 $179 forward $65 $-1 #
coedge $-1 $180 $67 $181 $182 reversed $42 $-1 #
coedge $-1 $67 $180 $105 $179 reversed $42 $-1 #
coedge $-1 $183 $184 $67 $109 reversed $103 $-1 #
edge $-1 $185 -9.0800205704136498 $186 9.0800205704136498 $108 $187 forward 7 unknown #
face $-1 $188 $189 $24 $-1 $190 forward single #
loop $-1 $-1 $191 $68 #
plane-surface $-1 -39.702996468850586 -107.77271155496672 52.570153359773926 1 0 0 0 0.87461971476443456 -0.48480960649040278 forward_v I I I I #
coedge $-1 $192 $193 $194 $195 reversed $69 $-1 #
coedge $-1 $115 $71 $196 $197 reversed $45 $-1 #
coedge $-1 $71 $114 $192 $198 reversed $45 $-1 #
coedge $-1 $194 $199 $71 $117 forward $189 $-1 #
edge $-1 $200 30.614395228487759 $201 32.47099601769149 $116 $202 forward 7 unknown #
loop $-1 $-1 $123 $72 #
plane-surface $-1 -30.879933344755329 -23.27196054899558 5.7306239599796953 0 -0.87461971476443456 0.48480960649040278 1 0 0 forward_v I I I I #
loop $-1 $-1 $203 $47 #
coedge $-1 $121 $121 $122 $204 reversed $73 $-1 #
coedge $-1 $122 $122 $121 $204 forward $75 $-1 #
coedge $-1 $123 $123 $76 $124 forward $118 $-1 #
edge $-1 $205 7.4473130684480599e-016 $205 6.2831853071796013 $123 $206 forward 7 unknown #
face $-1 $207 $208 $26 $-1 $209 reversed single #
loop $-1 $-1 $210 $77 #
plane-surface $-1 -22.05687022066007 85.207771482929246 93.278384354517343 -1 0 0 0 0.87461971476443456 0.48480960649040278 forward_v I I I I #
coedge $-1 $211 $212 $213 $214 reversed $78 $-1 #
coedge $-1 $130 $80 $215 $216 reversed $51 $-1 #
coedge $-1 $80 $129 $211 $217 reversed $51 $-1 #
coedge $-1 $213 $218 $80 $132 forward $219 $-1 #
edge $-1 $220 19.331925192469022 $221 21.188525981672754 $131 $222 forward 7 unknown #
loop $-1 $-1 $138 $81 #
plane-surface $-1 -30.879933344755329 0.70702047695810677 46.438854954723112 0 0.87461971476443456 0.48480960649040278 1 0 0 forward_v I I I I #
loop $-1 $-1 $223 $53 #
coedge $-1 $136 $136 $137 $224 reversed $82 $-1 #
coedge $-1 $137 $137 $136 $224 forward $84 $-1 #
coedge $-1 $138 $138 $85 $139 forward $133 $-1 #
edge $-1 $225 1.3389337176632714e-016 $225 6.2831853071796004 $138 $226 forward 7 unknown #
face $-1 $227 $228 $21 $-1 $229 reversed single #
loop $-1 $-1 $92 $86 #
plane-surface $-1 0 0 -9.0800205704136498 0 0 1 1 0 0 forward_v I I I I #
coedge $-1 $230 $231 $148 $232 forward $87 $-1 #
coedge $-1 $233 $89 $234 $235 reversed $57 $-1 #
coedge $-1 $89 $233 $236 $237 forward $57 $-1 #
coedge $-1 $154 $153 $89 $147 forward $141 $-1 #
edge $-1 $238 -23.271960548995601 $239 23.271960548995601 $89 $240 forward 7 unknown #
coedge $-1 $91 $90 $143 $232 reversed $36 $-1 #
coedge $-1 $241 $242 $90 $150 forward $243 $-1 #
edge $-1 $244 -9.0800205704136498 $155 9.0800205704136498 $90 $245 forward 7 unknown #
coedge $-1 $246 $247 $91 $152 reversed $228 $-1 #
edge $-1 $248 -9.0800205704136498 $156 9.0800205704136498 $91 $249 forward 7 unknown #
coedge $-1 $146 $92 $247 $250 forward $141 $-1 #
coedge $-1 $92 $146 $241 $251 forward $141 $-1 #
vertex $-1 $93 $252 #
vertex $-1 $152 $253 #
straight-curve $-1 48.307138279366434 0 -9.0800205704136498 0 -1 0 I I #
face $-1 $254 $170 $22 $-1 $255 reversed single #
loop $-1 $-1 $256 $94 #
plane-surface $-1 -56.911280089882275 -6.6119194081683013 0 1 0 0 0 0 -1 forward_v I I I I #
coedge $-1 $257 $258 $259 $260 forward $95 $-1 #
coedge $-1 $261 $97 $257 $262 forward $61 $-1 #
coedge $-1 $97 $261 $168 $263 forward $61 $-1 #
edge $-1 $171 5.1119194081683013 $264 8.1119194081683013 $97 $265 forward 7 unknown #
coedge $-1 $99 $98 $266 $267 forward $39 $-1 #
coedge $-1 $268 $269 $98 $167 forward $270 $-1 #
edge $-1 $271 -8.1119194081683013 $172 -5.1119194081683013 $166 $272 forward 7 unknown #
coedge $-1 $273 $100 $163 $263 reversed $170 $-1 #
coedge $-1 $100 $273 $268 $274 reversed $170 $-1 #
loop $-1 $-1 $100 $158 #
vertex $-1 $164 $275 #
vertex $-1 $274 $276 #
straight-curve $-1 -48.307138279366434 -5.1119194081683013 0 0 0 1 I I #
face $-1 $277 $278 $23 $-1 $279 reversed single #
loop $-1 $-1 $280 $102 #
plane-surface $-1 52.609209184624355 -5.1119194081683013 0 0 -1 0 0 0 -1 forward_v I I I I #
coedge $-1 $281 $105 $282 $283 forward $65 $-1 #
coedge $-1 $105 $281 $183 $284 forward $65 $-1 #
edge $-1 $185 -8.1119194081683013 $285 -5.1119194081683013 $105 $286 forward 7 unknown #
coedge $-1 $107 $106 $287 $288 forward $42 $-1 #
coedge $-1 $289 $290 $106 $182 forward $291 $-1 #
edge $-1 $292 5.1119194081683013 $186 8.1119194081683013 $181 $293 forward 7 unknown #
coedge $-1 $294 $108 $178 $284 reversed $103 $-1 #
coedge $-1 $108 $294 $289 $295 reversed $103 $-1 #
vertex $-1 $179 $296 #
vertex $-1 $295 $297 #
straight-curve $-1 48.307138279366434 -8.1119194081683013 0 0 0 1 I I #
face $-1 $-1 $298 $24 $-1 $299 reversed single #
loop $-1 $-1 $116 $110 #
plane-surface $-1 0 0 9.0800205704136498 0 0 1 1 0 0 forward_v I I I I #
coedge $-1 $300 $301 $302 $303 reversed $111 $-1 #
coedge $-1 $304 $113 $115 $198 forward $69 $-1 #
coedge $-1 $113 $304 $300 $305 forward $69 $-1 #
coedge $-1 $302 $116 $113 $195 forward $189 $-1 #
edge $-1 $201 6.616903548282405 $306 24.263029796472921 $194 $307 forward 7 unknown #
coedge $-1 $308 $309 $114 $197 forward $298 $-1 #
edge $-1 $310 -20.554452719907307 $200 -17.205056109473311 $196 $311 forward 7 unknown #
edge $-1 $201 -3.8295462060743315 $310 4.3737527635770193e-014 $115 $312 forward 7 unknown #
coedge $-1 $116 $302 $308 $313 forward $189 $-1 #
vertex $-1 $117 $314 #
vertex $-1 $117 $315 #
straight-curve $-1 -22.05687022066007 -53.886355777483359 9.0800205704136516 0 1 0 I I #
coedge $-1 $203 $203 $-1 $316 reversed $120 $-1 #
edge $-1 $317 0 $317 6.2831853071796004 $121 $318 forward 7 unknown #
vertex $-1 $124 $319 #
ellipse-curve $-1 -30.879933344755329 -22.343660154393728 7.4053222651966673 0 -0.87461971476443456 0.48480960649040278 0.5 0 0 1 I I #
face $-1 $-1 $219 $26 $-1 $320 forward single #
loop $-1 $-1 $321 $125 #
plane-surface $-1 0 23.271960548995601 0 0 -1 0 0 0 -1 forward_v I I I I #
coedge $-1 $322 $323 $324 $325 reversed $126 $-1 #
coedge $-1 $326 $128 $130 $217 forward $78 $-1 #
coedge $-1 $128 $326 $322 $327 forward $78 $-1 #
coedge $-1 $324 $131 $128 $214 forward $219 $-1 #
edge $-1 $221 -24.263029796472921 $328 -6.616903548282405 $213 $329 forward 7 unknown #
coedge $-1 $330 $331 $129 $216 forward $208 $-1 #
edge $-1 $332 -40.908568217279019 $220 -37.55917160684502 $215 $333 forward 7 unknown #
edge $-1 $221 42.714374891916876 $332 46.543921097991259 $130 $334 forward 7 unknown #
coedge $-1 $131 $324 $330 $335 forward $219 $-1 #
loop $-1 $-1 $324 $207 #
vertex $-1 $216 $336 #
vertex $-1 $132 $337 #
straight-curve $-1 -39.702996468850586 42.603885741464623 9.0800205704136516 0 -1 0 I I #
coedge $-1 $223 $223 $-1 $338 reversed $135 $-1 #
edge $-1 $339 0 $339 6.2831853071796004 $136 $340 forward 7 unknown #
vertex $-1 $139 $341 #
ellipse-curve $-1 -30.879933344755329 22.343660154393728 7.4053222651966681 0 0.87461971476443456 0.48480960649040278 0.5 0 0 1 I I #
face $-1 $-1 $243 $21 $-1 $342 reversed single #
loop $-1 $-1 $234 $140 #
plane-surface $-1 0 -23.271960548995601 0 0 1 0 0 0 1 forward_v I I I I #
coedge $-1 $343 $143 $242 $344 forward $87 $-1 #
coedge $-1 $143 $343 $246 $345 forward $87 $-1 #
edge $-1 $248 -23.271960548995601 $244 23.271960548995601 $148 $346 forward 7 unknown #
coedge $-1 $145 $144 $343 $347 reversed $57 $-1 #
coedge $-1 $247 $246 $144 $235 forward $228 $-1 #
edge $-1 $348 -9.0800205704136498 $238 9.0800205704136498 $144 $349 forward 7 unknown #
coedge $-1 $242 $241 $145 $237 reversed $243 $-1 #
edge $-1 $350 -9.0800205704136498 $239 9.0800205704136498 $236 $351 forward 7 unknown #
vertex $-1 $147 $352 #
vertex $-1 $251 $353 #
straight-curve $-1 -48.307138279366434 0 -9.0800205704136498 0 1 0 I I #
coedge $-1 $236 $149 $154 $251 reversed $243 $-1 #
coedge $-1 $149 $236 $230 $344 reversed $243 $-1 #
loop $-1 $-1 $149 $227 #
vertex $-1 $232 $354 #
straight-curve $-1 48.307138279366434 23.271960548995601 0 0 0 -1 I I #
coedge $-1 $234 $151 $231 $345 reversed $228 $-1 #
coedge $-1 $151 $234 $153 $250 reversed $228 $-1 #
vertex $-1 $232 $355 #
straight-curve $-1 48.307138279366434 -23.271960548995601 0 0 0 -1 I I #
edge $-1 $156 -48.307138279366434 $238 48.307138279366434 $247 $356 forward 7 unknown #
edge $-1 $239 -48.307138279366434 $155 48.307138279366434 $241 $357 forward 7 unknown #
point $-1 48.307138279366434 23.271960548995601 -9.0800205704136498 #
point $-1 48.307138279366434 -23.271960548995601 -9.0800205704136498 #
face $-1 $-1 $270 $22 $-1 $358 forward single #
plane-surface $-1 -52.609209184624355 -5.1119194081683013 0 0 -1 0 0 0 -1 forward_v I I I I #
coedge $-1 $359 $360 $273 $361 forward $159 $-1 #
coedge $-1 $266 $161 $162 $262 reversed $95 $-1 #
coedge $-1 $161 $266 $269 $362 reversed $95 $-1 #
coedge $-1 $360 $359 $161 $260 reversed $159 $-1 #
edge $-1 $363 -9.0800205704136498 $364 9.0800205704136498 $259 $365 forward 7 unknown #
coedge $-1 $163 $162 $359 $366 forward $61 $-1 #
edge $-1 $264 -4.3020709052579207 $364 4.3020709052579207 $257 $367 forward 7 unknown #
edge $-1 $368 -4.3020709052579207 $171 4.3020709052579207 $168 $369 forward 7 unknown #
vertex $-1 $262 $370 #
straight-curve $-1 -48.307138279366434 0 -9.0800205704136498 0 -1 0 I I #
coedge $-1 $258 $257 $165 $267 reversed $95 $-1 #
edge $-1 $271 -9.0800205704136498 $264 9.0800205704136498 $266 $371 forward 7 unknown #
coedge $-1 $372 $166 $169 $274 forward $270 $-1 #
coedge $-1 $166 $372 $258 $362 forward $270 $-1 #
loop $-1 $-1 $166 $254 #
vertex $-1 $167 $373 #
straight-curve $-1 -48.307138279366434 0 9.0800205704136498 0 1 0 I I #
coedge $-1 $169 $168 $256 $361 reversed $170 $-1 #
edge $-1 $172 -4.3020709052579207 $374 4.3020709052579207 $169 $375 forward 7 unknown #
point $-1 -48.307138279366434 -5.1119194081683013 -9.0800205704136498 #
point $-1 -48.307138279366434 -5.1119194081683013 9.0800205704136498 #
face $-1 $-1 $291 $23 $-1 $376 forward single #
loop $-1 $-1 $377 $174 #
plane-surface $-1 56.911280089882275 -6.6119194081683013 0 -1 0 0 0 0 1 forward_v I I I I #
coedge $-1 $282 $378 $379 $380 forward $175 $-1 #
coedge $-1 $178 $177 $381 $382 forward $65 $-1 #
coedge $-1 $287 $280 $177 $283 reversed $175 $-1 #
edge $-1 $285 -4.3020709052579207 $383 4.3020709052579207 $282 $384 forward 7 unknown #
edge $-1 $385 -4.3020709052579207 $185 4.3020709052579207 $183 $386 forward 7 unknown #
vertex $-1 $283 $387 #
straight-curve $-1 48.307138279366434 0 -9.0800205704136498 0 1 0 I I #
coedge $-1 $378 $282 $180 $288 reversed $175 $-1 #
edge $-1 $292 -9.0800205704136498 $285 9.0800205704136498 $287 $388 forward 7 unknown #
coedge $-1 $389 $181 $184 $295 forward $291 $-1 #
coedge $-1 $181 $389 $378 $390 forward $291 $-1 #
loop $-1 $-1 $181 $277 #
vertex $-1 $182 $391 #
straight-curve $-1 48.307138279366434 0 9.0800205704136498 0 -1 0 I I #
coedge $-1 $184 $183 $377 $392 reversed $103 $-1 #
edge $-1 $186 -4.3020709052579207 $393 4.3020709052579207 $184 $394 forward 7 unknown #
point $-1 48.307138279366434 -8.1119194081683013 -9.0800205704136498 #
point $-1 48.307138279366434 -8.1119194081683013 9.0800205704136498 #
loop $-1 $-1 $196 $188 #
plane-surface $-1 0 -23.271960548995601 0 0 1 0 0 0 1 forward_v I I I I #
coedge $-1 $301 $191 $193 $305 reversed $111 $-1 #
coedge $-1 $191 $300 $395 $396 reversed $111 $-1 #
coedge $-1 $199 $194 $191 $303 forward $189 $-1 #
edge $-1 $306 -32.47099601769149 $397 -30.614395228487759 $302 $398 forward 7 unknown #
coedge $-1 $193 $192 $309 $399 reversed $69 $-1 #
edge $-1 $400 -4.3737527635770193e-014 $306 3.8295462060743315 $300 $401 forward 7 unknown #
vertex $-1 $195 $402 #
straight-curve $-1 -15.439966672377665 -21.415359759791865 9.0800205704136498 -1 0 0 I I #
coedge $-1 $395 $196 $199 $313 reversed $298 $-1 #
coedge $-1 $196 $395 $304 $399 forward $298 $-1 #
vertex $-1 $197 $403 #
straight-curve $-1 -22.05687022066007 -23.271960548995601 26.285076679886963 0 0 1 I I #
straight-curve $-1 -22.05687022066007 -23.27196054899558 5.7306239599796953 0 -0.48480960649040278 -0.87461971476443456 I I #
edge $-1 $397 -39.702996468850586 $200 -22.05687022066007 $308 $404 forward 7 unknown #
point $-1 -22.05687022066007 -23.271960548995601 9.0800205704136498 #
point $-1 -22.05687022066007 -21.415359759791869 9.0800205704136498 #
edge $-1 $405 1 $405 0 $203 $-1 forward 7 unknown #
vertex $-1 $204 $406 #
ellipse-curve $-1 -30.879933344755329 -20.882655259301472 6.595474057669124 0 -0.87461971476443456 0.48480960649040278 0.5 0 0 1 I I #
point $-1 -30.379933344755329 -22.343660154393753 7.4053222651966815 #
plane-surface $-1 0 0 9.0800205704136498 0 0 1 1 0 0 forward_v I I I I #
coedge $-1 $331 $330 $323 $407 forward $208 $-1 #
coedge $-1 $323 $210 $212 $327 reversed $126 $-1 #
coedge $-1 $210 $322 $321 $407 reversed $126 $-1 #
coedge $-1 $218 $213 $210 $325 forward $219 $-1 #
edge $-1 $328 -21.188525981672754 $408 -19.331925192469022 $324 $409 forward 7 unknown #
coedge $-1 $212 $211 $331 $410 reversed $78 $-1 #
edge $-1 $411 -46.543921097991259 $328 -42.714374891916876 $322 $412 forward 7 unknown #
vertex $-1 $214 $413 #
straight-curve $-1 -15.439966672377665 21.415359759791862 9.0800205704136516 1 0 0 I I #
coedge $-1 $321 $215 $218 $335 reversed $208 $-1 #
coedge $-1 $215 $321 $326 $410 forward $208 $-1 #
vertex $-1 $216 $414 #
straight-curve $-1 -39.702996468850586 23.271960548995601 46.639192177258671 0 0 1 I I #
straight-curve $-1 -39.702996468850586 0.70702047695810677 46.438854954723112 0 0.48480960649040278 -0.87461971476443456 I I #
edge $-1 $408 22.05687022066007 $220 39.702996468850586 $330 $415 forward 7 unknown #
point $-1 -39.702996468850586 23.271960548995601 9.0800205704136498 #
point $-1 -39.702996468850586 21.415359759791869 9.0800205704136516 #
edge $-1 $416 1 $416 0 $223 $-1 forward 7 unknown #
vertex $-1 $224 $417 #
ellipse-curve $-1 -30.879933344755329 20.882655259301465 6.5954740576691204 0 0.87461971476443456 0.48480960649040278 0.5 0 0 1 I I #
point $-1 -30.379933344755329 22.343660154393746 7.4053222651966779 #
plane-surface $-1 0 23.271960548995601 0 0 -1 0 0 0 -1 forward_v I I I I #
coedge $-1 $231 $230 $233 $347 forward $87 $-1 #
edge $-1 $244 -48.307138279366434 $350 48.307138279366434 $242 $418 forward 7 unknown #
edge $-1 $348 -48.307138279366434 $248 48.307138279366434 $246 $419 forward 7 unknown #
straight-curve $-1 48.307138279366434 0 9.0800205704136498 0 1 0 I I #
edge $-1 $350 -23.271960548995601 $348 23.271960548995601 $233 $420 forward 7 unknown #
vertex $-1 $347 $421 #
straight-curve $-1 -48.307138279366434 -23.271960548995601 0 0 0 -1 I I #
vertex $-1 $344 $422 #
straight-curve $-1 -48.307138279366434 23.271960548995601 0 0 0 -1 I I #
point $-1 -48.307138279366434 -23.271960548995601 -9.0800205704136498 #
point $-1 -48.307138279366434 23.271960548995601 -9.0800205704136498 #
point $-1 48.307138279366434 23.271960548995601 9.0800205704136498 #
point $-1 48.307138279366434 -23.271960548995601 9.0800205704136498 #
straight-curve $-1 0 -23.271960548995601 -9.0800205704136498 -1 0 0 I I #
straight-curve $-1 0 23.271960548995601 -9.0800205704136498 1 0 0 I I #
plane-surface $-1 0 0 9.0800205704136498 0 0 1 1 0 0 forward_v I I I I #
coedge $-1 $259 $256 $261 $366 reversed $159 $-1 #
coedge $-1 $256 $259 $372 $423 reversed $159 $-1 #
edge $-1 $374 -9.0800205704136498 $368 9.0800205704136498 $273 $424 forward 7 unknown #
edge $-1 $363 -4.3020709052579207 $271 4.3020709052579207 $258 $425 forward 7 unknown #
vertex $-1 $423 $426 #
vertex $-1 $366 $427 #
straight-curve $-1 -56.911280089882275 -8.1119194081683013 0 0 0 -1 I I #
edge $-1 $364 -1.5 $368 1.5 $359 $428 forward 7 unknown #
straight-curve $-1 -52.609209184624355 -8.1119194081683013 -9.0800205704136498 -1 0 0 I I #
vertex $-1 $263 $429 #
straight-curve $-1 -52.609209184624355 -5.1119194081683013 -9.0800205704136498 1 0 0 I I #
point $-1 -48.307138279366434 -8.1119194081683013 -9.0800205704136498 #
straight-curve $-1 -48.307138279366434 -8.1119194081683013 0 0 0 -1 I I #
coedge $-1 $269 $268 $360 $423 forward $270 $-1 #
point $-1 -48.307138279366434 -8.1119194081683013 9.0800205704136498 #
vertex $-1 $274 $430 #
straight-curve $-1 -52.609209184624355 -5.1119194081683013 9.0800205704136498 -1 0 0 I I #
plane-surface $-1 0 0 9.0800205704136498 0 0 1 1 0 0 forward_v I I I I #
coedge $-1 $381 $431 $294 $392 forward $278 $-1 #
coedge $-1 $280 $287 $290 $390 reversed $175 $-1 #
coedge $-1 $431 $381 $280 $380 reversed $278 $-1 #
edge $-1 $432 -9.0800205704136498 $383 9.0800205704136498 $379 $433 forward 7 unknown #
coedge $-1 $379 $377 $281 $382 reversed $278 $-1 #
edge $-1 $383 -1.5 $385 1.5 $381 $434 forward 7 unknown #
vertex $-1 $382 $435 #
straight-curve $-1 52.609209184624355 -5.1119194081683013 -9.0800205704136498 1 0 0 I I #
vertex $-1 $392 $436 #
straight-curve $-1 52.609209184624355 -8.1119194081683013 -9.0800205704136498 -1 0 0 I I #
point $-1 48.307138279366434 -5.1119194081683013 -9.0800205704136498 #
straight-curve $-1 48.307138279366434 -5.1119194081683013 0 0 0 -1 I I #
coedge $-1 $290 $289 $431 $437 forward $291 $-1 #
edge $-1 $432 -4.3020709052579207 $292 4.3020709052579207 $378 $438 forward 7 unknown #
point $-1 48.307138279366434 -5.1119194081683013 9.0800205704136498 #
edge $-1 $393 -9.0800205704136498 $385 9.0800205704136498 $377 $439 forward 7 unknown #
vertex $-1 $437 $440 #
straight-curve $-1 52.609209184624355 -8.1119194081683013 9.0800205704136498 1 0 0 I I #
coedge $-1 $309 $308 $301 $396 forward $298 $-1 #
edge $-1 $397 17.205056109473311 $400 20.554452719907307 $395 $441 forward 7 unknown #
vertex $-1 $313 $442 #
straight-curve $-1 -39.702996468850586 -53.886355777483359 9.0800205704136516 0 -1 0 I I #
edge $-1 $400 -24.263029796472921 $310 -6.616903548282405 $309 $443 forward 7 unknown #
vertex $-1 $399 $444 #
straight-curve $-1 -39.702996468850586 -23.27196054899558 5.7306239599796953 0 0.48480960649040278 0.87461971476443456 I I #
point $-1 -39.702996468850586 -21.415359759791869 9.0800205704136498 #
point $-1 -22.05687022066007 -23.271960548995601 5.7306239599796571 #
straight-curve $-1 0 -23.271960548995601 9.0800205704136498 1 0 0 I I #
vertex $-1 $316 $445 #
point $-1 -30.379933344755329 -20.882655259301472 6.595474057669124 #
edge $-1 $408 37.55917160684502 $411 40.908568217279019 $321 $446 forward 7 unknown #
vertex $-1 $335 $447 #
straight-curve $-1 -22.05687022066007 42.603885741464623 9.0800205704136516 0 1 0 I I #
edge $-1 $411 6.616903548282405 $332 24.263029796472921 $331 $448 forward 7 unknown #
vertex $-1 $410 $449 #
straight-curve $-1 -22.05687022066007 0.70702047695810677 46.438854954723112 0 -0.48480960649040278 0.87461971476443456 I I #
point $-1 -22.05687022066007 21.415359759791869 9.0800205704136516 #
point $-1 -39.702996468850586 23.271960548995601 5.7306239599796527 #
straight-curve $-1 0 23.271960548995601 9.0800205704136498 -1 0 0 I I #
vertex $-1 $338 $450 #
point $-1 -30.379933344755329 20.882655259301465 6.5954740576691204 #
straight-curve $-1 0 23.271960548995601 9.0800205704136498 -1 0 0 I I #
straight-curve $-1 0 -23.271960548995601 9.0800205704136498 1 0 0 I I #
straight-curve $-1 -48.307138279366434 0 9.0800205704136498 0 -1 0 I I #
point $-1 -48.307138279366434 -23.271960548995601 9.0800205704136498 #
point $-1 -48.307138279366434 23.271960548995601 9.0800205704136498 #
edge $-1 $374 -1.5 $363 1.5 $360 $451 forward 7 unknown #
straight-curve $-1 -56.911280089882275 -5.1119194081683013 0 0 0 -1 I I #
straight-curve $-1 -52.609209184624355 -8.1119194081683013 9.0800205704136498 1 0 0 I I #
point $-1 -56.911280089882275 -8.1119194081683013 9.0800205704136498 #
point $-1 -56.911280089882275 -8.1119194081683013 -9.0800205704136498 #
straight-curve $-1 -56.911280089882275 -6.6119194081683013 -9.0800205704136498 0 1 0 I I #
point $-1 -56.911280089882275 -5.1119194081683013 -9.0800205704136498 #
point $-1 -56.911280089882275 -5.1119194081683013 9.0800205704136498 #
coedge $-1 $377 $379 $389 $437 reversed $278 $-1 #
vertex $-1 $437 $452 #
straight-curve $-1 56.911280089882275 -5.1119194081683013 0 0 0 -1 I I #
straight-curve $-1 56.911280089882275 -6.6119194081683013 -9.0800205704136498 0 -1 0 I I #
point $-1 56.911280089882275 -5.1119194081683013 -9.0800205704136498 #
point $-1 56.911280089882275 -8.1119194081683013 -9.0800205704136498 #
edge $-1 $393 -1.5 $432 1.5 $431 $453 forward 7 unknown #
straight-curve $-1 52.609209184624355 -5.1119194081683013 9.0800205704136498 -1 0 0 I I #
straight-curve $-1 56.911280089882275 -8.1119194081683013 0 0 0 -1 I I #
point $-1 56.911280089882275 -8.1119194081683013 9.0800205704136498 #
straight-curve $-1 -39.702996468850586 -23.271960548995601 26.285076679886963 0 0 -1 I I #
point $-1 -39.702996468850586 -23.271960548995601 9.0800205704136498 #
straight-curve $-1 -15.439966672377665 -23.271960548995601 5.7306239599796545 1 0 0 I I #
point $-1 -39.702996468850586 -23.271960548995601 5.7306239599796571 #
point $-1 -30.879933344755329 -20.445345401919255 6.3530692544239233 #
straight-curve $-1 -22.05687022066007 23.271960548995601 46.639192177258671 0 0 -1 I I #
point $-1 -22.05687022066007 23.271960548995601 9.0800205704136498 #
straight-curve $-1 -15.439966672377665 23.271960548995601 5.7306239599796598 -1 0 0 I I #
point $-1 -22.05687022066007 23.271960548995601 5.7306239599796527 #
point $-1 -30.879933344755329 20.445345401919248 6.3530692544239198 #
straight-curve $-1 -56.911280089882275 -6.6119194081683013 9.0800205704136498 0 -1 0 I I #
point $-1 56.911280089882275 -5.1119194081683013 9.0800205704136498 #
straight-curve $-1 56.911280089882275 -6.6119194081683013 9.0800205704136498 0 1 0 I I #
End-of-ACIS-data 