500 0 5 0           
7 Unknown 11 ACIS 5.0 NT 24 Thu Mar 25 15:21:27 1999 
-1 9.9999999999999995e-007 1e-010 
body $-1 $5 $-1 $6 #
body $-1 $7 $-1 $8 #
body $-1 $9 $-1 $10 #
body $-1 $11 $-1 $12 #
body $-1 $13 $-1 $14 #
lump $-1 $-1 $15 $0 #
transform $-1 1 0 0 0 1 0 0 0 1 79.141819513534955 45.252880349302373 12.988227135015386 1 rotate no_reflect no_shear #
lump $-1 $-1 $16 $1 #
transform $-1 1 0 0 0 1 0 0 0 1 79.141819513534955 45.252880349302373 12.988227135015386 1 rotate no_reflect no_shear #
lump $-1 $-1 $17 $2 #
transform $-1 1 0 0 0 1 0 0 0 1 79.141819513534955 45.252880349302373 12.988227135015386 1 rotate no_reflect no_shear #
lump $-1 $-1 $18 $3 #
transform $-1 1 0 0 0 1 0 0 0 1 79.141819513534955 45.252880349302373 12.988227135015386 1 rotate no_reflect no_shear #
lump $-1 $-1 $19 $4 #
transform $-1 1 0 0 0 1 0 0 0 1 79.141819513534955 45.252880349302373 12.988227135015386 1 rotate no_reflect no_shear #
shell $-1 $-1 $-1 $20 $-1 $5 #
shell $-1 $-1 $-1 $21 $-1 $7 #
shell $-1 $-1 $-1 $22 $-1 $9 #
shell $-1 $-1 $-1 $23 $-1 $11 #
shell $-1 $-1 $-1 $24 $-1 $13 #
face $-1 $25 $26 $15 $-1 $27 forward single #
face $-1 $28 $29 $16 $-1 $30 reversed single #
face $-1 $31 $32 $17 $-1 $33 reversed single #
face $-1 $34 $35 $18 $-1 $36 reversed single #
face $-1 $37 $38 $19 $-1 $39 forward single #
face $-1 $40 $41 $15 $-1 $42 reversed single #
loop $-1 $-1 $43 $20 #
plane-surface $-1 0 0 12.988227135015386 0 0 1 1 0 0 forward_v I I I I #
face $-1 $44 $45 $16 $-1 $46 reversed single #
loop $-1 $-1 $47 $21 #
plane-surface $-1 -77.511780558265215 -31.56535726679121 0 0 -1 0 0 0 -1 forward_v I I I I #
face $-1 $48 $49 $17 $-1 $50 reversed single #
loop $-1 $-1 $51 $22 #
plane-surface $-1 -74.572348726261936 29.648528489544283 0 0 1 0 0 0 1 forward_v I I I I #
face $-1 $52 $53 $18 $-1 $54 reversed single #
loop $-1 $-1 $55 $23 #
plane-surface $-1 -169.92958628942097 -24.932420354105751 133.74394592452725 0 1 0 -0.57357644374324357 0 0.81915203911291934 forward_v I I I I #
face $-1 $56 $57 $19 $-1 $58 forward single #
loop $-1 $59 $60 $24 #
cone-surface $-1 -72.486775986221119 -19.319637399895047 8.1114656212105629 0.57357644374324357 0 -0.81915203911291934 0.81915203911291934 0 0.57357644374324357 1 I I 0 1 1 forward I I I I #
face $-1 $61 $62 $15 $-1 $63 reversed single #
loop $-1 $-1 $64 $25 #
plane-surface $-1 0 0 -12.988227135015386 0 0 1 1 0 0 forward_v I I I I #
coedge $-1 $65 $66 $67 $68 forward $26 $-1 #
face $-1 $69 $70 $16 $-1 $71 forward single #
loop $-1 $-1 $72 $28 #
plane-surface $-1 -75.881741602995476 -38.409118808046792 0 -1 0 0 0 0 1 forward_v I I I I #
coedge $-1 $73 $74 $75 $76 forward $29 $-1 #
face $-1 $77 $78 $17 $-1 $79 reversed single #
loop $-1 $-1 $80 $31 #
plane-surface $-1 -76.691918627658694 37.450704419423332 0 1 0 0 0 0 -1 forward_v I I I I #
coedge $-1 $81 $82 $83 $84 forward $32 $-1 #
face $-1 $85 $86 $18 $-1 $87 reversed single #
loop $-1 $-1 $88 $34 #
plane-surface $-1 -79.141819513534927 -19.319637399895047 4.0855802572896778 -0.57357644374324357 0 0.81915203911291934 0.81915203911291934 0 0.57357644374324357 forward_v I I I I #
coedge $-1 $89 $90 $91 $92 reversed $35 $-1 #
face $-1 $-1 $93 $19 $-1 $94 forward single #
loop $-1 $95 $96 $37 #
cone-surface $-1 -71.902092811512119 -19.319637399895047 7.2764515267121297 0.57357644374324357 0 -0.81915203911291934 0.40957601955645967 0 0.28678822187162178 1 I I -0.70710678118654746 0.70710678118654746 0.5 forward I I I I #
loop $-1 $-1 $97 $24 #
coedge $-1 $60 $60 $98 $99 reversed $38 $-1 #
face $-1 $100 $101 $15 $-1 $102 reversed single #
loop $-1 $-1 $103 $40 #
plane-surface $-1 0 -45.252880349302373 0 0 1 0 0 0 1 forward_v I I I I #
coedge $-1 $104 $105 $106 $107 forward $41 $-1 #
coedge $-1 $108 $43 $109 $110 forward $26 $-1 #
coedge $-1 $43 $108 $111 $112 forward $26 $-1 #
coedge $-1 $113 $114 $43 $68 reversed $115 $-1 #
edge $-1 $116 -45.252880349302373 $117 45.252880349302373 $67 $118 forward 7 unknown #
face $-1 $119 $120 $16 $-1 $121 reversed single #
loop $-1 $-1 $122 $44 #
plane-surface $-1 0 0 12.988227135015386 0 0 1 1 0 0 forward_v I I I I #
coedge $-1 $123 $124 $125 $126 reversed $45 $-1 #
coedge $-1 $127 $47 $128 $129 reversed $29 $-1 #
coedge $-1 $47 $127 $130 $131 reversed $29 $-1 #
coedge $-1 $124 $123 $47 $76 reversed $45 $-1 #
edge $-1 $132 -12.988227135015386 $133 12.988227135015386 $75 $134 forward 7 unknown #
face $-1 $135 $136 $17 $-1 $137 reversed single #
loop $-1 $-1 $138 $48 #
plane-surface $-1 -72.452778824865177 37.450704419423332 0 -1 0 0 0 0 1 forward_v I I I I #
coedge $-1 $139 $140 $141 $142 reversed $49 $-1 #
coedge $-1 $143 $51 $144 $145 reversed $32 $-1 #
coedge $-1 $51 $143 $146 $147 reversed $32 $-1 #
coedge $-1 $140 $139 $51 $84 reversed $49 $-1 #
edge $-1 $148 -12.988227135015386 $149 12.988227135015386 $83 $150 forward 7 unknown #
face $-1 $151 $152 $18 $-1 $153 reversed single #
loop $-1 $-1 $154 $52 #
plane-surface $-1 -169.92958628942097 -13.706854445684343 133.74394592452725 0 -1 0 0.57357644374324357 0 -0.81915203911291934 forward_v I I I I #
coedge $-1 $155 $156 $157 $158 reversed $53 $-1 #
coedge $-1 $90 $55 $159 $160 reversed $35 $-1 #
coedge $-1 $55 $89 $155 $161 reversed $35 $-1 #
coedge $-1 $157 $162 $55 $92 forward $163 $-1 #
edge $-1 $164 5.8229736311755289 $165 18.53727078012848 $91 $166 forward 7 unknown #
loop $-1 $-1 $98 $56 #
plane-surface $-1 -79.141819513534927 -19.319637399895047 4.0855802572896778 -0.57357644374324357 0 0.81915203911291934 0.81915203911291934 0 0.57357644374324357 forward_v I I I I #
loop $-1 $-1 $167 $37 #
coedge $-1 $96 $96 $97 $168 reversed $57 $-1 #
coedge $-1 $97 $97 $96 $168 forward $59 $-1 #
coedge $-1 $98 $98 $60 $99 forward $93 $-1 #
edge $-1 $169 0 $169 6.2831853071796004 $98 $170 forward 7 unknown #
face $-1 $171 $172 $15 $-1 $173 reversed single #
loop $-1 $-1 $174 $61 #
plane-surface $-1 -79.141819513534955 0 0 1 0 0 0 0 -1 forward_v I I I I #
coedge $-1 $175 $111 $176 $177 forward $62 $-1 #
coedge $-1 $178 $64 $175 $179 forward $41 $-1 #
coedge $-1 $64 $178 $180 $181 forward $41 $-1 #
coedge $-1 $114 $113 $64 $107 reversed $115 $-1 #
edge $-1 $182 -45.252880349302373 $183 45.252880349302373 $106 $184 forward 7 unknown #
coedge $-1 $66 $65 $185 $186 forward $26 $-1 #
coedge $-1 $187 $188 $65 $110 reversed $172 $-1 #
edge $-1 $117 -79.141819513534955 $189 79.141819513534955 $109 $190 forward 7 unknown #
coedge $-1 $103 $191 $66 $112 reversed $62 $-1 #
edge $-1 $192 -79.141819513534955 $116 79.141819513534955 $111 $193 forward 7 unknown #
coedge $-1 $106 $67 $191 $194 forward $115 $-1 #
coedge $-1 $67 $106 $187 $195 reversed $115 $-1 #
loop $-1 $-1 $113 $171 #
vertex $-1 $68 $196 #
vertex $-1 $68 $197 #
straight-curve $-1 79.141819513534955 0 12.988227135015386 0 1 0 I I #
face $-1 $198 $199 $16 $-1 $200 reversed single #
loop $-1 $-1 $201 $69 #
plane-surface $-1 -79.141819513534955 0 0 1 0 0 0 0 -1 forward_v I I I I #
coedge $-1 $130 $202 $124 $203 forward $70 $-1 #
coedge $-1 $75 $72 $204 $205 reversed $45 $-1 #
coedge $-1 $72 $75 $122 $203 reversed $45 $-1 #
coedge $-1 $206 $207 $72 $126 forward $208 $-1 #
edge $-1 $209 -12.988227135015386 $210 12.988227135015386 $125 $211 forward 7 unknown #
coedge $-1 $74 $73 $201 $212 reversed $29 $-1 #
coedge $-1 $204 $213 $73 $129 forward $199 $-1 #
edge $-1 $214 -40.385929234402347 $133 -37.125851323862868 $128 $215 forward 7 unknown #
coedge $-1 $216 $122 $74 $131 forward $70 $-1 #
edge $-1 $132 37.125851323862868 $217 40.385929234402347 $130 $218 forward 7 unknown #
vertex $-1 $131 $219 #
vertex $-1 $129 $220 #
straight-curve $-1 -75.881741602995476 -31.56535726679121 0 0 0 -1 I I #
face $-1 $221 $222 $17 $-1 $223 forward single #
loop $-1 $-1 $224 $77 #
plane-surface $-1 0 0 -12.988227135015386 0 0 1 1 0 0 forward_v I I I I #
coedge $-1 $225 $226 $143 $227 forward $78 $-1 #
coedge $-1 $83 $80 $228 $229 reversed $49 $-1 #
coedge $-1 $80 $83 $230 $231 reversed $49 $-1 #
coedge $-1 $232 $233 $80 $142 forward $234 $-1 #
edge $-1 $235 -12.988227135015386 $236 12.988227135015386 $141 $237 forward 7 unknown #
coedge $-1 $82 $81 $138 $227 reversed $32 $-1 #
coedge $-1 $228 $224 $81 $145 forward $136 $-1 #
edge $-1 $238 35.16660446173421 $149 39.405744264527726 $144 $239 forward 7 unknown #
coedge $-1 $240 $230 $82 $147 forward $222 $-1 #
edge $-1 $148 -39.405744264527726 $241 -35.16660446173421 $146 $242 forward 7 unknown #
vertex $-1 $147 $243 #
vertex $-1 $145 $244 #
straight-curve $-1 -76.691918627658694 29.648528489544283 0 0 0 -1 I I #
face $-1 $-1 $163 $18 $-1 $245 forward single #
loop $-1 $-1 $246 $85 #
plane-surface $-1 -79.141819513534955 0 0 1 0 0 0 0 -1 forward_v I I I I #
coedge $-1 $247 $248 $249 $250 reversed $86 $-1 #
coedge $-1 $251 $88 $90 $161 forward $53 $-1 #
coedge $-1 $88 $251 $247 $252 forward $53 $-1 #
coedge $-1 $249 $91 $88 $158 forward $163 $-1 #
edge $-1 $165 -15.272601654158228 $253 -4.0470357457368191 $157 $254 forward 7 unknown #
coedge $-1 $255 $256 $89 $160 forward $152 $-1 #
edge $-1 $257 -62.78639270497397 $164 -53.883745827248241 $159 $258 forward 7 unknown #
edge $-1 $165 -15.521290971480166 $257 3.4489342061374355e-014 $90 $259 forward 7 unknown #
coedge $-1 $91 $249 $255 $260 forward $163 $-1 #
loop $-1 $-1 $249 $151 #
vertex $-1 $160 $261 #
vertex $-1 $92 $262 #
straight-curve $-1 -84.964793144710484 -24.932420354105751 12.988227135015386 1 0 0 I I #
coedge $-1 $167 $167 $-1 $263 reversed $95 $-1 #
edge $-1 $264 0 $264 6.2831853071796004 $96 $265 forward 7 unknown #
vertex $-1 $99 $266 #
ellipse-curve $-1 -72.784670939058486 -19.319637399895047 8.5369036961525158 -0.57357644374324357 0 0.81915203911291934 0.81915203911291934 0 0.57357644374324357 1 I I #
face $-1 $-1 $115 $15 $-1 $267 reversed single #
loop $-1 $-1 $187 $100 #
plane-surface $-1 0 45.252880349302373 0 0 -1 0 0 0 -1 forward_v I I I I #
coedge $-1 $268 $185 $188 $269 forward $101 $-1 #
coedge $-1 $191 $103 $104 $179 reversed $62 $-1 #
coedge $-1 $185 $268 $103 $177 reversed $101 $-1 #
edge $-1 $192 -12.988227135015386 $270 12.988227135015386 $176 $271 forward 7 unknown #
coedge $-1 $105 $104 $268 $272 forward $41 $-1 #
edge $-1 $183 -79.141819513534955 $270 79.141819513534955 $175 $273 forward 7 unknown #
coedge $-1 $188 $187 $105 $181 reversed $172 $-1 #
edge $-1 $274 -79.141819513534955 $182 79.141819513534955 $180 $275 forward 7 unknown #
vertex $-1 $107 $276 #
vertex $-1 $194 $277 #
straight-curve $-1 79.141819513534955 0 -12.988227135015386 0 -1 0 I I #
coedge $-1 $174 $176 $108 $186 reversed $101 $-1 #
edge $-1 $189 -45.252880349302373 $192 45.252880349302373 $185 $278 forward 7 unknown #
coedge $-1 $180 $109 $114 $195 forward $172 $-1 #
coedge $-1 $109 $180 $174 $269 reversed $172 $-1 #
vertex $-1 $110 $279 #
straight-curve $-1 0 45.252880349302373 12.988227135015386 -1 0 0 I I #
coedge $-1 $111 $175 $113 $194 reversed $62 $-1 #
vertex $-1 $186 $280 #
straight-curve $-1 0 -45.252880349302373 12.988227135015386 1 0 0 I I #
edge $-1 $116 -12.988227135015386 $183 12.988227135015386 $113 $281 forward 7 unknown #
edge $-1 $117 -12.988227135015386 $182 12.988227135015386 $114 $282 forward 7 unknown #
point $-1 79.141819513534955 -45.252880349302373 12.988227135015386 #
point $-1 79.141819513534955 45.252880349302373 12.988227135015386 #
face $-1 $-1 $208 $16 $-1 $283 reversed single #
loop $-1 $-1 $204 $119 #
plane-surface $-1 0 0 -12.988227135015386 0 0 1 1 0 0 forward_v I I I I #
coedge $-1 $284 $285 $127 $212 forward $120 $-1 #
coedge $-1 $122 $216 $206 $286 forward $70 $-1 #
edge $-1 $210 -26.048320945278977 $132 -12.360797862767814 $122 $287 forward 7 unknown #
coedge $-1 $288 $128 $123 $205 forward $199 $-1 #
edge $-1 $133 12.360797862767814 $209 26.048320945278977 $204 $289 forward 7 unknown #
coedge $-1 $290 $125 $202 $286 reversed $208 $-1 #
coedge $-1 $125 $290 $288 $291 reversed $208 $-1 #
loop $-1 $-1 $125 $198 #
vertex $-1 $291 $292 #
vertex $-1 $126 $293 #
straight-curve $-1 -75.881741602995476 -45.252880349302373 0 0 0 1 I I #
edge $-1 $217 -12.988227135015386 $214 12.988227135015386 $201 $294 forward 7 unknown #
coedge $-1 $128 $288 $284 $295 forward $199 $-1 #
vertex $-1 $129 $296 #
straight-curve $-1 -38.755890279132608 -31.56535726679121 -12.988227135015386 1 0 0 I I #
coedge $-1 $202 $130 $285 $297 forward $70 $-1 #
vertex $-1 $297 $298 #
straight-curve $-1 -38.755890279132608 -31.56535726679121 12.988227135015386 -1 0 0 I I #
point $-1 -75.881741602995476 -31.56535726679121 12.988227135015386 #
point $-1 -75.881741602995476 -31.56535726679121 -12.988227135015386 #
face $-1 $-1 $234 $17 $-1 $299 reversed single #
loop $-1 $-1 $240 $135 #
plane-surface $-1 0 0 12.988227135015386 0 0 1 1 0 0 forward_v I I I I #
coedge $-1 $144 $300 $225 $301 forward $136 $-1 #
coedge $-1 $302 $138 $224 $301 reversed $78 $-1 #
coedge $-1 $138 $302 $240 $303 reversed $78 $-1 #
edge $-1 $241 -12.988227135015386 $238 12.988227135015386 $138 $304 forward 7 unknown #
coedge $-1 $300 $144 $139 $229 forward $136 $-1 #
edge $-1 $149 10.923176279832617 $235 26.527528139590714 $228 $305 forward 7 unknown #
coedge $-1 $146 $306 $140 $231 forward $222 $-1 #
edge $-1 $236 -26.527528139590714 $148 -10.923176279832617 $230 $307 forward 7 unknown #
coedge $-1 $308 $141 $306 $309 reversed $234 $-1 #
coedge $-1 $141 $308 $300 $310 reversed $234 $-1 #
loop $-1 $-1 $308 $221 #
vertex $-1 $310 $311 #
vertex $-1 $142 $312 #
straight-curve $-1 -76.691918627658694 45.252880349302373 0 0 0 1 I I #
vertex $-1 $145 $313 #
straight-curve $-1 -37.286174363130968 29.648528489544283 -12.988227135015386 -1 0 0 I I #
coedge $-1 $306 $146 $226 $303 forward $222 $-1 #
vertex $-1 $147 $314 #
straight-curve $-1 -37.286174363130968 29.648528489544283 12.988227135015386 1 0 0 I I #
point $-1 -76.691918627658694 29.648528489544283 12.988227135015386 #
point $-1 -76.691918627658694 29.648528489544283 -12.988227135015386 #
plane-surface $-1 0 0 12.988227135015386 0 0 1 1 0 0 forward_v I I I I #
coedge $-1 $256 $255 $248 $315 forward $152 $-1 #
coedge $-1 $248 $154 $156 $252 reversed $86 $-1 #
coedge $-1 $154 $247 $246 $315 reversed $86 $-1 #
coedge $-1 $162 $157 $154 $250 forward $163 $-1 #
edge $-1 $253 -18.53727078012848 $316 -5.8229736311755289 $249 $317 forward 7 unknown #
coedge $-1 $156 $155 $256 $318 reversed $53 $-1 #
edge $-1 $319 -3.4489342061374355e-014 $253 15.521290971480166 $247 $320 forward 7 unknown #
vertex $-1 $158 $321 #
straight-curve $-1 -66.427522364581989 -9.6598186999475235 12.988227135015388 0 1 0 I I #
coedge $-1 $246 $159 $162 $260 reversed $152 $-1 #
coedge $-1 $159 $246 $251 $318 forward $152 $-1 #
vertex $-1 $160 $322 #
straight-curve $-1 -79.141819513534955 -24.932420354105751 66.871972962263627 0 0 1 I I #
straight-curve $-1 -79.141819513534927 -24.932420354105751 4.0855802572896778 -0.81915203911291934 0 -0.57357644374324357 I I #
edge $-1 $316 13.706854445684343 $164 24.932420354105751 $255 $323 forward 7 unknown #
point $-1 -79.141819513534955 -24.932420354105751 12.988227135015386 #
point $-1 -66.427522364582003 -24.932420354105751 12.988227135015386 #
edge $-1 $324 1 $324 0 $167 $-1 forward 7 unknown #
vertex $-1 $168 $325 #
ellipse-curve $-1 -72.188881033383737 -19.319637399895047 7.6860275462685896 -0.57357644374324357 0 0.81915203911291934 0.81915203911291934 0 0.57357644374324357 1 I I #
point $-1 -71.965518899945593 -19.319637399895047 9.1104801398957793 #
plane-surface $-1 79.141819513534955 0 0 -1 0 0 0 0 1 forward_v I I I I #
coedge $-1 $176 $174 $178 $272 reversed $101 $-1 #
edge $-1 $189 -12.988227135015386 $274 12.988227135015386 $188 $326 forward 7 unknown #
vertex $-1 $272 $327 #
straight-curve $-1 -79.141819513534955 -45.252880349302373 0 0 0 -1 I I #
edge $-1 $270 -45.252880349302373 $274 45.252880349302373 $268 $328 forward 7 unknown #
straight-curve $-1 0 -45.252880349302373 -12.988227135015386 -1 0 0 I I #
vertex $-1 $181 $329 #
straight-curve $-1 0 45.252880349302373 -12.988227135015386 1 0 0 I I #
point $-1 79.141819513534955 45.252880349302373 -12.988227135015386 #
point $-1 79.141819513534955 -45.252880349302373 -12.988227135015386 #
straight-curve $-1 -79.141819513534955 0 12.988227135015386 0 -1 0 I I #
point $-1 -79.141819513534955 45.252880349302373 12.988227135015386 #
point $-1 -79.141819513534955 -45.252880349302373 12.988227135015386 #
straight-curve $-1 79.141819513534955 -45.252880349302373 0 0 0 -1 I I #
straight-curve $-1 79.141819513534955 45.252880349302373 0 0 0 -1 I I #
plane-surface $-1 0 -45.252880349302373 0 0 1 0 0 0 1 forward_v I I I I #
coedge $-1 $330 $201 $213 $295 reversed $120 $-1 #
coedge $-1 $201 $330 $216 $297 reversed $120 $-1 #
edge $-1 $331 -79.141819513534955 $210 -75.881741602995476 $206 $332 forward 7 unknown #
straight-curve $-1 -75.881741602995476 -19.204559404023396 12.988227135015386 0 1 0 I I #
coedge $-1 $213 $204 $207 $291 forward $199 $-1 #
straight-curve $-1 -75.881741602995476 -19.204559404023396 -12.988227135015386 0 -1 0 I I #
coedge $-1 $207 $206 $330 $333 forward $208 $-1 #
edge $-1 $209 75.881741602995476 $334 79.141819513534955 $207 $335 forward 7 unknown #
point $-1 -75.881741602995476 -45.252880349302373 -12.988227135015386 #
point $-1 -75.881741602995476 -45.252880349302373 12.988227135015386 #
straight-curve $-1 -79.141819513534955 -31.56535726679121 0 0 0 -1 I I #
edge $-1 $334 -45.252880349302373 $214 -31.56535726679121 $284 $336 forward 7 unknown #
point $-1 -79.141819513534955 -31.56535726679121 -12.988227135015386 #
edge $-1 $217 31.56535726679121 $331 45.252880349302373 $285 $337 forward 7 unknown #
point $-1 -79.141819513534955 -31.56535726679121 12.988227135015386 #
plane-surface $-1 0 45.252880349302373 0 0 -1 0 0 0 -1 forward_v I I I I #
coedge $-1 $224 $228 $233 $310 forward $136 $-1 #
edge $-1 $338 -26.527528139590714 $238 -10.923176279832617 $224 $339 forward 7 unknown #
coedge $-1 $226 $225 $308 $340 reversed $78 $-1 #
edge $-1 $241 10.923176279832617 $341 26.527528139590714 $240 $342 forward 7 unknown #
straight-curve $-1 -72.452778824865177 29.648528489544283 0 0 0 -1 I I #
straight-curve $-1 -76.691918627658694 18.725352209711666 -12.988227135015386 0 1 0 I I #
coedge $-1 $230 $240 $232 $309 forward $222 $-1 #
straight-curve $-1 -76.691918627658694 18.725352209711666 12.988227135015386 0 -1 0 I I #
coedge $-1 $233 $232 $302 $340 forward $234 $-1 #
edge $-1 $341 72.452778824865177 $236 76.691918627658694 $232 $343 forward 7 unknown #
edge $-1 $235 -76.691918627658694 $338 -72.452778824865177 $233 $344 forward 7 unknown #
point $-1 -76.691918627658694 45.25288034930238 -12.988227135015386 #
point $-1 -76.691918627658694 45.25288034930238 12.988227135015386 #
point $-1 -72.452778824865177 29.648528489544283 -12.988227135015386 #
point $-1 -72.452778824865177 29.648528489544283 12.988227135015386 #
edge $-1 $316 53.883745827248241 $319 62.78639270497397 $246 $345 forward 7 unknown #
vertex $-1 $260 $346 #
straight-curve $-1 -84.964793144710484 -13.706854445684343 12.988227135015386 -1 0 0 I I #
edge $-1 $319 4.0470357457368191 $257 15.272601654158228 $256 $347 forward 7 unknown #
vertex $-1 $318 $348 #
straight-curve $-1 -79.141819513534927 -13.706854445684343 4.0855802572896778 0.81915203911291934 0 0.57357644374324357 I I #
point $-1 -66.427522364582003 -13.706854445684343 12.988227135015386 #
point $-1 -79.141819513534955 -24.932420354105751 4.0855802572896582 #
straight-curve $-1 -79.141819513534955 0 12.988227135015386 0 -1 0 I I #
vertex $-1 $263 $349 #
point $-1 -71.369728994270815 -19.319637399895047 8.2596039900118328 #
straight-curve $-1 -79.141819513534955 45.252880349302373 0 0 0 -1 I I #
point $-1 -79.141819513534955 -45.252880349302373 -12.988227135015386 #
straight-curve $-1 -79.141819513534955 0 -12.988227135015386 0 1 0 I I #
point $-1 -79.141819513534955 45.252880349302373 -12.988227135015386 #
coedge $-1 $285 $284 $290 $333 reversed $120 $-1 #
vertex $-1 $297 $350 #
straight-curve $-1 0 -45.252880349302373 12.988227135015386 1 0 0 I I #
edge $-1 $331 -12.988227135015386 $334 12.988227135015386 $330 $351 forward 7 unknown #
vertex $-1 $295 $352 #
straight-curve $-1 0 -45.252880349302373 -12.988227135015386 -1 0 0 I I #
straight-curve $-1 -79.141819513534955 0 -12.988227135015386 0 1 0 I I #
straight-curve $-1 -79.141819513534955 0 12.988227135015386 0 -1 0 I I #
vertex $-1 $340 $353 #
straight-curve $-1 -72.452778824865177 18.725352209711666 -12.988227135015386 0 -1 0 I I #
edge $-1 $341 -12.988227135015386 $338 12.988227135015386 $308 $354 forward 7 unknown #
vertex $-1 $309 $355 #
straight-curve $-1 -72.452778824865177 18.725352209711666 12.988227135015386 0 1 0 I I #
straight-curve $-1 0 45.252880349302373 12.988227135015386 -1 0 0 I I #
straight-curve $-1 0 45.252880349302373 -12.988227135015386 1 0 0 I I #
straight-curve $-1 -79.141819513534955 -13.706854445684343 66.871972962263627 0 0 -1 I I #
point $-1 -79.141819513534955 -13.706854445684343 12.988227135015386 #
straight-curve $-1 -79.141819513534955 -9.6598186999475235 4.0855802572896618 0 -1 0 I I #
point $-1 -79.141819513534955 -13.706854445684343 4.0855802572896582 #
point $-1 -71.615304589640502 -19.319637399895047 6.8668755071556697 #
point $-1 -79.141819513534955 -45.252880349302373 12.988227135015386 #
straight-curve $-1 -79.141819513534955 -45.252880349302373 0 0 0 -1 I I #
point $-1 -79.141819513534955 -45.252880349302373 -12.988227135015386 #
point $-1 -72.452778824865177 45.25288034930238 -12.988227135015386 #
straight-curve $-1 -72.452778824865177 45.252880349302373 0 0 0 -1 I I #
point $-1 -72.452778824865177 45.25288034930238 12.988227135015386 #
End-of-ACIS-data 