500 0 9 0           
7 Unknown 11 ACIS 5.0 NT 24 Fri Mar 26 02:23:34 1999 
-1 9.9999999999999995e-007 1e-010 
body $-1 $9 $-1 $10 #
body $-1 $11 $-1 $12 #
body $-1 $13 $-1 $14 #
body $-1 $15 $-1 $16 #
body $-1 $17 $-1 $18 #
body $-1 $19 $-1 $20 #
body $-1 $21 $-1 $22 #
body $-1 $23 $-1 $24 #
body $-1 $25 $-1 $26 #
lump $-1 $-1 $27 $0 #
transform $-1 1 0 0 0 1 0 0 0 1 48.911404766991183 32.739607894982584 12.617543335020892 1 rotate no_reflect no_shear #
lump $-1 $-1 $28 $1 #
transform $-1 1 0 0 0 1 0 0 0 1 48.911404766991183 32.739607894982584 12.617543335020892 1 rotate no_reflect no_shear #
lump $-1 $-1 $29 $2 #
transform $-1 1 0 0 0 1 0 0 0 1 48.911404766991183 32.739607894982584 12.617543335020892 1 rotate no_reflect no_shear #
lump $-1 $-1 $30 $3 #
transform $-1 1 0 0 0 1 0 0 0 1 48.911404766991183 32.739607894982584 12.617543335020892 1 rotate no_reflect no_shear #
lump $-1 $-1 $31 $4 #
transform $-1 1 0 0 0 1 0 0 0 1 48.911404766991183 32.739607894982584 12.617543335020892 1 rotate no_reflect no_shear #
lump $-1 $-1 $32 $5 #
transform $-1 1 0 0 0 1 0 0 0 1 48.911404766991183 32.739607894982584 12.617543335020892 1 rotate no_reflect no_shear #
lump $-1 $-1 $33 $6 #
transform $-1 1 0 0 0 1 0 0 0 1 48.911404766991183 32.739607894982584 12.617543335020892 1 rotate no_reflect no_shear #
lump $-1 $-1 $34 $7 #
transform $-1 1 0 0 0 1 0 0 0 1 48.911404766991183 32.739607894982584 12.617543335020892 1 rotate no_reflect no_shear #
lump $-1 $-1 $35 $8 #
transform $-1 1 0 0 0 1 0 0 0 1 48.911404766991183 32.739607894982584 12.617543335020892 1 rotate no_reflect no_shear #
shell $-1 $-1 $-1 $36 $-1 $9 #
shell $-1 $-1 $-1 $37 $-1 $11 #
shell $-1 $-1 $-1 $38 $-1 $13 #
shell $-1 $-1 $-1 $39 $-1 $15 #
shell $-1 $-1 $-1 $40 $-1 $17 #
shell $-1 $-1 $-1 $41 $-1 $19 #
shell $-1 $-1 $-1 $42 $-1 $21 #
shell $-1 $-1 $-1 $43 $-1 $23 #
shell $-1 $-1 $-1 $44 $-1 $25 #
face $-1 $45 $46 $27 $-1 $47 forward single #
face $-1 $48 $49 $28 $-1 $50 reversed single #
face $-1 $51 $52 $29 $-1 $53 forward single #
face $-1 $54 $55 $30 $-1 $56 forward single #
face $-1 $57 $58 $31 $-1 $59 forward single #
face $-1 $60 $61 $32 $-1 $62 reversed single #
face $-1 $63 $64 $33 $-1 $65 forward single #
face $-1 $66 $67 $34 $-1 $68 forward single #
face $-1 $69 $70 $35 $-1 $71 forward single #
face $-1 $72 $73 $27 $-1 $74 reversed single #
loop $-1 $-1 $75 $36 #
plane-surface $-1 0 0 12.617543335020892 0 0 1 1 0 0 forward_v I I I I #
face $-1 $76 $77 $28 $-1 $78 reversed single #
loop $-1 $-1 $79 $37 #
plane-surface $-1 -119.27924585168591 -3.3312839341524025 73.75912149889102 0 1 0 -0.71933980857756763 0 0.69465836192734942 forward_v I I I I #
face $-1 $80 $81 $29 $-1 $82 forward single #
loop $-1 $83 $84 $38 #
cone-surface $-1 -45.262669243985087 -1.4143677520581619 8.8642869209886381 0.71933980857756763 0 -0.69465836192734942 0.17366459048183736 0 0.17983495214439191 1 I I 0 1 0.25 forward I I I I #
face $-1 $85 $86 $30 $-1 $87 forward single #
loop $-1 $88 $89 $39 #
cone-surface $-1 -45.262669243985087 1.4610065210831991 8.8642869209886381 0.71933980857756763 0 -0.69465836192734942 0.17366459048183736 0 0.17983495214439191 1 I I 0 1 0.25 forward I I I I #
face $-1 $90 $91 $31 $-1 $92 forward single #
loop $-1 $93 $94 $40 #
cone-surface $-1 -45.262669243985087 4.33638079422456 8.8642869209886381 0.71933980857756763 0 -0.69465836192734942 0.17366459048183736 0 0.17983495214439191 1 I I 0 1 0.25 forward I I I I #
face $-1 $95 $96 $32 $-1 $97 reversed single #
loop $-1 $-1 $98 $41 #
plane-surface $-1 51.325813221678629 6.2532969763188007 144.12696258358577 0 -1 0 -0.71933980857756763 0 -0.69465836192734942 forward_v I I I I #
face $-1 $99 $100 $33 $-1 $101 forward single #
loop $-1 $102 $103 $42 #
cone-surface $-1 45.262669243985087 -1.4143677520581619 8.8642869209886381 -0.71933980857756763 0 -0.69465836192734942 0.17366459048183736 0 -0.17983495214439191 1 I I 0 1 0.25 forward I I I I #
face $-1 $104 $105 $34 $-1 $106 forward single #
loop $-1 $107 $108 $43 #
cone-surface $-1 45.262669243985087 1.4610065210831991 8.8642869209886381 -0.71933980857756763 0 -0.69465836192734942 0.17366459048183736 0 -0.17983495214439191 1 I I 0 1 0.25 forward I I I I #
face $-1 $109 $110 $35 $-1 $111 forward single #
loop $-1 $112 $113 $44 #
cone-surface $-1 45.262669243985087 4.33638079422456 8.8642869209886381 -0.71933980857756763 0 -0.69465836192734942 0.17366459048183736 0 -0.17983495214439191 1 I I 0 1 0.25 forward I I I I #
face $-1 $114 $115 $27 $-1 $116 reversed single #
loop $-1 $-1 $117 $45 #
plane-surface $-1 0 0 -12.617543335020892 0 0 1 1 0 0 forward_v I I I I #
coedge $-1 $118 $119 $120 $121 forward $46 $-1 #
face $-1 $122 $123 $28 $-1 $124 reversed single #
loop $-1 $-1 $125 $48 #
plane-surface $-1 -48.911404766991183 1.4610065210831991 5.8056888688837347 -0.71933980857756763 0 0.69465836192734942 0.69465836192734942 0 0.71933980857756763 forward_v I I I I #
coedge $-1 $126 $127 $128 $129 reversed $49 $-1 #
face $-1 $-1 $130 $29 $-1 $131 forward single #
loop $-1 $132 $133 $51 #
cone-surface $-1 -44.813081863624106 -1.4143677520581619 8.4301254447840446 0.71933980857756763 0 -0.69465836192734942 0.086832295240918678 0 0.089917476072195954 1 I I -0.70710678118654746 0.70710678118654746 0.125 forward I I I I #
loop $-1 $-1 $134 $38 #
coedge $-1 $84 $84 $135 $136 reversed $52 $-1 #
face $-1 $-1 $137 $30 $-1 $138 forward single #
loop $-1 $139 $140 $54 #
cone-surface $-1 -44.813081863624106 1.4610065210831991 8.4301254447840446 0.71933980857756763 0 -0.69465836192734942 0.086832295240918678 0 0.089917476072195954 1 I I -0.70710678118654746 0.70710678118654746 0.125 forward I I I I #
loop $-1 $-1 $141 $39 #
coedge $-1 $89 $89 $142 $143 reversed $55 $-1 #
face $-1 $-1 $144 $31 $-1 $145 forward single #
loop $-1 $146 $147 $57 #
cone-surface $-1 -44.813081863624106 4.33638079422456 8.4301254447840446 0.71933980857756763 0 -0.69465836192734942 0.086832295240918678 0 0.089917476072195954 1 I I -0.70710678118654746 0.70710678118654746 0.125 forward I I I I #
loop $-1 $-1 $148 $40 #
coedge $-1 $94 $94 $149 $150 reversed $58 $-1 #
face $-1 $151 $152 $32 $-1 $153 reversed single #
loop $-1 $-1 $154 $60 #
plane-surface $-1 -19.042027863016102 1.4610065210831991 76.17352995357848 0.71933980857756763 0 0.69465836192734942 0.69465836192734942 0 -0.71933980857756763 forward_v I I I I #
coedge $-1 $155 $156 $157 $158 reversed $61 $-1 #
face $-1 $-1 $159 $33 $-1 $160 forward single #
loop $-1 $161 $162 $63 #
cone-surface $-1 44.813081863624106 -1.4143677520581619 8.4301254447840446 -0.71933980857756763 0 -0.69465836192734942 0.086832295240918678 0 -0.089917476072195954 1 I I -0.70710678118654746 0.70710678118654746 0.125 forward I I I I #
loop $-1 $-1 $163 $42 #
coedge $-1 $103 $103 $164 $165 reversed $64 $-1 #
face $-1 $-1 $166 $34 $-1 $167 forward single #
loop $-1 $168 $169 $66 #
cone-surface $-1 44.813081863624106 1.4610065210831991 8.4301254447840446 -0.71933980857756763 0 -0.69465836192734942 0.086832295240918678 0 -0.089917476072195954 1 I I -0.70710678118654746 0.70710678118654746 0.125 forward I I I I #
loop $-1 $-1 $170 $43 #
coedge $-1 $108 $108 $171 $172 reversed $67 $-1 #
face $-1 $-1 $173 $35 $-1 $174 forward single #
loop $-1 $175 $176 $69 #
cone-surface $-1 44.813081863624106 4.33638079422456 8.4301254447840446 -0.71933980857756763 0 -0.69465836192734942 0.086832295240918678 0 -0.089917476072195954 1 I I -0.70710678118654746 0.70710678118654746 0.125 forward I I I I #
loop $-1 $-1 $177 $44 #
coedge $-1 $113 $113 $178 $179 reversed $70 $-1 #
face $-1 $180 $181 $27 $-1 $182 reversed single #
loop $-1 $-1 $183 $72 #
plane-surface $-1 0 -32.739607894982584 0 0 1 0 0 0 1 forward_v I I I I #
coedge $-1 $184 $185 $186 $187 forward $73 $-1 #
coedge $-1 $188 $75 $189 $190 forward $46 $-1 #
coedge $-1 $75 $188 $191 $192 forward $46 $-1 #
coedge $-1 $193 $194 $75 $121 reversed $195 $-1 #
edge $-1 $196 -32.739607894982584 $197 32.739607894982584 $120 $198 forward 7 unknown #
face $-1 $199 $200 $28 $-1 $201 reversed single #
loop $-1 $-1 $202 $76 #
plane-surface $-1 -119.27924585168591 6.2532969763188007 73.75912149889102 0 -1 0 0.71933980857756763 0 -0.69465836192734942 forward_v I I I I #
coedge $-1 $203 $204 $205 $206 reversed $77 $-1 #
coedge $-1 $127 $79 $207 $208 reversed $49 $-1 #
coedge $-1 $79 $126 $203 $209 reversed $49 $-1 #
coedge $-1 $205 $210 $79 $129 forward $211 $-1 #
edge $-1 $212 10.728218158851774 $213 17.306349396286393 $128 $214 forward 7 unknown #
loop $-1 $-1 $135 $80 #
plane-surface $-1 -48.911404766991183 1.4610065210831991 5.8056888688837347 -0.71933980857756763 0 0.69465836192734942 0.69465836192734942 0 0.71933980857756763 forward_v I I I I #
loop $-1 $-1 $215 $51 #
coedge $-1 $133 $133 $134 $216 reversed $81 $-1 #
coedge $-1 $134 $134 $133 $216 forward $83 $-1 #
coedge $-1 $135 $135 $84 $136 forward $130 $-1 #
edge $-1 $217 0 $217 6.2831853071796004 $135 $218 forward 7 unknown #
loop $-1 $-1 $142 $85 #
plane-surface $-1 -48.911404766991183 1.4610065210831991 5.8056888688837347 -0.71933980857756763 0 0.69465836192734942 0.69465836192734942 0 0.71933980857756763 forward_v I I I I #
loop $-1 $-1 $219 $54 #
coedge $-1 $140 $140 $141 $220 reversed $86 $-1 #
coedge $-1 $141 $141 $140 $220 forward $88 $-1 #
coedge $-1 $142 $142 $89 $143 forward $137 $-1 #
edge $-1 $221 0 $221 6.2831853071796004 $142 $222 forward 7 unknown #
loop $-1 $-1 $149 $90 #
plane-surface $-1 -48.911404766991183 1.4610065210831991 5.8056888688837347 -0.71933980857756763 0 0.69465836192734942 0.69465836192734942 0 0.71933980857756763 forward_v I I I I #
loop $-1 $-1 $223 $57 #
coedge $-1 $147 $147 $148 $224 reversed $91 $-1 #
coedge $-1 $148 $148 $147 $224 forward $93 $-1 #
coedge $-1 $149 $149 $94 $150 forward $144 $-1 #
edge $-1 $225 0 $225 6.2831853071796004 $149 $226 forward 7 unknown #
face $-1 $227 $228 $32 $-1 $229 forward single #
loop $-1 $-1 $230 $95 #
plane-surface $-1 51.325813221678629 -3.3312839341524025 144.12696258358577 0 1 0 0.71933980857756763 0 0.69465836192734942 forward_v I I I I #
coedge $-1 $231 $232 $233 $234 reversed $96 $-1 #
coedge $-1 $156 $98 $235 $236 reversed $61 $-1 #
coedge $-1 $98 $155 $231 $237 reversed $61 $-1 #
coedge $-1 $233 $238 $98 $158 forward $228 $-1 #
edge $-1 $239 -23.248498156151868 $240 -16.670366918717264 $157 $241 forward 7 unknown #
loop $-1 $-1 $164 $99 #
plane-surface $-1 -19.042027863016102 1.4610065210831991 76.17352995357848 0.71933980857756763 0 0.69465836192734942 0.69465836192734942 0 -0.71933980857756763 forward_v I I I I #
loop $-1 $-1 $242 $63 #
coedge $-1 $162 $162 $163 $243 reversed $100 $-1 #
coedge $-1 $163 $163 $162 $243 forward $102 $-1 #
coedge $-1 $164 $164 $103 $165 forward $159 $-1 #
edge $-1 $244 0 $244 6.2831853071796004 $164 $245 forward 7 unknown #
loop $-1 $-1 $171 $104 #
plane-surface $-1 -19.042027863016102 1.4610065210831991 76.17352995357848 0.71933980857756763 0 0.69465836192734942 0.69465836192734942 0 -0.71933980857756763 forward_v I I I I #
loop $-1 $-1 $246 $66 #
coedge $-1 $169 $169 $170 $247 reversed $105 $-1 #
coedge $-1 $170 $170 $169 $247 forward $107 $-1 #
coedge $-1 $171 $171 $108 $172 forward $166 $-1 #
edge $-1 $248 0 $248 6.2831853071796004 $171 $249 forward 7 unknown #
loop $-1 $-1 $178 $109 #
plane-surface $-1 -19.042027863016102 1.4610065210831991 76.17352995357848 0.71933980857756763 0 0.69465836192734942 0.69465836192734942 0 -0.71933980857756763 forward_v I I I I #
loop $-1 $-1 $250 $69 #
coedge $-1 $176 $176 $177 $251 reversed $110 $-1 #
coedge $-1 $177 $177 $176 $251 forward $112 $-1 #
coedge $-1 $178 $178 $113 $179 forward $173 $-1 #
edge $-1 $252 0 $252 6.2831853071796004 $178 $253 forward 7 unknown #
face $-1 $254 $255 $27 $-1 $256 reversed single #
loop $-1 $-1 $257 $114 #
plane-surface $-1 -48.911404766991183 0 0 1 0 0 0 0 -1 forward_v I I I I #
coedge $-1 $258 $191 $259 $260 forward $115 $-1 #
coedge $-1 $261 $117 $258 $262 forward $73 $-1 #
coedge $-1 $117 $261 $263 $264 forward $73 $-1 #
coedge $-1 $194 $193 $117 $187 reversed $195 $-1 #
edge $-1 $265 -32.739607894982584 $266 32.739607894982584 $186 $267 forward 7 unknown #
coedge $-1 $119 $118 $268 $269 forward $46 $-1 #
coedge $-1 $270 $271 $118 $190 reversed $255 $-1 #
edge $-1 $197 -48.911404766991183 $272 48.911404766991183 $189 $273 forward 7 unknown #
coedge $-1 $183 $274 $119 $192 reversed $115 $-1 #
edge $-1 $275 -48.911404766991183 $196 48.911404766991183 $191 $276 forward 7 unknown #
coedge $-1 $186 $120 $274 $277 forward $195 $-1 #
coedge $-1 $120 $186 $270 $278 reversed $195 $-1 #
loop $-1 $-1 $193 $254 #
vertex $-1 $121 $279 #
vertex $-1 $121 $280 #
straight-curve $-1 48.911404766991183 0 12.617543335020892 0 1 0 I I #
face $-1 $-1 $211 $28 $-1 $281 forward single #
loop $-1 $-1 $282 $122 #
plane-surface $-1 -48.911404766991183 0 0 1 0 0 0 0 -1 forward_v I I I I #
coedge $-1 $283 $284 $285 $286 reversed $123 $-1 #
coedge $-1 $287 $125 $127 $209 forward $77 $-1 #
coedge $-1 $125 $287 $283 $288 forward $77 $-1 #
coedge $-1 $285 $128 $125 $206 forward $211 $-1 #
edge $-1 $213 -4.0617871946940021 $289 5.5227937157772011 $205 $290 forward 7 unknown #
coedge $-1 $291 $292 $126 $208 forward $200 $-1 #
edge $-1 $293 -31.073871880561775 $212 -24.262017414424619 $207 $294 forward 7 unknown #
edge $-1 $213 -9.4695919576688112 $293 0 $127 $295 forward 7 unknown #
coedge $-1 $128 $285 $291 $296 forward $211 $-1 #
loop $-1 $-1 $285 $199 #
vertex $-1 $208 $297 #
vertex $-1 $129 $298 #
straight-curve $-1 -59.639622925842957 -3.3312839341524025 12.617543335020891 1 0 0 I I #
coedge $-1 $215 $215 $-1 $299 reversed $132 $-1 #
edge $-1 $300 0 $300 6.2831853071796004 $133 $301 forward 7 unknown #
vertex $-1 $136 $302 #
ellipse-curve $-1 -45.622339148273873 -1.4143677520581619 9.2116161019523144 -0.71933980857756763 0 0.69465836192734942 0.17366459048183736 0 0.17983495214439191 1 I I #
coedge $-1 $219 $219 $-1 $303 reversed $139 $-1 #
edge $-1 $304 0 $304 6.2831853071796004 $140 $305 forward 7 unknown #
vertex $-1 $143 $306 #
ellipse-curve $-1 -45.622339148273873 1.4610065210831991 9.2116161019523144 -0.71933980857756763 0 0.69465836192734942 0.17366459048183736 0 0.17983495214439191 1 I I #
coedge $-1 $223 $223 $-1 $307 reversed $146 $-1 #
edge $-1 $308 0 $308 6.2831853071796004 $147 $309 forward 7 unknown #
vertex $-1 $150 $310 #
ellipse-curve $-1 -45.622339148273873 4.33638079422456 9.2116161019523144 -0.71933980857756763 0 0.69465836192734942 0.17366459048183736 0 0.17983495214439191 1 I I #
face $-1 $-1 $311 $32 $-1 $312 reversed single #
loop $-1 $-1 $157 $151 #
plane-surface $-1 0 0 12.617543335020892 0 0 1 1 0 0 forward_v I I I I #
coedge $-1 $313 $314 $315 $316 reversed $152 $-1 #
coedge $-1 $317 $154 $156 $237 forward $96 $-1 #
coedge $-1 $154 $317 $313 $318 forward $96 $-1 #
coedge $-1 $315 $157 $154 $234 forward $228 $-1 #
edge $-1 $240 -5.5227937157772011 $319 4.0617871946940021 $233 $320 forward 7 unknown #
coedge $-1 $321 $322 $155 $236 forward $311 $-1 #
edge $-1 $323 -66.257792422909134 $239 -59.445937956771992 $235 $324 forward 7 unknown #
edge $-1 $240 88.353217576313568 $323 97.822809533982365 $156 $325 forward 7 unknown #
coedge $-1 $157 $315 $321 $326 forward $228 $-1 #
vertex $-1 $236 $327 #
vertex $-1 $158 $328 #
straight-curve $-1 25.662906610839315 6.2532969763188007 12.617543335020898 -1 0 0 I I #
coedge $-1 $242 $242 $-1 $329 reversed $161 $-1 #
edge $-1 $330 0 $330 6.2831853071796004 $162 $331 forward 7 unknown #
vertex $-1 $165 $332 #
ellipse-curve $-1 45.62233914827388 -1.4143677520581619 9.2116161019523233 0.71933980857756763 0 0.69465836192734942 0.17366459048183736 0 -0.17983495214439191 1 I I #
coedge $-1 $246 $246 $-1 $333 reversed $168 $-1 #
edge $-1 $334 0 $334 6.2831853071796004 $169 $335 forward 7 unknown #
vertex $-1 $172 $336 #
ellipse-curve $-1 45.62233914827388 1.4610065210831991 9.2116161019523233 0.71933980857756763 0 0.69465836192734942 0.17366459048183736 0 -0.17983495214439191 1 I I #
coedge $-1 $250 $250 $-1 $337 reversed $175 $-1 #
edge $-1 $338 0 $338 6.2831853071796004 $176 $339 forward 7 unknown #
vertex $-1 $179 $340 #
ellipse-curve $-1 45.62233914827388 4.33638079422456 9.2116161019523233 0.71933980857756763 0 0.69465836192734942 0.17366459048183736 0 -0.17983495214439191 1 I I #
face $-1 $-1 $195 $27 $-1 $341 reversed single #
loop $-1 $-1 $270 $180 #
plane-surface $-1 0 32.739607894982584 0 0 -1 0 0 0 -1 forward_v I I I I #
coedge $-1 $342 $268 $271 $343 forward $181 $-1 #
coedge $-1 $274 $183 $184 $262 reversed $115 $-1 #
coedge $-1 $268 $342 $183 $260 reversed $181 $-1 #
edge $-1 $275 -12.617543335020892 $344 12.617543335020892 $259 $345 forward 7 unknown #
coedge $-1 $185 $184 $342 $346 forward $73 $-1 #
edge $-1 $266 -48.911404766991183 $344 48.911404766991183 $258 $347 forward 7 unknown #
coedge $-1 $271 $270 $185 $264 reversed $255 $-1 #
edge $-1 $348 -48.911404766991183 $265 48.911404766991183 $263 $349 forward 7 unknown #
vertex $-1 $187 $350 #
vertex $-1 $277 $351 #
straight-curve $-1 48.911404766991183 0 -12.617543335020892 0 -1 0 I I #
coedge $-1 $257 $259 $188 $269 reversed $181 $-1 #
edge $-1 $272 -32.739607894982584 $275 32.739607894982584 $268 $352 forward 7 unknown #
coedge $-1 $263 $189 $194 $278 forward $255 $-1 #
coedge $-1 $189 $263 $257 $343 reversed $255 $-1 #
vertex $-1 $190 $353 #
straight-curve $-1 0 32.739607894982584 12.617543335020892 -1 0 0 I I #
coedge $-1 $191 $258 $193 $277 reversed $115 $-1 #
vertex $-1 $269 $354 #
straight-curve $-1 0 -32.739607894982584 12.617543335020892 1 0 0 I I #
edge $-1 $196 -12.617543335020892 $266 12.617543335020892 $193 $355 forward 7 unknown #
edge $-1 $197 -12.617543335020892 $265 12.617543335020892 $194 $356 forward 7 unknown #
point $-1 48.911404766991183 -32.739607894982584 12.617543335020892 #
point $-1 48.911404766991183 32.739607894982584 12.617543335020892 #
plane-surface $-1 0 0 12.617543335020892 0 0 1 1 0 0 forward_v I I I I #
coedge $-1 $292 $291 $284 $357 forward $200 $-1 #
coedge $-1 $284 $202 $204 $288 reversed $123 $-1 #
coedge $-1 $202 $283 $282 $357 reversed $123 $-1 #
coedge $-1 $210 $205 $202 $286 forward $211 $-1 #
edge $-1 $289 -17.306349396286393 $358 -10.728218158851774 $285 $359 forward 7 unknown #
coedge $-1 $204 $203 $292 $360 reversed $77 $-1 #
edge $-1 $361 0 $289 9.4695919576688112 $283 $362 forward 7 unknown #
vertex $-1 $206 $363 #
straight-curve $-1 -42.333273529556564 0.73050326054159953 12.617543335020894 0 1 0 I I #
coedge $-1 $282 $207 $210 $296 reversed $200 $-1 #
coedge $-1 $207 $282 $287 $360 forward $200 $-1 #
vertex $-1 $208 $364 #
straight-curve $-1 -48.911404766991183 -3.3312839341524025 36.87956074944551 0 0 1 I I #
straight-curve $-1 -48.911404766991183 -3.3312839341524025 5.8056888688837347 -0.69465836192734942 0 -0.71933980857756763 I I #
edge $-1 $358 -6.2532969763188007 $212 3.3312839341524025 $291 $365 forward 7 unknown #
point $-1 -48.911404766991183 -3.3312839341524025 12.617543335020892 #
point $-1 -42.333273529556564 -3.3312839341524025 12.617543335020892 #
edge $-1 $366 1 $366 0 $215 $-1 forward 7 unknown #
vertex $-1 $216 $367 #
ellipse-curve $-1 -44.902999339696301 -1.4143677520581619 8.5169577400249636 -0.71933980857756763 0 0.69465836192734942 0.17366459048183736 0 0.17983495214439191 1 I I #
point $-1 -45.448674557792032 -1.4143677520581619 9.391451054096704 #
edge $-1 $368 1 $368 0 $219 $-1 forward 7 unknown #
vertex $-1 $220 $369 #
ellipse-curve $-1 -44.902999339696301 1.4610065210831991 8.5169577400249636 -0.71933980857756763 0 0.69465836192734942 0.17366459048183736 0 0.17983495214439191 1 I I #
point $-1 -45.448674557792032 1.4610065210831991 9.391451054096704 #
edge $-1 $370 1 $370 0 $223 $-1 forward 7 unknown #
vertex $-1 $224 $371 #
ellipse-curve $-1 -44.902999339696301 4.33638079422456 8.5169577400249636 -0.71933980857756763 0 0.69465836192734942 0.17366459048183736 0 0.17983495214439191 1 I I #
point $-1 -45.448674557792032 4.33638079422456 9.391451054096704 #
loop $-1 $-1 $235 $227 #
plane-surface $-1 48.911404766991183 0 0 -1 0 0 0 0 1 forward_v I I I I #
coedge $-1 $314 $230 $232 $318 reversed $152 $-1 #
coedge $-1 $230 $313 $372 $373 reversed $152 $-1 #
coedge $-1 $238 $233 $230 $316 forward $228 $-1 #
edge $-1 $319 16.670366918717264 $374 23.248498156151868 $315 $375 forward 7 unknown #
coedge $-1 $232 $231 $322 $376 reversed $96 $-1 #
edge $-1 $377 -97.822809533982365 $319 -88.353217576313568 $313 $378 forward 7 unknown #
vertex $-1 $234 $379 #
straight-curve $-1 42.333273529556578 0.73050326054159953 12.617543335020891 0 -1 0 I I #
coedge $-1 $372 $235 $238 $326 reversed $311 $-1 #
coedge $-1 $235 $372 $317 $376 forward $311 $-1 #
vertex $-1 $236 $380 #
straight-curve $-1 48.911404766991183 6.2532969763188007 72.063481291792883 0 0 1 I I #
straight-curve $-1 -19.042027863016102 6.2532969763188007 76.17352995357848 0.69465836192734942 0 -0.71933980857756763 I I #
edge $-1 $374 -3.3312839341524025 $239 6.2532969763188007 $321 $381 forward 7 unknown #
point $-1 48.911404766991183 6.2532969763188007 12.617543335020892 #
point $-1 42.333273529556578 6.2532969763188007 12.617543335020898 #
edge $-1 $382 1 $382 0 $242 $-1 forward 7 unknown #
vertex $-1 $243 $383 #
ellipse-curve $-1 44.902999339696301 -1.4143677520581619 8.5169577400249636 0.71933980857756763 0 0.69465836192734942 0.17366459048183736 0 -0.17983495214439191 1 I I #
point $-1 45.796003738755708 -1.4143677520581619 9.0317811498079212 #
edge $-1 $384 1 $384 0 $246 $-1 forward 7 unknown #
vertex $-1 $247 $385 #
ellipse-curve $-1 44.902999339696301 1.4610065210831991 8.5169577400249636 0.71933980857756763 0 0.69465836192734942 0.17366459048183736 0 -0.17983495214439191 1 I I #
point $-1 45.796003738755708 1.4610065210831991 9.0317811498079212 #
edge $-1 $386 1 $386 0 $250 $-1 forward 7 unknown #
vertex $-1 $251 $387 #
ellipse-curve $-1 44.902999339696301 4.33638079422456 8.5169577400249636 0.71933980857756763 0 0.69465836192734942 0.17366459048183736 0 -0.17983495214439191 1 I I #
point $-1 45.796003738755708 4.33638079422456 9.0317811498079212 #
plane-surface $-1 48.911404766991183 0 0 -1 0 0 0 0 1 forward_v I I I I #
coedge $-1 $259 $257 $261 $346 reversed $181 $-1 #
edge $-1 $272 -12.617543335020892 $348 12.617543335020892 $271 $388 forward 7 unknown #
vertex $-1 $346 $389 #
straight-curve $-1 -48.911404766991183 -32.739607894982584 0 0 0 -1 I I #
edge $-1 $344 -32.739607894982584 $348 32.739607894982584 $342 $390 forward 7 unknown #
straight-curve $-1 0 -32.739607894982584 -12.617543335020892 -1 0 0 I I #
vertex $-1 $264 $391 #
straight-curve $-1 0 32.739607894982584 -12.617543335020892 1 0 0 I I #
point $-1 48.911404766991183 32.739607894982584 -12.617543335020892 #
point $-1 48.911404766991183 -32.739607894982584 -12.617543335020892 #
straight-curve $-1 -48.911404766991183 0 12.617543335020892 0 -1 0 I I #
point $-1 -48.911404766991183 32.739607894982584 12.617543335020892 #
point $-1 -48.911404766991183 -32.739607894982584 12.617543335020892 #
straight-curve $-1 48.911404766991183 -32.739607894982584 0 0 0 -1 I I #
straight-curve $-1 48.911404766991183 32.739607894982584 0 0 0 -1 I I #
edge $-1 $358 24.262017414424619 $361 31.073871880561775 $282 $392 forward 7 unknown #
vertex $-1 $296 $393 #
straight-curve $-1 -59.639622925842957 6.2532969763188007 12.617543335020891 -1 0 0 I I #
edge $-1 $361 -5.5227937157772011 $293 4.0617871946940021 $292 $394 forward 7 unknown #
vertex $-1 $360 $395 #
straight-curve $-1 -48.911404766991183 6.2532969763188007 5.8056888688837347 0.69465836192734942 0 0.71933980857756763 I I #
point $-1 -42.333273529556564 6.2532969763188007 12.617543335020892 #
point $-1 -48.911404766991183 -3.3312839341524025 5.8056888688837347 #
straight-curve $-1 -48.911404766991183 0 12.617543335020892 0 -1 0 I I #
vertex $-1 $299 $396 #
point $-1 -44.729334749214466 -1.4143677520581619 8.696792692169355 #
vertex $-1 $303 $397 #
point $-1 -44.729334749214466 1.4610065210831991 8.696792692169355 #
vertex $-1 $307 $398 #
point $-1 -44.729334749214466 4.33638079422456 8.696792692169355 #
coedge $-1 $322 $321 $314 $373 forward $311 $-1 #
edge $-1 $374 59.445937956771992 $377 66.257792422909134 $372 $399 forward 7 unknown #
vertex $-1 $326 $400 #
straight-curve $-1 25.662906610839315 -3.3312839341524025 12.617543335020898 1 0 0 I I #
edge $-1 $377 -4.0617871946940021 $323 5.5227937157772011 $322 $401 forward 7 unknown #
vertex $-1 $376 $402 #
straight-curve $-1 -19.042027863016102 -3.3312839341524025 76.17352995357848 -0.69465836192734942 0 0.71933980857756763 I I #
point $-1 42.333273529556578 -3.3312839341524025 12.617543335020898 #
point $-1 48.911404766991183 6.2532969763188007 5.8056888688837489 #
straight-curve $-1 48.911404766991183 0 12.617543335020892 0 1 0 I I #
vertex $-1 $329 $403 #
point $-1 45.076663930178142 -1.4143677520581619 8.3371227878805705 #
vertex $-1 $333 $404 #
point $-1 45.076663930178142 1.4610065210831991 8.3371227878805705 #
vertex $-1 $337 $405 #
point $-1 45.076663930178142 4.33638079422456 8.3371227878805705 #
straight-curve $-1 -48.911404766991183 32.739607894982584 0 0 0 -1 I I #
point $-1 -48.911404766991183 -32.739607894982584 -12.617543335020892 #
straight-curve $-1 -48.911404766991183 0 -12.617543335020892 0 1 0 I I #
point $-1 -48.911404766991183 32.739607894982584 -12.617543335020892 #
straight-curve $-1 -48.911404766991183 6.2532969763188007 36.87956074944551 0 0 -1 I I #
point $-1 -48.911404766991183 6.2532969763188007 12.617543335020892 #
straight-curve $-1 -48.911404766991183 0.73050326054159953 5.8056888688837347 0 -1 0 I I #
point $-1 -48.911404766991183 6.2532969763188007 5.8056888688837347 #
point $-1 -44.723164387551911 -1.4143677520581619 8.3432931495431255 #
point $-1 -44.723164387551911 1.4610065210831991 8.3432931495431255 #
point $-1 -44.723164387551911 4.33638079422456 8.3432931495431255 #
straight-curve $-1 48.911404766991183 -3.3312839341524025 72.063481291792883 0 0 -1 I I #
point $-1 48.911404766991183 -3.3312839341524025 12.617543335020892 #
straight-curve $-1 48.911404766991168 0.73050326054159953 5.805688868883756 0 1 0 I I #
point $-1 48.911404766991183 -3.3312839341524025 5.8056888688837489 #
point $-1 44.723164387551911 -1.4143677520581619 8.3432931495431255 #
point $-1 44.723164387551911 1.4610065210831991 8.3432931495431255 #
point $-1 44.723164387551911 4.33638079422456 8.3432931495431255 #
End-of-ACIS-data 