500 0 10 0           
7 Unknown 11 ACIS 5.0 NT 24 Fri Mar 26 20:47:36 1999 
-1 9.9999999999999995e-007 1e-010 
body $-1 $10 $-1 $11 #
body $-1 $12 $-1 $13 #
body $-1 $14 $-1 $15 #
body $-1 $16 $-1 $17 #
body $-1 $18 $-1 $19 #
body $-1 $20 $-1 $21 #
body $-1 $22 $-1 $23 #
body $-1 $24 $-1 $25 #
body $-1 $26 $-1 $27 #
body $-1 $28 $-1 $29 #
lump $-1 $-1 $30 $0 #
transform $-1 1 0 0 0 1 0 0 0 1 62.969450972014528 39.250259542613406 12.163064528205101 1 rotate no_reflect no_shear #
lump $-1 $-1 $31 $1 #
transform $-1 1 0 0 0 1 0 0 0 1 62.969450972014528 39.250259542613406 12.163064528205101 1 rotate no_reflect no_shear #
lump $-1 $-1 $32 $2 #
transform $-1 1 0 0 0 1 0 0 0 1 62.969450972014528 39.250259542613406 12.163064528205101 1 rotate no_reflect no_shear #
lump $-1 $-1 $33 $3 #
transform $-1 1 0 0 0 1 0 0 0 1 62.969450972014528 39.250259542613406 12.163064528205101 1 rotate no_reflect no_shear #
lump $-1 $-1 $34 $4 #
transform $-1 1 0 0 0 1 0 0 0 1 62.969450972014528 39.250259542613406 12.163064528205101 1 rotate no_reflect no_shear #
lump $-1 $-1 $35 $5 #
transform $-1 1 0 0 0 1 0 0 0 1 62.969450972014528 39.250259542613406 12.163064528205101 1 rotate no_reflect no_shear #
lump $-1 $-1 $36 $6 #
transform $-1 1 0 0 0 1 0 0 0 1 62.969450972014528 39.250259542613406 12.163064528205101 1 rotate no_reflect no_shear #
lump $-1 $-1 $37 $7 #
transform $-1 1 0 0 0 1 0 0 0 1 62.969450972014528 39.250259542613406 12.163064528205101 1 rotate no_reflect no_shear #
lump $-1 $-1 $38 $8 #
transform $-1 1 0 0 0 1 0 0 0 1 62.969450972014528 39.250259542613406 12.163064528205101 1 rotate no_reflect no_shear #
lump $-1 $-1 $39 $9 #
transform $-1 1 0 0 0 1 0 0 0 1 62.969450972014528 39.250259542613406 12.163064528205101 1 rotate no_reflect no_shear #
shell $-1 $-1 $-1 $40 $-1 $10 #
shell $-1 $-1 $-1 $41 $-1 $12 #
shell $-1 $-1 $-1 $42 $-1 $14 #
shell $-1 $-1 $-1 $43 $-1 $16 #
shell $-1 $-1 $-1 $44 $-1 $18 #
shell $-1 $-1 $-1 $45 $-1 $20 #
shell $-1 $-1 $-1 $46 $-1 $22 #
shell $-1 $-1 $-1 $47 $-1 $24 #
shell $-1 $-1 $-1 $48 $-1 $26 #
shell $-1 $-1 $-1 $49 $-1 $28 #
face $-1 $50 $51 $30 $-1 $52 forward single #
face $-1 $53 $54 $31 $-1 $55 reversed single #
face $-1 $56 $57 $32 $-1 $58 reversed single #
face $-1 $59 $60 $33 $-1 $61 forward single #
face $-1 $62 $63 $34 $-1 $64 forward single #
face $-1 $65 $66 $35 $-1 $67 forward single #
face $-1 $68 $69 $36 $-1 $70 reversed single #
face $-1 $71 $72 $37 $-1 $73 forward single #
face $-1 $74 $75 $38 $-1 $76 forward single #
face $-1 $77 $78 $39 $-1 $79 forward single #
face $-1 $80 $81 $30 $-1 $82 reversed single #
loop $-1 $-1 $83 $40 #
plane-surface $-1 0 0 12.163064528205101 0 0 1 1 0 0 forward_v I I I I #
face $-1 $84 $85 $31 $-1 $86 reversed single #
loop $-1 $-1 $87 $41 #
plane-surface $-1 -60.784835851074391 -30.210578818875202 0 0 -1 0 0 0 -1 forward_v I I I I #
face $-1 $88 $89 $32 $-1 $90 reversed single #
loop $-1 $-1 $91 $42 #
plane-surface $-1 -131.56069389634501 -16.552719825598544 111.15175086390053 0 1 0 -0.54463904215088732 0 0.83867056331134215 forward_v I I I I #
face $-1 $92 $93 $33 $-1 $94 forward single #
loop $-1 $95 $96 $43 #
cone-surface $-1 -56.924562195783182 -13.995385733904687 7.4019848015358152 0.54463904215088732 0 -0.83867056331134215 0.83867056331134215 0 0.54463904215088732 1 I I 0 1 1 forward I I I I #
face $-1 $97 $98 $34 $-1 $99 forward single #
loop $-1 $100 $101 $44 #
cone-surface $-1 -56.924562195783182 -10.1593845963639 7.4019848015358152 0.54463904215088732 0 -0.83867056331134215 0.83867056331134215 0 0.54463904215088732 1 I I 0 1 1 forward I I I I #
face $-1 $102 $103 $35 $-1 $104 forward single #
loop $-1 $105 $106 $45 #
cone-surface $-1 -56.924562195783182 -6.3233834588231161 7.4019848015358152 0.54463904215088732 0 -0.83867056331134215 0.83867056331134215 0 0.54463904215088732 1 I I 0 1 1 forward I I I I #
face $-1 $107 $108 $36 $-1 $109 reversed single #
loop $-1 $-1 $110 $46 #
plane-surface $-1 25.939444060134292 -3.7660493671292556 179.74299378823105 0 -1 0 -0.54463904215088732 0 -0.83867056331134215 forward_v I I I I #
face $-1 $111 $112 $37 $-1 $113 forward single #
loop $-1 $114 $115 $47 #
cone-surface $-1 56.924562195783189 -13.995385733904687 7.401984801535801 -0.54463904215088732 0 -0.83867056331134215 0.83867056331134215 0 -0.54463904215088732 1 I I 0 1 1 forward I I I I #
face $-1 $116 $117 $38 $-1 $118 forward single #
loop $-1 $119 $120 $48 #
cone-surface $-1 56.924562195783189 -10.1593845963639 7.401984801535801 -0.54463904215088732 0 -0.83867056331134215 0.83867056331134215 0 -0.54463904215088732 1 I I 0 1 1 forward I I I I #
face $-1 $121 $122 $39 $-1 $123 forward single #
loop $-1 $124 $125 $49 #
cone-surface $-1 56.924562195783189 -6.3233834588231161 7.401984801535801 -0.54463904215088732 0 -0.83867056331134215 0.83867056331134215 0 -0.54463904215088732 1 I I 0 1 1 forward I I I I #
face $-1 $126 $127 $30 $-1 $128 reversed single #
loop $-1 $-1 $129 $50 #
plane-surface $-1 0 0 -12.163064528205101 0 0 1 1 0 0 forward_v I I I I #
coedge $-1 $130 $131 $132 $133 forward $51 $-1 #
face $-1 $134 $135 $31 $-1 $136 forward single #
loop $-1 $-1 $137 $53 #
plane-surface $-1 -58.600220730134254 -34.730419180744306 0 -1 0 0 0 0 1 forward_v I I I I #
coedge $-1 $138 $139 $140 $141 forward $54 $-1 #
face $-1 $142 $143 $32 $-1 $144 reversed single #
loop $-1 $-1 $145 $56 #
plane-surface $-1 -62.969450972014513 -10.1593845963639 5.5305010276897946 -0.54463904215088732 0 0.83867056331134215 0.83867056331134215 0 0.54463904215088732 forward_v I I I I #
coedge $-1 $146 $147 $148 $149 reversed $57 $-1 #
face $-1 $-1 $150 $33 $-1 $151 forward single #
loop $-1 $152 $153 $59 #
cone-surface $-1 -55.713979880712124 -13.995385733904687 5.5378515434685021 0.54463904215088732 0 -0.83867056331134215 0.41933528165567108 0 0.27231952107544366 1 I I -0.70710678118654746 0.70710678118654746 0.5 forward I I I I #
loop $-1 $-1 $154 $43 #
coedge $-1 $96 $96 $155 $156 reversed $60 $-1 #
face $-1 $-1 $157 $34 $-1 $158 forward single #
loop $-1 $159 $160 $62 #
cone-surface $-1 -55.713979880712124 -10.1593845963639 5.5378515434685021 0.54463904215088732 0 -0.83867056331134215 0.41933528165567108 0 0.27231952107544366 1 I I -0.70710678118654746 0.70710678118654746 0.5 forward I I I I #
loop $-1 $-1 $161 $44 #
coedge $-1 $101 $101 $162 $163 reversed $63 $-1 #
face $-1 $-1 $164 $35 $-1 $165 forward single #
loop $-1 $166 $167 $65 #
cone-surface $-1 -55.713979880712124 -6.3233834588231161 5.5378515434685021 0.54463904215088732 0 -0.83867056331134215 0.41933528165567108 0 0.27231952107544366 1 I I -0.70710678118654746 0.70710678118654746 0.5 forward I I I I #
loop $-1 $-1 $168 $45 #
coedge $-1 $106 $106 $169 $170 reversed $66 $-1 #
face $-1 $171 $172 $36 $-1 $173 reversed single #
loop $-1 $-1 $174 $68 #
plane-surface $-1 -42.651798864196209 -10.1593845963639 74.12174395202031 0.54463904215088732 0 0.83867056331134215 0.83867056331134215 0 -0.54463904215088732 forward_v I I I I #
coedge $-1 $175 $176 $177 $178 reversed $69 $-1 #
face $-1 $-1 $179 $37 $-1 $180 forward single #
loop $-1 $181 $182 $71 #
cone-surface $-1 55.713979880712131 -13.995385733904687 5.5378515434684878 -0.54463904215088732 0 -0.83867056331134215 0.41933528165567108 0 -0.27231952107544366 1 I I -0.70710678118654746 0.70710678118654746 0.5 forward I I I I #
loop $-1 $-1 $183 $47 #
coedge $-1 $115 $115 $184 $185 reversed $72 $-1 #
face $-1 $-1 $186 $38 $-1 $187 forward single #
loop $-1 $188 $189 $74 #
cone-surface $-1 55.713979880712131 -10.1593845963639 5.5378515434684878 -0.54463904215088732 0 -0.83867056331134215 0.41933528165567108 0 -0.27231952107544366 1 I I -0.70710678118654746 0.70710678118654746 0.5 forward I I I I #
loop $-1 $-1 $190 $48 #
coedge $-1 $120 $120 $191 $192 reversed $75 $-1 #
face $-1 $-1 $193 $39 $-1 $194 forward single #
loop $-1 $195 $196 $77 #
cone-surface $-1 55.713979880712131 -6.3233834588231161 5.5378515434684878 -0.54463904215088732 0 -0.83867056331134215 0.41933528165567108 0 -0.27231952107544366 1 I I -0.70710678118654746 0.70710678118654746 0.5 forward I I I I #
loop $-1 $-1 $197 $49 #
coedge $-1 $125 $125 $198 $199 reversed $78 $-1 #
face $-1 $200 $201 $30 $-1 $202 reversed single #
loop $-1 $-1 $203 $80 #
plane-surface $-1 0 -39.250259542613406 0 0 1 0 0 0 1 forward_v I I I I #
coedge $-1 $204 $205 $206 $207 forward $81 $-1 #
coedge $-1 $208 $83 $209 $210 forward $51 $-1 #
coedge $-1 $83 $208 $211 $212 forward $51 $-1 #
coedge $-1 $213 $214 $83 $133 reversed $215 $-1 #
edge $-1 $216 -39.250259542613406 $217 39.250259542613406 $132 $218 forward 7 unknown #
face $-1 $219 $220 $31 $-1 $221 reversed single #
loop $-1 $-1 $222 $84 #
plane-surface $-1 0 0 12.163064528205101 0 0 1 1 0 0 forward_v I I I I #
coedge $-1 $223 $224 $225 $226 reversed $85 $-1 #
coedge $-1 $227 $87 $228 $229 reversed $54 $-1 #
coedge $-1 $87 $227 $230 $231 reversed $54 $-1 #
coedge $-1 $224 $223 $87 $141 reversed $85 $-1 #
edge $-1 $232 -12.163064528205101 $233 12.163064528205101 $140 $234 forward 7 unknown #
face $-1 $235 $236 $32 $-1 $237 reversed single #
loop $-1 $-1 $238 $88 #
plane-surface $-1 -131.56069389634501 -3.7660493671292556 111.15175086390053 0 -1 0 0.54463904215088732 0 -0.83867056331134215 forward_v I I I I #
coedge $-1 $239 $240 $241 $242 reversed $89 $-1 #
coedge $-1 $147 $91 $243 $244 reversed $57 $-1 #
coedge $-1 $91 $146 $239 $245 reversed $57 $-1 #
coedge $-1 $241 $246 $91 $149 forward $247 $-1 #
edge $-1 $248 2.8108959761579797 $249 13.024147940629483 $148 $250 forward 7 unknown #
loop $-1 $-1 $155 $92 #
plane-surface $-1 -62.969450972014513 -10.1593845963639 5.5305010276897946 -0.54463904215088732 0 0.83867056331134215 0.83867056331134215 0 0.54463904215088732 forward_v I I I I #
loop $-1 $-1 $251 $59 #
coedge $-1 $153 $153 $154 $252 reversed $93 $-1 #
coedge $-1 $154 $154 $153 $252 forward $95 $-1 #
coedge $-1 $155 $155 $96 $156 forward $150 $-1 #
edge $-1 $253 0 $253 6.2831853071796004 $155 $254 forward 7 unknown #
loop $-1 $-1 $162 $97 #
plane-surface $-1 -62.969450972014513 -10.1593845963639 5.5305010276897946 -0.54463904215088732 0 0.83867056331134215 0.83867056331134215 0 0.54463904215088732 forward_v I I I I #
loop $-1 $-1 $255 $62 #
coedge $-1 $160 $160 $161 $256 reversed $98 $-1 #
coedge $-1 $161 $161 $160 $256 forward $100 $-1 #
coedge $-1 $162 $162 $101 $163 forward $157 $-1 #
edge $-1 $257 0 $257 6.2831853071796004 $162 $258 forward 7 unknown #
loop $-1 $-1 $169 $102 #
plane-surface $-1 -62.969450972014513 -10.1593845963639 5.5305010276897946 -0.54463904215088732 0 0.83867056331134215 0.83867056331134215 0 0.54463904215088732 forward_v I I I I #
loop $-1 $-1 $259 $65 #
coedge $-1 $167 $167 $168 $260 reversed $103 $-1 #
coedge $-1 $168 $168 $167 $260 forward $105 $-1 #
coedge $-1 $169 $169 $106 $170 forward $164 $-1 #
edge $-1 $261 0 $261 6.2831853071796004 $169 $262 forward 7 unknown #
face $-1 $263 $264 $36 $-1 $265 forward single #
loop $-1 $-1 $266 $107 #
plane-surface $-1 25.939444060134292 -16.552719825598544 179.74299378823105 0 1 0 0.54463904215088732 0 0.83867056331134215 forward_v I I I I #
coedge $-1 $267 $268 $269 $270 reversed $108 $-1 #
coedge $-1 $176 $110 $271 $272 reversed $69 $-1 #
coedge $-1 $110 $175 $267 $273 reversed $69 $-1 #
coedge $-1 $269 $274 $110 $178 forward $264 $-1 #
edge $-1 $275 -49.999728941947382 $276 -39.7864769774759 $177 $277 forward 7 unknown #
loop $-1 $-1 $184 $111 #
plane-surface $-1 -42.651798864196209 -10.1593845963639 74.12174395202031 0.54463904215088732 0 0.83867056331134215 0.83867056331134215 0 -0.54463904215088732 forward_v I I I I #
loop $-1 $-1 $278 $71 #
coedge $-1 $182 $182 $183 $279 reversed $112 $-1 #
coedge $-1 $183 $183 $182 $279 forward $114 $-1 #
coedge $-1 $184 $184 $115 $185 forward $179 $-1 #
edge $-1 $280 0 $280 6.2831853071796004 $184 $281 forward 7 unknown #
loop $-1 $-1 $191 $116 #
plane-surface $-1 -42.651798864196209 -10.1593845963639 74.12174395202031 0.54463904215088732 0 0.83867056331134215 0.83867056331134215 0 -0.54463904215088732 forward_v I I I I #
loop $-1 $-1 $282 $74 #
coedge $-1 $189 $189 $190 $283 reversed $117 $-1 #
coedge $-1 $190 $190 $189 $283 forward $119 $-1 #
coedge $-1 $191 $191 $120 $192 forward $186 $-1 #
edge $-1 $284 0 $284 6.2831853071796004 $191 $285 forward 7 unknown #
loop $-1 $-1 $198 $121 #
plane-surface $-1 -42.651798864196209 -10.1593845963639 74.12174395202031 0.54463904215088732 0 0.83867056331134215 0.83867056331134215 0 -0.54463904215088732 forward_v I I I I #
loop $-1 $-1 $286 $77 #
coedge $-1 $196 $196 $197 $287 reversed $122 $-1 #
coedge $-1 $197 $197 $196 $287 forward $124 $-1 #
coedge $-1 $198 $198 $125 $199 forward $193 $-1 #
edge $-1 $288 0 $288 6.2831853071796004 $198 $289 forward 7 unknown #
face $-1 $290 $291 $30 $-1 $292 reversed single #
loop $-1 $-1 $293 $126 #
plane-surface $-1 -62.969450972014528 0 0 1 0 0 0 0 -1 forward_v I I I I #
coedge $-1 $294 $211 $295 $296 forward $127 $-1 #
coedge $-1 $297 $129 $294 $298 forward $81 $-1 #
coedge $-1 $129 $297 $299 $300 forward $81 $-1 #
coedge $-1 $214 $213 $129 $207 reversed $215 $-1 #
edge $-1 $301 -39.250259542613406 $302 39.250259542613406 $206 $303 forward 7 unknown #
coedge $-1 $131 $130 $304 $305 forward $51 $-1 #
coedge $-1 $306 $307 $130 $210 reversed $291 $-1 #
edge $-1 $217 -62.969450972014528 $308 62.969450972014528 $209 $309 forward 7 unknown #
coedge $-1 $203 $310 $131 $212 reversed $127 $-1 #
edge $-1 $311 -62.969450972014528 $216 62.969450972014528 $211 $312 forward 7 unknown #
coedge $-1 $206 $132 $310 $313 forward $215 $-1 #
coedge $-1 $132 $206 $306 $314 reversed $215 $-1 #
loop $-1 $-1 $213 $290 #
vertex $-1 $133 $315 #
vertex $-1 $133 $316 #
straight-curve $-1 62.969450972014528 0 12.163064528205101 0 1 0 I I #
face $-1 $317 $318 $31 $-1 $319 reversed single #
loop $-1 $-1 $320 $134 #
plane-surface $-1 -62.969450972014528 0 0 1 0 0 0 0 -1 forward_v I I I I #
coedge $-1 $230 $321 $224 $322 forward $135 $-1 #
coedge $-1 $140 $137 $323 $324 reversed $85 $-1 #
coedge $-1 $137 $140 $222 $322 reversed $85 $-1 #
coedge $-1 $325 $326 $137 $226 forward $327 $-1 #
edge $-1 $328 -12.163064528205101 $329 12.163064528205101 $225 $330 forward 7 unknown #
coedge $-1 $139 $138 $320 $331 reversed $54 $-1 #
coedge $-1 $323 $332 $138 $229 forward $318 $-1 #
edge $-1 $333 -32.577033046477332 $233 -28.207802804597058 $228 $334 forward 7 unknown #
coedge $-1 $335 $222 $139 $231 forward $135 $-1 #
edge $-1 $232 28.207802804597058 $336 32.577033046477332 $230 $337 forward 7 unknown #
vertex $-1 $231 $338 #
vertex $-1 $229 $339 #
straight-curve $-1 -58.600220730134254 -30.210578818875202 0 0 0 -1 I I #
face $-1 $-1 $247 $32 $-1 $340 forward single #
loop $-1 $-1 $341 $142 #
plane-surface $-1 -62.969450972014528 0 0 1 0 0 0 0 -1 forward_v I I I I #
coedge $-1 $342 $343 $344 $345 reversed $143 $-1 #
coedge $-1 $346 $145 $147 $245 forward $89 $-1 #
coedge $-1 $145 $346 $342 $347 forward $89 $-1 #
coedge $-1 $344 $148 $145 $242 forward $247 $-1 #
edge $-1 $249 -11.473027527416594 $348 1.3136429310526943 $241 $349 forward 7 unknown #
coedge $-1 $350 $351 $146 $244 forward $236 $-1 #
edge $-1 $352 -50.045374404260478 $248 -43.412810903745168 $243 $353 forward 7 unknown #
edge $-1 $249 -12.177906810209569 $352 1.6755591966779756e-014 $147 $354 forward 7 unknown #
coedge $-1 $148 $344 $350 $355 forward $247 $-1 #
loop $-1 $-1 $344 $235 #
vertex $-1 $244 $356 #
vertex $-1 $149 $357 #
straight-curve $-1 -65.780346948172507 -16.552719825598544 12.163064528205098 1 0 0 I I #
coedge $-1 $251 $251 $-1 $358 reversed $152 $-1 #
edge $-1 $359 0 $359 6.2831853071796004 $153 $360 forward 7 unknown #
vertex $-1 $156 $361 #
ellipse-curve $-1 -57.862824989778787 -13.995385733904687 8.8467827779474373 -0.54463904215088732 0 0.83867056331134215 0.83867056331134215 0 0.54463904215088732 1 I I #
coedge $-1 $255 $255 $-1 $362 reversed $159 $-1 #
edge $-1 $363 0 $363 6.2831853071796004 $160 $364 forward 7 unknown #
vertex $-1 $163 $365 #
ellipse-curve $-1 -57.862824989778787 -10.1593845963639 8.8467827779474373 -0.54463904215088732 0 0.83867056331134215 0.83867056331134215 0 0.54463904215088732 1 I I #
coedge $-1 $259 $259 $-1 $366 reversed $166 $-1 #
edge $-1 $367 0 $367 6.2831853071796004 $167 $368 forward 7 unknown #
vertex $-1 $170 $369 #
ellipse-curve $-1 -57.862824989778787 -6.3233834588231161 8.8467827779474373 -0.54463904215088732 0 0.83867056331134215 0.83867056331134215 0 0.54463904215088732 1 I I #
face $-1 $-1 $370 $36 $-1 $371 reversed single #
loop $-1 $-1 $177 $171 #
plane-surface $-1 0 0 12.163064528205101 0 0 1 1 0 0 forward_v I I I I #
coedge $-1 $372 $373 $374 $375 reversed $172 $-1 #
coedge $-1 $376 $174 $176 $273 forward $108 $-1 #
coedge $-1 $174 $376 $372 $377 forward $108 $-1 #
coedge $-1 $374 $177 $174 $270 forward $264 $-1 #
edge $-1 $276 -1.3136429310526943 $378 11.473027527416594 $269 $379 forward 7 unknown #
coedge $-1 $380 $381 $175 $272 forward $370 $-1 #
edge $-1 $382 -84.340995866425715 $275 -77.708432365910426 $271 $383 forward 7 unknown #
edge $-1 $276 113.76099513381951 $382 125.93890194402906 $176 $384 forward 7 unknown #
coedge $-1 $177 $374 $380 $385 forward $264 $-1 #
vertex $-1 $178 $386 #
vertex $-1 $178 $387 #
straight-curve $-1 12.969722030067146 -3.7660493671292556 12.163064528205098 -1 0 0 I I #
coedge $-1 $278 $278 $-1 $388 reversed $181 $-1 #
edge $-1 $389 0 $389 6.2831853071796004 $182 $390 forward 7 unknown #
vertex $-1 $185 $391 #
ellipse-curve $-1 57.862824989778801 -13.995385733904687 8.8467827779474391 0.54463904215088732 0 0.83867056331134215 0.83867056331134215 0 -0.54463904215088732 1 I I #
coedge $-1 $282 $282 $-1 $392 reversed $188 $-1 #
edge $-1 $393 0 $393 6.2831853071796004 $189 $394 forward 7 unknown #
vertex $-1 $192 $395 #
ellipse-curve $-1 57.862824989778801 -10.1593845963639 8.8467827779474391 0.54463904215088732 0 0.83867056331134215 0.83867056331134215 0 -0.54463904215088732 1 I I #
coedge $-1 $286 $286 $-1 $396 reversed $195 $-1 #
edge $-1 $397 0 $397 6.2831853071796004 $196 $398 forward 7 unknown #
vertex $-1 $199 $399 #
ellipse-curve $-1 57.862824989778801 -6.3233834588231161 8.8467827779474391 0.54463904215088732 0 0.83867056331134215 0.83867056331134215 0 -0.54463904215088732 1 I I #
face $-1 $-1 $215 $30 $-1 $400 reversed single #
loop $-1 $-1 $306 $200 #
plane-surface $-1 0 39.250259542613406 0 0 -1 0 0 0 -1 forward_v I I I I #
coedge $-1 $401 $304 $307 $402 forward $201 $-1 #
coedge $-1 $310 $203 $204 $298 reversed $127 $-1 #
coedge $-1 $304 $401 $203 $296 reversed $201 $-1 #
edge $-1 $311 -12.163064528205101 $403 12.163064528205101 $295 $404 forward 7 unknown #
coedge $-1 $205 $204 $401 $405 forward $81 $-1 #
edge $-1 $302 -62.969450972014528 $403 62.969450972014528 $294 $406 forward 7 unknown #
coedge $-1 $307 $306 $205 $300 reversed $291 $-1 #
edge $-1 $407 -62.969450972014528 $301 62.969450972014528 $299 $408 forward 7 unknown #
vertex $-1 $207 $409 #
vertex $-1 $313 $410 #
straight-curve $-1 62.969450972014528 0 -12.163064528205101 0 -1 0 I I #
coedge $-1 $293 $295 $208 $305 reversed $201 $-1 #
edge $-1 $308 -39.250259542613406 $311 39.250259542613406 $304 $411 forward 7 unknown #
coedge $-1 $299 $209 $214 $314 forward $291 $-1 #
coedge $-1 $209 $299 $293 $402 reversed $291 $-1 #
vertex $-1 $210 $412 #
straight-curve $-1 0 39.250259542613406 12.163064528205101 -1 0 0 I I #
coedge $-1 $211 $294 $213 $313 reversed $127 $-1 #
vertex $-1 $305 $413 #
straight-curve $-1 0 -39.250259542613406 12.163064528205101 1 0 0 I I #
edge $-1 $216 -12.163064528205101 $302 12.163064528205101 $213 $414 forward 7 unknown #
edge $-1 $217 -12.163064528205101 $301 12.163064528205101 $214 $415 forward 7 unknown #
point $-1 62.969450972014528 -39.250259542613406 12.163064528205101 #
point $-1 62.969450972014528 39.250259542613406 12.163064528205101 #
face $-1 $-1 $327 $31 $-1 $416 reversed single #
loop $-1 $-1 $323 $219 #
plane-surface $-1 0 0 -12.163064528205101 0 0 1 1 0 0 forward_v I I I I #
coedge $-1 $417 $418 $227 $331 forward $220 $-1 #
coedge $-1 $222 $335 $325 $419 forward $135 $-1 #
edge $-1 $329 -21.885049952241253 $232 -12.845369228503049 $222 $420 forward 7 unknown #
coedge $-1 $421 $228 $223 $324 forward $318 $-1 #
edge $-1 $233 12.845369228503049 $328 21.885049952241253 $323 $422 forward 7 unknown #
coedge $-1 $423 $225 $321 $419 reversed $327 $-1 #
coedge $-1 $225 $423 $421 $424 reversed $327 $-1 #
loop $-1 $-1 $225 $317 #
vertex $-1 $424 $425 #
vertex $-1 $226 $426 #
straight-curve $-1 -58.600220730134254 -39.250259542613406 0 0 0 1 I I #
edge $-1 $336 -12.163064528205101 $333 12.163064528205101 $320 $427 forward 7 unknown #
coedge $-1 $228 $421 $417 $428 forward $318 $-1 #
vertex $-1 $229 $429 #
straight-curve $-1 -30.392417925537195 -30.210578818875202 -12.163064528205101 1 0 0 I I #
coedge $-1 $321 $230 $418 $430 forward $135 $-1 #
vertex $-1 $430 $431 #
straight-curve $-1 -30.392417925537195 -30.210578818875202 12.163064528205101 -1 0 0 I I #
point $-1 -58.600220730134254 -30.210578818875202 12.163064528205101 #
point $-1 -58.600220730134254 -30.210578818875202 -12.163064528205101 #
plane-surface $-1 0 0 12.163064528205101 0 0 1 1 0 0 forward_v I I I I #
coedge $-1 $351 $350 $343 $432 forward $236 $-1 #
coedge $-1 $343 $238 $240 $347 reversed $143 $-1 #
coedge $-1 $238 $342 $341 $432 reversed $143 $-1 #
coedge $-1 $246 $241 $238 $345 forward $247 $-1 #
edge $-1 $348 -13.024147940629483 $433 -2.8108959761579797 $344 $434 forward 7 unknown #
coedge $-1 $240 $239 $351 $435 reversed $89 $-1 #
edge $-1 $436 -1.6755591966779756e-014 $348 12.177906810209569 $342 $437 forward 7 unknown #
vertex $-1 $242 $438 #
straight-curve $-1 -52.756199007543024 -5.0796922981819499 12.1630645282051 0 1 0 I I #
coedge $-1 $341 $243 $246 $355 reversed $236 $-1 #
coedge $-1 $243 $341 $346 $435 forward $236 $-1 #
vertex $-1 $244 $439 #
straight-curve $-1 -62.969450972014528 -16.552719825598544 55.575875431950266 0 0 1 I I #
straight-curve $-1 -62.969450972014513 -16.552719825598544 5.5305010276897946 -0.83867056331134215 0 -0.54463904215088732 I I #
edge $-1 $433 3.7660493671292556 $248 16.552719825598544 $350 $440 forward 7 unknown #
point $-1 -62.969450972014528 -16.552719825598544 12.163064528205101 #
point $-1 -52.756199007543024 -16.552719825598544 12.163064528205101 #
edge $-1 $441 1 $441 0 $251 $-1 forward 7 unknown #
vertex $-1 $252 $442 #
ellipse-curve $-1 -55.986299401787569 -13.995385733904687 5.9571868251241735 -0.54463904215088732 0 0.83867056331134215 0.83867056331134215 0 0.54463904215088732 1 I I #
point $-1 -57.024154426467454 -13.995385733904687 9.3914218200983441 #
edge $-1 $443 1 $443 0 $255 $-1 forward 7 unknown #
vertex $-1 $256 $444 #
ellipse-curve $-1 -55.986299401787569 -10.1593845963639 5.9571868251241735 -0.54463904215088732 0 0.83867056331134215 0.83867056331134215 0 0.54463904215088732 1 I I #
point $-1 -57.024154426467454 -10.1593845963639 9.3914218200983441 #
edge $-1 $445 1 $445 0 $259 $-1 forward 7 unknown #
vertex $-1 $260 $446 #
ellipse-curve $-1 -55.986299401787569 -6.3233834588231161 5.9571868251241735 -0.54463904215088732 0 0.83867056331134215 0.83867056331134215 0 0.54463904215088732 1 I I #
point $-1 -57.024154426467454 -6.3233834588231161 9.3914218200983441 #
loop $-1 $-1 $271 $263 #
plane-surface $-1 62.969450972014528 0 0 -1 0 0 0 0 1 forward_v I I I I #
coedge $-1 $373 $266 $268 $377 reversed $172 $-1 #
coedge $-1 $266 $372 $447 $448 reversed $172 $-1 #
coedge $-1 $274 $269 $266 $375 forward $264 $-1 #
edge $-1 $378 39.7864769774759 $449 49.999728941947382 $374 $450 forward 7 unknown #
coedge $-1 $268 $267 $381 $451 reversed $108 $-1 #
edge $-1 $452 -125.93890194402906 $378 -113.76099513381951 $372 $453 forward 7 unknown #
vertex $-1 $270 $454 #
straight-curve $-1 52.75619900754306 -5.0796922981819499 12.163064528205098 0 -1 0 I I #
coedge $-1 $447 $271 $274 $385 reversed $370 $-1 #
coedge $-1 $271 $447 $376 $451 forward $370 $-1 #
vertex $-1 $272 $455 #
straight-curve $-1 62.969450972014528 -3.7660493671292556 89.871496894115523 0 0 1 I I #
straight-curve $-1 -42.651798864196209 -3.7660493671292556 74.12174395202031 0.83867056331134215 0 -0.54463904215088732 I I #
edge $-1 $449 -16.552719825598544 $275 -3.7660493671292556 $380 $456 forward 7 unknown #
point $-1 62.969450972014528 -3.7660493671292556 12.163064528205101 #
point $-1 52.756199007543046 -3.7660493671292556 12.163064528205098 #
edge $-1 $457 1 $457 0 $278 $-1 forward 7 unknown #
vertex $-1 $279 $458 #
ellipse-curve $-1 55.986299401787576 -13.995385733904687 5.9571868251241593 0.54463904215088732 0 0.83867056331134215 0.83867056331134215 0 -0.54463904215088732 1 I I #
point $-1 58.701495553090147 -13.995385733904687 8.3021437357965553 #
edge $-1 $459 1 $459 0 $282 $-1 forward 7 unknown #
vertex $-1 $283 $460 #
ellipse-curve $-1 55.986299401787576 -10.1593845963639 5.9571868251241593 0.54463904215088732 0 0.83867056331134215 0.83867056331134215 0 -0.54463904215088732 1 I I #
point $-1 58.701495553090147 -10.1593845963639 8.3021437357965553 #
edge $-1 $461 1 $461 0 $286 $-1 forward 7 unknown #
vertex $-1 $287 $462 #
ellipse-curve $-1 55.986299401787576 -6.3233834588231161 5.9571868251241593 0.54463904215088732 0 0.83867056331134215 0.83867056331134215 0 -0.54463904215088732 1 I I #
point $-1 58.701495553090147 -6.3233834588231161 8.3021437357965553 #
plane-surface $-1 62.969450972014528 0 0 -1 0 0 0 0 1 forward_v I I I I #
coedge $-1 $295 $293 $297 $405 reversed $201 $-1 #
edge $-1 $308 -12.163064528205101 $407 12.163064528205101 $307 $463 forward 7 unknown #
vertex $-1 $405 $464 #
straight-curve $-1 -62.969450972014528 -39.250259542613406 0 0 0 -1 I I #
edge $-1 $403 -39.250259542613406 $407 39.250259542613406 $401 $465 forward 7 unknown #
straight-curve $-1 0 -39.250259542613406 -12.163064528205101 -1 0 0 I I #
vertex $-1 $300 $466 #
straight-curve $-1 0 39.250259542613406 -12.163064528205101 1 0 0 I I #
point $-1 62.969450972014528 39.250259542613406 -12.163064528205101 #
point $-1 62.969450972014528 -39.250259542613406 -12.163064528205101 #
straight-curve $-1 -62.969450972014528 0 12.163064528205101 0 -1 0 I I #
point $-1 -62.969450972014528 39.250259542613406 12.163064528205101 #
point $-1 -62.969450972014528 -39.250259542613406 12.163064528205101 #
straight-curve $-1 62.969450972014528 -39.250259542613406 0 0 0 -1 I I #
straight-curve $-1 62.969450972014528 39.250259542613406 0 0 0 -1 I I #
plane-surface $-1 0 -39.250259542613406 0 0 1 0 0 0 1 forward_v I I I I #
coedge $-1 $467 $320 $332 $428 reversed $220 $-1 #
coedge $-1 $320 $467 $335 $430 reversed $220 $-1 #
edge $-1 $468 -62.969450972014528 $329 -58.600220730134254 $325 $469 forward 7 unknown #
straight-curve $-1 -58.600220730134254 -17.365209590372153 12.163064528205101 0 1 0 I I #
coedge $-1 $332 $323 $326 $424 forward $318 $-1 #
straight-curve $-1 -58.600220730134254 -17.365209590372153 -12.163064528205101 0 -1 0 I I #
coedge $-1 $326 $325 $467 $470 forward $327 $-1 #
edge $-1 $328 58.600220730134254 $471 62.969450972014528 $326 $472 forward 7 unknown #
point $-1 -58.600220730134254 -39.250259542613406 -12.163064528205101 #
point $-1 -58.600220730134254 -39.250259542613406 12.163064528205101 #
straight-curve $-1 -62.969450972014528 -30.210578818875202 0 0 0 -1 I I #
edge $-1 $471 -39.250259542613406 $333 -30.210578818875202 $417 $473 forward 7 unknown #
point $-1 -62.969450972014528 -30.210578818875202 -12.163064528205101 #
edge $-1 $336 30.210578818875202 $468 39.250259542613406 $418 $474 forward 7 unknown #
point $-1 -62.969450972014528 -30.210578818875202 12.163064528205101 #
edge $-1 $433 43.412810903745168 $436 50.045374404260478 $341 $475 forward 7 unknown #
vertex $-1 $355 $476 #
straight-curve $-1 -65.780346948172507 -3.7660493671292556 12.163064528205098 -1 0 0 I I #
edge $-1 $436 -1.3136429310526943 $352 11.473027527416594 $351 $477 forward 7 unknown #
vertex $-1 $435 $478 #
straight-curve $-1 -62.969450972014513 -3.7660493671292556 5.5305010276897946 0.83867056331134215 0 0.54463904215088732 I I #
point $-1 -52.756199007543024 -3.7660493671292556 12.163064528205101 #
point $-1 -62.969450972014528 -16.552719825598544 5.5305010276897857 #
straight-curve $-1 -62.969450972014528 0 12.163064528205101 0 -1 0 I I #
vertex $-1 $358 $479 #
point $-1 -55.147628838476223 -13.995385733904687 6.5018258672750608 #
vertex $-1 $362 $480 #
point $-1 -55.147628838476223 -10.1593845963639 6.5018258672750608 #
vertex $-1 $366 $481 #
point $-1 -55.147628838476223 -6.3233834588231161 6.5018258672750608 #
coedge $-1 $381 $380 $373 $448 forward $370 $-1 #
edge $-1 $449 77.708432365910426 $452 84.340995866425715 $447 $482 forward 7 unknown #
vertex $-1 $385 $483 #
straight-curve $-1 12.969722030067146 -16.552719825598544 12.163064528205098 1 0 0 I I #
edge $-1 $452 -11.473027527416594 $382 1.3136429310526943 $381 $484 forward 7 unknown #
vertex $-1 $451 $485 #
straight-curve $-1 -42.651798864196209 -16.552719825598544 74.12174395202031 -0.83867056331134215 0 0.54463904215088732 I I #
point $-1 52.756199007543046 -16.552719825598544 12.163064528205098 #
point $-1 62.969450972014528 -3.7660493671292556 5.5305010276898088 #
straight-curve $-1 62.969450972014528 0 12.163064528205101 0 1 0 I I #
vertex $-1 $388 $486 #
point $-1 56.824969965098916 -13.995385733904687 5.412547782973272 #
vertex $-1 $392 $487 #
point $-1 56.824969965098916 -10.1593845963639 5.412547782973272 #
vertex $-1 $396 $488 #
point $-1 56.824969965098916 -6.3233834588231161 5.412547782973272 #
straight-curve $-1 -62.969450972014528 39.250259542613406 0 0 0 -1 I I #
point $-1 -62.969450972014528 -39.250259542613406 -12.163064528205101 #
straight-curve $-1 -62.969450972014528 0 -12.163064528205101 0 1 0 I I #
point $-1 -62.969450972014528 39.250259542613406 -12.163064528205101 #
coedge $-1 $418 $417 $423 $470 reversed $220 $-1 #
vertex $-1 $430 $489 #
straight-curve $-1 0 -39.250259542613406 12.163064528205101 1 0 0 I I #
edge $-1 $468 -12.163064528205101 $471 12.163064528205101 $467 $490 forward 7 unknown #
vertex $-1 $428 $491 #
straight-curve $-1 0 -39.250259542613406 -12.163064528205101 -1 0 0 I I #
straight-curve $-1 -62.969450972014528 0 -12.163064528205101 0 1 0 I I #
straight-curve $-1 -62.969450972014528 0 12.163064528205101 0 -1 0 I I #
straight-curve $-1 -62.969450972014528 -3.7660493671292556 55.575875431950266 0 0 -1 I I #
point $-1 -62.969450972014528 -3.7660493671292556 12.163064528205101 #
straight-curve $-1 -62.969450972014528 -5.0796922981819499 5.530501027689783 0 -1 0 I I #
point $-1 -62.969450972014528 -3.7660493671292556 5.5305010276897857 #
point $-1 -55.441660359636678 -13.995385733904687 5.1185162618128306 #
point $-1 -55.441660359636678 -10.1593845963639 5.1185162618128306 #
point $-1 -55.441660359636678 -6.3233834588231161 5.1185162618128306 #
straight-curve $-1 62.969450972014528 -16.552719825598544 89.871496894115523 0 0 -1 I I #
point $-1 62.969450972014528 -16.552719825598544 12.163064528205101 #
straight-curve $-1 62.969450972014535 -5.0796922981819499 5.5305010276898017 0 1 0 I I #
point $-1 62.969450972014528 -16.552719825598544 5.5305010276898088 #
point $-1 55.441660359636685 -13.995385733904687 5.1185162618128164 #
point $-1 55.441660359636685 -10.1593845963639 5.1185162618128164 #
point $-1 55.441660359636685 -6.3233834588231161 5.1185162618128164 #
point $-1 -62.969450972014528 -39.250259542613406 12.163064528205101 #
straight-curve $-1 -62.969450972014528 -39.250259542613406 0 0 0 -1 I I #
point $-1 -62.969450972014528 -39.250259542613406 -12.163064528205101 #
End-of-ACIS-data 