500 0 5 0           
7 Unknown 11 ACIS 5.0 NT 24 Thu Mar 25 17:05:53 1999 
-1 9.9999999999999995e-007 1e-010 
body $-1 $5 $-1 $6 #
body $-1 $7 $-1 $8 #
body $-1 $9 $-1 $10 #
body $-1 $11 $-1 $12 #
body $-1 $13 $-1 $14 #
lump $-1 $-1 $15 $0 #
transform $-1 1 0 0 0 1 0 0 0 1 75.859248634296705 37.66824826286166 16.820751835902527 1 rotate no_reflect no_shear #
lump $-1 $-1 $16 $1 #
transform $-1 1 0 0 0 1 0 0 0 1 75.859248634296705 37.66824826286166 16.820751835902527 1 rotate no_reflect no_shear #
lump $-1 $-1 $17 $2 #
transform $-1 1 0 0 0 1 0 0 0 1 75.859248634296705 37.66824826286166 16.820751835902527 1 rotate no_reflect no_shear #
lump $-1 $-1 $18 $3 #
transform $-1 1 0 0 0 1 0 0 0 1 75.859248634296705 37.66824826286166 16.820751835902527 1 rotate no_reflect no_shear #
lump $-1 $-1 $19 $4 #
transform $-1 1 0 0 0 1 0 0 0 1 75.859248634296705 37.66824826286166 16.820751835902527 1 rotate no_reflect no_shear #
shell $-1 $-1 $-1 $20 $-1 $5 #
shell $-1 $-1 $-1 $21 $-1 $7 #
shell $-1 $-1 $-1 $22 $-1 $9 #
shell $-1 $-1 $-1 $23 $-1 $11 #
shell $-1 $-1 $-1 $24 $-1 $13 #
face $-1 $25 $26 $15 $-1 $27 forward single #
face $-1 $28 $29 $16 $-1 $30 reversed single #
face $-1 $31 $32 $17 $-1 $33 forward single #
face $-1 $34 $35 $18 $-1 $36 reversed single #
face $-1 $37 $38 $19 $-1 $39 reversed single #
face $-1 $40 $41 $15 $-1 $42 reversed single #
loop $-1 $-1 $43 $20 #
plane-surface $-1 0 0 16.820751835902527 0 0 1 1 0 0 forward_v I I I I #
face $-1 $44 $45 $16 $-1 $46 reversed single #
loop $-1 $-1 $47 $21 #
plane-surface $-1 -81.904755282857508 0 9.8362923086671188 0 0 1 1 0 0 forward_v I I I I #
face $-1 $48 $49 $17 $-1 $50 forward single #
loop $-1 $-1 $51 $22 #
plane-surface $-1 -63.768235337175106 100.00711078530946 170.89510060199046 1 0 0 0 -0.74314483375859142 -0.66913059716165679 forward_v I I I I #
face $-1 $52 $53 $18 $-1 $54 reversed single #
loop $-1 $55 $56 $23 #
cone-surface $-1 -55.291689407650381 35.406159760194633 14.459254664881005 0 -0.74314483375859142 -0.66913059716165679 1 0 0 1 I I 0 1 1 forward I I I I #
face $-1 $57 $58 $19 $-1 $59 reversed single #
loop $-1 $60 $61 $24 #
cone-surface $-1 -42.576870513363303 35.406159760194633 14.459254664881005 0 -0.74314483375859142 -0.66913059716165679 1 0 0 1 I I 0 1 1 forward I I I I #
face $-1 $62 $63 $15 $-1 $64 reversed single #
loop $-1 $-1 $65 $25 #
plane-surface $-1 0 0 -16.820751835902527 0 0 1 1 0 0 forward_v I I I I #
coedge $-1 $66 $67 $68 $69 forward $26 $-1 #
face $-1 $70 $71 $16 $-1 $72 forward single #
loop $-1 $-1 $73 $28 #
plane-surface $-1 -87.950261931418311 0 13.328522072284823 1 0 0 0 0 -1 forward_v I I I I #
coedge $-1 $74 $75 $76 $77 reversed $29 $-1 #
face $-1 $78 $79 $17 $-1 $80 forward single #
loop $-1 $-1 $81 $31 #
plane-surface $-1 -48.934279960506842 -12.741706645462685 69.375611924187353 0 0.74314483375859142 0.66913059716165679 1 0 0 forward_v I I I I #
coedge $-1 $82 $83 $84 $85 reversed $32 $-1 #
face $-1 $86 $87 $18 $-1 $88 forward single #
loop $-1 $89 $90 $34 #
cone-surface $-1 -55.291689407650381 34.317172598179418 13.478726244417913 0 -0.74314483375859142 -0.66913059716165679 0.5 0 0 1 I I -0.70710678118654624 0.70710678118654879 0.5 forward I I I I #
loop $-1 $-1 $91 $23 #
coedge $-1 $56 $56 $92 $93 reversed $35 $-1 #
face $-1 $94 $95 $19 $-1 $96 reversed single #
loop $-1 $97 $98 $37 #
cone-surface $-1 -42.576870513363303 34.317172598179418 13.478726244417913 0 -0.74314483375859142 -0.66913059716165679 0.5 0 0 1 I I -0.70710678118654624 0.70710678118654879 0.5 forward I I I I #
loop $-1 $-1 $99 $24 #
coedge $-1 $61 $61 $100 $101 reversed $38 $-1 #
face $-1 $102 $103 $15 $-1 $104 reversed single #
loop $-1 $-1 $105 $40 #
plane-surface $-1 0 -37.66824826286166 0 0 1 0 0 0 1 forward_v I I I I #
coedge $-1 $106 $107 $108 $109 forward $41 $-1 #
coedge $-1 $110 $43 $111 $112 forward $26 $-1 #
coedge $-1 $43 $110 $113 $114 forward $26 $-1 #
coedge $-1 $115 $116 $43 $69 reversed $117 $-1 #
edge $-1 $118 -37.66824826286166 $119 37.66824826286166 $68 $120 forward 7 unknown #
face $-1 $121 $122 $16 $-1 $123 reversed single #
loop $-1 $-1 $124 $44 #
plane-surface $-1 0 0 16.820751835902527 0 0 1 1 0 0 forward_v I I I I #
coedge $-1 $125 $126 $127 $128 forward $45 $-1 #
coedge $-1 $129 $47 $130 $131 forward $29 $-1 #
coedge $-1 $47 $129 $132 $133 forward $29 $-1 #
coedge $-1 $134 $135 $47 $77 forward $136 $-1 #
edge $-1 $137 -37.66824826286166 $138 37.66824826286166 $76 $139 forward 7 unknown #
face $-1 $140 $141 $17 $-1 $142 forward single #
loop $-1 $-1 $143 $48 #
plane-surface $-1 -34.100324583838578 100.00711078530946 170.89510060199046 -1 0 0 0 0.74314483375859142 0.66913059716165679 forward_v I I I I #
coedge $-1 $144 $145 $146 $147 reversed $49 $-1 #
coedge $-1 $83 $51 $145 $148 forward $32 $-1 #
coedge $-1 $51 $82 $149 $150 reversed $32 $-1 #
coedge $-1 $151 $146 $51 $85 forward $141 $-1 #
edge $-1 $152 -15.424654644855302 $153 -12.335307129793073 $84 $154 forward 7 unknown #
face $-1 $155 $156 $18 $-1 $157 forward single #
loop $-1 $-1 $158 $52 #
plane-surface $-1 -63.768235337175106 100.00711078530946 170.89510060199046 1 0 0 0 -0.74314483375859142 -0.66913059716165679 forward_v I I I I #
loop $-1 $-1 $159 $34 #
coedge $-1 $90 $90 $91 $160 forward $53 $-1 #
coedge $-1 $91 $91 $90 $160 reversed $55 $-1 #
coedge $-1 $92 $92 $56 $93 forward $156 $-1 #
edge $-1 $161 1.8459931896798495e-015 $161 6.2831853071796022 $92 $162 forward 7 unknown #
face $-1 $163 $164 $19 $-1 $165 reversed single #
loop $-1 $166 $167 $57 #
cone-surface $-1 -55.291689407650381 35.406159760194633 14.459254664881005 0 -0.74314483375859142 -0.66913059716165679 1 0 0 1 I I 0 1 1 forward I I I I #
loop $-1 $-1 $168 $37 #
coedge $-1 $98 $98 $99 $169 forward $58 $-1 #
coedge $-1 $99 $99 $98 $169 reversed $60 $-1 #
coedge $-1 $100 $100 $61 $101 forward $170 $-1 #
edge $-1 $171 1.8459931896798495e-015 $171 6.2831853071796022 $100 $172 forward 7 unknown #
face $-1 $173 $174 $15 $-1 $175 reversed single #
loop $-1 $-1 $176 $62 #
plane-surface $-1 -75.859248634296705 0 0 1 0 0 0 0 -1 forward_v I I I I #
coedge $-1 $177 $113 $178 $179 forward $63 $-1 #
coedge $-1 $180 $65 $177 $181 forward $41 $-1 #
coedge $-1 $65 $180 $182 $183 forward $41 $-1 #
coedge $-1 $116 $115 $65 $109 reversed $117 $-1 #
edge $-1 $184 -37.66824826286166 $185 37.66824826286166 $108 $186 forward 7 unknown #
coedge $-1 $67 $66 $187 $188 forward $26 $-1 #
coedge $-1 $189 $190 $66 $112 reversed $174 $-1 #
edge $-1 $119 -75.859248634296705 $191 75.859248634296705 $111 $192 forward 7 unknown #
coedge $-1 $105 $193 $67 $114 reversed $63 $-1 #
edge $-1 $194 -75.859248634296705 $118 75.859248634296705 $113 $195 forward 7 unknown #
coedge $-1 $108 $68 $193 $196 forward $117 $-1 #
coedge $-1 $68 $108 $189 $197 reversed $117 $-1 #
loop $-1 $-1 $115 $173 #
vertex $-1 $69 $198 #
vertex $-1 $69 $199 #
straight-curve $-1 75.859248634296705 0 16.820751835902527 0 1 0 I I #
face $-1 $200 $201 $16 $-1 $202 reversed single #
loop $-1 $-1 $203 $70 #
plane-surface $-1 0 0 -16.820751835902527 0 0 1 1 0 0 forward_v I I I I #
coedge $-1 $204 $205 $206 $207 forward $71 $-1 #
coedge $-1 $208 $73 $129 $209 reversed $45 $-1 #
coedge $-1 $73 $208 $210 $211 reversed $45 $-1 #
coedge $-1 $212 $132 $73 $128 reversed $213 $-1 #
edge $-1 $214 -3.4922297636177042 $215 3.4922297636177042 $127 $216 forward 7 unknown #
coedge $-1 $75 $74 $125 $209 forward $29 $-1 #
coedge $-1 $217 $218 $74 $131 reversed $201 $-1 #
edge $-1 $137 -6.0455066485608029 $219 6.0455066485608029 $130 $220 forward 7 unknown #
coedge $-1 $127 $221 $75 $133 reversed $213 $-1 #
edge $-1 $215 -6.0455066485608029 $138 6.0455066485608029 $132 $222 forward 7 unknown #
coedge $-1 $223 $76 $221 $224 forward $136 $-1 #
coedge $-1 $76 $223 $217 $225 reversed $136 $-1 #
loop $-1 $-1 $76 $200 #
vertex $-1 $225 $226 #
vertex $-1 $224 $227 #
straight-curve $-1 -75.859248634296705 0 9.8362923086671188 0 1 0 I I #
face $-1 $228 $229 $17 $-1 $230 reversed single #
loop $-1 $-1 $231 $78 #
plane-surface $-1 0 0 16.820751835902527 0 0 1 1 0 0 forward_v I I I I #
coedge $-1 $232 $233 $231 $234 reversed $79 $-1 #
coedge $-1 $235 $81 $233 $236 reversed $49 $-1 #
coedge $-1 $81 $235 $82 $148 reversed $49 $-1 #
coedge $-1 $84 $231 $81 $147 forward $141 $-1 #
edge $-1 $237 9.6331846035851569 $152 39.301095356921685 $146 $238 forward 7 unknown #
edge $-1 $152 70.719539046620241 $239 75.336496525723334 $82 $240 forward 7 unknown #
coedge $-1 $241 $242 $83 $150 forward $243 $-1 #
edge $-1 $153 68.626798465092705 $239 72.057866563371249 $149 $244 forward 7 unknown #
coedge $-1 $245 $84 $242 $246 forward $141 $-1 #
vertex $-1 $147 $247 #
vertex $-1 $246 $248 #
straight-curve $-1 -63.768235337175106 50.003555392654732 16.820751835902527 0 1 0 I I #
face $-1 $249 $250 $18 $-1 $251 forward single #
loop $-1 $252 $92 $86 #
plane-surface $-1 -48.934279960506842 -12.741706645462685 69.375611924187353 0 0.74314483375859142 0.66913059716165679 1 0 0 forward_v I I I I #
coedge $-1 $253 $254 $255 $256 reversed $87 $-1 #
coedge $-1 $159 $159 $-1 $257 forward $89 $-1 #
edge $-1 $258 0 $258 6.2831853071796004 $90 $259 forward 7 unknown #
vertex $-1 $93 $260 #
ellipse-curve $-1 -55.291689407650381 36.123574505330545 15.105217786763259 0 -0.74314483375859142 -0.66913059716165679 1 0 0 1 I I #
face $-1 $261 $262 $19 $-1 $263 forward single #
loop $-1 $264 $265 $94 #
cone-surface $-1 -55.291689407650381 34.317172598179418 13.478726244417913 0 -0.74314483375859142 -0.66913059716165679 0.5 0 0 1 I I -0.70710678118654624 0.70710678118654879 0.5 forward I I I I #
loop $-1 $-1 $266 $57 #
coedge $-1 $167 $167 $267 $268 reversed $95 $-1 #
coedge $-1 $168 $168 $-1 $269 forward $97 $-1 #
edge $-1 $270 0 $270 6.2831853071796004 $98 $271 forward 7 unknown #
loop $-1 $272 $100 $261 #
vertex $-1 $101 $273 #
ellipse-curve $-1 -42.576870513363303 36.123574505330545 15.105217786763259 0 -0.74314483375859142 -0.66913059716165679 1 0 0 1 I I #
face $-1 $-1 $117 $15 $-1 $274 reversed single #
loop $-1 $-1 $189 $102 #
plane-surface $-1 0 37.66824826286166 0 0 -1 0 0 0 -1 forward_v I I I I #
coedge $-1 $275 $187 $190 $276 forward $103 $-1 #
coedge $-1 $193 $105 $106 $181 reversed $63 $-1 #
coedge $-1 $187 $275 $105 $179 reversed $103 $-1 #
edge $-1 $194 -16.820751835902527 $277 16.820751835902527 $178 $278 forward 7 unknown #
coedge $-1 $107 $106 $275 $279 forward $41 $-1 #
edge $-1 $185 -75.859248634296705 $277 75.859248634296705 $177 $280 forward 7 unknown #
coedge $-1 $190 $189 $107 $183 reversed $174 $-1 #
edge $-1 $281 -75.859248634296705 $184 75.859248634296705 $182 $282 forward 7 unknown #
vertex $-1 $109 $283 #
vertex $-1 $196 $284 #
straight-curve $-1 75.859248634296705 0 -16.820751835902527 0 -1 0 I I #
coedge $-1 $176 $178 $110 $188 reversed $103 $-1 #
edge $-1 $191 -37.66824826286166 $194 37.66824826286166 $187 $285 forward 7 unknown #
coedge $-1 $182 $111 $116 $197 forward $174 $-1 #
coedge $-1 $111 $182 $176 $276 reversed $174 $-1 #
vertex $-1 $112 $286 #
straight-curve $-1 0 37.66824826286166 16.820751835902527 -1 0 0 I I #
coedge $-1 $113 $177 $115 $196 reversed $63 $-1 #
vertex $-1 $188 $287 #
straight-curve $-1 0 -37.66824826286166 16.820751835902527 1 0 0 I I #
edge $-1 $118 -16.820751835902527 $185 16.820751835902527 $115 $288 forward 7 unknown #
edge $-1 $119 -16.820751835902527 $184 16.820751835902527 $116 $289 forward 7 unknown #
point $-1 75.859248634296705 -37.66824826286166 16.820751835902527 #
point $-1 75.859248634296705 37.66824826286166 16.820751835902527 #
face $-1 $290 $136 $16 $-1 $291 reversed single #
loop $-1 $-1 $217 $121 #
plane-surface $-1 0 -37.66824826286166 0 0 1 0 0 0 1 forward_v I I I I #
coedge $-1 $292 $293 $294 $295 forward $122 $-1 #
coedge $-1 $210 $124 $212 $296 forward $71 $-1 #
coedge $-1 $124 $210 $297 $298 forward $71 $-1 #
coedge $-1 $299 $300 $124 $207 reversed $301 $-1 #
edge $-1 $302 -37.66824826286166 $303 37.66824826286166 $206 $304 forward 7 unknown #
coedge $-1 $126 $125 $218 $305 reversed $45 $-1 #
edge $-1 $219 -37.66824826286166 $215 37.66824826286166 $125 $306 forward 7 unknown #
coedge $-1 $205 $204 $126 $211 forward $71 $-1 #
edge $-1 $214 -37.66824826286166 $307 37.66824826286166 $126 $308 forward 7 unknown #
coedge $-1 $309 $127 $204 $296 reversed $213 $-1 #
loop $-1 $-1 $309 $290 #
vertex $-1 $296 $310 #
vertex $-1 $133 $311 #
straight-curve $-1 -87.950261931418311 37.66824826286166 13.328522072284823 0 0 -1 I I #
coedge $-1 $312 $130 $135 $225 forward $201 $-1 #
coedge $-1 $130 $297 $208 $305 forward $201 $-1 #
vertex $-1 $209 $313 #
straight-curve $-1 -81.904755282857508 -37.66824826286166 9.8362923086671188 -1 0 0 I I #
coedge $-1 $132 $314 $134 $224 reversed $213 $-1 #
straight-curve $-1 -81.904755282857508 37.66824826286166 9.8362923086671188 1 0 0 I I #
coedge $-1 $135 $134 $315 $316 reversed $136 $-1 #
edge $-1 $138 -9.8362923086671188 $317 16.820751835902527 $221 $318 forward 7 unknown #
edge $-1 $137 -9.8362923086671188 $319 16.820751835902527 $135 $320 forward 7 unknown #
point $-1 -75.859248634296705 -37.66824826286166 9.8362923086671188 #
point $-1 -75.859248634296705 37.66824826286166 9.8362923086671188 #
face $-1 $321 $322 $17 $-1 $323 reversed single #
loop $-1 $-1 $324 $140 #
plane-surface $-1 -81.904755282857508 0 9.8362923086671188 0 0 1 1 0 0 forward_v I I I I #
coedge $-1 $146 $325 $143 $234 forward $141 $-1 #
coedge $-1 $233 $143 $326 $327 reversed $79 $-1 #
coedge $-1 $143 $232 $144 $236 forward $79 $-1 #
edge $-1 $328 12.335307129793073 $237 15.424654644855302 $231 $329 forward 7 unknown #
coedge $-1 $145 $144 $241 $330 reversed $49 $-1 #
edge $-1 $331 -75.336496525723334 $237 -70.719539046620241 $233 $332 forward 7 unknown #
vertex $-1 $147 $333 #
straight-curve $-1 -24.467139980253421 34.578900747799437 16.820751835902527 -1 0 0 I I #
vertex $-1 $330 $334 #
straight-curve $-1 -63.768235337175106 -12.741706645462685 69.375611924187353 0 0.66913059716165679 -0.74314483375859142 I I #
coedge $-1 $326 $149 $235 $330 forward $243 $-1 #
coedge $-1 $149 $335 $151 $246 reversed $243 $-1 #
loop $-1 $-1 $326 $336 #
straight-curve $-1 -63.768235337175106 37.66824826286166 85.447550300995232 0 0 -1 I I #
coedge $-1 $337 $151 $338 $339 forward $141 $-1 #
edge $-1 $153 63.768235337175106 $340 87.950261931418311 $242 $341 forward 7 unknown #
point $-1 -63.768235337175106 34.57890074779943 16.820751835902527 #
point $-1 -63.768235337175106 37.66824826286166 16.820751835902527 #
face $-1 $342 $343 $18 $-1 $344 forward single #
loop $-1 $-1 $345 $155 #
plane-surface $-1 -34.100324583838578 100.00711078530946 170.89510060199046 -1 0 0 0 0.74314483375859142 0.66913059716165679 forward_v I I I I #
loop $-1 $-1 $346 $86 #
coedge $-1 $254 $158 $347 $348 forward $87 $-1 #
coedge $-1 $158 $253 $349 $350 reversed $87 $-1 #
coedge $-1 $351 $352 $158 $256 forward $343 $-1 #
edge $-1 $353 -15.424654644855302 $354 -12.335307129793073 $255 $355 forward 7 unknown #
edge $-1 $356 1 $356 0 $159 $-1 forward 7 unknown #
vertex $-1 $160 $357 #
ellipse-curve $-1 -55.291689407650381 34.688745015058714 13.813291542998742 0 0.74314483375859142 0.66913059716165679 1 0 0 1 I I #
point $-1 -54.291689407650381 36.123574505330552 15.105217786763268 #
face $-1 $358 $170 $19 $-1 $359 forward single #
loop $-1 $-1 $360 $163 #
plane-surface $-1 -63.768235337175106 100.00711078530946 170.89510060199046 1 0 0 0 -0.74314483375859142 -0.66913059716165679 forward_v I I I I #
loop $-1 $-1 $361 $94 #
coedge $-1 $265 $265 $266 $362 forward $164 $-1 #
coedge $-1 $266 $266 $265 $362 reversed $166 $-1 #
coedge $-1 $267 $267 $167 $268 forward $272 $-1 #
edge $-1 $363 1.8459931896798495e-015 $363 6.2831853071796022 $267 $364 forward 7 unknown #
edge $-1 $365 1 $365 0 $168 $-1 forward 7 unknown #
vertex $-1 $169 $366 #
ellipse-curve $-1 -42.576870513363303 34.688745015058714 13.813291542998742 0 0.74314483375859142 0.66913059716165679 1 0 0 1 I I #
loop $-1 $367 $267 $261 #
point $-1 -41.576870513363303 36.123574505330552 15.105217786763268 #
plane-surface $-1 75.859248634296705 0 0 -1 0 0 0 0 1 forward_v I I I I #
coedge $-1 $178 $176 $180 $279 reversed $103 $-1 #
edge $-1 $191 -16.820751835902527 $281 16.820751835902527 $190 $368 forward 7 unknown #
vertex $-1 $279 $369 #
straight-curve $-1 -75.859248634296705 -37.66824826286166 0 0 0 -1 I I #
edge $-1 $277 -37.66824826286166 $281 37.66824826286166 $275 $370 forward 7 unknown #
straight-curve $-1 0 -37.66824826286166 -16.820751835902527 -1 0 0 I I #
vertex $-1 $183 $371 #
straight-curve $-1 0 37.66824826286166 -16.820751835902527 1 0 0 I I #
point $-1 75.859248634296705 37.66824826286166 -16.820751835902527 #
point $-1 75.859248634296705 -37.66824826286166 -16.820751835902527 #
straight-curve $-1 -75.859248634296705 0 16.820751835902527 0 -1 0 I I #
point $-1 -75.859248634296705 37.66824826286166 16.820751835902527 #
point $-1 -75.859248634296705 -37.66824826286166 16.820751835902527 #
straight-curve $-1 75.859248634296705 -37.66824826286166 0 0 0 -1 I I #
straight-curve $-1 75.859248634296705 37.66824826286166 0 0 0 -1 I I #
face $-1 $372 $213 $16 $-1 $373 reversed single #
plane-surface $-1 -75.859248634296705 0 0 1 0 0 0 0 -1 forward_v I I I I #
coedge $-1 $315 $203 $312 $374 forward $122 $-1 #
coedge $-1 $203 $315 $314 $375 forward $122 $-1 #
coedge $-1 $300 $299 $203 $295 reversed $301 $-1 #
edge $-1 $376 -37.66824826286166 $377 37.66824826286166 $294 $378 forward 7 unknown #
edge $-1 $303 -75.859248634296705 $214 87.950261931418311 $212 $379 forward 7 unknown #
coedge $-1 $218 $380 $205 $298 reversed $201 $-1 #
edge $-1 $307 -87.950261931418311 $302 75.859248634296705 $297 $381 forward 7 unknown #
coedge $-1 $294 $206 $380 $382 forward $301 $-1 #
coedge $-1 $206 $294 $309 $383 reversed $301 $-1 #
loop $-1 $-1 $299 $372 #
vertex $-1 $207 $384 #
vertex $-1 $207 $385 #
straight-curve $-1 75.859248634296705 0 16.820751835902527 0 1 0 I I #
edge $-1 $307 -3.4922297636177042 $219 3.4922297636177042 $208 $386 forward 7 unknown #
straight-curve $-1 -87.950261931418311 0 9.8362923086671188 0 1 0 I I #
vertex $-1 $211 $387 #
straight-curve $-1 -87.950261931418311 0 16.820751835902527 0 -1 0 I I #
coedge $-1 $314 $212 $300 $383 forward $213 $-1 #
point $-1 -87.950261931418311 37.66824826286166 16.820751835902527 #
point $-1 -87.950261931418311 37.66824826286166 9.8362923086671188 #
coedge $-1 $380 $217 $292 $374 reversed $201 $-1 #
point $-1 -87.950261931418311 -37.66824826286166 9.8362923086671188 #
coedge $-1 $221 $309 $293 $375 reversed $213 $-1 #
coedge $-1 $293 $292 $223 $316 forward $122 $-1 #
edge $-1 $319 -37.66824826286166 $317 37.66824826286166 $223 $388 forward 7 unknown #
vertex $-1 $375 $389 #
straight-curve $-1 -75.859248634296705 37.66824826286166 0 0 0 -1 I I #
vertex $-1 $316 $390 #
straight-curve $-1 -75.859248634296705 -37.66824826286166 0 0 0 -1 I I #
face $-1 $391 $392 $17 $-1 $393 reversed single #
loop $-1 $-1 $394 $228 #
plane-surface $-1 -87.950261931418311 0 13.328522072284823 1 0 0 0 0 -1 forward_v I I I I #
coedge $-1 $395 $396 $397 $398 reversed $229 $-1 #
coedge $-1 $231 $399 $400 $401 forward $141 $-1 #
coedge $-1 $400 $241 $232 $327 forward $243 $-1 #
edge $-1 $331 -72.057866563371249 $328 -68.626798465092705 $326 $402 forward 7 unknown #
vertex $-1 $327 $403 #
straight-curve $-1 -34.100324583838578 50.003555392654732 16.820751835902527 0 -1 0 I I #
edge $-1 $239 -39.301095356921685 $331 -9.6331846035851569 $241 $404 forward 7 unknown #
vertex $-1 $330 $405 #
straight-curve $-1 -34.100324583838578 -12.741706645462685 69.375611924187353 0 -0.66913059716165679 0.74314483375859142 I I #
point $-1 -34.100324583838578 34.57890074779943 16.820751835902527 #
point $-1 -63.768235337175106 37.66824826286166 13.389683737623976 #
coedge $-1 $242 $406 $394 $407 reversed $243 $-1 #
face $-1 $408 $243 $17 $-1 $409 reversed single #
coedge $-1 $399 $245 $410 $411 forward $141 $-1 #
coedge $-1 $394 $412 $245 $339 reversed $322 $-1 #
edge $-1 $340 -37.66824826286166 $413 37.66824826286166 $338 $414 forward 7 unknown #
vertex $-1 $246 $415 #
straight-curve $-1 0 37.66824826286166 16.820751835902527 -1 0 0 I I #
face $-1 $416 $417 $18 $-1 $418 reversed single #
loop $-1 $-1 $419 $249 #
plane-surface $-1 0 0 16.820751835902527 0 0 1 1 0 0 forward_v I I I I #
coedge $-1 $420 $421 $419 $422 reversed $250 $-1 #
coedge $-1 $423 $347 $352 $424 reversed $252 $-1 #
coedge $-1 $346 $425 $253 $348 reversed $252 $-1 #
edge $-1 $353 70.719539046620241 $426 75.336496525723334 $253 $427 forward 7 unknown #
coedge $-1 $428 $429 $254 $350 forward $430 $-1 #
edge $-1 $354 68.626798465092705 $426 72.057866563371249 $349 $431 forward 7 unknown #
coedge $-1 $432 $255 $429 $433 forward $343 $-1 #
coedge $-1 $255 $419 $346 $424 forward $343 $-1 #
vertex $-1 $424 $434 #
vertex $-1 $433 $435 #
straight-curve $-1 -63.768235337175106 50.003555392654732 16.820751835902527 0 1 0 I I #
vertex $-1 $257 $436 #
point $-1 -54.291689407650381 34.688745015058714 13.813291542998742 #
face $-1 $437 $438 $19 $-1 $439 forward single #
plane-surface $-1 -48.934279960506842 -12.741706645462685 69.375611924187353 0 0.74314483375859142 0.66913059716165679 1 0 0 forward_v I I I I #
coedge $-1 $440 $441 $442 $443 reversed $262 $-1 #
coedge $-1 $361 $361 $-1 $444 forward $264 $-1 #
edge $-1 $445 0 $445 6.2831853071796004 $265 $446 forward 7 unknown #
vertex $-1 $268 $447 #
ellipse-curve $-1 -55.291689407650381 36.123574505330545 15.105217786763259 0 -0.74314483375859142 -0.66913059716165679 1 0 0 1 I I #
vertex $-1 $269 $448 #
point $-1 -41.576870513363303 34.688745015058714 13.813291542998742 #
loop $-1 $-1 $449 $261 #
straight-curve $-1 -75.859248634296705 37.66824826286166 0 0 0 -1 I I #
point $-1 -75.859248634296705 -37.66824826286166 -16.820751835902527 #
straight-curve $-1 -75.859248634296705 0 -16.820751835902527 0 1 0 I I #
point $-1 -75.859248634296705 37.66824826286166 -16.820751835902527 #
face $-1 $-1 $301 $16 $-1 $450 reversed single #
plane-surface $-1 0 37.66824826286166 0 0 -1 0 0 0 -1 forward_v I I I I #
edge $-1 $377 -75.859248634296705 $319 75.859248634296705 $312 $451 forward 7 unknown #
edge $-1 $317 -75.859248634296705 $376 75.859248634296705 $314 $452 forward 7 unknown #
vertex $-1 $295 $453 #
vertex $-1 $382 $454 #
straight-curve $-1 75.859248634296705 0 -16.820751835902527 0 -1 0 I I #
straight-curve $-1 0 37.66824826286166 16.820751835902527 -1 0 0 I I #
coedge $-1 $297 $312 $299 $382 reversed $201 $-1 #
straight-curve $-1 0 -37.66824826286166 16.820751835902527 1 0 0 I I #
edge $-1 $302 -16.820751835902527 $377 16.820751835902527 $299 $455 forward 7 unknown #
edge $-1 $303 -16.820751835902527 $376 16.820751835902527 $300 $456 forward 7 unknown #
point $-1 75.859248634296705 -37.66824826286166 16.820751835902527 #
point $-1 75.859248634296705 37.66824826286166 16.820751835902527 #
straight-curve $-1 -87.950261931418311 -37.66824826286166 13.328522072284823 0 0 -1 I I #
point $-1 -87.950261931418311 -37.66824826286166 16.820751835902527 #
straight-curve $-1 -75.859248634296705 0 -16.820751835902527 0 1 0 I I #
point $-1 -75.859248634296705 37.66824826286166 -16.820751835902527 #
point $-1 -75.859248634296705 -37.66824826286166 -16.820751835902527 #
face $-1 $457 $458 $17 $-1 $459 reversed single #
loop $-1 $-1 $460 $321 #
plane-surface $-1 0 0 -16.820751835902527 0 0 1 1 0 0 forward_v I I I I #
coedge $-1 $461 $338 $335 $407 forward $322 $-1 #
coedge $-1 $462 $324 $463 $464 forward $229 $-1 #
coedge $-1 $324 $462 $406 $465 forward $229 $-1 #
coedge $-1 $466 $467 $324 $398 forward $468 $-1 #
edge $-1 $469 -37.66824826286166 $470 37.66824826286166 $397 $471 forward 7 unknown #
coedge $-1 $325 $337 $472 $473 forward $141 $-1 #
coedge $-1 $474 $326 $325 $401 reversed $243 $-1 #
edge $-1 $475 -75.859248634296705 $328 34.100324583838578 $400 $341 forward 7 unknown #
straight-curve $-1 -34.100324583838578 37.66824826286166 85.447550300995232 0 0 1 I I #
point $-1 -34.100324583838578 37.66824826286166 16.820751835902527 #
straight-curve $-1 -24.467139980253421 37.668248262861667 13.389683737623976 1 0 0 I I #
point $-1 -34.100324583838578 37.66824826286166 13.389683737623976 #
coedge $-1 $335 $476 $396 $465 reversed $243 $-1 #
edge $-1 $340 -3.4922297636177042 $477 3.4922297636177042 $335 $478 forward 7 unknown #
face $-1 $-1 $479 $17 $-1 $480 reversed single #
plane-surface $-1 0 37.66824826286166 0 0 -1 0 0 0 -1 forward_v I I I I #
coedge $-1 $481 $482 $337 $411 reversed $458 $-1 #
edge $-1 $413 -87.950261931418311 $483 75.859248634296705 $410 $484 forward 7 unknown #
coedge $-1 $338 $461 $481 $485 reversed $322 $-1 #
vertex $-1 $339 $486 #
straight-curve $-1 -87.950261931418311 0 16.820751835902527 0 -1 0 I I #
point $-1 -87.950261931418311 37.66824826286166 16.820751835902527 #
face $-1 $487 $488 $18 $-1 $489 reversed single #
loop $-1 $-1 $490 $342 #
plane-surface $-1 -81.904755282857508 0 9.8362923086671188 0 0 1 1 0 0 forward_v I I I I #
coedge $-1 $352 $491 $345 $422 forward $343 $-1 #
coedge $-1 $421 $345 $492 $493 reversed $250 $-1 #
coedge $-1 $345 $420 $423 $494 forward $250 $-1 #
edge $-1 $495 12.335307129793073 $496 15.424654644855302 $419 $497 forward 7 unknown #
coedge $-1 $425 $346 $421 $494 reversed $252 $-1 #
edge $-1 $496 9.6331846035851569 $353 39.301095356921685 $352 $498 forward 7 unknown #
coedge $-1 $347 $423 $428 $499 reversed $252 $-1 #
vertex $-1 $499 $500 #
straight-curve $-1 -63.768235337175106 -12.741706645462685 69.375611924187353 0 0.66913059716165679 -0.74314483375859142 I I #
coedge $-1 $492 $349 $425 $499 forward $430 $-1 #
coedge $-1 $349 $501 $351 $433 reversed $430 $-1 #
loop $-1 $-1 $492 $502 #
straight-curve $-1 -63.768235337175106 37.66824826286166 85.447550300995232 0 0 -1 I I #
coedge $-1 $503 $351 $504 $505 forward $343 $-1 #
edge $-1 $354 63.768235337175106 $506 87.950261931418311 $429 $507 forward 7 unknown #
point $-1 -63.768235337175106 34.57890074779943 16.820751835902527 #
point $-1 -63.768235337175106 37.66824826286166 16.820751835902527 #
point $-1 -55.291689407650381 33.945600181300122 13.144160945837084 #
face $-1 $508 $509 $19 $-1 $510 forward single #
loop $-1 $-1 $511 $358 #
plane-surface $-1 -34.100324583838578 100.00711078530946 170.89510060199046 -1 0 0 0 0.74314483375859142 0.66913059716165679 forward_v I I I I #
coedge $-1 $441 $360 $512 $513 forward $262 $-1 #
coedge $-1 $360 $440 $514 $515 reversed $262 $-1 #
coedge $-1 $516 $517 $360 $443 forward $509 $-1 #
edge $-1 $518 -15.424654644855302 $519 -12.335307129793073 $442 $520 forward 7 unknown #
edge $-1 $521 1 $521 0 $361 $-1 forward 7 unknown #
vertex $-1 $362 $522 #
ellipse-curve $-1 -55.291689407650381 34.688745015058714 13.813291542998742 0 0.74314483375859142 0.66913059716165679 1 0 0 1 I I #
point $-1 -54.291689407650381 36.123574505330552 15.105217786763268 #
point $-1 -42.576870513363303 33.945600181300122 13.144160945837084 #
coedge $-1 $523 $512 $517 $524 reversed $367 $-1 #
plane-surface $-1 75.859248634296705 0 0 -1 0 0 0 0 1 forward_v I I I I #
straight-curve $-1 0 -37.66824826286166 -16.820751835902527 -1 0 0 I I #
straight-curve $-1 0 37.66824826286166 -16.820751835902527 1 0 0 I I #
point $-1 75.859248634296705 37.66824826286166 -16.820751835902527 #
point $-1 75.859248634296705 -37.66824826286166 -16.820751835902527 #
straight-curve $-1 75.859248634296705 -37.66824826286166 0 0 0 -1 I I #
straight-curve $-1 75.859248634296705 37.66824826286166 0 0 0 -1 I I #
face $-1 $336 $468 $17 $-1 $525 reversed single #
loop $-1 $-1 $526 $391 #
plane-surface $-1 0 -37.66824826286166 0 0 1 0 0 0 1 forward_v I I I I #
coedge $-1 $527 $528 $529 $530 forward $392 $-1 #
coedge $-1 $412 $394 $462 $531 reversed $322 $-1 #
coedge $-1 $396 $395 $461 $531 forward $229 $-1 #
coedge $-1 $526 $481 $395 $464 reversed $458 $-1 #
edge $-1 $469 -6.0455066485608029 $532 6.0455066485608029 $463 $533 forward 7 unknown #
edge $-1 $477 -6.0455066485608029 $470 6.0455066485608029 $406 $534 forward 7 unknown #
coedge $-1 $535 $397 $476 $536 forward $468 $-1 #
coedge $-1 $397 $535 $526 $537 reversed $468 $-1 #
loop $-1 $-1 $397 $457 #
vertex $-1 $537 $538 #
vertex $-1 $536 $539 #
straight-curve $-1 -75.859248634296705 0 9.8362923086671188 0 1 0 I I #
coedge $-1 $540 $541 $399 $473 reversed $479 $-1 #
edge $-1 $483 -37.66824826286166 $475 37.66824826286166 $472 $542 forward 7 unknown #
coedge $-1 $543 $400 $541 $544 forward $243 $-1 #
vertex $-1 $473 $545 #
coedge $-1 $406 $543 $466 $536 reversed $243 $-1 #
vertex $-1 $465 $546 #
straight-curve $-1 -87.950261931418311 37.66824826286166 13.328522072284823 0 0 -1 I I #
loop $-1 $-1 $540 $408 #
plane-surface $-1 75.859248634296705 0 0 -1 0 0 0 0 1 forward_v I I I I #
coedge $-1 $463 $410 $412 $485 forward $458 $-1 #
coedge $-1 $410 $547 $540 $548 reversed $458 $-1 #
vertex $-1 $473 $549 #
straight-curve $-1 0 -37.66824826286166 16.820751835902527 1 0 0 I I #
edge $-1 $413 -3.4922297636177042 $532 3.4922297636177042 $412 $550 forward 7 unknown #
point $-1 -87.950261931418311 -37.66824826286166 16.820751835902527 #
face $-1 $551 $552 $18 $-1 $553 reversed single #
loop $-1 $-1 $554 $416 #
plane-surface $-1 -87.950261931418311 0 13.328522072284823 1 0 0 0 0 -1 forward_v I I I I #
coedge $-1 $555 $556 $557 $558 reversed $417 $-1 #
coedge $-1 $419 $559 $560 $561 forward $343 $-1 #
coedge $-1 $560 $428 $420 $493 forward $430 $-1 #
edge $-1 $562 -72.057866563371249 $495 -68.626798465092705 $492 $563 forward 7 unknown #
edge $-1 $562 -75.336496525723334 $496 -70.719539046620241 $421 $564 forward 7 unknown #
vertex $-1 $493 $565 #
vertex $-1 $424 $566 #
straight-curve $-1 -34.100324583838578 50.003555392654732 16.820751835902527 0 -1 0 I I #
straight-curve $-1 -24.467139980253421 34.578900747799437 16.820751835902527 -1 0 0 I I #
edge $-1 $426 -39.301095356921685 $562 -9.6331846035851569 $428 $567 forward 7 unknown #
point $-1 -63.768235337175106 37.66824826286166 13.389683737623976 #
coedge $-1 $429 $568 $554 $569 reversed $430 $-1 #
face $-1 $570 $430 $18 $-1 $571 reversed single #
coedge $-1 $559 $432 $572 $573 forward $343 $-1 #
coedge $-1 $554 $574 $432 $505 reversed $488 $-1 #
edge $-1 $506 -37.66824826286166 $575 37.66824826286166 $504 $576 forward 7 unknown #
vertex $-1 $433 $577 #
straight-curve $-1 0 37.66824826286166 16.820751835902527 -1 0 0 I I #
face $-1 $578 $579 $19 $-1 $580 reversed single #
loop $-1 $-1 $581 $437 #
plane-surface $-1 0 0 16.820751835902527 0 0 1 1 0 0 forward_v I I I I #
coedge $-1 $582 $583 $581 $584 reversed $438 $-1 #
coedge $-1 $449 $585 $440 $513 reversed $367 $-1 #
edge $-1 $518 70.719539046620241 $586 75.336496525723334 $440 $587 forward 7 unknown #
coedge $-1 $588 $589 $441 $515 forward $590 $-1 #
edge $-1 $519 68.626798465092705 $586 72.057866563371249 $514 $591 forward 7 unknown #
coedge $-1 $592 $442 $589 $593 forward $509 $-1 #
coedge $-1 $442 $581 $449 $524 forward $509 $-1 #
vertex $-1 $524 $594 #
vertex $-1 $593 $595 #
straight-curve $-1 -63.768235337175106 50.003555392654732 16.820751835902527 0 1 0 I I #
vertex $-1 $444 $596 #
point $-1 -54.291689407650381 34.688745015058714 13.813291542998742 #
coedge $-1 $585 $449 $583 $597 reversed $367 $-1 #
edge $-1 $598 9.6331846035851569 $518 39.301095356921685 $517 $599 forward 7 unknown #
plane-surface $-1 -75.859248634296705 0 0 1 0 0 0 0 -1 forward_v I I I I #
coedge $-1 $547 $463 $467 $537 forward $458 $-1 #
coedge $-1 $600 $460 $547 $601 forward $392 $-1 #
coedge $-1 $460 $600 $543 $602 forward $392 $-1 #
coedge $-1 $541 $540 $460 $530 reversed $479 $-1 #
edge $-1 $603 -37.66824826286166 $604 37.66824826286166 $529 $605 forward 7 unknown #
edge $-1 $532 -37.66824826286166 $477 37.66824826286166 $461 $606 forward 7 unknown #
vertex $-1 $531 $607 #
straight-curve $-1 -81.904755282857508 -37.66824826286166 9.8362923086671188 -1 0 0 I I #
straight-curve $-1 -81.904755282857508 37.66824826286166 9.8362923086671188 1 0 0 I I #
coedge $-1 $467 $466 $600 $608 reversed $468 $-1 #
edge $-1 $470 -9.8362923086671188 $609 16.820751835902527 $476 $610 forward 7 unknown #
edge $-1 $469 -9.8362923086671188 $611 16.820751835902527 $467 $612 forward 7 unknown #
point $-1 -75.859248634296705 -37.66824826286166 9.8362923086671188 #
point $-1 -75.859248634296705 37.66824826286166 9.8362923086671188 #
coedge $-1 $529 $472 $482 $548 forward $479 $-1 #
coedge $-1 $472 $529 $474 $544 reversed $479 $-1 #
straight-curve $-1 75.859248634296705 0 16.820751835902527 0 1 0 I I #
coedge $-1 $476 $474 $528 $602 reversed $243 $-1 #
edge $-1 $475 -16.820751835902527 $603 16.820751835902527 $541 $613 forward 7 unknown #
point $-1 75.859248634296705 37.66824826286166 16.820751835902527 #
point $-1 -87.950261931418311 37.66824826286166 9.8362923086671188 #
coedge $-1 $482 $526 $527 $601 reversed $458 $-1 #
edge $-1 $483 -16.820751835902527 $604 16.820751835902527 $540 $614 forward 7 unknown #
point $-1 75.859248634296705 -37.66824826286166 16.820751835902527 #
straight-curve $-1 -87.950261931418311 -37.66824826286166 13.328522072284823 0 0 -1 I I #
face $-1 $615 $616 $18 $-1 $617 reversed single #
loop $-1 $-1 $618 $487 #
plane-surface $-1 0 0 -16.820751835902527 0 0 1 1 0 0 forward_v I I I I #
coedge $-1 $619 $504 $501 $569 forward $488 $-1 #
coedge $-1 $620 $490 $621 $622 forward $417 $-1 #
coedge $-1 $490 $620 $568 $623 forward $417 $-1 #
coedge $-1 $624 $625 $490 $558 forward $626 $-1 #
edge $-1 $627 -37.66824826286166 $628 37.66824826286166 $557 $629 forward 7 unknown #
coedge $-1 $491 $503 $630 $631 forward $343 $-1 #
coedge $-1 $632 $492 $491 $561 reversed $430 $-1 #
edge $-1 $633 -75.859248634296705 $495 34.100324583838578 $560 $507 forward 7 unknown #
vertex $-1 $499 $634 #
straight-curve $-1 -34.100324583838578 37.66824826286166 85.447550300995232 0 0 1 I I #
straight-curve $-1 -34.100324583838578 -12.741706645462685 69.375611924187353 0 -0.66913059716165679 0.74314483375859142 I I #
point $-1 -34.100324583838578 37.66824826286166 16.820751835902527 #
point $-1 -34.100324583838578 34.57890074779943 16.820751835902527 #
straight-curve $-1 -24.467139980253421 37.668248262861667 13.389683737623976 1 0 0 I I #
coedge $-1 $501 $635 $556 $623 reversed $430 $-1 #
edge $-1 $506 -3.4922297636177042 $636 3.4922297636177042 $501 $637 forward 7 unknown #
face $-1 $-1 $638 $18 $-1 $639 reversed single #
plane-surface $-1 0 37.66824826286166 0 0 -1 0 0 0 -1 forward_v I I I I #
coedge $-1 $640 $641 $503 $573 reversed $616 $-1 #
edge $-1 $575 -87.950261931418311 $642 75.859248634296705 $572 $643 forward 7 unknown #
coedge $-1 $504 $619 $640 $644 reversed $488 $-1 #
vertex $-1 $505 $645 #
straight-curve $-1 -87.950261931418311 0 16.820751835902527 0 -1 0 I I #
point $-1 -87.950261931418311 37.66824826286166 16.820751835902527 #
face $-1 $646 $647 $19 $-1 $648 reversed single #
loop $-1 $-1 $649 $508 #
plane-surface $-1 -81.904755282857508 0 9.8362923086671188 0 0 1 1 0 0 forward_v I I I I #
coedge $-1 $517 $650 $511 $584 forward $509 $-1 #
coedge $-1 $583 $511 $651 $652 reversed $438 $-1 #
coedge $-1 $511 $582 $523 $597 forward $438 $-1 #
edge $-1 $653 12.335307129793073 $598 15.424654644855302 $581 $654 forward 7 unknown #
coedge $-1 $512 $523 $588 $655 reversed $367 $-1 #
vertex $-1 $655 $656 #
straight-curve $-1 -63.768235337175106 -12.741706645462685 69.375611924187353 0 0.66913059716165679 -0.74314483375859142 I I #
coedge $-1 $651 $514 $585 $655 forward $590 $-1 #
coedge $-1 $514 $657 $516 $593 reversed $590 $-1 #
loop $-1 $-1 $651 $658 #
straight-curve $-1 -63.768235337175106 37.66824826286166 85.447550300995232 0 0 -1 I I #
coedge $-1 $659 $516 $660 $661 forward $509 $-1 #
edge $-1 $519 63.768235337175106 $662 87.950261931418311 $589 $663 forward 7 unknown #
point $-1 -63.768235337175106 34.57890074779943 16.820751835902527 #
point $-1 -63.768235337175106 37.66824826286166 16.820751835902527 #
point $-1 -55.291689407650381 33.945600181300122 13.144160945837084 #
edge $-1 $664 -75.336496525723334 $598 -70.719539046620241 $583 $665 forward 7 unknown #
vertex $-1 $524 $666 #
straight-curve $-1 -24.467139980253421 34.578900747799437 16.820751835902527 -1 0 0 I I #
coedge $-1 $528 $527 $535 $608 forward $392 $-1 #
edge $-1 $604 -75.859248634296705 $611 75.859248634296705 $547 $667 forward 7 unknown #
edge $-1 $609 -75.859248634296705 $603 75.859248634296705 $543 $668 forward 7 unknown #
vertex $-1 $530 $669 #
vertex $-1 $548 $670 #
straight-curve $-1 75.859248634296705 0 -16.820751835902527 0 -1 0 I I #
straight-curve $-1 -87.950261931418311 0 9.8362923086671188 0 1 0 I I #
point $-1 -87.950261931418311 -37.66824826286166 9.8362923086671188 #
edge $-1 $611 -37.66824826286166 $609 37.66824826286166 $535 $671 forward 7 unknown #
vertex $-1 $602 $672 #
straight-curve $-1 -75.859248634296705 37.66824826286166 0 0 0 -1 I I #
vertex $-1 $608 $673 #
straight-curve $-1 -75.859248634296705 -37.66824826286166 0 0 0 -1 I I #
straight-curve $-1 75.859248634296705 37.66824826286166 0 0 0 -1 I I #
straight-curve $-1 75.859248634296705 -37.66824826286166 0 0 0 -1 I I #
face $-1 $502 $626 $18 $-1 $674 reversed single #
loop $-1 $-1 $675 $551 #
plane-surface $-1 0 -37.66824826286166 0 0 1 0 0 0 1 forward_v I I I I #
coedge $-1 $676 $677 $678 $679 forward $552 $-1 #
coedge $-1 $574 $554 $620 $680 reversed $488 $-1 #
coedge $-1 $556 $555 $619 $680 forward $417 $-1 #
coedge $-1 $675 $640 $555 $622 reversed $616 $-1 #
edge $-1 $627 -6.0455066485608029 $681 6.0455066485608029 $621 $682 forward 7 unknown #
edge $-1 $636 -6.0455066485608029 $628 6.0455066485608029 $568 $683 forward 7 unknown #
coedge $-1 $684 $557 $635 $685 forward $626 $-1 #
coedge $-1 $557 $684 $675 $686 reversed $626 $-1 #
loop $-1 $-1 $557 $615 #
vertex $-1 $686 $687 #
vertex $-1 $685 $688 #
straight-curve $-1 -75.859248634296705 0 9.8362923086671188 0 1 0 I I #
coedge $-1 $689 $690 $559 $631 reversed $638 $-1 #
edge $-1 $642 -37.66824826286166 $633 37.66824826286166 $630 $691 forward 7 unknown #
coedge $-1 $692 $560 $690 $693 forward $430 $-1 #
vertex $-1 $631 $694 #
point $-1 -34.100324583838578 37.66824826286166 13.389683737623976 #
coedge $-1 $568 $692 $624 $685 reversed $430 $-1 #
vertex $-1 $623 $695 #
straight-curve $-1 -87.950261931418311 37.66824826286166 13.328522072284823 0 0 -1 I I #
loop $-1 $-1 $689 $570 #
plane-surface $-1 75.859248634296705 0 0 -1 0 0 0 0 1 forward_v I I I I #
coedge $-1 $621 $572 $574 $644 forward $616 $-1 #
coedge $-1 $572 $696 $689 $697 reversed $616 $-1 #
vertex $-1 $631 $698 #
straight-curve $-1 0 -37.66824826286166 16.820751835902527 1 0 0 I I #
edge $-1 $575 -3.4922297636177042 $681 3.4922297636177042 $574 $699 forward 7 unknown #
point $-1 -87.950261931418311 -37.66824826286166 16.820751835902527 #
face $-1 $700 $701 $19 $-1 $702 reversed single #
loop $-1 $-1 $703 $578 #
plane-surface $-1 -87.950261931418311 0 13.328522072284823 1 0 0 0 0 -1 forward_v I I I I #
coedge $-1 $704 $705 $706 $707 reversed $579 $-1 #
coedge $-1 $581 $708 $709 $710 forward $509 $-1 #
coedge $-1 $709 $588 $582 $652 forward $590 $-1 #
edge $-1 $664 -72.057866563371249 $653 -68.626798465092705 $651 $711 forward 7 unknown #
vertex $-1 $652 $712 #
straight-curve $-1 -34.100324583838578 50.003555392654732 16.820751835902527 0 -1 0 I I #
edge $-1 $586 -39.301095356921685 $664 -9.6331846035851569 $588 $713 forward 7 unknown #
point $-1 -63.768235337175106 37.66824826286166 13.389683737623976 #
coedge $-1 $589 $714 $703 $715 reversed $590 $-1 #
face $-1 $716 $590 $19 $-1 $717 reversed single #
coedge $-1 $708 $592 $718 $719 forward $509 $-1 #
coedge $-1 $703 $720 $592 $661 reversed $647 $-1 #
edge $-1 $662 -37.66824826286166 $721 37.66824826286166 $660 $722 forward 7 unknown #
vertex $-1 $593 $723 #
straight-curve $-1 0 37.66824826286166 16.820751835902527 -1 0 0 I I #
vertex $-1 $655 $724 #
straight-curve $-1 -34.100324583838578 -12.741706645462685 69.375611924187353 0 -0.66913059716165679 0.74314483375859142 I I #
point $-1 -34.100324583838578 34.57890074779943 16.820751835902527 #
straight-curve $-1 0 -37.66824826286166 -16.820751835902527 -1 0 0 I I #
straight-curve $-1 0 37.66824826286166 -16.820751835902527 1 0 0 I I #
point $-1 75.859248634296705 37.66824826286166 -16.820751835902527 #
point $-1 75.859248634296705 -37.66824826286166 -16.820751835902527 #
straight-curve $-1 -75.859248634296705 0 -16.820751835902527 0 1 0 I I #
point $-1 -75.859248634296705 37.66824826286166 -16.820751835902527 #
point $-1 -75.859248634296705 -37.66824826286166 -16.820751835902527 #
plane-surface $-1 -75.859248634296705 0 0 1 0 0 0 0 -1 forward_v I I I I #
coedge $-1 $696 $621 $625 $686 forward $616 $-1 #
coedge $-1 $725 $618 $696 $726 forward $552 $-1 #
coedge $-1 $618 $725 $692 $727 forward $552 $-1 #
coedge $-1 $690 $689 $618 $679 reversed $638 $-1 #
edge $-1 $728 -37.66824826286166 $729 37.66824826286166 $678 $730 forward 7 unknown #
edge $-1 $681 -37.66824826286166 $636 37.66824826286166 $619 $731 forward 7 unknown #
vertex $-1 $680 $732 #
straight-curve $-1 -81.904755282857508 -37.66824826286166 9.8362923086671188 -1 0 0 I I #
straight-curve $-1 -81.904755282857508 37.66824826286166 9.8362923086671188 1 0 0 I I #
coedge $-1 $625 $624 $725 $733 reversed $626 $-1 #
edge $-1 $628 -9.8362923086671188 $734 16.820751835902527 $635 $735 forward 7 unknown #
edge $-1 $627 -9.8362923086671188 $736 16.820751835902527 $625 $737 forward 7 unknown #
point $-1 -75.859248634296705 -37.66824826286166 9.8362923086671188 #
point $-1 -75.859248634296705 37.66824826286166 9.8362923086671188 #
coedge $-1 $678 $630 $641 $697 forward $638 $-1 #
coedge $-1 $630 $678 $632 $693 reversed $638 $-1 #
straight-curve $-1 75.859248634296705 0 16.820751835902527 0 1 0 I I #
coedge $-1 $635 $632 $677 $727 reversed $430 $-1 #
edge $-1 $633 -16.820751835902527 $728 16.820751835902527 $690 $738 forward 7 unknown #
point $-1 75.859248634296705 37.66824826286166 16.820751835902527 #
point $-1 -87.950261931418311 37.66824826286166 9.8362923086671188 #
coedge $-1 $641 $675 $676 $726 reversed $616 $-1 #
edge $-1 $642 -16.820751835902527 $729 16.820751835902527 $689 $739 forward 7 unknown #
point $-1 75.859248634296705 -37.66824826286166 16.820751835902527 #
straight-curve $-1 -87.950261931418311 -37.66824826286166 13.328522072284823 0 0 -1 I I #
face $-1 $740 $741 $19 $-1 $742 reversed single #
loop $-1 $-1 $743 $646 #
plane-surface $-1 0 0 -16.820751835902527 0 0 1 1 0 0 forward_v I I I I #
coedge $-1 $744 $660 $657 $715 forward $647 $-1 #
coedge $-1 $745 $649 $746 $747 forward $579 $-1 #
coedge $-1 $649 $745 $714 $748 forward $579 $-1 #
coedge $-1 $749 $750 $649 $707 forward $751 $-1 #
edge $-1 $752 -37.66824826286166 $753 37.66824826286166 $706 $754 forward 7 unknown #
coedge $-1 $650 $659 $755 $756 forward $509 $-1 #
coedge $-1 $757 $651 $650 $710 reversed $590 $-1 #
edge $-1 $758 -75.859248634296705 $653 34.100324583838578 $709 $663 forward 7 unknown #
straight-curve $-1 -34.100324583838578 37.66824826286166 85.447550300995232 0 0 1 I I #
point $-1 -34.100324583838578 37.66824826286166 16.820751835902527 #
straight-curve $-1 -24.467139980253421 37.668248262861667 13.389683737623976 1 0 0 I I #
coedge $-1 $657 $759 $705 $748 reversed $590 $-1 #
edge $-1 $662 -3.4922297636177042 $760 3.4922297636177042 $657 $761 forward 7 unknown #
face $-1 $-1 $762 $19 $-1 $763 reversed single #
plane-surface $-1 0 37.66824826286166 0 0 -1 0 0 0 -1 forward_v I I I I #
coedge $-1 $764 $765 $659 $719 reversed $741 $-1 #
edge $-1 $721 -87.950261931418311 $766 75.859248634296705 $718 $767 forward 7 unknown #
coedge $-1 $660 $744 $764 $768 reversed $647 $-1 #
vertex $-1 $661 $769 #
straight-curve $-1 -87.950261931418311 0 16.820751835902527 0 -1 0 I I #
point $-1 -87.950261931418311 37.66824826286166 16.820751835902527 #
point $-1 -34.100324583838578 37.66824826286166 13.389683737623976 #
coedge $-1 $677 $676 $684 $733 forward $552 $-1 #
edge $-1 $729 -75.859248634296705 $736 75.859248634296705 $696 $770 forward 7 unknown #
edge $-1 $734 -75.859248634296705 $728 75.859248634296705 $692 $771 forward 7 unknown #
vertex $-1 $679 $772 #
vertex $-1 $697 $773 #
straight-curve $-1 75.859248634296705 0 -16.820751835902527 0 -1 0 I I #
straight-curve $-1 -87.950261931418311 0 9.8362923086671188 0 1 0 I I #
point $-1 -87.950261931418311 -37.66824826286166 9.8362923086671188 #
edge $-1 $736 -37.66824826286166 $734 37.66824826286166 $684 $774 forward 7 unknown #
vertex $-1 $727 $775 #
straight-curve $-1 -75.859248634296705 37.66824826286166 0 0 0 -1 I I #
vertex $-1 $733 $776 #
straight-curve $-1 -75.859248634296705 -37.66824826286166 0 0 0 -1 I I #
straight-curve $-1 75.859248634296705 37.66824826286166 0 0 0 -1 I I #
straight-curve $-1 75.859248634296705 -37.66824826286166 0 0 0 -1 I I #
face $-1 $658 $751 $19 $-1 $777 reversed single #
loop $-1 $-1 $778 $700 #
plane-surface $-1 0 -37.66824826286166 0 0 1 0 0 0 1 forward_v I I I I #
coedge $-1 $779 $780 $781 $782 forward $701 $-1 #
coedge $-1 $720 $703 $745 $783 reversed $647 $-1 #
coedge $-1 $705 $704 $744 $783 forward $579 $-1 #
coedge $-1 $778 $764 $704 $747 reversed $741 $-1 #
edge $-1 $752 -6.0455066485608029 $784 6.0455066485608029 $746 $785 forward 7 unknown #
edge $-1 $760 -6.0455066485608029 $753 6.0455066485608029 $714 $786 forward 7 unknown #
coedge $-1 $787 $706 $759 $788 forward $751 $-1 #
coedge $-1 $706 $787 $778 $789 reversed $751 $-1 #
loop $-1 $-1 $706 $740 #
vertex $-1 $789 $790 #
vertex $-1 $788 $791 #
straight-curve $-1 -75.859248634296705 0 9.8362923086671188 0 1 0 I I #
coedge $-1 $792 $793 $708 $756 reversed $762 $-1 #
edge $-1 $766 -37.66824826286166 $758 37.66824826286166 $755 $794 forward 7 unknown #
coedge $-1 $795 $709 $793 $796 forward $590 $-1 #
vertex $-1 $756 $797 #
coedge $-1 $714 $795 $749 $788 reversed $590 $-1 #
vertex $-1 $748 $798 #
straight-curve $-1 -87.950261931418311 37.66824826286166 13.328522072284823 0 0 -1 I I #
loop $-1 $-1 $792 $716 #
plane-surface $-1 75.859248634296705 0 0 -1 0 0 0 0 1 forward_v I I I I #
coedge $-1 $746 $718 $720 $768 forward $741 $-1 #
coedge $-1 $718 $799 $792 $800 reversed $741 $-1 #
vertex $-1 $756 $801 #
straight-curve $-1 0 -37.66824826286166 16.820751835902527 1 0 0 I I #
edge $-1 $721 -3.4922297636177042 $784 3.4922297636177042 $720 $802 forward 7 unknown #
point $-1 -87.950261931418311 -37.66824826286166 16.820751835902527 #
straight-curve $-1 0 -37.66824826286166 -16.820751835902527 -1 0 0 I I #
straight-curve $-1 0 37.66824826286166 -16.820751835902527 1 0 0 I I #
point $-1 75.859248634296705 37.66824826286166 -16.820751835902527 #
point $-1 75.859248634296705 -37.66824826286166 -16.820751835902527 #
straight-curve $-1 -75.859248634296705 0 -16.820751835902527 0 1 0 I I #
point $-1 -75.859248634296705 37.66824826286166 -16.820751835902527 #
point $-1 -75.859248634296705 -37.66824826286166 -16.820751835902527 #
plane-surface $-1 -75.859248634296705 0 0 1 0 0 0 0 -1 forward_v I I I I #
coedge $-1 $799 $746 $750 $789 forward $741 $-1 #
coedge $-1 $803 $743 $799 $804 forward $701 $-1 #
coedge $-1 $743 $803 $795 $805 forward $701 $-1 #
coedge $-1 $793 $792 $743 $782 reversed $762 $-1 #
edge $-1 $806 -37.66824826286166 $807 37.66824826286166 $781 $808 forward 7 unknown #
edge $-1 $784 -37.66824826286166 $760 37.66824826286166 $744 $809 forward 7 unknown #
vertex $-1 $783 $810 #
straight-curve $-1 -81.904755282857508 -37.66824826286166 9.8362923086671188 -1 0 0 I I #
straight-curve $-1 -81.904755282857508 37.66824826286166 9.8362923086671188 1 0 0 I I #
coedge $-1 $750 $749 $803 $811 reversed $751 $-1 #
edge $-1 $753 -9.8362923086671188 $812 16.820751835902527 $759 $813 forward 7 unknown #
edge $-1 $752 -9.8362923086671188 $814 16.820751835902527 $750 $815 forward 7 unknown #
point $-1 -75.859248634296705 -37.66824826286166 9.8362923086671188 #
point $-1 -75.859248634296705 37.66824826286166 9.8362923086671188 #
coedge $-1 $781 $755 $765 $800 forward $762 $-1 #
coedge $-1 $755 $781 $757 $796 reversed $762 $-1 #
straight-curve $-1 75.859248634296705 0 16.820751835902527 0 1 0 I I #
coedge $-1 $759 $757 $780 $805 reversed $590 $-1 #
edge $-1 $758 -16.820751835902527 $806 16.820751835902527 $793 $816 forward 7 unknown #
point $-1 75.859248634296705 37.66824826286166 16.820751835902527 #
point $-1 -87.950261931418311 37.66824826286166 9.8362923086671188 #
coedge $-1 $765 $778 $779 $804 reversed $741 $-1 #
edge $-1 $766 -16.820751835902527 $807 16.820751835902527 $792 $817 forward 7 unknown #
point $-1 75.859248634296705 -37.66824826286166 16.820751835902527 #
straight-curve $-1 -87.950261931418311 -37.66824826286166 13.328522072284823 0 0 -1 I I #
coedge $-1 $780 $779 $787 $811 forward $701 $-1 #
edge $-1 $807 -75.859248634296705 $814 75.859248634296705 $799 $818 forward 7 unknown #
edge $-1 $812 -75.859248634296705 $806 75.859248634296705 $795 $819 forward 7 unknown #
vertex $-1 $782 $820 #
vertex $-1 $800 $821 #
straight-curve $-1 75.859248634296705 0 -16.820751835902527 0 -1 0 I I #
straight-curve $-1 -87.950261931418311 0 9.8362923086671188 0 1 0 I I #
point $-1 -87.950261931418311 -37.66824826286166 9.8362923086671188 #
edge $-1 $814 -37.66824826286166 $812 37.66824826286166 $787 $822 forward 7 unknown #
vertex $-1 $805 $823 #
straight-curve $-1 -75.859248634296705 37.66824826286166 0 0 0 -1 I I #
vertex $-1 $811 $824 #
straight-curve $-1 -75.859248634296705 -37.66824826286166 0 0 0 -1 I I #
straight-curve $-1 75.859248634296705 37.66824826286166 0 0 0 -1 I I #
straight-curve $-1 75.859248634296705 -37.66824826286166 0 0 0 -1 I I #
straight-curve $-1 0 -37.66824826286166 -16.820751835902527 -1 0 0 I I #
straight-curve $-1 0 37.66824826286166 -16.820751835902527 1 0 0 I I #
point $-1 75.859248634296705 37.66824826286166 -16.820751835902527 #
point $-1 75.859248634296705 -37.66824826286166 -16.820751835902527 #
straight-curve $-1 -75.859248634296705 0 -16.820751835902527 0 1 0 I I #
point $-1 -75.859248634296705 37.66824826286166 -16.820751835902527 #
point $-1 -75.859248634296705 -37.66824826286166 -16.820751835902527 #
End-of-ACIS-data 