500 0 9 0           
7 Unknown 11 ACIS 5.0 NT 24 Thu Mar 25 16:19:36 1999 
-1 9.9999999999999995e-007 1e-010 
body $-1 $9 $-1 $10 #
body $-1 $11 $-1 $12 #
body $-1 $13 $-1 $14 #
body $-1 $15 $-1 $16 #
body $-1 $17 $-1 $18 #
body $-1 $19 $-1 $20 #
body $-1 $21 $-1 $22 #
body $-1 $23 $-1 $24 #
body $-1 $25 $-1 $26 #
lump $-1 $-1 $27 $0 #
transform $-1 1 0 0 0 1 0 0 0 1 63.505355998413037 44.193851489627143 19.340660145149212 1 rotate no_reflect no_shear #
lump $-1 $-1 $28 $1 #
transform $-1 1 0 0 0 1 0 0 0 1 63.505355998413037 44.193851489627143 19.340660145149212 1 rotate no_reflect no_shear #
lump $-1 $-1 $29 $2 #
transform $-1 1 0 0 0 1 0 0 0 1 63.505355998413037 44.193851489627143 19.340660145149212 1 rotate no_reflect no_shear #
lump $-1 $-1 $30 $3 #
transform $-1 1 0 0 0 1 0 0 0 1 63.505355998413037 44.193851489627143 19.340660145149212 1 rotate no_reflect no_shear #
lump $-1 $-1 $31 $4 #
transform $-1 1 0 0 0 1 0 0 0 1 63.505355998413037 44.193851489627143 19.340660145149212 1 rotate no_reflect no_shear #
lump $-1 $-1 $32 $5 #
transform $-1 1 0 0 0 1 0 0 0 1 63.505355998413037 44.193851489627143 19.340660145149212 1 rotate no_reflect no_shear #
lump $-1 $-1 $33 $6 #
transform $-1 1 0 0 0 1 0 0 0 1 63.505355998413037 44.193851489627143 19.340660145149212 1 rotate no_reflect no_shear #
lump $-1 $-1 $34 $7 #
transform $-1 1 0 0 0 1 0 0 0 1 63.505355998413037 44.193851489627143 19.340660145149212 1 rotate no_reflect no_shear #
lump $-1 $-1 $35 $8 #
transform $-1 1 0 0 0 1 0 0 0 1 63.505355998413037 44.193851489627143 19.340660145149212 1 rotate no_reflect no_shear #
shell $-1 $-1 $-1 $36 $-1 $9 #
shell $-1 $-1 $-1 $37 $-1 $11 #
shell $-1 $-1 $-1 $38 $-1 $13 #
shell $-1 $-1 $-1 $39 $-1 $15 #
shell $-1 $-1 $-1 $40 $-1 $17 #
shell $-1 $-1 $-1 $41 $-1 $19 #
shell $-1 $-1 $-1 $42 $-1 $21 #
shell $-1 $-1 $-1 $43 $-1 $23 #
shell $-1 $-1 $-1 $44 $-1 $25 #
face $-1 $45 $46 $27 $-1 $47 reversed single #
face $-1 $48 $49 $28 $-1 $50 forward single #
face $-1 $51 $52 $29 $-1 $53 reversed single #
face $-1 $54 $55 $30 $-1 $56 forward single #
face $-1 $57 $58 $31 $-1 $59 forward single #
face $-1 $60 $61 $32 $-1 $62 reversed single #
face $-1 $63 $64 $33 $-1 $65 forward single #
face $-1 $66 $67 $34 $-1 $68 forward single #
face $-1 $69 $70 $35 $-1 $71 forward single #
face $-1 $72 $73 $27 $-1 $74 forward single #
loop $-1 $-1 $75 $36 #
plane-surface $-1 -63.505355998413037 0 0 1 0 0 0 0 -1 forward_v I I I I #
face $-1 $76 $77 $28 $-1 $78 reversed single #
loop $-1 $-1 $79 $37 #
plane-surface $-1 -63.505355998413037 0 0 1 0 0 0 0 -1 forward_v I I I I #
face $-1 $80 $81 $29 $-1 $82 reversed single #
loop $-1 $-1 $83 $38 #
plane-surface $-1 57.945323519941795 -149.49050487745237 83.184106136374069 -1 0 0 0 -0.82903758062907751 0.55919289150049634 forward_v I I I I #
face $-1 $84 $85 $30 $-1 $86 forward single #
loop $-1 $87 $88 $39 #
cone-surface $-1 39.578639825251472 -39.184111256412578 14.00484908270718 0 0.82903758062907751 -0.55919289150049634 2 0 0 1 I I 0 1 2 forward I I I I #
face $-1 $89 $90 $31 $-1 $91 forward single #
loop $-1 $92 $93 $40 #
cone-surface $-1 50.598650042065671 -39.184111256412578 14.00484908270718 0 0.82903758062907751 -0.55919289150049634 2 0 0 1 I I 0 1 2 forward I I I I #
face $-1 $94 $95 $32 $-1 $96 reversed single #
loop $-1 $-1 $97 $41 #
plane-surface $-1 36.143562887130699 82.062503928783798 161.0870914081685 1 0 0 0 -0.75470958851134928 -0.65605901945558964 forward_v I I I I #
face $-1 $98 $99 $33 $-1 $100 forward single #
loop $-1 $101 $102 $42 #
cone-surface $-1 39.075615513711867 39.191380642257137 13.979636427187467 0 -0.75470958851134928 -0.65605901945558964 1 0 0 1 I I 0 1 1 forward I I I I #
face $-1 $103 $104 $34 $-1 $105 forward single #
loop $-1 $106 $107 $43 #
cone-surface $-1 43.473694453583605 39.191380642257137 13.979636427187467 0 -0.75470958851134928 -0.65605901945558964 1 0 0 1 I I 0 1 1 forward I I I I #
face $-1 $108 $109 $35 $-1 $110 forward single #
loop $-1 $111 $112 $44 #
cone-surface $-1 47.871773393455342 39.191380642257137 13.979636427187467 0 -0.75470958851134928 -0.65605901945558964 1 0 0 1 I I 0 1 1 forward I I I I #
face $-1 $113 $114 $27 $-1 $115 reversed single #
loop $-1 $-1 $116 $45 #
plane-surface $-1 0 0 19.340660145149212 0 0 1 1 0 0 forward_v I I I I #
coedge $-1 $117 $118 $119 $120 reversed $46 $-1 #
face $-1 $121 $122 $28 $-1 $123 reversed single #
loop $-1 $-1 $124 $48 #
plane-surface $-1 0 0 -19.340660145149212 0 0 1 1 0 0 forward_v I I I I #
coedge $-1 $125 $126 $127 $128 forward $49 $-1 #
face $-1 $129 $130 $29 $-1 $131 reversed single #
loop $-1 $-1 $132 $51 #
plane-surface $-1 45.088644933658571 -44.193851489627122 12.160618843332117 0 -0.82903758062907751 0.55919289150049634 1 0 0 forward_v I I I I #
coedge $-1 $133 $134 $135 $136 reversed $52 $-1 #
face $-1 $-1 $137 $30 $-1 $138 forward single #
loop $-1 $139 $140 $54 #
cone-surface $-1 39.578639825251472 -35.766832871828505 11.699865779673196 0 0.82903758062907751 -0.55919289150049634 1 0 0 1 I I -0.70710678118654746 0.70710678118654746 1 forward I I I I #
loop $-1 $-1 $141 $39 #
coedge $-1 $88 $88 $142 $143 reversed $55 $-1 #
face $-1 $-1 $144 $31 $-1 $145 forward single #
loop $-1 $146 $147 $57 #
cone-surface $-1 50.598650042065671 -35.766832871828505 11.699865779673196 0 0.82903758062907751 -0.55919289150049634 1 0 0 1 I I -0.70710678118654746 0.70710678118654746 1 forward I I I I #
loop $-1 $-1 $148 $40 #
coedge $-1 $93 $93 $149 $150 reversed $58 $-1 #
face $-1 $151 $152 $32 $-1 $153 reversed single #
loop $-1 $-1 $154 $60 #
plane-surface $-1 43.473694453583605 -13.793698258874301 77.760568235174489 0 0.75470958851134928 0.65605901945558964 1 0 0 forward_v I I I I #
coedge $-1 $155 $156 $157 $158 reversed $61 $-1 #
face $-1 $-1 $159 $33 $-1 $160 forward single #
loop $-1 $161 $162 $63 #
cone-surface $-1 39.075615513711867 37.413504859231629 12.434152626953473 0 -0.75470958851134928 -0.65605901945558964 0.5 0 0 1 I I -0.70710678118654746 0.70710678118654746 0.5 forward I I I I #
loop $-1 $-1 $163 $42 #
coedge $-1 $102 $102 $164 $165 reversed $64 $-1 #
face $-1 $-1 $166 $34 $-1 $167 forward single #
loop $-1 $168 $169 $66 #
cone-surface $-1 43.473694453583605 37.413504859231629 12.434152626953473 0 -0.75470958851134928 -0.65605901945558964 0.5 0 0 1 I I -0.70710678118654746 0.70710678118654746 0.5 forward I I I I #
loop $-1 $-1 $170 $43 #
coedge $-1 $107 $107 $171 $172 reversed $67 $-1 #
face $-1 $-1 $173 $35 $-1 $174 forward single #
loop $-1 $175 $176 $69 #
cone-surface $-1 47.871773393455342 37.413504859231629 12.434152626953473 0 -0.75470958851134928 -0.65605901945558964 0.5 0 0 1 I I -0.70710678118654746 0.70710678118654746 0.5 forward I I I I #
loop $-1 $-1 $177 $44 #
coedge $-1 $112 $112 $178 $179 reversed $70 $-1 #
face $-1 $180 $181 $27 $-1 $182 reversed single #
loop $-1 $-1 $183 $72 #
plane-surface $-1 0 0 -19.340660145149212 0 0 1 1 0 0 forward_v I I I I #
coedge $-1 $184 $185 $186 $187 forward $73 $-1 #
coedge $-1 $188 $75 $189 $190 reversed $46 $-1 #
coedge $-1 $75 $188 $191 $192 forward $46 $-1 #
coedge $-1 $193 $194 $75 $120 forward $114 $-1 #
edge $-1 $195 -44.193851489627143 $196 44.193851489627143 $75 $197 forward 7 unknown #
face $-1 $198 $199 $28 $-1 $200 reversed single #
loop $-1 $-1 $201 $76 #
plane-surface $-1 -73.192248433232365 -13.271522949756813 0 0 1 0 0 0 1 forward_v I I I I #
coedge $-1 $202 $203 $126 $204 forward $77 $-1 #
coedge $-1 $205 $79 $206 $207 reversed $49 $-1 #
coedge $-1 $79 $205 $124 $204 reversed $49 $-1 #
coedge $-1 $208 $209 $79 $128 reversed $210 $-1 #
edge $-1 $211 -19.340660145149212 $212 19.340660145149212 $127 $213 forward 7 unknown #
face $-1 $214 $215 $29 $-1 $216 forward single #
loop $-1 $-1 $217 $80 #
plane-surface $-1 32.231966347375348 -149.49050487745237 83.184106136374069 1 0 0 0 0.82903758062907751 -0.55919289150049634 forward_v I I I I #
coedge $-1 $218 $219 $220 $221 reversed $81 $-1 #
coedge $-1 $134 $83 $222 $223 reversed $52 $-1 #
coedge $-1 $83 $133 $218 $224 reversed $52 $-1 #
coedge $-1 $220 $225 $83 $136 forward $215 $-1 #
edge $-1 $226 30.55140094909904 $227 35.3943998076182 $135 $228 forward 7 unknown #
loop $-1 $-1 $142 $84 #
plane-surface $-1 45.088644933658571 -44.193851489627122 12.160618843332117 0 -0.82903758062907751 0.55919289150049634 1 0 0 forward_v I I I I #
loop $-1 $-1 $229 $54 #
coedge $-1 $140 $140 $141 $230 reversed $85 $-1 #
coedge $-1 $141 $141 $140 $230 forward $87 $-1 #
coedge $-1 $142 $142 $88 $143 forward $137 $-1 #
edge $-1 $231 -2.9163802826788924e-016 $231 6.2831853071796004 $142 $232 forward 7 unknown #
loop $-1 $-1 $149 $89 #
plane-surface $-1 45.088644933658571 -44.193851489627122 12.160618843332117 0 -0.82903758062907751 0.55919289150049634 1 0 0 forward_v I I I I #
loop $-1 $-1 $233 $57 #
coedge $-1 $147 $147 $148 $234 reversed $90 $-1 #
coedge $-1 $148 $148 $147 $234 forward $92 $-1 #
coedge $-1 $149 $149 $93 $150 forward $144 $-1 #
edge $-1 $235 -2.9163802826788924e-016 $235 6.2831853071796004 $149 $236 forward 7 unknown #
face $-1 $237 $238 $32 $-1 $239 reversed single #
loop $-1 $-1 $240 $94 #
plane-surface $-1 50.80382602003651 82.062503928783798 161.0870914081685 -1 0 0 0 0.75470958851134928 0.65605901945558964 forward_v I I I I #
coedge $-1 $241 $242 $243 $244 reversed $95 $-1 #
coedge $-1 $156 $97 $245 $246 reversed $61 $-1 #
coedge $-1 $97 $155 $241 $247 reversed $61 $-1 #
coedge $-1 $243 $248 $97 $158 forward $249 $-1 #
edge $-1 $250 -3.1625995252352439 $251 4.041300191965064 $157 $252 forward 7 unknown #
loop $-1 $-1 $164 $98 #
plane-surface $-1 43.473694453583605 -13.793698258874301 77.760568235174489 0 0.75470958851134928 0.65605901945558964 1 0 0 forward_v I I I I #
loop $-1 $-1 $253 $63 #
coedge $-1 $162 $162 $163 $254 reversed $99 $-1 #
coedge $-1 $163 $163 $162 $254 forward $101 $-1 #
coedge $-1 $164 $164 $102 $165 forward $159 $-1 #
edge $-1 $255 4.0831759830495707e-015 $255 6.2831853071796049 $164 $256 forward 7 unknown #
loop $-1 $-1 $171 $103 #
plane-surface $-1 43.473694453583605 -13.793698258874301 77.760568235174489 0 0.75470958851134928 0.65605901945558964 1 0 0 forward_v I I I I #
loop $-1 $-1 $257 $66 #
coedge $-1 $169 $169 $170 $258 reversed $104 $-1 #
coedge $-1 $170 $170 $169 $258 forward $106 $-1 #
coedge $-1 $171 $171 $107 $172 forward $166 $-1 #
edge $-1 $259 4.0831759830495707e-015 $259 6.2831853071796049 $171 $260 forward 7 unknown #
loop $-1 $-1 $178 $108 #
plane-surface $-1 43.473694453583605 -13.793698258874301 77.760568235174489 0 0.75470958851134928 0.65605901945558964 1 0 0 forward_v I I I I #
loop $-1 $-1 $261 $69 #
coedge $-1 $176 $176 $177 $262 reversed $109 $-1 #
coedge $-1 $177 $177 $176 $262 forward $111 $-1 #
coedge $-1 $178 $178 $112 $179 forward $173 $-1 #
edge $-1 $263 4.0831759830495707e-015 $263 6.2831853071796049 $178 $264 forward 7 unknown #
face $-1 $265 $266 $27 $-1 $267 reversed single #
loop $-1 $-1 $189 $113 #
plane-surface $-1 0 -44.193851489627143 0 0 1 0 0 0 1 forward_v I I I I #
coedge $-1 $194 $193 $268 $269 forward $114 $-1 #
coedge $-1 $270 $116 $271 $272 forward $73 $-1 #
coedge $-1 $116 $270 $273 $274 forward $73 $-1 #
coedge $-1 $275 $276 $116 $187 reversed $277 $-1 #
edge $-1 $278 -44.193851489627143 $279 44.193851489627143 $186 $280 forward 7 unknown #
coedge $-1 $118 $117 $270 $281 reversed $46 $-1 #
coedge $-1 $282 $273 $117 $190 forward $181 $-1 #
edge $-1 $283 -19.340660145149212 $195 19.340660145149212 $117 $284 forward 7 unknown #
coedge $-1 $271 $285 $118 $192 reversed $266 $-1 #
edge $-1 $286 -19.340660145149212 $196 19.340660145149212 $191 $287 forward 7 unknown #
coedge $-1 $183 $119 $285 $288 forward $114 $-1 #
coedge $-1 $119 $183 $282 $289 forward $114 $-1 #
vertex $-1 $120 $290 #
vertex $-1 $288 $291 #
straight-curve $-1 -63.505355998413037 0 -19.340660145149212 0 1 0 I I #
face $-1 $292 $210 $28 $-1 $293 reversed single #
loop $-1 $-1 $294 $121 #
plane-surface $-1 -82.879140868051692 -10.44323103357555 0 1 0 0 0 0 -1 forward_v I I I I #
coedge $-1 $295 $296 $297 $298 forward $122 $-1 #
coedge $-1 $299 $124 $295 $300 forward $77 $-1 #
coedge $-1 $124 $299 $208 $301 forward $77 $-1 #
edge $-1 $211 7.6149391173942877 $302 13.271522949756813 $124 $303 forward 7 unknown #
coedge $-1 $126 $125 $304 $305 forward $49 $-1 #
coedge $-1 $306 $307 $125 $207 forward $308 $-1 #
edge $-1 $309 -13.271522949756813 $212 -7.6149391173942877 $206 $310 forward 7 unknown #
coedge $-1 $311 $127 $203 $301 reversed $210 $-1 #
coedge $-1 $127 $311 $306 $312 reversed $210 $-1 #
loop $-1 $-1 $127 $198 #
vertex $-1 $204 $313 #
vertex $-1 $312 $314 #
straight-curve $-1 -63.505355998413037 -7.6149391173942877 0 0 0 1 I I #
face $-1 $-1 $315 $29 $-1 $316 reversed single #
loop $-1 $-1 $135 $129 #
plane-surface $-1 0 0 19.340660145149212 0 0 1 1 0 0 forward_v I I I I #
coedge $-1 $317 $318 $319 $320 reversed $130 $-1 #
coedge $-1 $321 $132 $134 $224 forward $81 $-1 #
coedge $-1 $132 $321 $317 $322 forward $81 $-1 #
coedge $-1 $319 $135 $132 $221 forward $215 $-1 #
edge $-1 $227 -35.401001053112509 $323 -9.6876438805460623 $220 $324 forward 7 unknown #
coedge $-1 $325 $326 $133 $223 forward $315 $-1 #
edge $-1 $327 -29.43143422485495 $226 -22.251392923037823 $222 $328 forward 7 unknown #
edge $-1 $227 -8.6606946049042151 $327 3.8427911784796275e-014 $134 $329 forward 7 unknown #
coedge $-1 $135 $319 $325 $330 forward $215 $-1 #
vertex $-1 $136 $331 #
vertex $-1 $136 $332 #
straight-curve $-1 57.945323519941795 -74.745252438726183 19.340660145149212 0 1 0 I I #
coedge $-1 $229 $229 $-1 $333 reversed $139 $-1 #
edge $-1 $334 0 $334 6.2831853071796004 $140 $335 forward 7 unknown #
vertex $-1 $143 $336 #
ellipse-curve $-1 39.578639825251472 -41.77235206036756 15.750639494240657 0 -0.82903758062907751 0.55919289150049634 2 0 0 1 I I #
coedge $-1 $233 $233 $-1 $337 reversed $146 $-1 #
edge $-1 $338 0 $338 6.2831853071796004 $147 $339 forward 7 unknown #
vertex $-1 $150 $340 #
ellipse-curve $-1 50.598650042065671 -41.77235206036756 15.750639494240657 0 -0.82903758062907751 0.55919289150049634 2 0 0 1 I I #
face $-1 $-1 $249 $32 $-1 $341 forward single #
loop $-1 $-1 $342 $151 #
plane-surface $-1 0 44.193851489627143 0 0 -1 0 0 0 -1 forward_v I I I I #
coedge $-1 $343 $344 $345 $346 reversed $152 $-1 #
coedge $-1 $347 $154 $156 $247 forward $95 $-1 #
coedge $-1 $154 $347 $343 $348 forward $95 $-1 #
coedge $-1 $345 $157 $154 $244 forward $249 $-1 #
edge $-1 $251 14.406715660338897 $349 29.066978793244708 $243 $350 forward 7 unknown #
coedge $-1 $351 $352 $155 $246 forward $238 $-1 #
edge $-1 $353 -69.490024413846101 $250 -61.202885558935037 $245 $354 forward 7 unknown #
edge $-1 $251 77.407136439405093 $353 88.387702979254286 $156 $355 forward 7 unknown #
coedge $-1 $157 $345 $351 $356 forward $249 $-1 #
loop $-1 $-1 $345 $237 #
vertex $-1 $246 $357 #
vertex $-1 $158 $358 #
straight-curve $-1 36.143562887130699 41.031251964391899 19.340660145149215 0 -1 0 I I #
coedge $-1 $253 $253 $-1 $359 reversed $161 $-1 #
edge $-1 $360 0 $360 6.2831853071796004 $162 $361 forward 7 unknown #
vertex $-1 $165 $362 #
ellipse-curve $-1 39.075615513711867 40.591901631026985 15.197090717693682 0 0.75470958851134928 0.65605901945558964 1 0 0 1 I I #
coedge $-1 $257 $257 $-1 $363 reversed $168 $-1 #
edge $-1 $364 0 $364 6.2831853071796004 $169 $365 forward 7 unknown #
vertex $-1 $172 $366 #
ellipse-curve $-1 43.473694453583605 40.591901631026985 15.197090717693682 0 0.75470958851134928 0.65605901945558964 1 0 0 1 I I #
coedge $-1 $261 $261 $-1 $367 reversed $175 $-1 #
edge $-1 $368 0 $368 6.2831853071796004 $176 $369 forward 7 unknown #
vertex $-1 $179 $370 #
ellipse-curve $-1 47.871773393455342 40.591901631026985 15.197090717693682 0 0.75470958851134928 0.65605901945558964 1 0 0 1 I I #
face $-1 $-1 $277 $27 $-1 $371 reversed single #
loop $-1 $-1 $372 $180 #
plane-surface $-1 0 44.193851489627143 0 0 -1 0 0 0 -1 forward_v I I I I #
coedge $-1 $276 $275 $183 $269 reversed $277 $-1 #
edge $-1 $373 -44.193851489627143 $374 44.193851489627143 $268 $375 forward 7 unknown #
coedge $-1 $185 $184 $188 $281 forward $73 $-1 #
coedge $-1 $372 $191 $184 $272 reversed $266 $-1 #
edge $-1 $279 -63.505355998413037 $286 63.505355998413037 $271 $376 forward 7 unknown #
coedge $-1 $189 $377 $185 $274 reversed $181 $-1 #
edge $-1 $283 -63.505355998413037 $278 63.505355998413037 $273 $378 forward 7 unknown #
coedge $-1 $268 $186 $377 $379 forward $277 $-1 #
coedge $-1 $186 $268 $372 $380 reversed $277 $-1 #
loop $-1 $-1 $275 $265 #
vertex $-1 $187 $381 #
vertex $-1 $187 $382 #
straight-curve $-1 63.505355998413037 0 19.340660145149212 0 1 0 I I #
edge $-1 $286 -44.193851489627143 $283 44.193851489627143 $188 $383 forward 7 unknown #
coedge $-1 $377 $189 $194 $289 reversed $181 $-1 #
vertex $-1 $281 $384 #
straight-curve $-1 -63.505355998413037 -44.193851489627143 0 0 0 -1 I I #
coedge $-1 $191 $372 $193 $288 reversed $266 $-1 #
vertex $-1 $272 $385 #
straight-curve $-1 -63.505355998413037 44.193851489627143 0 0 0 -1 I I #
edge $-1 $196 -63.505355998413037 $373 63.505355998413037 $285 $386 forward 7 unknown #
edge $-1 $374 -63.505355998413037 $195 63.505355998413037 $282 $387 forward 7 unknown #
point $-1 -63.505355998413037 -44.193851489627143 -19.340660145149212 #
point $-1 -63.505355998413037 44.193851489627143 -19.340660145149212 #
face $-1 $-1 $308 $28 $-1 $388 forward single #
plane-surface $-1 -73.192248433232365 -7.6149391173942877 0 0 -1 0 0 0 -1 forward_v I I I I #
coedge $-1 $389 $390 $311 $391 forward $199 $-1 #
coedge $-1 $304 $201 $202 $300 reversed $122 $-1 #
coedge $-1 $201 $304 $307 $392 reversed $122 $-1 #
coedge $-1 $390 $389 $201 $298 reversed $199 $-1 #
edge $-1 $393 -19.340660145149212 $394 19.340660145149212 $297 $395 forward 7 unknown #
coedge $-1 $203 $202 $389 $396 forward $77 $-1 #
edge $-1 $302 -9.6868924348193275 $394 9.6868924348193275 $295 $397 forward 7 unknown #
edge $-1 $398 -9.6868924348193275 $211 9.6868924348193275 $208 $399 forward 7 unknown #
vertex $-1 $300 $400 #
straight-curve $-1 -63.505355998413037 0 -19.340660145149212 0 -1 0 I I #
coedge $-1 $296 $295 $205 $305 reversed $122 $-1 #
edge $-1 $309 -19.340660145149212 $302 19.340660145149212 $304 $401 forward 7 unknown #
coedge $-1 $402 $206 $209 $312 forward $308 $-1 #
coedge $-1 $206 $402 $296 $392 forward $308 $-1 #
loop $-1 $-1 $206 $292 #
vertex $-1 $207 $403 #
straight-curve $-1 -63.505355998413037 0 19.340660145149212 0 1 0 I I #
coedge $-1 $209 $208 $294 $391 reversed $210 $-1 #
edge $-1 $212 -9.6868924348193275 $404 9.6868924348193275 $209 $405 forward 7 unknown #
point $-1 -63.505355998413037 -7.6149391173942877 -19.340660145149212 #
point $-1 -63.505355998413037 -7.6149391173942877 19.340660145149212 #
loop $-1 $-1 $222 $214 #
plane-surface $-1 0 -44.193851489627143 0 0 1 0 0 0 1 forward_v I I I I #
coedge $-1 $318 $217 $219 $322 reversed $130 $-1 #
coedge $-1 $217 $317 $406 $407 reversed $130 $-1 #
coedge $-1 $225 $220 $217 $320 forward $215 $-1 #
edge $-1 $323 -35.3943998076182 $408 -30.55140094909904 $319 $409 forward 7 unknown #
coedge $-1 $219 $218 $326 $410 reversed $81 $-1 #
edge $-1 $411 -3.8427911784796275e-014 $323 8.6606946049042151 $317 $412 forward 7 unknown #
vertex $-1 $221 $413 #
straight-curve $-1 22.544322466829286 -39.350852631107983 19.340660145149212 -1 0 0 I I #
coedge $-1 $406 $222 $225 $330 reversed $315 $-1 #
coedge $-1 $222 $406 $321 $410 forward $315 $-1 #
vertex $-1 $223 $414 #
straight-curve $-1 57.945323519941795 -44.193851489627143 41.592053068187035 0 0 1 I I #
straight-curve $-1 57.945323519941795 -44.193851489627122 12.160618843332117 0 -0.55919289150049634 -0.82903758062907751 I I #
edge $-1 $408 32.231966347375348 $226 57.945323519941795 $325 $415 forward 7 unknown #
point $-1 57.945323519941795 -44.193851489627143 19.340660145149212 #
point $-1 57.945323519941795 -39.350852631107983 19.340660145149212 #
edge $-1 $416 1 $416 0 $229 $-1 forward 7 unknown #
vertex $-1 $230 $417 #
ellipse-curve $-1 39.578639825251472 -36.595870452457582 12.259058671173692 0 -0.82903758062907751 0.55919289150049634 2 0 0 1 I I #
point $-1 41.578639825251472 -41.772352060367574 15.750639494240666 #
edge $-1 $418 1 $418 0 $233 $-1 forward 7 unknown #
vertex $-1 $234 $419 #
ellipse-curve $-1 50.598650042065671 -36.595870452457582 12.259058671173692 0 -0.82903758062907751 0.55919289150049634 2 0 0 1 I I #
point $-1 52.598650042065671 -41.772352060367574 15.750639494240666 #
plane-surface $-1 0 0 19.340660145149212 0 0 1 1 0 0 forward_v I I I I #
coedge $-1 $352 $351 $344 $420 forward $238 $-1 #
coedge $-1 $344 $240 $242 $348 reversed $152 $-1 #
coedge $-1 $240 $343 $342 $420 reversed $152 $-1 #
coedge $-1 $248 $243 $240 $346 forward $249 $-1 #
edge $-1 $349 -4.041300191965064 $421 3.1625995252352439 $345 $422 forward 7 unknown #
coedge $-1 $242 $241 $352 $423 reversed $95 $-1 #
edge $-1 $424 -88.387702979254286 $349 -77.407136439405093 $343 $425 forward 7 unknown #
vertex $-1 $244 $426 #
straight-curve $-1 21.736847226791802 36.989951772426835 19.340660145149215 1 0 0 I I #
coedge $-1 $342 $245 $248 $356 reversed $238 $-1 #
coedge $-1 $245 $342 $347 $423 forward $238 $-1 #
vertex $-1 $246 $427 #
straight-curve $-1 36.143562887130699 44.193851489627143 80.543545704084252 0 0 1 I I #
straight-curve $-1 36.143562887130699 -13.793698258874301 77.760568235174489 0 0.65605901945558964 -0.75470958851134928 I I #
edge $-1 $421 -50.80382602003651 $250 -36.143562887130699 $351 $428 forward 7 unknown #
point $-1 36.143562887130699 44.193851489627143 19.340660145149212 #
point $-1 36.143562887130699 36.989951772426835 19.340660145149215 #
edge $-1 $429 1 $429 0 $253 $-1 forward 7 unknown #
vertex $-1 $254 $430 #
ellipse-curve $-1 39.075615513711867 37.790859653487303 12.762182136681268 0 0.75470958851134928 0.65605901945558964 1 0 0 1 I I #
point $-1 40.075615513711867 40.591901631026971 15.197090717693664 #
edge $-1 $431 1 $431 0 $257 $-1 forward 7 unknown #
vertex $-1 $258 $432 #
ellipse-curve $-1 43.473694453583605 37.790859653487303 12.762182136681268 0 0.75470958851134928 0.65605901945558964 1 0 0 1 I I #
point $-1 44.473694453583605 40.591901631026971 15.197090717693664 #
edge $-1 $433 1 $433 0 $261 $-1 forward 7 unknown #
vertex $-1 $262 $434 #
ellipse-curve $-1 47.871773393455342 37.790859653487303 12.762182136681268 0 0.75470958851134928 0.65605901945558964 1 0 0 1 I I #
point $-1 48.871773393455342 40.591901631026971 15.197090717693664 #
plane-surface $-1 63.505355998413037 0 0 -1 0 0 0 0 1 forward_v I I I I #
coedge $-1 $285 $271 $276 $380 forward $266 $-1 #
vertex $-1 $269 $435 #
vertex $-1 $379 $436 #
straight-curve $-1 63.505355998413037 0 -19.340660145149212 0 -1 0 I I #
straight-curve $-1 0 44.193851489627143 19.340660145149212 -1 0 0 I I #
coedge $-1 $273 $282 $275 $379 reversed $181 $-1 #
straight-curve $-1 0 -44.193851489627143 19.340660145149212 1 0 0 I I #
edge $-1 $278 -19.340660145149212 $374 19.340660145149212 $275 $437 forward 7 unknown #
edge $-1 $279 -19.340660145149212 $373 19.340660145149212 $276 $438 forward 7 unknown #
point $-1 63.505355998413037 -44.193851489627143 19.340660145149212 #
point $-1 63.505355998413037 44.193851489627143 19.340660145149212 #
straight-curve $-1 -63.505355998413037 0 19.340660145149212 0 -1 0 I I #
point $-1 -63.505355998413037 -44.193851489627143 19.340660145149212 #
point $-1 -63.505355998413037 44.193851489627143 19.340660145149212 #
straight-curve $-1 0 44.193851489627143 -19.340660145149212 1 0 0 I I #
straight-curve $-1 0 -44.193851489627143 -19.340660145149212 -1 0 0 I I #
plane-surface $-1 0 0 19.340660145149212 0 0 1 1 0 0 forward_v I I I I #
coedge $-1 $297 $294 $299 $396 reversed $199 $-1 #
coedge $-1 $294 $297 $402 $439 reversed $199 $-1 #
edge $-1 $404 -19.340660145149212 $398 19.340660145149212 $311 $440 forward 7 unknown #
edge $-1 $393 -9.6868924348193275 $309 9.6868924348193275 $296 $441 forward 7 unknown #
vertex $-1 $439 $442 #
vertex $-1 $396 $443 #
straight-curve $-1 -82.879140868051692 -13.271522949756813 0 0 0 -1 I I #
edge $-1 $394 -2.8282919161812625 $398 2.8282919161812625 $389 $444 forward 7 unknown #
straight-curve $-1 -73.192248433232365 -13.271522949756813 -19.340660145149212 -1 0 0 I I #
vertex $-1 $301 $445 #
straight-curve $-1 -73.192248433232365 -7.6149391173942877 -19.340660145149212 1 0 0 I I #
point $-1 -63.505355998413037 -13.271522949756813 -19.340660145149212 #
straight-curve $-1 -63.505355998413037 -13.271522949756813 0 0 0 -1 I I #
coedge $-1 $307 $306 $390 $439 forward $308 $-1 #
point $-1 -63.505355998413037 -13.271522949756813 19.340660145149212 #
vertex $-1 $312 $446 #
straight-curve $-1 -73.192248433232365 -7.6149391173942877 19.340660145149212 -1 0 0 I I #
coedge $-1 $326 $325 $318 $407 forward $315 $-1 #
edge $-1 $408 22.251392923037823 $411 29.43143422485495 $406 $447 forward 7 unknown #
vertex $-1 $330 $448 #
straight-curve $-1 32.231966347375348 -74.745252438726183 19.340660145149212 0 -1 0 I I #
edge $-1 $411 9.6876438805460623 $327 35.401001053112509 $326 $449 forward 7 unknown #
vertex $-1 $410 $450 #
straight-curve $-1 32.231966347375348 -44.193851489627122 12.160618843332117 0 0.55919289150049634 0.82903758062907751 I I #
point $-1 32.231966347375348 -39.350852631107983 19.340660145149212 #
point $-1 57.945323519941795 -44.193851489627143 12.160618843332085 #
straight-curve $-1 0 -44.193851489627143 19.340660145149212 1 0 0 I I #
vertex $-1 $333 $451 #
point $-1 41.578639825251472 -36.595870452457582 12.259058671173692 #
vertex $-1 $337 $452 #
point $-1 52.598650042065671 -36.595870452457582 12.259058671173692 #
edge $-1 $421 61.202885558935037 $424 69.490024413846101 $342 $453 forward 7 unknown #
vertex $-1 $356 $454 #
straight-curve $-1 50.80382602003651 41.031251964391899 19.340660145149215 0 1 0 I I #
edge $-1 $424 -29.066978793244708 $353 -14.406715660338897 $352 $455 forward 7 unknown #
vertex $-1 $423 $456 #
straight-curve $-1 50.80382602003651 -13.793698258874301 77.760568235174489 0 -0.65605901945558964 0.75470958851134928 I I #
point $-1 50.80382602003651 36.989951772426835 19.340660145149215 #
point $-1 36.143562887130699 44.19385148962715 11.053521290238152 #
straight-curve $-1 0 44.193851489627143 19.340660145149212 -1 0 0 I I #
vertex $-1 $359 $457 #
point $-1 40.075615513711867 37.790859653487303 12.762182136681268 #
vertex $-1 $363 $458 #
point $-1 44.473694453583605 37.790859653487303 12.762182136681268 #
vertex $-1 $367 $459 #
point $-1 48.871773393455342 37.790859653487303 12.762182136681268 #
point $-1 63.505355998413037 44.193851489627143 -19.340660145149212 #
point $-1 63.505355998413037 -44.193851489627143 -19.340660145149212 #
straight-curve $-1 63.505355998413037 -44.193851489627143 0 0 0 -1 I I #
straight-curve $-1 63.505355998413037 44.193851489627143 0 0 0 -1 I I #
edge $-1 $404 -2.8282919161812625 $393 2.8282919161812625 $390 $460 forward 7 unknown #
straight-curve $-1 -82.879140868051692 -7.6149391173942877 0 0 0 -1 I I #
straight-curve $-1 -73.192248433232365 -13.271522949756813 19.340660145149212 1 0 0 I I #
point $-1 -82.879140868051692 -13.271522949756813 19.340660145149212 #
point $-1 -82.879140868051692 -13.271522949756813 -19.340660145149212 #
straight-curve $-1 -82.879140868051692 -10.44323103357555 -19.340660145149212 0 1 0 I I #
point $-1 -82.879140868051692 -7.6149391173942877 -19.340660145149212 #
point $-1 -82.879140868051692 -7.6149391173942877 19.340660145149212 #
straight-curve $-1 32.231966347375348 -44.193851489627143 41.592053068187035 0 0 -1 I I #
point $-1 32.231966347375348 -44.193851489627143 19.340660145149212 #
straight-curve $-1 22.544322466829286 -44.193851489627143 12.160618843332092 1 0 0 I I #
point $-1 32.231966347375348 -44.193851489627143 12.160618843332085 #
point $-1 39.578639825251472 -34.937795291199429 11.1406728881727 #
point $-1 50.598650042065671 -34.937795291199429 11.1406728881727 #
straight-curve $-1 50.80382602003651 44.193851489627143 80.543545704084252 0 0 -1 I I #
point $-1 50.80382602003651 44.193851489627143 19.340660145149212 #
straight-curve $-1 21.736847226791802 44.19385148962715 11.053521290238145 -1 0 0 I I #
point $-1 50.80382602003651 44.19385148962715 11.053521290238152 #
point $-1 39.075615513711867 37.036150064975956 12.106123117225678 #
point $-1 43.473694453583605 37.036150064975956 12.106123117225678 #
point $-1 47.871773393455342 37.036150064975956 12.106123117225678 #
straight-curve $-1 -82.879140868051692 -10.44323103357555 19.340660145149212 0 -1 0 I I #
End-of-ACIS-data 