500 0 15 0           
7 Unknown 11 ACIS 5.0 NT 24 Fri Mar 26 00:53:39 1999 
-1 9.9999999999999995e-007 1e-010 
body $-1 $15 $-1 $16 #
body $-1 $17 $-1 $18 #
body $-1 $19 $-1 $20 #
body $-1 $21 $-1 $22 #
body $-1 $23 $-1 $24 #
body $-1 $25 $-1 $26 #
body $-1 $27 $-1 $28 #
body $-1 $29 $-1 $30 #
body $-1 $31 $-1 $32 #
body $-1 $33 $-1 $34 #
body $-1 $35 $-1 $36 #
body $-1 $37 $-1 $38 #
body $-1 $39 $-1 $40 #
body $-1 $41 $-1 $42 #
body $-1 $43 $-1 $44 #
lump $-1 $-1 $45 $0 #
transform $-1 1 0 0 0 1 0 0 0 1 44.526505325479903 27.334058878522928 12.145958759641765 1 rotate no_reflect no_shear #
lump $-1 $-1 $46 $1 #
transform $-1 1 0 0 0 1 0 0 0 1 44.526505325479903 27.334058878522928 12.145958759641765 1 rotate no_reflect no_shear #
lump $-1 $-1 $47 $2 #
transform $-1 1 0 0 0 1 0 0 0 1 44.526505325479903 27.334058878522928 12.145958759641765 1 rotate no_reflect no_shear #
lump $-1 $-1 $48 $3 #
transform $-1 1 0 0 0 1 0 0 0 1 44.526505325479903 27.334058878522928 12.145958759641765 1 rotate no_reflect no_shear #
lump $-1 $-1 $49 $4 #
transform $-1 1 0 0 0 1 0 0 0 1 44.526505325479903 27.334058878522928 12.145958759641765 1 rotate no_reflect no_shear #
lump $-1 $-1 $50 $5 #
transform $-1 1 0 0 0 1 0 0 0 1 44.526505325479903 27.334058878522928 12.145958759641765 1 rotate no_reflect no_shear #
lump $-1 $-1 $51 $6 #
transform $-1 1 0 0 0 1 0 0 0 1 44.526505325479903 27.334058878522928 12.145958759641765 1 rotate no_reflect no_shear #
lump $-1 $-1 $52 $7 #
transform $-1 1 0 0 0 1 0 0 0 1 44.526505325479903 27.334058878522928 12.145958759641765 1 rotate no_reflect no_shear #
lump $-1 $-1 $53 $8 #
transform $-1 1 0 0 0 1 0 0 0 1 44.526505325479903 27.334058878522928 12.145958759641765 1 rotate no_reflect no_shear #
lump $-1 $-1 $54 $9 #
transform $-1 1 0 0 0 1 0 0 0 1 44.526505325479903 27.334058878522928 12.145958759641765 1 rotate no_reflect no_shear #
lump $-1 $-1 $55 $10 #
transform $-1 1 0 0 0 1 0 0 0 1 44.526505325479903 27.334058878522928 12.145958759641765 1 rotate no_reflect no_shear #
lump $-1 $-1 $56 $11 #
transform $-1 1 0 0 0 1 0 0 0 1 44.526505325479903 27.334058878522928 12.145958759641765 1 rotate no_reflect no_shear #
lump $-1 $-1 $57 $12 #
transform $-1 1 0 0 0 1 0 0 0 1 44.526505325479903 27.334058878522928 12.145958759641765 1 rotate no_reflect no_shear #
lump $-1 $-1 $58 $13 #
transform $-1 1 0 0 0 1 0 0 0 1 44.526505325479903 27.334058878522928 12.145958759641765 1 rotate no_reflect no_shear #
lump $-1 $-1 $59 $14 #
transform $-1 1 0 0 0 1 0 0 0 1 44.526505325479903 27.334058878522928 12.145958759641765 1 rotate no_reflect no_shear #
shell $-1 $-1 $-1 $60 $-1 $15 #
shell $-1 $-1 $-1 $61 $-1 $17 #
shell $-1 $-1 $-1 $62 $-1 $19 #
shell $-1 $-1 $-1 $63 $-1 $21 #
shell $-1 $-1 $-1 $64 $-1 $23 #
shell $-1 $-1 $-1 $65 $-1 $25 #
shell $-1 $-1 $-1 $66 $-1 $27 #
shell $-1 $-1 $-1 $67 $-1 $29 #
shell $-1 $-1 $-1 $68 $-1 $31 #
shell $-1 $-1 $-1 $69 $-1 $33 #
shell $-1 $-1 $-1 $70 $-1 $35 #
shell $-1 $-1 $-1 $71 $-1 $37 #
shell $-1 $-1 $-1 $72 $-1 $39 #
shell $-1 $-1 $-1 $73 $-1 $41 #
shell $-1 $-1 $-1 $74 $-1 $43 #
face $-1 $75 $76 $45 $-1 $77 reversed single #
face $-1 $78 $79 $46 $-1 $80 forward single #
face $-1 $81 $82 $47 $-1 $83 forward single #
face $-1 $84 $85 $48 $-1 $86 reversed single #
face $-1 $87 $88 $49 $-1 $89 forward single #
face $-1 $90 $91 $50 $-1 $92 forward single #
face $-1 $93 $94 $51 $-1 $95 forward single #
face $-1 $96 $97 $52 $-1 $98 reversed single #
face $-1 $99 $100 $53 $-1 $101 forward single #
face $-1 $102 $103 $54 $-1 $104 forward single #
face $-1 $105 $106 $55 $-1 $107 forward single #
face $-1 $108 $109 $56 $-1 $110 reversed single #
face $-1 $111 $112 $57 $-1 $113 forward single #
face $-1 $114 $115 $58 $-1 $116 forward single #
face $-1 $117 $118 $59 $-1 $119 forward single #
face $-1 $120 $121 $45 $-1 $122 forward single #
loop $-1 $-1 $123 $60 #
plane-surface $-1 0 -27.334058878522928 0 0 1 0 0 0 1 forward_v I I I I #
face $-1 $124 $125 $46 $-1 $126 forward single #
loop $-1 $-1 $127 $61 #
plane-surface $-1 0 -27.334058878522928 0 0 1 0 0 0 1 forward_v I I I I #
face $-1 $128 $129 $47 $-1 $130 forward single #
loop $-1 $-1 $131 $62 #
plane-surface $-1 0 27.334058878522928 0 0 -1 0 0 0 -1 forward_v I I I I #
face $-1 $132 $133 $48 $-1 $134 reversed single #
loop $-1 $-1 $135 $63 #
plane-surface $-1 44.526506786704971 -8.6504488439245364 132.66316366002934 0 -1 0 -0.70710678939079041 0 -0.70710677298230451 forward_v I I I I #
face $-1 $136 $137 $49 $-1 $138 forward single #
loop $-1 $139 $140 $64 #
cone-surface $-1 41.42793993365995 -13.516933600523554 9.0473933138883957 -0.70710678939079041 0 -0.70710677298230451 0.35355338649115226 0 -0.35355339469539521 1 I I 0 1 0.5 forward I I I I #
face $-1 $141 $142 $50 $-1 $143 forward single #
loop $-1 $144 $145 $65 #
cone-surface $-1 41.42793993365995 -11.692001816798923 9.0473933138883957 -0.70710678939079041 0 -0.70710677298230451 0.35355338649115226 0 -0.35355339469539521 1 I I 0 1 0.5 forward I I I I #
face $-1 $146 $147 $51 $-1 $148 forward single #
loop $-1 $149 $150 $66 #
cone-surface $-1 41.42793993365995 -9.8670700330742918 9.0473933138883957 -0.70710678939079041 0 -0.70710677298230451 0.35355338649115226 0 -0.35355339469539521 1 I I 0 1 0.5 forward I I I I #
face $-1 $151 $152 $52 $-1 $153 reversed single #
loop $-1 $-1 $154 $67 #
plane-surface $-1 44.526506786704971 1.4992478480852487 132.66316366002934 0 -1 0 -0.70710678939079041 0 -0.70710677298230451 forward_v I I I I #
face $-1 $155 $156 $53 $-1 $157 forward single #
loop $-1 $158 $159 $68 #
cone-surface $-1 41.42793993365995 -3.367236908513771 9.0473933138883957 -0.70710678939079041 0 -0.70710677298230451 0.35355338649115226 0 -0.35355339469539521 1 I I 0 1 0.5 forward I I I I #
face $-1 $160 $161 $54 $-1 $162 forward single #
loop $-1 $163 $164 $69 #
cone-surface $-1 41.42793993365995 -1.5423051247891379 9.0473933138883957 -0.70710678939079041 0 -0.70710677298230451 0.35355338649115226 0 -0.35355339469539521 1 I I 0 1 0.5 forward I I I I #
face $-1 $165 $166 $55 $-1 $167 forward single #
loop $-1 $168 $169 $70 #
cone-surface $-1 41.42793993365995 0.2826266589354951 9.0473933138883957 -0.70710678939079041 0 -0.70710677298230451 0.35355338649115226 0 -0.35355339469539521 1 I I 0 1 0.5 forward I I I I #
face $-1 $170 $171 $56 $-1 $172 reversed single #
loop $-1 $-1 $173 $71 #
plane-surface $-1 44.526506786704971 11.648944540095036 132.66316366002934 0 -1 0 -0.70710678939079041 0 -0.70710677298230451 forward_v I I I I #
face $-1 $174 $175 $57 $-1 $176 forward single #
loop $-1 $177 $178 $72 #
cone-surface $-1 41.42793993365995 6.7824597834960123 9.0473933138883957 -0.70710678939079041 0 -0.70710677298230451 0.35355338649115226 0 -0.35355339469539521 1 I I 0 1 0.5 forward I I I I #
face $-1 $179 $180 $58 $-1 $181 forward single #
loop $-1 $182 $183 $73 #
cone-surface $-1 41.42793993365995 8.6073915672206489 9.0473933138883957 -0.70710678939079041 0 -0.70710677298230451 0.35355338649115226 0 -0.35355339469539521 1 I I 0 1 0.5 forward I I I I #
face $-1 $184 $185 $59 $-1 $186 forward single #
loop $-1 $187 $188 $74 #
cone-surface $-1 41.42793993365995 10.432323350945278 9.0473933138883957 -0.70710678939079041 0 -0.70710677298230451 0.35355338649115226 0 -0.35355339469539521 1 I I 0 1 0.5 forward I I I I #
face $-1 $189 $190 $45 $-1 $191 reversed single #
loop $-1 $-1 $192 $75 #
plane-surface $-1 0 0 12.145958759641765 0 0 1 1 0 0 forward_v I I I I #
coedge $-1 $193 $194 $195 $196 reversed $76 $-1 #
face $-1 $197 $198 $46 $-1 $199 reversed single #
loop $-1 $-1 $200 $78 #
plane-surface $-1 0 0 12.145958759641765 0 0 1 1 0 0 forward_v I I I I #
coedge $-1 $201 $202 $203 $204 forward $79 $-1 #
face $-1 $205 $206 $47 $-1 $207 reversed single #
loop $-1 $-1 $208 $81 #
plane-surface $-1 0 0 12.145958759641765 0 0 1 1 0 0 forward_v I I I I #
coedge $-1 $209 $210 $211 $212 forward $82 $-1 #
face $-1 $213 $214 $48 $-1 $215 reversed single #
loop $-1 $-1 $216 $84 #
plane-surface $-1 -18.443481660279083 -11.692001816798923 69.693176674270362 0.70710678939079041 0 0.70710677298230451 0.70710677298230451 0 -0.70710678939079041 forward_v I I I I #
coedge $-1 $217 $218 $219 $220 reversed $85 $-1 #
face $-1 $-1 $221 $49 $-1 $222 forward single #
loop $-1 $223 $224 $87 #
cone-surface $-1 40.863983047752043 -13.516933600523554 8.4834364410671697 -0.70710678939079041 0 -0.70710677298230451 0.17677669324557613 0 -0.1767766973476976 1 I I -0.70710678118654746 0.70710678118654746 0.25 forward I I I I #
loop $-1 $-1 $225 $64 #
coedge $-1 $140 $140 $226 $227 reversed $88 $-1 #
face $-1 $-1 $228 $50 $-1 $229 forward single #
loop $-1 $230 $231 $90 #
cone-surface $-1 40.863983047752043 -11.692001816798923 8.4834364410671697 -0.70710678939079041 0 -0.70710677298230451 0.17677669324557613 0 -0.1767766973476976 1 I I -0.70710678118654746 0.70710678118654746 0.25 forward I I I I #
loop $-1 $-1 $232 $65 #
coedge $-1 $145 $145 $233 $234 reversed $91 $-1 #
face $-1 $-1 $235 $51 $-1 $236 forward single #
loop $-1 $237 $238 $93 #
cone-surface $-1 40.863983047752043 -9.8670700330742918 8.4834364410671697 -0.70710678939079041 0 -0.70710677298230451 0.17677669324557613 0 -0.1767766973476976 1 I I -0.70710678118654746 0.70710678118654746 0.25 forward I I I I #
loop $-1 $-1 $239 $66 #
coedge $-1 $150 $150 $240 $241 reversed $94 $-1 #
face $-1 $242 $243 $52 $-1 $244 reversed single #
loop $-1 $-1 $245 $96 #
plane-surface $-1 -18.443481660279083 -1.5423051247891379 69.693176674270362 0.70710678939079041 0 0.70710677298230451 0.70710677298230451 0 -0.70710678939079041 forward_v I I I I #
coedge $-1 $246 $247 $248 $249 reversed $97 $-1 #
face $-1 $-1 $250 $53 $-1 $251 forward single #
loop $-1 $252 $253 $99 #
cone-surface $-1 40.863983047752043 -3.367236908513771 8.4834364410671697 -0.70710678939079041 0 -0.70710677298230451 0.17677669324557613 0 -0.1767766973476976 1 I I -0.70710678118654746 0.70710678118654746 0.25 forward I I I I #
loop $-1 $-1 $254 $68 #
coedge $-1 $159 $159 $255 $256 reversed $100 $-1 #
face $-1 $-1 $257 $54 $-1 $258 forward single #
loop $-1 $259 $260 $102 #
cone-surface $-1 40.863983047752043 -1.5423051247891379 8.4834364410671697 -0.70710678939079041 0 -0.70710677298230451 0.17677669324557613 0 -0.1767766973476976 1 I I -0.70710678118654746 0.70710678118654746 0.25 forward I I I I #
loop $-1 $-1 $261 $69 #
coedge $-1 $164 $164 $262 $263 reversed $103 $-1 #
face $-1 $-1 $264 $55 $-1 $265 forward single #
loop $-1 $266 $267 $105 #
cone-surface $-1 40.863983047752043 0.2826266589354951 8.4834364410671697 -0.70710678939079041 0 -0.70710677298230451 0.17677669324557613 0 -0.1767766973476976 1 I I -0.70710678118654746 0.70710678118654746 0.25 forward I I I I #
loop $-1 $-1 $268 $70 #
coedge $-1 $169 $169 $269 $270 reversed $106 $-1 #
face $-1 $271 $272 $56 $-1 $273 reversed single #
loop $-1 $-1 $274 $108 #
plane-surface $-1 -18.443481660279083 8.6073915672206489 69.693176674270362 0.70710678939079041 0 0.70710677298230451 0.70710677298230451 0 -0.70710678939079041 forward_v I I I I #
coedge $-1 $275 $276 $277 $278 reversed $109 $-1 #
face $-1 $-1 $279 $57 $-1 $280 forward single #
loop $-1 $281 $282 $111 #
cone-surface $-1 40.863983047752043 6.7824597834960123 8.4834364410671697 -0.70710678939079041 0 -0.70710677298230451 0.17677669324557613 0 -0.1767766973476976 1 I I -0.70710678118654746 0.70710678118654746 0.25 forward I I I I #
loop $-1 $-1 $283 $72 #
coedge $-1 $178 $178 $284 $285 reversed $112 $-1 #
face $-1 $-1 $286 $58 $-1 $287 forward single #
loop $-1 $288 $289 $114 #
cone-surface $-1 40.863983047752043 8.6073915672206489 8.4834364410671697 -0.70710678939079041 0 -0.70710677298230451 0.17677669324557613 0 -0.1767766973476976 1 I I -0.70710678118654746 0.70710678118654746 0.25 forward I I I I #
loop $-1 $-1 $290 $73 #
coedge $-1 $183 $183 $291 $292 reversed $115 $-1 #
face $-1 $-1 $293 $59 $-1 $294 forward single #
loop $-1 $295 $296 $117 #
cone-surface $-1 40.863983047752043 10.432323350945278 8.4834364410671697 -0.70710678939079041 0 -0.70710677298230451 0.17677669324557613 0 -0.1767766973476976 1 I I -0.70710678118654746 0.70710678118654746 0.25 forward I I I I #
loop $-1 $-1 $297 $74 #
coedge $-1 $188 $188 $298 $299 reversed $118 $-1 #
face $-1 $300 $301 $45 $-1 $302 reversed single #
loop $-1 $-1 $303 $120 #
plane-surface $-1 0 0 -12.145958759641765 0 0 1 1 0 0 forward_v I I I I #
coedge $-1 $304 $305 $306 $307 forward $121 $-1 #
coedge $-1 $308 $123 $309 $310 reversed $76 $-1 #
coedge $-1 $123 $308 $311 $312 forward $76 $-1 #
coedge $-1 $313 $303 $123 $196 forward $190 $-1 #
edge $-1 $314 -44.526505325479903 $315 44.526505325479903 $123 $316 forward 7 unknown #
face $-1 $317 $318 $46 $-1 $319 reversed single #
loop $-1 $-1 $320 $124 #
plane-surface $-1 -44.526505325479903 0 0 1 0 0 0 0 -1 forward_v I I I I #
coedge $-1 $321 $322 $202 $323 forward $125 $-1 #
coedge $-1 $324 $127 $325 $326 reversed $79 $-1 #
coedge $-1 $127 $324 $200 $323 reversed $79 $-1 #
coedge $-1 $327 $328 $127 $204 reversed $329 $-1 #
edge $-1 $330 -12.145958759641765 $331 12.145958759641765 $203 $332 forward 7 unknown #
face $-1 $333 $334 $47 $-1 $335 reversed single #
loop $-1 $-1 $336 $128 #
plane-surface $-1 -43.026505325479903 40.969677760388208 0 0 -1 0 0 0 -1 forward_v I I I I #
coedge $-1 $337 $338 $209 $339 forward $129 $-1 #
coedge $-1 $340 $131 $208 $339 reversed $82 $-1 #
coedge $-1 $131 $340 $341 $342 reversed $82 $-1 #
coedge $-1 $343 $344 $131 $212 reversed $334 $-1 #
edge $-1 $345 -12.145958759641765 $346 12.145958759641765 $211 $347 forward 7 unknown #
face $-1 $348 $349 $48 $-1 $350 forward single #
loop $-1 $-1 $351 $132 #
plane-surface $-1 44.526506786704971 -14.73355478967331 132.66316366002934 0 1 0 0.70710678939079041 0 0.70710677298230451 forward_v I I I I #
coedge $-1 $352 $353 $354 $355 reversed $133 $-1 #
coedge $-1 $218 $135 $356 $357 reversed $85 $-1 #
coedge $-1 $135 $217 $352 $358 reversed $85 $-1 #
coedge $-1 $354 $359 $135 $220 forward $349 $-1 #
edge $-1 $360 -22.263251932127417 $361 -16.840481525607906 $219 $362 forward 7 unknown #
loop $-1 $-1 $226 $136 #
plane-surface $-1 -18.443481660279083 -11.692001816798923 69.693176674270362 0.70710678939079041 0 0.70710677298230451 0.70710677298230451 0 -0.70710678939079041 forward_v I I I I #
loop $-1 $-1 $363 $87 #
coedge $-1 $224 $224 $225 $364 reversed $137 $-1 #
coedge $-1 $225 $225 $224 $364 forward $139 $-1 #
coedge $-1 $226 $226 $140 $227 forward $221 $-1 #
edge $-1 $365 0 $365 6.2831853071796004 $226 $366 forward 7 unknown #
loop $-1 $-1 $233 $141 #
plane-surface $-1 -18.443481660279083 -11.692001816798923 69.693176674270362 0.70710678939079041 0 0.70710677298230451 0.70710677298230451 0 -0.70710678939079041 forward_v I I I I #
loop $-1 $-1 $367 $90 #
coedge $-1 $231 $231 $232 $368 reversed $142 $-1 #
coedge $-1 $232 $232 $231 $368 forward $144 $-1 #
coedge $-1 $233 $233 $145 $234 forward $228 $-1 #
edge $-1 $369 0 $369 6.2831853071796004 $233 $370 forward 7 unknown #
loop $-1 $-1 $240 $146 #
plane-surface $-1 -18.443481660279083 -11.692001816798923 69.693176674270362 0.70710678939079041 0 0.70710677298230451 0.70710677298230451 0 -0.70710678939079041 forward_v I I I I #
loop $-1 $-1 $371 $93 #
coedge $-1 $238 $238 $239 $372 reversed $147 $-1 #
coedge $-1 $239 $239 $238 $372 forward $149 $-1 #
coedge $-1 $240 $240 $150 $241 forward $235 $-1 #
edge $-1 $373 0 $373 6.2831853071796004 $240 $374 forward 7 unknown #
face $-1 $375 $376 $52 $-1 $377 reversed single #
loop $-1 $-1 $378 $151 #
plane-surface $-1 44.526506786704971 -4.5838580976635246 132.66316366002934 0 1 0 0.70710678939079041 0 0.70710677298230451 forward_v I I I I #
coedge $-1 $379 $380 $381 $382 reversed $152 $-1 #
coedge $-1 $247 $154 $383 $384 reversed $97 $-1 #
coedge $-1 $154 $246 $379 $385 reversed $97 $-1 #
coedge $-1 $381 $386 $154 $249 forward $387 $-1 #
edge $-1 $388 -22.263251932127417 $389 -16.840481525607906 $248 $390 forward 7 unknown #
loop $-1 $-1 $255 $155 #
plane-surface $-1 -18.443481660279083 -1.5423051247891379 69.693176674270362 0.70710678939079041 0 0.70710677298230451 0.70710677298230451 0 -0.70710678939079041 forward_v I I I I #
loop $-1 $-1 $391 $99 #
coedge $-1 $253 $253 $254 $392 reversed $156 $-1 #
coedge $-1 $254 $254 $253 $392 forward $158 $-1 #
coedge $-1 $255 $255 $159 $256 forward $250 $-1 #
edge $-1 $393 0 $393 6.2831853071796004 $255 $394 forward 7 unknown #
loop $-1 $-1 $262 $160 #
plane-surface $-1 -18.443481660279083 -1.5423051247891379 69.693176674270362 0.70710678939079041 0 0.70710677298230451 0.70710677298230451 0 -0.70710678939079041 forward_v I I I I #
loop $-1 $-1 $395 $102 #
coedge $-1 $260 $260 $261 $396 reversed $161 $-1 #
coedge $-1 $261 $261 $260 $396 forward $163 $-1 #
coedge $-1 $262 $262 $164 $263 forward $257 $-1 #
edge $-1 $397 0 $397 6.2831853071796004 $262 $398 forward 7 unknown #
loop $-1 $-1 $269 $165 #
plane-surface $-1 -18.443481660279083 -1.5423051247891379 69.693176674270362 0.70710678939079041 0 0.70710677298230451 0.70710677298230451 0 -0.70710678939079041 forward_v I I I I #
loop $-1 $-1 $399 $105 #
coedge $-1 $267 $267 $268 $400 reversed $166 $-1 #
coedge $-1 $268 $268 $267 $400 forward $168 $-1 #
coedge $-1 $269 $269 $169 $270 forward $264 $-1 #
edge $-1 $401 0 $401 6.2831853071796004 $269 $402 forward 7 unknown #
face $-1 $403 $404 $56 $-1 $405 reversed single #
loop $-1 $-1 $406 $170 #
plane-surface $-1 44.526506786704971 5.5658385943462623 132.66316366002934 0 1 0 0.70710678939079041 0 0.70710677298230451 forward_v I I I I #
coedge $-1 $407 $408 $409 $410 reversed $171 $-1 #
coedge $-1 $276 $173 $411 $412 reversed $109 $-1 #
coedge $-1 $173 $275 $407 $413 reversed $109 $-1 #
coedge $-1 $409 $414 $173 $278 forward $415 $-1 #
edge $-1 $416 -22.263251932127417 $417 -16.840481525607906 $277 $418 forward 7 unknown #
loop $-1 $-1 $284 $174 #
plane-surface $-1 -18.443481660279083 8.6073915672206489 69.693176674270362 0.70710678939079041 0 0.70710677298230451 0.70710677298230451 0 -0.70710678939079041 forward_v I I I I #
loop $-1 $-1 $419 $111 #
coedge $-1 $282 $282 $283 $420 reversed $175 $-1 #
coedge $-1 $283 $283 $282 $420 forward $177 $-1 #
coedge $-1 $284 $284 $178 $285 forward $279 $-1 #
edge $-1 $421 0 $421 6.2831853071796004 $284 $422 forward 7 unknown #
loop $-1 $-1 $291 $179 #
plane-surface $-1 -18.443481660279083 8.6073915672206489 69.693176674270362 0.70710678939079041 0 0.70710677298230451 0.70710677298230451 0 -0.70710678939079041 forward_v I I I I #
loop $-1 $-1 $423 $114 #
coedge $-1 $289 $289 $290 $424 reversed $180 $-1 #
coedge $-1 $290 $290 $289 $424 forward $182 $-1 #
coedge $-1 $291 $291 $183 $292 forward $286 $-1 #
edge $-1 $425 0 $425 6.2831853071796004 $291 $426 forward 7 unknown #
loop $-1 $-1 $298 $184 #
plane-surface $-1 -18.443481660279083 8.6073915672206489 69.693176674270362 0.70710678939079041 0 0.70710677298230451 0.70710677298230451 0 -0.70710678939079041 forward_v I I I I #
loop $-1 $-1 $427 $117 #
coedge $-1 $296 $296 $297 $428 reversed $185 $-1 #
coedge $-1 $297 $297 $296 $428 forward $187 $-1 #
coedge $-1 $298 $298 $188 $299 forward $293 $-1 #
edge $-1 $429 0 $429 6.2831853071796004 $298 $430 forward 7 unknown #
face $-1 $431 $432 $45 $-1 $433 reversed single #
loop $-1 $-1 $434 $189 #
plane-surface $-1 -44.526505325479903 0 0 1 0 0 0 0 -1 forward_v I I I I #
coedge $-1 $195 $435 $436 $437 forward $190 $-1 #
coedge $-1 $438 $192 $439 $440 forward $121 $-1 #
coedge $-1 $192 $438 $308 $441 forward $121 $-1 #
coedge $-1 $309 $442 $192 $307 reversed $443 $-1 #
edge $-1 $444 -27.334058878522928 $445 27.334058878522928 $306 $446 forward 7 unknown #
coedge $-1 $194 $193 $305 $441 reversed $76 $-1 #
coedge $-1 $436 $306 $193 $310 forward $443 $-1 #
edge $-1 $444 -12.145958759641765 $314 12.145958759641765 $309 $447 forward 7 unknown #
coedge $-1 $448 $449 $194 $312 reversed $301 $-1 #
edge $-1 $450 -12.145958759641765 $315 12.145958759641765 $311 $451 forward 7 unknown #
coedge $-1 $435 $195 $449 $452 forward $190 $-1 #
vertex $-1 $310 $453 #
vertex $-1 $452 $454 #
straight-curve $-1 0 -27.334058878522928 -12.145958759641765 -1 0 0 I I #
face $-1 $455 $329 $46 $-1 $456 reversed single #
loop $-1 $-1 $457 $197 #
plane-surface $-1 -41.320634982619289 -37.917467677674139 0 0 1 0 0 0 1 forward_v I I I I #
coedge $-1 $458 $459 $324 $460 forward $198 $-1 #
coedge $-1 $461 $200 $459 $462 forward $125 $-1 #
coedge $-1 $200 $461 $327 $463 forward $125 $-1 #
edge $-1 $330 38.114764639758675 $464 44.526505325479903 $200 $465 forward 7 unknown #
coedge $-1 $202 $201 $320 $460 reversed $79 $-1 #
coedge $-1 $466 $467 $201 $326 forward $468 $-1 #
edge $-1 $469 -44.526505325479903 $331 -38.114764639758675 $325 $470 forward 7 unknown #
coedge $-1 $471 $203 $322 $463 reversed $329 $-1 #
coedge $-1 $203 $471 $466 $472 reversed $329 $-1 #
loop $-1 $-1 $471 $317 #
vertex $-1 $323 $473 #
vertex $-1 $472 $474 #
straight-curve $-1 -38.114764639758675 -27.334058878522928 0 0 0 -1 I I #
face $-1 $475 $476 $47 $-1 $477 reversed single #
loop $-1 $-1 $211 $205 #
plane-surface $-1 -41.526505325479903 34.151868319455573 0 -1 0 0 0 0 1 forward_v I I I I #
coedge $-1 $478 $479 $480 $481 forward $206 $-1 #
coedge $-1 $482 $208 $344 $483 forward $129 $-1 #
coedge $-1 $208 $482 $484 $485 forward $129 $-1 #
edge $-1 $486 -44.526505325479903 $346 -41.526505325479903 $208 $487 forward 7 unknown #
coedge $-1 $210 $209 $488 $489 reversed $82 $-1 #
coedge $-1 $490 $491 $210 $342 forward $476 $-1 #
edge $-1 $345 41.526505325479903 $492 44.526505325479903 $341 $493 forward 7 unknown #
coedge $-1 $480 $211 $491 $494 reversed $334 $-1 #
coedge $-1 $211 $480 $337 $483 reversed $334 $-1 #
vertex $-1 $342 $495 #
vertex $-1 $483 $496 #
straight-curve $-1 -41.526505325479903 27.334058878522928 0 0 0 1 I I #
face $-1 $-1 $497 $48 $-1 $498 reversed single #
loop $-1 $-1 $219 $213 #
plane-surface $-1 0 0 12.145958759641765 0 0 1 1 0 0 forward_v I I I I #
coedge $-1 $499 $500 $501 $502 reversed $214 $-1 #
coedge $-1 $503 $216 $218 $358 forward $133 $-1 #
coedge $-1 $216 $503 $499 $504 forward $133 $-1 #
coedge $-1 $501 $219 $216 $355 forward $349 $-1 #
edge $-1 $361 2.8044479355250749 $505 8.887553881273849 $354 $506 forward 7 unknown #
coedge $-1 $507 $508 $217 $357 forward $497 $-1 #
edge $-1 $509 -59.60839360272837 $360 -54.185623070372905 $356 $510 forward 7 unknown #
edge $-1 $361 81.384055107445036 $509 89.053010650959848 $218 $511 forward 7 unknown #
coedge $-1 $219 $501 $507 $512 forward $349 $-1 #
vertex $-1 $220 $513 #
vertex $-1 $220 $514 #
straight-curve $-1 22.263253393352485 -8.6504488439245364 12.145958759641765 -1 0 0 I I #
coedge $-1 $363 $363 $-1 $515 reversed $223 $-1 #
edge $-1 $516 0 $516 6.2831853071796004 $224 $517 forward 7 unknown #
vertex $-1 $227 $518 #
ellipse-curve $-1 41.815120122220151 -13.516933600523554 9.434573493464038 0.70710678939079041 0 0.70710677298230451 0.35355338649115226 0 -0.35355339469539521 1 I I #
coedge $-1 $367 $367 $-1 $519 reversed $230 $-1 #
edge $-1 $520 0 $520 6.2831853071796004 $231 $521 forward 7 unknown #
vertex $-1 $234 $522 #
ellipse-curve $-1 41.815120122220151 -11.692001816798923 9.434573493464038 0.70710678939079041 0 0.70710677298230451 0.35355338649115226 0 -0.35355339469539521 1 I I #
coedge $-1 $371 $371 $-1 $523 reversed $237 $-1 #
edge $-1 $524 0 $524 6.2831853071796004 $238 $525 forward 7 unknown #
vertex $-1 $241 $526 #
ellipse-curve $-1 41.815120122220151 -9.8670700330742918 9.434573493464038 0.70710678939079041 0 0.70710677298230451 0.35355338649115226 0 -0.35355339469539521 1 I I #
face $-1 $-1 $387 $52 $-1 $527 forward single #
loop $-1 $-1 $528 $242 #
plane-surface $-1 44.526505325479903 0 0 -1 0 0 0 0 1 forward_v I I I I #
coedge $-1 $529 $530 $531 $532 reversed $243 $-1 #
coedge $-1 $533 $245 $247 $385 forward $152 $-1 #
coedge $-1 $245 $533 $529 $534 forward $152 $-1 #
coedge $-1 $531 $248 $245 $382 forward $387 $-1 #
edge $-1 $389 -2.2704004104798177 $535 3.8127055352689556 $381 $536 forward 7 unknown #
coedge $-1 $537 $538 $246 $384 forward $376 $-1 #
edge $-1 $539 -59.60839360272837 $388 -54.185623070372905 $383 $540 forward 7 unknown #
edge $-1 $389 81.384055107445036 $539 89.053010650959848 $247 $541 forward 7 unknown #
coedge $-1 $248 $531 $537 $542 forward $387 $-1 #
loop $-1 $-1 $531 $375 #
vertex $-1 $384 $543 #
vertex $-1 $249 $544 #
straight-curve $-1 22.263253393352485 1.4992478480852487 12.145958759641765 -1 0 0 I I #
coedge $-1 $391 $391 $-1 $545 reversed $252 $-1 #
edge $-1 $546 0 $546 6.2831853071796004 $253 $547 forward 7 unknown #
vertex $-1 $256 $548 #
ellipse-curve $-1 41.815120122220151 -3.367236908513771 9.434573493464038 0.70710678939079041 0 0.70710677298230451 0.35355338649115226 0 -0.35355339469539521 1 I I #
coedge $-1 $395 $395 $-1 $549 reversed $259 $-1 #
edge $-1 $550 0 $550 6.2831853071796004 $260 $551 forward 7 unknown #
vertex $-1 $263 $552 #
ellipse-curve $-1 41.815120122220151 -1.5423051247891379 9.434573493464038 0.70710678939079041 0 0.70710677298230451 0.35355338649115226 0 -0.35355339469539521 1 I I #
coedge $-1 $399 $399 $-1 $553 reversed $266 $-1 #
edge $-1 $554 0 $554 6.2831853071796004 $267 $555 forward 7 unknown #
vertex $-1 $270 $556 #
ellipse-curve $-1 41.815120122220151 0.2826266589354951 9.434573493464038 0.70710678939079041 0 0.70710677298230451 0.35355338649115226 0 -0.35355339469539521 1 I I #
face $-1 $-1 $415 $56 $-1 $557 forward single #
loop $-1 $-1 $558 $271 #
plane-surface $-1 44.526505325479903 0 0 -1 0 0 0 0 1 forward_v I I I I #
coedge $-1 $559 $560 $561 $562 reversed $272 $-1 #
coedge $-1 $563 $274 $276 $413 forward $171 $-1 #
coedge $-1 $274 $563 $559 $564 forward $171 $-1 #
coedge $-1 $561 $277 $274 $410 forward $415 $-1 #
edge $-1 $417 -7.3452487564847111 $565 -1.2621428107359378 $409 $566 forward 7 unknown #
coedge $-1 $567 $568 $275 $412 forward $404 $-1 #
edge $-1 $569 -59.60839360272837 $416 -54.185623070372905 $411 $570 forward 7 unknown #
edge $-1 $417 81.384055107445036 $569 89.053010650959848 $276 $571 forward 7 unknown #
coedge $-1 $277 $561 $567 $572 forward $415 $-1 #
loop $-1 $-1 $561 $403 #
vertex $-1 $412 $573 #
vertex $-1 $278 $574 #
straight-curve $-1 22.263253393352485 11.648944540095036 12.145958759641765 -1 0 0 I I #
coedge $-1 $419 $419 $-1 $575 reversed $281 $-1 #
edge $-1 $576 0 $576 6.2831853071796004 $282 $577 forward 7 unknown #
vertex $-1 $285 $578 #
ellipse-curve $-1 41.815120122220151 6.7824597834960123 9.434573493464038 0.70710678939079041 0 0.70710677298230451 0.35355338649115226 0 -0.35355339469539521 1 I I #
coedge $-1 $423 $423 $-1 $579 reversed $288 $-1 #
edge $-1 $580 0 $580 6.2831853071796004 $289 $581 forward 7 unknown #
vertex $-1 $292 $582 #
ellipse-curve $-1 41.815120122220151 8.6073915672206489 9.434573493464038 0.70710678939079041 0 0.70710677298230451 0.35355338649115226 0 -0.35355339469539521 1 I I #
coedge $-1 $427 $427 $-1 $583 reversed $295 $-1 #
edge $-1 $584 0 $584 6.2831853071796004 $296 $585 forward 7 unknown #
vertex $-1 $299 $586 #
ellipse-curve $-1 41.815120122220151 10.432323350945278 9.434573493464038 0.70710678939079041 0 0.70710677298230451 0.35355338649115226 0 -0.35355339469539521 1 I I #
face $-1 $-1 $443 $45 $-1 $587 reversed single #
loop $-1 $-1 $439 $300 #
plane-surface $-1 0 27.334058878522928 0 0 -1 0 0 0 -1 forward_v I I I I #
coedge $-1 $449 $448 $588 $589 forward $301 $-1 #
coedge $-1 $303 $313 $590 $591 forward $190 $-1 #
coedge $-1 $442 $309 $303 $437 reversed $443 $-1 #
edge $-1 $592 -27.334058878522928 $314 27.334058878522928 $436 $593 forward 7 unknown #
coedge $-1 $305 $304 $448 $594 forward $121 $-1 #
coedge $-1 $595 $588 $304 $440 reversed $432 $-1 #
edge $-1 $445 -44.526505325479903 $596 44.526505325479903 $439 $597 forward 7 unknown #
edge $-1 $450 -44.526505325479903 $444 44.526505325479903 $308 $598 forward 7 unknown #
coedge $-1 $306 $436 $595 $599 reversed $443 $-1 #
loop $-1 $-1 $309 $431 #
vertex $-1 $307 $600 #
vertex $-1 $307 $601 #
straight-curve $-1 44.526505325479903 0 12.145958759641765 0 1 0 I I #
straight-curve $-1 44.526505325479903 -27.334058878522928 0 0 0 -1 I I #
coedge $-1 $434 $311 $438 $594 reversed $301 $-1 #
coedge $-1 $311 $434 $313 $452 reversed $301 $-1 #
vertex $-1 $594 $602 #
straight-curve $-1 -44.526505325479903 -27.334058878522928 0 0 0 -1 I I #
edge $-1 $315 -27.334058878522928 $603 27.334058878522928 $449 $604 forward 7 unknown #
point $-1 44.526505325479903 -27.334058878522928 -12.145958759641765 #
point $-1 -44.526505325479903 -27.334058878522928 -12.145958759641765 #
face $-1 $-1 $468 $46 $-1 $605 reversed single #
plane-surface $-1 -38.114764639758675 -32.625763278098532 0 -1 0 0 0 0 1 forward_v I I I I #
coedge $-1 $606 $607 $608 $609 forward $318 $-1 #
coedge $-1 $608 $320 $467 $610 reversed $198 $-1 #
coedge $-1 $320 $608 $321 $462 reversed $198 $-1 #
edge $-1 $464 -12.145958759641765 $469 12.145958759641765 $320 $611 forward 7 unknown #
coedge $-1 $322 $321 $607 $612 forward $125 $-1 #
edge $-1 $464 27.334058878522928 $613 37.917467677674139 $459 $614 forward 7 unknown #
edge $-1 $615 -5.2917043995756075 $330 5.2917043995756075 $327 $616 forward 7 unknown #
vertex $-1 $462 $617 #
straight-curve $-1 0 -27.334058878522928 12.145958759641765 -1 0 0 I I #
coedge $-1 $618 $325 $328 $472 forward $468 $-1 #
coedge $-1 $325 $618 $458 $610 forward $468 $-1 #
loop $-1 $-1 $325 $455 #
vertex $-1 $460 $619 #
straight-curve $-1 0 -27.334058878522928 -12.145958759641765 1 0 0 I I #
coedge $-1 $328 $327 $620 $621 forward $329 $-1 #
edge $-1 $331 -5.2917043995756075 $622 5.2917043995756075 $328 $623 forward 7 unknown #
point $-1 -38.114764639758675 -27.334058878522924 12.145958759641765 #
point $-1 -38.114764639758675 -27.334058878522924 -12.145958759641765 #
face $-1 $-1 $624 $47 $-1 $625 reversed single #
loop $-1 $-1 $341 $333 #
plane-surface $-1 0 0 -12.145958759641765 0 0 1 1 0 0 forward_v I I I I #
coedge $-1 $626 $336 $627 $628 reversed $206 $-1 #
coedge $-1 $336 $626 $482 $629 reversed $206 $-1 #
coedge $-1 $344 $343 $336 $481 reversed $334 $-1 #
edge $-1 $630 -12.145958759641765 $631 12.145958759641765 $480 $632 forward 7 unknown #
coedge $-1 $338 $337 $479 $629 forward $129 $-1 #
edge $-1 $346 -6.8178094409326384 $630 6.8178094409326349 $344 $633 forward 7 unknown #
coedge $-1 $634 $488 $338 $485 reversed $624 $-1 #
edge $-1 $635 -40.969677760388208 $486 -27.334058878522928 $484 $636 forward 7 unknown #
vertex $-1 $489 $637 #
straight-curve $-1 0 27.334058878522928 12.145958759641765 1 0 0 I I #
coedge $-1 $484 $638 $340 $489 forward $624 $-1 #
edge $-1 $492 -12.145958759641765 $486 12.145958759641765 $488 $639 forward 7 unknown #
coedge $-1 $627 $341 $638 $640 forward $476 $-1 #
coedge $-1 $341 $627 $343 $494 forward $476 $-1 #
vertex $-1 $640 $641 #
straight-curve $-1 0 27.334058878522928 -12.145958759641765 -1 0 0 I I #
edge $-1 $631 -6.8178094409326349 $345 6.8178094409326384 $343 $642 forward 7 unknown #
point $-1 -41.526505325479903 27.334058878522935 -12.145958759641765 #
point $-1 -41.526505325479903 27.334058878522935 12.145958759641765 #
loop $-1 $-1 $356 $348 #
plane-surface $-1 44.526505325479903 0 0 -1 0 0 0 0 1 forward_v I I I I #
coedge $-1 $500 $351 $353 $504 reversed $214 $-1 #
coedge $-1 $351 $499 $643 $644 reversed $214 $-1 #
coedge $-1 $359 $354 $351 $502 forward $349 $-1 #
edge $-1 $505 16.840481525607906 $645 22.263251932127417 $501 $646 forward 7 unknown #
coedge $-1 $353 $352 $508 $647 reversed $133 $-1 #
edge $-1 $648 -89.053010650959848 $505 -81.384055107445036 $499 $649 forward 7 unknown #
vertex $-1 $355 $650 #
straight-curve $-1 39.103734918960413 -5.8460009083994615 12.145958759641758 0 -1 0 I I #
coedge $-1 $643 $356 $359 $512 reversed $497 $-1 #
coedge $-1 $356 $643 $503 $647 forward $497 $-1 #
vertex $-1 $357 $651 #
straight-curve $-1 44.526505325479903 -8.6504488439245364 66.33158183001467 0 0 1 I I #
straight-curve $-1 -18.443481660279083 -8.6504488439245364 69.693176674270362 0.70710677298230451 0 -0.70710678939079041 I I #
edge $-1 $645 -14.73355478967331 $360 -8.6504488439245364 $507 $652 forward 7 unknown #
point $-1 44.526505325479903 -8.6504488439245364 12.145958759641765 #
point $-1 39.103734918960392 -8.6504488439245364 12.145958759641765 #
edge $-1 $653 1 $653 0 $363 $-1 forward 7 unknown #
vertex $-1 $364 $654 #
ellipse-curve $-1 41.040759745099741 -13.516933600523554 8.6602131343127464 0.70710678939079041 0 0.70710677298230451 0.35355338649115226 0 -0.35355339469539521 1 I I #
point $-1 42.168673508711301 -13.516933600523554 9.0810200987686489 #
edge $-1 $655 1 $655 0 $367 $-1 forward 7 unknown #
vertex $-1 $368 $656 #
ellipse-curve $-1 41.040759745099741 -11.692001816798923 8.6602131343127464 0.70710678939079041 0 0.70710677298230451 0.35355338649115226 0 -0.35355339469539521 1 I I #
point $-1 42.168673508711301 -11.692001816798923 9.0810200987686489 #
edge $-1 $657 1 $657 0 $371 $-1 forward 7 unknown #
vertex $-1 $372 $658 #
ellipse-curve $-1 41.040759745099741 -9.8670700330742918 8.6602131343127464 0.70710678939079041 0 0.70710677298230451 0.35355338649115226 0 -0.35355339469539521 1 I I #
point $-1 42.168673508711301 -9.8670700330742918 9.0810200987686489 #
plane-surface $-1 0 0 12.145958759641765 0 0 1 1 0 0 forward_v I I I I #
coedge $-1 $538 $537 $530 $659 forward $376 $-1 #
coedge $-1 $530 $378 $380 $534 reversed $243 $-1 #
coedge $-1 $378 $529 $528 $659 reversed $243 $-1 #
coedge $-1 $386 $381 $378 $532 forward $387 $-1 #
edge $-1 $535 16.840481525607906 $660 22.263251932127417 $531 $661 forward 7 unknown #
coedge $-1 $380 $379 $538 $662 reversed $152 $-1 #
edge $-1 $663 -89.053010650959848 $535 -81.384055107445036 $529 $664 forward 7 unknown #
vertex $-1 $382 $665 #
straight-curve $-1 39.103734918960413 -0.77115256239456897 12.145958759641758 0 -1 0 I I #
coedge $-1 $528 $383 $386 $542 reversed $376 $-1 #
coedge $-1 $383 $528 $533 $662 forward $376 $-1 #
vertex $-1 $384 $666 #
straight-curve $-1 44.526505325479903 1.4992478480852487 66.33158183001467 0 0 1 I I #
straight-curve $-1 -18.443481660279083 1.4992478480852487 69.693176674270362 0.70710677298230451 0 -0.70710678939079041 I I #
edge $-1 $660 -4.5838580976635246 $388 1.4992478480852487 $537 $667 forward 7 unknown #
point $-1 44.526505325479903 1.4992478480852487 12.145958759641765 #
point $-1 39.103734918960392 1.4992478480852487 12.145958759641765 #
edge $-1 $668 1 $668 0 $391 $-1 forward 7 unknown #
vertex $-1 $392 $669 #
ellipse-curve $-1 41.040759745099741 -3.367236908513771 8.6602131343127464 0.70710678939079041 0 0.70710677298230451 0.35355338649115226 0 -0.35355339469539521 1 I I #
point $-1 42.168673508711301 -3.367236908513771 9.0810200987686489 #
edge $-1 $670 1 $670 0 $395 $-1 forward 7 unknown #
vertex $-1 $396 $671 #
ellipse-curve $-1 41.040759745099741 -1.5423051247891379 8.6602131343127464 0.70710678939079041 0 0.70710677298230451 0.35355338649115226 0 -0.35355339469539521 1 I I #
point $-1 42.168673508711301 -1.5423051247891379 9.0810200987686489 #
edge $-1 $672 1 $672 0 $399 $-1 forward 7 unknown #
vertex $-1 $400 $673 #
ellipse-curve $-1 41.040759745099741 0.2826266589354951 8.6602131343127464 0.70710678939079041 0 0.70710677298230451 0.35355338649115226 0 -0.35355339469539521 1 I I #
point $-1 42.168673508711301 0.2826266589354951 9.0810200987686489 #
plane-surface $-1 0 0 12.145958759641765 0 0 1 1 0 0 forward_v I I I I #
coedge $-1 $568 $567 $560 $674 forward $404 $-1 #
coedge $-1 $560 $406 $408 $564 reversed $272 $-1 #
coedge $-1 $406 $559 $558 $674 reversed $272 $-1 #
coedge $-1 $414 $409 $406 $562 forward $415 $-1 #
edge $-1 $565 16.840481525607906 $675 22.263251932127417 $561 $676 forward 7 unknown #
coedge $-1 $408 $407 $568 $677 reversed $171 $-1 #
edge $-1 $678 -89.053010650959848 $565 -81.384055107445036 $559 $679 forward 7 unknown #
vertex $-1 $410 $680 #
straight-curve $-1 39.103734918960413 4.3036957836103245 12.145958759641758 0 -1 0 I I #
coedge $-1 $558 $411 $414 $572 reversed $404 $-1 #
coedge $-1 $411 $558 $563 $677 forward $404 $-1 #
vertex $-1 $412 $681 #
straight-curve $-1 44.526505325479903 11.648944540095036 66.33158183001467 0 0 1 I I #
straight-curve $-1 -18.443481660279083 11.648944540095036 69.693176674270362 0.70710677298230451 0 -0.70710678939079041 I I #
edge $-1 $675 5.5658385943462623 $416 11.648944540095036 $567 $682 forward 7 unknown #
point $-1 44.526505325479903 11.648944540095036 12.145958759641765 #
point $-1 39.103734918960392 11.648944540095036 12.145958759641765 #
edge $-1 $683 1 $683 0 $419 $-1 forward 7 unknown #
vertex $-1 $420 $684 #
ellipse-curve $-1 41.040759745099741 6.7824597834960123 8.6602131343127464 0.70710678939079041 0 0.70710677298230451 0.35355338649115226 0 -0.35355339469539521 1 I I #
point $-1 42.168673508711301 6.7824597834960123 9.0810200987686489 #
edge $-1 $685 1 $685 0 $423 $-1 forward 7 unknown #
vertex $-1 $424 $686 #
ellipse-curve $-1 41.040759745099741 8.6073915672206489 8.6602131343127464 0.70710678939079041 0 0.70710677298230451 0.35355338649115226 0 -0.35355339469539521 1 I I #
point $-1 42.168673508711301 8.6073915672206489 9.0810200987686489 #
edge $-1 $687 1 $687 0 $427 $-1 forward 7 unknown #
vertex $-1 $428 $688 #
ellipse-curve $-1 41.040759745099741 10.432323350945278 8.6602131343127464 0.70710678939079041 0 0.70710677298230451 0.35355338649115226 0 -0.35355339469539521 1 I I #
point $-1 42.168673508711301 10.432323350945278 9.0810200987686489 #
plane-surface $-1 44.526505325479903 0 0 -1 0 0 0 0 1 forward_v I I I I #
coedge $-1 $439 $590 $434 $589 reversed $432 $-1 #
edge $-1 $596 -12.145958759641765 $603 12.145958759641765 $588 $689 forward 7 unknown #
coedge $-1 $588 $595 $435 $591 reversed $432 $-1 #
edge $-1 $603 -44.526505325479903 $592 44.526505325479903 $590 $690 forward 7 unknown #
vertex $-1 $437 $691 #
straight-curve $-1 44.526505325479903 0 -12.145958759641765 0 -1 0 I I #
edge $-1 $596 -27.334058878522928 $450 27.334058878522928 $448 $692 forward 7 unknown #
coedge $-1 $590 $439 $442 $599 forward $432 $-1 #
vertex $-1 $440 $693 #
straight-curve $-1 0 27.334058878522928 12.145958759641765 -1 0 0 I I #
straight-curve $-1 0 -27.334058878522928 12.145958759641765 1 0 0 I I #
edge $-1 $445 -12.145958759641765 $592 12.145958759641765 $442 $694 forward 7 unknown #
point $-1 44.526505325479903 -27.334058878522928 12.145958759641765 #
point $-1 44.526505325479903 27.334058878522928 12.145958759641765 #
point $-1 -44.526505325479903 -27.334058878522928 12.145958759641765 #
vertex $-1 $591 $695 #
straight-curve $-1 -44.526505325479903 0 -12.145958759641765 0 1 0 I I #
plane-surface $-1 0 0 -12.145958759641765 0 0 1 1 0 0 forward_v I I I I #
coedge $-1 $620 $457 $618 $696 reversed $318 $-1 #
coedge $-1 $457 $620 $461 $612 reversed $318 $-1 #
coedge $-1 $459 $458 $457 $609 reversed $198 $-1 #
edge $-1 $613 -12.145958759641765 $697 12.145958759641765 $608 $698 forward 7 unknown #
edge $-1 $697 -37.917467677674139 $469 -27.334058878522928 $458 $699 forward 7 unknown #
straight-curve $-1 -44.526505325479903 -27.334058878522928 0 0 0 -1 I I #
edge $-1 $613 -3.2058703428606137 $615 3.2058703428606137 $607 $700 forward 7 unknown #
vertex $-1 $462 $701 #
straight-curve $-1 -44.526505325479903 0 12.145958759641765 0 -1 0 I I #
vertex $-1 $463 $702 #
straight-curve $-1 -38.114764639758675 -32.625763278098532 12.145958759641765 0 1 0 I I #
point $-1 -44.526505325479903 -27.334058878522928 12.145958759641765 #
coedge $-1 $467 $466 $606 $696 forward $468 $-1 #
point $-1 -44.526505325479903 -27.334058878522928 -12.145958759641765 #
coedge $-1 $607 $606 $471 $621 reversed $318 $-1 #
edge $-1 $615 -12.145958759641765 $622 12.145958759641765 $471 $703 forward 7 unknown #
vertex $-1 $621 $704 #
straight-curve $-1 -38.114764639758675 -32.625763278098532 -12.145958759641765 0 -1 0 I I #
loop $-1 $-1 $488 $475 #
plane-surface $-1 -44.526505325479903 0 0 1 0 0 0 0 -1 forward_v I I I I #
coedge $-1 $479 $478 $634 $705 reversed $206 $-1 #
coedge $-1 $491 $490 $478 $628 forward $476 $-1 #
edge $-1 $706 -1.5 $631 1.5 $478 $707 forward 7 unknown #
edge $-1 $630 -1.5 $635 1.5 $479 $708 forward 7 unknown #
vertex $-1 $483 $709 #
vertex $-1 $494 $710 #
straight-curve $-1 -41.526505325479903 40.969677760388208 0 0 0 -1 I I #
straight-curve $-1 -41.526505325479903 34.151868319455573 12.145958759641765 0 1 0 I I #
coedge $-1 $638 $484 $626 $705 forward $624 $-1 #
vertex $-1 $629 $711 #
straight-curve $-1 -44.526505325479903 0 12.145958759641765 0 -1 0 I I #
point $-1 -44.526505325479903 27.334058878522928 12.145958759641765 #
coedge $-1 $488 $634 $490 $640 reversed $624 $-1 #
straight-curve $-1 -44.526505325479903 27.334058878522928 0 0 0 1 I I #
edge $-1 $492 -6.8178094409326455 $706 6.8178094409326349 $638 $712 forward 7 unknown #
point $-1 -44.526505325479903 27.334058878522928 -12.145958759641765 #
straight-curve $-1 -41.526505325479903 34.151868319455573 -12.145958759641765 0 -1 0 I I #
coedge $-1 $508 $507 $500 $644 forward $497 $-1 #
edge $-1 $645 54.185623070372905 $648 59.60839360272837 $643 $713 forward 7 unknown #
vertex $-1 $512 $714 #
straight-curve $-1 22.263253393352485 -14.73355478967331 12.145958759641765 1 0 0 I I #
edge $-1 $648 -8.887553881273849 $509 -2.8044479355250749 $508 $715 forward 7 unknown #
vertex $-1 $647 $716 #
straight-curve $-1 -18.443481660279083 -14.73355478967331 69.693176674270362 -0.70710677298230451 0 0.70710678939079041 I I #
point $-1 39.103734918960392 -14.73355478967331 12.145958759641765 #
point $-1 44.52650532547991 -8.6504488439245364 6.7231882272863004 #
straight-curve $-1 44.526505325479903 0 12.145958759641765 0 1 0 I I #
vertex $-1 $515 $717 #
point $-1 41.394313131590891 -13.516933600523554 8.3066597396173503 #
vertex $-1 $519 $718 #
point $-1 41.394313131590891 -11.692001816798923 8.3066597396173503 #
vertex $-1 $523 $719 #
point $-1 41.394313131590891 -9.8670700330742918 8.3066597396173503 #
edge $-1 $660 54.185623070372905 $663 59.60839360272837 $528 $720 forward 7 unknown #
vertex $-1 $542 $721 #
straight-curve $-1 22.263253393352485 -4.5838580976635246 12.145958759641765 1 0 0 I I #
edge $-1 $663 -3.8127055352689556 $539 2.2704004104798177 $538 $722 forward 7 unknown #
vertex $-1 $662 $723 #
straight-curve $-1 -18.443481660279083 -4.5838580976635246 69.693176674270362 -0.70710677298230451 0 0.70710678939079041 I I #
point $-1 39.103734918960392 -4.5838580976635246 12.145958759641765 #
point $-1 44.52650532547991 1.4992478480852487 6.7231882272863004 #
straight-curve $-1 44.526505325479903 0 12.145958759641765 0 1 0 I I #
vertex $-1 $545 $724 #
point $-1 41.394313131590891 -3.367236908513771 8.3066597396173503 #
vertex $-1 $549 $725 #
point $-1 41.394313131590891 -1.5423051247891379 8.3066597396173503 #
vertex $-1 $553 $726 #
point $-1 41.394313131590891 0.2826266589354951 8.3066597396173503 #
edge $-1 $675 54.185623070372905 $678 59.60839360272837 $558 $727 forward 7 unknown #
vertex $-1 $572 $728 #
straight-curve $-1 22.263253393352485 5.5658385943462623 12.145958759641765 1 0 0 I I #
edge $-1 $678 1.2621428107359378 $569 7.3452487564847111 $568 $729 forward 7 unknown #
vertex $-1 $677 $730 #
straight-curve $-1 -18.443481660279083 5.5658385943462623 69.693176674270362 -0.70710677298230451 0 0.70710678939079041 I I #
point $-1 39.103734918960392 5.5658385943462623 12.145958759641765 #
point $-1 44.52650532547991 11.648944540095036 6.7231882272863004 #
straight-curve $-1 44.526505325479903 0 12.145958759641765 0 1 0 I I #
vertex $-1 $575 $731 #
point $-1 41.394313131590891 6.7824597834960123 8.3066597396173503 #
vertex $-1 $579 $732 #
point $-1 41.394313131590891 8.6073915672206489 8.3066597396173503 #
vertex $-1 $583 $733 #
point $-1 41.394313131590891 10.432323350945278 8.3066597396173503 #
straight-curve $-1 -44.526505325479903 27.334058878522928 0 0 0 -1 I I #
straight-curve $-1 0 27.334058878522928 -12.145958759641765 1 0 0 I I #
point $-1 44.526505325479903 27.334058878522928 -12.145958759641765 #
straight-curve $-1 -44.526505325479903 0 12.145958759641765 0 -1 0 I I #
point $-1 -44.526505325479903 27.334058878522928 12.145958759641765 #
straight-curve $-1 44.526505325479903 27.334058878522928 0 0 0 -1 I I #
point $-1 -44.526505325479903 27.334058878522928 -12.145958759641765 #
edge $-1 $622 -3.2058703428606137 $697 3.2058703428606137 $606 $734 forward 7 unknown #
vertex $-1 $610 $735 #
straight-curve $-1 -44.526505325479903 -37.917467677674139 0 0 0 -1 I I #
straight-curve $-1 -44.526505325479903 0 -12.145958759641765 0 1 0 I I #
straight-curve $-1 -41.320634982619289 -37.917467677674139 12.145958759641765 1 0 0 I I #
point $-1 -44.526505325479903 -37.917467677674139 12.145958759641765 #
point $-1 -38.114764639758675 -37.917467677674139 12.145958759641765 #
straight-curve $-1 -38.114764639758675 -37.917467677674139 0 0 0 -1 I I #
point $-1 -38.114764639758675 -37.917467677674139 -12.145958759641765 #
edge $-1 $635 -12.145958759641765 $706 12.145958759641765 $626 $736 forward 7 unknown #
vertex $-1 $628 $737 #
straight-curve $-1 -43.026505325479903 40.969677760388208 -12.145958759641765 1 0 0 I I #
straight-curve $-1 -43.026505325479903 40.969677760388208 12.145958759641765 -1 0 0 I I #
point $-1 -41.526505325479903 40.969677760388208 12.145958759641765 #
point $-1 -41.526505325479903 40.969677760388208 -12.145958759641765 #
point $-1 -44.526505325479903 40.969677760388208 12.145958759641765 #
straight-curve $-1 -44.526505325479903 34.151868319455573 -12.145958759641765 0 1 0 I I #
straight-curve $-1 44.526505325479903 -14.73355478967331 66.33158183001467 0 0 -1 I I #
point $-1 44.526505325479903 -14.73355478967331 12.145958759641765 #
straight-curve $-1 44.526505325479903 -5.8460009083994615 6.7231882272863075 0 1 0 I I #
point $-1 44.52650532547991 -14.73355478967331 6.7231882272863004 #
point $-1 40.687206350404345 -13.516933600523554 8.3066597478215929 #
point $-1 40.687206350404345 -11.692001816798923 8.3066597478215929 #
point $-1 40.687206350404345 -9.8670700330742918 8.3066597478215929 #
straight-curve $-1 44.526505325479903 -4.5838580976635246 66.33158183001467 0 0 -1 I I #
point $-1 44.526505325479903 -4.5838580976635246 12.145958759641765 #
straight-curve $-1 44.526505325479903 -0.77115256239456897 6.7231882272863075 0 1 0 I I #
point $-1 44.52650532547991 -4.5838580976635246 6.7231882272863004 #
point $-1 40.687206350404345 -3.367236908513771 8.3066597478215929 #
point $-1 40.687206350404345 -1.5423051247891379 8.3066597478215929 #
point $-1 40.687206350404345 0.2826266589354951 8.3066597478215929 #
straight-curve $-1 44.526505325479903 5.5658385943462623 66.33158183001467 0 0 -1 I I #
point $-1 44.526505325479903 5.5658385943462623 12.145958759641765 #
straight-curve $-1 44.526505325479903 4.3036957836103245 6.7231882272863075 0 1 0 I I #
point $-1 44.52650532547991 5.5658385943462623 6.7231882272863004 #
point $-1 40.687206350404345 6.7824597834960123 8.3066597478215929 #
point $-1 40.687206350404345 8.6073915672206489 8.3066597478215929 #
point $-1 40.687206350404345 10.432323350945278 8.3066597478215929 #
straight-curve $-1 -41.320634982619289 -37.917467677674139 -12.145958759641765 -1 0 0 I I #
point $-1 -44.526505325479903 -37.917467677674139 -12.145958759641765 #
straight-curve $-1 -44.526505325479903 40.969677760388208 0 0 0 -1 I I #
point $-1 -44.526505325479903 40.969677760388208 -12.145958759641765 #
End-of-ACIS-data 