500 0 16 0           
7 Unknown 11 ACIS 5.0 NT 24 Thu Mar 25 20:55:15 1999 
-1 9.9999999999999995e-007 1e-010 
body $-1 $16 $-1 $17 #
body $-1 $18 $-1 $19 #
body $-1 $20 $-1 $21 #
body $-1 $22 $-1 $23 #
body $-1 $24 $-1 $25 #
body $-1 $26 $-1 $27 #
body $-1 $28 $-1 $29 #
body $-1 $30 $-1 $31 #
body $-1 $32 $-1 $33 #
body $-1 $34 $-1 $35 #
body $-1 $36 $-1 $37 #
body $-1 $38 $-1 $39 #
body $-1 $40 $-1 $41 #
body $-1 $42 $-1 $43 #
body $-1 $44 $-1 $45 #
body $-1 $46 $-1 $47 #
lump $-1 $-1 $48 $0 #
transform $-1 1 0 0 0 1 0 0 0 1 53.451338236640524 35.490729411087884 7.2827102393955112 1 rotate no_reflect no_shear #
lump $-1 $-1 $49 $1 #
transform $-1 1 0 0 0 1 0 0 0 1 -4.5904411541644183 1.5 7.2827102393955112 1 rotate no_reflect no_shear #
lump $-1 $-1 $50 $2 #
transform $-1 1 0 0 0 0.75470957328743171 0.6560590369687036 0 -0.6560590369687036 0.75470957328743171 60.099151845555376 -70.13446697643765 91.13884845051254 1 rotate no_reflect no_shear #
lump $-1 $-1 $51 $3 #
transform $-1 1 0 0 0 -0.75470957328743171 -0.6560590369687036 0 0.6560590369687036 -0.75470957328743171 60.099151845555376 5.7109626783891203 8.6597108329893615 1 rotate no_reflect no_shear #
lump $-1 $-1 $52 $4 #
transform $-1 1 0 0 0 0.60181501223851219 -0.79863551827123203 0 0.79863551827123203 0.60181501223851219 16.841203895512351 113.64002574222127 131.23451394525864 1 rotate no_reflect no_shear #
lump $-1 $-1 $53 $5 #
transform $-1 1 0 0 0 -0.60181501223851219 0.79863551827123203 0 -0.79863551827123203 -0.60181501223851219 13.558208929576558 66.052940592335915 9.9105263756034958 1 rotate no_reflect no_shear #
lump $-1 $-1 $54 $6 #
transform $-1 1 0 0 0 -0.60181501223851219 0.79863551827123203 0 -0.79863551827123203 -0.60181501223851219 20.124198861448139 66.052940592335915 9.9105263756034958 1 rotate no_reflect no_shear #
lump $-1 $-1 $55 $7 #
transform $-1 1 0 0 0 0.60181501223851219 -0.79863551827123203 0 0.79863551827123203 0.60181501223851219 41.271652436750408 113.64002574222127 131.23451394525864 1 rotate no_reflect no_shear #
lump $-1 $-1 $56 $8 #
transform $-1 1 0 0 0 -0.60181501223851219 0.79863551827123203 0 -0.79863551827123203 -0.60181501223851219 37.988657470814616 66.052940592335915 9.9105263756034958 1 rotate no_reflect no_shear #
lump $-1 $-1 $57 $9 #
transform $-1 1 0 0 0 -0.60181501223851219 0.79863551827123203 0 -0.79863551827123203 -0.60181501223851219 44.5546474026862 66.052940592335915 9.9105263756034958 1 rotate no_reflect no_shear #
lump $-1 $-1 $58 $10 #
transform $-1 1 0 0 0 0.60181501223851219 -0.79863551827123203 0 0.79863551827123203 0.60181501223851219 65.702100977988465 113.64002574222127 131.23451394525864 1 rotate no_reflect no_shear #
lump $-1 $-1 $59 $11 #
transform $-1 1 0 0 0 -0.60181501223851219 0.79863551827123203 0 -0.79863551827123203 -0.60181501223851219 62.419106012052673 66.052940592335915 9.9105263756034958 1 rotate no_reflect no_shear #
lump $-1 $-1 $60 $12 #
transform $-1 1 0 0 0 -0.60181501223851219 0.79863551827123203 0 -0.79863551827123203 -0.60181501223851219 68.98509594392425 66.052940592335915 9.9105263756034958 1 rotate no_reflect no_shear #
lump $-1 $-1 $61 $13 #
transform $-1 1 0 0 0 0.60181501223851219 -0.79863551827123203 0 0.79863551827123203 0.60181501223851219 90.132549519226529 113.64002574222127 131.23451394525864 1 rotate no_reflect no_shear #
lump $-1 $-1 $62 $14 #
transform $-1 1 0 0 0 -0.60181501223851219 0.79863551827123203 0 -0.79863551827123203 -0.60181501223851219 86.84955455329073 66.052940592335915 9.9105263756034958 1 rotate no_reflect no_shear #
lump $-1 $-1 $63 $15 #
transform $-1 1 0 0 0 -0.60181501223851219 0.79863551827123203 0 -0.79863551827123203 -0.60181501223851219 93.415544485162314 66.052940592335915 9.9105263756034958 1 rotate no_reflect no_shear #
shell $-1 $-1 $-1 $64 $-1 $16 #
shell $-1 $-1 $-1 $65 $-1 $18 #
shell $-1 $-1 $-1 $66 $-1 $20 #
shell $-1 $-1 $-1 $67 $-1 $22 #
shell $-1 $-1 $-1 $68 $-1 $24 #
shell $-1 $-1 $-1 $69 $-1 $26 #
shell $-1 $-1 $-1 $70 $-1 $28 #
shell $-1 $-1 $-1 $71 $-1 $30 #
shell $-1 $-1 $-1 $72 $-1 $32 #
shell $-1 $-1 $-1 $73 $-1 $34 #
shell $-1 $-1 $-1 $74 $-1 $36 #
shell $-1 $-1 $-1 $75 $-1 $38 #
shell $-1 $-1 $-1 $76 $-1 $40 #
shell $-1 $-1 $-1 $77 $-1 $42 #
shell $-1 $-1 $-1 $78 $-1 $44 #
shell $-1 $-1 $-1 $79 $-1 $46 #
face $-1 $80 $81 $48 $-1 $82 forward single #
face $-1 $83 $84 $49 $-1 $85 forward single #
face $-1 $86 $87 $50 $-1 $88 forward single #
face $-1 $89 $90 $51 $-1 $91 forward single #
face $-1 $92 $93 $52 $-1 $94 forward single #
face $-1 $95 $96 $53 $-1 $97 forward single #
face $-1 $98 $99 $54 $-1 $100 forward single #
face $-1 $101 $102 $55 $-1 $103 forward single #
face $-1 $104 $105 $56 $-1 $106 forward single #
face $-1 $107 $108 $57 $-1 $109 forward single #
face $-1 $110 $111 $58 $-1 $112 forward single #
face $-1 $113 $114 $59 $-1 $115 forward single #
face $-1 $116 $117 $60 $-1 $118 forward single #
face $-1 $119 $120 $61 $-1 $121 forward single #
face $-1 $122 $123 $62 $-1 $124 forward single #
face $-1 $125 $126 $63 $-1 $127 forward single #
face $-1 $128 $129 $48 $-1 $130 reversed single #
loop $-1 $-1 $131 $64 #
plane-surface $-1 0 0 7.2827102393955112 0 0 1 1 0 0 forward_v I I I I #
face $-1 $132 $133 $49 $-1 $134 reversed single #
loop $-1 $-1 $135 $65 #
plane-surface $-1 0 0 7.2827102393955112 0 0 1 1 0 0 forward_v I I I I #
face $-1 $136 $137 $50 $-1 $138 reversed single #
loop $-1 $-1 $139 $66 #
plane-surface $-1 0 0 106.90267647328105 0 0 1 1 0 0 forward_v I I I I #
face $-1 $140 $141 $51 $-1 $142 forward single #
loop $-1 $143 $144 $67 #
cone-surface $-1 0 0 -2.927098910489212 0 0 1 1.5 0 0 1 I I 0 1 1.5 forward I I I I #
face $-1 $145 $146 $52 $-1 $147 reversed single #
loop $-1 $-1 $148 $68 #
plane-surface $-1 0 0 106.90267647328105 0 0 1 1 0 0 forward_v I I I I #
face $-1 $149 $150 $53 $-1 $151 forward single #
loop $-1 $152 $153 $69 #
cone-surface $-1 0 0 -2.3083285012359998 0 0 1 1 0 0 1 I I 0 1 1 forward I I I I #
face $-1 $154 $155 $54 $-1 $156 forward single #
loop $-1 $157 $158 $70 #
cone-surface $-1 0 0 -2.3083285012359998 0 0 1 1 0 0 1 I I 0 1 1 forward I I I I #
face $-1 $159 $160 $55 $-1 $161 reversed single #
loop $-1 $-1 $162 $71 #
plane-surface $-1 0 0 106.90267647328105 0 0 1 1 0 0 forward_v I I I I #
face $-1 $163 $164 $56 $-1 $165 forward single #
loop $-1 $166 $167 $72 #
cone-surface $-1 0 0 -2.3083285012359998 0 0 1 1 0 0 1 I I 0 1 1 forward I I I I #
face $-1 $168 $169 $57 $-1 $170 forward single #
loop $-1 $171 $172 $73 #
cone-surface $-1 0 0 -2.3083285012359998 0 0 1 1 0 0 1 I I 0 1 1 forward I I I I #
face $-1 $173 $174 $58 $-1 $175 reversed single #
loop $-1 $-1 $176 $74 #
plane-surface $-1 0 0 106.90267647328105 0 0 1 1 0 0 forward_v I I I I #
face $-1 $177 $178 $59 $-1 $179 forward single #
loop $-1 $180 $181 $75 #
cone-surface $-1 0 0 -2.3083285012359998 0 0 1 1 0 0 1 I I 0 1 1 forward I I I I #
face $-1 $182 $183 $60 $-1 $184 forward single #
loop $-1 $185 $186 $76 #
cone-surface $-1 0 0 -2.3083285012359998 0 0 1 1 0 0 1 I I 0 1 1 forward I I I I #
face $-1 $187 $188 $61 $-1 $189 reversed single #
loop $-1 $-1 $190 $77 #
plane-surface $-1 0 0 106.90267647328105 0 0 1 1 0 0 forward_v I I I I #
face $-1 $191 $192 $62 $-1 $193 forward single #
loop $-1 $194 $195 $78 #
cone-surface $-1 0 0 -2.3083285012359998 0 0 1 1 0 0 1 I I 0 1 1 forward I I I I #
face $-1 $196 $197 $63 $-1 $198 forward single #
loop $-1 $199 $200 $79 #
cone-surface $-1 0 0 -2.3083285012359998 0 0 1 1 0 0 1 I I 0 1 1 forward I I I I #
face $-1 $201 $202 $48 $-1 $203 reversed single #
loop $-1 $-1 $204 $80 #
plane-surface $-1 0 0 -7.2827102393955112 0 0 1 1 0 0 forward_v I I I I #
coedge $-1 $205 $206 $207 $208 forward $81 $-1 #
face $-1 $209 $210 $49 $-1 $211 reversed single #
loop $-1 $-1 $212 $83 #
plane-surface $-1 0 0 -7.2827102393955112 0 0 1 1 0 0 forward_v I I I I #
coedge $-1 $213 $214 $215 $216 forward $84 $-1 #
face $-1 $217 $218 $50 $-1 $219 reversed single #
loop $-1 $-1 $220 $86 #
plane-surface $-1 0 0 -106.90267647328105 0 0 1 1 0 0 forward_v I I I I #
coedge $-1 $221 $222 $223 $224 forward $87 $-1 #
face $-1 $-1 $225 $51 $-1 $226 forward single #
loop $-1 $-1 $227 $89 #
plane-surface $-1 0 0 -5.104197820978424 0 0 -1 -1 0 0 forward_v I I I I #
loop $-1 $-1 $228 $67 #
coedge $-1 $144 $144 $227 $229 reversed $90 $-1 #
face $-1 $230 $231 $52 $-1 $232 reversed single #
loop $-1 $-1 $233 $92 #
plane-surface $-1 0 0 -106.90267647328105 0 0 1 1 0 0 forward_v I I I I #
coedge $-1 $234 $235 $236 $237 forward $93 $-1 #
face $-1 $-1 $238 $53 $-1 $239 forward single #
loop $-1 $-1 $240 $95 #
plane-surface $-1 0 0 -4.1166570024719995 0 0 -1 -1 0 0 forward_v I I I I #
loop $-1 $-1 $241 $69 #
coedge $-1 $153 $153 $240 $242 reversed $96 $-1 #
face $-1 $-1 $243 $54 $-1 $244 forward single #
loop $-1 $-1 $245 $98 #
plane-surface $-1 0 0 -4.1166570024719995 0 0 -1 -1 0 0 forward_v I I I I #
loop $-1 $-1 $246 $70 #
coedge $-1 $158 $158 $245 $247 reversed $99 $-1 #
face $-1 $248 $249 $55 $-1 $250 reversed single #
loop $-1 $-1 $251 $101 #
plane-surface $-1 0 0 -106.90267647328105 0 0 1 1 0 0 forward_v I I I I #
coedge $-1 $252 $253 $254 $255 forward $102 $-1 #
face $-1 $-1 $256 $56 $-1 $257 forward single #
loop $-1 $-1 $258 $104 #
plane-surface $-1 0 0 -4.1166570024719995 0 0 -1 -1 0 0 forward_v I I I I #
loop $-1 $-1 $259 $72 #
coedge $-1 $167 $167 $258 $260 reversed $105 $-1 #
face $-1 $-1 $261 $57 $-1 $262 forward single #
loop $-1 $-1 $263 $107 #
plane-surface $-1 0 0 -4.1166570024719995 0 0 -1 -1 0 0 forward_v I I I I #
loop $-1 $-1 $264 $73 #
coedge $-1 $172 $172 $263 $265 reversed $108 $-1 #
face $-1 $266 $267 $58 $-1 $268 reversed single #
loop $-1 $-1 $269 $110 #
plane-surface $-1 0 0 -106.90267647328105 0 0 1 1 0 0 forward_v I I I I #
coedge $-1 $270 $271 $272 $273 forward $111 $-1 #
face $-1 $-1 $274 $59 $-1 $275 forward single #
loop $-1 $-1 $276 $113 #
plane-surface $-1 0 0 -4.1166570024719995 0 0 -1 -1 0 0 forward_v I I I I #
loop $-1 $-1 $277 $75 #
coedge $-1 $181 $181 $276 $278 reversed $114 $-1 #
face $-1 $-1 $279 $60 $-1 $280 forward single #
loop $-1 $-1 $281 $116 #
plane-surface $-1 0 0 -4.1166570024719995 0 0 -1 -1 0 0 forward_v I I I I #
loop $-1 $-1 $282 $76 #
coedge $-1 $186 $186 $281 $283 reversed $117 $-1 #
face $-1 $284 $285 $61 $-1 $286 reversed single #
loop $-1 $-1 $287 $119 #
plane-surface $-1 0 0 -106.90267647328105 0 0 1 1 0 0 forward_v I I I I #
coedge $-1 $288 $289 $290 $291 forward $120 $-1 #
face $-1 $-1 $292 $62 $-1 $293 forward single #
loop $-1 $-1 $294 $122 #
plane-surface $-1 0 0 -4.1166570024719995 0 0 -1 -1 0 0 forward_v I I I I #
loop $-1 $-1 $295 $78 #
coedge $-1 $195 $195 $294 $296 reversed $123 $-1 #
face $-1 $-1 $297 $63 $-1 $298 forward single #
loop $-1 $-1 $299 $125 #
plane-surface $-1 0 0 -4.1166570024719995 0 0 -1 -1 0 0 forward_v I I I I #
loop $-1 $-1 $300 $79 #
coedge $-1 $200 $200 $299 $301 reversed $126 $-1 #
face $-1 $302 $303 $48 $-1 $304 reversed single #
loop $-1 $-1 $305 $128 #
plane-surface $-1 0 -35.490729411087884 0 0 1 0 0 0 1 forward_v I I I I #
coedge $-1 $306 $307 $308 $309 forward $129 $-1 #
coedge $-1 $310 $131 $311 $312 forward $81 $-1 #
coedge $-1 $131 $310 $313 $314 forward $81 $-1 #
coedge $-1 $315 $316 $131 $208 reversed $317 $-1 #
edge $-1 $318 -35.490729411087884 $319 35.490729411087884 $207 $320 forward 7 unknown #
face $-1 $321 $322 $49 $-1 $323 reversed single #
loop $-1 $-1 $324 $132 #
plane-surface $-1 0 -1.5 0 0 1 0 0 0 1 forward_v I I I I #
coedge $-1 $325 $326 $327 $328 forward $133 $-1 #
coedge $-1 $329 $135 $330 $331 forward $84 $-1 #
coedge $-1 $135 $329 $332 $333 forward $84 $-1 #
coedge $-1 $334 $335 $135 $216 reversed $336 $-1 #
edge $-1 $337 -1.5 $338 1.5 $215 $339 forward 7 unknown #
face $-1 $340 $341 $50 $-1 $342 reversed single #
loop $-1 $-1 $343 $136 #
plane-surface $-1 0 -213.8053529465621 0 0 1 0 0 0 1 forward_v I I I I #
coedge $-1 $344 $345 $346 $347 forward $137 $-1 #
coedge $-1 $348 $139 $349 $350 forward $87 $-1 #
coedge $-1 $139 $348 $351 $352 forward $87 $-1 #
coedge $-1 $353 $354 $139 $224 reversed $355 $-1 #
edge $-1 $356 -213.8053529465621 $357 213.8053529465621 $223 $358 forward 7 unknown #
loop $-1 $359 $360 $140 #
cone-surface $-1 0 0 0 0 0 1 0.75 0 0 1 I I -0.70710678118654757 0.70710678118654757 0.75 forward I I I I #
coedge $-1 $227 $227 $144 $229 forward $141 $-1 #
coedge $-1 $228 $228 $360 $361 forward $143 $-1 #
edge $-1 $362 0 $362 6.2831853071796004 $227 $363 forward 7 unknown #
face $-1 $364 $365 $52 $-1 $366 reversed single #
loop $-1 $-1 $367 $145 #
plane-surface $-1 0 -213.8053529465621 0 0 1 0 0 0 1 forward_v I I I I #
coedge $-1 $368 $369 $370 $371 forward $146 $-1 #
coedge $-1 $372 $148 $373 $374 forward $93 $-1 #
coedge $-1 $148 $372 $375 $376 forward $93 $-1 #
coedge $-1 $377 $378 $148 $237 reversed $379 $-1 #
edge $-1 $380 -213.8053529465621 $381 213.8053529465621 $236 $382 forward 7 unknown #
loop $-1 $383 $384 $149 #
cone-surface $-1 0 0 0 0 0 1 0.5 0 0 1 I I -0.70710678118654746 0.70710678118654746 0.5 forward I I I I #
coedge $-1 $240 $240 $153 $242 forward $150 $-1 #
coedge $-1 $241 $241 $384 $385 forward $152 $-1 #
edge $-1 $386 0 $386 6.2831853071796004 $240 $387 forward 7 unknown #
loop $-1 $388 $389 $154 #
cone-surface $-1 0 0 0 0 0 1 0.5 0 0 1 I I -0.70710678118654746 0.70710678118654746 0.5 forward I I I I #
coedge $-1 $245 $245 $158 $247 forward $155 $-1 #
coedge $-1 $246 $246 $389 $390 forward $157 $-1 #
edge $-1 $391 0 $391 6.2831853071796004 $245 $392 forward 7 unknown #
face $-1 $393 $394 $55 $-1 $395 reversed single #
loop $-1 $-1 $396 $159 #
plane-surface $-1 0 -213.8053529465621 0 0 1 0 0 0 1 forward_v I I I I #
coedge $-1 $397 $398 $399 $400 forward $160 $-1 #
coedge $-1 $401 $162 $402 $403 forward $102 $-1 #
coedge $-1 $162 $401 $404 $405 forward $102 $-1 #
coedge $-1 $406 $407 $162 $255 reversed $408 $-1 #
edge $-1 $409 -213.8053529465621 $410 213.8053529465621 $254 $411 forward 7 unknown #
loop $-1 $412 $413 $163 #
cone-surface $-1 0 0 0 0 0 1 0.5 0 0 1 I I -0.70710678118654746 0.70710678118654746 0.5 forward I I I I #
coedge $-1 $258 $258 $167 $260 forward $164 $-1 #
coedge $-1 $259 $259 $413 $414 forward $166 $-1 #
edge $-1 $415 0 $415 6.2831853071796004 $258 $416 forward 7 unknown #
loop $-1 $417 $418 $168 #
cone-surface $-1 0 0 0 0 0 1 0.5 0 0 1 I I -0.70710678118654746 0.70710678118654746 0.5 forward I I I I #
coedge $-1 $263 $263 $172 $265 forward $169 $-1 #
coedge $-1 $264 $264 $418 $419 forward $171 $-1 #
edge $-1 $420 0 $420 6.2831853071796004 $263 $421 forward 7 unknown #
face $-1 $422 $423 $58 $-1 $424 reversed single #
loop $-1 $-1 $425 $173 #
plane-surface $-1 0 -213.8053529465621 0 0 1 0 0 0 1 forward_v I I I I #
coedge $-1 $426 $427 $428 $429 forward $174 $-1 #
coedge $-1 $430 $176 $431 $432 forward $111 $-1 #
coedge $-1 $176 $430 $433 $434 forward $111 $-1 #
coedge $-1 $435 $436 $176 $273 reversed $437 $-1 #
edge $-1 $438 -213.8053529465621 $439 213.8053529465621 $272 $440 forward 7 unknown #
loop $-1 $441 $442 $177 #
cone-surface $-1 0 0 0 0 0 1 0.5 0 0 1 I I -0.70710678118654746 0.70710678118654746 0.5 forward I I I I #
coedge $-1 $276 $276 $181 $278 forward $178 $-1 #
coedge $-1 $277 $277 $442 $443 forward $180 $-1 #
edge $-1 $444 0 $444 6.2831853071796004 $276 $445 forward 7 unknown #
loop $-1 $446 $447 $182 #
cone-surface $-1 0 0 0 0 0 1 0.5 0 0 1 I I -0.70710678118654746 0.70710678118654746 0.5 forward I I I I #
coedge $-1 $281 $281 $186 $283 forward $183 $-1 #
coedge $-1 $282 $282 $447 $448 forward $185 $-1 #
edge $-1 $449 0 $449 6.2831853071796004 $281 $450 forward 7 unknown #
face $-1 $451 $452 $61 $-1 $453 reversed single #
loop $-1 $-1 $454 $187 #
plane-surface $-1 0 -213.8053529465621 0 0 1 0 0 0 1 forward_v I I I I #
coedge $-1 $455 $456 $457 $458 forward $188 $-1 #
coedge $-1 $459 $190 $460 $461 forward $120 $-1 #
coedge $-1 $190 $459 $462 $463 forward $120 $-1 #
coedge $-1 $464 $465 $190 $291 reversed $466 $-1 #
edge $-1 $467 -213.8053529465621 $468 213.8053529465621 $290 $469 forward 7 unknown #
loop $-1 $470 $471 $191 #
cone-surface $-1 0 0 0 0 0 1 0.5 0 0 1 I I -0.70710678118654746 0.70710678118654746 0.5 forward I I I I #
coedge $-1 $294 $294 $195 $296 forward $192 $-1 #
coedge $-1 $295 $295 $471 $472 forward $194 $-1 #
edge $-1 $473 0 $473 6.2831853071796004 $294 $474 forward 7 unknown #
loop $-1 $475 $476 $196 #
cone-surface $-1 0 0 0 0 0 1 0.5 0 0 1 I I -0.70710678118654746 0.70710678118654746 0.5 forward I I I I #
coedge $-1 $299 $299 $200 $301 forward $197 $-1 #
coedge $-1 $300 $300 $476 $477 forward $199 $-1 #
edge $-1 $478 0 $478 6.2831853071796004 $299 $479 forward 7 unknown #
face $-1 $480 $481 $48 $-1 $482 reversed single #
loop $-1 $-1 $483 $201 #
plane-surface $-1 -53.451338236640524 0 0 1 0 0 0 0 -1 forward_v I I I I #
coedge $-1 $484 $313 $485 $486 forward $202 $-1 #
coedge $-1 $487 $204 $484 $488 forward $129 $-1 #
coedge $-1 $204 $487 $489 $490 forward $129 $-1 #
coedge $-1 $316 $315 $204 $309 reversed $317 $-1 #
edge $-1 $491 -35.490729411087884 $492 35.490729411087884 $308 $493 forward 7 unknown #
coedge $-1 $206 $205 $494 $495 forward $81 $-1 #
coedge $-1 $496 $497 $205 $312 reversed $481 $-1 #
edge $-1 $319 -53.451338236640524 $498 53.451338236640524 $311 $499 forward 7 unknown #
coedge $-1 $305 $500 $206 $314 reversed $202 $-1 #
edge $-1 $501 -53.451338236640524 $318 53.451338236640524 $313 $502 forward 7 unknown #
coedge $-1 $308 $207 $500 $503 forward $317 $-1 #
coedge $-1 $207 $308 $496 $504 reversed $317 $-1 #
loop $-1 $-1 $315 $480 #
vertex $-1 $208 $505 #
vertex $-1 $208 $506 #
straight-curve $-1 53.451338236640524 0 7.2827102393955112 0 1 0 I I #
face $-1 $507 $508 $49 $-1 $509 reversed single #
loop $-1 $-1 $510 $209 #
plane-surface $-1 -4.5904411541644183 0 0 1 0 0 0 0 -1 forward_v I I I I #
coedge $-1 $511 $332 $512 $513 forward $210 $-1 #
coedge $-1 $514 $212 $511 $515 forward $133 $-1 #
coedge $-1 $212 $514 $516 $517 forward $133 $-1 #
coedge $-1 $335 $334 $212 $328 reversed $336 $-1 #
edge $-1 $518 -1.5 $519 1.5 $327 $520 forward 7 unknown #
coedge $-1 $214 $213 $521 $522 forward $84 $-1 #
coedge $-1 $523 $524 $213 $331 reversed $508 $-1 #
edge $-1 $338 -4.5904411541644183 $525 4.5904411541644183 $330 $526 forward 7 unknown #
coedge $-1 $324 $527 $214 $333 reversed $210 $-1 #
edge $-1 $528 -4.5904411541644183 $337 4.5904411541644183 $332 $529 forward 7 unknown #
coedge $-1 $327 $215 $527 $530 forward $336 $-1 #
coedge $-1 $215 $327 $523 $531 reversed $336 $-1 #
loop $-1 $-1 $334 $507 #
vertex $-1 $216 $532 #
vertex $-1 $216 $533 #
straight-curve $-1 4.5904411541644183 0 7.2827102393955112 0 1 0 I I #
face $-1 $534 $535 $50 $-1 $536 reversed single #
loop $-1 $-1 $537 $217 #
plane-surface $-1 -6.0781244116910571 0 0 1 0 0 0 0 -1 forward_v I I I I #
coedge $-1 $538 $351 $539 $540 forward $218 $-1 #
coedge $-1 $541 $220 $538 $542 forward $137 $-1 #
coedge $-1 $220 $541 $543 $544 forward $137 $-1 #
coedge $-1 $354 $353 $220 $347 reversed $355 $-1 #
edge $-1 $545 -213.8053529465621 $546 213.8053529465621 $346 $547 forward 7 unknown #
coedge $-1 $222 $221 $548 $549 forward $87 $-1 #
coedge $-1 $550 $551 $221 $350 reversed $535 $-1 #
edge $-1 $357 -6.0781244116910571 $552 6.0781244116910571 $349 $553 forward 7 unknown #
coedge $-1 $343 $554 $222 $352 reversed $218 $-1 #
edge $-1 $555 -6.0781244116910571 $356 6.0781244116910571 $351 $556 forward 7 unknown #
coedge $-1 $346 $223 $554 $557 forward $355 $-1 #
coedge $-1 $223 $346 $550 $558 reversed $355 $-1 #
loop $-1 $-1 $353 $534 #
vertex $-1 $224 $559 #
vertex $-1 $224 $560 #
straight-curve $-1 6.0781244116910571 0 106.90267647328105 0 1 0 I I #
loop $-1 $-1 $561 $140 #
coedge $-1 $360 $360 $228 $361 reversed $225 $-1 #
edge $-1 $562 0 $562 6.2831853071796004 $360 $563 forward 7 unknown #
vertex $-1 $229 $564 #
ellipse-curve $-1 0 0 -5.104197820978424 0 0 -1 1.5 0 0 1 I I #
face $-1 $565 $566 $52 $-1 $567 reversed single #
loop $-1 $-1 $568 $230 #
plane-surface $-1 -7.6603215871835122 0 0 1 0 0 0 0 -1 forward_v I I I I #
coedge $-1 $569 $375 $570 $571 forward $231 $-1 #
coedge $-1 $572 $233 $569 $573 forward $146 $-1 #
coedge $-1 $233 $572 $574 $575 forward $146 $-1 #
coedge $-1 $378 $377 $233 $371 reversed $379 $-1 #
edge $-1 $576 -213.8053529465621 $577 213.8053529465621 $370 $578 forward 7 unknown #
coedge $-1 $235 $234 $579 $580 forward $93 $-1 #
coedge $-1 $581 $582 $234 $374 reversed $566 $-1 #
edge $-1 $381 -7.6603215871835122 $583 7.6603215871835122 $373 $584 forward 7 unknown #
coedge $-1 $367 $585 $235 $376 reversed $231 $-1 #
edge $-1 $586 -7.6603215871835122 $380 7.6603215871835122 $375 $587 forward 7 unknown #
coedge $-1 $370 $236 $585 $588 forward $379 $-1 #
coedge $-1 $236 $370 $581 $589 reversed $379 $-1 #
loop $-1 $-1 $377 $565 #
vertex $-1 $237 $590 #
vertex $-1 $237 $591 #
straight-curve $-1 7.6603215871835122 0 106.90267647328105 0 1 0 I I #
loop $-1 $-1 $592 $149 #
coedge $-1 $384 $384 $241 $385 reversed $238 $-1 #
edge $-1 $593 0 $593 6.2831853071796004 $384 $594 forward 7 unknown #
vertex $-1 $242 $595 #
ellipse-curve $-1 0 0 -4.1166570024719995 0 0 -1 1 0 0 1 I I #
loop $-1 $-1 $596 $154 #
coedge $-1 $389 $389 $246 $390 reversed $243 $-1 #
edge $-1 $597 0 $597 6.2831853071796004 $389 $598 forward 7 unknown #
vertex $-1 $247 $599 #
ellipse-curve $-1 0 0 -4.1166570024719995 0 0 -1 1 0 0 1 I I #
face $-1 $600 $601 $55 $-1 $602 reversed single #
loop $-1 $-1 $603 $248 #
plane-surface $-1 -7.6603215871835122 0 0 1 0 0 0 0 -1 forward_v I I I I #
coedge $-1 $604 $404 $605 $606 forward $249 $-1 #
coedge $-1 $607 $251 $604 $608 forward $160 $-1 #
coedge $-1 $251 $607 $609 $610 forward $160 $-1 #
coedge $-1 $407 $406 $251 $400 reversed $408 $-1 #
edge $-1 $611 -213.8053529465621 $612 213.8053529465621 $399 $613 forward 7 unknown #
coedge $-1 $253 $252 $614 $615 forward $102 $-1 #
coedge $-1 $616 $617 $252 $403 reversed $601 $-1 #
edge $-1 $410 -7.6603215871835122 $618 7.6603215871835122 $402 $619 forward 7 unknown #
coedge $-1 $396 $620 $253 $405 reversed $249 $-1 #
edge $-1 $621 -7.6603215871835122 $409 7.6603215871835122 $404 $622 forward 7 unknown #
coedge $-1 $399 $254 $620 $623 forward $408 $-1 #
coedge $-1 $254 $399 $616 $624 reversed $408 $-1 #
loop $-1 $-1 $406 $600 #
vertex $-1 $255 $625 #
vertex $-1 $255 $626 #
straight-curve $-1 7.6603215871835122 0 106.90267647328105 0 1 0 I I #
loop $-1 $-1 $627 $163 #
coedge $-1 $413 $413 $259 $414 reversed $256 $-1 #
edge $-1 $628 0 $628 6.2831853071796004 $413 $629 forward 7 unknown #
vertex $-1 $260 $630 #
ellipse-curve $-1 0 0 -4.1166570024719995 0 0 -1 1 0 0 1 I I #
loop $-1 $-1 $631 $168 #
coedge $-1 $418 $418 $264 $419 reversed $261 $-1 #
edge $-1 $632 0 $632 6.2831853071796004 $418 $633 forward 7 unknown #
vertex $-1 $265 $634 #
ellipse-curve $-1 0 0 -4.1166570024719995 0 0 -1 1 0 0 1 I I #
face $-1 $635 $636 $58 $-1 $637 reversed single #
loop $-1 $-1 $638 $266 #
plane-surface $-1 -7.6603215871835122 0 0 1 0 0 0 0 -1 forward_v I I I I #
coedge $-1 $639 $433 $640 $641 forward $267 $-1 #
coedge $-1 $642 $269 $639 $643 forward $174 $-1 #
coedge $-1 $269 $642 $644 $645 forward $174 $-1 #
coedge $-1 $436 $435 $269 $429 reversed $437 $-1 #
edge $-1 $646 -213.8053529465621 $647 213.8053529465621 $428 $648 forward 7 unknown #
coedge $-1 $271 $270 $649 $650 forward $111 $-1 #
coedge $-1 $651 $652 $270 $432 reversed $636 $-1 #
edge $-1 $439 -7.6603215871835122 $653 7.6603215871835122 $431 $654 forward 7 unknown #
coedge $-1 $425 $655 $271 $434 reversed $267 $-1 #
edge $-1 $656 -7.6603215871835122 $438 7.6603215871835122 $433 $657 forward 7 unknown #
coedge $-1 $428 $272 $655 $658 forward $437 $-1 #
coedge $-1 $272 $428 $651 $659 reversed $437 $-1 #
loop $-1 $-1 $435 $635 #
vertex $-1 $273 $660 #
vertex $-1 $273 $661 #
straight-curve $-1 7.6603215871835122 0 106.90267647328105 0 1 0 I I #
loop $-1 $-1 $662 $177 #
coedge $-1 $442 $442 $277 $443 reversed $274 $-1 #
edge $-1 $663 0 $663 6.2831853071796004 $442 $664 forward 7 unknown #
vertex $-1 $278 $665 #
ellipse-curve $-1 0 0 -4.1166570024719995 0 0 -1 1 0 0 1 I I #
loop $-1 $-1 $666 $182 #
coedge $-1 $447 $447 $282 $448 reversed $279 $-1 #
edge $-1 $667 0 $667 6.2831853071796004 $447 $668 forward 7 unknown #
vertex $-1 $283 $669 #
ellipse-curve $-1 0 0 -4.1166570024719995 0 0 -1 1 0 0 1 I I #
face $-1 $670 $671 $61 $-1 $672 reversed single #
loop $-1 $-1 $673 $284 #
plane-surface $-1 -7.6603215871835122 0 0 1 0 0 0 0 -1 forward_v I I I I #
coedge $-1 $674 $462 $675 $676 forward $285 $-1 #
coedge $-1 $677 $287 $674 $678 forward $188 $-1 #
coedge $-1 $287 $677 $679 $680 forward $188 $-1 #
coedge $-1 $465 $464 $287 $458 reversed $466 $-1 #
edge $-1 $681 -213.8053529465621 $682 213.8053529465621 $457 $683 forward 7 unknown #
coedge $-1 $289 $288 $684 $685 forward $120 $-1 #
coedge $-1 $686 $687 $288 $461 reversed $671 $-1 #
edge $-1 $468 -7.6603215871835122 $688 7.6603215871835122 $460 $689 forward 7 unknown #
coedge $-1 $454 $690 $289 $463 reversed $285 $-1 #
edge $-1 $691 -7.6603215871835122 $467 7.6603215871835122 $462 $692 forward 7 unknown #
coedge $-1 $457 $290 $690 $693 forward $466 $-1 #
coedge $-1 $290 $457 $686 $694 reversed $466 $-1 #
loop $-1 $-1 $464 $670 #
vertex $-1 $291 $695 #
vertex $-1 $291 $696 #
straight-curve $-1 7.6603215871835122 0 106.90267647328105 0 1 0 I I #
loop $-1 $-1 $697 $191 #
coedge $-1 $471 $471 $295 $472 reversed $292 $-1 #
edge $-1 $698 0 $698 6.2831853071796004 $471 $699 forward 7 unknown #
vertex $-1 $296 $700 #
ellipse-curve $-1 0 0 -4.1166570024719995 0 0 -1 1 0 0 1 I I #
loop $-1 $-1 $701 $196 #
coedge $-1 $476 $476 $300 $477 reversed $297 $-1 #
edge $-1 $702 0 $702 6.2831853071796004 $476 $703 forward 7 unknown #
vertex $-1 $301 $704 #
ellipse-curve $-1 0 0 -4.1166570024719995 0 0 -1 1 0 0 1 I I #
face $-1 $-1 $317 $48 $-1 $705 reversed single #
loop $-1 $-1 $496 $302 #
plane-surface $-1 0 35.490729411087884 0 0 -1 0 0 0 -1 forward_v I I I I #
coedge $-1 $706 $494 $497 $707 forward $303 $-1 #
coedge $-1 $500 $305 $306 $488 reversed $202 $-1 #
coedge $-1 $494 $706 $305 $486 reversed $303 $-1 #
edge $-1 $501 -7.2827102393955112 $708 7.2827102393955112 $485 $709 forward 7 unknown #
coedge $-1 $307 $306 $706 $710 forward $129 $-1 #
edge $-1 $492 -53.451338236640524 $708 53.451338236640524 $484 $711 forward 7 unknown #
coedge $-1 $497 $496 $307 $490 reversed $481 $-1 #
edge $-1 $712 -53.451338236640524 $491 53.451338236640524 $489 $713 forward 7 unknown #
vertex $-1 $309 $714 #
vertex $-1 $503 $715 #
straight-curve $-1 53.451338236640524 0 -7.2827102393955112 0 -1 0 I I #
coedge $-1 $483 $485 $310 $495 reversed $303 $-1 #
edge $-1 $498 -35.490729411087884 $501 35.490729411087884 $494 $716 forward 7 unknown #
coedge $-1 $489 $311 $316 $504 forward $481 $-1 #
coedge $-1 $311 $489 $483 $707 reversed $481 $-1 #
vertex $-1 $312 $717 #
straight-curve $-1 0 35.490729411087884 7.2827102393955112 -1 0 0 I I #
coedge $-1 $313 $484 $315 $503 reversed $202 $-1 #
vertex $-1 $495 $718 #
straight-curve $-1 0 -35.490729411087884 7.2827102393955112 1 0 0 I I #
edge $-1 $318 -7.2827102393955112 $492 7.2827102393955112 $315 $719 forward 7 unknown #
edge $-1 $319 -7.2827102393955112 $491 7.2827102393955112 $316 $720 forward 7 unknown #
point $-1 53.451338236640524 -35.490729411087884 7.2827102393955112 #
point $-1 53.451338236640524 35.490729411087884 7.2827102393955112 #
face $-1 $-1 $336 $49 $-1 $721 reversed single #
loop $-1 $-1 $523 $321 #
plane-surface $-1 0 1.5 0 0 -1 0 0 0 -1 forward_v I I I I #
coedge $-1 $722 $521 $524 $723 forward $322 $-1 #
coedge $-1 $527 $324 $325 $515 reversed $210 $-1 #
coedge $-1 $521 $722 $324 $513 reversed $322 $-1 #
edge $-1 $528 -7.2827102393955112 $724 7.2827102393955112 $512 $725 forward 7 unknown #
coedge $-1 $326 $325 $722 $726 forward $133 $-1 #
edge $-1 $519 -4.5904411541644183 $724 4.5904411541644183 $511 $727 forward 7 unknown #
coedge $-1 $524 $523 $326 $517 reversed $508 $-1 #
edge $-1 $728 -4.5904411541644183 $518 4.5904411541644183 $516 $729 forward 7 unknown #
vertex $-1 $328 $730 #
vertex $-1 $530 $731 #
straight-curve $-1 4.5904411541644183 0 -7.2827102393955112 0 -1 0 I I #
coedge $-1 $510 $512 $329 $522 reversed $322 $-1 #
edge $-1 $525 -1.5 $528 1.5 $521 $732 forward 7 unknown #
coedge $-1 $516 $330 $335 $531 forward $508 $-1 #
coedge $-1 $330 $516 $510 $723 reversed $508 $-1 #
vertex $-1 $331 $733 #
straight-curve $-1 0 1.5 7.2827102393955112 -1 0 0 I I #
coedge $-1 $332 $511 $334 $530 reversed $210 $-1 #
vertex $-1 $522 $734 #
straight-curve $-1 0 -1.5 7.2827102393955112 1 0 0 I I #
edge $-1 $337 -7.2827102393955112 $519 7.2827102393955112 $334 $735 forward 7 unknown #
edge $-1 $338 -7.2827102393955112 $518 7.2827102393955112 $335 $736 forward 7 unknown #
point $-1 4.5904411541644183 -1.5 7.2827102393955112 #
point $-1 4.5904411541644183 1.5 7.2827102393955112 #
face $-1 $-1 $355 $50 $-1 $737 reversed single #
loop $-1 $-1 $550 $340 #
plane-surface $-1 0 213.8053529465621 0 0 -1 0 0 0 -1 forward_v I I I I #
coedge $-1 $738 $548 $551 $739 forward $341 $-1 #
coedge $-1 $554 $343 $344 $542 reversed $218 $-1 #
coedge $-1 $548 $738 $343 $540 reversed $341 $-1 #
edge $-1 $555 -106.90267647328105 $740 106.90267647328105 $539 $741 forward 7 unknown #
coedge $-1 $345 $344 $738 $742 forward $137 $-1 #
edge $-1 $546 -6.0781244116910571 $740 6.0781244116910571 $538 $743 forward 7 unknown #
coedge $-1 $551 $550 $345 $544 reversed $535 $-1 #
edge $-1 $744 -6.0781244116910571 $545 6.0781244116910571 $543 $745 forward 7 unknown #
vertex $-1 $347 $746 #
vertex $-1 $557 $747 #
straight-curve $-1 6.0781244116910571 0 -106.90267647328105 0 -1 0 I I #
coedge $-1 $537 $539 $348 $549 reversed $341 $-1 #
edge $-1 $552 -213.8053529465621 $555 213.8053529465621 $548 $748 forward 7 unknown #
coedge $-1 $543 $349 $354 $558 forward $535 $-1 #
coedge $-1 $349 $543 $537 $739 reversed $535 $-1 #
vertex $-1 $350 $749 #
straight-curve $-1 0 213.8053529465621 106.90267647328105 -1 0 0 I I #
coedge $-1 $351 $538 $353 $557 reversed $218 $-1 #
vertex $-1 $549 $750 #
straight-curve $-1 0 -213.8053529465621 106.90267647328105 1 0 0 I I #
edge $-1 $356 -106.90267647328105 $546 106.90267647328105 $353 $751 forward 7 unknown #
edge $-1 $357 -106.90267647328105 $545 106.90267647328105 $354 $752 forward 7 unknown #
point $-1 6.0781244116910571 -213.8053529465621 106.90267647328105 #
point $-1 6.0781244116910571 213.8053529465621 106.90267647328105 #
coedge $-1 $561 $561 $-1 $753 reversed $359 $-1 #
vertex $-1 $361 $754 #
ellipse-curve $-1 0 0 -0.75 0 0 -1 1.5 0 0 1 I I #
point $-1 1.5 0 -5.104197820978424 #
face $-1 $-1 $379 $52 $-1 $755 reversed single #
loop $-1 $-1 $581 $364 #
plane-surface $-1 0 213.8053529465621 0 0 -1 0 0 0 -1 forward_v I I I I #
coedge $-1 $756 $579 $582 $757 forward $365 $-1 #
coedge $-1 $585 $367 $368 $573 reversed $231 $-1 #
coedge $-1 $579 $756 $367 $571 reversed $365 $-1 #
edge $-1 $586 -106.90267647328105 $758 106.90267647328105 $570 $759 forward 7 unknown #
coedge $-1 $369 $368 $756 $760 forward $146 $-1 #
edge $-1 $577 -7.6603215871835122 $758 7.6603215871835122 $569 $761 forward 7 unknown #
coedge $-1 $582 $581 $369 $575 reversed $566 $-1 #
edge $-1 $762 -7.6603215871835122 $576 7.6603215871835122 $574 $763 forward 7 unknown #
vertex $-1 $371 $764 #
vertex $-1 $588 $765 #
straight-curve $-1 7.6603215871835122 0 -106.90267647328105 0 -1 0 I I #
coedge $-1 $568 $570 $372 $580 reversed $365 $-1 #
edge $-1 $583 -213.8053529465621 $586 213.8053529465621 $579 $766 forward 7 unknown #
coedge $-1 $574 $373 $378 $589 forward $566 $-1 #
coedge $-1 $373 $574 $568 $757 reversed $566 $-1 #
vertex $-1 $374 $767 #
straight-curve $-1 0 213.8053529465621 106.90267647328105 -1 0 0 I I #
coedge $-1 $375 $569 $377 $588 reversed $231 $-1 #
vertex $-1 $580 $768 #
straight-curve $-1 0 -213.8053529465621 106.90267647328105 1 0 0 I I #
edge $-1 $380 -106.90267647328105 $577 106.90267647328105 $377 $769 forward 7 unknown #
edge $-1 $381 -106.90267647328105 $576 106.90267647328105 $378 $770 forward 7 unknown #
point $-1 7.6603215871835122 -213.8053529465621 106.90267647328105 #
point $-1 7.6603215871835122 213.8053529465621 106.90267647328105 #
coedge $-1 $592 $592 $-1 $771 reversed $383 $-1 #
vertex $-1 $385 $772 #
ellipse-curve $-1 0 0 -0.5 0 0 -1 1 0 0 1 I I #
point $-1 1 0 -4.1166570024719995 #
coedge $-1 $596 $596 $-1 $773 reversed $388 $-1 #
vertex $-1 $390 $774 #
ellipse-curve $-1 0 0 -0.5 0 0 -1 1 0 0 1 I I #
point $-1 1 0 -4.1166570024719995 #
face $-1 $-1 $408 $55 $-1 $775 reversed single #
loop $-1 $-1 $616 $393 #
plane-surface $-1 0 213.8053529465621 0 0 -1 0 0 0 -1 forward_v I I I I #
coedge $-1 $776 $614 $617 $777 forward $394 $-1 #
coedge $-1 $620 $396 $397 $608 reversed $249 $-1 #
coedge $-1 $614 $776 $396 $606 reversed $394 $-1 #
edge $-1 $621 -106.90267647328105 $778 106.90267647328105 $605 $779 forward 7 unknown #
coedge $-1 $398 $397 $776 $780 forward $160 $-1 #
edge $-1 $612 -7.6603215871835122 $778 7.6603215871835122 $604 $781 forward 7 unknown #
coedge $-1 $617 $616 $398 $610 reversed $601 $-1 #
edge $-1 $782 -7.6603215871835122 $611 7.6603215871835122 $609 $783 forward 7 unknown #
vertex $-1 $400 $784 #
vertex $-1 $623 $785 #
straight-curve $-1 7.6603215871835122 0 -106.90267647328105 0 -1 0 I I #
coedge $-1 $603 $605 $401 $615 reversed $394 $-1 #
edge $-1 $618 -213.8053529465621 $621 213.8053529465621 $614 $786 forward 7 unknown #
coedge $-1 $609 $402 $407 $624 forward $601 $-1 #
coedge $-1 $402 $609 $603 $777 reversed $601 $-1 #
vertex $-1 $403 $787 #
straight-curve $-1 0 213.8053529465621 106.90267647328105 -1 0 0 I I #
coedge $-1 $404 $604 $406 $623 reversed $249 $-1 #
vertex $-1 $615 $788 #
straight-curve $-1 0 -213.8053529465621 106.90267647328105 1 0 0 I I #
edge $-1 $409 -106.90267647328105 $612 106.90267647328105 $406 $789 forward 7 unknown #
edge $-1 $410 -106.90267647328105 $611 106.90267647328105 $407 $790 forward 7 unknown #
point $-1 7.6603215871835122 -213.8053529465621 106.90267647328105 #
point $-1 7.6603215871835122 213.8053529465621 106.90267647328105 #
coedge $-1 $627 $627 $-1 $791 reversed $412 $-1 #
vertex $-1 $414 $792 #
ellipse-curve $-1 0 0 -0.5 0 0 -1 1 0 0 1 I I #
point $-1 1 0 -4.1166570024719995 #
coedge $-1 $631 $631 $-1 $793 reversed $417 $-1 #
vertex $-1 $419 $794 #
ellipse-curve $-1 0 0 -0.5 0 0 -1 1 0 0 1 I I #
point $-1 1 0 -4.1166570024719995 #
face $-1 $-1 $437 $58 $-1 $795 reversed single #
loop $-1 $-1 $651 $422 #
plane-surface $-1 0 213.8053529465621 0 0 -1 0 0 0 -1 forward_v I I I I #
coedge $-1 $796 $649 $652 $797 forward $423 $-1 #
coedge $-1 $655 $425 $426 $643 reversed $267 $-1 #
coedge $-1 $649 $796 $425 $641 reversed $423 $-1 #
edge $-1 $656 -106.90267647328105 $798 106.90267647328105 $640 $799 forward 7 unknown #
coedge $-1 $427 $426 $796 $800 forward $174 $-1 #
edge $-1 $647 -7.6603215871835122 $798 7.6603215871835122 $639 $801 forward 7 unknown #
coedge $-1 $652 $651 $427 $645 reversed $636 $-1 #
edge $-1 $802 -7.6603215871835122 $646 7.6603215871835122 $644 $803 forward 7 unknown #
vertex $-1 $429 $804 #
vertex $-1 $658 $805 #
straight-curve $-1 7.6603215871835122 0 -106.90267647328105 0 -1 0 I I #
coedge $-1 $638 $640 $430 $650 reversed $423 $-1 #
edge $-1 $653 -213.8053529465621 $656 213.8053529465621 $649 $806 forward 7 unknown #
coedge $-1 $644 $431 $436 $659 forward $636 $-1 #
coedge $-1 $431 $644 $638 $797 reversed $636 $-1 #
vertex $-1 $432 $807 #
straight-curve $-1 0 213.8053529465621 106.90267647328105 -1 0 0 I I #
coedge $-1 $433 $639 $435 $658 reversed $267 $-1 #
vertex $-1 $650 $808 #
straight-curve $-1 0 -213.8053529465621 106.90267647328105 1 0 0 I I #
edge $-1 $438 -106.90267647328105 $647 106.90267647328105 $435 $809 forward 7 unknown #
edge $-1 $439 -106.90267647328105 $646 106.90267647328105 $436 $810 forward 7 unknown #
point $-1 7.6603215871835122 -213.8053529465621 106.90267647328105 #
point $-1 7.6603215871835122 213.8053529465621 106.90267647328105 #
coedge $-1 $662 $662 $-1 $811 reversed $441 $-1 #
vertex $-1 $443 $812 #
ellipse-curve $-1 0 0 -0.5 0 0 -1 1 0 0 1 I I #
point $-1 1 0 -4.1166570024719995 #
coedge $-1 $666 $666 $-1 $813 reversed $446 $-1 #
vertex $-1 $448 $814 #
ellipse-curve $-1 0 0 -0.5 0 0 -1 1 0 0 1 I I #
point $-1 1 0 -4.1166570024719995 #
face $-1 $-1 $466 $61 $-1 $815 reversed single #
loop $-1 $-1 $686 $451 #
plane-surface $-1 0 213.8053529465621 0 0 -1 0 0 0 -1 forward_v I I I I #
coedge $-1 $816 $684 $687 $817 forward $452 $-1 #
coedge $-1 $690 $454 $455 $678 reversed $285 $-1 #
coedge $-1 $684 $816 $454 $676 reversed $452 $-1 #
edge $-1 $691 -106.90267647328105 $818 106.90267647328105 $675 $819 forward 7 unknown #
coedge $-1 $456 $455 $816 $820 forward $188 $-1 #
edge $-1 $682 -7.6603215871835122 $818 7.6603215871835122 $674 $821 forward 7 unknown #
coedge $-1 $687 $686 $456 $680 reversed $671 $-1 #
edge $-1 $822 -7.6603215871835122 $681 7.6603215871835122 $679 $823 forward 7 unknown #
vertex $-1 $458 $824 #
vertex $-1 $693 $825 #
straight-curve $-1 7.6603215871835122 0 -106.90267647328105 0 -1 0 I I #
coedge $-1 $673 $675 $459 $685 reversed $452 $-1 #
edge $-1 $688 -213.8053529465621 $691 213.8053529465621 $684 $826 forward 7 unknown #
coedge $-1 $679 $460 $465 $694 forward $671 $-1 #
coedge $-1 $460 $679 $673 $817 reversed $671 $-1 #
vertex $-1 $461 $827 #
straight-curve $-1 0 213.8053529465621 106.90267647328105 -1 0 0 I I #
coedge $-1 $462 $674 $464 $693 reversed $285 $-1 #
vertex $-1 $685 $828 #
straight-curve $-1 0 -213.8053529465621 106.90267647328105 1 0 0 I I #
edge $-1 $467 -106.90267647328105 $682 106.90267647328105 $464 $829 forward 7 unknown #
edge $-1 $468 -106.90267647328105 $681 106.90267647328105 $465 $830 forward 7 unknown #
point $-1 7.6603215871835122 -213.8053529465621 106.90267647328105 #
point $-1 7.6603215871835122 213.8053529465621 106.90267647328105 #
coedge $-1 $697 $697 $-1 $831 reversed $470 $-1 #
vertex $-1 $472 $832 #
ellipse-curve $-1 0 0 -0.5 0 0 -1 1 0 0 1 I I #
point $-1 1 0 -4.1166570024719995 #
coedge $-1 $701 $701 $-1 $833 reversed $475 $-1 #
vertex $-1 $477 $834 #
ellipse-curve $-1 0 0 -0.5 0 0 -1 1 0 0 1 I I #
point $-1 1 0 -4.1166570024719995 #
plane-surface $-1 53.451338236640524 0 0 -1 0 0 0 0 1 forward_v I I I I #
coedge $-1 $485 $483 $487 $710 reversed $303 $-1 #
edge $-1 $498 -7.2827102393955112 $712 7.2827102393955112 $497 $835 forward 7 unknown #
vertex $-1 $710 $836 #
straight-curve $-1 -53.451338236640524 -35.490729411087884 0 0 0 -1 I I #
edge $-1 $708 -35.490729411087884 $712 35.490729411087884 $706 $837 forward 7 unknown #
straight-curve $-1 0 -35.490729411087884 -7.2827102393955112 -1 0 0 I I #
vertex $-1 $490 $838 #
straight-curve $-1 0 35.490729411087884 -7.2827102393955112 1 0 0 I I #
point $-1 53.451338236640524 35.490729411087884 -7.2827102393955112 #
point $-1 53.451338236640524 -35.490729411087884 -7.2827102393955112 #
straight-curve $-1 -53.451338236640524 0 7.2827102393955112 0 -1 0 I I #
point $-1 -53.451338236640524 35.490729411087884 7.2827102393955112 #
point $-1 -53.451338236640524 -35.490729411087884 7.2827102393955112 #
straight-curve $-1 53.451338236640524 -35.490729411087884 0 0 0 -1 I I #
straight-curve $-1 53.451338236640524 35.490729411087884 0 0 0 -1 I I #
plane-surface $-1 4.5904411541644183 0 0 -1 0 0 0 0 1 forward_v I I I I #
coedge $-1 $512 $510 $514 $726 reversed $322 $-1 #
edge $-1 $525 -7.2827102393955112 $728 7.2827102393955112 $524 $839 forward 7 unknown #
vertex $-1 $726 $840 #
straight-curve $-1 -4.5904411541644183 -1.5 0 0 0 -1 I I #
edge $-1 $724 -1.5 $728 1.5 $722 $841 forward 7 unknown #
straight-curve $-1 0 -1.5 -7.2827102393955112 -1 0 0 I I #
vertex $-1 $517 $842 #
straight-curve $-1 0 1.5 -7.2827102393955112 1 0 0 I I #
point $-1 4.5904411541644183 1.5 -7.2827102393955112 #
point $-1 4.5904411541644183 -1.5 -7.2827102393955112 #
straight-curve $-1 -4.5904411541644183 0 7.2827102393955112 0 -1 0 I I #
point $-1 -4.5904411541644183 1.5 7.2827102393955112 #
point $-1 -4.5904411541644183 -1.5 7.2827102393955112 #
straight-curve $-1 4.5904411541644183 -1.5 0 0 0 -1 I I #
straight-curve $-1 4.5904411541644183 1.5 0 0 0 -1 I I #
plane-surface $-1 6.0781244116910571 0 0 -1 0 0 0 0 1 forward_v I I I I #
coedge $-1 $539 $537 $541 $742 reversed $341 $-1 #
edge $-1 $552 -106.90267647328105 $744 106.90267647328105 $551 $843 forward 7 unknown #
vertex $-1 $742 $844 #
straight-curve $-1 -6.0781244116910571 -213.8053529465621 0 0 0 -1 I I #
edge $-1 $740 -213.8053529465621 $744 213.8053529465621 $738 $845 forward 7 unknown #
straight-curve $-1 0 -213.8053529465621 -106.90267647328105 -1 0 0 I I #
vertex $-1 $544 $846 #
straight-curve $-1 0 213.8053529465621 -106.90267647328105 1 0 0 I I #
point $-1 6.0781244116910571 213.8053529465621 -106.90267647328105 #
point $-1 6.0781244116910571 -213.8053529465621 -106.90267647328105 #
straight-curve $-1 -6.0781244116910571 0 106.90267647328105 0 -1 0 I I #
point $-1 -6.0781244116910571 213.8053529465621 106.90267647328105 #
point $-1 -6.0781244116910571 -213.8053529465621 106.90267647328105 #
straight-curve $-1 6.0781244116910571 -213.8053529465621 0 0 0 -1 I I #
straight-curve $-1 6.0781244116910571 213.8053529465621 0 0 0 -1 I I #
edge $-1 $847 1 $847 0 $561 $-1 forward 7 unknown #
point $-1 1.5 0 -0.75 #
plane-surface $-1 7.6603215871835122 0 0 -1 0 0 0 0 1 forward_v I I I I #
coedge $-1 $570 $568 $572 $760 reversed $365 $-1 #
edge $-1 $583 -106.90267647328105 $762 106.90267647328105 $582 $848 forward 7 unknown #
vertex $-1 $760 $849 #
straight-curve $-1 -7.6603215871835122 -213.8053529465621 0 0 0 -1 I I #
edge $-1 $758 -213.8053529465621 $762 213.8053529465621 $756 $850 forward 7 unknown #
straight-curve $-1 0 -213.8053529465621 -106.90267647328105 -1 0 0 I I #
vertex $-1 $575 $851 #
straight-curve $-1 0 213.8053529465621 -106.90267647328105 1 0 0 I I #
point $-1 7.6603215871835122 213.8053529465621 -106.90267647328105 #
point $-1 7.6603215871835122 -213.8053529465621 -106.90267647328105 #
straight-curve $-1 -7.6603215871835122 0 106.90267647328105 0 -1 0 I I #
point $-1 -7.6603215871835122 213.8053529465621 106.90267647328105 #
point $-1 -7.6603215871835122 -213.8053529465621 106.90267647328105 #
straight-curve $-1 7.6603215871835122 -213.8053529465621 0 0 0 -1 I I #
straight-curve $-1 7.6603215871835122 213.8053529465621 0 0 0 -1 I I #
edge $-1 $852 1 $852 0 $592 $-1 forward 7 unknown #
point $-1 1 0 -0.5 #
edge $-1 $853 1 $853 0 $596 $-1 forward 7 unknown #
point $-1 1 0 -0.5 #
plane-surface $-1 7.6603215871835122 0 0 -1 0 0 0 0 1 forward_v I I I I #
coedge $-1 $605 $603 $607 $780 reversed $394 $-1 #
edge $-1 $618 -106.90267647328105 $782 106.90267647328105 $617 $854 forward 7 unknown #
vertex $-1 $780 $855 #
straight-curve $-1 -7.6603215871835122 -213.8053529465621 0 0 0 -1 I I #
edge $-1 $778 -213.8053529465621 $782 213.8053529465621 $776 $856 forward 7 unknown #
straight-curve $-1 0 -213.8053529465621 -106.90267647328105 -1 0 0 I I #
vertex $-1 $610 $857 #
straight-curve $-1 0 213.8053529465621 -106.90267647328105 1 0 0 I I #
point $-1 7.6603215871835122 213.8053529465621 -106.90267647328105 #
point $-1 7.6603215871835122 -213.8053529465621 -106.90267647328105 #
straight-curve $-1 -7.6603215871835122 0 106.90267647328105 0 -1 0 I I #
point $-1 -7.6603215871835122 213.8053529465621 106.90267647328105 #
point $-1 -7.6603215871835122 -213.8053529465621 106.90267647328105 #
straight-curve $-1 7.6603215871835122 -213.8053529465621 0 0 0 -1 I I #
straight-curve $-1 7.6603215871835122 213.8053529465621 0 0 0 -1 I I #
edge $-1 $858 1 $858 0 $627 $-1 forward 7 unknown #
point $-1 1 0 -0.5 #
edge $-1 $859 1 $859 0 $631 $-1 forward 7 unknown #
point $-1 1 0 -0.5 #
plane-surface $-1 7.6603215871835122 0 0 -1 0 0 0 0 1 forward_v I I I I #
coedge $-1 $640 $638 $642 $800 reversed $423 $-1 #
edge $-1 $653 -106.90267647328105 $802 106.90267647328105 $652 $860 forward 7 unknown #
vertex $-1 $800 $861 #
straight-curve $-1 -7.6603215871835122 -213.8053529465621 0 0 0 -1 I I #
edge $-1 $798 -213.8053529465621 $802 213.8053529465621 $796 $862 forward 7 unknown #
straight-curve $-1 0 -213.8053529465621 -106.90267647328105 -1 0 0 I I #
vertex $-1 $645 $863 #
straight-curve $-1 0 213.8053529465621 -106.90267647328105 1 0 0 I I #
point $-1 7.6603215871835122 213.8053529465621 -106.90267647328105 #
point $-1 7.6603215871835122 -213.8053529465621 -106.90267647328105 #
straight-curve $-1 -7.6603215871835122 0 106.90267647328105 0 -1 0 I I #
point $-1 -7.6603215871835122 213.8053529465621 106.90267647328105 #
point $-1 -7.6603215871835122 -213.8053529465621 106.90267647328105 #
straight-curve $-1 7.6603215871835122 -213.8053529465621 0 0 0 -1 I I #
straight-curve $-1 7.6603215871835122 213.8053529465621 0 0 0 -1 I I #
edge $-1 $864 1 $864 0 $662 $-1 forward 7 unknown #
point $-1 1 0 -0.5 #
edge $-1 $865 1 $865 0 $666 $-1 forward 7 unknown #
point $-1 1 0 -0.5 #
plane-surface $-1 7.6603215871835122 0 0 -1 0 0 0 0 1 forward_v I I I I #
coedge $-1 $675 $673 $677 $820 reversed $452 $-1 #
edge $-1 $688 -106.90267647328105 $822 106.90267647328105 $687 $866 forward 7 unknown #
vertex $-1 $820 $867 #
straight-curve $-1 -7.6603215871835122 -213.8053529465621 0 0 0 -1 I I #
edge $-1 $818 -213.8053529465621 $822 213.8053529465621 $816 $868 forward 7 unknown #
straight-curve $-1 0 -213.8053529465621 -106.90267647328105 -1 0 0 I I #
vertex $-1 $680 $869 #
straight-curve $-1 0 213.8053529465621 -106.90267647328105 1 0 0 I I #
point $-1 7.6603215871835122 213.8053529465621 -106.90267647328105 #
point $-1 7.6603215871835122 -213.8053529465621 -106.90267647328105 #
straight-curve $-1 -7.6603215871835122 0 106.90267647328105 0 -1 0 I I #
point $-1 -7.6603215871835122 213.8053529465621 106.90267647328105 #
point $-1 -7.6603215871835122 -213.8053529465621 106.90267647328105 #
straight-curve $-1 7.6603215871835122 -213.8053529465621 0 0 0 -1 I I #
straight-curve $-1 7.6603215871835122 213.8053529465621 0 0 0 -1 I I #
edge $-1 $870 1 $870 0 $697 $-1 forward 7 unknown #
point $-1 1 0 -0.5 #
edge $-1 $871 1 $871 0 $701 $-1 forward 7 unknown #
point $-1 1 0 -0.5 #
straight-curve $-1 -53.451338236640524 35.490729411087884 0 0 0 -1 I I #
point $-1 -53.451338236640524 -35.490729411087884 -7.2827102393955112 #
straight-curve $-1 -53.451338236640524 0 -7.2827102393955112 0 1 0 I I #
point $-1 -53.451338236640524 35.490729411087884 -7.2827102393955112 #
straight-curve $-1 -4.5904411541644183 1.5 0 0 0 -1 I I #
point $-1 -4.5904411541644183 -1.5 -7.2827102393955112 #
straight-curve $-1 -4.5904411541644183 0 -7.2827102393955112 0 1 0 I I #
point $-1 -4.5904411541644183 1.5 -7.2827102393955112 #
straight-curve $-1 -6.0781244116910571 213.8053529465621 0 0 0 -1 I I #
point $-1 -6.0781244116910571 -213.8053529465621 -106.90267647328105 #
straight-curve $-1 -6.0781244116910571 0 -106.90267647328105 0 1 0 I I #
point $-1 -6.0781244116910571 213.8053529465621 -106.90267647328105 #
vertex $-1 $753 $872 #
straight-curve $-1 -7.6603215871835122 213.8053529465621 0 0 0 -1 I I #
point $-1 -7.6603215871835122 -213.8053529465621 -106.90267647328105 #
straight-curve $-1 -7.6603215871835122 0 -106.90267647328105 0 1 0 I I #
point $-1 -7.6603215871835122 213.8053529465621 -106.90267647328105 #
vertex $-1 $771 $873 #
vertex $-1 $773 $874 #
straight-curve $-1 -7.6603215871835122 213.8053529465621 0 0 0 -1 I I #
point $-1 -7.6603215871835122 -213.8053529465621 -106.90267647328105 #
straight-curve $-1 -7.6603215871835122 0 -106.90267647328105 0 1 0 I I #
point $-1 -7.6603215871835122 213.8053529465621 -106.90267647328105 #
vertex $-1 $791 $875 #
vertex $-1 $793 $876 #
straight-curve $-1 -7.6603215871835122 213.8053529465621 0 0 0 -1 I I #
point $-1 -7.6603215871835122 -213.8053529465621 -106.90267647328105 #
straight-curve $-1 -7.6603215871835122 0 -106.90267647328105 0 1 0 I I #
point $-1 -7.6603215871835122 213.8053529465621 -106.90267647328105 #
vertex $-1 $811 $877 #
vertex $-1 $813 $878 #
straight-curve $-1 -7.6603215871835122 213.8053529465621 0 0 0 -1 I I #
point $-1 -7.6603215871835122 -213.8053529465621 -106.90267647328105 #
straight-curve $-1 -7.6603215871835122 0 -106.90267647328105 0 1 0 I I #
point $-1 -7.6603215871835122 213.8053529465621 -106.90267647328105 #
vertex $-1 $831 $879 #
vertex $-1 $833 $880 #
point $-1 0 0 0.75 #
point $-1 0 0 0.5 #
point $-1 0 0 0.5 #
point $-1 0 0 0.5 #
point $-1 0 0 0.5 #
point $-1 0 0 0.5 #
point $-1 0 0 0.5 #
point $-1 0 0 0.5 #
point $-1 0 0 0.5 #
End-of-ACIS-data 