500 0 13 0           
7 Unknown 11 ACIS 5.0 NT 24 Fri Mar 26 18:19:26 1999 
-1 9.9999999999999995e-007 1e-010 
body $-1 $13 $-1 $14 #
body $-1 $15 $-1 $16 #
body $-1 $17 $-1 $18 #
body $-1 $19 $-1 $20 #
body $-1 $21 $-1 $22 #
body $-1 $23 $-1 $24 #
body $-1 $25 $-1 $26 #
body $-1 $27 $-1 $28 #
body $-1 $29 $-1 $30 #
body $-1 $31 $-1 $32 #
body $-1 $33 $-1 $34 #
body $-1 $35 $-1 $36 #
body $-1 $37 $-1 $38 #
lump $-1 $-1 $39 $0 #
transform $-1 1 0 0 0 1 0 0 0 1 47.217017120883817 19.200655120362821 7.0871963708686243 1 rotate no_reflect no_shear #
lump $-1 $-1 $40 $1 #
transform $-1 1 0 0 0 1 0 0 0 1 47.217017120883817 19.200655120362821 7.0871963708686243 1 rotate no_reflect no_shear #
lump $-1 $-1 $41 $2 #
transform $-1 1 0 0 0 1 0 0 0 1 47.217017120883817 19.200655120362821 7.0871963708686243 1 rotate no_reflect no_shear #
lump $-1 $-1 $42 $3 #
transform $-1 1 0 0 0 1 0 0 0 1 47.217017120883817 19.200655120362821 7.0871963708686243 1 rotate no_reflect no_shear #
lump $-1 $-1 $43 $4 #
transform $-1 1 0 0 0 1 0 0 0 1 47.217017120883817 19.200655120362821 7.0871963708686243 1 rotate no_reflect no_shear #
lump $-1 $-1 $44 $5 #
transform $-1 1 0 0 0 1 0 0 0 1 47.217017120883817 19.200655120362821 7.0871963708686243 1 rotate no_reflect no_shear #
lump $-1 $-1 $45 $6 #
transform $-1 1 0 0 0 1 0 0 0 1 47.217017120883817 19.200655120362821 7.0871963708686243 1 rotate no_reflect no_shear #
lump $-1 $-1 $46 $7 #
transform $-1 1 0 0 0 1 0 0 0 1 47.217017120883817 19.200655120362821 7.0871963708686243 1 rotate no_reflect no_shear #
lump $-1 $-1 $47 $8 #
transform $-1 1 0 0 0 1 0 0 0 1 47.217017120883817 19.200655120362821 7.0871963708686243 1 rotate no_reflect no_shear #
lump $-1 $-1 $48 $9 #
transform $-1 1 0 0 0 1 0 0 0 1 47.217017120883817 19.200655120362821 7.0871963708686243 1 rotate no_reflect no_shear #
lump $-1 $-1 $49 $10 #
transform $-1 1 0 0 0 1 0 0 0 1 47.217017120883817 19.200655120362821 7.0871963708686243 1 rotate no_reflect no_shear #
lump $-1 $-1 $50 $11 #
transform $-1 1 0 0 0 1 0 0 0 1 47.217017120883817 19.200655120362821 7.0871963708686243 1 rotate no_reflect no_shear #
lump $-1 $-1 $51 $12 #
transform $-1 1 0 0 0 1 0 0 0 1 47.217017120883817 19.200655120362821 7.0871963708686243 1 rotate no_reflect no_shear #
shell $-1 $-1 $-1 $52 $-1 $13 #
shell $-1 $-1 $-1 $53 $-1 $15 #
shell $-1 $-1 $-1 $54 $-1 $17 #
shell $-1 $-1 $-1 $55 $-1 $19 #
shell $-1 $-1 $-1 $56 $-1 $21 #
shell $-1 $-1 $-1 $57 $-1 $23 #
shell $-1 $-1 $-1 $58 $-1 $25 #
shell $-1 $-1 $-1 $59 $-1 $27 #
shell $-1 $-1 $-1 $60 $-1 $29 #
shell $-1 $-1 $-1 $61 $-1 $31 #
shell $-1 $-1 $-1 $62 $-1 $33 #
shell $-1 $-1 $-1 $63 $-1 $35 #
shell $-1 $-1 $-1 $64 $-1 $37 #
face $-1 $65 $66 $39 $-1 $67 forward single #
face $-1 $68 $69 $40 $-1 $70 forward single #
face $-1 $71 $72 $41 $-1 $73 reversed single #
face $-1 $74 $75 $42 $-1 $76 forward single #
face $-1 $77 $78 $43 $-1 $79 forward single #
face $-1 $80 $81 $44 $-1 $82 forward single #
face $-1 $83 $84 $45 $-1 $85 reversed single #
face $-1 $86 $87 $46 $-1 $88 forward single #
face $-1 $89 $90 $47 $-1 $91 forward single #
face $-1 $92 $93 $48 $-1 $94 forward single #
face $-1 $95 $96 $49 $-1 $97 reversed single #
face $-1 $98 $99 $50 $-1 $100 forward single #
face $-1 $101 $102 $51 $-1 $103 forward single #
face $-1 $104 $105 $39 $-1 $106 reversed single #
loop $-1 $-1 $107 $52 #
plane-surface $-1 0 0 7.0871963708686243 0 0 1 1 0 0 forward_v I I I I #
face $-1 $108 $109 $40 $-1 $110 reversed single #
loop $-1 $-1 $111 $53 #
plane-surface $-1 0 -19.200655120362821 0 0 1 0 0 0 1 forward_v I I I I #
face $-1 $112 $113 $41 $-1 $114 reversed single #
loop $-1 $-1 $115 $54 #
plane-surface $-1 33.257253478808032 -2.466040291943262 134.84049794161788 0 -1 0 -0.62932039886446345 0 -0.77714595512881146 forward_v I I I I #
face $-1 $116 $117 $42 $-1 $118 forward single #
loop $-1 $119 $120 $55 #
cone-surface $-1 43.774985949450773 -8.2392268676671261 4.1661282622313367 -0.62932039886446345 0 -0.77714595512881146 0.38857297756440573 0 -0.31466019943223172 1 I I 0 1 0.5 forward I I I I #
face $-1 $121 $122 $43 $-1 $123 forward single #
loop $-1 $124 $125 $56 #
cone-surface $-1 43.774985949450773 -6.0742819017706768 4.1661282622313367 -0.62932039886446345 0 -0.77714595512881146 0.38857297756440573 0 -0.31466019943223172 1 I I 0 1 0.5 forward I I I I #
face $-1 $126 $127 $44 $-1 $128 forward single #
loop $-1 $129 $130 $57 #
cone-surface $-1 43.774985949450773 -3.9093369358742276 4.1661282622313367 -0.62932039886446345 0 -0.77714595512881146 0.38857297756440573 0 -0.31466019943223172 1 I I 0 1 0.5 forward I I I I #
face $-1 $131 $132 $45 $-1 $133 reversed single #
loop $-1 $-1 $134 $58 #
plane-surface $-1 33.257253478808032 16.871220767897825 134.84049794161788 0 -1 0 -0.62932039886446345 0 -0.77714595512881146 forward_v I I I I #
face $-1 $135 $136 $46 $-1 $137 forward single #
loop $-1 $138 $139 $59 #
cone-surface $-1 43.774985949450773 11.098034192173966 4.1661282622313367 -0.62932039886446345 0 -0.77714595512881146 0.38857297756440573 0 -0.31466019943223172 1 I I 0 1 0.5 forward I I I I #
face $-1 $140 $141 $47 $-1 $142 forward single #
loop $-1 $143 $144 $60 #
cone-surface $-1 43.774985949450773 13.262979158070412 4.1661282622313367 -0.62932039886446345 0 -0.77714595512881146 0.38857297756440573 0 -0.31466019943223172 1 I I 0 1 0.5 forward I I I I #
face $-1 $145 $146 $48 $-1 $147 forward single #
loop $-1 $148 $149 $61 #
cone-surface $-1 43.774985949450773 15.427924123966864 4.1661282622313367 -0.62932039886446345 0 -0.77714595512881146 0.38857297756440573 0 -0.31466019943223172 1 I I 0 1 0.5 forward I I I I #
face $-1 $150 $151 $49 $-1 $152 reversed single #
loop $-1 $-1 $153 $62 #
plane-surface $-1 -125.5063803977223 2.827179118219366 56.709553760782285 0 1 0 -0.82903758062907751 0 0.55919289150049634 forward_v I I I I #
face $-1 $154 $155 $50 $-1 $156 forward single #
loop $-1 $157 $158 $63 #
cone-surface $-1 -45.728517819059526 5.4853581183069373 5.2153582882197478 0.82903758062907751 0 -0.55919289150049634 0.27959644575024817 0 0.41451879031453875 1 I I 0 1 0.5 forward I I I I #
face $-1 $159 $160 $51 $-1 $161 forward single #
loop $-1 $162 $163 $64 #
cone-surface $-1 -45.728517819059526 9.4726266184382943 5.2153582882197478 0.82903758062907751 0 -0.55919289150049634 0.27959644575024817 0 0.41451879031453875 1 I I 0 1 0.5 forward I I I I #
face $-1 $164 $165 $39 $-1 $166 reversed single #
loop $-1 $-1 $167 $65 #
plane-surface $-1 0 0 -7.0871963708686243 0 0 1 1 0 0 forward_v I I I I #
coedge $-1 $168 $169 $170 $171 forward $66 $-1 #
face $-1 $172 $173 $40 $-1 $174 reversed single #
loop $-1 $-1 $175 $68 #
plane-surface $-1 0 0 -7.0871963708686243 0 0 1 1 0 0 forward_v I I I I #
coedge $-1 $176 $177 $178 $179 forward $69 $-1 #
face $-1 $180 $181 $41 $-1 $182 reversed single #
loop $-1 $-1 $183 $71 #
plane-surface $-1 -26.172010616601575 -6.0742819017706768 61.451470204132491 0.62932039886446345 0 0.77714595512881146 0.77714595512881146 0 -0.62932039886446345 forward_v I I I I #
coedge $-1 $184 $185 $186 $187 reversed $72 $-1 #
face $-1 $-1 $188 $42 $-1 $189 forward single #
loop $-1 $190 $191 $74 #
cone-surface $-1 43.302995650302428 -8.2392268676671261 3.5832687958847282 -0.62932039886446345 0 -0.77714595512881146 0.19428648878220287 0 -0.15733009971611586 1 I I -0.70710678118654746 0.70710678118654746 0.25 forward I I I I #
loop $-1 $-1 $192 $55 #
coedge $-1 $120 $120 $193 $194 reversed $75 $-1 #
face $-1 $-1 $195 $43 $-1 $196 forward single #
loop $-1 $197 $198 $77 #
cone-surface $-1 43.302995650302428 -6.0742819017706768 3.5832687958847282 -0.62932039886446345 0 -0.77714595512881146 0.19428648878220287 0 -0.15733009971611586 1 I I -0.70710678118654746 0.70710678118654746 0.25 forward I I I I #
loop $-1 $-1 $199 $56 #
coedge $-1 $125 $125 $200 $201 reversed $78 $-1 #
face $-1 $-1 $202 $44 $-1 $203 forward single #
loop $-1 $204 $205 $80 #
cone-surface $-1 43.302995650302428 -3.9093369358742276 3.5832687958847282 -0.62932039886446345 0 -0.77714595512881146 0.19428648878220287 0 -0.15733009971611586 1 I I -0.70710678118654746 0.70710678118654746 0.25 forward I I I I #
loop $-1 $-1 $206 $57 #
coedge $-1 $130 $130 $207 $208 reversed $81 $-1 #
face $-1 $209 $210 $45 $-1 $211 reversed single #
loop $-1 $-1 $212 $83 #
plane-surface $-1 -26.172010616601575 13.262979158070412 61.451470204132491 0.62932039886446345 0 0.77714595512881146 0.77714595512881146 0 -0.62932039886446345 forward_v I I I I #
coedge $-1 $213 $214 $215 $216 reversed $84 $-1 #
face $-1 $-1 $217 $46 $-1 $218 forward single #
loop $-1 $219 $220 $86 #
cone-surface $-1 43.302995650302428 11.098034192173966 3.5832687958847282 -0.62932039886446345 0 -0.77714595512881146 0.19428648878220287 0 -0.15733009971611586 1 I I -0.70710678118654746 0.70710678118654746 0.25 forward I I I I #
loop $-1 $-1 $221 $59 #
coedge $-1 $139 $139 $222 $223 reversed $87 $-1 #
face $-1 $-1 $224 $47 $-1 $225 forward single #
loop $-1 $226 $227 $89 #
cone-surface $-1 43.302995650302428 13.262979158070412 3.5832687958847282 -0.62932039886446345 0 -0.77714595512881146 0.19428648878220287 0 -0.15733009971611586 1 I I -0.70710678118654746 0.70710678118654746 0.25 forward I I I I #
loop $-1 $-1 $228 $60 #
coedge $-1 $144 $144 $229 $230 reversed $90 $-1 #
face $-1 $-1 $231 $48 $-1 $232 forward single #
loop $-1 $233 $234 $92 #
cone-surface $-1 43.302995650302428 15.427924123966864 3.5832687958847282 -0.62932039886446345 0 -0.77714595512881146 0.19428648878220287 0 -0.15733009971611586 1 I I -0.70710678118654746 0.70710678118654746 0.25 forward I I I I #
loop $-1 $-1 $235 $61 #
coedge $-1 $149 $149 $236 $237 reversed $93 $-1 #
face $-1 $238 $239 $49 $-1 $240 reversed single #
loop $-1 $-1 $241 $95 #
plane-surface $-1 -47.217017120883796 7.4789923683726158 3.9027130970713628 -0.82903758062907751 0 0.55919289150049634 0.55919289150049634 0 0.82903758062907751 forward_v I I I I #
coedge $-1 $242 $243 $244 $245 reversed $96 $-1 #
face $-1 $-1 $246 $50 $-1 $247 forward single #
loop $-1 $248 $249 $98 #
cone-surface $-1 -45.106739633587715 5.4853581183069373 4.7959636195943753 0.82903758062907751 0 -0.55919289150049634 0.13979822287512408 0 0.20725939515726938 1 I I -0.70710678118654746 0.70710678118654746 0.25 forward I I I I #
loop $-1 $-1 $250 $63 #
coedge $-1 $158 $158 $251 $252 reversed $99 $-1 #
face $-1 $-1 $253 $51 $-1 $254 forward single #
loop $-1 $255 $256 $101 #
cone-surface $-1 -45.106739633587715 9.4726266184382943 4.7959636195943753 0.82903758062907751 0 -0.55919289150049634 0.13979822287512408 0 0.20725939515726938 1 I I -0.70710678118654746 0.70710678118654746 0.25 forward I I I I #
loop $-1 $-1 $257 $64 #
coedge $-1 $163 $163 $258 $259 reversed $102 $-1 #
face $-1 $260 $261 $39 $-1 $262 reversed single #
loop $-1 $-1 $263 $104 #
plane-surface $-1 0 -19.200655120362821 0 0 1 0 0 0 1 forward_v I I I I #
coedge $-1 $264 $265 $266 $267 forward $105 $-1 #
coedge $-1 $268 $107 $269 $270 forward $66 $-1 #
coedge $-1 $107 $268 $271 $272 forward $66 $-1 #
coedge $-1 $273 $274 $107 $171 reversed $275 $-1 #
edge $-1 $276 -19.200655120362821 $277 19.200655120362821 $170 $278 forward 7 unknown #
face $-1 $279 $280 $40 $-1 $281 reversed single #
loop $-1 $-1 $282 $108 #
plane-surface $-1 -44.547015844988991 -26.389352376662554 0 0 1 0 0 0 1 forward_v I I I I #
coedge $-1 $283 $284 $177 $285 forward $109 $-1 #
coedge $-1 $286 $111 $287 $288 reversed $69 $-1 #
coedge $-1 $111 $286 $175 $285 reversed $69 $-1 #
coedge $-1 $289 $290 $111 $179 reversed $280 $-1 #
edge $-1 $291 -7.0871963708686243 $292 7.0871963708686243 $178 $293 forward 7 unknown #
face $-1 $294 $295 $41 $-1 $296 forward single #
loop $-1 $-1 $297 $112 #
plane-surface $-1 33.257253478808032 -9.6825235115980917 134.84049794161788 0 1 0 0.62932039886446345 0 0.77714595512881146 forward_v I I I I #
coedge $-1 $298 $299 $300 $301 reversed $113 $-1 #
coedge $-1 $185 $115 $302 $303 reversed $72 $-1 #
coedge $-1 $115 $184 $298 $304 reversed $72 $-1 #
coedge $-1 $300 $305 $115 $187 forward $295 $-1 #
edge $-1 $306 -30.588390381479801 $307 -24.333648437478193 $186 $308 forward 7 unknown #
loop $-1 $-1 $193 $116 #
plane-surface $-1 -26.172010616601575 -6.0742819017706768 61.451470204132491 0.62932039886446345 0 0.77714595512881146 0.77714595512881146 0 -0.62932039886446345 forward_v I I I I #
loop $-1 $-1 $309 $74 #
coedge $-1 $191 $191 $192 $310 reversed $117 $-1 #
coedge $-1 $192 $192 $191 $310 forward $119 $-1 #
coedge $-1 $193 $193 $120 $194 forward $188 $-1 #
edge $-1 $311 0 $311 6.2831853071796004 $193 $312 forward 7 unknown #
loop $-1 $-1 $200 $121 #
plane-surface $-1 -26.172010616601575 -6.0742819017706768 61.451470204132491 0.62932039886446345 0 0.77714595512881146 0.77714595512881146 0 -0.62932039886446345 forward_v I I I I #
loop $-1 $-1 $313 $77 #
coedge $-1 $198 $198 $199 $314 reversed $122 $-1 #
coedge $-1 $199 $199 $198 $314 forward $124 $-1 #
coedge $-1 $200 $200 $125 $201 forward $195 $-1 #
edge $-1 $315 0 $315 6.2831853071796004 $200 $316 forward 7 unknown #
loop $-1 $-1 $207 $126 #
plane-surface $-1 -26.172010616601575 -6.0742819017706768 61.451470204132491 0.62932039886446345 0 0.77714595512881146 0.77714595512881146 0 -0.62932039886446345 forward_v I I I I #
loop $-1 $-1 $317 $80 #
coedge $-1 $205 $205 $206 $318 reversed $127 $-1 #
coedge $-1 $206 $206 $205 $318 forward $129 $-1 #
coedge $-1 $207 $207 $130 $208 forward $202 $-1 #
edge $-1 $319 0 $319 6.2831853071796004 $207 $320 forward 7 unknown #
face $-1 $321 $322 $45 $-1 $323 reversed single #
loop $-1 $-1 $324 $131 #
plane-surface $-1 33.257253478808032 9.6547375482429967 134.84049794161788 0 1 0 0.62932039886446345 0 0.77714595512881146 forward_v I I I I #
coedge $-1 $325 $326 $327 $328 reversed $132 $-1 #
coedge $-1 $214 $134 $329 $330 reversed $84 $-1 #
coedge $-1 $134 $213 $325 $331 reversed $84 $-1 #
coedge $-1 $327 $332 $134 $216 forward $333 $-1 #
edge $-1 $334 -30.588390381479801 $335 -24.333648437478193 $215 $336 forward 7 unknown #
loop $-1 $-1 $222 $135 #
plane-surface $-1 -26.172010616601575 13.262979158070412 61.451470204132491 0.62932039886446345 0 0.77714595512881146 0.77714595512881146 0 -0.62932039886446345 forward_v I I I I #
loop $-1 $-1 $337 $86 #
coedge $-1 $220 $220 $221 $338 reversed $136 $-1 #
coedge $-1 $221 $221 $220 $338 forward $138 $-1 #
coedge $-1 $222 $222 $139 $223 forward $217 $-1 #
edge $-1 $339 0 $339 6.2831853071796004 $222 $340 forward 7 unknown #
loop $-1 $-1 $229 $140 #
plane-surface $-1 -26.172010616601575 13.262979158070412 61.451470204132491 0.62932039886446345 0 0.77714595512881146 0.77714595512881146 0 -0.62932039886446345 forward_v I I I I #
loop $-1 $-1 $341 $89 #
coedge $-1 $227 $227 $228 $342 reversed $141 $-1 #
coedge $-1 $228 $228 $227 $342 forward $143 $-1 #
coedge $-1 $229 $229 $144 $230 forward $224 $-1 #
edge $-1 $343 0 $343 6.2831853071796004 $229 $344 forward 7 unknown #
loop $-1 $-1 $236 $145 #
plane-surface $-1 -26.172010616601575 13.262979158070412 61.451470204132491 0.62932039886446345 0 0.77714595512881146 0.77714595512881146 0 -0.62932039886446345 forward_v I I I I #
loop $-1 $-1 $345 $92 #
coedge $-1 $234 $234 $235 $346 reversed $146 $-1 #
coedge $-1 $235 $235 $234 $346 forward $148 $-1 #
coedge $-1 $236 $236 $149 $237 forward $231 $-1 #
edge $-1 $347 0 $347 6.2831853071796004 $236 $348 forward 7 unknown #
face $-1 $349 $350 $49 $-1 $351 reversed single #
loop $-1 $-1 $352 $150 #
plane-surface $-1 -125.5063803977223 12.130805618525866 56.709553760782285 0 -1 0 0.82903758062907751 0 -0.55919289150049634 forward_v I I I I #
coedge $-1 $353 $354 $355 $356 reversed $151 $-1 #
coedge $-1 $243 $153 $357 $358 reversed $96 $-1 #
coedge $-1 $153 $242 $353 $359 reversed $96 $-1 #
coedge $-1 $355 $360 $153 $245 forward $361 $-1 #
edge $-1 $362 15.536173077977331 $363 17.684134100996872 $244 $364 forward 7 unknown #
loop $-1 $-1 $251 $154 #
plane-surface $-1 -47.217017120883796 7.4789923683726158 3.9027130970713628 -0.82903758062907751 0 0.55919289150049634 0.55919289150049634 0 0.82903758062907751 forward_v I I I I #
loop $-1 $-1 $365 $98 #
coedge $-1 $249 $249 $250 $366 reversed $155 $-1 #
coedge $-1 $250 $250 $249 $366 forward $157 $-1 #
coedge $-1 $251 $251 $158 $252 forward $246 $-1 #
edge $-1 $367 0 $367 6.2831853071796004 $251 $368 forward 7 unknown #
loop $-1 $-1 $258 $159 #
plane-surface $-1 -47.217017120883796 7.4789923683726158 3.9027130970713628 -0.82903758062907751 0 0.55919289150049634 0.55919289150049634 0 0.82903758062907751 forward_v I I I I #
loop $-1 $-1 $369 $101 #
coedge $-1 $256 $256 $257 $370 reversed $160 $-1 #
coedge $-1 $257 $257 $256 $370 forward $162 $-1 #
coedge $-1 $258 $258 $163 $259 forward $253 $-1 #
edge $-1 $371 0 $371 6.2831853071796004 $258 $372 forward 7 unknown #
face $-1 $373 $374 $39 $-1 $375 reversed single #
loop $-1 $-1 $376 $164 #
plane-surface $-1 -47.217017120883817 0 0 1 0 0 0 0 -1 forward_v I I I I #
coedge $-1 $377 $271 $378 $379 forward $165 $-1 #
coedge $-1 $380 $167 $377 $381 forward $105 $-1 #
coedge $-1 $167 $380 $382 $383 forward $105 $-1 #
coedge $-1 $274 $273 $167 $267 reversed $275 $-1 #
edge $-1 $384 -19.200655120362821 $385 19.200655120362821 $266 $386 forward 7 unknown #
coedge $-1 $169 $168 $387 $388 forward $66 $-1 #
coedge $-1 $389 $390 $168 $270 reversed $374 $-1 #
edge $-1 $277 -47.217017120883817 $391 47.217017120883817 $269 $392 forward 7 unknown #
coedge $-1 $263 $393 $169 $272 reversed $165 $-1 #
edge $-1 $394 -47.217017120883817 $276 47.217017120883817 $271 $395 forward 7 unknown #
coedge $-1 $266 $170 $393 $396 forward $275 $-1 #
coedge $-1 $170 $266 $389 $397 reversed $275 $-1 #
loop $-1 $-1 $273 $373 #
vertex $-1 $171 $398 #
vertex $-1 $171 $399 #
straight-curve $-1 47.217017120883817 0 7.0871963708686243 0 1 0 I I #
face $-1 $400 $401 $40 $-1 $402 reversed single #
loop $-1 $-1 $178 $172 #
plane-surface $-1 -46.661927641430239 -22.795003748512688 0 1 0 0 0 0 -1 forward_v I I I I #
coedge $-1 $403 $404 $405 $406 forward $173 $-1 #
coedge $-1 $407 $175 $408 $409 forward $109 $-1 #
coedge $-1 $175 $407 $289 $410 forward $109 $-1 #
edge $-1 $291 -46.661927641430239 $411 -42.432104048547743 $175 $412 forward 7 unknown #
coedge $-1 $177 $176 $413 $414 forward $69 $-1 #
coedge $-1 $415 $416 $176 $288 forward $417 $-1 #
edge $-1 $418 42.432104048547743 $292 46.661927641430239 $287 $419 forward 7 unknown #
coedge $-1 $405 $178 $284 $410 reversed $280 $-1 #
coedge $-1 $178 $405 $415 $420 reversed $280 $-1 #
vertex $-1 $285 $421 #
vertex $-1 $420 $422 #
straight-curve $-1 -46.661927641430239 -19.200655120362821 0 0 0 1 I I #
face $-1 $-1 $423 $41 $-1 $424 reversed single #
loop $-1 $-1 $186 $180 #
plane-surface $-1 0 0 7.0871963708686243 0 0 1 1 0 0 forward_v I I I I #
coedge $-1 $425 $426 $427 $428 reversed $181 $-1 #
coedge $-1 $429 $183 $185 $304 forward $113 $-1 #
coedge $-1 $183 $429 $425 $430 forward $113 $-1 #
coedge $-1 $427 $186 $183 $301 forward $295 $-1 #
edge $-1 $307 -0.5711006589420764 $431 6.6453825607127532 $300 $432 forward 7 unknown #
coedge $-1 $433 $434 $184 $303 forward $423 $-1 #
edge $-1 $435 -65.398042862086058 $306 -60.333052599940316 $302 $436 forward 7 unknown #
edge $-1 $307 86.385685147594074 $435 94.434034241767634 $185 $437 forward 7 unknown #
coedge $-1 $186 $427 $433 $438 forward $295 $-1 #
vertex $-1 $187 $439 #
vertex $-1 $187 $440 #
straight-curve $-1 16.628626739404016 -2.466040291943262 7.0871963708686252 -1 0 0 I I #
coedge $-1 $309 $309 $-1 $441 reversed $190 $-1 #
edge $-1 $442 0 $442 6.2831853071796004 $191 $443 forward 7 unknown #
vertex $-1 $194 $444 #
ellipse-curve $-1 44.089646148883013 -8.2392268676671261 4.5547012397957536 0.62932039886446345 0 0.77714595512881146 0.38857297756440573 0 -0.31466019943223172 1 I I #
coedge $-1 $313 $313 $-1 $445 reversed $197 $-1 #
edge $-1 $446 0 $446 6.2831853071796004 $198 $447 forward 7 unknown #
vertex $-1 $201 $448 #
ellipse-curve $-1 44.089646148883013 -6.0742819017706768 4.5547012397957536 0.62932039886446345 0 0.77714595512881146 0.38857297756440573 0 -0.31466019943223172 1 I I #
coedge $-1 $317 $317 $-1 $449 reversed $204 $-1 #
edge $-1 $450 0 $450 6.2831853071796004 $205 $451 forward 7 unknown #
vertex $-1 $208 $452 #
ellipse-curve $-1 44.089646148883013 -3.9093369358742276 4.5547012397957536 0.62932039886446345 0 0.77714595512881146 0.38857297756440573 0 -0.31466019943223172 1 I I #
face $-1 $-1 $333 $45 $-1 $453 forward single #
loop $-1 $-1 $454 $209 #
plane-surface $-1 47.217017120883817 0 0 -1 0 0 0 0 1 forward_v I I I I #
coedge $-1 $455 $456 $457 $458 reversed $210 $-1 #
coedge $-1 $459 $212 $214 $331 forward $132 $-1 #
coedge $-1 $212 $459 $455 $460 forward $132 $-1 #
coedge $-1 $457 $215 $212 $328 forward $333 $-1 #
edge $-1 $335 -10.239731188862619 $461 -3.0232479692077909 $327 $462 forward 7 unknown #
coedge $-1 $463 $464 $213 $330 forward $322 $-1 #
edge $-1 $465 -65.398042862086058 $334 -60.333052599940316 $329 $466 forward 7 unknown #
edge $-1 $335 86.385685147594074 $465 94.434034241767634 $214 $467 forward 7 unknown #
coedge $-1 $215 $457 $463 $468 forward $333 $-1 #
loop $-1 $-1 $457 $321 #
vertex $-1 $330 $469 #
vertex $-1 $216 $470 #
straight-curve $-1 16.628626739404016 16.871220767897825 7.0871963708686252 -1 0 0 I I #
coedge $-1 $337 $337 $-1 $471 reversed $219 $-1 #
edge $-1 $472 0 $472 6.2831853071796004 $220 $473 forward 7 unknown #
vertex $-1 $223 $474 #
ellipse-curve $-1 44.089646148883013 11.098034192173966 4.5547012397957536 0.62932039886446345 0 0.77714595512881146 0.38857297756440573 0 -0.31466019943223172 1 I I #
coedge $-1 $341 $341 $-1 $475 reversed $226 $-1 #
edge $-1 $476 0 $476 6.2831853071796004 $227 $477 forward 7 unknown #
vertex $-1 $230 $478 #
ellipse-curve $-1 44.089646148883013 13.262979158070412 4.5547012397957536 0.62932039886446345 0 0.77714595512881146 0.38857297756440573 0 -0.31466019943223172 1 I I #
coedge $-1 $345 $345 $-1 $479 reversed $233 $-1 #
edge $-1 $480 0 $480 6.2831853071796004 $234 $481 forward 7 unknown #
vertex $-1 $237 $482 #
ellipse-curve $-1 44.089646148883013 15.427924123966864 4.5547012397957536 0.62932039886446345 0 0.77714595512881146 0.38857297756440573 0 -0.31466019943223172 1 I I #
face $-1 $-1 $361 $49 $-1 $483 forward single #
loop $-1 $-1 $484 $238 #
plane-surface $-1 -47.217017120883817 0 0 1 0 0 0 0 -1 forward_v I I I I #
coedge $-1 $485 $486 $487 $488 reversed $239 $-1 #
coedge $-1 $489 $241 $243 $359 forward $151 $-1 #
coedge $-1 $241 $489 $485 $490 forward $151 $-1 #
coedge $-1 $487 $244 $241 $356 forward $361 $-1 #
edge $-1 $363 -0.91231706596694195 $491 8.3913094343395578 $355 $492 forward 7 unknown #
coedge $-1 $493 $494 $242 $358 forward $350 $-1 #
edge $-1 $495 -24.452063783319812 $362 -21.267580509522517 $357 $496 forward 7 unknown #
edge $-1 $363 -3.8411808441552955 $495 3.8059745140678707e-014 $243 $497 forward 7 unknown #
coedge $-1 $244 $487 $493 $498 forward $361 $-1 #
loop $-1 $-1 $487 $349 #
vertex $-1 $358 $499 #
vertex $-1 $245 $500 #
straight-curve $-1 -62.753190198861148 2.827179118219366 7.0871963708686252 1 0 0 I I #
coedge $-1 $365 $365 $-1 $501 reversed $248 $-1 #
edge $-1 $502 0 $502 6.2831853071796004 $249 $503 forward 7 unknown #
vertex $-1 $252 $504 #
ellipse-curve $-1 -46.143036609374043 5.4853581183069373 5.4949547339699825 -0.82903758062907751 0 0.55919289150049634 0.27959644575024817 0 0.41451879031453875 1 I I #
coedge $-1 $369 $369 $-1 $505 reversed $255 $-1 #
edge $-1 $506 0 $506 6.2831853071796004 $256 $507 forward 7 unknown #
vertex $-1 $259 $508 #
ellipse-curve $-1 -46.143036609374043 9.4726266184382943 5.4949547339699825 -0.82903758062907751 0 0.55919289150049634 0.27959644575024817 0 0.41451879031453875 1 I I #
face $-1 $-1 $275 $39 $-1 $509 reversed single #
loop $-1 $-1 $389 $260 #
plane-surface $-1 0 19.200655120362821 0 0 -1 0 0 0 -1 forward_v I I I I #
coedge $-1 $510 $387 $390 $511 forward $261 $-1 #
coedge $-1 $393 $263 $264 $381 reversed $165 $-1 #
coedge $-1 $387 $510 $263 $379 reversed $261 $-1 #
edge $-1 $394 -7.0871963708686243 $512 7.0871963708686243 $378 $513 forward 7 unknown #
coedge $-1 $265 $264 $510 $514 forward $105 $-1 #
edge $-1 $385 -47.217017120883817 $512 47.217017120883817 $377 $515 forward 7 unknown #
coedge $-1 $390 $389 $265 $383 reversed $374 $-1 #
edge $-1 $516 -47.217017120883817 $384 47.217017120883817 $382 $517 forward 7 unknown #
vertex $-1 $267 $518 #
vertex $-1 $396 $519 #
straight-curve $-1 47.217017120883817 0 -7.0871963708686243 0 -1 0 I I #
coedge $-1 $376 $378 $268 $388 reversed $261 $-1 #
edge $-1 $391 -19.200655120362821 $394 19.200655120362821 $387 $520 forward 7 unknown #
coedge $-1 $382 $269 $274 $397 forward $374 $-1 #
coedge $-1 $269 $382 $376 $511 reversed $374 $-1 #
vertex $-1 $270 $521 #
straight-curve $-1 0 19.200655120362821 7.0871963708686243 -1 0 0 I I #
coedge $-1 $271 $377 $273 $396 reversed $165 $-1 #
vertex $-1 $388 $522 #
straight-curve $-1 0 -19.200655120362821 7.0871963708686243 1 0 0 I I #
edge $-1 $276 -7.0871963708686243 $385 7.0871963708686243 $273 $523 forward 7 unknown #
edge $-1 $277 -7.0871963708686243 $384 7.0871963708686243 $274 $524 forward 7 unknown #
point $-1 47.217017120883817 -19.200655120362821 7.0871963708686243 #
point $-1 47.217017120883817 19.200655120362821 7.0871963708686243 #
face $-1 $-1 $417 $40 $-1 $525 forward single #
loop $-1 $-1 $526 $279 #
plane-surface $-1 -42.432104048547743 -22.795003748512688 0 -1 0 0 0 0 1 forward_v I I I I #
coedge $-1 $527 $282 $407 $528 reversed $173 $-1 #
coedge $-1 $282 $527 $529 $530 reversed $173 $-1 #
coedge $-1 $290 $289 $282 $406 reversed $280 $-1 #
edge $-1 $531 -7.0871963708686243 $532 7.0871963708686243 $405 $533 forward 7 unknown #
coedge $-1 $284 $283 $403 $528 forward $109 $-1 #
coedge $-1 $413 $526 $283 $409 reversed $401 $-1 #
edge $-1 $411 -3.5943486281498664 $534 3.5943486281498664 $408 $535 forward 7 unknown #
edge $-1 $532 -3.5943486281498664 $291 3.5943486281498664 $289 $536 forward 7 unknown #
vertex $-1 $409 $537 #
straight-curve $-1 0 -19.200655120362821 -7.0871963708686243 1 0 0 I I #
coedge $-1 $538 $408 $286 $414 reversed $401 $-1 #
edge $-1 $418 -7.0871963708686243 $411 7.0871963708686243 $413 $539 forward 7 unknown #
coedge $-1 $529 $287 $290 $420 forward $417 $-1 #
coedge $-1 $287 $529 $538 $540 forward $417 $-1 #
loop $-1 $-1 $287 $400 #
vertex $-1 $288 $541 #
straight-curve $-1 0 -19.200655120362821 7.0871963708686243 -1 0 0 I I #
edge $-1 $292 -3.5943486281498664 $531 3.5943486281498664 $290 $542 forward 7 unknown #
point $-1 -46.661927641430239 -19.200655120362821 -7.0871963708686243 #
point $-1 -46.661927641430239 -19.200655120362821 7.0871963708686243 #
loop $-1 $-1 $302 $294 #
plane-surface $-1 47.217017120883817 0 0 -1 0 0 0 0 1 forward_v I I I I #
coedge $-1 $426 $297 $299 $430 reversed $181 $-1 #
coedge $-1 $297 $425 $543 $544 reversed $181 $-1 #
coedge $-1 $305 $300 $297 $428 forward $295 $-1 #
edge $-1 $431 24.333648437478193 $545 30.588390381479801 $427 $546 forward 7 unknown #
coedge $-1 $299 $298 $434 $547 reversed $113 $-1 #
edge $-1 $548 -94.434034241767634 $431 -86.385685147594074 $425 $549 forward 7 unknown #
vertex $-1 $301 $550 #
straight-curve $-1 40.962275176882216 -3.0371409508853384 7.0871963708686252 0 -1 0 I I #
coedge $-1 $543 $302 $305 $438 reversed $423 $-1 #
coedge $-1 $302 $543 $429 $547 forward $423 $-1 #
vertex $-1 $303 $551 #
straight-curve $-1 47.217017120883817 -2.466040291943262 67.420248970808942 0 0 1 I I #
straight-curve $-1 -26.172010616601575 -2.466040291943262 61.451470204132491 0.77714595512881146 0 -0.62932039886446345 I I #
edge $-1 $545 -9.6825235115980917 $306 -2.466040291943262 $433 $552 forward 7 unknown #
point $-1 47.217017120883817 -2.466040291943262 7.0871963708686243 #
point $-1 40.962275176882208 -2.466040291943262 7.0871963708686252 #
edge $-1 $553 1 $553 0 $309 $-1 forward 7 unknown #
vertex $-1 $310 $554 #
ellipse-curve $-1 43.460325750018541 -8.2392268676671261 3.7775552846669309 0.62932039886446345 0 0.77714595512881146 0.38857297756440573 0 -0.31466019943223172 1 I I #
point $-1 44.478219126447414 -8.2392268676671261 4.2400410403635114 #
edge $-1 $555 1 $555 0 $313 $-1 forward 7 unknown #
vertex $-1 $314 $556 #
ellipse-curve $-1 43.460325750018541 -6.0742819017706768 3.7775552846669309 0.62932039886446345 0 0.77714595512881146 0.38857297756440573 0 -0.31466019943223172 1 I I #
point $-1 44.478219126447414 -6.0742819017706768 4.2400410403635114 #
edge $-1 $557 1 $557 0 $317 $-1 forward 7 unknown #
vertex $-1 $318 $558 #
ellipse-curve $-1 43.460325750018541 -3.9093369358742276 3.7775552846669309 0.62932039886446345 0 0.77714595512881146 0.38857297756440573 0 -0.31466019943223172 1 I I #
point $-1 44.478219126447414 -3.9093369358742276 4.2400410403635114 #
plane-surface $-1 0 0 7.0871963708686243 0 0 1 1 0 0 forward_v I I I I #
coedge $-1 $464 $463 $456 $559 forward $322 $-1 #
coedge $-1 $456 $324 $326 $460 reversed $210 $-1 #
coedge $-1 $324 $455 $454 $559 reversed $210 $-1 #
coedge $-1 $332 $327 $324 $458 forward $333 $-1 #
edge $-1 $461 24.333648437478193 $560 30.588390381479801 $457 $561 forward 7 unknown #
coedge $-1 $326 $325 $464 $562 reversed $132 $-1 #
edge $-1 $563 -94.434034241767634 $461 -86.385685147594074 $455 $564 forward 7 unknown #
vertex $-1 $328 $565 #
straight-curve $-1 40.962275176882216 6.6314895790352058 7.0871963708686252 0 -1 0 I I #
coedge $-1 $454 $329 $332 $468 reversed $322 $-1 #
coedge $-1 $329 $454 $459 $562 forward $322 $-1 #
vertex $-1 $330 $566 #
straight-curve $-1 47.217017120883817 16.871220767897825 67.420248970808942 0 0 1 I I #
straight-curve $-1 -26.172010616601575 16.871220767897825 61.451470204132491 0.77714595512881146 0 -0.62932039886446345 I I #
edge $-1 $560 9.6547375482429967 $334 16.871220767897825 $463 $567 forward 7 unknown #
point $-1 47.217017120883817 16.871220767897825 7.0871963708686243 #
point $-1 40.962275176882208 16.871220767897825 7.0871963708686252 #
edge $-1 $568 1 $568 0 $337 $-1 forward 7 unknown #
vertex $-1 $338 $569 #
ellipse-curve $-1 43.460325750018541 11.098034192173966 3.7775552846669309 0.62932039886446345 0 0.77714595512881146 0.38857297756440573 0 -0.31466019943223172 1 I I #
point $-1 44.478219126447414 11.098034192173966 4.2400410403635114 #
edge $-1 $570 1 $570 0 $341 $-1 forward 7 unknown #
vertex $-1 $342 $571 #
ellipse-curve $-1 43.460325750018541 13.262979158070412 3.7775552846669309 0.62932039886446345 0 0.77714595512881146 0.38857297756440573 0 -0.31466019943223172 1 I I #
point $-1 44.478219126447414 13.262979158070412 4.2400410403635114 #
edge $-1 $572 1 $572 0 $345 $-1 forward 7 unknown #
vertex $-1 $346 $573 #
ellipse-curve $-1 43.460325750018541 15.427924123966864 3.7775552846669309 0.62932039886446345 0 0.77714595512881146 0.38857297756440573 0 -0.31466019943223172 1 I I #
point $-1 44.478219126447414 15.427924123966864 4.2400410403635114 #
plane-surface $-1 0 0 7.0871963708686243 0 0 1 1 0 0 forward_v I I I I #
coedge $-1 $494 $493 $486 $574 forward $350 $-1 #
coedge $-1 $486 $352 $354 $490 reversed $239 $-1 #
coedge $-1 $352 $485 $484 $574 reversed $239 $-1 #
coedge $-1 $360 $355 $352 $488 forward $361 $-1 #
edge $-1 $491 -17.684134100996872 $575 -15.536173077977331 $487 $576 forward 7 unknown #
coedge $-1 $354 $353 $494 $577 reversed $151 $-1 #
edge $-1 $578 -3.8059745140678707e-014 $491 3.8411808441552955 $485 $579 forward 7 unknown #
vertex $-1 $356 $580 #
straight-curve $-1 -45.069056097864284 3.7394961841863079 7.0871963708686234 0 1 0 I I #
coedge $-1 $484 $357 $360 $498 reversed $350 $-1 #
coedge $-1 $357 $484 $489 $577 forward $350 $-1 #
vertex $-1 $358 $581 #
straight-curve $-1 -47.217017120883817 2.827179118219366 28.354776880391142 0 0 1 I I #
straight-curve $-1 -47.217017120883796 2.827179118219366 3.9027130970713628 -0.55919289150049634 0 -0.82903758062907751 I I #
edge $-1 $575 -12.130805618525866 $362 -2.827179118219366 $493 $582 forward 7 unknown #
point $-1 -47.217017120883817 2.827179118219366 7.0871963708686243 #
point $-1 -45.069056097864276 2.827179118219366 7.0871963708686243 #
edge $-1 $583 1 $583 0 $365 $-1 forward 7 unknown #
vertex $-1 $366 $584 #
ellipse-curve $-1 -45.313999028744988 5.4853581183069373 4.9357618424694998 -0.82903758062907751 0 0.55919289150049634 0.27959644575024817 0 0.41451879031453875 1 I I #
point $-1 -45.863440163623814 5.4853581183069373 5.9094735242845342 #
edge $-1 $585 1 $585 0 $369 $-1 forward 7 unknown #
vertex $-1 $370 $586 #
ellipse-curve $-1 -45.313999028744988 9.4726266184382943 4.9357618424694998 -0.82903758062907751 0 0.55919289150049634 0.27959644575024817 0 0.41451879031453875 1 I I #
point $-1 -45.863440163623814 9.4726266184382943 5.9094735242845342 #
plane-surface $-1 47.217017120883817 0 0 -1 0 0 0 0 1 forward_v I I I I #
coedge $-1 $378 $376 $380 $514 reversed $261 $-1 #
edge $-1 $391 -7.0871963708686243 $516 7.0871963708686243 $390 $587 forward 7 unknown #
vertex $-1 $514 $588 #
straight-curve $-1 -47.217017120883817 -19.200655120362821 0 0 0 -1 I I #
edge $-1 $512 -19.200655120362821 $516 19.200655120362821 $510 $589 forward 7 unknown #
straight-curve $-1 0 -19.200655120362821 -7.0871963708686243 -1 0 0 I I #
vertex $-1 $383 $590 #
straight-curve $-1 0 19.200655120362821 -7.0871963708686243 1 0 0 I I #
point $-1 47.217017120883817 19.200655120362821 -7.0871963708686243 #
point $-1 47.217017120883817 -19.200655120362821 -7.0871963708686243 #
straight-curve $-1 -47.217017120883817 0 7.0871963708686243 0 -1 0 I I #
point $-1 -47.217017120883817 19.200655120362821 7.0871963708686243 #
point $-1 -47.217017120883817 -19.200655120362821 7.0871963708686243 #
straight-curve $-1 47.217017120883817 -19.200655120362821 0 0 0 -1 I I #
straight-curve $-1 47.217017120883817 19.200655120362821 0 0 0 -1 I I #
plane-surface $-1 0 0 7.0871963708686243 0 0 1 1 0 0 forward_v I I I I #
coedge $-1 $408 $538 $527 $591 forward $401 $-1 #
coedge $-1 $404 $403 $526 $591 reversed $173 $-1 #
edge $-1 $534 -2.1149117964412483 $532 2.1149117964412483 $403 $592 forward 7 unknown #
coedge $-1 $416 $415 $404 $530 forward $417 $-1 #
edge $-1 $531 -2.1149117964412483 $593 2.1149117964412483 $404 $594 forward 7 unknown #
vertex $-1 $420 $595 #
vertex $-1 $410 $596 #
straight-curve $-1 -46.661927641430239 -26.389352376662554 0 0 0 -1 I I #
vertex $-1 $591 $597 #
straight-curve $-1 -42.432104048547743 -22.795003748512688 -7.0871963708686243 0 -1 0 I I #
straight-curve $-1 -46.661927641430239 -22.795003748512688 -7.0871963708686243 0 1 0 I I #
point $-1 -42.432104048547743 -19.200655120362821 -7.0871963708686243 #
coedge $-1 $526 $413 $416 $540 reversed $401 $-1 #
straight-curve $-1 -42.432104048547743 -19.200655120362821 0 0 0 -1 I I #
edge $-1 $593 -3.5943486281498664 $418 3.5943486281498664 $538 $598 forward 7 unknown #
point $-1 -42.432104048547743 -19.200655120362821 7.0871963708686243 #
straight-curve $-1 -46.661927641430239 -22.795003748512688 7.0871963708686243 0 -1 0 I I #
coedge $-1 $434 $433 $426 $544 forward $423 $-1 #
edge $-1 $545 60.333052599940316 $548 65.398042862086058 $543 $599 forward 7 unknown #
vertex $-1 $438 $600 #
straight-curve $-1 16.628626739404016 -9.6825235115980917 7.0871963708686252 1 0 0 I I #
edge $-1 $548 -6.6453825607127532 $435 0.5711006589420764 $434 $601 forward 7 unknown #
vertex $-1 $547 $602 #
straight-curve $-1 -26.172010616601575 -9.6825235115980917 61.451470204132491 -0.77714595512881146 0 0.62932039886446345 I I #
point $-1 40.962275176882208 -9.6825235115980917 7.0871963708686252 #
point $-1 47.217017120883817 -2.466040291943262 2.0222061087228838 #
straight-curve $-1 47.217017120883817 0 7.0871963708686243 0 1 0 I I #
vertex $-1 $441 $603 #
point $-1 43.848898727582949 -8.2392268676671261 3.4628950852346994 #
vertex $-1 $445 $604 #
point $-1 43.848898727582949 -6.0742819017706768 3.4628950852346994 #
vertex $-1 $449 $605 #
point $-1 43.848898727582949 -3.9093369358742276 3.4628950852346994 #
edge $-1 $560 60.333052599940316 $563 65.398042862086058 $454 $606 forward 7 unknown #
vertex $-1 $468 $607 #
straight-curve $-1 16.628626739404016 9.6547375482429967 7.0871963708686252 1 0 0 I I #
edge $-1 $563 3.0232479692077909 $465 10.239731188862619 $464 $608 forward 7 unknown #
vertex $-1 $562 $609 #
straight-curve $-1 -26.172010616601575 9.6547375482429967 61.451470204132491 -0.77714595512881146 0 0.62932039886446345 I I #
point $-1 40.962275176882208 9.6547375482429967 7.0871963708686252 #
point $-1 47.217017120883817 16.871220767897825 2.0222061087228838 #
straight-curve $-1 47.217017120883817 0 7.0871963708686243 0 1 0 I I #
vertex $-1 $471 $610 #
point $-1 43.848898727582949 11.098034192173966 3.4628950852346994 #
vertex $-1 $475 $611 #
point $-1 43.848898727582949 13.262979158070412 3.4628950852346994 #
vertex $-1 $479 $612 #
point $-1 43.848898727582949 15.427924123966864 3.4628950852346994 #
edge $-1 $575 21.267580509522517 $578 24.452063783319812 $484 $613 forward 7 unknown #
vertex $-1 $498 $614 #
straight-curve $-1 -62.753190198861148 12.130805618525866 7.0871963708686252 -1 0 0 I I #
edge $-1 $578 -8.3913094343395578 $495 0.91231706596694195 $494 $615 forward 7 unknown #
vertex $-1 $577 $616 #
straight-curve $-1 -47.217017120883796 12.130805618525866 3.9027130970713628 0.55919289150049634 0 0.82903758062907751 I I #
point $-1 -45.069056097864276 12.130805618525866 7.0871963708686243 #
point $-1 -47.217017120883817 2.827179118219366 3.9027130970713313 #
straight-curve $-1 -47.217017120883817 0 7.0871963708686243 0 -1 0 I I #
vertex $-1 $501 $617 #
point $-1 -45.034402582994737 5.4853581183069373 5.3502806327840382 #
vertex $-1 $505 $618 #
point $-1 -45.034402582994737 9.4726266184382943 5.3502806327840382 #
straight-curve $-1 -47.217017120883817 19.200655120362821 0 0 0 -1 I I #
point $-1 -47.217017120883817 -19.200655120362821 -7.0871963708686243 #
straight-curve $-1 -47.217017120883817 0 -7.0871963708686243 0 1 0 I I #
point $-1 -47.217017120883817 19.200655120362821 -7.0871963708686243 #
edge $-1 $593 -7.0871963708686243 $534 7.0871963708686243 $526 $619 forward 7 unknown #
straight-curve $-1 -44.547015844988991 -26.389352376662554 -7.0871963708686243 -1 0 0 I I #
vertex $-1 $540 $620 #
straight-curve $-1 -44.547015844988991 -26.389352376662554 7.0871963708686243 1 0 0 I I #
point $-1 -46.661927641430239 -26.389352376662554 7.0871963708686243 #
point $-1 -46.661927641430239 -26.389352376662554 -7.0871963708686243 #
point $-1 -42.432104048547743 -26.389352376662554 -7.0871963708686243 #
straight-curve $-1 -42.432104048547743 -22.795003748512688 7.0871963708686243 0 1 0 I I #
straight-curve $-1 47.217017120883817 -9.6825235115980917 67.420248970808942 0 0 -1 I I #
point $-1 47.217017120883817 -9.6825235115980917 7.0871963708686243 #
straight-curve $-1 47.217017120883817 -3.0371409508853384 2.0222061087228873 0 1 0 I I #
point $-1 47.217017120883817 -9.6825235115980917 2.0222061087228838 #
point $-1 43.145665550586315 -8.2392268676671261 3.3889823071025256 #
point $-1 43.145665550586315 -6.0742819017706768 3.3889823071025256 #
point $-1 43.145665550586315 -3.9093369358742276 3.3889823071025256 #
straight-curve $-1 47.217017120883817 9.6547375482429967 67.420248970808942 0 0 -1 I I #
point $-1 47.217017120883817 9.6547375482429967 7.0871963708686243 #
straight-curve $-1 47.217017120883817 6.6314895790352058 2.0222061087228873 0 1 0 I I #
point $-1 47.217017120883817 9.6547375482429967 2.0222061087228838 #
point $-1 43.145665550586315 11.098034192173966 3.3889823071025256 #
point $-1 43.145665550586315 13.262979158070412 3.3889823071025256 #
point $-1 43.145665550586315 15.427924123966864 3.3889823071025256 #
straight-curve $-1 -47.217017120883817 12.130805618525866 28.354776880391142 0 0 -1 I I #
point $-1 -47.217017120883817 12.130805618525866 7.0871963708686243 #
straight-curve $-1 -47.217017120883817 3.7394961841863079 3.9027130970713344 0 -1 0 I I #
point $-1 -47.217017120883817 12.130805618525866 3.9027130970713313 #
point $-1 -44.899480238430442 5.4853581183069373 4.6561653967192509 #
point $-1 -44.899480238430442 9.4726266184382943 4.6561653967192509 #
straight-curve $-1 -42.432104048547743 -26.389352376662554 0 0 0 -1 I I #
point $-1 -42.432104048547743 -26.389352376662554 7.0871963708686243 #
End-of-ACIS-data 