500 0 4 0           
7 Unknown 11 ACIS 5.0 NT 24 Fri Mar 26 18:40:32 1999 
-1 9.9999999999999995e-007 1e-010 
body $-1 $4 $-1 $5 #
body $-1 $6 $-1 $7 #
body $-1 $8 $-1 $9 #
body $-1 $10 $-1 $11 #
lump $-1 $-1 $12 $0 #
transform $-1 1 0 0 0 1 0 0 0 1 68.11731315042573 35.833984967511931 14.585012583276358 1 rotate no_reflect no_shear #
lump $-1 $-1 $13 $1 #
transform $-1 1 0 0 0 1 0 0 0 1 68.11731315042573 35.833984967511931 14.585012583276358 1 rotate no_reflect no_shear #
lump $-1 $-1 $14 $2 #
transform $-1 1 0 0 0 1 0 0 0 1 68.11731315042573 35.833984967511931 14.585012583276358 1 rotate no_reflect no_shear #
lump $-1 $-1 $15 $3 #
transform $-1 1 0 0 0 1 0 0 0 1 68.11731315042573 35.833984967511931 14.585012583276358 1 rotate no_reflect no_shear #
shell $-1 $-1 $-1 $16 $-1 $4 #
shell $-1 $-1 $-1 $17 $-1 $6 #
shell $-1 $-1 $-1 $18 $-1 $8 #
shell $-1 $-1 $-1 $19 $-1 $10 #
face $-1 $20 $21 $12 $-1 $22 forward single #
face $-1 $23 $24 $13 $-1 $25 forward single #
face $-1 $26 $27 $14 $-1 $28 reversed single #
face $-1 $29 $30 $15 $-1 $31 forward single #
face $-1 $32 $33 $12 $-1 $34 reversed single #
loop $-1 $-1 $35 $16 #
plane-surface $-1 0 0 14.585012583276358 0 0 1 1 0 0 forward_v I I I I #
face $-1 $36 $37 $13 $-1 $38 reversed single #
loop $-1 $-1 $39 $17 #
plane-surface $-1 -61.992409068570176 0 -7.8443126852502809 0 0 1 1 0 0 forward_v I I I I #
face $-1 $40 $41 $14 $-1 $42 reversed single #
loop $-1 $-1 $43 $18 #
plane-surface $-1 54.235569252610041 -132.16641417496112 105.89579882070525 1 0 0 0 0.70710678939079041 -0.70710677298230451 forward_v I I I I #
face $-1 $44 $45 $15 $-1 $46 forward single #
loop $-1 $47 $48 $19 #
cone-surface $-1 61.176441201517889 -31.660977077888795 10.412004673960608 0 0.70710678939079041 -0.70710677298230451 1.5 0 0 1 I I 0 1 1.5 forward I I I I #
face $-1 $49 $50 $12 $-1 $51 reversed single #
loop $-1 $-1 $52 $20 #
plane-surface $-1 0 0 -14.585012583276358 0 0 1 1 0 0 forward_v I I I I #
coedge $-1 $53 $54 $55 $56 forward $21 $-1 #
face $-1 $57 $58 $13 $-1 $59 reversed single #
loop $-1 $-1 $60 $23 #
plane-surface $-1 -55.867504986714621 0 -11.21466263426332 -1 0 0 0 0 1 forward_v I I I I #
coedge $-1 $61 $62 $63 $64 forward $24 $-1 #
face $-1 $65 $66 $14 $-1 $67 forward single #
loop $-1 $-1 $68 $26 #
plane-surface $-1 61.176441201517889 -35.83398496751191 9.5633718486599832 0 -0.70710678939079041 0.70710677298230451 1 0 0 forward_v I I I I #
coedge $-1 $69 $70 $71 $72 reversed $27 $-1 #
face $-1 $-1 $73 $15 $-1 $74 forward single #
loop $-1 $75 $76 $29 #
cone-surface $-1 61.176441201517889 -29.468459405266898 8.2194870522163104 0 0.70710678939079041 -0.70710677298230451 0.75 0 0 1 I I -0.70710678118654757 0.70710678118654757 0.75 forward I I I I #
loop $-1 $-1 $77 $19 #
coedge $-1 $48 $48 $78 $79 reversed $30 $-1 #
face $-1 $80 $81 $12 $-1 $82 reversed single #
loop $-1 $-1 $83 $32 #
plane-surface $-1 0 -35.833984967511931 0 0 1 0 0 0 1 forward_v I I I I #
coedge $-1 $84 $85 $86 $87 forward $33 $-1 #
coedge $-1 $88 $35 $89 $90 forward $21 $-1 #
coedge $-1 $35 $88 $91 $92 forward $21 $-1 #
coedge $-1 $93 $94 $35 $56 reversed $95 $-1 #
edge $-1 $96 -35.833984967511931 $97 35.833984967511931 $55 $98 forward 7 unknown #
face $-1 $99 $100 $13 $-1 $101 reversed single #
loop $-1 $-1 $102 $36 #
plane-surface $-1 0 0 -14.585012583276358 0 0 1 1 0 0 forward_v I I I I #
coedge $-1 $103 $63 $104 $105 reversed $37 $-1 #
coedge $-1 $106 $39 $107 $108 reversed $24 $-1 #
coedge $-1 $39 $106 $109 $110 reversed $24 $-1 #
coedge $-1 $60 $111 $39 $64 reversed $37 $-1 #
edge $-1 $112 -35.833984967511931 $113 35.833984967511931 $63 $114 forward 7 unknown #
face $-1 $115 $116 $14 $-1 $117 reversed single #
loop $-1 $-1 $118 $40 #
plane-surface $-1 0 0 14.585012583276358 0 0 1 1 0 0 forward_v I I I I #
coedge $-1 $119 $120 $121 $122 reversed $41 $-1 #
coedge $-1 $70 $43 $123 $124 reversed $27 $-1 #
coedge $-1 $43 $69 $119 $125 reversed $27 $-1 #
coedge $-1 $121 $126 $43 $72 forward $116 $-1 #
edge $-1 $127 38.362886827076267 $128 43.384527561692664 $71 $129 forward 7 unknown #
loop $-1 $-1 $78 $44 #
plane-surface $-1 61.176441201517889 -35.83398496751191 9.5633718486599832 0 -0.70710678939079041 0.70710677298230451 1 0 0 forward_v I I I I #
loop $-1 $-1 $130 $29 #
coedge $-1 $76 $76 $77 $131 reversed $45 $-1 #
coedge $-1 $77 $77 $76 $131 forward $47 $-1 #
coedge $-1 $78 $78 $48 $79 forward $73 $-1 #
edge $-1 $132 1.6747654641466497e-015 $132 6.2831853071796022 $78 $133 forward 7 unknown #
face $-1 $134 $135 $12 $-1 $136 reversed single #
loop $-1 $-1 $137 $49 #
plane-surface $-1 -68.11731315042573 0 0 1 0 0 0 0 -1 forward_v I I I I #
coedge $-1 $138 $91 $139 $140 forward $50 $-1 #
coedge $-1 $141 $52 $138 $142 forward $33 $-1 #
coedge $-1 $52 $141 $143 $144 forward $33 $-1 #
coedge $-1 $94 $93 $52 $87 reversed $95 $-1 #
edge $-1 $145 -35.833984967511931 $146 35.833984967511931 $86 $147 forward 7 unknown #
coedge $-1 $54 $53 $148 $149 forward $21 $-1 #
coedge $-1 $150 $151 $53 $90 reversed $135 $-1 #
edge $-1 $97 -68.11731315042573 $152 68.11731315042573 $89 $153 forward 7 unknown #
coedge $-1 $83 $154 $54 $92 reversed $50 $-1 #
edge $-1 $155 -68.11731315042573 $96 68.11731315042573 $91 $156 forward 7 unknown #
coedge $-1 $86 $55 $154 $157 forward $95 $-1 #
coedge $-1 $55 $86 $150 $158 reversed $95 $-1 #
loop $-1 $-1 $93 $134 #
vertex $-1 $56 $159 #
vertex $-1 $56 $160 #
straight-curve $-1 68.11731315042573 0 14.585012583276358 0 1 0 I I #
face $-1 $161 $162 $13 $-1 $163 reversed single #
loop $-1 $-1 $104 $57 #
plane-surface $-1 0 -35.833984967511931 0 0 1 0 0 0 1 forward_v I I I I #
coedge $-1 $164 $165 $103 $166 forward $58 $-1 #
coedge $-1 $111 $60 $102 $166 reversed $37 $-1 #
coedge $-1 $109 $167 $60 $105 forward $100 $-1 #
edge $-1 $168 -8.9776812661446996 $112 -2.236981368118621 $104 $169 forward 7 unknown #
coedge $-1 $62 $61 $170 $171 reversed $24 $-1 #
coedge $-1 $172 $173 $61 $108 forward $174 $-1 #
edge $-1 $175 -37.121108616140646 $113 -24.871300452429534 $107 $176 forward 7 unknown #
coedge $-1 $177 $104 $62 $110 forward $100 $-1 #
edge $-1 $112 24.871300452429534 $178 37.121108616140646 $109 $179 forward 7 unknown #
coedge $-1 $63 $103 $172 $180 reversed $37 $-1 #
vertex $-1 $110 $181 #
vertex $-1 $108 $182 #
straight-curve $-1 -55.867504986714621 0 -7.8443126852502809 0 1 0 I I #
face $-1 $-1 $183 $14 $-1 $184 reversed single #
loop $-1 $-1 $121 $65 #
plane-surface $-1 0 -35.833984967511931 0 0 1 0 0 0 1 forward_v I I I I #
coedge $-1 $123 $185 $186 $187 forward $66 $-1 #
coedge $-1 $186 $68 $70 $125 forward $41 $-1 #
coedge $-1 $68 $186 $188 $189 reversed $41 $-1 #
coedge $-1 $190 $71 $68 $122 forward $116 $-1 #
edge $-1 $128 23.647348651851097 $191 37.529092549666785 $121 $192 forward 7 unknown #
coedge $-1 $193 $118 $69 $124 forward $66 $-1 #
edge $-1 $194 -35.270862738057332 $127 -30.249222119968628 $123 $195 forward 7 unknown #
edge $-1 $128 -3.0145775206728491e-014 $194 7.1016723498621497 $70 $196 forward 7 unknown #
coedge $-1 $71 $190 $193 $197 reversed $116 $-1 #
vertex $-1 $197 $198 #
vertex $-1 $72 $199 #
straight-curve $-1 54.235569252610041 -35.833984967511931 52.947899410352626 0 0 -1 I I #
coedge $-1 $130 $130 $-1 $200 reversed $75 $-1 #
edge $-1 $201 0 $201 6.2831853071796004 $76 $202 forward 7 unknown #
vertex $-1 $79 $203 #
ellipse-curve $-1 61.176441201517889 -33.323164658467583 12.074192215968159 0 -0.70710678939079041 0.70710677298230451 1.5 0 0 1 I I #
face $-1 $-1 $95 $12 $-1 $204 reversed single #
loop $-1 $-1 $150 $80 #
plane-surface $-1 0 35.833984967511931 0 0 -1 0 0 0 -1 forward_v I I I I #
coedge $-1 $205 $148 $151 $206 forward $81 $-1 #
coedge $-1 $154 $83 $84 $142 reversed $50 $-1 #
coedge $-1 $148 $205 $83 $140 reversed $81 $-1 #
edge $-1 $155 -14.585012583276358 $207 14.585012583276358 $139 $208 forward 7 unknown #
coedge $-1 $85 $84 $205 $209 forward $33 $-1 #
edge $-1 $146 -68.11731315042573 $207 68.11731315042573 $138 $210 forward 7 unknown #
coedge $-1 $151 $150 $85 $144 reversed $135 $-1 #
edge $-1 $211 -68.11731315042573 $145 68.11731315042573 $143 $212 forward 7 unknown #
vertex $-1 $87 $213 #
vertex $-1 $157 $214 #
straight-curve $-1 68.11731315042573 0 -14.585012583276358 0 -1 0 I I #
coedge $-1 $137 $139 $88 $149 reversed $81 $-1 #
edge $-1 $152 -35.833984967511931 $155 35.833984967511931 $148 $215 forward 7 unknown #
coedge $-1 $143 $89 $94 $158 forward $135 $-1 #
coedge $-1 $89 $143 $137 $206 reversed $135 $-1 #
vertex $-1 $90 $216 #
straight-curve $-1 0 35.833984967511931 14.585012583276358 -1 0 0 I I #
coedge $-1 $91 $138 $93 $157 reversed $50 $-1 #
vertex $-1 $149 $217 #
straight-curve $-1 0 -35.833984967511931 14.585012583276358 1 0 0 I I #
edge $-1 $96 -14.585012583276358 $146 14.585012583276358 $93 $218 forward 7 unknown #
edge $-1 $97 -14.585012583276358 $145 14.585012583276358 $94 $219 forward 7 unknown #
point $-1 68.11731315042573 -35.833984967511931 14.585012583276358 #
point $-1 68.11731315042573 35.833984967511931 14.585012583276358 #
face $-1 $-1 $174 $13 $-1 $220 reversed single #
loop $-1 $-1 $170 $99 #
plane-surface $-1 -68.11731315042573 0 0 1 0 0 0 0 -1 forward_v I I I I #
coedge $-1 $221 $102 $167 $222 forward $58 $-1 #
coedge $-1 $102 $221 $223 $224 forward $58 $-1 #
edge $-1 $225 -35.833984967511931 $168 35.833984967511931 $102 $226 forward 7 unknown #
coedge $-1 $104 $177 $164 $222 reversed $100 $-1 #
vertex $-1 $222 $227 #
straight-curve $-1 -55.867504986714621 -35.833984967511931 -5.6073313171316599 0 0 1 I I #
coedge $-1 $228 $229 $106 $171 forward $162 $-1 #
edge $-1 $178 -35.833984967511931 $175 35.833984967511931 $170 $230 forward 7 unknown #
coedge $-1 $223 $107 $111 $180 forward $174 $-1 #
coedge $-1 $107 $223 $228 $231 reversed $174 $-1 #
loop $-1 $-1 $172 $161 #
vertex $-1 $231 $232 #
straight-curve $-1 -30.996204534285088 35.833984967511931 -7.8443126852502809 1 0 0 I I #
coedge $-1 $167 $109 $229 $233 forward $100 $-1 #
vertex $-1 $233 $234 #
straight-curve $-1 -30.996204534285088 -35.833984967511931 -7.8443126852502809 -1 0 0 I I #
edge $-1 $113 2.236981368118621 $225 8.9776812661446996 $172 $235 forward 7 unknown #
point $-1 -55.867504986714621 -35.833984967511931 -7.8443126852502809 #
point $-1 -55.867504986714621 35.833984967511931 -7.8443126852502809 #
loop $-1 $-1 $188 $115 #
plane-surface $-1 68.11731315042573 0 0 -1 0 0 0 0 1 forward_v I I I I #
coedge $-1 $118 $193 $236 $237 forward $66 $-1 #
coedge $-1 $120 $119 $118 $187 reversed $41 $-1 #
edge $-1 $238 -37.529092549666785 $194 -23.647348651851097 $118 $239 forward 7 unknown #
coedge $-1 $236 $240 $120 $189 forward $183 $-1 #
edge $-1 $191 -9.2880641549087954 $238 -2.1863918050466165 $188 $241 forward 7 unknown #
coedge $-1 $126 $121 $240 $242 reversed $116 $-1 #
vertex $-1 $122 $243 #
straight-curve $-1 30.588220600758945 -35.833984967511931 9.5633718486599637 1 0 0 I I #
coedge $-1 $185 $123 $126 $197 forward $66 $-1 #
vertex $-1 $124 $244 #
straight-curve $-1 54.235569252610041 -66.083207087480559 14.58501258327636 0 -1 0 I I #
straight-curve $-1 54.235569252610041 -35.83398496751191 9.5633718486599832 0 0.70710677298230451 0.70710678939079041 I I #
edge $-1 $127 54.235569252610041 $245 68.11731315042573 $126 $246 forward 7 unknown #
point $-1 54.235569252610041 -35.833984967511931 14.585012583276358 #
point $-1 54.235569252610041 -35.833984967511931 9.5633718486599619 #
edge $-1 $247 1 $247 0 $130 $-1 forward 7 unknown #
vertex $-1 $131 $248 #
ellipse-curve $-1 61.176441201517889 -29.998789497309993 8.7498171319530389 0 -0.70710678939079041 0.70710677298230451 1.5 0 0 1 I I #
point $-1 62.676441201517889 -33.323164658467597 12.074192215968177 #
plane-surface $-1 68.11731315042573 0 0 -1 0 0 0 0 1 forward_v I I I I #
coedge $-1 $139 $137 $141 $209 reversed $81 $-1 #
edge $-1 $152 -14.585012583276358 $211 14.585012583276358 $151 $249 forward 7 unknown #
vertex $-1 $209 $250 #
straight-curve $-1 -68.11731315042573 -35.833984967511931 0 0 0 -1 I I #
edge $-1 $207 -35.833984967511931 $211 35.833984967511931 $205 $251 forward 7 unknown #
straight-curve $-1 0 -35.833984967511931 -14.585012583276358 -1 0 0 I I #
vertex $-1 $144 $252 #
straight-curve $-1 0 35.833984967511931 -14.585012583276358 1 0 0 I I #
point $-1 68.11731315042573 35.833984967511931 -14.585012583276358 #
point $-1 68.11731315042573 -35.833984967511931 -14.585012583276358 #
straight-curve $-1 -68.11731315042573 0 14.585012583276358 0 -1 0 I I #
point $-1 -68.11731315042573 35.833984967511931 14.585012583276358 #
point $-1 -68.11731315042573 -35.833984967511931 14.585012583276358 #
straight-curve $-1 68.11731315042573 -35.833984967511931 0 0 0 -1 I I #
straight-curve $-1 68.11731315042573 35.833984967511931 0 0 0 -1 I I #
plane-surface $-1 0 35.833984967511931 0 0 -1 0 0 0 -1 forward_v I I I I #
coedge $-1 $165 $164 $253 $254 forward $58 $-1 #
edge $-1 $168 55.867504986714621 $255 68.11731315042573 $167 $256 forward 7 unknown #
coedge $-1 $173 $172 $165 $224 reversed $174 $-1 #
edge $-1 $257 -68.11731315042573 $225 -55.867504986714621 $223 $258 forward 7 unknown #
vertex $-1 $180 $259 #
straight-curve $-1 -55.867504986714621 0 -14.585012583276358 0 -1 0 I I #
point $-1 -55.867504986714621 -35.833984967511931 -14.58501258327636 #
coedge $-1 $253 $170 $173 $231 forward $162 $-1 #
coedge $-1 $170 $253 $177 $233 reversed $162 $-1 #
straight-curve $-1 -68.11731315042573 0 -7.8443126852502809 0 1 0 I I #
edge $-1 $175 7.8443126852502809 $257 14.585012583276358 $173 $260 forward 7 unknown #
point $-1 -68.11731315042573 35.833984967511931 -7.8443126852502809 #
edge $-1 $178 7.8443126852502809 $255 14.585012583276358 $229 $261 forward 7 unknown #
point $-1 -68.11731315042573 -35.833984967511931 -7.8443126852502809 #
straight-curve $-1 -55.867504986714621 35.833984967511931 -5.6073313171316599 0 0 -1 I I #
coedge $-1 $240 $188 $185 $237 reversed $183 $-1 #
edge $-1 $245 -35.833984967511931 $238 -30.812344349423228 $236 $262 forward 7 unknown #
vertex $-1 $187 $263 #
straight-curve $-1 30.588220600758945 -30.812344349423228 14.585012583276356 -1 0 0 I I #
coedge $-1 $188 $236 $190 $242 forward $183 $-1 #
straight-curve $-1 68.11731315042573 -29.266331895681759 16.131025072893205 0 0.70710677298230462 0.70710678939079052 I I #
edge $-1 $245 -14.585012583276358 $191 -9.5633718486599619 $240 $264 forward 7 unknown #
point $-1 68.11731315042573 -35.833984967511931 9.5633718486599619 #
point $-1 54.235569252610041 -30.812344349423228 14.585012583276358 #
vertex $-1 $237 $265 #
straight-curve $-1 0 -35.833984967511931 14.585012583276358 1 0 0 I I #
vertex $-1 $200 $266 #
point $-1 62.676441201517889 -29.998789497309993 8.7498171319530389 #
straight-curve $-1 -68.11731315042573 35.833984967511931 0 0 0 -1 I I #
point $-1 -68.11731315042573 -35.833984967511931 -14.585012583276358 #
straight-curve $-1 -68.11731315042573 0 -14.585012583276358 0 1 0 I I #
point $-1 -68.11731315042573 35.833984967511931 -14.585012583276358 #
coedge $-1 $229 $228 $221 $254 reversed $162 $-1 #
edge $-1 $255 -35.833984967511931 $257 35.833984967511931 $253 $267 forward 7 unknown #
vertex $-1 $254 $268 #
straight-curve $-1 0 -35.833984967511931 -14.585012583276358 -1 0 0 I I #
vertex $-1 $224 $269 #
straight-curve $-1 0 35.833984967511931 -14.585012583276358 1 0 0 I I #
point $-1 -55.867504986714621 35.833984967511931 -14.58501258327636 #
straight-curve $-1 -68.11731315042573 35.833984967511931 0 0 0 -1 I I #
straight-curve $-1 -68.11731315042573 -35.833984967511931 0 0 0 -1 I I #
straight-curve $-1 68.11731315042573 0 14.585012583276358 0 1 0 I I #
point $-1 68.11731315042573 -30.812344349423228 14.585012583276358 #
straight-curve $-1 68.11731315042573 -35.833984967511931 0 0 0 -1 I I #
point $-1 68.11731315042573 -35.833984967511931 14.585012583276358 #
point $-1 61.176441201517889 -28.938129313223804 7.6891569724795819 #
straight-curve $-1 -68.11731315042573 0 -14.585012583276358 0 1 0 I I #
point $-1 -68.11731315042573 -35.833984967511931 -14.585012583276358 #
point $-1 -68.11731315042573 35.833984967511931 -14.585012583276358 #
End-of-ACIS-data 