500 0 3 0           
7 Unknown 11 ACIS 5.0 NT 24 Fri Mar 26 17:16:54 1999 
-1 9.9999999999999995e-007 1e-010 
body $-1 $3 $-1 $4 #
body $-1 $5 $-1 $6 #
body $-1 $7 $-1 $8 #
lump $-1 $-1 $9 $0 #
transform $-1 1 0 0 0 1 0 0 0 1 47.834711752677997 32.631165332552108 11.044624232831886 1 rotate no_reflect no_shear #
lump $-1 $-1 $10 $1 #
transform $-1 1 0 0 0 1 0 0 0 1 47.834711752677997 32.631165332552108 11.044624232831886 1 rotate no_reflect no_shear #
lump $-1 $-1 $11 $2 #
transform $-1 1 0 0 0 1 0 0 0 1 47.834711752677997 32.631165332552108 11.044624232831886 1 rotate no_reflect no_shear #
shell $-1 $-1 $-1 $12 $-1 $3 #
shell $-1 $-1 $-1 $13 $-1 $5 #
shell $-1 $-1 $-1 $14 $-1 $7 #
face $-1 $15 $16 $9 $-1 $17 forward single #
face $-1 $18 $19 $10 $-1 $20 reversed single #
face $-1 $21 $22 $11 $-1 $23 forward single #
face $-1 $24 $25 $9 $-1 $26 reversed single #
loop $-1 $-1 $27 $12 #
plane-surface $-1 0 0 11.044624232831886 0 0 1 1 0 0 forward_v I I I I #
face $-1 $28 $29 $10 $-1 $30 reversed single #
loop $-1 $-1 $31 $13 #
plane-surface $-1 -0.61355772762863481 65.909357448284709 114.17611792310458 1 0 0 0 -0.77714596973225614 -0.62932038083071107 forward_v I I I I #
face $-1 $32 $33 $11 $-1 $34 forward single #
loop $-1 $35 $36 $14 #
cone-surface $-1 4.7115156101881794 28.842051164227158 6.6347904953503685 0 -0.77714596973225614 -0.62932038083071107 1.5 0 0 1 I I 0 1 1.5 forward I I I I #
face $-1 $37 $38 $9 $-1 $39 reversed single #
loop $-1 $-1 $40 $15 #
plane-surface $-1 0 0 -11.044624232831886 0 0 1 1 0 0 forward_v I I I I #
coedge $-1 $41 $42 $43 $44 forward $16 $-1 #
face $-1 $45 $46 $10 $-1 $47 reversed single #
loop $-1 $-1 $48 $18 #
plane-surface $-1 4.7115156101881794 -8.4397494555110768 53.969399888859371 0 0.77714596973225614 0.62932038083071107 1 0 0 forward_v I I I I #
coedge $-1 $49 $50 $51 $52 reversed $19 $-1 #
face $-1 $-1 $53 $11 $-1 $54 forward single #
loop $-1 $55 $56 $21 #
cone-surface $-1 4.7115156101881794 27.625636402557554 5.649757270091861 0 -0.77714596973225614 -0.62932038083071107 0.75 0 0 1 I I -0.70710678118654757 0.70710678118654757 0.75 forward I I I I #
loop $-1 $-1 $57 $14 #
coedge $-1 $36 $36 $58 $59 reversed $22 $-1 #
face $-1 $60 $61 $9 $-1 $62 reversed single #
loop $-1 $-1 $63 $24 #
plane-surface $-1 0 -32.631165332552108 0 0 1 0 0 0 1 forward_v I I I I #
coedge $-1 $64 $65 $66 $67 forward $25 $-1 #
coedge $-1 $68 $27 $69 $70 forward $16 $-1 #
coedge $-1 $27 $68 $71 $72 forward $16 $-1 #
coedge $-1 $73 $74 $27 $44 reversed $75 $-1 #
edge $-1 $76 -32.631165332552108 $77 32.631165332552108 $43 $78 forward 7 unknown #
face $-1 $79 $80 $10 $-1 $81 reversed single #
loop $-1 $-1 $82 $28 #
plane-surface $-1 10.036588948004994 65.909357448284709 114.17611792310458 -1 0 0 0 0.77714596973225614 0.62932038083071107 forward_v I I I I #
coedge $-1 $83 $84 $85 $86 reversed $29 $-1 #
coedge $-1 $50 $31 $87 $88 reversed $19 $-1 #
coedge $-1 $31 $49 $83 $89 reversed $19 $-1 #
coedge $-1 $85 $90 $31 $52 forward $91 $-1 #
edge $-1 $92 0.32351339159024661 $93 6.634631159499321 $51 $94 forward 7 unknown #
loop $-1 $-1 $58 $32 #
plane-surface $-1 4.7115156101881794 -8.4397494555110768 53.969399888859371 0 0.77714596973225614 0.62932038083071107 1 0 0 forward_v I I I I #
loop $-1 $-1 $95 $21 #
coedge $-1 $56 $56 $57 $96 reversed $33 $-1 #
coedge $-1 $57 $57 $56 $96 forward $35 $-1 #
coedge $-1 $58 $58 $36 $59 forward $53 $-1 #
edge $-1 $97 -4.6016285284874441e-016 $97 6.2831853071795996 $58 $98 forward 7 unknown #
face $-1 $99 $100 $9 $-1 $101 reversed single #
loop $-1 $-1 $102 $37 #
plane-surface $-1 -47.834711752677997 0 0 1 0 0 0 0 -1 forward_v I I I I #
coedge $-1 $103 $71 $104 $105 forward $38 $-1 #
coedge $-1 $106 $40 $103 $107 forward $25 $-1 #
coedge $-1 $40 $106 $108 $109 forward $25 $-1 #
coedge $-1 $74 $73 $40 $67 reversed $75 $-1 #
edge $-1 $110 -32.631165332552108 $111 32.631165332552108 $66 $112 forward 7 unknown #
coedge $-1 $42 $41 $113 $114 forward $16 $-1 #
coedge $-1 $115 $116 $41 $70 reversed $100 $-1 #
edge $-1 $77 -47.834711752677997 $117 47.834711752677997 $69 $118 forward 7 unknown #
coedge $-1 $63 $119 $42 $72 reversed $38 $-1 #
edge $-1 $120 -47.834711752677997 $76 47.834711752677997 $71 $121 forward 7 unknown #
coedge $-1 $66 $43 $119 $122 forward $75 $-1 #
coedge $-1 $43 $66 $115 $123 reversed $75 $-1 #
loop $-1 $-1 $73 $99 #
vertex $-1 $44 $124 #
vertex $-1 $44 $125 #
straight-curve $-1 47.834711752677997 0 11.044624232831886 0 1 0 I I #
face $-1 $-1 $91 $10 $-1 $126 forward single #
loop $-1 $-1 $127 $45 #
plane-surface $-1 0 32.631165332552108 0 0 -1 0 0 0 -1 forward_v I I I I #
coedge $-1 $128 $129 $130 $131 reversed $46 $-1 #
coedge $-1 $132 $48 $50 $89 forward $29 $-1 #
coedge $-1 $48 $132 $128 $133 forward $29 $-1 #
coedge $-1 $130 $51 $48 $86 forward $91 $-1 #
edge $-1 $93 -2.9693155327227245 $134 7.680831142910904 $85 $135 forward 7 unknown #
coedge $-1 $136 $137 $49 $88 forward $80 $-1 #
edge $-1 $138 -53.837016324412502 $92 -46.043434728720406 $87 $139 forward 7 unknown #
edge $-1 $93 55.233865101064623 $138 65.26233066510423 $50 $140 forward 7 unknown #
coedge $-1 $51 $130 $136 $141 forward $91 $-1 #
loop $-1 $-1 $130 $79 #
vertex $-1 $88 $142 #
vertex $-1 $52 $143 #
straight-curve $-1 -0.61355772762863481 32.954678724142354 11.044624232831886 0 -1 0 I I #
coedge $-1 $95 $95 $-1 $144 reversed $55 $-1 #
edge $-1 $145 0 $145 6.2831853071796004 $56 $146 forward 7 unknown #
vertex $-1 $59 $147 #
ellipse-curve $-1 4.7115156101881794 29.475606448597571 7.1478334349858414 0 0.77714596973225614 0.62932038083071107 1.5 0 0 1 I I #
face $-1 $-1 $75 $9 $-1 $148 reversed single #
loop $-1 $-1 $115 $60 #
plane-surface $-1 0 32.631165332552108 0 0 -1 0 0 0 -1 forward_v I I I I #
coedge $-1 $149 $113 $116 $150 forward $61 $-1 #
coedge $-1 $119 $63 $64 $107 reversed $38 $-1 #
coedge $-1 $113 $149 $63 $105 reversed $61 $-1 #
edge $-1 $120 -11.044624232831886 $151 11.044624232831886 $104 $152 forward 7 unknown #
coedge $-1 $65 $64 $149 $153 forward $25 $-1 #
edge $-1 $111 -47.834711752677997 $151 47.834711752677997 $103 $154 forward 7 unknown #
coedge $-1 $116 $115 $65 $109 reversed $100 $-1 #
edge $-1 $155 -47.834711752677997 $110 47.834711752677997 $108 $156 forward 7 unknown #
vertex $-1 $67 $157 #
vertex $-1 $122 $158 #
straight-curve $-1 47.834711752677997 0 -11.044624232831886 0 -1 0 I I #
coedge $-1 $102 $104 $68 $114 reversed $61 $-1 #
edge $-1 $117 -32.631165332552108 $120 32.631165332552108 $113 $159 forward 7 unknown #
coedge $-1 $108 $69 $74 $123 forward $100 $-1 #
coedge $-1 $69 $108 $102 $150 reversed $100 $-1 #
vertex $-1 $70 $160 #
straight-curve $-1 0 32.631165332552108 11.044624232831886 -1 0 0 I I #
coedge $-1 $71 $103 $73 $122 reversed $38 $-1 #
vertex $-1 $114 $161 #
straight-curve $-1 0 -32.631165332552108 11.044624232831886 1 0 0 I I #
edge $-1 $76 -11.044624232831886 $111 11.044624232831886 $73 $162 forward 7 unknown #
edge $-1 $77 -11.044624232831886 $110 11.044624232831886 $74 $163 forward 7 unknown #
point $-1 47.834711752677997 -32.631165332552108 11.044624232831886 #
point $-1 47.834711752677997 32.631165332552108 11.044624232831886 #
plane-surface $-1 0 0 11.044624232831886 0 0 1 1 0 0 forward_v I I I I #
coedge $-1 $137 $136 $129 $164 forward $80 $-1 #
coedge $-1 $129 $82 $84 $133 reversed $46 $-1 #
coedge $-1 $82 $128 $127 $164 reversed $46 $-1 #
coedge $-1 $90 $85 $82 $131 forward $91 $-1 #
edge $-1 $134 -6.634631159499321 $165 -0.32351339159024661 $130 $166 forward 7 unknown #
coedge $-1 $84 $83 $137 $167 reversed $29 $-1 #
edge $-1 $168 -65.26233066510423 $134 -55.233865101064623 $128 $169 forward 7 unknown #
vertex $-1 $86 $170 #
straight-curve $-1 2.3557578050940897 26.320047564643026 11.044624232831886 1 0 0 I I #
coedge $-1 $127 $87 $90 $141 reversed $80 $-1 #
coedge $-1 $87 $127 $132 $167 forward $80 $-1 #
vertex $-1 $88 $171 #
straight-curve $-1 -0.61355772762863481 32.631165332552108 57.088058961552292 0 0 1 I I #
straight-curve $-1 -0.61355772762863481 -8.4397494555110768 53.969399888859371 0 0.62932038083071107 -0.77714596973225614 I I #
edge $-1 $165 -10.036588948004994 $92 0.61355772762863481 $136 $172 forward 7 unknown #
point $-1 -0.61355772762863481 32.631165332552108 11.044624232831886 #
point $-1 -0.61355772762863481 26.320047564643033 11.044624232831886 #
edge $-1 $173 1 $173 0 $95 $-1 forward 7 unknown #
vertex $-1 $96 $174 #
ellipse-curve $-1 4.7115156101881794 28.208495879856745 6.1217475557148946 0 0.77714596973225614 0.62932038083071107 1.5 0 0 1 I I #
point $-1 6.2115156101881794 29.475606448597571 7.1478334349858423 #
plane-surface $-1 47.834711752677997 0 0 -1 0 0 0 0 1 forward_v I I I I #
coedge $-1 $104 $102 $106 $153 reversed $61 $-1 #
edge $-1 $117 -11.044624232831886 $155 11.044624232831886 $116 $175 forward 7 unknown #
vertex $-1 $153 $176 #
straight-curve $-1 -47.834711752677997 -32.631165332552108 0 0 0 -1 I I #
edge $-1 $151 -32.631165332552108 $155 32.631165332552108 $149 $177 forward 7 unknown #
straight-curve $-1 0 -32.631165332552108 -11.044624232831886 -1 0 0 I I #
vertex $-1 $109 $178 #
straight-curve $-1 0 32.631165332552108 -11.044624232831886 1 0 0 I I #
point $-1 47.834711752677997 32.631165332552108 -11.044624232831886 #
point $-1 47.834711752677997 -32.631165332552108 -11.044624232831886 #
straight-curve $-1 -47.834711752677997 0 11.044624232831886 0 -1 0 I I #
point $-1 -47.834711752677997 32.631165332552108 11.044624232831886 #
point $-1 -47.834711752677997 -32.631165332552108 11.044624232831886 #
straight-curve $-1 47.834711752677997 -32.631165332552108 0 0 0 -1 I I #
straight-curve $-1 47.834711752677997 32.631165332552108 0 0 0 -1 I I #
edge $-1 $165 46.043434728720406 $168 53.837016324412502 $127 $179 forward 7 unknown #
vertex $-1 $141 $180 #
straight-curve $-1 10.036588948004994 32.954678724142354 11.044624232831886 0 1 0 I I #
edge $-1 $168 -7.680831142910904 $138 2.9693155327227245 $137 $181 forward 7 unknown #
vertex $-1 $167 $182 #
straight-curve $-1 10.036588948004994 -8.4397494555110768 53.969399888859371 0 -0.62932038083071107 0.77714596973225614 I I #
point $-1 10.036588948004994 26.320047564643033 11.044624232831886 #
point $-1 -0.61355772762863481 32.631165332552108 3.2510426371397898 #
straight-curve $-1 0 32.631165332552108 11.044624232831886 -1 0 0 I I #
vertex $-1 $144 $183 #
point $-1 6.2115156101881794 28.208495879856745 6.1217475557148946 #
straight-curve $-1 -47.834711752677997 32.631165332552108 0 0 0 -1 I I #
point $-1 -47.834711752677997 -32.631165332552108 -11.044624232831886 #
straight-curve $-1 -47.834711752677997 0 -11.044624232831886 0 1 0 I I #
point $-1 -47.834711752677997 32.631165332552108 -11.044624232831886 #
straight-curve $-1 10.036588948004994 32.631165332552108 57.088058961552292 0 0 -1 I I #
point $-1 10.036588948004994 32.631165332552108 11.044624232831886 #
straight-curve $-1 2.3557578050940897 32.631165332552108 3.2510426371397969 -1 0 0 I I #
point $-1 10.036588948004994 32.631165332552108 3.2510426371397898 #
point $-1 4.7115156101881794 27.042776925258362 5.1777669844688274 #
End-of-ACIS-data 