500 0 9 0           
7 Unknown 11 ACIS 5.0 NT 24 Thu Mar 25 15:27:36 1999 
-1 9.9999999999999995e-007 1e-010 
body $-1 $9 $-1 $10 #
body $-1 $11 $-1 $12 #
body $-1 $13 $-1 $14 #
body $-1 $15 $-1 $16 #
body $-1 $17 $-1 $18 #
body $-1 $19 $-1 $20 #
body $-1 $21 $-1 $22 #
body $-1 $23 $-1 $24 #
body $-1 $25 $-1 $26 #
lump $-1 $-1 $27 $0 #
transform $-1 1 0 0 0 1 0 0 0 1 59.219336527603993 29.059168983846305 12.674930721485891 1 rotate no_reflect no_shear #
lump $-1 $-1 $28 $1 #
transform $-1 1 0 0 0 1 0 0 0 1 59.219336527603993 29.059168983846305 12.674930721485891 1 rotate no_reflect no_shear #
lump $-1 $-1 $29 $2 #
transform $-1 1 0 0 0 1 0 0 0 1 59.219336527603993 29.059168983846305 12.674930721485891 1 rotate no_reflect no_shear #
lump $-1 $-1 $30 $3 #
transform $-1 1 0 0 0 1 0 0 0 1 59.219336527603993 29.059168983846305 12.674930721485891 1 rotate no_reflect no_shear #
lump $-1 $-1 $31 $4 #
transform $-1 1 0 0 0 1 0 0 0 1 59.219336527603993 29.059168983846305 12.674930721485891 1 rotate no_reflect no_shear #
lump $-1 $-1 $32 $5 #
transform $-1 1 0 0 0 1 0 0 0 1 59.219336527603993 29.059168983846305 12.674930721485891 1 rotate no_reflect no_shear #
lump $-1 $-1 $33 $6 #
transform $-1 1 0 0 0 1 0 0 0 1 59.219336527603993 29.059168983846305 12.674930721485891 1 rotate no_reflect no_shear #
lump $-1 $-1 $34 $7 #
transform $-1 1 0 0 0 1 0 0 0 1 59.219336527603993 29.059168983846305 12.674930721485891 1 rotate no_reflect no_shear #
lump $-1 $-1 $35 $8 #
transform $-1 1 0 0 0 1 0 0 0 1 59.219336527603993 29.059168983846305 12.674930721485891 1 rotate no_reflect no_shear #
shell $-1 $-1 $-1 $36 $-1 $9 #
shell $-1 $-1 $-1 $37 $-1 $11 #
shell $-1 $-1 $-1 $38 $-1 $13 #
shell $-1 $-1 $-1 $39 $-1 $15 #
shell $-1 $-1 $-1 $40 $-1 $17 #
shell $-1 $-1 $-1 $41 $-1 $19 #
shell $-1 $-1 $-1 $42 $-1 $21 #
shell $-1 $-1 $-1 $43 $-1 $23 #
shell $-1 $-1 $-1 $44 $-1 $25 #
face $-1 $45 $46 $27 $-1 $47 forward single #
face $-1 $48 $49 $28 $-1 $50 reversed single #
face $-1 $51 $52 $29 $-1 $53 reversed single #
face $-1 $54 $55 $30 $-1 $56 forward single #
face $-1 $57 $58 $31 $-1 $59 forward single #
face $-1 $60 $61 $32 $-1 $62 forward single #
face $-1 $63 $64 $33 $-1 $65 reversed single #
face $-1 $66 $67 $34 $-1 $68 forward single #
face $-1 $69 $70 $35 $-1 $71 forward single #
face $-1 $72 $73 $27 $-1 $74 reversed single #
loop $-1 $-1 $75 $36 #
plane-surface $-1 0 0 12.674930721485891 0 0 1 1 0 0 forward_v I I I I #
face $-1 $76 $77 $28 $-1 $78 reversed single #
loop $-1 $-1 $79 $37 #
plane-surface $-1 -51.857471251321563 -23.047754195482291 0 0 -1 0 0 0 -1 forward_v I I I I #
face $-1 $80 $81 $29 $-1 $82 reversed single #
loop $-1 $-1 $83 $38 #
plane-surface $-1 -14.444311680706555 51.656952412577155 138.70654228850387 1 0 0 0 -0.5877852598018023 -0.80901698891910034 forward_v I I I I #
face $-1 $84 $85 $30 $-1 $86 forward single #
loop $-1 $87 $88 $39 #
cone-surface $-1 -8.2262262732404352 25.530168822869978 9.5834520987933107 0 -0.5877852598018023 -0.80901698891910034 1 0 0 1 I I 0 1 1 forward I I I I #
face $-1 $89 $90 $31 $-1 $91 forward single #
loop $-1 $92 $93 $40 #
cone-surface $-1 1.1009018379587516 25.530168822869978 9.5834520987933107 0 -0.5877852598018023 -0.80901698891910034 1 0 0 1 I I 0 1 1 forward I I I I #
face $-1 $94 $95 $32 $-1 $96 forward single #
loop $-1 $97 $98 $41 #
cone-surface $-1 10.428029949157938 25.530168822869978 9.5834520987933107 0 -0.5877852598018023 -0.80901698891910034 1 0 0 1 I I 0 1 1 forward I I I I #
face $-1 $99 $100 $33 $-1 $101 reversed single #
loop $-1 $-1 $102 $42 #
plane-surface $-1 10.849073944033158 -124.87806924600265 79.145278800207464 -1 0 0 0 -0.80901700255871778 0.5877852410284794 forward_v I I I I #
face $-1 $103 $104 $34 $-1 $105 forward single #
loop $-1 $106 $107 $43 #
cone-surface $-1 -1.5904881838871958 -27.511752481808934 10.807960145908089 0 0.80901700255871778 -0.5877852410284794 0.5 0 0 1 I I 0 1 0.5 forward I I I I #
face $-1 $108 $109 $35 $-1 $110 forward single #
loop $-1 $111 $112 $44 #
cone-surface $-1 5.8732490928650165 -27.511752481808934 10.807960145908089 0 0.80901700255871778 -0.5877852410284794 0.5 0 0 1 I I 0 1 0.5 forward I I I I #
face $-1 $113 $114 $27 $-1 $115 reversed single #
loop $-1 $-1 $116 $45 #
plane-surface $-1 0 0 -12.674930721485891 0 0 1 1 0 0 forward_v I I I I #
coedge $-1 $117 $118 $119 $120 forward $46 $-1 #
face $-1 $121 $122 $28 $-1 $123 forward single #
loop $-1 $-1 $124 $48 #
plane-surface $-1 -44.495605975039133 -26.053461589664298 0 -1 0 0 0 0 1 forward_v I I I I #
coedge $-1 $125 $126 $127 $128 forward $49 $-1 #
face $-1 $129 $130 $29 $-1 $131 reversed single #
loop $-1 $-1 $132 $51 #
plane-surface $-1 1.1009018379587516 -17.959553799758993 42.887643641805724 0 0.5877852598018023 0.80901698891910034 1 0 0 forward_v I I I I #
coedge $-1 $133 $134 $135 $136 reversed $52 $-1 #
face $-1 $-1 $137 $30 $-1 $138 forward single #
loop $-1 $139 $140 $54 #
cone-surface $-1 -8.2262262732404352 24.424521913688672 8.0616597122758495 0 -0.5877852598018023 -0.80901698891910034 0.5 0 0 1 I I -0.70710678118654746 0.70710678118654746 0.5 forward I I I I #
loop $-1 $-1 $141 $39 #
coedge $-1 $88 $88 $142 $143 reversed $55 $-1 #
face $-1 $-1 $144 $31 $-1 $145 forward single #
loop $-1 $146 $147 $57 #
cone-surface $-1 1.1009018379587516 24.424521913688672 8.0616597122758495 0 -0.5877852598018023 -0.80901698891910034 0.5 0 0 1 I I -0.70710678118654746 0.70710678118654746 0.5 forward I I I I #
loop $-1 $-1 $148 $40 #
coedge $-1 $93 $93 $149 $150 reversed $58 $-1 #
face $-1 $-1 $151 $32 $-1 $152 forward single #
loop $-1 $153 $154 $60 #
cone-surface $-1 10.428029949157938 24.424521913688672 8.0616597122758495 0 -0.5877852598018023 -0.80901698891910034 0.5 0 0 1 I I -0.70710678118654746 0.70710678118654746 0.5 forward I I I I #
loop $-1 $-1 $155 $41 #
coedge $-1 $98 $98 $156 $157 reversed $61 $-1 #
face $-1 $158 $159 $33 $-1 $160 reversed single #
loop $-1 $-1 $161 $63 #
plane-surface $-1 2.1413804544889103 -29.059168983846305 9.5287748113587583 0 -0.80901700255871778 0.5877852410284794 1 0 0 forward_v I I I I #
coedge $-1 $162 $163 $164 $165 reversed $64 $-1 #
face $-1 $-1 $166 $34 $-1 $167 forward single #
loop $-1 $168 $169 $66 #
cone-surface $-1 -1.5904881838871958 -26.904989729889895 10.367121215136729 0 0.80901700255871778 -0.5877852410284794 0.25 0 0 1 I I -0.70710678118654746 0.70710678118654746 0.25 forward I I I I #
loop $-1 $-1 $170 $43 #
coedge $-1 $107 $107 $171 $172 reversed $67 $-1 #
face $-1 $-1 $173 $35 $-1 $174 forward single #
loop $-1 $175 $176 $69 #
cone-surface $-1 5.8732490928650165 -26.904989729889895 10.367121215136729 0 0.80901700255871778 -0.5877852410284794 0.25 0 0 1 I I -0.70710678118654746 0.70710678118654746 0.25 forward I I I I #
loop $-1 $-1 $177 $44 #
coedge $-1 $112 $112 $178 $179 reversed $70 $-1 #
face $-1 $180 $181 $27 $-1 $182 reversed single #
loop $-1 $-1 $183 $72 #
plane-surface $-1 0 -29.059168983846305 0 0 1 0 0 0 1 forward_v I I I I #
coedge $-1 $184 $185 $186 $187 forward $73 $-1 #
coedge $-1 $188 $75 $189 $190 forward $46 $-1 #
coedge $-1 $75 $188 $191 $192 forward $46 $-1 #
coedge $-1 $193 $194 $75 $120 reversed $195 $-1 #
edge $-1 $196 -29.059168983846305 $197 29.059168983846305 $119 $198 forward 7 unknown #
face $-1 $199 $200 $28 $-1 $201 reversed single #
loop $-1 $-1 $202 $76 #
plane-surface $-1 0 0 12.674930721485891 0 0 1 1 0 0 forward_v I I I I #
coedge $-1 $203 $204 $205 $206 reversed $77 $-1 #
coedge $-1 $207 $79 $208 $209 reversed $49 $-1 #
coedge $-1 $79 $207 $210 $211 reversed $49 $-1 #
coedge $-1 $204 $203 $79 $128 reversed $77 $-1 #
edge $-1 $212 -12.674930721485891 $213 12.674930721485891 $127 $214 forward 7 unknown #
face $-1 $215 $216 $29 $-1 $217 reversed single #
loop $-1 $-1 $218 $80 #
plane-surface $-1 16.646115356624058 51.656952412577155 138.70654228850387 -1 0 0 0 0.5877852598018023 0.80901698891910034 forward_v I I I I #
coedge $-1 $219 $220 $221 $222 reversed $81 $-1 #
coedge $-1 $134 $83 $223 $224 reversed $52 $-1 #
coedge $-1 $83 $133 $219 $225 reversed $52 $-1 #
coedge $-1 $221 $226 $83 $136 forward $227 $-1 #
edge $-1 $228 -3.2306927775577279 $229 2.2037989858340836 $135 $230 forward 7 unknown #
loop $-1 $-1 $142 $84 #
plane-surface $-1 1.1009018379587516 -17.959553799758993 42.887643641805724 0 0.5877852598018023 0.80901698891910034 1 0 0 forward_v I I I I #
loop $-1 $-1 $231 $54 #
coedge $-1 $140 $140 $141 $232 reversed $85 $-1 #
coedge $-1 $141 $141 $140 $232 forward $87 $-1 #
coedge $-1 $142 $142 $88 $143 forward $137 $-1 #
edge $-1 $233 -1.3138026043115513e-015 $233 6.2831853071795996 $142 $234 forward 7 unknown #
loop $-1 $-1 $149 $89 #
plane-surface $-1 1.1009018379587516 -17.959553799758993 42.887643641805724 0 0.5877852598018023 0.80901698891910034 1 0 0 forward_v I I I I #
loop $-1 $-1 $235 $57 #
coedge $-1 $147 $147 $148 $236 reversed $90 $-1 #
coedge $-1 $148 $148 $147 $236 forward $92 $-1 #
coedge $-1 $149 $149 $93 $150 forward $144 $-1 #
edge $-1 $237 -1.3138026043115513e-015 $237 6.2831853071795996 $149 $238 forward 7 unknown #
loop $-1 $-1 $156 $94 #
plane-surface $-1 1.1009018379587516 -17.959553799758993 42.887643641805724 0 0.5877852598018023 0.80901698891910034 1 0 0 forward_v I I I I #
loop $-1 $-1 $239 $60 #
coedge $-1 $154 $154 $155 $240 reversed $95 $-1 #
coedge $-1 $155 $155 $154 $240 forward $97 $-1 #
coedge $-1 $156 $156 $98 $157 forward $151 $-1 #
edge $-1 $241 -1.3138026043115513e-015 $241 6.2831853071795996 $156 $242 forward 7 unknown #
face $-1 $243 $244 $33 $-1 $245 forward single #
loop $-1 $-1 $246 $99 #
plane-surface $-1 -6.5663130350553374 -124.87806924600265 79.145278800207464 1 0 0 0 0.80901700255871778 -0.5877852410284794 forward_v I I I I #
coedge $-1 $247 $248 $249 $250 reversed $100 $-1 #
coedge $-1 $163 $102 $251 $252 reversed $64 $-1 #
coedge $-1 $102 $162 $247 $253 reversed $64 $-1 #
coedge $-1 $249 $254 $102 $165 forward $244 $-1 #
edge $-1 $255 33.379865639155021 $256 35.665681640671053 $164 $257 forward 7 unknown #
loop $-1 $-1 $171 $103 #
plane-surface $-1 2.1413804544889103 -29.059168983846305 9.5287748113587583 0 -0.80901700255871778 0.5877852410284794 1 0 0 forward_v I I I I #
loop $-1 $-1 $258 $66 #
coedge $-1 $169 $169 $170 $259 reversed $104 $-1 #
coedge $-1 $170 $170 $169 $259 forward $106 $-1 #
coedge $-1 $171 $171 $107 $172 forward $166 $-1 #
edge $-1 $260 -1.30225956062532e-015 $260 6.2831853071795996 $171 $261 forward 7 unknown #
loop $-1 $-1 $178 $108 #
plane-surface $-1 2.1413804544889103 -29.059168983846305 9.5287748113587583 0 -0.80901700255871778 0.5877852410284794 1 0 0 forward_v I I I I #
loop $-1 $-1 $262 $69 #
coedge $-1 $176 $176 $177 $263 reversed $109 $-1 #
coedge $-1 $177 $177 $176 $263 forward $111 $-1 #
coedge $-1 $178 $178 $112 $179 forward $173 $-1 #
edge $-1 $264 -1.30225956062532e-015 $264 6.2831853071795996 $178 $265 forward 7 unknown #
face $-1 $266 $267 $27 $-1 $268 reversed single #
loop $-1 $-1 $269 $113 #
plane-surface $-1 -59.219336527603993 0 0 1 0 0 0 0 -1 forward_v I I I I #
coedge $-1 $270 $191 $271 $272 forward $114 $-1 #
coedge $-1 $273 $116 $270 $274 forward $73 $-1 #
coedge $-1 $116 $273 $275 $276 forward $73 $-1 #
coedge $-1 $194 $193 $116 $187 reversed $195 $-1 #
edge $-1 $277 -29.059168983846305 $278 29.059168983846305 $186 $279 forward 7 unknown #
coedge $-1 $118 $117 $280 $281 forward $46 $-1 #
coedge $-1 $282 $283 $117 $190 reversed $267 $-1 #
edge $-1 $197 -59.219336527603993 $284 59.219336527603993 $189 $285 forward 7 unknown #
coedge $-1 $183 $286 $118 $192 reversed $114 $-1 #
edge $-1 $287 -59.219336527603993 $196 59.219336527603993 $191 $288 forward 7 unknown #
coedge $-1 $186 $119 $286 $289 forward $195 $-1 #
coedge $-1 $119 $186 $282 $290 reversed $195 $-1 #
loop $-1 $-1 $193 $266 #
vertex $-1 $120 $291 #
vertex $-1 $120 $292 #
straight-curve $-1 59.219336527603993 0 12.674930721485891 0 1 0 I I #
face $-1 $293 $294 $28 $-1 $295 reversed single #
loop $-1 $-1 $296 $121 #
plane-surface $-1 -59.219336527603993 0 0 1 0 0 0 0 -1 forward_v I I I I #
coedge $-1 $210 $297 $204 $298 forward $122 $-1 #
coedge $-1 $127 $124 $299 $300 reversed $77 $-1 #
coedge $-1 $124 $127 $202 $298 reversed $77 $-1 #
coedge $-1 $301 $302 $124 $206 forward $303 $-1 #
edge $-1 $304 -12.674930721485891 $305 12.674930721485891 $205 $306 forward 7 unknown #
coedge $-1 $126 $125 $296 $307 reversed $49 $-1 #
coedge $-1 $299 $308 $125 $209 forward $294 $-1 #
edge $-1 $309 -33.290600901943208 $213 -18.566870349378352 $208 $310 forward 7 unknown #
coedge $-1 $311 $202 $126 $211 forward $122 $-1 #
edge $-1 $212 18.566870349378352 $312 33.290600901943208 $210 $313 forward 7 unknown #
vertex $-1 $211 $314 #
vertex $-1 $209 $315 #
straight-curve $-1 -44.495605975039133 -23.047754195482291 0 0 0 -1 I I #
face $-1 $-1 $227 $29 $-1 $316 forward single #
loop $-1 $-1 $317 $129 #
plane-surface $-1 0 29.059168983846305 0 0 -1 0 0 0 -1 forward_v I I I I #
coedge $-1 $318 $319 $320 $321 reversed $130 $-1 #
coedge $-1 $322 $132 $134 $225 forward $81 $-1 #
coedge $-1 $132 $322 $318 $323 forward $81 $-1 #
coedge $-1 $320 $135 $132 $222 forward $227 $-1 #
edge $-1 $229 -14.994762599685931 $324 16.095664437644682 $221 $325 forward 7 unknown #
coedge $-1 $326 $327 $133 $224 forward $216 $-1 #
edge $-1 $328 -60.626729884035356 $228 -56.678340422766041 $223 $329 forward 7 unknown #
edge $-1 $229 51.400936679676825 $328 58.118337967692604 $134 $330 forward 7 unknown #
coedge $-1 $135 $320 $326 $331 forward $227 $-1 #
loop $-1 $-1 $320 $215 #
vertex $-1 $224 $332 #
vertex $-1 $136 $333 #
straight-curve $-1 -14.444311680706555 25.828476206288578 12.674930721485893 0 -1 0 I I #
coedge $-1 $231 $231 $-1 $334 reversed $139 $-1 #
edge $-1 $335 0 $335 6.2831853071796004 $140 $336 forward 7 unknown #
vertex $-1 $143 $337 #
ellipse-curve $-1 -8.2262262732404352 26.341923102150396 10.700735990851236 0 0.5877852598018023 0.80901698891910034 1 0 0 1 I I #
coedge $-1 $235 $235 $-1 $338 reversed $146 $-1 #
edge $-1 $339 0 $339 6.2831853071796004 $147 $340 forward 7 unknown #
vertex $-1 $150 $341 #
ellipse-curve $-1 1.1009018379587516 26.341923102150396 10.700735990851236 0 0.5877852598018023 0.80901698891910034 1 0 0 1 I I #
coedge $-1 $239 $239 $-1 $342 reversed $153 $-1 #
edge $-1 $343 0 $343 6.2831853071796004 $154 $344 forward 7 unknown #
vertex $-1 $157 $345 #
ellipse-curve $-1 10.428029949157938 26.341923102150396 10.700735990851236 0 0.5877852598018023 0.80901698891910034 1 0 0 1 I I #
face $-1 $-1 $346 $33 $-1 $347 reversed single #
loop $-1 $-1 $164 $158 #
plane-surface $-1 0 0 12.674930721485891 0 0 1 1 0 0 forward_v I I I I #
coedge $-1 $348 $349 $350 $351 reversed $159 $-1 #
coedge $-1 $352 $161 $163 $253 forward $100 $-1 #
coedge $-1 $161 $352 $348 $353 forward $100 $-1 #
coedge $-1 $350 $164 $161 $250 forward $244 $-1 #
edge $-1 $256 -9.7783837167887029 $354 7.6370032622997925 $249 $355 forward 7 unknown #
coedge $-1 $356 $357 $162 $252 forward $346 $-1 #
edge $-1 $358 -30.043864588744974 $255 -26.897708678617839 $251 $359 forward 7 unknown #
edge $-1 $256 -3.8888625333913023 $358 0 $163 $360 forward 7 unknown #
coedge $-1 $164 $350 $356 $361 forward $244 $-1 #
vertex $-1 $165 $362 #
vertex $-1 $165 $363 #
straight-curve $-1 10.849073944033158 -62.439034623001326 12.674930721485893 0 1 0 I I #
coedge $-1 $258 $258 $-1 $364 reversed $168 $-1 #
edge $-1 $365 0 $365 6.2831853071796004 $169 $366 forward 7 unknown #
vertex $-1 $172 $367 #
ellipse-curve $-1 -1.5904881838871958 -27.916260983088289 11.101852766422326 0 -0.80901700255871778 0.5877852410284794 0.5 0 0 1 I I #
coedge $-1 $262 $262 $-1 $368 reversed $175 $-1 #
edge $-1 $369 0 $369 6.2831853071796004 $176 $370 forward 7 unknown #
vertex $-1 $179 $371 #
ellipse-curve $-1 5.8732490928650165 -27.916260983088289 11.101852766422326 0 -0.80901700255871778 0.5877852410284794 0.5 0 0 1 I I #
face $-1 $-1 $195 $27 $-1 $372 reversed single #
loop $-1 $-1 $282 $180 #
plane-surface $-1 0 29.059168983846305 0 0 -1 0 0 0 -1 forward_v I I I I #
coedge $-1 $373 $280 $283 $374 forward $181 $-1 #
coedge $-1 $286 $183 $184 $274 reversed $114 $-1 #
coedge $-1 $280 $373 $183 $272 reversed $181 $-1 #
edge $-1 $287 -12.674930721485891 $375 12.674930721485891 $271 $376 forward 7 unknown #
coedge $-1 $185 $184 $373 $377 forward $73 $-1 #
edge $-1 $278 -59.219336527603993 $375 59.219336527603993 $270 $378 forward 7 unknown #
coedge $-1 $283 $282 $185 $276 reversed $267 $-1 #
edge $-1 $379 -59.219336527603993 $277 59.219336527603993 $275 $380 forward 7 unknown #
vertex $-1 $187 $381 #
vertex $-1 $289 $382 #
straight-curve $-1 59.219336527603993 0 -12.674930721485891 0 -1 0 I I #
coedge $-1 $269 $271 $188 $281 reversed $181 $-1 #
edge $-1 $284 -29.059168983846305 $287 29.059168983846305 $280 $383 forward 7 unknown #
coedge $-1 $275 $189 $194 $290 forward $267 $-1 #
coedge $-1 $189 $275 $269 $374 reversed $267 $-1 #
vertex $-1 $190 $384 #
straight-curve $-1 0 29.059168983846305 12.674930721485891 -1 0 0 I I #
coedge $-1 $191 $270 $193 $289 reversed $114 $-1 #
vertex $-1 $281 $385 #
straight-curve $-1 0 -29.059168983846305 12.674930721485891 1 0 0 I I #
edge $-1 $196 -12.674930721485891 $278 12.674930721485891 $193 $386 forward 7 unknown #
edge $-1 $197 -12.674930721485891 $277 12.674930721485891 $194 $387 forward 7 unknown #
point $-1 59.219336527603993 -29.059168983846305 12.674930721485891 #
point $-1 59.219336527603993 29.059168983846305 12.674930721485891 #
face $-1 $-1 $303 $28 $-1 $388 reversed single #
loop $-1 $-1 $299 $199 #
plane-surface $-1 0 0 -12.674930721485891 0 0 1 1 0 0 forward_v I I I I #
coedge $-1 $389 $390 $207 $307 forward $200 $-1 #
coedge $-1 $202 $311 $301 $391 forward $122 $-1 #
edge $-1 $305 -16.032438189014158 $212 -10.021023400650142 $202 $392 forward 7 unknown #
coedge $-1 $393 $208 $203 $300 forward $294 $-1 #
edge $-1 $213 10.021023400650142 $304 16.032438189014158 $299 $394 forward 7 unknown #
coedge $-1 $395 $205 $297 $391 reversed $303 $-1 #
coedge $-1 $205 $395 $393 $396 reversed $303 $-1 #
loop $-1 $-1 $205 $293 #
vertex $-1 $396 $397 #
vertex $-1 $206 $398 #
straight-curve $-1 -44.495605975039133 -29.059168983846305 0 0 0 1 I I #
edge $-1 $312 -12.674930721485891 $309 12.674930721485891 $296 $399 forward 7 unknown #
coedge $-1 $208 $393 $389 $400 forward $294 $-1 #
vertex $-1 $209 $401 #
straight-curve $-1 -25.928735625660781 -23.047754195482291 -12.674930721485891 1 0 0 I I #
coedge $-1 $297 $210 $390 $402 forward $122 $-1 #
vertex $-1 $402 $403 #
straight-curve $-1 -25.928735625660781 -23.047754195482291 12.674930721485891 -1 0 0 I I #
point $-1 -44.495605975039133 -23.047754195482291 12.674930721485891 #
point $-1 -44.495605975039133 -23.047754195482291 -12.674930721485891 #
plane-surface $-1 0 0 12.674930721485891 0 0 1 1 0 0 forward_v I I I I #
coedge $-1 $327 $326 $319 $404 forward $216 $-1 #
coedge $-1 $319 $218 $220 $323 reversed $130 $-1 #
coedge $-1 $218 $318 $317 $404 reversed $130 $-1 #
coedge $-1 $226 $221 $218 $321 forward $227 $-1 #
edge $-1 $324 -2.2037989858340836 $405 3.2306927775577279 $320 $406 forward 7 unknown #
coedge $-1 $220 $219 $327 $407 reversed $81 $-1 #
edge $-1 $408 -58.118337967692604 $324 -51.400936679676825 $318 $409 forward 7 unknown #
vertex $-1 $222 $410 #
straight-curve $-1 0.55045091897937581 23.62467722045449 12.674930721485893 1 0 0 I I #
coedge $-1 $317 $223 $226 $331 reversed $216 $-1 #
coedge $-1 $223 $317 $322 $407 forward $216 $-1 #
vertex $-1 $224 $411 #
straight-curve $-1 -14.444311680706555 29.059168983846305 69.353271144251934 0 0 1 I I #
straight-curve $-1 -14.444311680706555 -17.959553799758993 42.887643641805724 0 0.80901698891910034 -0.5877852598018023 I I #
edge $-1 $405 -16.646115356624058 $228 14.444311680706555 $326 $412 forward 7 unknown #
point $-1 -14.444311680706555 29.059168983846305 12.674930721485891 #
point $-1 -14.444311680706555 23.624677220454494 12.674930721485893 #
edge $-1 $413 1 $413 0 $231 $-1 forward 7 unknown #
vertex $-1 $232 $414 #
ellipse-curve $-1 -8.2262262732404352 24.718414543589574 8.4661682067354 0 0.5877852598018023 0.80901698891910034 1 0 0 1 I I #
point $-1 -7.2262262732404352 26.341923102150385 10.700735990851223 #
edge $-1 $415 1 $415 0 $235 $-1 forward 7 unknown #
vertex $-1 $236 $416 #
ellipse-curve $-1 1.1009018379587516 24.718414543589574 8.4661682067354 0 0.5877852598018023 0.80901698891910034 1 0 0 1 I I #
point $-1 2.1009018379587516 26.341923102150385 10.700735990851223 #
edge $-1 $417 1 $417 0 $239 $-1 forward 7 unknown #
vertex $-1 $240 $418 #
ellipse-curve $-1 10.428029949157938 24.718414543589574 8.4661682067354 0 0.5877852598018023 0.80901698891910034 1 0 0 1 I I #
point $-1 11.428029949157938 26.341923102150385 10.700735990851223 #
loop $-1 $-1 $251 $243 #
plane-surface $-1 0 -29.059168983846305 0 0 1 0 0 0 1 forward_v I I I I #
coedge $-1 $349 $246 $248 $353 reversed $159 $-1 #
coedge $-1 $246 $348 $419 $420 reversed $159 $-1 #
coedge $-1 $254 $249 $246 $351 forward $244 $-1 #
edge $-1 $354 -35.665681640671053 $421 -33.379865639155021 $350 $422 forward 7 unknown #
coedge $-1 $248 $247 $357 $423 reversed $100 $-1 #
edge $-1 $424 0 $354 3.8888625333913023 $348 $425 forward 7 unknown #
vertex $-1 $250 $426 #
straight-curve $-1 1.0706902272444552 -26.773352982330277 12.674930721485891 -1 0 0 I I #
coedge $-1 $419 $251 $254 $361 reversed $346 $-1 #
coedge $-1 $251 $419 $352 $423 forward $346 $-1 #
vertex $-1 $252 $427 #
straight-curve $-1 10.849073944033158 -29.059168983846305 39.572639400103732 0 0 1 I I #
straight-curve $-1 10.849073944033158 -29.059168983846305 9.5287748113587583 0 -0.5877852410284794 -0.80901700255871778 I I #
edge $-1 $421 -6.5663130350553374 $255 10.849073944033158 $356 $428 forward 7 unknown #
point $-1 10.849073944033158 -29.059168983846305 12.674930721485891 #
point $-1 10.849073944033158 -26.773352982330277 12.674930721485891 #
edge $-1 $429 1 $429 0 $258 $-1 forward 7 unknown #
vertex $-1 $259 $430 #
ellipse-curve $-1 -1.5904881838871958 -27.107243980529574 10.514067525393848 0 -0.80901700255871778 0.5877852410284794 0.5 0 0 1 I I #
point $-1 -1.0904881838871958 -27.916260983088293 11.101852766422327 #
edge $-1 $431 1 $431 0 $262 $-1 forward 7 unknown #
vertex $-1 $263 $432 #
ellipse-curve $-1 5.8732490928650165 -27.107243980529574 10.514067525393848 0 -0.80901700255871778 0.5877852410284794 0.5 0 0 1 I I #
point $-1 6.3732490928650165 -27.916260983088293 11.101852766422327 #
plane-surface $-1 59.219336527603993 0 0 -1 0 0 0 0 1 forward_v I I I I #
coedge $-1 $271 $269 $273 $377 reversed $181 $-1 #
edge $-1 $284 -12.674930721485891 $379 12.674930721485891 $283 $433 forward 7 unknown #
vertex $-1 $377 $434 #
straight-curve $-1 -59.219336527603993 -29.059168983846305 0 0 0 -1 I I #
edge $-1 $375 -29.059168983846305 $379 29.059168983846305 $373 $435 forward 7 unknown #
straight-curve $-1 0 -29.059168983846305 -12.674930721485891 -1 0 0 I I #
vertex $-1 $276 $436 #
straight-curve $-1 0 29.059168983846305 -12.674930721485891 1 0 0 I I #
point $-1 59.219336527603993 29.059168983846305 -12.674930721485891 #
point $-1 59.219336527603993 -29.059168983846305 -12.674930721485891 #
straight-curve $-1 -59.219336527603993 0 12.674930721485891 0 -1 0 I I #
point $-1 -59.219336527603993 29.059168983846305 12.674930721485891 #
point $-1 -59.219336527603993 -29.059168983846305 12.674930721485891 #
straight-curve $-1 59.219336527603993 -29.059168983846305 0 0 0 -1 I I #
straight-curve $-1 59.219336527603993 29.059168983846305 0 0 0 -1 I I #
plane-surface $-1 0 -29.059168983846305 0 0 1 0 0 0 1 forward_v I I I I #
coedge $-1 $437 $296 $308 $400 reversed $200 $-1 #
coedge $-1 $296 $437 $311 $402 reversed $200 $-1 #
edge $-1 $438 -59.219336527603993 $305 -44.495605975039133 $301 $439 forward 7 unknown #
straight-curve $-1 -44.495605975039133 -13.026730794832149 12.674930721485891 0 1 0 I I #
coedge $-1 $308 $299 $302 $396 forward $294 $-1 #
straight-curve $-1 -44.495605975039133 -13.026730794832149 -12.674930721485891 0 -1 0 I I #
coedge $-1 $302 $301 $437 $440 forward $303 $-1 #
edge $-1 $304 44.495605975039133 $441 59.219336527603993 $302 $442 forward 7 unknown #
point $-1 -44.495605975039133 -29.059168983846305 -12.674930721485891 #
point $-1 -44.495605975039133 -29.059168983846305 12.674930721485891 #
straight-curve $-1 -59.219336527603993 -23.047754195482291 0 0 0 -1 I I #
edge $-1 $441 -29.059168983846305 $309 -23.047754195482291 $389 $443 forward 7 unknown #
point $-1 -59.219336527603993 -23.047754195482291 -12.674930721485891 #
edge $-1 $312 23.047754195482291 $438 29.059168983846305 $390 $444 forward 7 unknown #
point $-1 -59.219336527603993 -23.047754195482291 12.674930721485891 #
edge $-1 $405 56.678340422766041 $408 60.626729884035356 $317 $445 forward 7 unknown #
vertex $-1 $331 $446 #
straight-curve $-1 16.646115356624058 25.828476206288578 12.674930721485893 0 1 0 I I #
edge $-1 $408 -16.095664437644682 $328 14.994762599685931 $327 $447 forward 7 unknown #
vertex $-1 $407 $448 #
straight-curve $-1 16.646115356624058 -17.959553799758993 42.887643641805724 0 -0.80901698891910034 0.5877852598018023 I I #
point $-1 16.646115356624058 23.624677220454494 12.674930721485893 #
point $-1 -14.444311680706555 29.059168983846305 8.7265412602165782 #
straight-curve $-1 0 29.059168983846305 12.674930721485891 -1 0 0 I I #
vertex $-1 $334 $449 #
point $-1 -7.2262262732404352 24.718414543589574 8.4661682067354 #
vertex $-1 $338 $450 #
point $-1 2.1009018379587516 24.718414543589574 8.4661682067354 #
vertex $-1 $342 $451 #
point $-1 11.428029949157938 24.718414543589574 8.4661682067354 #
coedge $-1 $357 $356 $349 $420 forward $346 $-1 #
edge $-1 $421 26.897708678617839 $424 30.043864588744974 $419 $452 forward 7 unknown #
vertex $-1 $361 $453 #
straight-curve $-1 -6.5663130350553374 -62.439034623001326 12.674930721485893 0 -1 0 I I #
edge $-1 $424 -7.6370032622997925 $358 9.7783837167887029 $357 $454 forward 7 unknown #
vertex $-1 $423 $455 #
straight-curve $-1 -6.5663130350553374 -29.059168983846305 9.5287748113587583 0 0.5877852410284794 0.80901700255871778 I I #
point $-1 -6.5663130350553374 -26.773352982330277 12.674930721485891 #
point $-1 10.849073944033158 -29.059168983846305 9.5287748113587583 #
straight-curve $-1 0 -29.059168983846305 12.674930721485891 1 0 0 I I #
vertex $-1 $364 $456 #
point $-1 -1.0904881838871958 -27.107243980529574 10.514067525393848 #
vertex $-1 $368 $457 #
point $-1 6.3732490928650165 -27.107243980529574 10.514067525393848 #
straight-curve $-1 -59.219336527603993 29.059168983846305 0 0 0 -1 I I #
point $-1 -59.219336527603993 -29.059168983846305 -12.674930721485891 #
straight-curve $-1 -59.219336527603993 0 -12.674930721485891 0 1 0 I I #
point $-1 -59.219336527603993 29.059168983846305 -12.674930721485891 #
coedge $-1 $390 $389 $395 $440 reversed $200 $-1 #
vertex $-1 $402 $458 #
straight-curve $-1 0 -29.059168983846305 12.674930721485891 1 0 0 I I #
edge $-1 $438 -12.674930721485891 $441 12.674930721485891 $437 $459 forward 7 unknown #
vertex $-1 $400 $460 #
straight-curve $-1 0 -29.059168983846305 -12.674930721485891 -1 0 0 I I #
straight-curve $-1 -59.219336527603993 0 -12.674930721485891 0 1 0 I I #
straight-curve $-1 -59.219336527603993 0 12.674930721485891 0 -1 0 I I #
straight-curve $-1 16.646115356624058 29.059168983846305 69.353271144251934 0 0 -1 I I #
point $-1 16.646115356624058 29.059168983846305 12.674930721485891 #
straight-curve $-1 0.55045091897937581 29.059168983846305 8.7265412602165782 -1 0 0 I I #
point $-1 16.646115356624058 29.059168983846305 8.7265412602165782 #
point $-1 -8.2262262732404352 24.130629283787769 7.657151217816299 #
point $-1 1.1009018379587516 24.130629283787769 7.657151217816299 #
point $-1 10.428029949157938 24.130629283787769 7.657151217816299 #
straight-curve $-1 -6.5663130350553374 -29.059168983846305 39.572639400103732 0 0 -1 I I #
point $-1 -6.5663130350553374 -29.059168983846305 12.674930721485891 #
straight-curve $-1 1.0706902272444552 -29.059168983846305 9.5287748113587583 1 0 0 I I #
point $-1 -6.5663130350553374 -29.059168983846305 9.5287748113587583 #
point $-1 -1.5904881838871958 -26.702735479250215 10.22017490487961 #
point $-1 5.8732490928650165 -26.702735479250215 10.22017490487961 #
point $-1 -59.219336527603993 -29.059168983846305 12.674930721485891 #
straight-curve $-1 -59.219336527603993 -29.059168983846305 0 0 0 -1 I I #
point $-1 -59.219336527603993 -29.059168983846305 -12.674930721485891 #
End-of-ACIS-data 