500 0 10 0           
7 Unknown 11 ACIS 5.0 NT 24 Thu Mar 25 21:43:14 1999 
-1 9.9999999999999995e-007 1e-010 
body $-1 $10 $-1 $11 #
body $-1 $12 $-1 $13 #
body $-1 $14 $-1 $15 #
body $-1 $16 $-1 $17 #
body $-1 $18 $-1 $19 #
body $-1 $20 $-1 $21 #
body $-1 $22 $-1 $23 #
body $-1 $24 $-1 $25 #
body $-1 $26 $-1 $27 #
body $-1 $28 $-1 $29 #
lump $-1 $-1 $30 $0 #
transform $-1 1 0 0 0 1 0 0 0 1 56.299325540940586 38.66882414500261 13.12641776680392 1 rotate no_reflect no_shear #
lump $-1 $-1 $31 $1 #
transform $-1 1 0 0 0 1 0 0 0 1 56.299325540940586 38.66882414500261 13.12641776680392 1 rotate no_reflect no_shear #
lump $-1 $-1 $32 $2 #
transform $-1 1 0 0 0 1 0 0 0 1 56.299325540940586 38.66882414500261 13.12641776680392 1 rotate no_reflect no_shear #
lump $-1 $-1 $33 $3 #
transform $-1 1 0 0 0 1 0 0 0 1 56.299325540940586 38.66882414500261 13.12641776680392 1 rotate no_reflect no_shear #
lump $-1 $-1 $34 $4 #
transform $-1 1 0 0 0 1 0 0 0 1 56.299325540940586 38.66882414500261 13.12641776680392 1 rotate no_reflect no_shear #
lump $-1 $-1 $35 $5 #
transform $-1 1 0 0 0 1 0 0 0 1 56.299325540940586 38.66882414500261 13.12641776680392 1 rotate no_reflect no_shear #
lump $-1 $-1 $36 $6 #
transform $-1 1 0 0 0 1 0 0 0 1 56.299325540940586 38.66882414500261 13.12641776680392 1 rotate no_reflect no_shear #
lump $-1 $-1 $37 $7 #
transform $-1 1 0 0 0 1 0 0 0 1 56.299325540940586 38.66882414500261 13.12641776680392 1 rotate no_reflect no_shear #
lump $-1 $-1 $38 $8 #
transform $-1 1 0 0 0 1 0 0 0 1 56.299325540940586 38.66882414500261 13.12641776680392 1 rotate no_reflect no_shear #
lump $-1 $-1 $39 $9 #
transform $-1 1 0 0 0 1 0 0 0 1 56.299325540940586 38.66882414500261 13.12641776680392 1 rotate no_reflect no_shear #
shell $-1 $-1 $-1 $40 $-1 $10 #
shell $-1 $-1 $-1 $41 $-1 $12 #
shell $-1 $-1 $-1 $42 $-1 $14 #
shell $-1 $-1 $-1 $43 $-1 $16 #
shell $-1 $-1 $-1 $44 $-1 $18 #
shell $-1 $-1 $-1 $45 $-1 $20 #
shell $-1 $-1 $-1 $46 $-1 $22 #
shell $-1 $-1 $-1 $47 $-1 $24 #
shell $-1 $-1 $-1 $48 $-1 $26 #
shell $-1 $-1 $-1 $49 $-1 $28 #
face $-1 $50 $51 $30 $-1 $52 forward single #
face $-1 $53 $54 $31 $-1 $55 reversed single #
face $-1 $56 $57 $32 $-1 $58 reversed single #
face $-1 $59 $60 $33 $-1 $61 forward single #
face $-1 $62 $63 $34 $-1 $64 reversed single #
face $-1 $65 $66 $35 $-1 $67 forward single #
face $-1 $68 $69 $36 $-1 $70 reversed single #
face $-1 $71 $72 $37 $-1 $73 forward single #
face $-1 $74 $75 $38 $-1 $76 reversed single #
face $-1 $77 $78 $39 $-1 $79 forward single #
face $-1 $80 $81 $30 $-1 $82 reversed single #
loop $-1 $-1 $83 $40 #
plane-surface $-1 0 0 13.12641776680392 0 0 1 1 0 0 forward_v I I I I #
face $-1 $84 $85 $31 $-1 $86 reversed single #
loop $-1 $-1 $87 $41 #
plane-surface $-1 -51.171249500247512 -17.625774769947125 0 0 1 0 0 0 1 forward_v I I I I #
face $-1 $88 $89 $32 $-1 $90 reversed single #
loop $-1 $-1 $91 $42 #
plane-surface $-1 -25.774567453090231 -126.1744120305751 76.165970192121591 -1 0 0 0 -0.77714596973225614 0.62932038083071107 forward_v I I I I #
face $-1 $92 $93 $33 $-1 $94 forward single #
loop $-1 $95 $96 $43 #
cone-surface $-1 -35.908870456322333 -31.726422933367182 6.1583705467992935 0 0.77714596973225614 -0.62932038083071107 2.5 0 0 1 I I 0 1 2.5 forward I I I I #
face $-1 $97 $98 $34 $-1 $99 reversed single #
loop $-1 $-1 $100 $44 #
plane-surface $-1 25.396682047157281 -126.1744120305751 76.165970192121591 -1 0 0 0 -0.77714596973225614 0.62932038083071107 forward_v I I I I #
face $-1 $101 $102 $35 $-1 $103 forward single #
loop $-1 $104 $105 $45 #
cone-surface $-1 15.262379043925179 -31.726422933367182 6.1583705467992935 0 0.77714596973225614 -0.62932038083071107 2.5 0 0 1 I I 0 1 2.5 forward I I I I #
face $-1 $106 $107 $36 $-1 $108 reversed single #
loop $-1 $-1 $109 $46 #
plane-surface $-1 -46.043173459554438 77.504253756157425 136.26861186926988 1 0 0 0 -0.77714596973225614 -0.62932038083071107 forward_v I I I I #
face $-1 $110 $111 $37 $-1 $112 forward single #
loop $-1 $113 $114 $47 #
cone-surface $-1 -35.908870456322333 31.726422933367189 6.1583705467992989 0 -0.77714596973225614 -0.62932038083071107 2.5 0 0 1 I I 0 1 2.5 forward I I I I #
face $-1 $115 $116 $38 $-1 $117 reversed single #
loop $-1 $-1 $118 $48 #
plane-surface $-1 5.1280760406930774 77.504253756157425 136.26861186926988 1 0 0 0 -0.77714596973225614 -0.62932038083071107 forward_v I I I I #
face $-1 $119 $120 $39 $-1 $121 forward single #
loop $-1 $122 $123 $49 #
cone-surface $-1 15.262379043925179 31.726422933367189 6.1583705467992989 0 -0.77714596973225614 -0.62932038083071107 2.5 0 0 1 I I 0 1 2.5 forward I I I I #
face $-1 $124 $125 $30 $-1 $126 reversed single #
loop $-1 $-1 $127 $50 #
plane-surface $-1 0 0 -13.12641776680392 0 0 1 1 0 0 forward_v I I I I #
coedge $-1 $128 $129 $130 $131 forward $51 $-1 #
face $-1 $132 $133 $31 $-1 $134 reversed single #
loop $-1 $-1 $135 $53 #
plane-surface $-1 -51.171249500247512 -12.41598861139477 0 0 -1 0 0 0 -1 forward_v I I I I #
coedge $-1 $136 $137 $138 $139 reversed $54 $-1 #
face $-1 $140 $141 $32 $-1 $142 reversed single #
loop $-1 $-1 $143 $56 #
plane-surface $-1 -35.908870456322333 -38.668824145002603 5.3053442122477747 0 -0.77714596973225614 0.62932038083071107 1 0 0 forward_v I I I I #
coedge $-1 $144 $145 $146 $147 reversed $57 $-1 #
face $-1 $-1 $148 $33 $-1 $149 forward single #
loop $-1 $150 $151 $59 #
cone-surface $-1 -35.908870456322333 -26.979279417886374 2.314209628034348 0 0.77714596973225614 -0.62932038083071107 1.25 0 0 1 I I -0.70710678118654746 0.70710678118654746 1.25 forward I I I I #
loop $-1 $-1 $152 $43 #
coedge $-1 $96 $96 $153 $154 reversed $60 $-1 #
face $-1 $155 $156 $34 $-1 $157 reversed single #
loop $-1 $-1 $158 $62 #
plane-surface $-1 15.262379043925179 -38.668824145002603 5.3053442122477747 0 -0.77714596973225614 0.62932038083071107 1 0 0 forward_v I I I I #
coedge $-1 $159 $160 $161 $162 reversed $63 $-1 #
face $-1 $-1 $163 $35 $-1 $164 forward single #
loop $-1 $165 $166 $65 #
cone-surface $-1 15.262379043925179 -26.979279417886374 2.314209628034348 0 0.77714596973225614 -0.62932038083071107 1.25 0 0 1 I I -0.70710678118654746 0.70710678118654746 1.25 forward I I I I #
loop $-1 $-1 $167 $45 #
coedge $-1 $105 $105 $168 $169 reversed $66 $-1 #
face $-1 $170 $171 $36 $-1 $172 reversed single #
loop $-1 $-1 $173 $68 #
plane-surface $-1 -35.908870456322333 -10.001334129415071 65.407985889396059 0 0.77714596973225614 0.62932038083071107 1 0 0 forward_v I I I I #
coedge $-1 $174 $175 $176 $177 reversed $69 $-1 #
face $-1 $-1 $178 $37 $-1 $179 forward single #
loop $-1 $180 $181 $71 #
cone-surface $-1 -35.908870456322333 26.979279417886382 2.3142096280343534 0 -0.77714596973225614 -0.62932038083071107 1.25 0 0 1 I I -0.70710678118654746 0.70710678118654746 1.25 forward I I I I #
loop $-1 $-1 $182 $47 #
coedge $-1 $114 $114 $183 $184 reversed $72 $-1 #
face $-1 $185 $186 $38 $-1 $187 reversed single #
loop $-1 $-1 $188 $74 #
plane-surface $-1 15.262379043925179 -10.001334129415071 65.407985889396059 0 0.77714596973225614 0.62932038083071107 1 0 0 forward_v I I I I #
coedge $-1 $189 $190 $191 $192 reversed $75 $-1 #
face $-1 $-1 $193 $39 $-1 $194 forward single #
loop $-1 $195 $196 $77 #
cone-surface $-1 15.262379043925179 26.979279417886382 2.3142096280343534 0 -0.77714596973225614 -0.62932038083071107 1.25 0 0 1 I I -0.70710678118654746 0.70710678118654746 1.25 forward I I I I #
loop $-1 $-1 $197 $49 #
coedge $-1 $123 $123 $198 $199 reversed $78 $-1 #
face $-1 $200 $201 $30 $-1 $202 reversed single #
loop $-1 $-1 $203 $80 #
plane-surface $-1 0 -38.66882414500261 0 0 1 0 0 0 1 forward_v I I I I #
coedge $-1 $204 $205 $206 $207 forward $81 $-1 #
coedge $-1 $208 $83 $209 $210 forward $51 $-1 #
coedge $-1 $83 $208 $211 $212 forward $51 $-1 #
coedge $-1 $213 $214 $83 $131 reversed $215 $-1 #
edge $-1 $216 -38.66882414500261 $217 38.66882414500261 $130 $218 forward 7 unknown #
face $-1 $219 $220 $31 $-1 $221 reversed single #
loop $-1 $-1 $222 $84 #
plane-surface $-1 -46.043173459554438 -15.020881690670947 0 -1 0 0 0 0 1 forward_v I I I I #
coedge $-1 $223 $224 $225 $226 forward $85 $-1 #
coedge $-1 $227 $87 $228 $229 reversed $54 $-1 #
coedge $-1 $87 $227 $230 $231 reversed $54 $-1 #
coedge $-1 $232 $233 $87 $139 forward $234 $-1 #
edge $-1 $235 -13.12641776680392 $236 13.12641776680392 $138 $237 forward 7 unknown #
face $-1 $238 $239 $32 $-1 $240 reversed single #
loop $-1 $-1 $241 $88 #
plane-surface $-1 -46.043173459554438 -126.1744120305751 76.165970192121591 1 0 0 0 0.77714596973225614 -0.62932038083071107 forward_v I I I I #
coedge $-1 $242 $243 $244 $245 reversed $89 $-1 #
coedge $-1 $145 $91 $246 $247 reversed $57 $-1 #
coedge $-1 $91 $144 $242 $248 reversed $57 $-1 #
coedge $-1 $244 $249 $91 $147 forward $250 $-1 #
edge $-1 $251 24.418381870284939 $252 30.751762186924822 $146 $253 forward 7 unknown #
loop $-1 $-1 $153 $92 #
plane-surface $-1 -35.908870456322333 -38.668824145002603 5.3053442122477747 0 -0.77714596973225614 0.62932038083071107 1 0 0 forward_v I I I I #
loop $-1 $-1 $254 $59 #
coedge $-1 $151 $151 $152 $255 reversed $93 $-1 #
coedge $-1 $152 $152 $151 $255 forward $95 $-1 #
coedge $-1 $153 $153 $96 $154 forward $148 $-1 #
edge $-1 $256 -6.8424525342317955e-016 $256 6.2831853071795996 $153 $257 forward 7 unknown #
face $-1 $258 $259 $34 $-1 $260 reversed single #
loop $-1 $-1 $261 $97 #
plane-surface $-1 5.1280760406930774 -126.1744120305751 76.165970192121591 1 0 0 0 0.77714596973225614 -0.62932038083071107 forward_v I I I I #
coedge $-1 $262 $263 $264 $265 reversed $98 $-1 #
coedge $-1 $160 $100 $266 $267 reversed $63 $-1 #
coedge $-1 $100 $159 $262 $268 reversed $63 $-1 #
coedge $-1 $264 $269 $100 $162 forward $270 $-1 #
edge $-1 $271 24.418381870284939 $272 30.751762186924822 $161 $273 forward 7 unknown #
loop $-1 $-1 $168 $101 #
plane-surface $-1 15.262379043925179 -38.668824145002603 5.3053442122477747 0 -0.77714596973225614 0.62932038083071107 1 0 0 forward_v I I I I #
loop $-1 $-1 $274 $65 #
coedge $-1 $166 $166 $167 $275 reversed $102 $-1 #
coedge $-1 $167 $167 $166 $275 forward $104 $-1 #
coedge $-1 $168 $168 $105 $169 forward $163 $-1 #
edge $-1 $276 -6.8424525342317955e-016 $276 6.2831853071795996 $168 $277 forward 7 unknown #
face $-1 $278 $279 $36 $-1 $280 reversed single #
loop $-1 $-1 $281 $106 #
plane-surface $-1 -25.774567453090231 77.504253756157425 136.26861186926988 -1 0 0 0 0.77714596973225614 0.62932038083071107 forward_v I I I I #
coedge $-1 $282 $283 $284 $285 reversed $107 $-1 #
coedge $-1 $175 $109 $286 $287 reversed $69 $-1 #
coedge $-1 $109 $174 $282 $288 reversed $69 $-1 #
coedge $-1 $284 $289 $109 $177 forward $290 $-1 #
edge $-1 $291 0.083302733076102697 $292 6.4166830497159637 $176 $293 forward 7 unknown #
loop $-1 $-1 $183 $110 #
plane-surface $-1 -35.908870456322333 -10.001334129415071 65.407985889396059 0 0.77714596973225614 0.62932038083071107 1 0 0 forward_v I I I I #
loop $-1 $-1 $294 $71 #
coedge $-1 $181 $181 $182 $295 reversed $111 $-1 #
coedge $-1 $182 $182 $181 $295 forward $113 $-1 #
coedge $-1 $183 $183 $114 $184 forward $178 $-1 #
edge $-1 $296 1.1043908468369865e-015 $296 6.2831853071796013 $183 $297 forward 7 unknown #
face $-1 $298 $299 $38 $-1 $300 forward single #
loop $-1 $-1 $301 $115 #
plane-surface $-1 25.396682047157281 77.504253756157425 136.26861186926988 -1 0 0 0 0.77714596973225614 0.62932038083071107 forward_v I I I I #
coedge $-1 $302 $303 $304 $305 reversed $116 $-1 #
coedge $-1 $190 $118 $306 $307 reversed $75 $-1 #
coedge $-1 $118 $189 $302 $308 reversed $75 $-1 #
coedge $-1 $304 $309 $118 $192 forward $299 $-1 #
edge $-1 $310 0.083302733076102697 $311 6.4166830497159637 $191 $312 forward 7 unknown #
loop $-1 $-1 $198 $119 #
plane-surface $-1 15.262379043925179 -10.001334129415071 65.407985889396059 0 0.77714596973225614 0.62932038083071107 1 0 0 forward_v I I I I #
loop $-1 $-1 $313 $77 #
coedge $-1 $196 $196 $197 $314 reversed $120 $-1 #
coedge $-1 $197 $197 $196 $314 forward $122 $-1 #
coedge $-1 $198 $198 $123 $199 forward $193 $-1 #
edge $-1 $315 1.1043908468369865e-015 $315 6.2831853071796013 $198 $316 forward 7 unknown #
face $-1 $317 $318 $30 $-1 $319 reversed single #
loop $-1 $-1 $320 $124 #
plane-surface $-1 -56.299325540940586 0 0 1 0 0 0 0 -1 forward_v I I I I #
coedge $-1 $321 $211 $322 $323 forward $125 $-1 #
coedge $-1 $324 $127 $321 $325 forward $81 $-1 #
coedge $-1 $127 $324 $326 $327 forward $81 $-1 #
coedge $-1 $214 $213 $127 $207 reversed $215 $-1 #
edge $-1 $328 -38.66882414500261 $329 38.66882414500261 $206 $330 forward 7 unknown #
coedge $-1 $129 $128 $331 $332 forward $51 $-1 #
coedge $-1 $333 $334 $128 $210 reversed $318 $-1 #
edge $-1 $217 -56.299325540940586 $335 56.299325540940586 $209 $336 forward 7 unknown #
coedge $-1 $203 $337 $129 $212 reversed $125 $-1 #
edge $-1 $338 -56.299325540940586 $216 56.299325540940586 $211 $339 forward 7 unknown #
coedge $-1 $206 $130 $337 $340 forward $215 $-1 #
coedge $-1 $130 $206 $333 $341 reversed $215 $-1 #
loop $-1 $-1 $213 $317 #
vertex $-1 $131 $342 #
vertex $-1 $131 $343 #
straight-curve $-1 56.299325540940586 0 13.12641776680392 0 1 0 I I #
face $-1 $344 $345 $31 $-1 $346 forward single #
loop $-1 $-1 $347 $132 #
plane-surface $-1 0 0 -13.12641776680392 0 0 1 1 0 0 forward_v I I I I #
coedge $-1 $348 $349 $227 $350 forward $133 $-1 #
coedge $-1 $351 $135 $347 $352 reversed $85 $-1 #
coedge $-1 $135 $351 $353 $354 reversed $85 $-1 #
coedge $-1 $349 $348 $135 $226 reversed $133 $-1 #
edge $-1 $355 -13.12641776680392 $356 13.12641776680392 $225 $357 forward 7 unknown #
coedge $-1 $137 $136 $222 $350 reversed $54 $-1 #
coedge $-1 $358 $359 $136 $229 forward $220 $-1 #
edge $-1 $360 20.457548709430682 $235 30.71370079081683 $228 $361 forward 7 unknown #
coedge $-1 $362 $363 $137 $231 forward $345 $-1 #
edge $-1 $236 -30.71370079081683 $364 -20.457548709430682 $230 $365 forward 7 unknown #
coedge $-1 $366 $138 $363 $367 reversed $234 $-1 #
coedge $-1 $138 $366 $358 $368 reversed $234 $-1 #
loop $-1 $-1 $366 $344 #
vertex $-1 $368 $369 #
vertex $-1 $139 $370 #
straight-curve $-1 -56.299325540940586 -17.625774769947125 0 0 0 1 I I #
face $-1 $-1 $250 $32 $-1 $371 forward single #
loop $-1 $-1 $372 $140 #
plane-surface $-1 0 -38.66882414500261 0 0 1 0 0 0 1 forward_v I I I I #
coedge $-1 $373 $374 $375 $376 reversed $141 $-1 #
coedge $-1 $377 $143 $145 $248 forward $89 $-1 #
coedge $-1 $143 $377 $373 $378 forward $89 $-1 #
coedge $-1 $375 $146 $143 $245 forward $250 $-1 #
edge $-1 $252 7.8201322249290648 $379 28.088738231393272 $244 $380 forward 7 unknown #
coedge $-1 $381 $382 $144 $247 forward $239 $-1 #
edge $-1 $383 -32.777640883813028 $251 -24.956567329256877 $246 $384 forward 7 unknown #
edge $-1 $252 -10.063841104716374 $383 1.1374033043381581e-014 $145 $385 forward 7 unknown #
coedge $-1 $146 $375 $381 $386 forward $250 $-1 #
loop $-1 $-1 $375 $238 #
vertex $-1 $247 $387 #
vertex $-1 $147 $388 #
straight-curve $-1 -25.774567453090231 -63.087206015287549 13.126417766803918 0 1 0 I I #
coedge $-1 $254 $254 $-1 $389 reversed $150 $-1 #
edge $-1 $390 0 $390 6.2831853071796004 $151 $391 forward 7 unknown #
vertex $-1 $154 $392 #
ellipse-curve $-1 -35.908870456322333 -35.502133986682665 9.2158809895258464 0 -0.77714596973225614 0.62932038083071107 2.5 0 0 1 I I #
face $-1 $-1 $270 $34 $-1 $393 forward single #
loop $-1 $-1 $394 $155 #
plane-surface $-1 0 -38.66882414500261 0 0 1 0 0 0 1 forward_v I I I I #
coedge $-1 $395 $396 $397 $398 reversed $156 $-1 #
coedge $-1 $399 $158 $160 $268 forward $98 $-1 #
coedge $-1 $158 $399 $395 $400 forward $98 $-1 #
coedge $-1 $397 $161 $158 $265 forward $270 $-1 #
edge $-1 $272 -17.765492525194691 $401 2.5031134812695122 $264 $402 forward 7 unknown #
coedge $-1 $403 $404 $159 $267 forward $259 $-1 #
edge $-1 $405 -32.777640883813028 $271 -24.956567329256877 $266 $406 forward 7 unknown #
edge $-1 $272 -10.063841104716374 $405 1.1374033043381581e-014 $160 $407 forward 7 unknown #
coedge $-1 $161 $397 $403 $408 forward $270 $-1 #
loop $-1 $-1 $397 $258 #
vertex $-1 $267 $409 #
vertex $-1 $162 $410 #
straight-curve $-1 25.396682047157281 -63.087206015287549 13.126417766803918 0 1 0 I I #
coedge $-1 $274 $274 $-1 $411 reversed $165 $-1 #
edge $-1 $412 0 $412 6.2831853071796004 $166 $413 forward 7 unknown #
vertex $-1 $169 $414 #
ellipse-curve $-1 15.262379043925179 -35.502133986682665 9.2158809895258464 0 -0.77714596973225614 0.62932038083071107 2.5 0 0 1 I I #
face $-1 $-1 $290 $36 $-1 $415 forward single #
loop $-1 $-1 $416 $170 #
plane-surface $-1 0 38.66882414500261 0 0 -1 0 0 0 -1 forward_v I I I I #
coedge $-1 $417 $418 $419 $420 reversed $171 $-1 #
coedge $-1 $421 $173 $175 $288 forward $107 $-1 #
coedge $-1 $173 $421 $417 $422 forward $107 $-1 #
coedge $-1 $419 $176 $173 $285 forward $290 $-1 #
edge $-1 $292 -28.088738231393272 $423 -7.8201322249290648 $284 $424 forward 7 unknown #
coedge $-1 $425 $426 $174 $287 forward $279 $-1 #
edge $-1 $427 -62.828961722387156 $291 -55.00788816783102 $286 $428 forward 7 unknown #
edge $-1 $292 67.273807185288874 $427 77.337648290005234 $175 $429 forward 7 unknown #
coedge $-1 $176 $419 $425 $430 forward $290 $-1 #
loop $-1 $-1 $419 $278 #
vertex $-1 $287 $431 #
vertex $-1 $177 $432 #
straight-curve $-1 -46.043173459554438 38.752126878078712 13.126417766803918 0 -1 0 I I #
coedge $-1 $294 $294 $-1 $433 reversed $180 $-1 #
edge $-1 $434 0 $434 6.2831853071796004 $181 $435 forward 7 unknown #
vertex $-1 $184 $436 #
ellipse-curve $-1 -35.908870456322333 35.502133986682679 9.2158809895258571 0 0.77714596973225614 0.62932038083071107 2.5 0 0 1 I I #
face $-1 $-1 $437 $38 $-1 $438 reversed single #
loop $-1 $-1 $191 $185 #
plane-surface $-1 0 0 13.12641776680392 0 0 1 1 0 0 forward_v I I I I #
coedge $-1 $439 $440 $441 $442 reversed $186 $-1 #
coedge $-1 $443 $188 $190 $308 forward $116 $-1 #
coedge $-1 $188 $443 $439 $444 forward $116 $-1 #
coedge $-1 $441 $191 $188 $305 forward $299 $-1 #
edge $-1 $311 -2.5031134812695122 $445 17.765492525194691 $304 $446 forward 7 unknown #
coedge $-1 $447 $448 $189 $307 forward $437 $-1 #
edge $-1 $449 -62.828961722387156 $310 -55.00788816783102 $306 $450 forward 7 unknown #
edge $-1 $311 67.273807185288874 $449 77.337648290005234 $190 $451 forward 7 unknown #
coedge $-1 $191 $441 $447 $452 forward $299 $-1 #
vertex $-1 $307 $453 #
vertex $-1 $192 $454 #
straight-curve $-1 5.1280760406930774 38.752126878078712 13.126417766803918 0 -1 0 I I #
coedge $-1 $313 $313 $-1 $455 reversed $195 $-1 #
edge $-1 $456 0 $456 6.2831853071796004 $196 $457 forward 7 unknown #
vertex $-1 $199 $458 #
ellipse-curve $-1 15.262379043925179 35.502133986682679 9.2158809895258571 0 0.77714596973225614 0.62932038083071107 2.5 0 0 1 I I #
face $-1 $-1 $215 $30 $-1 $459 reversed single #
loop $-1 $-1 $333 $200 #
plane-surface $-1 0 38.66882414500261 0 0 -1 0 0 0 -1 forward_v I I I I #
coedge $-1 $460 $331 $334 $461 forward $201 $-1 #
coedge $-1 $337 $203 $204 $325 reversed $125 $-1 #
coedge $-1 $331 $460 $203 $323 reversed $201 $-1 #
edge $-1 $338 -13.12641776680392 $462 13.12641776680392 $322 $463 forward 7 unknown #
coedge $-1 $205 $204 $460 $464 forward $81 $-1 #
edge $-1 $329 -56.299325540940586 $462 56.299325540940586 $321 $465 forward 7 unknown #
coedge $-1 $334 $333 $205 $327 reversed $318 $-1 #
edge $-1 $466 -56.299325540940586 $328 56.299325540940586 $326 $467 forward 7 unknown #
vertex $-1 $207 $468 #
vertex $-1 $340 $469 #
straight-curve $-1 56.299325540940586 0 -13.12641776680392 0 -1 0 I I #
coedge $-1 $320 $322 $208 $332 reversed $201 $-1 #
edge $-1 $335 -38.66882414500261 $338 38.66882414500261 $331 $470 forward 7 unknown #
coedge $-1 $326 $209 $214 $341 forward $318 $-1 #
coedge $-1 $209 $326 $320 $461 reversed $318 $-1 #
vertex $-1 $210 $471 #
straight-curve $-1 0 38.66882414500261 13.12641776680392 -1 0 0 I I #
coedge $-1 $211 $321 $213 $340 reversed $125 $-1 #
vertex $-1 $332 $472 #
straight-curve $-1 0 -38.66882414500261 13.12641776680392 1 0 0 I I #
edge $-1 $216 -13.12641776680392 $329 13.12641776680392 $213 $473 forward 7 unknown #
edge $-1 $217 -13.12641776680392 $328 13.12641776680392 $214 $474 forward 7 unknown #
point $-1 56.299325540940586 -38.66882414500261 13.12641776680392 #
point $-1 56.299325540940586 38.66882414500261 13.12641776680392 #
face $-1 $-1 $234 $31 $-1 $475 reversed single #
loop $-1 $-1 $353 $219 #
plane-surface $-1 0 0 13.12641776680392 0 0 1 1 0 0 forward_v I I I I #
coedge $-1 $359 $358 $223 $352 forward $220 $-1 #
coedge $-1 $225 $222 $359 $476 reversed $133 $-1 #
coedge $-1 $222 $225 $362 $477 reversed $133 $-1 #
edge $-1 $364 -13.12641776680392 $360 13.12641776680392 $222 $478 forward 7 unknown #
coedge $-1 $224 $223 $366 $479 reversed $85 $-1 #
edge $-1 $480 -30.71370079081683 $356 -20.457548709430682 $347 $481 forward 7 unknown #
coedge $-1 $363 $362 $224 $354 forward $345 $-1 #
edge $-1 $355 20.457548709430682 $482 30.71370079081683 $353 $483 forward 7 unknown #
vertex $-1 $354 $484 #
vertex $-1 $352 $485 #
straight-curve $-1 -46.043173459554438 -12.41598861139477 0 0 0 -1 I I #
coedge $-1 $347 $228 $233 $368 forward $220 $-1 #
coedge $-1 $228 $347 $348 $476 forward $220 $-1 #
vertex $-1 $229 $486 #
straight-curve $-1 -25.585624750123756 -17.625774769947125 -13.12641776680392 -1 0 0 I I #
coedge $-1 $353 $230 $349 $477 forward $345 $-1 #
coedge $-1 $230 $353 $232 $367 forward $345 $-1 #
vertex $-1 $231 $487 #
straight-curve $-1 -25.585624750123756 -17.625774769947125 13.12641776680392 1 0 0 I I #
coedge $-1 $233 $232 $351 $479 forward $234 $-1 #
edge $-1 $482 12.41598861139477 $236 17.625774769947125 $232 $488 forward 7 unknown #
edge $-1 $235 -17.625774769947125 $480 -12.41598861139477 $233 $489 forward 7 unknown #
point $-1 -56.299325540940586 -17.625774769947125 -13.12641776680392 #
point $-1 -56.299325540940586 -17.625774769947125 13.12641776680392 #
plane-surface $-1 0 0 13.12641776680392 0 0 1 1 0 0 forward_v I I I I #
coedge $-1 $382 $381 $374 $490 forward $239 $-1 #
coedge $-1 $374 $241 $243 $378 reversed $141 $-1 #
coedge $-1 $241 $373 $372 $490 reversed $141 $-1 #
coedge $-1 $249 $244 $241 $376 forward $250 $-1 #
edge $-1 $379 -30.751762186924822 $491 -24.418381870284939 $375 $492 forward 7 unknown #
coedge $-1 $243 $242 $382 $493 reversed $89 $-1 #
edge $-1 $494 -1.1374033043381581e-014 $379 10.063841104716374 $373 $495 forward 7 unknown #
vertex $-1 $245 $496 #
straight-curve $-1 -17.954435228161167 -32.335443828362727 13.12641776680392 -1 0 0 I I #
coedge $-1 $372 $246 $249 $386 reversed $239 $-1 #
coedge $-1 $246 $372 $377 $493 forward $239 $-1 #
vertex $-1 $247 $497 #
straight-curve $-1 -25.774567453090231 -38.66882414500261 38.082985096060796 0 0 1 I I #
straight-curve $-1 -25.774567453090231 -38.668824145002603 5.3053442122477747 0 -0.62932038083071107 -0.77714596973225614 I I #
edge $-1 $491 -46.043173459554438 $251 -25.774567453090231 $381 $498 forward 7 unknown #
point $-1 -25.774567453090231 -38.66882414500261 13.12641776680392 #
point $-1 -25.774567453090231 -32.335443828362727 13.12641776680392 #
edge $-1 $499 1 $499 0 $254 $-1 forward 7 unknown #
vertex $-1 $255 $500 #
ellipse-curve $-1 -35.908870456322333 -27.950711880051696 3.100860104072737 0 -0.77714596973225614 0.62932038083071107 2.5 0 0 1 I I #
point $-1 -33.408870456322333 -35.502133986682672 9.21588098952585 #
plane-surface $-1 0 0 13.12641776680392 0 0 1 1 0 0 forward_v I I I I #
coedge $-1 $404 $403 $396 $501 forward $259 $-1 #
coedge $-1 $396 $261 $263 $400 reversed $156 $-1 #
coedge $-1 $261 $395 $394 $501 reversed $156 $-1 #
coedge $-1 $269 $264 $261 $398 forward $270 $-1 #
edge $-1 $401 -30.751762186924822 $502 -24.418381870284939 $397 $503 forward 7 unknown #
coedge $-1 $263 $262 $404 $504 reversed $98 $-1 #
edge $-1 $505 -1.1374033043381581e-014 $401 10.063841104716374 $395 $506 forward 7 unknown #
vertex $-1 $265 $507 #
straight-curve $-1 7.6311895219625896 -32.335443828362727 13.12641776680392 -1 0 0 I I #
coedge $-1 $394 $266 $269 $408 reversed $259 $-1 #
coedge $-1 $266 $394 $399 $504 forward $259 $-1 #
vertex $-1 $267 $508 #
straight-curve $-1 25.396682047157281 -38.66882414500261 38.082985096060796 0 0 1 I I #
straight-curve $-1 25.396682047157281 -38.668824145002603 5.3053442122477747 0 -0.62932038083071107 -0.77714596973225614 I I #
edge $-1 $502 5.1280760406930774 $271 25.396682047157281 $403 $509 forward 7 unknown #
point $-1 25.396682047157281 -38.66882414500261 13.12641776680392 #
point $-1 25.396682047157281 -32.335443828362727 13.12641776680392 #
edge $-1 $510 1 $510 0 $274 $-1 forward 7 unknown #
vertex $-1 $275 $511 #
ellipse-curve $-1 15.262379043925179 -27.950711880051696 3.100860104072737 0 -0.77714596973225614 0.62932038083071107 2.5 0 0 1 I I #
point $-1 17.762379043925179 -35.502133986682672 9.21588098952585 #
plane-surface $-1 0 0 13.12641776680392 0 0 1 1 0 0 forward_v I I I I #
coedge $-1 $426 $425 $418 $512 forward $279 $-1 #
coedge $-1 $418 $281 $283 $422 reversed $171 $-1 #
coedge $-1 $281 $417 $416 $512 reversed $171 $-1 #
coedge $-1 $289 $284 $281 $420 forward $290 $-1 #
edge $-1 $423 -6.4166830497159637 $513 -0.083302733076102697 $419 $514 forward 7 unknown #
coedge $-1 $283 $282 $426 $515 reversed $107 $-1 #
edge $-1 $516 -77.337648290005234 $423 -67.273807185288874 $417 $517 forward 7 unknown #
vertex $-1 $285 $518 #
straight-curve $-1 -17.954435228161167 32.335443828362749 13.126417766803918 1 0 0 I I #
coedge $-1 $416 $286 $289 $430 reversed $279 $-1 #
coedge $-1 $286 $416 $421 $515 forward $279 $-1 #
vertex $-1 $287 $519 #
straight-curve $-1 -46.043173459554438 38.66882414500261 68.134305934634938 0 0 1 I I #
straight-curve $-1 -46.043173459554438 -10.001334129415071 65.407985889396059 0 0.62932038083071107 -0.77714596973225614 I I #
edge $-1 $513 25.774567453090231 $291 46.043173459554438 $425 $520 forward 7 unknown #
point $-1 -46.043173459554438 38.66882414500261 13.12641776680392 #
point $-1 -46.043173459554438 32.335443828362749 13.126417766803918 #
edge $-1 $521 1 $521 0 $294 $-1 forward 7 unknown #
vertex $-1 $295 $522 #
ellipse-curve $-1 -35.908870456322333 27.950711880051703 3.1008601040727424 0 0.77714596973225614 0.62932038083071107 2.5 0 0 1 I I #
point $-1 -33.408870456322333 35.502133986682679 9.2158809895258536 #
loop $-1 $-1 $306 $298 #
plane-surface $-1 0 38.66882414500261 0 0 -1 0 0 0 -1 forward_v I I I I #
coedge $-1 $440 $301 $303 $444 reversed $186 $-1 #
coedge $-1 $301 $439 $523 $524 reversed $186 $-1 #
coedge $-1 $309 $304 $301 $442 forward $299 $-1 #
edge $-1 $445 -6.4166830497159637 $525 -0.083302733076102697 $441 $526 forward 7 unknown #
coedge $-1 $303 $302 $448 $527 reversed $116 $-1 #
edge $-1 $528 -77.337648290005234 $445 -67.273807185288874 $439 $529 forward 7 unknown #
vertex $-1 $305 $530 #
straight-curve $-1 7.6311895219625896 32.335443828362749 13.126417766803918 1 0 0 I I #
coedge $-1 $523 $306 $309 $452 reversed $437 $-1 #
coedge $-1 $306 $523 $443 $527 forward $437 $-1 #
vertex $-1 $307 $531 #
straight-curve $-1 5.1280760406930774 38.66882414500261 68.134305934634938 0 0 1 I I #
straight-curve $-1 5.1280760406930774 -10.001334129415071 65.407985889396059 0 0.62932038083071107 -0.77714596973225614 I I #
edge $-1 $525 -25.396682047157281 $310 -5.1280760406930774 $447 $532 forward 7 unknown #
point $-1 5.1280760406930774 38.66882414500261 13.12641776680392 #
point $-1 5.1280760406930774 32.335443828362749 13.126417766803918 #
edge $-1 $533 1 $533 0 $313 $-1 forward 7 unknown #
vertex $-1 $314 $534 #
ellipse-curve $-1 15.262379043925179 27.950711880051703 3.1008601040727424 0 0.77714596973225614 0.62932038083071107 2.5 0 0 1 I I #
point $-1 17.762379043925179 35.502133986682679 9.2158809895258536 #
plane-surface $-1 56.299325540940586 0 0 -1 0 0 0 0 1 forward_v I I I I #
coedge $-1 $322 $320 $324 $464 reversed $201 $-1 #
edge $-1 $335 -13.12641776680392 $466 13.12641776680392 $334 $535 forward 7 unknown #
vertex $-1 $464 $536 #
straight-curve $-1 -56.299325540940586 -38.66882414500261 0 0 0 -1 I I #
edge $-1 $462 -38.66882414500261 $466 38.66882414500261 $460 $537 forward 7 unknown #
straight-curve $-1 0 -38.66882414500261 -13.12641776680392 -1 0 0 I I #
vertex $-1 $327 $538 #
straight-curve $-1 0 38.66882414500261 -13.12641776680392 1 0 0 I I #
point $-1 56.299325540940586 38.66882414500261 -13.12641776680392 #
point $-1 56.299325540940586 -38.66882414500261 -13.12641776680392 #
straight-curve $-1 -56.299325540940586 0 13.12641776680392 0 -1 0 I I #
point $-1 -56.299325540940586 38.66882414500261 13.12641776680392 #
point $-1 -56.299325540940586 -38.66882414500261 13.12641776680392 #
straight-curve $-1 56.299325540940586 -38.66882414500261 0 0 0 -1 I I #
straight-curve $-1 56.299325540940586 38.66882414500261 0 0 0 -1 I I #
plane-surface $-1 -56.299325540940586 0 0 1 0 0 0 0 -1 forward_v I I I I #
edge $-1 $356 4.9055477660592963 $360 10.115333924611651 $359 $539 forward 7 unknown #
edge $-1 $364 -10.115333924611651 $355 -4.9055477660592963 $362 $540 forward 7 unknown #
straight-curve $-1 -46.043173459554438 -17.625774769947125 0 0 0 -1 I I #
edge $-1 $482 -13.12641776680392 $480 13.12641776680392 $366 $541 forward 7 unknown #
vertex $-1 $479 $542 #
straight-curve $-1 -25.585624750123756 -12.41598861139477 -13.12641776680392 1 0 0 I I #
vertex $-1 $367 $543 #
straight-curve $-1 -25.585624750123756 -12.41598861139477 13.12641776680392 -1 0 0 I I #
point $-1 -46.043173459554438 -12.41598861139477 13.12641776680392 #
point $-1 -46.043173459554438 -12.41598861139477 -13.12641776680392 #
point $-1 -46.043173459554438 -17.625774769947125 -13.12641776680392 #
point $-1 -46.043173459554438 -17.625774769947125 13.12641776680392 #
straight-curve $-1 -56.299325540940586 0 13.12641776680392 0 -1 0 I I #
straight-curve $-1 -56.299325540940586 0 -13.12641776680392 0 1 0 I I #
edge $-1 $491 24.956567329256877 $494 32.777640883813028 $372 $544 forward 7 unknown #
vertex $-1 $386 $545 #
straight-curve $-1 -46.043173459554438 -63.087206015287549 13.126417766803918 0 -1 0 I I #
edge $-1 $494 -28.088738231393272 $383 -7.8201322249290648 $382 $546 forward 7 unknown #
vertex $-1 $493 $547 #
straight-curve $-1 -46.043173459554438 -38.668824145002603 5.3053442122477747 0 0.62932038083071107 0.77714596973225614 I I #
point $-1 -46.043173459554438 -32.335443828362727 13.12641776680392 #
point $-1 -25.774567453090231 -38.66882414500261 5.3053442122477659 #
straight-curve $-1 0 -38.66882414500261 13.12641776680392 1 0 0 I I #
vertex $-1 $389 $548 #
point $-1 -33.408870456322333 -27.950711880051696 3.100860104072737 #
edge $-1 $502 24.956567329256877 $505 32.777640883813028 $394 $549 forward 7 unknown #
vertex $-1 $408 $550 #
straight-curve $-1 5.1280760406930774 -63.087206015287549 13.126417766803918 0 -1 0 I I #
edge $-1 $505 -2.5031134812695122 $405 17.765492525194691 $404 $551 forward 7 unknown #
vertex $-1 $504 $552 #
straight-curve $-1 5.1280760406930774 -38.668824145002603 5.3053442122477747 0 0.62932038083071107 0.77714596973225614 I I #
point $-1 5.1280760406930774 -32.335443828362727 13.12641776680392 #
point $-1 25.396682047157281 -38.66882414500261 5.3053442122477659 #
straight-curve $-1 0 -38.66882414500261 13.12641776680392 1 0 0 I I #
vertex $-1 $411 $553 #
point $-1 17.762379043925179 -27.950711880051696 3.100860104072737 #
edge $-1 $513 55.00788816783102 $516 62.828961722387156 $416 $554 forward 7 unknown #
vertex $-1 $430 $555 #
straight-curve $-1 -25.774567453090231 38.752126878078712 13.126417766803918 0 1 0 I I #
edge $-1 $516 7.8201322249290648 $427 28.088738231393272 $426 $556 forward 7 unknown #
vertex $-1 $515 $557 #
straight-curve $-1 -25.774567453090231 -10.001334129415071 65.407985889396059 0 -0.62932038083071107 0.77714596973225614 I I #
point $-1 -25.774567453090231 32.335443828362749 13.126417766803918 #
point $-1 -46.043173459554438 38.668824145002617 5.3053442122477819 #
straight-curve $-1 0 38.66882414500261 13.12641776680392 -1 0 0 I I #
vertex $-1 $433 $558 #
point $-1 -33.408870456322333 27.950711880051703 3.1008601040727424 #
coedge $-1 $448 $447 $440 $524 forward $437 $-1 #
edge $-1 $525 55.00788816783102 $528 62.828961722387156 $523 $559 forward 7 unknown #
vertex $-1 $452 $560 #
straight-curve $-1 25.396682047157281 38.752126878078712 13.126417766803918 0 1 0 I I #
edge $-1 $528 -17.765492525194691 $449 2.5031134812695122 $448 $561 forward 7 unknown #
vertex $-1 $527 $562 #
straight-curve $-1 25.396682047157281 -10.001334129415071 65.407985889396059 0 -0.62932038083071107 0.77714596973225614 I I #
point $-1 25.396682047157281 32.335443828362749 13.126417766803918 #
point $-1 5.1280760406930774 38.668824145002617 5.3053442122477819 #
straight-curve $-1 0 38.66882414500261 13.12641776680392 -1 0 0 I I #
vertex $-1 $455 $563 #
point $-1 17.762379043925179 27.950711880051703 3.1008601040727424 #
straight-curve $-1 -56.299325540940586 38.66882414500261 0 0 0 -1 I I #
point $-1 -56.299325540940586 -38.66882414500261 -13.12641776680392 #
straight-curve $-1 -56.299325540940586 0 -13.12641776680392 0 1 0 I I #
point $-1 -56.299325540940586 38.66882414500261 -13.12641776680392 #
straight-curve $-1 -46.043173459554438 -7.5104408453354736 -13.12641776680392 0 -1 0 I I #
straight-curve $-1 -46.043173459554438 -7.5104408453354736 13.12641776680392 0 1 0 I I #
straight-curve $-1 -56.299325540940586 -12.41598861139477 0 0 0 -1 I I #
point $-1 -56.299325540940586 -12.41598861139477 -13.12641776680392 #
point $-1 -56.299325540940586 -12.41598861139477 13.12641776680392 #
straight-curve $-1 -46.043173459554438 -38.66882414500261 38.082985096060796 0 0 -1 I I #
point $-1 -46.043173459554438 -38.66882414500261 13.12641776680392 #
straight-curve $-1 -17.954435228161167 -38.66882414500261 5.3053442122477641 1 0 0 I I #
point $-1 -46.043173459554438 -38.66882414500261 5.3053442122477659 #
point $-1 -35.908870456322333 -26.007846955721053 1.5275591519959593 #
straight-curve $-1 5.1280760406930774 -38.66882414500261 38.082985096060796 0 0 -1 I I #
point $-1 5.1280760406930774 -38.66882414500261 13.12641776680392 #
straight-curve $-1 7.6311895219625896 -38.66882414500261 5.3053442122477641 1 0 0 I I #
point $-1 5.1280760406930774 -38.66882414500261 5.3053442122477659 #
point $-1 15.262379043925179 -26.007846955721053 1.5275591519959593 #
straight-curve $-1 -25.774567453090231 38.66882414500261 68.134305934634938 0 0 -1 I I #
point $-1 -25.774567453090231 38.66882414500261 13.12641776680392 #
straight-curve $-1 -17.954435228161167 38.66882414500261 5.3053442122477783 -1 0 0 I I #
point $-1 -25.774567453090231 38.668824145002617 5.3053442122477819 #
point $-1 -35.908870456322333 26.00784695572106 1.5275591519959646 #
straight-curve $-1 25.396682047157281 38.66882414500261 68.134305934634938 0 0 -1 I I #
point $-1 25.396682047157281 38.66882414500261 13.12641776680392 #
straight-curve $-1 7.6311895219625896 38.66882414500261 5.3053442122477783 -1 0 0 I I #
point $-1 25.396682047157281 38.668824145002617 5.3053442122477819 #
point $-1 15.262379043925179 26.00784695572106 1.5275591519959646 #
End-of-ACIS-data 