500 0 9 0           
7 Unknown 11 ACIS 5.0 NT 24 Fri Mar 26 01:55:01 1999 
-1 9.9999999999999995e-007 1e-010 
body $-1 $9 $-1 $10 #
body $-1 $11 $-1 $12 #
body $-1 $13 $-1 $14 #
body $-1 $15 $-1 $16 #
body $-1 $17 $-1 $18 #
body $-1 $19 $-1 $20 #
body $-1 $21 $-1 $22 #
body $-1 $23 $-1 $24 #
body $-1 $25 $-1 $26 #
lump $-1 $-1 $27 $0 #
transform $-1 1 0 0 0 1 0 0 0 1 41.021759697256385 20.221936028988715 7.6478254906472012 1 rotate no_reflect no_shear #
lump $-1 $-1 $28 $1 #
transform $-1 1 0 0 0 1 0 0 0 1 41.021759697256385 20.221936028988715 7.6478254906472012 1 rotate no_reflect no_shear #
lump $-1 $-1 $29 $2 #
transform $-1 1 0 0 0 1 0 0 0 1 41.021759697256385 20.221936028988715 7.6478254906472012 1 rotate no_reflect no_shear #
lump $-1 $-1 $30 $3 #
transform $-1 1 0 0 0 1 0 0 0 1 41.021759697256385 20.221936028988715 7.6478254906472012 1 rotate no_reflect no_shear #
lump $-1 $-1 $31 $4 #
transform $-1 1 0 0 0 1 0 0 0 1 41.021759697256385 20.221936028988715 7.6478254906472012 1 rotate no_reflect no_shear #
lump $-1 $-1 $32 $5 #
transform $-1 1 0 0 0 1 0 0 0 1 41.021759697256385 20.221936028988715 7.6478254906472012 1 rotate no_reflect no_shear #
lump $-1 $-1 $33 $6 #
transform $-1 1 0 0 0 1 0 0 0 1 41.021759697256385 20.221936028988715 7.6478254906472012 1 rotate no_reflect no_shear #
lump $-1 $-1 $34 $7 #
transform $-1 1 0 0 0 1 0 0 0 1 41.021759697256385 20.221936028988715 7.6478254906472012 1 rotate no_reflect no_shear #
lump $-1 $-1 $35 $8 #
transform $-1 1 0 0 0 1 0 0 0 1 41.021759697256385 20.221936028988715 7.6478254906472012 1 rotate no_reflect no_shear #
shell $-1 $-1 $-1 $36 $-1 $9 #
shell $-1 $-1 $-1 $37 $-1 $11 #
shell $-1 $-1 $-1 $38 $-1 $13 #
shell $-1 $-1 $-1 $39 $-1 $15 #
shell $-1 $-1 $-1 $40 $-1 $17 #
shell $-1 $-1 $-1 $41 $-1 $19 #
shell $-1 $-1 $-1 $42 $-1 $21 #
shell $-1 $-1 $-1 $43 $-1 $23 #
shell $-1 $-1 $-1 $44 $-1 $25 #
face $-1 $45 $46 $27 $-1 $47 forward single #
face $-1 $48 $49 $28 $-1 $50 forward single #
face $-1 $51 $52 $29 $-1 $53 forward single #
face $-1 $54 $55 $30 $-1 $56 reversed single #
face $-1 $57 $58 $31 $-1 $59 forward single #
face $-1 $60 $61 $32 $-1 $62 reversed single #
face $-1 $63 $64 $33 $-1 $65 forward single #
face $-1 $66 $67 $34 $-1 $68 forward single #
face $-1 $69 $70 $35 $-1 $71 forward single #
face $-1 $72 $73 $27 $-1 $74 reversed single #
loop $-1 $-1 $75 $36 #
plane-surface $-1 0 0 7.6478254906472012 0 0 1 1 0 0 forward_v I I I I #
face $-1 $76 $77 $28 $-1 $78 reversed single #
loop $-1 $-1 $79 $37 #
plane-surface $-1 0 -20.221936028988715 0 0 1 0 0 0 1 forward_v I I I I #
face $-1 $80 $81 $29 $-1 $82 reversed single #
loop $-1 $-1 $83 $38 #
plane-surface $-1 0 20.221936028988715 0 0 -1 0 0 0 -1 forward_v I I I I #
face $-1 $84 $85 $30 $-1 $86 reversed single #
loop $-1 $-1 $87 $39 #
plane-surface $-1 -88.079989783740842 -3.5366598658910142 69.867264742517619 0 1 0 -0.57357644374324357 0 0.81915203911291934 forward_v I I I I #
face $-1 $88 $89 $31 $-1 $90 forward single #
loop $-1 $91 $92 $40 #
cone-surface $-1 -36.305238841102124 -0.47607340802594678 3.5040270250798007 0.57357644374324357 0 -0.81915203911291934 1.228728058669379 0 0.86036466561486535 1 I I 0 1 1.5 forward I I I I #
face $-1 $93 $94 $32 $-1 $95 reversed single #
loop $-1 $-1 $96 $41 #
plane-surface $-1 24.873915359540547 3.415335758277811 116.13307433792271 0 -1 0 -0.6018150307709319 0 -0.79863550430605224 forward_v I I I I #
face $-1 $97 $98 $33 $-1 $99 forward single #
loop $-1 $100 $101 $42 #
cone-surface $-1 36.276754983984084 -2.1424966363426918 3.7911554292702423 -0.6018150307709319 0 -0.79863550430605224 0.39931775215302612 0 -0.30090751538546595 1 I I 0 1 0.5 forward I I I I #
face $-1 $102 $103 $34 $-1 $104 forward single #
loop $-1 $105 $106 $43 #
cone-surface $-1 36.276754983984084 -0.058309488360002604 3.7911554292702423 -0.6018150307709319 0 -0.79863550430605224 0.39931775215302612 0 -0.30090751538546595 1 I I 0 1 0.5 forward I I I I #
face $-1 $107 $108 $35 $-1 $109 forward single #
loop $-1 $110 $111 $44 #
cone-surface $-1 36.276754983984084 2.0258776596226866 3.7911554292702423 -0.6018150307709319 0 -0.79863550430605224 0.39931775215302612 0 -0.30090751538546595 1 I I 0 1 0.5 forward I I I I #
face $-1 $112 $113 $27 $-1 $114 reversed single #
loop $-1 $-1 $115 $45 #
plane-surface $-1 0 0 -7.6478254906472012 0 0 1 1 0 0 forward_v I I I I #
coedge $-1 $116 $117 $118 $119 forward $46 $-1 #
face $-1 $120 $121 $28 $-1 $122 reversed single #
loop $-1 $-1 $123 $48 #
plane-surface $-1 0 0 -7.6478254906472012 0 0 1 1 0 0 forward_v I I I I #
coedge $-1 $124 $125 $126 $127 forward $49 $-1 #
face $-1 $128 $129 $29 $-1 $130 forward single #
loop $-1 $-1 $131 $51 #
plane-surface $-1 41.021759697256385 0 0 -1 0 0 0 0 1 forward_v I I I I #
coedge $-1 $132 $133 $134 $135 forward $52 $-1 #
face $-1 $136 $137 $30 $-1 $138 reversed single #
loop $-1 $-1 $139 $54 #
plane-surface $-1 -41.021759697256378 -0.47607340802594678 2.6611485345021322 -0.57357644374324357 0 0.81915203911291934 0.81915203911291934 0 0.57357644374324357 forward_v I I I I #
coedge $-1 $140 $141 $142 $143 reversed $55 $-1 #
face $-1 $-1 $144 $31 $-1 $145 forward single #
loop $-1 $146 $147 $57 #
cone-surface $-1 -34.719391961340747 -0.47607340802594678 1.2392030082502314 0.57357644374324357 0 -0.81915203911291934 0.61436402933468948 0 0.43018233280743268 1 I I -0.70710678118654757 0.70710678118654757 0.75 forward I I I I #
loop $-1 $-1 $148 $40 #
coedge $-1 $92 $92 $149 $150 reversed $58 $-1 #
face $-1 $151 $152 $32 $-1 $153 reversed single #
loop $-1 $-1 $154 $60 #
plane-surface $-1 -24.501107789423706 -0.058309488360002604 50.610206851242623 0.6018150307709319 0 0.79863550430605224 0.79863550430605224 0 -0.6018150307709319 forward_v I I I I #
coedge $-1 $155 $156 $157 $158 reversed $61 $-1 #
face $-1 $-1 $159 $33 $-1 $160 forward single #
loop $-1 $161 $162 $63 #
cone-surface $-1 35.636227967645127 -2.1424966363426918 2.9411473860011759 -0.6018150307709319 0 -0.79863550430605224 0.19965887607651306 0 -0.15045375769273298 1 I I -0.70710678118654746 0.70710678118654746 0.25 forward I I I I #
loop $-1 $-1 $163 $42 #
coedge $-1 $101 $101 $164 $165 reversed $64 $-1 #
face $-1 $-1 $166 $34 $-1 $167 forward single #
loop $-1 $168 $169 $66 #
cone-surface $-1 35.636227967645127 -0.058309488360002604 2.9411473860011759 -0.6018150307709319 0 -0.79863550430605224 0.19965887607651306 0 -0.15045375769273298 1 I I -0.70710678118654746 0.70710678118654746 0.25 forward I I I I #
loop $-1 $-1 $170 $43 #
coedge $-1 $106 $106 $171 $172 reversed $67 $-1 #
face $-1 $-1 $173 $35 $-1 $174 forward single #
loop $-1 $175 $176 $69 #
cone-surface $-1 35.636227967645127 2.0258776596226866 2.9411473860011759 -0.6018150307709319 0 -0.79863550430605224 0.19965887607651306 0 -0.15045375769273298 1 I I -0.70710678118654746 0.70710678118654746 0.25 forward I I I I #
loop $-1 $-1 $177 $44 #
coedge $-1 $111 $111 $178 $179 reversed $70 $-1 #
face $-1 $180 $181 $27 $-1 $182 reversed single #
loop $-1 $-1 $183 $72 #
plane-surface $-1 0 -20.221936028988715 0 0 1 0 0 0 1 forward_v I I I I #
coedge $-1 $184 $185 $186 $187 forward $73 $-1 #
coedge $-1 $188 $75 $189 $190 forward $46 $-1 #
coedge $-1 $75 $188 $191 $192 forward $46 $-1 #
coedge $-1 $193 $194 $75 $119 reversed $195 $-1 #
edge $-1 $196 -20.221936028988715 $197 20.221936028988715 $118 $198 forward 7 unknown #
face $-1 $199 $200 $28 $-1 $201 forward single #
loop $-1 $-1 $202 $76 #
plane-surface $-1 41.021759697256385 0 0 -1 0 0 0 0 1 forward_v I I I I #
coedge $-1 $203 $204 $205 $206 forward $77 $-1 #
coedge $-1 $205 $79 $202 $207 reversed $49 $-1 #
coedge $-1 $79 $205 $208 $209 reversed $49 $-1 #
coedge $-1 $210 $211 $79 $127 reversed $200 $-1 #
edge $-1 $212 -41.021759697256385 $213 41.021759697256385 $126 $214 forward 7 unknown #
face $-1 $215 $216 $29 $-1 $217 reversed single #
loop $-1 $-1 $218 $80 #
plane-surface $-1 0 24.739280871627081 0.29686046711910219 0 0 1 1 0 0 forward_v I I I I #
coedge $-1 $219 $220 $133 $221 forward $81 $-1 #
coedge $-1 $222 $83 $223 $224 reversed $52 $-1 #
coedge $-1 $83 $222 $131 $221 reversed $52 $-1 #
coedge $-1 $218 $225 $83 $135 reversed $129 $-1 #
edge $-1 $226 -41.021759697256385 $227 41.021759697256385 $134 $228 forward 7 unknown #
face $-1 $229 $230 $30 $-1 $231 reversed single #
loop $-1 $-1 $232 $84 #
plane-surface $-1 -88.079989783740842 2.5845130498391207 69.867264742517619 0 -1 0 0.57357644374324357 0 -0.81915203911291934 forward_v I I I I #
coedge $-1 $233 $234 $235 $236 reversed $85 $-1 #
coedge $-1 $141 $87 $237 $238 reversed $55 $-1 #
coedge $-1 $87 $140 $233 $239 reversed $55 $-1 #
coedge $-1 $235 $240 $87 $143 forward $241 $-1 #
edge $-1 $242 3.0182351946140358 $243 10.139947813014714 $142 $244 forward 7 unknown #
loop $-1 $-1 $149 $88 #
plane-surface $-1 -41.021759697256378 -0.47607340802594678 2.6611485345021322 -0.57357644374324357 0 0.81915203911291934 0.81915203911291934 0 0.57357644374324357 forward_v I I I I #
loop $-1 $-1 $245 $57 #
coedge $-1 $147 $147 $148 $246 reversed $89 $-1 #
coedge $-1 $148 $148 $147 $246 forward $91 $-1 #
coedge $-1 $149 $149 $92 $150 forward $144 $-1 #
edge $-1 $247 0 $247 6.2831853071796004 $149 $248 forward 7 unknown #
face $-1 $249 $250 $32 $-1 $251 forward single #
loop $-1 $-1 $252 $93 #
plane-surface $-1 24.873915359540547 -3.5319547349978162 116.13307433792271 0 1 0 0.6018150307709319 0 0.79863550430605224 forward_v I I I I #
coedge $-1 $253 $254 $255 $256 reversed $94 $-1 #
coedge $-1 $156 $96 $257 $258 reversed $61 $-1 #
coedge $-1 $96 $155 $253 $259 reversed $61 $-1 #
coedge $-1 $255 $260 $96 $158 forward $250 $-1 #
edge $-1 $261 -28.584802017486112 $262 -20.074939108233941 $157 $263 forward 7 unknown #
loop $-1 $-1 $164 $97 #
plane-surface $-1 -24.501107789423706 -0.058309488360002604 50.610206851242623 0.6018150307709319 0 0.79863550430605224 0.79863550430605224 0 -0.6018150307709319 forward_v I I I I #
loop $-1 $-1 $264 $63 #
coedge $-1 $162 $162 $163 $265 reversed $98 $-1 #
coedge $-1 $163 $163 $162 $265 forward $100 $-1 #
coedge $-1 $164 $164 $101 $165 forward $159 $-1 #
edge $-1 $266 0 $266 6.2831853071796004 $164 $267 forward 7 unknown #
loop $-1 $-1 $171 $102 #
plane-surface $-1 -24.501107789423706 -0.058309488360002604 50.610206851242623 0.6018150307709319 0 0.79863550430605224 0.79863550430605224 0 -0.6018150307709319 forward_v I I I I #
loop $-1 $-1 $268 $66 #
coedge $-1 $169 $169 $170 $269 reversed $103 $-1 #
coedge $-1 $170 $170 $169 $269 forward $105 $-1 #
coedge $-1 $171 $171 $106 $172 forward $166 $-1 #
edge $-1 $270 0 $270 6.2831853071796004 $171 $271 forward 7 unknown #
loop $-1 $-1 $178 $107 #
plane-surface $-1 -24.501107789423706 -0.058309488360002604 50.610206851242623 0.6018150307709319 0 0.79863550430605224 0.79863550430605224 0 -0.6018150307709319 forward_v I I I I #
loop $-1 $-1 $272 $69 #
coedge $-1 $176 $176 $177 $273 reversed $108 $-1 #
coedge $-1 $177 $177 $176 $273 forward $110 $-1 #
coedge $-1 $178 $178 $111 $179 forward $173 $-1 #
edge $-1 $274 0 $274 6.2831853071796004 $178 $275 forward 7 unknown #
face $-1 $276 $277 $27 $-1 $278 reversed single #
loop $-1 $-1 $279 $112 #
plane-surface $-1 -41.021759697256385 0 0 1 0 0 0 0 -1 forward_v I I I I #
coedge $-1 $280 $191 $281 $282 forward $113 $-1 #
coedge $-1 $283 $115 $280 $284 forward $73 $-1 #
coedge $-1 $115 $283 $285 $286 forward $73 $-1 #
coedge $-1 $194 $193 $115 $187 reversed $195 $-1 #
edge $-1 $287 -20.221936028988715 $288 20.221936028988715 $186 $289 forward 7 unknown #
coedge $-1 $117 $116 $290 $291 forward $46 $-1 #
coedge $-1 $292 $293 $116 $190 reversed $277 $-1 #
edge $-1 $197 -41.021759697256385 $294 41.021759697256385 $189 $295 forward 7 unknown #
coedge $-1 $183 $296 $117 $192 reversed $113 $-1 #
edge $-1 $297 -41.021759697256385 $196 41.021759697256385 $191 $298 forward 7 unknown #
coedge $-1 $186 $118 $296 $299 forward $195 $-1 #
coedge $-1 $118 $186 $292 $300 reversed $195 $-1 #
loop $-1 $-1 $193 $276 #
vertex $-1 $119 $301 #
vertex $-1 $119 $302 #
straight-curve $-1 41.021759697256385 0 7.6478254906472012 0 1 0 I I #
face $-1 $303 $304 $28 $-1 $305 reversed single #
loop $-1 $-1 $211 $120 #
plane-surface $-1 0 -23.292190080433734 -3.3929858919839022 0 0 1 1 0 0 forward_v I I I I #
coedge $-1 $306 $307 $124 $207 forward $121 $-1 #
coedge $-1 $308 $123 $307 $309 forward $77 $-1 #
coedge $-1 $123 $308 $310 $311 forward $77 $-1 #
coedge $-1 $125 $124 $123 $206 reversed $49 $-1 #
edge $-1 $312 -41.021759697256385 $313 41.021759697256385 $123 $314 forward 7 unknown #
edge $-1 $313 -7.6478254906472012 $213 -3.3929858919839022 $202 $315 forward 7 unknown #
coedge $-1 $310 $316 $125 $209 forward $317 $-1 #
edge $-1 $212 3.3929858919839022 $312 7.6478254906472012 $208 $318 forward 7 unknown #
coedge $-1 $319 $126 $316 $320 forward $200 $-1 #
coedge $-1 $126 $319 $306 $321 forward $200 $-1 #
vertex $-1 $209 $322 #
vertex $-1 $321 $323 #
straight-curve $-1 0 -20.221936028988715 -3.3929858919839022 1 0 0 I I #
face $-1 $324 $325 $29 $-1 $326 reversed single #
loop $-1 $-1 $327 $128 #
plane-surface $-1 0 24.739280871627081 -3.8023478550415097 0 0 1 1 0 0 forward_v I I I I #
coedge $-1 $328 $134 $220 $329 forward $129 $-1 #
coedge $-1 $330 $131 $327 $331 reversed $81 $-1 #
coedge $-1 $131 $330 $218 $329 reversed $81 $-1 #
edge $-1 $226 -0.29686046711910219 $332 3.8023478550415097 $131 $333 forward 7 unknown #
coedge $-1 $133 $132 $334 $335 forward $52 $-1 #
coedge $-1 $336 $337 $132 $224 forward $338 $-1 #
edge $-1 $339 -3.8023478550415097 $227 0.29686046711910219 $223 $340 forward 7 unknown #
coedge $-1 $134 $328 $336 $341 forward $129 $-1 #
vertex $-1 $221 $342 #
vertex $-1 $341 $343 #
straight-curve $-1 0 20.221936028988715 0.29686046711910219 -1 0 0 I I #
face $-1 $-1 $241 $30 $-1 $344 forward single #
loop $-1 $-1 $345 $136 #
plane-surface $-1 -41.021759697256385 0 0 1 0 0 0 0 -1 forward_v I I I I #
coedge $-1 $346 $347 $348 $349 reversed $137 $-1 #
coedge $-1 $350 $139 $141 $239 forward $85 $-1 #
coedge $-1 $139 $350 $346 $351 forward $85 $-1 #
coedge $-1 $348 $142 $139 $236 forward $241 $-1 #
edge $-1 $243 -3.2986231618780408 $352 2.8225497538520941 $235 $353 forward 7 unknown #
coedge $-1 $354 $355 $140 $238 forward $230 $-1 #
edge $-1 $356 -32.272483836756685 $242 -27.285806880611609 $237 $357 forward 7 unknown #
edge $-1 $243 -8.6940058479411899 $356 8.6223355153435888e-015 $141 $358 forward 7 unknown #
coedge $-1 $142 $348 $354 $359 forward $241 $-1 #
loop $-1 $-1 $348 $229 #
vertex $-1 $238 $360 #
vertex $-1 $143 $361 #
straight-curve $-1 -44.039994891870421 -3.5366598658910142 7.6478254906472003 1 0 0 I I #
coedge $-1 $245 $245 $-1 $362 reversed $146 $-1 #
edge $-1 $363 0 $363 6.2831853071796004 $147 $364 forward 7 unknown #
vertex $-1 $150 $365 #
ellipse-curve $-1 -37.460903388056053 -0.47607340802594678 5.15448701257466 -0.57357644374324357 0 0.81915203911291934 1.228728058669379 0 0.86036466561486535 1 I I #
face $-1 $-1 $366 $32 $-1 $367 reversed single #
loop $-1 $-1 $157 $151 #
plane-surface $-1 0 0 7.6478254906472012 0 0 1 1 0 0 forward_v I I I I #
coedge $-1 $368 $369 $370 $371 reversed $152 $-1 #
coedge $-1 $372 $154 $156 $259 forward $94 $-1 #
coedge $-1 $154 $372 $368 $373 forward $94 $-1 #
coedge $-1 $370 $157 $154 $256 forward $250 $-1 #
edge $-1 $262 -3.4444905024578123 $374 3.5027999908178149 $255 $375 forward 7 unknown #
coedge $-1 $376 $377 $155 $258 forward $366 $-1 #
edge $-1 $378 -56.831353466682991 $261 -50.418711678314153 $257 $379 forward 7 unknown #
edge $-1 $262 71.388016523216663 $378 82.043519394512799 $156 $380 forward 7 unknown #
coedge $-1 $157 $370 $376 $381 forward $250 $-1 #
vertex $-1 $158 $382 #
vertex $-1 $158 $383 #
straight-curve $-1 12.436957679770273 3.415335758277811 7.6478254906472003 -1 0 0 I I #
coedge $-1 $264 $264 $-1 $384 reversed $161 $-1 #
edge $-1 $385 0 $385 6.2831853071796004 $162 $386 forward 7 unknown #
vertex $-1 $165 $387 #
ellipse-curve $-1 36.766828242630297 -2.1424966363426918 4.4415045964627824 0.6018150307709319 0 0.79863550430605224 0.39931775215302612 0 -0.30090751538546595 1 I I #
coedge $-1 $268 $268 $-1 $388 reversed $168 $-1 #
edge $-1 $389 0 $389 6.2831853071796004 $169 $390 forward 7 unknown #
vertex $-1 $172 $391 #
ellipse-curve $-1 36.766828242630297 -0.058309488360002604 4.4415045964627824 0.6018150307709319 0 0.79863550430605224 0.39931775215302612 0 -0.30090751538546595 1 I I #
coedge $-1 $272 $272 $-1 $392 reversed $175 $-1 #
edge $-1 $393 0 $393 6.2831853071796004 $176 $394 forward 7 unknown #
vertex $-1 $179 $395 #
ellipse-curve $-1 36.766828242630297 2.0258776596226866 4.4415045964627824 0.6018150307709319 0 0.79863550430605224 0.39931775215302612 0 -0.30090751538546595 1 I I #
face $-1 $-1 $195 $27 $-1 $396 reversed single #
loop $-1 $-1 $292 $180 #
plane-surface $-1 0 20.221936028988715 0 0 -1 0 0 0 -1 forward_v I I I I #
coedge $-1 $397 $290 $293 $398 forward $181 $-1 #
coedge $-1 $296 $183 $184 $284 reversed $113 $-1 #
coedge $-1 $290 $397 $183 $282 reversed $181 $-1 #
edge $-1 $297 -7.6478254906472012 $399 7.6478254906472012 $281 $400 forward 7 unknown #
coedge $-1 $185 $184 $397 $401 forward $73 $-1 #
edge $-1 $288 -41.021759697256385 $399 41.021759697256385 $280 $402 forward 7 unknown #
coedge $-1 $293 $292 $185 $286 reversed $277 $-1 #
edge $-1 $403 -41.021759697256385 $287 41.021759697256385 $285 $404 forward 7 unknown #
vertex $-1 $187 $405 #
vertex $-1 $299 $406 #
straight-curve $-1 41.021759697256385 0 -7.6478254906472012 0 -1 0 I I #
coedge $-1 $279 $281 $188 $291 reversed $181 $-1 #
edge $-1 $294 -20.221936028988715 $297 20.221936028988715 $290 $407 forward 7 unknown #
coedge $-1 $285 $189 $194 $300 forward $277 $-1 #
coedge $-1 $189 $285 $279 $398 reversed $277 $-1 #
vertex $-1 $190 $408 #
straight-curve $-1 0 20.221936028988715 7.6478254906472012 -1 0 0 I I #
coedge $-1 $191 $280 $193 $299 reversed $113 $-1 #
vertex $-1 $291 $409 #
straight-curve $-1 0 -20.221936028988715 7.6478254906472012 1 0 0 I I #
edge $-1 $196 -7.6478254906472012 $288 7.6478254906472012 $193 $410 forward 7 unknown #
edge $-1 $197 -7.6478254906472012 $287 7.6478254906472012 $194 $411 forward 7 unknown #
point $-1 41.021759697256385 -20.221936028988715 7.6478254906472012 #
point $-1 41.021759697256385 20.221936028988715 7.6478254906472012 #
face $-1 $-1 $317 $28 $-1 $412 reversed single #
loop $-1 $-1 $413 $199 #
plane-surface $-1 0 -26.362444131878753 -5.5204056913155517 0 1 0 0 0 1 forward_v I I I I #
coedge $-1 $414 $202 $211 $321 reversed $121 $-1 #
coedge $-1 $202 $414 $203 $309 reversed $121 $-1 #
coedge $-1 $204 $203 $415 $416 forward $77 $-1 #
edge $-1 $313 20.221936028988715 $417 26.362444131878753 $307 $418 forward 7 unknown #
coedge $-1 $419 $208 $204 $311 reversed $317 $-1 #
edge $-1 $420 -26.362444131878753 $312 -20.221936028988715 $310 $421 forward 7 unknown #
vertex $-1 $209 $422 #
vertex $-1 $309 $423 #
straight-curve $-1 0 -20.221936028988715 -7.6478254906472012 1 0 0 I I #
straight-curve $-1 41.021759697256385 -20.221936028988715 0 0 0 1 I I #
coedge $-1 $208 $419 $210 $320 reversed $317 $-1 #
loop $-1 $-1 $208 $303 #
straight-curve $-1 -41.021759697256385 -20.221936028988715 0 0 0 -1 I I #
coedge $-1 $211 $210 $424 $425 forward $200 $-1 #
edge $-1 $212 -3.0702540514450192 $426 3.0702540514450192 $316 $427 forward 7 unknown #
edge $-1 $428 -3.0702540514450192 $213 3.0702540514450192 $306 $429 forward 7 unknown #
point $-1 -41.021759697256385 -20.221936028988715 -3.3929858919839022 #
point $-1 41.021759697256385 -20.221936028988715 -3.3929858919839022 #
face $-1 $-1 $338 $29 $-1 $430 reversed single #
loop $-1 $-1 $431 $215 #
plane-surface $-1 0 29.256625714265446 -1.7527436939612038 0 -1 0 0 0 -1 forward_v I I I I #
coedge $-1 $334 $432 $219 $331 forward $216 $-1 #
coedge $-1 $225 $218 $433 $434 forward $129 $-1 #
edge $-1 $226 -4.5173448426383658 $435 4.5173448426383658 $220 $436 forward 7 unknown #
coedge $-1 $220 $219 $431 $437 reversed $81 $-1 #
edge $-1 $438 -4.5173448426383658 $332 4.5173448426383658 $219 $439 forward 7 unknown #
vertex $-1 $221 $440 #
straight-curve $-1 41.021759697256385 20.221936028988715 0 0 0 -1 I I #
coedge $-1 $441 $327 $222 $335 reversed $216 $-1 #
edge $-1 $339 -41.021759697256385 $332 41.021759697256385 $334 $442 forward 7 unknown #
coedge $-1 $443 $223 $225 $341 reversed $338 $-1 #
coedge $-1 $223 $443 $441 $444 reversed $338 $-1 #
loop $-1 $-1 $223 $324 #
vertex $-1 $224 $445 #
straight-curve $-1 -41.021759697256385 20.221936028988715 0 0 0 1 I I #
edge $-1 $446 -4.5173448426383658 $227 4.5173448426383658 $336 $447 forward 7 unknown #
point $-1 41.021759697256385 20.221936028988715 0.29686046711910219 #
point $-1 -41.021759697256385 20.221936028988715 0.29686046711910219 #
plane-surface $-1 0 0 7.6478254906472012 0 0 1 1 0 0 forward_v I I I I #
coedge $-1 $355 $354 $347 $448 forward $230 $-1 #
coedge $-1 $347 $232 $234 $351 reversed $137 $-1 #
coedge $-1 $232 $346 $345 $448 reversed $137 $-1 #
coedge $-1 $240 $235 $232 $349 forward $241 $-1 #
edge $-1 $352 -10.139947813014714 $449 -3.0182351946140358 $348 $450 forward 7 unknown #
coedge $-1 $234 $233 $355 $451 reversed $85 $-1 #
edge $-1 $452 -8.6223355153435888e-015 $352 8.6940058479411899 $346 $453 forward 7 unknown #
vertex $-1 $236 $454 #
straight-curve $-1 -33.900047078855707 -0.23803670401297339 7.6478254906472021 0 1 0 I I #
coedge $-1 $345 $237 $240 $359 reversed $230 $-1 #
coedge $-1 $237 $345 $350 $451 forward $230 $-1 #
vertex $-1 $238 $455 #
straight-curve $-1 -41.021759697256385 -3.5366598658910142 34.93363237125881 0 0 1 I I #
straight-curve $-1 -41.021759697256378 -3.5366598658910142 2.6611485345021322 -0.81915203911291934 0 -0.57357644374324357 I I #
edge $-1 $449 -2.5845130498391207 $242 3.5366598658910142 $354 $456 forward 7 unknown #
point $-1 -41.021759697256385 -3.5366598658910142 7.6478254906472012 #
point $-1 -33.900047078855707 -3.5366598658910142 7.6478254906472021 #
edge $-1 $457 1 $457 0 $245 $-1 forward 7 unknown #
vertex $-1 $246 $458 #
ellipse-curve $-1 -35.149574294148181 -0.47607340802594678 1.8535670375849209 -0.57357644374324357 0 0.81915203911291934 1.228728058669379 0 0.86036466561486535 1 I I #
point $-1 -36.232175329386692 -0.47607340802594678 6.0148516781895456 #
loop $-1 $-1 $257 $249 #
plane-surface $-1 41.021759697256385 0 0 -1 0 0 0 0 1 forward_v I I I I #
coedge $-1 $369 $252 $254 $373 reversed $152 $-1 #
coedge $-1 $252 $368 $459 $460 reversed $152 $-1 #
coedge $-1 $260 $255 $252 $371 forward $250 $-1 #
edge $-1 $374 20.074939108233941 $461 28.584802017486112 $370 $462 forward 7 unknown #
coedge $-1 $254 $253 $377 $463 reversed $94 $-1 #
edge $-1 $464 -82.043519394512799 $374 -71.388016523216663 $368 $465 forward 7 unknown #
vertex $-1 $256 $466 #
straight-curve $-1 32.511896788004215 -0.029154744180001302 7.6478254906472003 0 -1 0 I I #
coedge $-1 $459 $257 $260 $381 reversed $366 $-1 #
coedge $-1 $257 $459 $372 $463 forward $366 $-1 #
vertex $-1 $258 $467 #
straight-curve $-1 41.021759697256385 3.415335758277811 58.066537168961354 0 0 1 I I #
straight-curve $-1 -24.501107789423706 3.415335758277811 50.610206851242623 0.79863550430605224 0 -0.6018150307709319 I I #
edge $-1 $461 -3.5319547349978162 $261 3.415335758277811 $376 $468 forward 7 unknown #
point $-1 41.021759697256385 3.415335758277811 7.6478254906472012 #
point $-1 32.511896788004215 3.415335758277811 7.6478254906472003 #
edge $-1 $469 1 $469 0 $264 $-1 forward 7 unknown #
vertex $-1 $265 $470 #
ellipse-curve $-1 35.786681725337857 -2.1424966363426918 3.1408062620776889 0.6018150307709319 0 0.79863550430605224 0.39931775215302612 0 -0.30090751538546595 1 I I #
point $-1 37.166145994783328 -2.1424966363426918 4.1405970810773294 #
edge $-1 $471 1 $471 0 $268 $-1 forward 7 unknown #
vertex $-1 $269 $472 #
ellipse-curve $-1 35.786681725337857 -0.058309488360002604 3.1408062620776889 0.6018150307709319 0 0.79863550430605224 0.39931775215302612 0 -0.30090751538546595 1 I I #
point $-1 37.166145994783328 -0.058309488360002604 4.1405970810773294 #
edge $-1 $473 1 $473 0 $272 $-1 forward 7 unknown #
vertex $-1 $273 $474 #
ellipse-curve $-1 35.786681725337857 2.0258776596226866 3.1408062620776889 0.6018150307709319 0 0.79863550430605224 0.39931775215302612 0 -0.30090751538546595 1 I I #
point $-1 37.166145994783328 2.0258776596226866 4.1405970810773294 #
plane-surface $-1 41.021759697256385 0 0 -1 0 0 0 0 1 forward_v I I I I #
coedge $-1 $281 $279 $283 $401 reversed $181 $-1 #
edge $-1 $294 -7.6478254906472012 $403 7.6478254906472012 $293 $475 forward 7 unknown #
vertex $-1 $401 $476 #
straight-curve $-1 -41.021759697256385 -20.221936028988715 0 0 0 -1 I I #
edge $-1 $399 -20.221936028988715 $403 20.221936028988715 $397 $477 forward 7 unknown #
straight-curve $-1 0 -20.221936028988715 -7.6478254906472012 -1 0 0 I I #
vertex $-1 $286 $478 #
straight-curve $-1 0 20.221936028988715 -7.6478254906472012 1 0 0 I I #
point $-1 41.021759697256385 20.221936028988715 -7.6478254906472012 #
point $-1 41.021759697256385 -20.221936028988715 -7.6478254906472012 #
straight-curve $-1 -41.021759697256385 0 7.6478254906472012 0 -1 0 I I #
point $-1 -41.021759697256385 20.221936028988715 7.6478254906472012 #
point $-1 -41.021759697256385 -20.221936028988715 7.6478254906472012 #
straight-curve $-1 41.021759697256385 -20.221936028988715 0 0 0 -1 I I #
straight-curve $-1 41.021759697256385 20.221936028988715 0 0 0 -1 I I #
plane-surface $-1 -41.021759697256385 0 0 1 0 0 0 0 -1 forward_v I I I I #
coedge $-1 $415 $424 $419 $479 forward $304 $-1 #
coedge $-1 $307 $306 $480 $481 forward $121 $-1 #
coedge $-1 $480 $413 $308 $416 reversed $304 $-1 #
edge $-1 $417 -41.021759697256385 $420 41.021759697256385 $415 $482 forward 7 unknown #
vertex $-1 $481 $483 #
straight-curve $-1 41.021759697256385 0 -7.6478254906472012 0 -1 0 I I #
coedge $-1 $316 $310 $413 $479 reversed $317 $-1 #
vertex $-1 $311 $484 #
straight-curve $-1 -41.021759697256385 0 -7.6478254906472012 0 1 0 I I #
point $-1 -41.021759697256385 -20.221936028988715 -7.6478254906472012 #
point $-1 41.021759697256385 -20.221936028988715 -7.6478254906472012 #
coedge $-1 $413 $480 $319 $425 reversed $304 $-1 #
edge $-1 $426 -41.021759697256385 $428 41.021759697256385 $424 $485 forward 7 unknown #
vertex $-1 $320 $486 #
straight-curve $-1 -41.021759697256385 -23.292190080433734 -3.3929858919839022 0 -1 0 I I #
vertex $-1 $321 $487 #
straight-curve $-1 41.021759697256385 -23.292190080433734 -3.3929858919839022 0 1 0 I I #
plane-surface $-1 -41.021759697256385 0 0 1 0 0 0 0 -1 forward_v I I I I #
coedge $-1 $488 $433 $330 $437 forward $325 $-1 #
coedge $-1 $327 $441 $488 $489 forward $216 $-1 #
coedge $-1 $431 $490 $328 $434 reversed $325 $-1 #
edge $-1 $435 -41.021759697256385 $446 41.021759697256385 $433 $491 forward 7 unknown #
vertex $-1 $329 $492 #
straight-curve $-1 41.021759697256385 24.739280871627081 0.29686046711910219 0 1 0 I I #
edge $-1 $435 -2.049604161080306 $438 2.049604161080306 $330 $493 forward 7 unknown #
vertex $-1 $331 $494 #
straight-curve $-1 41.021759697256385 24.739280871627081 -3.8023478550415097 0 -1 0 I I #
point $-1 41.021759697256385 20.221936028988715 -3.8023478550415097 #
coedge $-1 $432 $334 $337 $444 forward $216 $-1 #
straight-curve $-1 0 20.221936028988715 -3.8023478550415097 1 0 0 I I #
coedge $-1 $337 $336 $490 $495 forward $338 $-1 #
edge $-1 $339 -4.5173448426383658 $496 4.5173448426383658 $337 $497 forward 7 unknown #
point $-1 -41.021759697256385 20.221936028988715 -3.8023478550415097 #
vertex $-1 $434 $498 #
straight-curve $-1 -41.021759697256385 24.739280871627081 0.29686046711910219 0 -1 0 I I #
edge $-1 $449 27.285806880611609 $452 32.272483836756685 $345 $499 forward 7 unknown #
vertex $-1 $359 $500 #
straight-curve $-1 -44.039994891870421 2.5845130498391207 7.6478254906472003 -1 0 0 I I #
edge $-1 $452 -2.8225497538520941 $356 3.2986231618780408 $355 $501 forward 7 unknown #
vertex $-1 $451 $502 #
straight-curve $-1 -41.021759697256378 2.5845130498391207 2.6611485345021322 0.81915203911291934 0 0.57357644374324357 I I #
point $-1 -33.900047078855707 2.5845130498391207 7.6478254906472021 #
point $-1 -41.021759697256385 -3.5366598658910142 2.6611485345021273 #
straight-curve $-1 -41.021759697256385 0 7.6478254906472012 0 -1 0 I I #
vertex $-1 $362 $503 #
point $-1 -33.920846235478798 -0.47607340802594678 2.713931703199786 #
coedge $-1 $377 $376 $369 $460 forward $366 $-1 #
edge $-1 $461 50.418711678314153 $464 56.831353466682991 $459 $504 forward 7 unknown #
vertex $-1 $381 $505 #
straight-curve $-1 12.436957679770273 -3.5319547349978162 7.6478254906472003 1 0 0 I I #
edge $-1 $464 -3.5027999908178149 $378 3.4444905024578123 $377 $506 forward 7 unknown #
vertex $-1 $463 $507 #
straight-curve $-1 -24.501107789423706 -3.5319547349978162 50.610206851242623 -0.79863550430605224 0 0.6018150307709319 I I #
point $-1 32.511896788004215 -3.5319547349978162 7.6478254906472003 #
point $-1 41.021759697256392 3.415335758277811 1.2351837022783627 #
straight-curve $-1 41.021759697256385 0 7.6478254906472012 0 1 0 I I #
vertex $-1 $384 $508 #
point $-1 36.185999477490888 -2.1424966363426918 2.839898746692223 #
vertex $-1 $388 $509 #
point $-1 36.185999477490888 -0.058309488360002604 2.839898746692223 #
vertex $-1 $392 $510 #
point $-1 36.185999477490888 2.0258776596226866 2.839898746692223 #
straight-curve $-1 -41.021759697256385 20.221936028988715 0 0 0 -1 I I #
point $-1 -41.021759697256385 -20.221936028988715 -7.6478254906472012 #
straight-curve $-1 -41.021759697256385 0 -7.6478254906472012 0 1 0 I I #
point $-1 -41.021759697256385 20.221936028988715 -7.6478254906472012 #
edge $-1 $426 -2.1274197993316495 $420 2.1274197993316495 $419 $511 forward 7 unknown #
coedge $-1 $424 $415 $414 $481 reversed $304 $-1 #
edge $-1 $428 -2.1274197993316495 $417 2.1274197993316495 $414 $512 forward 7 unknown #
straight-curve $-1 0 -26.362444131878753 -7.6478254906472012 -1 0 0 I I #
point $-1 41.021759697256385 -26.362444131878753 -7.6478254906472012 #
point $-1 -41.021759697256385 -26.362444131878753 -7.6478254906472012 #
straight-curve $-1 0 -26.362444131878753 -3.3929858919839022 1 0 0 I I #
point $-1 -41.021759697256385 -26.362444131878753 -3.3929858919839022 #
point $-1 41.021759697256385 -26.362444131878753 -3.3929858919839022 #
coedge $-1 $490 $431 $432 $489 reversed $325 $-1 #
edge $-1 $496 -41.021759697256385 $438 41.021759697256385 $488 $513 forward 7 unknown #
coedge $-1 $433 $488 $443 $495 reversed $325 $-1 #
straight-curve $-1 0 29.256625714265446 0.29686046711910219 -1 0 0 I I #
point $-1 41.021759697256385 29.256625714265446 0.29686046711910219 #
straight-curve $-1 41.021759697256385 29.256625714265446 -1.7527436939612038 0 0 -1 I I #
point $-1 41.021759697256385 29.256625714265446 -3.8023478550415097 #
edge $-1 $446 -2.049604161080306 $496 2.049604161080306 $490 $514 forward 7 unknown #
vertex $-1 $489 $515 #
straight-curve $-1 -41.021759697256385 24.739280871627081 -3.8023478550415097 0 1 0 I I #
point $-1 -41.021759697256385 29.256625714265446 0.29686046711910219 #
straight-curve $-1 -41.021759697256385 2.5845130498391207 34.93363237125881 0 0 -1 I I #
point $-1 -41.021759697256385 2.5845130498391207 7.6478254906472012 #
straight-curve $-1 -41.021759697256385 -0.23803670401297339 2.6611485345021286 0 -1 0 I I #
point $-1 -41.021759697256385 2.5845130498391207 2.6611485345021273 #
point $-1 -34.289209628533314 -0.47607340802594678 0.62483897891554196 #
straight-curve $-1 41.021759697256385 -3.5319547349978162 58.066537168961354 0 0 -1 I I #
point $-1 41.021759697256385 -3.5319547349978162 7.6478254906472012 #
straight-curve $-1 41.021759697256385 -0.029154744180001302 1.2351837022783698 0 1 0 I I #
point $-1 41.021759697256392 -3.5319547349978162 1.2351837022783627 #
point $-1 35.485774209952396 -2.1424966363426918 2.7414885099246629 #
point $-1 35.485774209952396 -0.058309488360002604 2.7414885099246629 #
point $-1 35.485774209952396 2.0258776596226866 2.7414885099246629 #
straight-curve $-1 -41.021759697256385 -26.362444131878753 -5.5204056913155517 0 0 -1 I I #
straight-curve $-1 41.021759697256385 -26.362444131878753 -5.5204056913155517 0 0 -1 I I #
straight-curve $-1 0 29.256625714265446 -3.8023478550415097 1 0 0 I I #
straight-curve $-1 -41.021759697256385 29.256625714265446 -1.7527436939612038 0 0 -1 I I #
point $-1 -41.021759697256385 29.256625714265446 -3.8023478550415097 #
End-of-ACIS-data 