500 0 12 0           
7 Unknown 11 ACIS 5.0 NT 24 Fri Mar 26 14:30:19 1999 
-1 9.9999999999999995e-007 1e-010 
body $-1 $12 $-1 $13 #
body $-1 $14 $-1 $15 #
body $-1 $16 $-1 $17 #
body $-1 $18 $-1 $19 #
body $-1 $20 $-1 $21 #
body $-1 $22 $-1 $23 #
body $-1 $24 $-1 $25 #
body $-1 $26 $-1 $27 #
body $-1 $28 $-1 $29 #
body $-1 $30 $-1 $31 #
body $-1 $32 $-1 $33 #
body $-1 $34 $-1 $35 #
lump $-1 $-1 $36 $0 #
transform $-1 1 0 0 0 1 0 0 0 1 61.334879604480122 26.466261672283242 11.877872788107805 1 rotate no_reflect no_shear #
lump $-1 $-1 $37 $1 #
transform $-1 1 0 0 0 1 0 0 0 1 61.334879604480122 26.466261672283242 11.877872788107805 1 rotate no_reflect no_shear #
lump $-1 $-1 $38 $2 #
transform $-1 1 0 0 0 1 0 0 0 1 61.334879604480122 26.466261672283242 11.877872788107805 1 rotate no_reflect no_shear #
lump $-1 $-1 $39 $3 #
transform $-1 1 0 0 0 1 0 0 0 1 61.334879604480122 26.466261672283242 11.877872788107805 1 rotate no_reflect no_shear #
lump $-1 $-1 $40 $4 #
transform $-1 1 0 0 0 1 0 0 0 1 61.334879604480122 26.466261672283242 11.877872788107805 1 rotate no_reflect no_shear #
lump $-1 $-1 $41 $5 #
transform $-1 1 0 0 0 1 0 0 0 1 61.334879604480122 26.466261672283242 11.877872788107805 1 rotate no_reflect no_shear #
lump $-1 $-1 $42 $6 #
transform $-1 1 0 0 0 1 0 0 0 1 61.334879604480122 26.466261672283242 11.877872788107805 1 rotate no_reflect no_shear #
lump $-1 $-1 $43 $7 #
transform $-1 1 0 0 0 1 0 0 0 1 61.334879604480122 26.466261672283242 11.877872788107805 1 rotate no_reflect no_shear #
lump $-1 $-1 $44 $8 #
transform $-1 1 0 0 0 1 0 0 0 1 61.334879604480122 26.466261672283242 11.877872788107805 1 rotate no_reflect no_shear #
lump $-1 $-1 $45 $9 #
transform $-1 1 0 0 0 1 0 0 0 1 61.334879604480122 26.466261672283242 11.877872788107805 1 rotate no_reflect no_shear #
lump $-1 $-1 $46 $10 #
transform $-1 1 0 0 0 1 0 0 0 1 61.334879604480122 26.466261672283242 11.877872788107805 1 rotate no_reflect no_shear #
lump $-1 $-1 $47 $11 #
transform $-1 1 0 0 0 1 0 0 0 1 61.334879604480122 26.466261672283242 11.877872788107805 1 rotate no_reflect no_shear #
shell $-1 $-1 $-1 $48 $-1 $12 #
shell $-1 $-1 $-1 $49 $-1 $14 #
shell $-1 $-1 $-1 $50 $-1 $16 #
shell $-1 $-1 $-1 $51 $-1 $18 #
shell $-1 $-1 $-1 $52 $-1 $20 #
shell $-1 $-1 $-1 $53 $-1 $22 #
shell $-1 $-1 $-1 $54 $-1 $24 #
shell $-1 $-1 $-1 $55 $-1 $26 #
shell $-1 $-1 $-1 $56 $-1 $28 #
shell $-1 $-1 $-1 $57 $-1 $30 #
shell $-1 $-1 $-1 $58 $-1 $32 #
shell $-1 $-1 $-1 $59 $-1 $34 #
face $-1 $60 $61 $36 $-1 $62 forward single #
face $-1 $63 $64 $37 $-1 $65 forward single #
face $-1 $66 $67 $38 $-1 $68 forward single #
face $-1 $69 $70 $39 $-1 $71 reversed single #
face $-1 $72 $73 $40 $-1 $74 forward single #
face $-1 $75 $76 $41 $-1 $77 forward single #
face $-1 $78 $79 $42 $-1 $80 reversed single #
face $-1 $81 $82 $43 $-1 $83 forward single #
face $-1 $84 $85 $44 $-1 $86 forward single #
face $-1 $87 $88 $45 $-1 $89 reversed single #
face $-1 $90 $91 $46 $-1 $92 forward single #
face $-1 $93 $94 $47 $-1 $95 forward single #
face $-1 $96 $97 $36 $-1 $98 reversed single #
loop $-1 $-1 $99 $48 #
plane-surface $-1 0 0 11.877872788107805 0 0 1 1 0 0 forward_v I I I I #
face $-1 $100 $101 $37 $-1 $102 reversed single #
loop $-1 $-1 $103 $49 #
plane-surface $-1 0 -26.466261672283242 0 0 1 0 0 0 1 forward_v I I I I #
face $-1 $104 $105 $38 $-1 $106 reversed single #
loop $-1 $-1 $107 $50 #
plane-surface $-1 0 19.898102878732114 9.931312842295462 0 0 1 1 0 0 forward_v I I I I #
face $-1 $108 $109 $39 $-1 $110 reversed single #
loop $-1 $-1 $111 $51 #
plane-surface $-1 103.30379191138645 -6.4279456739435705 169.14661043591713 0 -1 0 -0.85716730853699208 0 -0.51503806187062418 forward_v I I I I #
face $-1 $112 $113 $40 $-1 $114 forward single #
loop $-1 $115 $116 $52 #
cone-surface $-1 57.583727697241962 -10.704225989601643 6.0906713945049606 -0.85716730853699208 0 -0.51503806187062418 0.25751903093531209 0 -0.42858365426849604 1 I I 0 1 0.5 forward I I I I #
face $-1 $117 $118 $41 $-1 $119 forward single #
loop $-1 $120 $121 $53 #
cone-surface $-1 57.583727697241962 -8.1384578002068011 6.0906713945049606 -0.85716730853699208 0 -0.51503806187062418 0.25751903093531209 0 -0.42858365426849604 1 I I 0 1 0.5 forward I I I I #
face $-1 $122 $123 $42 $-1 $124 reversed single #
loop $-1 $-1 $125 $54 #
plane-surface $-1 103.30379191138645 3.4509992056187127 169.14661043591713 0 -1 0 -0.85716730853699208 0 -0.51503806187062418 forward_v I I I I #
face $-1 $126 $127 $43 $-1 $128 forward single #
loop $-1 $129 $130 $55 #
cone-surface $-1 57.583727697241962 -0.82528111003935933 6.0906713945049606 -0.85716730853699208 0 -0.51503806187062418 0.25751903093531209 0 -0.42858365426849604 1 I I 0 1 0.5 forward I I I I #
face $-1 $131 $132 $44 $-1 $133 forward single #
loop $-1 $134 $135 $56 #
cone-surface $-1 57.583727697241962 1.7404870793554821 6.0906713945049606 -0.85716730853699208 0 -0.51503806187062418 0.25751903093531209 0 -0.42858365426849604 1 I I 0 1 0.5 forward I I I I #
face $-1 $136 $137 $45 $-1 $138 reversed single #
loop $-1 $-1 $139 $57 #
plane-surface $-1 -1.8447154286388923 10.336547864220346 105.9670154027981 0.85716730853699208 0 0.51503806187062418 0.51503806187062418 0 -0.85716730853699208 forward_v I I I I #
face $-1 $140 $141 $46 $-1 $142 forward single #
loop $-1 $143 $144 $58 #
cone-surface $-1 57.583727697241962 9.0536637695229238 6.0906713945049606 -0.85716730853699208 0 -0.51503806187062418 0.25751903093531209 0 -0.42858365426849604 1 I I 0 1 0.5 forward I I I I #
face $-1 $145 $146 $47 $-1 $147 forward single #
loop $-1 $148 $149 $59 #
cone-surface $-1 57.583727697241962 11.619431958917769 6.0906713945049606 -0.85716730853699208 0 -0.51503806187062418 0.25751903093531209 0 -0.42858365426849604 1 I I 0 1 0.5 forward I I I I #
face $-1 $150 $151 $36 $-1 $152 reversed single #
loop $-1 $-1 $153 $60 #
plane-surface $-1 0 0 -11.877872788107805 0 0 1 1 0 0 forward_v I I I I #
coedge $-1 $154 $155 $156 $157 forward $61 $-1 #
face $-1 $158 $159 $37 $-1 $160 forward single #
loop $-1 $-1 $161 $63 #
plane-surface $-1 -61.334879604480122 0 0 1 0 0 0 0 -1 forward_v I I I I #
coedge $-1 $162 $163 $164 $165 forward $64 $-1 #
face $-1 $166 $167 $38 $-1 $168 reversed single #
loop $-1 $-1 $169 $66 #
plane-surface $-1 0 19.898102878732114 6.082848709410996 0 0 1 1 0 0 forward_v I I I I #
coedge $-1 $170 $171 $172 $173 reversed $67 $-1 #
face $-1 $174 $175 $39 $-1 $176 reversed single #
loop $-1 $-1 $177 $69 #
plane-surface $-1 -1.8447154286388923 -9.42134189490422 105.9670154027981 0.85716730853699208 0 0.51503806187062418 0.51503806187062418 0 -0.85716730853699208 forward_v I I I I #
coedge $-1 $178 $179 $180 $181 reversed $70 $-1 #
face $-1 $-1 $182 $40 $-1 $183 forward single #
loop $-1 $184 $185 $72 #
cone-surface $-1 56.940852215839215 -10.704225989601643 5.7043928481019925 -0.85716730853699208 0 -0.51503806187062418 0.12875951546765604 0 -0.21429182713424802 1 I I -0.70710678118654746 0.70710678118654746 0.25 forward I I I I #
loop $-1 $-1 $186 $52 #
coedge $-1 $116 $116 $187 $188 reversed $73 $-1 #
face $-1 $-1 $189 $41 $-1 $190 forward single #
loop $-1 $191 $192 $75 #
cone-surface $-1 56.940852215839215 -8.1384578002068011 5.7043928481019925 -0.85716730853699208 0 -0.51503806187062418 0.12875951546765604 0 -0.21429182713424802 1 I I -0.70710678118654746 0.70710678118654746 0.25 forward I I I I #
loop $-1 $-1 $193 $53 #
coedge $-1 $121 $121 $194 $195 reversed $76 $-1 #
face $-1 $196 $197 $42 $-1 $198 reversed single #
loop $-1 $-1 $199 $78 #
plane-surface $-1 -1.8447154286388923 0.45760298465806315 105.9670154027981 0.85716730853699208 0 0.51503806187062418 0.51503806187062418 0 -0.85716730853699208 forward_v I I I I #
coedge $-1 $200 $201 $202 $203 reversed $79 $-1 #
face $-1 $-1 $204 $43 $-1 $205 forward single #
loop $-1 $206 $207 $81 #
cone-surface $-1 56.940852215839215 -0.82528111003935933 5.7043928481019925 -0.85716730853699208 0 -0.51503806187062418 0.12875951546765604 0 -0.21429182713424802 1 I I -0.70710678118654746 0.70710678118654746 0.25 forward I I I I #
loop $-1 $-1 $208 $55 #
coedge $-1 $130 $130 $209 $210 reversed $82 $-1 #
face $-1 $-1 $211 $44 $-1 $212 forward single #
loop $-1 $213 $214 $84 #
cone-surface $-1 56.940852215839215 1.7404870793554821 5.7043928481019925 -0.85716730853699208 0 -0.51503806187062418 0.12875951546765604 0 -0.21429182713424802 1 I I -0.70710678118654746 0.70710678118654746 0.25 forward I I I I #
loop $-1 $-1 $215 $56 #
coedge $-1 $135 $135 $216 $217 reversed $85 $-1 #
face $-1 $218 $219 $45 $-1 $220 reversed single #
loop $-1 $-1 $221 $87 #
plane-surface $-1 103.30379191138645 7.3431516432596968 169.14661043591713 0 1 0 0.85716730853699208 0 0.51503806187062418 forward_v I I I I #
coedge $-1 $222 $223 $224 $225 reversed $88 $-1 #
face $-1 $-1 $226 $46 $-1 $227 forward single #
loop $-1 $228 $229 $90 #
cone-surface $-1 56.940852215839215 9.0536637695229238 5.7043928481019925 -0.85716730853699208 0 -0.51503806187062418 0.12875951546765604 0 -0.21429182713424802 1 I I -0.70710678118654746 0.70710678118654746 0.25 forward I I I I #
loop $-1 $-1 $230 $58 #
coedge $-1 $144 $144 $231 $232 reversed $91 $-1 #
face $-1 $-1 $233 $47 $-1 $234 forward single #
loop $-1 $235 $236 $93 #
cone-surface $-1 56.940852215839215 11.619431958917769 5.7043928481019925 -0.85716730853699208 0 -0.51503806187062418 0.12875951546765604 0 -0.21429182713424802 1 I I -0.70710678118654746 0.70710678118654746 0.25 forward I I I I #
loop $-1 $-1 $237 $59 #
coedge $-1 $149 $149 $238 $239 reversed $94 $-1 #
face $-1 $240 $241 $36 $-1 $242 reversed single #
loop $-1 $-1 $243 $96 #
plane-surface $-1 0 -26.466261672283242 0 0 1 0 0 0 1 forward_v I I I I #
coedge $-1 $244 $245 $246 $247 forward $97 $-1 #
coedge $-1 $248 $99 $249 $250 forward $61 $-1 #
coedge $-1 $99 $248 $251 $252 forward $61 $-1 #
coedge $-1 $253 $254 $99 $157 reversed $255 $-1 #
edge $-1 $256 -26.466261672283242 $257 26.466261672283242 $156 $258 forward 7 unknown #
face $-1 $259 $260 $37 $-1 $261 reversed single #
loop $-1 $-1 $262 $100 #
plane-surface $-1 0 -31.545947231671935 -3.5842613564712842 0 0 1 1 0 0 forward_v I I I I #
coedge $-1 $263 $264 $163 $265 forward $101 $-1 #
coedge $-1 $266 $103 $267 $268 reversed $64 $-1 #
coedge $-1 $103 $266 $161 $265 reversed $64 $-1 #
coedge $-1 $269 $262 $103 $165 reversed $159 $-1 #
edge $-1 $270 -61.334879604480122 $271 61.334879604480122 $164 $272 forward 7 unknown #
face $-1 $273 $274 $38 $-1 $275 reversed single #
loop $-1 $-1 $276 $104 #
plane-surface $-1 0 13.32994408518099 8.007080775853229 0 1 0 0 0 1 forward_v I I I I #
coedge $-1 $277 $278 $279 $280 reversed $105 $-1 #
coedge $-1 $281 $107 $282 $283 reversed $67 $-1 #
coedge $-1 $107 $281 $284 $285 forward $67 $-1 #
coedge $-1 $286 $287 $107 $173 forward $274 $-1 #
edge $-1 $288 -16.517210232917179 $289 -3.3808926458149333 $172 $290 forward 7 unknown #
face $-1 $291 $292 $39 $-1 $293 forward single #
loop $-1 $-1 $294 $108 #
plane-surface $-1 103.30379191138645 -12.41473811586487 169.14661043591713 0 1 0 0.85716730853699208 0 0.51503806187062418 forward_v I I I I #
coedge $-1 $295 $296 $297 $298 reversed $109 $-1 #
coedge $-1 $179 $111 $299 $300 reversed $70 $-1 #
coedge $-1 $111 $178 $295 $301 reversed $70 $-1 #
coedge $-1 $297 $302 $111 $181 forward $292 $-1 #
edge $-1 $303 -9.6829836487868945 $304 -3.0378471428476033 $180 $305 forward 7 unknown #
loop $-1 $-1 $187 $112 #
plane-surface $-1 -1.8447154286388923 -9.42134189490422 105.9670154027981 0.85716730853699208 0 0.51503806187062418 0.51503806187062418 0 -0.85716730853699208 forward_v I I I I #
loop $-1 $-1 $306 $72 #
coedge $-1 $185 $185 $186 $307 reversed $113 $-1 #
coedge $-1 $186 $186 $185 $307 forward $115 $-1 #
coedge $-1 $187 $187 $116 $188 forward $182 $-1 #
edge $-1 $308 0 $308 6.2831853071796004 $187 $309 forward 7 unknown #
loop $-1 $-1 $194 $117 #
plane-surface $-1 -1.8447154286388923 -9.42134189490422 105.9670154027981 0.85716730853699208 0 0.51503806187062418 0.51503806187062418 0 -0.85716730853699208 forward_v I I I I #
loop $-1 $-1 $310 $75 #
coedge $-1 $192 $192 $193 $311 reversed $118 $-1 #
coedge $-1 $193 $193 $192 $311 forward $120 $-1 #
coedge $-1 $194 $194 $121 $195 forward $189 $-1 #
edge $-1 $312 0 $312 6.2831853071796004 $194 $313 forward 7 unknown #
face $-1 $314 $315 $42 $-1 $316 reversed single #
loop $-1 $-1 $317 $122 #
plane-surface $-1 103.30379191138645 -2.5357932363025864 169.14661043591713 0 1 0 0.85716730853699208 0 0.51503806187062418 forward_v I I I I #
coedge $-1 $318 $319 $320 $321 reversed $123 $-1 #
coedge $-1 $201 $125 $322 $323 reversed $79 $-1 #
coedge $-1 $125 $200 $318 $324 reversed $79 $-1 #
coedge $-1 $320 $325 $125 $203 forward $326 $-1 #
edge $-1 $327 -9.6829836487868945 $328 -3.0378471428476033 $202 $329 forward 7 unknown #
loop $-1 $-1 $209 $126 #
plane-surface $-1 -1.8447154286388923 0.45760298465806315 105.9670154027981 0.85716730853699208 0 0.51503806187062418 0.51503806187062418 0 -0.85716730853699208 forward_v I I I I #
loop $-1 $-1 $330 $81 #
coedge $-1 $207 $207 $208 $331 reversed $127 $-1 #
coedge $-1 $208 $208 $207 $331 forward $129 $-1 #
coedge $-1 $209 $209 $130 $210 forward $204 $-1 #
edge $-1 $332 0 $332 6.2831853071796004 $209 $333 forward 7 unknown #
loop $-1 $-1 $216 $131 #
plane-surface $-1 -1.8447154286388923 0.45760298465806315 105.9670154027981 0.85716730853699208 0 0.51503806187062418 0.51503806187062418 0 -0.85716730853699208 forward_v I I I I #
loop $-1 $-1 $334 $84 #
coedge $-1 $214 $214 $215 $335 reversed $132 $-1 #
coedge $-1 $215 $215 $214 $335 forward $134 $-1 #
coedge $-1 $216 $216 $135 $217 forward $211 $-1 #
edge $-1 $336 0 $336 6.2831853071796004 $216 $337 forward 7 unknown #
face $-1 $338 $339 $45 $-1 $340 forward single #
loop $-1 $-1 $341 $136 #
plane-surface $-1 61.334879604480122 0 0 -1 0 0 0 0 1 forward_v I I I I #
coedge $-1 $342 $343 $344 $345 reversed $137 $-1 #
coedge $-1 $346 $139 $347 $348 forward $88 $-1 #
coedge $-1 $139 $346 $342 $349 forward $88 $-1 #
coedge $-1 $344 $350 $139 $225 forward $339 $-1 #
edge $-1 $351 -8.1616701530708227 $352 -2.1748777111495237 $224 $353 forward 7 unknown #
loop $-1 $-1 $231 $140 #
plane-surface $-1 -1.8447154286388923 10.336547864220346 105.9670154027981 0.85716730853699208 0 0.51503806187062418 0.51503806187062418 0 -0.85716730853699208 forward_v I I I I #
loop $-1 $-1 $354 $90 #
coedge $-1 $229 $229 $230 $355 reversed $141 $-1 #
coedge $-1 $230 $230 $229 $355 forward $143 $-1 #
coedge $-1 $231 $231 $144 $232 forward $226 $-1 #
edge $-1 $356 0 $356 6.2831853071796004 $231 $357 forward 7 unknown #
loop $-1 $-1 $238 $145 #
plane-surface $-1 -1.8447154286388923 10.336547864220346 105.9670154027981 0.85716730853699208 0 0.51503806187062418 0.51503806187062418 0 -0.85716730853699208 forward_v I I I I #
loop $-1 $-1 $358 $93 #
coedge $-1 $236 $236 $237 $359 reversed $146 $-1 #
coedge $-1 $237 $237 $236 $359 forward $148 $-1 #
coedge $-1 $238 $238 $149 $239 forward $233 $-1 #
edge $-1 $360 0 $360 6.2831853071796004 $238 $361 forward 7 unknown #
face $-1 $362 $363 $36 $-1 $364 reversed single #
loop $-1 $-1 $365 $150 #
plane-surface $-1 -61.334879604480122 0 0 1 0 0 0 0 -1 forward_v I I I I #
coedge $-1 $366 $251 $367 $368 forward $151 $-1 #
coedge $-1 $369 $153 $366 $370 forward $97 $-1 #
coedge $-1 $153 $369 $371 $372 forward $97 $-1 #
coedge $-1 $254 $253 $153 $247 reversed $255 $-1 #
edge $-1 $373 -26.466261672283242 $374 26.466261672283242 $246 $375 forward 7 unknown #
coedge $-1 $155 $154 $376 $377 forward $61 $-1 #
coedge $-1 $378 $379 $154 $250 reversed $363 $-1 #
edge $-1 $257 -61.334879604480122 $380 61.334879604480122 $249 $381 forward 7 unknown #
coedge $-1 $243 $382 $155 $252 reversed $151 $-1 #
edge $-1 $383 -61.334879604480122 $256 61.334879604480122 $251 $384 forward 7 unknown #
coedge $-1 $246 $156 $382 $385 forward $255 $-1 #
coedge $-1 $156 $246 $378 $386 reversed $255 $-1 #
loop $-1 $-1 $253 $362 #
vertex $-1 $157 $387 #
vertex $-1 $157 $388 #
straight-curve $-1 61.334879604480122 0 11.877872788107805 0 1 0 I I #
face $-1 $389 $390 $37 $-1 $391 reversed single #
loop $-1 $-1 $392 $158 #
plane-surface $-1 0 -31.545947231671935 -6.5842613564712842 0 0 1 1 0 0 forward_v I I I I #
coedge $-1 $164 $393 $394 $395 forward $159 $-1 #
coedge $-1 $396 $161 $397 $398 reversed $101 $-1 #
coedge $-1 $161 $396 $269 $399 reversed $101 $-1 #
edge $-1 $270 3.5842613564712842 $400 6.5842613564712842 $161 $401 forward 7 unknown #
coedge $-1 $163 $162 $402 $403 forward $64 $-1 #
coedge $-1 $394 $404 $162 $268 forward $405 $-1 #
edge $-1 $406 -6.5842613564712842 $271 -3.5842613564712842 $267 $407 forward 7 unknown #
coedge $-1 $393 $164 $264 $399 forward $159 $-1 #
vertex $-1 $265 $408 #
vertex $-1 $395 $409 #
straight-curve $-1 0 -26.466261672283242 -3.5842613564712842 1 0 0 I I #
face $-1 $410 $411 $38 $-1 $412 reversed single #
loop $-1 $-1 $172 $166 #
plane-surface $-1 61.334879604480122 0 0 -1 0 0 0 0 1 forward_v I I I I #
coedge $-1 $413 $284 $414 $415 reversed $167 $-1 #
coedge $-1 $416 $169 $413 $417 forward $105 $-1 #
coedge $-1 $169 $416 $418 $419 reversed $105 $-1 #
coedge $-1 $287 $286 $169 $280 forward $274 $-1 #
edge $-1 $420 3.3808926458149333 $421 16.517210232917179 $279 $422 forward 7 unknown #
coedge $-1 $171 $170 $423 $424 reversed $67 $-1 #
coedge $-1 $425 $426 $170 $283 forward $427 $-1 #
edge $-1 $428 -61.334879604480122 $288 61.334879604480122 $282 $429 forward 7 unknown #
coedge $-1 $276 $430 $171 $285 reversed $167 $-1 #
edge $-1 $431 -61.334879604480122 $289 61.334879604480122 $284 $432 forward 7 unknown #
coedge $-1 $279 $172 $430 $433 forward $274 $-1 #
coedge $-1 $172 $279 $425 $434 reversed $274 $-1 #
vertex $-1 $434 $435 #
vertex $-1 $173 $436 #
straight-curve $-1 61.334879604480122 9.9490514393660572 9.931312842295462 0 -1 0 I I #
face $-1 $-1 $437 $39 $-1 $438 reversed single #
loop $-1 $-1 $180 $174 #
plane-surface $-1 0 0 11.877872788107805 0 0 1 1 0 0 forward_v I I I I #
coedge $-1 $439 $440 $441 $442 reversed $175 $-1 #
coedge $-1 $443 $177 $179 $301 forward $109 $-1 #
coedge $-1 $177 $443 $439 $444 forward $109 $-1 #
coedge $-1 $441 $180 $177 $298 forward $292 $-1 #
edge $-1 $304 1.7172747264914605 $445 7.7040671684127595 $297 $446 forward 7 unknown #
coedge $-1 $447 $448 $178 $300 forward $437 $-1 #
edge $-1 $449 -83.75479715518577 $303 -72.695432429850754 $299 $450 forward 7 unknown #
edge $-1 $304 109.76753508633114 $449 122.6697592089602 $179 $451 forward 7 unknown #
coedge $-1 $180 $441 $447 $452 forward $292 $-1 #
vertex $-1 $300 $453 #
vertex $-1 $181 $454 #
straight-curve $-1 51.651895955693227 -6.4279456739435705 11.877872788107808 -1 0 0 I I #
coedge $-1 $306 $306 $-1 $455 reversed $184 $-1 #
edge $-1 $456 0 $456 6.2831853071796004 $185 $457 forward 7 unknown #
vertex $-1 $188 $458 #
ellipse-curve $-1 58.012311351510476 -10.704225989601643 6.3481904254402837 0.85716730853699208 0 0.51503806187062418 0.25751903093531209 0 -0.42858365426849604 1 I I #
coedge $-1 $310 $310 $-1 $459 reversed $191 $-1 #
edge $-1 $460 0 $460 6.2831853071796004 $192 $461 forward 7 unknown #
vertex $-1 $195 $462 #
ellipse-curve $-1 58.012311351510476 -8.1384578002068011 6.3481904254402837 0.85716730853699208 0 0.51503806187062418 0.25751903093531209 0 -0.42858365426849604 1 I I #
face $-1 $-1 $326 $42 $-1 $463 forward single #
loop $-1 $-1 $464 $196 #
plane-surface $-1 61.334879604480122 0 0 -1 0 0 0 0 1 forward_v I I I I #
coedge $-1 $465 $466 $467 $468 reversed $197 $-1 #
coedge $-1 $469 $199 $201 $324 forward $123 $-1 #
coedge $-1 $199 $469 $465 $470 forward $123 $-1 #
coedge $-1 $467 $202 $199 $321 forward $326 $-1 #
edge $-1 $328 -3.2221977132896811 $471 2.7645947286316179 $320 $472 forward 7 unknown #
coedge $-1 $473 $474 $200 $323 forward $315 $-1 #
edge $-1 $475 -83.75479715518577 $327 -72.695432429850754 $322 $476 forward 7 unknown #
edge $-1 $328 109.76753508633114 $475 122.6697592089602 $201 $477 forward 7 unknown #
coedge $-1 $202 $467 $473 $478 forward $326 $-1 #
loop $-1 $-1 $467 $314 #
vertex $-1 $323 $479 #
vertex $-1 $203 $480 #
straight-curve $-1 51.651895955693227 3.4509992056187127 11.877872788107808 -1 0 0 I I #
coedge $-1 $330 $330 $-1 $481 reversed $206 $-1 #
edge $-1 $482 0 $482 6.2831853071796004 $207 $483 forward 7 unknown #
vertex $-1 $210 $484 #
ellipse-curve $-1 58.012311351510476 -0.82528111003935933 6.3481904254402837 0.85716730853699208 0 0.51503806187062418 0.25751903093531209 0 -0.42858365426849604 1 I I #
coedge $-1 $334 $334 $-1 $485 reversed $213 $-1 #
edge $-1 $486 0 $486 6.2831853071796004 $214 $487 forward 7 unknown #
vertex $-1 $217 $488 #
ellipse-curve $-1 58.012311351510476 1.7404870793554821 6.3481904254402837 0.85716730853699208 0 0.51503806187062418 0.25751903093531209 0 -0.42858365426849604 1 I I #
face $-1 $-1 $489 $45 $-1 $490 forward single #
loop $-1 $-1 $344 $218 #
plane-surface $-1 0 0 11.877872788107805 0 0 1 1 0 0 forward_v I I I I #
coedge $-1 $491 $492 $343 $493 forward $219 $-1 #
coedge $-1 $343 $221 $223 $349 reversed $137 $-1 #
coedge $-1 $221 $342 $341 $493 reversed $137 $-1 #
coedge $-1 $494 $224 $221 $345 forward $339 $-1 #
edge $-1 $352 3.0378471428476033 $495 9.6829836487868945 $344 $496 forward 7 unknown #
coedge $-1 $223 $222 $491 $497 reversed $88 $-1 #
coedge $-1 $498 $499 $222 $348 reversed $489 $-1 #
edge $-1 $351 109.76753508633114 $500 122.6697592089602 $347 $501 forward 7 unknown #
edge $-1 $502 -122.6697592089602 $352 -109.76753508633114 $342 $503 forward 7 unknown #
coedge $-1 $224 $494 $498 $504 forward $339 $-1 #
vertex $-1 $504 $505 #
vertex $-1 $225 $506 #
straight-curve $-1 54.689743098540816 5.1682739321101732 11.877872788107808 0 -1 0 I I #
coedge $-1 $354 $354 $-1 $507 reversed $228 $-1 #
edge $-1 $508 0 $508 6.2831853071796004 $229 $509 forward 7 unknown #
vertex $-1 $232 $510 #
ellipse-curve $-1 58.012311351510476 9.0536637695229238 6.3481904254402837 0.85716730853699208 0 0.51503806187062418 0.25751903093531209 0 -0.42858365426849604 1 I I #
coedge $-1 $358 $358 $-1 $511 reversed $235 $-1 #
edge $-1 $512 0 $512 6.2831853071796004 $236 $513 forward 7 unknown #
vertex $-1 $239 $514 #
ellipse-curve $-1 58.012311351510476 11.619431958917769 6.3481904254402837 0.85716730853699208 0 0.51503806187062418 0.25751903093531209 0 -0.42858365426849604 1 I I #
face $-1 $-1 $255 $36 $-1 $515 reversed single #
loop $-1 $-1 $378 $240 #
plane-surface $-1 0 26.466261672283242 0 0 -1 0 0 0 -1 forward_v I I I I #
coedge $-1 $516 $376 $379 $517 forward $241 $-1 #
coedge $-1 $382 $243 $244 $370 reversed $151 $-1 #
coedge $-1 $376 $516 $243 $368 reversed $241 $-1 #
edge $-1 $383 -11.877872788107805 $518 11.877872788107805 $367 $519 forward 7 unknown #
coedge $-1 $245 $244 $516 $520 forward $97 $-1 #
edge $-1 $374 -61.334879604480122 $518 61.334879604480122 $366 $521 forward 7 unknown #
coedge $-1 $379 $378 $245 $372 reversed $363 $-1 #
edge $-1 $522 -61.334879604480122 $373 61.334879604480122 $371 $523 forward 7 unknown #
vertex $-1 $247 $524 #
vertex $-1 $385 $525 #
straight-curve $-1 61.334879604480122 0 -11.877872788107805 0 -1 0 I I #
coedge $-1 $365 $367 $248 $377 reversed $241 $-1 #
edge $-1 $380 -26.466261672283242 $383 26.466261672283242 $376 $526 forward 7 unknown #
coedge $-1 $371 $249 $254 $386 forward $363 $-1 #
coedge $-1 $249 $371 $365 $517 reversed $363 $-1 #
vertex $-1 $250 $527 #
straight-curve $-1 0 26.466261672283242 11.877872788107805 -1 0 0 I I #
coedge $-1 $251 $366 $253 $385 reversed $151 $-1 #
vertex $-1 $377 $528 #
straight-curve $-1 0 -26.466261672283242 11.877872788107805 1 0 0 I I #
edge $-1 $256 -11.877872788107805 $374 11.877872788107805 $253 $529 forward 7 unknown #
edge $-1 $257 -11.877872788107805 $373 11.877872788107805 $254 $530 forward 7 unknown #
point $-1 61.334879604480122 -26.466261672283242 11.877872788107805 #
point $-1 61.334879604480122 26.466261672283242 11.877872788107805 #
face $-1 $-1 $405 $37 $-1 $531 reversed single #
loop $-1 $-1 $532 $259 #
plane-surface $-1 0 -36.625632791060625 -5.0842613564712842 0 1 0 0 0 1 forward_v I I I I #
coedge $-1 $533 $402 $404 $534 forward $260 $-1 #
coedge $-1 $262 $269 $535 $536 forward $159 $-1 #
coedge $-1 $537 $267 $262 $395 reversed $405 $-1 #
edge $-1 $538 -5.0796855593886896 $271 5.0796855593886932 $394 $539 forward 7 unknown #
coedge $-1 $264 $263 $532 $540 reversed $101 $-1 #
coedge $-1 $402 $533 $263 $398 forward $260 $-1 #
edge $-1 $541 -5.0796855593886896 $400 5.0796855593886932 $263 $542 forward 7 unknown #
edge $-1 $270 -5.0796855593886932 $543 5.0796855593886896 $264 $544 forward 7 unknown #
vertex $-1 $265 $545 #
straight-curve $-1 -61.334879604480122 -26.466261672283242 0 0 0 -1 I I #
coedge $-1 $392 $397 $266 $403 reversed $260 $-1 #
edge $-1 $406 -61.334879604480122 $400 61.334879604480122 $402 $546 forward 7 unknown #
coedge $-1 $267 $537 $392 $534 reversed $405 $-1 #
loop $-1 $-1 $267 $389 #
vertex $-1 $268 $547 #
straight-curve $-1 61.334879604480122 -26.466261672283242 0 0 0 1 I I #
point $-1 -61.334879604480122 -26.466261672283242 -3.5842613564712842 #
point $-1 61.334879604480122 -26.466261672283242 -3.5842613564712842 #
face $-1 $-1 $427 $38 $-1 $548 reversed single #
loop $-1 $-1 $423 $273 #
plane-surface $-1 -61.334879604480122 0 0 1 0 0 0 0 -1 forward_v I I I I #
coedge $-1 $430 $276 $277 $417 reversed $167 $-1 #
coedge $-1 $423 $549 $276 $415 forward $411 $-1 #
edge $-1 $550 2.0793083214843815 $431 5.9277724543688475 $414 $551 forward 7 unknown #
coedge $-1 $278 $277 $549 $552 reversed $105 $-1 #
edge $-1 $420 -61.334879604480122 $550 61.334879604480122 $413 $553 forward 7 unknown #
coedge $-1 $426 $425 $278 $419 forward $427 $-1 #
edge $-1 $421 -61.334879604480122 $554 61.334879604480122 $418 $555 forward 7 unknown #
vertex $-1 $280 $556 #
vertex $-1 $419 $557 #
straight-curve $-1 61.334879604480122 9.9490514393660572 6.082848709410996 0 1 0 I I #
coedge $-1 $558 $414 $281 $424 forward $411 $-1 #
edge $-1 $431 3.3808926458149333 $428 16.517210232917179 $423 $559 forward 7 unknown #
coedge $-1 $418 $282 $287 $434 forward $427 $-1 #
coedge $-1 $282 $418 $558 $560 reversed $427 $-1 #
loop $-1 $-1 $282 $410 #
vertex $-1 $560 $561 #
straight-curve $-1 0 26.466261672283242 9.931312842295462 1 0 0 I I #
coedge $-1 $284 $413 $286 $433 reversed $167 $-1 #
vertex $-1 $424 $562 #
straight-curve $-1 0 13.32994408518099 9.931312842295462 1 0 0 I I #
edge $-1 $289 -5.9277724543688475 $420 -2.0793083214843815 $286 $563 forward 7 unknown #
edge $-1 $288 -9.931312842295462 $421 -6.082848709410996 $287 $564 forward 7 unknown #
point $-1 61.334879604480122 26.466261672283238 9.931312842295462 #
point $-1 61.334879604480122 13.32994408518099 9.931312842295462 #
loop $-1 $-1 $299 $291 #
plane-surface $-1 61.334879604480122 0 0 -1 0 0 0 0 1 forward_v I I I I #
coedge $-1 $440 $294 $296 $444 reversed $175 $-1 #
coedge $-1 $294 $439 $565 $566 reversed $175 $-1 #
coedge $-1 $302 $297 $294 $442 forward $292 $-1 #
edge $-1 $445 3.0378471428476033 $567 9.6829836487868945 $441 $568 forward 7 unknown #
coedge $-1 $296 $295 $448 $569 reversed $109 $-1 #
edge $-1 $570 -122.6697592089602 $445 -109.76753508633114 $439 $571 forward 7 unknown #
vertex $-1 $298 $572 #
straight-curve $-1 54.689743098540816 -4.71067094745211 11.877872788107808 0 -1 0 I I #
coedge $-1 $565 $299 $302 $452 reversed $437 $-1 #
coedge $-1 $299 $565 $443 $569 forward $437 $-1 #
vertex $-1 $300 $573 #
straight-curve $-1 61.334879604480122 -6.4279456739435705 84.573305217958563 0 0 1 I I #
straight-curve $-1 -1.8447154286388923 -6.4279456739435705 105.9670154027981 0.51503806187062418 0 -0.85716730853699208 I I #
edge $-1 $567 -12.41473811586487 $303 -6.4279456739435705 $447 $574 forward 7 unknown #
point $-1 61.334879604480122 -6.4279456739435705 11.877872788107805 #
point $-1 54.689743098540831 -6.4279456739435705 11.877872788107808 #
edge $-1 $575 1 $575 0 $306 $-1 forward 7 unknown #
vertex $-1 $307 $576 #
ellipse-curve $-1 57.155144042973461 -10.704225989601643 5.8331523635696483 0.85716730853699208 0 0.51503806187062418 0.25751903093531209 0 -0.42858365426849604 1 I I #
point $-1 58.269830382445768 -10.704225989601643 5.919606771171777 #
edge $-1 $577 1 $577 0 $310 $-1 forward 7 unknown #
vertex $-1 $311 $578 #
ellipse-curve $-1 57.155144042973461 -8.1384578002068011 5.8331523635696483 0.85716730853699208 0 0.51503806187062418 0.25751903093531209 0 -0.42858365426849604 1 I I #
point $-1 58.269830382445768 -8.1384578002068011 5.919606771171777 #
plane-surface $-1 0 0 11.877872788107805 0 0 1 1 0 0 forward_v I I I I #
coedge $-1 $474 $473 $466 $579 forward $315 $-1 #
coedge $-1 $466 $317 $319 $470 reversed $197 $-1 #
coedge $-1 $317 $465 $464 $579 reversed $197 $-1 #
coedge $-1 $325 $320 $317 $468 forward $326 $-1 #
edge $-1 $471 3.0378471428476033 $580 9.6829836487868945 $467 $581 forward 7 unknown #
coedge $-1 $319 $318 $474 $582 reversed $123 $-1 #
edge $-1 $583 -122.6697592089602 $471 -109.76753508633114 $465 $584 forward 7 unknown #
vertex $-1 $321 $585 #
straight-curve $-1 54.689743098540816 0.22880149232903157 11.877872788107808 0 -1 0 I I #
coedge $-1 $464 $322 $325 $478 reversed $315 $-1 #
coedge $-1 $322 $464 $469 $582 forward $315 $-1 #
vertex $-1 $323 $586 #
straight-curve $-1 61.334879604480122 3.4509992056187127 84.573305217958563 0 0 1 I I #
straight-curve $-1 -1.8447154286388923 3.4509992056187127 105.9670154027981 0.51503806187062418 0 -0.85716730853699208 I I #
edge $-1 $580 -2.5357932363025864 $327 3.4509992056187127 $473 $587 forward 7 unknown #
point $-1 61.334879604480122 3.4509992056187127 11.877872788107805 #
point $-1 54.689743098540831 3.4509992056187127 11.877872788107808 #
edge $-1 $588 1 $588 0 $330 $-1 forward 7 unknown #
vertex $-1 $331 $589 #
ellipse-curve $-1 57.155144042973461 -0.82528111003935933 5.8331523635696483 0.85716730853699208 0 0.51503806187062418 0.25751903093531209 0 -0.42858365426849604 1 I I #
point $-1 58.269830382445768 -0.82528111003935933 5.919606771171777 #
edge $-1 $590 1 $590 0 $334 $-1 forward 7 unknown #
vertex $-1 $335 $591 #
ellipse-curve $-1 57.155144042973461 1.7404870793554821 5.8331523635696483 0.85716730853699208 0 0.51503806187062418 0.25751903093531209 0 -0.42858365426849604 1 I I #
point $-1 58.269830382445768 1.7404870793554821 5.919606771171777 #
loop $-1 $-1 $347 $338 #
plane-surface $-1 0 13.32994408518099 8.007080775853229 0 1 0 0 0 1 forward_v I I I I #
coedge $-1 $592 $341 $346 $497 forward $219 $-1 #
coedge $-1 $341 $592 $494 $593 reversed $219 $-1 #
edge $-1 $495 72.695432429850754 $502 83.75479715518577 $341 $594 forward 7 unknown #
coedge $-1 $350 $344 $492 $593 forward $339 $-1 #
vertex $-1 $593 $595 #
straight-curve $-1 51.651895955693227 7.3431516432596968 11.877872788107808 1 0 0 I I #
edge $-1 $502 2.1748777111495237 $500 8.1616701530708227 $491 $596 forward 7 unknown #
coedge $-1 $499 $347 $350 $504 reversed $489 $-1 #
coedge $-1 $347 $498 $592 $597 reversed $489 $-1 #
vertex $-1 $597 $598 #
straight-curve $-1 -1.8447154286388923 13.329944085180996 105.9670154027981 0.51503806187062418 0 -0.85716730853699208 I I #
vertex $-1 $497 $599 #
straight-curve $-1 -1.8447154286388923 7.3431516432596968 105.9670154027981 -0.51503806187062418 0 0.85716730853699208 I I #
edge $-1 $600 -9.6829836487868945 $351 -3.0378471428476033 $350 $601 forward 7 unknown #
point $-1 54.689743098540831 13.329944085180996 11.877872788107808 #
point $-1 54.689743098540831 7.3431516432596968 11.877872788107808 #
edge $-1 $602 1 $602 0 $354 $-1 forward 7 unknown #
vertex $-1 $355 $603 #
ellipse-curve $-1 57.155144042973461 9.0536637695229238 5.8331523635696483 0.85716730853699208 0 0.51503806187062418 0.25751903093531209 0 -0.42858365426849604 1 I I #
point $-1 58.269830382445768 9.0536637695229238 5.919606771171777 #
edge $-1 $604 1 $604 0 $358 $-1 forward 7 unknown #
vertex $-1 $359 $605 #
ellipse-curve $-1 57.155144042973461 11.619431958917769 5.8331523635696483 0.85716730853699208 0 0.51503806187062418 0.25751903093531209 0 -0.42858365426849604 1 I I #
point $-1 58.269830382445768 11.619431958917769 5.919606771171777 #
plane-surface $-1 61.334879604480122 0 0 -1 0 0 0 0 1 forward_v I I I I #
coedge $-1 $367 $365 $369 $520 reversed $241 $-1 #
edge $-1 $380 -11.877872788107805 $522 11.877872788107805 $379 $606 forward 7 unknown #
vertex $-1 $520 $607 #
straight-curve $-1 -61.334879604480122 -26.466261672283242 0 0 0 -1 I I #
edge $-1 $518 -26.466261672283242 $522 26.466261672283242 $516 $608 forward 7 unknown #
straight-curve $-1 0 -26.466261672283242 -11.877872788107805 -1 0 0 I I #
vertex $-1 $372 $609 #
straight-curve $-1 0 26.466261672283242 -11.877872788107805 1 0 0 I I #
point $-1 61.334879604480122 26.466261672283242 -11.877872788107805 #
point $-1 61.334879604480122 -26.466261672283242 -11.877872788107805 #
straight-curve $-1 -61.334879604480122 0 11.877872788107805 0 -1 0 I I #
point $-1 -61.334879604480122 26.466261672283242 11.877872788107805 #
point $-1 -61.334879604480122 -26.466261672283242 11.877872788107805 #
straight-curve $-1 61.334879604480122 -26.466261672283242 0 0 0 -1 I I #
straight-curve $-1 61.334879604480122 26.466261672283242 0 0 0 -1 I I #
plane-surface $-1 61.334879604480122 0 0 -1 0 0 0 0 1 forward_v I I I I #
coedge $-1 $610 $535 $396 $540 forward $390 $-1 #
coedge $-1 $397 $392 $610 $611 forward $260 $-1 #
edge $-1 $406 -5.0796855593886932 $612 5.0796855593886896 $404 $613 forward 7 unknown #
coedge $-1 $532 $614 $393 $536 reversed $390 $-1 #
edge $-1 $543 -61.334879604480122 $538 61.334879604480122 $535 $615 forward 7 unknown #
coedge $-1 $404 $394 $614 $616 forward $405 $-1 #
vertex $-1 $395 $617 #
straight-curve $-1 61.334879604480122 -31.545947231671935 -3.5842613564712842 0 1 0 I I #
edge $-1 $543 -1.5 $541 1.5 $396 $618 forward 7 unknown #
vertex $-1 $398 $619 #
straight-curve $-1 -61.334879604480122 -31.545947231671935 -6.5842613564712842 0 1 0 I I #
vertex $-1 $399 $620 #
straight-curve $-1 -61.334879604480122 -31.545947231671935 -3.5842613564712842 0 -1 0 I I #
point $-1 -61.334879604480122 -26.466261672283242 -6.5842613564712842 #
straight-curve $-1 0 -26.466261672283242 -6.5842613564712842 -1 0 0 I I #
point $-1 61.334879604480122 -26.466261672283242 -6.5842613564712842 #
plane-surface $-1 0 26.466261672283242 0 0 -1 0 0 0 -1 forward_v I I I I #
coedge $-1 $414 $558 $416 $552 forward $411 $-1 #
vertex $-1 $552 $621 #
straight-curve $-1 -61.334879604480122 13.32994408518099 4.0035403879266145 0 0 1 I I #
edge $-1 $554 -16.517210232917179 $550 -3.3808926458149333 $549 $622 forward 7 unknown #
straight-curve $-1 0 13.32994408518099 6.082848709410996 -1 0 0 I I #
vertex $-1 $419 $623 #
straight-curve $-1 0 26.466261672283242 6.082848709410996 -1 0 0 I I #
point $-1 61.334879604480122 13.32994408518099 6.082848709410996 #
point $-1 61.334879604480122 26.466261672283238 6.082848709410996 #
coedge $-1 $549 $423 $426 $560 forward $411 $-1 #
straight-curve $-1 -61.334879604480122 9.9490514393660572 9.931312842295462 0 1 0 I I #
edge $-1 $428 -9.931312842295462 $554 -6.082848709410996 $426 $624 forward 7 unknown #
point $-1 -61.334879604480122 26.466261672283238 9.931312842295462 #
point $-1 -61.334879604480122 13.32994408518099 9.931312842295462 #
straight-curve $-1 61.334879604480122 13.32994408518099 4.0035403879266145 0 0 -1 I I #
straight-curve $-1 61.334879604480122 26.466261672283242 0 0 0 -1 I I #
coedge $-1 $448 $447 $440 $566 forward $437 $-1 #
edge $-1 $567 72.695432429850754 $570 83.75479715518577 $565 $625 forward 7 unknown #
vertex $-1 $452 $626 #
straight-curve $-1 51.651895955693227 -12.41473811586487 11.877872788107808 1 0 0 I I #
edge $-1 $570 -7.7040671684127595 $449 -1.7172747264914605 $448 $627 forward 7 unknown #
vertex $-1 $569 $628 #
straight-curve $-1 -1.8447154286388923 -12.41473811586487 105.9670154027981 -0.51503806187062418 0 0.85716730853699208 I I #
point $-1 54.689743098540831 -12.41473811586487 11.877872788107808 #
point $-1 61.334879604480122 -6.4279456739435705 0.81850806277279275 #
straight-curve $-1 61.334879604480122 0 11.877872788107805 0 1 0 I I #
vertex $-1 $455 $629 #
point $-1 57.412663073908774 -10.704225989601643 5.4045687093011523 #
vertex $-1 $459 $630 #
point $-1 57.412663073908774 -8.1384578002068011 5.4045687093011523 #
edge $-1 $580 72.695432429850754 $583 83.75479715518577 $464 $631 forward 7 unknown #
vertex $-1 $478 $632 #
straight-curve $-1 51.651895955693227 -2.5357932363025864 11.877872788107808 1 0 0 I I #
edge $-1 $583 -2.7645947286316179 $475 3.2221977132896811 $474 $633 forward 7 unknown #
vertex $-1 $582 $634 #
straight-curve $-1 -1.8447154286388923 -2.5357932363025864 105.9670154027981 -0.51503806187062418 0 0.85716730853699208 I I #
point $-1 54.689743098540831 -2.5357932363025864 11.877872788107808 #
point $-1 61.334879604480122 3.4509992056187127 0.81850806277279275 #
straight-curve $-1 61.334879604480122 0 11.877872788107805 0 1 0 I I #
vertex $-1 $481 $635 #
point $-1 57.412663073908774 -0.82528111003935933 5.4045687093011523 #
vertex $-1 $485 $636 #
point $-1 57.412663073908774 1.7404870793554821 5.4045687093011523 #
coedge $-1 $492 $491 $499 $597 forward $219 $-1 #
edge $-1 $495 7.3431516432596968 $600 13.329944085180996 $492 $637 forward 7 unknown #
straight-curve $-1 61.334879604480122 7.3431516432596968 84.573305217958563 0 0 -1 I I #
point $-1 61.334879604480122 7.3431516432596968 11.877872788107805 #
straight-curve $-1 61.334879604480122 5.1682739321101732 0.81850806277278565 0 1 0 I I #
edge $-1 $500 -83.75479715518577 $600 -72.695432429850754 $592 $638 forward 7 unknown #
point $-1 61.334879604480122 13.329944085180996 0.81850806277279275 #
point $-1 61.334879604480122 7.3431516432596968 0.81850806277279275 #
vertex $-1 $597 $639 #
straight-curve $-1 51.651895955693227 13.329944085180996 11.877872788107808 -1 0 0 I I #
vertex $-1 $507 $640 #
point $-1 57.412663073908774 9.0536637695229238 5.4045687093011523 #
vertex $-1 $511 $641 #
point $-1 57.412663073908774 11.619431958917769 5.4045687093011523 #
straight-curve $-1 -61.334879604480122 26.466261672283242 0 0 0 -1 I I #
point $-1 -61.334879604480122 -26.466261672283242 -11.877872788107805 #
straight-curve $-1 -61.334879604480122 0 -11.877872788107805 0 1 0 I I #
point $-1 -61.334879604480122 26.466261672283242 -11.877872788107805 #
coedge $-1 $614 $532 $533 $611 reversed $390 $-1 #
edge $-1 $612 -61.334879604480122 $541 61.334879604480122 $610 $642 forward 7 unknown #
vertex $-1 $616 $643 #
straight-curve $-1 61.334879604480122 -31.545947231671935 -6.5842613564712842 0 -1 0 I I #
coedge $-1 $535 $610 $537 $616 reversed $390 $-1 #
straight-curve $-1 0 -36.625632791060625 -3.5842613564712842 1 0 0 I I #
edge $-1 $538 -1.5 $612 1.5 $537 $644 forward 7 unknown #
point $-1 61.334879604480122 -36.625632791060625 -3.5842613564712842 #
straight-curve $-1 -61.334879604480122 -36.625632791060625 -5.0842613564712842 0 0 -1 I I #
point $-1 -61.334879604480122 -36.625632791060625 -6.5842613564712842 #
point $-1 -61.334879604480122 -36.625632791060625 -3.5842613564712842 #
point $-1 -61.334879604480122 13.32994408518099 6.082848709410996 #
straight-curve $-1 -61.334879604480122 9.9490514393660572 6.082848709410996 0 -1 0 I I #
point $-1 -61.334879604480122 26.466261672283238 6.082848709410996 #
straight-curve $-1 -61.334879604480122 26.466261672283242 0 0 0 -1 I I #
straight-curve $-1 61.334879604480122 -12.41473811586487 84.573305217958563 0 0 -1 I I #
point $-1 61.334879604480122 -12.41473811586487 11.877872788107805 #
straight-curve $-1 61.334879604480122 -4.71067094745211 0.81850806277278565 0 1 0 I I #
point $-1 61.334879604480122 -12.41473811586487 0.81850806277279275 #
point $-1 56.726560388704968 -10.704225989601643 5.5756333326343368 #
point $-1 56.726560388704968 -8.1384578002068011 5.5756333326343368 #
straight-curve $-1 61.334879604480122 -2.5357932363025864 84.573305217958563 0 0 -1 I I #
point $-1 61.334879604480122 -2.5357932363025864 11.877872788107805 #
straight-curve $-1 61.334879604480122 0.22880149232903157 0.81850806277278565 0 1 0 I I #
point $-1 61.334879604480122 -2.5357932363025864 0.81850806277279275 #
point $-1 56.726560388704968 -0.82528111003935933 5.5756333326343368 #
point $-1 56.726560388704968 1.7404870793554821 5.5756333326343368 #
straight-curve $-1 61.334879604480122 0 11.877872788107805 0 1 0 I I #
straight-curve $-1 61.334879604480122 13.329944085180996 84.573305217958563 0 0 1 I I #
point $-1 61.334879604480122 13.329944085180996 11.877872788107805 #
point $-1 56.726560388704968 9.0536637695229238 5.5756333326343368 #
point $-1 56.726560388704968 11.619431958917769 5.5756333326343368 #
straight-curve $-1 0 -36.625632791060625 -6.5842613564712842 -1 0 0 I I #
point $-1 61.334879604480122 -36.625632791060625 -6.5842613564712842 #
straight-curve $-1 61.334879604480122 -36.625632791060625 -5.0842613564712842 0 0 -1 I I #
End-of-ACIS-data 