500 0 6 0           
7 Unknown 11 ACIS 5.0 NT 24 Thu Mar 25 22:50:36 1999 
-1 9.9999999999999995e-007 1e-010 
body $-1 $6 $-1 $7 #
body $-1 $8 $-1 $9 #
body $-1 $10 $-1 $11 #
body $-1 $12 $-1 $13 #
body $-1 $14 $-1 $15 #
body $-1 $16 $-1 $17 #
lump $-1 $-1 $18 $0 #
transform $-1 1 0 0 0 1 0 0 0 1 68.217413861506998 42.042387790869796 14.842822060070802 1 rotate no_reflect no_shear #
lump $-1 $-1 $19 $1 #
transform $-1 1 0 0 0 1 0 0 0 1 68.217413861506998 42.042387790869796 14.842822060070802 1 rotate no_reflect no_shear #
lump $-1 $-1 $20 $2 #
transform $-1 1 0 0 0 1 0 0 0 1 68.217413861506998 42.042387790869796 14.842822060070802 1 rotate no_reflect no_shear #
lump $-1 $-1 $21 $3 #
transform $-1 1 0 0 0 1 0 0 0 1 68.217413861506998 42.042387790869796 14.842822060070802 1 rotate no_reflect no_shear #
lump $-1 $-1 $22 $4 #
transform $-1 1 0 0 0 1 0 0 0 1 68.217413861506998 42.042387790869796 14.842822060070802 1 rotate no_reflect no_shear #
lump $-1 $-1 $23 $5 #
transform $-1 1 0 0 0 1 0 0 0 1 68.217413861506998 42.042387790869796 14.842822060070802 1 rotate no_reflect no_shear #
shell $-1 $-1 $-1 $24 $-1 $6 #
shell $-1 $-1 $-1 $25 $-1 $8 #
shell $-1 $-1 $-1 $26 $-1 $10 #
shell $-1 $-1 $-1 $27 $-1 $12 #
shell $-1 $-1 $-1 $28 $-1 $14 #
shell $-1 $-1 $-1 $29 $-1 $16 #
face $-1 $30 $31 $18 $-1 $32 forward single #
face $-1 $33 $34 $19 $-1 $35 forward single #
face $-1 $36 $37 $20 $-1 $38 reversed single #
face $-1 $39 $40 $21 $-1 $41 forward single #
face $-1 $42 $43 $22 $-1 $44 reversed single #
face $-1 $45 $46 $23 $-1 $47 forward single #
face $-1 $48 $49 $18 $-1 $50 reversed single #
loop $-1 $-1 $51 $24 #
plane-surface $-1 0 0 14.842822060070802 0 0 1 1 0 0 forward_v I I I I #
face $-1 $52 $53 $19 $-1 $54 reversed single #
loop $-1 $-1 $55 $25 #
plane-surface $-1 -68.217413861506998 0 0 1 0 0 0 0 -1 forward_v I I I I #
face $-1 $56 $57 $20 $-1 $58 reversed single #
loop $-1 $-1 $59 $26 #
plane-surface $-1 -38.788142924306506 -131.55168947582132 106.05704960659094 -1 0 0 0 -0.6560590369687036 0.75470957328743171 forward_v I I I I #
face $-1 $60 $61 $21 $-1 $62 forward single #
loop $-1 $63 $64 $27 #
cone-surface $-1 -45.878758790207755 -34.281897492754041 7.815783782077923 0 0.6560590369687036 -0.75470957328743171 2.5 0 0 1 I I 0 1 2.5 forward I I I I #
face $-1 $65 $66 $22 $-1 $67 reversed single #
loop $-1 $-1 $68 $28 #
plane-surface $-1 51.103632878930917 43.033898788068456 167.43428435379886 1 0 0 0 -0.52991927123019833 -0.84804809178421925 forward_v I I I I #
face $-1 $69 $70 $23 $-1 $71 forward single #
loop $-1 $72 $73 $29 #
cone-surface $-1 59.660523370218954 35.070412786893669 9.6720166123828246 0 -0.52991927123019833 -0.84804809178421925 1.5 0 0 1 I I 0 1 1.5 forward I I I I #
face $-1 $74 $75 $18 $-1 $76 reversed single #
loop $-1 $-1 $77 $30 #
plane-surface $-1 0 0 -14.842822060070802 0 0 1 1 0 0 forward_v I I I I #
coedge $-1 $78 $79 $80 $81 forward $31 $-1 #
face $-1 $82 $83 $19 $-1 $84 forward single #
loop $-1 $-1 $85 $33 #
plane-surface $-1 0 42.042387790869796 0 0 -1 0 0 0 -1 forward_v I I I I #
coedge $-1 $86 $87 $88 $89 forward $34 $-1 #
face $-1 $90 $91 $20 $-1 $92 reversed single #
loop $-1 $-1 $93 $36 #
plane-surface $-1 -45.878758790207755 -42.042387790869768 3.0883789942107853 0 -0.6560590369687036 0.75470957328743171 1 0 0 forward_v I I I I #
coedge $-1 $94 $95 $96 $97 reversed $37 $-1 #
face $-1 $-1 $98 $21 $-1 $99 forward single #
loop $-1 $100 $101 $39 #
cone-surface $-1 -45.878758790207755 -32.462303227801016 5.7225800704057583 0 0.6560590369687036 -0.75470957328743171 1.25 0 0 1 I I -0.70710678118654746 0.70710678118654746 1.25 forward I I I I #
loop $-1 $-1 $102 $27 #
coedge $-1 $64 $64 $103 $104 reversed $40 $-1 #
face $-1 $105 $106 $22 $-1 $107 reversed single #
loop $-1 $-1 $108 $42 #
plane-surface $-1 59.660523370218954 -29.265545689328775 51.730989050388146 0 0.52991927123019833 0.84804809178421925 1 0 0 forward_v I I I I #
coedge $-1 $109 $110 $111 $112 reversed $43 $-1 #
face $-1 $-1 $113 $23 $-1 $114 forward single #
loop $-1 $115 $116 $45 #
cone-surface $-1 59.660523370218954 33.838261937687463 7.7001630996131176 0 -0.52991927123019833 -0.84804809178421925 0.75 0 0 1 I I -0.70710678118654757 0.70710678118654757 0.75 forward I I I I #
loop $-1 $-1 $117 $29 #
coedge $-1 $73 $73 $118 $119 reversed $46 $-1 #
face $-1 $120 $121 $18 $-1 $122 reversed single #
loop $-1 $-1 $123 $48 #
plane-surface $-1 0 -42.042387790869796 0 0 1 0 0 0 1 forward_v I I I I #
coedge $-1 $124 $125 $126 $127 forward $49 $-1 #
coedge $-1 $128 $51 $129 $130 forward $31 $-1 #
coedge $-1 $51 $128 $131 $132 forward $31 $-1 #
coedge $-1 $133 $134 $51 $81 reversed $135 $-1 #
edge $-1 $136 -42.042387790869796 $137 42.042387790869796 $80 $138 forward 7 unknown #
face $-1 $139 $140 $19 $-1 $141 reversed single #
loop $-1 $-1 $88 $52 #
plane-surface $-1 -73.973282416138147 0 -8.1192279612020961 0 0 1 1 0 0 forward_v I I I I #
coedge $-1 $142 $143 $87 $144 forward $53 $-1 #
coedge $-1 $145 $55 $146 $147 reversed $34 $-1 #
coedge $-1 $55 $145 $85 $144 reversed $34 $-1 #
coedge $-1 $148 $149 $55 $89 reversed $83 $-1 #
edge $-1 $150 -42.042387790869796 $151 42.042387790869796 $88 $152 forward 7 unknown #
face $-1 $153 $154 $20 $-1 $155 reversed single #
loop $-1 $-1 $156 $56 #
plane-surface $-1 -52.969374656109004 -131.55168947582132 106.05704960659094 1 0 0 0 0.6560590369687036 -0.75470957328743171 forward_v I I I I #
coedge $-1 $157 $158 $159 $160 reversed $57 $-1 #
coedge $-1 $95 $59 $161 $162 reversed $37 $-1 #
coedge $-1 $59 $94 $157 $163 reversed $37 $-1 #
coedge $-1 $159 $164 $59 $97 forward $165 $-1 #
edge $-1 $166 23.733456947040864 $167 37.255396605788114 $96 $168 forward 7 unknown #
loop $-1 $-1 $103 $60 #
plane-surface $-1 -45.878758790207755 -42.042387790869768 3.0883789942107853 0 -0.6560590369687036 0.75470957328743171 1 0 0 forward_v I I I I #
loop $-1 $-1 $169 $39 #
coedge $-1 $101 $101 $102 $170 reversed $61 $-1 #
coedge $-1 $102 $102 $101 $170 forward $63 $-1 #
coedge $-1 $103 $103 $64 $104 forward $98 $-1 #
edge $-1 $171 3.715525902148775e-016 $171 6.2831853071796004 $103 $172 forward 7 unknown #
face $-1 $173 $174 $22 $-1 $175 reversed single #
loop $-1 $-1 $176 $65 #
plane-surface $-1 68.217413861506998 0 0 -1 0 0 0 0 1 forward_v I I I I #
coedge $-1 $177 $178 $179 $180 reversed $66 $-1 #
coedge $-1 $110 $68 $181 $182 reversed $43 $-1 #
coedge $-1 $68 $109 $177 $183 reversed $43 $-1 #
coedge $-1 $179 $184 $68 $112 forward $185 $-1 #
edge $-1 $186 -20.525438396835568 $187 -8.2509111804504514 $111 $188 forward 7 unknown #
loop $-1 $-1 $118 $69 #
plane-surface $-1 59.660523370218954 -29.265545689328775 51.730989050388146 0 0.52991927123019833 0.84804809178421925 1 0 0 forward_v I I I I #
loop $-1 $-1 $189 $45 #
coedge $-1 $116 $116 $117 $190 reversed $70 $-1 #
coedge $-1 $117 $117 $116 $190 forward $72 $-1 #
coedge $-1 $118 $118 $73 $119 forward $113 $-1 #
edge $-1 $191 1.2551009623730124e-015 $191 6.2831853071796013 $118 $192 forward 7 unknown #
face $-1 $193 $194 $18 $-1 $195 reversed single #
loop $-1 $-1 $196 $74 #
plane-surface $-1 -68.217413861506998 0 0 1 0 0 0 0 -1 forward_v I I I I #
coedge $-1 $197 $131 $196 $198 forward $75 $-1 #
coedge $-1 $199 $77 $197 $200 forward $49 $-1 #
coedge $-1 $77 $199 $201 $202 forward $49 $-1 #
coedge $-1 $134 $133 $77 $127 reversed $135 $-1 #
edge $-1 $203 -42.042387790869796 $204 42.042387790869796 $126 $205 forward 7 unknown #
coedge $-1 $79 $78 $206 $207 forward $31 $-1 #
coedge $-1 $208 $209 $78 $130 reversed $194 $-1 #
edge $-1 $137 -68.217413861506998 $210 68.217413861506998 $129 $211 forward 7 unknown #
coedge $-1 $123 $212 $79 $132 reversed $75 $-1 #
edge $-1 $213 -68.217413861506998 $136 68.217413861506998 $131 $214 forward 7 unknown #
coedge $-1 $126 $80 $212 $215 forward $135 $-1 #
coedge $-1 $80 $126 $208 $216 reversed $135 $-1 #
loop $-1 $-1 $133 $193 #
vertex $-1 $81 $217 #
vertex $-1 $81 $218 #
straight-curve $-1 68.217413861506998 0 14.842822060070802 0 1 0 I I #
face $-1 $219 $220 $19 $-1 $221 reversed single #
loop $-1 $-1 $222 $82 #
plane-surface $-1 -79.729150970769297 0 -11.481025010636449 1 0 0 0 0 -1 forward_v I I I I #
coedge $-1 $223 $85 $224 $225 reversed $53 $-1 #
coedge $-1 $85 $223 $148 $226 reversed $53 $-1 #
edge $-1 $150 8.1192279612020961 $227 14.842822060070802 $85 $228 forward 7 unknown #
coedge $-1 $87 $86 $229 $230 reversed $34 $-1 #
coedge $-1 $231 $232 $86 $147 forward $233 $-1 #
edge $-1 $234 -14.842822060070802 $151 -8.1192279612020961 $146 $235 forward 7 unknown #
coedge $-1 $236 $88 $143 $226 forward $83 $-1 #
coedge $-1 $88 $236 $231 $237 forward $83 $-1 #
vertex $-1 $144 $238 #
vertex $-1 $237 $239 #
straight-curve $-1 -68.217413861506998 0 -8.1192279612020961 0 -1 0 I I #
face $-1 $-1 $165 $20 $-1 $240 forward single #
loop $-1 $-1 $241 $90 #
plane-surface $-1 0 -42.042387790869796 0 0 1 0 0 0 1 forward_v I I I I #
coedge $-1 $242 $243 $244 $245 reversed $91 $-1 #
coedge $-1 $246 $93 $95 $163 forward $57 $-1 #
coedge $-1 $93 $246 $242 $247 forward $57 $-1 #
coedge $-1 $244 $96 $93 $160 forward $165 $-1 #
edge $-1 $167 15.848763529202628 $248 30.029995261005126 $159 $249 forward 7 unknown #
coedge $-1 $250 $251 $94 $162 forward $154 $-1 #
edge $-1 $252 -49.940145809084711 $166 -38.185702743224667 $161 $253 forward 7 unknown #
edge $-1 $167 -17.916745907763094 $252 3.776566559949536e-014 $95 $254 forward 7 unknown #
coedge $-1 $96 $244 $250 $255 forward $165 $-1 #
loop $-1 $-1 $244 $153 #
vertex $-1 $162 $256 #
vertex $-1 $97 $257 #
straight-curve $-1 -38.788142924306506 -65.77584473791066 14.842822060070802 0 1 0 I I #
coedge $-1 $169 $169 $-1 $258 reversed $100 $-1 #
edge $-1 $259 0 $259 6.2831853071796004 $101 $260 forward 7 unknown #
vertex $-1 $104 $261 #
ellipse-curve $-1 -45.878758790207755 -35.281417961496174 8.9656005271407793 0 -0.6560590369687036 0.75470957328743171 2.5 0 0 1 I I #
face $-1 $-1 $185 $22 $-1 $262 forward single #
loop $-1 $-1 $263 $105 #
plane-surface $-1 0 42.042387790869796 0 0 -1 0 0 0 -1 forward_v I I I I #
coedge $-1 $264 $265 $178 $266 forward $106 $-1 #
coedge $-1 $267 $108 $110 $183 forward $66 $-1 #
coedge $-1 $108 $267 $176 $266 reversed $66 $-1 #
coedge $-1 $268 $111 $108 $180 forward $185 $-1 #
edge $-1 $187 21.27337119382144 $269 38.387152176397521 $179 $270 forward 7 unknown #
coedge $-1 $271 $263 $109 $182 forward $174 $-1 #
edge $-1 $272 -76.544296124341514 $186 -68.874320116828628 $181 $273 forward 7 unknown #
edge $-1 $187 69.610918102076397 $272 84.084775581739592 $110 $274 forward 7 unknown #
coedge $-1 $111 $268 $271 $275 forward $185 $-1 #
loop $-1 $-1 $179 $173 #
vertex $-1 $182 $276 #
vertex $-1 $112 $277 #
straight-curve $-1 51.103632878930917 21.516949394034228 14.842822060070802 0 -1 0 I I #
coedge $-1 $189 $189 $-1 $278 reversed $115 $-1 #
edge $-1 $279 0 $279 6.2831853071796004 $116 $280 forward 7 unknown #
vertex $-1 $119 $281 #
ellipse-curve $-1 59.660523370218954 35.905124182677227 11.007834056314369 0 0.52991927123019833 0.84804809178421925 1.5 0 0 1 I I #
face $-1 $-1 $135 $18 $-1 $282 reversed single #
loop $-1 $-1 $208 $120 #
plane-surface $-1 0 42.042387790869796 0 0 -1 0 0 0 -1 forward_v I I I I #
coedge $-1 $206 $283 $123 $198 reversed $121 $-1 #
coedge $-1 $212 $123 $124 $200 reversed $75 $-1 #
edge $-1 $213 -14.842822060070802 $284 14.842822060070802 $196 $285 forward 7 unknown #
coedge $-1 $125 $124 $283 $286 forward $49 $-1 #
edge $-1 $204 -68.217413861506998 $284 68.217413861506998 $197 $287 forward 7 unknown #
coedge $-1 $209 $208 $125 $202 reversed $194 $-1 #
edge $-1 $288 -68.217413861506998 $203 68.217413861506998 $201 $289 forward 7 unknown #
vertex $-1 $127 $290 #
vertex $-1 $215 $291 #
straight-curve $-1 68.217413861506998 0 -14.842822060070802 0 -1 0 I I #
coedge $-1 $292 $196 $128 $207 reversed $121 $-1 #
edge $-1 $210 -42.042387790869796 $213 42.042387790869796 $206 $293 forward 7 unknown #
coedge $-1 $201 $129 $134 $216 forward $194 $-1 #
coedge $-1 $129 $201 $292 $294 reversed $194 $-1 #
vertex $-1 $130 $295 #
straight-curve $-1 0 42.042387790869796 14.842822060070802 -1 0 0 I I #
coedge $-1 $131 $197 $133 $215 reversed $75 $-1 #
vertex $-1 $207 $296 #
straight-curve $-1 0 -42.042387790869796 14.842822060070802 1 0 0 I I #
edge $-1 $136 -14.842822060070802 $204 14.842822060070802 $133 $297 forward 7 unknown #
edge $-1 $137 -14.842822060070802 $203 14.842822060070802 $134 $298 forward 7 unknown #
point $-1 68.217413861506998 -42.042387790869796 14.842822060070802 #
point $-1 68.217413861506998 42.042387790869796 14.842822060070802 #
face $-1 $-1 $233 $19 $-1 $299 reversed single #
loop $-1 $-1 $229 $139 #
plane-surface $-1 0 0 -14.842822060070802 0 0 1 1 0 0 forward_v I I I I #
coedge $-1 $300 $301 $223 $302 forward $140 $-1 #
coedge $-1 $143 $142 $222 $302 reversed $53 $-1 #
coedge $-1 $229 $303 $142 $225 forward $220 $-1 #
edge $-1 $304 -79.729150970769297 $227 -68.217413861506998 $142 $305 forward 7 unknown #
edge $-1 $150 -5.7558685546311494 $306 5.7558685546311494 $143 $307 forward 7 unknown #
vertex $-1 $144 $308 #
straight-curve $-1 -68.217413861506998 42.042387790869796 0 0 0 -1 I I #
coedge $-1 $309 $224 $145 $230 forward $220 $-1 #
edge $-1 $227 -42.042387790869796 $234 42.042387790869796 $229 $310 forward 7 unknown #
coedge $-1 $311 $146 $149 $237 reversed $233 $-1 #
coedge $-1 $146 $311 $309 $312 reversed $233 $-1 #
loop $-1 $-1 $146 $219 #
vertex $-1 $312 $313 #
straight-curve $-1 -68.217413861506998 -42.042387790869796 0 0 0 1 I I #
coedge $-1 $149 $148 $301 $314 forward $83 $-1 #
edge $-1 $315 -5.7558685546311494 $151 5.7558685546311494 $231 $316 forward 7 unknown #
point $-1 -68.217413861506998 42.042387790869796 -8.1192279612020961 #
point $-1 -68.217413861506998 -42.042387790869796 -8.1192279612020961 #
plane-surface $-1 0 0 14.842822060070802 0 0 1 1 0 0 forward_v I I I I #
coedge $-1 $251 $250 $243 $317 forward $154 $-1 #
coedge $-1 $243 $156 $158 $247 reversed $91 $-1 #
coedge $-1 $156 $242 $241 $317 reversed $91 $-1 #
coedge $-1 $164 $159 $156 $245 forward $165 $-1 #
edge $-1 $248 -37.255396605788114 $318 -23.733456947040864 $244 $319 forward 7 unknown #
coedge $-1 $158 $157 $251 $320 reversed $57 $-1 #
edge $-1 $321 -3.776566559949536e-014 $248 17.916745907763094 $242 $322 forward 7 unknown #
vertex $-1 $160 $323 #
straight-curve $-1 -22.939379395103877 -28.520448132122546 14.842822060070802 -1 0 0 I I #
coedge $-1 $241 $161 $164 $255 reversed $154 $-1 #
coedge $-1 $161 $241 $246 $320 forward $154 $-1 #
vertex $-1 $162 $324 #
straight-curve $-1 -38.788142924306506 -42.042387790869796 53.028524803295468 0 0 1 I I #
straight-curve $-1 -38.788142924306506 -42.042387790869768 3.0883789942107853 0 -0.75470957328743171 -0.6560590369687036 I I #
edge $-1 $318 -52.969374656109004 $166 -38.788142924306506 $250 $325 forward 7 unknown #
point $-1 -38.788142924306506 -42.042387790869796 14.842822060070802 #
point $-1 -38.788142924306506 -28.520448132122546 14.842822060070802 #
edge $-1 $326 1 $326 0 $169 $-1 forward 7 unknown #
vertex $-1 $170 $327 #
ellipse-curve $-1 -45.878758790207755 -33.282377024011893 6.6659670370150481 0 -0.6560590369687036 0.75470957328743171 2.5 0 0 1 I I #
point $-1 -43.378758790207755 -35.281417961496189 8.965600527140797 #
plane-surface $-1 0 0 14.842822060070802 0 0 1 1 0 0 forward_v I I I I #
coedge $-1 $181 $328 $267 $329 forward $174 $-1 #
coedge $-1 $265 $176 $328 $330 reversed $106 $-1 #
coedge $-1 $176 $264 $268 $331 reversed $106 $-1 #
edge $-1 $269 43.494999004847294 $332 57.968856484510482 $176 $333 forward 7 unknown #
coedge $-1 $178 $177 $263 $329 reversed $66 $-1 #
coedge $-1 $184 $179 $265 $331 forward $185 $-1 #
vertex $-1 $331 $334 #
straight-curve $-1 29.830261685109477 29.767860574484683 14.842822060070798 1 0 0 I I #
coedge $-1 $328 $181 $184 $275 reversed $174 $-1 #
vertex $-1 $182 $335 #
straight-curve $-1 51.103632878930917 42.042387790869796 83.717142176899429 0 0 1 I I #
straight-curve $-1 51.103632878930917 -29.265545689328775 51.730989050388146 0 0.84804809178421925 -0.52991927123019833 I I #
edge $-1 $336 -68.217413861506998 $186 -51.103632878930917 $271 $337 forward 7 unknown #
point $-1 51.103632878930917 42.042387790869796 14.842822060070802 #
point $-1 51.103632878930917 29.767860574484679 14.842822060070802 #
edge $-1 $338 1 $338 0 $189 $-1 forward 7 unknown #
vertex $-1 $190 $339 #
ellipse-curve $-1 59.660523370218954 34.235701391110112 8.3361991684512819 0 0.52991927123019833 0.84804809178421925 1.5 0 0 1 I I #
point $-1 61.160523370218954 35.905124182677227 11.007834056314366 #
plane-surface $-1 68.217413861506998 0 0 -1 0 0 0 0 1 forward_v I I I I #
coedge $-1 $196 $292 $199 $286 reversed $121 $-1 #
vertex $-1 $286 $340 #
straight-curve $-1 -68.217413861506998 -42.042387790869796 0 0 0 -1 I I #
edge $-1 $284 -42.042387790869796 $288 42.042387790869796 $283 $341 forward 7 unknown #
straight-curve $-1 0 -42.042387790869796 -14.842822060070802 -1 0 0 I I #
vertex $-1 $202 $342 #
straight-curve $-1 0 42.042387790869796 -14.842822060070802 1 0 0 I I #
point $-1 68.217413861506998 42.042387790869796 -14.842822060070802 #
point $-1 68.217413861506998 -42.042387790869796 -14.842822060070802 #
coedge $-1 $283 $206 $209 $294 forward $121 $-1 #
straight-curve $-1 -68.217413861506998 0 14.842822060070802 0 -1 0 I I #
edge $-1 $210 -14.842822060070802 $288 14.842822060070802 $209 $343 forward 7 unknown #
point $-1 -68.217413861506998 42.042387790869796 14.842822060070802 #
point $-1 -68.217413861506998 -42.042387790869796 14.842822060070802 #
straight-curve $-1 68.217413861506998 -42.042387790869796 0 0 0 -1 I I #
straight-curve $-1 68.217413861506998 42.042387790869796 0 0 0 -1 I I #
plane-surface $-1 0 -42.042387790869796 0 0 1 0 0 0 1 forward_v I I I I #
coedge $-1 $344 $222 $303 $345 reversed $140 $-1 #
coedge $-1 $222 $344 $236 $314 reversed $140 $-1 #
edge $-1 $306 -3.3617970494343528 $304 3.3617970494343528 $223 $346 forward 7 unknown #
coedge $-1 $224 $309 $300 $345 forward $220 $-1 #
vertex $-1 $225 $347 #
straight-curve $-1 0 42.042387790869796 -14.842822060070802 1 0 0 I I #
vertex $-1 $226 $348 #
straight-curve $-1 -73.973282416138147 42.042387790869796 -8.1192279612020961 -1 0 0 I I #
point $-1 -68.217413861506998 42.042387790869796 -14.842822060070802 #
coedge $-1 $303 $229 $232 $312 forward $220 $-1 #
straight-curve $-1 -68.217413861506998 0 -14.842822060070802 0 -1 0 I I #
coedge $-1 $232 $231 $344 $349 forward $233 $-1 #
edge $-1 $234 -5.7558685546311494 $350 5.7558685546311494 $232 $351 forward 7 unknown #
point $-1 -68.217413861506998 -42.042387790869796 -14.842822060070802 #
edge $-1 $306 -42.042387790869796 $315 42.042387790869796 $301 $352 forward 7 unknown #
vertex $-1 $314 $353 #
straight-curve $-1 -73.973282416138147 -42.042387790869796 -8.1192279612020961 1 0 0 I I #
edge $-1 $318 38.185702743224667 $321 49.940145809084711 $241 $354 forward 7 unknown #
vertex $-1 $255 $355 #
straight-curve $-1 -52.969374656109004 -65.77584473791066 14.842822060070802 0 -1 0 I I #
edge $-1 $321 -30.029995261005126 $252 -15.848763529202628 $251 $356 forward 7 unknown #
vertex $-1 $320 $357 #
straight-curve $-1 -52.969374656109004 -42.042387790869768 3.0883789942107853 0 0.75470957328743171 0.6560590369687036 I I #
point $-1 -52.969374656109004 -28.520448132122546 14.842822060070802 #
point $-1 -38.788142924306506 -42.042387790869796 3.0883789942107605 #
straight-curve $-1 0 -42.042387790869796 14.842822060070802 1 0 0 I I #
vertex $-1 $258 $358 #
point $-1 -43.378758790207755 -33.282377024011893 6.6659670370150481 #
coedge $-1 $263 $271 $264 $330 forward $174 $-1 #
edge $-1 $332 -38.387152176397521 $272 -21.27337119382144 $263 $359 forward 7 unknown #
edge $-1 $336 -14.842822060070802 $332 -7.1728460525579223 $264 $360 forward 7 unknown #
edge $-1 $269 29.767860574484679 $336 42.042387790869796 $265 $361 forward 7 unknown #
vertex $-1 $266 $362 #
straight-curve $-1 68.217413861506998 -7.1179903337325863 37.891660234877676 0 0.84804809178421925 -0.52991927123019833 I I #
point $-1 68.217413861506998 29.767860574484679 14.842822060070802 #
point $-1 51.103632878930917 42.042387790869796 7.1728460525579223 #
vertex $-1 $331 $363 #
straight-curve $-1 0 42.042387790869796 14.842822060070802 -1 0 0 I I #
vertex $-1 $278 $364 #
point $-1 61.160523370218954 34.235701391110112 8.3361991684512819 #
point $-1 -68.217413861506998 -42.042387790869796 -14.842822060070802 #
straight-curve $-1 -68.217413861506998 0 -14.842822060070802 0 1 0 I I #
point $-1 -68.217413861506998 42.042387790869796 -14.842822060070802 #
straight-curve $-1 -68.217413861506998 42.042387790869796 0 0 0 -1 I I #
coedge $-1 $301 $300 $311 $349 reversed $140 $-1 #
edge $-1 $350 -42.042387790869796 $304 42.042387790869796 $300 $365 forward 7 unknown #
straight-curve $-1 -79.729150970769297 42.042387790869796 -11.481025010636449 0 0 -1 I I #
point $-1 -79.729150970769297 42.042387790869796 -14.842822060070802 #
point $-1 -79.729150970769297 42.042387790869796 -8.1192279612020961 #
edge $-1 $315 -3.3617970494343528 $350 3.3617970494343528 $344 $366 forward 7 unknown #
vertex $-1 $345 $367 #
straight-curve $-1 -73.973282416138147 -42.042387790869796 -14.842822060070802 -1 0 0 I I #
straight-curve $-1 -79.729150970769297 0 -8.1192279612020961 0 -1 0 I I #
point $-1 -79.729150970769297 -42.042387790869796 -8.1192279612020961 #
straight-curve $-1 -52.969374656109004 -42.042387790869796 53.028524803295468 0 0 -1 I I #
point $-1 -52.969374656109004 -42.042387790869796 14.842822060070802 #
straight-curve $-1 -22.939379395103877 -42.042387790869796 3.08837899421076 1 0 0 I I #
point $-1 -52.969374656109004 -42.042387790869796 3.0883789942107605 #
point $-1 -45.878758790207755 -31.642229431590135 4.7791931037964686 #
straight-curve $-1 29.830261685109477 42.042387790869796 7.1728460525579258 -1 0 0 I I #
straight-curve $-1 68.217413861506998 42.042387790869796 0 0 0 -1 I I #
straight-curve $-1 68.217413861506998 0 14.842822060070802 0 1 0 I I #
point $-1 68.217413861506998 42.042387790869796 7.1728460525579223 #
point $-1 68.217413861506998 42.042387790869796 14.842822060070802 #
point $-1 59.660523370218954 33.440822484264814 7.0641270307749533 #
straight-curve $-1 -79.729150970769297 0 -14.842822060070802 0 1 0 I I #
straight-curve $-1 -79.729150970769297 -42.042387790869796 -11.481025010636449 0 0 -1 I I #
point $-1 -79.729150970769297 -42.042387790869796 -14.842822060070802 #
End-of-ACIS-data 