500 0 9 0           
7 Unknown 11 ACIS 5.0 NT 24 Thu Mar 25 21:46:42 1999 
-1 9.9999999999999995e-007 1e-010 
body $-1 $9 $-1 $10 #
body $-1 $11 $-1 $12 #
body $-1 $13 $-1 $14 #
body $-1 $15 $-1 $16 #
body $-1 $17 $-1 $18 #
body $-1 $19 $-1 $20 #
body $-1 $21 $-1 $22 #
body $-1 $23 $-1 $24 #
body $-1 $25 $-1 $26 #
lump $-1 $-1 $27 $0 #
transform $-1 1 0 0 0 1 0 0 0 1 55.504623554185613 25.800748411609934 10.263685276970559 1 rotate no_reflect no_shear #
lump $-1 $-1 $28 $1 #
transform $-1 1 0 0 0 1 0 0 0 1 55.504623554185613 25.800748411609934 10.263685276970559 1 rotate no_reflect no_shear #
lump $-1 $-1 $29 $2 #
transform $-1 1 0 0 0 1 0 0 0 1 55.504623554185613 25.800748411609934 10.263685276970559 1 rotate no_reflect no_shear #
lump $-1 $-1 $30 $3 #
transform $-1 1 0 0 0 1 0 0 0 1 55.504623554185613 25.800748411609934 10.263685276970559 1 rotate no_reflect no_shear #
lump $-1 $-1 $31 $4 #
transform $-1 1 0 0 0 1 0 0 0 1 55.504623554185613 25.800748411609934 10.263685276970559 1 rotate no_reflect no_shear #
lump $-1 $-1 $32 $5 #
transform $-1 1 0 0 0 1 0 0 0 1 55.504623554185613 25.800748411609934 10.263685276970559 1 rotate no_reflect no_shear #
lump $-1 $-1 $33 $6 #
transform $-1 1 0 0 0 1 0 0 0 1 55.504623554185613 25.800748411609934 10.263685276970559 1 rotate no_reflect no_shear #
lump $-1 $-1 $34 $7 #
transform $-1 1 0 0 0 1 0 0 0 1 55.504623554185613 25.800748411609934 10.263685276970559 1 rotate no_reflect no_shear #
lump $-1 $-1 $35 $8 #
transform $-1 1 0 0 0 1 0 0 0 1 55.504623554185613 25.800748411609934 10.263685276970559 1 rotate no_reflect no_shear #
shell $-1 $-1 $-1 $36 $-1 $9 #
shell $-1 $-1 $-1 $37 $-1 $11 #
shell $-1 $-1 $-1 $38 $-1 $13 #
shell $-1 $-1 $-1 $39 $-1 $15 #
shell $-1 $-1 $-1 $40 $-1 $17 #
shell $-1 $-1 $-1 $41 $-1 $19 #
shell $-1 $-1 $-1 $42 $-1 $21 #
shell $-1 $-1 $-1 $43 $-1 $23 #
shell $-1 $-1 $-1 $44 $-1 $25 #
face $-1 $45 $46 $27 $-1 $47 forward single #
face $-1 $48 $49 $28 $-1 $50 forward single #
face $-1 $51 $52 $29 $-1 $53 reversed single #
face $-1 $54 $55 $30 $-1 $56 forward single #
face $-1 $57 $58 $31 $-1 $59 reversed single #
face $-1 $60 $61 $32 $-1 $62 forward single #
face $-1 $63 $64 $33 $-1 $65 reversed single #
face $-1 $66 $67 $34 $-1 $68 forward single #
face $-1 $69 $70 $35 $-1 $71 forward single #
face $-1 $72 $73 $27 $-1 $74 reversed single #
loop $-1 $-1 $75 $36 #
plane-surface $-1 0 0 10.263685276970559 0 0 1 1 0 0 forward_v I I I I #
face $-1 $76 $77 $28 $-1 $78 reversed single #
loop $-1 $-1 $79 $37 #
plane-surface $-1 0 -22.228395805427073 -4.8421966600431077 0 0 1 1 0 0 forward_v I I I I #
face $-1 $80 $81 $29 $-1 $82 reversed single #
loop $-1 $-1 $83 $38 #
plane-surface $-1 85.459879330541881 -11.767336791637446 161.26347823710648 0 -1 0 -0.82903758062907751 0 -0.55919289150049634 forward_v I I I I #
face $-1 $84 $85 $30 $-1 $86 forward single #
loop $-1 $87 $88 $39 #
cone-surface $-1 53.829309460614887 -15.211689995440828 8.2870564741268105 -0.82903758062907751 0 -0.55919289150049634 0.27959644575024817 0 -0.41451879031453875 1 I I 0 1 0.5 forward I I I I #
face $-1 $89 $90 $31 $-1 $91 reversed single #
loop $-1 $-1 $92 $40 #
plane-surface $-1 85.459879330541881 10.461059013789628 161.26347823710648 0 -1 0 -0.82903758062907751 0 -0.55919289150049634 forward_v I I I I #
face $-1 $93 $94 $32 $-1 $95 forward single #
loop $-1 $96 $97 $41 #
cone-surface $-1 53.829309460614887 7.0167058099862452 8.2870564741268105 -0.82903758062907751 0 -0.55919289150049634 0.27959644575024817 0 -0.41451879031453875 1 I I 0 1 0.5 forward I I I I #
face $-1 $98 $99 $33 $-1 $100 reversed single #
loop $-1 $-1 $101 $42 #
plane-surface $-1 -126.85999303310726 -18.656043199244213 88.843542595133002 0 1 0 -0.64278761758704617 0 0.76604443648966558 forward_v I I I I #
face $-1 $102 $103 $34 $-1 $104 forward single #
loop $-1 $105 $106 $43 #
cone-surface $-1 -50.714970076971809 -15.756796934362102 5.91270506514602 0.64278761758704617 0 -0.76604443648966558 0.76604443648966558 0 0.64278761758704617 1 I I 0 1 1 forward I I I I #
face $-1 $107 $108 $35 $-1 $109 forward single #
loop $-1 $110 $111 $44 #
cone-surface $-1 -50.714970076971809 -11.40792753703894 5.91270506514602 0.64278761758704617 0 -0.76604443648966558 0.76604443648966558 0 0.64278761758704617 1 I I 0 1 1 forward I I I I #
face $-1 $112 $113 $27 $-1 $114 reversed single #
loop $-1 $-1 $115 $45 #
plane-surface $-1 0 0 -10.263685276970559 0 0 1 1 0 0 forward_v I I I I #
coedge $-1 $116 $117 $118 $119 forward $46 $-1 #
face $-1 $120 $121 $28 $-1 $122 reversed single #
loop $-1 $-1 $123 $48 #
plane-surface $-1 0 -18.656043199244213 -7.5529409685068334 0 -1 0 0 0 -1 forward_v I I I I #
coedge $-1 $124 $125 $126 $127 reversed $49 $-1 #
face $-1 $128 $129 $29 $-1 $130 reversed single #
loop $-1 $-1 $131 $51 #
plane-surface $-1 -6.5709583196376258 -15.211689995440828 99.187896363283272 0.82903758062907751 0 0.55919289150049634 0.55919289150049634 0 -0.82903758062907751 forward_v I I I I #
coedge $-1 $132 $133 $134 $135 reversed $52 $-1 #
face $-1 $-1 $136 $30 $-1 $137 forward single #
loop $-1 $138 $139 $54 #
cone-surface $-1 52.994458977243738 -15.211689995440828 7.7239427303413244 -0.82903758062907751 0 -0.55919289150049634 0.13979822287512408 0 -0.20725939515726938 1 I I -0.70710678118654746 0.70710678118654746 0.25 forward I I I I #
loop $-1 $-1 $140 $39 #
coedge $-1 $88 $88 $141 $142 reversed $55 $-1 #
face $-1 $143 $144 $31 $-1 $145 reversed single #
loop $-1 $-1 $146 $57 #
plane-surface $-1 -6.5709583196376258 7.0167058099862452 99.187896363283272 0.82903758062907751 0 0.55919289150049634 0.55919289150049634 0 -0.82903758062907751 forward_v I I I I #
coedge $-1 $147 $148 $149 $150 reversed $58 $-1 #
face $-1 $-1 $151 $32 $-1 $152 forward single #
loop $-1 $153 $154 $60 #
cone-surface $-1 52.994458977243738 7.0167058099862452 7.7239427303413244 -0.82903758062907751 0 -0.55919289150049634 0.13979822287512408 0 -0.20725939515726938 1 I I -0.70710678118654746 0.70710678118654746 0.25 forward I I I I #
loop $-1 $-1 $155 $41 #
coedge $-1 $97 $97 $156 $157 reversed $61 $-1 #
face $-1 $158 $159 $33 $-1 $160 reversed single #
loop $-1 $-1 $161 $63 #
plane-surface $-1 -55.504623554185628 -13.582362235700522 3.8055264488587284 -0.64278761758704617 0 0.76604443648966558 0.76604443648966558 0 0.64278761758704617 forward_v I I I I #
coedge $-1 $162 $163 $164 $165 reversed $64 $-1 #
face $-1 $-1 $166 $34 $-1 $167 forward single #
loop $-1 $168 $169 $66 #
cone-surface $-1 -49.452189702835838 -15.756796934362102 4.4077820491325692 0.64278761758704617 0 -0.76604443648966558 0.38302221824483279 0 0.32139380879352308 1 I I -0.70710678118654746 0.70710678118654746 0.5 forward I I I I #
loop $-1 $-1 $170 $43 #
coedge $-1 $106 $106 $171 $172 reversed $67 $-1 #
face $-1 $-1 $173 $35 $-1 $174 forward single #
loop $-1 $175 $176 $69 #
cone-surface $-1 -49.452189702835838 -11.40792753703894 4.4077820491325692 0.64278761758704617 0 -0.76604443648966558 0.38302221824483279 0 0.32139380879352308 1 I I -0.70710678118654746 0.70710678118654746 0.5 forward I I I I #
loop $-1 $-1 $177 $44 #
coedge $-1 $111 $111 $178 $179 reversed $70 $-1 #
face $-1 $180 $181 $27 $-1 $182 reversed single #
loop $-1 $-1 $183 $72 #
plane-surface $-1 0 -25.800748411609934 0 0 1 0 0 0 1 forward_v I I I I #
coedge $-1 $184 $185 $186 $187 forward $73 $-1 #
coedge $-1 $188 $75 $189 $190 forward $46 $-1 #
coedge $-1 $75 $188 $191 $192 forward $46 $-1 #
coedge $-1 $193 $194 $75 $119 reversed $195 $-1 #
edge $-1 $196 -25.800748411609934 $197 25.800748411609934 $118 $198 forward 7 unknown #
face $-1 $199 $200 $28 $-1 $201 reversed single #
loop $-1 $-1 $202 $76 #
plane-surface $-1 0 0 -10.263685276970559 0 0 1 1 0 0 forward_v I I I I #
coedge $-1 $203 $204 $205 $206 reversed $77 $-1 #
coedge $-1 $207 $79 $204 $208 forward $49 $-1 #
coedge $-1 $79 $207 $209 $210 reversed $49 $-1 #
coedge $-1 $211 $205 $79 $127 forward $200 $-1 #
edge $-1 $212 7.5418452965306759 $213 14.686550508896397 $126 $214 forward 7 unknown #
face $-1 $215 $216 $29 $-1 $217 reversed single #
loop $-1 $-1 $218 $80 #
plane-surface $-1 85.459879330541881 -18.656043199244209 161.26347823710648 0 1 0 0.82903758062907751 0 0.55919289150049634 forward_v I I I I #
coedge $-1 $219 $220 $221 $222 reversed $81 $-1 #
coedge $-1 $133 $83 $223 $224 reversed $52 $-1 #
coedge $-1 $83 $132 $219 $225 reversed $52 $-1 #
coedge $-1 $221 $226 $83 $135 forward $227 $-1 #
edge $-1 $228 -12.774683888914673 $229 -10.679237878200972 $134 $230 forward 7 unknown #
loop $-1 $-1 $141 $84 #
plane-surface $-1 -6.5709583196376258 -15.211689995440828 99.187896363283272 0.82903758062907751 0 0.55919289150049634 0.55919289150049634 0 -0.82903758062907751 forward_v I I I I #
loop $-1 $-1 $231 $54 #
coedge $-1 $139 $139 $140 $232 reversed $85 $-1 #
coedge $-1 $140 $140 $139 $232 forward $87 $-1 #
coedge $-1 $141 $141 $88 $142 forward $136 $-1 #
edge $-1 $233 0 $233 6.2831853071796004 $141 $234 forward 7 unknown #
face $-1 $235 $236 $31 $-1 $237 reversed single #
loop $-1 $-1 $238 $89 #
plane-surface $-1 85.459879330541881 3.5723526061828625 161.26347823710648 0 1 0 0.82903758062907751 0 0.55919289150049634 forward_v I I I I #
coedge $-1 $239 $240 $241 $242 reversed $90 $-1 #
coedge $-1 $148 $92 $243 $244 reversed $58 $-1 #
coedge $-1 $92 $147 $239 $245 reversed $58 $-1 #
coedge $-1 $241 $246 $92 $150 forward $247 $-1 #
edge $-1 $248 -12.774683888914673 $249 -10.679237878200972 $149 $250 forward 7 unknown #
loop $-1 $-1 $156 $93 #
plane-surface $-1 -6.5709583196376258 7.0167058099862452 99.187896363283272 0.82903758062907751 0 0.55919289150049634 0.55919289150049634 0 -0.82903758062907751 forward_v I I I I #
loop $-1 $-1 $251 $60 #
coedge $-1 $154 $154 $155 $252 reversed $94 $-1 #
coedge $-1 $155 $155 $154 $252 forward $96 $-1 #
coedge $-1 $156 $156 $97 $157 forward $151 $-1 #
edge $-1 $253 0 $253 6.2831853071796004 $156 $254 forward 7 unknown #
face $-1 $255 $256 $33 $-1 $257 forward single #
loop $-1 $-1 $258 $98 #
plane-surface $-1 -126.85999303310726 -8.5086812721568315 88.843542595133002 0 -1 0 0.64278761758704617 0 -0.76604443648966558 forward_v I I I I #
coedge $-1 $259 $260 $261 $262 reversed $99 $-1 #
coedge $-1 $163 $101 $263 $264 reversed $64 $-1 #
coedge $-1 $101 $162 $259 $265 reversed $64 $-1 #
coedge $-1 $261 $266 $101 $165 forward $256 $-1 #
edge $-1 $267 7.9253729623680158 $268 15.621906786110699 $164 $269 forward 7 unknown #
loop $-1 $-1 $171 $102 #
plane-surface $-1 -55.504623554185628 -13.582362235700522 3.8055264488587284 -0.64278761758704617 0 0.76604443648966558 0.76604443648966558 0 0.64278761758704617 forward_v I I I I #
loop $-1 $-1 $270 $66 #
coedge $-1 $169 $169 $170 $271 reversed $103 $-1 #
coedge $-1 $170 $170 $169 $271 forward $105 $-1 #
coedge $-1 $171 $171 $106 $172 forward $166 $-1 #
edge $-1 $272 0 $272 6.2831853071796004 $171 $273 forward 7 unknown #
loop $-1 $-1 $178 $107 #
plane-surface $-1 -55.504623554185628 -13.582362235700522 3.8055264488587284 -0.64278761758704617 0 0.76604443648966558 0.76604443648966558 0 0.64278761758704617 forward_v I I I I #
loop $-1 $-1 $274 $69 #
coedge $-1 $176 $176 $177 $275 reversed $108 $-1 #
coedge $-1 $177 $177 $176 $275 forward $110 $-1 #
coedge $-1 $178 $178 $111 $179 forward $173 $-1 #
edge $-1 $276 0 $276 6.2831853071796004 $178 $277 forward 7 unknown #
face $-1 $278 $279 $27 $-1 $280 reversed single #
loop $-1 $-1 $281 $112 #
plane-surface $-1 -55.504623554185613 0 0 1 0 0 0 0 -1 forward_v I I I I #
coedge $-1 $282 $191 $283 $284 forward $113 $-1 #
coedge $-1 $285 $115 $282 $286 forward $73 $-1 #
coedge $-1 $115 $285 $287 $288 forward $73 $-1 #
coedge $-1 $194 $193 $115 $187 reversed $195 $-1 #
edge $-1 $289 -25.800748411609934 $290 25.800748411609934 $186 $291 forward 7 unknown #
coedge $-1 $117 $116 $292 $293 forward $46 $-1 #
coedge $-1 $294 $295 $116 $190 reversed $279 $-1 #
edge $-1 $197 -55.504623554185613 $296 55.504623554185613 $189 $297 forward 7 unknown #
coedge $-1 $183 $298 $117 $192 reversed $113 $-1 #
edge $-1 $299 -55.504623554185613 $196 55.504623554185613 $191 $300 forward 7 unknown #
coedge $-1 $186 $118 $298 $301 forward $195 $-1 #
coedge $-1 $118 $186 $294 $302 reversed $195 $-1 #
loop $-1 $-1 $193 $278 #
vertex $-1 $119 $303 #
vertex $-1 $119 $304 #
straight-curve $-1 55.504623554185613 0 10.263685276970559 0 1 0 I I #
face $-1 $305 $306 $28 $-1 $307 reversed single #
loop $-1 $-1 $205 $120 #
plane-surface $-1 55.504623554185613 0 0 -1 0 0 0 0 1 forward_v I I I I #
coedge $-1 $308 $309 $203 $310 forward $121 $-1 #
coedge $-1 $311 $123 $202 $310 reversed $77 $-1 #
coedge $-1 $123 $311 $124 $208 reversed $77 $-1 #
coedge $-1 $126 $312 $123 $206 forward $200 $-1 #
edge $-1 $313 -6.4872147927171424 $212 -1.065726175789691 $205 $314 forward 7 unknown #
coedge $-1 $125 $124 $315 $316 reversed $49 $-1 #
edge $-1 $212 -55.504623554185613 $317 55.504623554185613 $204 $318 forward 7 unknown #
coedge $-1 $319 $320 $125 $210 forward $306 $-1 #
edge $-1 $213 -55.504623554185613 $321 55.504623554185613 $209 $322 forward 7 unknown #
coedge $-1 $312 $126 $320 $323 forward $200 $-1 #
vertex $-1 $127 $324 #
vertex $-1 $323 $325 #
straight-curve $-1 55.504623554185613 -11.114197902713537 -4.8421966600431077 0 -1 0 I I #
face $-1 $-1 $227 $29 $-1 $326 forward single #
loop $-1 $-1 $327 $128 #
plane-surface $-1 55.504623554185613 0 0 -1 0 0 0 0 1 forward_v I I I I #
coedge $-1 $328 $329 $330 $331 reversed $129 $-1 #
coedge $-1 $332 $131 $133 $225 forward $81 $-1 #
coedge $-1 $131 $332 $328 $333 forward $81 $-1 #
coedge $-1 $330 $134 $131 $222 forward $227 $-1 #
edge $-1 $229 4.1614917939170315 $334 11.050198201523795 $221 $335 forward 7 unknown #
coedge $-1 $336 $337 $132 $224 forward $216 $-1 #
edge $-1 $338 -73.474680405449504 $228 -70.368053841582679 $223 $339 forward 7 unknown #
edge $-1 $229 107.26197842423093 $338 111.00924710837127 $133 $340 forward 7 unknown #
coedge $-1 $134 $330 $336 $341 forward $227 $-1 #
loop $-1 $-1 $330 $215 #
vertex $-1 $224 $342 #
vertex $-1 $135 $343 #
straight-curve $-1 42.72993966527094 -11.767336791637446 10.263685276970563 -1 0 0 I I #
coedge $-1 $231 $231 $-1 $344 reversed $138 $-1 #
edge $-1 $345 0 $345 6.2831853071796004 $139 $346 forward 7 unknown #
vertex $-1 $142 $347 #
ellipse-curve $-1 54.456900548828749 -15.211689995440828 8.7103719950371605 0.82903758062907751 0 0.55919289150049634 0.27959644575024817 0 -0.41451879031453875 1 I I #
face $-1 $-1 $247 $31 $-1 $348 forward single #
loop $-1 $-1 $349 $143 #
plane-surface $-1 55.504623554185613 0 0 -1 0 0 0 0 1 forward_v I I I I #
coedge $-1 $350 $351 $352 $353 reversed $144 $-1 #
coedge $-1 $354 $146 $148 $245 forward $90 $-1 #
coedge $-1 $146 $354 $350 $355 forward $90 $-1 #
coedge $-1 $352 $149 $146 $242 forward $247 $-1 #
edge $-1 $249 -6.9527061087965052 $356 -0.063999701189739966 $241 $357 forward 7 unknown #
coedge $-1 $358 $359 $147 $244 forward $236 $-1 #
edge $-1 $360 -73.474680405449504 $248 -70.368053841582679 $243 $361 forward 7 unknown #
edge $-1 $249 107.26197842423093 $360 111.00924710837127 $148 $362 forward 7 unknown #
coedge $-1 $149 $352 $358 $363 forward $247 $-1 #
loop $-1 $-1 $352 $235 #
vertex $-1 $244 $364 #
vertex $-1 $150 $365 #
straight-curve $-1 42.72993966527094 10.461059013789628 10.263685276970563 -1 0 0 I I #
coedge $-1 $251 $251 $-1 $366 reversed $153 $-1 #
edge $-1 $367 0 $367 6.2831853071796004 $154 $368 forward 7 unknown #
vertex $-1 $157 $369 #
ellipse-curve $-1 54.456900548828749 7.0167058099862452 8.7103719950371605 0.82903758062907751 0 0.55919289150049634 0.27959644575024817 0 -0.41451879031453875 1 I I #
face $-1 $-1 $370 $33 $-1 $371 reversed single #
loop $-1 $-1 $164 $158 #
plane-surface $-1 0 0 10.263685276970559 0 0 1 1 0 0 forward_v I I I I #
coedge $-1 $372 $373 $374 $375 reversed $159 $-1 #
coedge $-1 $376 $161 $163 $265 forward $99 $-1 #
coedge $-1 $161 $376 $372 $377 forward $99 $-1 #
coedge $-1 $374 $164 $161 $262 forward $256 $-1 #
edge $-1 $268 -11.864862081393952 $378 -1.7175001543065704 $261 $379 forward 7 unknown #
coedge $-1 $380 $381 $162 $264 forward $370 $-1 #
edge $-1 $382 -40.616244848707758 $267 -34.158086020595945 $263 $383 forward 7 unknown #
edge $-1 $268 -10.047111443053378 $382 -1.8593432412625586e-014 $163 $384 forward 7 unknown #
coedge $-1 $164 $374 $380 $385 forward $256 $-1 #
vertex $-1 $264 $386 #
vertex $-1 $165 $387 #
straight-curve $-1 -63.429996516553629 -18.656043199244213 10.263685276970556 1 0 0 I I #
coedge $-1 $270 $270 $-1 $388 reversed $168 $-1 #
edge $-1 $389 0 $389 6.2831853071796004 $169 $390 forward 7 unknown #
vertex $-1 $172 $391 #
ellipse-curve $-1 -51.656356642314272 -15.756796934362102 7.0346058629146526 -0.64278761758704617 0 0.76604443648966558 0.76604443648966558 0 0.64278761758704617 1 I I #
coedge $-1 $274 $274 $-1 $392 reversed $175 $-1 #
edge $-1 $393 0 $393 6.2831853071796004 $176 $394 forward 7 unknown #
vertex $-1 $179 $395 #
ellipse-curve $-1 -51.656356642314272 -11.40792753703894 7.0346058629146526 -0.64278761758704617 0 0.76604443648966558 0.76604443648966558 0 0.64278761758704617 1 I I #
face $-1 $-1 $195 $27 $-1 $396 reversed single #
loop $-1 $-1 $294 $180 #
plane-surface $-1 0 25.800748411609934 0 0 -1 0 0 0 -1 forward_v I I I I #
coedge $-1 $397 $292 $295 $398 forward $181 $-1 #
coedge $-1 $298 $183 $184 $286 reversed $113 $-1 #
coedge $-1 $292 $397 $183 $284 reversed $181 $-1 #
edge $-1 $299 -10.263685276970559 $399 10.263685276970559 $283 $400 forward 7 unknown #
coedge $-1 $185 $184 $397 $401 forward $73 $-1 #
edge $-1 $290 -55.504623554185613 $399 55.504623554185613 $282 $402 forward 7 unknown #
coedge $-1 $295 $294 $185 $288 reversed $279 $-1 #
edge $-1 $403 -55.504623554185613 $289 55.504623554185613 $287 $404 forward 7 unknown #
vertex $-1 $187 $405 #
vertex $-1 $301 $406 #
straight-curve $-1 55.504623554185613 0 -10.263685276970559 0 -1 0 I I #
coedge $-1 $281 $283 $188 $293 reversed $181 $-1 #
edge $-1 $296 -25.800748411609934 $299 25.800748411609934 $292 $407 forward 7 unknown #
coedge $-1 $287 $189 $194 $302 forward $279 $-1 #
coedge $-1 $189 $287 $281 $398 reversed $279 $-1 #
vertex $-1 $190 $408 #
straight-curve $-1 0 25.800748411609934 10.263685276970559 -1 0 0 I I #
coedge $-1 $191 $282 $193 $301 reversed $113 $-1 #
vertex $-1 $293 $409 #
straight-curve $-1 0 -25.800748411609934 10.263685276970559 1 0 0 I I #
edge $-1 $196 -10.263685276970559 $290 10.263685276970559 $193 $410 forward 7 unknown #
edge $-1 $197 -10.263685276970559 $289 10.263685276970559 $194 $411 forward 7 unknown #
point $-1 55.504623554185613 -25.800748411609934 10.263685276970559 #
point $-1 55.504623554185613 25.800748411609934 10.263685276970559 #
face $-1 $-1 $412 $28 $-1 $413 reversed single #
loop $-1 $-1 $209 $199 #
plane-surface $-1 0 -25.800748411609934 0 0 1 0 0 0 1 forward_v I I I I #
coedge $-1 $414 $202 $312 $415 forward $121 $-1 #
coedge $-1 $202 $414 $416 $417 forward $121 $-1 #
edge $-1 $418 -55.504623554185613 $313 55.504623554185613 $202 $419 forward 7 unknown #
coedge $-1 $204 $203 $420 $421 reversed $77 $-1 #
coedge $-1 $205 $211 $308 $415 reversed $200 $-1 #
vertex $-1 $415 $422 #
straight-curve $-1 55.504623554185613 -18.656043199244213 -3.7764704842534167 0 0 1 I I #
coedge $-1 $420 $423 $207 $316 forward $412 $-1 #
edge $-1 $321 -14.686550508896397 $317 -7.5418452965306759 $315 $424 forward 7 unknown #
vertex $-1 $316 $425 #
straight-curve $-1 0 -18.656043199244213 -4.8421966600431077 -1 0 0 I I #
coedge $-1 $426 $209 $423 $427 forward $306 $-1 #
coedge $-1 $209 $426 $211 $323 reversed $306 $-1 #
vertex $-1 $427 $428 #
straight-curve $-1 0 -25.800748411609934 -4.8421966600431077 -1 0 0 I I #
edge $-1 $213 4.8421966600431077 $429 10.263685276970559 $211 $430 forward 7 unknown #
point $-1 55.504623554185613 -18.656043199244213 -4.8421966600431077 #
point $-1 55.504623554185613 -25.800748411609934 -4.8421966600431077 #
plane-surface $-1 0 0 10.263685276970559 0 0 1 1 0 0 forward_v I I I I #
coedge $-1 $337 $336 $329 $431 forward $216 $-1 #
coedge $-1 $329 $218 $220 $333 reversed $129 $-1 #
coedge $-1 $218 $328 $327 $431 reversed $129 $-1 #
coedge $-1 $226 $221 $218 $331 forward $227 $-1 #
edge $-1 $334 10.679237878200972 $432 12.774683888914673 $330 $433 forward 7 unknown #
coedge $-1 $220 $219 $337 $434 reversed $81 $-1 #
edge $-1 $435 -111.00924710837127 $334 -107.26197842423093 $328 $436 forward 7 unknown #
vertex $-1 $222 $437 #
straight-curve $-1 53.409177543471912 -7.6058449977204141 10.263685276970563 0 -1 0 I I #
coedge $-1 $327 $223 $226 $341 reversed $216 $-1 #
coedge $-1 $223 $327 $332 $434 forward $216 $-1 #
vertex $-1 $224 $438 #
straight-curve $-1 55.504623554185613 -11.767336791637446 80.631739118553241 0 0 1 I I #
straight-curve $-1 -6.5709583196376258 -11.767336791637446 99.187896363283272 0.55919289150049634 0 -0.82903758062907751 I I #
edge $-1 $432 -18.656043199244209 $228 -11.767336791637446 $336 $439 forward 7 unknown #
point $-1 55.504623554185613 -11.767336791637446 10.263685276970559 #
point $-1 53.409177543471912 -11.767336791637446 10.263685276970563 #
edge $-1 $440 1 $440 0 $231 $-1 forward 7 unknown #
vertex $-1 $232 $441 #
ellipse-curve $-1 53.201718372401011 -15.211689995440828 7.8637409532164488 0.82903758062907751 0 0.55919289150049634 0.27959644575024817 0 -0.41451879031453875 1 I I #
point $-1 54.736496994579021 -15.211689995440828 8.2958532047226328 #
plane-surface $-1 0 0 10.263685276970559 0 0 1 1 0 0 forward_v I I I I #
coedge $-1 $359 $358 $351 $442 forward $236 $-1 #
coedge $-1 $351 $238 $240 $355 reversed $144 $-1 #
coedge $-1 $238 $350 $349 $442 reversed $144 $-1 #
coedge $-1 $246 $241 $238 $353 forward $247 $-1 #
edge $-1 $356 10.679237878200972 $443 12.774683888914673 $352 $444 forward 7 unknown #
coedge $-1 $240 $239 $359 $445 reversed $90 $-1 #
edge $-1 $446 -111.00924710837127 $356 -107.26197842423093 $350 $447 forward 7 unknown #
vertex $-1 $242 $448 #
straight-curve $-1 53.409177543471912 3.5083529049931226 10.263685276970563 0 -1 0 I I #
coedge $-1 $349 $243 $246 $363 reversed $236 $-1 #
coedge $-1 $243 $349 $354 $445 forward $236 $-1 #
vertex $-1 $244 $449 #
straight-curve $-1 55.504623554185613 10.461059013789628 80.631739118553241 0 0 1 I I #
straight-curve $-1 -6.5709583196376258 10.461059013789628 99.187896363283272 0.55919289150049634 0 -0.82903758062907751 I I #
edge $-1 $443 3.5723526061828625 $248 10.461059013789628 $358 $450 forward 7 unknown #
point $-1 55.504623554185613 10.461059013789628 10.263685276970559 #
point $-1 53.409177543471912 10.461059013789628 10.263685276970563 #
edge $-1 $451 1 $451 0 $251 $-1 forward 7 unknown #
vertex $-1 $252 $452 #
ellipse-curve $-1 53.201718372401011 7.0167058099862452 7.8637409532164488 0.82903758062907751 0 0.55919289150049634 0.27959644575024817 0 -0.41451879031453875 1 I I #
point $-1 54.736496994579021 7.0167058099862452 8.2958532047226328 #
loop $-1 $-1 $263 $255 #
plane-surface $-1 -55.504623554185613 0 0 1 0 0 0 0 -1 forward_v I I I I #
coedge $-1 $373 $258 $260 $377 reversed $159 $-1 #
coedge $-1 $258 $372 $453 $454 reversed $159 $-1 #
coedge $-1 $266 $261 $258 $375 forward $256 $-1 #
edge $-1 $378 -15.621906786110699 $455 -7.9253729623680158 $374 $456 forward 7 unknown #
coedge $-1 $260 $259 $381 $457 reversed $99 $-1 #
edge $-1 $458 1.8593432412625586e-014 $378 10.047111443053378 $372 $459 forward 7 unknown #
vertex $-1 $262 $460 #
straight-curve $-1 -47.80808973044293 -6.791181117850261 10.263685276970559 0 1 0 I I #
coedge $-1 $453 $263 $266 $385 reversed $370 $-1 #
coedge $-1 $263 $453 $376 $457 forward $370 $-1 #
vertex $-1 $264 $461 #
straight-curve $-1 -55.504623554185613 -18.656043199244213 44.421771297566501 0 0 1 I I #
straight-curve $-1 -55.504623554185628 -18.656043199244213 3.8055264488587284 -0.76604443648966558 0 -0.64278761758704617 I I #
edge $-1 $455 8.5086812721568315 $267 18.656043199244213 $380 $462 forward 7 unknown #
point $-1 -55.504623554185613 -18.656043199244213 10.263685276970559 #
point $-1 -47.80808973044293 -18.656043199244213 10.263685276970559 #
edge $-1 $463 1 $463 0 $270 $-1 forward 7 unknown #
vertex $-1 $271 $464 #
ellipse-curve $-1 -49.773583511629361 -15.756796934362102 4.7908042673774016 -0.64278761758704617 0 0.76604443648966558 0.76604443648966558 0 0.64278761758704617 1 I I #
point $-1 -50.890312205824593 -15.756796934362102 7.6773934805016841 #
edge $-1 $465 1 $465 0 $274 $-1 forward 7 unknown #
vertex $-1 $275 $466 #
ellipse-curve $-1 -49.773583511629361 -11.40792753703894 4.7908042673774016 -0.64278761758704617 0 0.76604443648966558 0.76604443648966558 0 0.64278761758704617 1 I I #
point $-1 -50.890312205824593 -11.40792753703894 7.6773934805016841 #
plane-surface $-1 55.504623554185613 0 0 -1 0 0 0 0 1 forward_v I I I I #
coedge $-1 $283 $281 $285 $401 reversed $181 $-1 #
edge $-1 $296 -10.263685276970559 $403 10.263685276970559 $295 $467 forward 7 unknown #
vertex $-1 $401 $468 #
straight-curve $-1 -55.504623554185613 -25.800748411609934 0 0 0 -1 I I #
edge $-1 $399 -25.800748411609934 $403 25.800748411609934 $397 $469 forward 7 unknown #
straight-curve $-1 0 -25.800748411609934 -10.263685276970559 -1 0 0 I I #
vertex $-1 $288 $470 #
straight-curve $-1 0 25.800748411609934 -10.263685276970559 1 0 0 I I #
point $-1 55.504623554185613 25.800748411609934 -10.263685276970559 #
point $-1 55.504623554185613 -25.800748411609934 -10.263685276970559 #
straight-curve $-1 -55.504623554185613 0 10.263685276970559 0 -1 0 I I #
point $-1 -55.504623554185613 25.800748411609934 10.263685276970559 #
point $-1 -55.504623554185613 -25.800748411609934 10.263685276970559 #
straight-curve $-1 55.504623554185613 -25.800748411609934 0 0 0 -1 I I #
straight-curve $-1 55.504623554185613 25.800748411609934 0 0 0 -1 I I #
loop $-1 $-1 $420 $305 #
plane-surface $-1 -55.504623554185613 0 0 1 0 0 0 0 -1 forward_v I I I I #
coedge $-1 $309 $308 $426 $471 forward $121 $-1 #
edge $-1 $313 18.656043199244213 $429 25.800748411609934 $312 $472 forward 7 unknown #
coedge $-1 $423 $420 $309 $417 reversed $412 $-1 #
edge $-1 $473 -25.800748411609934 $418 -18.656043199244213 $416 $474 forward 7 unknown #
vertex $-1 $421 $475 #
straight-curve $-1 0 -18.656043199244213 -10.263685276970559 1 0 0 I I #
coedge $-1 $416 $315 $311 $421 forward $412 $-1 #
edge $-1 $317 1.065726175789691 $418 6.4872147927171424 $420 $476 forward 7 unknown #
point $-1 55.504623554185613 -18.656043199244213 -10.263685276970559 #
coedge $-1 $315 $416 $319 $427 reversed $412 $-1 #
straight-curve $-1 -55.504623554185613 -11.114197902713537 -4.8421966600431077 0 1 0 I I #
point $-1 -55.504623554185613 -18.656043199244213 -4.8421966600431077 #
coedge $-1 $320 $319 $414 $471 reversed $306 $-1 #
edge $-1 $321 4.8421966600431077 $473 10.263685276970559 $423 $477 forward 7 unknown #
point $-1 -55.504623554185613 -25.800748411609934 -4.8421966600431077 #
vertex $-1 $323 $478 #
straight-curve $-1 55.504623554185613 -25.800748411609934 0 0 0 -1 I I #
edge $-1 $432 70.368053841582679 $435 73.474680405449504 $327 $479 forward 7 unknown #
vertex $-1 $341 $480 #
straight-curve $-1 42.72993966527094 -18.656043199244209 10.263685276970563 1 0 0 I I #
edge $-1 $435 -11.050198201523795 $338 -4.1614917939170315 $337 $481 forward 7 unknown #
vertex $-1 $434 $482 #
straight-curve $-1 -6.5709583196376258 -18.656043199244209 99.187896363283272 -0.55919289150049634 0 0.82903758062907751 I I #
point $-1 53.409177543471912 -18.656043199244209 10.263685276970563 #
point $-1 55.504623554185613 -11.767336791637446 7.1570587131037371 #
straight-curve $-1 55.504623554185613 0 10.263685276970559 0 1 0 I I #
vertex $-1 $344 $483 #
point $-1 53.481314818151255 -15.211689995440828 7.4492221629019095 #
edge $-1 $443 70.368053841582679 $446 73.474680405449504 $349 $484 forward 7 unknown #
vertex $-1 $363 $485 #
straight-curve $-1 42.72993966527094 3.5723526061828625 10.263685276970563 1 0 0 I I #
edge $-1 $446 0.063999701189739966 $360 6.9527061087965052 $359 $486 forward 7 unknown #
vertex $-1 $445 $487 #
straight-curve $-1 -6.5709583196376258 3.5723526061828625 99.187896363283272 -0.55919289150049634 0 0.82903758062907751 I I #
point $-1 53.409177543471912 3.5723526061828625 10.263685276970563 #
point $-1 55.504623554185613 10.461059013789628 7.1570587131037371 #
straight-curve $-1 55.504623554185613 0 10.263685276970559 0 1 0 I I #
vertex $-1 $366 $488 #
point $-1 53.481314818151255 7.0167058099862452 7.4492221629019095 #
coedge $-1 $381 $380 $373 $454 forward $370 $-1 #
edge $-1 $455 34.158086020595945 $458 40.616244848707758 $453 $489 forward 7 unknown #
vertex $-1 $385 $490 #
straight-curve $-1 -63.429996516553629 -8.5086812721568315 10.263685276970556 -1 0 0 I I #
edge $-1 $458 1.7175001543065704 $382 11.864862081393952 $381 $491 forward 7 unknown #
vertex $-1 $457 $492 #
straight-curve $-1 -55.504623554185628 -8.5086812721568315 3.8055264488587284 0.76604443648966558 0 0.64278761758704617 I I #
point $-1 -47.80808973044293 -8.5086812721568315 10.263685276970559 #
point $-1 -55.504623554185613 -18.656043199244213 3.8055264488587404 #
straight-curve $-1 -55.504623554185613 0 10.263685276970559 0 -1 0 I I #
vertex $-1 $388 $493 #
point $-1 -49.007539075139697 -15.756796934362102 5.4335918849644482 #
vertex $-1 $392 $494 #
point $-1 -49.007539075139697 -11.40792753703894 5.4335918849644482 #
straight-curve $-1 -55.504623554185613 25.800748411609934 0 0 0 -1 I I #
point $-1 -55.504623554185613 -25.800748411609934 -10.263685276970559 #
straight-curve $-1 -55.504623554185613 0 -10.263685276970559 0 1 0 I I #
point $-1 -55.504623554185613 25.800748411609934 -10.263685276970559 #
edge $-1 $429 -55.504623554185613 $473 55.504623554185613 $426 $495 forward 7 unknown #
straight-curve $-1 55.504623554185613 0 -10.263685276970559 0 -1 0 I I #
vertex $-1 $417 $496 #
straight-curve $-1 -55.504623554185613 0 -10.263685276970559 0 1 0 I I #
point $-1 -55.504623554185613 -18.656043199244213 -10.263685276970559 #
straight-curve $-1 -55.504623554185613 -18.656043199244213 -3.7764704842534167 0 0 -1 I I #
straight-curve $-1 -55.504623554185613 -25.800748411609934 0 0 0 -1 I I #
point $-1 55.504623554185613 -25.800748411609934 -10.263685276970559 #
straight-curve $-1 55.504623554185613 -18.656043199244209 80.631739118553241 0 0 -1 I I #
point $-1 55.504623554185613 -18.656043199244209 10.263685276970559 #
straight-curve $-1 55.504623554185613 -7.6058449977204141 7.1570587131037371 0 1 0 I I #
point $-1 55.504623554185613 -18.656043199244209 7.1570587131037371 #
point $-1 52.787199582086465 -15.211689995440828 7.5841445074661999 #
straight-curve $-1 55.504623554185613 3.5723526061828625 80.631739118553241 0 0 -1 I I #
point $-1 55.504623554185613 3.5723526061828625 10.263685276970559 #
straight-curve $-1 55.504623554185613 3.5083529049931226 7.1570587131037371 0 1 0 I I #
point $-1 55.504623554185613 3.5723526061828625 7.1570587131037371 #
point $-1 52.787199582086465 7.0167058099862452 7.5841445074661999 #
straight-curve $-1 -55.504623554185613 -8.5086812721568315 44.421771297566501 0 0 -1 I I #
point $-1 -55.504623554185613 -8.5086812721568315 10.263685276970559 #
straight-curve $-1 -55.504623554185613 -6.791181117850261 3.8055264488587395 0 -1 0 I I #
point $-1 -55.504623554185613 -8.5086812721568315 3.8055264488587404 #
point $-1 -49.130795894042315 -15.756796934362102 4.0247598308877368 #
point $-1 -49.130795894042315 -11.40792753703894 4.0247598308877368 #
straight-curve $-1 0 -25.800748411609934 -10.263685276970559 -1 0 0 I I #
point $-1 -55.504623554185613 -25.800748411609934 -10.263685276970559 #
End-of-ACIS-data 