500 0 5 0           
7 Unknown 11 ACIS 5.0 NT 24 Thu Mar 25 15:56:18 1999 
-1 9.9999999999999995e-007 1e-010 
body $-1 $5 $-1 $6 #
body $-1 $7 $-1 $8 #
body $-1 $9 $-1 $10 #
body $-1 $11 $-1 $12 #
body $-1 $13 $-1 $14 #
lump $-1 $-1 $15 $0 #
transform $-1 1 0 0 0 1 0 0 0 1 75.123142185735645 33.527430616473268 10.506905546077377 1 rotate no_reflect no_shear #
lump $-1 $-1 $16 $1 #
transform $-1 1 0 0 0 1 0 0 0 1 75.123142185735645 33.527430616473268 10.506905546077377 1 rotate no_reflect no_shear #
lump $-1 $-1 $17 $2 #
transform $-1 1 0 0 0 1 0 0 0 1 75.123142185735645 33.527430616473268 10.506905546077377 1 rotate no_reflect no_shear #
lump $-1 $-1 $18 $3 #
transform $-1 1 0 0 0 1 0 0 0 1 75.123142185735645 33.527430616473268 10.506905546077377 1 rotate no_reflect no_shear #
lump $-1 $-1 $19 $4 #
transform $-1 1 0 0 0 1 0 0 0 1 75.123142185735645 33.527430616473268 10.506905546077377 1 rotate no_reflect no_shear #
shell $-1 $-1 $-1 $20 $-1 $5 #
shell $-1 $-1 $-1 $21 $-1 $7 #
shell $-1 $-1 $-1 $22 $-1 $9 #
shell $-1 $-1 $-1 $23 $-1 $11 #
shell $-1 $-1 $-1 $24 $-1 $13 #
face $-1 $25 $26 $15 $-1 $27 forward single #
face $-1 $28 $29 $16 $-1 $30 reversed single #
face $-1 $31 $32 $17 $-1 $33 forward single #
face $-1 $34 $35 $18 $-1 $36 reversed single #
face $-1 $37 $38 $19 $-1 $39 reversed single #
face $-1 $40 $41 $15 $-1 $42 reversed single #
loop $-1 $-1 $43 $20 #
plane-surface $-1 0 0 10.506905546077377 0 0 1 1 0 0 forward_v I I I I #
face $-1 $44 $45 $16 $-1 $46 forward single #
loop $-1 $-1 $47 $21 #
plane-surface $-1 0 -29.720905107302954 -1.8785172907753847 0 0 1 1 0 0 forward_v I I I I #
face $-1 $48 $49 $17 $-1 $50 forward single #
loop $-1 $-1 $51 $22 #
plane-surface $-1 -181.36330994554237 4.2607842853142728 113.47306775719018 0 1 0 -0.70710678939079041 0 0.70710677298230451 forward_v I I I I #
face $-1 $52 $53 $18 $-1 $54 reversed single #
loop $-1 $55 $56 $23 #
cone-surface $-1 -73.132587287337088 7.4349925206119991 8.5163506178962862 0.70710678939079041 0 -0.70710677298230451 0.35355338649115226 0 0.35355339469539521 1 I I 0 1 0.5 forward I I I I #
face $-1 $57 $58 $19 $-1 $59 reversed single #
loop $-1 $60 $61 $24 #
cone-surface $-1 -73.132587287337088 12.196304873558589 8.5163506178962862 0.70710678939079041 0 -0.70710677298230451 0.35355338649115226 0 0.35355339469539521 1 I I 0 1 0.5 forward I I I I #
face $-1 $62 $63 $15 $-1 $64 reversed single #
loop $-1 $-1 $65 $25 #
plane-surface $-1 0 0 -10.506905546077377 0 0 1 1 0 0 forward_v I I I I #
coedge $-1 $66 $67 $68 $69 forward $26 $-1 #
face $-1 $70 $71 $16 $-1 $72 forward single #
loop $-1 $-1 $73 $28 #
plane-surface $-1 0 -29.720905107302954 -4.8785172907753847 0 0 1 1 0 0 forward_v I I I I #
coedge $-1 $74 $75 $76 $77 reversed $29 $-1 #
face $-1 $78 $79 $17 $-1 $80 forward single #
loop $-1 $-1 $81 $31 #
plane-surface $-1 -75.123142185735617 9.8156486970852939 7.2329024626974672 -0.70710678939079041 0 0.70710677298230451 0.70710677298230451 0 0.70710678939079041 forward_v I I I I #
coedge $-1 $82 $83 $84 $85 reversed $32 $-1 #
face $-1 $86 $87 $18 $-1 $88 forward single #
loop $-1 $89 $90 $34 #
cone-surface $-1 -72.602257195294001 7.4349925206119991 7.9860205381595577 0.70710678939079041 0 -0.70710677298230451 0.17677669324557613 0 0.1767766973476976 1 I I -0.70710678118654746 0.70710678118654746 0.25 forward I I I I #
loop $-1 $-1 $91 $23 #
coedge $-1 $56 $56 $92 $93 reversed $35 $-1 #
face $-1 $94 $95 $19 $-1 $96 reversed single #
loop $-1 $97 $98 $37 #
cone-surface $-1 -72.602257195294001 12.196304873558589 7.9860205381595577 0.70710678939079041 0 -0.70710677298230451 0.17677669324557613 0 0.1767766973476976 1 I I -0.70710678118654746 0.70710678118654746 0.25 forward I I I I #
loop $-1 $-1 $99 $24 #
coedge $-1 $61 $61 $100 $101 reversed $38 $-1 #
face $-1 $102 $103 $15 $-1 $104 reversed single #
loop $-1 $-1 $105 $40 #
plane-surface $-1 0 -33.527430616473268 0 0 1 0 0 0 1 forward_v I I I I #
coedge $-1 $106 $107 $108 $109 forward $41 $-1 #
coedge $-1 $110 $43 $111 $112 forward $26 $-1 #
coedge $-1 $43 $110 $113 $114 forward $26 $-1 #
coedge $-1 $115 $116 $43 $69 reversed $117 $-1 #
edge $-1 $118 -33.527430616473268 $119 33.527430616473268 $68 $120 forward 7 unknown #
face $-1 $121 $122 $16 $-1 $123 reversed single #
loop $-1 $-1 $124 $44 #
plane-surface $-1 0 -25.914379598132641 -3.3785172907753847 0 -1 0 0 0 -1 forward_v I I I I #
coedge $-1 $125 $126 $127 $128 reversed $45 $-1 #
coedge $-1 $129 $47 $130 $131 reversed $29 $-1 #
coedge $-1 $47 $129 $132 $133 reversed $29 $-1 #
coedge $-1 $134 $135 $47 $77 forward $122 $-1 #
edge $-1 $136 -18.666978062821791 $137 -11.053927044481163 $76 $138 forward 7 unknown #
face $-1 $139 $140 $17 $-1 $141 forward single #
loop $-1 $-1 $142 $48 #
plane-surface $-1 -181.36330994554237 15.370513108856315 113.47306775719018 0 -1 0 0.70710678939079041 0 -0.70710677298230451 forward_v I I I I #
coedge $-1 $143 $144 $145 $146 reversed $49 $-1 #
coedge $-1 $83 $51 $144 $147 forward $32 $-1 #
coedge $-1 $51 $82 $148 $149 reversed $32 $-1 #
coedge $-1 $150 $145 $51 $85 forward $140 $-1 #
edge $-1 $151 -18.832515794441903 $152 -15.558512787035539 $84 $153 forward 7 unknown #
face $-1 $154 $155 $18 $-1 $156 forward single #
loop $-1 $-1 $157 $52 #
plane-surface $-1 -181.36330994554237 4.2607842853142728 113.47306775719018 0 1 0 -0.70710678939079041 0 0.70710677298230451 forward_v I I I I #
loop $-1 $-1 $158 $34 #
coedge $-1 $90 $90 $91 $159 forward $53 $-1 #
coedge $-1 $91 $91 $90 $159 reversed $55 $-1 #
coedge $-1 $92 $92 $56 $93 forward $155 $-1 #
edge $-1 $160 0 $160 6.2831853071796004 $92 $161 forward 7 unknown #
face $-1 $162 $163 $19 $-1 $164 reversed single #
loop $-1 $165 $166 $57 #
cone-surface $-1 -73.132587287337088 7.4349925206119991 8.5163506178962862 0.70710678939079041 0 -0.70710677298230451 0.35355338649115226 0 0.35355339469539521 1 I I 0 1 0.5 forward I I I I #
loop $-1 $-1 $167 $37 #
coedge $-1 $98 $98 $99 $168 forward $58 $-1 #
coedge $-1 $99 $99 $98 $168 reversed $60 $-1 #
coedge $-1 $100 $100 $61 $101 forward $169 $-1 #
edge $-1 $170 0 $170 6.2831853071796004 $100 $171 forward 7 unknown #
face $-1 $172 $173 $15 $-1 $174 reversed single #
loop $-1 $-1 $175 $62 #
plane-surface $-1 -75.123142185735645 0 0 1 0 0 0 0 -1 forward_v I I I I #
coedge $-1 $176 $113 $177 $178 forward $63 $-1 #
coedge $-1 $179 $65 $176 $180 forward $41 $-1 #
coedge $-1 $65 $179 $181 $182 forward $41 $-1 #
coedge $-1 $116 $115 $65 $109 reversed $117 $-1 #
edge $-1 $183 -33.527430616473268 $184 33.527430616473268 $108 $185 forward 7 unknown #
coedge $-1 $67 $66 $186 $187 forward $26 $-1 #
coedge $-1 $188 $189 $66 $112 reversed $173 $-1 #
edge $-1 $119 -75.123142185735645 $190 75.123142185735645 $111 $191 forward 7 unknown #
coedge $-1 $105 $192 $67 $114 reversed $63 $-1 #
edge $-1 $193 -75.123142185735645 $118 75.123142185735645 $113 $194 forward 7 unknown #
coedge $-1 $108 $68 $192 $195 forward $117 $-1 #
coedge $-1 $68 $108 $188 $196 reversed $117 $-1 #
loop $-1 $-1 $115 $172 #
vertex $-1 $69 $197 #
vertex $-1 $69 $198 #
straight-curve $-1 75.123142185735645 0 10.506905546077377 0 1 0 I I #
face $-1 $199 $200 $16 $-1 $201 reversed single #
loop $-1 $-1 $76 $70 #
plane-surface $-1 75.123142185735645 0 0 -1 0 0 0 0 1 forward_v I I I I #
coedge $-1 $132 $202 $134 $203 reversed $71 $-1 #
coedge $-1 $204 $73 $202 $205 reversed $45 $-1 #
coedge $-1 $73 $204 $206 $207 reversed $45 $-1 #
coedge $-1 $208 $134 $73 $128 forward $122 $-1 #
edge $-1 $209 11.053927044481163 $210 18.666978062821791 $127 $211 forward 7 unknown #
coedge $-1 $75 $74 $212 $213 reversed $29 $-1 #
coedge $-1 $214 $215 $74 $131 forward $216 $-1 #
edge $-1 $217 -75.123142185735645 $136 75.123142185735645 $130 $218 forward 7 unknown #
coedge $-1 $219 $124 $75 $133 forward $71 $-1 #
edge $-1 $137 -75.123142185735645 $220 75.123142185735645 $132 $221 forward 7 unknown #
coedge $-1 $127 $76 $124 $203 forward $122 $-1 #
coedge $-1 $76 $222 $214 $223 forward $122 $-1 #
vertex $-1 $131 $224 #
vertex $-1 $77 $225 #
straight-curve $-1 75.123142185735645 -14.860452553651477 -1.8785172907753847 0 1 0 I I #
face $-1 $226 $227 $17 $-1 $228 reversed single #
loop $-1 $-1 $229 $78 #
plane-surface $-1 0 0 10.506905546077377 0 0 1 1 0 0 forward_v I I I I #
coedge $-1 $230 $231 $229 $232 reversed $79 $-1 #
coedge $-1 $233 $81 $231 $234 reversed $49 $-1 #
coedge $-1 $81 $233 $82 $147 reversed $49 $-1 #
coedge $-1 $84 $229 $81 $146 forward $140 $-1 #
edge $-1 $235 -10.462688760313668 $151 0.64704006322837415 $145 $236 forward 7 unknown #
edge $-1 $151 -4.6301395100457716 $237 4.0194366942304651e-014 $82 $238 forward 7 unknown #
coedge $-1 $239 $240 $83 $149 forward $241 $-1 #
edge $-1 $152 46.229628332517713 $237 49.503631415897651 $148 $242 forward 7 unknown #
coedge $-1 $243 $84 $240 $244 forward $140 $-1 #
vertex $-1 $146 $245 #
vertex $-1 $244 $246 #
straight-curve $-1 -90.681654972771184 4.2607842853142728 10.506905546077377 -1 0 0 I I #
face $-1 $247 $248 $18 $-1 $249 forward single #
loop $-1 $250 $92 $86 #
plane-surface $-1 -75.123142185735617 9.8156486970852939 7.2329024626974672 -0.70710678939079041 0 0.70710677298230451 0.70710677298230451 0 0.70710678939079041 forward_v I I I I #
coedge $-1 $251 $252 $253 $254 reversed $87 $-1 #
coedge $-1 $158 $158 $-1 $255 forward $89 $-1 #
edge $-1 $256 0 $256 6.2831853071796004 $90 $257 forward 7 unknown #
vertex $-1 $93 $258 #
ellipse-curve $-1 -73.486140682032456 7.4349925206119991 8.8699040043874149 0.70710678939079041 0 -0.70710677298230451 0.35355338649115226 0 0.35355339469539521 1 I I #
face $-1 $259 $260 $19 $-1 $261 forward single #
loop $-1 $262 $263 $94 #
cone-surface $-1 -72.602257195294001 7.4349925206119991 7.9860205381595577 0.70710678939079041 0 -0.70710677298230451 0.17677669324557613 0 0.1767766973476976 1 I I -0.70710678118654746 0.70710678118654746 0.25 forward I I I I #
loop $-1 $-1 $264 $57 #
coedge $-1 $166 $166 $265 $266 reversed $95 $-1 #
coedge $-1 $167 $167 $-1 $267 forward $97 $-1 #
edge $-1 $268 0 $268 6.2831853071796004 $98 $269 forward 7 unknown #
loop $-1 $270 $100 $259 #
vertex $-1 $101 $271 #
ellipse-curve $-1 -73.486140682032456 12.196304873558589 8.8699040043874149 0.70710678939079041 0 -0.70710677298230451 0.35355338649115226 0 0.35355339469539521 1 I I #
face $-1 $-1 $117 $15 $-1 $272 reversed single #
loop $-1 $-1 $188 $102 #
plane-surface $-1 0 33.527430616473268 0 0 -1 0 0 0 -1 forward_v I I I I #
coedge $-1 $273 $186 $189 $274 forward $103 $-1 #
coedge $-1 $192 $105 $106 $180 reversed $63 $-1 #
coedge $-1 $186 $273 $105 $178 reversed $103 $-1 #
edge $-1 $193 -10.506905546077377 $275 10.506905546077377 $177 $276 forward 7 unknown #
coedge $-1 $107 $106 $273 $277 forward $41 $-1 #
edge $-1 $184 -75.123142185735645 $275 75.123142185735645 $176 $278 forward 7 unknown #
coedge $-1 $189 $188 $107 $182 reversed $173 $-1 #
edge $-1 $279 -75.123142185735645 $183 75.123142185735645 $181 $280 forward 7 unknown #
vertex $-1 $109 $281 #
vertex $-1 $195 $282 #
straight-curve $-1 75.123142185735645 0 -10.506905546077377 0 -1 0 I I #
coedge $-1 $175 $177 $110 $187 reversed $103 $-1 #
edge $-1 $190 -33.527430616473268 $193 33.527430616473268 $186 $283 forward 7 unknown #
coedge $-1 $181 $111 $116 $196 forward $173 $-1 #
coedge $-1 $111 $181 $175 $274 reversed $173 $-1 #
vertex $-1 $112 $284 #
straight-curve $-1 0 33.527430616473268 10.506905546077377 -1 0 0 I I #
coedge $-1 $113 $176 $115 $195 reversed $63 $-1 #
vertex $-1 $187 $285 #
straight-curve $-1 0 -33.527430616473268 10.506905546077377 1 0 0 I I #
edge $-1 $118 -10.506905546077377 $184 10.506905546077377 $115 $286 forward 7 unknown #
edge $-1 $119 -10.506905546077377 $183 10.506905546077377 $116 $287 forward 7 unknown #
point $-1 75.123142185735645 -33.527430616473268 10.506905546077377 #
point $-1 75.123142185735645 33.527430616473268 10.506905546077377 #
face $-1 $288 $289 $16 $-1 $290 forward single #
loop $-1 $-1 $206 $121 #
plane-surface $-1 0 -33.527430616473268 0 0 1 0 0 0 1 forward_v I I I I #
coedge $-1 $124 $219 $125 $205 forward $71 $-1 #
edge $-1 $137 0.18925864538769233 $209 3.1892586453876923 $134 $291 forward 7 unknown #
coedge $-1 $126 $125 $292 $293 reversed $45 $-1 #
edge $-1 $294 -75.123142185735645 $209 75.123142185735645 $202 $295 forward 7 unknown #
coedge $-1 $296 $297 $126 $207 forward $200 $-1 #
edge $-1 $210 -75.123142185735645 $298 75.123142185735645 $206 $299 forward 7 unknown #
coedge $-1 $300 $127 $297 $301 forward $122 $-1 #
vertex $-1 $128 $302 #
vertex $-1 $301 $303 #
straight-curve $-1 75.123142185735645 -14.860452553651477 -4.8785172907753847 0 -1 0 I I #
coedge $-1 $304 $305 $129 $213 forward $306 $-1 #
edge $-1 $220 11.053927044481163 $217 18.666978062821791 $212 $307 forward 7 unknown #
coedge $-1 $308 $130 $135 $223 reversed $216 $-1 #
coedge $-1 $130 $308 $304 $309 forward $216 $-1 #
loop $-1 $-1 $130 $310 #
vertex $-1 $213 $311 #
straight-curve $-1 0 -33.527430616473268 -1.8785172907753847 1 0 0 I I #
coedge $-1 $202 $132 $305 $312 reversed $71 $-1 #
vertex $-1 $213 $313 #
straight-curve $-1 0 -25.914379598132641 -1.8785172907753847 -1 0 0 I I #
coedge $-1 $135 $314 $315 $316 reversed $122 $-1 #
edge $-1 $317 -10.506905546077377 $136 1.8785172907753847 $135 $318 forward 7 unknown #
point $-1 75.123142185735645 -33.527430616473268 -1.8785172907753847 #
point $-1 75.123142185735645 -25.914379598132641 -1.8785172907753847 #
face $-1 $319 $320 $17 $-1 $321 forward single #
loop $-1 $-1 $322 $139 #
plane-surface $-1 0 -29.720905107302954 -1.8785172907753847 0 0 1 1 0 0 forward_v I I I I #
coedge $-1 $145 $323 $142 $232 forward $140 $-1 #
coedge $-1 $231 $142 $324 $325 reversed $79 $-1 #
coedge $-1 $142 $230 $143 $234 forward $79 $-1 #
edge $-1 $326 15.558512787035539 $235 18.832515794441903 $229 $327 forward 7 unknown #
coedge $-1 $144 $143 $239 $328 reversed $49 $-1 #
edge $-1 $329 -4.0194366942304651e-014 $235 4.6301395100457716 $231 $330 forward 7 unknown #
vertex $-1 $146 $331 #
straight-curve $-1 -71.849139178329281 4.9078243485426469 10.506905546077373 0 -1 0 I I #
vertex $-1 $328 $332 #
straight-curve $-1 -75.123142185735617 4.2607842853142728 7.2329024626974672 -0.70710677298230451 0 -0.70710678939079041 I I #
coedge $-1 $324 $148 $233 $328 forward $241 $-1 #
coedge $-1 $148 $333 $150 $244 reversed $241 $-1 #
loop $-1 $-1 $324 $334 #
straight-curve $-1 -75.123142185735645 4.2607842853142728 56.73653387859509 0 0 -1 I I #
coedge $-1 $335 $150 $336 $337 forward $140 $-1 #
edge $-1 $152 -4.2607842853142728 $338 33.527430616473268 $240 $339 forward 7 unknown #
point $-1 -71.849139178329281 4.2607842853142728 10.506905546077377 #
point $-1 -75.123142185735645 4.2607842853142728 10.506905546077377 #
face $-1 $340 $341 $18 $-1 $342 forward single #
loop $-1 $-1 $343 $154 #
plane-surface $-1 -181.36330994554237 15.370513108856315 113.47306775719018 0 -1 0 0.70710678939079041 0 -0.70710677298230451 forward_v I I I I #
loop $-1 $-1 $344 $86 #
coedge $-1 $252 $157 $345 $346 forward $87 $-1 #
coedge $-1 $157 $251 $347 $348 reversed $87 $-1 #
coedge $-1 $349 $350 $157 $254 forward $341 $-1 #
edge $-1 $351 -18.832515794441903 $352 -15.558512787035539 $253 $353 forward 7 unknown #
edge $-1 $354 1 $354 0 $158 $-1 forward 7 unknown #
vertex $-1 $159 $355 #
ellipse-curve $-1 -72.779033892641692 7.4349925206119991 8.1627972314051345 -0.70710678939079041 0 0.70710677298230451 0.35355338649115226 0 0.35355339469539521 1 I I #
point $-1 -73.132587295541342 7.4349925206119991 9.2234573990828341 #
face $-1 $356 $169 $19 $-1 $357 forward single #
loop $-1 $-1 $358 $162 #
plane-surface $-1 -181.36330994554237 4.2607842853142728 113.47306775719018 0 1 0 -0.70710678939079041 0 0.70710677298230451 forward_v I I I I #
loop $-1 $-1 $359 $94 #
coedge $-1 $263 $263 $264 $360 forward $163 $-1 #
coedge $-1 $264 $264 $263 $360 reversed $165 $-1 #
coedge $-1 $265 $265 $166 $266 forward $270 $-1 #
edge $-1 $361 0 $361 6.2831853071796004 $265 $362 forward 7 unknown #
edge $-1 $363 1 $363 0 $167 $-1 forward 7 unknown #
vertex $-1 $168 $364 #
ellipse-curve $-1 -72.779033892641692 12.196304873558589 8.1627972314051345 -0.70710678939079041 0 0.70710677298230451 0.35355338649115226 0 0.35355339469539521 1 I I #
loop $-1 $365 $265 $259 #
point $-1 -73.132587295541342 12.196304873558589 9.2234573990828341 #
plane-surface $-1 75.123142185735645 0 0 -1 0 0 0 0 1 forward_v I I I I #
coedge $-1 $177 $175 $179 $277 reversed $103 $-1 #
edge $-1 $190 -10.506905546077377 $279 10.506905546077377 $189 $366 forward 7 unknown #
vertex $-1 $277 $367 #
straight-curve $-1 -75.123142185735645 -33.527430616473268 0 0 0 -1 I I #
edge $-1 $275 -33.527430616473268 $279 33.527430616473268 $273 $368 forward 7 unknown #
straight-curve $-1 0 -33.527430616473268 -10.506905546077377 -1 0 0 I I #
vertex $-1 $182 $369 #
straight-curve $-1 0 33.527430616473268 -10.506905546077377 1 0 0 I I #
point $-1 75.123142185735645 33.527430616473268 -10.506905546077377 #
point $-1 75.123142185735645 -33.527430616473268 -10.506905546077377 #
straight-curve $-1 -75.123142185735645 0 10.506905546077377 0 -1 0 I I #
point $-1 -75.123142185735645 33.527430616473268 10.506905546077377 #
point $-1 -75.123142185735645 -33.527430616473268 10.506905546077377 #
straight-curve $-1 75.123142185735645 -33.527430616473268 0 0 0 -1 I I #
straight-curve $-1 75.123142185735645 33.527430616473268 0 0 0 -1 I I #
face $-1 $310 $370 $16 $-1 $371 reversed single #
loop $-1 $-1 $315 $199 #
plane-surface $-1 0 0 10.506905546077377 0 0 1 1 0 0 forward_v I I I I #
straight-curve $-1 75.123142185735645 -25.914379598132641 -1.6892586453876923 0 0 -1 I I #
coedge $-1 $305 $372 $204 $293 forward $306 $-1 #
edge $-1 $298 -18.666978062821791 $294 -11.053927044481163 $292 $373 forward 7 unknown #
vertex $-1 $293 $374 #
straight-curve $-1 0 -25.914379598132641 -4.8785172907753847 1 0 0 I I #
coedge $-1 $375 $206 $372 $376 forward $200 $-1 #
coedge $-1 $206 $375 $208 $301 reversed $200 $-1 #
vertex $-1 $376 $377 #
straight-curve $-1 0 -33.527430616473268 -4.8785172907753847 -1 0 0 I I #
coedge $-1 $314 $208 $378 $379 reversed $122 $-1 #
edge $-1 $210 4.8785172907753847 $380 10.506905546077377 $208 $318 forward 7 unknown #
point $-1 75.123142185735645 -25.914379598132641 -4.8785172907753847 #
point $-1 75.123142185735645 -33.527430616473268 -4.8785172907753847 #
coedge $-1 $381 $212 $215 $309 reversed $306 $-1 #
coedge $-1 $212 $292 $219 $312 forward $306 $-1 #
loop $-1 $-1 $212 $382 #
straight-curve $-1 -75.123142185735645 -14.860452553651477 -1.8785172907753847 0 -1 0 I I #
coedge $-1 $215 $214 $383 $384 reversed $216 $-1 #
edge $-1 $385 -10.506905546077377 $217 1.8785172907753847 $304 $386 forward 7 unknown #
face $-1 $382 $216 $16 $-1 $201 reversed single #
point $-1 -75.123142185735645 -33.527430616473268 -1.8785172907753847 #
edge $-1 $294 -3.1892586453876923 $220 -0.18925864538769233 $305 $387 forward 7 unknown #
point $-1 -75.123142185735645 -25.914379598132641 -1.8785172907753847 #
coedge $-1 $222 $300 $388 $389 reversed $122 $-1 #
coedge $-1 $390 $383 $222 $316 forward $289 $-1 #
edge $-1 $317 -33.527430616473268 $391 33.527430616473268 $222 $392 forward 7 unknown #
vertex $-1 $316 $393 #
straight-curve $-1 75.123142185735645 -33.527430616473268 0 0 0 -1 I I #
face $-1 $394 $395 $17 $-1 $396 forward single #
loop $-1 $-1 $397 $226 #
plane-surface $-1 0 -29.720905107302954 -4.8785172907753847 0 0 1 1 0 0 forward_v I I I I #
coedge $-1 $398 $399 $400 $401 reversed $227 $-1 #
coedge $-1 $229 $402 $403 $404 forward $140 $-1 #
coedge $-1 $403 $239 $230 $325 forward $241 $-1 #
edge $-1 $329 -49.503631415897651 $326 -46.229628332517713 $324 $405 forward 7 unknown #
vertex $-1 $325 $406 #
straight-curve $-1 -90.681654972771184 15.370513108856315 10.506905546077377 1 0 0 I I #
edge $-1 $237 -0.64704006322837415 $329 10.462688760313668 $239 $407 forward 7 unknown #
vertex $-1 $328 $408 #
straight-curve $-1 -75.123142185735617 15.370513108856315 7.2329024626974672 0.70710677298230451 0 0.70710678939079041 I I #
point $-1 -71.849139178329281 15.370513108856315 10.506905546077377 #
point $-1 -75.123142185735645 4.2607842853142728 7.2329024626974388 #
coedge $-1 $240 $409 $410 $411 reversed $241 $-1 #
face $-1 $412 $241 $17 $-1 $413 reversed single #
coedge $-1 $402 $243 $414 $415 forward $140 $-1 #
coedge $-1 $410 $416 $243 $337 reversed $417 $-1 #
edge $-1 $338 -75.123142185735645 $418 75.123142185735645 $336 $419 forward 7 unknown #
vertex $-1 $244 $420 #
straight-curve $-1 -75.123142185735645 0 10.506905546077377 0 -1 0 I I #
face $-1 $421 $422 $18 $-1 $423 reversed single #
loop $-1 $-1 $424 $247 #
plane-surface $-1 0 0 10.506905546077377 0 0 1 1 0 0 forward_v I I I I #
coedge $-1 $425 $426 $424 $427 reversed $248 $-1 #
coedge $-1 $428 $345 $350 $429 reversed $250 $-1 #
coedge $-1 $344 $430 $251 $346 reversed $250 $-1 #
edge $-1 $351 -4.6301395100457716 $431 4.0194366942304651e-014 $251 $432 forward 7 unknown #
coedge $-1 $433 $434 $252 $348 forward $435 $-1 #
edge $-1 $352 46.229628332517713 $431 49.503631415897651 $347 $436 forward 7 unknown #
coedge $-1 $437 $253 $434 $438 forward $341 $-1 #
coedge $-1 $253 $424 $344 $429 forward $341 $-1 #
vertex $-1 $429 $439 #
vertex $-1 $438 $440 #
straight-curve $-1 -90.681654972771184 4.2607842853142728 10.506905546077377 -1 0 0 I I #
vertex $-1 $255 $441 #
point $-1 -72.425480506150549 7.4349925206119991 8.5163506261005288 #
face $-1 $442 $443 $19 $-1 $444 forward single #
plane-surface $-1 -75.123142185735617 9.8156486970852939 7.2329024626974672 -0.70710678939079041 0 0.70710677298230451 0.70710677298230451 0 0.70710678939079041 forward_v I I I I #
coedge $-1 $445 $446 $447 $448 reversed $260 $-1 #
coedge $-1 $359 $359 $-1 $449 forward $262 $-1 #
edge $-1 $450 0 $450 6.2831853071796004 $263 $451 forward 7 unknown #
vertex $-1 $266 $452 #
ellipse-curve $-1 -73.486140682032456 7.4349925206119991 8.8699040043874149 0.70710678939079041 0 -0.70710677298230451 0.35355338649115226 0 0.35355339469539521 1 I I #
vertex $-1 $267 $453 #
point $-1 -72.425480506150549 12.196304873558589 8.5163506261005288 #
loop $-1 $-1 $454 $259 #
straight-curve $-1 -75.123142185735645 33.527430616473268 0 0 0 -1 I I #
point $-1 -75.123142185735645 -33.527430616473268 -10.506905546077377 #
straight-curve $-1 -75.123142185735645 0 -10.506905546077377 0 1 0 I I #
point $-1 -75.123142185735645 33.527430616473268 -10.506905546077377 #
loop $-1 $-1 $378 $288 #
plane-surface $-1 0 0 -10.506905546077377 0 0 1 1 0 0 forward_v I I I I #
coedge $-1 $292 $455 $296 $376 reversed $306 $-1 #
straight-curve $-1 -75.123142185735645 -14.860452553651477 -4.8785172907753847 0 1 0 I I #
point $-1 -75.123142185735645 -25.914379598132641 -4.8785172907753847 #
coedge $-1 $297 $296 $456 $457 reversed $200 $-1 #
edge $-1 $298 4.8785172907753847 $458 10.506905546077377 $372 $386 forward 7 unknown #
point $-1 -75.123142185735645 -33.527430616473268 -4.8785172907753847 #
coedge $-1 $456 $459 $300 $379 forward $370 $-1 #
edge $-1 $460 -33.527430616473268 $380 33.527430616473268 $300 $461 forward 7 unknown #
vertex $-1 $301 $462 #
coedge $-1 $463 $304 $464 $465 reversed $306 $-1 #
face $-1 $466 $306 $16 $-1 $467 reversed single #
coedge $-1 $315 $464 $308 $384 forward $289 $-1 #
edge $-1 $385 -75.123142185735645 $317 75.123142185735645 $308 $468 forward 7 unknown #
vertex $-1 $465 $469 #
straight-curve $-1 -75.123142185735645 -33.527430616473268 0 0 0 -1 I I #
straight-curve $-1 -75.123142185735645 -25.914379598132641 -1.6892586453876923 0 0 1 I I #
coedge $-1 $470 $471 $314 $389 forward $472 $-1 #
edge $-1 $391 -10.506905546077377 $460 10.506905546077377 $314 $473 forward 7 unknown #
coedge $-1 $464 $315 $471 $474 forward $289 $-1 #
vertex $-1 $316 $475 #
straight-curve $-1 75.123142185735645 0 10.506905546077377 0 1 0 I I #
point $-1 75.123142185735645 -33.527430616473268 10.506905546077377 #
face $-1 $476 $477 $17 $-1 $478 reversed single #
loop $-1 $-1 $479 $319 #
plane-surface $-1 0 -25.914379598132641 -3.3785172907753847 0 -1 0 0 0 -1 forward_v I I I I #
coedge $-1 $480 $481 $482 $483 reversed $320 $-1 #
coedge $-1 $484 $322 $485 $486 reversed $227 $-1 #
coedge $-1 $322 $484 $487 $488 reversed $227 $-1 #
coedge $-1 $489 $490 $322 $401 forward $477 $-1 #
edge $-1 $491 -18.666978062821791 $492 -11.053927044481163 $400 $493 forward 7 unknown #
coedge $-1 $323 $335 $494 $495 forward $140 $-1 #
coedge $-1 $496 $324 $323 $404 reversed $241 $-1 #
edge $-1 $497 -33.527430616473268 $326 -15.370513108856315 $403 $339 forward 7 unknown #
straight-curve $-1 -75.123142185735645 15.370513108856315 56.73653387859509 0 0 1 I I #
point $-1 -75.123142185735645 15.370513108856315 10.506905546077377 #
straight-curve $-1 -75.123142185735645 4.9078243485426469 7.2329024626974396 0 1 0 I I #
point $-1 -75.123142185735645 15.370513108856315 7.2329024626974388 #
coedge $-1 $333 $498 $484 $499 forward $241 $-1 #
coedge $-1 $485 $336 $333 $411 forward $417 $-1 #
edge $-1 $338 -10.506905546077377 $500 1.8785172907753847 $333 $501 forward 7 unknown #
face $-1 $-1 $502 $17 $-1 $503 reversed single #
plane-surface $-1 -75.123142185735645 0 0 1 0 0 0 0 -1 forward_v I I I I #
coedge $-1 $490 $504 $335 $415 reversed $477 $-1 #
edge $-1 $418 -33.527430616473268 $505 33.527430616473268 $414 $506 forward 7 unknown #
coedge $-1 $336 $485 $490 $507 reversed $417 $-1 #
loop $-1 $-1 $485 $508 #
vertex $-1 $415 $509 #
straight-curve $-1 0 -33.527430616473268 10.506905546077377 1 0 0 I I #
point $-1 -75.123142185735645 -33.527430616473268 10.506905546077377 #
face $-1 $510 $511 $18 $-1 $512 forward single #
loop $-1 $-1 $513 $340 #
plane-surface $-1 0 -29.720905107302954 -1.8785172907753847 0 0 1 1 0 0 forward_v I I I I #
coedge $-1 $350 $514 $343 $427 forward $341 $-1 #
coedge $-1 $426 $343 $515 $516 reversed $248 $-1 #
coedge $-1 $343 $425 $428 $517 forward $248 $-1 #
edge $-1 $518 15.558512787035539 $519 18.832515794441903 $424 $520 forward 7 unknown #
coedge $-1 $430 $344 $426 $517 reversed $250 $-1 #
edge $-1 $519 -10.462688760313668 $351 0.64704006322837415 $350 $521 forward 7 unknown #
coedge $-1 $345 $428 $433 $522 reversed $250 $-1 #
vertex $-1 $522 $523 #
straight-curve $-1 -75.123142185735617 4.2607842853142728 7.2329024626974672 -0.70710677298230451 0 -0.70710678939079041 I I #
coedge $-1 $515 $347 $430 $522 forward $435 $-1 #
coedge $-1 $347 $524 $349 $438 reversed $435 $-1 #
loop $-1 $-1 $515 $525 #
straight-curve $-1 -75.123142185735645 4.2607842853142728 56.73653387859509 0 0 -1 I I #
coedge $-1 $526 $349 $527 $528 forward $341 $-1 #
edge $-1 $352 -4.2607842853142728 $529 33.527430616473268 $434 $530 forward 7 unknown #
point $-1 -71.849139178329281 4.2607842853142728 10.506905546077377 #
point $-1 -75.123142185735645 4.2607842853142728 10.506905546077377 #
point $-1 -72.42548049794631 7.4349925206119991 7.8092438449139818 #
face $-1 $531 $532 $19 $-1 $533 forward single #
loop $-1 $-1 $534 $356 #
plane-surface $-1 -181.36330994554237 15.370513108856315 113.47306775719018 0 -1 0 0.70710678939079041 0 -0.70710677298230451 forward_v I I I I #
coedge $-1 $446 $358 $535 $536 forward $260 $-1 #
coedge $-1 $358 $445 $537 $538 reversed $260 $-1 #
coedge $-1 $539 $540 $358 $448 forward $532 $-1 #
edge $-1 $541 -18.832515794441903 $542 -15.558512787035539 $447 $543 forward 7 unknown #
edge $-1 $544 1 $544 0 $359 $-1 forward 7 unknown #
vertex $-1 $360 $545 #
ellipse-curve $-1 -72.779033892641692 7.4349925206119991 8.1627972314051345 -0.70710678939079041 0 0.70710677298230451 0.35355338649115226 0 0.35355339469539521 1 I I #
point $-1 -73.132587295541342 7.4349925206119991 9.2234573990828341 #
point $-1 -72.42548049794631 12.196304873558589 7.8092438449139818 #
coedge $-1 $546 $535 $540 $547 reversed $365 $-1 #
coedge $-1 $372 $463 $548 $549 reversed $306 $-1 #
coedge $-1 $548 $378 $375 $457 forward $370 $-1 #
edge $-1 $380 -75.123142185735645 $458 75.123142185735645 $375 $550 forward 7 unknown #
vertex $-1 $549 $551 #
coedge $-1 $378 $548 $470 $552 forward $370 $-1 #
vertex $-1 $379 $553 #
straight-curve $-1 75.123142185735645 0 -10.506905546077377 0 -1 0 I I #
point $-1 75.123142185735645 -33.527430616473268 -10.506905546077377 #
coedge $-1 $455 $381 $554 $555 forward $306 $-1 #
coedge $-1 $383 $390 $381 $465 forward $289 $-1 #
edge $-1 $556 -33.527430616473268 $385 33.527430616473268 $381 $557 forward 7 unknown #
face $-1 $-1 $472 $16 $-1 $558 reversed single #
plane-surface $-1 -75.123142185735645 0 0 1 0 0 0 0 -1 forward_v I I I I #
straight-curve $-1 0 -33.527430616473268 10.506905546077377 1 0 0 I I #
point $-1 -75.123142185735645 -33.527430616473268 10.506905546077377 #
coedge $-1 $554 $388 $459 $552 reversed $472 $-1 #
coedge $-1 $388 $554 $390 $474 reversed $472 $-1 #
loop $-1 $-1 $388 $466 #
straight-curve $-1 75.123142185735645 33.527430616473268 0 0 0 -1 I I #
edge $-1 $391 -75.123142185735645 $556 75.123142185735645 $471 $559 forward 7 unknown #
point $-1 75.123142185735645 33.527430616473268 10.506905546077377 #
face $-1 $560 $561 $17 $-1 $562 reversed single #
loop $-1 $-1 $400 $394 #
plane-surface $-1 75.123142185735645 0 0 -1 0 0 0 0 1 forward_v I I I I #
coedge $-1 $487 $563 $489 $564 reversed $395 $-1 #
coedge $-1 $565 $397 $563 $566 reversed $320 $-1 #
coedge $-1 $397 $565 $567 $568 reversed $320 $-1 #
coedge $-1 $569 $489 $397 $483 forward $477 $-1 #
edge $-1 $570 11.053927044481163 $571 18.666978062821791 $482 $572 forward 7 unknown #
coedge $-1 $399 $398 $409 $499 reversed $227 $-1 #
coedge $-1 $416 $410 $398 $486 forward $417 $-1 #
edge $-1 $500 -75.123142185735645 $491 75.123142185735645 $485 $573 forward 7 unknown #
coedge $-1 $574 $479 $399 $488 forward $395 $-1 #
edge $-1 $492 -75.123142185735645 $575 75.123142185735645 $487 $576 forward 7 unknown #
coedge $-1 $482 $400 $479 $564 forward $477 $-1 #
coedge $-1 $400 $414 $416 $507 forward $477 $-1 #
vertex $-1 $486 $577 #
vertex $-1 $401 $578 #
straight-curve $-1 75.123142185735645 -14.860452553651477 -1.8785172907753847 0 1 0 I I #
coedge $-1 $579 $580 $402 $495 reversed $502 $-1 #
edge $-1 $505 -75.123142185735645 $497 75.123142185735645 $494 $581 forward 7 unknown #
coedge $-1 $582 $403 $580 $583 forward $241 $-1 #
vertex $-1 $495 $584 #
coedge $-1 $409 $585 $574 $586 forward $241 $-1 #
edge $-1 $575 11.053927044481163 $500 18.666978062821791 $409 $587 forward 7 unknown #
vertex $-1 $499 $588 #
straight-curve $-1 -75.123142185735645 -33.527430616473268 0 0 0 -1 I I #
loop $-1 $-1 $579 $412 #
plane-surface $-1 0 33.527430616473268 0 0 -1 0 0 0 -1 forward_v I I I I #
coedge $-1 $414 $589 $579 $590 reversed $477 $-1 #
vertex $-1 $415 $591 #
straight-curve $-1 75.123142185735645 0 10.506905546077377 0 1 0 I I #
edge $-1 $418 -10.506905546077377 $491 1.8785172907753847 $490 $592 forward 7 unknown #
face $-1 $334 $417 $17 $-1 $562 reversed single #
point $-1 75.123142185735645 -33.527430616473268 10.506905546077377 #
face $-1 $593 $594 $18 $-1 $595 forward single #
loop $-1 $-1 $596 $421 #
plane-surface $-1 0 -29.720905107302954 -4.8785172907753847 0 0 1 1 0 0 forward_v I I I I #
coedge $-1 $597 $598 $599 $600 reversed $422 $-1 #
coedge $-1 $424 $601 $602 $603 forward $341 $-1 #
coedge $-1 $602 $433 $425 $516 forward $435 $-1 #
edge $-1 $604 -49.503631415897651 $518 -46.229628332517713 $515 $605 forward 7 unknown #
edge $-1 $604 -4.0194366942304651e-014 $519 4.6301395100457716 $426 $606 forward 7 unknown #
vertex $-1 $516 $607 #
vertex $-1 $429 $608 #
straight-curve $-1 -90.681654972771184 15.370513108856315 10.506905546077377 1 0 0 I I #
straight-curve $-1 -71.849139178329281 4.9078243485426469 10.506905546077373 0 -1 0 I I #
edge $-1 $431 -0.64704006322837415 $604 10.462688760313668 $433 $609 forward 7 unknown #
point $-1 -75.123142185735645 4.2607842853142728 7.2329024626974388 #
coedge $-1 $434 $610 $611 $612 reversed $435 $-1 #
face $-1 $613 $435 $18 $-1 $614 reversed single #
coedge $-1 $601 $437 $615 $616 forward $341 $-1 #
coedge $-1 $611 $617 $437 $528 reversed $618 $-1 #
edge $-1 $529 -75.123142185735645 $619 75.123142185735645 $527 $620 forward 7 unknown #
vertex $-1 $438 $621 #
straight-curve $-1 -75.123142185735645 0 10.506905546077377 0 -1 0 I I #
face $-1 $622 $623 $19 $-1 $624 reversed single #
loop $-1 $-1 $625 $442 #
plane-surface $-1 0 0 10.506905546077377 0 0 1 1 0 0 forward_v I I I I #
coedge $-1 $626 $627 $625 $628 reversed $443 $-1 #
coedge $-1 $454 $629 $445 $536 reversed $365 $-1 #
edge $-1 $541 -4.6301395100457716 $630 4.0194366942304651e-014 $445 $631 forward 7 unknown #
coedge $-1 $632 $633 $446 $538 forward $634 $-1 #
edge $-1 $542 46.229628332517713 $630 49.503631415897651 $537 $635 forward 7 unknown #
coedge $-1 $636 $447 $633 $637 forward $532 $-1 #
coedge $-1 $447 $625 $454 $547 forward $532 $-1 #
vertex $-1 $547 $638 #
vertex $-1 $637 $639 #
straight-curve $-1 -90.681654972771184 4.2607842853142728 10.506905546077377 -1 0 0 I I #
vertex $-1 $449 $640 #
point $-1 -72.425480506150549 7.4349925206119991 8.5163506261005288 #
coedge $-1 $629 $454 $627 $641 reversed $365 $-1 #
edge $-1 $642 -10.462688760313668 $541 0.64704006322837415 $540 $643 forward 7 unknown #
coedge $-1 $459 $456 $455 $549 forward $370 $-1 #
edge $-1 $458 -33.527430616473268 $644 33.527430616473268 $455 $645 forward 7 unknown #
straight-curve $-1 0 -33.527430616473268 -10.506905546077377 -1 0 0 I I #
point $-1 -75.123142185735645 -33.527430616473268 -10.506905546077377 #
edge $-1 $644 -75.123142185735645 $460 75.123142185735645 $470 $646 forward 7 unknown #
point $-1 75.123142185735645 33.527430616473268 -10.506905546077377 #
coedge $-1 $471 $470 $463 $555 reversed $472 $-1 #
edge $-1 $556 -10.506905546077377 $644 10.506905546077377 $554 $647 forward 7 unknown #
vertex $-1 $474 $648 #
straight-curve $-1 -75.123142185735645 0 10.506905546077377 0 -1 0 I I #
plane-surface $-1 0 33.527430616473268 0 0 -1 0 0 0 -1 forward_v I I I I #
straight-curve $-1 0 33.527430616473268 10.506905546077377 -1 0 0 I I #
face $-1 $508 $649 $17 $-1 $650 reversed single #
loop $-1 $-1 $567 $476 #
plane-surface $-1 0 -33.527430616473268 0 0 1 0 0 0 1 forward_v I I I I #
coedge $-1 $479 $574 $480 $566 forward $395 $-1 #
edge $-1 $492 0.18925864538769233 $570 3.1892586453876923 $489 $651 forward 7 unknown #
coedge $-1 $481 $480 $585 $652 reversed $320 $-1 #
edge $-1 $653 -75.123142185735645 $570 75.123142185735645 $563 $654 forward 7 unknown #
coedge $-1 $655 $656 $481 $568 forward $561 $-1 #
edge $-1 $571 -75.123142185735645 $657 75.123142185735645 $567 $658 forward 7 unknown #
coedge $-1 $589 $482 $656 $659 forward $477 $-1 #
vertex $-1 $483 $660 #
vertex $-1 $659 $661 #
straight-curve $-1 75.123142185735645 -14.860452553651477 -4.8785172907753847 0 -1 0 I I #
straight-curve $-1 0 -33.527430616473268 -1.8785172907753847 1 0 0 I I #
coedge $-1 $563 $487 $498 $586 reversed $395 $-1 #
vertex $-1 $499 $662 #
straight-curve $-1 0 -25.914379598132641 -1.8785172907753847 -1 0 0 I I #
point $-1 75.123142185735645 -33.527430616473268 -1.8785172907753847 #
point $-1 75.123142185735645 -25.914379598132641 -1.8785172907753847 #
coedge $-1 $663 $494 $504 $590 forward $502 $-1 #
coedge $-1 $494 $663 $496 $583 reversed $502 $-1 #
straight-curve $-1 0 33.527430616473268 10.506905546077377 -1 0 0 I I #
coedge $-1 $664 $496 $665 $666 reversed $241 $-1 #
edge $-1 $497 -10.506905546077377 $667 10.506905546077377 $580 $668 forward 7 unknown #
point $-1 -75.123142185735645 33.527430616473268 10.506905546077377 #
coedge $-1 $498 $664 $565 $652 forward $241 $-1 #
edge $-1 $653 -3.1892586453876923 $575 -0.18925864538769233 $498 $669 forward 7 unknown #
straight-curve $-1 -75.123142185735645 -14.860452553651477 -1.8785172907753847 0 -1 0 I I #
point $-1 -75.123142185735645 -33.527430616473268 -1.8785172907753847 #
coedge $-1 $504 $569 $670 $671 reversed $477 $-1 #
edge $-1 $505 -10.506905546077377 $672 10.506905546077377 $504 $673 forward 7 unknown #
point $-1 75.123142185735645 33.527430616473268 10.506905546077377 #
straight-curve $-1 75.123142185735645 -33.527430616473268 0 0 0 -1 I I #
face $-1 $674 $675 $18 $-1 $676 reversed single #
loop $-1 $-1 $677 $510 #
plane-surface $-1 0 -25.914379598132641 -3.3785172907753847 0 -1 0 0 0 -1 forward_v I I I I #
coedge $-1 $678 $679 $680 $681 reversed $511 $-1 #
coedge $-1 $682 $513 $683 $684 reversed $422 $-1 #
coedge $-1 $513 $682 $685 $686 reversed $422 $-1 #
coedge $-1 $687 $688 $513 $600 forward $675 $-1 #
edge $-1 $689 -18.666978062821791 $690 -11.053927044481163 $599 $691 forward 7 unknown #
coedge $-1 $514 $526 $692 $693 forward $341 $-1 #
coedge $-1 $694 $515 $514 $603 reversed $435 $-1 #
edge $-1 $695 -33.527430616473268 $518 -15.370513108856315 $602 $530 forward 7 unknown #
vertex $-1 $522 $696 #
straight-curve $-1 -75.123142185735645 15.370513108856315 56.73653387859509 0 0 1 I I #
straight-curve $-1 -75.123142185735617 15.370513108856315 7.2329024626974672 0.70710677298230451 0 0.70710678939079041 I I #
point $-1 -75.123142185735645 15.370513108856315 10.506905546077377 #
point $-1 -71.849139178329281 15.370513108856315 10.506905546077377 #
straight-curve $-1 -75.123142185735645 4.9078243485426469 7.2329024626974396 0 1 0 I I #
coedge $-1 $524 $697 $682 $698 forward $435 $-1 #
coedge $-1 $683 $527 $524 $612 forward $618 $-1 #
edge $-1 $529 -10.506905546077377 $699 1.8785172907753847 $524 $700 forward 7 unknown #
face $-1 $-1 $701 $18 $-1 $702 reversed single #
plane-surface $-1 -75.123142185735645 0 0 1 0 0 0 0 -1 forward_v I I I I #
coedge $-1 $688 $703 $526 $616 reversed $675 $-1 #
edge $-1 $619 -33.527430616473268 $704 33.527430616473268 $615 $705 forward 7 unknown #
coedge $-1 $527 $683 $688 $706 reversed $618 $-1 #
loop $-1 $-1 $683 $707 #
vertex $-1 $616 $708 #
straight-curve $-1 0 -33.527430616473268 10.506905546077377 1 0 0 I I #
point $-1 -75.123142185735645 -33.527430616473268 10.506905546077377 #
face $-1 $709 $710 $19 $-1 $711 forward single #
loop $-1 $-1 $712 $531 #
plane-surface $-1 0 -29.720905107302954 -1.8785172907753847 0 0 1 1 0 0 forward_v I I I I #
coedge $-1 $540 $713 $534 $628 forward $532 $-1 #
coedge $-1 $627 $534 $714 $715 reversed $443 $-1 #
coedge $-1 $534 $626 $546 $641 forward $443 $-1 #
edge $-1 $716 15.558512787035539 $642 18.832515794441903 $625 $717 forward 7 unknown #
coedge $-1 $535 $546 $632 $718 reversed $365 $-1 #
vertex $-1 $718 $719 #
straight-curve $-1 -75.123142185735617 4.2607842853142728 7.2329024626974672 -0.70710677298230451 0 -0.70710678939079041 I I #
coedge $-1 $714 $537 $629 $718 forward $634 $-1 #
coedge $-1 $537 $720 $539 $637 reversed $634 $-1 #
loop $-1 $-1 $714 $721 #
straight-curve $-1 -75.123142185735645 4.2607842853142728 56.73653387859509 0 0 -1 I I #
coedge $-1 $722 $539 $723 $724 forward $532 $-1 #
edge $-1 $542 -4.2607842853142728 $725 33.527430616473268 $633 $726 forward 7 unknown #
point $-1 -71.849139178329281 4.2607842853142728 10.506905546077377 #
point $-1 -75.123142185735645 4.2607842853142728 10.506905546077377 #
point $-1 -72.42548049794631 7.4349925206119991 7.8092438449139818 #
edge $-1 $727 -4.0194366942304651e-014 $642 4.6301395100457716 $627 $728 forward 7 unknown #
vertex $-1 $547 $729 #
straight-curve $-1 -71.849139178329281 4.9078243485426469 10.506905546077373 0 -1 0 I I #
vertex $-1 $552 $730 #
straight-curve $-1 -75.123142185735645 0 -10.506905546077377 0 1 0 I I #
straight-curve $-1 0 33.527430616473268 -10.506905546077377 1 0 0 I I #
straight-curve $-1 -75.123142185735645 33.527430616473268 0 0 0 -1 I I #
point $-1 -75.123142185735645 33.527430616473268 10.506905546077377 #
loop $-1 $-1 $670 $560 #
plane-surface $-1 0 0 -10.506905546077377 0 0 1 1 0 0 forward_v I I I I #
straight-curve $-1 75.123142185735645 -25.914379598132641 -1.6892586453876923 0 0 -1 I I #
edge $-1 $657 -18.666978062821791 $653 -11.053927044481163 $585 $731 forward 7 unknown #
vertex $-1 $652 $732 #
straight-curve $-1 0 -25.914379598132641 -4.8785172907753847 1 0 0 I I #
coedge $-1 $733 $567 $664 $734 forward $561 $-1 #
coedge $-1 $567 $733 $569 $659 reversed $561 $-1 #
vertex $-1 $734 $735 #
straight-curve $-1 0 -33.527430616473268 -4.8785172907753847 -1 0 0 I I #
edge $-1 $571 4.8785172907753847 $736 10.506905546077377 $569 $592 forward 7 unknown #
point $-1 75.123142185735645 -25.914379598132641 -4.8785172907753847 #
point $-1 75.123142185735645 -33.527430616473268 -4.8785172907753847 #
point $-1 -75.123142185735645 -25.914379598132641 -1.8785172907753847 #
coedge $-1 $580 $579 $737 $738 reversed $502 $-1 #
coedge $-1 $585 $582 $655 $734 reversed $241 $-1 #
coedge $-1 $737 $739 $582 $666 forward $649 $-1 #
edge $-1 $740 -33.527430616473268 $667 33.527430616473268 $582 $741 forward 7 unknown #
vertex $-1 $738 $742 #
straight-curve $-1 -75.123142185735645 33.527430616473268 0 0 0 -1 I I #
straight-curve $-1 -75.123142185735645 -25.914379598132641 -1.6892586453876923 0 0 1 I I #
coedge $-1 $739 $737 $589 $671 forward $649 $-1 #
edge $-1 $672 -33.527430616473268 $736 33.527430616473268 $589 $743 forward 7 unknown #
vertex $-1 $671 $744 #
straight-curve $-1 75.123142185735645 33.527430616473268 0 0 0 -1 I I #
face $-1 $745 $746 $18 $-1 $747 reversed single #
loop $-1 $-1 $599 $593 #
plane-surface $-1 75.123142185735645 0 0 -1 0 0 0 0 1 forward_v I I I I #
coedge $-1 $685 $748 $687 $749 reversed $594 $-1 #
coedge $-1 $750 $596 $748 $751 reversed $511 $-1 #
coedge $-1 $596 $750 $752 $753 reversed $511 $-1 #
coedge $-1 $754 $687 $596 $681 forward $675 $-1 #
edge $-1 $755 11.053927044481163 $756 18.666978062821791 $680 $757 forward 7 unknown #
coedge $-1 $598 $597 $610 $698 reversed $422 $-1 #
coedge $-1 $617 $611 $597 $684 forward $618 $-1 #
edge $-1 $699 -75.123142185735645 $689 75.123142185735645 $683 $758 forward 7 unknown #
coedge $-1 $759 $677 $598 $686 forward $594 $-1 #
edge $-1 $690 -75.123142185735645 $760 75.123142185735645 $685 $761 forward 7 unknown #
coedge $-1 $680 $599 $677 $749 forward $675 $-1 #
coedge $-1 $599 $615 $617 $706 forward $675 $-1 #
vertex $-1 $684 $762 #
vertex $-1 $600 $763 #
straight-curve $-1 75.123142185735645 -14.860452553651477 -1.8785172907753847 0 1 0 I I #
coedge $-1 $764 $765 $601 $693 reversed $701 $-1 #
edge $-1 $704 -75.123142185735645 $695 75.123142185735645 $692 $766 forward 7 unknown #
coedge $-1 $767 $602 $765 $768 forward $435 $-1 #
vertex $-1 $693 $769 #
point $-1 -75.123142185735645 15.370513108856315 7.2329024626974388 #
coedge $-1 $610 $770 $759 $771 forward $435 $-1 #
edge $-1 $760 11.053927044481163 $699 18.666978062821791 $610 $772 forward 7 unknown #
vertex $-1 $698 $773 #
straight-curve $-1 -75.123142185735645 -33.527430616473268 0 0 0 -1 I I #
loop $-1 $-1 $764 $613 #
plane-surface $-1 0 33.527430616473268 0 0 -1 0 0 0 -1 forward_v I I I I #
coedge $-1 $615 $774 $764 $775 reversed $675 $-1 #
vertex $-1 $616 $776 #
straight-curve $-1 75.123142185735645 0 10.506905546077377 0 1 0 I I #
edge $-1 $619 -10.506905546077377 $689 1.8785172907753847 $688 $777 forward 7 unknown #
face $-1 $525 $618 $18 $-1 $747 reversed single #
point $-1 75.123142185735645 -33.527430616473268 10.506905546077377 #
face $-1 $778 $779 $19 $-1 $780 forward single #
loop $-1 $-1 $781 $622 #
plane-surface $-1 0 -29.720905107302954 -4.8785172907753847 0 0 1 1 0 0 forward_v I I I I #
coedge $-1 $782 $783 $784 $785 reversed $623 $-1 #
coedge $-1 $625 $786 $787 $788 forward $532 $-1 #
coedge $-1 $787 $632 $626 $715 forward $634 $-1 #
edge $-1 $727 -49.503631415897651 $716 -46.229628332517713 $714 $789 forward 7 unknown #
vertex $-1 $715 $790 #
straight-curve $-1 -90.681654972771184 15.370513108856315 10.506905546077377 1 0 0 I I #
edge $-1 $630 -0.64704006322837415 $727 10.462688760313668 $632 $791 forward 7 unknown #
point $-1 -75.123142185735645 4.2607842853142728 7.2329024626974388 #
coedge $-1 $633 $792 $793 $794 reversed $634 $-1 #
face $-1 $795 $634 $19 $-1 $796 reversed single #
coedge $-1 $786 $636 $797 $798 forward $532 $-1 #
coedge $-1 $793 $799 $636 $724 reversed $800 $-1 #
edge $-1 $725 -75.123142185735645 $801 75.123142185735645 $723 $802 forward 7 unknown #
vertex $-1 $637 $803 #
straight-curve $-1 -75.123142185735645 0 10.506905546077377 0 -1 0 I I #
vertex $-1 $718 $804 #
straight-curve $-1 -75.123142185735617 15.370513108856315 7.2329024626974672 0.70710677298230451 0 0.70710678939079041 I I #
point $-1 -71.849139178329281 15.370513108856315 10.506905546077377 #
point $-1 -75.123142185735645 33.527430616473268 -10.506905546077377 #
straight-curve $-1 -75.123142185735645 -14.860452553651477 -4.8785172907753847 0 1 0 I I #
point $-1 -75.123142185735645 -25.914379598132641 -4.8785172907753847 #
coedge $-1 $656 $655 $739 $805 reversed $561 $-1 #
edge $-1 $657 4.8785172907753847 $740 10.506905546077377 $664 $501 forward 7 unknown #
point $-1 -75.123142185735645 -33.527430616473268 -4.8785172907753847 #
vertex $-1 $659 $806 #
coedge $-1 $670 $665 $663 $738 forward $649 $-1 #
edge $-1 $667 -75.123142185735645 $672 75.123142185735645 $663 $807 forward 7 unknown #
coedge $-1 $665 $670 $733 $805 forward $649 $-1 #
vertex $-1 $666 $808 #
straight-curve $-1 -75.123142185735645 0 -10.506905546077377 0 1 0 I I #
point $-1 -75.123142185735645 33.527430616473268 -10.506905546077377 #
straight-curve $-1 75.123142185735645 0 -10.506905546077377 0 -1 0 I I #
point $-1 75.123142185735645 33.527430616473268 -10.506905546077377 #
face $-1 $707 $809 $18 $-1 $810 reversed single #
loop $-1 $-1 $752 $674 #
plane-surface $-1 0 -33.527430616473268 0 0 1 0 0 0 1 forward_v I I I I #
coedge $-1 $677 $759 $678 $751 forward $594 $-1 #
edge $-1 $690 0.18925864538769233 $755 3.1892586453876923 $687 $811 forward 7 unknown #
coedge $-1 $679 $678 $770 $812 reversed $511 $-1 #
edge $-1 $813 -75.123142185735645 $755 75.123142185735645 $748 $814 forward 7 unknown #
coedge $-1 $815 $816 $679 $753 forward $746 $-1 #
edge $-1 $756 -75.123142185735645 $817 75.123142185735645 $752 $818 forward 7 unknown #
coedge $-1 $774 $680 $816 $819 forward $675 $-1 #
vertex $-1 $681 $820 #
vertex $-1 $819 $821 #
straight-curve $-1 75.123142185735645 -14.860452553651477 -4.8785172907753847 0 -1 0 I I #
straight-curve $-1 0 -33.527430616473268 -1.8785172907753847 1 0 0 I I #
coedge $-1 $748 $685 $697 $771 reversed $594 $-1 #
vertex $-1 $698 $822 #
straight-curve $-1 0 -25.914379598132641 -1.8785172907753847 -1 0 0 I I #
point $-1 75.123142185735645 -33.527430616473268 -1.8785172907753847 #
point $-1 75.123142185735645 -25.914379598132641 -1.8785172907753847 #
coedge $-1 $823 $692 $703 $775 forward $701 $-1 #
coedge $-1 $692 $823 $694 $768 reversed $701 $-1 #
straight-curve $-1 0 33.527430616473268 10.506905546077377 -1 0 0 I I #
coedge $-1 $824 $694 $825 $826 reversed $435 $-1 #
edge $-1 $695 -10.506905546077377 $827 10.506905546077377 $765 $828 forward 7 unknown #
point $-1 -75.123142185735645 33.527430616473268 10.506905546077377 #
coedge $-1 $697 $824 $750 $812 forward $435 $-1 #
edge $-1 $813 -3.1892586453876923 $760 -0.18925864538769233 $697 $829 forward 7 unknown #
straight-curve $-1 -75.123142185735645 -14.860452553651477 -1.8785172907753847 0 -1 0 I I #
point $-1 -75.123142185735645 -33.527430616473268 -1.8785172907753847 #
coedge $-1 $703 $754 $830 $831 reversed $675 $-1 #
edge $-1 $704 -10.506905546077377 $832 10.506905546077377 $703 $833 forward 7 unknown #
point $-1 75.123142185735645 33.527430616473268 10.506905546077377 #
straight-curve $-1 75.123142185735645 -33.527430616473268 0 0 0 -1 I I #
face $-1 $834 $835 $19 $-1 $836 reversed single #
loop $-1 $-1 $837 $709 #
plane-surface $-1 0 -25.914379598132641 -3.3785172907753847 0 -1 0 0 0 -1 forward_v I I I I #
coedge $-1 $838 $839 $840 $841 reversed $710 $-1 #
coedge $-1 $842 $712 $843 $844 reversed $623 $-1 #
coedge $-1 $712 $842 $845 $846 reversed $623 $-1 #
coedge $-1 $847 $848 $712 $785 forward $835 $-1 #
edge $-1 $849 -18.666978062821791 $850 -11.053927044481163 $784 $851 forward 7 unknown #
coedge $-1 $713 $722 $852 $853 forward $532 $-1 #
coedge $-1 $854 $714 $713 $788 reversed $634 $-1 #
edge $-1 $855 -33.527430616473268 $716 -15.370513108856315 $787 $726 forward 7 unknown #
straight-curve $-1 -75.123142185735645 15.370513108856315 56.73653387859509 0 0 1 I I #
point $-1 -75.123142185735645 15.370513108856315 10.506905546077377 #
straight-curve $-1 -75.123142185735645 4.9078243485426469 7.2329024626974396 0 1 0 I I #
coedge $-1 $720 $856 $842 $857 forward $634 $-1 #
coedge $-1 $843 $723 $720 $794 forward $800 $-1 #
edge $-1 $725 -10.506905546077377 $858 1.8785172907753847 $720 $859 forward 7 unknown #
face $-1 $-1 $860 $19 $-1 $861 reversed single #
plane-surface $-1 -75.123142185735645 0 0 1 0 0 0 0 -1 forward_v I I I I #
coedge $-1 $848 $862 $722 $798 reversed $835 $-1 #
edge $-1 $801 -33.527430616473268 $863 33.527430616473268 $797 $864 forward 7 unknown #
coedge $-1 $723 $843 $848 $865 reversed $800 $-1 #
loop $-1 $-1 $843 $866 #
vertex $-1 $798 $867 #
straight-curve $-1 0 -33.527430616473268 10.506905546077377 1 0 0 I I #
point $-1 -75.123142185735645 -33.527430616473268 10.506905546077377 #
point $-1 -75.123142185735645 15.370513108856315 7.2329024626974388 #
edge $-1 $736 -75.123142185735645 $740 75.123142185735645 $733 $868 forward 7 unknown #
point $-1 75.123142185735645 -33.527430616473268 -10.506905546077377 #
straight-curve $-1 0 33.527430616473268 -10.506905546077377 1 0 0 I I #
point $-1 -75.123142185735645 -33.527430616473268 -10.506905546077377 #
loop $-1 $-1 $830 $745 #
plane-surface $-1 0 0 -10.506905546077377 0 0 1 1 0 0 forward_v I I I I #
straight-curve $-1 75.123142185735645 -25.914379598132641 -1.6892586453876923 0 0 -1 I I #
edge $-1 $817 -18.666978062821791 $813 -11.053927044481163 $770 $869 forward 7 unknown #
vertex $-1 $812 $870 #
straight-curve $-1 0 -25.914379598132641 -4.8785172907753847 1 0 0 I I #
coedge $-1 $871 $752 $824 $872 forward $746 $-1 #
coedge $-1 $752 $871 $754 $819 reversed $746 $-1 #
vertex $-1 $872 $873 #
straight-curve $-1 0 -33.527430616473268 -4.8785172907753847 -1 0 0 I I #
edge $-1 $756 4.8785172907753847 $874 10.506905546077377 $754 $777 forward 7 unknown #
point $-1 75.123142185735645 -25.914379598132641 -4.8785172907753847 #
point $-1 75.123142185735645 -33.527430616473268 -4.8785172907753847 #
point $-1 -75.123142185735645 -25.914379598132641 -1.8785172907753847 #
coedge $-1 $765 $764 $875 $876 reversed $701 $-1 #
coedge $-1 $770 $767 $815 $872 reversed $435 $-1 #
coedge $-1 $875 $877 $767 $826 forward $809 $-1 #
edge $-1 $878 -33.527430616473268 $827 33.527430616473268 $767 $879 forward 7 unknown #
vertex $-1 $876 $880 #
straight-curve $-1 -75.123142185735645 33.527430616473268 0 0 0 -1 I I #
straight-curve $-1 -75.123142185735645 -25.914379598132641 -1.6892586453876923 0 0 1 I I #
coedge $-1 $877 $875 $774 $831 forward $809 $-1 #
edge $-1 $832 -33.527430616473268 $874 33.527430616473268 $774 $881 forward 7 unknown #
vertex $-1 $831 $882 #
straight-curve $-1 75.123142185735645 33.527430616473268 0 0 0 -1 I I #
face $-1 $883 $884 $19 $-1 $885 reversed single #
loop $-1 $-1 $784 $778 #
plane-surface $-1 75.123142185735645 0 0 -1 0 0 0 0 1 forward_v I I I I #
coedge $-1 $845 $886 $847 $887 reversed $779 $-1 #
coedge $-1 $888 $781 $886 $889 reversed $710 $-1 #
coedge $-1 $781 $888 $890 $891 reversed $710 $-1 #
coedge $-1 $892 $847 $781 $841 forward $835 $-1 #
edge $-1 $893 11.053927044481163 $894 18.666978062821791 $840 $895 forward 7 unknown #
coedge $-1 $783 $782 $792 $857 reversed $623 $-1 #
coedge $-1 $799 $793 $782 $844 forward $800 $-1 #
edge $-1 $858 -75.123142185735645 $849 75.123142185735645 $843 $896 forward 7 unknown #
coedge $-1 $897 $837 $783 $846 forward $779 $-1 #
edge $-1 $850 -75.123142185735645 $898 75.123142185735645 $845 $899 forward 7 unknown #
coedge $-1 $840 $784 $837 $887 forward $835 $-1 #
coedge $-1 $784 $797 $799 $865 forward $835 $-1 #
vertex $-1 $844 $900 #
vertex $-1 $785 $901 #
straight-curve $-1 75.123142185735645 -14.860452553651477 -1.8785172907753847 0 1 0 I I #
coedge $-1 $902 $903 $786 $853 reversed $860 $-1 #
edge $-1 $863 -75.123142185735645 $855 75.123142185735645 $852 $904 forward 7 unknown #
coedge $-1 $905 $787 $903 $906 forward $634 $-1 #
vertex $-1 $853 $907 #
coedge $-1 $792 $908 $897 $909 forward $634 $-1 #
edge $-1 $898 11.053927044481163 $858 18.666978062821791 $792 $910 forward 7 unknown #
vertex $-1 $857 $911 #
straight-curve $-1 -75.123142185735645 -33.527430616473268 0 0 0 -1 I I #
loop $-1 $-1 $902 $795 #
plane-surface $-1 0 33.527430616473268 0 0 -1 0 0 0 -1 forward_v I I I I #
coedge $-1 $797 $912 $902 $913 reversed $835 $-1 #
vertex $-1 $798 $914 #
straight-curve $-1 75.123142185735645 0 10.506905546077377 0 1 0 I I #
edge $-1 $801 -10.506905546077377 $849 1.8785172907753847 $848 $915 forward 7 unknown #
face $-1 $721 $800 $19 $-1 $885 reversed single #
point $-1 75.123142185735645 -33.527430616473268 10.506905546077377 #
straight-curve $-1 0 -33.527430616473268 -10.506905546077377 -1 0 0 I I #
straight-curve $-1 -75.123142185735645 -14.860452553651477 -4.8785172907753847 0 1 0 I I #
point $-1 -75.123142185735645 -25.914379598132641 -4.8785172907753847 #
coedge $-1 $816 $815 $877 $916 reversed $746 $-1 #
edge $-1 $817 4.8785172907753847 $878 10.506905546077377 $824 $700 forward 7 unknown #
point $-1 -75.123142185735645 -33.527430616473268 -4.8785172907753847 #
vertex $-1 $819 $917 #
coedge $-1 $830 $825 $823 $876 forward $809 $-1 #
edge $-1 $827 -75.123142185735645 $832 75.123142185735645 $823 $918 forward 7 unknown #
coedge $-1 $825 $830 $871 $916 forward $809 $-1 #
vertex $-1 $826 $919 #
straight-curve $-1 -75.123142185735645 0 -10.506905546077377 0 1 0 I I #
point $-1 -75.123142185735645 33.527430616473268 -10.506905546077377 #
straight-curve $-1 75.123142185735645 0 -10.506905546077377 0 -1 0 I I #
point $-1 75.123142185735645 33.527430616473268 -10.506905546077377 #
face $-1 $866 $920 $19 $-1 $921 reversed single #
loop $-1 $-1 $890 $834 #
plane-surface $-1 0 -33.527430616473268 0 0 1 0 0 0 1 forward_v I I I I #
coedge $-1 $837 $897 $838 $889 forward $779 $-1 #
edge $-1 $850 0.18925864538769233 $893 3.1892586453876923 $847 $922 forward 7 unknown #
coedge $-1 $839 $838 $908 $923 reversed $710 $-1 #
edge $-1 $924 -75.123142185735645 $893 75.123142185735645 $886 $925 forward 7 unknown #
coedge $-1 $926 $927 $839 $891 forward $884 $-1 #
edge $-1 $894 -75.123142185735645 $928 75.123142185735645 $890 $929 forward 7 unknown #
coedge $-1 $912 $840 $927 $930 forward $835 $-1 #
vertex $-1 $841 $931 #
vertex $-1 $930 $932 #
straight-curve $-1 75.123142185735645 -14.860452553651477 -4.8785172907753847 0 -1 0 I I #
straight-curve $-1 0 -33.527430616473268 -1.8785172907753847 1 0 0 I I #
coedge $-1 $886 $845 $856 $909 reversed $779 $-1 #
vertex $-1 $857 $933 #
straight-curve $-1 0 -25.914379598132641 -1.8785172907753847 -1 0 0 I I #
point $-1 75.123142185735645 -33.527430616473268 -1.8785172907753847 #
point $-1 75.123142185735645 -25.914379598132641 -1.8785172907753847 #
coedge $-1 $934 $852 $862 $913 forward $860 $-1 #
coedge $-1 $852 $934 $854 $906 reversed $860 $-1 #
straight-curve $-1 0 33.527430616473268 10.506905546077377 -1 0 0 I I #
coedge $-1 $935 $854 $936 $937 reversed $634 $-1 #
edge $-1 $855 -10.506905546077377 $938 10.506905546077377 $903 $939 forward 7 unknown #
point $-1 -75.123142185735645 33.527430616473268 10.506905546077377 #
coedge $-1 $856 $935 $888 $923 forward $634 $-1 #
edge $-1 $924 -3.1892586453876923 $898 -0.18925864538769233 $856 $940 forward 7 unknown #
straight-curve $-1 -75.123142185735645 -14.860452553651477 -1.8785172907753847 0 -1 0 I I #
point $-1 -75.123142185735645 -33.527430616473268 -1.8785172907753847 #
coedge $-1 $862 $892 $941 $942 reversed $835 $-1 #
edge $-1 $863 -10.506905546077377 $943 10.506905546077377 $862 $944 forward 7 unknown #
point $-1 75.123142185735645 33.527430616473268 10.506905546077377 #
straight-curve $-1 75.123142185735645 -33.527430616473268 0 0 0 -1 I I #
edge $-1 $874 -75.123142185735645 $878 75.123142185735645 $871 $945 forward 7 unknown #
point $-1 75.123142185735645 -33.527430616473268 -10.506905546077377 #
straight-curve $-1 0 33.527430616473268 -10.506905546077377 1 0 0 I I #
point $-1 -75.123142185735645 -33.527430616473268 -10.506905546077377 #
loop $-1 $-1 $941 $883 #
plane-surface $-1 0 0 -10.506905546077377 0 0 1 1 0 0 forward_v I I I I #
straight-curve $-1 75.123142185735645 -25.914379598132641 -1.6892586453876923 0 0 -1 I I #
edge $-1 $928 -18.666978062821791 $924 -11.053927044481163 $908 $946 forward 7 unknown #
vertex $-1 $923 $947 #
straight-curve $-1 0 -25.914379598132641 -4.8785172907753847 1 0 0 I I #
coedge $-1 $948 $890 $935 $949 forward $884 $-1 #
coedge $-1 $890 $948 $892 $930 reversed $884 $-1 #
vertex $-1 $949 $950 #
straight-curve $-1 0 -33.527430616473268 -4.8785172907753847 -1 0 0 I I #
edge $-1 $894 4.8785172907753847 $951 10.506905546077377 $892 $915 forward 7 unknown #
point $-1 75.123142185735645 -25.914379598132641 -4.8785172907753847 #
point $-1 75.123142185735645 -33.527430616473268 -4.8785172907753847 #
point $-1 -75.123142185735645 -25.914379598132641 -1.8785172907753847 #
coedge $-1 $903 $902 $952 $953 reversed $860 $-1 #
coedge $-1 $908 $905 $926 $949 reversed $634 $-1 #
coedge $-1 $952 $954 $905 $937 forward $920 $-1 #
edge $-1 $955 -33.527430616473268 $938 33.527430616473268 $905 $956 forward 7 unknown #
vertex $-1 $953 $957 #
straight-curve $-1 -75.123142185735645 33.527430616473268 0 0 0 -1 I I #
straight-curve $-1 -75.123142185735645 -25.914379598132641 -1.6892586453876923 0 0 1 I I #
coedge $-1 $954 $952 $912 $942 forward $920 $-1 #
edge $-1 $943 -33.527430616473268 $951 33.527430616473268 $912 $958 forward 7 unknown #
vertex $-1 $942 $959 #
straight-curve $-1 75.123142185735645 33.527430616473268 0 0 0 -1 I I #
straight-curve $-1 0 -33.527430616473268 -10.506905546077377 -1 0 0 I I #
straight-curve $-1 -75.123142185735645 -14.860452553651477 -4.8785172907753847 0 1 0 I I #
point $-1 -75.123142185735645 -25.914379598132641 -4.8785172907753847 #
coedge $-1 $927 $926 $954 $960 reversed $884 $-1 #
edge $-1 $928 4.8785172907753847 $955 10.506905546077377 $935 $859 forward 7 unknown #
point $-1 -75.123142185735645 -33.527430616473268 -4.8785172907753847 #
vertex $-1 $930 $961 #
coedge $-1 $941 $936 $934 $953 forward $920 $-1 #
edge $-1 $938 -75.123142185735645 $943 75.123142185735645 $934 $962 forward 7 unknown #
coedge $-1 $936 $941 $948 $960 forward $920 $-1 #
vertex $-1 $937 $963 #
straight-curve $-1 -75.123142185735645 0 -10.506905546077377 0 1 0 I I #
point $-1 -75.123142185735645 33.527430616473268 -10.506905546077377 #
straight-curve $-1 75.123142185735645 0 -10.506905546077377 0 -1 0 I I #
point $-1 75.123142185735645 33.527430616473268 -10.506905546077377 #
edge $-1 $951 -75.123142185735645 $955 75.123142185735645 $948 $964 forward 7 unknown #
point $-1 75.123142185735645 -33.527430616473268 -10.506905546077377 #
straight-curve $-1 0 33.527430616473268 -10.506905546077377 1 0 0 I I #
point $-1 -75.123142185735645 -33.527430616473268 -10.506905546077377 #
straight-curve $-1 0 -33.527430616473268 -10.506905546077377 -1 0 0 I I #
End-of-ACIS-data 