500 0 8 0           
7 Unknown 11 ACIS 5.0 NT 24 Fri Mar 26 03:18:16 1999 
-1 9.9999999999999995e-007 1e-010 
body $-1 $8 $-1 $9 #
body $-1 $10 $-1 $11 #
body $-1 $12 $-1 $13 #
body $-1 $14 $-1 $15 #
body $-1 $16 $-1 $17 #
body $-1 $18 $-1 $19 #
body $-1 $20 $-1 $21 #
body $-1 $22 $-1 $23 #
lump $-1 $-1 $24 $0 #
transform $-1 1 0 0 0 1 0 0 0 1 56.451918088320568 26.441625673266593 5.6470991076851593 1 rotate no_reflect no_shear #
lump $-1 $-1 $25 $1 #
transform $-1 1 0 0 0 1 0 0 0 1 56.451918088320568 26.441625673266593 5.6470991076851593 1 rotate no_reflect no_shear #
lump $-1 $-1 $26 $2 #
transform $-1 1 0 0 0 1 0 0 0 1 56.451918088320568 26.441625673266593 5.6470991076851593 1 rotate no_reflect no_shear #
lump $-1 $-1 $27 $3 #
transform $-1 1 0 0 0 1 0 0 0 1 56.451918088320568 26.441625673266593 5.6470991076851593 1 rotate no_reflect no_shear #
lump $-1 $-1 $28 $4 #
transform $-1 1 0 0 0 1 0 0 0 1 56.451918088320568 26.441625673266593 5.6470991076851593 1 rotate no_reflect no_shear #
lump $-1 $-1 $29 $5 #
transform $-1 1 0 0 0 1 0 0 0 1 56.451918088320568 26.441625673266593 5.6470991076851593 1 rotate no_reflect no_shear #
lump $-1 $-1 $30 $6 #
transform $-1 1 0 0 0 1 0 0 0 1 56.451918088320568 26.441625673266593 5.6470991076851593 1 rotate no_reflect no_shear #
lump $-1 $-1 $31 $7 #
transform $-1 1 0 0 0 1 0 0 0 1 56.451918088320568 26.441625673266593 5.6470991076851593 1 rotate no_reflect no_shear #
shell $-1 $-1 $-1 $32 $-1 $8 #
shell $-1 $-1 $-1 $33 $-1 $10 #
shell $-1 $-1 $-1 $34 $-1 $12 #
shell $-1 $-1 $-1 $35 $-1 $14 #
shell $-1 $-1 $-1 $36 $-1 $16 #
shell $-1 $-1 $-1 $37 $-1 $18 #
shell $-1 $-1 $-1 $38 $-1 $20 #
shell $-1 $-1 $-1 $39 $-1 $22 #
face $-1 $40 $41 $24 $-1 $42 forward single #
face $-1 $43 $44 $25 $-1 $45 reversed single #
face $-1 $46 $47 $26 $-1 $48 reversed single #
face $-1 $49 $50 $27 $-1 $51 reversed single #
face $-1 $52 $53 $28 $-1 $54 forward single #
face $-1 $55 $56 $29 $-1 $57 reversed single #
face $-1 $58 $59 $30 $-1 $60 forward single #
face $-1 $61 $62 $31 $-1 $63 forward single #
face $-1 $64 $65 $24 $-1 $66 reversed single #
loop $-1 $-1 $67 $32 #
plane-surface $-1 0 0 5.6470991076851593 0 0 1 1 0 0 forward_v I I I I #
face $-1 $68 $69 $25 $-1 $70 reversed single #
loop $-1 $-1 $71 $33 #
plane-surface $-1 -53.830605583640114 0 2.6470991076851593 0 0 1 1 0 0 forward_v I I I I #
face $-1 $72 $73 $26 $-1 $74 reversed single #
loop $-1 $-1 $75 $34 #
plane-surface $-1 53.830605583640121 0 2.6470991076851593 0 0 1 1 0 0 forward_v I I I I #
face $-1 $76 $77 $27 $-1 $78 reversed single #
loop $-1 $-1 $79 $35 #
plane-surface $-1 45.070335464791086 -26.441625673266586 2.4688054668067991 0 -0.69465837861970381 0.71933979245794832 1 0 0 forward_v I I I I #
face $-1 $80 $81 $28 $-1 $82 forward single #
loop $-1 $83 $84 $36 #
cone-surface $-1 45.070335464791086 -24.448686815688781 3.6982823910170057 0 0.69465837861970381 -0.71933979245794832 0.5 0 0 1 I I 0 1 0.5 forward I I I I #
face $-1 $85 $86 $29 $-1 $87 reversed single #
loop $-1 $-1 $88 $37 #
plane-surface $-1 18.422263543062428 80.903879048287678 112.3180784260143 1 0 0 0 -0.77714596973225614 -0.62932038083071107 forward_v I I I I #
face $-1 $89 $90 $30 $-1 $91 forward single #
loop $-1 $92 $93 $38 #
cone-surface $-1 24.085160418280807 23.682238306409669 2.4693963904029474 0 -0.77714596973225614 -0.62932038083071107 1 0 0 1 I I 0 1 1 forward I I I I #
face $-1 $94 $95 $31 $-1 $96 forward single #
loop $-1 $97 $98 $39 #
cone-surface $-1 32.57950573110837 23.682238306409669 2.4693963904029474 0 -0.77714596973225614 -0.62932038083071107 1 0 0 1 I I 0 1 1 forward I I I I #
face $-1 $99 $100 $24 $-1 $101 reversed single #
loop $-1 $-1 $102 $40 #
plane-surface $-1 0 0 -5.6470991076851593 0 0 1 1 0 0 forward_v I I I I #
coedge $-1 $103 $104 $105 $106 forward $41 $-1 #
face $-1 $107 $108 $25 $-1 $109 reversed single #
loop $-1 $-1 $110 $43 #
plane-surface $-1 -51.209293078959661 0 4.1470991076851593 -1 0 0 0 0 1 forward_v I I I I #
coedge $-1 $111 $112 $113 $114 forward $44 $-1 #
face $-1 $115 $116 $26 $-1 $117 forward single #
loop $-1 $-1 $118 $46 #
plane-surface $-1 51.209293078959668 0 4.1470991076851593 1 0 0 0 0 -1 forward_v I I I I #
coedge $-1 $119 $120 $121 $122 reversed $47 $-1 #
face $-1 $123 $124 $27 $-1 $125 forward single #
loop $-1 $-1 $126 $49 #
plane-surface $-1 38.931377850622518 -104.87122145167677 83.685027549818031 1 0 0 0 0.69465837861970381 -0.71933979245794832 forward_v I I I I #
coedge $-1 $127 $128 $129 $130 reversed $50 $-1 #
face $-1 $-1 $131 $28 $-1 $132 forward single #
loop $-1 $133 $134 $52 #
cone-surface $-1 45.070335464791086 -23.927693031724004 3.1587775466735444 0 0.69465837861970381 -0.71933979245794832 0.25 0 0 1 I I -0.70710678118654746 0.70710678118654746 0.25 forward I I I I #
loop $-1 $-1 $135 $36 #
coedge $-1 $84 $84 $136 $137 reversed $53 $-1 #
face $-1 $138 $139 $29 $-1 $140 reversed single #
loop $-1 $-1 $141 $55 #
plane-surface $-1 28.332333074694589 -6.8388822036998818 41.265393246082283 0 0.77714596973225614 0.62932038083071107 1 0 0 forward_v I I I I #
coedge $-1 $142 $143 $144 $145 reversed $56 $-1 #
face $-1 $-1 $146 $30 $-1 $147 forward single #
loop $-1 $148 $149 $58 #
cone-surface $-1 24.085160418280807 22.752969339458787 1.7168892386549057 0 -0.77714596973225614 -0.62932038083071107 0.5 0 0 1 I I -0.70710678118654735 0.70710678118654768 0.5 forward I I I I #
loop $-1 $-1 $150 $38 #
coedge $-1 $93 $93 $151 $152 reversed $59 $-1 #
face $-1 $-1 $153 $31 $-1 $154 forward single #
loop $-1 $155 $156 $61 #
cone-surface $-1 32.57950573110837 22.752969339458787 1.7168892386549057 0 -0.77714596973225614 -0.62932038083071107 0.5 0 0 1 I I -0.70710678118654735 0.70710678118654768 0.5 forward I I I I #
loop $-1 $-1 $157 $39 #
coedge $-1 $98 $98 $158 $159 reversed $62 $-1 #
face $-1 $160 $161 $24 $-1 $162 reversed single #
loop $-1 $-1 $163 $64 #
plane-surface $-1 0 -26.441625673266593 0 0 1 0 0 0 1 forward_v I I I I #
coedge $-1 $164 $165 $166 $167 forward $65 $-1 #
coedge $-1 $168 $67 $169 $170 forward $41 $-1 #
coedge $-1 $67 $168 $171 $172 forward $41 $-1 #
coedge $-1 $173 $174 $67 $106 reversed $175 $-1 #
edge $-1 $176 -26.441625673266593 $177 26.441625673266593 $105 $178 forward 7 unknown #
face $-1 $179 $180 $25 $-1 $181 reversed single #
loop $-1 $-1 $182 $68 #
plane-surface $-1 0 26.441625673266593 0 0 -1 0 0 0 -1 forward_v I I I I #
coedge $-1 $113 $183 $184 $185 reversed $69 $-1 #
coedge $-1 $186 $71 $187 $188 reversed $44 $-1 #
coedge $-1 $71 $186 $189 $190 reversed $44 $-1 #
coedge $-1 $191 $110 $71 $114 reversed $69 $-1 #
edge $-1 $192 -26.441625673266593 $193 26.441625673266593 $113 $194 forward 7 unknown #
face $-1 $195 $196 $26 $-1 $197 reversed single #
loop $-1 $-1 $198 $72 #
plane-surface $-1 0 0 5.6470991076851593 0 0 1 1 0 0 forward_v I I I I #
coedge $-1 $199 $200 $198 $201 reversed $73 $-1 #
coedge $-1 $202 $75 $203 $204 reversed $47 $-1 #
coedge $-1 $75 $202 $205 $206 reversed $47 $-1 #
coedge $-1 $207 $208 $75 $122 forward $209 $-1 #
edge $-1 $210 -26.441625673266593 $211 26.441625673266593 $121 $212 forward 7 unknown #
face $-1 $213 $214 $27 $-1 $215 reversed single #
loop $-1 $-1 $129 $76 #
plane-surface $-1 0 0 5.6470991076851593 0 0 1 1 0 0 forward_v I I I I #
coedge $-1 $216 $217 $218 $219 reversed $77 $-1 #
coedge $-1 $220 $79 $221 $222 reversed $50 $-1 #
coedge $-1 $79 $220 $216 $223 forward $50 $-1 #
coedge $-1 $218 $224 $79 $130 forward $124 $-1 #
edge $-1 $225 -28.674125346564125 $226 -16.396210118226975 $129 $227 forward 7 unknown #
loop $-1 $-1 $136 $80 #
plane-surface $-1 45.070335464791086 -26.441625673266586 2.4688054668067991 0 -0.69465837861970381 0.71933979245794832 1 0 0 forward_v I I I I #
loop $-1 $-1 $228 $52 #
coedge $-1 $134 $134 $135 $229 reversed $81 $-1 #
coedge $-1 $135 $135 $134 $229 forward $83 $-1 #
coedge $-1 $136 $136 $84 $137 forward $131 $-1 #
edge $-1 $230 -1.4093331550183337e-015 $230 6.2831853071795987 $136 $231 forward 7 unknown #
face $-1 $232 $233 $29 $-1 $234 reversed single #
loop $-1 $-1 $235 $85 #
plane-surface $-1 38.242402606326749 80.903879048287678 112.3180784260143 -1 0 0 0 0.77714596973225614 0.62932038083071107 forward_v I I I I #
coedge $-1 $236 $237 $238 $239 reversed $86 $-1 #
coedge $-1 $143 $88 $240 $241 reversed $56 $-1 #
coedge $-1 $88 $142 $236 $242 reversed $56 $-1 #
coedge $-1 $238 $243 $88 $145 forward $244 $-1 #
edge $-1 $245 14.010313850877246 $246 18.447696620421581 $144 $247 forward 7 unknown #
loop $-1 $-1 $151 $89 #
plane-surface $-1 28.332333074694589 -6.8388822036998818 41.265393246082283 0 0.77714596973225614 0.62932038083071107 1 0 0 forward_v I I I I #
loop $-1 $-1 $248 $58 #
coedge $-1 $149 $149 $150 $249 reversed $90 $-1 #
coedge $-1 $150 $150 $149 $249 forward $92 $-1 #
coedge $-1 $151 $151 $93 $152 forward $146 $-1 #
edge $-1 $250 -1.5455508460520911e-015 $250 6.2831853071795987 $151 $251 forward 7 unknown #
loop $-1 $-1 $158 $94 #
plane-surface $-1 28.332333074694589 -6.8388822036998818 41.265393246082283 0 0.77714596973225614 0.62932038083071107 1 0 0 forward_v I I I I #
loop $-1 $-1 $252 $61 #
coedge $-1 $156 $156 $157 $253 reversed $95 $-1 #
coedge $-1 $157 $157 $156 $253 forward $97 $-1 #
coedge $-1 $158 $158 $98 $159 forward $153 $-1 #
edge $-1 $254 -1.5455508460520911e-015 $254 6.2831853071795987 $158 $255 forward 7 unknown #
face $-1 $256 $257 $24 $-1 $258 reversed single #
loop $-1 $-1 $259 $99 #
plane-surface $-1 -56.451918088320568 0 0 1 0 0 0 0 -1 forward_v I I I I #
coedge $-1 $260 $171 $261 $262 forward $100 $-1 #
coedge $-1 $263 $102 $260 $264 forward $65 $-1 #
coedge $-1 $102 $263 $265 $266 forward $65 $-1 #
coedge $-1 $174 $173 $102 $167 reversed $175 $-1 #
edge $-1 $267 -26.441625673266593 $268 26.441625673266593 $166 $269 forward 7 unknown #
coedge $-1 $104 $103 $270 $271 forward $41 $-1 #
coedge $-1 $272 $273 $103 $170 reversed $257 $-1 #
edge $-1 $177 -56.451918088320568 $274 56.451918088320568 $169 $275 forward 7 unknown #
coedge $-1 $163 $276 $104 $172 reversed $100 $-1 #
edge $-1 $277 -56.451918088320568 $176 56.451918088320568 $171 $278 forward 7 unknown #
coedge $-1 $166 $105 $276 $279 forward $175 $-1 #
coedge $-1 $105 $166 $272 $280 reversed $175 $-1 #
loop $-1 $-1 $173 $256 #
vertex $-1 $106 $281 #
vertex $-1 $106 $282 #
straight-curve $-1 56.451918088320568 0 5.6470991076851593 0 1 0 I I #
face $-1 $283 $284 $25 $-1 $285 forward single #
loop $-1 $-1 $286 $107 #
plane-surface $-1 -56.451918088320568 0 0 1 0 0 0 0 -1 forward_v I I I I #
coedge $-1 $189 $287 $191 $288 forward $108 $-1 #
coedge $-1 $110 $191 $289 $290 reversed $69 $-1 #
coedge $-1 $291 $187 $110 $185 forward $292 $-1 #
edge $-1 $193 0.57354955384257966 $293 3.5735495538425797 $184 $294 forward 7 unknown #
coedge $-1 $112 $111 $286 $295 reversed $44 $-1 #
coedge $-1 $184 $296 $111 $188 forward $292 $-1 #
edge $-1 $297 -29.536615296500511 $193 -24.293990287139604 $187 $298 forward 7 unknown #
coedge $-1 $299 $182 $112 $190 forward $108 $-1 #
edge $-1 $192 24.293990287139604 $300 29.536615296500511 $189 $301 forward 7 unknown #
coedge $-1 $183 $113 $182 $288 reversed $69 $-1 #
vertex $-1 $190 $302 #
vertex $-1 $188 $303 #
straight-curve $-1 -51.209293078959661 0 2.6470991076851593 0 -1 0 I I #
face $-1 $304 $305 $26 $-1 $306 reversed single #
loop $-1 $-1 $307 $115 #
plane-surface $-1 0 -26.441625673266593 0 0 1 0 0 0 1 forward_v I I I I #
coedge $-1 $308 $309 $118 $201 forward $116 $-1 #
coedge $-1 $310 $118 $311 $312 reversed $73 $-1 #
coedge $-1 $118 $310 $307 $313 reversed $73 $-1 #
edge $-1 $314 -26.441625673266593 $315 26.441625673266593 $198 $316 forward 7 unknown #
coedge $-1 $120 $119 $310 $317 forward $47 $-1 #
coedge $-1 $318 $307 $119 $204 forward $196 $-1 #
edge $-1 $319 24.293990287139607 $210 29.536615296500514 $203 $320 forward 7 unknown #
coedge $-1 $311 $321 $120 $206 forward $305 $-1 #
edge $-1 $211 -29.536615296500514 $322 -24.293990287139607 $205 $323 forward 7 unknown #
coedge $-1 $324 $121 $321 $325 reversed $209 $-1 #
coedge $-1 $121 $324 $318 $326 forward $209 $-1 #
loop $-1 $-1 $121 $304 #
vertex $-1 $204 $327 #
vertex $-1 $122 $328 #
straight-curve $-1 56.451918088320568 0 2.6470991076851593 0 1 0 I I #
face $-1 $-1 $329 $27 $-1 $330 forward single #
loop $-1 $-1 $331 $123 #
plane-surface $-1 0 -26.441625673266593 0 0 1 0 0 0 1 forward_v I I I I #
coedge $-1 $217 $126 $128 $223 reversed $77 $-1 #
coedge $-1 $126 $216 $331 $332 reversed $77 $-1 #
coedge $-1 $333 $129 $126 $219 forward $124 $-1 #
edge $-1 $226 -29.285204389107719 $334 -25.993985052571794 $218 $335 forward 7 unknown #
coedge $-1 $128 $127 $336 $337 reversed $50 $-1 #
coedge $-1 $338 $339 $127 $222 forward $329 $-1 #
edge $-1 $340 -10.093177131739342 $225 -5.5178437899121242 $221 $341 forward 7 unknown #
edge $-1 $342 -9.7385709978959816e-015 $226 4.5753333418272097 $216 $343 forward 7 unknown #
coedge $-1 $129 $333 $338 $344 forward $124 $-1 #
vertex $-1 $222 $345 #
vertex $-1 $130 $346 #
straight-curve $-1 22.535167732395543 -23.150406336730668 5.6470991076851593 -1 0 0 I I #
coedge $-1 $228 $228 $-1 $347 reversed $133 $-1 #
edge $-1 $348 0 $348 6.2831853071796004 $134 $349 forward 7 unknown #
vertex $-1 $137 $350 #
ellipse-curve $-1 45.070335464791086 -24.796016004998631 4.0579522872459775 0 -0.69465837861970381 0.71933979245794832 0.5 0 0 1 I I #
face $-1 $-1 $244 $29 $-1 $351 forward single #
loop $-1 $-1 $352 $138 #
plane-surface $-1 0 26.441625673266593 0 0 -1 0 0 0 -1 forward_v I I I I #
coedge $-1 $353 $354 $355 $356 reversed $139 $-1 #
coedge $-1 $357 $141 $143 $242 forward $86 $-1 #
coedge $-1 $141 $357 $353 $358 forward $86 $-1 #
coedge $-1 $355 $144 $141 $239 forward $244 $-1 #
edge $-1 $246 4.2560970057151337 $359 24.076236068979455 $238 $360 forward 7 unknown #
coedge $-1 $361 $362 $142 $241 forward $233 $-1 #
edge $-1 $363 -55.991651617221031 $245 -50.51194010532199 $240 $364 forward 7 unknown #
edge $-1 $246 45.83218021534411 $363 52.883251346533179 $143 $365 forward 7 unknown #
coedge $-1 $144 $355 $361 $366 forward $244 $-1 #
loop $-1 $-1 $355 $232 #
vertex $-1 $241 $367 #
vertex $-1 $145 $368 #
straight-curve $-1 18.422263543062428 40.451939524143839 5.6470991076851575 0 -1 0 I I #
coedge $-1 $248 $248 $-1 $369 reversed $148 $-1 #
edge $-1 $370 0 $370 6.2831853071796004 $149 $371 forward 7 unknown #
vertex $-1 $152 $372 #
ellipse-curve $-1 24.085160418280807 24.222934288494425 2.9072433517356346 0 0.77714596973225614 0.62932038083071107 1 0 0 1 I I #
coedge $-1 $252 $252 $-1 $373 reversed $155 $-1 #
edge $-1 $374 0 $374 6.2831853071796004 $156 $375 forward 7 unknown #
vertex $-1 $159 $376 #
ellipse-curve $-1 32.57950573110837 24.222934288494425 2.9072433517356346 0 0.77714596973225614 0.62932038083071107 1 0 0 1 I I #
face $-1 $-1 $175 $24 $-1 $377 reversed single #
loop $-1 $-1 $272 $160 #
plane-surface $-1 0 26.441625673266593 0 0 -1 0 0 0 -1 forward_v I I I I #
coedge $-1 $378 $270 $273 $379 forward $161 $-1 #
coedge $-1 $276 $163 $164 $264 reversed $100 $-1 #
coedge $-1 $270 $378 $163 $262 reversed $161 $-1 #
edge $-1 $277 -5.6470991076851593 $380 5.6470991076851593 $261 $381 forward 7 unknown #
coedge $-1 $165 $164 $378 $382 forward $65 $-1 #
edge $-1 $268 -56.451918088320568 $380 56.451918088320568 $260 $383 forward 7 unknown #
coedge $-1 $273 $272 $165 $266 reversed $257 $-1 #
edge $-1 $384 -56.451918088320568 $267 56.451918088320568 $265 $385 forward 7 unknown #
vertex $-1 $167 $386 #
vertex $-1 $279 $387 #
straight-curve $-1 56.451918088320568 0 -5.6470991076851593 0 -1 0 I I #
coedge $-1 $259 $261 $168 $271 reversed $161 $-1 #
edge $-1 $274 -26.441625673266593 $277 26.441625673266593 $270 $388 forward 7 unknown #
coedge $-1 $265 $169 $174 $280 forward $257 $-1 #
coedge $-1 $169 $265 $259 $379 reversed $257 $-1 #
vertex $-1 $170 $389 #
straight-curve $-1 0 26.441625673266593 5.6470991076851593 -1 0 0 I I #
coedge $-1 $171 $260 $173 $279 reversed $100 $-1 #
vertex $-1 $271 $390 #
straight-curve $-1 0 -26.441625673266593 5.6470991076851593 1 0 0 I I #
edge $-1 $176 -5.6470991076851593 $268 5.6470991076851593 $173 $391 forward 7 unknown #
edge $-1 $177 -5.6470991076851593 $267 5.6470991076851593 $174 $392 forward 7 unknown #
point $-1 56.451918088320568 -26.441625673266593 5.6470991076851593 #
point $-1 56.451918088320568 26.441625673266593 5.6470991076851593 #
face $-1 $-1 $292 $25 $-1 $393 reversed single #
loop $-1 $-1 $289 $179 #
plane-surface $-1 0 0 5.6470991076851593 0 0 1 1 0 0 forward_v I I I I #
coedge $-1 $394 $395 $186 $295 forward $180 $-1 #
coedge $-1 $182 $299 $396 $397 reversed $108 $-1 #
edge $-1 $398 -3.5735495538425797 $192 -0.57354955384257966 $182 $399 forward 7 unknown #
coedge $-1 $396 $400 $183 $290 forward $284 $-1 #
edge $-1 $293 -26.441625673266593 $398 26.441625673266593 $289 $401 forward 7 unknown #
coedge $-1 $296 $184 $400 $402 reversed $292 $-1 #
loop $-1 $-1 $184 $283 #
vertex $-1 $185 $403 #
straight-curve $-1 -51.209293078959661 -26.441625673266593 2.0735495538425797 0 0 1 I I #
edge $-1 $300 -26.441625673266593 $297 26.441625673266593 $286 $404 forward 7 unknown #
coedge $-1 $187 $291 $394 $405 forward $292 $-1 #
vertex $-1 $295 $406 #
straight-curve $-1 -26.915302791820057 -26.441625673266593 2.6470991076851593 1 0 0 I I #
coedge $-1 $287 $189 $395 $407 reversed $108 $-1 #
vertex $-1 $295 $408 #
straight-curve $-1 -26.915302791820057 26.441625673266593 2.6470991076851593 -1 0 0 I I #
point $-1 -51.209293078959661 26.441625673266593 2.6470991076851593 #
point $-1 -51.209293078959661 -26.441625673266593 2.6470991076851593 #
face $-1 $-1 $209 $26 $-1 $409 reversed single #
loop $-1 $-1 $311 $195 #
plane-surface $-1 0 26.441625673266593 0 0 -1 0 0 0 -1 forward_v I I I I #
coedge $-1 $203 $410 $200 $313 forward $196 $-1 #
coedge $-1 $411 $198 $410 $412 forward $116 $-1 #
coedge $-1 $198 $411 $413 $414 forward $116 $-1 #
coedge $-1 $200 $199 $202 $317 reversed $73 $-1 #
coedge $-1 $413 $205 $199 $312 forward $305 $-1 #
edge $-1 $322 0.57354955384257966 $314 3.5735495538425797 $311 $415 forward 7 unknown #
edge $-1 $315 -3.5735495538425797 $319 -0.57354955384257966 $307 $416 forward 7 unknown #
vertex $-1 $312 $417 #
vertex $-1 $412 $418 #
straight-curve $-1 51.209293078959668 0 5.6470991076851593 0 -1 0 I I #
edge $-1 $319 -26.441625673266593 $322 26.441625673266593 $310 $419 forward 7 unknown #
coedge $-1 $410 $203 $208 $326 reversed $196 $-1 #
vertex $-1 $204 $420 #
straight-curve $-1 26.915302791820061 -26.441625673266593 2.6470991076851593 1 0 0 I I #
coedge $-1 $205 $413 $207 $325 forward $305 $-1 #
vertex $-1 $206 $421 #
straight-curve $-1 26.915302791820061 26.441625673266593 2.6470991076851593 -1 0 0 I I #
coedge $-1 $208 $207 $411 $422 reversed $209 $-1 #
edge $-1 $423 -5.6470991076851593 $211 -2.6470991076851593 $207 $424 forward 7 unknown #
edge $-1 $425 -5.6470991076851593 $210 -2.6470991076851593 $208 $426 forward 7 unknown #
point $-1 56.451918088320575 -26.441625673266593 2.6470991076851593 #
point $-1 56.451918088320575 26.441625673266593 2.6470991076851593 #
loop $-1 $-1 $221 $213 #
plane-surface $-1 51.209293078959668 0 4.1470991076851593 1 0 0 0 0 -1 forward_v I I I I #
coedge $-1 $336 $427 $217 $332 forward $214 $-1 #
edge $-1 $334 36.195414667223858 $342 39.373708308102223 $331 $428 forward 7 unknown #
coedge $-1 $224 $218 $427 $429 forward $124 $-1 #
vertex $-1 $429 $430 #
straight-curve $-1 38.931377850622518 -52.435610725838387 5.6470991076851575 0 -1 0 I I #
coedge $-1 $431 $331 $220 $337 forward $214 $-1 #
edge $-1 $342 16.396210118226975 $340 28.674125346564111 $336 $432 forward 7 unknown #
coedge $-1 $339 $221 $224 $344 reversed $329 $-1 #
coedge $-1 $221 $338 $431 $433 reversed $329 $-1 #
vertex $-1 $433 $434 #
straight-curve $-1 51.209293078959668 -19.181201730079906 9.4801155282623171 0 0.71933979245794832 0.69465837861970381 I I #
vertex $-1 $337 $435 #
straight-curve $-1 38.931377850622518 -26.441625673266586 2.4688054668067991 0 0.71933979245794832 0.69465837861970381 I I #
edge $-1 $436 -26.441625673266593 $225 -23.150406336730672 $224 $437 forward 7 unknown #
point $-1 51.209293078959668 -23.150406336730672 5.6470991076851593 #
point $-1 38.931377850622518 -23.150406336730668 5.6470991076851593 #
edge $-1 $438 1 $438 0 $228 $-1 forward 7 unknown #
vertex $-1 $229 $439 #
ellipse-curve $-1 45.070335464791086 -24.101357626378931 3.3386124947880313 0 -0.69465837861970381 0.71933979245794832 0.5 0 0 1 I I #
point $-1 45.570335464791086 -24.796016004998634 4.0579522872459801 #
plane-surface $-1 0 0 5.6470991076851593 0 0 1 1 0 0 forward_v I I I I #
coedge $-1 $362 $361 $354 $440 forward $233 $-1 #
coedge $-1 $354 $235 $237 $358 reversed $139 $-1 #
coedge $-1 $235 $353 $352 $440 reversed $139 $-1 #
coedge $-1 $243 $238 $235 $356 forward $244 $-1 #
edge $-1 $359 -18.447696620421581 $441 -14.010313850877246 $355 $442 forward 7 unknown #
coedge $-1 $237 $236 $362 $443 reversed $86 $-1 #
edge $-1 $444 -52.883251346533179 $359 -45.83218021534411 $353 $445 forward 7 unknown #
vertex $-1 $239 $446 #
straight-curve $-1 14.166166537347294 22.004242903722258 5.6470991076851575 1 0 0 I I #
coedge $-1 $352 $240 $243 $366 reversed $233 $-1 #
coedge $-1 $240 $352 $357 $443 forward $233 $-1 #
vertex $-1 $241 $447 #
straight-curve $-1 18.422263543062428 26.441625673266593 56.159039213007148 0 0 1 I I #
straight-curve $-1 18.422263543062428 -6.8388822036998818 41.265393246082283 0 0.62932038083071107 -0.77714596973225614 I I #
edge $-1 $441 -38.242402606326749 $245 -18.422263543062428 $361 $448 forward 7 unknown #
point $-1 18.422263543062428 26.441625673266593 5.6470991076851593 #
point $-1 18.422263543062428 22.004242903722258 5.6470991076851575 #
edge $-1 $449 1 $449 0 $248 $-1 forward 7 unknown #
vertex $-1 $249 $450 #
ellipse-curve $-1 24.085160418280807 23.141542324324917 2.0315494290702616 0 0.77714596973225614 0.62932038083071107 1 0 0 1 I I #
point $-1 25.085160418280807 24.222934288494422 2.9072433517356338 #
edge $-1 $451 1 $451 0 $252 $-1 forward 7 unknown #
vertex $-1 $253 $452 #
ellipse-curve $-1 32.57950573110837 23.141542324324917 2.0315494290702616 0 0.77714596973225614 0.62932038083071107 1 0 0 1 I I #
point $-1 33.57950573110837 24.222934288494422 2.9072433517356338 #
plane-surface $-1 56.451918088320568 0 0 -1 0 0 0 0 1 forward_v I I I I #
coedge $-1 $261 $259 $263 $382 reversed $161 $-1 #
edge $-1 $274 -5.6470991076851593 $384 5.6470991076851593 $273 $453 forward 7 unknown #
vertex $-1 $382 $454 #
straight-curve $-1 -56.451918088320568 -26.441625673266593 0 0 0 -1 I I #
edge $-1 $380 -26.441625673266593 $384 26.441625673266593 $378 $455 forward 7 unknown #
straight-curve $-1 0 -26.441625673266593 -5.6470991076851593 -1 0 0 I I #
vertex $-1 $266 $456 #
straight-curve $-1 0 26.441625673266593 -5.6470991076851593 1 0 0 I I #
point $-1 56.451918088320568 26.441625673266593 -5.6470991076851593 #
point $-1 56.451918088320568 -26.441625673266593 -5.6470991076851593 #
straight-curve $-1 -56.451918088320568 0 5.6470991076851593 0 -1 0 I I #
point $-1 -56.451918088320568 26.441625673266593 5.6470991076851593 #
point $-1 -56.451918088320568 -26.441625673266593 5.6470991076851593 #
straight-curve $-1 56.451918088320568 -26.441625673266593 0 0 0 -1 I I #
straight-curve $-1 56.451918088320568 26.441625673266593 0 0 0 -1 I I #
plane-surface $-1 0 -26.441625673266593 0 0 1 0 0 0 1 forward_v I I I I #
coedge $-1 $457 $286 $296 $405 reversed $180 $-1 #
coedge $-1 $286 $457 $299 $407 forward $180 $-1 #
coedge $-1 $458 $289 $287 $397 forward $284 $-1 #
edge $-1 $398 51.209293078959661 $459 56.451918088320568 $287 $460 forward 7 unknown #
vertex $-1 $397 $461 #
straight-curve $-1 -51.209293078959661 26.441625673266593 2.0735495538425797 0 0 -1 I I #
coedge $-1 $289 $458 $291 $402 forward $284 $-1 #
straight-curve $-1 -51.209293078959661 0 5.6470991076851593 0 1 0 I I #
edge $-1 $462 -56.451918088320568 $293 -51.209293078959661 $291 $463 forward 7 unknown #
point $-1 -51.209293078959661 -26.441625673266593 5.6470991076851593 #
straight-curve $-1 -56.451918088320568 0 2.6470991076851593 0 -1 0 I I #
edge $-1 $462 -5.6470991076851593 $297 -2.6470991076851593 $394 $464 forward 7 unknown #
point $-1 -56.451918088320568 -26.441625673266593 2.6470991076851593 #
edge $-1 $459 -5.6470991076851593 $300 -2.6470991076851593 $299 $465 forward 7 unknown #
point $-1 -56.451918088320568 26.441625673266593 2.6470991076851593 #
plane-surface $-1 56.451918088320568 0 0 -1 0 0 0 0 1 forward_v I I I I #
coedge $-1 $307 $318 $308 $412 reversed $196 $-1 #
coedge $-1 $309 $308 $324 $422 forward $116 $-1 #
edge $-1 $315 51.209293078959668 $425 56.451918088320568 $410 $466 forward 7 unknown #
coedge $-1 $321 $311 $309 $414 reversed $305 $-1 #
edge $-1 $423 -56.451918088320568 $314 -51.209293078959668 $413 $467 forward 7 unknown #
straight-curve $-1 51.209293078959668 26.441625673266593 2.0735495538425797 0 0 1 I I #
straight-curve $-1 51.209293078959668 -26.441625673266593 2.0735495538425797 0 0 -1 I I #
point $-1 51.209293078959668 26.441625673266593 5.6470991076851593 #
point $-1 51.209293078959668 -26.441625673266593 5.6470991076851593 #
straight-curve $-1 51.209293078959668 0 2.6470991076851593 0 1 0 I I #
point $-1 51.209293078959668 -26.441625673266593 2.6470991076851593 #
point $-1 51.209293078959668 26.441625673266593 2.6470991076851593 #
edge $-1 $425 -26.441625673266593 $423 26.441625673266593 $324 $468 forward 7 unknown #
vertex $-1 $422 $469 #
straight-curve $-1 56.451918088320568 26.441625673266593 0 0 0 -1 I I #
vertex $-1 $422 $470 #
straight-curve $-1 56.451918088320568 -26.441625673266593 0 0 0 -1 I I #
coedge $-1 $331 $431 $333 $429 reversed $214 $-1 #
straight-curve $-1 38.931377850622518 -26.441625673266593 41.842513774909015 0 0 -1 I I #
edge $-1 $334 38.931377850622518 $436 51.209293078959668 $427 $471 forward 7 unknown #
point $-1 38.931377850622518 -26.441625673266593 5.6470991076851593 #
coedge $-1 $427 $336 $339 $433 forward $214 $-1 #
straight-curve $-1 22.535167732395543 -26.441625673266593 2.4688054668067938 1 0 0 I I #
edge $-1 $340 -39.373708308102223 $436 -36.195414667223858 $431 $472 forward 7 unknown #
point $-1 51.209293078959654 -26.441625673266593 2.4688054668067925 #
point $-1 38.931377850622518 -26.441625673266593 2.4688054668067925 #
vertex $-1 $344 $473 #
straight-curve $-1 51.209293078959668 0 5.6470991076851593 0 1 0 I I #
vertex $-1 $347 $474 #
point $-1 45.570335464791086 -24.101357626378931 3.3386124947880313 #
edge $-1 $441 50.51194010532199 $444 55.991651617221031 $352 $475 forward 7 unknown #
vertex $-1 $366 $476 #
straight-curve $-1 38.242402606326749 40.451939524143839 5.6470991076851575 0 1 0 I I #
edge $-1 $444 -24.076236068979455 $363 -4.2560970057151337 $362 $477 forward 7 unknown #
vertex $-1 $443 $478 #
straight-curve $-1 38.242402606326749 -6.8388822036998818 41.265393246082283 0 -0.62932038083071107 0.77714596973225614 I I #
point $-1 38.242402606326749 22.004242903722258 5.6470991076851575 #
point $-1 18.422263543062428 26.441625673266593 0.16738759578611706 #
straight-curve $-1 0 26.441625673266593 5.6470991076851593 -1 0 0 I I #
vertex $-1 $369 $479 #
point $-1 25.085160418280807 23.141542324324917 2.0315494290702616 #
vertex $-1 $373 $480 #
point $-1 33.57950573110837 23.141542324324917 2.0315494290702616 #
straight-curve $-1 -56.451918088320568 26.441625673266593 0 0 0 -1 I I #
point $-1 -56.451918088320568 -26.441625673266593 -5.6470991076851593 #
straight-curve $-1 -56.451918088320568 0 -5.6470991076851593 0 1 0 I I #
point $-1 -56.451918088320568 26.441625673266593 -5.6470991076851593 #
coedge $-1 $395 $394 $458 $481 reversed $180 $-1 #
coedge $-1 $400 $396 $457 $481 forward $284 $-1 #
vertex $-1 $397 $482 #
straight-curve $-1 0 26.441625673266593 5.6470991076851593 -1 0 0 I I #
point $-1 -51.209293078959661 26.441625673266593 5.6470991076851593 #
vertex $-1 $481 $483 #
straight-curve $-1 0 -26.441625673266593 5.6470991076851593 1 0 0 I I #
straight-curve $-1 -56.451918088320568 -26.441625673266593 0 0 0 -1 I I #
straight-curve $-1 -56.451918088320568 26.441625673266593 0 0 0 -1 I I #
straight-curve $-1 0 -26.441625673266593 5.6470991076851593 1 0 0 I I #
straight-curve $-1 0 26.441625673266593 5.6470991076851593 -1 0 0 I I #
straight-curve $-1 56.451918088320568 0 5.6470991076851593 0 1 0 I I #
point $-1 56.451918088320568 26.441625673266593 5.6470991076851593 #
point $-1 56.451918088320568 -26.441625673266593 5.6470991076851593 #
straight-curve $-1 0 -26.441625673266593 5.6470991076851593 1 0 0 I I #
straight-curve $-1 51.209293078959654 -26.441625673266593 41.842513774909015 0 0 1 I I #
point $-1 51.209293078959668 -26.441625673266593 5.6470991076851593 #
point $-1 45.070335464791086 -23.754028437069078 2.9789425985590574 #
straight-curve $-1 38.242402606326749 26.441625673266593 56.159039213007148 0 0 -1 I I #
point $-1 38.242402606326749 26.441625673266593 5.6470991076851593 #
straight-curve $-1 14.166166537347294 26.441625673266593 0.16738759578611706 -1 0 0 I I #
point $-1 38.242402606326749 26.441625673266593 0.16738759578611706 #
point $-1 24.085160418280807 22.364396354592657 1.4022290482395501 #
point $-1 32.57950573110837 22.364396354592657 1.4022290482395501 #
edge $-1 $459 -26.441625673266593 $462 26.441625673266593 $457 $484 forward 7 unknown #
point $-1 -56.451918088320568 26.441625673266593 5.6470991076851593 #
point $-1 -56.451918088320568 -26.441625673266593 5.6470991076851593 #
straight-curve $-1 -56.451918088320568 0 5.6470991076851593 0 -1 0 I I #
End-of-ACIS-data 