500 0 6 0           
7 Unknown 11 ACIS 5.0 NT 24 Thu Mar 25 16:11:06 1999 
-1 9.9999999999999995e-007 1e-010 
body $-1 $6 $-1 $7 #
body $-1 $8 $-1 $9 #
body $-1 $10 $-1 $11 #
body $-1 $12 $-1 $13 #
body $-1 $14 $-1 $15 #
body $-1 $16 $-1 $17 #
lump $-1 $-1 $18 $0 #
transform $-1 1 0 0 0 1 0 0 0 1 78.547318948942532 37.761059655849401 10.922669134315202 1 rotate no_reflect no_shear #
lump $-1 $-1 $19 $1 #
transform $-1 1 0 0 0 1 0 0 0 1 78.547318948942532 37.761059655849401 10.922669134315202 1 rotate no_reflect no_shear #
lump $-1 $-1 $20 $2 #
transform $-1 1 0 0 0 1 0 0 0 1 78.547318948942532 37.761059655849401 10.922669134315202 1 rotate no_reflect no_shear #
lump $-1 $-1 $21 $3 #
transform $-1 1 0 0 0 1 0 0 0 1 78.547318948942532 37.761059655849401 10.922669134315202 1 rotate no_reflect no_shear #
lump $-1 $-1 $22 $4 #
transform $-1 1 0 0 0 1 0 0 0 1 78.547318948942532 37.761059655849401 10.922669134315202 1 rotate no_reflect no_shear #
lump $-1 $-1 $23 $5 #
transform $-1 1 0 0 0 1 0 0 0 1 78.547318948942532 37.761059655849401 10.922669134315202 1 rotate no_reflect no_shear #
shell $-1 $-1 $-1 $24 $-1 $6 #
shell $-1 $-1 $-1 $25 $-1 $8 #
shell $-1 $-1 $-1 $26 $-1 $10 #
shell $-1 $-1 $-1 $27 $-1 $12 #
shell $-1 $-1 $-1 $28 $-1 $14 #
shell $-1 $-1 $-1 $29 $-1 $16 #
face $-1 $30 $31 $18 $-1 $32 forward single #
face $-1 $33 $34 $19 $-1 $35 forward single #
face $-1 $36 $37 $20 $-1 $38 forward single #
face $-1 $39 $40 $21 $-1 $41 reversed single #
face $-1 $42 $43 $22 $-1 $44 forward single #
face $-1 $45 $46 $23 $-1 $47 forward single #
face $-1 $48 $49 $18 $-1 $50 reversed single #
loop $-1 $-1 $51 $24 #
plane-surface $-1 0 0 10.922669134315202 0 0 1 1 0 0 forward_v I I I I #
face $-1 $52 $53 $19 $-1 $54 reversed single #
loop $-1 $-1 $55 $25 #
plane-surface $-1 0 -31.239399157237578 8.0314525282609033 0 0 1 1 0 0 forward_v I I I I #
face $-1 $56 $57 $20 $-1 $58 reversed single #
loop $-1 $-1 $59 $26 #
plane-surface $-1 0 31.239399157237578 8.0314525282609033 0 0 1 1 0 0 forward_v I I I I #
face $-1 $60 $61 $21 $-1 $62 reversed single #
loop $-1 $-1 $63 $27 #
plane-surface $-1 -193.43906517840938 -13.328046796071542 114.7427600851865 0 -1 0 0.73135370988377701 0 -0.68199835119979291 forward_v I I I I #
face $-1 $64 $65 $22 $-1 $66 forward single #
loop $-1 $67 $68 $28 #
cone-surface $-1 -76.404676760426781 -21.463540983610262 8.7082508537538637 0.73135370988377701 0 -0.68199835119979291 0.34099917559989645 0 0.36567685494188851 1 I I 0 1 0.5 forward I I I I #
face $-1 $69 $70 $23 $-1 $71 forward single #
loop $-1 $72 $73 $29 #
cone-surface $-1 -76.404676760426781 -16.58224447108703 8.7082508537538637 0.73135370988377701 0 -0.68199835119979291 0.34099917559989645 0 0.36567685494188851 1 I I 0 1 0.5 forward I I I I #
face $-1 $74 $75 $18 $-1 $76 reversed single #
loop $-1 $-1 $77 $30 #
plane-surface $-1 0 0 -10.922669134315202 0 0 1 1 0 0 forward_v I I I I #
coedge $-1 $78 $79 $80 $81 forward $31 $-1 #
face $-1 $82 $83 $19 $-1 $84 reversed single #
loop $-1 $-1 $85 $33 #
plane-surface $-1 0 -31.239399157237578 2.3252104317908433 0 0 1 1 0 0 forward_v I I I I #
coedge $-1 $86 $87 $88 $89 reversed $34 $-1 #
face $-1 $90 $91 $20 $-1 $92 reversed single #
loop $-1 $-1 $93 $36 #
plane-surface $-1 0 31.239399157237578 2.3252104317908433 0 0 1 1 0 0 forward_v I I I I #
coedge $-1 $94 $95 $96 $97 reversed $37 $-1 #
face $-1 $98 $99 $21 $-1 $100 forward single #
loop $-1 $-1 $101 $39 #
plane-surface $-1 -78.547318948942547 -19.022892727348648 7.6044760565003884 -0.73135370988377701 0 0.68199835119979291 0.68199835119979291 0 0.73135370988377701 forward_v I I I I #
coedge $-1 $102 $103 $104 $105 reversed $40 $-1 #
face $-1 $-1 $106 $22 $-1 $107 forward single #
loop $-1 $108 $109 $42 #
cone-surface $-1 -75.626328658741485 -21.463540983610262 7.9824295243000005 0.73135370988377701 0 -0.68199835119979291 0.17049958779994823 0 0.18283842747094425 1 I I -0.70710678118654746 0.70710678118654746 0.25 forward I I I I #
loop $-1 $-1 $110 $28 #
coedge $-1 $68 $68 $111 $112 reversed $43 $-1 #
face $-1 $-1 $113 $23 $-1 $114 forward single #
loop $-1 $115 $116 $45 #
cone-surface $-1 -75.626328658741485 -16.58224447108703 7.9824295243000005 0.73135370988377701 0 -0.68199835119979291 0.17049958779994823 0 0.18283842747094425 1 I I -0.70710678118654746 0.70710678118654746 0.25 forward I I I I #
loop $-1 $-1 $117 $29 #
coedge $-1 $73 $73 $118 $119 reversed $46 $-1 #
face $-1 $120 $121 $18 $-1 $122 reversed single #
loop $-1 $-1 $123 $48 #
plane-surface $-1 0 -37.761059655849401 0 0 1 0 0 0 1 forward_v I I I I #
coedge $-1 $124 $125 $126 $127 forward $49 $-1 #
coedge $-1 $128 $51 $129 $130 forward $31 $-1 #
coedge $-1 $51 $128 $131 $132 forward $31 $-1 #
coedge $-1 $133 $134 $51 $81 reversed $135 $-1 #
edge $-1 $136 -37.761059655849401 $137 37.761059655849401 $80 $138 forward 7 unknown #
face $-1 $139 $140 $19 $-1 $141 reversed single #
loop $-1 $-1 $142 $52 #
plane-surface $-1 0 -24.717738658625755 5.1783314800258733 0 -1 0 0 0 -1 forward_v I I I I #
coedge $-1 $143 $144 $145 $146 reversed $53 $-1 #
coedge $-1 $147 $55 $148 $149 forward $34 $-1 #
coedge $-1 $55 $147 $150 $151 reversed $34 $-1 #
coedge $-1 $152 $153 $55 $89 forward $154 $-1 #
edge $-1 $155 9.0980390800069664 $156 22.141360077230612 $88 $157 forward 7 unknown #
face $-1 $158 $159 $20 $-1 $160 reversed single #
loop $-1 $-1 $161 $56 #
plane-surface $-1 0 24.717738658625755 5.1783314800258733 0 1 0 0 0 1 forward_v I I I I #
coedge $-1 $162 $163 $164 $165 reversed $57 $-1 #
coedge $-1 $166 $59 $167 $168 reversed $37 $-1 #
coedge $-1 $59 $166 $169 $170 forward $37 $-1 #
coedge $-1 $171 $172 $59 $97 forward $159 $-1 #
edge $-1 $173 -22.141360077230612 $174 -9.0980390800069664 $96 $175 forward 7 unknown #
face $-1 $176 $177 $21 $-1 $178 reversed single #
loop $-1 $-1 $179 $60 #
plane-surface $-1 0 0 10.922669134315202 0 0 1 1 0 0 forward_v I I I I #
coedge $-1 $180 $181 $182 $183 reversed $61 $-1 #
coedge $-1 $103 $63 $184 $185 reversed $40 $-1 #
coedge $-1 $63 $102 $180 $186 reversed $40 $-1 #
coedge $-1 $182 $187 $63 $105 forward $177 $-1 #
edge $-1 $188 46.448710908278052 $189 49.766903986092849 $104 $190 forward 7 unknown #
loop $-1 $-1 $111 $64 #
plane-surface $-1 -78.547318948942547 -19.022892727348648 7.6044760565003884 -0.73135370988377701 0 0.68199835119979291 0.68199835119979291 0 0.73135370988377701 forward_v I I I I #
loop $-1 $-1 $191 $42 #
coedge $-1 $109 $109 $110 $192 reversed $65 $-1 #
coedge $-1 $110 $110 $109 $192 forward $67 $-1 #
coedge $-1 $111 $111 $68 $112 forward $106 $-1 #
edge $-1 $193 0 $193 6.2831853071796004 $111 $194 forward 7 unknown #
loop $-1 $-1 $118 $69 #
plane-surface $-1 -78.547318948942547 -19.022892727348648 7.6044760565003884 -0.73135370988377701 0 0.68199835119979291 0.68199835119979291 0 0.73135370988377701 forward_v I I I I #
loop $-1 $-1 $195 $45 #
coedge $-1 $116 $116 $117 $196 reversed $70 $-1 #
coedge $-1 $117 $117 $116 $196 forward $72 $-1 #
coedge $-1 $118 $118 $73 $119 forward $113 $-1 #
edge $-1 $197 0 $197 6.2831853071796004 $118 $198 forward 7 unknown #
face $-1 $199 $200 $18 $-1 $201 reversed single #
loop $-1 $-1 $202 $74 #
plane-surface $-1 -78.547318948942532 0 0 1 0 0 0 0 -1 forward_v I I I I #
coedge $-1 $203 $131 $204 $205 forward $75 $-1 #
coedge $-1 $206 $77 $203 $207 forward $49 $-1 #
coedge $-1 $77 $206 $208 $209 forward $49 $-1 #
coedge $-1 $134 $133 $77 $127 reversed $135 $-1 #
edge $-1 $210 -37.761059655849401 $211 37.761059655849401 $126 $212 forward 7 unknown #
coedge $-1 $79 $78 $213 $214 forward $31 $-1 #
coedge $-1 $215 $216 $78 $130 reversed $200 $-1 #
edge $-1 $137 -78.547318948942532 $217 78.547318948942532 $129 $218 forward 7 unknown #
coedge $-1 $123 $219 $79 $132 reversed $75 $-1 #
edge $-1 $220 -78.547318948942532 $136 78.547318948942532 $131 $221 forward 7 unknown #
coedge $-1 $126 $80 $219 $222 forward $135 $-1 #
coedge $-1 $80 $126 $215 $223 reversed $135 $-1 #
loop $-1 $-1 $133 $199 #
vertex $-1 $81 $224 #
vertex $-1 $81 $225 #
straight-curve $-1 78.547318948942532 0 10.922669134315202 0 1 0 I I #
face $-1 $226 $227 $19 $-1 $228 reversed single #
loop $-1 $-1 $229 $82 #
plane-surface $-1 -78.547318948942532 0 0 1 0 0 0 0 -1 forward_v I I I I #
coedge $-1 $230 $148 $153 $231 reversed $83 $-1 #
coedge $-1 $232 $85 $233 $234 reversed $53 $-1 #
coedge $-1 $85 $232 $230 $235 forward $53 $-1 #
coedge $-1 $153 $152 $85 $146 forward $154 $-1 #
edge $-1 $236 -22.141360077230612 $237 -9.0980390800069664 $145 $238 forward 7 unknown #
coedge $-1 $87 $86 $229 $239 reversed $34 $-1 #
coedge $-1 $142 $240 $86 $149 reversed $83 $-1 #
edge $-1 $155 -78.547318948942532 $241 78.547318948942532 $148 $242 forward 7 unknown #
coedge $-1 $243 $244 $87 $151 forward $227 $-1 #
edge $-1 $156 -78.547318948942532 $245 78.547318948942532 $150 $246 forward 7 unknown #
coedge $-1 $145 $88 $244 $247 forward $154 $-1 #
coedge $-1 $88 $145 $142 $231 forward $154 $-1 #
loop $-1 $-1 $88 $226 #
vertex $-1 $89 $248 #
vertex $-1 $247 $249 #
straight-curve $-1 78.547318948942532 -15.619699578618789 8.0314525282609033 0 -1 0 I I #
face $-1 $250 $251 $20 $-1 $252 reversed single #
loop $-1 $-1 $96 $90 #
plane-surface $-1 78.547318948942532 0 0 -1 0 0 0 0 1 forward_v I I I I #
coedge $-1 $253 $169 $254 $255 reversed $91 $-1 #
coedge $-1 $256 $93 $253 $257 forward $57 $-1 #
coedge $-1 $93 $256 $258 $259 reversed $57 $-1 #
coedge $-1 $172 $171 $93 $165 forward $159 $-1 #
edge $-1 $260 9.0980390800069664 $261 22.141360077230612 $164 $262 forward 7 unknown #
coedge $-1 $95 $94 $263 $264 reversed $37 $-1 #
coedge $-1 $265 $266 $94 $168 forward $267 $-1 #
edge $-1 $268 -78.547318948942532 $173 78.547318948942532 $167 $269 forward 7 unknown #
coedge $-1 $161 $270 $95 $170 reversed $91 $-1 #
edge $-1 $271 -78.547318948942532 $174 78.547318948942532 $169 $272 forward 7 unknown #
coedge $-1 $164 $96 $270 $273 forward $159 $-1 #
coedge $-1 $96 $164 $265 $274 reversed $159 $-1 #
vertex $-1 $274 $275 #
vertex $-1 $97 $276 #
straight-curve $-1 78.547318948942532 15.619699578618789 8.0314525282609033 0 -1 0 I I #
face $-1 $-1 $277 $21 $-1 $278 forward single #
loop $-1 $-1 $279 $98 #
plane-surface $-1 -78.547318948942532 0 0 1 0 0 0 0 -1 forward_v I I I I #
coedge $-1 $280 $281 $282 $283 forward $99 $-1 #
coedge $-1 $284 $101 $103 $186 forward $61 $-1 #
coedge $-1 $101 $284 $285 $286 forward $61 $-1 #
coedge $-1 $279 $104 $101 $183 forward $177 $-1 #
edge $-1 $189 3.8166004323972178 $287 15.206292294951432 $182 $288 forward 7 unknown #
coedge $-1 $281 $280 $102 $185 forward $99 $-1 #
edge $-1 $289 -21.26647866886492 $188 -18.172213640262157 $184 $290 forward 7 unknown #
edge $-1 $189 2.0734513383776317e-014 $289 4.5370564652528058 $103 $291 forward 7 unknown #
coedge $-1 $104 $279 $281 $292 reversed $177 $-1 #
vertex $-1 $292 $293 #
vertex $-1 $105 $294 #
straight-curve $-1 -78.547318948942532 -13.328046796071542 57.371380042593252 0 0 -1 I I #
coedge $-1 $191 $191 $-1 $295 reversed $108 $-1 #
edge $-1 $296 0 $296 6.2831853071796004 $109 $297 forward 7 unknown #
vertex $-1 $112 $298 #
ellipse-curve $-1 -77.000186434641151 -21.463540983610262 9.2635725954078012 -0.73135370988377701 0 0.68199835119979291 0.34099917559989645 0 0.36567685494188851 1 I I #
coedge $-1 $195 $195 $-1 $299 reversed $115 $-1 #
edge $-1 $300 0 $300 6.2831853071796004 $116 $301 forward 7 unknown #
vertex $-1 $119 $302 #
ellipse-curve $-1 -77.000186434641151 -16.58224447108703 9.2635725954078012 -0.73135370988377701 0 0.68199835119979291 0.34099917559989645 0 0.36567685494188851 1 I I #
face $-1 $-1 $135 $18 $-1 $303 reversed single #
loop $-1 $-1 $215 $120 #
plane-surface $-1 0 37.761059655849401 0 0 -1 0 0 0 -1 forward_v I I I I #
coedge $-1 $304 $213 $216 $305 forward $121 $-1 #
coedge $-1 $219 $123 $124 $207 reversed $75 $-1 #
coedge $-1 $213 $304 $123 $205 reversed $121 $-1 #
edge $-1 $220 -10.922669134315202 $306 10.922669134315202 $204 $307 forward 7 unknown #
coedge $-1 $125 $124 $304 $308 forward $49 $-1 #
edge $-1 $211 -78.547318948942532 $306 78.547318948942532 $203 $309 forward 7 unknown #
coedge $-1 $216 $215 $125 $209 reversed $200 $-1 #
edge $-1 $310 -78.547318948942532 $210 78.547318948942532 $208 $311 forward 7 unknown #
vertex $-1 $127 $312 #
vertex $-1 $222 $313 #
straight-curve $-1 78.547318948942532 0 -10.922669134315202 0 -1 0 I I #
coedge $-1 $202 $204 $128 $214 reversed $121 $-1 #
edge $-1 $217 -37.761059655849401 $220 37.761059655849401 $213 $314 forward 7 unknown #
coedge $-1 $208 $129 $134 $223 forward $200 $-1 #
coedge $-1 $129 $208 $202 $305 reversed $200 $-1 #
vertex $-1 $130 $315 #
straight-curve $-1 0 37.761059655849401 10.922669134315202 -1 0 0 I I #
coedge $-1 $131 $203 $133 $222 reversed $75 $-1 #
vertex $-1 $214 $316 #
straight-curve $-1 0 -37.761059655849401 10.922669134315202 1 0 0 I I #
edge $-1 $136 -10.922669134315202 $211 10.922669134315202 $133 $317 forward 7 unknown #
edge $-1 $137 -10.922669134315202 $210 10.922669134315202 $134 $318 forward 7 unknown #
point $-1 78.547318948942532 -37.761059655849401 10.922669134315202 #
point $-1 78.547318948942532 37.761059655849401 10.922669134315202 #
face $-1 $-1 $154 $19 $-1 $319 reversed single #
loop $-1 $-1 $150 $139 #
plane-surface $-1 0 -37.761059655849401 0 0 1 0 0 0 1 forward_v I I I I #
coedge $-1 $320 $321 $147 $239 forward $140 $-1 #
coedge $-1 $240 $142 $144 $235 reversed $83 $-1 #
edge $-1 $237 -0.26395530822209334 $155 5.4422867882479666 $153 $322 forward 7 unknown #
coedge $-1 $144 $143 $323 $324 reversed $53 $-1 #
coedge $-1 $244 $243 $143 $234 forward $227 $-1 #
edge $-1 $325 -78.547318948942532 $236 78.547318948942532 $233 $326 forward 7 unknown #
edge $-1 $327 -78.547318948942532 $237 78.547318948942532 $230 $328 forward 7 unknown #
vertex $-1 $234 $329 #
vertex $-1 $146 $330 #
straight-curve $-1 78.547318948942532 -15.619699578618789 2.3252104317908433 0 1 0 I I #
edge $-1 $245 -22.141360077230612 $241 -9.0980390800069664 $229 $331 forward 7 unknown #
coedge $-1 $148 $230 $320 $332 reversed $83 $-1 #
vertex $-1 $239 $333 #
straight-curve $-1 0 -24.717738658625755 8.0314525282609033 -1 0 0 I I #
coedge $-1 $233 $150 $321 $334 forward $227 $-1 #
coedge $-1 $150 $233 $152 $247 reversed $227 $-1 #
vertex $-1 $334 $335 #
straight-curve $-1 0 -37.761059655849401 8.0314525282609033 -1 0 0 I I #
edge $-1 $156 -8.0314525282609033 $236 -2.3252104317908433 $152 $336 forward 7 unknown #
point $-1 78.547318948942532 -24.717738658625755 8.0314525282609033 #
point $-1 78.547318948942532 -37.761059655849401 8.0314525282609033 #
face $-1 $-1 $267 $20 $-1 $337 reversed single #
loop $-1 $-1 $263 $158 #
plane-surface $-1 -78.547318948942532 0 0 1 0 0 0 0 -1 forward_v I I I I #
coedge $-1 $270 $161 $162 $257 reversed $91 $-1 #
coedge $-1 $263 $338 $161 $255 forward $251 $-1 #
edge $-1 $339 -0.26395530822209334 $271 5.4422867882479666 $254 $340 forward 7 unknown #
coedge $-1 $163 $162 $338 $341 reversed $57 $-1 #
edge $-1 $260 -78.547318948942532 $339 78.547318948942532 $253 $342 forward 7 unknown #
coedge $-1 $266 $265 $163 $259 forward $267 $-1 #
edge $-1 $261 -78.547318948942532 $343 78.547318948942532 $258 $344 forward 7 unknown #
vertex $-1 $165 $345 #
vertex $-1 $259 $346 #
straight-curve $-1 78.547318948942532 15.619699578618789 2.3252104317908433 0 1 0 I I #
coedge $-1 $347 $254 $166 $264 forward $251 $-1 #
edge $-1 $271 9.0980390800069664 $268 22.141360077230612 $263 $348 forward 7 unknown #
coedge $-1 $258 $167 $172 $274 forward $267 $-1 #
coedge $-1 $167 $258 $347 $349 reversed $267 $-1 #
loop $-1 $-1 $167 $250 #
vertex $-1 $349 $350 #
straight-curve $-1 0 37.761059655849401 8.0314525282609033 1 0 0 I I #
coedge $-1 $169 $253 $171 $273 reversed $91 $-1 #
vertex $-1 $264 $351 #
straight-curve $-1 0 24.717738658625755 8.0314525282609033 1 0 0 I I #
edge $-1 $174 -5.4422867882479666 $260 0.26395530822209334 $171 $352 forward 7 unknown #
edge $-1 $173 -8.0314525282609033 $261 -2.3252104317908433 $172 $353 forward 7 unknown #
point $-1 78.547318948942532 37.761059655849401 8.0314525282609033 #
point $-1 78.547318948942532 24.717738658625755 8.0314525282609033 #
loop $-1 $-1 $285 $176 #
plane-surface $-1 0 -24.717738658625755 5.1783314800258733 0 -1 0 0 0 -1 forward_v I I I I #
coedge $-1 $187 $182 $354 $355 forward $177 $-1 #
coedge $-1 $184 $179 $284 $356 forward $99 $-1 #
coedge $-1 $179 $184 $187 $292 forward $99 $-1 #
coedge $-1 $354 $285 $179 $283 reversed $277 $-1 #
edge $-1 $357 18.172213640262157 $358 21.26647866886492 $179 $359 forward 7 unknown #
coedge $-1 $181 $180 $280 $356 reversed $61 $-1 #
coedge $-1 $282 $354 $181 $286 reversed $277 $-1 #
edge $-1 $358 -4.5370564652528058 $287 -2.0734513383776317e-014 $285 $360 forward 7 unknown #
vertex $-1 $355 $361 #
straight-curve $-1 -78.547318948942532 -9.5114463636743238 7.6044760565004106 0 -1 0 I I #
vertex $-1 $185 $362 #
straight-curve $-1 -96.71953258920469 -13.328046796071542 10.9226691343152 -1 0 0 I I #
straight-curve $-1 -78.547318948942547 -13.328046796071542 7.6044760565003884 0.68199835119979291 0 0.73135370988377701 I I #
edge $-1 $188 13.328046796071542 $357 24.717738658625755 $187 $363 forward 7 unknown #
point $-1 -78.547318948942532 -13.328046796071542 10.922669134315202 #
point $-1 -78.547318948942532 -13.328046796071542 7.6044760565004035 #
edge $-1 $364 1 $364 0 $191 $-1 forward 7 unknown #
vertex $-1 $192 $365 #
ellipse-curve $-1 -75.809167086212426 -21.463540983610262 8.1529291120999492 -0.73135370988377701 0 0.68199835119979291 0.34099917559989645 0 0.36567685494188851 1 I I #
point $-1 -76.659187259041232 -21.463540983610262 9.6292494503496684 #
edge $-1 $366 1 $366 0 $195 $-1 forward 7 unknown #
vertex $-1 $196 $367 #
ellipse-curve $-1 -75.809167086212426 -16.58224447108703 8.1529291120999492 -0.73135370988377701 0 0.68199835119979291 0.34099917559989645 0 0.36567685494188851 1 I I #
point $-1 -76.659187259041232 -16.58224447108703 9.6292494503496684 #
plane-surface $-1 78.547318948942532 0 0 -1 0 0 0 0 1 forward_v I I I I #
coedge $-1 $204 $202 $206 $308 reversed $121 $-1 #
edge $-1 $217 -10.922669134315202 $310 10.922669134315202 $216 $368 forward 7 unknown #
vertex $-1 $308 $369 #
straight-curve $-1 -78.547318948942532 -37.761059655849401 0 0 0 -1 I I #
edge $-1 $306 -37.761059655849401 $310 37.761059655849401 $304 $370 forward 7 unknown #
straight-curve $-1 0 -37.761059655849401 -10.922669134315202 -1 0 0 I I #
vertex $-1 $209 $371 #
straight-curve $-1 0 37.761059655849401 -10.922669134315202 1 0 0 I I #
point $-1 78.547318948942532 37.761059655849401 -10.922669134315202 #
point $-1 78.547318948942532 -37.761059655849401 -10.922669134315202 #
straight-curve $-1 -78.547318948942532 0 10.922669134315202 0 -1 0 I I #
point $-1 -78.547318948942532 37.761059655849401 10.922669134315202 #
point $-1 -78.547318948942532 -37.761059655849401 10.922669134315202 #
straight-curve $-1 78.547318948942532 -37.761059655849401 0 0 0 -1 I I #
straight-curve $-1 78.547318948942532 37.761059655849401 0 0 0 -1 I I #
plane-surface $-1 78.547318948942532 0 0 -1 0 0 0 0 1 forward_v I I I I #
coedge $-1 $323 $229 $240 $332 forward $140 $-1 #
coedge $-1 $229 $323 $243 $334 reversed $140 $-1 #
straight-curve $-1 78.547318948942532 -24.717738658625755 2.5891657400129366 0 0 1 I I #
coedge $-1 $321 $320 $232 $324 forward $140 $-1 #
edge $-1 $327 9.0980390800069664 $325 22.141360077230612 $323 $372 forward 7 unknown #
vertex $-1 $234 $373 #
straight-curve $-1 0 -37.761059655849401 2.3252104317908433 1 0 0 I I #
vertex $-1 $324 $374 #
straight-curve $-1 0 -24.717738658625755 2.3252104317908433 1 0 0 I I #
point $-1 78.547318948942532 -37.761059655849401 2.3252104317908433 #
point $-1 78.547318948942532 -24.717738658625755 2.3252104317908433 #
straight-curve $-1 -78.547318948942532 -15.619699578618789 8.0314525282609033 0 1 0 I I #
edge $-1 $241 -5.4422867882479666 $327 0.26395530822209334 $320 $375 forward 7 unknown #
point $-1 -78.547318948942532 -24.717738658625755 8.0314525282609033 #
edge $-1 $245 -8.0314525282609033 $325 -2.3252104317908433 $321 $376 forward 7 unknown #
point $-1 -78.547318948942532 -37.761059655849401 8.0314525282609033 #
straight-curve $-1 78.547318948942532 -37.761059655849401 0 0 0 -1 I I #
plane-surface $-1 0 37.761059655849401 0 0 -1 0 0 0 -1 forward_v I I I I #
coedge $-1 $254 $347 $256 $341 forward $251 $-1 #
vertex $-1 $341 $377 #
straight-curve $-1 -78.547318948942532 24.717738658625755 2.5891657400129366 0 0 1 I I #
edge $-1 $343 -22.141360077230612 $339 -9.0980390800069664 $338 $378 forward 7 unknown #
straight-curve $-1 0 24.717738658625755 2.3252104317908433 -1 0 0 I I #
vertex $-1 $259 $379 #
straight-curve $-1 0 37.761059655849401 2.3252104317908433 -1 0 0 I I #
point $-1 78.547318948942532 24.717738658625755 2.3252104317908433 #
point $-1 78.547318948942532 37.761059655849401 2.3252104317908433 #
coedge $-1 $338 $263 $266 $349 forward $251 $-1 #
straight-curve $-1 -78.547318948942532 15.619699578618789 8.0314525282609033 0 1 0 I I #
edge $-1 $268 -8.0314525282609033 $343 -2.3252104317908433 $266 $380 forward 7 unknown #
point $-1 -78.547318948942532 37.761059655849401 8.0314525282609033 #
point $-1 -78.547318948942532 24.717738658625755 8.0314525282609033 #
straight-curve $-1 78.547318948942532 24.717738658625755 2.5891657400129366 0 0 -1 I I #
straight-curve $-1 78.547318948942532 37.761059655849401 0 0 0 -1 I I #
coedge $-1 $285 $282 $279 $355 reversed $277 $-1 #
edge $-1 $287 -49.766903986092849 $357 -46.448710908278052 $279 $381 forward 7 unknown #
edge $-1 $358 -15.206292294951432 $289 -3.8166004323972178 $280 $382 forward 7 unknown #
vertex $-1 $355 $383 #
vertex $-1 $283 $384 #
straight-curve $-1 -96.71953258920469 -24.717738658625755 10.9226691343152 1 0 0 I I #
straight-curve $-1 -78.547318948942547 -24.717738658625755 7.6044760565003884 -0.68199835119979291 0 -0.73135370988377701 I I #
point $-1 -78.547318948942532 -24.717738658625755 7.6044760565004035 #
point $-1 -75.453053920339769 -13.328046796071542 10.922669134315202 #
straight-curve $-1 -78.547318948942532 0 10.922669134315202 0 -1 0 I I #
vertex $-1 $295 $385 #
point $-1 -75.468167910612536 -21.463540983610262 8.5186059670418377 #
vertex $-1 $299 $386 #
point $-1 -75.468167910612536 -16.58224447108703 8.5186059670418377 #
straight-curve $-1 -78.547318948942532 37.761059655849401 0 0 0 -1 I I #
point $-1 -78.547318948942532 -37.761059655849401 -10.922669134315202 #
straight-curve $-1 -78.547318948942532 0 -10.922669134315202 0 1 0 I I #
point $-1 -78.547318948942532 37.761059655849401 -10.922669134315202 #
straight-curve $-1 -78.547318948942532 -15.619699578618789 2.3252104317908433 0 -1 0 I I #
point $-1 -78.547318948942532 -37.761059655849401 2.3252104317908433 #
point $-1 -78.547318948942532 -24.717738658625755 2.3252104317908433 #
straight-curve $-1 -78.547318948942532 -24.717738658625755 2.5891657400129366 0 0 -1 I I #
straight-curve $-1 -78.547318948942532 -37.761059655849401 0 0 0 -1 I I #
point $-1 -78.547318948942532 24.717738658625755 2.3252104317908433 #
straight-curve $-1 -78.547318948942532 15.619699578618789 2.3252104317908433 0 -1 0 I I #
point $-1 -78.547318948942532 37.761059655849401 2.3252104317908433 #
straight-curve $-1 -78.547318948942532 37.761059655849401 0 0 0 -1 I I #
straight-curve $-1 -78.547318948942532 -24.717738658625755 57.371380042593252 0 0 1 I I #
straight-curve $-1 -75.453053920339784 -9.5114463636743238 10.922669134315203 0 1 0 I I #
point $-1 -78.547318948942532 -24.717738658625755 10.922669134315202 #
point $-1 -75.453053920339769 -24.717738658625755 10.922669134315202 #
point $-1 -75.443490231270545 -21.463540983610262 7.8119299365000519 #
point $-1 -75.443490231270545 -16.58224447108703 7.8119299365000519 #
End-of-ACIS-data 