500 0 14 0           
7 Unknown 11 ACIS 5.0 NT 24 Fri Mar 26 00:33:11 1999 
-1 9.9999999999999995e-007 1e-010 
body $-1 $14 $-1 $15 #
body $-1 $16 $-1 $17 #
body $-1 $18 $-1 $19 #
body $-1 $20 $-1 $21 #
body $-1 $22 $-1 $23 #
body $-1 $24 $-1 $25 #
body $-1 $26 $-1 $27 #
body $-1 $28 $-1 $29 #
body $-1 $30 $-1 $31 #
body $-1 $32 $-1 $33 #
body $-1 $34 $-1 $35 #
body $-1 $36 $-1 $37 #
body $-1 $38 $-1 $39 #
body $-1 $40 $-1 $41 #
lump $-1 $-1 $42 $0 #
transform $-1 1 0 0 0 1 0 0 0 1 55.936765648365736 33.056755802120541 6.9327685132045156 1 rotate no_reflect no_shear #
lump $-1 $-1 $43 $1 #
transform $-1 1 0 0 0 1 0 0 0 1 55.936765648365736 33.056755802120541 6.9327685132045156 1 rotate no_reflect no_shear #
lump $-1 $-1 $44 $2 #
transform $-1 1 0 0 0 1 0 0 0 1 55.936765648365736 33.056755802120541 6.9327685132045156 1 rotate no_reflect no_shear #
lump $-1 $-1 $45 $3 #
transform $-1 1 0 0 0 1 0 0 0 1 55.936765648365736 33.056755802120541 6.9327685132045156 1 rotate no_reflect no_shear #
lump $-1 $-1 $46 $4 #
transform $-1 1 0 0 0 1 0 0 0 1 55.936765648365736 33.056755802120541 6.9327685132045156 1 rotate no_reflect no_shear #
lump $-1 $-1 $47 $5 #
transform $-1 1 0 0 0 1 0 0 0 1 55.936765648365736 33.056755802120541 6.9327685132045156 1 rotate no_reflect no_shear #
lump $-1 $-1 $48 $6 #
transform $-1 1 0 0 0 1 0 0 0 1 55.936765648365736 33.056755802120541 6.9327685132045156 1 rotate no_reflect no_shear #
lump $-1 $-1 $49 $7 #
transform $-1 1 0 0 0 1 0 0 0 1 55.936765648365736 33.056755802120541 6.9327685132045156 1 rotate no_reflect no_shear #
lump $-1 $-1 $50 $8 #
transform $-1 1 0 0 0 1 0 0 0 1 55.936765648365736 33.056755802120541 6.9327685132045156 1 rotate no_reflect no_shear #
lump $-1 $-1 $51 $9 #
transform $-1 1 0 0 0 1 0 0 0 1 55.936765648365736 33.056755802120541 6.9327685132045156 1 rotate no_reflect no_shear #
lump $-1 $-1 $52 $10 #
transform $-1 1 0 0 0 1 0 0 0 1 55.936765648365736 33.056755802120541 6.9327685132045156 1 rotate no_reflect no_shear #
lump $-1 $-1 $53 $11 #
transform $-1 1 0 0 0 1 0 0 0 1 55.936765648365736 33.056755802120541 6.9327685132045156 1 rotate no_reflect no_shear #
lump $-1 $-1 $54 $12 #
transform $-1 1 0 0 0 1 0 0 0 1 55.936765648365736 33.056755802120541 6.9327685132045156 1 rotate no_reflect no_shear #
lump $-1 $-1 $55 $13 #
transform $-1 1 0 0 0 1 0 0 0 1 55.936765648365736 33.056755802120541 6.9327685132045156 1 rotate no_reflect no_shear #
shell $-1 $-1 $-1 $56 $-1 $14 #
shell $-1 $-1 $-1 $57 $-1 $16 #
shell $-1 $-1 $-1 $58 $-1 $18 #
shell $-1 $-1 $-1 $59 $-1 $20 #
shell $-1 $-1 $-1 $60 $-1 $22 #
shell $-1 $-1 $-1 $61 $-1 $24 #
shell $-1 $-1 $-1 $62 $-1 $26 #
shell $-1 $-1 $-1 $63 $-1 $28 #
shell $-1 $-1 $-1 $64 $-1 $30 #
shell $-1 $-1 $-1 $65 $-1 $32 #
shell $-1 $-1 $-1 $66 $-1 $34 #
shell $-1 $-1 $-1 $67 $-1 $36 #
shell $-1 $-1 $-1 $68 $-1 $38 #
shell $-1 $-1 $-1 $69 $-1 $40 #
face $-1 $70 $71 $42 $-1 $72 forward single #
face $-1 $73 $74 $43 $-1 $75 forward single #
face $-1 $76 $77 $44 $-1 $78 forward single #
face $-1 $79 $80 $45 $-1 $81 reversed single #
face $-1 $82 $83 $46 $-1 $84 forward single #
face $-1 $85 $86 $47 $-1 $87 forward single #
face $-1 $88 $89 $48 $-1 $90 reversed single #
face $-1 $91 $92 $49 $-1 $93 forward single #
face $-1 $94 $95 $50 $-1 $96 reversed single #
face $-1 $97 $98 $51 $-1 $99 forward single #
face $-1 $100 $101 $52 $-1 $102 reversed single #
face $-1 $103 $104 $53 $-1 $105 forward single #
face $-1 $106 $107 $54 $-1 $108 reversed single #
face $-1 $109 $110 $55 $-1 $111 forward single #
face $-1 $112 $113 $42 $-1 $114 reversed single #
loop $-1 $-1 $115 $56 #
plane-surface $-1 0 0 6.9327685132045156 0 0 1 1 0 0 forward_v I I I I #
face $-1 $116 $117 $43 $-1 $118 forward single #
loop $-1 $-1 $119 $57 #
plane-surface $-1 0 -33.056755802120541 0 0 1 0 0 0 1 forward_v I I I I #
face $-1 $120 $121 $44 $-1 $122 reversed single #
loop $-1 $-1 $123 $58 #
plane-surface $-1 0 33.056755802120541 0 0 -1 0 0 0 -1 forward_v I I I I #
face $-1 $124 $125 $45 $-1 $126 reversed single #
loop $-1 $-1 $127 $59 #
plane-surface $-1 -115.22070582307846 -17.883311892036964 95.787863998228275 0 1 0 -0.52991927123019833 0 0.84804809178421925 forward_v I I I I #
face $-1 $128 $129 $46 $-1 $130 forward single #
loop $-1 $131 $132 $60 #
cone-surface $-1 -50.653591494646982 -15.482624535022435 3.1759949873824063 0.52991927123019833 0 -0.84804809178421925 0.84804809178421925 0 0.52991927123019833 1 I I 0 1 1 forward I I I I #
face $-1 $133 $134 $47 $-1 $135 forward single #
loop $-1 $136 $137 $61 #
cone-surface $-1 -50.653591494646982 -11.881593499500635 3.1759949873824063 0.52991927123019833 0 -0.84804809178421925 0.84804809178421925 0 0.52991927123019833 1 I I 0 1 1 forward I I I I #
face $-1 $138 $139 $48 $-1 $140 reversed single #
loop $-1 $-1 $141 $62 #
plane-surface $-1 53.175568724885295 -12.275112675643536 158.6505741542222 0 -1 0 -0.69465837861970381 0 -0.71933979245794832 forward_v I I I I #
face $-1 $142 $143 $49 $-1 $144 forward single #
loop $-1 $145 $146 $63 #
cone-surface $-1 51.340260221699602 -15.753679957264463 2.4069548174883355 -0.69465837861970381 0 -0.71933979245794832 0.71933979245794832 0 -0.69465837861970381 1 I I 0 1 1 forward I I I I #
face $-1 $147 $148 $50 $-1 $149 reversed single #
loop $-1 $-1 $150 $64 #
plane-surface $-1 53.175568724885295 -1.7763568394002505e-015 158.6505741542222 0 -1 0 -0.69465837861970381 0 -0.71933979245794832 forward_v I I I I #
face $-1 $151 $152 $51 $-1 $153 forward single #
loop $-1 $154 $155 $65 #
cone-surface $-1 51.340260221699602 -3.4785672816209292 2.4069548174883355 -0.69465837861970381 0 -0.71933979245794832 0.71933979245794832 0 -0.69465837861970381 1 I I 0 1 1 forward I I I I #
face $-1 $156 $157 $52 $-1 $158 reversed single #
loop $-1 $-1 $159 $66 #
plane-surface $-1 53.175568724885295 12.275112675643532 158.6505741542222 0 -1 0 -0.69465837861970381 0 -0.71933979245794832 forward_v I I I I #
face $-1 $160 $161 $53 $-1 $162 forward single #
loop $-1 $163 $164 $67 #
cone-surface $-1 51.340260221699602 8.7965453940226084 2.4069548174883355 -0.69465837861970381 0 -0.71933979245794832 0.71933979245794832 0 -0.69465837861970381 1 I I 0 1 1 forward I I I I #
face $-1 $165 $166 $54 $-1 $167 reversed single #
loop $-1 $-1 $168 $68 #
plane-surface $-1 53.175568724885295 24.550225351287068 158.6505741542222 0 -1 0 -0.69465837861970381 0 -0.71933979245794832 forward_v I I I I #
face $-1 $169 $170 $55 $-1 $171 forward single #
loop $-1 $172 $173 $69 #
cone-surface $-1 51.340260221699602 21.071658069666142 2.4069548174883355 -0.69465837861970381 0 -0.71933979245794832 0.71933979245794832 0 -0.69465837861970381 1 I I 0 1 1 forward I I I I #
face $-1 $174 $175 $42 $-1 $176 reversed single #
loop $-1 $-1 $177 $70 #
plane-surface $-1 0 0 -6.9327685132045156 0 0 1 1 0 0 forward_v I I I I #
coedge $-1 $178 $179 $180 $181 forward $71 $-1 #
face $-1 $182 $183 $43 $-1 $184 reversed single #
loop $-1 $-1 $185 $73 #
plane-surface $-1 0 0 6.9327685132045156 0 0 1 1 0 0 forward_v I I I I #
coedge $-1 $186 $187 $188 $189 forward $74 $-1 #
face $-1 $190 $191 $44 $-1 $192 reversed single #
loop $-1 $-1 $193 $76 #
plane-surface $-1 55.936765648365736 0 0 -1 0 0 0 0 1 forward_v I I I I #
coedge $-1 $194 $195 $196 $197 forward $77 $-1 #
face $-1 $198 $199 $45 $-1 $200 reversed single #
loop $-1 $-1 $201 $79 #
plane-surface $-1 -55.936765648365736 -13.682109017261531 0.91372926087302631 -0.52991927123019833 0 0.84804809178421925 0.84804809178421925 0 0.52991927123019833 forward_v I I I I #
coedge $-1 $202 $203 $204 $205 reversed $80 $-1 #
face $-1 $-1 $206 $46 $-1 $207 forward single #
loop $-1 $208 $209 $82 #
cone-surface $-1 -49.921695790469187 -15.482624535022435 2.0047170418339393 0.52991927123019833 0 -0.84804809178421925 0.42402404589210962 0 0.26495963561509916 1 I I -0.70710678118654746 0.70710678118654746 0.5 forward I I I I #
loop $-1 $-1 $210 $60 #
coedge $-1 $132 $132 $211 $212 reversed $83 $-1 #
face $-1 $-1 $213 $47 $-1 $214 forward single #
loop $-1 $215 $216 $85 #
cone-surface $-1 -49.921695790469187 -11.881593499500635 2.0047170418339393 0.52991927123019833 0 -0.84804809178421925 0.42402404589210962 0 0.26495963561509916 1 I I -0.70710678118654746 0.70710678118654746 0.5 forward I I I I #
loop $-1 $-1 $217 $61 #
coedge $-1 $137 $137 $218 $219 reversed $86 $-1 #
face $-1 $220 $221 $48 $-1 $222 reversed single #
loop $-1 $-1 $223 $88 #
plane-surface $-1 -24.538317136162874 -15.753679957264467 78.175491369693589 0.69465837861970381 0 0.71933979245794832 0.71933979245794832 0 -0.69465837861970381 forward_v I I I I #
coedge $-1 $224 $225 $226 $227 reversed $89 $-1 #
face $-1 $-1 $228 $49 $-1 $229 forward single #
loop $-1 $230 $231 $91 #
cone-surface $-1 49.74696825800585 -15.753679957264463 0.7570527278227166 -0.69465837861970381 0 -0.71933979245794832 0.35966989622897416 0 -0.3473291893098519 1 I I -0.70710678118654746 0.70710678118654746 0.5 forward I I I I #
loop $-1 $-1 $232 $63 #
coedge $-1 $146 $146 $233 $234 reversed $92 $-1 #
face $-1 $235 $236 $50 $-1 $237 reversed single #
loop $-1 $-1 $238 $94 #
plane-surface $-1 -24.538317136162874 -3.4785672816209328 78.175491369693589 0.69465837861970381 0 0.71933979245794832 0.71933979245794832 0 -0.69465837861970381 forward_v I I I I #
coedge $-1 $239 $240 $241 $242 reversed $95 $-1 #
face $-1 $-1 $243 $51 $-1 $244 forward single #
loop $-1 $245 $246 $97 #
cone-surface $-1 49.74696825800585 -3.4785672816209292 0.7570527278227166 -0.69465837861970381 0 -0.71933979245794832 0.35966989622897416 0 -0.3473291893098519 1 I I -0.70710678118654746 0.70710678118654746 0.5 forward I I I I #
loop $-1 $-1 $247 $65 #
coedge $-1 $155 $155 $248 $249 reversed $98 $-1 #
face $-1 $250 $251 $52 $-1 $252 reversed single #
loop $-1 $-1 $253 $100 #
plane-surface $-1 -24.538317136162874 8.7965453940226013 78.175491369693589 0.69465837861970381 0 0.71933979245794832 0.71933979245794832 0 -0.69465837861970381 forward_v I I I I #
coedge $-1 $254 $255 $256 $257 reversed $101 $-1 #
face $-1 $-1 $258 $53 $-1 $259 forward single #
loop $-1 $260 $261 $103 #
cone-surface $-1 49.74696825800585 8.7965453940226084 0.7570527278227166 -0.69465837861970381 0 -0.71933979245794832 0.35966989622897416 0 -0.3473291893098519 1 I I -0.70710678118654746 0.70710678118654746 0.5 forward I I I I #
loop $-1 $-1 $262 $67 #
coedge $-1 $164 $164 $263 $264 reversed $104 $-1 #
face $-1 $265 $266 $54 $-1 $267 reversed single #
loop $-1 $-1 $268 $106 #
plane-surface $-1 -24.538317136162874 21.071658069666135 78.175491369693589 0.69465837861970381 0 0.71933979245794832 0.71933979245794832 0 -0.69465837861970381 forward_v I I I I #
coedge $-1 $269 $270 $271 $272 reversed $107 $-1 #
face $-1 $-1 $273 $55 $-1 $274 forward single #
loop $-1 $275 $276 $109 #
cone-surface $-1 49.74696825800585 21.071658069666142 0.7570527278227166 -0.69465837861970381 0 -0.71933979245794832 0.35966989622897416 0 -0.3473291893098519 1 I I -0.70710678118654746 0.70710678118654746 0.5 forward I I I I #
loop $-1 $-1 $277 $69 #
coedge $-1 $173 $173 $278 $279 reversed $110 $-1 #
face $-1 $280 $281 $42 $-1 $282 reversed single #
loop $-1 $-1 $283 $112 #
plane-surface $-1 0 -33.056755802120541 0 0 1 0 0 0 1 forward_v I I I I #
coedge $-1 $284 $285 $286 $287 forward $113 $-1 #
coedge $-1 $288 $115 $289 $290 forward $71 $-1 #
coedge $-1 $115 $288 $291 $292 forward $71 $-1 #
coedge $-1 $293 $294 $115 $181 reversed $295 $-1 #
edge $-1 $296 -33.056755802120541 $297 33.056755802120541 $180 $298 forward 7 unknown #
face $-1 $299 $300 $43 $-1 $301 reversed single #
loop $-1 $-1 $302 $116 #
plane-surface $-1 -55.936765648365736 0 0 1 0 0 0 0 -1 forward_v I I I I #
coedge $-1 $303 $304 $305 $306 forward $117 $-1 #
coedge $-1 $305 $119 $302 $307 reversed $74 $-1 #
coedge $-1 $119 $305 $308 $309 reversed $74 $-1 #
coedge $-1 $310 $311 $119 $189 reversed $300 $-1 #
edge $-1 $312 -55.936765648365736 $313 55.936765648365736 $188 $314 forward 7 unknown #
face $-1 $315 $316 $44 $-1 $317 reversed single #
loop $-1 $-1 $318 $120 #
plane-surface $-1 0 37.310021027537282 3.9327685132045156 0 0 1 1 0 0 forward_v I I I I #
coedge $-1 $319 $320 $194 $321 forward $121 $-1 #
coedge $-1 $322 $123 $193 $321 reversed $77 $-1 #
coedge $-1 $123 $322 $323 $324 reversed $77 $-1 #
coedge $-1 $325 $318 $123 $197 reversed $191 $-1 #
edge $-1 $326 -55.936765648365736 $327 55.936765648365736 $196 $328 forward 7 unknown #
face $-1 $329 $330 $45 $-1 $331 reversed single #
loop $-1 $-1 $332 $124 #
plane-surface $-1 -115.22070582307846 -9.4809061424860968 95.787863998228275 0 -1 0 0.52991927123019833 0 -0.84804809178421925 forward_v I I I I #
coedge $-1 $333 $334 $335 $336 reversed $125 $-1 #
coedge $-1 $203 $127 $337 $338 reversed $80 $-1 #
coedge $-1 $127 $202 $333 $339 reversed $80 $-1 #
coedge $-1 $335 $340 $127 $205 forward $341 $-1 #
edge $-1 $342 1.6735872631734949 $343 11.306063433485583 $204 $344 forward 7 unknown #
loop $-1 $-1 $211 $128 #
plane-surface $-1 -55.936765648365736 -13.682109017261531 0.91372926087302631 -0.52991927123019833 0 0.84804809178421925 0.84804809178421925 0 0.52991927123019833 forward_v I I I I #
loop $-1 $-1 $345 $82 #
coedge $-1 $209 $209 $210 $346 reversed $129 $-1 #
coedge $-1 $210 $210 $209 $346 forward $131 $-1 #
coedge $-1 $211 $211 $132 $212 forward $206 $-1 #
edge $-1 $347 0 $347 6.2831853071796004 $211 $348 forward 7 unknown #
loop $-1 $-1 $218 $133 #
plane-surface $-1 -55.936765648365736 -13.682109017261531 0.91372926087302631 -0.52991927123019833 0 0.84804809178421925 0.84804809178421925 0 0.52991927123019833 forward_v I I I I #
loop $-1 $-1 $349 $85 #
coedge $-1 $216 $216 $217 $350 reversed $134 $-1 #
coedge $-1 $217 $217 $216 $350 forward $136 $-1 #
coedge $-1 $218 $218 $137 $219 forward $213 $-1 #
edge $-1 $351 0 $351 6.2831853071796004 $218 $352 forward 7 unknown #
face $-1 $353 $354 $48 $-1 $355 forward single #
loop $-1 $-1 $356 $138 #
plane-surface $-1 53.175568724885295 -19.2322472388854 158.6505741542222 0 1 0 0.69465837861970381 0 0.71933979245794832 forward_v I I I I #
coedge $-1 $357 $358 $359 $360 reversed $139 $-1 #
coedge $-1 $225 $141 $361 $362 reversed $89 $-1 #
coedge $-1 $141 $224 $357 $363 reversed $89 $-1 #
coedge $-1 $359 $364 $141 $227 forward $354 $-1 #
edge $-1 $365 -29.348981285923088 $366 -22.647895981358573 $226 $367 forward 7 unknown #
loop $-1 $-1 $233 $142 #
plane-surface $-1 -24.538317136162874 -15.753679957264467 78.175491369693589 0.69465837861970381 0 0.71933979245794832 0.71933979245794832 0 -0.69465837861970381 forward_v I I I I #
loop $-1 $-1 $368 $91 #
coedge $-1 $231 $231 $232 $369 reversed $143 $-1 #
coedge $-1 $232 $232 $231 $369 forward $145 $-1 #
coedge $-1 $233 $233 $146 $234 forward $228 $-1 #
edge $-1 $370 0 $370 6.2831853071796004 $233 $371 forward 7 unknown #
face $-1 $372 $373 $50 $-1 $374 reversed single #
loop $-1 $-1 $375 $147 #
plane-surface $-1 53.175568724885295 -6.9571345632418637 158.6505741542222 0 1 0 0.69465837861970381 0 0.71933979245794832 forward_v I I I I #
coedge $-1 $376 $377 $378 $379 reversed $148 $-1 #
coedge $-1 $240 $150 $380 $381 reversed $95 $-1 #
coedge $-1 $150 $239 $376 $382 reversed $95 $-1 #
coedge $-1 $378 $383 $150 $242 forward $384 $-1 #
edge $-1 $385 -29.348981285923088 $386 -22.647895981358573 $241 $387 forward 7 unknown #
loop $-1 $-1 $248 $151 #
plane-surface $-1 -24.538317136162874 -3.4785672816209328 78.175491369693589 0.69465837861970381 0 0.71933979245794832 0.71933979245794832 0 -0.69465837861970381 forward_v I I I I #
loop $-1 $-1 $388 $97 #
coedge $-1 $246 $246 $247 $389 reversed $152 $-1 #
coedge $-1 $247 $247 $246 $389 forward $154 $-1 #
coedge $-1 $248 $248 $155 $249 forward $243 $-1 #
edge $-1 $390 0 $390 6.2831853071796004 $248 $391 forward 7 unknown #
face $-1 $392 $393 $52 $-1 $394 reversed single #
loop $-1 $-1 $395 $156 #
plane-surface $-1 53.175568724885295 5.3179781124016703 158.6505741542222 0 1 0 0.69465837861970381 0 0.71933979245794832 forward_v I I I I #
coedge $-1 $396 $397 $398 $399 reversed $157 $-1 #
coedge $-1 $255 $159 $400 $401 reversed $101 $-1 #
coedge $-1 $159 $254 $396 $402 reversed $101 $-1 #
coedge $-1 $398 $403 $159 $257 forward $404 $-1 #
edge $-1 $405 -29.348981285923088 $406 -22.647895981358573 $256 $407 forward 7 unknown #
loop $-1 $-1 $263 $160 #
plane-surface $-1 -24.538317136162874 8.7965453940226013 78.175491369693589 0.69465837861970381 0 0.71933979245794832 0.71933979245794832 0 -0.69465837861970381 forward_v I I I I #
loop $-1 $-1 $408 $103 #
coedge $-1 $261 $261 $262 $409 reversed $161 $-1 #
coedge $-1 $262 $262 $261 $409 forward $163 $-1 #
coedge $-1 $263 $263 $164 $264 forward $258 $-1 #
edge $-1 $410 0 $410 6.2831853071796004 $263 $411 forward 7 unknown #
face $-1 $412 $413 $54 $-1 $414 reversed single #
loop $-1 $-1 $415 $165 #
plane-surface $-1 53.175568724885295 17.593090788045203 158.6505741542222 0 1 0 0.69465837861970381 0 0.71933979245794832 forward_v I I I I #
coedge $-1 $416 $417 $418 $419 reversed $166 $-1 #
coedge $-1 $270 $168 $420 $421 reversed $107 $-1 #
coedge $-1 $168 $269 $416 $422 reversed $107 $-1 #
coedge $-1 $418 $423 $168 $272 forward $424 $-1 #
edge $-1 $425 -29.348981285923088 $426 -22.647895981358573 $271 $427 forward 7 unknown #
loop $-1 $-1 $278 $169 #
plane-surface $-1 -24.538317136162874 21.071658069666135 78.175491369693589 0.69465837861970381 0 0.71933979245794832 0.71933979245794832 0 -0.69465837861970381 forward_v I I I I #
loop $-1 $-1 $428 $109 #
coedge $-1 $276 $276 $277 $429 reversed $170 $-1 #
coedge $-1 $277 $277 $276 $429 forward $172 $-1 #
coedge $-1 $278 $278 $173 $279 forward $273 $-1 #
edge $-1 $430 0 $430 6.2831853071796004 $278 $431 forward 7 unknown #
face $-1 $432 $433 $42 $-1 $434 reversed single #
loop $-1 $-1 $435 $174 #
plane-surface $-1 -55.936765648365736 0 0 1 0 0 0 0 -1 forward_v I I I I #
coedge $-1 $436 $291 $437 $438 forward $175 $-1 #
coedge $-1 $439 $177 $436 $440 forward $113 $-1 #
coedge $-1 $177 $439 $441 $442 forward $113 $-1 #
coedge $-1 $294 $293 $177 $287 reversed $295 $-1 #
edge $-1 $443 -33.056755802120541 $444 33.056755802120541 $286 $445 forward 7 unknown #
coedge $-1 $179 $178 $446 $447 forward $71 $-1 #
coedge $-1 $448 $449 $178 $290 reversed $433 $-1 #
edge $-1 $297 -55.936765648365736 $450 55.936765648365736 $289 $451 forward 7 unknown #
coedge $-1 $283 $452 $179 $292 reversed $175 $-1 #
edge $-1 $453 -55.936765648365736 $296 55.936765648365736 $291 $454 forward 7 unknown #
coedge $-1 $286 $180 $452 $455 forward $295 $-1 #
coedge $-1 $180 $286 $448 $456 reversed $295 $-1 #
loop $-1 $-1 $293 $432 #
vertex $-1 $181 $457 #
vertex $-1 $181 $458 #
straight-curve $-1 55.936765648365736 0 6.9327685132045156 0 1 0 I I #
face $-1 $459 $460 $43 $-1 $461 reversed single #
loop $-1 $-1 $310 $182 #
plane-surface $-1 0 -37.310021027537282 3.9327685132045156 0 0 1 1 0 0 forward_v I I I I #
coedge $-1 $462 $463 $186 $307 forward $183 $-1 #
coedge $-1 $464 $185 $463 $465 forward $117 $-1 #
coedge $-1 $185 $464 $466 $467 forward $117 $-1 #
coedge $-1 $187 $186 $185 $306 reversed $74 $-1 #
edge $-1 $468 -55.936765648365736 $469 55.936765648365736 $185 $470 forward 7 unknown #
edge $-1 $469 -6.9327685132045156 $313 -3.9327685132045156 $302 $471 forward 7 unknown #
coedge $-1 $466 $472 $187 $309 forward $473 $-1 #
edge $-1 $312 3.9327685132045156 $468 6.9327685132045156 $308 $474 forward 7 unknown #
coedge $-1 $475 $188 $472 $476 forward $300 $-1 #
coedge $-1 $188 $475 $462 $477 forward $300 $-1 #
vertex $-1 $309 $478 #
vertex $-1 $307 $479 #
straight-curve $-1 0 -33.056755802120541 3.9327685132045156 -1 0 0 I I #
face $-1 $480 $481 $44 $-1 $482 forward single #
loop $-1 $-1 $483 $190 #
plane-surface $-1 0 41.563286252954022 5.4327685132045156 0 -1 0 0 0 -1 forward_v I I I I #
coedge $-1 $196 $484 $319 $485 forward $191 $-1 #
coedge $-1 $486 $193 $318 $485 reversed $121 $-1 #
coedge $-1 $193 $486 $487 $488 reversed $121 $-1 #
edge $-1 $489 -6.9327685132045156 $327 -3.9327685132045156 $193 $490 forward 7 unknown #
coedge $-1 $195 $194 $491 $492 reversed $77 $-1 #
coedge $-1 $493 $494 $195 $324 forward $495 $-1 #
edge $-1 $326 3.9327685132045156 $496 6.9327685132045156 $323 $497 forward 7 unknown #
coedge $-1 $484 $196 $494 $498 forward $191 $-1 #
vertex $-1 $324 $499 #
vertex $-1 $321 $500 #
straight-curve $-1 0 33.056755802120541 3.9327685132045156 1 0 0 I I #
face $-1 $-1 $341 $45 $-1 $501 forward single #
loop $-1 $-1 $502 $198 #
plane-surface $-1 -55.936765648365736 0 0 1 0 0 0 0 -1 forward_v I I I I #
coedge $-1 $503 $504 $505 $506 reversed $199 $-1 #
coedge $-1 $507 $201 $203 $339 forward $125 $-1 #
coedge $-1 $201 $507 $503 $508 forward $125 $-1 #
coedge $-1 $505 $204 $201 $336 forward $341 $-1 #
edge $-1 $343 -11.042257383406199 $509 -2.6398516338553311 $335 $510 forward 7 unknown #
coedge $-1 $511 $512 $202 $338 forward $330 $-1 #
edge $-1 $513 -46.980202738241111 $342 -40.961163485909623 $337 $514 forward 7 unknown #
edge $-1 $343 -11.358407929491591 $513 0 $203 $515 forward 7 unknown #
coedge $-1 $204 $505 $511 $516 forward $341 $-1 #
loop $-1 $-1 $505 $329 #
vertex $-1 $338 $517 #
vertex $-1 $205 $518 #
straight-curve $-1 -57.610352911539231 -17.883311892036964 6.9327685132045147 1 0 0 I I #
coedge $-1 $345 $345 $-1 $519 reversed $208 $-1 #
edge $-1 $520 0 $520 6.2831853071796004 $209 $521 forward 7 unknown #
vertex $-1 $212 $522 #
ellipse-curve $-1 -51.120527563209684 -15.482624535022435 3.9232488870387745 -0.52991927123019833 0 0.84804809178421925 0.84804809178421925 0 0.52991927123019833 1 I I #
coedge $-1 $349 $349 $-1 $523 reversed $215 $-1 #
edge $-1 $524 0 $524 6.2831853071796004 $216 $525 forward 7 unknown #
vertex $-1 $219 $526 #
ellipse-curve $-1 -51.120527563209684 -11.881593499500635 3.9232488870387745 -0.52991927123019833 0 0.84804809178421925 0.84804809178421925 0 0.52991927123019833 1 I I #
face $-1 $-1 $527 $48 $-1 $528 reversed single #
loop $-1 $-1 $226 $220 #
plane-surface $-1 0 0 6.9327685132045156 0 0 1 1 0 0 forward_v I I I I #
coedge $-1 $529 $530 $531 $532 reversed $221 $-1 #
coedge $-1 $533 $223 $225 $363 forward $139 $-1 #
coedge $-1 $223 $533 $529 $534 forward $139 $-1 #
coedge $-1 $531 $226 $223 $360 forward $354 $-1 #
edge $-1 $366 4.3982726970113024 $535 11.355407260253166 $359 $536 forward 7 unknown #
coedge $-1 $537 $538 $224 $362 forward $527 $-1 #
edge $-1 $539 -78.863681568465694 $365 -72.392518563906577 $361 $540 forward 7 unknown #
edge $-1 $366 102.55792638397219 $539 111.87353129673147 $225 $541 forward 7 unknown #
coedge $-1 $226 $531 $537 $542 forward $354 $-1 #
vertex $-1 $362 $543 #
vertex $-1 $227 $544 #
straight-curve $-1 26.587784362442648 -12.275112675643536 6.9327685132045218 -1 0 0 I I #
coedge $-1 $368 $368 $-1 $545 reversed $230 $-1 #
edge $-1 $546 0 $546 6.2831853071796004 $231 $547 forward 7 unknown #
vertex $-1 $234 $548 #
ellipse-curve $-1 52.586222996083478 -15.753679957264463 3.6971870109249592 0.69465837861970381 0 0.71933979245794832 0.71933979245794832 0 -0.69465837861970381 1 I I #
face $-1 $-1 $384 $50 $-1 $549 forward single #
loop $-1 $-1 $550 $235 #
plane-surface $-1 55.936765648365736 0 0 -1 0 0 0 0 1 forward_v I I I I #
coedge $-1 $551 $552 $553 $554 reversed $236 $-1 #
coedge $-1 $555 $238 $240 $382 forward $148 $-1 #
coedge $-1 $238 $555 $551 $556 forward $148 $-1 #
coedge $-1 $553 $241 $238 $379 forward $384 $-1 #
edge $-1 $386 -1.7392836408104646 $557 5.2178509224313974 $378 $558 forward 7 unknown #
coedge $-1 $559 $560 $239 $381 forward $373 $-1 #
edge $-1 $561 -78.863681568465694 $385 -72.392518563906577 $380 $562 forward 7 unknown #
edge $-1 $386 102.55792638397219 $561 111.87353129673147 $240 $563 forward 7 unknown #
coedge $-1 $241 $553 $559 $564 forward $384 $-1 #
loop $-1 $-1 $553 $372 #
vertex $-1 $381 $565 #
vertex $-1 $242 $566 #
straight-curve $-1 26.587784362442648 -1.7763568394002505e-015 6.9327685132045218 -1 0 0 I I #
coedge $-1 $388 $388 $-1 $567 reversed $245 $-1 #
edge $-1 $568 0 $568 6.2831853071796004 $246 $569 forward 7 unknown #
vertex $-1 $249 $570 #
ellipse-curve $-1 52.586222996083478 -3.4785672816209292 3.6971870109249592 0.69465837861970381 0 0.71933979245794832 0.71933979245794832 0 -0.69465837861970381 1 I I #
face $-1 $-1 $404 $52 $-1 $571 forward single #
loop $-1 $-1 $572 $250 #
plane-surface $-1 55.936765648365736 0 0 -1 0 0 0 0 1 forward_v I I I I #
coedge $-1 $573 $574 $575 $576 reversed $251 $-1 #
coedge $-1 $577 $253 $255 $402 forward $157 $-1 #
coedge $-1 $253 $577 $573 $578 forward $157 $-1 #
coedge $-1 $575 $256 $253 $399 forward $404 $-1 #
edge $-1 $406 -7.8768399786322316 $579 -0.91970541539036965 $398 $580 forward 7 unknown #
coedge $-1 $581 $582 $254 $401 forward $393 $-1 #
edge $-1 $583 -78.863681568465694 $405 -72.392518563906577 $400 $584 forward 7 unknown #
edge $-1 $406 102.55792638397219 $583 111.87353129673147 $255 $585 forward 7 unknown #
coedge $-1 $256 $575 $581 $586 forward $404 $-1 #
loop $-1 $-1 $575 $392 #
vertex $-1 $401 $587 #
vertex $-1 $257 $588 #
straight-curve $-1 26.587784362442648 12.275112675643532 6.9327685132045218 -1 0 0 I I #
coedge $-1 $408 $408 $-1 $589 reversed $260 $-1 #
edge $-1 $590 0 $590 6.2831853071796004 $261 $591 forward 7 unknown #
vertex $-1 $264 $592 #
ellipse-curve $-1 52.586222996083478 8.7965453940226084 3.6971870109249592 0.69465837861970381 0 0.71933979245794832 0.71933979245794832 0 -0.69465837861970381 1 I I #
face $-1 $-1 $424 $54 $-1 $593 forward single #
loop $-1 $-1 $594 $265 #
plane-surface $-1 55.936765648365736 0 0 -1 0 0 0 0 1 forward_v I I I I #
coedge $-1 $595 $596 $597 $598 reversed $266 $-1 #
coedge $-1 $599 $268 $270 $422 forward $166 $-1 #
coedge $-1 $268 $599 $595 $600 forward $166 $-1 #
coedge $-1 $597 $271 $268 $419 forward $424 $-1 #
edge $-1 $426 -14.014396316454 $601 -7.0572617532121349 $418 $602 forward 7 unknown #
coedge $-1 $603 $604 $269 $421 forward $413 $-1 #
edge $-1 $605 -78.863681568465694 $425 -72.392518563906577 $420 $606 forward 7 unknown #
edge $-1 $426 102.55792638397219 $605 111.87353129673147 $270 $607 forward 7 unknown #
coedge $-1 $271 $597 $603 $608 forward $424 $-1 #
loop $-1 $-1 $597 $412 #
vertex $-1 $421 $609 #
vertex $-1 $272 $610 #
straight-curve $-1 26.587784362442648 24.550225351287068 6.9327685132045218 -1 0 0 I I #
coedge $-1 $428 $428 $-1 $611 reversed $275 $-1 #
edge $-1 $612 0 $612 6.2831853071796004 $276 $613 forward 7 unknown #
vertex $-1 $279 $614 #
ellipse-curve $-1 52.586222996083478 21.071658069666142 3.6971870109249592 0.69465837861970381 0 0.71933979245794832 0.71933979245794832 0 -0.69465837861970381 1 I I #
face $-1 $-1 $295 $42 $-1 $615 reversed single #
loop $-1 $-1 $448 $280 #
plane-surface $-1 0 33.056755802120541 0 0 -1 0 0 0 -1 forward_v I I I I #
coedge $-1 $616 $446 $449 $617 forward $281 $-1 #
coedge $-1 $452 $283 $284 $440 reversed $175 $-1 #
coedge $-1 $446 $616 $283 $438 reversed $281 $-1 #
edge $-1 $453 -6.9327685132045156 $618 6.9327685132045156 $437 $619 forward 7 unknown #
coedge $-1 $285 $284 $616 $620 forward $113 $-1 #
edge $-1 $444 -55.936765648365736 $618 55.936765648365736 $436 $621 forward 7 unknown #
coedge $-1 $449 $448 $285 $442 reversed $433 $-1 #
edge $-1 $622 -55.936765648365736 $443 55.936765648365736 $441 $623 forward 7 unknown #
vertex $-1 $287 $624 #
vertex $-1 $455 $625 #
straight-curve $-1 55.936765648365736 0 -6.9327685132045156 0 -1 0 I I #
coedge $-1 $435 $437 $288 $447 reversed $281 $-1 #
edge $-1 $450 -33.056755802120541 $453 33.056755802120541 $446 $626 forward 7 unknown #
coedge $-1 $441 $289 $294 $456 forward $433 $-1 #
coedge $-1 $289 $441 $435 $617 reversed $433 $-1 #
vertex $-1 $290 $627 #
straight-curve $-1 0 33.056755802120541 6.9327685132045156 -1 0 0 I I #
coedge $-1 $291 $436 $293 $455 reversed $175 $-1 #
vertex $-1 $447 $628 #
straight-curve $-1 0 -33.056755802120541 6.9327685132045156 1 0 0 I I #
edge $-1 $296 -6.9327685132045156 $444 6.9327685132045156 $293 $629 forward 7 unknown #
edge $-1 $297 -6.9327685132045156 $443 6.9327685132045156 $294 $630 forward 7 unknown #
point $-1 55.936765648365736 -33.056755802120541 6.9327685132045156 #
point $-1 55.936765648365736 33.056755802120541 6.9327685132045156 #
face $-1 $-1 $473 $43 $-1 $631 reversed single #
loop $-1 $-1 $632 $299 #
plane-surface $-1 0 -41.563286252954022 5.4327685132045156 0 1 0 0 0 1 forward_v I I I I #
coedge $-1 $633 $302 $311 $477 reversed $183 $-1 #
coedge $-1 $302 $633 $303 $465 reversed $183 $-1 #
coedge $-1 $304 $303 $634 $635 forward $117 $-1 #
edge $-1 $469 33.056755802120541 $636 41.563286252954022 $463 $637 forward 7 unknown #
coedge $-1 $638 $308 $304 $467 reversed $473 $-1 #
edge $-1 $639 -41.563286252954022 $468 -33.056755802120541 $466 $640 forward 7 unknown #
vertex $-1 $309 $641 #
vertex $-1 $465 $642 #
straight-curve $-1 0 -33.056755802120541 6.9327685132045156 -1 0 0 I I #
straight-curve $-1 -55.936765648365736 -33.056755802120541 0 0 0 -1 I I #
coedge $-1 $308 $638 $310 $476 reversed $473 $-1 #
loop $-1 $-1 $308 $459 #
straight-curve $-1 55.936765648365736 -33.056755802120541 0 0 0 1 I I #
coedge $-1 $311 $310 $643 $644 forward $300 $-1 #
edge $-1 $312 -4.2532652254167402 $645 4.2532652254167402 $472 $646 forward 7 unknown #
edge $-1 $647 -4.2532652254167402 $313 4.2532652254167402 $462 $648 forward 7 unknown #
point $-1 55.936765648365736 -33.056755802120541 3.9327685132045156 #
point $-1 -55.936765648365736 -33.056755802120541 3.9327685132045156 #
face $-1 $-1 $495 $44 $-1 $649 reversed single #
loop $-1 $-1 $491 $315 #
plane-surface $-1 0 0 6.9327685132045156 0 0 1 1 0 0 forward_v I I I I #
coedge $-1 $650 $651 $486 $652 forward $316 $-1 #
coedge $-1 $318 $325 $650 $653 forward $191 $-1 #
edge $-1 $654 -4.2532652254167402 $327 4.2532652254167402 $319 $655 forward 7 unknown #
coedge $-1 $320 $319 $483 $652 reversed $121 $-1 #
coedge $-1 $656 $491 $320 $488 forward $481 $-1 #
edge $-1 $489 33.056755802120541 $657 41.563286252954022 $320 $658 forward 7 unknown #
vertex $-1 $488 $659 #
straight-curve $-1 55.936765648365736 33.056755802120541 0 0 0 -1 I I #
coedge $-1 $487 $660 $322 $492 forward $481 $-1 #
edge $-1 $496 -55.936765648365736 $489 55.936765648365736 $491 $661 forward 7 unknown #
coedge $-1 $662 $323 $660 $663 reversed $495 $-1 #
coedge $-1 $323 $662 $325 $498 reversed $495 $-1 #
loop $-1 $-1 $323 $480 #
vertex $-1 $324 $664 #
straight-curve $-1 -55.936765648365736 33.056755802120541 0 0 0 1 I I #
edge $-1 $326 -4.2532652254167402 $665 4.2532652254167402 $494 $666 forward 7 unknown #
point $-1 -55.936765648365736 33.056755802120541 3.9327685132045156 #
point $-1 55.936765648365736 33.056755802120541 3.9327685132045156 #
plane-surface $-1 0 0 6.9327685132045156 0 0 1 1 0 0 forward_v I I I I #
coedge $-1 $512 $511 $504 $667 forward $330 $-1 #
coedge $-1 $504 $332 $334 $508 reversed $199 $-1 #
coedge $-1 $332 $503 $502 $667 reversed $199 $-1 #
coedge $-1 $340 $335 $332 $506 forward $341 $-1 #
edge $-1 $509 -11.306063433485583 $668 -1.6735872631734949 $505 $669 forward 7 unknown #
coedge $-1 $334 $333 $512 $670 reversed $125 $-1 #
edge $-1 $671 0 $509 11.358407929491591 $503 $672 forward 7 unknown #
vertex $-1 $336 $673 #
straight-curve $-1 -46.304289478053647 -6.8410545086307657 6.9327685132045147 0 1 0 I I #
coedge $-1 $502 $337 $340 $516 reversed $330 $-1 #
coedge $-1 $337 $502 $507 $670 forward $330 $-1 #
vertex $-1 $338 $674 #
straight-curve $-1 -55.936765648365736 -17.883311892036964 47.893931999114137 0 0 1 I I #
straight-curve $-1 -55.936765648365736 -17.883311892036964 0.91372926087302631 -0.84804809178421925 0 -0.52991927123019833 I I #
edge $-1 $668 9.4809061424860968 $342 17.883311892036964 $511 $675 forward 7 unknown #
point $-1 -55.936765648365736 -17.883311892036964 6.9327685132045156 #
point $-1 -46.304289478053647 -17.883311892036964 6.9327685132045156 #
edge $-1 $676 1 $676 0 $345 $-1 forward 7 unknown #
vertex $-1 $346 $677 #
ellipse-curve $-1 -50.186655426084286 -15.482624535022435 2.4287410877260491 -0.52991927123019833 0 0.84804809178421925 0.84804809178421925 0 0.52991927123019833 1 I I #
point $-1 -50.272479471425463 -15.482624535022435 4.4531681582689622 #
edge $-1 $678 1 $678 0 $349 $-1 forward 7 unknown #
vertex $-1 $350 $679 #
ellipse-curve $-1 -50.186655426084286 -11.881593499500635 2.4287410877260491 -0.52991927123019833 0 0.84804809178421925 0.84804809178421925 0 0.52991927123019833 1 I I #
point $-1 -50.272479471425463 -11.881593499500635 4.4531681582689622 #
loop $-1 $-1 $361 $353 #
plane-surface $-1 55.936765648365736 0 0 -1 0 0 0 0 1 forward_v I I I I #
coedge $-1 $530 $356 $358 $534 reversed $221 $-1 #
coedge $-1 $356 $529 $680 $681 reversed $221 $-1 #
coedge $-1 $364 $359 $356 $532 forward $354 $-1 #
edge $-1 $535 22.647895981358573 $682 29.348981285923088 $531 $683 forward 7 unknown #
coedge $-1 $358 $357 $538 $684 reversed $139 $-1 #
edge $-1 $685 -111.87353129673147 $535 -102.55792638397219 $529 $686 forward 7 unknown #
vertex $-1 $360 $687 #
straight-curve $-1 49.235680343801235 -7.8768399786322334 6.9327685132045147 0 -1 0 I I #
coedge $-1 $680 $361 $364 $542 reversed $527 $-1 #
coedge $-1 $361 $680 $533 $684 forward $527 $-1 #
vertex $-1 $362 $688 #
straight-curve $-1 55.936765648365736 -12.275112675643536 79.325287077111099 0 0 1 I I #
straight-curve $-1 -24.538317136162874 -12.275112675643536 78.175491369693589 0.71933979245794832 0 -0.69465837861970381 I I #
edge $-1 $682 -19.2322472388854 $365 -12.275112675643536 $537 $689 forward 7 unknown #
point $-1 55.936765648365736 -12.275112675643536 6.9327685132045156 #
point $-1 49.235680343801221 -12.275112675643536 6.9327685132045218 #
edge $-1 $690 1 $690 0 $368 $-1 forward 7 unknown #
vertex $-1 $369 $691 #
ellipse-curve $-1 50.094297447315704 -15.753679957264463 1.1167226240516908 0.69465837861970381 0 0.71933979245794832 0.71933979245794832 0 -0.69465837861970381 1 I I #
point $-1 53.305562788541451 -15.753679957264463 3.0025286323052756 #
plane-surface $-1 0 0 6.9327685132045156 0 0 1 1 0 0 forward_v I I I I #
coedge $-1 $560 $559 $552 $692 forward $373 $-1 #
coedge $-1 $552 $375 $377 $556 reversed $236 $-1 #
coedge $-1 $375 $551 $550 $692 reversed $236 $-1 #
coedge $-1 $383 $378 $375 $554 forward $384 $-1 #
edge $-1 $557 22.647895981358573 $693 29.348981285923088 $553 $694 forward 7 unknown #
coedge $-1 $377 $376 $560 $695 reversed $148 $-1 #
edge $-1 $696 -111.87353129673147 $557 -102.55792638397219 $551 $697 forward 7 unknown #
vertex $-1 $379 $698 #
straight-curve $-1 49.235680343801235 -1.7392836408104664 6.9327685132045147 0 -1 0 I I #
coedge $-1 $550 $380 $383 $564 reversed $373 $-1 #
coedge $-1 $380 $550 $555 $695 forward $373 $-1 #
vertex $-1 $381 $699 #
straight-curve $-1 55.936765648365736 -1.7763568394002505e-015 79.325287077111099 0 0 1 I I #
straight-curve $-1 -24.538317136162874 -1.7763568394002505e-015 78.175491369693589 0.71933979245794832 0 -0.69465837861970381 I I #
edge $-1 $693 -6.9571345632418637 $385 -1.7763568394002505e-015 $559 $700 forward 7 unknown #
point $-1 55.936765648365736 -1.7763568394002505e-015 6.9327685132045156 #
point $-1 49.235680343801221 -1.7763568394002505e-015 6.9327685132045218 #
edge $-1 $701 1 $701 0 $388 $-1 forward 7 unknown #
vertex $-1 $389 $702 #
ellipse-curve $-1 50.094297447315704 -3.4785672816209292 1.1167226240516908 0.69465837861970381 0 0.71933979245794832 0.71933979245794832 0 -0.69465837861970381 1 I I #
point $-1 53.305562788541451 -3.4785672816209292 3.0025286323052756 #
plane-surface $-1 0 0 6.9327685132045156 0 0 1 1 0 0 forward_v I I I I #
coedge $-1 $582 $581 $574 $703 forward $393 $-1 #
coedge $-1 $574 $395 $397 $578 reversed $251 $-1 #
coedge $-1 $395 $573 $572 $703 reversed $251 $-1 #
coedge $-1 $403 $398 $395 $576 forward $404 $-1 #
edge $-1 $579 22.647895981358573 $704 29.348981285923088 $575 $705 forward 7 unknown #
coedge $-1 $397 $396 $582 $706 reversed $157 $-1 #
edge $-1 $707 -111.87353129673147 $579 -102.55792638397219 $573 $708 forward 7 unknown #
vertex $-1 $399 $709 #
straight-curve $-1 49.235680343801235 4.3982726970113006 6.9327685132045147 0 -1 0 I I #
coedge $-1 $572 $400 $403 $586 reversed $393 $-1 #
coedge $-1 $400 $572 $577 $706 forward $393 $-1 #
vertex $-1 $401 $710 #
straight-curve $-1 55.936765648365736 12.275112675643532 79.325287077111099 0 0 1 I I #
straight-curve $-1 -24.538317136162874 12.275112675643532 78.175491369693589 0.71933979245794832 0 -0.69465837861970381 I I #
edge $-1 $704 5.3179781124016703 $405 12.275112675643532 $581 $711 forward 7 unknown #
point $-1 55.936765648365736 12.275112675643532 6.9327685132045156 #
point $-1 49.235680343801221 12.275112675643532 6.9327685132045218 #
edge $-1 $712 1 $712 0 $408 $-1 forward 7 unknown #
vertex $-1 $409 $713 #
ellipse-curve $-1 50.094297447315704 8.7965453940226084 1.1167226240516908 0.69465837861970381 0 0.71933979245794832 0.71933979245794832 0 -0.69465837861970381 1 I I #
point $-1 53.305562788541451 8.7965453940226084 3.0025286323052756 #
plane-surface $-1 0 0 6.9327685132045156 0 0 1 1 0 0 forward_v I I I I #
coedge $-1 $604 $603 $596 $714 forward $413 $-1 #
coedge $-1 $596 $415 $417 $600 reversed $266 $-1 #
coedge $-1 $415 $595 $594 $714 reversed $266 $-1 #
coedge $-1 $423 $418 $415 $598 forward $424 $-1 #
edge $-1 $601 22.647895981358573 $715 29.348981285923088 $597 $716 forward 7 unknown #
coedge $-1 $417 $416 $604 $717 reversed $166 $-1 #
edge $-1 $718 -111.87353129673147 $601 -102.55792638397219 $595 $719 forward 7 unknown #
vertex $-1 $419 $720 #
straight-curve $-1 49.235680343801235 10.535829034833068 6.9327685132045147 0 -1 0 I I #
coedge $-1 $594 $420 $423 $608 reversed $413 $-1 #
coedge $-1 $420 $594 $599 $717 forward $413 $-1 #
vertex $-1 $421 $721 #
straight-curve $-1 55.936765648365736 24.550225351287068 79.325287077111099 0 0 1 I I #
straight-curve $-1 -24.538317136162874 24.550225351287068 78.175491369693589 0.71933979245794832 0 -0.69465837861970381 I I #
edge $-1 $715 17.593090788045203 $425 24.550225351287068 $603 $722 forward 7 unknown #
point $-1 55.936765648365736 24.550225351287068 6.9327685132045156 #
point $-1 49.235680343801221 24.550225351287068 6.9327685132045218 #
edge $-1 $723 1 $723 0 $428 $-1 forward 7 unknown #
vertex $-1 $429 $724 #
ellipse-curve $-1 50.094297447315704 21.071658069666142 1.1167226240516908 0.69465837861970381 0 0.71933979245794832 0.71933979245794832 0 -0.69465837861970381 1 I I #
point $-1 53.305562788541451 21.071658069666142 3.0025286323052756 #
plane-surface $-1 55.936765648365736 0 0 -1 0 0 0 0 1 forward_v I I I I #
coedge $-1 $437 $435 $439 $620 reversed $281 $-1 #
edge $-1 $450 -6.9327685132045156 $622 6.9327685132045156 $449 $725 forward 7 unknown #
vertex $-1 $620 $726 #
straight-curve $-1 -55.936765648365736 -33.056755802120541 0 0 0 -1 I I #
edge $-1 $618 -33.056755802120541 $622 33.056755802120541 $616 $727 forward 7 unknown #
straight-curve $-1 0 -33.056755802120541 -6.9327685132045156 -1 0 0 I I #
vertex $-1 $442 $728 #
straight-curve $-1 0 33.056755802120541 -6.9327685132045156 1 0 0 I I #
point $-1 55.936765648365736 33.056755802120541 -6.9327685132045156 #
point $-1 55.936765648365736 -33.056755802120541 -6.9327685132045156 #
straight-curve $-1 -55.936765648365736 0 6.9327685132045156 0 -1 0 I I #
point $-1 -55.936765648365736 33.056755802120541 6.9327685132045156 #
point $-1 -55.936765648365736 -33.056755802120541 6.9327685132045156 #
straight-curve $-1 55.936765648365736 -33.056755802120541 0 0 0 -1 I I #
straight-curve $-1 55.936765648365736 33.056755802120541 0 0 0 -1 I I #
plane-surface $-1 55.936765648365736 0 0 -1 0 0 0 0 1 forward_v I I I I #
coedge $-1 $643 $634 $633 $729 forward $460 $-1 #
coedge $-1 $463 $462 $632 $729 reversed $183 $-1 #
coedge $-1 $632 $730 $464 $635 reversed $460 $-1 #
edge $-1 $636 -55.936765648365736 $639 55.936765648365736 $634 $731 forward 7 unknown #
vertex $-1 $465 $732 #
straight-curve $-1 -55.936765648365736 0 6.9327685132045156 0 -1 0 I I #
coedge $-1 $472 $466 $730 $733 forward $473 $-1 #
vertex $-1 $467 $734 #
straight-curve $-1 55.936765648365736 0 6.9327685132045156 0 1 0 I I #
point $-1 55.936765648365736 -33.056755802120541 6.9327685132045156 #
point $-1 -55.936765648365736 -33.056755802120541 6.9327685132045156 #
coedge $-1 $730 $632 $475 $644 reversed $460 $-1 #
edge $-1 $645 -55.936765648365736 $647 55.936765648365736 $643 $735 forward 7 unknown #
vertex $-1 $733 $736 #
straight-curve $-1 55.936765648365736 -37.310021027537282 3.9327685132045156 0 -1 0 I I #
vertex $-1 $477 $737 #
straight-curve $-1 -55.936765648365736 -37.310021027537282 3.9327685132045156 0 1 0 I I #
plane-surface $-1 -55.936765648365736 0 0 1 0 0 0 0 -1 forward_v I I I I #
coedge $-1 $738 $483 $484 $653 reversed $316 $-1 #
coedge $-1 $483 $738 $656 $739 reversed $316 $-1 #
edge $-1 $657 -1.5 $654 1.5 $486 $740 forward 7 unknown #
edge $-1 $665 -55.936765648365736 $654 55.936765648365736 $650 $741 forward 7 unknown #
vertex $-1 $485 $742 #
straight-curve $-1 55.936765648365736 37.310021027537282 3.9327685132045156 0 -1 0 I I #
coedge $-1 $660 $487 $651 $739 forward $481 $-1 #
vertex $-1 $488 $743 #
straight-curve $-1 55.936765648365736 0 6.9327685132045156 0 1 0 I I #
point $-1 55.936765648365736 33.056755802120541 6.9327685132045156 #
coedge $-1 $491 $656 $493 $663 forward $481 $-1 #
straight-curve $-1 0 33.056755802120541 6.9327685132045156 1 0 0 I I #
coedge $-1 $494 $493 $738 $744 forward $495 $-1 #
edge $-1 $745 -41.563286252954022 $496 -33.056755802120541 $493 $746 forward 7 unknown #
point $-1 -55.936765648365736 33.056755802120541 6.9327685132045156 #
vertex $-1 $653 $747 #
straight-curve $-1 -55.936765648365736 37.310021027537282 3.9327685132045156 0 1 0 I I #
edge $-1 $668 40.961163485909623 $671 46.980202738241111 $502 $748 forward 7 unknown #
vertex $-1 $516 $749 #
straight-curve $-1 -57.610352911539231 -9.4809061424860968 6.9327685132045147 -1 0 0 I I #
edge $-1 $671 2.6398516338553311 $513 11.042257383406199 $512 $750 forward 7 unknown #
vertex $-1 $670 $751 #
straight-curve $-1 -55.936765648365736 -9.4809061424860968 0.91372926087302631 0.84804809178421925 0 0.52991927123019833 I I #
point $-1 -46.304289478053647 -9.4809061424860968 6.9327685132045156 #
point $-1 -55.936765648365736 -17.883311892036964 0.91372926087302631 #
straight-curve $-1 -55.936765648365736 0 6.9327685132045156 0 -1 0 I I #
vertex $-1 $519 $752 #
point $-1 -49.338607334300065 -15.482624535022435 2.958660358956247 #
vertex $-1 $523 $753 #
point $-1 -49.338607334300065 -11.881593499500635 2.958660358956247 #
coedge $-1 $538 $537 $530 $681 forward $527 $-1 #
edge $-1 $682 72.392518563906577 $685 78.863681568465694 $680 $754 forward 7 unknown #
vertex $-1 $542 $755 #
straight-curve $-1 26.587784362442648 -19.2322472388854 6.9327685132045218 1 0 0 I I #
edge $-1 $685 -11.355407260253166 $539 -4.3982726970113024 $538 $756 forward 7 unknown #
vertex $-1 $684 $757 #
straight-curve $-1 -24.538317136162874 -19.2322472388854 78.175491369693589 -0.71933979245794832 0 0.69465837861970381 I I #
point $-1 49.235680343801221 -19.2322472388854 6.9327685132045218 #
point $-1 55.936765648365736 -12.275112675643536 0.46160550864540539 #
straight-curve $-1 55.936765648365736 0 6.9327685132045156 0 1 0 I I #
vertex $-1 $545 $758 #
point $-1 50.813637239773648 -15.753679957264463 0.42206424543198695 #
edge $-1 $693 72.392518563906577 $696 78.863681568465694 $550 $759 forward 7 unknown #
vertex $-1 $564 $760 #
straight-curve $-1 26.587784362442648 -6.9571345632418637 6.9327685132045218 1 0 0 I I #
edge $-1 $696 -5.2178509224313974 $561 1.7392836408104646 $560 $761 forward 7 unknown #
vertex $-1 $695 $762 #
straight-curve $-1 -24.538317136162874 -6.9571345632418637 78.175491369693589 -0.71933979245794832 0 0.69465837861970381 I I #
point $-1 49.235680343801221 -6.9571345632418637 6.9327685132045218 #
point $-1 55.936765648365736 -1.7763568394002505e-015 0.46160550864540539 #
straight-curve $-1 55.936765648365736 0 6.9327685132045156 0 1 0 I I #
vertex $-1 $567 $763 #
point $-1 50.813637239773648 -3.4785672816209292 0.42206424543198695 #
edge $-1 $704 72.392518563906577 $707 78.863681568465694 $572 $764 forward 7 unknown #
vertex $-1 $586 $765 #
straight-curve $-1 26.587784362442648 5.3179781124016703 6.9327685132045218 1 0 0 I I #
edge $-1 $707 0.91970541539036965 $583 7.8768399786322316 $582 $766 forward 7 unknown #
vertex $-1 $706 $767 #
straight-curve $-1 -24.538317136162874 5.3179781124016703 78.175491369693589 -0.71933979245794832 0 0.69465837861970381 I I #
point $-1 49.235680343801221 5.3179781124016703 6.9327685132045218 #
point $-1 55.936765648365736 12.275112675643532 0.46160550864540539 #
straight-curve $-1 55.936765648365736 0 6.9327685132045156 0 1 0 I I #
vertex $-1 $589 $768 #
point $-1 50.813637239773648 8.7965453940226084 0.42206424543198695 #
edge $-1 $715 72.392518563906577 $718 78.863681568465694 $594 $769 forward 7 unknown #
vertex $-1 $608 $770 #
straight-curve $-1 26.587784362442648 17.593090788045203 6.9327685132045218 1 0 0 I I #
edge $-1 $718 7.0572617532121349 $605 14.014396316454 $604 $771 forward 7 unknown #
vertex $-1 $717 $772 #
straight-curve $-1 -24.538317136162874 17.593090788045203 78.175491369693589 -0.71933979245794832 0 0.69465837861970381 I I #
point $-1 49.235680343801221 17.593090788045203 6.9327685132045218 #
point $-1 55.936765648365736 24.550225351287068 0.46160550864540539 #
straight-curve $-1 55.936765648365736 0 6.9327685132045156 0 1 0 I I #
vertex $-1 $611 $773 #
point $-1 50.813637239773648 21.071658069666142 0.42206424543198695 #
straight-curve $-1 -55.936765648365736 33.056755802120541 0 0 0 -1 I I #
point $-1 -55.936765648365736 -33.056755802120541 -6.9327685132045156 #
straight-curve $-1 -55.936765648365736 0 -6.9327685132045156 0 1 0 I I #
point $-1 -55.936765648365736 33.056755802120541 -6.9327685132045156 #
edge $-1 $636 -1.5 $647 1.5 $633 $774 forward 7 unknown #
coedge $-1 $634 $643 $638 $733 reversed $460 $-1 #
straight-curve $-1 0 -41.563286252954022 6.9327685132045156 1 0 0 I I #
point $-1 -55.936765648365736 -41.563286252954022 6.9327685132045156 #
edge $-1 $639 -1.5 $645 1.5 $638 $775 forward 7 unknown #
point $-1 55.936765648365736 -41.563286252954022 6.9327685132045156 #
straight-curve $-1 0 -41.563286252954022 3.9327685132045156 -1 0 0 I I #
point $-1 55.936765648365736 -41.563286252954022 3.9327685132045156 #
point $-1 -55.936765648365736 -41.563286252954022 3.9327685132045156 #
coedge $-1 $651 $650 $662 $744 reversed $316 $-1 #
edge $-1 $657 -55.936765648365736 $745 55.936765648365736 $651 $776 forward 7 unknown #
straight-curve $-1 55.936765648365736 41.563286252954022 5.4327685132045156 0 0 -1 I I #
straight-curve $-1 0 41.563286252954022 3.9327685132045156 1 0 0 I I #
point $-1 55.936765648365736 41.563286252954022 3.9327685132045156 #
point $-1 55.936765648365736 41.563286252954022 6.9327685132045156 #
edge $-1 $745 -1.5 $665 1.5 $738 $777 forward 7 unknown #
vertex $-1 $739 $778 #
straight-curve $-1 -55.936765648365736 0 6.9327685132045156 0 -1 0 I I #
point $-1 -55.936765648365736 41.563286252954022 3.9327685132045156 #
straight-curve $-1 -55.936765648365736 -9.4809061424860968 47.893931999114137 0 0 -1 I I #
point $-1 -55.936765648365736 -9.4809061424860968 6.9327685132045156 #
straight-curve $-1 -55.936765648365736 -6.8410545086307657 0.91372926087302409 0 -1 0 I I #
point $-1 -55.936765648365736 -9.4809061424860968 0.91372926087302631 #
point $-1 -49.656736154854087 -15.482624535022435 1.5806929959418297 #
point $-1 -49.656736154854087 -11.881593499500635 1.5806929959418297 #
straight-curve $-1 55.936765648365736 -19.2322472388854 79.325287077111099 0 0 -1 I I #
point $-1 55.936765648365736 -19.2322472388854 6.9327685132045156 #
straight-curve $-1 55.936765648365729 -7.8768399786322334 0.4616055086454125 0 1 0 I I #
point $-1 55.936765648365736 -19.2322472388854 0.46160550864540539 #
point $-1 49.399639068695997 -15.753679957264463 0.39738283159374244 #
straight-curve $-1 55.936765648365736 -6.9571345632418637 79.325287077111099 0 0 -1 I I #
point $-1 55.936765648365736 -6.9571345632418637 6.9327685132045156 #
straight-curve $-1 55.936765648365729 -1.7392836408104664 0.4616055086454125 0 1 0 I I #
point $-1 55.936765648365736 -6.9571345632418637 0.46160550864540539 #
point $-1 49.399639068695997 -3.4785672816209292 0.39738283159374244 #
straight-curve $-1 55.936765648365736 5.3179781124016703 79.325287077111099 0 0 -1 I I #
point $-1 55.936765648365736 5.3179781124016703 6.9327685132045156 #
straight-curve $-1 55.936765648365729 4.3982726970113006 0.4616055086454125 0 1 0 I I #
point $-1 55.936765648365736 5.3179781124016703 0.46160550864540539 #
point $-1 49.399639068695997 8.7965453940226084 0.39738283159374244 #
straight-curve $-1 55.936765648365736 17.593090788045203 79.325287077111099 0 0 -1 I I #
point $-1 55.936765648365736 17.593090788045203 6.9327685132045156 #
straight-curve $-1 55.936765648365729 10.535829034833068 0.4616055086454125 0 1 0 I I #
point $-1 55.936765648365736 17.593090788045203 0.46160550864540539 #
point $-1 49.399639068695997 21.071658069666142 0.39738283159374244 #
straight-curve $-1 -55.936765648365736 -41.563286252954022 5.4327685132045156 0 0 -1 I I #
straight-curve $-1 55.936765648365736 -41.563286252954022 5.4327685132045156 0 0 -1 I I #
straight-curve $-1 0 41.563286252954022 6.9327685132045156 -1 0 0 I I #
straight-curve $-1 -55.936765648365736 41.563286252954022 5.4327685132045156 0 0 -1 I I #
point $-1 -55.936765648365736 41.563286252954022 6.9327685132045156 #
End-of-ACIS-data 