500 0 18 0           
7 Unknown 11 ACIS 5.0 NT 24 Fri Mar 26 20:12:05 1999 
-1 9.9999999999999995e-007 1e-010 
body $-1 $18 $-1 $19 #
body $-1 $20 $-1 $21 #
body $-1 $22 $-1 $23 #
body $-1 $24 $-1 $25 #
body $-1 $26 $-1 $27 #
body $-1 $28 $-1 $29 #
body $-1 $30 $-1 $31 #
body $-1 $32 $-1 $33 #
body $-1 $34 $-1 $35 #
body $-1 $36 $-1 $37 #
body $-1 $38 $-1 $39 #
body $-1 $40 $-1 $41 #
body $-1 $42 $-1 $43 #
body $-1 $44 $-1 $45 #
body $-1 $46 $-1 $47 #
body $-1 $48 $-1 $49 #
body $-1 $50 $-1 $51 #
body $-1 $52 $-1 $53 #
lump $-1 $-1 $54 $0 #
transform $-1 1 0 0 0 1 0 0 0 1 76.035035248878444 41.763926035624685 17.589359174682691 1 rotate no_reflect no_shear #
lump $-1 $-1 $55 $1 #
transform $-1 1 0 0 0 1 0 0 0 1 76.035035248878444 41.763926035624685 17.589359174682691 1 rotate no_reflect no_shear #
lump $-1 $-1 $56 $2 #
transform $-1 1 0 0 0 1 0 0 0 1 76.035035248878444 41.763926035624685 17.589359174682691 1 rotate no_reflect no_shear #
lump $-1 $-1 $57 $3 #
transform $-1 1 0 0 0 1 0 0 0 1 76.035035248878444 41.763926035624685 17.589359174682691 1 rotate no_reflect no_shear #
lump $-1 $-1 $58 $4 #
transform $-1 1 0 0 0 1 0 0 0 1 76.035035248878444 41.763926035624685 17.589359174682691 1 rotate no_reflect no_shear #
lump $-1 $-1 $59 $5 #
transform $-1 1 0 0 0 1 0 0 0 1 76.035035248878444 41.763926035624685 17.589359174682691 1 rotate no_reflect no_shear #
lump $-1 $-1 $60 $6 #
transform $-1 1 0 0 0 1 0 0 0 1 76.035035248878444 41.763926035624685 17.589359174682691 1 rotate no_reflect no_shear #
lump $-1 $-1 $61 $7 #
transform $-1 1 0 0 0 1 0 0 0 1 76.035035248878444 41.763926035624685 17.589359174682691 1 rotate no_reflect no_shear #
lump $-1 $-1 $62 $8 #
transform $-1 1 0 0 0 1 0 0 0 1 76.035035248878444 41.763926035624685 17.589359174682691 1 rotate no_reflect no_shear #
lump $-1 $-1 $63 $9 #
transform $-1 1 0 0 0 1 0 0 0 1 76.035035248878444 41.763926035624685 17.589359174682691 1 rotate no_reflect no_shear #
lump $-1 $-1 $64 $10 #
transform $-1 1 0 0 0 1 0 0 0 1 76.035035248878444 41.763926035624685 17.589359174682691 1 rotate no_reflect no_shear #
lump $-1 $-1 $65 $11 #
transform $-1 1 0 0 0 1 0 0 0 1 76.035035248878444 41.763926035624685 17.589359174682691 1 rotate no_reflect no_shear #
lump $-1 $-1 $66 $12 #
transform $-1 1 0 0 0 1 0 0 0 1 76.035035248878444 41.763926035624685 17.589359174682691 1 rotate no_reflect no_shear #
lump $-1 $-1 $67 $13 #
transform $-1 1 0 0 0 1 0 0 0 1 76.035035248878444 41.763926035624685 17.589359174682691 1 rotate no_reflect no_shear #
lump $-1 $-1 $68 $14 #
transform $-1 1 0 0 0 1 0 0 0 1 76.035035248878444 41.763926035624685 17.589359174682691 1 rotate no_reflect no_shear #
lump $-1 $-1 $69 $15 #
transform $-1 1 0 0 0 1 0 0 0 1 76.035035248878444 41.763926035624685 17.589359174682691 1 rotate no_reflect no_shear #
lump $-1 $-1 $70 $16 #
transform $-1 1 0 0 0 1 0 0 0 1 76.035035248878444 41.763926035624685 17.589359174682691 1 rotate no_reflect no_shear #
lump $-1 $-1 $71 $17 #
transform $-1 1 0 0 0 1 0 0 0 1 76.035035248878444 41.763926035624685 17.589359174682691 1 rotate no_reflect no_shear #
shell $-1 $-1 $-1 $72 $-1 $18 #
shell $-1 $-1 $-1 $73 $-1 $20 #
shell $-1 $-1 $-1 $74 $-1 $22 #
shell $-1 $-1 $-1 $75 $-1 $24 #
shell $-1 $-1 $-1 $76 $-1 $26 #
shell $-1 $-1 $-1 $77 $-1 $28 #
shell $-1 $-1 $-1 $78 $-1 $30 #
shell $-1 $-1 $-1 $79 $-1 $32 #
shell $-1 $-1 $-1 $80 $-1 $34 #
shell $-1 $-1 $-1 $81 $-1 $36 #
shell $-1 $-1 $-1 $82 $-1 $38 #
shell $-1 $-1 $-1 $83 $-1 $40 #
shell $-1 $-1 $-1 $84 $-1 $42 #
shell $-1 $-1 $-1 $85 $-1 $44 #
shell $-1 $-1 $-1 $86 $-1 $46 #
shell $-1 $-1 $-1 $87 $-1 $48 #
shell $-1 $-1 $-1 $88 $-1 $50 #
shell $-1 $-1 $-1 $89 $-1 $52 #
face $-1 $90 $91 $54 $-1 $92 forward single #
face $-1 $93 $94 $55 $-1 $95 forward single #
face $-1 $96 $97 $56 $-1 $98 reversed single #
face $-1 $99 $100 $57 $-1 $101 forward single #
face $-1 $102 $103 $58 $-1 $104 forward single #
face $-1 $105 $106 $59 $-1 $107 forward single #
face $-1 $108 $109 $60 $-1 $110 reversed single #
face $-1 $111 $112 $61 $-1 $113 forward single #
face $-1 $114 $115 $62 $-1 $116 forward single #
face $-1 $117 $118 $63 $-1 $119 forward single #
face $-1 $120 $121 $64 $-1 $122 reversed single #
face $-1 $123 $124 $65 $-1 $125 forward single #
face $-1 $126 $127 $66 $-1 $128 forward single #
face $-1 $129 $130 $67 $-1 $131 forward single #
face $-1 $132 $133 $68 $-1 $134 reversed single #
face $-1 $135 $136 $69 $-1 $137 forward single #
face $-1 $138 $139 $70 $-1 $140 forward single #
face $-1 $141 $142 $71 $-1 $143 forward single #
face $-1 $144 $145 $54 $-1 $146 reversed single #
loop $-1 $-1 $147 $72 #
plane-surface $-1 0 0 17.589359174682691 0 0 1 1 0 0 forward_v I I I I #
face $-1 $148 $149 $55 $-1 $150 reversed single #
loop $-1 $-1 $151 $73 #
plane-surface $-1 0 -41.763926035624685 0 0 1 0 0 0 1 forward_v I I I I #
face $-1 $152 $153 $56 $-1 $154 reversed single #
loop $-1 $-1 $155 $74 #
plane-surface $-1 128.06265390877746 -9.3171222788249768 220.5683270743194 0 -1 0 -0.85716730853699208 0 -0.51503806187062418 forward_v I I I I #
face $-1 $156 $157 $57 $-1 $158 forward single #
loop $-1 $159 $160 $75 #
cone-surface $-1 73.645000989401481 -17.109453331889807 14.334655344178712 -0.85716730853699208 0 -0.51503806187062418 0.25751903093531209 0 -0.42858365426849604 1 I I 0 1 0.5 forward I I I I #
face $-1 $161 $162 $58 $-1 $163 forward single #
loop $-1 $164 $165 $76 #
cone-surface $-1 73.645000989401481 -14.187329186990496 14.334655344178712 -0.85716730853699208 0 -0.51503806187062418 0.25751903093531209 0 -0.42858365426849604 1 I I 0 1 0.5 forward I I I I #
face $-1 $166 $167 $59 $-1 $168 forward single #
loop $-1 $169 $170 $77 #
cone-surface $-1 73.645000989401481 -11.265205042091186 14.334655344178712 -0.85716730853699208 0 -0.51503806187062418 0.25751903093531209 0 -0.42858365426849604 1 I I 0 1 0.5 forward I I I I #
face $-1 $171 $172 $60 $-1 $173 reversed single #
loop $-1 $-1 $174 $78 #
plane-surface $-1 128.06265390877746 22.695007942508717 220.5683270743194 0 -1 0 -0.85716730853699208 0 -0.51503806187062418 forward_v I I I I #
face $-1 $175 $176 $61 $-1 $177 forward single #
loop $-1 $178 $179 $79 #
cone-surface $-1 73.645000989401481 14.902676889443889 14.334655344178712 -0.85716730853699208 0 -0.51503806187062418 0.25751903093531209 0 -0.42858365426849604 1 I I 0 1 0.5 forward I I I I #
face $-1 $180 $181 $62 $-1 $182 forward single #
loop $-1 $183 $184 $80 #
cone-surface $-1 73.645000989401481 17.824801034343196 14.334655344178712 -0.85716730853699208 0 -0.51503806187062418 0.25751903093531209 0 -0.42858365426849604 1 I I 0 1 0.5 forward I I I I #
face $-1 $185 $186 $63 $-1 $187 forward single #
loop $-1 $188 $189 $81 #
cone-surface $-1 73.645000989401481 20.746925179242503 14.334655344178712 -0.85716730853699208 0 -0.51503806187062418 0.25751903093531209 0 -0.42858365426849604 1 I I 0 1 0.5 forward I I I I #
face $-1 $190 $191 $64 $-1 $192 reversed single #
loop $-1 $-1 $193 $82 #
plane-surface $-1 -206.38452828647135 -19.057536095156017 90.218834036726491 0 1 0 -0.85716730853699208 0 0.51503806187062418 forward_v I I I I #
face $-1 $194 $195 $65 $-1 $196 forward single #
loop $-1 $197 $198 $83 #
cone-surface $-1 -73.645000989401467 -17.109453331889807 14.334655344178701 0.85716730853699208 0 -0.51503806187062418 0.25751903093531209 0 0.42858365426849604 1 I I 0 1 0.5 forward I I I I #
face $-1 $199 $200 $66 $-1 $201 forward single #
loop $-1 $202 $203 $84 #
cone-surface $-1 -73.645000989401467 -14.187329186990496 14.334655344178701 0.85716730853699208 0 -0.51503806187062418 0.25751903093531209 0 0.42858365426849604 1 I I 0 1 0.5 forward I I I I #
face $-1 $204 $205 $67 $-1 $206 forward single #
loop $-1 $207 $208 $85 #
cone-surface $-1 -73.645000989401467 -11.265205042091186 14.334655344178701 0.85716730853699208 0 -0.51503806187062418 0.25751903093531209 0 0.42858365426849604 1 I I 0 1 0.5 forward I I I I #
face $-1 $209 $210 $68 $-1 $211 reversed single #
loop $-1 $-1 $212 $86 #
plane-surface $-1 -206.38452828647135 12.954594126177676 90.218834036726491 0 1 0 -0.85716730853699208 0 0.51503806187062418 forward_v I I I I #
face $-1 $213 $214 $69 $-1 $215 forward single #
loop $-1 $216 $217 $87 #
cone-surface $-1 -73.645000989401467 14.902676889443889 14.334655344178701 0.85716730853699208 0 -0.51503806187062418 0.25751903093531209 0 0.42858365426849604 1 I I 0 1 0.5 forward I I I I #
face $-1 $218 $219 $70 $-1 $220 forward single #
loop $-1 $221 $222 $88 #
cone-surface $-1 -73.645000989401467 17.824801034343196 14.334655344178701 0.85716730853699208 0 -0.51503806187062418 0.25751903093531209 0 0.42858365426849604 1 I I 0 1 0.5 forward I I I I #
face $-1 $223 $224 $71 $-1 $225 forward single #
loop $-1 $226 $227 $89 #
cone-surface $-1 -73.645000989401467 20.746925179242503 14.334655344178701 0.85716730853699208 0 -0.51503806187062418 0.25751903093531209 0 0.42858365426849604 1 I I 0 1 0.5 forward I I I I #
face $-1 $228 $229 $54 $-1 $230 reversed single #
loop $-1 $-1 $231 $90 #
plane-surface $-1 0 0 -17.589359174682691 0 0 1 1 0 0 forward_v I I I I #
coedge $-1 $232 $233 $234 $235 forward $91 $-1 #
face $-1 $236 $237 $55 $-1 $238 reversed single #
loop $-1 $-1 $239 $93 #
plane-surface $-1 0 0 -17.589359174682691 0 0 1 1 0 0 forward_v I I I I #
coedge $-1 $240 $241 $242 $243 forward $94 $-1 #
face $-1 $244 $245 $56 $-1 $246 reversed single #
loop $-1 $-1 $247 $96 #
plane-surface $-1 -2.2868391288154442 -14.187329186990496 142.24645269662551 0.85716730853699208 0 0.51503806187062418 0.51503806187062418 0 -0.85716730853699208 forward_v I I I I #
coedge $-1 $248 $249 $250 $251 reversed $97 $-1 #
face $-1 $-1 $252 $57 $-1 $253 forward single #
loop $-1 $254 $255 $99 #
cone-surface $-1 72.750844192224349 -17.109453331889807 13.797391756032106 -0.85716730853699208 0 -0.51503806187062418 0.12875951546765604 0 -0.21429182713424802 1 I I -0.70710678118654746 0.70710678118654746 0.25 forward I I I I #
loop $-1 $-1 $256 $75 #
coedge $-1 $160 $160 $257 $258 reversed $100 $-1 #
face $-1 $-1 $259 $58 $-1 $260 forward single #
loop $-1 $261 $262 $102 #
cone-surface $-1 72.750844192224349 -14.187329186990496 13.797391756032106 -0.85716730853699208 0 -0.51503806187062418 0.12875951546765604 0 -0.21429182713424802 1 I I -0.70710678118654746 0.70710678118654746 0.25 forward I I I I #
loop $-1 $-1 $263 $76 #
coedge $-1 $165 $165 $264 $265 reversed $103 $-1 #
face $-1 $-1 $266 $59 $-1 $267 forward single #
loop $-1 $268 $269 $105 #
cone-surface $-1 72.750844192224349 -11.265205042091186 13.797391756032106 -0.85716730853699208 0 -0.51503806187062418 0.12875951546765604 0 -0.21429182713424802 1 I I -0.70710678118654746 0.70710678118654746 0.25 forward I I I I #
loop $-1 $-1 $270 $77 #
coedge $-1 $170 $170 $271 $272 reversed $106 $-1 #
face $-1 $273 $274 $60 $-1 $275 reversed single #
loop $-1 $-1 $276 $108 #
plane-surface $-1 -2.2868391288154442 17.824801034343196 142.24645269662551 0.85716730853699208 0 0.51503806187062418 0.51503806187062418 0 -0.85716730853699208 forward_v I I I I #
coedge $-1 $277 $278 $279 $280 reversed $109 $-1 #
face $-1 $-1 $281 $61 $-1 $282 forward single #
loop $-1 $283 $284 $111 #
cone-surface $-1 72.750844192224349 14.902676889443889 13.797391756032106 -0.85716730853699208 0 -0.51503806187062418 0.12875951546765604 0 -0.21429182713424802 1 I I -0.70710678118654746 0.70710678118654746 0.25 forward I I I I #
loop $-1 $-1 $285 $79 #
coedge $-1 $179 $179 $286 $287 reversed $112 $-1 #
face $-1 $-1 $288 $62 $-1 $289 forward single #
loop $-1 $290 $291 $114 #
cone-surface $-1 72.750844192224349 17.824801034343196 13.797391756032106 -0.85716730853699208 0 -0.51503806187062418 0.12875951546765604 0 -0.21429182713424802 1 I I -0.70710678118654746 0.70710678118654746 0.25 forward I I I I #
loop $-1 $-1 $292 $80 #
coedge $-1 $184 $184 $293 $294 reversed $115 $-1 #
face $-1 $-1 $295 $63 $-1 $296 forward single #
loop $-1 $297 $298 $117 #
cone-surface $-1 72.750844192224349 20.746925179242503 13.797391756032106 -0.85716730853699208 0 -0.51503806187062418 0.12875951546765604 0 -0.21429182713424802 1 I I -0.70710678118654746 0.70710678118654746 0.25 forward I I I I #
loop $-1 $-1 $299 $81 #
coedge $-1 $189 $189 $300 $301 reversed $118 $-1 #
face $-1 $302 $303 $64 $-1 $304 reversed single #
loop $-1 $-1 $305 $120 #
plane-surface $-1 -76.035035248878444 -14.187329186990496 11.896959659032603 -0.85716730853699208 0 0.51503806187062418 0.51503806187062418 0 0.85716730853699208 forward_v I I I I #
coedge $-1 $306 $307 $308 $309 reversed $121 $-1 #
face $-1 $-1 $310 $65 $-1 $311 forward single #
loop $-1 $312 $313 $123 #
cone-surface $-1 -72.750844192224335 -17.109453331889807 13.797391756032095 0.85716730853699208 0 -0.51503806187062418 0.12875951546765604 0 0.21429182713424802 1 I I -0.70710678118654746 0.70710678118654746 0.25 forward I I I I #
loop $-1 $-1 $314 $83 #
coedge $-1 $198 $198 $315 $316 reversed $124 $-1 #
face $-1 $-1 $317 $66 $-1 $318 forward single #
loop $-1 $319 $320 $126 #
cone-surface $-1 -72.750844192224335 -14.187329186990496 13.797391756032095 0.85716730853699208 0 -0.51503806187062418 0.12875951546765604 0 0.21429182713424802 1 I I -0.70710678118654746 0.70710678118654746 0.25 forward I I I I #
loop $-1 $-1 $321 $84 #
coedge $-1 $203 $203 $322 $323 reversed $127 $-1 #
face $-1 $-1 $324 $67 $-1 $325 forward single #
loop $-1 $326 $327 $129 #
cone-surface $-1 -72.750844192224335 -11.265205042091186 13.797391756032095 0.85716730853699208 0 -0.51503806187062418 0.12875951546765604 0 0.21429182713424802 1 I I -0.70710678118654746 0.70710678118654746 0.25 forward I I I I #
loop $-1 $-1 $328 $85 #
coedge $-1 $208 $208 $329 $330 reversed $130 $-1 #
face $-1 $331 $332 $68 $-1 $333 reversed single #
loop $-1 $-1 $334 $132 #
plane-surface $-1 -76.035035248878444 17.824801034343196 11.896959659032603 -0.85716730853699208 0 0.51503806187062418 0.51503806187062418 0 0.85716730853699208 forward_v I I I I #
coedge $-1 $335 $336 $337 $338 reversed $133 $-1 #
face $-1 $-1 $339 $69 $-1 $340 forward single #
loop $-1 $341 $342 $135 #
cone-surface $-1 -72.750844192224335 14.902676889443889 13.797391756032095 0.85716730853699208 0 -0.51503806187062418 0.12875951546765604 0 0.21429182713424802 1 I I -0.70710678118654746 0.70710678118654746 0.25 forward I I I I #
loop $-1 $-1 $343 $87 #
coedge $-1 $217 $217 $344 $345 reversed $136 $-1 #
face $-1 $-1 $346 $70 $-1 $347 forward single #
loop $-1 $348 $349 $138 #
cone-surface $-1 -72.750844192224335 17.824801034343196 13.797391756032095 0.85716730853699208 0 -0.51503806187062418 0.12875951546765604 0 0.21429182713424802 1 I I -0.70710678118654746 0.70710678118654746 0.25 forward I I I I #
loop $-1 $-1 $350 $88 #
coedge $-1 $222 $222 $351 $352 reversed $139 $-1 #
face $-1 $-1 $353 $71 $-1 $354 forward single #
loop $-1 $355 $356 $141 #
cone-surface $-1 -72.750844192224335 20.746925179242503 13.797391756032095 0.85716730853699208 0 -0.51503806187062418 0.12875951546765604 0 0.21429182713424802 1 I I -0.70710678118654746 0.70710678118654746 0.25 forward I I I I #
loop $-1 $-1 $357 $89 #
coedge $-1 $227 $227 $358 $359 reversed $142 $-1 #
face $-1 $360 $361 $54 $-1 $362 reversed single #
loop $-1 $-1 $363 $144 #
plane-surface $-1 0 -41.763926035624685 0 0 1 0 0 0 1 forward_v I I I I #
coedge $-1 $364 $365 $366 $367 forward $145 $-1 #
coedge $-1 $368 $147 $369 $370 forward $91 $-1 #
coedge $-1 $147 $368 $371 $372 forward $91 $-1 #
coedge $-1 $373 $374 $147 $235 reversed $375 $-1 #
edge $-1 $376 -41.763926035624685 $377 41.763926035624685 $234 $378 forward 7 unknown #
face $-1 $379 $380 $55 $-1 $381 forward single #
loop $-1 $-1 $382 $148 #
plane-surface $-1 76.035035248878444 0 0 -1 0 0 0 0 1 forward_v I I I I #
coedge $-1 $383 $384 $385 $386 forward $149 $-1 #
coedge $-1 $385 $151 $382 $387 reversed $94 $-1 #
coedge $-1 $151 $385 $388 $389 reversed $94 $-1 #
coedge $-1 $390 $391 $151 $243 reversed $380 $-1 #
edge $-1 $392 -76.035035248878444 $393 76.035035248878444 $242 $394 forward 7 unknown #
face $-1 $395 $396 $56 $-1 $397 reversed single #
loop $-1 $-1 $398 $152 #
plane-surface $-1 128.06265390877746 -19.057536095156017 220.5683270743194 0 1 0 0.85716730853699208 0 0.51503806187062418 forward_v I I I I #
coedge $-1 $399 $400 $401 $402 reversed $153 $-1 #
coedge $-1 $249 $155 $403 $404 reversed $97 $-1 #
coedge $-1 $155 $248 $399 $405 reversed $97 $-1 #
coedge $-1 $401 $406 $155 $251 forward $407 $-1 #
edge $-1 $408 -12.003708294489712 $409 -8.583369715621501 $250 $410 forward 7 unknown #
loop $-1 $-1 $257 $156 #
plane-surface $-1 -2.2868391288154442 -14.187329186990496 142.24645269662551 0.85716730853699208 0 0.51503806187062418 0.51503806187062418 0 -0.85716730853699208 forward_v I I I I #
loop $-1 $-1 $411 $99 #
coedge $-1 $255 $255 $256 $412 reversed $157 $-1 #
coedge $-1 $256 $256 $255 $412 forward $159 $-1 #
coedge $-1 $257 $257 $160 $258 forward $252 $-1 #
edge $-1 $413 0 $413 6.2831853071796004 $257 $414 forward 7 unknown #
loop $-1 $-1 $264 $161 #
plane-surface $-1 -2.2868391288154442 -14.187329186990496 142.24645269662551 0.85716730853699208 0 0.51503806187062418 0.51503806187062418 0 -0.85716730853699208 forward_v I I I I #
loop $-1 $-1 $415 $102 #
coedge $-1 $262 $262 $263 $416 reversed $162 $-1 #
coedge $-1 $263 $263 $262 $416 forward $164 $-1 #
coedge $-1 $264 $264 $165 $265 forward $259 $-1 #
edge $-1 $417 0 $417 6.2831853071796004 $264 $418 forward 7 unknown #
loop $-1 $-1 $271 $166 #
plane-surface $-1 -2.2868391288154442 -14.187329186990496 142.24645269662551 0.85716730853699208 0 0.51503806187062418 0.51503806187062418 0 -0.85716730853699208 forward_v I I I I #
loop $-1 $-1 $419 $105 #
coedge $-1 $269 $269 $270 $420 reversed $167 $-1 #
coedge $-1 $270 $270 $269 $420 forward $169 $-1 #
coedge $-1 $271 $271 $170 $272 forward $266 $-1 #
edge $-1 $421 0 $421 6.2831853071796004 $271 $422 forward 7 unknown #
face $-1 $423 $424 $60 $-1 $425 reversed single #
loop $-1 $-1 $426 $171 #
plane-surface $-1 128.06265390877746 12.954594126177676 220.5683270743194 0 1 0 0.85716730853699208 0 0.51503806187062418 forward_v I I I I #
coedge $-1 $427 $428 $429 $430 reversed $172 $-1 #
coedge $-1 $278 $174 $431 $432 reversed $109 $-1 #
coedge $-1 $174 $277 $427 $433 reversed $109 $-1 #
coedge $-1 $429 $434 $174 $280 forward $435 $-1 #
edge $-1 $436 -12.003708294489712 $437 -8.583369715621501 $279 $438 forward 7 unknown #
loop $-1 $-1 $286 $175 #
plane-surface $-1 -2.2868391288154442 17.824801034343196 142.24645269662551 0.85716730853699208 0 0.51503806187062418 0.51503806187062418 0 -0.85716730853699208 forward_v I I I I #
loop $-1 $-1 $439 $111 #
coedge $-1 $284 $284 $285 $440 reversed $176 $-1 #
coedge $-1 $285 $285 $284 $440 forward $178 $-1 #
coedge $-1 $286 $286 $179 $287 forward $281 $-1 #
edge $-1 $441 0 $441 6.2831853071796004 $286 $442 forward 7 unknown #
loop $-1 $-1 $293 $180 #
plane-surface $-1 -2.2868391288154442 17.824801034343196 142.24645269662551 0.85716730853699208 0 0.51503806187062418 0.51503806187062418 0 -0.85716730853699208 forward_v I I I I #
loop $-1 $-1 $443 $114 #
coedge $-1 $291 $291 $292 $444 reversed $181 $-1 #
coedge $-1 $292 $292 $291 $444 forward $183 $-1 #
coedge $-1 $293 $293 $184 $294 forward $288 $-1 #
edge $-1 $445 0 $445 6.2831853071796004 $293 $446 forward 7 unknown #
loop $-1 $-1 $300 $185 #
plane-surface $-1 -2.2868391288154442 17.824801034343196 142.24645269662551 0.85716730853699208 0 0.51503806187062418 0.51503806187062418 0 -0.85716730853699208 forward_v I I I I #
loop $-1 $-1 $447 $117 #
coedge $-1 $298 $298 $299 $448 reversed $186 $-1 #
coedge $-1 $299 $299 $298 $448 forward $188 $-1 #
coedge $-1 $300 $300 $189 $301 forward $295 $-1 #
edge $-1 $449 0 $449 6.2831853071796004 $300 $450 forward 7 unknown #
face $-1 $451 $452 $64 $-1 $453 forward single #
loop $-1 $-1 $454 $190 #
plane-surface $-1 -206.38452828647135 -9.3171222788249768 90.218834036726491 0 -1 0 0.85716730853699208 0 -0.51503806187062418 forward_v I I I I #
coedge $-1 $455 $456 $457 $458 reversed $191 $-1 #
coedge $-1 $307 $193 $459 $460 reversed $121 $-1 #
coedge $-1 $193 $306 $455 $461 reversed $121 $-1 #
coedge $-1 $457 $462 $193 $309 forward $452 $-1 #
edge $-1 $463 27.157228894357232 $464 30.577567473225443 $308 $465 forward 7 unknown #
loop $-1 $-1 $315 $194 #
plane-surface $-1 -76.035035248878444 -14.187329186990496 11.896959659032603 -0.85716730853699208 0 0.51503806187062418 0.51503806187062418 0 0.85716730853699208 forward_v I I I I #
loop $-1 $-1 $466 $123 #
coedge $-1 $313 $313 $314 $467 reversed $195 $-1 #
coedge $-1 $314 $314 $313 $467 forward $197 $-1 #
coedge $-1 $315 $315 $198 $316 forward $310 $-1 #
edge $-1 $468 0 $468 6.2831853071796004 $315 $469 forward 7 unknown #
loop $-1 $-1 $322 $199 #
plane-surface $-1 -76.035035248878444 -14.187329186990496 11.896959659032603 -0.85716730853699208 0 0.51503806187062418 0.51503806187062418 0 0.85716730853699208 forward_v I I I I #
loop $-1 $-1 $470 $126 #
coedge $-1 $320 $320 $321 $471 reversed $200 $-1 #
coedge $-1 $321 $321 $320 $471 forward $202 $-1 #
coedge $-1 $322 $322 $203 $323 forward $317 $-1 #
edge $-1 $472 0 $472 6.2831853071796004 $322 $473 forward 7 unknown #
loop $-1 $-1 $329 $204 #
plane-surface $-1 -76.035035248878444 -14.187329186990496 11.896959659032603 -0.85716730853699208 0 0.51503806187062418 0.51503806187062418 0 0.85716730853699208 forward_v I I I I #
loop $-1 $-1 $474 $129 #
coedge $-1 $327 $327 $328 $475 reversed $205 $-1 #
coedge $-1 $328 $328 $327 $475 forward $207 $-1 #
coedge $-1 $329 $329 $208 $330 forward $324 $-1 #
edge $-1 $476 0 $476 6.2831853071796004 $329 $477 forward 7 unknown #
face $-1 $478 $479 $68 $-1 $480 forward single #
loop $-1 $-1 $481 $209 #
plane-surface $-1 -206.38452828647135 22.695007942508717 90.218834036726491 0 -1 0 0.85716730853699208 0 -0.51503806187062418 forward_v I I I I #
coedge $-1 $482 $483 $484 $485 reversed $210 $-1 #
coedge $-1 $336 $212 $486 $487 reversed $133 $-1 #
coedge $-1 $212 $335 $482 $488 reversed $133 $-1 #
coedge $-1 $484 $489 $212 $338 forward $479 $-1 #
edge $-1 $490 27.157228894357232 $491 30.577567473225443 $337 $492 forward 7 unknown #
loop $-1 $-1 $344 $213 #
plane-surface $-1 -76.035035248878444 17.824801034343196 11.896959659032603 -0.85716730853699208 0 0.51503806187062418 0.51503806187062418 0 0.85716730853699208 forward_v I I I I #
loop $-1 $-1 $493 $135 #
coedge $-1 $342 $342 $343 $494 reversed $214 $-1 #
coedge $-1 $343 $343 $342 $494 forward $216 $-1 #
coedge $-1 $344 $344 $217 $345 forward $339 $-1 #
edge $-1 $495 0 $495 6.2831853071796004 $344 $496 forward 7 unknown #
loop $-1 $-1 $351 $218 #
plane-surface $-1 -76.035035248878444 17.824801034343196 11.896959659032603 -0.85716730853699208 0 0.51503806187062418 0.51503806187062418 0 0.85716730853699208 forward_v I I I I #
loop $-1 $-1 $497 $138 #
coedge $-1 $349 $349 $350 $498 reversed $219 $-1 #
coedge $-1 $350 $350 $349 $498 forward $221 $-1 #
coedge $-1 $351 $351 $222 $352 forward $346 $-1 #
edge $-1 $499 0 $499 6.2831853071796004 $351 $500 forward 7 unknown #
loop $-1 $-1 $358 $223 #
plane-surface $-1 -76.035035248878444 17.824801034343196 11.896959659032603 -0.85716730853699208 0 0.51503806187062418 0.51503806187062418 0 0.85716730853699208 forward_v I I I I #
loop $-1 $-1 $501 $141 #
coedge $-1 $356 $356 $357 $502 reversed $224 $-1 #
coedge $-1 $357 $357 $356 $502 forward $226 $-1 #
coedge $-1 $358 $358 $227 $359 forward $353 $-1 #
edge $-1 $503 0 $503 6.2831853071796004 $358 $504 forward 7 unknown #
face $-1 $505 $506 $54 $-1 $507 reversed single #
loop $-1 $-1 $508 $228 #
plane-surface $-1 -76.035035248878444 0 0 1 0 0 0 0 -1 forward_v I I I I #
coedge $-1 $509 $371 $510 $511 forward $229 $-1 #
coedge $-1 $512 $231 $509 $513 forward $145 $-1 #
coedge $-1 $231 $512 $514 $515 forward $145 $-1 #
coedge $-1 $374 $373 $231 $367 reversed $375 $-1 #
edge $-1 $516 -41.763926035624685 $517 41.763926035624685 $366 $518 forward 7 unknown #
coedge $-1 $233 $232 $519 $520 forward $91 $-1 #
coedge $-1 $521 $522 $232 $370 reversed $506 $-1 #
edge $-1 $377 -76.035035248878444 $523 76.035035248878444 $369 $524 forward 7 unknown #
coedge $-1 $363 $525 $233 $372 reversed $229 $-1 #
edge $-1 $526 -76.035035248878444 $376 76.035035248878444 $371 $527 forward 7 unknown #
coedge $-1 $366 $234 $525 $528 forward $375 $-1 #
coedge $-1 $234 $366 $521 $529 reversed $375 $-1 #
loop $-1 $-1 $373 $505 #
vertex $-1 $235 $530 #
vertex $-1 $235 $531 #
straight-curve $-1 76.035035248878444 0 17.589359174682691 0 1 0 I I #
face $-1 $532 $533 $55 $-1 $534 reversed single #
loop $-1 $-1 $391 $236 #
plane-surface $-1 0 -51.515721849915678 -10.986599211291718 0 0 1 1 0 0 forward_v I I I I #
coedge $-1 $535 $536 $240 $387 forward $237 $-1 #
coedge $-1 $537 $239 $536 $538 forward $149 $-1 #
coedge $-1 $239 $537 $539 $540 forward $149 $-1 #
coedge $-1 $241 $240 $239 $386 reversed $94 $-1 #
edge $-1 $541 -76.035035248878444 $542 76.035035248878444 $239 $543 forward 7 unknown #
edge $-1 $542 -17.589359174682691 $393 -10.986599211291718 $382 $544 forward 7 unknown #
coedge $-1 $539 $545 $241 $389 forward $546 $-1 #
edge $-1 $392 10.986599211291718 $541 17.589359174682691 $388 $547 forward 7 unknown #
coedge $-1 $548 $242 $545 $549 forward $380 $-1 #
coedge $-1 $242 $548 $535 $550 forward $380 $-1 #
vertex $-1 $389 $551 #
vertex $-1 $550 $552 #
straight-curve $-1 0 -41.763926035624685 -10.986599211291718 1 0 0 I I #
face $-1 $-1 $407 $56 $-1 $553 forward single #
loop $-1 $-1 $554 $244 #
plane-surface $-1 76.035035248878444 0 0 -1 0 0 0 0 1 forward_v I I I I #
coedge $-1 $555 $556 $557 $558 reversed $245 $-1 #
coedge $-1 $559 $247 $249 $405 forward $153 $-1 #
coedge $-1 $247 $559 $555 $560 forward $153 $-1 #
coedge $-1 $557 $250 $247 $402 forward $407 $-1 #
edge $-1 $409 2.2234576853297288 $561 11.963871501660769 $401 $562 forward 7 unknown #
coedge $-1 $563 $564 $248 $404 forward $396 $-1 #
edge $-1 $565 -98.387203878127096 $408 -92.694804362477015 $403 $566 forward 7 unknown #
edge $-1 $409 145.42912717320823 $565 152.07007049775692 $249 $567 forward 7 unknown #
coedge $-1 $250 $557 $563 $568 forward $407 $-1 #
loop $-1 $-1 $557 $395 #
vertex $-1 $404 $569 #
vertex $-1 $251 $570 #
straight-curve $-1 64.031326954388732 -9.3171222788249768 17.589359174682698 -1 0 0 I I #
coedge $-1 $411 $411 $-1 $571 reversed $254 $-1 #
edge $-1 $572 0 $572 6.2831853071796004 $255 $573 forward 7 unknown #
vertex $-1 $258 $574 #
ellipse-curve $-1 74.324865959444338 -17.109453331889807 14.743159416857646 0.85716730853699208 0 0.51503806187062418 0.25751903093531209 0 -0.42858365426849604 1 I I #
coedge $-1 $415 $415 $-1 $575 reversed $261 $-1 #
edge $-1 $576 0 $576 6.2831853071796004 $262 $577 forward 7 unknown #
vertex $-1 $265 $578 #
ellipse-curve $-1 74.324865959444338 -14.187329186990496 14.743159416857646 0.85716730853699208 0 0.51503806187062418 0.25751903093531209 0 -0.42858365426849604 1 I I #
coedge $-1 $419 $419 $-1 $579 reversed $268 $-1 #
edge $-1 $580 0 $580 6.2831853071796004 $269 $581 forward 7 unknown #
vertex $-1 $272 $582 #
ellipse-curve $-1 74.324865959444338 -11.265205042091186 14.743159416857646 0.85716730853699208 0 0.51503806187062418 0.25751903093531209 0 -0.42858365426849604 1 I I #
face $-1 $-1 $435 $60 $-1 $583 forward single #
loop $-1 $-1 $584 $273 #
plane-surface $-1 76.035035248878444 0 0 -1 0 0 0 0 1 forward_v I I I I #
coedge $-1 $585 $586 $587 $588 reversed $274 $-1 #
coedge $-1 $589 $276 $278 $433 forward $172 $-1 #
coedge $-1 $276 $589 $585 $590 forward $172 $-1 #
coedge $-1 $587 $279 $276 $430 forward $435 $-1 #
edge $-1 $437 -13.782607425337119 $591 -4.0421936090060786 $429 $592 forward 7 unknown #
coedge $-1 $593 $594 $277 $432 forward $424 $-1 #
edge $-1 $595 -98.387203878127096 $436 -92.694804362477015 $431 $596 forward 7 unknown #
edge $-1 $437 145.42912717320823 $595 152.07007049775692 $278 $597 forward 7 unknown #
coedge $-1 $279 $587 $593 $598 forward $435 $-1 #
loop $-1 $-1 $587 $423 #
vertex $-1 $432 $599 #
vertex $-1 $280 $600 #
straight-curve $-1 64.031326954388732 22.695007942508717 17.589359174682698 -1 0 0 I I #
coedge $-1 $439 $439 $-1 $601 reversed $283 $-1 #
edge $-1 $602 0 $602 6.2831853071796004 $284 $603 forward 7 unknown #
vertex $-1 $287 $604 #
ellipse-curve $-1 74.324865959444338 14.902676889443889 14.743159416857646 0.85716730853699208 0 0.51503806187062418 0.25751903093531209 0 -0.42858365426849604 1 I I #
coedge $-1 $443 $443 $-1 $605 reversed $290 $-1 #
edge $-1 $606 0 $606 6.2831853071796004 $291 $607 forward 7 unknown #
vertex $-1 $294 $608 #
ellipse-curve $-1 74.324865959444338 17.824801034343196 14.743159416857646 0.85716730853699208 0 0.51503806187062418 0.25751903093531209 0 -0.42858365426849604 1 I I #
coedge $-1 $447 $447 $-1 $609 reversed $297 $-1 #
edge $-1 $610 0 $610 6.2831853071796004 $298 $611 forward 7 unknown #
vertex $-1 $301 $612 #
ellipse-curve $-1 74.324865959444338 20.746925179242503 14.743159416857646 0.85716730853699208 0 0.51503806187062418 0.25751903093531209 0 -0.42858365426849604 1 I I #
face $-1 $-1 $613 $64 $-1 $614 reversed single #
loop $-1 $-1 $308 $302 #
plane-surface $-1 0 0 17.589359174682691 0 0 1 1 0 0 forward_v I I I I #
coedge $-1 $615 $616 $617 $618 reversed $303 $-1 #
coedge $-1 $619 $305 $307 $461 forward $191 $-1 #
coedge $-1 $305 $619 $615 $620 forward $191 $-1 #
coedge $-1 $617 $308 $305 $458 forward $452 $-1 #
edge $-1 $464 -11.963871501660769 $621 -2.2234576853297288 $457 $622 forward 7 unknown #
coedge $-1 $623 $624 $306 $460 forward $613 $-1 #
edge $-1 $625 -33.212457359330642 $463 -27.520057843680554 $459 $626 forward 7 unknown #
edge $-1 $464 -6.6409433245486742 $625 0 $307 $627 forward 7 unknown #
coedge $-1 $308 $617 $623 $628 forward $452 $-1 #
vertex $-1 $460 $629 #
vertex $-1 $309 $630 #
straight-curve $-1 -103.19226414323568 -19.057536095156017 17.589359174682691 1 0 0 I I #
coedge $-1 $466 $466 $-1 $631 reversed $312 $-1 #
edge $-1 $632 0 $632 6.2831853071796004 $313 $633 forward 7 unknown #
vertex $-1 $316 $634 #
ellipse-curve $-1 -74.324865959444338 -17.109453331889807 14.743159416857647 -0.85716730853699208 0 0.51503806187062418 0.25751903093531209 0 0.42858365426849604 1 I I #
coedge $-1 $470 $470 $-1 $635 reversed $319 $-1 #
edge $-1 $636 0 $636 6.2831853071796004 $320 $637 forward 7 unknown #
vertex $-1 $323 $638 #
ellipse-curve $-1 -74.324865959444338 -14.187329186990496 14.743159416857647 -0.85716730853699208 0 0.51503806187062418 0.25751903093531209 0 0.42858365426849604 1 I I #
coedge $-1 $474 $474 $-1 $639 reversed $326 $-1 #
edge $-1 $640 0 $640 6.2831853071796004 $327 $641 forward 7 unknown #
vertex $-1 $330 $642 #
ellipse-curve $-1 -74.324865959444338 -11.265205042091186 14.743159416857647 -0.85716730853699208 0 0.51503806187062418 0.25751903093531209 0 0.42858365426849604 1 I I #
face $-1 $-1 $643 $68 $-1 $644 reversed single #
loop $-1 $-1 $337 $331 #
plane-surface $-1 0 0 17.589359174682691 0 0 1 1 0 0 forward_v I I I I #
coedge $-1 $645 $646 $647 $648 reversed $332 $-1 #
coedge $-1 $649 $334 $336 $488 forward $210 $-1 #
coedge $-1 $334 $649 $645 $650 forward $210 $-1 #
coedge $-1 $647 $337 $334 $485 forward $479 $-1 #
edge $-1 $491 4.0421936090060786 $651 13.782607425337119 $484 $652 forward 7 unknown #
coedge $-1 $653 $654 $335 $487 forward $643 $-1 #
edge $-1 $655 -33.212457359330642 $490 -27.520057843680554 $486 $656 forward 7 unknown #
edge $-1 $491 -6.6409433245486742 $655 0 $336 $657 forward 7 unknown #
coedge $-1 $337 $647 $653 $658 forward $479 $-1 #
vertex $-1 $338 $659 #
vertex $-1 $338 $660 #
straight-curve $-1 -103.19226414323568 12.954594126177676 17.589359174682691 1 0 0 I I #
coedge $-1 $493 $493 $-1 $661 reversed $341 $-1 #
edge $-1 $662 0 $662 6.2831853071796004 $342 $663 forward 7 unknown #
vertex $-1 $345 $664 #
ellipse-curve $-1 -74.324865959444338 14.902676889443889 14.743159416857647 -0.85716730853699208 0 0.51503806187062418 0.25751903093531209 0 0.42858365426849604 1 I I #
coedge $-1 $497 $497 $-1 $665 reversed $348 $-1 #
edge $-1 $666 0 $666 6.2831853071796004 $349 $667 forward 7 unknown #
vertex $-1 $352 $668 #
ellipse-curve $-1 -74.324865959444338 17.824801034343196 14.743159416857647 -0.85716730853699208 0 0.51503806187062418 0.25751903093531209 0 0.42858365426849604 1 I I #
coedge $-1 $501 $501 $-1 $669 reversed $355 $-1 #
edge $-1 $670 0 $670 6.2831853071796004 $356 $671 forward 7 unknown #
vertex $-1 $359 $672 #
ellipse-curve $-1 -74.324865959444338 20.746925179242503 14.743159416857647 -0.85716730853699208 0 0.51503806187062418 0.25751903093531209 0 0.42858365426849604 1 I I #
face $-1 $-1 $375 $54 $-1 $673 reversed single #
loop $-1 $-1 $521 $360 #
plane-surface $-1 0 41.763926035624685 0 0 -1 0 0 0 -1 forward_v I I I I #
coedge $-1 $674 $519 $522 $675 forward $361 $-1 #
coedge $-1 $525 $363 $364 $513 reversed $229 $-1 #
coedge $-1 $519 $674 $363 $511 reversed $361 $-1 #
edge $-1 $526 -17.589359174682691 $676 17.589359174682691 $510 $677 forward 7 unknown #
coedge $-1 $365 $364 $674 $678 forward $145 $-1 #
edge $-1 $517 -76.035035248878444 $676 76.035035248878444 $509 $679 forward 7 unknown #
coedge $-1 $522 $521 $365 $515 reversed $506 $-1 #
edge $-1 $680 -76.035035248878444 $516 76.035035248878444 $514 $681 forward 7 unknown #
vertex $-1 $367 $682 #
vertex $-1 $528 $683 #
straight-curve $-1 76.035035248878444 0 -17.589359174682691 0 -1 0 I I #
coedge $-1 $508 $510 $368 $520 reversed $361 $-1 #
edge $-1 $523 -41.763926035624685 $526 41.763926035624685 $519 $684 forward 7 unknown #
coedge $-1 $514 $369 $374 $529 forward $506 $-1 #
coedge $-1 $369 $514 $508 $675 reversed $506 $-1 #
vertex $-1 $370 $685 #
straight-curve $-1 0 41.763926035624685 17.589359174682691 -1 0 0 I I #
coedge $-1 $371 $509 $373 $528 reversed $229 $-1 #
vertex $-1 $520 $686 #
straight-curve $-1 0 -41.763926035624685 17.589359174682691 1 0 0 I I #
edge $-1 $376 -17.589359174682691 $517 17.589359174682691 $373 $687 forward 7 unknown #
edge $-1 $377 -17.589359174682691 $516 17.589359174682691 $374 $688 forward 7 unknown #
point $-1 76.035035248878444 -41.763926035624685 17.589359174682691 #
point $-1 76.035035248878444 41.763926035624685 17.589359174682691 #
face $-1 $-1 $546 $55 $-1 $689 reversed single #
loop $-1 $-1 $690 $379 #
plane-surface $-1 0 -61.267517664206679 -14.287979192987205 0 1 0 0 0 1 forward_v I I I I #
coedge $-1 $691 $382 $391 $550 reversed $237 $-1 #
coedge $-1 $382 $691 $383 $538 reversed $237 $-1 #
coedge $-1 $384 $383 $692 $693 forward $149 $-1 #
edge $-1 $542 41.763926035624685 $694 61.267517664206679 $536 $695 forward 7 unknown #
coedge $-1 $696 $388 $384 $540 reversed $546 $-1 #
edge $-1 $697 -61.267517664206679 $541 -41.763926035624685 $539 $698 forward 7 unknown #
vertex $-1 $389 $699 #
vertex $-1 $538 $700 #
straight-curve $-1 0 -41.763926035624685 -17.589359174682691 1 0 0 I I #
straight-curve $-1 76.035035248878444 -41.763926035624685 0 0 0 1 I I #
coedge $-1 $388 $696 $390 $549 reversed $546 $-1 #
loop $-1 $-1 $388 $532 #
straight-curve $-1 -76.035035248878444 -41.763926035624685 0 0 0 -1 I I #
coedge $-1 $391 $390 $701 $702 forward $380 $-1 #
edge $-1 $392 -9.7517958142910004 $703 9.7517958142910004 $545 $704 forward 7 unknown #
edge $-1 $705 -9.7517958142910004 $393 9.7517958142910004 $535 $706 forward 7 unknown #
point $-1 -76.035035248878444 -41.763926035624678 -10.986599211291718 #
point $-1 76.035035248878444 -41.763926035624678 -10.986599211291718 #
plane-surface $-1 0 0 17.589359174682691 0 0 1 1 0 0 forward_v I I I I #
coedge $-1 $564 $563 $556 $707 forward $396 $-1 #
coedge $-1 $556 $398 $400 $560 reversed $245 $-1 #
coedge $-1 $398 $555 $554 $707 reversed $245 $-1 #
coedge $-1 $406 $401 $398 $558 forward $407 $-1 #
edge $-1 $561 8.583369715621501 $708 12.003708294489712 $557 $709 forward 7 unknown #
coedge $-1 $400 $399 $564 $710 reversed $153 $-1 #
edge $-1 $711 -152.07007049775692 $561 -145.42912717320823 $555 $712 forward 7 unknown #
vertex $-1 $402 $713 #
straight-curve $-1 72.614696670010233 -7.093664593495248 17.589359174682698 0 -1 0 I I #
coedge $-1 $554 $403 $406 $568 reversed $396 $-1 #
coedge $-1 $403 $554 $559 $710 forward $396 $-1 #
vertex $-1 $404 $714 #
straight-curve $-1 76.035035248878444 -9.3171222788249768 110.2841635371597 0 0 1 I I #
straight-curve $-1 -2.2868391288154442 -9.3171222788249768 142.24645269662551 0.51503806187062418 0 -0.85716730853699208 I I #
edge $-1 $708 -19.057536095156017 $408 -9.3171222788249768 $563 $715 forward 7 unknown #
point $-1 76.035035248878444 -9.3171222788249768 17.589359174682691 #
point $-1 72.614696670010233 -9.3171222788249768 17.589359174682713 #
edge $-1 $716 1 $716 0 $411 $-1 forward 7 unknown #
vertex $-1 $412 $717 #
ellipse-curve $-1 72.965136019358596 -17.109453331889807 13.926151271499762 0.85716730853699208 0 0.51503806187062418 0.25751903093531209 0 -0.42858365426849604 1 I I #
point $-1 74.582384990379666 -17.109453331889807 14.314575762589165 #
edge $-1 $718 1 $718 0 $415 $-1 forward 7 unknown #
vertex $-1 $416 $719 #
ellipse-curve $-1 72.965136019358596 -14.187329186990496 13.926151271499762 0.85716730853699208 0 0.51503806187062418 0.25751903093531209 0 -0.42858365426849604 1 I I #
point $-1 74.582384990379666 -14.187329186990496 14.314575762589165 #
edge $-1 $720 1 $720 0 $419 $-1 forward 7 unknown #
vertex $-1 $420 $721 #
ellipse-curve $-1 72.965136019358596 -11.265205042091186 13.926151271499762 0.85716730853699208 0 0.51503806187062418 0.25751903093531209 0 -0.42858365426849604 1 I I #
point $-1 74.582384990379666 -11.265205042091186 14.314575762589165 #
plane-surface $-1 0 0 17.589359174682691 0 0 1 1 0 0 forward_v I I I I #
coedge $-1 $594 $593 $586 $722 forward $424 $-1 #
coedge $-1 $586 $426 $428 $590 reversed $274 $-1 #
coedge $-1 $426 $585 $584 $722 reversed $274 $-1 #
coedge $-1 $434 $429 $426 $588 forward $435 $-1 #
edge $-1 $591 8.583369715621501 $723 12.003708294489712 $587 $724 forward 7 unknown #
coedge $-1 $428 $427 $594 $725 reversed $172 $-1 #
edge $-1 $726 -152.07007049775692 $591 -145.42912717320823 $585 $727 forward 7 unknown #
vertex $-1 $430 $728 #
straight-curve $-1 72.614696670010233 8.9124005171715979 17.589359174682698 0 -1 0 I I #
coedge $-1 $584 $431 $434 $598 reversed $424 $-1 #
coedge $-1 $431 $584 $589 $725 forward $424 $-1 #
vertex $-1 $432 $729 #
straight-curve $-1 76.035035248878444 22.695007942508717 110.2841635371597 0 0 1 I I #
straight-curve $-1 -2.2868391288154442 22.695007942508717 142.24645269662551 0.51503806187062418 0 -0.85716730853699208 I I #
edge $-1 $723 12.954594126177676 $436 22.695007942508717 $593 $730 forward 7 unknown #
point $-1 76.035035248878444 22.695007942508717 17.589359174682691 #
point $-1 72.614696670010233 22.695007942508717 17.589359174682713 #
edge $-1 $731 1 $731 0 $439 $-1 forward 7 unknown #
vertex $-1 $440 $732 #
ellipse-curve $-1 72.965136019358596 14.902676889443889 13.926151271499762 0.85716730853699208 0 0.51503806187062418 0.25751903093531209 0 -0.42858365426849604 1 I I #
point $-1 74.582384990379666 14.902676889443889 14.314575762589165 #
edge $-1 $733 1 $733 0 $443 $-1 forward 7 unknown #
vertex $-1 $444 $734 #
ellipse-curve $-1 72.965136019358596 17.824801034343196 13.926151271499762 0.85716730853699208 0 0.51503806187062418 0.25751903093531209 0 -0.42858365426849604 1 I I #
point $-1 74.582384990379666 17.824801034343196 14.314575762589165 #
edge $-1 $735 1 $735 0 $447 $-1 forward 7 unknown #
vertex $-1 $448 $736 #
ellipse-curve $-1 72.965136019358596 20.746925179242503 13.926151271499762 0.85716730853699208 0 0.51503806187062418 0.25751903093531209 0 -0.42858365426849604 1 I I #
point $-1 74.582384990379666 20.746925179242503 14.314575762589165 #
loop $-1 $-1 $459 $451 #
plane-surface $-1 -76.035035248878444 0 0 1 0 0 0 0 -1 forward_v I I I I #
coedge $-1 $616 $454 $456 $620 reversed $303 $-1 #
coedge $-1 $454 $615 $737 $738 reversed $303 $-1 #
coedge $-1 $462 $457 $454 $618 forward $452 $-1 #
edge $-1 $621 -30.577567473225443 $739 -27.157228894357232 $617 $740 forward 7 unknown #
coedge $-1 $456 $455 $624 $741 reversed $191 $-1 #
edge $-1 $742 0 $621 6.6409433245486742 $615 $743 forward 7 unknown #
vertex $-1 $458 $744 #
straight-curve $-1 -72.614696670010233 -7.093664593495248 17.589359174682691 0 1 0 I I #
coedge $-1 $737 $459 $462 $628 reversed $613 $-1 #
coedge $-1 $459 $737 $619 $741 forward $613 $-1 #
vertex $-1 $460 $745 #
straight-curve $-1 -76.035035248878444 -19.057536095156017 45.109417018363246 0 0 1 I I #
straight-curve $-1 -76.035035248878444 -19.057536095156017 11.896959659032603 -0.51503806187062418 0 -0.85716730853699208 I I #
edge $-1 $739 9.3171222788249768 $463 19.057536095156017 $623 $746 forward 7 unknown #
point $-1 -76.035035248878444 -19.057536095156017 17.589359174682691 #
point $-1 -72.614696670010233 -19.057536095156017 17.589359174682691 #
edge $-1 $747 1 $747 0 $466 $-1 forward 7 unknown #
vertex $-1 $467 $748 #
ellipse-curve $-1 -72.965136019358582 -17.109453331889807 13.926151271499752 -0.85716730853699208 0 0.51503806187062418 0.25751903093531209 0 0.42858365426849604 1 I I #
point $-1 -74.067346928509025 -17.109453331889807 15.171743071126146 #
edge $-1 $749 1 $749 0 $470 $-1 forward 7 unknown #
vertex $-1 $471 $750 #
ellipse-curve $-1 -72.965136019358582 -14.187329186990496 13.926151271499752 -0.85716730853699208 0 0.51503806187062418 0.25751903093531209 0 0.42858365426849604 1 I I #
point $-1 -74.067346928509025 -14.187329186990496 15.171743071126146 #
edge $-1 $751 1 $751 0 $474 $-1 forward 7 unknown #
vertex $-1 $475 $752 #
ellipse-curve $-1 -72.965136019358582 -11.265205042091186 13.926151271499752 -0.85716730853699208 0 0.51503806187062418 0.25751903093531209 0 0.42858365426849604 1 I I #
point $-1 -74.067346928509025 -11.265205042091186 15.171743071126146 #
loop $-1 $-1 $486 $478 #
plane-surface $-1 -76.035035248878444 0 0 1 0 0 0 0 -1 forward_v I I I I #
coedge $-1 $646 $481 $483 $650 reversed $332 $-1 #
coedge $-1 $481 $645 $753 $754 reversed $332 $-1 #
coedge $-1 $489 $484 $481 $648 forward $479 $-1 #
edge $-1 $651 -30.577567473225443 $755 -27.157228894357232 $647 $756 forward 7 unknown #
coedge $-1 $483 $482 $654 $757 reversed $210 $-1 #
edge $-1 $758 0 $651 6.6409433245486742 $645 $759 forward 7 unknown #
vertex $-1 $485 $760 #
straight-curve $-1 -72.614696670010233 8.9124005171715979 17.589359174682691 0 1 0 I I #
coedge $-1 $753 $486 $489 $658 reversed $643 $-1 #
coedge $-1 $486 $753 $649 $757 forward $643 $-1 #
vertex $-1 $487 $761 #
straight-curve $-1 -76.035035248878444 12.954594126177676 45.109417018363246 0 0 1 I I #
straight-curve $-1 -76.035035248878444 12.954594126177676 11.896959659032603 -0.51503806187062418 0 -0.85716730853699208 I I #
edge $-1 $755 -22.695007942508717 $490 -12.954594126177676 $653 $762 forward 7 unknown #
point $-1 -76.035035248878444 12.954594126177676 17.589359174682691 #
point $-1 -72.614696670010233 12.954594126177676 17.589359174682691 #
edge $-1 $763 1 $763 0 $493 $-1 forward 7 unknown #
vertex $-1 $494 $764 #
ellipse-curve $-1 -72.965136019358582 14.902676889443889 13.926151271499752 -0.85716730853699208 0 0.51503806187062418 0.25751903093531209 0 0.42858365426849604 1 I I #
point $-1 -74.067346928509025 14.902676889443889 15.171743071126146 #
edge $-1 $765 1 $765 0 $497 $-1 forward 7 unknown #
vertex $-1 $498 $766 #
ellipse-curve $-1 -72.965136019358582 17.824801034343196 13.926151271499752 -0.85716730853699208 0 0.51503806187062418 0.25751903093531209 0 0.42858365426849604 1 I I #
point $-1 -74.067346928509025 17.824801034343196 15.171743071126146 #
edge $-1 $767 1 $767 0 $501 $-1 forward 7 unknown #
vertex $-1 $502 $768 #
ellipse-curve $-1 -72.965136019358582 20.746925179242503 13.926151271499752 -0.85716730853699208 0 0.51503806187062418 0.25751903093531209 0 0.42858365426849604 1 I I #
point $-1 -74.067346928509025 20.746925179242503 15.171743071126146 #
plane-surface $-1 76.035035248878444 0 0 -1 0 0 0 0 1 forward_v I I I I #
coedge $-1 $510 $508 $512 $678 reversed $361 $-1 #
edge $-1 $523 -17.589359174682691 $680 17.589359174682691 $522 $769 forward 7 unknown #
vertex $-1 $678 $770 #
straight-curve $-1 -76.035035248878444 -41.763926035624685 0 0 0 -1 I I #
edge $-1 $676 -41.763926035624685 $680 41.763926035624685 $674 $771 forward 7 unknown #
straight-curve $-1 0 -41.763926035624685 -17.589359174682691 -1 0 0 I I #
vertex $-1 $515 $772 #
straight-curve $-1 0 41.763926035624685 -17.589359174682691 1 0 0 I I #
point $-1 76.035035248878444 41.763926035624685 -17.589359174682691 #
point $-1 76.035035248878444 -41.763926035624685 -17.589359174682691 #
straight-curve $-1 -76.035035248878444 0 17.589359174682691 0 -1 0 I I #
point $-1 -76.035035248878444 41.763926035624685 17.589359174682691 #
point $-1 -76.035035248878444 -41.763926035624685 17.589359174682691 #
straight-curve $-1 76.035035248878444 -41.763926035624685 0 0 0 -1 I I #
straight-curve $-1 76.035035248878444 41.763926035624685 0 0 0 -1 I I #
plane-surface $-1 -76.035035248878444 0 0 1 0 0 0 0 -1 forward_v I I I I #
coedge $-1 $692 $701 $696 $773 forward $533 $-1 #
coedge $-1 $536 $535 $774 $775 forward $237 $-1 #
coedge $-1 $774 $690 $537 $693 reversed $533 $-1 #
edge $-1 $694 -76.035035248878444 $697 76.035035248878444 $692 $776 forward 7 unknown #
vertex $-1 $775 $777 #
straight-curve $-1 76.035035248878444 0 -17.589359174682691 0 -1 0 I I #
coedge $-1 $545 $539 $690 $773 reversed $546 $-1 #
vertex $-1 $540 $778 #
straight-curve $-1 -76.035035248878444 0 -17.589359174682691 0 1 0 I I #
point $-1 -76.035035248878444 -41.763926035624685 -17.589359174682691 #
point $-1 76.035035248878444 -41.763926035624685 -17.589359174682691 #
coedge $-1 $690 $774 $548 $702 reversed $533 $-1 #
edge $-1 $703 -76.035035248878444 $705 76.035035248878444 $701 $779 forward 7 unknown #
vertex $-1 $549 $780 #
straight-curve $-1 -76.035035248878444 -51.515721849915678 -10.986599211291718 0 -1 0 I I #
vertex $-1 $550 $781 #
straight-curve $-1 76.035035248878444 -51.515721849915678 -10.986599211291718 0 1 0 I I #
edge $-1 $708 92.694804362477015 $711 98.387203878127096 $554 $782 forward 7 unknown #
vertex $-1 $568 $783 #
straight-curve $-1 64.031326954388732 -19.057536095156017 17.589359174682698 1 0 0 I I #
edge $-1 $711 -11.963871501660769 $565 -2.2234576853297288 $564 $784 forward 7 unknown #
vertex $-1 $710 $785 #
straight-curve $-1 -2.2868391288154442 -19.057536095156017 142.24645269662551 -0.51503806187062418 0 0.85716730853699208 I I #
point $-1 72.614696670010233 -19.057536095156017 17.589359174682713 #
point $-1 76.035035248878444 -9.3171222788249768 11.896959659032603 #
straight-curve $-1 76.035035248878444 0 17.589359174682691 0 1 0 I I #
vertex $-1 $571 $786 #
point $-1 73.222655050293909 -17.109453331889807 13.497567617231265 #
vertex $-1 $575 $787 #
point $-1 73.222655050293909 -14.187329186990496 13.497567617231265 #
vertex $-1 $579 $788 #
point $-1 73.222655050293909 -11.265205042091186 13.497567617231265 #
edge $-1 $723 92.694804362477015 $726 98.387203878127096 $584 $789 forward 7 unknown #
vertex $-1 $598 $790 #
straight-curve $-1 64.031326954388732 12.954594126177676 17.589359174682698 1 0 0 I I #
edge $-1 $726 4.0421936090060786 $595 13.782607425337119 $594 $791 forward 7 unknown #
vertex $-1 $725 $792 #
straight-curve $-1 -2.2868391288154442 12.954594126177676 142.24645269662551 -0.51503806187062418 0 0.85716730853699208 I I #
point $-1 72.614696670010233 12.954594126177676 17.589359174682713 #
point $-1 76.035035248878444 22.695007942508717 11.896959659032603 #
straight-curve $-1 76.035035248878444 0 17.589359174682691 0 1 0 I I #
vertex $-1 $601 $793 #
point $-1 73.222655050293909 14.902676889443889 13.497567617231265 #
vertex $-1 $605 $794 #
point $-1 73.222655050293909 17.824801034343196 13.497567617231265 #
vertex $-1 $609 $795 #
point $-1 73.222655050293909 20.746925179242503 13.497567617231265 #
coedge $-1 $624 $623 $616 $738 forward $613 $-1 #
edge $-1 $739 27.520057843680554 $742 33.212457359330642 $737 $796 forward 7 unknown #
vertex $-1 $628 $797 #
straight-curve $-1 -103.19226414323568 -9.3171222788249768 17.589359174682691 -1 0 0 I I #
edge $-1 $742 2.2234576853297288 $625 11.963871501660769 $624 $798 forward 7 unknown #
vertex $-1 $741 $799 #
straight-curve $-1 -76.035035248878444 -9.3171222788249768 11.896959659032603 0.51503806187062418 0 0.85716730853699208 I I #
point $-1 -72.614696670010233 -9.3171222788249768 17.589359174682691 #
point $-1 -76.035035248878444 -19.057536095156017 11.896959659032603 #
straight-curve $-1 -76.035035248878444 0 17.589359174682691 0 -1 0 I I #
vertex $-1 $631 $800 #
point $-1 -72.707616988423268 -17.109453331889807 14.354734925768247 #
vertex $-1 $635 $801 #
point $-1 -72.707616988423268 -14.187329186990496 14.354734925768247 #
vertex $-1 $639 $802 #
point $-1 -72.707616988423268 -11.265205042091186 14.354734925768247 #
coedge $-1 $654 $653 $646 $754 forward $643 $-1 #
edge $-1 $755 27.520057843680554 $758 33.212457359330642 $753 $803 forward 7 unknown #
vertex $-1 $658 $804 #
straight-curve $-1 -103.19226414323568 22.695007942508717 17.589359174682691 -1 0 0 I I #
edge $-1 $758 -13.782607425337119 $655 -4.0421936090060786 $654 $805 forward 7 unknown #
vertex $-1 $757 $806 #
straight-curve $-1 -76.035035248878444 22.695007942508717 11.896959659032603 0.51503806187062418 0 0.85716730853699208 I I #
point $-1 -72.614696670010233 22.695007942508717 17.589359174682691 #
point $-1 -76.035035248878444 12.954594126177676 11.896959659032603 #
straight-curve $-1 -76.035035248878444 0 17.589359174682691 0 -1 0 I I #
vertex $-1 $661 $807 #
point $-1 -72.707616988423268 14.902676889443889 14.354734925768247 #
vertex $-1 $665 $808 #
point $-1 -72.707616988423268 17.824801034343196 14.354734925768247 #
vertex $-1 $669 $809 #
point $-1 -72.707616988423268 20.746925179242503 14.354734925768247 #
straight-curve $-1 -76.035035248878444 41.763926035624685 0 0 0 -1 I I #
point $-1 -76.035035248878444 -41.763926035624685 -17.589359174682691 #
straight-curve $-1 -76.035035248878444 0 -17.589359174682691 0 1 0 I I #
point $-1 -76.035035248878444 41.763926035624685 -17.589359174682691 #
edge $-1 $703 -3.3013799816954865 $697 3.3013799816954865 $696 $810 forward 7 unknown #
coedge $-1 $701 $692 $691 $775 reversed $533 $-1 #
edge $-1 $705 -3.3013799816954865 $694 3.3013799816954865 $691 $811 forward 7 unknown #
straight-curve $-1 0 -61.267517664206679 -17.589359174682691 -1 0 0 I I #
point $-1 76.035035248878444 -61.267517664206679 -17.589359174682691 #
point $-1 -76.035035248878444 -61.267517664206679 -17.589359174682691 #
straight-curve $-1 0 -61.267517664206679 -10.986599211291718 1 0 0 I I #
point $-1 -76.035035248878444 -61.267517664206679 -10.986599211291718 #
point $-1 76.035035248878444 -61.267517664206679 -10.986599211291718 #
straight-curve $-1 76.035035248878444 -19.057536095156017 110.2841635371597 0 0 -1 I I #
point $-1 76.035035248878444 -19.057536095156017 17.589359174682691 #
straight-curve $-1 76.035035248878444 -7.093664593495248 11.896959659032618 0 1 0 I I #
point $-1 76.035035248878444 -19.057536095156017 11.896959659032603 #
point $-1 72.536552365090103 -17.109453331889807 13.668632240564449 #
point $-1 72.536552365090103 -14.187329186990496 13.668632240564449 #
point $-1 72.536552365090103 -11.265205042091186 13.668632240564449 #
straight-curve $-1 76.035035248878444 12.954594126177676 110.2841635371597 0 0 -1 I I #
point $-1 76.035035248878444 12.954594126177676 17.589359174682691 #
straight-curve $-1 76.035035248878444 8.9124005171715979 11.896959659032618 0 1 0 I I #
point $-1 76.035035248878444 12.954594126177676 11.896959659032603 #
point $-1 72.536552365090103 14.902676889443889 13.668632240564449 #
point $-1 72.536552365090103 17.824801034343196 13.668632240564449 #
point $-1 72.536552365090103 20.746925179242503 13.668632240564449 #
straight-curve $-1 -76.035035248878444 -9.3171222788249768 45.109417018363246 0 0 -1 I I #
point $-1 -76.035035248878444 -9.3171222788249768 17.589359174682691 #
straight-curve $-1 -76.035035248878444 -7.093664593495248 11.896959659032612 0 -1 0 I I #
point $-1 -76.035035248878444 -9.3171222788249768 11.896959659032603 #
point $-1 -72.536552365090088 -17.109453331889807 13.668632240564438 #
point $-1 -72.536552365090088 -14.187329186990496 13.668632240564438 #
point $-1 -72.536552365090088 -11.265205042091186 13.668632240564438 #
straight-curve $-1 -76.035035248878444 22.695007942508717 45.109417018363246 0 0 -1 I I #
point $-1 -76.035035248878444 22.695007942508717 17.589359174682691 #
straight-curve $-1 -76.035035248878444 8.9124005171715979 11.896959659032612 0 -1 0 I I #
point $-1 -76.035035248878444 22.695007942508717 11.896959659032603 #
point $-1 -72.536552365090088 14.902676889443889 13.668632240564438 #
point $-1 -72.536552365090088 17.824801034343196 13.668632240564438 #
point $-1 -72.536552365090088 20.746925179242503 13.668632240564438 #
straight-curve $-1 -76.035035248878444 -61.267517664206679 -14.287979192987205 0 0 -1 I I #
straight-curve $-1 76.035035248878444 -61.267517664206679 -14.287979192987205 0 0 -1 I I #
End-of-ACIS-data 