500 0 7 0           
7 Unknown 11 ACIS 5.0 NT 24 Thu Mar 25 18:37:21 1999 
-1 9.9999999999999995e-007 1e-010 
body $-1 $7 $-1 $8 #
body $-1 $9 $-1 $10 #
body $-1 $11 $-1 $12 #
body $-1 $13 $-1 $14 #
body $-1 $15 $-1 $16 #
body $-1 $17 $-1 $18 #
body $-1 $19 $-1 $20 #
lump $-1 $-1 $21 $0 #
transform $-1 1 0 0 0 1 0 0 0 1 73.299356059450048 49.598254115864144 19.067938070264709 1 rotate no_reflect no_shear #
lump $-1 $-1 $22 $1 #
transform $-1 1 0 0 0 1 0 0 0 1 73.299356059450048 49.598254115864144 19.067938070264709 1 rotate no_reflect no_shear #
lump $-1 $-1 $23 $2 #
transform $-1 1 0 0 0 1 0 0 0 1 73.299356059450048 49.598254115864144 19.067938070264709 1 rotate no_reflect no_shear #
lump $-1 $-1 $24 $3 #
transform $-1 1 0 0 0 1 0 0 0 1 73.299356059450048 49.598254115864144 19.067938070264709 1 rotate no_reflect no_shear #
lump $-1 $-1 $25 $4 #
transform $-1 1 0 0 0 1 0 0 0 1 73.299356059450048 49.598254115864144 19.067938070264709 1 rotate no_reflect no_shear #
lump $-1 $-1 $26 $5 #
transform $-1 1 0 0 0 1 0 0 0 1 73.299356059450048 49.598254115864144 19.067938070264709 1 rotate no_reflect no_shear #
lump $-1 $-1 $27 $6 #
transform $-1 1 0 0 0 1 0 0 0 1 73.299356059450048 49.598254115864144 19.067938070264709 1 rotate no_reflect no_shear #
shell $-1 $-1 $-1 $28 $-1 $7 #
shell $-1 $-1 $-1 $29 $-1 $9 #
shell $-1 $-1 $-1 $30 $-1 $11 #
shell $-1 $-1 $-1 $31 $-1 $13 #
shell $-1 $-1 $-1 $32 $-1 $15 #
shell $-1 $-1 $-1 $33 $-1 $17 #
shell $-1 $-1 $-1 $34 $-1 $19 #
face $-1 $35 $36 $21 $-1 $37 forward single #
face $-1 $38 $39 $22 $-1 $40 forward single #
face $-1 $41 $42 $23 $-1 $43 forward single #
face $-1 $44 $45 $24 $-1 $46 reversed single #
face $-1 $47 $48 $25 $-1 $49 forward single #
face $-1 $50 $51 $26 $-1 $52 forward single #
face $-1 $53 $54 $27 $-1 $55 forward single #
face $-1 $56 $57 $21 $-1 $58 reversed single #
loop $-1 $-1 $59 $28 #
plane-surface $-1 0 0 19.067938070264709 0 0 1 1 0 0 forward_v I I I I #
face $-1 $60 $61 $22 $-1 $62 reversed single #
loop $-1 $-1 $63 $29 #
plane-surface $-1 -73.299356059450048 0 0 1 0 0 0 0 -1 forward_v I I I I #
face $-1 $64 $65 $23 $-1 $66 reversed single #
loop $-1 $-1 $67 $30 #
plane-surface $-1 73.299356059450048 0 0 -1 0 0 0 0 1 forward_v I I I I #
face $-1 $68 $69 $24 $-1 $70 reversed single #
loop $-1 $-1 $71 $31 #
plane-surface $-1 46.261410410844718 -163.5268524070066 100.10788298975405 -1 0 0 0 -0.77714596973225614 0.62932038083071107 forward_v I I I I #
face $-1 $72 $73 $25 $-1 $74 forward single #
loop $-1 $75 $76 $32 #
cone-surface $-1 33.2437135624983 -44.559644059702038 13.056921483268503 0 0.77714596973225614 -0.62932038083071107 1 0 0 1 I I 0 1 1 forward I I I I #
face $-1 $77 $78 $26 $-1 $79 forward single #
loop $-1 $80 $81 $33 #
cone-surface $-1 38.125349880628207 -44.559644059702038 13.056921483268503 0 0.77714596973225614 -0.62932038083071107 1 0 0 1 I I 0 1 1 forward I I I I #
face $-1 $82 $83 $27 $-1 $84 forward single #
loop $-1 $85 $86 $34 #
cone-surface $-1 43.006986198758113 -44.559644059702038 13.056921483268503 0 0.77714596973225614 -0.62932038083071107 1 0 0 1 I I 0 1 1 forward I I I I #
face $-1 $87 $88 $21 $-1 $89 reversed single #
loop $-1 $-1 $90 $35 #
plane-surface $-1 0 0 -19.067938070264709 0 0 1 1 0 0 forward_v I I I I #
coedge $-1 $91 $92 $93 $94 forward $36 $-1 #
face $-1 $95 $96 $22 $-1 $97 forward single #
loop $-1 $-1 $98 $38 #
plane-surface $-1 0 49.598254115864144 0 0 -1 0 0 0 -1 forward_v I I I I #
coedge $-1 $99 $100 $101 $102 forward $39 $-1 #
face $-1 $103 $104 $23 $-1 $105 forward single #
loop $-1 $-1 $106 $41 #
plane-surface $-1 0 -49.598254115864144 0 0 1 0 0 0 1 forward_v I I I I #
coedge $-1 $107 $108 $109 $110 forward $42 $-1 #
face $-1 $111 $112 $24 $-1 $113 reversed single #
loop $-1 $-1 $114 $44 #
plane-surface $-1 38.125349880628207 -49.598254115864137 7.8503256497960621 0 -0.77714596973225614 0.62932038083071107 1 0 0 forward_v I I I I #
coedge $-1 $115 $116 $117 $118 reversed $45 $-1 #
face $-1 $-1 $119 $25 $-1 $120 forward single #
loop $-1 $121 $122 $47 #
cone-surface $-1 33.2437135624983 -43.674382610889474 12.340050916091261 0 0.77714596973225614 -0.62932038083071107 0.5 0 0 1 I I -0.70710678118654746 0.70710678118654746 0.5 forward I I I I #
loop $-1 $-1 $123 $32 #
coedge $-1 $76 $76 $124 $125 reversed $48 $-1 #
face $-1 $-1 $126 $26 $-1 $127 forward single #
loop $-1 $128 $129 $50 #
cone-surface $-1 38.125349880628207 -43.674382610889474 12.340050916091261 0 0.77714596973225614 -0.62932038083071107 0.5 0 0 1 I I -0.70710678118654746 0.70710678118654746 0.5 forward I I I I #
loop $-1 $-1 $130 $33 #
coedge $-1 $81 $81 $131 $132 reversed $51 $-1 #
face $-1 $-1 $133 $27 $-1 $134 forward single #
loop $-1 $135 $136 $53 #
cone-surface $-1 43.006986198758113 -43.674382610889474 12.340050916091261 0 0.77714596973225614 -0.62932038083071107 0.5 0 0 1 I I -0.70710678118654746 0.70710678118654746 0.5 forward I I I I #
loop $-1 $-1 $137 $34 #
coedge $-1 $86 $86 $138 $139 reversed $54 $-1 #
face $-1 $140 $141 $21 $-1 $142 reversed single #
loop $-1 $-1 $143 $56 #
plane-surface $-1 0 -49.598254115864144 0 0 1 0 0 0 1 forward_v I I I I #
coedge $-1 $144 $145 $146 $147 forward $57 $-1 #
coedge $-1 $148 $59 $149 $150 forward $36 $-1 #
coedge $-1 $59 $148 $151 $152 forward $36 $-1 #
coedge $-1 $153 $154 $59 $94 reversed $155 $-1 #
edge $-1 $156 -49.598254115864144 $157 49.598254115864144 $93 $158 forward 7 unknown #
face $-1 $159 $160 $22 $-1 $161 reversed single #
loop $-1 $-1 $101 $60 #
plane-surface $-1 -83.548854315195115 0 7.730502672315068 0 0 1 1 0 0 forward_v I I I I #
coedge $-1 $162 $163 $100 $164 forward $61 $-1 #
coedge $-1 $165 $63 $166 $167 reversed $39 $-1 #
coedge $-1 $63 $165 $98 $164 reversed $39 $-1 #
coedge $-1 $168 $169 $63 $102 reversed $96 $-1 #
edge $-1 $170 -49.598254115864144 $171 49.598254115864144 $101 $172 forward 7 unknown #
face $-1 $173 $174 $23 $-1 $175 reversed single #
loop $-1 $-1 $176 $64 #
plane-surface $-1 83.548854315195115 0 7.730502672315068 0 0 1 1 0 0 forward_v I I I I #
coedge $-1 $177 $178 $108 $179 forward $65 $-1 #
coedge $-1 $180 $67 $181 $182 reversed $42 $-1 #
coedge $-1 $67 $180 $106 $179 reversed $42 $-1 #
coedge $-1 $183 $184 $67 $110 reversed $104 $-1 #
edge $-1 $185 -49.598254115864144 $186 49.598254115864144 $109 $187 forward 7 unknown #
face $-1 $188 $189 $24 $-1 $190 forward single #
loop $-1 $-1 $191 $68 #
plane-surface $-1 29.989289350411696 -163.5268524070066 100.10788298975405 1 0 0 0 0.77714596973225614 -0.62932038083071107 forward_v I I I I #
coedge $-1 $192 $193 $194 $195 reversed $69 $-1 #
coedge $-1 $116 $71 $196 $197 reversed $45 $-1 #
coedge $-1 $71 $115 $192 $198 reversed $45 $-1 #
coedge $-1 $194 $199 $71 $118 forward $189 $-1 #
edge $-1 $200 32.165172087639156 $201 41.249015272070508 $117 $202 forward 7 unknown #
loop $-1 $-1 $124 $72 #
plane-surface $-1 38.125349880628207 -49.598254115864137 7.8503256497960621 0 -0.77714596973225614 0.62932038083071107 1 0 0 forward_v I I I I #
loop $-1 $-1 $203 $47 #
coedge $-1 $122 $122 $123 $204 reversed $73 $-1 #
coedge $-1 $123 $123 $122 $204 forward $75 $-1 #
coedge $-1 $124 $124 $76 $125 forward $119 $-1 #
edge $-1 $205 -4.8017148256621308e-015 $205 6.283185307179596 $124 $206 forward 7 unknown #
loop $-1 $-1 $131 $77 #
plane-surface $-1 38.125349880628207 -49.598254115864137 7.8503256497960621 0 -0.77714596973225614 0.62932038083071107 1 0 0 forward_v I I I I #
loop $-1 $-1 $207 $50 #
coedge $-1 $129 $129 $130 $208 reversed $78 $-1 #
coedge $-1 $130 $130 $129 $208 forward $80 $-1 #
coedge $-1 $131 $131 $81 $132 forward $126 $-1 #
edge $-1 $209 -4.8017148256621308e-015 $209 6.283185307179596 $131 $210 forward 7 unknown #
loop $-1 $-1 $138 $82 #
plane-surface $-1 38.125349880628207 -49.598254115864137 7.8503256497960621 0 -0.77714596973225614 0.62932038083071107 1 0 0 forward_v I I I I #
loop $-1 $-1 $211 $53 #
coedge $-1 $136 $136 $137 $212 reversed $83 $-1 #
coedge $-1 $137 $137 $136 $212 forward $85 $-1 #
coedge $-1 $138 $138 $86 $139 forward $133 $-1 #
edge $-1 $213 -4.8017148256621308e-015 $213 6.283185307179596 $138 $214 forward 7 unknown #
face $-1 $215 $216 $21 $-1 $217 reversed single #
loop $-1 $-1 $218 $87 #
plane-surface $-1 -73.299356059450048 0 0 1 0 0 0 0 -1 forward_v I I I I #
coedge $-1 $219 $151 $220 $221 forward $88 $-1 #
coedge $-1 $222 $90 $219 $223 forward $57 $-1 #
coedge $-1 $90 $222 $224 $225 forward $57 $-1 #
coedge $-1 $154 $153 $90 $147 reversed $155 $-1 #
edge $-1 $226 -49.598254115864144 $227 49.598254115864144 $146 $228 forward 7 unknown #
coedge $-1 $92 $91 $229 $230 forward $36 $-1 #
coedge $-1 $231 $232 $91 $150 reversed $216 $-1 #
edge $-1 $157 -73.299356059450048 $233 73.299356059450048 $149 $234 forward 7 unknown #
coedge $-1 $143 $235 $92 $152 reversed $88 $-1 #
edge $-1 $236 -73.299356059450048 $156 73.299356059450048 $151 $237 forward 7 unknown #
coedge $-1 $146 $93 $235 $238 forward $155 $-1 #
coedge $-1 $93 $146 $231 $239 reversed $155 $-1 #
loop $-1 $-1 $153 $215 #
vertex $-1 $94 $240 #
vertex $-1 $94 $241 #
straight-curve $-1 73.299356059450048 0 19.067938070264709 0 1 0 I I #
face $-1 $242 $243 $22 $-1 $244 reversed single #
loop $-1 $-1 $245 $95 #
plane-surface $-1 -83.548854315195115 0 -3.6676632562800071 0 0 1 1 0 0 forward_v I I I I #
coedge $-1 $246 $98 $247 $248 reversed $61 $-1 #
coedge $-1 $98 $246 $168 $249 reversed $61 $-1 #
edge $-1 $170 -7.730502672315068 $250 3.6676632562800071 $98 $251 forward 7 unknown #
coedge $-1 $100 $99 $245 $252 forward $39 $-1 #
coedge $-1 $253 $254 $99 $167 forward $255 $-1 #
edge $-1 $256 -3.6676632562800071 $171 7.730502672315068 $166 $257 forward 7 unknown #
coedge $-1 $258 $101 $163 $249 forward $96 $-1 #
coedge $-1 $101 $258 $253 $259 forward $96 $-1 #
vertex $-1 $164 $260 #
vertex $-1 $259 $261 #
straight-curve $-1 -73.299356059450048 0 7.730502672315068 0 -1 0 I I #
face $-1 $262 $263 $23 $-1 $264 reversed single #
loop $-1 $-1 $265 $103 #
plane-surface $-1 83.548854315195115 0 -3.6676632562800071 0 0 1 1 0 0 forward_v I I I I #
coedge $-1 $184 $183 $266 $267 forward $104 $-1 #
coedge $-1 $268 $106 $269 $270 reversed $65 $-1 #
coedge $-1 $106 $268 $183 $271 reversed $65 $-1 #
edge $-1 $185 -7.730502672315068 $272 3.6676632562800071 $106 $273 forward 7 unknown #
coedge $-1 $108 $107 $274 $275 forward $42 $-1 #
coedge $-1 $276 $277 $107 $182 forward $278 $-1 #
edge $-1 $279 -3.6676632562800071 $186 7.730502672315068 $181 $280 forward 7 unknown #
coedge $-1 $176 $109 $178 $271 forward $104 $-1 #
coedge $-1 $109 $176 $276 $281 forward $104 $-1 #
vertex $-1 $179 $282 #
vertex $-1 $281 $283 #
straight-curve $-1 73.299356059450048 0 7.730502672315068 0 1 0 I I #
face $-1 $-1 $284 $24 $-1 $285 reversed single #
loop $-1 $-1 $117 $111 #
plane-surface $-1 0 0 19.067938070264709 0 0 1 1 0 0 forward_v I I I I #
coedge $-1 $286 $287 $288 $289 reversed $112 $-1 #
coedge $-1 $290 $114 $116 $198 forward $69 $-1 #
coedge $-1 $114 $290 $286 $291 forward $69 $-1 #
coedge $-1 $288 $117 $114 $195 forward $189 $-1 #
edge $-1 $201 -27.198735470530615 $292 -10.926614410097592 $194 $293 forward 7 unknown #
coedge $-1 $294 $295 $115 $197 forward $284 $-1 #
edge $-1 $296 -42.203615845080968 $200 -30.986003424612313 $196 $297 forward 7 unknown #
edge $-1 $201 -14.434369934818502 $296 1.1374033043381581e-014 $116 $298 forward 7 unknown #
coedge $-1 $117 $288 $294 $299 forward $189 $-1 #
vertex $-1 $197 $300 #
vertex $-1 $118 $301 #
straight-curve $-1 46.261410410844718 -81.7634262035033 19.067938070264709 0 1 0 I I #
coedge $-1 $203 $203 $-1 $302 reversed $121 $-1 #
edge $-1 $303 0 $303 6.2831853071796004 $122 $304 forward 7 unknown #
vertex $-1 $125 $305 #
ellipse-curve $-1 33.2437135624983 -45.056332523648464 13.459131860030384 0 -0.77714596973225614 0.62932038083071107 1 0 0 1 I I #
coedge $-1 $207 $207 $-1 $306 reversed $128 $-1 #
edge $-1 $307 0 $307 6.2831853071796004 $129 $308 forward 7 unknown #
vertex $-1 $132 $309 #
ellipse-curve $-1 38.125349880628207 -45.056332523648464 13.459131860030384 0 -0.77714596973225614 0.62932038083071107 1 0 0 1 I I #
coedge $-1 $211 $211 $-1 $310 reversed $135 $-1 #
edge $-1 $311 0 $311 6.2831853071796004 $136 $312 forward 7 unknown #
vertex $-1 $139 $313 #
ellipse-curve $-1 43.006986198758113 -45.056332523648464 13.459131860030384 0 -0.77714596973225614 0.62932038083071107 1 0 0 1 I I #
face $-1 $-1 $155 $21 $-1 $314 reversed single #
loop $-1 $-1 $231 $140 #
plane-surface $-1 0 49.598254115864144 0 0 -1 0 0 0 -1 forward_v I I I I #
coedge $-1 $315 $229 $232 $316 forward $141 $-1 #
coedge $-1 $235 $143 $144 $223 reversed $88 $-1 #
coedge $-1 $229 $315 $143 $221 reversed $141 $-1 #
edge $-1 $236 -19.067938070264709 $317 19.067938070264709 $220 $318 forward 7 unknown #
coedge $-1 $145 $144 $315 $319 forward $57 $-1 #
edge $-1 $227 -73.299356059450048 $317 73.299356059450048 $219 $320 forward 7 unknown #
coedge $-1 $232 $231 $145 $225 reversed $216 $-1 #
edge $-1 $321 -73.299356059450048 $226 73.299356059450048 $224 $322 forward 7 unknown #
vertex $-1 $147 $323 #
vertex $-1 $238 $324 #
straight-curve $-1 73.299356059450048 0 -19.067938070264709 0 -1 0 I I #
coedge $-1 $218 $220 $148 $230 reversed $141 $-1 #
edge $-1 $233 -49.598254115864144 $236 49.598254115864144 $229 $325 forward 7 unknown #
coedge $-1 $224 $149 $154 $239 forward $216 $-1 #
coedge $-1 $149 $224 $218 $316 reversed $216 $-1 #
vertex $-1 $150 $326 #
straight-curve $-1 0 49.598254115864144 19.067938070264709 -1 0 0 I I #
coedge $-1 $151 $219 $153 $238 reversed $88 $-1 #
vertex $-1 $230 $327 #
straight-curve $-1 0 -49.598254115864144 19.067938070264709 1 0 0 I I #
edge $-1 $156 -19.067938070264709 $227 19.067938070264709 $153 $328 forward 7 unknown #
edge $-1 $157 -19.067938070264709 $226 19.067938070264709 $154 $329 forward 7 unknown #
point $-1 73.299356059450048 -49.598254115864144 19.067938070264709 #
point $-1 73.299356059450048 49.598254115864144 19.067938070264709 #
face $-1 $-1 $255 $22 $-1 $330 reversed single #
loop $-1 $-1 $331 $159 #
plane-surface $-1 -93.798352570940182 0 2.0314197080175305 1 0 0 0 0 -1 forward_v I I I I #
coedge $-1 $332 $247 $165 $252 reversed $160 $-1 #
coedge $-1 $163 $162 $331 $333 reversed $61 $-1 #
coedge $-1 $245 $334 $162 $248 forward $160 $-1 #
edge $-1 $335 -10.249498255745067 $250 10.249498255745067 $162 $336 forward 7 unknown #
edge $-1 $170 -10.249498255745067 $337 10.249498255745067 $163 $338 forward 7 unknown #
vertex $-1 $164 $339 #
straight-curve $-1 -73.299356059450048 49.598254115864144 0 0 0 -1 I I #
edge $-1 $256 -49.598254115864144 $250 49.598254115864144 $245 $340 forward 7 unknown #
coedge $-1 $341 $166 $169 $259 reversed $255 $-1 #
coedge $-1 $166 $341 $332 $342 reversed $255 $-1 #
loop $-1 $-1 $166 $242 #
vertex $-1 $167 $343 #
straight-curve $-1 -73.299356059450048 -49.598254115864144 0 0 0 1 I I #
coedge $-1 $169 $168 $344 $345 forward $96 $-1 #
edge $-1 $346 -10.249498255745067 $171 10.249498255745067 $253 $347 forward 7 unknown #
point $-1 -73.299356059450048 49.598254115864144 7.730502672315068 #
point $-1 -73.299356059450048 -49.598254115864144 7.730502672315068 #
face $-1 $-1 $278 $23 $-1 $348 reversed single #
loop $-1 $-1 $349 $173 #
plane-surface $-1 93.798352570940182 0 2.0314197080175305 -1 0 0 0 0 1 forward_v I I I I #
coedge $-1 $269 $350 $351 $352 forward $174 $-1 #
coedge $-1 $349 $353 $176 $267 reversed $263 $-1 #
edge $-1 $354 -49.598254115864144 $355 49.598254115864144 $266 $356 forward 7 unknown #
coedge $-1 $178 $177 $349 $357 reversed $65 $-1 #
coedge $-1 $274 $265 $177 $270 forward $174 $-1 #
edge $-1 $358 -10.249498255745067 $272 10.249498255745067 $177 $359 forward 7 unknown #
edge $-1 $185 -10.249498255745067 $354 10.249498255745067 $178 $360 forward 7 unknown #
vertex $-1 $179 $361 #
straight-curve $-1 73.299356059450048 -49.598254115864144 0 0 0 -1 I I #
coedge $-1 $350 $269 $180 $275 reversed $174 $-1 #
edge $-1 $279 -49.598254115864144 $272 49.598254115864144 $274 $362 forward 7 unknown #
coedge $-1 $363 $181 $184 $281 reversed $278 $-1 #
coedge $-1 $181 $363 $350 $364 reversed $278 $-1 #
loop $-1 $-1 $181 $262 #
vertex $-1 $182 $365 #
straight-curve $-1 73.299356059450048 49.598254115864144 0 0 0 1 I I #
edge $-1 $355 -10.249498255745067 $186 10.249498255745067 $276 $366 forward 7 unknown #
point $-1 73.299356059450048 -49.598254115864144 7.730502672315068 #
point $-1 73.299356059450048 49.598254115864144 7.730502672315068 #
loop $-1 $-1 $196 $188 #
plane-surface $-1 0 -49.598254115864144 0 0 1 0 0 0 1 forward_v I I I I #
coedge $-1 $287 $191 $193 $291 reversed $112 $-1 #
coedge $-1 $191 $286 $367 $368 reversed $112 $-1 #
coedge $-1 $199 $194 $191 $289 forward $189 $-1 #
edge $-1 $292 -41.249015272070508 $369 -32.165172087639156 $288 $370 forward 7 unknown #
coedge $-1 $193 $192 $295 $371 reversed $69 $-1 #
edge $-1 $372 -1.1374033043381581e-014 $292 14.434369934818502 $286 $373 forward 7 unknown #
vertex $-1 $195 $374 #
straight-curve $-1 19.062674940314103 -40.514410931432792 19.067938070264709 -1 0 0 I I #
coedge $-1 $367 $196 $199 $299 reversed $284 $-1 #
coedge $-1 $196 $367 $290 $371 forward $284 $-1 #
vertex $-1 $197 $375 #
straight-curve $-1 46.261410410844718 -49.598254115864144 50.053941494877023 0 0 1 I I #
straight-curve $-1 46.261410410844718 -49.598254115864137 7.8503256497960621 0 -0.62932038083071107 -0.77714596973225614 I I #
edge $-1 $369 29.989289350411696 $200 46.261410410844718 $294 $376 forward 7 unknown #
point $-1 46.261410410844718 -49.598254115864144 19.067938070264709 #
point $-1 46.261410410844718 -40.514410931432792 19.067938070264709 #
edge $-1 $377 1 $377 0 $203 $-1 forward 7 unknown #
vertex $-1 $204 $378 #
ellipse-curve $-1 33.2437135624983 -44.062955595755604 12.654711106506618 0 -0.77714596973225614 0.62932038083071107 1 0 0 1 I I #
point $-1 34.2437135624983 -45.056332523648479 13.459131860030389 #
edge $-1 $379 1 $379 0 $207 $-1 forward 7 unknown #
vertex $-1 $208 $380 #
ellipse-curve $-1 38.125349880628207 -44.062955595755604 12.654711106506618 0 -0.77714596973225614 0.62932038083071107 1 0 0 1 I I #
point $-1 39.125349880628207 -45.056332523648479 13.459131860030389 #
edge $-1 $381 1 $381 0 $211 $-1 forward 7 unknown #
vertex $-1 $212 $382 #
ellipse-curve $-1 43.006986198758113 -44.062955595755604 12.654711106506618 0 -0.77714596973225614 0.62932038083071107 1 0 0 1 I I #
point $-1 44.006986198758113 -45.056332523648479 13.459131860030389 #
plane-surface $-1 73.299356059450048 0 0 -1 0 0 0 0 1 forward_v I I I I #
coedge $-1 $220 $218 $222 $319 reversed $141 $-1 #
edge $-1 $233 -19.067938070264709 $321 19.067938070264709 $232 $383 forward 7 unknown #
vertex $-1 $319 $384 #
straight-curve $-1 -73.299356059450048 -49.598254115864144 0 0 0 -1 I I #
edge $-1 $317 -49.598254115864144 $321 49.598254115864144 $315 $385 forward 7 unknown #
straight-curve $-1 0 -49.598254115864144 -19.067938070264709 -1 0 0 I I #
vertex $-1 $225 $386 #
straight-curve $-1 0 49.598254115864144 -19.067938070264709 1 0 0 I I #
point $-1 73.299356059450048 49.598254115864144 -19.067938070264709 #
point $-1 73.299356059450048 -49.598254115864144 -19.067938070264709 #
straight-curve $-1 -73.299356059450048 0 19.067938070264709 0 -1 0 I I #
point $-1 -73.299356059450048 49.598254115864144 19.067938070264709 #
point $-1 -73.299356059450048 -49.598254115864144 19.067938070264709 #
straight-curve $-1 73.299356059450048 -49.598254115864144 0 0 0 -1 I I #
straight-curve $-1 73.299356059450048 49.598254115864144 0 0 0 -1 I I #
plane-surface $-1 0 -49.598254115864144 0 0 1 0 0 0 1 forward_v I I I I #
coedge $-1 $387 $344 $246 $333 forward $243 $-1 #
coedge $-1 $334 $245 $254 $342 forward $160 $-1 #
edge $-1 $337 -5.6990829642975376 $335 5.6990829642975376 $246 $388 forward 7 unknown #
coedge $-1 $247 $332 $387 $389 forward $160 $-1 #
vertex $-1 $248 $390 #
straight-curve $-1 -83.548854315195115 49.598254115864144 -3.6676632562800071 1 0 0 I I #
vertex $-1 $249 $391 #
straight-curve $-1 -83.548854315195115 49.598254115864144 7.730502672315068 -1 0 0 I I #
point $-1 -73.299356059450048 49.598254115864144 -3.6676632562800071 #
straight-curve $-1 -73.299356059450048 0 -3.6676632562800071 0 1 0 I I #
coedge $-1 $254 $253 $392 $393 forward $255 $-1 #
edge $-1 $256 -10.249498255745067 $394 10.249498255745067 $254 $395 forward 7 unknown #
point $-1 -73.299356059450048 -49.598254115864144 -3.6676632562800071 #
coedge $-1 $331 $392 $258 $345 reversed $243 $-1 #
edge $-1 $337 -49.598254115864144 $346 49.598254115864144 $344 $396 forward 7 unknown #
vertex $-1 $345 $397 #
straight-curve $-1 -83.548854315195115 -49.598254115864144 7.730502672315068 1 0 0 I I #
plane-surface $-1 0 49.598254115864144 0 0 -1 0 0 0 -1 forward_v I I I I #
coedge $-1 $351 $266 $268 $357 forward $263 $-1 #
coedge $-1 $265 $274 $277 $364 forward $174 $-1 #
coedge $-1 $353 $349 $265 $352 reversed $263 $-1 #
edge $-1 $398 -49.598254115864144 $358 49.598254115864144 $351 $399 forward 7 unknown #
coedge $-1 $266 $351 $363 $400 reversed $263 $-1 #
vertex $-1 $267 $401 #
vertex $-1 $267 $402 #
straight-curve $-1 93.798352570940182 0 7.730502672315068 0 1 0 I I #
edge $-1 $354 -5.6990829642975376 $358 5.6990829642975376 $349 $403 forward 7 unknown #
vertex $-1 $357 $404 #
straight-curve $-1 83.548854315195115 -49.598254115864144 -3.6676632562800071 -1 0 0 I I #
straight-curve $-1 83.548854315195115 -49.598254115864144 7.730502672315068 1 0 0 I I #
point $-1 73.299356059450048 -49.598254115864144 -3.6676632562800071 #
straight-curve $-1 73.299356059450048 0 -3.6676632562800071 0 -1 0 I I #
coedge $-1 $277 $276 $353 $400 forward $278 $-1 #
edge $-1 $279 -10.249498255745067 $398 10.249498255745067 $277 $405 forward 7 unknown #
point $-1 73.299356059450048 49.598254115864144 -3.6676632562800071 #
straight-curve $-1 83.548854315195115 49.598254115864144 7.730502672315068 -1 0 0 I I #
coedge $-1 $295 $294 $287 $368 forward $284 $-1 #
edge $-1 $369 30.986003424612313 $372 42.203615845080968 $367 $406 forward 7 unknown #
vertex $-1 $299 $407 #
straight-curve $-1 29.989289350411696 -81.7634262035033 19.067938070264709 0 -1 0 I I #
edge $-1 $372 10.926614410097592 $296 27.198735470530615 $295 $408 forward 7 unknown #
vertex $-1 $371 $409 #
straight-curve $-1 29.989289350411696 -49.598254115864137 7.8503256497960621 0 0.62932038083071107 0.77714596973225614 I I #
point $-1 29.989289350411696 -40.514410931432792 19.067938070264709 #
point $-1 46.261410410844718 -49.598254115864144 7.8503256497960532 #
straight-curve $-1 0 -49.598254115864144 19.067938070264709 1 0 0 I I #
vertex $-1 $302 $410 #
point $-1 34.2437135624983 -44.062955595755604 12.654711106506618 #
vertex $-1 $306 $411 #
point $-1 39.125349880628207 -44.062955595755604 12.654711106506618 #
vertex $-1 $310 $412 #
point $-1 44.006986198758113 -44.062955595755604 12.654711106506618 #
straight-curve $-1 -73.299356059450048 49.598254115864144 0 0 0 -1 I I #
point $-1 -73.299356059450048 -49.598254115864144 -19.067938070264709 #
straight-curve $-1 -73.299356059450048 0 -19.067938070264709 0 1 0 I I #
point $-1 -73.299356059450048 49.598254115864144 -19.067938070264709 #
coedge $-1 $392 $331 $334 $389 reversed $243 $-1 #
straight-curve $-1 -93.798352570940182 49.598254115864144 2.0314197080175305 0 0 -1 I I #
edge $-1 $394 -49.598254115864144 $335 49.598254115864144 $387 $413 forward 7 unknown #
point $-1 -93.798352570940182 49.598254115864144 -3.6676632562800071 #
point $-1 -93.798352570940182 49.598254115864144 7.730502672315068 #
coedge $-1 $344 $387 $341 $393 reversed $243 $-1 #
edge $-1 $346 -5.6990829642975376 $394 5.6990829642975376 $392 $414 forward 7 unknown #
vertex $-1 $389 $415 #
straight-curve $-1 -83.548854315195115 -49.598254115864144 -3.6676632562800071 -1 0 0 I I #
straight-curve $-1 -93.798352570940182 0 7.730502672315068 0 -1 0 I I #
point $-1 -93.798352570940182 -49.598254115864144 7.730502672315068 #
vertex $-1 $352 $416 #
straight-curve $-1 93.798352570940182 0 -3.6676632562800071 0 -1 0 I I #
edge $-1 $355 -5.6990829642975376 $398 5.6990829642975376 $353 $417 forward 7 unknown #
point $-1 93.798352570940182 -49.598254115864144 7.730502672315068 #
point $-1 93.798352570940182 49.598254115864144 7.730502672315068 #
straight-curve $-1 93.798352570940182 -49.598254115864144 2.0314197080175305 0 0 -1 I I #
point $-1 93.798352570940182 -49.598254115864144 -3.6676632562800071 #
straight-curve $-1 83.548854315195115 49.598254115864144 -3.6676632562800071 1 0 0 I I #
straight-curve $-1 29.989289350411696 -49.598254115864144 50.053941494877023 0 0 -1 I I #
point $-1 29.989289350411696 -49.598254115864144 19.067938070264709 #
straight-curve $-1 19.062674940314103 -49.598254115864144 7.8503256497960461 1 0 0 I I #
point $-1 29.989289350411696 -49.598254115864144 7.8503256497960532 #
point $-1 33.2437135624983 -43.285809626023344 12.025390725675905 #
point $-1 38.125349880628207 -43.285809626023344 12.025390725675905 #
point $-1 43.006986198758113 -43.285809626023344 12.025390725675905 #
straight-curve $-1 -93.798352570940182 0 -3.6676632562800071 0 1 0 I I #
straight-curve $-1 -93.798352570940182 -49.598254115864144 2.0314197080175305 0 0 -1 I I #
point $-1 -93.798352570940182 -49.598254115864144 -3.6676632562800071 #
point $-1 93.798352570940182 49.598254115864144 -3.6676632562800071 #
straight-curve $-1 93.798352570940182 49.598254115864144 2.0314197080175305 0 0 -1 I I #
End-of-ACIS-data 