500 0 6 0           
7 Unknown 11 ACIS 5.0 NT 24 Thu Mar 25 20:14:35 1999 
-1 9.9999999999999995e-007 1e-010 
body $-1 $6 $-1 $7 #
body $-1 $8 $-1 $9 #
body $-1 $10 $-1 $11 #
body $-1 $12 $-1 $13 #
body $-1 $14 $-1 $15 #
body $-1 $16 $-1 $17 #
lump $-1 $-1 $18 $0 #
transform $-1 1 0 0 0 1 0 0 0 1 43.016449476607562 29.331712668565785 9.2795881895632899 1 rotate no_reflect no_shear #
lump $-1 $-1 $19 $1 #
transform $-1 1 0 0 0 1 0 0 0 1 43.016449476607562 29.331712668565785 9.2795881895632899 1 rotate no_reflect no_shear #
lump $-1 $-1 $20 $2 #
transform $-1 1 0 0 0 1 0 0 0 1 43.016449476607562 29.331712668565785 9.2795881895632899 1 rotate no_reflect no_shear #
lump $-1 $-1 $21 $3 #
transform $-1 1 0 0 0 1 0 0 0 1 43.016449476607562 29.331712668565785 9.2795881895632899 1 rotate no_reflect no_shear #
lump $-1 $-1 $22 $4 #
transform $-1 1 0 0 0 1 0 0 0 1 43.016449476607562 29.331712668565785 9.2795881895632899 1 rotate no_reflect no_shear #
lump $-1 $-1 $23 $5 #
transform $-1 1 0 0 0 1 0 0 0 1 43.016449476607562 29.331712668565785 9.2795881895632899 1 rotate no_reflect no_shear #
shell $-1 $-1 $-1 $24 $-1 $6 #
shell $-1 $-1 $-1 $25 $-1 $8 #
shell $-1 $-1 $-1 $26 $-1 $10 #
shell $-1 $-1 $-1 $27 $-1 $12 #
shell $-1 $-1 $-1 $28 $-1 $14 #
shell $-1 $-1 $-1 $29 $-1 $16 #
face $-1 $30 $31 $18 $-1 $32 reversed single #
face $-1 $33 $34 $19 $-1 $35 forward single #
face $-1 $36 $37 $20 $-1 $38 reversed single #
face $-1 $39 $40 $21 $-1 $41 forward single #
face $-1 $42 $43 $22 $-1 $44 forward single #
face $-1 $45 $46 $23 $-1 $47 forward single #
face $-1 $48 $49 $18 $-1 $50 forward single #
loop $-1 $-1 $51 $24 #
plane-surface $-1 0 -29.331712668565785 0 0 1 0 0 0 1 forward_v I I I I #
face $-1 $52 $53 $19 $-1 $54 reversed single #
loop $-1 $-1 $55 $25 #
plane-surface $-1 0 -29.331712668565785 0 0 1 0 0 0 1 forward_v I I I I #
face $-1 $56 $57 $20 $-1 $58 reversed single #
loop $-1 $-1 $59 $26 #
plane-surface $-1 -109.87657016248113 9.9551771600221564 56.290199005268498 0 1 0 -0.77714596973225614 0 0.62932038083071107 forward_v I I I I #
face $-1 $60 $61 $21 $-1 $62 forward single #
loop $-1 $63 $64 $27 #
cone-surface $-1 -39.604346722546993 11.311255842179612 5.288987898043457 0.77714596973225614 0 -0.62932038083071107 0.31466019041535553 0 0.38857298486612807 1 I I 0 1 0.5 forward I I I I #
face $-1 $65 $66 $22 $-1 $67 forward single #
loop $-1 $68 $69 $28 #
cone-surface $-1 -39.604346722546993 13.345373865415787 5.288987898043457 0.77714596973225614 0 -0.62932038083071107 0.31466019041535553 0 0.38857298486612807 1 I I 0 1 0.5 forward I I I I #
face $-1 $70 $71 $23 $-1 $72 forward single #
loop $-1 $73 $74 $29 #
cone-surface $-1 -39.604346722546993 15.379491888651962 5.288987898043457 0.77714596973225614 0 -0.62932038083071107 0.31466019041535553 0 0.38857298486612807 1 I I 0 1 0.5 forward I I I I #
face $-1 $75 $76 $18 $-1 $77 reversed single #
loop $-1 $-1 $78 $30 #
plane-surface $-1 0 0 9.2795881895632899 0 0 1 1 0 0 forward_v I I I I #
coedge $-1 $79 $80 $81 $82 reversed $31 $-1 #
face $-1 $83 $84 $19 $-1 $85 reversed single #
loop $-1 $-1 $86 $33 #
plane-surface $-1 0 0 -9.2795881895632899 0 0 1 1 0 0 forward_v I I I I #
coedge $-1 $87 $88 $89 $90 forward $34 $-1 #
face $-1 $91 $92 $20 $-1 $93 reversed single #
loop $-1 $-1 $94 $36 #
plane-surface $-1 -43.016449476607562 13.34537386541578 2.1479422720610728 -0.77714596973225614 0 0.62932038083071107 0.62932038083071107 0 0.77714596973225614 forward_v I I I I #
coedge $-1 $95 $96 $97 $98 reversed $37 $-1 #
face $-1 $-1 $99 $21 $-1 $100 forward single #
loop $-1 $101 $102 $39 #
cone-surface $-1 -38.885503895613724 11.311255842179612 4.7068804700670537 0.77714596973225614 0 -0.62932038083071107 0.15733009520767777 0 0.19428649243306403 1 I I -0.70710678118654746 0.70710678118654746 0.25 forward I I I I #
loop $-1 $-1 $103 $27 #
coedge $-1 $64 $64 $104 $105 reversed $40 $-1 #
face $-1 $-1 $106 $22 $-1 $107 forward single #
loop $-1 $108 $109 $42 #
cone-surface $-1 -38.885503895613724 13.345373865415787 4.7068804700670537 0.77714596973225614 0 -0.62932038083071107 0.15733009520767777 0 0.19428649243306403 1 I I -0.70710678118654746 0.70710678118654746 0.25 forward I I I I #
loop $-1 $-1 $110 $28 #
coedge $-1 $69 $69 $111 $112 reversed $43 $-1 #
face $-1 $-1 $113 $23 $-1 $114 forward single #
loop $-1 $115 $116 $45 #
cone-surface $-1 -38.885503895613724 15.379491888651962 4.7068804700670537 0.77714596973225614 0 -0.62932038083071107 0.15733009520767777 0 0.19428649243306403 1 I I -0.70710678118654746 0.70710678118654746 0.25 forward I I I I #
loop $-1 $-1 $117 $29 #
coedge $-1 $74 $74 $118 $119 reversed $46 $-1 #
face $-1 $120 $121 $18 $-1 $122 reversed single #
loop $-1 $-1 $123 $48 #
plane-surface $-1 0 0 -9.2795881895632899 0 0 1 1 0 0 forward_v I I I I #
coedge $-1 $124 $125 $126 $127 forward $49 $-1 #
coedge $-1 $128 $51 $129 $130 reversed $31 $-1 #
coedge $-1 $51 $128 $131 $132 forward $31 $-1 #
coedge $-1 $133 $123 $51 $82 forward $76 $-1 #
edge $-1 $134 -43.016449476607562 $135 43.016449476607562 $51 $136 forward 7 unknown #
face $-1 $137 $138 $19 $-1 $139 reversed single #
loop $-1 $-1 $140 $52 #
plane-surface $-1 -30.648040735189284 -37.875996791014416 0 0 1 0 0 0 1 forward_v I I I I #
coedge $-1 $141 $142 $88 $143 forward $53 $-1 #
coedge $-1 $144 $55 $145 $146 reversed $34 $-1 #
coedge $-1 $55 $144 $86 $143 reversed $34 $-1 #
coedge $-1 $147 $148 $55 $90 reversed $138 $-1 #
edge $-1 $149 -9.2795881895632899 $150 9.2795881895632899 $89 $151 forward 7 unknown #
face $-1 $152 $153 $20 $-1 $154 reversed single #
loop $-1 $-1 $155 $56 #
plane-surface $-1 -109.87657016248113 16.735570570809404 56.290199005268498 0 -1 0 0.77714596973225614 0 -0.62932038083071107 forward_v I I I I #
coedge $-1 $156 $157 $158 $159 reversed $57 $-1 #
coedge $-1 $96 $59 $160 $161 reversed $37 $-1 #
coedge $-1 $59 $95 $156 $162 reversed $37 $-1 #
coedge $-1 $158 $163 $59 $98 forward $164 $-1 #
edge $-1 $165 11.921835604633003 $166 17.696928443753727 $97 $167 forward 7 unknown #
loop $-1 $-1 $104 $60 #
plane-surface $-1 -43.016449476607562 13.34537386541578 2.1479422720610728 -0.77714596973225614 0 0.62932038083071107 0.62932038083071107 0 0.77714596973225614 forward_v I I I I #
loop $-1 $-1 $168 $39 #
coedge $-1 $102 $102 $103 $169 reversed $61 $-1 #
coedge $-1 $103 $103 $102 $169 forward $63 $-1 #
coedge $-1 $104 $104 $64 $105 forward $99 $-1 #
edge $-1 $170 0 $170 6.2831853071796004 $104 $171 forward 7 unknown #
loop $-1 $-1 $111 $65 #
plane-surface $-1 -43.016449476607562 13.34537386541578 2.1479422720610728 -0.77714596973225614 0 0.62932038083071107 0.62932038083071107 0 0.77714596973225614 forward_v I I I I #
loop $-1 $-1 $172 $42 #
coedge $-1 $109 $109 $110 $173 reversed $66 $-1 #
coedge $-1 $110 $110 $109 $173 forward $68 $-1 #
coedge $-1 $111 $111 $69 $112 forward $106 $-1 #
edge $-1 $174 0 $174 6.2831853071796004 $111 $175 forward 7 unknown #
loop $-1 $-1 $118 $70 #
plane-surface $-1 -43.016449476607562 13.34537386541578 2.1479422720610728 -0.77714596973225614 0 0.62932038083071107 0.62932038083071107 0 0.77714596973225614 forward_v I I I I #
loop $-1 $-1 $176 $45 #
coedge $-1 $116 $116 $117 $177 reversed $71 $-1 #
coedge $-1 $117 $117 $116 $177 forward $73 $-1 #
coedge $-1 $118 $118 $74 $119 forward $113 $-1 #
edge $-1 $178 0 $178 6.2831853071796004 $118 $179 forward 7 unknown #
face $-1 $180 $181 $18 $-1 $182 reversed single #
loop $-1 $-1 $183 $75 #
plane-surface $-1 -43.016449476607562 0 0 1 0 0 0 0 -1 forward_v I I I I #
coedge $-1 $81 $184 $185 $186 forward $76 $-1 #
coedge $-1 $187 $78 $188 $189 forward $49 $-1 #
coedge $-1 $78 $187 $128 $190 forward $49 $-1 #
coedge $-1 $129 $191 $78 $127 reversed $192 $-1 #
edge $-1 $193 -29.331712668565785 $194 29.331712668565785 $126 $195 forward 7 unknown #
coedge $-1 $80 $79 $125 $190 reversed $31 $-1 #
coedge $-1 $185 $126 $79 $130 forward $192 $-1 #
edge $-1 $193 -9.2795881895632899 $134 9.2795881895632899 $129 $196 forward 7 unknown #
coedge $-1 $197 $198 $80 $132 reversed $121 $-1 #
edge $-1 $199 -9.2795881895632899 $135 9.2795881895632899 $131 $200 forward 7 unknown #
coedge $-1 $184 $81 $198 $201 forward $76 $-1 #
vertex $-1 $130 $202 #
vertex $-1 $201 $203 #
straight-curve $-1 0 -29.331712668565785 -9.2795881895632899 -1 0 0 I I #
face $-1 $204 $205 $19 $-1 $206 reversed single #
loop $-1 $-1 $89 $83 #
plane-surface $-1 -32.716272813414321 -33.6038547297901 0 1 0 0 0 0 -1 forward_v I I I I #
coedge $-1 $207 $208 $209 $210 forward $84 $-1 #
coedge $-1 $211 $86 $212 $213 forward $53 $-1 #
coedge $-1 $86 $211 $147 $214 forward $53 $-1 #
edge $-1 $149 -32.716272813414321 $215 -28.57980865696425 $86 $216 forward 7 unknown #
coedge $-1 $88 $87 $217 $218 forward $34 $-1 #
coedge $-1 $219 $220 $87 $146 forward $221 $-1 #
edge $-1 $222 28.57980865696425 $150 32.716272813414321 $145 $223 forward 7 unknown #
coedge $-1 $209 $89 $142 $214 reversed $138 $-1 #
coedge $-1 $89 $209 $219 $224 reversed $138 $-1 #
vertex $-1 $143 $225 #
vertex $-1 $224 $226 #
straight-curve $-1 -32.716272813414321 -29.331712668565785 0 0 0 1 I I #
face $-1 $-1 $164 $20 $-1 $227 forward single #
loop $-1 $-1 $228 $91 #
plane-surface $-1 -43.016449476607562 0 0 1 0 0 0 0 -1 forward_v I I I I #
coedge $-1 $229 $230 $231 $232 reversed $92 $-1 #
coedge $-1 $233 $94 $96 $162 forward $57 $-1 #
coedge $-1 $94 $233 $229 $234 forward $57 $-1 #
coedge $-1 $231 $97 $94 $159 forward $164 $-1 #
edge $-1 $166 3.2824902273142662 $235 10.062883638101514 $158 $236 forward 7 unknown #
coedge $-1 $237 $238 $95 $161 forward $153 $-1 #
edge $-1 $239 -25.997157230573176 $165 -18.865511313070961 $160 $240 forward 7 unknown #
edge $-1 $166 -9.1767135071925132 $239 0 $96 $241 forward 7 unknown #
coedge $-1 $97 $231 $237 $242 forward $164 $-1 #
loop $-1 $-1 $231 $152 #
vertex $-1 $161 $243 #
vertex $-1 $98 $244 #
straight-curve $-1 -54.938285081240565 9.9551771600221564 9.2795881895632917 1 0 0 I I #
coedge $-1 $168 $168 $-1 $245 reversed $101 $-1 #
edge $-1 $246 0 $246 6.2831853071796004 $102 $247 forward 7 unknown #
vertex $-1 $105 $248 #
ellipse-curve $-1 -40.128903057047197 11.311255842179612 5.7137652308121822 -0.77714596973225614 0 0.62932038083071107 0.31466019041535553 0 0.38857298486612807 1 I I #
coedge $-1 $172 $172 $-1 $249 reversed $108 $-1 #
edge $-1 $250 0 $250 6.2831853071796004 $109 $251 forward 7 unknown #
vertex $-1 $112 $252 #
ellipse-curve $-1 -40.128903057047197 13.345373865415787 5.7137652308121822 -0.77714596973225614 0 0.62932038083071107 0.31466019041535553 0 0.38857298486612807 1 I I #
coedge $-1 $176 $176 $-1 $253 reversed $115 $-1 #
edge $-1 $254 0 $254 6.2831853071796004 $116 $255 forward 7 unknown #
vertex $-1 $119 $256 #
ellipse-curve $-1 -40.128903057047197 15.379491888651962 5.7137652308121822 -0.77714596973225614 0 0.62932038083071107 0.31466019041535553 0 0.38857298486612807 1 I I #
face $-1 $-1 $192 $18 $-1 $257 reversed single #
loop $-1 $-1 $258 $120 #
plane-surface $-1 0 29.331712668565785 0 0 -1 0 0 0 -1 forward_v I I I I #
coedge $-1 $198 $197 $259 $260 forward $121 $-1 #
coedge $-1 $123 $133 $261 $262 forward $76 $-1 #
coedge $-1 $191 $129 $123 $186 reversed $192 $-1 #
edge $-1 $263 -29.331712668565785 $134 29.331712668565785 $185 $264 forward 7 unknown #
coedge $-1 $125 $124 $197 $265 forward $49 $-1 #
coedge $-1 $258 $259 $124 $189 reversed $181 $-1 #
edge $-1 $194 -43.016449476607562 $266 43.016449476607562 $188 $267 forward 7 unknown #
edge $-1 $199 -43.016449476607562 $193 43.016449476607562 $128 $268 forward 7 unknown #
coedge $-1 $126 $185 $258 $269 reversed $192 $-1 #
loop $-1 $-1 $129 $180 #
vertex $-1 $127 $270 #
vertex $-1 $127 $271 #
straight-curve $-1 43.016449476607562 0 9.2795881895632899 0 1 0 I I #
straight-curve $-1 43.016449476607562 -29.331712668565785 0 0 0 -1 I I #
coedge $-1 $183 $131 $187 $265 reversed $121 $-1 #
coedge $-1 $131 $183 $133 $201 reversed $121 $-1 #
vertex $-1 $265 $272 #
straight-curve $-1 -43.016449476607562 -29.331712668565785 0 0 0 -1 I I #
edge $-1 $135 -29.331712668565785 $273 29.331712668565785 $198 $274 forward 7 unknown #
point $-1 43.016449476607562 -29.331712668565785 -9.2795881895632899 #
point $-1 -43.016449476607562 -29.331712668565785 -9.2795881895632899 #
face $-1 $-1 $221 $19 $-1 $275 forward single #
loop $-1 $-1 $276 $137 #
plane-surface $-1 -28.57980865696425 -33.6038547297901 0 -1 0 0 0 0 1 forward_v I I I I #
coedge $-1 $277 $140 $211 $278 reversed $84 $-1 #
coedge $-1 $140 $277 $279 $280 reversed $84 $-1 #
coedge $-1 $148 $147 $140 $210 reversed $138 $-1 #
edge $-1 $281 -9.2795881895632899 $282 9.2795881895632899 $209 $283 forward 7 unknown #
coedge $-1 $142 $141 $207 $278 forward $53 $-1 #
coedge $-1 $217 $276 $141 $213 reversed $205 $-1 #
edge $-1 $215 -4.2721420612243151 $284 4.2721420612243151 $212 $285 forward 7 unknown #
edge $-1 $282 -4.2721420612243151 $149 4.2721420612243151 $147 $286 forward 7 unknown #
vertex $-1 $213 $287 #
straight-curve $-1 0 -29.331712668565785 -9.2795881895632899 1 0 0 I I #
coedge $-1 $288 $212 $144 $218 reversed $205 $-1 #
edge $-1 $222 -9.2795881895632899 $215 9.2795881895632899 $217 $289 forward 7 unknown #
coedge $-1 $279 $145 $148 $224 forward $221 $-1 #
coedge $-1 $145 $279 $288 $290 forward $221 $-1 #
loop $-1 $-1 $145 $204 #
vertex $-1 $146 $291 #
straight-curve $-1 0 -29.331712668565785 9.2795881895632899 -1 0 0 I I #
edge $-1 $150 -4.2721420612243151 $281 4.2721420612243151 $148 $292 forward 7 unknown #
point $-1 -32.716272813414321 -29.331712668565785 -9.2795881895632899 #
point $-1 -32.716272813414321 -29.331712668565785 9.2795881895632899 #
plane-surface $-1 0 0 9.2795881895632899 0 0 1 1 0 0 forward_v I I I I #
coedge $-1 $238 $237 $230 $293 forward $153 $-1 #
coedge $-1 $230 $155 $157 $234 reversed $92 $-1 #
coedge $-1 $155 $229 $228 $293 reversed $92 $-1 #
coedge $-1 $163 $158 $155 $232 forward $164 $-1 #
edge $-1 $235 -17.696928443753727 $294 -11.921835604633003 $231 $295 forward 7 unknown #
coedge $-1 $157 $156 $238 $296 reversed $57 $-1 #
edge $-1 $297 0 $235 9.1767135071925132 $229 $298 forward 7 unknown #
vertex $-1 $159 $299 #
straight-curve $-1 -37.241356637486838 6.6726869327078902 9.2795881895632899 0 1 0 I I #
coedge $-1 $228 $160 $163 $242 reversed $153 $-1 #
coedge $-1 $160 $228 $233 $296 forward $153 $-1 #
vertex $-1 $161 $300 #
straight-curve $-1 -43.016449476607562 9.9551771600221564 28.145099502634249 0 0 1 I I #
straight-curve $-1 -43.016449476607562 9.9551771600221564 2.1479422720610728 -0.62932038083071107 0 -0.77714596973225614 I I #
edge $-1 $294 -16.735570570809404 $165 -9.9551771600221564 $237 $301 forward 7 unknown #
point $-1 -43.016449476607562 9.9551771600221564 9.2795881895632899 #
point $-1 -37.241356637486838 9.9551771600221564 9.2795881895632917 #
edge $-1 $302 1 $302 0 $168 $-1 forward 7 unknown #
vertex $-1 $169 $303 #
ellipse-curve $-1 -39.079790388046789 11.311255842179612 4.8642105652747318 -0.77714596973225614 0 0.62932038083071107 0.31466019041535553 0 0.38857298486612807 1 I I #
point $-1 -39.814242866631851 11.311255842179612 6.1023382156783113 #
edge $-1 $304 1 $304 0 $172 $-1 forward 7 unknown #
vertex $-1 $173 $305 #
ellipse-curve $-1 -39.079790388046789 13.345373865415787 4.8642105652747318 -0.77714596973225614 0 0.62932038083071107 0.31466019041535553 0 0.38857298486612807 1 I I #
point $-1 -39.814242866631851 13.345373865415787 6.1023382156783113 #
edge $-1 $306 1 $306 0 $176 $-1 forward 7 unknown #
vertex $-1 $177 $307 #
ellipse-curve $-1 -39.079790388046789 15.379491888651962 4.8642105652747318 -0.77714596973225614 0 0.62932038083071107 0.31466019041535553 0 0.38857298486612807 1 I I #
point $-1 -39.814242866631851 15.379491888651962 6.1023382156783113 #
plane-surface $-1 43.016449476607562 0 0 -1 0 0 0 0 1 forward_v I I I I #
coedge $-1 $261 $188 $191 $269 forward $181 $-1 #
coedge $-1 $188 $261 $183 $260 reversed $181 $-1 #
edge $-1 $266 -9.2795881895632899 $273 9.2795881895632899 $259 $308 forward 7 unknown #
coedge $-1 $259 $258 $184 $262 reversed $181 $-1 #
edge $-1 $273 -43.016449476607562 $263 43.016449476607562 $261 $309 forward 7 unknown #
vertex $-1 $186 $310 #
straight-curve $-1 43.016449476607562 0 -9.2795881895632899 0 -1 0 I I #
edge $-1 $266 -29.331712668565785 $199 29.331712668565785 $197 $311 forward 7 unknown #
vertex $-1 $189 $312 #
straight-curve $-1 0 29.331712668565785 9.2795881895632899 -1 0 0 I I #
straight-curve $-1 0 -29.331712668565785 9.2795881895632899 1 0 0 I I #
edge $-1 $194 -9.2795881895632899 $263 9.2795881895632899 $191 $313 forward 7 unknown #
point $-1 43.016449476607562 -29.331712668565785 9.2795881895632899 #
point $-1 43.016449476607562 29.331712668565785 9.2795881895632899 #
point $-1 -43.016449476607562 -29.331712668565785 9.2795881895632899 #
vertex $-1 $262 $314 #
straight-curve $-1 -43.016449476607562 0 -9.2795881895632899 0 1 0 I I #
plane-surface $-1 0 0 9.2795881895632899 0 0 1 1 0 0 forward_v I I I I #
coedge $-1 $212 $288 $277 $315 forward $205 $-1 #
coedge $-1 $208 $207 $276 $315 reversed $84 $-1 #
edge $-1 $284 -2.0682320782250336 $282 2.0682320782250372 $207 $316 forward 7 unknown #
coedge $-1 $220 $219 $208 $280 forward $221 $-1 #
edge $-1 $281 -2.0682320782250372 $317 2.0682320782250336 $208 $318 forward 7 unknown #
vertex $-1 $224 $319 #
vertex $-1 $214 $320 #
straight-curve $-1 -32.716272813414321 -37.875996791014416 0 0 0 -1 I I #
vertex $-1 $315 $321 #
straight-curve $-1 -28.57980865696425 -33.6038547297901 -9.2795881895632899 0 -1 0 I I #
straight-curve $-1 -32.716272813414321 -33.6038547297901 -9.2795881895632899 0 1 0 I I #
point $-1 -28.57980865696425 -29.331712668565785 -9.2795881895632899 #
coedge $-1 $276 $217 $220 $290 reversed $205 $-1 #
straight-curve $-1 -28.57980865696425 -29.331712668565785 0 0 0 -1 I I #
edge $-1 $317 -4.2721420612243151 $222 4.2721420612243151 $288 $322 forward 7 unknown #
point $-1 -28.57980865696425 -29.331712668565785 9.2795881895632899 #
straight-curve $-1 -32.716272813414321 -33.6038547297901 9.2795881895632899 0 -1 0 I I #
edge $-1 $294 18.865511313070961 $297 25.997157230573176 $228 $323 forward 7 unknown #
vertex $-1 $242 $324 #
straight-curve $-1 -54.938285081240565 16.735570570809404 9.2795881895632917 -1 0 0 I I #
edge $-1 $297 -10.062883638101514 $239 -3.2824902273142662 $238 $325 forward 7 unknown #
vertex $-1 $296 $326 #
straight-curve $-1 -43.016449476607562 16.735570570809404 2.1479422720610728 0.62932038083071107 0 0.77714596973225614 I I #
point $-1 -37.241356637486838 16.735570570809404 9.2795881895632917 #
point $-1 -43.016449476607562 9.9551771600221564 2.1479422720610728 #
straight-curve $-1 -43.016449476607562 0 9.2795881895632899 0 -1 0 I I #
vertex $-1 $245 $327 #
point $-1 -38.765130197631429 11.311255842179612 5.25278355014086 #
vertex $-1 $249 $328 #
point $-1 -38.765130197631429 13.345373865415787 5.25278355014086 #
vertex $-1 $253 $329 #
point $-1 -38.765130197631429 15.379491888651962 5.25278355014086 #
straight-curve $-1 -43.016449476607562 29.331712668565785 0 0 0 -1 I I #
straight-curve $-1 0 29.331712668565785 -9.2795881895632899 1 0 0 I I #
point $-1 43.016449476607562 29.331712668565785 -9.2795881895632899 #
straight-curve $-1 -43.016449476607562 0 9.2795881895632899 0 -1 0 I I #
point $-1 -43.016449476607562 29.331712668565785 9.2795881895632899 #
straight-curve $-1 43.016449476607562 29.331712668565785 0 0 0 -1 I I #
point $-1 -43.016449476607562 29.331712668565785 -9.2795881895632899 #
edge $-1 $317 -9.2795881895632899 $284 9.2795881895632899 $276 $330 forward 7 unknown #
straight-curve $-1 -30.648040735189284 -37.875996791014416 -9.2795881895632899 -1 0 0 I I #
vertex $-1 $290 $331 #
straight-curve $-1 -30.648040735189284 -37.875996791014416 9.2795881895632899 1 0 0 I I #
point $-1 -32.716272813414321 -37.875996791014416 9.2795881895632899 #
point $-1 -32.716272813414321 -37.875996791014416 -9.2795881895632899 #
point $-1 -28.57980865696425 -37.875996791014416 -9.2795881895632899 #
straight-curve $-1 -28.57980865696425 -33.6038547297901 9.2795881895632899 0 1 0 I I #
straight-curve $-1 -43.016449476607562 16.735570570809404 28.145099502634249 0 0 -1 I I #
point $-1 -43.016449476607562 16.735570570809404 9.2795881895632899 #
straight-curve $-1 -43.016449476607562 6.6726869327078902 2.1479422720610737 0 -1 0 I I #
point $-1 -43.016449476607562 16.735570570809404 2.1479422720610728 #
point $-1 -38.691217403180659 11.311255842179612 4.5495503748593755 #
point $-1 -38.691217403180659 13.345373865415787 4.5495503748593755 #
point $-1 -38.691217403180659 15.379491888651962 4.5495503748593755 #
straight-curve $-1 -28.57980865696425 -37.875996791014416 0 0 0 -1 I I #
point $-1 -28.57980865696425 -37.875996791014416 9.2795881895632899 #
End-of-ACIS-data 