500 0 8 0           
7 Unknown 11 ACIS 5.0 NT 24 Fri Mar 26 18:59:42 1999 
-1 9.9999999999999995e-007 1e-010 
body $-1 $8 $-1 $9 #
body $-1 $10 $-1 $11 #
body $-1 $12 $-1 $13 #
body $-1 $14 $-1 $15 #
body $-1 $16 $-1 $17 #
body $-1 $18 $-1 $19 #
body $-1 $20 $-1 $21 #
body $-1 $22 $-1 $23 #
lump $-1 $-1 $24 $0 #
transform $-1 1 0 0 0 1 0 0 0 1 40.639667958616904 18.51810523870105 4 1 rotate no_reflect no_shear #
lump $-1 $-1 $25 $1 #
transform $-1 1 0 0 0 1 0 0 0 1 40.639667958616904 18.51810523870105 4 1 rotate no_reflect no_shear #
lump $-1 $-1 $26 $2 #
transform $-1 1 0 0 0 1 0 0 0 1 40.639667958616904 18.51810523870105 4 1 rotate no_reflect no_shear #
lump $-1 $-1 $27 $3 #
transform $-1 1 0 0 0 1 0 0 0 1 40.639667958616904 18.51810523870105 4 1 rotate no_reflect no_shear #
lump $-1 $-1 $28 $4 #
transform $-1 1 0 0 0 1 0 0 0 1 40.639667958616904 18.51810523870105 4 1 rotate no_reflect no_shear #
lump $-1 $-1 $29 $5 #
transform $-1 1 0 0 0 1 0 0 0 1 40.639667958616904 18.51810523870105 4 1 rotate no_reflect no_shear #
lump $-1 $-1 $30 $6 #
transform $-1 1 0 0 0 1 0 0 0 1 40.639667958616904 18.51810523870105 4 1 rotate no_reflect no_shear #
lump $-1 $-1 $31 $7 #
transform $-1 1 0 0 0 1 0 0 0 1 40.639667958616904 18.51810523870105 4 1 rotate no_reflect no_shear #
shell $-1 $-1 $-1 $32 $-1 $8 #
shell $-1 $-1 $-1 $33 $-1 $10 #
shell $-1 $-1 $-1 $34 $-1 $12 #
shell $-1 $-1 $-1 $35 $-1 $14 #
shell $-1 $-1 $-1 $36 $-1 $16 #
shell $-1 $-1 $-1 $37 $-1 $18 #
shell $-1 $-1 $-1 $38 $-1 $20 #
shell $-1 $-1 $-1 $39 $-1 $22 #
face $-1 $40 $41 $24 $-1 $42 forward single #
face $-1 $43 $44 $25 $-1 $45 forward single #
face $-1 $46 $47 $26 $-1 $48 reversed single #
face $-1 $49 $50 $27 $-1 $51 forward single #
face $-1 $52 $53 $28 $-1 $54 forward single #
face $-1 $55 $56 $29 $-1 $57 reversed single #
face $-1 $58 $59 $30 $-1 $60 forward single #
face $-1 $61 $62 $31 $-1 $63 forward single #
face $-1 $64 $65 $24 $-1 $66 reversed single #
loop $-1 $-1 $67 $32 #
plane-surface $-1 0 0 4 0 0 1 1 0 0 forward_v I I I I #
face $-1 $68 $69 $25 $-1 $70 reversed single #
loop $-1 $-1 $71 $33 #
plane-surface $-1 0 -18.51810523870105 0 0 1 0 0 0 1 forward_v I I I I #
face $-1 $72 $73 $26 $-1 $74 reversed single #
loop $-1 $-1 $75 $34 #
plane-surface $-1 62.57246509178038 10.919245128237169 113.59045539149912 0 -1 0 -0.82903758062907751 0 -0.55919289150049634 forward_v I I I I #
face $-1 $76 $77 $27 $-1 $78 forward single #
loop $-1 $79 $80 $35 #
cone-surface $-1 39.131097911348157 3.8365266519592964 2.0984058126194634 -0.82903758062907751 0 -0.55919289150049634 0.13979822287512408 0 -0.20725939515726938 1 I I 0 1 0.25 forward I I I I #
face $-1 $81 $82 $28 $-1 $83 forward single #
loop $-1 $84 $85 $36 #
cone-surface $-1 39.131097911348157 8.086157737726019 2.0984058126194634 -0.82903758062907751 0 -0.55919289150049634 0.13979822287512408 0 -0.20725939515726938 1 I I 0 1 0.25 forward I I I I #
face $-1 $86 $87 $29 $-1 $88 reversed single #
loop $-1 $-1 $89 $37 #
plane-surface $-1 -108.0232919625785 1.0034392614481469 46.20683138753752 0 1 0 -0.82903758062907751 0 0.55919289150049634 forward_v I I I I #
face $-1 $90 $91 $30 $-1 $92 forward single #
loop $-1 $93 $94 $38 #
cone-surface $-1 -39.131097911348149 3.8365266519592964 2.0984058126194527 0.82903758062907751 0 -0.55919289150049634 0.13979822287512408 0 0.20725939515726938 1 I I 0 1 0.25 forward I I I I #
face $-1 $95 $96 $31 $-1 $97 forward single #
loop $-1 $98 $99 $39 #
cone-surface $-1 -39.131097911348149 8.086157737726019 2.0984058126194527 0.82903758062907751 0 -0.55919289150049634 0.13979822287512408 0 0.20725939515726938 1 I I 0 1 0.25 forward I I I I #
face $-1 $100 $101 $24 $-1 $102 reversed single #
loop $-1 $-1 $103 $40 #
plane-surface $-1 0 0 -4 0 0 1 1 0 0 forward_v I I I I #
coedge $-1 $104 $105 $106 $107 forward $41 $-1 #
face $-1 $108 $109 $25 $-1 $110 forward single #
loop $-1 $-1 $111 $43 #
plane-surface $-1 -40.639667958616904 0 0 1 0 0 0 0 -1 forward_v I I I I #
coedge $-1 $112 $113 $114 $115 forward $44 $-1 #
face $-1 $116 $117 $26 $-1 $118 reversed single #
loop $-1 $-1 $119 $46 #
plane-surface $-1 -4.8111589121812202 5.9613421948426577 68.139628520700995 0.82903758062907751 0 0.55919289150049634 0.55919289150049634 0 -0.82903758062907751 forward_v I I I I #
coedge $-1 $120 $121 $122 $123 reversed $47 $-1 #
face $-1 $-1 $124 $27 $-1 $125 forward single #
loop $-1 $126 $127 $49 #
cone-surface $-1 38.612949423454985 3.8365266519592964 1.7489102554316531 -0.82903758062907751 0 -0.55919289150049634 0.069899111437562042 0 -0.10362969757863469 1 I I -0.70710678118654746 0.70710678118654746 0.125 forward I I I I #
loop $-1 $-1 $128 $35 #
coedge $-1 $80 $80 $129 $130 reversed $50 $-1 #
face $-1 $-1 $131 $28 $-1 $132 forward single #
loop $-1 $133 $134 $52 #
cone-surface $-1 38.612949423454985 8.086157737726019 1.7489102554316531 -0.82903758062907751 0 -0.55919289150049634 0.069899111437562042 0 -0.10362969757863469 1 I I -0.70710678118654746 0.70710678118654746 0.125 forward I I I I #
loop $-1 $-1 $135 $36 #
coedge $-1 $85 $85 $136 $137 reversed $53 $-1 #
face $-1 $138 $139 $29 $-1 $140 reversed single #
loop $-1 $-1 $141 $55 #
plane-surface $-1 -40.639667958616897 5.9613421948426577 0.75600451673940228 -0.82903758062907751 0 0.55919289150049634 0.55919289150049634 0 0.82903758062907751 forward_v I I I I #
coedge $-1 $142 $143 $144 $145 reversed $56 $-1 #
face $-1 $-1 $146 $30 $-1 $147 forward single #
loop $-1 $148 $149 $58 #
cone-surface $-1 -38.612949423454978 3.8365266519592964 1.7489102554316425 0.82903758062907751 0 -0.55919289150049634 0.069899111437562042 0 0.10362969757863469 1 I I -0.70710678118654746 0.70710678118654746 0.125 forward I I I I #
loop $-1 $-1 $150 $38 #
coedge $-1 $94 $94 $151 $152 reversed $59 $-1 #
face $-1 $-1 $153 $31 $-1 $154 forward single #
loop $-1 $155 $156 $61 #
cone-surface $-1 -38.612949423454978 8.086157737726019 1.7489102554316425 0.82903758062907751 0 -0.55919289150049634 0.069899111437562042 0 0.10362969757863469 1 I I -0.70710678118654746 0.70710678118654746 0.125 forward I I I I #
loop $-1 $-1 $157 $39 #
coedge $-1 $99 $99 $158 $159 reversed $62 $-1 #
face $-1 $160 $161 $24 $-1 $162 reversed single #
loop $-1 $-1 $163 $64 #
plane-surface $-1 0 -18.51810523870105 0 0 1 0 0 0 1 forward_v I I I I #
coedge $-1 $164 $165 $166 $167 forward $65 $-1 #
coedge $-1 $168 $67 $169 $170 forward $41 $-1 #
coedge $-1 $67 $168 $171 $172 forward $41 $-1 #
coedge $-1 $173 $174 $67 $107 reversed $175 $-1 #
edge $-1 $176 -18.51810523870105 $177 18.51810523870105 $106 $178 forward 7 unknown #
face $-1 $179 $180 $25 $-1 $181 reversed single #
loop $-1 $-1 $182 $68 #
plane-surface $-1 0 -20.01810523870105 3.0939054536576434 0 0 1 1 0 0 forward_v I I I I #
coedge $-1 $183 $184 $113 $185 forward $69 $-1 #
coedge $-1 $186 $71 $187 $188 reversed $44 $-1 #
coedge $-1 $71 $186 $111 $185 reversed $44 $-1 #
coedge $-1 $189 $182 $71 $115 reversed $109 $-1 #
edge $-1 $190 -40.639667958616904 $191 40.639667958616904 $114 $192 forward 7 unknown #
face $-1 $193 $194 $26 $-1 $195 reversed single #
loop $-1 $-1 $196 $72 #
plane-surface $-1 62.57246509178038 1.0034392614481469 113.59045539149912 0 1 0 0.82903758062907751 0 0.55919289150049634 forward_v I I I I #
coedge $-1 $197 $198 $199 $200 reversed $73 $-1 #
coedge $-1 $121 $75 $201 $202 reversed $47 $-1 #
coedge $-1 $75 $120 $197 $203 reversed $47 $-1 #
coedge $-1 $199 $204 $75 $123 forward $205 $-1 #
edge $-1 $206 -9.3534354127267143 $207 -7.1653328988182814 $122 $208 forward 7 unknown #
loop $-1 $-1 $129 $76 #
plane-surface $-1 -4.8111589121812202 5.9613421948426577 68.139628520700995 0.82903758062907751 0 0.55919289150049634 0.55919289150049634 0 -0.82903758062907751 forward_v I I I I #
loop $-1 $-1 $209 $49 #
coedge $-1 $127 $127 $128 $210 reversed $77 $-1 #
coedge $-1 $128 $128 $127 $210 forward $79 $-1 #
coedge $-1 $129 $129 $80 $130 forward $124 $-1 #
edge $-1 $211 0 $211 6.2831853071796004 $129 $212 forward 7 unknown #
loop $-1 $-1 $136 $81 #
plane-surface $-1 -4.8111589121812202 5.9613421948426577 68.139628520700995 0.82903758062907751 0 0.55919289150049634 0.55919289150049634 0 -0.82903758062907751 forward_v I I I I #
loop $-1 $-1 $213 $52 #
coedge $-1 $134 $134 $135 $214 reversed $82 $-1 #
coedge $-1 $135 $135 $134 $214 forward $84 $-1 #
coedge $-1 $136 $136 $85 $137 forward $131 $-1 #
edge $-1 $215 0 $215 6.2831853071796004 $136 $216 forward 7 unknown #
face $-1 $217 $218 $29 $-1 $219 forward single #
loop $-1 $-1 $220 $86 #
plane-surface $-1 -108.0232919625785 10.919245128237169 46.20683138753752 0 -1 0 0.82903758062907751 0 -0.55919289150049634 forward_v I I I I #
coedge $-1 $221 $222 $223 $224 reversed $87 $-1 #
coedge $-1 $143 $89 $225 $226 reversed $56 $-1 #
coedge $-1 $89 $142 $221 $227 reversed $56 $-1 #
coedge $-1 $223 $228 $89 $145 forward $218 $-1 #
edge $-1 $229 13.371978022672344 $230 15.560080536580777 $144 $231 forward 7 unknown #
loop $-1 $-1 $151 $90 #
plane-surface $-1 -40.639667958616897 5.9613421948426577 0.75600451673940228 -0.82903758062907751 0 0.55919289150049634 0.55919289150049634 0 0.82903758062907751 forward_v I I I I #
loop $-1 $-1 $232 $58 #
coedge $-1 $149 $149 $150 $233 reversed $91 $-1 #
coedge $-1 $150 $150 $149 $233 forward $93 $-1 #
coedge $-1 $151 $151 $94 $152 forward $146 $-1 #
edge $-1 $234 0 $234 6.2831853071796004 $151 $235 forward 7 unknown #
loop $-1 $-1 $158 $95 #
plane-surface $-1 -40.639667958616897 5.9613421948426577 0.75600451673940228 -0.82903758062907751 0 0.55919289150049634 0.55919289150049634 0 0.82903758062907751 forward_v I I I I #
loop $-1 $-1 $236 $61 #
coedge $-1 $156 $156 $157 $237 reversed $96 $-1 #
coedge $-1 $157 $157 $156 $237 forward $98 $-1 #
coedge $-1 $158 $158 $99 $159 forward $153 $-1 #
edge $-1 $238 0 $238 6.2831853071796004 $158 $239 forward 7 unknown #
face $-1 $240 $241 $24 $-1 $242 reversed single #
loop $-1 $-1 $243 $100 #
plane-surface $-1 -40.639667958616904 0 0 1 0 0 0 0 -1 forward_v I I I I #
coedge $-1 $244 $171 $245 $246 forward $101 $-1 #
coedge $-1 $247 $103 $244 $248 forward $65 $-1 #
coedge $-1 $103 $247 $249 $250 forward $65 $-1 #
coedge $-1 $174 $173 $103 $167 reversed $175 $-1 #
edge $-1 $251 -18.51810523870105 $252 18.51810523870105 $166 $253 forward 7 unknown #
coedge $-1 $105 $104 $254 $255 forward $41 $-1 #
coedge $-1 $256 $257 $104 $170 reversed $241 $-1 #
edge $-1 $177 -40.639667958616904 $258 40.639667958616904 $169 $259 forward 7 unknown #
coedge $-1 $163 $260 $105 $172 reversed $101 $-1 #
edge $-1 $261 -40.639667958616904 $176 40.639667958616904 $171 $262 forward 7 unknown #
coedge $-1 $166 $106 $260 $263 forward $175 $-1 #
coedge $-1 $106 $166 $256 $264 reversed $175 $-1 #
loop $-1 $-1 $173 $240 #
vertex $-1 $107 $265 #
vertex $-1 $107 $266 #
straight-curve $-1 40.639667958616904 0 4 0 1 0 I I #
face $-1 $267 $268 $25 $-1 $269 reversed single #
loop $-1 $-1 $270 $108 #
plane-surface $-1 0 -20.01810523870105 0.093905453657643356 0 0 1 1 0 0 forward_v I I I I #
coedge $-1 $114 $271 $272 $273 forward $109 $-1 #
coedge $-1 $274 $111 $275 $276 reversed $69 $-1 #
coedge $-1 $111 $274 $189 $277 reversed $69 $-1 #
edge $-1 $190 -3.0939054536576434 $278 -0.093905453657643356 $111 $279 forward 7 unknown #
coedge $-1 $113 $112 $280 $281 forward $44 $-1 #
coedge $-1 $272 $282 $112 $188 forward $283 $-1 #
edge $-1 $284 0.093905453657643356 $191 3.0939054536576434 $187 $285 forward 7 unknown #
coedge $-1 $271 $114 $184 $277 forward $109 $-1 #
vertex $-1 $185 $286 #
vertex $-1 $273 $287 #
straight-curve $-1 0 -18.51810523870105 3.0939054536576434 1 0 0 I I #
face $-1 $-1 $205 $26 $-1 $288 forward single #
loop $-1 $-1 $289 $116 #
plane-surface $-1 40.639667958616904 0 0 -1 0 0 0 0 1 forward_v I I I I #
coedge $-1 $290 $291 $292 $293 reversed $117 $-1 #
coedge $-1 $294 $119 $121 $203 forward $73 $-1 #
coedge $-1 $119 $294 $290 $295 forward $73 $-1 #
coedge $-1 $292 $122 $119 $200 forward $205 $-1 #
edge $-1 $207 -7.9385740308158397 $296 1.977231835973182 $199 $297 forward 7 unknown #
coedge $-1 $298 $299 $120 $202 forward $194 $-1 #
edge $-1 $300 -56.039223179010179 $206 -52.79522769574956 $201 $301 forward 7 unknown #
edge $-1 $207 77.366370378567822 $300 81.279335917233823 $121 $302 forward 7 unknown #
coedge $-1 $122 $292 $298 $303 forward $205 $-1 #
loop $-1 $-1 $292 $193 #
vertex $-1 $202 $304 #
vertex $-1 $123 $305 #
straight-curve $-1 31.28623254589019 10.919245128237169 4 -1 0 0 I I #
coedge $-1 $209 $209 $-1 $306 reversed $126 $-1 #
edge $-1 $307 0 $307 6.2831853071796004 $127 $308 forward 7 unknown #
vertex $-1 $130 $309 #
ellipse-curve $-1 39.545616701662681 3.8365266519592964 2.3780022583697038 0.82903758062907751 0 0.55919289150049634 0.13979822287512408 0 -0.20725939515726938 1 I I #
coedge $-1 $213 $213 $-1 $310 reversed $133 $-1 #
edge $-1 $311 0 $311 6.2831853071796004 $134 $312 forward 7 unknown #
vertex $-1 $137 $313 #
ellipse-curve $-1 39.545616701662681 8.086157737726019 2.3780022583697038 0.82903758062907751 0 0.55919289150049634 0.13979822287512408 0 -0.20725939515726938 1 I I #
face $-1 $-1 $314 $29 $-1 $315 reversed single #
loop $-1 $-1 $144 $138 #
plane-surface $-1 0 0 4 0 0 1 1 0 0 forward_v I I I I #
coedge $-1 $316 $317 $318 $319 reversed $139 $-1 #
coedge $-1 $320 $141 $143 $227 forward $87 $-1 #
coedge $-1 $141 $320 $316 $321 forward $87 $-1 #
coedge $-1 $318 $144 $141 $224 forward $218 $-1 #
edge $-1 $230 -1.977231835973182 $322 7.9385740308158397 $223 $323 forward 7 unknown #
coedge $-1 $324 $325 $142 $226 forward $314 $-1 #
edge $-1 $326 -22.347411177029368 $229 -19.10341569376876 $225 $327 forward 7 unknown #
edge $-1 $230 -3.9129655386659783 $326 1.2717262267236031e-014 $143 $328 forward 7 unknown #
coedge $-1 $144 $318 $324 $329 forward $218 $-1 #
vertex $-1 $145 $330 #
vertex $-1 $145 $331 #
straight-curve $-1 -54.011645981289249 1.0034392614481469 4 1 0 0 I I #
coedge $-1 $232 $232 $-1 $332 reversed $148 $-1 #
edge $-1 $333 0 $333 6.2831853071796004 $149 $334 forward 7 unknown #
vertex $-1 $152 $335 #
ellipse-curve $-1 -39.545616701662688 3.8365266519592964 2.3780022583696994 -0.82903758062907751 0 0.55919289150049634 0.13979822287512408 0 0.20725939515726938 1 I I #
coedge $-1 $236 $236 $-1 $336 reversed $155 $-1 #
edge $-1 $337 0 $337 6.2831853071796004 $156 $338 forward 7 unknown #
vertex $-1 $159 $339 #
ellipse-curve $-1 -39.545616701662688 8.086157737726019 2.3780022583696994 -0.82903758062907751 0 0.55919289150049634 0.13979822287512408 0 0.20725939515726938 1 I I #
face $-1 $-1 $175 $24 $-1 $340 reversed single #
loop $-1 $-1 $256 $160 #
plane-surface $-1 0 18.51810523870105 0 0 -1 0 0 0 -1 forward_v I I I I #
coedge $-1 $341 $254 $257 $342 forward $161 $-1 #
coedge $-1 $260 $163 $164 $248 reversed $101 $-1 #
coedge $-1 $254 $341 $163 $246 reversed $161 $-1 #
edge $-1 $261 -4 $343 4 $245 $344 forward 7 unknown #
coedge $-1 $165 $164 $341 $345 forward $65 $-1 #
edge $-1 $252 -40.639667958616904 $343 40.639667958616904 $244 $346 forward 7 unknown #
coedge $-1 $257 $256 $165 $250 reversed $241 $-1 #
edge $-1 $347 -40.639667958616904 $251 40.639667958616904 $249 $348 forward 7 unknown #
vertex $-1 $167 $349 #
vertex $-1 $263 $350 #
straight-curve $-1 40.639667958616904 0 -4 0 -1 0 I I #
coedge $-1 $243 $245 $168 $255 reversed $161 $-1 #
edge $-1 $258 -18.51810523870105 $261 18.51810523870105 $254 $351 forward 7 unknown #
coedge $-1 $249 $169 $174 $264 forward $241 $-1 #
coedge $-1 $169 $249 $243 $342 reversed $241 $-1 #
vertex $-1 $170 $352 #
straight-curve $-1 0 18.51810523870105 4 -1 0 0 I I #
coedge $-1 $171 $244 $173 $263 reversed $101 $-1 #
vertex $-1 $255 $353 #
straight-curve $-1 0 -18.51810523870105 4 1 0 0 I I #
edge $-1 $176 -4 $252 4 $173 $354 forward 7 unknown #
edge $-1 $177 -4 $251 4 $174 $355 forward 7 unknown #
point $-1 40.639667958616904 -18.51810523870105 4 #
point $-1 40.639667958616904 18.51810523870105 4 #
face $-1 $-1 $283 $25 $-1 $356 reversed single #
loop $-1 $-1 $357 $179 #
plane-surface $-1 0 -21.51810523870105 1.5939054536576434 0 1 0 0 0 1 forward_v I I I I #
coedge $-1 $358 $280 $282 $359 forward $180 $-1 #
coedge $-1 $182 $189 $360 $361 forward $109 $-1 #
coedge $-1 $362 $187 $182 $273 reversed $283 $-1 #
edge $-1 $363 -1.5 $191 1.5 $272 $364 forward 7 unknown #
coedge $-1 $184 $183 $357 $365 reversed $69 $-1 #
coedge $-1 $280 $358 $183 $276 forward $180 $-1 #
edge $-1 $366 -1.5 $278 1.5 $183 $367 forward 7 unknown #
edge $-1 $190 -1.5 $368 1.5 $184 $369 forward 7 unknown #
vertex $-1 $185 $370 #
straight-curve $-1 -40.639667958616904 -18.51810523870105 0 0 0 -1 I I #
coedge $-1 $270 $275 $186 $281 reversed $180 $-1 #
edge $-1 $284 -40.639667958616904 $278 40.639667958616904 $280 $371 forward 7 unknown #
coedge $-1 $187 $362 $270 $359 reversed $283 $-1 #
loop $-1 $-1 $187 $267 #
vertex $-1 $188 $372 #
straight-curve $-1 40.639667958616904 -18.51810523870105 0 0 0 1 I I #
point $-1 -40.639667958616904 -18.51810523870105 3.0939054536576434 #
point $-1 40.639667958616904 -18.51810523870105 3.0939054536576434 #
plane-surface $-1 0 0 4 0 0 1 1 0 0 forward_v I I I I #
coedge $-1 $299 $298 $291 $373 forward $194 $-1 #
coedge $-1 $291 $196 $198 $295 reversed $117 $-1 #
coedge $-1 $196 $290 $289 $373 reversed $117 $-1 #
coedge $-1 $204 $199 $196 $293 forward $205 $-1 #
edge $-1 $296 7.1653328988182814 $374 9.3534354127267143 $292 $375 forward 7 unknown #
coedge $-1 $198 $197 $299 $376 reversed $73 $-1 #
edge $-1 $377 -81.279335917233823 $296 -77.366370378567822 $290 $378 forward 7 unknown #
vertex $-1 $200 $379 #
straight-curve $-1 38.451565444708471 2.9806710974213289 3.9999999999999929 0 -1 0 I I #
coedge $-1 $289 $201 $204 $303 reversed $194 $-1 #
coedge $-1 $201 $289 $294 $376 forward $194 $-1 #
vertex $-1 $202 $380 #
straight-curve $-1 40.639667958616904 10.919245128237169 56.79522769574956 0 0 1 I I #
straight-curve $-1 -4.8111589121812202 10.919245128237169 68.139628520700995 0.55919289150049634 0 -0.82903758062907751 I I #
edge $-1 $374 1.0034392614481469 $206 10.919245128237169 $298 $381 forward 7 unknown #
point $-1 40.639667958616904 10.919245128237169 4 #
point $-1 38.451565444708471 10.919245128237169 4 #
edge $-1 $382 1 $382 0 $209 $-1 forward 7 unknown #
vertex $-1 $210 $383 #
ellipse-curve $-1 38.716579121033618 3.8365266519592964 1.8188093668692151 0.82903758062907751 0 0.55919289150049634 0.13979822287512408 0 -0.20725939515726938 1 I I #
point $-1 39.685414924537824 3.8365266519592964 2.1707428632124421 #
edge $-1 $384 1 $384 0 $213 $-1 forward 7 unknown #
vertex $-1 $214 $385 #
ellipse-curve $-1 38.716579121033618 8.086157737726019 1.8188093668692151 0.82903758062907751 0 0.55919289150049634 0.13979822287512408 0 -0.20725939515726938 1 I I #
point $-1 39.685414924537824 8.086157737726019 2.1707428632124421 #
loop $-1 $-1 $225 $217 #
plane-surface $-1 -40.639667958616904 0 0 1 0 0 0 0 -1 forward_v I I I I #
coedge $-1 $317 $220 $222 $321 reversed $139 $-1 #
coedge $-1 $220 $316 $386 $387 reversed $139 $-1 #
coedge $-1 $228 $223 $220 $319 forward $218 $-1 #
edge $-1 $322 -15.560080536580777 $388 -13.371978022672344 $318 $389 forward 7 unknown #
coedge $-1 $222 $221 $325 $390 reversed $87 $-1 #
edge $-1 $391 -1.2717262267236031e-014 $322 3.9129655386659783 $316 $392 forward 7 unknown #
vertex $-1 $224 $393 #
straight-curve $-1 -38.451565444708471 2.9806710974213289 3.9999999999999991 0 1 0 I I #
coedge $-1 $386 $225 $228 $329 reversed $314 $-1 #
coedge $-1 $225 $386 $320 $390 forward $314 $-1 #
vertex $-1 $226 $394 #
straight-curve $-1 -40.639667958616904 1.0034392614481469 23.10341569376876 0 0 1 I I #
straight-curve $-1 -40.639667958616897 1.0034392614481469 0.75600451673940228 -0.55919289150049634 0 -0.82903758062907751 I I #
edge $-1 $388 -10.919245128237169 $229 -1.0034392614481469 $324 $395 forward 7 unknown #
point $-1 -40.639667958616904 1.0034392614481469 4 #
point $-1 -38.451565444708471 1.0034392614481469 4 #
edge $-1 $396 1 $396 0 $232 $-1 forward 7 unknown #
vertex $-1 $233 $397 #
ellipse-curve $-1 -38.716579121033611 3.8365266519592964 1.8188093668692045 -0.82903758062907751 0 0.55919289150049634 0.13979822287512408 0 0.20725939515726938 1 I I #
point $-1 -39.405818478787566 3.8365266519592964 2.5852616535269703 #
edge $-1 $398 1 $398 0 $236 $-1 forward 7 unknown #
vertex $-1 $237 $399 #
ellipse-curve $-1 -38.716579121033611 8.086157737726019 1.8188093668692045 -0.82903758062907751 0 0.55919289150049634 0.13979822287512408 0 0.20725939515726938 1 I I #
point $-1 -39.405818478787566 8.086157737726019 2.5852616535269703 #
plane-surface $-1 40.639667958616904 0 0 -1 0 0 0 0 1 forward_v I I I I #
coedge $-1 $245 $243 $247 $345 reversed $161 $-1 #
edge $-1 $258 -4 $347 4 $257 $400 forward 7 unknown #
vertex $-1 $345 $401 #
straight-curve $-1 -40.639667958616904 -18.51810523870105 0 0 0 -1 I I #
edge $-1 $343 -18.51810523870105 $347 18.51810523870105 $341 $402 forward 7 unknown #
straight-curve $-1 0 -18.51810523870105 -4 -1 0 0 I I #
vertex $-1 $250 $403 #
straight-curve $-1 0 18.51810523870105 -4 1 0 0 I I #
point $-1 40.639667958616904 18.51810523870105 -4 #
point $-1 40.639667958616904 -18.51810523870105 -4 #
straight-curve $-1 -40.639667958616904 0 4 0 -1 0 I I #
point $-1 -40.639667958616904 18.51810523870105 4 #
point $-1 -40.639667958616904 -18.51810523870105 4 #
straight-curve $-1 40.639667958616904 -18.51810523870105 0 0 0 -1 I I #
straight-curve $-1 40.639667958616904 18.51810523870105 0 0 0 -1 I I #
plane-surface $-1 40.639667958616904 0 0 -1 0 0 0 0 1 forward_v I I I I #
coedge $-1 $404 $360 $274 $365 forward $268 $-1 #
coedge $-1 $275 $270 $404 $405 forward $180 $-1 #
edge $-1 $284 -1.5 $406 1.5 $282 $407 forward 7 unknown #
coedge $-1 $357 $408 $271 $361 reversed $268 $-1 #
edge $-1 $368 -40.639667958616904 $363 40.639667958616904 $360 $409 forward 7 unknown #
coedge $-1 $282 $272 $408 $410 forward $283 $-1 #
vertex $-1 $273 $411 #
straight-curve $-1 40.639667958616904 -20.01810523870105 3.0939054536576434 0 1 0 I I #
edge $-1 $368 -1.5 $366 1.5 $274 $412 forward 7 unknown #
vertex $-1 $276 $413 #
straight-curve $-1 -40.639667958616904 -20.01810523870105 0.093905453657643356 0 1 0 I I #
vertex $-1 $277 $414 #
straight-curve $-1 -40.639667958616904 -20.01810523870105 3.0939054536576434 0 -1 0 I I #
point $-1 -40.639667958616904 -18.51810523870105 0.093905453657643356 #
straight-curve $-1 0 -18.51810523870105 0.093905453657643356 -1 0 0 I I #
point $-1 40.639667958616904 -18.51810523870105 0.093905453657643356 #
edge $-1 $374 52.79522769574956 $377 56.039223179010179 $289 $415 forward 7 unknown #
vertex $-1 $303 $416 #
straight-curve $-1 31.28623254589019 1.0034392614481469 4 1 0 0 I I #
edge $-1 $377 -1.977231835973182 $300 7.9385740308158397 $299 $417 forward 7 unknown #
vertex $-1 $376 $418 #
straight-curve $-1 -4.8111589121812202 1.0034392614481469 68.139628520700995 -0.55919289150049634 0 0.82903758062907751 I I #
point $-1 38.451565444708471 1.0034392614481469 4 #
point $-1 40.639667958616904 10.919245128237169 0.75600451673938096 #
straight-curve $-1 40.639667958616904 0 4 0 1 0 I I #
vertex $-1 $306 $419 #
point $-1 38.856377343908747 3.8365266519592964 1.6115499717119457 #
vertex $-1 $310 $420 #
point $-1 38.856377343908747 8.086157737726019 1.6115499717119457 #
coedge $-1 $325 $324 $317 $387 forward $314 $-1 #
edge $-1 $388 19.10341569376876 $391 22.347411177029368 $386 $421 forward 7 unknown #
vertex $-1 $329 $422 #
straight-curve $-1 -54.011645981289249 10.919245128237169 4 -1 0 0 I I #
edge $-1 $391 -7.9385740308158397 $326 1.977231835973182 $325 $423 forward 7 unknown #
vertex $-1 $390 $424 #
straight-curve $-1 -40.639667958616897 10.919245128237169 0.75600451673940228 0.55919289150049634 0 0.82903758062907751 I I #
point $-1 -38.451565444708471 10.919245128237169 4 #
point $-1 -40.639667958616904 1.0034392614481469 0.75600451673939173 #
straight-curve $-1 -40.639667958616904 0 4 0 -1 0 I I #
vertex $-1 $332 $425 #
point $-1 -38.576780898158489 3.8365266519592964 2.0260687620264739 #
vertex $-1 $336 $426 #
point $-1 -38.576780898158489 8.086157737726019 2.0260687620264739 #
straight-curve $-1 -40.639667958616904 18.51810523870105 0 0 0 -1 I I #
point $-1 -40.639667958616904 -18.51810523870105 -4 #
straight-curve $-1 -40.639667958616904 0 -4 0 1 0 I I #
point $-1 -40.639667958616904 18.51810523870105 -4 #
coedge $-1 $408 $357 $358 $405 reversed $268 $-1 #
edge $-1 $406 -40.639667958616904 $366 40.639667958616904 $404 $427 forward 7 unknown #
vertex $-1 $410 $428 #
straight-curve $-1 40.639667958616904 -20.01810523870105 0.093905453657643356 0 -1 0 I I #
coedge $-1 $360 $404 $362 $410 reversed $268 $-1 #
straight-curve $-1 0 -21.51810523870105 3.0939054536576434 1 0 0 I I #
edge $-1 $363 -1.5 $406 1.5 $362 $429 forward 7 unknown #
point $-1 40.639667958616904 -21.51810523870105 3.0939054536576434 #
straight-curve $-1 -40.639667958616904 -21.51810523870105 1.5939054536576434 0 0 -1 I I #
point $-1 -40.639667958616904 -21.51810523870105 0.093905453657643356 #
point $-1 -40.639667958616904 -21.51810523870105 3.0939054536576434 #
straight-curve $-1 40.639667958616904 1.0034392614481469 56.79522769574956 0 0 -1 I I #
point $-1 40.639667958616904 1.0034392614481469 4 #
straight-curve $-1 40.639667958616904 2.9806710974213289 0.75600451673939517 0 1 0 I I #
point $-1 40.639667958616904 1.0034392614481469 0.75600451673938096 #
point $-1 38.509319725876352 3.8365266519592964 1.6790111439940911 #
point $-1 38.509319725876352 8.086157737726019 1.6790111439940911 #
straight-curve $-1 -40.639667958616904 10.919245128237169 23.10341569376876 0 0 -1 I I #
point $-1 -40.639667958616904 10.919245128237169 4 #
straight-curve $-1 -40.639667958616904 2.9806710974213289 0.75600451673939095 0 -1 0 I I #
point $-1 -40.639667958616904 10.919245128237169 0.75600451673939173 #
point $-1 -38.509319725876345 3.8365266519592964 1.6790111439940805 #
point $-1 -38.509319725876345 8.086157737726019 1.6790111439940805 #
straight-curve $-1 0 -21.51810523870105 0.093905453657643356 -1 0 0 I I #
point $-1 40.639667958616904 -21.51810523870105 0.093905453657643356 #
straight-curve $-1 40.639667958616904 -21.51810523870105 1.5939054536576434 0 0 -1 I I #
End-of-ACIS-data 