500 0 9 0           
7 Unknown 11 ACIS 5.0 NT 24 Fri Mar 26 19:22:53 1999 
-1 9.9999999999999995e-007 1e-010 
body $-1 $9 $-1 $10 #
body $-1 $11 $-1 $12 #
body $-1 $13 $-1 $14 #
body $-1 $15 $-1 $16 #
body $-1 $17 $-1 $18 #
body $-1 $19 $-1 $20 #
body $-1 $21 $-1 $22 #
body $-1 $23 $-1 $24 #
body $-1 $25 $-1 $26 #
lump $-1 $-1 $27 $0 #
transform $-1 1 0 0 0 1 0 0 0 1 68.267464217047632 41.310076616584382 19.666758360181579 1 rotate no_reflect no_shear #
lump $-1 $-1 $28 $1 #
transform $-1 1 0 0 0 1 0 0 0 1 68.267464217047632 41.310076616584382 19.666758360181579 1 rotate no_reflect no_shear #
lump $-1 $-1 $29 $2 #
transform $-1 1 0 0 0 1 0 0 0 1 68.267464217047632 41.310076616584382 19.666758360181579 1 rotate no_reflect no_shear #
lump $-1 $-1 $30 $3 #
transform $-1 1 0 0 0 1 0 0 0 1 68.267464217047632 41.310076616584382 19.666758360181579 1 rotate no_reflect no_shear #
lump $-1 $-1 $31 $4 #
transform $-1 1 0 0 0 1 0 0 0 1 68.267464217047632 41.310076616584382 19.666758360181579 1 rotate no_reflect no_shear #
lump $-1 $-1 $32 $5 #
transform $-1 1 0 0 0 1 0 0 0 1 68.267464217047632 41.310076616584382 19.666758360181579 1 rotate no_reflect no_shear #
lump $-1 $-1 $33 $6 #
transform $-1 1 0 0 0 1 0 0 0 1 68.267464217047632 41.310076616584382 19.666758360181579 1 rotate no_reflect no_shear #
lump $-1 $-1 $34 $7 #
transform $-1 1 0 0 0 1 0 0 0 1 68.267464217047632 41.310076616584382 19.666758360181579 1 rotate no_reflect no_shear #
lump $-1 $-1 $35 $8 #
transform $-1 1 0 0 0 1 0 0 0 1 68.267464217047632 41.310076616584382 19.666758360181579 1 rotate no_reflect no_shear #
shell $-1 $-1 $-1 $36 $-1 $9 #
shell $-1 $-1 $-1 $37 $-1 $11 #
shell $-1 $-1 $-1 $38 $-1 $13 #
shell $-1 $-1 $-1 $39 $-1 $15 #
shell $-1 $-1 $-1 $40 $-1 $17 #
shell $-1 $-1 $-1 $41 $-1 $19 #
shell $-1 $-1 $-1 $42 $-1 $21 #
shell $-1 $-1 $-1 $43 $-1 $23 #
shell $-1 $-1 $-1 $44 $-1 $25 #
face $-1 $45 $46 $27 $-1 $47 forward single #
face $-1 $48 $49 $28 $-1 $50 reversed single #
face $-1 $51 $52 $29 $-1 $53 reversed single #
face $-1 $54 $55 $30 $-1 $56 reversed single #
face $-1 $57 $58 $31 $-1 $59 forward single #
face $-1 $60 $61 $32 $-1 $62 forward single #
face $-1 $63 $64 $33 $-1 $65 forward single #
face $-1 $66 $67 $34 $-1 $68 reversed single #
face $-1 $69 $70 $35 $-1 $71 forward single #
face $-1 $72 $73 $27 $-1 $74 reversed single #
loop $-1 $-1 $75 $36 #
plane-surface $-1 0 0 19.666758360181579 0 0 1 1 0 0 forward_v I I I I #
face $-1 $76 $77 $28 $-1 $78 reversed single #
loop $-1 $-1 $79 $37 #
plane-surface $-1 0 -29.577832213578048 10.617540677865296 0 0 1 1 0 0 forward_v I I I I #
face $-1 $80 $81 $29 $-1 $82 reversed single #
loop $-1 $-1 $83 $38 #
plane-surface $-1 0 29.577832213578048 10.617540677865296 0 0 1 1 0 0 forward_v I I I I #
face $-1 $84 $85 $30 $-1 $86 reversed single #
loop $-1 $-1 $87 $39 #
plane-surface $-1 111.70316433003785 -7.4986815456293154 192.09233436145615 0 -1 0 -0.84804810408105047 0 -0.52991925155115449 forward_v I I I I #
face $-1 $88 $89 $31 $-1 $90 forward single #
loop $-1 $91 $92 $40 #
cone-surface $-1 62.676149333050205 -15.776206557583233 11.383439872694259 -0.84804810408105047 0 -0.52991925155115449 0.52991925155115449 0 -0.84804810408105047 1 I I 0 1 1 forward I I I I #
face $-1 $93 $94 $32 $-1 $95 forward single #
loop $-1 $96 $97 $41 #
cone-surface $-1 62.676149333050205 -12.672134678100516 11.383439872694259 -0.84804810408105047 0 -0.52991925155115449 0.52991925155115449 0 -0.84804810408105047 1 I I 0 1 1 forward I I I I #
face $-1 $98 $99 $33 $-1 $100 forward single #
loop $-1 $101 $102 $42 #
cone-surface $-1 62.676149333050205 -9.5680627986177988 11.383439872694259 -0.84804810408105047 0 -0.52991925155115449 0.52991925155115449 0 -0.84804810408105047 1 I I 0 1 1 forward I I I I #
face $-1 $103 $104 $34 $-1 $105 reversed single #
loop $-1 $-1 $106 $43 #
plane-surface $-1 -138.5881518511577 7.4971313989015904 130.97624189963321 0 1 0 -0.51503808176128008 0 0.85716729658548041 forward_v I I I I #
face $-1 $107 $108 $35 $-1 $109 forward single #
loop $-1 $110 $111 $44 #
cone-surface $-1 -63.031528719432202 10.679294038334042 16.017756681525533 0.51503808176128008 0 -0.85716729658548041 0.4285836482927402 0 0.25751904088064004 1 I I 0 1 0.5 forward I I I I #
face $-1 $112 $113 $27 $-1 $114 reversed single #
loop $-1 $-1 $115 $45 #
plane-surface $-1 0 0 -19.666758360181579 0 0 1 1 0 0 forward_v I I I I #
coedge $-1 $116 $117 $118 $119 forward $46 $-1 #
face $-1 $120 $121 $28 $-1 $122 reversed single #
loop $-1 $-1 $123 $48 #
plane-surface $-1 0 -17.845587810571715 15.142149519023437 0 -1 0 0 0 -1 forward_v I I I I #
coedge $-1 $124 $125 $126 $127 reversed $49 $-1 #
face $-1 $128 $129 $29 $-1 $130 forward single #
loop $-1 $-1 $131 $51 #
plane-surface $-1 0 17.845587810571715 15.142149519023437 0 1 0 0 0 1 forward_v I I I I #
coedge $-1 $132 $133 $134 $135 reversed $52 $-1 #
face $-1 $136 $137 $30 $-1 $138 forward single #
loop $-1 $-1 $139 $54 #
plane-surface $-1 -4.0850228693385446 -12.672134678100512 119.73984727506995 0.84804810408105047 0 0.52991925155115449 0.52991925155115449 0 -0.84804810408105047 forward_v I I I I #
coedge $-1 $140 $141 $142 $143 reversed $55 $-1 #
face $-1 $-1 $144 $31 $-1 $145 forward single #
loop $-1 $146 $147 $57 #
cone-surface $-1 61.570751873735844 -15.776206557583233 10.69271090167538 -0.84804810408105047 0 -0.52991925155115449 0.26495962577557725 0 -0.42402405204052523 1 I I -0.70710678118654746 0.70710678118654746 0.5 forward I I I I #
loop $-1 $-1 $148 $40 #
coedge $-1 $92 $92 $149 $150 reversed $58 $-1 #
face $-1 $-1 $151 $32 $-1 $152 forward single #
loop $-1 $153 $154 $60 #
cone-surface $-1 61.570751873735844 -12.672134678100516 10.69271090167538 -0.84804810408105047 0 -0.52991925155115449 0.26495962577557725 0 -0.42402405204052523 1 I I -0.70710678118654746 0.70710678118654746 0.5 forward I I I I #
loop $-1 $-1 $155 $41 #
coedge $-1 $97 $97 $156 $157 reversed $61 $-1 #
face $-1 $-1 $158 $33 $-1 $159 forward single #
loop $-1 $160 $161 $63 #
cone-surface $-1 61.570751873735844 -9.5680627986177988 10.69271090167538 -0.84804810408105047 0 -0.52991925155115449 0.26495962577557725 0 -0.42402405204052523 1 I I -0.70710678118654746 0.70710678118654746 0.5 forward I I I I #
loop $-1 $-1 $162 $42 #
coedge $-1 $102 $102 $163 $164 reversed $64 $-1 #
face $-1 $165 $166 $34 $-1 $167 reversed single #
loop $-1 $-1 $168 $66 #
plane-surface $-1 -68.267464217047618 10.679294038334035 13.942966404287731 -0.51503808176128008 0 0.85716729658548041 0.85716729658548041 0 0.51503808176128008 forward_v I I I I #
coedge $-1 $169 $170 $171 $172 reversed $67 $-1 #
face $-1 $-1 $173 $35 $-1 $174 forward single #
loop $-1 $175 $176 $69 #
cone-surface $-1 -62.429828371861092 10.679294038334042 15.016359156670024 0.51503808176128008 0 -0.85716729658548041 0.2142918241463701 0 0.12875952044032002 1 I I -0.70710678118654746 0.70710678118654746 0.25 forward I I I I #
loop $-1 $-1 $177 $44 #
coedge $-1 $111 $111 $178 $179 reversed $70 $-1 #
face $-1 $180 $181 $27 $-1 $182 reversed single #
loop $-1 $-1 $183 $72 #
plane-surface $-1 0 -41.310076616584382 0 0 1 0 0 0 1 forward_v I I I I #
coedge $-1 $184 $185 $186 $187 forward $73 $-1 #
coedge $-1 $188 $75 $189 $190 forward $46 $-1 #
coedge $-1 $75 $188 $191 $192 forward $46 $-1 #
coedge $-1 $193 $194 $75 $119 reversed $195 $-1 #
edge $-1 $196 -41.310076616584382 $197 41.310076616584382 $118 $198 forward 7 unknown #
face $-1 $199 $200 $28 $-1 $201 reversed single #
loop $-1 $-1 $202 $76 #
plane-surface $-1 -68.267464217047632 0 0 1 0 0 0 0 -1 forward_v I I I I #
coedge $-1 $203 $204 $125 $205 reversed $77 $-1 #
coedge $-1 $206 $79 $207 $208 reversed $49 $-1 #
coedge $-1 $79 $206 $123 $205 forward $49 $-1 #
coedge $-1 $209 $210 $79 $127 forward $211 $-1 #
edge $-1 $212 -26.521160509795358 $213 -3.0566717037826905 $126 $214 forward 7 unknown #
face $-1 $215 $216 $29 $-1 $217 reversed single #
loop $-1 $-1 $218 $80 #
plane-surface $-1 0 0 19.666758360181579 0 0 1 1 0 0 forward_v I I I I #
coedge $-1 $219 $220 $221 $222 reversed $81 $-1 #
coedge $-1 $223 $83 $219 $224 forward $52 $-1 #
coedge $-1 $83 $223 $225 $226 reversed $52 $-1 #
coedge $-1 $227 $228 $83 $135 forward $216 $-1 #
edge $-1 $229 3.0566717037826905 $230 26.521160509795358 $134 $231 forward 7 unknown #
face $-1 $232 $233 $30 $-1 $234 forward single #
loop $-1 $-1 $142 $84 #
plane-surface $-1 0 0 19.666758360181579 0 0 1 1 0 0 forward_v I I I I #
coedge $-1 $235 $236 $237 $238 reversed $85 $-1 #
coedge $-1 $141 $87 $239 $240 reversed $55 $-1 #
coedge $-1 $87 $140 $235 $241 reversed $55 $-1 #
coedge $-1 $237 $242 $87 $143 forward $137 $-1 #
edge $-1 $243 -12.415882052028707 $244 -2.5959990985815367 $142 $245 forward 7 unknown #
loop $-1 $-1 $149 $88 #
plane-surface $-1 -4.0850228693385446 -12.672134678100512 119.73984727506995 0.84804810408105047 0 0.52991925155115449 0.52991925155115449 0 -0.84804810408105047 forward_v I I I I #
loop $-1 $-1 $246 $57 #
coedge $-1 $147 $147 $148 $247 reversed $89 $-1 #
coedge $-1 $148 $148 $147 $247 forward $91 $-1 #
coedge $-1 $149 $149 $92 $150 forward $144 $-1 #
edge $-1 $248 0 $248 6.2831853071796004 $149 $249 forward 7 unknown #
loop $-1 $-1 $156 $93 #
plane-surface $-1 -4.0850228693385446 -12.672134678100512 119.73984727506995 0.84804810408105047 0 0.52991925155115449 0.52991925155115449 0 -0.84804810408105047 forward_v I I I I #
loop $-1 $-1 $250 $60 #
coedge $-1 $154 $154 $155 $251 reversed $94 $-1 #
coedge $-1 $155 $155 $154 $251 forward $96 $-1 #
coedge $-1 $156 $156 $97 $157 forward $151 $-1 #
edge $-1 $252 0 $252 6.2831853071796004 $156 $253 forward 7 unknown #
loop $-1 $-1 $163 $98 #
plane-surface $-1 -4.0850228693385446 -12.672134678100512 119.73984727506995 0.84804810408105047 0 0.52991925155115449 0.52991925155115449 0 -0.84804810408105047 forward_v I I I I #
loop $-1 $-1 $254 $63 #
coedge $-1 $161 $161 $162 $255 reversed $99 $-1 #
coedge $-1 $162 $162 $161 $255 forward $101 $-1 #
coedge $-1 $163 $163 $102 $164 forward $158 $-1 #
edge $-1 $256 0 $256 6.2831853071796004 $163 $257 forward 7 unknown #
face $-1 $258 $259 $34 $-1 $260 reversed single #
loop $-1 $-1 $261 $103 #
plane-surface $-1 -138.5881518511577 13.86145667776648 130.97624189963321 0 -1 0 0.51503808176128008 0 -0.85716729658548041 forward_v I I I I #
coedge $-1 $262 $263 $264 $265 reversed $104 $-1 #
coedge $-1 $170 $106 $266 $267 reversed $67 $-1 #
coedge $-1 $106 $169 $262 $268 reversed $67 $-1 #
coedge $-1 $264 $269 $106 $172 forward $270 $-1 #
edge $-1 $271 1.0266117085312203 $272 10.552601049500574 $171 $273 forward 7 unknown #
loop $-1 $-1 $178 $107 #
plane-surface $-1 -68.267464217047618 10.679294038334035 13.942966404287731 -0.51503808176128008 0 0.85716729658548041 0.85716729658548041 0 0.51503808176128008 forward_v I I I I #
loop $-1 $-1 $274 $69 #
coedge $-1 $176 $176 $177 $275 reversed $108 $-1 #
coedge $-1 $177 $177 $176 $275 forward $110 $-1 #
coedge $-1 $178 $178 $111 $179 forward $173 $-1 #
edge $-1 $276 0 $276 6.2831853071796004 $178 $277 forward 7 unknown #
face $-1 $278 $279 $27 $-1 $280 reversed single #
loop $-1 $-1 $281 $112 #
plane-surface $-1 -68.267464217047632 0 0 1 0 0 0 0 -1 forward_v I I I I #
coedge $-1 $282 $191 $283 $284 forward $113 $-1 #
coedge $-1 $285 $115 $282 $286 forward $73 $-1 #
coedge $-1 $115 $285 $287 $288 forward $73 $-1 #
coedge $-1 $194 $193 $115 $187 reversed $195 $-1 #
edge $-1 $289 -41.310076616584382 $290 41.310076616584382 $186 $291 forward 7 unknown #
coedge $-1 $117 $116 $292 $293 forward $46 $-1 #
coedge $-1 $294 $295 $116 $190 reversed $279 $-1 #
edge $-1 $197 -68.267464217047632 $296 68.267464217047632 $189 $297 forward 7 unknown #
coedge $-1 $183 $298 $117 $192 reversed $113 $-1 #
edge $-1 $299 -68.267464217047632 $196 68.267464217047632 $191 $300 forward 7 unknown #
coedge $-1 $186 $118 $298 $301 forward $195 $-1 #
coedge $-1 $118 $186 $294 $302 reversed $195 $-1 #
loop $-1 $-1 $193 $278 #
vertex $-1 $119 $303 #
vertex $-1 $119 $304 #
straight-curve $-1 68.267464217047632 0 19.666758360181579 0 1 0 I I #
face $-1 $305 $306 $28 $-1 $307 forward single #
loop $-1 $-1 $207 $120 #
plane-surface $-1 0 -41.310076616584382 0 0 1 0 0 0 1 forward_v I I I I #
coedge $-1 $308 $309 $203 $310 forward $121 $-1 #
coedge $-1 $311 $123 $202 $310 reversed $77 $-1 #
coedge $-1 $123 $311 $209 $312 reversed $77 $-1 #
edge $-1 $313 -68.267464217047632 $213 68.267464217047632 $123 $314 forward 7 unknown #
coedge $-1 $125 $124 $308 $315 reversed $49 $-1 #
coedge $-1 $316 $317 $124 $208 forward $200 $-1 #
edge $-1 $318 -68.267464217047632 $212 68.267464217047632 $207 $319 forward 7 unknown #
coedge $-1 $320 $126 $204 $312 forward $211 $-1 #
coedge $-1 $126 $320 $316 $321 forward $211 $-1 #
loop $-1 $-1 $209 $305 #
vertex $-1 $208 $322 #
vertex $-1 $127 $323 #
straight-curve $-1 68.267464217047632 -14.788916106789024 10.617540677865296 0 1 0 I I #
face $-1 $324 $325 $29 $-1 $326 reversed single #
loop $-1 $-1 $228 $128 #
plane-surface $-1 68.267464217047632 0 0 -1 0 0 0 0 1 forward_v I I I I #
coedge $-1 $327 $328 $220 $329 forward $129 $-1 #
coedge $-1 $330 $131 $132 $224 reversed $81 $-1 #
coedge $-1 $131 $330 $218 $329 reversed $81 $-1 #
coedge $-1 $331 $332 $131 $222 forward $325 $-1 #
edge $-1 $333 3.0464659183535776 $334 12.09568360066986 $221 $335 forward 7 unknown #
coedge $-1 $133 $132 $332 $336 reversed $52 $-1 #
edge $-1 $229 -68.267464217047632 $333 68.267464217047632 $219 $337 forward 7 unknown #
coedge $-1 $338 $339 $133 $226 forward $340 $-1 #
edge $-1 $230 -68.267464217047632 $341 68.267464217047632 $225 $342 forward 7 unknown #
coedge $-1 $343 $134 $339 $344 reversed $216 $-1 #
coedge $-1 $134 $343 $330 $345 forward $216 $-1 #
vertex $-1 $135 $346 #
vertex $-1 $226 $347 #
straight-curve $-1 68.267464217047632 14.788916106789024 10.617540677865296 0 1 0 I I #
face $-1 $-1 $348 $30 $-1 $349 reversed single #
loop $-1 $-1 $350 $136 #
plane-surface $-1 0 -17.845587810571715 15.142149519023437 0 -1 0 0 0 -1 forward_v I I I I #
coedge $-1 $351 $139 $141 $241 forward $85 $-1 #
coedge $-1 $139 $351 $350 $352 forward $85 $-1 #
coedge $-1 $353 $142 $139 $238 forward $137 $-1 #
edge $-1 $244 1.1626142065790592 $354 11.509520471521451 $237 $355 forward 7 unknown #
coedge $-1 $356 $357 $140 $240 forward $348 $-1 #
edge $-1 $358 -92.094507105034481 $243 -76.379408820546502 $239 $359 forward 7 unknown #
edge $-1 $244 118.00402410347714 $358 136.53492843409521 $141 $360 forward 7 unknown #
coedge $-1 $142 $353 $356 $361 forward $137 $-1 #
vertex $-1 $240 $362 #
vertex $-1 $143 $363 #
straight-curve $-1 55.851582165018925 -7.4986815456293154 19.666758360181575 -1 0 0 I I #
coedge $-1 $246 $246 $-1 $364 reversed $146 $-1 #
edge $-1 $365 0 $365 6.2831853071796004 $147 $366 forward 7 unknown #
vertex $-1 $150 $367 #
ellipse-curve $-1 63.357522740324058 -15.776206557583233 11.809209217937571 0.84804810408105047 0 0.52991925155115449 0.52991925155115449 0 -0.84804810408105047 1 I I #
coedge $-1 $250 $250 $-1 $368 reversed $153 $-1 #
edge $-1 $369 0 $369 6.2831853071796004 $154 $370 forward 7 unknown #
vertex $-1 $157 $371 #
ellipse-curve $-1 63.357522740324058 -12.672134678100516 11.809209217937571 0.84804810408105047 0 0.52991925155115449 0.52991925155115449 0 -0.84804810408105047 1 I I #
coedge $-1 $254 $254 $-1 $372 reversed $160 $-1 #
edge $-1 $373 0 $373 6.2831853071796004 $161 $374 forward 7 unknown #
vertex $-1 $164 $375 #
ellipse-curve $-1 63.357522740324058 -9.5680627986177988 11.809209217937571 0.84804810408105047 0 0.52991925155115449 0.52991925155115449 0 -0.84804810408105047 1 I I #
face $-1 $-1 $270 $34 $-1 $376 forward single #
loop $-1 $-1 $377 $165 #
plane-surface $-1 -68.267464217047632 0 0 1 0 0 0 0 -1 forward_v I I I I #
coedge $-1 $378 $379 $380 $381 reversed $166 $-1 #
coedge $-1 $382 $168 $170 $268 forward $104 $-1 #
coedge $-1 $168 $382 $378 $383 forward $104 $-1 #
coedge $-1 $380 $171 $168 $265 forward $270 $-1 #
edge $-1 $272 2.1574843797345729 $384 8.5218096585994623 $264 $385 forward 7 unknown #
coedge $-1 $386 $387 $169 $267 forward $259 $-1 #
edge $-1 $388 -51.545154545528881 $271 -45.821362589635029 $266 $389 forward 7 unknown #
edge $-1 $272 -11.113337360065003 $388 1.6755537013839907e-014 $170 $390 forward 7 unknown #
coedge $-1 $171 $380 $386 $391 forward $270 $-1 #
loop $-1 $-1 $380 $258 #
vertex $-1 $267 $392 #
vertex $-1 $172 $393 #
straight-curve $-1 -69.294075925578852 7.4971313989015904 19.666758360181575 1 0 0 I I #
coedge $-1 $274 $274 $-1 $394 reversed $175 $-1 #
edge $-1 $395 0 $395 6.2831853071796004 $176 $396 forward 7 unknown #
vertex $-1 $179 $397 #
ellipse-curve $-1 -63.504469546562973 10.679294038334042 16.804862382234639 -0.51503808176128008 0 0.85716729658548041 0.4285836482927402 0 0.25751904088064004 1 I I #
face $-1 $-1 $195 $27 $-1 $398 reversed single #
loop $-1 $-1 $294 $180 #
plane-surface $-1 0 41.310076616584382 0 0 -1 0 0 0 -1 forward_v I I I I #
coedge $-1 $399 $292 $295 $400 forward $181 $-1 #
coedge $-1 $298 $183 $184 $286 reversed $113 $-1 #
coedge $-1 $292 $399 $183 $284 reversed $181 $-1 #
edge $-1 $299 -19.666758360181579 $401 19.666758360181579 $283 $402 forward 7 unknown #
coedge $-1 $185 $184 $399 $403 forward $73 $-1 #
edge $-1 $290 -68.267464217047632 $401 68.267464217047632 $282 $404 forward 7 unknown #
coedge $-1 $295 $294 $185 $288 reversed $279 $-1 #
edge $-1 $405 -68.267464217047632 $289 68.267464217047632 $287 $406 forward 7 unknown #
vertex $-1 $187 $407 #
vertex $-1 $301 $408 #
straight-curve $-1 68.267464217047632 0 -19.666758360181579 0 -1 0 I I #
coedge $-1 $281 $283 $188 $293 reversed $181 $-1 #
edge $-1 $296 -41.310076616584382 $299 41.310076616584382 $292 $409 forward 7 unknown #
coedge $-1 $287 $189 $194 $302 forward $279 $-1 #
coedge $-1 $189 $287 $281 $400 reversed $279 $-1 #
vertex $-1 $190 $410 #
straight-curve $-1 0 41.310076616584382 19.666758360181579 -1 0 0 I I #
coedge $-1 $191 $282 $193 $301 reversed $113 $-1 #
vertex $-1 $293 $411 #
straight-curve $-1 0 -41.310076616584382 19.666758360181579 1 0 0 I I #
edge $-1 $196 -19.666758360181579 $290 19.666758360181579 $193 $412 forward 7 unknown #
edge $-1 $197 -19.666758360181579 $289 19.666758360181579 $194 $413 forward 7 unknown #
point $-1 68.267464217047632 -41.310076616584382 19.666758360181579 #
point $-1 68.267464217047632 41.310076616584382 19.666758360181579 #
face $-1 $-1 $211 $28 $-1 $414 reversed single #
loop $-1 $-1 $415 $199 #
plane-surface $-1 0 0 19.666758360181579 0 0 1 1 0 0 forward_v I I I I #
coedge $-1 $416 $202 $206 $315 forward $121 $-1 #
coedge $-1 $202 $416 $417 $418 reversed $121 $-1 #
edge $-1 $419 -12.09568360066986 $313 -3.0464659183535776 $202 $420 forward 7 unknown #
coedge $-1 $204 $203 $415 $421 reversed $77 $-1 #
edge $-1 $213 3.0464659183535776 $422 12.09568360066986 $209 $423 forward 7 unknown #
vertex $-1 $315 $424 #
straight-curve $-1 0 -17.845587810571715 10.617540677865296 1 0 0 I I #
edge $-1 $313 3.0566717037826905 $318 26.521160509795358 $308 $425 forward 7 unknown #
coedge $-1 $426 $207 $210 $321 reversed $200 $-1 #
coedge $-1 $207 $426 $416 $427 forward $200 $-1 #
vertex $-1 $208 $428 #
straight-curve $-1 0 -41.310076616584382 10.617540677865296 1 0 0 I I #
coedge $-1 $210 $209 $429 $430 reversed $211 $-1 #
edge $-1 $431 -19.666758360181579 $212 -10.617540677865296 $210 $432 forward 7 unknown #
point $-1 68.267464217047632 -41.310076616584382 10.617540677865296 #
point $-1 68.267464217047632 -17.845587810571715 10.617540677865296 #
face $-1 $-1 $340 $29 $-1 $433 reversed single #
loop $-1 $-1 $221 $215 #
plane-surface $-1 -68.267464217047632 0 0 1 0 0 0 0 -1 forward_v I I I I #
coedge $-1 $434 $218 $343 $435 forward $129 $-1 #
coedge $-1 $218 $434 $331 $436 forward $129 $-1 #
edge $-1 $334 -68.267464217047632 $437 68.267464217047632 $218 $438 forward 7 unknown #
coedge $-1 $220 $219 $228 $345 reversed $81 $-1 #
coedge $-1 $439 $221 $328 $436 reversed $325 $-1 #
coedge $-1 $221 $439 $223 $336 forward $325 $-1 #
vertex $-1 $336 $440 #
vertex $-1 $222 $441 #
straight-curve $-1 -68.267464217047632 17.845587810571715 7.5710747595117187 0 0 1 I I #
edge $-1 $341 -26.521160509795358 $333 -3.0566717037826905 $332 $442 forward 7 unknown #
straight-curve $-1 0 17.845587810571715 10.617540677865296 -1 0 0 I I #
coedge $-1 $443 $225 $439 $444 reversed $340 $-1 #
coedge $-1 $225 $443 $227 $344 forward $340 $-1 #
loop $-1 $-1 $225 $324 #
vertex $-1 $226 $445 #
straight-curve $-1 0 41.310076616584382 10.617540677865296 -1 0 0 I I #
coedge $-1 $228 $227 $327 $435 reversed $216 $-1 #
edge $-1 $446 -19.666758360181579 $230 -10.617540677865296 $227 $447 forward 7 unknown #
edge $-1 $437 -12.09568360066986 $229 -3.0464659183535776 $228 $448 forward 7 unknown #
point $-1 68.267464217047632 17.845587810571715 10.617540677865296 #
point $-1 68.267464217047632 41.310076616584382 10.617540677865296 #
loop $-1 $-1 $239 $232 #
plane-surface $-1 68.267464217047632 0 0 -1 0 0 0 0 1 forward_v I I I I #
coedge $-1 $449 $450 $236 $352 reversed $233 $-1 #
coedge $-1 $236 $235 $357 $451 reversed $85 $-1 #
edge $-1 $452 -136.53492843409521 $354 -118.00402410347714 $350 $453 forward 7 unknown #
coedge $-1 $242 $237 $450 $454 forward $137 $-1 #
vertex $-1 $454 $455 #
straight-curve $-1 58.447581263600455 -6.3360673390502562 19.666758360181582 0 -1 0 I I #
coedge $-1 $456 $239 $242 $361 reversed $348 $-1 #
coedge $-1 $239 $456 $351 $451 forward $348 $-1 #
vertex $-1 $240 $457 #
straight-curve $-1 68.267464217047632 -7.4986815456293154 96.046167180728077 0 0 1 I I #
straight-curve $-1 -4.0850228693385446 -7.4986815456293154 119.73984727506995 0.52991925155115449 0 -0.84804810408105047 I I #
edge $-1 $458 -17.845587810571715 $243 -7.4986815456293154 $356 $459 forward 7 unknown #
point $-1 68.267464217047632 -7.4986815456293154 19.666758360181579 #
point $-1 58.447581263600462 -7.4986815456293154 19.666758360181575 #
edge $-1 $460 1 $460 0 $246 $-1 forward 7 unknown #
vertex $-1 $247 $461 #
ellipse-curve $-1 61.994775925776366 -15.776206557583233 10.957670527450956 0.84804810408105047 0 0.52991925155115449 0.52991925155115449 0 -0.84804810408105047 1 I I #
point $-1 63.8874419918752 -15.776206557583233 10.961161113856509 #
edge $-1 $462 1 $462 0 $250 $-1 forward 7 unknown #
vertex $-1 $251 $463 #
ellipse-curve $-1 61.994775925776366 -12.672134678100516 10.957670527450956 0.84804810408105047 0 0.52991925155115449 0.52991925155115449 0 -0.84804810408105047 1 I I #
point $-1 63.8874419918752 -12.672134678100516 10.961161113856509 #
edge $-1 $464 1 $464 0 $254 $-1 forward 7 unknown #
vertex $-1 $255 $465 #
ellipse-curve $-1 61.994775925776366 -9.5680627986177988 10.957670527450956 0.84804810408105047 0 0.52991925155115449 0.52991925155115449 0 -0.84804810408105047 1 I I #
point $-1 63.8874419918752 -9.5680627986177988 10.961161113856509 #
plane-surface $-1 0 0 19.666758360181579 0 0 1 1 0 0 forward_v I I I I #
coedge $-1 $387 $386 $379 $466 forward $259 $-1 #
coedge $-1 $379 $261 $263 $383 reversed $166 $-1 #
coedge $-1 $261 $378 $377 $466 reversed $166 $-1 #
coedge $-1 $269 $264 $261 $381 forward $270 $-1 #
edge $-1 $384 -10.552601049500574 $467 -1.0266117085312203 $380 $468 forward 7 unknown #
coedge $-1 $263 $262 $387 $469 reversed $104 $-1 #
edge $-1 $470 -1.6755537013839907e-014 $384 11.113337360065003 $378 $471 forward 7 unknown #
vertex $-1 $265 $472 #
straight-curve $-1 -58.741474876078271 5.3396470191670176 19.666758360181579 0 1 0 I I #
coedge $-1 $377 $266 $269 $391 reversed $259 $-1 #
coedge $-1 $266 $377 $382 $469 forward $259 $-1 #
vertex $-1 $267 $473 #
straight-curve $-1 -68.267464217047632 7.4971313989015904 65.488120949816604 0 0 1 I I #
straight-curve $-1 -68.267464217047618 7.4971313989015904 13.942966404287731 -0.85716729658548041 0 -0.51503808176128008 I I #
edge $-1 $467 -13.86145667776648 $271 -7.4971313989015904 $386 $474 forward 7 unknown #
point $-1 -68.267464217047632 7.4971313989015904 19.666758360181579 #
point $-1 -58.741474876078279 7.4971313989015904 19.666758360181579 #
edge $-1 $475 1 $475 0 $274 $-1 forward 7 unknown #
vertex $-1 $275 $476 #
ellipse-curve $-1 -62.558587892301411 10.679294038334042 15.230650980816394 -0.51503808176128008 0 0.85716729658548041 0.4285836482927402 0 0.25751904088064004 1 I I #
point $-1 -63.075885898270258 10.679294038334042 17.062381423115312 #
plane-surface $-1 68.267464217047632 0 0 -1 0 0 0 0 1 forward_v I I I I #
coedge $-1 $283 $281 $285 $403 reversed $181 $-1 #
edge $-1 $296 -19.666758360181579 $405 19.666758360181579 $295 $477 forward 7 unknown #
vertex $-1 $403 $478 #
straight-curve $-1 -68.267464217047632 -41.310076616584382 0 0 0 -1 I I #
edge $-1 $401 -41.310076616584382 $405 41.310076616584382 $399 $479 forward 7 unknown #
straight-curve $-1 0 -41.310076616584382 -19.666758360181579 -1 0 0 I I #
vertex $-1 $288 $480 #
straight-curve $-1 0 41.310076616584382 -19.666758360181579 1 0 0 I I #
point $-1 68.267464217047632 41.310076616584382 -19.666758360181579 #
point $-1 68.267464217047632 -41.310076616584382 -19.666758360181579 #
straight-curve $-1 -68.267464217047632 0 19.666758360181579 0 -1 0 I I #
point $-1 -68.267464217047632 41.310076616584382 19.666758360181579 #
point $-1 -68.267464217047632 -41.310076616584382 19.666758360181579 #
straight-curve $-1 68.267464217047632 -41.310076616584382 0 0 0 -1 I I #
straight-curve $-1 68.267464217047632 41.310076616584382 0 0 0 -1 I I #
plane-surface $-1 68.267464217047632 0 0 -1 0 0 0 0 1 forward_v I I I I #
coedge $-1 $417 $429 $311 $421 forward $306 $-1 #
coedge $-1 $309 $308 $317 $427 reversed $121 $-1 #
coedge $-1 $481 $415 $309 $418 forward $306 $-1 #
edge $-1 $419 17.845587810571715 $482 41.310076616584382 $309 $483 forward 7 unknown #
vertex $-1 $418 $484 #
straight-curve $-1 -68.267464217047632 -17.845587810571715 7.5710747595117187 0 0 -1 I I #
edge $-1 $422 -68.267464217047632 $419 68.267464217047632 $415 $485 forward 7 unknown #
vertex $-1 $312 $486 #
straight-curve $-1 68.267464217047632 -17.845587810571715 7.5710747595117187 0 0 1 I I #
point $-1 -68.267464217047632 -17.845587810571715 10.617540677865296 #
straight-curve $-1 -68.267464217047632 -14.788916106789024 10.617540677865296 0 -1 0 I I #
coedge $-1 $317 $316 $481 $487 reversed $200 $-1 #
edge $-1 $482 -19.666758360181579 $318 -10.617540677865296 $416 $488 forward 7 unknown #
point $-1 -68.267464217047632 -41.310076616584382 10.617540677865296 #
coedge $-1 $415 $481 $320 $430 forward $306 $-1 #
edge $-1 $431 -41.310076616584382 $422 -17.845587810571715 $320 $489 forward 7 unknown #
vertex $-1 $430 $490 #
straight-curve $-1 68.267464217047632 -41.310076616584382 0 0 0 -1 I I #
plane-surface $-1 0 41.310076616584382 0 0 -1 0 0 0 -1 forward_v I I I I #
coedge $-1 $328 $327 $443 $491 forward $129 $-1 #
edge $-1 $437 17.845587810571715 $446 41.310076616584382 $343 $492 forward 7 unknown #
edge $-1 $493 -41.310076616584382 $334 -17.845587810571715 $331 $494 forward 7 unknown #
vertex $-1 $435 $495 #
straight-curve $-1 0 17.845587810571715 19.666758360181579 1 0 0 I I #
coedge $-1 $332 $331 $338 $444 forward $325 $-1 #
point $-1 -68.267464217047632 17.845587810571715 10.617540677865296 #
point $-1 -68.267464217047632 17.845587810571715 19.666758360181579 #
straight-curve $-1 -68.267464217047632 14.788916106789024 10.617540677865296 0 -1 0 I I #
coedge $-1 $339 $338 $434 $491 reversed $340 $-1 #
edge $-1 $493 -19.666758360181579 $341 -10.617540677865296 $338 $496 forward 7 unknown #
point $-1 -68.267464217047632 41.310076616584382 10.617540677865296 #
vertex $-1 $435 $497 #
straight-curve $-1 68.267464217047632 41.310076616584382 0 0 0 -1 I I #
straight-curve $-1 68.267464217047632 17.845587810571715 7.5710747595117187 0 0 -1 I I #
coedge $-1 $450 $350 $456 $498 reversed $233 $-1 #
coedge $-1 $350 $449 $353 $454 reversed $233 $-1 #
edge $-1 $452 -11.509520471521451 $358 -1.1626142065790592 $357 $499 forward 7 unknown #
vertex $-1 $498 $500 #
straight-curve $-1 -4.0850228693385446 -17.845587810571708 119.73984727506995 -0.52991925155115449 0 0.84804810408105047 I I #
edge $-1 $354 58.447581263600462 $458 68.267464217047632 $353 $501 forward 7 unknown #
point $-1 58.447581263600462 -17.845587810571708 19.666758360181575 #
coedge $-1 $357 $356 $449 $498 forward $348 $-1 #
point $-1 68.267464217047632 -7.4986815456293154 3.9516600756935958 #
vertex $-1 $361 $502 #
straight-curve $-1 68.267464217047632 0 19.666758360181579 0 1 0 I I #
vertex $-1 $364 $503 #
point $-1 62.524695177327523 -15.776206557583233 10.109622423369906 #
vertex $-1 $368 $504 #
point $-1 62.524695177327523 -12.672134678100516 10.109622423369906 #
vertex $-1 $372 $505 #
point $-1 62.524695177327523 -9.5680627986177988 10.109622423369906 #
edge $-1 $467 45.821362589635029 $470 51.545154545528881 $377 $506 forward 7 unknown #
vertex $-1 $391 $507 #
straight-curve $-1 -69.294075925578852 13.86145667776648 19.666758360181575 -1 0 0 I I #
edge $-1 $470 -8.5218096585994623 $388 -2.1574843797345729 $387 $508 forward 7 unknown #
vertex $-1 $469 $509 #
straight-curve $-1 -68.267464217047618 13.86145667776648 13.942966404287731 0.85716729658548041 0 0.51503808176128008 I I #
point $-1 -58.741474876078279 13.86145667776648 19.666758360181579 #
point $-1 -68.267464217047632 7.4971313989015904 13.942966404287722 #
straight-curve $-1 -68.267464217047632 0 19.666758360181579 0 -1 0 I I #
vertex $-1 $394 $510 #
point $-1 -62.130004244008674 10.679294038334042 15.488170021697034 #
straight-curve $-1 -68.267464217047632 41.310076616584382 0 0 0 -1 I I #
point $-1 -68.267464217047632 -41.310076616584382 -19.666758360181579 #
straight-curve $-1 -68.267464217047632 0 -19.666758360181579 0 1 0 I I #
point $-1 -68.267464217047632 41.310076616584382 -19.666758360181579 #
coedge $-1 $429 $417 $426 $487 forward $306 $-1 #
vertex $-1 $418 $511 #
straight-curve $-1 -68.267464217047632 0 19.666758360181579 0 -1 0 I I #
point $-1 -68.267464217047632 -17.845587810571715 19.666758360181579 #
straight-curve $-1 0 -17.845587810571715 19.666758360181579 -1 0 0 I I #
point $-1 68.267464217047632 -17.845587810571715 19.666758360181579 #
edge $-1 $482 -68.267464217047632 $431 68.267464217047632 $426 $512 forward 7 unknown #
straight-curve $-1 -68.267464217047632 -41.310076616584382 0 0 0 -1 I I #
straight-curve $-1 68.267464217047632 0 19.666758360181579 0 1 0 I I #
point $-1 68.267464217047632 -41.310076616584382 19.666758360181579 #
edge $-1 $446 -68.267464217047632 $493 68.267464217047632 $443 $513 forward 7 unknown #
straight-curve $-1 68.267464217047632 0 19.666758360181579 0 1 0 I I #
vertex $-1 $491 $514 #
straight-curve $-1 -68.267464217047632 0 19.666758360181579 0 -1 0 I I #
point $-1 68.267464217047632 17.845587810571715 19.666758360181579 #
straight-curve $-1 -68.267464217047632 41.310076616584382 0 0 0 -1 I I #
point $-1 68.267464217047632 41.310076616584382 19.666758360181579 #
edge $-1 $458 76.379408820546502 $452 92.094507105034481 $456 $515 forward 7 unknown #
straight-curve $-1 68.267464217047632 -6.3360673390502562 3.9516600756936029 0 1 0 I I #
point $-1 68.267464217047632 -17.845587810571708 3.9516600756935958 #
straight-curve $-1 0 -17.845587810571715 19.666758360181579 1 0 0 I I #
point $-1 68.267464217047632 -17.845587810571715 19.666758360181579 #
point $-1 61.146727821695322 -15.776206557583233 10.427751275899803 #
point $-1 61.146727821695322 -12.672134678100516 10.427751275899803 #
point $-1 61.146727821695322 -9.5680627986177988 10.427751275899803 #
straight-curve $-1 -68.267464217047632 13.86145667776648 65.488120949816604 0 0 -1 I I #
point $-1 -68.267464217047632 13.86145667776648 19.666758360181579 #
straight-curve $-1 -68.267464217047632 5.3396470191670176 13.942966404287725 0 -1 0 I I #
point $-1 -68.267464217047632 13.86145667776648 13.942966404287722 #
point $-1 -62.301068851420773 10.679294038334042 14.802067332523654 #
point $-1 -68.267464217047632 -41.310076616584382 19.666758360181579 #
straight-curve $-1 0 -41.310076616584382 19.666758360181579 1 0 0 I I #
straight-curve $-1 0 41.310076616584382 19.666758360181579 -1 0 0 I I #
point $-1 -68.267464217047632 41.310076616584382 19.666758360181579 #
straight-curve $-1 68.267464217047632 -17.845587810571708 96.046167180728077 0 0 -1 I I #
End-of-ACIS-data 