500 0 6 0           
7 Unknown 11 ACIS 5.0 NT 24 Fri Mar 26 20:43:51 1999 
-1 9.9999999999999995e-007 1e-010 
body $-1 $6 $-1 $7 #
body $-1 $8 $-1 $9 #
body $-1 $10 $-1 $11 #
body $-1 $12 $-1 $13 #
body $-1 $14 $-1 $15 #
body $-1 $16 $-1 $17 #
lump $-1 $-1 $18 $0 #
transform $-1 1 0 0 0 1 0 0 0 1 69.480880153813288 44.517636350633801 13.674292980910494 1 rotate no_reflect no_shear #
lump $-1 $-1 $19 $1 #
transform $-1 1 0 0 0 1 0 0 0 1 69.480880153813288 44.517636350633801 13.674292980910494 1 rotate no_reflect no_shear #
lump $-1 $-1 $20 $2 #
transform $-1 1 0 0 0 1 0 0 0 1 69.480880153813288 44.517636350633801 13.674292980910494 1 rotate no_reflect no_shear #
lump $-1 $-1 $21 $3 #
transform $-1 1 0 0 0 1 0 0 0 1 69.480880153813288 44.517636350633801 13.674292980910494 1 rotate no_reflect no_shear #
lump $-1 $-1 $22 $4 #
transform $-1 1 0 0 0 1 0 0 0 1 69.480880153813288 44.517636350633801 13.674292980910494 1 rotate no_reflect no_shear #
lump $-1 $-1 $23 $5 #
transform $-1 1 0 0 0 1 0 0 0 1 69.480880153813288 44.517636350633801 13.674292980910494 1 rotate no_reflect no_shear #
shell $-1 $-1 $-1 $24 $-1 $6 #
shell $-1 $-1 $-1 $25 $-1 $8 #
shell $-1 $-1 $-1 $26 $-1 $10 #
shell $-1 $-1 $-1 $27 $-1 $12 #
shell $-1 $-1 $-1 $28 $-1 $14 #
shell $-1 $-1 $-1 $29 $-1 $16 #
face $-1 $30 $31 $18 $-1 $32 forward single #
face $-1 $33 $34 $19 $-1 $35 reversed single #
face $-1 $36 $37 $20 $-1 $38 reversed single #
face $-1 $39 $40 $21 $-1 $41 forward single #
face $-1 $42 $43 $22 $-1 $44 reversed single #
face $-1 $45 $46 $23 $-1 $47 forward single #
face $-1 $48 $49 $18 $-1 $50 reversed single #
loop $-1 $-1 $51 $24 #
plane-surface $-1 0 0 13.674292980910494 0 0 1 1 0 0 forward_v I I I I #
face $-1 $52 $53 $19 $-1 $54 reversed single #
loop $-1 $-1 $55 $25 #
plane-surface $-1 -62.926321251236807 0 10.609919270811133 0 0 1 1 0 0 forward_v I I I I #
face $-1 $56 $57 $20 $-1 $58 reversed single #
loop $-1 $-1 $59 $26 #
plane-surface $-1 -30.054744581922478 -113.99851743531528 130.92912205882311 -1 0 0 0 -0.50000000669873634 0.8660253999169214 forward_v I I I I #
face $-1 $60 $61 $21 $-1 $62 forward single #
loop $-1 $63 $64 $27 #
cone-surface $-1 -43.213253465291402 -41.408683157300786 11.379012987984195 0 0.50000000669873634 -0.8660253999169214 1 0 0 1 I I 0 1 1 forward I I I I #
face $-1 $65 $66 $22 $-1 $67 reversed single #
loop $-1 $-1 $68 $28 #
plane-surface $-1 -43.213253465291402 -32.589171297193623 55.102344962309104 0 0.50000000669873634 0.8660253999169214 1 0 0 forward_v I I I I #
face $-1 $69 $70 $23 $-1 $71 forward single #
loop $-1 $72 $73 $29 #
cone-surface $-1 -43.213253465291402 41.408683157300779 11.379012987984199 0 -0.50000000669873634 -0.8660253999169214 1 0 0 1 I I 0 1 1 forward I I I I #
face $-1 $74 $75 $18 $-1 $76 reversed single #
loop $-1 $-1 $77 $30 #
plane-surface $-1 0 0 -13.674292980910494 0 0 1 1 0 0 forward_v I I I I #
coedge $-1 $78 $79 $80 $81 forward $31 $-1 #
face $-1 $82 $83 $19 $-1 $84 reversed single #
loop $-1 $-1 $85 $33 #
plane-surface $-1 -56.371762348660326 0 12.142106125860813 -1 0 0 0 0 1 forward_v I I I I #
coedge $-1 $86 $87 $88 $89 forward $34 $-1 #
face $-1 $90 $91 $20 $-1 $92 forward single #
loop $-1 $-1 $93 $36 #
plane-surface $-1 -43.213253465291402 -44.517636350633794 10.584708015251437 0 -0.50000000669873634 0.8660253999169214 1 0 0 forward_v I I I I #
coedge $-1 $94 $95 $96 $97 reversed $37 $-1 #
face $-1 $-1 $98 $21 $-1 $99 forward single #
loop $-1 $100 $101 $39 #
cone-surface $-1 -43.213253465291402 -40.725388980233532 10.195512777928961 0 0.50000000669873634 -0.8660253999169214 0.5 0 0 1 I I -0.70710678118654746 0.70710678118654746 0.5 forward I I I I #
loop $-1 $-1 $102 $27 #
coedge $-1 $64 $64 $103 $104 reversed $40 $-1 #
face $-1 $105 $106 $22 $-1 $107 forward single #
loop $-1 $-1 $108 $42 #
plane-surface $-1 -30.054744581922478 36.891709787487862 175.44675900588078 -1 0 0 0 0.50000000669873634 0.8660253999169214 forward_v I I I I #
coedge $-1 $109 $110 $111 $112 reversed $43 $-1 #
face $-1 $-1 $113 $23 $-1 $114 forward single #
loop $-1 $115 $116 $45 #
cone-surface $-1 -43.213253465291402 40.725388980233525 10.195512777928965 0 -0.50000000669873634 -0.8660253999169214 0.5 0 0 1 I I -0.70710678118654746 0.70710678118654746 0.5 forward I I I I #
loop $-1 $-1 $117 $29 #
coedge $-1 $73 $73 $118 $119 reversed $46 $-1 #
face $-1 $120 $121 $18 $-1 $122 reversed single #
loop $-1 $-1 $123 $48 #
plane-surface $-1 0 -44.517636350633801 0 0 1 0 0 0 1 forward_v I I I I #
coedge $-1 $124 $125 $126 $127 forward $49 $-1 #
coedge $-1 $128 $51 $129 $130 forward $31 $-1 #
coedge $-1 $51 $128 $131 $132 forward $31 $-1 #
coedge $-1 $133 $134 $51 $81 reversed $135 $-1 #
edge $-1 $136 -44.517636350633801 $137 44.517636350633801 $80 $138 forward 7 unknown #
face $-1 $139 $140 $19 $-1 $141 reversed single #
loop $-1 $-1 $142 $52 #
plane-surface $-1 0 44.517636350633801 0 0 -1 0 0 0 -1 forward_v I I I I #
coedge $-1 $143 $144 $145 $146 reversed $53 $-1 #
coedge $-1 $147 $55 $148 $149 reversed $34 $-1 #
coedge $-1 $55 $147 $150 $151 reversed $34 $-1 #
coedge $-1 $144 $143 $55 $89 reversed $53 $-1 #
edge $-1 $152 -44.517636350633801 $153 44.517636350633801 $88 $154 forward 7 unknown #
face $-1 $155 $156 $20 $-1 $157 forward single #
loop $-1 $-1 $158 $56 #
plane-surface $-1 -56.371762348660326 0 12.142106125860813 -1 0 0 0 0 1 forward_v I I I I #
coedge $-1 $159 $160 $161 $162 reversed $57 $-1 #
coedge $-1 $95 $59 $163 $164 reversed $37 $-1 #
coedge $-1 $59 $94 $159 $165 reversed $37 $-1 #
coedge $-1 $161 $166 $59 $97 forward $156 $-1 #
edge $-1 $167 12.481622367023839 $168 17.832940406254096 $96 $169 forward 7 unknown #
loop $-1 $-1 $103 $60 #
plane-surface $-1 -43.213253465291402 -44.517636350633794 10.584708015251437 0 -0.50000000669873634 0.8660253999169214 1 0 0 forward_v I I I I #
loop $-1 $-1 $170 $39 #
coedge $-1 $101 $101 $102 $171 reversed $61 $-1 #
coedge $-1 $102 $102 $101 $171 forward $63 $-1 #
coedge $-1 $103 $103 $64 $104 forward $98 $-1 #
edge $-1 $172 -5.2653021373475698e-015 $172 6.2831853071795951 $103 $173 forward 7 unknown #
face $-1 $174 $175 $22 $-1 $176 reversed single #
loop $-1 $-1 $111 $65 #
plane-surface $-1 0 0 13.674292980910494 0 0 1 1 0 0 forward_v I I I I #
coedge $-1 $177 $178 $179 $180 reversed $66 $-1 #
coedge $-1 $181 $68 $182 $183 reversed $43 $-1 #
coedge $-1 $68 $181 $177 $184 forward $43 $-1 #
coedge $-1 $179 $185 $68 $112 forward $106 $-1 #
edge $-1 $186 -34.765135616014625 $187 -8.4481178492767768 $111 $188 forward 7 unknown #
loop $-1 $-1 $118 $69 #
plane-surface $-1 -43.213253465291402 -32.589171297193623 55.102344962309104 0 0.50000000669873634 0.8660253999169214 1 0 0 forward_v I I I I #
loop $-1 $-1 $189 $45 #
coedge $-1 $116 $116 $117 $190 reversed $70 $-1 #
coedge $-1 $117 $117 $116 $190 forward $72 $-1 #
coedge $-1 $118 $118 $73 $119 forward $113 $-1 #
edge $-1 $191 1.9676622199467145e-015 $191 6.2831853071796022 $118 $192 forward 7 unknown #
face $-1 $193 $194 $18 $-1 $195 reversed single #
loop $-1 $-1 $196 $74 #
plane-surface $-1 -69.480880153813288 0 0 1 0 0 0 0 -1 forward_v I I I I #
coedge $-1 $197 $131 $198 $199 forward $75 $-1 #
coedge $-1 $200 $77 $197 $201 forward $49 $-1 #
coedge $-1 $77 $200 $202 $203 forward $49 $-1 #
coedge $-1 $134 $133 $77 $127 reversed $135 $-1 #
edge $-1 $204 -44.517636350633801 $205 44.517636350633801 $126 $206 forward 7 unknown #
coedge $-1 $79 $78 $207 $208 forward $31 $-1 #
coedge $-1 $209 $210 $78 $130 reversed $194 $-1 #
edge $-1 $137 -69.480880153813288 $211 69.480880153813288 $129 $212 forward 7 unknown #
coedge $-1 $123 $213 $79 $132 reversed $75 $-1 #
edge $-1 $214 -69.480880153813288 $136 69.480880153813288 $131 $215 forward 7 unknown #
coedge $-1 $126 $80 $213 $216 forward $135 $-1 #
coedge $-1 $80 $126 $209 $217 reversed $135 $-1 #
loop $-1 $-1 $133 $193 #
vertex $-1 $81 $218 #
vertex $-1 $81 $219 #
straight-curve $-1 69.480880153813288 0 13.674292980910494 0 1 0 I I #
face $-1 $220 $221 $19 $-1 $222 forward single #
loop $-1 $-1 $223 $82 #
plane-surface $-1 -69.480880153813288 0 0 1 0 0 0 0 -1 forward_v I I I I #
coedge $-1 $150 $224 $144 $225 forward $83 $-1 #
coedge $-1 $88 $85 $226 $227 reversed $53 $-1 #
coedge $-1 $85 $88 $142 $225 reversed $53 $-1 #
coedge $-1 $228 $229 $85 $146 forward $221 $-1 #
edge $-1 $230 -44.517636350633801 $231 44.517636350633801 $145 $232 forward 7 unknown #
coedge $-1 $87 $86 $223 $233 reversed $34 $-1 #
coedge $-1 $226 $234 $86 $149 forward $235 $-1 #
edge $-1 $236 -38.017719528194888 $153 -24.908601723041922 $148 $237 forward 7 unknown #
coedge $-1 $238 $142 $87 $151 forward $83 $-1 #
edge $-1 $152 24.908601723041922 $239 38.017719528194888 $150 $240 forward 7 unknown #
vertex $-1 $151 $241 #
vertex $-1 $149 $242 #
straight-curve $-1 -56.371762348660326 0 10.609919270811133 0 -1 0 I I #
face $-1 $-1 $243 $20 $-1 $244 reversed single #
loop $-1 $-1 $161 $90 #
plane-surface $-1 0 0 13.674292980910494 0 0 1 1 0 0 forward_v I I I I #
coedge $-1 $245 $246 $160 $247 reversed $91 $-1 #
coedge $-1 $248 $93 $95 $165 forward $57 $-1 #
coedge $-1 $93 $248 $158 $247 forward $57 $-1 #
coedge $-1 $249 $96 $93 $162 forward $156 $-1 #
edge $-1 $168 8.4481178492767768 $250 34.765135616014625 $161 $251 forward 7 unknown #
coedge $-1 $252 $253 $94 $164 forward $243 $-1 #
edge $-1 $254 -54.879853014160119 $167 -51.790268048501062 $163 $255 forward 7 unknown #
edge $-1 $168 -6.1791698485328563 $254 7.929837432145984e-015 $95 $256 forward 7 unknown #
coedge $-1 $96 $249 $252 $257 forward $156 $-1 #
vertex $-1 $164 $258 #
vertex $-1 $97 $259 #
straight-curve $-1 -30.054744581922478 -56.999258717657639 13.674292980910494 0 1 0 I I #
coedge $-1 $170 $170 $-1 $260 reversed $100 $-1 #
edge $-1 $261 0 $261 6.2831853071796004 $101 $262 forward 7 unknown #
vertex $-1 $104 $263 #
ellipse-curve $-1 -43.213253465291402 -41.841977331018668 12.129500498080965 0 -0.50000000669873634 0.8660253999169214 1 0 0 1 I I #
face $-1 $-1 $264 $22 $-1 $265 forward single #
loop $-1 $-1 $266 $105 #
plane-surface $-1 0 44.517636350633801 0 0 -1 0 0 0 -1 forward_v I I I I #
coedge $-1 $178 $108 $110 $184 reversed $66 $-1 #
coedge $-1 $108 $177 $266 $267 reversed $66 $-1 #
coedge $-1 $268 $111 $108 $180 forward $106 $-1 #
edge $-1 $187 20.720463417659719 $269 26.07178145688987 $179 $270 forward 7 unknown #
coedge $-1 $110 $109 $271 $272 reversed $43 $-1 #
coedge $-1 $273 $274 $109 $183 forward $264 $-1 #
edge $-1 $275 -64.183687795459278 $186 -58.004517946926541 $182 $276 forward 7 unknown #
edge $-1 $277 -89.035272701267601 $187 -82.85610285273485 $177 $278 forward 7 unknown #
coedge $-1 $111 $268 $273 $279 forward $106 $-1 #
vertex $-1 $183 $280 #
vertex $-1 $112 $281 #
straight-curve $-1 -21.606626732645701 39.166318311403643 13.674292980910494 1 0 0 I I #
coedge $-1 $189 $189 $-1 $282 reversed $115 $-1 #
edge $-1 $283 0 $283 6.2831853071796004 $116 $284 forward 7 unknown #
vertex $-1 $119 $285 #
ellipse-curve $-1 -43.213253465291402 41.84197733101869 12.129500498081011 0 0.50000000669873634 0.8660253999169214 1 0 0 1 I I #
face $-1 $-1 $135 $18 $-1 $286 reversed single #
loop $-1 $-1 $209 $120 #
plane-surface $-1 0 44.517636350633801 0 0 -1 0 0 0 -1 forward_v I I I I #
coedge $-1 $287 $207 $210 $288 forward $121 $-1 #
coedge $-1 $213 $123 $124 $201 reversed $75 $-1 #
coedge $-1 $207 $287 $123 $199 reversed $121 $-1 #
edge $-1 $214 -13.674292980910494 $289 13.674292980910494 $198 $290 forward 7 unknown #
coedge $-1 $125 $124 $287 $291 forward $49 $-1 #
edge $-1 $205 -69.480880153813288 $289 69.480880153813288 $197 $292 forward 7 unknown #
coedge $-1 $210 $209 $125 $203 reversed $194 $-1 #
edge $-1 $293 -69.480880153813288 $204 69.480880153813288 $202 $294 forward 7 unknown #
vertex $-1 $127 $295 #
vertex $-1 $216 $296 #
straight-curve $-1 69.480880153813288 0 -13.674292980910494 0 -1 0 I I #
coedge $-1 $196 $198 $128 $208 reversed $121 $-1 #
edge $-1 $211 -44.517636350633801 $214 44.517636350633801 $207 $297 forward 7 unknown #
coedge $-1 $202 $129 $134 $217 forward $194 $-1 #
coedge $-1 $129 $202 $196 $288 reversed $194 $-1 #
vertex $-1 $130 $298 #
straight-curve $-1 0 44.517636350633801 13.674292980910494 -1 0 0 I I #
coedge $-1 $131 $197 $133 $216 reversed $75 $-1 #
vertex $-1 $208 $299 #
straight-curve $-1 0 -44.517636350633801 13.674292980910494 1 0 0 I I #
edge $-1 $136 -13.674292980910494 $205 13.674292980910494 $133 $300 forward 7 unknown #
edge $-1 $137 -13.674292980910494 $204 13.674292980910494 $134 $301 forward 7 unknown #
point $-1 69.480880153813288 -44.517636350633801 13.674292980910494 #
point $-1 69.480880153813288 44.517636350633801 13.674292980910494 #
face $-1 $-1 $235 $19 $-1 $302 reversed single #
loop $-1 $-1 $145 $139 #
plane-surface $-1 0 0 13.674292980910494 0 0 1 1 0 0 forward_v I I I I #
coedge $-1 $303 $304 $147 $233 forward $140 $-1 #
coedge $-1 $142 $238 $228 $305 reversed $83 $-1 #
edge $-1 $231 -7.6032399179800869 $152 -4.5388662078807265 $142 $306 forward 7 unknown #
coedge $-1 $307 $148 $143 $227 forward $235 $-1 #
edge $-1 $153 4.5388662078807265 $230 7.6032399179800869 $226 $308 forward 7 unknown #
coedge $-1 $309 $145 $224 $305 forward $221 $-1 #
coedge $-1 $145 $309 $307 $310 forward $221 $-1 #
vertex $-1 $227 $311 #
vertex $-1 $305 $312 #
straight-curve $-1 -56.371762348660326 0 13.674292980910494 0 1 0 I I #
edge $-1 $239 -44.517636350633801 $236 44.517636350633801 $223 $313 forward 7 unknown #
coedge $-1 $148 $307 $303 $314 forward $235 $-1 #
loop $-1 $-1 $226 $220 #
vertex $-1 $233 $315 #
straight-curve $-1 -31.463160625618404 -44.517636350633801 10.609919270811133 1 0 0 I I #
coedge $-1 $224 $150 $304 $316 reversed $83 $-1 #
vertex $-1 $233 $317 #
straight-curve $-1 -31.463160625618404 44.517636350633801 10.609919270811133 -1 0 0 I I #
point $-1 -56.371762348660326 44.517636350633801 10.609919270811133 #
point $-1 -56.371762348660326 -44.517636350633801 10.609919270811133 #
loop $-1 $-1 $163 $155 #
plane-surface $-1 0 -44.517636350633801 0 0 1 0 0 0 1 forward_v I I I I #
coedge $-1 $246 $158 $318 $319 reversed $91 $-1 #
coedge $-1 $158 $245 $249 $320 reversed $91 $-1 #
edge $-1 $321 -7.929837432145984e-015 $250 6.1791698485328501 $158 $322 forward 7 unknown #
coedge $-1 $160 $159 $253 $323 reversed $57 $-1 #
coedge $-1 $166 $161 $246 $320 forward $156 $-1 #
vertex $-1 $320 $324 #
straight-curve $-1 -21.606626732645701 -39.16631831140355 13.674292980910494 -1 0 0 I I #
coedge $-1 $318 $163 $166 $257 reversed $243 $-1 #
coedge $-1 $163 $318 $248 $323 forward $243 $-1 #
vertex $-1 $164 $325 #
straight-curve $-1 -30.054744581922478 -44.517636350633801 65.464561029411556 0 0 1 I I #
straight-curve $-1 -30.054744581922478 -44.517636350633794 10.584708015251437 0 -0.8660253999169214 -0.50000000669873634 I I #
edge $-1 $326 -56.371762348660326 $167 -30.054744581922478 $252 $327 forward 7 unknown #
point $-1 -30.054744581922478 -44.517636350633801 13.674292980910494 #
point $-1 -30.054744581922478 -39.166318311403543 13.674292980910494 #
edge $-1 $328 1 $328 0 $170 $-1 forward 7 unknown #
vertex $-1 $171 $329 #
ellipse-curve $-1 -43.213253465291402 -40.975388983582903 10.628525477887422 0 -0.50000000669873634 0.8660253999169214 1 0 0 1 I I #
point $-1 -42.213253465291402 -41.841977331018676 12.129500498080967 #
loop $-1 $-1 $182 $174 #
plane-surface $-1 -56.371762348660326 0 12.142106125860813 -1 0 0 0 0 1 forward_v I I I I #
coedge $-1 $271 $330 $178 $267 forward $175 $-1 #
edge $-1 $269 74.049086522029896 $277 77.138671487688896 $266 $331 forward 7 unknown #
coedge $-1 $185 $179 $330 $332 forward $106 $-1 #
vertex $-1 $332 $333 #
straight-curve $-1 -30.054744581922478 18.445854893743931 13.674292980910494 0 1 0 I I #
coedge $-1 $334 $266 $181 $272 forward $175 $-1 #
edge $-1 $277 8.4481178492767768 $275 34.765135616014625 $271 $335 forward 7 unknown #
coedge $-1 $274 $182 $185 $279 reversed $264 $-1 #
coedge $-1 $182 $273 $334 $336 reversed $264 $-1 #
vertex $-1 $336 $337 #
straight-curve $-1 -56.371762348660326 -11.067067540571653 42.676552342930734 0 -0.8660253999169214 0.50000000669873634 I I #
vertex $-1 $272 $338 #
straight-curve $-1 -30.054744581922478 -32.589171297193623 55.102344962309104 0 -0.8660253999169214 0.50000000669873634 I I #
edge $-1 $339 -44.517636350633801 $186 -39.16631831140365 $185 $340 forward 7 unknown #
point $-1 -56.371762348660326 39.16631831140365 13.674292980910494 #
point $-1 -30.054744581922478 39.16631831140365 13.674292980910494 #
edge $-1 $341 1 $341 0 $189 $-1 forward 7 unknown #
vertex $-1 $190 $342 #
ellipse-curve $-1 -43.213253465291402 40.975388983582896 10.628525477887425 0 0.50000000669873634 0.8660253999169214 1 0 0 1 I I #
point $-1 -42.213253465291402 41.841977331018668 12.12950049808097 #
plane-surface $-1 69.480880153813288 0 0 -1 0 0 0 0 1 forward_v I I I I #
coedge $-1 $198 $196 $200 $291 reversed $121 $-1 #
edge $-1 $211 -13.674292980910494 $293 13.674292980910494 $210 $343 forward 7 unknown #
vertex $-1 $291 $344 #
straight-curve $-1 -69.480880153813288 -44.517636350633801 0 0 0 -1 I I #
edge $-1 $289 -44.517636350633801 $293 44.517636350633801 $287 $345 forward 7 unknown #
straight-curve $-1 0 -44.517636350633801 -13.674292980910494 -1 0 0 I I #
vertex $-1 $203 $346 #
straight-curve $-1 0 44.517636350633801 -13.674292980910494 1 0 0 I I #
point $-1 69.480880153813288 44.517636350633801 -13.674292980910494 #
point $-1 69.480880153813288 -44.517636350633801 -13.674292980910494 #
straight-curve $-1 -69.480880153813288 0 13.674292980910494 0 -1 0 I I #
point $-1 -69.480880153813288 44.517636350633801 13.674292980910494 #
point $-1 -69.480880153813288 -44.517636350633801 13.674292980910494 #
straight-curve $-1 69.480880153813288 -44.517636350633801 0 0 0 -1 I I #
straight-curve $-1 69.480880153813288 44.517636350633801 0 0 0 -1 I I #
plane-surface $-1 0 -44.517636350633801 0 0 1 0 0 0 1 forward_v I I I I #
coedge $-1 $347 $223 $234 $314 reversed $140 $-1 #
coedge $-1 $223 $347 $238 $316 forward $140 $-1 #
edge $-1 $231 56.371762348660326 $348 69.480880153813288 $224 $349 forward 7 unknown #
straight-curve $-1 -56.371762348660326 44.517636350633801 6.0710530629304067 0 0 -1 I I #
coedge $-1 $234 $226 $229 $310 reversed $235 $-1 #
straight-curve $-1 -56.371762348660326 -44.517636350633801 6.0710530629304067 0 0 1 I I #
coedge $-1 $229 $228 $347 $350 forward $221 $-1 #
edge $-1 $351 -69.480880153813288 $230 -56.371762348660326 $307 $352 forward 7 unknown #
point $-1 -56.371762348660326 -44.517636350633801 13.674292980910494 #
point $-1 -56.371762348660326 44.517636350633801 13.674292980910494 #
straight-curve $-1 -69.480880153813288 0 10.609919270811133 0 -1 0 I I #
edge $-1 $351 -13.674292980910494 $236 -10.609919270811133 $303 $353 forward 7 unknown #
point $-1 -69.480880153813288 -44.517636350633801 10.609919270811133 #
edge $-1 $348 -13.674292980910494 $239 -10.609919270811133 $238 $354 forward 7 unknown #
point $-1 -69.480880153813288 44.517636350633801 10.609919270811133 #
coedge $-1 $253 $252 $245 $319 forward $243 $-1 #
edge $-1 $326 51.790268048501062 $321 54.879853014160119 $318 $355 forward 7 unknown #
edge $-1 $250 39.16631831140355 $326 44.517636350633801 $249 $356 forward 7 unknown #
vertex $-1 $319 $357 #
straight-curve $-1 -56.371762348660326 -44.517636350633794 10.584708015251437 0 0.8660253999169214 0.50000000669873634 I I #
edge $-1 $321 -34.765135616014625 $254 -8.4481178492767768 $253 $358 forward 7 unknown #
point $-1 -56.371762348660326 -39.16631831140355 13.674292980910494 #
point $-1 -30.054744581922478 -44.517636350633801 10.584708015251433 #
vertex $-1 $257 $359 #
straight-curve $-1 0 -44.517636350633801 13.674292980910494 1 0 0 I I #
vertex $-1 $260 $360 #
point $-1 -42.213253465291402 -40.975388983582903 10.628525477887422 #
coedge $-1 $266 $334 $268 $332 reversed $175 $-1 #
straight-curve $-1 -30.054744581922478 44.517636350633801 87.723379502940389 0 0 -1 I I #
edge $-1 $269 30.054744581922478 $339 56.371762348660326 $330 $361 forward 7 unknown #
point $-1 -30.054744581922478 44.517636350633801 13.674292980910494 #
coedge $-1 $330 $271 $274 $336 forward $175 $-1 #
straight-curve $-1 -21.606626732645701 44.517636350633808 10.584708015251486 -1 0 0 I I #
edge $-1 $275 -77.138671487688896 $339 -74.049086522029896 $334 $362 forward 7 unknown #
point $-1 -56.371762348660326 44.517636350633801 10.584708015251486 #
point $-1 -30.054744581922478 44.517636350633801 10.584708015251486 #
vertex $-1 $279 $363 #
straight-curve $-1 -56.371762348660326 0 13.674292980910494 0 -1 0 I I #
vertex $-1 $282 $364 #
point $-1 -42.213253465291402 40.975388983582896 10.628525477887425 #
straight-curve $-1 -69.480880153813288 44.517636350633801 0 0 0 -1 I I #
point $-1 -69.480880153813288 -44.517636350633801 -13.674292980910494 #
straight-curve $-1 -69.480880153813288 0 -13.674292980910494 0 1 0 I I #
point $-1 -69.480880153813288 44.517636350633801 -13.674292980910494 #
coedge $-1 $304 $303 $309 $350 reversed $140 $-1 #
vertex $-1 $305 $365 #
straight-curve $-1 0 44.517636350633801 13.674292980910494 -1 0 0 I I #
edge $-1 $348 -44.517636350633801 $351 44.517636350633801 $347 $366 forward 7 unknown #
vertex $-1 $350 $367 #
straight-curve $-1 0 -44.517636350633801 13.674292980910494 1 0 0 I I #
straight-curve $-1 -69.480880153813288 -44.517636350633801 0 0 0 -1 I I #
straight-curve $-1 -69.480880153813288 44.517636350633801 0 0 0 -1 I I #
straight-curve $-1 -56.371762348660326 -44.517636350633801 65.464561029411556 0 0 -1 I I #
straight-curve $-1 -56.371762348660326 0 13.674292980910494 0 -1 0 I I #
point $-1 -56.371762348660326 -44.517636350633801 10.584708015251433 #
straight-curve $-1 -21.606626732645701 -44.517636350633801 10.584708015251431 1 0 0 I I #
point $-1 -56.371762348660326 -44.517636350633801 13.674292980910494 #
point $-1 -43.213253465291402 -40.475388976884162 9.7625000779705005 #
straight-curve $-1 0 44.517636350633801 13.674292980910494 -1 0 0 I I #
straight-curve $-1 -56.371762348660326 44.517636350633801 87.723379502940389 0 0 1 I I #
point $-1 -56.371762348660326 44.517636350633801 13.674292980910494 #
point $-1 -43.213253465291402 40.475388976884155 9.762500077970504 #
point $-1 -69.480880153813288 44.517636350633801 13.674292980910494 #
straight-curve $-1 -69.480880153813288 0 13.674292980910494 0 -1 0 I I #
point $-1 -69.480880153813288 -44.517636350633801 13.674292980910494 #
End-of-ACIS-data 