500 0 7 0           
7 Unknown 11 ACIS 5.0 NT 24 Thu Mar 25 17:21:10 1999 
-1 9.9999999999999995e-007 1e-010 
body $-1 $7 $-1 $8 #
body $-1 $9 $-1 $10 #
body $-1 $11 $-1 $12 #
body $-1 $13 $-1 $14 #
body $-1 $15 $-1 $16 #
body $-1 $17 $-1 $18 #
body $-1 $19 $-1 $20 #
lump $-1 $-1 $21 $0 #
transform $-1 1 0 0 0 1 0 0 0 1 48.374279000213633 21.340516838031807 7.0953131699653218 1 rotate no_reflect no_shear #
lump $-1 $-1 $22 $1 #
transform $-1 1 0 0 0 1 0 0 0 1 48.374279000213633 21.340516838031807 7.0953131699653218 1 rotate no_reflect no_shear #
lump $-1 $-1 $23 $2 #
transform $-1 1 0 0 0 1 0 0 0 1 48.374279000213633 21.340516838031807 7.0953131699653218 1 rotate no_reflect no_shear #
lump $-1 $-1 $24 $3 #
transform $-1 1 0 0 0 1 0 0 0 1 48.374279000213633 21.340516838031807 7.0953131699653218 1 rotate no_reflect no_shear #
lump $-1 $-1 $25 $4 #
transform $-1 1 0 0 0 1 0 0 0 1 48.374279000213633 21.340516838031807 7.0953131699653218 1 rotate no_reflect no_shear #
lump $-1 $-1 $26 $5 #
transform $-1 1 0 0 0 1 0 0 0 1 48.374279000213633 21.340516838031807 7.0953131699653218 1 rotate no_reflect no_shear #
lump $-1 $-1 $27 $6 #
transform $-1 1 0 0 0 1 0 0 0 1 48.374279000213633 21.340516838031807 7.0953131699653218 1 rotate no_reflect no_shear #
shell $-1 $-1 $-1 $28 $-1 $7 #
shell $-1 $-1 $-1 $29 $-1 $9 #
shell $-1 $-1 $-1 $30 $-1 $11 #
shell $-1 $-1 $-1 $31 $-1 $13 #
shell $-1 $-1 $-1 $32 $-1 $15 #
shell $-1 $-1 $-1 $33 $-1 $17 #
shell $-1 $-1 $-1 $34 $-1 $19 #
face $-1 $35 $36 $21 $-1 $37 forward single #
face $-1 $38 $39 $22 $-1 $40 forward single #
face $-1 $41 $42 $23 $-1 $43 forward single #
face $-1 $44 $45 $24 $-1 $46 reversed single #
face $-1 $47 $48 $25 $-1 $49 forward single #
face $-1 $50 $51 $26 $-1 $52 forward single #
face $-1 $53 $54 $27 $-1 $55 forward single #
face $-1 $56 $57 $21 $-1 $58 reversed single #
loop $-1 $-1 $59 $28 #
plane-surface $-1 0 0 7.0953131699653218 0 0 1 1 0 0 forward_v I I I I #
face $-1 $60 $61 $22 $-1 $62 reversed single #
loop $-1 $-1 $63 $29 #
plane-surface $-1 0 -21.340516838031807 0 0 1 0 0 0 1 forward_v I I I I #
face $-1 $64 $65 $23 $-1 $66 reversed single #
loop $-1 $-1 $67 $30 #
plane-surface $-1 0 21.340516838031807 0 0 -1 0 0 0 -1 forward_v I I I I #
face $-1 $68 $69 $24 $-1 $70 reversed single #
loop $-1 $-1 $71 $31 #
plane-surface $-1 26.970428224173915 5.9111083169942571 138.91046091987184 0 -1 0 -0.5877852598018023 0 -0.80901698891910034 forward_v I I I I #
face $-1 $72 $73 $25 $-1 $74 forward single #
loop $-1 $75 $76 $32 #
cone-surface $-1 45.708554348143828 0.97695586142000934 4.9125524424316831 -0.5877852598018023 0 -0.80901698891910034 0.40450849445955017 0 -0.29389262990090115 1 I I 0 1 0.5 forward I I I I #
face $-1 $77 $78 $26 $-1 $79 forward single #
loop $-1 $80 $81 $33 #
cone-surface $-1 45.708554348143828 2.8272630322603547 4.9125524424316831 -0.5877852598018023 0 -0.80901698891910034 0.40450849445955017 0 -0.29389262990090115 1 I I 0 1 0.5 forward I I I I #
face $-1 $82 $83 $27 $-1 $84 forward single #
loop $-1 $85 $86 $34 #
cone-surface $-1 45.708554348143828 4.6775702031007 4.9125524424316831 -0.5877852598018023 0 -0.80901698891910034 0.40450849445955017 0 -0.29389262990090115 1 I I 0 1 0.5 forward I I I I #
face $-1 $87 $88 $21 $-1 $89 reversed single #
loop $-1 $-1 $90 $35 #
plane-surface $-1 0 0 -7.0953131699653218 0 0 1 1 0 0 forward_v I I I I #
coedge $-1 $91 $92 $93 $94 forward $36 $-1 #
face $-1 $95 $96 $22 $-1 $97 reversed single #
loop $-1 $-1 $98 $38 #
plane-surface $-1 0 0 -7.0953131699653218 0 0 1 1 0 0 forward_v I I I I #
coedge $-1 $99 $100 $101 $102 forward $39 $-1 #
face $-1 $103 $104 $23 $-1 $105 forward single #
loop $-1 $-1 $106 $41 #
plane-surface $-1 -48.374279000213633 0 0 1 0 0 0 0 -1 forward_v I I I I #
coedge $-1 $107 $108 $109 $110 forward $42 $-1 #
face $-1 $111 $112 $24 $-1 $113 reversed single #
loop $-1 $-1 $114 $44 #
plane-surface $-1 -29.896948075556963 2.8272630322603511 60.639233844101241 0.5877852598018023 0 0.80901698891910034 0.80901698891910034 0 -0.5877852598018023 forward_v I I I I #
coedge $-1 $115 $116 $117 $118 reversed $45 $-1 #
face $-1 $-1 $119 $25 $-1 $120 forward single #
loop $-1 $121 $122 $47 #
cone-surface $-1 45.183055454757834 0.97695586142000934 4.1892652804657482 -0.5877852598018023 0 -0.80901698891910034 0.20225424722977509 0 -0.14694631495045057 1 I I -0.70710678118654746 0.70710678118654746 0.25 forward I I I I #
loop $-1 $-1 $123 $32 #
coedge $-1 $76 $76 $124 $125 reversed $48 $-1 #
face $-1 $-1 $126 $26 $-1 $127 forward single #
loop $-1 $128 $129 $50 #
cone-surface $-1 45.183055454757834 2.8272630322603547 4.1892652804657482 -0.5877852598018023 0 -0.80901698891910034 0.20225424722977509 0 -0.14694631495045057 1 I I -0.70710678118654746 0.70710678118654746 0.25 forward I I I I #
loop $-1 $-1 $130 $33 #
coedge $-1 $81 $81 $131 $132 reversed $51 $-1 #
face $-1 $-1 $133 $27 $-1 $134 forward single #
loop $-1 $135 $136 $53 #
cone-surface $-1 45.183055454757834 4.6775702031007 4.1892652804657482 -0.5877852598018023 0 -0.80901698891910034 0.20225424722977509 0 -0.14694631495045057 1 I I -0.70710678118654746 0.70710678118654746 0.25 forward I I I I #
loop $-1 $-1 $137 $34 #
coedge $-1 $86 $86 $138 $139 reversed $54 $-1 #
face $-1 $140 $141 $21 $-1 $142 reversed single #
loop $-1 $-1 $143 $56 #
plane-surface $-1 0 -21.340516838031807 0 0 1 0 0 0 1 forward_v I I I I #
coedge $-1 $144 $145 $146 $147 forward $57 $-1 #
coedge $-1 $148 $59 $149 $150 forward $36 $-1 #
coedge $-1 $59 $148 $151 $152 forward $36 $-1 #
coedge $-1 $153 $154 $59 $94 reversed $155 $-1 #
edge $-1 $156 -21.340516838031807 $157 21.340516838031807 $93 $158 forward 7 unknown #
face $-1 $159 $160 $22 $-1 $161 forward single #
loop $-1 $-1 $162 $60 #
plane-surface $-1 48.374279000213633 0 0 -1 0 0 0 0 1 forward_v I I I I #
coedge $-1 $163 $164 $165 $166 forward $61 $-1 #
coedge $-1 $165 $63 $162 $167 reversed $39 $-1 #
coedge $-1 $63 $165 $168 $169 reversed $39 $-1 #
coedge $-1 $170 $171 $63 $102 reversed $160 $-1 #
edge $-1 $172 -48.374279000213633 $173 48.374279000213633 $101 $174 forward 7 unknown #
face $-1 $175 $176 $23 $-1 $177 reversed single #
loop $-1 $-1 $178 $64 #
plane-surface $-1 0 0 7.0953131699653218 0 0 1 1 0 0 forward_v I I I I #
coedge $-1 $179 $180 $108 $181 forward $65 $-1 #
coedge $-1 $182 $67 $183 $184 reversed $42 $-1 #
coedge $-1 $67 $182 $106 $181 reversed $42 $-1 #
coedge $-1 $185 $186 $67 $110 reversed $176 $-1 #
edge $-1 $187 -48.374279000213633 $188 48.374279000213633 $109 $189 forward 7 unknown #
face $-1 $190 $191 $24 $-1 $192 forward single #
loop $-1 $-1 $193 $68 #
plane-surface $-1 26.970428224173915 -0.25658225247355482 138.91046091987184 0 1 0 0.5877852598018023 0 0.80901698891910034 forward_v I I I I #
coedge $-1 $194 $195 $196 $197 reversed $69 $-1 #
coedge $-1 $116 $71 $198 $199 reversed $45 $-1 #
coedge $-1 $71 $115 $194 $200 reversed $45 $-1 #
coedge $-1 $196 $201 $71 $118 forward $191 $-1 #
edge $-1 $202 -34.889064888126676 $203 -30.314720740858156 $117 $204 forward 7 unknown #
loop $-1 $-1 $124 $72 #
plane-surface $-1 -29.896948075556963 2.8272630322603511 60.639233844101241 0.5877852598018023 0 0.80901698891910034 0.80901698891910034 0 -0.5877852598018023 forward_v I I I I #
loop $-1 $-1 $205 $47 #
coedge $-1 $122 $122 $123 $206 reversed $73 $-1 #
coedge $-1 $123 $123 $122 $206 forward $75 $-1 #
coedge $-1 $124 $124 $76 $125 forward $119 $-1 #
edge $-1 $207 0 $207 6.2831853071796004 $124 $208 forward 7 unknown #
loop $-1 $-1 $131 $77 #
plane-surface $-1 -29.896948075556963 2.8272630322603511 60.639233844101241 0.5877852598018023 0 0.80901698891910034 0.80901698891910034 0 -0.5877852598018023 forward_v I I I I #
loop $-1 $-1 $209 $50 #
coedge $-1 $129 $129 $130 $210 reversed $78 $-1 #
coedge $-1 $130 $130 $129 $210 forward $80 $-1 #
coedge $-1 $131 $131 $81 $132 forward $126 $-1 #
edge $-1 $211 0 $211 6.2831853071796004 $131 $212 forward 7 unknown #
loop $-1 $-1 $138 $82 #
plane-surface $-1 -29.896948075556963 2.8272630322603511 60.639233844101241 0.5877852598018023 0 0.80901698891910034 0.80901698891910034 0 -0.5877852598018023 forward_v I I I I #
loop $-1 $-1 $213 $53 #
coedge $-1 $136 $136 $137 $214 reversed $83 $-1 #
coedge $-1 $137 $137 $136 $214 forward $85 $-1 #
coedge $-1 $138 $138 $86 $139 forward $133 $-1 #
edge $-1 $215 0 $215 6.2831853071796004 $138 $216 forward 7 unknown #
face $-1 $217 $218 $21 $-1 $219 reversed single #
loop $-1 $-1 $220 $87 #
plane-surface $-1 -48.374279000213633 0 0 1 0 0 0 0 -1 forward_v I I I I #
coedge $-1 $221 $151 $222 $223 forward $88 $-1 #
coedge $-1 $224 $90 $221 $225 forward $57 $-1 #
coedge $-1 $90 $224 $226 $227 forward $57 $-1 #
coedge $-1 $154 $153 $90 $147 reversed $155 $-1 #
edge $-1 $228 -21.340516838031807 $229 21.340516838031807 $146 $230 forward 7 unknown #
coedge $-1 $92 $91 $231 $232 forward $36 $-1 #
coedge $-1 $233 $234 $91 $150 reversed $218 $-1 #
edge $-1 $157 -48.374279000213633 $235 48.374279000213633 $149 $236 forward 7 unknown #
coedge $-1 $143 $237 $92 $152 reversed $88 $-1 #
edge $-1 $238 -48.374279000213633 $156 48.374279000213633 $151 $239 forward 7 unknown #
coedge $-1 $146 $93 $237 $240 forward $155 $-1 #
coedge $-1 $93 $146 $233 $241 reversed $155 $-1 #
loop $-1 $-1 $153 $217 #
vertex $-1 $94 $242 #
vertex $-1 $94 $243 #
straight-curve $-1 48.374279000213633 0 7.0953131699653218 0 1 0 I I #
face $-1 $244 $245 $22 $-1 $246 reversed single #
loop $-1 $-1 $171 $95 #
plane-surface $-1 0 -25.672066185846681 -3.4706771901060276 0 0 1 1 0 0 forward_v I I I I #
coedge $-1 $247 $248 $99 $167 forward $96 $-1 #
coedge $-1 $249 $98 $248 $250 forward $61 $-1 #
coedge $-1 $98 $249 $251 $252 forward $61 $-1 #
coedge $-1 $100 $99 $98 $166 reversed $39 $-1 #
edge $-1 $253 -48.374279000213633 $254 48.374279000213633 $98 $255 forward 7 unknown #
edge $-1 $254 -7.0953131699653218 $173 -3.4706771901060276 $162 $256 forward 7 unknown #
coedge $-1 $251 $257 $100 $169 forward $258 $-1 #
edge $-1 $172 3.4706771901060276 $253 7.0953131699653218 $168 $259 forward 7 unknown #
coedge $-1 $260 $101 $257 $261 forward $160 $-1 #
coedge $-1 $101 $260 $247 $262 forward $160 $-1 #
vertex $-1 $169 $263 #
vertex $-1 $262 $264 #
straight-curve $-1 0 -21.340516838031807 -3.4706771901060276 1 0 0 I I #
face $-1 $265 $266 $23 $-1 $267 reversed single #
loop $-1 $-1 $186 $103 #
plane-surface $-1 0 25.931886259896121 4.0953131699653218 0 0 1 1 0 0 forward_v I I I I #
coedge $-1 $268 $269 $182 $270 forward $104 $-1 #
coedge $-1 $271 $106 $269 $272 reversed $65 $-1 #
coedge $-1 $106 $271 $185 $273 reversed $65 $-1 #
edge $-1 $187 4.0953131699653218 $274 7.0953131699653218 $106 $275 forward 7 unknown #
coedge $-1 $108 $107 $178 $270 reversed $42 $-1 #
coedge $-1 $276 $277 $107 $184 forward $278 $-1 #
edge $-1 $279 -7.0953131699653218 $188 -4.0953131699653218 $183 $280 forward 7 unknown #
coedge $-1 $281 $109 $180 $273 forward $176 $-1 #
coedge $-1 $109 $281 $276 $282 forward $176 $-1 #
vertex $-1 $181 $283 #
vertex $-1 $184 $284 #
straight-curve $-1 0 21.340516838031807 4.0953131699653218 1 0 0 I I #
face $-1 $-1 $285 $24 $-1 $286 reversed single #
loop $-1 $-1 $117 $111 #
plane-surface $-1 0 0 7.0953131699653218 0 0 1 1 0 0 forward_v I I I I #
coedge $-1 $287 $288 $289 $290 reversed $112 $-1 #
coedge $-1 $291 $114 $116 $200 forward $69 $-1 #
coedge $-1 $114 $291 $287 $292 forward $69 $-1 #
coedge $-1 $289 $117 $114 $197 forward $191 $-1 #
edge $-1 $203 -4.4974768008640815 $293 1.6702137686037304 $196 $294 forward 7 unknown #
coedge $-1 $295 $296 $115 $199 forward $285 $-1 #
edge $-1 $297 -65.683372915565542 $202 -62.359917289970596 $198 $298 forward 7 unknown #
edge $-1 $203 91.094357643794268 $297 96.748558000427252 $116 $299 forward 7 unknown #
coedge $-1 $117 $289 $295 $300 forward $191 $-1 #
vertex $-1 $199 $301 #
vertex $-1 $118 $302 #
straight-curve $-1 13.485214112086958 5.9111083169942571 7.0953131699653227 -1 0 0 I I #
coedge $-1 $205 $205 $-1 $303 reversed $121 $-1 #
edge $-1 $304 0 $304 6.2831853071796004 $122 $305 forward 7 unknown #
vertex $-1 $125 $306 #
ellipse-curve $-1 46.087106926579374 0.97695586142000934 5.4335853571678516 0.5877852598018023 0 0.80901698891910034 0.40450849445955017 0 -0.29389262990090115 1 I I #
coedge $-1 $209 $209 $-1 $307 reversed $128 $-1 #
edge $-1 $308 0 $308 6.2831853071796004 $129 $309 forward 7 unknown #
vertex $-1 $132 $310 #
ellipse-curve $-1 46.087106926579374 2.8272630322603547 5.4335853571678516 0.5877852598018023 0 0.80901698891910034 0.40450849445955017 0 -0.29389262990090115 1 I I #
coedge $-1 $213 $213 $-1 $311 reversed $135 $-1 #
edge $-1 $312 0 $312 6.2831853071796004 $136 $313 forward 7 unknown #
vertex $-1 $139 $314 #
ellipse-curve $-1 46.087106926579374 4.6775702031007 5.4335853571678516 0.5877852598018023 0 0.80901698891910034 0.40450849445955017 0 -0.29389262990090115 1 I I #
face $-1 $-1 $155 $21 $-1 $315 reversed single #
loop $-1 $-1 $233 $140 #
plane-surface $-1 0 21.340516838031807 0 0 -1 0 0 0 -1 forward_v I I I I #
coedge $-1 $316 $231 $234 $317 forward $141 $-1 #
coedge $-1 $237 $143 $144 $225 reversed $88 $-1 #
coedge $-1 $231 $316 $143 $223 reversed $141 $-1 #
edge $-1 $238 -7.0953131699653218 $318 7.0953131699653218 $222 $319 forward 7 unknown #
coedge $-1 $145 $144 $316 $320 forward $57 $-1 #
edge $-1 $229 -48.374279000213633 $318 48.374279000213633 $221 $321 forward 7 unknown #
coedge $-1 $234 $233 $145 $227 reversed $218 $-1 #
edge $-1 $322 -48.374279000213633 $228 48.374279000213633 $226 $323 forward 7 unknown #
vertex $-1 $147 $324 #
vertex $-1 $240 $325 #
straight-curve $-1 48.374279000213633 0 -7.0953131699653218 0 -1 0 I I #
coedge $-1 $220 $222 $148 $232 reversed $141 $-1 #
edge $-1 $235 -21.340516838031807 $238 21.340516838031807 $231 $326 forward 7 unknown #
coedge $-1 $226 $149 $154 $241 forward $218 $-1 #
coedge $-1 $149 $226 $220 $317 reversed $218 $-1 #
vertex $-1 $150 $327 #
straight-curve $-1 0 21.340516838031807 7.0953131699653218 -1 0 0 I I #
coedge $-1 $151 $221 $153 $240 reversed $88 $-1 #
vertex $-1 $232 $328 #
straight-curve $-1 0 -21.340516838031807 7.0953131699653218 1 0 0 I I #
edge $-1 $156 -7.0953131699653218 $229 7.0953131699653218 $153 $329 forward 7 unknown #
edge $-1 $157 -7.0953131699653218 $228 7.0953131699653218 $154 $330 forward 7 unknown #
point $-1 48.374279000213633 -21.340516838031807 7.0953131699653218 #
point $-1 48.374279000213633 21.340516838031807 7.0953131699653218 #
face $-1 $-1 $258 $22 $-1 $331 reversed single #
loop $-1 $-1 $332 $159 #
plane-surface $-1 0 -30.003615533661556 -5.2829951800356749 0 1 0 0 0 1 forward_v I I I I #
coedge $-1 $333 $162 $171 $262 reversed $96 $-1 #
coedge $-1 $162 $333 $163 $250 reversed $96 $-1 #
coedge $-1 $164 $163 $334 $335 forward $61 $-1 #
edge $-1 $254 21.340516838031807 $336 30.003615533661556 $248 $337 forward 7 unknown #
coedge $-1 $338 $168 $164 $252 reversed $258 $-1 #
edge $-1 $339 -30.003615533661556 $253 -21.340516838031807 $251 $340 forward 7 unknown #
vertex $-1 $169 $341 #
vertex $-1 $250 $342 #
straight-curve $-1 0 -21.340516838031807 -7.0953131699653218 1 0 0 I I #
straight-curve $-1 48.374279000213633 -21.340516838031807 0 0 0 1 I I #
coedge $-1 $168 $338 $170 $261 reversed $258 $-1 #
loop $-1 $-1 $168 $244 #
straight-curve $-1 -48.374279000213633 -21.340516838031807 0 0 0 -1 I I #
coedge $-1 $171 $170 $343 $344 forward $160 $-1 #
edge $-1 $172 -4.3315493478148746 $345 4.3315493478148746 $257 $346 forward 7 unknown #
edge $-1 $347 -4.3315493478148746 $173 4.3315493478148746 $247 $348 forward 7 unknown #
point $-1 -48.374279000213633 -21.340516838031807 -3.4706771901060276 #
point $-1 48.374279000213633 -21.340516838031807 -3.4706771901060276 #
face $-1 $-1 $278 $23 $-1 $349 reversed single #
loop $-1 $-1 $350 $175 #
plane-surface $-1 0 30.523255681760435 5.5953131699653218 0 -1 0 0 0 -1 forward_v I I I I #
coedge $-1 $351 $178 $277 $352 forward $104 $-1 #
coedge $-1 $178 $351 $179 $272 forward $104 $-1 #
edge $-1 $274 -48.374279000213633 $279 48.374279000213633 $178 $353 forward 7 unknown #
coedge $-1 $180 $179 $354 $355 forward $65 $-1 #
edge $-1 $356 -30.523255681760435 $274 -21.340516838031807 $179 $357 forward 7 unknown #
edge $-1 $187 -4.5913694218643144 $358 4.5913694218643144 $180 $359 forward 7 unknown #
vertex $-1 $270 $360 #
straight-curve $-1 -48.374279000213633 21.340516838031807 0 0 0 1 I I #
coedge $-1 $361 $183 $186 $282 reversed $278 $-1 #
coedge $-1 $183 $361 $268 $352 reversed $278 $-1 #
loop $-1 $-1 $183 $265 #
vertex $-1 $352 $362 #
straight-curve $-1 48.374279000213633 21.340516838031807 0 0 0 -1 I I #
coedge $-1 $186 $185 $363 $364 forward $176 $-1 #
edge $-1 $365 -4.5913694218643144 $188 4.5913694218643144 $276 $366 forward 7 unknown #
point $-1 -48.374279000213633 21.340516838031807 4.0953131699653218 #
point $-1 48.374279000213633 21.340516838031807 4.0953131699653218 #
loop $-1 $-1 $198 $190 #
plane-surface $-1 48.374279000213633 0 0 -1 0 0 0 0 1 forward_v I I I I #
coedge $-1 $288 $193 $195 $292 reversed $112 $-1 #
coedge $-1 $193 $287 $367 $368 reversed $112 $-1 #
coedge $-1 $201 $196 $193 $290 forward $191 $-1 #
edge $-1 $293 30.314720740858156 $369 34.889064888126676 $289 $370 forward 7 unknown #
coedge $-1 $195 $194 $296 $371 reversed $69 $-1 #
edge $-1 $372 -96.748558000427252 $293 -91.094357643794268 $287 $373 forward 7 unknown #
vertex $-1 $197 $374 #
straight-curve $-1 43.799934852945114 1.4136315161301756 7.0953131699653227 0 -1 0 I I #
coedge $-1 $367 $198 $201 $300 reversed $285 $-1 #
coedge $-1 $198 $367 $291 $371 forward $285 $-1 #
vertex $-1 $199 $375 #
straight-curve $-1 48.374279000213633 5.9111083169942571 69.455230459935919 0 0 1 I I #
straight-curve $-1 -29.896948075556963 5.9111083169942571 60.639233844101241 0.80901698891910034 0 -0.5877852598018023 I I #
edge $-1 $369 -0.25658225247355482 $202 5.9111083169942571 $295 $376 forward 7 unknown #
point $-1 48.374279000213633 5.9111083169942571 7.0953131699653218 #
point $-1 43.799934852945114 5.9111083169942571 7.0953131699653227 #
edge $-1 $377 1 $377 0 $205 $-1 forward 7 unknown #
vertex $-1 $206 $378 #
ellipse-curve $-1 45.330001769708282 0.97695586142000934 4.3915195276955235 0.5877852598018023 0 0.80901698891910034 0.40450849445955017 0 -0.29389262990090115 1 I I #
point $-1 46.491615421038922 0.97695586142000934 5.1396927272669428 #
edge $-1 $379 1 $379 0 $209 $-1 forward 7 unknown #
vertex $-1 $210 $380 #
ellipse-curve $-1 45.330001769708282 2.8272630322603547 4.3915195276955235 0.5877852598018023 0 0.80901698891910034 0.40450849445955017 0 -0.29389262990090115 1 I I #
point $-1 46.491615421038922 2.8272630322603547 5.1396927272669428 #
edge $-1 $381 1 $381 0 $213 $-1 forward 7 unknown #
vertex $-1 $214 $382 #
ellipse-curve $-1 45.330001769708282 4.6775702031007 4.3915195276955235 0.5877852598018023 0 0.80901698891910034 0.40450849445955017 0 -0.29389262990090115 1 I I #
point $-1 46.491615421038922 4.6775702031007 5.1396927272669428 #
plane-surface $-1 48.374279000213633 0 0 -1 0 0 0 0 1 forward_v I I I I #
coedge $-1 $222 $220 $224 $320 reversed $141 $-1 #
edge $-1 $235 -7.0953131699653218 $322 7.0953131699653218 $234 $383 forward 7 unknown #
vertex $-1 $320 $384 #
straight-curve $-1 -48.374279000213633 -21.340516838031807 0 0 0 -1 I I #
edge $-1 $318 -21.340516838031807 $322 21.340516838031807 $316 $385 forward 7 unknown #
straight-curve $-1 0 -21.340516838031807 -7.0953131699653218 -1 0 0 I I #
vertex $-1 $227 $386 #
straight-curve $-1 0 21.340516838031807 -7.0953131699653218 1 0 0 I I #
point $-1 48.374279000213633 21.340516838031807 -7.0953131699653218 #
point $-1 48.374279000213633 -21.340516838031807 -7.0953131699653218 #
straight-curve $-1 -48.374279000213633 0 7.0953131699653218 0 -1 0 I I #
point $-1 -48.374279000213633 21.340516838031807 7.0953131699653218 #
point $-1 -48.374279000213633 -21.340516838031807 7.0953131699653218 #
straight-curve $-1 48.374279000213633 -21.340516838031807 0 0 0 -1 I I #
straight-curve $-1 48.374279000213633 21.340516838031807 0 0 0 -1 I I #
plane-surface $-1 -48.374279000213633 0 0 1 0 0 0 0 -1 forward_v I I I I #
coedge $-1 $334 $343 $338 $387 forward $245 $-1 #
coedge $-1 $248 $247 $388 $389 forward $96 $-1 #
coedge $-1 $388 $332 $249 $335 reversed $245 $-1 #
edge $-1 $336 -48.374279000213633 $339 48.374279000213633 $334 $390 forward 7 unknown #
vertex $-1 $389 $391 #
straight-curve $-1 48.374279000213633 0 -7.0953131699653218 0 -1 0 I I #
coedge $-1 $257 $251 $332 $387 reversed $258 $-1 #
vertex $-1 $252 $392 #
straight-curve $-1 -48.374279000213633 0 -7.0953131699653218 0 1 0 I I #
point $-1 -48.374279000213633 -21.340516838031807 -7.0953131699653218 #
point $-1 48.374279000213633 -21.340516838031807 -7.0953131699653218 #
coedge $-1 $332 $388 $260 $344 reversed $245 $-1 #
edge $-1 $345 -48.374279000213633 $347 48.374279000213633 $343 $393 forward 7 unknown #
vertex $-1 $261 $394 #
straight-curve $-1 -48.374279000213633 -25.672066185846681 -3.4706771901060276 0 -1 0 I I #
vertex $-1 $262 $395 #
straight-curve $-1 48.374279000213633 -25.672066185846681 -3.4706771901060276 0 1 0 I I #
plane-surface $-1 48.374279000213633 0 0 -1 0 0 0 0 1 forward_v I I I I #
coedge $-1 $363 $396 $361 $397 forward $266 $-1 #
coedge $-1 $269 $268 $396 $398 forward $104 $-1 #
edge $-1 $279 21.340516838031807 $399 30.523255681760435 $277 $400 forward 7 unknown #
straight-curve $-1 0 21.340516838031807 7.0953131699653218 1 0 0 I I #
coedge $-1 $396 $363 $271 $355 reversed $266 $-1 #
edge $-1 $356 -1.5 $358 1.5 $354 $401 forward 7 unknown #
vertex $-1 $398 $402 #
straight-curve $-1 -48.374279000213633 0 7.0953131699653218 0 -1 0 I I #
vertex $-1 $364 $403 #
straight-curve $-1 -48.374279000213633 25.931886259896121 4.0953131699653218 0 1 0 I I #
point $-1 -48.374279000213633 21.340516838031807 7.0953131699653218 #
coedge $-1 $277 $276 $350 $397 reversed $278 $-1 #
point $-1 48.374279000213633 21.340516838031807 7.0953131699653218 #
coedge $-1 $354 $350 $281 $364 reversed $266 $-1 #
edge $-1 $358 -48.374279000213633 $365 48.374279000213633 $363 $404 forward 7 unknown #
vertex $-1 $282 $405 #
straight-curve $-1 48.374279000213633 25.931886259896121 4.0953131699653218 0 -1 0 I I #
coedge $-1 $296 $295 $288 $368 forward $285 $-1 #
edge $-1 $369 62.359917289970596 $372 65.683372915565542 $367 $406 forward 7 unknown #
vertex $-1 $300 $407 #
straight-curve $-1 13.485214112086958 -0.25658225247355482 7.0953131699653227 1 0 0 I I #
edge $-1 $372 -1.6702137686037304 $297 4.4974768008640815 $296 $408 forward 7 unknown #
vertex $-1 $371 $409 #
straight-curve $-1 -29.896948075556963 -0.25658225247355482 60.639233844101241 -0.80901698891910034 0 0.5877852598018023 I I #
point $-1 43.799934852945114 -0.25658225247355482 7.0953131699653227 #
point $-1 48.374279000213633 5.9111083169942571 3.7718575443703699 #
straight-curve $-1 48.374279000213633 0 7.0953131699653218 0 1 0 I I #
vertex $-1 $303 $410 #
point $-1 45.734510264167838 0.97695586142000934 4.0976268977946217 #
vertex $-1 $307 $411 #
point $-1 45.734510264167838 2.8272630322603547 4.0976268977946217 #
vertex $-1 $311 $412 #
point $-1 45.734510264167838 4.6775702031007 4.0976268977946217 #
straight-curve $-1 -48.374279000213633 21.340516838031807 0 0 0 -1 I I #
point $-1 -48.374279000213633 -21.340516838031807 -7.0953131699653218 #
straight-curve $-1 -48.374279000213633 0 -7.0953131699653218 0 1 0 I I #
point $-1 -48.374279000213633 21.340516838031807 -7.0953131699653218 #
edge $-1 $345 -1.8123179899296473 $339 1.8123179899296478 $338 $413 forward 7 unknown #
coedge $-1 $343 $334 $333 $389 reversed $245 $-1 #
edge $-1 $347 -1.8123179899296473 $336 1.8123179899296478 $333 $414 forward 7 unknown #
straight-curve $-1 0 -30.003615533661556 -7.0953131699653227 -1 0 0 I I #
point $-1 48.374279000213633 -30.003615533661556 -7.0953131699653227 #
point $-1 -48.374279000213633 -30.003615533661556 -7.0953131699653227 #
straight-curve $-1 0 -30.003615533661556 -3.4706771901060276 1 0 0 I I #
point $-1 -48.374279000213633 -30.003615533661556 -3.4706771901060276 #
point $-1 48.374279000213633 -30.003615533661556 -3.4706771901060276 #
coedge $-1 $350 $354 $351 $398 reversed $266 $-1 #
edge $-1 $399 -1.5 $365 1.5 $361 $415 forward 7 unknown #
edge $-1 $399 -48.374279000213633 $356 48.374279000213633 $396 $416 forward 7 unknown #
vertex $-1 $352 $417 #
straight-curve $-1 48.374279000213633 0 7.0953131699653218 0 1 0 I I #
straight-curve $-1 -48.374279000213633 30.523255681760435 5.5953131699653218 0 0 -1 I I #
point $-1 -48.374279000213633 30.523255681760435 7.0953131699653218 #
point $-1 -48.374279000213633 30.523255681760435 4.0953131699653218 #
straight-curve $-1 0 30.523255681760435 4.0953131699653218 1 0 0 I I #
point $-1 48.374279000213633 30.523255681760435 4.0953131699653218 #
straight-curve $-1 48.374279000213633 -0.25658225247355482 69.455230459935919 0 0 -1 I I #
point $-1 48.374279000213633 -0.25658225247355482 7.0953131699653218 #
straight-curve $-1 48.374279000213633 1.4136315161301756 3.7718575443703664 0 1 0 I I #
point $-1 48.374279000213633 -0.25658225247355482 3.7718575443703699 #
point $-1 45.036109139807387 0.97695586142000934 3.9870110332359729 #
point $-1 45.036109139807387 2.8272630322603547 3.9870110332359729 #
point $-1 45.036109139807387 4.6775702031007 3.9870110332359729 #
straight-curve $-1 -48.374279000213633 -30.003615533661556 -5.2829951800356749 0 0 -1 I I #
straight-curve $-1 48.374279000213633 -30.003615533661556 -5.2829951800356749 0 0 -1 I I #
straight-curve $-1 48.374279000213633 30.523255681760435 5.5953131699653218 0 0 -1 I I #
straight-curve $-1 0 30.523255681760435 7.0953131699653218 -1 0 0 I I #
point $-1 48.374279000213633 30.523255681760435 7.0953131699653218 #
End-of-ACIS-data 