500 0 7 0           
7 Unknown 11 ACIS 5.0 NT 24 Thu Mar 25 20:04:36 1999 
-1 9.9999999999999995e-007 1e-010 
body $-1 $7 $-1 $8 #
body $-1 $9 $-1 $10 #
body $-1 $11 $-1 $12 #
body $-1 $13 $-1 $14 #
body $-1 $15 $-1 $16 #
body $-1 $17 $-1 $18 #
body $-1 $19 $-1 $20 #
lump $-1 $-1 $21 $0 #
transform $-1 1 0 0 0 1 0 0 0 1 57.896053956724757 36.078887129079554 10.046968638774139 1 rotate no_reflect no_shear #
lump $-1 $-1 $22 $1 #
transform $-1 1 0 0 0 1 0 0 0 1 57.896053956724757 36.078887129079554 10.046968638774139 1 rotate no_reflect no_shear #
lump $-1 $-1 $23 $2 #
transform $-1 1 0 0 0 1 0 0 0 1 57.896053956724757 36.078887129079554 10.046968638774139 1 rotate no_reflect no_shear #
lump $-1 $-1 $24 $3 #
transform $-1 1 0 0 0 1 0 0 0 1 57.896053956724757 36.078887129079554 10.046968638774139 1 rotate no_reflect no_shear #
lump $-1 $-1 $25 $4 #
transform $-1 1 0 0 0 1 0 0 0 1 57.896053956724757 36.078887129079554 10.046968638774139 1 rotate no_reflect no_shear #
lump $-1 $-1 $26 $5 #
transform $-1 1 0 0 0 1 0 0 0 1 57.896053956724757 36.078887129079554 10.046968638774139 1 rotate no_reflect no_shear #
lump $-1 $-1 $27 $6 #
transform $-1 1 0 0 0 1 0 0 0 1 57.896053956724757 36.078887129079554 10.046968638774139 1 rotate no_reflect no_shear #
shell $-1 $-1 $-1 $28 $-1 $7 #
shell $-1 $-1 $-1 $29 $-1 $9 #
shell $-1 $-1 $-1 $30 $-1 $11 #
shell $-1 $-1 $-1 $31 $-1 $13 #
shell $-1 $-1 $-1 $32 $-1 $15 #
shell $-1 $-1 $-1 $33 $-1 $17 #
shell $-1 $-1 $-1 $34 $-1 $19 #
face $-1 $35 $36 $21 $-1 $37 forward single #
face $-1 $38 $39 $22 $-1 $40 reversed single #
face $-1 $41 $42 $23 $-1 $43 reversed single #
face $-1 $44 $45 $24 $-1 $46 reversed single #
face $-1 $47 $48 $25 $-1 $49 forward single #
face $-1 $50 $51 $26 $-1 $52 forward single #
face $-1 $53 $54 $27 $-1 $55 forward single #
face $-1 $56 $57 $21 $-1 $58 reversed single #
loop $-1 $-1 $59 $28 #
plane-surface $-1 0 0 10.046968638774139 0 0 1 1 0 0 forward_v I I I I #
face $-1 $60 $61 $22 $-1 $62 reversed single #
loop $-1 $-1 $63 $29 #
plane-surface $-1 -52.399126132111135 -32.194827845812618 0 0 -1 0 0 0 -1 forward_v I I I I #
face $-1 $64 $65 $23 $-1 $66 reversed single #
loop $-1 $-1 $67 $30 #
plane-surface $-1 46.902198307497514 -34.136857487446086 0 1 0 0 0 0 -1 forward_v I I I I #
face $-1 $68 $69 $24 $-1 $70 reversed single #
loop $-1 $-1 $71 $31 #
plane-surface $-1 -37.026642511027973 -36.078887129079547 0.78971125954707588 0 -0.7660444514056185 0.64278759981090561 1 0 0 forward_v I I I I #
face $-1 $72 $73 $25 $-1 $74 forward single #
loop $-1 $75 $76 $32 #
cone-surface $-1 -42.951975988909695 -31.00966813052586 4.4237228989084434 0 0.7660444514056185 -0.64278759981090561 1 0 0 1 I I 0 1 1 forward I I I I #
face $-1 $77 $78 $26 $-1 $79 forward single #
loop $-1 $80 $81 $33 #
cone-surface $-1 -37.026642511027973 -31.00966813052586 4.4237228989084434 0 0.7660444514056185 -0.64278759981090561 1 0 0 1 I I 0 1 1 forward I I I I #
face $-1 $82 $83 $27 $-1 $84 forward single #
loop $-1 $85 $86 $34 #
cone-surface $-1 -31.101309033146244 -31.00966813052586 4.4237228989084434 0 0.7660444514056185 -0.64278759981090561 1 0 0 1 I I 0 1 1 forward I I I I #
face $-1 $87 $88 $21 $-1 $89 reversed single #
loop $-1 $-1 $90 $35 #
plane-surface $-1 0 0 -10.046968638774139 0 0 1 1 0 0 forward_v I I I I #
coedge $-1 $91 $92 $93 $94 forward $36 $-1 #
face $-1 $95 $96 $22 $-1 $97 forward single #
loop $-1 $-1 $98 $38 #
plane-surface $-1 -46.902198307497514 -34.136857487446086 0 -1 0 0 0 0 1 forward_v I I I I #
coedge $-1 $99 $100 $101 $102 forward $39 $-1 #
face $-1 $103 $104 $23 $-1 $105 forward single #
loop $-1 $-1 $106 $41 #
plane-surface $-1 52.399126132111135 -32.194827845812618 0 0 -1 0 0 0 -1 forward_v I I I I #
coedge $-1 $107 $108 $109 $110 forward $42 $-1 #
face $-1 $111 $112 $24 $-1 $113 forward single #
loop $-1 $-1 $114 $44 #
plane-surface $-1 -27.151086714558428 -124.78078891273816 75.219442382278658 -1 0 0 0 -0.7660444514056185 0.64278759981090561 forward_v I I I I #
coedge $-1 $115 $116 $117 $118 reversed $45 $-1 #
face $-1 $-1 $119 $25 $-1 $120 forward single #
loop $-1 $121 $122 $47 #
cone-surface $-1 -42.951975988909695 -29.441307430896 3.1077120487508303 0 0.7660444514056185 -0.64278759981090561 0.5 0 0 1 I I -0.70710678118654746 0.70710678118654746 0.5 forward I I I I #
loop $-1 $-1 $123 $32 #
coedge $-1 $76 $76 $124 $125 reversed $48 $-1 #
face $-1 $-1 $126 $26 $-1 $127 forward single #
loop $-1 $128 $129 $50 #
cone-surface $-1 -37.026642511027973 -29.441307430896 3.1077120487508303 0 0.7660444514056185 -0.64278759981090561 0.5 0 0 1 I I -0.70710678118654746 0.70710678118654746 0.5 forward I I I I #
loop $-1 $-1 $130 $33 #
coedge $-1 $81 $81 $131 $132 reversed $51 $-1 #
face $-1 $-1 $133 $27 $-1 $134 forward single #
loop $-1 $135 $136 $53 #
cone-surface $-1 -31.101309033146244 -29.441307430896 3.1077120487508303 0 0.7660444514056185 -0.64278759981090561 0.5 0 0 1 I I -0.70710678118654746 0.70710678118654746 0.5 forward I I I I #
loop $-1 $-1 $137 $34 #
coedge $-1 $86 $86 $138 $139 reversed $54 $-1 #
face $-1 $140 $141 $21 $-1 $142 reversed single #
loop $-1 $-1 $143 $56 #
plane-surface $-1 0 -36.078887129079554 0 0 1 0 0 0 1 forward_v I I I I #
coedge $-1 $144 $145 $146 $147 forward $57 $-1 #
coedge $-1 $148 $59 $149 $150 forward $36 $-1 #
coedge $-1 $59 $148 $151 $152 forward $36 $-1 #
coedge $-1 $153 $154 $59 $94 reversed $155 $-1 #
edge $-1 $156 -36.078887129079554 $157 36.078887129079554 $93 $158 forward 7 unknown #
face $-1 $159 $160 $22 $-1 $161 reversed single #
loop $-1 $-1 $162 $60 #
plane-surface $-1 0 0 10.046968638774139 0 0 1 1 0 0 forward_v I I I I #
coedge $-1 $163 $164 $165 $166 reversed $61 $-1 #
coedge $-1 $167 $63 $168 $169 reversed $39 $-1 #
coedge $-1 $63 $167 $170 $171 reversed $39 $-1 #
coedge $-1 $164 $163 $63 $102 reversed $61 $-1 #
edge $-1 $172 -10.046968638774139 $173 10.046968638774139 $101 $174 forward 7 unknown #
face $-1 $175 $176 $23 $-1 $177 reversed single #
loop $-1 $-1 $178 $64 #
plane-surface $-1 0 0 10.046968638774139 0 0 1 1 0 0 forward_v I I I I #
coedge $-1 $179 $180 $181 $182 reversed $65 $-1 #
coedge $-1 $183 $67 $184 $185 reversed $42 $-1 #
coedge $-1 $67 $183 $186 $187 reversed $42 $-1 #
coedge $-1 $180 $179 $67 $110 reversed $65 $-1 #
edge $-1 $188 -10.046968638774139 $189 10.046968638774139 $109 $190 forward 7 unknown #
face $-1 $191 $192 $24 $-1 $193 reversed single #
loop $-1 $-1 $194 $68 #
plane-surface $-1 -46.902198307497514 -34.136857487446086 0 -1 0 0 0 0 1 forward_v I I I I #
coedge $-1 $195 $196 $197 $198 reversed $69 $-1 #
coedge $-1 $199 $71 $194 $200 reversed $45 $-1 #
coedge $-1 $71 $199 $195 $201 forward $45 $-1 #
coedge $-1 $197 $202 $71 $118 forward $192 $-1 #
edge $-1 $203 -28.388877051983528 $204 -8.6377654590444415 $117 $205 forward 7 unknown #
loop $-1 $-1 $124 $72 #
plane-surface $-1 -37.026642511027973 -36.078887129079547 0.78971125954707588 0 -0.7660444514056185 0.64278759981090561 1 0 0 forward_v I I I I #
loop $-1 $-1 $206 $47 #
coedge $-1 $122 $122 $123 $207 reversed $73 $-1 #
coedge $-1 $123 $123 $122 $207 forward $75 $-1 #
coedge $-1 $124 $124 $76 $125 forward $119 $-1 #
edge $-1 $208 0 $208 6.2831853071796004 $124 $209 forward 7 unknown #
loop $-1 $-1 $131 $77 #
plane-surface $-1 -37.026642511027973 -36.078887129079547 0.78971125954707588 0 -0.7660444514056185 0.64278759981090561 1 0 0 forward_v I I I I #
loop $-1 $-1 $210 $50 #
coedge $-1 $129 $129 $130 $211 reversed $78 $-1 #
coedge $-1 $130 $130 $129 $211 forward $80 $-1 #
coedge $-1 $131 $131 $81 $132 forward $126 $-1 #
edge $-1 $212 0 $212 6.2831853071796004 $131 $213 forward 7 unknown #
loop $-1 $-1 $138 $82 #
plane-surface $-1 -37.026642511027973 -36.078887129079547 0.78971125954707588 0 -0.7660444514056185 0.64278759981090561 1 0 0 forward_v I I I I #
loop $-1 $-1 $214 $53 #
coedge $-1 $136 $136 $137 $215 reversed $83 $-1 #
coedge $-1 $137 $137 $136 $215 forward $85 $-1 #
coedge $-1 $138 $138 $86 $139 forward $133 $-1 #
edge $-1 $216 0 $216 6.2831853071796004 $138 $217 forward 7 unknown #
face $-1 $218 $219 $21 $-1 $220 reversed single #
loop $-1 $-1 $221 $87 #
plane-surface $-1 -57.896053956724757 0 0 1 0 0 0 0 -1 forward_v I I I I #
coedge $-1 $222 $151 $223 $224 forward $88 $-1 #
coedge $-1 $225 $90 $222 $226 forward $57 $-1 #
coedge $-1 $90 $225 $227 $228 forward $57 $-1 #
coedge $-1 $154 $153 $90 $147 reversed $155 $-1 #
edge $-1 $229 -36.078887129079554 $230 36.078887129079554 $146 $231 forward 7 unknown #
coedge $-1 $92 $91 $232 $233 forward $36 $-1 #
coedge $-1 $234 $235 $91 $150 reversed $219 $-1 #
edge $-1 $157 -57.896053956724757 $236 57.896053956724757 $149 $237 forward 7 unknown #
coedge $-1 $143 $238 $92 $152 reversed $88 $-1 #
edge $-1 $239 -57.896053956724757 $156 57.896053956724757 $151 $240 forward 7 unknown #
coedge $-1 $146 $93 $238 $241 forward $155 $-1 #
coedge $-1 $93 $146 $234 $242 reversed $155 $-1 #
loop $-1 $-1 $153 $218 #
vertex $-1 $94 $243 #
vertex $-1 $94 $244 #
straight-curve $-1 57.896053956724757 0 10.046968638774139 0 1 0 I I #
face $-1 $245 $246 $22 $-1 $247 reversed single #
loop $-1 $-1 $248 $95 #
plane-surface $-1 -57.896053956724757 0 0 1 0 0 0 0 -1 forward_v I I I I #
coedge $-1 $170 $249 $164 $250 forward $96 $-1 #
coedge $-1 $101 $98 $251 $252 reversed $61 $-1 #
coedge $-1 $98 $101 $162 $250 reversed $61 $-1 #
coedge $-1 $253 $254 $98 $166 forward $255 $-1 #
edge $-1 $256 -10.046968638774139 $257 10.046968638774139 $165 $258 forward 7 unknown #
coedge $-1 $100 $99 $248 $259 reversed $39 $-1 #
coedge $-1 $251 $260 $99 $169 forward $246 $-1 #
edge $-1 $261 -31.696490890669189 $173 -20.702635241441946 $168 $262 forward 7 unknown #
coedge $-1 $263 $162 $100 $171 forward $96 $-1 #
edge $-1 $172 20.702635241441946 $264 31.696490890669189 $170 $265 forward 7 unknown #
vertex $-1 $171 $266 #
vertex $-1 $169 $267 #
straight-curve $-1 -46.902198307497514 -32.194827845812618 0 0 0 -1 I I #
face $-1 $268 $269 $23 $-1 $270 reversed single #
loop $-1 $-1 $271 $103 #
plane-surface $-1 0 -36.078887129079554 0 0 1 0 0 0 1 forward_v I I I I #
coedge $-1 $186 $272 $180 $273 forward $104 $-1 #
coedge $-1 $109 $106 $274 $275 reversed $65 $-1 #
coedge $-1 $106 $109 $178 $273 reversed $65 $-1 #
coedge $-1 $276 $277 $106 $182 forward $278 $-1 #
edge $-1 $279 -10.046968638774139 $280 10.046968638774139 $181 $281 forward 7 unknown #
coedge $-1 $108 $107 $271 $282 reversed $42 $-1 #
coedge $-1 $274 $283 $107 $185 forward $269 $-1 #
edge $-1 $284 -19.010458385356511 $189 -15.126399102089575 $184 $285 forward 7 unknown #
coedge $-1 $286 $178 $108 $187 forward $104 $-1 #
edge $-1 $188 15.126399102089575 $287 19.010458385356511 $186 $288 forward 7 unknown #
vertex $-1 $187 $289 #
vertex $-1 $185 $290 #
straight-curve $-1 46.902198307497514 -32.194827845812618 0 0 0 -1 I I #
face $-1 $-1 $291 $24 $-1 $292 forward single #
loop $-1 $-1 $117 $111 #
plane-surface $-1 0 -36.078887129079554 0 0 1 0 0 0 1 forward_v I I I I #
coedge $-1 $293 $294 $115 $200 forward $112 $-1 #
coedge $-1 $196 $114 $116 $201 reversed $69 $-1 #
coedge $-1 $114 $195 $295 $296 reversed $69 $-1 #
coedge $-1 $297 $117 $114 $198 forward $192 $-1 #
edge $-1 $204 -36.82000993159226 $298 -27.56275255236519 $197 $299 forward 7 unknown #
coedge $-1 $116 $115 $300 $301 reversed $45 $-1 #
edge $-1 $302 -11.76281180958545 $203 0.32167932175932795 $194 $303 forward 7 unknown #
edge $-1 $304 -12.084491131344768 $204 1.1030930024383267e-014 $195 $305 forward 7 unknown #
coedge $-1 $117 $297 $293 $306 forward $192 $-1 #
vertex $-1 $118 $307 #
vertex $-1 $118 $308 #
straight-curve $-1 -18.513321255513986 -36.078887129079554 0.78971125954706645 1 0 0 I I #
coedge $-1 $206 $206 $-1 $309 reversed $121 $-1 #
edge $-1 $310 0 $310 6.2831853071796004 $122 $311 forward 7 unknown #
vertex $-1 $125 $312 #
ellipse-curve $-1 -42.951975988909695 -32.195006604452914 5.4183399491606039 0 -0.7660444514056185 0.64278759981090561 1 0 0 1 I I #
coedge $-1 $210 $210 $-1 $313 reversed $128 $-1 #
edge $-1 $314 0 $314 6.2831853071796004 $129 $315 forward 7 unknown #
vertex $-1 $132 $316 #
ellipse-curve $-1 -37.026642511027973 -32.195006604452914 5.4183399491606039 0 -0.7660444514056185 0.64278759981090561 1 0 0 1 I I #
coedge $-1 $214 $214 $-1 $317 reversed $135 $-1 #
edge $-1 $318 0 $318 6.2831853071796004 $136 $319 forward 7 unknown #
vertex $-1 $139 $320 #
ellipse-curve $-1 -31.101309033146244 -32.195006604452914 5.4183399491606039 0 -0.7660444514056185 0.64278759981090561 1 0 0 1 I I #
face $-1 $-1 $155 $21 $-1 $321 reversed single #
loop $-1 $-1 $234 $140 #
plane-surface $-1 0 36.078887129079554 0 0 -1 0 0 0 -1 forward_v I I I I #
coedge $-1 $322 $232 $235 $323 forward $141 $-1 #
coedge $-1 $238 $143 $144 $226 reversed $88 $-1 #
coedge $-1 $232 $322 $143 $224 reversed $141 $-1 #
edge $-1 $239 -10.046968638774139 $324 10.046968638774139 $223 $325 forward 7 unknown #
coedge $-1 $145 $144 $322 $326 forward $57 $-1 #
edge $-1 $230 -57.896053956724757 $324 57.896053956724757 $222 $327 forward 7 unknown #
coedge $-1 $235 $234 $145 $228 reversed $219 $-1 #
edge $-1 $328 -57.896053956724757 $229 57.896053956724757 $227 $329 forward 7 unknown #
vertex $-1 $147 $330 #
vertex $-1 $241 $331 #
straight-curve $-1 57.896053956724757 0 -10.046968638774139 0 -1 0 I I #
coedge $-1 $221 $223 $148 $233 reversed $141 $-1 #
edge $-1 $236 -36.078887129079554 $239 36.078887129079554 $232 $332 forward 7 unknown #
coedge $-1 $227 $149 $154 $242 forward $219 $-1 #
coedge $-1 $149 $227 $221 $323 reversed $219 $-1 #
vertex $-1 $150 $333 #
straight-curve $-1 0 36.078887129079554 10.046968638774139 -1 0 0 I I #
coedge $-1 $151 $222 $153 $241 reversed $88 $-1 #
vertex $-1 $233 $334 #
straight-curve $-1 0 -36.078887129079554 10.046968638774139 1 0 0 I I #
edge $-1 $156 -10.046968638774139 $230 10.046968638774139 $153 $335 forward 7 unknown #
edge $-1 $157 -10.046968638774139 $229 10.046968638774139 $154 $336 forward 7 unknown #
point $-1 57.896053956724757 -36.078887129079554 10.046968638774139 #
point $-1 57.896053956724757 36.078887129079554 10.046968638774139 #
face $-1 $-1 $255 $22 $-1 $337 reversed single #
loop $-1 $-1 $251 $159 #
plane-surface $-1 0 0 -10.046968638774139 0 0 1 1 0 0 forward_v I I I I #
coedge $-1 $338 $339 $167 $259 forward $160 $-1 #
coedge $-1 $162 $263 $253 $340 forward $96 $-1 #
edge $-1 $257 -19.010458385356511 $172 -15.126399102089575 $162 $341 forward 7 unknown #
coedge $-1 $342 $168 $163 $252 forward $246 $-1 #
edge $-1 $173 15.126399102089575 $256 19.010458385356511 $251 $343 forward 7 unknown #
coedge $-1 $344 $165 $249 $340 reversed $255 $-1 #
coedge $-1 $165 $344 $342 $345 reversed $255 $-1 #
loop $-1 $-1 $165 $245 #
vertex $-1 $345 $346 #
vertex $-1 $166 $347 #
straight-curve $-1 -46.902198307497514 -36.078887129079554 0 0 0 1 I I #
edge $-1 $264 -10.046968638774139 $261 10.046968638774139 $248 $348 forward 7 unknown #
coedge $-1 $168 $342 $338 $349 forward $246 $-1 #
vertex $-1 $169 $350 #
straight-curve $-1 -26.199563066055568 -32.194827845812618 -10.046968638774139 1 0 0 I I #
coedge $-1 $249 $170 $339 $351 forward $96 $-1 #
vertex $-1 $351 $352 #
straight-curve $-1 -26.199563066055568 -32.194827845812618 10.046968638774139 -1 0 0 I I #
point $-1 -46.902198307497514 -32.194827845812618 10.046968638774139 #
point $-1 -46.902198307497514 -32.194827845812618 -10.046968638774139 #
face $-1 $-1 $278 $23 $-1 $353 reversed single #
loop $-1 $-1 $274 $175 #
plane-surface $-1 0 0 -10.046968638774139 0 0 1 1 0 0 forward_v I I I I #
coedge $-1 $354 $355 $183 $282 forward $176 $-1 #
coedge $-1 $178 $286 $276 $356 forward $104 $-1 #
edge $-1 $280 -31.696490890669189 $188 -20.702635241441946 $178 $357 forward 7 unknown #
coedge $-1 $358 $184 $179 $275 forward $269 $-1 #
edge $-1 $189 20.702635241441946 $279 31.696490890669189 $274 $359 forward 7 unknown #
coedge $-1 $360 $181 $272 $356 reversed $278 $-1 #
coedge $-1 $181 $360 $358 $361 reversed $278 $-1 #
loop $-1 $-1 $181 $268 #
vertex $-1 $361 $362 #
vertex $-1 $182 $363 #
straight-curve $-1 57.896053956724757 -32.194827845812618 0 0 0 1 I I #
edge $-1 $287 -10.046968638774139 $284 10.046968638774139 $271 $364 forward 7 unknown #
coedge $-1 $184 $358 $354 $365 forward $269 $-1 #
vertex $-1 $185 $366 #
straight-curve $-1 46.902198307497514 -17.068428743723043 -10.046968638774139 0 1 0 I I #
coedge $-1 $272 $186 $355 $367 forward $104 $-1 #
vertex $-1 $367 $368 #
straight-curve $-1 46.902198307497514 -17.068428743723043 10.046968638774139 0 -1 0 I I #
point $-1 46.902198307497514 -32.194827845812618 10.046968638774139 #
point $-1 46.902198307497514 -32.194827845812618 -10.046968638774139 #
loop $-1 $-1 $369 $191 #
plane-surface $-1 0 0 10.046968638774139 0 0 1 1 0 0 forward_v I I I I #
coedge $-1 $294 $194 $202 $306 reversed $112 $-1 #
coedge $-1 $194 $293 $369 $370 reversed $112 $-1 #
coedge $-1 $300 $371 $196 $296 forward $291 $-1 #
edge $-1 $298 26.311507327289526 $304 34.079268376542814 $295 $372 forward 7 unknown #
coedge $-1 $202 $197 $371 $373 reversed $192 $-1 #
vertex $-1 $198 $374 #
straight-curve $-1 -27.151086714558428 -36.078887129079554 37.609721191139329 0 0 1 I I #
coedge $-1 $369 $295 $199 $301 forward $291 $-1 #
edge $-1 $304 8.6377654590444415 $302 28.388877051983528 $300 $375 forward 7 unknown #
vertex $-1 $370 $376 #
straight-curve $-1 -46.902198307497514 -35.872115649937072 1.0361319191127203 0 -0.64278759981090572 -0.76604445140561861 I I #
vertex $-1 $301 $377 #
straight-curve $-1 -27.151086714558428 -36.078887129079547 0.78971125954707588 0 -0.64278759981090561 -0.7660444514056185 I I #
edge $-1 $378 -10.046968638774139 $203 -0.78971125954706745 $202 $379 forward 7 unknown #
point $-1 -46.902198307497514 -36.078887129079554 0.78971125954706745 #
point $-1 -27.151086714558428 -36.078887129079554 0.78971125954706745 #
edge $-1 $380 1 $380 0 $206 $-1 forward 7 unknown #
vertex $-1 $207 $381 #
ellipse-curve $-1 -42.951975988909695 -29.82432965659881 3.4291058486562829 0 -0.7660444514056185 0.64278759981090561 1 0 0 1 I I #
point $-1 -41.951975988909695 -32.195006604452914 5.4183399491606039 #
edge $-1 $382 1 $382 0 $210 $-1 forward 7 unknown #
vertex $-1 $211 $383 #
ellipse-curve $-1 -37.026642511027973 -29.82432965659881 3.4291058486562829 0 -0.7660444514056185 0.64278759981090561 1 0 0 1 I I #
point $-1 -36.026642511027973 -32.195006604452914 5.4183399491606039 #
edge $-1 $384 1 $384 0 $214 $-1 forward 7 unknown #
vertex $-1 $215 $385 #
ellipse-curve $-1 -31.101309033146244 -29.82432965659881 3.4291058486562829 0 -0.7660444514056185 0.64278759981090561 1 0 0 1 I I #
point $-1 -30.101309033146244 -32.195006604452914 5.4183399491606039 #
plane-surface $-1 57.896053956724757 0 0 -1 0 0 0 0 1 forward_v I I I I #
coedge $-1 $223 $221 $225 $326 reversed $141 $-1 #
edge $-1 $236 -10.046968638774139 $328 10.046968638774139 $235 $386 forward 7 unknown #
vertex $-1 $326 $387 #
straight-curve $-1 -57.896053956724757 -36.078887129079554 0 0 0 -1 I I #
edge $-1 $324 -36.078887129079554 $328 36.078887129079554 $322 $388 forward 7 unknown #
straight-curve $-1 0 -36.078887129079554 -10.046968638774139 -1 0 0 I I #
vertex $-1 $228 $389 #
straight-curve $-1 0 36.078887129079554 -10.046968638774139 1 0 0 I I #
point $-1 57.896053956724757 36.078887129079554 -10.046968638774139 #
point $-1 57.896053956724757 -36.078887129079554 -10.046968638774139 #
straight-curve $-1 -57.896053956724757 0 10.046968638774139 0 -1 0 I I #
point $-1 -57.896053956724757 36.078887129079554 10.046968638774139 #
point $-1 -57.896053956724757 -36.078887129079554 10.046968638774139 #
straight-curve $-1 57.896053956724757 -36.078887129079554 0 0 0 -1 I I #
straight-curve $-1 57.896053956724757 36.078887129079554 0 0 0 -1 I I #
plane-surface $-1 0 -36.078887129079554 0 0 1 0 0 0 1 forward_v I I I I #
coedge $-1 $390 $248 $260 $349 reversed $160 $-1 #
coedge $-1 $248 $390 $263 $351 reversed $160 $-1 #
edge $-1 $391 -57.896053956724757 $257 -46.902198307497514 $253 $392 forward 7 unknown #
straight-curve $-1 -46.902198307497514 -17.068428743723043 10.046968638774139 0 1 0 I I #
coedge $-1 $260 $251 $254 $345 forward $246 $-1 #
straight-curve $-1 -46.902198307497514 -17.068428743723043 -10.046968638774139 0 -1 0 I I #
coedge $-1 $254 $253 $390 $393 forward $255 $-1 #
edge $-1 $256 46.902198307497514 $394 57.896053956724757 $254 $395 forward 7 unknown #
point $-1 -46.902198307497514 -36.078887129079554 -10.046968638774139 #
point $-1 -46.902198307497514 -36.078887129079554 10.046968638774139 #
straight-curve $-1 -57.896053956724757 -32.194827845812618 0 0 0 -1 I I #
edge $-1 $394 -36.078887129079554 $261 -32.194827845812618 $338 $396 forward 7 unknown #
point $-1 -57.896053956724757 -32.194827845812618 -10.046968638774139 #
edge $-1 $264 32.194827845812618 $391 36.078887129079554 $339 $397 forward 7 unknown #
point $-1 -57.896053956724757 -32.194827845812618 10.046968638774139 #
plane-surface $-1 57.896053956724757 0 0 -1 0 0 0 0 1 forward_v I I I I #
coedge $-1 $398 $271 $283 $365 reversed $176 $-1 #
coedge $-1 $271 $398 $286 $367 reversed $176 $-1 #
edge $-1 $399 -36.078887129079554 $280 -32.194827845812618 $276 $400 forward 7 unknown #
straight-curve $-1 26.199563066055568 -32.194827845812618 10.046968638774139 -1 0 0 I I #
coedge $-1 $283 $274 $277 $361 forward $269 $-1 #
straight-curve $-1 26.199563066055568 -32.194827845812618 -10.046968638774139 1 0 0 I I #
coedge $-1 $277 $276 $398 $401 forward $278 $-1 #
edge $-1 $279 32.194827845812618 $402 36.078887129079554 $277 $403 forward 7 unknown #
point $-1 57.896053956724757 -32.194827845812618 -10.046968638774139 #
point $-1 57.896053956724757 -32.194827845812618 10.046968638774139 #
straight-curve $-1 46.902198307497514 -36.078887129079554 0 0 0 -1 I I #
edge $-1 $402 -57.896053956724757 $284 -46.902198307497514 $354 $404 forward 7 unknown #
point $-1 46.902198307497514 -36.078887129079554 -10.046968638774139 #
edge $-1 $287 46.902198307497514 $399 57.896053956724757 $355 $405 forward 7 unknown #
point $-1 46.902198307497514 -36.078887129079554 10.046968638774139 #
coedge $-1 $371 $300 $294 $370 forward $291 $-1 #
edge $-1 $302 -34.079268376542814 $378 -26.311507327289526 $369 $406 forward 7 unknown #
coedge $-1 $295 $369 $297 $373 forward $291 $-1 #
straight-curve $-1 -27.151086714558428 -62.39039445636908 10.046968638774139 0 1 0 I I #
edge $-1 $378 -46.902198307497514 $298 -27.151086714558428 $297 $407 forward 7 unknown #
point $-1 -27.151086714558428 -36.078887129079554 10.046968638774139 #
straight-curve $-1 -18.513321255513986 -28.311126079826273 10.046968638774139 -1 0 0 I I #
point $-1 -46.902198307497514 -28.31112607982627 10.046968638774139 #
point $-1 -27.151086714558428 -28.31112607982627 10.046968638774139 #
vertex $-1 $373 $408 #
straight-curve $-1 -46.902198307497514 -36.078887129079554 0 0 0 -1 I I #
vertex $-1 $309 $409 #
point $-1 -41.951975988909695 -29.82432965659881 3.4291058486562829 #
vertex $-1 $313 $410 #
point $-1 -36.026642511027973 -29.82432965659881 3.4291058486562829 #
vertex $-1 $317 $411 #
point $-1 -30.101309033146244 -29.82432965659881 3.4291058486562829 #
straight-curve $-1 -57.896053956724757 36.078887129079554 0 0 0 -1 I I #
point $-1 -57.896053956724757 -36.078887129079554 -10.046968638774139 #
straight-curve $-1 -57.896053956724757 0 -10.046968638774139 0 1 0 I I #
point $-1 -57.896053956724757 36.078887129079554 -10.046968638774139 #
coedge $-1 $339 $338 $344 $393 reversed $160 $-1 #
vertex $-1 $351 $412 #
straight-curve $-1 0 -36.078887129079554 10.046968638774139 1 0 0 I I #
edge $-1 $391 -10.046968638774139 $394 10.046968638774139 $390 $413 forward 7 unknown #
vertex $-1 $349 $414 #
straight-curve $-1 0 -36.078887129079554 -10.046968638774139 -1 0 0 I I #
straight-curve $-1 -57.896053956724757 0 -10.046968638774139 0 1 0 I I #
straight-curve $-1 -57.896053956724757 0 10.046968638774139 0 -1 0 I I #
coedge $-1 $355 $354 $360 $401 reversed $176 $-1 #
vertex $-1 $356 $415 #
straight-curve $-1 57.896053956724757 0 10.046968638774139 0 1 0 I I #
edge $-1 $399 -10.046968638774139 $402 10.046968638774139 $360 $416 forward 7 unknown #
vertex $-1 $401 $417 #
straight-curve $-1 57.896053956724757 0 -10.046968638774139 0 -1 0 I I #
straight-curve $-1 0 -36.078887129079554 -10.046968638774139 -1 0 0 I I #
straight-curve $-1 0 -36.078887129079554 10.046968638774139 1 0 0 I I #
straight-curve $-1 -46.902198307497514 -62.39039445636908 10.046968638774139 0 -1 0 I I #
straight-curve $-1 0 -36.078887129079554 10.046968638774139 1 0 0 I I #
point $-1 -46.902198307497514 -36.078887129079554 10.046968638774139 #
point $-1 -42.951975988909695 -29.05828520519319 2.7863182488453777 #
point $-1 -37.026642511027973 -29.05828520519319 2.7863182488453777 #
point $-1 -31.101309033146244 -29.05828520519319 2.7863182488453777 #
point $-1 -57.896053956724757 -36.078887129079554 10.046968638774139 #
straight-curve $-1 -57.896053956724757 -36.078887129079554 0 0 0 -1 I I #
point $-1 -57.896053956724757 -36.078887129079554 -10.046968638774139 #
point $-1 57.896053956724757 -36.078887129079554 10.046968638774139 #
straight-curve $-1 57.896053956724757 -36.078887129079554 0 0 0 -1 I I #
point $-1 57.896053956724757 -36.078887129079554 -10.046968638774139 #
End-of-ACIS-data 