500 0 5 0           
7 Unknown 11 ACIS 5.0 NT 24 Thu Mar 25 15:39:27 1999 
-1 9.9999999999999995e-007 1e-010 
body $-1 $5 $-1 $6 #
body $-1 $7 $-1 $8 #
body $-1 $9 $-1 $10 #
body $-1 $11 $-1 $12 #
body $-1 $13 $-1 $14 #
lump $-1 $-1 $15 $0 #
transform $-1 1 0 0 0 1 0 0 0 1 64.540543839838861 34.337058401780531 11.092608356157342 1 rotate no_reflect no_shear #
lump $-1 $-1 $16 $1 #
transform $-1 1 0 0 0 1 0 0 0 1 64.540543839838861 34.337058401780531 11.092608356157342 1 rotate no_reflect no_shear #
lump $-1 $-1 $17 $2 #
transform $-1 1 0 0 0 1 0 0 0 1 64.540543839838861 34.337058401780531 11.092608356157342 1 rotate no_reflect no_shear #
lump $-1 $-1 $18 $3 #
transform $-1 1 0 0 0 1 0 0 0 1 64.540543839838861 34.337058401780531 11.092608356157342 1 rotate no_reflect no_shear #
lump $-1 $-1 $19 $4 #
transform $-1 1 0 0 0 1 0 0 0 1 64.540543839838861 34.337058401780531 11.092608356157342 1 rotate no_reflect no_shear #
shell $-1 $-1 $-1 $20 $-1 $5 #
shell $-1 $-1 $-1 $21 $-1 $7 #
shell $-1 $-1 $-1 $22 $-1 $9 #
shell $-1 $-1 $-1 $23 $-1 $11 #
shell $-1 $-1 $-1 $24 $-1 $13 #
face $-1 $25 $26 $15 $-1 $27 forward single #
face $-1 $28 $29 $16 $-1 $30 reversed single #
face $-1 $31 $32 $17 $-1 $33 forward single #
face $-1 $34 $35 $18 $-1 $36 reversed single #
face $-1 $37 $38 $19 $-1 $39 reversed single #
face $-1 $40 $41 $15 $-1 $42 reversed single #
loop $-1 $-1 $43 $20 #
plane-surface $-1 0 0 11.092608356157342 0 0 1 1 0 0 forward_v I I I I #
face $-1 $44 $45 $16 $-1 $46 forward single #
loop $-1 $-1 $47 $21 #
plane-surface $-1 0 -30.320015531840259 -5.7081553104703708 0 0 1 1 0 0 forward_v I I I I #
face $-1 $48 $49 $17 $-1 $50 forward single #
loop $-1 $-1 $51 $22 #
plane-surface $-1 -176.32804591701293 11.952744831086196 70.047576050894065 0 1 0 -0.86602541151947299 0 0.49999998660252726 forward_v I I I I #
face $-1 $52 $53 $18 $-1 $54 reversed single #
loop $-1 $55 $56 $23 #
cone-surface $-1 -61.199994846703369 16.978722075348514 7.3020833595356862 0.86602541151947299 0 -0.49999998660252726 0.74999997990379086 0 1.2990381172792094 1 I I 0 1 1.5 forward I I I I #
face $-1 $57 $58 $19 $-1 $59 reversed single #
loop $-1 $60 $61 $24 #
cone-surface $-1 -61.199994846703369 24.517687941741997 7.3020833595356862 0.86602541151947299 0 -0.49999998660252726 0.74999997990379086 0 1.2990381172792094 1 I I 0 1 1.5 forward I I I I #
face $-1 $62 $63 $15 $-1 $64 reversed single #
loop $-1 $-1 $65 $25 #
plane-surface $-1 0 0 -11.092608356157342 0 0 1 1 0 0 forward_v I I I I #
coedge $-1 $66 $67 $68 $69 forward $26 $-1 #
face $-1 $70 $71 $16 $-1 $72 reversed single #
loop $-1 $-1 $73 $28 #
plane-surface $-1 0 -26.302972661899986 -8.4003818333138565 0 -1 0 0 0 -1 forward_v I I I I #
coedge $-1 $74 $75 $76 $77 reversed $29 $-1 #
face $-1 $78 $79 $17 $-1 $80 forward single #
loop $-1 $-1 $81 $31 #
plane-surface $-1 -64.540543839838861 20.748205008545263 5.5070339404155533 -0.86602541151947299 0 0.49999998660252726 0.49999998660252726 0 0.86602541151947299 forward_v I I I I #
coedge $-1 $82 $83 $84 $85 reversed $32 $-1 #
face $-1 $86 $87 $18 $-1 $88 forward single #
loop $-1 $89 $90 $34 #
cone-surface $-1 -58.822343183575732 16.978722075348514 5.9293455808330293 0.86602541151947299 0 -0.49999998660252726 0.37499998995189543 0 0.64951905863960469 1 I I -0.70710678118654757 0.70710678118654757 0.75 forward I I I I #
loop $-1 $-1 $91 $23 #
coedge $-1 $56 $56 $92 $93 reversed $35 $-1 #
face $-1 $94 $95 $19 $-1 $96 reversed single #
loop $-1 $97 $98 $37 #
cone-surface $-1 -58.822343183575732 24.517687941741997 5.9293455808330293 0.86602541151947299 0 -0.49999998660252726 0.37499998995189543 0 0.64951905863960469 1 I I -0.70710678118654757 0.70710678118654757 0.75 forward I I I I #
loop $-1 $-1 $99 $24 #
coedge $-1 $61 $61 $100 $101 reversed $38 $-1 #
face $-1 $102 $103 $15 $-1 $104 reversed single #
loop $-1 $-1 $105 $40 #
plane-surface $-1 0 -34.337058401780531 0 0 1 0 0 0 1 forward_v I I I I #
coedge $-1 $106 $107 $108 $109 forward $41 $-1 #
coedge $-1 $110 $43 $111 $112 forward $26 $-1 #
coedge $-1 $43 $110 $113 $114 forward $26 $-1 #
coedge $-1 $115 $116 $43 $69 reversed $117 $-1 #
edge $-1 $118 -34.337058401780531 $119 34.337058401780531 $68 $120 forward 7 unknown #
face $-1 $121 $122 $16 $-1 $123 reversed single #
loop $-1 $-1 $124 $44 #
plane-surface $-1 0 -34.337058401780531 0 0 1 0 0 0 1 forward_v I I I I #
coedge $-1 $125 $126 $127 $128 reversed $45 $-1 #
coedge $-1 $129 $47 $124 $130 reversed $29 $-1 #
coedge $-1 $47 $129 $125 $131 reversed $29 $-1 #
coedge $-1 $127 $132 $47 $77 forward $133 $-1 #
edge $-1 $134 -19.177050635860404 $135 -11.142964895979857 $76 $136 forward 7 unknown #
face $-1 $137 $138 $17 $-1 $139 forward single #
loop $-1 $-1 $140 $48 #
plane-surface $-1 -176.32804591701293 29.543665186004329 70.047576050894065 0 -1 0 0.86602541151947299 0 -0.49999998660252726 forward_v I I I I #
coedge $-1 $141 $142 $143 $144 reversed $49 $-1 #
coedge $-1 $83 $51 $142 $145 forward $32 $-1 #
coedge $-1 $51 $82 $146 $147 reversed $32 $-1 #
coedge $-1 $148 $143 $51 $85 forward $138 $-1 #
edge $-1 $149 -26.848311895962517 $150 -23.623479118667603 $84 $151 forward 7 unknown #
face $-1 $152 $153 $18 $-1 $154 forward single #
loop $-1 $-1 $155 $52 #
plane-surface $-1 -176.32804591701293 11.952744831086196 70.047576050894065 0 1 0 -0.86602541151947299 0 0.49999998660252726 forward_v I I I I #
loop $-1 $-1 $156 $34 #
coedge $-1 $90 $90 $91 $157 forward $53 $-1 #
coedge $-1 $91 $91 $90 $157 reversed $55 $-1 #
coedge $-1 $92 $92 $56 $93 forward $153 $-1 #
edge $-1 $158 0 $158 6.2831853071796004 $92 $159 forward 7 unknown #
face $-1 $160 $161 $19 $-1 $162 reversed single #
loop $-1 $163 $164 $57 #
cone-surface $-1 -61.199994846703369 16.978722075348514 7.3020833595356862 0.86602541151947299 0 -0.49999998660252726 0.74999997990379086 0 1.2990381172792094 1 I I 0 1 1.5 forward I I I I #
loop $-1 $-1 $165 $37 #
coedge $-1 $98 $98 $99 $166 forward $58 $-1 #
coedge $-1 $99 $99 $98 $166 reversed $60 $-1 #
coedge $-1 $100 $100 $61 $101 forward $167 $-1 #
edge $-1 $168 0 $168 6.2831853071796004 $100 $169 forward 7 unknown #
face $-1 $170 $171 $15 $-1 $172 reversed single #
loop $-1 $-1 $173 $62 #
plane-surface $-1 -64.540543839838861 0 0 1 0 0 0 0 -1 forward_v I I I I #
coedge $-1 $174 $113 $175 $176 forward $63 $-1 #
coedge $-1 $177 $65 $174 $178 forward $41 $-1 #
coedge $-1 $65 $177 $179 $180 forward $41 $-1 #
coedge $-1 $116 $115 $65 $109 reversed $117 $-1 #
edge $-1 $181 -34.337058401780531 $182 34.337058401780531 $108 $183 forward 7 unknown #
coedge $-1 $67 $66 $184 $185 forward $26 $-1 #
coedge $-1 $186 $187 $66 $112 reversed $171 $-1 #
edge $-1 $119 -64.540543839838861 $188 64.540543839838861 $111 $189 forward 7 unknown #
coedge $-1 $105 $190 $67 $114 reversed $63 $-1 #
edge $-1 $191 -64.540543839838861 $118 64.540543839838861 $113 $192 forward 7 unknown #
coedge $-1 $108 $68 $190 $193 forward $117 $-1 #
coedge $-1 $68 $108 $186 $194 reversed $117 $-1 #
loop $-1 $-1 $115 $170 #
vertex $-1 $69 $195 #
vertex $-1 $69 $196 #
straight-curve $-1 64.540543839838861 0 11.092608356157342 0 1 0 I I #
face $-1 $197 $198 $16 $-1 $199 forward single #
loop $-1 $-1 $200 $70 #
plane-surface $-1 0 0 -11.092608356157342 0 0 1 1 0 0 forward_v I I I I #
coedge $-1 $201 $202 $74 $130 forward $71 $-1 #
coedge $-1 $203 $73 $75 $131 forward $45 $-1 #
coedge $-1 $73 $203 $200 $204 reversed $45 $-1 #
coedge $-1 $205 $76 $73 $128 forward $133 $-1 #
edge $-1 $135 1.5079643938134426 $206 6.8924174395004139 $127 $207 forward 7 unknown #
coedge $-1 $75 $74 $208 $209 reversed $29 $-1 #
edge $-1 $210 -64.540543839838861 $134 64.540543839838861 $124 $211 forward 7 unknown #
edge $-1 $135 -64.540543839838861 $212 64.540543839838861 $125 $213 forward 7 unknown #
coedge $-1 $76 $214 $201 $215 forward $133 $-1 #
loop $-1 $-1 $127 $216 #
vertex $-1 $130 $217 #
vertex $-1 $77 $218 #
straight-curve $-1 64.540543839838861 -15.160007765920129 -5.7081553104703708 0 1 0 I I #
face $-1 $219 $220 $17 $-1 $221 reversed single #
loop $-1 $-1 $222 $78 #
plane-surface $-1 0 0 11.092608356157342 0 0 1 1 0 0 forward_v I I I I #
coedge $-1 $223 $224 $222 $225 reversed $79 $-1 #
coedge $-1 $226 $81 $224 $227 reversed $49 $-1 #
coedge $-1 $81 $226 $82 $145 reversed $49 $-1 #
coedge $-1 $84 $222 $81 $144 forward $138 $-1 #
edge $-1 $228 -19.169562681731698 $149 -1.578642326813565 $143 $229 forward 7 unknown #
edge $-1 $149 -6.44966572740827 $230 0 $82 $231 forward 7 unknown #
coedge $-1 $232 $233 $83 $147 forward $234 $-1 #
edge $-1 $150 23.931179669289691 $230 29.516754085031479 $146 $235 forward 7 unknown #
coedge $-1 $236 $84 $233 $237 forward $138 $-1 #
vertex $-1 $144 $238 #
vertex $-1 $237 $239 #
straight-curve $-1 -88.164022958506465 11.952744831086196 11.092608356157342 -1 0 0 I I #
face $-1 $240 $241 $18 $-1 $242 forward single #
loop $-1 $243 $92 $86 #
plane-surface $-1 -64.540543839838861 20.748205008545263 5.5070339404155533 -0.86602541151947299 0 0.49999998660252726 0.49999998660252726 0 0.86602541151947299 forward_v I I I I #
coedge $-1 $244 $245 $246 $247 reversed $87 $-1 #
coedge $-1 $156 $156 $-1 $248 forward $89 $-1 #
edge $-1 $249 0 $249 6.2831853071796004 $90 $250 forward 7 unknown #
vertex $-1 $93 $251 #
ellipse-curve $-1 -62.928127451191401 16.978722075348514 8.2998211482864477 0.86602541151947299 0 -0.49999998660252726 0.74999997990379086 0 1.2990381172792094 1 I I #
face $-1 $252 $253 $19 $-1 $254 forward single #
loop $-1 $255 $256 $94 #
cone-surface $-1 -58.822343183575732 16.978722075348514 5.9293455808330293 0.86602541151947299 0 -0.49999998660252726 0.37499998995189543 0 0.64951905863960469 1 I I -0.70710678118654757 0.70710678118654757 0.75 forward I I I I #
loop $-1 $-1 $257 $57 #
coedge $-1 $164 $164 $258 $259 reversed $95 $-1 #
coedge $-1 $165 $165 $-1 $260 forward $97 $-1 #
edge $-1 $261 0 $261 6.2831853071796004 $98 $262 forward 7 unknown #
loop $-1 $263 $100 $252 #
vertex $-1 $101 $264 #
ellipse-curve $-1 -62.928127451191401 24.517687941741997 8.2998211482864477 0.86602541151947299 0 -0.49999998660252726 0.74999997990379086 0 1.2990381172792094 1 I I #
face $-1 $-1 $117 $15 $-1 $265 reversed single #
loop $-1 $-1 $186 $102 #
plane-surface $-1 0 34.337058401780531 0 0 -1 0 0 0 -1 forward_v I I I I #
coedge $-1 $266 $184 $187 $267 forward $103 $-1 #
coedge $-1 $190 $105 $106 $178 reversed $63 $-1 #
coedge $-1 $184 $266 $105 $176 reversed $103 $-1 #
edge $-1 $191 -11.092608356157342 $268 11.092608356157342 $175 $269 forward 7 unknown #
coedge $-1 $107 $106 $266 $270 forward $41 $-1 #
edge $-1 $182 -64.540543839838861 $268 64.540543839838861 $174 $271 forward 7 unknown #
coedge $-1 $187 $186 $107 $180 reversed $171 $-1 #
edge $-1 $272 -64.540543839838861 $181 64.540543839838861 $179 $273 forward 7 unknown #
vertex $-1 $109 $274 #
vertex $-1 $193 $275 #
straight-curve $-1 64.540543839838861 0 -11.092608356157342 0 -1 0 I I #
coedge $-1 $173 $175 $110 $185 reversed $103 $-1 #
edge $-1 $188 -34.337058401780531 $191 34.337058401780531 $184 $276 forward 7 unknown #
coedge $-1 $179 $111 $116 $194 forward $171 $-1 #
coedge $-1 $111 $179 $173 $267 reversed $171 $-1 #
vertex $-1 $112 $277 #
straight-curve $-1 0 34.337058401780531 11.092608356157342 -1 0 0 I I #
coedge $-1 $113 $174 $115 $193 reversed $63 $-1 #
vertex $-1 $185 $278 #
straight-curve $-1 0 -34.337058401780531 11.092608356157342 1 0 0 I I #
edge $-1 $118 -11.092608356157342 $182 11.092608356157342 $115 $279 forward 7 unknown #
edge $-1 $119 -11.092608356157342 $181 11.092608356157342 $116 $280 forward 7 unknown #
point $-1 64.540543839838861 -34.337058401780531 11.092608356157342 #
point $-1 64.540543839838861 34.337058401780531 11.092608356157342 #
face $-1 $281 $282 $16 $-1 $283 reversed single #
loop $-1 $-1 $284 $121 #
plane-surface $-1 0 0 11.092608356157342 0 0 1 1 0 0 forward_v I I I I #
coedge $-1 $285 $286 $126 $204 forward $122 $-1 #
coedge $-1 $287 $124 $132 $215 reversed $71 $-1 #
coedge $-1 $124 $287 $288 $289 forward $71 $-1 #
coedge $-1 $126 $125 $290 $291 reversed $45 $-1 #
edge $-1 $206 -64.540543839838861 $292 64.540543839838861 $200 $293 forward 7 unknown #
coedge $-1 $294 $127 $286 $295 reversed $133 $-1 #
vertex $-1 $204 $296 #
straight-curve $-1 64.540543839838861 -26.302972661899986 -4.2001909166569282 0 0 -1 I I #
coedge $-1 $288 $290 $129 $209 forward $282 $-1 #
edge $-1 $212 11.142964895979857 $210 19.177050635860404 $208 $297 forward 7 unknown #
vertex $-1 $130 $298 #
straight-curve $-1 0 -34.337058401780531 -5.7081553104703708 1 0 0 I I #
vertex $-1 $209 $299 #
straight-curve $-1 0 -26.302972661899986 -5.7081553104703708 -1 0 0 I I #
coedge $-1 $132 $294 $284 $300 reversed $133 $-1 #
edge $-1 $301 -11.092608356157342 $134 5.7081553104703708 $132 $302 forward 7 unknown #
face $-1 $-1 $133 $16 $-1 $303 reversed single #
point $-1 64.540543839838861 -34.337058401780531 -5.7081553104703708 #
point $-1 64.540543839838861 -26.302972661899986 -5.7081553104703708 #
face $-1 $304 $305 $17 $-1 $306 forward single #
loop $-1 $-1 $307 $137 #
plane-surface $-1 0 -30.320015531840259 -5.7081553104703708 0 0 1 1 0 0 forward_v I I I I #
coedge $-1 $143 $308 $140 $225 forward $138 $-1 #
coedge $-1 $224 $140 $309 $310 reversed $79 $-1 #
coedge $-1 $140 $223 $141 $227 forward $79 $-1 #
edge $-1 $311 23.623479118667603 $228 26.848311895962517 $222 $312 forward 7 unknown #
coedge $-1 $142 $141 $232 $313 reversed $49 $-1 #
edge $-1 $314 0 $228 6.44966572740827 $224 $315 forward 7 unknown #
vertex $-1 $144 $316 #
straight-curve $-1 -61.31571106254394 10.374102504272631 11.092608356157342 0 -1 0 I I #
vertex $-1 $313 $317 #
straight-curve $-1 -64.540543839838861 11.952744831086196 5.5070339404155533 -0.49999998660252726 0 -0.86602541151947299 I I #
coedge $-1 $309 $146 $226 $313 forward $234 $-1 #
coedge $-1 $146 $318 $148 $237 reversed $234 $-1 #
loop $-1 $-1 $309 $319 #
straight-curve $-1 -64.540543839838861 11.952744831086196 35.023788025447033 0 0 -1 I I #
coedge $-1 $320 $148 $321 $322 forward $138 $-1 #
edge $-1 $150 -11.952744831086196 $323 34.337058401780531 $233 $324 forward 7 unknown #
point $-1 -61.315711062543947 11.952744831086196 11.092608356157342 #
point $-1 -64.540543839838861 11.952744831086196 11.092608356157342 #
face $-1 $325 $326 $18 $-1 $327 forward single #
loop $-1 $-1 $328 $152 #
plane-surface $-1 -176.32804591701293 29.543665186004329 70.047576050894065 0 -1 0 0.86602541151947299 0 -0.49999998660252726 forward_v I I I I #
loop $-1 $-1 $329 $86 #
coedge $-1 $245 $155 $330 $331 forward $87 $-1 #
coedge $-1 $155 $244 $332 $333 reversed $87 $-1 #
coedge $-1 $334 $335 $155 $247 forward $326 $-1 #
edge $-1 $336 -26.848311895962517 $337 -23.623479118667603 $246 $338 forward 7 unknown #
edge $-1 $339 1 $339 0 $156 $-1 forward 7 unknown #
vertex $-1 $157 $340 #
ellipse-curve $-1 -59.471862242215337 16.978722075348514 6.3043455707849247 -0.86602541151947299 0 0.49999998660252726 0.74999997990379086 0 1.2990381172792094 1 I I #
point $-1 -62.17812747128761 16.978722075348514 9.5988592655656575 #
face $-1 $341 $167 $19 $-1 $342 forward single #
loop $-1 $-1 $343 $160 #
plane-surface $-1 -176.32804591701293 11.952744831086196 70.047576050894065 0 1 0 -0.86602541151947299 0 0.49999998660252726 forward_v I I I I #
loop $-1 $-1 $344 $94 #
coedge $-1 $256 $256 $257 $345 forward $161 $-1 #
coedge $-1 $257 $257 $256 $345 reversed $163 $-1 #
coedge $-1 $258 $258 $164 $259 forward $263 $-1 #
edge $-1 $346 0 $346 6.2831853071796004 $258 $347 forward 7 unknown #
edge $-1 $348 1 $348 0 $165 $-1 forward 7 unknown #
vertex $-1 $166 $349 #
ellipse-curve $-1 -59.471862242215337 24.517687941741997 6.3043455707849247 -0.86602541151947299 0 0.49999998660252726 0.74999997990379086 0 1.2990381172792094 1 I I #
loop $-1 $350 $258 $252 #
point $-1 -62.17812747128761 24.517687941741997 9.5988592655656575 #
plane-surface $-1 64.540543839838861 0 0 -1 0 0 0 0 1 forward_v I I I I #
coedge $-1 $175 $173 $177 $270 reversed $103 $-1 #
edge $-1 $188 -11.092608356157342 $272 11.092608356157342 $187 $351 forward 7 unknown #
vertex $-1 $270 $352 #
straight-curve $-1 -64.540543839838861 -34.337058401780531 0 0 0 -1 I I #
edge $-1 $268 -34.337058401780531 $272 34.337058401780531 $266 $353 forward 7 unknown #
straight-curve $-1 0 -34.337058401780531 -11.092608356157342 -1 0 0 I I #
vertex $-1 $180 $354 #
straight-curve $-1 0 34.337058401780531 -11.092608356157342 1 0 0 I I #
point $-1 64.540543839838861 34.337058401780531 -11.092608356157342 #
point $-1 64.540543839838861 -34.337058401780531 -11.092608356157342 #
straight-curve $-1 -64.540543839838861 0 11.092608356157342 0 -1 0 I I #
point $-1 -64.540543839838861 34.337058401780531 11.092608356157342 #
point $-1 -64.540543839838861 -34.337058401780531 11.092608356157342 #
straight-curve $-1 64.540543839838861 -34.337058401780531 0 0 0 -1 I I #
straight-curve $-1 64.540543839838861 34.337058401780531 0 0 0 -1 I I #
face $-1 $216 $355 $16 $-1 $356 reversed single #
loop $-1 $-1 $208 $197 #
plane-surface $-1 -64.540543839838861 0 0 1 0 0 0 0 -1 forward_v I I I I #
coedge $-1 $357 $358 $214 $300 forward $198 $-1 #
coedge $-1 $359 $200 $360 $361 forward $122 $-1 #
coedge $-1 $200 $359 $205 $295 forward $122 $-1 #
coedge $-1 $202 $201 $358 $362 reversed $71 $-1 #
coedge $-1 $363 $208 $202 $289 reversed $282 $-1 #
edge $-1 $364 -11.092608356157342 $210 5.7081553104703708 $288 $365 forward 7 unknown #
coedge $-1 $208 $360 $203 $291 forward $282 $-1 #
edge $-1 $292 -6.8924174395004139 $212 -1.5079643938134426 $290 $366 forward 7 unknown #
vertex $-1 $361 $367 #
straight-curve $-1 0 -26.302972661899986 -11.092608356157342 -1 0 0 I I #
coedge $-1 $214 $205 $368 $369 reversed $133 $-1 #
edge $-1 $370 -34.337058401780531 $206 26.302972661899986 $205 $371 forward 7 unknown #
point $-1 64.540543839838861 -26.302972661899986 -11.092608356157342 #
straight-curve $-1 -64.540543839838861 -15.160007765920129 -5.7081553104703708 0 -1 0 I I #
point $-1 -64.540543839838861 -34.337058401780531 -5.7081553104703708 #
point $-1 -64.540543839838861 -26.302972661899986 -5.7081553104703708 #
edge $-1 $301 -34.337058401780531 $372 34.337058401780531 $214 $373 forward 7 unknown #
vertex $-1 $300 $374 #
straight-curve $-1 64.540543839838861 -34.337058401780531 0 0 0 -1 I I #
plane-surface $-1 64.540543839838861 0 0 -1 0 0 0 0 1 forward_v I I I I #
face $-1 $375 $376 $17 $-1 $377 reversed single #
loop $-1 $-1 $378 $219 #
plane-surface $-1 0 -26.302972661899986 -8.4003818333138565 0 -1 0 0 0 -1 forward_v I I I I #
coedge $-1 $379 $380 $381 $382 reversed $220 $-1 #
coedge $-1 $222 $383 $384 $385 forward $138 $-1 #
coedge $-1 $384 $232 $223 $310 forward $234 $-1 #
edge $-1 $314 -29.516754085031479 $311 -23.931179669289691 $309 $386 forward 7 unknown #
vertex $-1 $310 $387 #
straight-curve $-1 -88.164022958506465 29.543665186004329 11.092608356157342 1 0 0 I I #
edge $-1 $230 1.578642326813565 $314 19.169562681731698 $232 $388 forward 7 unknown #
vertex $-1 $313 $389 #
straight-curve $-1 -64.540543839838861 29.543665186004329 5.5070339404155533 0.49999998660252726 0 0.86602541151947299 I I #
point $-1 -61.315711062543947 29.543665186004329 11.092608356157342 #
point $-1 -64.540543839838861 11.952744831086196 5.5070339404155533 #
coedge $-1 $233 $390 $391 $392 reversed $234 $-1 #
face $-1 $393 $234 $17 $-1 $394 reversed single #
coedge $-1 $383 $236 $395 $396 forward $138 $-1 #
coedge $-1 $391 $397 $236 $322 reversed $376 $-1 #
edge $-1 $323 -64.540543839838861 $398 64.540543839838861 $321 $399 forward 7 unknown #
vertex $-1 $237 $400 #
straight-curve $-1 -64.540543839838861 0 11.092608356157342 0 -1 0 I I #
face $-1 $401 $402 $18 $-1 $403 reversed single #
loop $-1 $-1 $404 $240 #
plane-surface $-1 0 0 11.092608356157342 0 0 1 1 0 0 forward_v I I I I #
coedge $-1 $405 $406 $404 $407 reversed $241 $-1 #
coedge $-1 $408 $330 $335 $409 reversed $243 $-1 #
coedge $-1 $329 $410 $244 $331 reversed $243 $-1 #
edge $-1 $336 -6.44966572740827 $411 0 $244 $412 forward 7 unknown #
coedge $-1 $413 $414 $245 $333 forward $415 $-1 #
edge $-1 $337 23.931179669289691 $411 29.516754085031479 $332 $416 forward 7 unknown #
coedge $-1 $417 $246 $414 $418 forward $326 $-1 #
coedge $-1 $246 $404 $329 $409 forward $326 $-1 #
vertex $-1 $409 $419 #
vertex $-1 $418 $420 #
straight-curve $-1 -88.164022958506465 11.952744831086196 11.092608356157342 -1 0 0 I I #
vertex $-1 $248 $421 #
point $-1 -58.721862262311546 16.978722075348514 7.6033836880641346 #
face $-1 $422 $423 $19 $-1 $424 forward single #
plane-surface $-1 -64.540543839838861 20.748205008545263 5.5070339404155533 -0.86602541151947299 0 0.49999998660252726 0.49999998660252726 0 0.86602541151947299 forward_v I I I I #
coedge $-1 $425 $426 $427 $428 reversed $253 $-1 #
coedge $-1 $344 $344 $-1 $429 forward $255 $-1 #
edge $-1 $430 0 $430 6.2831853071796004 $256 $431 forward 7 unknown #
vertex $-1 $259 $432 #
ellipse-curve $-1 -62.928127451191401 16.978722075348514 8.2998211482864477 0.86602541151947299 0 -0.49999998660252726 0.74999997990379086 0 1.2990381172792094 1 I I #
vertex $-1 $260 $433 #
point $-1 -58.721862262311546 24.517687941741997 7.6033836880641346 #
loop $-1 $-1 $434 $252 #
straight-curve $-1 -64.540543839838861 34.337058401780531 0 0 0 -1 I I #
point $-1 -64.540543839838861 -34.337058401780531 -11.092608356157342 #
straight-curve $-1 -64.540543839838861 0 -11.092608356157342 0 1 0 I I #
point $-1 -64.540543839838861 34.337058401780531 -11.092608356157342 #
loop $-1 $-1 $368 $281 #
plane-surface $-1 0 34.337058401780531 0 0 -1 0 0 0 -1 forward_v I I I I #
coedge $-1 $435 $284 $436 $437 forward $198 $-1 #
coedge $-1 $284 $435 $287 $362 forward $198 $-1 #
coedge $-1 $286 $285 $438 $439 forward $122 $-1 #
coedge $-1 $290 $440 $285 $361 reversed $282 $-1 #
edge $-1 $292 -26.302972661899986 $441 34.337058401780531 $360 $442 forward 7 unknown #
edge $-1 $364 -64.540543839838861 $301 64.540543839838861 $287 $443 forward 7 unknown #
coedge $-1 $440 $288 $435 $444 reversed $282 $-1 #
vertex $-1 $444 $445 #
straight-curve $-1 -64.540543839838861 -34.337058401780531 0 0 0 -1 I I #
straight-curve $-1 -64.540543839838861 -26.302972661899986 -4.2001909166569282 0 0 1 I I #
point $-1 -64.540543839838861 -26.302972661899986 -11.092608356157342 #
coedge $-1 $438 $436 $294 $369 forward $355 $-1 #
edge $-1 $372 -11.092608356157342 $370 11.092608356157342 $294 $446 forward 7 unknown #
vertex $-1 $295 $447 #
straight-curve $-1 64.540543839838861 0 -11.092608356157342 0 -1 0 I I #
vertex $-1 $300 $448 #
straight-curve $-1 64.540543839838861 0 11.092608356157342 0 1 0 I I #
point $-1 64.540543839838861 -34.337058401780531 11.092608356157342 #
face $-1 $319 $449 $17 $-1 $450 reversed single #
loop $-1 $-1 $451 $304 #
plane-surface $-1 0 -34.337058401780531 0 0 1 0 0 0 1 forward_v I I I I #
coedge $-1 $452 $453 $454 $455 reversed $305 $-1 #
coedge $-1 $456 $307 $451 $457 reversed $220 $-1 #
coedge $-1 $307 $456 $452 $458 reversed $220 $-1 #
coedge $-1 $454 $459 $307 $382 forward $460 $-1 #
edge $-1 $461 -19.177050635860404 $462 -11.142964895979857 $381 $463 forward 7 unknown #
coedge $-1 $308 $320 $464 $465 forward $138 $-1 #
coedge $-1 $466 $309 $308 $385 reversed $234 $-1 #
edge $-1 $467 -34.337058401780531 $311 -29.543665186004329 $384 $324 forward 7 unknown #
straight-curve $-1 -64.540543839838861 29.543665186004329 35.023788025447033 0 0 1 I I #
point $-1 -64.540543839838861 29.543665186004329 11.092608356157342 #
straight-curve $-1 -64.540543839838861 10.374102504272631 5.5070339404155604 0 1 0 I I #
point $-1 -64.540543839838861 29.543665186004329 5.5070339404155533 #
coedge $-1 $318 $468 $456 $469 forward $234 $-1 #
coedge $-1 $451 $321 $318 $392 forward $376 $-1 #
edge $-1 $323 -11.092608356157342 $470 5.7081553104703708 $318 $471 forward 7 unknown #
face $-1 $472 $473 $17 $-1 $474 reversed single #
plane-surface $-1 -64.540543839838861 0 0 1 0 0 0 0 -1 forward_v I I I I #
coedge $-1 $459 $475 $320 $396 reversed $460 $-1 #
edge $-1 $398 -34.337058401780531 $476 34.337058401780531 $395 $477 forward 7 unknown #
coedge $-1 $321 $451 $459 $478 reversed $376 $-1 #
vertex $-1 $396 $479 #
straight-curve $-1 0 -34.337058401780531 11.092608356157342 1 0 0 I I #
point $-1 -64.540543839838861 -34.337058401780531 11.092608356157342 #
face $-1 $480 $481 $18 $-1 $482 forward single #
loop $-1 $-1 $483 $325 #
plane-surface $-1 0 -30.320015531840259 -5.7081553104703708 0 0 1 1 0 0 forward_v I I I I #
coedge $-1 $335 $484 $328 $407 forward $326 $-1 #
coedge $-1 $406 $328 $485 $486 reversed $241 $-1 #
coedge $-1 $328 $405 $408 $487 forward $241 $-1 #
edge $-1 $488 23.623479118667603 $489 26.848311895962517 $404 $490 forward 7 unknown #
coedge $-1 $410 $329 $406 $487 reversed $243 $-1 #
edge $-1 $489 -19.169562681731698 $336 -1.578642326813565 $335 $491 forward 7 unknown #
coedge $-1 $330 $408 $413 $492 reversed $243 $-1 #
vertex $-1 $492 $493 #
straight-curve $-1 -64.540543839838861 11.952744831086196 5.5070339404155533 -0.49999998660252726 0 -0.86602541151947299 I I #
coedge $-1 $485 $332 $410 $492 forward $415 $-1 #
coedge $-1 $332 $494 $334 $418 reversed $415 $-1 #
loop $-1 $-1 $485 $495 #
straight-curve $-1 -64.540543839838861 11.952744831086196 35.023788025447033 0 0 -1 I I #
coedge $-1 $496 $334 $497 $498 forward $326 $-1 #
edge $-1 $337 -11.952744831086196 $499 34.337058401780531 $414 $500 forward 7 unknown #
point $-1 -61.315711062543947 11.952744831086196 11.092608356157342 #
point $-1 -64.540543839838861 11.952744831086196 11.092608356157342 #
point $-1 -58.172824124936128 16.978722075348514 5.5543455908811339 #
face $-1 $501 $502 $19 $-1 $503 forward single #
loop $-1 $-1 $504 $341 #
plane-surface $-1 -176.32804591701293 29.543665186004329 70.047576050894065 0 -1 0 0.86602541151947299 0 -0.49999998660252726 forward_v I I I I #
coedge $-1 $426 $343 $505 $506 forward $253 $-1 #
coedge $-1 $343 $425 $507 $508 reversed $253 $-1 #
coedge $-1 $509 $510 $343 $428 forward $502 $-1 #
edge $-1 $511 -26.848311895962517 $512 -23.623479118667603 $427 $513 forward 7 unknown #
edge $-1 $514 1 $514 0 $344 $-1 forward 7 unknown #
vertex $-1 $345 $515 #
ellipse-curve $-1 -59.471862242215337 16.978722075348514 6.3043455707849247 -0.86602541151947299 0 0.49999998660252726 0.74999997990379086 0 1.2990381172792094 1 I I #
point $-1 -62.17812747128761 16.978722075348514 9.5988592655656575 #
point $-1 -58.172824124936128 24.517687941741997 5.5543455908811339 #
coedge $-1 $516 $505 $510 $517 reversed $350 $-1 #
coedge $-1 $358 $357 $363 $444 forward $198 $-1 #
coedge $-1 $368 $518 $357 $437 reversed $355 $-1 #
edge $-1 $372 -64.540543839838861 $519 64.540543839838861 $436 $520 forward 7 unknown #
coedge $-1 $518 $368 $359 $439 reversed $355 $-1 #
edge $-1 $441 -64.540543839838861 $370 64.540543839838861 $438 $521 forward 7 unknown #
coedge $-1 $360 $363 $518 $522 forward $282 $-1 #
vertex $-1 $439 $523 #
straight-curve $-1 -64.540543839838861 0 -11.092608356157342 0 1 0 I I #
straight-curve $-1 0 -34.337058401780531 11.092608356157342 1 0 0 I I #
edge $-1 $519 -34.337058401780531 $364 34.337058401780531 $363 $524 forward 7 unknown #
point $-1 -64.540543839838861 -34.337058401780531 11.092608356157342 #
straight-curve $-1 64.540543839838861 34.337058401780531 0 0 0 -1 I I #
point $-1 64.540543839838861 34.337058401780531 -11.092608356157342 #
point $-1 64.540543839838861 34.337058401780531 11.092608356157342 #
loop $-1 $-1 $525 $375 #
plane-surface $-1 0 0 -11.092608356157342 0 0 1 1 0 0 forward_v I I I I #
coedge $-1 $397 $391 $379 $457 forward $376 $-1 #
coedge $-1 $526 $378 $380 $458 forward $305 $-1 #
coedge $-1 $378 $526 $525 $527 reversed $305 $-1 #
coedge $-1 $528 $381 $378 $455 forward $460 $-1 #
edge $-1 $462 1.5079643938134426 $529 6.8924174395004139 $454 $530 forward 7 unknown #
coedge $-1 $380 $379 $390 $469 reversed $220 $-1 #
edge $-1 $470 -64.540543839838861 $461 64.540543839838861 $451 $531 forward 7 unknown #
edge $-1 $462 -64.540543839838861 $532 64.540543839838861 $452 $533 forward 7 unknown #
coedge $-1 $381 $395 $397 $478 forward $460 $-1 #
loop $-1 $-1 $454 $472 #
vertex $-1 $457 $534 #
vertex $-1 $382 $535 #
straight-curve $-1 64.540543839838861 -15.160007765920129 -5.7081553104703708 0 1 0 I I #
coedge $-1 $536 $537 $383 $465 reversed $473 $-1 #
edge $-1 $476 -64.540543839838861 $467 64.540543839838861 $464 $538 forward 7 unknown #
coedge $-1 $539 $384 $537 $540 forward $234 $-1 #
vertex $-1 $465 $541 #
coedge $-1 $390 $539 $526 $542 forward $234 $-1 #
edge $-1 $532 11.142964895979857 $470 19.177050635860404 $390 $543 forward 7 unknown #
vertex $-1 $457 $544 #
straight-curve $-1 -64.540543839838861 -34.337058401780531 0 0 0 -1 I I #
face $-1 $-1 $460 $17 $-1 $545 reversed single #
loop $-1 $-1 $536 $393 #
plane-surface $-1 0 34.337058401780531 0 0 -1 0 0 0 -1 forward_v I I I I #
coedge $-1 $395 $528 $536 $546 reversed $460 $-1 #
vertex $-1 $396 $547 #
straight-curve $-1 64.540543839838861 0 11.092608356157342 0 1 0 I I #
edge $-1 $398 -11.092608356157342 $461 5.7081553104703708 $459 $548 forward 7 unknown #
point $-1 64.540543839838861 -34.337058401780531 11.092608356157342 #
face $-1 $549 $550 $18 $-1 $551 reversed single #
loop $-1 $-1 $552 $401 #
plane-surface $-1 0 -26.302972661899986 -8.4003818333138565 0 -1 0 0 0 -1 forward_v I I I I #
coedge $-1 $553 $554 $555 $556 reversed $402 $-1 #
coedge $-1 $404 $557 $558 $559 forward $326 $-1 #
coedge $-1 $558 $413 $405 $486 forward $415 $-1 #
edge $-1 $560 -29.516754085031479 $488 -23.931179669289691 $485 $561 forward 7 unknown #
edge $-1 $560 0 $489 6.44966572740827 $406 $562 forward 7 unknown #
vertex $-1 $486 $563 #
vertex $-1 $409 $564 #
straight-curve $-1 -88.164022958506465 29.543665186004329 11.092608356157342 1 0 0 I I #
straight-curve $-1 -61.31571106254394 10.374102504272631 11.092608356157342 0 -1 0 I I #
edge $-1 $411 1.578642326813565 $560 19.169562681731698 $413 $565 forward 7 unknown #
point $-1 -64.540543839838861 11.952744831086196 5.5070339404155533 #
coedge $-1 $414 $566 $567 $568 reversed $415 $-1 #
face $-1 $569 $415 $18 $-1 $570 reversed single #
coedge $-1 $557 $417 $571 $572 forward $326 $-1 #
coedge $-1 $567 $573 $417 $498 reversed $550 $-1 #
edge $-1 $499 -64.540543839838861 $574 64.540543839838861 $497 $575 forward 7 unknown #
vertex $-1 $418 $576 #
straight-curve $-1 -64.540543839838861 0 11.092608356157342 0 -1 0 I I #
face $-1 $577 $578 $19 $-1 $579 reversed single #
loop $-1 $-1 $580 $422 #
plane-surface $-1 0 0 11.092608356157342 0 0 1 1 0 0 forward_v I I I I #
coedge $-1 $581 $582 $580 $583 reversed $423 $-1 #
coedge $-1 $434 $584 $425 $506 reversed $350 $-1 #
edge $-1 $511 -6.44966572740827 $585 0 $425 $586 forward 7 unknown #
coedge $-1 $587 $588 $426 $508 forward $589 $-1 #
edge $-1 $512 23.931179669289691 $585 29.516754085031479 $507 $590 forward 7 unknown #
coedge $-1 $591 $427 $588 $592 forward $502 $-1 #
coedge $-1 $427 $580 $434 $517 forward $502 $-1 #
vertex $-1 $517 $593 #
vertex $-1 $592 $594 #
straight-curve $-1 -88.164022958506465 11.952744831086196 11.092608356157342 -1 0 0 I I #
vertex $-1 $429 $595 #
point $-1 -58.721862262311546 16.978722075348514 7.6033836880641346 #
coedge $-1 $584 $434 $582 $596 reversed $350 $-1 #
edge $-1 $597 -19.169562681731698 $511 -1.578642326813565 $510 $598 forward 7 unknown #
coedge $-1 $436 $438 $440 $522 reversed $355 $-1 #
vertex $-1 $437 $599 #
straight-curve $-1 0 34.337058401780531 11.092608356157342 -1 0 0 I I #
straight-curve $-1 0 34.337058401780531 -11.092608356157342 1 0 0 I I #
edge $-1 $519 -11.092608356157342 $441 11.092608356157342 $518 $600 forward 7 unknown #
point $-1 -64.540543839838861 34.337058401780531 -11.092608356157342 #
straight-curve $-1 -64.540543839838861 0 11.092608356157342 0 -1 0 I I #
coedge $-1 $601 $602 $453 $527 forward $449 $-1 #
coedge $-1 $453 $452 $468 $542 reversed $305 $-1 #
edge $-1 $529 -64.540543839838861 $603 64.540543839838861 $525 $604 forward 7 unknown #
coedge $-1 $475 $454 $602 $605 reversed $460 $-1 #
vertex $-1 $527 $606 #
straight-curve $-1 64.540543839838861 -26.302972661899986 -4.2001909166569282 0 0 -1 I I #
straight-curve $-1 0 -34.337058401780531 -5.7081553104703708 1 0 0 I I #
vertex $-1 $469 $607 #
straight-curve $-1 0 -26.302972661899986 -5.7081553104703708 -1 0 0 I I #
point $-1 64.540543839838861 -34.337058401780531 -5.7081553104703708 #
point $-1 64.540543839838861 -26.302972661899986 -5.7081553104703708 #
coedge $-1 $608 $464 $475 $546 forward $473 $-1 #
coedge $-1 $464 $608 $466 $540 reversed $473 $-1 #
straight-curve $-1 0 34.337058401780531 11.092608356157342 -1 0 0 I I #
coedge $-1 $468 $466 $601 $609 reversed $234 $-1 #
edge $-1 $467 -11.092608356157342 $610 11.092608356157342 $537 $611 forward 7 unknown #
point $-1 -64.540543839838861 34.337058401780531 11.092608356157342 #
edge $-1 $603 -6.8924174395004139 $532 -1.5079643938134426 $468 $612 forward 7 unknown #
straight-curve $-1 -64.540543839838861 -15.160007765920129 -5.7081553104703708 0 -1 0 I I #
point $-1 -64.540543839838861 -34.337058401780531 -5.7081553104703708 #
plane-surface $-1 64.540543839838861 0 0 -1 0 0 0 0 1 forward_v I I I I #
edge $-1 $476 -11.092608356157342 $613 11.092608356157342 $475 $614 forward 7 unknown #
point $-1 64.540543839838861 34.337058401780531 11.092608356157342 #
straight-curve $-1 64.540543839838861 -34.337058401780531 0 0 0 -1 I I #
face $-1 $495 $615 $18 $-1 $616 reversed single #
loop $-1 $-1 $617 $480 #
plane-surface $-1 0 -34.337058401780531 0 0 1 0 0 0 1 forward_v I I I I #
coedge $-1 $618 $619 $620 $621 reversed $481 $-1 #
coedge $-1 $622 $483 $617 $623 reversed $402 $-1 #
coedge $-1 $483 $622 $618 $624 reversed $402 $-1 #
coedge $-1 $620 $625 $483 $556 forward $626 $-1 #
edge $-1 $627 -19.177050635860404 $628 -11.142964895979857 $555 $629 forward 7 unknown #
coedge $-1 $484 $496 $630 $631 forward $326 $-1 #
coedge $-1 $632 $485 $484 $559 reversed $415 $-1 #
edge $-1 $633 -34.337058401780531 $488 -29.543665186004329 $558 $500 forward 7 unknown #
vertex $-1 $492 $634 #
straight-curve $-1 -64.540543839838861 29.543665186004329 35.023788025447033 0 0 1 I I #
straight-curve $-1 -64.540543839838861 29.543665186004329 5.5070339404155533 0.49999998660252726 0 0.86602541151947299 I I #
point $-1 -64.540543839838861 29.543665186004329 11.092608356157342 #
point $-1 -61.315711062543947 29.543665186004329 11.092608356157342 #
straight-curve $-1 -64.540543839838861 10.374102504272631 5.5070339404155604 0 1 0 I I #
coedge $-1 $494 $635 $622 $636 forward $415 $-1 #
coedge $-1 $617 $497 $494 $568 forward $550 $-1 #
edge $-1 $499 -11.092608356157342 $637 5.7081553104703708 $494 $638 forward 7 unknown #
face $-1 $639 $640 $18 $-1 $641 reversed single #
plane-surface $-1 -64.540543839838861 0 0 1 0 0 0 0 -1 forward_v I I I I #
coedge $-1 $625 $642 $496 $572 reversed $626 $-1 #
edge $-1 $574 -34.337058401780531 $643 34.337058401780531 $571 $644 forward 7 unknown #
coedge $-1 $497 $617 $625 $645 reversed $550 $-1 #
vertex $-1 $572 $646 #
straight-curve $-1 0 -34.337058401780531 11.092608356157342 1 0 0 I I #
point $-1 -64.540543839838861 -34.337058401780531 11.092608356157342 #
face $-1 $647 $648 $19 $-1 $649 forward single #
loop $-1 $-1 $650 $501 #
plane-surface $-1 0 -30.320015531840259 -5.7081553104703708 0 0 1 1 0 0 forward_v I I I I #
coedge $-1 $510 $651 $504 $583 forward $502 $-1 #
coedge $-1 $582 $504 $652 $653 reversed $423 $-1 #
coedge $-1 $504 $581 $516 $596 forward $423 $-1 #
edge $-1 $654 23.623479118667603 $597 26.848311895962517 $580 $655 forward 7 unknown #
coedge $-1 $505 $516 $587 $656 reversed $350 $-1 #
vertex $-1 $656 $657 #
straight-curve $-1 -64.540543839838861 11.952744831086196 5.5070339404155533 -0.49999998660252726 0 -0.86602541151947299 I I #
coedge $-1 $652 $507 $584 $656 forward $589 $-1 #
coedge $-1 $507 $658 $509 $592 reversed $589 $-1 #
loop $-1 $-1 $652 $659 #
straight-curve $-1 -64.540543839838861 11.952744831086196 35.023788025447033 0 0 -1 I I #
coedge $-1 $660 $509 $661 $662 forward $502 $-1 #
edge $-1 $512 -11.952744831086196 $663 34.337058401780531 $588 $664 forward 7 unknown #
point $-1 -61.315711062543947 11.952744831086196 11.092608356157342 #
point $-1 -64.540543839838861 11.952744831086196 11.092608356157342 #
point $-1 -58.172824124936128 16.978722075348514 5.5543455908811339 #
edge $-1 $665 0 $597 6.44966572740827 $582 $666 forward 7 unknown #
vertex $-1 $517 $667 #
straight-curve $-1 -61.31571106254394 10.374102504272631 11.092608356157342 0 -1 0 I I #
point $-1 -64.540543839838861 34.337058401780531 11.092608356157342 #
straight-curve $-1 -64.540543839838861 34.337058401780531 0 0 0 -1 I I #
coedge $-1 $668 $525 $539 $609 forward $449 $-1 #
coedge $-1 $525 $668 $528 $605 forward $449 $-1 #
vertex $-1 $609 $669 #
straight-curve $-1 0 -26.302972661899986 -11.092608356157342 -1 0 0 I I #
edge $-1 $613 -34.337058401780531 $529 26.302972661899986 $528 $670 forward 7 unknown #
point $-1 64.540543839838861 -26.302972661899986 -11.092608356157342 #
point $-1 -64.540543839838861 -26.302972661899986 -5.7081553104703708 #
coedge $-1 $537 $536 $668 $671 reversed $473 $-1 #
edge $-1 $603 -26.302972661899986 $610 34.337058401780531 $539 $672 forward 7 unknown #
vertex $-1 $671 $673 #
straight-curve $-1 -64.540543839838861 34.337058401780531 0 0 0 -1 I I #
straight-curve $-1 -64.540543839838861 -26.302972661899986 -4.2001909166569282 0 0 1 I I #
vertex $-1 $605 $674 #
straight-curve $-1 64.540543839838861 34.337058401780531 0 0 0 -1 I I #
loop $-1 $-1 $675 $549 #
plane-surface $-1 0 0 -11.092608356157342 0 0 1 1 0 0 forward_v I I I I #
coedge $-1 $573 $567 $553 $623 forward $550 $-1 #
coedge $-1 $676 $552 $554 $624 forward $481 $-1 #
coedge $-1 $552 $676 $675 $677 reversed $481 $-1 #
coedge $-1 $678 $555 $552 $621 forward $626 $-1 #
edge $-1 $628 1.5079643938134426 $679 6.8924174395004139 $620 $680 forward 7 unknown #
coedge $-1 $554 $553 $566 $636 reversed $402 $-1 #
edge $-1 $637 -64.540543839838861 $627 64.540543839838861 $617 $681 forward 7 unknown #
edge $-1 $628 -64.540543839838861 $682 64.540543839838861 $618 $683 forward 7 unknown #
coedge $-1 $555 $571 $573 $645 forward $626 $-1 #
loop $-1 $-1 $620 $639 #
vertex $-1 $623 $684 #
vertex $-1 $556 $685 #
straight-curve $-1 64.540543839838861 -15.160007765920129 -5.7081553104703708 0 1 0 I I #
coedge $-1 $686 $687 $557 $631 reversed $640 $-1 #
edge $-1 $643 -64.540543839838861 $633 64.540543839838861 $630 $688 forward 7 unknown #
coedge $-1 $689 $558 $687 $690 forward $415 $-1 #
vertex $-1 $631 $691 #
point $-1 -64.540543839838861 29.543665186004329 5.5070339404155533 #
coedge $-1 $566 $689 $676 $692 forward $415 $-1 #
edge $-1 $682 11.142964895979857 $637 19.177050635860404 $566 $693 forward 7 unknown #
vertex $-1 $623 $694 #
straight-curve $-1 -64.540543839838861 -34.337058401780531 0 0 0 -1 I I #
face $-1 $-1 $626 $18 $-1 $695 reversed single #
loop $-1 $-1 $686 $569 #
plane-surface $-1 0 34.337058401780531 0 0 -1 0 0 0 -1 forward_v I I I I #
coedge $-1 $571 $678 $686 $696 reversed $626 $-1 #
vertex $-1 $572 $697 #
straight-curve $-1 64.540543839838861 0 11.092608356157342 0 1 0 I I #
edge $-1 $574 -11.092608356157342 $627 5.7081553104703708 $625 $698 forward 7 unknown #
point $-1 64.540543839838861 -34.337058401780531 11.092608356157342 #
face $-1 $699 $700 $19 $-1 $701 reversed single #
loop $-1 $-1 $702 $577 #
plane-surface $-1 0 -26.302972661899986 -8.4003818333138565 0 -1 0 0 0 -1 forward_v I I I I #
coedge $-1 $703 $704 $705 $706 reversed $578 $-1 #
coedge $-1 $580 $707 $708 $709 forward $502 $-1 #
coedge $-1 $708 $587 $581 $653 forward $589 $-1 #
edge $-1 $665 -29.516754085031479 $654 -23.931179669289691 $652 $710 forward 7 unknown #
vertex $-1 $653 $711 #
straight-curve $-1 -88.164022958506465 29.543665186004329 11.092608356157342 1 0 0 I I #
edge $-1 $585 1.578642326813565 $665 19.169562681731698 $587 $712 forward 7 unknown #
point $-1 -64.540543839838861 11.952744831086196 5.5070339404155533 #
coedge $-1 $588 $713 $714 $715 reversed $589 $-1 #
face $-1 $716 $589 $19 $-1 $717 reversed single #
coedge $-1 $707 $591 $718 $719 forward $502 $-1 #
coedge $-1 $714 $720 $591 $662 reversed $700 $-1 #
edge $-1 $663 -64.540543839838861 $721 64.540543839838861 $661 $722 forward 7 unknown #
vertex $-1 $592 $723 #
straight-curve $-1 -64.540543839838861 0 11.092608356157342 0 -1 0 I I #
vertex $-1 $656 $724 #
straight-curve $-1 -64.540543839838861 29.543665186004329 5.5070339404155533 0.49999998660252726 0 0.86602541151947299 I I #
point $-1 -61.315711062543947 29.543665186004329 11.092608356157342 #
coedge $-1 $602 $601 $608 $671 forward $449 $-1 #
point $-1 -64.540543839838861 -26.302972661899986 -11.092608356157342 #
straight-curve $-1 64.540543839838861 0 -11.092608356157342 0 -1 0 I I #
edge $-1 $610 -64.540543839838861 $613 64.540543839838861 $608 $725 forward 7 unknown #
straight-curve $-1 -64.540543839838861 0 -11.092608356157342 0 1 0 I I #
point $-1 -64.540543839838861 34.337058401780531 -11.092608356157342 #
point $-1 64.540543839838861 34.337058401780531 -11.092608356157342 #
coedge $-1 $726 $727 $619 $677 forward $615 $-1 #
coedge $-1 $619 $618 $635 $692 reversed $481 $-1 #
edge $-1 $679 -64.540543839838861 $728 64.540543839838861 $675 $729 forward 7 unknown #
coedge $-1 $642 $620 $727 $730 reversed $626 $-1 #
vertex $-1 $677 $731 #
straight-curve $-1 64.540543839838861 -26.302972661899986 -4.2001909166569282 0 0 -1 I I #
straight-curve $-1 0 -34.337058401780531 -5.7081553104703708 1 0 0 I I #
vertex $-1 $636 $732 #
straight-curve $-1 0 -26.302972661899986 -5.7081553104703708 -1 0 0 I I #
point $-1 64.540543839838861 -34.337058401780531 -5.7081553104703708 #
point $-1 64.540543839838861 -26.302972661899986 -5.7081553104703708 #
coedge $-1 $733 $630 $642 $696 forward $640 $-1 #
coedge $-1 $630 $733 $632 $690 reversed $640 $-1 #
straight-curve $-1 0 34.337058401780531 11.092608356157342 -1 0 0 I I #
coedge $-1 $635 $632 $726 $734 reversed $415 $-1 #
edge $-1 $633 -11.092608356157342 $735 11.092608356157342 $687 $736 forward 7 unknown #
point $-1 -64.540543839838861 34.337058401780531 11.092608356157342 #
edge $-1 $728 -6.8924174395004139 $682 -1.5079643938134426 $635 $737 forward 7 unknown #
straight-curve $-1 -64.540543839838861 -15.160007765920129 -5.7081553104703708 0 -1 0 I I #
point $-1 -64.540543839838861 -34.337058401780531 -5.7081553104703708 #
plane-surface $-1 64.540543839838861 0 0 -1 0 0 0 0 1 forward_v I I I I #
edge $-1 $643 -11.092608356157342 $738 11.092608356157342 $642 $739 forward 7 unknown #
point $-1 64.540543839838861 34.337058401780531 11.092608356157342 #
straight-curve $-1 64.540543839838861 -34.337058401780531 0 0 0 -1 I I #
face $-1 $659 $740 $19 $-1 $741 reversed single #
loop $-1 $-1 $742 $647 #
plane-surface $-1 0 -34.337058401780531 0 0 1 0 0 0 1 forward_v I I I I #
coedge $-1 $743 $744 $745 $746 reversed $648 $-1 #
coedge $-1 $747 $650 $742 $748 reversed $578 $-1 #
coedge $-1 $650 $747 $743 $749 reversed $578 $-1 #
coedge $-1 $745 $750 $650 $706 forward $751 $-1 #
edge $-1 $752 -19.177050635860404 $753 -11.142964895979857 $705 $754 forward 7 unknown #
coedge $-1 $651 $660 $755 $756 forward $502 $-1 #
coedge $-1 $757 $652 $651 $709 reversed $589 $-1 #
edge $-1 $758 -34.337058401780531 $654 -29.543665186004329 $708 $664 forward 7 unknown #
straight-curve $-1 -64.540543839838861 29.543665186004329 35.023788025447033 0 0 1 I I #
point $-1 -64.540543839838861 29.543665186004329 11.092608356157342 #
straight-curve $-1 -64.540543839838861 10.374102504272631 5.5070339404155604 0 1 0 I I #
coedge $-1 $658 $759 $747 $760 forward $589 $-1 #
coedge $-1 $742 $661 $658 $715 forward $700 $-1 #
edge $-1 $663 -11.092608356157342 $761 5.7081553104703708 $658 $762 forward 7 unknown #
face $-1 $763 $764 $19 $-1 $765 reversed single #
plane-surface $-1 -64.540543839838861 0 0 1 0 0 0 0 -1 forward_v I I I I #
coedge $-1 $750 $766 $660 $719 reversed $751 $-1 #
edge $-1 $721 -34.337058401780531 $767 34.337058401780531 $718 $768 forward 7 unknown #
coedge $-1 $661 $742 $750 $769 reversed $700 $-1 #
vertex $-1 $719 $770 #
straight-curve $-1 0 -34.337058401780531 11.092608356157342 1 0 0 I I #
point $-1 -64.540543839838861 -34.337058401780531 11.092608356157342 #
point $-1 -64.540543839838861 29.543665186004329 5.5070339404155533 #
straight-curve $-1 0 34.337058401780531 -11.092608356157342 1 0 0 I I #
coedge $-1 $771 $675 $689 $734 forward $615 $-1 #
coedge $-1 $675 $771 $678 $730 forward $615 $-1 #
vertex $-1 $734 $772 #
straight-curve $-1 0 -26.302972661899986 -11.092608356157342 -1 0 0 I I #
edge $-1 $738 -34.337058401780531 $679 26.302972661899986 $678 $773 forward 7 unknown #
point $-1 64.540543839838861 -26.302972661899986 -11.092608356157342 #
point $-1 -64.540543839838861 -26.302972661899986 -5.7081553104703708 #
coedge $-1 $687 $686 $771 $774 reversed $640 $-1 #
edge $-1 $728 -26.302972661899986 $735 34.337058401780531 $689 $775 forward 7 unknown #
vertex $-1 $774 $776 #
straight-curve $-1 -64.540543839838861 34.337058401780531 0 0 0 -1 I I #
straight-curve $-1 -64.540543839838861 -26.302972661899986 -4.2001909166569282 0 0 1 I I #
vertex $-1 $730 $777 #
straight-curve $-1 64.540543839838861 34.337058401780531 0 0 0 -1 I I #
loop $-1 $-1 $778 $699 #
plane-surface $-1 0 0 -11.092608356157342 0 0 1 1 0 0 forward_v I I I I #
coedge $-1 $720 $714 $703 $748 forward $700 $-1 #
coedge $-1 $779 $702 $704 $749 forward $648 $-1 #
coedge $-1 $702 $779 $778 $780 reversed $648 $-1 #
coedge $-1 $781 $705 $702 $746 forward $751 $-1 #
edge $-1 $753 1.5079643938134426 $782 6.8924174395004139 $745 $783 forward 7 unknown #
coedge $-1 $704 $703 $713 $760 reversed $578 $-1 #
edge $-1 $761 -64.540543839838861 $752 64.540543839838861 $742 $784 forward 7 unknown #
edge $-1 $753 -64.540543839838861 $785 64.540543839838861 $743 $786 forward 7 unknown #
coedge $-1 $705 $718 $720 $769 forward $751 $-1 #
loop $-1 $-1 $745 $763 #
vertex $-1 $748 $787 #
vertex $-1 $706 $788 #
straight-curve $-1 64.540543839838861 -15.160007765920129 -5.7081553104703708 0 1 0 I I #
coedge $-1 $789 $790 $707 $756 reversed $764 $-1 #
edge $-1 $767 -64.540543839838861 $758 64.540543839838861 $755 $791 forward 7 unknown #
coedge $-1 $792 $708 $790 $793 forward $589 $-1 #
vertex $-1 $756 $794 #
coedge $-1 $713 $792 $779 $795 forward $589 $-1 #
edge $-1 $785 11.142964895979857 $761 19.177050635860404 $713 $796 forward 7 unknown #
vertex $-1 $748 $797 #
straight-curve $-1 -64.540543839838861 -34.337058401780531 0 0 0 -1 I I #
face $-1 $-1 $751 $19 $-1 $798 reversed single #
loop $-1 $-1 $789 $716 #
plane-surface $-1 0 34.337058401780531 0 0 -1 0 0 0 -1 forward_v I I I I #
coedge $-1 $718 $781 $789 $799 reversed $751 $-1 #
vertex $-1 $719 $800 #
straight-curve $-1 64.540543839838861 0 11.092608356157342 0 1 0 I I #
edge $-1 $721 -11.092608356157342 $752 5.7081553104703708 $750 $801 forward 7 unknown #
point $-1 64.540543839838861 -34.337058401780531 11.092608356157342 #
coedge $-1 $727 $726 $733 $774 forward $615 $-1 #
point $-1 -64.540543839838861 -26.302972661899986 -11.092608356157342 #
straight-curve $-1 64.540543839838861 0 -11.092608356157342 0 -1 0 I I #
edge $-1 $735 -64.540543839838861 $738 64.540543839838861 $733 $802 forward 7 unknown #
straight-curve $-1 -64.540543839838861 0 -11.092608356157342 0 1 0 I I #
point $-1 -64.540543839838861 34.337058401780531 -11.092608356157342 #
point $-1 64.540543839838861 34.337058401780531 -11.092608356157342 #
coedge $-1 $803 $804 $744 $780 forward $740 $-1 #
coedge $-1 $744 $743 $759 $795 reversed $648 $-1 #
edge $-1 $782 -64.540543839838861 $805 64.540543839838861 $778 $806 forward 7 unknown #
coedge $-1 $766 $745 $804 $807 reversed $751 $-1 #
vertex $-1 $780 $808 #
straight-curve $-1 64.540543839838861 -26.302972661899986 -4.2001909166569282 0 0 -1 I I #
straight-curve $-1 0 -34.337058401780531 -5.7081553104703708 1 0 0 I I #
vertex $-1 $760 $809 #
straight-curve $-1 0 -26.302972661899986 -5.7081553104703708 -1 0 0 I I #
point $-1 64.540543839838861 -34.337058401780531 -5.7081553104703708 #
point $-1 64.540543839838861 -26.302972661899986 -5.7081553104703708 #
coedge $-1 $810 $755 $766 $799 forward $764 $-1 #
coedge $-1 $755 $810 $757 $793 reversed $764 $-1 #
straight-curve $-1 0 34.337058401780531 11.092608356157342 -1 0 0 I I #
coedge $-1 $759 $757 $803 $811 reversed $589 $-1 #
edge $-1 $758 -11.092608356157342 $812 11.092608356157342 $790 $813 forward 7 unknown #
point $-1 -64.540543839838861 34.337058401780531 11.092608356157342 #
edge $-1 $805 -6.8924174395004139 $785 -1.5079643938134426 $759 $814 forward 7 unknown #
straight-curve $-1 -64.540543839838861 -15.160007765920129 -5.7081553104703708 0 -1 0 I I #
point $-1 -64.540543839838861 -34.337058401780531 -5.7081553104703708 #
plane-surface $-1 64.540543839838861 0 0 -1 0 0 0 0 1 forward_v I I I I #
edge $-1 $767 -11.092608356157342 $815 11.092608356157342 $766 $816 forward 7 unknown #
point $-1 64.540543839838861 34.337058401780531 11.092608356157342 #
straight-curve $-1 64.540543839838861 -34.337058401780531 0 0 0 -1 I I #
straight-curve $-1 0 34.337058401780531 -11.092608356157342 1 0 0 I I #
coedge $-1 $817 $778 $792 $811 forward $740 $-1 #
coedge $-1 $778 $817 $781 $807 forward $740 $-1 #
vertex $-1 $811 $818 #
straight-curve $-1 0 -26.302972661899986 -11.092608356157342 -1 0 0 I I #
edge $-1 $815 -34.337058401780531 $782 26.302972661899986 $781 $819 forward 7 unknown #
point $-1 64.540543839838861 -26.302972661899986 -11.092608356157342 #
point $-1 -64.540543839838861 -26.302972661899986 -5.7081553104703708 #
coedge $-1 $790 $789 $817 $820 reversed $764 $-1 #
edge $-1 $805 -26.302972661899986 $812 34.337058401780531 $792 $821 forward 7 unknown #
vertex $-1 $820 $822 #
straight-curve $-1 -64.540543839838861 34.337058401780531 0 0 0 -1 I I #
straight-curve $-1 -64.540543839838861 -26.302972661899986 -4.2001909166569282 0 0 1 I I #
vertex $-1 $807 $823 #
straight-curve $-1 64.540543839838861 34.337058401780531 0 0 0 -1 I I #
coedge $-1 $804 $803 $810 $820 forward $740 $-1 #
point $-1 -64.540543839838861 -26.302972661899986 -11.092608356157342 #
straight-curve $-1 64.540543839838861 0 -11.092608356157342 0 -1 0 I I #
edge $-1 $812 -64.540543839838861 $815 64.540543839838861 $810 $824 forward 7 unknown #
straight-curve $-1 -64.540543839838861 0 -11.092608356157342 0 1 0 I I #
point $-1 -64.540543839838861 34.337058401780531 -11.092608356157342 #
point $-1 64.540543839838861 34.337058401780531 -11.092608356157342 #
straight-curve $-1 0 34.337058401780531 -11.092608356157342 1 0 0 I I #
End-of-ACIS-data 