500 0 6 0           
7 Unknown 11 ACIS 5.0 NT 24 Thu Mar 25 22:37:55 1999 
-1 9.9999999999999995e-007 1e-010 
body $-1 $6 $-1 $7 #
body $-1 $8 $-1 $9 #
body $-1 $10 $-1 $11 #
body $-1 $12 $-1 $13 #
body $-1 $14 $-1 $15 #
body $-1 $16 $-1 $17 #
lump $-1 $-1 $18 $0 #
transform $-1 1 0 0 0 1 0 0 0 1 53.11441389202551 29.430543231452507 8.994517228565682 1 rotate no_reflect no_shear #
lump $-1 $-1 $19 $1 #
transform $-1 1 0 0 0 1 0 0 0 1 53.11441389202551 29.430543231452507 8.994517228565682 1 rotate no_reflect no_shear #
lump $-1 $-1 $20 $2 #
transform $-1 1 0 0 0 1 0 0 0 1 53.11441389202551 29.430543231452507 8.994517228565682 1 rotate no_reflect no_shear #
lump $-1 $-1 $21 $3 #
transform $-1 1 0 0 0 1 0 0 0 1 53.11441389202551 29.430543231452507 8.994517228565682 1 rotate no_reflect no_shear #
lump $-1 $-1 $22 $4 #
transform $-1 1 0 0 0 1 0 0 0 1 53.11441389202551 29.430543231452507 8.994517228565682 1 rotate no_reflect no_shear #
lump $-1 $-1 $23 $5 #
transform $-1 1 0 0 0 1 0 0 0 1 53.11441389202551 29.430543231452507 8.994517228565682 1 rotate no_reflect no_shear #
shell $-1 $-1 $-1 $24 $-1 $6 #
shell $-1 $-1 $-1 $25 $-1 $8 #
shell $-1 $-1 $-1 $26 $-1 $10 #
shell $-1 $-1 $-1 $27 $-1 $12 #
shell $-1 $-1 $-1 $28 $-1 $14 #
shell $-1 $-1 $-1 $29 $-1 $16 #
face $-1 $30 $31 $18 $-1 $32 reversed single #
face $-1 $33 $34 $19 $-1 $35 forward single #
face $-1 $36 $37 $20 $-1 $38 reversed single #
face $-1 $39 $40 $21 $-1 $41 forward single #
face $-1 $42 $43 $22 $-1 $44 forward single #
face $-1 $45 $46 $23 $-1 $47 forward single #
face $-1 $48 $49 $18 $-1 $50 forward single #
loop $-1 $-1 $51 $24 #
plane-surface $-1 -53.11441389202551 0 0 1 0 0 0 0 -1 forward_v I I I I #
face $-1 $52 $53 $19 $-1 $54 reversed single #
loop $-1 $-1 $55 $25 #
plane-surface $-1 -53.11441389202551 0 0 1 0 0 0 0 -1 forward_v I I I I #
face $-1 $56 $57 $20 $-1 $58 reversed single #
loop $-1 $-1 $59 $26 #
plane-surface $-1 50.49253623193573 15.39242867684009 156.07583720038517 0 1 0 0.69465837861970381 0 0.71933979245794832 forward_v I I I I #
face $-1 $60 $61 $21 $-1 $62 forward single #
loop $-1 $63 $64 $27 #
cone-surface $-1 51.062369337614662 18.200051587762577 6.9826055005611378 -0.69465837861970381 0 -0.71933979245794832 0.35966989622897416 0 -0.3473291893098519 1 I I 0 1 0.5 forward I I I I #
face $-1 $65 $66 $22 $-1 $67 forward single #
loop $-1 $68 $69 $28 #
cone-surface $-1 51.062369337614662 22.411485954146304 6.9826055005611378 -0.69465837861970381 0 -0.71933979245794832 0.35966989622897416 0 -0.3473291893098519 1 I I 0 1 0.5 forward I I I I #
face $-1 $70 $71 $23 $-1 $72 forward single #
loop $-1 $73 $74 $29 #
cone-surface $-1 51.062369337614662 26.622920320530032 6.9826055005611378 -0.69465837861970381 0 -0.71933979245794832 0.35966989622897416 0 -0.3473291893098519 1 I I 0 1 0.5 forward I I I I #
face $-1 $75 $76 $18 $-1 $77 reversed single #
loop $-1 $-1 $78 $30 #
plane-surface $-1 0 0 8.994517228565682 0 0 1 1 0 0 forward_v I I I I #
coedge $-1 $79 $80 $81 $82 reversed $31 $-1 #
face $-1 $83 $84 $19 $-1 $85 reversed single #
loop $-1 $-1 $86 $33 #
plane-surface $-1 0 0 -8.994517228565682 0 0 1 1 0 0 forward_v I I I I #
coedge $-1 $87 $88 $89 $90 forward $34 $-1 #
face $-1 $91 $92 $20 $-1 $93 reversed single #
loop $-1 $-1 $94 $36 #
plane-surface $-1 -23.300209039204901 22.411485954146297 79.661214269154769 0.69465837861970381 0 0.71933979245794832 0.71933979245794832 0 -0.69465837861970381 forward_v I I I I #
coedge $-1 $95 $96 $97 $98 reversed $37 $-1 #
face $-1 $-1 $99 $21 $-1 $100 forward single #
loop $-1 $101 $102 $39 #
cone-surface $-1 50.455219004356067 18.200051587762577 6.353882939717872 -0.69465837861970381 0 -0.71933979245794832 0.17983494811448708 0 -0.17366459465492595 1 I I -0.70710678118654746 0.70710678118654746 0.25 forward I I I I #
loop $-1 $-1 $103 $27 #
coedge $-1 $64 $64 $104 $105 reversed $40 $-1 #
face $-1 $-1 $106 $22 $-1 $107 forward single #
loop $-1 $108 $109 $42 #
cone-surface $-1 50.455219004356067 22.411485954146304 6.353882939717872 -0.69465837861970381 0 -0.71933979245794832 0.17983494811448708 0 -0.17366459465492595 1 I I -0.70710678118654746 0.70710678118654746 0.25 forward I I I I #
loop $-1 $-1 $110 $28 #
coedge $-1 $69 $69 $111 $112 reversed $43 $-1 #
face $-1 $-1 $113 $23 $-1 $114 forward single #
loop $-1 $115 $116 $45 #
cone-surface $-1 50.455219004356067 26.622920320530032 6.353882939717872 -0.69465837861970381 0 -0.71933979245794832 0.17983494811448708 0 -0.17366459465492595 1 I I -0.70710678118654746 0.70710678118654746 0.25 forward I I I I #
loop $-1 $-1 $117 $29 #
coedge $-1 $74 $74 $118 $119 reversed $46 $-1 #
face $-1 $120 $121 $18 $-1 $122 reversed single #
loop $-1 $-1 $123 $48 #
plane-surface $-1 0 0 -8.994517228565682 0 0 1 1 0 0 forward_v I I I I #
coedge $-1 $124 $125 $126 $127 forward $49 $-1 #
coedge $-1 $128 $51 $129 $130 reversed $31 $-1 #
coedge $-1 $51 $128 $131 $132 forward $31 $-1 #
coedge $-1 $133 $134 $51 $82 forward $76 $-1 #
edge $-1 $135 -29.430543231452507 $136 29.430543231452507 $51 $137 forward 7 unknown #
face $-1 $138 $139 $19 $-1 $140 reversed single #
loop $-1 $-1 $141 $52 #
plane-surface $-1 -56.135687244210203 -26.375476528453543 0 0 1 0 0 0 1 forward_v I I I I #
coedge $-1 $142 $143 $88 $144 forward $53 $-1 #
coedge $-1 $145 $55 $146 $147 reversed $34 $-1 #
coedge $-1 $55 $145 $86 $144 reversed $34 $-1 #
coedge $-1 $148 $149 $55 $90 reversed $150 $-1 #
edge $-1 $151 -8.994517228565682 $152 8.994517228565682 $89 $153 forward 7 unknown #
face $-1 $154 $155 $20 $-1 $156 forward single #
loop $-1 $-1 $157 $56 #
plane-surface $-1 0 29.430543231452507 0 0 -1 0 0 0 -1 forward_v I I I I #
coedge $-1 $158 $159 $160 $161 reversed $57 $-1 #
coedge $-1 $96 $59 $162 $163 reversed $37 $-1 #
coedge $-1 $59 $95 $158 $164 reversed $37 $-1 #
coedge $-1 $160 $165 $59 $98 forward $166 $-1 #
edge $-1 $167 69.043401371626899 $168 72.16944960217846 $97 $169 forward 7 unknown #
loop $-1 $-1 $104 $60 #
plane-surface $-1 -23.300209039204901 22.411485954146297 79.661214269154769 0.69465837861970381 0 0.71933979245794832 0.71933979245794832 0 -0.69465837861970381 forward_v I I I I #
loop $-1 $-1 $170 $39 #
coedge $-1 $102 $102 $103 $171 reversed $61 $-1 #
coedge $-1 $103 $103 $102 $171 forward $63 $-1 #
coedge $-1 $104 $104 $64 $105 forward $99 $-1 #
edge $-1 $172 0 $172 6.2831853071796004 $104 $173 forward 7 unknown #
loop $-1 $-1 $111 $65 #
plane-surface $-1 -23.300209039204901 22.411485954146297 79.661214269154769 0.69465837861970381 0 0.71933979245794832 0.71933979245794832 0 -0.69465837861970381 forward_v I I I I #
loop $-1 $-1 $174 $42 #
coedge $-1 $109 $109 $110 $175 reversed $66 $-1 #
coedge $-1 $110 $110 $109 $175 forward $68 $-1 #
coedge $-1 $111 $111 $69 $112 forward $106 $-1 #
edge $-1 $176 0 $176 6.2831853071796004 $111 $177 forward 7 unknown #
loop $-1 $-1 $118 $70 #
plane-surface $-1 -23.300209039204901 22.411485954146297 79.661214269154769 0.69465837861970381 0 0.71933979245794832 0.71933979245794832 0 -0.69465837861970381 forward_v I I I I #
loop $-1 $-1 $178 $45 #
coedge $-1 $116 $116 $117 $179 reversed $71 $-1 #
coedge $-1 $117 $117 $116 $179 forward $73 $-1 #
coedge $-1 $118 $118 $74 $119 forward $113 $-1 #
edge $-1 $180 0 $180 6.2831853071796004 $118 $181 forward 7 unknown #
face $-1 $182 $183 $18 $-1 $184 reversed single #
loop $-1 $-1 $129 $75 #
plane-surface $-1 0 -29.430543231452507 0 0 1 0 0 0 1 forward_v I I I I #
coedge $-1 $134 $133 $185 $186 forward $76 $-1 #
coedge $-1 $187 $78 $188 $189 forward $49 $-1 #
coedge $-1 $78 $187 $190 $191 forward $49 $-1 #
coedge $-1 $192 $193 $78 $127 reversed $194 $-1 #
edge $-1 $195 -29.430543231452507 $196 29.430543231452507 $126 $197 forward 7 unknown #
coedge $-1 $80 $79 $187 $198 reversed $31 $-1 #
coedge $-1 $199 $190 $79 $130 forward $121 $-1 #
edge $-1 $200 -8.994517228565682 $135 8.994517228565682 $79 $201 forward 7 unknown #
coedge $-1 $188 $202 $80 $132 reversed $183 $-1 #
edge $-1 $203 -8.994517228565682 $136 8.994517228565682 $131 $204 forward 7 unknown #
coedge $-1 $123 $81 $202 $205 forward $76 $-1 #
coedge $-1 $81 $123 $199 $206 forward $76 $-1 #
vertex $-1 $82 $207 #
vertex $-1 $205 $208 #
straight-curve $-1 -53.11441389202551 0 -8.994517228565682 0 1 0 I I #
face $-1 $209 $150 $19 $-1 $210 reversed single #
loop $-1 $-1 $211 $83 #
plane-surface $-1 -59.156960596394896 -24.747064572674248 0 1 0 0 0 0 -1 forward_v I I I I #
coedge $-1 $212 $213 $214 $215 forward $84 $-1 #
coedge $-1 $216 $86 $212 $217 forward $53 $-1 #
coedge $-1 $86 $216 $148 $218 forward $53 $-1 #
edge $-1 $151 23.118652616894952 $219 26.375476528453543 $86 $220 forward 7 unknown #
coedge $-1 $88 $87 $221 $222 forward $34 $-1 #
coedge $-1 $223 $224 $87 $147 forward $225 $-1 #
edge $-1 $226 -26.375476528453543 $152 -23.118652616894952 $146 $227 forward 7 unknown #
coedge $-1 $228 $89 $143 $218 reversed $150 $-1 #
coedge $-1 $89 $228 $223 $229 reversed $150 $-1 #
loop $-1 $-1 $89 $138 #
vertex $-1 $144 $230 #
vertex $-1 $229 $231 #
straight-curve $-1 -53.11441389202551 -23.118652616894952 0 0 0 1 I I #
face $-1 $-1 $166 $20 $-1 $232 reversed single #
loop $-1 $-1 $233 $91 #
plane-surface $-1 0 0 8.994517228565682 0 0 1 1 0 0 forward_v I I I I #
coedge $-1 $234 $235 $159 $236 forward $92 $-1 #
coedge $-1 $237 $94 $96 $164 forward $57 $-1 #
coedge $-1 $94 $237 $157 $236 reversed $57 $-1 #
coedge $-1 $238 $97 $94 $161 forward $166 $-1 #
edge $-1 $168 4.1866856997669419 $239 18.22480025437936 $160 $240 forward 7 unknown #
coedge $-1 $241 $233 $95 $163 forward $155 $-1 #
edge $-1 $242 24.631028144443277 $167 27.868145776057645 $162 $243 forward 7 unknown #
edge $-1 $168 -106.22882778405105 $242 -101.72870466344165 $96 $244 forward 7 unknown #
coedge $-1 $97 $238 $241 $245 reversed $166 $-1 #
loop $-1 $-1 $160 $154 #
vertex $-1 $245 $246 #
vertex $-1 $98 $247 #
straight-curve $-1 53.11441389202551 15.39242867684009 78.037918600192583 0 0 -1 I I #
coedge $-1 $170 $170 $-1 $248 reversed $101 $-1 #
edge $-1 $249 0 $249 6.2831853071796004 $102 $250 forward 7 unknown #
vertex $-1 $105 $251 #
ellipse-curve $-1 51.495855076218326 18.200051587762577 7.431493113289914 0.69465837861970381 0 0.71933979245794832 0.35966989622897416 0 -0.3473291893098519 1 I I #
coedge $-1 $174 $174 $-1 $252 reversed $108 $-1 #
edge $-1 $253 0 $253 6.2831853071796004 $109 $254 forward 7 unknown #
vertex $-1 $112 $255 #
ellipse-curve $-1 51.495855076218326 22.411485954146304 7.431493113289914 0.69465837861970381 0 0.71933979245794832 0.35966989622897416 0 -0.3473291893098519 1 I I #
coedge $-1 $178 $178 $-1 $256 reversed $115 $-1 #
edge $-1 $257 0 $257 6.2831853071796004 $116 $258 forward 7 unknown #
vertex $-1 $119 $259 #
ellipse-curve $-1 51.495855076218326 26.622920320530032 7.431493113289914 0.69465837861970381 0 0.71933979245794832 0.35966989622897416 0 -0.3473291893098519 1 I I #
face $-1 $-1 $194 $18 $-1 $260 reversed single #
loop $-1 $-1 $261 $120 #
plane-surface $-1 0 29.430543231452507 0 0 -1 0 0 0 -1 forward_v I I I I #
coedge $-1 $193 $192 $123 $186 reversed $194 $-1 #
edge $-1 $262 -29.430543231452507 $263 29.430543231452507 $185 $264 forward 7 unknown #
coedge $-1 $125 $124 $128 $198 forward $49 $-1 #
coedge $-1 $261 $131 $124 $189 reversed $183 $-1 #
edge $-1 $196 -53.11441389202551 $203 53.11441389202551 $188 $265 forward 7 unknown #
coedge $-1 $129 $266 $125 $191 reversed $121 $-1 #
edge $-1 $200 -53.11441389202551 $195 53.11441389202551 $190 $267 forward 7 unknown #
coedge $-1 $185 $126 $266 $268 forward $194 $-1 #
coedge $-1 $126 $185 $261 $269 reversed $194 $-1 #
loop $-1 $-1 $192 $182 #
vertex $-1 $127 $270 #
vertex $-1 $127 $271 #
straight-curve $-1 53.11441389202551 0 8.994517228565682 0 1 0 I I #
edge $-1 $203 -29.430543231452507 $200 29.430543231452507 $128 $272 forward 7 unknown #
coedge $-1 $266 $129 $134 $206 reversed $121 $-1 #
vertex $-1 $198 $273 #
straight-curve $-1 -53.11441389202551 -29.430543231452507 0 0 0 -1 I I #
coedge $-1 $131 $261 $133 $205 reversed $183 $-1 #
vertex $-1 $189 $274 #
straight-curve $-1 -53.11441389202551 29.430543231452507 0 0 0 -1 I I #
edge $-1 $136 -53.11441389202551 $262 53.11441389202551 $202 $275 forward 7 unknown #
edge $-1 $263 -53.11441389202551 $135 53.11441389202551 $199 $276 forward 7 unknown #
point $-1 -53.11441389202551 -29.430543231452507 -8.994517228565682 #
point $-1 -53.11441389202551 29.430543231452507 -8.994517228565682 #
face $-1 $-1 $225 $19 $-1 $277 forward single #
plane-surface $-1 -56.135687244210203 -23.118652616894952 0 0 -1 0 0 0 -1 forward_v I I I I #
coedge $-1 $278 $279 $228 $280 forward $139 $-1 #
coedge $-1 $221 $141 $142 $217 reversed $84 $-1 #
coedge $-1 $141 $221 $224 $281 reversed $84 $-1 #
coedge $-1 $279 $278 $141 $215 reversed $139 $-1 #
edge $-1 $282 -8.994517228565682 $283 8.994517228565682 $214 $284 forward 7 unknown #
coedge $-1 $143 $142 $278 $285 forward $53 $-1 #
edge $-1 $219 -3.0212733521846928 $283 3.0212733521846928 $212 $286 forward 7 unknown #
edge $-1 $287 -3.0212733521846928 $151 3.0212733521846928 $148 $288 forward 7 unknown #
vertex $-1 $217 $289 #
straight-curve $-1 -53.11441389202551 0 -8.994517228565682 0 -1 0 I I #
coedge $-1 $213 $212 $145 $222 reversed $84 $-1 #
edge $-1 $226 -8.994517228565682 $219 8.994517228565682 $221 $290 forward 7 unknown #
coedge $-1 $291 $146 $149 $229 forward $225 $-1 #
coedge $-1 $146 $291 $213 $281 forward $225 $-1 #
loop $-1 $-1 $146 $209 #
vertex $-1 $147 $292 #
straight-curve $-1 -53.11441389202551 0 8.994517228565682 0 1 0 I I #
coedge $-1 $149 $148 $211 $280 reversed $150 $-1 #
edge $-1 $152 -3.0212733521846928 $293 3.0212733521846928 $149 $294 forward 7 unknown #
point $-1 -53.11441389202551 -23.118652616894952 -8.994517228565682 #
point $-1 -53.11441389202551 -23.118652616894952 8.994517228565682 #
plane-surface $-1 53.11441389202551 0 0 -1 0 0 0 0 1 forward_v I I I I #
coedge $-1 $162 $295 $237 $296 forward $155 $-1 #
coedge $-1 $235 $157 $295 $297 reversed $92 $-1 #
coedge $-1 $157 $234 $238 $298 forward $92 $-1 #
edge $-1 $239 -70.179779045262876 $299 -65.679655924653488 $157 $300 forward 7 unknown #
coedge $-1 $159 $158 $233 $296 reversed $57 $-1 #
coedge $-1 $165 $160 $235 $298 reversed $166 $-1 #
vertex $-1 $161 $301 #
straight-curve $-1 53.11441389202551 11.205742977073148 5.8684689980141371 0 1 0 I I #
coedge $-1 $295 $162 $165 $245 forward $155 $-1 #
vertex $-1 $163 $302 #
straight-curve $-1 25.246268115967865 15.39242867684009 8.9945172285656838 1 0 0 I I #
straight-curve $-1 -23.300209039204901 15.39242867684009 79.661214269154769 -0.71933979245794832 0 0.69465837861970381 I I #
edge $-1 $167 15.39242867684009 $303 29.430543231452507 $165 $304 forward 7 unknown #
point $-1 53.11441389202551 15.39242867684009 8.994517228565682 #
point $-1 53.11441389202551 15.39242867684009 5.8684689980141229 #
edge $-1 $305 1 $305 0 $170 $-1 forward 7 unknown #
vertex $-1 $171 $306 #
ellipse-curve $-1 50.62888359901099 18.200051587762577 6.533717887832359 0.69465837861970381 0 0.71933979245794832 0.35966989622897416 0 -0.3473291893098519 1 I I #
point $-1 51.855524972447306 18.200051587762577 7.0841639239800651 #
edge $-1 $307 1 $307 0 $174 $-1 forward 7 unknown #
vertex $-1 $175 $308 #
ellipse-curve $-1 50.62888359901099 22.411485954146304 6.533717887832359 0.69465837861970381 0 0.71933979245794832 0.35966989622897416 0 -0.3473291893098519 1 I I #
point $-1 51.855524972447306 22.411485954146304 7.0841639239800651 #
edge $-1 $309 1 $309 0 $178 $-1 forward 7 unknown #
vertex $-1 $179 $310 #
ellipse-curve $-1 50.62888359901099 26.622920320530032 6.533717887832359 0.69465837861970381 0 0.71933979245794832 0.35966989622897416 0 -0.3473291893098519 1 I I #
point $-1 51.855524972447306 26.622920320530032 7.0841639239800651 #
plane-surface $-1 53.11441389202551 0 0 -1 0 0 0 0 1 forward_v I I I I #
coedge $-1 $202 $188 $193 $269 forward $183 $-1 #
vertex $-1 $186 $311 #
vertex $-1 $268 $312 #
straight-curve $-1 53.11441389202551 0 -8.994517228565682 0 -1 0 I I #
straight-curve $-1 0 29.430543231452507 8.994517228565682 -1 0 0 I I #
coedge $-1 $190 $199 $192 $268 reversed $121 $-1 #
straight-curve $-1 0 -29.430543231452507 8.994517228565682 1 0 0 I I #
edge $-1 $195 -8.994517228565682 $263 8.994517228565682 $192 $313 forward 7 unknown #
edge $-1 $196 -8.994517228565682 $262 8.994517228565682 $193 $314 forward 7 unknown #
point $-1 53.11441389202551 -29.430543231452507 8.994517228565682 #
point $-1 53.11441389202551 29.430543231452507 8.994517228565682 #
straight-curve $-1 -53.11441389202551 0 8.994517228565682 0 -1 0 I I #
point $-1 -53.11441389202551 -29.430543231452507 8.994517228565682 #
point $-1 -53.11441389202551 29.430543231452507 8.994517228565682 #
straight-curve $-1 0 29.430543231452507 -8.994517228565682 1 0 0 I I #
straight-curve $-1 0 -29.430543231452507 -8.994517228565682 -1 0 0 I I #
plane-surface $-1 0 0 8.994517228565682 0 0 1 1 0 0 forward_v I I I I #
coedge $-1 $214 $211 $216 $285 reversed $139 $-1 #
coedge $-1 $211 $214 $291 $315 reversed $139 $-1 #
edge $-1 $293 -8.994517228565682 $287 8.994517228565682 $228 $316 forward 7 unknown #
edge $-1 $282 -3.0212733521846928 $226 3.0212733521846928 $213 $317 forward 7 unknown #
vertex $-1 $315 $318 #
vertex $-1 $285 $319 #
straight-curve $-1 -59.156960596394896 -26.375476528453543 0 0 0 -1 I I #
edge $-1 $283 -1.6284119557792955 $287 1.6284119557792955 $278 $320 forward 7 unknown #
straight-curve $-1 -56.135687244210203 -26.375476528453543 -8.994517228565682 -1 0 0 I I #
vertex $-1 $218 $321 #
straight-curve $-1 -56.135687244210203 -23.118652616894952 -8.994517228565682 1 0 0 I I #
point $-1 -53.11441389202551 -26.375476528453543 -8.994517228565682 #
straight-curve $-1 -53.11441389202551 -26.375476528453543 0 0 0 -1 I I #
coedge $-1 $224 $223 $279 $315 forward $225 $-1 #
point $-1 -53.11441389202551 -26.375476528453543 8.994517228565682 #
vertex $-1 $229 $322 #
straight-curve $-1 -56.135687244210203 -23.118652616894952 8.994517228565682 -1 0 0 I I #
coedge $-1 $233 $241 $234 $297 forward $155 $-1 #
edge $-1 $299 -18.224800254379353 $242 -4.1866856997669419 $233 $323 forward 7 unknown #
edge $-1 $303 -53.11441389202551 $299 -49.877296260411143 $234 $324 forward 7 unknown #
edge $-1 $303 -8.994517228565682 $239 -5.8684689980141247 $238 $325 forward 7 unknown #
vertex $-1 $296 $326 #
straight-curve $-1 2.6313061988614415 29.430543231452507 54.619440521485501 -0.71933979245794832 0 0.69465837861970381 I I #
point $-1 53.11441389202551 29.430543231452507 5.8684689980141247 #
point $-1 49.877296260411143 15.39242867684009 8.9945172285656838 #
vertex $-1 $245 $327 #
straight-curve $-1 53.11441389202551 0 8.994517228565682 0 1 0 I I #
vertex $-1 $248 $328 #
point $-1 50.988553495239969 18.200051587762577 6.1863886985225074 #
vertex $-1 $252 $329 #
point $-1 50.988553495239969 22.411485954146304 6.1863886985225074 #
vertex $-1 $256 $330 #
point $-1 50.988553495239969 26.622920320530032 6.1863886985225074 #
point $-1 53.11441389202551 29.430543231452507 -8.994517228565682 #
point $-1 53.11441389202551 -29.430543231452507 -8.994517228565682 #
straight-curve $-1 53.11441389202551 -29.430543231452507 0 0 0 -1 I I #
straight-curve $-1 53.11441389202551 29.430543231452507 0 0 0 -1 I I #
edge $-1 $293 -1.6284119557792955 $282 1.6284119557792955 $279 $331 forward 7 unknown #
straight-curve $-1 -59.156960596394896 -23.118652616894952 0 0 0 -1 I I #
straight-curve $-1 -56.135687244210203 -26.375476528453543 8.994517228565682 1 0 0 I I #
point $-1 -59.156960596394896 -26.375476528453543 8.994517228565682 #
point $-1 -59.156960596394896 -26.375476528453543 -8.994517228565682 #
straight-curve $-1 -59.156960596394896 -24.747064572674248 -8.994517228565682 0 1 0 I I #
point $-1 -59.156960596394896 -23.118652616894952 -8.994517228565682 #
point $-1 -59.156960596394896 -23.118652616894952 8.994517228565682 #
straight-curve $-1 49.877296260411143 11.205742977073148 8.9945172285656767 0 -1 0 I I #
straight-curve $-1 0 29.430543231452507 8.994517228565682 -1 0 0 I I #
straight-curve $-1 53.11441389202551 29.430543231452507 0 0 0 -1 I I #
point $-1 49.877296260411143 29.430543231452504 8.9945172285656838 #
point $-1 53.11441389202551 29.430543231452507 8.994517228565682 #
point $-1 50.281554409701144 18.200051587762577 6.174047991603385 #
point $-1 50.281554409701144 22.411485954146304 6.174047991603385 #
point $-1 50.281554409701144 26.622920320530032 6.174047991603385 #
straight-curve $-1 -59.156960596394896 -24.747064572674248 8.994517228565682 0 -1 0 I I #
End-of-ACIS-data 