500 0 4 0           
7 Unknown 11 ACIS 5.0 NT 24 Fri Mar 26 17:53:08 1999 
-1 9.9999999999999995e-007 1e-010 
body $-1 $4 $-1 $5 #
body $-1 $6 $-1 $7 #
body $-1 $8 $-1 $9 #
body $-1 $10 $-1 $11 #
lump $-1 $-1 $12 $0 #
transform $-1 1 0 0 0 1 0 0 0 1 55.98315378276925 39.055968013465183 15.045731505294079 1 rotate no_reflect no_shear #
lump $-1 $-1 $13 $1 #
transform $-1 1 0 0 0 1 0 0 0 1 55.98315378276925 39.055968013465183 15.045731505294079 1 rotate no_reflect no_shear #
lump $-1 $-1 $14 $2 #
transform $-1 1 0 0 0 1 0 0 0 1 55.98315378276925 39.055968013465183 15.045731505294079 1 rotate no_reflect no_shear #
lump $-1 $-1 $15 $3 #
transform $-1 1 0 0 0 1 0 0 0 1 55.98315378276925 39.055968013465183 15.045731505294079 1 rotate no_reflect no_shear #
shell $-1 $-1 $-1 $16 $-1 $4 #
shell $-1 $-1 $-1 $17 $-1 $6 #
shell $-1 $-1 $-1 $18 $-1 $8 #
shell $-1 $-1 $-1 $19 $-1 $10 #
face $-1 $20 $21 $12 $-1 $22 forward single #
face $-1 $23 $24 $13 $-1 $25 forward single #
face $-1 $26 $27 $14 $-1 $28 reversed single #
face $-1 $29 $30 $15 $-1 $31 forward single #
face $-1 $32 $33 $12 $-1 $34 reversed single #
loop $-1 $-1 $35 $16 #
plane-surface $-1 0 0 15.045731505294079 0 0 1 1 0 0 forward_v I I I I #
face $-1 $36 $37 $13 $-1 $38 reversed single #
loop $-1 $-1 $39 $17 #
plane-surface $-1 -50.202240001303245 0 6.1256440824760894 0 0 1 1 0 0 forward_v I I I I #
face $-1 $40 $41 $14 $-1 $42 reversed single #
loop $-1 $-1 $43 $18 #
plane-surface $-1 41.624029244660342 -127.28662334096359 71.667681900987475 1 0 0 0 0.78801076186113728 -0.61566146476048833 forward_v I I I I #
face $-1 $44 $45 $15 $-1 $46 forward single #
loop $-1 $47 $48 $19 #
cone-surface $-1 48.803591513714792 -31.591371333011114 6.8155349974354884 0 0.78801076186113728 -0.61566146476048833 2 0 0 1 I I 0 1 2 forward I I I I #
face $-1 $49 $50 $12 $-1 $51 reversed single #
loop $-1 $-1 $52 $20 #
plane-surface $-1 0 0 -15.045731505294079 0 0 1 1 0 0 forward_v I I I I #
coedge $-1 $53 $54 $55 $56 forward $21 $-1 #
face $-1 $57 $58 $13 $-1 $59 reversed single #
loop $-1 $-1 $60 $23 #
plane-surface $-1 -50.202240001303245 0 -0.7815161928477643 0 0 1 1 0 0 forward_v I I I I #
coedge $-1 $61 $62 $63 $64 forward $24 $-1 #
face $-1 $65 $66 $14 $-1 $67 forward single #
loop $-1 $-1 $68 $26 #
plane-surface $-1 48.803591513714792 -39.055968013465176 2.7343409813646957 0 -0.78801076186113728 0.61566146476048833 1 0 0 forward_v I I I I #
coedge $-1 $69 $70 $71 $72 reversed $27 $-1 #
face $-1 $-1 $73 $15 $-1 $74 forward single #
loop $-1 $75 $76 $29 #
cone-surface $-1 48.803591513714792 -28.148119987114569 4.1253722867810971 0 0.78801076186113728 -0.61566146476048833 1 0 0 1 I I -0.70710678118654746 0.70710678118654746 1 forward I I I I #
loop $-1 $-1 $77 $19 #
coedge $-1 $48 $48 $78 $79 reversed $30 $-1 #
face $-1 $80 $81 $12 $-1 $82 reversed single #
loop $-1 $-1 $83 $32 #
plane-surface $-1 0 -39.055968013465183 0 0 1 0 0 0 1 forward_v I I I I #
coedge $-1 $84 $85 $86 $87 forward $33 $-1 #
coedge $-1 $88 $35 $89 $90 forward $21 $-1 #
coedge $-1 $35 $88 $91 $92 forward $21 $-1 #
coedge $-1 $93 $94 $35 $56 reversed $95 $-1 #
edge $-1 $96 -39.055968013465183 $97 39.055968013465183 $55 $98 forward 7 unknown #
face $-1 $99 $100 $13 $-1 $101 reversed single #
loop $-1 $-1 $102 $36 #
plane-surface $-1 -44.421326219837241 0 2.6720639448141625 -1 0 0 0 0 1 forward_v I I I I #
coedge $-1 $103 $104 $105 $106 forward $37 $-1 #
coedge $-1 $107 $39 $108 $109 reversed $24 $-1 #
coedge $-1 $39 $107 $110 $111 reversed $24 $-1 #
coedge $-1 $102 $112 $39 $64 reversed $58 $-1 #
edge $-1 $113 -39.055968013465183 $114 39.055968013465183 $63 $115 forward 7 unknown #
face $-1 $116 $117 $14 $-1 $118 reversed single #
loop $-1 $-1 $119 $40 #
plane-surface $-1 0 0 15.045731505294079 0 0 1 1 0 0 forward_v I I I I #
coedge $-1 $120 $121 $122 $123 reversed $41 $-1 #
coedge $-1 $70 $43 $124 $125 reversed $27 $-1 #
coedge $-1 $43 $69 $120 $126 reversed $27 $-1 #
coedge $-1 $122 $127 $43 $72 forward $117 $-1 #
edge $-1 $128 20.788109445199659 $129 33.099499969129049 $71 $130 forward 7 unknown #
loop $-1 $-1 $78 $44 #
plane-surface $-1 48.803591513714792 -39.055968013465176 2.7343409813646957 0 -0.78801076186113728 0.61566146476048833 1 0 0 forward_v I I I I #
loop $-1 $-1 $131 $29 #
coedge $-1 $76 $76 $77 $132 reversed $45 $-1 #
coedge $-1 $77 $77 $76 $132 forward $47 $-1 #
coedge $-1 $78 $78 $48 $79 forward $73 $-1 #
edge $-1 $133 -1.5749612020238124e-015 $133 6.2831853071795987 $78 $134 forward 7 unknown #
face $-1 $135 $136 $12 $-1 $137 reversed single #
loop $-1 $-1 $138 $49 #
plane-surface $-1 -55.98315378276925 0 0 1 0 0 0 0 -1 forward_v I I I I #
coedge $-1 $139 $91 $140 $141 forward $50 $-1 #
coedge $-1 $142 $52 $139 $143 forward $33 $-1 #
coedge $-1 $52 $142 $144 $145 forward $33 $-1 #
coedge $-1 $94 $93 $52 $87 reversed $95 $-1 #
edge $-1 $146 -39.055968013465183 $147 39.055968013465183 $86 $148 forward 7 unknown #
coedge $-1 $54 $53 $149 $150 forward $21 $-1 #
coedge $-1 $151 $152 $53 $90 reversed $136 $-1 #
edge $-1 $97 -55.98315378276925 $153 55.98315378276925 $89 $154 forward 7 unknown #
coedge $-1 $83 $155 $54 $92 reversed $50 $-1 #
edge $-1 $156 -55.98315378276925 $96 55.98315378276925 $91 $157 forward 7 unknown #
coedge $-1 $86 $55 $155 $158 forward $95 $-1 #
coedge $-1 $55 $86 $151 $159 reversed $95 $-1 #
loop $-1 $-1 $93 $135 #
vertex $-1 $56 $160 #
vertex $-1 $56 $161 #
straight-curve $-1 55.98315378276925 0 15.045731505294079 0 1 0 I I #
face $-1 $162 $163 $13 $-1 $164 reversed single #
loop $-1 $-1 $165 $57 #
plane-surface $-1 0 -39.055968013465183 0 0 1 0 0 0 1 forward_v I I I I #
coedge $-1 $105 $63 $166 $167 reversed $58 $-1 #
coedge $-1 $168 $60 $165 $169 reversed $37 $-1 #
coedge $-1 $60 $168 $170 $171 reversed $37 $-1 #
coedge $-1 $112 $102 $60 $106 reversed $58 $-1 #
edge $-1 $172 -39.055968013465183 $173 39.055968013465183 $105 $174 forward 7 unknown #
coedge $-1 $62 $61 $175 $176 reversed $24 $-1 #
coedge $-1 $177 $178 $61 $109 forward $179 $-1 #
edge $-1 $180 -30.882033782117627 $114 -19.320206219185618 $108 $181 forward 7 unknown #
coedge $-1 $182 $166 $62 $111 forward $100 $-1 #
edge $-1 $113 19.320206219185618 $183 30.882033782117627 $110 $184 forward 7 unknown #
coedge $-1 $63 $105 $177 $185 reversed $58 $-1 #
vertex $-1 $111 $186 #
vertex $-1 $109 $187 #
straight-curve $-1 -44.421326219837241 0 6.1256440824760894 0 1 0 I I #
face $-1 $-1 $188 $14 $-1 $189 reversed single #
loop $-1 $-1 $71 $65 #
plane-surface $-1 0 -39.055968013465183 0 0 1 0 0 0 1 forward_v I I I I #
coedge $-1 $124 $190 $191 $192 forward $66 $-1 #
coedge $-1 $191 $68 $70 $126 forward $41 $-1 #
coedge $-1 $68 $191 $193 $194 reversed $41 $-1 #
coedge $-1 $195 $71 $68 $123 forward $117 $-1 #
edge $-1 $129 17.222233487802946 $196 31.581358025911847 $122 $197 forward 7 unknown #
coedge $-1 $198 $119 $69 $125 forward $66 $-1 #
edge $-1 $199 -34.206055849853954 $128 -24.587343657016611 $124 $200 forward 7 unknown #
edge $-1 $129 -1.1373479346495045e-014 $199 15.623378664083383 $70 $201 forward 7 unknown #
coedge $-1 $71 $195 $198 $202 reversed $117 $-1 #
vertex $-1 $202 $203 #
vertex $-1 $72 $204 #
straight-curve $-1 41.624029244660342 -39.055968013465183 35.833840950493737 0 0 -1 I I #
coedge $-1 $131 $131 $-1 $205 reversed $75 $-1 #
edge $-1 $206 0 $206 6.2831853071796004 $76 $207 forward 7 unknown #
vertex $-1 $79 $208 #
ellipse-curve $-1 48.803591513714792 -34.246611917046508 8.8900362433293836 0 -0.78801076186113728 0.61566146476048833 2 0 0 1 I I #
face $-1 $-1 $95 $12 $-1 $209 reversed single #
loop $-1 $-1 $151 $80 #
plane-surface $-1 0 39.055968013465183 0 0 -1 0 0 0 -1 forward_v I I I I #
coedge $-1 $210 $149 $152 $211 forward $81 $-1 #
coedge $-1 $155 $83 $84 $143 reversed $50 $-1 #
coedge $-1 $149 $210 $83 $141 reversed $81 $-1 #
edge $-1 $156 -15.045731505294079 $212 15.045731505294079 $140 $213 forward 7 unknown #
coedge $-1 $85 $84 $210 $214 forward $33 $-1 #
edge $-1 $147 -55.98315378276925 $212 55.98315378276925 $139 $215 forward 7 unknown #
coedge $-1 $152 $151 $85 $145 reversed $136 $-1 #
edge $-1 $216 -55.98315378276925 $146 55.98315378276925 $144 $217 forward 7 unknown #
vertex $-1 $87 $218 #
vertex $-1 $158 $219 #
straight-curve $-1 55.98315378276925 0 -15.045731505294079 0 -1 0 I I #
coedge $-1 $138 $140 $88 $150 reversed $81 $-1 #
edge $-1 $153 -39.055968013465183 $156 39.055968013465183 $149 $220 forward 7 unknown #
coedge $-1 $144 $89 $94 $159 forward $136 $-1 #
coedge $-1 $89 $144 $138 $211 reversed $136 $-1 #
vertex $-1 $90 $221 #
straight-curve $-1 0 39.055968013465183 15.045731505294079 -1 0 0 I I #
coedge $-1 $91 $139 $93 $158 reversed $50 $-1 #
vertex $-1 $150 $222 #
straight-curve $-1 0 -39.055968013465183 15.045731505294079 1 0 0 I I #
edge $-1 $96 -15.045731505294079 $147 15.045731505294079 $93 $223 forward 7 unknown #
edge $-1 $97 -15.045731505294079 $146 15.045731505294079 $94 $224 forward 7 unknown #
point $-1 55.98315378276925 -39.055968013465183 15.045731505294079 #
point $-1 55.98315378276925 39.055968013465183 15.045731505294079 #
face $-1 $-1 $179 $13 $-1 $225 reversed single #
loop $-1 $-1 $226 $99 #
plane-surface $-1 -55.98315378276925 0 0 1 0 0 0 0 -1 forward_v I I I I #
coedge $-1 $166 $182 $103 $169 forward $100 $-1 #
coedge $-1 $110 $165 $102 $167 forward $100 $-1 #
edge $-1 $173 -2.1175481652548456 $113 4.7896121100690081 $166 $227 forward 7 unknown #
coedge $-1 $104 $103 $226 $228 reversed $37 $-1 #
edge $-1 $229 -30.882033782117627 $173 -19.320206219185618 $165 $230 forward 7 unknown #
coedge $-1 $178 $177 $104 $171 forward $179 $-1 #
edge $-1 $172 19.320206219185618 $231 30.882033782117627 $170 $232 forward 7 unknown #
vertex $-1 $171 $233 #
vertex $-1 $169 $234 #
straight-curve $-1 -44.421326219837241 0 -0.7815161928477643 0 -1 0 I I #
coedge $-1 $235 $236 $107 $176 forward $163 $-1 #
edge $-1 $183 -39.055968013465183 $180 39.055968013465183 $175 $237 forward 7 unknown #
coedge $-1 $170 $108 $112 $185 forward $179 $-1 #
coedge $-1 $108 $170 $235 $238 reversed $179 $-1 #
loop $-1 $-1 $170 $162 #
vertex $-1 $238 $239 #
straight-curve $-1 -25.101120000651623 39.055968013465183 6.1256440824760894 1 0 0 I I #
coedge $-1 $165 $110 $236 $240 forward $100 $-1 #
vertex $-1 $240 $241 #
straight-curve $-1 -25.101120000651623 -39.055968013465183 6.1256440824760894 -1 0 0 I I #
edge $-1 $114 -4.7896121100690081 $172 2.1175481652548456 $177 $242 forward 7 unknown #
point $-1 -44.421326219837241 -39.055968013465183 6.1256440824760894 #
point $-1 -44.421326219837241 39.055968013465183 6.1256440824760894 #
loop $-1 $-1 $193 $116 #
plane-surface $-1 55.98315378276925 0 0 -1 0 0 0 0 1 forward_v I I I I #
coedge $-1 $119 $198 $243 $244 forward $66 $-1 #
coedge $-1 $121 $120 $119 $192 reversed $41 $-1 #
edge $-1 $245 -31.581358025911847 $199 -17.222233487802946 $119 $246 forward 7 unknown #
coedge $-1 $243 $247 $121 $194 forward $188 $-1 #
edge $-1 $196 -10.945282177447725 $245 4.6780964866356678 $193 $248 forward 7 unknown #
coedge $-1 $127 $122 $247 $249 reversed $117 $-1 #
vertex $-1 $123 $250 #
straight-curve $-1 24.401795756857396 -39.055968013465183 2.7343409813646824 1 0 0 I I #
coedge $-1 $190 $124 $127 $202 forward $66 $-1 #
vertex $-1 $125 $251 #
straight-curve $-1 41.624029244660342 -63.643311670481793 15.045731505294079 0 -1 0 I I #
straight-curve $-1 41.624029244660342 -39.055968013465176 2.7343409813646957 0 0.61566146476048833 0.78801076186113728 I I #
edge $-1 $128 41.624029244660342 $252 55.98315378276925 $127 $253 forward 7 unknown #
point $-1 41.624029244660342 -39.055968013465183 15.045731505294079 #
point $-1 41.624029244660342 -39.055968013465183 2.7343409813646868 #
edge $-1 $254 1 $254 0 $131 $-1 forward 7 unknown #
vertex $-1 $132 $255 #
ellipse-curve $-1 48.803591513714792 -28.936130748975707 4.7410337515415852 0 -0.78801076186113728 0.61566146476048833 2 0 0 1 I I #
point $-1 50.803591513714792 -34.246611917046522 8.8900362433293907 #
plane-surface $-1 55.98315378276925 0 0 -1 0 0 0 0 1 forward_v I I I I #
coedge $-1 $140 $138 $142 $214 reversed $81 $-1 #
edge $-1 $153 -15.045731505294079 $216 15.045731505294079 $152 $256 forward 7 unknown #
vertex $-1 $214 $257 #
straight-curve $-1 -55.98315378276925 -39.055968013465183 0 0 0 -1 I I #
edge $-1 $212 -39.055968013465183 $216 39.055968013465183 $210 $258 forward 7 unknown #
straight-curve $-1 0 -39.055968013465183 -15.045731505294079 -1 0 0 I I #
vertex $-1 $145 $259 #
straight-curve $-1 0 39.055968013465183 -15.045731505294079 1 0 0 I I #
point $-1 55.98315378276925 39.055968013465183 -15.045731505294079 #
point $-1 55.98315378276925 -39.055968013465183 -15.045731505294079 #
straight-curve $-1 -55.98315378276925 0 15.045731505294079 0 -1 0 I I #
point $-1 -55.98315378276925 39.055968013465183 15.045731505294079 #
point $-1 -55.98315378276925 -39.055968013465183 15.045731505294079 #
straight-curve $-1 55.98315378276925 -39.055968013465183 0 0 0 -1 I I #
straight-curve $-1 55.98315378276925 39.055968013465183 0 0 0 -1 I I #
plane-surface $-1 0 39.055968013465183 0 0 -1 0 0 0 -1 forward_v I I I I #
coedge $-1 $236 $235 $168 $228 forward $163 $-1 #
straight-curve $-1 -44.421326219837241 -39.055968013465183 1.3360319724070813 0 0 1 I I #
edge $-1 $231 -39.055968013465183 $229 39.055968013465183 $226 $260 forward 7 unknown #
vertex $-1 $169 $261 #
straight-curve $-1 -25.101120000651623 -39.055968013465183 -0.7815161928477643 1 0 0 I I #
vertex $-1 $171 $262 #
straight-curve $-1 -25.101120000651623 39.055968013465183 -0.7815161928477643 -1 0 0 I I #
point $-1 -44.421326219837241 39.055968013465183 -0.7815161928477643 #
point $-1 -44.421326219837241 -39.055968013465183 -0.7815161928477643 #
coedge $-1 $226 $175 $178 $238 forward $163 $-1 #
coedge $-1 $175 $226 $182 $240 reversed $163 $-1 #
straight-curve $-1 -55.98315378276925 0 6.1256440824760894 0 1 0 I I #
edge $-1 $180 -6.1256440824760894 $231 0.7815161928477643 $178 $263 forward 7 unknown #
point $-1 -55.98315378276925 39.055968013465183 6.1256440824760894 #
edge $-1 $183 -6.1256440824760894 $229 0.7815161928477643 $236 $264 forward 7 unknown #
point $-1 -55.98315378276925 -39.055968013465183 6.1256440824760894 #
straight-curve $-1 -44.421326219837241 39.055968013465183 1.3360319724070813 0 0 -1 I I #
coedge $-1 $247 $193 $190 $244 reversed $188 $-1 #
edge $-1 $252 -39.055968013465183 $245 -29.43725582062784 $243 $265 forward 7 unknown #
vertex $-1 $194 $266 #
straight-curve $-1 24.401795756857396 -29.43725582062784 15.045731505294079 -1 0 0 I I #
coedge $-1 $193 $243 $195 $249 forward $188 $-1 #
straight-curve $-1 55.98315378276925 -32.317379555880848 11.359341128800395 0 0.61566146476048833 0.78801076186113728 I I #
edge $-1 $252 -15.045731505294079 $196 -2.7343409813646868 $247 $267 forward 7 unknown #
point $-1 55.983153782769243 -39.055968013465183 2.7343409813646868 #
point $-1 41.624029244660342 -29.43725582062784 15.045731505294079 #
vertex $-1 $244 $268 #
straight-curve $-1 0 -39.055968013465183 15.045731505294079 1 0 0 I I #
vertex $-1 $205 $269 #
point $-1 50.803591513714792 -28.936130748975707 4.7410337515415852 #
straight-curve $-1 -55.98315378276925 39.055968013465183 0 0 0 -1 I I #
point $-1 -55.98315378276925 -39.055968013465183 -15.045731505294079 #
straight-curve $-1 -55.98315378276925 0 -15.045731505294079 0 1 0 I I #
point $-1 -55.98315378276925 39.055968013465183 -15.045731505294079 #
straight-curve $-1 -55.98315378276925 0 -0.7815161928477643 0 -1 0 I I #
point $-1 -55.98315378276925 -39.055968013465183 -0.7815161928477643 #
point $-1 -55.98315378276925 39.055968013465183 -0.7815161928477643 #
straight-curve $-1 -55.98315378276925 39.055968013465183 0 0 0 -1 I I #
straight-curve $-1 -55.98315378276925 -39.055968013465183 0 0 0 -1 I I #
straight-curve $-1 55.98315378276925 0 15.045731505294079 0 1 0 I I #
point $-1 55.983153782769243 -29.43725582062784 15.045731505294079 #
straight-curve $-1 55.98315378276925 -39.055968013465183 0 0 0 -1 I I #
point $-1 55.98315378276925 -39.055968013465183 15.045731505294079 #
point $-1 48.803591513714792 -27.360109225253431 3.509710822020609 #
End-of-ACIS-data 