500 0 8 0           
7 Unknown 11 ACIS 5.0 NT 24 Thu Mar 25 19:19:53 1999 
-1 9.9999999999999995e-007 1e-010 
body $-1 $8 $-1 $9 #
body $-1 $10 $-1 $11 #
body $-1 $12 $-1 $13 #
body $-1 $14 $-1 $15 #
body $-1 $16 $-1 $17 #
body $-1 $18 $-1 $19 #
body $-1 $20 $-1 $21 #
body $-1 $22 $-1 $23 #
lump $-1 $-1 $24 $0 #
transform $-1 1 0 0 0 1 0 0 0 1 43.249610889004181 25.947918654278858 11.868319994118275 1 rotate no_reflect no_shear #
lump $-1 $-1 $25 $1 #
transform $-1 1 0 0 0 1 0 0 0 1 43.249610889004181 25.947918654278858 11.868319994118275 1 rotate no_reflect no_shear #
lump $-1 $-1 $26 $2 #
transform $-1 1 0 0 0 1 0 0 0 1 43.249610889004181 25.947918654278858 11.868319994118275 1 rotate no_reflect no_shear #
lump $-1 $-1 $27 $3 #
transform $-1 1 0 0 0 1 0 0 0 1 43.249610889004181 25.947918654278858 11.868319994118275 1 rotate no_reflect no_shear #
lump $-1 $-1 $28 $4 #
transform $-1 1 0 0 0 1 0 0 0 1 43.249610889004181 25.947918654278858 11.868319994118275 1 rotate no_reflect no_shear #
lump $-1 $-1 $29 $5 #
transform $-1 1 0 0 0 1 0 0 0 1 43.249610889004181 25.947918654278858 11.868319994118275 1 rotate no_reflect no_shear #
lump $-1 $-1 $30 $6 #
transform $-1 1 0 0 0 1 0 0 0 1 43.249610889004181 25.947918654278858 11.868319994118275 1 rotate no_reflect no_shear #
lump $-1 $-1 $31 $7 #
transform $-1 1 0 0 0 1 0 0 0 1 43.249610889004181 25.947918654278858 11.868319994118275 1 rotate no_reflect no_shear #
shell $-1 $-1 $-1 $32 $-1 $8 #
shell $-1 $-1 $-1 $33 $-1 $10 #
shell $-1 $-1 $-1 $34 $-1 $12 #
shell $-1 $-1 $-1 $35 $-1 $14 #
shell $-1 $-1 $-1 $36 $-1 $16 #
shell $-1 $-1 $-1 $37 $-1 $18 #
shell $-1 $-1 $-1 $38 $-1 $20 #
shell $-1 $-1 $-1 $39 $-1 $22 #
face $-1 $40 $41 $24 $-1 $42 forward single #
face $-1 $43 $44 $25 $-1 $45 reversed single #
face $-1 $46 $47 $26 $-1 $48 reversed single #
face $-1 $49 $50 $27 $-1 $51 forward single #
face $-1 $52 $53 $28 $-1 $54 forward single #
face $-1 $55 $56 $29 $-1 $57 reversed single #
face $-1 $58 $59 $30 $-1 $60 forward single #
face $-1 $61 $62 $31 $-1 $63 forward single #
face $-1 $64 $65 $24 $-1 $66 reversed single #
loop $-1 $-1 $67 $32 #
plane-surface $-1 0 0 11.868319994118275 0 0 1 1 0 0 forward_v I I I I #
face $-1 $68 $69 $25 $-1 $70 reversed single #
loop $-1 $-1 $71 $33 #
plane-surface $-1 0 -19.489748079959345 6.2630769374765975 0 0 1 1 0 0 forward_v I I I I #
face $-1 $72 $73 $26 $-1 $74 reversed single #
loop $-1 $-1 $75 $34 #
plane-surface $-1 22.007513001856147 18.37354203836226 125.9110354530666 0 -1 0 -0.57357644374324357 0 -0.81915203911291934 forward_v I I I I #
face $-1 $76 $77 $27 $-1 $78 forward single #
loop $-1 $79 $80 $35 #
cone-surface $-1 37.95672168715474 11.105227928415978 7.6501784231958556 -0.57357644374324357 0 -0.81915203911291934 0.81915203911291934 0 -0.57357644374324357 1 I I 0 1 1 forward I I I I #
face $-1 $81 $82 $28 $-1 $83 forward single #
loop $-1 $84 $85 $36 #
cone-surface $-1 37.95672168715474 15.46621639438375 7.6501784231958556 -0.57357644374324357 0 -0.81915203911291934 0.81915203911291934 0 -0.57357644374324357 1 I I 0 1 1 forward I I I I #
face $-1 $86 $87 $29 $-1 $88 reversed single #
loop $-1 $-1 $89 $37 #
plane-surface $-1 -43.249610889004174 -9.6329542182697345 5.652481553915834 -0.52991927123019833 0 0.84804809178421925 0.84804809178421925 0 0.52991927123019833 forward_v I I I I #
face $-1 $90 $91 $30 $-1 $92 forward single #
loop $-1 $93 $94 $38 #
cone-surface $-1 -38.010940903305595 -11.089507055714062 8.3363767281249466 0.52991927123019833 0 -0.84804809178421925 0.42402404589210962 0 0.26495963561509916 1 I I 0 1 0.5 forward I I I I #
face $-1 $95 $96 $31 $-1 $97 forward single #
loop $-1 $98 $99 $39 #
cone-surface $-1 -38.010940903305595 -8.176401380825407 8.3363767281249466 0.52991927123019833 0 -0.84804809178421925 0.42402404589210962 0 0.26495963561509916 1 I I 0 1 0.5 forward I I I I #
face $-1 $100 $101 $24 $-1 $102 reversed single #
loop $-1 $-1 $103 $40 #
plane-surface $-1 0 0 -11.868319994118275 0 0 1 1 0 0 forward_v I I I I #
coedge $-1 $104 $105 $106 $107 forward $41 $-1 #
face $-1 $108 $109 $25 $-1 $110 reversed single #
loop $-1 $-1 $111 $43 #
plane-surface $-1 0 -13.031577505639831 9.0656984657974373 0 -1 0 0 0 -1 forward_v I I I I #
coedge $-1 $112 $113 $114 $115 reversed $44 $-1 #
face $-1 $116 $117 $26 $-1 $118 reversed single #
loop $-1 $-1 $119 $46 #
plane-surface $-1 -27.606403012132027 13.28572216139986 55.055021551930395 0.57357644374324357 0 0.81915203911291934 0.81915203911291934 0 -0.57357644374324357 forward_v I I I I #
coedge $-1 $120 $121 $122 $123 reversed $47 $-1 #
face $-1 $-1 $124 $27 $-1 $125 forward single #
loop $-1 $126 $127 $49 #
cone-surface $-1 36.966550932530261 11.105227928415978 6.2360680608049943 -0.57357644374324357 0 -0.81915203911291934 0.40957601955645967 0 -0.28678822187162178 1 I I -0.70710678118654746 0.70710678118654746 0.5 forward I I I I #
loop $-1 $-1 $128 $35 #
coedge $-1 $80 $80 $129 $130 reversed $50 $-1 #
face $-1 $-1 $131 $28 $-1 $132 forward single #
loop $-1 $133 $134 $52 #
cone-surface $-1 36.966550932530261 15.46621639438375 6.2360680608049943 -0.57357644374324357 0 -0.81915203911291934 0.40957601955645967 0 -0.28678822187162178 1 I I -0.70710678118654746 0.70710678118654746 0.5 forward I I I I #
loop $-1 $-1 $135 $36 #
coedge $-1 $85 $85 $136 $137 reversed $53 $-1 #
face $-1 $138 $139 $29 $-1 $140 forward single #
loop $-1 $-1 $141 $55 #
plane-surface $-1 -89.087215455585664 -6.2343309308996355 79.007981523575808 0 -1 0 0.52991927123019833 0 -0.84804809178421925 forward_v I I I I #
coedge $-1 $142 $143 $144 $145 reversed $56 $-1 #
face $-1 $-1 $146 $30 $-1 $147 forward single #
loop $-1 $148 $149 $58 #
cone-surface $-1 -37.613501449882946 -11.089507055714062 7.7003406592867822 0.52991927123019833 0 -0.84804809178421925 0.21201202294605481 0 0.13247981780754958 1 I I -0.70710678118654746 0.70710678118654746 0.25 forward I I I I #
loop $-1 $-1 $150 $38 #
coedge $-1 $94 $94 $151 $152 reversed $59 $-1 #
face $-1 $-1 $153 $31 $-1 $154 forward single #
loop $-1 $155 $156 $61 #
cone-surface $-1 -37.613501449882946 -8.176401380825407 7.7003406592867822 0.52991927123019833 0 -0.84804809178421925 0.21201202294605481 0 0.13247981780754958 1 I I -0.70710678118654746 0.70710678118654746 0.25 forward I I I I #
loop $-1 $-1 $157 $39 #
coedge $-1 $99 $99 $158 $159 reversed $62 $-1 #
face $-1 $160 $161 $24 $-1 $162 reversed single #
loop $-1 $-1 $163 $64 #
plane-surface $-1 0 -25.947918654278858 0 0 1 0 0 0 1 forward_v I I I I #
coedge $-1 $164 $165 $166 $167 forward $65 $-1 #
coedge $-1 $168 $67 $169 $170 forward $41 $-1 #
coedge $-1 $67 $168 $171 $172 forward $41 $-1 #
coedge $-1 $173 $174 $67 $107 reversed $175 $-1 #
edge $-1 $176 -25.947918654278858 $177 25.947918654278858 $106 $178 forward 7 unknown #
face $-1 $179 $180 $25 $-1 $181 reversed single #
loop $-1 $-1 $182 $68 #
plane-surface $-1 -43.249610889004181 0 0 1 0 0 0 0 -1 forward_v I I I I #
coedge $-1 $183 $184 $185 $186 reversed $69 $-1 #
coedge $-1 $187 $71 $188 $189 reversed $44 $-1 #
coedge $-1 $71 $187 $190 $191 forward $44 $-1 #
coedge $-1 $192 $193 $71 $115 forward $194 $-1 #
edge $-1 $195 -16.203044614299188 $196 -3.2867034656601586 $114 $197 forward 7 unknown #
face $-1 $198 $199 $26 $-1 $200 reversed single #
loop $-1 $-1 $201 $72 #
plane-surface $-1 22.007513001856147 8.1979022844374612 125.9110354530666 0 1 0 0.57357644374324357 0 0.81915203911291934 forward_v I I I I #
coedge $-1 $202 $203 $204 $205 reversed $73 $-1 #
coedge $-1 $121 $75 $206 $207 reversed $47 $-1 #
coedge $-1 $75 $120 $202 $208 reversed $47 $-1 #
coedge $-1 $204 $209 $75 $123 forward $210 $-1 #
edge $-1 $211 -32.245854388076111 $212 -23.066841049882928 $122 $213 forward 7 unknown #
loop $-1 $-1 $129 $76 #
plane-surface $-1 -27.606403012132027 13.28572216139986 55.055021551930395 0.57357644374324357 0 0.81915203911291934 0.81915203911291934 0 -0.57357644374324357 forward_v I I I I #
loop $-1 $-1 $214 $49 #
coedge $-1 $127 $127 $128 $215 reversed $77 $-1 #
coedge $-1 $128 $128 $127 $215 forward $79 $-1 #
coedge $-1 $129 $129 $80 $130 forward $124 $-1 #
edge $-1 $216 0 $216 6.2831853071796004 $129 $217 forward 7 unknown #
loop $-1 $-1 $136 $81 #
plane-surface $-1 -27.606403012132027 13.28572216139986 55.055021551930395 0.57357644374324357 0 0.81915203911291934 0.81915203911291934 0 -0.57357644374324357 forward_v I I I I #
loop $-1 $-1 $218 $52 #
coedge $-1 $134 $134 $135 $219 reversed $82 $-1 #
coedge $-1 $135 $135 $134 $219 forward $84 $-1 #
coedge $-1 $136 $136 $85 $137 forward $131 $-1 #
edge $-1 $220 0 $220 6.2831853071796004 $136 $221 forward 7 unknown #
face $-1 $222 $223 $29 $-1 $224 reversed single #
loop $-1 $-1 $144 $86 #
plane-surface $-1 0 0 11.868319994118275 0 0 1 1 0 0 forward_v I I I I #
coedge $-1 $225 $226 $227 $228 reversed $87 $-1 #
coedge $-1 $229 $89 $230 $231 reversed $56 $-1 #
coedge $-1 $89 $229 $225 $232 forward $56 $-1 #
coedge $-1 $227 $233 $89 $145 forward $139 $-1 #
edge $-1 $234 -8.2151003965049672 $235 -1.4178538217647683 $144 $236 forward 7 unknown #
loop $-1 $-1 $151 $90 #
plane-surface $-1 -43.249610889004174 -9.6329542182697345 5.652481553915834 -0.52991927123019833 0 0.84804809178421925 0.84804809178421925 0 0.52991927123019833 forward_v I I I I #
loop $-1 $-1 $237 $58 #
coedge $-1 $149 $149 $150 $238 reversed $91 $-1 #
coedge $-1 $150 $150 $149 $238 forward $93 $-1 #
coedge $-1 $151 $151 $94 $152 forward $146 $-1 #
edge $-1 $239 0 $239 6.2831853071796004 $151 $240 forward 7 unknown #
loop $-1 $-1 $158 $95 #
plane-surface $-1 -43.249610889004174 -9.6329542182697345 5.652481553915834 -0.52991927123019833 0 0.84804809178421925 0.84804809178421925 0 0.52991927123019833 forward_v I I I I #
loop $-1 $-1 $241 $61 #
coedge $-1 $156 $156 $157 $242 reversed $96 $-1 #
coedge $-1 $157 $157 $156 $242 forward $98 $-1 #
coedge $-1 $158 $158 $99 $159 forward $153 $-1 #
edge $-1 $243 0 $243 6.2831853071796004 $158 $244 forward 7 unknown #
face $-1 $245 $246 $24 $-1 $247 reversed single #
loop $-1 $-1 $248 $100 #
plane-surface $-1 -43.249610889004181 0 0 1 0 0 0 0 -1 forward_v I I I I #
coedge $-1 $249 $171 $250 $251 forward $101 $-1 #
coedge $-1 $252 $103 $249 $253 forward $65 $-1 #
coedge $-1 $103 $252 $254 $255 forward $65 $-1 #
coedge $-1 $174 $173 $103 $167 reversed $175 $-1 #
edge $-1 $256 -25.947918654278858 $257 25.947918654278858 $166 $258 forward 7 unknown #
coedge $-1 $105 $104 $259 $260 forward $41 $-1 #
coedge $-1 $261 $262 $104 $170 reversed $246 $-1 #
edge $-1 $177 -43.249610889004181 $263 43.249610889004181 $169 $264 forward 7 unknown #
coedge $-1 $163 $265 $105 $172 reversed $101 $-1 #
edge $-1 $266 -43.249610889004181 $176 43.249610889004181 $171 $267 forward 7 unknown #
coedge $-1 $166 $106 $265 $268 forward $175 $-1 #
coedge $-1 $106 $166 $261 $269 reversed $175 $-1 #
loop $-1 $-1 $173 $245 #
vertex $-1 $107 $270 #
vertex $-1 $107 $271 #
straight-curve $-1 43.249610889004181 0 11.868319994118275 0 1 0 I I #
face $-1 $272 $273 $25 $-1 $274 forward single #
loop $-1 $-1 $188 $108 #
plane-surface $-1 0 -25.947918654278858 0 0 1 0 0 0 1 forward_v I I I I #
coedge $-1 $275 $276 $184 $277 forward $109 $-1 #
coedge $-1 $190 $111 $192 $278 reversed $69 $-1 #
coedge $-1 $111 $190 $182 $277 reversed $69 $-1 #
coedge $-1 $279 $280 $111 $186 forward $273 $-1 #
edge $-1 $281 -43.249610889004181 $282 43.249610889004181 $185 $283 forward 7 unknown #
coedge $-1 $113 $112 $275 $284 reversed $44 $-1 #
coedge $-1 $285 $286 $112 $189 forward $180 $-1 #
edge $-1 $287 -43.249610889004181 $195 43.249610889004181 $188 $288 forward 7 unknown #
coedge $-1 $184 $183 $113 $191 reversed $69 $-1 #
edge $-1 $289 -43.249610889004181 $196 43.249610889004181 $190 $290 forward 7 unknown #
coedge $-1 $291 $114 $183 $278 forward $194 $-1 #
coedge $-1 $114 $291 $285 $292 forward $194 $-1 #
loop $-1 $-1 $192 $272 #
vertex $-1 $189 $293 #
vertex $-1 $115 $294 #
straight-curve $-1 43.249610889004181 -9.7448740399796723 6.2630769374765975 0 1 0 I I #
face $-1 $-1 $210 $26 $-1 $295 forward single #
loop $-1 $-1 $296 $116 #
plane-surface $-1 43.249610889004181 0 0 -1 0 0 0 0 1 forward_v I I I I #
coedge $-1 $297 $298 $299 $300 reversed $117 $-1 #
coedge $-1 $301 $119 $121 $208 forward $73 $-1 #
coedge $-1 $119 $301 $297 $302 forward $73 $-1 #
coedge $-1 $299 $122 $119 $205 forward $210 $-1 #
edge $-1 $212 -11.730680957662329 $303 -1.555041203737531 $204 $304 forward 7 unknown #
coedge $-1 $305 $306 $120 $207 forward $199 $-1 #
edge $-1 $307 -57.514412188591088 $211 -51.087197732415028 $206 $308 forward 7 unknown #
edge $-1 $212 75.29371547403413 $307 86.499221778008391 $121 $309 forward 7 unknown #
coedge $-1 $122 $299 $305 $310 forward $210 $-1 #
loop $-1 $-1 $299 $198 #
vertex $-1 $207 $311 #
vertex $-1 $123 $312 #
straight-curve $-1 11.003756500928073 18.37354203836226 11.868319994118274 -1 0 0 I I #
coedge $-1 $214 $214 $-1 $313 reversed $126 $-1 #
edge $-1 $314 0 $314 6.2831853071796004 $127 $315 forward 7 unknown #
vertex $-1 $130 $316 #
ellipse-curve $-1 38.660104219907588 11.105227928415978 8.6547127660302472 0.57357644374324357 0 0.81915203911291934 0.81915203911291934 0 -0.57357644374324357 1 I I #
coedge $-1 $218 $218 $-1 $317 reversed $133 $-1 #
edge $-1 $318 0 $318 6.2831853071796004 $134 $319 forward 7 unknown #
vertex $-1 $137 $320 #
ellipse-curve $-1 38.660104219907588 15.46621639438375 8.6547127660302472 0.57357644374324357 0 0.81915203911291934 0.81915203911291934 0 -0.57357644374324357 1 I I #
face $-1 $-1 $321 $29 $-1 $322 forward single #
loop $-1 $-1 $323 $138 #
plane-surface $-1 -43.249610889004181 0 0 1 0 0 0 0 -1 forward_v I I I I #
coedge $-1 $226 $141 $143 $232 reversed $87 $-1 #
coedge $-1 $141 $225 $323 $324 reversed $87 $-1 #
coedge $-1 $325 $144 $141 $228 forward $139 $-1 #
edge $-1 $235 -11.241417538955645 $326 -1.2939968387886509 $227 $327 forward 7 unknown #
coedge $-1 $143 $142 $328 $329 reversed $56 $-1 #
coedge $-1 $330 $331 $142 $231 forward $321 $-1 #
edge $-1 $332 -19.243239701662446 $234 -7.5134559823942499 $230 $333 forward 7 unknown #
edge $-1 $334 -8.3790584163743152e-015 $235 11.729783719268186 $225 $335 forward 7 unknown #
coedge $-1 $144 $325 $330 $336 forward $139 $-1 #
vertex $-1 $231 $337 #
vertex $-1 $145 $338 #
straight-curve $-1 -33.302190188837187 -4.8164771091348673 11.868319994118275 0 1 0 I I #
coedge $-1 $237 $237 $-1 $339 reversed $148 $-1 #
edge $-1 $340 0 $340 6.2831853071796004 $149 $341 forward 7 unknown #
vertex $-1 $152 $342 #
ellipse-curve $-1 -38.275900538920688 -11.089507055714062 8.7604007740170484 -0.52991927123019833 0 0.84804809178421925 0.42402404589210962 0 0.26495963561509916 1 I I #
coedge $-1 $241 $241 $-1 $343 reversed $155 $-1 #
edge $-1 $344 0 $344 6.2831853071796004 $156 $345 forward 7 unknown #
vertex $-1 $159 $346 #
ellipse-curve $-1 -38.275900538920688 -8.176401380825407 8.7604007740170484 -0.52991927123019833 0 0.84804809178421925 0.42402404589210962 0 0.26495963561509916 1 I I #
face $-1 $-1 $175 $24 $-1 $347 reversed single #
loop $-1 $-1 $261 $160 #
plane-surface $-1 0 25.947918654278858 0 0 -1 0 0 0 -1 forward_v I I I I #
coedge $-1 $348 $259 $262 $349 forward $161 $-1 #
coedge $-1 $265 $163 $164 $253 reversed $101 $-1 #
coedge $-1 $259 $348 $163 $251 reversed $161 $-1 #
edge $-1 $266 -11.868319994118275 $350 11.868319994118275 $250 $351 forward 7 unknown #
coedge $-1 $165 $164 $348 $352 forward $65 $-1 #
edge $-1 $257 -43.249610889004181 $350 43.249610889004181 $249 $353 forward 7 unknown #
coedge $-1 $262 $261 $165 $255 reversed $246 $-1 #
edge $-1 $354 -43.249610889004181 $256 43.249610889004181 $254 $355 forward 7 unknown #
vertex $-1 $167 $356 #
vertex $-1 $268 $357 #
straight-curve $-1 43.249610889004181 0 -11.868319994118275 0 -1 0 I I #
coedge $-1 $248 $250 $168 $260 reversed $161 $-1 #
edge $-1 $263 -25.947918654278858 $266 25.947918654278858 $259 $358 forward 7 unknown #
coedge $-1 $254 $169 $174 $269 forward $246 $-1 #
coedge $-1 $169 $254 $248 $349 reversed $246 $-1 #
vertex $-1 $170 $359 #
straight-curve $-1 0 25.947918654278858 11.868319994118275 -1 0 0 I I #
coedge $-1 $171 $249 $173 $268 reversed $101 $-1 #
vertex $-1 $260 $360 #
straight-curve $-1 0 -25.947918654278858 11.868319994118275 1 0 0 I I #
edge $-1 $176 -11.868319994118275 $257 11.868319994118275 $173 $361 forward 7 unknown #
edge $-1 $177 -11.868319994118275 $256 11.868319994118275 $174 $362 forward 7 unknown #
point $-1 43.249610889004181 -25.947918654278858 11.868319994118275 #
point $-1 43.249610889004181 25.947918654278858 11.868319994118275 #
face $-1 $-1 $194 $25 $-1 $363 reversed single #
loop $-1 $-1 $185 $179 #
plane-surface $-1 0 0 11.868319994118275 0 0 1 1 0 0 forward_v I I I I #
coedge $-1 $364 $182 $187 $284 forward $109 $-1 #
coedge $-1 $182 $364 $279 $365 reversed $109 $-1 #
edge $-1 $282 -7.3354707612195584 $289 -1.7302277045778789 $182 $366 forward 7 unknown #
edge $-1 $196 1.7302277045778789 $281 7.3354707612195584 $192 $367 forward 7 unknown #
coedge $-1 $368 $185 $276 $365 forward $273 $-1 #
coedge $-1 $185 $368 $291 $369 forward $273 $-1 #
vertex $-1 $278 $370 #
vertex $-1 $365 $371 #
straight-curve $-1 0 -13.031577505639831 11.868319994118275 -1 0 0 I I #
edge $-1 $289 3.2867034656601586 $287 16.203044614299188 $275 $372 forward 7 unknown #
coedge $-1 $373 $188 $193 $292 reversed $180 $-1 #
coedge $-1 $188 $373 $364 $374 forward $180 $-1 #
vertex $-1 $189 $375 #
straight-curve $-1 0 -25.947918654278858 6.2630769374765975 1 0 0 I I #
vertex $-1 $284 $376 #
straight-curve $-1 0 -13.031577505639831 6.2630769374765975 1 0 0 I I #
coedge $-1 $193 $192 $280 $369 reversed $194 $-1 #
edge $-1 $377 -11.868319994118275 $195 -6.2630769374765975 $193 $378 forward 7 unknown #
point $-1 43.249610889004181 -25.947918654278858 6.2630769374765975 #
point $-1 43.249610889004181 -13.031577505639831 6.2630769374765975 #
plane-surface $-1 0 0 11.868319994118275 0 0 1 1 0 0 forward_v I I I I #
coedge $-1 $306 $305 $298 $379 forward $199 $-1 #
coedge $-1 $298 $201 $203 $302 reversed $117 $-1 #
coedge $-1 $201 $297 $296 $379 reversed $117 $-1 #
coedge $-1 $209 $204 $201 $300 forward $210 $-1 #
edge $-1 $303 23.066841049882928 $380 32.245854388076111 $299 $381 forward 7 unknown #
coedge $-1 $203 $202 $306 $382 reversed $73 $-1 #
edge $-1 $383 -86.499221778008391 $303 -75.29371547403413 $297 $384 forward 7 unknown #
vertex $-1 $205 $385 #
straight-curve $-1 34.070597550810987 6.6428610806999302 11.868319994118274 0 -1 0 I I #
coedge $-1 $296 $206 $209 $310 reversed $199 $-1 #
coedge $-1 $206 $296 $301 $382 forward $199 $-1 #
vertex $-1 $207 $386 #
straight-curve $-1 43.249610889004181 18.37354203836226 62.955517726533301 0 0 1 I I #
straight-curve $-1 -27.606403012132027 18.37354203836226 55.055021551930395 0.81915203911291934 0 -0.57357644374324357 I I #
edge $-1 $380 8.1979022844374612 $211 18.37354203836226 $305 $387 forward 7 unknown #
point $-1 43.249610889004181 18.37354203836226 11.868319994118275 #
point $-1 34.070597550811001 18.37354203836226 11.868319994118266 #
edge $-1 $388 1 $388 0 $214 $-1 forward 7 unknown #
vertex $-1 $215 $389 #
ellipse-curve $-1 37.253339154401885 11.105227928415978 6.6456440803614543 0.57357644374324357 0 0.81915203911291934 0.81915203911291934 0 -0.57357644374324357 1 I I #
point $-1 39.479256259020516 11.105227928415978 8.0811363222870156 #
edge $-1 $390 1 $390 0 $218 $-1 forward 7 unknown #
vertex $-1 $219 $391 #
ellipse-curve $-1 37.253339154401885 15.46621639438375 6.6456440803614543 0.57357644374324357 0 0.81915203911291934 0.81915203911291934 0 -0.57357644374324357 1 I I #
point $-1 39.479256259020516 15.46621639438375 8.0811363222870156 #
loop $-1 $-1 $230 $222 #
plane-surface $-1 0 -13.031577505639831 9.0656984657974373 0 -1 0 0 0 -1 forward_v I I I I #
coedge $-1 $328 $392 $226 $324 forward $223 $-1 #
edge $-1 $326 27.63567076766963 $334 33.851509207872077 $323 $393 forward 7 unknown #
coedge $-1 $233 $227 $392 $394 forward $139 $-1 #
vertex $-1 $394 $395 #
straight-curve $-1 -44.543607727792832 -6.2343309308996355 11.868319994118274 -1 0 0 I I #
coedge $-1 $396 $323 $229 $329 forward $223 $-1 #
edge $-1 $334 1.4178538217647683 $332 8.2151003965049672 $328 $397 forward 7 unknown #
coedge $-1 $331 $230 $233 $336 reversed $321 $-1 #
coedge $-1 $230 $330 $396 $398 reversed $321 $-1 #
vertex $-1 $398 $399 #
straight-curve $-1 -26.930418180263018 -13.031577505639831 15.849845112728811 0.84804809178421925 0 0.52991927123019833 I I #
vertex $-1 $329 $400 #
straight-curve $-1 -43.249610889004174 -6.2343309308996355 5.652481553915834 0.84804809178421925 0 0.52991927123019833 I I #
edge $-1 $401 -43.249610889004181 $234 -33.302190188837187 $233 $402 forward 7 unknown #
point $-1 -33.302190188837187 -13.031577505639834 11.868319994118275 #
point $-1 -33.302190188837187 -6.2343309308996355 11.868319994118275 #
edge $-1 $403 1 $403 0 $237 $-1 forward 7 unknown #
vertex $-1 $238 $404 #
ellipse-curve $-1 -37.745981267690496 -11.089507055714062 7.9123526822328367 -0.52991927123019833 0 0.84804809178421925 0.42402404589210962 0 0.26495963561509916 1 I I #
point $-1 -37.851876493028584 -11.089507055714062 9.0253604096321549 #
edge $-1 $405 1 $405 0 $241 $-1 forward 7 unknown #
vertex $-1 $242 $406 #
ellipse-curve $-1 -37.745981267690496 -8.176401380825407 7.9123526822328367 -0.52991927123019833 0 0.84804809178421925 0.42402404589210962 0 0.26495963561509916 1 I I #
point $-1 -37.851876493028584 -8.176401380825407 9.0253604096321549 #
plane-surface $-1 43.249610889004181 0 0 -1 0 0 0 0 1 forward_v I I I I #
coedge $-1 $250 $248 $252 $352 reversed $161 $-1 #
edge $-1 $263 -11.868319994118275 $354 11.868319994118275 $262 $407 forward 7 unknown #
vertex $-1 $352 $408 #
straight-curve $-1 -43.249610889004181 -25.947918654278858 0 0 0 -1 I I #
edge $-1 $350 -25.947918654278858 $354 25.947918654278858 $348 $409 forward 7 unknown #
straight-curve $-1 0 -25.947918654278858 -11.868319994118275 -1 0 0 I I #
vertex $-1 $255 $410 #
straight-curve $-1 0 25.947918654278858 -11.868319994118275 1 0 0 I I #
point $-1 43.249610889004181 25.947918654278858 -11.868319994118275 #
point $-1 43.249610889004181 -25.947918654278858 -11.868319994118275 #
straight-curve $-1 -43.249610889004181 0 11.868319994118275 0 -1 0 I I #
point $-1 -43.249610889004181 25.947918654278858 11.868319994118275 #
point $-1 -43.249610889004181 -25.947918654278858 11.868319994118275 #
straight-curve $-1 43.249610889004181 -25.947918654278858 0 0 0 -1 I I #
straight-curve $-1 43.249610889004181 25.947918654278858 0 0 0 -1 I I #
plane-surface $-1 43.249610889004181 0 0 -1 0 0 0 0 1 forward_v I I I I #
coedge $-1 $276 $275 $286 $374 reversed $109 $-1 #
edge $-1 $282 13.031577505639831 $411 25.947918654278858 $276 $412 forward 7 unknown #
straight-curve $-1 -43.249610889004181 -13.031577505639831 4.5328492328987187 0 0 -1 I I #
straight-curve $-1 43.249610889004181 -13.031577505639831 4.5328492328987187 0 0 1 I I #
coedge $-1 $280 $279 $373 $413 forward $273 $-1 #
edge $-1 $377 -25.947918654278858 $281 -13.031577505639831 $291 $414 forward 7 unknown #
point $-1 43.249610889004181 -13.031577505639831 11.868319994118277 #
point $-1 -43.249610889004181 -13.031577505639831 11.868319994118277 #
straight-curve $-1 -43.249610889004181 -9.7448740399796723 6.2630769374765975 0 -1 0 I I #
coedge $-1 $286 $285 $368 $413 reversed $180 $-1 #
edge $-1 $411 -11.868319994118275 $287 -6.2630769374765975 $364 $415 forward 7 unknown #
point $-1 -43.249610889004181 -25.947918654278858 6.2630769374765975 #
point $-1 -43.249610889004181 -13.031577505639831 6.2630769374765975 #
vertex $-1 $369 $416 #
straight-curve $-1 43.249610889004181 -25.947918654278858 0 0 0 -1 I I #
edge $-1 $380 51.087197732415028 $383 57.514412188591088 $296 $417 forward 7 unknown #
vertex $-1 $310 $418 #
straight-curve $-1 11.003756500928073 8.1979022844374612 11.868319994118274 1 0 0 I I #
edge $-1 $383 1.555041203737531 $307 11.730680957662329 $306 $419 forward 7 unknown #
vertex $-1 $382 $420 #
straight-curve $-1 -27.606403012132027 8.1979022844374612 55.055021551930395 -0.81915203911291934 0 0.57357644374324357 I I #
point $-1 34.070597550811001 8.1979022844374612 11.868319994118266 #
point $-1 43.249610889004181 18.37354203836226 5.4411055379422137 #
straight-curve $-1 43.249610889004181 0 11.868319994118275 0 1 0 I I #
vertex $-1 $313 $421 #
point $-1 38.0724911935148 11.105227928415978 6.0720676366182103 #
vertex $-1 $317 $422 #
point $-1 38.0724911935148 15.46621639438375 6.0720676366182103 #
coedge $-1 $323 $396 $325 $394 reversed $223 $-1 #
straight-curve $-1 -43.249610889004181 -6.2343309308996355 39.503990761787904 0 0 -1 I I #
edge $-1 $326 6.2343309308996355 $401 13.031577505639831 $392 $423 forward 7 unknown #
point $-1 -43.249610889004181 -6.2343309308996355 11.868319994118275 #
coedge $-1 $392 $328 $331 $398 forward $223 $-1 #
straight-curve $-1 -43.249610889004181 -4.8164771091348673 5.6524815539158269 0 -1 0 I I #
edge $-1 $332 -33.851509207872077 $401 -27.635670767669627 $396 $424 forward 7 unknown #
point $-1 -43.249610889004181 -13.031577505639834 5.6524815539158295 #
point $-1 -43.249610889004181 -6.2343309308996355 5.6524815539158295 #
vertex $-1 $398 $425 #
straight-curve $-1 0 -13.031577505639831 11.868319994118275 1 0 0 I I #
vertex $-1 $339 $426 #
point $-1 -37.321957221798385 -11.089507055714062 8.177312317847937 #
vertex $-1 $343 $427 #
point $-1 -37.321957221798385 -8.176401380825407 8.177312317847937 #
straight-curve $-1 -43.249610889004181 25.947918654278858 0 0 0 -1 I I #
point $-1 -43.249610889004181 -25.947918654278858 -11.868319994118275 #
straight-curve $-1 -43.249610889004181 0 -11.868319994118275 0 1 0 I I #
point $-1 -43.249610889004181 25.947918654278858 -11.868319994118275 #
vertex $-1 $365 $428 #
straight-curve $-1 -43.249610889004181 0 11.868319994118275 0 -1 0 I I #
edge $-1 $411 -43.249610889004181 $377 43.249610889004181 $373 $429 forward 7 unknown #
straight-curve $-1 43.249610889004181 0 11.868319994118275 0 1 0 I I #
straight-curve $-1 -43.249610889004181 -25.947918654278858 0 0 0 -1 I I #
point $-1 43.249610889004181 -25.947918654278858 11.868319994118275 #
straight-curve $-1 43.249610889004181 8.1979022844374612 62.955517726533301 0 0 -1 I I #
point $-1 43.249610889004181 8.1979022844374612 11.868319994118275 #
straight-curve $-1 43.249610889004188 6.6428610806999302 5.4411055379422173 0 1 0 I I #
point $-1 43.249610889004181 8.1979022844374612 5.4411055379422137 #
point $-1 36.679762710658636 11.105227928415978 5.8264920412485344 #
point $-1 36.679762710658636 15.46621639438375 5.8264920412485344 #
straight-curve $-1 -43.249610889004181 0 11.868319994118275 0 -1 0 I I #
straight-curve $-1 -43.249610889004181 -13.031577505639834 39.503990761787904 0 0 1 I I #
point $-1 -43.249610889004181 -13.031577505639831 11.868319994118277 #
point $-1 -37.481021632075397 -11.089507055714062 7.4883286363407278 #
point $-1 -37.481021632075397 -8.176401380825407 7.4883286363407278 #
point $-1 -43.249610889004181 -25.947918654278858 11.868319994118275 #
straight-curve $-1 0 -25.947918654278858 11.868319994118275 1 0 0 I I #
End-of-ACIS-data 