500 0 18 0           
7 Unknown 11 ACIS 5.0 NT 24 Fri Mar 26 01:28:59 1999 
-1 9.9999999999999995e-007 1e-010 
body $-1 $18 $-1 $19 #
body $-1 $20 $-1 $21 #
body $-1 $22 $-1 $23 #
body $-1 $24 $-1 $25 #
body $-1 $26 $-1 $27 #
body $-1 $28 $-1 $29 #
body $-1 $30 $-1 $31 #
body $-1 $32 $-1 $33 #
body $-1 $34 $-1 $35 #
body $-1 $36 $-1 $37 #
body $-1 $38 $-1 $39 #
body $-1 $40 $-1 $41 #
body $-1 $42 $-1 $43 #
body $-1 $44 $-1 $45 #
body $-1 $46 $-1 $47 #
body $-1 $48 $-1 $49 #
body $-1 $50 $-1 $51 #
body $-1 $52 $-1 $53 #
lump $-1 $-1 $54 $0 #
transform $-1 1 0 0 0 1 0 0 0 1 77.315591906491278 36.289037058170514 17.220541856895807 1 rotate no_reflect no_shear #
lump $-1 $-1 $55 $1 #
transform $-1 1 0 0 0 1 0 0 0 1 77.315591906491278 36.289037058170514 17.220541856895807 1 rotate no_reflect no_shear #
lump $-1 $-1 $56 $2 #
transform $-1 1 0 0 0 1 0 0 0 1 77.315591906491278 36.289037058170514 17.220541856895807 1 rotate no_reflect no_shear #
lump $-1 $-1 $57 $3 #
transform $-1 1 0 0 0 1 0 0 0 1 77.315591906491278 36.289037058170514 17.220541856895807 1 rotate no_reflect no_shear #
lump $-1 $-1 $58 $4 #
transform $-1 1 0 0 0 1 0 0 0 1 77.315591906491278 36.289037058170514 17.220541856895807 1 rotate no_reflect no_shear #
lump $-1 $-1 $59 $5 #
transform $-1 1 0 0 0 1 0 0 0 1 77.315591906491278 36.289037058170514 17.220541856895807 1 rotate no_reflect no_shear #
lump $-1 $-1 $60 $6 #
transform $-1 1 0 0 0 1 0 0 0 1 77.315591906491278 36.289037058170514 17.220541856895807 1 rotate no_reflect no_shear #
lump $-1 $-1 $61 $7 #
transform $-1 1 0 0 0 1 0 0 0 1 77.315591906491278 36.289037058170514 17.220541856895807 1 rotate no_reflect no_shear #
lump $-1 $-1 $62 $8 #
transform $-1 1 0 0 0 1 0 0 0 1 77.315591906491278 36.289037058170514 17.220541856895807 1 rotate no_reflect no_shear #
lump $-1 $-1 $63 $9 #
transform $-1 1 0 0 0 1 0 0 0 1 77.315591906491278 36.289037058170514 17.220541856895807 1 rotate no_reflect no_shear #
lump $-1 $-1 $64 $10 #
transform $-1 1 0 0 0 1 0 0 0 1 77.315591906491278 36.289037058170514 17.220541856895807 1 rotate no_reflect no_shear #
lump $-1 $-1 $65 $11 #
transform $-1 1 0 0 0 1 0 0 0 1 77.315591906491278 36.289037058170514 17.220541856895807 1 rotate no_reflect no_shear #
lump $-1 $-1 $66 $12 #
transform $-1 1 0 0 0 1 0 0 0 1 77.315591906491278 36.289037058170514 17.220541856895807 1 rotate no_reflect no_shear #
lump $-1 $-1 $67 $13 #
transform $-1 1 0 0 0 1 0 0 0 1 77.315591906491278 36.289037058170514 17.220541856895807 1 rotate no_reflect no_shear #
lump $-1 $-1 $68 $14 #
transform $-1 1 0 0 0 1 0 0 0 1 77.315591906491278 36.289037058170514 17.220541856895807 1 rotate no_reflect no_shear #
lump $-1 $-1 $69 $15 #
transform $-1 1 0 0 0 1 0 0 0 1 77.315591906491278 36.289037058170514 17.220541856895807 1 rotate no_reflect no_shear #
lump $-1 $-1 $70 $16 #
transform $-1 1 0 0 0 1 0 0 0 1 77.315591906491278 36.289037058170514 17.220541856895807 1 rotate no_reflect no_shear #
lump $-1 $-1 $71 $17 #
transform $-1 1 0 0 0 1 0 0 0 1 77.315591906491278 36.289037058170514 17.220541856895807 1 rotate no_reflect no_shear #
shell $-1 $-1 $-1 $72 $-1 $18 #
shell $-1 $-1 $-1 $73 $-1 $20 #
shell $-1 $-1 $-1 $74 $-1 $22 #
shell $-1 $-1 $-1 $75 $-1 $24 #
shell $-1 $-1 $-1 $76 $-1 $26 #
shell $-1 $-1 $-1 $77 $-1 $28 #
shell $-1 $-1 $-1 $78 $-1 $30 #
shell $-1 $-1 $-1 $79 $-1 $32 #
shell $-1 $-1 $-1 $80 $-1 $34 #
shell $-1 $-1 $-1 $81 $-1 $36 #
shell $-1 $-1 $-1 $82 $-1 $38 #
shell $-1 $-1 $-1 $83 $-1 $40 #
shell $-1 $-1 $-1 $84 $-1 $42 #
shell $-1 $-1 $-1 $85 $-1 $44 #
shell $-1 $-1 $-1 $86 $-1 $46 #
shell $-1 $-1 $-1 $87 $-1 $48 #
shell $-1 $-1 $-1 $88 $-1 $50 #
shell $-1 $-1 $-1 $89 $-1 $52 #
face $-1 $90 $91 $54 $-1 $92 forward single #
face $-1 $93 $94 $55 $-1 $95 forward single #
face $-1 $96 $97 $56 $-1 $98 forward single #
face $-1 $99 $100 $57 $-1 $101 reversed single #
face $-1 $102 $103 $58 $-1 $104 forward single #
face $-1 $105 $106 $59 $-1 $107 forward single #
face $-1 $108 $109 $60 $-1 $110 reversed single #
face $-1 $111 $112 $61 $-1 $113 forward single #
face $-1 $114 $115 $62 $-1 $116 forward single #
face $-1 $117 $118 $63 $-1 $119 forward single #
face $-1 $120 $121 $64 $-1 $122 reversed single #
face $-1 $123 $124 $65 $-1 $125 forward single #
face $-1 $126 $127 $66 $-1 $128 forward single #
face $-1 $129 $130 $67 $-1 $131 forward single #
face $-1 $132 $133 $68 $-1 $134 reversed single #
face $-1 $135 $136 $69 $-1 $137 forward single #
face $-1 $138 $139 $70 $-1 $140 forward single #
face $-1 $141 $142 $71 $-1 $143 forward single #
face $-1 $144 $145 $54 $-1 $146 reversed single #
loop $-1 $-1 $147 $72 #
plane-surface $-1 0 0 17.220541856895807 0 0 1 1 0 0 forward_v I I I I #
face $-1 $148 $149 $55 $-1 $150 reversed single #
loop $-1 $-1 $151 $73 #
plane-surface $-1 0 -36.289037058170514 0 0 1 0 0 0 1 forward_v I I I I #
face $-1 $152 $153 $56 $-1 $154 reversed single #
loop $-1 $-1 $155 $74 #
plane-surface $-1 0 36.289037058170514 0 0 -1 0 0 0 -1 forward_v I I I I #
face $-1 $156 $157 $57 $-1 $158 reversed single #
loop $-1 $-1 $159 $75 #
plane-surface $-1 -174.62815018056159 -1.5650530500098725 123.05920076614589 0 1 0 -0.62932039886446345 0 0.77714595512881146 forward_v I I I I #
face $-1 $160 $161 $58 $-1 $162 forward single #
loop $-1 $163 $164 $76 #
cone-surface $-1 -68.084948353932077 0.43850990855238337 9.5836775388588187 0.62932039886446345 0 -0.77714595512881146 0.38857297756440573 0 0.31466019943223172 1 I I 0 1 0.5 forward I I I I #
face $-1 $165 $166 $59 $-1 $167 forward single #
loop $-1 $168 $169 $77 #
cone-surface $-1 -68.084948353932077 3.44385434639576 9.5836775388588187 0.62932039886446345 0 -0.77714595512881146 0.38857297756440573 0 0.31466019943223172 1 I I 0 1 0.5 forward I I I I #
face $-1 $170 $171 $60 $-1 $172 reversed single #
loop $-1 $-1 $173 $78 #
plane-surface $-1 58.256244086556848 -4.7040679640881535 224.75891898860198 0 -1 0 -0.64278761758704617 0 -0.76604443648966558 forward_v I I I I #
face $-1 $174 $175 $61 $-1 $176 forward single #
loop $-1 $177 $178 $79 #
cone-surface $-1 70.80067338624815 -9.4503852948947547 11.623098450784962 -0.64278761758704617 0 -0.76604443648966558 0.38302221824483279 0 -0.32139380879352308 1 I I 0 1 0.5 forward I I I I #
face $-1 $179 $180 $62 $-1 $181 forward single #
loop $-1 $182 $183 $80 #
cone-surface $-1 70.80067338624815 -7.6705162958422797 11.623098450784962 -0.64278761758704617 0 -0.76604443648966558 0.38302221824483279 0 -0.32139380879352308 1 I I 0 1 0.5 forward I I I I #
face $-1 $184 $185 $63 $-1 $186 forward single #
loop $-1 $187 $188 $81 #
cone-surface $-1 70.80067338624815 -5.8906472967898047 11.623098450784962 -0.64278761758704617 0 -0.76604443648966558 0.38302221824483279 0 -0.32139380879352308 1 I I 0 1 0.5 forward I I I I #
face $-1 $189 $190 $64 $-1 $191 reversed single #
loop $-1 $-1 $192 $82 #
plane-surface $-1 58.256244086556848 2.9664483317541261 224.75891898860198 0 -1 0 -0.64278761758704617 0 -0.76604443648966558 forward_v I I I I #
face $-1 $193 $194 $65 $-1 $195 forward single #
loop $-1 $196 $197 $83 #
cone-surface $-1 70.80067338624815 -1.779868999052475 11.623098450784962 -0.64278761758704617 0 -0.76604443648966558 0.38302221824483279 0 -0.32139380879352308 1 I I 0 1 0.5 forward I I I I #
face $-1 $198 $199 $66 $-1 $200 forward single #
loop $-1 $201 $202 $84 #
cone-surface $-1 70.80067338624815 0 11.623098450784962 -0.64278761758704617 0 -0.76604443648966558 0.38302221824483279 0 -0.32139380879352308 1 I I 0 1 0.5 forward I I I I #
face $-1 $203 $204 $67 $-1 $205 forward single #
loop $-1 $206 $207 $85 #
cone-surface $-1 70.80067338624815 1.779868999052475 11.623098450784962 -0.64278761758704617 0 -0.76604443648966558 0.38302221824483279 0 -0.32139380879352308 1 I I 0 1 0.5 forward I I I I #
face $-1 $208 $209 $68 $-1 $210 reversed single #
loop $-1 $-1 $211 $86 #
plane-surface $-1 58.256244086556848 10.636964627596409 224.75891898860198 0 -1 0 -0.64278761758704617 0 -0.76604443648966558 forward_v I I I I #
face $-1 $212 $213 $69 $-1 $214 forward single #
loop $-1 $215 $216 $87 #
cone-surface $-1 70.80067338624815 5.8906472967898083 11.623098450784962 -0.64278761758704617 0 -0.76604443648966558 0.38302221824483279 0 -0.32139380879352308 1 I I 0 1 0.5 forward I I I I #
face $-1 $217 $218 $70 $-1 $219 forward single #
loop $-1 $220 $221 $88 #
cone-surface $-1 70.80067338624815 7.6705162958422832 11.623098450784962 -0.64278761758704617 0 -0.76604443648966558 0.38302221824483279 0 -0.32139380879352308 1 I I 0 1 0.5 forward I I I I #
face $-1 $222 $223 $71 $-1 $224 forward single #
loop $-1 $225 $226 $89 #
cone-surface $-1 70.80067338624815 9.4503852948947582 11.623098450784962 -0.64278761758704617 0 -0.76604443648966558 0.38302221824483279 0 -0.32139380879352308 1 I I 0 1 0.5 forward I I I I #
face $-1 $227 $228 $54 $-1 $229 reversed single #
loop $-1 $-1 $230 $90 #
plane-surface $-1 0 0 -17.220541856895807 0 0 1 1 0 0 forward_v I I I I #
coedge $-1 $231 $232 $233 $234 forward $91 $-1 #
face $-1 $235 $236 $55 $-1 $237 forward single #
loop $-1 $-1 $238 $93 #
plane-surface $-1 -77.315591906491278 0 0 1 0 0 0 0 -1 forward_v I I I I #
coedge $-1 $239 $240 $241 $242 forward $94 $-1 #
face $-1 $243 $244 $56 $-1 $245 forward single #
loop $-1 $-1 $246 $96 #
plane-surface $-1 77.315591906491278 0 0 -1 0 0 0 0 1 forward_v I I I I #
coedge $-1 $247 $248 $249 $250 forward $97 $-1 #
face $-1 $251 $252 $57 $-1 $253 reversed single #
loop $-1 $-1 $254 $99 #
plane-surface $-1 -77.31559190649125 1.9411821274740717 2.8882017291067541 -0.62932039886446345 0 0.77714595512881146 0.77714595512881146 0 0.62932039886446345 forward_v I I I I #
coedge $-1 $255 $256 $257 $258 reversed $100 $-1 #
face $-1 $-1 $259 $58 $-1 $260 forward single #
loop $-1 $261 $262 $102 #
cone-surface $-1 -67.546457554857938 0.43850990855238337 8.9186967959341423 0.62932039886446345 0 -0.77714595512881146 0.19428648878220287 0 0.15733009971611586 1 I I -0.70710678118654746 0.70710678118654746 0.25 forward I I I I #
loop $-1 $-1 $263 $76 #
coedge $-1 $164 $164 $264 $265 reversed $103 $-1 #
face $-1 $-1 $266 $59 $-1 $267 forward single #
loop $-1 $268 $269 $105 #
cone-surface $-1 -67.546457554857938 3.44385434639576 8.9186967959341423 0.62932039886446345 0 -0.77714595512881146 0.19428648878220287 0 0.15733009971611586 1 I I -0.70710678118654746 0.70710678118654746 0.25 forward I I I I #
loop $-1 $-1 $270 $77 #
coedge $-1 $169 $169 $271 $272 reversed $106 $-1 #
face $-1 $273 $274 $60 $-1 $275 reversed single #
loop $-1 $-1 $276 $108 #
plane-surface $-1 -41.138766161254821 -7.6705162958422797 106.30456092085586 0.64278761758704617 0 0.76604443648966558 0.76604443648966558 0 -0.64278761758704617 forward_v I I I I #
coedge $-1 $277 $278 $279 $280 reversed $109 $-1 #
face $-1 $-1 $281 $61 $-1 $282 forward single #
loop $-1 $283 $284 $111 #
cone-surface $-1 70.269138226201932 -9.4503852948947547 10.989639527477522 -0.64278761758704617 0 -0.76604443648966558 0.1915111091224164 0 -0.16069690439676154 1 I I -0.70710678118654746 0.70710678118654746 0.25 forward I I I I #
loop $-1 $-1 $285 $79 #
coedge $-1 $178 $178 $286 $287 reversed $112 $-1 #
face $-1 $-1 $288 $62 $-1 $289 forward single #
loop $-1 $290 $291 $114 #
cone-surface $-1 70.269138226201932 -7.6705162958422797 10.989639527477522 -0.64278761758704617 0 -0.76604443648966558 0.1915111091224164 0 -0.16069690439676154 1 I I -0.70710678118654746 0.70710678118654746 0.25 forward I I I I #
loop $-1 $-1 $292 $80 #
coedge $-1 $183 $183 $293 $294 reversed $115 $-1 #
face $-1 $-1 $295 $63 $-1 $296 forward single #
loop $-1 $297 $298 $117 #
cone-surface $-1 70.269138226201932 -5.8906472967898047 10.989639527477522 -0.64278761758704617 0 -0.76604443648966558 0.1915111091224164 0 -0.16069690439676154 1 I I -0.70710678118654746 0.70710678118654746 0.25 forward I I I I #
loop $-1 $-1 $299 $81 #
coedge $-1 $188 $188 $300 $301 reversed $118 $-1 #
face $-1 $302 $303 $64 $-1 $304 reversed single #
loop $-1 $-1 $305 $120 #
plane-surface $-1 -41.138766161254821 0 106.30456092085586 0.64278761758704617 0 0.76604443648966558 0.76604443648966558 0 -0.64278761758704617 forward_v I I I I #
coedge $-1 $306 $307 $308 $309 reversed $121 $-1 #
face $-1 $-1 $310 $65 $-1 $311 forward single #
loop $-1 $312 $313 $123 #
cone-surface $-1 70.269138226201932 -1.779868999052475 10.989639527477522 -0.64278761758704617 0 -0.76604443648966558 0.1915111091224164 0 -0.16069690439676154 1 I I -0.70710678118654746 0.70710678118654746 0.25 forward I I I I #
loop $-1 $-1 $314 $83 #
coedge $-1 $197 $197 $315 $316 reversed $124 $-1 #
face $-1 $-1 $317 $66 $-1 $318 forward single #
loop $-1 $319 $320 $126 #
cone-surface $-1 70.269138226201932 0 10.989639527477522 -0.64278761758704617 0 -0.76604443648966558 0.1915111091224164 0 -0.16069690439676154 1 I I -0.70710678118654746 0.70710678118654746 0.25 forward I I I I #
loop $-1 $-1 $321 $84 #
coedge $-1 $202 $202 $322 $323 reversed $127 $-1 #
face $-1 $-1 $324 $67 $-1 $325 forward single #
loop $-1 $326 $327 $129 #
cone-surface $-1 70.269138226201932 1.779868999052475 10.989639527477522 -0.64278761758704617 0 -0.76604443648966558 0.1915111091224164 0 -0.16069690439676154 1 I I -0.70710678118654746 0.70710678118654746 0.25 forward I I I I #
loop $-1 $-1 $328 $85 #
coedge $-1 $207 $207 $329 $330 reversed $130 $-1 #
face $-1 $331 $332 $68 $-1 $333 reversed single #
loop $-1 $-1 $334 $132 #
plane-surface $-1 -41.138766161254821 7.6705162958422832 106.30456092085586 0.64278761758704617 0 0.76604443648966558 0.76604443648966558 0 -0.64278761758704617 forward_v I I I I #
coedge $-1 $335 $336 $337 $338 reversed $133 $-1 #
face $-1 $-1 $339 $69 $-1 $340 forward single #
loop $-1 $341 $342 $135 #
cone-surface $-1 70.269138226201932 5.8906472967898083 10.989639527477522 -0.64278761758704617 0 -0.76604443648966558 0.1915111091224164 0 -0.16069690439676154 1 I I -0.70710678118654746 0.70710678118654746 0.25 forward I I I I #
loop $-1 $-1 $343 $87 #
coedge $-1 $216 $216 $344 $345 reversed $136 $-1 #
face $-1 $-1 $346 $70 $-1 $347 forward single #
loop $-1 $348 $349 $138 #
cone-surface $-1 70.269138226201932 7.6705162958422832 10.989639527477522 -0.64278761758704617 0 -0.76604443648966558 0.1915111091224164 0 -0.16069690439676154 1 I I -0.70710678118654746 0.70710678118654746 0.25 forward I I I I #
loop $-1 $-1 $350 $88 #
coedge $-1 $221 $221 $351 $352 reversed $139 $-1 #
face $-1 $-1 $353 $71 $-1 $354 forward single #
loop $-1 $355 $356 $141 #
cone-surface $-1 70.269138226201932 9.4503852948947582 10.989639527477522 -0.64278761758704617 0 -0.76604443648966558 0.1915111091224164 0 -0.16069690439676154 1 I I -0.70710678118654746 0.70710678118654746 0.25 forward I I I I #
loop $-1 $-1 $357 $89 #
coedge $-1 $226 $226 $358 $359 reversed $142 $-1 #
face $-1 $360 $361 $54 $-1 $362 reversed single #
loop $-1 $-1 $363 $144 #
plane-surface $-1 0 -36.289037058170514 0 0 1 0 0 0 1 forward_v I I I I #
coedge $-1 $364 $365 $366 $367 forward $145 $-1 #
coedge $-1 $368 $147 $369 $370 forward $91 $-1 #
coedge $-1 $147 $368 $371 $372 forward $91 $-1 #
coedge $-1 $373 $374 $147 $234 reversed $375 $-1 #
edge $-1 $376 -36.289037058170514 $377 36.289037058170514 $233 $378 forward 7 unknown #
face $-1 $379 $380 $55 $-1 $381 reversed single #
loop $-1 $-1 $382 $148 #
plane-surface $-1 0 -47.377453641123537 -8.6299073170967766 0 0 1 1 0 0 forward_v I I I I #
coedge $-1 $383 $384 $240 $385 forward $149 $-1 #
coedge $-1 $386 $151 $387 $388 reversed $94 $-1 #
coedge $-1 $151 $386 $238 $385 reversed $94 $-1 #
coedge $-1 $389 $382 $151 $242 reversed $236 $-1 #
edge $-1 $390 -77.315591906491278 $391 77.315591906491278 $241 $392 forward 7 unknown #
face $-1 $393 $394 $56 $-1 $395 reversed single #
loop $-1 $-1 $396 $152 #
plane-surface $-1 0 47.377453641123545 -8.6299073170967766 0 0 1 1 0 0 forward_v I I I I #
coedge $-1 $397 $398 $248 $399 forward $153 $-1 #
coedge $-1 $400 $155 $401 $402 reversed $97 $-1 #
coedge $-1 $155 $400 $246 $399 reversed $97 $-1 #
coedge $-1 $396 $403 $155 $250 reversed $244 $-1 #
edge $-1 $404 -77.315591906491278 $405 77.315591906491278 $249 $406 forward 7 unknown #
face $-1 $407 $408 $57 $-1 $409 reversed single #
loop $-1 $-1 $410 $156 #
plane-surface $-1 -174.62815018056159 5.4474173049580159 123.05920076614589 0 -1 0 0.62932039886446345 0 -0.77714595512881146 forward_v I I I I #
coedge $-1 $411 $412 $413 $414 reversed $157 $-1 #
coedge $-1 $256 $159 $415 $416 reversed $100 $-1 #
coedge $-1 $159 $255 $411 $417 reversed $100 $-1 #
coedge $-1 $413 $418 $159 $258 forward $419 $-1 #
edge $-1 $420 9.9984831837895172 $421 27.697448890191936 $257 $422 forward 7 unknown #
loop $-1 $-1 $264 $160 #
plane-surface $-1 -77.31559190649125 1.9411821274740717 2.8882017291067541 -0.62932039886446345 0 0.77714595512881146 0.77714595512881146 0 0.62932039886446345 forward_v I I I I #
loop $-1 $-1 $423 $102 #
coedge $-1 $262 $262 $263 $424 reversed $161 $-1 #
coedge $-1 $263 $263 $262 $424 forward $163 $-1 #
coedge $-1 $264 $264 $164 $265 forward $259 $-1 #
edge $-1 $425 0 $425 6.2831853071796004 $264 $426 forward 7 unknown #
loop $-1 $-1 $271 $165 #
plane-surface $-1 -77.31559190649125 1.9411821274740717 2.8882017291067541 -0.62932039886446345 0 0.77714595512881146 0.77714595512881146 0 0.62932039886446345 forward_v I I I I #
loop $-1 $-1 $427 $105 #
coedge $-1 $269 $269 $270 $428 reversed $166 $-1 #
coedge $-1 $270 $270 $269 $428 forward $168 $-1 #
coedge $-1 $271 $271 $169 $272 forward $266 $-1 #
edge $-1 $429 0 $429 6.2831853071796004 $271 $430 forward 7 unknown #
face $-1 $431 $432 $60 $-1 $433 forward single #
loop $-1 $-1 $434 $170 #
plane-surface $-1 58.256244086556848 -10.636964627596406 224.75891898860198 0 1 0 0.64278761758704617 0 0.76604443648966558 forward_v I I I I #
coedge $-1 $435 $436 $437 $438 reversed $171 $-1 #
coedge $-1 $278 $173 $439 $440 reversed $109 $-1 #
coedge $-1 $173 $277 $435 $441 reversed $109 $-1 #
coedge $-1 $437 $442 $173 $280 forward $432 $-1 #
edge $-1 $443 -48.187469863212854 $444 -35.899309334025517 $279 $445 forward 7 unknown #
loop $-1 $-1 $286 $174 #
plane-surface $-1 -41.138766161254821 -7.6705162958422797 106.30456092085586 0.64278761758704617 0 0.76604443648966558 0.76604443648966558 0 -0.64278761758704617 forward_v I I I I #
loop $-1 $-1 $446 $111 #
coedge $-1 $284 $284 $285 $447 reversed $175 $-1 #
coedge $-1 $285 $285 $284 $447 forward $177 $-1 #
coedge $-1 $286 $286 $178 $287 forward $281 $-1 #
edge $-1 $448 0 $448 6.2831853071796004 $286 $449 forward 7 unknown #
loop $-1 $-1 $293 $179 #
plane-surface $-1 -41.138766161254821 -7.6705162958422797 106.30456092085586 0.64278761758704617 0 0.76604443648966558 0.76604443648966558 0 -0.64278761758704617 forward_v I I I I #
loop $-1 $-1 $450 $114 #
coedge $-1 $291 $291 $292 $451 reversed $180 $-1 #
coedge $-1 $292 $292 $291 $451 forward $182 $-1 #
coedge $-1 $293 $293 $183 $294 forward $288 $-1 #
edge $-1 $452 0 $452 6.2831853071796004 $293 $453 forward 7 unknown #
loop $-1 $-1 $300 $184 #
plane-surface $-1 -41.138766161254821 -7.6705162958422797 106.30456092085586 0.64278761758704617 0 0.76604443648966558 0.76604443648966558 0 -0.64278761758704617 forward_v I I I I #
loop $-1 $-1 $454 $117 #
coedge $-1 $298 $298 $299 $455 reversed $185 $-1 #
coedge $-1 $299 $299 $298 $455 forward $187 $-1 #
coedge $-1 $300 $300 $188 $301 forward $295 $-1 #
edge $-1 $456 0 $456 6.2831853071796004 $300 $457 forward 7 unknown #
face $-1 $458 $459 $64 $-1 $460 reversed single #
loop $-1 $-1 $461 $189 #
plane-surface $-1 58.256244086556848 -2.9664483317541261 224.75891898860198 0 1 0 0.64278761758704617 0 0.76604443648966558 forward_v I I I I #
coedge $-1 $462 $463 $464 $465 reversed $190 $-1 #
coedge $-1 $307 $192 $466 $467 reversed $121 $-1 #
coedge $-1 $192 $306 $462 $468 reversed $121 $-1 #
coedge $-1 $464 $469 $192 $309 forward $470 $-1 #
edge $-1 $471 -48.187469863212854 $472 -35.899309334025517 $308 $473 forward 7 unknown #
loop $-1 $-1 $315 $193 #
plane-surface $-1 -41.138766161254821 0 106.30456092085586 0.64278761758704617 0 0.76604443648966558 0.76604443648966558 0 -0.64278761758704617 forward_v I I I I #
loop $-1 $-1 $474 $123 #
coedge $-1 $313 $313 $314 $475 reversed $194 $-1 #
coedge $-1 $314 $314 $313 $475 forward $196 $-1 #
coedge $-1 $315 $315 $197 $316 forward $310 $-1 #
edge $-1 $476 0 $476 6.2831853071796004 $315 $477 forward 7 unknown #
loop $-1 $-1 $322 $198 #
plane-surface $-1 -41.138766161254821 0 106.30456092085586 0.64278761758704617 0 0.76604443648966558 0.76604443648966558 0 -0.64278761758704617 forward_v I I I I #
loop $-1 $-1 $478 $126 #
coedge $-1 $320 $320 $321 $479 reversed $199 $-1 #
coedge $-1 $321 $321 $320 $479 forward $201 $-1 #
coedge $-1 $322 $322 $202 $323 forward $317 $-1 #
edge $-1 $480 0 $480 6.2831853071796004 $322 $481 forward 7 unknown #
loop $-1 $-1 $329 $203 #
plane-surface $-1 -41.138766161254821 0 106.30456092085586 0.64278761758704617 0 0.76604443648966558 0.76604443648966558 0 -0.64278761758704617 forward_v I I I I #
loop $-1 $-1 $482 $129 #
coedge $-1 $327 $327 $328 $483 reversed $204 $-1 #
coedge $-1 $328 $328 $327 $483 forward $206 $-1 #
coedge $-1 $329 $329 $207 $330 forward $324 $-1 #
edge $-1 $484 0 $484 6.2831853071796004 $329 $485 forward 7 unknown #
face $-1 $486 $487 $68 $-1 $488 reversed single #
loop $-1 $-1 $489 $208 #
plane-surface $-1 58.256244086556848 4.7040679640881571 224.75891898860198 0 1 0 0.64278761758704617 0 0.76604443648966558 forward_v I I I I #
coedge $-1 $490 $491 $492 $493 reversed $209 $-1 #
coedge $-1 $336 $211 $494 $495 reversed $133 $-1 #
coedge $-1 $211 $335 $490 $496 reversed $133 $-1 #
coedge $-1 $492 $497 $211 $338 forward $498 $-1 #
edge $-1 $499 -48.187469863212854 $500 -35.899309334025517 $337 $501 forward 7 unknown #
loop $-1 $-1 $344 $212 #
plane-surface $-1 -41.138766161254821 7.6705162958422832 106.30456092085586 0.64278761758704617 0 0.76604443648966558 0.76604443648966558 0 -0.64278761758704617 forward_v I I I I #
loop $-1 $-1 $502 $135 #
coedge $-1 $342 $342 $343 $503 reversed $213 $-1 #
coedge $-1 $343 $343 $342 $503 forward $215 $-1 #
coedge $-1 $344 $344 $216 $345 forward $339 $-1 #
edge $-1 $504 0 $504 6.2831853071796004 $344 $505 forward 7 unknown #
loop $-1 $-1 $351 $217 #
plane-surface $-1 -41.138766161254821 7.6705162958422832 106.30456092085586 0.64278761758704617 0 0.76604443648966558 0.76604443648966558 0 -0.64278761758704617 forward_v I I I I #
loop $-1 $-1 $506 $138 #
coedge $-1 $349 $349 $350 $507 reversed $218 $-1 #
coedge $-1 $350 $350 $349 $507 forward $220 $-1 #
coedge $-1 $351 $351 $221 $352 forward $346 $-1 #
edge $-1 $508 0 $508 6.2831853071796004 $351 $509 forward 7 unknown #
loop $-1 $-1 $358 $222 #
plane-surface $-1 -41.138766161254821 7.6705162958422832 106.30456092085586 0.64278761758704617 0 0.76604443648966558 0.76604443648966558 0 -0.64278761758704617 forward_v I I I I #
loop $-1 $-1 $510 $141 #
coedge $-1 $356 $356 $357 $511 reversed $223 $-1 #
coedge $-1 $357 $357 $356 $511 forward $225 $-1 #
coedge $-1 $358 $358 $226 $359 forward $353 $-1 #
edge $-1 $512 0 $512 6.2831853071796004 $358 $513 forward 7 unknown #
face $-1 $514 $515 $54 $-1 $516 reversed single #
loop $-1 $-1 $517 $227 #
plane-surface $-1 -77.315591906491278 0 0 1 0 0 0 0 -1 forward_v I I I I #
coedge $-1 $518 $371 $519 $520 forward $228 $-1 #
coedge $-1 $521 $230 $518 $522 forward $145 $-1 #
coedge $-1 $230 $521 $523 $524 forward $145 $-1 #
coedge $-1 $374 $373 $230 $367 reversed $375 $-1 #
edge $-1 $525 -36.289037058170514 $526 36.289037058170514 $366 $527 forward 7 unknown #
coedge $-1 $232 $231 $528 $529 forward $91 $-1 #
coedge $-1 $530 $531 $231 $370 reversed $515 $-1 #
edge $-1 $377 -77.315591906491278 $532 77.315591906491278 $369 $533 forward 7 unknown #
coedge $-1 $363 $534 $232 $372 reversed $228 $-1 #
edge $-1 $535 -77.315591906491278 $376 77.315591906491278 $371 $536 forward 7 unknown #
coedge $-1 $366 $233 $534 $537 forward $375 $-1 #
coedge $-1 $233 $366 $530 $538 reversed $375 $-1 #
loop $-1 $-1 $373 $514 #
vertex $-1 $234 $539 #
vertex $-1 $234 $540 #
straight-curve $-1 77.315591906491278 0 17.220541856895807 0 1 0 I I #
face $-1 $541 $542 $55 $-1 $543 reversed single #
loop $-1 $-1 $544 $235 #
plane-surface $-1 0 -47.377453641123537 -15.704692630648825 0 0 1 1 0 0 forward_v I I I I #
coedge $-1 $241 $545 $546 $547 forward $236 $-1 #
coedge $-1 $548 $238 $549 $550 reversed $149 $-1 #
coedge $-1 $238 $548 $389 $551 reversed $149 $-1 #
edge $-1 $390 8.6299073170967766 $552 15.704692630648825 $238 $553 forward 7 unknown #
coedge $-1 $240 $239 $554 $555 forward $94 $-1 #
coedge $-1 $546 $556 $239 $388 forward $557 $-1 #
edge $-1 $558 -15.704692630648825 $391 -8.6299073170967766 $387 $559 forward 7 unknown #
coedge $-1 $545 $241 $384 $551 forward $236 $-1 #
vertex $-1 $385 $560 #
vertex $-1 $547 $561 #
straight-curve $-1 0 -36.289037058170514 -8.6299073170967766 1 0 0 I I #
face $-1 $562 $563 $56 $-1 $564 reversed single #
loop $-1 $-1 $565 $243 #
plane-surface $-1 0 47.377453641123545 -15.704692630648825 0 0 1 1 0 0 forward_v I I I I #
coedge $-1 $566 $249 $398 $567 forward $244 $-1 #
coedge $-1 $568 $246 $565 $569 reversed $153 $-1 #
coedge $-1 $246 $568 $396 $567 reversed $153 $-1 #
edge $-1 $404 8.6299073170967766 $570 15.704692630648825 $246 $571 forward 7 unknown #
coedge $-1 $248 $247 $572 $573 forward $97 $-1 #
coedge $-1 $574 $575 $247 $402 forward $576 $-1 #
edge $-1 $577 -15.704692630648825 $405 -8.6299073170967766 $401 $578 forward 7 unknown #
coedge $-1 $249 $566 $574 $579 forward $244 $-1 #
vertex $-1 $399 $580 #
vertex $-1 $579 $581 #
straight-curve $-1 0 36.289037058170514 -8.6299073170967766 -1 0 0 I I #
face $-1 $-1 $419 $57 $-1 $582 forward single #
loop $-1 $-1 $583 $251 #
plane-surface $-1 -77.315591906491278 0 0 1 0 0 0 0 -1 forward_v I I I I #
coedge $-1 $584 $585 $586 $587 reversed $252 $-1 #
coedge $-1 $588 $254 $256 $417 forward $157 $-1 #
coedge $-1 $254 $588 $584 $589 forward $157 $-1 #
coedge $-1 $586 $257 $254 $414 forward $419 $-1 #
edge $-1 $421 -2.5356441137469083 $590 4.4768262412209801 $413 $591 forward 7 unknown #
coedge $-1 $592 $593 $255 $416 forward $408 $-1 #
edge $-1 $594 -58.641398653966213 $420 -44.309058526177139 $415 $595 forward 7 unknown #
edge $-1 $421 -22.774313614575526 $594 3.6620485252745651e-014 $256 $596 forward 7 unknown #
coedge $-1 $257 $586 $592 $597 forward $419 $-1 #
loop $-1 $-1 $586 $407 #
vertex $-1 $416 $598 #
vertex $-1 $258 $599 #
straight-curve $-1 -87.314075090280795 -1.5650530500098725 17.220541856895807 1 0 0 I I #
coedge $-1 $423 $423 $-1 $600 reversed $261 $-1 #
edge $-1 $601 0 $601 6.2831853071796004 $262 $602 forward 7 unknown #
vertex $-1 $265 $603 #
ellipse-curve $-1 -68.466109053290069 0.43850990855238337 10.054371793001264 -0.62932039886446345 0 0.77714595512881146 0.38857297756440573 0 0.31466019943223172 1 I I #
coedge $-1 $427 $427 $-1 $604 reversed $268 $-1 #
edge $-1 $605 0 $605 6.2831853071796004 $269 $606 forward 7 unknown #
vertex $-1 $272 $607 #
ellipse-curve $-1 -68.466109053290069 3.44385434639576 10.054371793001264 -0.62932039886446345 0 0.77714595512881146 0.38857297756440573 0 0.31466019943223172 1 I I #
face $-1 $-1 $608 $60 $-1 $609 reversed single #
loop $-1 $-1 $279 $273 #
plane-surface $-1 0 0 17.220541856895807 0 0 1 1 0 0 forward_v I I I I #
coedge $-1 $610 $611 $612 $613 reversed $274 $-1 #
coedge $-1 $614 $276 $278 $441 forward $171 $-1 #
coedge $-1 $276 $614 $610 $615 forward $171 $-1 #
coedge $-1 $612 $279 $276 $438 forward $432 $-1 #
edge $-1 $444 0.86880981616701369 $616 6.801706479675266 $437 $617 forward 7 unknown #
coedge $-1 $618 $619 $277 $440 forward $608 $-1 #
edge $-1 $620 -105.46990882125678 $443 -95.158917637405182 $439 $621 forward 7 unknown #
edge $-1 $444 138.59012934687766 $620 154.63118381298253 $278 $622 forward 7 unknown #
coedge $-1 $279 $612 $618 $623 forward $432 $-1 #
vertex $-1 $440 $624 #
vertex $-1 $280 $625 #
straight-curve $-1 29.128122043278424 -4.7040679640881535 17.220541856895807 -1 0 0 I I #
coedge $-1 $446 $446 $-1 $626 reversed $283 $-1 #
edge $-1 $627 0 $627 6.2831853071796004 $284 $628 forward 7 unknown #
vertex $-1 $287 $629 #
ellipse-curve $-1 71.171511641897609 -9.4503852948947547 12.065046264969993 0.64278761758704617 0 0.76604443648966558 0.38302221824483279 0 -0.32139380879352308 1 I I #
coedge $-1 $450 $450 $-1 $630 reversed $290 $-1 #
edge $-1 $631 0 $631 6.2831853071796004 $291 $632 forward 7 unknown #
vertex $-1 $294 $633 #
ellipse-curve $-1 71.171511641897609 -7.6705162958422797 12.065046264969993 0.64278761758704617 0 0.76604443648966558 0.38302221824483279 0 -0.32139380879352308 1 I I #
coedge $-1 $454 $454 $-1 $634 reversed $297 $-1 #
edge $-1 $635 0 $635 6.2831853071796004 $298 $636 forward 7 unknown #
vertex $-1 $301 $637 #
ellipse-curve $-1 71.171511641897609 -5.8906472967898047 12.065046264969993 0.64278761758704617 0 0.76604443648966558 0.38302221824483279 0 -0.32139380879352308 1 I I #
face $-1 $-1 $470 $64 $-1 $638 forward single #
loop $-1 $-1 $639 $302 #
plane-surface $-1 77.315591906491278 0 0 -1 0 0 0 0 1 forward_v I I I I #
coedge $-1 $640 $641 $642 $643 reversed $303 $-1 #
coedge $-1 $644 $305 $307 $468 forward $190 $-1 #
coedge $-1 $305 $644 $640 $645 forward $190 $-1 #
coedge $-1 $642 $308 $305 $465 forward $470 $-1 #
edge $-1 $472 -2.9664483317541261 $646 2.9664483317541261 $464 $647 forward 7 unknown #
coedge $-1 $648 $649 $306 $467 forward $459 $-1 #
edge $-1 $650 -105.46990882125678 $471 -95.158917637405182 $466 $651 forward 7 unknown #
edge $-1 $472 138.59012934687766 $650 154.63118381298253 $307 $652 forward 7 unknown #
coedge $-1 $308 $642 $648 $653 forward $470 $-1 #
loop $-1 $-1 $642 $458 #
vertex $-1 $467 $654 #
vertex $-1 $309 $655 #
straight-curve $-1 29.128122043278424 2.9664483317541261 17.220541856895807 -1 0 0 I I #
coedge $-1 $474 $474 $-1 $656 reversed $312 $-1 #
edge $-1 $657 0 $657 6.2831853071796004 $313 $658 forward 7 unknown #
vertex $-1 $316 $659 #
ellipse-curve $-1 71.171511641897609 -1.779868999052475 12.065046264969993 0.64278761758704617 0 0.76604443648966558 0.38302221824483279 0 -0.32139380879352308 1 I I #
coedge $-1 $478 $478 $-1 $660 reversed $319 $-1 #
edge $-1 $661 0 $661 6.2831853071796004 $320 $662 forward 7 unknown #
vertex $-1 $323 $663 #
ellipse-curve $-1 71.171511641897609 0 12.065046264969993 0.64278761758704617 0 0.76604443648966558 0.38302221824483279 0 -0.32139380879352308 1 I I #
coedge $-1 $482 $482 $-1 $664 reversed $326 $-1 #
edge $-1 $665 0 $665 6.2831853071796004 $327 $666 forward 7 unknown #
vertex $-1 $330 $667 #
ellipse-curve $-1 71.171511641897609 1.779868999052475 12.065046264969993 0.64278761758704617 0 0.76604443648966558 0.38302221824483279 0 -0.32139380879352308 1 I I #
face $-1 $-1 $498 $68 $-1 $668 forward single #
loop $-1 $-1 $669 $331 #
plane-surface $-1 77.315591906491278 0 0 -1 0 0 0 0 1 forward_v I I I I #
coedge $-1 $670 $671 $672 $673 reversed $332 $-1 #
coedge $-1 $674 $334 $336 $496 forward $209 $-1 #
coedge $-1 $334 $674 $670 $675 forward $209 $-1 #
coedge $-1 $672 $337 $334 $493 forward $498 $-1 #
edge $-1 $500 -6.8017064796752678 $676 -0.86880981616701547 $492 $677 forward 7 unknown #
coedge $-1 $678 $679 $335 $495 forward $487 $-1 #
edge $-1 $680 -105.46990882125678 $499 -95.158917637405182 $494 $681 forward 7 unknown #
edge $-1 $500 138.59012934687766 $680 154.63118381298253 $336 $682 forward 7 unknown #
coedge $-1 $337 $672 $678 $683 forward $498 $-1 #
loop $-1 $-1 $672 $486 #
vertex $-1 $495 $684 #
vertex $-1 $338 $685 #
straight-curve $-1 29.128122043278424 10.636964627596409 17.220541856895807 -1 0 0 I I #
coedge $-1 $502 $502 $-1 $686 reversed $341 $-1 #
edge $-1 $687 0 $687 6.2831853071796004 $342 $688 forward 7 unknown #
vertex $-1 $345 $689 #
ellipse-curve $-1 71.171511641897609 5.8906472967898083 12.065046264969993 0.64278761758704617 0 0.76604443648966558 0.38302221824483279 0 -0.32139380879352308 1 I I #
coedge $-1 $506 $506 $-1 $690 reversed $348 $-1 #
edge $-1 $691 0 $691 6.2831853071796004 $349 $692 forward 7 unknown #
vertex $-1 $352 $693 #
ellipse-curve $-1 71.171511641897609 7.6705162958422832 12.065046264969993 0.64278761758704617 0 0.76604443648966558 0.38302221824483279 0 -0.32139380879352308 1 I I #
coedge $-1 $510 $510 $-1 $694 reversed $355 $-1 #
edge $-1 $695 0 $695 6.2831853071796004 $356 $696 forward 7 unknown #
vertex $-1 $359 $697 #
ellipse-curve $-1 71.171511641897609 9.4503852948947582 12.065046264969993 0.64278761758704617 0 0.76604443648966558 0.38302221824483279 0 -0.32139380879352308 1 I I #
face $-1 $-1 $375 $54 $-1 $698 reversed single #
loop $-1 $-1 $530 $360 #
plane-surface $-1 0 36.289037058170514 0 0 -1 0 0 0 -1 forward_v I I I I #
coedge $-1 $699 $528 $531 $700 forward $361 $-1 #
coedge $-1 $534 $363 $364 $522 reversed $228 $-1 #
coedge $-1 $528 $699 $363 $520 reversed $361 $-1 #
edge $-1 $535 -17.220541856895807 $701 17.220541856895807 $519 $702 forward 7 unknown #
coedge $-1 $365 $364 $699 $703 forward $145 $-1 #
edge $-1 $526 -77.315591906491278 $701 77.315591906491278 $518 $704 forward 7 unknown #
coedge $-1 $531 $530 $365 $524 reversed $515 $-1 #
edge $-1 $705 -77.315591906491278 $525 77.315591906491278 $523 $706 forward 7 unknown #
vertex $-1 $367 $707 #
vertex $-1 $537 $708 #
straight-curve $-1 77.315591906491278 0 -17.220541856895807 0 -1 0 I I #
coedge $-1 $517 $519 $368 $529 reversed $361 $-1 #
edge $-1 $532 -36.289037058170514 $535 36.289037058170514 $528 $709 forward 7 unknown #
coedge $-1 $523 $369 $374 $538 forward $515 $-1 #
coedge $-1 $369 $523 $517 $700 reversed $515 $-1 #
vertex $-1 $370 $710 #
straight-curve $-1 0 36.289037058170514 17.220541856895807 -1 0 0 I I #
coedge $-1 $371 $518 $373 $537 reversed $228 $-1 #
vertex $-1 $529 $711 #
straight-curve $-1 0 -36.289037058170514 17.220541856895807 1 0 0 I I #
edge $-1 $376 -17.220541856895807 $526 17.220541856895807 $373 $712 forward 7 unknown #
edge $-1 $377 -17.220541856895807 $525 17.220541856895807 $374 $713 forward 7 unknown #
point $-1 77.315591906491278 -36.289037058170514 17.220541856895807 #
point $-1 77.315591906491278 36.289037058170514 17.220541856895807 #
face $-1 $-1 $557 $55 $-1 $714 reversed single #
loop $-1 $-1 $715 $379 #
plane-surface $-1 0 -58.465870224076568 -12.167299973872801 0 1 0 0 0 1 forward_v I I I I #
coedge $-1 $716 $554 $556 $717 forward $380 $-1 #
coedge $-1 $382 $389 $718 $719 forward $236 $-1 #
coedge $-1 $720 $387 $382 $547 reversed $557 $-1 #
edge $-1 $721 -11.08841658295303 $391 11.08841658295303 $546 $722 forward 7 unknown #
coedge $-1 $384 $383 $715 $723 reversed $149 $-1 #
coedge $-1 $554 $716 $383 $550 forward $380 $-1 #
edge $-1 $724 -11.08841658295303 $552 11.08841658295303 $383 $725 forward 7 unknown #
edge $-1 $390 -11.08841658295303 $726 11.08841658295303 $384 $727 forward 7 unknown #
vertex $-1 $385 $728 #
straight-curve $-1 -77.315591906491278 -36.289037058170514 0 0 0 -1 I I #
coedge $-1 $544 $549 $386 $555 reversed $380 $-1 #
edge $-1 $558 -77.315591906491278 $552 77.315591906491278 $554 $729 forward 7 unknown #
coedge $-1 $387 $720 $544 $717 reversed $557 $-1 #
loop $-1 $-1 $387 $541 #
vertex $-1 $388 $730 #
straight-curve $-1 77.315591906491278 -36.289037058170514 0 0 0 1 I I #
point $-1 -77.315591906491278 -36.289037058170507 -8.6299073170967766 #
point $-1 77.315591906491278 -36.289037058170507 -8.6299073170967766 #
face $-1 $-1 $576 $56 $-1 $731 reversed single #
loop $-1 $-1 $732 $393 #
plane-surface $-1 0 58.465870224076568 -12.167299973872801 0 -1 0 0 0 -1 forward_v I I I I #
coedge $-1 $572 $733 $397 $569 forward $394 $-1 #
coedge $-1 $403 $396 $734 $735 forward $244 $-1 #
edge $-1 $404 -11.088416582953023 $736 11.088416582953023 $398 $737 forward 7 unknown #
coedge $-1 $398 $397 $732 $738 reversed $153 $-1 #
edge $-1 $739 -11.088416582953023 $570 11.088416582953023 $397 $740 forward 7 unknown #
vertex $-1 $399 $741 #
straight-curve $-1 77.315591906491278 36.289037058170514 0 0 0 -1 I I #
coedge $-1 $742 $565 $400 $573 reversed $394 $-1 #
edge $-1 $577 -77.315591906491278 $570 77.315591906491278 $572 $743 forward 7 unknown #
coedge $-1 $744 $401 $403 $579 reversed $576 $-1 #
coedge $-1 $401 $744 $742 $745 reversed $576 $-1 #
loop $-1 $-1 $401 $562 #
vertex $-1 $402 $746 #
straight-curve $-1 -77.315591906491278 36.289037058170514 0 0 0 1 I I #
edge $-1 $747 -11.088416582953023 $405 11.088416582953023 $574 $748 forward 7 unknown #
point $-1 77.315591906491278 36.289037058170521 -8.6299073170967766 #
point $-1 -77.315591906491278 36.289037058170521 -8.6299073170967766 #
plane-surface $-1 0 0 17.220541856895807 0 0 1 1 0 0 forward_v I I I I #
coedge $-1 $593 $592 $585 $749 forward $408 $-1 #
coedge $-1 $585 $410 $412 $589 reversed $252 $-1 #
coedge $-1 $410 $584 $583 $749 reversed $252 $-1 #
coedge $-1 $418 $413 $410 $587 forward $419 $-1 #
edge $-1 $590 -27.697448890191936 $750 -9.9984831837895172 $586 $751 forward 7 unknown #
coedge $-1 $412 $411 $593 $752 reversed $157 $-1 #
edge $-1 $753 -3.6620485252745651e-014 $590 22.774313614575526 $584 $754 forward 7 unknown #
vertex $-1 $414 $755 #
straight-curve $-1 -59.616626200088852 0.97059106373703585 17.220541856895807 0 1 0 I I #
coedge $-1 $583 $415 $418 $597 reversed $408 $-1 #
coedge $-1 $415 $583 $588 $752 forward $408 $-1 #
vertex $-1 $416 $756 #
straight-curve $-1 -77.315591906491278 -1.5650530500098725 61.529600383072946 0 0 1 I I #
straight-curve $-1 -77.31559190649125 -1.5650530500098725 2.8882017291067541 -0.77714595512881146 0 -0.62932039886446345 I I #
edge $-1 $750 -5.4474173049580159 $420 1.5650530500098725 $592 $757 forward 7 unknown #
point $-1 -77.315591906491278 -1.5650530500098725 17.220541856895807 #
point $-1 -59.616626200088859 -1.5650530500098725 17.220541856895807 #
edge $-1 $758 1 $758 0 $423 $-1 forward 7 unknown #
vertex $-1 $424 $759 #
ellipse-curve $-1 -67.703787654574057 0.43850990855238337 9.1129832847163446 -0.62932039886446345 0 0.77714595512881146 0.38857297756440573 0 0.31466019943223172 1 I I #
point $-1 -68.077536075725689 0.43850990855238337 10.369031992433523 #
edge $-1 $760 1 $760 0 $427 $-1 forward 7 unknown #
vertex $-1 $428 $761 #
ellipse-curve $-1 -67.703787654574057 3.44385434639576 9.1129832847163446 -0.62932039886446345 0 0.77714595512881146 0.38857297756440573 0 0.31466019943223172 1 I I #
point $-1 -68.077536075725689 3.44385434639576 10.369031992433523 #
loop $-1 $-1 $439 $431 #
plane-surface $-1 77.315591906491278 0 0 -1 0 0 0 0 1 forward_v I I I I #
coedge $-1 $611 $434 $436 $615 reversed $274 $-1 #
coedge $-1 $434 $610 $762 $763 reversed $274 $-1 #
coedge $-1 $442 $437 $434 $613 forward $432 $-1 #
edge $-1 $616 35.899309334025517 $764 48.187469863212854 $612 $765 forward 7 unknown #
coedge $-1 $436 $435 $619 $766 reversed $171 $-1 #
edge $-1 $767 -154.63118381298253 $616 -138.59012934687766 $610 $768 forward 7 unknown #
vertex $-1 $438 $769 #
straight-curve $-1 65.027431377303913 -3.8352581479211398 17.220541856895814 0 -1 0 I I #
coedge $-1 $762 $439 $442 $623 reversed $608 $-1 #
coedge $-1 $439 $762 $614 $766 forward $608 $-1 #
vertex $-1 $440 $770 #
straight-curve $-1 77.315591906491278 -4.7040679640881535 112.37945949430099 0 0 1 I I #
straight-curve $-1 -41.138766161254821 -4.7040679640881535 106.30456092085586 0.76604443648966558 0 -0.64278761758704617 I I #
edge $-1 $764 -10.636964627596406 $443 -4.7040679640881535 $618 $771 forward 7 unknown #
point $-1 77.315591906491278 -4.7040679640881535 17.220541856895807 #
point $-1 65.027431377303941 -4.7040679640881535 17.220541856895807 #
edge $-1 $772 1 $772 0 $446 $-1 forward 7 unknown #
vertex $-1 $447 $773 #
ellipse-curve $-1 70.42983513059869 -9.4503852948947547 11.181150636599938 0.64278761758704617 0 0.76604443648966558 0.38302221824483279 0 -0.32139380879352308 1 I I #
point $-1 71.554533860142428 -9.4503852948947547 11.743652456176461 #
edge $-1 $774 1 $774 0 $450 $-1 forward 7 unknown #
vertex $-1 $451 $775 #
ellipse-curve $-1 70.42983513059869 -7.6705162958422797 11.181150636599938 0.64278761758704617 0 0.76604443648966558 0.38302221824483279 0 -0.32139380879352308 1 I I #
point $-1 71.554533860142428 -7.6705162958422797 11.743652456176461 #
edge $-1 $776 1 $776 0 $454 $-1 forward 7 unknown #
vertex $-1 $455 $777 #
ellipse-curve $-1 70.42983513059869 -5.8906472967898047 11.181150636599938 0.64278761758704617 0 0.76604443648966558 0.38302221824483279 0 -0.32139380879352308 1 I I #
point $-1 71.554533860142428 -5.8906472967898047 11.743652456176461 #
plane-surface $-1 0 0 17.220541856895807 0 0 1 1 0 0 forward_v I I I I #
coedge $-1 $649 $648 $641 $778 forward $459 $-1 #
coedge $-1 $641 $461 $463 $645 reversed $303 $-1 #
coedge $-1 $461 $640 $639 $778 reversed $303 $-1 #
coedge $-1 $469 $464 $461 $643 forward $470 $-1 #
edge $-1 $646 35.899309334025517 $779 48.187469863212854 $642 $780 forward 7 unknown #
coedge $-1 $463 $462 $649 $781 reversed $190 $-1 #
edge $-1 $782 -154.63118381298253 $646 -138.59012934687766 $640 $783 forward 7 unknown #
vertex $-1 $465 $784 #
straight-curve $-1 65.027431377303913 0 17.220541856895814 0 -1 0 I I #
coedge $-1 $639 $466 $469 $653 reversed $459 $-1 #
coedge $-1 $466 $639 $644 $781 forward $459 $-1 #
vertex $-1 $467 $785 #
straight-curve $-1 77.315591906491278 2.9664483317541261 112.37945949430099 0 0 1 I I #
straight-curve $-1 -41.138766161254821 2.9664483317541261 106.30456092085586 0.76604443648966558 0 -0.64278761758704617 I I #
edge $-1 $779 -2.9664483317541261 $471 2.9664483317541261 $648 $786 forward 7 unknown #
point $-1 77.315591906491278 2.9664483317541261 17.220541856895807 #
point $-1 65.027431377303941 2.9664483317541261 17.220541856895807 #
edge $-1 $787 1 $787 0 $474 $-1 forward 7 unknown #
vertex $-1 $475 $788 #
ellipse-curve $-1 70.42983513059869 -1.779868999052475 11.181150636599938 0.64278761758704617 0 0.76604443648966558 0.38302221824483279 0 -0.32139380879352308 1 I I #
point $-1 71.554533860142428 -1.779868999052475 11.743652456176461 #
edge $-1 $789 1 $789 0 $478 $-1 forward 7 unknown #
vertex $-1 $479 $790 #
ellipse-curve $-1 70.42983513059869 0 11.181150636599938 0.64278761758704617 0 0.76604443648966558 0.38302221824483279 0 -0.32139380879352308 1 I I #
point $-1 71.554533860142428 0 11.743652456176461 #
edge $-1 $791 1 $791 0 $482 $-1 forward 7 unknown #
vertex $-1 $483 $792 #
ellipse-curve $-1 70.42983513059869 1.779868999052475 11.181150636599938 0.64278761758704617 0 0.76604443648966558 0.38302221824483279 0 -0.32139380879352308 1 I I #
point $-1 71.554533860142428 1.779868999052475 11.743652456176461 #
plane-surface $-1 0 0 17.220541856895807 0 0 1 1 0 0 forward_v I I I I #
coedge $-1 $679 $678 $671 $793 forward $487 $-1 #
coedge $-1 $671 $489 $491 $675 reversed $332 $-1 #
coedge $-1 $489 $670 $669 $793 reversed $332 $-1 #
coedge $-1 $497 $492 $489 $673 forward $498 $-1 #
edge $-1 $676 35.899309334025517 $794 48.187469863212854 $672 $795 forward 7 unknown #
coedge $-1 $491 $490 $679 $796 reversed $209 $-1 #
edge $-1 $797 -154.63118381298253 $676 -138.59012934687766 $670 $798 forward 7 unknown #
vertex $-1 $493 $799 #
straight-curve $-1 65.027431377303913 3.8352581479211416 17.220541856895814 0 -1 0 I I #
coedge $-1 $669 $494 $497 $683 reversed $487 $-1 #
coedge $-1 $494 $669 $674 $796 forward $487 $-1 #
vertex $-1 $495 $800 #
straight-curve $-1 77.315591906491278 10.636964627596409 112.37945949430099 0 0 1 I I #
straight-curve $-1 -41.138766161254821 10.636964627596409 106.30456092085586 0.76604443648966558 0 -0.64278761758704617 I I #
edge $-1 $794 4.7040679640881571 $499 10.636964627596409 $678 $801 forward 7 unknown #
point $-1 77.315591906491278 10.636964627596409 17.220541856895807 #
point $-1 65.027431377303941 10.636964627596409 17.220541856895807 #
edge $-1 $802 1 $802 0 $502 $-1 forward 7 unknown #
vertex $-1 $503 $803 #
ellipse-curve $-1 70.42983513059869 5.8906472967898083 11.181150636599938 0.64278761758704617 0 0.76604443648966558 0.38302221824483279 0 -0.32139380879352308 1 I I #
point $-1 71.554533860142428 5.8906472967898083 11.743652456176461 #
edge $-1 $804 1 $804 0 $506 $-1 forward 7 unknown #
vertex $-1 $507 $805 #
ellipse-curve $-1 70.42983513059869 7.6705162958422832 11.181150636599938 0.64278761758704617 0 0.76604443648966558 0.38302221824483279 0 -0.32139380879352308 1 I I #
point $-1 71.554533860142428 7.6705162958422832 11.743652456176461 #
edge $-1 $806 1 $806 0 $510 $-1 forward 7 unknown #
vertex $-1 $511 $807 #
ellipse-curve $-1 70.42983513059869 9.4503852948947582 11.181150636599938 0.64278761758704617 0 0.76604443648966558 0.38302221824483279 0 -0.32139380879352308 1 I I #
point $-1 71.554533860142428 9.4503852948947582 11.743652456176461 #
plane-surface $-1 77.315591906491278 0 0 -1 0 0 0 0 1 forward_v I I I I #
coedge $-1 $519 $517 $521 $703 reversed $361 $-1 #
edge $-1 $532 -17.220541856895807 $705 17.220541856895807 $531 $808 forward 7 unknown #
vertex $-1 $703 $809 #
straight-curve $-1 -77.315591906491278 -36.289037058170514 0 0 0 -1 I I #
edge $-1 $701 -36.289037058170514 $705 36.289037058170514 $699 $810 forward 7 unknown #
straight-curve $-1 0 -36.289037058170514 -17.220541856895807 -1 0 0 I I #
vertex $-1 $524 $811 #
straight-curve $-1 0 36.289037058170514 -17.220541856895807 1 0 0 I I #
point $-1 77.315591906491278 36.289037058170514 -17.220541856895807 #
point $-1 77.315591906491278 -36.289037058170514 -17.220541856895807 #
straight-curve $-1 -77.315591906491278 0 17.220541856895807 0 -1 0 I I #
point $-1 -77.315591906491278 36.289037058170514 17.220541856895807 #
point $-1 -77.315591906491278 -36.289037058170514 17.220541856895807 #
straight-curve $-1 77.315591906491278 -36.289037058170514 0 0 0 -1 I I #
straight-curve $-1 77.315591906491278 36.289037058170514 0 0 0 -1 I I #
plane-surface $-1 77.315591906491278 0 0 -1 0 0 0 0 1 forward_v I I I I #
coedge $-1 $812 $718 $548 $723 forward $542 $-1 #
coedge $-1 $549 $544 $812 $813 forward $380 $-1 #
edge $-1 $558 -11.08841658295303 $814 11.08841658295303 $556 $815 forward 7 unknown #
coedge $-1 $715 $816 $545 $719 reversed $542 $-1 #
edge $-1 $726 -77.315591906491278 $721 77.315591906491278 $718 $817 forward 7 unknown #
coedge $-1 $556 $546 $816 $818 forward $557 $-1 #
vertex $-1 $547 $819 #
straight-curve $-1 77.315591906491278 -47.377453641123537 -8.6299073170967766 0 1 0 I I #
edge $-1 $726 -3.5373926567760243 $724 3.5373926567760243 $548 $820 forward 7 unknown #
vertex $-1 $550 $821 #
straight-curve $-1 -77.315591906491278 -47.377453641123537 -15.704692630648825 0 1 0 I I #
vertex $-1 $551 $822 #
straight-curve $-1 -77.315591906491278 -47.377453641123537 -8.6299073170967766 0 -1 0 I I #
point $-1 -77.315591906491278 -36.289037058170507 -15.704692630648825 #
straight-curve $-1 0 -36.289037058170514 -15.704692630648825 -1 0 0 I I #
point $-1 77.315591906491278 -36.289037058170507 -15.704692630648825 #
plane-surface $-1 -77.315591906491278 0 0 1 0 0 0 0 -1 forward_v I I I I #
coedge $-1 $823 $734 $568 $738 forward $563 $-1 #
coedge $-1 $565 $742 $823 $824 forward $394 $-1 #
coedge $-1 $732 $825 $566 $735 reversed $563 $-1 #
edge $-1 $736 -77.315591906491278 $747 77.315591906491278 $734 $826 forward 7 unknown #
vertex $-1 $567 $827 #
straight-curve $-1 77.315591906491278 47.377453641123545 -8.6299073170967766 0 1 0 I I #
edge $-1 $736 -3.5373926567760243 $739 3.5373926567760243 $568 $828 forward 7 unknown #
vertex $-1 $569 $829 #
straight-curve $-1 77.315591906491278 47.377453641123545 -15.704692630648825 0 -1 0 I I #
point $-1 77.315591906491278 36.289037058170521 -15.704692630648825 #
coedge $-1 $733 $572 $575 $745 forward $394 $-1 #
straight-curve $-1 0 36.289037058170514 -15.704692630648825 1 0 0 I I #
coedge $-1 $575 $574 $825 $830 forward $576 $-1 #
edge $-1 $577 -11.088416582953023 $831 11.088416582953023 $575 $832 forward 7 unknown #
point $-1 -77.315591906491278 36.289037058170521 -15.704692630648825 #
vertex $-1 $735 $833 #
straight-curve $-1 -77.315591906491278 47.377453641123545 -8.6299073170967766 0 -1 0 I I #
edge $-1 $750 44.309058526177139 $753 58.641398653966213 $583 $834 forward 7 unknown #
vertex $-1 $597 $835 #
straight-curve $-1 -87.314075090280795 5.4474173049580159 17.220541856895807 -1 0 0 I I #
edge $-1 $753 -4.4768262412209801 $594 2.5356441137469083 $593 $836 forward 7 unknown #
vertex $-1 $752 $837 #
straight-curve $-1 -77.31559190649125 5.4474173049580159 2.8882017291067541 0.77714595512881146 0 0.62932039886446345 I I #
point $-1 -59.616626200088859 5.4474173049580159 17.220541856895807 #
point $-1 -77.315591906491278 -1.5650530500098725 2.888201729106731 #
straight-curve $-1 -77.315591906491278 0 17.220541856895807 0 -1 0 I I #
vertex $-1 $600 $838 #
point $-1 -67.315214677009649 0.43850990855238337 9.427643484148577 #
vertex $-1 $604 $839 #
point $-1 -67.315214677009649 3.44385434639576 9.427643484148577 #
coedge $-1 $619 $618 $611 $763 forward $608 $-1 #
edge $-1 $764 95.158917637405182 $767 105.46990882125678 $762 $840 forward 7 unknown #
vertex $-1 $623 $841 #
straight-curve $-1 29.128122043278424 -10.636964627596406 17.220541856895807 1 0 0 I I #
edge $-1 $767 -6.801706479675266 $620 -0.86880981616701369 $619 $842 forward 7 unknown #
vertex $-1 $766 $843 #
straight-curve $-1 -41.138766161254821 -10.636964627596406 106.30456092085586 -0.76604443648966558 0 0.64278761758704617 I I #
point $-1 65.027431377303941 -10.636964627596406 17.220541856895807 #
point $-1 77.315591906491278 -4.7040679640881535 6.9095506730442082 #
straight-curve $-1 77.315591906491278 0 17.220541856895807 0 1 0 I I #
vertex $-1 $626 $844 #
point $-1 70.812857348843522 -9.4503852948947547 10.859756827806414 #
vertex $-1 $630 $845 #
point $-1 70.812857348843522 -7.6705162958422797 10.859756827806414 #
vertex $-1 $634 $846 #
point $-1 70.812857348843522 -5.8906472967898047 10.859756827806414 #
edge $-1 $779 95.158917637405182 $782 105.46990882125678 $639 $847 forward 7 unknown #
vertex $-1 $653 $848 #
straight-curve $-1 29.128122043278424 -2.9664483317541261 17.220541856895807 1 0 0 I I #
edge $-1 $782 -2.9664483317541261 $650 2.9664483317541261 $649 $849 forward 7 unknown #
vertex $-1 $781 $850 #
straight-curve $-1 -41.138766161254821 -2.9664483317541261 106.30456092085586 -0.76604443648966558 0 0.64278761758704617 I I #
point $-1 65.027431377303941 -2.9664483317541261 17.220541856895807 #
point $-1 77.315591906491278 2.9664483317541261 6.9095506730442082 #
straight-curve $-1 77.315591906491278 0 17.220541856895807 0 1 0 I I #
vertex $-1 $656 $851 #
point $-1 70.812857348843522 -1.779868999052475 10.859756827806414 #
vertex $-1 $660 $852 #
point $-1 70.812857348843522 0 10.859756827806414 #
vertex $-1 $664 $853 #
point $-1 70.812857348843522 1.779868999052475 10.859756827806414 #
edge $-1 $794 95.158917637405182 $797 105.46990882125678 $669 $854 forward 7 unknown #
vertex $-1 $683 $855 #
straight-curve $-1 29.128122043278424 4.7040679640881571 17.220541856895807 1 0 0 I I #
edge $-1 $797 0.86880981616701547 $680 6.8017064796752678 $679 $856 forward 7 unknown #
vertex $-1 $796 $857 #
straight-curve $-1 -41.138766161254821 4.7040679640881571 106.30456092085586 -0.76604443648966558 0 0.64278761758704617 I I #
point $-1 65.027431377303941 4.7040679640881571 17.220541856895807 #
point $-1 77.315591906491278 10.636964627596409 6.9095506730442082 #
straight-curve $-1 77.315591906491278 0 17.220541856895807 0 1 0 I I #
vertex $-1 $686 $858 #
point $-1 70.812857348843522 5.8906472967898083 10.859756827806414 #
vertex $-1 $690 $859 #
point $-1 70.812857348843522 7.6705162958422832 10.859756827806414 #
vertex $-1 $694 $860 #
point $-1 70.812857348843522 9.4503852948947582 10.859756827806414 #
straight-curve $-1 -77.315591906491278 36.289037058170514 0 0 0 -1 I I #
point $-1 -77.315591906491278 -36.289037058170514 -17.220541856895807 #
straight-curve $-1 -77.315591906491278 0 -17.220541856895807 0 1 0 I I #
point $-1 -77.315591906491278 36.289037058170514 -17.220541856895807 #
coedge $-1 $816 $715 $716 $813 reversed $542 $-1 #
edge $-1 $814 -77.315591906491278 $724 77.315591906491278 $812 $861 forward 7 unknown #
vertex $-1 $818 $862 #
straight-curve $-1 77.315591906491278 -47.377453641123537 -15.704692630648825 0 -1 0 I I #
coedge $-1 $718 $812 $720 $818 reversed $542 $-1 #
straight-curve $-1 0 -58.465870224076568 -8.6299073170967766 1 0 0 I I #
edge $-1 $721 -3.5373926567760243 $814 3.5373926567760243 $720 $863 forward 7 unknown #
point $-1 77.315591906491278 -58.465870224076568 -8.6299073170967766 #
straight-curve $-1 -77.315591906491278 -58.465870224076568 -12.167299973872801 0 0 -1 I I #
point $-1 -77.315591906491278 -58.465870224076568 -15.704692630648825 #
point $-1 -77.315591906491278 -58.465870224076568 -8.6299073170967766 #
coedge $-1 $825 $732 $733 $824 reversed $563 $-1 #
edge $-1 $831 -77.315591906491278 $739 77.315591906491278 $823 $864 forward 7 unknown #
coedge $-1 $734 $823 $744 $830 reversed $563 $-1 #
straight-curve $-1 0 58.465870224076568 -8.6299073170967766 -1 0 0 I I #
point $-1 77.315591906491278 58.465870224076568 -8.6299073170967766 #
straight-curve $-1 77.315591906491278 58.465870224076568 -12.167299973872801 0 0 -1 I I #
point $-1 77.315591906491278 58.465870224076568 -15.704692630648825 #
edge $-1 $747 -3.5373926567760243 $831 3.5373926567760243 $825 $865 forward 7 unknown #
vertex $-1 $824 $866 #
straight-curve $-1 -77.315591906491278 47.377453641123545 -15.704692630648825 0 1 0 I I #
point $-1 -77.315591906491278 58.465870224076568 -8.6299073170967766 #
straight-curve $-1 -77.315591906491278 5.4474173049580159 61.529600383072946 0 0 -1 I I #
point $-1 -77.315591906491278 5.4474173049580159 17.220541856895807 #
straight-curve $-1 -77.315591906491278 0.97059106373703585 2.8882017291067337 0 -1 0 I I #
point $-1 -77.315591906491278 5.4474173049580159 2.888201729106731 #
point $-1 -67.389127455141818 0.43850990855238337 8.7244103071519401 #
point $-1 -67.389127455141818 3.44385434639576 8.7244103071519401 #
straight-curve $-1 77.315591906491278 -10.636964627596406 112.37945949430099 0 0 -1 I I #
point $-1 77.315591906491278 -10.636964627596406 17.220541856895807 #
straight-curve $-1 77.315591906491278 -3.8352581479211398 6.9095506730442011 0 1 0 I I #
point $-1 77.315591906491278 -10.636964627596406 6.9095506730442082 #
point $-1 70.108441321805174 -9.4503852948947547 10.798128418355105 #
point $-1 70.108441321805174 -7.6705162958422797 10.798128418355105 #
point $-1 70.108441321805174 -5.8906472967898047 10.798128418355105 #
straight-curve $-1 77.315591906491278 -2.9664483317541261 112.37945949430099 0 0 -1 I I #
point $-1 77.315591906491278 -2.9664483317541261 17.220541856895807 #
straight-curve $-1 77.315591906491278 0 6.9095506730442011 0 1 0 I I #
point $-1 77.315591906491278 -2.9664483317541261 6.9095506730442082 #
point $-1 70.108441321805174 -1.779868999052475 10.798128418355105 #
point $-1 70.108441321805174 0 10.798128418355105 #
point $-1 70.108441321805174 1.779868999052475 10.798128418355105 #
straight-curve $-1 77.315591906491278 4.7040679640881571 112.37945949430099 0 0 -1 I I #
point $-1 77.315591906491278 4.7040679640881571 17.220541856895807 #
straight-curve $-1 77.315591906491278 3.8352581479211416 6.9095506730442011 0 1 0 I I #
point $-1 77.315591906491278 4.7040679640881571 6.9095506730442082 #
point $-1 70.108441321805174 5.8906472967898083 10.798128418355105 #
point $-1 70.108441321805174 7.6705162958422832 10.798128418355105 #
point $-1 70.108441321805174 9.4503852948947582 10.798128418355105 #
straight-curve $-1 0 -58.465870224076568 -15.704692630648825 -1 0 0 I I #
point $-1 77.315591906491278 -58.465870224076568 -15.704692630648825 #
straight-curve $-1 77.315591906491278 -58.465870224076568 -12.167299973872801 0 0 -1 I I #
straight-curve $-1 0 58.465870224076568 -15.704692630648825 1 0 0 I I #
straight-curve $-1 -77.315591906491278 58.465870224076568 -12.167299973872801 0 0 -1 I I #
point $-1 -77.315591906491278 58.465870224076568 -15.704692630648825 #
End-of-ACIS-data 