500 0 8 0           
7 Unknown 11 ACIS 5.0 NT 24 Thu Mar 25 16:07:33 1999 
-1 9.9999999999999995e-007 1e-010 
body $-1 $8 $-1 $9 #
body $-1 $10 $-1 $11 #
body $-1 $12 $-1 $13 #
body $-1 $14 $-1 $15 #
body $-1 $16 $-1 $17 #
body $-1 $18 $-1 $19 #
body $-1 $20 $-1 $21 #
body $-1 $22 $-1 $23 #
lump $-1 $-1 $24 $0 #
transform $-1 1 0 0 0 1 0 0 0 1 64.177983947264011 26.094254723734519 8.7410616816958271 1 rotate no_reflect no_shear #
lump $-1 $-1 $25 $1 #
transform $-1 1 0 0 0 1 0 0 0 1 64.177983947264011 26.094254723734519 8.7410616816958271 1 rotate no_reflect no_shear #
lump $-1 $-1 $26 $2 #
transform $-1 1 0 0 0 1 0 0 0 1 64.177983947264011 26.094254723734519 8.7410616816958271 1 rotate no_reflect no_shear #
lump $-1 $-1 $27 $3 #
transform $-1 1 0 0 0 1 0 0 0 1 64.177983947264011 26.094254723734519 8.7410616816958271 1 rotate no_reflect no_shear #
lump $-1 $-1 $28 $4 #
transform $-1 1 0 0 0 1 0 0 0 1 64.177983947264011 26.094254723734519 8.7410616816958271 1 rotate no_reflect no_shear #
lump $-1 $-1 $29 $5 #
transform $-1 1 0 0 0 1 0 0 0 1 64.177983947264011 26.094254723734519 8.7410616816958271 1 rotate no_reflect no_shear #
lump $-1 $-1 $30 $6 #
transform $-1 1 0 0 0 1 0 0 0 1 64.177983947264011 26.094254723734519 8.7410616816958271 1 rotate no_reflect no_shear #
lump $-1 $-1 $31 $7 #
transform $-1 1 0 0 0 1 0 0 0 1 64.177983947264011 26.094254723734519 8.7410616816958271 1 rotate no_reflect no_shear #
shell $-1 $-1 $-1 $32 $-1 $8 #
shell $-1 $-1 $-1 $33 $-1 $10 #
shell $-1 $-1 $-1 $34 $-1 $12 #
shell $-1 $-1 $-1 $35 $-1 $14 #
shell $-1 $-1 $-1 $36 $-1 $16 #
shell $-1 $-1 $-1 $37 $-1 $18 #
shell $-1 $-1 $-1 $38 $-1 $20 #
shell $-1 $-1 $-1 $39 $-1 $22 #
face $-1 $40 $41 $24 $-1 $42 forward single #
face $-1 $43 $44 $25 $-1 $45 forward single #
face $-1 $46 $47 $26 $-1 $48 reversed single #
face $-1 $49 $50 $27 $-1 $51 forward single #
face $-1 $52 $53 $28 $-1 $54 forward single #
face $-1 $55 $56 $29 $-1 $57 reversed single #
face $-1 $58 $59 $30 $-1 $60 forward single #
face $-1 $61 $62 $31 $-1 $63 forward single #
face $-1 $64 $65 $24 $-1 $66 reversed single #
loop $-1 $-1 $67 $32 #
plane-surface $-1 0 0 8.7410616816958271 0 0 1 1 0 0 forward_v I I I I #
face $-1 $68 $69 $25 $-1 $70 reversed single #
loop $-1 $-1 $71 $33 #
plane-surface $-1 0 -22.288095504183318 5.273784915870225 0 0 1 1 0 0 forward_v I I I I #
face $-1 $72 $73 $26 $-1 $74 reversed single #
loop $-1 $-1 $75 $34 #
plane-surface $-1 -169.32103848878421 13.426349413435108 77.569232729064794 0 1 0 -0.81915205242281985 0 0.57357642473473569 forward_v I I I I #
face $-1 $76 $77 $27 $-1 $78 forward single #
loop $-1 $79 $80 $35 #
cone-surface $-1 -62.090085385984786 17.045750930663512 6.0573804138579872 0.81915205242281985 0 -0.57357642473473569 0.28678821236736785 0 0.40957602621140993 1 I I 0 1 0.5 forward I I I I #
face $-1 $81 $82 $28 $-1 $83 forward single #
loop $-1 $84 $85 $36 #
cone-surface $-1 -62.090085385984786 22.474853206506122 6.0573804138579872 0.81915205242281985 0 -0.57357642473473569 0.28678821236736785 0 0.40957602621140993 1 I I 0 1 0.5 forward I I I I #
face $-1 $86 $87 $29 $-1 $88 reversed single #
loop $-1 $-1 $89 $37 #
plane-surface $-1 -9.4439732110458863 19.760302068584817 109.09033011227507 0.81915205242281985 0 0.57357642473473569 0.57357642473473569 0 -0.81915205242281985 forward_v I I I I #
face $-1 $90 $91 $30 $-1 $92 forward single #
loop $-1 $93 $94 $38 #
cone-surface $-1 62.0900853859848 17.045750930663512 6.057380413857973 -0.81915205242281985 0 -0.57357642473473569 0.28678821236736785 0 -0.40957602621140993 1 I I 0 1 0.5 forward I I I I #
face $-1 $95 $96 $31 $-1 $97 forward single #
loop $-1 $98 $99 $39 #
cone-surface $-1 62.0900853859848 22.474853206506122 6.057380413857973 -0.81915205242281985 0 -0.57357642473473569 0.28678821236736785 0 -0.40957602621140993 1 I I 0 1 0.5 forward I I I I #
face $-1 $100 $101 $24 $-1 $102 reversed single #
loop $-1 $-1 $103 $40 #
plane-surface $-1 0 0 -8.7410616816958271 0 0 1 1 0 0 forward_v I I I I #
coedge $-1 $104 $105 $106 $107 forward $41 $-1 #
face $-1 $108 $109 $25 $-1 $110 reversed single #
loop $-1 $-1 $111 $43 #
plane-surface $-1 0 -22.288095504183318 2.273784915870225 0 0 1 1 0 0 forward_v I I I I #
coedge $-1 $112 $113 $114 $115 reversed $44 $-1 #
face $-1 $116 $117 $26 $-1 $118 forward single #
loop $-1 $-1 $119 $46 #
plane-surface $-1 -64.177983947264011 19.760302068584817 3.947275570754897 -0.81915205242281985 0 0.57357642473473569 0.57357642473473569 0 0.81915205242281985 forward_v I I I I #
coedge $-1 $120 $121 $122 $123 reversed $47 $-1 #
face $-1 $-1 $124 $27 $-1 $125 forward single #
loop $-1 $126 $127 $49 #
cone-surface $-1 -61.475721346667669 17.045750930663512 5.6271980953069356 0.81915205242281985 0 -0.57357642473473569 0.14339410618368392 0 0.20478801310570496 1 I I -0.70710678118654746 0.70710678118654746 0.25 forward I I I I #
loop $-1 $-1 $128 $35 #
coedge $-1 $80 $80 $129 $130 reversed $50 $-1 #
face $-1 $-1 $131 $28 $-1 $132 forward single #
loop $-1 $133 $134 $52 #
cone-surface $-1 -61.475721346667669 22.474853206506122 5.6271980953069356 0.81915205242281985 0 -0.57357642473473569 0.14339410618368392 0 0.20478801310570496 1 I I -0.70710678118654746 0.70710678118654746 0.25 forward I I I I #
loop $-1 $-1 $135 $36 #
coedge $-1 $85 $85 $136 $137 reversed $53 $-1 #
face $-1 $138 $139 $29 $-1 $140 reversed single #
loop $-1 $-1 $141 $55 #
plane-surface $-1 95.699081330474314 13.426349413435108 182.71228727058497 0 1 0 0.81915205242281985 0 0.57357642473473569 forward_v I I I I #
coedge $-1 $142 $143 $144 $145 reversed $56 $-1 #
face $-1 $-1 $146 $30 $-1 $147 forward single #
loop $-1 $148 $149 $58 #
cone-surface $-1 61.475721346667683 17.045750930663512 5.6271980953069214 -0.81915205242281985 0 -0.57357642473473569 0.14339410618368392 0 -0.20478801310570496 1 I I -0.70710678118654746 0.70710678118654746 0.25 forward I I I I #
loop $-1 $-1 $150 $38 #
coedge $-1 $94 $94 $151 $152 reversed $59 $-1 #
face $-1 $-1 $153 $31 $-1 $154 forward single #
loop $-1 $155 $156 $61 #
cone-surface $-1 61.475721346667683 22.474853206506122 5.6271980953069214 -0.81915205242281985 0 -0.57357642473473569 0.14339410618368392 0 -0.20478801310570496 1 I I -0.70710678118654746 0.70710678118654746 0.25 forward I I I I #
loop $-1 $-1 $157 $39 #
coedge $-1 $99 $99 $158 $159 reversed $62 $-1 #
face $-1 $160 $161 $24 $-1 $162 reversed single #
loop $-1 $-1 $163 $64 #
plane-surface $-1 0 -26.094254723734519 0 0 1 0 0 0 1 forward_v I I I I #
coedge $-1 $164 $165 $166 $167 forward $65 $-1 #
coedge $-1 $168 $67 $169 $170 forward $41 $-1 #
coedge $-1 $67 $168 $171 $172 forward $41 $-1 #
coedge $-1 $173 $174 $67 $107 reversed $175 $-1 #
edge $-1 $176 -26.094254723734519 $177 26.094254723734519 $106 $178 forward 7 unknown #
face $-1 $179 $180 $25 $-1 $181 reversed single #
loop $-1 $-1 $182 $68 #
plane-surface $-1 0 -18.481936284632113 3.773784915870225 0 -1 0 0 0 -1 forward_v I I I I #
coedge $-1 $183 $184 $185 $186 reversed $69 $-1 #
coedge $-1 $187 $71 $188 $189 forward $44 $-1 #
coedge $-1 $71 $187 $190 $191 reversed $44 $-1 #
coedge $-1 $192 $193 $71 $115 forward $194 $-1 #
edge $-1 $195 7.3378885325404539 $196 14.950206971642864 $114 $197 forward 7 unknown #
face $-1 $198 $199 $26 $-1 $200 reversed single #
loop $-1 $-1 $122 $72 #
plane-surface $-1 0 0 8.7410616816958271 0 0 1 1 0 0 forward_v I I I I #
coedge $-1 $201 $202 $203 $204 reversed $73 $-1 #
coedge $-1 $121 $75 $205 $206 reversed $47 $-1 #
coedge $-1 $75 $120 $201 $207 reversed $47 $-1 #
coedge $-1 $203 $208 $75 $123 forward $117 $-1 #
edge $-1 $209 20.482535297128095 $210 23.839180367263715 $122 $211 forward 7 unknown #
loop $-1 $-1 $129 $76 #
plane-surface $-1 -64.177983947264011 19.760302068584817 3.947275570754897 -0.81915205242281985 0 0.57357642473473569 0.57357642473473569 0 0.81915205242281985 forward_v I I I I #
loop $-1 $-1 $212 $49 #
coedge $-1 $127 $127 $128 $213 reversed $77 $-1 #
coedge $-1 $128 $128 $127 $213 forward $79 $-1 #
coedge $-1 $129 $129 $80 $130 forward $124 $-1 #
edge $-1 $214 0 $214 6.2831853071796004 $129 $215 forward 7 unknown #
loop $-1 $-1 $136 $81 #
plane-surface $-1 -64.177983947264011 19.760302068584817 3.947275570754897 -0.81915205242281985 0 0.57357642473473569 0.57357642473473569 0 0.81915205242281985 forward_v I I I I #
loop $-1 $-1 $216 $52 #
coedge $-1 $134 $134 $135 $217 reversed $82 $-1 #
coedge $-1 $135 $135 $134 $217 forward $84 $-1 #
coedge $-1 $136 $136 $85 $137 forward $131 $-1 #
edge $-1 $218 0 $218 6.2831853071796004 $136 $219 forward 7 unknown #
face $-1 $220 $221 $29 $-1 $222 forward single #
loop $-1 $-1 $223 $86 #
plane-surface $-1 64.177983947264011 0 0 -1 0 0 0 0 1 forward_v I I I I #
coedge $-1 $224 $225 $226 $227 reversed $87 $-1 #
coedge $-1 $228 $89 $229 $230 reversed $56 $-1 #
coedge $-1 $89 $228 $224 $231 forward $56 $-1 #
coedge $-1 $226 $232 $89 $145 forward $221 $-1 #
edge $-1 $233 -16.214103689442119 $234 -3.5461983791426999 $144 $235 forward 7 unknown #
loop $-1 $-1 $151 $90 #
plane-surface $-1 -9.4439732110458863 19.760302068584817 109.09033011227507 0.81915205242281985 0 0.57357642473473569 0.57357642473473569 0 -0.81915205242281985 forward_v I I I I #
loop $-1 $-1 $236 $58 #
coedge $-1 $149 $149 $150 $237 reversed $91 $-1 #
coedge $-1 $150 $150 $149 $237 forward $93 $-1 #
coedge $-1 $151 $151 $94 $152 forward $146 $-1 #
edge $-1 $238 0 $238 6.2831853071796004 $151 $239 forward 7 unknown #
loop $-1 $-1 $158 $95 #
plane-surface $-1 -9.4439732110458863 19.760302068584817 109.09033011227507 0.81915205242281985 0 0.57357642473473569 0.57357642473473569 0 -0.81915205242281985 forward_v I I I I #
loop $-1 $-1 $240 $61 #
coedge $-1 $156 $156 $157 $241 reversed $96 $-1 #
coedge $-1 $157 $157 $156 $241 forward $98 $-1 #
coedge $-1 $158 $158 $99 $159 forward $153 $-1 #
edge $-1 $242 0 $242 6.2831853071796004 $158 $243 forward 7 unknown #
face $-1 $244 $245 $24 $-1 $246 reversed single #
loop $-1 $-1 $247 $100 #
plane-surface $-1 -64.177983947264011 0 0 1 0 0 0 0 -1 forward_v I I I I #
coedge $-1 $248 $171 $249 $250 forward $101 $-1 #
coedge $-1 $251 $103 $248 $252 forward $65 $-1 #
coedge $-1 $103 $251 $253 $254 forward $65 $-1 #
coedge $-1 $174 $173 $103 $167 reversed $175 $-1 #
edge $-1 $255 -26.094254723734519 $256 26.094254723734519 $166 $257 forward 7 unknown #
coedge $-1 $105 $104 $258 $259 forward $41 $-1 #
coedge $-1 $260 $261 $104 $170 reversed $245 $-1 #
edge $-1 $177 -64.177983947264011 $262 64.177983947264011 $169 $263 forward 7 unknown #
coedge $-1 $163 $264 $105 $172 reversed $101 $-1 #
edge $-1 $265 -64.177983947264011 $176 64.177983947264011 $171 $266 forward 7 unknown #
coedge $-1 $166 $106 $264 $267 forward $175 $-1 #
coedge $-1 $106 $166 $260 $268 reversed $175 $-1 #
loop $-1 $-1 $173 $244 #
vertex $-1 $107 $269 #
vertex $-1 $107 $270 #
straight-curve $-1 64.177983947264011 0 8.7410616816958271 0 1 0 I I #
face $-1 $271 $272 $25 $-1 $273 reversed single #
loop $-1 $-1 $274 $108 #
plane-surface $-1 -64.177983947264011 0 0 1 0 0 0 0 -1 forward_v I I I I #
coedge $-1 $275 $188 $193 $276 reversed $109 $-1 #
coedge $-1 $277 $111 $278 $279 reversed $69 $-1 #
coedge $-1 $111 $277 $275 $280 forward $69 $-1 #
coedge $-1 $193 $192 $111 $186 forward $194 $-1 #
edge $-1 $281 -14.950206971642864 $282 -7.3378885325404539 $185 $283 forward 7 unknown #
coedge $-1 $113 $112 $274 $284 reversed $44 $-1 #
coedge $-1 $182 $285 $112 $189 reversed $109 $-1 #
edge $-1 $195 -64.177983947264011 $286 64.177983947264011 $188 $287 forward 7 unknown #
coedge $-1 $288 $289 $113 $191 forward $272 $-1 #
edge $-1 $196 -64.177983947264011 $290 64.177983947264011 $190 $291 forward 7 unknown #
coedge $-1 $185 $114 $289 $292 forward $194 $-1 #
coedge $-1 $114 $185 $182 $276 forward $194 $-1 #
loop $-1 $-1 $114 $271 #
vertex $-1 $115 $293 #
vertex $-1 $292 $294 #
straight-curve $-1 64.177983947264011 -11.144047752091659 5.273784915870225 0 -1 0 I I #
face $-1 $-1 $295 $26 $-1 $296 reversed single #
loop $-1 $-1 $297 $116 #
plane-surface $-1 0 26.094254723734519 0 0 -1 0 0 0 -1 forward_v I I I I #
coedge $-1 $298 $119 $121 $207 forward $73 $-1 #
coedge $-1 $119 $298 $297 $299 reversed $73 $-1 #
coedge $-1 $300 $122 $119 $204 forward $117 $-1 #
edge $-1 $210 3.5461983791426999 $301 16.214103689442119 $203 $302 forward 7 unknown #
coedge $-1 $303 $304 $120 $206 forward $295 $-1 #
edge $-1 $305 -34.8373407937775 $209 -30.043554682836572 $205 $306 forward 7 unknown #
edge $-1 $210 -5.8521322100851361 $305 0 $121 $307 forward 7 unknown #
coedge $-1 $122 $300 $303 $308 forward $117 $-1 #
vertex $-1 $206 $309 #
vertex $-1 $123 $310 #
straight-curve $-1 -84.660519244392106 13.426349413435108 8.7410616816958253 1 0 0 I I #
coedge $-1 $212 $212 $-1 $311 reversed $126 $-1 #
edge $-1 $312 0 $312 6.2831853071796004 $127 $313 forward 7 unknown #
vertex $-1 $130 $314 #
ellipse-curve $-1 -62.499661412196204 17.045750930663512 6.3441686262253603 -0.81915205242281985 0 0.57357642473473569 0.28678821236736785 0 0.40957602621140993 1 I I #
coedge $-1 $216 $216 $-1 $315 reversed $133 $-1 #
edge $-1 $316 0 $316 6.2831853071796004 $134 $317 forward 7 unknown #
vertex $-1 $137 $318 #
ellipse-curve $-1 -62.499661412196204 22.474853206506122 6.3441686262253603 -0.81915205242281985 0 0.57357642473473569 0.28678821236736785 0 0.40957602621140993 1 I I #
face $-1 $-1 $319 $29 $-1 $320 reversed single #
loop $-1 $-1 $226 $138 #
plane-surface $-1 0 0 8.7410616816958271 0 0 1 1 0 0 forward_v I I I I #
coedge $-1 $321 $322 $225 $323 forward $139 $-1 #
coedge $-1 $225 $141 $143 $231 reversed $87 $-1 #
coedge $-1 $141 $224 $223 $323 reversed $87 $-1 #
coedge $-1 $324 $144 $141 $227 forward $221 $-1 #
edge $-1 $234 12.971798211891226 $325 16.328443282026853 $226 $326 forward 7 unknown #
coedge $-1 $143 $142 $321 $327 reversed $56 $-1 #
coedge $-1 $328 $329 $142 $230 forward $319 $-1 #
edge $-1 $330 -80.966763794210337 $233 -75.114631584125178 $229 $331 forward 7 unknown #
edge $-1 $332 -128.35596789452802 $234 -122.50383568444286 $224 $333 forward 7 unknown #
coedge $-1 $144 $324 $328 $334 forward $221 $-1 #
vertex $-1 $230 $335 #
vertex $-1 $145 $336 #
straight-curve $-1 60.821338877128383 9.8801510342924086 8.7410616816958253 0 -1 0 I I #
coedge $-1 $236 $236 $-1 $337 reversed $148 $-1 #
edge $-1 $338 0 $338 6.2831853071796004 $149 $339 forward 7 unknown #
vertex $-1 $152 $340 #
ellipse-curve $-1 62.499661412196211 17.045750930663512 6.3441686262253407 0.81915205242281985 0 0.57357642473473569 0.28678821236736785 0 -0.40957602621140993 1 I I #
coedge $-1 $240 $240 $-1 $341 reversed $155 $-1 #
edge $-1 $342 0 $342 6.2831853071796004 $156 $343 forward 7 unknown #
vertex $-1 $159 $344 #
ellipse-curve $-1 62.499661412196211 22.474853206506122 6.3441686262253407 0.81915205242281985 0 0.57357642473473569 0.28678821236736785 0 -0.40957602621140993 1 I I #
face $-1 $-1 $175 $24 $-1 $345 reversed single #
loop $-1 $-1 $260 $160 #
plane-surface $-1 0 26.094254723734519 0 0 -1 0 0 0 -1 forward_v I I I I #
coedge $-1 $346 $258 $261 $347 forward $161 $-1 #
coedge $-1 $264 $163 $164 $252 reversed $101 $-1 #
coedge $-1 $258 $346 $163 $250 reversed $161 $-1 #
edge $-1 $265 -8.7410616816958271 $348 8.7410616816958271 $249 $349 forward 7 unknown #
coedge $-1 $165 $164 $346 $350 forward $65 $-1 #
edge $-1 $256 -64.177983947264011 $348 64.177983947264011 $248 $351 forward 7 unknown #
coedge $-1 $261 $260 $165 $254 reversed $245 $-1 #
edge $-1 $352 -64.177983947264011 $255 64.177983947264011 $253 $353 forward 7 unknown #
vertex $-1 $167 $354 #
vertex $-1 $267 $355 #
straight-curve $-1 64.177983947264011 0 -8.7410616816958271 0 -1 0 I I #
coedge $-1 $247 $249 $168 $259 reversed $161 $-1 #
edge $-1 $262 -26.094254723734519 $265 26.094254723734519 $258 $356 forward 7 unknown #
coedge $-1 $253 $169 $174 $268 forward $245 $-1 #
coedge $-1 $169 $253 $247 $347 reversed $245 $-1 #
vertex $-1 $170 $357 #
straight-curve $-1 0 26.094254723734519 8.7410616816958271 -1 0 0 I I #
coedge $-1 $171 $248 $173 $267 reversed $101 $-1 #
vertex $-1 $259 $358 #
straight-curve $-1 0 -26.094254723734519 8.7410616816958271 1 0 0 I I #
edge $-1 $176 -8.7410616816958271 $256 8.7410616816958271 $173 $359 forward 7 unknown #
edge $-1 $177 -8.7410616816958271 $255 8.7410616816958271 $174 $360 forward 7 unknown #
point $-1 64.177983947264011 -26.094254723734519 8.7410616816958271 #
point $-1 64.177983947264011 26.094254723734519 8.7410616816958271 #
face $-1 $-1 $194 $25 $-1 $361 reversed single #
loop $-1 $-1 $190 $179 #
plane-surface $-1 0 -26.094254723734519 0 0 1 0 0 0 1 forward_v I I I I #
coedge $-1 $362 $363 $187 $284 forward $180 $-1 #
coedge $-1 $285 $182 $184 $280 reversed $109 $-1 #
edge $-1 $282 0.38689245793511251 $195 3.3868924579351125 $193 $364 forward 7 unknown #
coedge $-1 $184 $183 $365 $366 reversed $69 $-1 #
coedge $-1 $289 $288 $183 $279 forward $272 $-1 #
edge $-1 $367 -64.177983947264011 $281 64.177983947264011 $278 $368 forward 7 unknown #
edge $-1 $369 -64.177983947264011 $282 64.177983947264011 $275 $370 forward 7 unknown #
vertex $-1 $279 $371 #
vertex $-1 $186 $372 #
straight-curve $-1 64.177983947264011 -11.144047752091659 2.273784915870225 0 1 0 I I #
edge $-1 $290 -14.950206971642864 $286 -7.3378885325404539 $274 $373 forward 7 unknown #
coedge $-1 $188 $275 $362 $374 reversed $109 $-1 #
vertex $-1 $284 $375 #
straight-curve $-1 0 -18.481936284632113 5.273784915870225 -1 0 0 I I #
coedge $-1 $278 $190 $363 $376 forward $272 $-1 #
coedge $-1 $190 $278 $192 $292 reversed $272 $-1 #
vertex $-1 $376 $377 #
straight-curve $-1 0 -26.094254723734519 5.273784915870225 -1 0 0 I I #
edge $-1 $196 -5.273784915870225 $281 -2.273784915870225 $192 $378 forward 7 unknown #
point $-1 64.177983947264011 -18.481936284632113 5.273784915870225 #
point $-1 64.177983947264011 -26.094254723734522 5.273784915870225 #
loop $-1 $-1 $205 $198 #
plane-surface $-1 -64.177983947264011 0 0 1 0 0 0 0 -1 forward_v I I I I #
coedge $-1 $379 $380 $202 $299 forward $199 $-1 #
coedge $-1 $202 $201 $304 $381 reversed $73 $-1 #
edge $-1 $301 10.936647636861174 $382 16.788779846946309 $297 $383 forward 7 unknown #
coedge $-1 $208 $203 $380 $384 forward $117 $-1 #
vertex $-1 $384 $385 #
straight-curve $-1 -60.821338877128397 9.8801510342924086 8.7410616816958271 0 1 0 I I #
coedge $-1 $386 $205 $208 $308 reversed $295 $-1 #
coedge $-1 $205 $386 $298 $381 forward $295 $-1 #
vertex $-1 $206 $387 #
straight-curve $-1 -64.177983947264011 13.426349413435108 38.784616364532397 0 0 1 I I #
straight-curve $-1 -64.177983947264011 13.426349413435108 3.947275570754897 -0.57357642473473569 0 -0.81915205242281985 I I #
edge $-1 $388 -26.094254723734519 $209 -13.426349413435108 $303 $389 forward 7 unknown #
point $-1 -64.177983947264011 13.426349413435108 8.7410616816958271 #
point $-1 -60.82133887712839 13.426349413435108 8.7410616816958271 #
edge $-1 $390 1 $390 0 $212 $-1 forward 7 unknown #
vertex $-1 $213 $391 #
ellipse-curve $-1 -61.680509359773374 17.045750930663512 5.7705922014906195 -0.81915205242281985 0 0.57357642473473569 0.28678821236736785 0 0.40957602621140993 1 I I #
point $-1 -62.212873199828827 17.045750930663512 6.7537446524367653 #
edge $-1 $392 1 $392 0 $216 $-1 forward 7 unknown #
vertex $-1 $217 $393 #
ellipse-curve $-1 -61.680509359773374 22.474853206506122 5.7705922014906195 -0.81915205242281985 0 0.57357642473473569 0.28678821236736785 0 0.40957602621140993 1 I I #
point $-1 -62.212873199828827 22.474853206506122 6.7537446524367653 #
loop $-1 $-1 $229 $220 #
plane-surface $-1 0 26.094254723734519 0 0 -1 0 0 0 -1 forward_v I I I I #
coedge $-1 $394 $223 $228 $327 forward $139 $-1 #
coedge $-1 $223 $394 $324 $395 reversed $139 $-1 #
edge $-1 $325 82.615081953596658 $332 87.408868064537614 $223 $396 forward 7 unknown #
coedge $-1 $232 $226 $322 $395 forward $221 $-1 #
vertex $-1 $395 $397 #
straight-curve $-1 47.849540665237157 13.426349413435108 8.7410616816958253 1 0 0 I I #
edge $-1 $332 3.5461983791426999 $330 16.214103689442119 $321 $398 forward 7 unknown #
coedge $-1 $329 $229 $232 $334 reversed $319 $-1 #
coedge $-1 $229 $328 $394 $399 forward $319 $-1 #
vertex $-1 $230 $400 #
straight-curve $-1 17.737357047839012 26.094254723734519 70.271366310815921 -0.57357642473473569 0 0.81915205242281985 I I #
vertex $-1 $327 $401 #
straight-curve $-1 -9.4439732110458863 13.426349413435108 109.09033011227507 -0.57357642473473569 0 0.81915205242281985 I I #
edge $-1 $402 -64.177983947264011 $233 -60.821338877128383 $328 $403 forward 7 unknown #
point $-1 60.821338877128383 26.094254723734526 8.7410616816958253 #
point $-1 60.821338877128383 13.426349413435108 8.7410616816958253 #
edge $-1 $404 1 $404 0 $236 $-1 forward 7 unknown #
vertex $-1 $237 $405 #
ellipse-curve $-1 61.680509359773389 17.045750930663512 5.7705922014906053 0.81915205242281985 0 0.57357642473473569 0.28678821236736785 0 -0.40957602621140993 1 I I #
point $-1 62.786449624563573 17.045750930663512 5.9345926000139313 #
edge $-1 $406 1 $406 0 $240 $-1 forward 7 unknown #
vertex $-1 $241 $407 #
ellipse-curve $-1 61.680509359773389 22.474853206506122 5.7705922014906053 0.81915205242281985 0 0.57357642473473569 0.28678821236736785 0 -0.40957602621140993 1 I I #
point $-1 62.786449624563573 22.474853206506122 5.9345926000139313 #
plane-surface $-1 64.177983947264011 0 0 -1 0 0 0 0 1 forward_v I I I I #
coedge $-1 $249 $247 $251 $350 reversed $161 $-1 #
edge $-1 $262 -8.7410616816958271 $352 8.7410616816958271 $261 $408 forward 7 unknown #
vertex $-1 $350 $409 #
straight-curve $-1 -64.177983947264011 -26.094254723734519 0 0 0 -1 I I #
edge $-1 $348 -26.094254723734519 $352 26.094254723734519 $346 $410 forward 7 unknown #
straight-curve $-1 0 -26.094254723734519 -8.7410616816958271 -1 0 0 I I #
vertex $-1 $254 $411 #
straight-curve $-1 0 26.094254723734519 -8.7410616816958271 1 0 0 I I #
point $-1 64.177983947264011 26.094254723734519 -8.7410616816958271 #
point $-1 64.177983947264011 -26.094254723734519 -8.7410616816958271 #
straight-curve $-1 -64.177983947264011 0 8.7410616816958271 0 -1 0 I I #
point $-1 -64.177983947264011 26.094254723734519 8.7410616816958271 #
point $-1 -64.177983947264011 -26.094254723734519 8.7410616816958271 #
straight-curve $-1 64.177983947264011 -26.094254723734519 0 0 0 -1 I I #
straight-curve $-1 64.177983947264011 26.094254723734519 0 0 0 -1 I I #
plane-surface $-1 64.177983947264011 0 0 -1 0 0 0 0 1 forward_v I I I I #
coedge $-1 $365 $274 $285 $374 forward $180 $-1 #
coedge $-1 $274 $365 $288 $376 reversed $180 $-1 #
straight-curve $-1 64.177983947264011 -18.481936284632113 1.8868924579351125 0 0 1 I I #
coedge $-1 $363 $362 $277 $366 forward $180 $-1 #
edge $-1 $369 7.3378885325404539 $367 14.950206971642864 $365 $412 forward 7 unknown #
vertex $-1 $279 $413 #
straight-curve $-1 0 -26.094254723734519 2.273784915870225 1 0 0 I I #
vertex $-1 $366 $414 #
straight-curve $-1 0 -18.481936284632113 2.273784915870225 1 0 0 I I #
point $-1 64.177983947264011 -26.094254723734522 2.273784915870225 #
point $-1 64.177983947264011 -18.481936284632113 2.273784915870225 #
straight-curve $-1 -64.177983947264011 -11.144047752091659 5.273784915870225 0 1 0 I I #
edge $-1 $286 -3.3868924579351125 $369 -0.38689245793511251 $362 $415 forward 7 unknown #
point $-1 -64.177983947264011 -18.481936284632113 5.273784915870225 #
edge $-1 $290 -5.273784915870225 $367 -2.273784915870225 $363 $416 forward 7 unknown #
point $-1 -64.177983947264011 -26.094254723734522 5.273784915870225 #
straight-curve $-1 64.177983947264011 -26.094254723734519 0 0 0 -1 I I #
coedge $-1 $380 $297 $386 $417 reversed $199 $-1 #
coedge $-1 $297 $379 $300 $384 reversed $199 $-1 #
edge $-1 $382 -16.214103689442119 $305 -3.5461983791426999 $304 $418 forward 7 unknown #
vertex $-1 $299 $419 #
straight-curve $-1 -54.548335626993968 26.094254723734519 17.699839040055842 -0.57357642473473569 0 -0.81915205242281985 I I #
edge $-1 $301 60.82133887712839 $388 64.177983947264011 $380 $420 forward 7 unknown #
point $-1 -60.82133887712839 26.094254723734526 8.7410616816958271 #
coedge $-1 $304 $303 $379 $417 forward $295 $-1 #
point $-1 -64.177983947264011 13.426349413435108 3.947275570754897 #
vertex $-1 $384 $421 #
straight-curve $-1 -64.177983947264011 0 8.7410616816958271 0 -1 0 I I #
vertex $-1 $311 $422 #
point $-1 -61.393721147406005 17.045750930663512 6.1801682277020298 #
vertex $-1 $315 $423 #
point $-1 -61.393721147406005 22.474853206506122 6.1801682277020298 #
coedge $-1 $322 $321 $329 $399 reversed $139 $-1 #
edge $-1 $325 13.426349413435108 $402 26.094254723734519 $322 $424 forward 7 unknown #
straight-curve $-1 64.177983947264011 13.426349413435108 91.356143635292483 0 0 -1 I I #
point $-1 64.177983947264011 13.426349413435108 8.7410616816958271 #
straight-curve $-1 64.177983947264011 9.8801510342924086 3.9472755707548615 0 1 0 I I #
edge $-1 $402 -8.7410616816958271 $330 -3.9472755707548686 $394 $425 forward 7 unknown #
point $-1 64.177983947264011 26.094254723734526 3.9472755707548686 #
point $-1 64.177983947264011 13.426349413435108 3.9472755707548686 #
vertex $-1 $395 $426 #
straight-curve $-1 0 26.094254723734519 8.7410616816958271 -1 0 0 I I #
vertex $-1 $337 $427 #
point $-1 61.967297572140758 17.045750930663512 5.3610161752791949 #
vertex $-1 $341 $428 #
point $-1 61.967297572140758 22.474853206506122 5.3610161752791949 #
straight-curve $-1 -64.177983947264011 26.094254723734519 0 0 0 -1 I I #
point $-1 -64.177983947264011 -26.094254723734519 -8.7410616816958271 #
straight-curve $-1 -64.177983947264011 0 -8.7410616816958271 0 1 0 I I #
point $-1 -64.177983947264011 26.094254723734519 -8.7410616816958271 #
straight-curve $-1 -64.177983947264011 -11.144047752091659 2.273784915870225 0 -1 0 I I #
point $-1 -64.177983947264011 -26.094254723734522 2.273784915870225 #
point $-1 -64.177983947264011 -18.481936284632113 2.273784915870225 #
straight-curve $-1 -64.177983947264011 -18.481936284632113 1.8868924579351125 0 0 -1 I I #
straight-curve $-1 -64.177983947264011 -26.094254723734519 0 0 0 -1 I I #
edge $-1 $388 -8.7410616816958271 $382 -3.947275570754897 $379 $429 forward 7 unknown #
straight-curve $-1 -64.177983947264011 9.8801510342924086 3.9472755707549068 0 -1 0 I I #
point $-1 -64.177983947264011 26.094254723734526 3.947275570754897 #
straight-curve $-1 0 26.094254723734519 8.7410616816958271 -1 0 0 I I #
point $-1 -64.177983947264011 26.094254723734519 8.7410616816958271 #
point $-1 -61.270933333561963 17.045750930663512 5.4838039891232517 #
point $-1 -61.270933333561963 22.474853206506122 5.4838039891232517 #
straight-curve $-1 64.177983947264011 0 8.7410616816958271 0 1 0 I I #
straight-curve $-1 64.177983947264011 26.094254723734519 0 0 0 -1 I I #
point $-1 64.177983947264011 26.094254723734519 8.7410616816958271 #
point $-1 61.270933333561977 17.045750930663512 5.4838039891232375 #
point $-1 61.270933333561977 22.474853206506122 5.4838039891232375 #
straight-curve $-1 -64.177983947264011 26.094254723734519 0 0 0 -1 I I #
End-of-ACIS-data 