500 0 8 0           
7 Unknown 11 ACIS 5.0 NT 24 Fri Mar 26 03:25:37 1999 
-1 9.9999999999999995e-007 1e-010 
body $-1 $8 $-1 $9 #
body $-1 $10 $-1 $11 #
body $-1 $12 $-1 $13 #
body $-1 $14 $-1 $15 #
body $-1 $16 $-1 $17 #
body $-1 $18 $-1 $19 #
body $-1 $20 $-1 $21 #
body $-1 $22 $-1 $23 #
lump $-1 $-1 $24 $0 #
transform $-1 1 0 0 0 1 0 0 0 1 71.631824701681566 38.842344374431832 12.136587860003829 1 rotate no_reflect no_shear #
lump $-1 $-1 $25 $1 #
transform $-1 1 0 0 0 1 0 0 0 1 71.631824701681566 38.842344374431832 12.136587860003829 1 rotate no_reflect no_shear #
lump $-1 $-1 $26 $2 #
transform $-1 1 0 0 0 1 0 0 0 1 71.631824701681566 38.842344374431832 12.136587860003829 1 rotate no_reflect no_shear #
lump $-1 $-1 $27 $3 #
transform $-1 1 0 0 0 1 0 0 0 1 71.631824701681566 38.842344374431832 12.136587860003829 1 rotate no_reflect no_shear #
lump $-1 $-1 $28 $4 #
transform $-1 1 0 0 0 1 0 0 0 1 71.631824701681566 38.842344374431832 12.136587860003829 1 rotate no_reflect no_shear #
lump $-1 $-1 $29 $5 #
transform $-1 1 0 0 0 1 0 0 0 1 71.631824701681566 38.842344374431832 12.136587860003829 1 rotate no_reflect no_shear #
lump $-1 $-1 $30 $6 #
transform $-1 1 0 0 0 1 0 0 0 1 71.631824701681566 38.842344374431832 12.136587860003829 1 rotate no_reflect no_shear #
lump $-1 $-1 $31 $7 #
transform $-1 1 0 0 0 1 0 0 0 1 71.631824701681566 38.842344374431832 12.136587860003829 1 rotate no_reflect no_shear #
shell $-1 $-1 $-1 $32 $-1 $8 #
shell $-1 $-1 $-1 $33 $-1 $10 #
shell $-1 $-1 $-1 $34 $-1 $12 #
shell $-1 $-1 $-1 $35 $-1 $14 #
shell $-1 $-1 $-1 $36 $-1 $16 #
shell $-1 $-1 $-1 $37 $-1 $18 #
shell $-1 $-1 $-1 $38 $-1 $20 #
shell $-1 $-1 $-1 $39 $-1 $22 #
face $-1 $40 $41 $24 $-1 $42 reversed single #
face $-1 $43 $44 $25 $-1 $45 forward single #
face $-1 $46 $47 $26 $-1 $48 reversed single #
face $-1 $49 $50 $27 $-1 $51 forward single #
face $-1 $52 $53 $28 $-1 $54 forward single #
face $-1 $55 $56 $29 $-1 $57 reversed single #
face $-1 $58 $59 $30 $-1 $60 forward single #
face $-1 $61 $62 $31 $-1 $63 forward single #
face $-1 $64 $65 $24 $-1 $66 forward single #
loop $-1 $-1 $67 $32 #
plane-surface $-1 -71.631824701681566 0 0 1 0 0 0 0 -1 forward_v I I I I #
face $-1 $68 $69 $25 $-1 $70 reversed single #
loop $-1 $-1 $71 $33 #
plane-surface $-1 -71.631824701681566 0 0 1 0 0 0 0 -1 forward_v I I I I #
face $-1 $72 $73 $26 $-1 $74 reversed single #
loop $-1 $-1 $75 $34 #
plane-surface $-1 2.1358672247097559 98.653913465058679 155.32074877692537 1 0 0 0 -0.7660444514056185 -0.64278759981090561 forward_v I I I I #
face $-1 $76 $77 $27 $-1 $78 forward single #
loop $-1 $79 $80 $35 #
cone-surface $-1 13.020248511915909 33.839234916433391 6.6936000700901221 0 -0.7660444514056185 -0.64278759981090561 1.5 0 0 1 I I 0 1 1.5 forward I I I I #
face $-1 $81 $82 $28 $-1 $83 forward single #
loop $-1 $84 $85 $36 #
cone-surface $-1 29.346820442725146 33.839234916433391 6.6936000700901221 0 -0.7660444514056185 -0.64278759981090561 1.5 0 0 1 I I 0 1 1.5 forward I I I I #
face $-1 $86 $87 $29 $-1 $88 reversed single #
loop $-1 $-1 $89 $37 #
plane-surface $-1 40.231201729931314 -148.58866808799803 95.810824001685901 -1 0 0 0 -0.7660444514056185 0.64278759981090561 forward_v I I I I #
face $-1 $90 $91 $30 $-1 $92 forward single #
loop $-1 $93 $94 $38 #
cone-surface $-1 13.020248511915909 -33.839234916433384 6.6936000700901221 0 0.7660444514056185 -0.64278759981090561 1.5 0 0 1 I I 0 1 1.5 forward I I I I #
face $-1 $95 $96 $31 $-1 $97 forward single #
loop $-1 $98 $99 $39 #
cone-surface $-1 29.346820442725146 -33.839234916433384 6.6936000700901221 0 0.7660444514056185 -0.64278759981090561 1.5 0 0 1 I I 0 1 1.5 forward I I I I #
face $-1 $100 $101 $24 $-1 $102 reversed single #
loop $-1 $-1 $103 $40 #
plane-surface $-1 0 0 12.136587860003829 0 0 1 1 0 0 forward_v I I I I #
coedge $-1 $104 $105 $106 $107 reversed $41 $-1 #
face $-1 $108 $109 $25 $-1 $110 reversed single #
loop $-1 $-1 $111 $43 #
plane-surface $-1 0 0 -12.136587860003829 0 0 1 1 0 0 forward_v I I I I #
coedge $-1 $112 $113 $114 $115 forward $44 $-1 #
face $-1 $116 $117 $26 $-1 $118 reversed single #
loop $-1 $-1 $119 $46 #
plane-surface $-1 21.183534477320535 -11.092410248507491 63.232651436786497 0 0.7660444514056185 0.64278759981090561 1 0 0 forward_v I I I I #
coedge $-1 $120 $121 $122 $123 reversed $47 $-1 #
face $-1 $-1 $124 $27 $-1 $125 forward single #
loop $-1 $126 $127 $49 #
cone-surface $-1 13.020248511915909 31.791625941661181 4.9754521795466431 0 -0.7660444514056185 -0.64278759981090561 0.75 0 0 1 I I -0.70710678118654757 0.70710678118654757 0.75 forward I I I I #
loop $-1 $-1 $128 $35 #
coedge $-1 $80 $80 $129 $130 reversed $50 $-1 #
face $-1 $-1 $131 $28 $-1 $132 forward single #
loop $-1 $133 $134 $52 #
cone-surface $-1 29.346820442725146 31.791625941661181 4.9754521795466431 0 -0.7660444514056185 -0.64278759981090561 0.75 0 0 1 I I -0.70710678118654757 0.70710678118654757 0.75 forward I I I I #
loop $-1 $-1 $135 $36 #
coedge $-1 $85 $85 $136 $137 reversed $53 $-1 #
face $-1 $138 $139 $29 $-1 $140 reversed single #
loop $-1 $-1 $141 $55 #
plane-surface $-1 21.183534477320535 -38.84234437443186 3.7227266615470285 0 -0.7660444514056185 0.64278759981090561 1 0 0 forward_v I I I I #
coedge $-1 $142 $143 $144 $145 reversed $56 $-1 #
face $-1 $-1 $146 $30 $-1 $147 forward single #
loop $-1 $148 $149 $58 #
cone-surface $-1 13.020248511915909 -31.791625941661174 4.9754521795466431 0 0.7660444514056185 -0.64278759981090561 0.75 0 0 1 I I -0.70710678118654757 0.70710678118654757 0.75 forward I I I I #
loop $-1 $-1 $150 $38 #
coedge $-1 $94 $94 $151 $152 reversed $59 $-1 #
face $-1 $-1 $153 $31 $-1 $154 forward single #
loop $-1 $155 $156 $61 #
cone-surface $-1 29.346820442725146 -31.791625941661174 4.9754521795466431 0 0.7660444514056185 -0.64278759981090561 0.75 0 0 1 I I -0.70710678118654757 0.70710678118654757 0.75 forward I I I I #
loop $-1 $-1 $157 $39 #
coedge $-1 $99 $99 $158 $159 reversed $62 $-1 #
face $-1 $160 $161 $24 $-1 $162 reversed single #
loop $-1 $-1 $163 $64 #
plane-surface $-1 0 0 -12.136587860003829 0 0 1 1 0 0 forward_v I I I I #
coedge $-1 $164 $165 $166 $167 forward $65 $-1 #
coedge $-1 $168 $67 $169 $170 reversed $41 $-1 #
coedge $-1 $67 $168 $171 $172 forward $41 $-1 #
coedge $-1 $173 $174 $67 $107 forward $101 $-1 #
edge $-1 $175 -38.842344374431832 $176 38.842344374431832 $67 $177 forward 7 unknown #
face $-1 $178 $179 $25 $-1 $180 reversed single #
loop $-1 $-1 $181 $68 #
plane-surface $-1 -76.183384056556022 -19.651235201073685 0 0 1 0 0 0 1 forward_v I I I I #
coedge $-1 $182 $183 $113 $184 forward $69 $-1 #
coedge $-1 $185 $71 $186 $187 reversed $44 $-1 #
coedge $-1 $71 $185 $111 $184 reversed $44 $-1 #
coedge $-1 $188 $189 $71 $115 reversed $190 $-1 #
edge $-1 $191 -12.136587860003829 $192 12.136587860003829 $114 $193 forward 7 unknown #
face $-1 $194 $195 $26 $-1 $196 forward single #
loop $-1 $-1 $197 $72 #
plane-surface $-1 40.231201729931314 98.653913465058679 155.32074877692537 -1 0 0 0 0.7660444514056185 0.64278759981090561 forward_v I I I I #
coedge $-1 $198 $199 $200 $201 reversed $73 $-1 #
coedge $-1 $121 $75 $202 $203 reversed $47 $-1 #
coedge $-1 $75 $120 $198 $204 reversed $47 $-1 #
coedge $-1 $200 $205 $75 $123 forward $195 $-1 #
edge $-1 $206 10.484612358097507 $207 17.544680001658392 $122 $208 forward 7 unknown #
loop $-1 $-1 $129 $76 #
plane-surface $-1 21.183534477320535 -11.092410248507491 63.232651436786497 0 0.7660444514056185 0.64278759981090561 1 0 0 forward_v I I I I #
loop $-1 $-1 $209 $49 #
coedge $-1 $127 $127 $128 $210 reversed $77 $-1 #
coedge $-1 $128 $128 $127 $210 forward $79 $-1 #
coedge $-1 $129 $129 $80 $130 forward $124 $-1 #
edge $-1 $211 3.9520325982413845e-015 $211 6.283185307179604 $129 $212 forward 7 unknown #
loop $-1 $-1 $136 $81 #
plane-surface $-1 21.183534477320535 -11.092410248507491 63.232651436786497 0 0.7660444514056185 0.64278759981090561 1 0 0 forward_v I I I I #
loop $-1 $-1 $213 $52 #
coedge $-1 $134 $134 $135 $214 reversed $82 $-1 #
coedge $-1 $135 $135 $134 $214 forward $84 $-1 #
coedge $-1 $136 $136 $85 $137 forward $131 $-1 #
edge $-1 $215 3.9520325982413845e-015 $215 6.283185307179604 $136 $216 forward 7 unknown #
face $-1 $217 $218 $29 $-1 $219 forward single #
loop $-1 $-1 $220 $86 #
plane-surface $-1 2.1358672247097559 -148.58866808799803 95.810824001685901 1 0 0 0 0.7660444514056185 -0.64278759981090561 forward_v I I I I #
coedge $-1 $221 $222 $223 $224 reversed $87 $-1 #
coedge $-1 $143 $89 $225 $226 reversed $56 $-1 #
coedge $-1 $89 $142 $221 $227 reversed $56 $-1 #
coedge $-1 $223 $228 $89 $145 forward $218 $-1 #
edge $-1 $229 35.451989669567183 $230 42.512057313128039 $144 $231 forward 7 unknown #
loop $-1 $-1 $151 $90 #
plane-surface $-1 21.183534477320535 -38.84234437443186 3.7227266615470285 0 -0.7660444514056185 0.64278759981090561 1 0 0 forward_v I I I I #
loop $-1 $-1 $232 $58 #
coedge $-1 $149 $149 $150 $233 reversed $91 $-1 #
coedge $-1 $150 $150 $149 $233 forward $93 $-1 #
coedge $-1 $151 $151 $94 $152 forward $146 $-1 #
edge $-1 $234 -1.2979957771526842e-015 $234 6.2831853071795996 $151 $235 forward 7 unknown #
loop $-1 $-1 $158 $95 #
plane-surface $-1 21.183534477320535 -38.84234437443186 3.7227266615470285 0 -0.7660444514056185 0.64278759981090561 1 0 0 forward_v I I I I #
loop $-1 $-1 $236 $61 #
coedge $-1 $156 $156 $157 $237 reversed $96 $-1 #
coedge $-1 $157 $157 $156 $237 forward $98 $-1 #
coedge $-1 $158 $158 $99 $159 forward $153 $-1 #
edge $-1 $238 -1.2979957771526842e-015 $238 6.2831853071795996 $158 $239 forward 7 unknown #
face $-1 $240 $241 $24 $-1 $242 reversed single #
loop $-1 $-1 $169 $100 #
plane-surface $-1 0 -38.842344374431832 0 0 1 0 0 0 1 forward_v I I I I #
coedge $-1 $174 $173 $243 $244 forward $101 $-1 #
coedge $-1 $245 $103 $246 $247 forward $65 $-1 #
coedge $-1 $103 $245 $248 $249 forward $65 $-1 #
coedge $-1 $250 $251 $103 $167 reversed $252 $-1 #
edge $-1 $253 -38.842344374431832 $254 38.842344374431832 $166 $255 forward 7 unknown #
coedge $-1 $105 $104 $245 $256 reversed $41 $-1 #
coedge $-1 $257 $248 $104 $170 forward $161 $-1 #
edge $-1 $258 -12.136587860003829 $175 12.136587860003829 $104 $259 forward 7 unknown #
coedge $-1 $246 $260 $105 $172 reversed $241 $-1 #
edge $-1 $261 -12.136587860003829 $176 12.136587860003829 $171 $262 forward 7 unknown #
coedge $-1 $163 $106 $260 $263 forward $101 $-1 #
coedge $-1 $106 $163 $257 $264 forward $101 $-1 #
vertex $-1 $107 $265 #
vertex $-1 $263 $266 #
straight-curve $-1 -71.631824701681566 0 -12.136587860003829 0 1 0 I I #
face $-1 $267 $190 $25 $-1 $268 reversed single #
loop $-1 $-1 $269 $108 #
plane-surface $-1 -80.734943411430478 -18.151235201073685 0 1 0 0 0 0 -1 forward_v I I I I #
coedge $-1 $270 $271 $272 $273 forward $109 $-1 #
coedge $-1 $274 $111 $270 $275 forward $69 $-1 #
coedge $-1 $111 $274 $188 $276 forward $69 $-1 #
edge $-1 $191 16.651235201073685 $277 19.651235201073685 $111 $278 forward 7 unknown #
coedge $-1 $113 $112 $279 $280 forward $44 $-1 #
coedge $-1 $281 $282 $112 $187 forward $283 $-1 #
edge $-1 $284 -19.651235201073685 $192 -16.651235201073685 $186 $285 forward 7 unknown #
coedge $-1 $286 $114 $183 $276 reversed $190 $-1 #
coedge $-1 $114 $286 $281 $287 reversed $190 $-1 #
loop $-1 $-1 $114 $178 #
vertex $-1 $184 $288 #
vertex $-1 $287 $289 #
straight-curve $-1 -71.631824701681566 -16.651235201073685 0 0 0 1 I I #
face $-1 $-1 $290 $26 $-1 $291 reversed single #
loop $-1 $-1 $122 $116 #
plane-surface $-1 0 0 12.136587860003829 0 0 1 1 0 0 forward_v I I I I #
coedge $-1 $292 $293 $294 $295 reversed $117 $-1 #
coedge $-1 $296 $119 $121 $204 forward $73 $-1 #
coedge $-1 $119 $296 $292 $297 forward $73 $-1 #
coedge $-1 $294 $122 $119 $201 forward $195 $-1 #
edge $-1 $207 -8.4559000139505116 $298 29.639434491271047 $200 $299 forward 7 unknown #
coedge $-1 $300 $301 $120 $203 forward $290 $-1 #
edge $-1 $302 -73.937647726915657 $206 -65.523786528458857 $202 $303 forward 7 unknown #
edge $-1 $207 66.701173127781672 $302 77.68468874886365 $121 $304 forward 7 unknown #
coedge $-1 $122 $294 $300 $305 forward $195 $-1 #
vertex $-1 $203 $306 #
vertex $-1 $123 $307 #
straight-curve $-1 2.1358672247097559 49.326956732529339 12.136587860003829 0 -1 0 I I #
coedge $-1 $209 $209 $-1 $308 reversed $126 $-1 #
edge $-1 $309 0 $309 6.2831853071796004 $127 $310 forward 7 unknown #
vertex $-1 $130 $311 #
ellipse-curve $-1 13.020248511915909 35.31231055265139 7.9296572607754232 0 0.7660444514056185 0.64278759981090561 1.5 0 0 1 I I #
coedge $-1 $213 $213 $-1 $312 reversed $133 $-1 #
edge $-1 $313 0 $313 6.2831853071796004 $134 $314 forward 7 unknown #
vertex $-1 $137 $315 #
ellipse-curve $-1 29.346820442725146 35.31231055265139 7.9296572607754232 0 0.7660444514056185 0.64278759981090561 1.5 0 0 1 I I #
face $-1 $-1 $316 $29 $-1 $317 reversed single #
loop $-1 $-1 $144 $138 #
plane-surface $-1 0 0 12.136587860003829 0 0 1 1 0 0 forward_v I I I I #
coedge $-1 $318 $319 $320 $321 reversed $139 $-1 #
coedge $-1 $322 $141 $143 $227 forward $87 $-1 #
coedge $-1 $141 $322 $318 $323 forward $87 $-1 #
coedge $-1 $320 $144 $141 $224 forward $218 $-1 #
edge $-1 $230 -29.639434491271047 $324 8.4559000139505116 $223 $325 forward 7 unknown #
coedge $-1 $326 $327 $142 $226 forward $316 $-1 #
edge $-1 $328 -44.182685339295887 $229 -35.768824140839122 $225 $329 forward 7 unknown #
edge $-1 $230 -10.983515621082001 $328 -4.4123720097533069e-014 $143 $330 forward 7 unknown #
coedge $-1 $144 $320 $326 $331 forward $218 $-1 #
vertex $-1 $145 $332 #
vertex $-1 $145 $333 #
straight-curve $-1 40.231201729931314 -74.294334043999015 12.136587860003829 0 1 0 I I #
coedge $-1 $232 $232 $-1 $334 reversed $148 $-1 #
edge $-1 $335 0 $335 6.2831853071796004 $149 $336 forward 7 unknown #
vertex $-1 $152 $337 #
ellipse-curve $-1 13.020248511915909 -35.312310552651404 7.9296572607754419 0 -0.7660444514056185 0.64278759981090561 1.5 0 0 1 I I #
coedge $-1 $236 $236 $-1 $338 reversed $155 $-1 #
edge $-1 $339 0 $339 6.2831853071796004 $156 $340 forward 7 unknown #
vertex $-1 $159 $341 #
ellipse-curve $-1 29.346820442725146 -35.312310552651404 7.9296572607754419 0 -0.7660444514056185 0.64278759981090561 1.5 0 0 1 I I #
face $-1 $-1 $252 $24 $-1 $342 reversed single #
loop $-1 $-1 $343 $160 #
plane-surface $-1 0 38.842344374431832 0 0 -1 0 0 0 -1 forward_v I I I I #
coedge $-1 $251 $250 $163 $244 reversed $252 $-1 #
edge $-1 $344 -38.842344374431832 $345 38.842344374431832 $243 $346 forward 7 unknown #
coedge $-1 $165 $164 $168 $256 forward $65 $-1 #
coedge $-1 $343 $171 $164 $247 reversed $241 $-1 #
edge $-1 $254 -71.631824701681566 $261 71.631824701681566 $246 $347 forward 7 unknown #
coedge $-1 $169 $348 $165 $249 reversed $161 $-1 #
edge $-1 $258 -71.631824701681566 $253 71.631824701681566 $248 $349 forward 7 unknown #
coedge $-1 $243 $166 $348 $350 forward $252 $-1 #
coedge $-1 $166 $243 $343 $351 reversed $252 $-1 #
loop $-1 $-1 $250 $240 #
vertex $-1 $167 $352 #
vertex $-1 $167 $353 #
straight-curve $-1 71.631824701681566 0 12.136587860003829 0 1 0 I I #
edge $-1 $261 -38.842344374431832 $258 38.842344374431832 $168 $354 forward 7 unknown #
coedge $-1 $348 $169 $174 $264 reversed $161 $-1 #
vertex $-1 $256 $355 #
straight-curve $-1 -71.631824701681566 -38.842344374431832 0 0 0 -1 I I #
coedge $-1 $171 $343 $173 $263 reversed $241 $-1 #
vertex $-1 $247 $356 #
straight-curve $-1 -71.631824701681566 38.842344374431832 0 0 0 -1 I I #
edge $-1 $176 -71.631824701681566 $344 71.631824701681566 $260 $357 forward 7 unknown #
edge $-1 $345 -71.631824701681566 $175 71.631824701681566 $257 $358 forward 7 unknown #
point $-1 -71.631824701681566 -38.842344374431832 -12.136587860003829 #
point $-1 -71.631824701681566 38.842344374431832 -12.136587860003829 #
face $-1 $-1 $283 $25 $-1 $359 forward single #
plane-surface $-1 -76.183384056556022 -16.651235201073685 0 0 -1 0 0 0 -1 forward_v I I I I #
coedge $-1 $360 $361 $286 $362 forward $179 $-1 #
coedge $-1 $279 $181 $182 $275 reversed $109 $-1 #
coedge $-1 $181 $279 $282 $363 reversed $109 $-1 #
coedge $-1 $361 $360 $181 $273 reversed $179 $-1 #
edge $-1 $364 -12.136587860003829 $365 12.136587860003829 $272 $366 forward 7 unknown #
coedge $-1 $183 $182 $360 $367 forward $69 $-1 #
edge $-1 $277 -4.5515593548744562 $365 4.5515593548744562 $270 $368 forward 7 unknown #
edge $-1 $369 -4.5515593548744562 $191 4.5515593548744562 $188 $370 forward 7 unknown #
vertex $-1 $275 $371 #
straight-curve $-1 -71.631824701681566 0 -12.136587860003829 0 -1 0 I I #
coedge $-1 $271 $270 $185 $280 reversed $109 $-1 #
edge $-1 $284 -12.136587860003829 $277 12.136587860003829 $279 $372 forward 7 unknown #
coedge $-1 $373 $186 $189 $287 forward $283 $-1 #
coedge $-1 $186 $373 $271 $363 forward $283 $-1 #
loop $-1 $-1 $186 $267 #
vertex $-1 $187 $374 #
straight-curve $-1 -71.631824701681566 0 12.136587860003829 0 1 0 I I #
coedge $-1 $189 $188 $269 $362 reversed $190 $-1 #
edge $-1 $192 -4.5515593548744562 $375 4.5515593548744562 $189 $376 forward 7 unknown #
point $-1 -71.631824701681566 -16.651235201073685 -12.136587860003829 #
point $-1 -71.631824701681566 -16.651235201073685 12.136587860003829 #
loop $-1 $-1 $202 $194 #
plane-surface $-1 0 38.842344374431832 0 0 -1 0 0 0 -1 forward_v I I I I #
coedge $-1 $293 $197 $199 $297 reversed $117 $-1 #
coedge $-1 $197 $292 $377 $378 reversed $117 $-1 #
coedge $-1 $205 $200 $197 $295 forward $195 $-1 #
edge $-1 $298 -17.544680001658392 $379 -10.484612358097507 $294 $380 forward 7 unknown #
coedge $-1 $199 $198 $301 $381 reversed $73 $-1 #
edge $-1 $382 -77.68468874886365 $298 -66.701173127781672 $292 $383 forward 7 unknown #
vertex $-1 $201 $384 #
straight-curve $-1 10.591767238660267 31.782276730870947 12.136587860003829 1 0 0 I I #
coedge $-1 $377 $202 $205 $305 reversed $290 $-1 #
coedge $-1 $202 $377 $296 $381 forward $290 $-1 #
vertex $-1 $203 $385 #
straight-curve $-1 2.1358672247097559 38.842344374431832 77.660374388462685 0 0 1 I I #
straight-curve $-1 2.1358672247097559 -11.092410248507491 63.232651436786497 0 0.64278759981090561 -0.7660444514056185 I I #
edge $-1 $379 -40.231201729931314 $206 -2.1358672247097559 $300 $386 forward 7 unknown #
point $-1 2.1358672247097559 38.842344374431832 12.136587860003829 #
point $-1 2.1358672247097559 31.782276730870947 12.136587860003829 #
edge $-1 $387 1 $387 0 $209 $-1 forward 7 unknown #
vertex $-1 $210 $388 #
ellipse-curve $-1 13.020248511915909 32.366159280215392 5.457542879404822 0 0.7660444514056185 0.64278759981090561 1.5 0 0 1 I I #
point $-1 14.520248511915909 35.312310552651397 7.9296572607754214 #
edge $-1 $389 1 $389 0 $213 $-1 forward 7 unknown #
vertex $-1 $214 $390 #
ellipse-curve $-1 29.346820442725146 32.366159280215392 5.457542879404822 0 0.7660444514056185 0.64278759981090561 1.5 0 0 1 I I #
point $-1 30.846820442725146 35.312310552651397 7.9296572607754214 #
loop $-1 $-1 $225 $217 #
plane-surface $-1 0 -38.842344374431832 0 0 1 0 0 0 1 forward_v I I I I #
coedge $-1 $319 $220 $222 $323 reversed $139 $-1 #
coedge $-1 $220 $318 $391 $392 reversed $139 $-1 #
coedge $-1 $228 $223 $220 $321 forward $218 $-1 #
edge $-1 $324 -42.512057313128039 $393 -35.451989669567183 $320 $394 forward 7 unknown #
coedge $-1 $222 $221 $327 $395 reversed $87 $-1 #
edge $-1 $396 4.4123720097533069e-014 $324 10.983515621082001 $318 $397 forward 7 unknown #
vertex $-1 $224 $398 #
straight-curve $-1 10.591767238660267 -31.782276730870976 12.136587860003829 -1 0 0 I I #
coedge $-1 $391 $225 $228 $331 reversed $316 $-1 #
coedge $-1 $225 $391 $322 $395 forward $316 $-1 #
vertex $-1 $226 $399 #
straight-curve $-1 40.231201729931314 -38.842344374431832 47.905412000842951 0 0 1 I I #
straight-curve $-1 40.231201729931314 -38.84234437443186 3.7227266615470285 0 -0.64278759981090561 -0.7660444514056185 I I #
edge $-1 $393 2.1358672247097559 $229 40.231201729931314 $326 $400 forward 7 unknown #
point $-1 40.231201729931314 -38.842344374431832 12.136587860003829 #
point $-1 40.231201729931314 -31.782276730870976 12.136587860003829 #
edge $-1 $401 1 $401 0 $232 $-1 forward 7 unknown #
vertex $-1 $233 $402 #
ellipse-curve $-1 13.020248511915909 -32.366159280215385 5.457542879404822 0 -0.7660444514056185 0.64278759981090561 1.5 0 0 1 I I #
point $-1 14.520248511915909 -35.312310552651383 7.9296572607754214 #
edge $-1 $403 1 $403 0 $236 $-1 forward 7 unknown #
vertex $-1 $237 $404 #
ellipse-curve $-1 29.346820442725146 -32.366159280215385 5.457542879404822 0 -0.7660444514056185 0.64278759981090561 1.5 0 0 1 I I #
point $-1 30.846820442725146 -35.312310552651383 7.9296572607754214 #
plane-surface $-1 71.631824701681566 0 0 -1 0 0 0 0 1 forward_v I I I I #
coedge $-1 $260 $246 $251 $351 forward $241 $-1 #
vertex $-1 $244 $405 #
vertex $-1 $350 $406 #
straight-curve $-1 71.631824701681566 0 -12.136587860003829 0 -1 0 I I #
straight-curve $-1 0 38.842344374431832 12.136587860003829 -1 0 0 I I #
coedge $-1 $248 $257 $250 $350 reversed $161 $-1 #
straight-curve $-1 0 -38.842344374431832 12.136587860003829 1 0 0 I I #
edge $-1 $253 -12.136587860003829 $345 12.136587860003829 $250 $407 forward 7 unknown #
edge $-1 $254 -12.136587860003829 $344 12.136587860003829 $251 $408 forward 7 unknown #
point $-1 71.631824701681566 -38.842344374431832 12.136587860003829 #
point $-1 71.631824701681566 38.842344374431832 12.136587860003829 #
straight-curve $-1 -71.631824701681566 0 12.136587860003829 0 -1 0 I I #
point $-1 -71.631824701681566 -38.842344374431832 12.136587860003829 #
point $-1 -71.631824701681566 38.842344374431832 12.136587860003829 #
straight-curve $-1 0 38.842344374431832 -12.136587860003829 1 0 0 I I #
straight-curve $-1 0 -38.842344374431832 -12.136587860003829 -1 0 0 I I #
plane-surface $-1 0 0 12.136587860003829 0 0 1 1 0 0 forward_v I I I I #
coedge $-1 $272 $269 $274 $367 reversed $179 $-1 #
coedge $-1 $269 $272 $373 $409 reversed $179 $-1 #
edge $-1 $375 -12.136587860003829 $369 12.136587860003829 $286 $410 forward 7 unknown #
edge $-1 $364 -4.5515593548744562 $284 4.5515593548744562 $271 $411 forward 7 unknown #
vertex $-1 $409 $412 #
vertex $-1 $367 $413 #
straight-curve $-1 -80.734943411430478 -19.651235201073685 0 0 0 -1 I I #
edge $-1 $365 -1.5 $369 1.5 $360 $414 forward 7 unknown #
straight-curve $-1 -76.183384056556022 -19.651235201073685 -12.136587860003829 -1 0 0 I I #
vertex $-1 $276 $415 #
straight-curve $-1 -76.183384056556022 -16.651235201073685 -12.136587860003829 1 0 0 I I #
point $-1 -71.631824701681566 -19.651235201073685 -12.136587860003829 #
straight-curve $-1 -71.631824701681566 -19.651235201073685 0 0 0 -1 I I #
coedge $-1 $282 $281 $361 $409 forward $283 $-1 #
point $-1 -71.631824701681566 -19.651235201073685 12.136587860003829 #
vertex $-1 $287 $416 #
straight-curve $-1 -76.183384056556022 -16.651235201073685 12.136587860003829 -1 0 0 I I #
coedge $-1 $301 $300 $293 $378 forward $290 $-1 #
edge $-1 $379 65.523786528458857 $382 73.937647726915657 $377 $417 forward 7 unknown #
vertex $-1 $305 $418 #
straight-curve $-1 40.231201729931314 49.326956732529339 12.136587860003829 0 1 0 I I #
edge $-1 $382 -29.639434491271047 $302 8.4559000139505116 $301 $419 forward 7 unknown #
vertex $-1 $381 $420 #
straight-curve $-1 40.231201729931314 -11.092410248507491 63.232651436786497 0 -0.64278759981090561 0.7660444514056185 I I #
point $-1 40.231201729931314 31.782276730870947 12.136587860003829 #
point $-1 2.1358672247097559 38.842344374431825 3.7227266615470356 #
straight-curve $-1 0 38.842344374431832 12.136587860003829 -1 0 0 I I #
vertex $-1 $308 $421 #
point $-1 14.520248511915909 32.366159280215392 5.457542879404822 #
vertex $-1 $312 $422 #
point $-1 30.846820442725146 32.366159280215392 5.457542879404822 #
coedge $-1 $327 $326 $319 $392 forward $316 $-1 #
edge $-1 $393 35.768824140839122 $396 44.182685339295887 $391 $423 forward 7 unknown #
vertex $-1 $331 $424 #
straight-curve $-1 2.1358672247097559 -74.294334043999015 12.136587860003829 0 -1 0 I I #
edge $-1 $396 -8.4559000139505116 $328 29.639434491271047 $327 $425 forward 7 unknown #
vertex $-1 $395 $426 #
straight-curve $-1 2.1358672247097559 -38.84234437443186 3.7227266615470285 0 0.64278759981090561 0.7660444514056185 I I #
point $-1 2.1358672247097559 -31.782276730870976 12.136587860003829 #
point $-1 40.231201729931314 -38.842344374431832 3.7227266615470622 #
straight-curve $-1 0 -38.842344374431832 12.136587860003829 1 0 0 I I #
vertex $-1 $334 $427 #
point $-1 14.520248511915909 -32.366159280215385 5.457542879404822 #
vertex $-1 $338 $428 #
point $-1 30.846820442725146 -32.366159280215385 5.457542879404822 #
point $-1 71.631824701681566 38.842344374431832 -12.136587860003829 #
point $-1 71.631824701681566 -38.842344374431832 -12.136587860003829 #
straight-curve $-1 71.631824701681566 -38.842344374431832 0 0 0 -1 I I #
straight-curve $-1 71.631824701681566 38.842344374431832 0 0 0 -1 I I #
edge $-1 $375 -1.5 $364 1.5 $361 $429 forward 7 unknown #
straight-curve $-1 -80.734943411430478 -16.651235201073685 0 0 0 -1 I I #
straight-curve $-1 -76.183384056556022 -19.651235201073685 12.136587860003829 1 0 0 I I #
point $-1 -80.734943411430478 -19.651235201073685 12.136587860003829 #
point $-1 -80.734943411430478 -19.651235201073685 -12.136587860003829 #
straight-curve $-1 -80.734943411430478 -18.151235201073685 -12.136587860003829 0 1 0 I I #
point $-1 -80.734943411430478 -16.651235201073685 -12.136587860003829 #
point $-1 -80.734943411430478 -16.651235201073685 12.136587860003829 #
straight-curve $-1 40.231201729931314 38.842344374431832 77.660374388462685 0 0 -1 I I #
point $-1 40.231201729931314 38.842344374431832 12.136587860003829 #
straight-curve $-1 10.591767238660267 38.842344374431832 3.7227266615470285 -1 0 0 I I #
point $-1 40.231201729931314 38.842344374431825 3.7227266615470356 #
point $-1 13.020248511915909 31.217092603106966 4.4933614796884642 #
point $-1 29.346820442725146 31.217092603106966 4.4933614796884642 #
straight-curve $-1 2.1358672247097559 -38.842344374431832 47.905412000842951 0 0 -1 I I #
point $-1 2.1358672247097559 -38.842344374431832 12.136587860003829 #
straight-curve $-1 10.591767238660267 -38.842344374431832 3.7227266615470662 1 0 0 I I #
point $-1 2.1358672247097559 -38.842344374431832 3.7227266615470622 #
point $-1 13.020248511915909 -31.217092603106959 4.4933614796884642 #
point $-1 29.346820442725146 -31.217092603106959 4.4933614796884642 #
straight-curve $-1 -80.734943411430478 -18.151235201073685 12.136587860003829 0 -1 0 I I #
End-of-ACIS-data 