500 0 10 0           
7 Unknown 11 ACIS 5.0 NT 24 Fri Mar 26 19:30:32 1999 
-1 9.9999999999999995e-007 1e-010 
body $-1 $10 $-1 $11 #
body $-1 $12 $-1 $13 #
body $-1 $14 $-1 $15 #
body $-1 $16 $-1 $17 #
body $-1 $18 $-1 $19 #
body $-1 $20 $-1 $21 #
body $-1 $22 $-1 $23 #
body $-1 $24 $-1 $25 #
body $-1 $26 $-1 $27 #
body $-1 $28 $-1 $29 #
lump $-1 $-1 $30 $0 #
transform $-1 1 0 0 0 1 0 0 0 1 62.919400616473894 42.023907420013821 10.473208800723803 1 rotate no_reflect no_shear #
lump $-1 $-1 $31 $1 #
transform $-1 1 0 0 0 1 0 0 0 1 62.919400616473894 42.023907420013821 10.473208800723803 1 rotate no_reflect no_shear #
lump $-1 $-1 $32 $2 #
transform $-1 1 0 0 0 1 0 0 0 1 62.919400616473894 42.023907420013821 10.473208800723803 1 rotate no_reflect no_shear #
lump $-1 $-1 $33 $3 #
transform $-1 1 0 0 0 1 0 0 0 1 62.919400616473894 42.023907420013821 10.473208800723803 1 rotate no_reflect no_shear #
lump $-1 $-1 $34 $4 #
transform $-1 1 0 0 0 1 0 0 0 1 62.919400616473894 42.023907420013821 10.473208800723803 1 rotate no_reflect no_shear #
lump $-1 $-1 $35 $5 #
transform $-1 1 0 0 0 1 0 0 0 1 62.919400616473894 42.023907420013821 10.473208800723803 1 rotate no_reflect no_shear #
lump $-1 $-1 $36 $6 #
transform $-1 1 0 0 0 1 0 0 0 1 62.919400616473894 42.023907420013821 10.473208800723803 1 rotate no_reflect no_shear #
lump $-1 $-1 $37 $7 #
transform $-1 1 0 0 0 1 0 0 0 1 62.919400616473894 42.023907420013821 10.473208800723803 1 rotate no_reflect no_shear #
lump $-1 $-1 $38 $8 #
transform $-1 1 0 0 0 1 0 0 0 1 62.919400616473894 42.023907420013821 10.473208800723803 1 rotate no_reflect no_shear #
lump $-1 $-1 $39 $9 #
transform $-1 1 0 0 0 1 0 0 0 1 62.919400616473894 42.023907420013821 10.473208800723803 1 rotate no_reflect no_shear #
shell $-1 $-1 $-1 $40 $-1 $10 #
shell $-1 $-1 $-1 $41 $-1 $12 #
shell $-1 $-1 $-1 $42 $-1 $14 #
shell $-1 $-1 $-1 $43 $-1 $16 #
shell $-1 $-1 $-1 $44 $-1 $18 #
shell $-1 $-1 $-1 $45 $-1 $20 #
shell $-1 $-1 $-1 $46 $-1 $22 #
shell $-1 $-1 $-1 $47 $-1 $24 #
shell $-1 $-1 $-1 $48 $-1 $26 #
shell $-1 $-1 $-1 $49 $-1 $28 #
face $-1 $50 $51 $30 $-1 $52 forward single #
face $-1 $53 $54 $31 $-1 $55 reversed single #
face $-1 $56 $57 $32 $-1 $58 reversed single #
face $-1 $59 $60 $33 $-1 $61 forward single #
face $-1 $62 $63 $34 $-1 $64 reversed single #
face $-1 $65 $66 $35 $-1 $67 forward single #
face $-1 $68 $69 $36 $-1 $70 reversed single #
face $-1 $71 $72 $37 $-1 $73 forward single #
face $-1 $74 $75 $38 $-1 $76 reversed single #
face $-1 $77 $78 $39 $-1 $79 forward single #
face $-1 $80 $81 $30 $-1 $82 reversed single #
loop $-1 $-1 $83 $40 #
plane-surface $-1 0 0 10.473208800723803 0 0 1 1 0 0 forward_v I I I I #
face $-1 $84 $85 $31 $-1 $86 reversed single #
loop $-1 $-1 $87 $41 #
plane-surface $-1 0 -38.46248265114194 5.750979684123152 0 0 1 1 0 0 forward_v I I I I #
face $-1 $88 $89 $32 $-1 $90 reversed single #
loop $-1 $-1 $91 $42 #
plane-surface $-1 -62.919400616473908 -26.951084452431452 3.7777712508068788 -0.79863551827123203 0 0.60181501223851219 0.60181501223851219 0 0.79863551827123203 forward_v I I I I #
face $-1 $92 $93 $33 $-1 $94 forward single #
loop $-1 $95 $96 $43 #
cone-surface $-1 -59.288721723665162 -26.951084452431452 6.2905582484022453 0.79863551827123203 0 -0.60181501223851219 0.60181501223851219 0 0.79863551827123203 1 I I 0 1 1 forward I I I I #
face $-1 $97 $98 $34 $-1 $99 reversed single #
loop $-1 $-1 $100 $44 #
plane-surface $-1 -163.41873685777972 3.5614247688718823 79.509450954893055 0 1 0 -0.79863551827123203 0 0.60181501223851219 forward_v I I I I #
face $-1 $101 $102 $35 $-1 $103 forward single #
loop $-1 $104 $105 $45 #
cone-surface $-1 -59.288721723665162 11.511398198710488 6.2905582484022453 0.79863551827123203 0 -0.60181501223851219 0.60181501223851219 0 0.79863551827123203 1 I I 0 1 1 forward I I I I #
face $-1 $106 $107 $36 $-1 $108 reversed single #
loop $-1 $-1 $109 $46 #
plane-surface $-1 28.962472471230882 -20.406875029764926 177.73048332099322 0 -1 0 -0.55919291073839883 0 -0.82903756765294845 forward_v I I I I #
face $-1 $110 $111 $37 $-1 $112 forward single #
loop $-1 $113 $114 $47 #
cone-surface $-1 56.122942948144605 -27.653966456017493 4.8511524239693564 -0.55919291073839883 0 -0.82903756765294845 1.2435563514794228 0 -0.83878936610759824 1 I I 0 1 1.5 forward I I I I #
face $-1 $115 $116 $38 $-1 $117 reversed single #
loop $-1 $-1 $118 $48 #
plane-surface $-1 -41.405693074051996 34.776815993761254 73.405389630467326 0.55919291073839883 0 0.82903756765294845 0.82903756765294845 0 -0.55919291073839883 forward_v I I I I #
face $-1 $119 $120 $39 $-1 $121 forward single #
loop $-1 $122 $123 $49 #
cone-surface $-1 56.122942948144605 34.776815993761254 4.8511524239693564 -0.55919291073839883 0 -0.82903756765294845 1.2435563514794228 0 -0.83878936610759824 1 I I 0 1 1.5 forward I I I I #
face $-1 $124 $125 $30 $-1 $126 reversed single #
loop $-1 $-1 $127 $50 #
plane-surface $-1 0 0 -10.473208800723803 0 0 1 1 0 0 forward_v I I I I #
coedge $-1 $128 $129 $130 $131 forward $51 $-1 #
face $-1 $132 $133 $31 $-1 $134 reversed single #
loop $-1 $-1 $135 $53 #
plane-surface $-1 0 -34.901057882270059 8.1120942424234777 0 -1 0 0 0 -1 forward_v I I I I #
coedge $-1 $136 $137 $138 $139 reversed $54 $-1 #
face $-1 $140 $141 $32 $-1 $142 forward single #
loop $-1 $-1 $143 $56 #
plane-surface $-1 -163.41873685777972 -19.001111022592845 79.509450954893055 0 -1 0 0.79863551827123203 0 -0.60181501223851219 forward_v I I I I #
coedge $-1 $144 $145 $146 $147 reversed $57 $-1 #
face $-1 $-1 $148 $33 $-1 $149 forward single #
loop $-1 $150 $151 $59 #
cone-surface $-1 -57.781412041471256 -26.951084452431452 5.1547189649198906 0.79863551827123203 0 -0.60181501223851219 0.3009075061192561 0 0.39931775913561601 1 I I -0.70710678118654746 0.70710678118654746 0.5 forward I I I I #
loop $-1 $-1 $152 $43 #
coedge $-1 $96 $96 $153 $154 reversed $60 $-1 #
face $-1 $155 $156 $34 $-1 $157 reversed single #
loop $-1 $-1 $158 $62 #
plane-surface $-1 -62.919400616473908 11.511398198710488 3.7777712508068788 -0.79863551827123203 0 0.60181501223851219 0.60181501223851219 0 0.79863551827123203 forward_v I I I I #
coedge $-1 $159 $160 $161 $162 reversed $63 $-1 #
face $-1 $-1 $163 $35 $-1 $164 forward single #
loop $-1 $165 $166 $65 #
cone-surface $-1 -57.781412041471256 11.511398198710488 5.1547189649198906 0.79863551827123203 0 -0.60181501223851219 0.3009075061192561 0 0.39931775913561601 1 I I -0.70710678118654746 0.70710678118654746 0.5 forward I I I I #
loop $-1 $-1 $167 $45 #
coedge $-1 $105 $105 $168 $169 reversed $66 $-1 #
face $-1 $170 $171 $36 $-1 $172 forward single #
loop $-1 $-1 $173 $68 #
plane-surface $-1 -41.405693074051996 -27.653966456017493 73.405389630467326 0.55919291073839883 0 0.82903756765294845 0.82903756765294845 0 -0.55919291073839883 forward_v I I I I #
coedge $-1 $174 $175 $176 $177 reversed $69 $-1 #
face $-1 $-1 $178 $37 $-1 $179 forward single #
loop $-1 $180 $181 $71 #
cone-surface $-1 54.419240843386518 -27.653966456017493 2.3253102292448702 -0.55919291073839883 0 -0.82903756765294845 0.62177817573971139 0 -0.41939468305379912 1 I I -0.70710678118654768 0.70710678118654735 0.75 forward I I I I #
loop $-1 $-1 $182 $47 #
coedge $-1 $114 $114 $183 $184 reversed $72 $-1 #
face $-1 $185 $186 $38 $-1 $187 forward single #
loop $-1 $-1 $188 $74 #
plane-surface $-1 28.962472471230882 27.529724567508687 177.73048332099322 0 1 0 0.55919291073839883 0 0.82903756765294845 forward_v I I I I #
coedge $-1 $189 $190 $191 $192 reversed $75 $-1 #
face $-1 $-1 $193 $39 $-1 $194 forward single #
loop $-1 $195 $196 $77 #
cone-surface $-1 54.419240843386518 34.776815993761254 2.3253102292448702 -0.55919291073839883 0 -0.82903756765294845 0.62177817573971139 0 -0.41939468305379912 1 I I -0.70710678118654768 0.70710678118654735 0.75 forward I I I I #
loop $-1 $-1 $197 $49 #
coedge $-1 $123 $123 $198 $199 reversed $78 $-1 #
face $-1 $200 $201 $30 $-1 $202 reversed single #
loop $-1 $-1 $203 $80 #
plane-surface $-1 0 -42.023907420013821 0 0 1 0 0 0 1 forward_v I I I I #
coedge $-1 $204 $205 $206 $207 forward $81 $-1 #
coedge $-1 $208 $83 $209 $210 forward $51 $-1 #
coedge $-1 $83 $208 $211 $212 forward $51 $-1 #
coedge $-1 $213 $214 $83 $131 reversed $215 $-1 #
edge $-1 $216 -42.023907420013821 $217 42.023907420013821 $130 $218 forward 7 unknown #
face $-1 $219 $220 $31 $-1 $221 reversed single #
loop $-1 $-1 $222 $84 #
plane-surface $-1 -62.919400616473894 0 0 1 0 0 0 0 -1 forward_v I I I I #
coedge $-1 $223 $224 $225 $226 reversed $85 $-1 #
coedge $-1 $227 $87 $228 $229 reversed $54 $-1 #
coedge $-1 $87 $227 $223 $230 forward $54 $-1 #
coedge $-1 $225 $231 $87 $139 forward $232 $-1 #
edge $-1 $233 -22.792666094442851 $234 -15.669816556699089 $138 $235 forward 7 unknown #
face $-1 $236 $237 $32 $-1 $238 reversed single #
loop $-1 $-1 $146 $88 #
plane-surface $-1 0 0 10.473208800723803 0 0 1 1 0 0 forward_v I I I I #
coedge $-1 $239 $240 $241 $242 reversed $89 $-1 #
coedge $-1 $243 $91 $244 $245 reversed $57 $-1 #
coedge $-1 $91 $243 $239 $246 forward $57 $-1 #
coedge $-1 $241 $247 $91 $147 forward $141 $-1 #
edge $-1 $248 -21.425515656054333 $249 -5.5255687963771187 $146 $250 forward 7 unknown #
loop $-1 $-1 $153 $92 #
plane-surface $-1 -62.919400616473908 -26.951084452431452 3.7777712508068788 -0.79863551827123203 0 0.60181501223851219 0.60181501223851219 0 0.79863551827123203 forward_v I I I I #
loop $-1 $-1 $251 $59 #
coedge $-1 $151 $151 $152 $252 reversed $93 $-1 #
coedge $-1 $152 $152 $151 $252 forward $95 $-1 #
coedge $-1 $153 $153 $96 $154 forward $148 $-1 #
edge $-1 $253 0 $253 6.2831853071796004 $153 $254 forward 7 unknown #
face $-1 $255 $256 $34 $-1 $257 forward single #
loop $-1 $-1 $258 $97 #
plane-surface $-1 -163.41873685777972 19.461371628549095 79.509450954893055 0 -1 0 0.79863551827123203 0 -0.60181501223851219 forward_v I I I I #
coedge $-1 $259 $260 $261 $262 reversed $98 $-1 #
coedge $-1 $160 $100 $263 $264 reversed $63 $-1 #
coedge $-1 $100 $159 $259 $265 reversed $63 $-1 #
coedge $-1 $261 $266 $100 $162 forward $256 $-1 #
edge $-1 $267 18.789967812415966 $268 23.835341751916829 $161 $269 forward 7 unknown #
loop $-1 $-1 $168 $101 #
plane-surface $-1 -62.919400616473908 11.511398198710488 3.7777712508068788 -0.79863551827123203 0 0.60181501223851219 0.60181501223851219 0 0.79863551827123203 forward_v I I I I #
loop $-1 $-1 $270 $65 #
coedge $-1 $166 $166 $167 $271 reversed $102 $-1 #
coedge $-1 $167 $167 $166 $271 forward $104 $-1 #
coedge $-1 $168 $168 $105 $169 forward $163 $-1 #
edge $-1 $272 0 $272 6.2831853071796004 $168 $273 forward 7 unknown #
face $-1 $274 $275 $36 $-1 $276 forward single #
loop $-1 $-1 $277 $106 #
plane-surface $-1 0 -34.901057882270059 8.1120942424234777 0 -1 0 0 0 -1 forward_v I I I I #
coedge $-1 $278 $279 $280 $281 reversed $107 $-1 #
coedge $-1 $175 $109 $282 $283 reversed $69 $-1 #
coedge $-1 $109 $174 $278 $284 reversed $69 $-1 #
coedge $-1 $280 $285 $109 $177 forward $275 $-1 #
edge $-1 $286 -48.438164380858453 $287 -37.413863887608414 $176 $288 forward 7 unknown #
loop $-1 $-1 $183 $110 #
plane-surface $-1 -41.405693074051996 -27.653966456017493 73.405389630467326 0.55919291073839883 0 0.82903756765294845 0.82903756765294845 0 -0.55919291073839883 forward_v I I I I #
loop $-1 $-1 $289 $71 #
coedge $-1 $181 $181 $182 $290 reversed $111 $-1 #
coedge $-1 $182 $182 $181 $290 forward $113 $-1 #
coedge $-1 $183 $183 $114 $184 forward $178 $-1 #
edge $-1 $291 0 $291 6.2831853071796004 $183 $292 forward 7 unknown #
face $-1 $293 $294 $38 $-1 $295 reversed single #
loop $-1 $-1 $191 $115 #
plane-surface $-1 0 0 10.473208800723803 0 0 1 1 0 0 forward_v I I I I #
coedge $-1 $296 $297 $298 $299 reversed $116 $-1 #
coedge $-1 $300 $118 $301 $302 reversed $75 $-1 #
coedge $-1 $118 $300 $296 $303 forward $75 $-1 #
coedge $-1 $298 $304 $118 $192 forward $186 $-1 #
edge $-1 $305 -24.635499423133194 $306 -10.14131657062806 $191 $307 forward 7 unknown #
loop $-1 $-1 $198 $119 #
plane-surface $-1 -41.405693074051996 34.776815993761254 73.405389630467326 0.55919291073839883 0 0.82903756765294845 0.82903756765294845 0 -0.55919291073839883 forward_v I I I I #
loop $-1 $-1 $308 $77 #
coedge $-1 $196 $196 $197 $309 reversed $120 $-1 #
coedge $-1 $197 $197 $196 $309 forward $122 $-1 #
coedge $-1 $198 $198 $123 $199 forward $193 $-1 #
edge $-1 $310 0 $310 6.2831853071796004 $198 $311 forward 7 unknown #
face $-1 $312 $313 $30 $-1 $314 reversed single #
loop $-1 $-1 $315 $124 #
plane-surface $-1 -62.919400616473894 0 0 1 0 0 0 0 -1 forward_v I I I I #
coedge $-1 $316 $211 $317 $318 forward $125 $-1 #
coedge $-1 $319 $127 $316 $320 forward $81 $-1 #
coedge $-1 $127 $319 $321 $322 forward $81 $-1 #
coedge $-1 $214 $213 $127 $207 reversed $215 $-1 #
edge $-1 $323 -42.023907420013821 $324 42.023907420013821 $206 $325 forward 7 unknown #
coedge $-1 $129 $128 $326 $327 forward $51 $-1 #
coedge $-1 $328 $329 $128 $210 reversed $313 $-1 #
edge $-1 $217 -62.919400616473894 $330 62.919400616473894 $209 $331 forward 7 unknown #
coedge $-1 $203 $332 $129 $212 reversed $125 $-1 #
edge $-1 $333 -62.919400616473894 $216 62.919400616473894 $211 $334 forward 7 unknown #
coedge $-1 $206 $130 $332 $335 forward $215 $-1 #
coedge $-1 $130 $206 $328 $336 reversed $215 $-1 #
loop $-1 $-1 $213 $312 #
vertex $-1 $131 $337 #
vertex $-1 $131 $338 #
straight-curve $-1 62.919400616473894 0 10.473208800723803 0 1 0 I I #
face $-1 $339 $340 $31 $-1 $341 forward single #
loop $-1 $-1 $228 $132 #
plane-surface $-1 0 -42.023907420013821 0 0 1 0 0 0 1 forward_v I I I I #
coedge $-1 $342 $343 $344 $345 forward $133 $-1 #
coedge $-1 $344 $135 $137 $230 reversed $85 $-1 #
coedge $-1 $135 $344 $346 $347 reversed $85 $-1 #
coedge $-1 $348 $138 $135 $226 forward $232 $-1 #
edge $-1 $234 1.6949325629114131 $349 6.4171616795120645 $225 $350 forward 7 unknown #
coedge $-1 $137 $136 $342 $351 reversed $54 $-1 #
coedge $-1 $352 $353 $136 $229 forward $220 $-1 #
edge $-1 $354 -62.919400616473894 $233 62.919400616473894 $228 $355 forward 7 unknown #
edge $-1 $356 -62.919400616473894 $234 62.919400616473894 $223 $357 forward 7 unknown #
coedge $-1 $138 $348 $352 $358 forward $232 $-1 #
loop $-1 $-1 $225 $339 #
vertex $-1 $229 $359 #
vertex $-1 $139 $360 #
straight-curve $-1 62.919400616473894 -19.23124132557097 5.750979684123152 0 1 0 I I #
face $-1 $-1 $361 $32 $-1 $362 forward single #
loop $-1 $-1 $363 $140 #
plane-surface $-1 -62.919400616473894 0 0 1 0 0 0 0 -1 forward_v I I I I #
coedge $-1 $240 $143 $145 $246 reversed $89 $-1 #
coedge $-1 $143 $239 $363 $364 reversed $89 $-1 #
coedge $-1 $365 $146 $143 $242 forward $141 $-1 #
edge $-1 $249 -23.835341751916829 $366 -18.789967812415966 $241 $367 forward 7 unknown #
coedge $-1 $145 $144 $368 $369 reversed $57 $-1 #
coedge $-1 $370 $371 $144 $245 forward $361 $-1 #
edge $-1 $372 -20.663692070403844 $248 -12.280096053524705 $244 $373 forward 7 unknown #
edge $-1 $374 2.3448253187574213e-014 $249 8.3835960168791619 $239 $375 forward 7 unknown #
coedge $-1 $146 $365 $370 $376 forward $141 $-1 #
vertex $-1 $245 $377 #
vertex $-1 $147 $378 #
straight-curve $-1 -57.874026676973031 -13.475542226215726 10.473208800723803 0 1 0 I I #
coedge $-1 $251 $251 $-1 $379 reversed $150 $-1 #
edge $-1 $380 0 $380 6.2831853071796004 $151 $381 forward 7 unknown #
vertex $-1 $154 $382 #
ellipse-curve $-1 -60.396713646723462 -26.951084452431452 7.1254900257653508 -0.79863551827123203 0 0.60181501223851219 0.60181501223851219 0 0.79863551827123203 1 I I #
face $-1 $-1 $383 $34 $-1 $384 reversed single #
loop $-1 $-1 $161 $155 #
plane-surface $-1 0 0 10.473208800723803 0 0 1 1 0 0 forward_v I I I I #
coedge $-1 $385 $386 $387 $388 reversed $156 $-1 #
coedge $-1 $389 $158 $160 $265 forward $98 $-1 #
coedge $-1 $158 $389 $385 $390 forward $98 $-1 #
coedge $-1 $387 $161 $158 $262 forward $256 $-1 #
edge $-1 $268 -2.1942743304833616 $391 13.705672529193851 $261 $392 forward 7 unknown #
coedge $-1 $393 $394 $159 $264 forward $383 $-1 #
edge $-1 $395 -35.976954226639627 $267 -29.281516676722724 $263 $396 forward 7 unknown #
edge $-1 $268 -8.3835960168791619 $395 -2.3448253187574213e-014 $160 $397 forward 7 unknown #
coedge $-1 $161 $387 $393 $398 forward $256 $-1 #
vertex $-1 $162 $399 #
vertex $-1 $162 $400 #
straight-curve $-1 -81.70936842888986 3.5614247688718823 10.473208800723803 1 0 0 I I #
coedge $-1 $270 $270 $-1 $401 reversed $165 $-1 #
edge $-1 $402 0 $402 6.2831853071796004 $166 $403 forward 7 unknown #
vertex $-1 $169 $404 #
ellipse-curve $-1 -60.396713646723462 11.511398198710488 7.1254900257653508 -0.79863551827123203 0 0.60181501223851219 0.60181501223851219 0 0.79863551827123203 1 I I #
face $-1 $-1 $405 $36 $-1 $406 reversed single #
loop $-1 $-1 $280 $170 #
plane-surface $-1 0 0 10.473208800723803 0 0 1 1 0 0 forward_v I I I I #
coedge $-1 $407 $408 $279 $409 reversed $171 $-1 #
coedge $-1 $410 $173 $175 $284 forward $107 $-1 #
coedge $-1 $173 $410 $277 $409 forward $107 $-1 #
coedge $-1 $411 $176 $173 $281 forward $275 $-1 #
edge $-1 $287 6.5798918017561796 $412 21.074074654261313 $280 $413 forward 7 unknown #
coedge $-1 $414 $415 $174 $283 forward $405 $-1 #
edge $-1 $416 -85.82801757531216 $286 -78.392032859772797 $282 $417 forward 7 unknown #
edge $-1 $287 112.54109202965986 $416 125.83880123294779 $175 $418 forward 7 unknown #
coedge $-1 $176 $411 $414 $419 forward $275 $-1 #
vertex $-1 $283 $420 #
vertex $-1 $177 $421 #
straight-curve $-1 14.481236235615441 -20.406875029764926 10.47320880072381 -1 0 0 I I #
coedge $-1 $289 $289 $-1 $422 reversed $180 $-1 #
edge $-1 $423 0 $423 6.2831853071796004 $181 $424 forward 7 unknown #
vertex $-1 $184 $425 #
ellipse-curve $-1 57.407250369848882 -27.653966456017493 6.7552164429541239 0.55919291073839883 0 0.82903756765294845 1.2435563514794228 0 -0.83878936610759824 1 I I #
face $-1 $-1 $426 $38 $-1 $427 reversed single #
loop $-1 $-1 $428 $185 #
plane-surface $-1 62.919400616473894 0 0 -1 0 0 0 0 1 forward_v I I I I #
coedge $-1 $297 $188 $190 $303 reversed $116 $-1 #
coedge $-1 $188 $296 $429 $430 reversed $116 $-1 #
coedge $-1 $431 $191 $188 $299 forward $186 $-1 #
edge $-1 $306 37.413863887608414 $432 48.438164380858453 $298 $433 forward 7 unknown #
coedge $-1 $190 $189 $428 $434 reversed $75 $-1 #
coedge $-1 $435 $436 $189 $302 forward $426 $-1 #
edge $-1 $437 -88.151476950725836 $305 -74.853767747437928 $301 $438 forward 7 unknown #
edge $-1 $439 -125.83880123294779 $306 -112.54109202965986 $296 $440 forward 7 unknown #
coedge $-1 $191 $431 $435 $441 forward $186 $-1 #
vertex $-1 $302 $442 #
vertex $-1 $192 $443 #
straight-curve $-1 51.895100123223862 17.388407996880627 10.47320880072381 0 -1 0 I I #
coedge $-1 $308 $308 $-1 $444 reversed $195 $-1 #
edge $-1 $445 0 $445 6.2831853071796004 $196 $446 forward 7 unknown #
vertex $-1 $199 $447 #
ellipse-curve $-1 57.407250369848882 34.776815993761254 6.7552164429541239 0.55919291073839883 0 0.82903756765294845 1.2435563514794228 0 -0.83878936610759824 1 I I #
face $-1 $-1 $215 $30 $-1 $448 reversed single #
loop $-1 $-1 $328 $200 #
plane-surface $-1 0 42.023907420013821 0 0 -1 0 0 0 -1 forward_v I I I I #
coedge $-1 $449 $326 $329 $450 forward $201 $-1 #
coedge $-1 $332 $203 $204 $320 reversed $125 $-1 #
coedge $-1 $326 $449 $203 $318 reversed $201 $-1 #
edge $-1 $333 -10.473208800723803 $451 10.473208800723803 $317 $452 forward 7 unknown #
coedge $-1 $205 $204 $449 $453 forward $81 $-1 #
edge $-1 $324 -62.919400616473894 $451 62.919400616473894 $316 $454 forward 7 unknown #
coedge $-1 $329 $328 $205 $322 reversed $313 $-1 #
edge $-1 $455 -62.919400616473894 $323 62.919400616473894 $321 $456 forward 7 unknown #
vertex $-1 $207 $457 #
vertex $-1 $335 $458 #
straight-curve $-1 62.919400616473894 0 -10.473208800723803 0 -1 0 I I #
coedge $-1 $315 $317 $208 $327 reversed $201 $-1 #
edge $-1 $330 -42.023907420013821 $333 42.023907420013821 $326 $459 forward 7 unknown #
coedge $-1 $321 $209 $214 $336 forward $313 $-1 #
coedge $-1 $209 $321 $315 $450 reversed $313 $-1 #
vertex $-1 $210 $460 #
straight-curve $-1 0 42.023907420013821 10.473208800723803 -1 0 0 I I #
coedge $-1 $211 $316 $213 $335 reversed $125 $-1 #
vertex $-1 $327 $461 #
straight-curve $-1 0 -42.023907420013821 10.473208800723803 1 0 0 I I #
edge $-1 $216 -10.473208800723803 $324 10.473208800723803 $213 $462 forward 7 unknown #
edge $-1 $217 -10.473208800723803 $323 10.473208800723803 $214 $463 forward 7 unknown #
point $-1 62.919400616473894 -42.023907420013821 10.473208800723803 #
point $-1 62.919400616473894 42.023907420013821 10.473208800723803 #
face $-1 $-1 $232 $31 $-1 $464 reversed single #
loop $-1 $-1 $346 $219 #
plane-surface $-1 0 0 10.473208800723803 0 0 1 1 0 0 forward_v I I I I #
coedge $-1 $465 $222 $227 $351 forward $133 $-1 #
coedge $-1 $222 $465 $466 $467 reversed $133 $-1 #
coedge $-1 $224 $223 $222 $345 reversed $85 $-1 #
edge $-1 $468 -6.4171616795120645 $356 -1.6949325629114131 $222 $469 forward 7 unknown #
coedge $-1 $466 $470 $224 $347 forward $340 $-1 #
edge $-1 $349 -62.919400616473894 $468 62.919400616473894 $346 $471 forward 7 unknown #
coedge $-1 $231 $225 $470 $472 reversed $232 $-1 #
vertex $-1 $226 $473 #
straight-curve $-1 62.919400616473894 -34.901057882270059 4.0560471212117388 0 0 1 I I #
edge $-1 $356 15.669816556699089 $354 22.792666094442851 $342 $474 forward 7 unknown #
coedge $-1 $475 $228 $231 $358 reversed $220 $-1 #
coedge $-1 $228 $475 $465 $476 forward $220 $-1 #
vertex $-1 $229 $477 #
straight-curve $-1 0 -42.023907420013821 5.750979684123152 1 0 0 I I #
vertex $-1 $351 $478 #
straight-curve $-1 0 -34.901057882270059 5.750979684123152 1 0 0 I I #
edge $-1 $479 -10.473208800723803 $233 -5.750979684123152 $231 $480 forward 7 unknown #
point $-1 62.919400616473894 -42.023907420013821 5.750979684123152 #
point $-1 62.919400616473894 -34.901057882270059 5.750979684123152 #
loop $-1 $-1 $244 $236 #
plane-surface $-1 0 -34.901057882270059 8.1120942424234777 0 -1 0 0 0 -1 forward_v I I I I #
coedge $-1 $368 $481 $240 $364 forward $237 $-1 #
edge $-1 $366 29.281516676722724 $374 35.976954226639627 $363 $482 forward 7 unknown #
coedge $-1 $247 $241 $481 $483 forward $141 $-1 #
vertex $-1 $483 $484 #
straight-curve $-1 -81.70936842888986 -19.001111022592845 10.473208800723803 -1 0 0 I I #
coedge $-1 $485 $363 $243 $369 forward $237 $-1 #
edge $-1 $374 5.5255687963771187 $372 21.425515656054333 $368 $486 forward 7 unknown #
coedge $-1 $371 $244 $247 $376 reversed $361 $-1 #
coedge $-1 $244 $370 $485 $487 reversed $361 $-1 #
vertex $-1 $487 $488 #
straight-curve $-1 -50.483680520230955 -34.901057882270059 20.280529676851017 0.60181501223851219 0 0.79863551827123203 I I #
vertex $-1 $369 $489 #
straight-curve $-1 -62.919400616473908 -19.001111022592845 3.7777712508068788 0.60181501223851219 0 0.79863551827123203 I I #
edge $-1 $490 -62.919400616473894 $248 -57.874026676973031 $247 $491 forward 7 unknown #
point $-1 -57.874026676973031 -34.901057882270059 10.473208800723803 #
point $-1 -57.874026676973031 -19.001111022592845 10.473208800723803 #
edge $-1 $492 1 $492 0 $251 $-1 forward 7 unknown #
vertex $-1 $252 $493 #
ellipse-curve $-1 -58.180729800606869 -26.951084452431452 5.4556264710391469 -0.79863551827123203 0 0.60181501223851219 0.60181501223851219 0 0.79863551827123203 1 I I #
point $-1 -59.794898634484944 -26.951084452431452 7.924125544036575 #
loop $-1 $-1 $263 $255 #
plane-surface $-1 -62.919400616473894 0 0 1 0 0 0 0 -1 forward_v I I I I #
coedge $-1 $386 $258 $260 $390 reversed $156 $-1 #
coedge $-1 $258 $385 $494 $495 reversed $156 $-1 #
coedge $-1 $266 $261 $258 $388 forward $256 $-1 #
edge $-1 $391 -23.835341751916829 $496 -18.789967812415966 $387 $497 forward 7 unknown #
coedge $-1 $260 $259 $394 $498 reversed $98 $-1 #
edge $-1 $499 2.3448253187574213e-014 $391 8.3835960168791619 $385 $500 forward 7 unknown #
vertex $-1 $262 $501 #
straight-curve $-1 -57.874026676973031 5.7556990993552439 10.473208800723803 0 1 0 I I #
coedge $-1 $494 $263 $266 $398 reversed $383 $-1 #
coedge $-1 $263 $494 $389 $498 forward $383 $-1 #
vertex $-1 $264 $502 #
straight-curve $-1 -62.919400616473894 3.5614247688718823 39.754725477446527 0 0 1 I I #
straight-curve $-1 -62.919400616473908 3.5614247688718823 3.7777712508068788 -0.60181501223851219 0 -0.79863551827123203 I I #
edge $-1 $496 -19.461371628549095 $267 -3.5614247688718823 $393 $503 forward 7 unknown #
point $-1 -62.919400616473894 3.5614247688718823 10.473208800723803 #
point $-1 -57.874026676973031 3.5614247688718823 10.473208800723803 #
edge $-1 $504 1 $504 0 $270 $-1 forward 7 unknown #
vertex $-1 $271 $505 #
ellipse-curve $-1 -58.180729800606869 11.511398198710488 5.4556264710391469 -0.79863551827123203 0 0.60181501223851219 0.60181501223851219 0 0.79863551827123203 1 I I #
point $-1 -59.794898634484944 11.511398198710488 7.924125544036575 #
loop $-1 $-1 $282 $274 #
plane-surface $-1 62.919400616473894 0 0 -1 0 0 0 0 1 forward_v I I I I #
coedge $-1 $408 $277 $506 $507 reversed $171 $-1 #
coedge $-1 $277 $407 $411 $508 reversed $171 $-1 #
edge $-1 $509 -125.83880123294779 $412 -112.54109202965986 $277 $510 forward 7 unknown #
coedge $-1 $279 $278 $415 $511 reversed $107 $-1 #
coedge $-1 $285 $280 $408 $508 forward $275 $-1 #
vertex $-1 $508 $512 #
straight-curve $-1 51.895100123223862 -13.826983228008746 10.47320880072381 0 -1 0 I I #
coedge $-1 $506 $282 $285 $419 reversed $405 $-1 #
coedge $-1 $282 $506 $410 $511 forward $405 $-1 #
vertex $-1 $283 $513 #
straight-curve $-1 62.919400616473894 -20.406875029764926 88.865241660496608 0 0 1 I I #
straight-curve $-1 -41.405693074051996 -20.406875029764926 73.405389630467326 0.82903756765294845 0 -0.55919291073839883 I I #
edge $-1 $514 -34.901057882270059 $286 -20.406875029764926 $414 $515 forward 7 unknown #
point $-1 62.919400616473894 -20.406875029764926 10.473208800723803 #
point $-1 51.895100123223855 -20.406875029764926 10.473208800723803 #
edge $-1 $516 1 $516 0 $289 $-1 forward 7 unknown #
vertex $-1 $290 $517 #
ellipse-curve $-1 54.838635526440314 -27.653966456017493 2.9470884049845809 0.55919291073839883 0 0.82903756765294845 1.2435563514794228 0 -0.83878936610759824 1 I I #
point $-1 58.650806721328308 -27.653966456017493 5.9164270768465332 #
loop $-1 $-1 $301 $293 #
plane-surface $-1 0 42.023907420013821 0 0 -1 0 0 0 -1 forward_v I I I I #
coedge $-1 $518 $429 $300 $434 forward $294 $-1 #
coedge $-1 $428 $519 $297 $430 forward $294 $-1 #
edge $-1 $432 78.392032859772797 $439 85.82801757531216 $429 $520 forward 7 unknown #
coedge $-1 $304 $298 $519 $521 forward $186 $-1 #
vertex $-1 $521 $522 #
straight-curve $-1 14.481236235615441 27.529724567508687 10.47320880072381 1 0 0 I I #
edge $-1 $439 10.14131657062806 $437 24.635499423133194 $428 $523 forward 7 unknown #
coedge $-1 $436 $301 $304 $441 reversed $426 $-1 #
coedge $-1 $301 $435 $518 $524 forward $426 $-1 #
vertex $-1 $302 $525 #
straight-curve $-1 -10.161485419770807 42.023907420013821 52.330905067149693 -0.82903756765294845 0 0.55919291073839883 I I #
vertex $-1 $434 $526 #
straight-curve $-1 -41.405693074051996 27.529724567508687 73.405389630467326 -0.82903756765294845 0 0.55919291073839883 I I #
edge $-1 $527 -62.919400616473894 $305 -51.895100123223855 $435 $528 forward 7 unknown #
point $-1 51.895100123223855 42.023907420013821 10.473208800723803 #
point $-1 51.895100123223855 27.529724567508687 10.473208800723803 #
edge $-1 $529 1 $529 0 $308 $-1 forward 7 unknown #
vertex $-1 $309 $530 #
ellipse-curve $-1 54.838635526440314 34.776815993761254 2.9470884049845809 0.55919291073839883 0 0.82903756765294845 1.2435563514794228 0 -0.83878936610759824 1 I I #
point $-1 58.650806721328308 34.776815993761254 5.9164270768465332 #
plane-surface $-1 62.919400616473894 0 0 -1 0 0 0 0 1 forward_v I I I I #
coedge $-1 $317 $315 $319 $453 reversed $201 $-1 #
edge $-1 $330 -10.473208800723803 $455 10.473208800723803 $329 $531 forward 7 unknown #
vertex $-1 $453 $532 #
straight-curve $-1 -62.919400616473894 -42.023907420013821 0 0 0 -1 I I #
edge $-1 $451 -42.023907420013821 $455 42.023907420013821 $449 $533 forward 7 unknown #
straight-curve $-1 0 -42.023907420013821 -10.473208800723803 -1 0 0 I I #
vertex $-1 $322 $534 #
straight-curve $-1 0 42.023907420013821 -10.473208800723803 1 0 0 I I #
point $-1 62.919400616473894 42.023907420013821 -10.473208800723803 #
point $-1 62.919400616473894 -42.023907420013821 -10.473208800723803 #
straight-curve $-1 -62.919400616473894 0 10.473208800723803 0 -1 0 I I #
point $-1 -62.919400616473894 42.023907420013821 10.473208800723803 #
point $-1 -62.919400616473894 -42.023907420013821 10.473208800723803 #
straight-curve $-1 62.919400616473894 -42.023907420013821 0 0 0 -1 I I #
straight-curve $-1 62.919400616473894 42.023907420013821 0 0 0 -1 I I #
plane-surface $-1 62.919400616473894 0 0 -1 0 0 0 0 1 forward_v I I I I #
coedge $-1 $343 $342 $353 $476 reversed $133 $-1 #
coedge $-1 $535 $346 $343 $467 forward $340 $-1 #
edge $-1 $468 34.901057882270059 $536 42.023907420013821 $343 $537 forward 7 unknown #
vertex $-1 $467 $538 #
straight-curve $-1 -62.919400616473894 -34.901057882270059 4.0560471212117388 0 0 -1 I I #
coedge $-1 $346 $535 $348 $472 forward $340 $-1 #
straight-curve $-1 0 -34.901057882270059 10.473208800723803 -1 0 0 I I #
edge $-1 $479 -42.023907420013821 $349 -34.901057882270059 $348 $539 forward 7 unknown #
point $-1 62.919400616473894 -34.901057882270059 10.473208800723803 #
straight-curve $-1 -62.919400616473894 -19.23124132557097 5.750979684123152 0 -1 0 I I #
coedge $-1 $353 $352 $535 $540 reversed $220 $-1 #
edge $-1 $536 -10.473208800723803 $354 -5.750979684123152 $465 $541 forward 7 unknown #
point $-1 -62.919400616473894 -42.023907420013821 5.750979684123152 #
point $-1 -62.919400616473894 -34.901057882270059 5.750979684123152 #
vertex $-1 $472 $542 #
straight-curve $-1 62.919400616473894 -42.023907420013821 0 0 0 -1 I I #
coedge $-1 $363 $485 $365 $483 reversed $237 $-1 #
straight-curve $-1 -62.919400616473894 -19.001111022592845 39.754725477446527 0 0 -1 I I #
edge $-1 $366 19.001111022592845 $490 34.901057882270059 $481 $543 forward 7 unknown #
point $-1 -62.919400616473894 -19.001111022592845 10.473208800723803 #
coedge $-1 $481 $368 $371 $487 forward $237 $-1 #
straight-curve $-1 -62.919400616473894 -13.475542226215726 3.7777712508068975 0 -1 0 I I #
edge $-1 $372 -35.976954226639627 $490 -29.281516676722724 $485 $544 forward 7 unknown #
point $-1 -62.919400616473894 -34.901057882270059 3.7777712508068975 #
point $-1 -62.919400616473894 -19.001111022592845 3.7777712508068975 #
vertex $-1 $487 $545 #
straight-curve $-1 0 -34.901057882270059 10.473208800723803 1 0 0 I I #
vertex $-1 $379 $546 #
point $-1 -57.578914788368358 -26.951084452431452 6.254261989310379 #
coedge $-1 $394 $393 $386 $495 forward $383 $-1 #
edge $-1 $496 29.281516676722724 $499 35.976954226639627 $494 $547 forward 7 unknown #
vertex $-1 $398 $548 #
straight-curve $-1 -81.70936842888986 19.461371628549095 10.473208800723803 -1 0 0 I I #
edge $-1 $499 -13.705672529193851 $395 2.1942743304833616 $394 $549 forward 7 unknown #
vertex $-1 $498 $550 #
straight-curve $-1 -62.919400616473908 19.461371628549095 3.7777712508068788 0.60181501223851219 0 0.79863551827123203 I I #
point $-1 -57.874026676973031 19.461371628549095 10.473208800723803 #
point $-1 -62.919400616473894 3.5614247688718823 3.7777712508068975 #
straight-curve $-1 -62.919400616473894 0 10.473208800723803 0 -1 0 I I #
vertex $-1 $401 $551 #
point $-1 -57.578914788368358 11.511398198710488 6.254261989310379 #
coedge $-1 $415 $414 $407 $507 forward $405 $-1 #
edge $-1 $514 78.392032859772797 $509 85.82801757531216 $506 $552 forward 7 unknown #
edge $-1 $412 51.895100123223855 $514 62.919400616473894 $411 $553 forward 7 unknown #
vertex $-1 $507 $554 #
straight-curve $-1 -41.405693074051996 -34.901057882270059 73.405389630467326 -0.82903756765294845 0 0.55919291073839883 I I #
edge $-1 $509 -21.074074654261313 $416 -6.5798918017561796 $415 $555 forward 7 unknown #
point $-1 51.895100123223855 -34.901057882270059 10.473208800723803 #
point $-1 62.919400616473894 -20.406875029764926 3.0372240851844481 #
vertex $-1 $419 $556 #
straight-curve $-1 62.919400616473894 0 10.473208800723803 0 1 0 I I #
vertex $-1 $422 $557 #
point $-1 56.08219187791974 -27.653966456017493 2.1082990388769831 #
coedge $-1 $519 $428 $436 $524 reversed $294 $-1 #
coedge $-1 $429 $518 $431 $521 reversed $294 $-1 #
straight-curve $-1 62.919400616473894 27.529724567508687 88.865241660496608 0 0 -1 I I #
edge $-1 $432 27.529724567508687 $527 42.023907420013821 $519 $558 forward 7 unknown #
point $-1 62.919400616473894 27.529724567508687 10.473208800723803 #
straight-curve $-1 62.919400616473901 17.388407996880627 3.0372240851844339 0 1 0 I I #
edge $-1 $527 -10.473208800723803 $437 -3.0372240851844481 $518 $559 forward 7 unknown #
point $-1 62.919400616473894 42.023907420013821 3.0372240851844481 #
point $-1 62.919400616473894 27.529724567508687 3.0372240851844481 #
vertex $-1 $521 $560 #
straight-curve $-1 0 42.023907420013821 10.473208800723803 -1 0 0 I I #
vertex $-1 $444 $561 #
point $-1 56.08219187791974 34.776815993761254 2.1082990388769831 #
straight-curve $-1 -62.919400616473894 42.023907420013821 0 0 0 -1 I I #
point $-1 -62.919400616473894 -42.023907420013821 -10.473208800723803 #
straight-curve $-1 -62.919400616473894 0 -10.473208800723803 0 1 0 I I #
point $-1 -62.919400616473894 42.023907420013821 -10.473208800723803 #
coedge $-1 $470 $466 $475 $540 forward $340 $-1 #
vertex $-1 $467 $562 #
straight-curve $-1 -62.919400616473894 0 10.473208800723803 0 -1 0 I I #
point $-1 -62.919400616473894 -34.901057882270059 10.473208800723803 #
straight-curve $-1 62.919400616473894 0 10.473208800723803 0 1 0 I I #
edge $-1 $536 -62.919400616473894 $479 62.919400616473894 $475 $563 forward 7 unknown #
straight-curve $-1 -62.919400616473894 -42.023907420013821 0 0 0 -1 I I #
point $-1 62.919400616473894 -42.023907420013821 10.473208800723803 #
straight-curve $-1 -62.919400616473894 0 10.473208800723803 0 -1 0 I I #
straight-curve $-1 -62.919400616473894 -34.901057882270059 39.754725477446527 0 0 1 I I #
point $-1 -62.919400616473894 -34.901057882270059 10.473208800723803 #
point $-1 -57.382094282335643 -26.951084452431452 4.8538114588006342 #
straight-curve $-1 -62.919400616473894 19.461371628549095 39.754725477446527 0 0 -1 I I #
point $-1 -62.919400616473894 19.461371628549095 10.473208800723803 #
straight-curve $-1 -62.919400616473894 5.7556990993552439 3.7777712508068975 0 -1 0 I I #
point $-1 -62.919400616473894 19.461371628549095 3.7777712508068975 #
point $-1 -57.382094282335643 11.511398198710488 4.8538114588006342 #
straight-curve $-1 62.919400616473894 -34.901057882270059 88.865241660496608 0 0 -1 I I #
straight-curve $-1 0 -34.901057882270059 10.473208800723803 1 0 0 I I #
point $-1 62.919400616473894 -34.901057882270059 3.0372240851844481 #
straight-curve $-1 62.919400616473901 -13.826983228008746 3.0372240851844339 0 1 0 I I #
point $-1 62.919400616473894 -34.901057882270059 10.473208800723803 #
point $-1 53.999846160332723 -27.653966456017493 1.7035320535051592 #
straight-curve $-1 62.919400616473894 0 10.473208800723803 0 1 0 I I #
straight-curve $-1 62.919400616473894 42.023907420013821 0 0 0 -1 I I #
point $-1 62.919400616473894 42.023907420013821 10.473208800723803 #
point $-1 53.999846160332723 34.776815993761254 1.7035320535051592 #
point $-1 -62.919400616473894 -42.023907420013821 10.473208800723803 #
straight-curve $-1 0 -42.023907420013821 10.473208800723803 1 0 0 I I #
End-of-ACIS-data 