500 0 8 0           
7 Unknown 11 ACIS 5.0 NT 24 Fri Mar 26 14:49:17 1999 
-1 9.9999999999999995e-007 1e-010 
body $-1 $8 $-1 $9 #
body $-1 $10 $-1 $11 #
body $-1 $12 $-1 $13 #
body $-1 $14 $-1 $15 #
body $-1 $16 $-1 $17 #
body $-1 $18 $-1 $19 #
body $-1 $20 $-1 $21 #
body $-1 $22 $-1 $23 #
lump $-1 $-1 $24 $0 #
transform $-1 1 0 0 0 1 0 0 0 1 59.948118533890806 32.074356519574778 9.6233837035811511 1 rotate no_reflect no_shear #
lump $-1 $-1 $25 $1 #
transform $-1 1 0 0 0 1 0 0 0 1 59.948118533890806 32.074356519574778 9.6233837035811511 1 rotate no_reflect no_shear #
lump $-1 $-1 $26 $2 #
transform $-1 1 0 0 0 1 0 0 0 1 59.948118533890806 32.074356519574778 9.6233837035811511 1 rotate no_reflect no_shear #
lump $-1 $-1 $27 $3 #
transform $-1 1 0 0 0 1 0 0 0 1 59.948118533890806 32.074356519574778 9.6233837035811511 1 rotate no_reflect no_shear #
lump $-1 $-1 $28 $4 #
transform $-1 1 0 0 0 1 0 0 0 1 59.948118533890806 32.074356519574778 9.6233837035811511 1 rotate no_reflect no_shear #
lump $-1 $-1 $29 $5 #
transform $-1 1 0 0 0 1 0 0 0 1 59.948118533890806 32.074356519574778 9.6233837035811511 1 rotate no_reflect no_shear #
lump $-1 $-1 $30 $6 #
transform $-1 1 0 0 0 1 0 0 0 1 59.948118533890806 32.074356519574778 9.6233837035811511 1 rotate no_reflect no_shear #
lump $-1 $-1 $31 $7 #
transform $-1 1 0 0 0 1 0 0 0 1 59.948118533890806 32.074356519574778 9.6233837035811511 1 rotate no_reflect no_shear #
shell $-1 $-1 $-1 $32 $-1 $8 #
shell $-1 $-1 $-1 $33 $-1 $10 #
shell $-1 $-1 $-1 $34 $-1 $12 #
shell $-1 $-1 $-1 $35 $-1 $14 #
shell $-1 $-1 $-1 $36 $-1 $16 #
shell $-1 $-1 $-1 $37 $-1 $18 #
shell $-1 $-1 $-1 $38 $-1 $20 #
shell $-1 $-1 $-1 $39 $-1 $22 #
face $-1 $40 $41 $24 $-1 $42 forward single #
face $-1 $43 $44 $25 $-1 $45 forward single #
face $-1 $46 $47 $26 $-1 $48 reversed single #
face $-1 $49 $50 $27 $-1 $51 forward single #
face $-1 $52 $53 $28 $-1 $54 reversed single #
face $-1 $55 $56 $29 $-1 $57 forward single #
face $-1 $58 $59 $30 $-1 $60 forward single #
face $-1 $61 $62 $31 $-1 $63 forward single #
face $-1 $64 $65 $24 $-1 $66 reversed single #
loop $-1 $-1 $67 $32 #
plane-surface $-1 0 0 9.6233837035811511 0 0 1 1 0 0 forward_v I I I I #
face $-1 $68 $69 $25 $-1 $70 reversed single #
loop $-1 $-1 $71 $33 #
plane-surface $-1 0 -32.074356519574778 0 0 1 0 0 0 1 forward_v I I I I #
face $-1 $72 $73 $26 $-1 $74 reversed single #
loop $-1 $-1 $75 $34 #
plane-surface $-1 -121.69924648367672 23.284007360670017 103.54794127110947 0 1 0 -0.51503808176128008 0 0.85716729658548041 forward_v I I I I #
face $-1 $76 $77 $27 $-1 $78 forward single #
loop $-1 $79 $80 $35 #
cone-surface $-1 -51.591569628347429 27.679181940122398 3.5442014471935805 0.51503808176128008 0 -0.85716729658548041 1.2857509448782207 0 0.77255712264192011 1 I I 0 1 1.5 forward I I I I #
face $-1 $81 $82 $28 $-1 $83 reversed single #
loop $-1 $-1 $84 $36 #
plane-surface $-1 39.28409025554916 7.4082588697036762 173.47434408837486 0 -1 0 -0.61566148304635926 0 -0.78801074757464917 forward_v I I I I #
face $-1 $85 $86 $29 $-1 $87 forward single #
loop $-1 $88 $89 $37 #
cone-surface $-1 56.796220333117347 0.81801740465449768 7.0073492581915522 -0.61566148304635926 0 -0.78801074757464917 0.39400537378732459 0 -0.30783074152317963 1 I I 0 1 0.5 forward I I I I #
face $-1 $90 $91 $30 $-1 $92 forward single #
loop $-1 $93 $94 $38 #
cone-surface $-1 56.796220333117347 3.2893579540479365 7.0073492581915522 -0.61566148304635926 0 -0.78801074757464917 0.39400537378732459 0 -0.30783074152317963 1 I I 0 1 0.5 forward I I I I #
face $-1 $95 $96 $31 $-1 $97 forward single #
loop $-1 $98 $99 $39 #
cone-surface $-1 56.796220333117347 5.7606985034413754 7.0073492581915522 -0.61566148304635926 0 -0.78801074757464917 0.39400537378732459 0 -0.30783074152317963 1 I I 0 1 0.5 forward I I I I #
face $-1 $100 $101 $24 $-1 $102 reversed single #
loop $-1 $-1 $103 $40 #
plane-surface $-1 0 0 -9.6233837035811511 0 0 1 1 0 0 forward_v I I I I #
coedge $-1 $104 $105 $106 $107 forward $41 $-1 #
face $-1 $108 $109 $25 $-1 $110 reversed single #
loop $-1 $-1 $111 $43 #
plane-surface $-1 0 0 -9.6233837035811511 0 0 1 1 0 0 forward_v I I I I #
coedge $-1 $112 $113 $114 $115 forward $44 $-1 #
face $-1 $116 $117 $26 $-1 $118 reversed single #
loop $-1 $-1 $119 $46 #
plane-surface $-1 -59.948118533890792 27.679181940122398 0.77680787294723075 -0.51503808176128008 0 0.85716729658548041 0.85716729658548041 0 0.51503808176128008 forward_v I I I I #
coedge $-1 $120 $121 $122 $123 reversed $47 $-1 #
face $-1 $-1 $124 $27 $-1 $125 forward single #
loop $-1 $126 $127 $49 #
cone-surface $-1 -50.210329350192794 27.679181940122398 1.2454316336838538 0.51503808176128008 0 -0.85716729658548041 0.64287547243911036 0 0.38627856132096006 1 I I -0.70710678118654757 0.70710678118654757 0.75 forward I I I I #
loop $-1 $-1 $128 $35 #
coedge $-1 $80 $80 $129 $130 reversed $50 $-1 #
face $-1 $131 $132 $28 $-1 $133 reversed single #
loop $-1 $-1 $134 $52 #
plane-surface $-1 -34.531404869279143 3.2893579540479436 78.994820685204914 0.61566148304635926 0 0.78801074757464917 0.78801074757464917 0 -0.61566148304635926 forward_v I I I I #
coedge $-1 $135 $136 $137 $138 reversed $53 $-1 #
face $-1 $-1 $139 $29 $-1 $140 forward single #
loop $-1 $141 $142 $55 #
cone-surface $-1 56.334474220832575 0.81801740465449768 6.4163411975105653 -0.61566148304635926 0 -0.78801074757464917 0.19700268689366229 0 -0.15391537076158981 1 I I -0.70710678118654746 0.70710678118654746 0.25 forward I I I I #
loop $-1 $-1 $143 $37 #
coedge $-1 $89 $89 $144 $145 reversed $56 $-1 #
face $-1 $-1 $146 $30 $-1 $147 forward single #
loop $-1 $148 $149 $58 #
cone-surface $-1 56.334474220832575 3.2893579540479365 6.4163411975105653 -0.61566148304635926 0 -0.78801074757464917 0.19700268689366229 0 -0.15391537076158981 1 I I -0.70710678118654746 0.70710678118654746 0.25 forward I I I I #
loop $-1 $-1 $150 $38 #
coedge $-1 $94 $94 $151 $152 reversed $59 $-1 #
face $-1 $-1 $153 $31 $-1 $154 forward single #
loop $-1 $155 $156 $61 #
cone-surface $-1 56.334474220832575 5.7606985034413754 6.4163411975105653 -0.61566148304635926 0 -0.78801074757464917 0.19700268689366229 0 -0.15391537076158981 1 I I -0.70710678118654746 0.70710678118654746 0.25 forward I I I I #
loop $-1 $-1 $157 $39 #
coedge $-1 $99 $99 $158 $159 reversed $62 $-1 #
face $-1 $160 $161 $24 $-1 $162 reversed single #
loop $-1 $-1 $163 $64 #
plane-surface $-1 0 -32.074356519574778 0 0 1 0 0 0 1 forward_v I I I I #
coedge $-1 $164 $165 $166 $167 forward $65 $-1 #
coedge $-1 $168 $67 $169 $170 forward $41 $-1 #
coedge $-1 $67 $168 $171 $172 forward $41 $-1 #
coedge $-1 $173 $174 $67 $107 reversed $175 $-1 #
edge $-1 $176 -32.074356519574778 $177 32.074356519574778 $106 $178 forward 7 unknown #
face $-1 $179 $180 $25 $-1 $181 reversed single #
loop $-1 $-1 $182 $68 #
plane-surface $-1 -42.975256224081846 -43.793697745632116 0 0 1 0 0 0 1 forward_v I I I I #
coedge $-1 $183 $184 $113 $185 forward $69 $-1 #
coedge $-1 $186 $71 $187 $188 reversed $44 $-1 #
coedge $-1 $71 $186 $111 $185 reversed $44 $-1 #
coedge $-1 $189 $190 $71 $115 reversed $180 $-1 #
edge $-1 $191 -9.6233837035811511 $192 9.6233837035811511 $114 $193 forward 7 unknown #
face $-1 $194 $195 $26 $-1 $196 forward single #
loop $-1 $-1 $197 $72 #
plane-surface $-1 -59.948118533890806 0 0 1 0 0 0 0 -1 forward_v I I I I #
coedge $-1 $198 $199 $200 $201 reversed $73 $-1 #
coedge $-1 $121 $75 $202 $203 reversed $47 $-1 #
coedge $-1 $75 $120 $198 $204 reversed $47 $-1 #
coedge $-1 $200 $205 $75 $123 forward $195 $-1 #
edge $-1 $206 0.90150470794755222 $207 15.624679085366992 $122 $208 forward 7 unknown #
loop $-1 $-1 $129 $76 #
plane-surface $-1 -59.948118533890792 27.679181940122398 0.77680787294723075 -0.51503808176128008 0 0.85716729658548041 0.85716729658548041 0 0.51503808176128008 forward_v I I I I #
loop $-1 $-1 $209 $49 #
coedge $-1 $127 $127 $128 $210 reversed $77 $-1 #
coedge $-1 $128 $128 $127 $210 forward $79 $-1 #
coedge $-1 $129 $129 $80 $130 forward $124 $-1 #
edge $-1 $211 0 $211 6.2831853071796004 $129 $212 forward 7 unknown #
face $-1 $213 $214 $28 $-1 $215 forward single #
loop $-1 $-1 $216 $81 #
plane-surface $-1 39.28409025554916 -0.82954296160778895 173.47434408837486 0 1 0 0.61566148304635926 0 0.78801074757464917 forward_v I I I I #
coedge $-1 $217 $218 $219 $220 reversed $82 $-1 #
coedge $-1 $136 $84 $221 $222 reversed $53 $-1 #
coedge $-1 $84 $135 $217 $223 reversed $53 $-1 #
coedge $-1 $219 $224 $84 $138 forward $214 $-1 #
edge $-1 $225 -40.306073406116226 $226 -34.617938487615703 $137 $227 forward 7 unknown #
loop $-1 $-1 $144 $85 #
plane-surface $-1 -34.531404869279143 3.2893579540479436 78.994820685204914 0.61566148304635926 0 0.78801074757464917 0.78801074757464917 0 -0.61566148304635926 forward_v I I I I #
loop $-1 $-1 $228 $55 #
coedge $-1 $142 $142 $143 $229 reversed $86 $-1 #
coedge $-1 $143 $143 $142 $229 forward $88 $-1 #
coedge $-1 $144 $144 $89 $145 forward $139 $-1 #
edge $-1 $230 0 $230 6.2831853071796004 $144 $231 forward 7 unknown #
loop $-1 $-1 $151 $90 #
plane-surface $-1 -34.531404869279143 3.2893579540479436 78.994820685204914 0.61566148304635926 0 0.78801074757464917 0.78801074757464917 0 -0.61566148304635926 forward_v I I I I #
loop $-1 $-1 $232 $58 #
coedge $-1 $149 $149 $150 $233 reversed $91 $-1 #
coedge $-1 $150 $150 $149 $233 forward $93 $-1 #
coedge $-1 $151 $151 $94 $152 forward $146 $-1 #
edge $-1 $234 0 $234 6.2831853071796004 $151 $235 forward 7 unknown #
loop $-1 $-1 $158 $95 #
plane-surface $-1 -34.531404869279143 3.2893579540479436 78.994820685204914 0.61566148304635926 0 0.78801074757464917 0.78801074757464917 0 -0.61566148304635926 forward_v I I I I #
loop $-1 $-1 $236 $61 #
coedge $-1 $156 $156 $157 $237 reversed $96 $-1 #
coedge $-1 $157 $157 $156 $237 forward $98 $-1 #
coedge $-1 $158 $158 $99 $159 forward $153 $-1 #
edge $-1 $238 0 $238 6.2831853071796004 $158 $239 forward 7 unknown #
face $-1 $240 $241 $24 $-1 $242 reversed single #
loop $-1 $-1 $243 $100 #
plane-surface $-1 -59.948118533890806 0 0 1 0 0 0 0 -1 forward_v I I I I #
coedge $-1 $244 $171 $245 $246 forward $101 $-1 #
coedge $-1 $247 $103 $244 $248 forward $65 $-1 #
coedge $-1 $103 $247 $249 $250 forward $65 $-1 #
coedge $-1 $174 $173 $103 $167 reversed $175 $-1 #
edge $-1 $251 -32.074356519574778 $252 32.074356519574778 $166 $253 forward 7 unknown #
coedge $-1 $105 $104 $254 $255 forward $41 $-1 #
coedge $-1 $256 $257 $104 $170 reversed $241 $-1 #
edge $-1 $177 -59.948118533890806 $258 59.948118533890806 $169 $259 forward 7 unknown #
coedge $-1 $163 $260 $105 $172 reversed $101 $-1 #
edge $-1 $261 -59.948118533890806 $176 59.948118533890806 $171 $262 forward 7 unknown #
coedge $-1 $166 $106 $260 $263 forward $175 $-1 #
coedge $-1 $106 $166 $256 $264 reversed $175 $-1 #
loop $-1 $-1 $173 $240 #
vertex $-1 $107 $265 #
vertex $-1 $107 $266 #
straight-curve $-1 59.948118533890806 0 9.6233837035811511 0 1 0 I I #
face $-1 $267 $268 $25 $-1 $269 reversed single #
loop $-1 $-1 $114 $108 #
plane-surface $-1 -45.249161321435189 -37.934027132603447 0 1 0 0 0 0 -1 forward_v I I I I #
coedge $-1 $270 $271 $272 $273 forward $109 $-1 #
coedge $-1 $274 $111 $275 $276 forward $69 $-1 #
coedge $-1 $111 $274 $189 $277 forward $69 $-1 #
edge $-1 $191 -45.249161321435189 $278 -40.701351126728504 $111 $279 forward 7 unknown #
coedge $-1 $113 $112 $280 $281 forward $44 $-1 #
coedge $-1 $282 $283 $112 $188 forward $284 $-1 #
edge $-1 $285 40.701351126728504 $192 45.249161321435189 $187 $286 forward 7 unknown #
coedge $-1 $272 $114 $184 $277 reversed $180 $-1 #
coedge $-1 $114 $272 $282 $287 reversed $180 $-1 #
vertex $-1 $185 $288 #
vertex $-1 $287 $289 #
straight-curve $-1 -45.249161321435189 -32.074356519574778 0 0 0 1 I I #
face $-1 $-1 $290 $26 $-1 $291 reversed single #
loop $-1 $-1 $200 $116 #
plane-surface $-1 0 0 9.6233837035811511 0 0 1 1 0 0 forward_v I I I I #
coedge $-1 $202 $292 $293 $294 forward $117 $-1 #
coedge $-1 $293 $119 $121 $204 forward $73 $-1 #
coedge $-1 $119 $293 $295 $296 reversed $73 $-1 #
coedge $-1 $297 $122 $119 $201 forward $195 $-1 #
edge $-1 $207 9.4444163906088185 $298 18.234765549513579 $200 $299 forward 7 unknown #
coedge $-1 $300 $197 $120 $203 forward $117 $-1 #
edge $-1 $301 -50.997162762607509 $206 -42.150586931973578 $202 $302 forward 7 unknown #
edge $-1 $207 -17.176547024214621 $301 1.6583994872760861e-014 $121 $303 forward 7 unknown #
coedge $-1 $122 $297 $300 $304 forward $195 $-1 #
vertex $-1 $203 $305 #
vertex $-1 $123 $306 #
straight-curve $-1 -60.849623241838358 23.284007360670017 9.6233837035811476 1 0 0 I I #
coedge $-1 $209 $209 $-1 $307 reversed $126 $-1 #
edge $-1 $308 0 $308 6.2831853071796004 $127 $309 forward 7 unknown #
vertex $-1 $130 $310 #
ellipse-curve $-1 -52.586531345181093 27.679181940122398 5.2000957882641821 -0.51503808176128008 0 0.85716729658548041 1.2857509448782207 0 0.77255712264192011 1 I I #
face $-1 $-1 $311 $28 $-1 $312 reversed single #
loop $-1 $-1 $137 $131 #
plane-surface $-1 0 0 9.6233837035811511 0 0 1 1 0 0 forward_v I I I I #
coedge $-1 $313 $314 $315 $316 reversed $132 $-1 #
coedge $-1 $317 $134 $136 $223 forward $82 $-1 #
coedge $-1 $134 $317 $313 $318 forward $82 $-1 #
coedge $-1 $315 $137 $134 $220 forward $214 $-1 #
edge $-1 $226 -5.7635798926797044 $319 2.4742219386317608 $219 $320 forward 7 unknown #
coedge $-1 $321 $322 $135 $222 forward $311 $-1 #
edge $-1 $323 -81.55784648381082 $225 -77.113788340606277 $221 $324 forward 7 unknown #
edge $-1 $226 112.67789019115899 $323 119.89623706778161 $136 $325 forward 7 unknown #
coedge $-1 $137 $315 $321 $326 forward $214 $-1 #
vertex $-1 $138 $327 #
vertex $-1 $138 $328 #
straight-curve $-1 19.64204512777458 7.4082588697036762 9.6233837035811547 -1 0 0 I I #
coedge $-1 $228 $228 $-1 $329 reversed $141 $-1 #
edge $-1 $330 0 $330 6.2831853071796004 $142 $331 forward 7 unknown #
vertex $-1 $145 $332 #
ellipse-curve $-1 57.104051074640537 0.81801740465449768 7.4013546319788937 0.61566148304635926 0 0.78801074757464917 0.39400537378732459 0 -0.30783074152317963 1 I I #
coedge $-1 $232 $232 $-1 $333 reversed $148 $-1 #
edge $-1 $334 0 $334 6.2831853071796004 $149 $335 forward 7 unknown #
vertex $-1 $152 $336 #
ellipse-curve $-1 57.104051074640537 3.2893579540479365 7.4013546319788937 0.61566148304635926 0 0.78801074757464917 0.39400537378732459 0 -0.30783074152317963 1 I I #
coedge $-1 $236 $236 $-1 $337 reversed $155 $-1 #
edge $-1 $338 0 $338 6.2831853071796004 $156 $339 forward 7 unknown #
vertex $-1 $159 $340 #
ellipse-curve $-1 57.104051074640537 5.7606985034413754 7.4013546319788937 0.61566148304635926 0 0.78801074757464917 0.39400537378732459 0 -0.30783074152317963 1 I I #
face $-1 $-1 $175 $24 $-1 $341 reversed single #
loop $-1 $-1 $256 $160 #
plane-surface $-1 0 32.074356519574778 0 0 -1 0 0 0 -1 forward_v I I I I #
coedge $-1 $342 $254 $257 $343 forward $161 $-1 #
coedge $-1 $260 $163 $164 $248 reversed $101 $-1 #
coedge $-1 $254 $342 $163 $246 reversed $161 $-1 #
edge $-1 $261 -9.6233837035811511 $344 9.6233837035811511 $245 $345 forward 7 unknown #
coedge $-1 $165 $164 $342 $346 forward $65 $-1 #
edge $-1 $252 -59.948118533890806 $344 59.948118533890806 $244 $347 forward 7 unknown #
coedge $-1 $257 $256 $165 $250 reversed $241 $-1 #
edge $-1 $348 -59.948118533890806 $251 59.948118533890806 $249 $349 forward 7 unknown #
vertex $-1 $167 $350 #
vertex $-1 $263 $351 #
straight-curve $-1 59.948118533890806 0 -9.6233837035811511 0 -1 0 I I #
coedge $-1 $243 $245 $168 $255 reversed $161 $-1 #
edge $-1 $258 -32.074356519574778 $261 32.074356519574778 $254 $352 forward 7 unknown #
coedge $-1 $249 $169 $174 $264 forward $241 $-1 #
coedge $-1 $169 $249 $243 $343 reversed $241 $-1 #
vertex $-1 $170 $353 #
straight-curve $-1 0 32.074356519574778 9.6233837035811511 -1 0 0 I I #
coedge $-1 $171 $244 $173 $263 reversed $101 $-1 #
vertex $-1 $255 $354 #
straight-curve $-1 0 -32.074356519574778 9.6233837035811511 1 0 0 I I #
edge $-1 $176 -9.6233837035811511 $252 9.6233837035811511 $173 $355 forward 7 unknown #
edge $-1 $177 -9.6233837035811511 $251 9.6233837035811511 $174 $356 forward 7 unknown #
point $-1 59.948118533890806 -32.074356519574778 9.6233837035811511 #
point $-1 59.948118533890806 32.074356519574778 9.6233837035811511 #
face $-1 $-1 $284 $25 $-1 $357 forward single #
loop $-1 $-1 $358 $179 #
plane-surface $-1 -40.701351126728504 -37.934027132603447 0 -1 0 0 0 0 1 forward_v I I I I #
coedge $-1 $359 $182 $274 $360 reversed $109 $-1 #
coedge $-1 $182 $359 $361 $362 reversed $109 $-1 #
coedge $-1 $190 $189 $182 $273 reversed $180 $-1 #
edge $-1 $363 -9.6233837035811511 $364 9.6233837035811511 $272 $365 forward 7 unknown #
coedge $-1 $184 $183 $270 $360 forward $69 $-1 #
coedge $-1 $280 $358 $183 $276 reversed $268 $-1 #
edge $-1 $278 -5.8596706130286691 $366 5.8596706130286691 $275 $367 forward 7 unknown #
edge $-1 $364 -5.8596706130286691 $191 5.8596706130286691 $189 $368 forward 7 unknown #
vertex $-1 $276 $369 #
straight-curve $-1 0 -32.074356519574778 -9.6233837035811511 1 0 0 I I #
coedge $-1 $370 $275 $186 $281 reversed $268 $-1 #
edge $-1 $285 -9.6233837035811511 $278 9.6233837035811511 $280 $371 forward 7 unknown #
coedge $-1 $361 $187 $190 $287 forward $284 $-1 #
coedge $-1 $187 $361 $370 $372 forward $284 $-1 #
loop $-1 $-1 $187 $267 #
vertex $-1 $188 $373 #
straight-curve $-1 0 -32.074356519574778 9.6233837035811511 -1 0 0 I I #
edge $-1 $192 -5.8596706130286691 $363 5.8596706130286691 $190 $374 forward 7 unknown #
point $-1 -45.249161321435189 -32.074356519574778 -9.6233837035811511 #
point $-1 -45.249161321435189 -32.074356519574778 9.6233837035811511 #
loop $-1 $-1 $295 $194 #
plane-surface $-1 0 32.074356519574778 0 0 -1 0 0 0 -1 forward_v I I I I #
coedge $-1 $197 $300 $375 $376 forward $117 $-1 #
coedge $-1 $199 $198 $197 $294 reversed $73 $-1 #
edge $-1 $377 -18.234765549513579 $301 -9.4444163906088185 $197 $378 forward 7 unknown #
coedge $-1 $375 $379 $199 $296 forward $290 $-1 #
edge $-1 $298 8.3161935069360293 $377 25.492740531150666 $295 $380 forward 7 unknown #
coedge $-1 $205 $200 $379 $381 forward $195 $-1 #
vertex $-1 $381 $382 #
straight-curve $-1 -45.224944156471366 13.839590970061199 9.6233837035811511 0 1 0 I I #
coedge $-1 $292 $202 $205 $304 reversed $117 $-1 #
vertex $-1 $203 $383 #
straight-curve $-1 -59.948118533890806 23.284007360670017 51.773970635554733 0 0 1 I I #
straight-curve $-1 -59.948118533890792 23.284007360670017 0.77680787294723075 -0.85716729658548041 0 -0.51503808176128008 I I #
edge $-1 $384 -32.074356519574778 $206 -23.284007360670017 $300 $385 forward 7 unknown #
point $-1 -59.948118533890806 23.284007360670017 9.6233837035811511 #
point $-1 -45.224944156471366 23.284007360670017 9.6233837035811511 #
edge $-1 $386 1 $386 0 $209 $-1 forward 7 unknown #
vertex $-1 $210 $387 #
ellipse-curve $-1 -50.59660791151375 27.679181940122398 1.8883071061229642 -0.51503808176128008 0 0.85716729658548041 1.2857509448782207 0 0.77255712264192011 1 I I #
point $-1 -51.300780400302884 27.679181940122398 5.9726529109061168 #
loop $-1 $-1 $221 $213 #
plane-surface $-1 59.948118533890806 0 0 -1 0 0 0 0 1 forward_v I I I I #
coedge $-1 $314 $216 $218 $318 reversed $132 $-1 #
coedge $-1 $216 $313 $388 $389 reversed $132 $-1 #
coedge $-1 $224 $219 $216 $316 forward $214 $-1 #
edge $-1 $319 34.617938487615703 $390 40.306073406116226 $315 $391 forward 7 unknown #
coedge $-1 $218 $217 $322 $392 reversed $82 $-1 #
edge $-1 $393 -119.89623706778161 $319 -112.67789019115899 $313 $394 forward 7 unknown #
vertex $-1 $220 $395 #
straight-curve $-1 54.25998361539029 1.6446789770239718 9.6233837035811476 0 -1 0 I I #
coedge $-1 $388 $221 $224 $326 reversed $311 $-1 #
coedge $-1 $221 $388 $317 $392 forward $311 $-1 #
vertex $-1 $222 $396 #
straight-curve $-1 59.948118533890806 7.4082588697036762 86.737172044187432 0 0 1 I I #
straight-curve $-1 -34.531404869279143 7.4082588697036762 78.994820685204914 0.78801074757464917 0 -0.61566148304635926 I I #
edge $-1 $390 -0.82954296160778895 $225 7.4082588697036762 $321 $397 forward 7 unknown #
point $-1 59.948118533890806 7.4082588697036762 9.6233837035811511 #
point $-1 54.259983615390283 7.4082588697036762 9.6233837035811547 #
edge $-1 $398 1 $398 0 $228 $-1 forward 7 unknown #
vertex $-1 $229 $399 #
ellipse-curve $-1 56.488389591594164 0.81801740465449768 6.6133438844042276 0.61566148304635926 0 0.78801074757464917 0.39400537378732459 0 -0.30783074152317963 1 I I #
point $-1 57.498056448427846 0.81801740465449768 7.093523890455697 #
edge $-1 $400 1 $400 0 $232 $-1 forward 7 unknown #
vertex $-1 $233 $401 #
ellipse-curve $-1 56.488389591594164 3.2893579540479365 6.6133438844042276 0.61566148304635926 0 0.78801074757464917 0.39400537378732459 0 -0.30783074152317963 1 I I #
point $-1 57.498056448427846 3.2893579540479365 7.093523890455697 #
edge $-1 $402 1 $402 0 $236 $-1 forward 7 unknown #
vertex $-1 $237 $403 #
ellipse-curve $-1 56.488389591594164 5.7606985034413754 6.6133438844042276 0.61566148304635926 0 0.78801074757464917 0.39400537378732459 0 -0.30783074152317963 1 I I #
point $-1 57.498056448427846 5.7606985034413754 7.093523890455697 #
plane-surface $-1 59.948118533890806 0 0 -1 0 0 0 0 1 forward_v I I I I #
coedge $-1 $245 $243 $247 $346 reversed $161 $-1 #
edge $-1 $258 -9.6233837035811511 $348 9.6233837035811511 $257 $404 forward 7 unknown #
vertex $-1 $346 $405 #
straight-curve $-1 -59.948118533890806 -32.074356519574778 0 0 0 -1 I I #
edge $-1 $344 -32.074356519574778 $348 32.074356519574778 $342 $406 forward 7 unknown #
straight-curve $-1 0 -32.074356519574778 -9.6233837035811511 -1 0 0 I I #
vertex $-1 $250 $407 #
straight-curve $-1 0 32.074356519574778 -9.6233837035811511 1 0 0 I I #
point $-1 59.948118533890806 32.074356519574778 -9.6233837035811511 #
point $-1 59.948118533890806 -32.074356519574778 -9.6233837035811511 #
straight-curve $-1 -59.948118533890806 0 9.6233837035811511 0 -1 0 I I #
point $-1 -59.948118533890806 32.074356519574778 9.6233837035811511 #
point $-1 -59.948118533890806 -32.074356519574778 9.6233837035811511 #
straight-curve $-1 59.948118533890806 -32.074356519574778 0 0 0 -1 I I #
straight-curve $-1 59.948118533890806 32.074356519574778 0 0 0 -1 I I #
plane-surface $-1 0 0 9.6233837035811511 0 0 1 1 0 0 forward_v I I I I #
coedge $-1 $275 $370 $359 $408 forward $268 $-1 #
coedge $-1 $271 $270 $358 $408 reversed $109 $-1 #
edge $-1 $366 -2.2739050973533423 $364 2.2739050973533423 $270 $409 forward 7 unknown #
coedge $-1 $283 $282 $271 $362 forward $284 $-1 #
edge $-1 $363 -2.2739050973533423 $410 2.2739050973533423 $271 $411 forward 7 unknown #
vertex $-1 $287 $412 #
vertex $-1 $277 $413 #
straight-curve $-1 -45.249161321435189 -43.793697745632116 0 0 0 -1 I I #
vertex $-1 $408 $414 #
straight-curve $-1 -40.701351126728504 -37.934027132603447 -9.6233837035811511 0 -1 0 I I #
straight-curve $-1 -45.249161321435189 -37.934027132603447 -9.6233837035811511 0 1 0 I I #
point $-1 -40.701351126728504 -32.074356519574778 -9.6233837035811511 #
coedge $-1 $358 $280 $283 $372 reversed $268 $-1 #
straight-curve $-1 -40.701351126728504 -32.074356519574778 0 0 0 -1 I I #
edge $-1 $410 -5.8596706130286691 $285 5.8596706130286691 $370 $415 forward 7 unknown #
point $-1 -40.701351126728504 -32.074356519574778 9.6233837035811511 #
straight-curve $-1 -45.249161321435189 -37.934027132603447 9.6233837035811511 0 -1 0 I I #
coedge $-1 $379 $295 $292 $376 reversed $290 $-1 #
edge $-1 $384 -9.6233837035811511 $377 -0.7768078729472222 $375 $416 forward 7 unknown #
vertex $-1 $296 $417 #
straight-curve $-1 -59.948118533890806 13.839590970061199 0.77680787294722209 0 -1 0 I I #
coedge $-1 $295 $375 $297 $381 reversed $290 $-1 #
straight-curve $-1 -38.096575050249285 32.074356519574778 13.906540054949097 -0.85716729658548041 0 -0.51503808176128008 I I #
edge $-1 $298 45.224944156471366 $384 59.948118533890806 $379 $418 forward 7 unknown #
point $-1 -45.224944156471366 32.074356519574778 9.6233837035811511 #
point $-1 -59.948118533890806 23.284007360670017 0.7768078729472222 #
vertex $-1 $381 $419 #
straight-curve $-1 -59.948118533890806 0 9.6233837035811511 0 -1 0 I I #
vertex $-1 $307 $420 #
point $-1 -49.310856966635534 27.679181940122398 2.6608642287648845 #
coedge $-1 $322 $321 $314 $389 forward $311 $-1 #
edge $-1 $390 77.113788340606277 $393 81.55784648381082 $388 $421 forward 7 unknown #
vertex $-1 $326 $422 #
straight-curve $-1 19.64204512777458 -0.82954296160778895 9.6233837035811547 1 0 0 I I #
edge $-1 $393 -2.4742219386317608 $323 5.7635798926797044 $322 $423 forward 7 unknown #
vertex $-1 $392 $424 #
straight-curve $-1 -34.531404869279143 -0.82954296160778895 78.994820685204914 -0.78801074757464917 0 0.61566148304635926 I I #
point $-1 54.259983615390283 -0.82954296160778895 9.6233837035811547 #
point $-1 59.948118533890806 7.4082588697036762 5.1793255603766113 #
straight-curve $-1 59.948118533890806 0 9.6233837035811511 0 1 0 I I #
vertex $-1 $329 $425 #
point $-1 56.882394965381486 0.81801740465449768 6.3055131428810478 #
vertex $-1 $333 $426 #
point $-1 56.882394965381486 3.2893579540479365 6.3055131428810478 #
vertex $-1 $337 $427 #
point $-1 56.882394965381486 5.7606985034413754 6.3055131428810478 #
straight-curve $-1 -59.948118533890806 32.074356519574778 0 0 0 -1 I I #
point $-1 -59.948118533890806 -32.074356519574778 -9.6233837035811511 #
straight-curve $-1 -59.948118533890806 0 -9.6233837035811511 0 1 0 I I #
point $-1 -59.948118533890806 32.074356519574778 -9.6233837035811511 #
edge $-1 $410 -9.6233837035811511 $366 9.6233837035811511 $358 $428 forward 7 unknown #
straight-curve $-1 -42.975256224081846 -43.793697745632116 -9.6233837035811511 -1 0 0 I I #
vertex $-1 $372 $429 #
straight-curve $-1 -42.975256224081846 -43.793697745632116 9.6233837035811511 1 0 0 I I #
point $-1 -45.249161321435189 -43.793697745632116 9.6233837035811511 #
point $-1 -45.249161321435189 -43.793697745632116 -9.6233837035811511 #
point $-1 -40.701351126728504 -43.793697745632116 -9.6233837035811511 #
straight-curve $-1 -40.701351126728504 -37.934027132603447 9.6233837035811511 0 1 0 I I #
straight-curve $-1 -59.948118533890806 32.074356519574778 0 0 0 -1 I I #
point $-1 -59.948118533890806 32.074356519574778 0.7768078729472222 #
straight-curve $-1 0 32.074356519574778 9.6233837035811511 -1 0 0 I I #
point $-1 -59.948118533890806 32.074356519574778 9.6233837035811511 #
point $-1 -49.824050788871837 27.679181940122398 0.60255616124474343 #
straight-curve $-1 59.948118533890806 -0.82954296160778895 86.737172044187432 0 0 -1 I I #
point $-1 59.948118533890806 -0.82954296160778895 9.6233837035811511 #
straight-curve $-1 59.948118533890813 1.6446789770239718 5.1793255603766042 0 1 0 I I #
point $-1 59.948118533890806 -0.82954296160778895 5.1793255603766113 #
point $-1 56.180558850070987 0.81801740465449768 6.219338510616903 #
point $-1 56.180558850070987 3.2893579540479365 6.219338510616903 #
point $-1 56.180558850070987 5.7606985034413754 6.219338510616903 #
straight-curve $-1 -40.701351126728504 -43.793697745632116 0 0 0 -1 I I #
point $-1 -40.701351126728504 -43.793697745632116 9.6233837035811511 #
End-of-ACIS-data 