500 0 12 0           
7 Unknown 11 ACIS 5.0 NT 24 Thu Mar 25 23:29:47 1999 
-1 9.9999999999999995e-007 1e-010 
body $-1 $12 $-1 $13 #
body $-1 $14 $-1 $15 #
body $-1 $16 $-1 $17 #
body $-1 $18 $-1 $19 #
body $-1 $20 $-1 $21 #
body $-1 $22 $-1 $23 #
body $-1 $24 $-1 $25 #
body $-1 $26 $-1 $27 #
body $-1 $28 $-1 $29 #
body $-1 $30 $-1 $31 #
body $-1 $32 $-1 $33 #
body $-1 $34 $-1 $35 #
lump $-1 $-1 $36 $0 #
transform $-1 1 0 0 0 1 0 0 0 1 57.263710440382091 23.441299283456562 9.2834470171706531 1 rotate no_reflect no_shear #
lump $-1 $-1 $37 $1 #
transform $-1 1 0 0 0 1 0 0 0 1 57.263710440382091 23.441299283456562 9.2834470171706531 1 rotate no_reflect no_shear #
lump $-1 $-1 $38 $2 #
transform $-1 1 0 0 0 1 0 0 0 1 57.263710440382091 23.441299283456562 9.2834470171706531 1 rotate no_reflect no_shear #
lump $-1 $-1 $39 $3 #
transform $-1 1 0 0 0 1 0 0 0 1 57.263710440382091 23.441299283456562 9.2834470171706531 1 rotate no_reflect no_shear #
lump $-1 $-1 $40 $4 #
transform $-1 1 0 0 0 1 0 0 0 1 57.263710440382091 23.441299283456562 9.2834470171706531 1 rotate no_reflect no_shear #
lump $-1 $-1 $41 $5 #
transform $-1 1 0 0 0 1 0 0 0 1 57.263710440382091 23.441299283456562 9.2834470171706531 1 rotate no_reflect no_shear #
lump $-1 $-1 $42 $6 #
transform $-1 1 0 0 0 1 0 0 0 1 57.263710440382091 23.441299283456562 9.2834470171706531 1 rotate no_reflect no_shear #
lump $-1 $-1 $43 $7 #
transform $-1 1 0 0 0 1 0 0 0 1 57.263710440382091 23.441299283456562 9.2834470171706531 1 rotate no_reflect no_shear #
lump $-1 $-1 $44 $8 #
transform $-1 1 0 0 0 1 0 0 0 1 57.263710440382091 23.441299283456562 9.2834470171706531 1 rotate no_reflect no_shear #
lump $-1 $-1 $45 $9 #
transform $-1 1 0 0 0 1 0 0 0 1 57.263710440382091 23.441299283456562 9.2834470171706531 1 rotate no_reflect no_shear #
lump $-1 $-1 $46 $10 #
transform $-1 1 0 0 0 1 0 0 0 1 57.263710440382091 23.441299283456562 9.2834470171706531 1 rotate no_reflect no_shear #
lump $-1 $-1 $47 $11 #
transform $-1 1 0 0 0 1 0 0 0 1 57.263710440382091 23.441299283456562 9.2834470171706531 1 rotate no_reflect no_shear #
shell $-1 $-1 $-1 $48 $-1 $12 #
shell $-1 $-1 $-1 $49 $-1 $14 #
shell $-1 $-1 $-1 $50 $-1 $16 #
shell $-1 $-1 $-1 $51 $-1 $18 #
shell $-1 $-1 $-1 $52 $-1 $20 #
shell $-1 $-1 $-1 $53 $-1 $22 #
shell $-1 $-1 $-1 $54 $-1 $24 #
shell $-1 $-1 $-1 $55 $-1 $26 #
shell $-1 $-1 $-1 $56 $-1 $28 #
shell $-1 $-1 $-1 $57 $-1 $30 #
shell $-1 $-1 $-1 $58 $-1 $32 #
shell $-1 $-1 $-1 $59 $-1 $34 #
face $-1 $60 $61 $36 $-1 $62 forward single #
face $-1 $63 $64 $37 $-1 $65 reversed single #
face $-1 $66 $67 $38 $-1 $68 reversed single #
face $-1 $69 $70 $39 $-1 $71 forward single #
face $-1 $72 $73 $40 $-1 $74 forward single #
face $-1 $75 $76 $41 $-1 $77 forward single #
face $-1 $78 $79 $42 $-1 $80 reversed single #
face $-1 $81 $82 $43 $-1 $83 forward single #
face $-1 $84 $85 $44 $-1 $86 forward single #
face $-1 $87 $88 $45 $-1 $89 reversed single #
face $-1 $90 $91 $46 $-1 $92 forward single #
face $-1 $93 $94 $47 $-1 $95 forward single #
face $-1 $96 $97 $36 $-1 $98 reversed single #
loop $-1 $-1 $99 $48 #
plane-surface $-1 0 0 9.2834470171706531 0 0 1 1 0 0 forward_v I I I I #
face $-1 $100 $101 $37 $-1 $102 reversed single #
loop $-1 $-1 $103 $49 #
plane-surface $-1 0 -19.77219725199781 5.4715305696098682 0 0 1 1 0 0 forward_v I I I I #
face $-1 $104 $105 $38 $-1 $106 reversed single #
loop $-1 $-1 $107 $50 #
plane-surface $-1 -38.787066144283585 18.047354016526068 62.805266905267672 0.54463904215088732 0 0.83867056331134215 0.83867056331134215 0 -0.54463904215088732 forward_v I I I I #
face $-1 $108 $109 $39 $-1 $110 forward single #
loop $-1 $111 $112 $51 #
cone-surface $-1 49.922887938431828 14.810986856367766 4.0499988402146547 -0.54463904215088732 0 -0.83867056331134215 0.41933528165567108 0 -0.27231952107544366 1 I I 0 1 0.5 forward I I I I #
face $-1 $113 $114 $40 $-1 $115 forward single #
loop $-1 $116 $117 $52 #
cone-surface $-1 49.922887938431828 18.047354016526061 4.0499988402146547 -0.54463904215088732 0 -0.83867056331134215 0.41933528165567108 0 -0.27231952107544366 1 I I 0 1 0.5 forward I I I I #
face $-1 $118 $119 $41 $-1 $120 forward single #
loop $-1 $121 $122 $53 #
cone-surface $-1 49.922887938431828 21.283721176684356 4.0499988402146547 -0.54463904215088732 0 -0.83867056331134215 0.41933528165567108 0 -0.27231952107544366 1 I I 0 1 0.5 forward I I I I #
face $-1 $123 $124 $42 $-1 $125 reversed single #
loop $-1 $-1 $126 $54 #
plane-surface $-1 -148.72937657175871 -13.617243015248842 73.829770527480449 0 1 0 -0.79863551827123203 0 0.60181501223851219 forward_v I I I I #
face $-1 $127 $128 $43 $-1 $129 forward single #
loop $-1 $130 $131 $55 #
cone-surface $-1 -55.202616267587992 -11.558989396385655 6.7843115018853455 0.79863551827123203 0 -0.60181501223851219 0.60181501223851219 0 0.79863551827123203 1 I I 0 1 1 forward I I I I #
face $-1 $132 $133 $44 $-1 $134 forward single #
loop $-1 $135 $136 $56 #
cone-surface $-1 -55.202616267587992 -8.4716089680908784 6.7843115018853455 0.79863551827123203 0 -0.60181501223851219 0.60181501223851219 0 0.79863551827123203 1 I I 0 1 1 forward I I I I #
face $-1 $137 $138 $45 $-1 $139 reversed single #
loop $-1 $-1 $140 $57 #
plane-surface $-1 -148.72937657175871 13.751559412145188 73.829770527480449 0 1 0 -0.79863551827123203 0 0.60181501223851219 forward_v I I I I #
face $-1 $141 $142 $46 $-1 $143 forward single #
loop $-1 $144 $145 $58 #
cone-surface $-1 -55.202616267587992 15.809813031008378 6.7843115018853455 0.79863551827123203 0 -0.60181501223851219 0.60181501223851219 0 0.79863551827123203 1 I I 0 1 1 forward I I I I #
face $-1 $146 $147 $47 $-1 $148 forward single #
loop $-1 $149 $150 $59 #
cone-surface $-1 -55.202616267587992 18.897193459303157 6.7843115018853455 0.79863551827123203 0 -0.60181501223851219 0.60181501223851219 0 0.79863551827123203 1 I I 0 1 1 forward I I I I #
face $-1 $151 $152 $36 $-1 $153 reversed single #
loop $-1 $-1 $154 $60 #
plane-surface $-1 0 0 -9.2834470171706531 0 0 1 1 0 0 forward_v I I I I #
coedge $-1 $155 $156 $157 $158 forward $61 $-1 #
face $-1 $159 $160 $37 $-1 $161 reversed single #
loop $-1 $-1 $162 $63 #
plane-surface $-1 0 -16.103095220539061 7.3774887933902615 0 -1 0 0 0 -1 forward_v I I I I #
coedge $-1 $163 $164 $165 $166 reversed $64 $-1 #
face $-1 $167 $168 $38 $-1 $169 reversed single #
loop $-1 $-1 $170 $66 #
plane-surface $-1 23.589038664227353 12.65340874959557 158.85604348993334 0 1 0 0.54463904215088732 0 0.83867056331134215 forward_v I I I I #
coedge $-1 $171 $172 $173 $174 reversed $67 $-1 #
face $-1 $-1 $175 $39 $-1 $176 forward single #
loop $-1 $177 $178 $69 #
cone-surface $-1 49.263107113244963 14.810986856367766 3.0340254826377855 -0.54463904215088732 0 -0.83867056331134215 0.20966764082783554 0 -0.13615976053772183 1 I I -0.70710678118654746 0.70710678118654746 0.25 forward I I I I #
loop $-1 $-1 $179 $51 #
coedge $-1 $112 $112 $180 $181 reversed $70 $-1 #
face $-1 $-1 $182 $40 $-1 $183 forward single #
loop $-1 $184 $185 $72 #
cone-surface $-1 49.263107113244963 18.047354016526061 3.0340254826377855 -0.54463904215088732 0 -0.83867056331134215 0.20966764082783554 0 -0.13615976053772183 1 I I -0.70710678118654746 0.70710678118654746 0.25 forward I I I I #
loop $-1 $-1 $186 $52 #
coedge $-1 $117 $117 $187 $188 reversed $73 $-1 #
face $-1 $-1 $189 $41 $-1 $190 forward single #
loop $-1 $191 $192 $75 #
cone-surface $-1 49.263107113244963 21.283721176684356 3.0340254826377855 -0.54463904215088732 0 -0.83867056331134215 0.20966764082783554 0 -0.13615976053772183 1 I I -0.70710678118654746 0.70710678118654746 0.25 forward I I I I #
loop $-1 $-1 $193 $53 #
coedge $-1 $122 $122 $194 $195 reversed $76 $-1 #
face $-1 $196 $197 $42 $-1 $198 reversed single #
loop $-1 $-1 $199 $78 #
plane-surface $-1 -57.263710440382084 -10.01529918223827 4.9054493284781131 -0.79863551827123203 0 0.60181501223851219 0.60181501223851219 0 0.79863551827123203 forward_v I I I I #
coedge $-1 $200 $201 $202 $203 reversed $79 $-1 #
face $-1 $-1 $204 $43 $-1 $205 forward single #
loop $-1 $206 $207 $81 #
cone-surface $-1 -54.391733233586564 -11.558989396385655 6.1732673248270498 0.79863551827123203 0 -0.60181501223851219 0.3009075061192561 0 0.39931775913561601 1 I I -0.70710678118654746 0.70710678118654746 0.5 forward I I I I #
loop $-1 $-1 $208 $55 #
coedge $-1 $131 $131 $209 $210 reversed $82 $-1 #
face $-1 $-1 $211 $44 $-1 $212 forward single #
loop $-1 $213 $214 $84 #
cone-surface $-1 -54.391733233586564 -8.4716089680908784 6.1732673248270498 0.79863551827123203 0 -0.60181501223851219 0.3009075061192561 0 0.39931775913561601 1 I I -0.70710678118654746 0.70710678118654746 0.5 forward I I I I #
loop $-1 $-1 $215 $56 #
coedge $-1 $136 $136 $216 $217 reversed $85 $-1 #
face $-1 $218 $219 $45 $-1 $220 reversed single #
loop $-1 $-1 $221 $87 #
plane-surface $-1 -57.263710440382084 17.35350324515576 4.9054493284781131 -0.79863551827123203 0 0.60181501223851219 0.60181501223851219 0 0.79863551827123203 forward_v I I I I #
coedge $-1 $222 $223 $224 $225 reversed $88 $-1 #
face $-1 $-1 $226 $46 $-1 $227 forward single #
loop $-1 $228 $229 $90 #
cone-surface $-1 -54.391733233586564 15.809813031008378 6.1732673248270498 0.79863551827123203 0 -0.60181501223851219 0.3009075061192561 0 0.39931775913561601 1 I I -0.70710678118654746 0.70710678118654746 0.5 forward I I I I #
loop $-1 $-1 $230 $58 #
coedge $-1 $145 $145 $231 $232 reversed $91 $-1 #
face $-1 $-1 $233 $47 $-1 $234 forward single #
loop $-1 $235 $236 $93 #
cone-surface $-1 -54.391733233586564 18.897193459303157 6.1732673248270498 0.79863551827123203 0 -0.60181501223851219 0.3009075061192561 0 0.39931775913561601 1 I I -0.70710678118654746 0.70710678118654746 0.5 forward I I I I #
loop $-1 $-1 $237 $59 #
coedge $-1 $150 $150 $238 $239 reversed $94 $-1 #
face $-1 $240 $241 $36 $-1 $242 reversed single #
loop $-1 $-1 $243 $96 #
plane-surface $-1 0 -23.441299283456562 0 0 1 0 0 0 1 forward_v I I I I #
coedge $-1 $244 $245 $246 $247 forward $97 $-1 #
coedge $-1 $248 $99 $249 $250 forward $61 $-1 #
coedge $-1 $99 $248 $251 $252 forward $61 $-1 #
coedge $-1 $253 $254 $99 $158 reversed $255 $-1 #
edge $-1 $256 -23.441299283456562 $257 23.441299283456562 $157 $258 forward 7 unknown #
face $-1 $259 $260 $37 $-1 $261 reversed single #
loop $-1 $-1 $262 $100 #
plane-surface $-1 -57.263710440382091 0 0 1 0 0 0 0 -1 forward_v I I I I #
coedge $-1 $263 $264 $265 $266 reversed $101 $-1 #
coedge $-1 $267 $103 $268 $269 reversed $64 $-1 #
coedge $-1 $103 $267 $263 $270 forward $64 $-1 #
coedge $-1 $265 $271 $103 $166 forward $272 $-1 #
edge $-1 $273 -13.555200657457654 $274 -6.2169965945401557 $165 $275 forward 7 unknown #
face $-1 $276 $277 $38 $-1 $278 forward single #
loop $-1 $-1 $279 $104 #
plane-surface $-1 0 23.441299283456562 0 0 -1 0 0 0 -1 forward_v I I I I #
coedge $-1 $280 $281 $282 $283 reversed $105 $-1 #
coedge $-1 $284 $107 $279 $285 reversed $67 $-1 #
coedge $-1 $107 $284 $280 $286 forward $67 $-1 #
coedge $-1 $282 $287 $107 $174 forward $277 $-1 #
edge $-1 $288 -14.417622275193532 $289 -3.6297317413325363 $173 $290 forward 7 unknown #
loop $-1 $-1 $180 $108 #
plane-surface $-1 -38.787066144283585 18.047354016526068 62.805266905267672 0.54463904215088732 0 0.83867056331134215 0.83867056331134215 0 -0.54463904215088732 forward_v I I I I #
loop $-1 $-1 $291 $69 #
coedge $-1 $178 $178 $179 $292 reversed $109 $-1 #
coedge $-1 $179 $179 $178 $292 forward $111 $-1 #
coedge $-1 $180 $180 $112 $181 forward $175 $-1 #
edge $-1 $293 0 $293 6.2831853071796004 $180 $294 forward 7 unknown #
loop $-1 $-1 $187 $113 #
plane-surface $-1 -38.787066144283585 18.047354016526068 62.805266905267672 0.54463904215088732 0 0.83867056331134215 0.83867056331134215 0 -0.54463904215088732 forward_v I I I I #
loop $-1 $-1 $295 $72 #
coedge $-1 $185 $185 $186 $296 reversed $114 $-1 #
coedge $-1 $186 $186 $185 $296 forward $116 $-1 #
coedge $-1 $187 $187 $117 $188 forward $182 $-1 #
edge $-1 $297 0 $297 6.2831853071796004 $187 $298 forward 7 unknown #
loop $-1 $-1 $194 $118 #
plane-surface $-1 -38.787066144283585 18.047354016526068 62.805266905267672 0.54463904215088732 0 0.83867056331134215 0.83867056331134215 0 -0.54463904215088732 forward_v I I I I #
loop $-1 $-1 $299 $75 #
coedge $-1 $192 $192 $193 $300 reversed $119 $-1 #
coedge $-1 $193 $193 $192 $300 forward $121 $-1 #
coedge $-1 $194 $194 $122 $195 forward $189 $-1 #
edge $-1 $301 0 $301 6.2831853071796004 $194 $302 forward 7 unknown #
face $-1 $303 $304 $42 $-1 $305 reversed single #
loop $-1 $-1 $306 $123 #
plane-surface $-1 -148.72937657175871 -6.4133553492276976 73.829770527480449 0 -1 0 0.79863551827123203 0 -0.60181501223851219 forward_v I I I I #
coedge $-1 $307 $308 $309 $310 reversed $124 $-1 #
coedge $-1 $201 $126 $311 $312 reversed $79 $-1 #
coedge $-1 $126 $200 $307 $313 reversed $79 $-1 #
coedge $-1 $309 $314 $126 $203 forward $315 $-1 #
edge $-1 $316 17.100977845497262 $317 20.40003564135386 $202 $318 forward 7 unknown #
loop $-1 $-1 $209 $127 #
plane-surface $-1 -57.263710440382084 -10.01529918223827 4.9054493284781131 -0.79863551827123203 0 0.60181501223851219 0.60181501223851219 0 0.79863551827123203 forward_v I I I I #
loop $-1 $-1 $319 $81 #
coedge $-1 $207 $207 $208 $320 reversed $128 $-1 #
coedge $-1 $208 $208 $207 $320 forward $130 $-1 #
coedge $-1 $209 $209 $131 $210 forward $204 $-1 #
edge $-1 $321 0 $321 6.2831853071796004 $209 $322 forward 7 unknown #
loop $-1 $-1 $216 $132 #
plane-surface $-1 -57.263710440382084 -10.01529918223827 4.9054493284781131 -0.79863551827123203 0 0.60181501223851219 0.60181501223851219 0 0.79863551827123203 forward_v I I I I #
loop $-1 $-1 $323 $84 #
coedge $-1 $214 $214 $215 $324 reversed $133 $-1 #
coedge $-1 $215 $215 $214 $324 forward $135 $-1 #
coedge $-1 $216 $216 $136 $217 forward $211 $-1 #
edge $-1 $325 0 $325 6.2831853071796004 $216 $326 forward 7 unknown #
face $-1 $327 $328 $45 $-1 $329 forward single #
loop $-1 $-1 $330 $137 #
plane-surface $-1 -148.72937657175871 20.955447078166333 73.829770527480449 0 -1 0 0.79863551827123203 0 -0.60181501223851219 forward_v I I I I #
coedge $-1 $331 $332 $333 $334 reversed $138 $-1 #
coedge $-1 $223 $140 $335 $336 reversed $88 $-1 #
coedge $-1 $140 $222 $331 $337 reversed $88 $-1 #
coedge $-1 $333 $338 $140 $225 forward $328 $-1 #
edge $-1 $339 17.100977845497262 $340 20.40003564135386 $224 $341 forward 7 unknown #
loop $-1 $-1 $231 $141 #
plane-surface $-1 -57.263710440382084 17.35350324515576 4.9054493284781131 -0.79863551827123203 0 0.60181501223851219 0.60181501223851219 0 0.79863551827123203 forward_v I I I I #
loop $-1 $-1 $342 $90 #
coedge $-1 $229 $229 $230 $343 reversed $142 $-1 #
coedge $-1 $230 $230 $229 $343 forward $144 $-1 #
coedge $-1 $231 $231 $145 $232 forward $226 $-1 #
edge $-1 $344 0 $344 6.2831853071796004 $231 $345 forward 7 unknown #
loop $-1 $-1 $238 $146 #
plane-surface $-1 -57.263710440382084 17.35350324515576 4.9054493284781131 -0.79863551827123203 0 0.60181501223851219 0.60181501223851219 0 0.79863551827123203 forward_v I I I I #
loop $-1 $-1 $346 $93 #
coedge $-1 $236 $236 $237 $347 reversed $147 $-1 #
coedge $-1 $237 $237 $236 $347 forward $149 $-1 #
coedge $-1 $238 $238 $150 $239 forward $233 $-1 #
edge $-1 $348 0 $348 6.2831853071796004 $238 $349 forward 7 unknown #
face $-1 $350 $351 $36 $-1 $352 reversed single #
loop $-1 $-1 $353 $151 #
plane-surface $-1 -57.263710440382091 0 0 1 0 0 0 0 -1 forward_v I I I I #
coedge $-1 $354 $251 $355 $356 forward $152 $-1 #
coedge $-1 $357 $154 $354 $358 forward $97 $-1 #
coedge $-1 $154 $357 $359 $360 forward $97 $-1 #
coedge $-1 $254 $253 $154 $247 reversed $255 $-1 #
edge $-1 $361 -23.441299283456562 $362 23.441299283456562 $246 $363 forward 7 unknown #
coedge $-1 $156 $155 $364 $365 forward $61 $-1 #
coedge $-1 $366 $367 $155 $250 reversed $351 $-1 #
edge $-1 $257 -57.263710440382091 $368 57.263710440382091 $249 $369 forward 7 unknown #
coedge $-1 $243 $370 $156 $252 reversed $152 $-1 #
edge $-1 $371 -57.263710440382091 $256 57.263710440382091 $251 $372 forward 7 unknown #
coedge $-1 $246 $157 $370 $373 forward $255 $-1 #
coedge $-1 $157 $246 $366 $374 reversed $255 $-1 #
loop $-1 $-1 $253 $350 #
vertex $-1 $158 $375 #
vertex $-1 $158 $376 #
straight-curve $-1 57.263710440382091 0 9.2834470171706531 0 1 0 I I #
face $-1 $377 $378 $37 $-1 $379 forward single #
loop $-1 $-1 $268 $159 #
plane-surface $-1 0 -23.441299283456562 0 0 1 0 0 0 1 forward_v I I I I #
coedge $-1 $380 $381 $382 $383 forward $160 $-1 #
coedge $-1 $382 $162 $164 $270 reversed $101 $-1 #
coedge $-1 $162 $382 $384 $385 reversed $101 $-1 #
coedge $-1 $386 $165 $162 $266 forward $272 $-1 #
edge $-1 $274 1.7827861729147374 $387 5.5947026204755241 $265 $388 forward 7 unknown #
coedge $-1 $164 $163 $380 $389 reversed $64 $-1 #
coedge $-1 $390 $391 $163 $269 forward $260 $-1 #
edge $-1 $392 -57.263710440382091 $273 57.263710440382091 $268 $393 forward 7 unknown #
edge $-1 $394 -57.263710440382091 $274 57.263710440382091 $263 $395 forward 7 unknown #
coedge $-1 $165 $386 $390 $396 forward $272 $-1 #
loop $-1 $-1 $265 $377 #
vertex $-1 $269 $397 #
vertex $-1 $166 $398 #
straight-curve $-1 57.263710440382091 -9.8860986259989048 5.4715305696098682 0 1 0 I I #
face $-1 $-1 $399 $38 $-1 $400 reversed single #
loop $-1 $-1 $173 $167 #
plane-surface $-1 0 0 9.2834470171706531 0 0 1 1 0 0 forward_v I I I I #
coedge $-1 $401 $402 $171 $285 forward $168 $-1 #
coedge $-1 $281 $170 $172 $286 reversed $105 $-1 #
coedge $-1 $170 $280 $403 $404 reversed $105 $-1 #
coedge $-1 $405 $173 $170 $283 forward $277 $-1 #
edge $-1 $289 31.834788233666178 $406 45.469191108268419 $282 $407 forward 7 unknown #
coedge $-1 $172 $171 $408 $409 reversed $67 $-1 #
edge $-1 $410 -81.159535369895963 $288 -64.902373772654258 $279 $411 forward 7 unknown #
edge $-1 $412 -114.5274208807642 $289 -98.270259283522464 $280 $413 forward 7 unknown #
coedge $-1 $173 $405 $401 $414 forward $277 $-1 #
vertex $-1 $174 $415 #
vertex $-1 $174 $416 #
straight-curve $-1 43.629307565779868 9.023677008263034 9.2834470171706513 0 -1 0 I I #
coedge $-1 $291 $291 $-1 $417 reversed $177 $-1 #
edge $-1 $418 0 $418 6.2831853071796004 $178 $419 forward 7 unknown #
vertex $-1 $181 $420 #
ellipse-curve $-1 50.446509003080969 14.810986856367766 4.8563045569636882 0.54463904215088732 0 0.83867056331134215 0.41933528165567108 0 -0.27231952107544366 1 I I #
coedge $-1 $295 $295 $-1 $421 reversed $184 $-1 #
edge $-1 $422 0 $422 6.2831853071796004 $185 $423 forward 7 unknown #
vertex $-1 $188 $424 #
ellipse-curve $-1 50.446509003080969 18.047354016526061 4.8563045569636882 0.54463904215088732 0 0.83867056331134215 0.41933528165567108 0 -0.27231952107544366 1 I I #
coedge $-1 $299 $299 $-1 $425 reversed $191 $-1 #
edge $-1 $426 0 $426 6.2831853071796004 $192 $427 forward 7 unknown #
vertex $-1 $195 $428 #
ellipse-curve $-1 50.446509003080969 21.283721176684356 4.8563045569636882 0.54463904215088732 0 0.83867056331134215 0.41933528165567108 0 -0.27231952107544366 1 I I #
face $-1 $-1 $315 $42 $-1 $429 forward single #
loop $-1 $-1 $430 $196 #
plane-surface $-1 -57.263710440382091 0 0 1 0 0 0 0 -1 forward_v I I I I #
coedge $-1 $431 $432 $433 $434 reversed $197 $-1 #
coedge $-1 $435 $199 $201 $313 forward $124 $-1 #
coedge $-1 $199 $435 $431 $436 forward $124 $-1 #
coedge $-1 $433 $202 $199 $310 forward $315 $-1 #
edge $-1 $317 -8.6095934241297076 $437 -1.4057057581085628 $309 $438 forward 7 unknown #
coedge $-1 $439 $440 $200 $312 forward $304 $-1 #
edge $-1 $441 -32.009435935262118 $316 -27.631438246569573 $311 $442 forward 7 unknown #
edge $-1 $317 -5.4818469608882161 $441 1.2078792010054373e-014 $201 $443 forward 7 unknown #
coedge $-1 $202 $433 $439 $444 forward $315 $-1 #
loop $-1 $-1 $433 $303 #
vertex $-1 $312 $445 #
vertex $-1 $203 $446 #
straight-curve $-1 -74.364688285879353 -13.617243015248842 9.2834470171706513 1 0 0 I I #
coedge $-1 $319 $319 $-1 $447 reversed $206 $-1 #
edge $-1 $448 0 $448 6.2831853071796004 $207 $449 forward 7 unknown #
vertex $-1 $210 $450 #
ellipse-curve $-1 -55.614181542453792 -11.558989396385655 7.0944481728243769 -0.79863551827123203 0 0.60181501223851219 0.60181501223851219 0 0.79863551827123203 1 I I #
coedge $-1 $323 $323 $-1 $451 reversed $213 $-1 #
edge $-1 $452 0 $452 6.2831853071796004 $214 $453 forward 7 unknown #
vertex $-1 $217 $454 #
ellipse-curve $-1 -55.614181542453792 -8.4716089680908784 7.0944481728243769 -0.79863551827123203 0 0.60181501223851219 0.60181501223851219 0 0.79863551827123203 1 I I #
face $-1 $-1 $455 $45 $-1 $456 reversed single #
loop $-1 $-1 $224 $218 #
plane-surface $-1 0 0 9.2834470171706531 0 0 1 1 0 0 forward_v I I I I #
coedge $-1 $457 $458 $459 $460 reversed $219 $-1 #
coedge $-1 $461 $221 $223 $337 forward $138 $-1 #
coedge $-1 $221 $461 $457 $462 forward $138 $-1 #
coedge $-1 $459 $224 $221 $334 forward $328 $-1 #
edge $-1 $340 5.0748077895673074 $463 12.278695455588453 $333 $464 forward 7 unknown #
coedge $-1 $465 $466 $222 $336 forward $455 $-1 #
edge $-1 $467 -32.009435935262118 $339 -27.631438246569573 $335 $468 forward 7 unknown #
edge $-1 $340 -5.4818469608882161 $467 1.2078792010054373e-014 $223 $469 forward 7 unknown #
coedge $-1 $224 $459 $465 $470 forward $328 $-1 #
vertex $-1 $336 $471 #
vertex $-1 $225 $472 #
straight-curve $-1 -74.364688285879353 13.751559412145188 9.2834470171706513 1 0 0 I I #
coedge $-1 $342 $342 $-1 $473 reversed $228 $-1 #
edge $-1 $474 0 $474 6.2831853071796004 $229 $475 forward 7 unknown #
vertex $-1 $232 $476 #
ellipse-curve $-1 -55.614181542453792 15.809813031008378 7.0944481728243769 -0.79863551827123203 0 0.60181501223851219 0.60181501223851219 0 0.79863551827123203 1 I I #
coedge $-1 $346 $346 $-1 $477 reversed $235 $-1 #
edge $-1 $478 0 $478 6.2831853071796004 $236 $479 forward 7 unknown #
vertex $-1 $239 $480 #
ellipse-curve $-1 -55.614181542453792 18.897193459303157 7.0944481728243769 -0.79863551827123203 0 0.60181501223851219 0.60181501223851219 0 0.79863551827123203 1 I I #
face $-1 $-1 $255 $36 $-1 $481 reversed single #
loop $-1 $-1 $366 $240 #
plane-surface $-1 0 23.441299283456562 0 0 -1 0 0 0 -1 forward_v I I I I #
coedge $-1 $482 $364 $367 $483 forward $241 $-1 #
coedge $-1 $370 $243 $244 $358 reversed $152 $-1 #
coedge $-1 $364 $482 $243 $356 reversed $241 $-1 #
edge $-1 $371 -9.2834470171706531 $484 9.2834470171706531 $355 $485 forward 7 unknown #
coedge $-1 $245 $244 $482 $486 forward $97 $-1 #
edge $-1 $362 -57.263710440382091 $484 57.263710440382091 $354 $487 forward 7 unknown #
coedge $-1 $367 $366 $245 $360 reversed $351 $-1 #
edge $-1 $488 -57.263710440382091 $361 57.263710440382091 $359 $489 forward 7 unknown #
vertex $-1 $247 $490 #
vertex $-1 $373 $491 #
straight-curve $-1 57.263710440382091 0 -9.2834470171706531 0 -1 0 I I #
coedge $-1 $353 $355 $248 $365 reversed $241 $-1 #
edge $-1 $368 -23.441299283456562 $371 23.441299283456562 $364 $492 forward 7 unknown #
coedge $-1 $359 $249 $254 $374 forward $351 $-1 #
coedge $-1 $249 $359 $353 $483 reversed $351 $-1 #
vertex $-1 $250 $493 #
straight-curve $-1 0 23.441299283456562 9.2834470171706531 -1 0 0 I I #
coedge $-1 $251 $354 $253 $373 reversed $152 $-1 #
vertex $-1 $365 $494 #
straight-curve $-1 0 -23.441299283456562 9.2834470171706531 1 0 0 I I #
edge $-1 $256 -9.2834470171706531 $362 9.2834470171706531 $253 $495 forward 7 unknown #
edge $-1 $257 -9.2834470171706531 $361 9.2834470171706531 $254 $496 forward 7 unknown #
point $-1 57.263710440382091 -23.441299283456562 9.2834470171706531 #
point $-1 57.263710440382091 23.441299283456562 9.2834470171706531 #
face $-1 $-1 $272 $37 $-1 $497 reversed single #
loop $-1 $-1 $384 $259 #
plane-surface $-1 0 0 9.2834470171706531 0 0 1 1 0 0 forward_v I I I I #
coedge $-1 $498 $262 $267 $389 forward $160 $-1 #
coedge $-1 $262 $498 $499 $500 reversed $160 $-1 #
coedge $-1 $264 $263 $262 $383 reversed $101 $-1 #
edge $-1 $501 -5.5947026204755241 $394 -1.7827861729147374 $262 $502 forward 7 unknown #
coedge $-1 $499 $503 $264 $385 forward $378 $-1 #
edge $-1 $387 -57.263710440382091 $501 57.263710440382091 $384 $504 forward 7 unknown #
coedge $-1 $271 $265 $503 $505 reversed $272 $-1 #
vertex $-1 $266 $506 #
straight-curve $-1 57.263710440382091 -16.103095220539061 3.6887443966951308 0 0 1 I I #
edge $-1 $394 6.2169965945401557 $392 13.555200657457654 $380 $507 forward 7 unknown #
coedge $-1 $508 $268 $271 $396 reversed $260 $-1 #
coedge $-1 $268 $508 $498 $509 forward $260 $-1 #
vertex $-1 $269 $510 #
straight-curve $-1 0 -23.441299283456562 5.4715305696098682 1 0 0 I I #
vertex $-1 $389 $511 #
straight-curve $-1 0 -16.103095220539061 5.4715305696098682 1 0 0 I I #
edge $-1 $512 -9.2834470171706531 $273 -5.4715305696098682 $271 $513 forward 7 unknown #
point $-1 57.263710440382091 -23.441299283456559 5.4715305696098682 #
point $-1 57.263710440382091 -16.103095220539061 5.4715305696098682 #
loop $-1 $-1 $408 $276 #
plane-surface $-1 57.263710440382091 0 0 -1 0 0 0 0 1 forward_v I I I I #
coedge $-1 $402 $279 $287 $414 reversed $168 $-1 #
coedge $-1 $279 $401 $514 $515 forward $168 $-1 #
coedge $-1 $408 $516 $281 $404 forward $399 $-1 #
edge $-1 $406 70.144574727796012 $412 78.99885964820993 $403 $517 forward 7 unknown #
coedge $-1 $287 $282 $516 $518 forward $277 $-1 #
vertex $-1 $518 $519 #
straight-curve $-1 11.794519332113676 12.65340874959557 9.2834470171706585 1 0 0 I I #
coedge $-1 $514 $403 $284 $409 forward $399 $-1 #
edge $-1 $412 3.6297317413325363 $410 14.417622275193532 $408 $520 forward 7 unknown #
vertex $-1 $409 $521 #
straight-curve $-1 -10.802402806375374 23.441299283456562 44.631813702027941 -0.83867056331134215 0 0.54463904215088732 I I #
vertex $-1 $409 $522 #
straight-curve $-1 -38.787066144283585 12.65340874959557 62.805266905267672 -0.83867056331134215 0 0.54463904215088732 I I #
edge $-1 $523 -57.263710440382091 $288 -43.629307565779854 $401 $524 forward 7 unknown #
point $-1 43.629307565779854 23.441299283456566 9.2834470171706585 #
point $-1 43.629307565779854 12.65340874959557 9.2834470171706585 #
edge $-1 $525 1 $525 0 $291 $-1 forward 7 unknown #
vertex $-1 $292 $526 #
ellipse-curve $-1 49.399266873782686 14.810986856367766 3.2436931234656212 0.54463904215088732 0 0.83867056331134215 0.41933528165567108 0 -0.27231952107544366 1 I I #
point $-1 50.865844284736632 14.810986856367766 4.5839850358882437 #
edge $-1 $527 1 $527 0 $295 $-1 forward 7 unknown #
vertex $-1 $296 $528 #
ellipse-curve $-1 49.399266873782686 18.047354016526061 3.2436931234656212 0.54463904215088732 0 0.83867056331134215 0.41933528165567108 0 -0.27231952107544366 1 I I #
point $-1 50.865844284736632 18.047354016526061 4.5839850358882437 #
edge $-1 $529 1 $529 0 $299 $-1 forward 7 unknown #
vertex $-1 $300 $530 #
ellipse-curve $-1 49.399266873782686 21.283721176684356 3.2436931234656212 0.54463904215088732 0 0.83867056331134215 0.41933528165567108 0 -0.27231952107544366 1 I I #
point $-1 50.865844284736632 21.283721176684356 4.5839850358882437 #
plane-surface $-1 0 0 9.2834470171706531 0 0 1 1 0 0 forward_v I I I I #
coedge $-1 $440 $439 $432 $531 forward $304 $-1 #
coedge $-1 $432 $306 $308 $436 reversed $197 $-1 #
coedge $-1 $306 $431 $430 $531 reversed $197 $-1 #
coedge $-1 $314 $309 $306 $434 forward $315 $-1 #
edge $-1 $437 -20.40003564135386 $532 -17.100977845497262 $433 $533 forward 7 unknown #
coedge $-1 $308 $307 $440 $534 reversed $124 $-1 #
edge $-1 $535 -1.2078792010054373e-014 $437 5.4818469608882161 $431 $536 forward 7 unknown #
vertex $-1 $310 $537 #
straight-curve $-1 -53.964652644525486 -5.0076495911191348 9.2834470171706549 0 1 0 I I #
coedge $-1 $430 $311 $314 $444 reversed $304 $-1 #
coedge $-1 $311 $430 $435 $534 forward $304 $-1 #
vertex $-1 $312 $538 #
straight-curve $-1 -57.263710440382091 -13.617243015248842 36.914885263740224 0 0 1 I I #
straight-curve $-1 -57.263710440382084 -13.617243015248842 4.9054493284781131 -0.60181501223851219 0 -0.79863551827123203 I I #
edge $-1 $532 6.4133553492276976 $316 13.617243015248842 $439 $539 forward 7 unknown #
point $-1 -57.263710440382091 -13.617243015248842 9.2834470171706531 #
point $-1 -53.964652644525493 -13.617243015248842 9.2834470171706531 #
edge $-1 $540 1 $540 0 $319 $-1 forward 7 unknown #
vertex $-1 $320 $541 #
ellipse-curve $-1 -54.791050992722177 -11.558989396385655 6.4741748309463061 -0.79863551827123203 0 0.60181501223851219 0.60181501223851219 0 0.79863551827123203 1 I I #
point $-1 -55.012366530215289 -11.558989396385655 7.893083691095617 #
edge $-1 $542 1 $542 0 $323 $-1 forward 7 unknown #
vertex $-1 $324 $543 #
ellipse-curve $-1 -54.791050992722177 -8.4716089680908784 6.4741748309463061 -0.79863551827123203 0 0.60181501223851219 0.60181501223851219 0 0.79863551827123203 1 I I #
point $-1 -55.012366530215289 -8.4716089680908784 7.893083691095617 #
loop $-1 $-1 $335 $327 #
plane-surface $-1 -57.263710440382091 0 0 1 0 0 0 0 -1 forward_v I I I I #
coedge $-1 $458 $330 $332 $462 reversed $219 $-1 #
coedge $-1 $330 $457 $544 $545 reversed $219 $-1 #
coedge $-1 $338 $333 $330 $460 forward $328 $-1 #
edge $-1 $463 -20.40003564135386 $546 -17.100977845497262 $459 $547 forward 7 unknown #
coedge $-1 $332 $331 $466 $548 reversed $138 $-1 #
edge $-1 $549 -1.2078792010054373e-014 $463 5.4818469608882161 $457 $550 forward 7 unknown #
vertex $-1 $334 $551 #
straight-curve $-1 -53.964652644525486 8.6767516225778802 9.2834470171706549 0 1 0 I I #
coedge $-1 $544 $335 $338 $470 reversed $455 $-1 #
coedge $-1 $335 $544 $461 $548 forward $455 $-1 #
vertex $-1 $336 $552 #
straight-curve $-1 -57.263710440382091 13.751559412145188 36.914885263740224 0 0 1 I I #
straight-curve $-1 -57.263710440382084 13.751559412145188 4.9054493284781131 -0.60181501223851219 0 -0.79863551827123203 I I #
edge $-1 $546 -20.955447078166333 $339 -13.751559412145188 $465 $553 forward 7 unknown #
point $-1 -57.263710440382091 13.751559412145188 9.2834470171706531 #
point $-1 -53.964652644525493 13.751559412145188 9.2834470171706531 #
edge $-1 $554 1 $554 0 $342 $-1 forward 7 unknown #
vertex $-1 $343 $555 #
ellipse-curve $-1 -54.791050992722177 15.809813031008378 6.4741748309463061 -0.79863551827123203 0 0.60181501223851219 0.60181501223851219 0 0.79863551827123203 1 I I #
point $-1 -55.012366530215289 15.809813031008378 7.893083691095617 #
edge $-1 $556 1 $556 0 $346 $-1 forward 7 unknown #
vertex $-1 $347 $557 #
ellipse-curve $-1 -54.791050992722177 18.897193459303157 6.4741748309463061 -0.79863551827123203 0 0.60181501223851219 0.60181501223851219 0 0.79863551827123203 1 I I #
point $-1 -55.012366530215289 18.897193459303157 7.893083691095617 #
plane-surface $-1 57.263710440382091 0 0 -1 0 0 0 0 1 forward_v I I I I #
coedge $-1 $355 $353 $357 $486 reversed $241 $-1 #
edge $-1 $368 -9.2834470171706531 $488 9.2834470171706531 $367 $558 forward 7 unknown #
vertex $-1 $486 $559 #
straight-curve $-1 -57.263710440382091 -23.441299283456562 0 0 0 -1 I I #
edge $-1 $484 -23.441299283456562 $488 23.441299283456562 $482 $560 forward 7 unknown #
straight-curve $-1 0 -23.441299283456562 -9.2834470171706531 -1 0 0 I I #
vertex $-1 $360 $561 #
straight-curve $-1 0 23.441299283456562 -9.2834470171706531 1 0 0 I I #
point $-1 57.263710440382091 23.441299283456562 -9.2834470171706531 #
point $-1 57.263710440382091 -23.441299283456562 -9.2834470171706531 #
straight-curve $-1 -57.263710440382091 0 9.2834470171706531 0 -1 0 I I #
point $-1 -57.263710440382091 23.441299283456562 9.2834470171706531 #
point $-1 -57.263710440382091 -23.441299283456562 9.2834470171706531 #
straight-curve $-1 57.263710440382091 -23.441299283456562 0 0 0 -1 I I #
straight-curve $-1 57.263710440382091 23.441299283456562 0 0 0 -1 I I #
plane-surface $-1 57.263710440382091 0 0 -1 0 0 0 0 1 forward_v I I I I #
coedge $-1 $381 $380 $391 $509 reversed $160 $-1 #
coedge $-1 $562 $384 $381 $500 forward $378 $-1 #
edge $-1 $501 16.103095220539061 $563 23.441299283456562 $381 $564 forward 7 unknown #
vertex $-1 $500 $565 #
straight-curve $-1 -57.263710440382091 -16.103095220539061 3.6887443966951308 0 0 -1 I I #
coedge $-1 $384 $562 $386 $505 forward $378 $-1 #
straight-curve $-1 0 -16.103095220539061 9.2834470171706531 -1 0 0 I I #
edge $-1 $512 -23.441299283456562 $387 -16.103095220539061 $386 $566 forward 7 unknown #
point $-1 57.263710440382091 -16.103095220539061 9.2834470171706549 #
straight-curve $-1 -57.263710440382091 -9.8860986259989048 5.4715305696098682 0 -1 0 I I #
coedge $-1 $391 $390 $562 $567 reversed $260 $-1 #
edge $-1 $563 -9.2834470171706531 $392 -5.4715305696098682 $498 $568 forward 7 unknown #
point $-1 -57.263710440382091 -23.441299283456559 5.4715305696098682 #
point $-1 -57.263710440382091 -16.103095220539061 5.4715305696098682 #
vertex $-1 $505 $569 #
straight-curve $-1 57.263710440382091 -23.441299283456562 0 0 0 -1 I I #
coedge $-1 $516 $408 $402 $515 reversed $399 $-1 #
edge $-1 $523 -9.2834470171706531 $410 -0.429162096756734 $514 $570 forward 7 unknown #
coedge $-1 $403 $514 $405 $518 reversed $399 $-1 #
straight-curve $-1 57.263710440382091 12.65340874959557 79.428021744966671 0 0 -1 I I #
edge $-1 $406 12.65340874959557 $523 23.441299283456562 $516 $571 forward 7 unknown #
point $-1 57.263710440382091 12.65340874959557 9.2834470171706531 #
straight-curve $-1 57.263710440382084 9.023677008263034 0.42916209675673045 0 1 0 I I #
point $-1 57.263710440382084 23.441299283456566 0.429162096756734 #
point $-1 57.263710440382084 12.65340874959557 0.429162096756734 #
vertex $-1 $518 $572 #
straight-curve $-1 0 23.441299283456562 9.2834470171706531 -1 0 0 I I #
vertex $-1 $417 $573 #
point $-1 49.818602155438356 14.810986856367766 2.9713736023901776 #
vertex $-1 $421 $574 #
point $-1 49.818602155438356 18.047354016526061 2.9713736023901776 #
vertex $-1 $425 $575 #
point $-1 49.818602155438356 21.283721176684356 2.9713736023901776 #
edge $-1 $532 27.631438246569573 $535 32.009435935262118 $430 $576 forward 7 unknown #
vertex $-1 $444 $577 #
straight-curve $-1 -74.364688285879353 -6.4133553492276976 9.2834470171706513 -1 0 0 I I #
edge $-1 $535 1.4057057581085628 $441 8.6095934241297076 $440 $578 forward 7 unknown #
vertex $-1 $534 $579 #
straight-curve $-1 -57.263710440382084 -6.4133553492276976 4.9054493284781131 0.60181501223851219 0 0.79863551827123203 I I #
point $-1 -53.964652644525493 -6.4133553492276976 9.2834470171706531 #
point $-1 -57.263710440382091 -13.617243015248842 4.9054493284781033 #
straight-curve $-1 -57.263710440382091 0 9.2834470171706531 0 -1 0 I I #
vertex $-1 $447 $580 #
point $-1 -54.189235980483666 -11.558989396385655 7.2728103492175382 #
vertex $-1 $451 $581 #
point $-1 -54.189235980483666 -8.4716089680908784 7.2728103492175382 #
coedge $-1 $466 $465 $458 $545 forward $455 $-1 #
edge $-1 $546 27.631438246569573 $549 32.009435935262118 $544 $582 forward 7 unknown #
vertex $-1 $470 $583 #
straight-curve $-1 -74.364688285879353 20.955447078166333 9.2834470171706513 -1 0 0 I I #
edge $-1 $549 -12.278695455588453 $467 -5.0748077895673074 $466 $584 forward 7 unknown #
vertex $-1 $548 $585 #
straight-curve $-1 -57.263710440382084 20.955447078166333 4.9054493284781131 0.60181501223851219 0 0.79863551827123203 I I #
point $-1 -53.964652644525493 20.955447078166333 9.2834470171706531 #
point $-1 -57.263710440382091 13.751559412145188 4.9054493284781033 #
straight-curve $-1 -57.263710440382091 0 9.2834470171706531 0 -1 0 I I #
vertex $-1 $473 $586 #
point $-1 -54.189235980483666 15.809813031008378 7.2728103492175382 #
vertex $-1 $477 $587 #
point $-1 -54.189235980483666 18.897193459303157 7.2728103492175382 #
straight-curve $-1 -57.263710440382091 23.441299283456562 0 0 0 -1 I I #
point $-1 -57.263710440382091 -23.441299283456562 -9.2834470171706531 #
straight-curve $-1 -57.263710440382091 0 -9.2834470171706531 0 1 0 I I #
point $-1 -57.263710440382091 23.441299283456562 -9.2834470171706531 #
coedge $-1 $503 $499 $508 $567 forward $378 $-1 #
vertex $-1 $500 $588 #
straight-curve $-1 -57.263710440382091 0 9.2834470171706531 0 -1 0 I I #
point $-1 -57.263710440382091 -16.103095220539061 9.2834470171706549 #
straight-curve $-1 57.263710440382091 0 9.2834470171706531 0 1 0 I I #
edge $-1 $563 -57.263710440382091 $512 57.263710440382091 $508 $589 forward 7 unknown #
straight-curve $-1 -57.263710440382091 -23.441299283456562 0 0 0 -1 I I #
point $-1 57.263710440382091 -23.441299283456562 9.2834470171706531 #
straight-curve $-1 57.263710440382091 23.441299283456562 0 0 0 -1 I I #
straight-curve $-1 57.263710440382091 0 9.2834470171706531 0 1 0 I I #
point $-1 57.263710440382091 23.441299283456562 9.2834470171706531 #
point $-1 49.126947352707241 14.810986856367766 2.8243578418099498 #
point $-1 49.126947352707241 18.047354016526061 2.8243578418099498 #
point $-1 49.126947352707241 21.283721176684356 2.8243578418099498 #
straight-curve $-1 -57.263710440382091 -6.4133553492276976 36.914885263740224 0 0 -1 I I #
point $-1 -57.263710440382091 -6.4133553492276976 9.2834470171706531 #
straight-curve $-1 -57.263710440382091 -5.0076495911191348 4.9054493284781024 0 -1 0 I I #
point $-1 -57.263710440382091 -6.4133553492276976 4.9054493284781033 #
point $-1 -53.992415474450951 -11.558989396385655 5.8723598187077934 #
point $-1 -53.992415474450951 -8.4716089680908784 5.8723598187077934 #
straight-curve $-1 -57.263710440382091 20.955447078166333 36.914885263740224 0 0 -1 I I #
point $-1 -57.263710440382091 20.955447078166333 9.2834470171706531 #
straight-curve $-1 -57.263710440382091 8.6767516225778802 4.9054493284781024 0 -1 0 I I #
point $-1 -57.263710440382091 20.955447078166333 4.9054493284781033 #
point $-1 -53.992415474450951 15.809813031008378 5.8723598187077934 #
point $-1 -53.992415474450951 18.897193459303157 5.8723598187077934 #
point $-1 -57.263710440382091 -23.441299283456562 9.2834470171706531 #
straight-curve $-1 0 -23.441299283456562 9.2834470171706531 1 0 0 I I #
End-of-ACIS-data 