500 0 5 0           
7 Unknown 11 ACIS 5.0 NT 24 Fri Mar 26 18:03:22 1999 
-1 9.9999999999999995e-007 1e-010 
body $-1 $5 $-1 $6 #
body $-1 $7 $-1 $8 #
body $-1 $9 $-1 $10 #
body $-1 $11 $-1 $12 #
body $-1 $13 $-1 $14 #
lump $-1 $-1 $15 $0 #
transform $-1 1 0 0 0 1 0 0 0 1 69.484542374950408 32.778840364239429 11.684920824078235 1 rotate no_reflect no_shear #
lump $-1 $-1 $16 $1 #
transform $-1 1 0 0 0 1 0 0 0 1 69.484542374950408 32.778840364239429 11.684920824078235 1 rotate no_reflect no_shear #
lump $-1 $-1 $17 $2 #
transform $-1 1 0 0 0 1 0 0 0 1 69.484542374950408 32.778840364239429 11.684920824078235 1 rotate no_reflect no_shear #
lump $-1 $-1 $18 $3 #
transform $-1 1 0 0 0 1 0 0 0 1 69.484542374950408 32.778840364239429 11.684920824078235 1 rotate no_reflect no_shear #
lump $-1 $-1 $19 $4 #
transform $-1 1 0 0 0 1 0 0 0 1 69.484542374950408 32.778840364239429 11.684920824078235 1 rotate no_reflect no_shear #
shell $-1 $-1 $-1 $20 $-1 $5 #
shell $-1 $-1 $-1 $21 $-1 $7 #
shell $-1 $-1 $-1 $22 $-1 $9 #
shell $-1 $-1 $-1 $23 $-1 $11 #
shell $-1 $-1 $-1 $24 $-1 $13 #
face $-1 $25 $26 $15 $-1 $27 forward single #
face $-1 $28 $29 $16 $-1 $30 forward single #
face $-1 $31 $32 $17 $-1 $33 forward single #
face $-1 $34 $35 $18 $-1 $36 reversed single #
face $-1 $37 $38 $19 $-1 $39 forward single #
face $-1 $40 $41 $15 $-1 $42 reversed single #
loop $-1 $-1 $43 $20 #
plane-surface $-1 0 0 11.684920824078235 0 0 1 1 0 0 forward_v I I I I #
face $-1 $44 $45 $16 $-1 $46 forward single #
loop $-1 $-1 $47 $21 #
plane-surface $-1 0 -32.778840364239429 0 0 1 0 0 0 1 forward_v I I I I #
face $-1 $48 $49 $17 $-1 $50 reversed single #
loop $-1 $-1 $51 $22 #
plane-surface $-1 0 32.778840364239429 0 0 -1 0 0 0 -1 forward_v I I I I #
face $-1 $52 $53 $18 $-1 $54 reversed single #
loop $-1 $-1 $55 $23 #
plane-surface $-1 120.35076067085187 0.55919649150951756 195.53733801009355 0 -1 0 -0.86602541151947299 0 -0.49999998660252726 forward_v I I I I #
face $-1 $56 $57 $19 $-1 $58 forward single #
loop $-1 $59 $60 $24 #
cone-surface $-1 67.285885769692342 -4.6013562382142013 8.4212317699061341 -0.86602541151947299 0 -0.49999998660252726 0.49999998660252726 0 -0.86602541151947299 1 I I 0 1 1 forward I I I I #
face $-1 $61 $62 $15 $-1 $63 reversed single #
loop $-1 $-1 $64 $25 #
plane-surface $-1 0 0 -11.684920824078235 0 0 1 1 0 0 forward_v I I I I #
coedge $-1 $65 $66 $67 $68 forward $26 $-1 #
face $-1 $69 $70 $16 $-1 $71 reversed single #
loop $-1 $-1 $72 $28 #
plane-surface $-1 0 0 11.684920824078235 0 0 1 1 0 0 forward_v I I I I #
coedge $-1 $73 $74 $75 $76 forward $29 $-1 #
face $-1 $77 $78 $17 $-1 $79 reversed single #
loop $-1 $-1 $80 $31 #
plane-surface $-1 69.484542374950408 0 0 -1 0 0 0 0 1 forward_v I I I I #
coedge $-1 $81 $82 $83 $84 forward $32 $-1 #
face $-1 $85 $86 $18 $-1 $87 reversed single #
loop $-1 $-1 $88 $34 #
plane-surface $-1 1.8618344910237283e-006 -4.6013562382142013 126.05279749697766 0.86602541151947299 0 0.49999998660252726 0.49999998660252726 0 -0.86602541151947299 forward_v I I I I #
coedge $-1 $89 $90 $91 $92 reversed $35 $-1 #
face $-1 $-1 $93 $19 $-1 $94 forward single #
loop $-1 $95 $96 $37 #
cone-surface $-1 66.381325702879579 -4.6013562382142013 7.898983790491739 -0.86602541151947299 0 -0.49999998660252726 0.24999999330126363 0 -0.43301270575973649 1 I I -0.70710678118654746 0.70710678118654746 0.5 forward I I I I #
loop $-1 $-1 $97 $24 #
coedge $-1 $60 $60 $98 $99 reversed $38 $-1 #
face $-1 $100 $101 $15 $-1 $102 reversed single #
loop $-1 $-1 $103 $40 #
plane-surface $-1 0 -32.778840364239429 0 0 1 0 0 0 1 forward_v I I I I #
coedge $-1 $104 $105 $106 $107 forward $41 $-1 #
coedge $-1 $108 $43 $109 $110 forward $26 $-1 #
coedge $-1 $43 $108 $111 $112 forward $26 $-1 #
coedge $-1 $113 $114 $43 $68 reversed $115 $-1 #
edge $-1 $116 -32.778840364239429 $117 32.778840364239429 $67 $118 forward 7 unknown #
face $-1 $119 $120 $16 $-1 $121 reversed single #
loop $-1 $-1 $122 $44 #
plane-surface $-1 -69.484542374950408 0 0 1 0 0 0 0 -1 forward_v I I I I #
coedge $-1 $123 $124 $125 $126 forward $45 $-1 #
coedge $-1 $125 $47 $122 $127 reversed $29 $-1 #
coedge $-1 $47 $125 $128 $129 reversed $29 $-1 #
coedge $-1 $130 $131 $47 $76 reversed $120 $-1 #
edge $-1 $132 -69.484542374950408 $133 69.484542374950408 $75 $134 forward 7 unknown #
face $-1 $135 $136 $17 $-1 $137 reversed single #
loop $-1 $-1 $138 $48 #
plane-surface $-1 0 39.233240867935592 7.9316388124987984 0 0 1 1 0 0 forward_v I I I I #
coedge $-1 $139 $140 $81 $141 forward $49 $-1 #
coedge $-1 $142 $51 $80 $141 reversed $32 $-1 #
coedge $-1 $51 $142 $143 $144 reversed $32 $-1 #
coedge $-1 $145 $138 $51 $84 reversed $78 $-1 #
edge $-1 $146 -69.484542374950408 $147 69.484542374950408 $83 $148 forward 7 unknown #
face $-1 $149 $150 $18 $-1 $151 forward single #
loop $-1 $-1 $152 $52 #
plane-surface $-1 120.35076067085187 -9.7619089679379201 195.53733801009355 0 1 0 0.86602541151947299 0 0.49999998660252726 forward_v I I I I #
coedge $-1 $153 $154 $155 $156 reversed $53 $-1 #
coedge $-1 $90 $55 $157 $158 reversed $35 $-1 #
coedge $-1 $55 $89 $153 $159 reversed $35 $-1 #
coedge $-1 $155 $160 $55 $92 forward $150 $-1 #
edge $-1 $161 -9.3091620395244732 $162 -5.8549435511144097 $91 $163 forward 7 unknown #
loop $-1 $-1 $98 $56 #
plane-surface $-1 1.8618344910237283e-006 -4.6013562382142013 126.05279749697766 0.86602541151947299 0 0.49999998660252726 0.49999998660252726 0 -0.86602541151947299 forward_v I I I I #
loop $-1 $-1 $164 $37 #
coedge $-1 $96 $96 $97 $165 reversed $57 $-1 #
coedge $-1 $97 $97 $96 $165 forward $59 $-1 #
coedge $-1 $98 $98 $60 $99 forward $93 $-1 #
edge $-1 $166 0 $166 6.2831853071796004 $98 $167 forward 7 unknown #
face $-1 $168 $169 $15 $-1 $170 reversed single #
loop $-1 $-1 $171 $61 #
plane-surface $-1 -69.484542374950408 0 0 1 0 0 0 0 -1 forward_v I I I I #
coedge $-1 $172 $111 $173 $174 forward $62 $-1 #
coedge $-1 $175 $64 $172 $176 forward $41 $-1 #
coedge $-1 $64 $175 $177 $178 forward $41 $-1 #
coedge $-1 $114 $113 $64 $107 reversed $115 $-1 #
edge $-1 $179 -32.778840364239429 $180 32.778840364239429 $106 $181 forward 7 unknown #
coedge $-1 $66 $65 $182 $183 forward $26 $-1 #
coedge $-1 $184 $185 $65 $110 reversed $169 $-1 #
edge $-1 $117 -69.484542374950408 $186 69.484542374950408 $109 $187 forward 7 unknown #
coedge $-1 $103 $188 $66 $112 reversed $62 $-1 #
edge $-1 $189 -69.484542374950408 $116 69.484542374950408 $111 $190 forward 7 unknown #
coedge $-1 $106 $67 $188 $191 forward $115 $-1 #
coedge $-1 $67 $106 $184 $192 reversed $115 $-1 #
loop $-1 $-1 $113 $168 #
vertex $-1 $68 $193 #
vertex $-1 $68 $194 #
straight-curve $-1 69.484542374950408 0 11.684920824078235 0 1 0 I I #
face $-1 $195 $196 $16 $-1 $197 reversed single #
loop $-1 $-1 $130 $69 #
plane-surface $-1 0 -39.233240867935592 7.9316388124987984 0 0 1 1 0 0 forward_v I I I I #
coedge $-1 $198 $199 $73 $127 forward $70 $-1 #
coedge $-1 $200 $72 $199 $201 forward $45 $-1 #
coedge $-1 $72 $200 $202 $203 forward $45 $-1 #
coedge $-1 $74 $73 $72 $126 reversed $29 $-1 #
edge $-1 $204 -69.484542374950408 $205 69.484542374950408 $72 $206 forward 7 unknown #
edge $-1 $205 -11.684920824078235 $133 -7.9316388124987984 $122 $207 forward 7 unknown #
coedge $-1 $202 $208 $74 $129 forward $209 $-1 #
edge $-1 $132 7.9316388124987984 $204 11.684920824078235 $128 $210 forward 7 unknown #
coedge $-1 $211 $75 $208 $212 forward $120 $-1 #
coedge $-1 $75 $211 $198 $213 forward $120 $-1 #
vertex $-1 $129 $214 #
vertex $-1 $127 $215 #
straight-curve $-1 0 -32.778840364239429 7.9316388124987984 -1 0 0 I I #
face $-1 $216 $217 $17 $-1 $218 forward single #
loop $-1 $-1 $219 $77 #
plane-surface $-1 0 45.687641371631756 9.8082798182885167 0 -1 0 0 0 -1 forward_v I I I I #
coedge $-1 $83 $220 $139 $221 forward $78 $-1 #
coedge $-1 $222 $80 $138 $221 reversed $49 $-1 #
coedge $-1 $80 $222 $223 $224 reversed $49 $-1 #
edge $-1 $225 -11.684920824078235 $147 -7.9316388124987984 $80 $226 forward 7 unknown #
coedge $-1 $82 $81 $227 $228 reversed $32 $-1 #
coedge $-1 $229 $230 $82 $144 forward $231 $-1 #
edge $-1 $146 7.9316388124987984 $232 11.684920824078235 $143 $233 forward 7 unknown #
coedge $-1 $220 $83 $230 $234 forward $78 $-1 #
vertex $-1 $144 $235 #
vertex $-1 $141 $236 #
straight-curve $-1 0 32.778840364239429 7.9316388124987984 1 0 0 I I #
face $-1 $-1 $237 $18 $-1 $238 reversed single #
loop $-1 $-1 $91 $85 #
plane-surface $-1 0 0 11.684920824078235 0 0 1 1 0 0 forward_v I I I I #
coedge $-1 $239 $240 $241 $242 reversed $86 $-1 #
coedge $-1 $243 $88 $90 $159 forward $53 $-1 #
coedge $-1 $88 $243 $239 $244 forward $53 $-1 #
coedge $-1 $241 $91 $88 $156 forward $150 $-1 #
edge $-1 $162 -2.8598746106166182 $245 7.4612308488308194 $155 $246 forward 7 unknown #
coedge $-1 $247 $248 $89 $158 forward $237 $-1 #
edge $-1 $249 -92.066630317086535 $161 -86.083748180968541 $157 $250 forward 7 unknown #
edge $-1 $162 132.06064758796953 $249 138.96908474990087 $90 $251 forward 7 unknown #
coedge $-1 $91 $241 $247 $252 forward $150 $-1 #
vertex $-1 $158 $253 #
vertex $-1 $92 $254 #
straight-curve $-1 60.175380335425935 0.55919649150951756 11.684920824078233 -1 0 0 I I #
coedge $-1 $164 $164 $-1 $255 reversed $95 $-1 #
edge $-1 $256 0 $256 6.2831853071796004 $96 $257 forward 7 unknown #
vertex $-1 $99 $258 #
ellipse-curve $-1 67.757433130745355 -4.6013562382142013 8.6934797560192578 0.86602541151947299 0 0.49999998660252726 0.49999998660252726 0 -0.86602541151947299 1 I I #
face $-1 $-1 $115 $15 $-1 $259 reversed single #
loop $-1 $-1 $184 $100 #
plane-surface $-1 0 32.778840364239429 0 0 -1 0 0 0 -1 forward_v I I I I #
coedge $-1 $260 $182 $185 $261 forward $101 $-1 #
coedge $-1 $188 $103 $104 $176 reversed $62 $-1 #
coedge $-1 $182 $260 $103 $174 reversed $101 $-1 #
edge $-1 $189 -11.684920824078235 $262 11.684920824078235 $173 $263 forward 7 unknown #
coedge $-1 $105 $104 $260 $264 forward $41 $-1 #
edge $-1 $180 -69.484542374950408 $262 69.484542374950408 $172 $265 forward 7 unknown #
coedge $-1 $185 $184 $105 $178 reversed $169 $-1 #
edge $-1 $266 -69.484542374950408 $179 69.484542374950408 $177 $267 forward 7 unknown #
vertex $-1 $107 $268 #
vertex $-1 $191 $269 #
straight-curve $-1 69.484542374950408 0 -11.684920824078235 0 -1 0 I I #
coedge $-1 $171 $173 $108 $183 reversed $101 $-1 #
edge $-1 $186 -32.778840364239429 $189 32.778840364239429 $182 $270 forward 7 unknown #
coedge $-1 $177 $109 $114 $192 forward $169 $-1 #
coedge $-1 $109 $177 $171 $261 reversed $169 $-1 #
vertex $-1 $110 $271 #
straight-curve $-1 0 32.778840364239429 11.684920824078235 -1 0 0 I I #
coedge $-1 $111 $172 $113 $191 reversed $62 $-1 #
vertex $-1 $183 $272 #
straight-curve $-1 0 -32.778840364239429 11.684920824078235 1 0 0 I I #
edge $-1 $116 -11.684920824078235 $180 11.684920824078235 $113 $273 forward 7 unknown #
edge $-1 $117 -11.684920824078235 $179 11.684920824078235 $114 $274 forward 7 unknown #
point $-1 69.484542374950408 -32.778840364239429 11.684920824078235 #
point $-1 69.484542374950408 32.778840364239429 11.684920824078235 #
face $-1 $-1 $209 $16 $-1 $275 reversed single #
loop $-1 $-1 $276 $119 #
plane-surface $-1 0 -45.687641371631756 9.8082798182885167 0 1 0 0 0 1 forward_v I I I I #
coedge $-1 $277 $122 $131 $213 reversed $70 $-1 #
coedge $-1 $122 $277 $123 $201 reversed $70 $-1 #
coedge $-1 $124 $123 $278 $279 forward $45 $-1 #
edge $-1 $205 32.778840364239429 $280 45.687641371631756 $199 $281 forward 7 unknown #
coedge $-1 $282 $128 $124 $203 reversed $209 $-1 #
edge $-1 $283 -45.687641371631756 $204 -32.778840364239429 $202 $284 forward 7 unknown #
vertex $-1 $129 $285 #
vertex $-1 $201 $286 #
straight-curve $-1 0 -32.778840364239429 11.684920824078235 -1 0 0 I I #
straight-curve $-1 -69.484542374950408 -32.778840364239429 0 0 0 -1 I I #
coedge $-1 $128 $282 $130 $212 reversed $209 $-1 #
loop $-1 $-1 $128 $195 #
straight-curve $-1 69.484542374950408 -32.778840364239429 0 0 0 1 I I #
coedge $-1 $131 $130 $287 $288 forward $120 $-1 #
edge $-1 $132 -6.4544005036961636 $289 6.4544005036961636 $208 $290 forward 7 unknown #
edge $-1 $291 -6.4544005036961636 $133 6.4544005036961636 $198 $292 forward 7 unknown #
point $-1 69.484542374950408 -32.778840364239429 7.9316388124987984 #
point $-1 -69.484542374950408 -32.778840364239429 7.9316388124987984 #
face $-1 $-1 $231 $17 $-1 $293 reversed single #
loop $-1 $-1 $227 $135 #
plane-surface $-1 0 0 11.684920824078235 0 0 1 1 0 0 forward_v I I I I #
coedge $-1 $294 $295 $222 $296 forward $136 $-1 #
coedge $-1 $138 $145 $294 $297 forward $78 $-1 #
edge $-1 $298 -6.4544005036961636 $147 6.4544005036961636 $139 $299 forward 7 unknown #
coedge $-1 $140 $139 $219 $296 reversed $49 $-1 #
coedge $-1 $300 $227 $140 $224 forward $217 $-1 #
edge $-1 $225 32.778840364239429 $301 45.687641371631756 $140 $302 forward 7 unknown #
vertex $-1 $224 $303 #
straight-curve $-1 69.484542374950408 32.778840364239429 0 0 0 -1 I I #
coedge $-1 $223 $304 $142 $228 forward $217 $-1 #
edge $-1 $232 -69.484542374950408 $225 69.484542374950408 $227 $305 forward 7 unknown #
coedge $-1 $306 $143 $304 $307 reversed $231 $-1 #
coedge $-1 $143 $306 $145 $234 reversed $231 $-1 #
loop $-1 $-1 $143 $216 #
vertex $-1 $144 $308 #
straight-curve $-1 -69.484542374950408 32.778840364239429 0 0 0 1 I I #
edge $-1 $146 -6.4544005036961636 $309 6.4544005036961636 $230 $310 forward 7 unknown #
point $-1 -69.484542374950408 32.778840364239429 7.9316388124987984 #
point $-1 69.484542374950408 32.778840364239429 7.9316388124987984 #
loop $-1 $-1 $157 $149 #
plane-surface $-1 69.484542374950408 0 0 -1 0 0 0 0 1 forward_v I I I I #
coedge $-1 $240 $152 $154 $244 reversed $86 $-1 #
coedge $-1 $152 $239 $311 $312 reversed $86 $-1 #
coedge $-1 $160 $155 $152 $242 forward $150 $-1 #
edge $-1 $245 5.8549435511144097 $313 9.3091620395244732 $241 $314 forward 7 unknown #
coedge $-1 $154 $153 $248 $315 reversed $53 $-1 #
edge $-1 $316 -138.96908474990087 $245 -132.06064758796953 $239 $317 forward 7 unknown #
vertex $-1 $156 $318 #
straight-curve $-1 66.030323886540344 -2.3006781191071006 11.684920824078233 0 -1 0 I I #
coedge $-1 $311 $157 $160 $252 reversed $237 $-1 #
coedge $-1 $157 $311 $243 $315 forward $237 $-1 #
vertex $-1 $158 $319 #
straight-curve $-1 69.484542374950408 0.55919649150951756 97.768669005046775 0 0 1 I I #
straight-curve $-1 1.8618344910237283e-006 0.55919649150951756 126.05279749697766 0.49999998660252726 0 -0.86602541151947299 I I #
edge $-1 $313 -9.7619089679379201 $161 0.55919649150951756 $247 $320 forward 7 unknown #
point $-1 69.484542374950408 0.55919649150951756 11.684920824078235 #
point $-1 66.030323886540344 0.55919649150951756 11.684920824078233 #
edge $-1 $321 1 $321 0 $164 $-1 forward 7 unknown #
vertex $-1 $165 $322 #
ellipse-curve $-1 66.814338408639316 -4.6013562382142013 8.1489837837930033 0.86602541151947299 0 0.49999998660252726 0.49999998660252726 0 -0.86602541151947299 1 I I #
point $-1 68.257433117347901 -4.6013562382142013 7.8274543444997926 #
plane-surface $-1 69.484542374950408 0 0 -1 0 0 0 0 1 forward_v I I I I #
coedge $-1 $173 $171 $175 $264 reversed $101 $-1 #
edge $-1 $186 -11.684920824078235 $266 11.684920824078235 $185 $323 forward 7 unknown #
vertex $-1 $264 $324 #
straight-curve $-1 -69.484542374950408 -32.778840364239429 0 0 0 -1 I I #
edge $-1 $262 -32.778840364239429 $266 32.778840364239429 $260 $325 forward 7 unknown #
straight-curve $-1 0 -32.778840364239429 -11.684920824078235 -1 0 0 I I #
vertex $-1 $178 $326 #
straight-curve $-1 0 32.778840364239429 -11.684920824078235 1 0 0 I I #
point $-1 69.484542374950408 32.778840364239429 -11.684920824078235 #
point $-1 69.484542374950408 -32.778840364239429 -11.684920824078235 #
straight-curve $-1 -69.484542374950408 0 11.684920824078235 0 -1 0 I I #
point $-1 -69.484542374950408 32.778840364239429 11.684920824078235 #
point $-1 -69.484542374950408 -32.778840364239429 11.684920824078235 #
straight-curve $-1 69.484542374950408 -32.778840364239429 0 0 0 -1 I I #
straight-curve $-1 69.484542374950408 32.778840364239429 0 0 0 -1 I I #
plane-surface $-1 69.484542374950408 0 0 -1 0 0 0 0 1 forward_v I I I I #
coedge $-1 $287 $278 $277 $327 forward $196 $-1 #
coedge $-1 $199 $198 $276 $327 reversed $70 $-1 #
coedge $-1 $276 $328 $200 $279 reversed $196 $-1 #
edge $-1 $280 -69.484542374950408 $283 69.484542374950408 $278 $329 forward 7 unknown #
vertex $-1 $201 $330 #
straight-curve $-1 -69.484542374950408 0 11.684920824078235 0 -1 0 I I #
coedge $-1 $208 $202 $328 $331 forward $209 $-1 #
vertex $-1 $203 $332 #
straight-curve $-1 69.484542374950408 0 11.684920824078235 0 1 0 I I #
point $-1 69.484542374950408 -32.778840364239429 11.684920824078235 #
point $-1 -69.484542374950408 -32.778840364239429 11.684920824078235 #
coedge $-1 $328 $276 $211 $288 reversed $196 $-1 #
edge $-1 $289 -69.484542374950408 $291 69.484542374950408 $287 $333 forward 7 unknown #
vertex $-1 $331 $334 #
straight-curve $-1 69.484542374950408 -39.233240867935592 7.9316388124987984 0 -1 0 I I #
vertex $-1 $213 $335 #
straight-curve $-1 -69.484542374950408 -39.233240867935592 7.9316388124987984 0 1 0 I I #
plane-surface $-1 -69.484542374950408 0 0 1 0 0 0 0 -1 forward_v I I I I #
coedge $-1 $336 $219 $220 $297 reversed $136 $-1 #
coedge $-1 $219 $336 $300 $337 reversed $136 $-1 #
edge $-1 $301 -1.8766410057897183 $298 1.8766410057897183 $222 $338 forward 7 unknown #
edge $-1 $309 -69.484542374950408 $298 69.484542374950408 $294 $339 forward 7 unknown #
vertex $-1 $221 $340 #
straight-curve $-1 69.484542374950408 39.233240867935592 7.9316388124987984 0 -1 0 I I #
coedge $-1 $304 $223 $295 $337 forward $217 $-1 #
vertex $-1 $224 $341 #
straight-curve $-1 69.484542374950408 0 11.684920824078235 0 1 0 I I #
point $-1 69.484542374950408 32.778840364239429 11.684920824078235 #
coedge $-1 $227 $300 $229 $307 forward $217 $-1 #
straight-curve $-1 0 32.778840364239429 11.684920824078235 1 0 0 I I #
coedge $-1 $230 $229 $336 $342 forward $231 $-1 #
edge $-1 $343 -45.687641371631756 $232 -32.778840364239429 $229 $344 forward 7 unknown #
point $-1 -69.484542374950408 32.778840364239429 11.684920824078235 #
vertex $-1 $297 $345 #
straight-curve $-1 -69.484542374950408 39.233240867935592 7.9316388124987984 0 1 0 I I #
coedge $-1 $248 $247 $240 $312 forward $237 $-1 #
edge $-1 $313 86.083748180968541 $316 92.066630317086535 $311 $346 forward 7 unknown #
vertex $-1 $252 $347 #
straight-curve $-1 60.175380335425935 -9.7619089679379201 11.684920824078233 1 0 0 I I #
edge $-1 $316 -7.4612308488308194 $249 2.8598746106166182 $248 $348 forward 7 unknown #
vertex $-1 $315 $349 #
straight-curve $-1 1.8618344910237283e-006 -9.7619089679379201 126.05279749697766 -0.49999998660252726 0 0.86602541151947299 I I #
point $-1 66.030323886540344 -9.7619089679379201 11.684920824078233 #
point $-1 69.484542374950408 0.55919649150951756 5.7020386879602398 #
straight-curve $-1 69.484542374950408 0 11.684920824078235 0 1 0 I I #
vertex $-1 $255 $350 #
point $-1 67.314338395241847 -4.6013562382142013 7.28295837227353 #
straight-curve $-1 -69.484542374950408 32.778840364239429 0 0 0 -1 I I #
point $-1 -69.484542374950408 -32.778840364239429 -11.684920824078235 #
straight-curve $-1 -69.484542374950408 0 -11.684920824078235 0 1 0 I I #
point $-1 -69.484542374950408 32.778840364239429 -11.684920824078235 #
edge $-1 $280 -1.8766410057897183 $291 1.8766410057897183 $277 $351 forward 7 unknown #
coedge $-1 $278 $287 $282 $331 reversed $196 $-1 #
straight-curve $-1 0 -45.687641371631756 11.684920824078235 1 0 0 I I #
point $-1 -69.484542374950408 -45.687641371631756 11.684920824078235 #
edge $-1 $283 -1.8766410057897183 $289 1.8766410057897183 $282 $352 forward 7 unknown #
point $-1 69.484542374950408 -45.687641371631756 11.684920824078235 #
straight-curve $-1 0 -45.687641371631756 7.9316388124987984 -1 0 0 I I #
point $-1 69.484542374950408 -45.687641371631756 7.9316388124987984 #
point $-1 -69.484542374950408 -45.687641371631756 7.9316388124987984 #
coedge $-1 $295 $294 $306 $342 reversed $136 $-1 #
edge $-1 $301 -69.484542374950408 $343 69.484542374950408 $295 $353 forward 7 unknown #
straight-curve $-1 69.484542374950408 45.687641371631756 9.8082798182885167 0 0 -1 I I #
straight-curve $-1 0 45.687641371631756 7.9316388124987984 1 0 0 I I #
point $-1 69.484542374950408 45.687641371631756 7.9316388124987984 #
point $-1 69.484542374950408 45.687641371631756 11.684920824078235 #
edge $-1 $343 -1.8766410057897183 $309 1.8766410057897183 $336 $354 forward 7 unknown #
vertex $-1 $337 $355 #
straight-curve $-1 -69.484542374950408 0 11.684920824078235 0 -1 0 I I #
point $-1 -69.484542374950408 45.687641371631756 7.9316388124987984 #
straight-curve $-1 69.484542374950408 -9.7619089679379201 97.768669005046775 0 0 -1 I I #
point $-1 69.484542374950408 -9.7619089679379201 11.684920824078235 #
straight-curve $-1 69.484542374950408 -2.3006781191071006 5.7020386879602256 0 1 0 I I #
point $-1 69.484542374950408 -9.7619089679379201 5.7020386879602398 #
point $-1 65.948312997119842 -4.6013562382142013 7.6489837971904757 #
straight-curve $-1 -69.484542374950408 -45.687641371631756 9.8082798182885167 0 0 -1 I I #
straight-curve $-1 69.484542374950408 -45.687641371631756 9.8082798182885167 0 0 -1 I I #
straight-curve $-1 0 45.687641371631756 11.684920824078235 -1 0 0 I I #
straight-curve $-1 -69.484542374950408 45.687641371631756 9.8082798182885167 0 0 -1 I I #
point $-1 -69.484542374950408 45.687641371631756 11.684920824078235 #
End-of-ACIS-data 